<?xml version="1.0" encoding="UTF-8" standalone="no"?>
<svg
   xmlns:dc="http://purl.org/dc/elements/1.1/"
   xmlns:cc="http://creativecommons.org/ns#"
   xmlns:rdf="http://www.w3.org/1999/02/22-rdf-syntax-ns#"
   xmlns:svg="http://www.w3.org/2000/svg"
   xmlns="http://www.w3.org/2000/svg"
   xmlns:sodipodi="http://sodipodi.sourceforge.net/DTD/sodipodi-0.dtd"
   xmlns:inkscape="http://www.inkscape.org/namespaces/inkscape"
   viewBox="-545.077 571.505 98.806001 61.892"
   version="1.1"
   id="svg26"
   sodipodi:docname="game.svg"
   width="98.806"
   height="61.891998"
   inkscape:version="0.92.4 5da689c313, 2019-01-14">
  <metadata
     id="metadata32">
    <rdf:RDF>
      <cc:Work
         rdf:about="">
        <dc:format>image/svg+xml</dc:format>
        <dc:type
           rdf:resource="http://purl.org/dc/dcmitype/StillImage" />
      </cc:Work>
    </rdf:RDF>
  </metadata>
  <defs
     id="defs30" />
  <sodipodi:namedview
     pagecolor="#ffffff"
     bordercolor="#666666"
     borderopacity="1"
     objecttolerance="10"
     gridtolerance="10"
     guidetolerance="10"
     inkscape:pageopacity="0"
     inkscape:pageshadow="2"
     inkscape:window-width="640"
     inkscape:window-height="480"
     id="namedview28"
     showgrid="false"
     inkscape:zoom="2.7427207"
     inkscape:cx="49.4035"
     inkscape:cy="30.946001"
     inkscape:window-x="0"
     inkscape:window-y="0"
     inkscape:window-maximized="0"
     inkscape:current-layer="svg26">
    <inkscape:grid
       type="xygrid"
       id="grid839"
       originx="1.1368684e-13"
       originy="1.7089841e-06" />
  </sodipodi:namedview>
  <path
     d="m -446.271,572.893 c 0,-0.769 -0.618,-1.387 -1.387,-1.387 h -96.022 c -0.769,0 -1.387,0.618 -1.387,1.387 v 4.204 c 0,0.768 0.618,1.387 1.387,1.387 h 4.75 c 0.769,0 1.387,0.619 1.387,1.387 v 18.703 h -6.147 c -0.769,0 -1.387,0.618 -1.387,1.387 v 32.049 c 0,0.768 0.618,1.387 1.387,1.387 h 96.032 c 0.769,0 1.387,-0.618 1.387,-1.387 v -59.117"
     id="path2"
     inkscape:connector-curvature="0"
     style="fill:#222222" />
  <path
     d="m -455.393,629.391 h -70.541 c -2.849,0 -5.18,-2.331 -5.18,-5.18 v -47.526 c 0,-2.849 2.331,-5.18 5.18,-5.18 h 70.541 c 2.849,0 5.18,2.331 5.18,5.18 v 47.526 c 0,2.849 -2.331,5.18 -5.18,5.18 z"
     id="path4"
     inkscape:connector-curvature="0"
     style="fill:#e0e0e0" />
  <circle
     cx="-537.73798"
     cy="617.51202"
     r="3.306"
     id="circle6"
     style="fill:#1a1813" />
  <path
     d="m -543.679,598.574 v -20.09 h 4.75 c 0.769,0 1.387,0.619 1.387,1.387 v 18.703 h -6.147"
     id="path8"
     inkscape:connector-curvature="0"
     style="fill:#1a1813" />
  <path
     d="m -536.762,582.327 h -8.081 a 0.223,0.223 0 0 1 -0.223,-0.223 v -1.506 c 0,-0.123 0.1,-0.223 0.223,-0.223 h 8.081 c 0.123,0 0.223,0.1 0.223,0.223 v 1.506 a 0.225,0.225 0 0 1 -0.223,0.223 z m 0,3.495 h -8.081 a 0.223,0.223 0 0 1 -0.223,-0.223 v -1.506 c 0,-0.123 0.1,-0.223 0.223,-0.223 h 8.081 c 0.123,0 0.223,0.1 0.223,0.223 v 1.506 a 0.225,0.225 0 0 1 -0.223,0.223 z m 0,3.495 h -8.081 a 0.223,0.223 0 0 1 -0.223,-0.223 v -1.506 c 0,-0.123 0.1,-0.223 0.223,-0.223 h 8.081 c 0.123,0 0.223,0.1 0.223,0.223 v 1.506 a 0.225,0.225 0 0 1 -0.223,0.223 z m 0,3.4 h -8.081 a 0.223,0.223 0 0 1 -0.223,-0.223 v -1.506 c 0,-0.123 0.1,-0.223 0.223,-0.223 h 8.081 c 0.123,0 0.223,0.1 0.223,0.223 v 1.506 a 0.224,0.224 0 0 1 -0.223,0.223 z m 0,3.401 h -8.081 a 0.223,0.223 0 0 1 -0.223,-0.223 v -1.506 c 0,-0.123 0.1,-0.223 0.223,-0.223 h 8.081 c 0.123,0 0.223,0.1 0.223,0.223 v 1.506 a 0.224,0.224 0 0 1 -0.223,0.223 z"
     id="path10"
     inkscape:connector-curvature="0"
     style="fill:#333333" />
  <path
     d="m -453.962,585.384 h 1.176 v -0.582 h -1.176 v -1.287 h -0.557 v 1.287 h -1.176 v 0.582 h 1.176 v 1.287 h 0.557 z m -15.766,-3.297 h 11.317 v 4.583 h -11.317 z"
     id="path12"
     inkscape:connector-curvature="0"
     style="fill:#25231d" />
  <path
     d="m -459.307,582.733 -1.076,1.571 1.17,1.717 h -1.081 l -0.643,-0.919 -0.648,0.921 h -1.073 a 145.65,145.65 0 0 1 1.175,-1.719 l -0.488,-0.68 -2.072,0.002 c -0.097,0.008 -0.215,-0.022 -0.264,0.087 -0.017,0.036 -0.024,0.089 -0.005,0.126 0.017,0.041 0.056,0.08 0.099,0.092 l 0.065,0.005 h 0.829 c 0.384,0.01 0.74,0.249 0.907,0.595 0.148,0.29 0.126,0.687 -0.039,0.962 -0.208,0.35 -0.578,0.546 -0.979,0.532 h -2.307 c 0,0 -0.353,-1.274 -0.355,-1.277 l -0.355,1.277 h -0.841 l -0.339,-1.282 -0.37,1.279 h -0.931 c 0,0 0.856,-3.08 0.911,-3.283 h 0.786 l 0.37,1.373 0.377,-1.373 h 0.771 l 0.66,2.392 h 1.538 c 0.106,-0.005 0.254,0.024 0.297,-0.107 a 0.159,0.159 0 0 0 -0.039,-0.16 0.2,0.2 0 0 0 -0.138,-0.043 h -0.827 a 1.046,1.046 0 0 1 -0.926,-0.645 1.05,1.05 0 0 1 0.95,-1.439 l 2.713,-0.002 0.547,0.788 0.565,-0.79 z"
     id="path14"
     inkscape:connector-curvature="0"
     style="fill:#ffffff" />
  <path
     d="m -457.072,586.027 c 0.055,-0.39 1.057,-0.628 1.057,-1.479 0,-0.81 -0.564,-1.017 -1.057,-1.017 -0.493,0 -1.018,0.373 -1.018,0.985 v 0.23 h 0.74 v -0.167 c 0,-0.211 0.103,-0.342 0.286,-0.342 0.183,0 0.27,0.108 0.27,0.326 0,0.493 -0.835,0.692 -1.184,1.312 -0.15,0.265 -0.159,0.795 -0.159,0.795 h 2.075 v -0.644 h -1.01 z"
     id="path16"
     inkscape:connector-curvature="0"
     style="fill:#25231d" />
  <g
     id="g24">
    <path
       d="m -469.728,576.045 h 11.317 v 4.583 h -11.317 z"
       id="path18"
       inkscape:connector-curvature="0"
       style="fill:#25231d" />
    <path
       d="m -459.307,576.69 -1.076,1.571 1.17,1.717 h -1.081 l -0.643,-0.919 -0.648,0.921 h -1.073 a 145.65,145.65 0 0 1 1.175,-1.719 l -0.488,-0.68 -2.072,0.002 c -0.097,0.008 -0.215,-0.022 -0.264,0.087 -0.017,0.036 -0.024,0.089 -0.005,0.126 0.017,0.041 0.056,0.08 0.099,0.092 l 0.065,0.005 h 0.829 c 0.384,0.01 0.74,0.249 0.907,0.595 0.148,0.29 0.126,0.687 -0.039,0.962 -0.208,0.35 -0.578,0.546 -0.979,0.532 h -2.307 c 0,0 -0.353,-1.274 -0.355,-1.277 l -0.355,1.277 h -0.841 l -0.339,-1.282 -0.37,1.279 h -0.931 c 0,0 0.856,-3.08 0.911,-3.283 h 0.786 l 0.37,1.373 0.377,-1.373 h 0.771 l 0.66,2.392 h 1.538 c 0.106,-0.005 0.254,0.024 0.297,-0.107 a 0.159,0.159 0 0 0 -0.039,-0.16 0.2,0.2 0 0 0 -0.138,-0.043 h -0.827 a 1.046,1.046 0 0 1 -0.926,-0.645 1.05,1.05 0 0 1 0.95,-1.439 l 2.713,-0.002 0.547,0.788 0.565,-0.79 z"
       id="path20"
       inkscape:connector-curvature="0"
       style="fill:#ffffff" />
    <path
       d="m -457.072,579.984 c 0.055,-0.39 1.057,-0.628 1.057,-1.479 0,-0.81 -0.564,-1.017 -1.057,-1.017 -0.493,0 -1.018,0.373 -1.018,0.985 v 0.23 h 0.74 v -0.167 c 0,-0.211 0.103,-0.342 0.286,-0.342 0.183,0 0.27,0.108 0.27,0.326 0,0.493 -0.835,0.692 -1.184,1.312 -0.15,0.265 -0.159,0.795 -0.159,0.795 h 2.075 v -0.644 h -1.01 z"
       id="path22"
       inkscape:connector-curvature="0"
       style="fill:#25231d" />
  </g>
</svg>
