<?xml version="1.0" encoding="UTF-8" standalone="no"?>
<svg
   xmlns:dc="http://purl.org/dc/elements/1.1/"
   xmlns:cc="http://creativecommons.org/ns#"
   xmlns:rdf="http://www.w3.org/1999/02/22-rdf-syntax-ns#"
   xmlns:svg="http://www.w3.org/2000/svg"
   xmlns="http://www.w3.org/2000/svg"
   xmlns:sodipodi="http://sodipodi.sourceforge.net/DTD/sodipodi-0.dtd"
   xmlns:inkscape="http://www.inkscape.org/namespaces/inkscape"
   viewBox="0 0 133 35.275003"
   version="1.1"
   id="svg10"
   sodipodi:docname="logo.svg"
   width="133"
   height="35.275002"
   inkscape:version="0.92.4 5da689c313, 2019-01-14">
  <metadata
     id="metadata16">
    <rdf:RDF>
      <cc:Work
         rdf:about="">
        <dc:format>image/svg+xml</dc:format>
        <dc:type
           rdf:resource="http://purl.org/dc/dcmitype/StillImage" />
      </cc:Work>
    </rdf:RDF>
  </metadata>
  <defs
     id="defs14" />
  <sodipodi:namedview
     pagecolor="#ffffff"
     bordercolor="#666666"
     borderopacity="1"
     objecttolerance="10"
     gridtolerance="10"
     guidetolerance="10"
     inkscape:pageopacity="0"
     inkscape:pageshadow="2"
     inkscape:window-width="640"
     inkscape:window-height="480"
     id="namedview12"
     showgrid="false"
     inkscape:zoom="1.3170685"
     inkscape:cx="65.196997"
     inkscape:cy="17.638001"
     inkscape:window-x="0"
     inkscape:window-y="0"
     inkscape:window-maximized="0"
     inkscape:current-layer="svg10" />
  <text
     font-size="1"
     id="text2"
     style="font-size:1px;font-family:ArialMT;fill:#c13234"
     x="115.619"
     y="23.194">I don’t like bugs!</text>
  <path
     d="m 121.345,25.369 h 9.049 v -4.478 h -9.049 v -9.904 h -4.291 v 9.904 h -9.05 v 4.478 h 9.05 v 9.905 h 4.291 z M 0,0 H 87.098 V 35.274 H 0 Z"
     id="path4"
     inkscape:connector-curvature="0" />
  <path
     d="m 80.207,4.965 -8.28,12.094 9.006,13.213 h -8.317 l -4.949,-7.074 -4.989,7.091 h -8.262 c 0.224,-0.466 9.044,-13.23 9.044,-13.23 l -3.759,-5.23 -15.947,0.018 c -0.744,0.059 -1.656,-0.167 -2.029,0.672 -0.13,0.278 -0.187,0.688 -0.037,0.968 0.129,0.316 0.428,0.613 0.762,0.706 l 0.502,0.038 h 6.383 c 2.958,0.074 5.695,1.915 6.977,4.577 1.136,2.234 0.969,5.285 -0.298,7.408 -1.599,2.697 -4.447,4.205 -7.535,4.094 H 30.728 c 0,0 -2.718,-9.808 -2.736,-9.825 l -2.736,9.825 -6.475,0.001 -2.605,-9.864 -2.848,9.843 H 6.164 c 0,0 6.587,-23.706 7.015,-25.27 h 6.049 l 2.847,10.57 2.903,-10.57 5.936,-10e-4 5.08,18.407 h 11.835 c 0.817,-0.039 1.953,0.184 2.288,-0.819 A 1.23,1.23 0 0 0 49.819,21.378 C 49.52,21.117 49.148,21.044 48.758,21.044 L 42.394,21.043 C 39.379,20.95 36.384,18.978 35.267,16.076 34.058,13.172 34.765,9.691 36.979,7.443 38.542,5.876 40.402,5.095 42.581,5.002 l 20.878,-0.018 4.207,6.065 4.352,-6.083 z"
     id="path6"
     inkscape:connector-curvature="0"
     style="fill:#ffffff" />
  <path
     d="m 97.406,30.318 c 0.426,-2.998 8.133,-4.832 8.133,-11.38 0,-6.238 -4.34,-7.826 -8.133,-7.826 -3.792,0 -7.833,2.873 -7.833,7.585 v 1.774 h 5.692 v -1.284 c 0,-1.62 0.794,-2.633 2.202,-2.633 1.408,0 2.077,0.828 2.077,2.509 0,3.793 -6.423,5.323 -9.112,10.096 -1.153,2.037 -1.226,6.116 -1.226,6.116 h 15.968 v -4.956 h -7.768 z"
     id="path8"
     inkscape:connector-curvature="0" />
</svg>
