<?xml version="1.0" encoding="UTF-8" standalone="no"?>
<svg
   xmlns:dc="http://purl.org/dc/elements/1.1/"
   xmlns:cc="http://creativecommons.org/ns#"
   xmlns:rdf="http://www.w3.org/1999/02/22-rdf-syntax-ns#"
   xmlns:svg="http://www.w3.org/2000/svg"
   xmlns="http://www.w3.org/2000/svg"
   xmlns:sodipodi="http://sodipodi.sourceforge.net/DTD/sodipodi-0.dtd"
   xmlns:inkscape="http://www.inkscape.org/namespaces/inkscape"
   viewBox="0 0 142.32213 229.58199"
   version="1.1"
   id="svg76"
   sodipodi:docname="controller.svg"
   width="142.32213"
   height="229.58199"
   inkscape:version="0.92.4 5da689c313, 2019-01-14">
  <metadata
     id="metadata82">
    <rdf:RDF>
      <cc:Work
         rdf:about="">
        <dc:format>image/svg+xml</dc:format>
        <dc:type
           rdf:resource="http://purl.org/dc/dcmitype/StillImage" />
      </cc:Work>
    </rdf:RDF>
  </metadata>
  <defs
     id="defs80" />
  <sodipodi:namedview
     pagecolor="#ffffff"
     bordercolor="#666666"
     borderopacity="1"
     objecttolerance="10"
     gridtolerance="10"
     guidetolerance="10"
     inkscape:pageopacity="0"
     inkscape:pageshadow="2"
     inkscape:window-width="471"
     inkscape:window-height="442"
     id="namedview78"
     showgrid="false"
     inkscape:zoom="1.0279507"
     inkscape:cx="71.161633"
     inkscape:cy="114.79091"
     inkscape:window-x="0"
     inkscape:window-y="0"
     inkscape:window-maximized="0"
     inkscape:current-layer="svg76" />
  <path
     d="m 134.73113,168.14357 c 4.175,0 7.591,3.417 7.591,7.592 v 12.369 c 0,4.175 -3.416,7.591 -7.591,7.591 m -0.139,-163.004001 c 4.176,0 7.592,3.416 7.592,7.591 v 12.369 c 0,4.175 -3.416,7.592 -7.592,7.592"
     id="path2"
     inkscape:connector-curvature="0"
     style="fill:#666666" />
  <path
     d="m 114.71913,66.343569 c 10.445,-1.616 15.667,-2.363 19.522,-3.109 3.854,-0.746 5.844,-7.336 5.844,-16.724 0,-9.388 -1.99,-15.978 -5.844,-16.724 -3.855,-0.747 -9.077,-1.492 -19.522,-3.109"
     id="path4"
     inkscape:connector-curvature="0"
     style="fill:#d1d2d4" />
  <path
     d="m 118.12713,56.864569 c 0,-1.46 -1.184,-2.615 -2.646,-2.615 H 47.962134 a 2.595,2.595 0 0 0 -2.616,2.615 V 172.70657 c 0,1.46 1.154,2.646 2.616,2.646 h 67.518996 a 2.647,2.647 0 0 0 2.646,-2.646 v -50.233 a 1.499,1.499 0 0 1 -0.713,-1.277 v -13.615 c 0,-0.536 0.287,-0.989 0.713,-1.248 z"
     id="path6"
     inkscape:connector-curvature="0"
     style="fill:#b2b2b2" />
  <path
     d="M 114.21213,60.651569 V 168.93057 a 0.402,0.402 0 0 1 -0.396,0.408 H 49.464134 a 0.402,0.402 0 0 1 -0.396,-0.408 V 60.651569 c 0,-0.226 0.177,-0.409 0.396,-0.409 h 64.351996 c 0.219,0 0.396,0.183 0.396,0.409 z"
     id="path8"
     inkscape:connector-curvature="0"
     style="fill:#d1d2d4" />
  <path
     d="m 98.805134,11.507569 c -28.599,-5.2219996 -59.191,-8.6269996 -72.616,-11.18999964 -21.0579997,-4.01799996 -38.759,31.17199964 -14.424,44.51399964 18.475,10.13 42.028,21.636 42.028,21.636 z"
     id="path10"
     inkscape:connector-curvature="0"
     style="fill:#d1d2d4" />
  <path
     d="m 56.034134,57.862569 a 25.518,25.518 0 0 0 -1.301,-0.036 c -12.99,0 -23.519,10.53 -23.519,23.519 0,12.989 10.529,23.518001 23.519,23.518001 12.989,0 23.519,-10.529001 23.519,-23.518001 0,-0.405 -0.011,-0.809 -0.031,-1.209"
     id="path12"
     inkscape:connector-curvature="0"
     style="fill:#999999" />
  <path
     d="m 77.370134,80.809569 a 36.595,36.595 0 0 0 12.562,2.208 c 20.253996,0 36.674996,-16.419 36.674996,-36.674 0,-20.255 -16.421,-36.6739996 -36.674996,-36.6739996 -20.254,0 -36.675,16.4189996 -36.675,36.6739996 0,4.363 0.764,8.548 2.162,12.429 a 24.979,24.979 0 0 0 -1.288,-0.036"
     id="path14"
     inkscape:connector-curvature="0"
     style="fill:#999999" />
  <path
     d="m 98.805134,218.05257 c -28.599,5.222 -59.688,8.628 -72.616,11.19 -21.0279997,4.168 -38.759,-31.173 -14.424,-44.515 18.475,-10.13 42.028,-21.636 42.028,-21.636 z"
     id="path16"
     inkscape:connector-curvature="0"
     style="fill:#d1d2d4" />
  <path
     d="m 78.270134,149.08957 c 0.022,-0.432 0.036,-0.864 0.036,-1.302 0,-12.989 -10.53,-23.519 -23.519,-23.519 -12.989,0 -23.519,10.529 -23.519,23.519 0,12.99 10.53,23.52 23.519,23.52 0.406,0 0.809,-0.011 1.209,-0.031"
     id="path18"
     inkscape:connector-curvature="0"
     style="fill:#999999" />
  <path
     d="m 114.71913,201.75257 c 10.445,-1.616 15.667,-2.362 19.522,-3.109 3.854,-0.745 5.844,-7.335 5.844,-16.724 0,-9.388 -1.99,-15.978 -5.844,-16.725 -3.855,-0.745 -9.077,-1.492 -19.522,-3.107"
     id="path20"
     inkscape:connector-curvature="0"
     style="fill:#d1d2d4" />
  <path
     d="m 55.324134,170.42557 a 36.61,36.61 0 0 0 -2.208,12.562 c 0,20.254 16.419,36.675 36.674,36.675 20.254996,0 36.673996,-16.421 36.673996,-36.675 0,-20.255 -16.419,-36.676 -36.673996,-36.676 -4.364,0 -8.548,0.765 -12.429,2.162 0.022,-0.427 0.036,-0.855 0.036,-1.287"
     id="path22"
     inkscape:connector-curvature="0"
     style="fill:#999999" />
  <path
     d="m 77.658134,80.515569 a 35.982,35.982 0 0 0 12.194,2.117 c 19.914996,0 36.058996,-16.144 36.058996,-36.06 0,-19.915 -16.144,-36.059 -36.058996,-36.059 -19.916,0 -36.059,16.144 -36.059,36.059 0,4.099 0.685,8.038 1.945,11.71 a 23.087,23.087 0 0 0 -0.951,-0.022 c -12.636,0 -22.879,10.244 -22.879,22.879 0,12.636 10.243,22.879001 22.879,22.879001 12.636,0 22.88,-10.243001 22.88,-22.879001 0,-0.208 -0.003,-0.416 -0.009,-0.624 z m -21.694,90.121001 a 35.983,35.983 0 0 0 -2.171,12.351 c 0,19.915 16.144,36.06 36.059,36.06 19.914996,0 36.058996,-16.145 36.058996,-36.06 0,-19.914 -16.144,-36.06 -36.058996,-36.06 -4.29,0 -8.405,0.751 -12.221,2.126 0.022,-0.42 0.035,-0.842 0.035,-1.267 0,-12.636 -10.244,-22.879 -22.879,-22.879 -12.635,0 -22.879,10.243 -22.879,22.879 0,12.636 10.243,22.88 22.879,22.88 0.395,0.001 0.788,-0.01 1.177,-0.03 z"
     id="path24"
     inkscape:connector-curvature="0"
     style="fill:#d1d2d4" />
  <path
     d="m 54.788134,98.797569 c -9.751,0 -17.656,-7.906 -17.656,-17.658 0,-9.751 7.905,-17.656 17.656,-17.656 9.752,0 17.657,7.905 17.657,17.656 0,9.751 -7.906,17.658 -17.657,17.658 z"
     id="path26"
     inkscape:connector-curvature="0"
     style="fill:#b2b2b2" />
  <path
     d="m 54.788134,96.558569 c -8.515,0 -15.418,-6.904 -15.418,-15.419 0,-8.515 6.903,-15.417 15.418,-15.417 8.516,0 15.419,6.902 15.419,15.417 -10e-4,8.515 -6.904,15.419 -15.419,15.419 z"
     id="path28"
     inkscape:connector-curvature="0"
     style="fill:#666666" />
  <path
     d="m 116.50213,175.58557 a 2.647,2.647 0 0 0 -2.646,-2.645 H 99.915134 v -13.972 c 0,-1.46 -1.186,-2.616 -2.646,-2.616 h -14.834 c -1.46,0 -2.646,1.156 -2.646,2.616 v 13.972 h -13.94 a 2.646,2.646 0 0 0 -2.646,2.645 v 14.834 c 0,1.461 1.185,2.615 2.646,2.615 h 13.941 v 13.972 c 0,1.461 1.186,2.615 2.646,2.615 h 14.833 c 1.46,0 2.646,-1.154 2.646,-2.615 v -13.972 h 13.940996 c 1.46,0 2.646,-1.154 2.646,-2.615 z"
     id="path30"
     inkscape:connector-curvature="0"
     style="fill:#b2b2b2" />
  <path
     d="m 106.63913,190.82157 a 7.8340001,7.8340001 0 1 1 0.002,-15.668 7.8340001,7.8340001 0 0 1 -0.002,15.668 z m -33.697996,0 a 7.8340001,7.8340001 0 1 1 0.002,-15.668 7.8340001,7.8340001 0 0 1 -0.002,15.668 z m 16.849,1.181 a 7.834,7.834 0 1 1 0,15.666 7.834,7.834 0 0 1 0,-15.666 z m 0,-33.697 a 7.834,7.834 0 1 1 0,15.668 7.834,7.834 0 0 1 0,-15.668 z"
     id="path32"
     inkscape:connector-curvature="0"
     style="fill:#666666" />
  <path
     d="m 116.96013,39.001569 a 2.646,2.646 0 0 0 -2.646,-2.646 h -13.941 v -13.971 c 0,-1.461 -1.184996,-2.615 -2.645996,-2.615 h -14.833 c -1.461,0 -2.646,1.154 -2.646,2.615 v 13.972 h -13.94 a 2.646,2.646 0 0 0 -2.646,2.646 v 14.833 c 0,1.461 1.185,2.615 2.646,2.615 h 13.941 v 13.971 c 0,1.461 1.185,2.617 2.646,2.617 h 14.833 c 1.461,0 2.645996,-1.155 2.645996,-2.617 v -13.972 h 13.941 c 1.461,0 2.646,-1.154 2.646,-2.615 v -14.833 z M 54.788134,165.44457 c -9.751,0 -17.656,-7.905 -17.656,-17.657 0,-9.751 7.905,-17.656 17.656,-17.656 9.752,0 17.657,7.905 17.657,17.656 0,9.752 -7.906,17.657 -17.657,17.657 z"
     id="path34"
     inkscape:connector-curvature="0"
     style="fill:#b2b2b2" />
  <path
     d="m 54.788134,163.20657 c -8.515,0 -15.418,-6.903 -15.418,-15.419 0,-8.516 6.903,-15.418 15.418,-15.418 8.516,0 15.419,6.902 15.419,15.418 0,8.516 -6.904,15.419 -15.419,15.419 z"
     id="path36"
     inkscape:connector-curvature="0"
     style="fill:#666666" />
  <path
     d="m 114.15313,46.403569 -3.418,-3.6 v 7.199 z m -47.683996,0 3.418,-3.6 v 7.199 z m 23.842,23.841 3.599,-3.419 h -7.198 z m 0,-47.684 3.599,3.419 h -7.198 z"
     id="path38"
     inkscape:connector-curvature="0"
     style="fill:#a0a0a0" />
  <path
     d="m 95.649134,55.268569 a 1.121,1.121 0 0 0 -0.446,-0.803 l -4.221,-3.329 a 1.12,1.12 0 0 0 -1.367,0 l -4.251,3.329 a 1.123,1.123 0 0 0 -0.446,0.892 l -0.029,7.729 a 1.121,1.121 0 0 0 1.13,1.129 h 8.353 a 1.12,1.12 0 0 0 1.129,-1.1 l 0.149,-7.729 v -0.118 z m 0.084,-17.73 c -0.027,0.318 -0.19,0.61 -0.447,0.801 l -4.221,3.33 a 1.118,1.118 0 0 1 -1.367,0 l -4.25,-3.33 a 1.123,1.123 0 0 1 -0.447,-0.892 l -0.029,-7.728 a 1.127,1.127 0 0 1 0.328,-0.803 c 0.213,-0.211 0.501,-0.33 0.801,-0.327 h 8.353 a 1.12,1.12 0 0 1 1.13,1.099 l 0.148,7.729 v 0.121 z m -14.287,14.202 c 0.319,-0.028 0.611,-0.19 0.802,-0.446 l 3.33,-4.222 a 1.12,1.12 0 0 0 0,-1.367 l -3.33,-4.25 a 1.126,1.126 0 0 0 -0.891,-0.446 l -7.729,-0.03 a 1.126,1.126 0 0 0 -1.13,1.13 v 8.354 a 1.122,1.122 0 0 0 1.1,1.129 l 7.729,0.149 h 0.119 z m 17.73,0.084 a 1.122,1.122 0 0 1 -0.803,-0.446 l -3.329,-4.22 a 1.12,1.12 0 0 1 0,-1.368 l 3.329,-4.25 c 0.211,-0.28 0.542,-0.445 0.892,-0.446 l 7.728996,-0.03 a 1.12,1.12 0 0 1 1.129,1.13 v 8.353 a 1.121,1.121 0 0 1 -1.1,1.13 l -7.727996,0.148 h -0.119 z"
     id="path40"
     inkscape:connector-curvature="0"
     style="fill:#666666" />
  <path
     d="m 85.727134,170.20257 v -8.126 h 8.125 v 8.126 z m -0.529,0.758 h 9.184 c 0.17,0 0.31,-0.14 0.31,-0.31 v -9.022 c 0,-0.17 -0.14,-0.31 -0.31,-0.31 h -9.184 c -0.17,0 -0.31,0.14 -0.31,0.31 v 9.022 c 0.001,0.17 0.14,0.31 0.31,0.31 z"
     id="path42"
     inkscape:connector-curvature="0"
     style="fill:#bc82a1" />
  <path
     d="m 89.924134,205.35157 a 5.716,5.716 0 1 1 0,-11.432 5.716,5.716 0 0 1 0,11.432 z m 4.895,-5.79 a 4.995,4.995 0 1 0 -9.99,0 4.995,4.995 0 0 0 9.99,0 z"
     id="path44"
     inkscape:connector-curvature="0"
     style="fill:#ca6869" />
  <path
     d="m 103.12713,188.21557 a 0.349,0.349 0 0 1 0.127,-0.474 l 8.67,-5.008 a 0.348,0.348 0 0 1 0.474,0.127 0.349,0.349 0 0 1 -0.127,0.474 l -8.67,5.008 a 0.349,0.349 0 0 1 -0.474,-0.127 z"
     id="path46"
     inkscape:connector-curvature="0"
     style="fill:#5e9d81" />
  <path
     d="m 103.44713,188.38757 a 0.347,0.347 0 0 1 -0.347,-0.347 v -9.968 c 0,-0.19 0.156,-0.347 0.347,-0.347 0.19,0 0.347,0.156 0.347,0.347 v 9.968 a 0.347,0.347 0 0 1 -0.347,0.347 z"
     id="path48"
     inkscape:connector-curvature="0"
     style="fill:#5e9d81" />
  <path
     d="m 103.10813,177.90057 a 0.348,0.348 0 0 1 0.473,-0.128 l 8.663,4.992 a 0.34742373,0.34742373 0 0 1 -0.347,0.602 l -8.663,-4.992 a 0.35,0.35 0 0 1 -0.126,-0.474 z"
     id="path50"
     inkscape:connector-curvature="0"
     style="fill:#5e9d81" />
  <path
     d="m 68.575134,187.35357 a 0.415,0.415 0 0 1 0,-0.585 l 8.19,-8.19 a 0.416,0.416 0 0 1 0.586,0 0.416,0.416 0 0 1 0,0.586 l -8.19,8.189 a 0.416,0.416 0 0 1 -0.586,0 z"
     id="path52"
     inkscape:connector-curvature="0"
     style="fill:#5e9ec4" />
  <path
     d="m 68.533134,178.62057 a 0.416,0.416 0 0 1 0.586,0 l 8.19,8.189 a 0.416,0.416 0 0 1 0,0.586 0.416,0.416 0 0 1 -0.586,0 l -8.19,-8.19 a 0.415,0.415 0 0 1 0,-0.585 z"
     id="path54"
     inkscape:connector-curvature="0"
     style="fill:#5e9ec4" />
  <path
     d="m 136.22913,45.224569 v 0.559 h -3.86 v 1.85 h -0.469 v -2.409 z m -0.073,136.411001 c 0.058,0.282 0.09,0.688 0.09,1.072 0,0.598 -0.109,0.983 -0.354,1.253 -0.193,0.219 -0.488,0.34 -0.822,0.34 -0.572,0 -0.951,-0.359 -1.105,-0.815 h -0.019 c -0.116,0.334 -0.424,0.533 -0.874,0.636 -0.604,0.142 -1.021,0.244 -1.188,0.334 v -0.577 c 0.122,-0.071 0.495,-0.168 1.034,-0.29 0.597,-0.128 0.822,-0.359 0.841,-0.867 v -0.526 h -1.875 v -0.559 h 4.272 z m -1.973,0.559 v 0.571 c 0,0.598 0.328,0.977 0.822,0.977 0.559,0 0.803,-0.404 0.81,-0.995 0,-0.271 -0.025,-0.463 -0.051,-0.553 z"
     id="path56"
     inkscape:connector-curvature="0"
     style="fill:#c4c4c4" />
  <path
     d="m 68.221134,110.52457 v 10.602 a 0.232,0.232 0 0 1 -0.231,0.233 h -5.878 a 0.231,0.231 0 0 1 -0.23,-0.233 v -10.602 a 0.23,0.23 0 0 1 0.23,-0.232 h 5.878 a 0.23,0.23 0 0 1 0.231,0.232 z"
     id="path58"
     inkscape:connector-curvature="0"
     style="fill:#666666" />
  <path
     d="m 55.640134,111.58557 v 8.481 c 0,0.103 -0.041,0.187 -0.093,0.187 h -2.339 c -0.051,0 -0.092,-0.084 -0.092,-0.187 v -8.481 c 0,-0.103 0.041,-0.186 0.092,-0.186 h 2.339 c 0.052,0 0.093,0.083 0.093,0.186 z"
     id="path60"
     inkscape:connector-curvature="0"
     style="fill:#ff507c" />
  <path
     d="m 89.351134,89.487569 v 10.602001 a 0.232,0.232 0 0 1 -0.232,0.232 h -5.877 a 0.231,0.231 0 0 1 -0.231,-0.232 V 89.487569 a 0.23,0.23 0 0 1 0.231,-0.231 h 5.877 c 0.128,0 0.232,0.103 0.232,0.231 z m -3.171,50.873001 c -1.382,0 -3.17,-8.082 -3.17,-8.082 -0.238,-0.895 0.175,-1.492 1.491,-1.492 h 3.358 c 1.332,0 1.71,0.653 1.492,1.492 0,0 -1.87,8.082 -3.171,8.082 z m 0.444,-36.157 h 0.349 c 0,0.122 -0.002,0.24 0,0.358 0.004,0.306 0.107,0.436 0.408,0.467 0.207,0.02 0.417,0.021 0.621,-0.005 0.277,-0.031 0.426,-0.223 0.429,-0.498 v -0.626 h -3.186 v -0.554 h 3.548 l 0.013,0.021 c -0.006,0.49 -0.005,0.979 -0.021,1.47 a 1.177,1.177 0 0 1 -0.105,0.391 0.546,0.546 0 0 1 -0.357,0.326 2.03,2.03 0 0 1 -1.096,0.039 c -0.356,-0.086 -0.57,-0.307 -0.6,-0.671 -0.02,-0.237 -0.003,-0.475 -0.003,-0.718 z m -0.038,20.432 c -0.194,-0.023 -0.423,-0.034 -0.641,-0.082 -0.443,-0.1 -0.647,-0.319 -0.689,-0.771 a 4.21,4.21 0 0 1 0.02,-0.862 c 0.043,-0.346 0.267,-0.557 0.598,-0.64 0.475,-0.12 0.954,-0.118 1.431,-0.015 0.394,0.085 0.639,0.328 0.67,0.733 0.024,0.301 0.025,0.614 -0.017,0.912 -0.059,0.412 -0.364,0.597 -0.745,0.662 -0.196,0.035 -0.397,0.042 -0.627,0.063 z m 0.043,-1.873 c -0.199,0.026 -0.4,0.036 -0.593,0.082 -0.286,0.069 -0.415,0.255 -0.42,0.548 -0.003,0.316 0.117,0.503 0.411,0.579 0.397,0.105 0.802,0.105 1.2,0.002 0.28,-0.072 0.399,-0.263 0.392,-0.578 -0.006,-0.31 -0.13,-0.488 -0.408,-0.554 -0.188,-0.042 -0.385,-0.052 -0.582,-0.079 z m -2.757,-12.755 c 0.393,0.158 0.769,0.291 1.129,0.463 0.254,0.122 0.474,0.116 0.734,0.013 0.7,-0.277 1.412,-0.526 2.119,-0.786 l 0.12,-0.039 c 0,0.19 0.005,0.368 -0.004,0.545 l -0.105,0.099 c -0.526,0.195 -1.053,0.391 -1.58,0.585 l -0.117,0.045 c 0.097,0.042 0.176,0.077 0.256,0.11 0.486,0.196 0.97,0.394 1.456,0.587 l 0.097,0.139 c -0.006,0.139 -0.003,0.279 -0.003,0.438 -0.232,-0.095 -0.45,-0.18 -0.664,-0.27 -1.098,-0.442 -2.193,-0.887 -3.29,-1.327 -0.112,-0.044 -0.165,-0.097 -0.152,-0.22 0.014,-0.119 0.004,-0.24 0.004,-0.382 z m 3.099,7.886 h -0.356 l -0.003,-0.241 a 1.604,1.604 0 0 0 -0.072,-0.308 0.248,0.248 0 0 0 -0.237,-0.164 c -0.123,-0.005 -0.247,-0.017 -0.369,-0.003 -0.218,0.023 -0.307,0.118 -0.316,0.342 -0.009,0.229 -0.002,0.46 -0.002,0.709 h 0.13 l 1.369,-0.001 c 0.317,0 0.492,-0.168 0.5,-0.485 0.006,-0.25 0.001,-0.502 0.001,-0.758 h 0.375 c -0.022,0.422 -0.024,0.838 -0.077,1.25 -0.043,0.345 -0.251,0.522 -0.596,0.536 -0.575,0.022 -1.151,0.017 -1.726,0.022 h -0.357 c 0,-0.207 -0.003,-0.396 0.001,-0.587 0.011,-0.339 0,-0.684 0.045,-1.019 0.051,-0.393 0.222,-0.545 0.611,-0.585 0.191,-0.021 0.389,-0.002 0.583,0.019 0.203,0.021 0.327,0.152 0.394,0.337 0.111,0.3 0.105,0.612 0.102,0.936 z m -1.355,-9.129 h 1.507 c 0.302,-0.003 0.48,-0.168 0.49,-0.471 0.007,-0.208 0.003,-0.417 0.003,-0.626 v -0.147 h 0.343 l 0.011,0.078 c -0.007,0.354 -0.006,0.708 -0.03,1.061 -0.017,0.246 -0.109,0.474 -0.354,0.582 a 1.002,1.002 0 0 1 -0.383,0.08 c -0.635,0.009 -1.272,0.003 -1.906,0.005 l -0.057,-0.014 c 0,-0.166 -0.004,-0.334 0.001,-0.503 0.008,-0.357 -0.006,-0.72 0.036,-1.072 0.049,-0.399 0.214,-0.551 0.615,-0.597 0.203,-0.025 0.415,-10e-4 0.619,0.027 0.216,0.029 0.34,0.188 0.378,0.387 0.054,0.281 0.075,0.571 0.112,0.87 h -0.387 l -0.003,-0.25 c -0.023,-0.116 -0.047,-0.245 -0.107,-0.345 -0.096,-0.162 -0.279,-0.118 -0.431,-0.132 l -0.127,0.013 c -0.224,0.026 -0.319,0.115 -0.328,0.343 -0.01,0.231 -0.002,0.461 -0.002,0.711 z m -0.359,3.843 h 0.346 c 0,0.22 -0.003,0.436 0.002,0.651 0.003,0.11 0.011,0.224 0.036,0.329 0.049,0.201 0.179,0.331 0.392,0.346 0.161,0.013 0.324,0.021 0.481,10e-4 0.201,-0.022 0.279,-0.119 0.304,-0.319 0.011,-0.094 0.019,-0.187 0.025,-0.28 0.052,-0.7 0.349,-0.812 0.864,-0.854 0.186,-0.015 0.382,0.03 0.565,0.073 0.322,0.077 0.494,0.308 0.513,0.626 0.022,0.361 0.005,0.724 0.005,1.097 h -0.338 c 0,-0.175 0.001,-0.349 -0.002,-0.521 a 2.616,2.616 0 0 0 -0.022,-0.319 c -0.025,-0.181 -0.121,-0.312 -0.31,-0.345 a 1.622,1.622 0 0 0 -0.38,-0.031 c -0.208,0.013 -0.312,0.126 -0.333,0.334 -0.018,0.182 -0.03,0.366 -0.051,0.547 a 0.562,0.562 0 0 1 -0.421,0.506 c -0.389,0.119 -0.778,0.146 -1.169,0.019 -0.314,-0.105 -0.488,-0.333 -0.503,-0.655 -0.018,-0.398 -0.004,-0.796 -0.004,-1.205 z m -0.014,14.777 v -0.551 h 1.874 c 0.313,-0.002 0.485,-0.164 0.497,-0.474 0.007,-0.175 0.003,-0.35 0.003,-0.524 l -0.009,-0.068 h -2.365 v -0.55 h 2.711 l 0.011,0.014 c -0.006,0.503 -0.001,1.005 -0.028,1.508 -0.008,0.146 -0.09,0.3 -0.17,0.43 -0.089,0.146 -0.251,0.211 -0.418,0.213 -0.698,0.005 -1.396,0.002 -2.106,0.002 z m 3.233,-7.948 v 0.56 h -0.5 v 0.629 h -0.354 v -0.626 h -0.134 c -0.495,0 -0.99,-0.003 -1.484,0 l -0.202,0.023 c -0.143,0.036 -0.188,0.1 -0.188,0.246 v 0.226 h -0.368 c 0.009,-0.265 -0.041,-0.531 0.038,-0.792 a 0.355,0.355 0 0 1 0.357,-0.263 c 0.942,-0.004 1.883,-0.003 2.835,-0.003 z m 0.002,-4.331 v 0.561 h -0.502 v 0.634 h -0.355 v -0.63 h -1.586 l -0.19,0.01 c -0.17,0.033 -0.23,0.108 -0.229,0.28 v 0.201 h -0.368 c 0.009,-0.267 -0.043,-0.537 0.043,-0.803 0.05,-0.153 0.172,-0.227 0.328,-0.245 l 0.19,-0.008 z m 0.325,-8.494 h -3.558 v -0.553 h 3.558 z m -0.834,14.468 v 0.547 h -2.724 v -0.547 z m 0.346,-0.001 h 0.484 v 0.548 h -0.484 z"
     id="path62"
     inkscape:connector-curvature="0"
     style="fill:#666666" />
  <path
     d="m 94.226134,120.57757 a 8.734,8.734 0 0 1 -0.096,0.523 4.971,4.971 0 0 1 -0.162,0.585 2.234,2.234 0 0 1 -0.333,0.652 0.927,0.927 0 0 1 -0.466,0.335 0.582,0.582 0 0 1 -0.488,-0.07 c -0.175,-0.105 -0.299,-0.262 -0.409,-0.429 a 3.365,3.365 0 0 1 -0.315,-0.661 l -0.014,-0.063 0.004,-0.051 c 0.061,-0.202 0.123,-0.402 0.186,-0.604 0.101,-0.321 0.201,-0.643 0.299,-0.963 0.057,-0.187 0.117,-0.371 0.173,-0.557 l 0.03,-0.045 0.025,0.041 c 0.07,0.205 0.143,0.41 0.21,0.615 0.048,0.145 0.103,0.287 0.179,0.422 l 0.126,0.173 0.047,0.037 0.146,-0.027 0.076,-0.167 a 1.67,1.67 0 0 0 0.036,-0.307 3.516,3.516 0 0 0 -0.064,-0.711 l -0.072,-0.23 c -0.112,-0.32 -0.215,-0.644 -0.324,-0.966 l -0.021,-0.072 c 0.027,-0.115 0.066,-0.228 0.102,-0.34 l 0.328,-1.063 c 0.069,-0.221 0.138,-0.466 0.205,-0.687 h 0.035 c 0.074,0.216 0.147,0.441 0.215,0.661 0.097,0.322 0.185,0.646 0.255,0.976 0.041,0.188 0.041,0.178 0.104,0.563 0.067,0.385 0.089,1.756 -0.017,2.43 z m -3.052,-9.211 c 0.019,-0.368 0.098,-0.806 0.158,-1.207 0.046,-0.303 0.095,-0.607 0.162,-0.908 0.06,-0.271 0.128,-0.539 0.25,-0.79 l 0.148,-0.237 a 0.506,0.506 0 0 1 0.477,-0.187 c 0.319,0.031 0.56,0.198 0.76,0.435 0.15,0.18 0.261,0.38 0.349,0.597 l 0.05,0.146 -0.036,0.142 -0.33,1.037 -0.25,0.786 -0.027,0.088 -0.027,-0.081 a 41.95,41.95 0 0 0 -0.132,-0.366 l -0.105,-0.252 -0.069,-0.085 c -0.103,-0.093 -0.227,-0.071 -0.322,0.037 a 0.71,0.71 0 0 0 -0.159,0.406 c -0.02,0.188 0.026,0.365 0.089,0.543 0.058,0.164 0.111,0.329 0.167,0.495 0.052,0.158 0.106,0.316 0.16,0.474 l 0.013,0.054 -0.121,0.383 c -0.07,0.216 -0.139,0.47 -0.208,0.688 h -0.025 c -0.221,0.002 -0.444,0.006 -0.667,0 h -0.055 c -0.048,-0.184 -0.108,-0.527 -0.141,-0.705 0,-0.002 -0.129,-0.868 -0.109,-1.493 z"
     id="path64"
     inkscape:connector-curvature="0"
     style="clip-rule:evenodd;fill:#666666;fill-rule:evenodd" />
  <path
     d="m 92.635134,119.23157 -0.08,0.243 c -0.108,0.348 -0.214,0.694 -0.323,1.042 -0.052,0.17 -0.106,0.34 -0.16,0.509 l -0.129,0.424 -0.067,-0.178 -0.18,-0.515 -0.292,-0.836 a 177.93,177.93 0 0 1 -0.27,-0.758 l -0.308,-0.874 c -0.032,-0.09 -0.069,-0.179 -0.094,-0.271 l 0.014,-0.078 c 0.073,-0.226 0.145,-0.45 0.215,-0.677 0.138,-0.426 0.271,-0.89 0.406,-1.314 h 0.168 c 0.085,0.26 0.178,0.547 0.264,0.806 l 0.406,1.184 c 0.092,0.273 0.186,0.544 0.279,0.817 0.049,0.142 0.097,0.286 0.147,0.428 z m 0.252,-8.003 c 0.088,-0.278 0.177,-0.557 0.268,-0.836 l 0.374,-1.178 c 0.134,0.398 0.27,0.797 0.403,1.197 l 0.63,1.866 c 0.04,0.12 0.082,0.24 0.12,0.361 l -0.005,0.051 c -0.088,0.28 -0.175,0.592 -0.259,0.872 h -0.719 c -0.088,-0.248 -0.178,-0.522 -0.266,-0.771 a 286.56,286.56 0 0 0 -0.316,-0.879 l -0.226,-0.632 z"
     id="path66"
     inkscape:connector-curvature="0"
     style="clip-rule:evenodd;fill:#666666;fill-rule:evenodd" />
  <path
     d="m 91.394134,115.94857 c -0.22,0.691 -0.441,1.376 -0.662,2.069 -0.042,-0.1 -0.073,-0.206 -0.111,-0.312 -0.077,-0.216 -0.152,-0.435 -0.228,-0.653 -0.101,-0.288 -0.201,-0.575 -0.3,-0.863 l -0.074,-0.241 z m 2.327,-2.386 h 0.684 c 0.062,-0.209 0.127,-0.441 0.193,-0.651 l 0.083,-0.271 c 0.056,0.158 0.111,0.317 0.165,0.478 l 0.156,0.445 h -1.281 z m -0.709,4.474 a 24.795,24.795 0 0 1 -0.125,-0.353 c -0.2,-0.583 -0.397,-1.155 -0.598,-1.735 h 1.37 c -0.082,0.264 -0.164,0.52 -0.245,0.783 l -0.21,0.676 z m -0.522,-5.545 c 0.045,0.131 0.091,0.261 0.134,0.393 0.079,0.23 0.153,0.45 0.229,0.679 h -0.708 c 0.066,-0.21 0.133,-0.41 0.2,-0.62 0.048,-0.15 0.096,-0.304 0.145,-0.452 z"
     id="path68"
     inkscape:connector-curvature="0"
     style="clip-rule:evenodd;fill:#666666;fill-rule:evenodd" />
  <path
     d="m 92.145134,113.56257 c 0.237,-0.002 0.475,-0.002 0.711,0 0.25,-0.003 0.501,0.001 0.75,0 h 0.112 c 0.405,0.002 0.809,0 1.214,0 h 0.115 c 2.017,0.001 4.036,0.01 6.051996,0.01 h 0.038 l 0.009,0.019 -0.083,0.302 c -0.077,0.284 -0.152,0.568 -0.226,0.854 -0.07,0.259 -0.137,0.521 -0.206,0.781 -0.081,0.307 -0.163,0.612 -0.242,0.917 a 9.397,9.397 0 0 1 -0.22,0.733 5.14,5.14 0 0 1 -0.582996,1.188 3.183,3.183 0 0 1 -0.457,0.545 2.723,2.723 0 0 1 -1.372,0.713 c -0.108,0.023 -0.22,0.034 -0.33,0.048 l -0.048,0.007 -0.057,0.002 -0.072,0.005 h -0.341 l -0.094,-0.005 -0.065,-0.002 -0.063,-0.007 -0.05,-0.002 -0.048,-0.004 -0.035,-0.002 -0.042,-0.007 -0.029,-0.001 -0.039,-0.007 a 4.613,4.613 0 0 1 -0.546,-0.105 2.278,2.278 0 0 1 -0.678,-0.305 1.485,1.485 0 0 1 -0.531,-0.63 1.837,1.837 0 0 1 -0.132,-0.543 l -0.004,-0.049 -0.003,-0.08 v -0.151 l 0.003,-0.081 0.004,-0.063 0.002,-0.034 0.006,-0.041 c 0.005,-0.098 0.021,-0.197 0.042,-0.293 0.023,-0.114 0.045,-0.23 0.083,-0.341 l 0.015,-0.059 0.018,-0.016 h 4.032 l 0.047,-0.003 c 0.13,-0.012 0.218,-0.088 0.279,-0.196 l 0.069,-0.233 v -0.119 c -0.013,-0.132 -0.052,-0.248 -0.172,-0.322 l -0.098,-0.031 -0.118,-0.003 c -0.114,-0.002 -0.232,0.003 -0.347,-0.002 -0.145,0 -0.291,-0.003 -0.436,-0.004 l -4.309,0.004 h -1.381 a 49.28,49.28 0 0 1 -0.769,0 h -0.125 c -0.323,0.002 -0.642,0 -0.964,0 h -0.411 c 0.054,-0.159 0.107,-0.374 0.16,-0.535 l 0.171,-0.526 c 0.066,-0.21 0.135,-0.419 0.204,-0.627 0.066,-0.204 0.131,-0.494 0.197,-0.697 h 1.393 z"
     id="path70"
     inkscape:connector-curvature="0"
     style="clip-rule:evenodd;fill:#666666;fill-rule:evenodd" />
  <path
     d="m 89.883134,116.24457 h 3.953 v -0.295 h -3.953 m 1.391,-2.385 h 3.953 v -0.295 h -3.953"
     id="path72"
     inkscape:connector-curvature="0"
     style="fill:#d1d2d4" />
  <path
     d="m 81.147134,89.434569 h -0.425 c 0.08,-0.166 0.138,-0.321 0.177,-0.468 a 1.65,1.65 0 0 0 0.058,-0.425 c 0,-0.237 -0.046,-0.421 -0.138,-0.55 a 0.455,0.455 0 0 0 -0.393,-0.192 c -0.143,0 -0.25,0.042 -0.324,0.128 -0.072,0.086 -0.13,0.249 -0.175,0.487 l -0.054,0.264 c -0.062,0.324 -0.171,0.564 -0.328,0.718 -0.155,0.155 -0.364,0.233 -0.625,0.233 -0.313,0 -0.549,-0.105 -0.71,-0.315 -0.161,-0.208 -0.241,-0.515 -0.241,-0.919 0,-0.152 0.017,-0.315 0.051,-0.487 0.035,-0.171 0.085,-0.349 0.153,-0.533 h 0.449 c -0.099,0.177 -0.174,0.35 -0.225,0.52 -0.05,0.169 -0.076,0.337 -0.076,0.5 0,0.249 0.049,0.441 0.147,0.577 a 0.486,0.486 0 0 0 0.418,0.203 0.48,0.48 0 0 0 0.372,-0.147 c 0.089,-0.097 0.156,-0.255 0.2,-0.477 l 0.052,-0.265 c 0.064,-0.325 0.166,-0.561 0.304,-0.706 0.138,-0.146 0.33,-0.218 0.576,-0.218 0.284,0 0.509,0.1 0.673,0.3 0.164,0.201 0.246,0.478 0.246,0.831 a 3.03,3.03 0 0 1 -0.162,0.941 m 0.105,0.874 v 2.037 h -0.367 v -1.602 h -0.954 v 1.534 h -0.367 v -1.534 h -1.167 v 1.64 h -0.367 v -2.075 h 3.222 m 0,2.796 v 0.436 h -2.854 v 1.569 h -0.367 v -2.005 h 3.221 m 0,2.46 v 2.037 h -0.367 v -1.602 h -0.954 v 1.534 h -0.367 v -1.534 h -1.167 v 1.64 h -0.367 v -2.075 h 3.222 m -0.248,5.208001 h -0.459 c 0.137,-0.146 0.239,-0.303 0.307,-0.47 0.067,-0.165 0.102,-0.342001 0.102,-0.529001 0,-0.368 -0.113,-0.649 -0.339,-0.845 -0.225,-0.196 -0.55,-0.294 -0.976,-0.294 -0.424,0 -0.75,0.098 -0.975,0.294 -0.224,0.195 -0.337,0.477 -0.337,0.845 0,0.188 0.034,0.364001 0.102,0.529001 0.068,0.167 0.17,0.323 0.306,0.47 h -0.455 a 1.748,1.748 0 0 1 -0.233,-0.485 1.83,1.83 0 0 1 -0.077,-0.539001 c 0,-0.487 0.148,-0.872 0.446,-1.152 0.299,-0.28 0.707,-0.421 1.223,-0.421 0.518,0 0.926,0.141 1.224,0.421 0.299,0.28 0.449,0.665 0.449,1.152 0,0.192 -0.026,0.374001 -0.078,0.544001 a 1.712,1.712 0 0 1 -0.23,0.48 m 0.248,0.232 v 2.725 h -0.367 v -1.144 h -2.854 v -0.438 h 2.854 v -1.144 h 0.367 m -0.105,29.934 h -0.425 c 0.08,-0.165 0.138,-0.321 0.177,-0.468 0.039,-0.147 0.058,-0.288 0.058,-0.425 0,-0.237 -0.046,-0.421 -0.138,-0.551 a 0.457,0.457 0 0 0 -0.393,-0.191 c -0.143,0 -0.25,0.042 -0.324,0.127 -0.072,0.087 -0.13,0.249 -0.175,0.488 l -0.054,0.263 c -0.062,0.325 -0.171,0.565 -0.328,0.719 -0.155,0.155 -0.364,0.233 -0.625,0.233 -0.313,0 -0.549,-0.105 -0.71,-0.315 -0.161,-0.209 -0.241,-0.515 -0.241,-0.919 0,-0.152 0.017,-0.315 0.051,-0.488 0.035,-0.171 0.085,-0.349 0.153,-0.533 h 0.449 a 2.63,2.63 0 0 0 -0.225,0.521 1.76,1.76 0 0 0 -0.076,0.5 c 0,0.248 0.049,0.441 0.147,0.576 a 0.485,0.485 0 0 0 0.418,0.202 0.48,0.48 0 0 0 0.372,-0.146 c 0.089,-0.097 0.156,-0.255 0.2,-0.477 l 0.052,-0.266 c 0.064,-0.325 0.166,-0.561 0.304,-0.706 0.138,-0.145 0.33,-0.217 0.576,-0.217 0.284,0 0.509,0.099 0.673,0.3 0.164,0.201 0.246,0.478 0.246,0.83 0,0.151 -0.014,0.306 -0.041,0.462 -0.027,0.156 -0.066,0.318 -0.121,0.481 m 0.105,0.428 v 2.726 h -0.367 v -1.144 h -2.854 v -0.438 h 2.854 v -1.144 h 0.367 m -0.429,3.88 -1.603,-0.592 v 1.186 l 1.603,-0.594 m 0.429,-0.246 v 0.493 l -3.221,1.229 v -0.453 l 0.827,-0.294 v -1.452 l -0.827,-0.293 v -0.46 l 3.221,1.23 m -1.71,3.717 a 0.634,0.634 0 0 1 -0.203,0.271 2.1,2.1 0 0 1 -0.427,0.268 l -0.88,0.442 v -0.469 l 0.827,-0.412 c 0.215,-0.105 0.359,-0.21 0.429,-0.311 0.07,-0.1 0.106,-0.234 0.106,-0.407 v -0.475 h -1.362 v -0.436 h 3.221 v 0.983 c 0,0.368 -0.077,0.643 -0.23,0.824 -0.154,0.181 -0.386,0.271 -0.697,0.271 a 0.846,0.846 0 0 1 -0.504,-0.142 0.694,0.694 0 0 1 -0.28,-0.407 m 1.352,-1.091 h -1.144 v 0.548 c 0,0.21 0.048,0.368 0.145,0.475 0.098,0.107 0.241,0.162 0.429,0.162 0.188,0 0.331,-0.055 0.425,-0.162 0.096,-0.106 0.145,-0.265 0.145,-0.475 v -0.548 m 0.358,1.87 v 2.726 h -0.367 v -1.145 h -2.854 v -0.438 h 2.854 v -1.144 h 0.367 m -7.646,-31.206 v 0.61 l -3.282,1.264 v -0.615 l 0.869,-0.308 v -1.311 l -0.869,-0.308 v -0.593 z m -1.976,-0.202 v 1.001 l 1.41,-0.491 v -0.014 z m 1.976,2.366 v 0.583 l -2.418,1.5 v 0.009 h 2.418 v 0.523 h -3.282 v -0.582 l 2.413,-1.497 v -0.014 h -2.413 v -0.522 z m 0,4.22 v 0.611 l -3.282,1.263 v -0.614 l 0.869,-0.308 v -1.312 l -0.869,-0.308 v -0.592 z m -1.976,-0.203 v 1.002 l 1.41,-0.492 v -0.014 z m 1.976,2.391 v 0.575 h -2.786 v 1.668 h -0.496 v -2.243 z m 0.078,4.034 c 0,0.478 -0.166,0.858 -0.498,1.145 -0.333,0.285 -0.74,0.429 -1.224,0.429 -0.485,0 -0.892,-0.143 -1.221,-0.427 -0.328,-0.284 -0.492,-0.666 -0.494,-1.145 -0.001,-0.479 0.163,-0.861 0.492,-1.147 0.329,-0.284 0.736,-0.427 1.221,-0.427 0.485,0 0.89,0.14 1.214,0.418 0.156,0.135 0.28,0.299 0.373,0.494 0.093,0.194 0.138,0.415 0.137,0.66 z m -2.602,-0.75 c -0.246,0.164 -0.368,0.415 -0.368,0.75 0,0.334 0.124,0.585 0.371,0.749 0.247,0.166 0.54,0.25 0.88,0.25 0.34,0 0.633,-0.084 0.88,-0.25 0.247,-0.166 0.371,-0.415 0.371,-0.747 0,-0.334 -0.125,-0.584 -0.373,-0.752 a 1.526,1.526 0 0 0 -0.882,-0.25 c -0.34,0.002 -0.633,0.086 -0.879,0.25 z m -0.758,5.709 v -0.368 l 0.386,-0.087 a 1.393,1.393 0 0 1 -0.364,-0.46 1.403,1.403 0 0 1 -0.101,-0.563 1.498,1.498 0 0 1 1.053,-1.429 2.02,2.02 0 0 1 0.665,-0.108 c 0.484,0 0.888,0.14 1.212,0.418 0.156,0.135 0.28,0.299 0.373,0.493 0.093,0.194 0.138,0.397 0.137,0.61 0,0.617 -0.212,1.051 -0.635,1.301 -0.14,0.082 -0.303,0.134 -0.487,0.154 v -0.574 a 0.684,0.684 0 0 0 0.48,-0.278 0.876,0.876 0 0 0 0.173,-0.53 c 0,-0.351 -0.124,-0.608 -0.371,-0.772 -0.247,-0.164 -0.54,-0.246 -0.88,-0.246 -0.34,0 -0.633,0.082 -0.88,0.249 -0.247,0.165 -0.371,0.415 -0.371,0.747 -0.006,0.289 0.071,0.513 0.229,0.672 0.159,0.158 0.382,0.241 0.671,0.249 v -0.876 h 0.438 v 1.399 h -1.728 z"
     id="path74"
     inkscape:connector-curvature="0"
     style="fill:#898888" />
</svg>
