<?xml version="1.0" encoding="UTF-8" standalone="no"?>
<svg
   xmlns:dc="http://purl.org/dc/elements/1.1/"
   xmlns:cc="http://creativecommons.org/ns#"
   xmlns:rdf="http://www.w3.org/1999/02/22-rdf-syntax-ns#"
   xmlns:svg="http://www.w3.org/2000/svg"
   xmlns="http://www.w3.org/2000/svg"
   xmlns:sodipodi="http://sodipodi.sourceforge.net/DTD/sodipodi-0.dtd"
   xmlns:inkscape="http://www.inkscape.org/namespaces/inkscape"
   viewBox="0 0 172.352 172.352"
   version="1.1"
   id="svg77"
   sodipodi:docname="game.svg"
   width="172.35201"
   height="172.35201"
   inkscape:version="0.92.4 5da689c313, 2019-01-14">
  <metadata
     id="metadata83">
    <rdf:RDF>
      <cc:Work
         rdf:about="">
        <dc:format>image/svg+xml</dc:format>
        <dc:type
           rdf:resource="http://purl.org/dc/dcmitype/StillImage" />
      </cc:Work>
    </rdf:RDF>
  </metadata>
  <defs
     id="defs81" />
  <sodipodi:namedview
     pagecolor="#ffffff"
     bordercolor="#666666"
     borderopacity="1"
     objecttolerance="10"
     gridtolerance="10"
     guidetolerance="10"
     inkscape:pageopacity="0"
     inkscape:pageshadow="2"
     inkscape:window-width="471"
     inkscape:window-height="442"
     id="namedview79"
     showgrid="false"
     inkscape:zoom="1.3692907"
     inkscape:cx="86.176003"
     inkscape:cy="86.175997"
     inkscape:window-x="0"
     inkscape:window-y="0"
     inkscape:window-maximized="0"
     inkscape:current-layer="svg77" />
  <path
     d="M 86.176,172.352 C 38.607,172.352 0,133.745 0,86.176 0,38.607 38.607,0 86.176,0 c 47.569,0 86.176,38.607 86.176,86.176 0,47.569 -38.607,86.176 -86.176,86.176 z M 98.844,86.176 c 0,-6.98 -5.688,-12.668 -12.668,-12.668 -6.98,0 -12.668,5.774 -12.668,12.668 0,6.98 5.601,12.668 12.668,12.668 7.067,0 12.668,-5.688 12.668,-12.668 z"
     id="path2"
     inkscape:connector-curvature="0" />
  <path
     d="m 86.176,63.512 c -12.495,0 -22.664,10.083 -22.664,22.664 0,12.581 10.083,22.664 22.664,22.664 12.581,0 22.664,-10.083 22.664,-22.664 0,-12.581 -10.169,-22.664 -22.664,-22.664 z m 0,34.556 c -6.98,0 -12.668,-5.601 -12.668,-12.668 0,-7.067 5.601,-12.668 12.668,-12.668 7.067,0 12.668,5.688 12.668,12.668 A 12.633,12.633 0 0 1 86.176,98.068 Z"
     stroke-miterlimit="10"
     id="path4"
     inkscape:connector-curvature="0"
     style="stroke:#1b1b1c;stroke-width:0.86199999;stroke-miterlimit:10" />
  <path
     d="m 86.176,1.379 c -46.793,0 -84.797,38.004 -84.797,84.797 0,46.793 38.004,84.797 84.797,84.797 46.793,0 84.797,-38.004 84.797,-84.797 0,-46.793 -38.004,-84.797 -84.797,-84.797 z m 0,99.223 A 15.16,15.16 0 0 1 70.975,85.401 c 0,-8.48 6.722,-15.201 15.201,-15.201 8.479,0 15.201,6.825 15.201,15.201 a 15.16,15.16 0 0 1 -15.201,15.201 z"
     id="path6"
     inkscape:connector-curvature="0"
     style="fill:#a2a3a3" />
  <path
     d="m 86.176,5.084 c -44.811,0 -81.091,36.28 -81.091,81.091 0,18.528 6.205,35.677 16.718,49.293 14.908,19.39 38.09,31.799 64.373,31.799 26.283,0 49.551,-12.495 64.373,-31.799 10.513,-13.616 16.718,-30.765 16.718,-49.293 0,-44.811 -36.28,-81.091 -81.091,-81.091 z m 0,95.518 A 15.16,15.16 0 0 1 70.975,85.401 c 0,-8.48 6.722,-15.201 15.201,-15.201 8.479,0 15.201,6.825 15.201,15.201 a 15.16,15.16 0 0 1 -15.201,15.201 z"
     id="path8"
     inkscape:connector-curvature="0"
     style="fill:#adb2b2" />
  <g
     id="g12"
     style="fill:#ffffff">
    <path
       d="m 134.039,99.93 h -0.596 v 0.49 h 0.665 v 0.148 h -0.862 V 99.21 h 0.828 v 0.147 h -0.63 v 0.43 h 0.596 v 0.143 z m 0.324,0.637 v -1.358 h 0.216 l 0.492,0.687 c 0.113,0.159 0.202,0.303 0.276,0.442 l 0.004,-0.002 a 5.43,5.43 0 0 1 -0.022,-0.558 v -0.569 h 0.187 v 1.358 h -0.2 l -0.487,-0.689 a 4.064,4.064 0 0 1 -0.286,-0.453 l -0.007,0.002 c 0.011,0.171 0.016,0.334 0.016,0.56 v 0.581 h -0.189 z m 1.787,-1.21 h -0.466 v -0.149 h 1.135 v 0.149 h -0.468 v 1.21 h -0.2 v -1.21 z m 1.632,0.573 h -0.596 v 0.49 h 0.665 v 0.148 h -0.862 V 99.21 h 0.828 v 0.147 h -0.63 v 0.43 h 0.596 v 0.143 z m 0.324,-0.704 c 0.1,-0.018 0.243,-0.027 0.38,-0.027 0.211,0 0.348,0.034 0.444,0.11 0.077,0.061 0.12,0.153 0.12,0.258 0,0.18 -0.127,0.298 -0.289,0.347 v 0.006 c 0.118,0.036 0.19,0.133 0.226,0.274 0.05,0.19 0.086,0.321 0.118,0.373 H 138.9 a 1.667,1.667 0 0 1 -0.102,-0.324 c -0.046,-0.188 -0.128,-0.258 -0.308,-0.264 h -0.187 v 0.588 h -0.197 z m 0.198,0.62 h 0.203 c 0.211,0 0.346,-0.104 0.346,-0.258 0,-0.176 -0.144,-0.252 -0.353,-0.254 a 0.924,0.924 0 0 0 -0.196,0.016 z m 1.337,-0.489 h -0.466 v -0.149 h 1.135 v 0.149 h -0.468 v 1.21 h -0.2 v -1.21 z m 0.915,0.783 -0.159,0.427 h -0.205 l 0.521,-1.358 h 0.239 l 0.523,1.358 h -0.211 L 141.1,100.14 Z m 0.503,-0.138 -0.15,-0.391 a 2.694,2.694 0 0 1 -0.08,-0.247 h -0.005 c -0.022,0.08 -0.047,0.163 -0.077,0.245 l -0.15,0.393 z m 0.837,-0.793 v 1.358 h -0.197 v -1.358 z m 0.346,1.358 v -1.358 h 0.216 l 0.492,0.687 c 0.113,0.159 0.202,0.303 0.276,0.442 l 0.004,-0.002 a 5.43,5.43 0 0 1 -0.022,-0.558 v -0.569 h 0.187 v 1.358 h -0.2 l -0.487,-0.689 a 4.064,4.064 0 0 1 -0.286,-0.453 l -0.007,0.002 c 0.011,0.171 0.016,0.334 0.016,0.56 v 0.581 h -0.189 z m 2.788,-0.596 a 9.391,9.391 0 0 1 -0.022,-0.587 H 145 a 7.421,7.421 0 0 1 -0.193,0.516 l -0.271,0.66 h -0.151 l -0.247,-0.647 a 5.493,5.493 0 0 1 -0.178,-0.529 h -0.005 c -0.004,0.17 -0.016,0.398 -0.029,0.601 l -0.041,0.582 h -0.189 l 0.107,-1.358 h 0.253 l 0.262,0.657 c 0.064,0.167 0.115,0.317 0.154,0.457 h 0.007 c 0.038,-0.137 0.093,-0.285 0.161,-0.457 l 0.274,-0.657 h 0.252 l 0.096,1.358 h -0.194 z m 1.329,-0.041 h -0.596 v 0.49 h 0.665 v 0.148 h -0.862 V 99.21 h 0.828 v 0.147 h -0.63 v 0.43 h 0.596 v 0.143 z m 0.324,0.637 v -1.358 h 0.216 l 0.492,0.687 c 0.113,0.159 0.202,0.303 0.276,0.442 l 0.004,-0.002 a 5.43,5.43 0 0 1 -0.022,-0.558 v -0.569 h 0.187 v 1.358 h -0.2 l -0.487,-0.689 a 4.064,4.064 0 0 1 -0.286,-0.453 l -0.007,0.002 c 0.011,0.171 0.016,0.334 0.016,0.56 v 0.581 h -0.189 z m 1.787,-1.21 h -0.466 v -0.149 h 1.135 v 0.149 h -0.468 v 1.21 h -0.2 v -1.21 z"
       id="path10"
       inkscape:connector-curvature="0" />
  </g>
  <g
     id="g16"
     style="fill:#ffffff">
    <path
       d="m 150.247,100.008 h -0.191 V 99.94 h 0.465 v 0.068 h -0.193 v 0.559 h -0.082 v -0.559 z m 0.873,0.284 c -0.005,-0.088 -0.011,-0.193 -0.01,-0.271 h -0.003 a 3.469,3.469 0 0 1 -0.079,0.238 l -0.11,0.304 h -0.062 l -0.102,-0.299 a 2.838,2.838 0 0 1 -0.072,-0.243 h -0.002 c -0.002,0.078 -0.007,0.183 -0.012,0.278 l -0.018,0.269 h -0.077 l 0.044,-0.627 h 0.104 l 0.107,0.303 c 0.026,0.077 0.048,0.147 0.064,0.212 h 0.003 a 2.34,2.34 0 0 1 0.066,-0.212 l 0.111,-0.303 h 0.104 l 0.039,0.627 h -0.079 z"
       id="path14"
       inkscape:connector-curvature="0" />
  </g>
  <g
     id="g20"
     style="fill:#ffffff">
    <path
       d="m 134.776,98.813 a 1.782,1.782 0 0 1 -0.601,0.087 c -0.641,0 -1.124,-0.326 -1.124,-0.927 0,-0.573 0.483,-0.962 1.188,-0.962 0.283,0 0.462,0.049 0.539,0.081 l -0.07,0.194 a 1.28,1.28 0 0 0 -0.459,-0.076 c -0.533,0 -0.887,0.275 -0.887,0.755 0,0.449 0.321,0.737 0.874,0.737 0.179,0 0.362,-0.03 0.48,-0.076 z m 2.24,-0.876 c 0,0.63 -0.475,0.966 -1.055,0.966 -0.601,0 -1.023,-0.375 -1.023,-0.93 0,-0.582 0.45,-0.962 1.056,-0.962 0.621,0 1.022,0.383 1.022,0.926 z m -1.765,0.031 c 0,0.391 0.264,0.742 0.726,0.742 0.465,0 0.729,-0.345 0.729,-0.761 0,-0.364 -0.237,-0.745 -0.726,-0.745 -0.486,-10e-4 -0.729,0.361 -0.729,0.764 z m 4.062,0.1 a 11.124,11.124 0 0 1 -0.034,-0.792 h -0.01 a 9.381,9.381 0 0 1 -0.287,0.696 l -0.402,0.889 h -0.222 l -0.368,-0.873 a 7.334,7.334 0 0 1 -0.263,-0.712 h -0.007 c -0.007,0.229 -0.023,0.536 -0.044,0.81 l -0.061,0.786 h -0.28 l 0.159,-1.832 h 0.374 l 0.388,0.886 c 0.095,0.226 0.172,0.427 0.23,0.617 h 0.01 c 0.058,-0.185 0.139,-0.385 0.239,-0.617 l 0.406,-0.886 h 0.374 l 0.142,1.832 h -0.286 z m 0.795,-1.005 a 4.06,4.06 0 0 1 0.564,-0.035 c 0.29,0 0.503,0.054 0.638,0.151 a 0.453,0.453 0 0 1 0.198,0.383 0.486,0.486 0 0 1 -0.175,0.392 c -0.155,0.133 -0.409,0.201 -0.695,0.201 -0.088,0 -0.169,-0.003 -0.237,-0.017 v 0.734 h -0.294 v -1.809 z m 0.294,0.883 c 0.064,0.014 0.145,0.019 0.242,0.019 0.355,0 0.571,-0.139 0.571,-0.391 0,-0.242 -0.212,-0.36 -0.537,-0.36 -0.128,0 -0.226,0.009 -0.277,0.02 v 0.712 z m 1.794,-0.906 v 1.085 c 0,0.41 0.226,0.584 0.53,0.584 0.337,0 0.553,-0.179 0.553,-0.584 V 97.04 h 0.297 v 1.068 c 0,0.563 -0.367,0.795 -0.86,0.795 -0.466,0 -0.817,-0.215 -0.817,-0.783 v -1.08 z m 2.321,0.201 h -0.691 V 97.04 h 1.684 v 0.201 h -0.696 v 1.631 h -0.297 z m 2.422,0.772 h -0.884 v 0.661 h 0.985 v 0.198 h -1.279 V 97.04 h 1.228 v 0.198 h -0.934 v 0.58 h 0.884 z m 0.481,-0.949 c 0.149,-0.024 0.362,-0.037 0.564,-0.037 0.314,0 0.516,0.046 0.658,0.149 a 0.42,0.42 0 0 1 0.179,0.348 c 0,0.242 -0.189,0.403 -0.428,0.468 V 98 c 0.175,0.049 0.28,0.18 0.334,0.369 0.074,0.256 0.128,0.433 0.175,0.503 h -0.303 c -0.037,-0.052 -0.088,-0.209 -0.152,-0.438 -0.067,-0.252 -0.189,-0.348 -0.455,-0.356 h -0.277 v 0.794 h -0.294 v -1.808 z m 0.294,0.835 h 0.3 c 0.314,0 0.513,-0.139 0.513,-0.348 0,-0.237 -0.212,-0.339 -0.523,-0.342 -0.142,0 -0.243,0.011 -0.29,0.021 z"
       id="path18"
       inkscape:connector-curvature="0" />
  </g>
  <path
     d="m 133.063,73.199 h 0.265 c 0.217,0.395 0.731,0.819 1.456,0.819 0.379,0 0.785,-0.114 0.785,-0.392 0,-0.205 -0.179,-0.309 -0.584,-0.361 l -0.552,-0.069 c -0.979,-0.121 -1.369,-0.454 -1.369,-0.808 0,-0.534 0.666,-0.791 1.434,-0.791 0.346,0 0.66,0.062 0.947,0.191 l 0.292,-0.17 h 0.233 l 0.07,0.916 h -0.271 c -0.2,-0.371 -0.671,-0.749 -1.342,-0.749 -0.346,0 -0.747,0.107 -0.747,0.357 0,0.149 0.124,0.284 0.601,0.347 l 0.671,0.09 c 0.893,0.121 1.267,0.389 1.267,0.819 0,0.423 -0.498,0.808 -1.413,0.808 -0.438,0 -0.823,-0.08 -1.12,-0.232 l -0.341,0.215 h -0.238 z m 5.592,-1.603 c 1.142,0 2.041,0.562 2.041,1.304 0,0.742 -0.898,1.304 -2.041,1.304 -1.147,0 -2.046,-0.562 -2.046,-1.304 0,-0.742 0.899,-1.304 2.046,-1.304 z m 0,2.439 c 0.65,0 0.969,-0.382 0.969,-1.134 0,-0.753 -0.319,-1.134 -0.969,-1.134 -0.654,0 -0.974,0.382 -0.974,1.134 0,0.752 0.319,1.134 0.974,1.134 z m 2.279,-2.387 h 1.396 l 2.095,1.596 v -0.975 c 0,-0.323 -0.092,-0.42 -0.596,-0.434 v -0.187 h 1.559 v 0.187 c -0.503,0.014 -0.595,0.111 -0.595,0.434 v 1.918 h -0.352 l -2.533,-1.953 h -0.011 v 1.297 c 0,0.323 0.092,0.42 0.596,0.434 v 0.187 h -1.559 v -0.187 c 0.503,-0.014 0.595,-0.111 0.595,-0.434 v -1.509 c -0.135,-0.125 -0.346,-0.187 -0.595,-0.187 z"
     id="path22"
     inkscape:connector-curvature="0"
     style="fill:#ffffff" />
  <path
     d="m 145.351,71.648 h 1.937 v 0.187 h -0.119 c -0.227,0 -0.287,0.021 -0.287,0.08 0,0.031 0.027,0.066 0.103,0.142 l 0.709,0.735 0.52,-0.604 c 0.076,-0.09 0.103,-0.135 0.103,-0.173 0,-0.146 -0.249,-0.18 -0.514,-0.18 v -0.187 h 1.586 v 0.187 c -0.39,0.035 -0.552,0.135 -0.823,0.43 l -0.714,0.784 v 0.742 c 0,0.132 0.033,0.173 0.325,0.173 h 0.287 v 0.187 h -2.17 v -0.187 h 0.271 c 0.292,0 0.324,-0.042 0.324,-0.173 V 73.09 l -1.039,-1.065 c -0.157,-0.16 -0.216,-0.191 -0.498,-0.191 v -0.186 z"
     id="path24"
     inkscape:connector-curvature="0"
     style="fill:#ffffff" />
  <linearGradient
     id="a"
     gradientUnits="userSpaceOnUse"
     x1="15201.842"
     y1="15594.378"
     x2="15285.2"
     y2="15594.378"
     gradientTransform="matrix(0.25,0,0,0.25,-3669.655,-3812.986)">
    <stop
       offset="0"
       stop-color="#ef4e26"
       id="stop26" />
    <stop
       offset=".5"
       stop-color="#e5e543"
       id="stop28" />
    <stop
       offset="1"
       stop-color="#ef4e26"
       id="stop30" />
  </linearGradient>
  <path
     d="M 141.203,75.199 151.644,85.641 141.268,96.017 130.805,85.554 Z"
     id="path33"
     inkscape:connector-curvature="0"
     style="fill:url(#a)" />
  <linearGradient
     id="b"
     gradientUnits="userSpaceOnUse"
     x1="30154.832"
     y1="31204.57"
     x2="30238.189"
     y2="31204.57"
     gradientTransform="matrix(0.125,0,0,0.125,-3631.682,-3818.45)">
    <stop
       offset="0"
       stop-color="#ef4e26"
       id="stop35" />
    <stop
       offset=".4"
       stop-color="#e5e543"
       id="stop37" />
    <stop
       offset="1"
       stop-color="#fbae1f"
       id="stop39" />
  </linearGradient>
  <path
     d="m 142.903,87.325 -5.232,-5.232 5.199,-5.177"
     id="path42"
     inkscape:connector-curvature="0"
     style="fill:url(#b)" />
  <linearGradient
     id="c"
     gradientUnits="userSpaceOnUse"
     x1="30226.695"
     y1="31042.121"
     x2="30310.059"
     y2="31042.121"
     gradientTransform="matrix(0.125,0,0,0.125,-3643.848,-3790.95)">
    <stop
       offset="0"
       stop-color="#fbae1f"
       id="stop44" />
    <stop
       offset=".6"
       stop-color="#e5e543"
       id="stop46" />
    <stop
       offset="1"
       stop-color="#ef4e26"
       id="stop48" />
  </linearGradient>
  <path
     d="m 139.688,84.11 5.22,5.22 -5.187,5.189"
     id="path51"
     inkscape:connector-curvature="0"
     style="fill:url(#c)" />
  <g
     id="g55"
     style="fill:#ffffff">
    <path
       d="m 110.296,125.146 h 1.699 c 0.203,0 0.363,0.17 0.363,0.363 v 6.693 c 0,0.193 -0.17,0.363 -0.363,0.363 h -1.699 a 0.366,0.366 0 0 1 -0.363,-0.363 v -6.693 a 0.36,0.36 0 0 1 0.363,-0.363 z m -1.646,-2.69 h -1.361 a 0.367,0.367 0 0 0 -0.367,0.367 v 2.327 h -3.04 c -0.245,0 -0.527,0.278 -0.527,0.527 v 6.362 c 0,0.249 0.285,0.527 0.527,0.527 l 4.768,-0.003 a 0.36,0.36 0 0 0 0.367,-0.36 v -9.38 a 0.367,0.367 0 0 0 -0.367,-0.367 z m -1.476,8.683 c 0,0.19 -0.173,0.363 -0.363,0.363 h -1.116 a 0.368,0.368 0 0 1 -0.363,-0.363 v -4.369 a 0.36,0.36 0 0 1 0.363,-0.363 h 1.116 c 0.203,0 0.363,0.173 0.363,0.363 z m 8.002,-3.25 3.037,-0.003 c 0.203,0 0.367,0.281 0.367,0.367 v 3.947 c 0,0.16 -0.206,0.367 -0.367,0.367 h -4.402 c -0.056,0 -0.363,-0.16 -0.363,-0.363 v -0.9 a 0.36,0.36 0 0 1 0.363,-0.363 h 3.04 v -1.116 h -3.04 c -0.062,0 -0.363,-0.16 -0.363,-0.363 v -3.95 a 0.36,0.36 0 0 1 0.363,-0.363 h 4.179 c 0.17,0 0.363,0.2 0.363,0.363 v 0.9 c 0,0.151 -0.213,0.363 -0.363,0.363 h -2.815 v 1.114 z m 9.422,1.626 v 2.687 c 0,0.167 -0.196,0.363 -0.363,0.363 h -4.458 c -0.069,0 -0.363,-0.16 -0.363,-0.363 v -6.693 a 0.36,0.36 0 0 1 0.363,-0.363 h 4.458 c 0.203,0 0.363,0.298 0.363,0.363 v 2.769 h -1.669 v -1.604 c 0,0 -0.16,-0.363 -0.363,-0.363 h -1.116 a 0.36,0.36 0 0 0 -0.363,0.363 v 4.369 c 0,0.2 0.226,0.363 0.363,0.363 h 1.116 c 0.17,0 0.363,-0.193 0.363,-0.363 v -1.528 z m -0.92,-5.236 h 0.501 v -1.378 h 0.471 v -0.396 h -1.44 v 0.396 h 0.468 z m -0.909,-0.691 h -0.514 v 0.046 c 0,0.19 -0.062,0.249 -0.259,0.249 -0.242,0 -0.259,-0.088 -0.259,-0.353 v -0.291 c 0,-0.265 0.016,-0.337 0.259,-0.337 0.183,0 0.259,0.043 0.259,0.219 v 0.029 h 0.501 v -0.029 c 0,-0.484 -0.183,-0.645 -0.697,-0.645 h -0.137 c -0.53,0 -0.697,0.19 -0.697,0.733 v 0.367 c 0,0.527 0.167,0.746 0.697,0.746 h 0.167 c 0.468,0 0.681,-0.203 0.681,-0.674 v -0.06 z m -6.899,-1.083 -0.377,1.276 -0.379,-1.276 h -0.73 v 1.774 h 0.487 v -1.319 l 0.38,1.319 h 0.484 l 0.38,-1.306 v 1.306 h 0.468 v -1.774 z m 4.444,0 h -0.76 l -0.53,1.774 h 0.53 l 0.092,-0.308 h 0.576 l 0.075,0.308 h 0.53 z m -0.38,1.1 h -0.196 l 0.18,-0.733 h 0.032 l 0.18,0.733 z m -1.849,-1.1 h -0.864 v 1.774 h 0.501 v -0.468 h 0.364 c 0.468,0 0.681,-0.164 0.681,-0.602 v -0.118 c -10e-4,-0.442 -0.214,-0.586 -0.682,-0.586 z m 0.18,0.687 c 0,0.177 -0.043,0.223 -0.196,0.223 h -0.347 v -0.514 h 0.318 c 0.167,0 0.226,0.043 0.226,0.19 v 0.101 z m -5.154,-0.717 h -0.242 c -0.53,0 -0.697,0.19 -0.697,0.733 v 0.367 c 0,0.527 0.167,0.746 0.697,0.746 h 0.242 c 0.53,0 0.713,-0.219 0.713,-0.746 v -0.367 c 0,-0.543 -0.183,-0.733 -0.713,-0.733 z m 0.199,1.054 c 0,0.281 -0.016,0.353 -0.275,0.353 h -0.092 c -0.255,0 -0.272,-0.072 -0.272,-0.353 v -0.291 c 0,-0.265 0.016,-0.337 0.272,-0.337 h 0.092 c 0.259,0 0.275,0.072 0.275,0.337 z m -1.639,0.059 h -0.514 v 0.046 c 0,0.19 -0.062,0.249 -0.259,0.249 -0.242,0 -0.259,-0.088 -0.259,-0.353 v -0.291 c 0,-0.265 0.016,-0.337 0.259,-0.337 0.183,0 0.259,0.043 0.259,0.219 v 0.029 h 0.501 v -0.029 c 0,-0.484 -0.183,-0.645 -0.7,-0.645 h -0.134 c -0.53,0 -0.697,0.19 -0.697,0.733 v 0.367 c 0,0.527 0.167,0.746 0.697,0.746 h 0.167 c 0.468,0 0.681,-0.203 0.681,-0.674 v -0.06 z"
       id="path53"
       inkscape:connector-curvature="0" />
  </g>
  <g
     id="g75">
    <path
       d="M 19.3,74.37 H 45.059 V 97.982 H 19.3 Z"
       id="path57"
       inkscape:connector-curvature="0"
       style="fill:#58595b" />
    <g
       id="g67"
       style="clip-rule:evenodd;fill-rule:evenodd">
      <path
         d="m 31.121,86.282 -3.014,-0.904 -3.974,1.425 -0.685,0.274 2.878,0.904 z m 4.933,1.48 -4.302,1.507 -0.713,0.219 -2.932,-0.904 4.878,-1.754 z m 1.863,0.548 -5.014,1.809 2.822,0.931 4.632,-1.644 0.548,-0.247 z"
         id="path59"
         inkscape:connector-curvature="0"
         style="fill:#00a99d" />
      <path
         d="m 35.725,91.05 -2.822,-0.931 -2.823,1.014 2.878,0.904 z m -7.618,-2.466 2.932,0.904 c -2.466,0.822 -4.851,0.904 -7.18,0.274 -1.233,-0.329 -1.918,-0.767 -1.973,-1.37 -0.027,-0.411 0.521,-0.877 1.562,-1.315 l 2.877,0.904 -0.74,0.274 a 3.392,3.392 0 0 0 -0.548,0.274 c -0.137,0.137 -0.082,0.274 0.137,0.411 l 1.096,0.137 1.151,-0.219 z"
         id="path61"
         inkscape:connector-curvature="0"
         style="fill:#f2c102" />
      <path
         d="m 29.614,84.885 2.96,0.849 -1.453,0.548 -3.014,-0.904 z m 3.371,1.945 c 1.425,-0.548 2.795,-0.822 4.111,-0.849 a 9.933,9.933 0 0 1 3.617,0.493 c 1.096,0.356 1.699,0.767 1.726,1.288 0.055,0.548 -0.438,0.987 -1.534,1.398 l -2.987,-0.849 1.014,-0.384 c 0.411,-0.137 0.603,-0.274 0.548,-0.438 -0.055,-0.137 -0.192,-0.247 -0.493,-0.274 l -1.014,-0.055 -0.767,0.192 -1.151,0.411 z"
         id="path63"
         inkscape:connector-curvature="0"
         style="fill:#326cb2" />
      <path
         d="m 29.559,76.143 v 14.853 l 3.398,1.041 V 79.623 c 0,-0.329 0.027,-0.548 0.164,-0.685 0.137,-0.192 0.274,-0.219 0.466,-0.137 0.466,0.137 0.685,0.548 0.685,1.233 v 4.988 c 1.042,0.493 1.973,0.548 2.658,0.027 0.713,-0.493 1.096,-1.37 1.096,-2.685 0,-1.37 -0.274,-2.411 -0.877,-3.097 -0.548,-0.74 -1.507,-1.343 -2.932,-1.836 -1.862,-0.603 -3.425,-1.042 -4.658,-1.288 z"
         id="path65"
         inkscape:connector-curvature="0"
         style="fill:#dc0029" />
    </g>
    <g
       id="g73"
       style="fill:#ffffff">
      <path
         d="m 24.33,93.105 h -1.11 v 2.636 h 0.41 v -2.34 h 0.542 c 0.312,0 0.319,0.414 0.319,0.414 v 0.256 c -0.017,0.428 -0.221,0.376 -0.221,0.376 h -0.375 v 0.291 h 0.417 c 0.6,0 0.601,-0.635 0.601,-0.635 v -0.415 c 0,-0.59 -0.583,-0.583 -0.583,-0.583 z"
         id="path69"
         inkscape:connector-curvature="0"
         style="clip-rule:evenodd;fill-rule:evenodd" />
      <path
         d="m 25.256,93.105 h 0.416 v 2.647 h -0.416 z m 1.042,0.587 h 0.754 c 0,0 0.617,-0.056 0.617,0.568 v 1.487 h -1.014 c 0,0 -0.628,-0.007 -0.603,-0.621 V 95 c 0,0 0.025,-0.535 0.535,-0.535 h 0.384 v 0.23 H 26.74 c 0,0 -0.239,0.01 -0.239,0.333 0,0.323 0.116,0.442 0.365,0.442 h 0.389 v -1.171 c 0,0 0.021,-0.34 -0.386,-0.34 h -0.572 v -0.267 z m 7.113,0 h 0.754 c 0,0 0.617,-0.056 0.617,0.568 v 1.487 h -1.014 c 0,0 -0.628,-0.007 -0.603,-0.621 V 95 c 0,0 0.025,-0.535 0.535,-0.535 h 0.384 v 0.23 h -0.232 c 0,0 -0.238,0.01 -0.238,0.333 0,0.323 0.116,0.442 0.365,0.442 h 0.389 v -1.171 c 0,0 0.021,-0.34 -0.386,-0.34 H 33.41 v -0.267 z m -5.53,-0.014 h 0.484 l 0.542,1.389 0.558,-1.389 h 0.394 l -1.289,3.026 h -0.358 l 0.448,-1.032 z m 2.278,1.824 h 0.694 c 0,0 0.323,0.024 0.323,-0.418 V 94.85 c 0,0 -0.025,-0.272 -0.272,-0.272 h -0.3 c 0,0 -0.565,0.012 -0.547,-0.643 v -0.249 c 0,0 0.028,-0.561 0.638,-0.561 h 0.726 v 0.263 h -0.635 c 0,0 -0.324,-0.014 -0.324,0.325 v 0.152 c 0,0 0.021,0.348 0.348,0.348 h 0.327 c 0,0 0.438,-10e-4 0.438,0.557 v 0.428 c 0,0 -0.032,0.559 -0.559,0.559 h -0.858 v -0.255 z m 2.613,0.246 h -0.463 c 0,0 -0.288,0.035 -0.288,-0.459 v -1.922 h 0.445 v 0.326 h 0.417 v 0.288 h -0.459 v 1.203 c 0,0 -0.021,0.316 0.281,0.316 h 0.067 z m 3.178,0.007 h -0.463 c 0,0 -0.288,0.035 -0.288,-0.459 v -1.922 h 0.445 V 93.7 h 0.417 v 0.288 h -0.459 v 1.203 c 0,0 -0.021,0.315 0.281,0.315 h 0.067 z m 0.496,-2.687 h 0.41 v 0.416 h -0.41 z m 0,0.616 h 0.41 v 2.041 h -0.41 z m 1.846,0.007 h -0.2 a 0.8,0.8 0 0 0 -0.8,0.8 v 0.484 a 0.8,0.8 0 0 0 0.8,0.8 h 0.2 a 0.8,0.8 0 0 0 0.8,-0.8 v -0.484 a 0.802,0.802 0 0 0 -0.8,-0.8 z m 0.334,1.384 a 0.43,0.43 0 0 1 -0.434,0.427 0.43,0.43 0 0 1 -0.434,-0.427 v -0.683 a 0.43,0.43 0 0 1 0.434,-0.427 0.43,0.43 0 0 1 0.434,0.427 z m 0.93,-1.384 h 0.968 c 0,0 0.641,-0.037 0.641,0.641 v 1.414 H 40.74 v -1.384 c 0,0 0.042,-0.366 -0.366,-0.366 h -0.408 v 1.728 h -0.41 z m 2.273,2.042 V 95.169 H 41.614 V 95.07 h 0.541 v 0.098 h -0.216 v 0.564 h -0.11 z m 0.4,0 V 95.07 h 0.163 l 0.168,0.529 0.162,-0.529 h 0.159 v 0.663 H 42.78 v -0.556 l -0.171,0.556 h -0.1 l -0.178,-0.564 v 0.564 z"
         id="path71"
         inkscape:connector-curvature="0" />
    </g>
  </g>
</svg>
