<?xml version="1.0" encoding="UTF-8" standalone="no"?>
<svg
   xmlns:dc="http://purl.org/dc/elements/1.1/"
   xmlns:cc="http://creativecommons.org/ns#"
   xmlns:rdf="http://www.w3.org/1999/02/22-rdf-syntax-ns#"
   xmlns:svg="http://www.w3.org/2000/svg"
   xmlns="http://www.w3.org/2000/svg"
   xmlns:sodipodi="http://sodipodi.sourceforge.net/DTD/sodipodi-0.dtd"
   xmlns:inkscape="http://www.inkscape.org/namespaces/inkscape"
   viewBox="0 0 133.92 307.992"
   version="1.1"
   id="svg44"
   sodipodi:docname="controller.svg"
   width="133.92"
   height="307.992"
   inkscape:version="0.92.4 5da689c313, 2019-01-14">
  <metadata
     id="metadata50">
    <rdf:RDF>
      <cc:Work
         rdf:about="">
        <dc:format>image/svg+xml</dc:format>
        <dc:type
           rdf:resource="http://purl.org/dc/dcmitype/StillImage" />
      </cc:Work>
    </rdf:RDF>
  </metadata>
  <defs
     id="defs48" />
  <sodipodi:namedview
     pagecolor="#ffffff"
     bordercolor="#666666"
     borderopacity="1"
     objecttolerance="10"
     gridtolerance="10"
     guidetolerance="10"
     inkscape:pageopacity="0"
     inkscape:pageshadow="2"
     inkscape:window-width="640"
     inkscape:window-height="480"
     id="namedview46"
     showgrid="false"
     inkscape:zoom="0.76625366"
     inkscape:cx="66.959999"
     inkscape:cy="153.996"
     inkscape:window-x="0"
     inkscape:window-y="0"
     inkscape:window-maximized="0"
     inkscape:current-layer="svg44" />
  <path
     d="m 133.07,209.562 c 0,-0.792 -0.066,-1.707 -0.414,-2.488 -0.347,-0.781 -1.09,-1.437 -2.14,-1.437 v 0.515 c -0.203,-0.011 -0.504,0.016 -0.512,0.266 l 0.098,35.586 c -0.387,12.711 -4.082,23.754 -9.977,33.437 -0.207,0.411 0.223,0.586 0.391,0.582 a 23.5,23.5 0 0 0 1.652,-0.121 v 0.051 c 0.68,0 1.203,0.059 1.707,0 a 1.694,1.694 0 0 0 1.293,-0.863 c 0.004,-0.004 0.016,0.004 0.02,0 0,-0.004 -0.004,-0.012 0,-0.016 5.371,-9.554 7.882,-20.566 7.882,-32.269 z m 0,-111.054 c 0,0.793 -0.066,1.707 -0.414,2.488 -0.347,0.785 -1.09,1.438 -2.14,1.438 v -0.512 c -0.203,0.008 -0.504,-0.02 -0.512,-0.266 l 0.098,-35.59 c -0.387,-12.707 -4.082,-23.75 -9.977,-33.433 -0.207,-0.41 0.223,-0.59 0.391,-0.582 0.683,0.027 1.222,0.07 1.652,0.121 v -0.051 c 0.68,0 1.203,-0.059 1.707,0 0.5,0.055 1.008,0.34 1.293,0.859 0.004,0.004 0.016,-0.003 0.02,0 0,0.004 -0.004,0.012 0,0.016 5.371,9.559 7.882,20.566 7.882,32.274 z m 0,0"
     id="path2"
     inkscape:connector-curvature="0"
     style="fill:#bdbdbd" />
  <path
     d="m 130.582,64.816 v 84.438 h -1.18 v 9.625 h 1.18 v 84.293 c 0,35.805 -29,64.82 -64.801,64.82 -35.804,0 -64.82,-29.015 -64.82,-64.82 a 64.503,64.503 0 0 1 12.195,-37.836 v -0.016 l 1.035,-1.34 a 13.682,13.682 0 0 0 2.997,-8.574 v -82.828 c 0,-3.242 -1.118,-6.223 -2.997,-8.574 l -1.035,-1.34 v -0.012 C 5.481,92.008 0.961,78.949 0.961,64.816 0.961,29.016 29.973,0 65.777,0 c 35.801,0 64.801,29.016 64.801,64.816 z m 0,0"
     id="path4"
     inkscape:connector-curvature="0"
     style="fill:#cccccc" />
  <path
     d="M 0,0 H 133.92 V 307.92 H 0 Z"
     id="path6"
     inkscape:connector-curvature="0"
     style="fill:none" />
  <path
     d="m 35.524,116.359 c 0.269,0.043 0.48,-0.07 0.628,-0.336 l 0.254,-0.449 c 0.375,-0.629 0.887,-0.926 1.532,-0.894 0.296,0.015 0.558,0.093 0.785,0.23 0.234,0.141 0.418,0.336 0.543,0.586 0.129,0.246 0.187,0.516 0.179,0.809 a 1.187,1.187 0 0 1 -0.453,0.953 c -0.293,0.238 -0.687,0.355 -1.183,0.351 v -0.929 a 0.984,0.984 0 0 0 0.492,-0.094 c 0.117,-0.07 0.183,-0.188 0.191,-0.348 a 0.612,0.612 0 0 0 -0.152,-0.414 0.592,0.592 0 0 0 -0.414,-0.215 c -0.242,-0.035 -0.438,0.102 -0.594,0.407 a 4.682,4.682 0 0 1 -0.394,0.664 c -0.348,0.437 -0.813,0.644 -1.403,0.617 a 1.758,1.758 0 0 1 -0.808,-0.227 1.407,1.407 0 0 1 -0.532,-0.55 1.543,1.543 0 0 1 -0.179,-0.801 c 0.008,-0.211 0.05,-0.41 0.125,-0.59 0.086,-0.188 0.211,-0.348 0.375,-0.481 0.324,-0.261 0.758,-0.386 1.297,-0.375 l -0.012,0.934 c -0.27,-0.008 -0.477,0.031 -0.617,0.121 -0.133,0.086 -0.203,0.234 -0.203,0.449 a 0.57,0.57 0 0 0 0.14,0.391 0.635,0.635 0 0 0 0.403,0.191 z m 2.871,19.539 v -1.152 l -4.305,-0.57 v -0.934 l 4.305,0.567 v -1.145 l 0.988,0.137 v 3.234 z m -2.496,-4.25 a 2.354,2.354 0 0 1 -0.993,-0.281 1.776,1.776 0 0 1 -0.668,-0.621 1.551,1.551 0 0 1 -0.222,-0.848 c 0.011,-0.418 0.191,-0.742 0.531,-0.976 0.348,-0.242 0.816,-0.371 1.402,-0.395 0.391,-0.015 0.821,0.016 1.285,0.098 a 3.99,3.99 0 0 1 1.204,0.391 c 0.347,0.187 0.605,0.402 0.777,0.648 0.168,0.25 0.25,0.524 0.242,0.816 -0.012,0.438 -0.187,0.782 -0.519,1.032 -0.34,0.25 -0.805,0.39 -1.395,0.418 v -0.938 c 0.328,0.004 0.559,-0.035 0.691,-0.129 0.141,-0.093 0.215,-0.238 0.223,-0.429 0.024,-0.496 -0.484,-0.797 -1.519,-0.907 -0.473,-0.047 -0.809,-0.07 -1.008,-0.07 -0.598,-0.012 -0.906,0.152 -0.926,0.496 a 0.622,0.622 0 0 0 0.223,0.527 c 0.156,0.133 0.371,0.219 0.648,0.258 z m 0.433,-4.117 v -1.461 l -1.266,-0.16 v 1.727 l -0.976,-0.129 v -2.664 l 5.293,0.687 v 2.672 l -0.988,-0.125 v -1.738 l -1.118,-0.145 v 1.465 z m -1.266,-4.996 v 1.617 l -0.976,-0.129 v -2.55 l 5.293,0.687 v 0.938 z m 1.266,-1.844 v -1.461 l -1.266,-0.16 v 1.727 l -0.976,-0.129 v -2.664 l 5.293,0.687 v 2.672 l -0.988,-0.125 V 119.5 l -1.118,-0.145 v 1.465 z m -0.808,30.579 c 0.269,0.042 0.48,-0.071 0.628,-0.336 l 0.254,-0.45 c 0.375,-0.629 0.887,-0.925 1.532,-0.894 0.296,0.015 0.558,0.094 0.785,0.23 0.234,0.141 0.418,0.336 0.543,0.586 0.129,0.246 0.187,0.512 0.179,0.805 a 1.181,1.181 0 0 1 -0.453,0.953 c -0.293,0.242 -0.687,0.359 -1.183,0.352 v -0.926 a 0.983,0.983 0 0 0 0.492,-0.098 c 0.117,-0.07 0.183,-0.183 0.191,-0.344 a 0.614,0.614 0 0 0 -0.152,-0.414 0.591,0.591 0 0 0 -0.414,-0.218 c -0.242,-0.032 -0.438,0.105 -0.594,0.41 a 4.93,4.93 0 0 1 -0.394,0.664 c -0.348,0.437 -0.813,0.64 -1.403,0.613 a 1.792,1.792 0 0 1 -0.808,-0.223 1.407,1.407 0 0 1 -0.532,-0.55 1.552,1.552 0 0 1 -0.179,-0.801 c 0.008,-0.215 0.05,-0.41 0.125,-0.594 0.086,-0.183 0.211,-0.344 0.375,-0.476 0.324,-0.262 0.758,-0.387 1.297,-0.379 l -0.012,0.937 c -0.27,-0.012 -0.477,0.028 -0.617,0.121 -0.133,0.086 -0.203,0.235 -0.203,0.446 0,0.156 0.046,0.285 0.14,0.394 a 0.656,0.656 0 0 0 0.403,0.192 z m 2.871,16.855 v -1.152 l -4.305,-0.567 v -0.937 l 4.305,0.57 v -1.144 l 0.988,0.136 v 3.231 z m -1.457,-6.258 v 0.543 c 0,0.149 0.046,0.281 0.14,0.395 a 0.817,0.817 0 0 0 0.403,0.238 c 0.164,0.047 0.328,0.062 0.488,0.039 0.269,-0.035 0.41,-0.168 0.426,-0.391 v -0.632 z M 35.961,161.738 34.09,161.5 v -0.938 l 5.293,0.688 -0.012,1.41 c 0,0.445 -0.137,0.793 -0.414,1.039 -0.281,0.239 -0.664,0.348 -1.148,0.321 -0.383,-0.016 -0.696,-0.098 -0.946,-0.25 a 1.474,1.474 0 0 1 -0.593,-0.606 l -2.118,0.535 H 34.09 v -1 l 1.871,-0.441 z m -0.883,-3.91 -0.988,-0.351 v -1.032 l 5.293,2.11 v 0.883 l -5.293,0.734 v -0.977 l 0.988,-0.093 z m 0.988,0.352 v 0.824 l 1.817,-0.176 z m 2.329,-1.676 v -1.149 l -4.305,-0.57 v -0.937 l 4.305,0.57 v -1.145 l 0.988,0.137 v 3.231 z m 0,0"
     id="path8"
     inkscape:connector-curvature="0"
     style="fill:#4c4c4c" />
  <path
     d="m 66.52,101.977 c -20.321,0 -36.793,-16.45 -36.793,-36.739 0,-20.289 16.472,-36.734 36.793,-36.734 20.324,0 36.796,16.445 36.796,36.734 0,20.289 -16.472,36.739 -36.796,36.739"
     id="path10"
     inkscape:connector-curvature="0"
     style="fill:#999999" />
  <path
     d="m 66.519,101.977 c -20.32,0 -36.793,-16.45 -36.793,-36.739 0,-20.289 16.473,-36.734 36.793,-36.734 20.324,0 36.797,16.445 36.797,36.734 0,20.289 -16.473,36.739 -36.797,36.739"
     id="path12"
     inkscape:connector-curvature="0"
     style="fill:none;stroke:#999999;stroke-width:0.80000001" />
  <path
     d="m 66.524,100.84 c -19.676,0 -35.625,-15.938 -35.625,-35.602 0,-19.66 15.949,-35.597 35.625,-35.597 19.671,0 35.621,15.937 35.621,35.597 0,19.664 -15.95,35.602 -35.621,35.602"
     id="path14"
     inkscape:connector-curvature="0"
     style="fill:#cccccc" />
  <path
     d="m 66.449,301.684 c -32.265,0 -58.422,-26.157 -58.422,-58.422 0,-32.266 26.157,-58.426 58.422,-58.426 32.266,0 58.426,26.16 58.426,58.426 0,32.265 -26.16,58.422 -58.426,58.422"
     id="path16"
     inkscape:connector-curvature="0"
     style="fill:#666666" />
  <path
     d="M 75.742,90.828 V 74.461 h 16.367 c 0.7,0 1.27,-0.574 1.27,-1.273 V 57.289 c 0,-0.699 -0.57,-1.269 -1.27,-1.269 H 75.742 V 39.652 c 0,-0.699 -0.574,-1.273 -1.273,-1.273 H 58.574 c -0.699,0 -1.273,0.574 -1.273,1.273 V 56.02 H 40.934 c -0.7,0 -1.27,0.57 -1.27,1.269 v 15.899 c 0,0.699 0.57,1.273 1.27,1.273 h 16.367 v 16.367 c 0,0.699 0.574,1.27 1.273,1.27 h 15.895 c 0.699,0 1.273,-0.571 1.273,-1.27"
     id="path18"
     inkscape:connector-curvature="0"
     style="fill:#4c4c4c" />
  <path
     d="m 68.191,42.211 c -0.917,-1.617 -2.421,-1.617 -3.339,0 l -3.551,6.269 c -0.918,1.618 -0.492,2.942 0.949,2.942 h 8.543 c 1.441,0 1.867,-1.324 0.949,-2.942 l -3.551,-6.269 c -0.917,-1.617 -2.421,-1.617 -3.339,0 l -3.551,6.269 c -0.918,1.618 -0.492,2.942 0.949,2.942 h 8.543 c 1.441,0 1.867,-1.324 0.949,-2.942 z m 0,45.977 c -0.917,1.617 -2.421,1.617 -3.339,0 L 61.301,81.922 C 60.383,80.301 60.809,78.98 62.25,78.98 h 8.543 c 1.441,0 1.867,1.321 0.949,2.942 l -3.551,6.266 c -0.917,1.617 -2.421,1.617 -3.339,0 L 61.301,81.922 C 60.383,80.301 60.809,78.98 62.25,78.98 h 8.543 c 1.441,0 1.867,1.321 0.949,2.942 z M 89.449,66.906 c 1.617,-0.918 1.617,-2.418 0,-3.336 l -6.265,-3.554 c -1.618,-0.918 -2.942,-0.489 -2.942,0.953 v 8.539 c 0,1.441 1.324,1.867 2.942,0.953 l 6.265,-3.555 c 1.617,-0.918 1.617,-2.418 0,-3.336 l -6.265,-3.554 c -1.618,-0.918 -2.942,-0.489 -2.942,0.953 v 8.539 c 0,1.441 1.324,1.867 2.942,0.953 z M 43.473,66.867 c -1.617,-0.918 -1.617,-2.418 0,-3.336 l 6.269,-3.554 c 1.617,-0.915 2.942,-0.489 2.942,0.953 v 8.539 c 0,1.441 -1.325,1.871 -2.942,0.953 l -6.269,-3.555 c -1.617,-0.918 -1.617,-2.418 0,-3.336 l 6.269,-3.554 c 1.617,-0.915 2.942,-0.489 2.942,0.953 v 8.539 c 0,1.441 -1.325,1.871 -2.942,0.953 z M 58.68,134.918 48.363,121.762 c -3.582,-4.547 2.907,-10.227 6.778,-5.313 l 10.312,13.156 c 3.621,4.704 -3.105,10.083 -6.773,5.313 m 0,33.07 -10.317,-13.156 c -3.582,-4.547 2.907,-10.227 6.778,-5.312 l 10.312,13.156 c 3.621,4.703 -3.105,10.082 -6.773,5.312"
     id="path20"
     inkscape:connector-curvature="0"
     style="fill:#666666" />
  <path
     d="m 108.684,263.316 0.023,-2.148 -3.226,2.711 -3.516,-2.891 0.016,2.02 2.265,1.906 -2.265,1.906 -0.016,2.02 3.516,-2.891 3.226,2.711 -0.023,-2.148 -1.942,-1.598 z m -23.84,26.454 -0.008,1.003 0.008,1.004 -6.649,3.035 -0.007,-1.632 1.668,-0.758 0.019,-3.289 -1.687,-0.766 0.007,-1.633 z m -3.633,2.035 2.273,-1.032 -2.238,-1.015 z M 52.406,194.934 v -1.817 l -3.738,3.008 h -3.07 v 1.586 h 3.086 l 3.722,2.996 v -1.816 L 49.93,196.91 Z m 0,0"
     id="path22"
     inkscape:connector-curvature="0"
     style="fill:#d8d8d8" />
  <path
     d="m 29.145,220.121 v 4.43 h -0.004 c -0.18,2.765 -3.137,2.945 -3.27,0.191 -0.129,3.356 -3.453,3.129 -3.59,-0.191 v -0.016 l -0.004,-0.074 h 0.004 v -4.34 z m -5.598,4.406 c 0.176,1.059 1.375,1.125 1.59,0.024 v -2.664 h -1.59 z m 2.855,-0.023 c 0.43,1.137 1.368,0.656 1.477,0.047 v -2.664 h -1.477 z m 0,0"
     id="path24"
     inkscape:connector-curvature="0"
     style="fill:#cccccc" />
  <path
     d="m 77.945,213.906 c 0,-6.664 -5.418,-12.082 -12.082,-12.082 -6.664,0 -12.082,5.418 -12.082,12.082 0,6.664 5.418,12.082 12.082,12.082 6.664,0 12.082,-5.418 12.082,-12.082 z m -1.023,0 a 11.051,11.051 0 0 1 -11.059,11.059 c -6.113,0 -11.062,-4.945 -11.062,-11.059 0,-6.113 4.949,-11.058 11.062,-11.058 a 11.05,11.05 0 0 1 11.059,11.058 z m 23.875,29.336 c 0,-6.668 -5.414,-12.066 -12.082,-12.066 -6.664,0 -12.078,5.398 -12.078,12.066 0,6.664 5.414,12.082 12.078,12.082 6.668,0 12.082,-5.418 12.082,-12.082 z m -1.02,0 c 0,6.113 -4.949,11.059 -11.062,11.059 -6.109,0 -11.059,-4.946 -11.059,-11.059 0,-6.113 4.95,-11.047 11.059,-11.047 6.113,0 11.062,4.934 11.062,11.047 z m -44.144,0.969 c 0,-6.664 -5.418,-12.082 -12.082,-12.082 -6.668,0 -12.067,5.418 -12.067,12.082 0,6.664 5.399,12.066 12.067,12.066 6.664,0 12.082,-5.402 12.082,-12.066 z m -1.024,0 c 0,6.113 -4.945,11.043 -11.058,11.043 -6.113,0 -11.043,-4.93 -11.043,-11.043 0,-6.113 4.93,-11.059 11.043,-11.059 a 11.051,11.051 0 0 1 11.058,11.059 z m 23.875,29.336 c 0,-6.664 -5.418,-12.082 -12.082,-12.082 -6.664,0 -12.078,5.418 -12.078,12.082 0,6.664 5.414,12.082 12.078,12.082 6.664,0 12.082,-5.418 12.082,-12.082 z m -1.019,0 c 0,6.113 -4.949,11.058 -11.059,11.058 -6.113,0 -11.062,-4.945 -11.062,-11.058 0,-6.113 4.949,-11.059 11.062,-11.059 6.11,0 11.059,4.946 11.059,11.059 z m 0,0"
     id="path26"
     inkscape:connector-curvature="0"
     style="fill:#f4f4f4" />
  <path
     d="m 75.176,284.672 c -6.199,4.832 -15.133,3.73 -19.965,-2.473 L 32.359,252.867 c -4.832,-6.203 -3.714,-15.137 2.489,-19.965 6.203,-4.832 15.133,-3.73 19.965,2.473 l 22.839,29.352 a 14.135,14.135 0 0 1 2.985,7.753 14.198,14.198 0 0 1 -5.461,12.192 z m 0,0"
     id="path28"
     inkscape:connector-curvature="0"
     style="fill:#d8d8d8" />
  <path
     d="m 78.477,273.547 c 0,6.672 -5.399,12.074 -12.075,12.074 -6.671,0 -12.07,-5.402 -12.07,-12.074 0,-6.676 5.399,-12.074 12.07,-12.074 a 12.065,12.065 0 0 1 12.075,12.074 z m 0,0"
     id="path30"
     inkscape:connector-curvature="0"
     style="fill:#eb2d2f" />
  <path
     d="m 97.422,254.473 c -6.203,4.828 -15.133,3.726 -19.965,-2.477 L 54.602,222.664 c -4.828,-6.203 -3.711,-15.137 2.492,-19.965 6.203,-4.832 15.133,-3.73 19.965,2.473 l 22.836,29.351 a 14.153,14.153 0 0 1 2.988,7.754 14.21,14.21 0 0 1 -5.461,12.196 z m 0,0"
     id="path32"
     inkscape:connector-curvature="0"
     style="fill:#d8d8d8" />
  <path
     d="m 100.789,243.25 c 0,6.672 -5.398,12.074 -12.074,12.074 -6.672,0 -12.074,-5.402 -12.074,-12.074 0,-6.672 5.402,-12.074 12.074,-12.074 6.676,0 12.074,5.402 12.074,12.074 z m 0,0"
     id="path34"
     inkscape:connector-curvature="0"
     style="fill:#323b98" />
  <path
     d="m 55.633,244.203 c 0,6.672 -5.402,12.074 -12.074,12.074 -6.676,0 -12.075,-5.402 -12.075,-12.074 0,-6.672 5.399,-12.074 12.075,-12.074 6.672,0 12.074,5.402 12.074,12.074 z m 0,0"
     id="path36"
     inkscape:connector-curvature="0"
     style="fill:#f9ec2b" />
  <path
     d="m 77.938,213.906 c 0,6.672 -5.403,12.074 -12.075,12.074 -6.675,0 -12.074,-5.402 -12.074,-12.074 0,-6.672 5.399,-12.074 12.074,-12.074 6.672,0 12.075,5.402 12.075,12.074 z m 0,0"
     id="path38"
     inkscape:connector-curvature="0"
     style="fill:#01954b" />
  <circle
     cx="66.522003"
     cy="65.239998"
     r="7.335"
     id="circle40"
     style="fill:#595959" />
  <path
     d="m 108.354,113.866 c 0,0 0.066,-0.165 0.066,-0.397 v -2.416 c 0,0 0.165,-0.331 0.629,-0.331 0,0 0.43,0.132 0.43,0.596 v 3.31 h 0.927 v -4.269 c 0,0 -0.033,-0.993 -1.191,-1.258 0,0 -1.655,-0.265 -1.721,1.423 v 2.151 c 0,0 -0.066,0.695 -0.629,0.629 0,0 -0.496,-0.099 -0.463,-0.53 v -3.376 h -0.993 v 3.872 c 0,0 -0.165,1.456 1.291,1.688 -0.001,0 1.422,0.166 1.654,-1.092 z m -1.92,5.593 v -1.787 c 0,0 0.099,-0.728 0.662,-0.728 h 3.31 v -1.456 h -3.674 c 0,0 -1.324,0.397 -1.324,1.522 v 3.905 h 5.031 v -1.456 z m 4.038,6.454 v -4.137 h -5.064 v 1.423 h 1.721 v 2.482 c 0.199,1.688 1.688,1.622 1.688,1.622 1.523,-0.132 1.655,-1.39 1.655,-1.39 z m -2.35,-0.86 v -1.82 h 1.357 v 1.92 c 0,0.53 -0.629,0.629 -0.629,0.629 -0.893,-0.167 -0.728,-0.729 -0.728,-0.729 z m -0.231,2.747 c 0,0 -2.118,-0.265 -2.482,2.085 v 3.012 h 1.026 v -2.615 c 0,0 0,-0.794 1.059,-0.927 v 3.574 h 0.96 v -3.541 c 0,0 0.86,0.066 1.026,0.993 v 2.548 h 1.026 v -3.111 c -0.001,0 -0.2,-2.018 -2.615,-2.018 z m 0.959,11.683 c 1.456,0 1.622,-1.522 1.622,-1.522 v -4.236 h -5.064 v 1.489 h 1.886 v 1.456 l -1.853,1.258 v 1.688 l 1.92,-1.456 c 0.265,1.389 1.489,1.323 1.489,1.323 z m -0.662,-2.615 v -1.655 h 1.291 v 1.721 c 0,0 0.099,0.927 -0.662,0.927 0,0 -0.629,0.099 -0.629,-0.993 z m 0.398,6.023 h -3.21 v 1.456 h 1.986 v 3.641 h 1.059 v -3.574 h 0.265 c 0.563,0.099 0.794,0.993 0.794,0.993 v 2.648 h 0.927 v -3.111 c -10e-4,-1.788 -1.821,-2.053 -1.821,-2.053 z m 1.82,9.3 v -3.343 h -0.96 v 2.648 c 0,0.993 -0.993,1.092 -0.993,1.092 v -2.482 c -0.066,-1.688 -1.556,-1.655 -1.556,-1.655 -1.589,0 -1.555,1.754 -1.555,1.754 v 3.905 h 2.846 c 2.019,10e-4 2.218,-1.919 2.218,-1.919 z m -4.071,0.431 v -2.019 c 0,0 0.033,-0.53 0.596,-0.53 0,0 0.563,0.066 0.563,0.596 l -0.033,1.953 z m 4.071,8.108 v -5.792 h -5.031 l -0.033,1.522 h 4.038 v 1.324 h -4.071 v 1.489 h 4.038 v 0.64 c -0.022,0.794 -0.629,0.916 -0.629,0.916 h -3.376 v 1.423 h 3.276 c 1.622,10e-4 1.788,-1.522 1.788,-1.522 z m -5.031,2.416 v 1.589 h 4.997 v -1.589 z m 2.549,2.284 c -2.482,0 -2.615,2.085 -2.615,2.085 v 2.945 h 0.993 v -2.515 c 0.199,-1.125 1.522,-0.993 1.522,-0.993 1.655,0 1.522,1.059 1.522,1.059 v 2.482 h 1.026 v -3.078 c -0.264,-1.985 -2.448,-1.985 -2.448,-1.985 z m 2.515,8.572 c 0,0 0.166,-2.714 -2.118,-3.078 0,0 -1.886,-0.298 -2.648,1.026 0,0 -1.225,1.886 -0.033,4.071 0,0 0.728,1.456 2.912,1.092 0,0 1.986,-0.431 1.887,-3.111 z m -4.303,0.066 c 0,0 -0.199,-1.886 1.688,-1.721 0,0 1.721,-0.165 1.721,1.622 0,0 0.199,1.754 -1.721,1.754 0,0 -1.688,0.165 -1.688,-1.655 z m 4.17,9.598 v -5.792 h -5.031 l -0.033,1.522 h 4.038 v 1.324 h -4.071 v 1.489 h 4.038 v 0.64 c -0.022,0.794 -0.629,0.916 -0.629,0.916 h -3.376 v 1.423 h 3.276 c 1.623,0 1.788,-1.522 1.788,-1.522 z m 10.612,-74.438 v 2.223 l -5.119,3.074 5.119,-0.001 v 2.204 h -7.342 v -2.201 l 5.119,-3.089 h -5.119 v -2.209 z m -0.756,19.484 v 2.147 h -0.988 v 1.161 h -0.726 v -1.161 l -4.872,0.002 v -2.149 l 4.872,0.001 v -1.165 h 0.724 l 0.002,1.165 z m -1.704,-10.757 v 2.145 h -4.883 v -2.145 z m 2.462,-0.006 v 2.15 h -1.502 v -2.15 z m -2.13,37.584 c 0,-1.731 -1.225,-3.134 -2.74,-3.134 -1.513,0 -2.741,1.403 -2.741,3.134 0,1.732 1.228,3.133 2.741,3.133 1.514,0 2.74,-1.401 2.74,-3.133 m -2.733,0.861 -1.034,-0.002 c -0.778,0 -1.098,-0.446 -1.098,-0.877 0,-0.43 0.32,-0.879 1.098,-0.879 l 1.053,0.001 1.016,0.001 c 0.776,0 1.094,0.451 1.094,0.877 0,0.428 -0.318,0.877 -1.094,0.877 -0.296,0 -0.843,-0.001 -1.038,0.002 z m -0.016,-6.795 h 0.873 c 0.755,0 0.947,-0.507 0.947,-0.84 0,-0.342 -0.191,-0.841 -0.947,-0.841 h -1.738 c -0.757,0 -0.951,0.499 -0.951,0.841 0,0.333 0.194,0.84 0.951,0.84 z m 4.877,-0.014 v 2.115 h -7.341 v -2.12 l 0.281,-0.001 c -0.528,-0.82 -0.528,-1.746 -0.184,-2.469 a 2.608,2.608 0 0 1 2.423,-1.465 c 1.288,0 2.696,1.179 2.555,2.726 -0.046,0.509 -0.237,0.87 -0.437,1.214 z m -2.235,-24.466 c 0.024,0.803 -0.516,2.427 -2.448,2.417 -0.345,-0.002 -2.657,-0.001 -2.657,-0.001 v -2.129 h 3.206 c 0.426,0 0.898,-0.395 0.898,-0.981 0,-0.584 -0.472,-1.018 -0.898,-1.018 l -3.206,0.002 v -2.128 l 4.881,-0.002 0.002,2.13 c 0,0 -0.392,-0.002 -0.514,0 a 2.55,2.55 0 0 1 0.736,1.71 m 0,17.426 c 0.024,0.802 -0.516,2.429 -2.448,2.418 -0.345,-0.002 -2.657,0 -2.657,0 v -2.132 h 3.206 c 0.426,0 0.898,-0.395 0.898,-0.981 0,-0.584 -0.472,-1.017 -0.898,-1.017 l -3.206,0.002 v -2.128 h 4.881 l 0.002,2.128 c 0,0 -0.392,-0.002 -0.514,0 0.402,0.41 0.716,1.001 0.736,1.71 m -3.398,-6.746 -0.297,0.001 c -0.893,0 -1.092,-0.57 -1.092,-0.887 0,-0.316 0.199,-0.898 1.092,-0.898 l 1.007,0.002 c 0,0 -0.002,4.039 0.002,4.039 1.513,0 2.766,-1.42 2.766,-3.163 0,-1.743 -1.225,-3.157 -2.741,-3.157 -1.515,0 -2.74,1.413 -2.74,3.157 0,1.447 0.85,2.67 2.003,3.042 z m 1.472,-1.781 c 0.427,-0.004 0.713,0.004 0.957,0.141 a 0.871,0.871 0 0 1 0.446,0.755 0.868,0.868 0 0 1 -0.446,0.752 c -0.244,0.136 -0.529,0.144 -0.957,0.141 z m -5.875,-40.753 c -1.082,0 -1.957,-1.957 -1.957,-4.375 0,-2.418 0.875,-4.379 1.957,-4.379 1.078,0 1.957,1.961 1.957,4.379 0,2.418 -0.879,4.375 -1.957,4.375 m -3.242,7.836 c -1.082,0 -1.957,-1.957 -1.957,-4.375 0,-2.418 0.875,-4.379 1.957,-4.379 1.082,0 1.957,1.961 1.957,4.379 0,2.418 -0.875,4.375 -1.957,4.375 m 2.086,0.527 c 2.191,-0.527 4.613,-2.438 3.558,-4.902 4.633,2.007 3.895,5.796 2.317,7.113 -1.231,1.027 -5.438,1 -5.875,-2.211 m 3.543,-7.715 c 2.191,-0.523 4.613,-2.434 3.558,-4.902 4.633,2.008 3.899,5.801 2.317,7.113 -1.231,1.027 -5.438,1.004 -5.875,-2.211"
     id="path42"
     inkscape:connector-curvature="0"
     style="fill:#4c4c4c" />
</svg>
