<?xml version="1.0" encoding="UTF-8" standalone="no"?>
<svg
   xmlns:dc="http://purl.org/dc/elements/1.1/"
   xmlns:cc="http://creativecommons.org/ns#"
   xmlns:rdf="http://www.w3.org/1999/02/22-rdf-syntax-ns#"
   xmlns:svg="http://www.w3.org/2000/svg"
   xmlns="http://www.w3.org/2000/svg"
   xmlns:sodipodi="http://sodipodi.sourceforge.net/DTD/sodipodi-0.dtd"
   xmlns:inkscape="http://www.inkscape.org/namespaces/inkscape"
   viewBox="0 0 497.41101 505.00101"
   version="1.1"
   id="svg207"
   sodipodi:docname="console.svg"
   width="497.41101"
   height="505.00101"
   inkscape:version="0.92.4 5da689c313, 2019-01-14">
  <metadata
     id="metadata213">
    <rdf:RDF>
      <cc:Work
         rdf:about="">
        <dc:format>image/svg+xml</dc:format>
        <dc:type
           rdf:resource="http://purl.org/dc/dcmitype/StillImage" />
      </cc:Work>
    </rdf:RDF>
  </metadata>
  <defs
     id="defs211" />
  <sodipodi:namedview
     pagecolor="#ffffff"
     bordercolor="#666666"
     borderopacity="1"
     objecttolerance="10"
     gridtolerance="10"
     guidetolerance="10"
     inkscape:pageopacity="0"
     inkscape:pageshadow="2"
     inkscape:window-width="640"
     inkscape:window-height="480"
     id="namedview209"
     showgrid="false"
     inkscape:zoom="0.46732673"
     inkscape:cx="248.705"
     inkscape:cy="252.501"
     inkscape:window-x="0"
     inkscape:window-y="0"
     inkscape:window-maximized="0"
     inkscape:current-layer="svg207" />
  <path
     d="m 248.705,497 h 37.307 c 4.709,0 9.413,0.287 14.089,0.859 l 56.552,6.923 c 1.182,0.145 2.372,0.217 3.563,0.217 h 75.479 c 2.208,0 4.4,-0.276 6.542,-0.825 8.593,-2.203 31.722,-8.675 45.421,-17.675 8.122,-5.336 9.564,-22.638 9.734,-25.186 0.013,-0.199 0.019,-0.399 0.019,-0.599 v -204.24 c 0,-2.149 -0.704,-4.258 -2.084,-5.876 -2.619,-3.072 -4.255,-7.408 -4.255,-12.223 0,-4.816 1.636,-9.152 4.255,-12.223 1.38,-1.618 2.084,-3.727 2.084,-5.876 0,-2.149 -0.704,-4.258 -2.084,-5.876 -2.619,-3.072 -4.255,-7.408 -4.255,-12.223 0,-4.815 1.636,-9.152 4.255,-12.223 1.38,-1.618 2.084,-3.727 2.084,-5.876 0,-2.149 -0.704,-4.258 -2.084,-5.876 -2.619,-3.072 -4.255,-7.408 -4.255,-12.223 0,-4.816 1.636,-9.152 4.255,-12.223 1.38,-1.618 2.084,-3.727 2.084,-5.876 0,-2.149 -0.704,-4.258 -2.084,-5.876 -2.619,-3.072 -4.255,-7.408 -4.255,-12.223 0,-4.816 1.636,-9.152 4.255,-12.223 1.38,-1.618 2.084,-3.727 2.084,-5.876 0,-2.149 -0.704,-4.258 -2.084,-5.876 -2.619,-3.072 -4.255,-7.408 -4.255,-12.223 0,-4.816 1.636,-9.152 4.255,-12.223 1.38,-1.618 2.084,-3.727 2.084,-5.876 0,-2.149 -0.704,-4.258 -2.084,-5.876 -2.619,-3.072 -4.255,-7.408 -4.255,-12.223 0,-4.816 1.636,-9.152 4.255,-12.223 1.38,-1.618 2.084,-3.727 2.084,-5.876 V 24.006 C 497.41,10.744 486.931,0 474.004,0 H 23.406 C 10.479,0 0,10.744 0,23.998 v 15.28 c 0,2.149 0.704,4.258 2.084,5.876 2.619,3.072 4.255,7.408 4.255,12.223 0,4.816 -1.636,9.152 -4.255,12.223 C 0.704,71.22 0,73.329 0,75.478 c 0,2.149 0.704,4.258 2.084,5.876 2.619,3.072 4.255,7.408 4.255,12.223 0,4.816 -1.636,9.152 -4.255,12.223 -1.38,1.619 -2.084,3.728 -2.084,5.877 0,2.149 0.704,4.258 2.084,5.876 2.619,3.072 4.255,7.408 4.255,12.223 0,4.816 -1.636,9.152 -4.255,12.223 -1.38,1.62 -2.084,3.729 -2.084,5.878 0,2.149 0.704,4.258 2.084,5.876 2.619,3.072 4.255,7.408 4.255,12.223 0,4.816 -1.636,9.152 -4.255,12.223 -1.38,1.62 -2.084,3.728 -2.084,5.878 0,2.149 0.704,4.258 2.084,5.876 2.619,3.072 4.255,7.408 4.255,12.223 0,4.815 -1.636,9.152 -4.255,12.223 -1.38,1.619 -2.084,3.728 -2.084,5.877 0,2.149 0.704,4.258 2.084,5.876 2.619,3.072 4.255,7.408 4.255,12.223 0,4.816 -1.636,9.152 -4.255,12.223 C 0.704,252.218 0,254.326 0,256.476 v 204.24 c 0,0.2 0.006,0.399 0.019,0.599 0.17,2.548 1.612,19.849 9.734,25.186 13.699,9 36.828,15.472 45.421,17.675 2.142,0.549 4.334,0.825 6.542,0.825 h 75.479 c 1.191,0 2.381,-0.073 3.563,-0.217 l 56.552,-6.923 c 4.676,-0.572 9.38,-0.859 14.089,-0.859 h 37.306 z"
     id="path2"
     inkscape:connector-curvature="0"
     style="fill:#24241e" />
  <linearGradient
     id="a"
     gradientUnits="userSpaceOnUse"
     x1="41.259998"
     y1="281.41699"
     x2="456.327"
     y2="281.41699">
    <stop
       offset="0"
       stop-color="#24241e"
       id="stop4" />
    <stop
       offset=".136"
       stop-color="#292922"
       id="stop6" />
    <stop
       offset=".89"
       stop-color="#292922"
       id="stop8" />
    <stop
       offset="1"
       stop-color="#24241e"
       id="stop10" />
  </linearGradient>
  <path
     d="m 40.682,129.5 -5.422,272 217.171,31.833 207.143,-31.833 -2.846,-272 z"
     id="path13"
     inkscape:connector-curvature="0"
     style="fill:url(#a)" />
  <path
     stroke-miterlimit="10"
     d="M 380.703,0 V 26 H 114.131 V 0"
     id="path15"
     inkscape:connector-curvature="0"
     style="fill:none;stroke:#1a1a16;stroke-width:3;stroke-miterlimit:10" />
  <ellipse
     transform="rotate(-17.794)"
     cx="-88.619568"
     cy="454.64508"
     rx="26.309"
     ry="26.676001"
     id="ellipse17"
     style="fill:#2b2b2b" />
  <ellipse
     cx="53.827999"
     cy="459.33301"
     rx="25.632999"
     ry="26"
     id="ellipse19"
     style="fill:#080605" />
  <ellipse
     cx="53.827999"
     cy="459.33301"
     rx="21.702"
     ry="22.013"
     id="ellipse21"
     style="fill:#414242" />
  <ellipse
     transform="rotate(-0.5213772)"
     cx="49.485775"
     cy="459.00894"
     rx="20.704857"
     ry="20.910866"
     id="ellipse23"
     style="fill:#939494;stroke-width:1.00004137" />
  <ellipse
     cx="53.827999"
     cy="459.33301"
     rx="20.704"
     ry="21"
     id="ellipse25"
     style="fill:#626363" />
  <ellipse
     cx="248.705"
     cy="465.479"
     rx="4.9549999"
     ry="5.1719999"
     id="ellipse27"
     style="fill:#262624" />
  <path
     stroke-miterlimit="10"
     d="M 383.168,0 V 99 H 111.667 V 0"
     id="path29"
     inkscape:connector-curvature="0"
     style="fill:none;stroke:#171717;stroke-width:3;stroke-miterlimit:10" />
  <path
     d="m 111.667,0 h 2.465 v 99 h -2.465 z m 269.036,0 h 2.465 v 99 h -2.465 z"
     id="path31"
     inkscape:connector-curvature="0"
     style="fill:#24241e" />
  <path
     d="m 382.79,410.195 c 4.02,-0.646 7.443,-2.579 9.718,-5.425 -45.501,2.02 -104.526,4.23 -145.09,4.23 -39.773,0 -97.297,-2.124 -142.416,-4.111 2.274,2.78 5.655,4.67 9.619,5.307 23.804,3.824 77.588,11.305 134.085,11.305 56.495,-10e-4 110.28,-7.482 134.084,-11.306 z"
     stroke-miterlimit="10"
     id="path33"
     inkscape:connector-curvature="0"
     style="fill:none;stroke:#363633;stroke-width:2;stroke-miterlimit:10" />
  <path
     d="m 104.732,135.345 -2.783,260.627 c -0.082,7.562 5.307,13.039 12.671,14.223 23.804,3.824 77.588,11.305 134.085,11.305 56.497,0 110.281,-7.481 134.085,-11.305 7.364,-1.183 12.753,-6.66 12.671,-14.223 L 392.678,135.345 C 352.321,137.725 248.705,140 248.705,140 c 0,0 -103.616,-2.275 -143.973,-4.655 z"
     stroke-miterlimit="10"
     id="path35"
     inkscape:connector-curvature="0"
     style="fill:none;stroke:#30302d;stroke-width:4;stroke-miterlimit:10" />
  <path
     d="m 104.732,135.345 -2.783,260.627 c -0.082,7.562 5.307,13.039 12.671,14.223 23.804,3.824 77.588,11.305 134.085,11.305 56.497,0 110.281,-7.481 134.085,-11.305 7.364,-1.183 12.753,-6.66 12.671,-14.223 L 392.678,135.345 C 352.321,137.725 248.705,140 248.705,140 c 0,0 -103.616,-2.275 -143.973,-4.655 z"
     stroke-miterlimit="10"
     id="path37"
     inkscape:connector-curvature="0"
     style="fill:none;stroke:#1c1c1a;stroke-width:2;stroke-miterlimit:10" />
  <path
     d="m 248.705,140 c 0,0 113.87,-2.5 149.362,-5 35.492,-2.5 36.478,-5.5 58.661,-5.5 H 40.682 c 22.183,0 23.168,3 58.661,5.5 35.493,2.5 149.362,5 149.362,5 z"
     id="path39"
     inkscape:connector-curvature="0"
     style="fill:#2e2e29" />
  <linearGradient
     id="b"
     gradientUnits="userSpaceOnUse"
     x1="247.41701"
     y1="43.5"
     x2="247.41701"
     y2="27.968">
    <stop
       offset=".527"
       stop-color="#181a14"
       id="stop41" />
    <stop
       offset=".805"
       stop-color="#1c1e18"
       id="stop43" />
    <stop
       offset="1"
       stop-color="#24241e"
       id="stop45" />
  </linearGradient>
  <path
     d="m 380.703,40.6 1.232,-13.523 H 112.899 l 1.232,13.523 z"
     id="path48"
     inkscape:connector-curvature="0"
     style="fill:url(#b)" />
  <path
     d="m 112.899,26 h 269.036 v 1.077 H 112.899 Z"
     id="path50"
     inkscape:connector-curvature="0"
     style="fill:#303030" />
  <linearGradient
     id="c"
     gradientUnits="userSpaceOnUse"
     x1="247.41701"
     y1="56"
     x2="247.41701"
     y2="41.362999">
    <stop
       offset=".527"
       stop-color="#181a14"
       id="stop52" />
    <stop
       offset=".805"
       stop-color="#1c1e18"
       id="stop54" />
    <stop
       offset="1"
       stop-color="#24241e"
       id="stop56" />
  </linearGradient>
  <path
     d="m 380.703,55.2 1.232,-13.523 H 112.899 l 1.232,13.523 z"
     id="path59"
     inkscape:connector-curvature="0"
     style="fill:url(#c)" />
  <path
     d="m 112.899,40.6 h 269.036 v 1.077 H 112.899 Z"
     id="path61"
     inkscape:connector-curvature="0"
     style="fill:#303030" />
  <linearGradient
     id="d"
     gradientUnits="userSpaceOnUse"
     x1="247.41701"
     y1="72.5"
     x2="247.41701"
     y2="56.306">
    <stop
       offset=".527"
       stop-color="#181a14"
       id="stop63" />
    <stop
       offset=".805"
       stop-color="#1c1e18"
       id="stop65" />
    <stop
       offset="1"
       stop-color="#24241e"
       id="stop67" />
  </linearGradient>
  <path
     d="m 380.703,69.8 1.232,-13.523 H 112.899 l 1.232,13.523 z"
     id="path70"
     inkscape:connector-curvature="0"
     style="fill:url(#d)" />
  <path
     d="m 112.899,55.2 h 269.036 v 1.077 H 112.899 Z"
     id="path72"
     inkscape:connector-curvature="0"
     style="fill:#303030" />
  <linearGradient
     id="e"
     gradientUnits="userSpaceOnUse"
     x1="247.41701"
     y1="87.5"
     x2="247.41701"
     y2="72.425003">
    <stop
       offset=".527"
       stop-color="#181a14"
       id="stop74" />
    <stop
       offset=".805"
       stop-color="#1c1e18"
       id="stop76" />
    <stop
       offset="1"
       stop-color="#24241e"
       id="stop78" />
  </linearGradient>
  <path
     d="m 380.703,84.4 1.232,-13.523 H 112.899 l 1.232,13.523 z"
     id="path81"
     inkscape:connector-curvature="0"
     style="fill:url(#e)" />
  <path
     d="m 112.899,69.8 h 269.036 v 1.077 H 112.899 Z"
     id="path83"
     inkscape:connector-curvature="0"
     style="fill:#303030" />
  <linearGradient
     id="f"
     gradientUnits="userSpaceOnUse"
     x1="247.41701"
     y1="104"
     x2="247.41701"
     y2="86">
    <stop
       offset=".527"
       stop-color="#181a14"
       id="stop85" />
    <stop
       offset=".805"
       stop-color="#1c1e18"
       id="stop87" />
    <stop
       offset="1"
       stop-color="#24241e"
       id="stop89" />
  </linearGradient>
  <path
     d="m 380.703,99 1.232,-13.523 H 112.899 L 114.131,99 Z"
     id="path92"
     inkscape:connector-curvature="0"
     style="fill:url(#f)" />
  <path
     d="m 112.899,84.4 h 269.036 v 1.077 H 112.899 Z"
     id="path94"
     inkscape:connector-curvature="0"
     style="fill:#303030" />
  <linearGradient
     id="g"
     gradientUnits="userSpaceOnUse"
     x1="105.001"
     y1="454.88501"
     x2="392.50699"
     y2="454.88501">
    <stop
       offset="0"
       stop-color="#24241e"
       id="stop96" />
    <stop
       offset=".13"
       stop-color="#1c1e1a"
       id="stop98" />
    <stop
       offset=".5"
       stop-color="#292922"
       id="stop100" />
    <stop
       offset=".87"
       stop-color="#1c1e1a"
       id="stop102" />
    <stop
       offset="1"
       stop-color="#24241e"
       id="stop104" />
  </linearGradient>
  <path
     d="m 105.002,404.77 c 2.274,2.78 5.655,4.788 9.619,5.425 23.804,3.824 77.588,11.305 134.085,11.305 56.496,0 110.281,-7.481 134.085,-11.305 4.02,-0.646 7.443,-2.579 9.718,-5.425 V 505 h -32.291 c -1.191,0 -2.381,-0.073 -3.563,-0.217 l -56.552,-6.923 c -4.676,-0.572 -9.38,-0.859 -14.089,-0.859 H 211.4 c -4.709,0 -9.413,0.287 -14.089,0.859 l -56.552,6.923 A 29.263,29.263 0 0 1 137.196,505 H 105.004 V 404.77 Z"
     id="path107"
     inkscape:connector-curvature="0"
     style="fill:url(#g)" />
  <path
     d="m 248.705,453.5 c 0,0 47.742,1 78.774,-8.226 31.032,-9.226 39.387,-14.613 59.677,-20.484 20.29,-5.871 71.161,-22.29 71.161,-22.29 0,0 -140.387,3 -209.613,3 -69.226,0 -210.613,-3 -210.613,-3 0,0 51.871,16.419 72.161,22.29 20.29,5.871 28.645,11.258 59.677,20.484 31.032,9.226 78.776,8.226 78.776,8.226 z"
     id="path109"
     inkscape:connector-curvature="0"
     style="fill:#191c16" />
  <g
     id="g113"
     style="fill:#898a8a">
    <path
       d="m 42.096,457.13 c 0.357,0 0.661,0.052 0.912,0.156 0.25,0.104 0.455,0.241 0.612,0.412 0.157,0.17 0.272,0.365 0.344,0.584 a 2.16,2.16 0 0 1 0,1.356 c -0.072,0.222 -0.187,0.417 -0.344,0.588 -0.157,0.171 -0.361,0.309 -0.612,0.412 a 2.381,2.381 0 0 1 -0.912,0.156 h -1.32 v 2.048 H 39.52 v -5.56 a 0.15,0.15 0 0 1 0.151,-0.151 h 2.425 z m -0.344,2.688 c 0.144,0 0.282,-0.01 0.416,-0.031 a 0.975,0.975 0 0 0 0.352,-0.124 0.669,0.669 0 0 0 0.244,-0.261 c 0.062,-0.111 0.092,-0.258 0.092,-0.439 0,-0.181 -0.031,-0.328 -0.092,-0.44 a 0.687,0.687 0 0 0 -0.244,-0.26 0.95,0.95 0 0 0 -0.352,-0.124 2.677,2.677 0 0 0 -0.416,-0.032 h -0.976 v 1.712 h 0.976 z m 3.048,-0.995 c 0.128,-0.365 0.312,-0.685 0.552,-0.956 0.24,-0.272 0.535,-0.485 0.884,-0.641 a 2.896,2.896 0 0 1 1.18,-0.231 c 0.443,0 0.837,0.077 1.184,0.231 0.347,0.155 0.64,0.368 0.88,0.641 0.24,0.271 0.424,0.591 0.552,0.956 0.128,0.365 0.192,0.761 0.192,1.188 0,0.416 -0.064,0.804 -0.192,1.164 -0.128,0.36 -0.312,0.674 -0.552,0.94 a 2.53,2.53 0 0 1 -0.88,0.628 2.938,2.938 0 0 1 -1.184,0.228 c -0.437,0 -0.831,-0.076 -1.18,-0.228 a 2.518,2.518 0 0 1 -0.884,-0.628 c -0.24,-0.267 -0.424,-0.58 -0.552,-0.94 -0.128,-0.36 -0.192,-0.748 -0.192,-1.164 0,-0.428 0.064,-0.823 0.192,-1.188 z m 1.148,1.887 c 0.056,0.227 0.145,0.431 0.268,0.612 0.123,0.181 0.283,0.326 0.48,0.436 0.197,0.11 0.437,0.164 0.72,0.164 0.283,0 0.523,-0.055 0.72,-0.164 0.197,-0.109 0.357,-0.255 0.48,-0.436 0.123,-0.182 0.212,-0.386 0.268,-0.612 0.056,-0.226 0.084,-0.46 0.084,-0.7 0,-0.251 -0.028,-0.493 -0.084,-0.728 a 1.954,1.954 0 0 0 -0.268,-0.629 c -0.123,-0.184 -0.283,-0.33 -0.48,-0.439 -0.197,-0.109 -0.438,-0.164 -0.72,-0.164 -0.282,0 -0.522,0.055 -0.72,0.164 -0.198,0.109 -0.357,0.256 -0.48,0.439 a 1.932,1.932 0 0 0 -0.268,0.629 3.12,3.12 0 0 0 0,1.428 z m 9.324,2.132 -0.968,-3.888 h -0.016 l -0.923,3.772 a 0.15,0.15 0 0 1 -0.147,0.115 h -1.037 a 0.15,0.15 0 0 1 -0.146,-0.113 l -1.482,-5.599 h 1.256 l 0.904,3.888 h 0.016 l 0.992,-3.888 h 1.176 l 0.976,3.936 h 0.016 l 0.936,-3.936 h 1.232 l -1.536,5.712 h -1.249 z m 7.632,-5.712 v 1.056 h -3.016 v 1.225 h 2.768 v 0.976 h -2.768 v 1.4 h 3.08 v 1.056 h -4.185 a 0.15,0.15 0 0 1 -0.151,-0.151 v -5.409 a 0.15,0.15 0 0 1 0.151,-0.151 h 4.121 z m 3.992,0 c 0.256,0 0.487,0.041 0.692,0.124 0.205,0.083 0.381,0.196 0.528,0.34 0.146,0.145 0.259,0.311 0.336,0.5 0.077,0.189 0.116,0.394 0.116,0.612 0,0.336 -0.071,0.627 -0.212,0.872 -0.141,0.245 -0.372,0.432 -0.692,0.56 v 0.016 a 0.969,0.969 0 0 1 0.632,0.509 c 0.064,0.12 0.11,0.252 0.14,0.396 0.029,0.145 0.049,0.288 0.06,0.433 0.005,0.09 0.011,0.197 0.016,0.319 0.005,0.123 0.015,0.248 0.028,0.376 0.013,0.128 0.035,0.25 0.064,0.364 0.029,0.114 0.073,0.212 0.132,0.292 H 67.48 a 2.228,2.228 0 0 1 -0.128,-0.648 c -0.016,-0.25 -0.04,-0.49 -0.072,-0.72 -0.043,-0.299 -0.133,-0.517 -0.272,-0.656 -0.139,-0.139 -0.366,-0.208 -0.68,-0.208 h -1.256 v 2.232 h -1.256 v -5.56 a 0.15,0.15 0 0 1 0.151,-0.151 h 2.929 z m -0.448,2.584 c 0.288,0 0.504,-0.064 0.648,-0.192 0.144,-0.128 0.216,-0.336 0.216,-0.624 0,-0.277 -0.072,-0.479 -0.216,-0.604 -0.144,-0.125 -0.36,-0.188 -0.648,-0.188 h -1.376 v 1.608 z"
       id="path111"
       inkscape:connector-curvature="0" />
  </g>
  <g
     id="g117">
    <path
       d="m 41.92,456.955 c 0.357,0 0.661,0.052 0.912,0.156 0.25,0.104 0.455,0.241 0.612,0.412 0.157,0.17 0.272,0.365 0.344,0.584 a 2.16,2.16 0 0 1 0,1.356 c -0.072,0.222 -0.187,0.417 -0.344,0.588 -0.157,0.171 -0.361,0.309 -0.612,0.412 a 2.381,2.381 0 0 1 -0.912,0.156 H 40.6 v 2.048 h -1.256 v -5.56 a 0.15,0.15 0 0 1 0.151,-0.151 h 2.425 z m -0.344,2.688 c 0.144,0 0.282,-0.01 0.416,-0.031 a 0.975,0.975 0 0 0 0.352,-0.124 0.669,0.669 0 0 0 0.244,-0.261 c 0.062,-0.111 0.092,-0.258 0.092,-0.439 0,-0.181 -0.031,-0.328 -0.092,-0.44 a 0.687,0.687 0 0 0 -0.244,-0.26 0.95,0.95 0 0 0 -0.352,-0.124 2.677,2.677 0 0 0 -0.416,-0.032 H 40.6 v 1.712 h 0.976 z m 3.048,-0.996 c 0.128,-0.365 0.312,-0.685 0.552,-0.956 0.24,-0.272 0.535,-0.485 0.884,-0.641 a 2.896,2.896 0 0 1 1.18,-0.231 c 0.443,0 0.837,0.077 1.184,0.231 0.347,0.155 0.64,0.368 0.88,0.641 0.24,0.271 0.424,0.591 0.552,0.956 0.128,0.365 0.192,0.761 0.192,1.188 0,0.416 -0.064,0.804 -0.192,1.164 -0.128,0.36 -0.312,0.674 -0.552,0.94 a 2.53,2.53 0 0 1 -0.88,0.628 2.938,2.938 0 0 1 -1.184,0.228 c -0.437,0 -0.831,-0.076 -1.18,-0.228 a 2.518,2.518 0 0 1 -0.884,-0.628 c -0.24,-0.267 -0.424,-0.58 -0.552,-0.94 -0.128,-0.36 -0.192,-0.748 -0.192,-1.164 0,-0.427 0.064,-0.822 0.192,-1.188 z m 1.148,1.888 c 0.056,0.227 0.145,0.431 0.268,0.612 0.123,0.181 0.283,0.326 0.48,0.436 0.197,0.11 0.437,0.164 0.72,0.164 0.283,0 0.523,-0.055 0.72,-0.164 0.197,-0.109 0.357,-0.255 0.48,-0.436 0.123,-0.182 0.212,-0.386 0.268,-0.612 0.056,-0.226 0.084,-0.46 0.084,-0.7 0,-0.251 -0.028,-0.493 -0.084,-0.728 a 1.954,1.954 0 0 0 -0.268,-0.629 c -0.123,-0.184 -0.283,-0.33 -0.48,-0.439 -0.197,-0.109 -0.438,-0.164 -0.72,-0.164 -0.282,0 -0.522,0.055 -0.72,0.164 -0.198,0.109 -0.357,0.256 -0.48,0.439 a 1.932,1.932 0 0 0 -0.268,0.629 3.12,3.12 0 0 0 0,1.428 z m 9.324,2.132 -0.968,-3.888 h -0.016 l -0.923,3.772 a 0.15,0.15 0 0 1 -0.147,0.115 h -1.037 a 0.15,0.15 0 0 1 -0.146,-0.113 l -1.482,-5.599 h 1.256 l 0.904,3.888 h 0.016 l 0.992,-3.888 h 1.176 l 0.976,3.936 h 0.016 l 0.936,-3.936 h 1.232 l -1.536,5.712 h -1.249 z m 7.632,-5.712 v 1.056 h -3.016 v 1.225 h 2.768 v 0.976 h -2.768 v 1.4 h 3.08 v 1.056 h -4.185 a 0.15,0.15 0 0 1 -0.151,-0.151 v -5.409 a 0.15,0.15 0 0 1 0.151,-0.151 h 4.121 z m 3.992,0 c 0.256,0 0.487,0.041 0.692,0.124 0.205,0.083 0.381,0.196 0.528,0.34 0.146,0.145 0.259,0.311 0.336,0.5 0.077,0.189 0.116,0.394 0.116,0.612 0,0.336 -0.071,0.627 -0.212,0.872 -0.141,0.245 -0.372,0.432 -0.692,0.56 v 0.016 a 0.969,0.969 0 0 1 0.632,0.509 c 0.064,0.12 0.11,0.252 0.14,0.396 0.029,0.145 0.049,0.288 0.06,0.433 0.005,0.09 0.011,0.197 0.016,0.319 0.005,0.123 0.015,0.248 0.028,0.376 0.013,0.128 0.035,0.25 0.064,0.364 0.029,0.114 0.073,0.212 0.132,0.292 h -1.256 a 2.228,2.228 0 0 1 -0.128,-0.648 c -0.016,-0.25 -0.04,-0.49 -0.072,-0.72 -0.043,-0.299 -0.133,-0.517 -0.272,-0.656 -0.139,-0.139 -0.366,-0.208 -0.68,-0.208 h -1.256 v 2.232 H 63.64 v -5.56 a 0.15,0.15 0 0 1 0.151,-0.151 h 2.929 z m -0.448,2.584 c 0.288,0 0.504,-0.064 0.648,-0.192 0.144,-0.128 0.216,-0.336 0.216,-0.624 0,-0.277 -0.072,-0.479 -0.216,-0.604 -0.144,-0.125 -0.36,-0.188 -0.648,-0.188 h -1.376 v 1.608 z"
       id="path115"
       inkscape:connector-curvature="0"
       style="fill:#535454" />
  </g>
  <ellipse
     cx="248.705"
     cy="465.33301"
     rx="4.9549999"
     ry="5.026"
     id="ellipse119"
     style="fill:#111110" />
  <path
     d="m 248.705,469.327 c -2.175,0 -3.944,-1.792 -3.944,-3.994 0,-2.202 1.77,-3.993 3.944,-3.993 2.174,0 3.944,1.791 3.944,3.993 0,2.202 -1.769,3.994 -3.944,3.994 z"
     id="path121"
     inkscape:connector-curvature="0"
     style="fill:#a72323" />
  <ellipse
     cx="248.705"
     cy="465.33301"
     rx="3.444"
     ry="3.494"
     id="ellipse123"
     style="fill:#ff674e" />
  <g
     id="g129">
    <path
       d="m 248.705,420.53 c -55.414,0 -107.757,-7.08 -134.025,-11.3 -7.467,-1.2 -12.433,-6.766 -12.356,-13.849 l 2.778,-260.234 c 40.179,2.345 142.562,4.609 143.595,4.632 1.049,-0.023 103.432,-2.288 143.61,-4.632 l 2.778,260.234 c 0.077,7.083 -4.889,12.648 -12.355,13.849 -26.268,4.219 -78.61,11.3 -134.025,11.3 z"
       id="path125"
       inkscape:connector-curvature="0"
       style="fill:#292922" />
    <path
       d="m 105.473,135.545 c 40.456,2.337 142.186,4.587 143.248,4.61 1.03,-0.023 102.759,-2.273 143.215,-4.61 l 2.774,259.841 c 0.075,6.89 -4.764,12.305 -12.04,13.474 -26.258,4.218 -78.579,11.295 -133.966,11.295 -55.387,0 -107.708,-7.077 -133.966,-11.295 -7.276,-1.169 -12.115,-6.584 -12.04,-13.474 l 2.775,-259.841 m 287.205,-0.795 c -40.357,2.38 -143.973,4.655 -143.973,4.655 0,0 -103.616,-2.275 -143.973,-4.655 l -2.783,260.627 c -0.082,7.562 5.307,13.039 12.671,14.223 23.804,3.824 77.588,11.305 134.085,11.305 56.497,0 110.281,-7.481 134.085,-11.305 7.364,-1.183 12.753,-6.66 12.671,-14.223 z"
       id="path127"
       inkscape:connector-curvature="0"
       style="fill:#21211d" />
  </g>
  <g
     id="g171">
    <ellipse
       cx="234.841"
       cy="385.25"
       rx="1.655"
       ry="1.675"
       id="ellipse131"
       style="fill:#404038" />
    <path
       d="m 234.841,383.875 c 0.749,0 1.356,0.616 1.356,1.375 0,0.759 -0.607,1.375 -1.356,1.375 -0.749,0 -1.356,-0.616 -1.356,-1.375 0,-0.759 0.607,-1.375 1.356,-1.375 m 0,-0.6 c -1.078,0 -1.956,0.886 -1.956,1.975 0,1.089 0.877,1.975 1.956,1.975 1.078,0 1.956,-0.886 1.956,-1.975 0,-1.089 -0.878,-1.975 -1.956,-1.975 z"
       id="path133"
       inkscape:connector-curvature="0"
       style="fill:#1a1a17" />
    <path
       d="m 244.084,386.925 c -0.913,0 -1.656,-0.751 -1.656,-1.675 0,-0.924 0.743,-1.675 1.656,-1.675 0.913,0 1.655,0.751 1.655,1.675 0,0.924 -0.742,1.675 -1.655,1.675 z"
       id="path135"
       inkscape:connector-curvature="0"
       style="fill:#404038" />
    <path
       d="m 244.084,383.875 c 0.749,0 1.356,0.616 1.356,1.375 0,0.759 -0.607,1.375 -1.356,1.375 -0.749,0 -1.356,-0.616 -1.356,-1.375 0,-0.759 0.607,-1.375 1.356,-1.375 m 0,-0.6 c -1.078,0 -1.956,0.886 -1.956,1.975 0,1.089 0.877,1.975 1.956,1.975 1.079,0 1.956,-0.886 1.956,-1.975 0,-1.089 -0.878,-1.975 -1.956,-1.975 z"
       id="path137"
       inkscape:connector-curvature="0"
       style="fill:#1a1a17" />
    <ellipse
       cx="253.326"
       cy="385.25"
       rx="1.655"
       ry="1.675"
       id="ellipse139"
       style="fill:#404038" />
    <path
       d="m 253.326,383.875 c 0.749,0 1.356,0.616 1.356,1.375 0,0.759 -0.607,1.375 -1.356,1.375 -0.749,0 -1.356,-0.616 -1.356,-1.375 0,-0.759 0.608,-1.375 1.356,-1.375 m 0,-0.6 c -1.078,0 -1.956,0.886 -1.956,1.975 0,1.089 0.877,1.975 1.956,1.975 1.079,0 1.956,-0.886 1.956,-1.975 0,-1.089 -0.877,-1.975 -1.956,-1.975 z"
       id="path141"
       inkscape:connector-curvature="0"
       style="fill:#1a1a17" />
    <ellipse
       cx="262.569"
       cy="385.25"
       rx="1.655"
       ry="1.675"
       id="ellipse143"
       style="fill:#404038" />
    <path
       d="m 262.569,383.875 c 0.749,0 1.356,0.616 1.356,1.375 0,0.759 -0.607,1.375 -1.356,1.375 -0.749,0 -1.356,-0.616 -1.356,-1.375 0,-0.759 0.607,-1.375 1.356,-1.375 m 0,-0.6 c -1.078,0 -1.956,0.886 -1.956,1.975 0,1.089 0.877,1.975 1.956,1.975 1.078,0 1.956,-0.886 1.956,-1.975 0,-1.089 -0.878,-1.975 -1.956,-1.975 z"
       id="path145"
       inkscape:connector-curvature="0"
       style="fill:#1a1a17" />
    <g
       id="g151">
      <ellipse
         cx="234.841"
         cy="394.625"
         rx="1.655"
         ry="1.675"
         id="ellipse147"
         style="fill:#404038" />
      <path
         d="m 234.841,393.25 c 0.749,0 1.356,0.616 1.356,1.375 0,0.759 -0.607,1.375 -1.356,1.375 -0.749,0 -1.356,-0.616 -1.356,-1.375 0,-0.759 0.607,-1.375 1.356,-1.375 m 0,-0.6 c -1.078,0 -1.956,0.886 -1.956,1.975 0,1.089 0.877,1.975 1.956,1.975 1.078,0 1.956,-0.886 1.956,-1.975 0,-1.089 -0.878,-1.975 -1.956,-1.975 z"
         id="path149"
         inkscape:connector-curvature="0"
         style="fill:#1a1a17" />
    </g>
    <g
       id="g157">
      <path
         d="m 244.084,396.3 c -0.913,0 -1.656,-0.751 -1.656,-1.675 0,-0.924 0.743,-1.675 1.656,-1.675 0.913,0 1.655,0.751 1.655,1.675 0,0.924 -0.742,1.675 -1.655,1.675 z"
         id="path153"
         inkscape:connector-curvature="0"
         style="fill:#404038" />
      <path
         d="m 244.084,393.25 c 0.749,0 1.356,0.616 1.356,1.375 0,0.759 -0.608,1.375 -1.356,1.375 -0.748,0 -1.356,-0.616 -1.356,-1.375 0,-0.759 0.607,-1.375 1.356,-1.375 m 0,-0.6 c -1.078,0 -1.956,0.886 -1.956,1.975 0,1.089 0.877,1.975 1.956,1.975 1.079,0 1.956,-0.886 1.956,-1.975 0,-1.089 -0.878,-1.975 -1.956,-1.975 z"
         id="path155"
         inkscape:connector-curvature="0"
         style="fill:#1a1a17" />
    </g>
    <g
       id="g163">
      <ellipse
         cx="253.326"
         cy="394.625"
         rx="1.655"
         ry="1.675"
         id="ellipse159"
         style="fill:#404038" />
      <path
         d="m 253.326,393.25 c 0.749,0 1.356,0.616 1.356,1.375 0,0.759 -0.607,1.375 -1.356,1.375 -0.749,0 -1.356,-0.616 -1.356,-1.375 0,-0.759 0.608,-1.375 1.356,-1.375 m 0,-0.6 c -1.078,0 -1.956,0.886 -1.956,1.975 0,1.089 0.877,1.975 1.956,1.975 1.079,0 1.956,-0.886 1.956,-1.975 0,-1.089 -0.877,-1.975 -1.956,-1.975 z"
         id="path161"
         inkscape:connector-curvature="0"
         style="fill:#1a1a17" />
    </g>
    <g
       id="g169">
      <ellipse
         cx="262.569"
         cy="394.625"
         rx="1.655"
         ry="1.675"
         id="ellipse165"
         style="fill:#404038" />
      <path
         d="m 262.569,393.25 c 0.749,0 1.356,0.616 1.356,1.375 0,0.759 -0.607,1.375 -1.356,1.375 -0.749,0 -1.356,-0.616 -1.356,-1.375 0,-0.759 0.607,-1.375 1.356,-1.375 m 0,-0.6 c -1.078,0 -1.956,0.886 -1.956,1.975 0,1.089 0.877,1.975 1.956,1.975 1.078,0 1.956,-0.886 1.956,-1.975 0,-1.089 -0.878,-1.975 -1.956,-1.975 z"
         id="path167"
         inkscape:connector-curvature="0"
         style="fill:#1a1a17" />
    </g>
  </g>
  <g
     id="g195">
    <g
       id="g175"
       style="clip-rule:evenodd;fill:#fffdbe;fill-rule:evenodd">
      <path
         d="m 239.814,264.574 v 3.362 h -10.099 c -0.474,0 -1.057,-0.093 -1.33,0.082 -0.212,0.133 -0.283,0.568 -0.011,0.747 0.179,0.121 0.665,0.085 1.022,0.085 h 5.511 c 0.725,0 1.523,-0.046 2.115,0.083 1.181,0.255 2.038,0.938 2.495,1.911 a 4.19,4.19 0 0 1 0.392,1.82 c 0,2.077 -1.105,3.37 -2.851,3.751 -0.598,0.131 -1.367,0.085 -2.126,0.085 -3.656,0 -7.319,-0.022 -11,-0.013 v -3.362 h 5.868 c 1.335,0 2.936,0.011 4.396,0.011 0.411,0 1.103,0.069 1.379,-0.083 a 0.478,0.478 0 0 0 0.188,-0.593 c -0.155,-0.385 -1.111,-0.25 -1.674,-0.25 h -5.69 c -0.469,0 -0.941,0.019 -1.364,-0.048 -1.583,-0.24 -2.665,-1.184 -3.006,-2.67 -0.186,-0.812 -0.128,-1.779 0.129,-2.496 a 3.66,3.66 0 0 1 1.188,-1.649 3.67,3.67 0 0 1 2.102,-0.787 c 1.029,-0.048 2.071,0 3.1,0 3.069,0 6.153,0.026 9.266,0.014 z m 0.499,-0.014 h 3.588 c 0.169,0 0.39,-0.035 0.534,0 0.115,0.031 0.403,0.352 0.499,0.44 0.175,0.159 0.327,0.33 0.477,0.464 2.25,2.077 4.499,4.364 6.71,6.379 v -7.283 h 4.169 v 11.95 h -3.599 c -0.166,0 -0.362,0.027 -0.511,0 -0.149,-0.026 -0.369,-0.296 -0.512,-0.426 -0.487,-0.447 -0.982,-0.946 -1.437,-1.378 -1.922,-1.826 -3.858,-3.713 -5.758,-5.477 v 7.281 h -4.172 v -11.913 c -0.002,-0.016 -0.002,-0.034 0.012,-0.037 z m 16.572,0 h 4.11 c 0.004,1.813 -0.011,3.647 0.012,5.442 0.059,0.005 0.126,-0.076 0.19,-0.132 1.883,-1.632 3.723,-3.319 5.62,-4.978 0.111,-0.098 0.287,-0.306 0.39,-0.333 0.184,-0.043 0.471,0 0.713,0 h 4.906 c 0.026,0.052 -0.047,0.066 -0.07,0.085 -2.253,1.868 -4.617,3.703 -6.877,5.572 2.374,1.963 4.78,3.927 7.161,5.904 0.155,0.126 0.333,0.228 0.451,0.39 h -5.142 c -0.248,0 -0.529,0.043 -0.724,0 -0.136,-0.026 -0.302,-0.264 -0.429,-0.379 a 30.599,30.599 0 0 1 -1.245,-1.178 c -1.618,-1.613 -3.338,-3.156 -4.944,-4.716 -0.022,2.069 -0.008,4.177 -0.012,6.263 -1.374,0 -2.762,-0.008 -4.122,0.011 v -11.913 c 0,-0.017 0,-0.035 0.012,-0.038 z"
         id="path173"
         inkscape:connector-curvature="0" />
    </g>
    <path
       d="m 231.771,302.913 a 2.32,2.32 0 0 0 -1.703,0.701 2.315,2.315 0 0 0 -0.701,1.703 c 0,0.658 0.233,1.221 0.701,1.689 a 2.32,2.32 0 0 0 1.703,0.701 c 0.657,0 1.221,-0.234 1.688,-0.701 a 2.3,2.3 0 0 0 0.702,-1.689 c 0,-0.668 -0.234,-1.235 -0.702,-1.703 a 2.303,2.303 0 0 0 -1.688,-0.701 z m 45.759,-5.864 c -2.476,-0.099 -4.563,0.682 -6.258,2.344 -1.697,1.662 -2.545,3.738 -2.545,6.228 0,2.219 0.652,4.136 1.956,5.753 1.651,2.045 3.987,3.068 7.008,3.068 3.012,0 5.344,-1.072 6.995,-3.216 1.246,-1.616 1.869,-3.489 1.869,-5.616 0,-2.49 -0.836,-4.564 -2.507,-6.222 -1.671,-1.659 -3.843,-2.438 -6.518,-2.339 z m 3.943,13.314 c -0.403,1.159 -0.968,2.002 -1.694,2.529 -0.569,0.413 -1.276,0.618 -2.125,0.618 -1.261,0 -2.241,-0.478 -2.942,-1.435 -1.005,-1.368 -1.508,-3.483 -1.508,-6.344 0,-2.408 0.325,-4.254 0.977,-5.54 0.799,-1.567 1.965,-2.35 3.498,-2.35 0.832,0 1.567,0.227 2.206,0.68 0.638,0.454 1.163,1.23 1.575,2.331 0.412,1.101 0.618,2.76 0.618,4.978 0.001,1.864 -0.201,3.375 -0.605,4.533 z m -28.028,-3.33 h -8.161 v 0.435 h 0.432 c 0.403,0 0.746,0.08 1.03,0.238 0.285,0.158 0.471,0.335 0.562,0.53 0.09,0.196 0.136,0.627 0.136,1.292 v 3.494 a 8.707,8.707 0 0 1 -1.301,0.377 c -0.424,0.087 -0.837,0.13 -1.239,0.13 -1.159,0 -2.16,-0.285 -3.003,-0.854 -0.843,-0.569 -1.452,-1.46 -1.831,-2.672 -0.378,-1.212 -0.567,-2.623 -0.567,-4.231 0,-1.328 0.174,-2.622 0.521,-3.884 0.346,-1.262 0.938,-2.245 1.771,-2.95 0.834,-0.705 1.879,-1.058 3.134,-1.058 1.313,0 2.523,0.421 3.629,1.263 1.107,0.842 1.937,2.072 2.491,3.689 h 0.435 v -5.923 h -0.435 c -0.165,0.476 -0.347,0.8 -0.546,0.971 a 0.968,0.968 0 0 1 -0.644,0.257 c -0.148,0 -0.63,-0.155 -1.444,-0.465 -0.814,-0.31 -1.402,-0.498 -1.766,-0.565 a 11.713,11.713 0 0 0 -2.256,-0.198 c -2.693,0 -4.928,0.87 -6.704,2.608 -1.777,1.739 -2.664,3.868 -2.664,6.39 0,1.409 0.289,2.682 0.866,3.82 a 8.049,8.049 0 0 0 1.887,2.379 9.933,9.933 0 0 0 2.784,1.706 c 1.052,0.432 2.375,0.648 3.967,0.648 a 17.68,17.68 0 0 0 3.607,-0.362 c 1.159,-0.242 2.275,-0.6 3.348,-1.076 v -3.494 c 0,-0.616 0.037,-1.003 0.111,-1.162 0.131,-0.299 0.318,-0.514 0.56,-0.643 0.243,-0.129 0.673,-0.214 1.289,-0.256 v -0.434 z m -34.053,-9.984 c -2.477,-0.099 -4.563,0.682 -6.259,2.344 -1.697,1.662 -2.544,3.738 -2.544,6.228 0,2.219 0.651,4.136 1.956,5.753 1.651,2.045 3.987,3.068 7.007,3.068 3.013,0 5.345,-1.072 6.996,-3.216 1.246,-1.616 1.87,-3.489 1.87,-5.616 0,-2.49 -0.836,-4.564 -2.507,-6.222 -1.673,-1.659 -3.845,-2.438 -6.519,-2.339 z m 3.942,13.314 c -0.404,1.159 -0.968,2.002 -1.693,2.529 -0.569,0.413 -1.277,0.618 -2.125,0.618 -1.262,0 -2.242,-0.478 -2.942,-1.435 -1.006,-1.368 -1.508,-3.483 -1.508,-6.344 0,-2.408 0.325,-4.254 0.976,-5.54 0.8,-1.567 1.966,-2.35 3.498,-2.35 0.832,0 1.567,0.227 2.206,0.68 0.639,0.454 1.163,1.23 1.576,2.331 0.412,1.101 0.618,2.76 0.618,4.978 0,1.864 -0.202,3.375 -0.606,4.533 z m 42.213,1.703 c -0.944,0.725 -2.2,1.088 -3.766,1.088 h -1.002 c -0.478,0 -0.825,-0.065 -1.039,-0.198 a 1.018,1.018 0 0 1 -0.439,-0.507 c -0.079,-0.206 -0.117,-0.772 -0.117,-1.697 v -4.73 c 0.8,0 1.411,0.106 1.832,0.316 0.421,0.211 0.791,0.622 1.108,1.233 0.318,0.611 0.526,1.396 0.625,2.354 h 0.476 v -8.795 h -0.476 c -0.132,1.304 -0.437,2.291 -0.916,2.959 -0.479,0.669 -1.25,1.003 -2.315,1.003 h -0.334 v -6.834 h 1.723 c 1.271,0 2.138,0.074 2.6,0.223 0.792,0.248 1.405,0.636 1.838,1.165 0.434,0.528 0.77,1.4 1.009,2.614 h 0.476 v -4.972 h -14.045 v 0.436 h 0.556 c 0.543,0 0.971,0.117 1.283,0.35 0.222,0.159 0.375,0.383 0.457,0.675 0.041,0.175 0.062,0.646 0.062,1.412 v 11.054 c 0,0.85 -0.046,1.374 -0.137,1.574 -0.114,0.283 -0.279,0.484 -0.494,0.6 -0.296,0.175 -0.687,0.262 -1.172,0.262 h -0.556 v 0.435 h 14.499 l 0.755,-5.336 h -0.456 c -0.412,1.485 -1.091,2.59 -2.035,3.316 z m -58.138,0 c -0.945,0.725 -2.2,1.088 -3.767,1.088 h -1.002 c -0.478,0 -0.824,-0.065 -1.039,-0.198 a 1.013,1.013 0 0 1 -0.439,-0.507 c -0.078,-0.206 -0.118,-0.772 -0.118,-1.697 v -4.73 c 0.801,0 1.412,0.106 1.833,0.316 0.421,0.211 0.791,0.622 1.108,1.233 0.317,0.611 0.526,1.396 0.626,2.354 h 0.475 v -8.795 h -0.475 c -0.133,1.304 -0.438,2.291 -0.917,2.959 -0.479,0.669 -1.251,1.003 -2.315,1.003 h -0.335 v -6.834 h 1.724 c 1.271,0 2.137,0.074 2.6,0.223 0.793,0.248 1.405,0.636 1.839,1.165 0.433,0.528 0.769,1.4 1.009,2.614 h 0.475 v -4.972 h -19.303 v 0.436 c 0.936,-0.016 1.604,0.216 2.002,0.698 0.289,0.357 0.435,1.043 0.435,2.056 v 7.203 l -8.251,-10.392 h -5.952 v 0.436 c 0.512,0.017 0.904,0.097 1.176,0.24 0.272,0.143 0.586,0.442 0.941,0.897 l 0.358,0.444 v 11.849 c 0,0.903 -0.181,1.543 -0.545,1.919 -0.363,0.377 -1.007,0.569 -1.931,0.577 v 0.435 h 5.963 v -0.435 h -0.396 a 2.4,2.4 0 0 1 -1.516,-0.514 c -0.442,-0.343 -0.662,-1.004 -0.662,-1.982 v -10.688 l 11.309,13.996 h 0.418 v -13.985 c 0,-0.797 0.068,-1.36 0.204,-1.688 0.137,-0.328 0.326,-0.565 0.568,-0.71 0.243,-0.146 0.719,-0.264 1.427,-0.355 h 0.266 c 0.543,0 0.971,0.117 1.284,0.35 0.223,0.159 0.375,0.383 0.457,0.675 0.041,0.175 0.062,0.646 0.062,1.412 v 11.054 c 0,0.85 -0.046,1.374 -0.135,1.574 -0.116,0.283 -0.28,0.484 -0.494,0.6 -0.296,0.175 -0.688,0.262 -1.173,0.262 h -0.555 v 0.435 h 14.498 l 0.755,-5.336 h -0.456 c -0.414,1.484 -1.093,2.589 -2.036,3.315 z m 104.788,-13.44 c -0.543,-0.235 -1.444,-0.348 -2.704,-0.341 v 12.382 c 0,0.637 0.03,1.027 0.091,1.171 0.06,0.144 0.162,0.254 0.305,0.329 0.204,0.113 0.498,0.17 0.882,0.17 1.259,0 2.22,-0.431 2.885,-1.294 0.905,-1.167 1.357,-3.132 1.357,-5.586 0,-1.977 -0.31,-3.556 -0.928,-4.738 -0.489,-0.925 -1.119,-1.76 -1.888,-2.093 z m 0.93,12.005 c -0.537,0.698 -1.306,1.036 -2.355,1.036 -0.374,0 -0.52,-0.065 -0.556,-0.086 a 0.045,0.045 0 0 0 -0.01,-0.005 c -0.012,-0.072 -0.042,-0.3 -0.042,-0.909 v -11.702 c 0.995,0.035 1.508,0.164 1.767,0.276 0.631,0.274 1.143,0.998 1.564,1.792 0.563,1.077 0.848,2.566 0.848,4.424 0,2.29 -0.409,4.134 -1.216,5.174 z m 5.513,-9.793 c -0.776,-1.362 -1.926,-2.598 -3.421,-3.268 -1.202,-0.537 -2.785,-0.791 -4.708,-0.791 l -6.936,-0.002 h -1.69 l -0.079,0.579 c -0.045,0.327 -0.131,0.434 -0.156,0.459 -0.056,0.056 -0.098,0.068 -0.15,0.069 -0.038,-0.004 -0.271,-0.042 -1.09,-0.361 -1.276,-0.496 -2.51,-0.747 -3.669,-0.747 a 9.122,9.122 0 0 0 -4.484,1.174 8.811,8.811 0 0 0 -3.361,3.312 c -0.825,1.413 -1.243,2.932 -1.243,4.513 0,1.502 0.378,2.937 1.124,4.266 a 7.667,7.667 0 0 0 3.226,3.104 c 1.365,0.705 2.94,1.062 4.681,1.062 1.334,0 2.525,-0.223 3.54,-0.663 1.011,-0.439 1.991,-1.149 2.912,-2.112 l 0.186,-0.195 v -3.405 l -1.178,1.371 c -0.832,0.968 -1.621,1.652 -2.346,2.034 a 4.973,4.973 0 0 1 -2.342,0.558 c -1.019,0 -1.848,-0.244 -2.463,-0.726 -0.627,-0.489 -1.098,-1.241 -1.403,-2.233 -0.326,-1.06 -0.491,-2.26 -0.491,-3.564 0,-1.304 0.222,-2.499 0.662,-3.555 a 4.136,4.136 0 0 1 1.516,-1.873 3.86,3.86 0 0 1 2.257,-0.71 c 0.996,0 1.864,0.315 2.654,0.963 0.785,0.644 1.333,1.601 1.63,2.844 l 0.123,0.515 h 1.636 v -4.955 h 0.562 c 0.382,0 0.583,0.071 0.684,0.131 0.169,0.1 0.213,0.175 0.223,0.199 0.012,0.041 0.074,0.653 0.074,1.594 v 10.133 c 0,0.844 -0.039,1.116 -0.055,1.19 a 0.62,0.62 0 0 1 -0.245,0.255 c -0.074,0.044 -0.261,0.118 -0.681,0.118 h -1.179 v 1.74 h 7.553 c 1.043,0 1.797,-0.049 2.307,-0.148 1.095,-0.207 2.044,-0.507 2.818,-0.893 a 7.306,7.306 0 0 0 2.102,-1.574 c 0.608,-0.655 1.108,-1.488 1.485,-2.478 0.376,-0.984 0.566,-2.225 0.566,-3.385 -0.003,-1.678 -0.389,-3.207 -1.151,-4.545 z m -15.735,1.948 h -0.435 c -0.333,-1.395 -0.951,-2.464 -1.857,-3.207 -0.906,-0.743 -1.933,-1.115 -3.079,-1.115 -0.959,0 -1.838,0.276 -2.638,0.828 a 4.831,4.831 0 0 0 -1.755,2.167 c -0.475,1.143 -0.713,2.413 -0.713,3.812 0,1.377 0.173,2.63 0.521,3.761 0.347,1.131 0.891,1.985 1.63,2.564 0.74,0.579 1.699,0.868 2.876,0.868 0.965,0 1.85,-0.211 2.654,-0.635 0.804,-0.424 1.651,-1.154 2.542,-2.19 v 1.328 c -0.862,0.901 -1.76,1.555 -2.695,1.961 -0.933,0.405 -2.025,0.608 -3.273,0.608 -1.641,0 -3.099,-0.329 -4.373,-0.987 a 6.978,6.978 0 0 1 -2.949,-2.837 7.92,7.92 0 0 1 -1.038,-3.937 c 0,-1.467 0.383,-2.859 1.151,-4.175 a 8.121,8.121 0 0 1 3.108,-3.064 8.42,8.42 0 0 1 4.158,-1.089 c 1.081,0 2.223,0.234 3.426,0.701 0.696,0.271 1.138,0.407 1.327,0.407 a 0.86,0.86 0 0 0 0.629,-0.265 c 0.178,-0.177 0.293,-0.458 0.347,-0.842 h 0.435 v 5.338 z m 15.691,5.743 c -0.348,0.912 -0.797,1.666 -1.35,2.26 a 6.615,6.615 0 0 1 -1.91,1.431 c -0.722,0.36 -1.605,0.638 -2.647,0.835 -0.462,0.09 -1.188,0.136 -2.178,0.136 h -6.883 v -0.399 h 0.509 c 0.445,0 0.786,-0.071 1.024,-0.212 0.237,-0.141 0.413,-0.334 0.526,-0.579 0.068,-0.16 0.102,-0.641 0.102,-1.443 v -10.133 c 0,-0.794 -0.042,-1.651 -0.124,-1.85 -0.083,-0.199 -0.251,-0.372 -0.504,-0.521 -0.252,-0.149 -0.594,-0.223 -1.024,-0.223 h -0.509 v -0.399 h 6.883 c 1.837,0 3.315,0.25 4.433,0.75 1.368,0.613 2.406,1.747 3.113,2.988 0.707,1.242 1.06,2.646 1.06,4.213 10e-4,1.082 -0.173,2.234 -0.521,3.146 z"
       id="path177"
       inkscape:connector-curvature="0"
       style="fill:#fffdbe" />
    <g
       id="g193"
       style="fill:#fffdbe">
      <path
         d="m 227.822,317.007 c 0.277,0 0.512,0.04 0.707,0.121 0.194,0.08 0.352,0.187 0.474,0.319 0.122,0.132 0.211,0.282 0.267,0.452 a 1.703,1.703 0 0 1 0,1.05 1.225,1.225 0 0 1 -0.267,0.455 c -0.122,0.133 -0.28,0.239 -0.474,0.319 -0.194,0.081 -0.43,0.121 -0.707,0.121 h -1.023 v 1.587 h -0.973 v -4.426 h 1.996 z m -0.266,2.083 a 2.1,2.1 0 0 0 0.322,-0.025 0.756,0.756 0 0 0 0.273,-0.096 0.539,0.539 0 0 0 0.189,-0.201 0.718,0.718 0 0 0 0.071,-0.342 0.717,0.717 0 0 0 -0.071,-0.341 0.531,0.531 0 0 0 -0.189,-0.201 0.756,0.756 0 0 0 -0.273,-0.096 1.99,1.99 0 0 0 -0.322,-0.025 H 226.8 v 1.327 z m 4.388,-2.083 c 0.198,0 0.377,0.032 0.536,0.096 0.159,0.064 0.295,0.152 0.409,0.264 0.113,0.111 0.2,0.241 0.26,0.388 0.06,0.146 0.09,0.305 0.09,0.474 0,0.261 -0.055,0.486 -0.165,0.676 -0.109,0.19 -0.288,0.335 -0.536,0.435 v 0.012 a 0.757,0.757 0 0 1 0.49,0.393 c 0.05,0.094 0.086,0.195 0.108,0.308 0.023,0.111 0.038,0.223 0.047,0.334 l 0.012,0.248 c 0.004,0.096 0.011,0.192 0.021,0.292 0.01,0.099 0.027,0.192 0.05,0.281 a 0.649,0.649 0 0 0 0.102,0.227 h -0.973 a 1.731,1.731 0 0 1 -0.099,-0.502 7.214,7.214 0 0 0 -0.056,-0.558 c -0.033,-0.231 -0.104,-0.401 -0.211,-0.509 -0.107,-0.108 -0.283,-0.161 -0.527,-0.161 h -0.973 v 1.729 h -0.973 v -4.426 h 2.388 z m -0.347,2.002 c 0.223,0 0.39,-0.05 0.502,-0.148 0.111,-0.1 0.167,-0.261 0.167,-0.483 0,-0.215 -0.056,-0.371 -0.167,-0.469 -0.112,-0.097 -0.279,-0.146 -0.502,-0.146 h -1.066 v 1.246 z m 1.99,-0.692 c 0.099,-0.282 0.242,-0.529 0.428,-0.74 0.186,-0.211 0.414,-0.376 0.685,-0.496 0.271,-0.12 0.575,-0.18 0.914,-0.18 0.343,0 0.649,0.06 0.917,0.18 0.268,0.12 0.496,0.285 0.682,0.496 0.186,0.211 0.329,0.458 0.428,0.74 0.099,0.283 0.148,0.59 0.148,0.921 0,0.322 -0.049,0.623 -0.148,0.902 a 2.162,2.162 0 0 1 -0.428,0.728 1.972,1.972 0 0 1 -0.682,0.487 2.276,2.276 0 0 1 -0.917,0.177 c -0.339,0 -0.644,-0.06 -0.914,-0.177 a 1.956,1.956 0 0 1 -0.685,-0.487 2.143,2.143 0 0 1 -0.428,-0.728 2.68,2.68 0 0 1 -0.149,-0.902 c 0,-0.331 0.05,-0.637 0.149,-0.921 z m 0.89,1.463 c 0.043,0.176 0.112,0.334 0.208,0.475 0.096,0.141 0.219,0.253 0.372,0.338 0.153,0.085 0.339,0.127 0.558,0.127 0.219,0 0.405,-0.042 0.558,-0.127 0.153,-0.085 0.277,-0.197 0.372,-0.338 0.095,-0.141 0.164,-0.299 0.208,-0.475 a 2.391,2.391 0 0 0 0,-1.106 1.477,1.477 0 0 0 -0.208,-0.486 c -0.095,-0.143 -0.219,-0.256 -0.372,-0.341 -0.153,-0.085 -0.339,-0.127 -0.558,-0.127 -0.219,0 -0.405,0.042 -0.558,0.127 -0.153,0.085 -0.277,0.198 -0.372,0.341 -0.095,0.143 -0.164,0.305 -0.208,0.486 -0.043,0.183 -0.065,0.37 -0.065,0.564 0,0.186 0.021,0.367 0.065,0.542 z m 5.339,-0.418 v 0.756 h -1.866 v -0.756 z m 2.976,2.036 a 1.632,1.632 0 0 1 -0.639,0.134 c -0.339,0 -0.644,-0.06 -0.914,-0.177 a 1.956,1.956 0 0 1 -0.685,-0.487 2.143,2.143 0 0 1 -0.428,-0.728 2.68,2.68 0 0 1 -0.149,-0.902 c 0,-0.331 0.05,-0.638 0.149,-0.921 0.099,-0.282 0.242,-0.529 0.428,-0.74 0.186,-0.211 0.414,-0.376 0.685,-0.496 0.271,-0.12 0.575,-0.18 0.914,-0.18 0.228,0 0.447,0.034 0.66,0.103 0.213,0.069 0.405,0.168 0.577,0.301 0.171,0.132 0.313,0.295 0.425,0.489 0.111,0.194 0.18,0.417 0.205,0.67 h -0.93 c -0.058,-0.248 -0.169,-0.435 -0.334,-0.559 a 0.976,0.976 0 0 0 -0.602,-0.186 c -0.219,0 -0.405,0.042 -0.558,0.127 -0.153,0.085 -0.277,0.198 -0.372,0.341 -0.095,0.143 -0.164,0.305 -0.208,0.486 -0.043,0.183 -0.065,0.37 -0.065,0.564 0,0.186 0.021,0.367 0.065,0.542 0.043,0.176 0.112,0.334 0.208,0.475 0.096,0.141 0.219,0.253 0.372,0.338 0.153,0.085 0.339,0.127 0.558,0.127 0.323,0 0.571,-0.081 0.747,-0.245 0.176,-0.163 0.278,-0.399 0.307,-0.709 h -0.979 v -0.726 h 1.859 v 2.393 h -0.62 l -0.099,-0.502 c -0.174,0.223 -0.366,0.38 -0.577,0.468 z m 4.99,-4.391 v 0.818 h -2.337 v 0.948 h 2.145 v 0.756 h -2.145 v 1.085 h 2.387 v 0.818 h -3.36 v -4.426 h 3.31 z"
         id="path179"
         inkscape:connector-curvature="0" />
      <path
         d="m 250.292,317.007 1.655,4.426 h -1.01 l -0.335,-0.985 h -1.655 l -0.347,0.985 h -0.979 l 1.673,-4.426 z m 0.056,2.715 -0.558,-1.624 h -0.012 l -0.577,1.624 z"
         id="path181"
         inkscape:connector-curvature="0" />
      <path
         d="m 254.315,317.007 c 0.198,0 0.377,0.032 0.536,0.096 0.159,0.064 0.295,0.152 0.409,0.264 0.113,0.111 0.2,0.241 0.26,0.388 0.06,0.146 0.09,0.305 0.09,0.474 0,0.261 -0.055,0.486 -0.165,0.676 -0.109,0.19 -0.288,0.335 -0.536,0.435 v 0.012 a 0.757,0.757 0 0 1 0.49,0.393 c 0.05,0.094 0.086,0.195 0.108,0.308 0.023,0.111 0.038,0.223 0.047,0.334 l 0.012,0.248 c 0.004,0.096 0.011,0.192 0.021,0.292 0.01,0.099 0.027,0.192 0.05,0.281 a 0.649,0.649 0 0 0 0.102,0.227 h -0.973 a 1.731,1.731 0 0 1 -0.099,-0.502 7.214,7.214 0 0 0 -0.056,-0.558 c -0.033,-0.231 -0.104,-0.401 -0.211,-0.509 -0.107,-0.108 -0.283,-0.161 -0.527,-0.161 H 252.9 v 1.729 h -0.973 v -4.426 h 2.388 z m -0.347,2.002 c 0.223,0 0.39,-0.05 0.502,-0.148 0.111,-0.1 0.167,-0.261 0.167,-0.483 0,-0.215 -0.056,-0.371 -0.167,-0.469 -0.112,-0.097 -0.279,-0.146 -0.502,-0.146 h -1.066 v 1.246 z m 4.097,1.333 c 0.054,0.104 0.125,0.187 0.214,0.251 0.089,0.064 0.193,0.111 0.313,0.143 0.12,0.031 0.244,0.047 0.372,0.047 0.087,0 0.18,-0.008 0.279,-0.022 a 0.96,0.96 0 0 0 0.279,-0.083 0.63,0.63 0 0 0 0.217,-0.171 0.425,0.425 0 0 0 0.087,-0.275 0.39,0.39 0 0 0 -0.115,-0.292 c -0.077,-0.074 -0.177,-0.136 -0.301,-0.186 -0.124,-0.05 -0.265,-0.093 -0.421,-0.13 a 14.725,14.725 0 0 1 -0.478,-0.124 c -0.165,-0.042 -0.326,-0.093 -0.483,-0.152 -0.157,-0.059 -0.297,-0.138 -0.421,-0.232 -0.124,-0.094 -0.224,-0.214 -0.301,-0.356 a 1.089,1.089 0 0 1 -0.115,-0.518 c 0,-0.228 0.049,-0.425 0.146,-0.592 0.097,-0.168 0.224,-0.307 0.381,-0.419 0.157,-0.111 0.335,-0.193 0.533,-0.248 0.198,-0.053 0.397,-0.08 0.595,-0.08 0.231,0 0.454,0.025 0.667,0.077 0.212,0.052 0.402,0.136 0.567,0.251 0.166,0.116 0.296,0.264 0.394,0.443 0.098,0.179 0.146,0.398 0.146,0.654 h -0.942 a 0.79,0.79 0 0 0 -0.083,-0.329 0.563,0.563 0 0 0 -0.189,-0.204 0.77,0.77 0 0 0 -0.27,-0.105 1.636,1.636 0 0 0 -0.332,-0.031 c -0.079,0 -0.157,0.009 -0.235,0.025 a 0.623,0.623 0 0 0 -0.214,0.087 0.54,0.54 0 0 0 -0.158,0.154 0.415,0.415 0 0 0 -0.062,0.236 c 0,0.086 0.017,0.156 0.05,0.21 a 0.437,0.437 0 0 0 0.195,0.149 c 0.097,0.045 0.231,0.091 0.403,0.136 0.171,0.046 0.396,0.104 0.672,0.174 0.083,0.017 0.197,0.047 0.344,0.09 0.146,0.044 0.292,0.112 0.437,0.208 0.145,0.095 0.27,0.222 0.375,0.381 0.105,0.159 0.158,0.362 0.158,0.61 0,0.203 -0.039,0.391 -0.118,0.564 -0.079,0.173 -0.195,0.323 -0.35,0.449 -0.155,0.126 -0.347,0.225 -0.577,0.295 -0.229,0.07 -0.495,0.105 -0.796,0.105 -0.244,0 -0.48,-0.03 -0.71,-0.09 -0.229,-0.061 -0.432,-0.154 -0.607,-0.282 -0.175,-0.128 -0.315,-0.292 -0.418,-0.49 a 1.454,1.454 0 0 1 -0.148,-0.706 h 0.942 a 0.8,0.8 0 0 0 0.078,0.378 z m 4.872,-3.335 c 0.277,0 0.512,0.04 0.707,0.121 0.194,0.08 0.352,0.187 0.474,0.319 0.122,0.132 0.211,0.282 0.267,0.452 a 1.703,1.703 0 0 1 0,1.05 1.225,1.225 0 0 1 -0.267,0.455 c -0.122,0.133 -0.28,0.239 -0.474,0.319 -0.194,0.081 -0.43,0.121 -0.707,0.121 h -1.023 v 1.587 h -0.973 v -4.426 h 1.996 z m -0.266,2.083 a 2.1,2.1 0 0 0 0.322,-0.025 0.756,0.756 0 0 0 0.273,-0.096 0.539,0.539 0 0 0 0.189,-0.201 0.718,0.718 0 0 0 0.071,-0.342 0.717,0.717 0 0 0 -0.071,-0.341 0.531,0.531 0 0 0 -0.189,-0.201 0.756,0.756 0 0 0 -0.273,-0.096 1.99,1.99 0 0 0 -0.322,-0.025 h -0.756 v 1.327 z m 5.312,-2.083 v 0.818 h -2.337 v 0.948 h 2.145 v 0.756 h -2.145 v 1.085 h 2.387 v 0.818 h -3.36 v -4.426 h 3.31 z m 3.143,1.181 a 0.973,0.973 0 0 0 -0.511,-0.409 1.015,1.015 0 0 0 -0.344,-0.059 c -0.219,0 -0.405,0.042 -0.558,0.127 -0.153,0.085 -0.277,0.198 -0.372,0.341 -0.095,0.143 -0.164,0.305 -0.208,0.486 -0.043,0.183 -0.065,0.37 -0.065,0.564 0,0.186 0.021,0.367 0.065,0.542 0.043,0.176 0.112,0.334 0.208,0.475 0.096,0.141 0.219,0.253 0.372,0.338 0.153,0.085 0.339,0.127 0.558,0.127 0.298,0 0.53,-0.091 0.698,-0.272 0.167,-0.182 0.27,-0.422 0.307,-0.72 h 0.942 a 2.26,2.26 0 0 1 -0.192,0.75 1.744,1.744 0 0 1 -1.004,0.93 2.193,2.193 0 0 1 -0.75,0.124 c -0.339,0 -0.644,-0.06 -0.914,-0.177 a 1.956,1.956 0 0 1 -0.685,-0.487 2.143,2.143 0 0 1 -0.428,-0.728 2.68,2.68 0 0 1 -0.149,-0.902 c 0,-0.331 0.05,-0.638 0.149,-0.921 0.099,-0.282 0.242,-0.529 0.428,-0.74 0.186,-0.211 0.414,-0.376 0.685,-0.496 0.271,-0.12 0.575,-0.18 0.914,-0.18 0.244,0 0.475,0.035 0.691,0.105 0.216,0.07 0.411,0.173 0.583,0.307 a 1.686,1.686 0 0 1 0.635,1.181 h -0.942 a 0.812,0.812 0 0 0 -0.113,-0.306 z m -72.044,5.819 1.655,4.426 h -1.01 l -0.335,-0.985 h -1.655 l -0.347,0.985 h -0.979 l 1.673,-4.426 z m 0.056,2.715 -0.558,-1.624 h -0.012 l -0.577,1.624 z"
         id="path183"
         inkscape:connector-curvature="0" />
      <path
         d="m 202.627,324.007 c 0.285,0 0.551,0.045 0.796,0.137 0.246,0.091 0.459,0.227 0.639,0.408 0.18,0.183 0.32,0.409 0.421,0.683 0.101,0.272 0.152,0.593 0.152,0.961 0,0.322 -0.041,0.619 -0.124,0.893 a 1.975,1.975 0 0 1 -0.375,0.706 1.762,1.762 0 0 1 -0.626,0.468 2.11,2.11 0 0 1 -0.883,0.171 h -1.909 v -4.426 h 1.909 z m -0.068,3.607 c 0.141,0 0.277,-0.022 0.409,-0.068 a 0.897,0.897 0 0 0 0.354,-0.226 c 0.103,-0.105 0.186,-0.243 0.248,-0.412 a 1.82,1.82 0 0 0 0.093,-0.62 c 0,-0.224 -0.021,-0.425 -0.065,-0.604 -0.044,-0.179 -0.115,-0.334 -0.214,-0.462 -0.099,-0.128 -0.23,-0.227 -0.394,-0.295 a 1.598,1.598 0 0 0 -0.604,-0.102 h -0.694 v 2.789 z m 3.311,0.819 -1.432,-4.426 h 0.998 l 0.986,3.111 h 0.012 l 0.998,-3.111 h 1.004 l -1.469,4.426 z m 4.462,-4.426 1.655,4.426 h -1.01 l -0.335,-0.985 h -1.655 l -0.347,0.985 h -0.979 l 1.673,-4.426 z m 0.056,2.715 -0.558,-1.624 h -0.012 l -0.577,1.624 z"
         id="path185"
         inkscape:connector-curvature="0" />
      <path
         d="m 212.936,324.007 1.848,2.969 h 0.012 v -2.969 h 0.911 v 4.426 h -0.973 l -1.841,-2.963 h -0.013 v 2.963 h -0.911 v -4.426 z m 6.062,1.181 a 0.973,0.973 0 0 0 -0.511,-0.409 1.015,1.015 0 0 0 -0.344,-0.059 c -0.219,0 -0.405,0.042 -0.558,0.127 -0.153,0.085 -0.277,0.198 -0.372,0.341 -0.095,0.143 -0.164,0.305 -0.208,0.486 -0.043,0.183 -0.065,0.37 -0.065,0.564 0,0.186 0.021,0.367 0.065,0.542 0.043,0.176 0.112,0.334 0.208,0.475 0.096,0.141 0.219,0.253 0.372,0.338 0.153,0.085 0.339,0.127 0.558,0.127 0.298,0 0.53,-0.091 0.698,-0.272 0.167,-0.182 0.27,-0.422 0.307,-0.72 h 0.942 a 2.26,2.26 0 0 1 -0.192,0.75 1.744,1.744 0 0 1 -1.004,0.93 2.193,2.193 0 0 1 -0.75,0.124 c -0.339,0 -0.644,-0.06 -0.914,-0.177 a 1.956,1.956 0 0 1 -0.685,-0.487 2.143,2.143 0 0 1 -0.428,-0.728 2.68,2.68 0 0 1 -0.149,-0.902 c 0,-0.331 0.05,-0.638 0.149,-0.921 0.099,-0.282 0.242,-0.529 0.428,-0.74 0.186,-0.211 0.414,-0.376 0.685,-0.496 0.271,-0.12 0.575,-0.18 0.914,-0.18 0.244,0 0.475,0.035 0.691,0.105 0.216,0.07 0.411,0.173 0.583,0.307 a 1.686,1.686 0 0 1 0.635,1.181 h -0.942 a 0.812,0.812 0 0 0 -0.113,-0.306 z m 4.662,-1.181 v 0.818 h -2.337 v 0.948 h 2.145 v 0.756 h -2.145 v 1.085 h 2.387 v 0.818 h -3.36 v -4.426 h 3.31 z m 2.213,0 c 0.285,0 0.551,0.045 0.796,0.137 0.246,0.091 0.459,0.227 0.639,0.408 0.18,0.183 0.32,0.409 0.421,0.683 0.101,0.272 0.152,0.593 0.152,0.961 0,0.322 -0.041,0.619 -0.124,0.893 a 1.975,1.975 0 0 1 -0.375,0.706 1.762,1.762 0 0 1 -0.626,0.468 2.11,2.11 0 0 1 -0.883,0.171 h -1.909 v -4.426 h 1.909 z m -0.069,3.607 c 0.141,0 0.277,-0.022 0.409,-0.068 a 0.897,0.897 0 0 0 0.354,-0.226 c 0.103,-0.105 0.186,-0.243 0.248,-0.412 a 1.82,1.82 0 0 0 0.093,-0.62 c 0,-0.224 -0.021,-0.425 -0.065,-0.604 -0.044,-0.179 -0.115,-0.334 -0.214,-0.462 -0.099,-0.128 -0.23,-0.227 -0.394,-0.295 a 1.598,1.598 0 0 0 -0.604,-0.102 h -0.694 v 2.789 z m 6.98,-3.607 v 0.818 h -2.337 v 0.948 h 2.145 v 0.756 h -2.145 v 1.085 h 2.387 v 0.818 h -3.36 v -4.426 h 3.31 z m 1.271,0 1.848,2.969 h 0.012 v -2.969 h 0.911 v 4.426 h -0.973 l -1.841,-2.963 h -0.013 v 2.963 h -0.911 v -4.426 z m 2.876,0.818 v -0.818 h 3.626 v 0.818 h -1.327 v 3.607 h -0.973 v -3.607 z m 7.042,-0.818 v 0.818 h -2.337 v 0.948 h 2.145 v 0.756 h -2.145 v 1.085 h 2.387 v 0.818 h -3.36 v -4.426 h 3.31 z m 2.69,0 c 0.198,0 0.377,0.032 0.536,0.096 0.159,0.064 0.295,0.152 0.409,0.264 0.113,0.111 0.2,0.241 0.26,0.388 0.06,0.146 0.09,0.305 0.09,0.474 0,0.261 -0.055,0.486 -0.165,0.676 -0.109,0.19 -0.288,0.335 -0.536,0.435 v 0.012 a 0.757,0.757 0 0 1 0.49,0.393 c 0.05,0.094 0.086,0.195 0.108,0.308 0.023,0.111 0.038,0.223 0.047,0.334 l 0.012,0.248 c 0.004,0.096 0.011,0.192 0.021,0.292 0.01,0.099 0.027,0.192 0.05,0.281 a 0.649,0.649 0 0 0 0.102,0.227 h -0.973 a 1.731,1.731 0 0 1 -0.099,-0.502 7.214,7.214 0 0 0 -0.056,-0.558 c -0.033,-0.231 -0.104,-0.401 -0.211,-0.509 -0.107,-0.108 -0.283,-0.161 -0.527,-0.161 h -0.973 v 1.729 h -0.973 v -4.426 h 2.388 z m -0.347,2.002 c 0.223,0 0.39,-0.05 0.502,-0.148 0.111,-0.1 0.167,-0.261 0.167,-0.483 0,-0.215 -0.056,-0.371 -0.167,-0.469 -0.112,-0.097 -0.279,-0.146 -0.502,-0.146 h -1.066 v 1.246 z"
         id="path187"
         inkscape:connector-curvature="0" />
      <path
         d="m 247.89,324.825 v -0.818 h 3.626 v 0.818 h -1.327 v 3.607 h -0.973 v -3.607 z m 5.368,-0.818 1.655,4.426 h -1.01 l -0.335,-0.985 h -1.655 l -0.347,0.985 h -0.979 l 1.673,-4.426 z m 0.056,2.715 -0.558,-1.624 h -0.012 l -0.577,1.624 z"
         id="path189"
         inkscape:connector-curvature="0" />
      <path
         d="m 255.868,324.007 v 4.426 h -0.973 v -4.426 z m 1.419,0 1.848,2.969 h 0.012 v -2.969 h 0.911 v 4.426 h -0.973 l -1.841,-2.963 h -0.013 v 2.963 h -0.911 v -4.426 z m 4.594,0 1.035,3.044 h 0.012 l 0.979,-3.044 h 1.37 v 4.426 h -0.911 v -3.137 h -0.012 l -1.085,3.137 h -0.75 l -1.084,-3.105 h -0.013 v 3.105 h -0.911 v -4.426 z m 7.159,0 v 0.818 h -2.337 v 0.948 h 2.145 v 0.756 h -2.145 v 1.085 h 2.387 v 0.818 h -3.36 v -4.426 h 3.31 z m 1.271,0 1.848,2.969 h 0.012 v -2.969 h 0.911 v 4.426 h -0.973 l -1.841,-2.963 h -0.013 v 2.963 h -0.911 v -4.426 z m 2.876,0.818 v -0.818 h 3.626 v 0.818 h -1.327 v 3.607 h -0.973 v -3.607 z m 5.796,2.517 c 0.054,0.104 0.125,0.187 0.214,0.251 0.089,0.064 0.193,0.111 0.313,0.143 0.12,0.031 0.244,0.047 0.372,0.047 0.087,0 0.18,-0.008 0.279,-0.022 a 0.96,0.96 0 0 0 0.279,-0.083 0.63,0.63 0 0 0 0.217,-0.171 0.425,0.425 0 0 0 0.087,-0.275 0.39,0.39 0 0 0 -0.115,-0.292 c -0.077,-0.074 -0.177,-0.136 -0.301,-0.186 -0.124,-0.05 -0.265,-0.093 -0.421,-0.13 a 14.725,14.725 0 0 1 -0.478,-0.124 c -0.165,-0.042 -0.326,-0.093 -0.483,-0.152 -0.157,-0.059 -0.297,-0.138 -0.421,-0.232 -0.124,-0.094 -0.224,-0.214 -0.301,-0.356 a 1.089,1.089 0 0 1 -0.115,-0.518 c 0,-0.228 0.049,-0.425 0.146,-0.592 0.097,-0.168 0.224,-0.307 0.381,-0.419 0.157,-0.111 0.335,-0.193 0.533,-0.248 0.198,-0.053 0.397,-0.08 0.595,-0.08 0.231,0 0.454,0.025 0.667,0.077 0.212,0.052 0.402,0.136 0.567,0.251 0.166,0.116 0.296,0.264 0.394,0.443 0.098,0.179 0.146,0.398 0.146,0.654 h -0.942 a 0.79,0.79 0 0 0 -0.083,-0.329 0.563,0.563 0 0 0 -0.189,-0.204 0.77,0.77 0 0 0 -0.27,-0.105 1.636,1.636 0 0 0 -0.332,-0.031 c -0.079,0 -0.157,0.009 -0.235,0.025 a 0.623,0.623 0 0 0 -0.214,0.087 0.54,0.54 0 0 0 -0.158,0.154 0.415,0.415 0 0 0 -0.062,0.236 c 0,0.086 0.017,0.156 0.05,0.21 a 0.437,0.437 0 0 0 0.195,0.149 c 0.097,0.045 0.231,0.091 0.403,0.136 0.171,0.046 0.396,0.104 0.672,0.174 0.083,0.017 0.197,0.047 0.344,0.09 0.146,0.044 0.292,0.112 0.437,0.208 0.145,0.095 0.27,0.222 0.375,0.381 0.105,0.159 0.158,0.362 0.158,0.61 0,0.203 -0.039,0.391 -0.118,0.564 -0.079,0.173 -0.195,0.323 -0.35,0.449 -0.155,0.126 -0.347,0.225 -0.577,0.295 -0.229,0.07 -0.495,0.105 -0.796,0.105 -0.244,0 -0.48,-0.03 -0.71,-0.09 -0.229,-0.061 -0.432,-0.154 -0.607,-0.282 -0.175,-0.128 -0.315,-0.292 -0.418,-0.49 a 1.454,1.454 0 0 1 -0.148,-0.706 h 0.942 a 0.777,0.777 0 0 0 0.078,0.378 z m 2.398,-3.335 h 1.091 l 1.035,1.748 1.029,-1.748 h 1.085 l -1.643,2.728 v 1.698 h -0.973 v -1.724 z m 4.953,3.335 c 0.054,0.104 0.125,0.187 0.214,0.251 0.089,0.064 0.193,0.111 0.313,0.143 0.12,0.031 0.244,0.047 0.372,0.047 0.087,0 0.18,-0.008 0.279,-0.022 a 0.96,0.96 0 0 0 0.279,-0.083 0.63,0.63 0 0 0 0.217,-0.171 0.425,0.425 0 0 0 0.087,-0.275 0.39,0.39 0 0 0 -0.115,-0.292 c -0.077,-0.074 -0.177,-0.136 -0.301,-0.186 -0.124,-0.05 -0.265,-0.093 -0.421,-0.13 A 14.725,14.725 0 0 1 286.78,326.5 c -0.165,-0.042 -0.326,-0.093 -0.483,-0.152 -0.157,-0.059 -0.297,-0.138 -0.421,-0.232 -0.124,-0.094 -0.224,-0.214 -0.301,-0.356 a 1.089,1.089 0 0 1 -0.115,-0.518 c 0,-0.228 0.049,-0.425 0.146,-0.592 0.097,-0.168 0.224,-0.307 0.381,-0.419 0.157,-0.111 0.335,-0.193 0.533,-0.248 0.198,-0.053 0.397,-0.08 0.595,-0.08 0.231,0 0.454,0.025 0.667,0.077 0.212,0.052 0.402,0.136 0.567,0.251 0.166,0.116 0.296,0.264 0.394,0.443 0.098,0.179 0.146,0.398 0.146,0.654 h -0.942 a 0.79,0.79 0 0 0 -0.083,-0.329 0.563,0.563 0 0 0 -0.189,-0.204 0.77,0.77 0 0 0 -0.27,-0.105 1.636,1.636 0 0 0 -0.332,-0.031 c -0.079,0 -0.157,0.009 -0.235,0.025 a 0.623,0.623 0 0 0 -0.214,0.087 0.54,0.54 0 0 0 -0.158,0.154 0.415,0.415 0 0 0 -0.062,0.236 c 0,0.086 0.017,0.156 0.05,0.21 a 0.437,0.437 0 0 0 0.195,0.149 c 0.097,0.045 0.231,0.091 0.403,0.136 0.171,0.046 0.396,0.104 0.672,0.174 0.083,0.017 0.197,0.047 0.344,0.09 0.146,0.044 0.292,0.112 0.437,0.208 0.145,0.095 0.27,0.222 0.375,0.381 0.105,0.159 0.158,0.362 0.158,0.61 0,0.203 -0.039,0.391 -0.118,0.564 -0.079,0.173 -0.195,0.323 -0.35,0.449 -0.155,0.126 -0.347,0.225 -0.577,0.295 -0.229,0.07 -0.495,0.105 -0.796,0.105 -0.244,0 -0.48,-0.03 -0.71,-0.09 -0.229,-0.061 -0.432,-0.154 -0.607,-0.282 -0.175,-0.128 -0.315,-0.292 -0.418,-0.49 a 1.454,1.454 0 0 1 -0.148,-0.706 h 0.942 a 0.8,0.8 0 0 0 0.078,0.378 z m 2.529,-2.517 v -0.818 h 3.626 v 0.818 h -1.327 v 3.607 h -0.973 v -3.607 z m 7.042,-0.818 v 0.818 h -2.337 v 0.948 h 2.145 v 0.756 h -2.145 v 1.085 h 2.387 v 0.818 h -3.36 v -4.426 h 3.31 z m 1.674,0 1.035,3.044 h 0.012 l 0.979,-3.044 h 1.37 v 4.426 h -0.911 v -3.137 h -0.012 l -1.085,3.137 h -0.75 l -1.084,-3.105 h -0.013 v 3.105 h -0.911 v -4.426 z"
         id="path191"
         inkscape:connector-curvature="0" />
    </g>
  </g>
  <g
     id="g201"
     style="fill:#ffffff">
    <path
       d="m 358.541,317.801 a 3.11,3.11 0 0 1 -0.006,0.142 c -0.017,0.152 0,0.223 -0.437,0.223 -0.437,0 -0.42,-0.072 -0.437,-0.223 a 7.441,7.441 0 0 1 -0.01,-0.445 c 10e-4,-0.126 0.005,-0.396 0.01,-0.445 0.017,-0.152 0,-0.223 0.437,-0.223 0.437,0 0.42,0.072 0.437,0.223 a 3.6,3.6 0 0 1 0.006,0.151 h 0.598 a 4.267,4.267 0 0 0 -0.017,-0.308 c -0.034,-0.303 0.085,-0.593 -1.023,-0.593 -1.108,0 -0.989,0.29 -1.023,0.593 -0.011,0.099 -0.022,0.349 -0.021,0.602 10e-4,0.253 0.009,0.503 0.021,0.602 0.034,0.303 -0.085,0.593 1.023,0.593 1.108,0 0.989,-0.29 1.023,-0.593 0.007,-0.058 0.012,-0.167 0.016,-0.298 z m -7.087,-1.437 -0.583,1.703 -0.583,-1.703 -0.872,-0.005 v 2.287 h 0.583 v -1.704 l 0.583,1.704 h 0.583 l 0.579,-1.704 v 1.704 h 0.583 v -2.287 z m 7.816,-0.005 h 1.676 v 0.583 h -0.547 v 1.704 h -0.583 v -1.704 h -0.546 z m -4.496,2.287 0.669,-2.289 h 0.87 l 0.67,2.289 H 356.4 l -0.138,-0.473 h -0.765 l 0.108,-0.372 h 0.547 l -0.271,-0.932 -0.524,1.777 z m -6.763,-1.817 c 0.437,0 0.42,0.072 0.437,0.223 0.006,0.049 0.01,0.319 0.01,0.445 10e-4,0.126 -0.005,0.396 -0.01,0.445 -0.017,0.152 0,0.223 -0.437,0.223 -0.437,0 -0.42,-0.072 -0.437,-0.223 a 7.441,7.441 0 0 1 -0.01,-0.445 c 10e-4,-0.126 0.005,-0.396 0.01,-0.445 0.017,-0.151 0,-0.223 0.437,-0.223 l 10e-4,-0.526 c -1.108,0 -0.989,0.29 -1.023,0.593 a 6.716,6.716 0 0 0 -0.021,0.602 c 10e-4,0.252 0.009,0.503 0.021,0.602 0.034,0.303 -0.085,0.593 1.023,0.593 1.108,0 0.989,-0.29 1.023,-0.593 0.011,-0.099 0.019,-0.349 0.021,-0.602 a 6.366,6.366 0 0 0 -0.021,-0.602 c -0.034,-0.303 0.085,-0.593 -1.023,-0.593 z m -1.969,0.972 a 3.11,3.11 0 0 1 -0.006,0.142 c -0.017,0.152 0,0.223 -0.437,0.223 -0.437,0 -0.42,-0.072 -0.437,-0.223 a 7.441,7.441 0 0 1 -0.01,-0.445 c 0.001,-0.126 0.005,-0.396 0.01,-0.445 0.017,-0.152 0,-0.223 0.437,-0.223 0.437,0 0.42,0.072 0.437,0.223 a 3.6,3.6 0 0 1 0.006,0.151 h 0.598 a 4.267,4.267 0 0 0 -0.017,-0.308 c -0.034,-0.303 0.085,-0.593 -1.023,-0.593 -1.108,0 -0.989,0.29 -1.023,0.593 a 6.716,6.716 0 0 0 -0.021,0.602 c 0.001,0.252 0.009,0.503 0.021,0.602 0.034,0.303 -0.085,0.593 1.023,0.593 1.108,0 0.989,-0.29 1.023,-0.593 0.007,-0.058 0.012,-0.167 0.016,-0.298 z m 7.705,0.322 h -0.354 v -0.522 l 0.354,-0.002 c 0.437,0 0.423,-0.072 0.441,-0.223 0.006,-0.049 0.004,-0.009 0.004,-0.135 -0.001,-0.126 0.002,-0.083 -0.004,-0.132 -0.017,-0.152 -0.004,-0.223 -0.441,-0.223 l -0.354,10e-4 0.001,1.757 h -0.584 v -2.284 h 0.938 c 1.108,0 0.987,0.291 1.027,0.593 0.005,0.036 0.005,0.201 0.005,0.29 0,0.072 0,0.237 -0.005,0.289 -0.029,0.304 0.08,0.591 -1.028,0.591 z m -11.341,9.133 -3.65,-0.004 a 0.956,0.956 0 0 1 -0.956,-0.956 v -5.556 c 0,-0.528 0.428,-0.956 0.956,-0.956 l 2.285,-0.003 a 0.497,0.497 0 0 0 0.497,-0.497 l 0.007,-2.221 c 0,-0.115 0.093,-0.208 0.208,-0.208 h 1.339 c 0.115,0 0.208,0.093 0.208,0.208 l 0.014,9.986 a 0.208,0.208 0 0 1 -0.208,0.208 l -0.7,-0.001 -0.017,0.496 h 0.914 a 0.497,0.497 0 0 0 0.497,-0.497 V 316.85 a 0.497,0.497 0 0 0 -0.497,-0.497 h -1.757 a 0.497,0.497 0 0 0 -0.497,0.497 l 0.003,2.227 a 0.208,0.208 0 0 1 -0.208,0.208 l -2.087,-0.004 c -0.805,0 -1.458,0.653 -1.458,1.458 v 5.556 c 0,0.805 0.653,1.458 1.458,1.458 l 3.633,-10e-4 z"
       id="path197"
       inkscape:connector-curvature="0" />
    <path
       d="m 341.048,325.211 v -3.595 a 0.5455,0.5455 0 0 0 -1.091,0 v 3.88 a 0.546,0.546 0 1 0 1.091,0 v -0.285 l 0.496,0.017 v 0.269 a 1.041,1.041 0 1 1 -2.082,0 v -3.88 a 1.041,1.041 0 1 1 2.082,0 v 3.612 z m 4.827,2.045 h -0.683 a 0.208,0.208 0 0 1 -0.208,-0.208 l 0.008,-7.052 c 0,-0.115 0.093,-0.208 0.208,-0.208 h 1.339 c 0.115,0 0.208,0.093 0.208,0.208 l 0.014,7.052 a 0.208,0.208 0 0 1 -0.208,0.208 h -0.678 v 0.494 l 0.876,10e-4 a 0.497,0.497 0 0 0 0.497,-0.497 v -7.471 a 0.497,0.497 0 0 0 -0.497,-0.497 h -1.757 a 0.497,0.497 0 0 0 -0.497,0.497 l -0.001,7.469 c 0,0.274 0.221,0.497 0.495,0.497 l 0.884,10e-4 z m 6.31,-6.081 -1.471,-0.002 a 0.82,0.82 0 1 0 0,1.64 l 2.016,0.006 c 0.528,0 0.956,0.428 0.956,0.956 l -0.007,2.51 a 0.956,0.956 0 0 1 -0.956,0.956 l -4.002,0.007 a 0.208,0.208 0 0 1 -0.208,-0.208 v -0.972 c 0,-0.115 0.093,-0.208 0.208,-0.208 l 2.727,-0.009 a 0.82,0.82 0 1 0 0,-1.64 l -1.974,-0.008 a 0.956,0.956 0 0 1 -0.956,-0.956 v -2.507 c 0,-0.528 0.428,-0.956 0.956,-0.956 l 3.709,-0.017 c 0.115,0 0.208,0.093 0.208,0.208 v 0.994 a 0.208,0.208 0 0 1 -0.208,0.208 l -0.998,-0.002 -0.017,0.489 h 1.22 a 0.496,0.496 0 0 0 0.497,-0.495 l 0.002,-1.393 a 0.497,0.497 0 0 0 -0.497,-0.497 l -3.916,0.002 c -0.805,0 -1.458,0.653 -1.458,1.458 v 2.507 c 0,0.805 0.653,1.458 1.458,1.458 l 1.975,-0.003 a 0.33,0.33 0 0 1 0,0.659 l -2.939,-0.001 a 0.497,0.497 0 0 0 -0.497,0.497 v 1.39 c 0,0.274 0.222,0.497 0.497,0.497 l 4.214,-10e-4 c 0.805,0 1.458,-0.653 1.458,-1.458 l 0.007,-2.51 c 0,-0.805 -0.653,-1.458 -1.458,-1.458 l -2.016,0.006 a 0.33,0.33 0 0 1 0,-0.66 h 1.454 z m 7.415,1.379 h 0.632 a 0.208,0.208 0 0 0 0.208,-0.208 l -0.003,-1.606 a 0.956,0.956 0 0 0 -0.956,-0.956 h -3.161 a 0.956,0.956 0 0 0 -0.956,0.956 v 5.556 c 0,0.528 0.428,0.956 0.956,0.956 h 3.161 a 0.956,0.956 0 0 0 0.956,-0.956 l 0.003,-1.527 a 0.208,0.208 0 0 0 -0.208,-0.208 h -1.193 a 0.208,0.208 0 0 0 -0.208,0.208 l 0.007,0.728 c 0,0.575 -0.362,1.041 -0.937,1.041 -0.575,0 -0.937,-0.466 -0.937,-1.041 v -3.88 c 0,-0.575 0.362,-1.041 0.937,-1.041 0.575,0 0.937,0.466 0.937,1.041 l -0.007,0.729 c 0,0.115 0.093,0.208 0.208,0.208 h 0.561 l -0.017,0.501 h -0.75 a 0.497,0.497 0 0 1 -0.497,-0.497 l 0.006,-0.941 c 0,-0.301 -0.14,-0.545 -0.441,-0.545 -0.301,0 -0.441,0.244 -0.441,0.545 v 3.88 c 0,0.301 0.14,0.546 0.441,0.546 0.301,0 0.441,-0.244 0.441,-0.546 l -0.006,-0.94 c 0,-0.274 0.222,-0.497 0.497,-0.497 h 1.61 c 0.274,0 0.497,0.222 0.497,0.497 l -10e-4,1.739 c 0,0.805 -0.653,1.458 -1.458,1.458 h -3.161 a 1.458,1.458 0 0 1 -1.458,-1.458 v -5.556 c 0,-0.805 0.653,-1.458 1.458,-1.458 h 3.161 c 0.805,0 1.458,0.653 1.458,1.458 l 10e-4,1.818 a 0.497,0.497 0 0 1 -0.497,0.497 h -0.86 z"
       id="path199"
       inkscape:connector-curvature="0" />
  </g>
  <path
     d="m 382.79,411.195 c 4.02,-0.646 8.749,-3.637 11.023,-6.483 -45.502,2.021 -105.831,5.288 -146.396,5.288 -39.773,0 -98.488,-3.177 -143.607,-5.164 2.274,2.78 6.846,5.722 10.81,6.359 23.804,3.824 77.588,11.305 134.085,11.305 56.496,0 110.281,-7.481 134.085,-11.305 z"
     id="path203"
     inkscape:connector-curvature="0"
     style="fill:#242424" />
  <path
     d="m 382.79,410.195 c 4.02,-0.646 7.443,-2.579 9.718,-5.425 -45.501,2.02 -104.526,4.23 -145.09,4.23 -39.773,0 -97.297,-2.124 -142.416,-4.111 2.274,2.78 5.655,4.67 9.619,5.307 23.804,3.824 77.588,11.305 134.085,11.305 56.495,-10e-4 110.28,-7.482 134.084,-11.306 z"
     id="path205"
     inkscape:connector-curvature="0"
     style="fill:#21211d" />
</svg>
