<?xml version="1.0" encoding="UTF-8" standalone="no"?>
<svg
   xmlns:dc="http://purl.org/dc/elements/1.1/"
   xmlns:cc="http://creativecommons.org/ns#"
   xmlns:rdf="http://www.w3.org/1999/02/22-rdf-syntax-ns#"
   xmlns:svg="http://www.w3.org/2000/svg"
   xmlns="http://www.w3.org/2000/svg"
   xmlns:sodipodi="http://sodipodi.sourceforge.net/DTD/sodipodi-0.dtd"
   xmlns:inkscape="http://www.inkscape.org/namespaces/inkscape"
   viewBox="0 0 152.55601 152.55601"
   version="1.1"
   id="svg38"
   sodipodi:docname="game.svg"
   width="152.556"
   height="152.556"
   inkscape:version="0.92.4 5da689c313, 2019-01-14">
  <metadata
     id="metadata44">
    <rdf:RDF>
      <cc:Work
         rdf:about="">
        <dc:format>image/svg+xml</dc:format>
        <dc:type
           rdf:resource="http://purl.org/dc/dcmitype/StillImage" />
      </cc:Work>
    </rdf:RDF>
  </metadata>
  <defs
     id="defs42" />
  <sodipodi:namedview
     pagecolor="#ffffff"
     bordercolor="#666666"
     borderopacity="1"
     objecttolerance="10"
     gridtolerance="10"
     guidetolerance="10"
     inkscape:pageopacity="0"
     inkscape:pageshadow="2"
     inkscape:window-width="471"
     inkscape:window-height="442"
     id="namedview40"
     showgrid="false"
     inkscape:zoom="1.5469831"
     inkscape:cx="76.277496"
     inkscape:cy="76.278504"
     inkscape:window-x="0"
     inkscape:window-y="0"
     inkscape:window-maximized="0"
     inkscape:current-layer="svg38" />
  <path
     d="m 76.278,46.942 c -16.202,0 -29.336,13.134 -29.336,29.336 0,16.202 13.134,29.336 29.336,29.336 16.202,0 29.336,-13.134 29.336,-29.336 0,-16.202 -13.134,-29.336 -29.336,-29.336 z m 0,38.699 a 9.363,9.363 0 1 1 0,-18.726 9.363,9.363 0 0 1 0,18.726 z"
     id="path2"
     inkscape:connector-curvature="0"
     style="fill:#e8e8e8" />
  <path
     d="M 76.278,0 C 34.151,0 0,34.151 0,76.278 c 0,42.127 34.151,76.278 76.278,76.278 42.127,0 76.278,-34.151 76.278,-76.278 C 152.556,34.151 118.405,0 76.278,0 Z m 0,105.614 c -16.202,0 -29.336,-13.134 -29.336,-29.336 0,-16.202 13.134,-29.336 29.336,-29.336 16.202,0 29.336,13.134 29.336,29.336 0,16.202 -13.134,29.336 -29.336,29.336 z"
     id="path4"
     inkscape:connector-curvature="0"
     style="fill:#3b3b3b" />
  <path
     d="m 76.278,49.815 c 14.592,0 26.463,11.871 26.463,26.463 0,14.592 -11.871,26.463 -26.463,26.463 -14.592,0 -26.463,-11.872 -26.463,-26.463 0,-14.591 11.871,-26.463 26.463,-26.463 m 0,-2.873 c -16.202,0 -29.336,13.134 -29.336,29.336 0,16.202 13.134,29.336 29.336,29.336 16.202,0 29.336,-13.134 29.336,-29.336 0,-16.202 -13.134,-29.336 -29.336,-29.336 z"
     id="path6"
     inkscape:connector-curvature="0"
     style="fill:#ababab" />
  <path
     d="m 76.278,52.727 c 12.986,0 23.551,10.565 23.551,23.551 0,12.986 -10.565,23.55 -23.551,23.55 -12.986,0 -23.551,-10.565 -23.551,-23.551 0,-12.986 10.565,-23.55 23.551,-23.55 m 0,-0.08 c -13.051,0 -23.631,10.58 -23.631,23.631 0,13.051 10.58,23.631 23.631,23.631 13.051,0 23.631,-10.58 23.631,-23.631 0,-13.051 -10.58,-23.631 -23.631,-23.631 z"
     id="path8"
     inkscape:connector-curvature="0"
     style="fill:#4a4a4a" />
  <path
     d="m 76.278,66.947 c 5.145,0 9.331,4.186 9.331,9.331 0,5.145 -4.186,9.331 -9.331,9.331 -5.145,0 -9.331,-4.186 -9.331,-9.331 0,-5.145 4.186,-9.331 9.331,-9.331 m 0,-0.033 a 9.363,9.363 0 1 0 0,18.726 9.363,9.363 0 0 0 0,-18.726 z"
     id="path10"
     inkscape:connector-curvature="0" />
  <path
     d="m 76.278,1.448 c 41.261,0 74.83,33.569 74.83,74.83 0,41.261 -33.569,74.83 -74.83,74.83 -41.261,0 -74.83,-33.569 -74.83,-74.83 0,-41.261 33.568,-74.83 74.83,-74.83 M 76.278,0 C 34.151,0 0,34.151 0,76.278 c 0,42.127 34.151,76.278 76.278,76.278 42.127,0 76.278,-34.151 76.278,-76.278 C 152.556,34.151 118.405,0 76.278,0 Z"
     id="path12"
     inkscape:connector-curvature="0"
     style="fill:#ababab" />
  <g
     id="g18"
     style="fill:#171717">
    <path
       d="m 109.6,44.428 c -0.336,-0.127 -0.519,-0.348 -0.794,-0.33 -0.912,0.066 -2.214,1.374 -2.082,2.501 0.042,0.385 0.306,0.954 0.833,1.08 0.39,0.097 1.146,0.037 1.626,0 0.702,-0.047 1.401,-0.282 1.791,-0.581 0.222,-0.174 0.642,-0.659 0.705,-1.002 0.27,-1.42 -1.08,-1.279 -2.079,-1.668 z m 10.081,24.709 c 1.905,0.915 3.593,2.003 6.041,2.214 2.565,0.215 4.742,-0.954 6.17,-2.046 3.116,-2.385 4.316,-6.881 4.208,-12.375 -0.007,-0.025 -0.009,-0.048 -0.042,-0.043 -1.065,2.22 -2.309,4.427 -3.377,6.586 -0.372,0.751 -0.768,1.713 -1.206,2.292 -2.171,2.835 -7.006,3.587 -11.794,3.372 z m 1.377,-27.042 c 0.429,0.041 0.864,-0.121 1.332,-0.078 0.339,0.024 0.786,0.276 1.251,0.12 0.672,-0.215 0.96,-1.197 0.96,-2.165 -0.003,-0.295 -0.126,-0.636 -0.084,-0.96 0.063,-0.483 0.498,-1.068 0.294,-1.746 -0.183,-0.599 -0.957,-0.996 -1.506,-1.211 -0.738,-0.295 -1.338,-0.348 -2.082,-0.666 a 0.292,0.292 0 0 0 -0.126,0.084 c -1.026,0.917 -2.184,2.016 -2.33,3.708 -0.033,0.348 -0.084,0.867 0.039,1.289 0.228,0.784 1.319,1.541 2.252,1.625 z m -85.75,96.255 c -5.552,-3.898 -10.645,-8.386 -14.541,-14.046 -2.916,-4.226 -5.333,-8.959 -6.251,-15.21 -0.312,-2.099 -0.168,-4.427 -0.168,-6.952 0,-8.17 1.26,-15.39 4.334,-20.714 0.435,-0.749 0.843,-1.566 1.374,-2.163 0.399,-0.45 0.993,-0.861 1.503,-1.293 2.478,-2.099 5.006,-4.253 8.332,-5.621 1.29,-0.54 2.807,-1.05 4.373,-1.17 a 13.297,13.297 0 0 1 8.668,2.331 c 1.662,1.165 2.967,2.692 4.059,4.431 a 29.392,29.392 0 0 1 0.844,-8.87 C 39.837,62.607 32.572,55.298 23.682,49.763 19.711,59.058 15.739,68.351 11.804,77.679 A 5625.828,5625.828 0 0 1 13.708,35.381 74.389,74.389 0 0 0 1.519,76.278 c 0,29.552 17.15,55.092 42.037,67.228 A 94.033,94.033 0 0 1 35.308,138.35 Z M 19.514,27.68 c 6.904,5.21 13.689,10.533 20.588,15.753 2.694,-9.373 4.598,-19.542 5.789,-30.42 0.117,1.853 1.242,3.278 0.75,5.333 1.146,-0.354 2.361,-1.003 3.582,-1.416 v 1.416 c 1.139,-0.528 2.445,-1.47 3.584,-2.001 V 57.427 A 29.521,29.521 0 0 1 59.48,52.234 C 59.779,39.074 60.081,25.916 60.348,12.721 71.046,10.075 80.409,6.094 90.555,2.896 A 75.108,75.108 0 0 0 76.279,1.518 c -22.77,0 -43.148,10.193 -56.86,26.25 0.031,-0.028 0.063,-0.06 0.095,-0.088 z m 101.729,108.319 a 75.165,75.165 0 0 0 15.486,-15.758 c -6.05,4.324 -10.409,10.438 -15.486,15.758 z m -3.601,-4.529 c -1.152,-2.237 -0.87,-5.908 -2.96,-7.205 -0.429,0.276 -0.705,0.522 -1.125,0.743 -3.743,1.992 -8.548,-0.851 -9.043,-4.324 h -0.081 c -2.633,0.468 -4.961,1.025 -6.25,2.954 -0.33,0.492 -0.858,1.515 -0.876,2.163 -0.027,0.99 0.54,2.247 1.125,3.006 1.545,2.004 4.43,2.55 6.458,3.87 0.396,0.264 0.726,0.689 1.167,0.923 0.819,0.429 2.04,0.591 3.086,0.624 3.682,0.102 6.267,-1.446 8.499,-2.754 z m 3.539,-31.331 c -1.101,-1.836 -3.887,-1.854 -6.539,-1.548 -0.768,2.394 -2.514,6.803 0.039,8.423 2.558,-0.417 5.009,-0.9 6.247,-2.708 0.39,-0.558 0.864,-1.371 0.879,-2.124 0.016,-0.76 -0.359,-1.599 -0.626,-2.043 z m 7.211,8.998 c -1.374,0.141 -2.783,1.31 -2.459,2.838 0.276,1.283 1.74,2.801 3.585,2.201 0.395,-0.818 1.383,-1.361 1.622,-2.291 0.449,-1.729 -1.009,-2.928 -2.748,-2.748 z"
       id="path14"
       inkscape:connector-curvature="0" />
    <path
       d="m 99.433,145.555 c -5.447,-1.007 -9.535,-3.634 -10.207,-9.501 -0.654,-5.687 1.481,-11.219 0.666,-16.917 -0.066,-0.438 -0.324,-0.98 -0.294,-1.332 0.036,-0.384 1.035,-1.422 1.29,-1.751 a 8601.097,8601.097 0 0 1 17.421,-21.998 c 0.933,-1.175 1.812,-2.384 2.789,-3.5 h 29.211 c -0.694,9.122 -1.342,18.253 -2.031,27.507 8.055,-11.929 12.759,-26.308 12.759,-41.785 0,-35.523 -24.785,-65.238 -58,-72.849 -0.497,0.372 -0.96,0.777 -1.358,1.248 0.486,0.52 0.987,1.023 1.506,1.5 -1.644,1.533 -3.413,2.931 -5.003,4.502 2.195,0.336 4.262,0.792 6.461,1.122 -3.719,2.507 -7.606,4.778 -11.419,7.171 -3.812,2.39 -7.624,4.778 -11.419,7.172 h 25.459 c 0.03,0.174 -0.198,0.213 -0.291,0.288 -8.8,6.617 -17.975,13.149 -26.79,19.79 a 10.44,10.44 0 0 0 -0.026,1.365 29.458,29.458 0 0 1 6.121,-0.644 c 16.202,0 29.336,13.134 29.336,29.336 a 29.21,29.21 0 0 1 -2.634,12.146 c 0.126,0.208 0.239,0.43 0.328,0.674 -0.253,0.165 -0.52,0.269 -0.801,0.315 a 29.45,29.45 0 0 1 -13.966,13.514 c 1.05,2.144 2.098,4.286 3.138,6.42 -8.266,-0.384 -16.697,-0.968 -24.997,-1.457 3.941,9.694 8.165,19.472 12.166,29.25 h -3 v 1.709 c 0,0.588 -0.126,1.35 0,1.703 0.102,0.282 0.453,0.198 0.54,0.459 -1.043,-0.411 -2.018,-0.894 -2.582,-1.787 -1.107,0.734 -0.405,2.924 -0.621,4.334 -0.105,0.066 -0.237,-0.223 -0.336,-0.378 -6.815,-10.798 -13.719,-21.785 -20.54,-32.586 2.449,-3.384 4.916,-6.752 7.375,-10.127 A 29.458,29.458 0 0 1 53.449,94.695 C 51.612,93.907 50.084,92.744 48.556,91.639 46.799,90.368 45.02,89.066 43.094,87.89 40.467,86.276 36.951,84.368 32.515,84.683 c -1.31,0.088 -2.72,0.303 -3.752,0.831 -0.84,0.432 -1.605,1.254 -2.25,1.956 -1.988,2.186 -3.467,4.943 -3.917,8.626 -0.645,5.327 1.116,9.952 2.877,13.627 1.793,3.743 4.268,6.937 7.042,9.709 2.795,2.795 6.143,5.122 9.877,6.874 -1.161,-5.247 -0.138,-12.678 -5.294,-14.002 -1.658,-0.425 -3.884,-0.192 -6.163,-0.251 -0.078,-0.187 0.351,-0.402 0.579,-0.534 0.756,-0.459 1.812,-0.79 2.252,-1.548 -1.17,-0.708 -2.366,-1.385 -3.542,-2.081 1.863,-0.735 2.756,-2.436 4.166,-3.624 -0.69,-0.465 -1.538,-0.99 -2.042,-1.5 4.997,-1.164 9.919,-2.394 14.919,-3.548 2.106,16.147 4.273,32.239 6.422,48.336 a 74.705,74.705 0 0 0 22.589,3.482 c 9.67,0 18.9,-1.856 27.383,-5.198 a 19.722,19.722 0 0 1 -4.228,-0.283 z m 3.209,-87.252 c -0.948,-1.523 -2.115,-2.922 -2.75,-4.584 -1.986,-5.159 -4.064,-10.629 -6.125,-15.831 0.372,-0.866 0.996,-1.592 1.5,-2.378 2.501,-3.89 5.114,-7.801 7.625,-11.749 a 155.779,155.779 0 0 1 3.125,-4.75 c 7.379,1.932 14.631,3.977 21.998,5.921 0.003,0.041 0.054,0.036 0.084,0.041 4.097,6.059 8.836,11.392 12.669,17.835 1.856,3.119 3.581,6.497 4.622,10.623 0.729,2.88 1.1,6.755 0.627,10.288 a 26.766,26.766 0 0 1 -0.291,1.629 c -0.105,0.503 -0.123,1.215 -0.336,1.58 -0.162,0.273 -0.702,0.588 -0.999,0.831 -3.662,2.996 -5.501,7.856 -8.168,12 -0.945,1.476 -2.06,2.967 -3.332,3.96 -1.518,1.181 -3.389,1.764 -5.627,1.212 -0.942,-0.234 -1.791,-0.594 -2.622,-1.044 -0.414,-0.223 -0.78,-0.468 -1.209,-0.624 -4.101,-1.458 -6.929,-3.96 -9.502,-6.962 -4.489,-5.226 -7.537,-11.939 -11.289,-17.998 z"
       id="path16"
       inkscape:connector-curvature="0" />
  </g>
  <path
     d="m 18.004,80.489 c 0.025,0.032 0.053,0.061 0.099,0.113 v -1.085 c 0,-0.107 0.004,-0.214 -0.005,-0.32 -0.022,-0.255 -0.099,-0.332 -0.351,-0.376 -0.031,-0.005 -0.059,-0.027 -0.089,-0.042 a 0.566,0.566 0 0 1 0.016,-0.036 h 3.465 v 0.908 C 21.102,79.628 21.071,79.617 21.052,79.595 21.037,79.577 21.036,79.547 21.03,79.522 20.928,79.125 20.751,78.963 20.35,78.928 20.161,78.911 19.968,78.925 19.775,78.925 v 1.214 c 0.292,0.024 0.463,-0.08 0.556,-0.346 0.032,-0.092 0.042,-0.191 0.069,-0.285 0.009,-0.031 0.037,-0.058 0.056,-0.086 l 0.032,0.019 v 1.573 l -0.035,0.018 c -0.02,-0.033 -0.046,-0.064 -0.058,-0.1 -0.029,-0.093 -0.044,-0.191 -0.078,-0.282 -0.091,-0.246 -0.276,-0.347 -0.539,-0.323 0,0.368 -0.007,0.738 0.007,1.108 0.002,0.054 0.098,0.144 0.158,0.151 0.656,0.076 1.099,-0.081 1.314,-0.692 0.012,-0.035 0.047,-0.063 0.071,-0.094 l 0.034,0.022 -0.133,0.941 H 18.62 L 18.608,81.73 c 0.028,-0.013 0.056,-0.036 0.085,-0.038 0.286,-0.022 0.339,-0.072 0.339,-0.362 0.002,-0.735 0.001,-1.47 -0.001,-2.205 -10e-4,-0.2 -0.072,-0.276 -0.269,-0.302 -0.335,-0.043 -0.491,0.098 -0.494,0.464 -0.004,0.504 -0.001,1.008 -0.001,1.513 v 1.067 c -0.061,-0.044 -0.106,-0.065 -0.134,-0.099 -0.618,-0.763 -1.235,-1.528 -1.852,-2.292 -0.034,-0.042 -0.07,-0.083 -0.119,-0.141 -0.003,0.055 -0.007,0.091 -0.007,0.127 v 1.743 c 0,0.353 0.06,0.422 0.413,0.487 0.022,0.004 0.04,0.031 0.087,0.071 h -1.113 v -0.077 c 0.319,0.005 0.434,-0.104 0.443,-0.42 v -0.115 c 0,-0.627 -0.004,-1.254 0.003,-1.881 a 0.429,0.429 0 0 0 -0.126,-0.317 c -0.089,-0.097 -0.202,-0.12 -0.32,-0.138 v -0.077 c 0.316,0.001 0.632,0.005 0.948,-0.001 a 0.225,0.225 0 0 1 0.203,0.097 m 6.592,-1.323 A 0.258,0.258 0 0 1 23.086,77.426 C 21.901,76.237 20.713,75.05 19.53,73.859 a 0.295,0.295 0 0 1 -0.076,-0.187 c -0.002,-1.688 0,-3.375 0.005,-5.063 0,-0.056 0.026,-0.127 0.065,-0.166 1.019,-1.023 2.041,-2.044 3.062,-3.064 0.021,-0.021 0.044,-0.039 0.064,-0.057 l 3.622,3.61 c 0.03,-0.042 0.054,-0.09 0.09,-0.126 0.887,-0.889 1.777,-1.776 2.663,-2.666 a 0.273,0.273 0 0 1 0.212,-0.089 c 1.478,0.005 2.956,0.005 4.434,0.011 0.06,0 0.134,0.03 0.176,0.072 a 781.32,781.32 0 0 1 3.151,3.156 c 0.041,0.042 0.07,0.116 0.071,0.175 0.003,1.482 0.003,2.965 -0.001,4.447 0,0.053 -0.02,0.121 -0.056,0.157 -1.031,1.035 -2.065,2.067 -3.099,3.1 -0.009,0.009 -0.02,0.015 -0.01,0.008 L 31.315,74.65 c -0.014,0.013 -0.048,0.043 -0.08,0.075 -0.898,0.897 -1.796,1.793 -2.691,2.692 a 0.28,0.28 0 0 1 -0.222,0.095 m -3.623,2.736 c -0.002,1.024 -0.801,1.703 -1.847,1.57 -0.656,-0.083 -1.136,-0.487 -1.305,-1.098 -0.185,-0.664 0.022,-1.321 0.538,-1.725 0.356,-0.278 0.768,-0.33 1.199,-0.294 0.857,0.072 1.417,0.687 1.415,1.547 z m -2.406,10e-4 c 0.011,0.385 0.026,0.771 0.242,1.11 a 0.657,0.657 0 0 0 1.107,0.018 c 0.068,-0.101 0.12,-0.217 0.154,-0.334 0.128,-0.434 0.125,-0.879 0.057,-1.32 a 1.857,1.857 0 0 0 -0.195,-0.574 c -0.132,-0.249 -0.416,-0.35 -0.693,-0.294 -0.276,0.056 -0.429,0.247 -0.53,0.49 -0.12,0.288 -0.133,0.596 -0.142,0.904 z m 11.329,-1.561 c 0.781,0.01 1.397,0.49 1.53,1.198 0.151,0.803 -0.226,1.568 -0.918,1.833 -0.647,0.248 -1.683,0.173 -2.117,-0.767 -0.414,-0.897 0.037,-1.949 0.947,-2.203 a 0.956,0.956 0 0 1 0.175,-0.037 c 0.127,-0.011 0.255,-0.016 0.383,-0.024 z m 0.759,1.533 c -0.008,-0.124 -0.012,-0.274 -0.027,-0.422 a 1.455,1.455 0 0 0 -0.205,-0.653 0.658,0.658 0 0 0 -0.698,-0.292 c -0.299,0.061 -0.454,0.273 -0.549,0.536 -0.126,0.351 -0.135,0.718 -0.116,1.087 0.015,0.283 0.057,0.56 0.192,0.815 0.085,0.159 0.202,0.285 0.381,0.34 0.36,0.111 0.674,-0.031 0.846,-0.386 0.153,-0.316 0.166,-0.657 0.176,-1.025 z m -6.252,1.346 v -0.676 c -0.002,-0.22 -0.076,-0.295 -0.297,-0.313 -0.033,-0.003 -0.064,-0.021 -0.097,-0.033 a 0.467,0.467 0 0 0 0.011,-0.04 H 29.2 l 0.02,0.025 c -0.024,0.017 -0.046,0.045 -0.072,0.05 -0.244,0.05 -0.279,0.088 -0.284,0.341 -0.004,0.188 0.003,0.376 -0.005,0.563 -0.002,0.042 -0.037,0.105 -0.073,0.12 -0.528,0.218 -1.078,0.3 -1.641,0.187 -0.739,-0.148 -1.236,-0.736 -1.25,-1.448 -0.015,-0.769 0.463,-1.422 1.186,-1.608 a 1.896,1.896 0 0 1 1.17,0.051 l 0.216,0.078 c 0.148,0.05 0.203,0.025 0.281,-0.112 0.018,-0.032 0.054,-0.053 0.082,-0.08 0.011,0.037 0.031,0.074 0.031,0.112 0.003,0.315 10e-4,0.63 10e-4,0.945 a 1.463,1.463 0 0 1 -0.04,0.021 c -0.026,-0.035 -0.061,-0.067 -0.077,-0.106 -0.112,-0.271 -0.277,-0.498 -0.534,-0.65 -0.575,-0.339 -1.209,-0.103 -1.402,0.532 -0.146,0.48 -0.152,0.968 -0.019,1.452 0.167,0.606 0.761,0.866 1.339,0.589 z"
     id="path20"
     inkscape:connector-curvature="0"
     style="fill:#828282" />
  <path
     d="m 30.257,80.325 v 1.059 c 0,0.113 0.055,0.192 0.17,0.205 0.3,0.032 0.598,0.029 0.872,-0.122 0.231,-0.126 0.352,-0.338 0.441,-0.576 0.013,-0.035 0.046,-0.062 0.07,-0.093 l 0.035,0.021 -0.133,0.942 c -0.039,0.002 -0.076,0.007 -0.113,0.007 h -2.383 c -0.021,0 -0.044,0.005 -0.064,-0.001 -0.02,-0.007 -0.036,-0.024 -0.054,-0.037 0.017,-0.014 0.032,-0.037 0.05,-0.041 0.367,-0.071 0.368,-0.071 0.368,-0.45 0,-0.696 0,-1.392 -0.002,-2.088 -10e-4,-0.242 -0.075,-0.316 -0.318,-0.335 -0.036,-0.003 -0.071,-0.02 -0.106,-0.03 l 0.011,-0.043 h 2.517 V 79.65 C 31.581,79.623 31.556,79.606 31.532,79.586 31.526,79.581 31.526,79.57 31.524,79.562 31.433,79.1 31.181,78.917 30.672,78.916 h -0.414 v 1.216 c 0.253,0.038 0.438,-0.057 0.532,-0.288 0.041,-0.101 0.056,-0.213 0.087,-0.319 0.011,-0.038 0.035,-0.071 0.052,-0.107 a 0.64,0.64 0 0 1 0.039,0.016 v 1.57 l -0.025,0.021 C 30.921,80.997 30.889,80.972 30.878,80.94 30.847,80.843 30.834,80.74 30.796,80.646 30.694,80.394 30.56,80.317 30.257,80.325 Z m 7.892,1.384 v -0.295 h 0.174 c 0.185,-0.003 0.209,-0.024 0.209,-0.206 0.002,-0.406 0.001,-0.812 0.001,-1.218 0,-0.261 0.002,-0.521 -0.001,-0.782 -0.003,-0.242 -0.014,-0.25 -0.27,-0.244 v 0.883 h -0.296 c -0.029,-0.088 -0.054,-0.181 -0.09,-0.271 -0.13,-0.321 -0.413,-0.515 -0.73,-0.504 -0.312,0.01 -0.575,0.215 -0.686,0.543 a 1.92,1.92 0 0 0 0.016,1.257 c 0.157,0.466 0.677,0.632 1.125,0.362 0.126,-0.076 0.234,-0.185 0.341,-0.288 0.089,-0.086 0.164,-0.185 0.266,-0.303 0,0.216 0.002,0.409 -0.003,0.601 -10e-4,0.027 -0.036,0.055 -0.06,0.078 -0.508,0.512 -1.115,0.568 -1.764,0.362 -0.534,-0.17 -0.851,-0.559 -0.963,-1.1 a 1.616,1.616 0 0 1 1.657,-1.931 c 0.217,0.011 0.431,0.089 0.646,0.138 0.06,0.014 0.118,0.036 0.19,0.059 l 0.051,-0.219 c 0.66,0.015 1.324,-0.001 1.981,0.055 0.645,0.055 1.114,0.561 1.211,1.203 0.054,0.358 0.028,0.707 -0.128,1.038 -0.227,0.485 -0.639,0.733 -1.144,0.77 -0.573,0.045 -1.151,0.012 -1.733,0.012 z m 0.108,-2.909 0.012,0.032 0.075,0.006 c 0.231,0.007 0.3,0.064 0.302,0.296 0.007,0.705 0.007,1.409 0.004,2.114 -10e-4,0.218 -0.068,0.272 -0.287,0.288 -0.035,0.003 -0.07,0.02 -0.105,0.031 l 0.009,0.041 c 0.255,0 0.511,0.003 0.766,-0.001 0.286,-0.005 0.575,0.009 0.856,-0.029 0.535,-0.072 0.939,-0.342 1.091,-0.885 a 2.11,2.11 0 0 0 0.063,-0.644 c -0.021,-0.496 -0.367,-1.17 -1.087,-1.237 -0.542,-0.05 -1.091,-0.033 -1.637,-0.044 -0.02,-0.001 -0.041,0.021 -0.062,0.032 z m -0.179,2.208 c -0.132,0.109 -0.253,0.23 -0.394,0.32 -0.462,0.294 -1.066,0.166 -1.268,-0.284 -0.233,-0.52 -0.252,-1.063 -0.023,-1.59 0.224,-0.517 0.871,-0.661 1.314,-0.311 0.164,0.129 0.261,0.3 0.323,0.495 0.012,0.038 0.04,0.07 0.061,0.106 l 0.032,-0.017 v -0.954 a 0.124,0.124 0 0 0 -0.084,0.072 c -0.046,0.11 -0.124,0.147 -0.236,0.109 -0.073,-0.024 -0.145,-0.05 -0.217,-0.076 a 1.677,1.677 0 0 0 -0.779,-0.093 c -0.812,0.096 -1.434,0.928 -1.282,1.724 0.1,0.524 0.387,0.904 0.901,1.065 0.552,0.173 1.085,0.151 1.551,-0.257 a 0.29,0.29 0 0 0 0.101,-0.309 z M 25.309,79.757 a 0.43150261,0.43150261 0 1 1 -0.003,0.863 0.43,0.43 0 0 1 -0.434,-0.44 0.424,0.424 0 0 1 0.437,-0.423 z"
     id="path22"
     inkscape:connector-curvature="0"
     style="fill:#828282" />
  <path
     d="m 22.645,65.893 3.32,3.31 c -0.202,0.115 -0.146,0.309 -0.147,0.487 -0.002,0.722 -0.002,1.444 -0.002,2.166 0,0.029 0.003,0.059 0.006,0.104 h 0.14 c 0.867,0.001 1.735,0.002 2.602,0 0.088,0 0.148,0.025 0.212,0.088 0.765,0.752 1.533,1.5 2.306,2.256 -0.063,0.069 -0.089,0.101 -0.117,0.13 -0.87,0.87 -1.74,1.74 -2.614,2.606 a 0.291,0.291 0 0 1 -0.187,0.075 c -1.568,0.004 -3.136,0.002 -4.704,0.004 a 0.255,0.255 0 0 1 -0.2,-0.084 C 22.15,75.921 21.038,74.81 19.93,73.694 a 0.293,0.293 0 0 1 -0.077,-0.186 1059.53,1059.53 0 0 1 0,-4.717 c 0,-0.057 0.021,-0.13 0.06,-0.168 0.892,-0.897 1.787,-1.79 2.682,-2.684 a 0.338,0.338 0 0 1 0.05,-0.046 z m 4.186,6.589 c -0.08,0.165 -0.16,0.301 -0.214,0.447 -0.095,0.26 -0.174,0.526 -0.258,0.789 -0.219,0.688 -0.694,1.093 -1.393,1.223 -0.514,0.096 -1.032,0.119 -1.555,-0.138 0.198,0.308 0.423,0.527 0.749,0.624 0.38,0.114 0.767,0.099 1.156,0.062 0.236,-0.022 0.469,-0.058 0.659,-0.213 0.932,-0.753 1.136,-1.647 0.856,-2.794 z m -2.77,-1.822 c 0.105,0.005 0.175,0.001 0.241,0.013 0.087,0.015 0.143,-0.011 0.186,-0.09 0.063,-0.116 0.133,-0.228 0.205,-0.339 0.065,-0.1 0.07,-0.194 0.003,-0.297 -0.088,-0.135 -0.181,-0.27 -0.251,-0.415 -0.074,-0.152 -0.182,-0.18 -0.343,-0.189 -0.218,-0.012 -0.359,0.048 -0.455,0.247 -0.062,0.129 -0.213,0.241 -0.219,0.366 -0.006,0.13 0.124,0.262 0.176,0.4 0.09,0.233 0.222,0.377 0.457,0.304 z M 22,71.839 c 0.089,-0.001 0.422,-0.255 0.44,-0.316 0.002,-0.008 0.005,-0.018 10e-4,-0.025 -0.071,-0.133 -0.11,-0.318 -0.221,-0.388 -0.356,-0.223 -0.707,0 -0.777,0.379 -0.003,0.017 0.004,0.045 0.017,0.056 0.162,0.15 0.339,0.272 0.54,0.294 z m 10.588,0.962 c 0.317,-0.154 0.627,-0.305 0.938,-0.453 0.071,-0.034 0.101,-0.079 0.127,-0.156 0.13,-0.385 0.071,-0.766 0.002,-1.149 a 1.764,1.764 0 0 1 -0.018,-0.127 c -0.003,-0.025 -0.003,-0.05 -0.005,-0.09 l 1.408,-0.316 0.213,0.91 c 0.021,0.091 0.029,0.188 0.064,0.274 0.149,0.372 0.073,0.737 -0.025,1.101 -0.01,0.038 -0.058,0.081 -0.098,0.093 -0.15,0.047 -0.303,0.092 -0.458,0.119 -0.1,0.018 -0.13,0.071 -0.147,0.159 -0.05,0.26 -0.105,0.518 -0.158,0.777 -0.011,0.056 -0.021,0.099 -0.097,0.108 -0.347,0.043 -0.693,0.096 -1.04,0.14 -0.038,0.005 -0.09,-0.02 -0.121,-0.048 A 5.572,5.572 0 0 1 32.848,73.834 0.28,0.28 0 0 1 32.78,73.703 C 32.715,73.41 32.654,73.114 32.588,72.801 Z m -1.65,-3.263 c -0.033,0.326 -0.062,0.623 -0.097,0.919 -0.004,0.036 -0.042,0.083 -0.077,0.098 -0.18,0.078 -0.362,0.15 -0.546,0.216 A 0.152,0.152 0 0 1 30.094,70.75 16.31,16.31 0 0 1 29.498,70.267 c -0.031,-0.026 -0.051,-0.087 -0.048,-0.129 0.025,-0.286 0.051,-0.537 0.093,-0.851 0.005,-0.04 0.058,-0.075 0.09,-0.111 0.002,-0.003 0.008,-0.001 0.012,-0.002 l 0.57,-0.133 c 0.23,0.147 0.46,0.292 0.688,0.441 0.023,0.014 0.032,0.051 0.035,0.056 z m 0.906,-1.764 c 0.024,0.004 0.057,0.009 0.089,0.016 0.418,0.084 0.42,0.083 0.569,0.486 0.013,0.034 -0.005,0.084 -0.021,0.122 -0.013,0.03 -0.044,0.051 -0.067,0.076 -0.292,0.323 -0.292,0.323 -0.709,0.211 -0.024,-0.006 -0.063,-0.018 -0.065,-0.03 -0.016,-0.129 -0.061,-0.269 -0.029,-0.387 0.044,-0.168 0.147,-0.32 0.233,-0.494 z"
     id="path24"
     inkscape:connector-curvature="0"
     style="fill:#171717" />
  <path
     d="m 39.334,78.93 c 0.381,-0.052 0.605,0.055 0.789,0.378 0.153,0.268 0.19,0.562 0.192,0.863 0.002,0.3 -0.016,0.597 -0.14,0.877 -0.127,0.288 -0.349,0.422 -0.659,0.406 -0.14,-0.007 -0.189,-0.047 -0.19,-0.184 -0.003,-0.772 -0.002,-1.544 -0.002,-2.317 0,-0.008 0.006,-0.015 0.01,-0.023 z m 0.115,2.386 c 0.315,0.045 0.511,-0.062 0.624,-0.343 0.118,-0.295 0.133,-0.606 0.117,-0.919 -0.015,-0.29 -0.075,-0.564 -0.251,-0.805 -0.125,-0.171 -0.296,-0.209 -0.49,-0.199 z"
     id="path26"
     inkscape:connector-curvature="0"
     style="fill:#828282" />
  <g
     id="g32">
    <path
       d="m 82.34,139.842 a 2.097,2.097 0 0 1 -0.004,0.095 c -0.011,0.101 0,0.149 -0.291,0.149 -0.291,0 -0.279,-0.048 -0.291,-0.149 a 5.565,5.565 0 0 1 0,-0.594 c 0.011,-0.101 0,-0.149 0.291,-0.149 0.291,0 0.279,0.048 0.291,0.149 0.002,0.014 0.003,0.053 0.004,0.101 h 0.398 a 3.636,3.636 0 0 0 -0.011,-0.205 c -0.023,-0.202 0.057,-0.395 -0.681,-0.395 -0.738,0 -0.658,0.193 -0.681,0.395 a 4.883,4.883 0 0 0 -0.014,0.401 c 0.001,0.168 0.006,0.335 0.014,0.401 0.023,0.202 -0.057,0.395 0.681,0.395 0.738,0 0.658,-0.193 0.681,-0.395 0.004,-0.038 0.008,-0.111 0.01,-0.199 z m -4.719,-0.957 -0.389,1.134 -0.388,-1.134 -0.581,-0.003 v 1.522 h 0.388 v -1.134 l 0.389,1.134 h 0.388 l 0.385,-1.134 v 1.134 h 0.389 v -1.522 z m 5.204,-0.003 h 1.116 v 0.388 h -0.364 v 1.134 h -0.388 v -1.134 h -0.364 z m -2.994,1.522 0.446,-1.524 h 0.579 l 0.446,1.524 h -0.388 l -0.092,-0.315 h -0.509 l 0.072,-0.247 h 0.364 l -0.181,-0.621 -0.348,1.183 z m -4.503,-1.209 c 0.291,0 0.279,0.048 0.291,0.149 0.004,0.033 0.006,0.212 0.007,0.297 0,0.084 -0.003,0.264 -0.007,0.297 -0.011,0.101 0,0.149 -0.291,0.149 -0.291,0 -0.279,-0.048 -0.291,-0.149 a 5.565,5.565 0 0 1 0,-0.594 c 0.012,-0.102 0,-0.149 0.291,-0.149 v -0.35 c -0.738,0 -0.658,0.193 -0.681,0.395 a 4.883,4.883 0 0 0 -0.014,0.401 c 0.001,0.168 0.006,0.335 0.014,0.401 0.023,0.202 -0.057,0.395 0.681,0.395 0.738,0 0.658,-0.193 0.681,-0.395 0.007,-0.066 0.013,-0.232 0.014,-0.401 a 4.123,4.123 0 0 0 -0.014,-0.401 c -0.023,-0.202 0.057,-0.395 -0.681,-0.395 z m -1.311,0.647 a 2.097,2.097 0 0 1 -0.004,0.095 c -0.011,0.101 0,0.149 -0.291,0.149 -0.291,0 -0.279,-0.048 -0.291,-0.149 a 5.565,5.565 0 0 1 0,-0.594 c 0.011,-0.101 0,-0.149 0.291,-0.149 0.291,0 0.279,0.048 0.291,0.149 0.002,0.014 0.003,0.053 0.004,0.101 h 0.398 a 3.636,3.636 0 0 0 -0.011,-0.205 c -0.023,-0.202 0.057,-0.395 -0.681,-0.395 -0.738,0 -0.658,0.193 -0.681,0.395 a 4.883,4.883 0 0 0 -0.014,0.401 c 10e-4,0.168 0.006,0.335 0.014,0.401 0.023,0.202 -0.057,0.395 0.681,0.395 0.738,0 0.658,-0.193 0.681,-0.395 a 3.4,3.4 0 0 0 0.011,-0.199 z m 5.13,0.214 h -0.236 v -0.347 l 0.236,-0.001 c 0.291,0 0.282,-0.048 0.293,-0.149 0.004,-0.033 0.003,-0.006 0.003,-0.09 0,-0.084 0.001,-0.055 -0.003,-0.088 -0.011,-0.101 -0.002,-0.149 -0.293,-0.149 l -0.236,0.001 v 1.17 h -0.389 v -1.521 h 0.624 c 0.738,0 0.657,0.194 0.684,0.395 0.003,0.024 0.003,0.134 0.003,0.193 0,0.048 0,0.158 -0.003,0.193 -0.017,0.202 0.055,0.393 -0.683,0.393 z m -7.552,6.082 -2.431,-0.003 a 0.637,0.637 0 0 1 -0.637,-0.637 v -3.7 c 0,-0.352 0.285,-0.637 0.637,-0.637 l 1.521,-0.002 a 0.33,0.33 0 0 0 0.331,-0.331 l 0.004,-1.479 c 0,-0.077 0.062,-0.139 0.139,-0.139 h 0.892 c 0.077,0 0.139,0.062 0.139,0.139 L 72.2,146 a 0.139,0.139 0 0 1 -0.139,0.139 l -0.466,-0.001 -0.011,0.33 h 0.608 a 0.33,0.33 0 0 0 0.331,-0.331 v -6.928 a 0.33,0.33 0 0 0 -0.331,-0.331 h -1.17 a 0.33,0.33 0 0 0 -0.331,0.331 l 0.002,1.483 a 0.139,0.139 0 0 1 -0.139,0.139 l -1.39,-0.003 a 0.971,0.971 0 0 0 -0.971,0.971 v 3.7 c 0,0.536 0.435,0.971 0.971,0.971 l 2.419,-0.001 z"
       id="path28"
       inkscape:connector-curvature="0"
       style="fill:#828282" />
    <path
       d="m 70.692,144.776 v -2.394 a 0.363,0.363 0 1 0 -0.726,0 v 2.584 a 0.363,0.363 0 1 0 0.726,0 v -0.19 l 0.33,0.011 v 0.179 a 0.693,0.693 0 1 1 -1.386,0 v -2.584 a 0.693,0.693 0 1 1 1.386,0 v 2.405 z m 3.214,1.362 h -0.455 a 0.139,0.139 0 0 1 -0.139,-0.139 l 0.006,-4.696 c 0,-0.077 0.062,-0.139 0.139,-0.139 h 0.892 c 0.077,0 0.139,0.062 0.139,0.139 l 0.009,4.696 a 0.139,0.139 0 0 1 -0.139,0.139 h -0.452 v 0.329 l 0.583,10e-4 a 0.33,0.33 0 0 0 0.331,-0.331 v -4.975 a 0.33,0.33 0 0 0 -0.331,-0.331 h -1.17 a 0.33,0.33 0 0 0 -0.331,0.331 l -0.001,4.973 a 0.33,0.33 0 0 0 0.33,0.331 l 0.589,0.001 z m 4.201,-4.049 -0.98,-0.001 a 0.546,0.546 0 0 0 0,1.092 l 1.342,0.004 c 0.352,0 0.637,0.285 0.637,0.637 l -0.004,1.671 a 0.637,0.637 0 0 1 -0.637,0.637 l -2.665,0.005 a 0.139,0.139 0 0 1 -0.139,-0.139 v -0.647 c 0,-0.077 0.062,-0.139 0.139,-0.139 l 1.816,-0.006 a 0.546,0.546 0 0 0 0,-1.092 l -1.315,-0.005 a 0.637,0.637 0 0 1 -0.637,-0.637 V 141.8 c 0,-0.352 0.285,-0.637 0.637,-0.637 l 2.47,-0.012 c 0.077,0 0.139,0.062 0.139,0.139 v 0.662 a 0.139,0.139 0 0 1 -0.139,0.139 l -0.664,-0.002 -0.011,0.325 h 0.812 a 0.33,0.33 0 0 0 0.331,-0.33 l 10e-4,-0.927 a 0.33,0.33 0 0 0 -0.331,-0.331 l -2.608,0.001 a 0.971,0.971 0 0 0 -0.971,0.971 v 1.669 c 0,0.536 0.435,0.971 0.971,0.971 l 1.315,-0.002 a 0.219,0.219 0 1 1 0,0.438 h -1.957 a 0.33,0.33 0 0 0 -0.331,0.331 v 0.925 a 0.33,0.33 0 0 0 0.331,0.331 l 2.806,-0.001 a 0.971,0.971 0 0 0 0.971,-0.971 l 0.004,-1.671 a 0.971,0.971 0 0 0 -0.971,-0.971 l -1.342,0.004 a 0.219,0.219 0 1 1 0,-0.438 h 0.968 z m 4.938,0.918 h 0.421 a 0.139,0.139 0 0 0 0.139,-0.139 l -0.002,-1.069 a 0.637,0.637 0 0 0 -0.637,-0.637 H 80.86 a 0.637,0.637 0 0 0 -0.637,0.637 v 3.7 c 0,0.352 0.285,0.637 0.637,0.637 h 2.105 a 0.637,0.637 0 0 0 0.637,-0.637 l 0.002,-1.017 a 0.139,0.139 0 0 0 -0.139,-0.139 h -0.794 a 0.139,0.139 0 0 0 -0.139,0.139 l 0.004,0.485 c 0,0.383 -0.241,0.693 -0.624,0.693 -0.383,0 -0.624,-0.31 -0.624,-0.693 v -2.584 c 0,-0.383 0.241,-0.693 0.624,-0.693 0.383,0 0.624,0.31 0.624,0.693 l -0.004,0.485 c 0,0.077 0.062,0.139 0.139,0.139 h 0.374 l -0.011,0.333 h -0.5 a 0.33,0.33 0 0 1 -0.331,-0.331 l 0.004,-0.627 c 0,-0.201 -0.093,-0.363 -0.294,-0.363 -0.201,0 -0.294,0.163 -0.294,0.363 v 2.584 c 0,0.201 0.093,0.363 0.294,0.363 0.201,0 0.294,-0.163 0.294,-0.363 l -0.004,-0.626 a 0.33,0.33 0 0 1 0.331,-0.331 h 1.072 a 0.33,0.33 0 0 1 0.331,0.331 l -10e-4,1.158 a 0.971,0.971 0 0 1 -0.971,0.971 H 80.86 a 0.971,0.971 0 0 1 -0.971,-0.971 v -3.7 c 0,-0.536 0.435,-0.971 0.971,-0.971 h 2.105 c 0.536,0 0.971,0.435 0.971,0.971 l 10e-4,1.211 a 0.33,0.33 0 0 1 -0.331,0.331 h -0.573 z"
       id="path30"
       inkscape:connector-curvature="0"
       style="fill:#828282" />
  </g>
  <g
     id="g36"
     style="fill:#a8a8a8">
    <path
       d="m 18.969,87.953 0.616,1.643 0.619,-1.643 h 0.356 v 1.955 h -0.246 v -1.627 h -0.006 l -0.61,1.627 h -0.222 l -0.61,-1.627 H 18.86 v 1.627 h -0.246 v -1.955 z m 2.788,0 0.764,1.955 H 22.233 L 22.02,89.319 h -0.827 l -0.219,0.589 h -0.266 l 0.762,-1.955 z m 0.181,1.148 -0.326,-0.912 h -0.005 l -0.332,0.912 z m 1.391,-1.148 c 0.301,0 0.533,0.076 0.695,0.229 0.162,0.153 0.244,0.388 0.244,0.701 0,0.164 -0.018,0.311 -0.055,0.437 a 0.823,0.823 0 0 1 -0.17,0.321 c -0.077,0.086 -0.174,0.152 -0.293,0.198 -0.119,0.046 -0.259,0.068 -0.421,0.068 h -0.671 v -1.955 h 0.671 z m 0.022,1.736 a 0.67,0.67 0 0 0 0.396,-0.115 0.495,0.495 0 0 0 0.13,-0.135 0.732,0.732 0 0 0 0.095,-0.212 c 0.024,-0.085 0.037,-0.188 0.037,-0.308 0,-0.117 -0.011,-0.222 -0.034,-0.313 A 0.588,0.588 0 0 0 23.863,88.37 C 23.811,88.306 23.744,88.257 23.662,88.223 23.58,88.189 23.478,88.172 23.358,88.172 H 22.92 v 1.518 h 0.431 z m 2.529,-1.736 v 0.219 h -1.09 v 0.622 h 1.016 v 0.219 H 24.79 v 0.677 h 1.098 v 0.219 H 24.53 v -1.955 h 1.35 z m 1.247,0 v 1.955 h -0.26 v -1.955 z m 0.657,0 1.03,1.585 h 0.005 v -1.585 h 0.247 v 1.955 H 28.781 L 27.76,88.339 h -0.005 v 1.569 h -0.247 v -1.955 z m 3.321,1.662 a 0.447,0.447 0 0 1 -0.274,0.292 0.757,0.757 0 0 1 -0.275,0.045 c -0.183,0 -0.323,-0.048 -0.422,-0.144 -0.099,-0.097 -0.148,-0.237 -0.148,-0.424 v -0.12 h 0.26 v 0.082 c 0,0.057 0.004,0.108 0.014,0.156 0.01,0.048 0.025,0.089 0.048,0.123 0.023,0.035 0.055,0.062 0.096,0.081 0.041,0.019 0.093,0.028 0.157,0.028 0.119,0 0.2,-0.031 0.245,-0.096 a 0.435,0.435 0 0 0 0.067,-0.257 v -1.43 h 0.26 v 1.468 a 0.678,0.678 0 0 1 -0.028,0.196 z m 1.219,-1.662 0.764,1.955 H 32.8 L 32.587,89.319 H 31.76 l -0.219,0.589 h -0.266 l 0.762,-1.955 z m 0.181,1.148 -0.326,-0.912 h -0.005 l -0.332,0.912 z m 1.578,-1.148 c 0.197,0 0.346,0.051 0.448,0.151 0.101,0.102 0.152,0.244 0.152,0.426 0,0.183 -0.051,0.325 -0.152,0.428 -0.102,0.103 -0.25,0.152 -0.448,0.15 h -0.597 v 0.8 h -0.26 v -1.955 z m -0.088,0.937 c 0.148,0.002 0.256,-0.028 0.325,-0.091 0.068,-0.062 0.103,-0.151 0.103,-0.269 0,-0.116 -0.034,-0.205 -0.103,-0.267 -0.069,-0.062 -0.177,-0.092 -0.325,-0.092 h -0.509 v 0.718 h 0.509 z m 1.566,-0.937 0.764,1.955 h -0.288 l -0.213,-0.589 h -0.827 l -0.219,0.589 h -0.266 l 0.762,-1.955 z m 0.181,1.148 -0.326,-0.912 h -0.005 l -0.332,0.912 z m 0.994,-1.148 1.03,1.585 h 0.005 v -1.585 h 0.247 v 1.955 h -0.285 l -1.021,-1.569 h -0.005 v 1.569 H 36.46 v -1.955 z m -14.987,3.552 0.877,2.347 H 22.09 L 21.913,93.33 h -0.877 l -0.184,0.522 h -0.519 l 0.887,-2.347 z m 0.03,1.439 -0.296,-0.86 h -0.006 l -0.306,0.86 z m 1.997,-1.439 c 0.151,0 0.292,0.024 0.422,0.072 a 0.93,0.93 0 0 1 0.562,0.579 c 0.054,0.144 0.081,0.314 0.081,0.509 0,0.171 -0.022,0.329 -0.066,0.474 -0.044,0.145 -0.11,0.27 -0.199,0.374 a 0.93,0.93 0 0 1 -0.332,0.248 1.11,1.11 0 0 1 -0.468,0.091 h -1.012 v -2.347 z m -0.036,1.913 a 0.663,0.663 0 0 0 0.217,-0.036 c 0.07,-0.024 0.133,-0.064 0.188,-0.12 0.055,-0.056 0.099,-0.129 0.131,-0.219 a 0.956,0.956 0 0 0 0.049,-0.328 1.36,1.36 0 0 0 -0.034,-0.32 0.624,0.624 0 0 0 -0.114,-0.245 C 24.125,92.082 24.055,92.03 23.969,91.994 23.883,91.958 23.776,91.94 23.649,91.94 H 23.28 v 1.479 h 0.46 z m 2.899,-1.287 a 0.546,0.546 0 0 0 -0.271,-0.217 0.533,0.533 0 0 0 -0.183,-0.031 c -0.116,0 -0.215,0.022 -0.296,0.067 -0.081,0.045 -0.146,0.105 -0.197,0.181 a 0.783,0.783 0 0 0 -0.11,0.259 1.275,1.275 0 0 0 0,0.586 c 0.023,0.094 0.06,0.177 0.11,0.252 0.05,0.074 0.116,0.134 0.197,0.179 0.081,0.045 0.18,0.067 0.296,0.067 0.158,0 0.281,-0.048 0.37,-0.145 0.089,-0.097 0.143,-0.224 0.163,-0.381 h 0.5 c -0.013,0.146 -0.047,0.279 -0.102,0.397 -0.055,0.118 -0.127,0.219 -0.217,0.302 a 0.913,0.913 0 0 1 -0.316,0.191 c -0.12,0.043 -0.253,0.065 -0.397,0.065 -0.18,0 -0.341,-0.031 -0.485,-0.094 -0.144,-0.063 -0.264,-0.148 -0.363,-0.258 -0.099,-0.11 -0.174,-0.238 -0.227,-0.387 a 1.427,1.427 0 0 1 -0.079,-0.478 c 0,-0.176 0.026,-0.338 0.079,-0.488 0.053,-0.15 0.128,-0.281 0.227,-0.393 0.099,-0.112 0.219,-0.199 0.363,-0.263 0.144,-0.064 0.305,-0.096 0.485,-0.096 0.129,0 0.251,0.019 0.366,0.056 0.115,0.037 0.218,0.092 0.309,0.163 0.091,0.071 0.166,0.159 0.225,0.265 a 0.939,0.939 0 0 1 0.112,0.361 h -0.5 a 0.408,0.408 0 0 0 -0.059,-0.16 z m 1.876,-0.626 c 0.151,0 0.292,0.024 0.422,0.072 a 0.93,0.93 0 0 1 0.562,0.579 c 0.054,0.144 0.081,0.314 0.081,0.509 0,0.171 -0.022,0.329 -0.066,0.474 -0.044,0.145 -0.11,0.27 -0.199,0.374 a 0.93,0.93 0 0 1 -0.332,0.248 1.11,1.11 0 0 1 -0.468,0.091 h -1.012 v -2.347 z m -0.036,1.913 a 0.663,0.663 0 0 0 0.217,-0.036 c 0.07,-0.024 0.133,-0.064 0.188,-0.12 0.055,-0.056 0.099,-0.129 0.131,-0.219 A 0.956,0.956 0 0 0 29.064,92.715 1.36,1.36 0 0 0 29.03,92.395 0.624,0.624 0 0 0 28.916,92.15 C 28.864,92.082 28.794,92.03 28.708,91.994 28.622,91.958 28.515,91.94 28.388,91.94 H 28.02 v 1.479 h 0.459 z m 2.331,-0.664 v 0.401 h -0.99 v -0.401 z m 0.244,-0.626 c 0.045,-0.152 0.106,-0.274 0.183,-0.366 0.077,-0.092 0.166,-0.158 0.268,-0.197 a 0.88,0.88 0 0 1 0.324,-0.06 c 0.116,0 0.225,0.02 0.327,0.06 a 0.67,0.67 0 0 1 0.27,0.197 c 0.078,0.092 0.139,0.214 0.184,0.366 0.045,0.152 0.067,0.34 0.067,0.563 0,0.23 -0.022,0.423 -0.067,0.577 -0.045,0.154 -0.106,0.277 -0.184,0.369 a 0.657,0.657 0 0 1 -0.27,0.197 0.888,0.888 0 0 1 -0.327,0.06 0.88,0.88 0 0 1 -0.324,-0.06 C 31.403,93.795 31.314,93.729 31.237,93.637 31.16,93.545 31.099,93.422 31.054,93.268 31.009,93.114 30.987,92.921 30.987,92.691 a 1.977,1.977 0 0 1 0.067,-0.563 z m 0.406,0.802 c 0.004,0.093 0.019,0.183 0.042,0.27 0.023,0.087 0.06,0.16 0.11,0.222 0.05,0.062 0.123,0.092 0.217,0.092 0.097,0 0.17,-0.03 0.222,-0.092 A 0.573,0.573 0 0 0 32.162,93.2 c 0.023,-0.087 0.037,-0.177 0.042,-0.27 0.004,-0.093 0.006,-0.173 0.006,-0.238 L 32.209,92.549 A 1.766,1.766 0 0 0 32.163,92.2 C 32.149,92.142 32.127,92.09 32.099,92.044 32.071,91.998 32.035,91.961 31.991,91.933 31.947,91.905 31.893,91.89 31.83,91.89 c -0.063,0 -0.117,0.015 -0.159,0.043 a 0.329,0.329 0 0 0 -0.105,0.111 0.663,0.663 0 0 0 -0.064,0.156 1.3,1.3 0 0 0 -0.033,0.176 c -0.007,0.06 -0.01,0.117 -0.012,0.173 l -0.001,0.143 a 2.49,2.49 0 0 0 0.004,0.238 z m 1.355,-0.802 c 0.045,-0.152 0.106,-0.274 0.183,-0.366 0.077,-0.092 0.166,-0.158 0.268,-0.197 a 0.88,0.88 0 0 1 0.324,-0.06 c 0.116,0 0.225,0.02 0.327,0.06 a 0.67,0.67 0 0 1 0.27,0.197 c 0.078,0.092 0.139,0.214 0.184,0.366 0.045,0.152 0.067,0.34 0.067,0.563 0,0.23 -0.022,0.423 -0.067,0.577 -0.045,0.154 -0.106,0.277 -0.184,0.369 a 0.657,0.657 0 0 1 -0.27,0.197 0.888,0.888 0 0 1 -0.327,0.06 0.88,0.88 0 0 1 -0.324,-0.06 c -0.102,-0.039 -0.191,-0.105 -0.268,-0.197 -0.077,-0.092 -0.138,-0.215 -0.183,-0.369 -0.045,-0.154 -0.067,-0.347 -0.067,-0.577 0,-0.223 0.022,-0.411 0.067,-0.563 z m 0.406,0.802 c 0.004,0.093 0.019,0.183 0.042,0.27 0.023,0.087 0.06,0.16 0.11,0.222 0.05,0.062 0.123,0.092 0.217,0.092 0.097,0 0.17,-0.03 0.222,-0.092 A 0.573,0.573 0 0 0 33.923,93.2 c 0.023,-0.087 0.037,-0.177 0.042,-0.27 0.004,-0.093 0.006,-0.173 0.006,-0.238 L 33.97,92.549 A 1.766,1.766 0 0 0 33.924,92.2 C 33.91,92.142 33.888,92.09 33.86,92.044 33.832,91.998 33.796,91.961 33.752,91.933 33.708,91.905 33.654,91.89 33.591,91.89 c -0.063,0 -0.117,0.015 -0.159,0.043 a 0.329,0.329 0 0 0 -0.105,0.111 0.663,0.663 0 0 0 -0.064,0.156 1.3,1.3 0 0 0 -0.033,0.176 c -0.007,0.06 -0.01,0.117 -0.012,0.173 l -0.001,0.143 a 2.49,2.49 0 0 0 0.004,0.238 z m 2.13,-0.449 c 0.057,-0.005 0.11,-0.018 0.16,-0.038 0.05,-0.02 0.09,-0.051 0.122,-0.09 a 0.246,0.246 0 0 0 0.047,-0.158 0.273,0.273 0 0 0 -0.099,-0.227 0.349,0.349 0 0 0 -0.227,-0.079 c -0.118,0 -0.208,0.039 -0.268,0.116 A 0.458,0.458 0 0 0 34.999,92.3 h -0.443 a 0.953,0.953 0 0 1 0.064,-0.324 0.727,0.727 0 0 1 0.409,-0.414 0.87,0.87 0 0 1 0.322,-0.058 c 0.092,0 0.184,0.014 0.276,0.041 a 0.78,0.78 0 0 1 0.248,0.124 0.672,0.672 0 0 1 0.179,0.2 c 0.046,0.079 0.069,0.17 0.069,0.272 0,0.112 -0.027,0.211 -0.081,0.296 -0.054,0.085 -0.134,0.144 -0.242,0.174 v 0.007 c 0.127,0.028 0.227,0.09 0.299,0.185 a 0.54,0.54 0 0 1 0.108,0.338 0.697,0.697 0 0 1 -0.26,0.558 0.856,0.856 0 0 1 -0.272,0.145 c -0.103,0.033 -0.21,0.05 -0.322,0.05 -0.129,0 -0.247,-0.019 -0.353,-0.056 a 0.712,0.712 0 0 1 -0.443,-0.425 0.914,0.914 0 0 1 -0.058,-0.354 h 0.444 c 0.002,0.062 0.012,0.12 0.029,0.176 0.017,0.056 0.043,0.104 0.076,0.145 a 0.356,0.356 0 0 0 0.123,0.097 0.398,0.398 0 0 0 0.176,0.036 c 0.105,0 0.194,-0.032 0.266,-0.097 0.072,-0.065 0.108,-0.152 0.108,-0.265 a 0.334,0.334 0 0 0 -0.051,-0.2 0.304,0.304 0 0 0 -0.129,-0.101 0.56,0.56 0 0 0 -0.173,-0.036 3.773,3.773 0 0 0 -0.179,-0.005 v -0.328 c 0.051,0.004 0.105,0.004 0.162,0 z"
       id="path34"
       inkscape:connector-curvature="0" />
  </g>
</svg>
