<?xml version="1.0" encoding="UTF-8" standalone="no"?>
<svg
   xmlns:dc="http://purl.org/dc/elements/1.1/"
   xmlns:cc="http://creativecommons.org/ns#"
   xmlns:rdf="http://www.w3.org/1999/02/22-rdf-syntax-ns#"
   xmlns:svg="http://www.w3.org/2000/svg"
   xmlns="http://www.w3.org/2000/svg"
   xmlns:sodipodi="http://sodipodi.sourceforge.net/DTD/sodipodi-0.dtd"
   xmlns:inkscape="http://www.inkscape.org/namespaces/inkscape"
   viewBox="0 0 117.334 281.167"
   version="1.1"
   id="svg108"
   sodipodi:docname="controller.svg"
   width="117.334"
   height="281.16699"
   inkscape:version="0.92.4 5da689c313, 2019-01-14">
  <metadata
     id="metadata114">
    <rdf:RDF>
      <cc:Work
         rdf:about="">
        <dc:format>image/svg+xml</dc:format>
        <dc:type
           rdf:resource="http://purl.org/dc/dcmitype/StillImage" />
      </cc:Work>
    </rdf:RDF>
  </metadata>
  <defs
     id="defs112" />
  <sodipodi:namedview
     pagecolor="#ffffff"
     bordercolor="#666666"
     borderopacity="1"
     objecttolerance="10"
     gridtolerance="10"
     guidetolerance="10"
     inkscape:pageopacity="0"
     inkscape:pageshadow="2"
     inkscape:window-width="471"
     inkscape:window-height="442"
     id="namedview110"
     showgrid="false"
     inkscape:zoom="0.83935884"
     inkscape:cx="58.6665"
     inkscape:cy="140.5835"
     inkscape:window-x="0"
     inkscape:window-y="0"
     inkscape:window-maximized="0"
     inkscape:current-layer="svg108">
    <inkscape:grid
       type="xygrid"
       id="grid116"
       originx="0"
       originy="7.8125002e-06" />
  </sodipodi:namedview>
  <path
     d="M 0,274.171 V 6.995 C 0,3.148 3.148,0 6.995,0 h 103.343 c 3.847,0 6.995,3.148 6.995,6.995 v 267.176 c 0,3.847 -3.148,6.995 -6.995,6.995 H 6.995 C 3.148,281.167 0,278.019 0,274.171 Z"
     id="path2"
     inkscape:connector-curvature="0"
     style="fill:#1b1b1d" />
  <path
     stroke-miterlimit="10"
     d="m 17.75,70.833 h 3.99"
     id="path4"
     inkscape:connector-curvature="0"
     style="fill:none;stroke:#45444c;stroke-width:0.25;stroke-miterlimit:10" />
  <path
     d="m 18.979,124.963 v 152.37 h 60.187 v -152.24 c 0,-0.005 0.755,-1.698 1.549,-1.698 h 32.492 V 18.333 H 3.982 A 0.149,0.149 0 0 0 3.833,18.482 L 4.125,124 l 13.177,0.021 c 0.866,0 1.677,0.077 1.677,0.942 z"
     id="path6"
     inkscape:connector-curvature="0"
     style="fill:#1b1b1d" />
  <path
     d="M 5.75,120.68 V 20.703 c 0,-0.273 0.222,-0.495 0.494,-0.495 h 105.412 c 0.213,0 0.386,0.173 0.386,0.385 v 100.3 c 0,0.24 -0.195,0.435 -0.435,0.435 H 80.802 a 3.347,3.347 0 0 0 -3.344,3.343 v 149.207 c 0,0.871 -0.696,1.58 -1.551,1.58 H 21.171 c -0.855,0 -1.552,-0.709 -1.552,-1.58 V 124.672 c 0,-1.843 -1.5,-3.343 -3.344,-3.343 H 6.399 A 0.65,0.65 0 0 1 5.75,120.68 Z M 111.792,20.594 a 0.135,0.135 0 0 0 -0.136,-0.135 H 6.244 A 0.244,0.244 0 0 0 6,20.703 v 99.977 a 0.4,0.4 0 0 0 0.398,0.399 h 9.877 a 3.598,3.598 0 0 1 3.594,3.593 v 149.207 c 0,0.733 0.584,1.33 1.302,1.33 h 54.736 c 0.717,0 1.301,-0.597 1.301,-1.33 V 124.672 a 3.598,3.598 0 0 1 3.594,-3.593 h 30.805 a 0.185,0.185 0 0 0 0.185,-0.185 z"
     id="path8"
     inkscape:connector-curvature="0" />
  <path
     d="m 65.116,174.342 v 43 h -43 v -43 z"
     id="path10"
     inkscape:connector-curvature="0"
     style="fill:#595763" />
  <circle
     cx="43.616001"
     cy="195.841"
     r="17.82"
     id="circle12"
     style="fill:#060606" />
  <circle
     cx="43.616001"
     cy="195.841"
     r="17.5"
     id="circle14"
     style="fill:#1a1d1f" />
  <circle
     cx="43.616001"
     cy="195.841"
     r="13.365"
     id="circle16"
     style="fill:#060606" />
  <circle
     cx="43.616001"
     cy="195.841"
     r="13"
     id="circle18"
     style="fill:#151618" />
  <path
     d="m 74.365,174.341 v 43 h -7.157 v -43 z"
     id="path20"
     inkscape:connector-curvature="0"
     style="fill:#841116" />
  <g
     id="g24"
     style="fill:#ffffff">
    <path
       d="m 70.149,194.653 1.125,-0.001 c 0.3,-0.003 0.45,0.089 0.45,0.277 v 3.386 l -0.675,0.025 v -2.986 l -0.675,-0.001 v 2.625 c 0,0.235 -0.15,0.354 -0.45,0.358 l -1.125,10e-4 c -0.3,-0.012 -0.45,-0.113 -0.45,-0.301 v -3.386 l 0.675,-0.025 v 2.986 l 0.675,0.001 v -2.625 c 0,-0.219 0.15,-0.331 0.45,-0.334 z m 0.9,3.97 0.675,-0.025 v 3.668 l -0.675,0.025 v -1.493 l -2.7,0.001 v -0.705 l 2.7,-0.001 z m -2.7,3.522 3.375,1.654 v 0.846 l -3.375,1.309 v -0.846 l 0.675,-0.29 v -1.629 l 0.675,0.338 v 1 l 1.125,-0.436 -2.475,-1.241 z m 3.375,4.212 v 3.386 c 0,0.188 -0.144,0.287 -0.431,0.296 l -1.144,0.016 c -0.3,-0.012 -0.45,-0.097 -0.45,-0.254 v -0.988 l -1.35,1.214 v -0.846 l 1.35,-1.167 v -0.949 h 0.675 v 2.256 l 0.675,0.001 v -2.257 l -2.7,0.001 v -0.705 z m -0.675,3.975 0.675,-0.025 v 3.668 L 71.049,214 v -1.493 l -2.7,0.001 v -0.705 l 2.7,-0.001 z"
       id="path22"
       inkscape:connector-curvature="0" />
  </g>
  <path
     d="m 68.349,187.144 v -0.588 h 3.5 v -1.127 h 0.483 c 0.07,0.467 0.147,0.764 0.231,0.89 0.107,0.149 0.357,0.289 0.749,0.42 v 0.405 z"
     id="path26"
     inkscape:connector-curvature="0"
     style="fill:#ffffff" />
  <path
     d="m 65.116,221.342 v 43 h -43 v -43 z"
     id="path28"
     inkscape:connector-curvature="0"
     style="fill:#595763" />
  <circle
     cx="43.616001"
     cy="242.841"
     r="17.82"
     id="circle30"
     style="fill:#060606" />
  <circle
     cx="43.616001"
     cy="242.841"
     r="17.5"
     id="circle32"
     style="fill:#1a1d1f" />
  <circle
     cx="43.616001"
     cy="242.841"
     r="13.365"
     id="circle34"
     style="fill:#060606" />
  <circle
     cx="43.616001"
     cy="242.842"
     r="13"
     id="circle36"
     style="fill:#151618" />
  <path
     d="m 74.365,221.341 v 43 h -7.157 v -43 z"
     id="path38"
     inkscape:connector-curvature="0"
     style="fill:#841116" />
  <path
     d="m 71.822,233.723 c -0.322,0 -0.619,-0.105 -0.889,-0.315 a 1.888,1.888 0 0 1 -0.483,-0.566 l -0.511,-0.924 c -0.294,-0.528 -0.627,-0.819 -1.001,-0.875 v 2.646 H 68.35 v -3.304 c 0.887,0.042 1.5,0.345 1.841,0.91 l 0.7,1.169 c 0.252,0.424 0.563,0.637 0.931,0.637 0.285,0 0.511,-0.091 0.679,-0.273 0.168,-0.182 0.252,-0.429 0.252,-0.741 0,-0.621 -0.387,-0.952 -1.162,-0.994 v -0.588 c 1.148,0.014 1.722,0.59 1.722,1.729 0,0.373 -0.117,0.702 -0.35,0.987 -0.276,0.334 -0.656,0.502 -1.141,0.502 z"
     id="path40"
     inkscape:connector-curvature="0"
     style="fill:#ffffff" />
  <g
     id="g44"
     style="fill:#595763">
    <path
       d="m 65.221,170.65 v 0.741 h -43 v -0.74 z m 0,-3.346 v 0.741 h -43 v -0.74 z m 0,-3.346 v 0.741 h -43 v -0.74 z m 0,-3.346 v 0.741 h -43 v -0.74 z m 10e-4,-3.345 v 0.74 h -43 v -0.74 z m 0,-3.347 v 0.742 h -43 v -0.741 z m -10e-4,-3.345 v 0.741 h -43 v -0.741 z m 0,-3.345 v 0.74 h -43 v -0.74 z m 0,-3.347 v 0.741 h -43 v -0.74 z m 0,-3.346 v 0.741 h -43 v -0.74 z m 10e-4,-3.345 v 0.74 h -43 v -0.74 z m 0,-3.346 v 0.74 h -43 v -0.74 z m 0,-3.346 v 0.741 h -43 V 130.5 Z m -10e-4,-3.346 v 0.741 h -43 v -0.74 z m 0,-3.346 v 0.741 h -43 v -0.74 z m 0,-3.346 v 0.741 h -43 v -0.74 z"
       id="path42"
       inkscape:connector-curvature="0" />
  </g>
  <g
     id="g56"
     style="fill:#ffffff">
    <path
       d="m 38.912,125.088 0.004,5.508 a 4.079,4.079 0 1 0 8.158,0 l -0.007,-1.43 c 0,-0.114 0.092,-0.206 0.206,-0.206 0.115,0 0.207,0.092 0.207,0.206 l -10e-4,5.495 1.727,0.003 v -5.5 a 1.929,1.929 0 1 0 -3.858,0 l -0.016,1.437 a 2.336,2.336 0 1 1 -4.671,0 v -5.512 l -1.749,-0.001"
       id="path46"
       inkscape:connector-curvature="0" />
    <path
       d="m 41.068,125.09 v 5.512 a 1.929,1.929 0 1 0 3.858,0 l 0.016,-1.437 a 2.336,2.336 0 1 1 4.671,0 l 0.002,5.5 1.736,-0.003 0.002,-5.495 a 4.079,4.079 0 1 0 -8.157,0 l -10e-4,1.422 a 0.2,0.2 0 1 1 -0.4,0 l -0.002,-5.5 -1.725,0.001 m -0.418,13.854 c 0,-0.954 0.765,-1.737 1.737,-1.737 h 5.521 c 0.936,0 1.71,0.783 1.71,1.737 l -0.002,5.88 h 1.734 l 10e-4,-5.879 a 3.462,3.462 0 0 0 -3.462,-3.462 h -5.504 a 3.462,3.462 0 0 0 -3.461,3.462 l -0.002,5.855 1.729,-0.002 -0.001,-5.854"
       id="path48"
       inkscape:connector-curvature="0" />
    <path
       d="m 47.891,137.629 c 0.729,0 1.32,0.586 1.32,1.316 v 5.88 H 47.48 v -5.065 c 0,-0.406 -0.408,-0.411 -0.408,-0.411 v 4.224 l -1.726,0.001 v -5.947 l 2.545,0.002 m -6.821,1.315 c 0,-0.728 0.59,-1.317 1.317,-1.317 l 2.547,-0.001 v 5.947 l -1.731,-0.001 v -4.224 c -0.407,0.005 -0.408,0.411 -0.408,0.411 v 5.041 l -1.722,-0.002 -0.003,-5.854 m -0.415,9.999 c 0,-0.954 0.778,-1.732 1.732,-1.732 h 5.504 c 0.954,0 1.728,0.773 1.728,1.728 l 10e-4,5.693 1.732,0.001 v -5.706 a 3.462,3.462 0 0 0 -3.462,-3.462 h -5.504 c -1.911,0 -3.461,1.563 -3.461,3.475 l -0.002,5.693 8.15,-0.001 v -4.893 h -1.728 v 3.163 h -4.691 l 10e-4,-3.959"
       id="path50"
       inkscape:connector-curvature="0" />
    <path
       d="m 42.387,147.619 c -0.729,0 -1.329,0.591 -1.329,1.32 v 3.555 h 3.88 v -2.751 h -1.733 v 1.021 l -0.408,0.004 0.002,-1.016 c 0,-0.224 0.182,-0.406 0.406,-0.406 l 3.871,-0.007 c 0,0 0.404,-0.001 0.412,0.408 v 4.888 l 1.728,-0.005 -0.004,-5.692 a 1.32,1.32 0 0 0 -1.32,-1.32 h -5.505 m 6.852,12.363 a 0.564,0.564 0 0 1 -0.002,1.065 l -8.19,2.761 v -4.044 l 1.926,0.004 v 1.353 l 1.813,-0.61 -5.863,-1.982 v -2.042 l 10.316,3.495"
       id="path52"
       inkscape:connector-curvature="0" />
    <path
       d="m 40.654,164.366 v -4.596 h -1.73 v 6.997 l 10.802,-3.639 c 1.053,-0.319 1.826,-1.369 1.826,-2.615 0,-1.245 -0.772,-2.295 -1.824,-2.614 l -10.803,-3.673 v 1.832 l 10.502,3.563 a 0.964,0.964 0 0 1 0.003,1.777 l -8.776,2.968"
       id="path54"
       inkscape:connector-curvature="0" />
  </g>
  <g
     id="g60"
     style="fill:#45444c">
    <path
       d="M 60.333,70.833 100,110.729 V 30.938 Z m -2.916,0 L 17.75,30.938 v 79.791 z M 58.875,69.375 98.771,29.708 H 18.979 Z m 0,2.917 -39.896,39.666 h 79.792 z"
       id="path58"
       inkscape:connector-curvature="0" />
  </g>
  <path
     d="m 21.74,70.833 v 1.565 l -1.75,-0.782 -1.75,-0.783 1.75,-0.782 1.75,-0.782 z m 37.135,37.136 h 1.565 l -0.783,1.75 -0.782,1.75 -0.782,-1.75 -0.783,-1.75 z M 96.109,70.833 v -1.564 l 1.75,0.782 1.75,0.782 -1.75,0.783 -1.75,0.782 z M 58.875,33.687 H 57.31 l 0.783,-1.75 0.782,-1.75 0.782,1.75 0.783,1.75 z"
     id="path62"
     inkscape:connector-curvature="0"
     style="fill:#ffffff" />
  <path
     d="m 23.237,53.948 c 0,-10.314 8.391,-18.706 18.705,-18.706 h 33.76 c 10.314,0 18.706,8.392 18.706,18.706 v 33.759 c 0,10.314 -8.392,18.706 -18.706,18.706 h -33.76 c -10.314,0 -18.705,-8.392 -18.705,-18.706 z"
     id="path64"
     inkscape:connector-curvature="0"
     style="fill:#1d1e20" />
  <path
     d="m 28.237,53.948 c 0,-7.558 6.148,-13.706 13.705,-13.706 h 33.76 c 7.558,0 13.706,6.148 13.706,13.706 v 33.759 c 0,7.558 -6.148,13.706 -13.706,13.706 h -33.76 c -7.557,0 -13.705,-6.148 -13.705,-13.706 z"
     id="path66"
     inkscape:connector-curvature="0" />
  <path
     d="M 29.736,87.707 V 53.948 c 0,-6.713 5.493,-12.206 12.206,-12.206 h 33.759 c 6.713,0 12.206,5.493 12.206,12.206 v 33.759 c 0,6.713 -5.493,12.206 -12.206,12.206 H 41.942 c -6.713,0 -12.206,-5.492 -12.206,-12.206 z"
     id="path68"
     inkscape:connector-curvature="0"
     style="fill:#1e2021" />
  <g
     id="g78">
    <path
       stroke-miterlimit="10"
       d="m 43.193,56.103 -1.391,1.391 -0.861,-2.251 -0.86,-2.252 2.252,0.86 2.252,0.861 z"
       id="path70"
       inkscape:connector-curvature="0"
       style="fill:#202122;stroke:#000000;stroke-width:0.1;stroke-miterlimit:10" />
    <path
       stroke-miterlimit="10"
       d="m 43.193,84.865 1.392,1.392 -2.252,0.86 -2.252,0.861 0.86,-2.252 0.861,-2.252 z m 30.198,0 1.392,-1.391 0.86,2.252 0.861,2.252 L 74.252,87.117 72,86.257 Z m 0,-28.789 -1.391,-1.392 2.252,-0.86 2.252,-0.861 -0.861,2.252 -0.86,2.252 z"
       id="path72"
       inkscape:connector-curvature="0"
       style="fill:#252526;stroke:#000000;stroke-width:0.1;stroke-miterlimit:10" />
    <path
       d="m 73,70.833 c 0,-0.831 0.68,-1.512 1.512,-1.512 h 7.977 c 0.831,0 1.512,0.68 1.512,1.512 0,0.831 -0.68,1.512 -1.512,1.512 H 74.512 C 73.68,72.345 73,71.665 73,70.833 Z m -40.415,0 c 0,-0.831 0.68,-1.512 1.512,-1.512 h 7.977 c 0.831,0 1.512,0.68 1.512,1.512 0,0.831 -0.68,1.512 -1.512,1.512 h -7.977 c -0.832,0 -1.512,-0.68 -1.512,-1.512 z m 26.29,-14.339 c -0.831,0 -1.512,-0.68 -1.512,-1.512 v -7.977 c 0,-0.831 0.68,-1.512 1.512,-1.512 0.831,0 1.512,0.68 1.512,1.512 v 7.977 c 0,0.832 -0.681,1.512 -1.512,1.512 z m -0.053,38.98 c -0.831,0 -1.512,-0.68 -1.512,-1.512 v -7.977 c 0,-0.831 0.68,-1.512 1.512,-1.512 0.831,0 1.512,0.68 1.512,1.512 v 7.977 a 1.517,1.517 0 0 1 -1.512,1.512 z"
       stroke-miterlimit="10"
       id="path74"
       inkscape:connector-curvature="0"
       style="fill:#252526;stroke:#000000;stroke-width:0.25;stroke-miterlimit:10" />
    <circle
       cx="58.875"
       cy="70.833"
       r="10.778"
       id="circle76"
       style="fill:#1a1c1d" />
  </g>
  <g
     id="g82">
    <path
       d="m 14.146,111.164 v -80.91 a 4.054,4.054 0 0 1 4.05,-4.05 h 83.67 a 4.055,4.055 0 0 1 4.05,4.05 v 6.523 h -1.5 v -6.523 a 2.553,2.553 0 0 0 -2.55,-2.55 h -83.67 a 2.553,2.553 0 0 0 -2.55,2.55 v 80.91 a 2.553,2.553 0 0 0 2.55,2.55 h 83.67 a 2.553,2.553 0 0 0 2.55,-2.55 v -6.382 h 1.5 v 6.382 a 4.055,4.055 0 0 1 -4.05,4.05 h -83.67 a 4.055,4.055 0 0 1 -4.05,-4.05 z"
       id="path80"
       inkscape:connector-curvature="0"
       style="fill:#931416" />
  </g>
  <g
     id="g86"
     style="fill:#ffffff">
    <path
       d="m 102.704,45.721 h -0.495 l -0.126,-0.558 1.333,0.225 v 0.549 l -1.306,-0.036 c -0.306,-0.567 -0.432,-1.188 -0.432,-1.818 0,-1.819 1.314,-3.043 3.151,-3.043 1.8,0 3.151,1.278 3.151,3.034 0,0.486 -0.081,1.125 -0.432,1.738 l -1.306,0.036 v -0.549 l 1.333,-0.225 -0.126,0.558 H 106.9 c 0.477,-0.513 0.63,-1.017 0.63,-1.449 0,-1.215 -0.945,-2.197 -2.701,-2.197 -1.756,0 -2.701,0.882 -2.701,2.134 0,0.512 0.153,1.088 0.576,1.601 z m 2.125,6.507 c -1.972,0 -3.151,-1.35 -3.151,-2.746 0,-1.396 1.099,-2.755 3.151,-2.755 1.971,0 3.151,1.368 3.151,2.755 0,1.387 -1.099,2.746 -3.151,2.746 z m -2.701,-2.745 c 0,1.27 1.351,1.8 2.701,1.8 1.35,0 2.701,-0.531 2.701,-1.8 0,-1.269 -1.351,-1.81 -2.701,-1.81 -1.351,0 -2.701,0.54 -2.701,1.81 z m 0.045,3.356 0.135,0.945 v 0.18 l -0.135,1.035 h -0.36 v -2.16 z m 5.393,0.567 -0.216,0.558 0.135,-1.08 h 0.36 v 1.35 l -5.141,3.736 h -0.954 v -0.288 z m 0.279,0.198 -0.36,0.45 h -5.672 v -0.45 z m 0,2.971 v 2.161 h -0.36 l -0.135,-0.9 v -0.18 l 0.135,-1.081 z m 0,0.945 v 0.45 h -6.095 l 0.45,-0.45 z m -0.451,2.141 0.45,0.405 -1.603,-0.288 v -0.504 l 1.603,0.072 v 4.916 l -1.603,0.072 V 63.83 l 1.603,-0.288 -0.45,0.405 z m -5.086,2.232 -0.135,1.26 h -0.36 v -2.701 h 0.36 l 0.135,1.26 z m 2.746,-0.495 c 0.928,0 1.864,0 2.791,-0.027 v 0.864 c -0.909,-0.027 -1.846,-0.027 -2.791,-0.027 h -0.45 c -0.927,0 -1.864,0 -2.791,0.027 v -0.864 c 0.909,0.027 1.846,0.027 2.791,0.027 z m 2.431,3.519 h 0.36 v 1.26 h -0.495 v -0.09 z m -5.177,1.35 -0.135,1.17 h -0.36 v -2.521 h 0.36 l 0.135,1.17 z m 2.746,-0.495 c 0.928,0 1.864,0 2.791,-0.027 v 0.864 c -0.936,-0.027 -1.818,-0.027 -2.881,-0.027 h -0.27 c -1.017,0 -1.954,0 -2.881,0.027 v -0.864 c 0.909,0.027 1.846,0.027 2.791,0.027 z m -0.045,0.405 v 1.125 c 0,0.972 0.522,1.44 1.251,1.44 0.756,0 1.17,-0.405 1.17,-1.342 v -1.224 h 0.414 v 1.233 c 0,1.377 -0.585,2.188 -1.584,2.188 -0.765,0 -1.458,-0.603 -1.558,-1.782 l 0.072,0.027 c -0.063,0.648 -0.36,1.044 -1.17,1.287 l -1.495,0.441 0.171,-0.279 -0.108,0.927 h -0.36 a 2.073,2.073 0 0 1 -0.09,-0.648 c 0,-0.558 0.144,-0.801 0.558,-0.909 l 1.467,-0.369 c 0.729,-0.18 0.855,-0.513 0.855,-1.26 v -0.855 z m -0.18,9.928 c -1.972,0 -3.151,-1.35 -3.151,-2.746 0,-1.396 1.099,-2.755 3.151,-2.755 1.971,0 3.151,1.369 3.151,2.755 0,1.386 -1.099,2.746 -3.151,2.746 z m -2.701,-2.746 c 0,1.27 1.351,1.8 2.701,1.8 1.35,0 2.701,-0.531 2.701,-1.8 0,-1.269 -1.351,-1.81 -2.701,-1.81 -1.351,10e-4 -2.701,0.541 -2.701,1.81 z m 5.357,3.357 h 0.36 v 2.521 h -0.36 l -0.135,-1.17 v -0.18 z m -5.177,1.26 h -0.495 v -1.26 h 0.36 l 0.135,1.17 z m 5.537,-0.432 v 0.864 c -0.927,-0.027 -1.863,-0.027 -2.791,-0.027 h -0.63 c -0.765,0 -1.702,0 -2.611,0.027 v -0.864 c 0.927,0.027 1.864,0.027 2.791,0.027 h 0.45 c 0.945,0 1.881,0 2.791,-0.027 z m -4.34,3.736 -1.692,-0.09 v -3.214 h 0.45 v 2.899 l -0.45,-0.495 1.692,0.36 z m 3.98,2.914 h 0.36 v 1.26 h -0.495 v -0.09 z m -5.177,1.35 -0.135,1.17 h -0.36 v -2.521 h 0.36 l 0.135,1.17 z m 2.746,-0.495 c 0.928,0 1.864,0 2.791,-0.027 v 0.864 c -0.909,-0.027 -1.846,-0.027 -2.791,-0.027 h -0.549 c -0.918,0 -1.765,0 -2.692,0.027 v -0.864 c 0.909,0.027 1.846,0.027 2.791,0.027 z m -0.855,1.297 v -0.891 h 0.414 v 1.026 c 0,1.107 0.585,1.54 1.44,1.54 0.874,0 1.377,-0.486 1.377,-1.576 v -0.99 h 0.414 v 1.161 c 0,1.495 -0.738,2.26 -1.792,2.26 -1.007,-0.001 -1.853,-0.694 -1.853,-2.53 z m -2.026,2.24 0.135,0.9 v 0.18 l -0.135,0.99 h -0.36 v -2.071 h 0.36 z m 5.716,2.683 v 0.54 l -6.077,2.07 v -0.837 l 5.393,-1.81 v 0.207 l -5.393,-1.836 V 89.18 Z m -3.69,-1.053 v 2.431 l -0.414,0.144 v -2.719 z m -2.026,1.774 0.135,1.134 v 0.18 l -0.135,1.117 h -0.36 V 91.99 Z m 5.312,2.834 h 0.36 v 1.26 h -0.495 v -0.09 z m -5.177,1.26 h -0.495 v -1.26 h 0.36 l 0.135,1.17 z m 2.746,-0.405 c 0.928,0 1.864,0 2.791,-0.027 v 0.864 c -0.909,-0.027 -1.846,-0.027 -2.791,-0.027 h -0.342 c -1.035,0 -1.972,0 -2.899,0.027 v -0.864 c 0.909,0.027 1.846,0.027 2.899,0.027 z m -2.827,0.405 v 1.161 c 0,1.414 0.955,2.188 2.593,2.188 1.702,0 2.611,-0.774 2.611,-2.107 v -1.242 h 0.414 v 1.396 c 0,1.71 -1.063,2.899 -3.025,2.899 -1.944,0 -3.007,-1.333 -3.007,-3.079 v -1.215 h 0.414 z"
       id="path84"
       inkscape:connector-curvature="0" />
  </g>
  <path
     d="M 0,13.833 V 6.916 C 0,3.112 3.112,0 6.917,0 h 103.5 c 3.804,0 6.917,3.112 6.917,6.917 v 6.917 H 0 Z"
     id="path88"
     inkscape:connector-curvature="0"
     style="fill:#1d1f20" />
  <path
     d="m 117.333,13.833 v 5.125 H 0 v -5.125 z"
     id="path90"
     inkscape:connector-curvature="0"
     style="fill:#191919" />
  <path
     d="m 79.167,125.094 c 0,-1.231 0.612,-1.698 1.549,-1.698 h 34.919 c 0.938,0 1.698,0.76 1.698,1.698 v 6.949 L 84,129.533 Z"
     id="path92"
     inkscape:connector-curvature="0"
     style="fill:#212121" />
  <path
     d="M 84,281.167 V 129.533 c 0,-0.385 0.317,-0.7 0.704,-0.7 h 29.477 c 1.734,0 3.153,1.444 3.153,3.21 v 142.782 c 0,3.488 -2.803,6.341 -6.228,6.341 H 84 Z"
     id="path94"
     inkscape:connector-curvature="0"
     style="fill:#2b2b2d" />
  <path
     d="M 79.167,125.094 V 281.167 H 84 V 129.533 Z"
     id="path96"
     inkscape:connector-curvature="0"
     style="fill:#161616" />
  <path
     d="m 16.75,279.226 v 0.048 c 0,1.041 0.852,1.893 1.893,1.893 h 60.423 a 1.899,1.899 0 0 0 1.893,-1.893 v -0.048 a 1.899,1.899 0 0 0 -1.893,-1.893 H 18.643 a 1.899,1.899 0 0 0 -1.893,1.893 z"
     id="path98"
     inkscape:connector-curvature="0"
     style="fill:#131315" />
  <path
     d="M 18.979,126.115 V 281.167 H 14.088 L 13.974,128.142 Z"
     id="path100"
     inkscape:connector-curvature="0"
     style="fill:#3c3c3c" />
  <path
     d="m 18.979,124.948 v 1.167 L 0,133.802 v -10.406 h 17.427 c 0.854,0 1.552,0.698 1.552,1.552 z"
     id="path102"
     inkscape:connector-curvature="0"
     style="fill:#161616" />
  <path
     d="M 0,274.786 V 131.124 a 3.24,3.24 0 0 1 3.23,-3.23 h 10.213 c 0.387,0 0.704,0.317 0.704,0.704 V 281.166 H 6.38 C 2.871,281.167 0,278.296 0,274.786 Z"
     id="path104"
     inkscape:connector-curvature="0"
     style="fill:#1d1f21" />
  <path
     d="m 2.125,16.903 c 0,0.298 0.246,0.54 0.544,0.54 H 4.125 V 125.318 H 2.667 a 0.544,0.544 0 0 0 -0.542,0.542 v 0.489 H 0 V 16.411 h 2.125 z m 113.083,0 c 0,0.298 -0.245,0.54 -0.544,0.54 h -1.456 v 107.875 h 1.458 c 0.298,0 0.542,0.244 0.542,0.542 v 0.489 h 2.125 V 16.411 h -2.125 z"
     id="path106"
     inkscape:connector-curvature="0"
     style="fill:#242628" />
</svg>
