<?xml version="1.0" encoding="UTF-8" standalone="no"?>
<svg
   xmlns:dc="http://purl.org/dc/elements/1.1/"
   xmlns:cc="http://creativecommons.org/ns#"
   xmlns:rdf="http://www.w3.org/1999/02/22-rdf-syntax-ns#"
   xmlns:svg="http://www.w3.org/2000/svg"
   xmlns="http://www.w3.org/2000/svg"
   xmlns:sodipodi="http://sodipodi.sourceforge.net/DTD/sodipodi-0.dtd"
   xmlns:inkscape="http://www.inkscape.org/namespaces/inkscape"
   viewBox="0 0 528.593 299.334"
   version="1.1"
   id="svg160"
   sodipodi:docname="console.svg"
   width="528.59302"
   height="299.33401"
   inkscape:version="0.92.4 5da689c313, 2019-01-14">
  <metadata
     id="metadata166">
    <rdf:RDF>
      <cc:Work
         rdf:about="">
        <dc:format>image/svg+xml</dc:format>
        <dc:type
           rdf:resource="http://purl.org/dc/dcmitype/StillImage" />
      </cc:Work>
    </rdf:RDF>
  </metadata>
  <defs
     id="defs164" />
  <sodipodi:namedview
     pagecolor="#ffffff"
     bordercolor="#666666"
     borderopacity="1"
     objecttolerance="10"
     gridtolerance="10"
     guidetolerance="10"
     inkscape:pageopacity="0"
     inkscape:pageshadow="2"
     inkscape:window-width="471"
     inkscape:window-height="442"
     id="namedview162"
     showgrid="false"
     inkscape:zoom="0.51268176"
     inkscape:cx="264.29651"
     inkscape:cy="149.66699"
     inkscape:window-x="0"
     inkscape:window-y="0"
     inkscape:window-maximized="0"
     inkscape:current-layer="svg160" />
  <path
     d="m 12,98.334 h 504.593 v 3.333 H 12 Z"
     id="path2"
     inkscape:connector-curvature="0"
     style="fill:#131313" />
  <path
     d="M 264.297,100.334 H 128.765 l 4.628,-86.427 C 133.391,6.28 140.632,0 149.532,0 h 114.764 m 0,4 H 149.532 c -6.357,0 -11.529,4.486 -11.529,10 l -4.406,82.334 h 130.7 M 264.298,0 h 114.764 c 8.9,0 16.141,6.28 16.139,13.907 l 4.628,86.427 H 264.297 m 0,-4 h 130.7 L 390.591,14 c 0,-5.514 -5.172,-10 -11.529,-10 H 264.298"
     id="path4"
     inkscape:connector-curvature="0"
     style="fill:#131313" />
  <path
     d="m 264.297,2 h 114.765 c 7.609,0 13.835,5.4 13.835,12 l 4.516,84.333 H 131.181 L 135.696,14 c 0,-6.6 6.226,-12 13.835,-12 z M 11.972,98.417 h 117.216 l 4.418,-87.5 L 32.117,26.406 C 26.384,27.321 21.737,31.799 20.34,37.753 L 7.523,92.397 c -0.718,3.06 1.47,6.02 4.449,6.02 z"
     id="path6"
     inkscape:connector-curvature="0"
     style="fill:#151616" />
  <path
     d="M 129.636,98.917 H 11.972 c -1.566,0 -3.018,-0.749 -3.983,-2.055 A 5.563,5.563 0 0 1 7.064,92.276 L 19.881,37.633 C 21.329,31.459 26.104,26.859 32.046,25.911 L 134.108,10.334 Z M 133.103,11.499 32.184,26.901 c -5.56,0.887 -10.031,5.193 -11.386,10.973 L 7.982,92.517 a 4.519,4.519 0 0 0 0.752,3.729 c 0.785,1.062 1.965,1.671 3.239,1.671 H 128.74 Z"
     id="path8"
     inkscape:connector-curvature="0"
     style="fill:#131313" />
  <linearGradient
     id="a"
     gradientUnits="userSpaceOnUse"
     y1="200.5"
     x2="528.59302"
     y2="200.5">
    <stop
       offset="0"
       stop-color="#151616"
       id="stop10" />
    <stop
       offset=".03"
       stop-color="#101111"
       id="stop12" />
    <stop
       offset=".97"
       stop-color="#101111"
       id="stop14" />
    <stop
       offset="1"
       stop-color="#151616"
       id="stop16" />
  </linearGradient>
  <path
     d="M 516.593,299.334 H 12 c -6.6,0 -12,-5.4 -12,-12 V 113.667 c 0,-6.6 5.4,-12 12,-12 h 504.593 c 6.6,0 12,5.4 12,12 v 173.667 c 0,6.6 -5.4,12 -12,12 z"
     id="path19"
     inkscape:connector-curvature="0"
     style="clip-rule:evenodd;fill:url(#a);fill-rule:evenodd" />
  <path
     d="M 516.622,98.417 H 399.406 l -4.418,-87.5 101.489,15.489 c 5.733,0.915 10.38,5.393 11.777,11.347 l 12.817,54.643 c 0.718,3.061 -1.47,6.021 -4.449,6.021 z"
     id="path21"
     inkscape:connector-curvature="0"
     style="fill:#151616" />
  <path
     d="m 394.486,10.335 102.062,15.577 c 5.942,0.947 10.717,5.548 12.165,11.722 l 12.817,54.643 a 5.56,5.56 0 0 1 -0.925,4.586 c -0.965,1.306 -2.417,2.055 -3.983,2.055 H 398.959 Z m 5.369,87.582 h 116.767 c 1.274,0 2.454,-0.609 3.239,-1.671 a 4.527,4.527 0 0 0 0.752,-3.729 L 507.796,37.874 C 506.441,32.095 501.97,27.788 496.41,26.901 L 395.491,11.499 Z"
     id="path23"
     inkscape:connector-curvature="0"
     style="fill:#131313" />
  <radialGradient
     id="b"
     cx="381.63"
     cy="214.834"
     r="77.139999"
     gradientTransform="matrix(-0.5,-0.866,6.9282,-4,-915.967,1404.67)"
     gradientUnits="userSpaceOnUse">
    <stop
       offset="0"
       stop-color="#111212"
       id="stop25" />
    <stop
       offset=".678"
       stop-color="#131414"
       id="stop27" />
    <stop
       offset=".921"
       stop-color="#181b1a"
       id="stop29" />
    <stop
       offset="1"
       stop-color="#1c1f1e"
       id="stop31" />
  </radialGradient>
  <path
     d="m 450.63,299.334 h -138 v -100 c 0,-38.108 30.892,-69 69,-69 38.108,0 69,30.892 69,69 z"
     id="path34"
     inkscape:connector-curvature="0"
     style="fill:url(#b)" />
  <path
     d="m 433.505,299.334 h -103.75 v -88.917 a 4.763,4.763 0 0 1 4.75,-4.75 h 94.25 a 4.764,4.764 0 0 1 4.75,4.75 z"
     id="path36"
     inkscape:connector-curvature="0"
     style="fill:#0f0f0f" />
  <g
     id="g44"
     style="fill:#141414">
    <path
       d="m 339.765,285 h -0.104 a 0.865,0.865 0 0 1 -0.865,-0.865 v -77.604 c 0,-0.477 0.387,-0.865 0.865,-0.865 h 0.104 c 0.478,0 0.865,0.387 0.865,0.865 v 77.604 A 0.865,0.865 0 0 1 339.765,285 Z m 8,0 h -0.104 a 0.865,0.865 0 0 1 -0.865,-0.865 v -77.604 c 0,-0.477 0.387,-0.865 0.865,-0.865 h 0.104 c 0.478,0 0.865,0.387 0.865,0.865 v 77.604 A 0.865,0.865 0 0 1 347.765,285 Z m 8,-18.16 h -0.104 a 0.865,0.865 0 0 1 -0.865,-0.865 v -59.444 c 0,-0.477 0.387,-0.865 0.865,-0.865 h 0.104 c 0.478,0 0.865,0.387 0.865,0.865 v 59.444 a 0.865,0.865 0 0 1 -0.865,0.865 z m 8.917,-6.84 h -0.104 a 0.865,0.865 0 0 1 -0.865,-0.865 v -52.604 c 0,-0.477 0.387,-0.865 0.865,-0.865 h 0.104 c 0.478,0 0.865,0.387 0.865,0.865 v 52.604 A 0.866,0.866 0 0 1 364.682,260 Z m 8.916,-3.666 h -0.104 a 0.865,0.865 0 0 1 -0.865,-0.865 v -48.938 c 0,-0.477 0.387,-0.865 0.865,-0.865 h 0.104 c 0.477,0 0.865,0.387 0.865,0.865 v 48.938 a 0.865,0.865 0 0 1 -0.865,0.865 z m 8.084,-1.5 h -0.104 a 0.865,0.865 0 0 1 -0.865,-0.865 v -40.243 c 0,-0.477 0.387,-0.865 0.865,-0.865 h 0.104 c 0.477,0 0.865,0.387 0.865,0.865 v 40.243 a 0.866,0.866 0 0 1 -0.865,0.865 z"
       id="path38"
       inkscape:connector-curvature="0" />
    <path
       d="m 386.44,218.51 -0.074,0.074 a 0.864,0.864 0 0 1 -1.223,0 l -4.177,-4.177 a 0.864,0.864 0 0 1 0,-1.223 l 0.074,-0.074 a 0.864,0.864 0 0 1 1.223,0 l 4.177,4.177 a 0.866,0.866 0 0 1 0,1.223 z"
       id="path40"
       inkscape:connector-curvature="0" />
    <path
       d="m 382.219,213.11 0.074,0.074 a 0.864,0.864 0 0 1 0,1.223 l -4.177,4.177 a 0.864,0.864 0 0 1 -1.223,0 l -0.074,-0.074 a 0.864,0.864 0 0 1 0,-1.223 l 4.177,-4.177 a 0.866,0.866 0 0 1 1.223,0 z m 41.275,71.932 h 0.104 a 0.865,0.865 0 0 0 0.865,-0.865 v -77.604 a 0.865,0.865 0 0 0 -0.865,-0.865 h -0.104 a 0.865,0.865 0 0 0 -0.865,0.865 v 77.604 a 0.866,0.866 0 0 0 0.865,0.865 z m -8,0 h 0.104 a 0.865,0.865 0 0 0 0.865,-0.865 v -77.604 a 0.865,0.865 0 0 0 -0.865,-0.865 h -0.104 a 0.865,0.865 0 0 0 -0.865,0.865 v 77.604 a 0.866,0.866 0 0 0 0.865,0.865 z m -8,-18.16 h 0.104 a 0.865,0.865 0 0 0 0.865,-0.865 v -59.444 a 0.865,0.865 0 0 0 -0.865,-0.865 h -0.104 a 0.865,0.865 0 0 0 -0.865,0.865 v 59.444 a 0.866,0.866 0 0 0 0.865,0.865 z m -8.916,-6.84 h 0.104 a 0.865,0.865 0 0 0 0.865,-0.865 v -52.604 a 0.865,0.865 0 0 0 -0.865,-0.865 h -0.104 a 0.865,0.865 0 0 0 -0.865,0.865 v 52.604 c 0,0.478 0.387,0.865 0.865,0.865 z m -8.917,-3.667 h 0.104 a 0.865,0.865 0 0 0 0.865,-0.865 v -48.938 a 0.865,0.865 0 0 0 -0.865,-0.865 h -0.104 a 0.865,0.865 0 0 0 -0.865,0.865 v 48.938 c 0,0.478 0.387,0.865 0.865,0.865 z"
       id="path42"
       inkscape:connector-curvature="0" />
  </g>
  <path
     d="m 329.755,289.292 h 19.292 v 2.625 h -19.292 z"
     id="path46"
     inkscape:connector-curvature="0" />
  <path
     d="m 408.88,299.334 h -54.5 v -13.283 c 0,-15.05 12.2,-27.25 27.25,-27.25 15.05,0 27.25,12.2 27.25,27.25 z"
     id="path48"
     inkscape:connector-curvature="0"
     style="fill:#070707" />
  <path
     d="m 275.996,267.5 a 4.262,4.262 0 0 1 4.25,4.25 v 17.917 a 4.263,4.263 0 0 1 -4.25,4.25 4.262,4.262 0 0 1 -4.25,-4.25 V 276 h -26.783 a 4.262,4.262 0 0 1 -4.25,-4.25 4.262,4.262 0 0 1 4.25,-4.25 h 30.917 a 4.262,4.262 0 0 1 4.25,4.25"
     id="path50"
     inkscape:connector-curvature="0"
     style="fill:#151616" />
  <circle
     cx="275.996"
     cy="290.604"
     r="2.2"
     id="circle52"
     style="fill:#44f518" />
  <g
     id="g56"
     style="fill:#070707">
    <path
       d="m 245.433,274.104 v -5.011 h 1.237 c 0.461,0 0.762,0.024 0.904,0.071 0.226,0.078 0.413,0.243 0.56,0.496 0.147,0.253 0.221,0.579 0.221,0.978 0,0.362 -0.063,0.666 -0.19,0.911 -0.127,0.245 -0.285,0.417 -0.476,0.516 -0.19,0.1 -0.518,0.148 -0.983,0.148 h -0.504 v 1.891 z m 0.768,-4.163 v 1.425 h 0.426 c 0.286,0 0.48,-0.021 0.583,-0.064 a 0.534,0.534 0 0 0 0.252,-0.234 0.815,0.815 0 0 0 0.099,-0.417 0.81,0.81 0 0 0 -0.102,-0.421 0.512,0.512 0 0 0 -0.251,-0.229 c -0.1,-0.039 -0.311,-0.059 -0.632,-0.059 h -0.375 z m 2.629,1.689 c 0,-0.597 0.082,-1.089 0.246,-1.475 0.164,-0.387 0.378,-0.674 0.642,-0.863 0.264,-0.189 0.584,-0.283 0.961,-0.283 0.545,0 0.99,0.224 1.333,0.673 0.344,0.449 0.516,1.088 0.516,1.917 0,0.839 -0.182,1.494 -0.545,1.966 -0.319,0.417 -0.753,0.626 -1.3,0.626 -0.552,0 -0.988,-0.207 -1.307,-0.619 -0.364,-0.473 -0.546,-1.12 -0.546,-1.942 z m 0.793,-0.034 c 0,0.576 0.102,1.009 0.305,1.297 0.203,0.288 0.455,0.433 0.756,0.433 0.303,0 0.554,-0.143 0.753,-0.429 0.199,-0.286 0.298,-0.726 0.298,-1.317 0,-0.582 -0.097,-1.011 -0.291,-1.289 -0.194,-0.278 -0.447,-0.417 -0.761,-0.417 -0.314,0 -0.569,0.14 -0.766,0.421 -0.195,0.278 -0.294,0.713 -0.294,1.301 z m 4.051,2.508 -0.914,-5.011 h 0.79 l 0.572,3.443 0.697,-3.443 h 0.917 l 0.669,3.502 0.588,-3.502 h 0.774 l -0.926,5.011 h -0.82 l -0.762,-3.748 -0.755,3.748 z m 4.487,0 v -5.011 h 2.829 v 0.848 h -2.062 v 1.11 h 1.916 v 0.845 h -1.916 v 1.36 h 2.131 v 0.848 z m 3.552,0 v -5.011 h 1.621 c 0.415,0 0.71,0.045 0.888,0.135 0.178,0.09 0.324,0.246 0.438,0.469 0.115,0.222 0.172,0.488 0.172,0.798 0,0.392 -0.088,0.707 -0.262,0.947 a 1.16,1.16 0 0 1 -0.744,0.451 c 0.165,0.127 0.301,0.267 0.409,0.418 0.108,0.151 0.255,0.424 0.44,0.815 l 0.463,0.978 h -0.918 l -0.557,-1.09 c -0.201,-0.395 -0.337,-0.642 -0.409,-0.74 a 0.6,0.6 0 0 0 -0.229,-0.205 c -0.08,-0.038 -0.209,-0.057 -0.387,-0.057 h -0.159 v 2.092 z m 0.768,-2.891 h 0.571 c 0.349,0 0.571,-0.017 0.666,-0.05 0.095,-0.033 0.172,-0.1 0.231,-0.199 a 0.777,0.777 0 0 0 0.089,-0.4 0.727,0.727 0 0 0 -0.089,-0.385 0.451,0.451 0 0 0 -0.241,-0.199 c -0.072,-0.025 -0.28,-0.038 -0.625,-0.038 h -0.603 v 1.271 z"
       id="path54"
       inkscape:connector-curvature="0" />
  </g>
  <path
     d="m 469.646,267.5 a 4.262,4.262 0 0 0 -4.25,4.25 v 17.917 a 4.263,4.263 0 0 0 4.25,4.25 4.263,4.263 0 0 0 4.25,-4.25 V 276 h 26.783 a 4.263,4.263 0 0 0 4.25,-4.25 4.262,4.262 0 0 0 -4.25,-4.25 h -30.917 a 4.262,4.262 0 0 0 -4.25,4.25"
     id="path58"
     inkscape:connector-curvature="0"
     style="fill:#151616" />
  <circle
     cx="469.646"
     cy="290.604"
     r="2.2"
     id="circle60"
     style="fill:#44f518" />
  <g
     id="g64"
     style="fill:#070707">
    <path
       d="m 488.701,274.604 v -5.011 h 1.237 c 0.461,0 0.763,0.024 0.903,0.071 0.227,0.078 0.413,0.243 0.561,0.496 0.146,0.253 0.221,0.579 0.221,0.978 0,0.362 -0.064,0.666 -0.191,0.911 -0.127,0.245 -0.285,0.417 -0.475,0.516 -0.191,0.1 -0.519,0.148 -0.984,0.148 h -0.504 v 1.891 z m 0.767,-4.163 v 1.425 h 0.426 c 0.287,0 0.48,-0.021 0.584,-0.064 a 0.53,0.53 0 0 0 0.252,-0.234 0.815,0.815 0 0 0 0.1,-0.417 0.82,0.82 0 0 0 -0.102,-0.421 0.51,0.51 0 0 0 -0.252,-0.229 c -0.1,-0.039 -0.311,-0.059 -0.633,-0.059 h -0.375 z m 5.836,4.163 h -0.834 l -0.334,-1.135 h -1.527 l -0.314,1.135 h -0.818 l 1.484,-5.011 h 0.815 z m -1.416,-1.982 -0.526,-1.859 -0.517,1.859 z m 1.816,-3.028 h 1.403 c 0.354,0 0.622,0.043 0.804,0.128 0.18,0.086 0.346,0.229 0.498,0.433 0.152,0.204 0.271,0.466 0.358,0.79 0.087,0.323 0.13,0.726 0.13,1.206 0,0.433 -0.045,0.81 -0.137,1.13 -0.09,0.32 -0.205,0.573 -0.345,0.76 a 1.36,1.36 0 0 1 -0.505,0.423 c -0.198,0.095 -0.452,0.142 -0.763,0.142 h -1.444 v -5.012 z m 0.768,0.847 v 3.315 h 0.576 c 0.248,0 0.428,-0.025 0.538,-0.075 0.11,-0.05 0.202,-0.126 0.272,-0.227 0.071,-0.102 0.13,-0.262 0.176,-0.48 0.047,-0.218 0.07,-0.506 0.07,-0.863 0,-0.371 -0.023,-0.664 -0.071,-0.878 -0.048,-0.214 -0.122,-0.382 -0.222,-0.505 a 0.706,0.706 0 0 0 -0.367,-0.243 c -0.107,-0.029 -0.315,-0.044 -0.625,-0.044 z"
       id="path62"
       inkscape:connector-curvature="0" />
  </g>
  <path
     d="M 47.046,162.584 H 11.13 a 3.928,3.928 0 0 1 -3.917,-3.917 3.928,3.928 0 0 1 3.917,-3.917 h 35.917 a 3.928,3.928 0 0 1 3.917,3.917 3.93,3.93 0 0 1 -3.918,3.917 z"
     id="path66"
     inkscape:connector-curvature="0"
     style="fill:#151616" />
  <g
     id="g70"
     style="fill:#070707">
    <path
       d="m 31.667,159.025 0.746,0.311 c -0.117,0.561 -0.31,0.97 -0.581,1.229 a 1.391,1.391 0 0 1 -0.999,0.389 c -0.497,0 -0.9,-0.207 -1.208,-0.619 -0.355,-0.477 -0.533,-1.119 -0.533,-1.928 0,-0.854 0.179,-1.523 0.536,-2.006 0.312,-0.42 0.729,-0.629 1.254,-0.629 0.427,0 0.785,0.156 1.073,0.471 0.206,0.224 0.355,0.556 0.451,0.995 l -0.761,0.239 c -0.049,-0.271 -0.146,-0.479 -0.291,-0.624 -0.145,-0.145 -0.316,-0.217 -0.513,-0.217 -0.282,0 -0.512,0.132 -0.689,0.396 -0.177,0.264 -0.267,0.7 -0.267,1.31 0,0.631 0.086,1.08 0.26,1.346 0.173,0.268 0.398,0.4 0.676,0.4 0.203,0 0.378,-0.085 0.526,-0.255 0.148,-0.17 0.255,-0.439 0.32,-0.808 z m 1.406,1.842 v -5.011 h 0.768 v 1.972 h 1.513 v -1.972 h 0.768 v 5.011 h -0.768 v -2.191 H 33.84 v 2.191 z m 5.134,-1.326 0.708,-0.113 c 0.019,0.236 0.08,0.417 0.181,0.541 a 0.454,0.454 0 0 0 0.359,0.188 c 0.151,0 0.278,-0.074 0.382,-0.223 0.104,-0.147 0.156,-0.353 0.156,-0.615 0,-0.243 -0.05,-0.435 -0.149,-0.574 -0.1,-0.139 -0.221,-0.208 -0.363,-0.208 -0.093,0 -0.205,0.024 -0.334,0.071 l 0.079,-0.782 a 0.577,0.577 0 0 0 0.45,-0.164 c 0.108,-0.113 0.163,-0.273 0.163,-0.48 0,-0.172 -0.04,-0.308 -0.118,-0.405 -0.079,-0.098 -0.18,-0.146 -0.303,-0.146 -0.123,0 -0.229,0.057 -0.32,0.169 -0.09,0.113 -0.144,0.28 -0.161,0.501 l -0.675,-0.15 c 0.07,-0.458 0.206,-0.791 0.41,-0.998 0.203,-0.207 0.459,-0.311 0.769,-0.311 a 0.99,0.99 0 0 1 0.827,0.398 c 0.205,0.267 0.307,0.562 0.307,0.885 0,0.218 -0.046,0.415 -0.138,0.59 -0.092,0.176 -0.23,0.329 -0.414,0.461 a 0.914,0.914 0 0 1 0.521,0.406 c 0.134,0.21 0.202,0.473 0.202,0.787 0,0.457 -0.126,0.836 -0.38,1.136 -0.253,0.3 -0.554,0.45 -0.903,0.45 -0.334,0 -0.618,-0.127 -0.85,-0.379 -0.232,-0.254 -0.367,-0.599 -0.406,-1.035 z m 2.757,1.412 0.945,-5.182 h 0.548 l -0.955,5.182 z m 3.146,-0.086 v -1.008 h -1.561 v -0.842 l 1.653,-3.178 h 0.615 v 3.175 h 0.473 v 0.845 h -0.473 v 1.008 z m 0,-1.853 v -1.711 l -0.875,1.711 z"
       id="path68"
       inkscape:connector-curvature="0" />
  </g>
  <circle
     cx="10.913"
     cy="158.66701"
     r="2.2"
     id="circle72"
     style="fill:#44f518" />
  <path
     d="M 58.005,134.584 H 11.13 a 3.928,3.928 0 0 1 -3.917,-3.917 3.928,3.928 0 0 1 3.917,-3.917 h 46.875 a 3.928,3.928 0 0 1 3.917,3.917 3.93,3.93 0 0 1 -3.917,3.917 z"
     id="path74"
     inkscape:connector-curvature="0"
     style="fill:#151616" />
  <g
     id="g78"
     style="fill:#070707">
    <path
       d="M 29.705,133.105 H 28.89 l -0.327,-1.135 h -1.492 l -0.308,1.135 h -0.8 l 1.451,-5.011 h 0.797 z m -1.384,-1.982 -0.515,-1.859 -0.505,1.859 z m 1.788,1.982 v -5.011 h 0.731 l 1.525,3.347 v -3.347 h 0.701 v 5.011 H 32.31 l -1.5,-3.268 v 3.268 z m 4.588,0 v -4.163 h -1.106 v -0.848 h 2.961 v 0.848 h -1.104 v 4.163 z m 3.6,-1.633 0.735,-0.096 c 0.083,0.641 0.354,0.96 0.813,0.96 0.228,0 0.406,-0.065 0.536,-0.196 a 0.663,0.663 0 0 0 0.195,-0.486 0.575,0.575 0 0 0 -0.068,-0.291 0.52,0.52 0 0 0 -0.208,-0.196 c -0.093,-0.051 -0.318,-0.137 -0.676,-0.258 -0.32,-0.106 -0.555,-0.223 -0.704,-0.348 a 1.3,1.3 0 0 1 -0.355,-0.493 1.646,1.646 0 0 1 -0.132,-0.658 c 0,-0.272 0.056,-0.519 0.169,-0.737 0.112,-0.219 0.268,-0.384 0.466,-0.495 0.199,-0.111 0.443,-0.167 0.735,-0.167 0.438,0 0.78,0.131 1.026,0.393 0.246,0.262 0.376,0.637 0.391,1.125 l -0.753,0.044 c -0.033,-0.269 -0.104,-0.457 -0.214,-0.563 -0.109,-0.107 -0.266,-0.161 -0.468,-0.161 -0.202,0 -0.358,0.047 -0.468,0.14 a 0.44,0.44 0 0 0 -0.164,0.348 c 0,0.137 0.05,0.251 0.149,0.344 0.1,0.094 0.328,0.196 0.686,0.308 0.378,0.121 0.651,0.248 0.82,0.381 0.168,0.134 0.297,0.306 0.386,0.517 0.089,0.211 0.133,0.466 0.133,0.767 0,0.436 -0.122,0.801 -0.364,1.098 -0.243,0.296 -0.623,0.444 -1.14,0.444 -0.914,-0.005 -1.423,-0.578 -1.526,-1.724 z m 4.192,1.633 -0.893,-5.011 h 0.772 l 0.56,3.443 0.681,-3.443 h 0.897 l 0.654,3.502 0.575,-3.502 h 0.756 l -0.905,5.011 h -0.801 l -0.745,-3.748 -0.738,3.748 z m 4.362,0 v -5.011 h 0.75 v 5.011 z m 2.31,0 v -4.163 h -1.106 v -0.848 h 2.961 v 0.848 h -1.104 v 4.163 z m 4.728,-1.841 0.729,0.311 c -0.114,0.561 -0.303,0.97 -0.567,1.229 -0.264,0.259 -0.59,0.389 -0.977,0.389 -0.486,0 -0.879,-0.207 -1.181,-0.619 -0.347,-0.477 -0.521,-1.119 -0.521,-1.928 0,-0.854 0.175,-1.523 0.524,-2.006 0.304,-0.42 0.713,-0.629 1.226,-0.629 0.418,0 0.768,0.156 1.049,0.471 0.201,0.224 0.348,0.556 0.441,0.995 l -0.744,0.239 c -0.048,-0.271 -0.143,-0.479 -0.284,-0.624 a 0.679,0.679 0 0 0 -0.502,-0.217 c -0.275,0 -0.5,0.132 -0.674,0.396 -0.174,0.264 -0.261,0.7 -0.261,1.31 0,0.631 0.085,1.08 0.254,1.346 0.169,0.268 0.39,0.4 0.661,0.4 0.198,0 0.37,-0.085 0.515,-0.255 0.144,-0.171 0.248,-0.439 0.312,-0.808 z m 1.374,1.841 v -5.011 h 0.75 v 1.972 h 1.479 v -1.972 h 0.75 v 5.011 h -0.75 v -2.191 h -1.479 v 2.191 z"
       id="path76"
       inkscape:connector-curvature="0" />
  </g>
  <circle
     cx="10.663"
     cy="130.66701"
     r="2.2"
     id="circle80"
     style="fill:#44f518" />
  <path
     d="M 215.381,219.851 H 99.214 a 2.758,2.758 0 0 1 -2.75,-2.75 v -26.333 a 2.758,2.758 0 0 1 2.75,-2.75 h 116.167 a 2.759,2.759 0 0 1 2.75,2.75 v 26.333 a 2.759,2.759 0 0 1 -2.75,2.75 z"
     id="path82"
     inkscape:connector-curvature="0"
     style="fill:#181919" />
  <path
     d="m 200.878,196.761 a 8.115,8.115 0 0 1 6.353,1.622 c 1.298,1.002 2.295,2.414 2.852,3.994 a 9.162,9.162 0 0 1 0.062,5.804 8.698,8.698 0 0 1 -2.882,4.165 c -1.453,1.146 -3.273,1.788 -5.097,1.75 -2.73,0.026 -5.403,-1.493 -6.903,-3.866 -1.562,-2.397 -1.843,-5.622 -0.742,-8.279 1.088,-2.709 3.571,-4.749 6.357,-5.19 z m -4.242,4.886 c -0.003,0.342 -0.003,0.684 -0.002,1.026 l 0.891,-0.001 c 0.002,1.823 0,3.645 0.001,5.468 h -0.892 v 1.024 h 2.787 v -1.024 c -0.298,0 -0.596,0 -0.893,-0.002 0.005,-2.161 -0.004,-4.322 0.004,-6.483 -0.631,-0.015 -1.264,-0.002 -1.896,-0.008 z m 3.655,0.643 c 0.005,2.045 -0.012,4.091 0.008,6.136 0.166,0.264 0.424,0.457 0.629,0.69 h 6.24 c 0.229,-0.309 0.712,-0.519 0.64,-0.975 -0.011,-0.876 0.01,-1.75 -0.01,-2.625 -0.128,-0.234 -0.35,-0.396 -0.525,-0.59 -2.028,0.009 -4.056,-0.006 -6.085,0.007 -0.012,-0.761 -0.003,-1.523 -0.005,-2.285 h 5.753 c -0.001,0.318 -0.001,0.637 0.002,0.955 l 0.868,-0.001 c 0,-0.449 -0.004,-0.9 0.004,-1.349 -0.18,-0.198 -0.366,-0.391 -0.551,-0.583 -2.118,0.007 -4.237,-0.01 -6.354,0.008 -0.23,0.176 -0.411,0.408 -0.614,0.612 z m -87.988,-5.178 c 0.541,-0.002 1.082,0.004 1.623,-0.004 0.011,4.933 0.001,9.867 0.004,14.8 h 1.828 c 0.004,-4.934 -0.007,-9.867 0.005,-14.801 0.549,0.01 1.098,0 1.647,0.007 -0.006,4.728 -0.002,9.457 -0.003,14.185 -0.006,0.341 0.029,0.69 -0.053,1.024 -0.155,0.718 -0.826,1.263 -1.53,1.26 -0.654,0 -1.308,0.003 -1.962,-0.002 -0.854,-0.017 -1.58,-0.844 -1.557,-1.729 -0.009,-4.913 0,-9.827 -0.002,-14.74 z m 9.231,0 c 1.126,0.007 2.253,-0.013 3.379,0.009 0.797,0.011 1.651,0.641 1.659,1.529 0.003,1.8 0.003,3.6 0,5.4 -0.006,0.779 -0.505,1.59 -1.273,1.735 0.532,2.599 1.054,5.199 1.588,7.797 -0.51,0.002 -1.02,0.001 -1.531,0.001 -0.565,-2.568 -1.137,-5.132 -1.701,-7.7 l -0.56,-0.002 c -0.001,2.568 0.001,5.135 -0.001,7.702 h -1.56 z m 1.627,1.629 c 0.002,1.791 0,3.582 0.001,5.373 0.601,0.001 1.202,-0.003 1.804,0.003 0.004,-1.792 0.001,-3.585 0.002,-5.377 -0.603,0.001 -1.205,-0.001 -1.807,0.001 z m 7.846,-1.626 c 1.18,-0.003 2.36,-0.013 3.539,0.004 0.747,-0.002 1.453,0.644 1.48,1.436 0.004,1.737 0,3.476 0.002,5.214 0.004,0.483 -0.326,0.865 -0.651,1.166 0.314,0.273 0.618,0.627 0.648,1.074 0.048,0.708 0.017,1.419 0.026,2.129 -0.008,1.084 0.02,2.169 -0.022,3.253 -0.014,0.461 0.068,0.954 -0.153,1.378 -0.238,0.513 -0.786,0.809 -1.319,0.813 -1.181,0.003 -2.361,-0.005 -3.542,0.003 -0.011,-5.489 0.003,-10.98 -0.008,-16.47 z m 1.631,1.625 c 0,1.791 -0.001,3.584 0.001,5.375 0.602,-0.002 1.203,0 1.805,-0.001 0.001,-1.791 -0.002,-3.582 0.002,-5.372 -0.603,-0.004 -1.205,-10e-4 -1.808,-0.002 z m 0.002,7.094 c -0.004,2.04 -10e-4,4.081 -0.002,6.121 0.602,-0.001 1.205,0.002 1.807,-0.001 -0.003,-2.04 0,-4.079 -0.001,-6.118 -0.601,-0.001 -1.203,0.002 -1.804,-0.002 z m 8.642,-8.63 c 0.48,-0.144 0.986,-0.078 1.479,-0.092 0.543,0.011 1.13,-0.07 1.627,0.216 0.494,0.274 0.933,0.795 0.917,1.408 -0.002,4.222 -0.001,8.444 0,12.666 -0.006,0.368 0.041,0.758 -0.121,1.099 -0.252,0.549 -0.752,1.018 -1.349,1.079 -0.535,0.013 -1.07,-0.003 -1.605,0.005 -0.313,-0.003 -0.639,0.03 -0.935,-0.097 -0.626,-0.257 -1.142,-0.901 -1.121,-1.626 0.001,-4.217 0.002,-8.436 0,-12.654 0.004,-0.34 -0.032,-0.698 0.104,-1.017 a 1.777,1.777 0 0 1 1.004,-0.987 z m 0.61,1.56 c -0.001,4.365 0.001,8.732 -0.001,13.097 0.58,0.002 1.16,0.002 1.741,0 -0.002,-4.366 0,-8.732 -0.001,-13.097 z"
     id="path84"
     inkscape:connector-curvature="0"
     style="fill:#f79226" />
  <path
     d="m 201.228,205.906 c 1.88,0.001 3.761,-0.001 5.642,0.001 -0.002,0.736 -0.001,1.472 -0.001,2.209 -1.882,-0.004 -3.764,0.007 -5.645,-0.006 0.008,-0.735 0.001,-1.469 0.004,-2.204 z M 105.54,195.422 h -1.532 v -1.652 h 4.905 v 1.652 h -1.532 v 18.146 h -1.841 z"
     id="path86"
     inkscape:connector-curvature="0"
     style="fill:#f79226" />
  <g
     id="g90">
    <path
       d="m 149.919,195.573 c -0.035,-0.845 0.617,-1.651 1.414,-1.779 0.65,-0.026 1.301,10e-4 1.952,-0.011 0.937,-0.103 1.814,0.82 1.764,1.788 -0.001,0.971 -0.004,1.941 0.001,2.911 -0.558,0.006 -1.116,0.002 -1.674,0.003 -0.003,-0.986 0.005,-1.972 -0.004,-2.958 -0.622,0.007 -1.243,0.005 -1.865,0.001 -0.008,5.476 -0.001,10.952 -0.004,16.428 0.64,-0.003 1.281,0.006 1.922,-0.006 -0.01,-2.65 -0.002,-5.301 -0.004,-7.951 h -0.847 v -1.582 c 0.823,-0.002 1.647,0.004 2.472,-0.003 0.004,3.717 0.009,7.434 -0.003,11.149 -1.15,-0.007 -2.299,-10e-4 -3.449,-0.002 a 1.728,1.728 0 0 1 -1.58,-1.095 c -0.132,-0.342 -0.087,-0.716 -0.094,-1.074 0,-5.273 0.001,-10.546 -10e-4,-15.819 z m 9.454,1.54 c 1.093,0.001 2.186,-0.006 3.279,0.003 0.673,-0.008 1.362,0.374 1.649,1.024 0.118,0.245 0.087,0.525 0.092,0.789 -0.004,1.736 0,3.473 -0.003,5.209 -0.037,0.736 -0.536,1.486 -1.263,1.614 0.54,2.6 1.063,5.204 1.589,7.808 l -1.529,0.001 c -0.567,-2.577 -1.14,-5.151 -1.708,-7.727 l -0.544,0.004 c -0.002,2.582 0.003,5.165 -0.003,7.747 -0.52,-0.003 -1.04,0.001 -1.559,-0.003 0.003,-5.49 0.001,-10.98 0,-16.469 z m 1.584,1.604 v 5.351 c 0.609,10e-4 1.218,-0.001 1.828,10e-4 0.003,-1.784 0.001,-3.568 0.001,-5.352 z m 7.672,-0.076 c 0.004,-0.748 0.6,-1.467 1.33,-1.502 0.716,-0.01 1.432,10e-4 2.149,-0.006 0.366,-0.007 0.746,0.091 1.033,0.338 0.332,0.279 0.506,0.729 0.505,1.17 v 14.919 h -1.539 c -0.001,-2.606 0.001,-5.212 -0.001,-7.818 -0.639,0.001 -1.277,0.002 -1.915,-10e-4 -0.004,2.607 0.001,5.213 -0.004,7.82 -0.52,-0.002 -1.039,-0.001 -1.559,-0.001 0.001,-4.973 -0.002,-9.946 0.001,-14.919 z m 1.604,0.169 c 0.003,1.762 -0.005,3.523 0.004,5.285 0.608,-0.007 1.217,-0.003 1.825,-0.004 -0.001,-1.761 0.002,-3.521 -0.002,-5.282 -0.609,0.002 -1.218,0 -1.827,0.001 z m 7.336,-0.261 c 0.005,-0.722 0.611,-1.402 1.312,-1.414 0.879,-0.004 1.756,0.001 2.635,-0.001 v 1.466 c -0.787,-0.002 -1.573,0.004 -2.359,-0.004 -0.01,1.84 -0.003,3.679 -0.004,5.518 0.646,-0.002 1.292,-0.001 1.939,-0.001 0,0.543 -0.002,1.085 10e-4,1.628 -0.647,0.002 -1.293,10e-4 -1.94,0 -0.003,2.606 0,5.212 -0.001,7.818 h -1.583 z m 7.871,-1.414 h 1.65 c 0.01,1.522 -0.021,3.045 0.014,4.565 0.28,0.488 0.607,0.946 0.899,1.428 0.287,-0.471 0.623,-0.911 0.882,-1.401 0.025,-1.529 0.005,-3.061 0.009,-4.591 0.551,-0.003 1.102,-0.004 1.654,0 -0.005,1.093 -0.001,2.187 -0.002,3.28 -0.006,0.508 0.046,1.033 -0.134,1.519 -0.366,1.017 -0.916,1.947 -1.463,2.865 0.622,1.042 1.296,2.098 1.581,3.302 0.033,1.826 0.009,3.655 0.012,5.482 -0.512,-0.004 -1.023,-0.001 -1.535,-0.002 -0.005,-1.835 0.011,-3.67 -0.007,-5.504 -0.259,-0.556 -0.648,-1.041 -0.959,-1.569 -0.319,0.51 -0.655,1.008 -0.976,1.516 -0.001,1.854 0.008,3.707 -0.004,5.561 -0.541,-0.008 -1.082,-0.002 -1.622,-0.004 -0.001,-1.722 0.002,-3.443 -0.001,-5.165 -0.007,-0.467 0.207,-0.894 0.384,-1.31 a 21.07,21.07 0 0 1 1.315,-2.325 c -0.644,-1.03 -1.36,-2.059 -1.679,-3.259 -0.044,-1.459 -0.004,-2.925 -0.018,-4.388 z"
       id="path88"
       inkscape:connector-curvature="0"
       style="fill:#d5e14d" />
  </g>
  <g
     id="g116">
    <path
       d="m 0,230.167 h 308.171 v 3.75 H 0 Z"
       id="path92"
       inkscape:connector-curvature="0"
       style="fill:#0b0b0c" />
    <path
       d="m 0,233.917 h 308.171 v 1 H 0 Z"
       id="path94"
       inkscape:connector-curvature="0"
       style="fill:#353636" />
    <path
       d="m 0,234.917 h 308.171 v 1 H 0 Z"
       id="path96"
       inkscape:connector-curvature="0"
       style="fill:#151616" />
    <path
       d="m 0,235.917 h 308.171 v 3.75 H 0 Z"
       id="path98"
       inkscape:connector-curvature="0"
       style="fill:#0b0b0c" />
    <path
       d="m 0,239.667 h 308.171 v 1 H 0 Z"
       id="path100"
       inkscape:connector-curvature="0"
       style="fill:#353636" />
    <path
       d="m 0,240.667 h 308.171 v 1 H 0 Z"
       id="path102"
       inkscape:connector-curvature="0"
       style="fill:#151616" />
    <path
       d="m 0,241.667 h 308.171 v 3.75 H 0 Z"
       id="path104"
       inkscape:connector-curvature="0"
       style="fill:#0b0b0c" />
    <path
       d="m 0,245.417 h 308.171 v 1 H 0 Z"
       id="path106"
       inkscape:connector-curvature="0"
       style="fill:#353636" />
    <path
       d="m 0,246.417 h 308.171 v 1 H 0 Z"
       id="path108"
       inkscape:connector-curvature="0"
       style="fill:#151616" />
    <path
       d="m 0,247.417 h 308.171 v 3.75 H 0 Z"
       id="path110"
       inkscape:connector-curvature="0"
       style="fill:#0b0b0c" />
    <path
       d="m 0,251.167 h 308.171 v 1 H 0 Z"
       id="path112"
       inkscape:connector-curvature="0"
       style="fill:#353636" />
    <path
       d="m 0,252.167 h 308.171 v 1 H 0 Z"
       id="path114"
       inkscape:connector-curvature="0"
       style="fill:#151616" />
  </g>
  <path
     d="m 0,253.167 h 308.171 v 3.75 H 0 Z"
     id="path118"
     inkscape:connector-curvature="0"
     style="fill:#0b0b0c" />
  <path
     d="m 0,256.917 h 308.171 v 1 H 0 Z"
     id="path120"
     inkscape:connector-curvature="0"
     style="fill:#353636" />
  <path
     d="m 0,257.917 h 308.171 v 1 H 0 Z"
     id="path122"
     inkscape:connector-curvature="0"
     style="fill:#151616" />
  <g
     id="g154">
    <path
       d="m 455.088,230.167 h 73.505 v 3.75 h -73.505 z"
       id="path124"
       inkscape:connector-curvature="0"
       style="fill:#0b0b0c" />
    <path
       d="m 455.088,233.917 h 73.505 v 1 h -73.505 z"
       id="path126"
       inkscape:connector-curvature="0"
       style="fill:#353636" />
    <path
       d="m 455.088,234.917 h 73.505 v 1 h -73.505 z"
       id="path128"
       inkscape:connector-curvature="0"
       style="fill:#151616" />
    <path
       d="m 455.088,235.917 h 73.505 v 3.75 h -73.505 z"
       id="path130"
       inkscape:connector-curvature="0"
       style="fill:#0b0b0c" />
    <path
       d="m 455.088,239.667 h 73.505 v 1 h -73.505 z"
       id="path132"
       inkscape:connector-curvature="0"
       style="fill:#353636" />
    <path
       d="m 455.088,240.667 h 73.505 v 1 h -73.505 z"
       id="path134"
       inkscape:connector-curvature="0"
       style="fill:#151616" />
    <path
       d="m 455.088,241.667 h 73.505 v 3.75 h -73.505 z"
       id="path136"
       inkscape:connector-curvature="0"
       style="fill:#0b0b0c" />
    <path
       d="m 455.088,245.417 h 73.505 v 1 h -73.505 z"
       id="path138"
       inkscape:connector-curvature="0"
       style="fill:#353636" />
    <path
       d="m 455.088,246.417 h 73.505 v 1 h -73.505 z"
       id="path140"
       inkscape:connector-curvature="0"
       style="fill:#151616" />
    <path
       d="m 455.088,247.417 h 73.505 v 3.75 h -73.505 z"
       id="path142"
       inkscape:connector-curvature="0"
       style="fill:#0b0b0c" />
    <path
       d="m 455.088,251.167 h 73.505 v 1 h -73.505 z"
       id="path144"
       inkscape:connector-curvature="0"
       style="fill:#353636" />
    <path
       d="m 455.088,252.167 h 73.505 v 1 h -73.505 z"
       id="path146"
       inkscape:connector-curvature="0"
       style="fill:#151616" />
    <path
       d="m 455.088,253.167 h 73.505 v 3.75 h -73.505 z"
       id="path148"
       inkscape:connector-curvature="0"
       style="fill:#0b0b0c" />
    <path
       d="m 455.088,256.917 h 73.505 v 1 h -73.505 z"
       id="path150"
       inkscape:connector-curvature="0"
       style="fill:#353636" />
    <path
       d="m 455.088,257.917 h 73.505 v 1 h -73.505 z"
       id="path152"
       inkscape:connector-curvature="0"
       style="fill:#151616" />
  </g>
  <g
     id="g158">
    <path
       d="m 495.235,117.937 -4.636,-4.158 -2.106,1.803 1.011,0.692 -1.207,5.004 2.423,-0.796 -1.251,-0.867 0.694,-2.646 4.883,4.214 1.686,-5.746 1.707,-0.773 -2.064,-0.94 z m 4.083,-3.462 c 0.146,0.124 0.329,0.282 0.287,0.45 l -0.57,2.247 c -0.045,0.176 -0.253,0.303 -0.416,0.391 -0.163,0.088 -0.364,0.111 -0.564,0.135 0.173,0.051 0.346,0.102 0.462,0.196 0.117,0.094 0.277,0.228 0.235,0.369 l -0.652,2.189 c -0.061,0.202 -0.336,0.328 -0.531,0.438 -0.195,0.11 -0.418,0.166 -0.641,0.222 h 7.8 l 0.548,-2.19 c -0.3,0.455 -0.6,0.909 -1.111,1.201 -0.512,0.291 -1.213,0.547 -1.955,0.547 h -1.429 l 0.713,-2.71 c 0.259,-0.067 0.552,-0.06 0.816,0.036 0.265,0.095 0.5,0.281 0.713,0.483 0.211,0.202 0.397,0.419 0.545,0.65 l 0.747,-2.85 c -0.255,0.209 -0.54,0.399 -0.846,0.569 -0.307,0.171 -0.634,0.323 -0.941,0.398 a 1.857,1.857 0 0 1 -0.859,0.017 l 0.739,-2.668 1.15,-0.008 c 0.521,-0.003 1.041,-0.05 1.46,0.207 0.421,0.258 0.743,0.798 1.063,1.339 l 0.569,-1.953 h -7.929 c 0.225,0.087 0.449,0.171 0.597,0.295 z m 9.344,0.684 c -0.583,0.372 -1.11,0.867 -1.46,1.407 -0.35,0.539 -0.528,1.125 -0.537,1.66 a 2.58,2.58 0 0 0 0.441,1.472 c 0.293,0.448 0.718,0.855 1.243,1.13 0.527,0.276 1.152,0.42 1.727,0.486 a 6.97,6.97 0 0 0 1.511,0.011 3.45,3.45 0 0 0 0.997,-0.234 l 1.645,-2.56 c -0.426,0.15 -0.86,0.287 -1.309,0.425 -0.45,0.139 -0.915,0.281 -1.409,0.325 -0.494,0.044 -1.017,-0.008 -1.481,-0.214 -0.464,-0.206 -0.869,-0.567 -1.079,-0.972 a 1.544,1.544 0 0 1 -0.078,-1.256 c 0.147,-0.404 0.458,-0.765 0.835,-1.08 0.377,-0.315 0.82,-0.587 1.232,-0.765 a 3.33,3.33 0 0 1 1.182,-0.286 l 1.243,1.341 1.43,-0.4 -1.003,-1.837 a 8.157,8.157 0 0 0 -0.903,0.028 c -0.336,0.027 -0.725,0.074 -1.128,0.151 a 9.766,9.766 0 0 0 -1.35,0.366 c -0.527,0.179 -1.167,0.43 -1.749,0.802 z"
       id="path156"
       inkscape:connector-curvature="0"
       style="clip-rule:evenodd;fill:#181919;fill-rule:evenodd" />
  </g>
</svg>
