<?xml version="1.0" encoding="UTF-8" standalone="no"?>
<svg
   xmlns:dc="http://purl.org/dc/elements/1.1/"
   xmlns:cc="http://creativecommons.org/ns#"
   xmlns:rdf="http://www.w3.org/1999/02/22-rdf-syntax-ns#"
   xmlns:svg="http://www.w3.org/2000/svg"
   xmlns="http://www.w3.org/2000/svg"
   xmlns:sodipodi="http://sodipodi.sourceforge.net/DTD/sodipodi-0.dtd"
   xmlns:inkscape="http://www.inkscape.org/namespaces/inkscape"
   viewBox="288.456 315.765 104.8 216.44001"
   version="1.1"
   id="svg158"
   sodipodi:docname="controller.svg"
   width="104.8"
   height="216.44"
   inkscape:version="0.92.4 5da689c313, 2019-01-14">
  <metadata
     id="metadata164">
    <rdf:RDF>
      <cc:Work
         rdf:about="">
        <dc:format>image/svg+xml</dc:format>
        <dc:type
           rdf:resource="http://purl.org/dc/dcmitype/StillImage" />
      </cc:Work>
    </rdf:RDF>
  </metadata>
  <defs
     id="defs162" />
  <sodipodi:namedview
     pagecolor="#ffffff"
     bordercolor="#666666"
     borderopacity="1"
     objecttolerance="10"
     gridtolerance="10"
     guidetolerance="10"
     inkscape:pageopacity="0"
     inkscape:pageshadow="2"
     inkscape:window-width="640"
     inkscape:window-height="480"
     id="namedview160"
     showgrid="false"
     inkscape:zoom="1.0903765"
     inkscape:cx="52.400002"
     inkscape:cy="108.2205"
     inkscape:window-x="0"
     inkscape:window-y="0"
     inkscape:window-maximized="0"
     inkscape:current-layer="svg158" />
  <linearGradient
     id="a"
     gradientUnits="userSpaceOnUse"
     x1="340.85599"
     y1="476.38501"
     x2="340.85599"
     y2="374.017"
     gradientTransform="rotate(90,340.856,423.984)">
    <stop
       offset="0"
       stop-color="#232323"
       id="stop2" />
    <stop
       offset=".827"
       stop-color="#232323"
       id="stop4" />
    <stop
       offset=".865"
       stop-color="#252525"
       id="stop6" />
    <stop
       offset=".879"
       stop-color="#2c2c2c"
       id="stop8" />
    <stop
       offset=".889"
       stop-color="#373737"
       id="stop10" />
    <stop
       offset=".89"
       stop-color="#393939"
       id="stop12" />
    <stop
       offset=".9"
       stop-color="#2b2b2b"
       id="stop14" />
    <stop
       offset=".916"
       stop-color="#202020"
       id="stop16" />
    <stop
       offset=".938"
       stop-color="#191919"
       id="stop18" />
    <stop
       offset="1"
       stop-color="#171717"
       id="stop20" />
  </linearGradient>
  <path
     d="m 288.456,424.089 v -103.29 c 0,-2.769 2.266,-5.034 5.034,-5.034 h 83.068 c 2.769,0 5.328,2.853 5.328,5.622 l 8.936,102.703 v -0.21 l -8.936,102.703 c 0,2.769 -2.559,5.622 -5.328,5.622 H 293.49 c -2.769,0 -5.034,-2.266 -5.034,-5.034 v -103.29"
     id="path23"
     inkscape:connector-curvature="0"
     style="fill:url(#a)" />
  <radialGradient
     id="b"
     cx="340.70901"
     cy="402.965"
     r="32.328999"
     gradientTransform="rotate(90,340.856,423.984)"
     gradientUnits="userSpaceOnUse">
    <stop
       offset="0"
       stop-color="#484848"
       id="stop25" />
    <stop
       offset="1"
       stop-color="#313130"
       id="stop27" />
  </radialGradient>
  <path
     d="m 361.875,390.274 c -17.159,0 -31.046,15.019 -31.046,33.563 0,18.544 13.887,33.563 31.046,33.563 h 28.109 c 1.594,0 2.937,-1.343 2.937,-2.937 v -61.252 c 0,-1.594 -1.343,-2.937 -2.937,-2.937 z"
     id="path30"
     inkscape:connector-curvature="0"
     style="fill:url(#b)" />
  <path
     d="m 365.357,398.875 v 2.307 h -0.755 v -0.713 h -8.181 v -0.797 h 8.181 v -0.797 z m -1.342,45.52 c 0.168,1.049 -0.084,2.14 -0.713,2.979 a 3.808,3.808 0 0 1 -1.804,1.343 c -0.839,0.294 -1.762,0.336 -2.601,0.042 -0.755,-0.252 -1.384,-0.713 -1.888,-1.343 a 4.092,4.092 0 0 1 -0.797,-2.391 c 0,-1.301 0.671,-2.559 1.72,-3.23 1.091,-0.713 2.517,-0.881 3.734,-0.336 1.216,0.46 2.139,1.635 2.349,2.936 z m -2.224,-2.014 h -0.461 v 0.42 h -2.475 v -0.42 h -0.461 v 1.301 h 0.461 v -0.42 h 2.937 z m -0.294,1.72 h -2.769 c -0.126,0.084 -0.21,0.21 -0.294,0.294 v 2.937 c 0.126,0.126 0.252,0.336 0.42,0.294 h 1.175 c 0.126,-0.042 0.168,-0.168 0.252,-0.252 v -2.853 h 1.049 v 2.685 h -0.42 v 0.42 h 0.587 l 0.252,-0.252 v -2.979 c -0.042,-0.084 -0.126,-0.168 -0.252,-0.294 z m 2.35,-41.324 v 0.755 h -6.671 v 0.839 h 6.671 v 0.755 h -6.377 c -0.168,0 -0.294,0 -0.461,-0.042 -0.336,-0.084 -0.587,-0.378 -0.587,-0.713 v -0.923 c 0,-0.42 0.378,-0.755 0.797,-0.713 2.181,0.042 4.404,0.042 6.628,0.042 z m 0,4.321 v 1.594 c 0,0.378 -0.294,0.755 -0.671,0.797 h -2.433 c -0.336,0 -0.713,-0.252 -0.797,-0.587 l -3.524,0.755 v -0.713 c 1.175,-0.252 2.307,-0.545 3.482,-0.797 v -0.252 h -3.482 v -0.713 c 2.474,-0.084 4.95,-0.084 7.425,-0.084 z m -0.755,0.755 h -2.433 v 0.839 h 2.433 z m 0.755,3.692 v 1.678 a 0.76,0.76 0 0 1 -0.629,0.713 h -2.349 c -0.21,0 -0.378,-0.168 -0.545,-0.294 -0.126,0.168 -0.294,0.294 -0.503,0.294 -0.336,0.042 -0.629,0 -0.965,0 h -1.468 c -0.21,0 -0.42,0.042 -0.629,-0.084 a 0.693,0.693 0 0 1 -0.378,-0.629 v -1.678 z m -0.755,0.797 h -2.433 v 0.839 h 2.433 z m -3.189,0 h -2.769 v 0.839 h 2.769 z m 3.902,4.028 c 0.084,0.21 0.042,0.461 0.042,0.713 0,0.252 0.042,0.545 -0.084,0.755 -0.126,0.252 -0.378,0.42 -0.629,0.42 h -5.706 c -0.168,0 -0.336,0 -0.503,-0.042 -0.252,-0.126 -0.461,-0.336 -0.503,-0.629 v -0.755 c 0,-0.168 0,-0.294 0.042,-0.42 0.126,-0.294 0.42,-0.545 0.713,-0.545 h 5.706 c 0.168,0 0.294,0 0.461,0.042 a 0.829,0.829 0 0 1 0.461,0.461 z m -0.713,0.293 h -5.915 v 0.797 h 5.915 z"
     id="path32"
     inkscape:connector-curvature="0"
     style="fill:#4e4e4e" />
  <path
     d="m 359.903,444.563 v 2.643 h -1.007 v -2.643 z m 4.615,-24.124 c 0.378,0 0.755,0.294 0.797,0.671 v 0.923 c 0.042,0.42 -0.378,0.839 -0.797,0.839 h -1.301 v -0.797 h 1.343 v -0.881 h -7.384 v 0.923 h 3.566 v -0.378 h 0.713 v 1.175 h -5.034 v -1.636 c 0,-0.294 0.21,-0.629 0.503,-0.755 0.168,-0.042 0.336,-0.042 0.503,-0.042 2.35,-0.042 4.742,-0.042 7.091,-0.042 z m -0.671,4.447 v 1.552 c 0,0.336 -0.168,0.629 -0.461,0.755 -0.126,0.042 -0.252,0.042 -0.336,0.042 h -2.349 c -0.336,0 -0.671,-0.252 -0.713,-0.587 l -3.524,0.755 v -0.713 c 1.175,-0.252 2.307,-0.545 3.482,-0.797 v -0.252 h -3.482 v -0.713 c 2.432,-0.042 4.908,-0.042 7.383,-0.042 z m -0.713,0.755 h -2.391 v 0.839 h 2.391 z m 0.042,3.608 c 0.336,0 0.671,0.294 0.671,0.629 v 1.007 c 0,0.168 -0.042,0.336 -0.168,0.503 -0.126,0.167 -0.336,0.252 -0.545,0.252 h -6.713 v -0.713 h 3.524 v -0.881 h -3.524 v -0.713 c 2.265,-0.084 4.489,-0.084 6.755,-0.084 z m -0.084,0.756 h -2.391 v 0.839 h 2.391 z m 0.125,3.44 c 0.336,0 0.629,0.294 0.629,0.629 v 1.259 h -0.671 v -1.091 H 360.7 v 0.923 h -0.713 v -0.923 h -3.524 v -0.755 c 2.223,-0.042 4.489,-0.042 6.754,-0.042 z m 0.63,3.692 v 0.755 h -2.056 c -0.21,0.126 -0.42,0.294 -0.629,0.42 0.21,0.126 0.42,0.294 0.629,0.42 h 2.056 v 0.797 h -1.468 c -0.21,0 -0.461,0.042 -0.671,-0.042 -0.461,-0.168 -0.881,-0.42 -1.301,-0.671 -0.462,0.294 -0.965,0.629 -1.468,0.755 h -2.475 v -0.713 h 2.475 c 0.252,-0.126 0.461,-0.294 0.713,-0.461 -0.21,-0.168 -0.461,-0.294 -0.671,-0.462 h -2.517 v -0.755 h 2.307 c 0.21,0 0.42,0.084 0.587,0.168 0.378,0.168 0.713,0.378 1.049,0.629 0.461,-0.294 0.923,-0.629 1.468,-0.797 0.629,-0.043 1.301,-0.043 1.972,-0.043 z"
     id="path34"
     inkscape:connector-curvature="0"
     style="fill:#4e4e4e" />
  <path
     d="m 302.51,346.139 c 0,-10.656 8.684,-19.341 19.383,-19.341 10.699,0 19.341,8.684 19.341,19.341 0,10.657 -8.684,19.341 -19.341,19.341 -10.657,0 -19.383,-8.643 -19.383,-19.341 z m 37.885,0 c 0,-10.195 -8.307,-18.502 -18.502,-18.502 -10.195,0 -18.544,8.307 -18.544,18.502 0,10.195 8.307,18.502 18.544,18.502 10.195,0.042 18.502,-8.265 18.502,-18.502 z"
     id="path36"
     inkscape:connector-curvature="0"
     style="fill:#1a1a1a" />
  <circle
     cx="321.89301"
     cy="346.13901"
     r="18.962999"
     id="circle38"
     style="fill:#404040" />
  <path
     d="M 327.892,362.837 V 352.18 h 10.698 a 0.842,0.842 0 0 0 0.839,-0.839 v -10.405 a 0.842,0.842 0 0 0 -0.839,-0.839 h -10.698 v -10.656 a 0.842,0.842 0 0 0 -0.839,-0.839 H 316.69 a 0.842,0.842 0 0 0 -0.839,0.839 v 10.698 h -10.698 a 0.841,0.841 0 0 0 -0.839,0.839 v 10.363 c 0,0.461 0.378,0.839 0.839,0.839 h 10.698 v 10.698 c 0,0.461 0.378,0.839 0.839,0.839 h 10.363 c 0.462,-0.041 0.839,-0.419 0.839,-0.88"
     id="path40"
     inkscape:connector-curvature="0"
     style="fill:#4c4c4c" />
  <circle
     cx="321.85101"
     cy="346.13901"
     r="4.4050002"
     id="circle42"
     style="fill:#595959" />
  <path
     d="m 330.326,423.879 c 0,-18.753 14.096,-33.983 31.465,-33.983 H 389.9 a 3.366,3.366 0 0 1 3.356,3.356 v 61.294 a 3.366,3.366 0 0 1 -3.356,3.356 h -28.109 c -17.369,-0.04 -31.465,-15.311 -31.465,-34.023 z m 62.091,-30.668 a 2.525,2.525 0 0 0 -2.517,-2.517 h -28.109 c -16.907,0 -30.626,14.894 -30.626,33.143 0,18.292 13.719,33.143 30.626,33.143 H 389.9 a 2.525,2.525 0 0 0 2.517,-2.517 z"
     id="path44"
     inkscape:connector-curvature="0"
     style="fill:#1a1a1a" />
  <path
     d="m 322.648,423.879 c 0,22.739 18.46,41.199 41.199,41.199 2.769,0 5.076,1.972 5.076,4.405 v 40.695 c 0,2.433 -2.266,4.405 -5.076,4.405 h -40.443 a 16.472,16.472 0 0 1 -10.363,3.65 c -8.978,0 -16.236,-7.09 -16.236,-15.859 v -78.453 0.21 -65.112 c 0.126,-0.252 0.168,-1.552 1.72,-1.846 1.72,-0.378 2.266,-1.804 5.118,1.175 3.986,5.915 10.782,9.817 18.46,9.733 11.999,-0.168 21.732,-10.153 21.606,-22.152 -0.042,-4.111 -1.217,-7.971 -3.272,-11.244 -0.336,-0.545 0.084,-1.259 0.713,-1.259 h 22.613 c 2.853,-0.042 5.16,1.93 5.16,4.363 v 40.695 c 0,2.433 -2.266,4.405 -5.076,4.405 -22.739,0 -41.199,18.46 -41.199,41.199"
     id="path46"
     inkscape:connector-curvature="0"
     style="fill:#434342" />
  <path
     d="m 327.557,501.704 h 8.349 v 0.881 h -8.349 z m 0,-23.914 h 8.349 v 0.881 h -8.349 z m 0,-2.517 h 8.349 v 0.881 h -8.349 z"
     id="path48"
     inkscape:connector-curvature="0"
     style="fill:#ecf332" />
  <circle
     cx="358.099"
     cy="485.80301"
     r="1.3839999"
     id="circle50"
     style="fill:#fd5a17" />
  <circle
     cx="358.099"
     cy="489.57901"
     r="1.3839999"
     id="circle52"
     style="fill:#fd5a17" />
  <circle
     cx="358.099"
     cy="493.35501"
     r="1.3839999"
     id="circle54"
     style="fill:#fd5a17" />
  <circle
     cx="352.64499"
     cy="485.80301"
     r="0.88099998"
     id="circle56"
     style="fill:#fd5a17" />
  <circle
     cx="352.64499"
     cy="489.57901"
     r="0.88099998"
     id="circle58"
     style="fill:#fd5a17" />
  <circle
     cx="352.64499"
     cy="493.35501"
     r="0.88099998"
     id="circle60"
     style="fill:#fd5a17" />
  <circle
     cx="348.03"
     cy="485.80301"
     r="0.41999999"
     id="circle62"
     style="fill:#fd5a17" />
  <circle
     cx="348.03"
     cy="489.57901"
     r="0.41999999"
     id="circle64"
     style="fill:#fd5a17" />
  <circle
     cx="348.03"
     cy="493.35501"
     r="0.41999999"
     id="circle66"
     style="fill:#fd5a17" />
  <g
     id="g76">
    <path
       d="m 302.888,476.951 c 0,-5.454 4.447,-9.901 9.943,-9.901 5.496,0 9.943,4.447 9.943,9.901 0,5.454 -4.447,9.943 -9.943,9.943 -5.496,0 -9.943,-4.489 -9.943,-9.943 z m 19.005,0 c 0,-4.992 -4.07,-9.062 -9.104,-9.062 -5.034,0 -9.104,4.07 -9.104,9.062 0,4.992 4.069,9.104 9.104,9.104 5.035,0 9.104,-4.112 9.104,-9.104 z"
       id="path68"
       inkscape:connector-curvature="0"
       style="fill:#1a1a1a" />
    <circle
       cx="312.789"
       cy="476.95099"
       r="9.4820004"
       id="circle70"
       style="fill:#2c2c2e" />
    <path
       d="m 304.314,476.951 c 0,-4.699 3.776,-8.475 8.475,-8.475 4.699,0 8.517,3.818 8.517,8.517 0,4.699 -3.818,8.517 -8.517,8.517 -4.699,0 -8.475,-3.86 -8.475,-8.559 z m 16.153,0 c 0,-4.237 -3.44,-7.678 -7.678,-7.678 -4.238,0 -7.678,3.44 -7.678,7.678 0,4.238 3.44,7.678 7.678,7.678 4.238,0 7.678,-3.441 7.678,-7.678 z"
       id="path72"
       inkscape:connector-curvature="0"
       style="fill:#1a1a1a" />
    <circle
       cx="312.789"
       cy="476.95099"
       r="8.0970001"
       id="circle74"
       style="fill:#41413b" />
  </g>
  <g
     id="g86">
    <path
       d="m 302.888,502.165 c 0,-5.454 4.447,-9.901 9.943,-9.901 5.496,0 9.943,4.447 9.943,9.901 0,5.454 -4.447,9.943 -9.943,9.943 -5.496,0 -9.943,-4.489 -9.943,-9.943 z m 19.005,0 c 0,-4.992 -4.07,-9.062 -9.104,-9.062 -5.034,0 -9.104,4.07 -9.104,9.062 0,4.992 4.069,9.104 9.104,9.104 5.035,0 9.104,-4.111 9.104,-9.104 z"
       id="path78"
       inkscape:connector-curvature="0"
       style="fill:#1a1a1a" />
    <circle
       cx="312.789"
       cy="502.16501"
       r="9.4820004"
       id="circle80"
       style="fill:#2c2c2e" />
    <path
       d="m 304.314,502.165 c 0,-4.699 3.818,-8.517 8.517,-8.517 4.699,0 8.517,3.818 8.517,8.517 0,4.699 -3.818,8.517 -8.517,8.517 -4.699,0 -8.517,-3.86 -8.517,-8.517 z m 16.153,0 c 0,-4.237 -3.44,-7.678 -7.678,-7.678 -4.238,0 -7.678,3.44 -7.678,7.678 0,4.237 3.44,7.678 7.678,7.678 4.238,0 7.678,-3.483 7.678,-7.678 z"
       id="path82"
       inkscape:connector-curvature="0"
       style="fill:#1a1a1a" />
    <circle
       cx="312.789"
       cy="502.16501"
       r="8.0970001"
       id="circle84"
       style="fill:#41413b" />
  </g>
  <g
     id="g96">
    <path
       d="m 306.874,441.29 v -10.195 a 4.96,4.96 0 0 1 4.951,-4.951 4.96,4.96 0 0 1 4.951,4.951 v 10.195 a 4.96,4.96 0 0 1 -4.951,4.951 4.96,4.96 0 0 1 -4.951,-4.951 z m 9.02,-10.195 c 0,-2.266 -1.846,-4.111 -4.111,-4.111 -2.265,0 -4.111,1.846 -4.111,4.111 v 10.195 c 0,2.266 1.846,4.111 4.111,4.111 2.265,0 4.111,-1.846 4.111,-4.111 z"
       id="path88"
       inkscape:connector-curvature="0"
       style="fill:#1a1a1a" />
    <path
       d="m 307.293,441.29 v -10.195 a 4.494,4.494 0 0 1 4.489,-4.489 4.494,4.494 0 0 1 4.489,4.489 v 10.195 a 4.494,4.494 0 0 1 -4.489,4.489 c -2.475,0.042 -4.489,-2.014 -4.489,-4.489 z"
       id="path90"
       inkscape:connector-curvature="0"
       style="fill:#2c2c2e" />
    <path
       d="m 308.174,441.248 v -10.111 c 0,-2.014 1.636,-3.608 3.608,-3.608 1.972,0 3.608,1.636 3.608,3.608 v 10.111 c 0,2.014 -1.636,3.608 -3.608,3.608 -1.972,0 -3.608,-1.594 -3.608,-3.608 z m 6.419,-10.111 a 2.767,2.767 0 0 0 -2.769,-2.769 c -1.51,0 -2.769,1.259 -2.769,2.769 v 10.111 a 2.767,2.767 0 0 0 2.769,2.769 c 1.51,0 2.769,-1.259 2.769,-2.769 z"
       id="path92"
       inkscape:connector-curvature="0"
       style="fill:#1a1a1a" />
    <path
       d="m 308.594,441.248 v -10.111 a 3.187,3.187 0 0 1 3.189,-3.189 3.187,3.187 0 0 1 3.188,3.189 v 10.111 a 3.186,3.186 0 0 1 -3.188,3.188 3.186,3.186 0 0 1 -3.189,-3.188 z"
       id="path94"
       inkscape:connector-curvature="0"
       style="fill:#33322d" />
  </g>
  <g
     id="g106">
    <path
       d="m 306.874,416.621 v -10.195 a 4.96,4.96 0 0 1 4.951,-4.951 4.96,4.96 0 0 1 4.951,4.951 v 10.195 a 4.96,4.96 0 0 1 -4.951,4.951 4.96,4.96 0 0 1 -4.951,-4.951 z m 9.02,-10.194 c 0,-2.266 -1.846,-4.111 -4.111,-4.111 -2.265,0 -4.111,1.846 -4.111,4.111 v 10.195 c 0,2.265 1.846,4.111 4.111,4.111 2.265,0 4.111,-1.846 4.111,-4.111 z"
       id="path98"
       inkscape:connector-curvature="0"
       style="fill:#1a1a1a" />
    <path
       d="m 307.293,416.621 v -10.195 a 4.494,4.494 0 0 1 4.489,-4.489 4.494,4.494 0 0 1 4.489,4.489 v 10.195 a 4.494,4.494 0 0 1 -4.489,4.489 c -2.475,0.042 -4.489,-1.971 -4.489,-4.489 z"
       id="path100"
       inkscape:connector-curvature="0"
       style="fill:#2c2c2e" />
    <path
       d="m 308.174,416.579 v -10.111 c 0,-2.014 1.636,-3.608 3.608,-3.608 1.972,0 3.608,1.636 3.608,3.608 v 10.111 c 0,2.014 -1.636,3.608 -3.608,3.608 -1.972,0 -3.608,-1.594 -3.608,-3.608 z m 6.419,-10.11 a 2.767,2.767 0 0 0 -2.769,-2.769 c -1.51,0 -2.769,1.259 -2.769,2.769 v 10.111 a 2.767,2.767 0 0 0 2.769,2.769 c 1.51,0 2.769,-1.259 2.769,-2.769 z"
       id="path102"
       inkscape:connector-curvature="0"
       style="fill:#1a1a1a" />
    <path
       d="m 308.594,416.579 v -10.111 a 3.187,3.187 0 0 1 3.189,-3.188 3.186,3.186 0 0 1 3.188,3.188 v 10.111 a 3.186,3.186 0 0 1 -3.188,3.188 c -1.763,0.043 -3.189,-1.426 -3.189,-3.188 z"
       id="path104"
       inkscape:connector-curvature="0"
       style="fill:#33322d" />
  </g>
  <g
     id="g110"
     style="fill:#ecf332">
    <path
       d="m 303.601,406.888 h 1.133 v -0.671 h -1.846 v 0.462 c 0,0.21 0,0.336 -0.042,0.42 a 0.231,0.231 0 0 1 -0.126,0.21 c -0.042,0.084 -0.126,0.126 -0.168,0.126 -0.042,0 -0.168,0.042 -0.336,0.042 h -1.804 c -0.252,0 -0.42,-0.084 -0.503,-0.21 -0.084,-0.126 -0.168,-0.42 -0.168,-0.755 0,-0.335 0.042,-0.587 0.168,-0.755 0.084,-0.168 0.252,-0.21 0.503,-0.21 h 1.175 v 0.671 h -1.384 v 0.671 h 2.266 v -0.504 c 0,-0.21 0,-0.336 0.042,-0.42 0,-0.084 0.042,-0.168 0.084,-0.252 0.042,-0.084 0.126,-0.126 0.168,-0.126 0.084,0 0.168,-0.042 0.336,-0.042 h 1.385 c 0.252,0 0.42,0.084 0.503,0.21 0.084,0.126 0.168,0.42 0.168,0.755 0,0.21 0,0.336 -0.042,0.461 -0.042,0.126 -0.084,0.21 -0.126,0.294 -0.042,0.084 -0.126,0.126 -0.168,0.168 -0.042,0.042 -0.168,0.042 -0.294,0.042 h -0.881 v -0.587 z m -3.062,3.021 h -0.168 c -0.21,0 -0.378,-0.084 -0.461,-0.21 -0.084,-0.126 -0.126,-0.378 -0.126,-0.713 0,-0.335 0.042,-0.587 0.126,-0.713 0.084,-0.126 0.252,-0.21 0.503,-0.21 h 2.56 c 0.21,0 0.378,0.084 0.461,0.21 0.084,0.126 0.126,0.378 0.126,0.713 0,0.335 -0.042,0.587 -0.126,0.713 -0.084,0.126 -0.252,0.21 -0.503,0.21 h -1.301 v -1.217 h -1.384 v 0.629 h 0.881 v 0.629 h -0.587 v -0.041 z m 1.468,-1.217 v 0.629 h 1.133 v -0.629 z m 3.105,2.433 h -5.328 v -0.629 h 5.328 z m -4.573,2.392 h -0.168 c -0.21,0 -0.378,-0.084 -0.461,-0.21 -0.084,-0.126 -0.126,-0.378 -0.126,-0.713 0,-0.335 0.042,-0.587 0.126,-0.713 0.084,-0.126 0.252,-0.21 0.503,-0.21 h 2.56 c 0.21,0 0.378,0.084 0.461,0.21 0.084,0.126 0.126,0.378 0.126,0.713 0,0.335 -0.042,0.587 -0.126,0.713 -0.084,0.126 -0.252,0.21 -0.503,0.21 H 301.63 V 412.3 h -1.384 v 0.629 h 0.881 v 0.629 h -0.587 v -0.041 z m 1.468,-1.217 v 0.629 h 1.133 V 412.3 Z m 0.461,2.979 h 0.671 v -0.629 h -2.937 v 0.629 h 0.881 v 0.629 h -0.713 c -0.21,0 -0.378,-0.084 -0.462,-0.21 -0.084,-0.126 -0.126,-0.378 -0.126,-0.713 0,-0.335 0.042,-0.587 0.126,-0.713 0.084,-0.126 0.252,-0.21 0.503,-0.21 h 2.56 c 0.126,0 0.252,0 0.294,0.042 a 0.328,0.328 0 0 1 0.168,0.168 c 0.084,0.168 0.126,0.42 0.126,0.713 0,0.336 -0.042,0.587 -0.126,0.713 -0.084,0.126 -0.252,0.21 -0.461,0.21 h -0.504 z m 0.63,1.888 h -2.853 v 0.587 h -0.42 v -0.462 c 0,-0.294 0.042,-0.503 0.168,-0.587 0.084,-0.126 0.294,-0.168 0.545,-0.168 h 2.559 v -0.503 h 0.42 v 0.503 h 1.007 v 0.629 h -1.007 v 0.587 h -0.42 v -0.586 z"
       id="path108"
       inkscape:connector-curvature="0" />
  </g>
  <g
     id="g114"
     style="fill:#ecf332">
    <path
       d="m 305.112,433.571 v 0.378 c 0,0.084 0,0.21 -0.042,0.252 -0.042,0.042 -0.042,0.126 -0.042,0.168 0,0.042 -0.042,0.084 -0.084,0.126 -0.042,0.042 -0.084,0.084 -0.084,0.126 -0.042,0.042 -0.084,0.042 -0.126,0.084 -0.042,0 -0.126,0.042 -0.168,0.042 h -1.385 c -0.126,0 -0.252,-0.042 -0.294,-0.084 -0.084,-0.042 -0.126,-0.168 -0.168,-0.336 -0.042,0.168 -0.126,0.252 -0.168,0.336 -0.084,0.042 -0.168,0.084 -0.294,0.084 h -2.391 v -0.671 h 2.643 v -0.671 h -2.643 v -0.671 h 5.328 v 0.839 h -0.082 z m -2.224,-0.084 v 0.671 h 1.846 v -0.671 z m -2.895,3.104 c -0.126,-0.21 -0.21,-0.42 -0.21,-0.671 0,-0.378 0.168,-0.545 0.461,-0.545 h 3.273 v 0.629 h -3.314 v 0.629 h 3.314 v 0.629 h -3.692 v -0.671 z m 3.356,1.804 c 0.126,0.21 0.21,0.42 0.21,0.671 0,0.378 -0.168,0.545 -0.461,0.545 h -3.273 v -0.629 h 3.314 v -0.629 h -3.314 v -0.629 h 3.692 v 0.629 h -0.168 z"
       id="path112"
       inkscape:connector-curvature="0" />
  </g>
  <g
     id="g128">
    <path
       d="m 358.603,481.776 h -10.195 c -2.727,0 -4.951,-2.224 -4.951,-4.951 0,-2.727 2.224,-4.951 4.951,-4.951 h 10.195 c 2.727,0 4.951,2.224 4.951,4.951 0,2.727 -2.224,4.951 -4.951,4.951 z m -10.195,-9.021 a 4.117,4.117 0 0 0 -4.111,4.111 4.117,4.117 0 0 0 4.111,4.111 h 10.195 a 4.117,4.117 0 0 0 4.111,-4.111 4.118,4.118 0 0 0 -4.111,-4.111 z"
       id="path116"
       inkscape:connector-curvature="0"
       style="fill:#1a1a1a" />
    <path
       d="m 358.603,481.356 h -10.195 c -2.475,0 -4.489,-2.014 -4.489,-4.531 a 4.494,4.494 0 0 1 4.489,-4.489 h 10.195 a 4.494,4.494 0 0 1 4.489,4.489 c 0.042,2.517 -1.972,4.531 -4.489,4.531 z"
       id="path118"
       inkscape:connector-curvature="0"
       style="fill:#2c2c2e" />
    <path
       d="M 358.561,480.475 H 348.45 a 3.608,3.608 0 1 1 0,-7.216 h 10.111 a 3.608,3.608 0 0 1 3.608,3.608 c 0.042,1.972 -1.595,3.608 -3.608,3.608 z m -10.111,-6.419 a 2.767,2.767 0 0 0 -2.769,2.769 2.767,2.767 0 0 0 2.769,2.769 h 10.111 a 2.767,2.767 0 0 0 2.769,-2.769 2.767,2.767 0 0 0 -2.769,-2.769 z"
       id="path120"
       inkscape:connector-curvature="0"
       style="fill:#1a1a1a" />
    <path
       d="M 358.561,480.055 H 348.45 a 3.187,3.187 0 0 1 -3.189,-3.189 3.187,3.187 0 0 1 3.189,-3.188 h 10.111 a 3.186,3.186 0 0 1 3.188,3.188 c 0.042,1.763 -1.426,3.189 -3.188,3.189 z"
       id="path122"
       inkscape:connector-curvature="0"
       style="fill:#30302b" />
    <path
       d="m 345.639,476.867 c 0,-1.552 1.259,-2.853 2.853,-2.853 1.594,0 2.853,1.259 2.853,2.853 0,1.594 -1.259,2.853 -2.853,2.853 -1.594,0 -2.853,-1.301 -2.853,-2.853 z m 4.825,0 a 2.014,2.014 0 0 0 -2.014,-2.014 1.988,1.988 0 0 0 -2.014,2.014 c 0,1.133 0.881,2.014 2.014,2.014 a 2.014,2.014 0 0 0 2.014,-2.014 z"
       id="path124"
       inkscape:connector-curvature="0"
       style="fill:#242420" />
    <circle
       cx="348.492"
       cy="476.867"
       r="2.4330001"
       id="circle126"
       style="fill:#444440" />
  </g>
  <g
     id="g142">
    <path
       d="m 357.763,507.158 h -10.195 c -2.727,0 -4.951,-2.224 -4.951,-4.951 0,-2.727 2.224,-4.951 4.951,-4.951 h 10.195 c 2.727,0 4.951,2.224 4.951,4.951 0,2.727 -2.224,4.951 -4.951,4.951 z m -10.194,-9.021 c -2.266,0 -4.111,1.846 -4.111,4.111 0,2.265 1.846,4.111 4.111,4.111 h 10.195 c 2.266,0 4.111,-1.846 4.111,-4.111 0,-2.265 -1.846,-4.111 -4.111,-4.111 z"
       id="path130"
       inkscape:connector-curvature="0"
       style="fill:#1a1a1a" />
    <path
       d="m 357.763,506.738 h -10.195 a 4.494,4.494 0 0 1 -4.489,-4.489 c 0,-2.475 2.014,-4.531 4.489,-4.531 h 10.195 c 2.475,0 4.489,2.014 4.489,4.531 0.042,2.433 -1.971,4.489 -4.489,4.489 z"
       id="path132"
       inkscape:connector-curvature="0"
       style="fill:#2c2c2e" />
    <path
       d="m 357.722,505.857 h -10.111 a 3.608,3.608 0 1 1 0,-7.216 h 10.111 a 3.608,3.608 0 0 1 3.608,3.608 c 0.042,1.972 -1.595,3.608 -3.608,3.608 z m -10.111,-6.419 a 2.767,2.767 0 0 0 -2.769,2.769 2.767,2.767 0 0 0 2.769,2.769 h 10.111 a 2.767,2.767 0 0 0 2.769,-2.769 2.767,2.767 0 0 0 -2.769,-2.769 z"
       id="path134"
       inkscape:connector-curvature="0"
       style="fill:#1a1a1a" />
    <path
       d="m 357.722,505.437 h -10.111 a 3.187,3.187 0 0 1 -3.188,-3.189 3.186,3.186 0 0 1 3.188,-3.188 h 10.111 a 3.186,3.186 0 0 1 3.188,3.188 c 0.042,1.721 -1.426,3.189 -3.188,3.189 z"
       id="path136"
       inkscape:connector-curvature="0"
       style="fill:#30302b" />
    <path
       d="m 349.834,502.207 a 2.856,2.856 0 0 1 2.853,-2.853 c 1.594,0 2.853,1.259 2.853,2.853 0,1.594 -1.259,2.853 -2.853,2.853 a 2.856,2.856 0 0 1 -2.853,-2.853 z m 4.825,0 a 2.014,2.014 0 0 0 -2.014,-2.014 1.988,1.988 0 0 0 -2.014,2.014 c 0,1.133 0.881,2.014 2.014,2.014 a 2.014,2.014 0 0 0 2.014,-2.014 z"
       id="path138"
       inkscape:connector-curvature="0"
       style="fill:#242420" />
    <circle
       cx="352.68701"
       cy="502.207"
       r="2.4330001"
       id="circle140"
       style="fill:#444440" />
  </g>
  <g
     id="g156">
    <path
       d="m 363.637,338.378 v -1.217 h -10.279 v -1.217 h 10.279 v -1.217 h 0.881 v 3.608 h -0.881 z"
       id="path144"
       inkscape:connector-curvature="0"
       style="fill:#fd5a17" />
    <g
       id="g148"
       style="fill:#fd5a17">
      <path
         d="m 354.533,342.07 h -0.252 c -0.378,0 -0.629,-0.126 -0.797,-0.42 -0.168,-0.252 -0.21,-0.755 -0.21,-1.426 0,-0.629 0.084,-1.091 0.252,-1.384 0.168,-0.252 0.42,-0.42 0.755,-0.42 h 7.174 v 1.217 h -7.552 v 1.217 h 7.552 v 1.217 h -6.922 z m 6.922,2.475 v 0.713 c 0,0.21 0,0.336 -0.042,0.503 a 0.791,0.791 0 0 1 -0.084,0.336 l -0.126,0.252 c -0.042,0.084 -0.084,0.168 -0.168,0.252 a 0.231,0.231 0 0 1 -0.21,0.126 c -0.084,0.042 -0.168,0.042 -0.294,0.084 h -2.098 a 0.667,0.667 0 0 1 -0.461,-0.168 c -0.084,-0.084 -0.168,-0.294 -0.252,-0.587 -0.084,0.294 -0.168,0.503 -0.252,0.587 -0.084,0.126 -0.252,0.168 -0.461,0.168 h -3.692 v -1.217 h 4.07 v -1.217 h -4.07 v -1.217 h 8.139 v 1.385 z m -3.398,-0.126 v 1.217 h 2.811 v -1.217 z m 3.398,4.909 v 0.713 c 0,0.21 0,0.336 -0.042,0.503 a 0.791,0.791 0 0 1 -0.084,0.336 l -0.126,0.252 c -0.042,0.084 -0.084,0.168 -0.168,0.252 a 0.231,0.231 0 0 1 -0.21,0.126 c -0.084,0.042 -0.168,0.042 -0.294,0.084 h -2.098 a 0.667,0.667 0 0 1 -0.461,-0.168 c -0.084,-0.084 -0.168,-0.294 -0.252,-0.587 -0.084,0.294 -0.168,0.503 -0.252,0.587 -0.084,0.126 -0.252,0.168 -0.461,0.168 h -2.854 c -0.126,0 -0.21,-0.042 -0.294,-0.084 -0.084,-0.042 -0.126,-0.084 -0.21,-0.168 -0.084,-0.084 -0.084,-0.168 -0.168,-0.294 a 0.597,0.597 0 0 1 -0.084,-0.252 c 0,-0.126 0,-0.21 -0.042,-0.336 0,-0.126 0,-0.294 -0.042,-0.461 v -2.013 h 8.139 v 1.342 z m -3.398,-0.168 v 1.217 h 2.811 v -1.217 z m -4.069,0 v 1.217 h 3.44 v -1.217 z m 0.545,7.132 h -0.252 c -0.378,0 -0.671,-0.126 -0.797,-0.378 -0.126,-0.252 -0.21,-0.713 -0.21,-1.426 0,-0.629 0.084,-1.091 0.252,-1.384 0.168,-0.252 0.42,-0.42 0.755,-0.42 h 6 c 0.294,0 0.461,0 0.629,0.042 a 0.653,0.653 0 0 1 0.336,0.252 c 0.126,0.168 0.21,0.336 0.252,0.587 0.042,0.252 0.084,0.545 0.084,0.965 0,0.629 -0.084,1.091 -0.252,1.384 -0.168,0.293 -0.42,0.42 -0.755,0.42 h -6.042 z m 6.335,-2.391 h -6.922 v 1.217 h 6.922 z"
         id="path146"
         inkscape:connector-curvature="0" />
    </g>
    <path
       d="m 364.518,358.683 v 0.713 c 0,0.21 -0.042,0.336 -0.042,0.503 -0.042,0.126 -0.042,0.252 -0.084,0.336 -0.042,0.084 -0.084,0.168 -0.168,0.252 -0.084,0.084 -0.126,0.168 -0.21,0.252 -0.084,0.084 -0.168,0.126 -0.252,0.126 -0.126,0.042 -0.252,0.042 -0.378,0.084 h -3.272 a 0.842,0.842 0 0 1 -0.378,-0.084 c -0.126,-0.042 -0.21,-0.084 -0.252,-0.168 -0.084,-0.084 -0.126,-0.168 -0.21,-0.294 l -0.126,-0.252 c -0.042,-0.084 -0.042,-0.21 -0.084,-0.336 0,-0.126 -0.042,-0.294 -0.042,-0.461 v -0.797 h -5.58 v -1.217 h 11.076 v 1.343 z m -4.741,-0.126 v 1.217 h 3.818 v -1.217 z"
       id="path150"
       inkscape:connector-curvature="0"
       style="fill:#ecf332" />
    <g
       id="g154"
       style="fill:#ecf332">
      <path
         d="m 353.358,364.347 h 4.237 v -1.217 h -4.237 v -1.217 h 7.468 c 0.378,0 0.671,0.126 0.839,0.42 0.168,0.252 0.252,0.755 0.252,1.468 0,0.671 -0.084,1.133 -0.252,1.384 -0.168,0.294 -0.42,0.42 -0.797,0.42 H 353.4 v -1.259 h -0.042 z m 7.846,0 v -1.217 h -2.937 v 1.217 z m 0.629,3.776 v 0.713 c 0,0.21 0,0.378 -0.042,0.503 -0.042,0.125 -0.042,0.252 -0.084,0.336 l -0.126,0.252 c -0.042,0.084 -0.084,0.168 -0.168,0.252 a 0.231,0.231 0 0 1 -0.21,0.126 c -0.084,0.042 -0.168,0.042 -0.294,0.084 h -6.672 c -0.126,0 -0.21,-0.042 -0.294,-0.084 -0.084,-0.042 -0.168,-0.084 -0.21,-0.168 -0.042,-0.084 -0.126,-0.168 -0.168,-0.294 l -0.126,-0.252 c -0.042,-0.084 -0.042,-0.21 -0.084,-0.336 0,-0.126 0,-0.294 -0.042,-0.461 v -2.055 h 8.517 v 1.384 z m -7.803,-0.168 v 1.217 h 7.132 v -1.217 z"
         id="path152"
         inkscape:connector-curvature="0" />
    </g>
  </g>
</svg>
