<?xml version="1.0" encoding="UTF-8" standalone="no"?>
<svg
   xmlns:dc="http://purl.org/dc/elements/1.1/"
   xmlns:cc="http://creativecommons.org/ns#"
   xmlns:rdf="http://www.w3.org/1999/02/22-rdf-syntax-ns#"
   xmlns:svg="http://www.w3.org/2000/svg"
   xmlns="http://www.w3.org/2000/svg"
   xmlns:sodipodi="http://sodipodi.sourceforge.net/DTD/sodipodi-0.dtd"
   xmlns:inkscape="http://www.inkscape.org/namespaces/inkscape"
   viewBox="0 0 114.71299 70.727994"
   version="1.1"
   id="svg354"
   sodipodi:docname="game.svg"
   width="114.713"
   height="70.727997"
   inkscape:version="0.92.4 5da689c313, 2019-01-14">
  <metadata
     id="metadata360">
    <rdf:RDF>
      <cc:Work
         rdf:about="">
        <dc:format>image/svg+xml</dc:format>
        <dc:type
           rdf:resource="http://purl.org/dc/dcmitype/StillImage" />
      </cc:Work>
    </rdf:RDF>
  </metadata>
  <defs
     id="defs358" />
  <sodipodi:namedview
     pagecolor="#ffffff"
     bordercolor="#666666"
     borderopacity="1"
     objecttolerance="10"
     gridtolerance="10"
     guidetolerance="10"
     inkscape:pageopacity="0"
     inkscape:pageshadow="2"
     inkscape:window-width="471"
     inkscape:window-height="442"
     id="namedview356"
     showgrid="false"
     inkscape:zoom="2.3606271"
     inkscape:cx="57.356502"
     inkscape:cy="35.327998"
     inkscape:window-x="0"
     inkscape:window-y="0"
     inkscape:window-maximized="0"
     inkscape:current-layer="svg354">
    <inkscape:grid
       type="xygrid"
       id="grid362"
       originx="-0.043499997"
       originy="-0.072003046" />
  </sodipodi:namedview>
  <path
     d="m 109.2565,0 c 1.9,0 3.5,1.6 3.5,3.5 v 63.7 c 0,2 -1.6,3.5 -3.5,3.5 h -103.8 c -1.9,0 -3.5,-1.6 -3.5,-3.5 V 3.6 c 0,-2 1.6,-3.6 3.5,-3.6 z m -64.7,66.4 v -1.9 c 0,-0.7 -0.6,-1.3 -1.3,-1.3 h -2.4 c -0.7,0 -1.3,0.6 -1.3,1.3 v 1.9 c 0,0.7 0.6,1.3 1.3,1.3 h 2.4 c 0.7,0 1.3,-0.6 1.3,-1.3 z m 26.9,1.3 h 2.5 c 0.7,0 1.3,-0.6 1.3,-1.3 v -1.9 c 0,-0.7 -0.6,-1.3 -1.3,-1.3 h -2.4 c -0.7,0 -1.3,0.6 -1.3,1.3 v 1.9 c -0.1,0.7 0.5,1.3 1.2,1.3 z m 9.8,-0.6 c 0,1.6 1.3,2.9 2.9,2.9 1.6,0 2.9,-1.3 2.9,-2.9 0,-1.6 -1.3,-2.9 -2.9,-2.9 -1.6,0.1 -2.9,1.4 -2.9,2.9 z m -50.7,-2.8 c -1.6,0 -2.9,1.3 -2.9,2.9 0,1.6 1.3,2.8 2.9,2.8 1.6,0 2.9,-1.3 2.9,-2.9 0,-1.6 -1.3,-2.8 -2.9,-2.8 z m 8.9,-32.5 c 0,-3.3 -2.7,-6.1 -6.1,-6.1 -3.4,0 -6.1,2.7 -6.1,6.1 0,3.4 2.7,6.1 6.1,6.1 3.4,0 6.1,-2.8 6.1,-6.1 z m 48.1,0.1 c 0,-3.3 -2.7,-6.1 -6.1,-6.1 -3.3,0 -6.1,2.7 -6.1,6.1 0,3.4 2.7,6.1 6.1,6.1 3.4,-0.1 6.1,-2.8 6.1,-6.1 z"
     id="path2"
     inkscape:connector-curvature="0"
     style="fill:#515151" />
  <circle
     cx="5.9565001"
     cy="59.200001"
     r="1.1"
     id="circle4"
     style="fill:#212121" />
  <circle
     cx="108.7565"
     cy="59.200001"
     r="1.1"
     id="circle6"
     style="fill:#212121" />
  <path
     d="m 57.5565,20.1 h -48.4 c 4.3,-9 13.5,-15.2 24.2,-15.2 10.6,-0.1 19.8,6.2 24.2,15.2 m 0.1,23.1 h -48.6 c 4.3,9 13.6,15.2 24.3,15.2 10.6,0.1 20,-6.2 24.3,-15.2"
     id="path8"
     inkscape:connector-curvature="0"
     style="fill:#341d0e" />
  <path
     stroke-miterlimit="10"
     d="m 9.8565,0.5 h 5.6 m 4.8,3.7 h -3.9 V 0.5 h 4.3 v 3.2 c 0,0.3 -0.2,0.5 -0.4,0.5 z"
     id="path10"
     inkscape:connector-curvature="0"
     style="fill:none;stroke:#404040;stroke-width:0.713;stroke-miterlimit:10" />
  <path
     stroke-miterlimit="10"
     d="M 1.9565,65.6 V 45.4 l -1.6,1.7 V 64 Z"
     id="path12"
     inkscape:connector-curvature="0"
     style="fill:#545454;stroke:#404040;stroke-width:0.713;stroke-miterlimit:10" />
  <circle
     cx="57.456501"
     cy="9"
     r="1.1"
     id="circle14"
     style="fill:#414141" />
  <path
     stroke-miterlimit="10"
     d="m 104.8565,0.5 h -5.6 m -4.8,3.7 h 3.9 V 0.5 h -4.3 v 3.2 c 0,0.3 0.2,0.5 0.4,0.5 z"
     id="path16"
     inkscape:connector-curvature="0"
     style="fill:none;stroke:#404040;stroke-width:0.713;stroke-miterlimit:10" />
  <path
     stroke-miterlimit="10"
     d="M 112.7565,65.6 V 45.4 l 1.6,1.7 V 64 Z"
     id="path18"
     inkscape:connector-curvature="0"
     style="fill:#545454;stroke:#404040;stroke-width:0.713;stroke-miterlimit:10" />
  <circle
     cx="12.6565"
     cy="64.300003"
     r="4.4000001"
     id="circle20"
     style="fill:#939393" />
  <circle
     cx="12.6565"
     cy="64.300003"
     r="0.89999998"
     id="circle22"
     style="fill:#232323" />
  <path
     d="m 14.3565,64.3 v 0.5 l 1.4,0.8 c 0.3,0 0.5,-0.4 0.5,-0.9 v -0.8 c 0,-0.5 -0.2,-0.9 -0.5,-0.9 l -1.4,0.8 z m -0.9,-1.5 0.4,0.2 1.4,-0.8 c 0.1,-0.2 -0.1,-0.6 -0.5,-0.8 l -0.4,-0.2 -0.3,-0.2 c -0.4,-0.2 -0.8,-0.3 -1,0 v 1.6 z m -2.4,1.5 v 0.5 l -1.4,0.8 c -0.3,0 -0.5,-0.4 -0.5,-0.9 v -0.8 c 0,-0.5 0.2,-0.9 0.5,-0.9 l 1.4,0.8 z m 0.9,-1.5 -0.4,0.2 -1.4,-0.8 c -0.1,-0.2 0.1,-0.6 0.5,-0.8 l 0.4,-0.2 0.4,-0.2 c 0.4,-0.2 0.8,-0.3 1,0 v 1.6 z m 0,2.9 -0.4,-0.2 -1.4,0.8 c -0.1,0.2 0.1,0.6 0.5,0.8 l 0.4,0.2 0.4,0.2 c 0.4,0.2 0.8,0.3 1,0 v -1.6 z m 1.5,0 0.4,-0.2 1.4,0.8 c 0.1,0.2 -0.1,0.6 -0.5,0.8 l -0.4,0.2 -0.4,0.2 c -0.4,0.2 -0.8,0.3 -1,0 v -1.6 z"
     id="path24"
     inkscape:connector-curvature="0"
     style="fill:#717171" />
  <circle
     cx="102.0565"
     cy="64.300003"
     r="4.4000001"
     id="circle26"
     style="fill:#939393" />
  <circle
     cx="102.0565"
     cy="64.300003"
     r="0.89999998"
     id="circle28"
     style="fill:#232323" />
  <path
     d="m 100.3565,64.3 v 0.5 l -1.4,0.8 c -0.3,0 -0.5,-0.4 -0.5,-0.9 v -0.8 c 0,-0.5 0.2,-0.9 0.5,-0.9 l 1.4,0.8 z m 0.9,-1.5 -0.4,0.2 -1.4,-0.8 c -0.1,-0.2 0.1,-0.6 0.5,-0.8 l 0.4,-0.2 0.4,-0.2 c 0.4,-0.2 0.8,-0.3 1,0 v 1.6 z m 2.4,1.5 v 0.5 l 1.4,0.8 c 0.3,0 0.5,-0.4 0.5,-0.9 v -0.8 c 0,-0.5 -0.2,-0.9 -0.5,-0.9 l -1.4,0.8 z m -0.9,-1.5 0.4,0.2 1.4,-0.8 c 0.1,-0.2 -0.1,-0.6 -0.5,-0.8 l -0.4,-0.2 -0.4,-0.2 c -0.4,-0.2 -0.8,-0.3 -1,0 v 1.6 z m 0,2.9 0.4,-0.2 1.4,0.8 c 0.1,0.2 -0.1,0.6 -0.5,0.8 l -0.4,0.2 -0.4,0.2 c -0.4,0.2 -0.8,0.3 -1,0 v -1.6 z m -1.6,0 -0.4,-0.2 -1.4,0.8 c -0.1,0.2 0.1,0.6 0.5,0.8 l 0.4,0.2 0.4,0.2 c 0.4,0.2 0.8,0.3 1,0 v -1.6 z"
     id="path30"
     inkscape:connector-curvature="0"
     style="fill:#717171" />
  <path
     d="m 63.3565,9.6 h 30.3 v 0.9 h -30.3 z"
     id="path32"
     inkscape:connector-curvature="0"
     style="fill:#ff0000" />
  <path
     d="m 63.3565,11.3 h 30.3 v 0.8 h -30.3 z"
     id="path34"
     inkscape:connector-curvature="0"
     style="fill:#fd4120" />
  <path
     d="m 63.3565,13 h 30.3 v 0.8 h -30.3 z"
     id="path36"
     inkscape:connector-curvature="0"
     style="fill:#ffcc00" />
  <path
     d="m 63.3565,14.6 h 30.3 v 0.8 h -30.3 z"
     id="path38"
     inkscape:connector-curvature="0"
     style="fill:#4dac26" />
  <path
     d="m 63.3565,16.3 h 30.3 v 0.8 h -30.3 z"
     id="path40"
     inkscape:connector-curvature="0"
     style="fill:#00a0c6" />
  <path
     d="m 102.6565,14.6 c 0,1 -0.9,1.6 -2.7,1.6 h -1 c -1,0 -1.7,-0.2 -2.1,-0.5 -0.4,-0.4 -0.6,-1 -0.6,-1.9 v -1.2 c 0,-0.9 0.2,-1.5 0.6,-1.9 0.4,-0.4 1.1,-0.5 2.1,-0.5 h 0.9 c 0.8,0 1.5,0.1 1.9,0.3 0.4,0.2 0.6,0.6 0.6,1 v 0.4 h -2.2 v -0.2 c 0,-0.1 0,-0.2 -0.1,-0.3 -0.1,0 -0.2,-0.1 -0.5,-0.1 h -0.5 c -0.3,0 -0.5,0 -0.6,0.1 -0.1,0 -0.1,0.2 -0.1,0.3 v 0.8 c 0.3,-0.2 0.7,-0.3 1.2,-0.3 h 0.8 c 0.8,0 1.3,0.1 1.7,0.4 0.4,0.3 0.5,0.7 0.5,1.2 z m -48.8,-2.9 h -1 v 3.1 h 1.1 v -1.6 c 0,-0.4 0.3,-0.6 0.7,-0.6 0.5,0 0.6,0.1 0.6,0.5 h 1 c 0,-1 -0.1,-1.4 -1.2,-1.4 -0.7,0 -0.9,0.1 -1.1,0.7 z m -42.9,1.8 h -1.8 V 15 h 3.2 z m 1.4,-1.7 h -3.2 v 1.5 h 1.7 z m 46.5,2.4 c -1,0 -1.2,-0.1 -1.2,-0.6 h 2.9 c 0,-1.5 0,-1.8 -2,-1.8 -1.6,0 -2,0.3 -2,1.6 0,1.2 0.5,1.5 1.8,1.6 1.5,0 2.2,-0.1 2.2,-1.1 h -1.1 c 0,0.1 -0.1,0.3 -0.6,0.3 z m -1.2,-1.3 c 0,-0.3 0.1,-0.4 0.9,-0.4 0.8,0 0.9,0 1,0.4 z m -40.7,0.1 h 1.1 c -0.1,-1 -0.4,-1.3 -1.9,-1.3 -1.7,0 -2.1,0.3 -2.1,1.6 0,1.3 0.4,1.6 2,1.6 1.7,0 2,-0.2 2,-1.3 h -1.1 c 0,0.3 -0.1,0.4 -1,0.4 -0.7,0 -0.9,-0.2 -0.9,-0.8 0,-0.6 0.2,-0.6 1,-0.6 0.7,0 0.8,0.1 0.9,0.4 z m 25.4,0.2 c 0,-1.3 -0.4,-1.5 -2.1,-1.5 -1.9,0 -2.1,0.3 -2.1,1.6 0,1.3 0.3,1.6 2.1,1.6 1.9,0 2.1,-0.3 2.1,-1.7 z m -3.1,0.1 c 0,-0.6 0.1,-0.7 0.9,-0.7 0.9,0 1,0 1,0.7 0,0.6 -0.1,0.7 -1,0.7 -0.8,0 -0.9,-0.1 -0.9,-0.7 z m 12.9,-0.1 c 0,-1.3 -0.3,-1.5 -2.1,-1.5 -1.9,0 -2.1,0.3 -2.1,1.6 0,1.3 0.3,1.6 2.1,1.6 1.9,0 2.1,-0.3 2.1,-1.7 z m -3.1,0.1 c 0,-0.6 0.1,-0.7 0.9,-0.7 0.9,0 1,0 1,0.7 0,0.6 -0.1,0.7 -1,0.7 -0.8,0 -0.9,-0.1 -0.9,-0.7 z m -26.1,-0.1 c 0,-1.3 -0.3,-1.5 -2.1,-1.5 -1.9,0 -2.1,0.3 -2.1,1.6 0,1.3 0.3,1.6 2.1,1.6 1.9,0 2.1,-0.3 2.1,-1.7 z m -3.1,0.1 c 0,-0.6 0.1,-0.7 0.9,-0.7 0.9,0 1,0 1,0.7 0,0.6 -0.1,0.7 -1,0.7 -0.8,0 -0.9,-0.1 -0.9,-0.7 z m 26.3,-2.9 v 1.8 c -0.3,-0.3 -0.5,-0.5 -1.4,-0.5 -1.5,0 -1.7,0.4 -1.7,1.6 0,1.2 0.4,1.6 1.8,1.6 0.9,0 1.2,-0.2 1.4,-0.6 v 0.6 h 1.1 v -4.4 h -1.2 z m -0.8,2.1 c 0.6,0 0.8,0.1 0.8,0.6 0,0.7 0,0.8 -0.9,0.8 -0.9,0 -1.1,0 -1.1,-0.7 0,-0.6 0.3,-0.7 1.2,-0.7 z m -36.3,-0.8 V 9.8 c -0.4,-0.1 -0.6,-0.1 -1,-0.1 -2,0 -3.7,1.7 -3.7,3.8 0,2.1 1.7,3.7 3.7,3.7 0.4,0 0.6,0 1,-0.2 v -2 c -0.4,0.2 -0.7,0.3 -1,0.3 -1.1,0 -1.9,-0.9 -1.9,-2 0,-1.1 0.8,-2 1.9,-2 0.3,0.1 0.7,0.2 1,0.4 z m 15.6,0 h -1 v 3.1 h 1.1 v -1.6 c 0,-0.5 0.2,-0.6 0.8,-0.6 0.6,0 0.7,0.2 0.7,0.8 v 1.4 h 1.1 v -1.6 c 0,-0.4 0.3,-0.6 0.9,-0.6 0.5,0 0.7,0.1 0.7,0.6 v 1.6 h 1.1 V 13 c 0,-0.9 -0.5,-1.3 -1.5,-1.3 -0.9,0 -1.2,0.3 -1.3,0.7 -0.2,-0.4 -0.5,-0.7 -1.4,-0.7 -0.8,0 -1,0.3 -1.2,0.8 z m 7.3,0 h -1 v 3.1 h 1.1 v -1.6 c 0,-0.5 0.3,-0.6 0.8,-0.6 0.6,0 0.7,0.2 0.7,0.8 v 1.4 h 1.1 v -1.6 c 0,-0.4 0.3,-0.6 0.8,-0.6 0.5,0 0.8,0.2 0.8,0.6 v 1.6 h 1.1 V 13 c 0,-0.9 -0.5,-1.3 -1.5,-1.3 -0.9,0 -1.2,0.3 -1.3,0.7 -0.2,-0.4 -0.5,-0.7 -1.4,-0.7 -0.8,0 -1,0.3 -1.2,0.8 z m 78.5,3.3 h -0.9 v 1.1 h -2.2 V 15 h -3.9 v -1.6 l 3.1,-3.2 h 3 v 3.5 h 0.9 z m -3.1,-1.3 v -1.9 l -1.9,1.9 z m -6.9,0.8 v -0.4 c 0,-0.2 0,-0.2 -0.1,-0.3 -0.1,0 -0.3,-0.1 -0.6,-0.1 h -0.4 c -0.3,0 -0.5,0 -0.6,0.1 -0.1,0 -0.2,0.1 -0.2,0.3 v 0.4 c 0,0.2 0,0.3 0.2,0.3 0.1,0 0.3,0.1 0.6,0.1 h 0.4 c 0.3,0 0.5,0 0.6,-0.1 0,-0.1 0.1,-0.2 0.1,-0.3 z"
     id="path42"
     inkscape:connector-curvature="0"
     style="fill:#ffffff" />
  <path
     stroke-miterlimit="10"
     d="m 107.2565,43.2 h -100.1 c -0.9,0 -1.7,-0.8 -1.7,-1.7 V 21.8 c 0,-0.9 0.8,-1.7 1.7,-1.7 h 100.1 c 0.9,0 1.7,0.8 1.7,1.7 v 19.7 c 0,1 -0.7,1.7 -1.7,1.7 z m -19.7,-11.4 c 0,-3.3 -2.7,-6.1 -6.1,-6.1 -3.3,0 -6.1,2.7 -6.1,6.1 0,3.4 2.7,6.1 6.1,6.1 3.4,0 6.1,-2.7 6.1,-6.1 z m -48.1,-0.1 c 0,-3.3 -2.7,-6.1 -6.1,-6.1 -3.4,0 -6.1,2.7 -6.1,6.1 0,3.4 2.7,6.1 6.1,6.1 3.4,0 6.1,-2.7 6.1,-6.1 z"
     id="path44"
     inkscape:connector-curvature="0"
     style="fill:#5a5a5b;stroke:#2d2c2c;stroke-width:0.14300001;stroke-miterlimit:10" />
  <path
     stroke-miterlimit="10"
     d="m 35.0565,70.3 h 4.4"
     id="path46"
     inkscape:connector-curvature="0"
     style="fill:none;stroke:#292929;stroke-width:0.85600001;stroke-miterlimit:10" />
  <path
     stroke-miterlimit="10"
     d="m 35.0565,70.3 h -14.3 m 18.7,0 h 4.6"
     id="path48"
     inkscape:connector-curvature="0"
     style="fill:none;stroke:#404040;stroke-width:0.713;stroke-miterlimit:10" />
  <path
     d="m 44.7565,61.6 -6.1,1.4 h 6.1 z"
     id="path50"
     inkscape:connector-curvature="0"
     style="fill:#292929" />
  <path
     stroke-miterlimit="10"
     d="m 79.6565,70.3 h -4.4"
     id="path52"
     inkscape:connector-curvature="0"
     style="fill:none;stroke:#292929;stroke-width:0.85600001;stroke-miterlimit:10" />
  <path
     d="m 80.4565,25.9 c 3.3,-0.6 6.4,1.6 7,4.9 0.6,3.3 -1.6,6.4 -4.9,7 -3.3,0.6 -6.4,-1.6 -7,-4.9 -0.6,-3.3 1.6,-6.4 4.9,-7 z m -5.6,7.1 c 0.6,3.7 4.1,6.1 7.8,5.5 3.7,-0.6 6.1,-4.1 5.5,-7.8 -0.6,-3.7 -4.1,-6.1 -7.8,-5.5 -3.7,0.7 -6.1,4.2 -5.5,7.8 z"
     id="path54"
     inkscape:connector-curvature="0"
     style="fill:#9d9d9d" />
  <path
     d="m 81.5565,38.1 c -1.3,0 -2.5,-0.4 -3.5,-1.1 -1.4,-1 -2.3,-2.4 -2.6,-4 -0.6,-3.4 1.7,-6.6 5,-7.2 3.4,-0.6 6.6,1.7 7.2,5 0.3,1.6 -0.1,3.3 -1,4.6 -1,1.4 -2.4,2.3 -4,2.6 -0.4,0 -0.8,0.1 -1.1,0.1 z m -1,-12.1 c -3.2,0.6 -5.4,3.6 -4.8,6.9 0.3,1.6 1.1,2.9 2.4,3.8 1.3,0.9 2.9,1.3 4.4,1 1.6,-0.3 2.9,-1.1 3.8,-2.4 0.9,-1.3 1.3,-2.9 1,-4.4 -0.6,-3.3 -3.6,-5.4 -6.8,-4.9 z"
     id="path56"
     inkscape:connector-curvature="0"
     style="fill:#e4e4e3" />
  <path
     d="m 75.6345,33.255 1.675,-0.295 0.069,0.394 -1.674,0.295 z m -0.202,-1.098 1.674,-0.296 0.07,0.394 -1.674,0.296 z m 10.504,-0.706 1.675,-0.295 0.07,0.394 -1.675,0.295 z m -0.202,-1.098 1.675,-0.296 0.07,0.394 -1.675,0.296 z m -5.961,7.276 0.582,-1.598 0.375,0.137 -0.58,1.597 z m -1.045,-0.421 0.58,-1.597 0.377,0.137 -0.581,1.597 z m 4.632,-9.413 0.582,-1.597 0.376,0.137 -0.582,1.597 z m -1.08,-0.326 0.582,-1.598 0.376,0.137 -0.582,1.598 z m 2.329,7.581 0.307,-0.256 1.093,1.302 -0.307,0.257 z m -0.816,0.674 0.306,-0.257 1.093,1.302 -0.307,0.257 z m -5.888,-8.674 0.306,-0.258 1.093,1.303 -0.307,0.257 z m -0.819,0.67 0.307,-0.257 1.093,1.302 -0.306,0.258 z"
     id="path58"
     inkscape:connector-curvature="0"
     style="fill:#e4e4e3" />
  <path
     d="m 80.1565,24.1 c 4.3,-0.8 8.3,2.1 9.1,6.4 0.8,4.3 -2.1,8.3 -6.4,9.1 -4.3,0.8 -8.3,-2.1 -9.1,-6.4 -0.7,-4.2 2.1,-8.3 6.4,-9.1 z m -5.3,8.9 c 0.6,3.7 4.1,6.1 7.8,5.5 3.7,-0.6 6.1,-4.1 5.5,-7.8 -0.6,-3.7 -4.1,-6.1 -7.8,-5.5 -3.7,0.7 -6.1,4.2 -5.5,7.8 z"
     id="path60"
     inkscape:connector-curvature="0"
     style="fill:#bcbdbc" />
  <path
     d="m 80.1565,24.1 c 4.3,-0.8 8.3,2.1 9.1,6.4 0.8,4.3 -2.1,8.3 -6.4,9.1 -4.3,0.8 -8.3,-2.1 -9.1,-6.4 -0.7,-4.2 2.1,-8.3 6.4,-9.1 z m -10.5,9.9 c 1.1,6.5 7.4,10.8 13.9,9.6 6.6,-1.2 10.9,-7.3 9.8,-13.8 -1.1,-6.5 -7.4,-10.8 -13.9,-9.6 -6.5,1.2 -11,7.3 -9.8,13.8 z"
     id="path62"
     inkscape:connector-curvature="0"
     style="fill:#cccccc" />
  <g
     id="g74"
     transform="translate(-0.0435)">
    <path
       d="m 75.1,22.6 c 1.2,-0.9 2.7,-1.5 4.3,-1.8 l 0.4,2.4 c -1.2,0.2 -2.2,0.7 -3.1,1.3 z"
       id="path64"
       inkscape:connector-curvature="0"
       style="fill:#9c9c9c" />
    <path
       d="m 79.5,21.6 c -1.4,0.3 -2.8,0.9 -3.9,1.7 l 0.6,0.7 c 1,-0.7 2.2,-1.2 3.5,-1.4 z"
       id="path66"
       inkscape:connector-curvature="0"
       style="fill:#525252" />
    <g
       id="g72">
      <path
         d="m 84.5,21 c -1.5,-0.4 -3,-0.5 -4.6,-0.2 l 0.4,2.4 c 1.2,-0.2 2.3,-0.1 3.4,0.1 z"
         id="path68"
         inkscape:connector-curvature="0"
         style="fill:#9c9c9c" />
      <path
         d="m 80,21.5 c 1.5,-0.2 2.9,-0.1 4.2,0.2 l -0.3,0.9 c -1.2,-0.3 -2.5,-0.4 -3.8,-0.2 z"
         id="path70"
         inkscape:connector-curvature="0"
         style="fill:#525252" />
    </g>
  </g>
  <g
     id="g86"
     transform="translate(-0.0435)">
    <path
       d="m 70.4,32.8 c -0.1,-1.5 0,-3.1 0.6,-4.6 l 2.3,0.8 c -0.4,1.1 -0.5,2.3 -0.4,3.4 z"
       id="path76"
       inkscape:connector-curvature="0"
       style="fill:#9c9c9c" />
    <path
       d="m 71.6,28.5 c -0.5,1.4 -0.6,2.8 -0.5,4.2 L 72,32.5 c -0.1,-1.2 0.1,-2.5 0.5,-3.7 z"
       id="path78"
       inkscape:connector-curvature="0"
       style="fill:#525252" />
    <g
       id="g84">
      <path
         d="m 73.6,23.9 c -1.1,1.1 -2,2.4 -2.5,3.9 l 2.3,0.8 c 0.4,-1.1 1.1,-2.1 1.8,-2.9 z"
         id="path80"
         inkscape:connector-curvature="0"
         style="fill:#9c9c9c" />
      <path
         d="m 71.8,28.1 c 0.5,-1.4 1.3,-2.6 2.3,-3.6 l 0.6,0.7 c -0.9,0.9 -1.6,2 -2,3.2 z"
         id="path82"
         inkscape:connector-curvature="0"
         style="fill:#525252" />
    </g>
  </g>
  <g
     id="g98"
     transform="translate(-0.0435)">
    <path
       d="M 76.8,42.1 C 75.4,41.5 74.1,40.5 73.1,39.3 L 75,37.7 c 0.8,0.9 1.7,1.6 2.7,2.1 z"
       id="path88"
       inkscape:connector-curvature="0"
       style="fill:#9c9c9c" />
    <path
       d="m 73.7,38.8 c 1,1.1 2.1,2 3.4,2.6 l 0.3,-0.9 c -1.1,-0.5 -2.1,-1.3 -3,-2.3 z"
       id="path90"
       inkscape:connector-curvature="0"
       style="fill:#525252" />
    <g
       id="g96">
      <path
         d="m 70.7,34.8 c 0.4,1.5 1.1,2.9 2.1,4.1 l 1.9,-1.6 c -0.7,-0.9 -1.3,-1.9 -1.6,-3 z"
         id="path92"
         inkscape:connector-curvature="0"
         style="fill:#9c9c9c" />
      <path
         d="M 73.4,38.4 C 72.5,37.2 71.8,36 71.5,34.6 l 0.9,-0.2 c 0.3,1.2 0.9,2.3 1.7,3.3 z"
         id="path94"
         inkscape:connector-curvature="0"
         style="fill:#525252" />
    </g>
  </g>
  <g
     id="g110"
     transform="translate(-0.0435)">
    <path
       d="m 88,41.1 c -1.2,0.9 -2.7,1.5 -4.3,1.8 l -0.4,-2.4 c 1.2,-0.2 2.2,-0.7 3.1,-1.3 z"
       id="path100"
       inkscape:connector-curvature="0"
       style="fill:#9c9c9c" />
    <path
       d="m 83.6,42.2 c 1.4,-0.3 2.8,-0.9 3.9,-1.7 l -0.6,-0.7 c -1,0.7 -2.2,1.2 -3.5,1.4 z"
       id="path102"
       inkscape:connector-curvature="0"
       style="fill:#525252" />
    <g
       id="g108">
      <path
         d="m 78.7,42.7 c 1.5,0.4 3,0.5 4.6,0.2 l -0.4,-2.4 c -1.2,0.2 -2.3,0.1 -3.4,-0.1 z"
         id="path104"
         inkscape:connector-curvature="0"
         style="fill:#9c9c9c" />
      <path
         d="M 83.2,42.2 C 81.7,42.4 80.3,42.3 79,42 l 0.3,-0.9 c 1.2,0.3 2.5,0.4 3.8,0.2 z"
         id="path106"
         inkscape:connector-curvature="0"
         style="fill:#525252" />
    </g>
  </g>
  <g
     id="g122"
     transform="translate(-0.0435)">
    <path
       d="m 92.8,30.9 c 0.1,1.5 0,3.1 -0.6,4.6 L 90,34.7 c 0.4,-1.1 0.5,-2.3 0.4,-3.4 z"
       id="path112"
       inkscape:connector-curvature="0"
       style="fill:#9c9c9c" />
    <path
       d="M 91.5,35.2 C 92,33.8 92.1,32.4 92,31 l -0.9,0.2 c 0.1,1.2 -0.1,2.5 -0.5,3.7 z"
       id="path114"
       inkscape:connector-curvature="0"
       style="fill:#525252" />
    <g
       id="g120">
      <path
         d="m 89.6,39.8 c 1.1,-1.1 2,-2.4 2.5,-3.9 L 89.8,35.1 C 89.4,36.2 88.7,37.2 88,38 Z"
         id="path116"
         inkscape:connector-curvature="0"
         style="fill:#9c9c9c" />
      <path
         d="m 91.4,35.7 c -0.5,1.4 -1.3,2.6 -2.3,3.6 l -0.6,-0.7 c 0.9,-0.9 1.6,-2 2,-3.2 z"
         id="path118"
         inkscape:connector-curvature="0"
         style="fill:#525252" />
    </g>
  </g>
  <path
     d="m 91.2565,29 1.8,-0.3 c -0.9,-3.4 -3.3,-6.2 -6.3,-7.6 l -0.6,1.5 -0.6,1.4 c 2.1,1.1 3.7,2.9 4.4,5.3 z"
     id="path124"
     inkscape:connector-curvature="0"
     style="fill:#525252" />
  <path
     d="m 86.6565,21 c 3,1.5 5.4,4.2 6.4,7.7 l -1.8,0.3 c 0.3,0.3 0.5,0.5 0.4,0.7 -0.1,0.2 -0.6,0.2 -1.6,0 0,-0.3 0.2,-2.5 -1.3,-4.3 -1.6,-1.8 -3.3,-1.6 -3.6,-1.6 0,-1 0.1,-1.5 0.3,-1.5 0.1,0 0.3,0.1 0.6,0.5 l 0.6,-1.8 m 3.9,7.4 1.6,-0.3 c -0.9,-2.6 -2.7,-4.7 -5,-6 l -0.6,1.3 c 0.3,0 1.5,0.2 2.7,1.6 1.2,1.4 1.4,3.1 1.3,3.4"
     id="path126"
     inkscape:connector-curvature="0"
     style="fill:#9c9c9c" />
  <path
     stroke-miterlimit="10"
     d="m 79.6565,70.3 h 14.3 m -18.7,0 h -4.6"
     id="path128"
     inkscape:connector-curvature="0"
     style="fill:none;stroke:#404040;stroke-width:0.713;stroke-miterlimit:10" />
  <path
     d="m 69.9565,61.6 6.1,1.4 h -6.1 z"
     id="path130"
     inkscape:connector-curvature="0"
     style="fill:#292929" />
  <g
     id="g134"
     transform="translate(-0.0435)">
    <path
       d="M 44.8,61.6 H 70 v 0.9 H 44.8 Z"
       id="path132"
       inkscape:connector-curvature="0"
       style="fill:#292929" />
  </g>
  <path
     d="m 55.1565,66.9 h 4.4 v 2.3 h -4.4 z"
     id="path136"
     inkscape:connector-curvature="0"
     style="fill:#100b06" />
  <g
     id="g140"
     style="fill:#434343"
     transform="translate(-0.0435)">
    <path
       d="m 2.4,52.7 h 110 v 0.7 H 2.4 Z m 0,1.2 h 110 v 0.7 H 2.4 Z m 0,1.1 h 110 v 0.7 H 2.4 Z m 0,1.1 h 110 v 0.7 H 2.4 Z m 0,1.2 h 110 V 58 H 2.4 Z m 0,1.1 h 110 v 0.7 H 2.4 Z m 0,1.2 h 110 v 0.7 H 2.4 Z m 0,1.1 h 110 v 0.7 H 2.4 Z m 0,1.2 h 110 v 0.7 H 2.4 Z m 0,1.8 h 37.4 c 0.2,-0.3 0.6,-0.6 1.1,-0.6 h 2.4 c 0.4,0 0.8,0.2 1.1,0.6 h 26.1 c 0.2,-0.3 0.6,-0.6 1.1,-0.6 H 74 c 0.4,0 0.8,0.2 1.1,0.6 h 37.3 V 63 H 2.4 Z m 29.9,1.1 h 7.2 V 64.4 64.1 H 2.4 v 0.7 H 29 c 0.5,-0.3 1,-0.5 1.6,-0.5 0.6,0 1.2,0.2 1.7,0.5 z m 12.3,-0.4 v 0.4 H 70.2 V 64.4 64.1 H 44.6 Z m 30.7,0.4 h 7.2 c 0.5,-0.3 1,-0.5 1.6,-0.5 0.6,0 1.2,0.2 1.6,0.5 h 26.6 v -0.7 h -37 z m -35.8,0.5 h -6.7 c 0.2,0.2 0.3,0.4 0.4,0.7 h 6.3 z m 72.9,0.6 V 65.2 H 86.3 c 0.2,0.2 0.3,0.4 0.4,0.7 z m -37.1,0 h 6.3 c 0.1,-0.2 0.3,-0.5 0.4,-0.7 H 75.3 Z M 2.4,65.3 V 66 H 28 c 0.1,-0.2 0.3,-0.5 0.4,-0.7 z m 42.2,0 H 70.2 V 66 H 44.6 Z M 2.4,66.4 v 0.7 h 25.4 c 0,-0.2 0,-0.5 0.1,-0.7 z m 42,0.7 h 26 C 70.3,66.9 70.2,66.7 70.2,66.4 H 44.6 c 0,0.3 -0.1,0.5 -0.2,0.7 z m 68,0 V 66.4 H 86.9 c 0.1,0.2 0.1,0.4 0.1,0.7 z m -37.3,0 h 6.2 c 0,-0.2 0,-0.5 0.1,-0.7 h -6.1 c 0,0.3 -0.1,0.5 -0.2,0.7 z M 39.5,66.4 h -6.1 c 0.1,0.2 0.1,0.4 0.1,0.7 h 6.2 C 39.6,66.9 39.5,66.7 39.5,66.4 Z M 74,67.7 h -2.4 c -0.2,0 -0.4,0 -0.6,-0.1 H 43.8 c -0.2,0.1 -0.4,0.1 -0.6,0.1 h -2.4 c -0.2,0 -0.4,0 -0.6,-0.1 h -6.8 c 0,0.2 -0.1,0.5 -0.2,0.7 h 48.3 c -0.1,-0.2 -0.1,-0.4 -0.2,-0.7 h -6.8 c -0.1,0.1 -0.3,0.1 -0.5,0.1 z m 38.4,0.5 V 67.5 H 87 c 0,0.2 -0.1,0.5 -0.2,0.7 z M 2.4,67.6 v 0.7 H 28 c -0.1,-0.2 -0.1,-0.4 -0.2,-0.7 z m 79.4,1.1 H 33 c -0.2,0.3 -0.4,0.5 -0.6,0.7 h 50 C 82.2,69.2 82,69 81.8,68.7 Z m -53.6,0 H 2.8 v 0.7 h 26 C 28.6,69.2 28.4,69 28.2,68.7 Z m 57.7,0.7 h 25.9 V 68.7 H 86.6 c -0.2,0.3 -0.4,0.5 -0.7,0.7 z"
       id="path138"
       inkscape:connector-curvature="0" />
  </g>
  <g
     id="g144"
     transform="translate(-0.0435)">
    <path
       d="M 44.8,63 H 21.6 v 0.9 h 18 c 0.2,-0.4 0.7,-0.7 1.2,-0.7 h 2.4 c 0.5,0 1,0.3 1.2,0.7 h 0.3 V 63 Z"
       id="path142"
       inkscape:connector-curvature="0"
       style="fill:#292929" />
  </g>
  <g
     id="g148"
     transform="translate(-0.0435)">
    <path
       d="M 93.2,63 H 70 v 0.9 h 0.3 c 0.2,-0.4 0.7,-0.7 1.2,-0.7 H 74 c 0.5,0 1,0.3 1.2,0.7 h 18 z"
       id="path146"
       inkscape:connector-curvature="0"
       style="fill:#292929" />
  </g>
  <g
     id="g152"
     transform="translate(-0.0435)">
    <path
       d="m 84.2,64.3 c 1.1,0 2.1,0.7 2.6,1.6 l 1.1,-2.5 h -7.4 l 1.1,2.5 c 0.5,-1 1.5,-1.6 2.6,-1.6 z"
       id="path150"
       inkscape:connector-curvature="0"
       style="fill:#292929" />
  </g>
  <g
     id="g156"
     transform="translate(-0.0435)">
    <path
       d="m 30.6,64.3 c 1.1,0 2.1,0.6 2.6,1.6 l 1.1,-2.5 h -7.4 l 1.1,2.5 c 0.5,-1 1.5,-1.6 2.6,-1.6 z"
       id="path154"
       inkscape:connector-curvature="0"
       style="fill:#292929" />
  </g>
  <path
     d="m 57.6565,43.2 h -48.6 c -1.7,-3.5 -2.7,-7.4 -2.7,-11.5 0,-4.2 1,-8.1 2.7,-11.6 h 48.4 c 1.7,3.5 2.8,7.5 2.8,11.6 0.1,4.1 -0.9,8 -2.6,11.5 m -18.2,-11.4 c 0,-3.3 -2.7,-6.1 -6.1,-6.1 -3.4,0 -6.1,2.7 -6.1,6.1 0,3.4 2.7,6.1 6.1,6.1 3.4,0 6.1,-2.7 6.1,-6.1 z"
     id="path158"
     inkscape:connector-curvature="0"
     style="fill:#392010" />
  <g
     id="g238"
     transform="translate(-0.0435)">
    <path
       d="m 39.5,31.7 c 0,3.3 -2.7,6.1 -6.1,6.1 -3.4,0 -6.1,-2.7 -6.1,-6.1 0,-3.4 2.7,-6.1 6.1,-6.1 3.4,0 6.1,2.8 6.1,6.1 z M 33.4,25 a 6.7,6.7 0 1 0 0,13.4 6.7,6.7 0 0 0 0,-13.4 z"
       id="path160"
       inkscape:connector-curvature="0"
       style="fill:#9d9d9d" />
    <path
       d="m 33.4,38 c -3.4,0 -6.2,-2.8 -6.2,-6.2 0,-3.4 2.8,-6.2 6.2,-6.2 3.4,0 6.2,2.8 6.2,6.2 0,3.4 -2.8,6.2 -6.2,6.2 z m 0,-12.1 c -3.3,0 -5.9,2.7 -5.9,5.9 0,3.2 2.7,5.9 5.9,5.9 3.2,0 5.9,-2.7 5.9,-5.9 0,-3.2 -2.6,-5.9 -5.9,-5.9 z"
       id="path162"
       inkscape:connector-curvature="0"
       style="fill:#e4e4e3" />
    <path
       d="m 32.7,25.8 h 0.4 v 1.7 h -0.4 z m 1.1,0 h 0.4 v 1.7 h -0.4 z m -1.1,10.4 h 0.4 v 1.7 h -0.4 z m 1.1,0 h 0.4 v 1.7 h -0.4 z m -6.03,-6.757 0.2,-0.346 1.473,0.85 -0.2,0.346 z m 0.626,-0.967 0.2,-0.346 1.472,0.85 -0.2,0.346 z m 8.515,6.173 0.2,-0.347 1.472,0.85 -0.2,0.347 z m 0.488,-0.933 0.2,-0.347 1.472,0.85 -0.2,0.347 z m -8.983,1.406 1.473,-0.85 0.2,0.346 -1.473,0.85 z m -0.616,-0.97 1.473,-0.85 0.2,0.346 -1.472,0.85 z"
       id="path164"
       inkscape:connector-curvature="0"
       style="fill:#e4e4e3" />
    <g
       id="g168">
      <path
         d="m 37.43,29.938 1.472,-0.85 0.2,0.346 -1.472,0.85 z m -0.615,-0.97 1.472,-0.85 0.2,0.346 -1.472,0.85 z"
         id="path166"
         inkscape:connector-curvature="0"
         style="fill:#e4e4e3" />
    </g>
    <path
       d="m 41.3,31.7 c 0,4.3 -3.5,7.8 -7.8,7.8 -4.3,0 -7.8,-3.5 -7.8,-7.8 0,-4.3 3.5,-7.8 7.8,-7.8 4.3,0 7.8,3.5 7.8,7.8 z M 33.4,25 a 6.7,6.7 0 1 0 0,13.4 6.7,6.7 0 0 0 0,-13.4 z"
       id="path170"
       inkscape:connector-curvature="0"
       style="fill:#bcbdbc" />
    <path
       d="m 41.3,31.7 c 0,4.3 -3.5,7.8 -7.8,7.8 -4.3,0 -7.8,-3.5 -7.8,-7.8 0,-4.3 3.5,-7.8 7.8,-7.8 4.3,0 7.8,3.5 7.8,7.8 z m -7.9,-12 c -6.6,0 -11.9,5.4 -11.9,12.1 0,6.7 5.3,12.1 11.9,12.1 6.6,0 11.9,-5.4 11.9,-12.1 0,-6.7 -5.3,-12.1 -11.9,-12.1 z"
       id="path172"
       inkscape:connector-curvature="0"
       style="fill:#cccccc" />
    <g
       id="g184">
      <path
         d="m 43.6,27 c 0.6,1.4 1,2.9 1,4.5 h -2.4 c 0,-1.2 -0.3,-2.3 -0.7,-3.3 z"
         id="path174"
         inkscape:connector-curvature="0"
         style="fill:#9c9c9c" />
      <path
         d="m 43.9,31.6 c 0,-1.5 -0.4,-2.9 -0.9,-4.1 L 42.2,28 c 0.5,1.1 0.8,2.4 0.8,3.7 z"
         id="path176"
         inkscape:connector-curvature="0"
         style="fill:#525252" />
      <g
         id="g182">
        <path
           d="m 43.6,36.5 c 0.6,-1.4 1,-2.9 1,-4.5 h -2.4 c 0,1.2 -0.3,2.3 -0.7,3.3 z"
           id="path178"
           inkscape:connector-curvature="0"
           style="fill:#9c9c9c" />
        <path
           d="m 43.9,32 c 0,1.5 -0.4,2.9 -0.9,4.1 L 42.2,35.6 C 42.7,34.5 43,33.2 43,31.9 Z"
           id="path180"
           inkscape:connector-curvature="0"
           style="fill:#525252" />
      </g>
    </g>
    <g
       id="g196">
      <path
         d="m 34.4,20.6 c 1.5,0.1 3,0.6 4.4,1.4 l -1.1,2 c -1,-0.6 -2.1,-0.9 -3.2,-1 z"
         id="path186"
         inkscape:connector-curvature="0"
         style="fill:#9c9c9c" />
      <path
         d="m 38.5,22.6 c -1.3,-0.7 -2.7,-1.1 -4.1,-1.3 v 0.9 c 1.2,0.1 2.4,0.5 3.6,1.1 z"
         id="path188"
         inkscape:connector-curvature="0"
         style="fill:#525252" />
      <g
         id="g194">
        <path
           d="M 42.7,25.3 C 41.8,24.1 40.7,23 39.3,22.1 L 38,24.2 c 1,0.6 1.8,1.4 2.5,2.3 z"
           id="path190"
           inkscape:connector-curvature="0"
           style="fill:#9c9c9c" />
        <path
           d="m 38.9,22.8 c 1.3,0.8 2.3,1.8 3.1,2.9 l -0.8,0.5 c -0.7,-1 -1.7,-1.9 -2.8,-2.5 z"
           id="path192"
           inkscape:connector-curvature="0"
           style="fill:#525252" />
      </g>
    </g>
    <g
       id="g208">
      <path
         d="m 24.2,25.3 c 0.9,-1.2 2,-2.3 3.4,-3.2 l 1.2,2.1 c -1,0.6 -1.8,1.4 -2.5,2.3 z"
         id="path198"
         inkscape:connector-curvature="0"
         style="fill:#9c9c9c" />
      <path
         d="m 28,22.8 c -1.3,0.8 -2.3,1.8 -3.1,2.9 l 0.8,0.5 c 0.7,-1 1.7,-1.9 2.8,-2.5 z"
         id="path200"
         inkscape:connector-curvature="0"
         style="fill:#525252" />
      <g
         id="g206">
        <path
           d="m 32.4,20.6 c -1.5,0.1 -3,0.6 -4.4,1.4 l 1.2,2.1 c 1,-0.6 2.1,-0.9 3.2,-1 z"
           id="path202"
           inkscape:connector-curvature="0"
           style="fill:#9c9c9c" />
        <path
           d="m 28.4,22.6 c 1.3,-0.7 2.7,-1.1 4.1,-1.3 v 0.9 c -1.2,0.1 -2.4,0.5 -3.6,1.1 -0.1,0.1 -0.5,-0.7 -0.5,-0.7 z"
           id="path204"
           inkscape:connector-curvature="0"
           style="fill:#525252" />
      </g>
    </g>
    <g
       id="g220">
      <path
         d="m 23.2,36.5 c -0.6,-1.4 -1,-2.9 -1,-4.5 h 2.4 c 0,1.2 0.3,2.3 0.7,3.3 z"
         id="path210"
         inkscape:connector-curvature="0"
         style="fill:#9c9c9c" />
      <path
         d="m 22.9,32 c 0,1.5 0.4,2.9 0.9,4.1 l 0.8,-0.5 C 24.1,34.5 23.8,33.2 23.8,31.9 23.9,32 22.9,32 22.9,32 Z"
         id="path212"
         inkscape:connector-curvature="0"
         style="fill:#525252" />
      <g
         id="g218">
        <path
           d="m 23.2,27 c -0.6,1.4 -1,2.9 -1,4.5 h 2.4 c 0,-1.2 0.3,-2.3 0.7,-3.3 z"
           id="path214"
           inkscape:connector-curvature="0"
           style="fill:#9c9c9c" />
        <path
           d="m 22.9,31.6 c 0,-1.5 0.4,-2.9 0.9,-4.1 l 0.8,0.5 c -0.5,1.1 -0.8,2.4 -0.8,3.7 z"
           id="path216"
           inkscape:connector-curvature="0"
           style="fill:#525252" />
      </g>
    </g>
    <g
       id="g232">
      <path
         d="m 32.4,43 c -1.5,-0.1 -3,-0.6 -4.4,-1.4 l 1.2,-2.1 c 1,0.6 2.1,0.9 3.2,1 z"
         id="path222"
         inkscape:connector-curvature="0"
         style="fill:#9c9c9c" />
      <path
         d="m 28.4,41 c 1.3,0.7 2.7,1.1 4.1,1.3 v -0.9 c -1.2,-0.1 -2.4,-0.5 -3.6,-1.1 z"
         id="path224"
         inkscape:connector-curvature="0"
         style="fill:#525252" />
      <g
         id="g230">
        <path
           d="m 24.2,38.3 c 0.9,1.2 2,2.3 3.4,3.2 l 1.2,-2.1 C 27.8,38.8 27,38 26.3,37.1 Z"
           id="path226"
           inkscape:connector-curvature="0"
           style="fill:#9c9c9c" />
        <path
           d="M 28,40.8 C 26.7,40 25.7,39 24.9,37.9 l 0.8,-0.5 c 0.7,1 1.7,1.9 2.8,2.5 z"
           id="path228"
           inkscape:connector-curvature="0"
           style="fill:#525252" />
      </g>
    </g>
    <path
       d="m 34.5,41.8 v 1.8 c 3.5,-0.3 6.6,-2.2 8.6,-4.9 l -1.4,-0.9 -1.2,-0.7 c -1.4,1.9 -3.5,3.2 -6,3.5 z"
       id="path234"
       inkscape:connector-curvature="0"
       style="fill:#525252" />
    <path
       d="m 43.2,38.7 c -2,2.7 -5.1,4.6 -8.7,4.9 v -1.8 c -0.4,0.3 -0.6,0.4 -0.7,0.3 -0.2,-0.1 -0.1,-0.6 0.3,-1.6 0.3,0.1 2.4,0.7 4.5,-0.6 2.1,-1.2 2.1,-2.9 2.2,-3.3 1,0.2 1.5,0.3 1.5,0.6 0,0.1 -0.2,0.3 -0.6,0.5 l 1.5,1 m -7.9,2.6 v 1.6 C 38,42.4 40.4,41 42.1,39 l -1.2,-0.8 c -0.1,0.3 -0.4,1.5 -2,2.4 -1.7,0.9 -3.3,0.8 -3.6,0.7"
       id="path236"
       inkscape:connector-curvature="0"
       style="fill:#9c9c9c" />
  </g>
  <path
     stroke-miterlimit="10"
     d="m 95.6565,70.3 h 13.6 c 1.9,0 3.5,-1.6 3.5,-3.5 V 3.9 c 0,-1.9 -1.6,-3.5 -3.5,-3.5 h -3.5 v 5.1 c 0,0.2 -0.2,0.4 -0.4,0.4 h -6.5 c -0.2,0 -0.4,-0.2 -0.4,-0.4 V 0.4 h -82 v 5.1 c 0,0.2 -0.2,0.4 -0.4,0.4 h -6.6 c -0.3,0 -0.5,-0.2 -0.5,-0.4 V 0.4 h -3.5 c -1.9,0 -3.5,1.5 -3.5,3.5 v 62.9 c 0,1.9 1.6,3.5 3.5,3.5 h 13.6"
     id="path240"
     inkscape:connector-curvature="0"
     style="fill:none;stroke:#404040;stroke-width:0.713;stroke-miterlimit:10" />
  <g
     id="g256"
     transform="translate(-0.0435)">
    <path
       d="m 6.9,3.1 c 0,1.2 -1,2.2 -2.2,2.2 -1.2,0 -2.2,-1 -2.2,-2.2"
       id="path242"
       inkscape:connector-curvature="0"
       style="fill:#3a3a3a" />
    <path
       d="m 2.5,3.1 c 0,-1.2 1,-2.2 2.2,-2.2 1.2,0 2.2,1 2.2,2.2"
       id="path244"
       inkscape:connector-curvature="0"
       style="fill:#525252" />
    <g
       id="g252"
       style="fill:#1f1f1f">
      <path
         d="M 4.1,2.6 H 5.2 V 3.7 H 4.1 Z"
         id="path246"
         inkscape:connector-curvature="0" />
      <path
         d="M 3.664,4 5.168,2.004 5.648,2.364 4.143,4.361 Z"
         id="path248"
         inkscape:connector-curvature="0" />
      <path
         d="M 5.45,4.157 3.454,2.652 3.814,2.173 5.811,3.678 Z"
         id="path250"
         inkscape:connector-curvature="0" />
    </g>
    <circle
       stroke-miterlimit="10"
       cx="4.6999998"
       cy="3.0999999"
       r="2.2"
       id="circle254"
       style="fill:none;stroke:#404040;stroke-width:0.14300001;stroke-miterlimit:10" />
  </g>
  <g
     id="g272"
     transform="translate(-0.0435)">
    <path
       d="m 107.9,3.1 c 0,1.2 1,2.2 2.2,2.2 1.2,0 2.2,-1 2.2,-2.2"
       id="path258"
       inkscape:connector-curvature="0"
       style="fill:#3a3a3a" />
    <path
       d="m 112.3,3.1 c 0,-1.2 -1,-2.2 -2.2,-2.2 -1.2,0 -2.2,1 -2.2,2.2"
       id="path260"
       inkscape:connector-curvature="0"
       style="fill:#525252" />
    <g
       id="g268"
       style="fill:#1f1f1f">
      <path
         d="m 110.706,3.77 h -1.1 v -1.1 h 1.1 z"
         id="path262"
         inkscape:connector-curvature="0" />
      <path
         d="M 110.68,4.361 109.176,2.365 109.656,2.004 111.16,4 Z"
         id="path264"
         inkscape:connector-curvature="0" />
      <path
         d="m 108.977,3.713 1.996,-1.505 0.361,0.48 -1.996,1.504 z"
         id="path266"
         inkscape:connector-curvature="0" />
    </g>
    <circle
       stroke-miterlimit="10"
       cx="110.1"
       cy="3.0999999"
       r="2.2"
       id="circle270"
       style="fill:none;stroke:#404040;stroke-width:0.14300001;stroke-miterlimit:10" />
  </g>
  <g
     id="g288"
     transform="translate(-0.0435)">
    <path
       d="M 6.9,67.8 C 6.9,69 5.9,70 4.7,70 3.5,70 2.5,69 2.5,67.8"
       id="path274"
       inkscape:connector-curvature="0"
       style="fill:#3a3a3a" />
    <path
       d="m 2.5,67.8 c 0,-1.2 1,-2.2 2.2,-2.2 1.2,0 2.2,1 2.2,2.2"
       id="path276"
       inkscape:connector-curvature="0"
       style="fill:#525252" />
    <g
       id="g284"
       style="fill:#1f1f1f">
      <path
         d="m 4.1,67.4 h 1.1 v 1.1 H 4.1 Z"
         id="path278"
         inkscape:connector-curvature="0" />
      <path
         d="m 3.692,68.812 1.505,-1.997 0.479,0.361 -1.505,1.997 z"
         id="path280"
         inkscape:connector-curvature="0" />
      <path
         d="M 5.514,68.932 3.517,67.427 3.878,66.948 5.875,68.453 Z"
         id="path282"
         inkscape:connector-curvature="0" />
    </g>
    <circle
       stroke-miterlimit="10"
       cx="4.6999998"
       cy="67.800003"
       r="2.2"
       id="circle286"
       style="fill:none;stroke:#404040;stroke-width:0.14300001;stroke-miterlimit:10" />
  </g>
  <g
     id="g304"
     transform="translate(-0.0435)">
    <path
       d="m 107.9,67.8 c 0,1.2 1,2.2 2.2,2.2 1.2,0 2.2,-1 2.2,-2.2"
       id="path290"
       inkscape:connector-curvature="0"
       style="fill:#3a3a3a" />
    <path
       d="m 112.3,67.8 c 0,-1.2 -1,-2.2 -2.2,-2.2 -1.2,0 -2.2,1 -2.2,2.2"
       id="path292"
       inkscape:connector-curvature="0"
       style="fill:#525252" />
    <g
       id="g300"
       style="fill:#1f1f1f">
      <path
         d="m 110.65,68.522 h -1.1 v -1.1 h 1.1 z"
         id="path294"
         inkscape:connector-curvature="0" />
      <path
         d="m 110.653,69.101 -1.504,-1.996 0.479,-0.361 1.504,1.996 z"
         id="path296"
         inkscape:connector-curvature="0" />
      <path
         d="m 108.985,68.49 1.996,-1.505 0.361,0.479 -1.996,1.504 z"
         id="path298"
         inkscape:connector-curvature="0" />
    </g>
    <circle
       stroke-miterlimit="10"
       cx="110.1"
       cy="67.800003"
       r="2.2"
       id="circle302"
       style="fill:none;stroke:#404040;stroke-width:0.14300001;stroke-miterlimit:10" />
  </g>
  <g
     id="g308"
     transform="translate(-0.0435)">
    <path
       d="M 67.2,65.4 67.1,63.5 H 47.7 l -0.1,1.9 -0.3,-0.1 0.2,-2 h 19.8 l 0.2,2 z"
       id="path306"
       inkscape:connector-curvature="0"
       style="fill:#b7b8b6" />
  </g>
  <g
     id="g324"
     transform="translate(-0.0435)">
    <path
       d="m 59.7,58.6 c 0,1.2 -1,2.2 -2.2,2.2 -1.2,0 -2.2,-1 -2.2,-2.2"
       id="path310"
       inkscape:connector-curvature="0"
       style="fill:#3a3a3a" />
    <path
       d="m 55.3,58.6 c 0,-1.2 1,-2.2 2.2,-2.2 1.2,0 2.2,1 2.2,2.2"
       id="path312"
       inkscape:connector-curvature="0"
       style="fill:#525252" />
    <g
       id="g320"
       style="fill:#1f1f1f">
      <path
         d="M 56.9,58.1 H 58 v 1.1 h -1.1 z"
         id="path314"
         inkscape:connector-curvature="0" />
      <path
         d="m 56.46,59.508 1.504,-1.996 0.48,0.36 -1.505,1.997 z"
         id="path316"
         inkscape:connector-curvature="0" />
      <path
         d="m 58.26,59.672 -1.997,-1.504 0.36,-0.48 1.997,1.505 z"
         id="path318"
         inkscape:connector-curvature="0" />
    </g>
    <circle
       stroke-miterlimit="10"
       cx="57.5"
       cy="58.599998"
       r="2.2"
       id="circle322"
       style="fill:none;stroke:#404040;stroke-width:0.14300001;stroke-miterlimit:10" />
  </g>
  <g
     id="g328"
     transform="translate(-0.0435)">
    <path
       d="M 20.5,70.4 19.7,70.2 23,55.3 c 0,-1.2 1,-2.1 2.1,-2.1 h 64.5 c 1.2,0 2.1,0.9 2.1,2.1 l 3.4,14.9 -0.8,0.2 -3.4,-15 c 0,-0.7 -0.6,-1.3 -1.3,-1.3 H 25.1 c -0.7,0 -1.3,0.6 -1.3,1.3 z"
       id="path326"
       inkscape:connector-curvature="0"
       style="fill:#292929" />
  </g>
  <g
     id="g332"
     transform="translate(-0.0435)">
    <path
       d="m 36.3,63.4 h 0.9 v 5.2 h -0.9 z"
       id="path330"
       inkscape:connector-curvature="0"
       style="fill:#292929" />
  </g>
  <g
     id="g336"
     transform="translate(-0.0435)">
    <path
       d="m 77.6,63.4 h 0.9 v 5.2 h -0.9 z"
       id="path334"
       inkscape:connector-curvature="0"
       style="fill:#292929" />
  </g>
  <g
     id="g340"
     transform="translate(-0.0435)">
    <path
       d="m 70.7,70.7 h -5.5 v -6.9 h 0.9 v 6.1 h 4.6 z"
       id="path338"
       inkscape:connector-curvature="0"
       style="fill:#292929" />
  </g>
  <g
     id="g344"
     transform="translate(-0.0435)">
    <path
       d="m 49.6,70.7 h -5.5 v -0.8 h 4.6 v -6.1 h 0.9 z"
       id="path342"
       inkscape:connector-curvature="0"
       style="fill:#292929" />
  </g>
  <g
     id="g348"
     transform="translate(-0.0435)">
    <path
       d="M 68.6,67.1 H 46.1 v -1 h 0.3 v 0.7 h 22 v -0.7 h 0.2 z"
       id="path346"
       inkscape:connector-curvature="0"
       style="fill:#81472e" />
  </g>
  <path
     stroke-miterlimit="10"
     d="m 6.4565,31.8 c -1.2,16 -1.6,27.6 -1.6,27.6 -0.2,1.9 2.9,9.1 7.9,9.5 28.1,1.3 58,0.5 89.3,0 5,-0.4 8.1,-7.6 7.9,-9.5 -0.3,-5 -9.9,-26.1 -16.4,-28.4"
     id="path350"
     inkscape:connector-curvature="0"
     style="fill:none;stroke:#f2f2f2;stroke-width:0.071;stroke-miterlimit:10" />
  <path
     stroke-miterlimit="10"
     d="M 45.4565,27.7 V 36 m 3.1,-8.3 V 36 m 2.9,-8.3 V 36 m 3,-8.3 V 36 m 3,-8.3 V 36 m 2.9,-8.3 V 36 m 3,-8.3 V 36 m 3,-8.3 V 36 m 3,-8.3 V 36"
     id="path352"
     inkscape:connector-curvature="0"
     style="fill:none;stroke:#ffffff;stroke-width:0.14300001;stroke-miterlimit:10" />
</svg>
