<?xml version="1.0" encoding="UTF-8" standalone="no"?>
<svg
   xmlns:dc="http://purl.org/dc/elements/1.1/"
   xmlns:cc="http://creativecommons.org/ns#"
   xmlns:rdf="http://www.w3.org/1999/02/22-rdf-syntax-ns#"
   xmlns:svg="http://www.w3.org/2000/svg"
   xmlns="http://www.w3.org/2000/svg"
   xmlns:sodipodi="http://sodipodi.sourceforge.net/DTD/sodipodi-0.dtd"
   xmlns:inkscape="http://www.inkscape.org/namespaces/inkscape"
   width="422.23703"
   height="486.38467"
   version="1.1"
   id="svg14"
   sodipodi:docname="controls.svg"
   inkscape:version="0.92.4 5da689c313, 2019-01-14">
  <metadata
     id="metadata20">
    <rdf:RDF>
      <cc:Work
         rdf:about="">
        <dc:format>image/svg+xml</dc:format>
        <dc:type
           rdf:resource="http://purl.org/dc/dcmitype/StillImage" />
      </cc:Work>
    </rdf:RDF>
  </metadata>
  <defs
     id="defs18" />
  <sodipodi:namedview
     pagecolor="#ffffff"
     bordercolor="#666666"
     borderopacity="1"
     objecttolerance="10"
     gridtolerance="10"
     guidetolerance="10"
     inkscape:pageopacity="0"
     inkscape:pageshadow="2"
     inkscape:window-width="471"
     inkscape:window-height="442"
     id="namedview16"
     showgrid="false"
     inkscape:zoom="0.48521232"
     inkscape:cx="211.093"
     inkscape:cy="243.1925"
     inkscape:window-x="0"
     inkscape:window-y="0"
     inkscape:window-maximized="0"
     inkscape:current-layer="svg14" />
  <path
     d="m 152.7025,189.33267 c -23.328,0 -42.46,-18.964 -42.46,-42.46 0,-23.495 18.965,-42.46 42.46,-42.46 23.496,0 42.46,18.965 42.46,42.46 0.002,23.496 -18.962,42.46 -42.46,42.46 z m 0,-67.465 c -13.762,0 -25.006,11.244 -25.006,25.006 0,13.761 11.244,25.006 25.006,25.006 13.762,0 25.006,-11.245 25.006,-25.006 0,-13.762 -11.244,-25.006 -25.006,-25.006 z"
     id="path2"
     inkscape:connector-curvature="0"
     style="fill:#ff0000" />
  <path
     d="m 294.6855,192.01867 h -1.175 l -64.445,-8.392 c -2.35,-0.335 -4.364,-1.51 -5.706,-3.356 -1.343,-1.846 -2.014,-4.196 -1.678,-6.378 l 8.39,-64.445 c 0.672,-4.699 5.036,-8.223 9.735,-7.552 l 64.445,8.392 c 2.35,0.335 4.363,1.51 5.706,3.356 1.342,1.846 2.014,4.196 1.678,6.377 l -8.391,64.445 c -0.504,4.364 -4.198,7.553 -8.56,7.553 z m -54.544,-24.67 46.992,6.209 6.21,-46.991 -46.992,-6.21 -6.21,46.991 z"
     id="path4"
     inkscape:connector-curvature="0"
     style="fill:#ff5ddc" />
  <path
     d="m 153.8775,83.267673 c -0.504,0 -1.175,0 -1.846,-0.168 -4.7,-1.007 -7.72,-5.538 -6.713,-10.238 l 13.76,-65.9549996 c 1.007,-4.699 5.539,-7.71999999 10.238,-6.71299999 4.699,1.00699999 7.72,5.53799999 6.713,10.23699959 l -13.761,65.956 c -0.671,4.028 -4.361,6.88 -8.391,6.88 z"
     id="path6"
     inkscape:connector-curvature="0"
     style="fill:#027fe1" />
  <path
     d="m 193.8195,57.086673 c -0.503,0 -1.174,0 -1.846,-0.168 l -65.955,-13.762 c -4.7,-1.007 -7.72,-5.538 -6.713,-10.237 1.007,-4.7 5.538,-7.72 10.237,-6.713 l 65.956,13.762 c 4.699,1.007 7.72,5.538 6.713,10.237 -0.837,4.028 -4.362,6.88 -8.392,6.88 z"
     id="path8"
     inkscape:connector-curvature="0"
     style="fill:#027fe1" />
  <path
     d="m 239.1345,78.568673 a 8.605,8.605 0 0 1 -5.706,-2.182 c -2.35,-2.014 -3.356,-5.203 -2.685,-8.224 l 11.916,-56.725 c 0.671,-3.0199996 2.853,-5.5379996 5.706,-6.3769996 3.02,-1.007 6.21,-0.336 8.559,1.678 l 43.467,38.2639996 c 2.35,2.014 3.356,5.203 2.685,8.224 -0.671,3.02 -2.853,5.538 -5.706,6.545 l -55.383,18.293 c -1.006,0.336 -2.013,0.504 -2.853,0.504 z m 17.284,-49.005 -5.706,27.355 26.684,-8.895 z"
     id="path10"
     inkscape:connector-curvature="0"
     style="fill:#8aee49" />
  <path
     d="m 421.8935,380.83767 c -0.667,-31.383 -1.511,-41.283 -4.362,-53.36 -9.901,-41.285 -26.51,-73.002 -51.517,-97.838 -33.394,-33.222 -73.162,-36.236 -120.815,-9.061 l -13.262,7.554 h -41.639 l -13.26,-7.554 c -47.652,-27.183 -87.425997,-24.161 -120.817997,9.06 -25.002,24.837 -41.615,56.554 -51.5149999,97.839 -2.86,12.077 -3.691,21.979 -4.36100001,53.36 -1.18,45.979 0.5,61.922 7.71700001,76.68 8.2219999,17.125 25.1679999,28.867 41.1099999,28.867 19.296,0 53.193997,-26.015 77.186997,-59.23 l 10.239,-14.103 h 149.03 l 10.243,14.103 c 23.994,33.217 57.89,59.23 77.188,59.23 15.942,0 32.889,-11.742 41.116,-28.866 7.214,-14.76 8.899,-30.705 7.718,-76.681 z m -266.301,-60.078 h -22.662 v 22.65 c 0,7.054 -5.871,12.918 -12.914,12.918 -7.05,0 -12.928,-5.864 -12.928,-12.918 v -22.65 H 84.438503 c -7.046,0 -12.917,-5.878 -12.917,-12.924 0,-7.046 5.87,-12.924 12.917,-12.924 H 107.0885 v -22.65 c 0,-7.048 5.876,-12.923 12.929,-12.923 7.043,0 12.914,5.875 12.914,12.924 v 22.649 h 22.662 c 7.042,0 12.92,5.87 12.92,12.924 -0.172,7.215 -5.878,12.924 -12.921,12.924 z m 166.797,-70.813 c 10.907,0 19.803,8.896 19.803,19.803 0,10.905 -8.896,19.798 -19.803,19.798 -10.913,0 -19.802,-8.886 -19.802,-19.798 0.169,-10.908 8.888,-19.803 19.802,-19.803 z m -64.271,38.263 c 0,-10.91 8.893,-19.804 19.804,-19.804 10.908,0 19.794,8.894 19.794,19.804 0,10.91 -8.886,19.799 -19.794,19.799 -10.911,0 -19.804,-8.887 -19.804,-19.8 z m 41.106,66.95 c -10.906,0 -19.791,-8.895 -19.791,-19.798 0,-10.905 8.885,-19.8 19.79,-19.8 10.915,0 19.807,8.892 19.807,19.8 -0.001,10.903 -8.894,19.799 -19.806,19.799 z m 41.616,-19.798 c -10.905,0 -19.8,-8.896 -19.8,-19.8 0,-10.91 8.895,-19.804 19.8,-19.804 10.913,0 19.805,8.895 19.805,19.805 -0.001,11.069 -8.895,19.799 -19.805,19.799 z"
     id="path12"
     inkscape:connector-curvature="0"
     style="fill:#808080" />
</svg>
