<?xml version="1.0" encoding="UTF-8" standalone="no"?>
<!-- Created with Inkscape (http://www.inkscape.org/) -->

<svg
   xmlns:dc="http://purl.org/dc/elements/1.1/"
   xmlns:cc="http://creativecommons.org/ns#"
   xmlns:rdf="http://www.w3.org/1999/02/22-rdf-syntax-ns#"
   xmlns:svg="http://www.w3.org/2000/svg"
   xmlns="http://www.w3.org/2000/svg"
   xmlns:sodipodi="http://sodipodi.sourceforge.net/DTD/sodipodi-0.dtd"
   xmlns:inkscape="http://www.inkscape.org/namespaces/inkscape"
   width="45"
   height="45"
   viewBox="0 0 11.90625 11.90625"
   version="1.1"
   id="svg50"
   inkscape:version="0.92.4 5da689c313, 2019-01-14"
   sodipodi:docname="icon_empty.svg"
   shape-rendering="crispEdges">
  <defs
     id="defs44" />
  <sodipodi:namedview
     id="base"
     pagecolor="#ffffff"
     bordercolor="#666666"
     borderopacity="1.0"
     inkscape:pageopacity="0.0"
     inkscape:pageshadow="2"
     inkscape:zoom="17.977778"
     inkscape:cx="22.5"
     inkscape:cy="22.5"
     inkscape:document-units="mm"
     inkscape:current-layer="svg50"
     showgrid="false"
     units="px"
     inkscape:showpageshadow="true"
     borderlayer="true"
     inkscape:window-width="1920"
     inkscape:window-height="1015"
     inkscape:window-x="1920"
     inkscape:window-y="0"
     inkscape:window-maximized="1"
     inkscape:object-nodes="true"
     inkscape:snap-bbox="false">
    <inkscape:grid
       type="xygrid"
       id="grid52"
       spacingx="1.3229167"
       spacingy="1.3229167" />
  </sodipodi:namedview>
  <metadata
     id="metadata47">
    <rdf:RDF>
      <cc:Work
         rdf:about="">
        <dc:format>image/svg+xml</dc:format>
        <dc:type
           rdf:resource="http://purl.org/dc/dcmitype/StillImage" />
        <dc:title></dc:title>
      </cc:Work>
    </rdf:RDF>
  </metadata>
  <g
     id="g897">
    <path
       inkscape:connector-curvature="0"
       id="path3514"
       d="m 3.3072915,1.984375 c 0,0.6614584 0,1.3229167 0,1.9843751 0.2204861,0 0.4409723,0 0.6614584,0 0,0.2204861 0,0.4409722 0,0.6614583 0.110243,0 0.2204861,0 0.3307291,0 0,0.2204861 0,0.4409722 0,0.6614583 0.2204861,0 0.4409722,0 0.6614583,0 0,-0.2204861 0,-0.4409722 0,-0.6614583 0.1102431,0 0.2204861,0 0.3307292,0 0,-0.2204861 0,-0.4409722 0,-0.6614583 0.2204861,0 0.4409722,0 0.6614583,0 0,-0.6614584 0,-1.3229167 0,-1.9843751 -0.8819444,0 -1.7638889,0 -2.6458333,0 z"
       style="fill:#c8c8c8;fill-opacity:1;fill-rule:evenodd;stroke:none;stroke-width:0.26499999;stroke-miterlimit:4;stroke-dasharray:none;stroke-opacity:1;shape-rendering:crispEdges" />
    <path
       inkscape:connector-curvature="0"
       id="path3516"
       d="m 8.5989582,4.6302083 c -0.6614583,0 -1.3229167,0 -1.984375,0 0,0.2204861 0,0.4409722 0,0.6614583 -0.2204861,0 -0.4409722,0 -0.6614583,0 0,0.1102431 0,0.2204861 0,0.3307292 -0.2204861,0 -0.4409722,0 -0.6614583,0 0,0.2204861 0,0.4409722 0,0.6614583 0.2204861,0 0.4409722,0 0.6614583,0 0,0.110243 0,0.2204861 0,0.3307291 0.2204861,0 0.4409722,0 0.6614583,0 0,0.2204861 0,0.4409723 0,0.6614584 0.6614583,0 1.3229167,0 1.984375,0 0,-0.8819444 0,-1.7638889 0,-2.6458333 z"
       style="fill:#c8c8c8;fill-opacity:1;fill-rule:evenodd;stroke:none;stroke-width:0.26499999;stroke-miterlimit:4;stroke-dasharray:none;stroke-opacity:1;shape-rendering:crispEdges" />
    <path
       inkscape:connector-curvature="0"
       id="path3518"
       d="m 4.299479,6.6145833 c 0,0.2204861 0,0.4409723 0,0.6614584 -0.110243,0 -0.2204861,0 -0.3307291,0 0,0.2204861 0,0.4409722 0,0.6614583 -0.2204861,0 -0.4409723,0 -0.6614584,0 0,0.6614583 0,1.3229167 0,1.984375 0.8819444,0 1.7638889,0 2.6458333,0 0,-0.6614583 0,-1.3229167 0,-1.984375 -0.2204861,0 -0.4409722,0 -0.6614583,0 0,-0.2204861 0,-0.4409722 0,-0.6614583 -0.1102431,0 -0.2204861,0 -0.3307292,0 0,-0.2204861 0,-0.4409723 0,-0.6614584 -0.2204861,0 -0.4409722,0 -0.6614583,0 z"
       style="fill:#c8c8c8;fill-opacity:1;fill-rule:evenodd;stroke:none;stroke-width:0.26499999;stroke-miterlimit:4;stroke-dasharray:none;stroke-opacity:1;shape-rendering:crispEdges" />
    <path
       inkscape:connector-curvature="0"
       id="path3520"
       d="m 0.6614583,4.6302083 c 0,0.8819444 0,1.7638889 0,2.6458333 0.6614583,0 1.3229167,0 1.984375,0 0,-0.2204861 0,-0.4409723 0,-0.6614584 0.2204861,0 0.4409722,0 0.6614583,0 0,-0.110243 0,-0.2204861 0,-0.3307291 0.2204861,0 0.4409723,0 0.6614584,0 0,-0.2204861 0,-0.4409722 0,-0.6614583 -0.2204861,0 -0.4409723,0 -0.6614584,0 0,-0.1102431 0,-0.2204861 0,-0.3307292 -0.2204861,0 -0.4409722,0 -0.6614583,0 0,-0.2204861 0,-0.4409722 0,-0.6614583 -0.6614583,0 -1.3229167,0 -1.984375,0 z"
       style="fill:#c8c8c8;fill-opacity:1;fill-rule:evenodd;stroke:none;stroke-width:0.26499999;stroke-miterlimit:4;stroke-dasharray:none;stroke-opacity:1;shape-rendering:crispEdges" />
    <path
       inkscape:connector-curvature="0"
       id="path3522"
       d="m 2.6458333,3.96875 c -0.8819444,0 -1.7638889,0 -2.6458333,0 0,1.3229166 0,2.6458333 0,3.9687499 0.8819444,0 1.7638889,0 2.6458333,0 0,-0.2204861 0,-0.4409722 0,-0.6614583 0.2204861,0 0.4409722,0 0.6614583,0 0,-0.1102431 0,-0.2204861 0,-0.3307292 0.2204861,0 0.4409723,0 0.6614584,0 -10e-8,-0.1102431 -10e-8,-0.2204861 -2e-7,-0.3307292 0.1102431,0 0.2204862,0 0.3307293,0 0,-0.1102431 0,-0.2204861 0,-0.3307292 -0.110243,0 -0.2204861,1e-7 -0.3307291,1e-7 0.2204861,0 0.4409722,0 0.6614583,0 0,-0.2204861 0,-0.4409722 0,-0.6614583 -0.2204861,0 -0.4409722,0 -0.6614583,0 0.110243,0 0.2204861,-10e-8 0.3307291,-10e-8 0,-0.1102431 0,-0.2204861 0,-0.3307292 -0.1102431,0 -0.2204861,0 -0.3307292,0 0,-0.110243 10e-8,-0.2204861 10e-8,-0.3307291 -0.2204861,0 -0.4409723,0 -0.6614584,0 0,-0.110243 0,-0.2204861 0,-0.3307291 -0.2204861,0 -0.4409722,0 -0.6614583,0 0,0.2204861 0,0.4409722 0,0.6614583 0.2204861,0 0.4409722,0 0.6614583,0 0,0.1102431 0,0.2204861 0,0.3307292 0.2204861,0 0.4409722,-10e-8 0.6614583,-10e-8 0,0.2204861 0,0.4409722 0,0.6614583 -0.2204861,0 -0.4409722,1e-7 -0.6614583,1e-7 0,0.110243 0,0.2204861 0,0.3307291 -0.2204861,0 -0.4409722,0 -0.6614583,0 0,0.2204861 0,0.4409723 0,0.6614584 -0.6614583,0 -1.3229167,0 -1.984375,0 0,-0.8819444 0,-1.7638889 0,-2.6458333 0.6614583,0 1.3229167,0 1.984375,0 0,-0.2204861 0,-0.4409722 0,-0.6614583 z"
       style="fill:#737373;fill-opacity:1;fill-rule:evenodd;stroke:none;stroke-width:0.26499999;stroke-miterlimit:4;stroke-dasharray:none;stroke-opacity:1;shape-rendering:crispEdges" />
    <path
       inkscape:connector-curvature="0"
       id="path3524"
       d="m 2.6458332,3.96875 c 0,-0.8819445 0,-1.763889 0,-2.6458335 1.3229166,0 2.6458333,0 3.9687499,0 0,0.8819445 0,1.763889 0,2.6458335 -0.2204861,0 -0.4409722,0 -0.6614583,0 0,0.2204861 0,0.4409722 0,0.6614583 -0.110243,0 -0.2204861,0 -0.3307291,0 0,0.2204861 0,0.4409722 0,0.6614583 -0.1102431,0 -0.2204861,0 -0.3307292,0 0,0.1102431 0,0.2204861 0,0.3307292 -0.1102431,0 -0.2204861,0 -0.3307292,0 0,-0.1102431 0,-0.2204861 0,-0.3307292 0,0.2204861 0,0.4409722 0,0.6614583 -0.2204861,0 -0.4409722,0 -0.6614583,0 0,-0.2204861 0,-0.4409722 0,-0.6614583 0,0.1102431 0,0.2204861 0,0.3307292 -0.1102431,0 -0.2204861,0 -0.3307292,0 0,-0.1102431 0,-0.2204861 0,-0.3307292 -0.110243,0 -0.2204861,0 -0.3307291,0 0,-0.2204861 0,-0.4409722 0,-0.6614583 -0.1102431,0 -0.2204861,0 -0.3307292,0 0,-0.2204861 0,-0.4409722 0,-0.6614583 0.2204861,0 0.4409723,0 0.6614584,0 0,0.2204861 0,0.4409722 0,0.6614583 0.110243,0 0.2204861,0 0.3307291,0 0,0.2204861 0,0.4409722 0,0.6614583 0.2204861,0 0.4409722,0 0.6614583,0 0,-0.2204861 0,-0.4409722 0,-0.6614583 0.1102431,0 0.2204861,0 0.3307292,0 0,-0.2204861 0,-0.4409722 0,-0.6614583 0.2204861,0 0.4409722,0 0.6614583,0 0,-0.6614584 0,-1.3229167 0,-1.9843751 -0.8819444,0 -1.7638889,0 -2.6458333,0 0,0.6614584 0,1.3229167 0,1.9843751 -0.2204861,0 -0.4409722,0 -0.6614583,0 z"
       style="fill:#737373;fill-opacity:1;fill-rule:evenodd;stroke:none;stroke-width:0.26499999;stroke-miterlimit:4;stroke-dasharray:none;stroke-opacity:1;shape-rendering:crispEdges" />
    <path
       inkscape:connector-curvature="0"
       id="path3526"
       d="m 6.6145832,3.96875 c 0.8819445,0 1.7638889,0 2.6458334,0 0,1.3229166 0,2.6458333 0,3.9687499 -0.8819445,0 -1.7638889,0 -2.6458334,0 0,-0.2204861 0,-0.4409722 0,-0.6614583 -0.2204861,0 -0.4409722,0 -0.6614583,0 0,-0.1102431 0,-0.2204861 0,-0.3307292 -0.2204861,0 -0.4409722,0 -0.6614583,0 0,-0.1102431 0,-0.2204861 0,-0.3307292 -0.1102431,0 -0.2204861,0 -0.3307292,0 0,-0.1102431 0,-0.2204861 0,-0.3307292 0.1102431,0 0.2204861,1e-7 0.3307292,1e-7 -0.2204861,0 -0.4409722,0 -0.6614583,0 0,-0.2204861 0,-0.4409722 0,-0.6614583 0.2204861,0 0.4409722,0 0.6614583,0 -0.1102431,0 -0.2204861,-10e-8 -0.3307292,-10e-8 0,-0.1102431 0,-0.2204861 0,-0.3307292 0.1102431,0 0.2204861,0 0.3307292,0 0,-0.110243 0,-0.2204861 0,-0.3307291 0.2204861,0 0.4409722,0 0.6614583,0 0,-0.110243 0,-0.2204861 0,-0.3307291 0.2204861,0 0.4409722,0 0.6614583,0 0,0.2204861 0,0.4409722 0,0.6614583 -0.2204861,0 -0.4409722,0 -0.6614583,0 0,0.1102431 0,0.2204861 0,0.3307292 -0.2204861,0 -0.4409722,0 -0.6614583,0 0,0.2204861 0,0.4409722 0,0.6614583 0.2204861,0 0.4409722,0 0.6614583,0 0,0.110243 0,0.2204861 0,0.3307291 0.2204861,0 0.4409722,0 0.6614583,0 0,0.2204861 0,0.4409723 0,0.6614584 0.6614583,0 1.3229167,0 1.984375,0 0,-0.8819444 0,-1.7638889 0,-2.6458333 -0.6614583,0 -1.3229167,0 -1.984375,0 0,-0.2204861 0,-0.4409722 0,-0.6614583 z"
       style="fill:#737373;fill-opacity:1;fill-rule:evenodd;stroke:none;stroke-width:0.26499999;stroke-miterlimit:4;stroke-dasharray:none;stroke-opacity:1;shape-rendering:crispEdges" />
    <path
       inkscape:connector-curvature="0"
       id="path3528"
       d="m 6.6145831,7.9375 c 0,0.8819443 0,1.7638887 0,2.645833 -1.3229166,0 -2.6458333,0 -3.9687499,0 0,-0.8819443 0,-1.7638887 0,-2.645833 0.2204861,0 0.4409722,0 0.6614583,0 0,-0.2204861 0,-0.4409722 0,-0.6614583 0.1102431,0 0.2204861,0 0.3307292,0 0,-0.2204861 0,-0.4409723 0,-0.6614584 0.110243,0 0.2204861,0 0.3307291,0 0,-0.1102431 0,-0.2204861 0,-0.3307292 0.1102431,0 0.2204861,0 0.3307292,0 0,0.1102431 0,0.2204861 0,0.3307292 0,-0.2204861 0,-0.4409722 0,-0.6614583 0.2204861,0 0.4409722,0 0.6614583,0 0,0.2204861 0,0.4409722 0,0.6614583 0,-0.1102431 0,-0.2204861 0,-0.3307292 0.1102431,0 0.2204861,0 0.3307292,0 0,0.1102431 0,0.2204861 0,0.3307292 0.1102431,0 0.2204861,0 0.3307292,0 0,0.2204861 0,0.4409723 0,0.6614584 0.110243,0 0.2204861,0 0.3307291,0 0,0.2204861 0,0.4409722 0,0.6614583 -0.2204861,0 -0.4409722,0 -0.6614583,0 0,-0.2204861 0,-0.4409722 0,-0.6614583 -0.1102431,0 -0.2204861,0 -0.3307292,0 0,-0.2204861 0,-0.4409723 0,-0.6614584 -0.2204861,0 -0.4409722,0 -0.6614583,0 0,0.2204861 0,0.4409723 0,0.6614584 -0.110243,0 -0.2204861,0 -0.3307291,0 0,0.2204861 0,0.4409722 0,0.6614583 -0.2204861,0 -0.4409723,0 -0.6614584,0 0,0.6614583 0,1.3229167 0,1.984375 0.8819444,0 1.7638889,0 2.6458333,0 0,-0.6614583 0,-1.3229167 0,-1.984375 0.2204861,0 0.4409722,0 0.6614583,0 z"
       style="fill:#737373;fill-opacity:1;fill-rule:evenodd;stroke:none;stroke-width:0.26499999;stroke-miterlimit:4;stroke-dasharray:none;stroke-opacity:1;shape-rendering:crispEdges" />
  </g>
</svg>
