<?xml version="1.0" standalone="no"?>
<!DOCTYPE svg PUBLIC "-//W3C//DTD SVG 20010904//EN"
 "http://www.w3.org/TR/2001/REC-SVG-20010904/DTD/svg10.dtd">
<svg version="1.0" xmlns="http://www.w3.org/2000/svg"
 width="120.000000pt" height="95.000000pt" viewBox="0 0 1280.000000 1024.000000"
 preserveAspectRatio="xMidYMid meet">
<metadata>
Created by potrace 1.15, written by Peter Selinger 2001-2017
</metadata>
<g transform="translate(0.000000,1024.000000) scale(0.100000,-0.100000)"
fill="#000000" stroke="none">
<path d="M1895 10230 c-202 -8 -288 -24 -488 -90 -234 -78 -486 -220 -707
-398 -279 -226 -531 -545 -610 -773 l-29 -83 21 -23 c11 -12 33 -25 48 -28
l28 -6 -30 -82 c-43 -115 -73 -229 -100 -370 l-23 -122 -3 -3120 c-2 -2172 0
-3154 8 -3233 70 -738 519 -1381 1185 -1698 137 -65 247 -104 406 -143 223
-56 314 -61 1036 -61 l653 0 0 226 0 226 29 -31 c25 -26 36 -31 78 -31 58 0
139 -43 174 -92 20 -28 24 -47 27 -138 2 -58 7 -108 11 -113 4 -4 51 6 105 23
355 109 651 405 775 775 59 177 61 206 61 1018 l0 737 79 0 c64 0 83 4 105 21
l26 20 0 679 0 679 -26 20 c-22 17 -41 21 -105 21 l-79 0 0 1335 0 1335 85 0
c139 0 125 -78 125 718 0 634 -1 680 -17 695 -13 11 -43 16 -103 19 l-85 3 -6
470 -5 470 -28 103 c-128 477 -475 809 -954 913 -86 18 -141 21 -484 26 l-388
6 6 37 c10 63 2 65 -331 66 -159 1 -371 -2 -470 -6z m1120 -1075 l0 -70 -260
0 -260 0 -3 58 c-2 35 2 64 9 73 10 12 55 14 263 12 l251 -3 0 -70z m-1107
-801 c445 -91 722 -539 601 -973 -94 -343 -398 -573 -754 -573 -313 0 -575
167 -709 453 -102 215 -99 458 8 673 159 318 510 491 854 420z m-86 -2445
c152 -33 261 -144 289 -297 28 -147 -60 -314 -198 -379 -220 -102 -463 21
-513 260 -37 182 85 366 275 413 65 16 83 16 147 3z m-702 -795 c70 -31 151
-111 183 -181 17 -39 22 -67 22 -143 0 -82 -4 -103 -26 -151 -36 -76 -86 -129
-161 -170 -60 -32 -68 -34 -163 -34 -87 0 -107 3 -157 27 -73 34 -137 98 -174
174 -25 52 -29 70 -29 149 0 77 4 98 27 147 87 186 294 265 478 182z m1566 2
c75 -34 139 -97 177 -175 29 -60 32 -74 32 -156 -1 -78 -5 -98 -30 -149 -36
-76 -100 -140 -173 -174 -50 -24 -69 -27 -157 -27 -84 0 -107 4 -147 24 -71
34 -130 92 -169 163 -32 60 -34 68 -34 163 0 88 3 106 27 155 47 96 142 174
245 200 59 14 170 3 229 -24z m-801 -801 c71 -34 136 -100 172 -173 25 -50 28
-68 28 -152 0 -82 -4 -103 -27 -152 -34 -73 -103 -142 -176 -176 -49 -23 -70
-27 -152 -27 -84 0 -102 3 -152 28 -74 36 -139 101 -175 175 -25 50 -28 68
-28 152 0 83 3 102 27 150 47 96 143 176 242 201 61 16 183 3 241 -26z m691
-1176 l29 -30 3 -217 c4 -237 -2 -278 -45 -311 -24 -20 -39 -21 -265 -21 -145
0 -247 4 -259 10 -44 24 -49 55 -49 305 l0 237 29 29 29 29 249 0 249 0 30
-31z"/>
<path d="M10162 10231 c-51 -9 -64 -25 -57 -67 l5 -32 -377 -5 c-413 -5 -481
-12 -645 -67 -178 -60 -337 -159 -473 -295 -177 -176 -281 -365 -342 -620 -13
-58 -17 -151 -22 -535 l-6 -465 -85 -3 c-60 -3 -90 -8 -102 -19 -17 -15 -18
-61 -18 -694 l0 -678 22 -21 c18 -17 35 -20 105 -20 l83 0 0 -1335 0 -1335
-79 0 c-64 0 -83 -4 -105 -21 l-26 -20 0 -679 0 -679 26 -20 c22 -17 41 -21
105 -21 l78 0 3 -778 3 -777 33 -120 c109 -407 418 -738 798 -855 53 -17 100
-30 105 -30 5 0 9 44 9 98 0 82 4 105 23 142 30 61 111 110 180 110 40 0 53 5
78 29 l29 29 0 -224 0 -225 718 4 c680 4 723 5 829 25 592 112 1073 427 1394
911 163 245 266 506 322 814 l22 122 0 3175 c0 2545 -3 3193 -13 3265 -18 127
-59 294 -98 403 -19 51 -34 97 -34 102 0 5 11 12 24 16 13 3 34 16 46 29 l21
22 -25 73 c-97 277 -401 637 -744 880 -261 185 -537 308 -817 365 -113 23
-146 25 -535 29 -228 3 -435 2 -458 -3z m-40 -918 l3 -98 90 -5 90 -5 0 -70 0
-70 -92 -3 -92 -3 -3 -82 -3 -82 -64 -3 c-45 -2 -67 1 -72 10 -5 7 -9 45 -9
85 l0 72 -87 3 -88 3 -3 73 -3 72 91 0 90 0 0 93 c0 52 3 97 7 100 3 4 37 7
74 7 l68 0 3 -97z m1100 -621 c205 -101 267 -356 130 -537 -105 -140 -289
-183 -446 -106 -214 105 -268 384 -109 561 42 47 110 91 173 111 14 5 61 7
105 6 68 -2 91 -7 147 -35z m-789 -780 c75 -35 139 -98 175 -172 24 -49 27
-67 27 -155 0 -95 -2 -103 -34 -163 -39 -72 -88 -120 -163 -159 -48 -25 -63
-28 -153 -28 -88 0 -107 3 -157 27 -73 34 -137 98 -174 174 -25 52 -29 70 -29
149 0 78 4 98 29 152 44 97 141 177 243 203 66 16 168 4 236 -28z m1562 4 c76
-34 139 -97 178 -175 29 -60 32 -74 32 -156 -1 -78 -5 -98 -30 -149 -36 -76
-100 -140 -173 -174 -50 -24 -69 -27 -157 -27 -90 0 -105 3 -153 28 -75 39
-124 87 -163 159 -32 60 -34 68 -34 163 0 89 3 106 28 157 87 177 297 254 472
174z m-851 -761 c58 -10 126 -47 175 -96 142 -142 142 -366 0 -508 -84 -83
-204 -122 -313 -101 -126 25 -216 94 -269 208 -27 57 -31 78 -31 147 0 69 4
90 31 147 53 112 149 187 265 207 53 9 66 8 142 -4z m101 -1622 c174 -38 347
-152 450 -298 157 -221 194 -476 106 -726 -41 -116 -86 -184 -191 -289 -81
-82 -109 -103 -190 -142 -138 -68 -200 -82 -355 -82 -154 0 -218 14 -350 79
-153 76 -274 197 -350 350 -96 196 -109 394 -39 603 127 378 518 593 919 505z
m-775 -2468 l0 -145 130 0 130 0 0 39 c0 48 -12 53 -108 50 l-67 -3 -3 104 -3
103 36 -6 c93 -15 191 -91 242 -189 25 -48 28 -63 28 -153 0 -90 -3 -105 -28
-153 -15 -29 -44 -70 -63 -92 -41 -45 -143 -100 -186 -100 l-28 0 0 145 0 145
-131 0 -130 0 3 -42 3 -43 88 -3 87 -3 0 -99 0 -100 -27 0 c-16 0 -50 11 -78
24 -197 93 -265 337 -145 518 49 74 159 145 228 147 22 1 22 0 22 -144z"/>
</g>
</svg>
