<?xml version="1.0" standalone="no"?>
<!DOCTYPE svg PUBLIC "-//W3C//DTD SVG 20010904//EN"
 "http://www.w3.org/TR/2001/REC-SVG-20010904/DTD/svg10.dtd">
<svg version="1.0" xmlns="http://www.w3.org/2000/svg"
 width="860.000000pt" height="251.000000pt" viewBox="0 0 860.000000 251.000000"
 preserveAspectRatio="xMidYMid meet">

<g transform="translate(0.000000,251.000000) scale(0.100000,-0.100000)"
fill="#FF0000" stroke="none">
<path d="M646 2079 c-145 -34 -281 -172 -315 -320 -14 -59 -14 -949 0 -1008
28 -123 114 -228 238 -289 l75 -37 240 0 241 0 3 833 2 832 -222 -1 c-123 -1
-240 -5 -262 -10z m339 -824 l0 -700 -145 0 c-119 0 -154 3 -195 19 -65 25
-137 94 -166 159 -24 52 -24 55 -27 482 -4 525 -1 551 85 646 71 78 137 98
323 96 l125 -2 0 -700z"/>
<path d="M670 1728 c-64 -33 -85 -67 -85 -138 0 -66 18 -99 76 -138 28 -20 43
-23 87 -20 120 10 184 122 130 228 -25 48 -89 90 -138 90 -14 0 -46 -10 -70
-22z"/>
<path d="M1295 2078 c-3 -7 -4 -382 -3 -833 l3 -820 160 -3 c125 -2 174 1 223
14 73 19 163 74 211 129 45 52 89 148 101 221 13 77 13 861 0 938 -20 121 -91
233 -191 296 -88 57 -150 70 -335 70 -123 0 -166 -3 -169 -12z m383 -754 c116
-48 148 -180 63 -265 -71 -71 -164 -71 -233 1 -63 67 -61 165 5 228 52 51 104
62 165 36z"/>
<path d="M7626 2055 c-137 -49 -204 -208 -142 -340 79 -171 316 -195 426 -43
143 196 -56 464 -284 383z m182 -139 c34 -34 37 -41 37 -97 0 -58 -2 -62 -42
-100 -37 -34 -48 -39 -90 -39 -83 0 -143 58 -143 139 0 88 64 145 153 138 40
-4 56 -11 85 -41z"/>
<path d="M2447 2053 c-4 -3 -7 -109 -7 -235 l0 -228 50 0 49 0 3 148 3 147
110 -147 109 -148 48 0 48 0 -2 233 -3 232 -45 0 -45 0 -5 -144 -5 -144 -104
139 c-57 76 -109 142 -115 146 -14 10 -80 10 -89 1z"/>
<path d="M3220 1826 l0 -236 50 0 50 0 -2 233 -3 232 -47 3 -48 3 0 -235z"/>
<path d="M3677 2054 c-4 -4 -7 -110 -7 -236 l0 -228 50 0 49 0 3 147 3 147
110 -147 109 -147 48 0 48 0 -2 233 -3 232 -45 0 -45 0 -5 -145 -5 -145 -110
145 c-107 141 -111 145 -150 148 -23 2 -44 0 -48 -4z"/>
<path d="M4427 2054 c-4 -4 -7 -27 -7 -50 l0 -43 73 -3 72 -3 3 -182 2 -183
50 0 50 0 2 183 3 182 73 3 73 3 -3 47 -3 47 -191 3 c-104 1 -193 -1 -197 -4z"/>
<path d="M5167 2054 c-4 -4 -7 -110 -7 -236 l0 -228 183 2 182 3 0 40 0 40
-132 3 -133 3 0 49 0 49 123 3 122 3 3 43 3 42 -126 0 -126 0 3 48 3 47 133 3
133 3 -3 42 -3 42 -176 3 c-96 1 -178 -1 -182 -4z"/>
<path d="M5910 1826 l0 -236 45 0 45 0 0 145 c0 80 3 145 8 145 4 0 56 -65
116 -145 l108 -145 49 0 49 0 -2 233 -3 232 -45 0 -45 0 -5 -145 -5 -144 -110
144 -110 145 -48 3 -47 3 0 -235z"/>
<path d="M6724 2047 c-2 -7 -3 -111 -2 -232 l3 -220 136 0 c134 0 136 0 185
30 30 19 60 49 79 79 41 66 43 158 5 226 -33 58 -96 105 -160 119 -73 16 -239
14 -246 -2z m263 -112 c42 -25 63 -65 63 -120 0 -42 -5 -52 -39 -86 -38 -38
-40 -39 -115 -39 l-76 0 0 128 c0 71 3 132 8 136 12 14 128 -1 159 -19z"/>
<path d="M6443 1365 c-77 -21 -112 -38 -170 -82 -285 -215 -239 -647 84 -801
71 -33 87 -37 178 -40 115 -5 190 15 279 72 55 35 126 108 125 129 0 12 -120
117 -133 117 -4 0 -20 -16 -37 -35 -37 -42 -118 -83 -180 -91 -103 -14 -221
49 -274 146 -25 46 -29 66 -29 125 1 83 17 126 71 185 53 60 121 90 203 90 81
0 139 -25 200 -86 l46 -44 67 56 c37 32 67 63 67 70 0 23 -105 118 -161 146
-111 56 -231 71 -336 43z"/>
<path d="M2738 1358 c-210 -20 -346 -142 -324 -290 18 -123 112 -178 388 -228
64 -11 137 -28 162 -36 71 -24 95 -73 60 -122 -54 -77 -273 -90 -443 -26 -36
14 -73 27 -81 30 -10 3 -27 -17 -53 -66 -21 -38 -36 -74 -33 -79 10 -16 133
-60 216 -77 101 -20 306 -15 385 10 72 22 140 69 172 117 23 35 29 55 31 119
3 58 0 85 -13 110 -47 91 -160 143 -408 190 -156 29 -215 68 -189 124 19 43
66 60 178 64 82 3 117 0 185 -18 123 -32 116 -35 149 44 22 52 27 72 18 78
-28 17 -173 49 -250 56 -46 4 -113 4 -150 0z"/>
<path d="M3325 1329 c10 -31 245 -853 245 -857 0 -1 48 -1 108 0 l107 3 79
277 c44 153 82 275 85 272 3 -3 40 -128 82 -277 l76 -272 108 0 108 0 117 412
c65 227 121 424 124 438 l7 26 -97 -3 -97 -3 -80 -300 c-44 -165 -82 -302 -85
-305 -7 -7 -8 -3 -102 315 l-85 290 -78 3 c-73 3 -78 2 -86 -20 -5 -13 -46
-151 -91 -306 -46 -155 -86 -282 -89 -282 -3 0 -42 136 -86 303 l-80 302 -98
3 c-97 3 -98 2 -92 -19z"/>
<path d="M4790 910 l0 -441 98 3 97 3 0 435 0 435 -97 3 -98 3 0 -441z"/>
<path d="M5202 1258 l3 -93 138 -3 137 -3 0 -344 0 -345 95 0 95 0 0 345 0
344 138 3 137 3 3 93 3 92 -376 0 -376 0 3 -92z"/>
<path d="M7150 910 l0 -440 90 0 90 0 0 175 0 175 205 0 205 0 0 -175 0 -175
90 0 90 0 0 440 0 440 -90 0 -90 0 -2 -172 -3 -173 -200 0 -200 0 -3 173 -2
172 -90 0 -90 0 0 -440z"/>
</g>
</svg>
