<?xml version="1.0" standalone="no"?>
<!DOCTYPE svg PUBLIC "-//W3C//DTD SVG 20010904//EN"
 "http://www.w3.org/TR/2001/REC-SVG-20010904/DTD/svg10.dtd">
<svg version="1.0" xmlns="http://www.w3.org/2000/svg"
 width="404.000000pt" height="134.000000pt" viewBox="0 0 1024.000000 340.000000"
 preserveAspectRatio="xMidYMid meet">

<g transform="translate(0.000000,340.000000) scale(0.100000,-0.100000)"
fill="#FF0000" stroke="none">
<path d="M0 1700 l0 -1700 5120 0 5120 0 0 1700 0 1700 -5120 0 -5120 0 0
-1700z m1540 70 l0 -1260 -323 0 c-367 0 -415 7 -550 77 -103 53 -222 173
-270 273 -73 151 -71 122 -75 845 -3 682 1 792 39 902 65 195 272 370 484 413
22 4 187 8 368 9 l327 1 0 -1260z m814 1240 c208 -53 383 -212 451 -407 14
-38 29 -109 35 -159 14 -122 13 -1269 -1 -1370 -37 -265 -227 -478 -485 -544
-66 -17 -111 -20 -321 -20 l-243 0 0 1260 0 1260 243 0 c210 0 255 -3 321 -20z
m7169 -366 c65 -22 139 -91 167 -156 18 -39 24 -71 23 -123 0 -89 -27 -149
-94 -209 -145 -130 -368 -87 -454 87 -34 72 -36 172 -5 246 27 62 102 133 163
154 56 20 143 21 200 1z m-6064 -5 c25 -9 60 -48 152 -172 l119 -161 0 167 0
167 60 0 60 0 0 -270 c0 -303 4 -290 -73 -274 -39 9 -49 18 -167 176 l-125
167 -3 -169 -2 -169 -30 -6 c-33 -7 -71 2 -82 19 -4 6 -8 124 -8 263 0 230 2
253 18 262 22 14 42 13 81 0z m1432 -4 c5 -4 65 -79 132 -168 l122 -162 5 165
5 165 36 9 c71 18 69 27 69 -272 l0 -269 -31 -7 c-42 -8 -91 15 -119 55 -13
19 -66 92 -119 163 l-96 130 -3 -169 c-2 -120 -6 -171 -15 -177 -22 -14 -67
-8 -87 12 -19 19 -20 33 -20 273 0 140 3 257 8 261 8 9 96 1 113 -9z m2548 9
c27 -6 52 -33 156 -171 l125 -165 2 169 3 168 48 -1 c26 0 52 -5 57 -10 5 -5
11 -122 12 -274 l3 -265 -43 -3 c-27 -2 -53 3 -67 12 -12 8 -76 87 -141 175
l-119 160 -3 -170 -2 -169 -60 0 -60 0 0 268 c0 148 3 272 7 275 8 9 41 9 82
1z m1170 -20 c74 -22 151 -99 171 -169 29 -105 9 -199 -58 -268 -70 -73 -97
-81 -274 -85 l-158 -4 0 269 c0 149 3 273 8 278 12 12 253 -3 311 -21z m-4229
-254 l0 -271 -62 3 -63 3 -3 268 -2 267 65 0 65 0 0 -270z m1720 210 l0 -60
-80 0 -80 0 0 -210 0 -210 -65 0 -65 0 0 210 0 210 -85 0 -85 0 0 60 0 60 230
0 230 0 0 -60z m818 19 c5 -63 -9 -69 -168 -69 l-138 0 -6 -34 c-12 -65 -9
-66 145 -66 l139 0 0 -55 0 -55 -140 0 -140 0 0 -55 0 -55 150 0 150 0 0 -55
0 -55 -210 0 -210 0 0 270 0 270 213 -2 212 -3 3 -36z m1316 -754 c102 -27
167 -64 244 -141 39 -39 72 -76 72 -80 0 -5 -38 -41 -83 -80 l-84 -72 -41 48
c-62 72 -136 105 -237 105 -104 0 -167 -27 -234 -101 -57 -62 -81 -123 -81
-204 0 -90 25 -146 94 -216 77 -77 135 -99 240 -92 88 6 155 38 214 102 23 25
45 46 47 46 3 0 41 -32 85 -71 l80 -70 -32 -45 c-33 -47 -109 -110 -167 -139
-208 -105 -454 -73 -620 81 -309 286 -202 785 198 921 80 27 217 31 305 8z
m-4278 -16 c82 -14 197 -48 211 -62 9 -9 4 -30 -20 -89 -18 -42 -35 -79 -39
-83 -3 -3 -50 6 -104 22 -84 23 -118 28 -224 28 -115 0 -129 -2 -169 -25 -57
-32 -72 -70 -44 -108 17 -22 43 -32 189 -68 350 -85 428 -120 477 -214 26 -50
29 -62 25 -135 -8 -154 -83 -236 -263 -292 -48 -14 -93 -18 -220 -18 -169 0
-255 16 -380 67 -83 35 -83 35 -35 122 23 42 45 78 50 81 4 3 55 -11 112 -30
137 -45 230 -59 326 -45 127 17 192 58 194 121 2 62 -49 86 -267 129 -224 43
-301 71 -371 133 -74 64 -99 188 -56 273 41 80 150 158 265 189 63 17 259 19
343 4z m648 -31 c7 -18 51 -176 97 -350 46 -175 87 -314 91 -310 4 4 50 153
102 332 52 179 97 333 101 343 6 14 21 17 97 17 l89 0 13 -32 c8 -18 56 -178
107 -355 51 -178 96 -317 100 -310 3 6 46 161 94 342 48 182 92 336 97 343 7
8 44 12 120 12 100 0 109 -2 104 -17 -3 -10 -67 -234 -141 -498 -75 -264 -142
-486 -150 -494 -10 -10 -42 -13 -127 -12 -62 1 -116 5 -120 9 -4 4 -46 147
-95 319 -48 172 -89 310 -92 308 -2 -3 -43 -143 -91 -312 -66 -232 -92 -310
-106 -318 -12 -7 -58 -9 -129 -5 l-110 5 -17 55 c-27 89 -268 945 -268 953 0
4 50 7 111 7 l110 0 13 -32z m1686 -478 l0 -510 -115 0 -115 0 0 503 c0 277 3
507 7 510 3 4 55 7 115 7 l108 0 0 -510z m1110 400 l0 -110 -155 0 -155 0 0
-400 0 -400 -115 0 -115 0 0 400 0 400 -165 0 -165 0 0 103 c0 57 3 107 7 110
3 4 199 7 435 7 l428 0 0 -110z m1595 -80 c0 -102 4 -191 8 -197 11 -18 428
-18 445 -1 8 8 12 67 12 200 l0 188 105 0 105 0 0 -510 0 -510 -105 0 -105 0
0 200 0 200 -230 0 -230 0 0 -200 0 -200 -109 0 c-104 0 -109 1 -115 23 -8 31
-8 982 1 991 4 3 54 5 112 4 l106 -3 0 -185z m859 -696 c22 -8 20 -21 -4 -29
-15 -5 -20 -15 -20 -43 0 -20 -5 -44 -10 -52 -9 -13 -11 -13 -20 0 -5 8 -10
30 -10 49 0 20 -7 39 -17 46 -9 7 -13 17 -9 23 8 13 64 16 90 6z m116 -32 c10
21 22 33 35 33 17 0 20 -8 23 -50 2 -33 -2 -57 -12 -70 -15 -19 -15 -18 -16
20 -2 38 -2 39 -13 15 -25 -54 -29 -55 -54 -24 l-23 29 0 -28 c0 -53 -25 -24
-28 33 -5 82 4 92 41 47 l31 -38 16 33z"/>
<path d="M880 2809 c-78 -15 -164 -65 -223 -129 -67 -72 -104 -146 -117 -237
-11 -76 -12 -887 -1 -1203 6 -194 8 -208 33 -263 33 -70 121 -164 186 -200 88
-48 148 -57 369 -57 l203 0 0 1050 0 1050 -202 -1 c-112 -1 -223 -5 -248 -10z
m168 -315 c87 -36 144 -123 145 -220 2 -248 -328 -333 -446 -115 -68 123 -15
280 113 335 46 20 141 20 188 0z"/>
<path d="M2194 1876 c-86 -38 -154 -139 -154 -231 0 -93 69 -195 156 -231 51
-21 146 -18 199 7 78 37 145 140 145 224 0 43 -30 121 -62 159 -61 75 -198
109 -284 72z"/>
<path d="M9352 2513 c-79 -39 -110 -160 -59 -233 72 -106 236 -86 282 34 52
135 -92 264 -223 199z"/>
<path d="M8410 2369 l0 -152 83 5 c95 5 133 24 161 82 54 115 -28 216 -176
216 l-68 0 0 -151z"/>
</g>
</svg>
