<?xml version="1.0" encoding="UTF-8" standalone="no"?>
<svg
   xmlns:dc="http://purl.org/dc/elements/1.1/"
   xmlns:cc="http://creativecommons.org/ns#"
   xmlns:rdf="http://www.w3.org/1999/02/22-rdf-syntax-ns#"
   xmlns:svg="http://www.w3.org/2000/svg"
   xmlns="http://www.w3.org/2000/svg"
   xmlns:sodipodi="http://sodipodi.sourceforge.net/DTD/sodipodi-0.dtd"
   xmlns:inkscape="http://www.inkscape.org/namespaces/inkscape"
   viewBox="-7679.631 -7915.22 500 366.49023"
   version="1.1"
   id="svg110"
   sodipodi:docname="consolegame.svg"
   width="500"
   height="366.49023"
   inkscape:version="0.92.4 5da689c313, 2019-01-14">
  <metadata
     id="metadata116">
    <rdf:RDF>
      <cc:Work
         rdf:about="">
        <dc:format>image/svg+xml</dc:format>
        <dc:type
           rdf:resource="http://purl.org/dc/dcmitype/StillImage" />
      </cc:Work>
    </rdf:RDF>
  </metadata>
  <defs
     id="defs114" />
  <sodipodi:namedview
     pagecolor="#ffffff"
     bordercolor="#666666"
     borderopacity="1"
     objecttolerance="10"
     gridtolerance="10"
     guidetolerance="10"
     inkscape:pageopacity="0"
     inkscape:pageshadow="2"
     inkscape:window-width="640"
     inkscape:window-height="480"
     id="namedview112"
     showgrid="false"
     inkscape:zoom="0.542"
     inkscape:cx="249.99985"
     inkscape:cy="183.24494"
     inkscape:window-x="0"
     inkscape:window-y="0"
     inkscape:window-maximized="0"
     inkscape:current-layer="svg110" />
  <path
     d="m -7338.1808,-7747.7556 c 5.7196,1.9272 10.9721,7.303 10.9721,15.6866 v 4.0519 c -0.01,1.2675 0.2118,2.4189 0.6817,3.5877 0.2552,0.615 0.6322,1.1574 0.7251,1.8505 0.084,0.6526 1.0557,6.4504 1.0557,14.8819 v 135.0306 c 0,11.6597 -9.1827,21.2512 -20.8305,21.7501 -26.2543,1.1515 -52.5117,2.2827 -78.7862,1.7315 -0.5946,-0.01 -1.3806,-0.041 -2.2014,-0.1798 -2.1667,-0.351 -4.3332,-0.7222 -6.494,-1.1311 -0.8237,-0.1596 -2.5002,-0.2378 -2.5002,-0.2378 h -132.2273 c 0,0 -1.6662,0.078 -2.4914,0.2378 -2.165,0.4089 -4.3302,0.7801 -6.5013,1.1311 -0.8106,0.1392 -1.5923,0.1712 -2.1999,0.1798 -26.2702,0.5512 -52.5375,-0.58 -78.7948,-1.7315 -11.6508,-0.4989 -20.8408,-10.0904 -20.832,-21.7501 l 0.013,-135.0306 c 0,-8.4314 0.9614,-14.2293 1.0383,-14.8819 0.096,-0.6931 0.4699,-1.2355 0.7223,-1.8504 0.4842,-1.1689 0.7004,-2.3203 0.6887,-3.5877 v -4.0504 c 0,-8.3793 5.2455,-13.758 10.978,-15.6882 v -152.8754 c 0,-7.8876 6.3998,-14.2844 14.2758,-14.2844 h 298.421 c 7.889,0 14.2873,6.3968 14.2873,14.2844 v 152.8754"
     id="path2"
     inkscape:connector-curvature="0"
     style="fill:#f1f1f2" />
  <path
     d="m -7665.3997,-7747.7644 c -5.7269,1.9245 -10.9722,7.3003 -10.9722,15.6926 v 4.0431 c 0,0.8294 -0.1001,1.6068 -0.2987,2.3783 h -1.6432 c -0.9614,0 -1.2443,-0.6148 -1.2384,-1.7402 l 0.3423,-9.8178 c 0,-8.91 5.9835,-14.4236 13.8102,-14.5948 v 4.0388 m 326.9724,-0.01 v -4.0155 c 7.8339,0.1595 13.8202,5.6732 13.8202,14.5803 l 0.3366,9.8178 c 0.01,1.1254 -0.2814,1.7402 -1.2355,1.7402 h -1.6476 c -0.1913,-0.7715 -0.2958,-1.5489 -0.287,-2.3783 v -4.0431 c 0,-8.3953 -5.2468,-13.7712 -10.9867,-15.7014"
     id="path4"
     inkscape:connector-curvature="0"
     style="fill:#58595b" />
  <path
     d="m -7665.162,-7739.2678 c 0,5.1062 4.0301,9.2988 9.126,9.522 26.0615,1.108 52.1303,1.6533 78.2148,1.6533 v -25.2797 h 152.3039 v 25.2797 c 26.0889,0 52.1606,-0.5569 78.2234,-1.6619 5.0816,-0.2176 9.1131,-4.41 9.1131,-9.5134 v -161.3633 c 0,-7.8875 -6.3926,-14.2843 -14.2874,-14.2843 h -298.421 c -7.8759,0 -14.2758,6.3968 -14.2758,14.2843 v 161.3633 z"
     id="path6"
     inkscape:connector-curvature="0"
     style="fill:none;stroke:#231f20;stroke-width:0.40094888" />
  <path
     d="m -7359.1041,-7639.0098 c 0,4.7885 -3.8867,8.6778 -8.6752,8.6778 -4.7914,0 -8.675,-3.8894 -8.675,-8.6778 0,-4.7857 3.8836,-8.6781 8.675,-8.6781 4.7885,0 8.6752,3.8865 8.6752,8.6781"
     id="path8"
     inkscape:connector-curvature="0"
     style="fill:#77787b" />
  <path
     d="m -7367.7794,-7647.6851 c 4.7916,0 8.6752,3.8837 8.6752,8.6753 0,4.7914 -3.8837,8.6778 -8.6752,8.6778 -4.7914,0 -8.675,-3.8865 -8.675,-8.6778 0,-4.7916 3.8836,-8.6753 8.675,-8.6753 z"
     id="path10"
     inkscape:connector-curvature="0"
     style="fill:none;stroke:#231f20;stroke-width:0.40094888" />
  <path
     d="m -7359.1041,-7676.6048 c 0,4.7856 -3.8867,8.6721 -8.6752,8.6721 -4.7914,0 -8.6838,-3.8865 -8.6838,-8.6721 0,-4.7886 3.8924,-8.6779 8.6838,-8.6779 4.7885,0 8.6752,3.8865 8.6752,8.6779"
     id="path12"
     inkscape:connector-curvature="0"
     style="fill:#58595b" />
  <path
     d="m -7367.7822,-7685.2828 c 4.7913,0 8.678,3.8837 8.678,8.6779 0,4.7916 -3.8867,8.6781 -8.678,8.6781 -4.7914,0 -8.6779,-3.8865 -8.6779,-8.6781 0,-4.7942 3.8865,-8.6779 8.6779,-8.6779 z"
     id="path14"
     inkscape:connector-curvature="0"
     style="fill:none;stroke:#231f20;stroke-width:0.40094888" />
  <path
     d="m -7340.1502,-7657.8102 c 0,4.7914 -3.8865,8.6722 -8.6838,8.6722 -4.7885,0 -8.675,-3.8808 -8.675,-8.6722 0,-4.7915 3.8865,-8.678 8.675,-8.678 4.7973,0 8.6838,3.8865 8.6838,8.678"
     id="path16"
     inkscape:connector-curvature="0"
     style="fill:#77787b" />
  <path
     d="m -7348.8311,-7666.4911 c 4.7915,0 8.678,3.8865 8.678,8.6809 0,4.7914 -3.8865,8.6779 -8.678,8.6779 -4.7914,0 -8.6779,-3.8866 -8.6779,-8.6779 0,-4.7944 3.8865,-8.6809 8.6779,-8.6809 z"
     id="path18"
     inkscape:connector-curvature="0"
     style="fill:none;stroke:#231f20;stroke-width:0.40094888" />
  <path
     d="m -7377.7827,-7657.8102 c 0,4.7914 -3.8865,8.6722 -8.675,8.6722 -4.7887,0 -8.6723,-3.8808 -8.6723,-8.6722 0,-4.7915 3.8836,-8.678 8.6723,-8.678 4.7885,0 8.675,3.8865 8.675,8.678"
     id="path20"
     inkscape:connector-curvature="0"
     style="fill:#58595b" />
  <path
     d="m -7378.3977,-7639.0098 v -7.135 c 0,-0.6788 -0.2785,-0.9542 -0.9512,-0.9542 h -7.138 c -5.9139,0 -10.7081,-4.7973 -10.7081,-10.7112 0,-5.911 4.7942,-10.7024 10.7081,-10.7024 h 7.138 c 0.6757,0 0.9512,-0.2785 0.9512,-0.9514 v -7.1349 c 0,-5.9139 4.7887,-10.7141 10.7083,-10.7141 5.911,0 10.7052,4.8002 10.7052,10.7141 v 7.1349 c 0,0.6787 0.2815,0.9514 0.9543,0.9514 h 7.1351 c 5.9109,0 10.711,4.7914 10.711,10.7024 0,5.9139 -4.8001,10.7112 -10.711,10.7112 h -7.1351 c -0.6787,0 -0.9543,0.2784 -0.9543,0.9542 v 7.135 c 0,5.9138 -4.7884,10.7111 -10.7052,10.7111 -5.9197,0 -10.7083,-4.7973 -10.7083,-10.7111 z m 0.615,-18.8004 c 0,4.7914 -3.8866,8.6721 -8.675,8.6721 -4.7887,0 -8.6724,-3.8808 -8.6724,-8.6721 0,-4.7916 3.8837,-8.6781 8.6724,-8.6781 4.7884,0 8.675,3.8865 8.675,8.6781 z"
     id="path22"
     inkscape:connector-curvature="0"
     style="fill:none;stroke:#231f20;stroke-width:0.40094888" />
  <path
     d="m -7364.8238,-7704.0598 h 17.4777 c 2.4567,0.01 4.4493,-1.9897 4.4493,-4.4434 0,-2.4596 -1.9926,-4.4435 -4.4493,-4.4348 h -17.4777 c -0.3393,0 -0.4814,0.1363 -0.4814,0.4729 v 7.9237 c 0,0.3423 0.1422,0.4816 0.4814,0.4816"
     id="path24"
     inkscape:connector-curvature="0"
     style="fill:#58595b" />
  <path
     d="m -7364.8239,-7704.0598 h 17.4777 c 2.4568,0.01 4.4493,-1.9897 4.4493,-4.4434 0,-2.4596 -1.9925,-4.4436 -4.4493,-4.4348 h -17.4777 c -0.3392,0 -0.4814,0.1363 -0.4814,0.4728 v 7.9238 c 0,0.3423 0.1422,0.4816 0.4814,0.4816 z"
     id="path26"
     inkscape:connector-curvature="0"
     style="fill:none;stroke:#231f20;stroke-width:0.40094888" />
  <path
     d="m -7370.4564,-7704.0598 h -17.4951 c -2.442,0.01 -4.4433,-1.9897 -4.4433,-4.4434 0,-2.4596 2.0013,-4.4435 4.4433,-4.4348 h 17.4951 c 0.3278,0 0.4785,0.1363 0.4785,0.4729 v 7.9237 c 0,0.3423 -0.1507,0.4816 -0.4785,0.4816"
     id="path28"
     inkscape:connector-curvature="0"
     style="fill:#58595b" />
  <path
     d="m -7347.3461,-7713.7298 h -40.6982 c -2.8801,0 -5.2381,2.3378 -5.2381,5.2294 0,2.8975 2.358,5.2467 5.2381,5.2467 h 40.6982 c 2.8888,0 5.2381,-2.3492 5.2381,-5.2467 0,-2.8916 -2.3493,-5.2294 -5.2381,-5.2294 z m -23.1103,9.67 h -17.4951 c -2.4421,0.01 -4.4434,-1.9897 -4.4434,-4.4434 0,-2.4596 2.0013,-4.4436 4.4434,-4.4348 h 17.4951 c 0.3278,0 0.4785,0.1363 0.4785,0.4728 v 7.9238 c 0,0.3423 -0.1507,0.4816 -0.4785,0.4816 z"
     id="path30"
     inkscape:connector-curvature="0"
     style="fill:none;stroke:#231f20;stroke-width:0.40094888" />
  <path
     d="m -7573.0544,-7565.1514 c 0,0.3886 -0.3146,0.7106 -0.712,0.7106 h -1.4501 c -0.3888,0 -0.7092,-0.322 -0.7092,-0.7106 v -5.6296 c 0,-0.3888 0.3204,-0.7049 0.7092,-0.7049 h 1.4501 c 0.3974,0 0.712,0.3161 0.712,0.7049 v 5.6296 m 137.0551,0 c 0,0.3886 -0.3191,0.7106 -0.7136,0.7106 h -1.4385 c -0.3945,0 -0.7135,-0.322 -0.7135,-0.7106 v -5.6296 c 0,-0.3888 0.319,-0.7049 0.7135,-0.7049 h 1.4385 c 0.3945,0 0.7136,0.3161 0.7136,0.7049 v 5.6296 m 8.5967,0 c 0,0.3886 -0.3248,0.7106 -0.7134,0.7106 h -1.4444 c -0.4002,0 -0.7223,-0.322 -0.7223,-0.7106 v -5.6296 c 0,-0.3888 0.3221,-0.7049 0.7223,-0.7049 h 1.4385 c 0.3945,0 0.7164,0.3161 0.7164,0.7049 v 5.6296"
     id="path32"
     inkscape:connector-curvature="0"
     style="fill:#4c4c4e" />
  <path
     d="m -7662.5226,-7649.1003 c -2.2507,-5.5892 -2.2507,-11.8308 0,-17.4226 0.303,-0.7542 0.7309,-1.05 1.5473,-1.05 h 14.6223 c 0.667,0 0.9498,-0.2784 0.947,-0.9456 v -14.6093 c 0,-0.8208 0.2886,-1.25 1.0485,-1.5546 5.5919,-2.242 11.8322,-2.242 17.4256,0 0.7569,0.3105 1.0441,0.7338 1.0441,1.5546 v 14.6093 c 0,0.6701 0.2741,0.9456 0.9512,0.9456 h 14.6181 c 0.8136,0 1.2384,0.2958 1.5416,1.05 2.2608,5.5918 2.2608,11.8334 0,17.4226 -0.3061,0.7599 -0.728,1.047 -1.5416,1.047 h -14.6181 c -0.6771,0 -0.9512,0.2785 -0.9512,0.9512 v 14.6181 c 0,0.8064 -0.2872,1.2355 -1.0441,1.5313 -5.5934,2.2681 -11.8337,2.2681 -17.4256,0 -0.76,-0.2958 -1.0485,-0.7249 -1.0485,-1.5313 v -14.6181 c 0,-0.6786 -0.28,-0.9512 -0.947,-0.9512 h -14.6223 c -0.8164,0 -1.2443,-0.2871 -1.5473,-1.047 z m 16.9441,-1.0935 c 1.3573,0 2.3116,0.9513 2.3116,2.3145 m 206.5599,-95.8348 v -9.6582 m -12.1295,9.6582 v -9.6582 m -52.8335,9.6582 v -9.6582 m -64.9659,9.6582 v -9.6582 m 116.7669,3.8677 v 21.4121 h -50.77 v -21.4121 z m 23.3307,21.795 v -23.4729 h -9.0955 v 23.4729 z m -150.4533,0 v -23.4729 h 9.29 v 23.4729 z m 238.8108,-20.0461 c 5.7195,1.9272 10.9721,7.3031 10.9721,15.6867 v 4.0519 c -0.01,1.2674 0.2117,2.4189 0.6817,3.5877 0.2552,0.6149 0.6322,1.1574 0.725,1.8505 0.084,0.6525 1.0557,6.4504 1.0557,14.8819 v 135.0306 c 0,11.6597 -9.1826,21.2512 -20.8305,21.7501 -26.2543,1.1515 -52.5116,2.2826 -78.7862,1.7315 -0.5945,-0.01 -1.3805,-0.041 -2.2013,-0.1798 -2.1667,-0.351 -4.3333,-0.7222 -6.494,-1.1311 -0.8237,-0.1596 -2.5002,-0.2378 -2.5002,-0.2378 h -132.2273 c 0,0 -1.6663,0.078 -2.4915,0.2378 -2.165,0.4089 -4.3302,0.7801 -6.5012,1.1311 -0.8106,0.1392 -1.5923,0.1712 -2.1999,0.1798 -26.2703,0.5511 -52.5376,-0.58 -78.7949,-1.7315 -11.6507,-0.4989 -20.8407,-10.0904 -20.832,-21.7501 l 0.013,-135.0306 c 0,-8.4315 0.9615,-14.2293 1.0383,-14.8819 0.096,-0.6931 0.47,-1.2355 0.7223,-1.8505 0.4843,-1.1688 0.7004,-2.3203 0.6888,-3.5877 v -4.0504 c 0,-8.3792 5.2455,-13.758 10.978,-15.6882 m 216.3284,19.6574 v -15.6157 h 12.1295 v 15.6157 z m -117.7994,0 v -15.6157 h 64.9659 v 15.6041 z m 228.4551,-17.762 c 3.9357,2.1057 6.7172,6.1866 6.7172,11.8148 v 160.8367 c 0,6.6217 -6.0008,15.085 -14.9369,15.085 -24.3866,-0.084 -48.7788,-0.058 -73.1711,0.075 -1.978,0.01 -3.962,0.017 -5.94,0.017 h -152.3096 c -1.9838,0 -3.9648,-0.012 -5.9458,-0.017 -24.3835,-0.1334 -48.7787,-0.1623 -73.1651,-0.075 -8.9434,0 -14.9516,-8.4633 -14.9516,-15.085 v -160.8367 c 0,-5.6166 2.7859,-9.7062 6.7246,-11.8089"
     id="path34"
     inkscape:connector-curvature="0"
     style="fill:none;stroke:#231f20;stroke-width:0.40094888" />
  <path
     d="m -7645.5785,-7650.1938 h -13.9088 c -0.8817,0 -1.3211,-0.3191 -1.5908,-1.166 -1.4082,-4.4781 -1.4082,-8.4284 0,-12.9067 0.2697,-0.8412 0.7265,-1.1166 1.5908,-1.1166 l 13.9088,0.015 c 1.3124,0.012 2.3798,-1.0558 2.3739,-2.3725 l -0.019,-13.9046 c 0,-0.8614 0.2712,-1.3196 1.1137,-1.5864 4.4739,-1.4125 8.4286,-1.4125 12.9082,0 0.8397,0.2668 1.1196,0.725 1.1196,1.5864 l -0.02,13.9046 c 0,1.3979 1.0092,2.3144 2.3784,2.3144 h 13.9087 c 0.8875,0 1.3211,0.3133 1.585,1.1603 1.414,4.4782 1.414,8.4285 0,12.9066 -0.261,0.8412 -0.6975,1.166 -1.585,1.166 h -13.9087 c -1.3692,0 -2.3131,0.9513 -2.3131,2.3146 v 13.8986 c 0,0.8933 -0.3221,1.3284 -1.1617,1.5923 -4.4753,1.4126 -8.4344,1.4126 -12.9082,0 -0.8426,-0.2639 -1.1601,-0.699 -1.1601,-1.5923 v -13.8986"
     id="path36"
     inkscape:connector-curvature="0"
     style="fill:#58595b" />
  <path
     d="m -7618.1597,-7703.7467 c 0,0.6672 -0.5396,1.198 -1.1936,1.198 h -32.5989 c -0.6598,0 -1.1935,-0.5308 -1.1935,-1.198 v -9.5161 c 0,-0.6468 0.538,-1.1804 1.1935,-1.1804 h 32.5989 c 0.654,0 1.1936,0.5365 1.1936,1.1804 z m 197.3989,119.2352 h -161.8213 c -1.4692,0 -2.3725,-0.8527 -2.3725,-2.4015 v -133.9575 c 0,-1.4271 1.1673,-2.3842 2.3725,-2.3842 h 161.8213 c 1.7316,0 2.3755,1.1921 2.3755,2.3842 v 133.9575 c 0,1.6473 -1.1689,2.4015 -2.3755,2.4015 z m -207.2588,-73.2987 c 0,4.2288 -3.4312,7.6745 -7.6571,7.6686 -4.2345,0 -7.6657,-3.4341 -7.6657,-7.6686 0,-4.2259 3.4312,-7.6802 7.6657,-7.6688 4.2259,0 7.6571,3.4313 7.6571,7.6688 z m -17.5589,7.6164 h -13.9089 c -0.8816,0 -1.3211,-0.3191 -1.5908,-1.166 -1.4082,-4.4782 -1.4082,-8.4285 0,-12.9067 0.2697,-0.8412 0.7265,-1.1166 1.5908,-1.1166 l 13.9089,0.015 c 1.3124,0.012 2.3798,-1.0558 2.3739,-2.3725 l -0.019,-13.9046 c 0,-0.8614 0.2712,-1.3196 1.1138,-1.5864 4.4739,-1.4126 8.4286,-1.4126 12.9081,0 0.8397,0.2668 1.1197,0.725 1.1197,1.5864 l -0.02,13.9046 c 0,1.3979 1.0093,2.3144 2.3784,2.3144 h 13.9087 c 0.8876,0 1.3211,0.3133 1.5851,1.1602 1.4139,4.4782 1.4139,8.4286 0,12.9067 -0.2611,0.8412 -0.6975,1.166 -1.5851,1.166 h -13.9087 c -1.3691,0 -2.313,0.9513 -2.313,2.3145 v 13.8987 c 0,0.8932 -0.3221,1.3284 -1.1618,1.5923 -4.4752,1.4126 -8.4343,1.4126 -12.9082,0 -0.8425,-0.2639 -1.16,-0.699 -1.16,-1.5923 v -13.8987"
     id="path38"
     inkscape:connector-curvature="0"
     style="fill:none;stroke:#231f20;stroke-width:0.40094888" />
  <path
     d="m -7623.8909,-7704.5761 c 0,0.4003 -0.3249,0.7193 -0.7222,0.7193 h -22.0966 c -0.3987,0 -0.7164,-0.319 -0.7164,-0.7193 v -7.8485 c 0,-0.3944 0.3177,-0.7163 0.7164,-0.7163 h 22.0966 c 0.3974,0 0.7222,0.3219 0.7222,0.7163 v 7.8485"
     id="path40"
     inkscape:connector-curvature="0"
     style="fill:#58595b" />
  <path
     d="m -7623.8909,-7704.5761 c 0,0.4002 -0.3249,0.7192 -0.7223,0.7192 h -22.0966 c -0.3987,0 -0.7164,-0.319 -0.7164,-0.7192 v -7.8485 c 0,-0.3945 0.3177,-0.7164 0.7164,-0.7164 h 22.0966 c 0.3974,0 0.7223,0.3219 0.7223,0.7164 z"
     id="path42"
     inkscape:connector-curvature="0"
     style="fill:none;stroke:#231f20;stroke-width:0.40094888" />
  <path
     d="m -7581.1537,-7894.2066 c -1.9708,0 -3.5689,1.6011 -3.5689,3.5732 v 130.8817 c 0,1.978 1.5981,3.5732 3.5689,3.5732 h 158.9718 c 1.9607,0 3.5618,-1.598 3.5618,-3.5732 v -130.8817 c 0,-1.9721 -1.6011,-3.5732 -3.5618,-3.5732 h -158.9718"
     id="path44"
     inkscape:connector-curvature="0"
     style="fill:#58595b" />
  <path
     d="m -7402.2012,-7751.2985 v -5.4804 c 0,-0.986 0.8006,-1.7822 1.7867,-1.7822 h 5.4788 c 0.9803,0 1.7838,0.799 1.7838,1.7822 v 5.4775 c 0,0.9861 -0.8035,1.7779 -1.7838,1.7779 h -5.4788 c -0.9861,0 -1.7867,-0.7918 -1.7867,-1.775 z m 0,-143.0271 v -5.4787 c 0,-0.9834 0.8006,-1.7824 1.7867,-1.7824 h 5.4788 c 0.9803,0 1.7838,0.802 1.7838,1.7824 v 5.4787 c 0,0.9862 -0.8035,1.7881 -1.7838,1.7881 h -5.4788 c -0.9861,0 -1.7867,-0.8019 -1.7867,-1.7881 z m -207.9811,143.0271 v -5.4804 c 0,-0.986 0.7991,-1.7822 1.7795,-1.7822 h 5.4772 c 0.9848,0 1.7781,0.799 1.7781,1.7822 v 5.4775 c 0,0.9861 -0.7933,1.7779 -1.7781,1.7779 h -5.4772 c -0.9804,0 -1.7795,-0.7918 -1.7795,-1.775 z m 0,-143.0271 v -5.4787 c 0,-0.9834 0.7991,-1.7824 1.7795,-1.7824 h 5.4772 c 0.9848,0 1.7781,0.802 1.7781,1.7824 v 5.4787 c 0,0.9862 -0.7933,1.7881 -1.7781,1.7881 h -5.4772 c -0.9804,0 -1.7795,-0.8019 -1.7795,-1.7881 z m 278.0661,310.4986 c 0,0 -10.7111,0.1247 -16.0594,0.1247 h -55.8237 c -2.7526,0 -5.8357,-1.0644 -5.8357,-4.052 v -132.2636 c 0,-1.7634 1.3952,-4.0403 5.8357,-4.0403 h 55.8237 c 0,0 10.7112,0.038 16.0595,0.1132 0,1.1544 -2.5784,1.3777 -3.727,1.3777 h -66.6945 c -1.2559,0 -1.9896,1.5285 -1.9896,2.2043 v 132.9539 c 0,1.1835 0.8323,2.2044 1.9896,2.2044 h 66.6945 c 2.6016,0 3.7269,0.6932 3.7269,1.3777 z m -339.1106,0 c 0,0 10.7069,0.1247 16.061,0.1247 h 55.8209 c 2.7567,0 5.8342,-1.0644 5.8342,-4.052 v -132.2636 c 0,-1.7634 -1.3908,-4.0403 -5.8342,-4.0403 h -55.8209 c 0,0 -10.7156,0.038 -16.061,0.1132 0,1.1544 2.5683,1.3777 3.7213,1.3777 h 66.7061 c 1.2443,0 1.9837,1.5285 1.9837,2.2043 v 132.9539 c 0,1.1835 -0.828,2.2044 -1.9837,2.2044 h -66.7061 c -2.5987,0 -3.7213,0.6932 -3.7213,1.3777 z m 90.0731,-310.3796 c -1.9708,0 -3.569,1.6011 -3.569,3.5732 v 130.8817 c 0,1.978 1.5982,3.5732 3.569,3.5732 h 158.9717 c 1.9607,0 3.5618,-1.5981 3.5618,-3.5732 v -130.8817 c 0,-1.9721 -1.6011,-3.5732 -3.5618,-3.5732 z"
     id="path46"
     inkscape:connector-curvature="0"
     style="fill:none;stroke:#231f20;stroke-width:0.40094888" />
  <path
     d="m -7643.7397,-7801.8726 c 0,-0.6527 -0.5321,-1.1848 -1.1935,-1.1848 -0.6569,0 -1.1892,0.5321 -1.1892,1.1848 0,0.6655 0.5323,1.1921 1.1892,1.1921 0.6583,0 1.1935,-0.5294 1.1935,-1.1921 m 7.8499,0 c 0,-0.6527 -0.5294,-1.1848 -1.1949,-1.1848 -0.6556,0 -1.1877,0.5321 -1.1877,1.1848 0,0.6655 0.5321,1.1921 1.1877,1.1921 0.6655,0 1.1949,-0.5294 1.1949,-1.1921 m 7.8529,0 c 0,-0.6527 -0.5323,-1.1848 -1.1921,-1.1848 -0.6556,0 -1.1935,0.5321 -1.1935,1.1848 0,0.6655 0.5408,1.1921 1.1935,1.1921 0.6569,0 1.1921,-0.5294 1.1921,-1.1921 m 7.8585,0 c 0,-0.6527 -0.541,-1.1848 -1.1949,-1.1848 -0.6584,0 -1.1907,0.5321 -1.1907,1.1848 0,0.6655 0.5323,1.1921 1.1907,1.1921 0.6539,0 1.1949,-0.5294 1.1949,-1.1921 m 7.8529,0 c 0,-0.6527 -0.541,-1.1848 -1.1921,-1.1848 -0.6672,0 -1.1993,0.5321 -1.1993,1.1848 0,0.6655 0.5321,1.1921 1.1993,1.1921 0.6511,0 1.1921,-0.5294 1.1921,-1.1921 m 7.8397,0 c 0,-0.6527 -0.5308,-1.1848 -1.1848,-1.1848 -0.6598,0 -1.1848,0.5321 -1.1848,1.1848 0,0.6655 0.5292,1.1921 1.1848,1.1921 0.654,0 1.1848,-0.5294 1.1848,-1.1921 m 7.8614,0 c 0,-0.6527 -0.5393,-1.1848 -1.1993,-1.1848 -0.6541,0 -1.1818,0.5321 -1.1818,1.1848 0,0.6655 0.5278,1.1921 1.1818,1.1921 0.66,0 1.1993,-0.5294 1.1993,-1.1921 m -47.1153,10.9416 c 0,-0.6583 -0.5321,-1.1906 -1.1935,-1.1906 -0.6569,0 -1.1892,0.5323 -1.1892,1.1906 0,0.66 0.5323,1.1907 1.1892,1.1907 0.6583,0 1.1935,-0.5279 1.1935,-1.1907 m 7.8499,0 c 0,-0.6583 -0.5294,-1.1906 -1.1949,-1.1906 -0.6556,0 -1.1877,0.5323 -1.1877,1.1906 0,0.66 0.5321,1.1907 1.1877,1.1907 0.6655,0 1.1949,-0.5279 1.1949,-1.1907 m 7.8529,0 c 0,-0.6583 -0.5323,-1.1906 -1.1921,-1.1906 -0.6556,0 -1.1935,0.5323 -1.1935,1.1906 0,0.66 0.5408,1.1907 1.1935,1.1907 0.6569,0 1.1921,-0.5279 1.1921,-1.1907 m 7.8585,0 c 0,-0.6583 -0.541,-1.1906 -1.1949,-1.1906 -0.6584,0 -1.1907,0.5323 -1.1907,1.1906 0,0.66 0.5323,1.1907 1.1907,1.1907 0.6539,0 1.1949,-0.5279 1.1949,-1.1907 m 7.8529,0 c 0,-0.6583 -0.541,-1.1906 -1.1921,-1.1906 -0.6672,0 -1.1993,0.5323 -1.1993,1.1906 0,0.66 0.5321,1.1907 1.1993,1.1907 0.6511,0 1.1921,-0.5279 1.1921,-1.1907 m 7.8397,0 c 0,-0.6583 -0.5308,-1.1906 -1.1848,-1.1906 -0.6598,0 -1.1848,0.5323 -1.1848,1.1906 0,0.66 0.5292,1.1907 1.1848,1.1907 0.654,0 1.1848,-0.5279 1.1848,-1.1907 m 7.8614,0 c 0,-0.6583 -0.5393,-1.1906 -1.1993,-1.1906 -0.6541,0 -1.1818,0.5323 -1.1818,1.1906 0,0.66 0.5278,1.1907 1.1818,1.1907 0.66,0 1.1993,-0.5279 1.1993,-1.1907 m -47.1153,10.9389 c 0,-0.6598 -0.5321,-1.1848 -1.1935,-1.1848 -0.6569,0 -1.1892,0.5279 -1.1892,1.1848 0,0.6598 0.5323,1.1906 1.1892,1.1906 0.6583,0 1.1935,-0.5279 1.1935,-1.1906 m 7.8499,0 c 0,-0.6598 -0.5294,-1.1848 -1.1949,-1.1848 -0.6556,0 -1.1877,0.5279 -1.1877,1.1848 0,0.6598 0.5321,1.1906 1.1877,1.1906 0.6655,0 1.1949,-0.5279 1.1949,-1.1906 m 7.8529,0 c 0,-0.6598 -0.5323,-1.1848 -1.1921,-1.1848 -0.6556,0 -1.1935,0.5279 -1.1935,1.1848 0,0.6598 0.5408,1.1906 1.1935,1.1906 0.6569,0 1.1921,-0.5279 1.1921,-1.1906 m 7.8585,0 c 0,-0.6598 -0.541,-1.1848 -1.1949,-1.1848 -0.6584,0 -1.1907,0.5279 -1.1907,1.1848 0,0.6598 0.5323,1.1906 1.1907,1.1906 0.6539,0 1.1949,-0.5279 1.1949,-1.1906 m 7.8529,0 c 0,-0.6598 -0.541,-1.1848 -1.1921,-1.1848 -0.6672,0 -1.1993,0.5279 -1.1993,1.1848 0,0.6598 0.5321,1.1906 1.1993,1.1906 0.6511,0 1.1921,-0.5279 1.1921,-1.1906 m 7.8397,0 c 0,-0.6598 -0.5308,-1.1848 -1.1848,-1.1848 -0.6598,0 -1.1848,0.5279 -1.1848,1.1848 0,0.6598 0.5292,1.1906 1.1848,1.1906 0.654,0 1.1848,-0.5279 1.1848,-1.1906 m 7.8614,0 c 0,-0.6598 -0.5393,-1.1848 -1.1993,-1.1848 -0.6541,0 -1.1818,0.5279 -1.1818,1.1848 0,0.6598 0.5278,1.1906 1.1818,1.1906 0.66,0 1.1993,-0.5279 1.1993,-1.1906 m -47.1153,10.9504 c 0,-0.6598 -0.5321,-1.1993 -1.1935,-1.1993 -0.6569,0 -1.1892,0.5395 -1.1892,1.1993 0,0.6569 0.5323,1.1877 1.1892,1.1877 0.6583,0 1.1935,-0.5337 1.1935,-1.1877 m 7.8499,0 c 0,-0.6598 -0.5294,-1.1993 -1.1949,-1.1993 -0.6556,0 -1.1877,0.5395 -1.1877,1.1993 0,0.6569 0.5321,1.1877 1.1877,1.1877 0.6655,0 1.1949,-0.5337 1.1949,-1.1877 m 7.8529,0 c 0,-0.6598 -0.5323,-1.1993 -1.1921,-1.1993 -0.6556,0 -1.1935,0.5395 -1.1935,1.1993 0,0.6569 0.5408,1.1877 1.1935,1.1877 0.6569,0 1.1921,-0.5337 1.1921,-1.1877 m 7.8585,0 c 0,-0.6598 -0.541,-1.1993 -1.1949,-1.1993 -0.6584,0 -1.1907,0.5395 -1.1907,1.1993 0,0.6569 0.5323,1.1877 1.1907,1.1877 0.6539,0 1.1949,-0.5337 1.1949,-1.1877 m 7.8529,0 c 0,-0.6598 -0.541,-1.1993 -1.1921,-1.1993 -0.6672,0 -1.1993,0.5395 -1.1993,1.1993 0,0.6569 0.5321,1.1877 1.1993,1.1877 0.6511,0 1.1921,-0.5337 1.1921,-1.1877 m 7.8397,0 c 0,-0.6598 -0.5308,-1.1993 -1.1848,-1.1993 -0.6598,0 -1.1848,0.5395 -1.1848,1.1993 0,0.6569 0.5292,1.1877 1.1848,1.1877 0.654,0 1.1848,-0.5337 1.1848,-1.1877 m 7.8614,0 c 0,-0.6598 -0.5393,-1.1993 -1.1993,-1.1993 -0.6541,0 -1.1818,0.5395 -1.1818,1.1993 0,0.6569 0.5278,1.1877 1.1818,1.1877 0.66,0 1.1993,-0.5337 1.1993,-1.1877 m 192.2857,-32.8309 c 0,-0.6527 -0.5163,-1.1848 -1.1892,-1.1848 -0.6554,0 -1.1833,0.5321 -1.1833,1.1848 0,0.6655 0.5279,1.1921 1.1833,1.1921 0.673,0 1.1892,-0.5294 1.1892,-1.1921 m 7.8572,0 c 0,-0.6527 -0.5309,-1.1848 -1.1863,-1.1848 -0.6642,0 -1.192,0.5321 -1.192,1.1848 0,0.6655 0.5308,1.1921 1.192,1.1921 0.6554,0 1.1863,-0.5294 1.1863,-1.1921 m 7.863,0 c 0,-0.6527 -0.5454,-1.1848 -1.2008,-1.1848 -0.6555,0 -1.1776,0.5321 -1.1776,1.1848 0,0.6655 0.5221,1.1921 1.1776,1.1921 0.6554,0 1.2008,-0.5294 1.2008,-1.1921 m 7.8454,0 c 0,-0.6527 -0.5307,-1.1848 -1.1862,-1.1848 -0.6584,0 -1.2008,0.5321 -1.2008,1.1848 0,0.6655 0.5424,1.1921 1.2008,1.1921 0.6555,0 1.1862,-0.5294 1.1862,-1.1921 m 7.8514,0 c 0,-0.6527 -0.5337,-1.1848 -1.1834,-1.1848 -0.6613,0 -1.1978,0.5321 -1.1978,1.1848 0,0.6655 0.5424,1.1921 1.1978,1.1921 0.6497,0 1.1834,-0.5294 1.1834,-1.1921 m 7.8456,0 c 0,-0.6527 -0.5424,-1.1848 -1.1834,-1.1848 -0.6584,0 -1.192,0.5321 -1.192,1.1848 0,0.6655 0.5365,1.1921 1.192,1.1921 0.641,0 1.1834,-0.5294 1.1834,-1.1921 m 7.8542,0 c 0,-0.6527 -0.5308,-1.1848 -1.1978,-1.1848 -0.6497,0 -1.1805,0.5321 -1.1805,1.1848 0,0.6655 0.5308,1.1921 1.1805,1.1921 0.667,0 1.1978,-0.5294 1.1978,-1.1921 m -47.1168,10.9416 c 0,-0.6583 -0.5163,-1.1906 -1.1892,-1.1906 -0.6554,0 -1.1833,0.5323 -1.1833,1.1906 0,0.66 0.5279,1.1907 1.1833,1.1907 0.673,0 1.1892,-0.5279 1.1892,-1.1907 m 7.8572,0 c 0,-0.6583 -0.5309,-1.1906 -1.1863,-1.1906 -0.6642,0 -1.192,0.5323 -1.192,1.1906 0,0.66 0.5308,1.1907 1.192,1.1907 0.6554,0 1.1863,-0.5279 1.1863,-1.1907 m 7.863,0 c 0,-0.6583 -0.5454,-1.1906 -1.2008,-1.1906 -0.6555,0 -1.1776,0.5323 -1.1776,1.1906 0,0.66 0.5221,1.1907 1.1776,1.1907 0.6554,0 1.2008,-0.5279 1.2008,-1.1907 m 7.8454,0 c 0,-0.6583 -0.5307,-1.1906 -1.1862,-1.1906 -0.6584,0 -1.2008,0.5323 -1.2008,1.1906 0,0.66 0.5424,1.1907 1.2008,1.1907 0.6555,0 1.1862,-0.5279 1.1862,-1.1907 m 7.8514,0 c 0,-0.6583 -0.5337,-1.1906 -1.1834,-1.1906 -0.6613,0 -1.1978,0.5323 -1.1978,1.1906 0,0.66 0.5424,1.1907 1.1978,1.1907 0.6497,0 1.1834,-0.5279 1.1834,-1.1907 m 7.8456,0 c 0,-0.6583 -0.5424,-1.1906 -1.1834,-1.1906 -0.6584,0 -1.192,0.5323 -1.192,1.1906 0,0.66 0.5365,1.1907 1.192,1.1907 0.641,0 1.1834,-0.5279 1.1834,-1.1907 m 7.8542,0 c 0,-0.6583 -0.5308,-1.1906 -1.1978,-1.1906 -0.6497,0 -1.1805,0.5323 -1.1805,1.1906 0,0.66 0.5308,1.1907 1.1805,1.1907 0.667,0 1.1978,-0.5279 1.1978,-1.1907 m -47.1168,10.9389 c 0,-0.6598 -0.5163,-1.1848 -1.1892,-1.1848 -0.6554,0 -1.1833,0.5279 -1.1833,1.1848 0,0.6598 0.5279,1.1906 1.1833,1.1906 0.673,0 1.1892,-0.5279 1.1892,-1.1906 m 7.8572,0 c 0,-0.6598 -0.5309,-1.1848 -1.1863,-1.1848 -0.6642,0 -1.192,0.5279 -1.192,1.1848 0,0.6598 0.5308,1.1906 1.192,1.1906 0.6554,0 1.1863,-0.5279 1.1863,-1.1906 m 7.863,0 c 0,-0.6598 -0.5454,-1.1848 -1.2008,-1.1848 -0.6555,0 -1.1776,0.5279 -1.1776,1.1848 0,0.6598 0.5221,1.1906 1.1776,1.1906 0.6554,0 1.2008,-0.5279 1.2008,-1.1906 m 7.8454,0 c 0,-0.6598 -0.5307,-1.1848 -1.1862,-1.1848 -0.6584,0 -1.2008,0.5279 -1.2008,1.1848 0,0.6598 0.5424,1.1906 1.2008,1.1906 0.6555,0 1.1862,-0.5279 1.1862,-1.1906 m 7.8514,0 c 0,-0.6598 -0.5337,-1.1848 -1.1834,-1.1848 -0.6613,0 -1.1978,0.5279 -1.1978,1.1848 0,0.6598 0.5424,1.1906 1.1978,1.1906 0.6497,0 1.1834,-0.5279 1.1834,-1.1906 m 7.8456,0 c 0,-0.6598 -0.5424,-1.1848 -1.1834,-1.1848 -0.6584,0 -1.192,0.5279 -1.192,1.1848 0,0.6598 0.5365,1.1906 1.192,1.1906 0.641,0 1.1834,-0.5279 1.1834,-1.1906 m 7.8542,0 c 0,-0.6598 -0.5308,-1.1848 -1.1978,-1.1848 -0.6497,0 -1.1805,0.5279 -1.1805,1.1848 0,0.6598 0.5308,1.1906 1.1805,1.1906 0.667,0 1.1978,-0.5279 1.1978,-1.1906 m -47.1168,10.9504 c 0,-0.6598 -0.5163,-1.1993 -1.1892,-1.1993 -0.6554,0 -1.1833,0.5395 -1.1833,1.1993 0,0.6569 0.5279,1.1877 1.1833,1.1877 0.673,0 1.1892,-0.5337 1.1892,-1.1877 m 7.8572,0 c 0,-0.6598 -0.5309,-1.1993 -1.1863,-1.1993 -0.6642,0 -1.192,0.5395 -1.192,1.1993 0,0.6569 0.5308,1.1877 1.192,1.1877 0.6554,0 1.1863,-0.5337 1.1863,-1.1877 m 7.863,0 c 0,-0.6598 -0.5454,-1.1993 -1.2008,-1.1993 -0.6555,0 -1.1776,0.5395 -1.1776,1.1993 0,0.6569 0.5221,1.1877 1.1776,1.1877 0.6554,0 1.2008,-0.5337 1.2008,-1.1877 m 7.8454,0 c 0,-0.6598 -0.5307,-1.1993 -1.1862,-1.1993 -0.6584,0 -1.2008,0.5395 -1.2008,1.1993 0,0.6569 0.5424,1.1877 1.2008,1.1877 0.6555,0 1.1862,-0.5337 1.1862,-1.1877 m 7.8514,0 c 0,-0.6598 -0.5337,-1.1993 -1.1834,-1.1993 -0.6613,0 -1.1978,0.5395 -1.1978,1.1993 0,0.6569 0.5424,1.1877 1.1978,1.1877 0.6497,0 1.1834,-0.5337 1.1834,-1.1877 m 7.8456,0 c 0,-0.6598 -0.5424,-1.1993 -1.1834,-1.1993 -0.6584,0 -1.192,0.5395 -1.192,1.1993 0,0.6569 0.5365,1.1877 1.192,1.1877 0.641,0 1.1834,-0.5337 1.1834,-1.1877 m 7.8542,0 c 0,-0.6598 -0.5308,-1.1993 -1.1978,-1.1993 -0.6497,0 -1.1805,0.5395 -1.1805,1.1993 0,0.6569 0.5308,1.1877 1.1805,1.1877 0.667,0 1.1978,-0.5337 1.1978,-1.1877"
     id="path48"
     inkscape:connector-curvature="0"
     style="fill:#231f20" />
  <path
     d="m -7427.9537,-7607.9613 7.7673,22.1736 m -0.055,-136.127 -6.5521,2.3319 m -148.9276,111.6215 -7.7745,22.1736 m 0.049,-136.127 6.552,2.3319"
     id="path50"
     inkscape:connector-curvature="0"
     style="fill:none;stroke:#231f20;stroke-width:0.40094888" />
  <path
     d="m -7481.4948,-7598.9381 v 2.7177 h -0.6787 v -3.6631 h 0.5771 l 2.7583,2.6683 v -2.6683 h 0.667 v 3.6631 h -0.5336 l -2.7901,-2.7177 m 6.8188,0 v 2.7177 h -0.6875 v -3.6631 h 0.5859 l 2.7554,2.6683 v -2.6683 h 0.6729 v 3.6631 h -0.5336 l -2.7931,-2.7177 m 14.1279,0 v 2.7177 h -0.6759 v -3.6631 h 0.5772 l 2.7437,2.6683 v -2.6683 h 0.6846 v 3.6631 h -0.5367 l -2.7929,-2.7177 m -16.0015,-0.9454 h 0.1275 v 3.6631 h -0.6758 v -3.6631 h 0.5483 m 9.8293,0 h 0.1277 v 0.6264 h -1.6359 v 3.0367 h -0.7076 v -3.0367 h -1.6474 v -0.6264 h 3.8632 m 4.3622,0 h 0.1218 v 0.6264 h -2.9149 v 0.8237 h 2.2595 v 0.6264 h -2.2595 v 0.963 h 2.9149 v 0.6236 h -3.5848 v -3.6631 h 3.463 m 8.9159,3.0395 h -2.0826 v -2.4131 h 2.0826 c 0.6583,0 0.8904,0.6497 0.8904,1.1949 0,0.5685 -0.2321,1.2182 -0.8904,1.2182 m 1.1252,-2.5088 c -0.2725,-0.3481 -0.667,-0.5366 -1.1427,-0.5366 h -2.7263 v 3.6662 h 2.7263 c 0.4757,0 0.8702,-0.1857 1.1427,-0.5308 0.2409,-0.3307 0.3655,-0.7802 0.3655,-1.311 0,-0.5192 -0.1246,-0.9601 -0.3655,-1.2878 z m 4.9511,2.3551 c 0,0.078 -0.073,0.1537 -0.1596,0.1537 h -2.9149 c -0.078,0 -0.1479,-0.075 -0.1479,-0.1537 v -2.1144 c 0,-0.081 0.064,-0.1509 0.1479,-0.1509 h 2.9149 c 0.084,0 0.1596,0.067 0.1596,0.1509 v 2.1144 m -0.1305,-2.8858 h -2.9613 c -0.4322,0 -0.7861,0.3451 -0.7861,0.7772 v 2.1116 c 0,0.432 0.3539,0.7772 0.7861,0.7772 h 2.9613 c 0.4263,0 0.7802,-0.3452 0.7802,-0.7772 v -2.1116 c 0,-0.4321 -0.3539,-0.7772 -0.7802,-0.7772 z m 0.1305,7.0015 c 0,0.081 -0.073,0.142 -0.1596,0.142 h -2.9149 c -0.078,0 -0.1479,-0.061 -0.1479,-0.142 v -2.1116 c 0,-0.087 0.064,-0.1449 0.1479,-0.1449 h 2.9149 c 0.084,0 0.1596,0.058 0.1596,0.1449 v 2.1116 m -0.1305,-2.8888 h -2.9613 c -0.4322,0 -0.7861,0.3422 -0.7861,0.7772 v 2.1116 c 0,0.4292 0.3539,0.7772 0.7861,0.7772 h 2.9613 c 0.4263,0 0.7802,-0.348 0.7802,-0.7772 v -2.1116 c 0,-0.4292 -0.3539,-0.7772 -0.7802,-0.7772 z m 12.3497,2.1115 c 0.699,0.2871 2.1899,0.5134 3.3529,0.5134 1.2704,0 1.8011,-0.438 1.8011,-0.9863 0,-0.4902 -0.4989,-0.786 -1.8968,-1.2964 -1.8824,-0.6902 -3.2513,-1.2414 -3.2513,-2.4711 0,-1.2791 1.6503,-2.0303 4.1766,-2.0303 1.3516,0 1.8213,0.084 2.6856,0.2437 l 0.01,1.2095 c -0.8412,-0.1655 -1.5982,-0.4409 -2.7611,-0.4409 -1.2531,0 -1.7867,0.3972 -1.7867,0.8121 0,0.5887 0.8237,0.87 2.2622,1.3834 1.9984,0.7193 3.1093,1.2675 3.1093,2.477 0,1.2414 -1.3864,2.1375 -4.5421,2.1375 -1.2877,0 -2.1694,-0.078 -3.1556,-0.2349 v -1.3167 m -6.6998,-5.1947 h -1.4908 v 5.6587 h 1.4908 c 2.3029,0 3.7473,-0.9803 3.7473,-2.825 0,-1.8389 -1.4444,-2.8337 -3.7473,-2.8337 m 4.0227,6.1895 c -0.7394,0.3278 -2.1432,0.5511 -3.3672,0.5511 h -4.6783 v -7.7962 h 4.6783 c 1.224,0 2.6278,0.2087 3.3672,0.5481 1.8071,0.8092 2.3842,2.123 2.3842,3.347 0,1.2298 -0.5771,2.532 -2.3842,3.35 z"
     id="path52"
     inkscape:connector-curvature="0"
     style="fill:#c6c8ca" />
  <path
     d="m -7568.0526,-7570.3286 0.4481,2.7438 h 0.019 l 0.3655,-2.7438 h 1.2255 l 0.4843,4.6291 h -0.9412 l -0.2132,-3.3413 h -0.016 l -0.145,1.1515 -0.3945,2.1898 h -0.7106 l -0.4424,-2.2218 -0.1608,-1.021 v -0.099 h -0.012 l -0.1335,3.3413 h -0.9832 l 0.4075,-4.6291 h 1.2022 m 3.4428,0 h 0.9121 v 4.6291 h -0.9121 z m 4.3332,0.8817 c -0.116,-0.038 -0.2321,-0.055 -0.3482,-0.055 -0.8019,0 -1.1484,0.7338 -1.1484,1.4416 0,0.6843 0.3465,1.5313 1.1427,1.5313 0.1161,0 0.2379,-0.023 0.3509,-0.058 v 0.8527 c -0.1435,0.058 -0.2741,0.081 -0.4277,0.081 -1.3125,0 -2.0491,-1.189 -2.0491,-2.4015 0,-1.1485 0.7656,-2.3289 2.0099,-2.3289 0.161,0 0.3089,0.026 0.464,0.072 v 0.8643 m 1.8027,3.2368 c 0,0.322 -0.2495,0.583 -0.5801,0.583 -0.3293,0 -0.5816,-0.261 -0.5816,-0.583 0,-0.319 0.2523,-0.5714 0.5816,-0.5714 0.3306,0 0.5801,0.2524 0.5801,0.5714"
     id="path54"
     inkscape:connector-curvature="0"
     style="fill:#b2b4b6" />
  <path
     d="m -7368.6871,-7680.6566 0.4757,1.1311 c 0.145,0.3916 0.3045,0.8151 0.3943,1.2298 h 0.012 c 0.099,-0.4147 0.2205,-0.8296 0.3713,-1.2298 l 0.4989,-1.1311 h 1.7663 l -1.7663,3.9126 1.8911,4.1766 h -1.8911 l -0.5279,-1.2877 c -0.1507,-0.4061 -0.2436,-0.8064 -0.3539,-1.2125 h -0.035 c -0.1161,0.409 -0.2089,0.8064 -0.3539,1.2125 l -0.4814,1.2877 h -1.8302 l 1.749,-4.1766 -1.749,-3.9126 h 1.8302 m -17.8722,21.956 0.1856,-0.5946 0.7628,-2.3262 h 1.8911 l -1.9925,4.5421 v 3.5501 h -1.6823 v -3.5501 l -2.0361,-4.5421 h 1.8417 l 0.8788,2.5321 0.1509,0.3887"
     id="path56"
     inkscape:connector-curvature="0"
     style="fill:#939598" />
  <path
     d="m -7349.8867,-7662.2129 -1.9521,8.0862 h 1.6475 l 0.3046,-1.3545 h 1.6822 l 0.3074,1.3545 h 1.7779 l -2.0274,-8.0862 h -1.7401 m 1.4327,5.4642 h -1.1776 l 0.3597,-2.1579 0.1768,-1.2298 h 0.026 l 0.1915,1.2298 z m -18.4725,15.9899 c 0,0.6178 -0.3916,1.0181 -1.0413,1.0181 v -1.9666 c 0.6613,-0.043 1.0413,0.3655 1.0413,0.9485 m -1.0907,5.795 c 1.5809,0 2.8541,-0.6758 2.8541,-2.271 0,-0.7078 -0.3539,-1.5604 -1.0703,-1.8853 0.6438,-0.4089 0.9282,-0.9571 0.9282,-1.6707 0,-0.6727 -0.3133,-1.3979 -0.8875,-1.8301 -0.5512,-0.4119 -1.1312,-0.438 -1.7984,-0.438 h -1.6879 v 8.095 h 1.6618 z m 1.1515,-2.4538 c 0,0.6816 -0.409,1.1399 -1.0964,1.1138 v -2.1897 c 0.6788,-0.018 1.0964,0.4291 1.0964,1.0759 z"
     id="path58"
     inkscape:connector-curvature="0"
     style="fill:#bbbdc0" />
  <path
     d="m -7386.5187,-7709.704 c -0.1827,-0.1422 -0.3886,-0.2727 -0.6323,-0.2727 -0.2552,0 -0.4321,0.1654 -0.4321,0.4265 0,0.7164 1.308,0.7627 1.308,1.9431 0,0.786 -0.4379,1.372 -1.2529,1.372 -0.2321,0 -0.5395,-0.081 -0.7309,-0.2234 v -0.8208 c 0.1914,0.1391 0.3886,0.232 0.6381,0.232 0.29,0 0.4988,-0.1857 0.4988,-0.4815 0,-0.3393 -0.2494,-0.4552 -0.5047,-0.6323 -0.4871,-0.3392 -0.8033,-0.6727 -0.8033,-1.2963 0,-0.6933 0.3973,-1.3024 1.1398,-1.3024 0.2901,0 0.5279,0.078 0.7715,0.2176 v 0.8382 m 2.7815,-0.9832 v 0.8149 h -0.8875 v 0.9514 h 0.7772 v 0.8151 h -0.7772 v 0.9832 h 0.8875 v 0.8178 h -1.7489 v -4.3824 h 1.7489 m 1.923,0 v 3.5646 h 0.841 v 0.8178 h -1.7112 v -4.3824 h 0.8702 m 3.3528,0 v 0.8149 h -0.8759 v 0.9514 h 0.7773 v 0.8151 h -0.7773 v 0.9832 h 0.8874 v 0.8178 h -1.7518 v -4.3824 h 1.7403 m 2.9584,0.8324 c -0.1103,-0.035 -0.2088,-0.058 -0.3104,-0.058 -0.728,0 -1.0412,0.6875 -1.0412,1.369 0,0.6497 0.3103,1.4474 1.0326,1.4474 0.1102,0 0.2087,-0.029 0.319,-0.061 v 0.8121 c -0.1276,0.058 -0.2553,0.075 -0.3887,0.075 -1.1891,0 -1.8563,-1.1253 -1.8563,-2.268 0,-1.0905 0.699,-2.2159 1.8216,-2.2159 0.145,0 0.2784,0.041 0.4234,0.087 v 0.8122 m 3.0164,-0.8324 v 0.8149 h -0.673 v 3.5675 h -0.87 v -3.5675 h -0.6845 v -0.8149 h 2.2275 m 12.1816,0.9832 c -0.1683,-0.1422 -0.3886,-0.2784 -0.6148,-0.2784 -0.2815,0 -0.4468,0.1711 -0.4468,0.4322 0,0.7164 1.3168,0.7627 1.3168,1.9431 0,0.786 -0.4466,1.372 -1.2617,1.372 -0.2349,0 -0.5395,-0.081 -0.7425,-0.2234 v -0.8267 c 0.203,0.145 0.3974,0.2263 0.6585,0.2263 0.2813,0 0.4988,-0.1769 0.4988,-0.4699 0,-0.3393 -0.261,-0.4552 -0.5047,-0.6323 -0.4988,-0.3392 -0.8092,-0.6727 -0.8092,-1.3022 0,-0.6874 0.4061,-1.2965 1.1486,-1.2965 0.2697,0 0.5249,0.078 0.7627,0.2176 v 0.8382 m 3.0774,-0.9832 v 0.8149 h -0.6757 v 3.5675 h -0.8818 v -3.5675 h -0.6613 v -0.8149 h 2.2188 m 1.3168,0 -1.0123,4.3824 h 0.8586 l 0.1537,-0.7366 h 0.8788 l 0.1623,0.7366 h 0.9225 l -1.0558,-4.3824 h -0.9078 m 0.7454,2.9612 h -0.6003 l 0.1768,-1.1717 0.1045,-0.6729 h 0.01 l 0.093,0.6729 z m 2.8017,1.4212 v -2.0303 h 0.018 l 0.7627,2.0303 h 0.9108 l -0.7687,-1.9954 c 0.4351,-0.2379 0.641,-0.6497 0.641,-1.1311 0,-1.2008 -0.9948,-1.2559 -1.5517,-1.2559 h -0.8701 v 4.3824 h 0.8584 m 0,-3.6689 h 0.1161 c 0.4351,-0.026 0.5917,0.2291 0.5917,0.551 0,0.3539 -0.1595,0.6236 -0.5568,0.6236 l -0.1509,-0.01 v -1.166 z m 4.4319,-0.7135 v 0.8149 h -0.6961 v 3.5675 h -0.8614 v -3.5675 h -0.6846 v -0.8149 h 2.2421 m -294.7927,4.5043 v -1.8099 l 0.1843,0.01 c 0.7614,0 1.2601,-0.4671 1.2601,-1.2849 0,-1.4183 -1.2297,-1.2994 -1.4023,-1.2994 h -0.8526 v 4.3854 h 0.8105 m 0,-3.669 h 0.161 c 0.3597,0 0.467,0.2495 0.467,0.5655 0,0.4496 -0.2262,0.6033 -0.6251,0.586 v -1.1515 z m 3.5168,-0.786 c -0.728,0 -1.4574,0.6149 -1.4574,2.2651 0,1.6475 0.7294,2.2624 1.4574,2.2624 0.7337,0 1.4531,-0.6149 1.4531,-2.2624 0,-1.6502 -0.7194,-2.2651 -1.4531,-2.2651 m -0.5729,2.2622 c 0,-0.3944 0.039,-1.4589 0.5729,-1.4589 0.5408,0 0.5887,1.0645 0.5887,1.4589 0,0.3481 -0.048,1.4618 -0.5887,1.4618 -0.5336,0 -0.5729,-1.1137 -0.5729,-1.4618 z m 3.3326,-2.1926 0.3509,2.0912 c 0.047,0.3103 0.055,0.6206 0.083,0.9368 h 0.012 c 0.039,-0.3162 0.056,-0.6265 0.1189,-0.9368 l 0.4191,-2.0912 h 0.6468 l 0.5292,3.0279 h 0.012 c 0.026,-0.3131 0.029,-0.6148 0.077,-0.9252 l 0.3205,-2.0998 h 0.8672 l -0.8672,4.3825 h -0.7062 l -0.422,-2.3146 c -0.02,-0.2668 -0.08,-0.5336 -0.1161,-0.8004 h -0.012 c -0.039,0.2668 -0.062,0.5336 -0.1246,0.8004 l -0.4786,2.3146 h -0.7092 l -0.8382,-4.3825 h 0.8382 m 5.7979,0 v 0.8063 h -0.8296 v 0.9629 h 0.728 v 0.812 h -0.728 v 0.9863 h 0.8441 v 0.8179 h -1.6605 v -4.3854 h 1.646 m 1.7069,4.3854 v -2.0245 h 0.01 l 0.7221,2.0245 h 0.8614 l -0.7221,-1.9955 c 0.4103,-0.232 0.5887,-0.6554 0.5887,-1.1311 0,-1.2008 -0.9295,-1.2588 -1.4589,-1.2588 h -0.8135 v 4.3854 h 0.8136 m 0,-3.669 h 0.1101 c 0.4162,-0.02 0.5496,0.2291 0.5496,0.5424 0,0.3625 -0.1435,0.6293 -0.5147,0.6293 l -0.1422,-0.01 v -1.1631 0 z"
     id="path60"
     inkscape:connector-curvature="0"
     style="fill:#808285" />
  <path
     d="m -7324.0327,-7727.3674 -0.3366,-9.8265 c 0,-8.9071 -6.0008,-14.4107 -13.8086,-14.5659 v -148.8713 c 0,-7.8875 -6.3955,-14.2756 -14.2845,-14.2756 h -298.4268 c -7.876,0 -14.2758,6.3881 -14.2758,14.2756 v 148.8481 c -7.8208,0.1567 -13.8145,5.682 -13.8145,14.5891 l -0.3379,9.8265 c -0.01,1.1195 0.2727,1.7345 1.2385,1.7345 h 1.6127 c -0.1074,0.3943 -0.193,0.8033 -0.3655,1.2007 -0.2523,0.6149 -0.6264,1.1659 -0.7223,1.8505 -0.074,0.6553 -1.0383,6.4562 -1.0383,14.8847 l -0.013,135.0306 c -0.01,11.6538 9.1782,21.2483 20.832,21.7472 26.2573,1.1485 52.5246,2.2855 78.7949,1.7315 0.6076,-0.01 1.3893,-0.032 2.1999,-0.1683 2.171,-0.3625 4.3362,-0.7337 6.5012,-1.134 0.8252,-0.1624 2.4915,-0.2435 2.4915,-0.2435 h 132.2331 c 0,0 1.6735,0.081 2.5001,0.2435 2.1608,0.4003 4.3274,0.7716 6.494,1.134 0.8208,0.1364 1.6067,0.1597 2.2042,0.1683 26.2747,0.554 52.5319,-0.583 78.7833,-1.7315 11.648,-0.4989 20.8306,-10.0934 20.8306,-21.7472 v -135.0306 c 0,-8.4285 -0.9716,-14.2294 -1.0557,-14.8847 -0.093,-0.6846 -0.4699,-1.2356 -0.7251,-1.8505 -0.1538,-0.4003 -0.2552,-0.8064 -0.3539,-1.2007 h 1.6126 c 0.9601,0 1.2472,-0.615 1.2299,-1.7345 z"
     id="path62"
     inkscape:connector-curvature="0"
     style="fill:none;stroke:#231f20;stroke-width:0.62666941" />
  <path
     d="m -7653.0543,-7657.8102 c 0,-2.7032 0.6396,-5.2614 1.7446,-7.5527 l -8.1704,-0.017 c -0.8687,0 -1.3312,0.2726 -1.5981,1.1166 -1.4081,4.4753 -1.4081,8.4371 0,12.9038 0.2638,0.8528 0.7092,1.1688 1.5981,1.1688 h 8.1995 c -1.1225,-2.3086 -1.7737,-4.887 -1.7737,-7.6192"
     id="path64"
     inkscape:connector-curvature="0"
     style="fill:#4c4c4e" />
  <path
     d="m -7653.0543,-7657.8102 c 0,-2.7032 0.6395,-5.2614 1.7445,-7.5527 l -8.1704,-0.017 c -0.8686,0 -1.3312,0.2725 -1.598,1.1166 -1.4082,4.4753 -1.4082,8.4371 0,12.9038 0.2638,0.8528 0.7092,1.1688 1.598,1.1688 h 8.1996 c -1.1226,-2.3087 -1.7737,-4.887 -1.7737,-7.6192 z"
     id="path66"
     inkscape:connector-curvature="0"
     style="fill:none;stroke:#231f20;stroke-width:0.40094888" />
  <path
     d="m -7610.2329,-7664.2636 c -0.2668,-0.844 -0.6975,-1.1601 -1.585,-1.1601 h -8.2691 c 1.1282,2.2942 1.7794,4.8814 1.7794,7.6076 0,2.7322 -0.6512,5.3136 -1.7794,7.6194 h 8.2691 c 0.8875,0 1.3182,-0.3161 1.585,-1.1688 1.4139,-4.4609 1.4139,-8.4227 0,-12.8981"
     id="path68"
     inkscape:connector-curvature="0"
     style="fill:#4c4c4e" />
  <path
     d="m -7610.233,-7664.2636 c -0.2668,-0.8441 -0.6975,-1.1601 -1.585,-1.1601 h -8.2691 c 1.1282,2.2942 1.7794,4.8813 1.7794,7.6076 0,2.7322 -0.6512,5.3136 -1.7794,7.6194 h 8.2691 c 0.8875,0 1.3182,-0.3162 1.585,-1.1688 1.4139,-4.461 1.4139,-8.4228 0,-12.8981 z"
     id="path70"
     inkscape:connector-curvature="0"
     style="fill:none;stroke:#231f20;stroke-width:0.40094888" />
  <path
     d="m -7635.6824,-7675.1806 c 2.7264,0 5.2874,0.6438 7.5946,1.7605 l 0.01,-8.2227 c 0,-0.8614 -0.28,-1.3167 -1.1196,-1.5864 -4.4753,-1.4154 -8.4344,-1.4154 -12.9082,0 -0.8395,0.2697 -1.1138,0.725 -1.1138,1.5864 l 0.01,8.1936 c 2.284,-1.105 4.8291,-1.7314 7.5294,-1.7314"
     id="path72"
     inkscape:connector-curvature="0"
     style="fill:#4c4c4e" />
  <path
     d="m -7635.6824,-7675.1807 c 2.7264,0 5.2874,0.6439 7.5946,1.7606 l 0.01,-8.2227 c 0,-0.8614 -0.2799,-1.3167 -1.1196,-1.5865 -4.4752,-1.4154 -8.4343,-1.4154 -12.9082,0 -0.8395,0.2698 -1.1137,0.725 -1.1137,1.5865 l 0.01,8.1936 c 2.2841,-1.105 4.8292,-1.7315 7.5295,-1.7315 z"
     id="path74"
     inkscape:connector-curvature="0"
     style="fill:none;stroke:#231f20;stroke-width:0.40094888" />
  <path
     d="m -7635.6824,-7640.4369 c -2.7234,0 -5.2918,-0.6438 -7.5817,-1.7692 v 8.2255 c 0,0.8932 0.3147,1.311 1.1573,1.5923 4.4738,1.4038 8.4285,1.4038 12.9081,0 0.8397,-0.2813 1.1618,-0.699 1.1618,-1.5923 v -8.243 c -2.3117,1.1313 -4.9017,1.7867 -7.6455,1.7867"
     id="path76"
     inkscape:connector-curvature="0"
     style="fill:#4c4c4e" />
  <path
     d="m -7427.2663,-7610.3598 v -107.2739 c 0,-1.72 -1.3138,-2.4943 -2.4828,-2.4943 h -143.839 c -1.1732,0 -2.4739,0.6264 -2.4739,2.4943 v 107.2739 c 0,1.891 1.2413,2.4827 2.4739,2.4827 h 143.839 c 1.2125,0 2.4828,-0.963 2.4828,-2.4827 z m -208.4161,-30.0771 c -2.7234,0 -5.2919,-0.6438 -7.5817,-1.7692 v 8.2254 c 0,0.8933 0.3146,1.3111 1.1572,1.5924 4.4739,1.4038 8.4286,1.4038 12.9082,0 0.8397,-0.2813 1.1617,-0.6991 1.1617,-1.5924 v -8.2429 c -2.3117,1.1313 -4.9017,1.7867 -7.6454,1.7867 z"
     id="path78"
     inkscape:connector-curvature="0"
     style="fill:none;stroke:#231f20;stroke-width:0.40094888" />
  <path
     d="m -7427.2662,-7609.1707 c 0,0.7135 -0.5367,1.2965 -1.2094,1.2965 h -146.3335 c -0.6656,0 -1.2065,-0.5801 -1.2065,-1.2965 v -109.7217 c 0,-0.7164 0.5409,-1.2965 1.2065,-1.2965 h 146.3335 c 0.6756,0 1.2094,0.5772 1.2094,1.2965 z m 0,-161.1603 c 0,0.7135 -0.5367,1.2952 -1.2094,1.2952 h -146.3335 c -0.6656,0 -1.2065,-0.5786 -1.2065,-1.2952 v -109.7202 c 0,-0.7165 0.5409,-1.295 1.2065,-1.295 h 146.3335 c 0.6756,0 1.2094,0.5785 1.2094,1.295 z"
     id="path80"
     inkscape:connector-curvature="0" />
  <g
     id="g108"
     transform="translate(-1.4694177e-4,1.7298995e-4)">
    <path
       d="m -7268.0747,-7564.2685 h 72.8837 c 1.72,0 3.13,-1.4086 3.13,-3.13 v -82.8968 c 0,-1.7223 -1.4098,-3.13 -3.13,-3.13 h -76.0114 c -1.722,0 -3.1297,1.4077 -3.1297,3.13 v 79.7694 z"
       id="path82"
       inkscape:connector-curvature="0"
       style="fill:#bdbec0" />
    <path
       d="m -7218.776,-7636.3054 h -0.1204 c -0.4874,0 -1.08,-0.1896 -1.5007,-0.4882 l -1.4031,-0.8322 c -0.2824,-0.1811 -0.5949,-0.2821 -0.7347,-0.2821 h -21.7957 c -0.138,0 -0.4443,0.101 -0.7178,0.2715 l -1.4659,0.8719 c -0.375,0.2695 -0.9679,0.4591 -1.4528,0.4591 l -26.4126,-1.649 -0.7264,-0.046 v -12.2947 c 0,-2.1535 1.7502,-3.9014 3.9034,-3.9014 h 76.0111 c 2.1535,0 3.9037,1.7479 3.9037,3.9014 v 12.206 l -0.7218,0.053 z"
       id="path84"
       inkscape:connector-curvature="0"
       style="fill:#ffffff" />
    <path
       d="m -7195.191,-7653.4253 c 1.72,0 3.13,1.4086 3.13,3.13 v 11.4819 l -26.7666,1.7352 c -0.021,0 -0.047,0 -0.069,0 -0.3408,0 -0.7743,-0.1531 -1.0583,-0.3493 l -1.4528,-0.863 c -0.3237,-0.2051 -0.7826,-0.3925 -1.1274,-0.3925 h -21.7957 c -0.3451,0 -0.8019,0.1874 -1.1296,0.3925 l -1.4482,0.863 c -0.2889,0.1962 -0.7182,0.3493 -1.0607,0.3493 -0.021,0 -0.047,0 -0.069,0 l -26.294,-1.651 v -11.5661 c 0,-1.7211 1.4077,-3.13 3.1277,-3.13 h 76.0131 m 0,-1.5443 h -76.0134 c -2.5779,0 -4.6732,2.0962 -4.6732,4.6743 v 13.0177 l 1.4485,0.09 26.2941,1.651 h 0.05 0.1163 c 0.6337,0 1.373,-0.2381 1.9311,-0.6197 l 1.3689,-0.8128 c 0.1811,-0.1121 0.3425,-0.1694 0.3922,-0.1788 h 21.7417 c 0.01,0.01 0.166,0.067 0.3021,0.1508 l 1.4872,0.889 c 0.4718,0.3268 1.2133,0.567 1.8492,0.567 h 0.05 l 0.1186,-0.01 26.766,-1.7351 1.446,-0.092 v -12.9316 c 3e-4,-2.5781 -2.0968,-4.6743 -4.6746,-4.6743"
       id="path86"
       inkscape:connector-curvature="0"
       style="fill:#424143" />
    <path
       d="m -7191.2876,-7575.7538 v 12.2568 h -83.818 v -12.2568 h 83.0466"
       id="path88"
       inkscape:connector-curvature="0"
       style="fill:#ffffff" />
    <path
       d="m -7192.0613,-7564.2665 h -82.2705 v -10.7159 h 82.2708 v 10.7159 z m 1.5452,-12.2625 h -85.3612 v 13.8077 h 85.3614 v -13.8077 z"
       id="path90"
       inkscape:connector-curvature="0"
       style="fill:#424143" />
    <path
       d="m -7181.7279,-7657.1907 c 0,-1.72 -1.4097,-3.1297 -3.13,-3.1297 h -96.9685 c -1.5087,0 -2.7721,1.0786 -3.0627,2.5003 -0.045,0.2036 -0.065,0.4149 -0.065,0.6294 v 87.5937 c 0,10.3206 8.4449,18.7697 18.7672,18.7697 h 81.3377 c 1.72,0 3.1208,-1.4108 3.1208,-3.13 v -103.2334 z m -10.3334,89.7922 c 0,1.7212 -1.4097,3.13 -3.13,3.13 h -71.9696 c -0.8145,0 -1.082,-0.1637 -1.6037,-0.6867 l -5.0088,-5.01 c -0.4572,-0.4572 -0.5607,-0.9429 -0.5607,-1.5164 v -78.8137 c 0,-1.7223 1.4077,-3.13 3.13,-3.13 h 76.0131 c 1.72,0 3.13,1.4077 3.13,3.13 v 82.8968 z"
       id="path92"
       inkscape:connector-curvature="0"
       style="fill:#6e6f72" />
    <path
       d="m -7181.7279,-7657.1907 c 0,-1.72 -1.4097,-3.1297 -3.13,-3.1297 h -96.9685 c -1.5087,0 -2.7721,1.0786 -3.0627,2.5003 -0.045,0.2036 -0.065,0.4149 -0.065,0.6294 v 87.5937 c 0,10.3206 8.4449,18.7697 18.7672,18.7697 h 81.3377 c 1.72,0 3.1208,-1.4108 3.1208,-3.13 v -103.2334 z m -10.3334,89.7922 c 0,1.7212 -1.4097,3.13 -3.13,3.13 h -71.9696 c -0.8145,0 -1.082,-0.1637 -1.6037,-0.6867 l -5.0088,-5.01 c -0.4572,-0.4572 -0.5607,-0.9429 -0.5607,-1.5164 v -78.8137 c 0,-1.7223 1.4077,-3.13 3.13,-3.13 h 76.0131 c 1.72,0 3.13,1.4077 3.13,3.13 v 82.8968 z"
       id="path94"
       inkscape:connector-curvature="0"
       style="fill:none;stroke:#424143;stroke-width:1.54498827" />
    <path
       d="m -7184.8579,-7660.3201 c 1.72,0 3.13,1.4105 3.13,3.1297 v 103.2337 c 0,1.72 -1.4009,3.13 -3.1209,3.13 h -81.3379 c -10.3243,0 -18.7672,-8.4506 -18.7672,-18.7698 v -87.5942 c 0,-0.2133 0.021,-0.4258 0.062,-0.6283 0.2912,-1.4237 1.5563,-2.5014 3.065,-2.5014 h 96.9685 m 0,-2.0962 h -96.9685 c -2.4701,0 -4.6233,1.7568 -5.117,4.1772 -0.071,0.3277 -0.1078,0.6868 -0.1078,1.0487 v 87.5937 c 0,11.5058 9.3589,20.867 20.8645,20.867 h 81.3377 c 2.8776,0 5.2181,-2.3463 5.2181,-5.227 v -103.2337 c 0,-2.8796 -2.3448,-5.2259 -5.227,-5.2259"
       id="path96"
       inkscape:connector-curvature="0"
       style="fill:#424143" />
    <path
       d="m -7223.9529,-7560.5849 -9.3848,6.2569 -9.3846,-6.2569"
       id="path98"
       inkscape:connector-curvature="0"
       style="fill:#424143" />
    <path
       d="m -7256.1464,-7645.1213 h -0.5197 l -2.7372,-2.664 v 2.664 h -0.6663 v -3.5963 h 0.5693 l 2.6985,2.6201 v -2.6201 h 0.6554"
       id="path100"
       inkscape:connector-curvature="0"
       style="fill:#010101" />
    <path
       d="m -7226.1169,-7644.6881 h -2.9039 c -0.4201,0 -0.7631,0.3448 -0.7631,0.7641 v 2.0705 c 0,0.4169 0.343,0.7631 0.7631,0.7631 h 2.9039 c 0.4178,0 0.7626,-0.3462 0.7626,-0.7631 v -2.0705 c 0,-0.4193 -0.3448,-0.7641 -0.7626,-0.7641 m 0.1226,2.83 c 0,0.081 -0.067,0.148 -0.1486,0.148 h -2.8513 c -0.082,0 -0.1486,-0.067 -0.1486,-0.148 v -2.0637 c 0,-0.082 0.067,-0.1454 0.1486,-0.1454 h 2.8513 c 0.082,0 0.1486,0.064 0.1486,0.1454 z"
       id="path102"
       inkscape:connector-curvature="0"
       style="fill:#939598" />
    <path
       d="m -7249.4732,-7645.1213 h -0.5173 l -2.7373,-2.664 v 2.664 h -0.6662 v -3.5963 h 0.5669 l 2.6986,2.6201 v -2.6201 h 0.6553 m 13.8376,3.5963 h -0.5213 l -2.7376,-2.664 v 2.664 h -0.6639 v -3.5963 h 0.5673 l 2.6962,2.6201 v -2.6201 h 0.6593 m -19.4679,9e-4 h 0.6642 v 3.5954 h -0.6642 m 10.1652,-3.5954 h 0.1229 v 0.6197 h -1.6056 v 2.9757 h -0.6899 v -2.9757 h -1.6079 v -0.6197 m 8.1691,2.9768 v 0.6186 h -3.5091 v -3.5954 h 3.5091 v 0.6197 h -2.8517 v 0.8062 h 2.2071 v 0.6175 h -2.2071 v 0.9334 m 12.5577,-2.4506 c -0.2613,-0.346 -0.6468,-0.5271 -1.1103,-0.5271 h -2.6683 v 3.5952 h 2.6683 c 0.4635,0 0.849,-0.1814 1.1103,-0.5228 0.2435,-0.3223 0.3727,-0.7597 0.3727,-1.274 0,-0.5142 -0.1295,-0.9536 -0.3727,-1.2713 m -1.0929,2.4506 h -2.0434 v -2.356 h 2.0434 c 0.64,0 0.8661,0.634 0.8661,1.177 0,0.543 -0.2261,1.179 -0.8661,1.179 m 5.8197,-2.9768 h -2.9039 c -0.4201,0 -0.7631,0.3451 -0.7631,0.7643 v 2.0702 c 0,0.4173 0.343,0.7609 0.7631,0.7609 h 2.9039 c 0.4178,0 0.7626,-0.3436 0.7626,-0.7609 v -2.0702 c 0,-0.4192 -0.3448,-0.7643 -0.7626,-0.7643 m 0.1226,2.8302 c 0,0.078 -0.067,0.1455 -0.1486,0.1455 h -2.8513 c -0.082,0 -0.1486,-0.067 -0.1486,-0.1455 v -2.0636 c 0,-0.082 0.067,-0.1458 0.1486,-0.1458 h 2.8513 c 0.082,0 0.1486,0.064 0.1486,0.1458 z m 11.9625,3.2783 c 0.6919,0.2715 2.1466,0.4937 3.2854,0.4937 1.2455,0 1.7608,-0.4301 1.7608,-0.9648 0,-0.4825 -0.4786,-0.7652 -1.8538,-1.2683 -1.8386,-0.6801 -3.1856,-1.2146 -3.1856,-2.4215 0,-1.2492 1.6211,-1.9864 4.0951,-1.9864 1.3279,0 1.7848,0.086 2.6252,0.2404 l 0.01,1.1833 c -0.8277,-0.1575 -1.5629,-0.4258 -2.7034,-0.4258 -1.2243,0 -1.7434,0.3878 -1.7434,0.7857 0,0.5821 0.8017,0.8578 2.2091,1.3612 1.9573,0.7005 3.0482,1.2403 3.0482,2.4236 0,1.2158 -1.3624,2.0973 -4.4405,2.0973 -1.2651,0 -2.1378,-0.086 -3.106,-0.2413 z m -2.6184,0.9626 c -0.7264,0.3285 -2.095,0.5367 -3.296,0.5367 h -4.5782 v -7.6304 h 4.5782 c 1.201,0 2.5696,0.2122 3.296,0.5391 1.7651,0.7985 2.3406,2.0702 2.3406,3.2771 0,1.2092 -0.571,2.4809 -2.3406,3.2775 m -3.9337,-6.0578 h -1.4639 v 5.5416 h 1.4639 c 2.2482,0 3.6685,-0.9603 3.6685,-2.7613 0,-1.801 -1.4206,-2.7803 -3.6685,-2.7803 m 16.1848,3.3906 c -0.879,0 -1.5948,0.7156 -1.5948,1.596 0,0.8829 0.7158,1.5982 1.5948,1.5982 0.8841,0 1.5996,-0.7155 1.5996,-1.5982 0,-0.8807 -0.7158,-1.596 -1.5996,-1.596 m 0,2.9204 c -0.7281,0 -1.323,-0.5938 -1.323,-1.3247 0,-0.7327 0.5949,-1.3224 1.323,-1.3224 0.7329,0 1.3236,0.5894 1.3236,1.3224 -3e-4,0.7309 -0.5907,1.3247 -1.3236,1.3247"
       id="path104"
       inkscape:connector-curvature="0"
       style="fill:#010101" />
    <path
       d="m -7204.382,-7642.5617 h -0.336 v 0.7199 h -0.2675 v -1.7246 h 0.8405 v 0 c 0.263,0 0.4786,0.2358 0.4786,0.501 0,0.2456 -0.1811,0.4572 -0.4184,0.4883 l 0.4312,0.7307 h -0.3015 z m -0.336,-0.2447 h 0.5562 c 0.1337,0 0.2418,-0.1217 0.2418,-0.2564 0,-0.1326 -0.1081,-0.2606 -0.2418,-0.2606 h -0.017 -0.5388 z"
       id="path106"
       inkscape:connector-curvature="0"
       style="fill:#010101" />
  </g>
</svg>
