<?xml version="1.0" encoding="UTF-8" standalone="no"?>
<svg
   xmlns:dc="http://purl.org/dc/elements/1.1/"
   xmlns:cc="http://creativecommons.org/ns#"
   xmlns:rdf="http://www.w3.org/1999/02/22-rdf-syntax-ns#"
   xmlns:svg="http://www.w3.org/2000/svg"
   xmlns="http://www.w3.org/2000/svg"
   xmlns:sodipodi="http://sodipodi.sourceforge.net/DTD/sodipodi-0.dtd"
   xmlns:inkscape="http://www.inkscape.org/namespaces/inkscape"
   width="188.97621"
   height="200"
   version="1.1"
   id="svg28"
   sodipodi:docname="game.svg"
   inkscape:version="0.92.4 5da689c313, 2019-01-14">
  <metadata
     id="metadata34">
    <rdf:RDF>
      <cc:Work
         rdf:about="">
        <dc:format>image/svg+xml</dc:format>
        <dc:type
           rdf:resource="http://purl.org/dc/dcmitype/StillImage" />
      </cc:Work>
    </rdf:RDF>
  </metadata>
  <defs
     id="defs32" />
  <sodipodi:namedview
     pagecolor="#ffffff"
     bordercolor="#666666"
     borderopacity="1"
     objecttolerance="10"
     gridtolerance="10"
     guidetolerance="10"
     inkscape:pageopacity="0"
     inkscape:pageshadow="2"
     inkscape:window-width="471"
     inkscape:window-height="442"
     id="namedview30"
     showgrid="false"
     inkscape:zoom="1.18"
     inkscape:cx="94.488106"
     inkscape:cy="99.999998"
     inkscape:window-x="0"
     inkscape:window-y="0"
     inkscape:window-maximized="0"
     inkscape:current-layer="svg28">
    <inkscape:grid
       type="xygrid"
       id="grid36"
       originx="0"
       originy="-1.63e-06" />
  </sodipodi:namedview>
  <path
     d="M 33.383923,172.66431 H 161.60239 c 3.02587,0 5.50637,-2.478 5.50637,-5.50638 V 21.324088 c 0,-3.029885 -2.48,-5.506373 -5.50637,-5.506373 H 27.881564 c -3.029383,0 -5.505872,2.476488 -5.505872,5.506373 V 161.65607 Z"
     id="path2"
     inkscape:connector-curvature="0"
     style="fill:#bdbec0" />
  <path
     d="m 120.11118,45.935443 h -0.21173 c -0.85743,0 -1.90001,-0.333643 -2.64004,-0.858944 l -2.46846,-1.464018 c -0.49671,-0.318592 -1.04659,-0.4962 -1.29243,-0.4962 H 75.155093 c -0.242832,0 -0.781679,0.177608 -1.262828,0.477637 l -2.578839,1.533757 c -0.659761,0.474125 -1.702836,0.807768 -2.55576,0.807768 L 22.291905,43.0345 21.014025,42.953222 V 21.324088 c 0,-3.788485 3.079054,-6.863525 6.867037,-6.863525 H 161.60139 c 3.78848,0 6.86754,3.07504 6.86754,6.863525 v 21.473099 l -1.26986,0.09332 z"
     id="path4"
     inkscape:connector-curvature="0"
     style="fill:#ffffff" />
  <path
     d="m 161.60239,15.817715 c 3.02587,0 5.50637,2.477993 5.50637,5.506373 v 20.199233 l -47.08839,3.052462 c -0.0371,0.004 -0.0833,0.004 -0.12041,0.004 -0.59956,0 -1.36217,-0.269424 -1.86189,-0.614607 l -2.55576,-1.518203 C 114.91286,42.08625 114.1056,41.75662 113.49902,41.75662 H 75.155595 c -0.607081,0 -1.410835,0.32963 -1.987311,0.690367 l -2.547733,1.518203 c -0.508242,0.345183 -1.26333,0.614607 -1.865895,0.614607 -0.03763,0 -0.08329,0 -0.121416,-0.004 L 22.376194,41.671328 v -20.34724 c 0,-3.027878 2.476488,-5.506373 5.50236,-5.506373 H 161.60239 m 0,-2.716812 H 27.878052 c -4.535044,0 -8.221178,3.68764 -8.221178,8.223185 v 22.900993 l 2.548234,0.159045 46.257045,2.904455 0.0873,0.008 0.204701,0.004 c 1.114821,0 2.415279,-0.418935 3.397144,-1.090236 l 2.408254,-1.429901 c 0.318592,-0.197176 0.602566,-0.298022 0.689865,-0.314578 l 38.248593,0.0075 c 0.0105,0.01304 0.292,0.117403 0.53132,0.26541 l 2.61647,1.56386 c 0.82985,0.574971 2.13432,0.997419 3.25315,0.997419 h 0.0873 l 0.20872,-0.01154 47.08739,-3.052462 2.54372,-0.162557 V 21.324088 c 5e-4,-4.535545 -3.68865,-8.223185 -8.22369,-8.223185"
     id="path6"
     inkscape:connector-curvature="0"
     style="fill:#424143" />
  <path
     d="M 21.015029,172.6623 V 152.45905 H 168.46943 v 21.56241 H 21.015029"
     id="path8"
     inkscape:connector-curvature="0"
     style="fill:#ffffff" />
  <path
     d="M 167.10826,172.66782 H 22.376194 V 153.8162 H 167.10876 v 18.85162 z m 2.71832,-21.57244 H 19.657375 v 24.29075 H 169.82708 v -24.29075 z"
     id="path10"
     inkscape:connector-curvature="0"
     style="fill:#424143" />
  <path
     d="m 185.28707,9.1935107 c 0,-3.0258712 -2.48,-5.5058714 -5.50637,-5.5058714 H 9.1915038 c -2.6540969,0 -4.8767149,1.8975037 -5.3879672,4.3985761 C 3.7237632,8.4444432 3.6896462,8.8162175 3.6896462,9.1935107 V 163.29018 c 0,18.15623 14.8564198,33.02017 33.0156608,33.02017 H 179.79625 c 3.02587,0 5.49032,-2.482 5.49032,-5.50637 V 9.1935107 Z M 167.10826,167.15793 c 0,3.02788 -2.48,5.50638 -5.50637,5.50638 H 34.991433 c -1.432911,0 -1.903524,-0.28799 -2.82117,-1.20815 l -8.811702,-8.8137 C 22.554305,161.8382 22.37218,160.98377 22.37218,159.97481 V 21.324088 c 0,-3.029885 2.476489,-5.506373 5.506374,-5.506373 H 161.60239 c 3.02587,0 5.50637,2.476488 5.50637,5.506373 V 167.15793 Z"
     id="path12"
     inkscape:connector-curvature="0"
     style="fill:#6e6f72" />
  <path
     d="m 185.28707,9.1935107 c 0,-3.0258712 -2.48,-5.5058714 -5.50637,-5.5058714 H 9.1915038 c -2.6540969,0 -4.8767149,1.8975037 -5.3879672,4.3985761 C 3.7237632,8.4444432 3.6896462,8.8162175 3.6896462,9.1935107 V 163.29018 c 0,18.15623 14.8564198,33.02017 33.0156608,33.02017 H 179.79625 c 3.02587,0 5.49032,-2.482 5.49032,-5.50637 V 9.1935107 Z M 167.10826,167.15793 c 0,3.02788 -2.48,5.50638 -5.50637,5.50638 H 34.991433 c -1.432911,0 -1.903524,-0.28799 -2.82117,-1.20815 l -8.811702,-8.8137 C 22.554305,161.8382 22.37218,160.98377 22.37218,159.97481 V 21.324088 c 0,-3.029885 2.476489,-5.506373 5.506374,-5.506373 H 161.60239 c 3.02587,0 5.50637,2.476488 5.50637,5.506373 V 167.15793 Z"
     id="path14"
     inkscape:connector-curvature="0"
     style="fill:none;stroke:#424143;stroke-width:2.71801782" />
  <path
     d="m 179.7807,3.6881411 c 3.02587,0 5.50637,2.4815053 5.50637,5.5058713 V 190.80498 c 0,3.02587 -2.46445,5.50638 -5.49032,5.50638 H 36.705307 c -18.162753,0 -33.0156607,-14.86646 -33.0156607,-33.02018 V 9.1935107 c 0,-0.3752863 0.037629,-0.7490674 0.1098766,-1.1052884 C 4.3117786,5.5836379 6.5374069,3.6876394 9.1915038,3.6876394 H 179.7807 m 0,-3.687639380000001 H 9.1915038 C 4.84611,0 1.0581267,3.090593 0.18965002,7.3486876 0.06472182,7.9251634 0,8.5568285 0,9.1935107 V 163.29018 C 0,183.53155 16.464432,200 36.705307,200 H 179.79625 c 5.06235,0 9.17996,-4.12765 9.17996,-9.19552 V 9.1935107 C 188.97621,4.1276475 184.85108,0 179.7807,0"
     id="path16"
     inkscape:connector-curvature="0"
     style="fill:#424143" />
  <path
     d="M 94.493877,190.15174 77.984291,179.14452 h 33.019679"
     id="path18"
     inkscape:connector-curvature="0"
     style="fill:#424143" />
  <path
     d="m 48.468124,24.099601 4.747271,4.609299 v -4.609299 h 1.152952 v 6.326685 h -0.914133 l -4.815505,-4.686563 v 4.686563 h -1.172017 v -6.326685"
     id="path20"
     inkscape:connector-curvature="0"
     style="fill:#010101" />
  <path
     d="m 107.19692,31.188398 h -5.10851 c -0.73904,0 -1.3426,0.606579 -1.3426,1.344107 v 3.642484 c 0,0.733515 0.60356,1.342602 1.3426,1.342602 h 5.10851 c 0.73502,0 1.34159,-0.609087 1.34159,-1.342602 v -3.642484 c 0,-0.737528 -0.60657,-1.344107 -1.34159,-1.344107 m 0.21574,4.978564 c 0,0.142488 -0.11741,0.260392 -0.2614,0.260392 h -5.01619 c -0.144,0 -0.2614,-0.117402 -0.2614,-0.260392 v -3.630443 c 0,-0.143994 0.1174,-0.255877 0.2614,-0.255877 h 5.01619 c 0.14399,0 0.2614,0.111883 0.2614,0.255877 z"
     id="path22"
     inkscape:connector-curvature="0"
     style="fill:#939598" />
  <path
     d="m 60.207862,24.099601 4.747271,4.609299 v -4.609299 h 1.152952 v 6.326685 h -0.91012 L 60.38246,25.739723 v 4.686563 h -1.172017 v -6.326685 m 25.337846,0 4.743257,4.609299 v -4.609299 h 1.159976 v 6.326685 h -0.917144 l -4.816006,-4.686563 v 4.686563 h -1.168004 v -6.326685 m -27.347232,0.0015 h 1.168505 v 6.32518 h -1.168505 m 15.274353,0 h -1.21366 v -5.234943 h -2.828696 v -1.090237 h 6.867037 v 1.090237 h -2.824682 m 5.312208,1.418362 h 3.882808 v 1.086223 h -3.882808 v 1.642128 h 5.016695 v 1.08823 h -6.173159 v -6.32518 h 6.173159 v 1.090237 h -5.016695 m 22.091719,-0.164564 c -0.459575,-0.608586 -1.1379,-0.927178 -1.953194,-0.927178 h -4.694089 v 6.324678 h 4.694089 c 0.815294,0 1.493619,-0.319094 1.953194,-0.919652 0.428469,-0.566943 0.655748,-1.336581 0.655748,-2.241182 0,-0.9046 -0.227781,-1.67775 -0.655748,-2.236666 m -1.922589,4.311277 H 93.364004 V 25.19335 h 3.594822 c 1.125858,0 1.523722,1.115323 1.523722,2.070597 0,0.955274 -0.397864,2.074109 -1.523722,2.074109 m 10.238094,-5.23695 h -5.10851 c -0.73904,0 -1.3426,0.607081 -1.3426,1.344609 v 3.641983 c 0,0.734016 0.60356,1.338588 1.3426,1.338588 h 5.10851 c 0.73502,0 1.34159,-0.604572 1.34159,-1.338588 v -3.641983 c 0,-0.737528 -0.60657,-1.344609 -1.34159,-1.344609 m 0.21574,4.979066 c 0,0.137973 -0.11741,0.255877 -0.2614,0.255877 h -5.01619 c -0.144,0 -0.2614,-0.117402 -0.2614,-0.255877 v -3.630443 c 0,-0.143994 0.1174,-0.256379 0.2614,-0.256379 h 5.01619 c 0.14399,0 0.2614,0.112385 0.2614,0.256379 z m 21.04463,5.767267 c 1.21717,0.477637 3.77644,0.868477 5.77981,0.868477 2.19101,0 3.09761,-0.756593 3.09761,-1.697318 0,-0.848909 -0.84188,-1.346113 -3.26117,-2.231147 -3.23459,-1.196601 -5.60421,-2.136824 -5.60421,-4.260101 0,-2.197532 2.85177,-3.494478 7.20419,-3.494478 2.33601,0 3.13976,0.152022 4.61833,0.42295 l 0.0155,2.081635 c -1.45599,-0.276949 -2.74942,-0.749068 -4.7558,-0.749068 -2.15388,0 -3.06701,0.682339 -3.06701,1.382238 0,1.02401 1.41033,1.509173 3.88632,2.394708 3.4433,1.232223 5.36238,2.181979 5.36238,4.263613 0,2.138831 -2.39672,3.689647 -7.81178,3.689647 -2.22562,0 -3.76089,-0.15152 -5.46422,-0.424455 z m -4.60629,1.693304 c -1.27788,0.577981 -3.68563,0.944236 -5.79838,0.944236 h -8.0541 V 24.06147 h 8.0541 c 2.11275,0 4.5205,0.37328 5.79838,0.948251 3.10514,1.404815 4.11761,3.641982 4.11761,5.76526 0,2.127291 -1.00444,4.364459 -4.11761,5.765762 m -6.92022,-10.657027 h -2.57533 v 9.748915 h 2.57533 c 3.95506,0 6.45362,-1.68929 6.45362,-4.85765 0,-3.16836 -2.49907,-4.891265 -6.45362,-4.891265 m 28.47259,5.964945 c -1.5463,0 -2.80562,1.258815 -2.80562,2.807623 0,1.553324 1.25932,2.811637 2.80562,2.811637 1.55533,0 2.81414,-1.258815 2.81414,-2.811637 0,-1.54931 -1.25931,-2.807623 -2.81414,-2.807623 m 0,5.137609 c -1.28089,0 -2.32748,-1.04458 -2.32748,-2.330488 0,-1.288917 1.04659,-2.326474 2.32748,-2.326474 1.28942,0 2.32848,1.037055 2.32848,2.326474 -5e-4,1.285908 -1.03906,2.330488 -2.32848,2.330488"
     id="path24"
     inkscape:connector-curvature="0"
     style="fill:#010101" />
  <path
     d="m 145.43347,34.92922 h -0.59102 v 1.26634 h -0.47062 v -3.033899 h 1.47857 v 0.008 c 0.46259,0 0.84189,0.414922 0.84189,0.881521 0,0.431981 -0.3186,0.804257 -0.73603,0.858944 l 0.7586,1.285406 h -0.53031 z m -0.59102,-0.430476 h 0.97835 c 0.23531,0 0.42546,-0.214234 0.42546,-0.451046 0,-0.233299 -0.19015,-0.458572 -0.42546,-0.458572 l -0.0306,0.0055 -0.94774,-0.0055 z"
     id="path26"
     inkscape:connector-curvature="0"
     style="fill:#010101" />
</svg>
