<?xml version="1.0" encoding="UTF-8" standalone="no"?>
<svg
   xmlns:dc="http://purl.org/dc/elements/1.1/"
   xmlns:cc="http://creativecommons.org/ns#"
   xmlns:rdf="http://www.w3.org/1999/02/22-rdf-syntax-ns#"
   xmlns:svg="http://www.w3.org/2000/svg"
   xmlns="http://www.w3.org/2000/svg"
   xmlns:sodipodi="http://sodipodi.sourceforge.net/DTD/sodipodi-0.dtd"
   xmlns:inkscape="http://www.inkscape.org/namespaces/inkscape"
   width="739"
   height="101.6689"
   version="1"
   id="svg8"
   sodipodi:docname="logo.svg"
   inkscape:version="0.92.4 5da689c313, 2019-01-14">
  <metadata
     id="metadata14">
    <rdf:RDF>
      <cc:Work
         rdf:about="">
        <dc:format>image/svg+xml</dc:format>
        <dc:type
           rdf:resource="http://purl.org/dc/dcmitype/StillImage" />
      </cc:Work>
    </rdf:RDF>
  </metadata>
  <defs
     id="defs12" />
  <sodipodi:namedview
     pagecolor="#ffffff"
     bordercolor="#666666"
     borderopacity="1"
     objecttolerance="10"
     gridtolerance="10"
     guidetolerance="10"
     inkscape:pageopacity="0"
     inkscape:pageshadow="2"
     inkscape:window-width="471"
     inkscape:window-height="442"
     id="namedview10"
     showgrid="false"
     inkscape:zoom="0.36107179"
     inkscape:cx="368.18295"
     inkscape:cy="50.83445"
     inkscape:window-x="0"
     inkscape:window-y="0"
     inkscape:window-maximized="0"
     inkscape:current-layer="svg8" />
  <path
     d="m 451.85477,91.41569 c 0,1.07926 -0.88502,2.050578 -1.9751,2.050578 H 412.083 c -1.10087,0 -1.98589,-0.971318 -1.98589,-2.050578 V 64.10966 c 0,-1.07926 0.88502,-1.94271 1.98589,-1.94271 h 37.79667 c 1.09008,0 1.9751,0.86345 1.9751,1.94271 z M 450.21425,53.9644 h -38.47662 c -5.56913,0 -10.11293,4.533 -10.11293,10.14526 v 27.41389 c 0,5.504398 4.5438,10.14535 10.11293,10.14535 h 38.47662 c 5.57992,0 10.11293,-4.640952 10.11293,-10.14535 V 64.10966 c 0,-5.61226 -4.53301,-10.14526 -10.11293,-10.14526"
     id="path2"
     inkscape:connector-curvature="0"
     style="fill:#929497" />
  <path
     d="M 8.828578,12.95143 V 48.24412 H 0 V 0.53962 H 7.544221 L 43.30104,35.29269 V 0.53962 h 8.70985 v 47.7045 H 45.11424 L 8.828578,12.95143"
     id="path4"
     inkscape:connector-curvature="0"
     style="fill:#221f1f" />
  <path
     d="M 97.340999,12.95143 V 48.24412 H 88.512422 V 0.53962 h 7.533417 L 131.80266,35.29269 V 0.53962 h 8.72066 v 47.7045 h -6.89666 L 97.340999,12.95143 m 183.446601,0 v 35.29269 h -8.82858 V 0.53962 h 7.53343 l 35.75682,34.75307 V 0.53962 h 8.72065 v 47.7045 h -6.88586 L 280.7876,12.95143 M 73.035422,0.53962 h 1.62973 v 47.7045 h -8.82858 V 0.53962 h 7.19885 m 127.615028,0 h 1.61893 v 8.20255 h -21.28355 v 39.50195 h -9.17396 V 8.74217 H 150.52831 V 0.53962 h 50.12214 m 56.55471,0 h 1.6513 v 8.20255 h -37.83984 v 10.68497 h 29.2703 v 8.20263 h -29.2703 v 12.4118 h 37.83984 v 8.20255 H 212.27439 V 0.53962 h 44.93077 M 373.05594,40.04157 H 345.94422 V 8.74217 h 27.11172 c 8.4832,0 11.49442,8.41843 11.49442,15.64966 0,7.12337 -3.01122,15.64974 -11.49442,15.64974 z M 387.53999,7.55497 C 384.08627,2.91402 378.98123,0.53962 372.80771,0.53962 h -35.37907 v 47.7045 h 35.37907 c 6.17352,0 11.27856,-2.48235 14.73228,-7.01535 3.23786,-4.20926 4.95393,-10.0374 4.95393,-16.83694 0,-6.79946 -1.71607,-12.6276 -4.95393,-16.83686 m 64.31478,30.54389 c 0,0.97131 -0.88502,1.94271 -1.9751,1.94271 H 412.083 c -1.10087,0 -1.98589,-0.9714 -1.98589,-1.94271 V 10.68488 c 0,-1.07925 0.88502,-1.94271 1.98589,-1.94271 h 37.79667 c 1.09008,0 1.9751,0.86346 1.9751,1.94271 z M 450.21425,0.53962 h -38.47662 c -5.56913,0 -10.11293,4.53301 -10.11293,10.14526 v 27.41398 c 0,5.61226 4.5438,10.14526 10.11293,10.14526 h 38.47662 c 5.57992,0 10.11293,-4.533 10.11293,-10.14526 V 10.68488 c 0,-5.61225 -4.53301,-10.14526 -10.11293,-10.14526 m 160.27429,80.94662 c 9.15236,3.66954 28.48239,6.58365 43.57084,6.58365 16.51311,0 23.34504,-5.61234 23.34504,-12.73563 0,-6.47571 -6.34627,-10.14534 -24.57542,-16.83686 C 628.44787,49.53926 610.56409,42.41597 610.56409,26.33454 610.56409,9.82151 632.08512,0 664.88467,0 c 17.61397,0 23.658,1.07925 34.83942,3.12991 l 0.0864,15.7576 c -10.98721,-2.05065 -20.72237,-5.61234 -35.8432,-5.61234 -16.21087,0 -23.11836,5.18057 -23.11836,10.46909 0,7.663 10.6418,11.33254 29.30272,18.02414 25.97842,9.28189 40.43009,16.40517 40.43009,32.05483 0,16.18938 -18.09962,27.84567 -58.9183,27.84567 -16.76139,0 -28.32053,-1.07926 -41.17485,-3.237862 V 81.48624 M 523.6059,13.92274 h -19.42719 v 73.60752 h 19.42719 c 29.82072,0 48.63272,-12.84357 48.63272,-36.69586 0,-23.8522 -18.812,-36.91166 -48.63272,-36.91166 z m 52.1404,80.406978 c -9.60566,4.3172 -27.78087,7.123292 -43.66799,7.123292 H 471.3575 V 0.2158 h 60.72076 c 15.88712,0 34.06233,2.80617 43.68958,7.12328 23.38818,10.57703 31.00795,27.52192 31.00795,43.49532 0,15.97349 -7.55501,32.91829 -31.02954,43.495318 M 716.67969,86.34298 h -3.89623 v -1.40309 h 9.48698 v 1.40309 h -3.91781 v 11.332538 h -1.67294 V 86.34298 m 17.75428,5.72029 c -0.0971,-1.72692 -0.205,-3.88543 -0.205,-5.50441 h -0.0432 c -0.45336,1.51103 -0.9714,3.12992 -1.61897,4.85683 l -2.25575,6.259828 h -1.25197 l -2.09374,-6.151968 c -0.60448,-1.83477 -1.10094,-3.45366 -1.45706,-4.96469 h -0.0432 c -0.0324,1.61898 -0.12953,3.77749 -0.23747,5.61226 l -0.34533,5.504398 h -1.5758 l 0.89584,-12.735628 h 2.10463 l 2.1801,6.15198 c 0.52884,1.61897 0.94982,3.021968 1.29515,4.317198 h 0.0324 c 0.34542,-1.29523 0.79869,-2.698228 1.3707,-4.317198 l 2.27734,-6.15198 h 2.10454 l 0.79869,12.735628 h -1.62968 l -0.30224,-5.612248"
     id="path6"
     inkscape:connector-curvature="0"
     style="fill:#221e1f" />
</svg>
