<?xml version="1.0" encoding="UTF-8" standalone="no"?>
<svg
   xmlns:dc="http://purl.org/dc/elements/1.1/"
   xmlns:cc="http://creativecommons.org/ns#"
   xmlns:rdf="http://www.w3.org/1999/02/22-rdf-syntax-ns#"
   xmlns:svg="http://www.w3.org/2000/svg"
   xmlns="http://www.w3.org/2000/svg"
   xmlns:sodipodi="http://sodipodi.sourceforge.net/DTD/sodipodi-0.dtd"
   xmlns:inkscape="http://www.inkscape.org/namespaces/inkscape"
   viewBox="0 0 162.596 89.911999"
   version="1.1"
   id="svg266"
   sodipodi:docname="consolegame.svg"
   width="162.59599"
   height="89.912003"
   inkscape:version="0.92.4 5da689c313, 2019-01-14">
  <metadata
     id="metadata272">
    <rdf:RDF>
      <cc:Work
         rdf:about="">
        <dc:format>image/svg+xml</dc:format>
        <dc:type
           rdf:resource="http://purl.org/dc/dcmitype/StillImage" />
      </cc:Work>
    </rdf:RDF>
  </metadata>
  <defs
     id="defs270" />
  <sodipodi:namedview
     pagecolor="#ffffff"
     bordercolor="#666666"
     borderopacity="1"
     objecttolerance="10"
     gridtolerance="10"
     guidetolerance="10"
     inkscape:pageopacity="0"
     inkscape:pageshadow="2"
     inkscape:window-width="640"
     inkscape:window-height="480"
     id="namedview268"
     showgrid="false"
     inkscape:zoom="1.6667077"
     inkscape:cx="81.297997"
     inkscape:cy="44.956498"
     inkscape:window-x="0"
     inkscape:window-y="0"
     inkscape:window-maximized="0"
     inkscape:current-layer="svg266" />
  <path
     d="M 16.115,88.641 3.807,88.11 C 1.912,88.151 0,85.938 0,84.459 L 0.016,2.818 A 2.696,2.696 0 0 1 2.704,0.13 h 94.705 a 2.695,2.695 0 0 1 2.688,2.688 l 0.016,81.641 c 0,1.479 -1.911,3.692 -3.808,3.651 L 83.997,88.64 70.179,89.236 50.057,89.411 29.934,89.236 Z"
     id="path2"
     inkscape:connector-curvature="0"
     style="fill:#595959" />
  <path
     d="M 50.06,89.911 29.93,89.736 16.094,89.14 c -3.057,0 -3.655,-4.387 -3.943,-6.495 L 12.146,0.135 h 1 v 82.443 c 0.353,2.554 1.014,5.563 2.969,5.563 l 13.84,0.596 20.104,0.175 20.114,-0.175 13.8,-0.596 c 1.978,0 2.639,-3.009 2.997,-5.63 L 86.966,0.135 h 1 v 82.443 c -0.292,2.176 -0.891,6.563 -3.97,6.563 l -2.138,0.093 -11.659,0.503 z M 0,50.381 h 12.148 v 1 H 0 Z m 87.966,0 h 12.146 v 1 H 87.966 Z"
     id="path4"
     inkscape:connector-curvature="0"
     style="fill:#4d4d4d" />
  <circle
     cx="2.3280001"
     cy="3.0999999"
     r="0.38499999"
     id="circle6"
     style="fill:#666666" />
  <path
     d="m 2.328,3.535 a 0.435,0.435 0 1 1 0,-0.87 0.435,0.435 0 0 1 0,0.87 z m 0,-0.771 a 0.335,0.335 0 1 0 0,0.67 0.335,0.335 0 0 0 0,-0.67 z"
     id="path8"
     inkscape:connector-curvature="0"
     style="fill:#3d3d3d" />
  <path
     d="M 6.752,3.199 A 0.385,0.385 0 1 1 6.367,2.814 c 0.213,0 0.385,0.172 0.385,0.385 z"
     id="path10"
     inkscape:connector-curvature="0"
     style="fill:#666666" />
  <path
     d="m 6.367,3.634 a 0.435,0.435 0 1 1 0,-0.87 0.435,0.435 0 0 1 0,0.87 z m 0,-0.77 a 0.335,0.335 0 1 0 0,0.67 0.335,0.335 0 0 0 0,-0.67 z"
     id="path12"
     inkscape:connector-curvature="0"
     style="fill:#3d3d3d" />
  <path
     d="m 10.791,3.299 a 0.385,0.385 0 1 1 -0.77,0 0.385,0.385 0 0 1 0.77,0 z"
     id="path14"
     inkscape:connector-curvature="0"
     style="fill:#666666" />
  <path
     d="m 10.405,3.734 a 0.435,0.435 0 1 1 0,-0.87 0.435,0.435 0 0 1 0,0.87 z m 0,-0.771 a 0.335,0.335 0 1 0 0,0.67 0.335,0.335 0 0 0 0,-0.67 z"
     id="path16"
     inkscape:connector-curvature="0"
     style="fill:#3d3d3d" />
  <circle
     cx="2.3280001"
     cy="9.7189999"
     r="0.38499999"
     id="circle18"
     style="fill:#666666" />
  <path
     d="m 2.328,10.154 a 0.435,0.435 0 1 1 0,-0.87 0.435,0.435 0 0 1 0,0.87 z m 0,-0.771 a 0.335,0.335 0 1 0 0,0.67 0.335,0.335 0 0 0 0,-0.67 z"
     id="path20"
     inkscape:connector-curvature="0"
     style="fill:#3d3d3d" />
  <path
     d="M 6.752,9.818 A 0.385,0.385 0 1 1 6.367,9.433 c 0.213,0 0.385,0.172 0.385,0.385 z"
     id="path22"
     inkscape:connector-curvature="0"
     style="fill:#666666" />
  <path
     d="m 6.367,10.253 a 0.435,0.435 0 1 1 0,-0.87 0.435,0.435 0 0 1 0,0.87 z m 0,-0.77 a 0.335,0.335 0 1 0 0,0.67 0.335,0.335 0 0 0 0,-0.67 z"
     id="path24"
     inkscape:connector-curvature="0"
     style="fill:#3d3d3d" />
  <path
     d="m 10.791,9.918 a 0.385,0.385 0 1 1 -0.77,0 0.385,0.385 0 0 1 0.77,0 z"
     id="path26"
     inkscape:connector-curvature="0"
     style="fill:#666666" />
  <path
     d="m 10.405,10.353 a 0.435,0.435 0 1 1 0,-0.87 0.435,0.435 0 0 1 0,0.87 z m 0,-0.77 a 0.335,0.335 0 1 0 0,0.67 0.335,0.335 0 0 0 0,-0.67 z"
     id="path28"
     inkscape:connector-curvature="0"
     style="fill:#3d3d3d" />
  <path
     d="m 2.713,16.338 a 0.385,0.385 0 1 1 -0.77,0 0.385,0.385 0 1 1 0.77,0 z"
     id="path30"
     inkscape:connector-curvature="0"
     style="fill:#666666" />
  <path
     d="m 2.328,16.773 a 0.435,0.435 0 1 1 0,-0.87 0.435,0.435 0 0 1 0,0.87 z m 0,-0.771 a 0.335,0.335 0 1 0 0,0.67 0.335,0.335 0 0 0 0,-0.67 z"
     id="path32"
     inkscape:connector-curvature="0"
     style="fill:#3d3d3d" />
  <path
     d="M 6.752,16.438 A 0.385,0.385 0 1 1 6.367,16.052 c 0.213,0 0.385,0.173 0.385,0.386 z"
     id="path34"
     inkscape:connector-curvature="0"
     style="fill:#666666" />
  <path
     d="m 6.367,16.873 a 0.435,0.435 0 1 1 0,-0.87 0.435,0.435 0 0 1 0,0.87 z m 0,-0.771 a 0.335,0.335 0 1 0 0,0.67 0.335,0.335 0 0 0 0,-0.67 z"
     id="path36"
     inkscape:connector-curvature="0"
     style="fill:#3d3d3d" />
  <path
     d="m 10.791,16.537 a 0.385,0.385 0 1 1 -0.77,0 0.385,0.385 0 0 1 0.77,0 z"
     id="path38"
     inkscape:connector-curvature="0"
     style="fill:#666666" />
  <path
     d="m 10.405,16.972 a 0.435,0.435 0 1 1 0,-0.87 0.435,0.435 0 0 1 0,0.87 z m 0,-0.77 a 0.335,0.335 0 1 0 0,0.67 0.335,0.335 0 0 0 0,-0.67 z"
     id="path40"
     inkscape:connector-curvature="0"
     style="fill:#3d3d3d" />
  <path
     d="m 2.713,22.957 a 0.385,0.385 0 1 1 -0.77,0 0.385,0.385 0 1 1 0.77,0 z"
     id="path42"
     inkscape:connector-curvature="0"
     style="fill:#666666" />
  <path
     d="m 2.328,23.392 a 0.435,0.435 0 1 1 0,-0.87 0.435,0.435 0 0 1 0,0.87 z m 0,-0.77 a 0.335,0.335 0 1 0 0,0.67 0.335,0.335 0 0 0 0,-0.67 z"
     id="path44"
     inkscape:connector-curvature="0"
     style="fill:#3d3d3d" />
  <path
     d="M 6.752,23.057 A 0.385,0.385 0 1 1 6.367,22.671 c 0.213,0 0.385,0.173 0.385,0.386 z"
     id="path46"
     inkscape:connector-curvature="0"
     style="fill:#666666" />
  <path
     d="m 6.367,23.492 a 0.435,0.435 0 1 1 0,-0.87 0.435,0.435 0 0 1 0,0.87 z m 0,-0.771 a 0.335,0.335 0 1 0 0,0.67 0.335,0.335 0 0 0 0,-0.67 z"
     id="path48"
     inkscape:connector-curvature="0"
     style="fill:#3d3d3d" />
  <circle
     cx="2.3280001"
     cy="29.625"
     r="0.38499999"
     id="circle50"
     style="fill:#666666" />
  <path
     d="m 2.328,30.061 a 0.435,0.435 0 1 1 0,-0.87 0.435,0.435 0 0 1 0,0.87 z m 0,-0.771 a 0.335,0.335 0 1 0 0,0.67 0.335,0.335 0 0 0 0,-0.67 z"
     id="path52"
     inkscape:connector-curvature="0"
     style="fill:#3d3d3d" />
  <circle
     cx="97.782997"
     cy="3.098"
     r="0.38499999"
     id="circle54"
     style="fill:#666666" />
  <path
     d="m 97.348,3.098 a 0.436,0.436 0 1 1 0.871,0.001 0.436,0.436 0 0 1 -0.871,-0.001 z m 0.099,0 a 0.335,0.335 0 1 0 0.67,0 0.335,0.335 0 0 0 -0.67,0 z"
     id="path56"
     inkscape:connector-curvature="0"
     style="fill:#3d3d3d" />
  <path
     d="m 93.359,3.197 a 0.385,0.385 0 1 0 0.77,0 0.385,0.385 0 0 0 -0.77,0 z"
     id="path58"
     inkscape:connector-curvature="0"
     style="fill:#666666" />
  <path
     d="M 93.31,3.197 A 0.436,0.436 0 1 1 94.181,3.198 0.436,0.436 0 0 1 93.31,3.197 Z m 0.099,0 a 0.335,0.335 0 1 0 0.67,0 0.335,0.335 0 0 0 -0.67,0 z"
     id="path60"
     inkscape:connector-curvature="0"
     style="fill:#3d3d3d" />
  <path
     d="M 89.321,3.297 A 0.385,0.385 0 1 0 89.706,2.912 0.385,0.385 0 0 0 89.321,3.297 Z"
     id="path62"
     inkscape:connector-curvature="0"
     style="fill:#666666" />
  <path
     d="m 89.271,3.297 a 0.435,0.435 0 1 1 0.87,0 0.435,0.435 0 0 1 -0.87,0 z m 0.1,0 a 0.335,0.335 0 1 0 0.67,0 0.335,0.335 0 0 0 -0.67,0 z"
     id="path64"
     inkscape:connector-curvature="0"
     style="fill:#3d3d3d" />
  <path
     d="m 97.397,9.717 a 0.385,0.385 0 1 0 0.77,0 0.385,0.385 0 0 0 -0.77,0 z"
     id="path66"
     inkscape:connector-curvature="0"
     style="fill:#666666" />
  <path
     d="m 97.348,9.717 a 0.436,0.436 0 1 1 0.871,10e-4 0.436,0.436 0 0 1 -0.871,-10e-4 z m 0.099,0 a 0.335,0.335 0 1 0 0.67,0 0.335,0.335 0 0 0 -0.67,0 z"
     id="path68"
     inkscape:connector-curvature="0"
     style="fill:#3d3d3d" />
  <path
     d="m 93.359,9.816 a 0.385,0.385 0 1 0 0.77,0 0.385,0.385 0 0 0 -0.77,0 z"
     id="path70"
     inkscape:connector-curvature="0"
     style="fill:#666666" />
  <path
     d="M 93.31,9.816 A 0.436,0.436 0 1 1 94.181,9.817 0.436,0.436 0 0 1 93.31,9.816 Z m 0.099,0 a 0.335,0.335 0 1 0 0.67,0 0.335,0.335 0 0 0 -0.67,0 z"
     id="path72"
     inkscape:connector-curvature="0"
     style="fill:#3d3d3d" />
  <path
     d="M 89.321,9.916 A 0.385,0.385 0 1 0 89.706,9.53 0.385,0.385 0 0 0 89.321,9.916 Z"
     id="path74"
     inkscape:connector-curvature="0"
     style="fill:#666666" />
  <path
     d="m 89.271,9.916 a 0.435,0.435 0 1 1 0.87,0 0.435,0.435 0 0 1 -0.87,0 z m 0.1,0 a 0.335,0.335 0 1 0 0.67,0 0.335,0.335 0 0 0 -0.67,0 z"
     id="path76"
     inkscape:connector-curvature="0"
     style="fill:#3d3d3d" />
  <path
     d="m 97.397,16.336 a 0.385,0.385 0 1 0 0.77,0 0.385,0.385 0 0 0 -0.77,0 z"
     id="path78"
     inkscape:connector-curvature="0"
     style="fill:#666666" />
  <path
     d="m 97.348,16.336 a 0.436,0.436 0 1 1 0.871,0.001 0.436,0.436 0 0 1 -0.871,-0.001 z m 0.099,0 a 0.335,0.335 0 1 0 0.67,0 0.335,0.335 0 0 0 -0.67,0 z"
     id="path80"
     inkscape:connector-curvature="0"
     style="fill:#3d3d3d" />
  <path
     d="m 93.359,16.436 a 0.385,0.385 0 1 0 0.77,0 0.385,0.385 0 0 0 -0.77,0 z"
     id="path82"
     inkscape:connector-curvature="0"
     style="fill:#666666" />
  <path
     d="m 93.31,16.436 a 0.436,0.436 0 1 1 0.871,0.001 0.436,0.436 0 0 1 -0.871,-0.001 z m 0.099,0 a 0.335,0.335 0 1 0 0.67,0 0.335,0.335 0 0 0 -0.67,0 z"
     id="path84"
     inkscape:connector-curvature="0"
     style="fill:#3d3d3d" />
  <path
     d="m 89.321,16.535 a 0.385,0.385 0 1 0 0.385,-0.386 0.385,0.385 0 0 0 -0.385,0.386 z"
     id="path86"
     inkscape:connector-curvature="0"
     style="fill:#666666" />
  <path
     d="m 89.271,16.535 a 0.435,0.435 0 1 1 0.87,0 0.435,0.435 0 0 1 -0.87,0 z m 0.1,0 a 0.335,0.335 0 1 0 0.67,0 0.335,0.335 0 0 0 -0.67,0 z"
     id="path88"
     inkscape:connector-curvature="0"
     style="fill:#3d3d3d" />
  <path
     d="m 97.397,22.955 a 0.386,0.386 0 1 0 0.772,0 0.386,0.386 0 0 0 -0.772,0 z"
     id="path90"
     inkscape:connector-curvature="0"
     style="fill:#666666" />
  <path
     d="m 97.348,22.955 a 0.436,0.436 0 1 1 0.871,0.001 0.436,0.436 0 0 1 -0.871,-0.001 z m 0.099,0 a 0.335,0.335 0 1 0 0.67,0 0.335,0.335 0 0 0 -0.67,0 z"
     id="path92"
     inkscape:connector-curvature="0"
     style="fill:#3d3d3d" />
  <path
     d="m 93.359,23.054 a 0.386,0.386 0 1 0 0.772,0 0.386,0.386 0 0 0 -0.772,0 z"
     id="path94"
     inkscape:connector-curvature="0"
     style="fill:#666666" />
  <path
     d="m 93.31,23.054 a 0.436,0.436 0 1 1 0.871,0.001 0.436,0.436 0 0 1 -0.871,-0.001 z m 0.099,0 a 0.335,0.335 0 1 0 0.67,0 0.335,0.335 0 0 0 -0.67,0 z"
     id="path96"
     inkscape:connector-curvature="0"
     style="fill:#3d3d3d" />
  <circle
     cx="97.782997"
     cy="29.624001"
     r="0.38499999"
     id="circle98"
     style="fill:#666666" />
  <path
     d="m 97.348,29.624 a 0.436,0.436 0 1 1 0.871,0.001 0.436,0.436 0 0 1 -0.871,-0.001 z m 0.099,0 a 0.335,0.335 0 1 0 0.67,0 0.335,0.335 0 0 0 -0.67,0 z"
     id="path100"
     inkscape:connector-curvature="0"
     style="fill:#3d3d3d" />
  <path
     d="m 50.019,78.932 h -3.467 c -1.13,0 -2.235,-0.104 -3.285,-0.309 C 32.023,76.425 21.017,72.86 20.663,55.904 l -0.956,-13.82 c -0.572,-16.925 2.338,-18.547 7.984,-19.355 0.523,-0.075 9.982,-2.083 19.387,-2.083 0.982,0 1.934,-0.045 2.94,-0.036 1.012,-0.005 2.032,0.036 3.015,0.036 9.404,0 18.864,2.008 19.388,2.083 5.646,0.808 8.556,2.43 7.984,19.355 l -0.956,13.82 C 79.095,72.86 68.088,76.425 56.845,78.623 55.795,78.828 54.69,78.932 53.56,78.932 H 50.093 M 29.547,24.001 c -5.839,1.067 -9.334,-0.51 -8.709,18.004 l 0.958,13.875 c 0.32,15.345 9.164,19.181 21.688,21.629 1.01,0.197 2.039,0.288 3.067,0.288 h 6.934 a 16.02,16.02 0 0 0 3.067,-0.288 C 69.076,75.061 77.919,71.225 78.24,55.88 l 0.958,-13.875 c 0.625,-18.514 -2.87,-16.937 -8.709,-18.004 0,0 -9.759,-1.11 -20.472,-1.354 -10.074,-0.046 -20.47,1.354 -20.47,1.354 z"
     id="path102"
     inkscape:connector-curvature="0"
     style="fill:#424142" />
  <path
     d="m 50.054,81.631 c -15.45,0 -26.631,-4.254 -36.91,-8.675 v -0.817 c 10.208,4.391 21.603,8.742 36.91,8.742 15.307,0 26.706,-4.352 36.914,-8.742 v 0.816 c -10.28,4.421 -21.465,8.676 -36.914,8.676 z"
     id="path104"
     inkscape:connector-curvature="0"
     style="fill:#4d4d4d" />
  <path
     d="m 13.143,72.961 c 10.279,4.421 21.46,8.675 36.911,8.675 15.449,0 26.634,-4.256 36.914,-8.677 v 9.553 c -0.358,2.621 -1.02,5.63 -2.997,5.63 l -13.8,0.596 -20.114,0.175 -20.104,-0.175 -13.84,-0.596 c -1.955,0 -2.616,-3.009 -2.969,-5.563 v -9.618 z"
     id="path106"
     inkscape:connector-curvature="0"
     style="fill:#131316" />
  <path
     d="m 34.534,86.631 h -2.247 l -0.064,-0.064 v -0.914 l 0.064,-0.064 h 2.247 l 0.064,0.064 v 0.914 z"
     id="path108"
     inkscape:connector-curvature="0"
     style="fill:#7cba1c" />
  <path
     d="m 67.824,86.631 h -2.247 l -0.064,-0.064 v -0.914 l 0.064,-0.064 h 2.247 l 0.064,0.064 v 0.914 z"
     id="path110"
     inkscape:connector-curvature="0"
     style="fill:#f98b38" />
  <g
     id="g120"
     style="fill:#464749">
    <path
       d="M 50.579,36.045 A 0.327,0.327 0 0 1 50.252,35.718 V 34.68 c 0,-0.18 0.146,-0.326 0.326,-0.326 h 1.074 v -0.327 h -1.077 a 0.653,0.653 0 0 0 -0.653,0.653 v 1.038 c 0,0.361 0.295,0.653 0.656,0.653 l 1.074,10e-4 v -1.538 h -0.923 v 0.326 h 0.597 v 0.885 h -0.747 m -4.501,0.329 1.04,-0.001 a 0.77,0.77 0 0 0 0,-1.54 l -0.27,0.001 -0.039,-0.039 0.039,-0.039 h 1.037 v -0.325 h -1.038 a 0.3635,0.3635 0 1 0 0,0.727 l 0.271,0.003 a 0.4405,0.4405 0 1 1 0,0.881 h -1.04 v 0.332"
       id="path112"
       inkscape:connector-curvature="0" />
    <path
       d="m 46.078,35.967 h 1.04 a 0.364,0.364 0 1 0 0,-0.727 l -0.271,-0.003 a 0.4405,0.4405 0 1 1 0,-0.881 h 1.038 v -0.328 h -1.037 a 0.77,0.77 0 0 0 0,1.54 h 0.269 l 0.038,0.038 -0.038,0.037 -1.038,10e-4 -10e-4,0.323 m 2.615,0.079 a 0.328,0.328 0 0 1 -0.328,-0.328 v -1.041 c 0,-0.177 0.147,-0.323 0.328,-0.323 h 1.109 V 34.027 H 48.693 A 0.653,0.653 0 0 0 48.04,34.68 v 1.038 c 0,0.361 0.292,0.653 0.653,0.653 l 1.104,10e-4 v -0.327 l -1.104,10e-4"
       id="path114"
       inkscape:connector-curvature="0" />
    <path
       d="m 48.444,34.679 c 0,-0.138 0.111,-0.249 0.249,-0.249 h 1.109 v 0.326 h -0.956 l -0.077,0.077 h 0.797 v 0.326 h -1.122 v -0.48 m 0.249,1.288 a 0.249,0.249 0 0 1 -0.249,-0.249 v -0.48 h 1.122 v 0.327 h -0.797 l 0.077,0.076 h 0.951 v 0.326 h -1.104 m 1.636,-0.249 a 0.25,0.25 0 0 0 0.249,0.251 h 0.671 V 35.237 H 50.73 v 0.328 h 0.192 l 0.001,0.076 h -0.192 l -0.077,-0.076 -0.001,-0.731 0.077,-0.077 h 0.922 l -10e-4,-0.326 -1.074,0.001 a 0.248,0.248 0 0 0 -0.249,0.249 v 1.037 m 2.334,-1.293 0.1,-0.072 0.101,0.073 0.521,1.544 h -0.763 v -0.363 h 0.256 l -0.116,-0.343 -0.373,1.107 h -0.386 l 0.66,-1.946"
       id="path116"
       inkscape:connector-curvature="0" />
    <path
       d="m 53.49,36.045 h -0.868 v 0.326 h 1.32 l -0.687,-2.038 a 0.509,0.509 0 0 0 -0.494,-0.344 0.508,0.508 0 0 0 -0.493,0.344 l -0.693,2.038 h 0.346 l 0.672,-1.981 0.168,-0.111 0.167,0.111 0.562,1.655"
       id="path118"
       inkscape:connector-curvature="0" />
  </g>
  <path
     d="m 50.035,82.798 h 7.219 v 1.535 c 0,1.149 -0.891,1.774 -2.04,1.774 l -5.179,0.315 h 0.04 l -5.177,-0.315 c -1.149,0 -2.041,-0.625 -2.041,-1.774 v -1.535 h 7.218"
     id="path122"
     inkscape:connector-curvature="0"
     style="fill:#005ad1" />
  <path
     d="m 50.075,86.673 v -0.002 l -0.015,0.002 -0.005,-0.001 -0.005,0.001 v -0.001 l -5.168,-0.314 h -10e-4 c -1.355,0 -2.275,-0.813 -2.275,-2.024 v -1.785 h 14.897 v 1.785 c 0,1.211 -0.921,2.024 -2.291,2.024 z m -6.968,-3.625 v 1.285 c 0,1.124 0.925,1.524 1.791,1.524 l 5.158,0.313 5.142,-0.313 c 0.882,0 1.807,-0.4 1.807,-1.524 v -1.285 z"
     id="path124"
     inkscape:connector-curvature="0"
     style="fill:#2b2629" />
  <g
     id="g128"
     style="fill:#034572">
    <path
       d="m 48.85,84.422 c 0,0.395 -0.188,0.713 -0.611,0.713 -0.408,0 -0.593,-0.317 -0.593,-0.715 0,-0.346 0.186,-0.696 0.611,-0.696 0.403,0 0.593,0.319 0.593,0.698 z M 47.897,84.42 c 0,0.29 0.117,0.52 0.353,0.52 0.254,0 0.352,-0.218 0.352,-0.518 0,-0.273 -0.098,-0.503 -0.354,-0.503 -0.246,0 -0.351,0.223 -0.351,0.501 z m 1.209,-0.678 h 0.49 c 0.257,0 0.471,0.133 0.471,0.4 0,0.279 -0.203,0.422 -0.494,0.422 h -0.224 v 0.551 h -0.243 z m 0.243,0.629 h 0.21 c 0.159,0 0.262,-0.058 0.262,-0.224 0,-0.147 -0.104,-0.211 -0.255,-0.211 H 49.35 v 0.435 z M 51.123,84.5 H 50.52 v 0.415 h 0.666 l -0.031,0.2 h -0.873 v -1.373 h 0.867 v 0.202 H 50.52 v 0.353 h 0.603 z m 0.272,0.615 v -1.373 h 0.313 c 0.455,0.884 0.524,1.018 0.546,1.082 h 0.004 a 8.231,8.231 0 0 1 -0.016,-0.617 v -0.465 h 0.224 v 1.373 h -0.297 a 39.284,39.284 0 0 1 -0.56,-1.122 h -0.002 c 0.011,0.175 0.011,0.41 0.011,0.656 v 0.466 z"
       id="path126"
       inkscape:connector-curvature="0" />
  </g>
  <path
     d="m 22.648,85.709 a 1.938,1.938 0 0 0 3.05,-2.234 c 0.229,-0.249 0.432,-0.5 0.602,-0.75 0.864,-1.268 0.606,-2.042 0.375,-2.392 -0.205,-0.311 -0.638,-0.68 -1.537,-0.68 -1.07,0 -2.52,0.536 -3.878,1.435 -2.045,1.351 -3.67,3.394 -2.819,4.684 0.205,0.311 0.638,0.68 1.536,0.68 0.755,-0.001 1.701,-0.268 2.671,-0.743 z"
     id="path130"
     inkscape:connector-curvature="0"
     style="fill:#2b2629" />
  <path
     d="m 19.977,86.576 c -0.954,0 -1.419,-0.4 -1.641,-0.735 -0.897,-1.359 0.757,-3.473 2.854,-4.857 1.378,-0.911 2.854,-1.455 3.947,-1.455 0.955,0 1.419,0.4 1.641,0.735 0.248,0.376 0.528,1.204 -0.376,2.531 a 6.791,6.791 0 0 1 -0.56,0.705 2.065,2.065 0 0 1 -3.214,2.357 c -0.967,0.464 -1.906,0.719 -2.651,0.719 z m 5.161,-6.798 c -1.046,0 -2.47,0.528 -3.81,1.414 -1.994,1.316 -3.59,3.288 -2.783,4.51 0.188,0.285 0.588,0.624 1.432,0.624 0.726,0 1.655,-0.259 2.616,-0.729 l 0.075,-0.036 0.063,0.055 a 1.812,1.812 0 0 0 3.003,-1.368 c 0,-0.252 -0.051,-0.495 -0.15,-0.724 L 25.55,83.45 25.605,83.389 c 0.227,-0.246 0.426,-0.494 0.59,-0.735 0.823,-1.206 0.588,-1.929 0.375,-2.253 -0.187,-0.284 -0.589,-0.623 -1.432,-0.623 z"
     id="path132"
     inkscape:connector-curvature="0"
     style="fill:#110d0e" />
  <g
     id="g136"
     style="fill:#abb0ab">
    <path
       d="m 30.272,84.067 c 0,0.077 -0.055,0.116 -0.165,0.116 h -0.436 v 0.453 h -0.27 v -1.25 h 0.706 c 0.11,0 0.165,0.038 0.165,0.114 z M 30,84.023 v -0.477 h -0.329 v 0.477 z m 1.857,0.499 c 0,0.076 -0.054,0.114 -0.163,0.114 h -0.585 c -0.107,0 -0.16,-0.038 -0.16,-0.114 v -1.021 c 0,-0.076 0.053,-0.114 0.16,-0.114 h 0.585 c 0.109,0 0.163,0.038 0.163,0.114 z m -0.269,-0.045 v -0.93 h -0.37 v 0.93 z m 2.302,-1.09 -0.264,1.252 H 33.362 L 33.2,83.93 a 2.18,2.18 0 0 0 -0.009,-0.114 c 0,0.025 -0.003,0.063 -0.009,0.114 l -0.16,0.709 h -0.265 l -0.264,-1.252 h 0.273 l 0.14,0.741 0.009,0.114 c 10e-4,-0.025 0.004,-0.063 0.011,-0.114 l 0.155,-0.741 h 0.221 l 0.155,0.741 0.01,0.114 a 2.18,2.18 0 0 1 0.009,-0.114 l 0.14,-0.741 z m 1.384,1.25 h -0.747 v -1.25 h 0.74 v 0.165 h -0.471 v 0.365 h 0.405 v 0.162 h -0.405 v 0.393 h 0.478 z m 1.593,0 h -0.281 l -0.297,-0.581 v -0.112 h 0.265 v -0.396 h -0.339 v 1.09 h -0.27 v -1.25 h 0.715 c 0.108,0 0.163,0.038 0.163,0.114 v 0.455 c 0,0.053 -0.026,0.087 -0.077,0.103 a 0.79,0.79 0 0 1 -0.175,0.012 z"
       id="path134"
       inkscape:connector-curvature="0" />
  </g>
  <g
     id="g140"
     style="fill:#abb0ab">
    <path
       d="M 63.752,84.637 H 63.484 L 63.43,84.4 h -0.338 l -0.054,0.237 h -0.266 v -0.003 l 0.349,-1.249 h 0.283 z m -0.359,-0.398 -0.131,-0.564 -0.133,0.564 z m 1.883,0.283 c 0,0.076 -0.055,0.114 -0.165,0.114 H 64.55 c -0.107,0 -0.16,-0.038 -0.16,-0.114 v -1.021 c 0,-0.076 0.053,-0.114 0.16,-0.114 h 0.562 c 0.11,0 0.165,0.038 0.165,0.114 v 0.293 h -0.269 v -0.247 h -0.349 v 0.93 h 0.349 v -0.264 h 0.269 v 0.309 z m 1.585,0 c 0,0.076 -0.055,0.114 -0.165,0.114 h -0.562 c -0.107,0 -0.16,-0.038 -0.16,-0.114 v -1.021 c 0,-0.076 0.053,-0.114 0.16,-0.114 h 0.562 c 0.11,0 0.165,0.038 0.165,0.114 v 0.293 h -0.269 v -0.247 h -0.349 v 0.93 h 0.349 v -0.264 h 0.269 z m 1.446,0.115 H 67.56 v -1.25 h 0.74 v 0.165 h -0.471 v 0.365 h 0.405 v 0.162 h -0.405 v 0.393 h 0.478 z m 1.534,-0.115 c 0,0.076 -0.055,0.114 -0.163,0.114 h -0.543 c -0.107,0 -0.162,-0.038 -0.162,-0.114 v -0.298 h 0.27 v 0.255 h 0.329 v -0.245 l -0.54,-0.355 c -0.039,-0.025 -0.059,-0.059 -0.059,-0.1 v -0.278 c 0,-0.076 0.055,-0.114 0.162,-0.114 h 0.543 c 0.108,0 0.163,0.037 0.163,0.113 v 0.279 h -0.27 v -0.235 h -0.329 v 0.226 l 0.54,0.354 c 0.039,0.025 0.059,0.06 0.059,0.102 z m 1.564,0 c 0,0.076 -0.055,0.114 -0.163,0.114 h -0.543 c -0.107,0 -0.162,-0.038 -0.162,-0.114 v -0.298 h 0.27 v 0.255 h 0.329 v -0.245 l -0.54,-0.355 c -0.039,-0.025 -0.059,-0.059 -0.059,-0.1 v -0.278 c 0,-0.076 0.055,-0.114 0.162,-0.114 h 0.543 c 0.108,0 0.163,0.037 0.163,0.113 v 0.279 h -0.27 v -0.235 h -0.329 v 0.226 l 0.54,0.354 c 0.039,0.025 0.059,0.06 0.059,0.102 z"
       id="path138"
       inkscape:connector-curvature="0" />
  </g>
  <path
     d="m 77.648,85.705 a 1.94,1.94 0 0 0 3.049,-2.234 c 0.229,-0.249 0.432,-0.501 0.603,-0.75 0.864,-1.268 0.605,-2.043 0.375,-2.393 -0.205,-0.311 -0.638,-0.68 -1.536,-0.68 -1.07,0 -2.52,0.537 -3.879,1.436 -2.045,1.35 -3.67,3.393 -2.818,4.684 0.205,0.311 0.638,0.68 1.536,0.68 0.754,-10e-4 1.701,-0.269 2.67,-0.743 z"
     id="path142"
     inkscape:connector-curvature="0"
     style="fill:#2b2629" />
  <path
     d="m 74.977,86.572 c -0.953,0 -1.418,-0.4 -1.64,-0.735 -0.896,-1.36 0.757,-3.474 2.854,-4.857 1.38,-0.912 2.855,-1.456 3.948,-1.456 0.954,0 1.419,0.4 1.641,0.735 0.248,0.377 0.528,1.206 -0.377,2.532 -0.16,0.234 -0.348,0.471 -0.56,0.705 a 2.065,2.065 0 0 1 -3.213,2.357 c -0.971,0.464 -1.91,0.719 -2.653,0.719 z m 5.162,-6.799 c -1.045,0 -2.47,0.529 -3.81,1.415 -1.994,1.315 -3.59,3.287 -2.783,4.511 0.188,0.284 0.589,0.623 1.431,0.623 0.725,0 1.654,-0.259 2.617,-0.729 l 0.074,-0.036 0.063,0.055 a 1.815,1.815 0 0 0 2.853,-2.092 l -0.033,-0.074 0.056,-0.061 c 0.226,-0.244 0.424,-0.492 0.59,-0.735 0.823,-1.206 0.589,-1.93 0.375,-2.254 -0.189,-0.284 -0.591,-0.623 -1.433,-0.623 z"
     id="path144"
     inkscape:connector-curvature="0"
     style="fill:#110d0e" />
  <path
     d="m 23.543,84.544 c -2.012,1.329 -4.085,1.739 -4.629,0.915 -0.544,-0.824 0.646,-2.569 2.658,-3.898 2.013,-1.33 4.085,-1.739 4.629,-0.915 0.545,0.823 -0.645,2.569 -2.658,3.898 z"
     id="path146"
     inkscape:connector-curvature="0"
     style="fill:#005ad1" />
  <g
     id="g150"
     style="fill:#034572">
    <path
       d="m 21.039,83.941 0.095,0.248 -0.079,0.19 -0.214,0.167 0.241,0.309 -0.154,0.12 -0.675,-0.865 0.352,-0.274 0.222,-0.055 z m -0.158,0.106 -0.091,-0.067 -0.093,0.021 -0.175,0.137 0.203,0.259 0.179,-0.14 0.027,-0.096 z m 1.081,-0.563 a 0.643,0.643 0 0 1 0.156,0.405 0.404,0.404 0 0 1 -0.164,0.326 0.397,0.397 0 0 1 -0.373,0.076 0.67,0.67 0 0 1 -0.341,-0.249 0.668,0.668 0 0 1 -0.157,-0.378 0.408,0.408 0 0 1 0.17,-0.359 0.39,0.39 0 0 1 0.368,-0.071 c 0.126,0.037 0.24,0.12 0.341,0.25 z M 21.815,83.6 a 0.472,0.472 0 0 0 -0.229,-0.176 l -0.22,0.045 -0.093,0.198 a 0.466,0.466 0 0 0 0.111,0.26 0.472,0.472 0 0 0 0.232,0.176 l 0.226,-0.046 0.084,-0.198 z m 0.795,-1.329 0.466,1.028 -0.138,0.107 -0.637,-0.561 0.39,0.754 -0.138,0.108 -0.885,-0.702 0.163,-0.127 0.621,0.558 -0.394,-0.735 0.163,-0.127 0.622,0.567 -0.396,-0.744 z m 1.327,0.356 -0.559,0.436 -0.675,-0.866 0.541,-0.423 0.116,0.149 -0.387,0.303 0.153,0.197 0.358,-0.279 0.116,0.147 -0.358,0.279 0.175,0.224 0.404,-0.315 z m 0.738,-0.576 -0.166,0.129 -0.099,-0.084 -0.102,-0.13 -0.073,-0.066 -0.103,0.024 -0.183,0.143 0.267,0.342 -0.154,0.12 -0.675,-0.865 0.42,-0.328 0.164,-0.04 0.208,0.137 c 0.072,0.092 0.09,0.189 0.053,0.294 l 0.169,0.048 0.172,0.204 0.075,0.04 z m -0.635,-0.495 -0.167,-0.032 -0.215,0.168 0.177,0.227 0.212,-0.166 0.032,-0.089 z"
       id="path148"
       inkscape:connector-curvature="0" />
  </g>
  <path
     d="m 78.543,84.539 c -2.012,1.33 -4.084,1.739 -4.629,0.915 -0.544,-0.823 0.646,-2.569 2.658,-3.898 2.013,-1.329 4.085,-1.738 4.629,-0.915 0.545,0.824 -0.645,2.569 -2.658,3.898 z"
     id="path152"
     inkscape:connector-curvature="0"
     style="fill:#005ad1" />
  <g
     id="g156"
     style="fill:#034572">
    <path
       d="m 76.897,84.22 -0.166,0.13 -0.099,-0.085 -0.102,-0.13 -0.073,-0.065 -0.103,0.023 -0.183,0.143 0.267,0.342 -0.153,0.12 -0.676,-0.865 0.42,-0.328 0.164,-0.039 0.207,0.137 a 0.29,0.29 0 0 1 0.053,0.293 l 0.17,0.049 0.173,0.203 0.075,0.04 z m -0.634,-0.494 -0.168,-0.033 -0.215,0.167 0.177,0.227 0.212,-0.165 0.032,-0.09 z m 1.32,-0.041 -0.559,0.435 -0.674,-0.865 0.541,-0.422 0.115,0.148 -0.387,0.303 0.153,0.197 0.358,-0.279 0.116,0.148 -0.357,0.279 0.174,0.224 0.405,-0.317 z m 0.495,-0.797 c 0.07,0.09 0.097,0.181 0.08,0.272 a 0.424,0.424 0 0 1 -0.174,0.254 0.376,0.376 0 0 1 -0.271,0.092 0.407,0.407 0 0 1 -0.253,-0.139 l 0.148,-0.116 c 0.084,0.085 0.177,0.088 0.277,0.01 l 0.088,-0.117 -0.023,-0.115 -0.197,-0.038 -0.214,0.103 -0.182,0.018 -0.159,-0.105 -0.079,-0.257 0.15,-0.234 a 0.394,0.394 0 0 1 0.275,-0.099 l 0.237,0.144 -0.144,0.112 -0.124,-0.063 -0.142,0.052 -0.045,0.214 0.163,0.023 0.188,-0.085 0.209,-0.049 z m 0.872,-0.271 -0.558,0.437 -0.676,-0.866 0.541,-0.422 0.116,0.148 -0.388,0.303 0.155,0.197 0.357,-0.279 0.116,0.147 -0.358,0.28 0.175,0.223 0.404,-0.316 z m 0.097,-1.229 -0.218,0.171 0.56,0.716 -0.154,0.121 -0.559,-0.717 -0.227,0.176 -0.116,-0.148 0.599,-0.468 z"
       id="path154"
       inkscape:connector-curvature="0" />
  </g>
  <path
     d="M 50.074,4.506 H 32.256 v 1.25 h -4.74 v 4.512 c 0,0.646 0.529,1.175 1.175,1.175 H 71.42 c 0.646,0 1.175,-0.529 1.175,-1.175 V 5.756 H 67.856 V 4.506 H 50.037"
     id="path158"
     inkscape:connector-curvature="0"
     style="fill:#232323" />
  <path
     d="M 71.42,11.693 H 28.691 A 1.426,1.426 0 0 1 27.266,10.268 V 5.506 h 4.739 v -1.25 h 36.1 v 1.25 h 4.739 v 4.762 A 1.425,1.425 0 0 1 71.42,11.693 Z M 27.767,6.006 v 4.262 c 0,0.51 0.415,0.925 0.925,0.925 H 71.42 c 0.51,0 0.925,-0.415 0.925,-0.925 V 6.006 h -4.739 v -1.25 h -35.1 v 1.25 z"
     id="path160"
     inkscape:connector-curvature="0"
     style="fill:#191517" />
  <path
     d="m 32.506,4.756 h 35.1 v 6.438 h -35.1 z"
     id="path162"
     inkscape:connector-curvature="0"
     style="fill:#2d2d2d" />
  <path
     d="M 62.599,9.483 H 37.513 c -0.853,0 -1.551,-0.698 -1.551,-1.551 0,-0.853 0.698,-1.551 1.551,-1.551 h 25.086 c 0.853,0 1.551,0.698 1.551,1.551 0,0.853 -0.699,1.551 -1.551,1.551 z"
     id="path164"
     inkscape:connector-curvature="0"
     style="fill:#282627" />
  <path
     d="M 42.963,8.062 A 0.511,0.511 0 0 1 42.775,8.435 0.623,0.623 0 0 1 42.383,8.55 0.519,0.519 0 0 1 41.962,8.363 C 41.859,8.238 41.807,8.069 41.807,7.855 c 0,-0.198 0.051,-0.359 0.153,-0.482 a 0.548,0.548 0 0 1 0.448,-0.196 c 0.16,0 0.291,0.043 0.395,0.129 a 0.435,0.435 0 0 1 0.16,0.337 H 42.706 L 42.613,7.47 42.416,7.402 A 0.299,0.299 0 0 0 42.163,7.527 0.549,0.549 0 0 0 42.07,7.863 c 0,0.14 0.031,0.251 0.092,0.334 a 0.292,0.292 0 0 0 0.245,0.123 l 0.205,-0.071 0.09,-0.187 z M 44.294,8.51 H 44.018 L 43.926,8.247 H 43.44 L 43.35,8.51 h -0.274 l 0.457,-1.312 h 0.312 z M 43.862,8.022 43.689,7.511 43.527,8.022 Z M 45.546,8.51 H 45.254 L 45.218,8.359 V 8.161 L 45.195,8.046 45.062,7.992 h -0.32 V 8.51 h -0.27 V 7.198 h 0.738 l 0.212,0.083 a 0.36,0.36 0 0 1 0.11,0.281 0.341,0.341 0 0 1 -0.192,0.317 c 0.093,0.05 0.142,0.107 0.144,0.169 l 0.014,0.32 0.049,0.092 V 8.51 Z M 45.274,7.578 c 0,-0.103 -0.052,-0.155 -0.155,-0.155 h -0.378 v 0.344 h 0.373 l 0.111,-0.06 z M 46.703,7.423 H 46.32 V 8.51 H 46.05 V 7.423 H 45.652 V 7.198 h 1.051 z M 47.946,8.51 H 47.654 L 47.618,8.359 V 8.161 L 47.595,8.046 47.462,7.992 h -0.32 V 8.51 h -0.27 V 7.198 h 0.738 l 0.212,0.083 a 0.36,0.36 0 0 1 0.11,0.281 0.341,0.341 0 0 1 -0.192,0.317 c 0.093,0.05 0.142,0.107 0.144,0.169 l 0.014,0.32 0.049,0.092 V 8.51 Z M 47.674,7.578 c 0,-0.103 -0.052,-0.155 -0.155,-0.155 h -0.378 v 0.344 h 0.373 l 0.111,-0.06 z m 0.468,-0.38 h 0.27 V 8.51 h -0.27 z m 1.61,0.61 A 0.844,0.844 0 0 1 49.605,8.31 c -0.094,0.133 -0.203,0.2 -0.328,0.2 H 48.665 V 7.198 h 0.632 c 0.104,0 0.202,0.05 0.293,0.149 a 0.656,0.656 0 0 1 0.162,0.461 z M 49.481,7.83 c 0,-0.107 -0.022,-0.2 -0.067,-0.279 L 49.238,7.425 h -0.302 v 0.86 h 0.249 L 49.399,8.163 A 0.59,0.59 0 0 0 49.481,7.83 Z m 1.628,0.686 H 50.946 L 50.914,8.354 A 0.49,0.49 0 0 1 50.498,8.55 c -0.162,0 -0.3,-0.06 -0.412,-0.18 A 0.695,0.695 0 0 1 49.904,7.873 c 0,-0.211 0.058,-0.38 0.173,-0.507 a 0.597,0.597 0 0 1 0.46,-0.19 c 0.166,0 0.299,0.041 0.398,0.121 a 0.495,0.495 0 0 1 0.174,0.317 H 50.862 C 50.813,7.47 50.705,7.398 50.538,7.398 a 0.34,0.34 0 0 0 -0.274,0.123 0.501,0.501 0 0 0 -0.103,0.33 c 0,0.139 0.036,0.254 0.108,0.345 a 0.335,0.335 0 0 0 0.274,0.137 L 50.772,8.247 50.884,8.029 H 50.581 V 7.805 h 0.527 V 8.516 Z M 52.35,8.51 H 51.369 V 7.198 h 0.95 v 0.225 h -0.68 v 0.299 h 0.629 v 0.225 h -0.629 v 0.338 h 0.711 z m 0.693,-1.312 h 0.27 V 8.51 h -0.27 z M 54.618,8.51 H 54.351 L 53.82,7.594 V 8.51 H 53.551 V 7.198 h 0.265 l 0.532,0.9 v -0.9 h 0.27 z M 55.867,7.618 A 0.44,0.44 0 0 1 55.759,7.921 0.322,0.322 0 0 1 55.511,8.043 H 55.135 V 8.51 H 54.864 V 7.198 h 0.618 c 0.127,0 0.223,0.037 0.287,0.111 a 0.451,0.451 0 0 1 0.098,0.309 z M 55.606,7.601 55.562,7.472 55.442,7.423 h -0.308 v 0.395 h 0.314 l 0.112,-0.07 z m 1.499,0.539 a 0.366,0.366 0 0 1 -0.124,0.275 c -0.1,0.091 -0.238,0.137 -0.416,0.137 A 0.508,0.508 0 0 1 56.211,8.421 0.394,0.394 0 0 1 56.065,8.122 V 7.198 h 0.271 v 0.927 l 0.067,0.136 0.168,0.055 c 0.177,0 0.265,-0.063 0.265,-0.191 V 7.198 h 0.271 V 8.14 Z M 58.304,7.423 H 57.921 V 8.51 H 57.65 V 7.423 H 57.253 V 7.198 h 1.051 z"
     id="path166"
     inkscape:connector-curvature="0"
     style="fill:#191718" />
  <path
     d="m 50.056,15.193 c 8.906,0 17.187,0.666 23.409,2.013 a 0.41,0.41 0 0 0 0.461,-0.224 c 0.762,-1.61 1.147,-3.52 1.469,-5.577 C 76.208,6.2 77.795,1.927 79.007,0 c -1.185,1.883 -2.316,6.348 -3.118,11.482 -0.339,2.17 -0.713,4.26 -1.561,5.968 a 0.678,0.678 0 0 1 -0.609,0.376 l -0.15,-0.017 c -6.207,-1.365 -14.558,-2.116 -23.513,-2.116 -8.956,0 -17.306,0.751 -23.513,2.116 l -0.15,0.017 A 0.677,0.677 0 0 1 25.784,17.45 C 24.936,15.742 24.562,13.652 24.223,11.482 23.42,6.348 22.289,1.883 21.104,0 c 1.212,1.927 2.799,6.2 3.612,11.405 0.321,2.058 0.708,3.967 1.469,5.577 a 0.41,0.41 0 0 0 0.461,0.224 c 6.223,-1.347 14.504,-2.013 23.41,-2.013 z"
     id="path168"
     inkscape:connector-curvature="0"
     style="fill:#3f3f3f" />
  <ellipse
     cx="50.056"
     cy="47.646"
     rx="25.875"
     ry="3.234"
     id="ellipse170"
     style="fill:#454545" />
  <path
     d="m 48.261,50.873 c 0.765,-0.494 7.897,-6.371 15.492,-5.968 7.293,0.572 12.141,1.586 12.141,2.742 0,1.786 -11.585,3.234 -25.875,3.234 -0.591,0 -1.177,-0.003 -1.758,-0.008 z"
     id="path172"
     inkscape:connector-curvature="0"
     style="fill:#1c1c1c" />
  <path
     d="m 47.388,74.352 c -0.676,0.776 -1.375,1.275 -1.562,1.112 -0.187,-0.162 0.209,-0.924 0.885,-1.701 0.675,-0.776 1.375,-1.275 1.562,-1.112 0.186,0.162 -0.21,0.923 -0.885,1.701 z m 3,0 c -0.676,0.776 -1.375,1.275 -1.562,1.112 -0.187,-0.162 0.209,-0.924 0.885,-1.701 0.676,-0.776 1.375,-1.275 1.562,-1.112 0.186,0.162 -0.21,0.923 -0.885,1.701 z m 3.012,0 c -0.676,0.776 -1.375,1.275 -1.562,1.112 -0.187,-0.162 0.209,-0.924 0.885,-1.701 0.676,-0.776 1.375,-1.275 1.562,-1.112 0.187,0.162 -0.209,0.923 -0.885,1.701 z"
     id="path174"
     inkscape:connector-curvature="0"
     style="fill:#4c4c4c" />
  <g
     id="g204"
     style="fill:#abb0ab">
    <path
       d="m 38.297,54.826 a 6.024,6.024 0 0 0 -0.419,0.225 c -0.288,0.172 -0.523,0.352 -0.68,0.564 -0.157,0.212 -0.226,0.506 -0.096,0.752 0.111,0.209 0.348,0.28 0.561,0.282 0.213,0.002 0.447,-0.047 0.71,-0.121 0.526,-0.148 1.16,-0.408 1.785,-0.658 0.625,-0.25 1.242,-0.49 1.692,-0.598 0.224,-0.054 0.409,-0.07 0.505,-0.057 l 0.074,0.023 0.007,0.015 c 0.022,0.092 0.012,0.151 -0.046,0.241 -0.058,0.09 -0.175,0.2 -0.354,0.314 a 3.203,3.203 0 0 1 -0.193,0.113 2.019,2.019 0 0 1 -0.198,0.641 c 0.25,-0.11 0.469,-0.223 0.654,-0.341 0.215,-0.137 0.388,-0.282 0.503,-0.462 a 0.801,0.801 0 0 0 0.11,-0.619 0.526,0.526 0 0 0 -0.187,-0.29 0.65,0.65 0 0 0 -0.301,-0.118 c -0.209,-0.03 -0.434,0.004 -0.688,0.065 -0.509,0.122 -1.133,0.369 -1.759,0.62 -0.627,0.251 -1.257,0.506 -1.737,0.641 -0.24,0.068 -0.444,0.104 -0.572,0.103 -0.128,-0.001 -0.133,-0.022 -0.133,-0.022 -0.037,-0.069 -0.035,-0.108 0.056,-0.232 0.088,-0.119 0.267,-0.27 0.508,-0.417 0.063,-0.362 0.109,-0.483 0.198,-0.664 z"
       id="path176"
       inkscape:connector-curvature="0" />
    <path
       d="m 39.975,53.799 -0.064,0.003 c 0.125,0.114 0.24,0.219 0.287,0.267 0.09,0.093 0.441,0.414 0.553,0.531 0.076,0.077 0.303,0.298 0.409,0.398 0.092,0.087 0.06,0.018 0.18,0.137 0.196,0.195 0.342,0.357 0.52,0.53 l -0.009,-0.162 c -0.074,-0.139 -0.23,-0.228 -0.341,-0.322 -0.069,-0.059 -0.13,-0.086 -0.18,-0.138 l -0.167,-0.172 c -0.017,-0.023 -0.639,-0.647 -1.049,-1.066 z m -0.201,0.011 -0.186,0.029 c 0.171,0.159 0.363,0.329 0.427,0.396 0.089,0.093 0.444,0.392 0.556,0.509 0.076,0.077 0.258,0.251 0.364,0.35 0.093,0.087 0.103,0.087 0.223,0.207 0.234,0.232 0.398,0.437 0.627,0.648 l 0.05,0.048 c 0.012,-0.066 0.019,-0.133 0.023,-0.2 -0.186,-0.161 -0.398,-0.346 -0.582,-0.503 -0.069,-0.059 -0.13,-0.086 -0.18,-0.138 L 40.929,54.984 C 40.91,54.959 40.171,54.219 39.774,53.81 Z m 0.557,0.024 c 0.148,0.146 0.582,0.559 0.684,0.664 0.075,0.077 0.339,0.321 0.444,0.421 0.092,0.087 -0.003,-0.017 0.117,0.102 0.086,0.085 0.161,0.163 0.234,0.24 l -0.049,-0.174 -0.029,-0.023 c -0.069,-0.059 -0.13,-0.086 -0.18,-0.138 l -0.02,-0.044 c -0.015,-0.02 -0.554,-0.554 -0.992,-0.994 a 1.83,1.83 0 0 0 -0.209,-0.054 z m -0.859,0.035 -0.151,0.049 c 0.187,0.177 0.432,0.393 0.506,0.47 0.089,0.093 0.444,0.393 0.556,0.509 0.076,0.077 0.219,0.203 0.325,0.302 0.092,0.087 0.065,0.101 0.185,0.22 0.234,0.232 0.475,0.472 0.703,0.683 l 0.17,0.166 0.05,-0.184 A 48.113,48.113 0 0 0 41.084,55.446 C 41.015,55.387 40.982,55.332 40.932,55.28 L 40.741,55.142 C 40.72,55.115 39.837,54.244 39.472,53.869 Z m -0.252,0.088 -0.168,0.083 c 0.189,0.185 0.484,0.432 0.568,0.519 0.09,0.093 0.453,0.412 0.565,0.529 0.076,0.077 0.108,0.083 0.214,0.182 0.092,0.087 0.183,0.166 0.303,0.285 0.234,0.232 0.468,0.527 0.697,0.738 0.093,0.086 0.18,0.183 0.247,0.266 0.034,-0.065 0.065,-0.133 0.091,-0.201 -0.221,-0.201 -0.58,-0.525 -0.856,-0.759 -0.069,-0.059 -0.086,-0.114 -0.137,-0.166 l -0.246,-0.15 C 40.476,55.255 39.524,54.28 39.22,53.957 Z m 1.659,0.075 c 0.152,0.146 0.303,0.292 0.358,0.349 0.054,0.055 0.206,0.186 0.328,0.293 a 1.879,1.879 0 0 0 -0.686,-0.642 z m -1.898,0.052 -0.137,0.094 c 0.188,0.186 0.422,0.389 0.507,0.478 0.09,0.093 0.49,0.412 0.602,0.529 0.076,0.077 0.077,0.072 0.183,0.171 0.092,0.087 0.214,0.177 0.334,0.296 0.234,0.232 0.468,0.527 0.697,0.738 0.167,0.154 0.309,0.297 0.366,0.356 l 0.077,-0.124 a 51.018,51.018 0 0 1 -1.164,-1.143 l -0.209,-0.115 c -0.023,-0.031 -1.016,-1.022 -1.256,-1.28 z m -0.191,0.135 -0.128,0.114 0.039,0.093 c 0.184,0.171 0.448,0.389 0.533,0.478 0.09,0.093 0.49,0.412 0.602,0.529 0.075,0.077 0.077,0.072 0.183,0.171 0.272,0.255 0.704,0.701 1.017,1.03 0.139,0.145 0.266,0.261 0.333,0.32 l 0.118,-0.143 c -0.059,-0.051 -1.051,-0.915 -1.4,-1.28 L 39.88,55.344 c -0.021,-0.03 -0.796,-0.815 -1.09,-1.125 z m -0.187,0.172 -0.12,0.141 c 0.181,0.171 0.486,0.443 0.578,0.538 0.089,0.093 0.304,0.261 0.416,0.378 0.075,0.077 0.216,0.219 0.322,0.319 0.272,0.255 0.71,0.716 1.024,1.045 0.173,0.182 0.294,0.305 0.331,0.343 l 0.161,-0.143 A 69.276,69.276 0 0 1 39.84,55.576 l -0.09,-0.039 c -0.022,-0.032 -0.941,-0.922 -1.147,-1.146 z m -0.153,0.188 -0.109,0.169 c 0.165,0.142 0.523,0.478 0.618,0.577 0.079,0.083 0.127,0.122 0.19,0.187 l 0.152,0.152 c 0.075,0.077 0.026,0.012 0.132,0.111 0.42,0.394 1.422,1.385 1.544,1.506 l 0.157,-0.11 C 41.002,57.045 40.003,56.094 39.667,55.742 L 39.468,55.624 C 39.446,55.595 38.68,54.827 38.45,54.579 Z m -0.127,0.199 a 1.74,1.74 0 0 0 -0.107,0.227 c 0.152,0.133 0.531,0.5 0.642,0.59 0.099,0.08 0.114,0.099 0.177,0.164 0.054,0.077 0.169,0.128 0.21,0.165 0.42,0.395 1.381,1.368 1.494,1.484 a 1.86,1.86 0 0 0 0.203,-0.106 c -0.157,-0.142 -1.3,-1.172 -1.636,-1.523 l -0.273,-0.277 c -0.023,-0.031 -0.529,-0.525 -0.71,-0.724 z m -0.118,0.258 a 2.2,2.2 0 0 0 -0.064,0.214 c 0.133,0.118 0.54,0.544 0.659,0.633 0.115,0.087 0.031,0.038 0.094,0.104 l -0.018,-0.096 c 0.075,0.077 0.181,0.201 0.287,0.301 a 115.11,115.11 0 0 1 1.347,1.303 l 0.169,-0.059 A 82.06,82.06 0 0 1 39.058,55.857 L 38.952,55.788 C 38.95,55.762 38.374,55.225 38.205,55.036 Z m -0.07,0.243 c -0.03,0.133 -0.046,0.27 -0.047,0.407 10e-4,0.938 0.69,1.732 1.618,1.866 -0.349,-0.329 -0.937,-0.888 -1.173,-1.148 l -0.202,0.006 c -0.006,-0.219 -0.043,-0.319 -0.028,-0.319 0.011,10e-4 0.053,0.062 0.163,0.176 0.186,0.193 0.929,0.922 1.307,1.292 0.067,0.008 0.134,0.012 0.202,0.013 l 0.135,-0.007 a 69.093,69.093 0 0 1 -1.283,-1.268 l -0.355,-0.244 -0.334,-0.395 c 0.051,0.024 0.247,0.218 0.384,0.321 0.115,0.086 0.179,0.119 0.242,0.184 l 0.115,0.116 c 0.075,0.077 0.172,0.188 0.28,0.285 0.357,0.321 0.832,0.793 1.033,0.995 0.084,-0.01 0.167,-0.026 0.249,-0.047 -0.189,-0.176 -1.295,-1.209 -1.625,-1.554 L 38.705,55.911 C 38.704,55.887 38.31,55.477 38.146,55.292 Z"
       id="path178"
       inkscape:connector-curvature="0" />
    <path
       d="m 38.866,56.916 c -0.649,0.106 -1.048,0.087 -1.048,0.087 a 0.245,0.245 0 0 0 -0.022,0.488 c 0,0 0.558,0.024 1.415,-0.143 -0.07,-0.117 -0.217,-0.258 -0.345,-0.432 z m 2.733,-2.943 a 6.643,6.643 0 0 0 -0.725,0.055 c 0.237,0.136 0.316,0.258 0.504,0.441 0.482,-0.028 0.781,0.015 0.781,0.015 A 0.245,0.245 0 1 0 42.229,54 c 0,0 -0.238,-0.034 -0.63,-0.027 z"
       id="path180"
       inkscape:connector-curvature="0" />
    <g
       id="g202">
      <path
         d="m 44.023,56.638 -0.327,-0.595 c -0.003,-0.057 0.014,-0.085 0.05,-0.085 l 0.324,0.243 c 0.085,0.064 0.187,0.124 0.305,0.18 a 0.785,0.785 0 0 0 0.349,0.08 0.544,0.544 0 0 0 0.32,-0.109 c 0.09,-0.09 0.1,-0.178 0.031,-0.265 a 1.089,1.089 0 0 0 -0.336,-0.255 4.82,4.82 0 0 1 -0.497,-0.313 c -0.176,-0.125 -0.284,-0.222 -0.324,-0.291 a 0.454,0.454 0 0 1 -0.045,-0.272 c 0.011,-0.113 0.103,-0.221 0.275,-0.322 0.096,-0.048 0.203,-0.079 0.322,-0.095 0.12,-0.015 0.239,-0.022 0.358,-0.022 0.119,0 0.238,0.007 0.358,0.019 l 0.595,0.058 a 0.113,0.113 0 0 1 0.081,0.045 l 0.107,0.479 c 0.003,0.035 -0.011,0.035 -0.04,0 a 0.867,0.867 0 0 0 -0.386,-0.269 3.557,3.557 0 0 0 -0.43,-0.116 1.463,1.463 0 0 0 -0.456,-0.019 0.187,0.187 0 0 0 -0.121,0.119 c -0.021,0.058 10e-4,0.123 0.065,0.194 0.063,0.071 0.182,0.144 0.354,0.215 0.171,0.071 0.329,0.163 0.472,0.275 0.144,0.112 0.242,0.223 0.296,0.331 a 0.545,0.545 0 0 1 0.045,0.35 c -0.024,0.124 -0.056,0.204 -0.095,0.241 a 0.937,0.937 0 0 1 -0.559,0.236 c -0.256,0 -0.411,-0.007 -0.463,-0.021 a 1.18,1.18 0 0 0 -0.284,-0.013 c -0.138,0.004 -0.224,0.013 -0.26,0.026 -0.036,0.013 -0.064,0.004 -0.084,-0.029 z"
         id="path182"
         inkscape:connector-curvature="0" />
      <path
         d="m 45.903,55.026 c 0,-0.191 -0.057,-0.303 -0.17,-0.336 -0.03,-0.015 -0.045,-0.031 -0.045,-0.049 0,-0.019 0.023,-0.033 0.071,-0.045 h 1.845 c 0.048,0 0.079,0.014 0.094,0.04 0.11,0.164 0.181,0.372 0.211,0.622 0,0.036 -0.016,0.036 -0.045,0 A 8.154,8.154 0 0 0 47.64,55.015 0.911,0.911 0 0 0 47.377,54.847 1.338,1.338 0 0 0 46.905,54.74 h -0.144 c -0.191,0 -0.286,0.071 -0.286,0.215 v 0.537 a 0.141,0.141 0 0 0 0.089,0.04 0.76,0.76 0 0 0 0.237,-0.063 c 0.123,-0.045 0.253,-0.13 0.39,-0.255 0.048,0 0.072,0.023 0.072,0.071 v 0.627 c 0,0.048 -0.024,0.071 -0.072,0.071 a 1.222,1.222 0 0 0 -0.39,-0.255 0.792,0.792 0 0 0 -0.237,-0.063 0.139,0.139 0 0 0 -0.089,0.04 v 0.608 c 0,0.126 0.095,0.188 0.286,0.188 h 0.144 a 1.25,1.25 0 0 0 0.472,-0.116 c 0.121,-0.063 0.209,-0.122 0.263,-0.177 0.054,-0.056 0.137,-0.133 0.25,-0.231 0.03,-0.032 0.045,-0.029 0.045,0.01 a 1.378,1.378 0 0 1 -0.237,0.645 c -0.015,0.026 -0.046,0.04 -0.094,0.04 h -1.845 c -0.048,-0.012 -0.071,-0.027 -0.071,-0.045 0,-0.018 0.015,-0.034 0.045,-0.049 0.113,-0.033 0.17,-0.073 0.17,-0.121 z"
         id="path184"
         inkscape:connector-curvature="0" />
      <path
         d="m 47.515,55.671 c 0,-0.294 0.118,-0.55 0.355,-0.767 0.237,-0.217 0.549,-0.325 0.934,-0.325 0.176,0.023 0.275,0.038 0.298,0.044 a 0.406,0.406 0 0 0 0.333,-0.057 c 0.058,-0.015 0.095,-0.006 0.112,0.026 0.107,0.212 0.155,0.414 0.144,0.604 -0.024,0.03 -0.05,0.021 -0.076,-0.026 -0.17,-0.209 -0.309,-0.333 -0.415,-0.372 A 1.187,1.187 0 0 0 48.804,54.74 c -0.206,0.012 -0.353,0.093 -0.44,0.244 -0.089,0.15 -0.133,0.379 -0.133,0.687 0,0.257 0.044,0.477 0.133,0.658 a 0.453,0.453 0 0 0 0.44,0.273 c 0.155,-0.03 0.257,-0.08 0.305,-0.15 0.048,-0.07 0.077,-0.153 0.087,-0.248 a 0.274,0.274 0 0 0 -0.083,-0.24 0.396,0.396 0 0 0 -0.228,-0.113 C 48.831,55.8 48.834,55.764 48.894,55.744 h 0.842 c 0.048,0 0.071,0.012 0.071,0.035 0,0.024 -0.021,0.048 -0.063,0.072 -0.065,0.34 -0.179,0.58 -0.338,0.721 a 0.816,0.816 0 0 1 -0.603,0.192 c -0.354,0 -0.652,-0.108 -0.896,-0.325 a 1.09,1.09 0 0 1 -0.392,-0.768 z"
         id="path186"
         inkscape:connector-curvature="0" />
      <path
         d="M 49.194,56.674 C 49.152,56.638 49.146,56.61 49.175,56.589 a 0.442,0.442 0 0 0 0.197,-0.175 L 50.38,54.52 a 0.093,0.093 0 0 1 0.066,-0.031 c 0.024,0 0.05,0.011 0.076,0.031 l 0.837,1.867 c 0.03,0.068 0.098,0.134 0.202,0.196 0.063,0.019 0.07,0.048 0.022,0.09 h -0.708 c -0.065,-0.036 -0.054,-0.068 0.036,-0.099 a 0.29,0.29 0 0 0 0.13,-0.085 c 0.021,-0.029 0.023,-0.07 0.009,-0.121 l -0.461,-1.038 -0.578,1.065 -0.005,0.045 c -0.018,0.035 0.021,0.083 0.117,0.143 0.054,0.024 0.06,0.054 0.019,0.09 h -0.948 z"
         id="path188"
         inkscape:connector-curvature="0" />
      <path
         d="m 51.154,54.955 c -0.048,-0.287 -0.048,-0.525 0,-0.717 0.036,-0.19 0.156,-0.381 0.362,-0.57 0.206,-0.189 0.464,-0.31 0.774,-0.36 0.042,0 0.06,0.021 0.054,0.063 -0.232,0.149 -0.396,0.319 -0.492,0.511 a 0.971,0.971 0 0 0 -0.071,0.645 l 0.071,0.286 0.43,1.146 c 0.236,0.492 0.212,0.97 -0.071,1.432 -0.23,0.29 -0.547,0.511 -0.949,0.663 -0.054,0.006 -0.078,-0.012 -0.071,-0.054 0.37,-0.37 0.566,-0.683 0.591,-0.938 0.023,-0.256 -0.072,-0.623 -0.287,-1.104 z"
         id="path190"
         inkscape:connector-curvature="0" />
      <path
         d="M 52.238,56.674 C 52.196,56.638 52.19,56.61 52.219,56.589 a 0.442,0.442 0 0 0 0.197,-0.175 l 1.008,-1.894 a 0.093,0.093 0 0 1 0.066,-0.031 c 0.024,0 0.05,0.011 0.076,0.031 l 0.837,1.867 c 0.03,0.068 0.098,0.134 0.202,0.196 0.063,0.019 0.07,0.048 0.022,0.09 h -0.708 c -0.065,-0.036 -0.054,-0.068 0.036,-0.099 a 0.29,0.29 0 0 0 0.13,-0.085 c 0.021,-0.029 0.023,-0.07 0.009,-0.121 l -0.461,-1.038 -0.577,1.065 -0.005,0.045 c -0.018,0.035 0.021,0.083 0.116,0.143 0.054,0.024 0.06,0.054 0.019,0.09 h -0.948 z"
         id="path192"
         inkscape:connector-curvature="0" />
      <path
         d="m 54.62,56.584 c 0.143,-0.048 0.215,-0.119 0.215,-0.215 V 54.74 h -0.144 c -0.286,0.032 -0.501,0.089 -0.645,0.17 -0.09,0.048 -0.138,0.051 -0.144,0.009 l 0.184,-0.277 c 0.021,-0.03 0.056,-0.045 0.104,-0.045 h 1.934 c 0.048,0 0.082,0.015 0.103,0.045 l 0.184,0.277 c -0.006,0.042 -0.054,0.039 -0.143,-0.009 -0.144,-0.081 -0.358,-0.138 -0.645,-0.17 h -0.144 v 1.629 c 0,0.096 0.071,0.167 0.215,0.215 0.054,0.019 0.054,0.048 0,0.09 H 54.62 c -0.054,-0.042 -0.054,-0.071 0,-0.09 z"
         id="path194"
         inkscape:connector-curvature="0" />
      <path
         d="m 56.223,56.029 v -1.146 c 0,-0.095 -0.072,-0.155 -0.215,-0.179 -0.054,-0.03 -0.054,-0.065 0,-0.107 h 1.038 c 0.054,0.042 0.054,0.077 0,0.107 -0.143,0.023 -0.215,0.084 -0.215,0.179 v 1.146 a 0.47,0.47 0 0 0 0.156,0.34 c 0.098,0.09 0.216,0.135 0.354,0.135 a 0.487,0.487 0 0 0 0.348,-0.135 c 0.095,-0.089 0.144,-0.261 0.145,-0.515 v -0.972 c 0,-0.095 -0.071,-0.155 -0.215,-0.179 -0.048,-0.03 -0.048,-0.065 0,-0.107 h 0.743 c 0.042,0.026 0.048,0.065 0.018,0.116 -0.196,0.019 -0.295,0.075 -0.295,0.17 v 1.214 c 0.006,0.143 -0.072,0.284 -0.233,0.423 -0.161,0.139 -0.379,0.208 -0.653,0.208 -0.305,-0.006 -0.542,-0.075 -0.713,-0.207 -0.171,-0.132 -0.259,-0.295 -0.263,-0.491 z"
         id="path196"
         inkscape:connector-curvature="0" />
      <path
         d="m 58.366,56.566 c 0.144,-0.036 0.215,-0.102 0.215,-0.197 v -1.414 c 0,-0.144 -0.08,-0.224 -0.241,-0.242 -0.051,-0.036 -0.054,-0.074 -0.009,-0.116 h 1.396 c 0.285,0 0.486,0.057 0.604,0.169 0.118,0.112 0.176,0.247 0.176,0.404 a 0.538,0.538 0 0 1 -0.601,0.546 c 0.012,0.021 0.03,0.039 0.054,0.054 a 0.927,0.927 0 0 1 0.152,0.206 c 0.149,0.274 0.369,0.491 0.658,0.649 l 0.103,0.04 c 0.024,0.023 0.036,0.048 0.036,0.071 0,0.024 -0.023,0.047 -0.071,0.067 h -0.095 c -0.325,-0.036 -0.577,-0.1 -0.756,-0.192 A 1.067,1.067 0 0 1 59.549,56.173 1.343,1.343 0 0 1 59.352,55.64 C 59.331,55.538 59.35,55.507 59.41,55.546 l 0.104,0.018 c 0.09,0.018 0.178,-0.014 0.264,-0.095 a 0.396,0.396 0 0 0 0.13,-0.299 c 0,-0.158 -0.039,-0.274 -0.116,-0.348 a 0.393,0.393 0 0 0 -0.277,-0.109 0.345,0.345 0 0 0 -0.239,0.052 0.168,0.168 0 0 0 -0.048,0.118 v 1.486 c 0,0.096 0.072,0.161 0.215,0.197 0.054,0.018 0.054,0.054 0,0.107 H 58.369 C 58.313,56.62 58.313,56.584 58.366,56.566 Z"
         id="path198"
         inkscape:connector-curvature="0" />
      <path
         d="m 62.593,56.745 -1.504,-1.227 v 1.012 c 0,0.096 0.065,0.161 0.196,0.197 0.054,0.018 0.054,0.048 0,0.09 H 60.64 c -0.054,-0.042 -0.054,-0.072 0,-0.09 0.132,-0.036 0.197,-0.102 0.197,-0.197 v -1.289 a 1.14,1.14 0 0 0 -0.109,-0.293 0.811,0.811 0 0 0 -0.154,-0.199 c -0.058,-0.051 -0.089,-0.09 -0.095,-0.116 0,-0.024 0.016,-0.036 0.045,-0.036 0.313,0.009 0.943,0.418 1.89,1.227 V 54.91 c 0,-0.096 -0.054,-0.164 -0.161,-0.206 -0.045,-0.023 -0.045,-0.051 0,-0.081 h 0.563 c 0.048,0.03 0.048,0.058 0,0.081 -0.107,0.042 -0.161,0.11 -0.161,0.206 v 1.786 c 0,0.045 -0.02,0.062 -0.062,0.049 z"
         id="path200"
         inkscape:connector-curvature="0" />
    </g>
  </g>
  <g
     id="g264">
    <path
       d="m 135.915,89.911 c -14.728,0 -26.681,-11.953 -26.681,-26.681 0,-14.728 11.953,-26.681 26.681,-26.681 14.728,0 26.681,11.953 26.681,26.681 0,14.728 -11.953,26.681 -26.681,26.681 z m 3.922,-26.681 c 0,-2.161 -1.761,-3.922 -3.922,-3.922 -2.161,0 -3.922,1.788 -3.922,3.922 a 3.911,3.911 0 0 0 3.922,3.922 3.91,3.91 0 0 0 3.922,-3.922 z"
       id="path206"
       inkscape:connector-curvature="0"
       style="fill:#f5ec3a" />
    <path
       d="m 159.545,50.84 c -4.467,-8.492 -13.378,-14.29 -23.63,-14.29 -14.723,0 -26.681,11.957 -26.681,26.681 0,14.723 11.957,26.681 26.681,26.681 14.723,0 26.681,-11.958 26.681,-26.681 0,-4.329 -1.034,-8.418 -2.867,-12.035 m 0,-10e-4 c -0.06,-0.119 -0.122,-0.238 -0.184,-0.356 M 156.17,78.74 c -4.664,6.074 -11.985,10.005 -20.255,10.005 -8.27,0 -15.564,-3.904 -20.255,-10.005 -3.308,-4.284 -5.26,-9.68 -5.26,-15.509 0,-14.1 11.415,-25.515 25.515,-25.515 14.1,0 25.515,11.415 25.515,25.515 0,5.829 -1.952,11.225 -5.26,15.509 z"
       id="path208"
       inkscape:connector-curvature="0"
       style="fill:#efe23f" />
    <path
       d="m 156.363,78.486 h -40.896 m -3.318,-5.947 h 47.532"
       id="path210"
       inkscape:connector-curvature="0"
       style="fill:#030306" />
    <path
       d="m 110.905,72.539 a 26.64,26.64 0 0 0 3.125,5.947 h 43.77 a 26.66,26.66 0 0 0 3.123,-5.945 l -0.005,-0.002 h -50.013"
       id="path212"
       inkscape:connector-curvature="0"
       style="fill:#030407" />
    <path
       d="m 121.247,76.89 c -0.234,0 -0.424,-0.211 -0.424,-0.472 v -1.497 c 0,-0.259 0.189,-0.47 0.423,-0.47 h 1.394 V 73.98 h -1.397 c -0.468,0 -0.848,0.421 -0.848,0.942 v 1.497 c 0,0.521 0.383,0.942 0.851,0.942 l 1.394,0.002 v -2.217 h -1.198 v 0.47 h 0.774 v 1.275 h -0.969 m -5.84,0.473 1.349,-0.001 c 0.551,0 0.998,-0.497 0.998,-1.109 0,-0.614 -0.447,-1.109 -0.998,-1.109 l -0.35,0.001 -0.05,-0.056 0.05,-0.056 h 1.345 l 10e-4,-0.469 h -1.346 c -0.261,0 -0.473,0.234 -0.473,0.524 0,0.29 0.212,0.525 0.473,0.525 l 0.352,0.004 c 0.316,0 0.572,0.285 0.572,0.637 0,0.35 -0.256,0.635 -0.572,0.635 h -1.349 l -0.002,0.474"
       id="path214"
       inkscape:connector-curvature="0"
       style="fill:#7a7a62" />
    <path
       d="m 115.408,76.777 h 1.349 c 0.261,0 0.473,-0.235 0.473,-0.523 0,-0.29 -0.212,-0.525 -0.473,-0.525 l -0.352,-0.004 c -0.316,0 -0.572,-0.284 -0.572,-0.636 0,-0.35 0.256,-0.635 0.572,-0.635 h 1.346 l -0.001,-0.473 h -1.345 c -0.551,0 -0.998,0.497 -0.998,1.109 0,0.613 0.447,1.109 0.998,1.109 h 0.348 l 0.049,0.055 -0.049,0.053 -1.347,0.001 0.002,0.469 m 3.391,0.114 c -0.234,0 -0.425,-0.208 -0.425,-0.473 v -1.501 c 0,-0.255 0.191,-0.466 0.425,-0.466 h 1.439 V 73.98 h -1.439 c -0.468,0 -0.848,0.421 -0.848,0.942 v 1.497 c 0,0.521 0.379,0.942 0.848,0.942 l 1.433,0.002 V 76.89 l -1.433,0.001"
       id="path216"
       inkscape:connector-curvature="0"
       style="fill:#7a7a62" />
    <path
       d="m 118.477,74.921 c 0,-0.198 0.144,-0.359 0.322,-0.359 h 1.439 v 0.47 h -1.24 l -0.1,0.111 h 1.034 v 0.47 h -1.456 l 0.001,-0.692 m 0.322,1.856 c -0.178,0 -0.322,-0.16 -0.322,-0.359 l -0.001,-0.693 h 1.456 v 0.472 h -1.034 l 0.1,0.11 h 1.234 v 0.47 h -1.433 m 2.124,-0.359 c 0,0.198 0.144,0.362 0.323,0.362 h 0.87 v -1.056 h -0.673 v 0.473 h 0.25 l 0.001,0.11 h -0.249 l -0.1,-0.11 -0.001,-1.054 0.1,-0.111 h 1.197 l -0.001,-0.47 -1.394,0.002 c -0.179,0 -0.323,0.16 -0.323,0.359 v 1.495 m 3.026,-1.864 0.13,-0.103 0.131,0.105 0.676,2.227 h -0.99 v -0.524 h 0.332 l -0.15,-0.494 -0.485,1.595 h -0.5 l 0.856,-2.806"
       id="path218"
       inkscape:connector-curvature="0"
       style="fill:#7a7a62" />
    <path
       d="m 125.022,76.89 h -1.126 v 0.47 h 1.713 l -0.891,-2.938 a 0.668,0.668 0 0 0 -0.64,-0.496 0.667,0.667 0 0 0 -0.64,0.496 l -0.899,2.938 h 0.449 l 0.872,-2.856 0.218,-0.161 0.217,0.161 0.727,2.386 m 0.333,-2.666 h -0.141 l -0.001,0.4 h -0.098 l -0.002,-0.406 h -0.146 l 0.002,-0.144 h 0.384 z m 0.518,0.4 h -0.099 v -0.447 l -0.085,0.447 h -0.099 l -0.086,-0.445 v 0.445 h -0.098 v -0.55 h 0.144 l 0.09,0.421 0.089,-0.421 h 0.144 z m 28.45,-0.134 -0.002,0.041 c -0.005,0.043 0,0.063 -0.124,0.063 -0.124,0 -0.119,-0.02 -0.124,-0.063 a 2.1,2.1 0 0 1 0,-0.254 c 0.005,-0.043 0,-0.063 0.124,-0.063 0.124,0 0.119,0.02 0.124,0.063 l 0.002,0.043 h 0.17 a 1.08,1.08 0 0 0 -0.005,-0.087 c -0.01,-0.086 0.024,-0.169 -0.291,-0.169 -0.315,0 -0.281,0.082 -0.291,0.169 a 2.07,2.07 0 0 0 0,0.342 c 0.01,0.086 -0.024,0.169 0.291,0.169 0.315,0 0.281,-0.083 0.291,-0.169 0.002,-0.016 0.003,-0.047 0.004,-0.085 z m -2.014,-0.409 -0.166,0.485 -0.165,-0.485 -0.248,-0.001 v 0.65 h 0.165 v -0.484 l 0.166,0.484 h 0.166 l 0.164,-0.484 v 0.484 h 0.166 v -0.65 z m 2.221,-0.001 h 0.476 v 0.166 h -0.155 v 0.484 h -0.166 v -0.484 h -0.155 z m -1.278,0.65 0.19,-0.651 h 0.248 l 0.19,0.651 h -0.166 l -0.039,-0.134 h -0.217 l 0.03,-0.106 h 0.156 l -0.077,-0.265 -0.149,0.505 z m -1.921,-0.516 c 0.124,0 0.119,0.02 0.124,0.063 a 2.1,2.1 0 0 1 0,0.254 c -0.005,0.043 0,0.063 -0.124,0.063 -0.124,0 -0.119,-0.02 -0.124,-0.063 a 2.1,2.1 0 0 1 0,-0.254 c 0.004,-0.043 -0.001,-0.063 0.124,-0.063 v -0.15 c -0.315,0 -0.281,0.082 -0.291,0.169 a 2.07,2.07 0 0 0 0,0.342 c 0.01,0.086 -0.024,0.169 0.291,0.169 0.315,0 0.281,-0.083 0.291,-0.169 a 2.654,2.654 0 0 0 0,-0.342 c -0.01,-0.086 0.024,-0.169 -0.291,-0.169 z m -0.56,0.276 -0.002,0.041 c -0.005,0.043 0,0.063 -0.124,0.063 -0.124,0 -0.119,-0.02 -0.124,-0.063 a 2.1,2.1 0 0 1 0,-0.254 c 0.005,-0.043 0,-0.063 0.124,-0.063 0.124,0 0.119,0.02 0.124,0.063 l 0.002,0.043 h 0.17 a 1.08,1.08 0 0 0 -0.005,-0.087 c -0.01,-0.086 0.024,-0.169 -0.291,-0.169 -0.315,0 -0.281,0.082 -0.291,0.169 a 2.07,2.07 0 0 0 0,0.342 c 0.01,0.086 -0.024,0.169 0.291,0.169 0.315,0 0.281,-0.083 0.291,-0.169 0.002,-0.016 0.003,-0.047 0.004,-0.085 z m 2.189,0.091 h -0.101 v -0.148 l 0.101,-0.001 c 0.124,0 0.12,-0.02 0.125,-0.063 0.002,-0.014 0.001,-0.003 0.001,-0.039 0,-0.036 10e-4,-0.023 -0.001,-0.038 -0.005,-0.043 -0.001,-0.063 -0.125,-0.063 h -0.101 v 0.499 h -0.166 V 74.08 h 0.267 c 0.315,0 0.28,0.083 0.292,0.169 l 10e-4,0.082 -10e-4,0.082 c -0.008,0.087 0.023,0.168 -0.292,0.168 z m -3.222,2.596 -1.037,-0.001 a 0.272,0.272 0 0 1 -0.272,-0.272 v -1.579 c 0,-0.15 0.122,-0.272 0.272,-0.272 l 0.649,-10e-4 a 0.14,0.14 0 0 0 0.141,-0.141 l 0.002,-0.631 a 0.06,0.06 0 0 1 0.059,-0.059 h 0.381 a 0.06,0.06 0 0 1 0.059,0.059 l 0.004,2.838 a 0.06,0.06 0 0 1 -0.059,0.059 h -0.199 l -0.005,0.141 h 0.26 a 0.14,0.14 0 0 0 0.141,-0.141 V 74.22 a 0.14,0.14 0 0 0 -0.141,-0.141 h -0.499 a 0.14,0.14 0 0 0 -0.141,0.141 l 0.001,0.633 a 0.06,0.06 0 0 1 -0.059,0.059 l -0.593,-0.001 a 0.414,0.414 0 0 0 -0.414,0.414 v 1.579 c 0,0.229 0.186,0.414 0.414,0.414 h 1.033 z"
       id="path220"
       inkscape:connector-curvature="0"
       style="fill:#7a7a62" />
    <path
       d="m 149.352,76.596 v -1.021 a 0.155,0.155 0 0 0 -0.31,0 v 1.103 a 0.155,0.155 0 0 0 0.31,0 v -0.082 l 0.141,0.005 v 0.076 a 0.297,0.297 0 0 1 -0.592,0 v -1.103 a 0.297,0.297 0 0 1 0.592,0 V 76.6 Z m 1.371,0.581 h -0.194 a 0.06,0.06 0 0 1 -0.059,-0.059 l 0.002,-2.004 a 0.06,0.06 0 0 1 0.059,-0.059 h 0.381 a 0.06,0.06 0 0 1 0.059,0.059 l 0.004,2.004 a 0.06,0.06 0 0 1 -0.059,0.059 h -0.193 v 0.14 h 0.249 a 0.14,0.14 0 0 0 0.141,-0.141 v -2.123 a 0.14,0.14 0 0 0 -0.141,-0.141 h -0.499 a 0.14,0.14 0 0 0 -0.141,0.141 v 2.122 a 0.14,0.14 0 0 0 0.141,0.141 h 0.251 v -0.139 z m 1.794,-1.728 -0.418,-0.001 a 0.233,0.233 0 1 0 0,0.466 l 0.573,0.002 c 0.15,0 0.272,0.122 0.272,0.272 l -0.002,0.713 c 0,0.15 -0.122,0.272 -0.272,0.272 l -1.137,0.002 a 0.06,0.06 0 0 1 -0.059,-0.059 V 76.84 a 0.06,0.06 0 0 1 0.059,-0.059 l 0.775,-0.002 a 0.233,0.233 0 1 0 0,-0.466 l -0.561,-0.002 a 0.272,0.272 0 0 1 -0.272,-0.272 v -0.712 c 0,-0.15 0.122,-0.272 0.272,-0.272 l 1.054,-0.005 c 0.033,0 0.059,0.026 0.059,0.059 v 0.282 a 0.06,0.06 0 0 1 -0.059,0.059 l -0.284,-0.001 -0.005,0.139 h 0.347 A 0.14,0.14 0 0 0 153,75.447 v -0.396 a 0.14,0.14 0 0 0 -0.141,-0.141 l -1.113,0.001 a 0.414,0.414 0 0 0 -0.414,0.414 v 0.712 c 0,0.229 0.186,0.414 0.414,0.414 l 0.561,-10e-4 a 0.094,0.094 0 1 1 0,0.188 h -0.835 a 0.14,0.14 0 0 0 -0.141,0.141 v 0.395 a 0.14,0.14 0 0 0 0.141,0.141 h 1.198 a 0.414,0.414 0 0 0 0.414,-0.414 l 0.002,-0.713 a 0.414,0.414 0 0 0 -0.414,-0.414 l -0.573,0.002 a 0.094,0.094 0 1 1 0,-0.188 h 0.413 z m 2.107,0.391 h 0.18 a 0.058,0.058 0 0 0 0.059,-0.059 l -0.001,-0.456 a 0.272,0.272 0 0 0 -0.272,-0.272 h -0.898 a 0.272,0.272 0 0 0 -0.272,0.272 v 1.579 c 0,0.15 0.122,0.272 0.272,0.272 h 0.898 c 0.15,0 0.272,-0.122 0.272,-0.272 l 0.001,-0.434 a 0.06,0.06 0 0 0 -0.059,-0.059 h -0.339 a 0.058,0.058 0 0 0 -0.059,0.059 l 0.002,0.207 c 0,0.163 -0.103,0.296 -0.266,0.296 -0.163,0 -0.266,-0.133 -0.266,-0.296 v -1.103 c 0,-0.163 0.103,-0.296 0.266,-0.296 0.164,0 0.266,0.133 0.266,0.296 l -0.002,0.207 a 0.06,0.06 0 0 0 0.059,0.059 h 0.159 l -0.005,0.143 h -0.213 a 0.14,0.14 0 0 1 -0.141,-0.141 l 0.002,-0.268 c 0,-0.085 -0.04,-0.155 -0.126,-0.155 -0.085,0 -0.125,0.07 -0.125,0.155 v 1.103 c 0,0.085 0.04,0.155 0.125,0.155 0.086,0 0.126,-0.069 0.126,-0.155 l -0.002,-0.267 a 0.14,0.14 0 0 1 0.141,-0.141 h 0.458 a 0.14,0.14 0 0 1 0.141,0.141 v 0.494 a 0.414,0.414 0 0 1 -0.414,0.414 h -0.898 a 0.414,0.414 0 0 1 -0.414,-0.414 v -1.579 c 0,-0.229 0.186,-0.414 0.414,-0.414 h 0.898 c 0.229,0 0.414,0.185 0.414,0.414 v 0.517 a 0.14,0.14 0 0 1 -0.141,0.141 h -0.244 z"
       id="path222"
       inkscape:connector-curvature="0"
       style="fill:#7a7a62" />
    <path
       d="M 150.426,40.844 A 26.537,26.537 0 0 0 135.915,36.55 c -13.074,0 -23.966,9.428 -26.244,21.849 h 40.754 l 10e-4,-17.555"
       id="path224"
       inkscape:connector-curvature="0"
       style="fill:#030408" />
    <path
       d="m 160.923,72.541 a 26.506,26.506 0 0 0 1.293,-4.804 h -52.602 a 26.483,26.483 0 0 0 1.292,4.802 l -0.001,0.001 h 50.018 m -3.123,5.946 h -43.77 c 4.825,6.905 12.832,11.425 21.885,11.425 9.053,0 17.06,-4.52 21.885,-11.425 z"
       id="path226"
       inkscape:connector-curvature="0"
       style="fill:#7a7a62" />
    <path
       d="m 123.098,80.618 a 5.762,5.762 0 0 0 -0.409,0.208 c -0.281,0.159 -0.511,0.326 -0.665,0.522 -0.154,0.197 -0.221,0.469 -0.094,0.697 0.108,0.193 0.34,0.259 0.548,0.261 0.208,0.002 0.437,-0.044 0.693,-0.112 0.514,-0.138 1.134,-0.378 1.744,-0.61 0.611,-0.231 1.213,-0.454 1.653,-0.554 0.219,-0.05 0.4,-0.065 0.493,-0.053 l 0.072,0.021 0.007,0.014 c 0.022,0.086 0.011,0.14 -0.045,0.223 -0.056,0.083 -0.171,0.185 -0.346,0.291 -0.057,0.034 -0.12,0.069 -0.188,0.104 -0.03,0.271 -0.153,0.516 -0.194,0.594 0.244,-0.102 0.458,-0.207 0.639,-0.316 0.21,-0.126 0.379,-0.261 0.492,-0.428 a 0.711,0.711 0 0 0 0.107,-0.574 0.484,0.484 0 0 0 -0.183,-0.269 0.647,0.647 0 0 0 -0.294,-0.109 c -0.204,-0.028 -0.424,0.004 -0.672,0.061 -0.497,0.113 -1.107,0.342 -1.719,0.574 -0.613,0.232 -1.228,0.468 -1.697,0.594 a 2.349,2.349 0 0 1 -0.559,0.095 c -0.125,-0.001 -0.13,-0.02 -0.13,-0.02 -0.036,-0.064 -0.034,-0.1 0.055,-0.214 0.086,-0.11 0.261,-0.25 0.497,-0.386 0.062,-0.334 0.107,-0.446 0.195,-0.614 z"
       id="path228"
       inkscape:connector-curvature="0"
       style="fill:#040409" />
    <path
       d="m 124.737,79.666 -0.063,0.003 c 0.122,0.106 0.235,0.203 0.28,0.248 0.088,0.086 0.431,0.384 0.54,0.492 0.074,0.071 0.297,0.276 0.4,0.368 0.09,0.08 0.059,0.017 0.176,0.127 0.192,0.18 0.334,0.331 0.508,0.491 l -0.008,-0.15 c -0.072,-0.128 -0.225,-0.211 -0.333,-0.298 -0.067,-0.054 -0.127,-0.079 -0.176,-0.128 l -0.163,-0.159 c -0.016,-0.021 -0.624,-0.599 -1.025,-0.988 z m -0.196,0.011 -0.182,0.027 c 0.167,0.148 0.354,0.305 0.417,0.367 0.087,0.086 0.434,0.363 0.543,0.472 0.074,0.071 0.252,0.233 0.356,0.324 0.091,0.081 0.1,0.081 0.218,0.192 0.228,0.215 0.388,0.405 0.613,0.601 l 0.049,0.044 a 1.89,1.89 0 0 0 0.023,-0.186 c -0.181,-0.15 -0.389,-0.321 -0.569,-0.466 -0.067,-0.054 -0.127,-0.079 -0.176,-0.128 l -0.163,-0.159 c -0.019,-0.023 -0.741,-0.71 -1.129,-1.088 z m 0.544,0.023 c 0.145,0.135 0.569,0.517 0.668,0.615 0.073,0.071 0.331,0.298 0.434,0.39 0.09,0.08 -0.003,-0.016 0.115,0.095 0.084,0.079 0.157,0.151 0.229,0.222 l -0.048,-0.162 -0.028,-0.022 c -0.067,-0.054 -0.127,-0.08 -0.176,-0.128 l -0.02,-0.04 c -0.015,-0.019 -0.541,-0.514 -0.97,-0.921 A 1.686,1.686 0 0 0 125.085,79.7 Z m -0.839,0.032 -0.148,0.045 c 0.182,0.164 0.422,0.364 0.494,0.435 0.087,0.086 0.434,0.364 0.543,0.472 0.074,0.071 0.214,0.188 0.318,0.28 0.09,0.081 0.063,0.093 0.181,0.204 0.229,0.215 0.464,0.437 0.687,0.633 l 0.167,0.154 0.048,-0.17 a 48.531,48.531 0 0 0 -0.715,-0.591 c -0.067,-0.054 -0.1,-0.105 -0.149,-0.153 l -0.186,-0.128 c -0.021,-0.027 -0.884,-0.835 -1.24,-1.181 z M 124,79.813 123.836,79.89 c 0.184,0.172 0.473,0.4 0.555,0.481 0.087,0.087 0.442,0.382 0.552,0.49 0.074,0.071 0.105,0.077 0.209,0.169 0.09,0.08 0.178,0.154 0.296,0.264 0.229,0.215 0.457,0.488 0.681,0.683 0.091,0.08 0.176,0.17 0.242,0.246 a 1.78,1.78 0 0 0 0.089,-0.187 34.169,34.169 0 0 0 -0.837,-0.703 c -0.067,-0.054 -0.084,-0.106 -0.134,-0.154 l -0.24,-0.139 C 125.227,81.016 124.296,80.112 124,79.813 Z m 1.62,0.07 c 0.148,0.135 0.297,0.271 0.35,0.323 0.053,0.051 0.201,0.172 0.32,0.271 a 1.79,1.79 0 0 0 -0.67,-0.594 z m -1.854,0.048 -0.134,0.087 c 0.184,0.172 0.412,0.36 0.495,0.443 0.088,0.086 0.479,0.382 0.588,0.49 0.074,0.071 0.075,0.067 0.178,0.159 0.09,0.08 0.209,0.164 0.326,0.274 0.229,0.215 0.457,0.488 0.681,0.684 0.163,0.142 0.302,0.275 0.358,0.329 l 0.075,-0.114 a 49.284,49.284 0 0 1 -1.138,-1.059 l -0.204,-0.107 C 124.97,81.088 124,80.17 123.766,79.931 Z m -0.186,0.125 -0.125,0.105 0.038,0.086 c 0.18,0.158 0.437,0.36 0.521,0.443 0.088,0.086 0.479,0.382 0.588,0.49 0.073,0.071 0.075,0.066 0.178,0.158 0.266,0.237 0.688,0.65 0.994,0.954 0.135,0.134 0.26,0.242 0.325,0.296 l 0.115,-0.133 c -0.058,-0.047 -1.027,-0.847 -1.368,-1.186 l -0.202,-0.174 c -0.02,-0.025 -0.778,-0.752 -1.064,-1.039 z m -0.183,0.159 -0.117,0.13 c 0.177,0.158 0.475,0.41 0.565,0.499 0.087,0.086 0.297,0.242 0.406,0.35 0.073,0.071 0.211,0.203 0.315,0.295 0.266,0.237 0.693,0.664 1.001,0.968 0.169,0.168 0.287,0.283 0.323,0.318 l 0.157,-0.133 a 63.83,63.83 0 0 1 -1.441,-1.331 l -0.088,-0.036 c -0.023,-0.027 -0.92,-0.852 -1.121,-1.06 z m -0.15,0.174 -0.107,0.157 c 0.161,0.131 0.511,0.443 0.604,0.535 0.078,0.077 0.124,0.113 0.186,0.173 l 0.149,0.141 c 0.073,0.071 0.026,0.011 0.129,0.103 0.41,0.365 1.389,1.283 1.509,1.395 l 0.154,-0.102 a 62.875,62.875 0 0 1 -1.433,-1.324 l -0.194,-0.109 c -0.024,-0.028 -0.772,-0.738 -0.997,-0.969 z m -0.124,0.185 c -0.04,0.068 -0.075,0.138 -0.105,0.21 0.148,0.123 0.519,0.464 0.628,0.547 0.097,0.074 0.111,0.092 0.173,0.152 0.053,0.071 0.165,0.119 0.205,0.153 a 76.545,76.545 0 0 1 1.46,1.375 c 0.069,-0.029 0.135,-0.062 0.199,-0.099 -0.154,-0.131 -1.271,-1.086 -1.598,-1.411 l -0.267,-0.256 c -0.023,-0.029 -0.519,-0.487 -0.695,-0.671 z m -0.115,0.239 a 1.745,1.745 0 0 0 -0.062,0.198 c 0.13,0.109 0.528,0.504 0.644,0.587 0.112,0.08 0.03,0.035 0.092,0.096 l -0.017,-0.089 c 0.073,0.071 0.177,0.186 0.28,0.278 0.402,0.358 1.189,1.088 1.316,1.207 l 0.165,-0.055 c -0.146,-0.133 -1.256,-1.137 -1.584,-1.463 l -0.104,-0.064 c -0.003,-0.022 -0.565,-0.52 -0.73,-0.695 z m -0.069,0.224 c -0.03,0.124 -0.045,0.25 -0.046,0.377 0.001,0.869 0.675,1.605 1.581,1.729 -0.341,-0.305 -0.915,-0.823 -1.146,-1.064 l -0.198,0.006 c -0.006,-0.203 -0.042,-0.296 -0.028,-0.295 0.011,10e-4 0.052,0.058 0.16,0.163 0.182,0.179 0.908,0.854 1.277,1.197 0.065,0.007 0.131,0.011 0.197,0.012 l 0.132,-0.006 a 65.99,65.99 0 0 1 -1.254,-1.175 l -0.347,-0.226 -0.327,-0.367 c 0.05,0.022 0.241,0.202 0.375,0.297 0.112,0.08 0.175,0.11 0.237,0.17 l 0.113,0.107 c 0.073,0.071 0.168,0.175 0.273,0.264 0.349,0.297 0.813,0.735 1.009,0.922 a 1.82,1.82 0 0 0 0.243,-0.044 c -0.185,-0.163 -1.266,-1.12 -1.588,-1.44 l -0.109,-0.044 c -10e-4,-0.022 -0.386,-0.402 -0.546,-0.574 z"
       id="path230"
       inkscape:connector-curvature="0"
       style="fill:#040409" />
    <path
       d="m 123.654,82.555 c -0.634,0.098 -1.024,0.081 -1.024,0.081 -0.133,-0.007 -0.247,0.09 -0.253,0.216 a 0.231,0.231 0 0 0 0.232,0.236 c 0,0 0.545,0.022 1.383,-0.132 -0.07,-0.11 -0.213,-0.24 -0.338,-0.401 z m 2.67,-2.727 a 6.471,6.471 0 0 0 -0.708,0.051 c 0.231,0.126 0.308,0.239 0.492,0.409 0.471,-0.026 0.763,0.014 0.763,0.014 a 0.239,0.239 0 0 0 0.275,-0.191 0.23,0.23 0 0 0 -0.206,-0.258 c 0,0 -0.233,-0.032 -0.616,-0.025 z m 2.367,2.604 -0.367,-0.632 c -0.003,-0.06 0.015,-0.09 0.056,-0.09 l 0.363,0.259 c 0.095,0.069 0.209,0.132 0.342,0.191 a 0.93,0.93 0 0 0 0.391,0.085 0.629,0.629 0 0 0 0.359,-0.116 c 0.101,-0.095 0.112,-0.189 0.035,-0.281 a 1.226,1.226 0 0 0 -0.377,-0.271 5.159,5.159 0 0 1 -0.557,-0.333 c -0.197,-0.133 -0.319,-0.236 -0.363,-0.309 a 0.464,0.464 0 0 1 -0.05,-0.29 c 0.012,-0.12 0.115,-0.235 0.309,-0.343 0.107,-0.051 0.228,-0.084 0.361,-0.101 a 3.4,3.4 0 0 1 0.402,-0.024 c 0.134,0 0.267,0.007 0.402,0.02 l 0.667,0.061 c 0.037,0.003 0.068,0.02 0.091,0.048 l 0.12,0.51 c 0.003,0.037 -0.012,0.037 -0.045,0 a 0.982,0.982 0 0 0 -0.433,-0.286 4.206,4.206 0 0 0 -0.482,-0.123 1.693,1.693 0 0 0 -0.511,-0.02 0.206,0.206 0 0 0 -0.136,0.127 c -0.023,0.061 0.001,0.131 0.073,0.207 0.071,0.076 0.204,0.153 0.396,0.229 0.192,0.076 0.369,0.173 0.529,0.293 0.161,0.12 0.272,0.237 0.332,0.352 0.06,0.116 0.077,0.24 0.05,0.372 -0.027,0.132 -0.062,0.217 -0.106,0.256 a 1.1,1.1 0 0 1 -0.627,0.25 c -0.287,0 -0.461,-0.007 -0.519,-0.022 -0.059,-0.013 -0.165,-0.019 -0.319,-0.013 a 1.2,1.2 0 0 0 -0.291,0.028 c -0.04,0.011 -0.072,0.001 -0.095,-0.034 z"
       id="path232"
       inkscape:connector-curvature="0"
       style="fill:#040409" />
    <path
       d="m 130.799,80.719 c 0,-0.203 -0.063,-0.322 -0.19,-0.357 -0.034,-0.016 -0.05,-0.033 -0.05,-0.052 0,-0.02 0.026,-0.035 0.08,-0.048 h 2.068 c 0.054,0 0.089,0.014 0.105,0.042 0.124,0.174 0.203,0.396 0.237,0.661 0,0.039 -0.018,0.039 -0.05,0 -0.107,-0.114 -0.19,-0.2 -0.251,-0.258 a 1.017,1.017 0 0 0 -0.295,-0.178 1.59,1.59 0 0 0 -0.529,-0.114 h -0.161 c -0.215,0 -0.321,0.076 -0.321,0.229 v 0.571 c 0.026,0.025 0.06,0.039 0.1,0.042 a 0.91,0.91 0 0 0 0.266,-0.066 c 0.138,-0.048 0.284,-0.138 0.437,-0.271 0.054,0 0.081,0.025 0.081,0.076 v 0.666 c 0,0.051 -0.027,0.076 -0.081,0.076 a 1.373,1.373 0 0 0 -0.437,-0.271 c -0.137,-0.048 -0.226,-0.07 -0.266,-0.066 a 0.162,0.162 0 0 0 -0.1,0.042 v 0.647 c 0,0.134 0.106,0.2 0.321,0.2 h 0.161 a 1.44,1.44 0 0 0 0.529,-0.124 c 0.136,-0.067 0.234,-0.13 0.295,-0.188 0.06,-0.059 0.153,-0.141 0.28,-0.246 0.034,-0.034 0.05,-0.031 0.05,0.01 a 1.425,1.425 0 0 1 -0.266,0.685 c -0.016,0.028 -0.051,0.042 -0.105,0.042 h -2.068 c -0.054,-0.013 -0.08,-0.029 -0.08,-0.048 0,-0.019 0.016,-0.036 0.05,-0.052 0.127,-0.035 0.19,-0.078 0.19,-0.129 z"
       id="path234"
       inkscape:connector-curvature="0"
       style="fill:#040409" />
    <path
       d="m 132.607,81.404 c 0,-0.313 0.132,-0.585 0.399,-0.815 0.266,-0.231 0.615,-0.346 1.047,-0.346 0.197,0.025 0.309,0.04 0.334,0.047 a 0.473,0.473 0 0 0 0.373,-0.061 c 0.065,-0.016 0.106,-0.006 0.126,0.028 0.121,0.225 0.174,0.44 0.161,0.643 -0.027,0.032 -0.056,0.023 -0.085,-0.028 -0.19,-0.222 -0.346,-0.354 -0.465,-0.396 a 1.38,1.38 0 0 0 -0.443,-0.061 c -0.231,0.013 -0.395,0.099 -0.494,0.26 -0.1,0.16 -0.149,0.403 -0.149,0.73 0,0.273 0.049,0.507 0.149,0.7 0.098,0.193 0.263,0.291 0.494,0.291 0.174,-0.032 0.288,-0.085 0.342,-0.16 a 0.534,0.534 0 0 0 0.097,-0.264 0.286,0.286 0 0 0 -0.093,-0.256 0.456,0.456 0 0 0 -0.255,-0.12 c -0.06,-0.054 -0.057,-0.092 0.01,-0.114 h 0.944 c 0.054,0 0.08,0.013 0.08,0.037 0,0.026 -0.023,0.051 -0.07,0.077 -0.073,0.361 -0.2,0.617 -0.379,0.766 -0.18,0.149 -0.404,0.217 -0.676,0.205 -0.396,0 -0.731,-0.115 -1.005,-0.346 -0.276,-0.231 -0.423,-0.503 -0.442,-0.817 z"
       id="path236"
       inkscape:connector-curvature="0"
       style="fill:#040409" />
    <path
       d="m 134.489,82.47 c -0.047,-0.038 -0.054,-0.069 -0.021,-0.09 a 0.485,0.485 0 0 0 0.221,-0.186 l 1.131,-2.013 a 0.106,0.106 0 0 1 0.074,-0.033 c 0.027,0 0.056,0.011 0.085,0.033 l 0.938,1.985 c 0.034,0.073 0.109,0.142 0.227,0.209 0.07,0.02 0.079,0.051 0.025,0.095 h -0.794 c -0.073,-0.038 -0.06,-0.073 0.041,-0.105 0.073,-0.028 0.123,-0.058 0.146,-0.09 0.023,-0.031 0.026,-0.075 0.01,-0.129 l -0.517,-1.104 -0.648,1.133 -0.005,0.048 c -0.02,0.037 0.023,0.088 0.131,0.152 0.06,0.026 0.067,0.057 0.021,0.095 z"
       id="path238"
       inkscape:connector-curvature="0"
       style="fill:#040409" />
    <path
       d="m 136.687,80.643 c -0.054,-0.305 -0.054,-0.559 0,-0.762 0.04,-0.202 0.175,-0.405 0.406,-0.606 0.231,-0.201 0.52,-0.329 0.868,-0.383 0.047,0 0.067,0.022 0.06,0.066 -0.261,0.159 -0.445,0.34 -0.552,0.543 a 0.985,0.985 0 0 0 -0.08,0.685 l 0.08,0.304 0.482,1.219 c 0.265,0.523 0.238,1.031 -0.08,1.522 -0.258,0.308 -0.613,0.543 -1.064,0.705 -0.06,0.006 -0.088,-0.013 -0.08,-0.057 0.415,-0.393 0.635,-0.726 0.662,-0.997 0.026,-0.272 -0.081,-0.662 -0.322,-1.173 z"
       id="path240"
       inkscape:connector-curvature="0"
       style="fill:#040409" />
    <path
       d="m 137.903,82.47 c -0.047,-0.038 -0.054,-0.069 -0.021,-0.09 a 0.485,0.485 0 0 0 0.221,-0.186 l 1.13,-2.013 a 0.107,0.107 0 0 1 0.075,-0.033 c 0.027,0 0.056,0.011 0.085,0.033 l 0.938,1.985 c 0.034,0.073 0.11,0.142 0.227,0.209 0.07,0.02 0.079,0.051 0.025,0.095 h -0.794 c -0.073,-0.038 -0.06,-0.073 0.041,-0.105 a 0.332,0.332 0 0 0 0.146,-0.09 c 0.023,-0.031 0.026,-0.075 0.01,-0.129 l -0.517,-1.104 -0.647,1.133 -0.005,0.048 c -0.02,0.037 0.023,0.088 0.13,0.152 0.06,0.026 0.067,0.057 0.021,0.095 z"
       id="path242"
       inkscape:connector-curvature="0"
       style="fill:#040409" />
    <path
       d="m 140.573,82.375 c 0.16,-0.051 0.241,-0.127 0.241,-0.229 v -1.732 h -0.161 c -0.321,0.034 -0.562,0.095 -0.723,0.181 -0.101,0.051 -0.154,0.054 -0.161,0.009 l 0.206,-0.295 c 0.024,-0.032 0.062,-0.048 0.116,-0.048 h 2.168 c 0.054,0 0.092,0.015 0.115,0.048 l 0.206,0.295 c -0.007,0.045 -0.06,0.041 -0.16,-0.009 -0.161,-0.086 -0.402,-0.146 -0.723,-0.181 h -0.161 v 1.732 c 0,0.102 0.08,0.177 0.241,0.229 0.06,0.02 0.06,0.051 0,0.095 h -1.205 c -0.059,-0.045 -0.059,-0.076 0.001,-0.095 z"
       id="path244"
       inkscape:connector-curvature="0"
       style="fill:#040409" />
    <path
       d="m 142.37,81.785 v -1.219 c 0,-0.101 -0.081,-0.165 -0.241,-0.19 -0.06,-0.032 -0.06,-0.07 0,-0.114 h 1.164 c 0.06,0.045 0.06,0.082 0,0.114 -0.16,0.025 -0.241,0.089 -0.241,0.19 v 1.219 a 0.488,0.488 0 0 0 0.175,0.361 0.58,0.58 0 0 0 0.397,0.143 0.565,0.565 0 0 0 0.39,-0.143 c 0.106,-0.095 0.161,-0.277 0.162,-0.547 v -1.033 c 0,-0.101 -0.08,-0.165 -0.241,-0.19 -0.054,-0.032 -0.054,-0.07 0,-0.114 h 0.833 c 0.047,0.028 0.054,0.07 0.02,0.124 -0.22,0.02 -0.331,0.08 -0.331,0.181 v 1.291 c 0.007,0.152 -0.081,0.302 -0.262,0.45 -0.181,0.147 -0.425,0.221 -0.732,0.221 -0.342,-0.006 -0.608,-0.08 -0.799,-0.22 -0.191,-0.142 -0.29,-0.317 -0.294,-0.524 z"
       id="path246"
       inkscape:connector-curvature="0"
       style="fill:#040409" />
    <path
       d="m 144.773,82.356 c 0.161,-0.039 0.241,-0.108 0.241,-0.21 v -1.503 c 0,-0.153 -0.09,-0.238 -0.27,-0.257 -0.057,-0.039 -0.06,-0.079 -0.01,-0.124 h 1.566 c 0.32,0 0.545,0.06 0.677,0.18 a 0.562,0.562 0 0 1 0.197,0.43 0.56,0.56 0 0 1 -0.188,0.425 0.627,0.627 0 0 1 -0.485,0.155 0.165,0.165 0 0 0 0.06,0.057 c 0.027,0.016 0.084,0.089 0.171,0.219 0.168,0.292 0.414,0.522 0.738,0.69 l 0.115,0.042 c 0.028,0.025 0.041,0.051 0.041,0.076 0,0.026 -0.026,0.05 -0.08,0.072 h -0.106 c -0.365,-0.038 -0.647,-0.106 -0.848,-0.205 A 1.17,1.17 0 0 1 146.1,81.937 1.392,1.392 0 0 1 145.879,81.37 c -0.024,-0.108 -0.002,-0.141 0.065,-0.1 l 0.116,0.019 c 0.101,0.019 0.199,-0.015 0.296,-0.101 a 0.412,0.412 0 0 0 0.146,-0.318 c 0,-0.168 -0.044,-0.292 -0.13,-0.37 a 0.453,0.453 0 0 0 -0.311,-0.116 0.407,0.407 0 0 0 -0.268,0.055 0.174,0.174 0 0 0 -0.054,0.126 v 1.58 c 0,0.102 0.081,0.171 0.241,0.21 0.06,0.019 0.06,0.057 0,0.114 h -1.205 c -0.062,-0.056 -0.062,-0.094 -0.002,-0.113 z"
       id="path248"
       inkscape:connector-curvature="0"
       style="fill:#040409" />
    <path
       d="m 149.512,82.546 -1.686,-1.304 v 1.076 c 0,0.102 0.073,0.171 0.22,0.21 0.06,0.019 0.06,0.051 0,0.096 h -0.723 c -0.06,-0.045 -0.06,-0.077 0,-0.096 0.148,-0.038 0.221,-0.108 0.221,-0.21 v -1.37 a 1.188,1.188 0 0 0 -0.122,-0.312 0.875,0.875 0 0 0 -0.173,-0.212 c -0.065,-0.054 -0.1,-0.095 -0.106,-0.123 0,-0.026 0.017,-0.038 0.05,-0.038 0.351,0.009 1.058,0.444 2.119,1.304 v -0.971 c 0,-0.102 -0.06,-0.175 -0.181,-0.219 -0.051,-0.025 -0.051,-0.054 0,-0.086 h 0.632 c 0.054,0.032 0.054,0.061 0,0.086 -0.12,0.045 -0.181,0.117 -0.181,0.219 v 1.899 c 0.001,0.047 -0.022,0.064 -0.07,0.051 z"
       id="path250"
       inkscape:connector-curvature="0"
       style="fill:#040409" />
    <path
       d="m 140.618,57.454 h 9.808 v 10.283 h -9.808 z m -19.126,0 h 9.383 v 10.283 h -9.383 z"
       id="path252"
       inkscape:connector-curvature="0"
       style="fill:#030408" />
    <path
       d="m 135.915,56.213 a 7.009,7.009 0 0 0 -7.017,7.017 c 0,3.895 3.122,7.017 7.017,7.017 3.895,0 7.017,-3.122 7.017,-7.017 a 7.009,7.009 0 0 0 -7.017,-7.017 z m 0,10.94 c -2.161,0 -3.922,-1.734 -3.922,-3.922 0,-2.188 1.734,-3.922 3.922,-3.922 a 3.911,3.911 0 0 1 3.922,3.922 3.912,3.912 0 0 1 -3.922,3.922 z"
       id="path254"
       inkscape:connector-curvature="0"
       style="fill:#d6d7d8" />
    <path
       d="m 135.915,56.213 v -0.307 a 7.31,7.31 0 0 0 -5.176,2.137 7.297,7.297 0 0 0 -2.148,5.186 7.303,7.303 0 0 0 7.324,7.324 7.303,7.303 0 0 0 7.324,-7.324 7.295,7.295 0 0 0 -2.148,-5.186 7.309,7.309 0 0 0 -5.176,-2.137 v 0.614 c 3.7,0 6.71,2.985 6.71,6.71 a 6.684,6.684 0 0 1 -6.71,6.71 6.684,6.684 0 0 1 -6.71,-6.71 6.7,6.7 0 0 1 6.71,-6.71 z m 0,10.94 V 66.846 A 3.604,3.604 0 0 1 132.3,63.231 c 0,-1.012 0.4,-1.913 1.051,-2.565 a 3.606,3.606 0 0 1 2.565,-1.051 3.604,3.604 0 0 1 3.615,3.615 3.604,3.604 0 0 1 -3.615,3.615 v 0.615 a 4.226,4.226 0 0 0 2.988,-1.23 4.213,4.213 0 0 0 1.241,-2.999 4.226,4.226 0 0 0 -1.23,-2.988 4.213,4.213 0 0 0 -2.999,-1.241 4.216,4.216 0 0 0 -2.998,1.23 4.213,4.213 0 0 0 -1.23,2.998 c 0,1.177 0.475,2.237 1.241,2.999 a 4.223,4.223 0 0 0 2.988,1.23 v -0.306 z"
       id="path256"
       inkscape:connector-curvature="0"
       style="fill:#3b3a3c" />
    <path
       d="m 135.915,55.173 c -4.456,0 -8.058,3.629 -8.058,8.058 0,4.429 3.602,8.058 8.058,8.058 4.456,0 8.058,-3.629 8.058,-8.058 0,-4.43 -3.602,-8.058 -8.058,-8.058 z m 0,15.528 c -4.136,0 -7.471,-3.362 -7.471,-7.471 0,-4.109 3.362,-7.471 7.471,-7.471 4.109,0 7.471,3.362 7.471,7.471 0,4.109 -3.335,7.471 -7.471,7.471 z"
       id="path258"
       inkscape:connector-curvature="0"
       style="fill:#bbbdbf" />
    <path
       d="m 109.614,67.737 h 12.355 v -1.001 h -12.506 c 0.044,0.336 0.095,0.669 0.151,1.001 m -0.161,-1.001 h 0.01 m 53.133,-3.506 c 0,1.536 -0.13,3.041 -0.38,4.506 H 149.548 V 63.23 Z"
       id="path260"
       inkscape:connector-curvature="0"
       style="fill:#030408" />
    <path
       d="m 159.547,50.839 h -38.055 v 0.356 h 38.238 l -0.002,10e-4 c -0.06,-0.119 -0.121,-0.238 -0.184,-0.356 M 132.306,77.807 H 132.2 v -0.733 l -0.241,0.733 h -0.101 l -0.241,-0.733 v 0.733 h -0.106 v -0.861 h 0.168 l 0.229,0.718 0.23,-0.718 h 0.168 z m 0.885,0 h -0.126 l -0.098,-0.262 h -0.354 l -0.094,0.262 H 132.4 l 0.325,-0.861 h 0.121 z m -0.258,-0.352 -0.149,-0.399 -0.142,0.399 z m 0.351,-0.509 h 0.269 c 0.288,0 0.431,0.142 0.431,0.426 0,0.29 -0.144,0.435 -0.431,0.435 h -0.269 z m 0.113,0.759 h 0.154 c 0.123,0 0.206,-0.029 0.251,-0.087 a 0.393,0.393 0 0 0 0.067,-0.246 0.374,0.374 0 0 0 -0.067,-0.239 c -0.044,-0.056 -0.128,-0.084 -0.251,-0.084 h -0.154 z m 1.372,0.102 h -0.631 v -0.861 h 0.612 v 0.102 h -0.5 v 0.263 h 0.467 v 0.102 h -0.467 v 0.292 h 0.519 z m 0.486,-0.861 h 0.113 v 0.861 h -0.113 z m 0.979,0.861 h -0.115 l -0.443,-0.68 v 0.68 h -0.106 v -0.861 h 0.114 l 0.443,0.679 v -0.679 h 0.107 z m 0.905,-0.276 c 0,0.106 -0.02,0.18 -0.06,0.224 -0.04,0.044 -0.099,0.066 -0.177,0.066 a 0.218,0.218 0 0 1 -0.166,-0.065 0.241,0.241 0 0 1 -0.061,-0.172 v -0.023 h 0.113 c 0,0.105 0.038,0.158 0.115,0.158 0.04,0 0.071,-0.012 0.093,-0.035 0.022,-0.023 0.032,-0.072 0.032,-0.147 v -0.592 h 0.112 v 0.586 z m 0.885,0.276 h -0.127 l -0.098,-0.262 h -0.354 l -0.094,0.262 h -0.118 l 0.325,-0.861 h 0.121 z m -0.258,-0.352 -0.149,-0.399 -0.142,0.399 z m 0.352,-0.509 h 0.316 a 0.66,0.66 0 0 1 0.174,0.02 0.184,0.184 0 0 1 0.111,0.085 0.272,0.272 0 0 1 0.041,0.146 c 0,0.087 -0.027,0.153 -0.082,0.198 a 0.36,0.36 0 0 1 -0.236,0.068 h -0.213 v 0.344 h -0.112 v -0.861 z m 0.112,0.415 h 0.214 c 0.072,0 0.123,-0.014 0.154,-0.041 0.031,-0.027 0.046,-0.067 0.046,-0.119 a 0.17,0.17 0 0 0 -0.025,-0.092 0.109,0.109 0 0 0 -0.064,-0.051 0.459,0.459 0 0 0 -0.112,-0.01 h -0.212 v 0.313 z m 1.371,0.446 h -0.127 l -0.098,-0.262 h -0.355 l -0.094,0.262 h -0.118 l 0.325,-0.861 h 0.121 z m -0.257,-0.352 -0.149,-0.399 -0.142,0.399 z m 1.015,0.352 h -0.114 l -0.444,-0.68 v 0.68 h -0.106 v -0.861 h 0.114 l 0.444,0.679 v -0.679 h 0.106 z"
       id="path262"
       inkscape:connector-curvature="0"
       style="fill:#7a7a62" />
  </g>
</svg>
