<?xml version="1.0" encoding="UTF-8" standalone="no"?>
<svg
   xmlns:dc="http://purl.org/dc/elements/1.1/"
   xmlns:cc="http://creativecommons.org/ns#"
   xmlns:rdf="http://www.w3.org/1999/02/22-rdf-syntax-ns#"
   xmlns:svg="http://www.w3.org/2000/svg"
   xmlns="http://www.w3.org/2000/svg"
   xmlns:sodipodi="http://sodipodi.sourceforge.net/DTD/sodipodi-0.dtd"
   xmlns:inkscape="http://www.inkscape.org/namespaces/inkscape"
   viewBox="0 0 150.01008 261.85178"
   version="1.1"
   id="svg88"
   sodipodi:docname="controller.svg"
   width="150.01009"
   height="261.85178"
   inkscape:version="0.92.4 5da689c313, 2019-01-14">
  <metadata
     id="metadata94">
    <rdf:RDF>
      <cc:Work
         rdf:about="">
        <dc:format>image/svg+xml</dc:format>
        <dc:type
           rdf:resource="http://purl.org/dc/dcmitype/StillImage" />
      </cc:Work>
    </rdf:RDF>
  </metadata>
  <defs
     id="defs92" />
  <sodipodi:namedview
     pagecolor="#ffffff"
     bordercolor="#666666"
     borderopacity="1"
     objecttolerance="10"
     gridtolerance="10"
     guidetolerance="10"
     inkscape:pageopacity="0"
     inkscape:pageshadow="2"
     inkscape:window-width="640"
     inkscape:window-height="480"
     id="namedview90"
     showgrid="false"
     inkscape:zoom="0.90110731"
     inkscape:cx="75.02345"
     inkscape:cy="130.90178"
     inkscape:window-x="0"
     inkscape:window-y="0"
     inkscape:window-maximized="0"
     inkscape:current-layer="svg88">
    <inkscape:grid
       type="xygrid"
       id="grid904"
       originx="-0.026552885"
       originy="-0.048220213" />
  </sodipodi:namedview>
  <path
     d="m 136.47345,42.2 c 17.9,14.5 13.6,45.2 11.6,50.4 2.2,-8 1.4,-15.6 1.3,-19.6 -0.4,-12.6 -6.3,-22.8 -12.9,-30.8"
     id="path2"
     inkscape:connector-curvature="0"
     style="fill:#004690" />
  <path
     d="m 148.07345,92.6 c 2.2,-8 1.4,-15.6 1.3,-19.6 -0.4,-12.6 -6.3,-22.9 -12.9,-30.8 -5.6,-6.7 -11.6,-11.7 -15.3,-15 C 87.973447,-2.4 42.773447,-0.5 31.173447,0.4 c -17.7,2.4 -28.1999999,17.4 -30.49999989,27.5 -6.60000001,29 38.79999989,44 38.79999989,103 0,59 -45.4999999,74.1 -38.79999989,103 2.29999999,10.2 12.79999989,25.2 30.59999989,27.6 11.6,0.8 56.7,2.7 89.900003,-26.9 8.1,-7.2 27.5,-22.6 28.2,-45.8 0.1,-4 1,-11.7 -1.4,-19.8 -6.2,-21.6 -5.8,-38.1 -5.8,-38.1 0,0 -0.5,-16.5 5.8,-38.1 0,0 0,-0.1 0.1,-0.2 z"
     id="path4"
     inkscape:connector-curvature="0"
     style="fill:#535354" />
  <path
     d="m 15.373447,65.1 c 3.1,-20.4 7.7,-41.6 26.4,-53.5 25.9,-16.4 55.9,0.8 57.2,1.6 27.800003,15.1 38.600003,45 38.600003,117.7 0,72.8 -10.8,102.7 -38.600003,117.7 -1.3,0.8 -31.3,18 -57.2,1.6 -18.8,-11.9 -23.3,-33.1 -26.4,-53.5 11.1,-15.3 24.1,-34.2 24.1,-65.8 v -0.1 c 0,-31.4 -13,-50.5 -24.1,-65.7"
     id="path6"
     inkscape:connector-curvature="0"
     style="fill:#595959" />
  <path
     d="m 111.37345,158.2 8.3,-1.9 c 4,-0.8 7,-3 7,-6.7 v -18.6 0.1 -18.6 c 0,-3.7 -3,-6 -7,-6.7 l -8.3,-1.9 7.9,1.9 c 3.9,0.8 6.7,3 6.7,6.7 v 18.6 -0.1 18.6 c 0,3.7 -2.9,6 -6.7,6.7 z"
     id="path8"
     inkscape:connector-curvature="0"
     style="fill:#454545" />
  <ellipse
     transform="rotate(-31.802)"
     cx="-42.746468"
     cy="212.91487"
     rx="44.599998"
     ry="40"
     id="ellipse10"
     style="fill:#5e5e5e" />
  <g
     id="g20"
     style="fill:#44474f"
     transform="translate(-0.02655289)">
    <path
       d="m 111.9,133.7 c 0,-0.9 0.7,-1.6 1.6,-1.6 h 5.1 c 0.9,0 1.6,0.7 1.6,1.6 v 5.3 h 1.6 v -5.3 c 0,-1.8 -1.4,-3.2 -3.2,-3.2 h -5.1 c -1.8,0 -3.2,1.4 -3.2,3.2 v 5.3 h 7.5 v -4.5 h -1.6 v 2.9 h -4.3 v -3.7 m -1.7,-22 v 5.1 c 0,2.1 1.7,3.8 3.8,3.8 2.1,0 3.8,-1.7 3.8,-3.8 v -1.3 l 0.2,-0.2 0.2,0.2 v 5.1 h 1.6 v -5.1 c 0,-1 -0.8,-1.8 -1.8,-1.8 -1,0 -1.8,0.8 -1.8,1.8 v 1.3 c 0,1.2 -1,2.2 -2.2,2.2 -1.2,0 -2.2,-1 -2.2,-2.2 v -5.1 h -1.6"
       id="path12"
       inkscape:connector-curvature="0" />
    <path
       d="m 112.2,111.7 v 5.1 c 0,1 0.8,1.8 1.8,1.8 1,0 1.8,-0.8 1.8,-1.8 v -1.3 c 0,-1.2 1,-2.2 2.2,-2.2 1.2,0 2.2,1 2.2,2.2 v 5.1 h 1.6 v -5.1 c 0,-2.1 -1.7,-3.8 -3.8,-3.8 -2.1,0 -3.8,1.7 -3.8,3.8 v 1.3 l -0.2,0.2 -0.2,-0.2 v -5.1 h -1.6 m -0.3,12.8 c 0,-0.9 0.7,-1.6 1.6,-1.6 h 5.1 c 0.9,0 1.6,0.7 1.6,1.6 v 5.4 h 1.6 v -5.4 c 0,-1.8 -1.4,-3.2 -3.2,-3.2 h -5.1 c -1.8,0 -3.2,1.4 -3.2,3.2 v 5.4 h 1.6 v -5.4"
       id="path14"
       inkscape:connector-curvature="0" />
    <path
       d="m 118.5,123.3 c 0.7,0 1.2,0.5 1.2,1.2 v 5.4 h -1.6 v -4.7 l -0.4,-0.4 v 3.9 h -1.6 v -5.5 l 2.4,0.1 m -6.3,1.2 c 0,-0.7 0.5,-1.2 1.2,-1.2 h 2.4 v 5.5 h -1.6 v -3.9 l -0.4,0.4 v 4.7 h -1.6 v -5.5 m 1.3,8 c -0.7,0 -1.2,0.5 -1.2,1.2 v 3.3 h 3.6 v -2.5 h -1.6 v 0.9 h -0.4 v -0.9 l 0.4,-0.4 h 3.6 l 0.4,0.4 v 4.5 h 1.6 v -5.3 c 0,-0.7 -0.5,-1.2 -1.2,-1.2 h -5.2 m 6.3,11.4 0.3,0.5 -0.3,0.5 -7.6,2.6 v -3.8 h 1.8 v 1.3 l 1.7,-0.6 -5.4,-1.8 v -1.9 l 9.5,3.2"
       id="path16"
       inkscape:connector-curvature="0" />
    <path
       d="m 111.9,148 v -4.2 h -1.6 v 6.5 l 10,-3.4 c 1,-0.3 1.7,-1.3 1.7,-2.4 0,-1.1 -0.7,-2.1 -1.7,-2.4 l -10,-3.4 v 1.7 l 9.7,3.3 0.5,0.8 -0.5,0.8 -8.1,2.7"
       id="path18"
       inkscape:connector-curvature="0" />
  </g>
  <circle
     cx="84.273453"
     cy="170"
     r="10"
     id="circle22"
     style="fill:#3d6295" />
  <path
     d="m 85.273447,173.8 -0.3,-1.6 c -0.1,-0.7 -0.2,-1.1 -0.3,-1.5 -0.4,-0.1 -0.7,-0.2 -1.4,-0.5 l -1.5,-0.5 -1.1,-1.3 3.7,1.5 -0.8,-3.7 1.1,1.3 0.3,1.7 c 0.1,0.5 0.2,0.8 0.2,1.2 0.4,0.1 0.7,0.2 1.1,0.4 l 1.7,0.7 1.1,1.3 -3.6,-1.5 0.9,3.9 z"
     id="path24"
     inkscape:connector-curvature="0"
     style="fill:#344868" />
  <g
     id="g28"
     style="fill:#767677"
     transform="translate(-0.02655289)">
    <path
       d="m 71,124.4 v -2.7 h -0.9 v 2 c 0,0.3 -0.1,0.5 -0.2,0.6 -0.1,0.1 -0.3,0.2 -0.6,0.2 h -0.4 c -0.3,0 -0.5,-0.1 -0.6,-0.2 -0.1,-0.1 -0.2,-0.3 -0.2,-0.6 v -1.8 -0.6 h 0.4 v 2.7 h 0.9 v -2 c 0,-0.3 0.1,-0.5 0.2,-0.6 0.1,-0.1 0.3,-0.2 0.6,-0.2 h 0.3 c 0.3,0 0.5,0.1 0.6,0.2 0.1,0.1 0.2,0.3 0.2,0.6 v 2.4 z m 0,2.8 h -2.7 v -0.5 H 71 v -1.4 h 0.4 v 3.4 H 71 Z m -2.7,1.2 3.1,1.7 v 0.6 l -3.1,1.7 v -0.6 l 0.8,-0.4 v -2.1 l -0.8,-0.4 z m 1.2,1.1 v 1.7 l 1.6,-0.8 z m -1.2,3.9 h 3.1 v 2.5 c 0,0.2 0,0.4 -0.1,0.5 -0.1,0.1 -0.2,0.2 -0.5,0.2 h -0.7 c -0.2,0 -0.4,-0.1 -0.5,-0.2 -0.1,-0.1 -0.1,-0.3 -0.1,-0.5 v -0.5 l -1.2,1.4 V 136 l 1.2,-1.3 v -0.9 h -1.2 z m 2.7,2.3 v -1.8 h -1 v 1.8 c 0,0.1 0,0.2 0.1,0.3 0,0 0.1,0.1 0.2,0.1 h 0.5 c 0.1,0 0.2,0 0.2,-0.1 z m 0,3.5 h -2.7 v -0.5 H 71 v -1.4 h 0.4 v 3.4 H 71 Z"
       id="path26"
       inkscape:connector-curvature="0" />
  </g>
  <circle
     cx="51.873447"
     cy="180"
     r="12.1"
     id="circle30"
     style="fill:#1f1f23" />
  <path
     d="m 54.473447,186.6 -1.1,-1.4 0.1,-2.1 -4,-5.3 -1.9,-0.4 -1.1,-1.5 6.7,1.6 1.6,2.1 z m -0.8,-4.4 0.1,-2.8 -0.7,-0.9 -2.6,-0.5 z"
     id="path32"
     inkscape:connector-curvature="0" />
  <circle
     cx="100.17345"
     cy="194.2"
     r="9"
     id="circle34"
     style="fill:#3d6295" />
  <path
     d="m 98.573447,195.1 1.4,-0.7 0.100003,-4.2 0.8,1.5 -0.1,1.9 c 0,0.5 -0.1,0.9 -0.1,1.4 0.4,0.2 0.8,0.4 1.2,0.7 l 1.7,1 0.8,1.5 -3.7,-2.4 -1.400003,0.7 z"
     id="path36"
     inkscape:connector-curvature="0"
     style="fill:#344868" />
  <circle
     cx="109.67345"
     cy="219.89999"
     r="9.3000002"
     id="circle38"
     style="fill:#3d6295" />
  <path
     d="m 106.87345,216.9 5,5 -2,-5.5 0.4,-0.1 2.7,7.3 -0.3,0.1 -5,-4.9 2.2,6 -0.4,0.1 -2.9,-7.9 z"
     id="path40"
     inkscape:connector-curvature="0"
     style="fill:#344868" />
  <circle
     cx="71.173447"
     cy="208.2"
     r="12.3"
     id="circle42"
     style="fill:#1f1f23" />
  <circle
     cx="81.873451"
     cy="238.7"
     r="12.4"
     id="circle44"
     style="fill:#1f1f23" />
  <path
     d="m 73.973447,212.3 c 0.4,0.5 0.7,0.7 1.1,0.6 l 0.3,-0.1 c 0.6,-0.3 0.4,-1.2 -0.5,-2.8 l -4.2,-7.2 -0.6,0.3 -2.3,1.1 -0.6,0.3 4.2,7.2 c 0.9,1.6 1.7,2.3 2.2,2 l 0.3,-0.2 c 0.3,-0.2 0.3,-0.6 0.1,-1.2 z m -1.9,-0.8 -0.5,-0.9 -2.9,-5 0.8,-0.4 2.9,5.1 0.5,0.9 c 0.4,0.6 0.4,1 0.1,1.1 -0.2,0 -0.6,-0.2 -0.9,-0.8 z m 1.4,-0.7 -3.5,-6 0.8,-0.4 3.5,6 c 0.4,0.6 0.4,1 0.1,1.1 -0.2,0.1 -0.5,-0.1 -0.9,-0.7 z m 11.7,30.8 -1.6,-4.5 c -1.1,-3 -1.4,-2.6 -2.4,-2.3 -1,0.3 -1.5,0.2 -0.4,3.2 l 2.8,8 -0.7,0.2 -2.8,-8 c -1.5,-4.2 -0.9,-4.8 0.5,-5.3 1.4,-0.5 2.2,-0.4 3.7,3.8 l 2.8,8.1 -0.7,0.2 z"
     id="path46"
     inkscape:connector-curvature="0" />
  <g
     id="g52"
     style="fill:#454545"
     transform="translate(-0.02655289)">
    <path
       d="M 143.7,195.4 H 140 l 1.9,2.7 z m 0,2.7 H 140 l 1.9,2.8 z"
       id="path48"
       inkscape:connector-curvature="0" />
    <path
       d="m 143.657,200.854 v 1.5 h -3.6 v -1.5 z"
       id="path50"
       inkscape:connector-curvature="0" />
  </g>
  <g
     id="g58"
     style="fill:#454545"
     transform="translate(-0.02655289)">
    <path
       d="M 143.7,66.5 H 140 l 1.9,-2.7 z m 0,-2.7 H 140 l 1.9,-2.8 z"
       id="path54"
       inkscape:connector-curvature="0" />
    <path
       d="m 140.078,61.024 v -1.5 h 3.6 v 1.5 z"
       id="path56"
       inkscape:connector-curvature="0" />
  </g>
  <path
     d="m 120.30945,181.019 1.53,2.924 -2.925,1.53 -1.53,-2.924 z"
     id="path60"
     inkscape:connector-curvature="0"
     style="fill:#454545" />
  <g
     id="g64"
     style="fill:#454545"
     transform="translate(-0.02655289)">
    <path
       d="m 123.7,211.5 -3.5,0.9 2.4,2.2 z m 0.705,2.63 0.184,0.674 -3.473,0.948 -0.184,-0.675 z m 0.198,0.84 0.184,0.676 -3.472,0.948 -0.185,-0.675 z"
       id="path62"
       inkscape:connector-curvature="0" />
  </g>
  <g
     id="g70"
     style="fill:#454545"
     transform="translate(-0.02655289)">
    <path
       d="m 98.5,158.5 0.4,-0.3 h -1.4 l -0.2,1.1 0.4,-0.3 c 0.2,0.3 0.3,0.6 0.3,0.9 0,0.9 -0.8,1.7 -1.7,1.7 -0.3,0 -0.7,-0.1 -0.9,-0.3 l -0.5,0.7 c 0.4,0.3 0.9,0.4 1.4,0.4 1.4,0 2.5,-1.1 2.5,-2.5 0.2,-0.5 0,-1 -0.3,-1.4 z"
       id="path66"
       inkscape:connector-curvature="0" />
    <path
       d="m 94.3,161.3 -0.4,0.3 h 1.4 l 0.2,-1.1 -0.4,0.3 c -0.2,-0.3 -0.3,-0.6 -0.3,-0.9 0,-0.9 0.8,-1.7 1.7,-1.7 0.3,0 0.7,0.1 0.9,0.3 l 0.5,-0.7 c -0.4,-0.3 -0.9,-0.4 -1.4,-0.4 -1.4,0 -2.5,1.1 -2.5,2.5 -0.1,0.5 0.1,1 0.3,1.4 z"
       id="path68"
       inkscape:connector-curvature="0" />
  </g>
  <ellipse
     transform="rotate(-73.693)"
     cx="-34.58252"
     cy="92.177948"
     rx="34.400002"
     ry="39.799999"
     id="ellipse72"
     style="fill:#5d5f60" />
  <circle
     cx="77.47345"
     cy="59.700001"
     r="28.1"
     id="circle74"
     style="fill:#4d5054" />
  <path
     d="m 77.473447,87.6 c -3.6,0 -6.5,-2.9 -6.5,-6.5 v -6.3 c 0,-4.7 -0.1,-8.6 -4.8,-8.6 h -10 c -3.6,0 -6.5,-2.9 -6.5,-6.5 0,-3.6 2.9,-6.5 6.5,-6.5 h 10 c 5.2,0 4.8,-4.2 4.8,-9.4 v -5.4 c 0,-3.6 2.9,-6.5 6.5,-6.5 3.6,0 6.5,2.9 6.5,6.5 v 5.4 c 0,5.2 -0.4,9.4 4.8,9.4 h 10 c 3.600003,0 6.500003,2.9 6.500003,6.5 0,3.6 -2.9,6.5 -6.500003,6.5 h -10 c -4.7,0 -4.8,3.8 -4.8,8.6 v 6.3 c 0,3.6 -3,6.5 -6.5,6.5 z"
     id="path76"
     inkscape:connector-curvature="0"
     style="fill:#404347" />
  <circle
     cx="77.47345"
     cy="59.700001"
     r="4.4000001"
     id="circle78"
     style="fill:#595b5f" />
  <path
     d="m 90.973447,44.5 1.7,1.7 1.8,-3.6 z m -28.8,1.7 1.7,-1.7 -3.6,-1.9 z m 1.7,28.7 -1.7,-1.7 -1.8,3.6 z m 28.8,-1.7 -1.7,1.7 3.6,1.9 z"
     id="path80"
     inkscape:connector-curvature="0"
     style="fill:#333335" />
  <path
     d="m 48.173447,124.1 c -1,0 -2.4,3.1 -2.4,6.8 0,3.8 1.4,6.8 2.4,6.8 1.1,6.4 3.7,10.8 6.7,10.8 4,0 7.3,-7.9 7.3,-17.6 0,-9.7 -3.3,-17.6 -7.3,-17.6 -3,0 -5.6,4.5 -6.7,10.8 z"
     id="path82"
     inkscape:connector-curvature="0"
     style="fill:#4d5054" />
  <ellipse
     cx="55.273445"
     cy="130.89999"
     rx="4.5"
     ry="11.5"
     id="ellipse84"
     style="fill:#0051bf" />
  <path
     d="m 136.47345,219.6 c 17.9,-14.5 13.6,-45.2 11.6,-50.4 2.2,8 1.4,15.6 1.3,19.6 -0.4,12.6 -6.3,22.9 -12.9,30.8"
     id="path86"
     inkscape:connector-curvature="0"
     style="fill:#004690" />
</svg>
