<?xml version="1.0" encoding="UTF-8" standalone="no"?>
<svg
   xmlns:dc="http://purl.org/dc/elements/1.1/"
   xmlns:cc="http://creativecommons.org/ns#"
   xmlns:rdf="http://www.w3.org/1999/02/22-rdf-syntax-ns#"
   xmlns:svg="http://www.w3.org/2000/svg"
   xmlns="http://www.w3.org/2000/svg"
   xmlns:sodipodi="http://sodipodi.sourceforge.net/DTD/sodipodi-0.dtd"
   xmlns:inkscape="http://www.inkscape.org/namespaces/inkscape"
   viewBox="0 0 493 101.4151"
   version="1.1"
   id="svg78"
   sodipodi:docname="logo.svg"
   width="493"
   height="101.4151"
   inkscape:version="0.92.4 5da689c313, 2019-01-14">
  <metadata
     id="metadata84">
    <rdf:RDF>
      <cc:Work
         rdf:about="">
        <dc:format>image/svg+xml</dc:format>
        <dc:type
           rdf:resource="http://purl.org/dc/dcmitype/StillImage" />
      </cc:Work>
    </rdf:RDF>
  </metadata>
  <defs
     id="defs82" />
  <sodipodi:namedview
     pagecolor="#ffffff"
     bordercolor="#666666"
     borderopacity="1"
     objecttolerance="10"
     gridtolerance="10"
     guidetolerance="10"
     inkscape:pageopacity="0"
     inkscape:pageshadow="2"
     inkscape:window-width="640"
     inkscape:window-height="480"
     id="namedview80"
     showgrid="false"
     inkscape:zoom="0.55306122"
     inkscape:cx="244.95625"
     inkscape:cy="50.665102"
     inkscape:window-x="0"
     inkscape:window-y="0"
     inkscape:window-maximized="0"
     inkscape:current-layer="svg78" />
  <path
     d="m 87.35625,71.2 -7,-12.7 c -0.1,-1.2 0.3,-1.8 1.1,-1.8 2.8,2.1 5.1,3.8 6.9,5.2 1.8,1.4 4,2.6 6.5,3.8 2.5,1.2 5,1.8 7.5,1.7 2.5,0 4.7,-0.8 6.8,-2.3 1.9,-1.9 2.1,-3.8 0.7,-5.6 -1.5,-1.8 -3.9,-3.7 -7.2,-5.5 -3.3,-1.8 -6.9,-4 -10.6,-6.7 -3.8,-2.7 -6.1,-4.8 -6.9,-6.2 -0.9,-1.5 -1.2,-3.4 -1,-5.8 0.2,-2.4 2.2,-4.7 5.9,-6.9 2,-1 4.3,-1.7 6.9,-2 2.6,-0.3 5.1,-0.5 7.7,-0.5 2.6,0 5.1,0.1 7.7,0.4 l 12.7,1.2 c 0.7,0.1 1.3,0.4 1.7,1 l 2.3,10.2 c 0.1,0.8 -0.2,0.8 -0.9,0 -2.4,-2.8 -5.2,-4.7 -8.2,-5.7 -3.1,-1 -6.1,-1.8 -9.2,-2.5 -3.1,-0.6 -6.3,-0.8 -9.8,-0.4 -1.3,0.4 -2.1,1.3 -2.6,2.5 -0.4,1.2 0,2.6 1.4,4.2 1.4,1.5 3.9,3.1 7.6,4.6 3.7,1.5 7,3.5 10.1,5.9 3.1,2.4 5.2,4.8 6.3,7.1 1.1,2.3 1.5,4.8 1,7.5 -0.5,2.6 -1.2,4.4 -2,5.2 -0.8,0.8 -2.2,1.8 -4.2,2.9 -2,1.1 -4.6,1.8 -7.8,2.2 -5.5,0 -8.8,-0.1 -9.9,-0.4 -1.1,-0.3 -3.1,-0.4 -6.1,-0.3 -2.9,0.1 -4.8,0.3 -5.6,0.6 -0.8,0.3 -1.3,-0.2 -1.8,-0.9 z"
     id="path2"
     inkscape:connector-curvature="0" />
  <path
     d="m 127.55625,36.7 c 0,-4.1 -1.2,-6.5 -3.6,-7.2 -0.6,-0.3 -1,-0.7 -1,-1.1 0,-0.4 0.5,-0.7 1.5,-1 h 39.5 c 1,0 1.7,0.3 2,0.9 2.4,3.5 3.9,7.9 4.5,13.3 0,0.8 -0.3,0.8 -1,0 -2,-2.3 -3.6,-4 -4.8,-5.2 -1.1,-1.2 -3,-2.4 -5.6,-3.6 -2.6,-1.2 -6,-2 -10.1,-2.3 h -3 c -4.1,0 -6.1,1.5 -6.1,4.6 v 11.5 c 0.5,0.5 1.1,0.8 1.9,0.9 0.8,0.1 2.5,-0.4 5.1,-1.3 2.6,-1 5.4,-2.8 8.3,-5.5 1,0 1.5,0.5 1.5,1.5 v 13.4 c 0,1 -0.5,1.5 -1.5,1.5 -2.9,-2.7 -5.7,-4.5 -8.3,-5.5 -2.6,-1 -4.3,-1.4 -5.1,-1.3 -0.8,0.1 -1.4,0.4 -1.9,0.9 v 13 c 0,2.7 2,4 6.1,4 h 3.1 c 4.1,-0.3 7.5,-1.1 10.1,-2.5 2.6,-1.4 4.5,-2.6 5.6,-3.8 1.1,-1.2 2.9,-2.8 5.4,-4.9 0.6,-0.7 1,-0.6 1,0.2 -0.6,5.3 -2.3,9.9 -5.1,13.8 -0.3,0.6 -1,0.9 -2,0.9 h -39.4 c -1,-0.3 -1.5,-0.6 -1.5,-1 0,-0.4 0.3,-0.7 1,-1.1 2.4,-0.7 3.6,-1.6 3.6,-2.6 V 36.7 Z"
     id="path4"
     inkscape:connector-curvature="0" />
  <path
     d="m 162.05625,50.5 c 0,-6.3 2.5,-11.7 7.6,-16.4 5.1,-4.6 11.7,-7 20,-7 3.8,0.5 5.9,0.8 6.4,1 0.5,0.1 1.4,0.2 2.6,0.2 1.3,0 2.8,-0.5 4.5,-1.5 1.2,-0.3 2,-0.1 2.4,0.6 2.3,4.5 3.3,8.8 3.1,12.9 -0.5,0.6 -1.1,0.4 -1.6,-0.6 -3.6,-4.5 -6.6,-7.1 -8.9,-7.9 -2.3,-0.8 -5.1,-1.2 -8.4,-1.2 -4.4,0.3 -7.5,2 -9.4,5.2 -1.9,3.2 -2.8,8.1 -2.8,14.7 0,5.5 0.9,10.2 2.8,14.1 1.9,3.9 5,5.8 9.4,5.8 3.3,-0.6 5.5,-1.7 6.5,-3.2 1,-1.5 1.6,-3.3 1.9,-5.3 0.2,-2 -0.4,-3.7 -1.8,-5.1 -1.4,-1.4 -3,-2.2 -4.9,-2.4 -1.1,-1.1 -1.1,-1.8 0.2,-2.3 h 18 c 1,0 1.5,0.3 1.5,0.8 0,0.5 -0.4,1 -1.3,1.5 -1.4,7.3 -3.8,12.4 -7.2,15.4 -3.4,3 -7.7,4.4 -12.9,4.1 -7.6,0 -13.9,-2.3 -19.2,-6.9 -5.3,-4.7 -8.1,-10.2 -8.5,-16.5 z"
     id="path6"
     inkscape:connector-curvature="0" />
  <path
     d="m 197.95625,72 c -0.9,-0.8 -1,-1.4 -0.4,-1.8 1.7,-0.8 3.1,-2 4.2,-3.7 l 21.5,-40.5 c 0.4,-0.4 0.9,-0.7 1.4,-0.7 0.5,0 1.1,0.2 1.6,0.7 l 17.9,39.9 c 0.6,1.5 2.1,2.9 4.3,4.2 1.3,0.4 1.5,1 0.5,1.9 h -15.1 c -1.4,-0.8 -1.1,-1.5 0.8,-2.1 1.4,-0.6 2.3,-1.2 2.8,-1.8 0.4,-0.6 0.5,-1.5 0.2,-2.6 l -9.9,-22.2 -12.3,22.7 -0.1,1 c -0.4,0.8 0.4,1.8 2.5,3.1 1.1,0.5 1.3,1.1 0.4,1.9 z"
     id="path8"
     inkscape:connector-curvature="0" />
  <linearGradient
     id="a"
     gradientUnits="userSpaceOnUse"
     x1="-51.125"
     y1="460.01099"
     x2="-50.125"
     y2="460.01099"
     gradientTransform="matrix(0,-101.4695,-101.4695,0,46930.288,-5086.16)">
    <stop
       offset="0"
       id="stop10" />
    <stop
       offset=".315"
       id="stop12" />
    <stop
       offset=".407"
       stop-color="#0e0301"
       id="stop14" />
    <stop
       offset=".522"
       stop-color="#1a0502"
       id="stop16" />
    <stop
       offset=".562"
       stop-color="#410c05"
       id="stop18" />
    <stop
       offset=".612"
       stop-color="#6b1408"
       id="stop20" />
    <stop
       offset=".665"
       stop-color="#901a0a"
       id="stop22" />
    <stop
       offset=".72"
       stop-color="#ae200c"
       id="stop24" />
    <stop
       offset=".778"
       stop-color="#c5240e"
       id="stop26" />
    <stop
       offset=".84"
       stop-color="#d5270f"
       id="stop28" />
    <stop
       offset=".909"
       stop-color="#df2810"
       id="stop30" />
    <stop
       offset="1"
       stop-color="#e22910"
       id="stop32" />
  </linearGradient>
  <path
     d="m 239.85625,35.2 c -1,-6.1 -1,-11.2 0,-15.3 0.8,-4.1 3.3,-8.2 7.8,-12.2 4.4,-4.1 9.9,-6.6 16.6,-7.7 0.9,0 1.3,0.4 1.1,1.3 -5,3.2 -8.5,6.8 -10.5,10.9 -2,4.1 -2.6,8.7 -1.5,13.8 l 1.5,6.1 9.2,24.5 c 5,10.5 4.5,20.7 -1.5,30.6 -4.9,6.2 -11.7,10.9 -20.3,14.2 -1.1,0.1 -1.7,-0.3 -1.5,-1.1 7.9,-7.9 12.1,-14.6 12.6,-20 0.5,-5.5 -1.5,-13.3 -6.1,-23.6 z"
     id="path35"
     inkscape:connector-curvature="0"
     style="fill:url(#a)" />
  <path
     d="m 262.95625,72 c -0.9,-0.8 -1,-1.4 -0.4,-1.8 1.7,-0.8 3.1,-2 4.2,-3.7 l 21.5,-40.5 c 0.4,-0.4 0.9,-0.7 1.4,-0.7 0.5,0 1.1,0.2 1.6,0.7 l 17.9,39.9 c 0.6,1.5 2.1,2.9 4.3,4.2 1.3,0.4 1.5,1 0.5,1.9 h -15 c -1.4,-0.8 -1.1,-1.5 0.8,-2.1 1.4,-0.6 2.3,-1.2 2.8,-1.8 0.4,-0.6 0.5,-1.5 0.2,-2.6 l -9.9,-22.2 -12.3,22.7 -0.1,1 c -0.4,0.8 0.4,1.8 2.5,3.1 1.1,0.5 1.3,1.1 0.4,1.9 z"
     id="path37"
     inkscape:connector-curvature="0" />
  <path
     d="m 313.95625,70.1 c 3.1,-1 4.6,-2.6 4.6,-4.6 V 30.6 h -3.1 c -6.1,0.7 -10.7,1.9 -13.8,3.6 -1.9,1 -2.9,1.1 -3.1,0.2 l 3.9,-5.9 c 0.4,-0.6 1.2,-1 2.2,-1 h 41.3 c 1,0 1.8,0.3 2.2,1 l 3.9,5.9 c -0.1,0.9 -1.1,0.8 -3.1,-0.2 -3.1,-1.7 -7.7,-2.9 -13.8,-3.6 h -3.1 v 34.8 c 0,2 1.5,3.6 4.6,4.6 1.1,0.4 1.1,1 0,1.9 h -23 c -0.9,-0.8 -0.9,-1.5 0.3,-1.8 z"
     id="path39"
     inkscape:connector-curvature="0" />
  <path
     d="M 348.15625,58.2 V 33.7 c 0,-2 -1.5,-3.3 -4.6,-3.8 -1.1,-0.6 -1.1,-1.4 0,-2.3 h 22.2 c 1.1,0.9 1.1,1.7 0,2.3 -3.1,0.5 -4.6,1.8 -4.6,3.8 v 24.5 c 0.1,2.9 1.2,5.4 3.3,7.3 2.1,1.9 4.6,2.9 7.6,2.9 2.9,0 5.4,-1 7.4,-2.9 2,-1.9 3.1,-5.6 3.1,-11 V 33.7 c 0,-2 -1.5,-3.3 -4.6,-3.8 -1,-0.6 -1,-1.4 0,-2.3 h 16 c 0.9,0.6 1,1.4 0.4,2.5 -4.2,0.4 -6.3,1.6 -6.3,3.6 v 25.9 c 0.1,3.1 -1.5,6.1 -5,9 -3.5,2.9 -8.1,4.5 -14,4.5 -6.5,-0.1 -11.6,-1.6 -15.2,-4.4 -3.7,-2.8 -5.6,-6.3 -5.7,-10.5 z"
     id="path41"
     inkscape:connector-curvature="0" />
  <path
     d="m 394.05625,69.7 c 3.1,-0.8 4.6,-2.2 4.6,-4.2 V 35.2 c 0,-3.1 -1.7,-4.8 -5.2,-5.2 -1.1,-0.8 -1.1,-1.6 -0.2,-2.5 h 29.9 c 6.1,0 10.4,1.2 12.9,3.6 2.5,2.4 3.8,5.3 3.8,8.6 0,3.4 -1.2,6.2 -3.6,8.6 -2.4,2.3 -5.5,3.4 -9.2,3.1 0.3,0.4 0.6,0.8 1.1,1.1 0.5,0.3 1.6,1.8 3.3,4.4 3.2,5.9 7.9,10.5 14.1,13.9 l 2.2,0.9 c 0.5,0.5 0.8,1 0.8,1.5 0,0.5 -0.5,1 -1.5,1.4 h -2 c -7,-0.8 -12.3,-2.1 -16.2,-4.1 -3.9,-2 -7,-5.1 -9.4,-9.4 -2,-3.1 -3.4,-6.9 -4.2,-11.4 -0.4,-2.2 0,-2.8 1.2,-2 l 2.2,0.4 c 1.9,0.4 3.8,-0.3 5.6,-2 1.8,-1.7 2.8,-3.9 2.8,-6.4 0,-3.4 -0.8,-5.9 -2.5,-7.4 -1.7,-1.6 -3.6,-2.3 -5.9,-2.3 -1.9,-0.2 -3.7,0.1 -5.1,1.1 -0.7,0.7 -1,1.6 -1,2.5 v 31.8 c 0,2 1.5,3.4 4.6,4.2 1.1,0.4 1.1,1.1 0,2.3 h -23 c -1.3,-1.1 -1.3,-1.8 -0.1,-2.2 z"
     id="path43"
     inkscape:connector-curvature="0" />
  <path
     d="m 484.35625,73.5 -32.2,-26.2 v 21.6 c 0,2 1.4,3.4 4.2,4.2 1.1,0.4 1.1,1 0,1.9 h -13.8 c -1.1,-0.9 -1.1,-1.5 0,-1.9 2.8,-0.8 4.2,-2.2 4.2,-4.2 V 41.3 c -0.6,-2.4 -1.4,-4.5 -2.3,-6.3 -1,-1.8 -2.1,-3.2 -3.3,-4.3 -1.2,-1.1 -1.9,-1.9 -2,-2.5 0,-0.5 0.3,-0.8 1,-0.8 6.7,0.2 20.2,8.9 40.4,26.2 V 34.3 c 0,-2 -1.1,-3.5 -3.4,-4.4 -1,-0.5 -1,-1.1 0,-1.7 h 12.1 c 1,0.6 1,1.2 0,1.7 -2.3,0.9 -3.4,2.4 -3.4,4.4 v 38.2 c -0.2,0.9 -0.6,1.3 -1.5,1 z m -414.5,-41.3 c 0.1,-0.8 -0.1,-1.5 -0.6,-2.1 -0.5,-0.6 -1.2,-1 -1.9,-1.1 -3.1,-0.3 -6.5,-0.3 -10.3,-0.1 -3.6,0.2 -7.3,0.7 -11.3,1.4 -3.8,0.7 -7.6,1.6 -11.5,2.6 -3.8,1.1 -7.5,2.3 -10.9,3.6 -3.6,1.4 -6.8,2.8 -9.7,4.3 -3.2,1.7 -5.7,3.2 -7.7,4.8 -2.4,1.9 -4,3.7 -4.9,5.4 -1.3,2.5 -1.4,4.7 -0.3,6.8 0.7,2.1 2.7,3 6.2,3.2 2,0.1 4.8,0 8.2,-0.7 2.8,-0.6 6.2,-1.5 10.3,-2.6 3,-0.9 6.8,-2.1 11.4,-3.7 l 11.4,-3.7 c 4.2,-1.4 7.6,-2.4 10.2,-3.2 3.2,-1 5.8,-1.5 7.7,-1.8 1.3,-0.2 2.3,-0.2 2.7,-0.1 1.1,0.7 1.6,1.3 1.7,2.1 -0.4,1.2 -1.6,2.5 -3.5,4 -2.3,1.7 -5.5,3.5 -9.4,5.3 -3.8,1.7 -8,3.3 -12.7,4.9 -3.6,1.2 -7.3,2.2 -11.1,3.1 -3.7,0.9 -7.2,1.5 -10.5,2 -3.3,0.5 -6.1,0.7 -8.5,0.8 -2.1,0 -3.7,-0.1 -4.8,-0.5 -0.7,-0.3 -1.4,-0.2 -2.1,0.1 -0.8,0.3 -1.2,0.9 -1.5,1.6 -0.3,0.8 -0.2,1.5 0.1,2.2 0.3,0.7 0.9,1.2 1.6,1.5 1.5,0.6 3.8,0.9 6.9,0.9 2.6,0 5.7,-0.3 9.3,-0.8 3.5,-0.5 7.1,-1.2 10.9,-2.1 3.9,-1 7.8,-2 11.5,-3.2 4.9,-1.5 9.4,-3.3 13.3,-5.1 4.3,-2 7.8,-4 10.5,-6 3.4,-2.6 5.3,-5 5.6,-7.4 0.9,-3.2 -0.5,-5.9 -4.2,-8.2 -1.2,-0.9 -3.3,-1.2 -6.6,-0.7 -2.1,0.3 -4.9,1 -8.5,2 -2.7,0.8 -6.1,1.8 -10.5,3.3 l -11.4,3.7 c -4.6,1.5 -8.3,2.7 -11.2,3.6 -3.9,1.2 -7.1,2 -9.8,2.5 -2.8,0.6 -5,0.8 -6.7,0.7 h -1.3 c -0.1,-0.5 -0.1,-1.1 0.2,-1.6 0.6,-1.1 1.7,-2.3 3.4,-3.6 1.8,-1.4 4,-2.8 6.7,-4.1 2.7,-1.4 5.7,-2.7 9.1,-4 3.3,-1.2 6.8,-2.4 10.5,-3.4 3.7,-1.1 7.3,-1.9 11,-2.5 3.7,-0.7 7.3,-1.2 10.6,-1.3 3.5,-0.3 6.6,-0.2 9.3,0 0.8,0.1 1.5,-0.1 2.1,-0.6 0.5,-0.8 0.9,-1.4 1,-2.2 z"
     id="path45"
     inkscape:connector-curvature="0" />
  <radialGradient
     id="b"
     cx="-51.125"
     cy="460.01099"
     r="1"
     gradientTransform="matrix(22.1781,0,0,-22.1781,1176.2392,10242.426)"
     gradientUnits="userSpaceOnUse">
    <stop
       offset="0"
       stop-color="#fff"
       id="stop47" />
    <stop
       offset=".04"
       stop-color="#fff"
       id="stop49" />
    <stop
       offset=".074"
       stop-color="#fff"
       id="stop51" />
    <stop
       offset=".279"
       stop-color="#fff"
       id="stop53" />
    <stop
       offset=".339"
       stop-color="#fafbfe"
       id="stop55" />
    <stop
       offset=".411"
       stop-color="#ebf0fb"
       id="stop57" />
    <stop
       offset=".492"
       stop-color="#d2ddf6"
       id="stop59" />
    <stop
       offset=".577"
       stop-color="#afc3ee"
       id="stop61" />
    <stop
       offset=".666"
       stop-color="#82a2e5"
       id="stop63" />
    <stop
       offset=".702"
       stop-color="#6e93e1"
       id="stop65" />
    <stop
       offset=".82"
       stop-color="#3f72c3"
       id="stop67" />
    <stop
       offset=".939"
       stop-color="#1654a9"
       id="stop69" />
    <stop
       offset="1"
       stop-color="#06499f"
       id="stop71" />
  </radialGradient>
  <path
     d="m 13.85625,50.7 c 0,-13.5 11,-24.5 24.5,-24.5 13.5,0 24.5,11 24.5,24.5 0,13.5 -11,24.5 -24.5,24.5 -13.5,0 -24.5,-10.9 -24.5,-24.5 z"
     id="path74"
     inkscape:connector-curvature="0"
     style="fill:url(#b)" />
  <path
     d="m 13.75625,54.8 c -0.3,0.1 -7.7,1.7 -8.9,0.4 -0.4,-0.4 0.8,0.6 1.9,2.1 0.1,0.2 0.1,0.5 -0.1,0.9 0,0.1 -0.1,0.1 -0.2,0.2 l -0.1,0.3 c 0,0.1 -0.1,0.3 -0.1,0.4 -0.1,0.4 -0.3,0.8 -0.4,1 0,0.1 0.1,0.2 0.1,0.3 v 0.2 l -0.2,0.2 v 0.1 c 0.1,0 0.5,0.1 0.5,0.1 0.1,0 0.7,0.1 1.7,0.1 0.9,0 2.1,0 3.1,-0.1 0.6,-0.1 1.3,-0.2 1.9,-0.2 0.8,-0.1 1.5,-0.2 2.1,-0.3 0.5,-0.1 0.7,0 0.8,0 2.7,-0.6 5.8,-1.4 9.6,-2.5 3,-0.9 6.8,-2.1 11.4,-3.7 l 11.4,-3.7 c 2.3,-0.8 4.4,-1.4 6.2,-2 1.5,-0.5 2.8,-0.8 4,-1.2 1.5,-0.4 2.8,-0.8 4,-1.1 1.4,-0.3 2.7,-0.6 3.7,-0.7 1.3,-0.2 2.3,-0.2 2.7,-0.1 0.4,0.3 2.2,0.1 3.1,1.4 1.4,2.2 2.1,6.1 2.7,5.3 0.8,-1.1 1.3,-2.3 1.5,-3.4 0.9,-3.2 -0.5,-5.7 -4.2,-8.1 -1.2,-0.9 -3.3,-1.2 -6.6,-0.7 -1.3,0.2 -2.8,0.5 -4.6,1 -1.2,0.3 -2.4,0.5 -3.8,0.9 -1.3,0.4 -2.9,0.8 -4.6,1.4 -1.8,0.5 -3.7,1.2 -5.9,1.9 l -11.5,3.5 c -3.2,1.1 -6,2 -8.4,2.7 z"
     id="path76"
     inkscape:connector-curvature="0" />
</svg>
