<?xml version="1.0" encoding="UTF-8" standalone="no"?>
<svg
   xmlns:dc="http://purl.org/dc/elements/1.1/"
   xmlns:cc="http://creativecommons.org/ns#"
   xmlns:rdf="http://www.w3.org/1999/02/22-rdf-syntax-ns#"
   xmlns:svg="http://www.w3.org/2000/svg"
   xmlns="http://www.w3.org/2000/svg"
   xmlns:sodipodi="http://sodipodi.sourceforge.net/DTD/sodipodi-0.dtd"
   xmlns:inkscape="http://www.inkscape.org/namespaces/inkscape"
   version="1"
   viewBox="0 0 68.58074 200"
   id="svg78"
   sodipodi:docname="controller.svg"
   width="68.580742"
   height="200"
   inkscape:version="0.92.4 5da689c313, 2019-01-14">
  <metadata
     id="metadata84">
    <rdf:RDF>
      <cc:Work
         rdf:about="">
        <dc:format>image/svg+xml</dc:format>
        <dc:type
           rdf:resource="http://purl.org/dc/dcmitype/StillImage" />
      </cc:Work>
    </rdf:RDF>
  </metadata>
  <defs
     id="defs82" />
  <sodipodi:namedview
     pagecolor="#ffffff"
     bordercolor="#666666"
     borderopacity="1"
     objecttolerance="10"
     gridtolerance="10"
     guidetolerance="10"
     inkscape:pageopacity="0"
     inkscape:pageshadow="2"
     inkscape:window-width="640"
     inkscape:window-height="480"
     id="namedview80"
     showgrid="false"
     inkscape:zoom="1.1799999"
     inkscape:cx="34.290371"
     inkscape:cy="99.999997"
     inkscape:window-x="0"
     inkscape:window-y="0"
     inkscape:window-maximized="0"
     inkscape:current-layer="svg78" />
  <path
     stroke-miterlimit="10"
     d="m 4.3587627,199.12826 c -1.925979,0 -3.48701842,-1.56104 -3.48701842,-3.48702 V 4.3587643 c 0,-1.92577 1.56103942,-3.48702002 3.48701842,-3.48702002 H 64.221978 c 1.925774,0 3.487019,1.56125002 3.487019,3.48702002 V 195.64124 c 0,1.92598 -1.561245,3.48702 -3.487019,3.48702 z"
     id="path2"
     inkscape:connector-curvature="0"
     style="stroke:#2e2e2f;stroke-width:1.74348855;stroke-miterlimit:10" />
  <path
     stroke-miterlimit="10"
     d="m 62.788463,187.98591 v -70.66153 h -2.870312 c -5.548312,0 -10.04609,-4.49778 -10.04609,-10.04609 0,-5.54831 4.497778,-10.046086 10.04609,-10.046086 h 2.870312 v -85.21811 c 0,-3.2098297 -2.601938,-5.8117697 -5.811766,-5.8117697 H 12.218906 c -3.2096237,0 -5.8117661,2.60194 -5.8117661,5.8117697 V 187.98612 c 0,3.20962 2.6019373,5.81176 5.8117661,5.81176 h 44.757791 c 3.209828,-2e-4 5.811766,-2.60214 5.811766,-5.81197 z"
     id="path4"
     inkscape:connector-curvature="0"
     style="stroke:#2e2e2f;stroke-width:0.58115608;stroke-miterlimit:10" />
  <path
     d="m 45.509188,172.06532 c 0,-5.94811 -4.444882,-10.85449 -10.193706,-11.58806 v -2.8615 c 5.748824,-0.73357 10.193706,-5.64016 10.193706,-11.58806 0,-5.9479 -4.444882,-10.85449 -10.193706,-11.58806 v -2.45145 c 5.748824,-0.73357 10.193706,-5.64017 10.193706,-11.58807 0,-5.9479 -4.444882,-10.85449 -10.193706,-11.58806 v -2.86149 c 5.748824,-0.73357 10.193706,-5.64017 10.193706,-11.588066 0,-5.9481 -4.444882,-10.85469 -10.193706,-11.58806 v -13.06648 c 10.313439,-0.73562 18.452002,-9.33445 18.452002,-19.83528 0,-10.98346 -8.903706,-19.88716 -19.887158,-19.88716 -10.983247,0 -19.887158,8.9037 -19.887158,19.88716 0,10.43091 8.031132,18.98526 18.24698,19.81929 v 13.09375 c -5.705154,0.77293 -10.103496,5.65964 -10.103496,11.57658 0,5.916936 4.398342,10.803646 10.103496,11.576576 v 2.88466 c -5.705154,0.77294 -10.103496,5.65944 -10.103496,11.57658 0,5.91715 4.398342,10.80365 10.103496,11.57658 v 2.47462 c -5.705154,0.77294 -10.103496,5.65944 -10.103496,11.57658 0,5.91715 4.398342,10.80365 10.103496,11.57659 v 2.88466 c -5.705154,0.77293 -10.103496,5.65943 -10.103496,11.57658 0,6.4541 5.232168,11.68627 11.686268,11.68627 6.4541,0 11.686268,-5.23258 11.686268,-11.68668 z"
     id="path6"
     inkscape:connector-curvature="0"
     style="fill:#ffffff" />
  <g
     stroke-miterlimit="10"
     transform="matrix(0,0.20502225,-0.20502225,0,68.580751,-5.7298138e-6)"
     id="g26"
     style="stroke-width:5.66930008;stroke-miterlimit:10">
    <circle
       cx="242.418"
       cy="168.252"
       r="86"
       id="circle8"
       style="stroke:#2e2e2f" />
    <circle
       cx="460.01599"
       cy="170.01601"
       r="46"
       id="circle10"
       style="stroke:#222223" />
    <circle
       cx="460.01599"
       cy="170.01601"
       r="35.432999"
       id="circle12"
       style="stroke:#414042" />
    <circle
       cx="587.01599"
       cy="170.01601"
       r="46"
       id="circle14"
       style="stroke:#222223" />
    <circle
       cx="587.01599"
       cy="170.01601"
       r="35.432999"
       id="circle16"
       style="stroke:#414042" />
    <circle
       cx="712.01599"
       cy="170.01601"
       r="46"
       id="circle18"
       style="stroke:#222223" />
    <circle
       cx="712.01599"
       cy="170.01601"
       r="35.432999"
       id="circle20"
       style="stroke:#414042" />
    <circle
       cx="839.33002"
       cy="170.01601"
       r="46"
       id="circle22"
       style="stroke:#222223" />
    <circle
       cx="839.33099"
       cy="170.01601"
       r="35.432999"
       id="circle24"
       style="stroke:#414042" />
  </g>
  <g
     stroke-miterlimit="10"
     transform="matrix(0,0.20502225,-0.20502225,0,68.580751,-5.7298138e-6)"
     id="g32"
     style="stroke-miterlimit:10">
    <circle
       cx="242.418"
       cy="168.752"
       r="54"
       id="circle28"
       style="stroke:#2e2e2f;stroke-width:14.17319965" />
    <circle
       cx="242.418"
       cy="168.502"
       r="26.5"
       id="circle30"
       style="fill:#6d6e71;stroke:#414042;stroke-width:2.83459997" />
  </g>
  <g
     transform="matrix(0,0.20502225,-0.20502225,0,68.580751,-5.7298138e-6)"
     id="g74">
    <g
       stroke-miterlimit="10"
       id="g42"
       style="fill:none;stroke:#0072bc;stroke-width:1.41729999;stroke-miterlimit:10">
      <path
         d="m 652.532,84.699 22.847,-32.347 -13.428,-0.107 -9.418,13.21 -9.953,-13.284 -14.165,-0.114 z m 91.29,-5.901 c -3.415,3.622 -8.547,5.925 -14.284,5.925 -10.283,0 -18.618,-7.396 -18.618,-16.52 0,-9.125 8.335,-16.521 18.618,-16.521 5.835,0 11.042,2.381 14.455,6.11 l -7.688,6.657 c -1.411,-1.998 -3.915,-3.328 -6.768,-3.328 -4.406,0 -7.979,3.171 -7.979,7.081 0,3.91 3.572,7.08 7.979,7.08 2.853,0 5.356,-1.329 6.768,-3.327 z m 11.473,5.628 h 12.692 V 63.444 h 9.615 L 775.233,52.18 h -27.186 l -2.367,11.264 h 9.615 z m 26.813,-32.21 v 32.146 h 13.011 V 60.945 h 5.711 c 1.746,0.986 1.588,2.253 1.588,2.253 0.951,4.787 -4.603,3.942 -4.603,3.942 v 9.434 l 5.554,7.828 h 15.233 l -8.409,-13.319 c 2.537,-1.126 4.283,-3.379 4.283,-3.379 1.744,-2.112 0.953,-7.18 0.953,-7.18 -0.796,-8.448 -10.315,-8.308 -10.315,-8.308 z m 38.398,9.151 v 23.068 h 27.514 l 3.331,-9.257 h -20.533 v -3.401 h 10.433 v -7.293 h -10.433 v -3.117 h 20.533 l -3.331,-9.256 h -27.514 z m -142.763,0 v 23.068 h 27.824 l 3.37,-9.257 h -20.765 v -3.401 h 10.552 v -7.292 h -10.552 v -3.118 h 20.765 l -3.37,-9.256 h -27.824 z"
         id="path34"
         inkscape:connector-curvature="0" />
      <path
         d="m 851.321,52.239 14.857,16.109 -14.855,16.1 15.602,-0.079 7.015,-7.606 7.014,7.606 15.6,0.079 -14.856,-16.1 14.858,-16.109 -15.587,0.079 -7.029,7.62 -7.034,-7.62 z"
         id="path36"
         inkscape:connector-curvature="0" />
      <path
         d="m 652.532,84.699 22.847,-32.347 -13.428,-0.107 -9.418,13.21 -9.953,-13.284 -14.165,-0.114 z m 91.29,-5.901 c -3.415,3.622 -8.547,5.925 -14.284,5.925 -10.283,0 -18.618,-7.396 -18.618,-16.52 0,-9.125 8.335,-16.521 18.618,-16.521 5.835,0 11.042,2.381 14.455,6.11 l -7.688,6.657 c -1.411,-1.998 -3.915,-3.328 -6.768,-3.328 -4.406,0 -7.979,3.171 -7.979,7.081 0,3.91 3.572,7.08 7.979,7.08 2.853,0 5.356,-1.329 6.768,-3.327 z m 11.473,5.628 h 12.692 V 63.444 h 9.615 L 775.233,52.18 h -27.186 l -2.367,11.264 h 9.615 z m 26.813,-32.21 v 32.146 h 13.011 V 60.945 h 5.711 c 1.746,0.986 1.588,2.253 1.588,2.253 0.951,4.787 -4.603,3.942 -4.603,3.942 v 9.434 l 5.554,7.828 h 15.233 l -8.409,-13.319 c 2.537,-1.126 4.283,-3.379 4.283,-3.379 1.744,-2.112 0.953,-7.18 0.953,-7.18 -0.796,-8.448 -10.315,-8.308 -10.315,-8.308 z m 38.398,9.151 v 23.068 h 27.514 l 3.331,-9.257 h -20.533 v -3.401 h 10.433 v -7.293 h -10.433 v -3.117 h 20.533 l -3.331,-9.256 h -27.514 z m -142.763,0 v 23.068 h 27.824 l 3.37,-9.257 h -20.765 v -3.401 h 10.552 v -7.292 h -10.552 v -3.118 h 20.765 l -3.37,-9.256 h -27.824 z"
         id="path38"
         inkscape:connector-curvature="0" />
      <path
         d="m 851.321,52.239 14.857,16.109 -14.855,16.1 15.602,-0.079 7.015,-7.606 7.014,7.606 15.6,0.079 -14.856,-16.1 14.858,-16.109 -15.587,0.079 -7.029,7.62 -7.034,-7.62 z"
         id="path40"
         inkscape:connector-curvature="0" />
    </g>
    <g
       id="g48"
       style="clip-rule:evenodd;fill-rule:evenodd">
      <path
         d="M 105.791,57.239 V 83.127 H 100.55 V 66.975 L 95.268,83.127 H 91.991 L 86.842,66.975 v 16.152 h -5.59 V 57.239 h 7.529 l 4.948,14.074 4.414,-14.074"
         id="path44"
         inkscape:connector-curvature="0"
         style="fill:#ed1c24" />
      <path
         d="m 108.643,57.239 h 11.101 c 3.512,0 7.238,2.897 7.222,6.356 -0.015,3.379 -2.595,4.894 -4.326,5.761 2.801,0.702 5.05,4.008 4.928,6.76 -0.154,3.496 -3.248,7.01 -7.824,7.01 h -11.101 z m 5.416,3.641 h 3.478 c 5.316,0 5.104,6.261 0.268,6.261 H 114.06 V 60.88 Z m 0.067,10.639 h 3.478 c 5.316,0 5.104,7.757 0.267,7.757 h -3.745 z"
         id="path46"
         inkscape:connector-curvature="0"
         style="fill:#0095da" />
    </g>
    <circle
       cx="145.69701"
       cy="71.150002"
       r="3.9360001"
       id="circle50"
       style="clip-rule:evenodd;fill:#ed1c24;fill-rule:evenodd" />
    <circle
       cx="166.687"
       cy="71.150002"
       r="3.9360001"
       id="circle52"
       style="clip-rule:evenodd;fill:#ed1c24;fill-rule:evenodd" />
    <circle
       cx="187.67599"
       cy="71.150002"
       r="3.9360001"
       id="circle54"
       style="clip-rule:evenodd;fill:#ed1c24;fill-rule:evenodd" />
    <circle
       cx="328.25201"
       cy="70.150002"
       r="3.9360001"
       id="circle56"
       style="clip-rule:evenodd;fill:#ed1c24;fill-rule:evenodd" />
    <circle
       cx="350.25201"
       cy="70.182999"
       r="3.9360001"
       id="circle58"
       style="clip-rule:evenodd;fill:#ed1c24;fill-rule:evenodd" />
    <circle
       cx="371.242"
       cy="70.182999"
       r="3.9360001"
       id="circle60"
       style="clip-rule:evenodd;fill:#ed1c24;fill-rule:evenodd" />
    <circle
       cx="392.26801"
       cy="70.182999"
       r="3.9360001"
       id="circle62"
       style="clip-rule:evenodd;fill:#ed1c24;fill-rule:evenodd" />
    <circle
       cx="413.258"
       cy="70.182999"
       r="3.9360001"
       id="circle64"
       style="clip-rule:evenodd;fill:#ed1c24;fill-rule:evenodd" />
    <circle
       cx="434.24799"
       cy="70.182999"
       r="3.9360001"
       id="circle66"
       style="clip-rule:evenodd;fill:#ed1c24;fill-rule:evenodd" />
    <circle
       cx="455.237"
       cy="70.182999"
       r="3.9360001"
       id="circle68"
       style="clip-rule:evenodd;fill:#ed1c24;fill-rule:evenodd" />
    <circle
       cx="600.31598"
       cy="71.150002"
       r="3.9360001"
       id="circle70"
       style="clip-rule:evenodd;fill:#ed1c24;fill-rule:evenodd" />
    <circle
       cx="621.30701"
       cy="71.150002"
       r="3.9360001"
       id="circle72"
       style="clip-rule:evenodd;fill:#ed1c24;fill-rule:evenodd" />
  </g>
  <path
     d="m 16.861224,95.638154 h -5.48537 v -1.51593 h 3.594245 c -0.186365,-0.24521 -0.337261,-0.48263 -0.452484,-0.71184 -0.115222,-0.22922 -0.225729,-0.51686 -0.331111,-0.86273 h 1.228904 c 0.164222,0.51009 0.361864,0.90619 0.592309,1.18831 0.230445,0.2819 0.515221,0.50271 0.853507,0.66201 z m -5.48537,27.027256 v -4.49572 c 0.443873,0.0517 0.861504,0.20789 1.252686,0.46909 0.390978,0.2612 0.852893,0.75099 1.38513,1.4698 0.326191,0.43895 0.573858,0.71983 0.743206,0.84244 0.169143,0.1226 0.329676,0.1837 0.482007,0.1837 0.164223,0 0.304663,-0.0605 0.421321,-0.18206 0.116248,-0.12158 0.174679,-0.27412 0.174679,-0.45802 0,-0.19129 -0.06007,-0.34751 -0.180215,-0.46909 -0.120143,-0.12138 -0.332341,-0.20297 -0.636389,-0.24459 l 0.121579,-1.50077 c 0.42173,0.0588 0.750996,0.16669 0.987592,0.32353 0.236595,0.15684 0.418245,0.37847 0.544539,0.66407 0.126294,0.28559 0.18944,0.68128 0.18944,1.18646 0,0.52732 -0.06007,0.93757 -0.180214,1.23075 -0.120348,0.29297 -0.304868,0.52362 -0.553765,0.69154 -0.248897,0.16791 -0.527932,0.25197 -0.836901,0.25197 -0.328856,0 -0.642745,-0.0964 -0.941872,-0.28888 -0.299333,-0.19251 -0.627983,-0.54249 -0.986157,-1.05033 -0.208508,-0.30158 -0.354484,-0.50332 -0.437723,-0.60502 -0.08344,-0.10189 -0.192516,-0.22142 -0.327625,-0.35878 v 2.33971 h -1.221318 z m 3.833711,22.90078 0.253818,-1.41649 c 0.451049,0.11768 0.797126,0.34423 1.037412,0.67903 0.240491,0.3348 0.360634,0.80861 0.360634,1.42203 0,0.70384 -0.131214,1.21271 -0.393642,1.5266 -0.262429,0.31389 -0.59231,0.47093 -0.989643,0.47093 -0.23311,0 -0.443873,-0.064 -0.632698,-0.19128 -0.189031,-0.12773 -0.354484,-0.32025 -0.496769,-0.57755 -0.05146,0.20851 -0.111737,0.36781 -0.180215,0.47811 -0.110507,0.17899 -0.255663,0.3184 -0.436082,0.41763 -0.180215,0.0992 -0.395488,0.14905 -0.645615,0.14905 -0.313889,0 -0.614862,-0.082 -0.903123,-0.24643 -0.288056,-0.16443 -0.510095,-0.40103 -0.665912,-0.70999 -0.155612,-0.30918 -0.233521,-0.71512 -0.233521,-1.21763 0,-0.49062 0.05761,-0.8775 0.172834,-1.16084 0.115428,-0.28313 0.283956,-0.51624 0.505995,-0.69892 0.221834,-0.18288 0.500869,-0.32311 0.836901,-0.42132 l 0.198666,1.49748 c -0.301587,0.0589 -0.51071,0.15008 -0.627368,0.27391 -0.116452,0.12384 -0.174679,0.2815 -0.174679,0.47299 0,0.20092 0.0734,0.36842 0.220604,0.5021 0.147206,0.13367 0.343412,0.20072 0.588619,0.20072 0.250332,0 0.443873,-0.0644 0.581238,-0.19334 0.137365,-0.12855 0.206048,-0.30323 0.206048,-0.52424 0,-0.11768 -0.02952,-0.27945 -0.08836,-0.48549 l 1.070626,0.0771 c -0.0123,0.0834 -0.01825,0.14865 -0.01825,0.19498 0,0.19621 0.06253,0.36002 0.187595,0.49123 0.124859,0.13101 0.2735,0.19662 0.445104,0.19662 0.164428,0 0.295437,-0.0488 0.393642,-0.147 0.09821,-0.0982 0.147206,-0.23311 0.147206,-0.40492 0,-0.17652 -0.0533,-0.32004 -0.159917,-0.43055 -0.107022,-0.1105 -0.294002,-0.18534 -0.561146,-0.2245 z m -2.825616,27.56996 v -2.72987 h 1.232388 l 3.244887,2.72967 v 1.30599 h -3.314799 v 0.67698 h -1.162476 v -0.67698 h -1.008095 v -1.30599 h 1.008095 z m 1.162476,0 h 1.697379 l -1.697379,-1.44233 z"
     id="path76"
     inkscape:connector-curvature="0"
     style="fill:#ed1c24" />
</svg>
