<?xml version="1.0" encoding="UTF-8" standalone="no"?>
<svg
   xmlns:dc="http://purl.org/dc/elements/1.1/"
   xmlns:cc="http://creativecommons.org/ns#"
   xmlns:rdf="http://www.w3.org/1999/02/22-rdf-syntax-ns#"
   xmlns:svg="http://www.w3.org/2000/svg"
   xmlns="http://www.w3.org/2000/svg"
   xmlns:sodipodi="http://sodipodi.sourceforge.net/DTD/sodipodi-0.dtd"
   xmlns:inkscape="http://www.inkscape.org/namespaces/inkscape"
   width="213.90587"
   height="200.00006"
   version="1"
   id="svg34"
   sodipodi:docname="game.svg"
   inkscape:version="0.92.4 5da689c313, 2019-01-14">
  <metadata
     id="metadata40">
    <rdf:RDF>
      <cc:Work
         rdf:about="">
        <dc:format>image/svg+xml</dc:format>
        <dc:type
           rdf:resource="http://purl.org/dc/dcmitype/StillImage" />
      </cc:Work>
    </rdf:RDF>
  </metadata>
  <defs
     id="defs38" />
  <sodipodi:namedview
     pagecolor="#ffffff"
     bordercolor="#666666"
     borderopacity="1"
     objecttolerance="10"
     gridtolerance="10"
     guidetolerance="10"
     inkscape:pageopacity="0"
     inkscape:pageshadow="2"
     inkscape:window-width="640"
     inkscape:window-height="480"
     id="namedview36"
     showgrid="false"
     inkscape:zoom="1.1799996"
     inkscape:cx="106.95293"
     inkscape:cy="100.00003"
     inkscape:window-x="0"
     inkscape:window-y="0"
     inkscape:window-maximized="0"
     inkscape:current-layer="svg34">
    <inkscape:grid
       type="xygrid"
       id="grid847"
       originx="-4.1604614e-08"
       originy="-4.7676085e-07" />
  </sodipodi:namedview>
  <path
     stroke-miterlimit="10"
     d="m 212.65739,196.67078 c 0,1.1491 -0.93167,2.0808 -2.08076,2.0808 H 3.3292449 c -1.1492432,0 -2.0807643,-0.9317 -2.0807643,-2.0808 V 3.3292806 c 0,-1.1492 0.931668,-2.0808 2.0807643,-2.0808 H 210.57663 c 1.14909,0 2.08076,0.9317 2.08076,2.0808 z"
     id="path2"
     inkscape:connector-curvature="0"
     style="stroke:#383839;stroke-width:2.49696112;stroke-miterlimit:10" />
  <path
     stroke-miterlimit="10"
     d="m 206.31938,80.086481 h -2.61722 c -1.4298,-0.084 -2.57875,-2.9848 -2.57875,-6.5537 0,-0.066 0.001,-0.1305 0.002,-0.1957 h -0.0658 V 3.1864806 c 0,-1.1493 -0.93167,-2.0808 -2.08077,-2.0808 H 14.927144 c -1.149097,0 -2.080765,0.9317 -2.080765,2.0808 V 73.337081 h -0.0019 c 7.34e-4,0.065 0.0021,0.1301 0.0021,0.1957 0,3.6217 -1.183156,6.5577 -2.642613,6.5577 H 7.5866046 c -1.1490964,0 -2.0807643,0.9317 -2.0807643,2.0808 V 193.11018 c 0,1.1491 0.9316679,2.0808 2.0807643,2.0808 H 206.31919 c 1.1491,0 2.08076,-0.9317 2.08076,-2.0808 V 82.171281 c 0,-1.1491 -0.93152,-2.0808 -2.08061,-2.0808 z"
     id="path4"
     inkscape:connector-curvature="0"
     style="stroke:#383839;stroke-width:2.08079362;stroke-miterlimit:10" />
  <path
     d="m 201.20607,185.03158 c 0,1.1491 -0.93167,2.0807 -2.08077,2.0807 H 14.780569 c -1.149243,0 -2.080911,-0.9316 -2.080911,-2.0807 V 88.186481 c 0,-1.1492 0.931668,-2.0807 2.080911,-2.0807 H 199.1253 c 1.1491,0 2.08077,0.9316 2.08077,2.0807 z"
     id="path6"
     inkscape:connector-curvature="0"
     style="fill:#939598" />
  <path
     stroke-miterlimit="10"
     d="M 15.504645,86.105781 V 187.11228 M 21.377999,86.105781 V 187.11228 M 27.250473,86.105781 V 187.11228 M 33.122947,86.105781 V 187.11228 M 38.995421,86.105781 V 187.11228 M 44.867895,86.105781 V 187.11228 M 50.741102,86.105781 V 187.11228 M 56.613576,86.105781 V 187.11228 M 62.48605,86.105781 V 187.11228 M 68.358524,86.105781 V 187.11228 M 74.230998,86.105781 V 187.11228 M 80.104205,86.105781 V 187.11228 M 85.976679,86.105781 V 187.11228 M 91.849153,86.105781 V 187.11228 M 97.721627,86.105781 V 187.11228 M 103.5941,86.105781 V 187.11228 M 109.46731,86.105781 V 187.11228 M 115.33978,86.105781 V 187.11228 M 121.21226,86.105781 V 187.11228 M 127.08473,86.105781 V 187.11228 M 132.9572,86.105781 V 187.11228 M 138.82968,86.105781 V 187.11228 M 144.70303,86.105781 V 187.11228 M 150.57551,86.105781 V 187.11228 M 156.44798,86.105781 V 187.11228 M 162.32045,86.105781 V 187.11228 M 168.19293,86.105781 V 187.11228 M 174.06599,86.105781 V 187.11228 M 179.93846,86.105781 V 187.11228 M 185.81094,86.105781 V 187.11228 M 191.68341,86.105781 V 187.11228 M 197.55588,86.105781 V 187.11228"
     id="path8"
     inkscape:connector-curvature="0"
     style="fill:#ffffff;stroke:#ffffff;stroke-width:0.41615286;stroke-miterlimit:10" />
  <path
     stroke-miterlimit="10"
     d="M 12.699658,183.50868 H 201.20607 M 12.699658,177.97548 H 201.20607 M 12.699658,172.44218 H 201.20607 M 12.699658,166.90898 H 201.20607 M 12.699658,161.37558 H 201.20607 M 12.699658,155.84238 H 201.20607 M 12.699658,150.30908 H 201.20607 M 12.699658,144.77588 H 201.20607 M 12.699658,139.24258 H 201.20607 M 12.699658,133.70938 H 201.20607 M 12.699658,128.17598 H 201.20607 M 12.699658,122.64278 H 201.20607 M 12.699658,117.10958 H 201.20607 M 12.699658,111.57628 H 201.20607 M 12.699658,106.04308 H 201.20607 M 12.699658,100.50978 H 201.20607 M 12.699658,94.976581 H 201.20607 M 12.699658,89.443281 H 201.20607"
     id="path10"
     inkscape:connector-curvature="0"
     style="fill:none;stroke:#ffffff;stroke-width:0.41615286;stroke-miterlimit:10" />
  <path
     d="m 176.70493,183.71028 c 0,1.1491 -0.94077,2.0807 -2.10132,2.0807 H 43.59254 c -1.160548,0 -2.101318,-0.9316 -2.101318,-2.0807 v -9.9325 c 0,-1.149 0.94077,-2.0807 2.101318,-2.0807 h 131.01107 c 1.1604,0 2.10132,0.9317 2.10132,2.0807 z"
     id="path12"
     inkscape:connector-curvature="0"
     style="fill:#939598" />
  <path
     d="m 156.74748,99.375681 4.53355,-5.5388 c 0.61059,-0.7463 0.73508,-1.7772 0.32019,-2.6475 -0.41342,-0.8653 -1.2871,-1.4163 -2.24519,-1.4163 h -0.0141 l -6.10913,0.035 c -0.74096,0 -1.4414,0.3387 -1.9109,0.912 l -0.83081,1.0149 -0.83125,-1.0155 c -0.46921,-0.5733 -1.1695,-0.907 -1.91046,-0.9114 l -6.10899,-0.035 c -0.18572,-8e-4 -0.36791,0.025 -0.54614,0.065 -0.24195,-0.078 -0.49813,-0.1209 -0.76225,-0.1209 h -10.78406 c -0.91978,0 -1.71359,0.5047 -2.14404,1.2467 -1.16466,-0.8081 -2.56275,-1.2001 -3.88817,-1.2001 h -9.01747 c -0.49358,0 -0.9512,0.1482 -1.33805,0.3964 -0.3936,-0.2579 -0.85855,-0.4125 -1.35698,-0.4125 h -10.65516 c -0.89981,0 -1.703459,0.4815 -2.140665,1.2204 -1.518769,-0.9328 -3.279483,-1.4405 -5.114631,-1.4405 -2.624115,0 -5.004816,1.0436 -6.763622,2.731 l -0.264261,-0.8186 c -0.331354,-1.0267 -1.28754,-1.7228 -2.367047,-1.7228 H 73.591338 c -0.254131,0 -0.494609,0.05 -0.724956,0.1205 -0.05975,0 -0.118624,-0.014 -0.178817,-0.014 l -5.263352,-0.047 c -0.866777,-0.015 -1.664552,0.4304 -2.124661,1.1573 l -1.641209,2.5944 -1.777158,-2.674 c -0.456731,-0.6871 -1.224411,-1.1028 -2.049346,-1.1106 l -5.552278,-0.049 c -0.918308,-0.029 -1.765559,0.4898 -2.205701,1.2953 -0.440288,0.8056 -0.400356,1.7881 0.102915,2.5562 l 9.452775,14.417799 c 0.460108,0.7014 1.242762,1.1232 2.08047,1.1232 h 0.02525 c 0.847251,-0.01 1.632548,-0.4485 2.082379,-1.1665 l 5.286107,-8.433299 v 6.995699 c 0,1.3739 1.113568,2.4874 2.48758,2.4874 h 10.906506 c 1.079654,0 2.035693,-0.6956 2.367047,-1.7227 l 0.279823,-0.8667 c 1.757925,1.6786 4.131726,2.7169 6.74806,2.7169 2.904966,0 5.641245,-1.2788 7.506928,-3.5083 0.0389,-0.047 0.0661,-0.099 0.10101,-0.1472 v 1.0369 c 0,1.3739 1.11357,2.4874 2.48758,2.4874 h 4.99656 l 5.51103,-0.026 h 5.102 c 0.61265,0 1.17332,-0.2217 1.60657,-0.5885 0.44601,0.3853 1.02181,0.6059 1.62726,0.6059 h 5.9701 c 0.1176,0 0.23329,-0.01 0.34736,-0.025 0.13081,0.021 0.26235,0.04 0.39889,0.04 h 10.78406 c 0.21567,0 0.42414,-0.035 0.6263,-0.087 0.21478,0.06 0.43911,0.093 0.66902,0.093 h 0.0141 l 6.11501,-0.035 c 0.74096,0 1.4414,-0.3387 1.9109,-0.912 l 0.8245,-1.0072 0.82391,1.0067 c 0.46877,0.5738 1.1695,0.9082 1.9109,0.9125 l 6.11501,0.035 h 0.0141 c 0.95795,0 1.83207,-0.551 2.24505,-1.4162 0.41489,-0.8703 0.2901,-1.9012 -0.32064,-2.6474 l -4.53281,-5.536099 z m -55.47477,2.880099 -2.867087,-2.941399 0.211262,-0.2059 c 0.445574,0.3757 1.010066,0.5894 1.602455,0.5894 h 1.28122 v 2.840399 c -0.0705,-0.098 -0.14196,-0.1947 -0.22785,-0.2825 z"
     id="path14"
     inkscape:connector-curvature="0" />
  <path
     d="m 159.88367,92.009081 -6.75525,0.039 -2.63674,3.2212 -2.63777,-3.2212 -6.7554,-0.039 6.02941,7.3674 -6.02853,7.362699 6.76112,-0.039 2.63102,-3.2145 2.63043,3.2145 6.76112,0.039 -6.02883,-7.362699 z m -1.05572,14.226799 -5.46889,-0.031 -2.86738,-3.5044 -2.86797,3.5044 -5.46889,0.031 5.61658,-6.859399 -5.61746,-6.8641 5.46287,0.031 2.87487,3.5107 2.87369,-3.5107 5.46302,-0.031 -5.61746,6.8641 z m -72.667756,-9.694699 -1.481919,-4.5856 H 73.342346 v 14.774899 h 11.335929 l 1.481919,-4.5855 h -8.232327 v -1.0057 h 4.135543 v -3.718699 h -4.135543 v -0.8794 z m -4.594183,1.3769 v 2.723699 h -4.135543 v 2.0007 h 8.04573 l -1.159227,3.5906 H 73.840038 V 92.453281 h 10.476933 l 1.159227,3.5905 h -8.04573 v 1.8745 h 4.135543 z"
     id="path16"
     inkscape:connector-curvature="0"
     style="fill:#ffffff" />
  <path
     d="m 133.83896,102.14498 v -1.0057 h 4.089 v -3.718699 h -4.089 v -0.8794 h 8.13939 l -1.46474,-4.5856 h -11.21452 v 14.774899 h 11.21452 l 1.46489,-4.5855 z m 6.31129,4.0881 H 129.79679 V 92.453281 h 10.35346 l 1.14704,3.5905 h -7.95573 v 1.8745 h 4.089 v 2.723599 h -4.089 v 2.0008 h 7.95573 z M 127.3854,99.239081 c 0.73509,-1.0027 0.43177,-3.2576 0.42018,-3.3392 -0.32079,-3.8509 -4.11235,-3.8976 -4.2897,-3.8976 h -9.26662 v 14.696199 h 5.59706 V 96.355581 h 1.91472 c 0.47332,0.3303 0.45086,0.7065 0.44983,0.7189 l -0.004,0.035 0.006,0.035 c 0.0871,0.4946 0.0286,0.8672 -0.17354,1.1088 -0.26719,0.3182 -0.75637,0.3657 -1.0246,0.3657 -0.1816,0 -0.31036,-0.02 -0.31872,-0.022 l -0.29054,-0.049 v 4.532499 l 2.28776,3.6342 h 6.5324 l -3.38108,-6.0338 c 0.91405,-0.5416 1.51701,-1.409399 1.54035,-1.442899 z m 0.99157,6.979299 h -5.40796 l -2.06535,-3.2805 v -3.822699 c 0.41915,0.014 1.10667,-0.052 1.5173,-0.5413 0.29729,-0.3547 0.3936,-0.8552 0.28716,-1.4882 0.003,-0.1627 -0.038,-0.743 -0.73802,-1.1889 l -0.0612,-0.039 h -2.55996 v 10.342799 h -4.60211 V 92.499581 h 8.77993 c 0.35793,0 3.5044,0.096 3.78481,3.4543 0.0827,0.5953 0.18455,2.2923 -0.33194,2.9967 -0.006,0.01 -0.66227,0.9495 -1.58542,1.410999 l -0.23314,0.1166 3.21592,5.7402 z m -27.4362,-14.232099 -1.021223,5.4727 h 3.819753 v 9.267699 h 5.4727 v -9.267699 h 3.81887 l -1.02122,-5.4727 z m 7.77369,4.975 v 9.267799 h -4.47762 v -9.267799 h -3.71771 l 0.83565,-4.4776 h 10.24174 l 0.83565,4.4776 z m -14.82198,-0.5279 c 0.998468,0 1.911344,0.5058 2.441922,1.3532 l 0.163695,0.2613 3.397079,-3.3146 -0.142848,-0.1764 c -1.440958,-1.7734 -3.576777,-2.7908 -5.859848,-2.7908 -4.160794,0 -7.545688,3.385 -7.545688,7.5457 0,4.160899 3.384894,7.545799 7.545688,7.545799 2.240349,0 4.350769,-0.9864 5.789966,-2.7063 l 0.143875,-0.1721 -3.32382,-3.4103 -0.168099,0.2683 c -0.530578,0.8472 -1.443454,1.3531 -2.441922,1.3531 -1.587329,0 -2.878686,-1.2913 -2.878686,-2.878699 1.46e-4,-1.5868 1.291503,-2.8782 2.878686,-2.8782 z m -3.376085,2.8785 c 0,1.861499 1.514805,3.376299 3.376232,3.376299 1.065414,0 2.048319,-0.4913 2.685336,-1.3284 l 2.57596,2.642 c -1.338483,1.5018 -3.243514,2.3584 -5.261296,2.3584 -3.886403,0 -7.04829,-3.162 -7.04829,-7.048399 0,-3.8863 3.161887,-7.0483 7.04829,-7.0483 2.056687,0 3.985501,0.8843 5.327362,2.4331 l -2.637182,2.5736 c -0.637457,-0.8411 -1.62183,-1.3346 -2.69018,-1.3346 -1.861427,3e-4 -3.376232,1.5151 -3.376232,3.3763 z m -26.811366,-1.6708 -3.761467,-5.6577 -6.149948,-0.055 9.921104,15.131099 9.397427,-14.992599 -5.846782,-0.052 -3.560334,5.627 z m 8.513031,-5.0853 -8.513031,13.581999 -8.984445,-13.703999 4.954753,0.045 4.040409,6.0771 3.822687,-6.042 4.679627,0.042 z"
     id="path18"
     inkscape:connector-curvature="0"
     style="fill:#ffffff" />
  <path
     d="m 100.61955,160.59688 h 3.00347 l 1.97403,5.6144 1.76072,-5.6144 h 3.0509 v 10.3274 h -2.0906 v -6.4435 l -2.10734,6.4435 h -1.30721 l -2.0542,-6.4435 v 6.4435 h -2.22977 v -10.3274 m 10.92676,0 h 4.42873 c 1.40102,0 2.88749,1.1559 2.88103,2.5358 -0.006,1.348 -1.03502,1.9521 -1.72577,2.2982 1.11753,0.2799 2.01455,1.5989 1.96596,2.6969 -0.0617,1.3944 -1.29547,2.7963 -3.12122,2.7963 h -4.42873 z m 2.16107,1.4526 h 1.38708 c 2.12084,0 2.03628,2.4977 0.10659,2.4977 h -1.49367 z m 0.0267,4.2439 h 1.38723 c 2.12055,0 2.03613,3.0943 0.10658,3.0943 h -1.49381 z"
     id="path20"
     inkscape:connector-curvature="0"
     style="clip-rule:evenodd;fill-rule:evenodd" />
  <path
     d="m 61.928165,177.97548 v -3.2158 h -1.148509 v -0.6548 h 3.075855 v 0.6548 h -1.145867 v 3.2158 z m 2.62206,0 h -0.741988 v -2.804 h 0.689135 v 0.3986 c 0.11789,-0.1882 0.223888,-0.3124 0.318142,-0.3721 0.09411,-0.06 0.201132,-0.09 0.320783,-0.09 0.168981,0 0.331795,0.047 0.488443,0.1399 l -0.229613,0.6468 c -0.125084,-0.081 -0.241212,-0.1215 -0.348532,-0.1215 -0.103942,0 -0.191883,0.029 -0.263967,0.086 -0.07223,0.057 -0.128901,0.1607 -0.170302,0.3103 -0.0414,0.1496 -0.06195,0.4629 -0.06195,0.9398 v 0.8661 z m 1.732233,-1.9486 -0.67328,-0.1215 c 0.07561,-0.271 0.205977,-0.4717 0.390814,-0.602 0.184836,-0.1303 0.459374,-0.1953 0.823761,-0.1953 0.330914,0 0.577264,0.039 0.739344,0.1175 0.161934,0.078 0.27586,0.1777 0.341925,0.2983 0.06606,0.1205 0.0991,0.3419 0.0991,0.664 l -0.0079,0.8659 c 0,0.2465 0.01189,0.4281 0.03568,0.5453 0.02378,0.117 0.06827,0.2424 0.133306,0.3762 h -0.73406 c -0.01938,-0.049 -0.04316,-0.1222 -0.0712,-0.219 -0.01233,-0.044 -0.02114,-0.073 -0.02643,-0.087 -0.126699,0.1232 -0.262206,0.2157 -0.406669,0.2772 -0.144316,0.062 -0.298322,0.092 -0.462017,0.092 -0.288632,0 -0.516191,-0.078 -0.682528,-0.2351 -0.166338,-0.1566 -0.249434,-0.3547 -0.249434,-0.5941 0,-0.1583 0.03773,-0.2997 0.113486,-0.4237 0.07576,-0.1242 0.181753,-0.2192 0.318141,-0.2851 0.136388,-0.066 0.333116,-0.1236 0.590037,-0.173 0.346769,-0.065 0.5871,-0.1258 0.720846,-0.1822 v -0.074 c 0,-0.1425 -0.03524,-0.2441 -0.105558,-0.3049 -0.07032,-0.061 -0.203334,-0.091 -0.398741,-0.091 -0.131984,0 -0.235045,0.026 -0.308892,0.078 -0.07414,0.052 -0.134039,0.1431 -0.179697,0.2734 z m 0.992594,0.602 c -0.09499,0.032 -0.245469,0.07 -0.451446,0.1135 -0.205977,0.044 -0.340604,0.087 -0.403879,0.1294 -0.0969,0.069 -0.145197,0.1559 -0.145197,0.2613 0,0.1039 0.03876,0.1936 0.116275,0.2694 0.07737,0.076 0.176027,0.1135 0.295679,0.1135 0.133745,0 0.261325,-0.044 0.382738,-0.132 0.08985,-0.067 0.148721,-0.1487 0.176908,-0.2456 0.01938,-0.063 0.02907,-0.1838 0.02907,-0.3618 v -0.1477 z m 3.815493,1.3466 h -0.689134 v -0.412 c -0.114514,0.1602 -0.249581,0.2794 -0.405348,0.3578 -0.155767,0.078 -0.312856,0.1176 -0.471266,0.1176 -0.322105,0 -0.597965,-0.1298 -0.827725,-0.3893 -0.229614,-0.2597 -0.344567,-0.6218 -0.344567,-1.0864 0,-0.4753 0.111723,-0.8366 0.335318,-1.084 0.223594,-0.2473 0.50606,-0.3708 0.847545,-0.3708 0.313296,0 0.584311,0.1302 0.81319,0.3907 v -1.394 h 0.741987 z m -1.980345,-1.4627 c 0,0.2992 0.0414,0.5158 0.124056,0.6495 0.119652,0.1936 0.286871,0.2905 0.501657,0.2905 0.170742,0 0.315939,-0.073 0.43559,-0.2178 0.119652,-0.1451 0.179551,-0.3621 0.179551,-0.6508 0,-0.3221 -0.05814,-0.554 -0.174265,-0.6956 -0.116275,-0.1419 -0.264996,-0.2126 -0.446162,-0.2126 -0.176027,0 -0.323426,0.07 -0.442344,0.2099 -0.118624,0.1396 -0.178083,0.3487 -0.178083,0.6269 z m 2.439867,-1.3413 h 0.683849 v 0.3828 c 0.244735,-0.2975 0.53601,-0.4462 0.873971,-0.4462 0.179551,0 0.335318,0.037 0.467302,0.1109 0.131984,0.074 0.240331,0.1858 0.324748,0.3353 0.123175,-0.1496 0.256187,-0.2614 0.398741,-0.3353 0.142554,-0.074 0.294798,-0.1109 0.456732,-0.1109 0.20583,0 0.380095,0.042 0.522796,0.1254 0.142555,0.084 0.248993,0.2064 0.319463,0.3683 0.05109,0.1197 0.07649,0.3135 0.07649,0.581 v 1.7927 h -0.741987 v -1.6026 c 0,-0.2782 -0.02554,-0.4576 -0.07649,-0.5387 -0.06856,-0.1057 -0.174266,-0.1584 -0.31682,-0.1584 -0.103943,0 -0.201573,0.032 -0.293036,0.095 -0.09146,0.063 -0.15753,0.1562 -0.19805,0.2785 -0.04052,0.1223 -0.06078,0.3155 -0.06078,0.5795 v 1.3465 h -0.741987 v -1.5366 c 0,-0.2728 -0.01321,-0.4488 -0.03964,-0.5281 -0.02643,-0.079 -0.06724,-0.1382 -0.122735,-0.1769 -0.05535,-0.039 -0.130662,-0.058 -0.225796,-0.058 -0.114367,0 -0.217429,0.031 -0.308892,0.092 -0.09161,0.062 -0.157089,0.1504 -0.196728,0.2666 -0.03964,0.1162 -0.05946,0.3089 -0.05946,0.5782 v 1.3623 h -0.74184 v -2.8036 z m 5.201543,0.8554 -0.673279,-0.1215 c 0.07561,-0.271 0.205977,-0.4717 0.390813,-0.602 0.184836,-0.1303 0.459374,-0.1953 0.823761,-0.1953 0.330914,0 0.577265,0.039 0.739345,0.1175 0.161933,0.078 0.275859,0.1777 0.341925,0.2983 0.06607,0.1205 0.0991,0.3419 0.0991,0.664 l -0.0079,0.8659 c 0,0.2465 0.01189,0.4281 0.03567,0.5453 0.02378,0.117 0.06827,0.2424 0.133305,0.3762 h -0.734059 c -0.01938,-0.049 -0.04316,-0.1222 -0.0712,-0.219 -0.01233,-0.044 -0.02114,-0.073 -0.02643,-0.087 -0.126698,0.1232 -0.262206,0.2157 -0.406669,0.2772 -0.144316,0.062 -0.298321,0.092 -0.462017,0.092 -0.288632,0 -0.51619,-0.078 -0.682528,-0.2351 -0.166338,-0.1566 -0.249433,-0.3547 -0.249433,-0.5941 0,-0.1583 0.03773,-0.2997 0.113485,-0.4237 0.07576,-0.1242 0.181754,-0.2192 0.318142,-0.2851 0.136388,-0.066 0.333116,-0.1236 0.590037,-0.173 0.346769,-0.065 0.5871,-0.1258 0.720846,-0.1822 v -0.074 c 0,-0.1425 -0.03524,-0.2441 -0.105558,-0.3049 -0.07032,-0.061 -0.203334,-0.091 -0.398741,-0.091 -0.131984,0 -0.235046,0.026 -0.308892,0.078 -0.07414,0.052 -0.133893,0.1431 -0.179698,0.2734 z m 0.992742,0.602 c -0.09499,0.032 -0.24547,0.07 -0.451447,0.1135 -0.205977,0.044 -0.340603,0.087 -0.403879,0.1294 -0.0969,0.069 -0.145197,0.1559 -0.145197,0.2613 0,0.1039 0.03876,0.1936 0.116275,0.2694 0.07737,0.076 0.176028,0.1135 0.295679,0.1135 0.133746,0 0.261325,-0.044 0.382739,-0.132 0.08985,-0.067 0.14872,-0.1487 0.176908,-0.2456 0.01938,-0.063 0.02907,-0.1838 0.02907,-0.3618 v -0.1477 z m 1.953919,1.3466 h -0.741987 v -2.804 h 0.689134 v 0.3986 c 0.11789,-0.1882 0.223889,-0.3124 0.318142,-0.3721 0.09411,-0.06 0.201132,-0.09 0.320784,-0.09 0.16898,0 0.331794,0.047 0.488443,0.1399 l -0.229614,0.6468 c -0.125084,-0.081 -0.241212,-0.1215 -0.348531,-0.1215 -0.103943,0 -0.191884,0.029 -0.263968,0.086 -0.07223,0.057 -0.128901,0.1607 -0.170302,0.3103 -0.0414,0.1496 -0.06195,0.4629 -0.06195,0.9398 v 0.8661 z m 1.151445,0 v -3.8706 h 0.74184 v 2.0541 l 0.868686,-0.9875 h 0.913463 l -0.958387,1.0245 1.027095,1.7795 h -0.799978 l -0.70499,-1.2594 -0.345889,0.3618 v 0.8976 z m 3.931621,-1.4417 c 0,-0.2465 0.06078,-0.4849 0.182194,-0.7154 0.12156,-0.2307 0.293477,-0.4067 0.51619,-0.5282 0.222714,-0.1215 0.471266,-0.1821 0.745951,-0.1821 0.42414,0 0.77179,0.1377 1.042951,0.4131 0.271015,0.2755 0.406669,0.6235 0.406669,1.0442 0,0.4242 -0.136828,0.7757 -0.410486,1.0548 -0.273804,0.2789 -0.618224,0.4186 -1.033702,0.4186 -0.256921,0 -0.502096,-0.058 -0.735234,-0.1743 -0.233284,-0.1163 -0.410485,-0.2866 -0.532046,-0.5109 -0.121707,-0.2243 -0.182487,-0.4975 -0.182487,-0.8198 z m 0.760486,0.04 c 0,0.2782 0.06607,0.4913 0.198049,0.6391 0.131984,0.1478 0.294798,0.2218 0.488443,0.2218 0.193498,0 0.355872,-0.074 0.487121,-0.2218 0.131103,-0.1478 0.196728,-0.3626 0.196728,-0.6442 0,-0.2747 -0.06563,-0.4859 -0.196728,-0.6336 -0.131249,-0.1479 -0.293623,-0.2219 -0.487121,-0.2219 -0.193645,0 -0.356459,0.074 -0.488443,0.2219 -0.132131,0.1477 -0.198049,0.3607 -0.198049,0.6387 z m 2.173109,-1.4019 h 0.411954 v -0.2112 c 0,-0.2358 0.02496,-0.4118 0.07517,-0.5281 0.05021,-0.1161 0.142555,-0.2108 0.277328,-0.2838 0.134626,-0.073 0.304928,-0.1097 0.510758,-0.1097 0.211262,0 0.41812,0.032 0.620574,0.095 l -0.100419,0.5175 c -0.11789,-0.028 -0.231523,-0.042 -0.340604,-0.042 -0.107319,0 -0.184396,0.025 -0.231082,0.075 -0.04669,0.05 -0.07003,0.1465 -0.07003,0.2892 v 0.198 h 0.554508 v 0.5836 h -0.554508 v 2.2204 h -0.74184 v -2.2204 h -0.411954 v -0.5836 z m 3.002449,1.5445 0.760485,-0.074 c 0.04581,0.2552 0.13859,0.4428 0.278502,0.5624 0.139912,0.1197 0.328712,0.1796 0.566253,0.1796 0.251636,0 0.441317,-0.053 0.568896,-0.1597 0.12758,-0.1066 0.191443,-0.2311 0.191443,-0.3737 0,-0.091 -0.02687,-0.1693 -0.08045,-0.2337 -0.05373,-0.064 -0.147399,-0.1201 -0.281292,-0.1677 -0.09161,-0.032 -0.300083,-0.088 -0.625712,-0.1689 -0.419001,-0.1038 -0.712771,-0.2314 -0.881752,-0.3828 -0.237688,-0.2129 -0.356459,-0.4726 -0.356459,-0.779 0,-0.197 0.05579,-0.3815 0.167659,-0.5532 0.111871,-0.1716 0.272777,-0.3022 0.483158,-0.3919 0.210382,-0.09 0.464219,-0.1348 0.76166,-0.1348 0.4858,0 0.851509,0.1066 1.096978,0.3196 0.245616,0.2129 0.374517,0.4972 0.386849,0.8528 l -0.781479,0.034 c -0.03347,-0.1988 -0.105117,-0.3417 -0.215226,-0.429 -0.109962,-0.087 -0.274979,-0.1308 -0.49505,-0.1308 -0.227118,0 -0.404907,0.047 -0.533367,0.1399 -0.0828,0.06 -0.124056,0.14 -0.124056,0.2404 0,0.092 0.03876,0.1698 0.116128,0.235 0.09851,0.083 0.337961,0.169 0.718203,0.2589 0.380243,0.09 0.661388,0.1826 0.843581,0.2785 0.182194,0.096 0.324748,0.2269 0.427663,0.3934 0.103062,0.1664 0.154446,0.3717 0.154446,0.6165 0,0.2217 -0.06166,0.4294 -0.184836,0.623 -0.123175,0.1935 -0.297441,0.3376 -0.522797,0.4317 -0.225356,0.094 -0.50606,0.1412 -0.842259,0.1412 -0.489324,0 -0.865163,-0.1132 -1.127369,-0.3394 -0.262206,-0.2258 -0.418854,-0.5554 -0.469797,-0.9885 z m 4.868868,-1.5445 v 0.5914 h -0.506942 v 1.13 c 0,0.2289 0.0048,0.3622 0.01453,0.4001 0.0097,0.038 0.03171,0.069 0.06607,0.094 0.03421,0.025 0.07605,0.037 0.125377,0.037 0.06871,0 0.1681,-0.024 0.298322,-0.071 l 0.06342,0.5757 c -0.172504,0.074 -0.367911,0.1108 -0.586073,0.1108 -0.133893,0 -0.254425,-0.022 -0.361745,-0.067 -0.107319,-0.045 -0.186157,-0.1029 -0.236367,-0.1742 -0.05021,-0.071 -0.085,-0.1677 -0.104236,-0.2893 -0.01586,-0.086 -0.02378,-0.2603 -0.02378,-0.5228 v -1.2223 h -0.340603 v -0.5914 h 0.340603 v -0.5571 l 0.744483,-0.433 v 0.9901 h 0.506942 z m 1.922207,1.9115 0.739345,0.1241 c -0.09499,0.2711 -0.245176,0.4774 -0.450126,0.6192 -0.204949,0.1417 -0.461576,0.2125 -0.769587,0.2125 -0.487562,0 -0.848426,-0.1593 -1.082591,-0.4779 -0.184836,-0.2552 -0.277181,-0.5774 -0.277181,-0.9663 0,-0.4647 0.121414,-0.8288 0.364387,-1.0919 0.242827,-0.263 0.550104,-0.3946 0.921392,-0.3946 0.417092,0 0.746244,0.1377 0.987456,0.4131 0.241065,0.2755 0.356459,0.6975 0.345742,1.266 h -1.858785 c 0.0053,0.2201 0.06504,0.3912 0.179551,0.5135 0.114366,0.1223 0.256921,0.1836 0.427663,0.1836 0.116275,0 0.213905,-0.032 0.293183,-0.095 0.07928,-0.063 0.139031,-0.1655 0.179551,-0.3063 z m 0.04228,-0.7497 c -0.0053,-0.2148 -0.06078,-0.3781 -0.166338,-0.49 -0.105558,-0.1117 -0.234165,-0.1676 -0.385381,-0.1676 -0.161934,0 -0.295679,0.059 -0.401237,0.1769 -0.105704,0.118 -0.157529,0.2782 -0.155767,0.4805 h 1.108723 z m 1.835148,1.6422 h -0.741987 v -2.804 h 0.689135 v 0.3986 c 0.11789,-0.1882 0.223888,-0.3124 0.318141,-0.3721 0.09411,-0.06 0.201132,-0.09 0.320784,-0.09 0.168983,0 0.331793,0.047 0.488443,0.1399 l -0.22961,0.6468 c -0.12509,-0.081 -0.241216,-0.1215 -0.348535,-0.1215 -0.103943,0 -0.191883,0.029 -0.263968,0.086 -0.07223,0.057 -0.128901,0.1607 -0.170302,0.3103 -0.0414,0.1496 -0.06195,0.4629 -0.06195,0.9398 v 0.8661 z m 3.728146,0 h -0.74199 v -1.431 c 0,-0.3029 -0.0159,-0.4986 -0.0476,-0.5875 -0.0317,-0.089 -0.0831,-0.1578 -0.15444,-0.2072 -0.0713,-0.049 -0.15709,-0.074 -0.25737,-0.074 -0.12846,0 -0.24385,0.035 -0.34588,0.1057 -0.10204,0.07 -0.17207,0.1636 -0.20995,0.2799 -0.0379,0.1161 -0.0568,0.3309 -0.0568,0.6442 v 1.2699 h -0.74184 v -2.804 h 0.68899 v 0.412 c 0.24473,-0.3168 0.55274,-0.4752 0.92403,-0.4752 0.1637,0 0.3133,0.029 0.44895,0.089 0.13551,0.059 0.23798,0.1342 0.30757,0.2256 0.0696,0.092 0.11789,0.1954 0.1452,0.3116 0.0273,0.1162 0.041,0.2826 0.041,0.499 v 1.7425 z m 1.82766,0 v -3.8706 h 2.87002 v 0.6548 h -2.08854 v 0.8581 h 1.9432 v 0.6522 h -1.9432 v 1.0534 h 2.16224 v 0.6521 z m 3.38489,0 v -3.8706 h 0.74199 v 3.8706 z m 2.90981,-0.8925 0.7392,0.1241 c -0.095,0.2711 -0.24518,0.4774 -0.45013,0.6192 -0.20495,0.1417 -0.46172,0.2125 -0.76958,0.2125 -0.48757,0 -0.84843,-0.1593 -1.08245,-0.4779 -0.18483,-0.2552 -0.27733,-0.5774 -0.27733,-0.9663 0,-0.4647 0.12142,-0.8288 0.36424,-1.0919 0.24298,-0.263 0.55011,-0.3946 0.9214,-0.3946 0.41724,0 0.74639,0.1377 0.9876,0.4131 0.24121,0.2755 0.35646,0.6975 0.34574,1.266 h -1.85864 c 0.005,0.2201 0.065,0.3912 0.17955,0.5135 0.11452,0.1223 0.25692,0.1836 0.42767,0.1836 0.11627,0 0.2139,-0.032 0.29303,-0.095 0.0794,-0.063 0.13918,-0.1655 0.1797,-0.3063 z m 0.0421,-0.7497 c -0.005,-0.2148 -0.0606,-0.3781 -0.16634,-0.49 -0.10571,-0.1117 -0.23417,-0.1676 -0.38553,-0.1676 -0.16193,0 -0.29568,0.059 -0.40124,0.1769 -0.10555,0.118 -0.15753,0.2782 -0.15576,0.4805 h 1.10887 z m 3.57002,-0.3329 -0.73127,0.132 c -0.0247,-0.1461 -0.0806,-0.256 -0.16781,-0.33 -0.0871,-0.074 -0.2001,-0.1109 -0.33928,-0.1109 -0.18483,0 -0.33238,0.064 -0.44234,0.1915 -0.10996,0.1276 -0.16502,0.3409 -0.16502,0.6401 0,0.3328 0.0559,0.5677 0.16781,0.705 0.11172,0.1374 0.26176,0.2059 0.45012,0.2059 0.14079,0 0.25604,-0.04 0.34574,-0.12 0.0897,-0.08 0.15313,-0.2178 0.19013,-0.4132 l 0.72877,0.1241 c -0.0758,0.3344 -0.22095,0.5871 -0.43574,0.7578 -0.21478,0.1708 -0.50253,0.2561 -0.8634,0.2561 -0.41019,0 -0.73714,-0.1294 -0.98085,-0.3882 -0.24385,-0.2588 -0.36571,-0.6169 -0.36571,-1.0745 0,-0.4629 0.1223,-0.8233 0.36703,-1.0811 0.24459,-0.258 0.57565,-0.3869 0.99274,-0.3869 0.34149,0 0.61309,0.074 0.81452,0.2204 0.20172,0.1471 0.34647,0.3711 0.43456,0.6719 z m 1.63167,-0.8289 v 0.5914 h -0.5068 v 1.13 c 0,0.2289 0.005,0.3622 0.0145,0.4001 0.01,0.038 0.0317,0.069 0.0659,0.094 0.0344,0.025 0.0762,0.037 0.12537,0.037 0.0687,0 0.1681,-0.024 0.29832,-0.071 l 0.0634,0.5757 c -0.17251,0.074 -0.36791,0.1108 -0.58608,0.1108 -0.13374,0 -0.25427,-0.022 -0.36174,-0.067 -0.10747,-0.045 -0.18616,-0.1029 -0.23622,-0.1742 -0.0501,-0.071 -0.085,-0.1677 -0.10438,-0.2893 -0.0157,-0.086 -0.0238,-0.2603 -0.0238,-0.5228 v -1.2223 h -0.34045 v -0.5914 h 0.34045 v -0.5571 l 0.74463,-0.433 v 0.9901 h 0.5068 z m 1.00889,2.804 h -0.74199 v -2.804 h 0.68914 v 0.3986 c 0.11789,-0.1882 0.22388,-0.3124 0.31814,-0.3721 0.0941,-0.06 0.20098,-0.09 0.32078,-0.09 0.16898,0 0.3318,0.047 0.48844,0.1399 l -0.22961,0.6468 c -0.12508,-0.081 -0.24121,-0.1215 -0.34853,-0.1215 -0.10394,0 -0.19188,0.029 -0.26412,0.086 -0.0721,0.057 -0.1289,0.1607 -0.17015,0.3103 -0.0414,0.1496 -0.0621,0.4629 -0.0621,0.9398 v 0.8661 z m 1.00625,-1.4417 c 0,-0.2465 0.0608,-0.4849 0.18219,-0.7154 0.12141,-0.2307 0.29348,-0.4067 0.51619,-0.5282 0.22271,-0.1215 0.47127,-0.1821 0.7458,-0.1821 0.42429,0 0.77194,0.1377 1.04296,0.4131 0.27116,0.2755 0.40666,0.6235 0.40666,1.0442 0,0.4242 -0.13682,0.7757 -0.41048,1.0548 -0.27366,0.2791 -0.61837,0.4186 -1.0337,0.4186 -0.25692,0 -0.5021,-0.058 -0.73538,-0.1743 -0.23314,-0.1163 -0.41049,-0.2866 -0.5319,-0.5109 -0.12142,-0.2243 -0.18234,-0.4975 -0.18234,-0.8198 z m 0.76033,0.04 c 0,0.2782 0.0659,0.4913 0.19805,0.6391 0.13213,0.1478 0.2948,0.2218 0.48845,0.2218 0.19349,0 0.35602,-0.074 0.48697,-0.2218 0.13125,-0.1478 0.19673,-0.3626 0.19673,-0.6442 0,-0.2747 -0.0655,-0.4859 -0.19673,-0.6336 -0.1311,-0.1479 -0.29348,-0.2219 -0.48697,-0.2219 -0.19365,0 -0.35646,0.074 -0.48845,0.2219 -0.13198,0.1478 -0.19805,0.3607 -0.19805,0.6387 z m 5.04828,1.4021 h -0.74184 v -1.431 c 0,-0.3029 -0.0159,-0.4986 -0.0476,-0.5875 -0.0317,-0.089 -0.0831,-0.1578 -0.15445,-0.2072 -0.0713,-0.049 -0.15709,-0.074 -0.2575,-0.074 -0.12846,0 -0.24371,0.035 -0.34575,0.1057 -0.10203,0.07 -0.17206,0.1636 -0.20994,0.2799 -0.0379,0.1161 -0.0568,0.3309 -0.0568,0.6442 v 1.2699 h -0.74199 v -2.804 h 0.68913 v 0.412 c 0.24459,-0.3168 0.55275,-0.4752 0.92404,-0.4752 0.16369,0 0.31329,0.029 0.44895,0.089 0.13551,0.059 0.23798,0.1342 0.30757,0.2256 0.0696,0.092 0.11804,0.1954 0.1452,0.3116 0.0273,0.1162 0.0408,0.2826 0.0408,0.499 v 1.7425 z m 0.53615,-3.1842 v -0.6865 h 0.74199 v 0.6865 z m 0,3.1842 v -2.804 h 0.74199 v 2.804 z m 3.73093,-1.9751 -0.73127,0.132 c -0.0247,-0.1461 -0.0806,-0.256 -0.1678,-0.33 -0.0871,-0.074 -0.20011,-0.1109 -0.33928,-0.1109 -0.18484,0 -0.33239,0.064 -0.44235,0.1915 -0.10996,0.1276 -0.16502,0.3409 -0.16502,0.6401 0,0.3328 0.0559,0.5677 0.16781,0.705 0.11172,0.1374 0.26177,0.2059 0.45013,0.2059 0.14079,0 0.25604,-0.04 0.34574,-0.12 0.0897,-0.08 0.15312,-0.2178 0.19012,-0.4132 l 0.72877,0.1241 c -0.0757,0.3344 -0.22095,0.5871 -0.43573,0.7578 -0.21479,0.1708 -0.50254,0.2561 -0.86341,0.2561 -0.41019,0 -0.73714,-0.1294 -0.98085,-0.3882 -0.24385,-0.2588 -0.3657,-0.6169 -0.3657,-1.0745 0,-0.4629 0.12229,-0.8233 0.36703,-1.0811 0.24458,-0.258 0.57565,-0.3869 0.99274,-0.3869 0.34148,0 0.61308,0.074 0.81451,0.2204 0.20172,0.1471 0.34662,0.3711 0.43456,0.6719 z m 0.0849,1.175 0.74448,-0.1135 c 0.0317,0.1443 0.0959,0.2538 0.19277,0.3287 0.0969,0.075 0.2324,0.1123 0.40667,0.1123 0.19188,0 0.3362,-0.035 0.43309,-0.1057 0.065,-0.049 0.0976,-0.1152 0.0976,-0.198 0,-0.056 -0.0176,-0.103 -0.0527,-0.14 -0.037,-0.035 -0.11966,-0.068 -0.24812,-0.098 -0.59855,-0.1319 -0.97776,-0.2526 -1.13794,-0.3616 -0.22183,-0.1514 -0.33282,-0.3618 -0.33282,-0.6312 0,-0.2428 0.0959,-0.447 0.28775,-0.6125 0.19189,-0.1654 0.48933,-0.2481 0.89247,-0.2481 0.38362,0 0.66888,0.063 0.85548,0.1873 0.18659,0.1251 0.31505,0.3098 0.38538,0.5545 l -0.69971,0.1294 c -0.03,-0.1091 -0.0868,-0.1928 -0.1703,-0.2509 -0.0835,-0.058 -0.20289,-0.087 -0.35778,-0.087 -0.19541,0 -0.33532,0.027 -0.41974,0.082 -0.0564,0.039 -0.0844,0.089 -0.0844,0.1503 0,0.053 0.0245,0.098 0.0738,0.1346 0.067,0.049 0.29788,0.1189 0.6931,0.2086 0.39522,0.09 0.67108,0.1998 0.82787,0.3301 0.15489,0.1319 0.23226,0.3159 0.23226,0.5518 0,0.2571 -0.10732,0.4779 -0.3221,0.6627 -0.21479,0.1849 -0.53234,0.2774 -0.95311,0.2774 -0.382,0 -0.68414,-0.077 -0.90685,-0.2324 -0.22301,-0.1548 -0.36865,-0.3652 -0.43721,-0.631 z m 4.31965,0.8001 v -3.8706 h 0.78147 v 3.8706 z m 3.85498,0 h -0.74184 v -1.431 c 0,-0.3029 -0.0159,-0.4986 -0.0476,-0.5875 -0.0317,-0.089 -0.0831,-0.1578 -0.15444,-0.2072 -0.0713,-0.049 -0.15709,-0.074 -0.25751,-0.074 -0.12846,0 -0.24371,0.035 -0.34574,0.1057 -0.10204,0.07 -0.17207,0.1636 -0.20994,0.2799 -0.0379,0.1161 -0.0568,0.3309 -0.0568,0.6442 v 1.2699 h -0.74199 v -2.804 h 0.68914 v 0.412 c 0.24459,-0.3168 0.55274,-0.4752 0.92403,-0.4752 0.1637,0 0.3133,0.029 0.44895,0.089 0.13551,0.059 0.23798,0.1342 0.30757,0.2256 0.0696,0.092 0.11804,0.1954 0.1452,0.3116 0.0273,0.1162 0.0408,0.2826 0.0408,0.499 v 1.7425 z m 2.98116,-1.9751 -0.73127,0.132 c -0.0247,-0.1461 -0.0806,-0.256 -0.1678,-0.33 -0.0871,-0.074 -0.20011,-0.1109 -0.33929,-0.1109 -0.18483,0 -0.33238,0.064 -0.44234,0.1915 -0.10996,0.1276 -0.16502,0.3409 -0.16502,0.6401 0,0.3328 0.0559,0.5677 0.16781,0.705 0.11172,0.1374 0.26176,0.2059 0.45012,0.2059 0.1408,0 0.25604,-0.04 0.34575,-0.12 0.0897,-0.08 0.15312,-0.2178 0.19012,-0.4132 l 0.72877,0.1241 c -0.0757,0.3344 -0.22095,0.5871 -0.43574,0.7578 -0.21478,0.1708 -0.50253,0.2561 -0.8634,0.2561 -0.41019,0 -0.73714,-0.1294 -0.98085,-0.3882 -0.24385,-0.2588 -0.3657,-0.6169 -0.3657,-1.0745 0,-0.4629 0.12229,-0.8233 0.36703,-1.0811 0.24458,-0.258 0.57564,-0.3869 0.99274,-0.3869 0.34148,0 0.61308,0.074 0.81451,0.2204 0.20172,0.1471 0.34647,0.3711 0.43456,0.6719 z m 0.34604,1.9751 v -0.742 h 0.74198 v 0.742 z m 4.18267,-3.95 c 0.34662,0 0.6793,0.087 0.99802,0.2615 0.31859,0.1743 0.5689,0.4228 0.75109,0.7458 0.1822,0.323 0.27322,0.6614 0.27322,1.0152 0,0.3519 -0.0893,0.6878 -0.26793,1.0071 -0.17882,0.3195 -0.42781,0.5686 -0.74727,0.7473 -0.31947,0.1787 -0.65523,0.2679 -1.00713,0.2679 -0.35206,0 -0.68796,-0.089 -1.00728,-0.2679 -0.31931,-0.1787 -0.5686,-0.4278 -0.74727,-0.7473 -0.17867,-0.3194 -0.26793,-0.6552 -0.26793,-1.0071 0,-0.3538 0.0912,-0.6922 0.27321,-1.0152 0.1822,-0.323 0.43251,-0.5717 0.75109,-0.7458 0.31858,-0.1743 0.65126,-0.2615 0.99818,-0.2615 z m 0,0.3988 c -0.27821,0 -0.54526,0.07 -0.80145,0.2086 -0.25604,0.139 -0.45717,0.3384 -0.60325,0.5979 -0.14608,0.2596 -0.21904,0.5321 -0.21904,0.8172 0,0.2816 0.0716,0.5508 0.21522,0.8079 0.14344,0.2569 0.34369,0.4572 0.60061,0.6006 0.25707,0.1436 0.52632,0.2152 0.80805,0.2152 0.28159,0 0.55084,-0.072 0.80791,-0.2152 0.25692,-0.1434 0.45702,-0.3437 0.60061,-0.6006 0.14358,-0.2571 0.21522,-0.5263 0.21522,-0.8079 0,-0.2835 -0.073,-0.5554 -0.21904,-0.816 -0.14623,-0.2604 -0.34721,-0.4602 -0.60325,-0.5993 -0.25663,-0.1389 -0.52368,-0.2084 -0.80159,-0.2084 z m 0.49094,1.9247 0.42516,0.1425 c -0.0669,0.2218 -0.17779,0.3917 -0.33282,0.5097 -0.15489,0.1179 -0.33958,0.177 -0.55436,0.177 -0.30097,0 -0.54658,-0.099 -0.7367,-0.2959 -0.19012,-0.1971 -0.28511,-0.469 -0.28511,-0.8158 0,-0.2271 0.0423,-0.4296 0.1267,-0.6074 0.0846,-0.1778 0.20641,-0.3106 0.36571,-0.3987 0.15929,-0.088 0.33752,-0.132 0.53468,-0.132 0.21655,0 0.39728,0.052 0.54247,0.1546 0.1452,0.1029 0.25839,0.2654 0.33943,0.487 l -0.42781,0.1004 c -0.0492,-0.1285 -0.11319,-0.2218 -0.19144,-0.2798 -0.0783,-0.058 -0.17118,-0.087 -0.2785,-0.087 -0.16017,0 -0.29128,0.06 -0.39331,0.1808 -0.10218,0.1206 -0.15327,0.3094 -0.15327,0.5663 0,0.2571 0.0502,0.4462 0.15048,0.5676 0.10042,0.1215 0.22095,0.1822 0.36174,0.1822 0.11789,0 0.22008,-0.035 0.30625,-0.1043 0.0863,-0.069 0.15313,-0.185 0.2007,-0.347 z m 4.69225,1.6265 h -0.74199 v -2.796 c -0.27116,0.2535 -0.59048,0.4408 -0.95839,0.5622 v -0.6731 c 0.19365,-0.063 0.40403,-0.1835 0.63115,-0.3604 0.22697,-0.1769 0.38274,-0.3832 0.4673,-0.6193 h 0.60208 v 3.8866 z m 0.90847,-0.8951 0.7182,-0.079 c 0.0175,0.1461 0.0634,0.2543 0.13727,0.3248 0.074,0.07 0.17163,0.1056 0.29304,0.1056 0.15312,0 0.28349,-0.07 0.39081,-0.2112 0.10732,-0.1408 0.17588,-0.4329 0.20583,-0.8766 -0.18659,0.2166 -0.41973,0.3248 -0.6997,0.3248 -0.30449,0 -0.56714,-0.1175 -0.78809,-0.3524 -0.22095,-0.2349 -0.33135,-0.5408 -0.33135,-0.9176 0,-0.3924 0.11657,-0.7088 0.34985,-0.9491 0.23328,-0.2403 0.53014,-0.3604 0.891,-0.3604 0.39258,0 0.71468,0.1518 0.96632,0.4555 0.25178,0.3037 0.3776,0.8033 0.3776,1.4984 0,0.7075 -0.13125,1.2181 -0.39346,1.5314 -0.26235,0.3133 -0.60369,0.4699 -1.02445,0.4699 -0.30287,0 -0.54746,-0.081 -0.73406,-0.2416 -0.18645,-0.1614 -0.3061,-0.402 -0.35881,-0.7223 z m 1.67909,-1.6211 c 0,-0.2393 -0.0551,-0.4252 -0.16502,-0.5572 -0.10996,-0.1318 -0.23725,-0.198 -0.38156,-0.198 -0.13742,0 -0.25134,0.054 -0.34193,0.1624 -0.0906,0.1082 -0.13595,0.2855 -0.13595,0.5319 0,0.25 0.0492,0.4335 0.14784,0.5505 0.0985,0.1172 0.22184,0.1756 0.36968,0.1756 0.1427,0 0.26264,-0.056 0.36042,-0.169 0.0976,-0.1125 0.14652,-0.2781 0.14652,-0.4962 z m 1.73223,0.4276 c -0.19188,-0.081 -0.33135,-0.1923 -0.41856,-0.3338 -0.0871,-0.1417 -0.13066,-0.297 -0.13066,-0.4661 0,-0.2887 0.10086,-0.5271 0.30228,-0.7154 0.20158,-0.1884 0.48801,-0.2827 0.85944,-0.2827 0.36776,0 0.65346,0.094 0.85679,0.2827 0.20334,0.1883 0.30493,0.4267 0.30493,0.7154 0,0.1797 -0.0467,0.3394 -0.14006,0.4793 -0.0932,0.1399 -0.22433,0.2469 -0.39331,0.3208 0.21464,0.086 0.3779,0.2121 0.48977,0.3776 0.11172,0.1654 0.16766,0.3565 0.16766,0.5729 0,0.3573 -0.11393,0.6477 -0.34193,0.8713 -0.228,0.2236 -0.53102,0.3353 -0.9095,0.3353 -0.35205,0 -0.64523,-0.092 -0.87911,-0.2773 -0.27644,-0.2182 -0.41459,-0.5174 -0.41459,-0.8976 0,-0.2095 0.052,-0.4017 0.15591,-0.577 0.10365,-0.1752 0.26749,-0.3104 0.49094,-0.4054 z m 0.0846,0.911 c 0,0.2042 0.0523,0.3635 0.15695,0.4779 0.10482,0.1144 0.23548,0.1716 0.39213,0.1716 0.15313,0 0.27982,-0.055 0.38024,-0.165 0.10042,-0.11 0.15049,-0.2688 0.15049,-0.4766 0,-0.1811 -0.0512,-0.3269 -0.15328,-0.437 -0.10203,-0.11 -0.23137,-0.165 -0.38817,-0.165 -0.18116,0 -0.31638,0.062 -0.4052,0.1874 -0.0888,0.1251 -0.13316,0.2606 -0.13316,0.4067 z m 0.0686,-1.6581 c 0,0.1479 0.0418,0.2631 0.12537,0.3458 0.0835,0.083 0.19497,0.1242 0.334,0.1242 0.14079,0 0.25354,-0.042 0.33796,-0.1254 0.0844,-0.084 0.1267,-0.1992 0.1267,-0.3472 0,-0.1389 -0.0418,-0.2503 -0.12538,-0.3339 -0.0835,-0.083 -0.19394,-0.1253 -0.33135,-0.1253 -0.14256,0 -0.25604,0.042 -0.34061,0.1266 -0.0844,0.084 -0.12669,0.1962 -0.12669,0.3352 z m 3.25584,-1.0509 c 0.37496,0 0.668,0.1339 0.87911,0.4014 0.25164,0.3167 0.37745,0.8421 0.37745,1.5762 0,0.7321 -0.12669,1.2585 -0.38024,1.5788 -0.2095,0.2641 -0.50151,0.396 -0.87646,0.396 -0.37672,0 -0.68048,-0.1446 -0.91097,-0.4343 -0.2305,-0.2895 -0.34574,-0.8057 -0.34574,-1.5486 0,-0.7286 0.12669,-1.2532 0.38024,-1.5735 0.20935,-0.264 0.50165,-0.396 0.87661,-0.396 z m 0,0.6152 c -0.0898,0 -0.16986,0.029 -0.24033,0.086 -0.0705,0.057 -0.12508,0.1597 -0.16369,0.3075 -0.0511,0.1919 -0.0765,0.5149 -0.0765,0.9691 0,0.4541 0.0228,0.7661 0.0687,0.936 0.0458,0.1698 0.10336,0.283 0.17295,0.3393 0.0696,0.056 0.14916,0.085 0.23901,0.085 0.0897,0 0.16971,-0.029 0.24018,-0.086 0.0705,-0.057 0.12509,-0.1597 0.1637,-0.3075 0.0511,-0.1902 0.0765,-0.5123 0.0765,-0.9664 0,-0.4542 -0.0229,-0.7662 -0.0687,-0.936 -0.0458,-0.1697 -0.10336,-0.2834 -0.17295,-0.3405 -0.0696,-0.057 -0.14916,-0.086 -0.23886,-0.086 z m -111.766977,4.6828 c 0.361891,0 0.709101,0.091 1.041483,0.2727 0.332382,0.1817 0.593708,0.4413 0.783829,0.7784 0.190121,0.337 0.285108,0.6901 0.285108,1.0594 0,0.3674 -0.09322,0.7177 -0.279676,1.0511 -0.186451,0.3334 -0.446308,0.5933 -0.779718,0.7798 -0.33341,0.1864 -0.683703,0.2796 -1.051173,0.2796 -0.36747,0 -0.717763,-0.093 -1.051172,-0.2796 -0.33341,-0.1865 -0.593267,-0.4464 -0.779718,-0.7798 -0.186451,-0.3334 -0.279677,-0.6837 -0.279677,-1.0511 0,-0.3693 0.09499,-0.7224 0.285109,-1.0594 0.190121,-0.3371 0.451446,-0.5965 0.783828,-0.7784 0.332823,-0.1818 0.679886,-0.2727 1.041777,-0.2727 z m 0,0.416 c -0.290247,0 -0.568896,0.073 -0.83624,0.2177 -0.267344,0.145 -0.477139,0.3531 -0.629529,0.6239 -0.152538,0.271 -0.228733,0.5553 -0.228733,0.8529 0,0.2939 0.07487,0.5749 0.224475,0.8431 0.149748,0.2681 0.358662,0.4771 0.626887,0.6269 0.268225,0.1497 0.549223,0.2245 0.84314,0.2245 0.293917,0 0.574915,-0.075 0.843141,-0.2245 0.268225,-0.1496 0.477138,-0.3587 0.626886,-0.6269 0.149748,-0.2682 0.224622,-0.5492 0.224622,-0.8431 0,-0.2957 -0.07634,-0.5795 -0.228733,-0.8514 -0.152537,-0.2719 -0.362331,-0.4802 -0.629676,-0.6254 -0.267197,-0.1451 -0.545993,-0.2177 -0.83624,-0.2177 z m 0.51252,2.0085 0.443519,0.1489 c -0.06988,0.2313 -0.18557,0.4087 -0.34721,0.5317 -0.16164,0.123 -0.354551,0.1846 -0.578586,0.1846 -0.31403,0 -0.570364,-0.1028 -0.768706,-0.3086 -0.19849,-0.2057 -0.297588,-0.4895 -0.297588,-0.8514 0,-0.237 0.04404,-0.4482 0.132277,-0.6336 0.08823,-0.1855 0.215373,-0.3242 0.381564,-0.4161 0.166191,-0.092 0.352202,-0.1377 0.557885,-0.1377 0.225944,0 0.414597,0.054 0.566107,0.1612 0.15151,0.1074 0.269546,0.277 0.35411,0.5084 l -0.446308,0.1047 c -0.05153,-0.1341 -0.118037,-0.2314 -0.199811,-0.292 -0.08177,-0.061 -0.17867,-0.091 -0.290687,-0.091 -0.167219,0 -0.304048,0.063 -0.410486,0.1886 -0.106586,0.1259 -0.159878,0.3229 -0.159878,0.591 0,0.2682 0.05241,0.4656 0.157088,0.5923 0.104677,0.1267 0.230495,0.1902 0.377454,0.1902 0.123028,0 0.229467,-0.036 0.319609,-0.1088 0.09029,-0.073 0.160025,-0.1934 0.209647,-0.3625 z m 4.965471,0.2123 v -0.6806 h 1.757778 v 1.609 c -0.170889,0.1653 -0.418414,0.311 -0.742575,0.4368 -0.32416,0.1257 -0.652578,0.1886 -0.98496,0.1886 -0.422378,0 -0.790729,-0.089 -1.104759,-0.2658 -0.314178,-0.1772 -0.550251,-0.4308 -0.708074,-0.7605 -0.157969,-0.3298 -0.236954,-0.6883 -0.236954,-1.076 0,-0.4205 0.08823,-0.7943 0.264408,-1.1214 0.176321,-0.3269 0.434416,-0.5777 0.774286,-0.7521 0.258976,-0.1342 0.581228,-0.2011 0.967049,-0.2011 0.501509,0 0.893057,0.1051 1.175082,0.3153 0.281879,0.2104 0.463338,0.5011 0.544232,0.872 l -0.810108,0.1515 c -0.05696,-0.1984 -0.163989,-0.3549 -0.321078,-0.4697 -0.157088,-0.1148 -0.353082,-0.1722 -0.588275,-0.1722 -0.356312,0 -0.639659,0.1131 -0.85004,0.3389 -0.210382,0.2259 -0.315499,0.5612 -0.315499,1.0058 0,0.4794 0.106586,0.839 0.31961,1.0787 0.213024,0.2396 0.49226,0.3594 0.837561,0.3594 0.170889,0 0.342072,-0.033 0.513842,-0.1005 0.171769,-0.067 0.319169,-0.1483 0.442197,-0.2439 v -0.5124 h -0.933723 z m 4.868574,0 0.790729,0.2507 c -0.121267,0.4408 -0.32284,0.7682 -0.604865,0.9822 -0.281879,0.2139 -0.639659,0.3209 -1.073195,0.3209 -0.536304,0 -0.977179,-0.1832 -1.322481,-0.5495 -0.345448,-0.3664 -0.517952,-0.8675 -0.517952,-1.503 0,-0.6723 0.173678,-1.1944 0.520741,-1.5664 0.34721,-0.3718 0.803649,-0.5579 1.369461,-0.5579 0.494022,0 0.895406,0.146 1.204004,0.438 0.183662,0.1728 0.321371,0.4206 0.413276,0.7439 l -0.807319,0.1927 c -0.04786,-0.2093 -0.147399,-0.3746 -0.299055,-0.4959 -0.151657,-0.1213 -0.335759,-0.1817 -0.552453,-0.1817 -0.299497,0 -0.542323,0.1073 -0.728774,0.3222 -0.186451,0.2149 -0.279677,0.563 -0.279677,1.0443 0,0.5106 0.09176,0.8742 0.275419,1.0911 0.183662,0.2168 0.422525,0.325 0.716442,0.325 0.216694,0 0.403145,-0.069 0.559353,-0.2065 0.156355,-0.1377 0.268372,-0.3544 0.336346,-0.6501 z m 1.264931,1.485 v -4.0393 h 2.994961 v 0.6833 h -2.179421 v 0.8956 h 2.027912 v 0.6804 h -2.027912 v 1.0994 h 2.256498 v 0.6806 z m 6.690216,0 h -0.774286 v -2.9178 c -0.282907,0.2646 -0.616169,0.4602 -1.000229,0.5869 v -0.7025 c 0.202013,-0.066 0.421643,-0.1916 0.658451,-0.3763 0.236954,-0.1846 0.399622,-0.3999 0.487709,-0.646 h 0.628208 v 4.0557 z m 0.947964,-0.934 0.749474,-0.083 c 0.01835,0.1524 0.06607,0.2654 0.143288,0.3389 0.07722,0.073 0.179111,0.1102 0.30581,0.1102 0.159731,0 0.295679,-0.073 0.407696,-0.2204 0.112017,-0.1469 0.183662,-0.4518 0.214933,-0.9146 -0.194673,0.2258 -0.438087,0.3388 -0.730096,0.3388 -0.317847,0 -0.591945,-0.1225 -0.82244,-0.3677 -0.230494,-0.2453 -0.345742,-0.5645 -0.345742,-0.9574 0,-0.4096 0.121707,-0.7398 0.365122,-0.9905 0.243414,-0.2508 0.553333,-0.3761 0.929906,-0.3761 0.409605,0 0.745657,0.1584 1.00845,0.4752 0.262647,0.3168 0.394043,0.838 0.394043,1.5635 0,0.7383 -0.136828,1.2711 -0.410486,1.5981 -0.273657,0.3271 -0.630116,0.4905 -1.068937,0.4905 -0.315939,0 -0.571391,-0.084 -0.765917,-0.2522 -0.195113,-0.1681 -0.32005,-0.4193 -0.375104,-0.7536 z m 1.752346,-1.6917 c 0,-0.2498 -0.0574,-0.4436 -0.17221,-0.5814 -0.114807,-0.1377 -0.247525,-0.2067 -0.398154,-0.2067 -0.143289,0 -0.262206,0.056 -0.356753,0.1694 -0.09469,0.113 -0.141967,0.298 -0.141967,0.5552 0,0.2608 0.05138,0.4524 0.154299,0.5745 0.102769,0.1222 0.231376,0.1832 0.385675,0.1832 0.14872,0 0.274098,-0.059 0.376132,-0.1763 0.102034,-0.1176 0.152978,-0.2902 0.152978,-0.5179 z m 1.807694,0.4463 c -0.200251,-0.084 -0.345742,-0.2007 -0.436765,-0.3486 -0.09102,-0.1478 -0.136388,-0.3099 -0.136388,-0.4864 0,-0.3012 0.105117,-0.5501 0.315498,-0.7466 0.210382,-0.1966 0.509291,-0.2948 0.896874,-0.2948 0.383913,0 0.681941,0.098 0.894084,0.2948 0.212143,0.1965 0.318141,0.4454 0.318141,0.7466 0,0.1874 -0.04874,0.354 -0.146078,0.5001 -0.09734,0.1461 -0.234164,0.2576 -0.410485,0.3347 0.224034,0.09 0.394483,0.2214 0.511052,0.3941 0.116568,0.1726 0.174999,0.3718 0.174999,0.5978 0,0.3729 -0.119064,0.6759 -0.356899,0.9092 -0.237835,0.2333 -0.554215,0.35 -0.949139,0.35 -0.367323,0 -0.673132,-0.096 -0.917574,-0.2894 -0.288338,-0.2278 -0.432508,-0.5401 -0.432508,-0.9368 0,-0.2186 0.05417,-0.4191 0.162521,-0.6021 0.108494,-0.1825 0.279383,-0.3234 0.512667,-0.4226 z m 0.08823,0.9506 c 0,0.213 0.05461,0.3793 0.163989,0.4985 0.109228,0.1194 0.245616,0.1792 0.409164,0.1792 0.159732,0 0.292009,-0.057 0.396833,-0.1723 0.104677,-0.1146 0.157089,-0.2804 0.157089,-0.4972 0,-0.1893 -0.05329,-0.3412 -0.159879,-0.456 -0.106585,-0.1147 -0.241505,-0.1722 -0.405053,-0.1722 -0.189241,0 -0.33018,0.065 -0.422819,0.1955 -0.09308,0.1306 -0.139324,0.2721 -0.139324,0.4245 z m 0.0715,-1.7304 c 0,0.1545 0.0436,0.2747 0.130957,0.3611 0.08721,0.086 0.203334,0.1294 0.348531,0.1294 0.146812,0 0.264408,-0.044 0.352642,-0.1309 0.08823,-0.087 0.132277,-0.208 0.132277,-0.3623 0,-0.1451 -0.0436,-0.2612 -0.130809,-0.3486 -0.08735,-0.087 -0.202454,-0.1309 -0.345742,-0.1309 -0.148867,0 -0.267197,0.044 -0.355431,0.1322 -0.08823,0.088 -0.132425,0.2048 -0.132425,0.35 z m 4.703411,2.2401 v 0.7191 h -2.713963 c 0.02936,-0.2719 0.117596,-0.5294 0.264555,-0.773 0.146958,-0.2432 0.437205,-0.5661 0.870594,-0.9684 0.348972,-0.3251 0.563023,-0.5457 0.642008,-0.6613 0.106585,-0.1598 0.159731,-0.3177 0.159731,-0.4739 0,-0.1727 -0.04639,-0.3054 -0.139177,-0.3982 -0.09279,-0.093 -0.220805,-0.1392 -0.384354,-0.1392 -0.16164,0 -0.290247,0.049 -0.385674,0.1461 -0.09543,0.097 -0.150629,0.259 -0.165311,0.4849 l -0.771349,-0.077 c 0.04595,-0.426 0.190121,-0.7318 0.432508,-0.9174 0.242386,-0.1856 0.545553,-0.2783 0.909205,-0.2783 0.398595,0 0.711744,0.1073 0.939596,0.3222 0.227705,0.2149 0.341631,0.4821 0.341631,0.8019 0,0.1818 -0.03259,0.355 -0.09792,0.5193 -0.06518,0.1644 -0.16854,0.3366 -0.30992,0.5166 -0.09367,0.1194 -0.262646,0.2911 -0.506941,0.5153 -0.244295,0.2242 -0.399035,0.3729 -0.464219,0.4463 -0.06518,0.074 -0.118037,0.1451 -0.15841,0.215 h 1.537413 z m 0.463045,0.7191 v -0.7742 h 0.774139 v 0.7742 z m 6.122641,0 h -0.887184 l -0.352642,-0.9174 h -1.614637 l -0.333409,0.9174 h -0.865162 l 1.573235,-4.0393 h 0.86252 z m -1.501591,-1.5981 -0.556564,-1.4988 -0.545553,1.4988 z m 1.70287,1.5981 v -4.0393 h 0.774139 v 4.0393 z m 1.342154,0 v -4.0393 h 0.774139 v 4.0393 z m 2.692236,0 v -4.0393 h 1.716524 c 0.431627,0 0.745364,0.036 0.940917,0.1088 0.195553,0.073 0.352202,0.2016 0.469798,0.3872 0.117596,0.1855 0.176321,0.3977 0.176321,0.6366 0,0.3028 -0.08912,0.5533 -0.267198,0.7506 -0.178229,0.1976 -0.444546,0.322 -0.79895,0.3733 0.176321,0.103 0.321812,0.216 0.436619,0.339 0.114807,0.1231 0.269546,0.3417 0.464366,0.6558 l 0.493141,0.788 h -0.975418 l -0.589597,-0.8788 c -0.2095,-0.3142 -0.352642,-0.5121 -0.429865,-0.5939 -0.07722,-0.082 -0.158997,-0.1377 -0.245176,-0.1681 -0.08632,-0.03 -0.223154,-0.045 -0.410486,-0.045 h -0.16531 v 1.6861 h -0.815686 z m 0.81554,-2.3309 h 0.603396 c 0.391254,0 0.635549,-0.016 0.732885,-0.05 0.09734,-0.033 0.173532,-0.09 0.228733,-0.1707 0.05505,-0.081 0.08266,-0.1819 0.08266,-0.303 0,-0.136 -0.03626,-0.2458 -0.108788,-0.3293 -0.07267,-0.084 -0.174999,-0.1364 -0.30713,-0.1584 -0.06621,-0.01 -0.264555,-0.014 -0.595175,-0.014 h -0.63643 v 1.0249 z m 3.025498,-0.9919 v -0.7165 h 0.774139 v 0.7165 z m 0,3.3228 v -2.9261 h 0.774139 v 2.9261 z m 1.270363,0.1927 0.884394,0.1075 c 0.01468,0.1028 0.04874,0.1735 0.101888,0.212 0.07341,0.055 0.18924,0.083 0.34721,0.083 0.202013,0 0.35367,-0.03 0.454676,-0.091 0.06797,-0.04 0.119358,-0.1057 0.154299,-0.1957 0.02393,-0.064 0.03582,-0.1828 0.03582,-0.3554 v -0.427 c -0.231523,0.3158 -0.523531,0.4739 -0.876174,0.4739 -0.393162,0 -0.704403,-0.1662 -0.934017,-0.4985 -0.179991,-0.2627 -0.269986,-0.5898 -0.269986,-0.981 0,-0.4905 0.118036,-0.8652 0.353963,-1.1242 0.236073,-0.2589 0.529403,-0.3884 0.880284,-0.3884 0.361891,0 0.660359,0.1588 0.895552,0.4765 v -0.4105 h 0.724663 v 2.6258 c 0,0.3454 -0.02848,0.6034 -0.08544,0.7741 -0.05696,0.1709 -0.136829,0.3049 -0.239744,0.4023 -0.102915,0.097 -0.240184,0.1736 -0.411954,0.2287 -0.17177,0.055 -0.388905,0.083 -0.651551,0.083 -0.49593,0 -0.847692,-0.085 -1.055284,-0.2549 -0.207592,-0.1699 -0.311387,-0.3852 -0.311387,-0.646 0,-0.026 10e-4,-0.057 0.0028,-0.094 z m 0.691631,-1.7163 c 0,0.3103 0.06019,0.5376 0.180431,0.6819 0.120239,0.1443 0.268666,0.2164 0.444987,0.2164 0.189094,0 0.348972,-0.074 0.479341,-0.2218 0.130369,-0.148 0.1957,-0.3669 0.1957,-0.6573 0,-0.303 -0.0624,-0.5281 -0.187332,-0.675 -0.124937,-0.147 -0.282906,-0.2204 -0.473909,-0.2204 -0.18557,0 -0.338548,0.072 -0.458787,0.2163 -0.120239,0.1443 -0.180431,0.364 -0.180431,0.6599 z m 3.372561,-2.5157 v 1.4851 c 0.249727,-0.2921 0.548196,-0.438 0.895406,-0.438 0.178082,0 0.338988,0.033 0.48213,0.099 0.143288,0.066 0.251195,0.1504 0.32372,0.2535 0.07252,0.1028 0.122147,0.2167 0.148867,0.3416 0.02657,0.125 0.03993,0.3188 0.03993,0.5813 v 1.7165 h -0.774139 v -1.5457 c 0,-0.3066 -0.01468,-0.5015 -0.04404,-0.5841 -0.02936,-0.083 -0.08133,-0.1484 -0.155768,-0.197 -0.07429,-0.049 -0.167659,-0.073 -0.279676,-0.073 -0.128608,0 -0.243414,0.031 -0.344421,0.094 -0.101007,0.062 -0.175,0.1565 -0.221833,0.2824 -0.04683,0.1257 -0.07032,0.3119 -0.07032,0.5579 v 1.4658 h -0.774138 v -4.0393 h 0.774285 z m 3.791416,1.1132 v 0.6172 h -0.52911 v 1.1792 c 0,0.2387 0.0051,0.3779 0.01527,0.4174 0.01,0.04 0.03303,0.072 0.06885,0.098 0.03582,0.026 0.07943,0.039 0.13081,0.039 0.07164,0 0.17544,-0.025 0.311388,-0.074 l 0.06621,0.6006 c -0.180138,0.077 -0.383913,0.1156 -0.611765,0.1156 -0.139618,0 -0.265436,-0.023 -0.377453,-0.07 -0.112165,-0.047 -0.194232,-0.1073 -0.246644,-0.1817 -0.05241,-0.074 -0.08868,-0.1749 -0.108788,-0.3019 -0.01659,-0.09 -0.02481,-0.2717 -0.02481,-0.5455 v -1.2755 H 95.2852 v -0.6172 h 0.355432 v -0.5814 l 0.776928,-0.4519 v 1.0333 h 0.52911 z"
     id="path22"
     inkscape:connector-curvature="0" />
  <path
     d="m 96.985365,182.67378 0.776929,-0.1185 c 0.03303,0.1505 0.100125,0.265 0.201132,0.3429 0.101007,0.078 0.242533,0.1172 0.424286,0.1172 0.200252,0 0.350881,-0.037 0.451887,-0.1103 0.06783,-0.051 0.101887,-0.1202 0.101887,-0.2065 0,-0.059 -0.01835,-0.1073 -0.05505,-0.146 -0.03861,-0.037 -0.124937,-0.071 -0.258976,-0.102 -0.624538,-0.1377 -1.020342,-0.2635 -1.187414,-0.3773 -0.231523,-0.158 -0.34721,-0.3774 -0.34721,-0.6584 0,-0.2536 0.100125,-0.4666 0.30023,-0.6393 0.200251,-0.1726 0.510612,-0.2589 0.931227,-0.2589 0.400503,0 0.697944,0.065 0.892763,0.1955 0.194673,0.1305 0.328859,0.3233 0.402265,0.5786 l -0.730096,0.1351 c -0.03127,-0.114 -0.09058,-0.2012 -0.177789,-0.2618 -0.08721,-0.061 -0.211702,-0.091 -0.373342,-0.091 -0.203922,0 -0.349853,0.028 -0.438087,0.085 -0.05872,0.04 -0.08823,0.093 -0.08823,0.1571 0,0.055 0.02569,0.1019 0.07722,0.1405 0.06974,0.052 0.310801,0.1241 0.723196,0.2176 0.412394,0.094 0.700292,0.2085 0.863694,0.3444 0.161639,0.1377 0.242386,0.3297 0.242386,0.5759 0,0.2681 -0.112017,0.4986 -0.336199,0.6915 -0.224035,0.1929 -0.555683,0.2894 -0.99465,0.2894 -0.398595,0 -0.714093,-0.081 -0.94635,-0.2424 -0.232109,-0.1618 -0.384059,-0.3813 -0.455704,-0.6587 z m 4.535605,0.8349 v -4.0393 h 1.71638 c 0.43162,0 0.74521,0.036 0.94091,0.1088 0.19556,0.073 0.35206,0.2016 0.4698,0.3872 0.11745,0.1855 0.17618,0.3977 0.17618,0.6366 0,0.3028 -0.089,0.5533 -0.2672,0.7506 -0.17808,0.1976 -0.4444,0.322 -0.79895,0.3733 0.17632,0.103 0.32181,0.216 0.43676,0.339 0.11496,0.1231 0.26955,0.3417 0.46422,0.6558 l 0.49314,0.788 h -0.97541 l -0.5896,-0.8788 c -0.2095,-0.3142 -0.35264,-0.5121 -0.42986,-0.5939 -0.0772,-0.082 -0.15885,-0.1377 -0.24533,-0.1681 -0.0863,-0.03 -0.22315,-0.045 -0.41048,-0.045 h -0.16531 v 1.6861 h -0.81525 z m 0.81554,-2.3309 h 0.6034 c 0.39125,0 0.6354,-0.016 0.73288,-0.05 0.0972,-0.033 0.17353,-0.09 0.22873,-0.1707 0.0551,-0.081 0.0827,-0.1819 0.0827,-0.303 0,-0.136 -0.0363,-0.2458 -0.10879,-0.3293 -0.0725,-0.084 -0.17485,-0.1364 -0.30728,-0.1584 -0.0661,-0.01 -0.26455,-0.014 -0.59517,-0.014 h -0.63643 v 1.0249 z m 4.71985,1.3995 0.7715,0.1296 c -0.0992,0.2829 -0.25589,0.4983 -0.4698,0.646 -0.21405,0.148 -0.48169,0.2218 -0.8032,0.2218 -0.50885,0 -0.88528,-0.1661 -1.12958,-0.4985 -0.19276,-0.2663 -0.28936,-0.6025 -0.28936,-1.0085 0,-0.4849 0.1267,-0.8647 0.38024,-1.1392 0.25355,-0.2746 0.57404,-0.412 0.96162,-0.412 0.4353,0 0.77884,0.1437 1.03047,0.4312 0.25178,0.2876 0.37202,0.7279 0.36101,1.3212 h -1.93968 c 0.005,0.2296 0.068,0.4082 0.18734,0.5358 0.11935,0.1277 0.26807,0.1916 0.4463,0.1916 0.12112,0 0.22316,-0.033 0.30581,-0.099 0.0827,-0.066 0.14505,-0.1727 0.18733,-0.3198 z m 0.044,-0.7824 c -0.005,-0.224 -0.0634,-0.3944 -0.17353,-0.511 -0.11026,-0.1167 -0.24445,-0.1749 -0.40227,-0.1749 -0.16898,0 -0.30874,0.062 -0.41885,0.1846 -0.11026,0.1232 -0.16443,0.2904 -0.16252,0.5015 h 1.15717 z m 0.90128,0.8789 0.77707,-0.1185 c 0.033,0.1505 0.10013,0.265 0.20113,0.3429 0.10101,0.078 0.24239,0.1172 0.42429,0.1172 0.2001,0 0.35088,-0.037 0.45189,-0.1103 0.068,-0.051 0.10188,-0.1202 0.10188,-0.2065 0,-0.059 -0.0183,-0.1073 -0.055,-0.146 -0.0388,-0.037 -0.12508,-0.071 -0.25912,-0.102 -0.62454,-0.1377 -1.02035,-0.2635 -1.18756,-0.3773 -0.23138,-0.158 -0.34707,-0.3774 -0.34707,-0.6584 0,-0.2536 0.10013,-0.4666 0.30038,-0.6393 0.2001,-0.1726 0.51061,-0.2589 0.93123,-0.2589 0.4005,0 0.69794,0.065 0.89276,0.1955 0.19453,0.1305 0.32871,0.3233 0.40212,0.5786 l -0.7301,0.1351 c -0.0313,-0.114 -0.0904,-0.2012 -0.17779,-0.2618 -0.0872,-0.061 -0.2117,-0.091 -0.37334,-0.091 -0.20392,0 -0.34985,0.028 -0.43794,0.085 -0.0589,0.04 -0.0882,0.093 -0.0882,0.1571 0,0.055 0.0257,0.1019 0.0771,0.1405 0.0699,0.052 0.3108,0.1241 0.7232,0.2176 0.41239,0.094 0.70044,0.2085 0.86384,0.3444 0.16164,0.1377 0.24239,0.3297 0.24239,0.5759 0,0.2681 -0.11202,0.4986 -0.33606,0.6915 -0.22418,0.1929 -0.55568,0.2894 -0.99465,0.2894 -0.39859,0 -0.71394,-0.081 -0.94635,-0.2424 -0.2324,-0.1618 -0.38435,-0.3813 -0.45599,-0.6587 z m 4.87973,-0.097 0.77149,0.1296 c -0.0992,0.2829 -0.25589,0.4983 -0.46979,0.646 -0.21406,0.148 -0.48169,0.2218 -0.80321,0.2218 -0.50885,0 -0.88528,-0.1661 -1.12957,-0.4985 -0.19277,-0.2663 -0.28937,-0.6025 -0.28937,-1.0085 0,-0.4849 0.1267,-0.8647 0.38024,-1.1392 0.25355,-0.2746 0.57404,-0.412 0.96162,-0.412 0.4353,0 0.77884,0.1437 1.03047,0.4312 0.25179,0.2876 0.37203,0.7279 0.36102,1.3212 h -1.93968 c 0.005,0.2296 0.068,0.4082 0.18733,0.5358 0.11936,0.1277 0.26808,0.1916 0.44631,0.1916 0.12112,0 0.22315,-0.033 0.30581,-0.099 0.0825,-0.066 0.14505,-0.1727 0.18733,-0.3198 z m 0.044,-0.7824 c -0.005,-0.224 -0.0634,-0.3944 -0.17353,-0.511 -0.11026,-0.1167 -0.24444,-0.1749 -0.40226,-0.1749 -0.16898,0 -0.30875,0.062 -0.41886,0.1846 -0.11025,0.1232 -0.16443,0.2904 -0.16252,0.5015 h 1.15717 z m 1.91516,1.7138 h -0.77414 v -2.9261 h 0.71909 v 0.416 c 0.12303,-0.1965 0.23372,-0.326 0.33209,-0.3884 0.0982,-0.062 0.20979,-0.094 0.33473,-0.094 0.17632,0 0.34618,0.049 0.50973,0.1459 l -0.23975,0.6752 c -0.13051,-0.085 -0.25163,-0.1267 -0.3638,-0.1267 -0.10834,0 -0.2001,0.03 -0.27541,0.089 -0.0755,0.06 -0.13463,0.1677 -0.17779,0.3238 -0.0432,0.156 -0.0648,0.4831 -0.0648,0.981 v 0.9036 z"
     id="path24"
     inkscape:connector-curvature="0" />
  <path
     d="m 116.87426,183.50868 -1.17919,-2.9261 h 0.81289 l 0.55099,1.4933 0.15988,0.4986 c 0.0421,-0.1267 0.0688,-0.2104 0.0799,-0.2507 0.0257,-0.083 0.0532,-0.1653 0.0827,-0.2479 l 0.55641,-1.4933 h 0.79631 l -1.1626,2.9261 h -0.69721 z m 3.80243,-0.9314 0.77149,0.1296 c -0.0992,0.2829 -0.25589,0.4983 -0.4698,0.646 -0.21405,0.148 -0.48168,0.2218 -0.8032,0.2218 -0.50885,0 -0.88528,-0.1661 -1.12957,-0.4985 -0.19277,-0.2663 -0.28937,-0.6025 -0.28937,-1.0085 0,-0.4849 0.1267,-0.8647 0.38024,-1.1392 0.25355,-0.2746 0.57404,-0.412 0.96162,-0.412 0.4353,0 0.77884,0.1437 1.03047,0.4312 0.25179,0.2876 0.37202,0.7279 0.36101,1.3212 h -1.93967 c 0.005,0.2296 0.068,0.4082 0.18733,0.5358 0.11936,0.1277 0.26808,0.1916 0.44631,0.1916 0.12112,0 0.22315,-0.033 0.3058,-0.099 0.0825,-0.066 0.14505,-0.1727 0.18734,-0.3198 z m 0.044,-0.7824 c -0.005,-0.224 -0.0634,-0.3944 -0.17353,-0.511 -0.11026,-0.1167 -0.24444,-0.1749 -0.40227,-0.1749 -0.16898,0 -0.30874,0.062 -0.41885,0.1846 -0.11026,0.1232 -0.16443,0.2904 -0.16252,0.5015 h 1.15717 z m 3.85763,1.7138 h -0.71909 v -0.4299 c -0.11935,0.1672 -0.26029,0.2916 -0.42296,0.3734 -0.16267,0.082 -0.32651,0.1225 -0.49182,0.1225 -0.3362,0 -0.6241,-0.1353 -0.86384,-0.4063 -0.23975,-0.271 -0.35954,-0.6489 -0.35954,-1.1339 0,-0.496 0.11671,-0.8729 0.35,-1.131 0.23328,-0.2581 0.52808,-0.3871 0.88439,-0.3871 0.32695,0 0.60971,0.1359 0.84857,0.4077 v -1.4548 h 0.77414 v 4.0394 z m -2.06638,-1.5264 c 0,0.3124 0.0432,0.5383 0.12949,0.6778 0.12494,0.202 0.29935,0.303 0.52338,0.303 0.17823,0 0.32974,-0.076 0.45468,-0.2274 0.12494,-0.1513 0.18733,-0.3777 0.18733,-0.6791 0,-0.3361 -0.0606,-0.5782 -0.18175,-0.7259 -0.12127,-0.148 -0.27659,-0.2218 -0.46569,-0.2218 -0.18366,0 -0.33752,0.073 -0.46157,0.2189 -0.12391,0.1462 -0.18587,0.3642 -0.18587,0.6545 z m 2.60386,1.5264 v -0.7742 h 0.77414 v 0.7742 z m 2.67843,0 v -4.0393 h 1.22045 l 0.73288,2.7554 0.72467,-2.7554 h 1.22338 v 4.0393 h -0.7577 v -3.1795 l -0.80188,3.1795 h -0.7853 l -0.79895,-3.1795 v 3.1795 z m 5.05884,-2.0335 -0.70264,-0.1267 c 0.079,-0.2828 0.21494,-0.4923 0.4077,-0.6281 0.19291,-0.1359 0.47949,-0.2039 0.85958,-0.2039 0.34545,0 0.60252,0.041 0.7715,0.1226 0.16898,0.082 0.2879,0.1856 0.3569,0.3114 0.0688,0.1257 0.10321,0.3567 0.10321,0.6929 l -0.008,0.9037 c 0,0.2572 0.0123,0.4469 0.0371,0.569 0.0248,0.1222 0.0712,0.2531 0.13918,0.3926 h -0.76607 c -0.0203,-0.051 -0.0451,-0.1276 -0.0744,-0.2287 -0.0128,-0.046 -0.0219,-0.076 -0.0276,-0.091 -0.13213,0.1286 -0.27366,0.2249 -0.42429,0.2893 -0.15063,0.064 -0.31139,0.096 -0.48213,0.096 -0.3014,0 -0.53865,-0.082 -0.71233,-0.2451 -0.17368,-0.1634 -0.2603,-0.3701 -0.2603,-0.62 0,-0.1653 0.0395,-0.3127 0.11848,-0.4422 0.079,-0.1296 0.18968,-0.2289 0.33209,-0.2976 0.14241,-0.069 0.3475,-0.129 0.61573,-0.1804 0.36189,-0.068 0.61264,-0.1314 0.75211,-0.1902 v -0.077 c 0,-0.1489 -0.0367,-0.2547 -0.1101,-0.3182 -0.0736,-0.063 -0.21215,-0.095 -0.41607,-0.095 -0.13771,0 -0.24517,0.027 -0.3224,0.081 -0.0769,0.054 -0.13918,0.1493 -0.18704,0.285 z m 1.03591,0.6283 c -0.0991,0.033 -0.25619,0.073 -0.47112,0.1185 -0.21493,0.046 -0.35543,0.091 -0.4215,0.1351 -0.101,0.072 -0.15151,0.1625 -0.15151,0.2728 0,0.1083 0.0404,0.202 0.12127,0.281 0.0808,0.079 0.18366,0.1184 0.3086,0.1184 0.13947,0 0.27263,-0.046 0.39947,-0.1377 0.0938,-0.07 0.15533,-0.1551 0.18469,-0.2562 0.0203,-0.066 0.0302,-0.192 0.0302,-0.3774 v -0.1545 z m 3.98168,1.4052 h -0.71908 v -0.4299 c -0.11936,0.1672 -0.2603,0.2916 -0.42297,0.3734 -0.16266,0.082 -0.32651,0.1225 -0.49182,0.1225 -0.3362,0 -0.62409,-0.1353 -0.86384,-0.4063 -0.23974,-0.271 -0.35954,-0.6489 -0.35954,-1.1339 0,-0.496 0.11672,-0.8729 0.35,-1.131 0.23328,-0.2581 0.52808,-0.3871 0.88439,-0.3871 0.32695,0 0.60971,0.1359 0.84858,0.4077 v -1.4548 h 0.77414 v 4.0394 z m -2.06637,-1.5264 c 0,0.3124 0.0432,0.5383 0.12948,0.6778 0.12494,0.202 0.29935,0.303 0.52339,0.303 0.17823,0 0.32974,-0.076 0.45467,-0.2274 0.12494,-0.1513 0.18734,-0.3777 0.18734,-0.6791 0,-0.3361 -0.0606,-0.5782 -0.18176,-0.7259 -0.12126,-0.148 -0.27659,-0.2218 -0.46568,-0.2218 -0.18367,0 -0.33752,0.073 -0.46158,0.2189 -0.12391,0.1462 -0.18586,0.3642 -0.18586,0.6545 z m 4.29835,0.595 0.7715,0.1296 c -0.0993,0.2829 -0.25589,0.4983 -0.4698,0.646 -0.21405,0.148 -0.48169,0.2218 -0.80321,0.2218 -0.50885,0 -0.88527,-0.1661 -1.12957,-0.4985 -0.19276,-0.2663 -0.28936,-0.6025 -0.28936,-1.0085 0,-0.4849 0.1267,-0.8647 0.38024,-1.1392 0.25354,-0.2746 0.57403,-0.412 0.96162,-0.412 0.43529,0 0.77883,0.1437 1.03047,0.4312 0.25178,0.2876 0.37202,0.7279 0.36101,1.3212 h -1.93968 c 0.005,0.2296 0.068,0.4082 0.18733,0.5358 0.11936,0.1277 0.26808,0.1916 0.44631,0.1916 0.12112,0 0.22316,-0.033 0.30581,-0.099 0.0825,-0.066 0.14505,-0.1727 0.18733,-0.3198 z m 0.044,-0.7824 c -0.005,-0.224 -0.0634,-0.3944 -0.17354,-0.511 -0.11025,-0.1167 -0.24444,-0.1749 -0.40226,-0.1749 -0.16898,0 -0.30874,0.062 -0.41885,0.1846 -0.11026,0.1232 -0.16443,0.2904 -0.16252,0.5015 h 1.15717 z m 2.51591,-1.609 v -0.7165 h 0.77414 v 0.7165 z m 0,3.3228 v -2.9261 h 0.77414 v 2.9261 z m 4.00356,0 h -0.77414 v -1.4934 c 0,-0.3158 -0.0164,-0.5203 -0.0496,-0.6131 -0.0332,-0.093 -0.0868,-0.1648 -0.1612,-0.2162 -0.0744,-0.052 -0.16399,-0.077 -0.26867,-0.077 -0.13404,0 -0.25427,0.037 -0.36086,0.1101 -0.10673,0.074 -0.1797,0.1709 -0.21904,0.292 -0.0396,0.1213 -0.0592,0.3455 -0.0592,0.6723 v 1.3252 h -0.77414 v -2.9261 h 0.71894 v 0.4299 c 0.25531,-0.3306 0.57682,-0.4959 0.96426,-0.4959 0.17089,0 0.3271,0.031 0.46833,0.092 0.14153,0.062 0.24841,0.1401 0.32108,0.2355 0.0727,0.095 0.12303,0.2039 0.15151,0.325 0.0285,0.1213 0.0427,0.295 0.0427,0.5208 v 1.8187 z m 1.90988,0 v -4.0393 h 1.71637 c 0.43163,0 0.74522,0.036 0.94092,0.1088 0.19555,0.073 0.35205,0.2016 0.4698,0.3872 0.11745,0.1855 0.17617,0.3977 0.17617,0.6366 0,0.3028 -0.089,0.5533 -0.2672,0.7506 -0.17808,0.1976 -0.4444,0.322 -0.79895,0.3733 0.17633,0.103 0.32182,0.216 0.43677,0.339 0.11495,0.1231 0.26955,0.3417 0.46422,0.6558 l 0.49314,0.788 h -0.97542 l -0.58959,-0.8788 c -0.20951,-0.3142 -0.35265,-0.5121 -0.42987,-0.5939 -0.0772,-0.082 -0.15885,-0.1377 -0.24532,-0.1681 -0.0863,-0.03 -0.22316,-0.045 -0.41049,-0.045 h -0.16531 v 1.6861 h -0.81524 z m 0.81554,-2.3309 h 0.60339 c 0.39126,0 0.6354,-0.016 0.73289,-0.05 0.0972,-0.033 0.17353,-0.09 0.22873,-0.1707 0.055,-0.081 0.0827,-0.1819 0.0827,-0.303 0,-0.136 -0.0363,-0.2458 -0.10878,-0.3293 -0.0725,-0.084 -0.17486,-0.1364 -0.30728,-0.1584 -0.0661,-0.01 -0.26456,-0.014 -0.59518,-0.014 h -0.63642 v 1.0249 z m 4.72,1.3995 0.77149,0.1296 c -0.0992,0.2829 -0.25589,0.4983 -0.4698,0.646 -0.21405,0.148 -0.48169,0.2218 -0.8032,0.2218 -0.50885,0 -0.88528,-0.1661 -1.12957,-0.4985 -0.19277,-0.2663 -0.28937,-0.6025 -0.28937,-1.0085 0,-0.4849 0.1267,-0.8647 0.38024,-1.1392 0.25355,-0.2746 0.57404,-0.412 0.96162,-0.412 0.4353,0 0.77884,0.1437 1.03047,0.4312 0.25179,0.2876 0.37202,0.7279 0.36101,1.3212 h -1.93967 c 0.005,0.2296 0.068,0.4082 0.18733,0.5358 0.11936,0.1277 0.26808,0.1916 0.44631,0.1916 0.12111,0 0.22315,-0.033 0.3058,-0.099 0.0825,-0.066 0.14505,-0.1727 0.18734,-0.3198 z m 0.044,-0.7824 c -0.005,-0.224 -0.0634,-0.3944 -0.17353,-0.511 -0.11026,-0.1167 -0.24444,-0.1749 -0.40227,-0.1749 -0.16898,0 -0.30874,0.062 -0.41885,0.1846 -0.11026,0.1232 -0.16443,0.2904 -0.16252,0.5015 h 1.15717 z m 1.15189,-1.2123 h 0.72187 v 0.4298 c 0.0938,-0.1469 0.22051,-0.2663 0.38024,-0.358 0.15988,-0.092 0.33708,-0.1377 0.53175,-0.1377 0.33973,0 0.62821,0.1331 0.86531,0.3994 0.23681,0.2663 0.35543,0.6375 0.35543,1.1132 0,0.4885 -0.11935,0.8684 -0.35822,1.1394 -0.23871,0.271 -0.52808,0.4063 -0.8678,0.4063 -0.16179,0 -0.30831,-0.032 -0.43941,-0.096 -0.13154,-0.064 -0.26969,-0.1744 -0.41474,-0.3306 v 1.474 h -0.77414 v -4.0395 z m 0.76591,1.4135 c 0,0.3287 0.065,0.5717 0.19556,0.7288 0.13051,0.1569 0.28936,0.2354 0.47669,0.2354 0.18,0 0.3296,-0.072 0.4491,-0.2164 0.11936,-0.144 0.17911,-0.3806 0.17911,-0.7094 0,-0.3068 -0.0615,-0.5346 -0.18454,-0.6832 -0.12318,-0.1489 -0.27557,-0.2233 -0.45732,-0.2233 -0.18924,0 -0.34618,0.073 -0.47112,0.219 -0.12508,0.1461 -0.18748,0.3625 -0.18748,0.6491 z m 2.47716,1.5126 v -0.7742 h 0.77414 v 0.7742 z m 2.50505,-1.5044 c 0,-0.2571 0.0634,-0.5059 0.19012,-0.7467 0.1267,-0.2406 0.30625,-0.4243 0.53865,-0.551 0.23226,-0.1267 0.49182,-0.1901 0.7784,-0.1901 0.44264,0 0.80541,0.1437 1.08832,0.4312 0.2829,0.2876 0.42428,0.6508 0.42428,1.0898 0,0.4428 -0.14285,0.8096 -0.42839,1.1006 -0.28555,0.2912 -0.64524,0.4368 -1.07878,0.4368 -0.26808,0 -0.52382,-0.061 -0.76738,-0.1818 -0.24342,-0.1212 -0.4284,-0.2989 -0.5551,-0.5332 -0.1267,-0.2343 -0.19012,-0.5194 -0.19012,-0.8556 z m 0.79337,0.041 c 0,0.2903 0.069,0.5125 0.20671,0.6668 0.13771,0.1543 0.30772,0.2314 0.50973,0.2314 0.20202,0 0.37144,-0.077 0.50841,-0.2314 0.13683,-0.1543 0.2051,-0.3784 0.2051,-0.6723 0,-0.2866 -0.0684,-0.5069 -0.2051,-0.6612 -0.13697,-0.1543 -0.30639,-0.2314 -0.50841,-0.2314 -0.20201,0 -0.37187,0.077 -0.50973,0.2314 -0.13785,0.1543 -0.20671,0.3766 -0.20671,0.6667 z m 2.26795,-1.463 h 0.42987 v -0.2204 c 0,-0.2462 0.0263,-0.4299 0.0785,-0.5511 0.0523,-0.1211 0.14887,-0.2199 0.28937,-0.2963 0.14049,-0.076 0.31814,-0.1142 0.53307,-0.1142 0.22051,0 0.43632,0.033 0.64744,0.099 l -0.10468,0.5401 c -0.12303,-0.029 -0.24165,-0.044 -0.35543,-0.044 -0.11216,0 -0.19247,0.026 -0.24106,0.078 -0.0488,0.052 -0.0731,0.1529 -0.0731,0.3018 v 0.2066 h 0.57859 v 0.6088 h -0.57859 v 2.3171 h -0.77413 v -2.3171 h -0.42987 v -0.6088 z m 3.31486,2.9261 v -4.0393 h 0.81569 v 4.0393 z m 2.1025,0 h -0.77414 v -2.9261 h 0.71908 v 0.416 c 0.12303,-0.1965 0.23373,-0.326 0.33209,-0.3884 0.0982,-0.062 0.2098,-0.094 0.33473,-0.094 0.17632,0 0.34618,0.049 0.50973,0.1459 l -0.23974,0.6752 c -0.13052,-0.085 -0.25164,-0.1267 -0.3638,-0.1267 -0.10835,0 -0.20011,0.03 -0.27542,0.089 -0.0755,0.06 -0.13463,0.1677 -0.17779,0.3238 -0.0432,0.156 -0.0647,0.4831 -0.0647,0.981 v 0.9036 z m 2.92361,-0.9314 0.77149,0.1296 c -0.0992,0.2829 -0.25589,0.4983 -0.46979,0.646 -0.21406,0.148 -0.48169,0.2218 -0.80321,0.2218 -0.50885,0 -0.88528,-0.1661 -1.12957,-0.4985 -0.19277,-0.2663 -0.28937,-0.6025 -0.28937,-1.0085 0,-0.4849 0.1267,-0.8647 0.38025,-1.1392 0.25354,-0.2746 0.57403,-0.412 0.96161,-0.412 0.4353,0 0.77884,0.1437 1.03048,0.4312 0.25178,0.2876 0.37202,0.7279 0.36101,1.3212 h -1.93968 c 0.005,0.2296 0.068,0.4082 0.18733,0.5358 0.11936,0.1277 0.26808,0.1916 0.44631,0.1916 0.12112,0 0.22315,-0.033 0.30581,-0.099 0.0825,-0.066 0.14505,-0.1727 0.18733,-0.3198 z m 0.044,-0.7824 c -0.005,-0.224 -0.0634,-0.3944 -0.17353,-0.511 -0.11026,-0.1167 -0.24444,-0.1749 -0.40226,-0.1749 -0.16898,0 -0.30875,0.062 -0.41886,0.1846 -0.11025,0.1232 -0.16443,0.2904 -0.16252,0.5015 h 1.15717 z m 1.17391,1.7138 v -0.7742 h 0.77414 v 0.7742 z"
     id="path26"
     inkscape:connector-curvature="0" />
  <path
     d="m 55.091725,67.713481 v -8.6885 h 1.631373 v 8.6885 z m 2.750666,0 v -8.6885 h 1.58733 l 3.30679,5.8022 v -5.8022 h 1.515686 v 8.6885 h -1.636953 l -3.257314,-5.6659 v 5.6659 z m 7.269976,-2.827 1.58733,-0.1659 c 0.09543,0.5728 0.289366,0.9937 0.581375,1.2624 0.292008,0.2687 0.686198,0.403 1.182129,0.403 0.525439,0 0.921244,-0.1195 1.187707,-0.3585 0.266464,-0.239 0.399622,-0.5185 0.399622,-0.8386 0,-0.2054 -0.05608,-0.3802 -0.168099,-0.5246 -0.112164,-0.1441 -0.307865,-0.2696 -0.586954,-0.3762 -0.191149,-0.071 -0.626593,-0.1975 -1.306185,-0.3792 -0.874558,-0.2332 -1.488085,-0.5196 -1.840874,-0.8595 -0.49593,-0.478 -0.744042,-1.0608 -0.744042,-1.7484 0,-0.4425 0.116568,-0.8563 0.349999,-1.2417 0.233431,-0.3854 0.569483,-0.6787 1.008598,-0.8801 0.438967,-0.2015 0.969105,-0.3023 1.590119,-0.3023 1.014029,0 1.777304,0.239 2.289971,0.7172 0.512667,0.478 0.781773,1.1162 0.807465,1.9142 l -1.631373,0.077 c -0.06988,-0.4464 -0.219631,-0.7675 -0.449244,-0.9631 -0.229614,-0.1955 -0.574182,-0.2933 -1.033409,-0.2933 -0.474055,0 -0.845196,0.1047 -1.113274,0.314 -0.172798,0.1345 -0.259123,0.3142 -0.259123,0.5394 0,0.2055 0.08075,0.3814 0.242533,0.5275 0.205683,0.1859 0.705431,0.3792 1.499096,0.5808 0.793665,0.2016 1.380618,0.4099 1.760861,0.6253 0.380243,0.2153 0.677977,0.5097 0.89291,0.883 0.214932,0.3734 0.322399,0.8348 0.322399,1.3839 0,0.4978 -0.128608,0.9641 -0.385822,1.3987 -0.257214,0.4347 -0.620867,0.7577 -1.091252,0.9689 -0.470386,0.2113 -1.056312,0.3171 -1.758072,0.3171 -1.021517,0 -1.805933,-0.2538 -2.353394,-0.7616 -0.547462,-0.5077 -0.874558,-1.2476 -0.980997,-2.2195 z m 7.490487,2.827 v -8.6885 h 5.990804 v 1.4699 h -4.359431 v 1.9262 h 4.056412 v 1.4638 h -4.056412 v 2.3647 h 4.513877 v 1.4639 z m 7.082497,0 v -8.6885 h 3.433636 c 0.8634,0 1.490727,0.078 1.882128,0.2342 0.3914,0.156 0.70455,0.4337 0.939742,0.8327 0.235046,0.399 0.352642,0.8555 0.352642,1.369 0,0.6519 -0.178229,1.1904 -0.534542,1.6149 -0.356459,0.4249 -0.889239,0.6926 -1.59834,0.8031 0.352789,0.2212 0.643916,0.4644 0.87353,0.7289 0.229614,0.2647 0.53924,0.735 0.928732,1.4106 l 0.986576,1.6949 h -1.950983 l -1.179486,-1.8906 c -0.418855,-0.6756 -0.705431,-1.1012 -0.859731,-1.2771 -0.154299,-0.1758 -0.317847,-0.2964 -0.490498,-0.3616 -0.172651,-0.065 -0.446455,-0.098 -0.821119,-0.098 h -0.33062 v 3.6271 h -1.631667 z m 1.631373,-5.0141 h 1.206941 c 0.782654,0 1.271243,-0.035 1.466063,-0.1067 0.194672,-0.071 0.34721,-0.1935 0.457465,-0.3675 0.110256,-0.1738 0.165311,-0.3912 0.165311,-0.6518 0,-0.2925 -0.07267,-0.5284 -0.217722,-0.7082 -0.145197,-0.1799 -0.35,-0.2935 -0.614555,-0.3408 -0.132277,-0.02 -0.52911,-0.03 -1.190497,-0.03 h -1.273152 v 2.2047 z m 7.881741,5.0141 v -7.2186 h -2.397437 v -1.4699 h 6.420816 v 1.4699 h -2.392006 v 7.2186 z m 9.127733,0 v -7.2186 h -2.397437 v -1.4699 h 6.420819 v 1.4699 h -2.392009 v 7.2186 z m 4.090032,-4.2909 c 0,-0.885 0.12303,-1.6278 0.36923,-2.2284 0.18366,-0.4425 0.43442,-0.8395 0.75226,-1.1913 0.31785,-0.3516 0.66594,-0.6123 1.04442,-0.7823 0.50328,-0.2292 1.08377,-0.3437 1.74163,-0.3437 1.1905,0 2.14287,0.3971 2.85755,1.1912 0.71453,0.7941 1.07202,1.8986 1.07202,3.313 0,1.4026 -0.35455,2.5 -1.06365,3.2922 -0.7091,0.7922 -1.65707,1.1883 -2.84389,1.1883 -1.20151,0 -2.15682,-0.3942 -2.86592,-1.1824 -0.70925,-0.7882 -1.06365,-1.8738 -1.06365,-3.2566 z m 1.68085,-0.059 c 0,0.9838 0.21126,1.7296 0.63378,2.2373 0.42253,0.5076 0.95898,0.7616 1.60936,0.7616 0.65037,0 1.18403,-0.2519 1.60113,-0.7556 0.41694,-0.5039 0.62556,-1.2595 0.62556,-2.2669 0,-0.9957 -0.20304,-1.7384 -0.60897,-2.2285 -0.40609,-0.4899 -0.94518,-0.7349 -1.61758,-0.7349 -0.6724,0 -1.21428,0.2479 -1.62579,0.7437 -0.41166,0.4959 -0.61749,1.2437 -0.61749,2.2433 z m 11.48098,4.3502 v -7.2186 h -2.39744 v -1.4699 h 6.42082 v 1.4699 h -2.39201 v 7.2186 z m 4.63015,0 v -8.6885 h 1.63137 v 3.4197 h 3.19654 v -3.4197 h 1.63137 v 8.6885 h -1.63137 v -3.7989 h -3.19654 v 3.7989 z m 7.64479,0 v -8.6885 h 1.63122 v 8.6885 z m 2.32065,-2.827 1.58733,-0.1659 c 0.0954,0.5728 0.28937,0.9937 0.58138,1.2624 0.29215,0.2687 0.68619,0.403 1.18227,0.403 0.52544,0 0.92125,-0.1195 1.18771,-0.3585 0.26646,-0.239 0.39962,-0.5185 0.39962,-0.8386 0,-0.2054 -0.0561,-0.3802 -0.1681,-0.5246 -0.11216,-0.1441 -0.30786,-0.2696 -0.58695,-0.3762 -0.19115,-0.071 -0.6266,-0.1975 -1.30619,-0.3792 -0.87441,-0.2332 -1.48808,-0.5196 -1.84072,-0.8595 -0.49608,-0.478 -0.74405,-1.0608 -0.74405,-1.7484 0,-0.4425 0.11657,-0.8563 0.35,-1.2417 0.23329,-0.3852 0.56949,-0.6787 1.0086,-0.8801 0.43897,-0.2015 0.96911,-0.3023 1.58997,-0.3023 1.01418,0 1.77745,0.239 2.29012,0.7172 0.51267,0.4781 0.78163,1.1162 0.80732,1.9142 l -1.63123,0.077 c -0.0699,-0.4464 -0.21963,-0.7675 -0.44924,-0.9631 -0.22962,-0.1955 -0.57418,-0.2933 -1.03341,-0.2933 -0.47406,0 -0.8452,0.1047 -1.11327,0.314 -0.1728,0.1345 -0.25913,0.3142 -0.25913,0.5394 0,0.2055 0.0807,0.3814 0.24239,0.5275 0.20568,0.1859 0.70558,0.3792 1.49924,0.5808 0.79352,0.2016 1.38047,0.4099 1.76086,0.6253 0.38025,0.2153 0.67783,0.5097 0.89277,0.883 0.21493,0.3734 0.32239,0.8348 0.32239,1.3839 0,0.4978 -0.1286,0.9641 -0.38582,1.3987 -0.25721,0.4347 -0.62086,0.7577 -1.09125,0.9689 -0.47038,0.2113 -1.05646,0.3171 -1.75822,0.3171 -1.02152,0 -1.80593,-0.2538 -2.35339,-0.7616 -0.54746,-0.5077 -0.87441,-1.2476 -0.981,-2.2195 z m 10.21899,2.827 v -8.6174 h 1.63137 v 7.1535 h 4.05641 v 1.4639 z m 6.34961,0 v -8.6885 h 1.63123 v 8.6885 z m 2.75052,0 v -8.6885 h 1.58733 l 3.30679,5.8022 v -5.8022 h 1.51568 v 8.6885 h -1.63695 l -3.25717,-5.6659 v 5.6659 z m 7.6834,0 v -8.6885 h 5.99095 v 1.4699 h -4.35958 v 1.9262 h 4.05641 v 1.4638 h -4.05641 v 2.3647 h 4.51388 v 1.4639 z"
     id="path28"
     inkscape:connector-curvature="0"
     style="fill:#222223" />
  <path
     d="m 97.039833,114.68258 0.816274,0.2588 c -0.125231,0.4551 -0.333263,0.7929 -0.624244,1.0137 -0.290982,0.221 -0.660213,0.3314 -1.107549,0.3314 -0.553627,0 -1.008597,-0.1891 -1.365057,-0.5673 -0.356459,-0.3782 -0.534688,-0.8954 -0.534688,-1.5512 0,-0.694 0.179257,-1.2327 0.537478,-1.6167 0.358221,-0.3838 0.82934,-0.5758 1.413358,-0.5758 0.510024,0 0.92418,0.1506 1.242615,0.452 0.189681,0.1783 0.331795,0.4343 0.426635,0.7679 l -0.833304,0.1989 c -0.04933,-0.2161 -0.152097,-0.3867 -0.308598,-0.5118 -0.156502,-0.1251 -0.346476,-0.1876 -0.570218,-0.1876 -0.308892,0 -0.559793,0.1108 -0.752117,0.3326 -0.19247,0.222 -0.288632,0.5813 -0.288632,1.0779 0,0.5271 0.09484,0.9023 0.284375,1.1261 0.189534,0.2237 0.436031,0.3356 0.739344,0.3356 0.223595,0 0.416212,-0.071 0.577411,-0.2133 0.161053,-0.1423 0.276741,-0.366 0.346917,-0.6712 z m 5.064857,1.5328 h -0.91551 l -0.36395,-0.9469 h -1.666462 l -0.344127,0.9469 h -0.89291 l 1.623739,-4.1689 h 0.89012 z m -1.54974,-1.6494 -0.574476,-1.547 -0.563024,1.547 z m 1.55004,0.2929 0.81891,-0.08 c 0.0493,0.2748 0.14946,0.4767 0.30009,0.6056 0.15063,0.1291 0.35396,0.1934 0.60985,0.1934 0.27117,0 0.47538,-0.057 0.61294,-0.1721 0.13742,-0.1147 0.20613,-0.2487 0.20613,-0.4024 0,-0.099 -0.0289,-0.1824 -0.0868,-0.2517 -0.058,-0.069 -0.15885,-0.1293 -0.30287,-0.1804 -0.0985,-0.034 -0.32313,-0.095 -0.67387,-0.182 -0.4513,-0.1119 -0.76782,-0.2492 -0.94987,-0.4124 -0.25589,-0.2295 -0.38391,-0.509 -0.38391,-0.8389 0,-0.2123 0.0602,-0.4109 0.18058,-0.5958 0.12023,-0.185 0.29377,-0.3256 0.5203,-0.4224 0.22653,-0.097 0.50004,-0.1449 0.82053,-0.1449 0.52309,0 0.91698,0.1147 1.18154,0.3442 0.26455,0.2294 0.40329,0.5354 0.41665,0.9184 l -0.84167,0.037 c -0.0361,-0.2142 -0.11334,-0.3683 -0.23182,-0.462 -0.11847,-0.094 -0.29626,-0.1408 -0.53322,-0.1408 -0.24459,0 -0.43603,0.05 -0.57432,0.1506 -0.0891,0.064 -0.13375,0.1508 -0.13375,0.2589 0,0.099 0.0417,0.183 0.12523,0.2532 0.10629,0.089 0.36395,0.1819 0.77355,0.2785 0.40946,0.097 0.71248,0.1968 0.90847,0.3001 0.19629,0.1034 0.34986,0.2446 0.4607,0.4237 0.11099,0.1793 0.16648,0.4007 0.16648,0.664 0,0.2389 -0.0664,0.4625 -0.19907,0.6711 -0.13257,0.2085 -0.32035,0.3635 -0.56303,0.465 -0.24268,0.1013 -0.54511,0.1521 -0.90715,0.1521 -0.52705,0 -0.93181,-0.1219 -1.21428,-0.3654 -0.28276,-0.2436 -0.45144,-0.5986 -0.50635,-1.065 z m 3.6515,0 0.81892,-0.08 c 0.0493,0.2748 0.14931,0.4767 0.30008,0.6056 0.15063,0.1291 0.35397,0.1934 0.60986,0.1934 0.27116,0 0.47538,-0.057 0.61294,-0.1721 0.13741,-0.1147 0.20612,-0.2487 0.20612,-0.4024 0,-0.099 -0.0289,-0.1824 -0.0868,-0.2517 -0.058,-0.069 -0.15885,-0.1293 -0.30288,-0.1804 -0.0987,-0.034 -0.32313,-0.095 -0.67401,-0.182 -0.45115,-0.1119 -0.76768,-0.2492 -0.94973,-0.4124 -0.25589,-0.2295 -0.38391,-0.509 -0.38391,-0.8389 0,-0.2123 0.0602,-0.4109 0.18058,-0.5958 0.12024,-0.185 0.29377,-0.3256 0.5203,-0.4224 0.22653,-0.097 0.50004,-0.1449 0.82039,-0.1449 0.52323,0 0.91713,0.1147 1.18168,0.3442 0.26441,0.2294 0.4033,0.5354 0.41666,0.9184 l -0.84182,0.037 c -0.036,-0.2142 -0.11319,-0.3683 -0.23167,-0.462 -0.11863,-0.094 -0.29627,-0.1408 -0.53322,-0.1408 -0.24459,0 -0.43618,0.05 -0.57448,0.1506 -0.089,0.064 -0.1336,0.1508 -0.1336,0.2589 0,0.099 0.0417,0.183 0.12523,0.2532 0.10615,0.089 0.36395,0.1819 0.77356,0.2785 0.40945,0.097 0.71233,0.1968 0.90847,0.3001 0.19614,0.1034 0.34985,0.2446 0.46069,0.4237 0.11099,0.1793 0.16649,0.4007 0.16649,0.664 0,0.2389 -0.0664,0.4625 -0.19908,0.6711 -0.13272,0.2085 -0.32049,0.3635 -0.56302,0.465 -0.24268,0.1013 -0.54511,0.1521 -0.90715,0.1521 -0.5272,0 -0.93182,-0.1219 -1.21428,-0.3654 -0.28276,-0.2436 -0.45145,-0.5986 -0.50636,-1.065 z m 3.86468,1.3565 v -4.1689 h 3.09127 v 0.7053 h -2.24945 v 0.9242 h 2.09309 v 0.7024 h -2.09309 v 1.1347 h 2.32902 v 0.7023 z m 4.59007,0 v -3.4636 h -1.23704 v -0.7053 h 3.31281 v 0.7053 h -1.2341 v 3.4636 z m 3.32455,0 v -3.4636 h -1.23703 v -0.7053 h 3.31281 v 0.7053 h -1.2341 v 3.4636 z m 2.38599,0 v -4.1689 h 3.09127 v 0.7053 h -2.24945 v 0.9242 h 2.0931 v 0.7024 h -2.0931 v 1.1347 h 2.32902 v 0.7023 z"
     id="path30"
     inkscape:connector-curvature="0" />
  <path
     stroke-miterlimit="10"
     d="m 93.413727,28.163981 15.659983,-11.3534 m -0.73406,0 15.17051,11.9406 m -5.28523,-1.517 v 5.2853 m -20.015447,-5.1385 v 5.2853"
     id="path32"
     inkscape:connector-curvature="0"
     style="fill:none;stroke:#2e2e2f;stroke-width:2.08079362;stroke-miterlimit:10" />
</svg>
