<?xml version="1.0" encoding="UTF-8" standalone="no"?>
<svg
   xmlns:dc="http://purl.org/dc/elements/1.1/"
   xmlns:cc="http://creativecommons.org/ns#"
   xmlns:rdf="http://www.w3.org/1999/02/22-rdf-syntax-ns#"
   xmlns:svg="http://www.w3.org/2000/svg"
   xmlns="http://www.w3.org/2000/svg"
   xmlns:sodipodi="http://sodipodi.sourceforge.net/DTD/sodipodi-0.dtd"
   xmlns:inkscape="http://www.inkscape.org/namespaces/inkscape"
   width="403"
   height="71.116127"
   version="1"
   id="svg8"
   sodipodi:docname="logo.svg"
   inkscape:version="0.92.4 5da689c313, 2019-01-14">
  <metadata
     id="metadata14">
    <rdf:RDF>
      <cc:Work
         rdf:about="">
        <dc:format>image/svg+xml</dc:format>
        <dc:type
           rdf:resource="http://purl.org/dc/dcmitype/StillImage" />
      </cc:Work>
    </rdf:RDF>
  </metadata>
  <defs
     id="defs12" />
  <sodipodi:namedview
     pagecolor="#ffffff"
     bordercolor="#666666"
     borderopacity="1"
     objecttolerance="10"
     gridtolerance="10"
     guidetolerance="10"
     inkscape:pageopacity="0"
     inkscape:pageshadow="2"
     inkscape:window-width="640"
     inkscape:window-height="480"
     id="namedview10"
     showgrid="false"
     inkscape:zoom="0.6775"
     inkscape:cx="200"
     inkscape:cy="35.558062"
     inkscape:window-x="0"
     inkscape:window-y="0"
     inkscape:window-maximized="0"
     inkscape:current-layer="svg8">
    <inkscape:grid
       type="xygrid"
       id="grid821"
       originx="-1.6472629e-10"
       originy="-1.0141601e-06" />
  </sodipodi:namedview>
  <path
     d="m 381.48071,35.787668 16.47371,-20.12932 c 2.22012,-2.711872 2.6721,-6.457871 1.1643,-9.619913 C 397.61634,2.892663 394.44165,0.89311 390.9596,0.89311 h -0.0506 l -22.19938,0.126554 c -2.69199,0.01627 -5.23753,1.23119 -6.9442,3.313907 l -3.01922,3.688146 -3.02102,-3.689954 c -1.70487,-2.082717 -4.25041,-3.295828 -6.9424,-3.312099 L 326.5834,0.89311 c -0.67435,-0.0054 -1.33605,0.0904 -1.98509,0.233221 -0.87864,-0.283843 -1.80972,-0.439323 -2.76972,-0.439323 h -39.18836 c -3.34283,0 -6.22646,1.835033 -7.79211,4.530634 -4.23233,-2.936054 -9.31257,-4.36069 -14.12885,-4.36069 h -32.76845 c -1.79345,0 -3.45673,0.538758 -4.86148,1.4391 -1.43006,-0.9365 -3.12046,-1.498761 -4.932,-1.498761 h -38.7201 c -3.27052,0 -6.18849,1.750061 -7.77946,4.434814 C 166.13822,1.845881 159.74001,0 153.07242,0 c -9.53494,0 -18.18581,3.793005 -24.5786,9.923643 l -0.96,-2.974019 C 126.32794,3.218088 122.85494,0.688816 118.93176,0.688816 H 79.298666 c -0.923845,0 -1.797067,0.178983 -2.63594,0.435707 -0.21695,-0.01808 -0.430283,-0.04701 -0.649041,-0.04881 L 56.889565,0.903961 C 53.740178,0.851531 50.840283,2.467808 49.167962,5.110979 L 43.20546,14.537445 36.745781,4.819904 C 35.086116,2.323174 32.298312,0.811758 29.298981,0.784639 L 9.1226353,0.602036 C 5.787033,0.497177 2.7063466,2.382832 1.1063423,5.311653 -0.4936621,8.240475 -0.34902892,11.809298 1.4805806,14.600718 L 35.830957,66.992273 c 1.672321,2.549159 4.51617,4.082271 7.560698,4.082271 h 0.0922 c 3.078878,-0.03073 5.931767,-1.628931 7.566122,-4.237752 L 70.259069,36.190833 v 25.422894 c 0,4.991652 4.047921,9.039573 9.039573,9.039573 h 39.633098 c 3.92137,0 7.39618,-2.529273 8.60206,-6.260808 l 1.01786,-3.149387 c 6.38736,6.099903 15.01473,9.873021 24.52074,9.873021 10.55641,0 20.49994,-4.64634 27.27782,-12.749413 0.14101,-0.169944 0.24045,-0.357967 0.36881,-0.535143 v 3.767694 c 0,4.991652 4.04792,9.039573 9.03957,9.039573 h 18.07915 c 0.0271,0 0.0506,-0.0072 0.0777,-0.0072 l 20.02627,-0.09582 h 18.54016 c 2.22554,0 4.26306,-0.804522 5.83776,-2.138762 1.61989,1.401133 3.71345,2.202039 5.91369,2.202039 h 21.69497 c 0.42667,0 0.84791,-0.03435 1.26192,-0.0922 0.47549,0.07593 0.95278,0.146441 1.44995,0.146441 h 39.18836 c 0.78463,0 1.54215,-0.126554 2.27616,-0.318193 0.78102,0.218758 1.59639,0.339888 2.43165,0.339888 h 0.0506 l 22.22108,-0.126554 c 2.69198,-0.01627 5.23752,-1.23119 6.9442,-3.313907 l 2.99571,-3.659219 2.99391,3.659219 c 1.70305,2.084525 4.2504,3.299444 6.9442,3.313907 l 22.22107,0.126554 h 0.0506 c 3.48204,0 6.65854,-2.001362 8.15911,-5.147133 1.5078,-3.162042 1.05402,-6.909849 -1.1661,-9.619913 z m -201.5897,10.46421 -10.41902,-10.688391 0.76837,-0.750285 c 1.61808,1.364976 3.67187,2.142379 5.82329,2.142379 h 4.65538 v 10.321384 c -0.25672,-0.350735 -0.51525,-0.703279 -0.82802,-1.025087 z"
     id="path2"
     inkscape:connector-curvature="0"
     style="fill:#0072bc" />
  <path
     d="m 392.8778,9.019686 -24.54967,0.139209 -9.58195,11.706247 -9.58556,-11.706247 -24.54786,-0.139209 21.91011,26.771598 -21.9065,26.755327 24.56956,-0.141017 9.56025,-11.680936 9.55845,11.680936 24.56955,0.141017 -21.9083,-26.755327 z m -3.83639,51.697316 -19.8726,-0.113899 -10.42082,-12.733142 -10.42263,12.733142 -19.87259,0.113899 20.40954,-24.927526 -20.41316,-24.941989 19.8509,0.113899 10.44613,12.756645 10.44252,-12.756645 19.85451,-0.113899 -20.41316,24.941989 z M 124.97379,25.487979 119.58982,8.824431 H 78.394688 v 53.689638 h 41.195132 l 5.38397,-16.663548 H 95.058237 V 42.196725 H 110.08743 V 28.682564 H 95.058237 v -3.196393 h 29.915553 z m -16.69428,5.004308 v 9.898332 H 93.250322 v 7.269624 h 29.237588 l -4.21425,13.047719 H 80.202603 V 10.632346 h 38.071057 l 4.21425,13.047719 H 93.250322 v 6.812222 z"
     id="path4"
     inkscape:connector-curvature="0"
     style="fill:#ffffff" />
  <path
     d="m 298.23347,45.850521 v -3.653796 h 14.85925 V 28.682564 h -14.85925 v -3.194585 h 29.57749 l -5.3225,-16.663548 h -40.75221 v 53.689638 h 40.75221 l 5.3225,-16.663548 z m 22.93521,14.855633 H 283.54417 V 10.632346 h 37.62451 l 4.16905,13.047719 h -28.91036 v 6.810414 h 14.85925 v 9.898332 h -14.85925 v 7.269624 h 28.91036 z M 274.78121,35.2923 c 2.6721,-3.644756 1.56927,-11.838225 1.52769,-12.134723 C 275.14279,9.166127 261.36467,8.996183 260.72106,8.996183 H 227.04684 V 62.40017 h 20.33904 V 24.813627 h 6.95866 c 1.71933,1.202263 1.63797,2.567239 1.63436,2.612437 l -0.0145,0.128362 0.0235,0.128361 c 0.31638,1.797068 0.10486,3.153003 -0.63097,4.029842 -0.97085,1.157065 -2.74983,1.328817 -3.7243,1.330625 -0.65989,0 -1.12814,-0.07593 -1.15887,-0.07955 l -1.05583,-0.177176 v 16.470101 l 8.3146,13.206816 h 23.73792 L 269.18386,40.537058 c 3.32295,-1.970627 5.51234,-5.12363 5.59731,-5.24476 z m 3.60317,25.361425 H 258.73235 L 251.2277,48.732336 V 34.840321 c 1.52407,0.05062 4.02261,-0.188023 5.51414,-1.967011 1.08113,-1.287235 1.43006,-3.105997 1.04316,-5.407472 0.0127,-0.592996 -0.1374,-2.701025 -2.68113,-4.320916 l -0.22238,-0.141017 h -9.30353 V 60.58864 H 228.85475 V 10.80229 h 31.90427 c 1.3017,0 12.73495,0.350735 13.75281,12.554158 0.30011,2.162266 0.67073,8.327254 -1.20588,10.887261 -0.0235,0.03435 -2.40633,3.451309 -5.76182,5.127246 l -0.84792,0.423052 z m -99.69925,-51.719011 -3.71165,19.88706 h 13.87936 V 62.499605 H 208.7399 V 28.821774 h 13.87755 L 218.9058,8.934714 Z m 28.24866,18.079145 V 60.691691 H 190.66256 V 27.013859 h -13.51054 l 3.03729,-16.271231 h 37.21773 l 3.0373,16.271231 z M 153.0724,25.095662 c 3.62849,0 6.94601,1.838649 8.87325,4.917527 l 0.5948,0.949155 12.34444,-12.044326 -0.52068,-0.640002 c -5.23572,-6.447023 -12.9971,-10.1424 -21.29181,-10.1424 -15.11959,0 -27.42064,12.30105 -27.42064,27.420639 0,15.119589 12.30105,27.42064 27.42064,27.42064 8.14104,0 15.81021,-3.583287 21.0387,-9.833247 l 0.5243,-0.625539 -12.07868,-12.391446 -0.61107,0.974466 c -1.92724,3.078878 -5.24476,4.917528 -8.87325,4.917528 -5.76725,0 -10.46059,-4.693347 -10.46059,-10.460594 0,-5.767247 4.69334,-10.462401 10.46059,-10.462401 z m -12.26851,10.460593 c 0,6.765216 5.5033,12.268508 12.26851,12.268508 3.87255,0 7.44319,-1.784411 9.75732,-4.827132 l 9.36138,9.603642 c -4.8651,5.456286 -11.7876,8.569515 -19.12051,8.569515 -14.12342,0 -25.61272,-11.489297 -25.61272,-25.612725 0,-14.123428 11.4911,-25.614533 25.61453,-25.614533 7.47392,0 14.48321,3.212664 19.35915,8.84251 l -9.58556,9.352342 c -2.31413,-3.055376 -5.892,-4.850635 -9.7754,-4.850635 -6.7634,0 -12.2667,5.503292 -12.2667,12.268508 z M 43.375384,29.485278 29.705742,8.925674 7.3581107,8.723188 43.407926,63.7091 77.557624,9.227596 56.31282,9.035957 Z M 74.310609,11.004776 43.375384,60.359035 10.724448,10.561837 28.729468,10.724549 43.411542,32.808225 57.303557,10.851103 Z"
     id="path6"
     inkscape:connector-curvature="0"
     style="fill:#ffffff" />
</svg>
