<?xml version="1.0" encoding="UTF-8" standalone="no"?>
<svg
   xmlns:dc="http://purl.org/dc/elements/1.1/"
   xmlns:cc="http://creativecommons.org/ns#"
   xmlns:rdf="http://www.w3.org/1999/02/22-rdf-syntax-ns#"
   xmlns:svg="http://www.w3.org/2000/svg"
   xmlns="http://www.w3.org/2000/svg"
   xmlns:sodipodi="http://sodipodi.sourceforge.net/DTD/sodipodi-0.dtd"
   xmlns:inkscape="http://www.inkscape.org/namespaces/inkscape"
   viewBox="0 0 500.00001 186.42343"
   version="1.1"
   id="svg80"
   sodipodi:docname="consolegame.svg"
   width="500"
   height="186.42343"
   inkscape:version="0.92.4 5da689c313, 2019-01-14">
  <metadata
     id="metadata84">
    <rdf:RDF>
      <cc:Work
         rdf:about="">
        <dc:format>image/svg+xml</dc:format>
        <dc:type
           rdf:resource="http://purl.org/dc/dcmitype/StillImage" />
      </cc:Work>
    </rdf:RDF>
  </metadata>
  <sodipodi:namedview
     pagecolor="#ffffff"
     bordercolor="#666666"
     borderopacity="1"
     objecttolerance="10"
     gridtolerance="10"
     guidetolerance="10"
     inkscape:pageopacity="0"
     inkscape:pageshadow="2"
     inkscape:window-width="471"
     inkscape:window-height="442"
     id="namedview82"
     showgrid="false"
     inkscape:zoom="0.542"
     inkscape:cx="250"
     inkscape:cy="93.211714"
     inkscape:window-x="0"
     inkscape:window-y="0"
     inkscape:window-maximized="0"
     inkscape:current-layer="svg80">
    <inkscape:grid
       type="xygrid"
       id="grid86"
       originx="0"
       originy="-1.3964844e-06" />
  </sodipodi:namedview>
  <defs
     id="defs8">
    <clipPath
       id="a">
      <path
         d="M 0,216.722 H 398.322 V 0 H 0 Z"
         id="path2"
         inkscape:connector-curvature="0" />
    </clipPath>
    <clipPath
       id="b">
      <path
         d="M 0,138.8 H 138.48 V 0 H 0 Z"
         id="path5"
         inkscape:connector-curvature="0" />
    </clipPath>
  </defs>
  <g
     clip-path="url(#a)"
     transform="matrix(0.86019616,0,0,-0.86019616,0,186.42343)"
     id="g58">
    <path
       d="m 199.2282,0 c 35.223,0 141.719,5.802 150.835,6.631 9.117,0.828 41.439,-2.902 46.411,35.221 4.973,38.124 -1.363,102.042 -4.144,118.515 -5.387,31.907 -4.42,43.648 -22.791,45.996 -26.463,3.382 -89.092,10.359 -170.446,10.359 h 0.135 c -81.354,0 -143.983,-6.977 -170.446,-10.359 C 10.4112,204.015 11.3782,192.274 5.9912,160.367 3.2102,143.894 -3.1248,79.976 1.8472,41.852 6.8202,3.729 39.1412,7.459 48.2582,6.631 57.3742,5.802 163.8712,0 199.0932,0 Z"
       id="path10"
       inkscape:connector-curvature="0"
       style="fill:#333333" />
    <path
       d="m 199.2282,6.0781 c 34.27,0 137.687,4.856 146.556,5.664 8.87,0.805 39.501,-0.42 44.339,36.672 4.838,37.092 -0.447,94.658 -3.152,110.683 -5.243,31.045 -3.978,44.152 -21.852,46.437 -25.748,3.291 -86.873,10.359 -166.026,10.359 h 0.135 c -79.153,0 -140.278,-7.068 -166.026,-10.359 -17.873,-2.285 -16.61,-15.392 -21.852,-46.437 -2.705,-16.025 -7.99,-73.591 -3.152,-110.683 4.838,-37.092 35.469,-35.867 44.339,-36.672 8.87,-0.808 112.287,-5.664 146.556,-5.664 z"
       id="path12"
       inkscape:connector-curvature="0"
       style="fill:#404140" />
    <path
       d="m 202.3932,67.959 c 0,0 42.265,-0.277 62.708,0 20.442,0.275 31.493,20.994 34.531,28.178 3.039,7.181 26.521,70.997 29.559,80.666 3.039,9.669 -1.933,18.785 -8.564,21.272 -6.629,2.486 -23.481,6.353 -46.134,8.011 -22.653,1.658 -41.438,1.934 -72.1,1.934 h -3.165 c -30.662,0 -49.447,-0.276 -72.101,-1.934 -22.652,-1.658 -39.504,-5.525 -46.134,-8.011 -6.63,-2.487 -11.602,-11.603 -8.563,-21.272 3.038,-9.669 26.52,-73.485 29.559,-80.666 3.038,-7.184 14.089,-27.903 34.532,-28.178 20.442,-0.277 62.707,0 62.707,0 z"
       id="path14"
       inkscape:connector-curvature="0"
       style="fill:#333333" />
    <path
       stroke-miterlimit="10"
       d="m 53.8424,208.5522 c 3.253,-10.351 37.926,-107.673 41.179,-115.363 3.253,-7.687 15.082,-34.426 36.966,-34.722 21.884,-0.295 67.129,0 67.129,0 h 3.389 c 0,0 45.244,-0.295 67.128,0 21.885,0.296 33.714,27.035 36.967,34.722 3.253,7.69 36.967,104.481 40.22,114.831"
       id="path16"
       inkscape:connector-curvature="0"
       style="fill:none;stroke:#333333;stroke-width:1.65799999;stroke-miterlimit:10" />
    <path
       d="m 202.3429,68.5078 c 0,0 40.933,-0.268 60.731,0 19.798,0.268 30.499,21.99 33.443,28.947 2.943,6.955 25.684,68.758 28.627,78.123 2.944,9.364 -1.872,16.121 -8.294,18.529 -6.421,2.407 -22.741,6.153 -44.68,7.758 -21.938,1.605 -40.132,1.873 -69.827,1.873 h -3.064 c -29.696,0 -47.889,-0.268 -69.828,-1.873 -21.938,-1.605 -38.259,-5.351 -44.68,-7.758 -6.421,-2.408 -11.237,-9.165 -8.294,-18.529 2.943,-9.365 25.685,-71.168 28.628,-78.123 2.942,-6.957 13.644,-28.679 33.443,-28.947 19.798,-0.268 60.731,0 60.731,0 z"
       id="path18"
       inkscape:connector-curvature="0"
       style="fill:#272727" />
    <path
       d="m 281.6271,88.2636 c 0,-3.243 -2.629,-5.873 -5.873,-5.873 h -147.241 c -3.244,0 -5.873,2.63 -5.873,5.873 v 107.46 c 0,3.244 2.629,5.873 5.873,5.873 h 147.241 c 3.244,0 5.873,-2.629 5.873,-5.873 z"
       id="path20"
       inkscape:connector-curvature="0"
       style="fill:#3a3b3b" />
    <path
       d="m 266.4562,96.3965 c 0,-2.654 -2.152,-4.805 -4.805,-4.805 h -120.484 c -2.655,0 -4.807,2.151 -4.807,4.805 v 87.932 c 0,2.654 2.152,4.807 4.807,4.807 h 120.484 c 2.653,0 4.805,-2.153 4.805,-4.807 z"
       id="path22"
       inkscape:connector-curvature="0"
       style="fill:#1a1b1b" />
    <path
       d="m 40.6955,58.9375 c 0,-1.105 -0.896,-2.002 -2.003,-2.002 -1.106,0 -2.002,0.897 -2.002,2.002 0,1.107 0.896,2.004 2.002,2.004 1.107,0 2.003,-0.897 2.003,-2.004 m 0,-6.4649 c 0,-1.105 -0.896,-2.003 -2.003,-2.003 -1.106,0 -2.002,0.898 -2.002,2.003 0,1.105 0.896,2.002 2.002,2.002 1.107,0 2.003,-0.897 2.003,-2.002 m 0,-6.4648 c 0,-1.105 -0.896,-2.003 -2.003,-2.003 -1.106,0 -2.002,0.898 -2.002,2.003 0,1.105 0.896,2.003 2.002,2.003 1.107,0 2.003,-0.898 2.003,-2.003 m 6.2851,19.3965 c 0,-1.107 -0.897,-2.004 -2.003,-2.004 -1.105,0 -2.002,0.897 -2.002,2.004 0,1.105 0.897,2.002 2.002,2.002 1.106,0 2.003,-0.897 2.003,-2.002 m 0,-6.4668 c 0,-1.105 -0.897,-2.002 -2.003,-2.002 -1.105,0 -2.002,0.897 -2.002,2.002 0,1.107 0.897,2.004 2.002,2.004 1.106,0 2.003,-0.897 2.003,-2.004 m 0,-6.4649 c 0,-1.105 -0.897,-2.003 -2.003,-2.003 -1.105,0 -2.002,0.898 -2.002,2.003 0,1.105 0.897,2.002 2.002,2.002 1.106,0 2.003,-0.897 2.003,-2.002 m 0,-6.4648 c 0,-1.105 -0.897,-2.003 -2.003,-2.003 -1.105,0 -2.002,0.898 -2.002,2.003 0,1.105 0.897,2.003 2.002,2.003 1.106,0 2.003,-0.898 2.003,-2.003 m 0,-6.4658 c 0,-1.107 -0.897,-2.003 -2.003,-2.003 -1.105,0 -2.002,0.896 -2.002,2.003 0,1.106 0.897,2.003 2.002,2.003 1.106,0 2.003,-0.897 2.003,-2.003 m 6.2847,25.8623 c 0,-1.107 -0.896,-2.004 -2.003,-2.004 -1.105,0 -2.002,0.897 -2.002,2.004 0,1.105 0.897,2.002 2.002,2.002 1.107,0 2.003,-0.897 2.003,-2.002 m 0,-6.4668 c 0,-1.105 -0.896,-2.002 -2.003,-2.002 -1.105,0 -2.002,0.897 -2.002,2.002 0,1.107 0.897,2.004 2.002,2.004 1.107,0 2.003,-0.897 2.003,-2.004 m 0,-6.4649 c 0,-1.105 -0.896,-2.003 -2.003,-2.003 -1.105,0 -2.002,0.898 -2.002,2.003 0,1.105 0.897,2.002 2.002,2.002 1.107,0 2.003,-0.897 2.003,-2.002 m 0,-6.4648 c 0,-1.105 -0.896,-2.003 -2.003,-2.003 -1.105,0 -2.002,0.898 -2.002,2.003 0,1.105 0.897,2.003 2.002,2.003 1.107,0 2.003,-0.898 2.003,-2.003 m 0,-6.4658 c 0,-1.107 -0.896,-2.003 -2.003,-2.003 -1.105,0 -2.002,0.896 -2.002,2.003 0,1.106 0.897,2.003 2.002,2.003 1.107,0 2.003,-0.897 2.003,-2.003 m 6.2851,25.8623 c 0,-1.107 -0.896,-2.004 -2.002,-2.004 -1.106,0 -2.003,0.897 -2.003,2.004 0,1.105 0.897,2.002 2.003,2.002 1.106,0 2.002,-0.897 2.002,-2.002 m 0,-6.4668 c 0,-1.105 -0.896,-2.002 -2.002,-2.002 -1.106,0 -2.003,0.897 -2.003,2.002 0,1.107 0.897,2.004 2.003,2.004 1.106,0 2.002,-0.897 2.002,-2.004 m 0,-6.4649 c 0,-1.105 -0.896,-2.003 -2.002,-2.003 -1.106,0 -2.003,0.898 -2.003,2.003 0,1.105 0.897,2.002 2.003,2.002 1.106,0 2.002,-0.897 2.002,-2.002 m 0,-6.4648 c 0,-1.105 -0.896,-2.003 -2.002,-2.003 -1.106,0 -2.003,0.898 -2.003,2.003 0,1.105 0.897,2.003 2.003,2.003 1.106,0 2.002,-0.898 2.002,-2.003 m 0,-6.4658 c 0,-1.107 -0.896,-2.003 -2.002,-2.003 -1.106,0 -2.003,0.896 -2.003,2.003 0,1.106 0.897,2.003 2.003,2.003 1.106,0 2.002,-0.897 2.002,-2.003 m 6.2847,25.8623 c 0,-1.107 -0.897,-2.004 -2.002,-2.004 -1.106,0 -2.003,0.897 -2.003,2.004 0,1.105 0.897,2.002 2.003,2.002 1.105,0 2.002,-0.897 2.002,-2.002 m 0,-6.4668 c 0,-1.105 -0.897,-2.002 -2.002,-2.002 -1.106,0 -2.003,0.897 -2.003,2.002 0,1.107 0.897,2.004 2.003,2.004 1.105,0 2.002,-0.897 2.002,-2.004 m 0,-6.4649 c 0,-1.105 -0.897,-2.003 -2.002,-2.003 -1.106,0 -2.003,0.898 -2.003,2.003 0,1.105 0.897,2.002 2.003,2.002 1.105,0 2.002,-0.897 2.002,-2.002 m 0,-6.4648 c 0,-1.105 -0.897,-2.003 -2.002,-2.003 -1.106,0 -2.003,0.898 -2.003,2.003 0,1.105 0.897,2.003 2.003,2.003 1.105,0 2.002,-0.898 2.002,-2.003 m 0,-6.4658 c 0,-1.107 -0.897,-2.003 -2.002,-2.003 -1.106,0 -2.003,0.896 -2.003,2.003 0,1.106 0.897,2.003 2.003,2.003 1.105,0 2.002,-0.897 2.002,-2.003 m 6.2857,25.8623 c 0,-1.107 -0.897,-2.004 -2.003,-2.004 -1.106,0 -2.003,0.897 -2.003,2.004 0,1.105 0.897,2.002 2.003,2.002 1.106,0 2.003,-0.897 2.003,-2.002 m 0,-6.4668 c 0,-1.105 -0.897,-2.002 -2.003,-2.002 -1.106,0 -2.003,0.897 -2.003,2.002 0,1.107 0.897,2.004 2.003,2.004 1.106,0 2.003,-0.897 2.003,-2.004 m 0,-6.4649 c 0,-1.105 -0.897,-2.003 -2.003,-2.003 -1.106,0 -2.003,0.898 -2.003,2.003 0,1.105 0.897,2.002 2.003,2.002 1.106,0 2.003,-0.897 2.003,-2.002 m 0,-6.4648 c 0,-1.105 -0.897,-2.003 -2.003,-2.003 -1.106,0 -2.003,0.898 -2.003,2.003 0,1.105 0.897,2.003 2.003,2.003 1.106,0 2.003,-0.898 2.003,-2.003 m 0,-6.4658 c 0,-1.107 -0.897,-2.003 -2.003,-2.003 -1.106,0 -2.003,0.896 -2.003,2.003 0,1.106 0.897,2.003 2.003,2.003 1.106,0 2.003,-0.897 2.003,-2.003 m 6.2846,25.8623 c 0,-1.107 -0.897,-2.004 -2.003,-2.004 -1.106,0 -2.003,0.897 -2.003,2.004 0,1.105 0.897,2.002 2.003,2.002 1.106,0 2.003,-0.897 2.003,-2.002 m 0,-6.4668 c 0,-1.105 -0.897,-2.002 -2.003,-2.002 -1.106,0 -2.003,0.897 -2.003,2.002 0,1.107 0.897,2.004 2.003,2.004 1.106,0 2.003,-0.897 2.003,-2.004 m 0,-6.4649 c 0,-1.105 -0.897,-2.003 -2.003,-2.003 -1.106,0 -2.003,0.898 -2.003,2.003 0,1.105 0.897,2.002 2.003,2.002 1.106,0 2.003,-0.897 2.003,-2.002 m 0,-6.4648 c 0,-1.105 -0.897,-2.003 -2.003,-2.003 -1.106,0 -2.003,0.898 -2.003,2.003 0,1.105 0.897,2.003 2.003,2.003 1.106,0 2.003,-0.898 2.003,-2.003 m 0,-6.4658 c 0,-1.107 -0.897,-2.003 -2.003,-2.003 -1.106,0 -2.003,0.896 -2.003,2.003 0,1.106 0.897,2.003 2.003,2.003 1.106,0 2.003,-0.897 2.003,-2.003 m 6.2847,19.3955 c 0,-1.105 -0.897,-2.002 -2.003,-2.002 -1.106,0 -2.002,0.897 -2.002,2.002 0,1.107 0.896,2.004 2.002,2.004 1.106,0 2.003,-0.897 2.003,-2.004 m 0,-6.4649 c 0,-1.105 -0.897,-2.003 -2.003,-2.003 -1.106,0 -2.002,0.898 -2.002,2.003 0,1.105 0.896,2.002 2.002,2.002 1.106,0 2.003,-0.897 2.003,-2.002 m 0,-6.4648 c 0,-1.105 -0.897,-2.003 -2.003,-2.003 -1.106,0 -2.002,0.898 -2.002,2.003 0,1.105 0.896,2.003 2.002,2.003 1.106,0 2.003,-0.898 2.003,-2.003"
       id="path24"
       inkscape:connector-curvature="0"
       style="fill:#242425" />
    <path
       d="m 349.9801,175.4394 c 0.077,2.899 -1.417,9.541 -7.251,11.188 -2.141,0.604 -2.435,0.104 -2.746,-0.777 -0.311,-0.88 -6.733,-19.113 -6.733,-19.113 0,0 -0.984,-2.694 1.605,-2.745 2.59,-0.052 14.814,-0.311 15.125,11.447"
       id="path26"
       inkscape:connector-curvature="0"
       style="fill:#2c3691" />
    <path
       d="m 95.9323,195.812 c 0.12,-0.026 0.243,-0.042 0.36,-0.08 0.436,-0.146 0.67,-0.468 0.762,-0.904 0.087,-0.408 0.043,-0.812 -0.048,-1.213 -0.168,-0.744 -0.48,-1.431 -0.853,-2.092 -0.503,-0.891 -1.113,-1.707 -1.799,-2.466 -0.738,-0.819 -1.548,-1.558 -2.466,-2.173 -0.571,-0.383 -1.17,-0.712 -1.834,-0.906 -0.351,-0.103 -0.706,-0.162 -1.074,-0.106 -0.522,0.081 -0.877,0.414 -0.99,0.935 -0.083,0.381 -0.055,0.76 0.021,1.137 0.148,0.732 0.438,1.411 0.8,2.058 0.993,1.772 2.307,3.265 3.928,4.486 0.579,0.436 1.197,0.809 1.878,1.071 0.312,0.121 0.633,0.212 0.969,0.24 0.016,0.002 0.032,0.009 0.048,0.013 z"
       id="path28"
       inkscape:connector-curvature="0"
       style="fill:#c3262e;fill-rule:evenodd" />
    <path
       d="m 104.5231,195.812 c 0.12,-0.026 0.243,-0.042 0.359,-0.08 0.437,-0.146 0.671,-0.468 0.763,-0.904 0.087,-0.408 0.042,-0.812 -0.048,-1.213 -0.168,-0.744 -0.481,-1.431 -0.853,-2.092 -0.504,-0.891 -1.114,-1.707 -1.799,-2.466 -0.738,-0.819 -1.548,-1.558 -2.466,-2.173 -0.571,-0.383 -1.171,-0.712 -1.835,-0.906 -0.35,-0.103 -0.706,-0.162 -1.074,-0.106 -0.521,0.081 -0.877,0.414 -0.99,0.935 -0.083,0.381 -0.055,0.76 0.022,1.137 0.148,0.732 0.437,1.411 0.8,2.058 0.992,1.772 2.307,3.265 3.928,4.486 0.579,0.436 1.197,0.809 1.877,1.071 0.313,0.121 0.633,0.212 0.969,0.24 0.017,0.002 0.032,0.009 0.048,0.013 z"
       id="path30"
       inkscape:connector-curvature="0"
       style="fill:#0d9347;fill-rule:evenodd" />
    <path
       d="m 113.1134,195.812 c 0.12,-0.026 0.243,-0.042 0.359,-0.08 0.436,-0.146 0.67,-0.468 0.763,-0.904 0.087,-0.408 0.042,-0.812 -0.048,-1.213 -0.168,-0.744 -0.481,-1.431 -0.853,-2.092 -0.504,-0.891 -1.114,-1.707 -1.799,-2.466 -0.739,-0.819 -1.548,-1.558 -2.466,-2.173 -0.571,-0.383 -1.171,-0.712 -1.834,-0.906 -0.351,-0.103 -0.707,-0.162 -1.075,-0.106 -0.522,0.081 -0.877,0.414 -0.99,0.935 -0.083,0.381 -0.054,0.76 0.022,1.137 0.148,0.732 0.438,1.411 0.8,2.058 0.992,1.772 2.307,3.265 3.928,4.486 0.579,0.436 1.197,0.809 1.878,1.071 0.312,0.121 0.632,0.212 0.968,0.24 0.017,0.002 0.032,0.009 0.048,0.013 z"
       id="path32"
       inkscape:connector-curvature="0"
       style="fill:#2c3691;fill-rule:evenodd" />
    <path
       d="m 95.4342,168.0761 c -0.11,0.026 -0.221,0.05 -0.33,0.079 -0.707,0.191 -1.218,0.625 -1.557,1.267 -0.219,0.414 -0.328,0.863 -0.374,1.325 -0.072,0.724 -0.027,1.441 0.153,2.147 0.194,0.757 0.536,1.438 1.072,2.012 0.582,0.622 1.308,0.922 2.158,0.93 0.511,0.005 1.004,-0.08 1.466,-0.314 0.695,-0.353 1.085,-0.928 1.211,-1.687 0.041,-0.247 0.055,-0.499 0.083,-0.755 h -1.54 c -0.013,0.132 -0.018,0.265 -0.042,0.395 -0.086,0.47 -0.314,0.709 -0.786,0.798 -0.481,0.092 -0.931,0.013 -1.318,-0.308 -0.262,-0.216 -0.436,-0.499 -0.577,-0.802 -0.338,-0.734 -0.445,-1.505 -0.342,-2.304 0.035,-0.276 0.127,-0.534 0.279,-0.77 0.179,-0.276 0.43,-0.445 0.756,-0.491 0.331,-0.046 0.653,-0.015 0.959,0.127 0.23,0.106 0.396,0.282 0.54,0.483 0.162,0.225 0.274,0.475 0.356,0.746 h -1.426 c 0.025,0.142 0.047,0.279 0.07,0.416 0.05,0.296 0.101,0.593 0.147,0.891 0.01,0.064 0.032,0.082 0.099,0.082 0.83,-0.002 1.661,-0.002 2.491,-0.002 h 0.203 c -0.017,-0.1 -0.032,-0.193 -0.049,-0.285 -0.071,-0.394 -0.125,-0.792 -0.218,-1.182 -0.157,-0.654 -0.435,-1.256 -0.879,-1.773 -0.272,-0.316 -0.602,-0.554 -0.982,-0.724 -0.203,-0.09 -0.407,-0.179 -0.611,-0.267 -0.036,-0.015 -0.076,-0.023 -0.115,-0.034 z m -8.813,11.5616 c 0.009,0.106 0.018,0.211 0.028,0.318 0.1,1.06 0.443,2.025 1.15,2.837 0.543,0.622 1.231,0.957 2.057,1.005 0.521,0.03 1.027,-0.03 1.509,-0.243 0.764,-0.335 1.209,-0.923 1.346,-1.742 0.042,-0.249 0.056,-0.502 0.084,-0.761 h -1.537 c -0.014,0.136 -0.019,0.274 -0.045,0.408 -0.089,0.467 -0.322,0.701 -0.796,0.786 -0.475,0.083 -0.918,0.008 -1.301,-0.305 -0.231,-0.188 -0.394,-0.428 -0.527,-0.691 -0.351,-0.692 -0.475,-1.43 -0.426,-2.199 0.018,-0.3 0.092,-0.589 0.231,-0.86 0.217,-0.424 0.567,-0.637 1.041,-0.643 0.456,-0.005 0.862,0.114 1.171,0.476 0.164,0.193 0.292,0.408 0.385,0.643 0.032,0.082 0.059,0.165 0.092,0.258 h -1.426 c 0.077,0.464 0.153,0.92 0.229,1.38 h 2.777 c -0.021,-0.121 -0.04,-0.239 -0.062,-0.357 -0.065,-0.366 -0.116,-0.735 -0.203,-1.097 -0.155,-0.65 -0.427,-1.25 -0.866,-1.763 -0.274,-0.322 -0.608,-0.562 -0.99,-0.738 -0.149,-0.067 -0.293,-0.147 -0.443,-0.21 -0.254,-0.105 -0.522,-0.13 -0.795,-0.119 -0.467,0.019 -0.912,0.116 -1.319,0.352 -0.512,0.299 -0.858,0.739 -1.079,1.282 -0.167,0.408 -0.243,0.836 -0.272,1.274 -0.003,0.037 -0.009,0.073 -0.013,0.111 z m 13.3448,-3.4375 c -0.167,1.902 -0.334,3.796 -0.501,5.69 -0.004,0 -0.008,0 -0.012,0.001 -0.025,-0.178 -0.051,-0.356 -0.074,-0.533 -0.08,-0.566 -0.158,-1.132 -0.237,-1.698 -0.078,-0.559 -0.156,-1.117 -0.233,-1.677 -0.08,-0.577 -0.161,-1.155 -0.243,-1.732 -0.003,-0.019 -0.032,-0.049 -0.049,-0.049 -0.426,-0.002 -0.854,-0.001 -1.281,-0.001 -0.007,0 -0.013,0.005 -0.027,0.01 0.411,2.463 0.822,4.926 1.234,7.395 h 1.9 c 0.141,-1.723 0.282,-3.449 0.422,-5.175 0.005,-0.002 0.009,-0.003 0.014,-0.005 0.01,0.023 0.02,0.044 0.029,0.066 0.686,1.682 1.373,3.364 2.057,5.047 0.025,0.063 0.052,0.089 0.125,0.088 0.589,-0.008 1.178,-0.01 1.766,-0.014 0.016,0 0.032,-0.002 0.057,-0.004 -0.03,-0.178 -0.059,-0.353 -0.088,-0.527 -0.126,-0.75 -0.252,-1.5 -0.378,-2.251 -0.126,-0.752 -0.252,-1.505 -0.379,-2.258 -0.125,-0.747 -0.249,-1.496 -0.376,-2.243 -0.026,-0.154 0.011,-0.129 -0.148,-0.13 -0.372,-0.001 -0.745,0 -1.118,0 h -0.093 c 0.35,1.905 0.696,3.799 1.044,5.692 -0.003,0.001 -0.006,0.003 -0.009,0.004 -0.033,-0.08 -0.066,-0.159 -0.099,-0.239 -0.724,-1.792 -1.449,-3.584 -2.171,-5.377 -0.026,-0.063 -0.057,-0.082 -0.124,-0.082 -0.306,0.004 -0.613,0.002 -0.918,0.002 z m 10.6469,-3.8062 c 0.021,-0.002 0.038,-0.004 0.054,-0.004 0.249,0 0.498,-0.008 0.746,0.004 0.151,0.007 0.304,0.029 0.447,0.073 0.338,0.102 0.593,0.302 0.681,0.666 0.05,0.209 0.045,0.418 0,0.627 -0.046,0.211 -0.175,0.345 -0.381,0.397 -0.114,0.028 -0.233,0.05 -0.349,0.055 -0.271,0.008 -0.541,0.002 -0.811,0.006 -0.052,0 -0.068,-0.018 -0.076,-0.067 -0.058,-0.339 -0.12,-0.676 -0.18,-1.015 -0.044,-0.245 -0.087,-0.493 -0.131,-0.742 m 1.958,-1.035 c 0.406,-1.045 0.809,-2.082 1.215,-3.127 -0.031,-0.002 -0.053,-0.004 -0.076,-0.004 -0.494,0 -0.987,0.001 -1.481,-0.001 -0.052,0 -0.077,0.014 -0.097,0.065 -0.347,0.9 -0.698,1.798 -1.045,2.697 -0.022,0.055 -0.047,0.07 -0.103,0.07 -0.192,-0.004 -0.384,-0.002 -0.583,-0.002 -0.159,-0.942 -0.317,-1.881 -0.476,-2.823 h -1.422 c 0.409,2.472 0.818,4.94 1.228,7.413 0.019,0.001 0.037,0.005 0.056,0.005 0.832,0 1.665,0.001 2.498,-0.002 0.285,-0.002 0.561,-0.05 0.823,-0.169 0.363,-0.165 0.625,-0.431 0.752,-0.811 0.202,-0.606 0.228,-1.223 0.016,-1.83 -0.223,-0.639 -0.666,-1.104 -1.244,-1.446 -0.019,-0.011 -0.037,-0.021 -0.061,-0.035 m -4.0551,9.388 c -0.077,-0.486 -0.151,-0.959 -0.227,-1.438 h -2.185 c -0.094,-0.527 -0.187,-1.048 -0.282,-1.58 h 2.466 c -0.024,-0.149 -0.046,-0.289 -0.067,-0.429 -0.057,-0.348 -0.114,-0.697 -0.167,-1.046 -0.007,-0.041 -0.021,-0.055 -0.062,-0.055 -1.265,10e-4 -2.53,10e-4 -3.795,10e-4 -0.009,0 -0.018,0.003 -0.04,0.006 0.409,2.472 0.818,4.941 1.228,7.414 h 3.842 c -0.078,-0.512 -0.155,-1.021 -0.234,-1.534 h -2.418 c -0.082,-0.446 -0.162,-0.888 -0.244,-1.339 z m -9.6104,-12.5131 c 0.41,2.474 0.819,4.942 1.229,7.414 h 3.841 c -0.077,-0.51 -0.155,-1.018 -0.233,-1.531 h -2.419 c -0.081,-0.449 -0.161,-0.891 -0.243,-1.343 h 2.182 c -0.076,-0.484 -0.15,-0.959 -0.225,-1.438 h -0.089 c -0.672,0 -1.343,0 -2.015,0.002 -0.067,0 -0.087,-0.021 -0.098,-0.083 -0.084,-0.481 -0.172,-0.96 -0.259,-1.441 -0.002,-0.016 -0.001,-0.033 -0.003,-0.055 h 2.464 c -0.082,-0.512 -0.162,-1.017 -0.243,-1.525 z m 6.4741,2.7192 h 1.332 c -0.083,0.973 -0.167,1.941 -0.25,2.909 -0.006,0 -0.012,0.001 -0.018,0.002 -0.353,-0.968 -0.707,-1.936 -1.064,-2.911 m 2.129,4.702 c 0.282,-2.477 0.562,-4.945 0.844,-7.42 h -1.408 c -0.041,0.477 -0.082,0.953 -0.124,1.436 -0.028,0.001 -0.053,0.003 -0.079,0.003 -0.586,0 -1.172,-0.001 -1.758,0.002 -0.058,0 -0.08,-0.018 -0.1,-0.072 -0.158,-0.439 -0.32,-0.877 -0.479,-1.315 -0.015,-0.038 -0.028,-0.062 -0.078,-0.062 -0.451,0.002 -0.901,0.001 -1.352,0.001 -0.014,0 -0.028,0.003 -0.05,0.005 0.029,0.074 0.057,0.144 0.084,0.213 0.958,2.38 1.917,4.759 2.872,7.139 0.022,0.052 0.045,0.071 0.103,0.071 0.483,-0.003 0.967,-0.001 1.451,-0.001 z m -12.2759,6.1823 c -0.004,0.001 -0.01,0.001 -0.014,0.001 -0.357,-0.972 -0.713,-1.944 -1.07,-2.918 h 1.333 c -0.084,0.976 -0.166,1.946 -0.249,2.917 m 1.89,-5.637 h -0.084 c -0.413,0 -0.826,0.002 -1.239,-0.003 -0.075,0 -0.089,0.026 -0.095,0.093 -0.035,0.448 -0.075,0.897 -0.114,1.356 h -0.085 c -0.579,0 -1.158,0 -1.737,0.002 -0.063,0 -0.094,-0.016 -0.117,-0.079 -0.156,-0.437 -0.319,-0.872 -0.479,-1.308 -0.013,-0.039 -0.027,-0.063 -0.077,-0.063 -0.448,0.003 -0.897,0.002 -1.344,0.002 -0.015,0 -0.029,0.003 -0.052,0.005 0.008,0.025 0.015,0.047 0.023,0.068 0.978,2.43 1.957,4.86 2.934,7.291 0.019,0.046 0.041,0.063 0.092,0.063 0.486,-0.003 0.973,-0.003 1.459,0 0.055,0 0.076,-0.012 0.083,-0.072 0.057,-0.526 0.118,-1.051 0.178,-1.576 0.059,-0.521 0.118,-1.041 0.177,-1.562 0.059,-0.521 0.119,-1.042 0.178,-1.562 0.055,-0.474 0.108,-0.947 0.162,-1.421 0.045,-0.398 0.09,-0.796 0.135,-1.195 0.001,-0.009 0.001,-0.018 0.002,-0.039 m 210.6192,11.3274 v -1.194 c -0.025,-0.001 -0.047,-0.003 -0.069,-0.003 -1.299,0 -2.597,-0.004 -3.895,0.002 -0.557,0.001 -1.058,-0.387 -1.187,-0.924 -0.022,-0.092 -0.035,-0.189 -0.036,-0.283 -0.002,-1.289 -0.002,-2.579 -10e-4,-3.869 0,-0.587 0.446,-1.102 1.028,-1.189 0.069,-0.011 0.138,-0.017 0.207,-0.017 0.897,-0.001 1.794,0 2.692,0 0.07,0 0.07,0 0.07,0.071 v 3.147 c 0,0.074 0,0.074 -0.072,0.074 h -2.076 c -0.064,0 -0.065,0 -0.065,0.063 v 1.132 h 3.407 v -4.834 c 0.005,-0.001 0.011,-0.002 0.016,-0.003 0.007,0.016 0.016,0.032 0.022,0.049 0.23,0.678 0.46,1.356 0.691,2.033 0.293,0.861 0.586,1.721 0.879,2.582 0.236,0.695 0.468,1.391 0.708,2.085 0.184,0.534 0.557,0.898 1.082,1.088 0.734,0.265 1.416,0.154 2.021,-0.348 0.263,-0.219 0.426,-0.504 0.534,-0.828 0.477,-1.43 0.961,-2.858 1.442,-4.287 0.355,-1.054 0.711,-2.108 1.067,-3.162 0.005,-0.016 0.009,-0.033 0.016,-0.056 -0.023,-0.001 -0.04,-0.003 -0.057,-0.003 -1.588,-0.001 -3.174,0 -4.761,-0.002 -0.048,0 -0.06,0.014 -0.059,0.061 10e-4,0.36 10e-4,0.72 10e-4,1.081 v 0.056 h 3.218 c -0.02,0.06 -0.035,0.111 -0.052,0.16 -0.576,1.698 -1.151,3.397 -1.726,5.095 -0.098,0.287 -0.195,0.574 -0.292,0.861 -0.088,0.261 -0.353,0.445 -0.634,0.443 -0.289,-0.001 -0.549,-0.182 -0.638,-0.444 -0.345,-1.021 -0.692,-2.043 -1.039,-3.065 -0.43,-1.271 -0.862,-2.543 -1.294,-3.815 -0.042,-0.125 -0.088,-0.249 -0.127,-0.375 -0.013,-0.045 -0.036,-0.055 -0.079,-0.055 -0.34,0.002 -0.682,10e-4 -1.023,10e-4 -1.293,0 -2.586,0.003 -3.878,-10e-4 -1.037,-0.004 -1.972,0.654 -2.309,1.646 -0.082,0.241 -0.125,0.491 -0.125,0.746 -0.003,1.296 -0.003,2.592 -10e-4,3.888 10e-4,1.124 0.818,2.123 1.919,2.341 0.164,0.032 0.334,0.05 0.5,0.05 1.301,0.004 2.602,0.002 3.904,0.002 z M 287.11,180.3462 v 1.197 h 0.069 c 1.241,0 2.482,0 3.723,10e-4 0.027,0 0.056,0.001 0.082,0.009 0.066,0.018 0.106,0.077 0.103,0.15 -0.003,0.068 -0.049,0.122 -0.117,0.135 -0.027,0.004 -0.055,0.006 -0.082,0.006 -0.346,0.001 -0.692,-0.005 -1.038,0.004 -0.63,0.015 -1.191,0.225 -1.682,0.619 -0.55,0.442 -0.896,1.014 -1.016,1.71 -0.147,0.854 0.049,1.63 0.596,2.307 0.424,0.527 0.978,0.856 1.642,0.988 0.177,0.035 0.362,0.053 0.543,0.054 1.261,0.004 2.522,0.002 3.782,0.002 h 0.064 v -1.202 h -0.069 c -1.252,0 -2.505,0.001 -3.757,0 -0.772,0 -1.432,-0.519 -1.6,-1.271 -0.125,-0.559 0.011,-1.057 0.395,-1.482 0.267,-0.295 0.604,-0.466 0.999,-0.513 0.15,-0.018 0.303,-0.013 0.455,-0.015 0.26,-0.004 0.52,-0.006 0.78,-0.008 0.589,-0.005 1.116,-0.422 1.267,-1.002 0.201,-0.768 -0.301,-1.542 -1.084,-1.669 -0.083,-0.014 -0.167,-0.019 -0.251,-0.019 -1.247,-0.002 -2.495,-10e-4 -3.743,-10e-4 z"
       id="path34"
       inkscape:connector-curvature="0"
       style="fill:#cdcccc;fill-rule:evenodd" />
    <path
       d="m 287.1071,180.0586 h 3.843 c 0.792,0 1.471,0.565 1.615,1.344 0.163,0.869 -0.423,1.729 -1.29,1.902 -0.201,0.04 -0.404,0.033 -0.608,0.035 -0.244,0.002 -0.487,0 -0.732,0.004 -0.668,0.01 -1.209,0.485 -1.312,1.136 -0.109,0.693 0.328,1.345 1.008,1.509 0.097,0.024 0.198,0.035 0.297,0.035 1.268,0.002 2.534,0.001 3.802,0.001 h 0.05 c 0.003,-0.011 0.006,-0.02 0.006,-0.029 -0.003,-0.366 -0.007,-0.731 -0.007,-1.095 0,-0.057 -0.023,-0.062 -0.068,-0.062 -1.233,10e-4 -2.467,10e-4 -3.7,10e-4 -0.029,0 -0.058,0 -0.087,-0.004 -0.071,-0.009 -0.122,-0.066 -0.126,-0.138 -0.005,-0.099 0.055,-0.164 0.154,-0.164 0.173,0 0.346,0.005 0.519,0.004 0.25,-0.001 0.502,0.01 0.751,-0.012 0.564,-0.05 1.07,-0.259 1.51,-0.616 0.524,-0.425 0.867,-0.969 1,-1.63 0.177,-0.868 -0.01,-1.66 -0.558,-2.355 -0.428,-0.544 -0.99,-0.88 -1.666,-1.023 -0.191,-0.04 -0.383,-0.055 -0.577,-0.055 h -3.754 c -0.07,0 -0.07,0 -0.07,0.071 z m 13.7759,7.4692 v -1.193 c -0.023,-0.002 -0.047,-0.004 -0.07,-0.004 h -4.03 c -0.589,0 -1.093,-0.419 -1.2,-0.998 -0.012,-0.07 -0.018,-0.141 -0.018,-0.213 -10e-4,-1.281 -10e-4,-2.563 0,-3.844 0,-0.622 0.442,-1.13 1.055,-1.214 0.062,-0.009 0.125,-0.011 0.188,-0.011 1.33,-0.001 2.66,0 3.991,0 0.071,0 0.071,-0.001 0.071,-0.071 0,-0.354 -10e-4,-0.708 10e-4,-1.061 0.001,-0.05 -0.012,-0.064 -0.063,-0.064 -1.353,10e-4 -2.705,-0.002 -4.058,0.002 -1.124,0.003 -2.108,0.82 -2.33,1.924 -0.036,0.171 -0.051,0.342 -0.051,0.515 10e-4,1.262 10e-4,2.525 0,3.788 0,0.623 0.2,1.173 0.614,1.638 0.363,0.408 0.816,0.665 1.353,0.764 0.156,0.028 0.315,0.04 0.472,0.04 1.336,0.003 2.67,0.002 4.006,0.002 z m 10.542,-5.856 c 0.248,-10e-4 0.557,0 0.805,0 h 0.067 c -0.144,0.433 -0.285,0.853 -0.426,1.274 h -0.013 c -0.007,-0.017 -0.015,-0.034 -0.021,-0.051 -0.131,-0.388 -0.263,-0.776 -0.392,-1.164 z m -0.074,-0.217 c -0.263,-0.774 -0.56,-1.648 -0.824,-2.422 -0.015,-0.045 -0.033,-0.09 -0.046,-0.137 -0.009,-0.031 -0.024,-0.041 -0.055,-0.04 -0.058,0.001 -0.116,0 -0.174,0 h -1.121 c -0.021,0 -0.041,0.002 -0.068,0.003 0.007,0.025 0.012,0.044 0.019,0.064 0.419,1.239 0.839,2.479 1.26,3.719 0.383,1.133 0.766,2.266 1.15,3.399 0.091,0.266 0.387,0.364 0.602,0.202 0.068,-0.051 0.113,-0.12 0.14,-0.2 0.326,-0.97 0.653,-1.94 0.979,-2.91 0.308,-0.913 0.615,-1.825 0.922,-2.737 0.006,-0.015 0.011,-0.031 0.018,-0.052 h -2.805 c 0,0.351 0.003,0.763 0.003,1.111 m -3.6067,3.3845 h -3.342 c -0.028,0 -0.055,0 -0.083,-0.002 -0.168,-0.013 -0.271,-0.124 -0.271,-0.292 v -2.711 c 0,-0.15 0.122,-0.276 0.277,-0.281 0.139,-0.003 0.278,-0.002 0.417,-0.003 0.087,-0.001 0.174,-0.002 0.262,-0.007 0.043,-0.003 0.055,0.014 0.054,0.056 -0.003,0.064 -0.003,0.129 0,0.194 0.001,0.04 -0.014,0.052 -0.054,0.052 -0.2,-0.001 -0.401,-0.001 -0.601,0 -0.065,0 -0.066,0 -0.066,0.062 v 1.091 c 0,0.014 0.002,0.028 0.003,0.046 h 1.91 c 0,-0.021 0.001,-0.04 0.002,-0.06 v -2.574 c 0,-0.064 -10e-4,-0.064 -0.062,-0.064 -0.798,0 -1.594,-0.001 -2.391,0 -0.453,0 -0.825,0.29 -0.926,0.721 -0.014,0.062 -0.022,0.128 -0.022,0.192 -10e-4,1.288 -0.002,2.576 -10e-4,3.864 10e-4,0.449 0.347,0.842 0.793,0.901 0.056,0.007 0.113,0.01 0.169,0.01 1.287,0.001 2.574,0.001 3.86,0.001 0.081,0 0.072,0.007 0.072,-0.073 z"
       id="path36"
       inkscape:connector-curvature="0"
       style="fill:#cdcccc;fill-rule:evenodd" />
    <path
       d="m 297.0666,184.5395 h 2.935 c 0.003,-0.025 0.006,-0.047 0.006,-0.069 0.002,-0.334 0.004,-0.669 0.006,-1.004 v -0.004 c 0,-0.12 0,-0.12 -0.118,-0.12 h -4.023 v 0.06 c 0,0.568 -10e-4,1.135 0,1.702 0.001,0.454 0.295,0.819 0.738,0.913 0.066,0.014 0.138,0.017 0.206,0.017 1.336,0.001 2.67,0.001 4.006,0.001 h 0.063 v -1.13 c 0,-0.066 0,-0.066 -0.066,-0.066 h -3.414 c -0.035,0 -0.071,-0.002 -0.107,-0.005 -0.139,-0.013 -0.247,-0.146 -0.232,-0.295 m -0.002,-2.6943 c -0.009,-0.177 0.106,-0.295 0.288,-0.301 0.015,-10e-4 0.029,-10e-4 0.044,-10e-4 h 3.404 c 0.068,0 0.069,0 0.069,-0.067 v -1.057 c 0,-0.063 -10e-4,-0.063 -0.064,-0.063 h -4.014 c -0.468,0 -0.851,0.334 -0.914,0.798 -0.006,0.043 -0.005,0.087 -0.005,0.13 -10e-4,0.562 -10e-4,1.125 -10e-4,1.687 0,0.066 0,0.066 0.066,0.066 h 4.01 c 0.07,0 0.068,0 0.067,-0.069 -0.002,-0.232 -0.002,-0.465 -0.004,-0.697 0,-0.12 -0.002,-0.239 -0.003,-0.359 -0.001,-0.067 -0.001,-0.067 -0.067,-0.067 z"
       id="path38"
       inkscape:connector-curvature="0"
       style="fill:#cdcccc;fill-rule:evenodd" />
    <path
       d="m 108.8273,156.8784 c 0,-1.105 -0.896,-2.003 -2.003,-2.003 -1.106,0 -2.003,0.898 -2.003,2.003 0,1.106 0.897,2.003 2.003,2.003 1.107,0 2.003,-0.897 2.003,-2.003"
       id="path40"
       inkscape:connector-curvature="0"
       style="fill:#c3262e;fill-rule:evenodd" />
    <path
       d="m 17.2487,88.8847 c 1.945,-9.895 9.668,-24.24 23.447,-14.502 13.778,9.737 28.698,27.276 29.422,51.45 0.724,24.174 -9.843,38.47 -29.007,38.47 -19.166,0 -27.867,-17.302 -27.867,-27.506 0,-10.203 2.417,-39.831 4.005,-47.912"
       id="path42"
       inkscape:connector-curvature="0"
       style="fill:#3d3d3d" />
    <path
       d="m 64.9718,136.7968 c 0,-13.178 -10.683,-23.861 -23.861,-23.861 -13.179,0 -23.862,10.683 -23.862,23.861 0,13.179 10.683,23.862 23.862,23.862 13.178,0 23.861,-10.683 23.861,-23.862"
       id="path44"
       inkscape:connector-curvature="0"
       style="fill:#262727" />
    <path
       d="m 49.6398,127.7343 v 29.178 l -0.637,0.266 c -0.17,0.071 -4.205,1.738 -7.892,1.738 -3.688,0 -7.723,-1.667 -7.893,-1.738 l -0.637,-0.266 v -29.178"
       id="path46"
       inkscape:connector-curvature="0"
       style="fill:#181819" />
    <path
       d="m 32.5807,128.2675 v -11.585 l 0.637,-0.266 c 0.17,-0.071 4.205,-1.738 7.893,-1.738 3.687,0 7.722,1.667 7.892,1.738 l 0.637,0.266 v 11.585 m -17.059,17.0596 h -11.586 l -0.266,-0.638 c -0.071,-0.17 -1.737,-4.205 -1.737,-7.892 0,-3.688 1.666,-7.722 1.737,-7.893 l 0.266,-0.637 h 11.586"
       id="path48"
       inkscape:connector-curvature="0"
       style="fill:#181819" />
    <path
       d="m 31.8903,128.2675 h 29.335 l 0.266,0.637 c 0.071,0.171 1.737,4.205 1.737,7.892 0,3.688 -1.666,7.723 -1.737,7.893 l -0.266,0.638 h -29.335"
       id="path50"
       inkscape:connector-curvature="0"
       style="fill:#181819" />
    <path
       d="m 41.1105,157.8803 c -3.523,0 -7.494,-1.658 -7.494,-1.658 v -10.566 l 7.494,-8.012 7.493,8.012 v 10.566 c 0,0 -3.971,1.658 -7.493,1.658 m 0,-42.1655 c 3.522,0 7.493,1.658 7.493,1.658 v 10.567 l -7.493,8.011 -7.494,-8.011 v -10.567 c 0,0 3.971,-1.658 7.494,-1.658 m 21.082,21.082 c 0,3.523 -1.657,7.494 -1.657,7.494 h -11.396 l -7.182,-7.494 7.182,-7.492 h 11.396 c 0,0 1.657,3.971 1.657,7.492 m -42.165,0 c 0,-3.521 1.658,-7.492 1.658,-7.492 h 11.396 l 7.182,7.492 -7.182,7.494 h -11.396 c 0,0 -1.658,-3.971 -1.658,-7.494"
       id="path52"
       inkscape:connector-curvature="0"
       style="fill:#262727" />
    <path
       d="m 345.2814,122.2578 c -18.851,-18.713 -29.216,-38.834 -23.152,-44.943 6.065,-6.11 26.262,4.106 45.115,22.818 11.025,10.944 19.144,22.369 22.775,31.191 -0.449,5.513 -0.936,10.562 -1.418,14.94 -7.615,3.167 -26.033,-6.846 -43.32,-24.006"
       id="path54"
       inkscape:connector-curvature="0"
       style="fill:#3d3d3d" />
    <path
       d="m 353.7843,120.3789 c 0,-6.479 -5.251,-11.729 -11.729,-11.729 -6.478,0 -11.728,5.25 -11.728,11.729 0,6.477 5.25,11.729 11.728,11.729 6.478,0 11.729,-5.252 11.729,-11.729 m 27.4532,22.998 c 0,-6.479 -5.251,-11.73 -11.73,-11.73 -6.477,0 -11.728,5.251 -11.728,11.73 0,6.478 5.251,11.729 11.728,11.729 6.479,0 11.73,-5.251 11.73,-11.729"
       id="path56"
       inkscape:connector-curvature="0"
       style="fill:#2f2f2f" />
  </g>
  <g
     clip-path="url(#b)"
     transform="matrix(0.86019616,0,0,-0.86019616,380.88004,186.42343)"
     id="g78">
    <path
       d="m 138.3711,137.3135 c 0,0.821 -0.666,1.486 -1.486,1.486 H 1.5391 c -0.822,0 -1.487,-0.665 -1.487,-1.486 V 1.4865 c 0,-0.821 0.665,-1.487 1.487,-1.487 h 135.346 c 0.82,0 1.486,0.666 1.486,1.487 z"
       id="path60"
       inkscape:connector-curvature="0"
       style="fill:#3a3a3a" />
    <path
       d="m 69.1592,114.9473 h 40.938 c 10.947,0 19.821,-8.874 19.821,-19.82 v -14.399 c 0,0 8.133,-1.092 8.4,3.998 0,-4.019 -7.517,-3.648 -7.517,-3.008 v 21.1 c 0,10.947 -8.873,19.82 -19.821,19.82 h -83.642 c -10.948,0 -19.823,-8.873 -19.823,-19.82 v -21.1 c 0,-0.64 -7.515,-1.011 -7.515,3.008 0.267,-5.09 8.399,-3.998 8.399,-3.998 v 14.399 c 0,10.946 8.874,19.82 19.822,19.82 z"
       id="path62"
       inkscape:connector-curvature="0"
       style="fill:#333333" />
    <path
       d="m 69.1582,29.0176 h 54.301 c 0,0 4.021,-0.086 4.021,3.322 v 65.198 c 0,8.211 -6.656,14.866 -14.866,14.866 h -86.858 c -8.21,0 -14.866,-6.655 -14.866,-14.866 v -65.198 c 0,-3.408 4.02,-3.322 4.02,-3.322 h 54.301 z"
       id="path64"
       inkscape:connector-curvature="0"
       style="fill:#282828" />
    <path
       d="m 49.0273,6.4336 c -3.958,0 -7.168,3.21 -7.168,7.168 0,3.959 3.21,7.167 7.168,7.167 h 40.25 c 3.959,0 7.168,-3.208 7.168,-7.167 0,-3.958 -3.209,-7.168 -7.168,-7.168 z"
       id="path66"
       inkscape:connector-curvature="0"
       style="fill:#333333" />
    <path
       stroke-miterlimit="10"
       d="m 36.3242,120.1826 h 65.992 m -65.992,-3.4091 h 65.992"
       id="path68"
       inkscape:connector-curvature="0"
       style="fill:none;stroke:#404140;stroke-width:1.398;stroke-linecap:round;stroke-miterlimit:10" />
    <path
       d="m 76.543,19.2334 v -1.44 c -0.029,-0.002 -0.057,-0.004 -0.084,-0.004 -1.565,0 -3.131,-0.004 -4.697,0.002 -0.672,0.002 -1.276,-0.466 -1.432,-1.115 -0.027,-0.111 -0.043,-0.227 -0.044,-0.34 -0.003,-1.557 -0.003,-3.112 -0.001,-4.668 0,-0.709 0.537,-1.328 1.24,-1.434 0.082,-0.014 0.167,-0.021 0.25,-0.021 h 3.247 c 0.085,0 0.085,0 0.085,0.085 v 3.797 c 0,0.09 0,0.09 -0.087,0.09 h -2.504 c -0.078,0 -0.078,0 -0.078,0.074 v 1.366 h 4.109 v -5.83 c 0.007,-0.001 0.014,-0.003 0.019,-0.004 0.009,0.02 0.02,0.039 0.026,0.059 0.279,0.818 0.556,1.636 0.835,2.452 0.352,1.038 0.707,2.077 1.06,3.116 0.285,0.838 0.564,1.677 0.854,2.513 0.223,0.645 0.673,1.084 1.306,1.315 0.884,0.318 1.708,0.183 2.437,-0.422 0.317,-0.264 0.514,-0.608 0.645,-0.998 0.576,-1.725 1.159,-3.447 1.739,-5.17 0.429,-1.273 0.858,-2.545 1.287,-3.816 0.006,-0.02 0.011,-0.04 0.018,-0.067 -0.026,-0.002 -0.046,-0.004 -0.066,-0.004 -1.916,0 -3.83,0 -5.745,-0.002 -0.058,0 -0.071,0.016 -0.071,0.073 0.002,0.434 0.002,0.87 0.002,1.304 v 0.069 h 3.881 c -0.022,0.072 -0.042,0.132 -0.063,0.192 -0.693,2.049 -1.387,4.097 -2.081,6.145 -0.118,0.346 -0.235,0.694 -0.353,1.04 -0.107,0.315 -0.424,0.537 -0.763,0.535 -0.35,-0.002 -0.662,-0.22 -0.77,-0.535 -0.418,-1.233 -0.836,-2.466 -1.254,-3.698 -0.519,-1.534 -1.041,-3.068 -1.56,-4.603 -0.053,-0.151 -0.108,-0.3 -0.154,-0.452 -0.016,-0.056 -0.044,-0.067 -0.096,-0.067 -0.41,0.002 -0.823,10e-4 -1.234,10e-4 -1.56,0 -3.12,0.005 -4.679,-10e-4 -1.249,-0.005 -2.378,0.788 -2.785,1.984 -0.099,0.293 -0.151,0.593 -0.151,0.901 -0.003,1.563 -0.003,3.128 -0.001,4.691 0.002,1.357 0.987,2.56 2.316,2.824 0.198,0.039 0.402,0.06 0.602,0.06 1.57,0.005 3.141,0.003 4.71,0.003 z M 51.6543,10.5703 v 1.443 h 0.083 c 1.497,0 2.995,0 4.493,0.001 0.032,0 0.067,0.003 0.098,0.011 0.08,0.022 0.128,0.092 0.125,0.182 -0.004,0.081 -0.06,0.147 -0.143,0.162 -0.032,0.006 -0.066,0.008 -0.098,0.008 -0.417,10e-4 -0.833,-0.006 -1.252,0.004 -0.759,0.017 -1.437,0.272 -2.029,0.748 -0.664,0.533 -1.08,1.222 -1.226,2.061 -0.178,1.03 0.06,1.968 0.719,2.784 0.512,0.635 1.179,1.034 1.981,1.192 0.214,0.043 0.437,0.064 0.655,0.064 1.521,0.006 3.041,0.003 4.563,0.003 h 0.076 v -1.45 h -0.083 c -1.511,0 -3.023,0.002 -4.532,0 -0.931,0 -1.729,-0.626 -1.93,-1.533 -0.151,-0.674 0.014,-1.276 0.477,-1.787 0.322,-0.358 0.728,-0.563 1.205,-0.62 0.181,-0.021 0.365,-0.015 0.548,-0.017 0.314,-0.006 0.627,-0.007 0.941,-0.01 0.71,-0.007 1.347,-0.51 1.529,-1.209 0.242,-0.926 -0.363,-1.859 -1.307,-2.014 -0.1,-0.015 -0.202,-0.023 -0.303,-0.023 -1.506,-0.002 -3.011,0 -4.517,0 z"
       id="path70"
       inkscape:connector-curvature="0"
       style="fill:#3a3a3a;fill-rule:evenodd" />
    <path
       d="m 51.6504,10.2227 h 4.637 c 0.955,0 1.774,0.682 1.949,1.622 0.195,1.047 -0.511,2.085 -1.557,2.292 -0.242,0.049 -0.488,0.041 -0.734,0.043 -0.293,0.004 -0.588,0.002 -0.883,0.006 -0.807,0.013 -1.459,0.586 -1.583,1.37 -0.131,0.837 0.396,1.623 1.216,1.821 0.117,0.028 0.24,0.041 0.359,0.041 1.53,0.004 3.057,0.002 4.586,0.002 h 0.061 c 0.003,-0.013 0.008,-0.025 0.008,-0.035 -0.004,-0.44 -0.01,-0.881 -0.01,-1.322 0,-0.068 -0.028,-0.074 -0.082,-0.074 -1.488,0.002 -2.975,0.002 -4.463,0.002 -0.035,0 -0.07,0 -0.105,-0.005 -0.086,-0.011 -0.147,-0.08 -0.152,-0.167 -0.005,-0.119 0.066,-0.198 0.186,-0.198 0.209,0 0.417,0.006 0.626,0.005 0.302,-10e-4 0.605,0.013 0.906,-0.014 0.68,-0.059 1.291,-0.312 1.822,-0.743 0.632,-0.513 1.045,-1.169 1.207,-1.968 0.211,-1.045 -0.014,-2 -0.675,-2.84 -0.515,-0.656 -1.193,-1.061 -2.009,-1.234 -0.23,-0.047 -0.462,-0.066 -0.697,-0.066 -1.509,-10e-4 -3.018,-10e-4 -4.527,-10e-4 -0.086,0 -0.086,0 -0.086,0.087 z m 16.6191,9.0107 v -1.44 c -0.028,-10e-4 -0.057,-0.004 -0.084,-0.004 h -4.861 c -0.711,0 -1.321,-0.505 -1.448,-1.205 -0.015,-0.083 -0.023,-0.17 -0.023,-0.254 v -4.64 c 0,-0.749 0.534,-1.362 1.273,-1.464 0.075,-0.01 0.152,-0.013 0.227,-0.013 h 4.814 c 0.086,0 0.086,0 0.086,-0.086 0,-0.426 -0.001,-0.853 0.002,-1.281 0,-0.058 -0.015,-0.076 -0.076,-0.076 -1.632,0.002 -3.264,-0.001 -4.895,0.002 -1.357,0.004 -2.544,0.989 -2.812,2.321 -0.042,0.206 -0.06,0.413 -0.06,0.622 0,1.523 0.002,3.046 0,4.569 -0.001,0.751 0.24,1.415 0.74,1.977 0.437,0.493 0.984,0.801 1.633,0.92 0.187,0.035 0.379,0.049 0.569,0.049 1.61,0.004 3.22,0.003 4.831,0.003 z M 80.9863,12.168 c 0.301,-10e-4 0.672,0 0.973,0 h 0.08 c -0.175,0.523 -0.345,1.03 -0.515,1.538 h -0.017 c -0.007,-0.02 -0.017,-0.042 -0.023,-0.061 -0.158,-0.469 -0.316,-0.936 -0.475,-1.405 z m -0.09,-0.26 c -0.316,-0.935 -0.676,-1.988 -0.992,-2.922 -0.02,-0.055 -0.04,-0.11 -0.057,-0.166 -0.009,-0.037 -0.029,-0.049 -0.066,-0.048 -0.069,0.002 -0.14,0 -0.21,0 -0.45,0 -0.901,0 -1.352,10e-4 -0.024,0 -0.049,10e-4 -0.083,0.002 0.009,0.031 0.016,0.054 0.024,0.077 0.506,1.496 1.013,2.991 1.519,4.486 0.462,1.367 0.924,2.734 1.388,4.102 0.108,0.321 0.468,0.439 0.727,0.243 0.082,-0.062 0.135,-0.145 0.169,-0.242 0.392,-1.169 0.787,-2.339 1.181,-3.511 0.371,-1.1 0.74,-2.199 1.112,-3.301 0.006,-0.018 0.013,-0.035 0.021,-0.063 h -3.384 c 0,0.424 0.003,0.921 0.003,1.342 m -4.3494,4.0823 h -4.032 c -0.034,0 -0.067,0 -0.101,-0.003 -0.201,-0.017 -0.326,-0.149 -0.326,-0.352 v -3.27 c 0,-0.182 0.147,-0.333 0.334,-0.34 0.167,-0.004 0.336,-0.002 0.502,-0.004 0.106,0 0.212,-0.003 0.316,-0.009 0.053,-10e-4 0.069,0.019 0.067,0.07 -0.004,0.076 -0.004,0.155 0,0.232 0.002,0.049 -0.018,0.065 -0.065,0.065 -0.242,-0.002 -0.484,-0.002 -0.725,-0.001 -0.079,0 -0.079,0 -0.079,0.075 v 1.316 c 0,0.017 0.002,0.033 0.002,0.055 h 2.303 c 10e-4,-0.025 0.003,-0.049 0.003,-0.071 v -3.107 c 0,-0.076 0,-0.076 -0.074,-0.076 -0.962,0 -1.924,-0.002 -2.885,0 -0.546,0 -0.995,0.35 -1.115,0.869 -0.018,0.076 -0.028,0.155 -0.028,0.233 -0.001,1.552 -0.001,3.107 -0.001,4.66 0.001,0.543 0.42,1.015 0.957,1.088 0.067,0.007 0.136,0.011 0.203,0.011 h 4.657 c 0.097,0 0.087,0.01 0.087,-0.087 z"
       id="path72"
       inkscape:connector-curvature="0"
       style="fill:#3a3a3a;fill-rule:evenodd" />
    <path
       d="m 63.666,15.6279 h 3.541 c 0.002,-0.03 0.008,-0.056 0.008,-0.083 0.002,-0.404 0.004,-0.807 0.006,-1.211 v -0.006 c 0,-0.142 0,-0.142 -0.142,-0.142 h -4.854 v 0.072 c 0,0.684 0,1.368 10e-4,2.053 0,0.547 0.356,0.987 0.889,1.1 0.08,0.017 0.166,0.021 0.25,0.021 h 4.908 v -1.362 c 0,-0.08 0,-0.08 -0.08,-0.08 h -4.119 c -0.042,0 -0.085,-0.002 -0.128,-0.005 -0.169,-0.017 -0.298,-0.176 -0.28,-0.357 m -0.0019,-3.25 c -0.012,-0.214 0.129,-0.355 0.348,-0.363 0.017,-0.001 0.035,-0.001 0.052,-0.001 h 4.106 c 0.084,0 0.084,0 0.084,-0.08 v -1.276 c 0,-0.076 0,-0.076 -0.077,-0.076 h -4.843 c -0.564,0 -1.025,0.403 -1.102,0.962 -0.007,0.052 -0.006,0.105 -0.006,0.157 -0.001,0.679 -0.001,1.358 -0.001,2.035 0,0.081 0,0.081 0.08,0.081 h 4.837 c 0.085,0 0.081,0 0.081,-0.084 -0.003,-0.28 -0.003,-0.561 -0.004,-0.841 -10e-4,-0.145 -0.004,-0.289 -0.004,-0.433 -0.002,-0.081 -0.002,-0.081 -0.08,-0.081 z"
       id="path74"
       inkscape:connector-curvature="0"
       style="fill:#3a3a3a;fill-rule:evenodd" />
    <path
       d="m 69.3203,122.543 h 41.822 c 10.947,0 19.821,-8.875 19.821,-19.822 v -21.1 c 0,-0.64 7.517,-1.012 7.517,3.01 v 52.683 c 0,0.82 -0.666,1.486 -1.486,1.486 H 1.6473 c -0.821,0 -1.486,-0.666 -1.486,-1.486 V 84.631 c 0,-4.022 7.516,-3.65 7.516,-3.01 v 21.1 c 0,10.947 8.874,19.822 19.822,19.822 z"
       id="path76"
       inkscape:connector-curvature="0"
       style="fill:#404140" />
  </g>
</svg>
