<?xml version="1.0" encoding="UTF-8" standalone="no"?>
<svg
   xmlns:dc="http://purl.org/dc/elements/1.1/"
   xmlns:cc="http://creativecommons.org/ns#"
   xmlns:rdf="http://www.w3.org/1999/02/22-rdf-syntax-ns#"
   xmlns:svg="http://www.w3.org/2000/svg"
   xmlns="http://www.w3.org/2000/svg"
   xmlns:sodipodi="http://sodipodi.sourceforge.net/DTD/sodipodi-0.dtd"
   xmlns:inkscape="http://www.inkscape.org/namespaces/inkscape"
   width="455.97375"
   height="117.58375"
   version="1.1"
   id="svg47"
   sodipodi:docname="logo2.svg"
   inkscape:version="0.92.4 5da689c313, 2019-01-14">
  <metadata
     id="metadata51">
    <rdf:RDF>
      <cc:Work
         rdf:about="">
        <dc:format>image/svg+xml</dc:format>
        <dc:type
           rdf:resource="http://purl.org/dc/dcmitype/StillImage" />
      </cc:Work>
    </rdf:RDF>
  </metadata>
  <sodipodi:namedview
     pagecolor="#ffffff"
     bordercolor="#666666"
     borderopacity="1"
     objecttolerance="10"
     gridtolerance="10"
     guidetolerance="10"
     inkscape:pageopacity="0"
     inkscape:pageshadow="2"
     inkscape:window-width="640"
     inkscape:window-height="480"
     id="namedview49"
     showgrid="false"
     inkscape:zoom="0.59433245"
     inkscape:cx="227.98688"
     inkscape:cy="58.792065"
     inkscape:window-x="0"
     inkscape:window-y="0"
     inkscape:window-maximized="0"
     inkscape:current-layer="svg47">
    <inkscape:grid
       type="xygrid"
       id="grid858"
       originx="0"
       originy="6.6650391e-07" />
  </sodipodi:namedview>
  <defs
     id="defs5">
    <clipPath
       id="a">
      <path
         d="M 0,94.067 H 364.779 V 0 H 0 Z"
         id="path2"
         inkscape:connector-curvature="0" />
    </clipPath>
  </defs>
  <g
     clip-path="url(#a)"
     transform="matrix(1.25,0,0,-1.25,0,117.58375)"
     id="g45">
    <path
       d="m 225.4179,93.253 v -6.528 c -0.139,-0.006 -0.26,-0.016 -0.381,-0.016 -7.096,0 -14.189,-0.018 -21.286,0.008 -3.046,0.011 -5.782,-2.112 -6.489,-5.049 -0.123,-0.502 -0.194,-1.029 -0.198,-1.544 -0.01,-7.05 -0.01,-14.1 -0.005,-21.15 0.004,-3.211 2.439,-6.021 5.619,-6.499 0.377,-0.057 0.758,-0.091 1.136,-0.092 4.903,-0.006 9.805,-0.004 14.711,-0.004 0.382,0 0.382,0 0.382,0.392 v 17.204 c 0,0.402 0,0.402 -0.395,0.402 h -11.346 c -0.352,0 -0.353,0.001 -0.353,0.344 v 6.183 h 18.622 v -26.42 c 0.028,-0.004 0.057,-0.01 0.084,-0.015 0.042,0.09 0.088,0.176 0.12,0.269 1.259,3.703 2.519,7.408 3.779,11.112 1.602,4.703 3.205,9.407 4.805,14.114 1.289,3.797 2.558,7.602 3.868,11.391 1.011,2.924 3.048,4.913 5.919,5.952 4.011,1.447 7.738,0.837 11.045,-1.906 1.435,-1.193 2.324,-2.755 2.916,-4.523 2.611,-7.815 5.255,-15.621 7.885,-23.429 1.941,-5.762 3.886,-11.525 5.83,-17.287 0.027,-0.089 0.05,-0.18 0.086,-0.307 -0.121,-0.007 -0.214,-0.019 -0.307,-0.019 -8.678,-10e-4 -17.353,0.001 -26.027,-0.006 -0.262,0 -0.326,0.077 -0.324,0.329 0.011,1.969 0.007,3.942 0.007,5.911 v 0.307 h 17.592 c -0.106,0.33 -0.193,0.604 -0.286,0.875 -3.146,9.282 -6.288,18.565 -9.434,27.847 -0.533,1.568 -1.063,3.139 -1.595,4.707 -0.486,1.426 -1.926,2.431 -3.463,2.424 -1.581,-0.007 -3,-0.995 -3.487,-2.426 -1.893,-5.584 -3.786,-11.169 -5.679,-16.753 -2.355,-6.95 -4.719,-13.902 -7.074,-20.852 -0.232,-0.685 -0.482,-1.363 -0.693,-2.054 -0.074,-0.247 -0.199,-0.3 -0.436,-0.3 -1.862,0.008 -3.727,0.005 -5.589,0.005 -7.069,0 -14.137,0.02 -21.204,-0.007 -5.662,-0.02 -10.771,3.577 -12.617,8.996 -0.449,1.321 -0.683,2.684 -0.683,4.077 -0.011,7.085 -0.011,14.171 -0.004,21.258 0.006,6.143 4.472,11.598 10.49,12.793 0.897,0.177 1.823,0.27 2.732,0.275 7.112,0.02 14.225,0.011 21.338,0.011 z M 112.6445,53.9966 v 6.545 h 0.375 c 6.784,0 13.568,0 20.355,0.002 0.148,0 0.303,0.009 0.444,0.048 0.365,0.098 0.58,0.42 0.564,0.825 -0.015,0.368 -0.267,0.667 -0.641,0.735 -0.146,0.026 -0.298,0.036 -0.447,0.036 -1.889,0.004 -3.781,-0.03 -5.673,0.017 -3.44,0.081 -6.51,1.235 -9.192,3.386 -3.008,2.419 -4.898,5.545 -5.555,9.346 -0.806,4.668 0.27,8.912 3.253,12.61 2.326,2.882 5.347,4.682 8.978,5.401 0.971,0.194 1.979,0.289 2.969,0.293 6.892,0.025 13.783,0.013 20.675,0.013 h 0.349 v -6.567 h -0.378 c -6.845,0 -13.694,0.002 -20.54,-0.003 -4.216,-0.002 -7.826,-2.837 -8.743,-6.949 -0.684,-3.049 0.062,-5.777 2.16,-8.1 1.458,-1.615 3.301,-2.549 5.461,-2.804 0.821,-0.098 1.654,-0.069 2.484,-0.081 1.422,-0.021 2.845,-0.031 4.265,-0.043 3.219,-0.031 6.101,-2.308 6.928,-5.473 1.097,-4.199 -1.646,-8.431 -5.926,-9.128 -0.453,-0.075 -0.913,-0.105 -1.371,-0.106 -6.819,-0.006 -13.642,-0.003 -20.463,-0.003 z"
       id="path7"
       inkscape:connector-curvature="0"
       style="fill:#000099;fill-rule:evenodd" />
    <path
       d="m 112.6289,52.4248 h 21.004 c 4.328,0 8.041,3.089 8.832,7.348 0.885,4.746 -2.314,9.447 -7.051,10.39 -1.101,0.22 -2.213,0.183 -3.325,0.195 -1.333,0.011 -2.665,0.001 -4.001,0.022 -3.654,0.057 -6.611,2.653 -7.174,6.212 -0.595,3.789 1.791,7.351 5.51,8.248 0.529,0.127 1.084,0.189 1.623,0.189 6.932,0.014 13.853,0.009 20.781,0.009 h 0.276 c 0.012,-0.063 0.033,-0.112 0.033,-0.162 -0.016,-1.996 -0.038,-3.992 -0.038,-5.987 0,-0.309 -0.126,-0.337 -0.374,-0.337 -6.743,0.006 -13.482,0.006 -20.223,0.005 -0.16,0 -0.32,-0.003 -0.477,-0.021 -0.39,-0.048 -0.666,-0.36 -0.687,-0.754 -0.025,-0.539 0.297,-0.898 0.84,-0.898 0.947,0 1.891,0.028 2.836,0.024 1.369,-0.007 2.743,0.054 4.105,-0.065 3.086,-0.271 5.849,-1.414 8.258,-3.368 2.863,-2.325 4.735,-5.296 5.467,-8.912 0.963,-4.741 -0.059,-9.069 -3.055,-12.873 -2.338,-2.971 -5.408,-4.807 -9.105,-5.59 -1.04,-0.218 -2.096,-0.301 -3.155,-0.301 -6.841,-10e-4 -13.679,-10e-4 -20.517,-10e-4 -0.383,0 -0.383,0 -0.383,0.392 z M 187.9267,93.253 V 86.73 c -0.128,-0.008 -0.254,-0.021 -0.382,-0.021 h -22.027 c -3.223,0 -5.979,-2.29 -6.561,-5.457 -0.066,-0.379 -0.097,-0.772 -0.097,-1.159 -0.004,-7.006 -0.004,-14.011 -0.002,-21.018 0.002,-3.395 2.418,-6.172 5.765,-6.635 0.34,-0.045 0.687,-0.057 1.031,-0.057 7.27,-0.005 14.543,-0.004 21.813,-0.004 0.392,0 0.392,-10e-4 0.392,-0.385 0,-1.935 -0.007,-3.868 0.005,-5.804 0.002,-0.265 -0.072,-0.345 -0.344,-0.345 -7.395,0.006 -14.787,-0.01 -22.184,0.009 -6.144,0.017 -11.525,4.483 -12.74,10.521 -0.187,0.93 -0.271,1.866 -0.271,2.812 0.001,6.899 0.005,13.801 0,20.702 -0.002,3.409 1.087,6.412 3.352,8.959 1.982,2.231 4.462,3.634 7.399,4.171 0.847,0.155 1.719,0.223 2.579,0.223 7.3,0.017 14.595,0.011 21.894,0.011 z m 57.6241,-32.0078 c 1.357,-0.011 3.041,-0.006 4.401,-0.006 h 0.369 c -0.793,2.369 -1.563,4.667 -2.336,6.967 h -0.071 c -0.035,-0.093 -0.079,-0.185 -0.109,-0.28 -0.717,-2.12 -1.436,-4.238 -2.149,-6.359 z m -0.408,-1.188 c -1.436,-4.231 -3.061,-9.007 -4.499,-13.237 -0.086,-0.25 -0.181,-0.497 -0.255,-0.751 -0.046,-0.167 -0.129,-0.226 -0.3,-0.221 -0.316,0.007 -0.636,0.002 -0.953,0.002 h -6.122 c -0.113,0 -0.227,0.01 -0.377,0.018 0.039,0.134 0.068,0.241 0.103,0.346 2.295,6.776 4.59,13.552 6.887,20.328 2.094,6.195 4.19,12.389 6.287,18.582 0.496,1.457 2.12,1.991 3.295,1.102 0.371,-0.279 0.612,-0.653 0.761,-1.09 1.782,-5.305 3.569,-10.607 5.356,-15.911 1.68,-4.986 3.359,-9.971 5.039,-14.958 0.03,-0.082 0.056,-0.165 0.096,-0.282 h -15.333 c 0,1.915 0.015,4.169 0.015,6.072 m -19.7102,18.4995 h -18.271 c -0.152,0 -0.3,10e-4 -0.453,-0.013 -0.916,-0.072 -1.482,-0.678 -1.482,-1.597 v -14.815 c 0,-0.823 0.668,-1.509 1.516,-1.536 0.757,-0.021 1.519,-0.011 2.277,-0.02 0.48,-0.005 0.956,-0.012 1.431,-0.038 0.239,-0.013 0.305,0.082 0.299,0.307 -0.015,0.353 -0.015,0.707 0,1.061 0.006,0.221 -0.078,0.287 -0.295,0.287 -1.093,-0.009 -2.189,-0.004 -3.287,-0.004 -0.353,0 -0.355,0.002 -0.355,0.341 v 5.963 c 0,0.078 0.007,0.155 0.011,0.249 h 10.438 c 0.004,-0.116 0.011,-0.219 0.016,-0.323 v -14.073 c 0,-0.349 -0.005,-0.349 -0.344,-0.349 -4.358,0 -8.713,-0.004 -13.065,0 -2.478,0.002 -4.513,1.588 -5.059,3.943 -0.077,0.339 -0.126,0.697 -0.126,1.047 -0.004,7.041 -0.006,14.082 -0.002,21.123 0.002,2.456 1.897,4.601 4.333,4.924 0.308,0.041 0.62,0.056 0.925,0.057 7.033,0.002 14.065,0.001 21.099,0.001 0.44,0 0.391,0.04 0.394,-0.401 z"
       id="path9"
       inkscape:connector-curvature="0"
       style="fill:#000099;fill-rule:evenodd" />
    <path
       d="m 167.0683,76.918 h 16.043 c 0.014,-0.138 0.033,-0.256 0.033,-0.377 0.012,-1.829 0.02,-3.657 0.029,-5.486 V 71.03 c 0.002,-0.653 0.002,-0.653 -0.641,-0.653 h -21.993 v 0.328 c 0,3.101 -0.002,6.204 0.002,9.304 0.002,2.477 1.612,4.473 4.033,4.985 0.364,0.079 0.751,0.094 1.129,0.094 7.3,0.005 14.594,0.004 21.894,0.004 h 0.345 v -6.173 c 0,-0.361 0,-0.361 -0.36,-0.361 -6.221,-0.001 -12.442,0 -18.662,-0.004 -0.194,0 -0.387,-0.005 -0.582,-0.024 -0.764,-0.072 -1.352,-0.798 -1.27,-1.612 m -0.0107,-14.729 c -0.052,-0.967 0.583,-1.61 1.577,-1.645 0.08,-0.004 0.159,-0.002 0.238,-0.002 h 18.606 c 0.375,0 0.38,0 0.38,-0.366 v -5.778 c 0,-0.346 -0.005,-0.347 -0.352,-0.347 h -21.942 c -2.555,10e-4 -4.651,1.827 -4.994,4.36 -0.032,0.236 -0.03,0.476 -0.03,0.715 -0.002,3.074 -0.002,6.149 -0.002,9.222 0,0.357 0,0.357 0.361,0.357 7.305,0.001 14.61,0.001 21.916,0 0.384,0 0.372,0 0.367,-0.373 -0.011,-1.272 -0.011,-2.544 -0.019,-3.816 -0.004,-0.652 -0.012,-1.307 -0.019,-1.959 -0.004,-0.366 -0.004,-0.368 -0.363,-0.368 z"
       id="path11"
       inkscape:connector-curvature="0"
       style="fill:#000099;fill-rule:evenodd" />
    <path
       d="M 5.8418,35.3536 -2e-4,-4e-4 h 36.156 l 4.436,28.122 h -10.445 l -13.692,-10.444 h 8.838 l -1.139,-7.233 h -9.641 l 3.917,24.909 h 23.301 l -8.787,10.444 h -15.267 z"
       id="path13"
       inkscape:connector-curvature="0"
       style="fill:#000099" />
    <path
       d="M 9.5918,34.5498 4.5198,3.2138 h 28.122 l 3.43,21.694 h -5.623 l -5.457,-4.018 h 4.821 l -2.16,-13.658 h -16.873 l 4.955,31.335 h 19.283 l -3.381,4.018 h -13.659 z"
       id="path15"
       inkscape:connector-curvature="0"
       style="fill:#ffffff" />
    <path
       d="m 205.9082,35.3536 -5.843,-35.354 h 36.157 l 4.436,28.122 h -10.445 l -13.693,-10.444 h 8.838 l -1.138,-7.233 h -9.642 l 3.917,24.909 h 23.302 l -8.788,10.444 h -15.267 z"
       id="path17"
       inkscape:connector-curvature="0"
       style="fill:#000099" />
    <path
       d="m 209.6572,34.5498 -5.073,-31.336 h 28.123 l 3.431,21.694 h -5.625 l -5.456,-4.018 h 4.822 l -2.161,-13.658 h -16.872 l 4.955,31.335 h 19.283 l -3.382,4.018 h -13.659 z"
       id="path19"
       inkscape:connector-curvature="0"
       style="fill:#ffffff" />
    <path
       d="m 67.0732,17.6773 -1.138,-7.233 h -8.838 l 1.138,7.233 z m 10.864,-17.677 8.035,45.798 h -24.908 l -12.906,-10.445 h 21.693 l -1.137,-7.232 H 57.4662 L 44.5762,17.6773 41.7812,3e-4 Z"
       id="path21"
       inkscape:connector-curvature="0"
       style="fill:#000099" />
    <path
       d="m 80.6494,42.5845 h -18.479 l -4.655,-4.018 h 16.873 l -2.16,-13.659 h -13.658 l -9.977,-8.838 -2.293,-12.856 h 17.676 l 0.637,4.018 h -12.053 l 2.16,13.659 h 16.873 l -2.795,-17.677 h 5.623 z"
       id="path23"
       inkscape:connector-curvature="0"
       style="fill:#ffffff" />
    <path
       d="m 304.9023,17.6773 -1.139,-7.233 h -8.837 l 1.138,7.233 z m 10.864,-17.677 8.034,45.798 h -24.907 l -12.905,-10.445 h 21.693 l -1.138,-7.232 h -11.248 l -12.89,-10.444 -2.796,-17.677 z"
       id="path25"
       inkscape:connector-curvature="0"
       style="fill:#000099" />
    <path
       d="m 318.4785,42.5845 h -18.48 l -4.655,-4.018 h 16.874 l -2.159,-13.659 h -13.66 l -9.977,-8.838 -2.293,-12.856 h 17.677 l 0.637,4.018 h -12.052 l 2.158,13.659 h 16.873 l -2.795,-17.677 h 5.625 z"
       id="path27"
       inkscape:connector-curvature="0"
       style="fill:#ffffff" />
    <path
       d="m 151.2715,35.3536 -5.842,-35.354 h 32.943 l 1.657,10.445 h -20.088 l 1.139,7.233 h 20.087 l 1.641,10.444 h -20.088 l 1.139,7.232 h 20.087 l 1.657,10.444 h -22.498 z"
       id="path29"
       inkscape:connector-curvature="0"
       style="fill:#000099" />
    <path
       d="m 155.0205,33.7461 -5.071,-30.532 h 24.907 l 0.636,4.017 h -19.283 l 2.16,13.659 h 19.283 l 0.636,4.018 h -19.284 l 2.16,13.659 h 19.283 l 0.637,4.017 h -16.071 z"
       id="path31"
       inkscape:connector-curvature="0"
       style="fill:#ffffff" />
    <path
       d="m 247.6875,35.3536 -5.842,-35.354 h 32.944 l 1.657,10.445 h -20.087 l 1.139,7.233 h 20.086 l 1.64,10.444 h -20.086 l 1.137,7.232 h 20.088 l 1.656,10.444 h -22.496 z"
       id="path33"
       inkscape:connector-curvature="0"
       style="fill:#000099" />
    <path
       d="m 251.4375,33.7461 -5.071,-30.532 h 24.907 l 0.637,4.017 h -19.284 l 2.159,13.659 h 19.284 l 0.636,4.018 h -19.284 l 2.16,13.659 h 19.283 l 0.636,4.017 h -16.069 z"
       id="path35"
       inkscape:connector-curvature="0"
       style="fill:#ffffff" />
    <path
       d="m 350.2656,35.3536 -1.139,-7.232 h -10.445 l 1.139,7.232 z m -2.779,-17.676 -2.795,-17.678 h 12.855 l 2.662,16.07 -5.49,6.026 7.399,6.829 2.662,16.873 h -24.909 l -12.638,-10.444 -5.842,-35.354 h 12.856 l 2.795,17.678 z"
       id="path37"
       inkscape:connector-curvature="0"
       style="fill:#000099" />
    <path
       d="m 351.8388,24.9078 h -16.872 l 2.158,13.659 h 16.873 z m -20.856,8.838 -5.072,-30.532 h 5.624 l 2.795,17.676 h 16.873 l -2.795,-17.676 h 5.624 l 2.16,12.052 -4.989,5.624 0.636,4.018 6.261,4.821 2.158,12.856 h -19.281 z"
       id="path39"
       inkscape:connector-curvature="0"
       style="fill:#ffffff" />
    <path
       d="m 89.4043,34.5498 -5.842,-34.55 h 13.658 l 5.575,35.354 h 8.035 l -5.574,-35.354 h 13.658 l 5.574,35.354 h 7.232 l -5.575,-35.354 h 13.659 l 7.232,45.798 h -44.994 z"
       id="path41"
       inkscape:connector-curvature="0"
       style="fill:#000099" />
    <path
       d="m 93.1523,33.7461 -5.07,-30.532 h 5.623 l 5.592,35.353 h 16.069 l -5.591,-35.353 h 5.624 l 5.591,35.353 h 15.266 l -5.59,-35.353 h 5.623 l 6.228,39.37 h -39.371 z"
       id="path43"
       inkscape:connector-curvature="0"
       style="fill:#ffffff" />
  </g>
</svg>
