<?xml version="1.0" encoding="UTF-8" standalone="no"?>
<svg
   xmlns:dc="http://purl.org/dc/elements/1.1/"
   xmlns:cc="http://creativecommons.org/ns#"
   xmlns:rdf="http://www.w3.org/1999/02/22-rdf-syntax-ns#"
   xmlns:svg="http://www.w3.org/2000/svg"
   xmlns="http://www.w3.org/2000/svg"
   xmlns:sodipodi="http://sodipodi.sourceforge.net/DTD/sodipodi-0.dtd"
   xmlns:inkscape="http://www.inkscape.org/namespaces/inkscape"
   width="409"
   height="48.529522"
   version="1.1"
   id="svg10"
   sodipodi:docname="logo.svg"
   inkscape:version="0.92.4 5da689c313, 2019-01-14">
  <metadata
     id="metadata16">
    <rdf:RDF>
      <cc:Work
         rdf:about="">
        <dc:format>image/svg+xml</dc:format>
        <dc:type
           rdf:resource="http://purl.org/dc/dcmitype/StillImage" />
      </cc:Work>
    </rdf:RDF>
  </metadata>
  <defs
     id="defs14" />
  <sodipodi:namedview
     pagecolor="#ffffff"
     bordercolor="#666666"
     borderopacity="1"
     objecttolerance="10"
     gridtolerance="10"
     guidetolerance="10"
     inkscape:pageopacity="0"
     inkscape:pageshadow="2"
     inkscape:window-width="471"
     inkscape:window-height="442"
     id="namedview12"
     showgrid="false"
     inkscape:zoom="0.66624877"
     inkscape:cx="203.37749"
     inkscape:cy="24.264761"
     inkscape:window-x="1029"
     inkscape:window-y="293"
     inkscape:window-maximized="0"
     inkscape:current-layer="svg10" />
  <path
     d="m 153.03421,40.393868 c -3.4288,4.657836 -6.82317,5.979422 -8.30834,6.694025 -1.48373,0.716038 -3.73158,1.276385 -5.69745,1.276385 -5.51666,0 -9.82078,-1.798706 -12.91452,-5.381049 -3.09518,-3.598846 -4.64134,-8.6434 -4.64134,-15.185321 0,-7.735796 1.95081,-14.294219 5.87037,-19.7097073 3.91669,-5.397551 9.11263,-8.0880760642 15.58711,-8.0880760642 4.91182,0 8.92895,1.3789840642 12.07363,4.1534530642 3.14469,2.757967 4.7095,7.0965283 4.7095,12.9984623 h -9.50222 c 0,-2.825409 -0.62205,-4.809223 -1.8683,-5.952875 -1.24266,-1.126433 -3.02702,-1.6982593 -5.36454,-1.6982593 -3.81696,0 -6.76004,1.8661483 -8.86223,5.5826593 -2.08498,3.733731 -3.14612,7.97041 -3.14612,12.72941 0,3.245849 0.69092,5.904087 2.03619,7.953908 1.36176,2.06991 3.39508,3.094462 6.10426,3.094462 2.82541,0 5.01083,-0.807157 6.59214,-2.405688 1.56409,-1.579876 2.72425,-3.632567 3.46396,-6.138701 h -8.84644 l 1.43207,-8.609678 h 17.25165 l -1.46293,8.340626 c 0.002,0.0036 -1.09128,5.688128 -4.50645,10.345964 z M 235.06436,1.1954357 227.3465,47.238562 h -8.30762 l 6.54192,-35.684248 -14.42982,35.684248 h -6.80882 l -3.14469,-35.667746 -4.96348,35.667746 h -8.40592 l 7.68271,-46.0431263 h 11.79095 l 2.6403,32.4218973 13.25102,-32.5072763 m 20.6661,17.9095663 h 13.57172 l -1.41486,8.930389 h -13.56957 l -1.74848,9.803554 h 15.31805 l -1.511,9.484996 H 230.3563 l 7.63463,-46.0947843 h 23.86101 l -1.46149,9.5517213 H 245.37301 M 171.53354,1.1100567 152.96892,47.238562 h 9.04662 l 3.31257,-8.997831 h 11.83831 l 0.77344,8.997831 h 8.76106 L 181.45404,1.1107737 h -9.9205 z m -3.32979,29.2614273 6.72774,-18.346507 1.56266,18.346507 z m 140.51282,10.022384 c -3.43024,4.657836 -6.82317,5.979422 -8.30834,6.694742 -1.48373,0.715321 -3.73158,1.276385 -5.69745,1.276385 -5.51594,0 -9.82078,-1.799423 -12.91452,-5.381049 -3.09518,-3.598846 -4.64277,-8.642682 -4.64277,-15.184603 0,-7.735796 1.95224,-14.294219 5.87037,-19.7097073 3.91812,-5.397551 9.11406,-8.08807606 15.58854,-8.08807606 4.91038,0 8.92895,1.37898406 12.07364,4.15345306 3.14612,2.758684 4.70877,7.0979623 4.70877,12.9991803 h -9.49934 c 0,-2.82541 -0.62205,-4.809223 -1.8683,-5.952876 -1.24267,-1.125715 -3.02702,-1.6982593 -5.36455,-1.6982593 -3.81696,0 -6.76003,1.8661483 -8.86223,5.5826593 -2.08641,3.733731 -3.14468,7.97041 -3.14468,12.730128 0,3.245131 0.68949,5.903369 2.03331,7.95319 1.3632,2.069911 3.39652,3.094462 6.1057,3.094462 2.82541,0 5.01083,-0.807157 6.59215,-2.40497 1.56409,-1.580593 2.72424,-3.632567 3.46539,-6.138701 h -8.84644 l 1.4292,-8.609678 h 17.25308 l -1.46293,8.340626 c -7.1e-4,7.17e-4 -1.09486,5.685258 -4.5086,10.343094 z m 17.72661,-21.357743 h 13.55164 l -1.39405,8.913887 h -13.57173 l -1.76426,9.803554 h 15.33599 l -1.51315,9.500781 h -24.14944 l 7.63464,-46.1105693 h 23.86316 l -1.46293,9.5510033 H 327.9549 M 356.44074,1.1279927 337.87612,47.255782 h 9.06527 l 3.29464,-8.997115 h 11.85624 l 0.77201,8.997115 h 8.74528 l -5.2476,-46.1277893 z m -3.31258,29.2427743 6.71125,-18.347225 1.58059,18.347225 z m 32.50656,-8.964111 2.01826,-11.349708 h 4.84294 c 1.7822,0 3.11096,0.318558 4.00207,0.958544 0.8911,0.65577 1.32876,1.950092 1.32876,3.900902 0,2.186141 -0.72322,3.800455 -2.15242,4.877383 -1.44786,1.07621 -3.27886,1.613597 -5.49872,1.613597 h -4.54089 z M 380.16973,1.1437777 372.5351,47.254347 h 8.82707 l 2.96101,-17.573072 h 4.08601 l 6.82748,17.573072 h 10.12283 l -7.56719,-19.456439 c 2.6403,-1.345262 4.91038,-3.582344 6.49098,-5.919154 1.64803,-2.40497 2.47169,-5.213161 2.47169,-8.425288 0,-4.3550633 -0.97504,-7.4832463 -2.94307,-9.4168363 -1.95081,-1.932873 -4.72672,-2.892135 -8.29041,-2.892135 h -15.35177 z"
     id="path2"
     inkscape:connector-curvature="0" />
  <path
     d="M 7.3706466,18.856039 C 15.160254,5.7908517 25.883608,-2.3639493 31.322055,0.61356464 36.749023,3.6039927 34.836239,16.618958 27.032283,29.675535 19.241241,42.74144 8.5193212,50.894806 3.0937887,47.915857 -2.3460932,44.927581 -0.4218301,31.911182 7.3706466,18.856039 Z"
     id="path4"
     inkscape:connector-curvature="0"
     style="fill:#d61808" />
  <path
     d="M 42.219756,18.856039 C 50.01008,5.7908517 60.732718,-2.3639493 66.16973,0.61356464 71.596697,3.6039927 69.683914,16.618958 61.879957,29.675535 54.090351,42.74144 43.367713,50.894806 37.941463,47.915857 32.503016,44.927581 34.42728,31.911182 42.219756,18.856039 Z"
     id="path6"
     inkscape:connector-curvature="0"
     style="fill:#008400" />
  <path
     d="M 77.068865,18.856039 C 84.857037,5.7901337 95.581827,-2.3639493 101.01884,0.61284764 106.4458,3.6032757 104.53302,16.61824 96.729067,29.674818 88.938025,42.740723 78.21754,50.894088 72.790573,47.91514 67.351408,44.927581 69.276389,31.911182 77.068865,18.856039 Z"
     id="path8"
     inkscape:connector-curvature="0"
     style="fill:#0000ff" />
</svg>
