<?xml version="1.0" encoding="UTF-8" standalone="no"?>
<svg
   xmlns:dc="http://purl.org/dc/elements/1.1/"
   xmlns:cc="http://creativecommons.org/ns#"
   xmlns:rdf="http://www.w3.org/1999/02/22-rdf-syntax-ns#"
   xmlns:svg="http://www.w3.org/2000/svg"
   xmlns="http://www.w3.org/2000/svg"
   xmlns:sodipodi="http://sodipodi.sourceforge.net/DTD/sodipodi-0.dtd"
   xmlns:inkscape="http://www.inkscape.org/namespaces/inkscape"
   viewBox="0 0 294.8 176.7"
   version="1.1"
   id="svg320"
   sodipodi:docname="console.svg"
   width="294.79999"
   height="176.7"
   inkscape:version="0.92.4 5da689c313, 2019-01-14">
  <metadata
     id="metadata326">
    <rdf:RDF>
      <cc:Work
         rdf:about="">
        <dc:format>image/svg+xml</dc:format>
        <dc:type
           rdf:resource="http://purl.org/dc/dcmitype/StillImage" />
      </cc:Work>
    </rdf:RDF>
  </metadata>
  <defs
     id="defs324" />
  <sodipodi:namedview
     pagecolor="#ffffff"
     bordercolor="#666666"
     borderopacity="1"
     objecttolerance="10"
     gridtolerance="10"
     guidetolerance="10"
     inkscape:pageopacity="0"
     inkscape:pageshadow="2"
     inkscape:window-width="640"
     inkscape:window-height="480"
     id="namedview322"
     showgrid="false"
     inkscape:zoom="0.91926734"
     inkscape:cx="147.39999"
     inkscape:cy="88.350002"
     inkscape:window-x="0"
     inkscape:window-y="0"
     inkscape:window-maximized="0"
     inkscape:current-layer="svg320">
    <inkscape:grid
       type="xygrid"
       id="grid1133"
       originx="0"
       originy="3.0517579e-06" />
  </sodipodi:namedview>
  <path
     d="m 0.4,115 0.8,49 c 0,6.6 0.1,8.9 6.7,8.9 0,0 50.1,3.8 139.1,3.8 89,0 139.1,-3.8 139.1,-3.8 6.6,0 6.7,-2.3 6.7,-8.9 l 1.3,-75.6 -1.3,-75.6 c 0,-6.6 -0.1,-8.9 -6.7,-8.9 C 286.1,3.8 236,0 147,0 58,0 7.9,3.8 7.9,3.8 1.3,3.8 1.2,6.1 1.2,12.7 L 0.5,60.6 0,88.4 Z"
     id="path2"
     inkscape:connector-curvature="0"
     style="fill:#2b201d" />
  <path
     d="M 8.8,48.8 V 19.9 c 0,-2.6 2.1,-4.7 4.7,-4.7 H 281 c 2.6,0 4.7,2.1 4.7,4.7 v 28.9 c 0,2.6 -2.1,4.7 -4.7,4.7 H 13.5 c -2.6,0 -4.7,-2.1 -4.7,-4.7 z"
     id="path4"
     inkscape:connector-curvature="0"
     style="fill:#2e2b24" />
  <path
     d="m 13.4,52.2 c -1.7,0 -3.2,-1.4 -3.2,-3.2 V 21 c 0,-1.7 1.4,-3.2 3.2,-3.2 H 281 c 1.7,0 3.2,1.4 3.2,3.2 v 28 c 0,1.7 -1.4,3.2 -3.2,3.2 z"
     id="path6"
     inkscape:connector-curvature="0"
     style="fill:#d4c1a0" />
  <path
     d="M 281.1,50.4 H 13.4 c -0.7,0 -1.3,-0.6 -1.3,-1.3 v -28 c 0,-0.7 0.6,-1.3 1.3,-1.3 H 281 c 0.7,0 1.3,0.6 1.3,1.3 v 28 c 0.1,0.7 -0.5,1.3 -1.2,1.3 z M 13.4,20 c -0.6,0 -1.1,0.5 -1.1,1.1 v 28 c 0,0.6 0.5,1.1 1.1,1.1 H 281 c 0.6,0 1.1,-0.5 1.1,-1.1 v -28 c 0,-0.6 -0.5,-1.1 -1.1,-1.1 z"
     id="path8"
     inkscape:connector-curvature="0" />
  <path
     d="m 124.4,80.3 c -0.9,0 -1.5,-0.6 -1.5,-1.4 V 61.2 c 0,-0.8 0.6,-1.4 1.4,-1.4 h 0.1 c 0.8,0 1.4,0.6 1.4,1.4 v 17.7 c 0,0.8 -0.6,1.4 -1.4,1.4 z m 4.4,0 c -0.9,0 -1.5,-0.6 -1.5,-1.4 V 61.2 c 0,-0.8 0.6,-1.4 1.4,-1.4 h 0.1 c 0.8,0 1.4,0.6 1.4,1.4 v 17.7 c 0,0.8 -0.6,1.4 -1.4,1.4 z m 4.4,0 c -0.9,0 -1.5,-0.6 -1.5,-1.4 V 61.2 c 0,-0.8 0.6,-1.4 1.4,-1.4 h 0.1 c 0.8,0 1.4,0.6 1.4,1.4 v 17.7 c 0,0.8 -0.6,1.4 -1.4,1.4 z m 4.4,0 c -0.9,0 -1.5,-0.6 -1.5,-1.4 V 61.2 c 0,-0.8 0.6,-1.4 1.4,-1.4 h 0.1 c 0.8,0 1.4,0.6 1.4,1.4 v 17.7 c 0,0.8 -0.6,1.4 -1.4,1.4 z m 4.4,0 c -0.9,0 -1.5,-0.6 -1.5,-1.4 V 61.2 c 0,-0.8 0.6,-1.4 1.4,-1.4 h 0.1 c 0.8,0 1.4,0.6 1.4,1.4 v 17.7 c 0,0.8 -0.7,1.4 -1.4,1.4 z m 4.3,0 c -0.9,0 -1.5,-0.6 -1.5,-1.4 V 61.2 c 0,-0.8 0.6,-1.4 1.4,-1.4 h 0.1 c 0.8,0 1.4,0.6 1.4,1.4 v 17.7 c 0.1,0.8 -0.6,1.4 -1.4,1.4 z m 4.4,0 c -0.9,0 -1.5,-0.6 -1.5,-1.4 V 61.2 c 0,-0.8 0.6,-1.4 1.4,-1.4 h 0.1 c 0.8,0 1.4,0.6 1.4,1.4 v 17.7 c 0.1,0.8 -0.6,1.4 -1.4,1.4 z m 4.4,0 c -0.9,0 -1.5,-0.6 -1.5,-1.4 V 61.2 c 0,-0.8 0.6,-1.4 1.4,-1.4 h 0.1 c 0.8,0 1.4,0.6 1.4,1.4 v 17.7 c 0.1,0.8 -0.6,1.4 -1.4,1.4 z m 4.4,0 c -0.9,0 -1.5,-0.6 -1.5,-1.4 V 61.2 c 0,-0.8 0.6,-1.4 1.4,-1.4 h 0.1 c 0.8,0 1.4,0.6 1.4,1.4 v 17.7 c 0.1,0.8 -0.6,1.4 -1.4,1.4 z m 4.4,0 c -0.9,0 -1.5,-0.6 -1.5,-1.4 V 61.2 c 0,-0.8 0.6,-1.4 1.4,-1.4 h 0.1 c 0.8,0 1.4,0.6 1.4,1.4 v 17.7 c 0.1,0.8 -0.6,1.4 -1.4,1.4 z m 4.4,0 c -0.9,0 -1.5,-0.6 -1.5,-1.4 V 61.2 c 0,-0.8 0.6,-1.4 1.4,-1.4 h 0.1 c 0.8,0 1.4,0.6 1.4,1.4 v 17.7 c 0.1,0.8 -0.6,1.4 -1.4,1.4 z M 124.4,115 c -0.9,0 -1.5,-0.6 -1.5,-1.4 V 95.8 c 0,-0.8 0.6,-1.4 1.4,-1.4 h 0.1 c 0.8,0 1.4,0.6 1.4,1.4 v 17.7 c 0,0.9 -0.6,1.5 -1.4,1.5 z m 4.4,0 c -0.9,0 -1.5,-0.6 -1.5,-1.4 V 95.8 c 0,-0.8 0.6,-1.4 1.4,-1.4 h 0.1 c 0.8,0 1.4,0.6 1.4,1.4 v 17.7 c 0,0.9 -0.6,1.5 -1.4,1.5 z m 4.4,0 c -0.9,0 -1.5,-0.6 -1.5,-1.4 V 95.8 c 0,-0.8 0.6,-1.4 1.4,-1.4 h 0.1 c 0.8,0 1.4,0.6 1.4,1.4 v 17.7 c 0,0.9 -0.6,1.5 -1.4,1.5 z m 4.4,0 c -0.9,0 -1.5,-0.6 -1.5,-1.4 V 95.8 c 0,-0.8 0.6,-1.4 1.4,-1.4 h 0.1 c 0.8,0 1.4,0.6 1.4,1.4 v 17.7 c 0,0.9 -0.6,1.5 -1.4,1.5 z m 4.4,0 c -0.9,0 -1.5,-0.6 -1.5,-1.4 V 95.8 c 0,-0.8 0.6,-1.4 1.4,-1.4 h 0.1 c 0.8,0 1.4,0.6 1.4,1.4 v 17.7 c 0,0.9 -0.7,1.5 -1.4,1.5 z m 4.3,0 c -0.9,0 -1.5,-0.6 -1.5,-1.4 V 95.8 c 0,-0.8 0.6,-1.4 1.4,-1.4 h 0.1 c 0.8,0 1.4,0.6 1.4,1.4 v 17.7 c 0.1,0.9 -0.6,1.5 -1.4,1.5 z m 4.4,0 c -0.9,0 -1.5,-0.6 -1.5,-1.4 V 95.8 c 0,-0.8 0.6,-1.4 1.4,-1.4 h 0.1 c 0.8,0 1.4,0.6 1.4,1.4 v 17.7 c 0.1,0.9 -0.6,1.5 -1.4,1.5 z m 4.4,0 c -0.9,0 -1.5,-0.6 -1.5,-1.4 V 95.8 c 0,-0.8 0.6,-1.4 1.4,-1.4 h 0.1 c 0.8,0 1.4,0.6 1.4,1.4 v 17.7 c 0.1,0.9 -0.6,1.5 -1.4,1.5 z m 4.4,0 c -0.9,0 -1.5,-0.6 -1.5,-1.4 V 95.8 c 0,-0.8 0.6,-1.4 1.4,-1.4 h 0.1 c 0.8,0 1.4,0.6 1.4,1.4 v 17.7 c 0.1,0.9 -0.6,1.5 -1.4,1.5 z m 4.4,0 c -0.9,0 -1.5,-0.6 -1.5,-1.4 V 95.8 c 0,-0.8 0.6,-1.4 1.4,-1.4 h 0.1 c 0.8,0 1.4,0.6 1.4,1.4 v 17.7 c 0.1,0.9 -0.6,1.5 -1.4,1.5 z m 4.4,0 c -0.9,0 -1.5,-0.6 -1.5,-1.4 V 95.8 c 0,-0.8 0.6,-1.4 1.4,-1.4 h 0.1 c 0.8,0 1.4,0.6 1.4,1.4 v 17.7 c 0.1,0.9 -0.6,1.5 -1.4,1.5 z"
     id="path10"
     inkscape:connector-curvature="0"
     style="fill:#0e0f0d" />
  <g
     id="g14"
     style="fill:#3a2d29">
    <path
       d="m 122.9,69.5 h 2.9 v 1.1 h -2.9 z m 4.4,0 h 2.9 v 1.1 h -2.9 z m 4.4,0 h 2.9 v 1.1 h -2.9 z m 4.4,0 h 2.9 v 1.1 h -2.9 z m 4.3,0 h 2.9 v 1.1 h -2.9 z m 4.4,0 h 2.9 v 1.1 h -2.9 z m 4.4,0 h 2.9 v 1.1 h -2.9 z m 4.4,0 h 2.9 v 1.1 h -2.9 z m 4.4,0 h 2.9 v 1.1 H 158 Z m 4.4,0 h 2.9 v 1.1 h -2.9 z m 4.4,0 h 2.9 v 1.1 h -2.9 z m -43.9,34.7 h 2.9 v 1.1 h -2.9 z m 4.4,0 h 2.9 v 1.1 h -2.9 z m 4.4,0 h 2.9 v 1.1 h -2.9 z m 4.4,0 h 2.9 v 1.1 h -2.9 z m 4.3,0 h 2.9 v 1.1 h -2.9 z m 4.4,0 h 2.9 v 1.1 h -2.9 z m 4.4,0 h 2.9 v 1.1 h -2.9 z m 4.4,0 h 2.9 v 1.1 h -2.9 z m 4.4,0 h 2.9 v 1.1 H 158 Z m 4.4,0 h 2.9 v 1.1 h -2.9 z m 4.4,0 h 2.9 v 1.1 h -2.9 z"
       id="path12"
       inkscape:connector-curvature="0" />
  </g>
  <path
     d="m 285.4,126.8 v 28.9 c 0,2.6 -2.1,4.7 -4.7,4.7 H 13.3 c -2.6,0 -4.7,-2.1 -4.7,-4.7 v -28.9 c 0,-2.6 2.1,-4.7 4.7,-4.7 h 267.5 c 2.5,0 4.6,2.1 4.6,4.7 z"
     id="path16"
     inkscape:connector-curvature="0"
     style="fill:#2e2b24" />
  <path
     d="m 280.8,123.4 c 1.7,0 3.2,1.4 3.2,3.2 v 28 c 0,1.7 -1.4,3.2 -3.2,3.2 H 13.2 c -1.7,0 -3.2,-1.4 -3.2,-3.2 v -28 c 0,-1.7 1.4,-3.2 3.2,-3.2 z"
     id="path18"
     inkscape:connector-curvature="0"
     style="fill:#d4c1a0" />
  <path
     d="m 13.2,125.3 h 267.6 c 0.7,0 1.3,0.6 1.3,1.3 v 28 c 0,0.7 -0.6,1.3 -1.3,1.3 H 13.2 c -0.7,0 -1.3,-0.6 -1.3,-1.3 v -28 c 0,-0.8 0.6,-1.3 1.3,-1.3 z m 267.6,30.3 c 0.6,0 1.1,-0.5 1.1,-1.1 v -28 c 0,-0.6 -0.5,-1.1 -1.1,-1.1 H 13.2 c -0.6,0 -1.1,0.5 -1.1,1.1 v 28 c 0,0.6 0.5,1.1 1.1,1.1 z"
     id="path20"
     inkscape:connector-curvature="0" />
  <path
     d="m 26.7,149.9 c -0.1,0 -0.2,0.1 -0.2,0.2 v 2.1 c 0,0.1 0.1,0.2 0.2,0.2 h 1 c 0.1,0 0.2,-0.1 0.2,-0.2 v -0.4 c 0,-0.1 -0.1,-0.2 -0.2,-0.2 h -0.6 c -0.1,0 -0.2,-0.1 -0.2,-0.2 V 150 c -0.1,0 -0.1,-0.1 -0.2,-0.1 z m 4.8,0 c -0.1,0 -0.1,0 0,0 -0.1,0 -0.2,0.1 -0.2,0.2 v 2.1 c 0,0.1 0,0.1 0.1,0.1 h 1 c 0.1,0 0.2,-0.1 0.2,-0.2 v -0.4 c 0,-0.1 -0.1,-0.2 -0.2,-0.2 h -0.6 c -0.1,0 -0.2,-0.1 -0.2,-0.2 v -1.4 c 0,0.1 0,0 -0.1,0 z m -15.3,0 c -0.1,0 -0.2,0.1 -0.2,0.2 v 2.1 c 0,0.1 0.1,0.2 0.2,0.2 0.1,0 0.1,-0.1 0.1,-0.2 v -1.4 c 0,-0.1 0.1,-0.2 0.2,-0.2 h 0.1 c 0.1,0 0.2,0.1 0.2,0.2 l 0.1,0.7 c 0,0.1 0.1,0.2 0.2,0.2 h 0.3 c 0.1,0 0.1,-0.1 0.2,-0.2 l 0.4,-1 c 0,-0.1 0.1,-0.1 0.1,0 v 1.6 c 0,0.1 0.1,0.2 0.2,0.2 h 0.4 c 0.1,0 0.1,-0.1 0.1,-0.2 l 0.3,-0.7 c 0,-0.1 0.1,-0.2 0.2,-0.2 H 20 c 0.1,0 0.2,0.1 0.2,0.2 v 0.7 c 0,0.1 0,0.1 0.1,0.1 h 0.4 c 0.1,0 0.2,-0.1 0.2,-0.2 v -2.2 c 0,-0.1 -0.1,-0.2 -0.2,-0.2 h -1.1 c -0.1,0 -0.2,0.1 -0.2,0.2 l -0.7,1.8 c 0,0 -0.1,0 -0.1,-0.1 v -1.7 c 0,-0.1 0,-0.2 -0.1,-0.2 h -0.4 c -0.1,0 -0.1,0.1 -0.2,0.2 0,0 -0.4,1.1 -0.5,1.1 h -0.1 c 0,-0.1 -0.2,-1.2 -0.2,-1.2 0,-0.1 -0.1,-0.2 -0.2,-0.2 z m 19.2,0 c -0.1,0 -0.2,0.1 -0.2,0.2 v 2.3 l 0.1,0.1 h 1.1 c 0.1,0 0.1,-0.1 0.1,-0.1 0,-0.1 -0.1,-0.2 -0.2,-0.2 h -0.8 c -0.1,0 -0.2,-0.1 -0.2,-0.2 v -1.1 c 0,-0.1 0.1,-0.2 0.2,-0.2 h 0.8 c 0.1,0 0.2,-0.1 0.2,-0.2 v -0.4 c 0,-0.1 -0.1,-0.2 -0.2,-0.2 z m 3.5,0 c -0.1,0 -0.2,0.1 -0.2,0.2 v 2.3 l 0.1,0.1 h 0.4 c 0.1,0 0.1,-0.1 0.2,-0.2 v -0.7 c 0,-0.1 0.1,-0.2 0.2,-0.2 h 0.5 c 0.1,0 0.2,0.1 0.2,0.2 v 0.7 c 0,0.1 0.1,0.2 0.2,0.2 0.1,0 0.1,-0.1 0.1,-0.2 v -0.9 c 0,-0.2 -0.1,-0.2 -0.2,-0.3 h -0.1 v -0.1 -0.9 c 0,-0.1 -0.1,-0.2 -0.2,-0.2 z m 2.4,0 c -0.1,0 -0.2,0.1 -0.2,0.2 v 2.2 c 0,0.1 0,0.1 0.1,0.1 h 1.5 c 0.1,0 0.2,-0.1 0.2,-0.2 V 150 c 0,-0.1 -0.1,-0.2 -0.2,-0.2 z m 2.1,0 h -0.1 c -0.1,0 -0.1,0.1 -0.1,0.1 v 2.1 c 0,0.1 0,0.2 0.1,0.2 0.1,0 0.1,-0.1 0.1,-0.2 v -1.4 c 0,-0.1 0.1,-0.2 0.2,-0.2 h 0.7 c 0.1,0 0.2,0.1 0.2,0.2 v 1.4 c 0,0.1 0.1,0.2 0.2,0.2 0.1,0 0.1,-0.1 0.1,-0.2 V 150 c 0,-0.1 -0.1,-0.2 -0.2,-0.2 z m 3.4,0 c -0.1,0 -0.2,0 -0.2,0.1 v 2.4 c 0,0 0.1,0.1 0.2,0.1 H 48 c 0.1,0 0.2,-0.1 0.2,-0.2 0,-0.1 -0.1,-0.2 -0.2,-0.2 h -0.8 c -0.1,0 -0.2,-0.1 -0.2,-0.2 v -1.1 c 0,-0.1 0.1,-0.2 0.2,-0.2 H 48 c 0.1,0 0.2,-0.1 0.2,-0.2 V 150 c 0,-0.1 -0.1,-0.2 -0.2,-0.2 z m -0.9,0 c -0.1,0 -0.1,0 -0.1,0.1 v 1.5 c 0,0.1 0,0.1 -0.1,0.1 h -0.1 c -0.1,0 -0.2,0.1 -0.2,0.2 v 0.4 c 0,0.1 0,0.1 0.1,0.1 h 0.8 c 0.1,0 0.2,-0.1 0.2,-0.2 v -0.4 c 0,-0.1 -0.1,-0.1 -0.1,-0.1 h -0.1 l -0.1,-0.1 v -1.4 C 46,150 46,149.9 45.9,149.9 Z m -24.5,0 c -0.1,0 -0.2,0.1 -0.2,0.2 v 0.4 c 0,0.1 0.1,0.2 0.2,0.2 h 0.2 c 0.1,0 0.2,0.1 0.2,0.2 v 1.4 c 0,0.1 0.1,0.2 0.2,0.2 0.1,0 0.1,-0.1 0.1,-0.2 v -1.4 c 0,-0.1 0.1,-0.1 0.2,-0.2 H 23 c 0.1,0 0.2,0.1 0.2,0.2 v 1.4 c 0,0.1 0.1,0.2 0.2,0.2 0.1,0 0.1,-0.1 0.1,-0.2 v -1.4 c 0,-0.1 0.1,-0.1 0.2,-0.2 H 24 c 0.1,0 0.2,-0.1 0.2,-0.2 v -0.4 c 0,-0.1 -0.1,-0.2 -0.2,-0.2 z m 15.7,0 H 37 c -0.1,0 -0.1,0.1 -0.1,0.1 v 0.4 c 0,0.1 0.1,0.2 0.2,0.2 h 0.2 c 0.1,0 0.2,0.1 0.2,0.2 v 1.5 h 0.1 c 0.1,0 0.1,-0.1 0.1,-0.2 v -1.4 c 0,-0.1 0.1,-0.1 0.2,-0.2 h 0.2 c 0.1,0 0.2,-0.1 0.2,-0.2 v -0.4 c 0,-0.1 -0.1,-0.2 -0.2,-0.2 h -1 z m 12.8,0 h -1.2 c -0.1,0 -0.2,0.1 -0.2,0.2 v 1.1 c 0,0.1 0.1,0.2 0.2,0.2 h 0.6 c 0.1,0 0.2,0.1 0.2,0.2 v 0.5 l -0.1,0.1 h -0.8 c -0.1,0 -0.2,0.1 -0.2,0.2 0,0.1 0,0.1 0.1,0.1 h 1.6 l 0.1,-0.1 v -1.1 c 0,-0.1 -0.1,-0.2 -0.2,-0.2 h -0.9 c -0.1,0 -0.2,-0.1 -0.2,-0.2 v -0.5 c 0,-0.1 0.1,-0.2 0.2,-0.2 h 0.8 c 0.1,0 0.2,-0.1 0.2,-0.2 0,-0.1 -0.1,-0.1 -0.2,-0.1 z m -25,0.1 c -0.1,0 -0.2,0.1 -0.2,0.2 v 0.7 c 0,0.1 -0.1,0.2 -0.2,0.2 h -0.2 c -0.1,0 -0.2,0.1 -0.2,0.2 v 1 c 0,0.1 0.1,0.1 0.1,0.2 h 1.6 c 0.1,0 0.2,-0.1 0.2,-0.2 0,-0.1 -0.1,-0.2 -0.2,-0.2 h -1.3 c -0.1,0 -0.2,-0.1 -0.2,-0.2 v -0.4 c 0,-0.1 0.1,-0.2 0.2,-0.2 h 1.2 c 0.1,0 0.1,-0.1 0.1,-0.1 0,-0.1 -0.1,-0.1 -0.2,-0.2 h -0.3 c -0.1,0 -0.1,0 -0.1,-0.1 v -0.6 c 0,-0.1 0.1,-0.2 0.2,-0.2 h 0.3 c 0.1,0 0.2,-0.1 0.2,-0.2 0,-0.1 -0.1,-0.2 -0.2,-0.2 z m 4.8,0 c -0.1,0 -0.1,0 -0.2,0.1 v 0.8 c 0,0.1 -0.1,0.2 -0.2,0.2 h -0.2 c -0.1,0 -0.2,0.1 -0.2,0.2 v 1.1 c 0,0 0.1,0 0.1,0.1 h 1.6 c 0.1,0 0.2,-0.1 0.2,-0.2 0,-0.1 -0.1,-0.2 -0.2,-0.2 h -1.3 c -0.1,0 -0.2,-0.1 -0.2,-0.2 v -0.4 c 0,-0.1 0.1,-0.2 0.2,-0.2 h 1.2 c 0.1,0 0.1,-0.1 0.1,-0.1 0,-0.1 -0.1,-0.1 -0.2,-0.2 H 30.1 C 30,151 30,151 30,150.9 v -0.6 c 0,-0.1 0.1,-0.2 0.2,-0.2 h 0.3 c 0.1,0 0.2,-0.1 0.2,-0.2 0,-0.1 -0.1,-0.2 -0.2,-0.2 z m 4,0 c -0.1,0 -0.1,0 -0.2,0.1 v 0.8 c 0,0.1 -0.1,0.2 -0.2,0.2 h -0.2 c -0.1,0 -0.2,0.1 -0.2,0.2 v 1.1 l 0.1,0.1 h 1.6 c 0.1,0 0.2,-0.1 0.2,-0.2 0,-0.1 -0.1,-0.2 -0.2,-0.2 h -1.3 c -0.1,0 -0.2,-0.1 -0.2,-0.2 v -0.4 c 0,-0.1 0.1,-0.2 0.2,-0.2 h 1.2 c 0.1,0 0.1,-0.1 0.1,-0.1 0,-0.1 -0.1,-0.1 -0.2,-0.2 H 34.1 C 34,151 34,151 34,150.9 v -0.6 c 0,-0.1 0.1,-0.2 0.2,-0.2 h 0.3 c 0.1,0 0.2,-0.1 0.2,-0.2 0,-0.1 -0.1,-0.2 -0.2,-0.2 z m -13.8,0.3 h 0.4 c 0.1,0 0.2,0.1 0.2,0.2 v 0.5 c 0,0.1 -0.1,0.2 -0.2,0.2 h -0.7 c -0.2,0 -0.2,-0.2 -0.2,-0.2 l 0.2,-0.4 c 0.2,-0.3 0.2,-0.3 0.3,-0.3 z m 19.4,0 h 0.5 c 0.1,0 0.2,0.1 0.2,0.2 v 0.5 c 0,0.1 -0.1,0.2 -0.2,0.2 h -0.6 c -0.1,0 -0.2,-0.1 -0.2,-0.2 v -0.5 c 0.1,-0.2 0.2,-0.2 0.3,-0.2 z m 2.3,0 h 0.7 c 0.1,0 0.2,0.1 0.2,0.2 v 1.1 c 0,0.1 -0.1,0.2 -0.2,0.2 h -0.7 c -0.1,0 -0.2,-0.1 -0.2,-0.2 v -1.1 c 0,-0.2 0.1,-0.2 0.2,-0.2 z m 35.6,-3.9 c 0,0 -1.1,4.4 -1.2,4.5 0,0.1 -0.2,0.2 -0.2,0 -0.1,-0.2 -0.9,-3.1 -0.9,-3.1 h -1.6 c 0,0 1.2,3.8 1.2,4 0.6,1.2 1.8,0.7 2,-0.2 0.3,-0.9 1.4,-5.2 1.4,-5.2 z m -16.2,0.3 -2.4,1.6 v -0.5 h -0.8 v 2.1 c 0,0.1 -0.1,0.2 -0.2,0 0,0 -1,-1.5 -1.4,-1.9 -0.3,-0.4 -1.4,-0.4 -1.4,0.5 v 3.8 h 0.8 v -2.7 c 0,-0.1 0.1,-0.1 0.2,0 0,0 1.7,2.6 1.8,2.7 0.2,0.2 1,0.4 1,-0.5 v -3.4 h 0.8 c 0.1,0 0.2,0.1 0.2,0.1 v 2.7 c 0,0.7 0.6,1.2 1.2,1.2 h 1.4 v -0.7 h -0.6 c -0.2,0 -0.4,-0.2 -0.4,-0.4 v -2.6 c 0,-0.1 0.1,-0.3 0.3,-0.3 h 0.7 v -0.6 h -1 c -0.1,0 -0.1,-0.1 -0.1,-0.1 z m -8.2,0 v 5.7 h 1.5 v -5.7 z m 35,1 c -0.7,0 -1.4,0.3 -1.8,0.8 l -0.1,0.1 c -0.4,0.4 -0.6,0.9 -0.6,1.5 0,0.3 0.1,0.6 0.2,0.9 v 0.1 c 0.3,0.6 0.8,1 1.5,1.2 h 0.1 c 0.2,0 0.4,0.1 0.6,0.1 1.4,0 2.5,-1.1 2.5,-2.4 0.1,-1.2 -1,-2.3 -2.4,-2.3 z m -6.5,0 c -0.9,0 -1.6,0.6 -1.6,1.6 0,0.9 1,1.2 1.6,1.3 0.3,0 0.7,0.3 0.7,0.6 0,0.3 -0.2,0.5 -0.5,0.5 h -1.6 v 0.7 h 1.9 c 0.9,0 1.5,-0.7 1.5,-1.6 v -0.4 -0.1 c -0.2,-0.7 -0.7,-0.9 -1.6,-1.1 0,0 -0.5,-0.1 -0.5,-0.4 0,-0.2 0.1,-0.3 0.2,-0.4 h 1.3 v -0.7 z m -9.8,0 v 0.8 H 73 v -0.8 z m 6.3,0 v 0.8 h 1.5 v -0.8 z m 5.8,0 v 0.8 h 1.5 v -0.8 z m -20.1,0 c -0.4,0 -0.7,0.2 -0.9,0.6 v 0.1 c 0,0.1 -0.1,0.3 -0.1,0.5 v 2.3 c 0,0.7 0.4,1.2 1,1.2 h 2.2 v -0.7 h -1.3 c -0.2,0 -0.4,-0.2 -0.4,-0.4 v -0.9 h 1.5 v -0.7 H 64 v -0.9 c 0,-0.2 0.2,-0.4 0.4,-0.4 h 1.3 v -0.7 z m 2.5,0.1 v 3.5 c 0,0.1 0,0.3 0.1,0.4 v 0.1 c 0.2,0.4 0.5,0.6 0.9,0.7 h 1.5 v -0.7 h -0.6 c -0.2,0 -0.4,-0.2 -0.4,-0.4 v -3.6 z m 2.7,0 v 3.5 c 0,0.7 0.5,1.1 1,1.2 h 1.5 v -0.7 h -0.6 c -0.2,0 -0.4,-0.2 -0.4,-0.4 v -3.6 z m 24.8,0 v 2.1 c 0,0.1 -0.1,0.2 -0.2,0 0,0 -1,-1.5 -1.4,-1.9 -0.3,-0.4 -1.4,-0.4 -1.4,0.5 v 3.8 h 0.8 v -2.7 c 0,-0.1 0.1,-0.1 0.2,0 0,0 1.7,2.6 1.8,2.7 0,0 0.1,0.1 0.2,0.1 h 0.1 c 0.3,0.1 0.8,0 0.8,-0.6 v -4.1 h -0.9 z m -5.7,0.5 c 0.6,0 0.8,0.8 0.8,1.8 0,1 -0.3,1.8 -0.8,1.8 -0.2,0 -0.3,0 -0.4,-0.1 l -0.1,-0.1 v -0.1 C 87.1,151.3 87,150.7 87,150.1 v -0.2 c 0,-0.6 0.1,-1 0.3,-1.3 0.1,-0.2 0.3,-0.3 0.5,-0.3 z m -16.3,0.5 v 3.6 H 73 v -3.6 z m 6.3,0 v 3.6 h 1.5 v -3.6 z m 5.8,0 v 3.6 h 1.5 v -3.6 z"
     id="path22"
     inkscape:connector-curvature="0" />
  <g
     id="g28"
     style="clip-rule:evenodd;fill-rule:evenodd">
    <path
       d="M 50.7,150.4 50.6,150 h 0.2 c 0.1,0 0.2,0 0.2,0.1 0,0.1 0,0.1 -0.1,0.1 l 0.1,0.2 h -0.1 l -0.1,-0.2 h -0.1 z m 0.1,-0.3 c 0.1,0 0.1,0 0.1,-0.1 0,-0.1 0,-0.1 -0.1,-0.1 h -0.1 z"
       id="path24"
       inkscape:connector-curvature="0" />
    <path
       d="m 50.4,150.2 c 0,-0.2 0.2,-0.4 0.4,-0.4 0.2,0 0.4,0.2 0.4,0.4 0,0.2 -0.2,0.4 -0.4,0.4 -0.2,-0.1 -0.4,-0.2 -0.4,-0.4 z m 0.4,0.3 c 0.2,0 0.3,-0.1 0.3,-0.3 0,-0.2 -0.1,-0.3 -0.3,-0.3 -0.2,0 -0.3,0.1 -0.3,0.3 0,0.1 0.1,0.3 0.3,0.3 z"
       id="path26"
       inkscape:connector-curvature="0" />
  </g>
  <path
     d="m 94.9,147.9 h -0.1 v 0.4 h -0.1 v -0.4 h -0.1 v -0.1 z"
     id="path30"
     inkscape:connector-curvature="0" />
  <path
     d="m 95.3,148.2 -0.1,-0.3 -0.1,0.3 H 95 l -0.1,-0.3 v 0.3 h -0.1 v -0.4 H 95 l 0.1,0.3 0.1,-0.3 h 0.1 z m 0.4,4.1 h -0.3 v -2.5 h 0.3 z m 1.9,0 H 97.3 V 151 c 0,-0.1 0,-0.1 -0.1,-0.2 -0.1,-0.1 -0.2,-0.1 -0.3,-0.1 -0.1,0 -0.3,0.1 -0.3,0.2 -0.1,0.1 -0.1,0.2 -0.1,0.4 v 1 h -0.3 v -1.8 h 0.3 v 0.2 c 0.1,-0.2 0.3,-0.3 0.5,-0.3 0.2,0 0.4,0.1 0.5,0.2 0.1,0.1 0.1,0.2 0.1,0.3 z m 1.1,0 h -0.2 c -0.1,0 -0.2,0 -0.2,-0.1 -0.1,-0.1 -0.1,-0.1 -0.1,-0.2 v -1.4 H 98 v -0.3 h 0.2 V 150 h 0.3 v 0.5 h 0.3 v 0.3 h -0.3 v 1.3 c 0,0.1 0,0.1 0.1,0.1 h 0.2 v 0.1 z m 1.8,-0.9 v 0.1 h -1.3 v 0.1 c 0,0.1 0,0.3 0.1,0.4 0.1,0.1 0.2,0.2 0.3,0.2 0.2,0 0.4,-0.1 0.5,-0.4 h 0.3 c -0.1,0.4 -0.3,0.6 -0.7,0.6 -0.5,0 -0.8,-0.3 -0.8,-1 0,-0.3 0.1,-0.5 0.2,-0.7 0.1,-0.2 0.3,-0.3 0.6,-0.3 0.2,0 0.4,0.1 0.5,0.2 0.2,0.2 0.3,0.5 0.3,0.8 z m -0.3,-0.2 c 0,-0.4 -0.2,-0.6 -0.5,-0.6 -0.3,0 -0.5,0.2 -0.5,0.6 z m 1,1.1 h -0.3 v -2.5 h 0.3 z m 0.7,0 h -0.3 v -2.5 h 0.3 z m 0.7,-2.2 h -0.3 v -0.4 h 0.3 z m 0,2.2 h -0.3 v -1.8 h 0.3 z m 1.9,-0.2 c 0,0.4 -0.1,0.6 -0.3,0.8 -0.1,0.1 -0.3,0.1 -0.4,0.1 -0.2,0 -0.4,-0.1 -0.5,-0.2 -0.1,-0.1 -0.2,-0.2 -0.2,-0.4 h 0.3 c 0,0.1 0.1,0.2 0.2,0.2 0.1,0 0.2,0.1 0.2,0.1 0.3,0 0.5,-0.2 0.5,-0.6 v -0.1 -0.1 c -0.2,0.2 -0.4,0.3 -0.6,0.3 -0.2,0 -0.3,-0.1 -0.5,-0.2 -0.1,-0.2 -0.2,-0.4 -0.2,-0.7 0,-0.3 0.1,-0.5 0.2,-0.7 0.1,-0.2 0.3,-0.3 0.5,-0.3 0.2,0 0.4,0.1 0.5,0.3 v -0.2 h 0.3 z m -0.3,-0.7 c 0,-0.5 -0.2,-0.7 -0.5,-0.7 -0.1,0 -0.2,0.1 -0.3,0.2 -0.1,0.1 -0.1,0.3 -0.1,0.5 0,0.2 0,0.3 0.1,0.5 0.1,0.1 0.2,0.2 0.4,0.2 0.1,0 0.3,-0.1 0.3,-0.2 0.1,-0.1 0.1,-0.3 0.1,-0.5 z m 2.3,0 v 0.1 h -1.3 v 0.1 c 0,0.1 0,0.3 0.1,0.4 0.1,0.1 0.2,0.2 0.3,0.2 0.2,0 0.4,-0.1 0.5,-0.4 h 0.3 c -0.1,0.4 -0.3,0.6 -0.7,0.6 -0.5,0 -0.8,-0.3 -0.8,-1 0,-0.3 0.1,-0.5 0.2,-0.7 0.1,-0.2 0.3,-0.3 0.6,-0.3 0.2,0 0.4,0.1 0.5,0.2 0.2,0.2 0.3,0.5 0.3,0.8 z m -0.3,-0.2 c 0,-0.4 -0.2,-0.6 -0.5,-0.6 -0.3,0 -0.5,0.2 -0.5,0.6 z m 2,1.1 h -0.3 V 151 c 0,-0.1 0,-0.1 -0.1,-0.2 -0.1,-0.1 -0.2,-0.1 -0.3,-0.1 -0.1,0 -0.3,0.1 -0.3,0.2 -0.1,0.1 -0.1,0.2 -0.1,0.4 v 1 h -0.3 v -1.8 h 0.3 v 0.2 c 0.1,-0.2 0.3,-0.3 0.5,-0.3 0.2,0 0.4,0.1 0.5,0.2 0.1,0.1 0.1,0.2 0.1,0.3 z m 1.1,0 h -0.2 c -0.1,0 -0.2,0 -0.2,-0.1 -0.1,-0.1 -0.1,-0.1 -0.1,-0.2 v -1.4 h -0.2 v -0.3 h 0.2 V 150 h 0.3 v 0.5 h 0.3 v 0.3 H 109 v 1.3 c 0,0.1 0,0.1 0.1,0.1 h 0.2 z m 3,-2.2 h -0.8 v 2.2 h -0.3 v -2.2 h -0.8 v -0.3 h 1.9 z m 1.8,1.3 v 0.1 h -1.3 v 0.1 c 0,0.1 0,0.3 0.1,0.4 0.1,0.1 0.2,0.2 0.3,0.2 0.2,0 0.4,-0.1 0.5,-0.4 h 0.3 c -0.1,0.4 -0.3,0.6 -0.7,0.6 -0.5,0 -0.8,-0.3 -0.8,-1 0,-0.3 0.1,-0.5 0.2,-0.7 0.1,-0.2 0.3,-0.3 0.6,-0.3 0.2,0 0.4,0.1 0.5,0.2 0.2,0.2 0.3,0.5 0.3,0.8 z m -0.3,-0.2 c 0,-0.4 -0.2,-0.6 -0.5,-0.6 -0.3,0 -0.5,0.2 -0.5,0.6 z m 0.9,1.1 h -0.3 v -2.5 h 0.3 z m 2,-0.9 v 0.1 h -1.3 v 0.1 c 0,0.1 0,0.3 0.1,0.4 0.1,0.1 0.2,0.2 0.3,0.2 0.2,0 0.4,-0.1 0.5,-0.4 h 0.3 c -0.1,0.4 -0.3,0.6 -0.7,0.6 -0.5,0 -0.8,-0.3 -0.8,-1 0,-0.3 0.1,-0.5 0.2,-0.7 0.1,-0.2 0.3,-0.3 0.6,-0.3 0.2,0 0.4,0.1 0.5,0.2 0.2,0.2 0.3,0.5 0.3,0.8 z m -0.3,-0.2 c 0,-0.4 -0.2,-0.6 -0.5,-0.6 -0.3,0 -0.5,0.2 -0.5,0.6 z m 2,-0.7 -0.7,1.8 h -0.3 l -0.6,-1.8 h 0.3 l 0.5,1.5 0.5,-1.5 z m 0.6,-0.4 h -0.3 v -0.4 h 0.3 z m 0,2.2 h -0.3 v -1.8 h 0.3 z m 1.8,-0.5 c 0,0.2 -0.1,0.3 -0.2,0.4 -0.1,0.1 -0.3,0.2 -0.5,0.2 -0.3,0 -0.4,-0.1 -0.6,-0.2 -0.1,-0.1 -0.1,-0.2 -0.2,-0.4 h 0.3 c 0,0.1 0,0.2 0.1,0.3 0.1,0.1 0.2,0.1 0.3,0.1 0.1,0 0.2,0 0.3,-0.1 0.1,0 0.1,-0.1 0.1,-0.2 0,-0.1 -0.1,-0.2 -0.2,-0.2 l -0.4,-0.1 c -0.2,0 -0.3,-0.1 -0.4,-0.2 -0.1,-0.1 -0.1,-0.2 -0.1,-0.3 0,-0.2 0.1,-0.3 0.2,-0.4 0.1,-0.1 0.3,-0.1 0.5,-0.1 0.2,0 0.3,0 0.5,0.1 0.1,0.1 0.2,0.2 0.2,0.4 h -0.3 c 0,-0.2 -0.1,-0.3 -0.4,-0.3 -0.1,0 -0.2,0 -0.3,0.1 -0.1,0.1 -0.1,0.1 -0.1,0.2 0,0.1 0.1,0.2 0.2,0.2 l 0.5,0.1 c 0.3,0 0.5,0.1 0.5,0.4 z m 0.6,-1.7 h -0.3 v -0.4 h 0.3 z m 0,2.2 h -0.3 v -1.8 h 0.3 z m 1.9,-0.9 c 0,0.3 -0.1,0.5 -0.2,0.7 -0.1,0.2 -0.3,0.3 -0.6,0.3 -0.3,0 -0.5,-0.1 -0.6,-0.3 -0.1,-0.2 -0.2,-0.4 -0.2,-0.7 0,-0.3 0.1,-0.5 0.2,-0.7 0.1,-0.2 0.3,-0.2 0.6,-0.2 0.3,0 0.4,0.1 0.6,0.2 0.2,0.1 0.2,0.4 0.2,0.7 z m -0.2,0 c 0,-0.2 -0.1,-0.4 -0.2,-0.5 -0.1,-0.1 -0.2,-0.2 -0.4,-0.2 -0.1,0 -0.3,0.1 -0.4,0.2 -0.1,0.1 -0.2,0.3 -0.2,0.5 0,0.2 0,0.4 0.1,0.5 0.1,0.1 0.2,0.2 0.4,0.2 0.2,0 0.3,-0.1 0.4,-0.2 0.2,-0.2 0.3,-0.3 0.3,-0.5 z m 2,0.9 h -0.3 V 151 c 0,-0.1 0,-0.1 -0.1,-0.2 -0.1,-0.1 -0.2,-0.1 -0.3,-0.1 -0.1,0 -0.3,0.1 -0.3,0.2 -0.1,0.1 -0.1,0.2 -0.1,0.4 v 1 h -0.3 v -1.8 h 0.3 v 0.2 c 0.1,-0.2 0.3,-0.3 0.5,-0.3 0.2,0 0.4,0.1 0.5,0.2 0.1,0.1 0.1,0.2 0.1,0.3 z"
     id="path32"
     inkscape:connector-curvature="0" />
  <g
     id="g36">
    <path
       d="m 220,135.7 h -0.5 c 0,-0.1 -0.1,-0.1 -0.1,-0.2 v -0.2 -0.1 c 0,0 -0.1,-0.1 -0.2,-0.1 h -0.5 v 0.6 h -0.4 v -1.5 h 1.2 c 0.1,0 0.2,0 0.3,0.1 0.1,0.1 0.2,0.2 0.2,0.3 0,0.2 -0.1,0.3 -0.3,0.4 0.1,0.1 0.2,0.1 0.2,0.2 v 0.4 z m -0.5,-1.1 c 0,-0.1 -0.1,-0.2 -0.2,-0.2 h -0.6 v 0.4 h 0.6 c 0.1,0 0.1,0 0.2,-0.1 z m 2.4,1.1 h -1.6 v -1.5 h 1.5 v 0.3 h -1.1 v 0.4 h 1 v 0.3 h -1 v 0.4 h 1.1 v 0.1 z m 1.9,-0.4 c 0,0.2 -0.1,0.3 -0.2,0.4 -0.2,0.1 -0.4,0.1 -0.6,0.1 -0.2,0 -0.4,0 -0.6,-0.1 -0.1,-0.1 -0.2,-0.2 -0.3,-0.4 h 0.4 c 0,0.2 0.2,0.2 0.5,0.2 0.1,0 0.2,0 0.3,-0.1 0.1,0 0.1,-0.1 0.1,-0.1 0,-0.1 -0.1,-0.2 -0.3,-0.2 l -0.5,-0.1 c -0.1,0 -0.3,-0.1 -0.3,-0.1 -0.1,-0.1 -0.1,-0.2 -0.1,-0.3 0,-0.2 0.1,-0.3 0.2,-0.4 0.1,-0.1 0.3,-0.1 0.6,-0.1 0.3,0 0.5,0 0.6,0.1 0.1,0.1 0.2,0.2 0.2,0.4 h -0.4 c 0,-0.1 0,-0.1 -0.1,-0.2 -0.1,0 -0.2,-0.1 -0.3,-0.1 -0.2,0 -0.4,0.1 -0.4,0.2 0,0.1 0.1,0.1 0.2,0.2 l 0.4,0.1 c 0.2,0 0.3,0.1 0.4,0.1 0.2,0.1 0.2,0.2 0.2,0.4 z m 1.9,0.4 h -1.6 v -1.5 h 1.5 v 0.3 h -1.1 v 0.4 h 1 v 0.3 h -1 v 0.4 h 1.1 v 0.1 z m 1.8,-1.3 h -0.6 v 1.3 h -0.4 v -1.3 h -0.6 v -0.3 h 1.7 v 0.3 z"
       id="path34"
       inkscape:connector-curvature="0" />
  </g>
  <g
     id="g40">
    <path
       d="m 252,135.2 c 0,0.2 -0.1,0.3 -0.2,0.4 -0.2,0.1 -0.4,0.1 -0.6,0.1 -0.2,0 -0.4,0 -0.6,-0.1 -0.1,-0.1 -0.2,-0.2 -0.3,-0.4 h 0.4 c 0,0.2 0.2,0.2 0.5,0.2 0.1,0 0.2,0 0.3,-0.1 0.1,0 0.1,-0.1 0.1,-0.1 0,-0.1 -0.1,-0.2 -0.3,-0.2 l -0.5,-0.1 c -0.1,0 -0.3,-0.1 -0.3,-0.1 -0.1,-0.1 -0.1,-0.2 -0.1,-0.3 0,-0.2 0.1,-0.3 0.2,-0.4 0.1,-0.1 0.3,-0.1 0.6,-0.1 0.3,0 0.5,0 0.6,0.1 0.1,0.1 0.2,0.2 0.2,0.4 h -0.4 c 0,-0.1 0,-0.1 -0.1,-0.2 -0.1,0 -0.2,-0.1 -0.3,-0.1 -0.2,0 -0.4,0.1 -0.4,0.2 0,0.1 0.1,0.1 0.2,0.2 l 0.4,0.1 c 0.2,0 0.3,0.1 0.4,0.1 0.1,0.2 0.2,0.3 0.2,0.4 z m 1.8,-0.8 h -0.6 v 1.3 h -0.4 v -1.3 h -0.6 v -0.3 h 1.7 v 0.3 z m 2,1.3 h -0.4 l -0.1,-0.3 h -0.8 l -0.1,0.3 H 254 l 0.7,-1.5 h 0.5 z m -0.6,-0.6 -0.3,-0.6 -0.3,0.6 z m 2.6,0.6 h -0.4 l -0.8,-1.1 v 1.1 h -0.4 v -1.5 h 0.4 l 0.8,1.1 v -1.1 h 0.4 z m 2.1,-0.9 c 0,0.2 -0.1,0.4 -0.2,0.6 -0.1,0.2 -0.3,0.2 -0.5,0.2 h -1 v -1.5 h 1 c 0.2,0 0.3,0.1 0.5,0.2 0.1,0.1 0.2,0.3 0.2,0.5 z m -0.4,0.1 c 0,-0.1 0,-0.2 -0.1,-0.3 -0.1,-0.1 -0.2,-0.1 -0.3,-0.1 h -0.5 v 1 h 0.4 c 0.1,0 0.3,0 0.3,-0.1 0.1,-0.2 0.2,-0.4 0.2,-0.5 z m 1.4,0.3 h -0.8 v -0.3 h 0.8 z m 2,0 c 0,0.1 -0.1,0.2 -0.2,0.3 -0.1,0.1 -0.3,0.1 -0.5,0.1 h -1 v -1.5 h 0.9 c 0.2,0 0.4,0 0.5,0.1 0.1,0.1 0.2,0.2 0.2,0.3 0,0.1 -0.1,0.2 -0.2,0.3 0.2,0.1 0.3,0.3 0.3,0.4 z m -0.5,-0.6 c 0,-0.1 -0.1,-0.2 -0.3,-0.2 h -0.5 v 0.3 h 0.5 c 0.2,0 0.3,0 0.3,-0.1 z m 0.1,0.6 c 0,-0.1 -0.1,-0.2 -0.3,-0.2 h -0.5 v 0.4 h 0.5 c 0.2,0 0.3,-0.1 0.3,-0.2 z m 2.4,-1.1 -0.7,1 v 0.6 h -0.4 v -0.6 l -0.7,-1 h 0.5 l 0.4,0.7 0.4,-0.7 z"
       id="path38"
       inkscape:connector-curvature="0" />
  </g>
  <g
     id="g44">
    <path
       d="m 273.4,134.9 c 0,0.2 -0.1,0.4 -0.3,0.6 -0.2,0.1 -0.4,0.2 -0.7,0.2 -0.3,0 -0.6,-0.1 -0.7,-0.2 -0.2,-0.1 -0.3,-0.3 -0.3,-0.6 0,-0.2 0.1,-0.4 0.2,-0.6 0.2,-0.2 0.4,-0.2 0.8,-0.2 0.3,0 0.6,0.1 0.7,0.2 0.3,0.2 0.3,0.4 0.3,0.6 z m -0.4,0 c 0,-0.2 -0.1,-0.3 -0.2,-0.4 -0.1,-0.1 -0.3,-0.1 -0.4,-0.1 -0.2,0 -0.3,0 -0.4,0.1 -0.1,0.1 -0.2,0.2 -0.2,0.4 0,0.2 0.1,0.3 0.2,0.4 0.1,0.1 0.3,0.1 0.5,0.1 0.2,0 0.3,0 0.4,-0.1 0.1,-0.1 0.1,-0.2 0.1,-0.4 z m 2.4,0.8 H 275 l -0.8,-1.1 v 1.1 h -0.4 v -1.5 h 0.4 l 0.8,1.1 v -1.1 h 0.4 z"
       id="path42"
       inkscape:connector-curvature="0" />
  </g>
  <path
     d="m 277.6,151.7 h -61.9 c -2.2,0 -3.9,-1.8 -3.9,-3.9 v -6.6 c 0,-2.2 1.8,-3.9 3.9,-3.9 h 61.9 c 2.2,0 3.9,1.8 3.9,3.9 v 6.6 c 0,2.2 -1.7,3.9 -3.9,3.9 z"
     id="path46"
     inkscape:connector-curvature="0"
     style="fill:#2e2b24" />
  <path
     d="m 215.7,138.1 c -1.7,0 -3.2,1.4 -3.2,3.2 v 6.6 c 0,1.7 1.4,3.2 3.2,3.2 h 61.9 c 1.7,0 3.2,-1.4 3.2,-3.2 v -6.6 c 0,-1.7 -1.4,-3.2 -3.2,-3.2 z"
     id="path48"
     inkscape:connector-curvature="0"
     style="fill:#2b201d" />
  <path
     d="m 232.4,149.8 h -16.2 c -0.9,0 -1.7,-0.8 -1.7,-1.7 V 141 c 0,-0.9 0.8,-1.7 1.7,-1.7 h 16.2 c 0.9,0 1.7,0.8 1.7,1.7 v 7.1 c 0,0.9 -0.7,1.7 -1.7,1.7 z m 44.6,0 h -16.6 c -0.9,0 -1.7,-0.8 -1.7,-1.7 V 141 c 0,-0.9 0.8,-1.7 1.7,-1.7 H 277 c 0.9,0 1.7,0.8 1.7,1.7 v 7.1 c 0,0.9 -0.7,1.7 -1.7,1.7 z"
     id="path50"
     inkscape:connector-curvature="0"
     style="fill:#191210" />
  <path
     d="m 267,139.3 h 3.5 v 10.5 H 267 Z"
     id="path52"
     inkscape:connector-curvature="0"
     style="fill:#140e0c" />
  <path
     d="M 0.5,60.6 H 56.8 V 58.9 H 88 v 1.7 h 29.9 V 115 H 88 v 1.7 H 56.8 V 115 H 0.4 L 0,88.4 Z"
     id="path54"
     inkscape:connector-curvature="0"
     style="fill:#1e1615" />
  <path
     d="m 29.2,108.3 h 88.7 v -41 H 29.2 c -0.2,0 -0.3,0.1 -0.3,0.3 V 108 c 0,0.2 0.1,0.3 0.3,0.3 z"
     id="path56"
     inkscape:connector-curvature="0"
     style="fill:#110d0c" />
  <path
     d="M 293.5,60.5 H 237.3 V 58.8 H 206 v 1.7 H 176.1 V 115 H 206 v 1.7 h 31.3 V 115 h 56.3 L 294,88.3 Z"
     id="path58"
     inkscape:connector-curvature="0"
     style="fill:#1e1615" />
  <path
     d="m 264.8,108.2 h -88.7 v -41 h 88.7 c 0.2,0 0.3,0.1 0.3,0.3 V 108 c 0,0.1 -0.1,0.2 -0.3,0.2 z"
     id="path60"
     inkscape:connector-curvature="0"
     style="fill:#110d0c" />
  <g
     id="g318">
    <path
       d="m 221.9,113.9 v 0.2 c 0,0.3 -0.2,0.5 -0.5,0.5 h -9.5 c -0.3,0 -0.5,-0.2 -0.5,-0.5 v -0.2 z m 12.1,0 v 0.2 c 0,0.3 -0.2,0.5 -0.5,0.5 H 224 c -0.3,0 -0.5,-0.2 -0.5,-0.5 v -0.2 z M 211.4,61 v -0.2 c 0,-0.3 0.2,-0.5 0.5,-0.5 h 9.5 c 0.3,0 0.5,0.2 0.5,0.5 V 61 Z m 12.1,0 v -0.2 c 0,-0.3 0.2,-0.5 0.5,-0.5 h 9.5 c 0.3,0 0.5,0.2 0.5,0.5 V 61 Z"
       id="path62"
       inkscape:connector-curvature="0"
       style="fill:#1b1e20" />
    <linearGradient
       id="a"
       gradientUnits="userSpaceOnUse"
       x1="448.06799"
       y1="4.6329999"
       x2="448.06799"
       y2="-112.556"
       gradientTransform="rotate(-90,412.808,122.689)">
      <stop
         offset=".031"
         stop-color="#261c19"
         id="stop64" />
      <stop
         offset=".156"
         stop-color="#261c19"
         id="stop66" />
      <stop
         offset=".885"
         stop-color="#261c19"
         id="stop68" />
      <stop
         offset=".936"
         stop-color="#231917"
         id="stop70" />
      <stop
         offset=".977"
         stop-color="#191110"
         id="stop72" />
      <stop
         offset=".987"
         stop-color="#150e0d"
         id="stop74" />
      <stop
         offset=".988"
         stop-color="#1d1513"
         id="stop76" />
      <stop
         offset=".991"
         stop-color="#241a18"
         id="stop78" />
      <stop
         offset="1"
         stop-color="#261c19"
         id="stop80" />
    </linearGradient>
    <path
       d="M 292.1,113.9 H 180.8 c -0.9,0 -1.7,-0.8 -1.7,-1.7 v -2.8 h -1.2 c -0.2,0 -0.3,-0.1 -0.3,-0.3 V 65.8 c 0,-0.2 0.1,-0.3 0.3,-0.3 h 1.2 v -2.8 c 0,-0.9 0.8,-1.7 1.7,-1.7 h 111.6 c 1.1,0 2,0.7 2.3,1.7 0.1,0.2 0.1,0.4 0.1,0.7 v 48.2 c 0,0.2 0,0.5 -0.1,0.7 -0.3,1 -1.2,1.7 -2.3,1.7 h -0.3 z"
       id="path83"
       inkscape:connector-curvature="0"
       style="fill:url(#a)" />
    <linearGradient
       id="b"
       gradientUnits="userSpaceOnUse"
       x1="428.94299"
       y1="-17.155001"
       x2="467.194"
       y2="-17.155001"
       gradientTransform="rotate(-90,412.808,122.689)">
      <stop
         offset="0"
         stop-color="#150e0d"
         id="stop85" />
      <stop
         offset=".061"
         stop-color="#1f1615"
         id="stop87" />
      <stop
         offset=".156"
         stop-color="#261b1a"
         id="stop89" />
      <stop
         offset=".413"
         stop-color="#281d1b"
         id="stop91" />
      <stop
         offset=".498"
         stop-color="#241d1c"
         id="stop93" />
      <stop
         offset=".645"
         stop-color="#261d1c"
         id="stop95" />
      <stop
         offset=".669"
         stop-color="#281d1b"
         id="stop97" />
      <stop
         offset=".827"
         stop-color="#251a19"
         id="stop99" />
      <stop
         offset=".954"
         stop-color="#1b1311"
         id="stop101" />
      <stop
         offset="1"
         stop-color="#150e0d"
         id="stop103" />
    </linearGradient>
    <circle
       cx="273"
       cy="87.400002"
       r="19.1"
       id="circle106"
       style="fill:url(#b)" />
    <circle
       cx="273"
       cy="87.400002"
       r="15.9"
       id="circle108"
       style="fill:#2a201f" />
    <circle
       cx="273"
       cy="87.400002"
       r="14.3"
       id="circle110"
       style="fill:#020101" />
    <circle
       cx="273"
       cy="87.400002"
       r="13.9"
       id="circle112"
       style="fill:#1e1514" />
    <path
       d="m 200.3,111.7 c -4.3,0 -8.2,-3.5 -8.2,-7.8 v -33 c 0,-4.3 3.9,-7.8 8.2,-7.8 m 45.2,0 c 4.3,0 8.2,3.5 8.2,7.8 V 104 c 0,4.3 -3.9,7.8 -8.2,7.8"
       id="path114"
       inkscape:connector-curvature="0"
       style="fill:#211715" />
    <path
       d="m 200.3,63.1 c -4.3,0 -7.8,3.5 -7.8,7.8 V 104 c 0,4.3 3.5,7.8 7.8,7.8 h 45.1 c 4.3,0 7.8,-3.5 7.8,-7.8 V 70.9 c 0,-4.3 -3.5,-7.8 -7.8,-7.8 z"
       id="path116"
       inkscape:connector-curvature="0"
       style="fill:#3b3130" />
    <path
       d="M 252.2,70.8 V 104 c 0,3.4 -2.8,6.1 -6.1,6.1 h -46.5 c -3.4,0 -6.1,-2.8 -6.1,-6.1 V 70.8 c 0,-3.4 2.8,-6.1 6.1,-6.1 h 46.5 c 3.4,0 6.1,2.8 6.1,6.1 z"
       id="path118"
       inkscape:connector-curvature="0"
       style="fill:#4a3937" />
    <path
       d="m 251,71.4 v 32 c 0,3 -2.4,5.4 -5.4,5.4 h -45.4 c -3,0 -5.4,-2.4 -5.4,-5.4 v -32 c 0,-3 2.4,-5.4 5.4,-5.4 h 45.4 c 3,0 5.4,2.4 5.4,5.4 z"
       id="path120"
       inkscape:connector-curvature="0"
       style="fill:#2d2223" />
    <path
       d="m 248.2,71.6 v 31.7 c 0,1.5 -1.2,2.7 -2.7,2.7 h -45.2 c -1.5,0 -2.7,-1.2 -2.7,-2.7 V 71.6 c 0,-1.5 1.2,-2.7 2.7,-2.7 h 45.2 c 1.5,0 2.7,1.2 2.7,2.7 z"
       id="path122"
       inkscape:connector-curvature="0"
       style="fill:#d4c1a0" />
    <path
       d="m 248.2,71.6 v 31.7 c 0,1.5 -1.2,2.7 -2.7,2.7 h -45.2 c -1.5,0 -2.7,-1.2 -2.7,-2.7 V 71.6 c 0,-1.5 1.2,-2.7 2.7,-2.7 h 45.2 c 1.5,-0.1 2.7,1.2 2.7,2.7 z m -50.5,31.7 c 0,1.5 1.2,2.6 2.6,2.6 h 45.2 c 1.5,0 2.6,-1.2 2.6,-2.6 V 71.6 c 0,-1.5 -1.2,-2.6 -2.6,-2.6 h -45.2 c -1.5,0 -2.6,1.2 -2.6,2.6 z"
       id="path124"
       inkscape:connector-curvature="0"
       style="fill:#682c00" />
    <path
       d="m 209.8,95.9 v 7.7 c 0,0.8 -0.6,1.4 -1.4,1.4 h -7.7 c -0.8,0 -1.4,-0.6 -1.4,-1.4 v -7.7 c 0,-0.8 0.6,-1.4 1.4,-1.4 h 7.7 c 0.7,0 1.4,0.6 1.4,1.4 z"
       id="path126"
       inkscape:connector-curvature="0"
       style="fill:#2e251a" />
    <path
       d="m 208.9,99.8 c 0,-1.7 -0.3,-3 -0.6,-3.7 -0.3,-0.6 -1.5,-0.7 -3.8,-0.7 -2.3,0 -3.5,0.1 -3.8,0.7 -0.4,0.7 -0.6,2 -0.6,3.7 0,1.7 0.3,3 0.6,3.7 0.3,0.6 1.5,0.7 3.8,0.7 2.3,0 3.5,-0.1 3.8,-0.7 0.3,-0.7 0.6,-2 0.6,-3.7 z"
       id="path128"
       inkscape:connector-curvature="0"
       style="fill:#d3c09e" />
    <path
       d="m 204.3,103.4 h 0.1 c 2,0 3.6,-1.6 3.6,-3.6 0,-2 -1.6,-3.6 -3.6,-3.6 h -0.1 c -1.9,0.1 -3.5,1.7 -3.5,3.6 0.1,1.9 1.6,3.5 3.5,3.6 z"
       id="path130"
       inkscape:connector-curvature="0"
       style="fill:#d2b892" />
    <path
       stroke-miterlimit="10"
       d="m 209.8,83.7 v 7.7 c 0,0.8 -0.6,1.4 -1.4,1.4 h -7.7 c -0.8,0 -1.4,-0.6 -1.4,-1.4 v -7.7 c 0,-0.8 0.6,-1.4 1.4,-1.4 h 7.7 c 0.7,0 1.4,0.6 1.4,1.4 z"
       id="path132"
       inkscape:connector-curvature="0"
       style="fill:none;stroke:#682c00;stroke-width:0.113;stroke-miterlimit:10" />
    <path
       d="m 209.8,83.7 v 7.7 c 0,0.8 -0.6,1.4 -1.4,1.4 h -7.7 c -0.8,0 -1.4,-0.6 -1.4,-1.4 v -7.7 c 0,-0.8 0.6,-1.4 1.4,-1.4 h 7.7 c 0.7,0 1.4,0.6 1.4,1.4 z"
       id="path134"
       inkscape:connector-curvature="0"
       style="fill:#2c2316" />
    <path
       d="m 208.9,87.6 c 0,-1.7 -0.3,-3 -0.6,-3.7 -0.3,-0.6 -1.5,-0.7 -3.8,-0.7 -2.3,0 -3.5,0.1 -3.8,0.7 -0.4,0.7 -0.6,2 -0.6,3.7 0,1.7 0.3,3 0.6,3.7 0.3,0.6 1.5,0.7 3.8,0.7 2.3,0 3.5,-0.1 3.8,-0.7 0.3,-0.7 0.6,-2 0.6,-3.7 z"
       id="path136"
       inkscape:connector-curvature="0"
       style="fill:#d3c09e" />
    <circle
       cx="204.5"
       cy="87.599998"
       r="3.5999999"
       id="circle138"
       style="fill:#d2b892" />
    <path
       d="m 209.8,71.5 v 7.7 c 0,0.8 -0.6,1.4 -1.4,1.4 h -7.7 c -0.8,0 -1.4,-0.6 -1.4,-1.4 v -7.7 c 0,-0.8 0.6,-1.4 1.4,-1.4 h 7.7 c 0.7,0 1.4,0.6 1.4,1.4 z"
       id="path140"
       inkscape:connector-curvature="0"
       style="fill:#2c2316" />
    <path
       d="m 208.9,75.4 c 0,-1.7 -0.3,-3 -0.6,-3.7 -0.3,-0.6 -1.5,-0.7 -3.8,-0.7 -2.3,0 -3.5,0.1 -3.8,0.7 -0.4,0.7 -0.6,2 -0.6,3.7 0,1.7 0.3,3 0.6,3.7 0.3,0.6 1.5,0.7 3.8,0.7 2.3,0 3.5,-0.1 3.8,-0.7 0.3,-0.7 0.6,-2 0.6,-3.7 z"
       id="path142"
       inkscape:connector-curvature="0"
       style="fill:#d3c09e" />
    <circle
       cx="204.5"
       cy="75.400002"
       r="3.5999999"
       id="circle144"
       style="fill:#d2b892" />
    <path
       d="m 222,95.9 v 7.7 c 0,0.8 -0.6,1.4 -1.4,1.4 h -7.7 c -0.8,0 -1.4,-0.6 -1.4,-1.4 v -7.7 c 0,-0.8 0.6,-1.4 1.4,-1.4 h 7.7 c 0.7,0 1.4,0.6 1.4,1.4 z"
       id="path146"
       inkscape:connector-curvature="0"
       style="fill:#2c2316" />
    <path
       d="m 221.1,99.8 c 0,-1.7 -0.3,-3 -0.6,-3.7 -0.3,-0.6 -1.5,-0.7 -3.8,-0.7 -2.3,0 -3.5,0.1 -3.8,0.7 -0.4,0.7 -0.6,2 -0.6,3.7 0,1.7 0.3,3 0.6,3.7 0.3,0.6 1.5,0.7 3.8,0.7 2.3,0 3.5,-0.1 3.8,-0.7 0.3,-0.7 0.6,-2 0.6,-3.7 z"
       id="path148"
       inkscape:connector-curvature="0"
       style="fill:#d3c09e" />
    <circle
       cx="216.7"
       cy="99.800003"
       r="3.5999999"
       id="circle150"
       style="fill:#d2b892" />
    <path
       d="m 222,83.7 v 7.7 c 0,0.8 -0.6,1.4 -1.4,1.4 h -7.7 c -0.8,0 -1.4,-0.6 -1.4,-1.4 v -7.7 c 0,-0.8 0.6,-1.4 1.4,-1.4 h 7.7 c 0.7,0 1.4,0.6 1.4,1.4 z"
       id="path152"
       inkscape:connector-curvature="0"
       style="fill:#2c2316" />
    <path
       d="m 221.1,87.6 c 0,-1.7 -0.3,-3 -0.6,-3.7 -0.3,-0.6 -1.5,-0.7 -3.8,-0.7 -2.3,0 -3.5,0.1 -3.8,0.7 -0.4,0.7 -0.6,2 -0.6,3.7 0,1.7 0.3,3 0.6,3.7 0.3,0.6 1.5,0.7 3.8,0.7 2.3,0 3.5,-0.1 3.8,-0.7 0.3,-0.7 0.6,-2 0.6,-3.7 z"
       id="path154"
       inkscape:connector-curvature="0"
       style="fill:#d3c09e" />
    <circle
       cx="216.7"
       cy="87.599998"
       r="3.5999999"
       id="circle156"
       style="fill:#d2b892" />
    <path
       d="m 222,71.5 v 7.7 c 0,0.8 -0.6,1.4 -1.4,1.4 h -7.7 c -0.8,0 -1.4,-0.6 -1.4,-1.4 v -7.7 c 0,-0.8 0.6,-1.4 1.4,-1.4 h 7.7 c 0.7,0 1.4,0.6 1.4,1.4 z"
       id="path158"
       inkscape:connector-curvature="0"
       style="fill:#2c2316" />
    <path
       d="m 221.1,75.4 c 0,-1.7 -0.3,-3 -0.6,-3.7 -0.3,-0.6 -1.5,-0.7 -3.8,-0.7 -2.3,0 -3.5,0.1 -3.8,0.7 -0.4,0.7 -0.6,2 -0.6,3.7 0,1.7 0.3,3 0.6,3.7 0.3,0.6 1.5,0.7 3.8,0.7 2.3,0 3.5,-0.1 3.8,-0.7 0.3,-0.7 0.6,-2 0.6,-3.7 z"
       id="path160"
       inkscape:connector-curvature="0"
       style="fill:#d3c09e" />
    <circle
       cx="216.7"
       cy="75.400002"
       r="3.5999999"
       id="circle162"
       style="fill:#d2b892" />
    <path
       d="m 234.2,95.9 v 7.7 c 0,0.8 -0.6,1.4 -1.4,1.4 H 225 c -0.8,0 -1.4,-0.6 -1.4,-1.4 v -7.7 c 0,-0.8 0.6,-1.4 1.4,-1.4 h 7.7 c 0.8,0 1.5,0.6 1.5,1.4 z"
       id="path164"
       inkscape:connector-curvature="0"
       style="fill:#2c2316" />
    <path
       d="m 233.3,99.8 c 0,-1.7 -0.3,-3 -0.6,-3.7 -0.3,-0.6 -1.5,-0.7 -3.8,-0.7 -2.3,0 -3.5,0.1 -3.8,0.7 -0.4,0.7 -0.6,2 -0.6,3.7 0,1.7 0.3,3 0.6,3.7 0.3,0.6 1.5,0.7 3.8,0.7 2.3,0 3.5,-0.1 3.8,-0.7 0.4,-0.7 0.6,-2 0.6,-3.7 z"
       id="path166"
       inkscape:connector-curvature="0"
       style="fill:#d3c09e" />
    <circle
       cx="228.89999"
       cy="99.800003"
       r="3.5999999"
       id="circle168"
       style="fill:#d2b892" />
    <path
       d="m 234.2,83.7 v 7.7 c 0,0.8 -0.6,1.4 -1.4,1.4 H 225 c -0.8,0 -1.4,-0.6 -1.4,-1.4 v -7.7 c 0,-0.8 0.6,-1.4 1.4,-1.4 h 7.7 c 0.8,0 1.5,0.6 1.5,1.4 z"
       id="path170"
       inkscape:connector-curvature="0"
       style="fill:#2c2316" />
    <path
       d="m 233.3,87.6 c 0,-1.7 -0.3,-3 -0.6,-3.7 -0.3,-0.6 -1.5,-0.7 -3.8,-0.7 -2.3,0 -3.5,0.1 -3.8,0.7 -0.4,0.7 -0.6,2 -0.6,3.7 0,1.7 0.3,3 0.6,3.7 0.3,0.6 1.5,0.7 3.8,0.7 2.3,0 3.5,-0.1 3.8,-0.7 0.4,-0.7 0.6,-2 0.6,-3.7 z"
       id="path172"
       inkscape:connector-curvature="0"
       style="fill:#d3c09e" />
    <circle
       cx="228.89999"
       cy="87.599998"
       r="3.5999999"
       id="circle174"
       style="fill:#d2b892" />
    <path
       d="m 234.2,71.5 v 7.7 c 0,0.8 -0.6,1.4 -1.4,1.4 H 225 c -0.8,0 -1.4,-0.6 -1.4,-1.4 v -7.7 c 0,-0.8 0.6,-1.4 1.4,-1.4 h 7.7 c 0.8,0 1.5,0.6 1.5,1.4 z"
       id="path176"
       inkscape:connector-curvature="0"
       style="fill:#2c2316" />
    <path
       d="m 233.3,75.4 c 0,-1.7 -0.3,-3 -0.6,-3.7 -0.3,-0.6 -1.5,-0.7 -3.8,-0.7 -2.3,0 -3.5,0.1 -3.8,0.7 -0.4,0.7 -0.6,2 -0.6,3.7 0,1.7 0.3,3 0.6,3.7 0.3,0.6 1.5,0.7 3.8,0.7 2.3,0 3.5,-0.1 3.8,-0.7 0.4,-0.7 0.6,-2 0.6,-3.7 z"
       id="path178"
       inkscape:connector-curvature="0"
       style="fill:#d3c09e" />
    <circle
       cx="228.89999"
       cy="75.400002"
       r="3.5999999"
       id="circle180"
       style="fill:#d2b892" />
    <path
       d="m 246.4,95.9 v 7.7 c 0,0.8 -0.6,1.4 -1.4,1.4 h -7.7 c -0.8,0 -1.4,-0.6 -1.4,-1.4 v -7.7 c 0,-0.8 0.6,-1.4 1.4,-1.4 h 7.7 c 0.7,0 1.4,0.6 1.4,1.4 z"
       id="path182"
       inkscape:connector-curvature="0"
       style="fill:#2c2316" />
    <path
       d="m 245.5,99.8 c 0,-1.7 -0.3,-3 -0.6,-3.7 -0.3,-0.6 -1.5,-0.7 -3.8,-0.7 -2.3,0 -3.5,0.1 -3.8,0.7 -0.4,0.7 -0.6,2 -0.6,3.7 0,1.7 0.3,3 0.6,3.7 0.3,0.6 1.5,0.7 3.8,0.7 2.3,0 3.5,-0.1 3.8,-0.7 0.4,-0.7 0.6,-2 0.6,-3.7 z"
       id="path184"
       inkscape:connector-curvature="0"
       style="fill:#d3c09e" />
    <circle
       cx="241.10001"
       cy="99.800003"
       r="3.5999999"
       id="circle186"
       style="fill:#d2b892" />
    <path
       d="m 246.4,83.7 v 7.7 c 0,0.8 -0.6,1.4 -1.4,1.4 h -7.7 c -0.8,0 -1.4,-0.6 -1.4,-1.4 v -7.7 c 0,-0.8 0.6,-1.4 1.4,-1.4 h 7.7 c 0.7,0 1.4,0.6 1.4,1.4 z"
       id="path188"
       inkscape:connector-curvature="0"
       style="fill:#2c2316" />
    <path
       d="m 245.5,87.6 c 0,-1.7 -0.3,-3 -0.6,-3.7 -0.3,-0.6 -1.5,-0.7 -3.8,-0.7 -2.3,0 -3.5,0.1 -3.8,0.7 -0.4,0.7 -0.6,2 -0.6,3.7 0,1.7 0.3,3 0.6,3.7 0.3,0.6 1.5,0.7 3.8,0.7 2.3,0 3.5,-0.1 3.8,-0.7 0.4,-0.7 0.6,-2 0.6,-3.7 z"
       id="path190"
       inkscape:connector-curvature="0"
       style="fill:#d3c09e" />
    <circle
       cx="241.10001"
       cy="87.599998"
       r="3.5999999"
       id="circle192"
       style="fill:#d2b892" />
    <path
       d="m 246.4,71.5 v 7.7 c 0,0.8 -0.6,1.4 -1.4,1.4 h -7.7 c -0.8,0 -1.4,-0.6 -1.4,-1.4 v -7.7 c 0,-0.8 0.6,-1.4 1.4,-1.4 h 7.7 c 0.7,0 1.4,0.6 1.4,1.4 z"
       id="path194"
       inkscape:connector-curvature="0"
       style="fill:#2c2316" />
    <path
       d="m 245.5,75.4 c 0,-1.7 -0.3,-3 -0.6,-3.7 -0.3,-0.6 -1.5,-0.7 -3.8,-0.7 -2.3,0 -3.5,0.1 -3.8,0.7 -0.4,0.7 -0.6,2 -0.6,3.7 0,1.7 0.3,3 0.6,3.7 0.3,0.6 1.5,0.7 3.8,0.7 2.3,0 3.5,-0.1 3.8,-0.7 0.4,-0.7 0.6,-2 0.6,-3.7 z"
       id="path196"
       inkscape:connector-curvature="0"
       style="fill:#d3c09e" />
    <circle
       cx="241.10001"
       cy="75.400002"
       r="3.5999999"
       id="circle198"
       style="fill:#d2b892" />
    <path
       d="m 204.3,102.4 c 0,-0.9 -0.1,-2.2 -0.1,-2.6 0,-0.5 0,-1.7 0.1,-2.6 0,-0.4 0,-0.8 0.1,-1 h 0.1 c 2,0 3.6,1.6 3.6,3.6 0,2 -1.6,3.6 -3.6,3.6 h -0.1 c -0.1,-0.2 -0.1,-0.6 -0.1,-1 z"
       id="path200"
       inkscape:connector-curvature="0"
       style="fill:#c8ab7a" />
    <path
       d="m 204.3,102.4 c 1.5,0 2.7,-1.2 2.7,-2.6 0,-1.5 -1.2,-2.6 -2.7,-2.6 0,0.9 -0.1,2.2 -0.1,2.6 0,0.4 0,1.7 0.1,2.6"
       id="path202"
       inkscape:connector-curvature="0"
       style="fill:#cdb487" />
    <path
       d="m 203.3,100.1 v -1 h 2.3 v 0.6 h -1.8 v 0.2 l 0.6,0.7 -0.4,0.4 z"
       id="path204"
       inkscape:connector-curvature="0"
       style="fill:#312a20" />
    <path
       d="m 204.3,90.2 c 0,-0.9 -0.1,-2.2 -0.1,-2.6 0,-0.5 0,-1.7 0.1,-2.6 0,-0.4 0,-0.8 0.1,-1 h 0.1 c 2,0 3.6,1.6 3.6,3.6 0,2 -1.6,3.6 -3.6,3.6 h -0.1 c -0.1,-0.2 -0.1,-0.6 -0.1,-1 z"
       id="path206"
       inkscape:connector-curvature="0"
       style="fill:#c8ab7a" />
    <path
       d="m 204.3,90.2 c 1.5,0 2.7,-1.2 2.7,-2.6 0,-1.5 -1.2,-2.6 -2.7,-2.6 0,0.9 -0.1,2.2 -0.1,2.6 0,0.4 0,1.7 0.1,2.6"
       id="path208"
       inkscape:connector-curvature="0"
       style="fill:#cdb487" />
    <path
       d="m 204.3,87.1 v -0.2 c 0,0 -0.1,-0.1 -0.2,-0.1 -0.1,0 -0.1,0 -0.2,0.1 v 1 c 0,0.1 0,0.2 0.1,0.2 0,0.1 0.1,0.1 0.2,0.1 v 0.6 H 204 c -0.1,0 -0.3,-0.1 -0.4,-0.2 -0.1,-0.1 -0.1,-0.3 -0.1,-0.4 v -1.4 c 0,-0.2 0,-0.3 0.1,-0.4 0.1,-0.1 0.2,-0.2 0.4,-0.2 h 0.2 c 0.2,0 0.4,0.1 0.5,0.2 0.1,0.1 0.1,0.3 0.1,0.4 V 88 c 0,0.1 0,0.1 0.1,0.2 0,0 0.1,0.1 0.2,0.1 h 0.2 v -2 h 0.5 v 2.6 H 205 c -0.2,0 -0.3,-0.1 -0.4,-0.2 -0.1,-0.1 -0.1,-0.3 -0.1,-0.5 v -1.1 z"
       id="path210"
       inkscape:connector-curvature="0"
       style="fill:#312a20" />
    <path
       d="m 204.3,78 c 0,-0.9 -0.1,-2.2 -0.1,-2.6 0,-0.5 0,-1.7 0.1,-2.6 0,-0.4 0,-0.8 0.1,-1 h 0.1 c 2,0 3.6,1.6 3.6,3.6 0,2 -1.6,3.6 -3.6,3.6 h -0.1 c -0.1,-0.2 -0.1,-0.6 -0.1,-1 z"
       id="path212"
       inkscape:connector-curvature="0"
       style="fill:#c8ab7a" />
    <path
       d="m 204.3,78 c 1.5,0 2.7,-1.2 2.7,-2.6 0,-1.5 -1.2,-2.6 -2.7,-2.6 0,0.9 -0.1,2.2 -0.1,2.6 0,0.4 0,1.7 0.1,2.6"
       id="path214"
       inkscape:connector-curvature="0"
       style="fill:#cdb487" />
    <path
       d="m 204.3,74.3 c 0.1,0 0.1,0.1 0.2,0.1 0,-0.1 0.1,-0.1 0.2,-0.1 h 0.5 c 0.1,0 0.3,0.1 0.4,0.2 0.1,0.1 0.1,0.3 0.1,0.4 v 1.4 c 0,0.2 0,0.3 -0.1,0.4 -0.1,0.1 -0.2,0.2 -0.4,0.2 h -0.3 v -0.6 c 0.1,0 0.1,0 0.2,-0.1 0.1,-0.1 0.1,-0.1 0.1,-0.2 V 75.2 75 c 0,0 -0.1,-0.1 -0.2,-0.1 h -0.1 v 0.7 h -0.4 V 75 74.8 c 0,0 -0.1,-0.1 -0.2,-0.1 -0.1,0 -0.1,0 -0.2,0.1 v 1 c 0,0.1 0,0.2 0.1,0.2 0.1,0 0.1,0.1 0.2,0.1 v 0.6 h -0.2 c -0.1,0 -0.3,-0.1 -0.4,-0.2 -0.1,-0.1 -0.1,-0.3 -0.1,-0.4 v -1.4 c 0,-0.2 0,-0.3 0.1,-0.4 0.1,-0.1 0.2,-0.2 0.4,-0.2 h 0.2 c -0.2,0.1 -0.1,0.1 -0.1,0.2 z"
       id="path216"
       inkscape:connector-curvature="0"
       style="fill:#312a20" />
    <path
       d="m 216.5,102.4 c 0,-0.9 -0.1,-2.2 -0.1,-2.6 0,-0.5 0,-1.7 0.1,-2.6 0,-0.4 0,-0.8 0.1,-1 h 0.1 c 2,0 3.6,1.6 3.6,3.6 0,2 -1.6,3.6 -3.6,3.6 h -0.1 c 0,-0.2 -0.1,-0.6 -0.1,-1 z"
       id="path218"
       inkscape:connector-curvature="0"
       style="fill:#c8ab7a" />
    <path
       d="m 216.5,102.4 c 1.5,0 2.7,-1.2 2.7,-2.6 0,-1.5 -1.2,-2.6 -2.7,-2.6 0,0.9 -0.1,2.2 -0.1,2.6 0,0.4 0.1,1.7 0.1,2.6"
       id="path220"
       inkscape:connector-curvature="0"
       style="fill:#cdb487" />
    <path
       d="m 216.6,101.2 -1,-1.4 v -1 h 1.3 v -0.4 h 0.5 v 0.4 h 0.5 v 0.6 h -0.5 v 1.8 z m 0.2,-1.8 H 216 v 0.1 l 0.7,1.1 h 0.1 z"
       id="path222"
       inkscape:connector-curvature="0"
       style="fill:#312a20" />
    <path
       d="m 216.5,90.2 c 0,-0.9 -0.1,-2.2 -0.1,-2.6 0,-0.4 0,-1.7 0.1,-2.6 0,-0.4 0,-0.8 0.1,-1 h 0.1 c 2,0 3.6,1.6 3.6,3.6 0,2 -1.6,3.6 -3.6,3.6 h -0.1 c -0.1,-0.2 -0.1,-0.6 -0.1,-1 z"
       id="path224"
       inkscape:connector-curvature="0"
       style="fill:#c8ab7a" />
    <path
       d="m 216.5,90.2 c 1.5,0 2.7,-1.2 2.7,-2.6 0,-1.4 -1.2,-2.6 -2.7,-2.6 0,0.9 -0.1,2.2 -0.1,2.6 0,0.4 0,1.7 0.1,2.6"
       id="path226"
       inkscape:connector-curvature="0"
       style="fill:#cdb487" />
    <path
       d="m 216.9,88.9 h -1.4 v -2.6 h 0.5 v 2 h 0.4 l -0.1,-0.1 V 87 c 0,-0.2 0,-0.3 0.1,-0.4 0.1,-0.1 0.3,-0.2 0.5,-0.2 h 0.3 c 0.1,0 0.3,0.1 0.4,0.2 0.1,0.1 0.1,0.3 0.1,0.4 v 1.4 c 0,0.2 0,0.4 -0.1,0.5 -0.1,0.1 -0.2,0.2 -0.4,0.2 h -0.1 v -0.6 c 0,0 0.1,0 0.1,-0.1 v -1.1 c 0,-0.1 0,-0.1 -0.1,-0.2 h -0.2 c -0.1,0 -0.1,0 -0.2,0.1 l -0.1,0.1 v 0.8 l 0.1,0.1 v 0.7 z"
       id="path228"
       inkscape:connector-curvature="0"
       style="fill:#312a20" />
    <path
       d="m 216.5,78 c 0,-0.9 -0.1,-2.2 -0.1,-2.6 0,-0.5 0,-1.7 0.1,-2.6 0,-0.4 0,-0.8 0.1,-1 h 0.1 c 2,0 3.6,1.6 3.6,3.6 0,2 -1.6,3.6 -3.6,3.6 h -0.1 c 0,-0.2 -0.1,-0.6 -0.1,-1 z"
       id="path230"
       inkscape:connector-curvature="0"
       style="fill:#c8ab7a" />
    <path
       d="m 216.5,78 c 1.5,0 2.7,-1.2 2.7,-2.6 0,-1.5 -1.2,-2.6 -2.7,-2.6 0,0.9 -0.1,2.2 -0.1,2.6 0,0.4 0.1,1.7 0.1,2.6"
       id="path232"
       inkscape:connector-curvature="0"
       style="fill:#cdb487" />
    <path
       d="m 216.1,74.9 v 1.3 c 0,0 0.1,0.1 0.2,0.1 h 0.3 l -0.1,-0.1 V 75 c 0,-0.2 0,-0.3 0.1,-0.4 0.1,-0.1 0.3,-0.2 0.5,-0.2 h 0.3 c 0.1,0 0.3,0.1 0.4,0.2 0.1,0.1 0.1,0.3 0.1,0.4 v 1.4 c 0,0.2 0,0.4 -0.1,0.5 -0.1,0.1 -0.2,0.2 -0.4,0.2 h -1.3 c -0.2,0 -0.3,-0.1 -0.4,-0.2 -0.1,-0.1 -0.1,-0.3 -0.1,-0.5 V 75 c 0,-0.2 0,-0.3 0.1,-0.4 0.1,-0.1 0.2,-0.2 0.4,-0.2 h 0.1 z m 0.8,0 -0.1,0.1 v 1 c 0,0.1 0,0.1 0.1,0.2 0,0 0.1,0.1 0.2,0.1 0.1,0 0.1,0 0.2,-0.1 0,0 0.1,-0.1 0.1,-0.2 v -1 c 0,-0.1 0,-0.1 -0.1,-0.1 0,0 -0.1,-0.1 -0.2,-0.1 -0.1,0 -0.1,0.1 -0.2,0.1 z"
       id="path234"
       inkscape:connector-curvature="0"
       style="fill:#312a20" />
    <path
       d="m 228.6,102.4 c 0,-0.9 -0.1,-2.2 -0.1,-2.6 0,-0.5 0,-1.7 0.1,-2.6 0,-0.4 0,-0.8 0.1,-1 h 0.1 c 2,0 3.6,1.6 3.6,3.6 0,2 -1.6,3.6 -3.6,3.6 h -0.1 c 0,-0.2 -0.1,-0.6 -0.1,-1 z"
       id="path236"
       inkscape:connector-curvature="0"
       style="fill:#c8ab7a" />
    <path
       d="m 228.6,102.4 c 1.5,0 2.7,-1.2 2.7,-2.6 0,-1.5 -1.2,-2.6 -2.7,-2.6 0,0.9 -0.1,2.2 -0.1,2.6 0.1,0.4 0.1,1.7 0.1,2.6"
       id="path238"
       inkscape:connector-curvature="0"
       style="fill:#cdb487" />
    <path
       d="m 227.6,98.5 0.5,-0.1 1.8,1.3 v 0.8 l -1.8,-1.3 v 1.8 h -0.5 z"
       id="path240"
       inkscape:connector-curvature="0"
       style="fill:#312a20" />
    <path
       d="m 228.8,90.2 c 0,-0.9 -0.1,-2.2 -0.1,-2.6 0,-0.5 0,-1.7 0.1,-2.6 0,-0.4 0,-0.8 0.1,-1 h 0.1 c 2,0 3.6,1.6 3.6,3.6 0,2 -1.6,3.6 -3.6,3.6 h -0.1 c 0,-0.2 -0.1,-0.6 -0.1,-1 z"
       id="path242"
       inkscape:connector-curvature="0"
       style="fill:#c8ab7a" />
    <path
       d="m 228.8,90.2 c 1.5,0 2.7,-1.2 2.7,-2.6 0,-1.5 -1.2,-2.6 -2.7,-2.6 0,0.9 -0.1,2.2 -0.1,2.6 0,0.4 0.1,1.7 0.1,2.6"
       id="path244"
       inkscape:connector-curvature="0"
       style="fill:#cdb487" />
    <path
       d="m 228.6,88.8 c -0.1,0.1 -0.1,0.1 -0.2,0.1 h -0.3 c -0.1,0 -0.3,-0.1 -0.4,-0.2 -0.1,-0.1 -0.1,-0.3 -0.1,-0.4 v -1.4 c 0,-0.2 0,-0.4 0.1,-0.5 0.1,-0.1 0.2,-0.2 0.4,-0.2 h 0.2 c 0.1,0 0.2,0 0.3,0.1 0,0 0.1,0.1 0.1,0.2 0.1,-0.1 0.1,-0.2 0.2,-0.2 h 0.5 c 0.2,0 0.3,0.1 0.4,0.2 0.1,0.1 0.1,0.3 0.1,0.5 v 1.4 c 0,0.2 0,0.3 -0.1,0.4 -0.1,0.1 -0.2,0.2 -0.4,0.2 h -0.3 c -0.1,0 -0.2,0 -0.3,-0.1 0,0 0,-0.1 -0.1,-0.1 0,-0.1 0,0 -0.1,0 z m 0.7,-0.6 v -1.1 c 0,-0.1 0,-0.1 -0.1,-0.2 0,0 -0.1,-0.1 -0.2,-0.1 -0.1,0 -0.1,0 -0.2,0.1 v 1.3 h 0.2 c 0.3,0.1 0.3,0 0.3,0 z M 228.6,88 v -0.9 c 0,-0.1 0,-0.1 -0.1,-0.2 0,0 -0.1,-0.1 -0.2,-0.1 -0.1,0 -0.1,0 -0.2,0.1 0,0 -0.1,0.1 -0.1,0.2 V 88 c 0,0.1 0,0.1 0.1,0.2 h 0.2 c 0.2,0 0.3,0 0.3,-0.2 z"
       id="path246"
       inkscape:connector-curvature="0"
       style="fill:#312a20" />
    <path
       d="m 228.6,78 c 0,-0.9 -0.1,-2.2 -0.1,-2.6 0,-0.5 0,-1.7 0.1,-2.6 0,-0.4 0,-0.8 0.1,-1 h 0.1 c 2,0 3.6,1.6 3.6,3.6 0,2 -1.6,3.6 -3.6,3.6 h -0.1 c 0,-0.2 -0.1,-0.6 -0.1,-1 z"
       id="path248"
       inkscape:connector-curvature="0"
       style="fill:#c8ab7a" />
    <path
       d="m 228.6,78 c 1.5,0 2.7,-1.2 2.7,-2.6 0,-1.5 -1.2,-2.6 -2.7,-2.6 0,0.9 -0.1,2.2 -0.1,2.6 0.1,0.4 0.1,1.7 0.1,2.6"
       id="path250"
       inkscape:connector-curvature="0"
       style="fill:#cdb487" />
    <path
       d="M 229.4,76.1 V 75 c 0,-0.1 0,-0.1 -0.1,-0.2 0,0 -0.1,-0.1 -0.2,-0.1 h -0.3 l 0.1,0.1 V 76 c 0,0.2 0,0.3 -0.1,0.4 -0.1,0.1 -0.3,0.2 -0.5,0.2 H 228 c -0.1,0 -0.3,-0.1 -0.4,-0.2 -0.1,-0.1 -0.1,-0.3 -0.1,-0.4 v -1.4 c 0,-0.2 0,-0.4 0.1,-0.5 0.1,-0.1 0.2,-0.2 0.4,-0.2 h 1.3 c 0.2,0 0.3,0.1 0.4,0.2 0.1,0.1 0.1,0.3 0.1,0.5 V 76 c 0,0.2 0,0.3 -0.1,0.4 -0.1,0.1 -0.2,0.2 -0.4,0.2 h -0.1 l 0.2,-0.5 c -0.1,0 -0.1,0 0,0 z m -0.9,0 0.1,-0.1 v -1 c 0,-0.1 0,-0.1 -0.1,-0.2 0,0 -0.1,-0.1 -0.2,-0.1 -0.1,0 -0.1,0 -0.2,0.1 0,0 -0.1,0.1 -0.1,0.2 v 1 c 0,0.1 0,0.1 0.1,0.1 0,0 0.1,0.1 0.2,0.1 0.1,0 0.2,-0.1 0.2,-0.1 z"
       id="path252"
       inkscape:connector-curvature="0"
       style="fill:#312a20" />
    <path
       d="m 240.8,102.4 c 0,-0.9 -0.1,-2.2 -0.1,-2.6 0,-0.5 0,-1.7 0.1,-2.6 0,-0.4 0,-0.8 0.1,-1 h 0.1 c 2,0 3.6,1.6 3.6,3.6 0,2 -1.6,3.6 -3.6,3.6 h -0.1 c 0,-0.2 0,-0.6 -0.1,-1 z"
       id="path254"
       inkscape:connector-curvature="0"
       style="fill:#c8ab7a" />
    <path
       d="m 240.9,102.4 c 1.5,0 2.7,-1.2 2.7,-2.6 0,-1.5 -1.2,-2.6 -2.7,-2.6 0,0.9 -0.1,2.2 -0.1,2.6 0,0.4 0,1.7 0.1,2.6"
       id="path256"
       inkscape:connector-curvature="0"
       style="fill:#cdb487" />
    <path
       d="m 241.2,101.4 h 0.2 c 0.1,0 0.1,0 0.2,0.1 0.1,0.1 0.1,0.1 0.1,0.2 v 0.8 c 0,0.1 0,0.1 -0.1,0.2 -0.1,0 -0.1,0.1 -0.2,0.1 h -0.7 c -0.1,0 -0.1,0 -0.2,-0.1 -0.1,-0.1 -0.1,-0.1 -0.1,-0.2 v -0.8 c 0,-0.1 0,-0.1 0.1,-0.2 0.1,0 0.1,-0.1 0.2,-0.1 h 0.2 v 0.3 h -0.1 v 0.5 h 0.5 v -0.4 -0.1 h -0.1 z m -1.5,-0.5 h 1.9 v 0.3 h -1.9 z m 1.5,-0.6 c 0,0 0.1,0 0,0 0.1,0 0.1,-0.1 0.1,-0.1 v -0.3 -0.1 h -0.1 v -0.3 h 0.2 c 0.1,0 0.1,0 0.2,0.1 0.1,0.1 0.1,0.1 0.1,0.2 v 0.8 c 0,0.1 0,0.1 -0.1,0.2 -0.1,0 -0.1,0.1 -0.2,0.1 h -0.7 c -0.1,0 -0.1,0 -0.2,-0.1 -0.1,-0.1 -0.1,-0.1 -0.1,-0.2 v -0.8 c 0,-0.1 0,-0.1 0.1,-0.2 0.1,0 0.1,-0.1 0.2,-0.1 h 0.4 v 0.9 h 0.1 z m -0.3,-0.6 h -0.1 v 0.6 h 0.1 z m 0.7,-1.3 V 99 c 0,0.1 0,0.1 -0.1,0.2 -0.1,0 -0.1,0.1 -0.2,0.1 h -0.2 c -0.1,0 -0.2,0 -0.2,-0.1 -0.1,0 -0.1,-0.1 -0.1,-0.2 v -0.5 -0.1 l 0.1,-0.1 h -0.2 -0.1 v 0.6 h 0.1 v 0.3 h -0.1 c -0.1,0 -0.1,0 -0.2,-0.1 -0.1,-0.1 -0.1,-0.1 -0.1,-0.2 v -0.7 c 0,-0.1 0,-0.1 0.1,-0.2 0.1,-0.1 0.1,-0.1 0.2,-0.1 h 1 v 0.5 l -0.1,-0.1 c 0.1,0 0.1,0.1 0.1,0.1 z m -0.4,0.4 c 0,0 0,0.1 0,0 l 0.1,0.1 h 0.1 v -0.4 -0.1 h -0.1 -0.1 z M 240.9,97 c -0.1,0 -0.1,0 -0.1,0.1 v 0.1 c 0,0 0,0.1 0.1,0.1 h 0.9 v 0.3 h -1.3 v -0.3 h 0.2 l -0.1,-0.1 v -0.4 c 0,-0.1 0,-0.1 0.1,-0.2 0.1,-0.1 0.1,-0.1 0.2,-0.1 h 0.3 z"
       id="path258"
       inkscape:connector-curvature="0"
       style="fill:#312a20" />
    <path
       d="m 240.8,90.2 c 0,-0.9 -0.1,-2.2 -0.1,-2.6 0,-0.5 0,-1.7 0.1,-2.6 0,-0.4 0,-0.8 0.1,-1 h 0.1 c 2,0 3.6,1.6 3.6,3.6 0,2 -1.6,3.6 -3.6,3.6 h -0.1 c 0,-0.2 0,-0.5 -0.1,-1 z"
       id="path260"
       inkscape:connector-curvature="0"
       style="fill:#c8ab7a" />
    <path
       d="m 240.9,90.2 c 1.5,0 2.7,-1.2 2.7,-2.6 0,-1.5 -1.2,-2.6 -2.7,-2.6 0,0.9 -0.1,2.2 -0.1,2.6 0,0.4 0,1.7 0.1,2.6"
       id="path262"
       inkscape:connector-curvature="0"
       style="fill:#cdb487" />
    <path
       d="m 241.5,86.2 c 0.1,0 0.3,0.1 0.4,0.2 0.1,0.1 0.1,0.3 0.1,0.4 v 1.5 c 0,0.2 0,0.3 -0.1,0.5 -0.1,0.1 -0.2,0.2 -0.4,0.2 h -1.3 c -0.1,0 -0.2,-0.1 -0.3,-0.2 -0.1,-0.1 -0.2,-0.3 -0.2,-0.4 v -1.5 c 0,-0.2 0,-0.3 0.1,-0.5 0.1,-0.1 0.2,-0.2 0.4,-0.2 z m -1.2,0.7 c -0.1,0.1 -0.1,0.2 -0.1,0.3 V 88 c 0,0.1 0,0.2 0.1,0.3 0.1,0.1 0.1,0.1 0.2,0.1 h 0.7 c 0.1,0 0.1,0 0.2,-0.1 0,-0.1 0.1,-0.2 0.1,-0.3 v -0.8 c 0,-0.1 0,-0.2 -0.1,-0.3 -0.1,-0.1 -0.1,-0.1 -0.2,-0.1 h -0.8 c 0.1,0 0,0.1 -0.1,0.1 z"
       id="path264"
       inkscape:connector-curvature="0"
       style="fill:#312a20" />
    <path
       d="m 240.8,78 c 0,-0.9 -0.1,-2.2 -0.1,-2.6 0,-0.5 0,-1.7 0.1,-2.6 0,-0.4 0,-0.8 0.1,-1 h 0.1 c 2,0 3.6,1.6 3.6,3.6 0,2 -1.6,3.6 -3.6,3.6 h -0.1 c 0,-0.2 0,-0.6 -0.1,-1 z"
       id="path266"
       inkscape:connector-curvature="0"
       style="fill:#c8ab7a" />
    <path
       d="m 240.9,78 c 1.5,0 2.7,-1.2 2.7,-2.6 0,-1.5 -1.2,-2.6 -2.7,-2.6 0,0.9 -0.1,2.2 -0.1,2.6 0,0.4 0,1.7 0.1,2.6"
       id="path268"
       inkscape:connector-curvature="0"
       style="fill:#cdb487" />
    <path
       d="m 241.2,78.1 h 0.1 v -0.4 -0.1 h -0.1 v -0.3 h 0.2 c 0.1,0 0.2,0 0.2,0.1 0.1,0 0.1,0.1 0.1,0.2 v 0.7 c 0,0.1 0,0.1 -0.1,0.2 -0.1,0 -0.1,0.1 -0.2,0.1 h -0.8 c -0.1,0 -0.2,0 -0.2,-0.1 -0.1,0 -0.1,-0.1 -0.1,-0.2 v -0.7 c 0,-0.1 0,-0.1 0.1,-0.2 0.1,0 0.1,-0.1 0.2,-0.1 h 0.4 v 0.8 z m -0.4,-0.5 h -0.1 V 78 c 0,0 0,0.1 0.1,0.1 h 0.1 v -0.5 z m 0,-1.3 h -0.1 v 0.4 c 0,0.1 0,0.1 0.1,0.1 h 0.9 v 0.3 h -1.4 v -0.3 h 0.2 c -0.1,0 -0.1,0 -0.1,-0.1 v -0.5 c 0,-0.1 0,-0.1 0.1,-0.2 0.1,0 0.1,-0.1 0.2,-0.1 h 1.1 v 0.3 h -1 z m -0.9,-0.9 h 0.4 v -0.5 h 0.4 v 0.5 h 0.6 v -0.1 -0.1 h -0.2 v -0.3 h 0.1 c 0.2,0 0.3,0 0.4,0.1 0.1,0.1 0.1,0.1 0.1,0.2 v 0.3 c 0,0.1 0,0.2 -0.1,0.2 -0.1,0.1 -0.2,0.1 -0.4,0.1 h -0.5 v 0.1 h -0.4 v -0.1 h -0.4 z m 1.3,-1.1 h 0.1 v -0.4 -0.1 h -0.1 v -0.3 h 0.2 c 0.1,0 0.2,0 0.2,0.1 0.1,0 0.1,0.1 0.1,0.2 v 0.7 c 0,0.1 0,0.1 -0.1,0.2 -0.1,0 -0.1,0.1 -0.2,0.1 h -0.8 c -0.1,0 -0.2,0 -0.2,-0.1 -0.1,0 -0.1,-0.1 -0.1,-0.2 v -0.7 c 0,-0.1 0,-0.1 0.1,-0.2 0.1,0 0.1,-0.1 0.2,-0.1 h 0.4 v 0.8 z m -0.4,-0.5 h -0.1 v 0.4 c 0,0 0,0.1 0.1,0.1 h 0.1 v -0.5 z m 0,-1.1 c -0.1,0 -0.1,0 -0.1,0.1 v 0.1 c 0,0 0,0.1 0.1,0.1 h 1 v 0.3 h -1.4 V 73 h 0.2 c -0.1,0 -0.1,0 -0.1,-0.1 v -0.3 c 0,-0.1 0,-0.1 0.1,-0.2 0.1,0 0.1,-0.1 0.2,-0.1 h 0.3 z"
       id="path270"
       inkscape:connector-curvature="0"
       style="fill:#312a20" />
    <linearGradient
       id="c"
       gradientUnits="userSpaceOnUse"
       x1="448.06799"
       y1="-112.556"
       x2="448.06799"
       y2="-111.019"
       gradientTransform="rotate(-90,412.808,122.689)">
      <stop
         offset=".031"
         stop-color="#261c19"
         id="stop272" />
      <stop
         offset=".052"
         stop-color="#3c312f"
         id="stop274" />
      <stop
         offset=".083"
         stop-color="#564a49"
         id="stop276" />
      <stop
         offset=".115"
         stop-color="#685c5c"
         id="stop278" />
      <stop
         offset=".148"
         stop-color="#736767"
         id="stop280" />
      <stop
         offset=".184"
         stop-color="#776a6b"
         id="stop282" />
      <stop
         offset=".201"
         stop-color="#6e6162"
         id="stop284" />
      <stop
         offset=".259"
         stop-color="#534949"
         id="stop286" />
      <stop
         offset=".323"
         stop-color="#3e3535"
         id="stop288" />
      <stop
         offset=".394"
         stop-color="#2f2727"
         id="stop290" />
      <stop
         offset=".479"
         stop-color="#271f1f"
         id="stop292" />
      <stop
         offset=".611"
         stop-color="#241d1c"
         id="stop294" />
      <stop
         offset=".652"
         stop-color="#1e1716"
         id="stop296" />
      <stop
         offset=".744"
         stop-color="#17100f"
         id="stop298" />
      <stop
         offset="1"
         stop-color="#150e0d"
         id="stop300" />
    </linearGradient>
    <path
       d="m 179.1,109.4 h -1.2 c -0.2,0 -0.3,-0.1 -0.3,-0.3 V 65.8 c 0,-0.2 0.1,-0.3 0.3,-0.3 h 1.2"
       id="path303"
       inkscape:connector-curvature="0"
       style="fill:url(#c)" />
    <linearGradient
       id="d"
       gradientUnits="userSpaceOnUse"
       x1="448.06799"
       y1="4.6329999"
       x2="448.06799"
       y2="1.971"
       gradientTransform="rotate(-90,412.808,122.689)">
      <stop
         offset=".031"
         stop-color="#261c19"
         id="stop305" />
      <stop
         offset=".14"
         stop-color="#241815"
         id="stop307" />
      <stop
         offset=".389"
         stop-color="#221412"
         id="stop309" />
      <stop
         offset="1"
         stop-color="#261c19"
         id="stop311" />
    </linearGradient>
    <path
       d="m 292.1,113.9 v -53 h 0.3 c 1.1,0 2,0.7 2.3,1.7 0.1,0.2 0.1,0.4 0.1,0.7 v 48.2 c 0,0.2 0,0.5 -0.1,0.7 -0.3,1 -1.2,1.7 -2.3,1.7 z"
       id="path314"
       inkscape:connector-curvature="0"
       style="fill:url(#d)" />
    <circle
       cx="273"
       cy="87.400002"
       r="12.8"
       id="circle316"
       style="fill:#d4c1a0" />
  </g>
</svg>
