<?xml version="1.0" encoding="UTF-8" standalone="no"?>
<svg
   xmlns:dc="http://purl.org/dc/elements/1.1/"
   xmlns:cc="http://creativecommons.org/ns#"
   xmlns:rdf="http://www.w3.org/1999/02/22-rdf-syntax-ns#"
   xmlns:svg="http://www.w3.org/2000/svg"
   xmlns="http://www.w3.org/2000/svg"
   xmlns:sodipodi="http://sodipodi.sourceforge.net/DTD/sodipodi-0.dtd"
   xmlns:inkscape="http://www.inkscape.org/namespaces/inkscape"
   viewBox="0 0 120.7 260.4"
   version="1.1"
   id="svg554"
   sodipodi:docname="controller.svg"
   width="120.7"
   height="260.39999"
   inkscape:version="0.92.4 5da689c313, 2019-01-14">
  <metadata
     id="metadata560">
    <rdf:RDF>
      <cc:Work
         rdf:about="">
        <dc:format>image/svg+xml</dc:format>
        <dc:type
           rdf:resource="http://purl.org/dc/dcmitype/StillImage" />
      </cc:Work>
    </rdf:RDF>
  </metadata>
  <defs
     id="defs558" />
  <sodipodi:namedview
     pagecolor="#ffffff"
     bordercolor="#666666"
     borderopacity="1"
     objecttolerance="10"
     gridtolerance="10"
     guidetolerance="10"
     inkscape:pageopacity="0"
     inkscape:pageshadow="2"
     inkscape:window-width="640"
     inkscape:window-height="480"
     id="namedview556"
     showgrid="false"
     inkscape:zoom="0.90629802"
     inkscape:cx="60.349998"
     inkscape:cy="130.2"
     inkscape:window-x="0"
     inkscape:window-y="0"
     inkscape:window-maximized="0"
     inkscape:current-layer="svg554">
    <inkscape:grid
       type="xygrid"
       id="grid1367"
       originx="0"
       originy="6.1035157e-06" />
  </sodipodi:namedview>
  <g
     id="g296"
     style="opacity:0.5">
    <circle
       cx="60.299999"
       cy="212"
       r="28.299999"
       id="circle2"
       style="fill:#ffffff" />
    <circle
       cx="60.299999"
       cy="212"
       r="28.299999"
       id="circle4"
       style="fill:#fefefe" />
    <circle
       cx="60.299999"
       cy="212"
       r="28.299999"
       id="circle6"
       style="fill:#fdfdfd" />
    <circle
       cx="60.299999"
       cy="212"
       r="28.299999"
       id="circle8"
       style="fill:#fcfcfc" />
    <circle
       cx="60.299999"
       cy="211.89999"
       r="28.299999"
       id="circle10"
       style="fill:#fbfbfb" />
    <circle
       cx="60.299999"
       cy="211.89999"
       r="28.299999"
       id="circle12"
       style="fill:#fafafa" />
    <circle
       cx="60.299999"
       cy="211.89999"
       r="28.299999"
       id="circle14"
       style="fill:#f9f9f9" />
    <circle
       cx="60.299999"
       cy="211.89999"
       r="28.200001"
       id="circle16"
       style="fill:#f8f8f8" />
    <circle
       cx="60.299999"
       cy="211.89999"
       r="28.200001"
       id="circle18"
       style="fill:#f7f7f7" />
    <circle
       cx="60.299999"
       cy="211.89999"
       r="28.200001"
       id="circle20"
       style="fill:#f6f6f6" />
    <circle
       cx="60.299999"
       cy="211.89999"
       r="28.200001"
       id="circle22"
       style="fill:#f5f5f5" />
    <circle
       cx="60.299999"
       cy="211.8"
       r="28.200001"
       id="circle24"
       style="fill:#f4f4f4" />
    <circle
       cx="60.299999"
       cy="211.8"
       r="28.200001"
       id="circle26"
       style="fill:#f3f3f3" />
    <circle
       cx="60.299999"
       cy="211.8"
       r="28.200001"
       id="circle28"
       style="fill:#f2f2f2" />
    <circle
       cx="60.299999"
       cy="211.8"
       r="28.1"
       id="circle30"
       style="fill:#f1f1f1" />
    <circle
       cx="60.299999"
       cy="211.8"
       r="28.1"
       id="circle32"
       style="fill:#f0f0f0" />
    <circle
       cx="60.299999"
       cy="211.8"
       r="28.1"
       id="circle34"
       style="fill:#efefef" />
    <circle
       cx="60.299999"
       cy="211.8"
       r="28.1"
       id="circle36"
       style="fill:#eeeeee" />
    <circle
       cx="60.299999"
       cy="211.7"
       r="28.1"
       id="circle38"
       style="fill:#ededed" />
    <circle
       cx="60.299999"
       cy="211.7"
       r="28.1"
       id="circle40"
       style="fill:#ececed" />
    <circle
       cx="60.299999"
       cy="211.7"
       r="28.1"
       id="circle42"
       style="fill:#ebebec" />
    <circle
       cx="60.299999"
       cy="211.7"
       r="28"
       id="circle44"
       style="fill:#eaeaeb" />
    <circle
       cx="60.299999"
       cy="211.7"
       r="28"
       id="circle46"
       style="fill:#e9e9ea" />
    <circle
       cx="60.299999"
       cy="211.7"
       r="28"
       id="circle48"
       style="fill:#e8e8e9" />
    <circle
       cx="60.299999"
       cy="211.7"
       r="28"
       id="circle50"
       style="fill:#e7e7e8" />
    <circle
       cx="60.299999"
       cy="211.60001"
       r="28"
       id="circle52"
       style="fill:#e6e6e7" />
    <circle
       cx="60.299999"
       cy="211.60001"
       r="28"
       id="circle54"
       style="fill:#e5e5e6" />
    <circle
       cx="60.299999"
       cy="211.60001"
       r="28"
       id="circle56"
       style="fill:#e4e4e5" />
    <circle
       cx="60.299999"
       cy="211.60001"
       r="27.9"
       id="circle58"
       style="fill:#e3e3e4" />
    <circle
       cx="60.299999"
       cy="211.60001"
       r="27.9"
       id="circle60"
       style="fill:#e2e2e3" />
    <circle
       cx="60.299999"
       cy="211.60001"
       r="27.9"
       id="circle62"
       style="fill:#e1e1e2" />
    <circle
       cx="60.299999"
       cy="211.60001"
       r="27.9"
       id="circle64"
       style="fill:#e0e0e1" />
    <circle
       cx="60.299999"
       cy="211.5"
       r="27.9"
       id="circle66"
       style="fill:#dfdfe0" />
    <circle
       cx="60.299999"
       cy="211.5"
       r="27.9"
       id="circle68"
       style="fill:#dededf" />
    <circle
       cx="60.299999"
       cy="211.5"
       r="27.9"
       id="circle70"
       style="fill:#ddddde" />
    <circle
       cx="60.299999"
       cy="211.5"
       r="27.799999"
       id="circle72"
       style="fill:#dcdcdd" />
    <circle
       cx="60.299999"
       cy="211.5"
       r="27.799999"
       id="circle74"
       style="fill:#dbdbdc" />
    <circle
       cx="60.299999"
       cy="211.5"
       r="27.799999"
       id="circle76"
       style="fill:#dadadb" />
    <circle
       cx="60.299999"
       cy="211.5"
       r="27.799999"
       id="circle78"
       style="fill:#d9d9da" />
    <circle
       cx="60.299999"
       cy="211.39999"
       r="27.799999"
       id="circle80"
       style="fill:#d8d8d9" />
    <circle
       cx="60.299999"
       cy="211.39999"
       r="27.799999"
       id="circle82"
       style="fill:#d7d7d8" />
    <circle
       cx="60.299999"
       cy="211.39999"
       r="27.799999"
       id="circle84"
       style="fill:#d6d6d7" />
    <circle
       cx="60.299999"
       cy="211.39999"
       r="27.700001"
       id="circle86"
       style="fill:#d5d5d6" />
    <circle
       cx="60.299999"
       cy="211.39999"
       r="27.700001"
       id="circle88"
       style="fill:#d4d4d5" />
    <circle
       cx="60.299999"
       cy="211.39999"
       r="27.700001"
       id="circle90"
       style="fill:#d3d3d4" />
    <circle
       cx="60.299999"
       cy="211.39999"
       r="27.700001"
       id="circle92"
       style="fill:#d2d2d3" />
    <circle
       cx="60.299999"
       cy="211.3"
       r="27.700001"
       id="circle94"
       style="fill:#d1d1d2" />
    <circle
       cx="60.299999"
       cy="211.3"
       r="27.700001"
       id="circle96"
       style="fill:#d0d0d1" />
    <circle
       cx="60.299999"
       cy="211.3"
       r="27.700001"
       id="circle98"
       style="fill:#cfcfd0" />
    <circle
       cx="60.299999"
       cy="211.3"
       r="27.6"
       id="circle100"
       style="fill:#cececf" />
    <circle
       cx="60.299999"
       cy="211.3"
       r="27.6"
       id="circle102"
       style="fill:#cdcdce" />
    <circle
       cx="60.299999"
       cy="211.3"
       r="27.6"
       id="circle104"
       style="fill:#cccccd" />
    <circle
       cx="60.299999"
       cy="211.3"
       r="27.6"
       id="circle106"
       style="fill:#cbcbcc" />
    <circle
       cx="60.299999"
       cy="211.2"
       r="27.6"
       id="circle108"
       style="fill:#cacacb" />
    <circle
       cx="60.299999"
       cy="211.2"
       r="27.6"
       id="circle110"
       style="fill:#c9c9ca" />
    <circle
       cx="60.299999"
       cy="211.2"
       r="27.6"
       id="circle112"
       style="fill:#c8c8ca" />
    <circle
       cx="60.299999"
       cy="211.2"
       r="27.5"
       id="circle114"
       style="fill:#c7c7c9" />
    <circle
       cx="60.299999"
       cy="211.2"
       r="27.5"
       id="circle116"
       style="fill:#c6c6c8" />
    <circle
       cx="60.299999"
       cy="211.2"
       r="27.5"
       id="circle118"
       style="fill:#c5c5c7" />
    <circle
       cx="60.299999"
       cy="211.2"
       r="27.5"
       id="circle120"
       style="fill:#c4c4c6" />
    <circle
       cx="60.299999"
       cy="211.10001"
       r="27.5"
       id="circle122"
       style="fill:#c3c3c5" />
    <circle
       cx="60.299999"
       cy="211.10001"
       r="27.5"
       id="circle124"
       style="fill:#c2c2c4" />
    <circle
       cx="60.299999"
       cy="211.10001"
       r="27.5"
       id="circle126"
       style="fill:#c1c1c3" />
    <circle
       cx="60.299999"
       cy="211.10001"
       r="27.4"
       id="circle128"
       style="fill:#c0c0c2" />
    <circle
       cx="60.299999"
       cy="211.10001"
       r="27.4"
       id="circle130"
       style="fill:#bfbfc1" />
    <circle
       cx="60.299999"
       cy="211.10001"
       r="27.4"
       id="circle132"
       style="fill:#bebec0" />
    <circle
       cx="60.299999"
       cy="211.10001"
       r="27.4"
       id="circle134"
       style="fill:#bdbdbf" />
    <circle
       cx="60.299999"
       cy="211"
       r="27.4"
       id="circle136"
       style="fill:#bcbcbe" />
    <circle
       cx="60.299999"
       cy="211"
       r="27.4"
       id="circle138"
       style="fill:#bbbbbd" />
    <circle
       cx="60.299999"
       cy="211"
       r="27.4"
       id="circle140"
       style="fill:#bababc" />
    <circle
       cx="60.299999"
       cy="211"
       r="27.299999"
       id="circle142"
       style="fill:#b9b9bb" />
    <circle
       cx="60.299999"
       cy="211"
       r="27.299999"
       id="circle144"
       style="fill:#b8b8ba" />
    <circle
       cx="60.299999"
       cy="211"
       r="27.299999"
       id="circle146"
       style="fill:#b7b7b9" />
    <circle
       cx="60.299999"
       cy="211"
       r="27.299999"
       id="circle148"
       style="fill:#b6b7b8" />
    <circle
       cx="60.299999"
       cy="210.89999"
       r="27.299999"
       id="circle150"
       style="fill:#b5b6b7" />
    <circle
       cx="60.299999"
       cy="210.89999"
       r="27.299999"
       id="circle152"
       style="fill:#b4b5b6" />
    <circle
       cx="60.299999"
       cy="210.89999"
       r="27.299999"
       id="circle154"
       style="fill:#b3b4b5" />
    <circle
       cx="60.299999"
       cy="210.89999"
       r="27.200001"
       id="circle156"
       style="fill:#b2b3b4" />
    <circle
       cx="60.299999"
       cy="210.89999"
       r="27.200001"
       id="circle158"
       style="fill:#b1b2b3" />
    <circle
       cx="60.299999"
       cy="210.89999"
       r="27.200001"
       id="circle160"
       style="fill:#b0b1b2" />
    <circle
       cx="60.299999"
       cy="210.8"
       r="27.200001"
       id="circle162"
       style="fill:#afb0b1" />
    <circle
       cx="60.299999"
       cy="210.8"
       r="27.200001"
       id="circle164"
       style="fill:#aeafb0" />
    <circle
       cx="60.299999"
       cy="210.8"
       r="27.200001"
       id="circle166"
       style="fill:#adaeaf" />
    <circle
       cx="60.299999"
       cy="210.8"
       r="27.1"
       id="circle168"
       style="fill:#acadae" />
    <circle
       cx="60.299999"
       cy="210.8"
       r="27.1"
       id="circle170"
       style="fill:#abacad" />
    <circle
       cx="60.299999"
       cy="210.8"
       r="27.1"
       id="circle172"
       style="fill:#aaabac" />
    <circle
       cx="60.299999"
       cy="210.8"
       r="27.1"
       id="circle174"
       style="fill:#a9aaab" />
    <circle
       cx="60.299999"
       cy="210.7"
       r="27.1"
       id="circle176"
       style="fill:#a8a9aa" />
    <circle
       cx="60.299999"
       cy="210.7"
       r="27.1"
       id="circle178"
       style="fill:#a7a8a9" />
    <circle
       cx="60.299999"
       cy="210.7"
       r="27.1"
       id="circle180"
       style="fill:#a6a7a8" />
    <circle
       cx="60.299999"
       cy="210.7"
       r="27"
       id="circle182"
       style="fill:#a5a6a7" />
    <circle
       cx="60.299999"
       cy="210.7"
       r="27"
       id="circle184"
       style="fill:#a4a5a6" />
    <circle
       cx="60.299999"
       cy="210.7"
       r="27"
       id="circle186"
       style="fill:#a3a4a6" />
    <circle
       cx="60.299999"
       cy="210.7"
       r="27"
       id="circle188"
       style="fill:#a2a3a5" />
    <circle
       cx="60.299999"
       cy="210.60001"
       r="27"
       id="circle190"
       style="fill:#a1a2a4" />
    <circle
       cx="60.299999"
       cy="210.60001"
       r="27"
       id="circle192"
       style="fill:#a0a1a3" />
    <circle
       cx="60.299999"
       cy="210.60001"
       r="27"
       id="circle194"
       style="fill:#9fa0a2" />
    <circle
       cx="60.299999"
       cy="210.60001"
       r="26.9"
       id="circle196"
       style="fill:#9e9fa1" />
    <circle
       cx="60.299999"
       cy="210.60001"
       r="26.9"
       id="circle198"
       style="fill:#9d9ea0" />
    <circle
       cx="60.299999"
       cy="210.60001"
       r="26.9"
       id="circle200"
       style="fill:#9c9d9f" />
    <circle
       cx="60.299999"
       cy="210.60001"
       r="26.9"
       id="circle202"
       style="fill:#9b9c9e" />
    <circle
       cx="60.299999"
       cy="210.5"
       r="26.9"
       id="circle204"
       style="fill:#9a9b9d" />
    <circle
       cx="60.299999"
       cy="210.5"
       r="26.9"
       id="circle206"
       style="fill:#999a9c" />
    <circle
       cx="60.299999"
       cy="210.5"
       r="26.9"
       id="circle208"
       style="fill:#98999b" />
    <circle
       cx="60.299999"
       cy="210.5"
       r="26.799999"
       id="circle210"
       style="fill:#97989a" />
    <circle
       cx="60.299999"
       cy="210.5"
       r="26.799999"
       id="circle212"
       style="fill:#969799" />
    <circle
       cx="60.299999"
       cy="210.5"
       r="26.799999"
       id="circle214"
       style="fill:#959698" />
    <circle
       cx="60.299999"
       cy="210.5"
       r="26.799999"
       id="circle216"
       style="fill:#949597" />
    <circle
       cx="60.299999"
       cy="210.39999"
       r="26.799999"
       id="circle218"
       style="fill:#939496" />
    <circle
       cx="60.299999"
       cy="210.39999"
       r="26.799999"
       id="circle220"
       style="fill:#929395" />
    <circle
       cx="60.299999"
       cy="210.39999"
       r="26.799999"
       id="circle222"
       style="fill:#919294" />
    <circle
       cx="60.299999"
       cy="210.39999"
       r="26.700001"
       id="circle224"
       style="fill:#909193" />
    <circle
       cx="60.299999"
       cy="210.39999"
       r="26.700001"
       id="circle226"
       style="fill:#8f9092" />
    <circle
       cx="60.299999"
       cy="210.39999"
       r="26.700001"
       id="circle228"
       style="fill:#8e8f91" />
    <circle
       cx="60.299999"
       cy="210.39999"
       r="26.700001"
       id="circle230"
       style="fill:#8d8e90" />
    <circle
       cx="60.299999"
       cy="210.3"
       r="26.700001"
       id="circle232"
       style="fill:#8c8d8f" />
    <circle
       cx="60.299999"
       cy="210.3"
       r="26.700001"
       id="circle234"
       style="fill:#8b8c8e" />
    <circle
       cx="60.299999"
       cy="210.3"
       r="26.700001"
       id="circle236"
       style="fill:#8a8b8d" />
    <circle
       cx="60.299999"
       cy="210.3"
       r="26.6"
       id="circle238"
       style="fill:#898a8c" />
    <circle
       cx="60.299999"
       cy="210.3"
       r="26.6"
       id="circle240"
       style="fill:#88898b" />
    <circle
       cx="60.299999"
       cy="210.3"
       r="26.6"
       id="circle242"
       style="fill:#87888a" />
    <circle
       cx="60.299999"
       cy="210.3"
       r="26.6"
       id="circle244"
       style="fill:#868789" />
    <circle
       cx="60.299999"
       cy="210.2"
       r="26.6"
       id="circle246"
       style="fill:#858688" />
    <circle
       cx="60.299999"
       cy="210.2"
       r="26.6"
       id="circle248"
       style="fill:#848587" />
    <circle
       cx="60.299999"
       cy="210.2"
       r="26.6"
       id="circle250"
       style="fill:#838486" />
    <circle
       cx="60.299999"
       cy="210.2"
       r="26.5"
       id="circle252"
       style="fill:#828385" />
    <circle
       cx="60.299999"
       cy="210.2"
       r="26.5"
       id="circle254"
       style="fill:#818284" />
    <circle
       cx="60.299999"
       cy="210.2"
       r="26.5"
       id="circle256"
       style="fill:#808183" />
    <circle
       cx="60.299999"
       cy="210.2"
       r="26.5"
       id="circle258"
       style="fill:#7f8083" />
    <circle
       cx="60.299999"
       cy="210.10001"
       r="26.5"
       id="circle260"
       style="fill:#7e7f82" />
    <circle
       cx="60.299999"
       cy="210.10001"
       r="26.5"
       id="circle262"
       style="fill:#7d7e81" />
    <circle
       cx="60.299999"
       cy="210.10001"
       r="26.5"
       id="circle264"
       style="fill:#7c7d80" />
    <circle
       cx="60.299999"
       cy="210.10001"
       r="26.4"
       id="circle266"
       style="fill:#7b7c7f" />
    <circle
       cx="60.299999"
       cy="210.10001"
       r="26.4"
       id="circle268"
       style="fill:#7a7b7e" />
    <circle
       cx="60.299999"
       cy="210.10001"
       r="26.4"
       id="circle270"
       style="fill:#797a7d" />
    <circle
       cx="60.299999"
       cy="210.10001"
       r="26.4"
       id="circle272"
       style="fill:#78797c" />
    <circle
       cx="60.299999"
       cy="210"
       r="26.4"
       id="circle274"
       style="fill:#77787b" />
    <circle
       cx="60.299999"
       cy="210"
       r="26.4"
       id="circle276"
       style="fill:#76777a" />
    <circle
       cx="60.299999"
       cy="210"
       r="26.4"
       id="circle278"
       style="fill:#757679" />
    <circle
       cx="60.299999"
       cy="210"
       r="26.299999"
       id="circle280"
       style="fill:#747578" />
    <circle
       cx="60.299999"
       cy="210"
       r="26.299999"
       id="circle282"
       style="fill:#737477" />
    <circle
       cx="60.299999"
       cy="210"
       r="26.299999"
       id="circle284"
       style="fill:#727376" />
    <circle
       cx="60.299999"
       cy="210"
       r="26.299999"
       id="circle286"
       style="fill:#717275" />
    <circle
       cx="60.299999"
       cy="209.89999"
       r="26.299999"
       id="circle288"
       style="fill:#707174" />
    <circle
       cx="60.299999"
       cy="209.89999"
       r="26.299999"
       id="circle290"
       style="fill:#6f7073" />
    <circle
       cx="60.299999"
       cy="209.89999"
       r="26.299999"
       id="circle292"
       style="fill:#6e6f72" />
    <circle
       cx="60.299999"
       cy="209.89999"
       r="26.200001"
       id="circle294"
       style="fill:#6d6e71" />
  </g>
  <path
     d="M 1.5,98.5 H 1.1 C 0.5,98.5 0,98 0,97.4 V 76.3 c 0,-0.6 0.5,-1.1 1.1,-1.1 h 0.4 z m 0,26.9 H 1.1 C 0.5,125.4 0,124.9 0,124.3 v -21.1 c 0,-0.6 0.5,-1.1 1.1,-1.1 H 1.5 Z M 119.2,75.2 h 0.4 c 0.6,0 1.1,0.5 1.1,1.1 v 21.1 c 0,0.6 -0.5,1.1 -1.1,1.1 h -0.4 z m 0,26.9 h 0.4 c 0.6,0 1.1,0.5 1.1,1.1 v 21.1 c 0,0.6 -0.5,1.1 -1.1,1.1 h -0.4 z"
     id="path298"
     inkscape:connector-curvature="0"
     style="fill:#1b1e20" />
  <linearGradient
     id="a"
     gradientUnits="userSpaceOnUse"
     x1="60.333"
     y1="260.41699"
     x2="60.333">
    <stop
       offset=".031"
       stop-color="#261c19"
       id="stop300" />
    <stop
       offset=".156"
       stop-color="#261c19"
       id="stop302" />
    <stop
       offset=".885"
       stop-color="#261c19"
       id="stop304" />
    <stop
       offset=".936"
       stop-color="#231917"
       id="stop306" />
    <stop
       offset=".977"
       stop-color="#191110"
       id="stop308" />
    <stop
       offset=".987"
       stop-color="#150e0d"
       id="stop310" />
    <stop
       offset=".988"
       stop-color="#1d1513"
       id="stop312" />
    <stop
       offset=".991"
       stop-color="#241a18"
       id="stop314" />
    <stop
       offset="1"
       stop-color="#261c19"
       id="stop316" />
  </linearGradient>
  <path
     d="M 1.5,254.5 V 7.2 C 1.5,5.1 3.2,3.5 5.2,3.5 h 6.3 V 0.7 C 11.5,0.3 11.8,0 12.2,0 h 96.2 c 0.4,0 0.7,0.3 0.7,0.7 v 2.7 h 6.3 c 2.1,0 3.8,1.7 3.8,3.8 v 248 c 0,2.4 -1.6,4.4 -3.7,5 -0.5,0.1 -1,0.2 -1.5,0.2 H 6.8 c -0.5,0 -1,-0.1 -1.5,-0.2 -2.2,-0.6 -3.7,-2.7 -3.7,-5 v -0.7 z"
     id="path319"
     inkscape:connector-curvature="0"
     style="fill:url(#a)" />
  <linearGradient
     id="b"
     gradientUnits="userSpaceOnUse"
     x1="17.834"
     y1="212"
     x2="102.834"
     y2="212">
    <stop
       offset="0"
       stop-color="#150e0d"
       id="stop321" />
    <stop
       offset=".061"
       stop-color="#1f1615"
       id="stop323" />
    <stop
       offset=".156"
       stop-color="#261b1a"
       id="stop325" />
    <stop
       offset=".413"
       stop-color="#281d1b"
       id="stop327" />
    <stop
       offset=".498"
       stop-color="#241d1c"
       id="stop329" />
    <stop
       offset=".645"
       stop-color="#261d1c"
       id="stop331" />
    <stop
       offset=".669"
       stop-color="#281d1b"
       id="stop333" />
    <stop
       offset=".827"
       stop-color="#251a19"
       id="stop335" />
    <stop
       offset=".954"
       stop-color="#1b1311"
       id="stop337" />
    <stop
       offset="1"
       stop-color="#150e0d"
       id="stop339" />
  </linearGradient>
  <circle
     cx="60.299999"
     cy="212"
     r="42.5"
     id="circle342"
     style="fill:url(#b)" />
  <circle
     cx="60.299999"
     cy="212"
     r="35.299999"
     id="circle344"
     style="fill:#2a201f" />
  <circle
     cx="60.299999"
     cy="212"
     r="31.700001"
     id="circle346"
     style="fill:#020101" />
  <circle
     cx="60.299999"
     cy="212"
     r="30.799999"
     id="circle348"
     style="fill:#1e1514" />
  <path
     d="M 6.4,50.5 C 6.4,41 14.2,32.2 23.7,32.2 h 73.5 c 9.5,0 17.3,8.8 17.3,18.3 M 114.3,151 c 0,9.5 -7.8,18.3 -17.3,18.3 H 23.6 C 14.1,169.3 6.3,160.5 6.3,151"
     id="path350"
     inkscape:connector-curvature="0"
     style="fill:#211715" />
  <path
     d="M 114.3,50.5 C 114.3,41 106.5,33.2 97,33.2 H 23.6 C 14.1,33.2 6.3,41 6.3,50.5 v 100.2 c 0,9.5 7.8,17.3 17.3,17.3 h 73.5 c 9.5,0 17.3,-7.8 17.3,-17.3 V 50.5 Z"
     id="path352"
     inkscape:connector-curvature="0"
     style="fill:#3b3130" />
  <path
     d="M 97.2,165.9 H 23.4 c -7.5,0 -13.6,-6.1 -13.6,-13.6 V 49 c 0,-7.5 6.1,-13.6 13.6,-13.6 h 73.8 c 7.5,0 13.6,6.1 13.6,13.6 v 103.3 c 0,7.5 -6.1,13.6 -13.6,13.6 z"
     id="path354"
     inkscape:connector-curvature="0"
     style="fill:#4a3937" />
  <path
     d="M 95.9,163.2 H 24.7 c -6.6,0 -12,-5.4 -12,-12 V 50.3 c 0,-6.6 5.4,-12 12,-12 h 71.2 c 6.6,0 12,5.4 12,12 v 100.9 c 0,6.6 -5.4,12 -12,12 z"
     id="path356"
     inkscape:connector-curvature="0"
     style="fill:#2d2223" />
  <path
     d="M 95.6,156.9 H 25.1 c -3.3,0 -6,-2.7 -6,-6 V 50.6 c 0,-3.3 2.7,-6 6,-6 h 70.5 c 3.3,0 6,2.7 6,6 V 151 c 0,3.2 -2.7,5.9 -6,5.9 z"
     id="path358"
     inkscape:connector-curvature="0"
     style="fill:#d4c1a0" />
  <path
     d="M 95.6,157.1 H 25.1 C 21.7,157.1 19,154.4 19,151 V 50.6 c 0,-3.4 2.7,-6.1 6.1,-6.1 h 70.5 c 3.4,0 6.1,2.7 6.1,6.1 V 151 c 0,3.3 -2.8,6.1 -6.1,6.1 z M 25.1,44.8 c -3.2,0 -5.9,2.6 -5.9,5.9 V 151 c 0,3.2 2.6,5.9 5.9,5.9 h 70.5 c 3.2,0 5.9,-2.6 5.9,-5.9 V 50.6 c 0,-3.2 -2.6,-5.9 -5.9,-5.9 H 25.1 Z"
     id="path360"
     inkscape:connector-curvature="0"
     style="fill:#682c00" />
  <path
     d="M 41.5,71.5 H 24.4 c -1.7,0 -3.2,-1.4 -3.2,-3.2 v -17 c 0,-1.7 1.4,-3.2 3.2,-3.2 h 17.1 c 1.7,0 3.2,1.4 3.2,3.2 v 17.1 c -0.1,1.7 -1.5,3.1 -3.2,3.1 z"
     id="path362"
     inkscape:connector-curvature="0"
     style="fill:#2e251a" />
  <path
     d="m 32.9,69.7 c 3.8,0 6.7,-0.6 8.3,-1.4 1.4,-0.6 1.5,-3.2 1.5,-8.4 0,-5.2 -0.2,-7.8 -1.5,-8.4 -1.5,-0.8 -4.5,-1.4 -8.2,-1.4 -3.8,0 -6.7,0.6 -8.2,1.4 -1.3,0.7 -1.5,3.3 -1.5,8.4 0,5.1 0.2,7.8 1.5,8.4 1.4,0.8 4.3,1.4 8.1,1.4 z"
     id="path364"
     inkscape:connector-curvature="0"
     style="fill:#d3c09e" />
  <path
     d="m 24.9,59.5 v 0.3 c 0,4.4 3.6,8 8,8 4.4,0 8,-3.6 8,-8 v -0.3 c -0.2,-4.3 -3.7,-7.7 -8,-7.7 -4.3,0 -7.8,3.4 -8,7.7 z"
     id="path366"
     inkscape:connector-curvature="0"
     style="fill:#d2b892" />
  <path
     stroke-miterlimit="10"
     d="M 68.6,71.5 H 51.5 c -1.7,0 -3.2,-1.4 -3.2,-3.2 v -17 c 0,-1.7 1.4,-3.2 3.2,-3.2 h 17.1 c 1.7,0 3.2,1.4 3.2,3.2 v 17.1 c -0.1,1.7 -1.5,3.1 -3.2,3.1 z"
     id="path368"
     inkscape:connector-curvature="0"
     style="fill:none;stroke:#682c00;stroke-width:0.25;stroke-miterlimit:10" />
  <path
     d="M 68.6,71.5 H 51.5 c -1.7,0 -3.2,-1.4 -3.2,-3.2 v -17 c 0,-1.7 1.4,-3.2 3.2,-3.2 h 17.1 c 1.7,0 3.2,1.4 3.2,3.2 v 17.1 c -0.1,1.7 -1.5,3.1 -3.2,3.1 z"
     id="path370"
     inkscape:connector-curvature="0"
     style="fill:#2c2316" />
  <path
     d="m 60,69.7 c 3.8,0 6.7,-0.6 8.3,-1.4 1.4,-0.6 1.5,-3.2 1.5,-8.4 0,-5.2 -0.2,-7.8 -1.5,-8.4 -1.6,-1 -4.5,-1.5 -8.3,-1.5 -3.8,0 -6.7,0.6 -8.2,1.4 -1.3,0.7 -1.5,3.3 -1.5,8.4 0,5.1 0.2,7.8 1.5,8.4 1.5,0.9 4.4,1.5 8.2,1.5 z"
     id="path372"
     inkscape:connector-curvature="0"
     style="fill:#d3c09e" />
  <circle
     cx="60"
     cy="59.799999"
     r="8"
     id="circle374"
     style="fill:#d2b892" />
  <path
     d="M 95.7,71.5 H 78.6 c -1.7,0 -3.2,-1.4 -3.2,-3.2 v -17 c 0,-1.7 1.4,-3.2 3.2,-3.2 h 17.1 c 1.7,0 3.2,1.4 3.2,3.2 v 17.1 c 0,1.7 -1.5,3.1 -3.2,3.1 z"
     id="path376"
     inkscape:connector-curvature="0"
     style="fill:#2c2316" />
  <path
     d="m 87.1,69.7 c 3.8,0 6.7,-0.6 8.3,-1.4 1.4,-0.6 1.5,-3.2 1.5,-8.4 0,-5.2 -0.2,-7.8 -1.5,-8.4 -1.5,-0.8 -4.5,-1.4 -8.2,-1.4 -3.8,0 -6.7,0.6 -8.2,1.4 -1.3,0.7 -1.5,3.3 -1.5,8.4 0,5.1 0.2,7.8 1.5,8.4 1.4,0.8 4.3,1.4 8.1,1.4 z"
     id="path378"
     inkscape:connector-curvature="0"
     style="fill:#d3c09e" />
  <circle
     cx="87.099998"
     cy="59.799999"
     r="8"
     id="circle380"
     style="fill:#d2b892" />
  <path
     d="M 41.5,98.6 H 24.4 c -1.7,0 -3.2,-1.4 -3.2,-3.2 v -17 c 0,-1.7 1.4,-3.2 3.2,-3.2 h 17.1 c 1.7,0 3.2,1.4 3.2,3.2 v 17.1 c -0.1,1.7 -1.5,3.1 -3.2,3.1 z"
     id="path382"
     inkscape:connector-curvature="0"
     style="fill:#2c2316" />
  <path
     d="m 32.9,96.8 c 3.8,0 6.7,-0.6 8.3,-1.4 1.4,-0.6 1.5,-3.2 1.5,-8.4 0,-5.2 -0.2,-7.8 -1.5,-8.4 -1.5,-0.8 -4.5,-1.4 -8.2,-1.4 -3.8,0 -6.7,0.6 -8.2,1.4 -1.3,0.7 -1.5,3.3 -1.5,8.4 0,5.1 0.2,7.8 1.5,8.4 1.4,0.8 4.3,1.4 8.1,1.4 z"
     id="path384"
     inkscape:connector-curvature="0"
     style="fill:#d3c09e" />
  <circle
     cx="32.900002"
     cy="86.900002"
     r="8"
     id="circle386"
     style="fill:#d2b892" />
  <path
     d="M 68.6,98.6 H 51.5 c -1.7,0 -3.2,-1.4 -3.2,-3.2 v -17 c 0,-1.7 1.4,-3.2 3.2,-3.2 h 17.1 c 1.7,0 3.2,1.4 3.2,3.2 v 17.1 c -0.1,1.7 -1.5,3.1 -3.2,3.1 z"
     id="path388"
     inkscape:connector-curvature="0"
     style="fill:#2c2316" />
  <path
     d="m 60,96.8 c 3.8,0 6.7,-0.6 8.3,-1.4 1.4,-0.6 1.5,-3.2 1.5,-8.4 0,-5.2 -0.2,-7.8 -1.5,-8.4 -1.5,-0.8 -4.5,-1.4 -8.2,-1.4 -3.8,0 -6.7,0.6 -8.2,1.4 -1.3,0.7 -1.5,3.3 -1.5,8.4 0,5.1 0.2,7.8 1.5,8.4 1.4,0.8 4.3,1.4 8.1,1.4 z"
     id="path390"
     inkscape:connector-curvature="0"
     style="fill:#d3c09e" />
  <circle
     cx="60"
     cy="86.900002"
     r="8"
     id="circle392"
     style="fill:#d2b892" />
  <path
     d="M 95.7,98.6 H 78.6 c -1.7,0 -3.2,-1.4 -3.2,-3.2 v -17 c 0,-1.7 1.4,-3.2 3.2,-3.2 h 17.1 c 1.7,0 3.2,1.4 3.2,3.2 v 17.1 c 0,1.7 -1.5,3.1 -3.2,3.1 z"
     id="path394"
     inkscape:connector-curvature="0"
     style="fill:#2c2316" />
  <path
     d="m 87.1,96.8 c 3.8,0 6.7,-0.6 8.3,-1.4 1.4,-0.6 1.5,-3.2 1.5,-8.4 0,-5.2 -0.2,-7.8 -1.5,-8.4 -1.5,-0.8 -4.5,-1.4 -8.2,-1.4 -3.8,0 -6.7,0.6 -8.2,1.4 -1.3,0.7 -1.5,3.3 -1.5,8.4 0,5.1 0.2,7.8 1.5,8.4 1.4,0.8 4.3,1.4 8.1,1.4 z"
     id="path396"
     inkscape:connector-curvature="0"
     style="fill:#d3c09e" />
  <circle
     cx="87.099998"
     cy="86.900002"
     r="8"
     id="circle398"
     style="fill:#d2b892" />
  <path
     d="M 41.5,125.8 H 24.4 c -1.7,0 -3.2,-1.4 -3.2,-3.2 v -17.1 c 0,-1.7 1.4,-3.2 3.2,-3.2 h 17.1 c 1.7,0 3.2,1.4 3.2,3.2 v 17.1 c -0.1,1.8 -1.5,3.2 -3.2,3.2 z"
     id="path400"
     inkscape:connector-curvature="0"
     style="fill:#2c2316" />
  <path
     d="m 32.9,123.9 c 3.8,0 6.7,-0.6 8.3,-1.4 1.4,-0.6 1.5,-3.2 1.5,-8.4 0,-5.2 -0.2,-7.8 -1.5,-8.4 -1.5,-0.8 -4.5,-1.4 -8.2,-1.4 -3.8,0 -6.7,0.6 -8.2,1.4 -1.3,0.7 -1.5,3.3 -1.5,8.4 0,5.1 0.2,7.8 1.5,8.4 1.4,0.8 4.3,1.4 8.1,1.4 z"
     id="path402"
     inkscape:connector-curvature="0"
     style="fill:#d3c09e" />
  <circle
     cx="32.900002"
     cy="114.1"
     r="8"
     id="circle404"
     style="fill:#d2b892" />
  <path
     d="M 68.6,125.8 H 51.5 c -1.7,0 -3.2,-1.4 -3.2,-3.2 v -17.1 c 0,-1.7 1.4,-3.2 3.2,-3.2 h 17.1 c 1.7,0 3.2,1.4 3.2,3.2 v 17.1 c -0.1,1.8 -1.5,3.2 -3.2,3.2 z"
     id="path406"
     inkscape:connector-curvature="0"
     style="fill:#2c2316" />
  <path
     d="m 60,123.9 c 3.8,0 6.7,-0.6 8.3,-1.4 1.4,-0.6 1.5,-3.2 1.5,-8.4 0,-5.2 -0.2,-7.8 -1.5,-8.4 -1.5,-0.8 -4.5,-1.4 -8.2,-1.4 -3.8,0 -6.7,0.6 -8.2,1.4 -1.3,0.7 -1.5,3.3 -1.5,8.4 0,5.1 0.2,7.8 1.5,8.4 1.4,0.8 4.3,1.4 8.1,1.4 z"
     id="path408"
     inkscape:connector-curvature="0"
     style="fill:#d3c09e" />
  <circle
     cx="60"
     cy="114.1"
     r="8"
     id="circle410"
     style="fill:#d2b892" />
  <path
     d="M 95.7,125.8 H 78.6 c -1.7,0 -3.2,-1.4 -3.2,-3.2 v -17.1 c 0,-1.7 1.4,-3.2 3.2,-3.2 h 17.1 c 1.7,0 3.2,1.4 3.2,3.2 v 17.1 c 0,1.8 -1.5,3.2 -3.2,3.2 z"
     id="path412"
     inkscape:connector-curvature="0"
     style="fill:#2c2316" />
  <path
     d="m 87.1,123.9 c 3.8,0 6.7,-0.6 8.3,-1.4 1.4,-0.6 1.5,-3.2 1.5,-8.4 0,-5.2 -0.2,-7.8 -1.5,-8.4 -1.5,-0.8 -4.5,-1.4 -8.2,-1.4 -3.8,0 -6.7,0.6 -8.2,1.4 -1.3,0.7 -1.5,3.3 -1.5,8.4 0,5.1 0.2,7.8 1.5,8.4 1.4,0.8 4.3,1.4 8.1,1.4 z"
     id="path414"
     inkscape:connector-curvature="0"
     style="fill:#d3c09e" />
  <circle
     cx="87.099998"
     cy="114.1"
     r="8"
     id="circle416"
     style="fill:#d2b892" />
  <path
     d="M 41.5,152.9 H 24.4 c -1.7,0 -3.2,-1.4 -3.2,-3.2 v -17.1 c 0,-1.7 1.4,-3.2 3.2,-3.2 h 17.1 c 1.7,0 3.2,1.4 3.2,3.2 v 17.1 c -0.1,1.8 -1.5,3.2 -3.2,3.2 z"
     id="path418"
     inkscape:connector-curvature="0"
     style="fill:#2c2316" />
  <path
     d="m 32.9,151 c 3.8,0 6.7,-0.6 8.3,-1.4 1.4,-0.6 1.5,-3.2 1.5,-8.4 0,-5.2 -0.2,-7.8 -1.5,-8.4 -1.5,-0.8 -4.5,-1.4 -8.2,-1.4 -3.8,0 -6.7,0.6 -8.2,1.4 -1.3,0.7 -1.5,3.3 -1.5,8.4 0,5.1 0.2,7.8 1.5,8.4 1.4,0.9 4.3,1.4 8.1,1.4 z"
     id="path420"
     inkscape:connector-curvature="0"
     style="fill:#d3c09e" />
  <circle
     cx="32.900002"
     cy="141.2"
     r="8"
     id="circle422"
     style="fill:#d2b892" />
  <path
     d="M 68.6,152.9 H 51.5 c -1.7,0 -3.2,-1.4 -3.2,-3.2 v -17.1 c 0,-1.7 1.4,-3.2 3.2,-3.2 h 17.1 c 1.7,0 3.2,1.4 3.2,3.2 v 17.1 c -0.1,1.8 -1.5,3.2 -3.2,3.2 z"
     id="path424"
     inkscape:connector-curvature="0"
     style="fill:#2c2316" />
  <path
     d="m 60,151 c 3.8,0 6.7,-0.6 8.3,-1.4 1.4,-0.6 1.5,-3.2 1.5,-8.4 0,-5.2 -0.2,-7.8 -1.5,-8.4 -1.5,-0.8 -4.5,-1.4 -8.2,-1.4 -3.8,0 -6.7,0.6 -8.2,1.4 -1.3,0.7 -1.5,3.3 -1.5,8.4 0,5.1 0.2,7.8 1.5,8.4 1.4,0.9 4.3,1.4 8.1,1.4 z"
     id="path426"
     inkscape:connector-curvature="0"
     style="fill:#d3c09e" />
  <circle
     cx="60"
     cy="141.2"
     r="8"
     id="circle428"
     style="fill:#d2b892" />
  <path
     d="M 95.7,152.9 H 78.6 c -1.7,0 -3.2,-1.4 -3.2,-3.2 v -17.1 c 0,-1.7 1.4,-3.2 3.2,-3.2 h 17.1 c 1.7,0 3.2,1.4 3.2,3.2 v 17.1 c 0,1.8 -1.5,3.2 -3.2,3.2 z"
     id="path430"
     inkscape:connector-curvature="0"
     style="fill:#2c2316" />
  <path
     d="m 87.1,151 c 3.8,0 6.7,-0.6 8.3,-1.4 1.4,-0.6 1.5,-3.2 1.5,-8.4 0,-5.2 -0.2,-7.8 -1.5,-8.4 -1.5,-0.8 -4.5,-1.4 -8.2,-1.4 -3.8,0 -6.7,0.6 -8.2,1.4 -1.3,0.7 -1.5,3.3 -1.5,8.4 0,5.1 0.2,7.8 1.5,8.4 1.4,0.9 4.3,1.4 8.1,1.4 z"
     id="path432"
     inkscape:connector-curvature="0"
     style="fill:#d3c09e" />
  <circle
     cx="87.099998"
     cy="141.2"
     r="8"
     id="circle434"
     style="fill:#d2b892" />
  <path
     d="m 27,59.3 c 2.1,-0.1 4.9,-0.1 5.9,-0.1 1,0 3.8,0.1 5.9,0.1 1,0 1.8,0.1 2.1,0.2 v 0.3 c 0,4.4 -3.6,8 -8,8 -4.4,0 -8,-3.6 -8,-8 v -0.3 c 0.4,-0.1 1.2,-0.1 2.1,-0.2 z"
     id="path436"
     inkscape:connector-curvature="0"
     style="fill:#c8ab7a" />
  <path
     d="m 27,59.4 c 0,3.2 2.6,5.9 5.9,5.9 3.3,0 5.9,-2.7 5.9,-5.9 -2.1,-0.1 -4.9,-0.1 -5.9,-0.1 -1,0 -3.8,0 -5.9,0.1"
     id="path438"
     inkscape:connector-curvature="0"
     style="fill:#cdb487" />
  <path
     d="m 32.2,57.3 h 2.3 v 5 h -1.4 v -3.9 h -0.3 l -1.6,1.3 -0.8,-0.8 z"
     id="path440"
     inkscape:connector-curvature="0"
     style="fill:#312a20" />
  <path
     d="m 54.2,59.3 c 2.1,-0.1 4.9,-0.1 5.9,-0.1 1,0 3.8,0.1 5.9,0.1 1,0 1.8,0.1 2.1,0.2 v 0.3 c 0,4.4 -3.6,8 -8,8 -4.4,0 -8,-3.6 -8,-8 v -0.3 c 0.3,-0.1 1.1,-0.1 2.1,-0.2 z"
     id="path442"
     inkscape:connector-curvature="0"
     style="fill:#c8ab7a" />
  <path
     d="m 54.2,59.4 c 0,3.2 2.6,5.9 5.9,5.9 3.3,0 5.9,-2.7 5.9,-5.9 -2.1,-0.1 -4.9,-0.1 -5.9,-0.1 -1,0 -3.9,0 -5.9,0.1"
     id="path444"
     inkscape:connector-curvature="0"
     style="fill:#cdb487" />
  <path
     d="m 61,59.3 c 0.1,0 0.3,0 0.3,-0.1 0.1,-0.1 0.2,-0.2 0.2,-0.4 0,-0.2 0,-0.3 -0.1,-0.4 -0.1,-0.1 -0.2,-0.1 -0.4,-0.1 h -1.8 c -0.2,0 -0.4,0.1 -0.6,0.2 -0.1,0.1 -0.2,0.2 -0.2,0.4 h -1.3 v -0.6 c 0,-0.3 0.1,-0.6 0.4,-0.8 0.2,-0.2 0.6,-0.3 1,-0.3 h 3 c 0.4,0 0.7,0.1 1,0.3 0.3,0.2 0.4,0.5 0.4,0.8 V 59 c 0,0.5 -0.1,0.8 -0.4,1.1 -0.2,0.2 -0.6,0.3 -1,0.3 H 59 c -0.1,0 -0.3,0 -0.3,0.1 -0.1,0.1 -0.1,0.2 -0.1,0.3 v 0.4 H 63 v 1.1 h -5.8 v -1.8 c 0,-0.3 0.1,-0.6 0.4,-0.8 0.3,-0.2 0.6,-0.3 1.1,-0.3 H 61 Z"
     id="path446"
     inkscape:connector-curvature="0"
     style="fill:#312a20" />
  <path
     d="m 81.3,59.3 c 2.1,-0.1 4.9,-0.1 5.9,-0.1 1,0 3.8,0.1 5.9,0.1 1,0 1.8,0.1 2.1,0.2 v 0.3 c 0,4.4 -3.6,8 -8,8 -4.4,0 -8,-3.6 -8,-8 v -0.3 c 0.3,-0.1 1.1,-0.1 2.1,-0.2 z"
     id="path448"
     inkscape:connector-curvature="0"
     style="fill:#c8ab7a" />
  <path
     d="m 81.3,59.4 c 0,3.2 2.6,5.9 5.9,5.9 3.3,0 5.9,-2.7 5.9,-5.9 -2.1,-0.1 -4.9,-0.1 -5.9,-0.1 -1,0 -3.9,0 -5.9,0.1"
     id="path450"
     inkscape:connector-curvature="0"
     style="fill:#cdb487" />
  <path
     d="m 89.6,59.5 c -0.1,0.2 -0.2,0.3 -0.3,0.3 0.1,0.1 0.2,0.2 0.3,0.4 0,0.1 0.1,0.3 0.1,0.4 v 0.6 c 0,0.3 -0.1,0.6 -0.4,0.8 -0.3,0.2 -0.6,0.3 -1,0.3 h -3 c -0.4,0 -0.8,-0.1 -1,-0.3 -0.2,-0.2 -0.4,-0.5 -0.4,-0.8 v -0.6 h 1.3 c 0,0.2 0.1,0.3 0.2,0.4 0.1,0.1 0.3,0.2 0.5,0.2 h 1.8 c 0.1,0 0.3,0 0.4,-0.1 0.1,-0.1 0.1,-0.2 0.1,-0.4 0,-0.1 0,-0.3 -0.1,-0.3 -0.1,-0.1 -0.2,-0.1 -0.3,-0.1 h -1.4 v -1 h 1.3 c 0.1,0 0.3,0 0.3,-0.1 0.1,-0.1 0.1,-0.2 0.1,-0.4 0,-0.2 0,-0.3 -0.1,-0.4 -0.1,-0.1 -0.2,-0.1 -0.4,-0.1 H 86 c -0.2,0 -0.4,0.1 -0.5,0.2 -0.1,0.1 -0.2,0.2 -0.2,0.4 H 84 v -0.6 c 0,-0.3 0.1,-0.6 0.4,-0.8 0.2,-0.2 0.6,-0.3 1,-0.3 h 3 c 0.4,0 0.7,0.1 1,0.3 0.3,0.2 0.4,0.5 0.4,0.8 V 59 c -0.1,0.2 -0.1,0.3 -0.2,0.5 z"
     id="path452"
     inkscape:connector-curvature="0"
     style="fill:#312a20" />
  <path
     d="m 27,86.6 c 2.1,-0.1 4.9,-0.1 5.9,-0.1 1,0 3.8,0.1 5.9,0.1 1,0 1.8,0.1 2.1,0.2 v 0.3 c 0,4.4 -3.6,8 -8,8 -4.4,0 -8,-3.6 -8,-8 v -0.3 c 0.4,-0.1 1.2,-0.2 2.1,-0.2 z"
     id="path454"
     inkscape:connector-curvature="0"
     style="fill:#c8ab7a" />
  <path
     d="m 27,86.6 c 0,3.2 2.6,5.9 5.9,5.9 3.3,0 5.9,-2.7 5.9,-5.9 -2.1,-0.1 -4.9,-0.1 -5.9,-0.1 -1,0 -3.8,0 -5.9,0.1"
     id="path456"
     inkscape:connector-curvature="0"
     style="fill:#cdb487" />
  <path
     d="M 29.8,86.7 33,84.4 h 2.2 v 2.9 H 36 v 1 h -0.8 v 1.1 h -1.4 v -1.1 h -4 z m 4,0.6 v -1.8 h -0.2 l -2.5,1.6 v 0.2 z"
     id="path458"
     inkscape:connector-curvature="0"
     style="fill:#312a20" />
  <path
     d="m 54.2,86.5 c 2.1,-0.1 4.9,-0.1 5.9,-0.1 1,0 3.8,0.1 5.9,0.1 1,0 1.8,0.1 2.1,0.2 V 87 c 0,4.4 -3.6,8 -8,8 -4.4,0 -8,-3.6 -8,-8 v -0.3 c 0.3,-0.1 1.1,-0.2 2.1,-0.2 z"
     id="path460"
     inkscape:connector-curvature="0"
     style="fill:#c8ab7a" />
  <path
     d="m 54.2,86.5 c 0,3.2 2.6,5.9 5.9,5.9 3.3,0 5.9,-2.7 5.9,-5.9 -2.1,-0.1 -4.9,-0.1 -5.9,-0.1 -1,0 -3.9,0 -5.9,0.1"
     id="path462"
     inkscape:connector-curvature="0"
     style="fill:#cdb487" />
  <path
     d="m 57.1,87.5 v -3.1 h 5.8 v 1.1 h -4.4 v 0.9 c 0.1,-0.1 0.1,-0.1 0.2,-0.1 h 2.8 c 0.4,0 0.7,0.1 1,0.3 0.3,0.2 0.4,0.6 0.4,1 v 0.8 c 0,0.3 -0.1,0.6 -0.4,0.8 -0.2,0.2 -0.6,0.3 -1,0.3 h -3 c -0.4,0 -0.8,-0.1 -1,-0.3 -0.3,-0.2 -0.4,-0.5 -0.4,-0.8 v -0.2 h 1.4 c 0,0.1 0,0.1 0.1,0.2 h 2.5 c 0.2,0 0.3,0 0.4,-0.1 0,-0.1 0.1,-0.2 0.1,-0.4 0,-0.2 0,-0.3 -0.1,-0.4 -0.1,-0.1 -0.2,-0.2 -0.3,-0.2 H 59 c -0.1,0 -0.2,0 -0.3,0.1 l -0.2,0.2 h -1.4 z"
     id="path464"
     inkscape:connector-curvature="0"
     style="fill:#312a20" />
  <path
     d="m 81.3,86.6 c 2.1,-0.1 4.9,-0.1 5.9,-0.1 1,0 3.8,0.1 5.9,0.1 1,0 1.8,0.1 2.1,0.2 v 0.3 c 0,4.4 -3.6,8 -8,8 -4.4,0 -8,-3.6 -8,-8 v -0.3 c 0.3,-0.1 1.1,-0.2 2.1,-0.2 z"
     id="path466"
     inkscape:connector-curvature="0"
     style="fill:#c8ab7a" />
  <path
     d="m 81.3,86.6 c 0,3.2 2.6,5.9 5.9,5.9 3.3,0 5.9,-2.7 5.9,-5.9 -2.1,-0.1 -4.9,-0.1 -5.9,-0.1 -1,0 -3.9,0 -5.9,0.1"
     id="path468"
     inkscape:connector-curvature="0"
     style="fill:#cdb487" />
  <path
     d="m 88.1,85.6 c -0.1,0 -0.2,-0.1 -0.3,-0.1 h -2.1 c -0.1,0 -0.3,0 -0.3,0.1 -0.1,0.1 -0.1,0.2 -0.1,0.3 v 0.6 c 0.1,-0.1 0.1,-0.1 0.2,-0.1 h 2.8 c 0.4,0 0.7,0.1 1,0.3 0.3,0.2 0.4,0.6 0.4,1 v 0.6 c 0,0.3 -0.1,0.6 -0.4,0.8 -0.2,0.2 -0.6,0.3 -1,0.3 h -3 c -0.5,0 -0.8,-0.1 -1.1,-0.3 -0.2,-0.2 -0.4,-0.5 -0.4,-0.8 v -2.8 c 0,-0.4 0.1,-0.7 0.4,-0.8 0.2,-0.2 0.6,-0.3 1.1,-0.3 h 3 c 0.4,0 0.7,0.1 1,0.3 0.3,0.2 0.4,0.5 0.4,0.8 v 0.3 h -1.4 c 0,-0.1 -0.1,-0.2 -0.2,-0.2 z m 0.1,1.9 C 88.1,87.4 88,87.4 87.9,87.4 h -2.1 c -0.1,0 -0.2,0 -0.3,0.1 -0.1,0.1 -0.1,0.2 -0.1,0.4 0,0.2 0,0.3 0.1,0.4 0.1,0.1 0.2,0.1 0.4,0.1 H 88 c 0.1,0 0.2,0 0.3,-0.1 0.1,-0.1 0.1,-0.2 0.1,-0.4 -0.1,-0.2 -0.1,-0.3 -0.2,-0.4 z"
     id="path470"
     inkscape:connector-curvature="0"
     style="fill:#312a20" />
  <path
     d="m 27,113.5 c 2.1,-0.1 4.9,-0.1 5.9,-0.1 1,0 3.8,0.1 5.9,0.1 1,0 1.8,0.1 2.1,0.2 v 0.3 c 0,4.4 -3.6,8 -8,8 -4.4,0 -8,-3.6 -8,-8 v -0.3 c 0.4,-0.1 1.2,-0.2 2.1,-0.2 z"
     id="path472"
     inkscape:connector-curvature="0"
     style="fill:#c8ab7a" />
  <path
     d="m 27,113.5 c 0,3.2 2.6,5.9 5.9,5.9 3.3,0 5.9,-2.7 5.9,-5.9 -2.1,-0.1 -4.9,-0.1 -5.9,-0.1 -1,0 -3.8,0 -5.9,0.1"
     id="path474"
     inkscape:connector-curvature="0"
     style="fill:#cdb487" />
  <path
     d="m 35.6,111.3 h 0.2 v 1.1 l -2.9,3.9 H 31 l 3,-3.9 h -4 v -1.1 z"
     id="path476"
     inkscape:connector-curvature="0"
     style="fill:#312a20" />
  <path
     d="m 54.1,113.9 c 2.1,-0.1 4.9,-0.1 5.9,-0.1 1,0 3.8,0.1 5.9,0.1 1,0 1.8,0.1 2.1,0.2 v 0.3 c 0,4.4 -3.6,8 -8,8 -4.4,0 -8,-3.6 -8,-8 v -0.3 c 0.4,-0.1 1.2,-0.2 2.1,-0.2 z"
     id="path478"
     inkscape:connector-curvature="0"
     style="fill:#c8ab7a" />
  <path
     d="m 54.1,113.9 c 0,3.2 2.6,5.9 5.9,5.9 3.3,0 5.9,-2.7 5.9,-5.9 -2.1,-0.1 -4.9,-0.1 -5.9,-0.1 -1,0 -3.8,0 -5.9,0.1"
     id="path480"
     inkscape:connector-curvature="0"
     style="fill:#cdb487" />
  <path
     d="m 57.3,113.5 c -0.1,-0.1 -0.2,-0.3 -0.2,-0.5 v -0.6 c 0,-0.3 0.1,-0.6 0.4,-0.8 0.2,-0.2 0.6,-0.3 1,-0.3 h 3 c 0.5,0 0.8,0.1 1.1,0.3 0.2,0.2 0.4,0.5 0.4,0.8 v 0.6 c 0,0.3 -0.1,0.5 -0.2,0.6 -0.1,0.1 -0.2,0.2 -0.4,0.3 0.3,0.1 0.4,0.2 0.5,0.3 0.1,0.1 0.1,0.3 0.1,0.4 v 0.6 c 0,0.4 -0.1,0.7 -0.4,0.8 -0.2,0.2 -0.6,0.3 -1.1,0.3 h -3 c -0.4,0 -0.7,-0.1 -1,-0.3 -0.3,-0.2 -0.4,-0.5 -0.4,-0.8 v -0.6 c 0,-0.2 0.1,-0.4 0.3,-0.6 0,0 0.1,-0.1 0.3,-0.2 -0.2,-0.1 -0.3,-0.2 -0.4,-0.3 z m 1.3,1.6 c 0.1,0.1 0.2,0.1 0.4,0.1 h 2 c 0.1,0 0.3,0 0.4,-0.1 0.1,-0.1 0.1,-0.2 0.1,-0.3 0,-0.2 0,-0.3 -0.1,-0.4 -0.1,-0.1 -0.2,-0.1 -0.3,-0.1 H 59 c -0.2,0 -0.3,0 -0.4,0.1 -0.1,0.1 -0.1,0.2 -0.1,0.3 0,0.2 0,0.3 0.1,0.4 z m 0.4,-1.8 h 2.1 c 0.1,0 0.3,0 0.3,-0.1 0.1,-0.1 0.1,-0.2 0.1,-0.3 0,-0.2 0,-0.3 -0.1,-0.4 -0.1,-0.1 -0.2,-0.1 -0.4,-0.1 h -2 c -0.2,0 -0.3,0 -0.3,0.1 -0.1,0.1 -0.1,0.2 -0.1,0.4 -0.1,0.3 0.1,0.4 0.4,0.4 z"
     id="path482"
     inkscape:connector-curvature="0"
     style="fill:#312a20" />
  <path
     d="m 81.3,113.5 c 2.1,-0.1 4.9,-0.1 5.9,-0.1 1,0 3.8,0.1 5.9,0.1 1,0 1.8,0.1 2.1,0.2 v 0.3 c 0,4.4 -3.6,8 -8,8 -4.4,0 -8,-3.6 -8,-8 v -0.3 c 0.3,-0.1 1.1,-0.2 2.1,-0.2 z"
     id="path484"
     inkscape:connector-curvature="0"
     style="fill:#c8ab7a" />
  <path
     d="m 81.3,113.5 c 0,3.2 2.6,5.9 5.9,5.9 3.3,0 5.9,-2.7 5.9,-5.9 -2.1,-0.1 -4.9,-0.1 -5.9,-0.1 -1,0 -3.9,0 -5.9,0.1"
     id="path486"
     inkscape:connector-curvature="0"
     style="fill:#cdb487" />
  <path
     d="m 85.5,115.1 c 0.1,0 0.2,0.1 0.3,0.1 h 2.1 c 0.1,0 0.3,0 0.3,-0.1 0,-0.1 0.1,-0.2 0.1,-0.4 v -0.6 l -0.2,0.2 h -2.8 c -0.4,0 -0.7,-0.1 -1,-0.3 -0.3,-0.2 -0.4,-0.6 -0.4,-1 v -0.6 c 0,-0.3 0.1,-0.6 0.4,-0.8 0.2,-0.2 0.6,-0.3 1,-0.3 h 3 c 0.5,0 0.8,0.1 1.1,0.3 0.2,0.2 0.4,0.5 0.4,0.8 v 2.8 c 0,0.4 -0.1,0.7 -0.4,0.8 -0.2,0.2 -0.6,0.3 -1.1,0.3 h -3 c -0.4,0 -0.7,-0.1 -1,-0.3 -0.3,-0.2 -0.4,-0.5 -0.4,-0.8 v -0.3 h 1.4 z m 0,-1.9 c 0.1,0.1 0.2,0.1 0.3,0.1 h 2.1 c 0.1,0 0.2,0 0.3,-0.1 0.1,-0.1 0.1,-0.2 0.1,-0.3 0,-0.2 0,-0.3 -0.1,-0.4 -0.1,-0.1 -0.2,-0.1 -0.4,-0.1 h -2.1 c -0.1,0 -0.2,0 -0.3,0.1 -0.1,0.1 -0.1,0.2 -0.1,0.4 0.1,0.1 0.1,0.2 0.2,0.3 z"
     id="path488"
     inkscape:connector-curvature="0"
     style="fill:#312a20" />
  <path
     d="m 27,140.6 c 2.1,-0.1 4.9,-0.1 5.9,-0.1 1,0 3.8,0.1 5.9,0.1 1,0 1.8,0.1 2.1,0.2 v 0.3 c 0,4.4 -3.6,8 -8,8 -4.4,0 -8,-3.6 -8,-8 v -0.3 c 0.4,-0.1 1.2,-0.1 2.1,-0.2 z"
     id="path490"
     inkscape:connector-curvature="0"
     style="fill:#c8ab7a" />
  <path
     d="m 27,140.6 c 0,3.2 2.6,5.9 5.9,5.9 3.3,0 5.9,-2.7 5.9,-5.9 -2.1,-0.1 -4.9,-0.1 -5.9,-0.1 -1,0 -3.8,0 -5.9,0.1"
     id="path492"
     inkscape:connector-curvature="0"
     style="fill:#cdb487" />
  <path
     d="m 29.4,141.4 v 0.4 c 0,0.2 -0.1,0.3 -0.2,0.4 -0.1,0.1 -0.2,0.2 -0.4,0.2 h -1.7 c -0.2,0 -0.3,-0.1 -0.4,-0.2 -0.1,-0.1 -0.2,-0.3 -0.2,-0.4 v -1.6 c 0,-0.2 0.1,-0.3 0.2,-0.4 0.1,-0.1 0.2,-0.2 0.4,-0.2 h 1.7 c 0.2,0 0.3,0.1 0.4,0.2 0.1,0.1 0.2,0.3 0.2,0.5 v 0.4 h -0.8 c 0,-0.1 0,-0.1 -0.1,-0.2 0,0 -0.1,-0.1 -0.2,-0.1 h -0.8 c -0.1,0 -0.2,0 -0.2,0.1 0,0 -0.1,0.1 -0.1,0.2 v 0.7 c 0,0.1 0,0.2 0.1,0.2 0,0 0.1,0.1 0.2,0.1 h 0.8 c 0.1,0 0.2,0 0.2,-0.1 0,-0.1 0.1,-0.1 0.1,-0.2 z m 1,-3.2 v 4.3 h -0.8 v -4.3 z m 1.3,3.2 c 0,0.1 0,0.2 0.1,0.2 0,0 0.1,0.1 0.2,0.1 h 0.8 c 0.1,0 0.2,0 0.2,-0.1 0,0 0.1,-0.1 0.1,-0.2 h 0.8 v 0.4 c 0,0.2 -0.1,0.3 -0.2,0.5 -0.1,0.1 -0.2,0.2 -0.4,0.2 h -1.7 c -0.2,0 -0.3,-0.1 -0.4,-0.2 C 31.1,142.2 31,142 31,141.9 v -1.6 c 0,-0.2 0.1,-0.3 0.2,-0.4 0.1,-0.1 0.2,-0.2 0.4,-0.2 h 1.7 c 0.2,0 0.3,0.1 0.4,0.2 0.1,0.1 0.2,0.3 0.2,0.5 v 0.9 h -2.1 v 0.1 z m 1.3,-0.7 c 0,-0.1 0,-0.2 -0.1,-0.3 0,-0.1 -0.1,-0.1 -0.2,-0.1 h -0.8 c -0.1,0 -0.2,0 -0.2,0.1 0,0.1 -0.1,0.2 -0.1,0.3 z m 3,1.7 c -0.1,0.1 -0.2,0.1 -0.3,0.1 h -1.1 c -0.2,0 -0.3,-0.1 -0.4,-0.2 -0.1,-0.1 -0.1,-0.3 -0.1,-0.5 v -0.4 c 0,-0.2 0.1,-0.4 0.2,-0.5 0.1,-0.1 0.2,-0.2 0.4,-0.2 H 36 c 0.1,0 0.1,0.1 0.2,0.2 v -0.5 c 0,-0.1 0,-0.2 -0.1,-0.2 0,0 -0.1,-0.1 -0.2,-0.1 h -1 l -0.1,0.1 H 34.1 V 140 c 0,-0.2 0.1,-0.3 0.2,-0.4 0.1,-0.1 0.3,-0.2 0.5,-0.2 h 1.5 c 0.2,0 0.3,0.1 0.4,0.2 0.1,0.1 0.2,0.3 0.2,0.5 v 2.2 H 36.1 V 142 c 0,0.3 -0.1,0.3 -0.1,0.4 z m -0.9,-1.1 c -0.1,0 -0.1,0 -0.1,0.1 0,0.1 -0.1,0.1 -0.1,0.2 0,0.1 0,0.1 0.1,0.2 l 0.1,0.1 h 0.8 c 0.1,0 0.2,0 0.2,-0.1 0.1,-0.1 0.1,-0.1 0.1,-0.2 0,-0.1 0,-0.1 -0.1,-0.2 -0.1,-0.1 -0.1,-0.1 -0.2,-0.1 z m 3.9,-0.6 c 0,-0.2 -0.1,-0.3 -0.3,-0.3 h -0.3 c -0.1,0 -0.2,0 -0.2,0.1 -0.1,0.1 -0.1,0.2 -0.1,0.4 v 1.5 h -0.8 v -2.9 h 0.8 v 0.4 c 0,-0.1 0.1,-0.2 0.2,-0.3 0.1,-0.1 0.2,-0.1 0.3,-0.1 h 0.6 c 0.2,0 0.3,0.1 0.4,0.2 0.1,0.1 0.2,0.3 0.2,0.5 v 0.6 H 39 Z"
     id="path494"
     inkscape:connector-curvature="0"
     style="fill:#312a20" />
  <path
     d="m 54.1,140.6 c 2.1,-0.1 4.9,-0.1 5.9,-0.1 1,0 3.8,0.1 5.9,0.1 1,0 1.8,0.1 2.1,0.2 v 0.3 c 0,4.4 -3.6,8 -8,8 -4.4,0 -8,-3.6 -8,-8 v -0.3 c 0.4,-0.1 1.2,-0.1 2.1,-0.2 z"
     id="path496"
     inkscape:connector-curvature="0"
     style="fill:#c8ab7a" />
  <path
     d="m 54.1,140.6 c 0,3.2 2.6,5.9 5.9,5.9 3.3,0 5.9,-2.7 5.9,-5.9 -2.1,-0.1 -4.9,-0.1 -5.9,-0.1 -1,0 -3.8,0 -5.9,0.1"
     id="path498"
     inkscape:connector-curvature="0"
     style="fill:#cdb487" />
  <path
     d="m 63.1,142.1 c 0,0.3 -0.1,0.6 -0.4,0.8 -0.3,0.2 -0.6,0.3 -1,0.3 h -3.4 c -0.4,0 -0.7,-0.1 -1,-0.3 -0.3,-0.2 -0.4,-0.5 -0.4,-0.8 v -2.8 c 0,-0.3 0.1,-0.5 0.4,-0.8 0.3,-0.3 0.6,-0.3 1,-0.3 h 3.4 c 0.4,0 0.8,0.1 1,0.3 0.3,0.2 0.4,0.5 0.4,0.8 z m -1.7,-2.6 c -0.2,-0.1 -0.4,-0.2 -0.6,-0.2 h -1.7 c -0.2,0 -0.4,0.1 -0.6,0.2 -0.2,0.1 -0.3,0.3 -0.3,0.4 v 1.7 c 0,0.2 0.1,0.3 0.2,0.4 0.2,0.1 0.4,0.2 0.6,0.2 h 1.7 c 0.2,0 0.4,-0.1 0.6,-0.2 0.2,-0.1 0.2,-0.2 0.2,-0.4 v -1.7 c 0.2,-0.1 0.1,-0.3 -0.1,-0.4 z"
     id="path500"
     inkscape:connector-curvature="0"
     style="fill:#312a20" />
  <path
     d="m 81.3,140.6 c 2.1,-0.1 4.9,-0.1 5.9,-0.1 1,0 3.8,0.1 5.9,0.1 1,0 1.8,0.1 2.1,0.2 v 0.3 c 0,4.4 -3.6,8 -8,8 -4.4,0 -8,-3.6 -8,-8 v -0.3 c 0.3,-0.1 1.1,-0.1 2.1,-0.2 z"
     id="path502"
     inkscape:connector-curvature="0"
     style="fill:#c8ab7a" />
  <path
     d="m 81.3,140.6 c 0,3.2 2.6,5.9 5.9,5.9 3.3,0 5.9,-2.7 5.9,-5.9 -2.1,-0.1 -4.9,-0.1 -5.9,-0.1 -1,0 -3.9,0 -5.9,0.1"
     id="path504"
     inkscape:connector-curvature="0"
     style="fill:#cdb487" />
  <path
     d="m 81,141.3 c 0,0.1 0,0.2 0.1,0.2 0,0 0.1,0.1 0.2,0.1 H 82 c 0.1,0 0.1,0 0.2,-0.1 0,-0.1 0.1,-0.1 0.1,-0.2 H 83 v 0.5 c 0,0.2 -0.1,0.4 -0.2,0.5 -0.1,0.1 -0.2,0.2 -0.4,0.2 h -1.5 c -0.1,0 -0.3,-0.1 -0.4,-0.2 -0.1,-0.1 -0.1,-0.3 -0.1,-0.5 V 140 c 0,-0.2 0.1,-0.3 0.2,-0.5 0.1,-0.1 0.2,-0.2 0.4,-0.2 h 1.5 c 0.2,0 0.3,0.1 0.4,0.2 0.1,0.1 0.1,0.3 0.1,0.5 v 1 h -2 z m 1.2,-0.8 c 0,-0.2 0,-0.3 -0.1,-0.3 0,-0.1 -0.1,-0.1 -0.2,-0.1 h -0.7 c -0.1,0 -0.1,0 -0.2,0.1 0,0.1 -0.1,0.2 -0.1,0.3 z m 2.8,0 c 0,-0.1 0,-0.2 -0.1,-0.2 0,0 -0.1,-0.1 -0.2,-0.1 H 84 c -0.2,0 -0.2,0.1 -0.2,0.3 v 2 h -0.7 v -3.2 h 0.7 v 0.4 c 0,-0.1 0.1,-0.2 0.2,-0.3 0.1,-0.1 0.2,-0.1 0.3,-0.1 h 0.9 c 0.1,0 0.3,0.1 0.4,0.2 0.1,0.1 0.2,0.3 0.2,0.5 v 2.5 H 85 Z m 2.1,-2 v 0.8 h 1.1 v 0.9 h -1.1 v 1.1 c 0,0.1 0,0.2 0.1,0.2 0,0 0.1,0.1 0.2,0.1 0.1,0 0.2,0 0.2,-0.1 0,0 0.1,-0.1 0.1,-0.2 v -0.2 h 0.7 v 0.2 c 0,0.4 -0.1,0.7 -0.2,0.9 -0.1,0.2 -0.3,0.3 -0.5,0.3 h -0.6 c -0.2,0 -0.4,-0.1 -0.5,-0.3 -0.1,-0.2 -0.2,-0.5 -0.2,-0.9 v -1.1 h -0.3 v -0.9 h 0.3 v -0.8 z m 2.4,2.8 c 0,0.1 0,0.2 0.1,0.2 0,0 0.1,0.1 0.2,0.1 h 0.7 c 0.1,0 0.1,0 0.2,-0.1 0,-0.1 0.1,-0.1 0.1,-0.2 h 0.7 v 0.5 c 0,0.2 -0.1,0.4 -0.2,0.5 -0.1,0.1 -0.2,0.2 -0.4,0.2 h -1.5 c -0.1,0 -0.3,-0.1 -0.4,-0.2 -0.1,-0.1 -0.1,-0.3 -0.1,-0.5 V 140 c 0,-0.2 0.1,-0.3 0.2,-0.5 0.1,-0.1 0.2,-0.2 0.4,-0.2 H 91 c 0.2,0 0.3,0.1 0.4,0.2 0.1,0.1 0.1,0.3 0.1,0.5 v 1 h -1.9 v 0.3 z m 1.1,-0.8 c 0,-0.2 0,-0.3 -0.1,-0.3 0,-0.1 -0.1,-0.1 -0.2,-0.1 h -0.7 c -0.1,0 -0.1,0 -0.2,0.1 0,0.1 -0.1,0.2 -0.1,0.3 z m 2.6,0 c 0,-0.2 -0.1,-0.3 -0.2,-0.3 h -0.3 c -0.1,0 -0.2,0.1 -0.2,0.2 -0.1,0.1 -0.1,0.3 -0.1,0.4 v 1.7 h -0.7 v -3.2 h 0.7 v 0.4 c 0,-0.1 0.1,-0.2 0.2,-0.3 0.1,-0.1 0.2,-0.1 0.3,-0.1 h 0.5 c 0.1,0 0.3,0.1 0.4,0.2 0.1,0.1 0.2,0.3 0.2,0.5 v 0.7 h -0.7 v -0.2 z"
     id="path506"
     inkscape:connector-curvature="0"
     style="fill:#312a20" />
  <linearGradient
     id="c"
     gradientUnits="userSpaceOnUse"
     x1="60.333"
     x2="60.333"
     y2="3.4170001">
    <stop
       offset=".031"
       stop-color="#261c19"
       id="stop508" />
    <stop
       offset=".052"
       stop-color="#3c312f"
       id="stop510" />
    <stop
       offset=".083"
       stop-color="#564a49"
       id="stop512" />
    <stop
       offset=".115"
       stop-color="#685c5c"
       id="stop514" />
    <stop
       offset=".148"
       stop-color="#736767"
       id="stop516" />
    <stop
       offset=".184"
       stop-color="#776a6b"
       id="stop518" />
    <stop
       offset=".201"
       stop-color="#6e6162"
       id="stop520" />
    <stop
       offset=".259"
       stop-color="#534949"
       id="stop522" />
    <stop
       offset=".323"
       stop-color="#3e3535"
       id="stop524" />
    <stop
       offset=".394"
       stop-color="#2f2727"
       id="stop526" />
    <stop
       offset=".479"
       stop-color="#271f1f"
       id="stop528" />
    <stop
       offset=".611"
       stop-color="#241d1c"
       id="stop530" />
    <stop
       offset=".652"
       stop-color="#1e1716"
       id="stop532" />
    <stop
       offset=".744"
       stop-color="#17100f"
       id="stop534" />
    <stop
       offset="1"
       stop-color="#150e0d"
       id="stop536" />
  </linearGradient>
  <path
     d="M 11.5,3.4 V 0.7 C 11.5,0.3 11.8,0 12.2,0 h 96.2 c 0.4,0 0.7,0.3 0.7,0.7 v 2.7"
     id="path539"
     inkscape:connector-curvature="0"
     style="fill:url(#c)" />
  <linearGradient
     id="d"
     gradientUnits="userSpaceOnUse"
     x1="60.333"
     y1="260.41699"
     x2="60.333"
     y2="254.5">
    <stop
       offset=".031"
       stop-color="#261c19"
       id="stop541" />
    <stop
       offset=".14"
       stop-color="#241815"
       id="stop543" />
    <stop
       offset=".389"
       stop-color="#221412"
       id="stop545" />
    <stop
       offset="1"
       stop-color="#261c19"
       id="stop547" />
  </linearGradient>
  <path
     d="m 1.5,254.5 h 117.7 v 0.7 c 0,2.4 -1.6,4.4 -3.7,5 -0.5,0.1 -1,0.2 -1.5,0.2 H 6.8 c -0.5,0 -1,-0.1 -1.5,-0.2 -2.2,-0.6 -3.7,-2.7 -3.7,-5 -0.1,0 -0.1,-0.7 -0.1,-0.7 z"
     id="path550"
     inkscape:connector-curvature="0"
     style="fill:url(#d)" />
  <circle
     cx="60.299999"
     cy="212"
     r="28.299999"
     id="circle552"
     style="fill:#d4c1a0" />
</svg>
