<?xml version="1.0" encoding="UTF-8" standalone="no"?>
<svg
   xmlns:dc="http://purl.org/dc/elements/1.1/"
   xmlns:cc="http://creativecommons.org/ns#"
   xmlns:rdf="http://www.w3.org/1999/02/22-rdf-syntax-ns#"
   xmlns:svg="http://www.w3.org/2000/svg"
   xmlns="http://www.w3.org/2000/svg"
   xmlns:sodipodi="http://sodipodi.sourceforge.net/DTD/sodipodi-0.dtd"
   xmlns:inkscape="http://www.inkscape.org/namespaces/inkscape"
   viewBox="0 0 116.5 135.10001"
   version="1.1"
   id="svg85"
   sodipodi:docname="game.svg"
   width="116.5"
   height="135.10001"
   inkscape:version="0.92.4 5da689c313, 2019-01-14">
  <metadata
     id="metadata91">
    <rdf:RDF>
      <cc:Work
         rdf:about="">
        <dc:format>image/svg+xml</dc:format>
        <dc:type
           rdf:resource="http://purl.org/dc/dcmitype/StillImage" />
      </cc:Work>
    </rdf:RDF>
  </metadata>
  <defs
     id="defs89" />
  <sodipodi:namedview
     pagecolor="#ffffff"
     bordercolor="#666666"
     borderopacity="1"
     objecttolerance="10"
     gridtolerance="10"
     guidetolerance="10"
     inkscape:pageopacity="0"
     inkscape:pageshadow="2"
     inkscape:window-width="640"
     inkscape:window-height="480"
     id="namedview87"
     showgrid="false"
     inkscape:zoom="1.7481481"
     inkscape:cx="58.25"
     inkscape:cy="67.6"
     inkscape:window-x="0"
     inkscape:window-y="0"
     inkscape:window-maximized="0"
     inkscape:current-layer="svg85">
    <inkscape:grid
       type="xygrid"
       id="grid901"
       originx="0"
       originy="0.1" />
  </sodipodi:namedview>
  <linearGradient
     id="a"
     gradientUnits="userSpaceOnUse"
     x1="58.25"
     y1="135.03101"
     x2="58.25">
    <stop
       offset="0"
       stop-color="#0a090c"
       id="stop2" />
    <stop
       offset=".096"
       stop-color="#0c0b0e"
       id="stop4" />
    <stop
       offset=".131"
       stop-color="#121214"
       id="stop6" />
    <stop
       offset=".155"
       stop-color="#1e1d1e"
       id="stop8" />
    <stop
       offset=".164"
       stop-color="#242424"
       id="stop10" />
    <stop
       offset=".165"
       stop-color="#242424"
       id="stop12" />
    <stop
       offset=".178"
       stop-color="#1d1f24"
       id="stop14" />
    <stop
       offset=".217"
       stop-color="#1b1e24"
       id="stop16" />
    <stop
       offset=".468"
       stop-color="#1b1e24"
       id="stop18" />
    <stop
       offset=".788"
       stop-color="#1e2127"
       id="stop20" />
    <stop
       offset=".912"
       stop-color="#1d1f25"
       id="stop22" />
    <stop
       offset=".957"
       stop-color="#18191e"
       id="stop24" />
    <stop
       offset=".988"
       stop-color="#0f0f13"
       id="stop26" />
    <stop
       offset="1"
       stop-color="#0a090c"
       id="stop28" />
  </linearGradient>
  <path
     d="m 116.5,110.4 -4.1,21.3 c -0.5,2.2 -1.5,3.4 -3.4,3.4 H 7.5 c -1.9,0 -2.9,-1.2 -3.4,-3.4 L 0,110.4 V 3.4 C 0,1.5 1.5,0 3.4,0 h 109.7 c 1.9,0 3.4,1.5 3.4,3.4 z"
     id="path31"
     inkscape:connector-curvature="0"
     style="fill:url(#a)" />
  <path
     d="m 15,131.1 c -2.5,0 -2.9,-1.6 -3.3,-3.2 L 10,120 c -0.2,-0.7 -0.3,-1.3 0.1,-1.8 0.3,-0.3 0.7,-0.5 1.4,-0.5 h 93.7 c 0.7,0 1.1,0.2 1.4,0.5 0.4,0.5 0.2,1.1 0.1,1.8 l -1.8,7.9 c -0.4,1.6 -0.7,3.2 -3.3,3.2 z"
     id="path33"
     inkscape:connector-curvature="0"
     style="fill:#292a2d" />
  <path
     d="M 58.3,130.6 H 15 c -2.2,0 -2.5,-1.3 -2.9,-2.9 l -1.7,-7.6 c -0.2,-1.1 -0.6,-2 1,-2 H 105 c 1.6,0 1.2,0.9 1,2 l -1.7,7.6 c -0.4,1.6 -0.7,2.9 -2.9,2.9 z"
     id="path35"
     inkscape:connector-curvature="0"
     style="fill:#f30001" />
  <path
     d="m 84.9,87.2 c -1.3,0 -2.3,-1 -2.3,-2.3 0,-1.3 1,-2.3 2.3,-2.3 h 31.6 v 4.6 z"
     id="path37"
     inkscape:connector-curvature="0"
     style="fill:#565656" />
  <path
     d="M 116.5,86.9 H 84.9 c -1.1,0 -2,-0.9 -2,-2 0,-1.1 0.9,-2 2,-2 h 31.6 z"
     id="path39"
     inkscape:connector-curvature="0"
     style="fill:#010101" />
  <path
     d="m 84.9,95 c -1.3,0 -2.3,-1 -2.3,-2.3 0,-1.3 1,-2.3 2.3,-2.3 h 31.6 V 95 Z"
     id="path41"
     inkscape:connector-curvature="0"
     style="fill:#565656" />
  <path
     d="M 116.5,94.7 H 84.9 c -1.1,0 -2,-0.9 -2,-2 0,-1.1 0.9,-2 2,-2 h 31.6 z"
     id="path43"
     inkscape:connector-curvature="0"
     style="fill:#010101" />
  <path
     d="m 84.9,102.7 c -1.3,0 -2.3,-1 -2.3,-2.3 0,-1.3 1,-2.3 2.3,-2.3 h 31.6 v 4.6 z"
     id="path45"
     inkscape:connector-curvature="0"
     style="fill:#565656" />
  <path
     d="M 116.5,102.4 H 84.9 c -1.1,0 -2,-0.9 -2,-2 0,-1.1 0.9,-2 2,-2 h 31.6 z"
     id="path47"
     inkscape:connector-curvature="0"
     style="fill:#010101" />
  <path
     d="m 84.9,110 c -1.3,0 -2.3,-1 -2.3,-2.3 0,-1.3 1,-2.3 2.3,-2.3 h 31.6 v 4.6 z"
     id="path49"
     inkscape:connector-curvature="0"
     style="fill:#565656" />
  <path
     d="M 116.5,109.7 H 84.9 c -1.1,0 -2,-0.9 -2,-2 0,-1.1 0.9,-2 2,-2 h 31.6 z"
     id="path51"
     inkscape:connector-curvature="0"
     style="fill:#010101" />
  <path
     d="m 31.6,87.5 c 1.3,0 2.3,-1 2.3,-2.3 0,-1.3 -1,-2.3 -2.3,-2.3 H 0 v 4.6 z"
     id="path53"
     inkscape:connector-curvature="0"
     style="fill:#565656" />
  <path
     d="m 0,87.2 h 31.6 c 1.1,0 2,-0.9 2,-2 0,-1.1 -0.9,-2 -2,-2 H 0 Z"
     id="path55"
     inkscape:connector-curvature="0"
     style="fill:#010101" />
  <path
     d="m 31.6,95.3 c 1.3,0 2.3,-1 2.3,-2.3 0,-1.3 -1,-2.3 -2.3,-2.3 H 0 v 4.6 z"
     id="path57"
     inkscape:connector-curvature="0"
     style="fill:#565656" />
  <path
     d="m 0,95 h 31.6 c 1.1,0 2,-0.9 2,-2 0,-1.1 -0.9,-2 -2,-2 H 0 Z"
     id="path59"
     inkscape:connector-curvature="0"
     style="fill:#010101" />
  <path
     d="m 31.6,103 c 1.3,0 2.3,-1 2.3,-2.3 0,-1.3 -1,-2.3 -2.3,-2.3 H 0 v 4.6 z"
     id="path61"
     inkscape:connector-curvature="0"
     style="fill:#565656" />
  <path
     d="m 0,102.7 h 31.6 c 1.1,0 2,-0.9 2,-2 0,-1.1 -0.9,-2 -2,-2 H 0 Z"
     id="path63"
     inkscape:connector-curvature="0"
     style="fill:#010101" />
  <path
     d="m 31.6,110.3 c 1.3,0 2.3,-1 2.3,-2.3 0,-1.3 -1,-2.3 -2.3,-2.3 H 0 v 4.6 z"
     id="path65"
     inkscape:connector-curvature="0"
     style="fill:#565656" />
  <path
     d="m 0,110 h 31.6 c 1.1,0 2,-0.9 2,-2 0,-1.1 -0.9,-2 -2,-2 H 0 Z"
     id="path67"
     inkscape:connector-curvature="0"
     style="fill:#010101" />
  <path
     d="M 113.2,78.7 H 3.2 C 3.1,78.7 3,78.6 3,78.5 v -0.8 c 0,-0.1 0.1,-0.2 0.2,-0.2 h 110 c 0.1,0 0.2,0.1 0.2,0.2 v 0.8 z"
     id="path69"
     inkscape:connector-curvature="0"
     style="fill:#24282b" />
  <path
     d="m 54.6,122 h 2.6 v 1.3 h -2.6 z m 0,1.5 h 2.6 v 5.5 h -2.6 z m 9.9,-1.5 h 2.6 v 1.3 h -2.6 z m 0,1.5 h 2.6 v 5.5 h -2.6 z m 9,-1.5 h 2.6 v 1.3 h -2.6 z m 0,1.5 h 2.6 V 129 H 73.5 Z M 50.3,122 v 5.7 c 0,0 -0.2,1.4 1.1,1.4 h 3 V 128 h -0.8 c -0.9,0 -0.9,-0.3 -0.9,-0.5 V 122 Z"
     id="path71"
     inkscape:connector-curvature="0" />
  <path
     d="m 46.2,122 v 5.7 c 0,0 -0.2,1.4 1.1,1.4 h 3 V 128 h -0.8 c -0.9,0 -0.9,-0.3 -0.9,-0.5 V 122 Z m 17.4,-2 -1.9,6.6 -1.4,-4.6 h -2.7 l 1.7,5.7 c 0,0 0.1,0.4 0.5,1 0,0.1 0.4,0.6 1.4,0.6 1.1,0 1.3,-0.7 1.3,-0.7 L 65,120 Z m 4.3,7.9 v 1.1 h 1.9 c 0.2,0 3.3,0 3.3,-2.5 0,-1.7 -1.6,-2 -2.1,-2 -0.5,-0.1 -1.2,-0.4 -1.2,-0.9 0,-0.5 0.7,-0.5 0.7,-0.5 h 1.9 V 122 h -1.9 c -2.5,0 -3.1,1.3 -3.1,2.3 0,1.1 1.2,1.6 1.6,1.8 0.4,0.1 2.1,0.3 2.1,1 0,0.8 -1.3,0.9 -1.3,0.9 h -1.9 z m -31.8,-0.2 c 0,0.5 0.5,1.4 1.4,1.4 h 2.8 V 128 h -0.8 c -0.9,0 -0.9,-0.3 -0.9,-0.5 v -3.9 c 0,-0.2 -0.1,-0.6 0.9,-0.6 h 0.7 v -1 h -1.6 v -1.9 l -4.8,3 h 2.3 z m -10.5,-7.2 h 2.2 v 8.5 h -2.2 z m 15,7.2 c 0,0.5 0.5,1.4 1.4,1.4 h 3.9 V 128 h -2 c -0.9,0 -0.8,-0.3 -0.8,-0.5 v -1.2 c 0,0 -0.1,-0.4 0.3,-0.4 h 2 V 125 h -2 c -0.4,0 -0.3,-0.5 -0.3,-0.5 v -1 c 0,-0.2 -0.1,-0.6 0.7,-0.6 h 1.9 V 122 h -3.9 c -0.8,0 -1.2,0.6 -1.2,1.1 z"
     id="path73"
     inkscape:connector-curvature="0" />
  <path
     d="m 28.9,123.3 v 5.7 h 1.3 v -4 l 1.6,2.1 c 0,0 1.2,1.9 2,1.9 1.2,0 1,-1.3 1,-1.3 V 122 h -1.3 v 3.4 l -1.6,-2.1 c 0,0 -0.7,-1.3 -1.7,-1.3 -1.5,0 -1.3,1.3 -1.3,1.3 z m 55.6,0 v 5.7 h 1.3 v -4 l 1.6,2.1 c 0,0 1.2,1.9 2,1.9 1.2,0 1,-1.3 1,-1.3 V 122 H 89 v 3.4 l -1.6,-2.1 c 0,0 -0.7,-1.3 -1.7,-1.3 -1.3,0 -1.2,1.3 -1.2,1.3 z m -8.1,2.2 c 0,2.3 1.7,3.5 3.8,3.5 2.1,0 3.8,-1.3 3.8,-3.5 0,-2.3 -1.7,-3.5 -3.8,-3.5 -2.1,0 -3.8,1.2 -3.8,3.5 z m 2.7,0 c 0,-1.5 0.5,-2.7 1.2,-2.7 0.7,0 1.2,1.2 1.2,2.7 0,1.5 -0.5,2.7 -1.2,2.7 -0.7,0 -1.2,-1.2 -1.2,-2.7 z"
     id="path75"
     inkscape:connector-curvature="0" />
  <g
     id="g83"
     style="fill:#ffffff">
    <path
       d="m 55,121.6 h 2.6 v 1.3 H 55 Z m 0,1.5 h 2.6 v 5.5 H 55 Z m 9.9,-1.5 h 2.6 v 1.3 h -2.6 z m 0,1.5 h 2.6 v 5.5 h -2.6 z m 9,-1.5 h 2.6 v 1.3 h -2.6 z m 0,1.5 h 2.6 v 5.5 h -2.6 z m -23.2,-1.5 v 5.7 c 0,0 -0.2,1.4 1.1,1.4 h 3 v -1.1 H 54 c -0.9,0 -0.9,-0.3 -0.9,-0.5 v -5.4 h -2.4 z"
       id="path77"
       inkscape:connector-curvature="0" />
    <path
       d="m 46.6,121.6 v 5.7 c 0,0 -0.2,1.4 1.1,1.4 h 3 v -1.1 H 50 c -0.9,0 -0.9,-0.3 -0.9,-0.5 v -5.4 h -2.5 z m 17.4,-2 -1.9,6.6 -1.4,-4.6 H 58 l 1.7,5.7 c 0,0 0.1,0.4 0.5,1 0,0.1 0.4,0.6 1.4,0.6 1.1,0 1.3,-0.7 1.3,-0.7 l 2.6,-8.5 H 64 Z m 4.3,7.9 v 1.1 h 1.9 c 0.2,0 3.3,0 3.3,-2.5 0,-1.7 -1.6,-2 -2.1,-2 -0.5,-0.1 -1.2,-0.4 -1.2,-0.9 0,-0.5 0.7,-0.5 0.7,-0.5 h 1.9 v -1.1 h -1.9 c -2.5,0 -3.1,1.3 -3.1,2.3 0,1.1 1.2,1.6 1.6,1.8 0.4,0.1 2.1,0.3 2.1,1 0,0.8 -1.3,0.9 -1.3,0.9 h -1.9 z m -31.8,-0.2 c 0,0.5 0.5,1.4 1.4,1.4 h 2.8 v -1.1 h -0.8 c -0.9,0 -0.9,-0.3 -0.9,-0.5 v -3.9 c 0,-0.2 -0.1,-0.6 0.9,-0.6 h 0.7 v -0.9 H 39 v -1.9 l -4.8,3 h 2.3 z M 26,120.1 h 2.2 v 8.5 H 26 Z m 15,7.2 c 0,0.5 0.5,1.4 1.4,1.4 h 3.9 v -1.1 h -2 c -0.9,0 -0.8,-0.3 -0.8,-0.5 v -1.2 c 0,0 -0.1,-0.4 0.3,-0.4 h 2 v -0.9 h -2 c -0.4,0 -0.3,-0.5 -0.3,-0.5 v -1 c 0,-0.2 -0.1,-0.6 0.7,-0.6 h 1.9 v -0.9 h -3.9 c -0.8,0 -1.2,0.6 -1.2,1.1 z"
       id="path79"
       inkscape:connector-curvature="0" />
    <path
       d="m 29.3,122.9 v 5.7 h 1.3 v -4 l 1.6,2.1 c 0,0 1.2,1.9 2,1.9 1.2,0 1,-1.3 1,-1.3 v -5.7 h -1.3 v 3.4 l -1.6,-2.1 c 0,0 -0.7,-1.3 -1.7,-1.3 -1.5,0 -1.3,1.3 -1.3,1.3 z m 55.6,0 v 5.7 h 1.3 v -4 l 1.6,2.1 c 0,0 1.2,1.9 2,1.9 1.2,0 1,-1.3 1,-1.3 v -5.7 h -1.3 v 3.4 l -1.6,-2.1 c 0,0 -0.7,-1.3 -1.7,-1.3 -1.4,0 -1.3,1.3 -1.3,1.3 z m -8.1,2.2 c 0,2.3 1.7,3.5 3.8,3.5 2.1,0 3.8,-1.3 3.8,-3.5 0,-2.3 -1.7,-3.5 -3.8,-3.5 -2.1,0 -3.8,1.2 -3.8,3.5 z m 2.7,0 c 0,-1.5 0.5,-2.7 1.2,-2.7 0.7,0 1.2,1.2 1.2,2.7 0,1.5 -0.5,2.7 -1.2,2.7 -0.7,0 -1.2,-1.2 -1.2,-2.7 z"
       id="path81"
       inkscape:connector-curvature="0" />
  </g>
</svg>
