<?xml version="1.0" encoding="UTF-8" standalone="no"?>
<svg
   xmlns:dc="http://purl.org/dc/elements/1.1/"
   xmlns:cc="http://creativecommons.org/ns#"
   xmlns:rdf="http://www.w3.org/1999/02/22-rdf-syntax-ns#"
   xmlns:svg="http://www.w3.org/2000/svg"
   xmlns="http://www.w3.org/2000/svg"
   xmlns:xlink="http://www.w3.org/1999/xlink"
   xmlns:sodipodi="http://sodipodi.sourceforge.net/DTD/sodipodi-0.dtd"
   xmlns:inkscape="http://www.inkscape.org/namespaces/inkscape"
   viewBox="0 0 367.14924 202.53901"
   version="1.1"
   id="svg172"
   sodipodi:docname="controls.svg"
   width="367.14923"
   height="202.539"
   inkscape:version="0.92.4 5da689c313, 2019-01-14">
  <metadata
     id="metadata178">
    <rdf:RDF>
      <cc:Work
         rdf:about="">
        <dc:format>image/svg+xml</dc:format>
        <dc:type
           rdf:resource="http://purl.org/dc/dcmitype/StillImage" />
      </cc:Work>
    </rdf:RDF>
  </metadata>
  <defs
     id="defs176" />
  <sodipodi:namedview
     pagecolor="#ffffff"
     bordercolor="#666666"
     borderopacity="1"
     objecttolerance="10"
     gridtolerance="10"
     guidetolerance="10"
     inkscape:pageopacity="0"
     inkscape:pageshadow="2"
     inkscape:window-width="471"
     inkscape:window-height="442"
     id="namedview174"
     showgrid="false"
     inkscape:zoom="0.73811997"
     inkscape:cx="183.57372"
     inkscape:cy="101.2745"
     inkscape:window-x="0"
     inkscape:window-y="0"
     inkscape:window-maximized="0"
     inkscape:current-layer="svg172" />
  <path
     d="m 174.05023,144.048 a 59.515,59.515 0 0 0 -5.31,0 c 0,0 -10.381,0.559 -16.962,1.696 -10.39,1.79 -20.578,4.739 -30.136,9.304 -12.34,5.885 -20.129,16.027 -25.176003,28.414 -2.138,5.242 -4.699,10.014 -9.632,13.158 -9.914,6.308 -20.136,6.623 -30.599,1.562 -8.922,-4.31 -16.228,-10.745 -22.857,-17.944 -16.174,-17.548 -27.0529997,-37.919 -31.5639997,-61.413 -3.492,-18.178 -2.24500003,-35.921 6.395,-52.712 5.8579997,-11.395 14.8939997,-19.74 25.4239997,-26.651 18.158,-11.911 37.972,-20.223 58.57,-26.778 16.985003,-5.409 34.339003,-9.25 52.055003,-11.194 8.151,-0.892 16.395,-0.972 24.593,-1.461 l 0.393,-0.023 c 1.183,-0.008 3.12,-0.008 4.303,0 l 0.393,0.023 c 8.198,0.489 16.442,0.57 24.593,1.461 17.716,1.944 35.07,5.785 52.055,11.194 20.598,6.555 40.412,14.867 58.57,26.778 10.53,6.911 19.566,15.256 25.424,26.651 8.64,16.791 9.887,34.534 6.395,52.712 -4.511,23.494 -15.39,43.864 -31.564,61.413 -6.629,7.199 -13.935,13.634 -22.857,17.944 -10.463,5.061 -20.685,4.746 -30.599,-1.562 -4.933,-3.144 -7.494,-7.916 -9.632,-13.158 -5.047,-12.387 -12.836,-22.529 -25.176,-28.414 -9.558,-4.565 -19.747,-7.514 -30.136,-9.304 -6.58,-1.137 -16.963,-1.696 -16.963,-1.696 z"
     id="path2"
     inkscape:connector-curvature="0"
     style="fill:#20211d" />
  <path
     d="m 303.97223,52.458 c -6.448,-1.012 -12.809,-0.442 -19.204,0.449 -28.736,4.008 -52.558,17.635 -73.129,37.496 -8.271,7.983 -12.018,17.575 -10.189,29.332 2.413,15.571 16.972,26.597 32.409,23.581 4.29,-0.838 8.426,-2.849 12.414,-4.779 6.106,-2.943 11.864,-6.663 18.064,-9.377 14.639,-6.408 29.406,-12.541 44.213,-18.54 13.104,-5.315 19.559,-14.371 19.827,-28.548 0.289,-15.27 -9.665,-27.295 -24.405,-29.614 z m 7.092,55.816 c -0.67,0.375 -1.367,0.69 -2.078,0.972 -8.513,3.351 -17.166,6.361 -25.491,10.115 -11.958,5.382 -23.695,11.254 -35.432,17.119 -6.006,3.003 -11.784,6.254 -18.842,6.2 -14.19,-0.114 -25.357,-10.604 -26.906,-24.754 -1.347,-12.313 3.881,-21.496 12.555,-29.232 13.547,-12.085 28.219,-22.441 45.52,-28.622 8.613,-3.07 24.969,-7.132 36.102,-6.931 7.856,-0.416 14.767,2.105 21.718,7.621 5.651,4.484 8.151,13.151 8.814,19.72 0.047,0.489 0.067,0.979 0.067,1.468 -0.034,7.294 -1.006,17.958 -16.027,26.324 z"
     id="path4"
     inkscape:connector-curvature="0"
     style="fill:#1a1a13" />
  <path
     d="m 327.09123,81.951 c -0.034,7.293 -1.005,17.957 -16.027,26.323 -0.67,0.375 -1.367,0.69 -2.078,0.972 -8.513,3.351 -17.166,6.361 -25.491,10.115 -11.958,5.382 -23.695,11.254 -35.432,17.119 -6.006,3.003 -11.784,6.254 -18.842,6.2 -14.19,-0.114 -25.357,-10.604 -26.906,-24.754 -1.347,-12.313 3.881,-21.496 12.555,-29.232 13.547,-12.085 28.219,-22.441 45.52,-28.622 8.613,-3.07 24.969,-7.132 36.102,-6.931 7.856,-0.416 14.767,2.105 21.718,7.621 5.651,4.484 8.151,13.151 8.814,19.72 0.047,0.49 0.067,0.98 0.067,1.469 z"
     id="path6"
     inkscape:connector-curvature="0"
     style="fill:#1e1f1a" />
  <path
     d="m 258.53323,49.971 c -7.601,3.532 -15.296,6.871 -22.984,10.215 -1.032,0.449 -2.245,0.483 -2.695,0.576 -5.061,-0.047 -8.459,-2.876 -9.424,-7.253 -0.945,-4.297 0.684,-7.702 4.853,-9.592 7.145,-3.244 14.311,-6.462 21.543,-9.518 6.549,-2.768 12.307,0.107 13.292,6.428 0.596,3.809 -1.066,7.515 -4.585,9.144 z"
     id="path8"
     inkscape:connector-curvature="0"
     style="fill:#1e1e17" />
  <path
     d="m 257.52723,40.061 c 1.11,2.053 0.607,4.483 -2.515,5.835 -6.747,3.228 -13.539,6.362 -20.325,9.508 -0.64,0.297 -1.325,0.557 -2.017,0.673 -1.988,0.332 -4.093,-0.864 -4.716,-2.7 -0.664,-1.957 0.093,-3.487 1.665,-4.661 0.493,-0.368 14.828,-6.731 21.438,-9.619 3.684,-1.759 5.72,-0.423 6.47,0.964 z"
     id="path10"
     inkscape:connector-curvature="0"
     style="fill:#b7b7b7" />
  <g
     id="g14"
     style="fill:#aba9a7"
     transform="translate(-7.7273023e-4,-0.01)">
    <path
       d="m 232.861,39.504 c -0.23,0.097 -0.441,0.152 -0.639,0.165 a 1.29,1.29 0 0 1 -0.535,-0.069 1.124,1.124 0 0 1 -0.426,-0.27 1.518,1.518 0 0 1 -0.304,-0.448 l 0.579,-0.246 a 0.797,0.797 0 0 0 0.208,0.262 0.777,0.777 0 0 0 0.262,0.134 0.785,0.785 0 0 0 0.295,0.019 c 0.101,-0.014 0.204,-0.042 0.305,-0.086 a 1.17,1.17 0 0 0 0.254,-0.141 0.837,0.837 0 0 0 0.171,-0.171 0.465,0.465 0 0 0 0.075,-0.188 0.37,0.37 0 0 0 -0.029,-0.195 0.337,0.337 0 0 0 -0.117,-0.149 0.401,0.401 0 0 0 -0.2,-0.061 1.287,1.287 0 0 0 -0.308,0.012 6.27,6.27 0 0 0 -0.445,0.079 3.28,3.28 0 0 1 -0.532,0.058 1.266,1.266 0 0 1 -0.408,-0.053 0.747,0.747 0 0 1 -0.296,-0.176 0.894,0.894 0 0 1 -0.203,-0.306 0.875,0.875 0 0 1 -0.074,-0.407 0.938,0.938 0 0 1 0.114,-0.397 c 0.069,-0.125 0.165,-0.241 0.288,-0.349 a 1.69,1.69 0 0 1 0.45,-0.272 c 0.182,-0.077 0.36,-0.125 0.532,-0.138 0.171,-0.015 0.332,0.001 0.483,0.048 0.148,0.048 0.283,0.125 0.402,0.234 0.122,0.108 0.219,0.249 0.297,0.42 l -0.574,0.243 c -0.196,-0.347 -0.495,-0.436 -0.892,-0.267 -0.195,0.082 -0.328,0.179 -0.404,0.288 a 0.333,0.333 0 0 0 -0.04,0.336 0.232,0.232 0 0 0 0.086,0.106 c 0.036,0.024 0.086,0.04 0.148,0.048 a 0.874,0.874 0 0 0 0.223,-10e-4 c 0.087,-0.009 0.191,-0.025 0.309,-0.05 0.105,-0.021 0.213,-0.039 0.322,-0.058 0.112,-0.019 0.222,-0.032 0.332,-0.04 a 1.94,1.94 0 0 1 0.325,0.008 c 0.106,0.014 0.205,0.04 0.3,0.082 a 0.857,0.857 0 0 1 0.451,0.482 1,1 0 0 1 0.083,0.443 c -0.01,0.148 -0.049,0.289 -0.119,0.423 -0.07,0.134 -0.169,0.256 -0.296,0.37 a 1.723,1.723 0 0 1 -0.453,0.278 z m 3.035,-4.476 -0.994,0.423 1.124,2.65 -0.6,0.254 -1.124,-2.65 -0.992,0.421 -0.234,-0.552 2.586,-1.098 z m 4.335,1.288 -0.666,0.283 -0.74,-0.767 -1.119,0.476 0.055,1.057 -0.632,0.268 -0.129,-3.724 0.569,-0.241 z m -1.806,-0.913 -0.819,-0.85 0.064,1.171 z m 4.925,-0.411 -0.644,0.273 -0.675,-0.741 a 0.685,0.685 0 0 0 -0.342,-0.206 0.677,0.677 0 0 0 -0.197,-0.018 0.572,0.572 0 0 0 -0.201,0.047 l -0.641,0.272 0.547,1.286 -0.597,0.254 -1.359,-3.201 1.434,-0.609 c 0.086,-0.036 0.167,-0.07 0.247,-0.099 a 1.226,1.226 0 0 1 0.466,-0.088 0.852,0.852 0 0 1 0.439,0.133 0.951,0.951 0 0 1 0.173,0.134 1.124,1.124 0 0 1 0.246,0.359 0.946,0.946 0 0 1 0.07,0.561 0.98,0.98 0 0 1 -0.252,0.489 c 0.179,0.046 0.361,0.162 0.543,0.351 z m -2.935,-0.922 0.794,-0.337 c 0.108,-0.045 0.196,-0.091 0.266,-0.139 a 0.535,0.535 0 0 0 0.157,-0.153 0.332,0.332 0 0 0 0.051,-0.178 0.595,0.595 0 0 0 -0.052,-0.214 c -0.06,-0.143 -0.148,-0.229 -0.266,-0.258 -0.117,-0.029 -0.267,-0.005 -0.45,0.074 l -0.857,0.363 z m 4.716,-2.961 -0.996,0.422 1.126,2.65 -0.6,0.254 -1.124,-2.65 -0.992,0.421 -0.234,-0.552 2.586,-1.097 z"
       id="path12"
       inkscape:connector-curvature="0" />
  </g>
  <path
     d="m 129.52223,93.208 c 0,29.229 -23.655,52.923 -52.835003,52.923 -29.18,0 -52.835,-23.695 -52.835,-52.923 0,-29.228 23.655,-52.923 52.835,-52.923 29.180003,0 52.835003,23.694 52.835003,52.923 z M 76.687227,50.321 c -23.648,0 -42.818,19.21 -42.818,42.907 0,23.697 19.17,42.907 42.818,42.907 23.648003,0 42.818003,-19.21 42.818003,-42.907 0,-23.697 -19.17,-42.907 -42.818003,-42.907 z"
     id="path16"
     inkscape:connector-curvature="0"
     style="fill:#1e1e17" />
  <g
     id="g30"
     style="fill:#a9a6a5"
     transform="translate(-7.7273023e-4,-0.01)">
    <path
       d="m 76.688,41.126 -3.783,8.232 h 7.567 z"
       id="path18"
       inkscape:connector-curvature="0" />
    <circle
       cx="41.967999"
       cy="60.719002"
       r="1.772"
       id="circle20" />
    <circle
       cx="111.408"
       cy="60.719002"
       r="1.772"
       id="circle22" />
    <circle
       cx="111.408"
       cy="125.717"
       r="1.772"
       id="circle24" />
    <circle
       cx="41.967999"
       cy="125.717"
       r="1.772"
       id="circle26" />
    <path
       d="m 24.596,93.218 8.233,3.783 v -7.567 z m 52.092,52.092 3.784,-8.233 h -7.567 z m 52.093,-52.331 -8.233,-3.783 v 7.567 z"
       id="path28"
       inkscape:connector-curvature="0" />
  </g>
  <path
     d="m 126.63823,61.513 5.502,3.525 h 78.511 l 5.503,-3.525 v -7.772 l -5.202,-3.345 h -25.853 l -4.658,-7.291 h -18.552 l -4.604,7.291 h -25.471 l -5.176,3.315 z"
     id="path32"
     inkscape:connector-curvature="0"
     style="fill:#aeabac" />
  <g
     id="g42"
     style="fill:#20211d"
     transform="translate(-7.7273023e-4,-0.01)">
    <path
       d="m 167.75,48.637 c 0,0.382 0.281,0.684 0.619,0.68 h 2.527 v -0.851 h -2.373 v -0.239 h 1.87 V 47.38 h -2.639 z m 0.004,-2.806 c 0,-0.352 0.274,-0.679 0.615,-0.677 h 2.527 v 0.847 h -2.373 v 0.239 h 1.87 v 0.858 h -2.643 z m 16.882,10.902 h 8.01 v 3.525 l -2.86,2.139 h -8.841 l 2.929,-2.169 h 5.175 v -1.326 h -8.009 v -3.45 l 2.957,-2.214 h 8.826 l -2.915,2.169 h -5.272 z m 9.127,-3.495 h 3.596 v 9.159 h -3.596 z m 8.581,3.495 h 8.009 v 3.525 l -2.861,2.139 h -8.84 l 2.929,-2.169 h 5.176 v -1.326 h -8.009 v -3.45 l 2.955,-2.214 h 8.827 l -2.915,2.169 h -5.271 z"
       id="path34"
       inkscape:connector-curvature="0" />
    <path
       d="m 173.25,60.228 v -1.326 h 3.445 l 2.929,-2.169 h -6.374 v -1.326 h 5.189 l 2.915,-2.169 h -8.567 l -3.133,2.125 v 7.034 h 8.717 l 2.942,-2.169 z m -25.172,0 v -1.326 h 3.447 l 2.928,-2.169 h -6.375 v -1.326 h 5.19 l 2.915,-2.169 h -8.568 l -3.132,2.125 v 7.034 h 8.717 l 2.942,-2.169 z m 16.972,-0.873 -4.468,-3.074 v 6.116 h -3.596 v -9.159 h 3.65 l 4.414,2.681 v -2.681 h 3.596 v 9.159 h -3.596 z m -29.557,-3.948 v 4.821 h 4.467 v -1.326 h -3.65 l 2.915,-2.169 h 4.331 v 3.616 l -2.751,2.048 h -8.908 v -6.929 l 2.983,-2.23 h 9.752 l -2.901,2.169 z m 32.786,-11.395 c -0.858,0 -1.554,0.769 -1.554,1.718 v 3.007 c 0,0.948 0.696,1.718 1.554,1.718 h 2.618 v -0.847 h -2.553 c -0.45,0 -0.85,-0.472 -0.85,-0.97 v -2.809 c 0,-0.498 0.399,-0.958 0.85,-0.958 h 2.553 v -0.858 h -2.618 z m 4.956,4.477 v -2.488 h 2.496 v -0.847 h -2.636 c -0.341,-0.002 -0.615,0.325 -0.615,0.677 l -0.003,2.806 c 0,0.382 0.281,0.684 0.618,0.68 h 1.608 l -0.004,-1.951 h -1.21 v 0.839 h 0.447 v 0.284 z m -7.25,-4.485 h -2.508 c -1.057,0 -1.914,0.947 -1.914,2.116 0,1.169 0.857,2.094 1.914,2.084 h 0.764 v 0.286 h -2.661 v 0.828 h 2.574 c 0.484,0 0.876,-0.434 0.876,-0.969 0,-0.535 -0.393,-0.962 -0.876,-0.962 l -0.667,-0.003 c -0.628,0 -1.137,-0.563 -1.137,-1.257 0,-0.694 0.509,-1.257 1.137,-1.257 h 2.499 z"
       id="path36"
       inkscape:connector-curvature="0" />
    <path
       d="m 165.985,45.978 h -2.607 v 0.284 l 0.782,0.002 c 1.057,0 1.914,0.925 1.914,2.093 0,1.169 -0.857,2.096 -1.914,2.096 l -2.58,-0.006 v -0.842 h 2.574 c 0.628,0 1.137,-0.562 1.137,-1.257 0,-0.695 -0.509,-1.25 -1.137,-1.25 l -0.667,-0.003 c -0.484,0 -0.876,-0.434 -0.876,-0.969 0,-0.535 0.393,-0.969 0.876,-0.969 h 2.499 z m 12.663,-0.969 c -0.031,-0.081 -0.042,-0.1 -0.126,-0.1 -0.084,0 -0.104,0.048 -0.136,0.129 l -1.59,5.416 0.837,10e-4 0.899,-3.003 0.296,1.014 h -0.594 v 0.854 h 1.689 z"
       id="path38"
       inkscape:connector-curvature="0" />
    <path
       d="m 173.005,50.454 c -0.858,0 -1.554,-0.769 -1.554,-1.718 V 45.73 c 0,-0.948 0.696,-1.718 1.554,-1.718 h 2.727 v 0.858 h -2.661 c -0.451,0 -0.85,0.46 -0.85,0.958 v 2.809 c 0,0.498 0.399,0.97 0.85,0.97 h 1.885 V 47.081 H 173.49 V 46.24 h 2.245 v 4.017 l 1.599,-5.472 c 0.172,-0.542 0.639,-0.931 1.188,-0.931 0.561,0 1.037,0.406 1.198,0.967 l 1.661,5.635 h -3.147 v -0.847 h 2.044 l -1.386,-4.7 c -0.081,-0.258 -0.226,-0.289 -0.37,-0.289 -0.151,0 -0.29,0.069 -0.369,0.305 l -1.627,5.531 z"
       id="path40"
       inkscape:connector-curvature="0" />
  </g>
  <path
     d="m 307.67223,102.771 c -10.611,4.236 -21.403,8.064 -31.812,12.736 -11.067,4.967 -21.832,10.624 -32.63,16.168 -8.385,4.236 -11.154,4.042 -17.575,2.929 -4.665,-0.811 -11.992,-5.329 -14.894,-11.455 -1.602,-3.378 -2.319,-7.125 -1.964,-10.845 0.818,-8.466 5.202,-13.419 10.731,-17.039 20.317,-13.305 42.363,-22.931 65.072,-31.202 3.921,-1.428 7.909,-3.036 11.998,-3.613 13.372,-1.89 24.318,7.601 24.875,21.148 0.423,10.408 -4.021,17.271 -13.801,21.173 z"
     id="path44"
     inkscape:connector-curvature="0"
     style="fill:#1a1b15" />
  <path
     d="m 225.78823,90.072 -1.023,0.488 -1.648,-1.072 -3.879,1.851 -0.159,1.934 -1.067,0.509 0.584,-6.779 1.506,-0.719 z m -3.476,-1.232 -2.247,-1.521 -0.66,0.315 -0.136,2.659 z m 34.452,-19.341 c 0.287,-0.27 0.328,-0.673 0.136,-1.21 l -0.206,-0.463 c -0.426,-0.902 -1.166,-1.101 -2.212,-0.607 l -4.729,2.233 0.409,0.892 1.701,3.603 0.436,0.897 4.729,-2.233 c 1.046,-0.494 1.361,-1.197 0.937,-2.094 l -0.226,-0.454 c -0.249,-0.395 -0.57,-0.584 -0.975,-0.564 z m -0.089,2.187 -0.613,0.289 -3.299,1.545 -0.638,-1.35 3.334,-1.574 0.578,-0.261 c 0.399,-0.188 0.704,-0.058 0.913,0.385 0.215,0.455 0.124,0.778 -0.275,0.966 z m -1.068,-2.262 -3.907,1.844 -0.638,-1.35 3.907,-1.844 c 0.399,-0.188 0.706,-0.053 0.92,0.4 0.213,0.448 0.117,0.762 -0.282,0.95 z m 34.115,-14.02 -2.296,0.946 c -1.54,0.627 -1.153,1.187 -0.65,2.415 0.503,1.228 0.617,1.896 2.152,1.267 l 4.062,-1.664 0.377,0.921 -4.055,1.666 c -2.146,0.882 -2.69,0.034 -3.445,-1.808 -0.755,-1.843 -0.973,-2.835 1.156,-3.714 l 4.081,-1.671 0.374,0.914 z"
     id="path46"
     inkscape:connector-curvature="0"
     style="fill:#b0aead" />
  <circle
     cx="266.20923"
     cy="96.459"
     r="15.261"
     id="circle48"
     style="fill:#181810" />
  <circle
     cx="266.20923"
     cy="96.459"
     r="13.226"
     id="circle50"
     style="fill:#2c2b25" />
  <path
     d="m 269.33623,94.903 c 0.319,-0.3 0.365,-0.748 0.151,-1.344 l -0.229,-0.515 c -0.473,-1.002 -1.295,-1.223 -2.458,-0.674 l -5.254,2.481 0.454,0.991 1.89,4.003 0.484,0.997 5.254,-2.481 c 1.163,-0.549 1.512,-1.33 1.041,-2.326 l -0.252,-0.504 c -0.274,-0.44 -0.631,-0.651 -1.081,-0.628 z m -0.098,2.43 -0.681,0.322 -3.665,1.717 -0.708,-1.5 3.704,-1.749 0.642,-0.29 c 0.443,-0.209 0.782,-0.065 1.015,0.428 0.237,0.503 0.136,0.863 -0.307,1.072 z m -1.187,-2.514 -4.341,2.049 -0.708,-1.5 4.341,-2.049 c 0.443,-0.209 0.785,-0.059 1.023,0.445 0.234,0.498 0.128,0.846 -0.315,1.055 z"
     id="path52"
     inkscape:connector-curvature="0"
     style="fill:#191a13" />
  <circle
     cx="269.66925"
     cy="103.506"
     r="1.413"
     id="circle54"
     style="fill:#1e1e17" />
  <circle
     cx="231.33823"
     cy="113.78699"
     r="15.261"
     id="circle56"
     style="fill:#181810" />
  <circle
     cx="231.33823"
     cy="113.78699"
     r="13.226"
     id="circle58"
     style="fill:#2c2b25" />
  <path
     d="m 236.89123,113.162 -1.136,0.542 -1.831,-1.191 -4.31,2.057 -0.176,2.149 -1.186,0.566 0.648,-7.533 1.673,-0.798 z m -3.862,-1.369 -2.497,-1.69 -0.733,0.35 -0.151,2.955 z"
     id="path60"
     inkscape:connector-curvature="0"
     style="fill:#191a13" />
  <circle
     cx="300.94623"
     cy="82.041"
     r="15.261"
     id="circle62"
     style="fill:#181810" />
  <circle
     cx="300.94623"
     cy="82.041"
     r="13.226"
     id="circle64"
     style="fill:#2c2b25" />
  <path
     d="m 302.60123,79.673 -2.551,1.051 c -1.711,0.697 -1.281,1.318 -0.722,2.683 0.559,1.365 0.685,2.107 2.391,1.408 l 4.514,-1.849 0.419,1.024 -4.506,1.851 c -2.384,0.98 -2.989,0.038 -3.827,-2.009 -0.839,-2.047 -1.081,-3.15 1.284,-4.127 l 4.534,-1.857 0.416,1.015 z"
     id="path66"
     inkscape:connector-curvature="0"
     style="fill:#191a13" />
  <g
     id="g70"
     style="fill:#aba9a7"
     transform="translate(-7.7273023e-4,-0.01)">
    <path
       d="m 272.37,130.128 -1.241,0.572 1.523,3.305 -0.748,0.345 -1.523,-3.306 -1.236,0.569 -0.317,-0.685 3.226,-1.486 z m 5.572,1.441 -0.802,0.37 -0.88,-0.911 a 0.881,0.881 0 0 0 -0.206,-0.156 0.824,0.824 0 0 0 -0.486,-0.105 0.735,0.735 0 0 0 -0.252,0.066 l -0.8,0.369 0.739,1.606 -0.744,0.343 -1.839,-3.993 1.789,-0.823 a 5.57,5.57 0 0 1 0.309,-0.134 1.7,1.7 0 0 1 0.292,-0.093 c 0.097,-0.023 0.196,-0.035 0.293,-0.036 a 0.968,0.968 0 0 1 0.301,0.042 1.186,1.186 0 0 1 0.482,0.273 1.472,1.472 0 0 1 0.322,0.444 c 0.113,0.243 0.152,0.48 0.114,0.709 a 1.252,1.252 0 0 1 -0.302,0.624 c 0.23,0.051 0.463,0.193 0.7,0.424 z m -3.742,-1.053 0.991,-0.457 c 0.134,-0.062 0.244,-0.122 0.331,-0.186 a 0.663,0.663 0 0 0 0.192,-0.199 0.392,0.392 0 0 0 0.056,-0.227 0.734,0.734 0 0 0 -0.071,-0.269 c -0.083,-0.177 -0.197,-0.282 -0.347,-0.314 -0.149,-0.031 -0.339,0.004 -0.569,0.109 l -1.067,0.492 z m 5.227,0.369 -0.74,0.341 -1.839,-3.992 0.741,-0.343 z m 2.699,-1.166 a 2.278,2.278 0 0 1 -0.861,0.217 1.934,1.934 0 0 1 -0.804,-0.138 c -0.253,-0.103 -0.484,-0.257 -0.694,-0.467 -0.21,-0.21 -0.387,-0.471 -0.53,-0.78 -0.145,-0.317 -0.231,-0.622 -0.253,-0.919 -0.022,-0.297 0.009,-0.574 0.097,-0.83 0.086,-0.254 0.226,-0.486 0.417,-0.691 0.192,-0.204 0.43,-0.373 0.714,-0.502 a 2.29,2.29 0 0 1 0.715,-0.205 1.93,1.93 0 0 1 0.678,0.038 c 0.217,0.053 0.413,0.147 0.592,0.279 0.179,0.131 0.328,0.302 0.448,0.513 l -0.765,0.353 a 0.966,0.966 0 0 0 -0.241,-0.287 c -0.095,-0.073 -0.2,-0.121 -0.317,-0.148 -0.117,-0.027 -0.241,-0.031 -0.375,-0.012 a 1.481,1.481 0 0 0 -0.421,0.13 1.297,1.297 0 0 0 -0.432,0.31 1.109,1.109 0 0 0 -0.244,0.44 1.399,1.399 0 0 0 -0.039,0.547 c 0.023,0.197 0.086,0.409 0.19,0.632 0.1,0.219 0.219,0.401 0.354,0.548 0.136,0.147 0.284,0.257 0.443,0.33 0.158,0.073 0.323,0.108 0.496,0.105 0.173,-0.003 0.347,-0.044 0.521,-0.123 0.248,-0.116 0.444,-0.248 0.588,-0.402 a 1.2,1.2 0 0 0 0.288,-0.547 l -0.192,-0.418 -0.989,0.456 -0.317,-0.687 1.725,-0.794 0.992,2.155 -0.572,0.264 -0.226,-0.243 c -0.086,0.179 -0.21,0.343 -0.373,0.488 a 2.508,2.508 0 0 1 -0.613,0.388 z m 4.459,-2.053 c -0.289,0.134 -0.576,0.205 -0.861,0.215 -0.285,0.01 -0.552,-0.035 -0.804,-0.136 a 2.104,2.104 0 0 1 -0.695,-0.469 2.622,2.622 0 0 1 -0.53,-0.78 2.702,2.702 0 0 1 -0.253,-0.918 2.062,2.062 0 0 1 0.097,-0.83 c 0.087,-0.254 0.226,-0.487 0.417,-0.692 0.192,-0.204 0.43,-0.371 0.714,-0.502 0.238,-0.109 0.476,-0.178 0.715,-0.205 0.238,-0.027 0.465,-0.014 0.679,0.039 0.216,0.053 0.412,0.147 0.591,0.278 0.178,0.132 0.328,0.304 0.448,0.514 l -0.765,0.352 a 0.975,0.975 0 0 0 -0.241,-0.286 0.795,0.795 0 0 0 -0.315,-0.148 1.023,1.023 0 0 0 -0.376,-0.012 1.52,1.52 0 0 0 -0.421,0.129 c -0.173,0.08 -0.318,0.184 -0.432,0.312 a 1.112,1.112 0 0 0 -0.244,0.439 1.387,1.387 0 0 0 -0.038,0.548 c 0.022,0.197 0.084,0.408 0.187,0.631 0.101,0.221 0.221,0.402 0.356,0.548 0.136,0.148 0.284,0.257 0.443,0.33 0.157,0.073 0.323,0.109 0.496,0.106 0.173,-0.003 0.347,-0.044 0.521,-0.125 a 1.84,1.84 0 0 0 0.588,-0.401 1.2,1.2 0 0 0 0.288,-0.547 l -0.192,-0.418 -0.989,0.454 -0.317,-0.685 1.725,-0.794 0.992,2.155 -0.574,0.264 -0.226,-0.244 c -0.086,0.18 -0.209,0.343 -0.371,0.489 a 2.472,2.472 0 0 1 -0.613,0.389 z m 5.708,-2.707 -3.051,1.406 -1.84,-3.993 2.965,-1.366 0.317,0.687 -2.22,1.022 0.415,0.904 2.077,-0.958 0.313,0.682 -2.077,0.957 0.478,1.036 2.307,-1.062 z m 4.229,-1.949 -0.802,0.37 -0.88,-0.91 a 0.894,0.894 0 0 0 -0.441,-0.248 0.841,0.841 0 0 0 -0.251,-0.014 0.75,0.75 0 0 0 -0.253,0.068 l -0.798,0.369 0.739,1.605 -0.744,0.343 -1.838,-3.993 1.786,-0.823 c 0.108,-0.049 0.21,-0.093 0.309,-0.134 0.099,-0.04 0.196,-0.071 0.293,-0.093 0.096,-0.022 0.195,-0.035 0.293,-0.036 a 0.97,0.97 0 0 1 0.3,0.042 c 0.091,0.027 0.177,0.064 0.257,0.108 a 1.37,1.37 0 0 1 0.409,0.371 c 0.055,0.075 0.101,0.156 0.139,0.238 0.112,0.243 0.151,0.48 0.113,0.709 a 1.259,1.259 0 0 1 -0.301,0.624 c 0.23,0.052 0.462,0.193 0.698,0.424 z m -3.743,-1.052 0.992,-0.457 a 1.82,1.82 0 0 0 0.33,-0.186 0.647,0.647 0 0 0 0.192,-0.197 0.408,0.408 0 0 0 0.057,-0.228 0.693,0.693 0 0 0 -0.073,-0.267 c -0.082,-0.179 -0.197,-0.283 -0.347,-0.315 -0.148,-0.031 -0.337,0.004 -0.567,0.11 l -1.067,0.491 z"
       id="path68"
       inkscape:connector-curvature="0" />
  </g>
  <ellipse
     cx="76.687233"
     cy="93.208"
     rx="42.818001"
     ry="42.907001"
     id="ellipse72"
     style="fill:#20211d" />
  <path
     d="m 43.317227,93.056 c 0.023,-18.549 14.862,-33.275 33.491,-33.235 18.269,0.039 33.288003,15.088 33.251003,33.319 -0.037,18.421 -15.105003,33.484 -33.467003,33.456 -18.451,-0.029 -33.298,-14.994 -33.275,-33.54 z m 33.4,-31.423 c -17.709,-0.018 -31.516,13.675 -31.583,31.322 -0.068,17.764 13.785,31.781 31.436,31.811 17.657,0.03 31.652003,-13.963 31.662003,-31.657 0.01,-17.484 -13.981003,-31.458 -31.515003,-31.476 z"
     id="path74"
     inkscape:connector-curvature="0"
     style="fill:#0a0a0a" />
  <path
     d="m 76.721227,61.641 c -17.709,-0.018 -31.516,13.675 -31.583,31.322 -0.068,17.764 13.785,31.781 31.436,31.811 17.657,0.03 31.652003,-13.963 31.662003,-31.657 0.011,-17.484 -13.980003,-31.458 -31.515003,-31.476 z"
     id="path76"
     inkscape:connector-curvature="0"
     style="fill:#373735" />
  <g
     id="g80"
     style="fill:#292b27"
     transform="translate(-7.7273023e-4,-0.01)">
    <path
       d="m 56.709,73.272 2.345,4.895 2.551,-2.551 z m 0,39.714 4.896,-2.344 -2.551,-2.551 z m 39.602,0.178 -2.344,-4.895 -2.551,2.551 z m 0.356,-39.663 -4.895,2.344 2.551,2.551 z"
       id="path78"
       inkscape:connector-curvature="0" />
  </g>
  <path
     d="m 106.08523,93.208 a 137.986,137.986 0 0 1 -0.053,4.272 c -0.067,2.158 -1.186,3.13 -3.378,3.291 -2.835003,0.208 -5.698003,0.476 -8.459003,1.106 -4.786,1.086 -7.829,4.209 -8.895,8.989 -0.583,2.601 -0.851,5.282 -1.079,7.936 -0.248,2.889 -0.858,3.707 -3.673,3.801 a 115.36,115.36 0 0 1 -3.859,0.069 115.313,115.313 0 0 1 -3.859,-0.069 c -2.815,-0.094 -3.425,-0.912 -3.673,-3.801 -0.228,-2.654 -0.496,-5.336 -1.079,-7.936 -1.066,-4.779 -4.109,-7.903 -8.895,-8.989 -2.762,-0.63 -5.624,-0.898 -8.459,-1.106 -2.192,-0.161 -3.311,-1.133 -3.378,-3.291 a 138.064,138.064 0 0 1 -0.053,-4.272 c 10e-4,-1.426 0.008,-2.854 0.053,-4.272 0.067,-2.158 1.186,-3.13 3.378,-3.291 2.835,-0.208 5.698,-0.476 8.459,-1.106 4.786,-1.086 7.829,-4.209 8.895,-8.989 0.583,-2.601 0.851,-5.282 1.079,-7.936 0.248,-2.889 0.858,-3.707 3.673,-3.801 a 115.36,115.36 0 0 1 3.859,-0.069 c 1.288,0.002 2.575,0.024 3.859,0.069 2.815,0.094 3.425,0.912 3.673,3.801 0.228,2.654 0.496,5.336 1.079,7.936 1.066,4.779 4.109,7.903 8.895,8.989 2.762,0.63 5.624,0.898 8.459003,1.106 2.192,0.161 3.311,1.133 3.378,3.291 0.044,1.418 0.052,2.846 0.053,4.272 z"
     id="path82"
     inkscape:connector-curvature="0"
     style="fill:#1d1d17" />
  <g
     id="g88"
     style="fill:#26251f"
     transform="translate(-7.7273023e-4,-0.01)">
    <path
       d="m 48.807,87.004 h 55.762 V 99.545 H 48.807 Z"
       id="path84"
       inkscape:connector-curvature="0" />
    <path
       d="M 70.418,121.1 V 65.336 h 12.54 V 121.1 Z"
       id="path86"
       inkscape:connector-curvature="0" />
  </g>
  <path
     d="m 82.864227,93.205 a 6.1765,6.1765 0 1 1 -12.353,0 6.175,6.175 0 0 1 6.18,-6.173 6.169,6.169 0 0 1 6.173,6.173 z"
     id="path90"
     inkscape:connector-curvature="0"
     style="fill:#1a1b15" />
  <g
     id="g170"
     transform="translate(-7.7273023e-4,-0.01)">
    <path
       d="M 362.373,159.197 H 291.41 a 3.779,3.779 0 0 0 -3.778,3.779 v 34.63 a 3.779,3.779 0 0 0 3.778,3.779 h 70.963 a 3.778,3.778 0 0 0 3.778,-3.779 v -34.63 a 3.779,3.779 0 0 0 -3.778,-3.779"
       id="path92"
       inkscape:connector-curvature="0"
       style="fill:#f4f4f4" />
    <path
       d="m 291.41,159.197 v 0.998 h 70.963 a 2.785,2.785 0 0 1 2.78,2.781 v 34.63 a 2.785,2.785 0 0 1 -2.78,2.781 H 291.41 a 2.786,2.786 0 0 1 -2.78,-2.781 v -34.63 a 2.786,2.786 0 0 1 2.78,-2.781 v -1.996 a 4.779,4.779 0 0 0 -4.777,4.778 v 34.63 a 4.779,4.779 0 0 0 4.777,4.778 h 70.963 a 4.778,4.778 0 0 0 4.777,-4.778 v -34.63 a 4.779,4.779 0 0 0 -4.777,-4.778 H 291.41 Z"
       id="path94"
       inkscape:connector-curvature="0"
       style="fill:#35495e" />
    <path
       d="m 348.198,183.722 h -6.492 l -1.458,4.044 h -2.107 l 5.918,-15.496 h 1.788 l 5.928,15.496 h -2.097 z m -5.875,-1.682 h 5.269 l -2.64,-7.248 z"
       id="path96"
       inkscape:connector-curvature="0"
       style="fill:#35495e" />
    <defs
       id="defs99">
      <path
         id="c"
         d="m 290.09,162.111 h 36.76 v 36.759 h -36.76 v -36.759"
         inkscape:connector-curvature="0" />
    </defs>
    <clipPath
       id="d">
      <use
         xlink:href="#c"
         overflow="visible"
         id="use101"
         style="overflow:visible"
         x="0"
         y="0"
         width="100%"
         height="100%" />
    </clipPath>
    <path
       d="m 320.076,184.871 a 5.076,5.076 0 1 1 0,-10.152 5.076,5.076 0 0 1 0,10.152 m -10.683,-8.329 a 5.075,5.075 0 0 1 -5.076,-5.077 5.076,5.076 0 1 1 5.076,5.077 m -1.829,18.166 a 5.076,5.076 0 1 1 0,-10.152 5.076,5.076 0 0 1 0,10.152 m -10.553,-8.542 a 5.075,5.075 0 0 1 -5.076,-5.077 c 0,-2.803 2.272,-5.075 5.076,-5.075 2.804,0 5.076,2.272 5.076,5.075 a 5.075,5.075 0 0 1 -5.076,5.077 m 11.529,-24.055 c -10.133,0 -18.348,8.214 -18.348,18.348 0,10.133 8.215,18.348 18.348,18.348 10.134,0 18.349,-8.215 18.349,-18.348 -0.001,-10.135 -8.216,-18.348 -18.349,-18.348"
       clip-path="url(#d)"
       id="path104"
       inkscape:connector-curvature="0"
       style="fill:#35495e" />
    <path
       d="m 311.154,189.631 a 3.59,3.59 0 1 1 -7.18,0 3.59,3.59 0 0 1 7.18,0 m -10.362,-8.541 a 3.78,3.78 0 1 1 -7.56,0.001 3.78,3.78 0 0 1 7.56,-0.001 m 12.184,-9.522 a 3.59,3.59 0 1 1 -7.18,0 3.59,3.59 0 0 1 7.18,0"
       clip-path="url(#d)"
       id="path106"
       inkscape:connector-curvature="0"
       style="fill:#35495e" />
    <path
       d="m 277.998,159.197 h -70.962 a 3.78,3.78 0 0 0 -3.779,3.779 v 34.63 a 3.78,3.78 0 0 0 3.779,3.779 h 70.962 a 3.778,3.778 0 0 0 3.778,-3.779 v -34.63 a 3.779,3.779 0 0 0 -3.778,-3.779"
       id="path108"
       inkscape:connector-curvature="0"
       style="fill:#f4f4f4" />
    <path
       d="m 207.036,159.197 v 0.998 h 70.962 a 2.785,2.785 0 0 1 2.78,2.781 v 34.63 a 2.785,2.785 0 0 1 -2.78,2.781 h -70.962 a 2.786,2.786 0 0 1 -2.781,-2.781 v -34.63 a 2.786,2.786 0 0 1 2.781,-2.781 v -1.996 a 4.779,4.779 0 0 0 -4.778,4.778 v 34.63 a 4.779,4.779 0 0 0 4.778,4.778 h 70.962 a 4.778,4.778 0 0 0 4.777,-4.778 v -34.63 a 4.779,4.779 0 0 0 -4.777,-4.778 h -70.962 z"
       id="path110"
       inkscape:connector-curvature="0"
       style="fill:#35495e" />
    <path
       d="M 255.266,187.766 V 172.27 h 5.066 c 1.682,0 2.944,0.348 3.789,1.043 0.852,0.695 1.276,1.724 1.276,3.086 a 3.17,3.17 0 0 1 -0.617,1.927 c -0.411,0.554 -0.972,0.982 -1.682,1.288 0.838,0.233 1.497,0.681 1.98,1.341 0.489,0.652 0.734,1.434 0.734,2.342 0,1.391 -0.451,2.483 -1.353,3.277 -0.9,0.795 -2.174,1.192 -3.82,1.192 z m 2.044,-7.248 v 5.577 h 3.374 c 0.95,0 1.699,-0.245 2.245,-0.734 0.554,-0.497 0.83,-1.178 0.83,-2.044 0,-1.865 -1.015,-2.799 -3.044,-2.799 z m 0,-1.639 h 3.086 c 0.895,0 1.607,-0.224 2.14,-0.671 0.539,-0.447 0.809,-1.054 0.809,-1.82 0,-0.851 -0.248,-1.469 -0.745,-1.852 -0.496,-0.39 -1.252,-0.585 -2.267,-0.585 h -3.022 v 4.928 z"
       id="path112"
       inkscape:connector-curvature="0"
       style="fill:#35495e" />
    <defs
       id="defs115">
      <path
         id="e"
         d="m 205.076,161.625 h 37.545 v 37.544 h -37.545 v -37.544"
         inkscape:connector-curvature="0" />
    </defs>
    <clipPath
       id="f">
      <use
         xlink:href="#e"
         overflow="visible"
         id="use117"
         style="overflow:visible"
         x="0"
         y="0"
         width="100%"
         height="100%" />
    </clipPath>
    <path
       d="m 235.701,184.871 a 5.1860001,5.1860001 0 1 1 0.002,-10.372 5.1860001,5.1860001 0 0 1 -0.002,10.372 m -10.91,-8.506 a 5.186,5.186 0 1 1 0,-10.372 5.186,5.186 0 0 1 0,10.372 m -1.869,18.552 a 5.1845,5.1845 0 1 1 -0.001,-10.369 5.1845,5.1845 0 0 1 0.001,10.369 m -10.777,-8.722 a 5.186,5.186 0 1 1 0,-10.371 5.186,5.186 0 0 1 0,10.371 m 11.774,-24.57 c -10.35,0 -18.739,8.389 -18.739,18.739 0,10.349 8.39,18.739 18.739,18.739 10.349,0 18.739,-8.391 18.739,-18.739 0.001,-10.35 -8.39,-18.739 -18.739,-18.739"
       clip-path="url(#f)"
       id="path120"
       inkscape:connector-curvature="0"
       style="fill:#35495e" />
    <path
       d="m 239.403,179.686 a 3.702,3.702 0 1 1 -7.403,0.003 3.702,3.702 0 0 1 7.403,-0.003 m -23.397,1.323 a 3.863,3.863 0 1 1 -7.72,0 3.863,3.863 0 0 1 7.72,0 m 12.444,-9.725 a 3.666,3.666 0 1 1 -7.332,0 3.666,3.666 0 0 1 7.332,0"
       clip-path="url(#f)"
       id="path122"
       inkscape:connector-curvature="0"
       style="fill:#35495e" />
    <path
       d="M 201.672,94.905 H 130.71 a 3.777,3.777 0 0 0 -3.778,3.778 v 34.63 a 3.777,3.777 0 0 0 3.778,3.778 h 70.962 a 3.777,3.777 0 0 0 3.778,-3.778 v -34.63 a 3.777,3.777 0 0 0 -3.778,-3.778"
       id="path124"
       inkscape:connector-curvature="0"
       style="fill:#f4f4f4" />
    <path
       d="m 130.71,94.905 v 0.32 h 70.962 a 3.462,3.462 0 0 1 3.458,3.458 v 34.63 a 3.462,3.462 0 0 1 -3.458,3.458 H 130.71 a 3.462,3.462 0 0 1 -3.458,-3.458 v -34.63 a 3.462,3.462 0 0 1 3.458,-3.458 v -0.64 a 4.098,4.098 0 0 0 -4.098,4.098 v 34.63 a 4.098,4.098 0 0 0 4.098,4.098 h 70.962 a 4.098,4.098 0 0 0 4.098,-4.098 v -34.63 a 4.098,4.098 0 0 0 -4.098,-4.098 H 130.71 Z"
       id="path126"
       inkscape:connector-curvature="0"
       style="fill:#35495e" />
    <path
       d="m 183.666,115.757 4.044,-7.779 h 2.321 l -5.343,9.717 v 5.779 h -2.043 v -5.779 l -5.343,-9.717 h 2.342 z"
       id="path128"
       inkscape:connector-curvature="0"
       style="fill:#35495e" />
    <defs
       id="defs131">
      <path
         id="g"
         d="m 128.355,97.037 h 38.298 v 38.297 H 128.355 V 97.037"
         inkscape:connector-curvature="0" />
    </defs>
    <clipPath
       id="h">
      <use
         xlink:href="#g"
         overflow="visible"
         id="use133"
         style="overflow:visible"
         x="0"
         y="0"
         width="100%"
         height="100%" />
    </clipPath>
    <path
       d="m 159.594,120.749 a 5.29,5.29 0 1 1 0.001,-10.58 5.29,5.29 0 0 1 -0.001,10.58 m -11.129,-8.676 a 5.29,5.29 0 1 1 0,-10.579 5.29,5.29 0 0 1 0,10.579 m -1.905,18.924 a 5.289,5.289 0 1 1 0,-10.578 5.289,5.289 0 0 1 0,10.578 m -10.994,-8.898 a 5.2885,5.2885 0 1 1 0,-10.577 5.2885,5.2885 0 1 1 0,10.577 m 12.011,-25.062 c -10.557,0 -19.115,8.558 -19.115,19.115 0,10.557 8.558,19.114 19.115,19.114 10.557,0 19.115,-8.558 19.115,-19.114 -0.001,-10.557 -8.559,-19.115 -19.115,-19.115"
       clip-path="url(#h)"
       id="path136"
       inkscape:connector-curvature="0"
       style="fill:#35495e" />
    <path
       d="m 163.371,115.46 a 3.7760001,3.7760001 0 1 1 -7.552,0.002 3.7760001,3.7760001 0 0 1 7.552,-0.002 m -13.072,10.248 a 3.7405,3.7405 0 1 1 -7.481,-0.001 3.7405,3.7405 0 0 1 7.481,0.001 m 1.899,-18.818 a 3.74,3.74 0 1 1 -7.48,0 3.74,3.74 0 0 1 7.48,0"
       clip-path="url(#h)"
       id="path138"
       inkscape:connector-curvature="0"
       style="fill:#35495e" />
    <path
       d="M 203.197,23.916 H 86.137 a 3.764,3.764 0 0 0 -3.764,3.764 v 34.497 a 3.764,3.764 0 0 0 3.764,3.764 h 117.06 a 3.764,3.764 0 0 0 3.764,-3.764 V 27.68 a 3.765,3.765 0 0 0 -3.764,-3.764"
       id="path140"
       inkscape:connector-curvature="0"
       style="fill:#f4f4f4" />
    <path
       d="m 86.137,23.916 v 1.255 h 117.06 a 2.514,2.514 0 0 1 2.509,2.509 v 34.497 a 2.513,2.513 0 0 1 -2.509,2.509 H 86.137 A 2.514,2.514 0 0 1 83.628,62.177 V 27.68 a 2.513,2.513 0 0 1 2.509,-2.509 v -2.51 a 5.02,5.02 0 0 0 -5.019,5.019 v 34.497 a 5.02,5.02 0 0 0 5.019,5.019 h 117.06 a 5.02,5.02 0 0 0 5.019,-5.019 V 27.68 a 5.02,5.02 0 0 0 -5.019,-5.019 H 86.137 Z"
       id="path142"
       inkscape:connector-curvature="0"
       style="fill:#35495e" />
    <path
       d="m 117.741,41.686 h 1.435 v -6.063 h 2.557 v -1.127 h -6.548 v 1.127 h 2.557 z m -8.694,-3.966 v -2.097 h 2.477 c 0.753,0 1.223,0.292 1.223,1.037 0,0.806 -0.431,1.061 -1.223,1.061 h -2.477 z m -1.431,3.966 h 1.431 v -2.839 h 2.438 c 1.051,0 1.186,0.725 1.186,1.751 0,0.525 0.068,0.888 0.173,1.088 h 1.549 c -0.281,-0.394 -0.29,-1.196 -0.29,-1.542 0,-1.017 -0.18,-1.762 -0.992,-1.94 v -0.021 c 0.642,-0.21 1.125,-0.795 1.125,-1.733 0,-1.117 -0.562,-1.95 -2.3,-1.95 h -4.317 z m -8.865,0 h 1.548 l 0.706,-1.782 h 3.21 l 0.716,1.782 h 1.599 l -3.038,-7.19 h -1.7 z m 2.686,-2.909 1.184,-3.035 1.166,3.035 z m -6.716,2.909 h 1.431 v -6.063 h 2.562 V 34.496 H 92.16 v 1.127 h 2.561 z m -9.783,-5.168 c 0,2.949 5.025,1.396 5.025,3.181 0,0.79 -0.812,1.062 -1.68,1.062 -1.176,0 -1.919,-0.455 -1.958,-1.404 h -1.547 c 0.021,1.513 1.003,2.532 3.461,2.532 1.452,0 3.272,-0.485 3.272,-2.34 0,-3.072 -5.082,-1.451 -5.082,-3.141 0,-0.674 0.631,-0.986 1.585,-0.986 1.193,0 1.672,0.603 1.722,1.158 h 1.547 C 91.1,34.493 89,34.294 87.947,34.294 c -1.663,0 -3.009,0.622 -3.009,2.224 m 32.955,8.73 H 88.588 c -2.118,0 -3.836,1.768 -3.836,3.948 0,2.18 1.718,3.948 3.836,3.948 h 29.305 c 2.118,0 3.835,-1.767 3.835,-3.948 0,-2.181 -1.717,-3.948 -3.835,-3.948 z m 20.974,0.248 c -1.752,-0.504 -3.029,-1.121 -3.831,-1.852 -0.795,-0.738 -1.192,-1.646 -1.192,-2.725 0,-1.22 0.486,-2.228 1.458,-3.022 0.979,-0.802 2.25,-1.203 3.811,-1.203 1.064,0 2.011,0.206 2.841,0.617 0.837,0.412 1.483,0.979 1.938,1.703 0.461,0.724 0.691,1.515 0.691,2.374 h -2.054 c 0,-0.937 -0.298,-1.671 -0.894,-2.203 -0.596,-0.54 -1.437,-0.809 -2.522,-0.809 -1.008,0 -1.795,0.224 -2.363,0.67 -0.561,0.44 -0.841,1.054 -0.841,1.841 0,0.631 0.266,1.167 0.798,1.607 0.539,0.433 1.451,0.831 2.735,1.192 1.292,0.362 2.299,0.763 3.023,1.203 0.73,0.433 1.27,0.94 1.618,1.522 0.354,0.582 0.532,1.266 0.532,2.054 0,1.256 -0.49,2.264 -1.469,3.023 -0.979,0.752 -2.289,1.128 -3.927,1.128 a 7.345,7.345 0 0 1 -2.98,-0.606 c -0.922,-0.412 -1.636,-0.972 -2.14,-1.682 -0.497,-0.709 -0.745,-1.515 -0.745,-2.416 h 2.054 c 0,0.937 0.344,1.678 1.033,2.225 0.695,0.539 1.621,0.809 2.778,0.809 1.078,0 1.905,-0.22 2.479,-0.66 0.574,-0.44 0.862,-1.04 0.862,-1.799 0,-0.759 -0.266,-1.345 -0.798,-1.756 -0.533,-0.419 -1.497,-0.83 -2.895,-1.235 z m 19.083,-6.907 h -4.981 v 13.815 h -2.033 V 38.589 h -4.97 v -1.682 h 11.984 z m 10.026,9.77 h -6.492 l -1.458,4.044 h -2.107 l 5.917,-15.496 h 1.788 l 5.928,15.496 h -2.096 z m -5.875,-1.681 h 5.268 L 164.73,39.43 Z m 17.22,-0.543 h -3.64 v 6.269 h -2.054 V 36.907 h 5.13 c 1.746,0 3.086,0.397 4.023,1.192 0.944,0.795 1.416,1.951 1.416,3.47 0,0.965 -0.263,1.806 -0.788,2.522 -0.518,0.717 -1.242,1.252 -2.171,1.607 l 3.64,6.578 v 0.127 h -2.192 z m -3.64,-1.671 h 3.14 c 1.015,0 1.82,-0.263 2.416,-0.788 0.603,-0.525 0.904,-1.228 0.904,-2.107 0,-0.958 -0.287,-1.692 -0.862,-2.203 -0.568,-0.511 -1.391,-0.77 -2.469,-0.777 h -3.129 z m 21.222,-5.875 h -4.981 v 13.815 h -2.033 V 38.589 h -4.97 v -1.682 h 11.984 z"
       id="path144"
       inkscape:connector-curvature="0"
       style="fill:#35495e" />
    <path
       d="M 135.256,159.275 H 20.82 a 3.765,3.765 0 0 0 -3.765,3.765 v 34.503 a 3.765,3.765 0 0 0 3.765,3.765 h 114.436 a 3.765,3.765 0 0 0 3.765,-3.765 V 163.04 a 3.765,3.765 0 0 0 -3.765,-3.765"
       id="path146"
       inkscape:connector-curvature="0"
       style="fill:#f4f4f4" />
    <path
       d="m 20.82,159.275 v 1.242 h 114.436 a 2.527,2.527 0 0 1 2.523,2.523 v 34.503 a 2.527,2.527 0 0 1 -2.523,2.523 H 20.82 a 2.527,2.527 0 0 1 -2.523,-2.523 V 163.04 a 2.527,2.527 0 0 1 2.523,-2.523 v -2.484 a 5.007,5.007 0 0 0 -5.006,5.007 v 34.503 a 5.006,5.006 0 0 0 5.006,5.006 h 114.436 a 5.006,5.006 0 0 0 5.006,-5.006 V 163.04 a 5.008,5.008 0 0 0 -5.006,-5.007 H 20.82 Z"
       id="path148"
       inkscape:connector-curvature="0"
       style="fill:#35495e" />
    <path
       d="m 41.539,199.171 h -7.201 c -2.318,0 -3.158,-1.89 -3.158,-3.16 v -8.842 h -8.844 c -2.319,0 -3.16,-1.89 -3.16,-3.16 v -7.2 c 0,-2.317 1.891,-3.159 3.16,-3.159 h 8.844 v -8.843 c 0,-2.319 1.889,-3.16 3.158,-3.16 h 7.201 c 2.319,0 3.16,1.89 3.16,3.16 v 8.843 h 8.841 c 1.216,0 2.181,0.531 2.718,1.499 0.209,0.379 0.462,1.126 0.435,1.659 H 56.7 v 7.199 c 0,2.319 -1.89,3.161 -3.16,3.161 h -8.841 v 8.842 c 0,2.319 -1.889,3.161 -3.16,3.161 z M 22.335,175.167 c -0.38,0.007 -1.641,0.141 -1.641,1.641 v 7.199 c 0.006,0.381 0.141,1.642 1.641,1.642 h 10.362 v 10.361 c 0.005,0.381 0.141,1.642 1.639,1.642 h 7.198 c 0.389,-0.006 1.645,-0.145 1.645,-1.642 v -10.36 h 10.36 c 0.381,-0.006 1.641,-0.142 1.641,-1.641 v -7.211 c -0.005,-0.291 -0.113,-1.63 -1.64,-1.63 H 43.181 v -10.361 c -0.006,-0.381 -0.141,-1.642 -1.642,-1.642 h -7.201 c -0.38,0.006 -1.639,0.141 -1.639,1.642 v 10.36 z"
       id="path150"
       inkscape:connector-curvature="0"
       style="fill:#35495e" />
    <path
       d="m 37.94,184.107 a 3.7,3.7 0 0 1 -3.695,-3.697 3.7,3.7 0 0 1 3.695,-3.695 3.7,3.7 0 0 1 3.696,3.695 3.701,3.701 0 0 1 -3.696,3.697 z m 0,-5.874 a 2.18,2.18 0 0 0 -2.176,2.177 2.18,2.18 0 0 0 2.176,2.179 2.18,2.18 0 0 0 2.177,-2.179 2.18,2.18 0 0 0 -2.177,-2.177 z m -10e-4,-13.364 -3.043,4.744 h 6.088 z"
       id="path152"
       inkscape:connector-curvature="0"
       style="fill:#35495e" />
    <path
       d="m 40.983,170.372 h -6.088 a 0.762,0.762 0 0 1 -0.64,-1.17 l 3.043,-4.743 c 0.279,-0.437 1,-0.436 1.278,0 l 3.045,4.743 c 0.15,0.233 0.161,0.53 0.027,0.774 a 0.756,0.756 0 0 1 -0.665,0.396 z m -4.698,-1.519 h 3.308 l -1.654,-2.577 z m -13.945,11.556 4.743,3.042 v -6.086 z"
       id="path154"
       inkscape:connector-curvature="0"
       style="fill:#35495e" />
    <path
       d="m 27.083,184.211 a 0.767,0.767 0 0 1 -0.41,-0.12 l -4.743,-3.042 a 0.758,0.758 0 0 1 0,-1.279 l 4.743,-3.044 a 0.76,0.76 0 1 1 1.17,0.639 v 6.086 a 0.761,0.761 0 0 1 -0.76,0.76 z m -3.337,-3.802 2.577,1.653 v -3.307 z m 29.735,-0.001 -4.744,-3.043 v 6.086 z"
       id="path156"
       inkscape:connector-curvature="0"
       style="fill:#35495e" />
    <path
       d="m 48.738,184.211 a 0.762,0.762 0 0 1 -0.76,-0.76 v -6.086 a 0.759,0.759 0 0 1 1.171,-0.639 l 4.744,3.043 a 0.762,0.762 0 0 1 0,1.279 l -4.745,3.043 a 0.767,0.767 0 0 1 -0.41,0.12 z m 0.76,-5.456 v 3.308 l 2.578,-1.654 z m -11.559,17.194 3.045,-4.743 h -6.088 z"
       id="path158"
       inkscape:connector-curvature="0"
       style="fill:#35495e" />
    <path
       d="M 37.939,196.708 A 0.758,0.758 0 0 1 37.3,196.359 l -3.043,-4.743 a 0.76,0.76 0 0 1 0.64,-1.17 h 6.088 a 0.759,0.759 0 0 1 0.639,1.17 l -3.045,4.743 a 0.762,0.762 0 0 1 -0.64,0.349 z m -1.654,-4.742 1.654,2.576 1.654,-2.576 z m 32.702,-4.2 V 172.27 h 4.375 c 1.348,0 2.54,0.298 3.576,0.894 1.036,0.597 1.834,1.444 2.395,2.544 0.567,1.1 0.855,2.362 0.862,3.789 v 0.989 c 0,1.462 -0.284,2.743 -0.852,3.843 a 5.913,5.913 0 0 1 -2.416,2.533 c -1.043,0.589 -2.26,0.89 -3.65,0.904 z m 2.044,-13.815 v 12.144 h 2.15 c 1.575,0 2.799,-0.489 3.672,-1.469 0.88,-0.979 1.32,-2.373 1.32,-4.183 v -0.905 c 0,-1.759 -0.415,-3.125 -1.246,-4.097 -0.823,-0.979 -1.994,-1.477 -3.512,-1.49 z m 10.856,6.428 h 5.194 v 1.607 h -5.194 z m 9.45,1.32 v 6.066 H 89.294 V 172.27 h 5.715 c 1.696,0 3.023,0.433 3.98,1.298 0.965,0.866 1.448,2.012 1.448,3.438 0,1.504 -0.472,2.664 -1.416,3.479 -0.937,0.81 -2.281,1.214 -4.034,1.214 z m 0,-1.67 h 3.672 c 1.093,0 1.93,-0.256 2.512,-0.767 0.582,-0.518 0.873,-1.263 0.873,-2.235 0,-0.922 -0.291,-1.66 -0.873,-2.213 -0.582,-0.554 -1.38,-0.841 -2.395,-0.862 h -3.789 z m 18.817,3.693 h -6.492 l -1.458,4.044 h -2.107 l 5.917,-15.496 h 1.788 l 5.928,15.496 h -2.097 z m -5.875,-1.682 h 5.269 l -2.64,-7.248 z m 11.537,5.726 V 172.27 h 4.375 c 1.348,0 2.54,0.298 3.576,0.894 1.036,0.597 1.834,1.444 2.395,2.544 0.567,1.1 0.855,2.362 0.862,3.789 v 0.989 c 0,1.462 -0.284,2.743 -0.852,3.843 a 5.913,5.913 0 0 1 -2.416,2.533 c -1.043,0.589 -2.26,0.89 -3.651,0.904 z m 2.044,-13.815 v 12.144 h 2.15 c 1.575,0 2.799,-0.489 3.672,-1.469 0.88,-0.979 1.32,-2.373 1.32,-4.183 v -0.905 c 0,-1.759 -0.415,-3.125 -1.245,-4.097 -0.823,-0.979 -1.994,-1.477 -3.512,-1.49 z"
       id="path160"
       inkscape:connector-curvature="0"
       style="fill:#35495e" />
    <ellipse
       cx="229.895"
       cy="120.194"
       rx="2.4530001"
       ry="2.4000001"
       id="ellipse162"
       style="fill:#434547" />
    <path
       d="m 264.217,101.475 c 1.354,0 2.452,1.075 2.452,2.4 0,1.325 -1.098,2.4 -2.452,2.4 -1.355,0 -2.453,-1.075 -2.453,-2.4 0,-1.325 1.098,-2.4 2.453,-2.4 z M 299.81,87.788 c 1.354,0 2.453,1.075 2.453,2.4 0,1.326 -1.099,2.4 -2.453,2.4 -1.354,0 -2.453,-1.075 -2.453,-2.4 0,-1.326 1.099,-2.4 2.453,-2.4 z M 76.454,90.852 c 1.354,0 2.453,1.075 2.453,2.4 0,1.325 -1.099,2.4 -2.453,2.4 -1.354,0 -2.453,-1.075 -2.453,-2.4 0,-1.325 1.098,-2.4 2.453,-2.4 z"
       id="path164"
       inkscape:connector-curvature="0"
       style="fill:#434547" />
    <ellipse
       cx="241.33501"
       cy="47.938999"
       rx="2.4530001"
       ry="2.4000001"
       id="ellipse166"
       style="fill:#434547" />
    <path
       d="m 230.728,120.002 -24.948,0.067 0.002,0.645 24.948,-0.067 m 32.967,-16.771 0.067,54.907 1.024,-10e-4 -0.068,-54.907 m 34.577,-13.686 0.067,68.745 1.134,-0.001 -0.068,-68.745 m -59.067,-42.661 -34.093,0.067 0.002,0.751 34.092,-0.067 M 75.75,93.033 l 0.068,65.758 1.049,-0.001 -0.068,-65.759"
       id="path168"
       inkscape:connector-curvature="0"
       style="fill:#434547" />
  </g>
</svg>
