<?xml version="1.0" encoding="UTF-8" standalone="no"?>
<svg
   xmlns:dc="http://purl.org/dc/elements/1.1/"
   xmlns:cc="http://creativecommons.org/ns#"
   xmlns:rdf="http://www.w3.org/1999/02/22-rdf-syntax-ns#"
   xmlns:svg="http://www.w3.org/2000/svg"
   xmlns="http://www.w3.org/2000/svg"
   xmlns:sodipodi="http://sodipodi.sourceforge.net/DTD/sodipodi-0.dtd"
   xmlns:inkscape="http://www.inkscape.org/namespaces/inkscape"
   width="400"
   height="293.24051"
   version="1.1"
   id="svg47"
   sodipodi:docname="console.svg"
   inkscape:version="0.92.4 5da689c313, 2019-01-14">
  <metadata
     id="metadata51">
    <rdf:RDF>
      <cc:Work
         rdf:about="">
        <dc:format>image/svg+xml</dc:format>
        <dc:type
           rdf:resource="http://purl.org/dc/dcmitype/StillImage" />
      </cc:Work>
    </rdf:RDF>
  </metadata>
  <sodipodi:namedview
     pagecolor="#ffffff"
     bordercolor="#666666"
     borderopacity="1"
     objecttolerance="10"
     gridtolerance="10"
     guidetolerance="10"
     inkscape:pageopacity="0"
     inkscape:pageshadow="2"
     inkscape:window-width="640"
     inkscape:window-height="480"
     id="namedview49"
     showgrid="false"
     inkscape:zoom="0.6775"
     inkscape:cx="200"
     inkscape:cy="146.62026"
     inkscape:window-x="0"
     inkscape:window-y="0"
     inkscape:window-maximized="0"
     inkscape:current-layer="svg47">
    <inkscape:grid
       type="xygrid"
       id="grid858"
       originx="0"
       originy="9.6679685e-07" />
  </sodipodi:namedview>
  <defs
     id="defs5">
    <clipPath
       id="a">
      <path
         d="M 0,373.008 H 508.808 V 0 H 0 Z"
         id="path2"
         inkscape:connector-curvature="0" />
    </clipPath>
  </defs>
  <g
     clip-path="url(#a)"
     transform="matrix(0.78615116,0,0,-0.78615116,0,293.24051)"
     id="g45">
    <path
       d="M 500.1109,373.0078 H 8.6979 c -4.804,0 -8.698,-3.895 -8.698,-8.698 v -10.595 h 95.405 c 1.041,0 2.669,0.33 5.14,-2.898 2.335,-3.052 17.544,-21.756 18.994,-23.733 1.449,-1.976 4.218,-3.03 8.039,-3.03 h 254.607 c 3.822,0 6.589,1.054 8.039,3.03 1.449,1.977 16.658,20.681 18.994,23.733 2.471,3.228 4.1,2.898 5.14,2.898 h 94.45 v 10.595 c 0,4.803 -3.894,8.698 -8.697,8.698"
       id="path7"
       inkscape:connector-curvature="0"
       style="fill:#2b2b2b" />
    <path
       d="m 88.8487,353.7148 h 6.556 c 1.041,0 2.669,0.33 5.14,-2.898 2.335,-3.052 17.544,-21.756 18.994,-23.733 1.45,-1.976 4.218,-3.03 8.039,-3.03 h 254.607 c 3.822,0 6.589,1.054 8.039,3.03 1.45,1.977 16.659,20.681 18.995,23.733 2.47,3.228 4.099,2.898 5.139,2.898 h 94.45 V 8.6978 c 0,-4.803 -3.894,-8.698 -8.697,-8.698 H 8.6987 c -4.805,0 -8.699,3.895 -8.699,8.698 v 345.017 z"
       id="path9"
       inkscape:connector-curvature="0"
       style="fill:#383838" />
    <path
       d="m 115.6016,1.0001 v 311.437 c 0,1.007 0.9,1.831 2,1.831 h 271.439 c 1.1,0 2,-0.824 2,-1.831 V 1.0001"
       id="path11"
       inkscape:connector-curvature="0"
       style="fill:#2d2d2d" />
    <path
       d="m 118.4285,1.0001 v 309.176 c 0,0.999 0.883,1.817 1.963,1.817 h 266.444 c 1.08,0 1.963,-0.818 1.963,-1.817 V 1.0001"
       id="path13"
       inkscape:connector-curvature="0"
       style="fill:#383838" />
    <path
       d="m 115.6016,115.0469 c 0,-20.962 -9.322,-37.955 -30.325,-37.955 -21.002,0 -30.324,16.993 -30.324,37.955 0,20.962 14.007,37.955 30.324,37.955 16.317,0 30.325,-16.993 30.325,-37.955"
       id="path15"
       inkscape:connector-curvature="0"
       style="fill:#2b2b2b" />
    <path
       d="m 103.0406,161.2256 c -38.583,0 -69.861,31.277 -69.861,69.86 0,38.583 31.278,69.862 69.861,69.862 h 302.215 c 38.584,0 69.861,-31.279 69.861,-69.862 0,-38.583 -31.277,-69.86 -69.861,-69.86 z"
       id="path17"
       inkscape:connector-curvature="0"
       style="fill:#3f3f3f" />
    <path
       d="m 19.3721,335.4072 h 3.359 v 5.41 l 6.08,-5.41 h 3.343 v 9.05 h -3.359 v -5.41 l -6.08,5.41 h -3.343 z m 13.1553,0 h 3.359 v 4.291 l 5.054,-4.291 h 3.996 l -5.448,4.657 5.355,4.393 h -3.996 l -4.961,-4.011 v 4.011 h -3.359 z m -13.7153,6.5313 v 2.519 h -9.796 c -1.707,0.03 -2.8,-1.295 -2.8,-2.893 0,-1.597 1.049,-2.924 2.8,-2.892 h 6.204 c 0.232,0 0.42,-0.167 0.42,-0.373 0,-0.207 -0.188,-0.374 -0.42,-0.374 h -8.911 v -2.518 h 9.797 c 1.706,-0.031 2.799,1.295 2.799,2.892 0,1.597 -1.049,2.924 -2.799,2.892 h -6.204 c -0.232,0 -0.42,0.167 -0.42,0.373 0,0.207 0.188,0.374 0.42,0.374 z"
       id="path19"
       inkscape:connector-curvature="0"
       style="fill:#e8e2e9" />
    <path
       d="m 403.065,257.9707 c 14.849,0 26.885,-12.036 26.885,-26.885 0,-14.847 -12.036,-26.885 -26.885,-26.885 H 105.231 c -14.849,0 -26.885,12.038 -26.885,26.885 0,14.849 12.036,26.885 26.885,26.885 z"
       id="path21"
       inkscape:connector-curvature="0"
       style="fill:#383838" />
    <path
       d="M 403.065,204.201 H 105.231 v 53.77 h 297.834 z"
       id="path23"
       inkscape:connector-curvature="0"
       style="fill:#2d2d2d" />
    <path
       d="m 257.4634,324.0537 h 124.722 c 3.821,0 6.589,1.054 8.039,3.03 1.449,1.977 16.658,20.681 18.994,23.733 2.471,3.228 4.099,2.898 5.14,2.898 h 6.555 v 7.315 h -28.334 c -1.04,0 -2.669,0.329 -5.139,-2.9 -2.335,-3.051 -11.597,-14.76 -13.048,-16.737 -1.45,-1.977 -4.217,-3.031 -8.039,-3.031 h -222.944 c -3.822,0 -6.59,1.054 -8.04,3.031 -1.449,1.977 -10.712,13.686 -13.047,16.737 -2.471,3.229 -4.099,2.9 -5.139,2.9 h -28.335 v -7.315 h 6.556 c 1.041,0 2.669,0.33 5.141,-2.898 2.335,-3.052 17.544,-21.756 18.993,-23.733 1.45,-1.976 4.218,-3.03 8.04,-3.03 z M 79.096,361.029 h 3.361 v -7.315 h -3.361 z m -9.554,0 h 3.361 v -7.315 h -3.361 z m -9.555,0 h 3.361 v -7.315 h -3.361 z m -9.555,0 h 3.361 v -7.315 h -3.361 z m -9.554,0 h 3.36 v -7.315 h -3.36 z m -9.555,0 h 3.36 v -7.315 h -3.36 z m -9.555,0 h 3.361 v -7.315 h -3.361 z m -9.555,0 h 3.361 v -7.315 h -3.361 z m -12.213,0 h 6.019 v -7.315 H 0 Z m 429.712,-7.314 h -3.361 v 7.315 h 3.361 z m 9.555,0 h -3.361 v 7.315 h 3.361 z m 9.555,0 h -3.361 v 7.315 h 3.361 z m 9.555,0 h -3.361 v 7.315 h 3.361 z m 9.554,0 h -3.361 v 7.315 h 3.361 z m 9.555,0 h -3.36 v 7.315 h 3.36 z m 9.555,0 h -3.36 v 7.315 h 3.36 z m 9.554,0 h -3.36 v 7.315 h 3.36 z m 12.213,0 h -6.019 v 7.315 h 6.019 z"
       id="path25"
       inkscape:connector-curvature="0"
       style="fill:#494949" />
    <path
       d="m 266.5533,87.0547 v -4.907 h -0.357 c -0.42,1.347 -1.057,2.364 -1.91,3.051 -0.841,0.702 -1.351,1.059 -2.357,1.059 -0.955,0 -1.757,-0.302 -2.394,-0.88 -0.65,-0.591 -1.095,-1.402 -1.363,-2.446 -0.267,-1.045 -0.395,-2.117 -0.395,-3.218 0,-1.333 0.141,-2.502 0.434,-3.506 0.292,-1.016 0.763,-1.552 1.413,-2.02 0.65,-0.467 1.172,-0.7 2.064,-0.7 0.318,0 0.636,0.027 0.955,0.095 0.331,0.083 0.586,0.179 0.93,0.317 v 3.547 c 0,0.55 -0.039,0.907 -0.103,1.071 -0.076,0.151 -0.216,0.303 -0.433,0.427 -0.216,0.137 -0.484,0.206 -0.802,0.206 h -0.331 v 0.371 h 6.267 v -0.371 c -0.472,-0.041 -0.803,-0.111 -0.995,-0.22 -0.19,-0.097 -0.331,-0.275 -0.432,-0.522 -0.051,-0.138 -0.076,-0.454 -0.089,-0.962 l -0.026,-3.438 c -0.815,-0.384 -1.566,-0.715 -2.458,-0.921 -0.892,-0.192 -1.821,-0.356 -2.777,-0.356 -1.222,0 -1.999,0.096 -2.802,0.453 -0.815,0.357 -1.516,0.688 -2.139,1.265 -0.612,0.59 -1.096,1.251 -1.452,1.979 -0.433,0.948 -0.662,1.993 -0.662,3.176 0,2.089 0.687,3.849 2.05,5.292 1.349,1.444 3.069,2.158 5.133,2.158 0.942,0 1.783,-0.261 2.662,-0.618 0.624,-0.262 0.993,-0.385 1.108,-0.385 0.178,0 0.331,0.069 0.484,0.206 0.152,0.138 0.293,0.399 0.42,0.797 z m -23.1299,-0.8925 c -1.21,-0.015 -2.114,-0.633 -2.738,-1.87 -0.523,-1.004 -0.777,-2.475 -0.777,-4.372 0,-2.268 0.369,-3.973 1.16,-5.045 0.56,-0.756 1.362,-1.114 2.355,-1.114 v -1.058 h -0.012 c -2.446,0 -4.343,0.839 -5.681,2.515 -1.058,1.321 -1.593,2.887 -1.593,4.702 0,2.035 0.689,3.739 2.064,5.087 1.376,1.361 3.07,2.006 5.082,1.923 h 0.14 z m 0.025,0 h -0.025 v 0.768 c 2.102,0.056 3.835,-0.589 5.159,-1.91 1.35,-1.361 2.025,-3.052 2.025,-5.086 0,-1.746 -0.51,-3.272 -1.516,-4.605 -1.337,-1.746 -3.223,-2.626 -5.668,-2.626 v 1.058 c 0.675,0 1.261,0.193 1.707,0.523 0.573,0.412 0.942,1.086 1.261,2.007 0.318,0.907 0.534,2.076 0.534,3.547 0,1.759 -0.165,3.065 -0.496,3.931 -0.318,0.88 -0.738,1.485 -1.235,1.856 -0.51,0.357 -1.096,0.537 -1.746,0.537 m -14.0861,-0.2345 v -5.485 h 0.28 c 0.879,0 1.223,0.274 1.617,0.839 0.395,0.549 0.65,1.361 0.752,2.447 h 0.395 v -7.286 h -0.395 c -0.076,0.797 -0.254,1.443 -0.509,1.952 -0.268,0.509 -0.573,0.853 -0.917,1.017 -0.344,0.179 -0.56,0.261 -1.223,0.261 v -4.083 c 0,-0.769 0.039,-1.237 0.103,-1.402 0.063,-0.179 0.177,-0.315 0.355,-0.426 0.179,-0.11 0.459,-0.165 0.866,-0.165 h 0.828 c 1.287,0 1.656,0.303 2.433,0.907 0.777,0.591 1.312,1.279 1.656,2.516 h 0.382 l -0.599,-4.192 h -11.323 v 0.384 h 0.472 c 0.394,0 0.725,0.069 0.968,0.206 0.178,0.097 0.318,0.261 0.408,0.496 0.076,0.165 0.114,0.59 0.114,1.292 v 9.156 c 0,0.618 -0.013,1.003 -0.051,1.154 -0.063,0.233 -0.191,0.426 -0.382,0.55 -0.254,0.192 -0.611,0.288 -1.057,0.288 h -0.472 v 0.386 h 11.617 v -4.111 h -0.383 c -0.204,1.003 -0.471,1.718 -0.84,2.158 -0.357,0.44 -0.854,0.756 -1.516,0.962 -0.382,0.124 -1.096,0.179 -2.153,0.179 z m -15.0542,0.8115 7.145,-8.634 v 5.981 c 0,0.838 -0.115,1.402 -0.37,1.69 -0.343,0.399 -0.751,0.592 -1.567,0.577 v 0.386 h 4.318 v -0.386 c -0.611,-0.068 -0.713,-0.178 -0.916,-0.288 -0.217,-0.124 -0.383,-0.316 -0.497,-0.591 -0.115,-0.261 -0.178,-0.729 -0.178,-1.388 v -11.576 h -0.357 l -9.807,11.576 v -8.84 c 0,-0.797 0.191,-1.333 0.573,-1.621 0.382,-0.277 0.815,-0.413 1.312,-0.413 h 0.344 v -0.385 h -5.146 v 0.385 c 0.802,0 1.35,0.164 1.668,0.466 0.307,0.303 0.472,0.826 0.472,1.568 v 9.816 l -0.319,0.37 c -0.305,0.371 -0.573,0.606 -0.802,0.73 -0.242,0.109 -0.026,0.179 -0.458,0.191 v 0.386 z m 72.4068,-0.577 c -1.21,-0.015 -2.114,-0.633 -2.738,-1.87 -0.523,-1.004 -0.777,-2.475 -0.777,-4.372 0,-2.268 0.369,-3.973 1.159,-5.045 0.56,-0.756 1.363,-1.114 2.356,-1.114 v -1.058 h -0.013 c -2.445,0 -4.343,0.839 -5.68,2.515 -1.058,1.321 -1.592,2.887 -1.592,4.702 0,2.035 0.688,3.739 2.063,5.087 1.376,1.361 3.07,2.006 5.082,1.923 h 0.14 z m 0.025,0 h -0.025 v 0.768 c 2.102,0.056 3.834,-0.589 5.159,-1.91 1.362,-1.361 2.037,-3.052 2.037,-5.086 0,-1.746 -0.509,-3.272 -1.515,-4.605 -1.35,-1.746 -3.236,-2.626 -5.681,-2.626 v 1.058 c 0.675,0 1.261,0.193 1.707,0.523 0.573,0.412 0.942,1.086 1.261,2.007 0.318,0.907 0.535,2.076 0.535,3.547 0,1.759 -0.166,3.065 -0.497,3.931 -0.318,0.88 -0.738,1.485 -1.235,1.856 -0.51,0.357 -1.096,0.537 -1.746,0.537"
       id="path27"
       inkscape:connector-curvature="0"
       style="fill:#c19528" />
    <path
       d="m 272.6534,85.9277 v -5.485 h 0.281 c 0.879,0 1.223,0.274 1.617,0.839 0.395,0.549 0.65,1.361 0.751,2.447 h 0.395 v -7.286 h -0.395 c -0.076,0.797 -0.254,1.443 -0.508,1.952 -0.268,0.509 -0.574,0.853 -0.918,1.017 -0.344,0.179 -0.56,0.261 -1.223,0.261 v -4.083 c 0,-0.769 0.039,-1.237 0.102,-1.402 0.064,-0.179 0.179,-0.315 0.357,-0.426 0.179,-0.11 0.458,-0.165 0.866,-0.165 h 0.828 c 1.286,0 1.656,0.303 2.432,0.907 0.777,0.591 1.312,1.279 1.656,2.516 h 0.382 l -0.598,-4.192 h -11.323 v 0.384 h 0.471 c 0.395,0 0.726,0.069 0.969,0.206 0.178,0.097 0.318,0.261 0.407,0.496 0.076,0.165 0.114,0.59 0.114,1.292 v 9.156 c 0,0.618 -0.012,1.003 -0.05,1.154 -0.064,0.233 -0.192,0.426 -0.383,0.55 -0.254,0.192 -0.611,0.288 -1.057,0.288 h -0.471 v 0.386 h 11.616 v -4.111 h -0.383 c -0.203,1.003 -0.47,1.718 -0.84,2.158 -0.356,0.44 -0.853,0.756 -1.516,0.962 -0.381,0.124 -1.095,0.179 -2.152,0.179 z"
       id="path29"
       inkscape:connector-curvature="0"
       style="fill:#c19528" />
    <path
       d="m 252.3902,81.2266 h 0.076 c 0.726,0 1.313,-0.618 1.313,-1.361 0,-0.743 -0.587,-1.348 -1.313,-1.348 h -0.076 c -0.726,0 -1.311,0.605 -1.311,1.348 0,0.743 0.585,1.361 1.311,1.361"
       id="path31"
       inkscape:connector-curvature="0"
       style="fill:#c19528;fill-rule:evenodd" />
    <path
       d="m 146.692,204.201 h -1.586 v 53.77 h 1.586 z m 216.444,0 h -1.586 v 53.77 h 1.586 z"
       id="path33"
       inkscape:connector-curvature="0"
       style="fill:#282828" />
    <path
       d="M 403.065,230.357 H 105.231 v 1.458 h 297.834 z m -284.637,27.614 h -2.827 v 42.977 h 2.827 z m 272.613,0 h -2.242 v 42.977 h 2.242 z m 0,-96.746 h -2.242 v 42.977 h 2.242 z m -272.613,0 h -2.827 v 42.977 h 2.827 z"
       id="path35"
       inkscape:connector-curvature="0"
       style="fill:#282828" />
    <path
       d="M 89.678,102.388 H 87.101 V 0 h 2.577 z M 16.204,89.833 H 13.627 V 0 h 2.577 z"
       id="path37"
       inkscape:connector-curvature="0"
       style="fill:#2d2d2d" />
    <path
       d="m 13.6273,89.5366 0.99,-2.379 57.449,23.921 -0.99,2.378 z"
       id="path39"
       inkscape:connector-curvature="0"
       style="fill:#2d2d2d" />
    <path
       d="m 102.0801,118.6055 c 0,-9.28 -7.523,-16.804 -16.803,-16.804 -9.28,0 -16.803,7.524 -16.803,16.804 0,9.279 7.523,16.803 16.803,16.803 9.28,0 16.803,-7.524 16.803,-16.803"
       id="path41"
       inkscape:connector-curvature="0"
       style="fill:#383838" />
    <path
       d="m 205.3163,361.0387 h -62.488 c -0.754,0 -1.372,0.617 -1.372,1.372 0,0.754 0.618,1.372 1.372,1.372 h 62.488 c 0.755,0 1.372,-0.618 1.372,-1.372 0,-0.755 -0.617,-1.372 -1.372,-1.372 m 86.7101,0.1343 h -79.49 c -0.755,0 -1.372,0.617 -1.372,1.372 0,0.754 0.617,1.372 1.372,1.372 h 79.49 c 0.755,0 1.372,-0.618 1.372,-1.372 0,-0.755 -0.617,-1.372 -1.372,-1.372 m 70.3266,0 h -62.488 c -0.754,0 -1.372,0.617 -1.372,1.372 0,0.754 0.618,1.372 1.372,1.372 h 62.488 c 0.755,0 1.372,-0.618 1.372,-1.372 0,-0.755 -0.617,-1.372 -1.372,-1.372 m -70.3266,-7.4487 h -79.49 c -0.755,0 -1.372,0.617 -1.372,1.372 0,0.754 0.617,1.372 1.372,1.372 h 79.49 c 0.755,0 1.372,-0.618 1.372,-1.372 0,-0.755 -0.617,-1.372 -1.372,-1.372 m 0,-8.3657 h -79.49 c -0.755,0 -1.372,0.617 -1.372,1.372 0,0.754 0.617,1.372 1.372,1.372 h 79.49 c 0.755,0 1.372,-0.618 1.372,-1.372 0,-0.755 -0.617,-1.372 -1.372,-1.372 m -86.6481,8.1045 h -56.844 c -0.721,0 -1.31,0.589 -1.31,1.31 v 0.124 c 0,0.72 0.589,1.31 1.31,1.31 h 56.844 c 0.72,0 1.31,-0.59 1.31,-1.31 v -0.124 c 0,-0.721 -0.59,-1.31 -1.31,-1.31 m 151.2863,0.2612 h -56.844 c -0.721,0 -1.31,0.589 -1.31,1.31 v 0.124 c 0,0.72 0.589,1.31 1.31,1.31 h 56.844 c 0.72,0 1.31,-0.59 1.31,-1.31 v -0.124 c 0,-0.721 -0.59,-1.31 -1.31,-1.31 m -6.3323,-8.3657 h -50.585 c -0.68,0 -1.237,0.557 -1.237,1.237 v 0.269 c 0,0.681 0.557,1.238 1.237,1.238 h 50.585 c 0.68,0 1.237,-0.557 1.237,-1.238 v -0.269 c 0,-0.68 -0.557,-1.237 -1.237,-1.237 m -144.9941,0 h -50.585 c -0.68,0 -1.237,0.557 -1.237,1.237 v 0.269 c 0,0.681 0.557,1.238 1.237,1.238 h 50.585 c 0.68,0 1.237,-0.557 1.237,-1.238 v -0.269 c 0,-0.68 -0.557,-1.237 -1.237,-1.237"
       id="path43"
       inkscape:connector-curvature="0"
       style="fill:#212121" />
  </g>
</svg>
