<?xml version="1.0" encoding="UTF-8" standalone="no"?>
<svg
   xmlns:dc="http://purl.org/dc/elements/1.1/"
   xmlns:cc="http://creativecommons.org/ns#"
   xmlns:rdf="http://www.w3.org/1999/02/22-rdf-syntax-ns#"
   xmlns:svg="http://www.w3.org/2000/svg"
   xmlns="http://www.w3.org/2000/svg"
   xmlns:sodipodi="http://sodipodi.sourceforge.net/DTD/sodipodi-0.dtd"
   xmlns:inkscape="http://www.inkscape.org/namespaces/inkscape"
   width="137.4845"
   height="200"
   version="1.1"
   id="svg27"
   sodipodi:docname="controller.svg"
   inkscape:version="0.92.4 5da689c313, 2019-01-14">
  <metadata
     id="metadata31">
    <rdf:RDF>
      <cc:Work
         rdf:about="">
        <dc:format>image/svg+xml</dc:format>
        <dc:type
           rdf:resource="http://purl.org/dc/dcmitype/StillImage" />
      </cc:Work>
    </rdf:RDF>
  </metadata>
  <sodipodi:namedview
     pagecolor="#ffffff"
     bordercolor="#666666"
     borderopacity="1"
     objecttolerance="10"
     gridtolerance="10"
     guidetolerance="10"
     inkscape:pageopacity="0"
     inkscape:pageshadow="2"
     inkscape:window-width="471"
     inkscape:window-height="442"
     id="namedview29"
     showgrid="false"
     inkscape:zoom="1.18"
     inkscape:cx="68.742249"
     inkscape:cy="100"
     inkscape:window-x="0"
     inkscape:window-y="0"
     inkscape:window-maximized="0"
     inkscape:current-layer="svg27">
    <inkscape:grid
       type="xygrid"
       id="grid33"
       originx="1.3494929e-16"
       originy="0" />
  </sodipodi:namedview>
  <defs
     id="defs5">
    <clipPath
       id="a">
      <path
         d="M 0,345.409 H 237.442 V 0 H 0 Z"
         id="path2"
         inkscape:connector-curvature="0" />
    </clipPath>
  </defs>
  <g
     clip-path="url(#a)"
     transform="matrix(0.57902371,0,0,-0.57902371,-5.7902371e-5,200)"
     id="g25">
    <path
       d="m 5.0801,0 c -2.805,0 -5.08,2.275 -5.08,5.077 v 335.255 c 0,2.803 2.275,5.077 5.08,5.077 h 227.283 c 2.807,0 5.079,-2.274 5.079,-5.077 V 5.077 c 0,-2.802 -2.272,-5.077 -5.079,-5.077 z"
       id="path7"
       inkscape:connector-curvature="0"
       style="fill:#383838" />
    <path
       d="m 150.2305,203.2441 c -24.741,0 -44.799,20.057 -44.799,44.799 0,24.744 20.058,44.799 44.799,44.799 24.743,0 44.801,-20.055 44.801,-44.799 0,-24.742 -20.058,-44.799 -44.801,-44.799"
       id="path9"
       inkscape:connector-curvature="0"
       style="fill:#2d2d2d" />
    <path
       d="m 149.6329,230.1211 c -9.898,0 -17.92,8.025 -17.92,17.922 0,9.897 8.022,17.918 17.92,17.918 9.897,0 17.92,-8.021 17.92,-17.918 0,-9.897 -8.023,-17.922 -17.92,-17.922"
       id="path11"
       inkscape:connector-curvature="0"
       style="fill:#3f3f3f" />
    <path
       d="m 168.3809,71.8799 c 6.902,-13.08 15.031,-17.825 26.328,-14.581 11.295,3.245 17.824,15.032 14.578,26.328 -8.804,27.479 -41.172,60.853 -84.576,85.198 -10.21,5.825 -23.037,3.599 -29.437,-6.259 -6.399,-9.861 -3.88,-23.498 6.262,-29.439 34.546,-20.228 49.407,-29.864 66.845,-61.247"
       id="path13"
       inkscape:connector-curvature="0"
       style="fill:#2d2d2d" />
    <path
       d="m 113.459,136.416 c -7.857,0 -14.225,6.369 -14.225,14.226 0,7.857 6.368,14.221 14.225,14.221 7.854,0 14.224,-6.364 14.224,-14.221 0,-7.857 -6.37,-14.226 -14.224,-14.226 m 30.0938,-19.0117 c -7.857,0 -14.224,6.365 -14.224,14.223 0,7.856 6.367,14.225 14.224,14.225 7.857,0 14.225,-6.369 14.225,-14.225 0,-7.858 -6.368,-14.223 -14.225,-14.223 m 26.3457,-25.0176 c -7.857,0 -14.224,6.369 -14.224,14.222 0,7.857 6.367,14.226 14.224,14.226 7.855,0 14.225,-6.369 14.225,-14.226 0,-7.853 -6.37,-14.222 -14.225,-14.222 m 19.664,-29.2715 c -7.856,0 -14.224,6.365 -14.224,14.223 0,7.856 6.368,14.225 14.224,14.225 7.857,0 14.225,-6.369 14.225,-14.225 0,-7.858 -6.368,-14.223 -14.225,-14.223 m 10.2071,139.2969 c 0.316,2.373 2.494,4.037 4.867,3.719 2.37,-0.32 4.035,-2.497 3.716,-4.865 l -1.83,-13.691 c -0.319,-2.372 -2.497,-4.037 -4.867,-3.723 -2.37,0.32 -4.034,2.498 -3.718,4.87 z m 0,-58.2149 c 0.316,-2.368 2.494,-4.032 4.867,-3.719 2.37,0.32 4.035,2.497 3.716,4.869 l -1.83,13.692 c -0.319,2.367 -2.497,4.036 -4.867,3.718 -2.37,-0.32 -4.034,-2.498 -3.718,-4.865 z"
       id="path15"
       inkscape:connector-curvature="0"
       style="fill:#494949" />
    <path
       d="m 221.7891,328.5058 v -2.404 h 3.866 l -3.866,-4.347 v -2.386 h 6.469 v 2.4 h -3.869 l 3.869,4.346 v 2.391 z m 0,-9.4062 v -2.399 h 3.066 l -3.066,-3.613 v -2.854 l 3.328,3.89 3.141,-3.824 v 2.855 l -2.866,3.546 h 2.866 v 2.399 z m 4.667,9.8037 h 1.802 v 7.003 c 0.019,1.217 -0.928,2 -2.068,2 -1.141,0 -2.09,-0.752 -2.069,-2 v -4.436 c 0,-0.164 -0.117,-0.3 -0.266,-0.3 -0.148,0 -0.265,0.136 -0.265,0.3 v 6.369 h -1.801 v -7.001 c -0.022,-1.222 0.925,-2.001 2.066,-2.001 1.143,0 2.09,0.748 2.068,2.001 v 4.435 c 0,0.164 0.12,0.301 0.267,0.301 0.147,0 0.266,-0.137 0.266,-0.301 z M 41.5752,163.0176 h -3.139 v 0.23 c 0.864,0.266 1.514,0.673 1.953,1.222 0.447,0.536 0.677,0.859 0.677,1.505 0,0.611 -0.195,1.125 -0.564,1.531 -0.379,0.416 -0.895,0.699 -1.563,0.872 -0.669,0.169 -1.355,0.253 -2.058,0.253 -0.852,0 -1.598,-0.093 -2.24,-0.279 -0.651,-0.186 -0.994,-0.486 -1.293,-0.902 -0.298,-0.416 -0.447,-0.748 -0.447,-1.32 0,-0.204 0.016,-0.407 0.06,-0.611 0.053,-0.212 0.113,-0.376 0.201,-0.593 h 2.27 c 0.349,0 0.579,0.022 0.685,0.062 0.096,0.049 0.192,0.141 0.272,0.279 0.086,0.138 0.133,0.31 0.133,0.514 v 0.212 h 0.237 v -4.006 h -0.237 c -0.028,0.301 -0.071,0.51 -0.141,0.633 -0.063,0.124 -0.178,0.212 -0.334,0.279 -0.089,0.031 -0.291,0.049 -0.615,0.053 l -2.199,0.017 c -0.245,0.523 -0.456,1.001 -0.589,1.572 -0.121,0.571 -0.227,1.165 -0.227,1.775 0,0.784 0.061,1.279 0.29,1.793 0.227,0.522 0.437,0.97 0.807,1.368 0.378,0.389 0.799,0.699 1.266,0.929 0.609,0.274 1.275,0.424 2.032,0.424 1.336,0 2.461,-0.442 3.381,-1.314 0.926,-0.863 1.382,-1.961 1.382,-3.279 0,-0.603 -0.166,-1.143 -0.396,-1.705 -0.166,-0.399 -0.246,-0.633 -0.246,-0.708 0,-0.111 0.044,-0.212 0.133,-0.31 0.088,-0.098 0.254,-0.185 0.509,-0.266 z m -0.5713,14.789 c -0.009,0.774 -0.405,1.355 -1.195,1.752 -0.642,0.332 -1.582,0.496 -2.795,0.496 -1.452,0 -2.541,-0.234 -3.227,-0.739 -0.482,-0.363 -0.713,-0.872 -0.713,-1.509 h -0.674 v 0.009 c 0,1.562 0.535,2.775 1.608,3.634 0.844,0.672 1.844,1.013 3.006,1.013 1.301,0 2.39,-0.438 3.251,-1.314 0.872,-0.881 1.284,-1.966 1.233,-3.254 v -0.088 z m 0,-0.018 v 0.018 h 0.494 c 0.033,-1.342 -0.379,-2.452 -1.224,-3.298 -0.87,-0.863 -1.953,-1.292 -3.251,-1.292 -1.119,0 -2.094,0.322 -2.947,0.965 -1.115,0.858 -1.676,2.063 -1.676,3.625 h 0.674 c 0,-0.43 0.124,-0.806 0.336,-1.089 0.264,-0.368 0.694,-0.602 1.282,-0.81 0.58,-0.2 1.328,-0.341 2.269,-0.341 1.124,0 1.961,0.106 2.514,0.318 0.562,0.204 0.949,0.475 1.186,0.788 0.228,0.328 0.343,0.704 0.343,1.116 m -0.1503,9.0073 h -3.508 v -0.177 c 0,-0.562 0.177,-0.783 0.537,-1.035 0.353,-0.253 0.87,-0.412 1.566,-0.479 v -0.251 h -4.659 v 0.251 c 0.511,0.049 0.923,0.16 1.248,0.324 0.326,0.173 0.545,0.367 0.651,0.589 0.112,0.216 0.166,0.358 0.166,0.778 h -2.609 c -0.492,0 -0.792,-0.021 -0.897,-0.062 -0.115,-0.045 -0.204,-0.115 -0.274,-0.23 -0.069,-0.115 -0.104,-0.292 -0.104,-0.553 v -0.531 c 0,-0.819 0.192,-1.059 0.579,-1.554 0.379,-0.496 0.82,-0.837 1.61,-1.057 v -0.245 l -2.681,0.381 v 7.242 h 0.246 v -0.301 c 0,-0.252 0.042,-0.465 0.131,-0.62 0.061,-0.115 0.168,-0.203 0.318,-0.261 0.104,-0.049 0.376,-0.075 0.823,-0.075 h 5.854 c 0.396,0 0.645,0.009 0.739,0.035 0.151,0.04 0.273,0.12 0.352,0.244 0.125,0.163 0.183,0.389 0.183,0.677 v 0.301 h 0.249 v -7.427 h -2.629 v 0.243 c 0.642,0.128 1.099,0.301 1.379,0.54 0.283,0.226 0.484,0.545 0.617,0.965 0.08,0.248 0.113,0.704 0.113,1.377 z m 0.5195,9.6279 -5.521,-4.568 h 3.826 c 0.534,0 0.894,0.07 1.08,0.234 0.255,0.222 0.379,0.482 0.367,1.005 h 0.248 v -2.762 h -0.248 c -0.041,0.39 -0.112,0.456 -0.184,0.584 -0.079,0.138 -0.201,0.243 -0.376,0.32 -0.168,0.074 -0.466,0.114 -0.887,0.114 h -7.403 v 0.23 l 7.403,6.268 h -5.653 c -0.51,0 -0.851,-0.124 -1.037,-0.367 -0.176,-0.244 -0.263,-0.523 -0.263,-0.837 v -0.221 h -0.247 v 3.288 h 0.247 c 0,-0.509 0.103,-0.862 0.298,-1.066 0.193,-0.195 0.527,-0.301 1.002,-0.301 h 6.276 l 0.236,0.203 c 0.238,0.195 0.387,0.368 0.467,0.514 0.07,0.155 0.115,0.017 0.121,0.292 h 0.248 z m -0.3692,-46.2949 c -0.009,0.77 -0.405,1.35 -1.195,1.748 -0.642,0.336 -1.582,0.5 -2.795,0.5 -1.452,0 -2.541,-0.239 -3.227,-0.744 -0.482,-0.358 -0.713,-0.871 -0.713,-1.504 h -0.674 v 0.008 c 0,1.562 0.535,2.775 1.608,3.63 0.844,0.677 1.844,1.018 3.006,1.018 1.301,0 2.39,-0.438 3.251,-1.319 0.872,-0.876 1.284,-1.961 1.233,-3.249 v -0.088 z m 0,-0.018 v 0.018 h 0.494 c 0.033,-1.346 -0.379,-2.453 -1.224,-3.298 -0.87,-0.872 -1.953,-1.306 -3.251,-1.306 -1.119,0 -2.094,0.328 -2.947,0.969 -1.115,0.864 -1.676,2.068 -1.676,3.635 h 0.674 c 0,-0.435 0.124,-0.807 0.336,-1.094 0.264,-0.367 0.694,-0.601 1.282,-0.805 0.58,-0.205 1.328,-0.341 2.269,-0.341 1.124,0 1.961,0.106 2.514,0.318 0.562,0.204 0.949,0.47 1.186,0.788 0.228,0.327 0.343,0.699 0.343,1.116"
       id="path17"
       inkscape:connector-curvature="0"
       style="fill:#e8e2e9" />
    <path
       d="m 40.8536,159.1181 h -3.508 v -0.177 c 0,-0.566 0.177,-0.783 0.537,-1.036 0.353,-0.252 0.87,-0.416 1.566,-0.482 v -0.252 h -4.659 v 0.252 c 0.511,0.049 0.923,0.164 1.248,0.328 0.326,0.168 0.545,0.367 0.651,0.584 0.112,0.221 0.166,0.358 0.166,0.783 h -2.609 c -0.492,0 -0.792,-0.026 -0.897,-0.066 -0.115,-0.04 -0.204,-0.111 -0.274,-0.226 -0.069,-0.115 -0.104,-0.297 -0.104,-0.553 v -0.531 c 0,-0.824 0.192,-1.059 0.579,-1.559 0.379,-0.496 0.82,-0.836 1.61,-1.057 v -0.243 l -2.681,0.384 v 7.237 h 0.246 v -0.301 c 0,-0.252 0.042,-0.46 0.131,-0.619 0.061,-0.115 0.168,-0.204 0.318,-0.262 0.104,-0.049 0.376,-0.07 0.823,-0.07 h 5.854 c 0.396,0 0.645,0.009 0.739,0.031 0.151,0.039 0.273,0.123 0.352,0.248 0.125,0.158 0.183,0.389 0.183,0.672 v 0.301 h 0.249 v -7.427 h -2.629 v 0.248 c 0.642,0.128 1.099,0.301 1.379,0.535 0.283,0.231 0.484,0.545 0.617,0.97 0.08,0.243 0.113,0.699 0.113,1.377 z"
       id="path19"
       inkscape:connector-curvature="0"
       style="fill:#e8e2e9" />
    <path
       d="m 37.8477,172.0742 v -0.049 c 0,-0.465 -0.396,-0.841 -0.869,-0.841 -0.475,0 -0.861,0.376 -0.861,0.841 v 0.049 c 0,0.465 0.386,0.837 0.861,0.837 0.473,0 0.869,-0.372 0.869,-0.837"
       id="path21"
       inkscape:connector-curvature="0"
       style="fill:#e8e2e9;fill-rule:evenodd" />
    <path
       d="m 217.0586,172.707 c 0,-21.281 20.384,-167.63 20.384,-167.63 v 335.255 c 0,0 -20.384,-146.795 -20.384,-167.625"
       id="path23"
       inkscape:connector-curvature="0"
       style="fill:#494949" />
  </g>
</svg>
