<?xml version="1.0" encoding="UTF-8" standalone="no"?>
<svg
   xmlns:dc="http://purl.org/dc/elements/1.1/"
   xmlns:cc="http://creativecommons.org/ns#"
   xmlns:rdf="http://www.w3.org/1999/02/22-rdf-syntax-ns#"
   xmlns:svg="http://www.w3.org/2000/svg"
   xmlns="http://www.w3.org/2000/svg"
   xmlns:sodipodi="http://sodipodi.sourceforge.net/DTD/sodipodi-0.dtd"
   xmlns:inkscape="http://www.inkscape.org/namespaces/inkscape"
   width="30"
   height="30"
   version="1.1"
   id="svg92"
   sodipodi:docname="icon_empty.svg"
   inkscape:version="0.92.4 5da689c313, 2019-01-14">
  <metadata
     id="metadata98">
    <rdf:RDF>
      <cc:Work
         rdf:about="">
        <dc:format>image/svg+xml</dc:format>
        <dc:type
           rdf:resource="http://purl.org/dc/dcmitype/StillImage" />
      </cc:Work>
    </rdf:RDF>
  </metadata>
  <defs
     id="defs96" />
  <sodipodi:namedview
     pagecolor="#ffffff"
     bordercolor="#666666"
     borderopacity="1"
     objecttolerance="10"
     gridtolerance="10"
     guidetolerance="10"
     inkscape:pageopacity="0"
     inkscape:pageshadow="2"
     inkscape:window-width="471"
     inkscape:window-height="442"
     id="namedview94"
     showgrid="false"
     inkscape:zoom="7.8666667"
     inkscape:cx="15"
     inkscape:cy="15"
     inkscape:window-x="0"
     inkscape:window-y="0"
     inkscape:window-maximized="0"
     inkscape:current-layer="svg92">
    <inkscape:grid
       type="xygrid"
       id="grid100" />
  </sodipodi:namedview>
  <path
     fill="#4d4d4d"
     d="M5.3347926.55932004h1.7500156v1.75H5.3347926zm1.7500156 0h1.7500156v1.75H7.0848082zm1.7500156 0h1.7500156v1.75H8.8348238zm1.7500156 0h1.7500156v1.75h-1.7500156zm1.7500156 0h1.7500156v1.75H12.334855zm-8.750078 1.75h1.7500156v1.75H3.584777zm1.7500156 0h1.7500156v1.75H5.3347926zm1.7500156 0h1.7500156v1.75H7.0848082zm1.7500156 0h1.7500156v1.75H8.8348238zm1.7500156 0h1.7500156v1.75h-1.7500156zm1.7500156 0h1.7500156v1.75H12.334855zm1.7500156 0h1.7500156v1.75h-1.7500156zm1.7500156 0h1.7500156v1.75h-1.7500156zm1.7500156 0h1.7500156v1.75h-1.7500156z"
     id="path2" />
  <path
     fill="#666"
     d="M3.584777 4.05932004h1.7500156v1.75H3.584777zm1.7500156 0h1.7500156v1.75H5.3347926zm1.7500156 0h1.7500156v1.75H7.0848082z"
     id="path4" />
  <path
     fill="gray"
     d="M8.8348238 4.05932004h1.7500156v1.75H8.8348238zm1.7500156 0h1.7500156v1.75h-1.7500156z"
     id="path6" />
  <path
     fill="#666"
     d="M12.334855 4.05932004h1.7500156v1.75H12.334855z"
     id="path8" />
  <path
     fill="gray"
     d="M14.0848706 4.05932004h1.7500156v1.75h-1.7500156z"
     id="path10" />
  <path
     fill="#666"
     d="M1.8347614 5.80932004H3.584777v1.75H1.8347614z"
     id="path12" />
  <path
     fill="gray"
     d="M3.584777 5.80932004h1.7500156v1.75H3.584777z"
     id="path14" />
  <path
     fill="#666"
     d="M5.3347926 5.80932004h1.7500156v1.75H5.3347926z"
     id="path16" />
  <path
     fill="gray"
     d="M7.0848082 5.80932004h1.7500156v1.75H7.0848082zm1.7500156 0h1.7500156v1.75H8.8348238zm1.7500156 0h1.7500156v1.75h-1.7500156z"
     id="path18" />
  <path
     fill="#666"
     d="M12.334855 5.80932004h1.7500156v1.75H12.334855z"
     id="path20" />
  <path
     fill="gray"
     d="M14.0848706 5.80932004h1.7500156v1.75h-1.7500156zm1.7500156 0h1.7500156v1.75h-1.7500156zm1.7500156 0h1.7500156v1.75h-1.7500156z"
     id="path22" />
  <path
     fill="#666"
     d="M1.8347614 7.55932004H3.584777v1.75H1.8347614z"
     id="path24" />
  <path
     fill="gray"
     d="M3.584777 7.55932004h1.7500156v1.75H3.584777z"
     id="path26" />
  <path
     fill="#666"
     d="M5.3347926 7.55932004h1.7500156v1.75H5.3347926zm1.7500156 0h1.7500156v1.75H7.0848082z"
     id="path28" />
  <path
     fill="gray"
     d="M8.8348238 7.55932004h1.7500156v1.75H8.8348238zm1.7500156 0h1.7500156v1.75h-1.7500156zm1.7500156 0h1.7500156v1.75H12.334855z"
     id="path30" />
  <path
     fill="#666"
     d="M14.0848706 7.55932004h1.7500156v1.75h-1.7500156z"
     id="path32" />
  <path
     fill="gray"
     d="M15.8348862 7.55932004h1.7500156v1.75h-1.7500156zm1.7500156 0h1.7500156v1.75h-1.7500156zm1.7500156 0h1.7500156v1.75h-1.7500156z"
     id="path34" />
  <path
     fill="#666"
     d="M3.584777 9.30932004h1.7500156v1.75H3.584777z"
     id="path36" />
  <path
     fill="gray"
     d="M5.3347926 9.30932004h1.7500156v1.75H5.3347926zm1.7500156 0h1.7500156v1.75H7.0848082zm1.7500156 0h1.7500156v1.75H8.8348238zm1.7500156 0h1.7500156v1.75h-1.7500156z"
     id="path38" />
  <path
     fill="#666"
     d="M12.334855 9.30932004h1.7500156v1.75H12.334855zm1.7500156 0h1.7500156v1.75h-1.7500156zm1.7500156 0h1.7500156v1.75h-1.7500156zm1.7500156 0h1.7500156v1.75h-1.7500156z"
     id="path40" />
  <path
     fill="gray"
     d="M5.3347926 11.05932004h1.7500156v1.75H5.3347926zm1.7500156 0h1.7500156v1.75H7.0848082zm1.7500156 0h1.7500156v1.75H8.8348238zm1.7500156 0h1.7500156v1.75h-1.7500156zm1.7500156 0h1.7500156v1.75H12.334855zm1.7500156 0h1.7500156v1.75h-1.7500156z"
     id="path42" />
  <path
     fill="#666"
     d="M3.584777 12.80932004h1.7500156v1.75H3.584777zm1.7500156 0h1.7500156v1.75H5.3347926z"
     id="path44" />
  <path
     fill="#4d4d4d"
     d="M7.0848082 12.80932004h1.7500156v1.75H7.0848082z"
     id="path46" />
  <path
     fill="#666"
     d="M8.8348238 12.80932004h1.7500156v1.75H8.8348238zm1.7500156 0h1.7500156v1.75h-1.7500156zm1.7500156 0h1.7500156v1.75H12.334855zm-10.5000936 1.75H3.584777v1.75H1.8347614zm1.7500156 0h1.7500156v1.75H3.584777zm1.7500156 0h1.7500156v1.75H5.3347926z"
     id="path48" />
  <path
     fill="#4d4d4d"
     d="M7.0848082 14.55932004h1.7500156v1.75H7.0848082z"
     id="path50" />
  <path
     fill="#666"
     d="M8.8348238 14.55932004h1.7500156v1.75H8.8348238zm1.7500156 0h1.7500156v1.75h-1.7500156z"
     id="path52" />
  <path
     fill="#4d4d4d"
     d="M12.334855 14.55932004h1.7500156v1.75H12.334855z"
     id="path54" />
  <path
     fill="#666"
     d="M14.0848706 14.55932004h1.7500156v1.75h-1.7500156zm1.7500156 0h1.7500156v1.75h-1.7500156zm1.7500156 0h1.7500156v1.75h-1.7500156zm-17.500156 1.75h1.7500156v1.75H.0847458zm1.7500156 0H3.584777v1.75H1.8347614zm1.7500156 0h1.7500156v1.75H3.584777zm1.7500156 0h1.7500156v1.75H5.3347926z"
     id="path56" />
  <path
     fill="#4d4d4d"
     d="M7.0848082 16.30932004h1.7500156v1.75H7.0848082zm1.7500156 0h1.7500156v1.75H8.8348238zm1.7500156 0h1.7500156v1.75h-1.7500156zm1.7500156 0h1.7500156v1.75H12.334855z"
     id="path58" />
  <path
     fill="#666"
     d="M14.0848706 16.30932004h1.7500156v1.75h-1.7500156zm1.7500156 0h1.7500156v1.75h-1.7500156zm1.7500156 0h1.7500156v1.75h-1.7500156zm1.7500156 0h1.7500156v1.75h-1.7500156z"
     id="path60" />
  <path
     fill="gray"
     d="M.0847458 18.05932004h1.7500156v1.75H.0847458zm1.7500156 0H3.584777v1.75H1.8347614z"
     id="path62" />
  <path
     fill="#666"
     d="M3.584777 18.05932004h1.7500156v1.75H3.584777z"
     id="path64" />
  <path
     fill="#4d4d4d"
     d="M5.3347926 18.05932004h1.7500156v1.75H5.3347926z"
     id="path66" />
  <path
     fill="gray"
     d="M7.0848082 18.05932004h1.7500156v1.75H7.0848082z"
     id="path68" />
  <path
     fill="#4d4d4d"
     d="M8.8348238 18.05932004h1.7500156v1.75H8.8348238zm1.7500156 0h1.7500156v1.75h-1.7500156z"
     id="path70" />
  <path
     fill="gray"
     d="M12.334855 18.05932004h1.7500156v1.75H12.334855z"
     id="path72" />
  <path
     fill="#4d4d4d"
     d="M14.0848706 18.05932004h1.7500156v1.75h-1.7500156z"
     id="path74" />
  <path
     fill="#666"
     d="M15.8348862 18.05932004h1.7500156v1.75h-1.7500156z"
     id="path76" />
  <path
     fill="gray"
     d="M17.5849018 18.05932004h1.7500156v1.75h-1.7500156zm1.7500156 0h1.7500156v1.75h-1.7500156zm-19.2501716 1.75h1.7500156v1.75H.0847458zm1.7500156 0H3.584777v1.75H1.8347614zm1.7500156 0h1.7500156v1.75H3.584777z"
     id="path78" />
  <path
     fill="#4d4d4d"
     d="M5.3347926 19.80932004h1.7500156v1.75H5.3347926zm1.7500156 0h1.7500156v1.75H7.0848082zm1.7500156 0h1.7500156v1.75H8.8348238zm1.7500156 0h1.7500156v1.75h-1.7500156zm1.7500156 0h1.7500156v1.75H12.334855zm1.7500156 0h1.7500156v1.75h-1.7500156z"
     id="path80" />
  <path
     fill="gray"
     d="M15.8348862 19.80932004h1.7500156v1.75h-1.7500156zm1.7500156 0h1.7500156v1.75h-1.7500156zm1.7500156 0h1.7500156v1.75h-1.7500156zm-19.2501716 1.75h1.7500156v1.75H.0847458zm1.7500156 0H3.584777v1.75H1.8347614z"
     id="path82" />
  <path
     fill="#4d4d4d"
     d="M3.584777 21.55932004h1.7500156v1.75H3.584777zm1.7500156 0h1.7500156v1.75H5.3347926zm1.7500156 0h1.7500156v1.75H7.0848082zm1.7500156 0h1.7500156v1.75H8.8348238zm1.7500156 0h1.7500156v1.75h-1.7500156zm1.7500156 0h1.7500156v1.75H12.334855zm1.7500156 0h1.7500156v1.75h-1.7500156zm1.7500156 0h1.7500156v1.75h-1.7500156z"
     id="path84" />
  <path
     fill="gray"
     d="M17.5849018 21.55932004h1.7500156v1.75h-1.7500156zm1.7500156 0h1.7500156v1.75h-1.7500156z"
     id="path86" />
  <path
     fill="#4d4d4d"
     d="M3.584777 23.30932004h1.7500156v1.75H3.584777zm1.7500156 0h1.7500156v1.75H5.3347926zm1.7500156 0h1.7500156v1.75H7.0848082zm5.2500468 0h1.7500156v1.75H12.334855zm1.7500156 0h1.7500156v1.75h-1.7500156zm1.7500156 0h1.7500156v1.75h-1.7500156z"
     id="path88" />
  <path
     fill="#666"
     d="M1.8347614 25.05932004H3.584777v1.75H1.8347614zm1.7500156 0h1.7500156v1.75H3.584777zm1.7500156 0h1.7500156v1.75H5.3347926zm8.750078 0h1.7500156v1.75h-1.7500156zm1.7500156 0h1.7500156v1.75h-1.7500156zm1.7500156 0h1.7500156v1.75h-1.7500156zm-17.500156 1.75h1.7500156v1.75H.0847458zm1.7500156 0H3.584777v1.75H1.8347614zm1.7500156 0h1.7500156v1.75H3.584777zm1.7500156 0h1.7500156v1.75H5.3347926zm8.750078 0h1.7500156v1.75h-1.7500156zm1.7500156 0h1.7500156v1.75h-1.7500156zm1.7500156 0h1.7500156v1.75h-1.7500156zm1.7500156 0h1.7500156v1.75h-1.7500156z"
     id="path90" />
</svg>
