<?xml version="1.0" encoding="UTF-8" standalone="no"?>
<svg
   xmlns:dc="http://purl.org/dc/elements/1.1/"
   xmlns:cc="http://creativecommons.org/ns#"
   xmlns:rdf="http://www.w3.org/1999/02/22-rdf-syntax-ns#"
   xmlns:svg="http://www.w3.org/2000/svg"
   xmlns="http://www.w3.org/2000/svg"
   xmlns:sodipodi="http://sodipodi.sourceforge.net/DTD/sodipodi-0.dtd"
   xmlns:inkscape="http://www.inkscape.org/namespaces/inkscape"
   viewBox="-261 285 118.37104 300"
   version="1.1"
   id="svg18"
   sodipodi:docname="controller.svg"
   width="118.37104"
   height="300"
   inkscape:version="0.92.4 5da689c313, 2019-01-14">
  <metadata
     id="metadata24">
    <rdf:RDF>
      <cc:Work
         rdf:about="">
        <dc:format>image/svg+xml</dc:format>
        <dc:type
           rdf:resource="http://purl.org/dc/dcmitype/StillImage" />
      </cc:Work>
    </rdf:RDF>
  </metadata>
  <defs
     id="defs22" />
  <sodipodi:namedview
     pagecolor="#ffffff"
     bordercolor="#666666"
     borderopacity="1"
     objecttolerance="10"
     gridtolerance="10"
     guidetolerance="10"
     inkscape:pageopacity="0"
     inkscape:pageshadow="2"
     inkscape:window-width="471"
     inkscape:window-height="442"
     id="namedview20"
     showgrid="false"
     inkscape:zoom="0.78666667"
     inkscape:cx="59.18552"
     inkscape:cy="150"
     inkscape:window-x="0"
     inkscape:window-y="0"
     inkscape:window-maximized="0"
     inkscape:current-layer="svg18" />
  <path
     d="m -197.47059,397.1267 h -8.14479 v -67.87331 c 0,-24.97737 -12.62444,-36.10859 -40.99548,-36.10859 V 285 c 32.57919,0 49.14027,14.93213 49.14027,44.25339 z"
     id="path2"
     inkscape:connector-curvature="0"
     style="fill:#60605d" />
  <path
     d="m -188.51131,389.52489 h -11.67421 v -2.17195 h 10.72398 l -0.95022,-2.71493 h -9.77376 v -2.17195 h 8.82353 l -1.22172,-3.25792 h -7.60181 v -2.17194 h 6.65158 l -1.22172,-3.25792 h -13.57466 l -1.22172,3.25792 h 7.19457 v 2.17194 h -8.00905 l -1.22172,3.25792 h 9.23077 v 2.17195 h -9.9095 l -1.08597,2.71493 h 10.99547 v 2.17195 h -11.80995 l -1.76471,4.88687 h 29.32127"
     id="path4"
     inkscape:connector-curvature="0"
     style="fill:#868580" />
  <path
     d="m -251.22624,392.78281 h 98.82353 c 5.42986,0 9.77375,4.34389 9.77375,9.77375 v 172.66968 c 0,5.42987 -4.34389,9.77376 -9.77375,9.77376 h -98.82353 C -256.65611,585 -261,580.65611 -261,575.22624 V 402.55656 c 0,-5.42986 4.34389,-9.77375 9.77376,-9.77375 z"
     id="path6"
     inkscape:connector-curvature="0"
     style="fill:#c9c9c9" />
  <path
     d="m -235.47964,428.07692 h 68.41629 c 1.76471,0 3.25792,1.49322 3.25792,3.25792 v 95.56561 c 0,1.76471 -1.49321,3.25792 -3.25792,3.25792 h -68.41629 c -1.7647,0 -3.25792,-1.49321 -3.25792,-3.25792 v -95.56561 c 0,-1.90045 1.49322,-3.25792 3.25792,-3.25792 z"
     id="path8"
     inkscape:connector-curvature="0"
     style="fill:#dcdbdb" />
  <path
     d="m -235.47964,409.20814 h 21.71946 c 1.7647,0 3.25792,1.49322 3.25792,3.25792 v 43.43892 c 0,1.7647 -1.49322,3.25792 -3.25792,3.25792 h -21.71946 c -1.7647,0 -3.25792,-1.49322 -3.25792,-3.25792 v -43.43892 c 0,-1.7647 1.49322,-3.25792 3.25792,-3.25792 z"
     id="path10"
     inkscape:connector-curvature="0"
     style="fill:#60605d" />
  <path
     d="m -235.47964,406.35747 h 21.71946 c 1.7647,0 3.25792,1.49321 3.25792,3.25791 v 43.43892 c 0,1.7647 -1.49322,3.25792 -3.25792,3.25792 h -21.71946 c -1.7647,0 -3.25792,-1.49322 -3.25792,-3.25792 v -43.43892 c 0,-1.90045 1.49322,-3.25791 3.25792,-3.25791 z"
     id="path12"
     inkscape:connector-curvature="0"
     style="fill:#868580" />
  <path
     d="m -188.78281,409.20814 h 21.71946 c 1.76471,0 3.25792,1.49322 3.25792,3.25792 v 43.43892 c 0,1.7647 -1.49321,3.25792 -3.25792,3.25792 h -21.71946 c -1.7647,0 -3.25791,-1.49322 -3.25791,-3.25792 v -43.43892 c 0,-1.7647 1.49321,-3.25792 3.25791,-3.25792 z"
     id="path14"
     inkscape:connector-curvature="0"
     style="fill:#60605d" />
  <path
     d="m -188.78281,406.35747 h 21.71946 c 1.76471,0 3.25792,1.49321 3.25792,3.25791 v 43.43892 c 0,1.7647 -1.49321,3.25792 -3.25792,3.25792 h -21.71946 c -1.7647,0 -3.25791,-1.49322 -3.25791,-3.25792 v -43.43892 c 0,-1.90045 1.49321,-3.25791 3.25791,-3.25791 z"
     id="path16"
     inkscape:connector-curvature="0"
     style="fill:#868580" />
</svg>
