<?xml version="1.0" encoding="UTF-8" standalone="no"?>
<svg
   xmlns:dc="http://purl.org/dc/elements/1.1/"
   xmlns:cc="http://creativecommons.org/ns#"
   xmlns:rdf="http://www.w3.org/1999/02/22-rdf-syntax-ns#"
   xmlns:svg="http://www.w3.org/2000/svg"
   xmlns="http://www.w3.org/2000/svg"
   xmlns:sodipodi="http://sodipodi.sourceforge.net/DTD/sodipodi-0.dtd"
   xmlns:inkscape="http://www.inkscape.org/namespaces/inkscape"
   viewBox="-290 382 30 30"
   version="1.1"
   id="svg44"
   sodipodi:docname="icon_filled.svg"
   inkscape:version="0.92.4 5da689c313, 2019-01-14">
  <metadata
     id="metadata50">
    <rdf:RDF>
      <cc:Work
         rdf:about="">
        <dc:format>image/svg+xml</dc:format>
        <dc:type
           rdf:resource="http://purl.org/dc/dcmitype/StillImage" />
      </cc:Work>
    </rdf:RDF>
  </metadata>
  <defs
     id="defs48" />
  <sodipodi:namedview
     pagecolor="#ffffff"
     bordercolor="#666666"
     borderopacity="1"
     objecttolerance="10"
     gridtolerance="10"
     guidetolerance="10"
     inkscape:pageopacity="0"
     inkscape:pageshadow="2"
     inkscape:window-width="471"
     inkscape:window-height="442"
     id="namedview46"
     showgrid="false"
     inkscape:zoom="7.8666667"
     inkscape:cx="15"
     inkscape:cy="15"
     inkscape:window-x="0"
     inkscape:window-y="0"
     inkscape:window-maximized="0"
     inkscape:current-layer="svg44">
    <inkscape:grid
       type="xygrid"
       id="grid52" />
  </sodipodi:namedview>
  <path
     fill="#FF9C82"
     d="M-275.5 407.1s1.1.5 2 .2c.9-.3 4.4-.8 4.7 2.2 0 0-.2 2.3-2.4 1.8-2.2-.5-5.6-1.1-6.9-1.1-1.3 0-1.7-.5-1.3-1.8.4-1.2 1.1-.9 1.1-.9l2.8-.4"
     id="path2" />
  <path
     fill="#DD7E69"
     d="M-273.8 408.9c.5-.2 1.4-.6 1.1-1.7-.4 0-.7.1-.9.2-.9.3-2-.2-2-.2l-2.8.6s-.7-.4-1.1.9c-.4 1.1 0 1.7 1.1 1.8.1-.1.2-.1.3-.2.8-.9 3.6-1.2 4.3-1.4"
     id="path4" />
  <path
     fill="#FF9C82"
     d="M-283.3 407.1s-1.1.5-2 .2c-.9-.3-4.4-.8-4.7 2.2 0 0 .2 2.3 2.4 1.8 2.2-.5 5.6-1.1 6.9-1.1 1.3 0 1.7-.5 1.3-1.8-.4-1.2-1.1-.9-1.1-.9l-2.8-.4"
     id="path6" />
  <path
     fill="#DD7E69"
     d="M-280.5 407.7l-2.8-.6s-1.1.5-2 .2c-.3-.1-.9-.2-1.6-.2-.3 1.3.6 2.3 1.7 2.4 1.5.2 3.1.6 3.6.8h.8c1.3 0 1.7-.5 1.3-1.8-.3-1.2-1-.8-1-.8"
     id="path8" />
  <path
     fill="#FF9C82"
     d="M-287.1 397.5s-.9-1.1-1.9-.5c-1 .6-.8 4.8 2.9 5.3 3.7.4 1.8-1.2 1.8-1.2l-.9-2-1.9-1.6"
     id="path10" />
  <g
     fill="#9CABD5"
     id="g16">
    <ellipse
       cx="-281.7"
       cy="407.3"
       rx="1.9"
       ry="1.2"
       id="ellipse12" />
    <ellipse
       cx="-277.2"
       cy="407.3"
       rx="1.9"
       ry="1.2"
       id="ellipse14" />
  </g>
  <ellipse
     cx="-285.7"
     cy="399.1"
     fill="#AFC1E8"
     rx="1.4"
     ry="1.3"
     id="ellipse18" />
  <path
     fill="#5F5FAF"
     d="M-286.5 391.2s-2.7.7-1.8 3.3l1.5 4s.6 1.1 1.1.7c.5-.3.8-.6.7-1.1l-.3-3.5.9.9s-.1 5.7-1.6 7.6c-1.6 1.9-.5 3.6 1 3.8 1.6.2 3.2.6 3.7.8.5.2 2.5.5 3.3-.3.8-.7 3.6-1.1 4.3-1.3.7-.2 1.9-.7.8-2.6-1.1-1.8-3.2-6.7-3.2-6.7s-.3-.9.6-1.3c.9-.4 4.1-1.1 4.3-5.6l-2-.2s-1.5 3.1-4.4 1.6l-8.9-.1"
     id="path20" />
  <path
     fill="#5555A3"
     d="M-273.1 403.8c-1.1-1.8-3.2-6.7-3.2-6.7s-.3-.9.6-1.3c.9-.4 4.1-1.1 4.3-5.6l-2-.2s-1.5 3.1-4.4 1.6l-2.2-.1v16.6c.7 0 1.4-.1 1.8-.5.8-.7 3.6-1.1 4.3-1.3.7-.2 1.9-.7.8-2.5"
     id="path22" />
  <ellipse
     cx="-280.3"
     cy="392.5"
     fill="#AFC1E8"
     rx="3.3"
     ry="1.7"
     id="ellipse24" />
  <path
     fill="#FF9C82"
     d="M-274.4 390c-.3 1.2-3.5 3.1-6.7 2.3-3.2-.8-5.4-3-4.9-5.1.5-2 3.4-2.8 6.6-2 3.2.8 5.2 3.7 5 4.8"
     id="path26" />
  <path
     fill="#75A038"
     d="M-281.2 385.9l-1.6.2.8 1.7h-1.7l.6 1.4-1.2-.5.9 3.4-.6-.4-1 2.1-.5-1.1-.7 1.1-.5-1.5-.7.8-.3-2.5-.5.6V389l-.7.7.5-2.7-.7.3.9-1.4-.9-1.6 1.5.6.3-1.8.6 1 1.8-1.6-.1 1 2-1-.4.8 1.8-.1-1.2 1.2s1.7-.9 3.1.9l-2.2.2.7.4"
     id="path28" />
  <ellipse
     cx="-272.2"
     cy="389.6"
     fill="#AFC1E8"
     rx="1.2"
     ry=".9"
     id="ellipse30" />
  <path
     fill="#E87E69"
     d="M-276.1 384.9s-1.1-.4-.7-1.1c0 0 .1-.2.7-.2h2.4l-.5 1-1.9.3"
     id="path32" />
  <path
     fill="#CB6F5D"
     d="M-277.6 385.9c-.8.2-2.6.9-2 1.7.7.9 2.9 1.7 4.8.9-.5-.8-1.5-1.9-2.8-2.6"
     id="path34" />
  <path
     fill="#FA9"
     d="M-276.5 384.9s-3.1.8-2.4 1.8c.8 1 3.7 2 5.7.4 0 0 .2.5.5.8l-.1 1s-.2.5.7.6c.8.1.9-.2.9-.7s.1-.9.4-1.2c.3-.3 1.1-2-.4-3.2-1.5-1.2-2.2-1.1-3.1-.8-1 .4-1.9.9-2.2 1.3"
     id="path36" />
  <ellipse
     cx="-280"
     cy="387.7"
     fill="#FFF"
     rx="1.3"
     ry="1"
     id="ellipse38" />
  <path
     fill="#8EBC46"
     d="M-286.9 388.4v1.8l.6-.9.4 1.3.5-1.3.8.7-.6-2.5 1 .6-.6-1.7 1.6.4-.8-1.2 1.5-.3-1.9-.4 1.1-.8-2.3.8-.3-.5-.6 1.1-.9-.2.7 1.3-.7 2.4.5-.6z"
     id="path40" />
  <ellipse
     cx="-279.7"
     cy="387.7"
     fill="#495632"
     rx="1"
     ry=".8"
     id="ellipse42" />
</svg>
