<?xml version="1.0" encoding="UTF-8" standalone="no"?>
<svg
   xmlns:dc="http://purl.org/dc/elements/1.1/"
   xmlns:cc="http://creativecommons.org/ns#"
   xmlns:rdf="http://www.w3.org/1999/02/22-rdf-syntax-ns#"
   xmlns:svg="http://www.w3.org/2000/svg"
   xmlns="http://www.w3.org/2000/svg"
   xmlns:xlink="http://www.w3.org/1999/xlink"
   xmlns:sodipodi="http://sodipodi.sourceforge.net/DTD/sodipodi-0.dtd"
   xmlns:inkscape="http://www.inkscape.org/namespaces/inkscape"
   viewBox="0 0 500 142.46513"
   version="1.1"
   id="svg150"
   sodipodi:docname="consolegame.svg"
   width="500"
   height="142.46513"
   inkscape:version="0.92.4 5da689c313, 2019-01-14">
  <metadata
     id="metadata154">
    <rdf:RDF>
      <cc:Work
         rdf:about="">
        <dc:format>image/svg+xml</dc:format>
        <dc:type
           rdf:resource="http://purl.org/dc/dcmitype/StillImage" />
      </cc:Work>
    </rdf:RDF>
  </metadata>
  <sodipodi:namedview
     pagecolor="#ffffff"
     bordercolor="#666666"
     borderopacity="1"
     objecttolerance="10"
     gridtolerance="10"
     guidetolerance="10"
     inkscape:pageopacity="0"
     inkscape:pageshadow="2"
     inkscape:window-width="471"
     inkscape:window-height="442"
     id="namedview152"
     showgrid="false"
     inkscape:zoom="0.542"
     inkscape:cx="250"
     inkscape:cy="95.149998"
     inkscape:window-x="0"
     inkscape:window-y="0"
     inkscape:window-maximized="0"
     inkscape:current-layer="svg150" />
  <defs
     id="defs3">
    <path
       id="a"
       d="M 0,0 H 352.5 V 190.3 H 0 Z"
       inkscape:connector-curvature="0" />
  </defs>
  <clipPath
     id="b">
    <use
       xlink:href="#a"
       overflow="visible"
       id="use5"
       style="overflow:visible"
       x="0"
       y="0"
       width="100%"
       height="100%" />
  </clipPath>
  <g
     transform="matrix(0.74844,0,0,-0.74844,0,142.42813)"
     clip-path="url(#b)"
     id="g120">
    <path
       d="m 313.6,0 h -79.4 7.5 c 0.1,0.1 0.1,0.3 0.2,0.5 3,2.6 17.9,15.7 21.7,19.7 2,2.1 1.7,6.3 1.7,6.3 v 212.6 c 0,0 -1.9,14.4 -18.4,15.1 l 45.9,-0.2 h -11.3 c -2.1,0 -4.1,-0.4 -6,-1.2 a 15,15 0 0 1 -9,-13.8 V 40.1 c 0,-5.8 -0.2,-10.3 0.3,-14.2 0,-0.2 0,-0.3 0.1,-0.5 0.1,-0.5 0.1,-0.9 0.2,-1.4 1.3,-7.4 5.8,-12.2 19.5,-19.8 C 290,2.3 293.7,1.1 297.5,0.7 302.3,0.1 308.1,0 313.6,0"
       id="path8"
       inkscape:connector-curvature="0"
       style="fill:#484748" />
    <path
       d="M 263.6,20.2 C 259.8,16.2 244.9,3.1 241.9,0.5 L 241.4,0 H 19.7 C 19.7,0 3.7,15.3 2.1,16 1,17.5 0,20 0,26.1 v 214.1 c 0,14.6 11.8,14 11.8,14 h 12.3 v -1.4 h 213 v 1.4 h 9.8 c 16.6,-0.7 18.4,-15.1 18.4,-15.1 V 26.5 c 0,0 0.3,-4.2 -1.7,-6.3"
       id="path10"
       inkscape:connector-curvature="0"
       style="fill:#565658" />
    <path
       d="M 241.9,0.5 C 241.8,0.3 241.8,0.1 241.7,0 h -222 c 0,0 -6.1,102.4 31,107.4 6.8,0.8 15.4,-1 34.8,-5.6 19.4,-4.6 71.1,-4.6 90.5,0 19.4,4.6 27.9,5.6 34.8,5.6 12.8,0 20.8,-12.5 25.6,-29 8.5,-29.7 7,-72.4 5.5,-77.9"
       id="path12"
       inkscape:connector-curvature="0"
       style="fill:#606163" />
    <path
       d="m 237.1,252.8 v -8.9 c 0,0 -0.1,-1.1 -1.6,-1.1 H 25.6 c -1.5,0 -1.6,1.1 -1.6,1.1 v 8.9 l 106.5,-0.1 z"
       id="path14"
       inkscape:connector-curvature="0"
       style="fill:#40403f" />
    <path
       d="m 130.7,97.9 c -26.2,0 -31.5,1.3 -35.9,1.9 -4.5,0.6 -3.1,-3.5 -3.1,-3.5 0,0 2.3,-15.1 2.6,-20.8 0.3,-5.8 6.5,-5 6.5,-5 h 60.1 c 0,0 6.2,-0.8 6.5,5 0.3,5.8 2.6,20.8 2.6,20.8 0,0 1.3,4.1 -3.1,3.5 -4.7,-0.6 -10,-1.9 -36.2,-1.9"
       id="path16"
       inkscape:connector-curvature="0"
       style="fill:#494a4a" />
    <path
       stroke-miterlimit="10"
       d="m 130.7,97.9 c -26.2,0 -31.5,1.3 -35.9,1.9 -4.5,0.6 -3.1,-3.5 -3.1,-3.5 0,0 2.3,-15.1 2.6,-20.8 0.3,-5.8 6.5,-5 6.5,-5 h 60.1 c 0,0 6.2,-0.8 6.5,5 0.3,5.8 2.6,20.8 2.6,20.8 0,0 1.3,4.1 -3.1,3.5 -4.7,-0.6 -10,-1.9 -36.2,-1.9 z"
       id="path18"
       inkscape:connector-curvature="0"
       style="fill:none;stroke:#4d4c4e;stroke-width:3;stroke-miterlimit:10" />
    <path
       d="m 243.4,175.6 c 0,-35.8 -50.5,-64.8 -112.8,-64.8 -62.3,0 -112.8,29 -112.8,64.8 0,35.8 50.5,64.8 112.8,64.8 62.3,0 112.8,-29 112.8,-64.8"
       id="path20"
       inkscape:connector-curvature="0"
       style="fill:#40403f" />
    <path
       d="m 242.1,175.8 c 0,-35.1 -50,-63.5 -111.6,-63.5 -61.6,0 -111.6,28.4 -111.6,63.5 0,35.1 50,63.5 111.6,63.5 61.6,0 111.6,-28.4 111.6,-63.5"
       id="path22"
       inkscape:connector-curvature="0"
       style="fill:#4d4c4e" />
    <path
       d="m 222.5,177.3 c 0,-28.5 -41,-51.5 -91.7,-51.5 -50.6,0 -91.7,23.1 -91.7,51.5 0,28.4 41,51.5 91.7,51.5 50.7,0 91.7,-23.1 91.7,-51.5"
       id="path24"
       inkscape:connector-curvature="0"
       style="fill:#565656" />
    <path
       d="m 130.9,156.1 -5.7,-5.9 h 11.5 z"
       id="path26"
       inkscape:connector-curvature="0"
       style="fill:#424342" />
    <path
       d="m 130.9,198.1 c -30.5,0 -63.3,-3.9 -63.3,-3.9 0,0 -7.7,-0.2 -11.5,-4.2 -3.8,-3.9 -4.1,-8.4 -4.1,-12.8 0,-4.4 1,-8.3 1.9,-10.4 1.2,-3 4.4,-4.8 6.1,-4.8 h 142 c 1.7,0 4.8,1.8 6.1,4.8 0.9,2.1 1.9,6.1 1.9,10.4 0,4.3 -0.4,8.9 -4.1,12.8 -3.8,3.9 -11.5,4.2 -11.5,4.2 0,0 -33,3.9 -63.5,3.9"
       id="path28"
       inkscape:connector-curvature="0"
       style="fill:#636364" />
    <path
       stroke-miterlimit="10"
       d="m 130.9,198.1 c -30.5,0 -63.3,-3.9 -63.3,-3.9 0,0 -7.7,-0.2 -11.5,-4.2 -3.8,-3.9 -4.1,-8.4 -4.1,-12.8 0,-4.4 1,-8.3 1.9,-10.4 1.2,-3 4.4,-4.8 6.1,-4.8 h 142 c 1.7,0 4.8,1.8 6.1,4.8 0.9,2.1 1.9,6.1 1.9,10.4 0,4.3 -0.4,8.9 -4.1,12.8 -3.8,3.9 -11.5,4.2 -11.5,4.2 0,0 -33,3.9 -63.5,3.9 z"
       id="path30"
       inkscape:connector-curvature="0"
       style="fill:none;stroke:#565658;stroke-width:2;stroke-miterlimit:10" />
    <path
       d="m 69.3,190.1 h 124.6 v -7 h 7.4 c 0,0 0.6,-0.4 0.6,-2.9 0,-2.5 -0.6,-3 -0.6,-3 H 62.4 c 0,0 -0.9,0.7 -0.9,3.1 0,2.4 0.9,3.3 0.9,3.3 h 6.7 z"
       id="path32"
       inkscape:connector-curvature="0"
       style="fill:#434343" />
    <path
       d="m 50.9,22 v 1.4 c 1.4,0.4 2.4,0.8 2.8,1.4 h 1.4 V 17.7 H 53.2 V 23 c -1,-0.4 -1.8,-0.8 -2.3,-1 m 8.6,-3.1 c 0.4,0 0.6,0.1 0.9,0.3 0.2,0.2 0.4,0.5 0.4,0.8 0,0.3 -0.1,0.6 -0.4,0.8 -0.3,0.2 -0.5,0.3 -0.8,0.3 -0.3,0 -0.6,-0.1 -0.9,-0.3 -0.3,-0.2 -0.4,-0.5 -0.4,-0.8 0,-0.3 0.1,-0.6 0.4,-0.8 0.2,-0.2 0.5,-0.3 0.8,-0.3 m 3,4.1 -1.7,-0.4 c -0.2,0.7 -0.6,1.1 -1.2,1.1 -1,0 -1.5,-0.8 -1.5,-2.3 0.4,0.5 1,0.8 1.9,0.8 0.8,0 1.4,-0.2 1.9,-0.6 0.5,-0.4 0.7,-0.9 0.7,-1.5 0,-0.6 -0.3,-1.2 -0.8,-1.6 -0.5,-0.5 -1.3,-0.7 -2.2,-0.7 -0.9,0 -1.6,0.2 -2.1,0.6 -0.5,0.4 -0.9,0.8 -1,1.4 -0.2,0.5 -0.3,1 -0.3,1.5 0,1.1 0.3,1.9 0.9,2.6 0.6,0.7 1.4,1 2.5,1 0.8,0 1.5,-0.2 2,-0.5 0.5,-0.4 0.8,-0.9 0.9,-1.4 m 0.7,-1.4 h 2.9 V 20.4 H 63.2 Z M 69,20.8 v -1.7 h 1.5 c 0.5,0 0.9,0.1 1.1,0.2 0.2,0.1 0.3,0.4 0.3,0.6 0,0.2 -0.1,0.4 -0.3,0.6 -0.2,0.2 -0.5,0.2 -1,0.2 0,0.1 -1.6,0.1 -1.6,0.1 z m 0,2.7 V 22 h 1.5 c 0.5,0 0.9,0.1 1,0.3 0.1,0.2 0.2,0.3 0.2,0.5 0,0.2 -0.1,0.3 -0.2,0.5 -0.1,0.1 -0.2,0.2 -0.4,0.2 h -0.8 z m -1.9,1.3 h 3.8 c 0.7,0 1.2,-0.1 1.6,-0.2 0.4,-0.1 0.6,-0.3 0.9,-0.6 0.2,-0.3 0.3,-0.6 0.3,-1 0,-0.8 -0.5,-1.3 -1.5,-1.5 0.6,-0.1 1,-0.3 1.3,-0.6 0.3,-0.3 0.4,-0.7 0.4,-1 0,-0.5 -0.2,-1 -0.7,-1.3 C 72.7,18.2 72,18 70.9,18 h -3.8 z m 9.2,-6.9 h -1.9 v 6.9 h 1.9 z m 6.5,6.9 v -1.4 h -2 v -5.5 h -2 v 5.5 h -2.1 v 1.4 z"
       id="path34"
       inkscape:connector-curvature="0"
       style="fill:#f1f2f2" />
    <path
       d="m 148.7,78.6 h -5.6 v 1.3 h 3.8 c -0.3,0.8 -0.5,1.5 -0.7,2.2 -0.6,1.7 -1.1,3.5 -1.7,5.2 -0.1,0.4 -0.5,0.9 -0.9,1 -0.6,0.1 -0.8,-0.5 -1,-1 -0.9,-2.6 -1.7,-5.3 -2.6,-7.9 -0.2,-0.6 -0.5,-0.8 -1.1,-0.8 h -5.2 c -1.7,0 -2.9,1.2 -2.9,3 v 4.9 c 0,1.8 1.1,3 2.9,3 h 4.7 v -1.4 h -4 c -1.9,0 -2.3,-0.5 -2.3,-2.4 V 82 c 0,-1.3 0.6,-2 1.8,-2 h 3.1 v 4.3 h -2.6 v 1.3 h 4 V 80 h 0.2 c 0.8,2.6 1.7,5.2 2.5,7.8 0.5,1.5 1.4,2.1 2.8,1.9 0.8,-0.1 1.4,-0.6 1.6,-1.4 1,-3.1 2,-6.2 3,-9.4 0.2,-0.1 0.2,-0.2 0.2,-0.3 m -35.2,0 V 80 h 4.4 c 1.2,0 2.1,0.9 2.2,2.1 0,1.1 -0.9,2.1 -2.1,2.2 h -1.5 c -0.8,0.1 -1.3,0.8 -1.3,1.6 0,0.8 0.5,1.6 1.3,1.6 h 4.9 v -1.4 h -4.7 v -0.5 c 0.5,0 0.9,0 1.4,-0.1 1.7,0 2.9,-1 3.3,-2.7 0.5,-2.1 -1,-4.2 -3,-4.3 -1.6,0.1 -3.2,0.1 -4.9,0.1"
       id="path36"
       inkscape:connector-curvature="0"
       style="fill:#f0f9fb" />
    <path
       d="m 113.5,80.5 v 1.4 h 4.7 v 0.4 c -0.5,0 -1,0 -1.4,0.1 -1.4,0 -2.4,0.7 -3,1.9 -0.6,1.3 -0.5,2.5 0.3,3.7 0.5,0.8 1.3,1.3 2.3,1.4 1.7,0.1 3.3,0 5.1,0 V 88 H 117 c -1.5,0 -2.4,-1.4 -2,-2.8 0.3,-0.8 1,-1.4 2,-1.5 h 1.4 c 0.7,-0.1 1.3,-0.8 1.3,-1.6 0,-0.8 -0.6,-1.6 -1.3,-1.6 h -4.9 m 16.6,8.9 v -1.3 h -4.4 c -1.5,0 -2.1,-0.5 -2.1,-2.1 v -3.9 c 0,-1.5 0.6,-2.1 2,-2.1 h 4.5 v -1.4 h -5.4 c -1.3,0.1 -2.4,1.3 -2.4,2.6 v 5.7 c 0,1.2 1,2.4 2.2,2.5 1.9,0.1 3.7,0 5.6,0 M 143,82.1 h 1.1 c -0.2,0.5 -0.3,1 -0.5,1.5 h -0.2 c -0.1,-0.5 -0.2,-1 -0.4,-1.5 m -2.8,-3.4 c 1,2.9 1.9,5.8 2.8,8.7 0.1,0.2 0.3,0.4 0.5,0.5 0.1,0 0.4,-0.2 0.5,-0.3 0.8,-2.3 1.5,-4.6 2.3,-7 h -3.2 c 0,0.3 -0.1,0.6 -0.1,0.9 0,0 -0.1,0 -0.1,0.1 -0.2,-0.5 -0.4,-1.1 -0.5,-1.6 -0.6,-1.5 -0.6,-1.5 -2.2,-1.3 m -4.8,3.5 c -0.4,0.1 -0.7,0.2 -0.9,0.3 v 1.2 h 2.1 v -3.2 c -1.1,0 -2.1,-0.1 -3.2,0 -0.3,0 -0.7,0.6 -0.7,0.9 -0.1,1.7 -0.1,3.4 0,5.1 0,0.6 0.4,1 0.9,1 h 4.8 v -1.4 h -3.5 c -0.7,0 -1,-0.2 -0.9,-1 v -2.4 c 0,-0.9 0.4,-1.1 1.4,-0.5"
       id="path38"
       inkscape:connector-curvature="0"
       style="fill:#f0f9fb" />
    <path
       d="m 125.6,82 c 1.5,-0.3 3,0 4.5,-0.2 v -1.3 h -5.2 c -0.3,0 -0.7,0.6 -0.7,0.9 -0.1,0.7 0,1.4 0,2.2 h 4.9 v -1.3 h -3.4 c -0.1,0 -0.1,-0.2 -0.1,-0.3 m 4.5,5.5 V 86.2 C 128.6,86 127,86.3 125.5,86 v -0.4 h 3.4 v -1.3 h -4.8 c 0,0.8 -0.1,1.6 0,2.4 0,0.3 0.5,0.7 0.8,0.7 1.8,0.1 3.5,0.1 5.2,0.1"
       id="path40"
       inkscape:connector-curvature="0"
       style="fill:#f0f9fb" />
    <path
       d="M 132,176.1 H 63.4 c 0,0 1.1,-1.4 1.7,-2.1 5.5,-5.8 11.8,-6.4 11.8,-6.4 h 6 v -0.7 h 97.9 v 0.7 h 6 c 0,0 6.3,0.6 11.8,6.4 0.6,0.6 1.7,2.1 1.7,2.1 z"
       id="path42"
       inkscape:connector-curvature="0"
       style="fill:#434343" />
    <path
       d="m 210.6,48.7 c 0,-9.8 -11.3,-11.5 -11.3,-11.5 H 62.1 c -2,0 -11.3,1.7 -11.3,11.5 0,9.8 11.3,11.5 11.3,11.5 h 137.2 c 0,0 11.3,-1.7 11.3,-11.5"
       id="path44"
       inkscape:connector-curvature="0"
       style="fill:#4b4c4c" />
    <path
       d="M 199.2,39.9 H 62.5 c -4.8,0 -8.8,3.9 -8.8,8.8 0,4.8 3.9,8.8 8.8,8.8 h 136.8 c 4.8,0 8.8,-3.9 8.8,-8.8 -0.1,-4.9 -4.1,-8.8 -8.9,-8.8"
       id="path46"
       inkscape:connector-curvature="0"
       style="fill:#424242" />
    <path
       d="M 198.2,42.6 H 175 c -3.4,0 -6.1,2.7 -6.1,6.1 0,3.4 2.7,6.1 6.1,6.1 h 23.3 c 3.4,0 6.1,-2.7 6.1,-6.1 0,-3.3 -2.8,-6.1 -6.2,-6.1"
       id="path48"
       inkscape:connector-curvature="0"
       style="fill:#d5353c" />
    <path
       d="m 194.1,46.6 h -13.7 c -1,0 -1.8,0.8 -1.8,1.8 v 0.7 c 0,1 0.8,1.8 1.8,1.8 h 13.7 c 1,0 1.8,-0.8 1.8,-1.8 v -0.7 c -0.1,-1 -0.9,-1.8 -1.8,-1.8"
       id="path50"
       inkscape:connector-curvature="0"
       style="fill:#b9353f" />
    <path
       d="M 87,42.6 H 63.7 c -3.4,0 -6.1,2.7 -6.1,6.1 0,3.4 2.7,6.1 6.1,6.1 H 87 c 3.4,0 6.1,-2.7 6.1,-6.1 0,-3.3 -2.8,-6.1 -6.1,-6.1"
       id="path52"
       inkscape:connector-curvature="0"
       style="fill:#d5353c" />
    <path
       d="M 82.2,46.6 H 68.5 c -1,0 -1.8,0.8 -1.8,1.8 v 0.7 c 0,1 0.8,1.8 1.8,1.8 h 13.7 c 1,0 1.8,-0.8 1.8,-1.8 v -0.7 c -0.1,-1 -0.9,-1.8 -1.8,-1.8"
       id="path54"
       inkscape:connector-curvature="0"
       style="fill:#b9353f" />
    <path
       d="m 163.5,20.9 v 0.9 h 3.2 c 0.6,0 1,-0.7 1,-1.3 0,-0.6 -0.5,-1.2 -1.2,-1.2 h -4.9 c -0.7,0 -1.2,0.5 -1.2,1.2 v 1.7 h 1.7 v -1.4 c 0,-0.6 0.1,-0.6 0.6,-0.6 h 2.8 c 0.2,0 0.4,0.1 0.3,0.3 0,0.1 -0.2,0.3 -0.3,0.3 h -1.6 z m 44.5,0 c -0.1,-0.5 0,-0.7 0.5,-0.7 h 3.8 v -1 h -4.8 c -0.9,0 -1.3,0.4 -1.3,1.4 v 1.6 h 1.7 c 0.1,-0.4 0.4,-0.4 0.7,-0.4 h 3.4 v -0.9 z m -48.7,0.9 v -0.9 h -4 c -0.1,-0.5 0.1,-0.6 0.5,-0.7 h 3.8 v -1 h -4.8 c -0.9,0 -1.3,0.4 -1.3,1.3 v 1.6 h 1.7 c 0.1,-0.3 0.4,-0.4 0.7,-0.4 h 3.4 z m 39.5,0.4 h 1.9 c 0.3,-0.5 0.6,-1 1,-1.6 0.4,0.6 0.7,1.1 1,1.6 h 1.9 c -0.6,-1 -1.3,-2 -1.9,-2.9 h -2.1 c -0.5,0.9 -1.2,1.9 -1.8,2.9 m -46.3,0.3 h -9.2 v 1 h 8.3 c 0.6,0 1,-0.4 0.9,-1 m 21.2,-1.2 v 0.9 h 1.7 v -2.9 h -1.7 v 0.8 h -3 v 1.2 z m 21.2,-2.1 h -1.8 c -0.2,0 -0.3,0.2 -0.5,0.4 -0.3,0.4 -0.7,0.6 -1.2,0.5 h -1.6 v 1.2 h 2.6 c 0.4,0 0.5,0.1 0.5,0.5 v 0.4 h 1.7 c 0.1,-0.7 0,-1.3 -0.8,-1.8 0.4,-0.4 0.8,-0.7 1.2,-1 -0.1,0 -0.1,-0.1 -0.1,-0.2 m -13.6,0.1 v 1 h 2.9 c 0.4,0 0.5,0.1 0.5,0.5 v 1.5 h 1.7 v -0.7 -1 c 0,-0.6 -0.4,-1.1 -1,-1.1 -1.3,-0.3 -2.6,-0.2 -4.1,-0.2 m -20.8,3.2 c -0.1,0.6 0.3,1 0.9,1 h 6.2 v -1 z m 26,0 h -7.1 v 0.9 h 6.2 c 0.5,0.1 0.9,-0.3 0.9,-0.9 m 8,0 h -6.9 c 0,0.6 0.3,1 0.8,1 h 5.2 c 0.6,0 1,-0.4 0.9,-1 m -25.9,0 c 0,0.6 0.3,1 0.9,1 h 5.1 c 0.5,0 0.9,-0.4 0.9,-1 z m 37.6,1 h 6.1 v -1 h -6.1 z m -52.7,0 h 6 v -1 h -6 z m -2.7,-1.3 h 1.7 v -2.9 h -1.7 z m 36.8,0 h 1.7 v -2.9 h -1.7 z m -44.3,0 h 1.7 v -2.9 h -1.7 z m 25.2,0 h 1.7 v -2.9 h -1.7 z m 28.8,-2.9 h -1.7 v 2.9 h 1.7 z m -48.5,0 h -1.7 v 2.9 h 1.7 z m 30.6,2.9 h 1.7 v -2.9 h -1.7 z m 20.4,1.4 c 0.2,-0.3 0.4,-0.7 0.7,-1.1 h -1.9 c -0.2,0.3 -0.4,0.7 -0.7,1.1 z m 3.8,0 h 1.9 c -0.2,-0.4 -0.5,-0.7 -0.7,-1.1 H 203 c 0.2,0.4 0.4,0.8 0.6,1.1 m -6.3,-1.1 h -1.7 v 1 h 1.7 z m 20.1,-1.9 h -1.1 v 2.9 h 1.1 z m 1.6,0 v 3 h 1.2 v 1.1 h -6.9 v -1.3 h 1.2 v -2.8 h -1.2 v -1.3 h 7.2 v 1.3 z"
       id="path56"
       inkscape:connector-curvature="0"
       style="fill:#ffffff" />
    <path
       d="m 111.6,146.8 -1,-0.1 c 0,0.7 -0.2,1 -0.7,1 -0.5,0 -0.7,-0.5 -0.7,-1.6 0,-0.6 0.1,-1 0.2,-1.2 0.1,-0.2 0.3,-0.3 0.6,-0.3 0.4,0 0.6,0.3 0.7,0.9 l 0.9,-0.1 c -0.1,-0.6 -0.2,-1 -0.5,-1.3 -0.3,-0.3 -0.7,-0.4 -1.1,-0.4 -0.5,0 -1,0.2 -1.3,0.7 -0.3,0.4 -0.5,1 -0.5,1.8 0,0.7 0.2,1.3 0.5,1.8 0.3,0.5 0.8,0.7 1.3,0.7 1,-0.1 1.5,-0.7 1.6,-1.9 m 1.1,-1.1 h 0.9 l -0.4,1.7 c -0.1,-0.1 -0.5,-1.7 -0.5,-1.7 z m 1.1,2.9 1.3,-4.8 h -1 l -0.2,1 h -1.3 l -0.3,-1 h -0.8 l 1.3,4.8 z m 2.4,-0.9 v -1.2 h 1 c 0.1,0 0.2,0.1 0.2,0.2 0,0.1 0.1,0.2 0.1,0.4 0,0.1 0,0.3 -0.1,0.4 -0.1,0.1 -0.1,0.2 -0.2,0.2 z m 0,-2 v -1.9 h -0.9 v 4.8 h 1.8 c 0.3,0 0.6,0 0.8,-0.1 0.2,-0.1 0.4,-0.3 0.5,-0.5 0.1,-0.2 0.2,-0.5 0.2,-0.8 0,-0.6 -0.2,-1 -0.7,-1.2 l 0.7,-2.1 h -1 l -0.6,1.9 c -0.1,-0.1 -0.8,-0.1 -0.8,-0.1 z m 5.4,2.9 v -0.9 h -1 v -3.8 h -1 v 3.8 h -1 v 0.9 z m 1.3,-0.9 v -1.2 h 1 c 0.1,0 0.2,0.1 0.2,0.2 0,0.1 0.1,0.2 0.1,0.4 0,0.1 0,0.3 -0.1,0.4 -0.1,0.1 -0.1,0.2 -0.2,0.2 z m 0,-2 v -1.9 H 122 v 4.8 h 1.8 c 0.3,0 0.6,0 0.8,-0.1 0.2,-0.1 0.4,-0.3 0.5,-0.5 0.1,-0.2 0.2,-0.5 0.2,-0.8 0,-0.6 -0.2,-1 -0.7,-1.2 l 0.7,-2.1 h -1 l -0.6,1.9 c -0.1,-0.1 -0.8,-0.1 -0.8,-0.1 z m 3.5,-1.9 h -0.9 v 4.8 h 0.9 z m 1.2,3.9 v -3 h 0.4 c 0.3,0 0.6,0.2 0.8,0.5 0.2,0.3 0.3,0.7 0.3,1.1 0,0.3 0,0.6 -0.1,0.8 -0.1,0.2 -0.2,0.4 -0.4,0.5 -0.1,0.1 -0.3,0.1 -0.5,0.1 z m -0.9,0.9 h 1.2 c 0.5,0 0.9,-0.1 1.1,-0.2 0.2,-0.2 0.5,-0.4 0.7,-0.8 0.2,-0.4 0.3,-0.8 0.3,-1.3 0,-0.7 -0.2,-1.3 -0.5,-1.7 -0.3,-0.5 -0.8,-0.7 -1.4,-0.7 h -1.4 z m 6.8,-2.2 c 0,0 0,-1.5 -0.5,-2 -0.5,-0.5 -0.7,-0.6 -1.1,-0.6 -0.5,0 -0.9,0.2 -1.2,0.7 -0.3,0.4 -0.4,1 -0.4,1.7 0,0.8 0.2,1.4 0.5,1.8 0.3,0.5 0.7,0.7 1.3,0.7 0.4,0 0.8,-0.1 1.1,-0.4 0.3,-0.3 0.4,-0.7 0.5,-1.2 l -0.9,-0.1 c -0.1,0.6 -0.3,0.9 -0.7,0.9 -0.3,0 -0.4,-0.1 -0.6,-0.4 -0.1,-0.3 -0.2,-0.7 -0.2,-1.2 0,-0.5 0.1,-0.9 0.2,-1.1 0.1,-0.3 0.3,-0.4 0.6,-0.4 0.2,0 0.3,0.1 0.5,0.2 0.1,0.1 0.2,0.3 0.2,0.6 H 132 v 0.9 z m 3.1,1.3 h -1.9 v -1 h 1.5 v -0.9 h -1.5 v -1 h 1.9 v -0.9 h -2.9 v 4.8 h 2.9 z m 3.7,-3.9 h -0.9 v 4.8 h 0.9 z m 3.3,4.8 v -4.8 h -0.8 l -1.6,3.2 v -0.2 -3.1 h -0.7 v 4.8 h 1 l 1.4,-2.8 v 2.8 h 0.7 z m 1.1,-2.2 h 0.6 c 0.2,0 0.4,0.1 0.5,0.2 0.1,0.1 0.1,0.3 0.1,0.4 0,0.2 -0.1,0.3 -0.2,0.5 -0.1,0.1 -0.3,0.2 -0.5,0.2 h -0.6 v -1.3 z m 0.1,-0.8 v -1.8 h -1 v 4.8 h 1.6 c 0.4,0 0.6,0 0.8,-0.1 0.2,-0.1 0.4,-0.3 0.5,-0.5 0.1,-0.2 0.2,-0.5 0.2,-0.8 0,-0.2 0,-0.5 -0.1,-0.7 -0.1,-0.2 -0.2,-0.4 -0.3,-0.5 -0.1,-0.1 -0.3,-0.2 -0.4,-0.3 -0.1,0 -0.3,-0.1 -0.6,-0.1 z m 5.5,3 v -3 c 0,-0.5 0,-0.8 -0.1,-1.1 -0.1,-0.2 -0.3,-0.4 -0.5,-0.6 -0.2,-0.1 -0.6,-0.2 -1,-0.2 -0.4,0 -0.7,0.1 -0.9,0.2 -0.2,0.1 -0.4,0.3 -0.5,0.6 -0.1,0.2 -0.2,0.6 -0.2,1.1 v 3 h 1 v -3 c 0,-0.3 0,-0.4 0.1,-0.6 0,-0.1 0.1,-0.2 0.2,-0.3 0.1,-0.1 0.2,-0.1 0.4,-0.1 0.2,0 0.3,0 0.4,0.1 0.1,0.1 0.2,0.2 0.2,0.3 0,0.1 0.1,0.3 0.1,0.6 v 3 z m 3.2,0 v -0.9 h -1 v -3.8 h -1 v 3.8 h -1 v 0.9 z"
       id="path58"
       inkscape:connector-curvature="0"
       style="fill:#424342" />
    <path
       d="m 26.9,254.2 h -2 v -10.1 h 2 z m 3,0 h -2 v -10.1 h 2 z m 3,0 h -2 v -10.1 h 2 z m 3,0 h -2 v -10.1 h 2 z m 2.9,0 h -2 v -10.1 h 2 z m 3,0 h -2 v -10.1 h 2 z m 3,0 h -2 v -10.1 h 2 z m 2.9,0 h -2 v -10.1 h 2 z m 3.1,0 h -2 v -10.1 h 2 z m 3,0 h -2 v -10.1 h 2 z m 3,0 h -2 v -10.1 h 2 z m 2.9,0 h -2 v -10.1 h 2 z m 3,0 h -2 v -10.1 h 2 z m 2.9,0 h -2 v -10.1 h 2 z m 3.1,0 h -2 v -10.1 h 2 z m 2.9,0 h -2 v -10.1 h 2 z m 3,0 h -2 v -10.1 h 2 z m 3,0 h -2 v -10.1 h 2 z m 3,0 h -2 v -10.1 h 2 z m 3,0 h -2 v -10.1 h 2 z m 2.9,0 h -2 v -10.1 h 2 z m 3,0 h -2 v -10.1 h 2 z m 3,0 h -2 v -10.1 h 2 z m 3,0 h -2 v -10.1 h 2 z m 3,0 h -2 v -10.1 h 2 z m 3,0 h -2 v -10.1 h 2 z m 3,0 h -2 v -10.1 h 2 z m 3,0 h -2 v -10.1 h 2 z m 2.9,0 h -2 v -10.1 h 2 z m 2.9,0 h -2 v -10.1 h 2 z m 3.1,0 h -2 v -10.1 h 2 z m 2.9,0 h -2 v -10.1 h 2 z m 3.2,0 h -2 v -10.1 h 2 z m 3,0 h -2 v -10.1 h 2 z m 3,0 h -2 v -10.1 h 2 z m 2.9,0 h -2 v -10.1 h 2 z m 3,0 h -2 v -10.1 h 2 z m 3,0 h -2 v -10.1 h 2 z m 3,0 h -2 v -10.1 h 2 z m 3,0 h -2 v -10.1 h 2 z m 3,0 h -2 v -10.1 h 2 z m 3,0 h -2 v -10.1 h 2 z m 2.9,0 h -2 v -10.1 h 2 z m 3,0 h -2 v -10.1 h 2 z m 2.9,0 h -2 v -10.1 h 2 z m 3.1,0 h -2 v -10.1 h 2 z m 2.9,0 h -2 v -10.1 h 2 z m 3.3,0 h -2 v -10.1 h 2 z m 3,0 h -2 v -10.1 h 2 z m 3,0 h -2 v -10.1 h 2 z m 2.9,0 h -2 v -10.1 h 2 z m 3,0 h -2 v -10.1 h 2 z m 3,0 h -2 v -10.1 h 2 z m 3,0 h -2 v -10.1 h 2 z m 3,0 h -2 v -10.1 h 2 z m 2.9,0 h -2 v -10.1 h 2 z m 3.1,0 h -2 v -10.1 h 2 z m 2.9,0 h -2 v -10.1 h 2 z m 3,0 h -2 v -10.1 h 2 z m 2.9,0 h -2 v -10.1 h 2 z m 3,0 h -2 v -10.1 h 2 z m 3,0 h -2 v -10.1 h 2 z m 3.2,0 h -2 v -10.1 h 2 z m 3,0 h -2 v -10.1 h 2 z m 2.9,0 h -2 v -10.1 h 2 z m 3,0 h -2 v -10.1 h 2 z m 2.9,0 h -2 v -10.1 h 2 z m 3,0 h -2 v -10.1 h 2 z m 3,0 h -2 v -10.1 h 2 z m 3,0 h -2 v -10.1 h 2 z m 3,0 h -2 v -10.1 h 2 z"
       id="path60"
       inkscape:connector-curvature="0"
       style="fill:#4f5051" />
    <path
       d="m 463,60.5 c -1,-2.5 -2.6,-6.8 -3.9,-9 -1.9,-3.3 -3.5,-7.2 -5.4,-6.8 -1.1,0.2 -2.9,1 -4.7,2.2 -1.5,1 -3.1,2.2 -4.1,3.4 -0.3,0.3 -0.5,0.6 -0.7,1 -1.6,2.6 -3.2,3.8 -2.5,4.7 1.3,1.6 6.8,7.1 12,15.2 1.1,1.7 2.1,1.8 3.4,1.7 1.3,-0.1 1.7,-0.5 2.3,-0.7 1.9,-0.9 2.1,-1.1 4,-2.4 0.9,-0.8 1.1,-1.5 1.2,-2.3 0.3,-1.5 -0.6,-4.6 -1.6,-7 m 7.5,56.5 -0.8,-4.4 c -0.1,-0.7 -0.2,-1.3 -0.4,-2 0,-0.1 0,-0.3 -0.1,-0.4 -0.1,-0.5 -0.2,-0.9 -0.3,-1.4 v -0.1 c -0.2,-0.8 -0.3,-1.5 -0.5,-2.3 v -0.2 c -0.2,-0.7 -0.4,-1.4 -0.5,-2.1 -0.4,-1.4 -0.8,-2.7 -1.2,-4.1 -0.1,-0.5 -0.3,-1 -0.5,-1.5 -0.2,-0.5 -0.4,-1.1 -0.6,-1.6 L 465,95.4 c 0,-0.1 0,-0.1 -0.1,-0.2 0,-0.1 -0.1,-0.2 -0.1,-0.3 -0.2,-0.5 -0.4,-1.1 -0.6,-1.6 -0.1,-0.3 -0.2,-0.6 -0.4,-0.9 -0.2,-0.5 -0.4,-1 -0.7,-1.5 0,-0.1 -0.1,-0.2 -0.1,-0.3 -0.2,-0.6 -0.5,-1.1 -0.8,-1.7 v -0.1 c 0,-0.1 -0.1,-0.2 -0.1,-0.3 l -0.6,-1.2 c -0.5,-1 -1,-1.9 -1.4,-2.9 -0.7,-1.2 -1.3,-2.5 -2,-3.7 -0.4,-0.6 -0.7,-1.2 -1.1,-1.8 -0.2,-0.3 -0.4,-0.7 -0.6,-1 0,-0.1 -0.1,-0.1 -0.1,-0.1 -0.3,-0.5 -0.6,-0.9 -0.9,-1.4 -0.3,-0.5 -0.7,-1 -1,-1.6 -0.2,-0.3 -0.3,-0.5 -0.5,-0.7 -0.3,-0.4 -0.6,-0.8 -0.9,-1.3 -0.1,-0.1 -0.1,-0.2 -0.2,-0.3 -0.9,-1.2 -1.7,-2.4 -2.6,-3.6 -0.2,-0.2 -0.3,-0.5 -0.5,-0.7 l -0.5,-0.7 c -0.2,-0.2 -0.3,-0.4 -0.5,-0.7 -0.8,-1.1 -1.7,-2.1 -2.5,-3.2 -0.5,-0.6 -1,-1.1 -1.4,-1.7 -0.5,-0.6 -1,-1.1 -1.5,-1.7 -0.5,-0.5 -1,-1.1 -1.5,-1.6 l -0.1,-0.1 -0.1,-0.1 c 0,-0.1 -0.1,-0.1 -0.2,-0.2 -0.6,-0.6 -1.1,-1.2 -1.7,-1.8 -0.7,-0.7 -1.3,-1.4 -2,-2 C 418.1,34.5 388,31.7 368,31.7 h -4.4 c -0.6,0 -1.1,0 -1.7,0.1 h -0.2 c -0.8,0 -1.6,0.1 -2.5,0.2 -0.4,0 -0.9,0 -1.3,0.1 -0.3,0 -0.6,0 -1,0.1 -0.3,0 -0.6,0 -0.9,0.1 -0.6,0 -1.2,0.1 -1.8,0.1 -0.6,0 -1.3,0.1 -1.9,0.2 -0.3,0 -0.6,0 -0.9,0.1 -0.5,0 -0.9,0.1 -1.4,0.1 -2.2,0.2 -4.4,0.3 -6.8,0.5 -0.7,0 -1.4,0.1 -2.2,0.2 -0.3,0 -0.7,0 -1,0.1 -1,0.1 -2,0.1 -3,0.2 h -0.3 c -0.6,0 -1.1,0.1 -1.7,0.1 -0.7,0 -1.4,0.1 -2,0.1 -0.5,0 -1,0 -1.5,0.1 -0.7,0 -1.3,0.1 -2,0.1 -0.9,0 -1.8,0.1 -2.8,0.1 h -15 c -1.6,0 -3.3,-0.1 -4.9,-0.2 h -1 c -0.4,0 -0.8,0 -1.2,-0.1 -0.6,0 -1.2,-0.1 -1.8,-0.1 -0.7,0 -1.4,-0.1 -2.2,-0.1 -0.8,0 -1.4,-0.1 -2.1,-0.2 -0.6,0 -1.2,-0.1 -1.8,-0.2 -1.6,-0.2 -3.1,-0.3 -4.6,-0.5 H 292 c -0.8,-0.1 -1.5,-0.2 -2.3,-0.3 -0.3,0 -0.6,-0.1 -0.9,-0.1 l -1.5,-0.3 h -0.2 c -0.5,-0.1 -1,-0.2 -1.4,-0.3 -0.3,0 -0.5,-0.1 -0.8,-0.2 -0.3,0 -0.5,-0.1 -0.8,-0.2 -0.3,0 -0.5,-0.1 -0.8,-0.2 -0.3,0 -0.5,-0.1 -0.8,-0.2 -0.1,0 -0.2,0 -0.3,-0.1 L 281,30.7 c -0.4,-0.1 -0.7,-0.2 -1.1,-0.3 -0.4,-0.1 -0.8,-0.2 -1.1,-0.3 -0.2,-0.1 -0.5,-0.1 -0.7,-0.2 -0.5,-0.1 -0.9,-0.3 -1.4,-0.5 -0.2,-0.1 -0.5,-0.2 -0.7,-0.2 -0.3,-0.1 -0.5,-0.2 -0.8,-0.3 -0.2,-0.1 -0.4,-0.1 -0.5,-0.2 -0.8,-0.3 -1.6,-0.7 -2.3,-1 -0.3,-0.1 -0.6,-0.3 -0.8,-0.5 -0.3,-0.2 -0.6,-0.3 -0.9,-0.5 h -0.1 c -0.3,-0.2 -0.6,-0.4 -0.9,-0.5 0,0 -0.1,0 -0.1,-0.1 -0.2,-0.1 -0.3,-0.2 -0.5,-0.4 -0.1,-0.1 -0.3,-0.2 -0.4,-0.3 -0.1,-0.1 -0.3,-0.2 -0.4,-0.3 -0.2,-0.2 -0.4,-0.3 -0.5,-0.5 l -0.9,-0.8 c 1.3,-7.4 5.8,-12.2 19.5,-19.8 3.4,-1.9 7.1,-3.1 10.9,-3.5 4.8,-0.5 10.7,-0.6 16.2,-0.6 h 6.4 c 2.9,0 5.5,0.1 7.4,0.1 h 56 c 50.1,0 87.4,40.6 87.4,90.7 V 119 c 0.1,-0.6 0,-1.3 -0.2,-2"
       id="path62"
       inkscape:connector-curvature="0"
       style="fill:#606163" />
    <path
       d="M 456,117.9 C 456.1,104.1 442.9,80.9 428.7,68.5 414.6,56.1 396.3,47.3 380.3,47.4 H 354 c -2.8,0 -5.6,0 -8.4,0.1 -0.9,0 -1.7,0.1 -2.6,0.1 -1.5,0.1 -3.1,0.2 -4.6,0.3 -1,0.1 -2,0.2 -3,0.2 -2.5,0.2 -5,0.5 -7.5,0.8 -1,0.1 -2,0.3 -2.9,0.5 -1,0.2 -1.9,0.3 -2.9,0.5 -0.5,0.1 -1.1,0.2 -1.6,0.3 -1,0.2 -2.1,0.5 -3.1,0.7 -1,0.2 -1.9,0.5 -2.8,0.8 h -0.2 c -1,0.3 -2,0.6 -2.9,0.9 -0.5,0.2 -1,0.3 -1.4,0.5 -0.8,0.3 -1.6,0.6 -2.5,1 l -1.5,0.6 c -0.4,0.2 -0.8,0.4 -1.2,0.5 -0.3,0.2 -0.7,0.3 -1,0.5 -0.3,0.1 -0.5,0.3 -0.7,0.4 -0.5,0.3 -1.1,0.6 -1.6,0.9 -0.5,0.3 -0.9,0.6 -1.4,0.9 -0.5,0.3 -0.9,0.6 -1.3,0.9 l -1.2,0.9 -0.2,0.2 c -0.3,0.3 -0.7,0.5 -1,0.8 0,0 -0.1,0 -0.1,0.1 -0.4,0.3 -0.7,0.6 -1,1 l -0.1,0.1 -1,1 c -0.1,0.1 -0.2,0.3 -0.3,0.4 l -0.6,0.6 -1.2,1.5 c -3.7,4.8 -5.9,10.9 -5.9,18.8 v 132.9 c 0,2.4 1.1,4.6 3,6.3 0.2,0.2 0.4,0.3 0.6,0.5 0,0 0.1,0.1 0.2,0.1 0.5,0.3 0.9,0.6 1.5,0.9 0.3,0.1 0.5,0.2 0.8,0.3 0.2,0.1 0.5,0.2 0.7,0.3 0.1,0 0.1,0.1 0.2,0.1 0.2,0.1 0.4,0.1 0.6,0.2 0.3,0.1 0.5,0.1 0.8,0.2 0.1,0 0.3,0.1 0.4,0.1 0.2,0 0.5,0.1 0.7,0.1 h 149.8 c 2.9,0 5.6,-1 7.5,-2.7 1.9,-1.7 3,-3.9 3,-6.3 z M 455.9,254 H 446 c -0.4,0 -0.8,-0.3 -1,-0.5 -0.1,-0.2 -0.2,-0.4 -0.2,-0.6 v -8.7 c 0,-1.5 -1.2,-2.7 -2.7,-2.7 l -146.2,1 c -1.5,0 -1.7,0.2 -1.7,1.7 v 8.7 c 0,0.2 0,0.5 -0.2,0.7 -0.2,0.3 -0.6,0.4 -0.9,0.4 h -11.6 c -2.1,0 -4.1,-0.4 -6,-1.2 a 15,15 0 0 1 -9,-13.8 V 40.1 c 0,-5.8 -0.2,-10.3 0.3,-14.2 0,-0.2 0,-0.3 0.1,-0.5 0.1,-0.5 0.1,-0.9 0.2,-1.4 l 0.9,0.8 c 0.2,0.2 0.4,0.3 0.5,0.5 0.1,0.1 0.3,0.2 0.4,0.3 0.1,0.1 0.3,0.2 0.4,0.3 0.2,0.1 0.3,0.2 0.5,0.4 0,0 0.1,0 0.1,0.1 0.3,0.2 0.6,0.4 0.9,0.5 h 0.1 c 0.3,0.2 0.6,0.3 0.9,0.5 0.3,0.2 0.6,0.3 0.8,0.5 0.7,0.4 1.5,0.7 2.3,1 0.2,0.1 0.4,0.1 0.5,0.2 0.3,0.1 0.5,0.2 0.8,0.3 0.2,0.1 0.4,0.2 0.7,0.2 0.5,0.2 0.9,0.3 1.4,0.5 0.2,0.1 0.5,0.1 0.7,0.2 0.4,0.1 0.7,0.2 1.1,0.3 0.4,0.1 0.7,0.2 1.1,0.3 l 1.2,0.3 c 0.1,0 0.2,0 0.3,0.1 0.3,0.1 0.5,0.1 0.8,0.2 0.3,0.1 0.5,0.1 0.8,0.2 0.3,0.1 0.5,0.1 0.8,0.2 0.3,0.1 0.5,0.1 0.8,0.2 0.5,0.1 1,0.2 1.4,0.3 h 0.2 l 1.5,0.3 c 0.3,0 0.6,0.1 0.9,0.1 0.8,0.1 1.5,0.2 2.3,0.3 h 0.1 c 1.5,0.2 3.1,0.4 4.6,0.5 0.6,0.1 1.2,0.1 1.8,0.2 0.7,0.1 1.4,0.1 2.1,0.2 0.7,0.1 1.4,0.1 2.2,0.1 0.6,0 1.2,0.1 1.8,0.1 0.4,0 0.8,0 1.2,0.1 h 1 c 1.6,0.1 3.3,0.1 4.9,0.2 h 15 c 0.9,0 1.8,-0.1 2.8,-0.1 0.6,0 1.3,0 2,-0.1 0.5,0 1,0 1.5,-0.1 0.7,0 1.4,-0.1 2,-0.1 0.6,0 1.2,-0.1 1.7,-0.1 h 0.3 c 1,-0.1 2,-0.1 3,-0.2 0.3,0 0.7,0 1,-0.1 0.7,-0.1 1.5,-0.1 2.2,-0.2 2.3,-0.2 4.6,-0.4 6.8,-0.5 0.5,0 0.9,-0.1 1.4,-0.1 0.3,0 0.6,0 0.9,-0.1 0.6,0 1.3,-0.1 1.9,-0.2 0.6,0 1.2,-0.1 1.8,-0.1 0.3,0 0.6,0 0.9,-0.1 0.3,0 0.6,0 1,-0.1 0.4,0 0.9,-0.1 1.3,-0.1 0.9,-0.1 1.7,-0.1 2.5,-0.2 h 0.2 c 0.6,0 1.2,-0.1 1.7,-0.1 h 4.4 c 19.9,0 50,2.8 69.7,22.7 0.7,0.7 1.3,1.4 2,2 0.6,0.6 1.1,1.2 1.7,1.8 0,0.1 0.1,0.1 0.2,0.2 l 0.1,0.1 0.1,0.1 c 0.5,0.5 1,1.1 1.5,1.6 0.5,0.5 1,1.1 1.5,1.7 0.5,0.5 1,1.1 1.4,1.7 0.9,1 1.7,2.1 2.5,3.2 0.2,0.2 0.4,0.4 0.5,0.7 l 0.5,0.7 c 0.2,0.2 0.4,0.5 0.5,0.7 0.9,1.2 1.8,2.4 2.6,3.6 0.1,0.1 0.1,0.2 0.2,0.3 0.3,0.4 0.6,0.8 0.9,1.3 0.2,0.2 0.3,0.5 0.5,0.7 0.3,0.5 0.7,1 1,1.6 0.3,0.4 0.6,0.9 0.9,1.4 0,0.1 0.1,0.1 0.1,0.1 0.2,0.3 0.4,0.7 0.6,1 0.4,0.6 0.7,1.2 1.1,1.8 0.7,1.2 1.4,2.4 2,3.7 0.5,0.9 1,1.9 1.4,2.9 l 0.6,1.2 c 0,0.1 0.1,0.2 0.1,0.3 v 0.1 c 0.3,0.6 0.5,1.1 0.8,1.7 0,0.1 0.1,0.2 0.1,0.3 0.2,0.5 0.5,1 0.7,1.5 0.1,0.3 0.2,0.6 0.4,0.9 0.2,0.5 0.4,1 0.6,1.6 0,0.1 0.1,0.2 0.1,0.3 0,0.1 0,0.1 0.1,0.2 l 0.6,1.5 c 0.2,0.5 0.4,1.1 0.6,1.6 0.2,0.5 0.3,1 0.5,1.5 0.4,1.3 0.8,2.7 1.2,4.1 0.2,0.7 0.4,1.4 0.5,2.1 v 0.2 c 0.2,0.8 0.4,1.5 0.5,2.3 v 0.1 c 0.1,0.5 0.2,0.9 0.3,1.4 0,0.1 0,0.3 0.1,0.4 0.1,0.7 0.3,1.3 0.4,2 l 0.8,4.4 c 0.1,0.7 0.3,1.4 0.4,2.2 V 239 c -0.2,8.3 -6.9,15 -15.2,15"
       id="path64"
       inkscape:connector-curvature="0"
       style="fill:#565658" />
    <path
       d="m 297.2,244.1 h -2 v 10.1 h 2 z m 3,0 h -2 v 10.1 h 2 z m 3,0 h -2 v 10.1 h 2 z m 3,0 h -2 v 10.1 h 2 z m 2.9,0 h -2 v 10.1 h 2 z m 3,0 h -2 v 10.1 h 2 z m 3,0 h -2 v 10.1 h 2 z m 3,0 h -2 v 10.1 h 2 z m 3,0 h -2 v 10.1 h 2 z m 3,0 h -2 v 10.1 h 2 z m 3,0 h -2 v 10.1 h 2 z m 3,0 h -2 v 10.1 h 2 z m 2.9,0 h -2 v 10.1 h 2 z m 3,0 h -2 v 10.1 h 2 z m 3,0 h -2 v 10.1 h 2 z m 2.9,0 h -2 v 10.1 h 2 z m 3.1,0 h -2 v 10.1 h 2 z m 2.9,0 h -2 v 10.1 h 2 z m 3.1,0 h -2 v 10.1 h 2 z m 2.9,0 h -2 v 10.1 h 2 z m 2.9,0 h -2 v 10.1 h 2 z m 3,0 h -2 v 10.1 h 2 z m 3,0 h -2 v 10.1 h 2 z m 3,0 h -2 v 10.1 h 2 z m 3,0 h -2 v 10.1 h 2 z m 3,0 h -2 v 10.1 h 2 z m 3,0 h -2 v 10.1 h 2 z m 3,0 h -2 v 10.1 h 2 z m 2.9,0 h -2 v 10.1 h 2 z m 3,0 h -2 v 10.1 h 2 z m 3,0 h -2 v 10.1 h 2 z m 3,0 h -2 v 10.1 h 2 z m 3.1,0 h -2 v 10.1 h 2 z m 3,0 h -2 v 10.1 h 2 z m 3,0 h -2 v 10.1 h 2 z m 2.9,0 h -2 v 10.1 h 2 z m 3,0 h -2 v 10.1 h 2 z m 3,0 h -2 v 10.1 h 2 z m 3,0 h -2 v 10.1 h 2 z m 3,0 h -2 v 10.1 h 2 z m 3,0 h -2 v 10.1 h 2 z m 3,0 h -2 v 10.1 h 2 z m 3,0 h -2 v 10.1 h 2 z m 2.9,0 h -2 v 10.1 h 2 z m 3,0 h -2 v 10.1 h 2 z m 3,0 h -2 v 10.1 h 2 z m 2.9,0 h -2 v 10.1 h 2 z m 3.3,0 h -2 v 10.1 h 2 z m 3,0 h -2 v 10.1 h 2 z m 3,0 h -2 v 10.1 h 2 z"
       id="path66"
       inkscape:connector-curvature="0"
       style="fill:#4f5051" />
    <path
       d="m 454.9,192.1 v -1 l -0.1,-73.5 v -1.3 C 454.1,102.9 441.6,81 428,69.2 418.6,61 407.3,54.4 396.2,51 c -0.7,-0.2 -1.5,-0.4 -2.2,-0.6 -1,-0.3 -2.1,-0.5 -3.1,-0.8 -1,-0.3 -2,-0.4 -3,-0.6 -1.5,-0.2 -3,-0.4 -4.5,-0.5 -1,-0.1 -2,-0.1 -3,-0.1 H 354 c -8.2,0 -16.6,0.3 -24.5,1.4 -1,0.1 -2,0.3 -2.9,0.4 -1,0.1 -1.9,0.3 -2.9,0.5 -1.4,0.3 -2.8,0.5 -4.2,0.8 -4.1,0.9 -8,2.1 -11.5,3.5 -6.3,2.6 -11.4,6.1 -15,10.7 -3.4,4.3 -5.4,9.7 -5.6,16.7 v 134.3 c 0,2.1 0.9,3.9 2.6,5.4 1.6,1.4 4,2.4 6.7,2.4 h 148.9 c 2.7,0 5,-0.9 6.7,-2.4 1.7,-1.5 2.6,-3.3 2.6,-5.4 z m -1.8,31 c -1.9,1.6 -4.5,2.7 -7.5,2.7 H 295.7 c -0.3,0 -0.5,0 -0.7,-0.1 -0.1,0 -0.3,0 -0.4,-0.1 -0.3,0 -0.5,-0.1 -0.8,-0.2 -0.2,-0.1 -0.4,-0.1 -0.6,-0.2 -0.1,0 -0.2,-0.1 -0.2,-0.1 -0.2,-0.1 -0.5,-0.2 -0.7,-0.3 -0.3,-0.1 -0.5,-0.2 -0.8,-0.3 -0.5,-0.3 -1,-0.5 -1.5,-0.9 0,0 -0.1,-0.1 -0.2,-0.1 -0.2,-0.1 -0.4,-0.3 -0.6,-0.5 -1.9,-1.7 -3,-3.9 -3,-6.3 V 84 c 0,-7.9 2.2,-14 5.9,-18.8 l 1.2,-1.5 0.6,-0.6 c 0.1,-0.1 0.2,-0.3 0.3,-0.4 l 1,-1 0.1,-0.1 c 0.3,-0.3 0.7,-0.6 1,-1 l 0.1,-0.1 c 0.3,-0.3 0.7,-0.6 1,-0.8 l 0.2,-0.2 1.2,-0.9 c 0.4,-0.3 0.9,-0.6 1.3,-0.9 0.5,-0.3 0.9,-0.6 1.4,-0.9 0.5,-0.3 1,-0.6 1.6,-0.9 0.2,-0.1 0.5,-0.3 0.7,-0.4 0.3,-0.2 0.7,-0.3 1,-0.5 0.4,-0.2 0.8,-0.4 1.2,-0.5 l 1.5,-0.6 c 0.8,-0.3 1.6,-0.7 2.5,-1 0.5,-0.2 0.9,-0.3 1.4,-0.5 1,-0.3 1.9,-0.6 2.9,-0.9 1,-0.3 2,-0.5 3,-0.8 1,-0.3 2.1,-0.5 3.1,-0.7 0.5,-0.1 1.1,-0.2 1.6,-0.3 1,-0.2 1.9,-0.3 2.9,-0.5 1,-0.2 1.9,-0.3 2.9,-0.5 2.5,-0.3 5,-0.6 7.5,-0.8 1,-0.1 2,-0.2 3,-0.2 1.5,-0.1 3.1,-0.2 4.6,-0.3 0.9,0 1.7,-0.1 2.6,-0.1 2.8,-0.1 5.6,-0.1 8.4,-0.1 h 26.3 c 16,0 34.3,8.7 48.4,21.1 14.2,12.4 27.3,35.6 27.3,49.4 l 0.1,99 c 0.1,2.6 -1,4.8 -2.9,6.4"
       id="path68"
       inkscape:connector-curvature="0"
       style="fill:#424242" />
    <path
       d="M 454.9,216.9 V 192.2 H 287.4 v 24.7 c 0,2.1 0.9,3.9 2.6,5.4 1.6,1.4 4,2.4 6.7,2.4 h 148.9 c 2.7,0 5,-0.9 6.7,-2.4 1.7,-1.5 2.6,-3.4 2.6,-5.4 M 362.6,56.2 c -3.5,0.4 -6,2.2 -8,3.2 -2,1 -3.3,2.3 -4,4 -0.1,0.2 -0.1,0.3 -0.1,0.4 v 0.1 c 0,0.1 -0.1,0.3 -0.1,0.4 v 0.2 c 0,0.1 -0.1,0.3 -0.1,0.4 v 2.2 c 0,0.3 0.1,0.7 0.2,1 l 0.1,0.5 v 0.1 l 0.1,0.5 c 0.1,0.2 0.1,0.4 0.2,0.6 0.1,0.2 0.1,0.4 0.2,0.6 0.1,0.4 0.3,0.8 0.5,1.1 l 0.3,0.6 c 0.5,1 1,2 1.6,3 0.4,0.7 1,1.5 1.6,2.3 0.4,0.5 0.8,1.1 1.2,1.6 0.3,0.4 0.6,0.8 0.9,1.1 0.8,1.1 1.8,2.2 2.8,3.4 3,3.6 6.6,7.8 10.6,12 7.6,8.2 16.3,16.6 23.2,22.1 20.9,14.8 34.3,20.8 42.6,21.5 4.2,0.3 7.1,-0.7 8.9,-2.7 1.5,-1.7 2.1,-4 2.2,-6.6 v -1.1 -0.7 c -0.9,-11.9 -5.3,-33.6 -19.3,-49 -0.5,-0.5 -1,-1.1 -1.5,-1.6 -1,-1 -2.1,-2 -3.2,-3 -18,-15.2 -47,-19.8 -60.9,-18.2 M 287.4,191.1 V 83.9 82.6 c 0.2,-7 2.3,-12.4 5.6,-16.7 3.5,-4.6 8.7,-8.1 15,-10.7 3.5,-1.5 7.4,-2.6 11.5,-3.5 1.4,-0.3 2.8,-0.6 4.2,-0.8 0.9,-0.2 1.9,-0.3 2.9,-0.5 1,-0.2 1.9,-0.3 2.9,-0.4 7.9,-1 16.3,-1.4 24.5,-1.4 h 26.4 c 1,0 2,0 3,0.1 1.5,0.1 3,0.3 4.5,0.5 1,0.2 2,0.3 3,0.6 1,0.3 2,0.5 3.1,0.8 0.7,0.2 1.5,0.4 2.2,0.6 11.1,3.4 22.4,10 31.8,18.2 13.6,11.8 26.1,33.7 26.8,47.1 v 1.3 l 0.1,73.5 z"
       id="path70"
       inkscape:connector-curvature="0"
       style="fill:#565658" />
    <path
       d="m 447.2,129.8 v -1.1 -0.7 c -0.9,-11.9 -5.3,-33.6 -19.3,-49 -0.5,-0.5 -1,-1.1 -1.5,-1.6 -1,-1 -2.1,-2 -3.2,-3 -17.7,-15.4 -46.7,-20 -60.7,-18.3 -3.5,0.4 -6,2.2 -8,3.2 -2,1 -3.3,2.3 -4,4 -0.1,0.2 -0.1,0.3 -0.1,0.4 v 0.1 c 0,0.1 -0.1,0.3 -0.1,0.4 v 0.2 c 0,0.1 -0.1,0.3 -0.1,0.4 v 1.7 c 0,0.7 0.1,1.3 0.3,2 v 0.1 l 0.1,0.5 c 0.1,0.2 0.1,0.4 0.2,0.6 0.1,0.2 0.1,0.4 0.2,0.6 0.1,0.4 0.3,0.8 0.5,1.1 l 0.3,0.6 c 0.5,1 1,2 1.6,3 0.4,0.7 1,1.5 1.6,2.3 0.4,0.5 0.8,1.1 1.2,1.6 0.3,0.4 0.6,0.8 0.9,1.1 0.8,1.1 1.8,2.2 2.8,3.4 3,3.6 6.6,7.8 10.6,12 7.6,8.2 16.3,16.6 23.2,22.1 20.9,14.8 34.3,20.8 42.6,21.5 4.2,0.3 7.1,-0.7 8.9,-2.7 1.3,-1.6 2,-3.9 2,-6.5"
       id="path72"
       inkscape:connector-curvature="0"
       style="fill:#424242" />
    <path
       d="m 434.6,111.4 c -0.3,-2.8 -1.3,-5.9 -3,-9.3 -3.4,-6.7 -9.6,-14 -17.6,-20.6 -8.1,-6.6 -16.5,-11.1 -23.7,-13.2 -3.6,-1 -6.9,-1.4 -9.7,-1.1 -2.8,0.3 -5.1,1.4 -6.6,3.2 -1.5,1.9 -2.1,4.3 -1.8,7.2 0.3,2.8 1.3,5.9 3,9.3 3.5,6.6 9.6,14 17.7,20.6 8,6.6 16.5,11.2 23.7,13.2 3.6,1 6.9,1.4 9.7,1.1 2.8,-0.3 5.1,-1.3 6.6,-3.2 1.4,-1.9 1.9,-4.4 1.7,-7.2"
       id="path74"
       inkscape:connector-curvature="0"
       style="fill:#4d4c4e" />
    <path
       d="m 410,100.3 c -0.9,0 -1.7,-0.8 -1.7,-1.7 0,-0.9 0.8,-1.7 1.7,-1.7 0.9,0 1.7,0.8 1.7,1.7 0,1 -0.8,1.7 -1.7,1.7 M 395.9,89 c -0.9,0 -1.7,-0.8 -1.7,-1.7 0,-0.9 0.8,-1.7 1.7,-1.7 0.9,0 1.7,0.8 1.7,1.7 0,0.9 -0.8,1.7 -1.7,1.7 m 4.7,3.8 c -0.9,0 -1.7,-0.8 -1.7,-1.7 0,-0.9 0.8,-1.7 1.7,-1.7 0.9,0 1.7,0.8 1.7,1.7 0,0.9 -0.8,1.7 -1.7,1.7 m 6.4,2.1 c 0,-0.9 -0.8,-1.7 -1.7,-1.7 -0.9,0 -1.7,0.8 -1.7,1.7 0,0.9 0.8,1.7 1.7,1.7 1,0 1.7,-0.8 1.7,-1.7"
       id="path76"
       inkscape:connector-curvature="0"
       style="fill:#424242" />
    <path
       d="m 463,60.5 c -1,-2.5 -2.6,-6.8 -3.9,-9 -1.9,-3.3 -3.5,-7.2 -5.4,-6.8 -1.1,0.2 -2.9,1 -4.7,2.2 0.4,0.8 3.6,7.6 6,12.1 2.3,4.3 7.3,9.8 8.3,10.8 0.9,-0.8 1.1,-1.5 1.2,-2.3 0.4,-1.5 -0.5,-4.6 -1.5,-7"
       id="path78"
       inkscape:connector-curvature="0"
       style="fill:#4b4c4c" />
    <path
       d="m 463.4,69.7 c -0.5,-1.7 -4,-7.8 -6.5,-12 -2,-3.3 -7.4,-10 -7.8,-10.8 -1.5,1 -3.1,2.2 -4.1,3.4 0.6,1.2 3.5,7.1 6.6,12 3.1,4.9 7,8.9 7.8,9.7 1.8,-0.8 2.1,-1 4,-2.3"
       id="path80"
       inkscape:connector-curvature="0"
       style="fill:#d5353c" />
    <path
       d="m 459.4,72.1 c -0.5,-1.4 -3.7,-5.6 -6.8,-10.5 -3.1,-4.9 -7.1,-10.1 -7.7,-11.3 -0.3,0.3 -0.5,0.6 -0.7,1 -1.6,2.6 -3.2,3.8 -2.5,4.7 1.3,1.6 6.8,7.1 12,15.2 1.1,1.7 2.1,1.8 3.4,1.7 1.2,-0.2 1.6,-0.6 2.3,-0.8"
       id="path82"
       inkscape:connector-curvature="0"
       style="fill:#b9353f" />
    <path
       d="m 444.8,252.8 v -8.6 c 0,-1.5 -1.2,-2.7 -2.7,-2.7 l -146.2,1 c -1.5,0 -1.7,0.2 -1.7,1.7 v 8.6 h 1 v -8.7 h 2 v 8.7 h 1 v -8.7 h 2 v 8.7 h 1.1 v -8.7 h 2 v 8.7 h 1 v -8.7 h 2 v 8.7 h 1 v -8.7 h 2 v 8.7 h 1 v -8.7 h 2 v 8.7 h 1.1 v -8.7 h 2 v 8.7 h 1 v -8.7 h 2 v 8.7 h 1.1 v -8.7 h 2 v 8.7 h 1 v -8.7 h 2 v 8.7 h 1.1 v -8.7 h 2 v 8.7 h 1 v -8.7 h 2 v 8.7 h 1 v -8.7 h 2 v 8.7 h 1 v -8.7 h 2 v 8.7 h 1 v -8.7 h 2 v 8.7 h 1 v -8.7 h 2 v 8.7 h 1.1 v -8.7 h 2 v 8.7 h 1 v -8.7 h 2 v 8.7 h 1.1 v -8.7 h 2 v 8.7 h 1 v -8.7 h 2 v 8.7 h 1 v -8.7 h 2 v 8.7 h 1 v -8.7 h 2 v 8.7 h 1.1 v -8.7 h 2 v 8.7 h 1 v -8.7 h 2 v 8.7 h 1.1 v -8.7 h 2 v 8.7 h 1 v -8.7 h 2 v 8.7 h 1.1 v -8.7 h 2 v 8.7 h 1 v -8.7 h 2 v 8.7 h 1 v -8.7 h 2 v 8.7 h 1 v -8.7 h 2 v 8.7 h 1.1 v -8.7 h 2 v 8.7 h 1 v -8.7 h 2 v 8.7 h 1.2 v -8.7 h 2 v 8.7 h 1 v -8.7 h 2 v 8.7 h 1 v -8.7 h 2 v 8.7 h 1 v -8.7 h 2 v 8.7 h 1 v -8.7 h 2 v 8.7 h 1.1 v -8.7 h 2 v 8.7 h 1 v -8.7 h 2 v 8.7 h 1.1 v -8.7 h 2 v 8.7 h 1 v -8.7 h 2 v 8.7 h 1.1 v -8.7 h 2 v 8.7 h 1 v -8.7 h 2 v 8.7 h 1 v -8.7 h 2 v 8.7 h 1 v -8.7 h 2 v 8.7 h 1.1 v -8.7 h 2 v 8.7 h 1 v -8.7 h 2 v 8.7 h 1.3 v -8.7 h 2 v 8.7 h 1.1 v -8.7 h 2 v 8.7 h 1 v -8.7 h 2 v 8.7 z"
       id="path84"
       inkscape:connector-curvature="0"
       style="fill:#40403f" />
    <path
       d="M 454.9,191.1 H 287.4 v 1 h 167.5 z"
       id="path86"
       inkscape:connector-curvature="0"
       style="fill:#606163" />
    <path
       d="m 370.2,163.1 v 0.9 h 3.2 c 0.6,0 1,-0.7 1,-1.3 0,-0.6 -0.5,-1.2 -1.2,-1.2 h -4.9 c -0.7,0 -1.2,0.5 -1.2,1.2 v 1.7 h 1.7 V 163 c 0,-0.6 0.1,-0.6 0.6,-0.6 h 2.8 c 0.2,0 0.4,0.1 0.3,0.3 0,0.1 -0.2,0.3 -0.3,0.3 h -1.6 z M 366,164 v -0.9 h -4 c -0.1,-0.5 0.1,-0.6 0.5,-0.7 h 3.9 v -1 h -4.8 c -0.9,0 -1.3,0.4 -1.3,1.3 v 1.6 h 1.7 c 0.1,-0.3 0.4,-0.4 0.7,-0.4 h 3 z m -6.8,0.7 H 350 v 1 h 8.3 c 0.6,0 0.9,-0.4 0.9,-1 m 21.1,-1.2 v 0.9 h 1.7 v -2.9 h -1.7 v 0.8 h -3 v 1.2 z m 13.7,-2 v 1 h 2.9 c 0.4,0 0.5,0.1 0.5,0.5 v 1.5 h 1.7 v -0.7 -1 c 0,-0.6 -0.4,-1.1 -1,-1.1 -1.3,-0.3 -2.7,-0.2 -4.1,-0.2 m -26.8,3.2 c -0.1,0.6 0.3,1 0.9,1 h 6.2 v -1 z m 31.9,0 H 392 v 0.9 h 6.2 c 0.6,0.1 1,-0.3 0.9,-0.9 m -23.9,0 c 0,0.6 0.3,1 0.9,1 h 5.1 c 0.5,0 0.9,-0.4 0.9,-1 z m -15,1 h 6 v -1 h -6 z m -2.7,-1.3 h 1.7 v -2.9 h -1.7 z m -7.5,0 h 1.7 v -2.9 H 350 Z m 25.2,0 h 1.7 v -2.9 h -1.7 z m -19.8,-2.9 h -1.7 v 2.9 h 1.7 z m 36.6,2.9 h 1.7 v -2.9 H 392 Z m 12.4,-1.6 h -1.1 v 2.9 h 1.1 z m 1.6,0 v 3 h 1.2 v 1.1 h -6.9 v -1.3 h 1.2 v -2.8 h -1.2 v -1.3 h 7.2 v 1.3 z m -14.9,2.1 v -0.1 h -5.9 v 0.1 c 0,0.4 0.4,0.8 0.8,0.8 h 4.2 c 0.5,0 0.9,-0.4 0.9,-0.8 m 0,-2.5 v -0.1 c 0,-0.4 -0.4,-0.8 -0.8,-0.8 h -4.2 c -0.5,0 -0.8,0.4 -0.8,0.8 v 2.1 h 1.3 v -1.7 c 0,-0.2 0.1,-0.3 0.3,-0.3 z"
       id="path88"
       inkscape:connector-curvature="0"
       style="fill:#ffffff" />
    <path
       d="m 361.7,206 v 2 l 0.1,0.1 c 2.4,0 4.8,0.1 7.2,0 1.3,-0.1 2.3,-1.6 2.3,-3.1 -0.1,-1.5 -1.3,-2.7 -2.7,-2.8 h -11.2 c -1.7,0 -2.7,1.1 -2.7,2.9 v 4 h 4 v -3.2 c 0,-1.3 0.1,-1.4 1.3,-1.4 h 6.5 c 0.5,0 0.9,0.3 0.7,0.8 -0.1,0.3 -0.5,0.6 -0.7,0.7 -1.2,0.1 -2.4,0 -3.7,0 z m -9.8,2.2 v -2.1 h -9.3 c -0.1,-1.1 0.1,-1.5 1.1,-1.5 h 8.8 v -2.2 c -0.3,0 -0.6,-0.1 -0.9,-0.1 h -10.2 c -2.1,0 -3,1 -3,3.1 v 3.7 h 3.9 c 0.2,-0.8 0.8,-0.9 1.5,-0.9 z m -15.8,1.6 h -21.4 v 2.3 c 0.3,0 0.5,0.1 0.7,0.1 h 18.5 c 1.4,0 2.3,-0.9 2.2,-2.4 m 49,-2.7 v 2 h 3.9 v -6.8 h -3.9 c 0,0.6 -0.1,1.2 -0.1,2 h -7 v 2.8 z m 31.8,-4.8 v 2.2 c 0.4,0 0.7,0.1 1,0.1 h 5.9 c 0.9,0 1.1,0.2 1.1,1.1 v 3.4 h 4 v -1.7 -2.4 c 0,-1.4 -0.9,-2.6 -2.2,-2.7 -3.3,-0.1 -6.5,0 -9.8,0 m -62.2,7.6 c -0.1,1.3 0.7,2.3 2.1,2.3 h 14.4 v -2.3 z m 74,0 h -16.4 c 0,0.3 0,0.6 -0.1,0.8 v 1.5 c 0.3,0 0.4,0.1 0.6,0.1 h 13.7 c 1.5,-0.1 2.3,-1 2.2,-2.4 m -55.4,0 c 0,1.4 0.8,2.3 2,2.3 H 387 c 1.2,0 2,-1 2,-2.3 z m -34.8,2.2 h 14 v -2.3 h -14 z m -6.3,-3 h 4 v -6.8 h -4 z m -17.5,0 h 3.9 v -6.8 h -3.9 z m 58.6,0 h 3.9 v -6.8 h -3.9 z m -45.9,-6.8 h -3.9 v 6.8 h 3.9 z m 84.9,6.8 h 3.9 v -6.8 h -3.9 z m -2.1,1.1 v -0.3 h -13.6 v 0.3 c 0,1 0.9,1.9 1.9,1.9 h 9.8 c 1,0 1.9,-0.8 1.9,-1.9 m 0,-5.6 v -0.3 c 0,-1 -0.9,-1.9 -1.9,-1.9 h -9.8 c -1,0 -1.9,0.8 -1.9,1.9 v 4.9 h 3 v -3.9 c 0,-0.4 0.3,-0.7 0.7,-0.7 z"
       id="path90"
       inkscape:connector-curvature="0"
       style="fill:#606163" />
    <path
       d="m 446.2,161.4 h -5.6 v 1.3 h 3.8 c -0.3,0.8 -0.5,1.5 -0.7,2.2 -0.6,1.7 -1.1,3.5 -1.7,5.2 -0.1,0.4 -0.5,0.9 -0.9,1 -0.6,0.1 -0.8,-0.5 -1,-1 -0.9,-2.6 -1.7,-5.3 -2.6,-7.9 -0.2,-0.6 -0.5,-0.8 -1.1,-0.8 h -5.2 c -1.7,0 -2.9,1.2 -2.9,3 v 4.9 c 0,1.8 1.1,3 2.9,3 h 4.7 v -1.4 h -4 c -1.9,0 -2.3,-0.5 -2.3,-2.4 v -3.7 c 0,-1.3 0.6,-2 1.8,-2 h 3.1 v 4.3 H 432 v 1.3 h 4 v -5.6 h 0.2 c 0.8,2.6 1.7,5.2 2.5,7.8 0.5,1.5 1.4,2.1 2.8,1.9 0.8,-0.1 1.4,-0.6 1.6,-1.4 1,-3.1 2,-6.2 3,-9.4 0.1,-0.2 0.1,-0.2 0.1,-0.3 M 411,161.3 v 1.4 h 4.4 c 1.2,0 2.1,0.9 2.2,2.1 0,1.1 -0.9,2.1 -2.1,2.2 H 414 c -0.8,0.1 -1.3,0.8 -1.3,1.6 0,0.8 0.5,1.6 1.3,1.6 h 4.9 v -1.4 h -4.7 v -0.5 c 0.5,0 0.9,0 1.4,-0.1 1.7,0 2.9,-1 3.3,-2.7 0.5,-2.1 -1,-4.2 -3,-4.3 -1.6,0.1 -3.2,0.1 -4.9,0.1"
       id="path92"
       inkscape:connector-curvature="0"
       style="fill:#f0f9fb" />
    <path
       d="m 411,163.2 v 1.4 h 4.7 v 0.4 c -0.5,0 -1,0 -1.5,0.1 -1.4,0 -2.4,0.7 -3,1.9 -0.6,1.3 -0.5,2.5 0.3,3.7 0.5,0.8 1.3,1.3 2.3,1.4 1.7,0.1 3.3,0 5.1,0 v -1.4 h -4.5 c -1.5,0 -2.4,-1.4 -2,-2.8 0.3,-0.8 1,-1.4 2,-1.5 h 1.4 c 0.7,-0.1 1.3,-0.8 1.3,-1.6 0,-0.8 -0.6,-1.6 -1.3,-1.6 H 411 m 16.6,8.9 v -1.3 h -4.4 c -1.5,0 -2.1,-0.5 -2.1,-2.1 v -3.9 c 0,-1.5 0.6,-2.1 2,-2.1 h 4.5 v -1.4 h -5.3 c -1.3,0.1 -2.4,1.3 -2.4,2.6 v 5.7 c 0,1.2 1,2.4 2.2,2.5 1.8,0.1 3.6,0 5.5,0 m 12.9,-7.3 h 1.1 c -0.2,0.5 -0.3,1 -0.5,1.5 h -0.2 c -0.1,-0.5 -0.2,-0.9 -0.4,-1.5 m -2.8,-3.4 c 1,2.9 1.9,5.8 2.8,8.7 0.1,0.2 0.3,0.4 0.5,0.5 0.1,0 0.4,-0.2 0.5,-0.4 0.8,-2.3 1.5,-4.6 2.3,-7 h -3.2 c 0,0.3 -0.1,0.6 -0.1,0.9 l -0.1,0.1 c -0.2,-0.5 -0.4,-1.1 -0.5,-1.6 -0.6,-1.4 -0.6,-1.4 -2.2,-1.2 m -4.8,3.5 c -0.4,0.1 -0.7,0.2 -0.9,0.3 v 1.2 h 2.1 v -3.2 c -1.1,0 -2.1,-0.1 -3.2,0 -0.3,0 -0.7,0.6 -0.7,0.9 -0.1,1.7 0,3.4 0,5.1 0,0.6 0.4,1 0.9,1 h 4.8 v -1.4 h -3.5 c -0.7,0 -1,-0.2 -0.9,-1 v -2.4 c 0,-0.8 0.4,-1.1 1.4,-0.5"
       id="path94"
       inkscape:connector-curvature="0"
       style="fill:#f0f9fb" />
    <path
       d="m 423.1,164.7 c 1.5,-0.3 3,0 4.5,-0.2 v -1.3 h -5.2 c -0.3,0 -0.7,0.6 -0.7,0.9 -0.1,0.7 0,1.4 0,2.2 h 4.9 V 165 h -3.4 c -0.1,0 -0.1,-0.2 -0.1,-0.3 m 4.5,5.5 V 169 c -1.5,-0.2 -3.1,0.1 -4.6,-0.2 v -0.4 h 3.4 v -1.3 h -4.8 c 0,0.8 -0.1,1.6 0,2.4 0,0.3 0.5,0.7 0.8,0.7 1.8,0.1 3.5,0 5.2,0 M 332.9,85.7 h 1.8 v 2 c 0,0.7 -0.5,1.2 -1.2,1.2 h -3.4 -0.1 c -0.6,-0.1 -1.1,-0.7 -1.1,-1.3 v -1.1 -5.7 c 0,-0.7 0.5,-1 1,-1 h 3.7 c 0.6,0.1 1,0.7 1,1.2 v 2 h -1.7 v -1.3 c 0,-0.2 -0.1,-0.5 -0.2,-0.7 -0.3,-0.4 -0.9,-0.6 -1.3,-0.5 -0.5,0.1 -0.9,0.6 -0.9,1.2 v 5.2 c 0,0.3 0.1,0.6 0.4,0.8 0.3,0.2 0.6,0.3 0.9,0.3 0.6,0 1.2,-0.5 1.1,-1.1 v -1.2 m -0.7,-1.8 h 3.2 v -0.1 -2.7 c 0,-0.8 -0.3,-1.4 -1,-1.8 -0.2,-0.2 -0.5,-0.2 -0.8,-0.2 h -3.9 c -0.8,0 -1.5,0.5 -1.6,1.2 v 7.4 c 0,0.5 0.2,1 0.5,1.3 0.2,0.3 0.5,0.5 0.9,0.5 h 4.2 c 0.3,0 0.6,-0.1 0.8,-0.3 0.4,-0.3 0.7,-0.6 0.8,-1.1 v -0.2 -2.4 c 0,-0.3 -0.2,-0.6 -0.5,-0.7 h -2.3 c -0.2,0 -0.4,0.2 -0.4,0.4 v 1.6 c -0.1,0.2 -0.3,0.4 -0.6,0.3 -0.2,0 -0.3,-0.2 -0.3,-0.4 v -0.1 -5 -0.2 c 0,-0.2 0.2,-0.3 0.4,-0.3 h 0.2 c 0.2,0 0.3,0.2 0.3,0.4 z m -11,-4.1 h 4.6 c 0.5,0 1,0.5 1,1 v 3.4 c -0.1,0.6 -0.4,1 -1.1,1 h -2.1 c -0.3,0 -0.5,0.1 -0.7,0.3 -0.3,0.3 -0.4,0.6 -0.3,1 0,0.3 0.1,0.5 0.4,0.7 0.2,0.2 0.4,0.2 0.7,0.2 h 3 v 1.5 h -4.5 c -0.5,-0.1 -0.8,-0.6 -0.8,-1.2 v -3.1 c 0,-0.3 0.1,-0.6 0.4,-0.8 0.2,-0.2 0.5,-0.2 0.8,-0.2 h 2.3 c 0.3,0 0.6,-0.2 0.7,-0.5 0.1,-0.2 0.1,-0.5 0.1,-0.7 0,-0.7 -0.6,-1.1 -1.1,-1.1 h -3.2 c -0.2,-0.1 -0.2,-1.5 -0.2,-1.5 z m 2.1,-0.8 h -2.6 -0.1 c -0.2,0 -0.3,0.1 -0.3,0.3 v 2.1 c 0,0.3 0.2,0.5 0.5,0.6 h 3.6 c 0.2,0 0.3,0.2 0.3,0.4 0,0.2 -0.1,0.3 -0.3,0.3 h -2.5 c -0.5,0 -0.9,0.2 -1.2,0.6 -0.2,0.3 -0.4,0.7 -0.4,1.1 v 3.3 c 0,0.4 0.1,0.8 0.4,1.1 0.3,0.4 0.6,0.7 1.1,0.8 h 5.1 c 0.2,0 0.4,-0.2 0.4,-0.4 v -2.1 c 0,-0.2 -0.1,-0.3 -0.3,-0.4 -0.1,0 -0.2,-0.1 -0.3,-0.1 h -3.1 c -0.3,0 -0.3,-0.1 -0.3,-0.3 0,-0.2 0.1,-0.2 0.2,-0.3 h 2.2 c 0.7,0 1.4,-0.5 1.7,-1.2 0,-0.1 0.1,-0.3 0.1,-0.5 v -3.7 c 0,-0.3 -0.1,-0.6 -0.2,-0.8 -0.2,-0.4 -0.5,-0.6 -0.9,-0.8 -0.1,0 -0.3,-0.1 -0.4,-0.1 -0.9,0.1 -1.8,0.1 -2.7,0.1 M 319,89 h -1.9 v -9.1 h 1.9 z m 0.8,-4.6 v -4.7 c 0,-0.1 0,-0.3 -0.1,-0.4 -0.1,-0.2 -0.2,-0.2 -0.4,-0.2 h -2.5 c -0.3,0 -0.5,0.2 -0.5,0.4 v 9.4 c 0,0.2 0.1,0.5 0.2,0.6 0.1,0.1 0.3,0.2 0.4,0.2 h 2.3 c 0.3,0 0.6,-0.2 0.6,-0.6 v -4.7 m -8.5,0 V 83 81.8 c 0,-0.2 0.1,-0.4 0.3,-0.4 0.3,-0.1 0.7,0.1 0.7,0.5 v 5.2 c 0,0.2 -0.2,0.4 -0.5,0.4 -0.3,0 -0.4,-0.1 -0.5,-0.4 v -0.2 -2.5 m -0.8,0 V 87 c 0,0.6 0.3,0.9 0.8,1.1 0.9,0.4 1.7,-0.3 1.8,-1 v -0.2 -5.1 c 0,-0.4 -0.1,-0.7 -0.4,-0.9 -0.3,-0.3 -0.6,-0.5 -1,-0.5 -0.3,0 -0.5,0.1 -0.8,0.2 -0.2,0.2 -0.4,0.4 -0.5,0.7 v 0.1 c 0.1,1.1 0.1,2.1 0.1,3"
       id="path96"
       inkscape:connector-curvature="0"
       style="fill:#f0f9fb" />
    <path
       d="M 314.8,79.9 V 92.7 H 313 v -0.1 -3 c 0,-0.1 0,-0.2 -0.1,-0.3 -0.1,-0.1 -0.3,-0.2 -0.5,-0.2 h -2.8 c -0.2,0 -0.3,0 -0.5,-0.1 -0.1,-0.1 -0.3,-0.2 -0.4,-0.3 -0.1,-0.1 -0.2,-0.2 -0.2,-0.4 V 81.1 81 c 0.1,-0.4 0.3,-0.6 0.6,-0.9 0.1,-0.1 0.2,-0.1 0.3,-0.1 h 5.4 z m -6.9,8.3 c 0,0.3 0.1,0.5 0.3,0.7 0.3,0.4 0.6,0.7 1.1,0.8 h 3 v 3.1 c 0,0.4 0.3,0.6 0.6,0.6 h 2.1 c 0.3,0 0.5,-0.1 0.6,-0.3 0,-0.1 0.1,-0.1 0.1,-0.2 V 79.7 c 0,-0.3 -0.2,-0.6 -0.5,-0.7 h -5.8 c -0.4,0 -0.8,0.2 -1.1,0.5 -0.3,0.3 -0.5,0.6 -0.6,1 z m 26,4.7 h -0.8 v 0.6 h 2.3 v -0.6 h -0.8 v -2.3 h -0.7 z m -1.9,0.6 c 0.1,0 0.2,0 0.3,-0.1 0.3,-0.1 0.4,-0.2 0.5,-0.5 v -0.7 h -0.7 v 0.4 c 0,0.1 0,0.2 -0.2,0.2 h -0.6 c -0.2,0 -0.2,-0.1 -0.2,-0.2 v -0.3 -1 c 0,-0.2 0,-0.2 0.2,-0.2 h 0.6 c 0.1,0 0.1,0 0.1,0.2 v 0.4 h 0.6 c 0,-0.3 0,-0.6 -0.1,-0.8 -0.1,-0.3 -0.3,-0.4 -0.5,-0.4 -0.4,-0.1 -0.7,-0.1 -1.1,0 -0.4,0.1 -0.6,0.3 -0.6,0.7 v 1.5 c 0,0.4 0.3,0.7 0.8,0.7 h 0.9 z m -2.7,-1.8 c -0.1,0.3 -0.2,0.5 -0.3,0.8 -0.1,-0.2 -0.2,-0.5 -0.3,-0.8 z m -1.7,-1.1 c 0.1,0.2 0.2,0.5 0.2,0.7 0.3,0.7 0.5,1.4 0.8,2.2 0,0.1 0.1,0.1 0.1,0.1 h 0.5 c 0,0 0.1,0 0.1,-0.1 0.3,-0.9 0.7,-1.9 1,-2.8 v -0.1 h -0.6 c -0.1,0 -0.1,0 -0.1,0.1 0,0.1 -0.1,0.3 -0.1,0.4 0,0 0,0.1 -0.1,0.1 h -0.9 c 0,0 -0.1,0 -0.1,-0.1 0,-0.1 -0.1,-0.3 -0.1,-0.4 0,0 0,-0.1 -0.1,-0.1 h -0.6 m -1.4,1.6 h 0.8 l 0.1,0.1 v 0.5 l -0.1,0.1 h -0.8 z m -0.6,1.3 h 1.7 c 0.3,-0.1 0.4,-0.2 0.5,-0.5 0.1,-0.3 0.1,-0.6 0,-0.8 -0.1,-0.3 -0.3,-0.5 -0.6,-0.6 h -0.8 v -1 h -0.7 c -0.1,0 -0.1,2.9 -0.1,2.9 z m -0.4,0 v -2.9 h -0.7 V 92 c -0.1,-0.1 -0.1,-0.2 -0.2,-0.4 -0.1,-0.3 -0.3,-0.7 -0.4,-1 0,-0.1 0,-0.1 -0.1,-0.1 h -0.4 c -0.1,0 -0.1,0 -0.1,0.1 -0.2,0.4 -0.3,0.9 -0.5,1.3 V 92 90.6 h -0.7 v 2.9 h 0.7 c 0.1,0 0.1,0 0.1,-0.1 0.2,-0.6 0.5,-1.2 0.7,-1.8 v -0.1 0.1 c 0.2,0.6 0.5,1.2 0.7,1.8 0,0.1 0,0.1 0.1,0.1 h 0.8 M 320,92 v -0.6 c 0,-0.1 0,-0.2 0.2,-0.2 h 0.7 c 0.2,0 0.2,0 0.2,0.2 v 1.3 c 0,0.1 -0.1,0.1 -0.1,0.1 h -0.8 c -0.1,0 -0.2,-0.1 -0.2,-0.2 V 92 m 0.9,1.5 c 0.1,0 0.2,0 0.4,-0.1 0.3,-0.1 0.6,-0.3 0.6,-0.7 v -1.5 c 0,-0.4 -0.3,-0.7 -0.7,-0.7 -0.3,0 -0.7,-0.1 -1,0 -0.4,0.1 -0.6,0.3 -0.6,0.7 v 1.4 c 0,0.5 0.3,0.7 0.8,0.8 h 0.5 z m -2.7,0 h 0.3 c 0.3,-0.1 0.5,-0.2 0.5,-0.5 v -0.6 h -0.6 v 0.5 c 0,0.1 0,0.1 -0.1,0.1 h -0.8 c -0.1,0 -0.1,-0.1 -0.1,-0.1 v -0.2 -1.1 c 0,-0.3 0,-0.3 0.3,-0.3 h 0.6 c 0.1,0 0.1,0 0.1,0.1 v 0.5 h 0.6 v -0.5 -0.3 c -0.1,-0.3 -0.2,-0.4 -0.5,-0.5 -0.4,-0.1 -0.8,-0.1 -1.2,0 -0.3,0.1 -0.5,0.3 -0.6,0.7 v 1.6 c 0,0.4 0.3,0.6 0.7,0.7 h 0.2 z"
       id="path98"
       inkscape:connector-curvature="0"
       style="fill:#f0f9fb" />
    <path
       d="m 447.2,207.2 c 0,-2.8 -2.2,-5 -5,-5 -2.8,0 -5,2.2 -5,5 0,2.8 2.2,5 5,5 2.8,0 5,-2.2 5,-5 m -140.9,0 c 0,-2.8 -2.2,-5 -5,-5 -2.8,0 -5,2.2 -5,5 0,2.8 2.2,5 5,5 2.8,0 5,-2.2 5,-5"
       id="path100"
       inkscape:connector-curvature="0"
       style="fill:#606163" />
    <path
       d="M 305.2,14.3 V 17 c 0,0.3 0.3,0.6 0.6,0.6 h 13.1 c 0.3,0 0.6,-0.3 0.6,-0.6 v -2.7 c 0,-0.3 -0.3,-0.6 -0.6,-0.6 h -13.1 c -0.4,0 -0.6,0.3 -0.6,0.6 z"
       id="path102"
       inkscape:connector-curvature="0"
       style="fill:#631418" />
    <path
       d="m 306.5,15 v 1.3 c 0,0.3 0.3,0.6 0.6,0.6 h 10.4 c 0.3,0 0.6,-0.3 0.6,-0.6 V 15 c 0,-0.3 -0.3,-0.6 -0.6,-0.6 h -10.4 c -0.3,0 -0.6,0.3 -0.6,0.6 z"
       id="path104"
       inkscape:connector-curvature="0"
       style="fill:#f95d5d" />
    <g
       id="g118">
      <path
         d="m 133.8,53.1 h 2 c 0.2,0 0.4,-0.2 0.4,-0.4 v -8.6 c 0,-0.2 -0.2,-0.4 -0.4,-0.4 h -2 c -0.2,0 -0.4,0.2 -0.4,0.4 v 8.6 c 0,0.2 0.2,0.4 0.4,0.4 z"
         id="path106"
         inkscape:connector-curvature="0"
         style="fill:#631418" />
      <path
         d="m 134.3,52.2 h 1 c 0.2,0 0.4,-0.2 0.4,-0.4 V 45 c 0,-0.2 -0.2,-0.4 -0.4,-0.4 h -1 c -0.2,0 -0.4,0.2 -0.4,0.4 v 6.8 c 0,0.2 0.2,0.4 0.4,0.4 z"
         id="path108"
         inkscape:connector-curvature="0"
         style="fill:#f95d5d" />
      <path
         d="m 129.7,53.1 h 2 c 0.2,0 0.4,-0.2 0.4,-0.4 v -8.6 c 0,-0.2 -0.2,-0.4 -0.4,-0.4 h -2 c -0.2,0 -0.4,0.2 -0.4,0.4 v 8.6 c 0,0.2 0.2,0.4 0.4,0.4 z"
         id="path110"
         inkscape:connector-curvature="0"
         style="fill:#631418" />
      <path
         d="m 130.2,52.2 h 1 c 0.2,0 0.4,-0.2 0.4,-0.4 V 45 c 0,-0.2 -0.2,-0.4 -0.4,-0.4 h -1 c -0.2,0 -0.4,0.2 -0.4,0.4 v 6.8 c 0,0.2 0.2,0.4 0.4,0.4 z"
         id="path112"
         inkscape:connector-curvature="0"
         style="fill:#f95d5d" />
      <path
         d="m 125.6,53.1 h 2 c 0.2,0 0.4,-0.2 0.4,-0.4 v -8.6 c 0,-0.2 -0.2,-0.4 -0.4,-0.4 h -2 c -0.2,0 -0.4,0.2 -0.4,0.4 v 8.6 c -0.1,0.2 0.1,0.4 0.4,0.4 z"
         id="path114"
         inkscape:connector-curvature="0"
         style="fill:#631418" />
      <path
         d="m 126.1,52.2 h 1 c 0.2,0 0.4,-0.2 0.4,-0.4 V 45 c 0,-0.2 -0.2,-0.4 -0.4,-0.4 h -1 c -0.2,0 -0.4,0.2 -0.4,0.4 v 6.8 c 0,0.2 0.1,0.4 0.4,0.4 z"
         id="path116"
         inkscape:connector-curvature="0"
         style="fill:#f95d5d" />
    </g>
  </g>
  <g
     id="g148"
     transform="translate(0,-47.834868)">
    <path
       d="m 500,126.1 c 0,-35.5 -28.7,-64.2 -64.2,-64.2 -35.5,0 -64.2,28.7 -64.2,64.2 0,35.5 28.7,64.2 64.2,64.2 35.5,0 64.2,-28.8 64.2,-64.2 m -64.2,9.4 c -5.2,0 -9.4,-4.2 -9.4,-9.4 0,-5.2 4.2,-9.4 9.4,-9.4 5.2,0 9.4,4.2 9.4,9.4 0,5.1 -4.2,9.4 -9.4,9.4 z"
       id="path122"
       inkscape:connector-curvature="0"
       style="fill:#231f20" />
    <path
       d="M 371.6,61.8 H 500 V 190.2 H 371.6 Z"
       id="path124"
       inkscape:connector-curvature="0"
       style="fill:none" />
    <path
       d="m 483.7,162.8 c -11,14.4 -28.4,23.7 -47.9,23.7 -19.5,0 -36.9,-9.3 -47.9,-23.7 -7.8,-10.2 -12.5,-22.9 -12.5,-36.7 0,-33.4 27,-60.4 60.4,-60.4 33.4,0 60.4,27 60.4,60.4 0,13.8 -4.7,26.5 -12.5,36.7 z M 435.8,62.9 c -34.9,0 -63.2,28.3 -63.2,63.2 0,34.9 28.3,63.2 63.2,63.2 34.9,0 63.2,-28.3 63.2,-63.2 0,-34.9 -28.3,-63.2 -63.2,-63.2"
       id="path126"
       inkscape:connector-curvature="0"
       style="fill:#ffffff" />
    <path
       d="m 483.7,162.8 c -11,14.4 -28.4,23.7 -47.9,23.7 -19.5,0 -36.9,-9.3 -47.9,-23.7 h 32.4 l 4.3,-6.5 h 20.6 l 4.3,6.5 z"
       id="path128"
       inkscape:connector-curvature="0"
       style="fill:#231f20" />
    <path
       d="m 435.8,145.5 c -10.7,0 -19.4,-8.7 -19.4,-19.4 0,-10.7 8.7,-19.4 19.4,-19.4 10.7,0 19.4,8.7 19.4,19.4 0,10.7 -8.7,19.4 -19.4,19.4 m 0,-79.8 c -33.3,0 -60.4,27 -60.4,60.4 0,13.8 4.6,26.6 12.5,36.7 h 32.4 l 4.3,-6.5 h 20.6 l 4.3,6.5 h 34.3 c 7.8,-10.2 12.5,-22.9 12.5,-36.7 -0.1,-33.4 -27.2,-60.4 -60.5,-60.4"
       id="path130"
       inkscape:connector-curvature="0"
       style="fill:#918f90" />
    <path
       d="m 435.8,144.1 c -9.9,0 -18,-8.1 -18,-18 0,-9.9 8.1,-18 18,-18 9.9,0 18,8.1 18,18 0,9.9 -8.1,18 -18,18 m 0,-37.5 c -10.7,0 -19.4,8.7 -19.4,19.4 0,10.7 8.7,19.4 19.4,19.4 10.7,0 19.4,-8.7 19.4,-19.4 0,-10.7 -8.7,-19.4 -19.4,-19.4"
       id="path132"
       inkscape:connector-curvature="0"
       style="fill:#bdbcbc" />
    <path
       d="m 435.8,142.9 c -9.3,0 -16.8,-7.6 -16.8,-16.9 0,-9.3 7.5,-16.8 16.8,-16.8 9.3,0 16.9,7.5 16.9,16.8 -0.1,9.3 -7.6,16.9 -16.9,16.9 m 0,-34.9 c -9.9,0 -18,8.1 -18,18 0,9.9 8.1,18 18,18 9.9,0 18,-8.1 18,-18 0,-9.9 -8.1,-18 -18,-18"
       id="path134"
       inkscape:connector-curvature="0"
       style="fill:#918f90" />
    <path
       d="m 435.8,134.9 c -5.2,0 -9.4,-4.2 -9.4,-9.4 0,-5.2 4.2,-9.4 9.4,-9.4 5.2,0 9.4,4.2 9.4,9.4 0,5.2 -4.2,9.4 -9.4,9.4 m 0,-25.7 c -9.3,0 -16.8,7.5 -16.8,16.8 0,9.3 7.5,16.9 16.8,16.9 9.3,0 16.9,-7.6 16.9,-16.9 0,-9.3 -7.6,-16.8 -16.9,-16.8"
       id="path136"
       inkscape:connector-curvature="0"
       style="fill:#4f4c4d" />
    <path
       stroke-miterlimit="10"
       d="m 435.8,134.9 c -5.2,0 -9.4,-4.2 -9.4,-9.4 0,-5.2 4.2,-9.4 9.4,-9.4 5.2,0 9.4,4.2 9.4,9.4 0,5.2 -4.2,9.4 -9.4,9.4 z m 0,-25.7 c -9.3,0 -16.8,7.5 -16.8,16.8 0,9.3 7.5,16.9 16.8,16.9 9.3,0 16.9,-7.6 16.9,-16.9 0,-9.3 -7.6,-16.8 -16.9,-16.8 z"
       id="path138"
       inkscape:connector-curvature="0"
       style="fill:none;stroke:#353132;stroke-width:1.26900005;stroke-miterlimit:10" />
    <path
       d="M 429.6,170.1 V 169 l 0.1,-0.1 h 4.4 c 0.8,0 1.4,0.9 1.4,1.8 -0.1,0.9 -0.8,1.6 -1.6,1.6 h -6.8 c -1,0 -1.7,-0.6 -1.7,-1.7 v -2.3 h 2.4 v 1.8 c 0,0.8 0.1,0.8 0.8,0.8 h 4 c 0.3,0 0.5,-0.2 0.4,-0.5 0,-0.2 -0.3,-0.4 -0.5,-0.4 h -2.9 z m -5.9,-1.2 v 1.2 H 418 c -0.1,0.7 0.1,0.9 0.7,0.9 h 5.4 v 1.3 h -6.7 c -1.2,0 -1.8,-0.6 -1.8,-1.8 v -2.1 h 2.4 c 0.1,0.5 0.5,0.5 0.9,0.5 h 4.2 z m -9.6,-1 h -13 v -1.3 h 11.6 c 0.9,0 1.5,0.5 1.4,1.3 m 29.8,1.6 v -1.2 h 2.4 v 3.9 h -2.4 c 0,-0.4 0,-0.7 -0.1,-1.1 h -4.3 v -1.6 z m 19.2,2.8 V 171 h 4.2 c 0.6,0 0.7,-0.1 0.7,-0.7 v -1.9 h 2.4 v 2.4 c 0,0.8 -0.5,1.5 -1.4,1.5 h -5.9 m -37.7,-4.4 c -0.1,-0.8 0.4,-1.3 1.3,-1.3 h 8.8 v 1.4 h -10.1 z m 45,0 h -10 v -0.5 -0.8 c 0.2,0 0.3,-0.1 0.4,-0.1 h 8.3 c 0.8,0.1 1.3,0.6 1.3,1.4 m -33.7,0 c 0,-0.8 0.5,-1.3 1.2,-1.3 h 7.1 c 0.7,0 1.2,0.6 1.2,1.3 z m -21.2,-1.3 h 8.5 v 1.3 h -8.5 z m -3.8,1.8 h 2.4 v 3.9 h -2.4 z m -10.6,-0.1 h 2.4 v 3.9 h -2.4 z m 35.6,0.1 h 2.4 v 3.9 h -2.4 z m -27.9,3.9 h -2.3 v -3.9 h 2.3 z m 51.6,-4 h 2.4 v 3.9 h -2.4 z m -1.3,-0.6 v 0.2 h -8.2 v -0.2 c 0,-0.6 0.5,-1.1 1.2,-1.1 h 5.9 c 0.6,0 1.1,0.5 1.1,1.1 m 0,3.3 v 0.2 c 0,0.6 -0.5,1.1 -1.2,1.1 H 452 c -0.6,0 -1.2,-0.5 -1.2,-1.1 v -2.8 h 1.8 v 2.2 c 0,0.2 0.2,0.4 0.4,0.4 z m -11.8,-6.1 v 0.1 l -0.1,0.2 -0.2,0.1 h -4 v -0.8 c -0.2,0.6 -0.4,0.9 -0.9,0.9 -0.2,0 -0.4,0 -0.6,-0.1 h -0.3 c -0.1,0.1 -0.2,0.1 -0.4,0.1 h -3.4 c -1,0 -1.8,-0.6 -2.1,-1.5 v 1.5 h -3.8 c -1,-0.1 -1.8,-1 -1.8,-1.9 v -0.1 c -0.1,0.4 -0.2,0.8 -0.5,1.1 -0.4,0.6 -1.1,0.9 -1.8,1 h -3.5 v -2.7 h 1.2 c -0.4,-0.2 -0.8,-0.6 -1,-1.1 -0.4,-0.9 -0.4,-1.8 0.2,-2.7 0.4,-0.6 1,-1 1.7,-1 h 3.6 v 1.9 c 0,-0.9 0.8,-1.9 1.7,-1.9 h 4 v 1.4 c 0.3,-0.9 1,-1.4 2,-1.4 h 3.4 v 5 l 1.2,-3.7 c 0.3,-1 0.9,-1.4 1.7,-1.4 h 0.4 c 0.6,0.1 1.1,0.5 1.3,1.1 0.5,1.6 1,3.2 1.5,4.7 z"
       id="path140"
       inkscape:connector-curvature="0"
       style="fill:#ffffff" />
    <path
       d="m 447,165 h -3.6 v -0.9 h 2.5 c -0.2,-0.5 -0.3,-1 -0.5,-1.4 -0.4,-1.1 -0.7,-2.2 -1.1,-3.3 -0.1,-0.3 -0.4,-0.6 -0.6,-0.7 -0.4,-0.1 -0.5,0.3 -0.6,0.7 -0.6,1.7 -1.1,3.4 -1.7,5.1 -0.1,0.4 -0.3,0.5 -0.7,0.5 h -3.4 c -1.1,0 -1.9,-0.8 -1.9,-1.9 v -3.2 c 0,-1.2 0.7,-1.9 1.9,-1.9 h 3.1 v 0.9 h -2.6 c -1.2,0 -1.5,0.3 -1.5,1.6 v 2.4 c 0,0.9 0.4,1.3 1.2,1.3 h 2 v -2.8 h -1.7 v -0.9 h 2.6 v 3.7 h 0.1 c 0.5,-1.7 1.1,-3.4 1.6,-5 0.3,-1 0.9,-1.4 1.8,-1.2 0.5,0.1 0.9,0.4 1.1,0.9 0.7,2 1.3,4 2,6.1 0,-0.1 0,0 0,0 m -22.8,0.1 v -0.9 h 2.9 c 0.8,0 1.4,-0.6 1.4,-1.3 0,-0.7 -0.6,-1.4 -1.3,-1.4 h -1 c -0.5,-0.1 -0.8,-0.5 -0.8,-1 0,-0.5 0.4,-1 0.8,-1 h 3.2 v 0.9 h -3.1 v 0.3 h 0.9 c 1.1,0 1.9,0.7 2.2,1.8 0.3,1.3 -0.6,2.7 -1.9,2.8 -1.2,-0.2 -2.2,-0.2 -3.3,-0.2"
       id="path142"
       inkscape:connector-curvature="0"
       style="fill:#231f20" />
    <path
       d="m 424.1,163.8 v -0.9 h 3.1 v -0.3 h -0.9 c -0.9,0 -1.5,-0.4 -1.9,-1.2 -0.4,-0.8 -0.3,-1.7 0.2,-2.4 0.4,-0.5 0.8,-0.9 1.5,-0.9 h 3.3 v 0.9 h -2.9 c -1,0 -1.6,0.9 -1.3,1.8 0.2,0.5 0.7,0.9 1.3,0.9 h 0.9 c 0.5,0 0.9,0.5 0.9,1 0,0.5 -0.4,1 -0.8,1 -1.2,0.1 -2.3,0.1 -3.4,0.1 m 10.8,-5.7 V 159 H 432 c -1,0 -1.3,0.4 -1.4,1.4 v 2.5 c 0,1 0.4,1.3 1.3,1.4 h 2.9 v 0.9 h -3.4 c -0.8,-0.1 -1.6,-0.8 -1.6,-1.7 v -3.7 c 0,-0.8 0.7,-1.6 1.4,-1.6 1.3,-0.2 2.5,-0.1 3.7,-0.1 m 8.4,4.7 h 0.7 c -0.1,-0.4 -0.2,-0.7 -0.3,-1 h -0.1 c -0.1,0.4 -0.2,0.6 -0.3,1 m -1.8,2.2 c 0.6,-1.9 1.2,-3.8 1.8,-5.6 0,-0.1 0.2,-0.3 0.3,-0.3 0.1,0 0.3,0.1 0.3,0.2 l 1.5,4.5 h -2.1 c 0,-0.2 0,-0.4 -0.1,-0.6 h -0.1 c -0.1,0.3 -0.2,0.7 -0.4,1 -0.2,0.9 -0.2,0.9 -1.2,0.8 m -3.1,-2.3 c -0.3,-0.1 -0.4,-0.1 -0.6,-0.2 v -0.8 h 1.4 v 2.1 h -2.1 c -0.2,0 -0.5,-0.4 -0.5,-0.6 v -3.3 c 0,-0.4 0.2,-0.6 0.6,-0.6 h 3.1 v 0.9 H 438 c -0.5,0 -0.6,0.2 -0.6,0.6 v 1.6 c 0,0.6 0.3,0.7 1,0.3"
       id="path144"
       inkscape:connector-curvature="0"
       style="fill:#231f20" />
    <path
       d="m 432,162.9 c 1,0.2 1.9,0 2.9,0.1 v 0.8 h -3.3 c -0.2,0 -0.4,-0.4 -0.5,-0.6 -0.1,-0.4 0,-0.9 0,-1.4 h 3.1 v 0.8 H 432 v 0.3 m 2.9,-3.6 v 0.8 c -1,0.1 -2,-0.1 -3,0.1 v 0.2 h 2.2 v 0.9 H 431 v -1.6 c 0,-0.2 0.3,-0.5 0.5,-0.5 1.2,0.1 2.3,0.1 3.4,0.1"
       id="path146"
       inkscape:connector-curvature="0"
       style="fill:#231f20" />
  </g>
</svg>
