<?xml version="1.0" encoding="UTF-8" standalone="no"?>
<svg
   xmlns:dc="http://purl.org/dc/elements/1.1/"
   xmlns:cc="http://creativecommons.org/ns#"
   xmlns:rdf="http://www.w3.org/1999/02/22-rdf-syntax-ns#"
   xmlns:svg="http://www.w3.org/2000/svg"
   xmlns="http://www.w3.org/2000/svg"
   xmlns:sodipodi="http://sodipodi.sourceforge.net/DTD/sodipodi-0.dtd"
   xmlns:inkscape="http://www.inkscape.org/namespaces/inkscape"
   viewBox="0 0 200 200"
   version="1.1"
   id="svg28"
   sodipodi:docname="game.svg"
   width="200"
   height="200"
   inkscape:version="0.92.4 5da689c313, 2019-01-14">
  <metadata
     id="metadata34">
    <rdf:RDF>
      <cc:Work
         rdf:about="">
        <dc:format>image/svg+xml</dc:format>
        <dc:type
           rdf:resource="http://purl.org/dc/dcmitype/StillImage" />
      </cc:Work>
    </rdf:RDF>
  </metadata>
  <defs
     id="defs32" />
  <sodipodi:namedview
     pagecolor="#ffffff"
     bordercolor="#666666"
     borderopacity="1"
     objecttolerance="10"
     gridtolerance="10"
     guidetolerance="10"
     inkscape:pageopacity="0"
     inkscape:pageshadow="2"
     inkscape:window-width="640"
     inkscape:window-height="480"
     id="namedview30"
     showgrid="false"
     inkscape:zoom="1.18"
     inkscape:cx="100"
     inkscape:cy="100"
     inkscape:window-x="0"
     inkscape:window-y="0"
     inkscape:window-maximized="0"
     inkscape:current-layer="svg28">
    <inkscape:grid
       type="xygrid"
       id="grid841"
       originx="0"
       originy="0" />
  </sodipodi:namedview>
  <path
     d="M 200,100 C 200,44.8 155.2,0 100,0 44.8,0 0,44.8 0,100 c 0,55.2 44.8,100 100,100 55.2,0 100,-44.8 100,-100 m -100,14.6 c -8.1,0 -14.6,-6.6 -14.6,-14.6 0,-8 6.6,-14.7 14.6,-14.7 8,0 14.7,6.6 14.7,14.7 0,8.1 -6.6,14.6 -14.7,14.6 z"
     id="path2"
     inkscape:connector-curvature="0"
     style="fill:#231f20" />
  <path
     d="M 0,0 H 200 V 200 H 0 Z"
     id="path4"
     inkscape:connector-curvature="0"
     style="fill:none" />
  <path
     d="M 174.6,157.2 C 157.5,179.6 130.4,194 100,194 69.6,194 42.6,179.6 25.4,157.2 13.2,141.4 6,121.5 6,100 6,48 48.1,6 100,6 c 51.9,0 94,42 94,94 0,21.5 -7.2,41.4 -19.4,57.2 z M 100,1.6 c -54.3,0 -98.4,44 -98.4,98.4 0,54.4 44,98.4 98.4,98.4 54.3,0 98.4,-44 98.4,-98.4 C 198.4,45.6 154.3,1.6 100,1.6"
     id="path6"
     inkscape:connector-curvature="0"
     style="fill:#ffffff" />
  <path
     d="M 174.6,157.2 C 157.5,179.6 130.4,194 100,194 69.6,194 42.6,179.6 25.4,157.2 h 50.4 l 6.8,-10 h 32.2 l 6.6,10 z"
     id="path8"
     inkscape:connector-curvature="0"
     style="fill:#231f20" />
  <path
     d="m 100,130.3 c -16.7,0 -30.2,-13.6 -30.2,-30.3 0,-16.7 13.5,-30.3 30.2,-30.3 16.7,0 30.3,13.6 30.3,30.3 0,16.7 -13.6,30.3 -30.3,30.3 M 100,6 C 48.1,6 6,48 6,100 c 0,21.5 7.2,41.4 19.4,57.2 h 50.4 l 6.8,-10 h 32.2 l 6.6,10 h 53.4 C 187,141.4 194.2,121.5 194.2,100 194,48 151.9,6 100,6"
     id="path10"
     inkscape:connector-curvature="0"
     style="fill:#918f90" />
  <path
     d="m 100,128 c -15.5,0 -28,-12.6 -28,-28 0,-15.4 12.6,-28 28,-28 15.4,0 28.1,12.5 28.1,28 0,15.5 -12.6,28 -28.1,28 m 0,-58.3 c -16.7,0 -30.2,13.6 -30.2,30.3 0,16.7 13.5,30.3 30.2,30.3 16.7,0 30.3,-13.6 30.3,-30.3 0,-16.7 -13.6,-30.3 -30.3,-30.3"
     id="path12"
     inkscape:connector-curvature="0"
     style="fill:#bdbcbc" />
  <path
     d="m 100,126.2 c -14.5,0 -26.2,-11.8 -26.2,-26.2 0,-14.5 11.7,-26.2 26.2,-26.2 14.5,0 26.2,11.7 26.2,26.2 0,14.5 -11.7,26.2 -26.2,26.2 m 0,-54.3 c -15.5,0 -28,12.6 -28,28 0,15.4 12.6,28 28,28 15.4,0 28.1,-12.5 28.1,-28 0,-15.5 -12.6,-28 -28.1,-28"
     id="path14"
     inkscape:connector-curvature="0"
     style="fill:#918f90" />
  <path
     d="m 100,113.8 c -8.1,0 -14.6,-6.6 -14.6,-14.6 0,-8 6.6,-14.7 14.6,-14.7 8,0 14.7,6.6 14.7,14.7 0,8.1 -6.6,14.6 -14.7,14.6 m 0,-40 c -14.5,0 -26.2,11.7 -26.2,26.2 0,14.5 11.7,26.3 26.2,26.3 14.5,0 26.2,-11.8 26.2,-26.3 0,-14.5 -11.7,-26.2 -26.2,-26.2"
     id="path16"
     inkscape:connector-curvature="0"
     style="fill:#4f4c4d" />
  <path
     stroke-miterlimit="10"
     d="m 100,113.8 c -8.1,0 -14.6,-6.6 -14.6,-14.6 0,-8 6.6,-14.7 14.6,-14.7 8,0 14.7,6.6 14.7,14.7 0,8.1 -6.6,14.6 -14.7,14.6 z m 0,-40 c -14.5,0 -26.2,11.7 -26.2,26.2 0,14.5 11.7,26.3 26.2,26.3 14.5,0 26.2,-11.8 26.2,-26.3 0,-14.5 -11.7,-26.2 -26.2,-26.2 z"
     id="path18"
     inkscape:connector-curvature="0"
     style="fill:none;stroke:#353132;stroke-width:1.977;stroke-miterlimit:10" />
  <path
     d="m 90.4,168.6 v -1.8 l 0.1,-0.1 c 2.3,0 4.6,-0.1 6.8,0 1.2,0.1 2.2,1.5 2.1,2.8 -0.1,1.4 -1.2,2.5 -2.6,2.5 H 86.2 c -1.6,0 -2.6,-1 -2.6,-2.6 v -3.6 h 3.8 v 2.8 c 0,1.2 0.1,1.3 1.3,1.3 h 6.2 c 0.4,0 0.8,-0.2 0.7,-0.7 -0.1,-0.3 -0.4,-0.6 -0.7,-0.6 -1.2,-0.1 -2.3,0 -3.5,0 z m -9.3,-1.9 v 1.9 h -8.8 c -0.1,1 0.1,1.4 1,1.4 h 8.4 v 2 H 71.3 c -1.9,0 -2.8,-0.9 -2.8,-2.8 v -3.3 h 3.7 c 0.2,0.7 0.8,0.8 1.4,0.8 z M 66.3,165.2 H 46 v -2.1 c 0.2,0 0.4,-0.1 0.6,-0.1 h 17.5 c 1.4,0.1 2.2,0.9 2.2,2.2 m 46.3,2.5 v -1.8 h 3.7 v 6.1 h -3.7 c 0,-0.6 0,-1.1 -0.1,-1.8 h -6.7 v -2.5 z m 30,4.3 v -2 h 6.5 c 0.9,0 1.1,-0.2 1.1,-1 v -3 h 3.8 v 3.7 c 0,1.3 -0.8,2.4 -2.1,2.4 -3.1,-0.1 -6.2,-0.1 -9.3,-0.1 m -58.8,-6.8 c -0.1,-1.2 0.7,-2.1 2,-2.1 h 13.7 v 2.1 z m 70,0 h -15.5 v -0.7 -1.3 c 0.3,0 0.4,-0.1 0.6,-0.1 h 12.9 c 1.3,0 2.1,0.8 2,2.1 m -52.4,0 c 0,-1.3 0.7,-2.1 1.9,-2.1 h 11.1 c 1.2,0 1.9,0.9 1.9,2.1 z m -32.9,-2.1 h 13.3 v 2.1 H 68.5 Z m -6,2.8 h 3.8 v 6.1 h -3.8 z m -16.5,0 h 3.7 V 172 H 46 Z m 55.4,0 h 3.7 v 6.1 h -3.7 z M 58,172 h -3.6 v -6.1 H 58 Z m 80.3,-6.1 h 3.7 v 6.1 h -3.7 z m -2,-1 v 0.3 h -12.8 v -0.3 c 0,-0.9 0.8,-1.7 1.8,-1.7 h 9.3 c 0.9,-0.1 1.7,0.7 1.7,1.7 m 0,5 v 0.3 c 0,0.9 -0.8,1.7 -1.8,1.7 h -9.3 c -1,0 -1.8,-0.8 -1.8,-1.7 v -4.4 h 2.8 v 3.5 c 0,0.4 0.3,0.6 0.7,0.6 z m -18.4,-9.4 v 0.2 l -0.1,0.3 -0.4,0.1 h -6.1 v -1.3 c -0.3,0.9 -0.6,1.4 -1.4,1.4 -0.3,0 -0.6,0 -1,-0.1 l -0.5,-0.1 c -0.2,0.1 -0.4,0.2 -0.6,0.2 h -5.3 c -1.6,0 -2.8,-0.9 -3.2,-2.3 v 2.3 h -5.9 c -1.5,-0.1 -2.8,-1.5 -2.9,-3 V 158 c -0.1,0.6 -0.4,1.2 -0.7,1.7 -0.7,0.9 -1.7,1.4 -2.7,1.5 h -5.5 v -4.3 h 1.9 c -0.6,-0.4 -1.2,-0.9 -1.6,-1.7 -0.7,-1.4 -0.6,-2.9 0.3,-4.2 0.7,-1 1.6,-1.5 2.6,-1.6 h 5.6 v 3 c 0,-1.5 1.3,-2.9 2.7,-3 0.8,0 1.5,-0.1 2.3,-0.1 h 3.8 v 2.2 c 0.4,-1.4 1.6,-2.2 3.2,-2.2 h 5.2 v 7.9 l 1.9,-5.8 c 0.5,-1.5 1.4,-2.3 2.7,-2.3 h 0.6 c 1,0.2 1.7,0.8 2,1.7 0.8,2.5 1.6,4.9 2.4,7.4 z"
     id="path20"
     inkscape:connector-curvature="0"
     style="fill:#ffffff" />
  <path
     d="m 117.4,160.7 h -5.7 v -1.3 h 3.9 c -0.3,-0.9 -0.5,-1.5 -0.7,-2.2 -0.6,-1.7 -1.1,-3.5 -1.7,-5.2 -0.1,-0.4 -0.6,-0.9 -0.9,-1 -0.6,-0.1 -0.8,0.5 -1,1 -0.9,2.7 -1.7,5.3 -2.6,8 -0.2,0.6 -0.5,0.8 -1.1,0.8 h -5.2 c -1.8,0 -2.9,-1.2 -3,-3 v -4.9 c 0,-1.9 1.2,-3 2.9,-3 h 4.8 v 1.4 h -4 c -1.9,0 -2.3,0.5 -2.3,2.4 v 3.7 c 0,1.3 0.6,2 1.9,2 h 3.1 V 155 h -2.6 v -1.3 h 4 v 5.7 h 0.2 c 0.9,-2.6 1.7,-5.2 2.6,-7.9 0.5,-1.5 1.4,-2.1 2.8,-1.9 0.8,0.1 1.4,0.6 1.7,1.4 1,3.1 2.1,6.3 3.1,9.5 -0.1,0.1 -0.2,0.1 -0.2,0.2 m -35.5,0 v -1.4 h 4.5 c 1.2,0 2.2,-0.9 2.2,-2.1 0,-1.2 -0.9,-2.1 -2.1,-2.2 H 85 c -0.8,-0.1 -1.3,-0.8 -1.3,-1.6 0,-0.8 0.5,-1.6 1.3,-1.6 h 4.9 v 1.4 h -4.8 v 0.5 c 0.5,0 0.9,0 1.4,0.1 1.7,0 3,1 3.4,2.7 0.5,2.1 -1,4.3 -3,4.4 -1.7,-0.1 -3.3,-0.2 -5,-0.2"
     id="path22"
     inkscape:connector-curvature="0"
     style="fill:#231f20" />
  <path
     d="m 81.9,158.8 v -1.4 h 4.8 V 157 c -0.5,0 -1,0 -1.5,-0.1 -1.4,0 -2.4,-0.7 -3,-1.9 -0.6,-1.3 -0.5,-2.6 0.3,-3.8 0.6,-0.8 1.3,-1.4 2.3,-1.4 1.7,-0.1 3.4,0 5.1,0 v 1.4 h -4.5 c -1.5,0 -2.5,1.4 -2,2.8 0.3,0.8 1,1.4 2,1.5 h 1.4 c 0.8,0.1 1.3,0.8 1.3,1.6 0,0.8 -0.6,1.6 -1.3,1.6 -1.6,0.1 -3.2,0.1 -4.9,0.1 m 16.8,-8.9 v 1.3 h -4.5 c -1.6,0 -2.1,0.6 -2.1,2.2 v 3.9 c 0,1.5 0.6,2.1 2,2.1 h 4.5 v 1.4 h -5.4 c -1.3,-0.1 -2.4,-1.3 -2.5,-2.6 v -5.7 c 0,-1.2 1.1,-2.5 2.2,-2.5 2,-0.2 3.9,-0.1 5.8,-0.1 m 13,7.3 h 1.1 c -0.2,-0.5 -0.3,-1 -0.5,-1.5 h -0.2 c -0.1,0.5 -0.3,1 -0.4,1.5 m -2.8,3.5 c 1,-3 1.9,-5.9 2.9,-8.8 0.1,-0.2 0.3,-0.4 0.5,-0.5 0.1,0 0.4,0.2 0.5,0.4 0.8,2.3 1.5,4.7 2.3,7.1 h -3.2 c 0,-0.3 -0.1,-0.7 -0.1,-1 h -0.1 c -0.2,0.5 -0.4,1.1 -0.6,1.6 -0.6,1.4 -0.6,1.4 -2.2,1.2 m -4.8,-3.6 c -0.4,-0.1 -0.7,-0.2 -1,-0.3 v -1.2 h 2.1 v 3.2 c -1.1,0 -2.1,0.1 -3.2,0 -0.3,0 -0.7,-0.6 -0.7,-0.9 -0.1,-1.7 0,-3.5 0,-5.2 0,-0.6 0.4,-1 0.9,-1 h 4.9 v 1.4 h -3.6 c -0.7,0 -1,0.2 -1,1 v 2.4 c 0.1,1 0.5,1.2 1.6,0.6"
     id="path24"
     inkscape:connector-curvature="0"
     style="fill:#231f20" />
  <path
     d="m 94.1,157.3 c 1.5,0.3 3,0 4.6,0.2 v 1.3 h -5.2 c -0.3,0 -0.7,-0.6 -0.7,-0.9 -0.1,-0.7 0,-1.4 0,-2.2 h 4.9 v 1.3 h -3.4 c -0.2,0 -0.2,0.2 -0.2,0.3 m 4.6,-5.6 v 1.3 c -1.5,0.2 -3.1,-0.1 -4.6,0.2 v 0.4 h 3.4 v 1.4 h -4.9 c 0,-0.8 -0.1,-1.6 0,-2.4 0,-0.3 0.5,-0.7 0.8,-0.7 1.8,-0.2 3.5,-0.2 5.3,-0.2"
     id="path26"
     inkscape:connector-curvature="0"
     style="fill:#231f20" />
</svg>
