<?xml version="1.0" encoding="UTF-8" standalone="no"?>
<svg
   xmlns:dc="http://purl.org/dc/elements/1.1/"
   xmlns:cc="http://creativecommons.org/ns#"
   xmlns:rdf="http://www.w3.org/1999/02/22-rdf-syntax-ns#"
   xmlns:svg="http://www.w3.org/2000/svg"
   xmlns="http://www.w3.org/2000/svg"
   xmlns:sodipodi="http://sodipodi.sourceforge.net/DTD/sodipodi-0.dtd"
   xmlns:inkscape="http://www.inkscape.org/namespaces/inkscape"
   width="403"
   height="71.740982"
   version="1.1"
   id="svg46"
   sodipodi:docname="logo.svg"
   inkscape:version="0.92.4 5da689c313, 2019-01-14">
  <metadata
     id="metadata50">
    <rdf:RDF>
      <cc:Work
         rdf:about="">
        <dc:format>image/svg+xml</dc:format>
        <dc:type
           rdf:resource="http://purl.org/dc/dcmitype/StillImage" />
      </cc:Work>
    </rdf:RDF>
  </metadata>
  <sodipodi:namedview
     pagecolor="#ffffff"
     bordercolor="#666666"
     borderopacity="1"
     objecttolerance="10"
     gridtolerance="10"
     guidetolerance="10"
     inkscape:pageopacity="0"
     inkscape:pageshadow="2"
     inkscape:window-width="640"
     inkscape:window-height="480"
     id="namedview48"
     showgrid="false"
     inkscape:zoom="0.6775"
     inkscape:cx="200"
     inkscape:cy="35.870492"
     inkscape:window-x="0"
     inkscape:window-y="0"
     inkscape:window-maximized="0"
     inkscape:current-layer="svg46">
    <inkscape:grid
       type="xygrid"
       id="grid860"
       originx="0"
       originy="9.4433594e-07" />
  </sodipodi:namedview>
  <defs
     id="defs30">
    <radialGradient
       id="a"
       cx="0"
       cy="0"
       r="1"
       spreadMethod="pad"
       gradientTransform="matrix(137.96733,0,0,137.96733,197.09168,37.743246)"
       gradientUnits="userSpaceOnUse"
       fy="0"
       fx="0">
      <stop
         offset="0"
         stop-color="#9fafdf"
         id="stop2" />
      <stop
         offset=".53300706"
         stop-color="#9fafdf"
         id="stop4" />
      <stop
         offset="1"
         stop-color="#fff"
         id="stop6" />
    </radialGradient>
    <linearGradient
       id="b"
       x2="1"
       gradientTransform="matrix(0,-20.068664,20.068664,0,197.11178,69.976725)"
       gradientUnits="userSpaceOnUse">
      <stop
         offset="0"
         stop-color="#fff"
         id="stop9" />
      <stop
         offset=".96683747"
         stop-color="#fbd34d"
         id="stop11" />
      <stop
         offset="1"
         stop-color="#fbd34d"
         id="stop13" />
    </linearGradient>
    <clipPath
       id="c">
      <path
         d="M 0,74.376 H 414.692 V 0 H 0 Z"
         id="path16"
         inkscape:connector-curvature="0" />
    </clipPath>
    <linearGradient
       id="d"
       x2="1"
       gradientTransform="matrix(404.243,0,0,404.243,-403.58459,84.779)"
       gradientUnits="userSpaceOnUse">
      <stop
         offset="0"
         stop-color="#fff"
         id="stop19" />
      <stop
         offset=".27912007"
         stop-color="#fff"
         id="stop21" />
      <stop
         offset=".479757"
         stop-color="#96d321"
         id="stop23" />
      <stop
         offset=".66734349"
         stop-color="#fff"
         id="stop25" />
      <stop
         offset="1"
         stop-color="#fff"
         id="stop27" />
    </linearGradient>
  </defs>
  <path
     d="m 334.417,25.589122 c -11.58161,0.104174 -23.16998,0.244037 -34.75063,0.02604 -5.43825,-0.09935 -61.54256,0.05209 -116.02929,0.204489 -49.88282,0.138898 -98.409457,0.277797 -105.459511,0.222816 -11.074247,-0.07813 -22.14753,-0.357856 -33.20538,0.05305 -9.423865,0.357856 -18.726194,2.164498 -27.658128,5.917647 -4.192993,1.754556 -8.182461,3.937381 -11.5883636,7.297949 -2.5657606,2.548398 -3.6865929,5.647567 -3.2930477,8.859591 0.068485,0.576814 0.1890561,1.151698 0.355927,1.737193 H 391.43476 c 0.15144,-0.558487 0.26525,-1.134336 0.33277,-1.737193 0.0309,-0.261399 0.0453,-0.532444 0.0531,-0.802524 0.13697,-4.207462 -1.9224,-6.983499 -4.65406,-9.279179 -5.17011,-4.356006 -11.07425,-6.781904 -17.18963,-8.527778 -10.96333,-3.121354 -22.11667,-3.982717 -33.352,-3.982717 -0.735,0 -1.4729,0.0039 -2.2079,0.01061"
     id="path32"
     inkscape:connector-curvature="0"
     style="fill:url(#a)" />
  <path
     d="m 2.7885767,49.907903 c 0.2951589,1.030163 0.7417556,2.069007 1.3475066,3.090488 0.9230951,1.544279 2.0661125,2.975704 3.2920831,4.206497 3.1493266,3.177299 6.9420226,5.124769 10.8244236,6.696056 10.209991,4.146694 20.859827,5.438256 31.585863,5.717017 12.769,0.331812 25.545717,0.323131 38.323397,0.340494 36.26307,0.03472 72.52711,0.0087 108.79886,0.0087 v -0.01736 h 44.8169 c 7.36546,-0.0039 14.7319,-0.0029 22.09833,-0.0019 19.72646,0.0029 39.45677,0.0058 59.18708,-0.103209 2.26482,-0.01254 4.5306,-0.0048 6.79734,0.0039 9.77593,0.03376 19.55958,0.06752 29.29211,-1.583826 7.03945,-1.195105 14.01812,-2.548399 20.52802,-6.110562 3.64801,-1.997628 7.17448,-4.189135 9.70359,-7.995334 0.87776,-1.317605 1.61951,-2.705624 2.05068,-4.250868 H 2.7885767 Z"
     id="path34"
     inkscape:connector-curvature="0"
     style="fill:url(#b)" />
  <g
     clip-path="url(#c)"
     transform="matrix(0.96457167,0,0,-0.96457167,0,71.740983)"
     id="g44">
    <path
       stroke-miterlimit="10"
       d="m 0,0 c -0.447,-1.602 -1.216,-3.041 -2.127,-4.407 -2.621,-3.946 -6.277,-6.217 -10.06,-8.29 -6.748,-3.692 -13.983,-5.095 -21.281,-6.334 -12.43,-2.109 -24.939,-1.566 -37.416,-1.638 -28.092,-0.154 -56.185,-0.091 -84.27,-0.109 h -46.464 v -0.018 c -37.603,0 -75.199,-0.027 -112.795,0.009 -13.246,0.018 -26.492,0.009 -39.73,0.353 -11.12,0.29 -22.16,1.629 -32.746,5.927 -4.026,1.629 -7.957,3.647 -11.222,6.942 -1.271,1.276 -2.456,2.76 -3.413,4.361 -0.628,1.059 -1.091,2.136 -1.397,3.204 z"
       transform="translate(405.8122,22.6348)"
       id="path36"
       inkscape:connector-curvature="0"
       style="fill:none;stroke:url(#d);stroke-miterlimit:10" />
    <path
       d="m 344.1534,45.6508 c 12.54,-0.11 24.99,-1.15 37.13,-4.52 5.99,-1.66 11.75,-3.93 16.57,-8.03 3.08,-2.62 4.5,-5.37 4.3,-8.12 -0.18,-2.48 -1.68,-4.95 -4.47,-7.33 -5.55,-4.73 -12.24,-6.96 -19.08,-8.82 -10.42,-2.83 -21.09,-4.1 -31.86,-4.14 -56.83,-0.22 -13.802,-0.33 -70.642,-0.47 -43.42,-0.11 -86.85,-0.32 -130.27,-0.27 -26.61,0.03 -53.22,0.29 -79.83,0.81 -13.02,0.24 -25.91,2.11 -38.08,7.02 -4.02,1.63 -7.83,4.15 -11.19,6.91 -2.26,1.85 -3.41,4.04 -3.51,6.29 -0.11,2.44 1.02,4.95 3.31,7.18 4.78,4.63 10.81,6.99 17.03,8.82 8.85,2.6 17.95,4 27.13,4.21 17.01,0.38 34.03,0.23 51.03,0.58 m 296.812,-9.24 c -6.83,4.99 -14.63,7.77 -22.71,9.77 -15.43,3.81 -31.15,4.68 -46.98,4.55 -15.3,-0.12 -30.61,-0.28 -45.91,-0.03 -13.76,0.22 -173.272,-0.62 -192.762,-0.49 -14.63,0.09 -29.26,0.41 -43.87,-0.06 -12.45,-0.41 -24.74,-2.48 -36.54,-6.78 -5.54,-2.01 -10.81,-4.51 -15.31,-8.36 -3.39,-2.92 -4.87,-6.47 -4.35,-10.15 0.25,-1.83 1,-3.7 2.25,-5.53 1.22,-1.77 2.73,-3.41 4.35,-4.82 4.16,-3.64 9.17,-5.87 14.3,-7.67 13.49,-4.75 27.56,-6.23 41.73,-6.55 16.87,-0.38 33.75,-0.37 50.63,-0.39 47.91,-0.04 95.82,-0.01 143.74,-0.01 v 0.02 h 59.21 c 35.79,0.02 -28.268,-0.05 7.532,0.12 15.9,0.08 31.84,-0.52 47.68,1.81 9.3,1.37 18.52,2.92 27.12,7 4.82,2.29 9.48,4.8 12.82,9.16 1.58,2.06 2.83,4.27 3.15,6.86 0.04,0.3 0.06,0.61 0.07,0.92 0.18,4.82 -2.54,8 -6.15,10.63"
       id="path38"
       inkscape:connector-curvature="0"
       style="fill:#231f20" />
    <path
       d="m 380.2328,18.9708 c -3.35,-0.01 -6.32,2.75 -6.56,6.01 -0.02,0.14 -0.03,0.28 -0.03,0.42 -0.03,3.42 3.04,6.39 6.57,6.38 3.56,-0.01 6.54,-2.98 6.47,-6.47 0,-0.11 -0.01,-0.22 -0.02,-0.33 -0.23,-3.26 -3.12,-5.99 -6.43,-6.01 m -25.66,0.32 c -0.05,-3.44 -2.24,-6.29 -5.61,-6.37 -8.01,-0.2 -16.03,-0.06 -24.3,-0.06 v 5.31 c 0.89,0.05 1.68,0.13 2.47,0.13 4.9,0.01 9.79,-0.01 14.7,0.01 2.27,0.02 2.78,0.52 2.8,2.75 0.01,1.3 0.02,2.6 0.02,3.92 0,1.36 -0.01,2.74 -0.01,4.17 h 10.01 c 0,-1.36 0.01,-2.75 0,-4.14 v -0.03 c -0.02,-1.89 -0.05,-3.79 -0.08,-5.69 m -31.52,-6.33 h -9.78 v 16.22 h 9.78 z m -12.699,5.168 v -0.854 c 0,-2.561 -2.106,-4.609 -4.667,-4.609 h -24.005 c -2.56,0 -4.666,2.048 -4.666,4.609 v 12.065 h 7.284 v -9.447 c 0,-0.968 0.797,-1.764 1.764,-1.764 z m 0,13.885 v -0.853 h -33.338 v 0.853 c 0,2.561 2.106,4.667 4.666,4.667 h 24.005 c 2.561,0 4.667,-2.106 4.667,-4.667 m -66.132,-19.053 h -9.73 c -0.06,1.51 -0.13,2.97 -0.21,4.72 h -17.65 v 6.63 h 17.71 v 4.87 h 9.88 z m -29.68,-0.02 h -9.83 v 16.23 h 9.83 z m -14.77,6.49 c -0.21,-3.6 -3.13,-6.55 -6.78,-6.6 -5.37,-0.09 -10.74,-0.04 -16.11,-0.04 -4.02,0 -8.03,-0.03 -12.04,0.02 -4.31,0.04 -6.83,2.61 -6.85,6.86 v 9.65 h 9.94 v -7.59 c 0.01,-3.12 0.3,-3.42 3.35,-3.42 h 15.09 c 0.41,0 0.82,-0.01 1.23,0.02 1.16,0.08 2.14,0.65 1.83,1.87 -0.17,0.67 -1.18,1.55 -1.86,1.59 -3.05,0.18 -6.12,0.09 -9.18,0.09 h -2.7 v 4.77 c 0.11,0.09 0.22,0.25 0.31,0.25 6.05,0 12.1,0.18 18.13,-0.09 1.4,-0.06 2.66,-0.77 3.64,-1.83 1.33,-1.44 2.13,-3.53 2,-5.55 m -47.07,-6.51 c -0.71,-0.04 -1.42,-0.12 -2.15,-0.12 -8.51,-0.01 -17.01,-0.02 -25.52,0 -5.15,0.01 -7.48,2.38 -7.46,7.48 0.01,1.56 0,3.12 0,4.7 v 4.18 h 9.78 c 0.51,-1.89 2.03,-2.11 3.79,-2.1 5.71,0.05 11.43,0.02 17.15,0.02 h 2.84 v -5.13 h -23.38 c -0.36,-2.75 0.33,-3.62 2.74,-3.63 6.54,-0.03 13.07,-0.01 19.6,-0.01 h 2.61 z m -40.86,0.03 h -9.93 v 16.2 h 9.93 z m -22.04,-0.04 h -9.64 v 16.24 h 9.64 z m -21.88,0.03 h -9.69 v 16.28 h 9.69 z m -32.33,6.03 c -3.34,-0.02 -6.32,2.76 -6.55,6.01 -0.03,0.15 -0.03,0.31 -0.03,0.47 0.03,3.39 3,6.31 6.45,6.33 3.6,0.02 6.6,-2.9 6.58,-6.41 0,-0.13 -0.01,-0.26 -0.02,-0.39 -0.23,-3.24 -3.14,-5.99 -6.43,-6.01 m 22.64,17.52 c 0.64,0.06 1.17,0.16 1.69,0.16 15.44,0.01 30.88,0.02 46.32,0 3.56,-0.01 5.71,-2.21 5.55,-5.66 h -53.56 z m 59.4,0.02 h 35.1 v -5.5 h -35.1 z m 45.82,0.13 c 3.95,0.07 7.89,0.02 11.84,0.02 h 24.4 v -5.62 h -41.49 c -0.36,3.21 1.81,5.55 5.25,5.6 m 46.43,-0.02 c 9.78,0.08 19.56,0.08 29.34,0 3.08,-0.02 5.13,-2.45 4.94,-5.59 h -39.34 c 0.06,3.38 1.95,5.57 5.06,5.59 m 103.271,-0.18 c 0.67,0.09 1.12,0.21 1.58,0.21 11.42,0.01 22.85,0.03 34.28,-0.01 3.44,0 5.57,-2.21 5.4,-5.64 h -41.12 c -0.05,0.75 -0.12,1.34 -0.14,1.94 -0.01,1.14 0,2.28 0,3.5 m 76.93,-6.44 c -2.49,2.13 -5.38,3.97 -8.38,5.24 -8.22,3.51 -16.96,4.94 -25.82,5.33 -8.49,0.36 -17,0.45 -25.51,0.45 -114.42,0.03 -130.351,0.02 -244.771,0.02 -6.26,0 -12.53,0.14 -18.79,-0.07 -10.34,-0.35 -20.61,-1.32 -30.46,-4.86 -4.08,-1.47 -7.98,-3.19 -10.94,-6.48 -1.42,-1.58 -2.09,-3.11 -1.99,-4.65 0.07,-1.34 0.72,-2.68 1.95,-4.08 2.93,-3.33 6.54,-5.68 10.75,-7.15 7.76,-2.71 15.8,-4.04 23.97,-4.38 8.43,-0.36 16.87,-0.47 25.31,-0.47 57.24,-0.04 114.48,-0.02 171.73,-0.02 h 25.52 c 53.3,0.01 8.111,-0.02 61.411,0.06 10.81,0.01 21.6,0.63 32.11,3.62 5.41,1.54 10.37,3.77 14.19,8.01 1.36,1.5 2.12,2.98 2.23,4.41 0.16,1.75 -0.65,3.43 -2.51,5.02"
       id="path40"
       inkscape:connector-curvature="0"
       style="fill:#231f20" />
    <path
       d="m 238.2703,62.2955 c 0.26,0.82 0.79,2.48 0.79,2.48 0,0 0.834,-1.69 1.174,-2.48 -0.66,-0.06 -1.284,0.06 -1.964,0 m 1.36,9.4 -0.9,-0.03 c -1.69,-4.91 -3.38,-9.81 -5.14,-14.9 h 2.65 c 0.54,1.44 1.05,2.81 1.7,4.55 0.26,-0.82 0.4,-1.27 0.53,-1.69 h 5.31 c -1.43,4.16 -2.79,8.11 -4.15,12.07 m 7.63,-13.3 c -1.4,4.26 -2.84,8.5 -4.21,12.77 -0.64,1.97 -1.89,3.24 -3.96,3.21 -1.96,-0.04 -3.16,-1.27 -3.77,-3.18 -1.15,-3.62 -2.38,-7.22 -3.6,-10.82 -0.15,-0.43 -0.41,-0.83 -0.62,-1.25 -0.14,0.05 -0.29,0.08 -0.43,0.12 v 8.58 h -6.64 l -0.057,-1.941 4.377,-0.019 c 0,0 -0.05,-4.57 -0.05,-6.89 -1.96,0 -3.78,0.02 -5.6,0 -1.8,-0.03 -2.59,0.87 -2.58,2.64 0.03,2.38 -0.01,4.76 0,7.15 0.03,2.32 0.7,2.98 3.07,3.01 2.44,0.02 4.87,0 7.42,0 v 2.24 c -3.05,0 -5.9,0.12 -8.74,-0.04 -2.39,-0.13 -3.95,-1.81 -4,-4.1 -0.08,-3.07 -0.08,-6.13 -0.01,-9.19 0.05,-2.12 1.61,-3.9 3.65,-3.97 3.73,-0.13 7.47,-0.04 11.23,-0.04 0.33,0.9 0.63,1.66 0.89,2.43 1.32,3.85 2.59,7.72 3.98,11.55 0.21,0.6 0.73,1.387 1.42,1.46 0.672,0.071 1.28,-0.37 1.43,-0.77 1.48,-4.05 2.85,-8.14 4.4,-12.64 h -6.56 c 0.04,-0.84 0.06,-1.35 0.09,-1.95 h 9.22 c -0.13,0.63 -0.19,1.15 -0.35,1.64 m -16.64,10.34 v 2.12 c -2.69,0 -5.13,-0.02 -7.57,0 -1.33,0.02 -2.08,-0.69 -2.13,-1.94 -0.09,-2.36 -0.18,-4.75 0.02,-7.1 0.05,-0.71 0.97,-1.78 1.63,-1.91 1.54,-0.28 3.17,-0.09 4.86,-0.09 v 5.15 h -2.54 c 0,-1.11 -0.05,-1.62 -0.05,-2.77 -0.55,0.09 -1,-0.03 -1.52,0.05 v 6.49 z m -21.13,-6.66 c 0,0.24 0.01,0.47 0.02,0.71 h 5.25 c -0.04,0.78 -0.07,1.28 -0.1,1.8 h -7.85 c 0,-1 0.05,-1.828 0.05,-2.6 0,-1.268 0.89,-1.99 1.44,-2.03 2.66,-0.22 5.35,-0.1 8.1,-0.1 v 2.22 z m 6.84,8.76 c -2.66,0 -5.17,0.14 -7.65,-0.09 -0.67,-0.06 -1.8,-0.465 -1.8,-1.91 0,-0.713 -0.06,-1.7 -0.06,-2.85 h 7.92 c -0.04,0.72 -0.07,1.26 -0.11,2.04 h -5.06 c 0,0.21 0,0.42 -0.01,0.62 h 6.77 z m -7.59,-11.82 c -1.86,-0.02 -2.77,0.93 -2.79,2.73 -0.04,2.24 -0.05,4.49 -0.03,6.73 0.02,2.56 0.74,3.28 3.26,3.3 2.36,0.02 4.72,0 7.16,0 v 2.23 c -2.99,0 -5.84,0.13 -8.67,-0.04 -2.24,-0.13 -3.7,-1.53 -3.84,-3.78 -0.21,-3.17 -0.22,-6.38 -0.06,-9.56 0.11,-2.16 1.53,-3.69 3.58,-3.82 2.96,-0.19 5.94,-0.04 9.03,-0.04 v 2.25 c -2.64,0 -5.14,0.01 -7.64,0 m -12.04,8.88 c -0.77,0.09 -1.534,-0.059 -2.294,0.041 0.01,0.2 0.014,0.649 0.034,0.859 h 7.71 c -0.04,0.87 -0.1,2.04 -0.1,2.04 0,0 -5.29,0.18 -7.83,-0.11 -0.83,-0.09 -2.069,-0.602 -2.15,-2.15 -0.086,-1.657 0.273,-2.014 1.023,-2.514 0.366,-0.244 1.077,-0.366 1.467,-0.396 0.61,-0.05 1.22,-0.01 1.84,-0.02 2.09,-0.05 3.46,-1.26 3.52,-3.13 0.07,-1.92 -1.33,-3.43 -3.43,-3.51 -2.49,-0.09 -4.99,-0.02 -7.66,-0.02 0.05,-0.92 0.09,-1.55 0.13,-2.31 2.9,0 5.61,-0.12 8.31,0.03 2.83,0.16 4.94,2.64 4.95,5.5 0.02,3.03 -2.19,5.31 -5.52,5.69 m -4.83,2.25 c -0.522,-0.696 -0.677,-2.231 -0.37,-3.12 0.359,-1.04 1.227,-1.732 2.577,-1.948 0.888,-0.142 1.94,0.008 2.86,-0.172 1.42,-0.28 2.323,-1.15 2.273,-2.61 -0.06,-1.46 -0.94,-2.45 -2.46,-2.49 -2.51,-0.08 -5.02,-0.02 -7.72,-0.02 -0.07,0.68 -0.12,1.23 -0.19,2.07 h 7.8 c 0.03,0.21 0.027,0.684 0.047,0.894 -0.727,0 -1.247,0.006 -1.897,0.036 -3.38,0.14 -5.89,2.43 -5.95,5.46 -0.06,3.13 2.25,5.59 5.64,5.76 2.49,0.13 4.99,0.03 7.6,0.03 v -2.26 c -2.25,0 -4.49,0.18 -6.69,-0.07 -1.24,-0.13 -2.703,-0.472 -3.52,-1.56"
       id="path42"
       inkscape:connector-curvature="0"
       style="fill:#3173b3" />
  </g>
</svg>
