<?xml version="1.0" encoding="UTF-8" standalone="no"?>
<svg
   xmlns:dc="http://purl.org/dc/elements/1.1/"
   xmlns:cc="http://creativecommons.org/ns#"
   xmlns:rdf="http://www.w3.org/1999/02/22-rdf-syntax-ns#"
   xmlns:svg="http://www.w3.org/2000/svg"
   xmlns="http://www.w3.org/2000/svg"
   xmlns:sodipodi="http://sodipodi.sourceforge.net/DTD/sodipodi-0.dtd"
   xmlns:inkscape="http://www.inkscape.org/namespaces/inkscape"
   viewBox="0 0 53.5 118.46"
   version="1.1"
   id="svg54"
   sodipodi:docname="controller.svg"
   width="53.5"
   height="118.46"
   inkscape:version="0.92.4 5da689c313, 2019-01-14">
  <metadata
     id="metadata60">
    <rdf:RDF>
      <cc:Work
         rdf:about="">
        <dc:format>image/svg+xml</dc:format>
        <dc:type
           rdf:resource="http://purl.org/dc/dcmitype/StillImage" />
      </cc:Work>
    </rdf:RDF>
  </metadata>
  <defs
     id="defs58" />
  <sodipodi:namedview
     pagecolor="#ffffff"
     bordercolor="#666666"
     borderopacity="1"
     objecttolerance="10"
     gridtolerance="10"
     guidetolerance="10"
     inkscape:pageopacity="0"
     inkscape:pageshadow="2"
     inkscape:window-width="471"
     inkscape:window-height="442"
     id="namedview56"
     showgrid="false"
     inkscape:zoom="1.9922673"
     inkscape:cx="26.75"
     inkscape:cy="59.231"
     inkscape:window-x="0"
     inkscape:window-y="0"
     inkscape:window-maximized="0"
     inkscape:current-layer="svg54">
    <inkscape:grid
       type="xygrid"
       id="grid62"
       originx="0"
       originy="0.0019998169" />
  </sodipodi:namedview>
  <path
     d="m 53.5,51.068 c 0,1.245 -0.512,2.28 -1.186,2.49 l -10e-4,5.672 10e-4,5.672 c 0.674,0.209 1.186,1.244 1.186,2.49 v 46.464 a 4.604,4.604 0 0 1 -4.604,4.604 H 12.417 C 5.559,118.458 0,112.899 0,106.042 V 12.417 C 0,5.559 5.559,0 12.417,0 H 48.896 A 4.604,4.604 0 0 1 53.5,4.604 Z"
     id="path2"
     inkscape:connector-curvature="0"
     style="fill:#cfcec8" />
  <path
     d="M 32.942,81.878 26.577,61.111 a 6.424,6.424 0 0 1 0,-3.765 l 6.365,-20.767 c 0.22,-0.719 0.885,-1.21 1.637,-1.21 h 16.637 c 0.433,0 0.785,0.351 0.785,0.785 v 46.15 a 0.785,0.785 0 0 1 -0.785,0.785 H 34.579 a 1.712,1.712 0 0 1 -1.637,-1.211 z"
     id="path4"
     inkscape:connector-curvature="0"
     style="fill:#dbd9d4" />
  <path
     d="M 49.375,31.817 V 5.211 c 0,-0.784 -0.635,-1.419 -1.419,-1.419 H 13.625 A 9.375,9.375 0 0 0 4.25,13.167 v 92.125 a 9.375,9.375 0 0 0 9.375,9.375 H 47.95 c 0.787,0 1.425,-0.638 1.425,-1.425 v -26.6 c 0,-0.776 -0.629,-1.406 -1.406,-1.406 H 34.167 c -0.82,0 -1.544,-0.535 -1.784,-1.319 L 25.446,61.281 a 7,7 0 0 1 0,-4.104 l 6.937,-22.636 a 1.865,1.865 0 0 1 1.784,-1.319 h 13.802 c 0.777,0 1.406,-0.629 1.406,-1.405 z"
     id="path6"
     inkscape:connector-curvature="0"
     style="fill:#dbd9d4" />
  <path
     d="M 9.062,48.899 H 19.366 V 69.558 H 9.062 Z"
     id="path8"
     inkscape:connector-curvature="0"
     style="fill:#939598" />
  <path
     d="M 9.062,69.559 H 9.124 V 48.962 h 10.18 V 69.497 H 9.062 v 0.062 H 9.124 9.062 v 0.062 H 19.428 V 48.837 H 9 v 20.784 h 0.062 z"
     id="path10"
     inkscape:connector-curvature="0"
     style="fill:#878684" />
  <path
     d="m 19.366,63.072 v 4.107 L 9.062,62.027 V 57.92 Z"
     id="path12"
     inkscape:connector-curvature="0"
     style="fill:#8c3864" />
  <path
     d="m 15.337,50.499 -4.926,-0.581 v 0.902 l 1.016,0.092 -0.004,0.428 -1.012,0.073 v 0.981 l 4.923,-0.672 z m -0.85,0.622 -2.247,0.139 v -0.284 z m 0.839,1.46 -4.919,0.009 v 0.943 l 2.875,-0.003 -2.875,0.389 v 0.601 l 2.875,0.379 -2.875,-10e-4 v 0.956 h 4.919 v -1.333 l -2.191,-0.306 2.191,-0.25 z m -0.038,5.963 -0.765,0.001 v 0.503 h -4.1 v 1.04 h 4.1 v 0.538 h 0.765 z m -0.005,-1.373 c 0.002,-0.596 0.082,-0.818 -0.154,-0.998 -0.299,-0.229 -0.913,-0.136 -1.627,-0.135 -0.576,0 -0.875,1.319 -1.223,1.327 h -0.961 c -0.15,-0.001 -0.102,-0.332 0.036,-0.331 h 1.057 V 56.03 l -0.826,0.014 c -1.04,-0.023 -1.195,-0.015 -1.191,1.214 0.002,0.585 0.01,0.721 0.075,0.832 a 0.736,0.736 0 0 0 0.27,0.226 c 0.177,0.085 0.262,0.091 1.077,0.078 l 0.815,0.004 c 0.209,10e-4 0.566,-0.481 0.7,-0.74 0.154,-0.296 0.168,-0.618 0.691,-0.624 0.425,-0.006 0.502,-0.011 0.504,0.174 10e-4,0.202 -0.085,0.145 -0.881,0.157 v 1.053 c 1.703,0 1.634,-0.064 1.638,-1.247 z m -0.008,3.669 -4.861,0.032 v 0.997 l 1.963,0.006 c -0.006,0.357 0.118,0.331 -1.983,0.308 l -0.004,1.054 c 1.931,-0.037 2.043,0.041 2.437,-0.437 0.268,0.426 0.433,0.388 1.236,0.398 0.77,0.009 0.877,-0.017 1.084,-0.24 0.188,-0.203 0.156,-0.388 0.128,-2.118 z m -0.757,1.027 c -0.011,0.391 -0.109,0.316 -0.61,0.316 -0.524,0 -0.634,0.066 -0.637,-0.319 z m 0.698,4.29 c 0,0 -4.747,-0.068 -4.825,-0.036 H 10.39 l -0.014,1.808 c -0.005,0.665 0.444,0.56 2.35,0.572 2.188,0.015 2.49,-0.008 2.49,-0.497 z m -2.385,1.314 c -1.598,0.013 -1.637,0.03 -1.648,-0.27 l 3.303,-0.022 c 0,0.323 -0.258,0.282 -1.655,0.292 z m 2.437,-3.43 -4.927,-0.581 v 0.902 l 1.017,0.092 -0.004,0.428 -1.012,0.073 v 0.981 l 4.924,-0.672 z m -0.85,0.622 -2.247,0.139 v -0.284 z"
     id="path14"
     inkscape:connector-curvature="0"
     style="fill:#e7e8e9" />
  <g
     id="g24">
    <path
       d="m 8.86,81.712 c 0,-3.461 2.816,-6.276 6.277,-6.276 3.461,0 6.276,2.815 6.276,6.276 0,3.461 -2.815,6.277 -6.276,6.277 -3.461,0 -6.277,-2.816 -6.277,-6.277 z"
       id="path16"
       inkscape:connector-curvature="0"
       style="fill:#bdbec0" />
    <path
       d="m 9.568,81.712 c 0,-3.07 2.498,-5.568 5.568,-5.568 3.07,0 5.568,2.498 5.568,5.568 0,3.07 -2.498,5.568 -5.568,5.568 -3.07,0 -5.568,-2.498 -5.568,-5.568 z"
       id="path18"
       inkscape:connector-curvature="0"
       style="fill:#77787b" />
    <path
       d="m 9.993,81.712 a 5.149,5.149 0 0 1 5.143,-5.143 c 2.835,0 5.143,2.307 5.143,5.143 0,2.836 -2.307,5.144 -5.143,5.144 A 5.15,5.15 0 0 1 9.993,81.712 Z"
       id="path20"
       inkscape:connector-curvature="0"
       style="fill:#843d5a" />
    <circle
       cx="15.136"
       cy="81.711998"
       r="4.2919998"
       id="circle22"
       style="fill:#9e4968" />
  </g>
  <g
     id="g34">
    <path
       d="m 8.859,98.025 c 0,-3.461 2.816,-6.276 6.277,-6.276 3.461,0 6.276,2.815 6.276,6.276 0,3.461 -2.815,6.277 -6.276,6.277 -3.461,0 -6.277,-2.816 -6.277,-6.277 z"
       id="path26"
       inkscape:connector-curvature="0"
       style="fill:#bdbec0" />
    <path
       d="m 9.568,98.025 c 0,-3.07 2.498,-5.568 5.568,-5.568 3.07,0 5.568,2.498 5.568,5.568 0,3.07 -2.498,5.568 -5.568,5.568 -3.07,0 -5.568,-2.498 -5.568,-5.568 z"
       id="path28"
       inkscape:connector-curvature="0"
       style="fill:#77787b" />
    <path
       d="m 9.993,98.025 a 5.149,5.149 0 0 1 5.143,-5.143 c 2.835,0 5.143,2.307 5.143,5.143 0,2.836 -2.307,5.144 -5.143,5.144 A 5.15,5.15 0 0 1 9.993,98.025 Z"
       id="path30"
       inkscape:connector-curvature="0"
       style="fill:#843d5a" />
    <circle
       cx="15.136"
       cy="98.025002"
       r="4.2919998"
       id="circle32"
       style="fill:#9e4968" />
  </g>
  <path
     d="m 5.646,82.306 v -0.667 h 1.317 v -0.521 h 0.455 c 0.006,0.352 0.128,0.608 0.519,0.682 v 0.507 H 5.646 Z m 0,14.767 c 0.263,-0.013 0.455,0.09 0.641,0.269 0.395,0.379 0.548,0.972 0.923,0.972 0.145,0 0.228,-0.139 0.228,-0.272 0,-0.257 -0.214,-0.33 -0.433,-0.327 v -0.6 c 0.664,0.01 0.933,0.372 0.933,0.959 0,0.468 -0.205,0.906 -0.73,0.906 -0.397,0 -0.561,-0.305 -0.744,-0.6 C 6.361,98.217 6.275,98.044 6.192,97.926 v 1.048 H 5.646 Z"
     id="path36"
     inkscape:connector-curvature="0"
     style="fill:#8a8c8f" />
  <g
     id="g52">
    <circle
       cx="21.877001"
       cy="21.24"
       r="13.969"
       id="circle38"
       style="fill:#bdbec0" />
    <circle
       cx="21.877001"
       cy="21.24"
       r="12.572"
       id="circle40"
       style="fill:#77787b" />
    <circle
       cx="21.877001"
       cy="21.24"
       r="12.321"
       id="circle42"
       style="fill:#d1d2d4" />
    <path
       d="m 26.165,17.803 h 6.204 c 0.47,0 0.85,0.381 0.85,0.85 v 5.174 a 0.85,0.85 0 0 1 -0.85,0.85 h -6.204 a 0.85,0.85 0 0 0 -0.85,0.85 v 6.204 a 0.85,0.85 0 0 1 -0.85,0.85 H 19.29 a 0.85,0.85 0 0 1 -0.85,-0.85 v -6.204 a 0.85,0.85 0 0 0 -0.85,-0.85 h -6.204 a 0.85,0.85 0 0 1 -0.85,-0.85 v -5.174 c 0,-0.47 0.381,-0.85 0.85,-0.85 h 6.204 a 0.85,0.85 0 0 0 0.85,-0.85 v -6.204 c 0,-0.47 0.381,-0.85 0.85,-0.85 h 5.174 c 0.47,0 0.85,0.381 0.85,0.85 v 6.204 c 0,0.469 0.381,0.85 0.851,0.85 z"
       id="path44"
       inkscape:connector-curvature="0"
       style="fill:#a7a9ac" />
    <circle
       cx="21.877001"
       cy="21.24"
       r="2.7030001"
       id="circle46"
       style="fill:#9a9c9f" />
    <g
       id="g50"
       style="fill:#9a9c9f">
      <path
         d="m 31.672,21.195 -3.066,-2.314 v 0.826 h -1.461 a 0.147,0.147 0 0 0 -0.147,0.147 v 2.682 c 0,0.081 0.066,0.147 0.147,0.147 h 1.461 v 0.918 z m -9.804,-9.75 -2.314,3.066 h 0.826 v 1.461 c 0,0.081 0.066,0.147 0.147,0.147 h 2.682 a 0.147,0.147 0 0 0 0.147,-0.147 V 14.51 h 0.918 z m -9.786,9.842 3.066,2.314 v -0.826 h 1.461 a 0.147,0.147 0 0 0 0.147,-0.147 v -2.682 a 0.147,0.147 0 0 0 -0.147,-0.147 h -1.461 v -0.918 z m 9.841,9.749 2.314,-3.066 h -0.826 v -1.461 a 0.147,0.147 0 0 0 -0.147,-0.147 h -2.682 a 0.147,0.147 0 0 0 -0.147,0.147 v 1.461 h -0.918 z"
         id="path48"
         inkscape:connector-curvature="0" />
    </g>
  </g>
</svg>
