<?xml version="1.0" encoding="UTF-8" standalone="no"?>
<svg
   xmlns:dc="http://purl.org/dc/elements/1.1/"
   xmlns:cc="http://creativecommons.org/ns#"
   xmlns:rdf="http://www.w3.org/1999/02/22-rdf-syntax-ns#"
   xmlns:svg="http://www.w3.org/2000/svg"
   xmlns="http://www.w3.org/2000/svg"
   xmlns:sodipodi="http://sodipodi.sourceforge.net/DTD/sodipodi-0.dtd"
   xmlns:inkscape="http://www.inkscape.org/namespaces/inkscape"
   viewBox="0 0 30 30"
   version="1.1"
   id="svg22"
   sodipodi:docname="icon_empty.svg"
   inkscape:version="0.92.4 5da689c313, 2019-01-14">
  <metadata
     id="metadata28">
    <rdf:RDF>
      <cc:Work
         rdf:about="">
        <dc:format>image/svg+xml</dc:format>
        <dc:type
           rdf:resource="http://purl.org/dc/dcmitype/StillImage" />
      </cc:Work>
    </rdf:RDF>
  </metadata>
  <defs
     id="defs26" />
  <sodipodi:namedview
     pagecolor="#ffffff"
     bordercolor="#666666"
     borderopacity="1"
     objecttolerance="10"
     gridtolerance="10"
     guidetolerance="10"
     inkscape:pageopacity="0"
     inkscape:pageshadow="2"
     inkscape:window-width="640"
     inkscape:window-height="480"
     id="namedview24"
     showgrid="false"
     inkscape:zoom="7.8666667"
     inkscape:cx="15"
     inkscape:cy="15"
     inkscape:window-x="0"
     inkscape:window-y="0"
     inkscape:window-maximized="0"
     inkscape:current-layer="svg22">
    <inkscape:grid
       type="xygrid"
       id="grid835" />
  </sodipodi:namedview>
  <path
     d="M7.592.002H4.734C2.348 1.055.581 4.679.581 8.99v9.296h11.164l-.003-9.299c0-4.311-1.767-7.936-4.153-8.988"
     fill="#777"
     id="path2" />
  <path
     d="M7.592.002H6.163v8.086h5.555C11.491 4.181 9.808.984 7.592.004"
     fill="#8c8c8c"
     id="path4" />
  <path
     d="M6.868.002h-.063c1.044 2.575 1.283 8.084 1.283 8.084h2.502C9.851 1.957 7.347.272 6.868.002"
     fill="#a4a4a4"
     id="path6" />
  <path
     d="M1.232 10.691h9.711v17.217H1.232V10.691z"
     fill="#777"
     id="path8" />
  <g
     fill="#9d9d9d"
     id="g12">
    <path
       d="M.001 8.978h12.174v17.217H.001V8.978zM0 27.183h12.174V30H0v-2.817z"
       id="path10" />
  </g>
  <g
     fill="#bababa"
     id="g16">
    <path
       d="M6.085 27.183h6.089V30H6.089l-.004-2.817zM12.097 26.191H6.009V9.072h6.085l.003 17.119zM3.233 27.182H4.88v2.817H3.233v-2.817zM4.681 26.192H3.159V9.073h1.522v17.119z"
       id="path14" />
  </g>
  <g
     fill="#d8d8d8"
     id="g20">
    <path
       d="M8.03 27.182h2.699v2.817H8.03v-2.817zM10.387 26.191H7.914V9.072h2.473v17.119z"
       id="path18" />
  </g>
</svg>
