<?xml version="1.0" encoding="UTF-8" standalone="no"?>
<svg
   xmlns:dc="http://purl.org/dc/elements/1.1/"
   xmlns:cc="http://creativecommons.org/ns#"
   xmlns:rdf="http://www.w3.org/1999/02/22-rdf-syntax-ns#"
   xmlns:svg="http://www.w3.org/2000/svg"
   xmlns="http://www.w3.org/2000/svg"
   xmlns:sodipodi="http://sodipodi.sourceforge.net/DTD/sodipodi-0.dtd"
   xmlns:inkscape="http://www.inkscape.org/namespaces/inkscape"
   viewBox="0 0 242 106.35815"
   version="1.1"
   id="svg16"
   sodipodi:docname="logo.svg"
   width="242"
   height="106.35815"
   inkscape:version="0.92.4 5da689c313, 2019-01-14">
  <metadata
     id="metadata22">
    <rdf:RDF>
      <cc:Work
         rdf:about="">
        <dc:format>image/svg+xml</dc:format>
        <dc:type
           rdf:resource="http://purl.org/dc/dcmitype/StillImage" />
      </cc:Work>
    </rdf:RDF>
  </metadata>
  <defs
     id="defs20" />
  <sodipodi:namedview
     pagecolor="#ffffff"
     bordercolor="#666666"
     borderopacity="1"
     objecttolerance="10"
     gridtolerance="10"
     guidetolerance="10"
     inkscape:pageopacity="0"
     inkscape:pageshadow="2"
     inkscape:window-width="640"
     inkscape:window-height="480"
     id="namedview18"
     showgrid="false"
     inkscape:zoom="1.1297503"
     inkscape:cx="119.938"
     inkscape:cy="53.178999"
     inkscape:window-x="0"
     inkscape:window-y="0"
     inkscape:window-maximized="0"
     inkscape:current-layer="svg16">
    <inkscape:grid
       type="xygrid"
       id="grid829"
       originx="0"
       originy="-1.7089844e-06" />
  </sodipodi:namedview>
  <path
     d="m 239.641,58.967151 c 0.097,-0.8 -0.251,-1.644 0.235,-2.406 v 2.4 c -0.076,0.108 -0.154,0.11 -0.235,0.006 z"
     id="path2"
     inkscape:connector-curvature="0"
     style="fill:#f1e87a" />
  <path
     d="m 239.876,49.601151 c -0.47,-0.766 -0.155,-1.605 -0.225,-2.409 0.079,-0.101 0.154,-0.098 0.225,0.009 z"
     id="path4"
     inkscape:connector-curvature="0"
     style="fill:#f5ed99" />
  <path
     d="m 239.876,47.201151 a 3.384,3.384 0 0 1 -0.225,-0.009 c 0.081,-0.556 -0.257,-1.169 0.225,-1.671 z"
     id="path6"
     inkscape:connector-curvature="0"
     style="fill:#f7f2ba" />
  <path
     d="m 239.671,61.856151 -0.016,-1.446 c 0.07,-0.116 0.144,-0.119 0.222,-0.009 v 1.44 c -0.062,0.103 -0.131,0.108 -0.206,0.015 z"
     id="path8"
     inkscape:connector-curvature="0"
     style="fill:#f7f2b8" />
  <path
     d="m 239.671,61.856151 a 7.13,7.13 0 0 0 0.206,-0.015 v 1.44 a 4.68,4.68 0 0 1 -0.205,0.008 z"
     id="path10"
     inkscape:connector-curvature="0"
     style="fill:#fbf9e1" />
  <path
     d="m 239.876,60.401151 a 4.118,4.118 0 0 0 -0.222,0.009 l -0.013,-1.443 c 0.078,-0.004 0.157,-0.006 0.235,-0.005 z"
     id="path12"
     inkscape:connector-curvature="0"
     style="fill:#f5ee9c" />
  <path
     d="m 37.465,1.3921507 h 18.904 c -1.498,0.994 -2.753,1.87 -4.055,2.671 -0.715,0.44 -0.906,0.884 -0.706,1.755 2.542,11.0380003 5.032,22.0880003 7.537,33.1340003 0.088,0.386 0.199,0.767 0.296,1.141 0.395,0.016 0.376,-0.266 0.427,-0.476 2.717,-11.326 5.427,-22.654 8.156,-33.9770003 0.161,-0.668 0.073,-1.081 -0.57,-1.465 -1.367,-0.817 -2.673,-1.736 -4.215,-2.752 h 13.6 c -1.463,0.978 -2.787,1.904 -4.154,2.76 -0.594,0.372 -0.886,0.849 -1.049,1.509 -3.417,13.8260003 -6.834,27.6520003 -10.304,41.4640003 -0.296,1.18 0.03,2.213 0.269,3.276 2.562,11.402 5.159,22.796 7.738,34.193 a 2284.24,2284.24 0 0 1 3.525,15.762999 c 0.201,0.917 0.594,1.559 1.435,2.037 1.273,0.724 2.471,1.58 3.965,2.552 H 59.256 c 1.549,-1.026 2.861,-1.948 4.228,-2.778 0.619,-0.376 0.77,-0.744 0.608,-1.455 -2.864,-12.641999 -5.698,-25.289999 -8.541,-37.935999 -0.095,-0.422 -0.21,-0.839 -0.401,-1.6 -0.628,2.423 -1.179,4.532 -1.721,6.643 -2.766,10.782 -5.504,21.571 -8.328,32.337999 -0.314,1.196 -0.092,1.801 0.943,2.377 1.181,0.658 2.271,1.477 3.645,2.39 H 36.46 c 0.777,-0.785 1.704,-1.307 2.605,-1.774 1.729,-0.895 2.497,-2.239 2.967,-4.130999 3.624,-14.596 7.352,-29.166 11.109,-43.729 0.348,-1.348 -0.015,-2.53 -0.284,-3.749 -3.399,-15.382 -6.834,-30.757 -10.229,-46.1400003 -0.13,-0.589 -0.428,-0.897 -0.871,-1.188 -1.354,-0.89 -2.7,-1.793 -4.292,-2.853 z M 117.263,105.03815 h -18.13 c 1.526,-1.012 2.756,-1.897 4.054,-2.665 0.822,-0.486 1.092,-1.073 1.088,-2.027 -0.039,-8.357999 -0.043,-16.715999 10e-4,-25.073999 0.006,-1.106 -0.304,-1.432 -1.412,-1.416 -4.198,0.061 -8.398,-10e-4 -12.597,0.043 -0.99,0.01 -1.23,-0.245 -1.022,-1.236 4.485,-21.343 8.94,-42.693 13.404,-64.0410003 0.449,-2.147 0.939,-4.285 1.37,-6.435 0.11,-0.547 0.273,-0.869 0.901,-0.865 2.639,0.018 5.279,0.025 7.918,-0.004 0.909,-0.01 0.59,0.496 0.456,0.927 -1.194,3.85 -2.398,7.697 -3.595,11.5460003 -5.769,18.56 -11.538,37.119 -17.304,55.679 -0.092,0.298 -0.147,0.607 -0.242,1.009 3.873,0 7.668,-0.001 11.462,0.001 0.884,0 0.627,-0.669 0.628,-1.125 0.014,-5.479 0.034,-10.958 -0.014,-16.436 -0.009,-0.99 0.252,-1.606 1.12,-2.135 2.38,-1.449 4.702,-2.996 7.058,-4.511 0.384,0.453 0.221,0.909 0.221,1.32 0.012,7.198 0.033,14.397 -0.018,21.595 -0.008,1.076 0.29,1.376 1.341,1.317 1.595,-0.09 3.199,0.009 4.797,-0.038 0.745,-0.022 0.966,0.246 0.948,0.967 -0.074,2.998 0.364,2.379 -2.348,2.441 -1.239,0.028 -2.48,0.031 -3.719,-0.005 -0.682,-0.02 -1.009,0.138 -1.007,0.92 0.022,8.718 0.019,17.436 0.003,26.153999 -0.001,0.615 0.289,0.936 0.757,1.239 1.331,0.862 2.643,1.754 3.962,2.634 -0.026,0.074 -0.054,0.147 -0.081,0.221 z M 239.876,45.041151 c -0.209,-0.109 -0.225,-0.308 -0.236,-0.509 -0.244,-4.823 -0.61,-9.634 -1.189,-14.43 -0.806,-6.671 -2.003,-13.254 -4.369,-19.57 -1.167,-3.1140003 -2.495,-6.1630003 -4.962,-8.5240003 -2.647,-2.53299997 -6.025,-2.31499997 -8.393,0.466 -1.707,2.005 -2.912,4.296 -3.888,6.712 -2.058,5.0950003 -3.243,10.4170003 -4.146,15.8250003 -1.316,7.891 -1.974,15.834 -2.101,23.825 -0.126,7.953 0.028,15.892 0.923,23.811 0.695,6.146 1.418,12.282 2.939,18.288 1.073,4.235 2.455,8.362 5.044,11.958999 3.06,4.251 7.21,4.393 10.563,0.365 3.015,-3.622999 4.491,-7.983999 5.717,-12.419999 2.49,-9.008 3.434,-18.247 3.892,-27.549 0.165,-0.474 0.045,-0.965 0.081,-1.446 v -1.449 -1.435 c 0.07,-0.798 -0.148,-1.611 0.124,-2.398 v -6.96 c -0.275,-0.771 -0.053,-1.569 -0.124,-2.351 0.062,-0.575 -0.139,-1.169 0.124,-1.729 z m -9.177,25.57 c -0.076,5.271 -0.184,10.546 -0.487,15.807 -0.257,4.449 -0.434,8.934 -1.839,13.234 -0.299,0.915999 -0.661,1.794999 -1.296,2.543999 -1.319,1.557 -3.08,1.545 -4.377,-0.075 -0.931,-1.162 -1.237,-2.590999 -1.501,-3.997999 -0.766,-4.087 -1.04,-8.233 -1.206,-12.375 -0.415,-10.342 -0.548,-20.691 -0.468,-31.041 0,-4.797 -0.059,-9.596 0.014,-14.392 0.098,-6.43 0.2,-12.863 0.486,-19.287 0.203,-4.576 0.407,-9.17 1.38,-13.6740003 0.219,-1.016 0.565,-1.994 1.173,-2.863 1.254,-1.791 3.196,-1.948 4.65,-0.331 1.377,1.532 1.721,3.5 2.049,5.415 0.822,4.8050003 1.089,9.6630003 1.274,14.5320003 0.349,9.191 0.189,18.384 0.221,27.576 0.022,6.309 0.019,12.619 -0.073,18.928 z m -71.671,-16.269 c 0.109,-6.978 -0.293,-13.748 -0.956,-20.509 -0.662,-6.759 -1.62,-13.46 -3.637,-19.967 -1.185,-3.823 -2.493,-7.6150003 -5.087,-10.7580003 -3.296,-3.99299997 -7.024,-3.86599997 -10.104,0.273 -2.823,3.793 -4.266,8.1930003 -5.445,12.6850003 -2.802,10.676 -3.71,21.6 -4.024,32.582 a 172.26,172.26 0 0 0 0.868,22.968 c 0.668,6.348 1.4,12.685 2.938,18.89 1.138,4.589 2.571,9.076 5.529,12.890999 2.696,3.476 6.464,3.697 9.57,0.558 2.006,-2.027 3.245,-4.534999 4.303,-7.135999 2.883,-7.088 4.138,-14.559 5.02,-22.095 a 153.187,153.187 0 0 0 1.025,-20.382 z m -8.969,6.894 c -0.069,7.59 -0.198,15.182 -0.495,22.766 -0.19,4.854 -0.415,9.73 -1.6,14.485 -0.311,1.247 -0.725,2.452999 -1.486,3.506999 -1.316,1.822 -3.385,1.807 -4.661,-0.042 -1.277,-1.85 -1.478,-4.035999 -1.749,-6.156999 -0.685,-5.349 -0.857,-10.734 -1.057,-16.122 -0.308,-8.313 -0.096,-16.626 -0.146,-24.938 0,-7.036 -0.09,-14.074 0.027,-21.109 0.102,-6.106 0.196,-12.22 0.706,-18.311 0.236,-2.815 0.403,-5.6510003 1.148,-8.4030003 0.231,-0.854 0.521,-1.678 1.047,-2.4 1.461,-2.004 3.639,-1.979 5.015,0.078 1.165,1.741 1.534,3.762 1.837,5.7710003 0.906,6.011 1.125,12.072 1.253,18.141 0.23,10.912 0.26,21.823 0.161,32.734 z m 47.846,-31.02 c -0.805,-6.669 -1.976,-13.252 -4.338,-19.57 -1.194,-3.1930003 -2.534,-6.3160003 -5.084,-8.7170003 -2.369,-2.23099997 -4.919,-2.33799997 -7.416,-0.251 -2.375,1.986 -3.655,4.725 -4.774,7.507 -3.386,8.4180003 -4.612,17.3080003 -5.517,26.2500003 a 151.5,151.5 0 0 0 -0.753,17.736 c -0.107,7.325 0.347,14.407 1.169,21.476 0.636,5.47 1.345,10.924 2.707,16.265 1.079,4.23 2.452,8.363 5.034,11.962999 3.101,4.322 7.398,4.398 10.724,0.234 2.885,-3.610999 4.359,-7.877999 5.562,-12.236999 2.908,-10.535 3.776,-21.344 4.062,-32.209 0.25,-9.512 -0.235,-18.996 -1.376,-28.447 z m -7.777,41.299 c -0.136,6.146 -0.144,12.303 -0.696,18.432 -0.314,3.487 -0.545,7.007 -1.837,10.327999 -0.116,0.297 -0.23,0.598 -0.38,0.878 -0.625,1.17 -1.399,2.232 -2.885,2.173 -1.57,-0.062 -2.39,-1.197 -2.916,-2.504 -0.796,-1.977999 -1.059,-4.089999 -1.281,-6.189999 -0.843,-7.953 -0.912,-15.938 -1.064,-23.925 -0.101,-5.315 -0.057,-10.629 -0.107,-15.943 0,-4.278 -0.056,-8.557 0.013,-12.833 0.111,-6.91 0.21,-13.823 0.493,-20.727 0.189,-4.616 0.414,-9.249 1.373,-13.7960003 0.232,-1.1 0.621,-2.154 1.292,-3.07 1.176,-1.605 3.054,-1.733 4.426,-0.306 1.469,1.529 1.82,3.539 2.155,5.491 0.813,4.7250003 1.092,9.5020003 1.278,14.2920003 0.36,9.271 0.197,18.544 0.228,27.816 0.021,6.628 0.054,13.259 -0.092,19.884 z M 14.943,106.35815 C 6.69,106.35815 0,82.549151 0,53.179151 0,23.809151 7.847,0.01615073 16.1,0.01615073 v -10e-4 c 2.028,-0.142 4.072,0.715 5.555,2.53599997 0.86,1.057 1.474,2.262 2.213,3.47 0.541,-0.379 0.638,-0.96 0.906,-1.421 0.817,-1.405 1.262,-3.027 2.459,-4.20999997 0.376,0.187 0.279,0.542 0.279,0.84399997 0.003,10.5980003 0,21.1960003 -0.004,31.7930003 0,0.077 -0.034,0.154 -0.065,0.286 -0.4,-0.177 -0.368,-0.546 -0.445,-0.858 -1.838,-7.475 -3.659,-14.954 -5.53,-22.42 -0.478,-1.9050003 -1.252,-3.7140003 -2.415,-5.3180003 -1.658,-2.286 -4.005,-2.229 -5.566,0.141 -1.445,2.193 -1.893,4.731 -2.306,7.2480003 -0.97,5.918 -1.268,11.894 -1.522,17.881 -0.543,12.828 -0.453,25.659 -0.362,38.49 0.039,5.512 0.21,11.027 0.48,16.533 0.215,4.378 0.478,8.769 1.626,13.037 0.364,1.354 0.824,2.672999 1.653,3.827999 1.227,1.709 3.111,1.886 4.623,0.412 1.618,-1.578 1.969,-3.695999 2.352,-5.775999 0.487,-2.642 0.511,-5.32 0.509,-7.999 -0.009,-12.318 -0.014,-24.635 0.018,-36.953 0.002,-0.876 -0.279,-1.382 -1.004,-1.825 -1.32,-0.805 -2.585,-1.699 -4.185,-2.763 h 5.077 c 2.48,0 4.959,0.027 7.438,-0.016 0.782,-0.014 1.122,0.22 1.013,1.014 -0.027,0.196 -0.004,0.399 -0.004,0.599 0,18.716 10e-4,37.433 -0.008,56.148999 0,0.453 0.153,0.944 -0.332,1.638 L 23.649,92.282151 c -0.41,2.15 -0.642,4.293 -1.221,6.37 -0.662,2.371999 -1.522,4.653999 -3.522,6.259999 -1.237,0.993 -2.613,1.398 -3.961,1.238"
     id="path14"
     inkscape:connector-curvature="0"
     style="fill:#efe464" />
</svg>
