<?xml version="1.0" encoding="UTF-8" standalone="no"?>
<svg
   xmlns:dc="http://purl.org/dc/elements/1.1/"
   xmlns:cc="http://creativecommons.org/ns#"
   xmlns:rdf="http://www.w3.org/1999/02/22-rdf-syntax-ns#"
   xmlns:svg="http://www.w3.org/2000/svg"
   xmlns="http://www.w3.org/2000/svg"
   xmlns:sodipodi="http://sodipodi.sourceforge.net/DTD/sodipodi-0.dtd"
   xmlns:inkscape="http://www.inkscape.org/namespaces/inkscape"
   viewBox="0 0 30 30"
   version="1.1"
   id="svg27"
   sodipodi:docname="icon_empty.svg"
   inkscape:version="0.92.4 5da689c313, 2019-01-14">
  <metadata
     id="metadata33">
    <rdf:RDF>
      <cc:Work
         rdf:about="">
        <dc:format>image/svg+xml</dc:format>
        <dc:type
           rdf:resource="http://purl.org/dc/dcmitype/StillImage" />
      </cc:Work>
    </rdf:RDF>
  </metadata>
  <defs
     id="defs31" />
  <sodipodi:namedview
     pagecolor="#ffffff"
     bordercolor="#666666"
     borderopacity="1"
     objecttolerance="10"
     gridtolerance="10"
     guidetolerance="10"
     inkscape:pageopacity="0"
     inkscape:pageshadow="2"
     inkscape:window-width="640"
     inkscape:window-height="480"
     id="namedview29"
     showgrid="false"
     inkscape:zoom="7.8666667"
     inkscape:cx="15"
     inkscape:cy="15"
     inkscape:window-x="0"
     inkscape:window-y="0"
     inkscape:window-maximized="0"
     inkscape:current-layer="svg27">
    <inkscape:grid
       type="xygrid"
       id="grid843" />
  </sodipodi:namedview>
  <linearGradient
     id="a"
     gradientUnits="userSpaceOnUse"
     x1=".347"
     y1="21.833"
     x2="29.653"
     y2="8.167">
    <stop
       offset="0"
       stop-color="#d4d4d4"
       id="stop2" />
    <stop
       offset="1"
       stop-color="#4a4a4a"
       id="stop4" />
  </linearGradient>
  <path
     d="M29.644 8.148c1.786 3.817-3.323 9.978-11.41 13.763S2.142 25.669.356 21.852s3.323-9.978 11.41-13.763 16.092-3.758 17.878.059z"
     fill="url(#a)"
     id="path7" />
  <ellipse
     transform="rotate(-25.074 15 15)"
     cx="15"
     cy="15"
     rx="16.168"
     ry="7.63"
     fill="none"
     stroke="#191919"
     stroke-width=".209"
     stroke-miterlimit="10"
     id="ellipse9" />
  <linearGradient
     id="b"
     gradientUnits="userSpaceOnUse"
     x1="1.453"
     y1="21.151"
     x2="28.708"
     y2="8.441">
    <stop
       offset="0"
       stop-color="#d4d4d4"
       id="stop11" />
    <stop
       offset="1"
       stop-color="#767676"
       id="stop13" />
  </linearGradient>
  <path
     d="M28.7 8.423c1.572 3.36-3.251 8.936-10.773 12.456s-14.894 3.649-16.466.29 3.251-8.936 10.773-12.456 14.894-3.649 16.466-.29z"
     fill="url(#b)"
     id="path16" />
  <linearGradient
     id="c"
     gradientUnits="userSpaceOnUse"
     x1="15.067"
     y1="23.606"
     x2="15.067"
     y2="5.986">
    <stop
       offset="0"
       stop-color="#7d7d7d"
       id="stop18" />
    <stop
       offset="1"
       stop-color="#404040"
       id="stop20" />
  </linearGradient>
  <path
     d="M7.849 23.592c-1.115.046-2.134-.023-3.022-.208l8.414-10.961c.037-.048-.015-.114-.071-.089l-6.338 2.913L1.7 17.605c.458-.997 1.197-2.043 2.171-3.085l3.999-1.838-.549.252 15.098-6.938a14.047 14.047 0 0 1 1.823.049l-9.256 12.059c-.037.048.015.114.071.089l6.365-2.925-1.093.502 8.106-3.725c-.472 1.006-1.228 2.06-2.222 3.109l-6.625 3.044 1.344-.617-13.083 6.011z"
     fill="url(#c)"
     id="path23" />
  <ellipse
     transform="rotate(-25.074 15.081 14.796)"
     cx="15.08"
     cy="14.796"
     rx="15.037"
     ry="6.716"
     fill="none"
     stroke="#191919"
     stroke-width=".209"
     stroke-miterlimit="10"
     id="ellipse25" />
</svg>
