<?xml version="1.0" encoding="UTF-8" standalone="no"?>
<svg
   xmlns:dc="http://purl.org/dc/elements/1.1/"
   xmlns:cc="http://creativecommons.org/ns#"
   xmlns:rdf="http://www.w3.org/1999/02/22-rdf-syntax-ns#"
   xmlns:svg="http://www.w3.org/2000/svg"
   xmlns="http://www.w3.org/2000/svg"
   xmlns:sodipodi="http://sodipodi.sourceforge.net/DTD/sodipodi-0.dtd"
   xmlns:inkscape="http://www.inkscape.org/namespaces/inkscape"
   width="100.48589"
   height="200"
   version="1.1"
   id="svg151"
   sodipodi:docname="controller.svg"
   inkscape:version="0.92.4 5da689c313, 2019-01-14">
  <metadata
     id="metadata155">
    <rdf:RDF>
      <cc:Work
         rdf:about="">
        <dc:format>image/svg+xml</dc:format>
        <dc:type
           rdf:resource="http://purl.org/dc/dcmitype/StillImage" />
      </cc:Work>
    </rdf:RDF>
  </metadata>
  <sodipodi:namedview
     pagecolor="#ffffff"
     bordercolor="#666666"
     borderopacity="1"
     objecttolerance="10"
     gridtolerance="10"
     guidetolerance="10"
     inkscape:pageopacity="0"
     inkscape:pageshadow="2"
     inkscape:window-width="640"
     inkscape:window-height="480"
     id="namedview153"
     showgrid="false"
     inkscape:zoom="1.18"
     inkscape:cx="50.242947"
     inkscape:cy="100"
     inkscape:window-x="0"
     inkscape:window-y="0"
     inkscape:window-maximized="0"
     inkscape:current-layer="svg151" />
  <defs
     id="defs85">
    <clipPath
       id="c">
      <path
         d="M 0,335.016 H 168.322 V 0 H 0 Z"
         id="path2"
         inkscape:connector-curvature="0" />
    </clipPath>
    <clipPath
       id="d">
      <path
         d="M 7.99342,160.329 H 162.206 V 6.11584 H 7.99342 Z"
         id="path5"
         inkscape:connector-curvature="0" />
    </clipPath>
    <linearGradient
       id="e"
       x2="1"
       gradientTransform="matrix(23.773759,-23.773759,23.773759,23.773759,38.877972,162.20416)"
       gradientUnits="userSpaceOnUse">
      <stop
         offset="0"
         stop-color="#a6a8ab"
         id="stop8" />
      <stop
         offset="1"
         stop-color="#e6e7e8"
         id="stop10" />
    </linearGradient>
    <clipPath
       id="f">
      <path
         d="M 0,335.016 H 168.322 V 0 H 0 Z"
         id="path13"
         inkscape:connector-curvature="0" />
    </clipPath>
    <clipPath
       id="g">
      <path
         d="M 62.5988,105.659 H 107.471 V 60.786 H 62.5988 Z"
         id="path16"
         inkscape:connector-curvature="0" />
    </clipPath>
    <clipPath
       id="h">
      <path
         d="m 58.434,83.504 c 0,14.847 12.035,26.882 26.882,26.882 14.847,0 26.883,-12.035 26.883,-26.882 0,-14.847 -12.036,-26.883 -26.883,-26.883 -14.847,0 -26.882,12.036 -26.882,26.883 m 54.583,-0.346 c 0,15.49 -12.557,28.047 -28.047,28.047 -15.49,0 -28.047,-12.557 -28.047,-28.047 0,-15.49 12.557,-28.047 28.047,-28.047 15.49,0 28.047,12.557 28.047,28.047"
         id="path19"
         inkscape:connector-curvature="0" />
    </clipPath>
    <linearGradient
       id="a"
       x2="1"
       gradientTransform="matrix(39.664417,-39.664417,-39.664417,-39.664417,65.138191,102.98982)"
       gradientUnits="userSpaceOnUse">
      <stop
         offset="0"
         stop-opacity="0"
         stop-color="#fff"
         id="stop22" />
      <stop
         offset=".20751882"
         stop-color="#fff"
         id="stop24" />
      <stop
         offset=".5"
         stop-color="#fff"
         id="stop26" />
      <stop
         offset=".79248118"
         stop-color="#fff"
         id="stop28" />
      <stop
         offset="1"
         stop-opacity="0"
         stop-color="#fff"
         id="stop30" />
    </linearGradient>
    <mask
       id="j"
       width="1"
       height="1"
       x="0"
       y="0"
       maskUnits="userSpaceOnUse">
      <path
         d="M -32768,32767 H 32767 V -32768 H -32768 Z"
         id="path33"
         inkscape:connector-curvature="0"
         style="fill:url(#a)" />
    </mask>
    <linearGradient
       id="i"
       x2="1"
       gradientTransform="matrix(39.664417,-39.664417,-39.664417,-39.664417,65.138191,102.98982)"
       gradientUnits="userSpaceOnUse">
      <stop
         offset="0"
         stop-color="#231f20"
         id="stop36" />
      <stop
         offset=".20751882"
         stop-color="#231f20"
         id="stop38" />
      <stop
         offset=".5"
         stop-color="#231f20"
         id="stop40" />
      <stop
         offset=".79248118"
         stop-color="#231f20"
         id="stop42" />
      <stop
         offset="1"
         stop-color="#231f20"
         id="stop44" />
    </linearGradient>
    <clipPath
       id="k">
      <path
         d="m 111.507,82.812 c 0,-14.847 -12.036,-26.883 -26.882,-26.883 -14.847,0 -26.883,12.036 -26.883,26.883 0,14.847 12.036,26.883 26.883,26.883 14.846,0 26.882,-12.036 26.882,-26.883 m -54.583,0.346 c 0,-15.49 12.556,-28.047 28.047,-28.047 15.49,0 28.047,12.557 28.047,28.047 0,15.49 -12.557,28.047 -28.047,28.047 -15.491,0 -28.047,-12.557 -28.047,-28.047"
         id="path47"
         inkscape:connector-curvature="0" />
    </clipPath>
    <linearGradient
       id="b"
       x2="1"
       gradientTransform="matrix(-39.664425,39.664425,39.664425,39.664425,104.80286,63.325817)"
       gradientUnits="userSpaceOnUse">
      <stop
         offset="0"
         stop-opacity="0"
         stop-color="#fff"
         id="stop50" />
      <stop
         offset=".5"
         stop-color="#fff"
         id="stop52" />
      <stop
         offset="1"
         stop-opacity="0"
         stop-color="#fff"
         id="stop54" />
    </linearGradient>
    <mask
       id="m"
       width="1"
       height="1"
       x="0"
       y="0"
       maskUnits="userSpaceOnUse">
      <path
         d="M -32768,32767 H 32767 V -32768 H -32768 Z"
         id="path57"
         inkscape:connector-curvature="0"
         style="fill:url(#b)" />
    </mask>
    <linearGradient
       id="l"
       x2="1"
       gradientTransform="matrix(-39.664425,39.664425,39.664425,39.664425,104.80286,63.325817)"
       gradientUnits="userSpaceOnUse">
      <stop
         offset="0"
         stop-color="#fff"
         id="stop60" />
      <stop
         offset=".5"
         stop-color="#fff"
         id="stop62" />
      <stop
         offset="1"
         stop-color="#fff"
         id="stop64" />
    </linearGradient>
    <clipPath
       id="n">
      <path
         d="M 58.5181,328.248 H 111.58 V 275.186 H 58.5181 Z"
         id="path67"
         inkscape:connector-curvature="0" />
    </clipPath>
    <clipPath
       id="o">
      <path
         d="M 59.2057,327.408 H 110.739 V 275.874 H 59.2057 Z"
         id="path70"
         inkscape:connector-curvature="0" />
    </clipPath>
    <clipPath
       id="p">
      <path
         d="M 51.8069,334.806 H 118.138 V 268.475 H 51.8069 Z"
         id="path73"
         inkscape:connector-curvature="0" />
    </clipPath>
    <clipPath
       id="q">
      <path
         d="M 57.9564,252.304 H 111.018 V 199.242 H 57.9564 Z"
         id="path76"
         inkscape:connector-curvature="0" />
    </clipPath>
    <clipPath
       id="r">
      <path
         d="m 58.644,251.463 h 51.534 V 199.93 H 58.644 Z"
         id="path79"
         inkscape:connector-curvature="0" />
    </clipPath>
    <clipPath
       id="s">
      <path
         d="M 51.2453,258.862 H 117.577 V 192.531 H 51.2453 Z"
         id="path82"
         inkscape:connector-curvature="0" />
    </clipPath>
  </defs>
  <g
     clip-path="url(#c)"
     transform="matrix(0.59698784,0,0,-0.59698784,0,200)"
     id="g95">
    <path
       d="m 85.0995,0 c -45.962,0 -83.222,37.26 -83.222,83.222 0,45.963 37.26,83.222 83.222,83.222 45.962,0 83.222,-37.259 83.222,-83.222 C 168.3215,37.26 131.0615,0 85.0995,0"
       id="path87"
       inkscape:connector-curvature="0"
       style="fill:#231f20" />
    <g
       clip-path="url(#d)"
       id="g91"
       style="opacity:0.10000598">
      <path
         d="m 85.0992,6.1158 16.896,16.323 h -8.253 v 18.674 h -17.286 v -18.674 h -8.252 z m 54.5228,22.5835 0.405,23.489 -5.835,-5.835 -13.205,13.204 -12.223,-12.223 13.205,-13.204 -5.836,-5.836 z m 22.5841,54.5222 -16.323,16.896 v -8.252 h -18.674 v -17.287 h 18.674 v -8.252 z m -22.5834,54.5226 -23.489,0.405 5.835,-5.835 -13.205,-13.205 12.224,-12.223 13.204,13.205 5.836,-5.835 z m -54.5222,22.5844 -16.896,-16.322 h 8.252 v -18.675 h 17.287 v 18.674 l 8.252,10e-4 z m -54.5226,-22.5832 -0.405,-23.489 5.835,5.835 13.205,-13.205 12.223,12.223 -13.205,13.205 5.835,5.836 z M 7.9934,83.223 24.3154,66.328 v 8.251 h 18.675 v 17.286 h -18.674 l -0.001,8.253 z m 22.5833,-54.5226 23.489,-0.405 -5.835,5.835 13.205,13.205 -12.223,12.223 -13.205,-13.205 -5.836,5.835 z"
         id="path89"
         inkscape:connector-curvature="0"
         style="fill:#84849b" />
    </g>
    <path
       d="m 84.1609,0.0119 c -45.529,0.504 -82.284,37.562 -82.284,83.21 0,45.649 36.755,82.707 82.284,83.211 -0.313,0.003 -0.625,0.012 -0.939,0.012 -45.962,0 -83.222,-37.26 -83.222,-83.223 0,-45.962 37.26,-83.222 83.222,-83.222 0.314,0 0.626,0.009 0.939,0.012"
       id="path93"
       inkscape:connector-curvature="0"
       style="fill:#6d6e70" />
  </g>
  <path
     d="m 33.95428,150.31748 c 0,9.28376 7.526823,16.81058 16.810581,16.81058 9.284355,0 16.81058,-7.52682 16.81058,-16.81058 0,-9.28436 -7.526225,-16.81058 -16.81058,-16.81058 -9.283758,0 -16.810581,7.52622 -16.810581,16.81058"
     id="path97"
     inkscape:connector-curvature="0"
     style="fill:url(#e)" />
  <g
     clip-path="url(#f)"
     transform="matrix(0.59698784,0,0,-0.59698784,0,200)"
     id="g149">
    <g
       clip-path="url(#g)"
       id="g101"
       style="opacity:0.30000299">
      <path
         d="m 85.035,60.786 c -12.391,0 -22.436,10.045 -22.436,22.436 0,12.391 10.045,22.437 22.436,22.437 12.391,0 22.436,-10.046 22.436,-22.437 0,-12.391 -10.045,-22.436 -22.436,-22.436"
         id="path99"
         inkscape:connector-curvature="0"
         style="fill:#231f20" />
    </g>
    <g
       clip-path="url(#h)"
       id="g105"
       style="opacity:0.14999402">
      <path
         d="m 58.434,83.504 c 0,14.847 12.035,26.882 26.882,26.882 14.847,0 26.883,-12.035 26.883,-26.882 0,-14.847 -12.036,-26.883 -26.883,-26.883 -14.847,0 -26.882,12.036 -26.882,26.883 m 54.583,-0.346 c 0,15.49 -12.557,28.047 -28.047,28.047 -15.49,0 -28.047,-12.557 -28.047,-28.047 0,-15.49 12.557,-28.047 28.047,-28.047 15.49,0 28.047,12.557 28.047,28.047"
         mask="url(#j)"
         id="path103"
         inkscape:connector-curvature="0"
         style="fill:url(#i)" />
    </g>
    <g
       clip-path="url(#k)"
       id="g109"
       style="opacity:0.39999402">
      <path
         d="m 111.507,82.812 c 0,-14.847 -12.036,-26.883 -26.882,-26.883 -14.847,0 -26.883,12.036 -26.883,26.883 0,14.847 12.036,26.883 26.883,26.883 14.846,0 26.882,-12.036 26.882,-26.883 m -54.583,0.346 c 0,-15.49 12.556,-28.047 28.047,-28.047 15.49,0 28.047,12.557 28.047,28.047 0,15.49 -12.557,28.047 -28.047,28.047 -15.491,0 -28.047,-12.557 -28.047,-28.047"
         mask="url(#m)"
         id="path107"
         inkscape:connector-curvature="0"
         style="fill:url(#l)" />
    </g>
    <path
       d="m 85.049,268.4192 c -18.39,0 -33.298,14.908 -33.298,33.298 0,18.39 14.908,33.298 33.298,33.298 18.39,0 33.298,-14.908 33.298,-33.298 0,-18.39 -14.908,-33.298 -33.298,-33.298"
       id="path111"
       inkscape:connector-curvature="0"
       style="fill:#00adee" />
    <g
       clip-path="url(#n)"
       id="g115"
       style="opacity:0.30000299">
      <path
         d="m 85.049,275.1864 c -14.653,0 -26.531,11.878 -26.531,26.531 0,14.652 11.878,26.531 26.531,26.531 14.653,0 26.531,-11.879 26.531,-26.531 0,-14.653 -11.878,-26.531 -26.531,-26.531"
         id="path113"
         inkscape:connector-curvature="0"
         style="fill:#00adee" />
    </g>
    <path
       d="m 84.9726,275.8739 c -14.231,0 -25.767,11.536 -25.767,25.767 0,14.231 11.536,25.767 25.767,25.767 14.231,0 25.767,-11.536 25.767,-25.767 0,-14.231 -11.536,-25.767 -25.767,-25.767"
       id="path117"
       inkscape:connector-curvature="0"
       style="fill:#00adee" />
    <path
       d="m 84.9726,275.8739 c -14.231,0 -25.767,11.536 -25.767,25.767 0,14.231 11.536,25.767 25.767,25.767 14.231,0 25.767,-11.536 25.767,-25.767 0,-14.231 -11.536,-25.767 -25.767,-25.767"
       id="path119"
       inkscape:connector-curvature="0"
       style="fill:#00adee" />
    <g
       clip-path="url(#o)"
       id="g123"
       style="opacity:0.19999701">
      <path
         d="m 60.593,301.9589 c 0,13.64 11.057,24.697 24.697,24.697 13.64,0 24.698,-11.057 24.698,-24.697 0,-13.64 -11.058,-24.698 -24.698,-24.698 -13.64,0 -24.697,11.058 -24.697,24.698 m 50.146,-0.318 c 0,14.231 -11.536,25.767 -25.766,25.767 -14.231,0 -25.767,-11.536 -25.767,-25.767 0,-14.231 11.536,-25.767 25.767,-25.767 14.23,0 25.766,11.536 25.766,25.767"
         id="path121"
         inkscape:connector-curvature="0"
         style="fill:#00adee" />
    </g>
    <g
       clip-path="url(#p)"
       id="g127"
       style="opacity:0.14999402">
      <path
         d="m 53.5926,302.0498 c 0,17.557 14.233,31.789 31.789,31.789 17.557,0 31.789,-14.232 31.789,-31.789 0,-17.556 -14.232,-31.789 -31.789,-31.789 -17.556,0 -31.789,14.233 -31.789,31.789 m 64.546,-0.409 c 0,18.317 -14.849,33.166 -33.166,33.166 -18.317,0 -33.166,-14.849 -33.166,-33.166 0,-18.317 14.849,-33.165 33.166,-33.165 18.317,0 33.166,14.848 33.166,33.165"
         id="path125"
         inkscape:connector-curvature="0"
         style="fill:#00adee" />
    </g>
    <path
       d="m 84.4874,192.475 c -18.39,0 -33.298,14.908 -33.298,33.298 0,18.39 14.908,33.298 33.298,33.298 18.39,0 33.298,-14.908 33.298,-33.298 0,-18.39 -14.908,-33.298 -33.298,-33.298"
       id="path129"
       inkscape:connector-curvature="0"
       style="fill:#00adee" />
    <g
       clip-path="url(#q)"
       id="g133"
       style="opacity:0.30000299">
      <path
         d="m 84.4874,199.2422 c -14.653,0 -26.531,11.878 -26.531,26.531 0,14.652 11.878,26.531 26.531,26.531 14.653,0 26.531,-11.879 26.531,-26.531 0,-14.653 -11.878,-26.531 -26.531,-26.531"
         id="path131"
         inkscape:connector-curvature="0"
         style="fill:#00adee" />
    </g>
    <path
       d="m 84.411,199.9297 c -14.231,0 -25.767,11.536 -25.767,25.767 0,14.231 11.536,25.767 25.767,25.767 14.231,0 25.767,-11.536 25.767,-25.767 0,-14.231 -11.536,-25.767 -25.767,-25.767"
       id="path135"
       inkscape:connector-curvature="0"
       style="fill:#00adee" />
    <path
       d="m 84.411,199.9297 c -14.231,0 -25.767,11.536 -25.767,25.767 0,14.231 11.536,25.767 25.767,25.767 14.231,0 25.767,-11.536 25.767,-25.767 0,-14.231 -11.536,-25.767 -25.767,-25.767"
       id="path137"
       inkscape:connector-curvature="0"
       style="fill:#00adee" />
    <g
       clip-path="url(#r)"
       id="g141"
       style="opacity:0.19999701">
      <path
         d="m 60.0314,226.0147 c 0,13.64 11.057,24.697 24.697,24.697 13.64,0 24.698,-11.057 24.698,-24.697 0,-13.64 -11.058,-24.698 -24.698,-24.698 -13.64,0 -24.697,11.058 -24.697,24.698 m 50.146,-0.318 c 0,14.231 -11.536,25.767 -25.766,25.767 -14.231,0 -25.767,-11.536 -25.767,-25.767 0,-14.231 11.536,-25.767 25.767,-25.767 14.23,0 25.766,11.536 25.766,25.767"
         id="path139"
         inkscape:connector-curvature="0"
         style="fill:#00adee" />
    </g>
    <g
       clip-path="url(#s)"
       id="g145"
       style="opacity:0.14999402">
      <path
         d="m 53.031,226.1056 c 0,17.557 14.233,31.789 31.789,31.789 17.557,0 31.789,-14.232 31.789,-31.789 0,-17.556 -14.232,-31.789 -31.789,-31.789 -17.556,0 -31.789,14.233 -31.789,31.789 m 64.546,-0.409 c 0,18.317 -14.849,33.165 -33.166,33.165 -18.317,0 -33.166,-14.848 -33.166,-33.165 0,-18.317 14.849,-33.165 33.166,-33.165 18.317,0 33.166,14.848 33.166,33.165"
         id="path143"
         inkscape:connector-curvature="0"
         style="fill:#00adee" />
    </g>
    <path
       d="m 144.7076,82.8081 c 0,-21.185 -17.173,-38.358 -38.358,-38.358 -21.185,0 -38.358,17.173 -38.358,38.358 0,21.185 17.173,38.358 38.358,38.358 21.185,0 38.358,-17.173 38.358,-38.358"
       id="path147"
       inkscape:connector-curvature="0"
       style="fill:#00adee" />
  </g>
</svg>
