<?xml version="1.0" encoding="UTF-8" standalone="no"?>
<svg
   xmlns:dc="http://purl.org/dc/elements/1.1/"
   xmlns:cc="http://creativecommons.org/ns#"
   xmlns:rdf="http://www.w3.org/1999/02/22-rdf-syntax-ns#"
   xmlns:svg="http://www.w3.org/2000/svg"
   xmlns="http://www.w3.org/2000/svg"
   xmlns:sodipodi="http://sodipodi.sourceforge.net/DTD/sodipodi-0.dtd"
   xmlns:inkscape="http://www.inkscape.org/namespaces/inkscape"
   viewBox="-290 382 30 30"
   version="1.1"
   id="svg18"
   sodipodi:docname="icon_filled.svg"
   inkscape:version="0.92.4 5da689c313, 2019-01-14">
  <metadata
     id="metadata24">
    <rdf:RDF>
      <cc:Work
         rdf:about="">
        <dc:format>image/svg+xml</dc:format>
        <dc:type
           rdf:resource="http://purl.org/dc/dcmitype/StillImage" />
      </cc:Work>
    </rdf:RDF>
  </metadata>
  <defs
     id="defs22" />
  <sodipodi:namedview
     pagecolor="#ffffff"
     bordercolor="#666666"
     borderopacity="1"
     objecttolerance="10"
     gridtolerance="10"
     guidetolerance="10"
     inkscape:pageopacity="0"
     inkscape:pageshadow="2"
     inkscape:window-width="640"
     inkscape:window-height="480"
     id="namedview20"
     showgrid="false"
     inkscape:zoom="7.8666667"
     inkscape:cx="15"
     inkscape:cy="15"
     inkscape:window-x="0"
     inkscape:window-y="0"
     inkscape:window-maximized="0"
     inkscape:current-layer="svg18">
    <inkscape:grid
       type="xygrid"
       id="grid834" />
  </sodipodi:namedview>
  <path
     fill="#9E602D"
     d="M-267.5 385.6l-9.5-.4-9.5.4s-6.7 8.4 0 22.5h19c6.7-14 0-22.5 0-22.5"
     id="path2" />
  <path
     fill="#955829"
     d="M-281.7 385.2s-4.3 9.5 0 24.1h4.7v-24.5l-4.7.4m14.2.4l-4.7-.2c.6 1.4 3.7 10 .2 22.8h4.5c6.7-14.1 0-22.6 0-22.6"
     id="path4" />
  <path
     fill="#5B6472"
     d="M-287.3 408.2h20.5v3.2h-20.5v-3.2zm0-25.6h20.5v3.2h-20.5v-3.2zm23.3 11.8h-26l.5-3.2h25l.5 3.2zm-26 6.3h26l-.5 3.2h-25l-.5-3.2z"
     id="path6" />
  <path
     fill="#FF0019"
     d="M-269.1 392.7l-4.2-1.2-.3.7-.2-.4-3.3.6-.1 2.7s-1.6-5.1-7.7-2.8l2.4 10.1s4.2.8 5.1-2.6v2.3h3.2v-.3l.3.4 3.7-1.2-1.9-3.8 3-4.5m-11.5 5.1l-.3-1.5s.5 0 .6.7c.2.7-.3.8-.3.8"
     id="path8" />
  <g
     fill="#FFC200"
     id="g14">
    <path
       d="M-281.5 402h-.6c-.1 0-.2-.1-.2-.2l-2.1-9c0-.1 0-.2.1-.2.4-.2 1.1-.4 2-.4.7 0 2.1.1 3.2 1 1.1.8 1.7 2.2 1.8 3.9.1 1.7-.3 3-1.2 3.8-.9.9-2.3 1.1-3 1.1m-.3-.5h.3c.6 0 1.8-.1 2.7-1 .7-.8 1.1-1.9 1-3.5-.1-1.6-.6-2.8-1.6-3.6-1-.8-2.3-.9-2.9-.9-.7 0-1.3.1-1.6.3l2.1 8.7m8.4.4c-.1 0-.2-.1-.2-.1l-.6-1.3v1.1c0 .1-.1.2-.2.2l-2.2.2c-.1 0-.1 0-.2-.1 0 0-.1-.1-.1-.2l.3-8.8c0-.1.1-.2.2-.2l2.2-.4c.1 0 .1 0 .2.1.1 0 .1.1.1.2v1.7l.9-2c0-.1.2-.2.3-.1l3 .7c.1 0 .1.1.2.1v.2l-2.8 4 1.9 3.6v.2c0 .1-.1.1-.1.1l-2.9.8c.1 0 0 0 0 0m-2.8-8.9l-.3 8.4 1.7-.1.1-1.8c0-.1.1-.2.2-.2s.2 0 .3.1l.9 2 2.2-.7-1.9-3.5v-.2l2.7-3.8-2.5-.6-1.2 2.9c0 .1-.2.2-.3.1-.1 0-.2-.1-.2-.2v-2.5l-1.7.1"
       id="path10" />
    <path
       d="M-280.9 398.9c-.1 0-.2-.1-.3-.2l-.7-3.1c0-.1 0-.2.1-.3.1 0 .4-.2.8-.2.5 0 1.4.2 1.6 1.7.1.6 0 1.1-.3 1.5-.3.6-1 .6-1.2.6m-.5-3.2l.6 2.7c.2 0 .6-.1.8-.4.2-.2.3-.6.2-1.1-.1-.9-.5-1.3-1.2-1.3-.1.1-.2.1-.4.1"
       id="path12" />
  </g>
  <path
     fill="#6B7483"
     d="M-284.4 382.9h6v2.4h-6v-2.4zm0 25.7h6v2.4h-6v-2.4z"
     id="path16" />
</svg>
