<?xml version="1.0" encoding="UTF-8" standalone="no"?>
<!-- Generator: Adobe Illustrator 22.0.0, SVG Export Plug-In . SVG Version: 6.00 Build 0)  -->

<svg
   xmlns:dc="http://purl.org/dc/elements/1.1/"
   xmlns:cc="http://creativecommons.org/ns#"
   xmlns:rdf="http://www.w3.org/1999/02/22-rdf-syntax-ns#"
   xmlns:svg="http://www.w3.org/2000/svg"
   xmlns="http://www.w3.org/2000/svg"
   xmlns:xlink="http://www.w3.org/1999/xlink"
   xmlns:sodipodi="http://sodipodi.sourceforge.net/DTD/sodipodi-0.dtd"
   xmlns:inkscape="http://www.inkscape.org/namespaces/inkscape"
   version="1.1"
   id="Capa_1"
   x="0px"
   y="0px"
   viewBox="0 0 279.77199 137.28"
   xml:space="preserve"
   sodipodi:docname="controls.svg"
   width="279.772"
   height="137.28"
   inkscape:version="0.92.4 5da689c313, 2019-01-14"><metadata
   id="metadata427"><rdf:RDF><cc:Work
       rdf:about=""><dc:format>image/svg+xml</dc:format><dc:type
         rdf:resource="http://purl.org/dc/dcmitype/StillImage" /></cc:Work></rdf:RDF></metadata><defs
   id="defs425" /><sodipodi:namedview
   pagecolor="#ffffff"
   bordercolor="#666666"
   borderopacity="1"
   objecttolerance="10"
   gridtolerance="10"
   guidetolerance="10"
   inkscape:pageopacity="0"
   inkscape:pageshadow="2"
   inkscape:window-width="640"
   inkscape:window-height="480"
   id="namedview423"
   showgrid="false"
   inkscape:zoom="0.9686424"
   inkscape:cx="139.88651"
   inkscape:cy="68.640001"
   inkscape:window-x="0"
   inkscape:window-y="0"
   inkscape:window-maximized="0"
   inkscape:current-layer="Capa_1"><inkscape:grid
     type="xygrid"
     id="grid1234"
     originx="0"
     originy="1.2207031e-06" /></sodipodi:namedview>
<g
   id="g268">
	<path
   style="fill:#4e494d"
   d="M 220.663,137.28 H 21.51 C 12.87,137.28 5.8,130.211 5.8,121.57 V 49.426 C 5.8,36.377 16.477,25.7 29.526,25.7 h 183.121 c 13.049,0 23.726,10.677 23.726,23.726 v 72.145 c 0,8.64 -7.069,15.709 -15.71,15.709 z"
   id="path2"
   inkscape:connector-curvature="0" />
	<path
   style="fill:#82929d"
   d="M 214.863,131.479 H 15.71 C 7.07,131.479 0,124.41 0,115.769 V 43.625 C 0,30.576 10.677,19.899 23.726,19.899 h 183.121 c 13.049,0 23.726,10.677 23.726,23.726 v 72.145 c 0,8.64 -7.07,15.709 -15.71,15.709 z"
   id="path4"
   inkscape:connector-curvature="0" />
	<g
   id="g12">
		<path
   style="fill:#824a30"
   d="m 95.545,117.344 v -3.063 h -3.059 v -9.184 h 3.059 v -3.063 h 9.184 v 3.063 h -6.122 v 9.184 h 6.122 v 3.063 z m 9.185,-3.063 v -9.184 h 3.063 v 9.184 z"
   id="path6"
   inkscape:connector-curvature="0" />
		<path
   style="fill:#824a30"
   d="m 110.855,117.344 v -15.31 h 6.122 v 3.063 h 3.063 v 3.063 h 3.059 v -6.126 h 3.063 v 15.31 h -3.063 v -3.063 h -3.059 v -3.063 h -3.063 v 6.126 z"
   id="path8"
   inkscape:connector-curvature="0" />
		<path
   style="fill:#824a30"
   d="m 129.223,117.344 v -15.31 h 15.306 v 3.063 h -9.184 v 3.063 h 6.122 v 3.058 h -6.122 v 3.063 h 9.184 v 3.063 z"
   id="path10"
   inkscape:connector-curvature="0" />
	</g>
	<g
   id="g30">
		<g
   id="g20">
			<g
   id="g18">
				<rect
   x="164.873"
   y="47.777"
   style="fill:#824a30"
   width="24.048"
   height="15.301"
   id="rect14" />
				<rect
   x="167.894"
   y="44.833"
   style="fill:#824a30"
   width="18.046"
   height="20.987"
   id="rect16" />
			</g>
		</g>
		<g
   id="g28">
			<g
   id="g26">
				<rect
   x="164.873"
   y="44.998001"
   style="fill:#c87a31"
   width="24.048"
   height="15.301"
   id="rect22" />
				<rect
   x="167.894"
   y="42.054001"
   style="fill:#c87a31"
   width="18.046"
   height="20.987"
   id="rect24" />
			</g>
		</g>
	</g>
	<g
   id="g48">
		<g
   id="g38">
			<g
   id="g36">
				<rect
   x="164.873"
   y="96.114998"
   style="fill:#356231"
   width="24.048"
   height="15.301"
   id="rect32" />
				<rect
   x="167.894"
   y="93.171997"
   style="fill:#356231"
   width="18.046"
   height="20.987"
   id="rect34" />
			</g>
		</g>
		<g
   id="g46">
			<g
   id="g44">
				<rect
   x="164.873"
   y="93.335999"
   style="fill:#6ba13b"
   width="24.048"
   height="15.301"
   id="rect40" />
				<rect
   x="167.894"
   y="90.391998"
   style="fill:#6ba13b"
   width="18.046"
   height="20.987"
   id="rect42" />
			</g>
		</g>
	</g>
	<g
   id="g54">
		<g
   id="g52">
			<path
   style="fill:#824a30"
   d="m 170.774,51.018 v -6.121 h 3.063 v 6.121 z m 9.184,6.122 v -3.058 h -6.122 v -3.063 h 6.122 v -6.121 h 3.063 V 57.14 Z m -6.122,3.058 V 57.14 h 6.122 v 3.058 z"
   id="path50"
   inkscape:connector-curvature="0" />
		</g>
	</g>
	<g
   id="g70">
		<g
   id="g62">
			<g
   id="g60">
				<rect
   x="188.925"
   y="71.801003"
   style="fill:#432333"
   width="24.048"
   height="15.301"
   id="rect56" />
				<rect
   x="191.946"
   y="68.857002"
   style="fill:#432333"
   width="18.046"
   height="20.987"
   id="rect58" />
			</g>
		</g>
		<g
   id="g68">
			<rect
   x="188.925"
   y="69.021004"
   style="fill:#c44747"
   width="24.048"
   height="15.301"
   id="rect64" />
			<rect
   x="191.946"
   y="66.078003"
   style="fill:#c44747"
   width="18.046"
   height="20.987"
   id="rect66" />
		</g>
	</g>
	<g
   id="g88">
		<g
   id="g78">
			<g
   id="g76">
				<rect
   x="140.82899"
   y="71.801003"
   style="fill:#2e3268"
   width="24.048"
   height="15.301"
   id="rect72" />
				<rect
   x="143.85001"
   y="68.857002"
   style="fill:#2e3268"
   width="18.046"
   height="20.987"
   id="rect74" />
			</g>
		</g>
		<g
   id="g86">
			<g
   id="g84">
				<rect
   x="140.82899"
   y="69.021004"
   style="fill:#5472b1"
   width="24.048"
   height="15.301"
   id="rect80" />
				<rect
   x="143.85001"
   y="66.078003"
   style="fill:#5472b1"
   width="18.046"
   height="20.987"
   id="rect82" />
			</g>
		</g>
	</g>
	<g
   id="g106">
		<g
   id="g96">
			<g
   id="g94">
				<rect
   x="44.994999"
   y="47.777"
   style="fill:#4e494d"
   width="24.048"
   height="15.301"
   id="rect90" />
				<rect
   x="48.015999"
   y="44.833"
   style="fill:#4e494d"
   width="18.046"
   height="20.987"
   id="rect92" />
			</g>
		</g>
		<g
   id="g104">
			<g
   id="g102">
				<rect
   x="44.994999"
   y="44.998001"
   style="fill:#747060"
   width="24.048"
   height="15.301"
   id="rect98" />
				<rect
   x="48.015999"
   y="42.054001"
   style="fill:#747060"
   width="18.046"
   height="20.987"
   id="rect100" />
			</g>
		</g>
	</g>
	<g
   id="g122">
		<g
   id="g114">
			<g
   id="g112">
				<rect
   x="44.994999"
   y="96.114998"
   style="fill:#4e494d"
   width="24.048"
   height="15.301"
   id="rect108" />
				<rect
   x="48.015999"
   y="93.171997"
   style="fill:#4e494d"
   width="18.046"
   height="20.987"
   id="rect110" />
			</g>
		</g>
		<g
   id="g120">
			<rect
   x="44.994999"
   y="93.335999"
   style="fill:#747060"
   width="24.048"
   height="15.301"
   id="rect116" />
			<rect
   x="48.015999"
   y="90.391998"
   style="fill:#747060"
   width="18.046"
   height="20.987"
   id="rect118" />
		</g>
	</g>
	<g
   id="g140">
		<g
   id="g130">
			<g
   id="g128">
				<rect
   x="69.045998"
   y="71.801003"
   style="fill:#4e494d"
   width="24.048"
   height="15.301"
   id="rect124" />
				<rect
   x="72.067001"
   y="68.857002"
   style="fill:#4e494d"
   width="18.046"
   height="20.987"
   id="rect126" />
			</g>
		</g>
		<g
   id="g138">
			<g
   id="g136">
				<rect
   x="69.045998"
   y="69.021004"
   style="fill:#747060"
   width="24.048"
   height="15.301"
   id="rect132" />
				<rect
   x="72.067001"
   y="66.078003"
   style="fill:#747060"
   width="18.046"
   height="20.987"
   id="rect134" />
			</g>
		</g>
	</g>
	<g
   id="g156">
		<g
   id="g148">
			<g
   id="g146">
				<rect
   x="20.951"
   y="71.801003"
   style="fill:#4e494d"
   width="24.048"
   height="15.301"
   id="rect142" />
				<rect
   x="23.972"
   y="68.857002"
   style="fill:#4e494d"
   width="18.046"
   height="20.987"
   id="rect144" />
			</g>
		</g>
		<g
   id="g154">
			<rect
   x="20.951"
   y="69.021004"
   style="fill:#747060"
   width="24.048"
   height="15.301"
   id="rect150" />
			<rect
   x="23.972"
   y="66.078003"
   style="fill:#747060"
   width="18.046"
   height="20.987"
   id="rect152" />
		</g>
	</g>
	<g
   id="g162">
		<g
   id="g160">
			<path
   style="fill:#432333"
   d="M 194.826,84.224 V 68.918 h 9.182 v 3.063 h -6.123 v 3.058 h 6.123 v 3.063 h -6.123 v 3.063 h 6.123 v 3.058 h -9.182 z m 9.183,-9.184 v -3.058 h 3.063 v 3.058 z m 0,6.126 v -3.063 h 3.063 v 3.063 z"
   id="path158"
   inkscape:connector-curvature="0" />
		</g>
	</g>
	<g
   id="g168">
		<g
   id="g166">
			<path
   style="fill:#2e3268"
   d="m 146.731,84.338 v -6.126 h 3.059 v -3.058 h -3.059 v -6.126 h 3.061 v 6.126 h 6.122 v 3.058 h -6.122 v 6.126 z m 9.182,-9.184 v -6.126 h 3.063 v 6.126 z m 0,9.184 v -6.126 h 3.063 v 6.126 z"
   id="path164"
   inkscape:connector-curvature="0" />
		</g>
	</g>
	<g
   id="g174">
		<g
   id="g172">
			<path
   style="fill:#356231"
   d="M 170.789,108.343 V 96.1 h 3.059 v 6.121 h 6.123 V 96.1 h 3.063 v 12.243 h -3.063 v -3.058 h -6.123 v 3.058 z m 3.06,-12.243 v -3.063 h 6.122 V 96.1 Z"
   id="path170"
   inkscape:connector-curvature="0" />
		</g>
	</g>
	<g
   id="g182">
		<rect
   x="47.863998"
   y="54.068001"
   style="fill:#4e494d"
   width="17.986"
   height="3.0209999"
   id="rect176" />
		<rect
   x="50.890999"
   y="51.036999"
   style="fill:#4e494d"
   width="11.933"
   height="3.0209999"
   id="rect178" />
		<rect
   x="53.851002"
   y="48.006001"
   style="fill:#4e494d"
   width="6.0120001"
   height="3.0209999"
   id="rect180" />
	</g>
	<g
   id="g190">
		
			<rect
   x="48.207001"
   y="96.344002"
   transform="rotate(-180,57.20035,97.8543)"
   style="fill:#4e494d"
   width="17.986"
   height="3.0209999"
   id="rect184" />
		
			<rect
   x="51.234001"
   y="99.375"
   transform="rotate(-180,57.20035,100.8855)"
   style="fill:#4e494d"
   width="11.933"
   height="3.0209999"
   id="rect186" />
		
			<rect
   x="54.194"
   y="102.406"
   transform="rotate(-180,57.20035,103.9167)"
   style="fill:#4e494d"
   width="6.0120001"
   height="3.0209999"
   id="rect188" />
	</g>
	<g
   id="g198">
		
			<rect
   x="28.306999"
   y="75.060997"
   transform="rotate(-90,35.8306,76.5712)"
   style="fill:#4e494d"
   width="15.046"
   height="3.0209999"
   id="rect192" />
		
			<rect
   x="28.298"
   y="75.060997"
   transform="rotate(-90,32.7994,76.5712)"
   style="fill:#4e494d"
   width="9.0030003"
   height="3.0209999"
   id="rect194" />
		
			<rect
   x="28.257999"
   y="75.060997"
   transform="rotate(-90,29.7682,76.5712)"
   style="fill:#4e494d"
   width="3.0209999"
   height="3.0209999"
   id="rect196" />
	</g>
	<g
   id="g206">
		
			<rect
   x="70.711998"
   y="75.060997"
   transform="rotate(-90,78.235,76.5712)"
   style="fill:#4e494d"
   width="15.046"
   height="3.0209999"
   id="rect200" />
		
			<rect
   x="76.764999"
   y="75.060997"
   transform="rotate(-90,81.2662,76.5712)"
   style="fill:#4e494d"
   width="9.0030003"
   height="3.0209999"
   id="rect202" />
		
			<rect
   x="82.787003"
   y="75.060997"
   transform="rotate(-90,84.2974,76.5712)"
   style="fill:#4e494d"
   width="3.0209999"
   height="3.0209999"
   id="rect204" />
	</g>
	<rect
   x="20.951"
   y="27.065001"
   style="fill:#747060"
   width="192.022"
   height="3.003"
   id="rect208" />
	<rect
   x="17.844999"
   y="126.111"
   style="fill:#4e494d"
   width="195.12801"
   height="3.003"
   id="rect210" />
	<g
   id="g218">
		<g
   id="g216">
			<rect
   x="11.833"
   y="123.108"
   style="fill:#4e494d"
   width="3.003"
   height="3.003"
   id="rect212" />
			<rect
   x="8.8299999"
   y="120.106"
   style="fill:#4e494d"
   width="3.003"
   height="3.003"
   id="rect214" />
		</g>
	</g>
	<g
   id="g226">
		<g
   id="g224">
			<rect
   x="14.854"
   y="30.068001"
   style="fill:#747060"
   width="3.003"
   height="3.003"
   id="rect220" />
			<rect
   x="11.851"
   y="33.070999"
   style="fill:#747060"
   width="3.003"
   height="3.003"
   id="rect222" />
		</g>
	</g>
	<g
   id="g232">
		<g
   id="g230">
			<rect
   x="8.849"
   y="36.073002"
   style="fill:#4e494d"
   width="3.003"
   height="3.003"
   id="rect228" />
		</g>
	</g>
	<g
   id="g238">
		<g
   id="g236">
			<rect
   x="5.8460002"
   y="42.054001"
   style="fill:#4e494d"
   width="3.003"
   height="75.044998"
   id="rect234" />
		</g>
	</g>
	
		<rect
   x="215.90199"
   y="123.108"
   transform="rotate(-180,217.40345,124.6098)"
   style="fill:#4e494d"
   width="3.003"
   height="3.003"
   id="rect240" />
	<g
   id="g248">
		<g
   id="g246">
			<rect
   x="215.909"
   y="30.068001"
   style="fill:#747060"
   width="3.003"
   height="3.003"
   id="rect242" />
			<rect
   x="218.911"
   y="33.070999"
   style="fill:#747060"
   width="3.003"
   height="3.003"
   id="rect244" />
		</g>
	</g>
	<g
   id="g254">
		<g
   id="g252">
			<rect
   x="221.914"
   y="39.092999"
   style="fill:#4e494d"
   width="3.003"
   height="75.044998"
   id="rect250" />
		</g>
	</g>
	<g
   id="g266">
		<g
   id="g264">
			<rect
   x="218.916"
   y="120.118"
   style="fill:#747060"
   width="3.003"
   height="3.003"
   id="rect256" />
			<g
   id="g262">
				<g
   id="g260">
					<rect
   x="221.92"
   y="117.115"
   style="fill:#747060"
   width="3.003"
   height="3.003"
   id="rect258" />
				</g>
			</g>
		</g>
	</g>
</g>
<ellipse
   style="fill:#434547"
   cx="209.74001"
   cy="76.570999"
   rx="1.7690001"
   ry="1.808"
   id="ellipse270" />
<polyline
   style="fill:#434547"
   points="221.71,76.301 209.74,76.267 209.74,76.841 221.71,76.875 "
   id="polyline272" />
<g
   id="g296">
	<path
   style="fill:#f5f4f4"
   d="m 276.252,61.021 h -52.313 c -1.538,0 -2.786,1.247 -2.786,2.786 v 25.529 c 0,1.539 1.248,2.786 2.786,2.786 h 52.313 c 1.538,0 2.786,-1.247 2.786,-2.786 V 63.807 c -0.001,-1.539 -1.248,-2.786 -2.786,-2.786"
   id="path274"
   inkscape:connector-curvature="0" />
	<path
   style="fill:#35485c"
   d="m 223.938,61.021 v 0.736 h 52.313 c 1.131,0.002 2.048,0.918 2.05,2.05 v 25.529 c -0.002,1.132 -0.918,2.048 -2.05,2.05 h -52.313 c -1.131,-0.002 -2.048,-0.918 -2.05,-2.05 V 63.807 c 0.002,-1.131 0.918,-2.048 2.05,-2.05 v -0.736 -0.736 c -1.945,0.001 -3.521,1.576 -3.521,3.521 v 25.529 c 0.001,1.945 1.577,3.521 3.521,3.521 h 52.313 c 1.945,0 3.521,-1.576 3.521,-3.521 V 63.807 c -10e-4,-1.945 -1.576,-3.521 -3.521,-3.521 h -52.313 z"
   id="path276"
   inkscape:connector-curvature="0" />
	<path
   style="fill:#35485c"
   d="m 265.802,79.101 h -4.787 l -1.074,2.981 h -1.553 l 4.362,-11.424 h 1.318 l 4.371,11.424 h -1.546 z m -4.331,-1.24 h 3.884 l -1.945,-5.343 z"
   id="path278"
   inkscape:connector-curvature="0" />
	<g
   id="g294">
		<defs
   id="defs281">
			<polyline
   id="SVGID_1_"
   points="222.965,63.169 250.065,63.169 250.065,90.268 222.965,90.268 222.965,63.169    " />
		</defs>
		<clipPath
   id="SVGID_2_">
			<use
   xlink:href="#SVGID_1_"
   style="overflow:visible"
   id="use283"
   x="0"
   y="0"
   width="100%"
   height="100%" />
		</clipPath>
		<path
   style="fill:#35485c"
   d="m 245.071,79.948 c -2.067,0 -3.742,-1.676 -3.742,-3.743 0,-2.067 1.676,-3.742 3.742,-3.742 2.067,0 3.742,1.675 3.742,3.742 0,2.067 -1.676,3.743 -3.742,3.743 m -7.876,-6.14 c -2.067,0 -3.742,-1.676 -3.742,-3.743 0,-2.066 1.675,-3.742 3.742,-3.742 2.068,0 3.742,1.676 3.742,3.742 10e-4,2.067 -1.674,3.743 -3.742,3.743 M 235.847,87.2 c -2.067,0 -3.742,-1.676 -3.742,-3.742 0,-2.067 1.676,-3.743 3.742,-3.743 2.067,0 3.742,1.675 3.742,3.743 0,2.065 -1.676,3.742 -3.742,3.742 m -7.779,-6.297 c -2.068,0 -3.742,-1.675 -3.742,-3.743 0,-2.067 1.675,-3.742 3.742,-3.742 2.067,0 3.742,1.675 3.742,3.742 0,2.068 -1.675,3.743 -3.742,3.743 m 8.499,-17.734 c -7.47,0 -13.526,6.055 -13.526,13.526 0,7.47 6.056,13.526 13.526,13.526 7.47,0 13.525,-6.056 13.525,-13.526 0,-7.471 -6.055,-13.526 -13.525,-13.526"
   clip-path="url(#SVGID_2_)"
   id="path286"
   inkscape:connector-curvature="0" />
		<path
   style="fill:#35485c"
   d="m 238.493,83.457 c 0,1.461 -1.185,2.646 -2.646,2.646 -1.461,0 -2.646,-1.185 -2.646,-2.646 0,-1.462 1.185,-2.646 2.646,-2.646 1.461,0 2.646,1.184 2.646,2.646"
   clip-path="url(#SVGID_2_)"
   id="path288"
   inkscape:connector-curvature="0" />
		<path
   style="fill:#35485c"
   d="m 230.855,77.161 c 0,1.539 -1.248,2.788 -2.787,2.788 -1.539,0 -2.787,-1.249 -2.787,-2.788 0,-1.54 1.248,-2.787 2.787,-2.787 1.539,0 2.787,1.247 2.787,2.787"
   clip-path="url(#SVGID_2_)"
   id="path290"
   inkscape:connector-curvature="0" />
		<path
   style="fill:#35485c"
   d="m 239.837,70.141 c 0,1.462 -1.186,2.646 -2.647,2.646 -1.461,0 -2.646,-1.184 -2.646,-2.646 0,-1.462 1.185,-2.646 2.646,-2.646 1.462,0 2.647,1.184 2.647,2.646"
   clip-path="url(#SVGID_2_)"
   id="path292"
   inkscape:connector-curvature="0" />
	</g>
</g>
<ellipse
   style="fill:#434547"
   cx="57.200001"
   cy="76.830002"
   rx="1.808"
   ry="1.7690001"
   id="ellipse298" />
<polyline
   style="fill:#434547"
   points="56.93,32.207 56.896,76.828 57.471,76.83 57.505,32.208 "
   id="polyline300" />
<ellipse
   style="fill:#434547"
   cx="152.853"
   cy="72.413002"
   rx="1.808"
   ry="1.7690001"
   id="ellipse302" />
<polyline
   style="fill:#434547"
   points="152.583,32.207 152.549,72.412 153.124,72.413 153.158,32.208 "
   id="polyline304" />
<g
   id="g340">
	<path
   style="fill:#f5f4f4"
   d="M 100.51,0.915 H 16.149 c -1.533,0 -2.775,1.243 -2.775,2.776 v 25.436 c 0,1.532 1.243,2.775 2.775,2.775 h 84.361 c 1.532,0 2.775,-1.243 2.775,-2.775 V 3.691 c 0,-1.533 -1.242,-2.776 -2.775,-2.776"
   id="path306"
   inkscape:connector-curvature="0" />
	<path
   style="fill:#35485c"
   d="M 16.149,0.915 V 1.83 h 84.361 c 1.026,0.002 1.858,0.833 1.859,1.86 v 25.436 c -0.002,1.026 -0.833,1.858 -1.859,1.859 H 16.149 c -1.027,-0.002 -1.858,-0.833 -1.86,-1.859 V 3.691 c 0.002,-1.027 0.833,-1.859 1.86,-1.86 V 0.915 0 c -2.039,0.001 -3.69,1.652 -3.691,3.691 v 25.436 c 10e-4,2.038 1.652,3.69 3.691,3.69 h 84.361 c 2.038,-10e-4 3.69,-1.652 3.69,-3.69 V 3.691 C 104.2,1.652 102.549,0.001 100.51,0 H 16.149 Z"
   id="path308"
   inkscape:connector-curvature="0" />
	<path
   style="fill:#35485c"
   d="m 31.423,30.327 h -5.308 c -1.709,0 -2.328,-1.393 -2.328,-2.329 V 21.48 h -6.52 c -1.709,0 -2.33,-1.394 -2.33,-2.33 v -5.307 c 0,-1.708 1.394,-2.329 2.33,-2.329 h 6.52 v -6.52 c 0,-1.709 1.392,-2.329 2.328,-2.329 h 5.308 c 1.709,0 2.33,1.394 2.33,2.329 v 6.519 h 6.517 c 0.897,0 1.608,0.392 2.003,1.105 0.154,0.28 0.341,0.83 0.321,1.223 H 42.6 v 5.307 c 0,1.709 -1.393,2.33 -2.33,2.33 h -6.517 v 6.518 c 0,1.711 -1.394,2.331 -2.33,2.331 z M 17.267,12.632 c -0.281,0.004 -1.21,0.104 -1.21,1.209 v 5.307 c 0.005,0.281 0.104,1.21 1.21,1.21 h 7.639 v 7.639 c 0.004,0.28 0.104,1.21 1.208,1.21 h 5.306 c 0.287,-0.005 1.212,-0.106 1.212,-1.21 v -7.638 h 7.638 c 0.281,-0.004 1.21,-0.104 1.21,-1.21 v -5.316 c -0.004,-0.214 -0.084,-1.2 -1.209,-1.2 h -7.637 v -7.64 c -0.004,-0.28 -0.103,-1.21 -1.21,-1.21 h -5.308 c -0.281,0.005 -1.208,0.104 -1.208,1.21 v 7.639 z"
   id="path310"
   inkscape:connector-curvature="0" />
	<path
   style="fill:#35485c"
   d="m 28.77,19.222 c -1.502,0 -2.724,-1.222 -2.724,-2.725 0,-1.503 1.222,-2.725 2.724,-2.725 1.502,0 2.725,1.222 2.725,2.725 0,1.503 -1.223,2.725 -2.725,2.725 z m 0,-4.331 c -0.885,0 -1.604,0.721 -1.604,1.605 0,0.886 0.719,1.605 1.604,1.605 0.886,0 1.605,-0.72 1.605,-1.605 0,-0.885 -0.721,-1.605 -1.605,-1.605 z"
   id="path312"
   inkscape:connector-curvature="0" />
	<polygon
   style="fill:#35485c"
   points="31.014,8.537 28.769,5.04 26.526,8.537 "
   id="polygon314" />
	<path
   style="fill:#35485c"
   d="m 31.013,9.097 h -4.488 c -0.205,0 -0.393,-0.113 -0.491,-0.292 -0.098,-0.18 -0.09,-0.398 0.02,-0.571 l 2.243,-3.497 c 0.206,-0.321 0.737,-0.321 0.942,0 l 2.245,3.497 c 0.11,0.172 0.118,0.391 0.02,0.571 -0.098,0.179 -0.286,0.292 -0.491,0.292 z M 27.55,7.977 h 2.439 l -1.22,-1.899 z"
   id="path316"
   inkscape:connector-curvature="0" />
	<polygon
   style="fill:#35485c"
   points="20.766,14.252 17.269,16.497 20.766,18.739 "
   id="polygon318" />
	<path
   style="fill:#35485c"
   d="m 20.766,19.299 c -0.105,0 -0.21,-0.03 -0.302,-0.089 l -3.496,-2.243 c -0.161,-0.102 -0.257,-0.28 -0.257,-0.471 0,-0.192 0.097,-0.369 0.257,-0.472 l 3.496,-2.244 c 0.172,-0.11 0.391,-0.118 0.571,-0.02 0.179,0.098 0.291,0.287 0.291,0.491 v 4.487 c 0,0.204 -0.111,0.392 -0.291,0.491 -0.085,0.048 -0.177,0.07 -0.269,0.07 z m -2.46,-2.802 1.9,1.218 v -2.437 z"
   id="path320"
   inkscape:connector-curvature="0" />
	<polygon
   style="fill:#35485c"
   points="36.729,18.739 40.227,16.496 36.729,14.252 "
   id="polygon322" />
	<path
   style="fill:#35485c"
   d="m 36.73,19.299 c -0.092,0 -0.184,-0.022 -0.268,-0.068 -0.18,-0.099 -0.292,-0.287 -0.292,-0.491 v -4.487 c 0,-0.204 0.111,-0.392 0.292,-0.491 0.179,-0.098 0.397,-0.091 0.571,0.02 l 3.497,2.244 c 0.16,0.103 0.257,0.28 0.257,0.471 0,0.191 -0.097,0.368 -0.257,0.471 l -3.498,2.244 c -0.092,0.057 -0.197,0.087 -0.302,0.087 z m 0.56,-4.022 v 2.437 l 1.9,-1.219 z"
   id="path324"
   inkscape:connector-curvature="0" />
	<polygon
   style="fill:#35485c"
   points="26.526,24.456 28.769,27.952 31.014,24.456 "
   id="polygon326" />
	<path
   style="fill:#35485c"
   d="m 28.769,28.512 v 0 c -0.19,0 -0.368,-0.097 -0.471,-0.258 l -2.243,-3.496 c -0.111,-0.172 -0.118,-0.392 -0.02,-0.572 0.099,-0.179 0.286,-0.292 0.491,-0.292 h 4.488 c 0.205,0 0.392,0.112 0.491,0.292 0.099,0.18 0.09,0.399 -0.02,0.572 l -2.245,3.496 c -0.103,0.161 -0.281,0.258 -0.471,0.258 z m -1.219,-3.497 1.219,1.9 1.22,-1.9 z"
   id="path328"
   inkscape:connector-curvature="0" />
	<path
   style="fill:#35485c"
   d="M 51.657,21.92 V 10.495 h 3.225 c 0.994,0 1.873,0.219 2.636,0.659 0.763,0.439 1.352,1.065 1.765,1.875 0.418,0.81 0.63,1.742 0.635,2.793 v 0.73 c 0,1.078 -0.209,2.021 -0.628,2.833 -0.413,0.81 -1.007,1.433 -1.781,1.867 -0.769,0.434 -1.666,0.656 -2.691,0.667 h -3.161 z m 1.507,-10.185 v 8.952 h 1.585 c 1.161,0 2.063,-0.361 2.707,-1.083 0.649,-0.722 0.973,-1.75 0.973,-3.083 v -0.667 c 0,-1.297 -0.306,-2.304 -0.918,-3.021 -0.607,-0.722 -1.47,-1.088 -2.589,-1.098 z"
   id="path330"
   inkscape:connector-curvature="0" />
	<rect
   x="61.167"
   y="16.475"
   style="fill:#35485c"
   width="3.829"
   height="1.184"
   id="rect332" />
	<path
   style="fill:#35485c"
   d="M 68.134,17.447 V 21.92 H 66.628 V 10.495 h 4.213 c 1.25,0 2.228,0.32 2.934,0.958 0.711,0.638 1.067,1.482 1.067,2.534 0,1.109 -0.348,1.964 -1.043,2.565 -0.691,0.597 -1.682,0.894 -2.974,0.894 h -2.691 z m 0,-1.231 h 2.707 c 0.806,0 1.423,-0.189 1.851,-0.565 0.429,-0.382 0.643,-0.932 0.643,-1.648 0,-0.681 -0.215,-1.224 -0.643,-1.632 -0.429,-0.407 -1.017,-0.62 -1.765,-0.635 h -2.793 z"
   id="path334"
   inkscape:connector-curvature="0" />
	<path
   style="fill:#35485c"
   d="M 82.006,18.938 H 77.22 l -1.075,2.982 h -1.553 l 4.362,-11.424 h 1.318 l 4.37,11.424 h -1.545 z m -4.331,-1.24 h 3.883 l -1.946,-5.343 z"
   id="path336"
   inkscape:connector-curvature="0" />
	<path
   style="fill:#35485c"
   d="M 86.18,21.92 V 10.495 h 3.224 c 0.994,0 1.873,0.219 2.636,0.659 0.764,0.439 1.352,1.065 1.765,1.875 0.419,0.81 0.63,1.742 0.636,2.793 v 0.73 c 0,1.078 -0.209,2.021 -0.628,2.833 -0.413,0.81 -1.007,1.433 -1.781,1.867 -0.769,0.434 -1.666,0.656 -2.691,0.667 H 86.18 Z m 1.506,-10.185 v 8.952 h 1.585 c 1.161,0 2.064,-0.361 2.707,-1.083 0.648,-0.722 0.973,-1.75 0.973,-3.083 v -0.667 c 0,-1.297 -0.306,-2.304 -0.918,-3.021 -0.607,-0.722 -1.47,-1.088 -2.589,-1.098 z"
   id="path338"
   inkscape:connector-curvature="0" />
</g>
<g
   id="g364">
	<path
   style="fill:#f5f4f4"
   d="m 179.03,0.858 h -52.313 c -1.539,0 -2.786,1.247 -2.786,2.786 v 25.529 c 0,1.539 1.246,2.786 2.786,2.786 h 52.313 c 1.538,0 2.786,-1.247 2.786,-2.786 V 3.644 c 0,-1.538 -1.248,-2.786 -2.786,-2.786"
   id="path342"
   inkscape:connector-curvature="0" />
	<path
   style="fill:#35485c"
   d="m 126.717,0.858 v 0.736 h 52.313 c 1.131,0.002 2.048,0.918 2.05,2.05 v 25.529 c -0.002,1.132 -0.918,2.048 -2.05,2.05 h -52.313 c -1.132,-0.002 -2.048,-0.918 -2.05,-2.05 V 3.644 c 0.002,-1.132 0.917,-2.048 2.05,-2.05 V 0.858 0.123 c -1.946,0 -3.521,1.577 -3.521,3.521 v 25.529 c 0,1.945 1.576,3.521 3.521,3.521 h 52.313 c 1.945,0 3.521,-1.576 3.521,-3.521 V 3.644 C 182.55,1.699 180.975,0.123 179.03,0.123 h -52.313 z"
   id="path344"
   inkscape:connector-curvature="0" />
	<polygon
   style="fill:#35485c"
   points="170.747,10.163 166.809,17.327 166.809,21.587 165.302,21.587 165.302,17.327 161.364,10.163 163.089,10.163 166.055,15.899 169.037,10.163 "
   id="polygon346" />
	<g
   id="g362">
		<defs
   id="defs349">
			<polyline
   id="SVGID_3_"
   points="125.281,2.098 153.512,2.098 153.512,30.33 125.281,30.33 125.281,2.098    " />
		</defs>
		<clipPath
   id="SVGID_4_">
			<use
   xlink:href="#SVGID_3_"
   style="overflow:visible"
   id="use351"
   x="0"
   y="0"
   width="100%"
   height="100%" />
		</clipPath>
		<path
   style="fill:#35485c"
   d="m 148.309,19.579 c -2.153,0 -3.899,-1.746 -3.899,-3.9 0,-2.153 1.746,-3.898 3.899,-3.898 2.154,0 3.899,1.745 3.899,3.898 0,2.154 -1.745,3.9 -3.899,3.9 m -8.204,-6.397 c -2.154,0 -3.899,-1.746 -3.899,-3.9 0,-2.153 1.745,-3.899 3.899,-3.899 2.154,0 3.899,1.746 3.899,3.899 0,2.154 -1.746,3.9 -3.899,3.9 M 138.7,27.134 c -2.153,0 -3.899,-1.746 -3.899,-3.899 0,-2.153 1.746,-3.899 3.899,-3.899 2.153,0 3.899,1.746 3.899,3.899 0,2.153 -1.746,3.899 -3.899,3.899 m -8.104,-6.56 c -2.154,0 -3.899,-1.745 -3.899,-3.899 0,-2.153 1.745,-3.898 3.899,-3.898 2.154,0 3.899,1.745 3.899,3.898 -0.001,2.154 -1.746,3.899 -3.899,3.899 M 139.45,2.099 c -7.782,0 -14.091,6.308 -14.091,14.091 0,7.782 6.309,14.091 14.091,14.091 7.782,0 14.091,-6.309 14.091,-14.091 0,-7.783 -6.309,-14.091 -14.091,-14.091"
   clip-path="url(#SVGID_4_)"
   id="path354"
   inkscape:connector-curvature="0" />
		<path
   style="fill:#35485c"
   d="m 151.093,15.68 c 0,1.538 -1.246,2.784 -2.784,2.784 -1.538,0 -2.784,-1.246 -2.784,-2.784 0,-1.537 1.246,-2.784 2.784,-2.784 1.538,0 2.784,1.247 2.784,2.784"
   clip-path="url(#SVGID_4_)"
   id="path356"
   inkscape:connector-curvature="0" />
		<path
   style="fill:#35485c"
   d="m 141.457,23.235 c 0,1.522 -1.235,2.757 -2.757,2.757 -1.523,0 -2.757,-1.234 -2.757,-2.757 0,-1.523 1.234,-2.757 2.757,-2.757 1.522,0 2.757,1.234 2.757,2.757"
   clip-path="url(#SVGID_4_)"
   id="path358"
   inkscape:connector-curvature="0" />
		<path
   style="fill:#35485c"
   d="m 142.857,9.362 c 0,1.523 -1.235,2.757 -2.757,2.757 -1.523,0 -2.757,-1.234 -2.757,-2.757 0,-1.523 1.234,-2.757 2.757,-2.757 1.522,0 2.757,1.234 2.757,2.757"
   clip-path="url(#SVGID_4_)"
   id="path360"
   inkscape:connector-curvature="0" />
	</g>
</g>
<ellipse
   style="fill:#434547"
   cx="186.427"
   cy="48.383999"
   rx="1.7690001"
   ry="1.808"
   id="ellipse366" />
<polyline
   style="fill:#434547"
   points="201.083,48.114 186.428,48.08 186.427,48.654 201.083,48.688 "
   id="polyline368" />
<g
   id="g392">
	<path
   style="fill:#f5f4f4"
   d="m 256.107,22.024 h -52.313 c -1.539,0 -2.786,1.247 -2.786,2.786 v 25.529 c 0,1.539 1.246,2.786 2.786,2.786 h 52.313 c 1.538,0 2.786,-1.247 2.786,-2.786 V 24.81 c -10e-4,-1.538 -1.248,-2.786 -2.786,-2.786"
   id="path370"
   inkscape:connector-curvature="0" />
	<path
   style="fill:#35485c"
   d="m 203.793,22.024 v 0.736 h 52.313 c 1.131,0.002 2.048,0.918 2.05,2.05 v 25.529 c -0.002,1.132 -0.918,2.048 -2.05,2.05 h -52.313 c -1.133,-0.002 -2.048,-0.917 -2.05,-2.05 V 24.81 c 0.002,-1.132 0.917,-2.048 2.05,-2.05 v -0.736 -0.736 c -1.946,0 -3.521,1.577 -3.521,3.521 v 25.529 c 0,1.945 1.576,3.521 3.521,3.521 h 52.313 c 1.945,0 3.521,-1.576 3.521,-3.521 V 24.81 c -0.001,-1.945 -1.576,-3.521 -3.521,-3.521 h -52.313 z"
   id="path372"
   inkscape:connector-curvature="0" />
	<polygon
   style="fill:#35485c"
   points="247.587,31.662 243.978,37.326 247.673,43.085 245.885,43.085 243.076,38.629 240.251,43.085 238.47,43.085 242.173,37.326 238.556,31.662 240.321,31.662 243.076,36.04 245.813,31.662 "
   id="polygon374" />
	<g
   id="g390">
		<defs
   id="defs377">
			<polyline
   id="SVGID_5_"
   points="202.299,23.782 230.392,23.782 230.392,51.876 202.299,51.876 202.299,23.782    " />
		</defs>
		<clipPath
   id="SVGID_6_">
			<use
   xlink:href="#SVGID_5_"
   style="overflow:visible"
   id="use379"
   x="0"
   y="0"
   width="100%"
   height="100%" />
		</clipPath>
		<path
   style="fill:#35485c"
   d="m 225.214,41.177 c -2.143,0 -3.88,-1.737 -3.88,-3.88 0,-2.142 1.737,-3.879 3.88,-3.879 2.143,0 3.879,1.737 3.879,3.879 0,2.142 -1.736,3.88 -3.879,3.88 m -8.164,-6.365 c -2.144,0 -3.88,-1.737 -3.88,-3.88 0,-2.142 1.736,-3.879 3.88,-3.879 2.143,0 3.879,1.737 3.879,3.879 0,2.142 -1.736,3.88 -3.879,3.88 m -1.398,13.882 c -2.143,0 -3.879,-1.737 -3.879,-3.879 0,-2.143 1.736,-3.879 3.879,-3.879 2.143,0 3.88,1.736 3.88,3.879 0,2.142 -1.738,3.879 -3.88,3.879 m -8.064,-6.527 c -2.144,0 -3.88,-1.736 -3.88,-3.88 0,-2.142 1.736,-3.879 3.88,-3.879 2.143,0 3.879,1.737 3.879,3.879 0,2.143 -1.737,3.88 -3.879,3.88 m 8.81,-18.385 c -7.743,0 -14.022,6.278 -14.022,14.022 0,7.744 6.279,14.022 14.022,14.022 7.744,0 14.023,-6.278 14.023,-14.022 0,-7.744 -6.279,-14.022 -14.023,-14.022"
   clip-path="url(#SVGID_6_)"
   id="path382"
   inkscape:connector-curvature="0" />
		<path
   style="fill:#35485c"
   d="m 227.985,37.297 c 0,1.53 -1.241,2.771 -2.77,2.771 -1.53,0 -2.771,-1.24 -2.771,-2.771 0,-1.53 1.241,-2.77 2.771,-2.77 1.529,0 2.77,1.24 2.77,2.77"
   clip-path="url(#SVGID_6_)"
   id="path384"
   inkscape:connector-curvature="0" />
		<path
   style="fill:#35485c"
   d="m 218.396,44.815 c 0,1.515 -1.229,2.743 -2.744,2.743 -1.515,0 -2.743,-1.229 -2.743,-2.743 0,-1.515 1.228,-2.744 2.743,-2.744 1.515,0 2.744,1.228 2.744,2.744"
   clip-path="url(#SVGID_6_)"
   id="path386"
   inkscape:connector-curvature="0" />
		<path
   style="fill:#35485c"
   d="m 210.477,38.287 c 0,1.596 -1.295,2.89 -2.89,2.89 -1.595,0 -2.889,-1.295 -2.889,-2.89 0,-1.596 1.295,-2.889 2.889,-2.889 1.596,-0.001 2.89,1.293 2.89,2.889"
   clip-path="url(#SVGID_6_)"
   id="path388"
   inkscape:connector-curvature="0" />
	</g>
</g>
<ellipse
   style="fill:#434547"
   cx="186.448"
   cy="104.696"
   rx="1.7690001"
   ry="1.808"
   id="ellipse394" />
<polyline
   style="fill:#434547"
   points="201.125,104.426 186.448,104.392 186.448,104.966 201.124,105 "
   id="polyline396" />
<g
   id="g420">
	<path
   style="fill:#f5f4f4"
   d="m 256.107,101.548 h -52.313 c -1.538,0 -2.786,1.247 -2.786,2.786 v 25.53 c 0,1.538 1.247,2.786 2.786,2.786 h 52.313 c 1.538,0 2.786,-1.247 2.786,-2.786 v -25.53 c -10e-4,-1.538 -1.248,-2.786 -2.786,-2.786"
   id="path398"
   inkscape:connector-curvature="0" />
	<path
   style="fill:#35485c"
   d="m 203.793,101.548 v 0.736 h 52.313 c 1.131,0.002 2.048,0.918 2.05,2.05 v 25.53 c -0.002,1.131 -0.918,2.048 -2.05,2.05 h -52.313 c -1.131,-0.002 -2.048,-0.918 -2.05,-2.05 v -25.53 c 0.002,-1.131 0.918,-2.048 2.05,-2.05 v -0.736 -0.736 c -1.945,0.001 -3.521,1.576 -3.521,3.521 v 25.53 c 0.001,1.945 1.576,3.521 3.521,3.521 h 52.313 c 1.945,-10e-4 3.521,-1.576 3.521,-3.521 v -25.53 c -0.001,-1.945 -1.576,-3.521 -3.521,-3.521 h -52.313 z"
   id="path400"
   inkscape:connector-curvature="0" />
	<path
   style="fill:#35485c"
   d="m 239.349,122.609 v -11.424 h 3.735 c 1.24,0 2.17,0.257 2.793,0.769 0.628,0.513 0.941,1.271 0.941,2.275 0,0.533 -0.151,1.007 -0.455,1.421 -0.303,0.407 -0.716,0.724 -1.239,0.949 0.617,0.172 1.103,0.502 1.459,0.989 0.361,0.481 0.541,1.057 0.541,1.726 0,1.025 -0.332,1.831 -0.996,2.417 -0.664,0.586 -1.604,0.879 -2.816,0.879 h -3.963 z m 1.506,-5.343 v 4.111 h 2.487 c 0.701,0 1.253,-0.18 1.656,-0.541 0.408,-0.367 0.612,-0.868 0.612,-1.506 0,-1.376 -0.748,-2.064 -2.244,-2.064 z m 0,-1.209 h 2.275 c 0.659,0 1.185,-0.165 1.577,-0.494 0.398,-0.329 0.597,-0.777 0.597,-1.342 0,-0.628 -0.183,-1.083 -0.55,-1.365 -0.366,-0.288 -0.923,-0.432 -1.671,-0.432 h -2.228 z"
   id="path402"
   inkscape:connector-curvature="0" />
	<g
   id="g418">
		<defs
   id="defs405">
			<polyline
   id="SVGID_7_"
   points="202.35,103.339 230.026,103.339 230.026,131.016 202.35,131.016 202.35,103.339    " />
		</defs>
		<clipPath
   id="SVGID_8_">
			<use
   xlink:href="#SVGID_7_"
   style="overflow:visible"
   id="use407"
   x="0"
   y="0"
   width="100%"
   height="100%" />
		</clipPath>
		<path
   style="fill:#35485c"
   d="m 224.926,120.475 c -2.111,0 -3.822,-1.711 -3.822,-3.823 0,-2.11 1.711,-3.821 3.822,-3.821 2.111,0 3.822,1.711 3.822,3.821 0,2.112 -1.712,3.823 -3.822,3.823 m -8.043,-6.27 c -2.112,0 -3.822,-1.711 -3.822,-3.823 0,-2.11 1.71,-3.822 3.822,-3.822 2.111,0 3.822,1.712 3.822,3.822 0,2.111 -1.711,3.823 -3.822,3.823 m -1.378,13.676 c -2.112,0 -3.822,-1.711 -3.822,-3.821 0,-2.112 1.71,-3.822 3.822,-3.822 2.111,0 3.822,1.71 3.822,3.822 0.001,2.11 -1.711,3.821 -3.822,3.821 m -7.945,-6.431 c -2.111,0 -3.822,-1.71 -3.822,-3.822 0,-2.111 1.711,-3.822 3.822,-3.822 2.112,0 3.822,1.711 3.822,3.822 0,2.112 -1.71,3.822 -3.822,3.822 m 8.68,-18.111 c -7.629,0 -13.814,6.184 -13.814,13.814 0,7.63 6.185,13.814 13.814,13.814 7.63,0 13.815,-6.184 13.815,-13.814 0,-7.63 -6.185,-13.814 -13.815,-13.814"
   clip-path="url(#SVGID_8_)"
   id="path410"
   inkscape:connector-curvature="0" />
		<path
   style="fill:#35485c"
   d="m 227.654,116.653 c 0,1.507 -1.221,2.729 -2.729,2.729 -1.508,0 -2.73,-1.221 -2.73,-2.729 0,-1.508 1.222,-2.729 2.73,-2.729 1.508,0 2.729,1.222 2.729,2.729"
   clip-path="url(#SVGID_8_)"
   id="path412"
   inkscape:connector-curvature="0" />
		<path
   style="fill:#35485c"
   d="m 210.407,117.628 c 0,1.572 -1.275,2.847 -2.847,2.847 -1.572,0 -2.847,-1.275 -2.847,-2.847 0,-1.572 1.275,-2.847 2.847,-2.847 1.572,0 2.847,1.275 2.847,2.847"
   clip-path="url(#SVGID_8_)"
   id="path414"
   inkscape:connector-curvature="0" />
		<path
   style="fill:#35485c"
   d="m 219.581,110.459 c 0,1.493 -1.211,2.703 -2.703,2.703 -1.493,0 -2.703,-1.21 -2.703,-2.703 0,-1.493 1.21,-2.703 2.703,-2.703 1.492,0.001 2.703,1.211 2.703,2.703"
   clip-path="url(#SVGID_8_)"
   id="path416"
   inkscape:connector-curvature="0" />
	</g>
</g>
</svg>