<?xml version="1.0" encoding="UTF-8" standalone="no"?>
<svg
   xmlns:dc="http://purl.org/dc/elements/1.1/"
   xmlns:cc="http://creativecommons.org/ns#"
   xmlns:rdf="http://www.w3.org/1999/02/22-rdf-syntax-ns#"
   xmlns:svg="http://www.w3.org/2000/svg"
   xmlns="http://www.w3.org/2000/svg"
   xmlns:sodipodi="http://sodipodi.sourceforge.net/DTD/sodipodi-0.dtd"
   xmlns:inkscape="http://www.inkscape.org/namespaces/inkscape"
   viewBox="0 0 30 30"
   version="1.1"
   id="svg30"
   sodipodi:docname="icon_filled.svg"
   inkscape:version="0.92.4 5da689c313, 2019-01-14">
  <metadata
     id="metadata36">
    <rdf:RDF>
      <cc:Work
         rdf:about="">
        <dc:format>image/svg+xml</dc:format>
        <dc:type
           rdf:resource="http://purl.org/dc/dcmitype/StillImage" />
      </cc:Work>
    </rdf:RDF>
  </metadata>
  <defs
     id="defs34" />
  <sodipodi:namedview
     pagecolor="#ffffff"
     bordercolor="#666666"
     borderopacity="1"
     objecttolerance="10"
     gridtolerance="10"
     guidetolerance="10"
     inkscape:pageopacity="0"
     inkscape:pageshadow="2"
     inkscape:window-width="471"
     inkscape:window-height="442"
     id="namedview32"
     showgrid="false"
     inkscape:zoom="7.8666667"
     inkscape:cx="15"
     inkscape:cy="15"
     inkscape:window-x="0"
     inkscape:window-y="0"
     inkscape:window-maximized="0"
     inkscape:current-layer="svg30">
    <inkscape:grid
       type="xygrid"
       id="grid38" />
  </sodipodi:namedview>
  <path
     fill="#d04648"
     d="M-.006 2.143h23.571v23.571H-.006z"
     id="path2" />
  <path
     fill="#442434"
     d="M-.006 25.714h23.571v2.143H-.006zM2.137 4.286h19.286v2.143H2.137zM2.137 0h21.429v2.143H2.137z"
     id="path4" />
  <path
     fill="#140c1c"
     d="M27.851 8.571h2.143V15h-2.143zM25.708 15h2.143v2.143h-2.143z"
     id="path6" />
  <path
     fill="#140c1c"
     d="M23.565 2.143h2.143v23.571h-2.143z"
     id="path8" />
  <g
     id="g14">
    <g
       fill="#140c1c"
       id="g12">
      <path
         d="M2.137 27.857h6.429V30H2.137zM14.994 27.857h6.429V30h-6.429z"
         id="path10" />
    </g>
  </g>
  <g
     id="g20">
    <path
       fill="#d6e5cf"
       d="M2.137 6.429h19.286v10.714H2.137zM6.423 19.286h10.714v2.143H6.423z"
       id="path16" />
    <path
       fill="#d6e5cf"
       d="M8.565 21.429h6.429v2.143H8.565z"
       id="path18" />
  </g>
  <g
     fill="#d04648"
     id="g24">
    <path
       d="M6.423 12.857h2.143V15H6.423zM4.28 10.714h6.429v2.143H4.28zM8.565 8.571h2.143v2.143H8.565zM4.28 8.571h2.143v2.143H4.28z"
       id="path22" />
  </g>
  <g
     fill="#d04648"
     id="g28">
    <path
       d="M14.994 12.857h2.143V15h-2.143zM12.851 10.714h6.429v2.143h-6.429zM17.137 8.571h2.143v2.143h-2.143zM12.851 8.571h2.143v2.143h-2.143z"
       id="path26" />
  </g>
</svg>
