<?xml version="1.0" encoding="UTF-8" standalone="no"?>
<svg
   xmlns:dc="http://purl.org/dc/elements/1.1/"
   xmlns:cc="http://creativecommons.org/ns#"
   xmlns:rdf="http://www.w3.org/1999/02/22-rdf-syntax-ns#"
   xmlns:svg="http://www.w3.org/2000/svg"
   xmlns="http://www.w3.org/2000/svg"
   xmlns:sodipodi="http://sodipodi.sourceforge.net/DTD/sodipodi-0.dtd"
   xmlns:inkscape="http://www.inkscape.org/namespaces/inkscape"
   viewBox="0 0 734 125.4"
   version="1.1"
   id="svg8"
   sodipodi:docname="logo.svg"
   width="734"
   height="125.4"
   inkscape:version="0.92.4 5da689c313, 2019-01-14">
  <metadata
     id="metadata14">
    <rdf:RDF>
      <cc:Work
         rdf:about="">
        <dc:format>image/svg+xml</dc:format>
        <dc:type
           rdf:resource="http://purl.org/dc/dcmitype/StillImage" />
      </cc:Work>
    </rdf:RDF>
  </metadata>
  <defs
     id="defs12" />
  <sodipodi:namedview
     pagecolor="#ffffff"
     bordercolor="#666666"
     borderopacity="1"
     objecttolerance="10"
     gridtolerance="10"
     guidetolerance="10"
     inkscape:pageopacity="0"
     inkscape:pageshadow="2"
     inkscape:window-width="471"
     inkscape:window-height="442"
     id="namedview10"
     showgrid="false"
     inkscape:zoom="0.37047417"
     inkscape:cx="365.7475"
     inkscape:cy="62.699999"
     inkscape:window-x="0"
     inkscape:window-y="0"
     inkscape:window-maximized="0"
     inkscape:current-layer="svg8" />
  <text
     font-size="1"
     id="text2"
     style="font-size:1px;font-family:ArialMT;fill:#c23334"
     x="504.44601"
     y="45.883999">I don’t like bugs!</text>
  <g
     id="g6"
     style="fill:#d7e6d0">
    <path
       d="M 218.495,47.509 V 9.505 h -9.504 V 0 h 38.004 v 9.505 h -9.504 v 38.004 z m 47.496,0 v -9.504 h 9.504 v -28.5 h -9.504 V 0 h 38.004 v 9.505 h -9.504 v 28.5 h 9.504 v 9.504 z m 57,0 V 38.005 H 313.5 v -28.5 h 9.491 V 0 h 28.5 v 9.505 h -18.996 v 28.5 h 18.996 v 9.504 z m 28.5,-28.5 V 9.505 h 9.504 v 9.504 z m 0,18.996 V 28.5 h 9.504 v 9.505 z m 28.5,-9.505 v -9.491 h 28.5 V 28.5 Z m 57,19.009 V 38.005 H 427.5 V 28.5 h 9.491 V 19.009 H 427.5 V 9.505 h 9.491 V 0 h 28.5 v 9.505 h -18.996 v 9.504 h 18.996 V 28.5 h -18.996 v 9.505 h 18.996 v 9.504 z m 28.5,-28.5 V 9.505 h 9.504 v 9.504 z m 0,18.996 V 28.5 h 9.504 v 9.505 z m 28.5,9.504 V 38.005 H 484.5 v -28.5 h 9.491 V 0 h 28.5 v 9.505 h -18.996 v 28.5 h 18.996 v 9.504 z m 28.5,-9.504 v -28.5 h 9.504 v 28.5 z M 18.995,115.909 v -9.504 H 9.491 V 87.409 H 0 V 77.905 H 9.491 V 68.4 H 28.5 v 9.505 h 18.995 v 9.504 H 28.5 v 18.996 h 18.995 v 9.504 z m 47.496,0 v -9.504 h 9.504 V 96.9 h -9.504 v -9.491 h 28.5 v 18.996 h 9.504 v 9.504 z M 75.995,77.905 V 68.4 h 18.996 v 9.505 z M 114,115.909 V 77.905 h 37.991 v 9.504 h -18.996 v 28.5 z m 37.991,0 v -28.5 h 9.504 v 28.5 z M 171,96.9 V 77.905 h 9.491 V 96.9 Z m 9.491,28.5 v -9.491 H 199.5 v -9.504 H 180.491 V 96.9 H 199.5 V 77.905 h 18.995 v 38.004 h -9.504 v 9.491 z m 114,-9.491 v -9.504 H 285 V 87.409 h 9.491 v -9.504 h 38.004 v 9.504 H 313.5 v 18.996 h 18.995 v 9.504 z m 57,0 v -9.504 H 342 V 87.409 h 9.491 v -9.504 h 28.5 v 9.504 h -18.996 v 18.996 h 18.996 v 9.504 z m 28.5,-9.504 V 87.409 h 9.504 v 18.996 z M 399,115.909 V 77.905 h 18.995 v 9.504 h 9.505 v -9.504 h 9.491 v 9.504 h 9.504 v 28.5 h -9.504 V 96.9 H 427.5 v 19.009 h -9.505 V 96.9 h -9.504 v 19.009 z m 57,9.491 V 77.905 h 37.991 v 9.504 h -18.996 v 18.996 h 18.996 v 9.504 h -18.996 v 9.491 z m 37.991,-18.995 V 87.409 h 9.504 v 18.996 z m 19.009,0 v -28.5 h 9.491 v 28.5 z m 9.491,9.504 v -9.504 H 541.5 v -28.5 h 18.995 v 38.004 z m 66.504,0 v -9.504 h -9.504 V 87.409 H 570 v -9.504 h 9.491 V 68.4 H 598.5 v 9.505 h 18.995 v 9.504 H 598.5 v 18.996 h 18.995 v 9.504 z m 47.496,0 v -9.504 H 627 V 87.409 h 9.491 v -9.504 h 28.5 v 9.504 h 9.504 V 96.9 H 655.5 v -9.491 h -9.505 V 96.9 h 9.505 v 9.505 h 9.491 v 9.504 z m 47.509,0 V 77.905 h 37.991 v 9.504 h -18.996 v 28.5 z M 721.991,96.9 v -9.491 h 9.504 V 96.9 Z"
       id="path4"
       inkscape:connector-curvature="0" />
  </g>
</svg>
