<?xml version="1.0" encoding="UTF-8" standalone="no"?>
<svg
   xmlns:dc="http://purl.org/dc/elements/1.1/"
   xmlns:cc="http://creativecommons.org/ns#"
   xmlns:rdf="http://www.w3.org/1999/02/22-rdf-syntax-ns#"
   xmlns:svg="http://www.w3.org/2000/svg"
   xmlns="http://www.w3.org/2000/svg"
   xmlns:sodipodi="http://sodipodi.sourceforge.net/DTD/sodipodi-0.dtd"
   xmlns:inkscape="http://www.inkscape.org/namespaces/inkscape"
   width="400"
   height="481.88345"
   version="1.1"
   id="svg153"
   sodipodi:docname="console.svg"
   inkscape:version="0.92.4 5da689c313, 2019-01-14">
  <metadata
     id="metadata157">
    <rdf:RDF>
      <cc:Work
         rdf:about="">
        <dc:format>image/svg+xml</dc:format>
        <dc:type
           rdf:resource="http://purl.org/dc/dcmitype/StillImage" />
      </cc:Work>
    </rdf:RDF>
  </metadata>
  <sodipodi:namedview
     pagecolor="#ffffff"
     bordercolor="#666666"
     borderopacity="1"
     objecttolerance="10"
     gridtolerance="10"
     guidetolerance="10"
     inkscape:pageopacity="0"
     inkscape:pageshadow="2"
     inkscape:window-width="471"
     inkscape:window-height="442"
     id="namedview155"
     showgrid="false"
     inkscape:zoom="0.48974498"
     inkscape:cx="200"
     inkscape:cy="240.94173"
     inkscape:window-x="0"
     inkscape:window-y="0"
     inkscape:window-maximized="0"
     inkscape:current-layer="svg153">
    <inkscape:grid
       type="xygrid"
       id="grid159"
       originx="1.2534002e-12"
       originy="5.7493208e-06" />
  </sodipodi:namedview>
  <defs
     id="defs5">
    <clipPath
       id="a">
      <path
         d="M 0,339.086 H 281.467 V 0 H 0 Z"
         id="path2"
         inkscape:connector-curvature="0" />
    </clipPath>
  </defs>
  <g
     clip-path="url(#a)"
     transform="matrix(1.4211261,0,0,-1.4211261,-1.058349e-4,481.88358)"
     id="g151">
    <path
       d="m 241.0495,61.2966 c -2.552,-4.05 -6.565,-6.371 -10.525,-8.678 -11.659,-6.793 -24.445,-10.572 -37.456,-13.682 -3.866,-0.924 -7.797,-1.571 -11.675,-2.447 -1.57,-0.355 -3.049,-0.998 -4.26,-2.174 -4.079,-3.961 -8.156,-7.924 -12.301,-11.816 -4.554,-4.275 -6.934,-9.872 -9.543,-15.341 -0.197,-0.412 -0.342,-0.852 -0.566,-1.248 -3.66,-6.49 -3.672,-6.554 -12.156,-5.228 -8.033,1.255 -15.852,3.437 -23.613,5.821 -0.802,0.247 -1.578,0.598 -2.338,0.961 -4.927,2.35 -4.497,3.78 -3.604,8.797 1.376,7.736 4.243,15.042 7.195,22.295 0.905,2.224 1.204,4.588 1.669,6.913 0.285,1.425 -0.303,2.294 -1.735,2.772 -7.788,2.598 -15.682,4.742 -23.845,5.774 -1.108,0.14 -2.157,-0.199 -2.945,-1.007 -6.373,-6.533 -13.099,-12.76 -18.193,-20.425 -2.602,-3.916 -4.147,-8.175 -4.015,-12.983 0.094,-3.402 -0.353,-3.88 -3.627,-3.725 -12.721,0.601 -24.873,3.225 -35.906,10.01 -3.593,2.211 -7.233,4.335 -10.659,6.803 -1.834,1.321 -2.488,2.627 -1.553,5.162 4.512,12.23 8.078,24.764 11.05,37.459 0.521,2.225 0.023,3.723 -2.3,5.127 -8.402,5.081 -13.615,12.71 -15.879,22.216 -0.556,2.334 -0.137,4.901 -0.166,7.361 1.269,0.578 1.366,-0.539 1.679,-1.219 1.318,-2.863 2.231,-5.882 3.367,-8.816 1.035,-2.67 1.654,-2.994 4.034,-1.569 10.982,6.577 22.877,11.157 34.661,15.99 2.453,1.006 4.967,1.557 7.616,1.511 0.225,-0.05 0.483,-0.079 0.643,-0.232 4.422,-4.212 10.232,-4.968 15.796,-6.255 6.811,-1.575 13.35,-3.962 19.902,-6.325 0.638,-0.231 1.326,-0.454 1.526,-1.245 -2.91,-4.89 -6.374,-9.383 -9.967,-13.78 -0.909,-1.113 -2.183,-1.348 -3.536,-1.328 -4.063,0.058 -8.133,-0.204 -11.732,0.19 2.307,-0.483 5.113,-0.1 7.89,-0.367 5.978,-0.574 11.055,-3.561 16.244,-6.176 1.434,-0.723 2.249,-0.761 3.345,0.425 5.252,5.685 11.556,10.06 18.008,14.244 2.528,-0.027 4.73,-1.23 7.022,-2.036 15.373,-5.405 30.884,-10.377 46.486,-15.072 7.578,-2.281 15.105,-4.728 22.678,-7.026 0.873,-0.265 1.795,-0.506 2.307,-1.393 0.092,-1.221 -0.937,-1.497 -1.707,-1.894 -6.084,-3.13 -12.258,-6.077 -18.553,-8.754 -3.247,-1.381 -6.668,-0.33 -10.008,-0.401 -1.677,-0.036 -3.354,0.366 -5.179,0.01 6.947,0.685 13.086,-1.491 19.035,-4.455 1.624,-0.809 2.611,-2.104 2.766,-3.911 8.644,8.142 19.284,11.8 30.374,14.529 2.007,-0.21 3.89,-0.902 5.792,-1.512 3.299,-1.058 6.62,-1.977 10.076,-2.435 1.955,-0.259 3.815,-0.234 5.696,0.323 0.865,0.257 1.741,0.691 2.685,0.262"
       id="path7"
       inkscape:connector-curvature="0"
       style="fill:#31456a" />
    <path
       d="m 63.3852,115.5882 c -11.284,-2.136 -21.2,-7.853 -31.63,-12.199 -3.73,-1.554 -7.161,-3.84 -10.682,-5.873 -2.38,-1.375 -3.355,-1.095 -4.319,1.511 -1.276,3.449 -2.538,6.903 -3.791,10.361 -0.157,0.434 -0.461,0.572 -0.86,0.626 0.181,7.38 1.602,14.529 3.839,21.554 3.437,10.797 6.983,21.556 10.757,32.241 0.269,0.763 1.114,1.625 0.185,2.531 -0.317,1.008 0.433,1.555 0.983,2.144 2.037,2.181 4.311,4.104 6.759,5.797 3.46,2.393 6.303,1.141 7.092,-3.051 0.142,-0.757 0.11,-1.518 0.065,-2.281 -2.476,-12.235 -5.27,-24.415 -6.502,-36.915 1.103,1.017 1.541,2.365 1.959,3.703 3.085,9.891 6.198,19.773 9.971,29.432 0.391,1.002 0.756,2.012 1.22,2.981 2.187,6.166 4.747,12.157 8.325,17.668 0.252,0.387 0.57,0.845 0.474,1.276 -0.842,3.809 1.584,6.771 2.644,10.06 1.271,3.943 2.8,7.811 4.36,11.654 0.699,1.724 0.297,2.705 -1.369,3.465 -3.36,1.533 -6.633,3.236 -9.398,5.754 -1.273,1.311 -2.591,2.579 -3.849,3.905 -0.551,0.581 -1.34,1.089 -1.071,2.106 1.396,0.908 1.712,2.508 2.361,3.856 1.343,2.788 3.431,4.763 6.306,5.688 1.872,0.602 2.703,1.555 2.469,3.467 1.287,-1.274 2.59,-1.124 4.237,-0.496 5.551,2.119 10.969,4.581 16.607,6.477 0.116,0.039 0.301,-0.019 0.332,0.184 -0.147,-0.067 -0.296,-0.075 -0.445,-0.027 -0.423,0.134 -0.637,0.38 -0.453,0.843 6.712,1.301 12.438,5.096 18.745,7.418 1.174,0.495 2.562,1.751 3.587,0.784 1.168,-1.102 -0.324,-2.367 -0.899,-3.419 -4.761,-8.701 -7.642,-18.111 -10.417,-27.552 -4.445,-15.12 -9.607,-29.997 -14.793,-44.874 -4.375,-12.554 -8.632,-25.153 -12.535,-37.865 -1.57,-5.11 -2.221,-10.354 -1.923,-15.708 0.095,-1.715 0.464,-3.337 1.219,-4.883 0.355,-0.727 0.999,-1.431 0.44,-2.343"
       id="path9"
       inkscape:connector-curvature="0"
       style="fill:#466489" />
    <path
       d="m 63.3852,115.5882 c -3.571,5.678 -2.903,11.809 -1.654,17.879 2.033,9.885 5.685,19.299 8.937,28.813 7.951,23.268 16.045,46.487 23.037,70.071 2.04,6.883 5.131,13.329 8.748,19.76 -1.408,-0.15 -2.467,-0.871 -3.594,-1.39 -3.528,-0.962 -7.004,-0.237 -10.452,0.428 -4.461,0.86 -8.93,1.363 -13.483,1.294 -2.668,-0.04 -3.02,0.659 -1.694,2.901 0.98,1.657 0.278,3.154 -0.344,4.604 -1.514,3.531 -2.036,7.211 -1.963,11.011 0.012,0.614 0.025,1.23 0.161,1.831 0.506,2.231 1.862,2.897 3.918,1.931 2.012,-0.946 3.033,-2.744 3.971,-4.613 1.299,-2.546 2.043,-5.293 2.809,-8.024 0.838,-2.991 2.738,-4.638 5.787,-5.187 3.4,-0.612 6.846,-0.94 10.221,-1.691 1.028,-0.229 2.164,-0.237 2.91,-1.18 1.591,-0.855 2.988,-0.765 4.684,0.139 2.871,1.529 5.993,0.888 9,0.119 1.777,-0.455 3.522,-1.038 5.282,-1.563 0.779,0.359 1.496,0.039 2.209,-0.223 6.377,-2.348 12.761,-4.679 19.093,-7.145 5.307,-2.033 10.633,-4.019 15.935,-6.069 1.115,-0.43 2.06,-0.55 2.845,0.522 0.076,0.011 0.206,0.051 0.22,0.026 1.8,-3.196 5.269,-3.565 8.2,-4.833 2.044,-0.885 4.214,-1.469 6.219,-2.426 1.267,-0.605 1.962,-0.17 2.6,0.824 0.237,-4.053 3.819,-3.712 6.309,-4.805 0.685,0.177 1.359,0.131 2.015,-0.121 3.479,-1.334 7.035,-2.458 10.501,-3.825 0.568,-0.224 1.127,-0.482 1.374,-1.112 2.488,-0.872 4.976,-1.745 7.463,-2.618 0.868,0.431 1.643,0.003 2.429,-0.273 4.554,-1.596 9.111,-3.187 13.639,-4.856 1.503,-0.591 3.054,-1.06 4.534,-1.712 2.311,-1.047 5.082,-1.021 6.996,-2.994 4.212,-1.82 8.647,-3.038 12.849,-4.911 7.161,-3.192 10.785,-8.358 10.455,-16.406 -0.327,-7.976 -1.242,-15.904 -1.599,-23.872 0.743,-1.629 0.369,-3.323 0.217,-4.979 -1.202,-13.047 -2.539,-26.08 -3.612,-39.139 -0.264,-3.206 -0.439,-6.423 -0.876,-9.614 -0.104,-0.757 -0.119,-1.546 -0.822,-2.063 -0.417,-5.112 -0.842,-10.224 -1.248,-15.338 -0.651,-8.186 -0.852,-16.407 -1.862,-24.564 -0.438,-3.539 -1.71,-6.685 -4.7,-8.899 -4.388,-2.324 -8.89,-1.577 -13.356,-0.383 -3.742,1.001 -7.431,2.196 -11.143,3.305 -1.804,-0.275 -3.431,0.46 -5.091,0.936 -3.213,0.921 -6.336,2.136 -9.569,2.998 -0.735,0.196 -1.454,0.473 -1.883,1.181 -8.544,2.708 -17.053,5.533 -25.64,8.098 -17.777,5.31 -35.368,11.175 -52.87,17.318 -0.777,-0.364 -1.514,-0.073 -2.239,0.164 -5.412,1.766 -10.762,3.711 -16.108,5.666 -0.707,0.258 -1.498,0.441 -1.854,1.244 -8.825,3.323 -17.751,6.3 -27.009,8.208 -4.121,0.85 -7.932,2.402 -10.902,5.557"
       id="path11"
       inkscape:connector-curvature="0"
       style="fill:#cddae6" />
    <path
       d="m 48.5471,224.0385 c 1.705,-1.831 3.41,-3.663 5.115,-5.494 0.05,-3.605 -1.3,-6.93 -2.17,-10.334 -1.982,-7.749 -3.971,-15.499 -5.995,-23.238 -0.156,-0.595 -0.269,-1.206 -0.508,-1.773 -0.704,-1.675 -2.101,-2.188 -3.202,-0.843 -1.932,2.361 -4.409,3.685 -7.069,4.964 -2.098,1.009 -2.489,3.428 -1.57,6.817 -3.139,-1.731 -4.735,-3.165 -6.852,-6.065 -0.713,-0.978 -1.306,-2.126 -2.687,-2.359 -1.568,-1.049 -2.9,-2.427 -4.634,-3.253 -0.842,-0.4 -1.559,-0.537 -2.243,0.254 -0.678,0.787 -0.18,1.465 0.247,2.049 0.936,1.279 1.966,2.489 2.958,3.727 2.443,3.543 1.383,6.935 -0.365,10.353 -0.907,1.775 -1.566,3.667 -2.176,5.572 -0.555,1.733 -0.032,2.989 1.53,3.875 2.286,1.298 4.769,2.104 7.666,3.087 -4.49,-0.011 -8.437,-0.731 -12.184,-2.229 -2.831,-1.132 -5.693,-1.076 -8.609,-0.937 -0.539,0.026 -1.068,0.164 -1.547,0.419 -1.111,0.592 -2.293,1.295 -2.136,2.711 0.175,1.575 1.655,1.635 2.852,1.768 1.674,0.187 3.38,0.041 5.032,0.483 0.737,0.197 1.633,0.273 1.878,1.119 0.254,0.878 -0.519,1.354 -1.078,1.871 -0.434,0.402 -1.078,0.654 -1.037,1.408 0.792,0.132 0.978,0.595 0.772,1.328 -0.527,1.881 -0.215,3.801 -0.238,5.706 1.358,2.801 3.244,5.056 5.825,5.966 -2.369,-0.29 -5.167,-0.884 -7.715,-2.322 -1.264,0.11 -2.425,-0.089 -3.479,-0.896 -0.47,-0.359 -1.088,-0.562 -1.669,-0.732 -0.961,-0.281 -2.072,-0.607 -2.798,0.283 -0.881,1.078 0.344,1.822 0.788,2.613 0.953,1.698 3.109,2.406 3.531,4.663 0.517,2.771 -0.03,5.359 -1.003,7.828 -2.139,5.426 -2.942,11.052 -3.258,16.828 -0.281,5.129 0.108,10.243 0.04,15.365 -0.008,0.631 -0.366,1.562 0.491,1.818 0.667,0.2 1.279,-0.404 1.774,-0.895 2.456,-2.439 4.908,-4.883 7.355,-7.331 6.851,-6.856 13.652,-13.762 20.563,-20.557 5.536,-5.443 9.418,-12.07 13.643,-18.464 1.218,-1.843 2.305,-3.815 4.162,-5.153"
       id="path13"
       inkscape:connector-curvature="0"
       style="fill:#31456a" />
    <path
       d="m 59.6452,281.2933 c 0.078,1.175 -0.287,2.271 -0.566,3.39 -0.461,1.848 -1.645,2.611 -3.49,2.717 -3.14,0.179 -6.279,0.437 -9.444,2.025 3.621,1.445 5.233,4.424 6.807,7.481 0.802,1.557 0.454,2.63 -0.954,3.481 -1.365,0.826 -2.746,1.623 -4.462,2.634 2.175,0.503 4.068,0.561 5.829,1.284 4.208,1.726 6.224,4.98 5.874,9.478 -0.393,5.049 -0.678,10.107 -1.411,15.125 -0.17,1.166 -0.455,2.267 -1.22,3.177 -0.538,0.642 -0.901,1.262 -0.291,2.042 0.346,0.442 0.759,0.823 1.365,0.63 0.876,-0.279 1.365,-0.862 1.483,-1.835 0.432,-3.587 1.348,-7.078 2.205,-10.58 0.218,-0.894 0.42,-1.793 0.63,-2.689 0.983,-0.683 1.078,-1.811 1.403,-2.819 0.769,-2.39 0.917,-2.464 3.158,-1.163 3.254,1.89 6.658,3.48 10.052,5.094 3.591,1.708 7.216,2.054 11.183,1.344 8.694,-1.556 17.357,-3.084 25.6,-6.452 2.769,-1.131 5.783,-1.427 8.818,-1.379 1.969,0.032 4.001,0.075 5.753,-1.135 1.382,-1.543 2.839,-3.01 4.068,-4.698 1.332,-1.827 1.235,-3.457 -0.442,-4.871 -1.241,-1.047 -1.488,-1.98 -0.811,-3.557 2.538,-5.907 0.424,-11.321 -5.544,-14.04 -2.23,-1.016 -3.807,-2.435 -4.956,-4.547 -1.135,-2.087 -2.326,-4.15 -4.068,-5.842 -1.478,-1.436 -3.157,-2.393 -5.176,-2.819 -3.058,-0.645 -4.023,0.101 -3.914,3.146 0.018,0.533 0.136,1.062 0.209,1.593 0.057,0.146 0.117,0.341 0.242,0.379 3.586,1.089 4.895,4.162 6.319,7.165 1.059,2.232 2.552,4.21 3.946,6.235 2.134,3.1 2.51,6.174 0.383,9.445 -0.754,1.159 -1.429,2.368 -2.269,3.472 -2.691,3.536 -5.145,4.098 -8.951,1.878 -2.228,-1.301 -4.536,-2.268 -7.119,-2.496 -0.671,-0.059 -1.532,-0.34 -1.856,0.441 -0.326,0.785 0.466,1.225 1.014,1.593 1.304,0.875 1.988,2.1 2.268,3.603 0.546,2.926 -0.053,4.139 -2.818,5.23 -3.803,1.501 -7.659,2.798 -11.847,2.651 -3.14,-0.111 -5.921,-1.131 -8.106,-3.372 -7.048,-7.23 -8.54,-16.503 -2.14,-24.979 0.556,-0.737 1.149,-1.442 1.558,-2.279 0.457,-1.779 -0.82,-2.653 -1.891,-3.637 -2.292,-1.674 -4.666,-3.205 -7.356,-4.19 -2.147,-0.918 -4.419,-1.24 -6.717,-1.292 -3.177,-0.072 -3.748,0.937 -2.348,3.938"
       id="path15"
       inkscape:connector-curvature="0"
       style="fill:#000022" />
    <path
       d="m 120.1235,254.0196 c -1.067,1.166 -0.082,2.382 0.055,3.498 0.615,5.027 1.639,9.997 4.224,14.434 3.525,6.051 9.142,9.594 15.44,12.107 5.587,2.229 10.965,4.667 14.754,10.079 -6.069,-0.07 -11.31,-2.33 -17.024,-5.076 3.942,5.786 8.172,10.141 14.936,11.165 1.717,0.259 3.457,0.538 5.024,1.389 1.079,0.001 1.048,-0.96 1.31,-1.596 0.956,-2.322 1.888,-4.654 2.8,-6.994 0.698,-1.79 1.727,-3.374 2.948,-4.844 0.064,-0.575 -0.194,-1.044 -0.546,-1.449 -2.826,-3.251 -3.315,-6.869 -1.741,-10.826 0.198,-0.498 0.309,-1.018 0.236,-1.562 -0.068,-0.385 -0.191,-0.77 -0.461,-1.041 -5.293,-5.31 -9.967,-11.317 -17.083,-14.528 -3.214,-1.45 -6.559,-2.181 -9.996,-2.553 -4.504,-0.488 -9.036,-0.738 -13.348,-2.317 -0.51,-0.187 -1.046,-0.284 -1.528,0.114"
       id="path17"
       inkscape:connector-curvature="0"
       style="fill:#648dbd" />
    <path
       d="m 185.699,251.6816 c -0.587,0.063 -1.173,0.127 -1.76,0.19 -5.887,1.133 -9.914,4.549 -12.283,10.006 -1.033,3.722 -0.327,7.548 -0.703,11.306 -0.125,0.864 0.127,1.665 0.507,2.413 1.043,2.057 1.242,4.193 0.7,6.416 -0.14,1.46 0.372,2.691 1.256,3.834 1.603,2.072 3.341,4.015 5.327,5.725 0.598,0.515 1.342,0.974 2.084,0.437 0.695,-0.502 0.258,-1.272 0.085,-1.915 -0.647,-2.401 -1.771,-4.711 -1.373,-7.301 0.376,-0.323 0.838,-0.412 1.298,-0.382 2.732,0.181 5.201,-0.369 7.059,-2.803 0.457,2.046 0.018,2.536 -2.837,3.559 -2.905,0.892 -2.938,1.142 -0.513,3.803 1.376,0.806 2.604,-0.062 3.786,-0.325 -0.869,0.58 -2.341,0.214 -2.93,1.552 0.329,1.88 0.904,3.602 2.839,4.457 3.18,-1.321 6.158,-3.002 8.86,-5.145 0.67,-0.531 1.285,-1.104 2.226,-0.998 3.856,0.074 6.616,-1.943 8.432,-6.153 0.973,-5.239 -0.23,-10.374 -1.003,-15.475 -0.979,-6.452 -5.251,-10.133 -11.387,-11.823 -3.031,-1.808 -6.234,-2.411 -9.67,-1.378"
       id="path19"
       inkscape:connector-curvature="0"
       style="fill:#f7f1f1" />
    <path
       d="m 248.8593,110.0975 c 0.888,13.68 2.324,27.312 3.582,40.96 0.456,4.949 1.005,9.89 1.511,14.835 6.864,3.048 13.748,6.046 20.781,8.688 0.716,0.27 1.461,0.464 2.194,0.688 1.623,0.498 3.418,0.793 4.296,-0.953 0.903,-1.797 -0.908,-2.717 -2.021,-3.597 -1.918,-1.518 -3.992,-2.842 -6.015,-4.226 -4.395,-3.005 -5.299,-6.527 -3.048,-11.272 0.997,-2.104 2.585,-3.805 3.643,-5.844 0.527,-1.015 0.994,-2.088 1.298,-3.187 0.371,-1.344 -0.277,-2.451 -1.381,-3.146 -1.082,-0.681 -1.827,0.152 -2.579,0.853 -3.558,3.321 -4.451,3.175 -6.973,-1.064 -0.353,-0.593 -0.709,-1.189 -1.118,-1.742 -2.089,-2.825 -2.185,-5.648 0.028,-8.437 1.181,-1.488 1.524,-3.005 0.345,-4.627 -0.861,-1.183 -1.757,-1.785 -3.226,-0.612 -1.199,0.958 -2.535,2.17 -4.307,0.828 -1.507,-1.143 -1.842,-2.443 -0.604,-3.918 1.33,-1.586 3.086,-2.518 5.146,-2.747 2.259,-0.252 4.333,-0.977 6.181,-2.278 1.025,-0.722 1.737,-1.718 2.011,-2.986 0.349,-1.611 -0.345,-2.362 -1.966,-2.075 -0.297,0.052 -0.592,0.171 -0.862,0.31 -5.594,2.892 -10.19,1.16 -14.255,-3.062 -0.586,-0.609 -1.182,-1.209 -1.793,-1.793 -0.602,-0.576 -0.718,-0.032 -0.868,0.404"
       id="path21"
       inkscape:connector-curvature="0"
       style="fill:#31456a" />
    <path
       d="m 23.6094,185.7135 c 2.891,4.037 6.011,7.827 11.026,10.156 -0.953,-1.853 -1.572,-3.468 -1.315,-5.274 0.209,-1.468 0.752,-2.6 2.305,-3.092 2.526,-0.801 4.806,-1.958 6.183,-4.425 0.312,-0.56 0.872,-1.145 1.696,-0.936 0.85,0.217 0.804,0.993 0.974,1.654 2.893,11.25 5.796,22.497 8.71,33.741 0.091,0.352 0.313,0.671 0.474,1.006 3.06,-2.486 6.489,-4.38 10.059,-5.989 1.657,-0.747 2.138,-1.525 1.426,-3.309 -2.388,-5.983 -4.626,-12.026 -6.922,-18.046 -0.425,-1.113 -1.175,-2.178 -0.106,-3.388 0.4,-0.451 0.012,-1.048 -0.28,-1.489 -3.746,-5.653 -6.441,-11.815 -8.806,-18.137 -2.606,0.293 -5.239,0.348 -7.812,0.919 0.002,0.535 0.043,1.074 -0.002,1.606 -0.327,3.903 -3.105,5.282 -6.234,3.043 -2.993,-2.142 -5.725,-4.588 -8.101,-7.413 -0.848,-0.241 -1.706,-1.366 -2.489,-0.66 -0.782,0.705 -0.191,1.823 0.09,2.802 1.08,3.767 0.615,7.623 0.31,11.426 -0.156,1.943 -0.041,4.029 -1.186,5.805"
       id="path23"
       inkscape:connector-curvature="0"
       style="fill:#182142" />
    <path
       d="m 184.7952,286.8003 c -0.246,-0.981 -1.087,-1.58 -1.669,-2.471 0.757,-0.212 1.423,-0.398 2.088,-0.584 -0.867,-1.214 -2.219,-0.692 -3.357,-0.923 -0.895,-0.182 -1.763,-0.465 -2.657,-0.646 -1.268,0.282 -0.656,1.162 -0.55,1.834 0.418,2.643 1.215,5.19 2.422,8.35 -2.867,-1.72 -4.492,-3.777 -6.161,-5.761 -1.061,-1.261 -2.499,-2.366 -2.239,-4.326 -0.874,-0.063 -0.928,0.693 -1.109,1.212 -0.939,2.69 -2.577,4.661 -5.402,5.48 -1.758,4.047 -3.947,7.861 -6.28,11.598 -0.2,0.321 -0.261,0.714 0.018,1.064 3.25,0.947 6.613,1.208 9.952,1.316 5.295,0.171 10.603,0.155 15.899,0.012 4.445,-0.119 8.859,-0.762 13.014,-2.43 3.72,-1.492 6.516,-4.018 7.659,-8.026 0.712,-2.495 2.255,-3.302 4.485,-1.984 1.845,1.092 3.26,2.587 3.948,4.846 1.314,4.312 0.5,8.483 -0.338,12.678 -0.432,2.16 -1.054,4.282 -1.708,6.895 1.788,-1.515 2.751,-3.094 3.674,-4.658 2.465,-4.177 4.62,-8.437 4.782,-13.491 0.22,-6.882 -3.288,-11.423 -8.818,-14.764 -1.414,-0.854 -2.858,-1.873 -4.689,-1.664 -0.788,0.834 -1.73,1.571 -2.334,2.522 -1.518,2.389 -3.501,3.578 -6.368,2.996 -0.518,0.865 -0.18,1.797 -0.18,2.694 -10e-4,4.316 -4.119,8.587 -8.409,8.674 -2.932,0.06 -3.524,-0.863 -2.266,-3.539 0.195,-0.413 0.449,-0.81 0.24,-1.296 -1.832,-0.809 -1.747,-2.876 -2.77,-4.216 -0.127,-0.568 -1.816,-0.152 -0.877,-1.392"
       id="path25"
       inkscape:connector-curvature="0"
       style="fill:#638dbd" />
    <path
       d="m 77.6148,286.3363 c -7.698,8.242 -7.894,18.265 -0.632,26.759 3.581,4.188 8.144,5.242 13.305,4.494 2.89,-0.419 5.673,-1.321 8.375,-2.436 3.996,-1.647 4.772,-6.724 1.461,-9.617 -0.508,-0.444 -1.107,-0.785 -1.892,-1.332 3.184,-0.034 5.794,0.838 8.285,2.367 4.352,2.671 6.684,2.181 9.849,-1.872 0.473,-0.605 0.901,-1.244 1.364,-1.856 3.206,-4.245 3.596,-8.44 0.098,-12.806 -2.016,-2.517 -3.665,-5.331 -4.939,-8.303 -1.083,-2.526 -2.906,-3.866 -5.556,-4.226 -2.341,-0.743 -4.763,-0.165 -7.133,-0.438 -0.607,-0.342 -1.234,-0.601 -1.955,-0.544 -7.169,0.572 -13.814,2.457 -19.253,7.508 -0.725,0.674 -0.899,1.55 -1.377,2.302"
       id="path27"
       inkscape:connector-curvature="0"
       style="fill:#648cbc" />
    <path
       d="m 127.9669,313.143 c -7.027,0.393 -13.984,0.898 -20.599,3.812 -7.148,3.15 -15.044,3.268 -22.573,4.894 -2.971,0.641 -5.713,-0.746 -8.374,-1.934 -3.85,-1.718 -7.611,-3.619 -11.194,-5.845 -1.071,-0.665 -1.691,-0.925 -1.969,0.707 -0.281,1.649 -0.828,3.252 -1.258,4.876 0.219,0.309 0.552,0.589 0.639,0.931 1.932,7.551 7.773,11.493 13.945,15.114 6.233,3.657 12.844,4.167 19.771,2.42 7.269,-1.833 14.708,-2.935 21.903,-5.102 1.988,-0.599 3.997,-1.141 5.775,-2.234 2.555,-1.569 4.163,-3.789 4.465,-6.86 0.356,-3.622 1.209,-7.262 -0.531,-10.779"
       id="path29"
       inkscape:connector-curvature="0"
       style="fill:#31456b" />
    <path
       d="m 120.1235,254.0196 c 5.402,2.453 11.28,2.453 16.996,3.198 5.509,0.718 10.306,2.956 14.416,6.485 3.824,3.283 7.354,6.921 10.691,10.722 0.314,0.019 0.641,-0.045 0.812,-0.294 1.356,-1.976 3.604,-2.203 5.616,-2.899 0.49,-2.66 -0.815,-4.935 -1.73,-7.228 -1.98,-4.966 -5.201,-8.948 -10.051,-11.443 -0.747,-0.384 -1.502,-0.768 -2.381,-0.74 -4.202,-0.233 -7.619,-2.222 -10.761,-4.823 -0.921,-0.763 -1.535,-1.924 -2.843,-2.185 -7.074,2.636 -14.148,5.272 -21.223,7.908 0.153,0.433 0.305,0.866 0.458,1.299"
       id="path31"
       inkscape:connector-curvature="0"
       style="fill:#446183" />
    <path
       d="m 9.7631,217.9905 c 0.406,-0.198 0.878,-0.322 1.206,-0.61 0.892,-0.783 2.268,-1.378 1.958,-2.856 -0.291,-1.387 -1.624,-1.336 -2.748,-1.615 -1.596,-0.397 -3.193,-0.363 -4.802,-0.415 -1.106,-0.035 -2.691,0.06 -2.77,-1.266 -0.075,-1.257 1.346,-2.164 2.562,-2.26 2.808,-0.223 5.646,-0.547 8.406,0.587 4.375,1.798 8.945,2.663 13.69,2.485 0.35,-0.013 0.763,0.14 1.122,-0.399 -1.067,-1.061 -2.574,-1.147 -3.862,-1.677 -1.206,-0.495 -2.447,-0.903 -3.65,-1.405 -3.442,-1.436 -3.65,-1.824 -2.363,-5.273 1.018,-2.729 2.246,-5.38 3.268,-8.108 1.107,-2.957 0.617,-4.539 -1.843,-6.688 -5.956,2.48 -11.804,3.208 -17.719,-1.762 1.011,3.588 1.856,6.423 2.6,9.285 0.461,1.772 0.848,3.572 1.128,5.381 0.361,2.337 -0.754,4.303 -2.303,5.778 -2.672,2.544 -3.413,5.679 -3.568,9.122 -0.225,4.988 -0.239,4.949 4.413,3.237 1.715,-0.631 3.514,-1.034 5.275,-1.541"
       id="path33"
       inkscape:connector-curvature="0"
       style="fill:#182142" />
    <path
       d="m 59.6452,281.2933 c 0.058,-3.605 0.108,-3.71 3.719,-3.17 1.869,0.28 3.785,0.465 5.55,1.253 0.839,-2.106 0.615,-2.95 -1.39,-4.045 -1.177,-0.643 -2.165,-1.303 -2.273,-2.762 -0.585,-0.369 -0.946,0.152 -1.389,0.351 -1.677,-0.03 -2.56,-1.402 -3.558,-2.359 -3.458,-3.313 -7.581,-4.72 -12.262,-4.986 -4.507,-0.256 -8.597,-2.097 -12.77,-3.613 -1.689,-0.614 -3.813,-2.273 -5.109,-1.095 -1.404,1.277 0.392,3.378 0.931,5.034 3.084,9.48 10.468,13.478 20.623,14.421 2.659,0.247 5.335,0.224 7.928,0.971"
       id="path35"
       inkscape:connector-curvature="0"
       style="fill:#31456a" />
    <path
       d="m 197.1866,223.5344 c -4.63,1.686 -9.26,3.372 -13.89,5.057 5.421,4.845 10.837,9.696 16.274,14.523 0.386,0.343 0.901,0.628 1.401,0.742 2.587,0.593 8.665,-4.32 8.757,-7.031 0.019,-0.561 -0.107,-1.053 -0.508,-1.472 -3.597,-3.768 -7.181,-7.55 -10.801,-11.297 -0.286,-0.295 -0.816,-0.353 -1.233,-0.522"
       id="path37"
       inkscape:connector-curvature="0"
       style="fill:#1b1f44" />
    <path
       d="m 63.8625,272.9203 c 0.536,0.371 0.887,0.326 0.933,-0.412 0.864,-2.124 -0.134,-4.076 -0.703,-5.998 -1.227,-4.142 -1.014,-8.162 0.361,-12.21 2.059,-6.062 6.226,-9.299 12.623,-9.688 0.965,-0.058 2.035,0.152 2.776,-0.766 0.541,-0.185 1.083,-0.371 1.958,-0.671 -6.891,-3.062 -13.56,-5.744 -20.361,-8.109 -2.296,-0.799 -0.92,1.555 -1.767,1.982 -0.216,6.602 -0.803,13.198 -0.1,19.809 0.593,5.584 1.058,11.186 4.28,16.063"
       id="path39"
       inkscape:connector-curvature="0"
       style="fill:#000022" />
    <path
       d="m 154.2647,252.2276 c 6.007,1.886 9.556,6.298 11.989,11.793 1.02,2.302 1.705,4.735 2.245,7.2 0.249,0.891 0.757,1.231 1.64,0.767 0.109,-3.65 0.469,-7.252 2.11,-10.599 2.725,-4.613 6.726,-7.657 11.69,-9.518 -4.237,-0.134 -8.121,-1.19 -11.227,-4.287 -0.388,-0.159 -0.797,-0.086 -1.045,0.185 -1.501,1.64 -3.492,1.858 -5.53,1.969 -2.507,1.532 -5.022,0.505 -7.518,-0.005 -1.337,-0.274 -2.622,-0.842 -4.004,-0.86 -1.227,-0.017 -2.717,0.038 -2.783,1.618 -0.057,1.363 1.135,1.825 2.433,1.737"
       id="path41"
       inkscape:connector-curvature="0"
       style="fill:#638dbd" />
    <path
       d="m 166.2859,250.0185 c 2.747,0.783 4.7,-0.528 6.426,-2.435 2.597,-4.376 3.817,-9.166 4.275,-14.187 -0.073,-0.678 -0.146,-1.356 -0.253,-2.352 -4.499,1.704 -8.82,3.449 -13.221,4.96 -1.959,0.673 -3.368,1.569 -3.595,3.757 -0.881,0.698 -0.635,1.546 -0.323,2.403 0.727,1.269 0.845,2.758 1.482,4.073 0.906,1.869 2.115,3.354 4.177,3.98 0.37,0.07 0.716,0.011 1.032,-0.199"
       id="path43"
       inkscape:connector-curvature="0"
       style="fill:#f7f1f1" />
    <path
       d="m 100.7006,254.0265 c -4.683,0.795 -9.367,1.582 -14.047,2.388 -2.771,0.478 -4.479,2.132 -5.332,4.789 -0.913,2.846 -1.902,5.667 -2.858,8.499 1.09,1.392 1.668,-0.016 2.082,-0.548 1.769,-2.27 4.065,-3.917 6.332,-5.59 1.261,-0.931 2.877,-2.485 4.244,-1.516 1.471,1.043 -0.182,2.735 -0.558,4.117 -0.481,1.761 -1.338,3.415 -1.509,5.271 0.184,1.275 0.385,2.522 2.031,1.11 4.256,-4.824 7.696,-10.222 11.038,-15.688 1.633,-2.671 1.619,-2.679 -1.423,-2.832"
       id="path45"
       inkscape:connector-curvature="0"
       style="fill:#1a2042" />
    <path
       d="m 91.0859,272.5466 c -1.78,0.852 -1.34,-0.586 -1.475,-1.43 -2.202,2.072 -5.211,2.284 -7.836,3.378 -2.474,1.03 -4.673,2.347 -5.916,4.826 -0.629,1.254 -1.106,2.572 -0.061,3.881 0.454,1.133 2.137,1.553 1.817,3.135 4.923,-5.171 10.869,-8.225 18.047,-8.763 1.517,-0.113 3.026,-0.332 4.538,-0.503 -1.192,-2.93 -3.633,-3.849 -6.52,-4.095 -0.871,-0.074 -1.836,0.346 -2.594,-0.429"
       id="path47"
       inkscape:connector-curvature="0"
       style="fill:#31456a" />
    <path
       d="m 224.9519,213.542 c -1.417,0.535 -2.834,1.071 -4.251,1.606 0.068,0.302 0.257,0.548 0.38,0.824 0.324,0.726 -0.136,1.329 -0.643,1.51 -2.299,0.818 -1.413,5.033 -4.927,4.53 -0.971,-0.139 -1.96,-0.356 -2.941,-0.292 -0.681,0.044 -1.873,-0.191 -1.305,1.26 7.556,2.255 15.128,4.331 23.125,2.493 0.811,-0.186 1.645,-0.416 2.48,-0.057 0.466,-0.377 0.966,-0.719 1.388,-1.14 0.459,-0.459 0.668,-1.054 0.322,-1.663 -0.323,-0.567 -0.943,-0.439 -1.444,-0.385 -0.749,0.08 -1.479,0.336 -2.227,0.414 -2.647,0.273 -2.974,-0.033 -3.089,-2.743 -0.821,-0.195 -1.654,1.05 -2.459,-0.002 -0.685,-0.896 -0.13,-1.707 0.22,-2.53 0.39,-0.917 0.736,-1.841 -0.026,-2.754 -1.433,-0.792 -3.147,-0.376 -4.603,-1.071"
       id="path49"
       inkscape:connector-curvature="0"
       style="fill:#638dbd" />
    <path
       d="m 236.8697,225.4164 c -0.534,-1.359 -1.651,-0.803 -2.568,-0.733 -2.827,0.216 -5.647,0.534 -8.474,0.738 -2.651,0.191 -5.196,-0.29 -7.585,-1.49 -2.272,-1.142 -4.851,-0.612 -7.201,-1.331 -1.853,-1.159 -3.82,-1.605 -5.963,-0.96 -0.846,0.237 -1.137,0.764 -0.24,1.167 9.611,4.331 19.254,8.56 29.997,3.681 0.697,-0.317 1.357,-0.713 2.034,-1.072"
       id="path51"
       inkscape:connector-curvature="0"
       style="fill:#f5f0f0" />
    <path
       d="m 205.0783,221.6405 c 1.965,0.463 3.925,0.958 5.964,0.96 1.887,-0.895 3.718,0.345 5.616,0.147 1.434,-0.15 2.407,-0.445 2.318,-2.099 -0.089,-1.654 1.401,-2.049 2.311,-2.897 1.62,-1.509 1.543,-1.892 -0.586,-2.603 -5.351,1.922 -10.701,3.845 -16.052,5.768 0.143,0.241 0.286,0.483 0.429,0.724"
       id="path53"
       inkscape:connector-curvature="0"
       style="fill:#31456c" />
    <path
       d="m 185.699,251.6816 c 3.301,-0.084 6.466,0.781 9.67,1.378 -0.727,-0.984 -1.486,-1.946 -2.176,-2.956 -1.99,-2.915 -4.598,-4.823 -8.155,-5.441 -1.708,-0.297 -3.359,-0.924 -5.362,-1.022 2.11,2.13 4.159,4.325 6.357,6.36 1.036,0.96 0.474,1.261 -0.334,1.681"
       id="path55"
       inkscape:connector-curvature="0"
       style="fill:#628eba" />
    <path
       d="m 159.8997,301.627 c 1.716,-3.246 4.221,-6.042 5.468,-9.552 0.332,-0.936 0.562,-1.908 0.839,-2.863 -0.185,-0.998 -0.703,-1.476 -1.753,-1.122 -1.508,0.438 -2.068,1.764 -2.598,2.995 -1.501,3.484 -2.89,7.017 -4.323,10.531 -0.378,1.283 -0.756,2.565 -1.267,4.302 1.87,-1.297 2.389,-3.108 3.634,-4.291"
       id="path57"
       inkscape:connector-curvature="0"
       style="fill:#f5f0f0" />
    <path
       d="m 229.5254,214.8152 c 0.112,1.29 -0.42,2.327 -1.089,3.407 -0.76,1.227 -0.08,2.178 1.068,2.811 1.3,0.716 1.945,0.062 2.316,-1.135 0.051,-2.022 1.253,-3.873 0.887,-5.958 -1.391,-0.907 -2.554,-0.99 -3.182,0.875"
       id="path59"
       inkscape:connector-curvature="0"
       style="fill:#f1edee" />
    <path
       d="m 8.4074,228.6684 c 1.494,2.418 4.148,2.171 6.425,2.727 0.862,0.21 1.819,0.034 2.824,-0.114 -3.379,-1.047 -4.999,-4.078 -7.36,-6.258 0.024,1.554 -0.516,2.816 -1.889,3.645"
       id="path61"
       inkscape:connector-curvature="0"
       style="fill:#192143" />
    <path
       d="m 229.5254,214.8152 c 0.843,-1.081 2.063,-0.794 3.181,-0.875 0.693,-1.089 1.107,-2.133 -0.459,-2.859 -2.432,0.82 -4.863,1.64 -7.295,2.461 1.144,1.79 2.991,1.055 4.573,1.273"
       id="path63"
       inkscape:connector-curvature="0"
       style="fill:#33476e" />
    <path
       d="m 101.2958,101.8229 c 6.734,-2.358 13.467,-4.716 20.201,-7.074 -0.945,-1.81 -2.925,-2.338 -4.41,-3.456 -4.895,-3.686 -9.97,-7.145 -13.938,-11.903 -0.875,-1.05 -1.431,-1.168 -2.499,-0.083 -1.699,1.726 -4.212,2.109 -6.286,3.242 -4.686,2.559 -9.669,3.676 -15.007,3.545 -1.971,-0.049 -3.955,0.408 -5.933,0.634 l 0.063,0.627 c 4.173,0 8.351,0.132 12.516,-0.047 2.653,-0.115 4.637,0.364 6.205,2.81 2.187,3.409 4.771,6.564 7.187,9.826 0.536,0.724 0.861,1.664 1.901,1.879 M 200.007,69.3336 c 5.514,-1.705 11.029,-3.41 16.543,-5.115 -4.217,-1.849 -8.843,-2.437 -13.065,-4.304 -4.503,-1.992 -8.848,-4.251 -12.951,-6.971 -1.42,-0.942 -2.776,-1.938 -3.223,-3.733 -0.086,-0.347 -0.189,-0.827 -0.66,-0.81 -0.567,0.02 -0.81,0.592 -0.788,0.985 0.2,3.5 -2.639,4.057 -4.911,5.206 -5.597,2.829 -11.657,3.513 -18.41,3.809 3.547,1.035 6.559,0.769 9.533,0.634 3.526,-0.159 6.892,-0.149 10.205,1.558 5.854,3.017 11.996,5.463 17.727,8.741"
       id="path65"
       inkscape:connector-curvature="0"
       style="fill:#000022" />
    <path
       d="m 75.7978,283.2014 c -0.38,-3.918 1.948,-6.114 5.084,-7.604 1.842,-0.876 3.83,-1.638 5.829,-1.935 1.731,-0.256 2.519,-1.027 2.9,-2.546 0.83,-2.383 1.67,-4.762 2.484,-7.15 0.32,-0.939 0.789,-2.059 -0.108,-2.778 -0.837,-0.67 -1.923,-0.223 -2.824,0.244 -3.367,1.744 -6.234,4.114 -8.773,6.924 -0.504,0.559 -0.654,1.822 -1.926,1.346 -1.143,1.601 -1.801,3.594 -3.791,4.501 -1.896,0.865 -2.792,0.503 -2.98,-1.566 -0.351,-3.862 0.031,-7.671 1.365,-11.346 0.131,-0.36 0.312,-0.702 0.464,-1.054 1.018,-2.354 2.385,-4.748 -0.985,-6.868 9.107,0.882 17.527,-2.579 26.322,-2.648 -3.92,-1.698 -7.9,-3.274 -11.739,-5.14 -2.34,-1.138 -4.671,-1.876 -7.267,-1.734 -1.38,0.068 -2.785,-0.008 -4.135,0.23 -9.571,1.689 -15.354,11.477 -12.661,21.278 0.65,2.365 1.162,4.767 1.738,7.152 -0.49,2.187 1.141,2.828 2.632,3.408 1.768,0.688 1.39,2.141 1.487,3.462 2.489,0.924 4.577,2.572 6.884,3.824"
       id="path67"
       inkscape:connector-curvature="0"
       style="fill:#4a6994" />
    <path
       d="m 41.2215,169.1044 c 2.014,0.695 6.802,0.132 7.812,-0.919 -4.18,-10.974 -7.906,-22.102 -11.349,-33.328 -0.335,-1.092 -0.877,-2.127 -1.389,-3.155 -0.3,-0.603 -0.672,-1.439 -1.466,-1.214 -0.87,0.248 -0.552,1.199 -0.469,1.806 0.527,3.872 1.023,7.752 1.73,11.593 1.552,8.437 3.039,16.889 5.131,25.217"
       id="path69"
       inkscape:connector-curvature="0"
       style="fill:#010021" />
    <path
       d="m 206.4023,73.017 c -4.69,0.858 -9.177,2.465 -13.698,3.89 -20.479,6.452 -41.251,11.962 -61.52,19.091 -2.303,0.81 -4.604,1.625 -6.906,2.437 1.005,17.775 4.882,35.038 9.294,52.205 0.076,0.296 0.213,0.577 0.198,0.977 -1.109,0.58 -2.802,-0.403 -3.59,1.181 0.816,1.163 2.066,0.836 3.165,0.844 2.692,0.021 5.354,0.039 7.971,0.888 5.17,1.679 8.72,5.03 10.658,10.067 1.334,3.467 2.022,7.077 2.072,10.804 0.015,1.134 -0.202,2.322 0.537,3.345 0.431,0.273 0.8,0.064 0.913,-0.307 0.565,-1.845 0.745,-3.722 0.389,-5.616 1.726,11.96 0.246,21.476 -9.513,27.622 -0.647,0.407 -1.318,0.796 -1.627,1.561 0.035,4.918 1.169,9.687 2.017,14.489 0.811,4.591 2.075,9.085 3.293,13.583 0.238,0.878 0.443,1.796 1.23,2.402 1.094,0.564 2.109,0.062 3.104,-0.293 13.529,-4.824 26.965,-9.906 40.531,-14.631 7.985,-2.781 16.091,-5.154 24.177,-7.6 1.251,-0.378 2.482,-0.824 3.745,-1.15 1.571,-0.406 2.356,-1.34 2.297,-2.971 -1.335,-10.64 -3.077,-21.212 -5.219,-31.716 -0.33,-0.756 -0.934,-1.24 -1.718,-1.365 -4.703,-0.75 -7.17,-3.984 -8.965,-7.983 -0.093,-0.208 -0.241,-0.388 -0.312,-0.608 -0.252,-0.176 -0.02,-0.195 0.004,-0.153 0.449,0.764 1.024,1.132 1.801,0.36 0.021,-0.314 -0.008,-0.63 -0.182,-0.889 -3.041,-4.547 -4.291,-9.65 -4.601,-15.024 -0.433,-7.495 1.024,-14.372 6.668,-19.837 0.651,-0.631 1.457,-1.176 1.501,-2.228 -1.892,-14.719 -3.941,-29.416 -5.753,-44.144 -0.263,-2.137 -0.473,-4.279 -0.714,-6.418 -0.12,-1.065 -0.139,-2.182 -1.247,-2.813 m -106.0646,34.2953 c -8.636,3.408 -17.789,5.238 -26.419,8.663 -0.997,0.395 -1.981,0.835 -2.935,1.325 -4.189,2.148 -5.047,4.207 -4.659,8.685 0.983,11.33 4.08,22.188 7.474,32.922 8.402,26.572 17.473,52.925 26.881,79.159 1.013,2.822 2.271,5.549 3.752,8.159 1.96,3.453 3.443,3.987 7.394,2.778 8.19,-3.075 16.007,-7.039 24.191,-10.129 1.213,-0.458 2.162,-1.192 2.229,-2.647 -1.525,-9.448 -3.85,-18.716 -6.246,-27.969 -0.3,-1.157 -0.977,-1.885 -2.237,-1.925 -1.148,-0.093 -2.31,-0.094 -3.451,0.003 -7.942,0.673 -15.316,-5.333 -17.878,-12.401 -0.285,-0.785 -1.01,-1.702 0.32,-2.298 0.342,-0.81 -0.025,-1.514 -0.361,-2.196 -5.494,-11.124 -2.318,-21.199 6.009,-28.679 0.877,-0.787 2.12,-1.353 2.232,-2.784 -5.253,-15.895 -10.107,-31.912 -14.741,-47.997 -0.29,-1.006 -0.381,-2.163 -1.555,-2.669 m 148.2199,89.1322 c 0.736,-3.424 0.327,-6.891 0.208,-10.318 -0.237,-6.825 -0.754,-13.641 -1.183,-20.458 -0.693,-11.033 -1.619,-22.047 -2.664,-33.053 -0.61,-6.418 -0.969,-12.86 -1.499,-19.286 -1.242,-15.064 -1.625,-30.207 -4.127,-45.154 -0.534,-3.189 -0.885,-3.412 -4.039,-2.95 -4.792,0.702 -9.439,2.031 -14.088,3.347 -0.644,0.683 -0.644,1.525 -0.592,2.382 0.929,15.346 2.365,30.64 4.764,45.832 0.345,2.186 0.295,4.468 1.405,6.49 0.637,0.851 1.614,1.124 2.544,1.477 7.036,2.667 10.259,7.291 10.662,14.823 0.178,3.341 0.19,6.688 0.436,10.02 0.302,0.307 0.985,0.077 0.948,0.925 -0.128,2.886 0.137,5.777 -0.471,8.654 -0.756,3.577 -2.428,6.54 -5.303,8.81 -0.664,0.524 -1.31,1.057 -1.515,1.943 -0.21,3.538 0.538,7.005 0.776,10.509 0.299,4.421 0.542,8.852 1.038,13.258 0.739,2.408 0.287,4.885 0.407,7.329 0.119,2.437 0.791,2.967 2.996,2.017 4.165,-1.796 7.527,-4.443 8.861,-9.04 0.053,-0.185 0.234,-0.422 0.081,-0.493 0.075,0.914 -0.834,2.103 0.355,2.936"
       id="path71"
       inkscape:connector-curvature="0"
       style="fill:#648dbd" />
    <path
       d="m 100.3377,107.3123 c 4.298,14.684 8.635,29.357 13.354,43.912 0.762,2.35 0.992,4.949 2.765,6.906 0.644,0.219 1.206,-0.035 1.722,-0.356 3.26,-2.033 6.79,-3.347 10.555,-4.07 0.586,-0.113 1.208,-0.227 1.554,-0.824 0.279,-0.113 0.549,-0.292 0.838,-0.329 3.576,-0.467 3.607,-0.469 2.7,-3.915 -3.517,-13.358 -6.325,-26.857 -8.042,-40.569 -0.323,-2.584 -0.418,-5.196 -0.619,-7.795 -0.056,-0.728 0.21,-1.612 -0.887,-1.837 -8.017,2.859 -16.091,5.563 -23.94,8.877 m 126.8232,16.0121 c -1.443,-8.76 -2.639,-17.554 -3.662,-26.374 -1.094,-9.435 -1.527,-18.921 -2.333,-28.377 -4.941,1.416 -9.97,2.539 -14.764,4.444 0.63,4.86 1.254,9.721 1.89,14.58 1.46,11.17 2.897,22.343 4.417,33.505 0.254,1.861 0,3.849 1.089,5.556 0.629,0.344 1.206,0.079 1.72,-0.232 3.089,-1.873 6.425,-2.702 10.031,-2.483 0.608,0.037 1.232,-0.005 1.612,-0.619 m 9.3109,70.7097 c -0.283,-8.183 -1.12,-16.323 -1.881,-24.47 -0.617,-0.298 -1.205,-0.091 -1.745,0.177 -3.855,1.912 -7.933,2.997 -12.21,3.377 -0.459,0.041 -0.888,0.2 -1.205,0.567 0.986,6.025 2.005,12.045 2.949,18.076 0.744,4.751 1.394,9.517 2.086,14.277 0.41,0.701 0.156,1.423 0.092,2.148 -0.054,0.608 -0.008,1.224 0.877,1.162 3.752,-1.028 7.393,-2.38 11.005,-3.812 0.255,-0.292 0.572,-0.624 0.504,-1.001 -0.632,-3.481 0.106,-7.021 -0.472,-10.501 m -107.1393,12.8942 c 1.345,-0.157 1.793,0.56 2.099,1.787 2.3,9.214 4.477,18.453 6.27,27.78 0.422,1.369 -1.013,2.929 0.431,4.193 4.752,-1.338 9.217,-3.443 13.821,-5.178 0.885,-1.195 0.623,-2.227 -0.449,-3.142 -2.804,-9.117 -4.725,-18.423 -5.983,-27.873 -0.111,-0.836 -0.255,-1.668 -0.384,-2.502 -0.759,-0.599 -1.452,-0.112 -2.124,0.169 -3.937,1.644 -7.95,3.027 -12.181,3.713 -0.638,0.103 -1.43,0.093 -1.5,1.053"
       id="path73"
       inkscape:connector-curvature="0"
       style="fill:#31456a" />
    <path
       d="m 151.5047,232.3681 c 0.244,1.034 0.632,2.047 0.448,3.142 10.945,-4.259 21.789,-8.802 32.86,-12.703 13.171,-4.641 26.536,-8.729 39.815,-13.064 0.282,-0.092 0.539,-0.262 0.807,-0.395 -1.123,-0.869 0,-2.396 -0.969,-3.31 0.098,1.16 -0.358,1.654 -1.57,2.023 -11.214,3.421 -22.49,6.655 -33.516,10.67 -12.251,4.461 -24.512,8.892 -36.771,13.332 -0.358,0.13 -0.736,0.205 -1.104,0.305"
       id="path75"
       inkscape:connector-curvature="0"
       style="fill:#4b6895" />
    <path
       d="m 160.2009,242.1322 c -0.555,-0.735 -0.398,-1.556 -0.283,-2.371 -0.037,-1.273 -0.105,-2.333 -1.946,-1.597 -5.673,2.269 -11.385,4.44 -17.083,6.649 2.895,4.238 7.374,6.047 11.917,7.745 0.514,0.192 1.066,0.19 1.459,-0.331 -0.738,-0.646 -2.48,-0.813 -1.889,-2.102 0.509,-1.112 2.029,-0.778 3.165,-0.495 3.326,0.831 6.58,2.166 10.132,1.22 0.541,-0.144 0.871,-0.207 0.613,-0.832 l -0.9,-0.195 c -4.039,-0.979 -4.869,-2.21 -5.185,-7.691"
       id="path77"
       inkscape:connector-curvature="0"
       style="fill:#31456a" />
    <path
       d="m 138.1326,240.6884 c -0.15,-1.397 0.369,-2.863 -0.432,-4.193 -0.07,1.16 -0.99,1.463 -1.849,1.787 -8.095,3.06 -15.937,6.709 -23.838,10.223 -0.269,0.12 -0.362,0.241 -0.188,0.497 7.13,-1.12 13.855,-3.635 20.615,-6.017 1.926,-0.679 3.94,-1.173 5.692,-2.297"
       id="path79"
       inkscape:connector-curvature="0"
       style="fill:#4c6895" />
    <path
       d="m 236.4718,194.0341 c -0.011,3.834 -0.021,7.668 -0.032,11.502 2.941,-0.897 5.705,-2.23 8.535,-3.405 2.62,-1.087 3.928,-2.82 3.583,-5.687 -0.057,-1.221 -0.114,-2.442 -0.185,-3.959 -2.12,5.5 -5.715,9.043 -11.27,10.549 -0.636,-3.093 0.397,-6.118 -0.631,-9"
       id="path81"
       inkscape:connector-curvature="0"
       style="fill:#4b6895" />
    <path
       d="m 60.5574,297.4381 c -0.128,2.038 0.072,4.248 0.747,6.384 0.419,1.327 0.927,2.773 2.764,2.47 1.719,-0.283 2.35,-1.627 2.459,-3.173 0.203,-2.85 -0.453,-5.629 -0.862,-8.428 -0.191,-1.312 -0.505,-2.563 -1.432,-3.56 -1.43,-1.54 -2.496,-1.33 -3.138,0.644 -0.577,1.773 -0.568,3.622 -0.538,5.663"
       id="path83"
       inkscape:connector-curvature="0"
       style="fill:#496894" />
    <path
       d="m 164.4534,288.0901 c 0.584,0.374 1.169,0.748 1.753,1.122 3.483,-0.048 4.778,-2.542 5.867,-5.259 0.222,-0.552 0.051,-1.245 0.6,-1.681 1.256,-3.218 0.083,-6.023 -1.49,-8.76 -0.009,-0.888 -0.466,-1.34 -1.344,-1.381 -0.447,-0.303 -0.894,-0.607 -1.341,-0.911 -2.999,-0.71 -4.818,0.89 -6.272,3.204 -2.516,5.769 -1.827,9.995 2.227,13.666"
       id="path85"
       inkscape:connector-curvature="0"
       style="fill:#1b1f44" />
    <path
       d="m 188.4419,292.4088 c -0.967,1.329 -2.646,2.61 -1.531,4.415 1.037,1.678 3.057,1.225 4.677,1.043 5.42,-0.609 9.187,-6.747 7.469,-11.992 -0.33,-0.128 -0.666,-0.556 -1.017,-0.153 -2.642,3.033 -6.525,4.279 -9.598,6.687"
       id="path87"
       inkscape:connector-curvature="0"
       style="fill:#496894" />
    <path
       d="m 194.0921,259.3752 c -2.335,-1.686 -4.558,-2.56 -6.961,-2.991 -1.316,-0.236 -2.175,0.388 -2.725,1.581 -0.969,2.1 -1.041,4.257 -0.583,6.903 3.035,-2.683 6.005,-4.96 10.269,-5.493"
       id="path89"
       inkscape:connector-curvature="0"
       style="fill:#1b2045" />
    <path
       d="m 179.1998,282.1766 c 1.558,2.239 3.961,1.239 6.016,1.569 0.853,-0.086 1.63,-0.391 2.332,-0.872 1.579,-1.082 2.826,-2.251 0.76,-4.219 -2.03,2.46 -4.536,3.932 -7.93,3.028 -0.412,-0.11 -0.924,-10e-4 -1.178,0.494"
       id="path91"
       inkscape:connector-curvature="0"
       style="fill:#283157" />
    <path
       d="m 185.5943,277.953 c 0.011,-1.619 -1.922,-3.901 -3.348,-3.817 -0.938,0.055 -1.872,0.443 -1.924,1.568 -0.072,1.549 2.115,4.588 3.223,4.514 1.339,-0.089 2.033,-0.904 2.049,-2.265"
       id="path93"
       inkscape:connector-curvature="0"
       style="fill:#20254a" />
    <path
       d="m 169.8393,272.1315 1.344,1.38 c 0.64,-0.367 0.633,-0.989 0.639,-1.608 0.031,-3.51 -0.2,-7.03 0.426,-10.515 -2.373,2.54 -2.627,5.697 -2.584,8.934 0.008,0.603 0.114,1.206 0.175,1.809"
       id="path95"
       inkscape:connector-curvature="0"
       style="fill:#cddae6" />
    <path
       d="m 201.4198,274.4077 c -0.324,0.491 -0.965,0.978 -0.438,1.597 0.351,0.413 1.018,0.376 1.527,0.2 2.011,-0.698 3.348,-2.228 4.087,-4.087 0.407,-1.024 -0.233,-1.85 -1.54,-1.026 -1.492,0.798 -2.654,1.958 -3.636,3.316"
       id="path97"
       inkscape:connector-curvature="0"
       style="fill:#21264a" />
    <path
       d="m 203.729,268.8346 c -0.289,-0.537 -0.471,-1.187 -0.89,-1.588 -0.892,-0.854 -1.876,-0.505 -2.69,0.175 -0.846,0.708 -0.57,1.488 0.095,2.188 0.37,0.388 0.754,0.762 1.131,1.143 0.336,0.688 0.633,1.448 1.652,1.082 0.791,-0.283 0.904,-0.94 0.877,-1.664 -0.018,-0.451 0.063,-0.914 -0.175,-1.336"
       id="path99"
       inkscape:connector-curvature="0"
       style="fill:#1e2348" />
    <path
       d="m 203.729,268.8346 c -0.19,0.906 0.453,2.049 -0.701,2.677 -0.843,0.46 -1.179,-0.337 -1.653,-0.76 0.015,1.219 0.03,2.438 0.045,3.656 1.632,-0.644 2.693,-1.915 3.636,-3.316 -1.718,-0.002 -0.398,-1.791 -1.327,-2.257"
       id="path101"
       inkscape:connector-curvature="0"
       style="fill:#6589b4" />
    <path
       d="m 184.7952,286.8003 c -0.738,0.276 -1.475,0.552 -2.624,0.982 1.423,0.659 2.482,0.382 3.501,0.41 1.504,-0.729 3.343,-0.89 4.397,-2.691 -1.833,0.477 -3.41,1.536 -5.274,1.299"
       id="path103"
       inkscape:connector-curvature="0"
       style="fill:#3d5075" />
    <path
       d="m 106.2556,294.2502 c 1.235,-1.551 2.471,-3.102 3.706,-4.652 1.956,-2.365 1.894,-4.383 -0.39,-5.835 -4.956,-3.149 -10.237,-5.354 -16.282,-4.288 -5.035,0.888 -9.169,3.561 -13.06,6.796 -5.942,4.939 -6.878,11.292 -5.555,18.33 0.456,2.428 1.456,2.942 3.909,2.557 0.577,-0.048 1.025,-0.303 1.308,-0.821 0.339,-0.927 0.089,-2.062 0.994,-2.784 1.101,-0.574 2.161,-0.676 3.148,0.229 0.382,0.369 0.757,0.754 1.363,0.661 3.207,-2.32 6.83,-3.563 10.663,-4.46 3.459,-0.809 6.176,-3.231 9.237,-4.911 0.558,0.004 1.095,-0.015 0.959,-0.822"
       id="path105"
       inkscape:connector-curvature="0"
       style="fill:#cedae6" />
    <path
       d="m 78.5834,307.1581 c -1.898,0.064 -2.913,-0.776 -3.292,-2.717 -2.136,-10.96 3.17,-19.629 14.697,-23.624 6.957,-2.411 13.251,-0.184 19.231,3.262 2.409,1.388 1.371,3.555 0.742,5.519 1.362,-0.196 2.05,-1.315 2.832,-2.213 0.94,-1.08 0.348,-2.228 -0.658,-2.708 -4.315,-2.059 -7.863,-5.774 -12.957,-6.146 -6.032,-0.442 -11.358,1.595 -16.129,5.06 -3.334,2.421 -6.797,4.815 -8.639,8.747 -2.217,4.736 -1.911,9.571 -0.192,14.31 0.927,2.556 2.79,1.266 4.365,0.51"
       id="path107"
       inkscape:connector-curvature="0"
       style="fill:#9cb2d5" />
    <path
       d="m 106.2556,294.2502 -0.96,0.822 c -0.083,4.151 2.49,6.699 6.473,6.409 1.702,-0.628 1.937,-1.666 0.859,-3.071 -0.172,-0.421 -0.349,-0.841 -0.516,-1.264 -1.267,-3.208 -2.449,-3.793 -5.856,-2.896"
       id="path109"
       inkscape:connector-curvature="0"
       style="fill:#020322" />
    <path
       d="m 85.3962,304.4436 c -0.298,-0.293 -0.597,-0.586 -0.895,-0.879 -1.212,-1.214 -2.618,-0.938 -4.042,-0.527 -1.35,0.9 -1.033,2.087 -0.567,3.299 1.759,1.89 3.021,4.445 6.102,4.572 2.08,-0.791 2.342,-1.523 1.328,-3.715 -0.912,-0.728 -1.376,-1.769 -1.926,-2.75"
       id="path111"
       inkscape:connector-curvature="0"
       style="fill:#010221" />
    <path
       d="m 112.6274,298.4098 c 0.115,1.137 0.122,2.243 -0.86,3.072 -0.706,1.173 -1.967,1.231 -3.101,1.585 -1.443,0.449 -2.015,1.169 -0.469,2.278 2.417,0.676 4.389,-0.29 6.116,-1.817 0.677,-0.599 1.019,-1.511 0.314,-2.422 -0.004,-0.824 0.012,-1.649 -0.018,-2.472 -0.034,-0.918 0.368,-2.292 -0.96,-2.361 -1.263,-0.065 -0.762,1.36 -1.022,2.137"
       id="path113"
       inkscape:connector-curvature="0"
       style="fill:#ccd8e3" />
    <path
       d="m 87.322,307.1934 c 0.015,1.402 0.37,2.926 -1.328,3.715 -0.321,0.741 -1.072,0.763 -1.68,1.056 -0.677,0.325 -2.044,0.087 -1.802,1.255 0.184,0.882 1.358,0.201 2.042,0.453 2.727,0.339 5.067,-1.053 5.605,-3.334 0.049,-2.77 -0.257,-3.109 -2.837,-3.145"
       id="path115"
       inkscape:connector-curvature="0"
       style="fill:#ccd8e4" />
    <path
       d="m 114.6271,301.1053 c -0.044,2.452 -1.896,3.094 -3.75,3.676 -0.867,0.272 -1.785,0.38 -2.68,0.563 1.802,1.888 3.511,0.243 5.156,-0.258 1.512,-0.461 2.628,-1.59 2.515,-3.39 -0.061,-0.97 -0.274,-1.931 -0.508,-3.49 -0.345,1.364 -0.539,2.132 -0.733,2.899"
       id="path117"
       inkscape:connector-curvature="0"
       style="fill:#202b4e" />
    <path
       d="m 90.1591,310.3384 c -1.349,1.983 -3.387,2.809 -5.605,3.334 -0.516,0.579 -1.338,0.204 -1.924,0.601 1.225,0.933 4.164,0.484 6.518,-1.174 1.234,-0.869 2.846,-1.722 2.042,-3.794 -0.861,-0.066 -0.448,0.947 -1.031,1.033"
       id="path119"
       inkscape:connector-curvature="0"
       style="fill:#1e2849" />
    <path
       d="m 89.656,334.3942 c 8.473,-0.191 16.603,-2.485 24.84,-4.101 1.168,-0.229 2.239,-0.944 3.355,-1.434 4.235,-2.947 5.881,-7.417 7.073,-12.13 0.111,-0.439 0.404,-1.304 -0.645,-1.34 -7.054,2.309 -13.982,5.048 -21.35,6.287 -8.809,1.48 -17.66,2.197 -26.576,1.226 -1.457,-0.158 -1.943,0.325 -2.037,1.665 -0.081,1.169 -0.141,2.301 0.588,3.311 4.022,4.198 8.856,6.56 14.752,6.516"
       id="path121"
       inkscape:connector-curvature="0"
       style="fill:#cedae6" />
    <path
       d="m 124.2789,315.3888 c 1.15,0.785 0.343,1.691 0.038,2.434 -1.629,3.98 -3.504,7.831 -6.466,11.037 1.719,-0.097 3.229,-0.903 4.736,-1.576 1.49,-0.665 1.939,-2.1 2.228,-3.724 0.418,-2.355 0.309,-4.702 0.388,-7.052 0.016,-0.496 0.454,-1.646 -0.924,-1.119"
       id="path123"
       inkscape:connector-curvature="0"
       style="fill:#4b6894" />
    <path
       d="m 89.656,334.3942 c -5.497,-0.861 -10.282,-3.331 -14.752,-6.516 1.165,3.909 5.893,8.504 11.215,7.036 1.155,-0.319 2.46,0.351 3.537,-0.52"
       id="path125"
       inkscape:connector-curvature="0"
       style="fill:#4b6994" />
    <path
       d="m 160.2009,242.1322 c -1.491,4.491 0.687,7.721 5.186,7.691 -3.323,-1.489 -4.035,-4.738 -5.186,-7.691"
       id="path127"
       inkscape:connector-curvature="0"
       style="fill:#6b90ba" />
    <path
       d="m 130.2874,152.8802 c -5.102,0.454 -9.641,2.39 -13.83,5.25 -4.157,3.263 -7.736,6.992 -9.789,11.98 -2.658,6.457 -2.004,12.761 0.782,18.994 0.401,0.898 1.102,1.682 1.114,2.741 0.54,2.595 2.483,4.164 4.357,5.704 3.533,2.903 7.745,4.026 12.232,4.099 2.854,0.046 5.653,-0.55 8.438,-1.149 1.597,-0.344 2.394,-1.18 2.138,-2.927 -1.181,-8.064 -1.515,-16.211 -2.321,-24.312 -0.152,-1.533 -0.18,-3.07 -0.015,-4.604 0.049,-0.455 0.163,-0.945 0.739,-1.022 0.432,-0.058 0.701,0.257 0.947,0.554 0.597,0.721 0.967,1.571 1.303,2.429 2.251,5.741 3.93,11.65 5.132,17.694 0.3,1.507 0.543,3.027 0.865,4.531 0.85,3.98 1.893,4.304 5.192,1.776 4.402,-3.373 6.585,-8.002 7.677,-13.266 0.186,-0.896 0.305,-1.844 -0.463,-2.6 0.223,-4.257 -0.325,-8.415 -1.486,-12.513 -2.377,-8.389 -9.447,-13.622 -18.183,-13.417 -1.609,0.037 -3.219,0.039 -4.829,0.058 m 96.8735,-29.5558 c -4.87,-0.556 -9.333,0.521 -13.363,3.334 -7.224,5.746 -9.062,13.535 -8.487,22.263 0.375,5.694 1.828,11.013 5.212,15.7 0.219,1.253 1.271,1.661 2.225,2.113 3.028,1.433 6.214,1.531 9.455,0.994 1.945,-0.322 3.169,-1.452 2.912,-3.455 -0.637,-4.961 -0.065,-9.965 -0.672,-14.918 -0.253,-2.066 -0.257,-4.131 -0.048,-6.196 0.06,-0.591 0.077,-1.397 0.79,-1.509 0.647,-0.102 1.034,0.572 1.378,1.077 0.744,1.095 1.13,2.342 1.462,3.606 0.899,3.415 1.457,6.903 2.189,10.353 0.238,1.123 0.388,2.271 0.902,3.32 0.757,0.937 0.463,2.582 2.002,3 0.384,0.07 0.765,0.038 1.116,-0.129 3.323,-1.578 7.249,-8.847 6.799,-12.587 -0.028,-0.233 -0.187,-0.411 -0.343,-0.58 0.341,-4.057 0.241,-8.104 -0.267,-12.142 -0.928,-7.368 -4.918,-12.052 -12.171,-13.877 -0.371,-0.093 -0.728,-0.243 -1.091,-0.367"
       id="path129"
       inkscape:connector-curvature="0"
       style="fill:#fefbfc" />
    <path
       d="m 154.7856,178.7518 c -0.486,6.921 -3.26,12.543 -9.177,16.463 -1.418,0.939 -1.976,0.917 -2.265,-0.929 -1.178,-7.53 -3.012,-14.908 -5.581,-22.089 -0.567,-1.585 -1.298,-3.118 -2.05,-4.627 -0.375,-0.751 -0.932,-1.484 -1.992,-1.116 -0.955,0.333 -1.125,1.078 -1.119,2.014 0.032,5.304 0.5,10.583 1.023,15.851 0.47,4.726 0.471,9.511 1.608,14.161 0.127,0.518 0.047,0.788 -0.479,1.069 -6.54,3.496 -18.561,1.14 -23.692,-4.69 -0.862,-0.979 -1.667,-2.009 -2.498,-3.015 -0.411,-0.3 -0.823,-0.602 -1.606,-1.176 0.534,3.672 1.968,6.521 4.024,9.082 4.735,5.896 10.95,8.068 18.351,7.179 3.119,-0.602 6.241,-1.206 9.224,-2.333 2.207,-0.833 4.388,-1.733 6.58,-2.603 11.749,-6.108 13.414,-17.667 11.231,-29.934 -0.02,-0.11 -0.209,-0.191 -0.48,-0.423 -0.652,2.397 -0.18,4.883 -1.102,7.116 m 85.9044,-29.041 c -0.856,5.234 -2.45,10.051 -7.342,13.005 -0.869,-0.05 -1.806,-0.372 -2.436,0.984 -0.371,-1.221 -0.314,-1.962 0.498,-2.545 0.441,-0.316 0.958,-0.625 0.374,-1.253 -1.04,-4.72 -2.055,-9.445 -3.133,-14.156 -0.431,-1.885 -1.069,-3.703 -2.648,-4.999 -0.407,-0.334 -0.761,-0.897 -1.343,-0.767 -0.758,0.169 -0.717,0.947 -0.784,1.513 -0.427,3.601 -0.144,7.21 -0.019,10.814 0.147,4.217 0.085,8.449 0.689,12.637 0.19,1.316 -0.359,1.661 -1.565,1.934 -4.502,1.017 -8.667,0.493 -12.458,-2.257 -0.67,-0.307 -1.341,-0.614 -2.048,-0.938 0.974,5.104 4.541,8.712 9.421,9.604 0.518,0.095 1.023,0.264 1.534,0.398 5.484,0.209 10.423,-1.584 15.161,-4.12 6.587,-5.077 9.289,-13.347 6.807,-20.879 -0.625,0.075 -0.288,0.82 -0.708,1.025"
       id="path131"
       inkscape:connector-curvature="0"
       style="fill:#010122" />
    <path
       d="m 136.7359,115.96 c 10.02,-6.018 19.962,-12.166 31.495,-15.053 11.367,-2.846 22.894,-4.829 33.964,-6.607 -24.79,-2.839 -47.251,3.009 -65.459,21.66"
       id="path133"
       inkscape:connector-curvature="0"
       style="fill:#172044" />
    <path
       d="m 176.4758,133.1748 c -3.784,-0.271 -7.072,0.312 -10.344,-0.453 -1.418,-0.331 -2.774,-0.113 -3.648,1.277 -1.288,2.051 -0.137,4.04 2.581,4.148 4.29,0.17 8.581,0.152 12.804,-0.88 4.978,-1.217 9.973,-2.364 14.954,-3.569 0.627,-0.152 1.652,0.074 1.733,-0.785 0.082,-0.878 -0.908,-1.142 -1.584,-1.459 -2.385,-1.118 -5.008,-1.368 -7.53,-1.979 -1.555,-0.377 -3.15,-0.596 -4.729,-0.872 -0.916,-0.159 -1.84,-0.284 -2.648,0.357 -0.448,0.355 -0.993,0.339 -1.504,0.478 -0.899,0.244 -2.157,-1.135 -2.628,0.28 -0.35,1.049 1.064,1.53 1.64,2.302 0.175,0.235 0.361,0.464 0.903,1.155"
       id="path135"
       inkscape:connector-curvature="0"
       style="fill:#4b6b94" />
    <path
       d="m 101.1318,292.8698 c -1.013,0 -1.63,-0.059 -2.23,0.016 -0.602,0.076 -1.538,-0.411 -1.669,0.639 -0.08,0.632 0.494,1.095 0.991,1.46 0.805,0.59 1.248,-0.031 1.691,-0.569 0.33,-0.4 0.642,-0.814 1.217,-1.546"
       id="path137"
       inkscape:connector-curvature="0"
       style="fill:#587ca2" />
    <path
       d="m 95.056,286.1963 c -2.139,-0.947 -3.858,-1.186 -5.619,0 z"
       id="path139"
       inkscape:connector-curvature="0"
       style="fill:#4f6284" />
    <path
       d="m 80.4589,303.0371 c 1.416,-0.354 2.77,-0.227 4.042,0.527 -1.134,-1.81 -2.561,-1.375 -4.042,-0.527"
       id="path141"
       inkscape:connector-curvature="0"
       style="fill:#648cbc" />
    <path
       d="m 120.479,318.7617 c -0.726,0.201 -1.294,0.567 -1.211,1.397 0.066,0.661 0.505,1.162 1.176,1.178 0.772,0.019 1.319,-0.48 1.332,-1.254 0.014,-0.785 -0.555,-1.183 -1.297,-1.321"
       id="path143"
       inkscape:connector-curvature="0"
       style="fill:#475a7c" />
    <path
       d="m 84.6021,327.049 c -0.062,-0.696 -0.489,-1.055 -1.205,-1.021 -0.704,0.032 -1.163,0.411 -1.139,1.15 0.026,0.808 0.445,1.294 1.313,1.186 0.723,-0.09 1.036,-0.563 1.031,-1.315"
       id="path145"
       inkscape:connector-curvature="0"
       style="fill:#384b70" />
    <path
       d="m 231.7843,159.9017 c -2.034,0.741 -2.135,2.296 -1.699,4.065 0.091,0.37 0.258,0.782 0.685,0.786 0.237,0.003 0.675,-0.271 0.684,-0.44 0.071,-1.237 1.213,-1.133 1.893,-1.596 -1.485,-0.403 -0.538,-2.156 -1.563,-2.815"
       id="path147"
       inkscape:connector-curvature="0"
       style="fill:#e6e5e8" />
    <path
       d="m 141.1259,194.2378 c -0.212,-0.775 0.033,-2.05 -1.028,-1.991 -1.17,0.066 -0.926,1.348 -0.926,2.207 0.001,0.801 -0.118,2.044 0.939,1.99 1.135,-0.059 0.826,-1.38 1.015,-2.206"
       id="path149"
       inkscape:connector-curvature="0"
       style="fill:#dbdbdf" />
  </g>
</svg>
