<?xml version="1.0" encoding="UTF-8" standalone="no"?>
<svg
   xmlns:dc="http://purl.org/dc/elements/1.1/"
   xmlns:cc="http://creativecommons.org/ns#"
   xmlns:rdf="http://www.w3.org/1999/02/22-rdf-syntax-ns#"
   xmlns:svg="http://www.w3.org/2000/svg"
   xmlns="http://www.w3.org/2000/svg"
   xmlns:sodipodi="http://sodipodi.sourceforge.net/DTD/sodipodi-0.dtd"
   xmlns:inkscape="http://www.inkscape.org/namespaces/inkscape"
   width="56.191536"
   height="200"
   version="1.1"
   id="svg171"
   sodipodi:docname="controller.svg"
   inkscape:version="0.92.4 5da689c313, 2019-01-14">
  <metadata
     id="metadata175">
    <rdf:RDF>
      <cc:Work
         rdf:about="">
        <dc:format>image/svg+xml</dc:format>
        <dc:type
           rdf:resource="http://purl.org/dc/dcmitype/StillImage" />
      </cc:Work>
    </rdf:RDF>
  </metadata>
  <sodipodi:namedview
     pagecolor="#ffffff"
     bordercolor="#666666"
     borderopacity="1"
     objecttolerance="10"
     gridtolerance="10"
     guidetolerance="10"
     inkscape:pageopacity="0"
     inkscape:pageshadow="2"
     inkscape:window-width="471"
     inkscape:window-height="442"
     id="namedview173"
     showgrid="false"
     inkscape:zoom="1.18"
     inkscape:cx="28.095768"
     inkscape:cy="100"
     inkscape:window-x="0"
     inkscape:window-y="0"
     inkscape:window-maximized="0"
     inkscape:current-layer="svg171">
    <inkscape:grid
       type="xygrid"
       id="grid177"
       originx="-4.9959469e-13"
       originy="0" />
  </sodipodi:namedview>
  <defs
     id="defs5">
    <clipPath
       id="a">
      <path
         d="M 0,345.34 H 97.026 V 0 H 0 Z"
         id="path2"
         inkscape:connector-curvature="0" />
    </clipPath>
  </defs>
  <g
     clip-path="url(#a)"
     transform="matrix(0.5791394,0,0,-0.5791394,-4.5221131e-5,200)"
     id="g169">
    <path
       d="m 78.039,316.0045 h -1.141 c -0.822,0 -1.494,0.672 -1.494,1.494 0,0.821 0.672,1.494 1.494,1.494 h 1.141 c 0.822,0 1.494,-0.673 1.494,-1.494 0,-0.822 -0.672,-1.494 -1.494,-1.494"
       id="path7"
       inkscape:connector-curvature="0"
       style="fill:#8a1001" />
    <path
       d="m 50.2001,323.0427 c 2.785,-0.287 5.523,0.642 8.346,-0.552 1.525,-0.645 3.546,-0.115 5.82,-0.115 -2.5,-1.404 -4.048,-3.034 -3.644,-5.557 0.352,-2.205 1.882,-3.736 4.086,-4.052 2.481,-0.356 4.205,1.058 5.462,3.712 0,-11.504 -0.001,-22.462 0.002,-33.42 0,-0.724 0.049,-1.396 -1.026,-1.392 -6.249,0.023 -12.499,0.011 -19.364,0.011 1.694,1.663 2.938,2.946 4.253,4.151 0.776,0.711 1.081,1.474 1.076,2.549 -0.044,9.077 0.004,18.154 -0.045,27.231 -0.013,2.433 -1.236,4.377 -3.168,5.769 -0.669,0.482 -1.193,1.054 -1.798,1.665"
       id="path9"
       inkscape:connector-curvature="0"
       style="fill:#1a5bc0" />
    <path
       d="m 59.9651,285.8189 h -3.267 c -0.6,0 -1.092,0.492 -1.092,1.092 v 18.365 c 0,0.601 0.492,1.092 1.092,1.092 h 3.267 c 0.601,0 1.092,-0.491 1.092,-1.092 v -18.365 c 0,-0.6 -0.491,-1.092 -1.092,-1.092"
       id="path11"
       inkscape:connector-curvature="0" />
    <path
       d="m 68.9654,317.5002 c 0,-1.943 -1.575,-3.519 -3.519,-3.519 -1.943,0 -3.519,1.576 -3.519,3.519 0,1.943 1.576,3.519 3.519,3.519 1.944,0 3.519,-1.576 3.519,-3.519"
       id="path13"
       inkscape:connector-curvature="0"
       style="fill:#164489" />
    <path
       d="m 53.5187,118.8855 h -0.748 c -0.197,0 -0.357,0.161 -0.357,0.357 v 2.657 c 0,0.196 0.16,0.357 0.357,0.357 h 0.748 c 0.196,0 0.357,-0.161 0.357,-0.357 v -2.657 c 0,-0.196 -0.161,-0.357 -0.357,-0.357"
       id="path15"
       inkscape:connector-curvature="0"
       style="fill:#a6724f" />
    <path
       d="m 69.1306,102.6656 c 0,0.495 0.405,0.899 0.899,0.899 h 8.551 c 0.495,0 0.899,-0.404 0.899,-0.899 0,-0.495 -0.404,-0.899 -0.899,-0.899 h -8.551 c -0.494,0 -0.899,0.404 -0.899,0.899"
       id="path17"
       inkscape:connector-curvature="0"
       style="fill:#901909" />
    <path
       d="m 58.2544,87.5907 h -35.092 c -0.835,0 -1.518,0.683 -1.518,1.518 v 8.456 c 0,0.835 0.683,1.518 1.518,1.518 h 35.092 c 0.835,0 1.518,-0.683 1.518,-1.518 v -8.456 c 0,-0.835 -0.683,-1.518 -1.518,-1.518"
       id="path19"
       inkscape:connector-curvature="0"
       style="fill:#625b65" />
    <path
       d="m 59.5225,75.668 h -40.074 c -0.806,0 -1.465,0.659 -1.465,1.465 v 6.562 c 0,0.806 0.659,1.465 1.465,1.465 h 40.074 c 0.806,0 1.465,-0.659 1.465,-1.465 v -6.562 c 0,-0.806 -0.659,-1.465 -1.465,-1.465 m 0.5111,25.6117 h -40.003 c -0.825,0 -1.5,0.675 -1.5,1.5 v 6.955 c 0,0.825 0.675,1.5 1.5,1.5 h 40.003 c 0.825,0 1.5,-0.675 1.5,-1.5 v -6.955 c 0,-0.825 -0.675,-1.5 -1.5,-1.5"
       id="path21"
       inkscape:connector-curvature="0"
       style="fill:#8a828d" />
    <path
       d="m 63.5913,86.706 c -0.869,0 -1.581,0.711 -1.581,1.581 v 9.35 c 0,0.869 0.712,1.581 1.581,1.581 0.869,0 1.581,-0.712 1.581,-1.581 v -9.35 c 0,-0.87 -0.712,-1.581 -1.581,-1.581"
       id="path23"
       inkscape:connector-curvature="0"
       style="fill:#901909" />
    <path
       d="m 59.9072,72.1104 h -28.071 c -0.305,0 -0.554,0.249 -0.554,0.554 0,0.305 0.249,0.554 0.554,0.554 h 28.071 c 0.305,0 0.554,-0.249 0.554,-0.554 0,-0.305 -0.249,-0.554 -0.554,-0.554 M 50.5683,61.4682 c -0.74,0 -1.345,0.605 -1.345,1.345 v 3.782 c 0,0.739 0.605,1.345 1.345,1.345 0.74,0 1.345,-0.606 1.345,-1.345 v -3.782 c 0,-0.74 -0.605,-1.345 -1.345,-1.345"
       id="path25"
       inkscape:connector-curvature="0"
       style="fill:#850f01" />
    <path
       d="m 42.7452,56.2809 h -1.29 c -0.299,0 -0.544,0.245 -0.544,0.544 v 3.732 c 0,0.299 0.245,0.544 0.544,0.544 h 1.29 c 0.299,0 0.544,-0.245 0.544,-0.544 v -3.732 c 0,-0.299 -0.245,-0.544 -0.544,-0.544 M 42.7678,26.279 h -1.29 c -0.299,0 -0.544,0.245 -0.544,0.544 v 3.732 c 0,0.299 0.245,0.544 0.544,0.544 h 1.29 c 0.299,0 0.544,-0.245 0.544,-0.544 v -3.732 c 0,-0.299 -0.245,-0.544 -0.544,-0.544"
       id="path27"
       inkscape:connector-curvature="0"
       style="fill:#a6724f" />
    <path
       d="m 44.2751,230.3786 c -4.589,-0.777 -5.652,-1.859 -5.429,-5.36 0.133,-2.083 1.662,-3.579 3.774,-3.692 3.174,-0.168 4.63,0.991 5.169,4.233 1.658,-1.491 2.676,-3.393 4.006,-5.037 0.479,-0.593 0.512,-1.176 -0.316,-1.713 -2.143,-1.392 -4.23,-2.874 -6.316,-4.353 -1.056,-0.748 -1.791,-0.652 -2.546,0.491 -1.216,1.841 -2.615,3.56 -3.875,5.374 -0.903,1.301 -2.169,1.117 -3.392,0.895 -7.763,-1.406 -15.321,-3.505 -22.619,-6.554 -2.964,-1.238 -4.172,-3.922 -5.627,-6.361 -0.722,-1.211 0.497,-2.203 1.427,-2.934 2.008,-1.578 4.079,-3.076 6.11,-4.626 0.32,-0.244 0.799,-0.588 0.796,-0.881 -0.005,-0.525 -0.617,-0.598 -1.059,-0.741 -0.328,-0.106 -0.645,-0.243 -0.971,-0.355 -4.3,-1.479 -6.521,-0.67 -9.563,2.792 -2.353,2.677 -3.106,5.678 -3.177,9.104 -0.061,2.964 -0.66,5.921 -0.667,8.883 -0.006,2.718 1.221,5.242 2.374,7.637 0.487,1.01 2.232,0.909 3.429,1.11 0.484,0.082 1.137,-0.488 0.849,-1.332 -0.223,-0.652 -0.309,-1.357 -0.572,-1.989 -1.611,-3.868 -0.645,-3.922 1.959,-6.513 1.881,-1.872 3.803,-1.787 6.223,-1.128 4.814,1.311 9.587,2.572 13.88,5.268 1.332,0.838 2.169,1.664 1.906,3.293 -0.044,0.272 0.038,0.566 -0.013,0.835 -0.431,2.294 0.61,3.438 2.703,4.382 4.751,2.142 4.809,2.669 0.973,5.989 -2.61,2.258 -3.683,5.029 -3.676,8.381 0.019,10.611 0.056,21.223 -0.038,31.833 -0.017,1.898 0.566,2.418 2.37,2.299 2.224,-0.146 4.467,-0.078 6.699,-0.017 1.071,0.029 1.512,-0.107 1.501,-1.424 -0.081,-10.052 -0.391,-20.122 0.113,-30.149 0.216,-4.301 0.49,-8.625 0.736,-12.941 0.107,-1.876 1.989,-2.913 2.859,-4.699"
       id="path29"
       inkscape:connector-curvature="0"
       style="fill:#0d418d" />
    <path
       d="m 61.8483,244.7911 c 5.582,0 11.164,-0.04 16.745,0.029 1.362,0.017 1.886,-0.373 1.757,-1.756 -0.104,-1.106 -0.021,-2.231 -0.021,-3.347 10e-4,-5.825 -0.068,-5.735 -4.775,-9.276 -2.645,-1.99 -4.834,-4.611 -7.561,-6.455 -3.289,-2.225 -6.741,-3.184 -11.144,-2.279 -4.966,1.022 -6.138,5.071 -8.751,8.003 -1.453,1.631 -2.591,3.543 -3.879,5.322 -0.499,0.689 -0.799,1.413 -0.78,2.298 0.043,1.952 0.093,3.911 -0.014,5.859 -0.073,1.332 0.43,1.64 1.677,1.627 5.582,-0.058 11.164,-0.025 16.746,-0.025"
       id="path31"
       inkscape:connector-curvature="0"
       style="fill:#1a5bc0" />
    <path
       d="m 73.2057,300.6794 c 0,5.516 -0.038,11.032 0.019,16.547 0.022,2.222 -0.756,4.163 -1.743,6.059 -0.365,0.699 -0.958,1.121 -1.825,1.201 -1.715,0.158 -1.988,1.239 -1.938,2.806 0.121,3.836 0.079,7.68 0.016,11.519 -0.019,1.171 0.32,1.576 1.526,1.551 3.419,-0.071 6.842,-0.073 10.262,0.001 1.236,0.027 1.847,-0.258 1.654,-1.607 -0.229,-1.606 0.748,-1.818 2.052,-1.802 0.687,0.009 1.772,0.476 2.011,-0.453 0.242,-0.937 0.64,-2.34 -0.282,-2.955 -3.252,-2.173 -2.515,-5.404 -2.524,-8.456 -0.004,-1.463 -0.025,-2.74 -1.278,-3.949 -1.376,-1.327 -2.859,-0.903 -4.3,-0.87 -1.506,0.034 -2.272,-0.305 -1.98,-1.941 0.048,-0.271 0.044,-0.563 0,-0.836 -0.335,-2.076 0.331,-3.149 2.619,-2.727 1.452,0.268 2.055,-0.178 2.04,-1.859 -0.088,-9.773 -0.082,-19.549 -0.004,-29.323 0.012,-1.596 -0.448,-1.979 -1.99,-1.954 -4.334,0.069 -4.335,-0.003 -4.335,4.386 v 14.662"
       id="path33"
       inkscape:connector-curvature="0"
       style="fill:#1761cf" />
    <path
       d="m 61.9187,250.2983 c -5.499,-0.019 -10.999,-0.013 -16.498,-0.078 -1.151,-0.013 -1.578,0.312 -1.571,1.522 0.046,7.519 0.046,15.039 0,22.558 -0.007,1.21 0.42,1.535 1.571,1.521 5.499,-0.064 10.999,-0.058 16.498,-0.078 0.901,-0.662 0.952,-1.648 0.961,-2.625 0.064,-6.732 0.064,-13.463 0,-20.194 -0.009,-0.977 -0.06,-1.964 -0.961,-2.626"
       id="path35"
       inkscape:connector-curvature="0"
       style="fill:#417099" />
    <path
       d="m 53.0902,302.002 c 0,-4.254 -0.03,-8.509 0.02,-12.763 0.013,-1.061 -0.392,-1.775 -1.05,-2.577 -3.069,-3.736 -6.713,-5.727 -11.769,-5.065 -3.017,0.395 -6.128,0.064 -9.196,0.083 -0.586,0.003 -1.4,-0.214 -1.491,0.695 -0.084,0.835 0.686,0.839 1.261,1.008 2.778,0.815 5.534,1.709 8.329,2.457 5.275,1.412 8.683,4.794 8.506,10.611 -0.233,7.665 -0.061,15.342 -0.049,23.014 10e-4,0.534 -0.26,1.264 0.227,1.559 0.595,0.362 1.205,-0.214 1.695,-0.536 2.341,-1.541 3.633,-3.616 3.546,-6.561 -0.117,-3.972 -0.029,-7.95 -0.029,-11.925"
       id="path37"
       inkscape:connector-curvature="0"
       style="fill:#0d418d" />
    <path
       d="m 31.3008,309.5192 c -10e-4,3.486 0.052,6.974 -0.026,10.458 -0.032,1.398 0.325,1.998 1.849,1.952 3.274,-0.1 6.554,-0.062 9.83,-0.015 1.162,0.017 1.787,-0.209 1.777,-1.586 -0.052,-7.182 -0.051,-14.364 0,-21.546 0.009,-1.338 -0.538,-1.644 -1.741,-1.624 -3.346,0.054 -6.694,0.065 -10.04,-0.004 -1.291,-0.027 -1.692,0.441 -1.67,1.697 0.062,3.555 0.022,7.112 0.021,10.668"
       id="path39"
       inkscape:connector-curvature="0"
       style="fill:#0d418d" />
    <path
       d="m 19.9927,201.656 c -0.664,-0.044 -1.194,0.222 -1.719,0.621 -1.662,1.263 -3.361,2.477 -5.037,3.722 -2.487,1.847 -2.342,4.308 0.616,5.449 5.182,2 10.266,4.358 15.823,5.251 0.479,0.077 0.955,0.187 1.428,0.301 5.081,1.224 5.045,1.199 8.132,-2.97 0.933,-1.261 0.723,-2.099 -0.447,-2.959 -1.928,-1.415 -4.171,-2.223 -6.259,-3.328 -3.449,-1.823 -6.907,-3.629 -10.364,-5.436 -0.68,-0.355 -1.365,-0.714 -2.173,-0.651"
       id="path41"
       inkscape:connector-curvature="0"
       style="fill:#471308" />
    <path
       d="m 68.9856,275.7415 c 2.925,0.02 5.85,0.011 8.774,0.075 0.981,0.022 1.333,-0.292 1.329,-1.302 -0.032,-7.662 -0.032,-15.325 0,-22.988 0.004,-1.009 -0.348,-1.323 -1.329,-1.301 -2.924,0.064 -5.849,0.055 -8.774,0.075 -0.9,0.663 -0.95,1.649 -0.959,2.626 -0.064,6.73 -0.064,13.459 0,20.189 0.009,0.977 0.059,1.963 0.959,2.626"
       id="path43"
       inkscape:connector-curvature="0"
       style="fill:#578ea5" />
    <path
       d="m 68.9856,275.7415 v -25.441 c -2.356,-0.001 -4.711,-0.002 -7.067,-0.002 v 25.445 c 2.356,-10e-4 4.711,-10e-4 7.067,-0.002"
       id="path45"
       inkscape:connector-curvature="0"
       style="fill:#abe2f7" />
    <path
       d="m 50.3933,326.0948 c -1.809,-0.001 -3.619,-0.016 -5.428,0.01 -0.519,0.007 -1.105,-0.139 -1.43,0.543 -0.846,1.783 0.214,5.942 1.852,7.024 2.013,1.329 4.038,2.641 6.071,3.94 1.726,1.104 3.647,0.545 5.49,0.566 0.777,0.009 0.737,-0.703 0.739,-1.251 0.011,-3.132 -0.023,-6.263 0.024,-9.394 0.016,-1.09 -0.405,-1.48 -1.473,-1.452 -1.947,0.051 -3.896,0.015 -5.845,0.014"
       id="path47"
       inkscape:connector-curvature="0"
       style="fill:#0d418d" />
    <path
       d="m 44.329,294.2381 c -0.964,-3.39 -3.595,-4.562 -6.307,-5.379 -4.345,-1.308 -8.799,-2.259 -13,-4.037 -0.981,-0.415 -1.734,-0.485 -1.699,0.995 0.056,2.435 0.034,4.872 0.005,7.308 -0.009,0.766 0.201,1.129 1.048,1.126 6.591,-0.023 13.181,-0.013 19.953,-0.013"
       id="path49"
       inkscape:connector-curvature="0"
       style="fill:#a19c96" />
    <path
       d="m 82.8357,231.8827 c -0.034,-5.096 0.761,-9.564 3.371,-13.558 0.862,-1.318 -0.047,-2.674 -0.116,-3.981 -0.069,-1.31 -0.25,-2.684 -0.447,-4.592 -1.245,2.205 -2.315,3.914 -3.193,5.716 -0.767,1.573 -1.757,2.547 -3.625,2.538 -0.868,-0.004 -1.772,0.248 -2.601,0.547 -2.473,0.893 -3.195,4.116 -1.316,5.919 2.496,2.395 5.051,4.728 7.927,7.411"
       id="path51"
       inkscape:connector-curvature="0"
       style="fill:#1761cf" />
    <path
       d="m 11.9942,220.1872 c -1.788,0.018 -3.32,2.142 -2.782,3.857 0.985,3.144 0.985,3.138 4.32,3.148 3.958,0.012 7.93,-0.226 11.831,0.772 0.518,0.133 1.332,0.47 1.633,-0.366 0.241,-0.673 0.106,-1.35 -0.486,-1.899 -1.896,-1.757 -11.807,-5.54 -14.516,-5.512"
       id="path53"
       inkscape:connector-curvature="0"
       style="fill:#471308" />
    <path
       d="m 21.4635,301.0821 c 0.606,-0.197 1.197,-0.372 1.776,-0.58 3.03,-1.087 3.03,-1.09 3.031,2.24 0,4.883 0.01,9.766 -0.006,14.648 -0.007,2.199 -0.319,2.39 -2.266,1.493 -0.378,-0.174 -0.729,-0.421 -1.12,-0.553 -0.474,-0.16 -1.025,-0.836 -1.439,-0.248 -0.396,0.563 -0.415,1.488 0.284,1.87 1.681,0.917 3.257,2.158 5.381,1.958 0.862,-0.081 1.257,-0.372 1.256,-1.256 -0.011,-7.394 -0.004,-14.788 -0.009,-22.181 0,-0.414 0.031,-1.026 -0.389,-1.108 -1.504,-0.294 -3.097,-0.55 -4.445,0.392 -1.092,0.764 -2.877,1.235 -2.054,3.325"
       id="path55"
       inkscape:connector-curvature="0"
       style="fill:#8a1001" />
    <path
       d="m 60.6342,332.8034 c 0,1.955 0.06,3.912 -0.022,5.863 -0.051,1.219 0.246,1.707 1.602,1.709 3.448,0.003 3.448,0.079 3.448,-3.4 0,-3.351 -0.044,-6.702 0.023,-10.051 0.024,-1.218 -0.244,-1.878 -1.604,-1.683 -0.479,0.069 -0.984,0.069 -1.463,0 -1.503,-0.214 -2.151,0.262 -2.019,1.911 0.15,1.872 0.035,3.766 0.035,5.651"
       id="path57"
       inkscape:connector-curvature="0"
       style="fill:#1a5bc0" />
    <path
       d="m 82.4811,244.8222 v 32.776 c 1.127,0.062 1.223,-0.603 1.211,-1.45 -0.031,-2.298 0.08,-4.601 -0.039,-6.893 -0.089,-1.71 0.452,-2.512 2.232,-2.262 0.41,0.058 0.837,0.035 1.252,-10e-4 0.376,-0.033 0.932,0.191 1.029,-0.367 0.043,-0.248 -0.237,-0.729 -0.48,-0.823 -2.189,-0.852 -2.382,-3.191 -3.577,-4.772 -0.738,-0.978 -0.85,-2.41 -0.082,-3.311 1.509,-1.772 0.656,-3.52 0.321,-5.272 -0.484,-2.534 -1.101,-5.043 -1.661,-7.563 -0.069,-0.02 -0.137,-0.041 -0.206,-0.062"
       id="path59"
       inkscape:connector-curvature="0"
       style="fill:#1761cf" />
    <path
       d="m 21.2448,309.5616 c 0,1.673 -0.018,3.347 0.011,5.02 0.009,0.519 -0.193,1.154 0.494,1.46 0.997,0.444 1.967,1.561 2.975,1.156 0.702,-0.281 0.266,-1.64 0.274,-2.512 0.034,-3.556 0.071,-7.113 -0.032,-10.666 -0.021,-0.734 0.83,-2.279 -0.748,-2.159 -1.279,0.098 -3.024,0.387 -2.981,2.472 0.036,1.742 0.007,3.486 0.007,5.229"
       id="path61"
       inkscape:connector-curvature="0"
       style="fill:#0d418d" />
    <path
       d="m 82.4255,306.5913 c 1.325,-0.426 1.261,-1.277 1.26,-2.121 -0.006,-7.316 0.009,-14.632 -0.027,-21.949 -0.003,-0.568 0.482,-1.623 -0.66,-1.599 -0.938,0.021 -0.552,0.972 -0.554,1.504 -0.028,8.01 -0.019,16.019 -0.019,24.165"
       id="path63"
       inkscape:connector-curvature="0"
       style="fill:#1761cf" />
    <path
       d="m 61.9186,277.1184 h -17.621 c 0.784,1.287 1.778,1.676 3.169,1.648 4.816,-0.099 9.635,-0.07 14.452,-0.089 0.457,-0.52 0.457,-1.039 0,-1.559"
       id="path65"
       inkscape:connector-curvature="0"
       style="fill:#417099" />
    <path
       d="m 87.5111,257.3143 c -1.548,0.128 -2.208,0.764 -2.144,2.034 0.072,1.424 1.137,2.245 2.206,1.703 2.468,-1.252 5,-0.518 7.488,-0.751 0.85,-0.079 2.04,0.248 1.962,-1.147 -0.068,-1.198 -1.163,-0.882 -1.951,-0.955 -2.625,-0.245 -5.384,0.768 -7.561,-0.884"
       id="path67"
       inkscape:connector-curvature="0"
       style="fill:#1761cf" />
    <path
       d="m 61.9186,247.7839 c -5.563,-0.019 -11.126,-0.045 -16.69,-0.043 -0.487,0 -1.277,-0.248 -1.277,0.613 10e-4,0.861 0.79,0.613 1.277,0.613 5.564,0.002 11.127,-0.024 16.69,-0.043 0.312,-0.38 0.312,-0.76 0,-1.14"
       id="path69"
       inkscape:connector-curvature="0"
       style="fill:#417099" />
    <path
       d="m 68.9856,278.675 c 2.921,0.02 5.842,0.049 8.763,0.051 0.577,10e-4 1.314,0.201 1.314,-0.828 0,-1.029 -0.737,-0.829 -1.314,-0.829 -2.921,0.002 -5.842,0.032 -8.763,0.052 -0.457,0.518 -0.457,1.036 0,1.554"
       id="path71"
       inkscape:connector-curvature="0"
       style="fill:#578ea5" />
    <path
       d="m 72.1084,343.3099 c -0.901,0 -1.803,-0.019 -2.704,0.006 -0.629,0.018 -0.778,0.462 -0.779,1.002 0,0.538 0.144,0.995 0.775,1.003 1.802,0.024 3.606,0.021 5.409,0.016 0.746,-0.003 0.893,-0.485 0.88,-1.119 -0.013,-0.596 -0.287,-0.907 -0.876,-0.915 -0.902,-0.011 -1.803,-0.003 -2.705,-0.003 v 0.01"
       id="path73"
       inkscape:connector-curvature="0"
       style="fill:#334877" />
    <path
       d="m 68.9856,248.9213 c 2.922,0.02 5.843,0.054 8.764,0.045 0.482,-10e-4 1.267,0.274 1.267,-0.613 -10e-4,-0.886 -0.785,-0.611 -1.267,-0.613 -2.921,-0.008 -5.843,0.026 -8.764,0.046 -0.31,0.378 -0.31,0.757 0,1.135"
       id="path75"
       inkscape:connector-curvature="0"
       style="fill:#578ea5" />
    <path
       d="m 68.9856,278.675 v -1.554 c -2.356,-10e-4 -4.711,-0.002 -7.067,-0.003 v 1.559 c 2.356,-0.001 4.711,-0.001 7.067,-0.002 m 0,-29.7537 v -1.135 c -2.356,-0.001 -4.711,-0.002 -7.067,-0.002 v 1.139 c 2.356,-0.001 4.711,-0.001 7.067,-0.002"
       id="path77"
       inkscape:connector-curvature="0"
       style="fill:#abe2f7" />
    <path
       d="m 75.1306,21.0072 c -0.671,-0.664 -1.521,-0.372 -2.287,-0.374 -8.996,-0.023 -17.992,-0.036 -26.987,0.019 -0.882,0.005 -2.327,-0.694 -2.519,0.946 -0.132,1.132 -0.672,2.668 1.419,2.9 0.742,0.082 0.833,0.871 0.831,1.546 -0.004,1.767 -0.001,3.534 -0.004,5.301 0,0.577 -0.042,1.344 -0.637,1.427 -2.198,0.309 -1.67,1.925 -1.675,3.263 -0.019,5.462 10e-4,10.924 -0.014,16.386 -0.003,1.073 -0.103,2.086 1.408,2.27 0.739,0.091 0.92,0.803 0.918,1.498 -0.003,1.686 -10e-4,3.373 -0.004,5.06 -10e-4,0.594 -0.133,1.283 -0.744,1.367 -2.111,0.294 -1.455,1.87 -1.577,3.116 -0.14,1.434 0.194,2.2 1.919,2.173 1.618,-0.025 1.873,-0.765 1.81,-2.078 -0.055,-1.122 -0.092,-2.258 0.025,-3.371 0.215,-2.038 1.406,-3.182 3.472,-3.285 1.994,-0.1 3.548,1.245 3.792,3.233 0.058,0.475 0.02,0.963 0.022,1.444 0.021,4.005 0.02,4.005 4.14,4.005 4.98,0 9.96,-0.018 14.94,0.012 1.16,0.007 2.013,-0.058 2.008,-1.602 -0.053,-14.938 -0.062,-29.876 -0.091,-44.815 -10e-4,-0.149 -0.109,-0.297 -0.167,-0.446 -0.538,0.809 -0.256,1.716 -0.258,2.571 -0.021,12.831 -0.015,25.662 -0.015,38.493 0,-12.83 -0.006,-25.66 0.016,-38.49 0.001,-0.854 -0.284,-1.761 0.259,-2.569"
       id="path79"
       inkscape:connector-curvature="0"
       style="fill:#c01d08" />
    <path
       d="m 12.3669,182.6153 c 4.736,-1.243 8.149,-4.563 11.85,-7.463 7.952,-6.231 15.198,-13.239 22.5,-20.189 0.345,-0.329 0.74,-0.61 1.125,-0.895 3.203,-2.368 3.16,-4.295 -0.35,-6.393 -3.547,-2.119 -7.433,-3.267 -11.587,-3.518 -0.963,-0.059 -1.109,0.591 -1.269,1.12 -1.248,4.116 -4.176,6.278 -8.22,7.094 -1.484,0.299 -2.595,1.103 -3.666,2.068 -4.824,4.343 -11.094,4.916 -16.982,6.463 -2.131,0.561 -3.589,1.664 -3.963,3.93 0.287,4.503 0.421,9.006 -0.069,13.505 1.425,3.797 4.856,5.682 8.262,4.539 0.712,-0.791 1.548,-0.456 2.369,-0.261"
       id="path81"
       inkscape:connector-curvature="0"
       style="fill:#1a5bc0" />
    <path
       d="m 75.554,105.9255 c -0.643,0 -1.286,-0.011 -1.929,0.002 -1.363,0.027 -2.908,-0.327 -4.043,0.2 -1.463,0.68 -0.362,2.466 -0.722,3.712 -0.044,0.154 -0.03,0.359 -0.127,0.457 -3.135,3.147 -1.928,6.848 -1.169,10.374 1.638,7.614 3.216,15.282 5.974,22.566 1.913,5.05 6.414,8.015 10.873,10.743 2.137,1.307 4.522,1.975 7.016,2.335 2.066,0.298 2.065,-0.458 1.497,-2.104 -1.635,-4.741 -3.293,-9.485 -4.626,-14.316 -2.018,-7.317 -2.389,-14.936 -3.737,-22.381 -0.525,-2.902 -0.925,-5.827 -1.432,-8.734 -0.333,-1.913 -1.11,-3.261 -3.482,-2.891 -1.334,0.208 -2.727,0.037 -4.093,0.037"
       id="path83"
       inkscape:connector-curvature="0"
       style="fill:#c01d08" />
    <path
       d="m 28.2952,66.4216 c 0.662,-0.679 0.338,-1.529 0.339,-2.291 0.023,-13.584 0.011,-27.169 0.026,-40.753 0.001,-1.391 0.014,-2.725 -1.201,-3.73 -0.772,-0.64 -0.65,-1.593 -0.654,-2.473 -0.009,-2.17 -0.064,-4.342 0.009,-6.51 0.049,-1.476 -0.591,-2.011 -2,-1.984 -2.411,0.045 -4.823,0.038 -7.234,0.003 -1.323,-0.019 -1.833,0.53 -1.831,1.875 0.029,16.157 0.026,32.314 0.008,48.47 -0.002,1.115 0.448,1.774 1.437,2.243 3.554,1.683 7.085,3.415 10.625,5.128 0.46,-0.831 0.228,-1.734 0.229,-2.6 0.017,-13.102 0.008,-26.204 0.021,-39.306 0.001,-0.787 -0.165,-1.597 0.178,-2.474 0.031,-0.21 0.254,0.287 -0.023,0.124 -0.072,-0.043 -0.122,0.026 -0.123,0.207 -0.086,14.465 -0.032,28.931 -0.032,43.397 0,0.26 0.129,0.457 0.226,0.674"
       id="path85"
       inkscape:connector-curvature="0"
       style="fill:#8a1001" />
    <path
       d="m 32.5279,136.4063 c 0.905,2.872 3.131,3.548 5.845,3.892 7.384,0.936 13.618,3.71 17.074,10.964 4.447,9.337 9.074,18.588 13.657,27.86 0.367,0.744 0.565,1.594 1.537,2.027 2.887,1.288 4.422,0.433 4.26,-2.702 -0.169,-3.264 -0.606,-6.514 -0.882,-9.774 -0.079,-0.927 -0.762,-1.377 -1.305,-1.941 -2.203,-2.293 -3.434,-4.951 -3.363,-8.197 0.069,-3.133 -0.176,-6.284 0.062,-9.401 0.31,-4.061 -1.001,-7.694 -2.374,-11.356 -0.232,-2.019 -1.515,-2.201 -3.267,-2.186 -9.55,0.082 -19.102,0.032 -28.653,0.051 -0.914,0.002 -1.978,-0.334 -2.591,0.763"
       id="path87"
       inkscape:connector-curvature="0"
       style="fill:#c01d08" />
    <path
       d="m 30.8434,44.4522 c 0,6.993 0.053,13.987 -0.036,20.978 -0.024,1.895 0.582,2.608 2.485,2.452 1.677,-0.137 3.377,0.039 5.06,-0.055 0.916,-0.052 2.431,0.57 2.462,-1.048 0.025,-1.339 1.07,-3.135 -0.999,-3.98 -0.922,-0.377 -1.081,-1.099 -1.084,-1.942 -0.005,-1.447 -0.027,-2.894 0.014,-4.34 0.013,-0.465 0.073,-1.238 0.326,-1.339 2.841,-1.146 1.779,-3.593 1.826,-5.559 0.112,-4.659 0.041,-9.323 0.032,-13.985 -0.003,-1.168 0.274,-2.439 -1.441,-2.825 -0.705,-0.158 -0.743,-0.982 -0.749,-1.634 -0.013,-1.687 -0.01,-3.375 0.003,-5.063 0.006,-0.761 0.167,-1.481 1.033,-1.698 1.664,-0.418 1.137,-1.731 1.073,-2.754 -0.084,-1.339 -1.237,-1.003 -2.05,-1.025 -1.767,-0.049 -3.543,0.075 -5.303,-0.042 -1.985,-0.132 -2.705,0.643 -2.683,2.639 0.08,7.073 0.031,14.147 0.031,21.22"
       id="path89"
       inkscape:connector-curvature="0"
       style="fill:#971a09" />
    <path
       d="m 24.9258,122.0829 c 0,-2.008 -0.087,-4.022 0.026,-6.024 0.098,-1.734 -0.439,-2.554 -2.295,-2.392 -1.355,0.118 -2.733,-0.051 -4.094,0.034 -1.814,0.113 -2.429,-0.723 -2.35,-2.445 0.084,-1.844 -0.05,-3.698 0.033,-5.542 0.067,-1.516 -0.434,-2.2 -2.049,-2.146 -2.648,0.089 -5.302,0.072 -7.952,0.005 -1.435,-0.036 -2.022,0.497 -2.002,1.959 0.054,4.016 0.029,8.034 0.012,12.05 -0.003,0.922 0.194,1.776 0.777,2.475 2.663,3.196 5.354,6.369 8.033,9.552 0.357,0.424 0.635,0.957 1.297,0.957 3.132,0.004 6.264,0.02 9.396,-0.006 1.159,-0.009 1.151,-0.913 1.156,-1.729 0.013,-2.249 0.004,-4.499 0.004,-6.748 h 0.008 m -9.1704,-20.9498 c 0.613,-0.942 0.842,-2.261 2.467,-2.11 0.894,0.083 1.233,-0.608 1.235,-1.433 0.007,-2.807 -0.006,-5.614 0.014,-8.421 0.008,-1.103 -0.49,-1.607 -1.594,-1.597 -0.922,0.008 -1.597,-0.416 -1.597,-1.404 0.002,-4.005 0.042,-8.01 0.101,-12.015 0.005,-0.286 0.279,-0.567 0.428,-0.85 0.066,-1.209 -0.862,-0.824 -1.453,-0.857 -2.103,-0.118 -4.217,0.161 -6.315,-0.167 -1.333,1.255 -2.66,2.517 -4.001,3.764 -0.567,0.527 -0.78,1.167 -0.778,1.927 0.011,7.346 0.006,14.693 0.033,22.039 0.001,0.362 0.255,0.723 0.392,1.085 3.69,-0.292 7.38,-0.381 11.068,0.039"
       id="path91"
       inkscape:connector-curvature="0"
       style="fill:#8a1001" />
    <path
       d="m 66.4108,73.1572 c 4.402,3.261 2.847,7.859 2.71,12.132 -0.021,0.625 -0.181,1.245 -0.277,1.866 -0.041,3.294 0.043,6.589 -0.041,9.88 -0.037,1.444 0.412,2.057 1.922,1.955 1.563,-0.106 3.138,-0.024 4.331,-0.024 -1.833,0.207 -4.073,-0.336 -6.269,0.252 3.485,0.653 7.002,0.161 10.502,0.278 1.639,0.056 1.304,-1.091 1.025,-1.986 -0.733,-2.348 -1.562,-4.667 -2.353,-6.998 -0.487,-5.2 -0.182,-10.414 -0.155,-15.618 0.01,-2.007 -0.543,-2.656 -2.539,-2.501 -2.235,0.173 -4.494,0.025 -6.742,0.047 -0.768,0.008 -1.654,-0.239 -2.114,0.717"
       id="path93"
       inkscape:connector-curvature="0"
       style="fill:#c01d08" />
    <path
       d="m 29.7455,130.9961 c 6.803,0.029 13.605,0.038 20.407,0.104 1.342,0.013 1.989,-0.506 1.791,-1.829 -0.26,-1.735 0.882,-3.772 -1.409,-5.101 -0.986,-0.571 -0.595,-6.802 0.315,-7.489 0.515,-0.389 1.231,-0.565 0.992,-1.38 -0.286,-0.976 -1.175,-0.576 -1.832,-0.655 -0.312,-0.038 -0.637,0.039 -0.955,0.063 -0.249,0.227 -0.49,0.459 -0.667,0.749 -1.28,2.507 -2.352,5.117 -3.707,7.587 -0.351,0.64 -0.529,1.652 -1.674,1.004 -0.272,-0.177 -0.549,-0.336 -0.864,-0.414 -1.234,0.044 -2.526,0.476 -3.6,-0.552 -1.058,-0.03 -1.499,0.782 -2.012,1.489 -0.454,0.626 -0.682,1.517 -1.725,1.421 -0.423,-0.021 -0.835,-0.091 -1.218,-0.275 -1.112,-0.718 -0.435,-1.551 -0.091,-2.284 0.873,-1.863 1.832,-3.683 2.841,-5.48 0.566,-1.008 1.371,-2.153 0.125,-3.294 -2.407,0.203 -4.875,-0.596 -7.23,0.446 0.609,3.148 0.105,6.328 0.277,9.488 0.117,2.133 -0.274,4.284 0.236,6.402"
       id="path95"
       inkscape:connector-curvature="0"
       style="fill:#971a09" />
    <path
       d="m 60.2682,131.0903 c 1.453,-0.19 3.737,0.782 4.797,-0.454 0.986,-1.15 -0.429,-3.153 -0.695,-4.796 -0.534,-3.298 -1.26,-6.565 -1.816,-9.86 -0.143,-0.848 -0.352,-1.348 -1.285,-1.34 -1.927,0.016 -3.855,-0.006 -5.782,0.012 -0.465,0.005 -1.012,-0.005 -1.095,0.656 -0.064,0.51 0.166,0.816 0.582,1.18 1.765,1.545 1.566,6.521 -0.024,8.302 -1.412,1.582 -0.689,3.671 -0.493,5.475 0.155,1.437 1.705,0.688 2.639,0.8 0.95,0.114 1.924,0.025 3.172,0.025"
       id="path97"
       inkscape:connector-curvature="0"
       style="fill:#aa1804" />
    <path
       d="m 49.169,163.1363 c 0,0.641 0.049,1.286 -0.008,1.922 -0.397,4.466 2.457,5.361 6.198,4.962 1.765,-0.188 3.206,-2.957 2.414,-4.723 -1.308,-2.919 -2.823,-5.745 -4.233,-8.619 -0.466,-0.95 -0.885,-0.894 -1.84,-0.405 -3.049,1.558 -2.586,4.252 -2.531,6.863"
       id="path99"
       inkscape:connector-curvature="0"
       style="fill:#891001" />
    <path
       d="m 23.2593,67.0289 c -2.046,-1.027 -4.087,-2.063 -6.142,-3.074 -0.648,-0.319 -1.209,-0.368 -1.401,0.583 -0.229,1.137 -1.177,1.858 -1.96,3.063 h 9.348 c 0.052,-0.19 0.103,-0.381 0.155,-0.572"
       id="path101"
       inkscape:connector-curvature="0"
       style="fill:#860f01" />
    <path
       d="m 28.2952,66.4216 v -44.108 c -0.159,-0.001 -0.318,-0.001 -0.476,-0.002 v 44.088 c 0.158,0.007 0.317,0.015 0.476,0.022"
       id="path103"
       inkscape:connector-curvature="0"
       style="fill:#8e1001" />
    <path
       d="m 32.5279,136.4063 c 0.978,-0.423 2.007,-0.532 3.06,-0.531 9.31,0.003 18.62,0.03 27.93,-0.029 1.631,-0.01 2.791,0.477 3.521,1.932 0.261,-1.732 -0.176,-2.558 -2.235,-2.537 -10.151,0.104 -20.305,0.028 -30.457,0.096 -0.603,0.004 -2.198,-0.906 -1.819,1.069"
       id="path105"
       inkscape:connector-curvature="0"
       style="fill:#c51e08" />
    <path
       d="m 68.7867,99.2177 h 9.859 l 0.016,-0.498 c -2.226,0 -4.455,-0.064 -6.678,0.019 -1.981,0.074 -2.66,-0.8 -2.711,-2.733 -0.077,-2.95 0.526,-5.943 -0.429,-8.85 -0.705,4.017 -0.577,8.039 -0.057,12.062"
       id="path107"
       inkscape:connector-curvature="0"
       style="fill:#c41e08" />
    <path
       d="m 9.0414,72.2788 c 1.625,0.661 3.331,0.319 5.001,0.389 0.969,0.041 1.93,0.047 2.767,0.636 h 11.945 c -1.614,-1.397 -14.682,-1.8 -19.713,-1.025"
       id="path109"
       inkscape:connector-curvature="0"
       style="fill:#8f1101" />
    <path
       d="m 66.4108,73.1572 c 3.137,-0.907 6.339,-0.436 9.512,-0.382 1.534,0.026 1.573,1.33 1.576,2.482 0.012,4.07 0.008,8.14 0.013,12.21 0.001,1.036 -0.055,2.082 0.449,3.045 0.032,-5.603 0.041,-11.206 0.113,-16.808 0.016,-1.242 -0.442,-1.709 -1.676,-1.69 -3.122,0.046 -6.245,-0.006 -9.368,0.026 -0.705,0.007 -2.138,-0.204 -0.619,1.117"
       id="path111"
       inkscape:connector-curvature="0"
       style="fill:#c51e08" />
    <path
       d="m 25.9489,141.1789 c 0.285,2.11 1.629,3.059 3.254,3.778 1.064,0.471 1.206,-0.391 1.413,-1.026 0.183,-0.558 0.345,-1.669 -0.378,-1.471 -1.729,0.473 -2.706,-1.006 -4.289,-1.281"
       id="path113"
       inkscape:connector-curvature="0"
       style="fill:#850f01" />
    <path
       d="m 29.7455,130.9961 c 0.001,-4.292 0.002,-8.584 0.001,-12.876 0,-1.033 0.042,-2.075 -0.514,-3.014 -0.038,4.82 -0.082,9.64 -0.104,14.46 -0.002,0.539 -0.061,1.159 0.617,1.43"
       id="path115"
       inkscape:connector-curvature="0"
       style="fill:#9c1b09" />
    <path
       d="m 1.7354,178.3372 c 0.881,-4.497 0.741,-9 0.069,-13.505 -0.406,4.5 -0.271,9.002 -0.069,13.505"
       id="path117"
       inkscape:connector-curvature="0"
       style="fill:#1b5ec7" />
    <path
       d="m 15.7554,101.1331 c -3.687,-0.78 -7.376,-0.727 -11.068,-0.039 3.688,0.293 7.378,0.225 11.068,0.039"
       id="path119"
       inkscape:connector-curvature="0"
       style="fill:#8f1101" />
    <path
       d="m 12.3669,182.6153 c -0.85,-0.46 -1.647,-0.437 -2.369,0.261 0.794,-0.048 1.618,0.18 2.369,-0.261"
       id="path121"
       inkscape:connector-curvature="0"
       style="fill:#1b5ec8" />
    <path
       d="m 75.1306,21.0072 c -0.455,0.799 -0.513,1.676 -0.513,2.567 0.002,13.896 0.001,27.791 0.007,41.687 0,0.305 0.064,0.611 0.504,0.907 v -45.166 l 0.002,0.005"
       id="path123"
       inkscape:connector-curvature="0"
       style="fill:#c61e08" />
    <path
       d="m 12.1316,173.021 c -0.369,-1.109 -0.238,-2.244 -0.183,-3.376 m 26.9559,-12.548 c 0.573,-0.962 0.57,-1.926 0.012,-2.892 -0.387,0.962 -0.37,1.926 -0.012,2.892"
       id="path125"
       inkscape:connector-curvature="0"
       style="fill:#1b5ec7" />
    <path
       d="m 31.2817,22.7924 v 43.324 c 0.079,0.001 0.158,0.001 0.236,0.002 v -43.332 c -0.078,0.002 -0.157,0.004 -0.236,0.006"
       id="path127"
       inkscape:connector-curvature="0"
       style="fill:#9b1b09" />
    <path
       d="m 61.098,102.0962 c -4.584,-0.948 -9.214,-0.268 -13.822,-0.389"
       id="path129"
       inkscape:connector-curvature="0"
       style="fill:#8e8691" />
    <path
       d="m 53.0146,0 h -4.893 c -1.629,0 -2.963,1.333 -2.963,2.963 0,1.63 1.334,2.963 2.963,2.963 h 4.893 c 1.63,0 2.963,-1.333 2.963,-2.963 0,-1.63 -1.333,-2.963 -2.963,-2.963"
       id="path131"
       inkscape:connector-curvature="0"
       style="fill:#aa1907" />
    <path
       d="m 74.2271,8.6792 h -43.099 c -1,0 -1.818,0.818 -1.818,1.818 v 6.067 c 0,1 0.818,1.818 1.818,1.818 h 43.099 c 1,0 1.818,-0.818 1.818,-1.818 v -6.067 c 0,-1 -0.818,-1.818 -1.818,-1.818"
       id="path133"
       inkscape:connector-curvature="0"
       style="fill:#aa1804" />
    <path
       d="m 83.8244,15.5463 h -3.847 c -0.241,0 -0.438,0.197 -0.438,0.439 v 1.958 c 0,0.242 0.197,0.439 0.438,0.439 h 3.847 c 0.241,0 0.439,-0.197 0.439,-0.439 v -1.958 c 0,-0.242 -0.198,-0.439 -0.439,-0.439 m 2.0308,49.456 h -5.788 c -0.29,0 -0.528,0.238 -0.528,0.528 v 1.78 c 0,0.29 0.238,0.528 0.528,0.528 h 5.788 c 0.29,0 0.528,-0.238 0.528,-0.528 v -1.78 c 0,-0.29 -0.238,-0.528 -0.528,-0.528"
       id="path135"
       inkscape:connector-curvature="0"
       style="fill:#bd1d08" />
    <path
       d="m 64.0634,76.2223 v 29.05 c 0,0.305 0.249,0.555 0.554,0.555 0.305,0 0.554,-0.25 0.554,-0.555 v -29.05 c 0,-0.305 -0.249,-0.554 -0.554,-0.554 -0.305,0 -0.554,0.249 -0.554,0.554"
       id="path137"
       inkscape:connector-curvature="0"
       style="fill:#901909" />
    <path
       d="m 46.584,75.668 h -7.098 v 9.492 h 7.098 z m 0,25.625 h -7.098 v 9.927 h 7.098 z"
       id="path139"
       inkscape:connector-curvature="0"
       style="fill:#e7e7b2" />
    <path
       d="m 48.8737,114.6402 h -18.776 c -0.551,0 -1.001,0.45 -1.001,1 v 14.356 c 0,0.55 0.45,1 1.001,1 h 18.776 c 0.55,0 1,-0.45 1,-1 v -14.356 c 0,-0.55 -0.45,-1 -1,-1"
       id="path141"
       inkscape:connector-curvature="0"
       style="fill:#971a09" />
    <path
       d="m 34.864,115.8492 c -0.363,-0.153 -0.786,0.018 -0.939,0.382 l -3.224,7.636 c -0.153,0.363 0.019,0.785 0.382,0.939 0.363,0.153 0.786,-0.019 0.939,-0.382 l 3.224,-7.636 c 0.153,-0.363 -0.019,-0.786 -0.382,-0.939 m 2.3282,0 c -0.363,-0.153 -0.786,0.018 -0.939,0.382 l -4.268,10.109 c -0.153,0.363 0.019,0.786 0.382,0.939 0.363,0.153 0.786,-0.018 0.939,-0.382 l 4.268,-10.109 c 0.153,-0.363 -0.019,-0.786 -0.382,-0.939 m 2.402,0 c -0.363,-0.153 -0.786,0.018 -0.939,0.382 l -4.583,10.856 c -0.153,0.363 0.018,0.786 0.382,0.939 0.363,0.153 0.786,-0.018 0.939,-0.382 l 4.583,-10.856 c 0.153,-0.363 -0.019,-0.786 -0.382,-0.939"
       id="path143"
       inkscape:connector-curvature="0" />
    <path
       d="m 17.3731,169.6932 c 0,-1.782 -1.445,-3.227 -3.227,-3.227 -1.782,0 -3.227,1.445 -3.227,3.227 0,1.782 1.445,3.227 3.227,3.227 1.782,0 3.227,-1.445 3.227,-3.227"
       id="path145"
       inkscape:connector-curvature="0"
       style="fill:#0f1522" />
    <path
       d="m 16.3861,169.6448 c 0,-1.237 -1.003,-2.24 -2.24,-2.24 -1.237,0 -2.24,1.003 -2.24,2.24 0,1.237 1.003,2.24 2.24,2.24 1.237,0 2.24,-1.003 2.24,-2.24"
       id="path147"
       inkscape:connector-curvature="0"
       style="fill:#ab7551" />
    <path
       d="m 38.0065,155.92 c 0,-1.782 -1.445,-3.227 -3.227,-3.227 -1.782,0 -3.227,1.445 -3.227,3.227 0,1.782 1.445,3.227 3.227,3.227 1.782,0 3.227,-1.445 3.227,-3.227"
       id="path149"
       inkscape:connector-curvature="0"
       style="fill:#0f1522" />
    <path
       d="m 37.0195,155.8716 c 0,-1.237 -1.003,-2.24 -2.24,-2.24 -1.237,0 -2.24,1.003 -2.24,2.24 0,1.237 1.003,2.24 2.24,2.24 1.237,0 2.24,-1.003 2.24,-2.24"
       id="path151"
       inkscape:connector-curvature="0"
       style="fill:#ab7551" />
    <path
       d="m 63.8798,315.1113 c -0.239,0.173 -0.294,0.51 -0.121,0.749 l 2.506,3.476 c 0.172,0.24 0.509,0.294 0.748,0.122 0.24,-0.173 0.294,-0.51 0.122,-0.749 l -2.506,-3.477 c -0.173,-0.239 -0.51,-0.294 -0.749,-0.121"
       id="path153"
       inkscape:connector-curvature="0" />
    <path
       d="m 58.2907,288.7749 c -0.317,0 -0.577,0.26 -0.577,0.577 v 12.464 c 0,0.317 0.26,0.577 0.577,0.577 0.317,0 0.577,-0.26 0.577,-0.577 v -12.464 c 0,-0.317 -0.26,-0.577 -0.577,-0.577"
       id="path155"
       inkscape:connector-curvature="0"
       style="fill:#2f4678" />
    <path
       d="m 35.3109,243.6152 c -1.908,0 -3.469,1.561 -3.469,3.469 v 7.324 c 0,1.908 1.561,3.469 3.469,3.469 1.908,0 3.469,-1.561 3.469,-3.469 v -7.324 c 0,-1.908 -1.561,-3.469 -3.469,-3.469"
       id="path157"
       inkscape:connector-curvature="0" />
    <path
       d="m 36.9169,251.9024 c -0.459,0 -0.835,0.376 -0.835,0.835 v 1.863 c 0,0.459 0.376,0.835 0.835,0.835 0.459,0 0.835,-0.376 0.835,-0.835 v -1.863 c 0,-0.459 -0.376,-0.835 -0.835,-0.835"
       id="path159"
       inkscape:connector-curvature="0"
       style="fill:#0d418d" />
    <path
       d="m 41.1876,316.3729 c 0,-1.759 -1.426,-3.186 -3.186,-3.186 -1.759,0 -3.186,1.427 -3.186,3.186 0,1.759 1.427,3.186 3.186,3.186 1.76,0 3.186,-1.427 3.186,-3.186"
       id="path161"
       inkscape:connector-curvature="0"
       style="fill:#060a11" />
    <path
       d="m 40.2278,316.8722 c 0.439,-0.699 0.02,-1.754 -0.936,-2.355 -0.957,-0.601 -2.089,-0.521 -2.528,0.178"
       id="path163"
       inkscape:connector-curvature="0"
       style="fill:#2c4e7e" />
    <path
       d="m 41.1876,303.4171 c 0,-1.759 -1.426,-3.186 -3.186,-3.186 -1.759,0 -3.186,1.427 -3.186,3.186 0,1.759 1.427,3.186 3.186,3.186 1.76,0 3.186,-1.427 3.186,-3.186"
       id="path165"
       inkscape:connector-curvature="0"
       style="fill:#060a11" />
    <path
       d="m 36.336,301.2438 c -0.239,0.173 -0.294,0.509 -0.121,0.749 l 2.506,3.476 c 0.172,0.24 0.509,0.294 0.748,0.122 0.24,-0.173 0.294,-0.51 0.122,-0.749 l -2.506,-3.477 c -0.173,-0.239 -0.51,-0.294 -0.749,-0.121"
       id="path167"
       inkscape:connector-curvature="0"
       style="fill:#2c4e7e" />
  </g>
</svg>
