<?xml version="1.0" encoding="UTF-8" standalone="no"?>
<svg
   xmlns:dc="http://purl.org/dc/elements/1.1/"
   xmlns:cc="http://creativecommons.org/ns#"
   xmlns:rdf="http://www.w3.org/1999/02/22-rdf-syntax-ns#"
   xmlns:svg="http://www.w3.org/2000/svg"
   xmlns="http://www.w3.org/2000/svg"
   xmlns:sodipodi="http://sodipodi.sourceforge.net/DTD/sodipodi-0.dtd"
   xmlns:inkscape="http://www.inkscape.org/namespaces/inkscape"
   width="174.22296"
   height="200"
   version="1.1"
   id="svg291"
   sodipodi:docname="game.svg"
   inkscape:version="0.92.4 5da689c313, 2019-01-14">
  <metadata
     id="metadata295">
    <rdf:RDF>
      <cc:Work
         rdf:about="">
        <dc:format>image/svg+xml</dc:format>
        <dc:type
           rdf:resource="http://purl.org/dc/dcmitype/StillImage" />
      </cc:Work>
    </rdf:RDF>
  </metadata>
  <sodipodi:namedview
     pagecolor="#ffffff"
     bordercolor="#666666"
     borderopacity="1"
     objecttolerance="10"
     gridtolerance="10"
     guidetolerance="10"
     inkscape:pageopacity="0"
     inkscape:pageshadow="2"
     inkscape:window-width="640"
     inkscape:window-height="480"
     id="namedview293"
     showgrid="false"
     inkscape:zoom="1.18"
     inkscape:cx="87.111481"
     inkscape:cy="100"
     inkscape:window-x="0"
     inkscape:window-y="0"
     inkscape:window-maximized="0"
     inkscape:current-layer="svg291">
    <inkscape:grid
       type="xygrid"
       id="grid1102"
       originx="0"
       originy="0" />
  </sodipodi:namedview>
  <defs
     id="defs5">
    <clipPath
       id="a">
      <path
         d="M 0,221.996 H 193.384 V 0 H 0 Z"
         id="path2"
         inkscape:connector-curvature="0" />
    </clipPath>
  </defs>
  <g
     clip-path="url(#a)"
     transform="matrix(0.90091713,0,0,-0.90091713,0,200)"
     id="g289">
    <path
       d="m 128.3044,51.6407 c -5.086,-7.596 -7.96,-8.408 -15.524,-4.389 -0.188,0.071 -0.377,0.142 -0.567,0.21 -2.517,3.809 -4.115,8.103 -6.339,12.065 -0.619,1.151 -1.293,2.282 -1.559,3.588 0.191,3.197 -2.106,5.283 -3.725,7.507 -1.704,2.339 -2.641,-0.404 -3.451,-1.294 -12.051,-13.25 -21.65,-28.048 -27.981,-44.875 -0.198,-0.528 -0.494,-1.018 -0.744,-1.526 -6.222,-3.316 -12.382,-4.691 -18.631,0.089 -1.037,0.792 -2.824,0.331 -4.013,1.289 -1.117,2.076 0.846,3.073 1.568,4.507 3.526,3.268 5.02,7.669 6.638,11.993 0.357,0.955 0.439,1.906 -0.099,2.918 -2.763,5.195 -2.741,5.207 1.342,9.397 1.97,1.263 4.058,2.383 5.384,4.425 1.479,2.458 -1.041,2.449 -2.076,3.185 -3.105,2.209 -6.978,3.653 -7.576,8.173 -3.19,6.618 -2.776,13.033 1.404,19.046 1.417,2.038 0.795,2.94 -1.08,3.862 -1.016,0.5 -1.909,1.248 -2.857,1.884 2.065,6.009 11.573,12.885 18.415,13.15 6.509,0.252 12.946,-0.879 19.426,-1.234 2.329,-1.44 4.928,-2.604 5.845,-5.539 -1.026,-2.372 -3.061,-1.557 -4.863,-1.565 -2.679,-0.013 -5.403,1.131 -8.022,-0.292 -0.725,-0.734 -1.045,-1.663 -1.23,-2.653 -0.332,-1.149 -0.664,-2.298 -1.053,-3.431 -0.857,-2.686 -2.927,-3.75 -5.853,-4.126 1.17,-0.761 2.544,-0.971 2.818,-2.341 -1.297,-3.813 -4.835,-4.232 -7.949,-4.752 -2.408,-0.402 -2.447,-1.266 -1.661,-3.015 -0.252,-1.735 -1.325,-3.034 -2.306,-4.384 -1.278,-1.286 -2.399,-2.638 -1.102,-4.52 1.299,-1.886 2.659,-4.657 5.181,-3.884 8.835,2.707 18.459,3.419 25.965,9.693 1.405,0.701 2.973,1.062 4.251,2.037 1.668,1.034 3.117,2.928 5.447,1.428 2.758,-2.805 5.803,-5.213 9.458,-6.773 1.168,-1.451 2.72,-1.997 4.544,-1.911 5.018,-3.234 9.906,-6.614 13.208,-11.777 -0.607,-2.016 0.064,-4.161 -0.633,-6.165"
       id="path7"
       inkscape:connector-curvature="0"
       style="fill:#b63523" />
    <path
       d="m 65.6617,207.0424 c 7.748,2.555 15.408,2.86 22.912,-0.887 -2.771,-1.901 -5.285,0.932 -7.651,0.476 3.233,-1.18 7.491,-0.228 10.322,-3.581 0.24,-6.944 -2.86,-12.61 -6.873,-17.925 -2.375,-0.686 -5.106,0.353 -7.226,-1.797 -2.996,-3.039 -3.289,-8.884 -0.408,-12.082 0.669,-0.743 1.59,-1.211 2.201,-2.021 1.121,-2.584 -0.543,-4.278 -1.991,-5.984 -1.717,-2.024 -3.922,-3.634 -5.14,-6.084 -2.535,-1.288 -4.657,-3.561 -7.841,-3.327 -1.473,1.448 -0.953,3.086 -0.454,4.725 0.203,0.363 0.459,0.69 0.756,0.98 1.491,1.385 2.368,3.228 3.561,4.836 0.491,0.661 1.363,1.668 0.516,2.263 -3.644,2.56 -0.817,4.075 0.675,6.053 3.497,4.635 2.796,9.573 -1.672,13.469 -0.972,0.847 -1.838,1.817 -3.011,2.405 -0.659,0.341 -1.5,0.739 -2.002,0.108 -6.158,-7.749 -14.478,-7.824 -23.174,-6.637 -0.283,0.038 -0.577,0.004 -0.865,0.007 -0.399,0.017 -0.785,0.098 -1.161,0.23 -1.297,0.68 -1.929,1.866 -2.395,3.176 6.727,-0.248 9.598,3.34 11.256,9.623 1.224,4.636 6.094,6.688 10.363,8.565 1.839,0.808 2.239,1.394 1.026,3.366 -4.735,7.693 -1.228,13.964 8.196,14.833 13.319,1.228 23.655,-4.506 32.222,-14.236 -5.807,4.268 -12.296,7.035 -19.193,8.899 -4.33,1.714 -8.601,1.391 -12.691,-0.653 -4.144,-2.07 -4.204,-5.975 -0.258,-8.8"
       id="path9"
       inkscape:connector-curvature="0"
       style="fill:#f8bf3e" />
    <path
       d="m 113.5982,162.1243 c 14.506,5.396 28.77,4.701 42.682,-1.969 3.899,-1.87 6.97,-4.647 6.7,-9.64 -0.069,-1.285 -0.492,-1.846 -1.759,-1.743 -4.206,-1.013 -8.296,0.325 -12.382,0.824 -6.422,0.784 -12.657,-0.496 -18.963,-0.977 -2.851,-0.218 -4.062,-2.08 -4.517,-4.909 -0.462,-2.87 0.492,-5.789 -0.537,-8.591 -0.422,-0.951 -1.11,-1.567 -2.166,-1.713 -3.505,0.82 -5.761,4.419 -9.672,4.359 -3.961,5.185 -4.975,11.297 -5.512,17.562 0.114,2.72 1.647,4.632 3.604,6.304 0.767,0.533 1.581,0.842 2.522,0.493"
       id="path11"
       inkscape:connector-curvature="0"
       style="fill:#b63523" />
    <path
       d="m 124.0171,135.0677 c 0.015,3.46 -0.069,6.923 0.083,10.377 0.084,1.893 0.522,3.902 2.883,4.26 11.463,1.736 22.916,2.708 34.238,-0.933 1.664,-1.96 3.898,-3.847 -0.412,-5.507 -1.69,-0.651 -1.807,-2.373 -0.355,-3.407 1.714,-1.22 1.708,-2.405 0.744,-3.95 -0.343,-1.435 -1.437,-2.25 -2.696,-2.53 -11.037,-2.462 -22.104,-2.884 -33.186,-0.23 -0.761,0.418 -1.141,1.094 -1.299,1.92"
       id="path13"
       inkscape:connector-curvature="0"
       style="fill:#fefced" />
    <path
       d="m 41.7236,100.3788 c -4.372,8.468 -1.912,15.736 3.933,22.411 1.197,-0.353 1.916,-1.347 2.829,-2.083 1.848,-1.765 3.78,-0.325 5.68,-0.169 1.356,0.111 2.956,0.951 3.909,-0.644 0.773,-1.295 -0.169,-2.46 -0.849,-3.537 -0.838,-1.328 -1.655,-2.667 -2.428,-4.025 -0.168,-0.375 -0.506,-0.72 -0.467,-1.141 0.026,-0.284 0.352,-0.283 0.63,0.01 3.316,4.902 6.724,9.681 11.427,13.353 0.658,0.474 1.271,1.024 2.073,1.263 3.197,-0.04 5.656,-1.95 8.235,-3.426 3.989,-2.284 8.165,-4.164 12.356,-6.135 -1.869,2.293 -4.331,3.891 -6.479,5.836 -1.083,0.981 -3.368,1.736 -1.674,3.997 1.511,0.769 3.093,0.591 4.68,0.382 0.554,-0.144 1.194,-0.264 1.548,-0.682 3.053,-3.596 7.525,-4.109 11.627,-5.42 0.096,-0.414 0.152,-1.008 -0.199,-1.141 -3.237,-1.23 -3.792,-4.062 -4.266,-6.964 -1.345,-2.412 -3.9,-1.918 -6.003,-2.518 -1.09,-0.029 -2.184,-0.034 -3.272,-0.191 -3.663,-0.251 -7.236,0.507 -10.712,1.409 -4.535,1.176 -8.549,0.411 -12.416,-2.027 -4.906,-3.092 -10.162,-5.531 -15.382,-8.023 -1.465,-0.699 -3.011,-1.989 -4.78,-0.535"
       id="path15"
       inkscape:connector-curvature="0"
       style="fill:#b63523" />
    <path
       d="m 34.7411,185.4456 c 1.126,-0.479 2.033,-1.183 2.451,-2.389 0.701,-1.996 1.176,-4.052 1.67,-6.107 0.011,-1.589 -0.233,-3.145 -0.609,-4.686 -0.434,-0.754 -1.115,-1.145 -1.94,-1.328 -3.778,-1.409 -6.29,-0.046 -7.544,3.48 -0.284,-2.704 0.931,-5.16 1.828,-7.695 0.194,-1.057 0.135,-2.155 0.503,-3.184 0.265,-0.84 0.861,-1.476 1.354,-2.177 0.418,-0.604 0.698,-1.265 0.854,-1.981 0.103,-0.926 0.482,-1.79 0.62,-2.711 -0.056,-0.851 -0.423,-1.466 -1.295,-1.691 -0.589,-0.244 -1.177,-0.487 -1.765,-0.73 -3.581,1.551 -5.092,4.966 -7.092,7.927 -0.499,0.738 -0.668,1.79 -0.165,2.491 1.927,2.682 0.18,4.462 -1.301,6.432 -4.074,5.417 -7.999,10.944 -11.978,16.431 -1.496,2.063 -1.771,3.768 0.374,6.032 2.161,2.282 4.092,4.835 6.406,7.009 1.003,0.944 1.96,2.287 3.701,1.412 1.469,-1.955 2.919,-3.924 4.413,-5.858 0.977,-1.266 1.641,-3.392 3.878,-1.353 0.722,0.658 1.64,0.337 2.243,-0.487 0.844,-1.153 -0.041,-1.95 -0.704,-2.62 -2.301,-2.322 0.233,-3.616 1.145,-5.115 0.534,-0.879 1.046,-3.31 2.953,-1.102"
       id="path17"
       inkscape:connector-curvature="0"
       style="fill:#b9351e" />
    <path
       d="m 41.7236,100.3788 c 7.733,3.161 15.003,7.254 22.324,11.23 2.672,1.45 5.167,1.914 8.22,1.172 4.309,-1.047 8.767,-1.481 13.161,-2.177 0.784,-1.969 2.73,-3.72 1.148,-6.131 -5.928,-0.641 -11.726,0.875 -17.611,1.086 -5.43,0.194 -9.775,-1.741 -13.559,-5.447 -2.259,-2.211 -4.654,-4.282 -6.988,-6.417 -10.64,-6.17 -21.063,-4.874 -31.416,0.89 8.953,-0.93 17.062,1.472 24.721,5.794"
       id="path19"
       inkscape:connector-curvature="0"
       style="fill:#417236" />
    <path
       d="m 42.6783,1.9928 c -5.761,2.271 -6.687,4.049 -4.892,9.666 1.171,3.664 2.679,7.19 4.67,10.494 4.888,0.914 8.94,-1.13 12.863,-3.633 0.453,-2.468 2.048,-4.007 4.137,-5.186 6.176,-3.485 6.461,-4.746 2.619,-11.258 -6.461,-0.968 -12.926,-1.374 -19.397,-0.083"
       id="path21"
       inkscape:connector-curvature="0"
       style="fill:#361413" />
    <path
       d="m 113.5982,162.1243 c -0.612,-0.398 -1.224,-0.796 -1.837,-1.194 -0.639,-0.225 -1.387,0.03 -1.41,0.552 -0.257,5.74 -5.254,8.471 -8.145,12.43 -3.216,4.404 -8.1,7.292 -12.853,10.067 -0.994,0.581 -1.944,1.256 -2.485,2.345 0.661,5.511 2.797,10.458 5.779,15.083 1.54,0.839 2.906,0.098 4.29,-0.482 4.875,-2.331 7.079,-6.992 9.789,-11.213 -1.739,-0.834 -1.877,-0.927 -2.627,0.179 -1.467,2.163 -3.355,3.861 -4.945,5.161 3.037,-2.126 5.431,-5.545 7.689,-8.978 0.769,-1.169 1.489,-0.553 2.191,-0.844 2.724,-7.464 4.581,-15.1 4.564,-23.106"
       id="path23"
       inkscape:connector-curvature="0"
       style="fill:#f7be3e" />
    <path
       d="m 64.0334,154.1275 c 2.559,1.126 4.58,3.292 7.434,3.849 0.462,0.139 0.896,0.077 1.303,-0.186 0.868,-0.931 1.177,-2.221 0.567,-3.147 -2.599,-3.946 -4.831,-8.389 -10.241,-9.254 -1.877,-0.208 -3.736,-5.035 -5.69,0.114 -1.402,-2.392 -1.948,-5.703 -5.756,-5.273 -2.657,0.299 -3.888,2.591 -2.113,3.898 1.085,0.8 2.856,0.488 3.528,2.069 -2.618,1.312 -4.728,-1.585 -7.242,-0.755 -3.132,1.785 -3.35,5.155 -4.409,8.069 -0.209,0.563 -0.35,1.146 -0.452,1.736 -0.352,1.304 -0.875,2.537 -1.591,3.689 -0.672,1.034 -1.427,2.023 -1.697,3.265 -0.255,1.281 -0.174,2.566 -0.054,3.852 0.232,1.257 0.76,2.421 1.134,3.634 0.78,1.221 1.165,2.599 1.54,3.982 0.414,1.053 1.068,1.806 2.301,1.825 2.773,-0.472 3.505,-3.324 5.5,-4.71 0.348,-0.244 0.65,-0.534 0.928,-0.854 0.683,-0.879 0.988,-1.87 0.899,-2.979 -1.054,-5.5 -1.082,-10.83 2.587,-15.541 1.087,-1.875 2.448,-0.728 3.624,-0.227 2.059,0.879 4.053,1.911 6.154,2.703 0.56,0.242 1.148,0.278 1.746,0.241"
       id="path25"
       inkscape:connector-curvature="0"
       style="fill:#fdfbec" />
    <path
       d="m 101.3097,77.6945 c -2.228,1.418 -2.76,-1.289 -4.221,-1.736 -0.846,0.306 -1.224,1.04 -1.624,1.754 -4.201,3.584 -9.036,5.856 -14.415,7.013 -2.457,0.591 -5.058,-0.319 -7.468,0.722 -1.388,1.719 -4.272,0.49 -5.578,2.902 2.611,1.565 6.829,0.088 7.942,4.167 0.705,-0.147 1.338,-0.547 2.046,-0.645 4.37,-0.607 5.404,0.232 5.36,4.3 1.977,0.819 3.797,0.324 5.561,-0.65 0.564,-2.434 3.183,-2.912 4.487,-4.678 -0.093,1.245 -0.913,2.356 -0.636,3.656 0.578,1.86 -0.286,4.359 2.35,5.303 1.388,-10e-4 2.185,-0.812 2.724,-1.978 0.819,-2.608 0.371,-5.383 1.047,-8.008 0.93,-4.312 1.633,-4.662 6.461,-3.177 3.256,0.841 6.06,2.915 9.429,3.443 1.402,-0.722 1.551,-2.012 1.54,-3.374 -0.324,-2.672 -2.265,-3.341 -4.623,-3.668 2.004,-0.927 4.059,-1.675 5.332,-3.557 0.928,-0.577 0.456,-2.099 1.674,-2.481 0.076,-0.169 0.152,-0.339 0.23,-0.509 -0.088,-1.208 -0.926,-2.016 -1.552,-2.941 -1.034,-1.132 -1.761,-2.566 -3.213,-3.293 -0.869,-0.223 -1.575,0.053 -2.161,0.701 -0.56,0.813 -0.992,1.696 -1.385,2.598 -0.566,1.418 -1.451,2.641 -2.373,3.843 -2.171,3.54 -4.64,-0.096 -6.934,0.293"
       id="path27"
       inkscape:connector-curvature="0"
       style="fill:#6d0e15" />
    <path
       d="m 124.7926,134.1074 c 10.369,-1.685 20.737,-1.511 31.105,0.013 1.878,0.275 3.654,0.833 5.3,1.787 1.616,-2.93 5.107,-5.33 2.666,-9.41 -6.557,-2.154 -13.119,-4.133 -20.152,-4.141 -4.526,-0.006 -8.89,0.66 -13.215,1.843 -0.938,0.18 -1.732,0.631 -2.413,1.284 -0.309,0.302 -0.562,0.654 -0.768,1.034 -0.742,2.301 -2.62,4.089 -3.022,6.556 0.006,0.421 0.166,0.77 0.499,1.034"
       id="path29"
       inkscape:connector-curvature="0"
       style="fill:#b63524" />
    <path
       d="m 20.8136,201.9806 c -3.066,-2.872 -5.753,-6.429 -8.71,-8.971 -4.256,-3.659 -0.501,-4.884 0.591,-6.525 3.672,-5.512 7.8,-10.719 11.668,-16.103 1.181,-1.643 3.145,-3.325 0.504,-5.481 -1.234,-1.007 -0.346,-1.999 0.389,-2.971 1.913,-2.529 3.747,-5.118 5.612,-7.683 -3.029,-1.104 -5.308,-0.206 -6.851,2.595 -6.531,11.86 -14.922,22.423 -23.091,33.141 -1.485,1.95 -1.097,3.734 0.549,5.287 1.875,1.77 3.861,3.422 5.799,5.125 1.756,0.866 1.037,3.847 3.506,4.104 1.558,0.311 3.115,0.623 4.673,0.934 3.049,-0.102 1.625,-1.707 0.825,-2.798 -1.849,-2.522 -4.463,-4.369 -6.24,-6.991 2.076,1.698 3.863,3.709 5.854,5.495 1.221,1.097 2.331,2.711 4.405,1.721 0.172,-0.293 0.345,-0.586 0.517,-0.879"
       id="path31"
       inkscape:connector-curvature="0"
       style="fill:#700f16" />
    <path
       d="m 183.0128,85.3572 c -0.94,-2.609 0.401,-6.785 -4.557,-6.633 -3.298,3.405 -6.333,3.872 -10.353,1.591 -0.487,0.002 -0.974,0.004 -1.462,0.006 -2.386,2.844 -0.182,5.909 -0.441,8.852 0.452,1.417 1.276,2.528 2.684,3.187 -2.88,-0.999 -5.995,0.873 -8.823,-0.792 -3.343,-0.081 -6.724,-0.551 -9.903,0.986 -0.057,0.255 -0.146,0.498 -0.267,0.73 -1.259,2.283 1.443,4.987 -0.783,7.309 -0.273,0.285 2.154,1.883 0.134,3.113 -0.692,0.828 -2.1,1.813 -0.725,2.769 2.151,1.496 3.95,0 5.299,-1.373 3.049,0.789 -1.355,7.416 4.776,5.497 0.74,-0.874 0.389,-1.921 0.423,-2.892 0.152,-4.323 1.55,-5.767 5.978,-6.036 1.431,-0.087 2.878,-0.001 4.27,-0.436 1.183,-0.37 2.11,-1.022 2.059,-2.401 -0.05,-1.377 -1.037,-1.978 -2.221,-2.274 -1.805,-0.453 -3.654,-0.145 -5.083,-0.229 2.612,-0.231 5.613,0.219 8.623,0.125 1.026,-0.032 2.15,0.13 2.412,1.324 0.225,1.028 -0.264,1.951 -1.151,2.612 -1.102,0.821 -3.479,0.978 -1.775,3.31 5.683,0.499 7.608,-2.005 6.338,-8.242 0.639,1.825 0.737,3.638 0.148,5.524 -0.575,1.836 -0.307,3.458 1.717,4.319 0.199,0.184 0.434,0.275 0.705,0.274 1.84,0.139 1.617,-1.317 1.526,-2.287 -0.238,-2.53 -0.093,-5.06 -0.725,-7.605 -0.866,-3.485 0.062,-6.963 1.177,-10.328"
       id="path33"
       inkscape:connector-curvature="0"
       style="fill:#2b3e57" />
    <path
       d="m 148.9899,112.3992 c -3.128,-1.904 -6.655,-2.684 -10.174,-3.331 -0.814,-0.15 -3.149,-1.49 -2.755,1.423 -2.375,4.149 -4.963,0.652 -7.471,0.199 -1.676,-0.057 -3.166,0.41 -4.44,1.523 -2.352,3.123 -2.512,6.754 -2.423,10.445 -0.023,1.001 0.123,1.962 0.637,2.841 0.909,1.293 2.137,1.804 3.692,1.487 2.081,-0.854 2.288,-2.748 2.611,-4.623 0.16,-0.927 -0.04,-2.323 1.288,-2.413 1.233,-0.084 1.271,1.362 1.809,2.154 0.729,1.513 1.916,1.788 3.525,1.618 4.191,-0.445 8.381,-1.275 12.622,-0.482 3.309,0.618 2.439,-2.957 4.072,-4.033 0.723,-3.027 1.289,-5.988 -2.993,-6.808"
       id="path35"
       inkscape:connector-curvature="0"
       style="fill:#fdfbec" />
    <path
       d="m 148.2366,77.6413 c -7.615,-0.959 -15.087,-3.312 -22.901,-2.333 -1.682,0.211 -3.371,0.369 -5.058,0.551 -0.848,-0.314 -1.295,0.168 -1.651,0.832 0,0 0.072,0.311 0.071,0.312 -0.5,3.915 1.465,6.167 5.187,7.696 0.469,-2.211 -2.091,-4.359 0.6,-6.378 0.489,2.212 0.119,4.589 2.231,6.117 2.151,1.556 4.453,0.859 6.697,0.998 2.017,0.124 4.048,0.029 6.072,0.03 2.588,-0.185 4.941,1.284 7.541,1.075 3.787,-3.663 4.068,-5.74 1.211,-8.9"
       id="path37"
       inkscape:connector-curvature="0"
       style="fill:#fefced" />
    <path
       d="m 115.3051,86.3046 c -0.078,1.262 -0.08,2.542 -0.825,3.654 -1.153,0.62 -1.329,1.722 -1.417,2.867 0.036,1.102 -0.283,2.14 -0.616,3.174 -0.357,1.701 -0.69,3.407 -1.023,5.116 -0.121,0.89 -0.09,1.797 -0.349,2.671 -0.423,2.532 -0.978,5.057 -0.406,7.643 0.278,0.947 0.812,1.699 1.673,2.201 3.036,0.772 4.462,-1.366 5.689,-3.422 2.47,-4.142 4.898,-8.334 5.901,-13.148 0.39,-1.493 0.956,-2.991 0.006,-4.487 0.34,-0.794 0.603,-1.633 1.036,-2.373 1.313,-2.242 1.906,-3.888 -1.827,-4.041 -3.122,-0.128 -4.125,-3.324 -6.156,-5.054 -3.091,0.913 -0.898,3.539 -1.686,5.199"
       id="path39"
       inkscape:connector-curvature="0"
       style="fill:#fdfbec" />
    <path
       d="m 55.9814,52.3991 c -0.705,-0.9 -1.29,-1.938 -2.138,-2.674 -2.043,-1.774 -2.35,-3.127 0.554,-4.232 1.395,-0.531 2.15,-1.799 1.583,-3.132 -2.109,-4.954 -3.201,-10.491 -7.711,-14.141 -0.956,-0.863 -2.094,-1.254 -3.084,-0.307 -1.177,1.127 0.235,1.734 0.808,2.404 1.823,2.137 2.02,4.982 3.736,7.391 -2.758,0.813 -5.748,0.327 -7.026,3.261 -0.624,2.742 1.945,4.122 2.812,6.185 -1.648,1.937 -4.626,0.671 -5.985,2.852 3.649,3.305 8.427,5.547 9.972,10.832 0.308,1.055 1.396,1.362 2.504,1.207 0.426,0.151 0.756,0.022 1.005,-0.343 0.16,-2.364 0.088,-4.923 3.805,-3.619 0.836,0.294 1.77,0.107 2.198,-0.867 0.399,-0.909 0.048,-1.718 -0.611,-2.352 -0.831,-0.8 -1.756,-1.503 -2.422,-2.465"
       id="path41"
       inkscape:connector-curvature="0"
       style="fill:#6e0f16" />
    <path
       d="m 104.3154,63.1149 c 1.362,-0.413 1.985,-1.444 2.294,-2.739 0.623,-4.887 2.965,-9.011 5.744,-12.941 0.101,-0.156 0.243,-0.217 0.426,-0.184 1.114,-6.345 0.92,-6.588 -5.765,-6.778 -1.431,-0.041 -2.879,-0.058 -4.298,0.102 -4.299,0.486 -5.774,2.334 -5.293,6.624 0.672,6 2.927,11.333 6.892,15.916"
       id="path43"
       inkscape:connector-curvature="0"
       style="fill:#381615" />
    <path
       d="m 63.0969,145.39 c 2.487,2.294 5.008,4.552 7.45,6.894 1.515,1.453 2.527,3.163 1.882,5.408 0.044,0.727 0.471,1.016 1.158,1.009 1.032,-0.288 1.708,-1.003 2.26,-1.871 0.482,-0.869 0.805,-1.825 1.435,-2.618 1.182,-1.878 2.889,-3.194 4.608,-4.54 3.322,-2.601 3.325,-3.542 0.345,-6.915 -3.733,-2.219 -7.594,-4.046 -12.086,-3.941 -0.913,0.129 -1.841,0.103 -2.755,0.243 -1.519,0.355 -2.602,1.096 -2.516,2.861 0.165,1.546 -0.974,2.423 -1.781,3.47"
       id="path45"
       inkscape:connector-curvature="0"
       style="fill:#b73624" />
    <path
       d="m 146.3956,86.3424 c -2.245,-0.751 -4.417,-2.081 -6.911,-0.876 3.405,0.943 6.559,2.146 8.136,5.783 0.292,0.675 1.664,0.882 2.537,1.304 3.417,0.984 6.785,0.372 10.151,-0.312 0.566,-0.191 1.125,-0.48 1.231,-1.093 0.975,-5.606 -5.191,-13.246 -10.742,-13.344 -1.436,0.476 -1.34,1.678 -1.31,2.825 0.068,2.506 -0.953,4.409 -3.092,5.713"
       id="path47"
       inkscape:connector-curvature="0"
       style="fill:#fcfaec" />
    <path
       d="m 43.0705,41.2085 c 2.374,-2.764 5.822,-1.413 9.906,-2.278 -4.744,-2.603 -2.496,-8.528 -7.797,-10.712 1.42,0 2.255,0 3.09,0.001 -0.863,-1.193 -1.726,-2.387 -2.589,-3.581 -1.681,-1.401 -2.77,-0.463 -3.93,0.854 -0.954,1.082 -0.955,2.747 -2.309,3.534 -2.848,2.898 -0.817,5.675 0.212,8.477 0.207,2.094 1.428,3.254 3.417,3.705"
       id="path49"
       inkscape:connector-curvature="0"
       style="fill:#b53523" />
    <path
       d="m 122.7439,97.0832 c -1.422,4.637 -3.637,8.914 -6.106,13.05 -0.885,1.483 -1.584,3.558 -4.075,3.024 -0.383,-0.23 -0.777,-0.249 -1.182,-0.058 -2.042,3.243 0.818,3.958 2.672,5.201 0.403,0.16 0.823,0.257 1.252,0.32 0.866,0.087 1.708,-0.018 2.517,-0.351 2.935,-1.611 4.672,-4.524 7.165,-6.619 0.625,-2.282 3.233,-3.529 3.225,-6.141 -0.005,-1.65 0.764,-0.332 1.071,-0.232 0.913,0.297 1.777,0.924 2.712,0.077 -0.847,-1.396 -1.694,-2.791 -2.54,-4.187 -2.443,-1.023 -4.314,-2.985 -6.711,-4.084"
       id="path51"
       inkscape:connector-curvature="0"
       style="fill:#569951" />
    <path
       d="m 47.5537,119.8552 c -1.25,0.579 -1.661,1.7 -1.897,2.934 0.12,0.893 0.005,1.724 -0.639,2.415 -0.34,1.031 -0.207,1.961 0.586,2.751 0.051,1.891 0.779,3.32 2.663,4.005 3.617,1.317 7.069,3.322 11.159,2.641 0.332,-0.367 0.513,-0.798 0.544,-1.293 0.024,-0.288 0.03,-0.581 0.09,-0.863 2.127,-10.062 -2.197,-14.417 -12.506,-12.59"
       id="path53"
       inkscape:connector-curvature="0"
       style="fill:#57964f" />
    <path
       d="m 172.511,103.6559 c -0.899,-2.045 0.874,-1.5 1.769,-1.856 2.039,-0.811 2.833,-2.391 2.475,-4.492 -0.392,-2.303 -2.105,-2.292 -3.97,-2.253 -3.729,0.079 -7.463,-0.055 -11.194,-0.024 -1.06,0.008 -2.712,-0.322 -2.627,1.356 0.082,1.603 1.713,1.169 2.783,1.21 1.874,0.07 3.756,-0.059 5.626,0.052 1.152,0.069 3.034,-0.585 3.001,1.391 -0.026,1.588 -1.72,1.07 -2.785,1.21 -0.284,0.037 -0.577,0.004 -0.865,0.01 -8.183,0.156 -8.264,0.24 -8.166,8.608 0.007,0.578 0.022,1.155 0.034,1.732 1.919,-6.038 1.919,-6.018 9.176,-5.847 1.574,0.037 3.151,-0.13 4.727,-0.204 0.262,-0.194 0.351,-0.39 0.269,-0.591 -0.083,-0.201 -0.167,-0.302 -0.253,-0.302"
       id="path55"
       inkscape:connector-curvature="0"
       style="fill:#43637f" />
    <path
       d="m 39.4417,29.0263 c 1.203,-0.1 2.142,-0.317 2.373,-1.878 0.313,-2.116 1.997,-2.559 3.866,-2.509 3.536,0.26 6.737,-0.408 9.532,-2.837 2.613,-2.27 5.08,-1.347 7.792,0.34 1.411,0.877 3.154,4.094 5.409,0.782 -0.106,-3.264 -2.717,-3.81 -5.028,-4.156 -2.642,-0.396 -5.373,-0.192 -8.066,-0.249 -4.56,0.251 -8.579,2.413 -12.864,3.632 -0.389,2.563 -3.136,4.09 -3.014,6.875"
       id="path57"
       inkscape:connector-curvature="0"
       style="fill:#6e0f16" />
    <path
       d="m 43.0705,41.2085 c -0.951,-1.409 -1.903,-2.818 -3.419,-3.705 -5.705,2.864 -5.76,8.369 -0.123,12.502 0.856,-0.046 1.711,-0.139 2.565,-0.132 2.104,0.019 4.415,-0.515 5.284,-2.189 0.688,-1.325 -1.787,-2.231 -2.579,-3.534 -0.59,-0.972 -1.153,-1.961 -1.728,-2.942"
       id="path59"
       inkscape:connector-curvature="0"
       style="fill:#381514" />
    <path
       d="m 150.8502,78.4579 c 4.806,0.473 7.996,2.686 7.596,7.932 -0.18,2.36 4.123,3.031 1.863,5.851 0.16,0.909 0.6,2.003 1.543,1.72 3.837,-1.148 7.922,-0.084 12.418,-1.31 -2.356,-1.933 -5.626,-0.069 -6.819,-2.868 -1.4,-0.008 -1.41,-1.015 -1.539,-2.03 -0.138,-1.089 -0.184,-2.281 -1.423,-2.844 -3.759,-0.677 -5.824,-2.542 -5.177,-6.731 0.246,-1.59 -1.244,-1.656 -2.429,-1.616 -1.727,0.058 -3.452,0.167 -5.178,0.254 -0.527,0.421 -1.437,0.643 -0.855,1.642"
       id="path61"
       inkscape:connector-curvature="0"
       style="fill:#45637e" />
    <path
       d="m 183.0128,85.3572 c -2.07,0.849 -2.883,2.02 -2.848,4.606 0.072,5.229 1.816,10.353 0.869,15.614 3.266,0.459 6.647,1.969 9.53,-1.049 -0.591,-0.664 -1.365,-1.002 -2.161,-1.369 -4.061,-1.874 -5.232,-4.593 -4.197,-8.912 0.349,-1.453 1.386,-1.806 2.433,-2.097 1.562,-0.434 3.052,-0.861 3.992,-2.313 -2.662,-1.286 -5.527,-2.225 -7.618,-4.48"
       id="path63"
       inkscape:connector-curvature="0"
       style="fill:#446480" />
    <path
       d="m 114.2558,70.9068 c 0.389,1.507 1.333,2.58 2.637,3.37 3.951,-1.335 5.386,-5.271 8.124,-7.861 l 5.859,-5.262 c 0.179,-1.937 -0.647,-2.886 -2.64,-2.687 -4.339,3.551 -8.677,7.102 -13.015,10.653 -0.702,0.39 -1.048,0.973 -0.965,1.787"
       id="path65"
       inkscape:connector-curvature="0"
       style="fill:#3b1716" />
    <path
       d="m 45.604,127.9554 c 0.064,-0.973 0.224,-1.967 -0.589,-2.751 -7.609,0.974 -13.677,4.175 -16.798,11.634 0.479,1.787 1.596,1.429 2.784,0.827 3.393,-5.454 8.396,-8.488 14.603,-9.71"
       id="path67"
       inkscape:connector-curvature="0"
       style="fill:#72161d" />
    <path
       d="m 42.1034,155.4552 c 0.064,-0.45 0.127,-0.9 0.191,-1.35 0.374,-2.833 1.339,-5.795 -1.716,-7.882 -0.858,-1.16 -1.164,-2.768 -2.728,-3.353 -6.032,2.825 -6.356,5.563 -1.352,11.335 1.915,0.187 3.221,3.147 5.605,1.25"
       id="path69"
       inkscape:connector-curvature="0"
       style="fill:#426481" />
    <path
       d="m 67.28,140.1445 c 0.996,-0.031 1.993,-0.063 2.989,-0.094 -0.825,-3.659 0.829,-6.296 3.512,-8.511 0.048,-0.42 -0.052,-0.8 -0.296,-1.144 -0.904,-0.623 -1.995,-0.699 -2.865,-0.281 -2.929,1.406 -4.722,0.414 -5.811,-2.43 -2.053,-0.627 -3.407,0.099 -4.098,2.111 -0.115,1.83 1.179,3.54 0.475,5.427 0.287,1.55 -1.653,3.131 0.064,4.662 2.011,0.055 4.109,-1.9 6.03,0.26"
       id="path71"
       inkscape:connector-curvature="0"
       style="fill:#b83c28" />
    <path
       d="m 150.8314,119.1033 c -0.347,-0.411 -0.735,-1.198 -1.034,-1.165 -1.06,0.116 -0.643,1.042 -0.604,1.677 0.209,3.372 0.146,3.516 -2.901,1.927 -1.303,-0.679 -1.797,0.417 -2.68,0.496 -3.638,0.326 -7.313,2.075 -10.903,-0.203 -1.577,0.655 -2.91,1.506 -2.81,3.505 9.188,-2.268 18.34,-1.907 27.563,-0.011 2.099,0.431 3.93,2.797 6.4,1.168 -1.774,-0.919 -3.549,-1.838 -5.324,-2.757 -2.565,-1.552 -5.967,-1.713 -7.707,-4.637"
       id="path73"
       inkscape:connector-curvature="0"
       style="fill:#762123" />
    <path
       d="m 131.9947,105.3542 c -0.98,-0.548 -1.945,-1.127 -2.945,-1.636 -1.274,-0.647 -2.833,-1.527 -3.709,0.202 -1.019,2.011 1.998,0.888 2.114,2.277 -0.875,1.697 -4.745,1.843 -2.735,5.101 -0.477,0.337 -0.457,0.641 0.062,0.911 1.621,0.308 2.971,-0.502 4.381,-1.061 1.606,0.362 3.089,0.375 3.959,-1.377 0.551,-1.709 -0.168,-3.094 -1.127,-4.417"
       id="path75"
       inkscape:connector-curvature="0"
       style="fill:#47793d" />
    <path
       d="m 190.9244,103.9537 c 3.269,-2.221 2.707,-5.152 1.573,-8.233 -0.625,-1.698 -1.129,-3.442 -1.688,-5.165 -3.157,0.761 -6.736,0.875 -7.027,5.451 -0.336,5.28 1.138,7.003 7.142,7.947"
       id="path77"
       inkscape:connector-curvature="0"
       style="fill:#42617d" />
    <path
       d="m 20.2961,202.8596 c -4.064,-1.827 -6.236,-5.782 -9.537,-8.462 -0.771,-0.625 -1.387,-2.351 -2.71,-1.092 -1.238,1.179 -0.303,2.366 0.641,3.324 2.211,2.243 4.473,4.438 6.655,6.709 0.552,0.574 2.07,1.311 0.104,2.094 3.099,1.93 3.679,-0.874 4.847,-2.573"
       id="path79"
       inkscape:connector-curvature="0"
       style="fill:#b6331e" />
    <path
       d="m 52.1314,62.0233 c 0,0 -0.129,0.022 -0.127,0.022 -1.939,2.041 -3.14,4.197 -1.053,6.858 2.822,-3.572 6.175,-6.542 10.488,-8.088 3.701,-1.327 1.858,-2.522 0.165,-3.884 -3.577,0.917 -6.962,2.192 -9.473,5.092"
       id="path81"
       inkscape:connector-curvature="0"
       style="fill:#f6a10c" />
    <path
       d="m 65.6617,207.0424 c -0.103,-0.541 -0.244,-1.378 -0.94,-0.957 -3.971,2.403 -3.845,8.378 0.197,10.58 4.723,2.572 9.602,1.82 14.484,0.549 0.024,-0.006 0.035,-0.311 -0.028,-0.35 -0.238,-0.151 -0.508,-0.25 -0.765,-0.368 -3.015,-0.005 -6.019,0.327 -9.025,-0.489 -5.844,-1.587 -6.688,-3.385 -3.923,-8.965"
       id="path83"
       inkscape:connector-curvature="0"
       style="fill:#e3992d" />
    <path
       d="m 10.7799,204.4983 c -0.384,-1.153 -0.681,-2.345 -1.178,-3.447 -0.459,-1.016 -1.064,-2.189 -2.328,-0.657 -1.304,2.01 -2.38,4.195 -4.672,5.374 -0.976,0.502 -1.63,1.263 -0.506,2.315 1.785,-0.057 2.468,1.518 3.597,2.433 3.049,-0.862 2.827,-4.49 5.087,-6.018"
       id="path85"
       inkscape:connector-curvature="0"
       style="fill:#b33624" />
    <path
       d="m 149.2421,103.7061 c 1.471,-1.229 3.512,-0.592 5.269,-1.26 -1.141,-2.121 -3.147,-0.779 -4.45,-1.715 0.862,-1.02 3.036,0.076 3.19,-2.022 0.179,-2.445 -2.208,-1.5 -3.238,-2.398 1.032,-0.915 2.767,0.154 3.487,-1.493 -0.822,-1.354 -2.856,-0.038 -3.609,-1.534 -3.2,1.768 -3.063,4.475 -2.02,7.382 0.374,1.042 1.595,1.715 1.371,3.04"
       id="path87"
       inkscape:connector-curvature="0"
       style="fill:#43627d" />
    <path
       d="m 150.8314,119.1033 c 0.364,5.21 4.264,4.544 7.707,4.637 0.036,-1.096 0.083,-2.191 0.104,-3.287 0.058,-3.039 -1.413,-1.189 -2.439,-0.758 -1.928,-0.196 -2.033,-1.945 -2.723,-3.197 -1.039,-2.158 -1.244,-4.701 -2.978,-6.553 -1.053,0.513 -1.267,1.493 -1.512,2.454 2.364,1.754 3.805,3.761 1.841,6.704"
       id="path89"
       inkscape:connector-curvature="0"
       style="fill:#736050" />
    <path
       d="m 36.9523,153.8509 c -0.192,-0.535 -0.222,-1.285 -0.602,-1.573 -3.902,-2.955 -2.409,-5.504 0.481,-8.029 0.42,-0.367 0.683,-0.915 1.019,-1.379 -3.653,-1.565 -5.571,0.832 -7.207,3.37 -1.726,2.679 -0.102,4.477 2.058,5.958 1.129,1.294 1.959,3.352 4.251,1.653"
       id="path91"
       inkscape:connector-curvature="0"
       style="fill:#2a3b54" />
    <path
       d="m 190.9244,103.9537 c -2.268,-1.673 -5.887,-1.725 -6.28,-5.636 -0.387,-3.842 0.971,-5.958 4.824,-6.491 0.981,-0.136 1.127,-0.605 1.341,-1.271 0.052,-0.268 -0.008,-0.507 -0.179,-0.719 -0.556,0.133 -1.116,0.253 -1.668,0.401 -5.852,1.566 -7.802,4.722 -5.839,10.439 1.125,3.277 4.309,3.805 7.44,3.851 0.221,-0.128 0.341,-0.319 0.361,-0.574"
       id="path93"
       inkscape:connector-curvature="0"
       style="fill:#2d425c" />
    <path
       d="m 36.9523,153.8509 c -1.721,0.231 -2.614,-1.666 -4.251,-1.653 -0.023,0.926 -0.045,1.852 -0.068,2.778 l 1.038,1.494 c 1.047,3.583 3.253,4.527 6.591,2.894 1.386,-0.939 1.358,-2.543 1.841,-3.908 -1.847,-0.118 -2.628,-3.657 -5.151,-1.605"
       id="path95"
       inkscape:connector-curvature="0"
       style="fill:#f3f0e3" />
    <path
       d="m 172.511,103.6559 c -0.005,0.298 -0.011,0.596 -0.016,0.893 2.491,1.51 5.213,0.61 7.835,0.754 -1.407,-2.393 -0.784,-5.035 -0.865,-7.573 -0.073,-2.289 -0.111,-4.534 -1.477,-6.697 -1.69,0.868 -1.174,2.233 -0.887,3.34 1.723,6.657 1.658,6.839 -4.59,9.283"
       id="path97"
       inkscape:connector-curvature="0"
       style="fill:#43627e" />
    <path
       d="m 109.034,185.2302 c -0.451,-0.668 -0.902,-1.336 -1.553,-2.302 -3.081,5.737 -7.337,10.361 -11.74,14.919 3.628,-1.495 6.399,-4.003 8.832,-6.962 0.532,-0.647 0.674,-2.194 2.152,-1.173 1.154,-1.296 1.769,-2.87 2.309,-4.482"
       id="path99"
       inkscape:connector-curvature="0"
       style="fill:#ebd8ae" />
    <path
       d="m 168.1032,80.3155 c -0.185,2.273 0.294,3.642 3.087,2.759 1.185,-0.374 2.554,-0.241 3.836,-0.211 2.934,0.067 3.694,-1.595 3.43,-4.139 -3.452,0.53 -6.902,1.061 -10.353,1.591"
       id="path101"
       inkscape:connector-curvature="0"
       style="fill:#6f1520" />
    <path
       d="m 96.9373,200.925 c -1.373,-1.709 -2.33,0.533 -3.539,0.372 -1.05,0.001 -1.806,0.548 -2.444,1.314 -3.465,2.149 -7.524,2.669 -11.726,4.039 3.505,1.033 6.365,-0.645 9.343,-0.494 3.706,-0.28 6.098,-2.656 8.366,-5.231"
       id="path103"
       inkscape:connector-curvature="0"
       style="fill:#e4dbc4" />
    <path
       d="m 122.7439,97.0832 c 0.52,4.182 3.943,3.592 6.71,4.083 -1.515,-3.071 -1.988,-6.812 -5.516,-8.592 l -1.194,4.509"
       id="path105"
       inkscape:connector-curvature="0"
       style="fill:#731b1f" />
    <path
       d="m 42.6783,1.9928 c 6.468,-0.379 12.927,1.118 19.398,0.084 -3.397,-3.325 -7.617,-1.617 -11.493,-1.787 -2.719,-0.119 -5.471,0.21 -7.905,1.703"
       id="path107"
       inkscape:connector-curvature="0"
       style="fill:#70171e" />
    <path
       d="m 125.0164,66.416 c -3.094,2.221 -6.28,4.346 -8.124,7.86 -0.055,1.26 1.155,1.612 1.734,2.415 0.551,-0.277 1.101,-0.554 1.652,-0.832 1.395,-3.24 3.79,-5.978 4.738,-9.443"
       id="path109"
       inkscape:connector-curvature="0"
       style="fill:#b43b2a" />
    <path
       d="m 164.4896,84.9091 c 0.079,1.672 0.137,3.346 0.245,5.017 0.058,0.891 0.353,1.638 1.46,1.631 1.248,-0.009 1.058,-1.027 1.257,-1.774 l -0.81,-9.462 c -3.948,0.014 -1.344,3.101 -2.152,4.588"
       id="path111"
       inkscape:connector-curvature="0"
       style="fill:#f3f4f5" />
    <path
       d="m 115.3051,86.3046 c 0.562,-1.733 1.124,-3.465 1.686,-5.198 0.011,-0.542 0.022,-1.083 0.033,-1.623 -2.468,0.925 -5.215,1.308 -7.009,3.678 1.203,1.948 4.524,0.459 5.29,3.143"
       id="path113"
       inkscape:connector-curvature="0"
       style="fill:#b63928" />
    <path
       d="m 133.1214,109.7708 c -1.321,0.46 -2.642,0.92 -3.961,1.379 0.898,2.344 2.551,3.578 5.028,2.766 1.421,-0.465 3.179,-1.239 1.872,-3.424 -1.04,0.007 -2.113,0.147 -2.939,-0.721"
       id="path115"
       inkscape:connector-curvature="0"
       style="fill:#cb9679" />
    <path
       d="m 40.5779,146.2236 c 0.755,2.588 1.683,5.137 1.717,7.882 1.175,-2.888 2.351,-5.775 3.527,-8.663 -2.056,-1.817 -3.399,1.166 -5.244,0.781"
       id="path117"
       inkscape:connector-curvature="0"
       style="fill:#c3c4c6" />
    <path
       d="m 67.28,140.1445 c -0.964,-3.294 -2.595,-3.364 -6.029,-0.259 1.208,0.678 2.417,1.356 3.627,2.034 0.787,-0.61 1.131,-1.819 2.402,-1.775"
       id="path119"
       inkscape:connector-curvature="0"
       style="fill:#75161c" />
    <path
       d="m 128.2354,58.4667 c 0.88,0.896 1.761,1.791 2.641,2.687 1.057,-0.641 2.235,-1.886 0.954,-2.616 -2.857,-1.63 -2.216,-4.696 -3.526,-6.898 -0.023,2.276 -0.046,4.552 -0.069,6.827"
       id="path121"
       inkscape:connector-curvature="0"
       style="fill:#bec0bd" />
    <path
       d="m 150.8502,78.4579 c 0.285,-0.547 0.57,-1.095 0.856,-1.642 -1.287,-0.27 -2.388,0.241 -3.47,0.825 1.837,3.419 0.264,6.116 -1.84,8.701 2.565,-0.299 3.045,-2.313 3.463,-4.309 0.255,-1.218 -0.281,-2.64 0.991,-3.575"
       id="path123"
       inkscape:connector-curvature="0"
       style="fill:#cccecb" />
    <path
       d="m 61.1863,135.222 c 2.485,-1.484 1.864,-3.054 0.128,-4.654 -1.914,0.53 -1.642,2.174 -1.827,3.585 0.006,0.153 -0.014,0.303 -0.061,0.448 0.586,0.207 1.173,0.414 1.76,0.621"
       id="path125"
       inkscape:connector-curvature="0"
       style="fill:#eb950e" />
    <path
       d="m 31.0014,137.6657 c -1.039,0.097 -2.01,-0.035 -2.784,-0.829 -1.205,1.319 -0.816,2.298 0.727,2.845 1.936,0.688 2.103,-0.594 2.057,-2.016"
       id="path127"
       inkscape:connector-curvature="0"
       style="fill:#eeac3a" />
    <path
       d="m 153.4809,116.4984 c 0.148,1.135 0.118,2.33 0.477,3.394 0.906,2.679 1.57,0.796 2.245,-0.198 -0.824,-1.135 -1.336,-2.537 -2.722,-3.196"
       id="path129"
       inkscape:connector-curvature="0"
       style="fill:#e19b1c" />
    <path
       d="m 5.6927,210.5159 c -0.569,-1.742 -0.736,-4.079 -3.597,-2.432 0.744,1.483 1.844,2.44 3.597,2.432"
       id="path131"
       inkscape:connector-curvature="0"
       style="fill:#78171b" />
    <path
       d="m 73.582,85.447 c 2.53,1.201 5.08,1.402 7.657,0.147 0.246,-1.947 -0.788,-3.168 -2.319,-4.109 -0.583,-0.355 -1.289,-0.151 -1.898,-0.406 0.243,-0.07 0.502,-0.154 0.805,-0.26 3.155,-0.901 6.458,-0.881 9.573,-1.824 2.05,-0.621 3.974,-1.464 5.218,-3.356 0.214,-0.441 0.166,-0.853 -0.139,-1.234 -1.013,-2.522 -2.758,-3.916 -5.496,-4.662 -6.65,-1.81 -13.223,-3.92 -19.778,-6.058 -5.342,-1.741 -6.073,3.195 -8.208,5.734 -2.19,2.606 1.085,3.458 2.383,4.87 1.234,-0.529 1.631,-1.963 2.793,-2.57 3.279,-1.194 4.935,0.986 6.595,3.154 0.123,0.161 0.235,0.299 0.221,0.356 -0.22,0.862 -0.578,-0.129 -0.869,0.049 -2.123,-0.527 -3.123,1.982 -5.095,1.84 -0.383,0.109 -0.687,0.326 -0.903,0.66 -0.807,0.597 -1.664,1.139 -2.405,1.809 -0.5,0.452 -1.192,0.984 -0.797,1.815 0.383,0.805 1.243,0.705 1.902,0.599 4.184,-0.669 7.482,1.338 10.76,3.446"
       id="path133"
       inkscape:connector-curvature="0"
       style="fill:#3a1413" />
    <path
       d="m 86.5763,104.4728 c -0.114,1.206 0.108,2.602 -1.296,3.226 -2.581,1.146 -0.345,1.964 0.149,2.905 0.765,1.165 1.541,0.909 2.321,0.017 3.047,-0.09 6.328,0.418 8.031,-3.131 0.952,-2.208 0.539,-4.434 0.083,-6.665 -0.179,-0.448 -0.49,-0.769 -0.928,-0.969 -1.128,-0.414 -2.238,-0.665 -3.19,0.384 -1.859,1.245 -4.022,2.12 -5.17,4.233"
       id="path135"
       inkscape:connector-curvature="0"
       style="fill:#ecbc3c" />
    <path
       d="m 91.7463,100.2401 c 1.141,-0.024 2.282,-0.049 3.423,-0.073 0.205,-0.182 0.267,-0.356 0.186,-0.521 -0.08,-0.161 -0.156,-0.241 -0.23,-0.241 -1.605,-1.432 0.01,-3.9 -1.703,-5.297 -1.516,-0.111 -2.871,0.566 -4.301,0.873 -2.115,-0.222 -4.109,0.367 -6.108,0.917 -0.201,-0.003 -0.403,-0.006 -0.604,-0.01 -1.507,0.928 -4.279,-0.388 -4.624,2.604 2.764,3.18 6.323,1.306 9.544,1.434 1.48,0.059 3.018,-0.997 4.417,0.314"
       id="path137"
       inkscape:connector-curvature="0"
       style="fill:#391413" />
    <path
       d="m 83.013,95.8978 c 0.299,-1.878 3.803,-1.26 3.122,-3.376 -0.735,-2.28 -3.259,-1.898 -5.185,-1.817 -1.798,0.076 -4.732,-2.567 -5.003,1.812 0.312,1.134 0.624,2.268 0.937,3.403 2.073,2.288 4.121,1.306 6.166,-0.048 z"
       id="path139"
       inkscape:connector-curvature="0"
       style="fill:#381413" />
    <path
       d="m 111.6643,74.0246 c 0.263,-0.745 0.526,-1.49 0.79,-2.235 -0.273,-0.893 -0.933,-1.028 -1.735,-0.888 -4.024,1.035 -7.253,3.172 -9.41,6.793 3.742,3.534 5.717,3.551 7.719,0.064 0.242,-0.662 -2.805,-0.906 -0.209,-1.927 1.023,-0.403 2.044,-0.973 2.845,-1.807"
       id="path141"
       inkscape:connector-curvature="0"
       style="fill:#3e1715" />
    <path
       d="m 52.1314,62.0233 c 3.348,-1.344 6.498,-3.056 9.472,-5.094 -1.786,-1.617 -3.085,-3.841 -5.622,-4.53 0.019,1.921 2.616,2.71 2.234,4.826 -1.225,0.583 -1.549,-0.556 -2.194,-0.982 -1.423,-0.94 -2.703,-0.714 -3.956,0.329 -1.32,1.098 -0.999,2.241 -0.151,3.419 0.457,0.637 0.551,1.311 0.217,2.032"
       id="path143"
       inkscape:connector-curvature="0"
       style="fill:#c6bcb9" />
    <path
       d="m 112.3534,47.4344 c -4.842,3.014 -6.799,7.309 -5.744,12.941 2.272,-4.155 5.182,-8.027 5.744,-12.941"
       id="path145"
       inkscape:connector-curvature="0"
       style="fill:#6d1017" />
    <path
       d="m 63.0001,70.7473 c -1.189,0.883 -1.671,2.09 -1.621,3.541 0.648,1.372 1.16,2.85 2.742,3.489 0.217,0.055 0.429,0.041 0.637,-0.042 0.543,-2.173 2.078,-3.87 2.843,-5.941 -1.182,-1.902 -3.108,-0.52 -4.601,-1.047"
       id="path147"
       inkscape:connector-curvature="0"
       style="fill:#8b3f32" />
    <path
       d="m 92.479,74.4046 c -0.005,0.221 -0.051,0.432 -0.139,0.635 -0.313,1.127 -1.487,2.226 -0.231,3.423 1.495,1.424 3.049,0.845 4.581,0.02 0.133,-0.842 0.266,-1.683 0.399,-2.525 -1.271,-1.307 -2.701,-2.14 -4.61,-1.553"
       id="path149"
       inkscape:connector-curvature="0"
       style="fill:#b4a69e" />
    <path
       d="m 110.7193,70.9021 c 0.579,0.296 1.158,0.592 1.736,0.888 0.409,-0.683 1.042,-0.913 1.801,-0.884 0.321,-0.596 0.642,-1.192 0.964,-1.787 -2.362,-1.582 -3.491,-0.049 -4.501,1.783"
       id="path151"
       inkscape:connector-curvature="0"
       style="fill:#b4a298" />
    <path
       d="m 83.0499,95.872 c -2.051,0.536 -4.099,1.477 -6.165,0.047 0.007,0.96 -0.001,1.926 0.901,2.573 1.381,-1.625 4.342,-0.074 5.264,-2.62"
       id="path153"
       inkscape:connector-curvature="0"
       style="fill:#6d0e15" />
    <path
       d="m 73.6627,158.2883 c -0.41,-0.2 -0.82,-0.4 -1.232,-0.599 -0.321,0.096 -0.64,0.191 -0.961,0.286 -0.659,2.119 1.421,2.586 2.326,3.705 1.786,2.207 4.41,3.801 4.846,6.948 1.502,2.279 5.489,1.173 6.183,4.551 1.329,2.447 0.837,5.012 0.605,7.592 -0.189,2.097 -0.655,4.422 2.065,5.474 11.056,-5.594 20.153,-13.066 24.267,-25.315 -1.298,-1.54 -2.786,-2.945 -3.468,-4.918 -0.84,-1.415 -0.827,-3.13 -1.609,-4.57 -0.243,-0.398 -1.138,-0.22 -0.988,-0.361 1.393,-1.31 2.171,-2.912 2.611,-4.734 -0.003,-1.969 -0.199,-3.788 -2.881,-3.62 -1.728,2.019 -1.764,4.84 -3.41,6.948 -4.311,5.521 -10.382,6.882 -16.843,7.449 -3.842,0.337 -7.831,-0.775 -11.511,1.164"
       id="path155"
       inkscape:connector-curvature="0"
       style="fill:#e09226" />
    <path
       d="m 49.1557,167.115 c -0.301,0.898 -0.602,1.796 -0.904,2.693 -2.118,2.653 1.631,4.094 1.31,6.373 0.113,1.535 -1.564,2.181 -1.774,3.56 -0.045,2.073 1.692,2.094 2.984,2.472 4.601,1.347 9.055,2.88 12.037,7.019 0.412,0.571 1.206,0.752 1.971,0.64 7.8,-4.885 9.153,-7.933 6.895,-15.11 -0.783,-2.489 -2.084,-4.414 -4.669,-5.342 0.948,-1.92 2.882,-0.949 4.705,-1.952 -2.663,-2.955 -3.951,-6.812 -7.409,-9.082 -0.498,1.957 -2.016,2.185 -3.678,2.168 -2.66,-0.027 -5.183,0.447 -7.413,2.015 -1.605,1.289 -3.697,2.147 -4.055,4.546"
       id="path157"
       inkscape:connector-curvature="0"
       style="fill:#fefbec" />
    <path
       d="m 87.4949,186.2454 c -1.201,-1.795 -1.423,-3.797 -0.645,-5.718 1.184,-2.92 0.692,-5.56 -0.768,-8.168 -2.345,-2.332 -4.922,-4.239 -8.299,-2.236 -2.815,1.669 -3.251,4.551 -2.909,7.551 0.442,3.886 2.872,6.889 6.002,7.564 0.973,0.21 2.009,-0.196 2.952,0.304 2.929,5.458 5.842,10.924 7.126,17.069 1.219,0.309 1.91,-0.361 2.444,-1.317 -2.965,-4.623 -4.504,-9.809 -5.903,-15.049"
       id="path159"
       inkscape:connector-curvature="0"
       style="fill:#56954d" />
    <path
       d="m 64.7798,189.8716 c -3.593,-4.403 -8.191,-7.125 -13.719,-8.416 -1.047,-0.244 -2.88,0.1 -2.661,-2.007 0.983,-0.953 1.101,-2.436 2.077,-3.393 1.215,-2.779 -2.862,-3.674 -2.225,-6.247 l -0.427,-0.042 -0.412,0.12 c -2.734,2.756 -2.585,7.047 -5.253,9.831 -1.625,0.9 -3.733,1.18 -4.352,3.368 5.904,-0.116 11.991,-1.45 17.498,1.626 1.936,1.081 5.786,0.528 5.116,4.864 -0.085,0.551 2.739,1.504 4.358,0.296"
       id="path161"
       inkscape:connector-curvature="0"
       style="fill:#e0962c" />
    <path
       d="m 83.8282,185.5421 c -1.976,-1.686 -5.206,-1.317 -6.454,-4.349 -1.459,-3.543 -2.327,-6.992 0.666,-9.999 2.99,-3.003 5.49,-0.203 8.04,1.165 -1.584,-3.027 -4.244,-3.912 -7.438,-3.731 -4.974,2.579 -6.704,7.044 -4.712,12.161 1.735,4.459 5.124,6.086 9.898,4.753"
       id="path163"
       inkscape:connector-curvature="0"
       style="fill:#731118" />
    <path
       d="m 37.8081,183.086 c 1.837,-0.714 3.673,-1.427 5.51,-2.141 0.728,-2.048 1.228,-4.087 -0.266,-6.037 -1.137,-0.035 -1.59,-0.745 -1.737,-1.759 -2.896,-0.397 -2.459,2.23 -3.331,3.67 -0.407,2.059 -3.666,3.755 -0.794,6.235 0.211,-0.066 0.416,-0.056 0.618,0.032"
       id="path165"
       inkscape:connector-curvature="0"
       style="fill:#e4e1e0" />
    <path
       d="m 53.4343,163.7665 c 2.591,-1.995 5.645,-2.179 8.669,-1.871 3.465,0.353 3.805,-0.873 2.199,-3.509 l -0.28,0.069 c -0.863,-0.596 -0.79,-2.072 -2.113,-2.246 -0.403,-0.061 -0.798,-0.039 -1.197,0.039 -2.671,0.959 -5.227,2.157 -7.072,4.377 -0.714,0.859 -2.27,1.97 -0.206,3.141"
       id="path167"
       inkscape:connector-curvature="0"
       style="fill:#e0952f" />
    <path
       d="m 62.0994,156.7155 c 0.651,0.569 0.371,2.165 1.922,1.74 0.004,-1.443 0.007,-2.886 0.011,-4.329 -0.358,-0.342 -0.718,-0.684 -1.077,-1.027 -2.255,0.739 -1.667,2.151 -0.856,3.616"
       id="path169"
       inkscape:connector-curvature="0"
       style="fill:#c2553a" />
    <path
       d="m 107.0166,151.236 c -0.493,1.837 -3.102,4.239 1.277,4.775 1.206,-6.036 2.28,-12.11 4.928,-17.746 5.888,-2.201 8.937,-6.203 8.492,-12.725 -0.349,-5.108 -2.242,-7.006 -7.519,-6.929 -0.415,0.144 -0.749,0.409 -0.988,0.78 -0.296,1.906 2.856,2.175 2.053,4.326 -0.038,0.384 -0.042,0.765 -0.043,1.146 0.023,1.423 -0.403,2.905 -1.904,2.92 -1.618,0.015 -1.125,-1.689 -1.255,-2.741 -0.141,-1.148 -0.152,-2.312 -1.055,-3.206 -0.405,-0.187 -0.812,-0.194 -1.23,-0.052 -1.239,1.056 -1.77,2.491 -2.171,4 0.641,6.238 1.291,12.463 0.661,18.767 -0.191,1.912 -0.936,3.58 -1.36,5.377 -0.105,0.449 -0.067,0.885 0.114,1.308"
       id="path171"
       inkscape:connector-curvature="0"
       style="fill:#569950" />
    <path
       d="m 113.5302,119.2153 c 3.367,-0.309 6.028,0.541 6.848,4.278 1.057,4.811 -0.76,10.11 -4.161,11.831 -1.359,0.688 -3.212,0.71 -2.995,2.942 4.094,1.143 6.543,-1.065 8.541,-4.192 3.005,-2.326 3.135,-5.154 1.448,-8.299 l -0.228,-2.571 c -1.003,-2.566 -1.122,-5.955 -5.237,-5.621 l -2.499,0.153 c -0.537,0.534 -2.13,-0.158 -1.717,1.479"
       id="path173"
       inkscape:connector-curvature="0"
       style="fill:#efa00b" />
    <path
       d="m 123.2112,125.7754 c -0.071,2.838 -0.407,5.629 -1.446,8.299 0.859,0.084 1.703,0.206 2.252,0.994 0.258,-0.321 0.516,-0.641 0.775,-0.961 -0.016,-0.228 -0.032,-0.456 -0.046,-0.684 0.521,-2.422 2.021,-4.321 3.363,-6.305 0.013,-0.252 0.023,-0.503 0.03,-0.754 -0.417,-0.536 -0.857,-0.556 -1.319,-0.057 -1.266,0.249 -2.495,0.25 -3.609,-0.532"
       id="path175"
       inkscape:connector-curvature="0"
       style="fill:#745f4f" />
    <path
       d="m 129.3057,138.4128 c -3.465,0.231 -3.093,2.108 -2.515,3.932 0.201,0.636 0.985,1.271 1.704,0.857 1.563,-0.9 0.065,-1.054 -0.433,-1.532 -1.69,-1.621 0.528,-1.961 1.244,-3.257"
       id="path177"
       inkscape:connector-curvature="0"
       style="fill:#cacaca" />
    <path
       d="m 98.6543,120.0051 c -5.325,-0.579 -9.646,1.239 -12.97,5.435 -1.662,1.463 -3.367,0.664 -5.067,0.097 3.103,-2.53 6.216,-5.048 9.304,-7.596 1.11,-0.917 2.521,-1.934 1.325,-3.542 -1.056,-1.422 -2.054,0.069 -2.947,0.537 -6.626,3.472 -13.219,7.003 -19.823,10.515 -1.314,2.919 1.179,3.389 2.849,4.029 1.433,0.549 3.093,0.565 4.662,0.671 6.518,0.651 8.513,2.501 8.262,7.685 -0.799,1.456 -2.1,2.742 -1.583,4.643 4.03,3.1 7.099,-0.173 10.451,-1.568 1.482,-1.937 -0.442,-2.76 -1.351,-3.817 -1.605,-1.864 -3.182,-3.671 -2.353,-6.399 2.244,-7.009 6.809,-8.664 12.679,-4.64 0.922,0.633 1.785,2.268 3.206,0.61 -0.029,-5.186 -2.179,-7.336 -6.644,-6.66"
       id="path179"
       inkscape:connector-curvature="0"
       style="fill:#6f0f16" />
    <path
       d="m 98.6543,120.0051 c 3.909,0.803 5.75,3.396 6.215,7.18 0.294,0.269 0.642,0.411 1.036,0.444 0.385,-0.053 0.73,-0.204 1.034,-0.446 0.546,-0.472 0.608,-1.385 1.449,-1.594 1.622,-0.684 1.483,-2.099 1.442,-3.474 -0.751,-2.166 2.712,-3.643 0.977,-5.976 -4.167,-2.739 -8.862,-4.042 -13.672,-4.994 -1.257,-0.249 -2.608,-0.43 -3.511,0.902 -0.014,0.286 0.021,0.584 -0.048,0.856 -1.102,4.371 -0.09,7.219 5.078,7.102"
       id="path181"
       inkscape:connector-curvature="0"
       style="fill:#e3e3e3" />
    <path
       d="m 59.487,134.1531 c 1.395,-0.794 1.06,-2.469 1.827,-3.584 0.33,-2.119 1.937,-2.306 3.613,-2.389 4.029,0.403 2.768,-2.333 2.618,-4.41 -5.454,-3.499 -8.36,-9.239 -12.342,-14.033 -1.989,-0.07 -1.759,1.335 -1.731,2.605 1.104,2.45 2.434,4.774 4.446,7.001 -3.753,1.247 -7.255,-2.985 -10.364,0.513 1.824,0.39 3.663,0.723 5.47,1.183 6.989,1.782 7.292,2.286 6.131,9.535 -0.194,1.211 -0.995,2.5 0.332,3.579"
       id="path183"
       inkscape:connector-curvature="0"
       style="fill:#6e0f15" />
    <path
       d="m 93.6242,112.0466 c 6.086,0.312 11.53,2.937 17.191,4.778 0.943,1.39 2.046,1.949 3.502,0.674 -0.926,-1.372 -3.911,-1.463 -2.624,-4.213 -4.881,-4.029 -10.448,-6.311 -16.799,-6.601 -1.102,3.635 -4.826,2.511 -7.144,3.936 1.958,0.475 3.916,0.951 5.874,1.426"
       id="path185"
       inkscape:connector-curvature="0"
       style="fill:#457439" />
    <path
       d="m 67.5451,123.7697 c -0.525,1.677 0.107,4.04 -2.618,4.41 -0.503,3.27 -0.204,5.511 4.048,3.627 1.367,-0.606 2.985,-0.648 4.488,-0.949 1.848,0.66 3.837,1.576 3.401,-1.885 -3.279,-0.022 -6.732,0.371 -8.388,-3.52 -0.31,-0.562 -0.621,-1.122 -0.931,-1.683"
       id="path187"
       inkscape:connector-curvature="0"
       style="fill:#f19a09" />
    <path
       d="m 80.6173,125.5373 c 1.71,1.066 3.448,3.593 5.067,-0.098 -1.689,0.033 -3.378,0.066 -5.067,0.098"
       id="path189"
       inkscape:connector-curvature="0"
       style="fill:#da7a0e" />
    <path
       d="m 53.4716,112.3418 1.731,-2.604 c -0.113,-0.87 -0.363,-1.967 -1.451,-1.25 -1.536,1.013 -1.726,2.456 -0.28,3.854"
       id="path191"
       inkscape:connector-curvature="0"
       style="fill:#e9900a" />
    <path
       d="m 29.9182,166.0692 c -2.976,3.31 -1.67,7.866 -3.736,11.453 1.828,0.613 1.912,-0.759 2.451,-1.449 1.871,-2.396 2.949,-6.34 7.342,-3.644 l 0.309,-0.798 c 0.183,-4.232 -1.911,-6.063 -6.366,-5.562"
       id="path193"
       inkscape:connector-curvature="0"
       style="fill:#7a1a1d" />
    <path
       d="m 29.9182,166.0692 c 3.136,0.69 5.381,2.4 6.365,5.559 0.462,0.306 0.922,0.609 1.383,0.912 1.376,-0.414 1.85,-1.34 1.54,-2.71 -0.617,-2.771 -1.949,-5.114 -4.333,-6.711 -1.465,-0.98 -3.059,-1.743 -4.703,-0.236 -0.587,1.022 -1.653,2.007 -0.252,3.186"
       id="path195"
       inkscape:connector-curvature="0"
       style="fill:#b5bfbf" />
    <path
       d="m 38.7414,166.2154 c 0.009,-1.4 0.017,-2.799 0.026,-4.199 -1.463,-2.07 -3.016,-3.92 -5.936,-2.429 -0.323,0.476 -0.647,0.953 -0.97,1.43 1.883,2.276 4.217,3.955 6.88,5.198"
       id="path197"
       inkscape:connector-curvature="0"
       style="fill:#b3b7b7" />
    <path
       d="m 32.8314,159.5869 c 2.346,-0.088 3.942,1.656 5.936,2.429 0.498,-0.884 0.996,-1.768 1.495,-2.652 -2.82,0.455 -4.586,-1.488 -6.591,-2.893 -1.165,0.8 -2.437,1.572 -0.84,3.116"
       id="path199"
       inkscape:connector-curvature="0"
       style="fill:#781f25" />
    <path
       d="m 38.7414,166.2154 c -1.806,-2.378 -4.252,-3.908 -6.88,-5.197 -0.82,0.39 -1.472,0.932 -1.692,1.865 4.725,0.005 6.829,3.329 8.741,6.897 0.359,0.208 0.66,0.132 0.91,-0.188 -0.36,-1.126 -0.719,-2.251 -1.079,-3.377"
       id="path201"
       inkscape:connector-curvature="0"
       style="fill:#894a4d" />
    <path
       d="m 39.82,169.5923 c -0.303,0.063 -0.607,0.126 -0.91,0.188 -0.413,0.918 -0.826,1.836 -1.242,2.757 -1.063,1.516 0.226,2.855 0.316,4.282 1.111,-1.224 2.221,-2.447 3.331,-3.67 0.013,-1.401 -0.33,-2.651 -1.495,-3.557"
       id="path203"
       inkscape:connector-curvature="0"
       style="fill:#7a1a1d" />
    <path
       d="m 53.4343,163.7665 c -0.6,-2.846 2.117,-3.155 3.508,-4.368 1.274,-1.11 2.946,-1.764 4.442,-2.618 -1.589,-4.669 -5.662,-5.445 -9.739,-6.216 -3.823,5.066 -5.209,10.5 -2.49,16.55 1.427,-1.116 2.853,-2.232 4.279,-3.348"
       id="path205"
       inkscape:connector-curvature="0"
       style="fill:#e5e4e3" />
    <path
       d="m 51.6457,150.564 c 2.929,2.569 7.112,3.174 9.739,6.216 0.243,0.026 0.482,0.004 0.715,-0.065 0.232,-1.217 -0.766,-2.727 0.857,-3.615 -2.647,-1.32 -5.307,-2.61 -7.931,-3.971 -1.764,-0.915 -2.976,-0.749 -3.38,1.435"
       id="path207"
       inkscape:connector-curvature="0"
       style="fill:#c2c1c3" />
    <path
       d="m 43.0521,174.9078 c 0.088,2.013 0.177,4.026 0.266,6.038 2.796,-3.157 2.165,-7.582 4.094,-11.059 -2.142,1.075 -2.918,3.338 -4.36,5.021"
       id="path209"
       inkscape:connector-curvature="0"
       style="fill:#882f2e" />
    <path
       d="m 114.0291,93.2482 c 0.15,-1.096 0.301,-2.192 0.451,-3.289 -2.159,-3.201 -5.963,-3.173 -9.025,-4.601 -3.36,-0.618 -5.995,0.352 -7.643,3.486 -1.429,2.813 -0.72,5.825 -0.813,8.762 0.46,0.518 1.045,0.748 1.729,0.754 2.139,-0.446 3.877,-1.833 5.919,-2.513 2.794,-2.071 6.683,-0.202 9.382,-2.599"
       id="path211"
       inkscape:connector-curvature="0"
       style="fill:#371514" />
    <path
       d="m 96.69,78.4827 c -2.628,0.34 -4.971,0.319 -4.35,-3.444 -3.164,2.371 -6.735,3.351 -10.672,3.443 -1.814,0.042 -3.591,0.707 -5.1,1.853 0.332,0.954 1.438,0.975 1.997,1.655 0.891,1.201 1.783,2.402 2.674,3.603 2.364,1.745 4.232,-0.29 5.62,-1.341 3.081,-2.333 7.771,-1.841 9.831,-5.769"
       id="path213"
       inkscape:connector-curvature="0"
       style="fill:#b53523" />
    <path
       d="m 89.1211,94.9814 c 1.914,2.076 3.134,0.732 4.301,-0.873 0.632,-1.14 1.167,-2.38 0.868,-3.654 -0.304,-1.299 1.658,-3.281 -0.212,-3.676 -2.09,-0.442 -1.27,1.959 -1.564,3.166 -0.294,1.21 -1.097,1.606 -2.182,1.577 -4.056,-0.108 -2.4,1.751 -1.211,3.46"
       id="path215"
       inkscape:connector-curvature="0"
       style="fill:#b03222" />
    <path
       d="m 98.8406,97.5359 c -0.615,0.024 -1.229,0.047 -1.843,0.071 -0.623,0.598 -1.247,1.198 -1.872,1.797 -0.008,0.256 0.007,0.51 0.044,0.763 0.059,0.306 0.118,0.611 0.176,0.917 0.303,1.002 0.998,1.319 1.979,1.139 4.006,-1.144 7.934,-1.096 11.752,0.756 1.025,0.497 2.03,1.159 3.265,0.687 0.076,-0.847 0.151,-1.693 0.227,-2.539 -3.724,-4.454 -8.757,-3.905 -13.728,-3.591"
       id="path217"
       inkscape:connector-curvature="0"
       style="fill:#945721" />
    <path
       d="m 111.6643,74.0246 c -2.504,0.089 -4.724,0.756 -6.375,2.908 1.215,1.23 2.581,0.512 3.74,0.825 1.391,-0.881 2.165,-2.2 2.635,-3.733"
       id="path219"
       inkscape:connector-curvature="0"
       style="fill:#a73324" />
    <path
       d="m 97.8116,88.8438 c 2.477,-1.319 4.611,-3.388 7.644,-3.485 -5.128,-1.658 -6.614,-0.98 -7.644,3.485"
       id="path221"
       inkscape:connector-curvature="0"
       style="fill:#a93021" />
    <path
       d="m 126.8203,126.3077 c 0.44,0.019 0.88,0.037 1.32,0.056 0.586,-0.341 1.173,-0.682 1.759,-1.023 1.161,-0.99 2.652,-1.716 2.809,-3.507 -0.029,-2.287 -0.307,-4.685 -3.317,-4.357 -2.745,0.3 -2.588,2.727 -2.254,4.726 0.242,1.447 0.012,2.755 -0.317,4.105"
       id="path223"
       inkscape:connector-curvature="0"
       style="fill:#391716" />
    <path
       d="m 128.1088,127.118 c -2.082,1.587 -3.582,3.486 -3.363,6.303 1.271,-2.02 2.891,-3.855 3.363,-6.303"
       id="path225"
       inkscape:connector-curvature="0"
       style="fill:#762123" />
    <path
       d="m 5.4509,191.8853 c 3.672,-2.48 17.81,-22.387 17.24,-25.755 -6.08,8.349 -12.159,16.697 -18.238,25.046 0.333,0.236 0.665,0.473 0.998,0.709"
       id="path227"
       inkscape:connector-curvature="0"
       style="fill:#b5321d" />
    <path
       d="m 173.3166,88.9043 c 1.534,-0.756 4.973,1.804 5.231,-2.555 0.153,-2.579 -1.615,-3.027 -3.376,-2.53 -2.237,0.632 -5.846,-0.886 -6.351,2.836 -0.442,3.258 2.287,2.324 4.496,2.249"
       id="path229"
       inkscape:connector-curvature="0"
       style="fill:#426380" />
    <path
       d="m 117.7458,117.5837 c 2.543,1.128 3.847,3.412 5.238,5.618 0.237,-3.721 0.558,-7.431 1.796,-10.992 -0.019,-0.303 -0.039,-0.604 -0.06,-0.909 -3.068,1.268 -4.96,3.844 -6.974,6.283"
       id="path231"
       inkscape:connector-curvature="0"
       style="fill:#6b5845" />
    <path
       d="m 97.0276,101.7097 c -0.562,-0.208 -1.123,-0.417 -1.683,-0.625 -1.203,1.784 0.223,3.778 -0.447,5.603 5.597,2.197 11.196,4.397 16.796,6.597 0.29,-0.042 0.58,-0.085 0.869,-0.127 -0.329,-0.628 -0.659,-1.256 -0.988,-1.884 -3.419,-5.362 -7.395,-9.879 -14.547,-9.564"
       id="path233"
       inkscape:connector-curvature="0"
       style="fill:#e2e2e1" />
    <path
       d="m 97.0276,101.7097 c 5.979,1.469 10.045,5.848 14.547,9.564 0.256,-2.535 0.511,-5.071 0.767,-7.607 -3.683,-3.659 -8.246,-3.951 -13.033,-3.428 -1.025,0.112 -1.991,0.249 -2.281,1.471"
       id="path235"
       inkscape:connector-curvature="0"
       style="fill:#3c1917" />
    <path
       d="m 98.8406,97.5359 c 0.063,0.521 -0.85,1.806 0.271,1.448 4.922,-1.572 9.096,0.71 13.457,2.142 0.866,-1.702 0.801,-3.573 0.978,-5.401 0.597,-1.638 -0.405,-1.888 -1.678,-2.006 -2.836,-0.264 -5.496,0.47 -8.142,1.327 -1.968,0.163 -3.337,1.503 -4.886,2.49"
       id="path237"
       inkscape:connector-curvature="0"
       style="fill:#3a1816" />
    <path
       d="m 103.727,95.0456 c 1.816,-0.282 3.629,-0.766 5.448,-0.785 1.533,-0.016 3.56,-0.884 4.372,1.468 0.621,-0.74 0.528,-1.615 0.482,-2.481 -3.534,0.029 -7.17,-0.53 -10.302,1.798"
       id="path239"
       inkscape:connector-curvature="0"
       style="fill:#8d551d" />
    <path
       d="m 93.6509,140.2957 c -2.278,-0.192 -4.13,1.132 -6.191,1.707 -1.494,0.417 -3.093,1.865 -4.585,-0.063 -1.428,0.209 -1.275,1.052 -0.811,2.02 2.213,2.112 2.063,3.6 -0.935,4.882 -2.422,1.035 -4.231,2.929 -5.219,5.47 1.146,2.631 3.59,1.679 5.211,1.342 3.473,-0.722 7.098,-0.669 9.946,-1.811 -4.86,1.656 -10.607,1.279 -16.036,2.72 -0.456,0.576 -0.912,1.151 -1.368,1.726 6.161,0.078 12.327,0.364 18.441,-0.798 7.977,-1.516 12.864,-6.675 13.564,-14.415 -0.937,-3.363 -4.014,-3.067 -6.488,-3.809 -1.92,-0.091 -3.776,0.198 -5.529,1.029"
       id="path241"
       inkscape:connector-curvature="0"
       style="fill:#e5e4e4" />
    <path
       d="m 82.0635,143.9598 c 0.047,-0.763 0.121,-1.515 0.811,-2.02 0.946,-1.21 1.893,-2.42 2.839,-3.63 0.721,-2.355 -1.161,-2.83 -2.549,-2.78 -3.884,0.139 -7.045,-1.258 -9.873,-3.725 -1.365,0.674 -4.313,-0.666 -3.932,1.95 0.302,2.074 -3.667,4.941 0.91,6.296 4.502,-0.42 7.955,2.327 11.794,3.909"
       id="path243"
       inkscape:connector-curvature="0"
       style="fill:#fbf7e7" />
    <path
       d="m 75.0308,156.563 c 10.518,0.513 17.492,-1.162 21.35,-5.542 -7.019,2.268 -13.506,4.495 -20.469,3.287 -0.803,0.556 -0.693,1.464 -0.881,2.255"
       id="path245"
       inkscape:connector-curvature="0"
       style="fill:#e09b3b" />
    <path
       d="m 114.3168,117.4991 c -1.262,0.263 -2.375,-0.249 -3.503,-0.675 -0.012,1.02 -0.71,1.54 -1.494,1.943 -3.186,1.638 -0.614,2.377 0.51,3.347 0.326,-0.044 0.653,-0.089 0.979,-0.133 1.235,-0.06 2.106,-0.635 2.558,-1.804 0.054,-0.321 0.108,-0.641 0.163,-0.962 0.573,-0.493 1.145,-0.987 1.717,-1.479 l -0.93,-0.237"
       id="path247"
       inkscape:connector-curvature="0"
       style="fill:#70624e" />
    <path
       d="m 55.4507,128.2947 c -0.431,-2.084 -0.954,-4.294 -3.366,-4.427 -1.689,-0.094 -3.701,0.991 -3.568,3.001 0.207,3.11 3.657,1.931 5.386,3.268 1.022,0.791 1.293,-0.953 1.548,-1.842"
       id="path249"
       inkscape:connector-curvature="0"
       style="fill:#b13724" />
    <path
       d="m 175.8282,98.3531 c -0.73,-0.888 -0.129,-2.506 -2.059,-2.385 -1.626,0.102 -1.188,1.22 -1.51,2.074 -0.639,1.698 1.02,2.236 1.682,2.314 0.844,0.099 1.528,-1.066 1.887,-2.003"
       id="path251"
       inkscape:connector-curvature="0"
       style="fill:#e3e7ec" />
    <path
       d="m 73.2917,131.8053 c 1.052,4.235 3.858,5.273 7.929,4.836 1.43,-0.153 3.906,-1.231 4.492,1.67 1.111,-5.663 -2.002,-8.947 -8.848,-9.338 -0.234,2.253 -2.196,1.385 -3.402,1.884 l -0.171,0.948"
       id="path253"
       inkscape:connector-curvature="0"
       style="fill:#b83c26" />
    <path
       d="m 191.6284,97.8367 c -0.032,-1.608 -0.059,-3.366 -2.176,-3.491 -1.572,-0.092 -2.116,1.163 -2.157,2.593 -0.054,1.881 0.546,3.593 2.574,3.739 1.699,0.122 1.659,-1.57 1.759,-2.841"
       id="path255"
       inkscape:connector-curvature="0"
       style="fill:#293c55" />
    <path
       d="m 67.6708,72.5933 c -3.702,0.166 -4.24,2.125 -2.914,5.141 0.974,0.504 1.947,1.008 3.462,1.792 -0.947,-2.279 -0.542,-3.619 1.712,-3.75 0.486,-1.941 -0.009,-3.186 -2.26,-3.183"
       id="path257"
       inkscape:connector-curvature="0"
       style="fill:#dac2b9" />
    <path
       d="m 67.6708,72.5933 c 1.39,0.609 1.607,2.051 2.26,3.183 0.467,0.672 0.934,1.344 1.493,2.151 1.757,-2.153 0.617,-3.949 -0.91,-5.431 -2.086,-2.026 -4.392,-3.84 -7.513,-1.75 1.194,1.532 3.569,0.078 4.67,1.847"
       id="path259"
       inkscape:connector-curvature="0"
       style="fill:#ca7b0a" />
    <path
       d="m 78.5647,81.9901 c -0.201,-1.102 -0.871,-1.645 -1.99,-1.657 -1.216,0.426 -3.333,0.394 -2.381,2.398 0.746,1.568 1.806,-0.131 2.725,-0.492 0.504,-0.197 1.094,-0.173 1.646,-0.249"
       id="path261"
       inkscape:connector-curvature="0"
       style="fill:#3a1513" />
    <path
       d="m 98.5567,140.147 c 2.279,1.197 5.229,0.761 7.111,2.927 2.162,0.931 1.692,2.73 1.468,4.447 -0.251,1.114 -0.879,2.268 0.334,3.231 3.121,-8.286 3.329,-16.679 0.916,-25.165 -2.619,-2.27 -1.661,0.585 -2.086,1.46 -2.037,1.876 0.156,5.021 -2.065,6.836 -1.466,0.99 -3.001,1.876 -4.347,3.035 -0.834,0.915 -1.777,1.788 -1.331,3.229"
       id="path263"
       inkscape:connector-curvature="0"
       style="fill:#6c5444" />
    <path
       d="m 107.4693,150.7523 c -0.111,-1.078 -0.222,-2.157 -0.333,-3.233 -1.588,2.121 -3.175,4.24 -4.763,6.36 0.13,0.146 0.26,0.292 0.39,0.439 1.414,-1.024 2.827,-2.048 4.247,-3.077 0.164,-0.159 0.315,-0.32 0.459,-0.489"
       id="path265"
       inkscape:connector-curvature="0"
       style="fill:#e2ba86" />
    <path
       d="m 63.3997,185.4448 c 1.155,-0.195 2.585,-0.311 3.938,-0.698 1.405,-0.403 1.409,-0.579 -0.008,-1.754 -0.798,-0.662 -0.174,-1.256 -0.094,-1.87 0.247,-1.913 0.067,-3.779 -1.094,-5.342 -1.198,-1.611 -2.845,-1.732 -3.823,0.037 -1.719,3.109 -0.538,6.388 0.039,9.589 0.113,0.622 0.469,0.452 1.042,0.038"
       id="path267"
       inkscape:connector-curvature="0"
       style="fill:#452624" />
    <path
       d="m 61.1115,165.5957 c -0.266,-1.218 -1.227,-1.164 -2.032,-1.01 -1.416,0.271 -3.052,0.702 -3.286,2.309 -0.211,1.446 1.164,1.33 2.161,1.16 1.475,-0.252 2.705,-0.884 3.157,-2.459"
       id="path269"
       inkscape:connector-curvature="0"
       style="fill:#cf967a" />
    <path
       d="m 50.4771,176.0554 c -0.559,0.041 -0.371,-1.871 -1.119,-0.645 -0.685,1.124 -0.668,2.675 -0.959,4.038 2.155,-0.236 2.924,-1.32 2.078,-3.393"
       id="path271"
       inkscape:connector-curvature="0"
       style="fill:#6d5045" />
    <path
       d="m 83.8727,174.6989 c -0.119,-1.369 -0.622,-2.634 -2.102,-2.739 -1.268,-0.09 -1.453,1.098 -1.406,2.128 0.055,1.204 0.47,2.282 1.819,2.471 1.327,0.187 1.642,-0.764 1.689,-1.86"
       id="path273"
       inkscape:connector-curvature="0"
       style="fill:#eb9f0a" />
    <path
       d="m 113.3666,120.1768 c -1.214,0.087 -2.06,0.698 -2.557,1.803 -0.003,1.003 -0.076,2.012 0.007,3.007 0.154,1.856 -0.641,4.755 2.404,4.432 2.162,-0.23 4.256,-1.892 3.234,-4.911 -0.545,-0.12 -1.576,0.171 -1.573,-0.131 0.009,-1.073 1.018,-0.459 1.58,-0.657 1.068,-3.015 -0.818,-3.45 -3.095,-3.543"
       id="path275"
       inkscape:connector-curvature="0"
       style="fill:#477737" />
    <path
       d="m 116.4621,123.7199 c -0.696,-1.571 -1.652,-2.553 -3.128,-0.853 -1.052,1.21 -1.293,2.865 0.225,3.723 1.938,1.096 2.251,-0.908 2.895,-2.081 -0.083,-0.264 -0.081,-0.527 0.008,-0.789"
       id="path277"
       inkscape:connector-curvature="0"
       style="fill:#e99e0b" />
    <path
       d="m 100.4009,137.6624 c 1.443,-0.915 2.886,-1.83 4.329,-2.746 2.002,-2.403 1.655,-5.01 0.668,-7.673 l -0.261,-0.068 c 0,0 -0.269,0.009 -0.268,0.01 -2.662,-2.662 -4.939,-6.091 -9.621,-4.515 -3.935,1.324 -6.814,3.502 -6.962,8.067 2.047,3.106 5.253,2.516 8.243,2.611 1.883,-0.156 1.746,1.273 1.911,2.465 0.363,0.927 0.536,2.058 1.961,1.849"
       id="path279"
       inkscape:connector-curvature="0"
       style="fill:#b63523" />
    <path
       d="m 100.4009,137.6624 c -0.8,-0.681 -0.927,-1.594 -0.886,-2.565 -0.828,-0.925 -1.493,-1.999 -2.506,-2.755 -3.011,0.023 -5.924,-0.482 -8.723,-1.605 -1.444,4.998 2.249,7.114 5.363,9.558 1.679,1.327 3.282,0.207 4.908,-0.148 0.615,-0.829 1.229,-1.657 1.844,-2.485"
       id="path281"
       inkscape:connector-curvature="0"
       style="fill:#f59f08" />
    <path
       d="m 74.0592,127.5667 c 0.94,0.068 1.517,-0.436 1.663,-1.16 0.197,-0.974 -0.343,-1.664 -1.354,-1.812 -0.835,-0.123 -1.433,0.349 -1.588,1.121 -0.206,1.02 0.435,1.575 1.279,1.851"
       id="path283"
       inkscape:connector-curvature="0"
       style="fill:#d77f0a" />
    <path
       d="m 105.3974,127.2433 c 0.671,2.636 -0.15,5.142 -0.667,7.674 1.488,-0.114 2.339,-0.636 2.042,-2.405 -0.303,-1.797 -0.326,-3.642 -0.472,-5.466 -0.301,0.066 -0.602,0.131 -0.903,0.197"
       id="path285"
       inkscape:connector-curvature="0"
       style="fill:#b3a09d" />
    <path
       d="m 97.0085,132.3424 c -0.763,2.374 0.572,2.837 2.507,2.754 -0.038,-1.644 0.34,-3.666 -2.507,-2.754"
       id="path287"
       inkscape:connector-curvature="0"
       style="fill:#6f1312" />
  </g>
</svg>
