<?xml version="1.0" encoding="UTF-8" standalone="no"?>
<svg
   xmlns:dc="http://purl.org/dc/elements/1.1/"
   xmlns:cc="http://creativecommons.org/ns#"
   xmlns:rdf="http://www.w3.org/1999/02/22-rdf-syntax-ns#"
   xmlns:svg="http://www.w3.org/2000/svg"
   xmlns="http://www.w3.org/2000/svg"
   xmlns:sodipodi="http://sodipodi.sourceforge.net/DTD/sodipodi-0.dtd"
   xmlns:inkscape="http://www.inkscape.org/namespaces/inkscape"
   viewBox="144 324 545 105.88511"
   version="1.1"
   id="svg10"
   sodipodi:docname="logo.svg"
   width="545"
   height="105.88511"
   inkscape:version="0.92.4 5da689c313, 2019-01-14">
  <metadata
     id="metadata16">
    <rdf:RDF>
      <cc:Work
         rdf:about="">
        <dc:format>image/svg+xml</dc:format>
        <dc:type
           rdf:resource="http://purl.org/dc/dcmitype/StillImage" />
      </cc:Work>
    </rdf:RDF>
  </metadata>
  <defs
     id="defs14" />
  <sodipodi:namedview
     pagecolor="#ffffff"
     bordercolor="#666666"
     borderopacity="1"
     objecttolerance="10"
     gridtolerance="10"
     guidetolerance="10"
     inkscape:pageopacity="0"
     inkscape:pageshadow="2"
     inkscape:window-width="471"
     inkscape:window-height="442"
     id="namedview12"
     showgrid="false"
     inkscape:zoom="0.49954215"
     inkscape:cx="271.24838"
     inkscape:cy="52.942556"
     inkscape:window-x="0"
     inkscape:window-y="0"
     inkscape:window-maximized="0"
     inkscape:current-layer="svg10" />
  <path
     d="m 179.96664,325.24884 c -3.86309,1.26549 -8.59203,3.66327 -13.25437,6.59388 -1.86494,1.19889 -4.19611,2.13136 -5.19519,2.13136 -4.26271,0 -11.32283,6.72709 -15.25251,14.58647 L 144,352.95647 v 10.98981 c 0,9.19147 0.19981,11.38943 1.19889,13.25437 0.59944,1.26549 1.13228,2.59759 1.13228,3.06382 0,1.53191 4.39592,9.05827 7.19333,12.32191 3.59666,4.1961 7.65956,6.19425 11.38943,5.59481 1.99815,-0.33303 3.06383,-0.19982 3.92969,0.53283 5.4616,4.79556 20.4477,6.66049 31.43751,3.86309 8.39221,-2.06475 13.45418,-4.26271 14.12023,-6.06105 l 0.59945,-1.59851 1.4653,1.99814 c 4.12951,5.72802 7.25993,7.32654 10.59018,5.395 1.66512,-0.99907 2.39777,-1.06568 5.12857,-0.39963 1.73173,0.39963 9.5245,0.79926 17.45048,0.86586 14.32005,0.13321 14.38666,0.13321 16.78443,-1.53191 3.26364,-2.19796 3.39685,-4.99537 0.33303,-8.85845 -1.19889,-1.53191 -2.7308,-3.92969 -3.39685,-5.39499 -1.66512,-3.66327 -3.13043,-13.5874 -3.13043,-20.91394 0,-5.5282 0.13321,-6.19425 1.13228,-5.99444 1.06568,0.19982 8.72524,9.5245 8.79185,10.65678 0.0666,0.26642 1.3321,2.26457 2.93061,4.32932 1.53192,2.13136 3.13043,4.46253 3.59667,5.19518 0.46623,0.73266 3.39685,5.52821 6.46067,10.72339 6.39407,10.59017 8.39222,12.92135 11.05641,12.92135 2.53099,0 7.06012,-4.72895 9.99073,-10.45697 1.2655,-2.46438 3.46346,-6.46067 4.86216,-8.79185 1.3987,-2.33117 3.99629,-7.45974 5.86123,-11.32283 3.79648,-7.99258 7.19333,-13.38758 8.45882,-13.38758 1.06568,0 0.99907,1.79833 -0.13321,2.19796 -0.46623,0.19982 -1.06568,1.3321 -1.26549,2.59759 -0.19982,1.19889 -0.66605,3.53006 -1.13229,5.19519 -0.39963,1.66512 -0.66605,5.39499 -0.53284,8.32561 0.33303,6.79369 2.5976,11.72246 7.72617,16.3848 3.13043,2.86401 3.92969,3.26364 6.46067,3.26364 1.59852,0 3.13043,0.33302 3.33025,0.66605 0.73265,1.13228 5.79462,3.46345 9.65771,4.39592 10.45696,2.53098 20.84733,-0.59945 26.44214,-7.92598 1.13228,-1.53192 3.06382,-5.32839 4.26271,-8.39222 l 2.19796,-5.59481 -2.53099,-2.19796 -2.46438,-2.13136 2.53099,-2.33117 c 2.53098,-2.33117 2.53098,-2.39777 2.46438,-7.32653 -0.0666,-4.46253 -0.33303,-5.26179 -2.46438,-8.52543 -1.3321,-1.99815 -2.79741,-4.0629 -3.26364,-4.66234 -1.3987,-1.73173 -7.32654,-5.26179 -8.79185,-5.26179 -0.79925,0 -3.46345,-1.06568 -5.99443,-2.33117 -7.85938,-3.92969 -12.78814,-3.13043 -23.31171,3.79648 -3.26364,2.19796 -6.26086,3.79648 -6.7271,3.59666 -0.46623,-0.13321 -0.99907,-1.59851 -1.19889,-3.13043 -0.59944,-4.72894 -0.19981,-4.66234 -19.58183,-4.86215 -6.99351,-0.0666 -7.52635,0 -9.12487,1.53191 -2.59759,2.46438 -2.46438,7.19333 0.26642,10.25715 1.99815,2.33117 2.59759,4.66234 1.26549,5.4616 -0.33302,0.26642 -0.93247,1.19889 -1.26549,2.06475 -1.06568,2.79741 -2.93061,1.93155 -5.19518,-2.39777 l -2.13136,-3.99629 1.39871,-2.7308 c 1.33209,-2.39778 1.33209,-2.93062 0.59944,-5.3284 -1.59852,-4.79555 -1.53191,-4.72894 -18.44955,-4.99536 l -15.05271,-0.19982 -2.33117,2.33117 c -2.33117,2.33118 -3.72987,2.79741 -4.46252,1.59852 -0.93247,-1.53191 -5.99444,-3.39685 -11.12302,-4.0629 -10.39036,-1.3987 -20.71412,1.39871 -24.64381,6.7271 -2.59759,3.59666 -2.86401,2.7308 -2.99722,-8.92506 0,-6.72709 -0.33302,-11.38943 -0.79925,-12.3219 -0.86587,-1.59852 -4.59574,-3.66327 -9.99074,-5.4616 -4.99536,-1.66512 -20.04807,-1.66512 -25.04343,0 z m 24.04436,4.52913 c 6.32746,2.26457 6.12765,1.66512 6.39407,14.51987 l 0.19981,11.32283 -1.79833,0.19981 c -2.33117,0.26642 -4.52913,-1.93154 -4.52913,-4.46253 0,-4.59573 -6.46067,-12.18869 -11.58925,-13.7206 -6.19425,-1.86494 -11.38944,-0.99908 -16.45141,2.7308 -3.86308,2.7974 -6.32746,6.32746 -8.32561,11.92227 -1.33209,3.72988 -1.59851,5.59481 -1.59851,12.65493 0,7.32654 0.19981,8.72524 1.59851,11.78906 0.86587,1.93155 2.59759,4.52914 3.86309,5.79463 3.39685,3.39685 10.19054,7.25993 14.32005,8.05919 6.06104,1.26549 8.99166,0.26642 16.98424,-5.79463 2.19796,-1.66512 4.46253,-2.86401 5.4616,-2.86401 h 1.73173 v 13.12117 l -2.46438,1.06567 c -9.5245,4.12951 -26.37554,4.32932 -33.50226,0.33303 -2.46438,-1.3321 -5.5282,-3.39685 -6.52728,-4.32932 -1.19888,-1.13228 -3.53006,-1.06568 -5.19518,0.13321 -1.26549,0.86586 -1.53191,0.73265 -3.39685,-1.19889 -3.59666,-3.86308 -7.65956,-11.45604 -8.99166,-16.78443 -1.13228,-4.39592 -1.3987,-13.654 -0.53283,-18.64936 0.86586,-4.86216 2.93061,-8.99166 7.12672,-14.18684 2.53098,-3.06383 3.99629,-3.46346 5.66141,-1.53192 1.53191,1.79834 3.79648,1.06568 4.32932,-1.33209 0.26642,-1.39871 1.3321,-2.53099 3.79648,-4.0629 3.66327,-2.33117 10.59017,-5.52821 13.18777,-6.12765 3.26363,-0.66605 16.85103,0.19981 20.24788,1.3987 z m -13.12116,11.85567 c 1.06568,0.53284 3.06382,2.26457 4.46252,3.86308 2.39778,2.7308 3.26364,4.66235 4.79556,11.05641 0.66604,2.93062 2.26456,4.0629 4.1295,2.86401 3.26364,-1.99814 9.99073,0.0666 9.99073,3.13043 0,2.53099 2.46438,3.72988 7.59296,3.66327 3.86308,0 5.26178,-0.33302 7.79277,-1.79833 1.66512,-0.99907 3.66327,-1.79833 4.39592,-1.79833 1.46531,0 3.33025,1.73173 2.6642,2.46438 -1.19889,1.13228 -7.85938,2.86401 -10.98981,2.7308 -1.99815,-0.0666 -3.79648,0.19981 -3.99629,0.53284 -0.26642,0.33302 -1.73173,1.46531 -3.26364,2.53098 -1.73173,1.13229 -3.33025,2.93062 -3.99629,4.46253 l -1.13229,2.59759 h -4.26271 c -4.1295,0 -4.32932,0.0666 -7.99259,3.26364 -4.79555,4.1295 -8.259,6.06105 -10.85659,6.06105 -4.79555,0 -14.45326,-6.46068 -16.85104,-11.32284 -0.46623,-0.93246 -1.19888,-3.79647 -1.66512,-6.39406 -1.93154,-11.18962 2.33117,-23.97776 9.12487,-27.57443 2.93062,-1.53191 7.45975,-1.73172 10.05734,-0.33302 z m 58.7455,9.72431 c 1.59852,0.93247 3.66327,2.7308 4.46253,4.0629 1.53191,2.26457 1.59852,2.99722 1.73173,14.91949 0.13321,14.45326 0.86586,17.7169 5.26178,23.1119 1.39871,1.73173 2.46438,3.53006 2.26457,3.99629 -0.19981,0.59945 -3.92969,0.79926 -14.91949,0.73266 -12.1887,-0.0666 -15.05271,-0.26642 -16.85104,-1.19889 -2.7308,-1.3321 -3.59666,-1.3321 -4.66234,-0.0666 -1.79833,2.19796 -3.79648,1.19889 -6.32746,-3.06382 -1.2655,-2.19796 -2.33118,-4.52913 -2.33118,-5.19518 0,-0.66605 -0.33302,-2.13136 -0.73265,-3.33025 -0.93247,-2.66419 0.13321,-7.25993 2.59759,-10.9232 1.79833,-2.66419 3.99629,-3.26364 5.4616,-1.4653 1.3321,1.59851 3.39685,1.19888 5.26179,-1.06568 1.33209,-1.53192 2.7974,-2.26457 6.39407,-3.19704 l 4.66234,-1.13228 0.19981,-2.6642 c 0.13321,-2.19796 -0.13321,-2.99722 -1.93154,-4.79555 -1.13228,-1.13228 -2.46438,-2.13135 -2.86401,-2.13135 -1.26549,0 -7.25993,2.13135 -8.39221,2.93061 -4.59574,3.39685 -7.72617,3.66327 -9.25808,0.79926 -2.53099,-4.72895 3.46345,-10.32376 12.58832,-11.65585 6.72709,-0.99908 14.18684,-0.39963 17.38387,1.33209 z m 39.09707,-1.3987 c 1.06568,0 2.19796,2.99722 1.66512,4.32932 -0.19981,0.59944 -1.19889,1.26549 -2.26456,1.46531 -1.06568,0.19981 -1.93155,0.79925 -1.93155,1.33209 0,0.53284 1.59852,3.39685 3.59667,6.46068 1.93154,2.99722 4.32932,7.12672 5.32839,9.19147 1.99815,4.26271 3.19703,4.99537 5.5282,3.53006 1.2655,-0.86586 1.39871,-1.26549 0.86587,-2.33117 -0.46624,-0.86586 -0.46624,-1.73173 -0.0666,-2.46438 0.33303,-0.66605 0.79926,-1.66512 0.99908,-2.19796 0.53284,-1.3321 1.66512,-3.13043 3.92968,-6.06105 2.33118,-3.13043 2.33118,-4.86215 -0.13321,-6.32746 -2.19796,-1.3321 -4.32931,-4.59574 -3.79647,-5.99444 0.26642,-0.73265 2.26456,-0.93247 10.72338,-0.93247 h 10.32376 l 0.73265,1.79833 c 1.06568,2.7308 0.53284,3.72988 -2.86401,5.395 -2.19796,0.99907 -3.19703,1.93154 -3.19703,2.7974 0,0.66605 -0.39963,1.53192 -0.86587,1.79833 -0.93246,0.53284 -5.72801,8.32562 -8.32561,13.5208 -0.86586,1.66512 -1.79833,3.46345 -2.13135,3.99629 -3.13043,5.26178 -6.72709,11.78906 -8.59203,15.51894 -2.46438,4.99536 -3.53006,5.39499 -5.32839,2.13135 -0.59945,-1.13228 -2.26457,-3.79648 -3.66327,-5.92783 -1.3321,-2.13136 -2.79741,-4.52913 -3.13043,-5.32839 -1.19889,-2.79741 -12.65493,-19.58184 -15.78536,-23.24511 -0.99907,-1.13228 -3.39685,-3.59666 -5.26178,-5.4616 -2.46438,-2.39777 -3.53006,-3.99629 -3.53006,-5.19518 0,-0.93247 0.26642,-1.79833 0.66605,-1.93154 0.46623,-0.13321 16.78443,-0.0666 26.50874,0.13321 z m 68.27001,1.13228 c 1.19888,0.66605 2.66419,1.59852 3.26363,2.13136 0.79926,0.59944 1.99815,0.79926 3.59667,0.53284 2.13135,-0.33303 2.66419,-0.0666 5.32839,2.33117 5.26178,4.86216 7.65956,12.38851 5.19518,16.25159 l -1.13228,1.66512 -14.38666,-0.46623 c -16.91764,-0.46623 -17.05085,-0.39963 -16.98424,4.86216 0.0666,4.1961 2.26456,7.79277 6.39407,10.39036 5.92783,3.72987 13.25437,0.86586 18.24973,-7.06012 1.66513,-2.59759 2.86401,-2.93062 5.86123,-1.79833 2.33117,0.86586 2.33117,4.0629 0,8.65863 -2.39777,4.79555 -5.39499,7.92598 -9.19147,9.72432 -2.7308,1.26549 -4.0629,1.4653 -7.99259,1.19888 -6.39407,-0.46623 -9.5245,-1.3987 -13.05455,-4.06289 -2.6642,-1.99815 -3.33025,-2.26457 -5.72802,-1.86494 -2.6642,0.39963 -2.86401,0.26642 -5.06197,-2.46438 -5.12858,-6.39407 -5.52821,-7.45975 -5.46161,-15.51894 0.13321,-7.99259 0.93247,-10.65678 4.92877,-16.25159 2.06475,-2.79741 2.19796,-2.86401 4.99536,-2.46438 2.59759,0.39963 2.99722,0.26642 4.59574,-1.59852 0.93247,-1.13228 1.73173,-2.33117 1.73173,-2.53098 0,-0.26642 0.79925,-0.99908 1.86493,-1.59852 2.53099,-1.59852 10.19055,-1.59852 12.98796,-0.0666 z m 5.59481,27.10819 c 0.66604,0.26642 0.59944,0.86586 -0.19982,2.53099 -1.3987,2.86401 -4.32932,5.19518 -7.12672,5.66141 -1.86494,0.26642 -2.6642,0 -4.59574,-1.73173 -2.7308,-2.39777 -4.52913,-5.92783 -3.33024,-6.66048 0.79926,-0.46624 13.92042,-0.26642 15.25252,0.19981 z"
     id="path2"
     inkscape:connector-curvature="0" />
  <path
     d="m 235.3819,377.53367 c -2.13136,1.93154 -2.7308,4.19611 -2.26457,7.85938 0.73266,5.5282 4.39593,7.99258 7.39315,4.99536 2.19796,-2.19796 3.13042,-10.25715 1.4653,-12.78813 -1.3987,-2.19796 -4.26271,-2.19796 -6.59388,-0.0666 z m 109.56503,-17.7835 c -1.93154,1.26549 -2.7974,2.26456 -2.7974,3.33024 0,1.46531 0.26642,1.53191 4.59573,1.53191 2.53099,0 5.395,0.19982 6.46068,0.39963 4.39592,0.86587 5.66141,-3.53005 1.66512,-5.92783 -2.86401,-1.66512 -6.66049,-1.46531 -9.92413,0.66605 z m 85.12104,-35.10077 c -0.53284,0.26641 -2.99722,1.4653 -5.4616,2.59759 -4.1295,1.93154 -8.52542,5.92783 -8.52542,7.72616 0,0.33303 -0.99908,1.3321 -2.26457,2.13136 -1.19889,0.79926 -3.06382,2.86401 -4.1295,4.66234 -1.73173,2.86401 -1.93154,3.79648 -1.93154,8.85845 0,6.32746 1.59851,11.05641 5.06197,15.31912 1.06567,1.2655 1.93154,2.53099 1.93154,2.79741 0,0.33302 -0.99907,1.3987 -2.13136,2.46438 l -2.19796,1.93154 -0.19981,8.59203 c -0.33303,11.98888 0.86586,16.51801 5.06197,18.78258 0.86586,0.46623 6.06104,0.93247 12.65493,1.19888 9.32468,0.33303 11.72245,0.19982 15.0527,-0.73265 3.79648,-1.13228 8.52542,-3.66327 9.39129,-5.06197 0.19981,-0.33302 1.26549,-0.66605 2.39777,-0.66605 5.26179,0 8.79185,-4.99537 9.92413,-14.05363 1.26549,-10.59018 -0.93247,-17.65029 -6.99351,-22.31264 -2.79741,-2.13135 -2.93062,-2.7974 -0.46624,-3.33024 2.7308,-0.73265 4.59574,-2.13136 5.32839,-4.1295 0.39963,-0.99908 0.79926,-6.06105 0.99908,-11.25623 0.26642,-11.38943 0.53284,-11.05641 -8.79185,-14.12023 -5.79462,-1.93154 -6.99351,-2.06475 -14.9861,-1.99815 -4.79555,0 -9.19147,0.26642 -9.72431,0.59945 z m 19.31542,4.92876 c 2.7308,0.46623 5.79462,1.26549 6.8603,1.73172 l 1.79833,0.86587 v 9.12487 c 0,9.25807 -0.33302,10.65678 -2.7308,10.65678 -0.73265,0 -1.19889,-0.73266 -1.46531,-2.33117 -0.86586,-5.395 -7.45974,-11.18962 -13.58739,-11.98888 -5.86123,-0.73266 -8.65864,0.0666 -10.9232,3.13043 -1.19889,1.73172 -1.93154,3.53006 -1.93154,4.92876 0,1.99814 0.33302,2.39777 2.99722,3.66327 1.66512,0.79926 3.19703,1.66512 3.39684,1.99814 0.19982,0.33303 0.93247,0.59945 1.59852,0.59945 0.73266,0 2.79741,0.86586 4.66234,1.99814 1.86494,1.06568 3.59667,1.99815 3.86309,1.99815 0.73265,0 4.66234,2.13136 8.32561,4.46253 3.33024,2.19796 4.92876,3.92969 6.72709,7.32653 1.53191,2.99722 1.46531,14.51987 -0.0666,18.91579 -1.19889,3.39685 -2.13136,3.99629 -3.53006,2.26457 -1.39871,-1.66512 -3.53006,-0.93247 -4.92876,1.66512 -1.53192,2.86401 -4.52914,4.92876 -8.79185,5.99444 -4.26271,1.06568 -24.04436,0.0666 -24.84362,-1.26549 -0.66605,-1.06568 -1.66512,-21.7798 -1.06568,-22.71227 0.73266,-1.19889 2.93062,-0.73265 3.92969,0.79926 0.46623,0.86586 1.26549,3.53006 1.73173,6.06104 0.73265,4.0629 1.06567,4.72895 3.99629,7.32654 5.72802,5.19518 10.9232,5.395 16.45141,0.73265 2.39777,-2.06475 2.53098,-2.33117 2.53098,-6.26085 0,-3.9963 -0.0666,-4.26272 -2.59759,-6.39407 -1.3987,-1.19889 -3.99629,-2.86401 -5.66141,-3.59667 -1.66513,-0.79926 -3.92969,-1.86493 -4.92877,-2.33117 -1.06567,-0.53284 -2.33117,-0.99907 -2.7974,-0.99907 -0.53284,0 -2.06475,-0.46624 -3.46345,-1.06568 -7.99259,-3.46345 -9.5245,-4.92876 -11.12302,-10.52357 -1.3321,-4.52913 -1.3321,-8.85845 -0.0666,-11.98888 0.93246,-2.19796 1.26549,-2.39778 3.66326,-2.39778 2.46438,0 2.6642,-0.13321 2.6642,-1.86493 0,-2.7308 3.19703,-6.99351 6.66049,-8.85845 4.59573,-2.46438 14.32005,-3.19704 22.64566,-1.66512 z m -5.99444,13.98702 c 3.06382,2.06475 5.99444,7.32654 4.79555,8.52543 -0.73265,0.73265 -1.3987,0.53284 -3.66327,-0.66605 -1.53191,-0.86587 -4.52913,-2.53099 -6.59388,-3.66327 -3.46346,-1.93154 -4.99537,-3.86308 -4.12951,-5.26179 0.19982,-0.26642 1.93155,-0.53284 3.79648,-0.53284 2.59759,0 4.0629,0.39963 5.79463,1.59852 z m -12.72153,30.17201 c 5.4616,2.7308 9.39128,6.19426 9.39128,8.1258 0,1.79833 -3.72987,4.72895 -5.99444,4.72895 -2.86401,0 -7.99258,-5.395 -7.99258,-8.45882 0,-0.66605 -0.46624,-2.06476 -0.99907,-3.13043 -0.99908,-1.93154 -0.93247,-3.72988 0.1332,-3.72988 0.26642,0 2.79741,1.13229 5.46161,2.46438 z"
     id="path4"
     inkscape:connector-curvature="0" />
  <path
     d="m 482.88564,334.64013 c -3.66327,2.06475 -5.79462,4.59573 -6.59388,7.59295 -0.26642,1.13229 -1.79833,2.86401 -3.86308,4.39593 -4.26272,3.19703 -7.72617,7.92598 -7.72617,10.39036 0,0.99907 0.79926,2.86401 1.79833,4.19611 l 1.86494,2.39777 0.13321,14.51987 c 0.19981,15.65214 0.33302,16.51801 3.99629,19.84825 3.06383,2.93062 5.92784,3.99629 10.05734,3.92969 2.06475,-0.0666 5.59481,0.13321 7.79277,0.33302 7.19333,0.86587 14.25345,-2.66419 18.38295,-9.12487 l 2.13135,-3.33024 1.73173,2.26457 c 3.72987,4.79555 6.72709,6.59388 11.38944,6.8603 0.53284,0 2.19796,0.66605 3.72987,1.46531 3.33024,1.79833 10.59018,2.7974 14.91949,2.13135 1.79834,-0.26642 4.52914,-1.26549 6.12765,-2.13135 1.59852,-0.93247 4.26271,-1.86494 5.92784,-2.06475 2.53098,-0.39963 3.66327,-1.06568 6.12765,-3.53006 11.38943,-11.52265 11.45604,-29.9056 0.13321,-42.69373 -2.7308,-3.06383 -3.86309,-3.59667 -6.06105,-2.79741 -1.59852,0.59945 -2.06475,0.46624 -3.86308,-1.26549 -3.33025,-3.13043 -5.86123,-4.0629 -10.9232,-4.0629 -4.59574,0 -10.25715,1.3987 -12.12209,3.06383 -0.53284,0.46623 -2.33117,1.13228 -3.86308,1.53191 -7.45975,1.66512 -14.25345,9.79092 -16.38481,19.71504 -0.59944,2.53099 -0.99907,5.12858 -0.93246,5.66142 0.26642,2.86401 -0.26642,3.86308 -2.26457,4.72895 -1.19889,0.46623 -3.46345,2.06475 -4.99537,3.46345 -1.93154,1.73173 -3.26364,2.46438 -4.32931,2.33117 -1.53192,-0.19981 -1.53192,-0.26642 -1.39871,-9.12487 0.0666,-10.05734 0.19982,-10.25715 4.92877,-11.05641 3.26363,-0.53284 8.59203,-5.26179 10.52357,-9.19147 0.79926,-1.59852 1.3987,-4.12951 1.3987,-5.59481 0,-2.26457 -0.39963,-3.06383 -2.06475,-4.46253 -2.59759,-2.19796 -5.19518,-2.19796 -9.19148,0.0666 -4.46252,2.46438 -5.39499,1.93155 -5.39499,-3.33024 0,-3.86308 -0.19982,-4.39592 -2.26457,-6.66049 -2.7308,-2.99722 -4.26271,-3.06382 -8.85845,-0.46623 z m 6.39407,6.12765 c 0.39963,1.13228 0.53284,3.59666 0.33303,5.5282 -0.39963,3.13043 -0.26642,3.59667 1.13228,4.59574 2.7974,1.93154 7.12672,1.06568 11.98888,-2.39778 1.3987,-0.99907 3.26364,-0.26642 3.26364,1.3321 0,0.73265 -0.59945,2.6642 -1.3321,4.32932 -1.86494,4.19611 -4.92876,5.99444 -10.32376,6.06104 -6.52728,0.13321 -6.39407,-0.26642 -6.19425,14.9861 l 0.19981,13.05456 2.6642,0.86586 c 3.72987,1.19889 8.45882,-0.33302 11.65585,-3.86308 1.93155,-2.13136 2.59759,-2.46438 3.86309,-1.99815 3.13043,1.26549 0.93247,6.26086 -5.12858,11.65586 -3.26364,2.93061 -3.79648,3.13043 -7.92598,3.19703 -2.6642,0.0666 -4.46253,-0.26642 -5.99444,-1.19889 -2.13136,-1.26549 -2.26457,-1.26549 -4.19611,-0.13321 -2.86401,1.59852 -3.46345,1.46531 -6.52728,-1.59851 l -2.7308,-2.7308 -0.13321,-9.4579 c -0.0666,-5.12857 -0.19981,-12.12209 -0.19981,-15.51894 -0.0666,-5.86122 -0.19982,-6.19425 -1.86494,-7.52635 -2.7308,-2.19796 -2.39777,-4.72894 0.99908,-8.05919 2.46438,-2.39777 3.06382,-2.66419 5.06197,-2.26456 2.93061,0.53284 4.1295,-0.53284 4.1295,-3.79648 0,-2.13136 0.46623,-3.13043 2.39778,-5.19518 2.7308,-2.86401 3.86308,-2.86401 4.86215,0.13321 z m 55.21545,8.45882 c 2.6642,1.33209 4.59574,3.19703 5.72802,5.5282 1.06568,2.13136 2.86401,2.26457 4.79555,0.46624 1.59852,-1.53192 1.66512,-1.53192 2.93062,-0.19982 0.66605,0.66605 2.39777,3.53006 3.79647,6.26086 2.46439,4.92876 2.46439,5.12858 2.53099,12.65493 0,6.72709 -0.19981,7.99258 -1.53191,10.32376 -3.06383,5.39499 -5.19518,7.99258 -6.52728,7.79277 -3.33024,-0.46624 -4.39592,-0.13321 -7.32654,2.46438 -3.66327,3.19703 -6.92691,4.26271 -11.72246,3.72987 -4.72894,-0.53284 -8.05919,-2.06475 -9.79091,-4.39592 -1.53192,-2.13136 -4.32932,-2.59759 -4.99537,-0.93247 -0.66605,1.86494 -2.33117,0.99907 -4.99537,-2.46438 -3.66327,-4.92876 -5.26178,-9.25808 -5.32839,-14.85289 -0.13321,-10.65678 5.99444,-21.64659 12.12209,-21.64659 0.86586,0 2.79741,-0.86586 4.19611,-1.86493 5.66141,-4.0629 11.72246,-5.12858 16.11838,-2.86401 z"
     id="path6"
     inkscape:connector-curvature="0" />
  <path
     d="m 536.03634,357.75202 c -2.26457,0.46624 -5.395,3.46346 -6.7937,6.52728 -1.73173,3.72987 -1.66512,11.12302 0.0666,16.85104 1.66512,5.26178 2.26456,6.19425 5.12857,7.65956 2.59759,1.3987 4.0629,1.3987 6.92691,0.19981 5.19518,-2.19796 6.72709,-5.72802 6.66049,-15.71875 0,-8.32561 -0.39963,-9.85752 -3.59666,-13.52079 -1.66513,-1.93154 -4.92877,-2.7308 -8.39222,-1.99815 z m 5.4616,6.32747 c 0.53284,1.19888 1.19889,4.66234 1.46531,7.65956 0.53284,6.32746 -0.39963,11.45604 -2.39778,13.25437 -1.19889,1.13228 -1.3321,1.06568 -2.93061,-0.39963 -3.72988,-3.46345 -5.12858,-15.85196 -2.26457,-20.38109 1.93154,-3.13043 4.66234,-3.19704 6.12765,-0.13321 z m 70.06834,-18.51616 c -2.13136,1.13228 -3.59667,1.46531 -4.26272,1.13228 -0.59944,-0.33302 -8.72524,-0.79926 -18.11652,-1.06568 -15.51894,-0.46623 -17.25067,-0.39963 -19.51523,0.66605 -5.59481,2.6642 -5.72802,6.7937 -0.39963,11.72246 l 3.33024,3.06383 v 11.25622 c 0,6.19426 -0.26642,12.38851 -0.59944,13.78721 -0.33303,1.46531 -1.73173,3.79648 -3.33025,5.4616 -3.53006,3.79648 -3.72987,6.7271 -0.66605,9.25808 l 2.06475,1.73173 h 15.51894 c 8.59203,0 16.3182,-0.26642 17.25067,-0.66605 0.93247,-0.33303 2.46438,-1.86494 3.46345,-3.33024 1.66512,-2.46439 1.73173,-2.86401 0.86586,-4.46253 -0.53283,-0.99908 -2.33117,-2.86401 -4.06289,-4.1295 -3.79648,-2.93062 -4.39593,-4.59574 -4.66234,-12.72154 -0.19982,-5.99444 -0.13321,-6.32746 1.13228,-6.12765 7.06012,0.99908 6.72709,1.06568 10.65678,-1.53191 3.19703,-2.19796 6.66049,-6.26086 7.92598,-9.32468 0.53284,-1.46531 2.86401,1.06568 6.8603,7.39314 2.33117,3.59666 4.52914,7.19333 4.86216,7.92598 0.39963,0.73265 1.06568,1.93154 1.53191,2.6642 3.39685,5.59481 4.19611,6.8603 4.99537,7.99258 0.39963,0.73266 0.99907,1.79833 1.26549,2.33117 0.19982,0.53284 1.26549,2.06475 2.33117,3.39685 0.99908,1.3321 1.86494,3.06383 1.86494,3.79648 0,1.46531 -4.52913,12.52172 -8.52543,20.78072 -1.19888,2.39778 -1.79833,4.72895 -1.79833,6.86031 0,2.66419 0.26642,3.39685 1.99815,4.79555 1.13228,0.86586 2.86401,1.59852 3.99629,1.66512 3.26364,0 15.0527,-1.93154 18.64937,-3.06382 4.39592,-1.46531 5.66141,-2.6642 5.66141,-5.395 0,-2.33117 -2.26456,-7.52635 -3.26364,-7.52635 -0.33302,0 -1.33209,-0.59945 -2.33117,-1.3987 -1.33209,-0.99908 -1.59851,-1.59852 -1.06567,-2.26457 0.86586,-0.99907 8.65863,-16.78443 8.65863,-17.45048 0,-0.79926 3.13043,-7.39314 9.19147,-19.51523 5.06197,-10.12394 7.99259,-14.65307 9.4579,-14.65307 1.13228,0 3.99629,-4.99537 3.99629,-6.86031 0,-1.19889 -0.73265,-2.59759 -1.99815,-3.86308 l -1.93154,-1.99815 h -9.5245 c -5.26178,0 -10.65678,-0.0666 -11.98888,-0.13321 -2.7974,-0.0666 -5.26178,1.73173 -6.52727,4.86216 -0.66605,1.53191 -0.59945,2.33117 0.33302,4.32932 0.66605,1.26549 1.79833,2.66419 2.46438,3.06382 1.19889,0.66605 1.26549,1.13228 0.93247,3.99629 -0.59944,4.19611 -1.73173,6.7271 -2.86401,6.46068 -0.53284,-0.13321 -1.99815,-2.19796 -3.33024,-4.66234 -2.33118,-4.46253 -2.33118,-4.52914 -1.2655,-6.7937 0.59945,-1.26549 1.06568,-3.39685 1.06568,-4.72895 0,-2.7974 -1.79833,-6.26086 -3.33024,-6.46067 -0.53284,0 -6.99352,0 -14.32005,0.13321 -11.05641,0.13321 -13.78721,0 -15.91857,-0.93247 -3.19703,-1.3321 -2.93061,-1.3987 -6.72709,0.53284 z m 34.83435,5.19518 c 0.39963,0.39963 0.79926,1.53191 0.79926,2.59759 0,1.46531 -0.46623,2.13136 -1.66512,2.7308 -2.06475,0.93247 -2.06475,2.19796 0,5.92783 0.86586,1.59852 1.93154,3.53006 2.33117,4.26272 0.39963,0.73265 1.26549,2.19796 1.99814,3.33024 0.73266,1.06568 2.06476,3.53006 2.99722,5.4616 0.93247,1.86494 2.26457,3.53006 2.86401,3.66327 1.79834,0.39963 4.19611,-1.46531 3.79648,-2.86401 -0.46623,-1.3321 0.0666,-3.19703 2.59759,-10.25715 2.39778,-6.66049 2.33117,-8.52543 -0.66605,-10.25715 -1.93154,-1.13229 -2.33117,-1.73173 -2.13135,-3.26364 l 0.19981,-1.79833 10.19055,-0.0666 c 9.05826,0 10.25715,0.13321 10.8566,1.13228 0.86586,1.73173 0.93246,1.66513 -2.93062,5.52821 -2.93061,2.86401 -4.66234,5.72802 -9.5911,15.78536 -3.33025,6.72709 -6.7271,13.7206 -7.52635,15.58554 -3.39685,7.65956 -4.92877,10.9898 -8.0592,17.38387 -1.79833,3.66327 -3.26363,7.32654 -3.26363,8.05919 0,1.39871 1.19888,2.19796 3.26363,2.19796 1.73173,0 3.53006,2.26457 3.26364,4.0629 -0.19981,1.3321 -0.79925,1.66512 -4.86215,2.39778 -12.85474,2.33117 -12.98795,2.33117 -14.05363,1.46531 -1.19889,-0.99908 -0.93247,-1.99815 2.39777,-8.92506 1.39871,-2.93061 3.53006,-7.72617 4.72895,-10.65678 1.19889,-2.93061 2.53099,-5.79462 3.06382,-6.39407 1.3321,-1.59852 1.06568,-2.86401 -1.66512,-7.06012 -1.4653,-2.13135 -2.99722,-4.66234 -3.53006,-5.72802 -4.1961,-8.1924 -18.38294,-29.63917 -19.91486,-30.1054 -0.73265,-0.19982 -2.33117,-0.19982 -3.66326,0.0666 -1.99815,0.33303 -3.06383,1.26549 -6.32747,5.59481 -5.06197,6.66049 -7.45975,7.32654 -14.05363,3.86309 -1.59852,-0.79926 -3.06382,-1.13229 -4.19611,-0.79926 -1.93154,0.46623 -2.06475,1.19888 -0.79926,3.53006 0.59945,1.13228 0.79926,3.72987 0.53284,9.6577 -0.33302,9.92413 0.26642,11.85567 5.19518,15.51894 2.6642,1.99815 3.33025,2.86401 3.19704,4.19611 l -0.19982,1.66512 h -14.51986 c -12.98795,0 -14.65307,-0.13321 -15.18591,-1.13228 -0.86587,-1.53191 0.33302,-4.19611 2.39777,-5.59481 0.93247,-0.59945 1.99815,-1.73173 2.39778,-2.39778 0.39963,-0.79926 0.73265,-7.19333 0.73265,-16.05177 v -14.78629 l -2.93061,-1.3987 c -3.06383,-1.53191 -4.99537,-4.1295 -4.32932,-5.86123 0.59944,-1.53191 21.44677,-1.59852 22.04622,-0.0666 0.46623,1.3321 3.13043,1.2655 5.59481,-0.13321 1.93154,-1.13228 2.13135,-1.13228 4.46252,0 3.19704,1.53192 9.12487,1.53192 10.52357,-0.0666 0.93247,-0.99907 2.46439,-1.13228 16.91765,-0.93247 9.52449,0.13321 16.18498,0.53284 16.71782,0.93247 z"
     id="path8"
     inkscape:connector-curvature="0" />
</svg>
