<?xml version="1.0" encoding="UTF-8" standalone="no"?>
<svg
   xmlns:dc="http://purl.org/dc/elements/1.1/"
   xmlns:cc="http://creativecommons.org/ns#"
   xmlns:rdf="http://www.w3.org/1999/02/22-rdf-syntax-ns#"
   xmlns:svg="http://www.w3.org/2000/svg"
   xmlns="http://www.w3.org/2000/svg"
   xmlns:sodipodi="http://sodipodi.sourceforge.net/DTD/sodipodi-0.dtd"
   xmlns:inkscape="http://www.inkscape.org/namespaces/inkscape"
   viewBox="0 0 834.395 318.57198"
   version="1.1"
   id="svg176"
   sodipodi:docname="consolegame.svg"
   width="834.39502"
   height="318.57199"
   inkscape:version="0.92.4 5da689c313, 2019-01-14">
  <metadata
     id="metadata182">
    <rdf:RDF>
      <cc:Work
         rdf:about="">
        <dc:format>image/svg+xml</dc:format>
        <dc:type
           rdf:resource="http://purl.org/dc/dcmitype/StillImage" />
      </cc:Work>
    </rdf:RDF>
  </metadata>
  <defs
     id="defs180" />
  <sodipodi:namedview
     pagecolor="#ffffff"
     bordercolor="#666666"
     borderopacity="1"
     objecttolerance="10"
     gridtolerance="10"
     guidetolerance="10"
     inkscape:pageopacity="0"
     inkscape:pageshadow="2"
     inkscape:window-width="471"
     inkscape:window-height="442"
     id="namedview178"
     showgrid="false"
     inkscape:zoom="0.32478621"
     inkscape:cx="417.19751"
     inkscape:cy="159.28649"
     inkscape:window-x="0"
     inkscape:window-y="0"
     inkscape:window-maximized="0"
     inkscape:current-layer="svg176">
    <inkscape:grid
       type="xygrid"
       id="grid184"
       originx="0"
       originy="0.00098559567" />
  </sodipodi:namedview>
  <linearGradient
     id="a"
     gradientUnits="userSpaceOnUse"
     x1="-85.766998"
     y1="55.143002"
     x2="-84.766998"
     y2="55.143002"
     gradientTransform="matrix(0,-9.0667,9.0667,0,-37.051,-523.815)">
    <stop
       offset="0"
       stop-color="#ccc"
       id="stop2" />
    <stop
       offset="1"
       stop-color="#fff"
       id="stop4" />
  </linearGradient>
  <path
     d="m 458.598,254.391 v -9.798 c 0,0 8.664,-0.431 8.635,4.96 0,4.476 -8.635,4.838 -8.635,4.838 z"
     id="path7"
     inkscape:connector-curvature="0"
     style="fill:url(#a)" />
  <path
     d="M 68.596,163.264 13.883,198.608 C 2.872,212.497 0,237.406 0,237.406 h 457.98 c 0,0 -2.842,-24.909 -13.853,-38.799 L 389.384,163.263 H 68.596"
     id="path9"
     inkscape:connector-curvature="0"
     style="fill:#dddcdc" />
  <linearGradient
     id="b"
     gradientUnits="userSpaceOnUse"
     x1="-85.766998"
     y1="55.143002"
     x2="-84.766998"
     y2="55.143002"
     gradientTransform="matrix(0,117.9843,-117.9843,0,6735.838,10319.762)">
    <stop
       offset="0"
       stop-color="#fff"
       id="stop11" />
    <stop
       offset=".271"
       stop-color="#c9c8c8"
       id="stop13" />
    <stop
       offset=".729"
       stop-color="#c9c8c8"
       id="stop15" />
    <stop
       offset=".965"
       stop-color="#fdfdfd"
       id="stop17" />
    <stop
       offset="1"
       stop-color="#969696"
       id="stop19" />
  </linearGradient>
  <path
     d="M 362.983,268.021 H 157.804 c -3.644,0 -5.911,2.923 -5.911,6.093 v 29.476 h 217.002 v -29.476 c -10e-4,-3.17 -2.268,-6.093 -5.912,-6.093 m -212.061,37.405 v -31.312 c 0,-3.642 2.711,-7.063 6.881,-7.063 h 205.179 c 4.169,0 6.881,3.42 6.881,7.063 v 31.312 H 150.922 M 25.645,198.295 h -1.623 c -14.325,0 -20.62,26.183 -22.856,39.112 -0.733,4.238 -1.029,7.053 -1.029,7.053 v 32.191 c 0,0 6.591,41.921 23.885,41.921 h 411.573 c 17.294,0 23.886,-41.921 23.886,-41.921 V 244.46 c 0,0 -0.854,-8.104 -3.245,-17.52 C 273.494,227.007 67.881,238.556 1.76,262.681 v -18.222 c 0,0 4.864,-46.164 23.885,-46.164"
     id="path22"
     inkscape:connector-curvature="0"
     style="fill:url(#b)" />
  <path
     d="m 447.593,203.752 c 3.28,5.675 5.601,12.227 7.205,18.032 0.532,1.735 1.01,3.466 1.439,5.156 h 1.622 c -2.093,-8.241 -5.362,-17.487 -10.266,-23.188"
     id="path24"
     inkscape:connector-curvature="0"
     style="fill:#ffffff" />
  <path
     d="M 437.218,198.295 H 25.645 435.595 c 9.622,0 15.622,11.814 19.201,23.489 -1.604,-5.805 -3.925,-12.357 -7.205,-18.032 -2.867,-3.335 -6.294,-5.457 -10.373,-5.457"
     id="path26"
     inkscape:connector-curvature="0"
     style="fill:#e8e8e7" />
  <linearGradient
     id="c"
     gradientUnits="userSpaceOnUse"
     x1="-85.766998"
     y1="55.150002"
     x2="-84.766998"
     y2="55.150002"
     gradientTransform="matrix(0,117.9843,-117.9843,0,6735.838,10319.762)">
    <stop
       offset="0"
       stop-color="#fff"
       id="stop28" />
    <stop
       offset=".271"
       stop-color="#dadada"
       id="stop30" />
    <stop
       offset=".729"
       stop-color="#dadada"
       id="stop32" />
    <stop
       offset=".965"
       stop-color="#fefefd"
       id="stop34" />
    <stop
       offset="1"
       stop-color="#b5b4b5"
       id="stop36" />
  </linearGradient>
  <path
     d="M 435.596,198.295 H 25.645 C 6.624,198.295 1.76,244.46 1.76,244.46 v 18.222 c 66.121,-24.124 271.734,-35.674 454.477,-35.742 -0.429,-1.69 -0.907,-3.42 -1.439,-5.156 -3.58,-11.675 -9.58,-23.489 -19.202,-23.489"
     id="path39"
     inkscape:connector-curvature="0"
     style="fill:url(#c)" />
  <linearGradient
     id="d"
     gradientUnits="userSpaceOnUse"
     x1="-85.766998"
     y1="55.143002"
     x2="-84.766998"
     y2="55.143002"
     gradientTransform="matrix(0,17.939,-17.939,0,1117.012,1815.54)">
    <stop
       offset="0"
       stop-color="#969696"
       id="stop41" />
    <stop
       offset="1"
       stop-color="#fff"
       id="stop43" />
  </linearGradient>
  <circle
     cx="127.799"
     cy="285.89301"
     r="9.1370001"
     id="circle46"
     style="fill:url(#d)" />
  <linearGradient
     id="e"
     gradientUnits="userSpaceOnUse"
     x1="-85.766998"
     y1="55.143002"
     x2="-84.766998"
     y2="55.143002"
     gradientTransform="matrix(0,-20.4055,20.4055,0,-882.554,-1508.74)">
    <stop
       offset="0"
       stop-color="#fff"
       id="stop48" />
    <stop
       offset="1"
       stop-color="#969696"
       id="stop50" />
  </linearGradient>
  <path
     d="m 240.058,220.34 -166.234,4.449 c -7.874,2.826 -5.677,13.038 0,15.075 l 165.158,2.595 4.644,0.041 167.896,-2.636 c 5.677,-2.037 7.873,-12.25 0,-15.075 l -166.45,-4.449 z"
     id="path53"
     inkscape:connector-curvature="0"
     style="fill:url(#e)" />
  <path
     d="m 75.628,225.615 c -7.761,2.08 -5.596,9.595 0,11.094 l 162.804,1.91 c 1.137,0.065 2.445,0.03 3.638,0.03 l 166.441,-1.94 c 5.596,-1.499 7.762,-9.014 0,-11.094 L 242.07,222.341 c -55.483,0.815 -110.964,2.14 -166.442,3.274 z"
     id="path55"
     inkscape:connector-curvature="0"
     style="fill:#070308" />
  <linearGradient
     id="f"
     gradientUnits="userSpaceOnUse"
     x1="-85.766998"
     y1="54.883999"
     x2="-84.766998"
     y2="54.883999"
     gradientTransform="matrix(0,117.9843,-117.9843,0,6735.838,10319.762)">
    <stop
       offset="0"
       stop-color="#867f80"
       id="stop57" />
    <stop
       offset=".271"
       stop-color="#716d6d"
       id="stop59" />
    <stop
       offset=".729"
       stop-color="#716d6d"
       id="stop61" />
    <stop
       offset=".965"
       stop-color="#857d7e"
       id="stop63" />
    <stop
       offset="1"
       stop-color="#5e5e5e"
       id="stop65" />
  </linearGradient>
  <path
     d="m 151.892,303.59 v -29.476 c 0,-3.169 2.267,-6.093 5.911,-6.093 h 205.179 c 3.645,0 5.911,2.923 5.911,6.093 V 303.59 H 151.892 M 362.983,267.051 H 157.804 c -4.169,0 -6.881,3.42 -6.881,7.063 v 31.312 h 218.941 v -31.312 c 0,-3.642 -2.712,-7.063 -6.881,-7.063"
     id="path68"
     inkscape:connector-curvature="0"
     style="fill:url(#f)" />
  <path
     d="m 127.929,280.987 c -2.811,0 -5.294,2.48 -5.291,5.291 0.003,2.807 2.485,5.291 5.291,5.291 2.806,0 5.287,-2.484 5.291,-5.291 0.002,-2.811 -2.481,-5.291 -5.291,-5.291 z"
     id="path70"
     inkscape:connector-curvature="0"
     style="fill:#1a1919" />
  <path
     d="m 131.412,286.282 a 3.484,3.484 0 1 1 0,-0.013 z"
     id="path72"
     inkscape:connector-curvature="0"
     style="fill:#bf3770" />
  <path
     d="m 35.633,271.683 c -3.854,0 -7.659,1.582 -10.383,4.307 -2.724,2.725 -4.308,6.53 -4.307,10.383 10e-4,3.852 1.583,7.66 4.307,10.383 2.724,2.724 6.531,4.307 10.383,4.307 3.852,0 7.659,-1.583 10.383,-4.307 2.724,-2.723 4.306,-6.531 4.307,-10.383 10e-4,-3.853 -1.553,-7.658 -4.277,-10.383 -2.725,-2.725 -6.56,-4.307 -10.413,-4.307 z m 0,0.973 c 3.587,0 7.168,1.475 9.704,4.012 2.536,2.537 4.042,6.118 4.042,9.705 -10e-4,3.586 -1.505,7.169 -4.042,9.705 -2.536,2.535 -6.119,4.012 -9.704,4.012 -3.586,0 -7.169,-1.477 -9.705,-4.012 -2.522,-2.521 -3.995,-6.08 -4.012,-9.646 v -0.059 c -0.001,-3.587 1.476,-7.168 4.012,-9.705 2.536,-2.537 6.117,-4.012 9.705,-4.012 z"
     id="path74"
     inkscape:connector-curvature="0"
     style="fill:#666565" />
  <path
     d="m 36.965,267.734 a 1.486,1.486 0 0 1 -2.97,0.002 v -10e-4 a 1.486,1.486 0 0 1 2.97,-0.002 z"
     id="path76"
     inkscape:connector-curvature="0"
     style="fill:#88c1e8" />
  <path
     d="m 36.965,267.734 h -0.118 v 0.001 c 0,0.755 -0.612,1.367 -1.366,1.367 H 35.48 a 1.367,1.367 0 0 1 -1.367,-1.366 v -10e-4 c 0,-0.755 0.611,-1.367 1.366,-1.368 h 0.006 l -0.005,-0.101 v 0.101 h 0.005 l -0.005,-0.101 v 0.101 c 0.755,0 1.367,0.612 1.367,1.366 v 0.002 h 0.236 v -0.002 a 1.603,1.603 0 0 0 -1.603,-1.602 h -0.007 l 0.006,0.118 v -0.118 a 1.603,1.603 0 0 0 -1.602,1.604 v 10e-4 a 1.603,1.603 0 0 0 1.603,1.602 h 0.001 a 1.603,1.603 0 0 0 1.602,-1.603 v -0.001 z"
     id="path78"
     inkscape:connector-curvature="0"
     style="fill:#256b9b" />
  <path
     d="m 35.712,227.348 3.394,4.248 h -6.789 z"
     id="path80"
     inkscape:connector-curvature="0"
     style="fill:#666565" />
  <path
     d="m 32.317,232.804 h 6.79 v 1.126 h -6.79 z"
     id="path82"
     inkscape:connector-curvature="0"
     style="fill:#818080" />
  <path
     d="m 27.226,223.102 c -7.918,0 -7.805,15.781 0,15.781 h 17.079 c 7.805,0 7.918,-15.781 0,-15.781 z m 0,0.973 h 17.079 c 6.598,0 6.46,13.834 0,13.834 H 27.226 c -6.461,0 -6.598,-13.834 0,-13.834 z m 7.997,55.455 h 1.166 v 7.747 h -1.166 z"
     id="path84"
     inkscape:connector-curvature="0"
     style="fill:#666565" />
  <path
     d="m 38.163,281.176 v 1.364 a 4.526,4.526 0 0 1 2.122,3.85 c 0,2.535 -2.042,4.577 -4.577,4.577 -2.535,0 -4.607,-2.042 -4.607,-4.577 0,-1.608 0.834,-3.003 2.091,-3.819 H 33.01 v -1.273 a 5.744,5.744 0 0 0 -3.062,5.092 5.76,5.76 0 0 0 11.518,0 5.753,5.753 0 0 0 -3.303,-5.214 z"
     id="path86"
     inkscape:connector-curvature="0"
     style="fill:#666565" />
  <path
     d="m 241.415,268.137 h 37.955 v 1.576 h -37.955 z"
     id="path88"
     inkscape:connector-curvature="0"
     style="fill:#818080" />
  <path
     d="m 37.369,211.174 h -0.18 v 0.001 c 0,0.604 -0.489,1.094 -1.093,1.095 H 36.094 A 1.095,1.095 0 0 1 35,211.177 v -0.005 H 34.964 35 34.964 35 c 0,-0.604 0.489,-1.093 1.093,-1.094 h 0.009 l -0.008,-0.163 v 0.163 h 0.008 l -0.008,-0.163 v 0.163 c 0.604,0 1.094,0.489 1.095,1.093 v 0.003 h 0.36 v -0.003 a 1.456,1.456 0 0 0 -1.456,-1.454 h -0.01 l 0.009,0.18 v -0.18 a 1.455,1.455 0 0 0 -1.453,1.455 v 0.004 l 0.18,-0.002 h -0.18 v 0.003 a 1.454,1.454 0 0 0 1.454,1.453 h 0.002 a 1.456,1.456 0 0 0 1.454,-1.455 v -0.001 z"
     id="path90"
     inkscape:connector-curvature="0"
     style="fill:#676767" />
  <path
     d="m 33.848,217.484 c 0,0.371 -0.048,0.696 -0.143,0.973 a 1.768,1.768 0 0 1 -0.416,0.689 1.734,1.734 0 0 1 -0.671,0.41 c -0.266,0.09 -0.582,0.136 -0.948,0.136 h -0.909 l -0.144,-0.051 -0.068,-0.181 v -3.826 l 0.068,-0.181 0.144,-0.051 h 0.972 c 0.371,0 0.685,0.048 0.941,0.144 0.256,0.096 0.471,0.234 0.645,0.415 0.173,0.18 0.305,0.398 0.395,0.655 0.089,0.256 0.134,0.545 0.134,0.868 z m -0.601,0.023 c 0,-0.232 -0.029,-0.448 -0.086,-0.648 a 1.382,1.382 0 0 0 -0.27,-0.519 1.25,1.25 0 0 0 -0.466,-0.341 c -0.188,-0.082 -0.43,-0.123 -0.726,-0.123 h -0.58 v 3.338 h 0.586 c 0.274,0 0.505,-0.034 0.693,-0.103 0.188,-0.069 0.345,-0.174 0.471,-0.315 0.126,-0.142 0.22,-0.319 0.283,-0.532 0.063,-0.213 0.095,-0.465 0.095,-0.757 z m 2.049,2.099 -0.013,0.046 -0.047,0.032 -0.087,0.02 -0.138,0.009 -0.136,-0.009 -0.089,-0.02 -0.047,-0.032 -0.013,-0.046 v -4.118 l 0.015,-0.046 0.049,-0.032 0.09,-0.02 0.131,-0.009 0.137,0.009 0.088,0.02 0.047,0.032 0.013,0.046 z m 3.445,-1.118 c 0,0.201 -0.037,0.38 -0.111,0.537 -0.074,0.157 -0.177,0.29 -0.308,0.399 -0.132,0.109 -0.287,0.192 -0.464,0.247 -0.177,0.055 -0.37,0.083 -0.575,0.083 -0.144,0 -0.277,-0.012 -0.399,-0.037 -0.122,-0.025 -0.232,-0.054 -0.328,-0.089 a 1.713,1.713 0 0 1 -0.242,-0.109 l -0.136,-0.096 -0.057,-0.101 -0.018,-0.164 0.007,-0.121 0.02,-0.078 0.033,-0.041 0.046,-0.012 0.131,0.056 0.217,0.123 c 0.088,0.044 0.195,0.086 0.32,0.125 0.125,0.039 0.269,0.058 0.433,0.058 0.124,0 0.237,-0.017 0.34,-0.05 a 0.79,0.79 0 0 0 0.265,-0.141 l 0.171,-0.224 a 0.724,0.724 0 0 0 0.06,-0.302 c 0,-0.122 -0.028,-0.225 -0.083,-0.312 -0.055,-0.087 -0.128,-0.162 -0.219,-0.227 -0.091,-0.065 -0.194,-0.125 -0.31,-0.179 l -0.356,-0.166 a 3.878,3.878 0 0 1 -0.355,-0.188 1.49,1.49 0 0 1 -0.308,-0.242 1.144,1.144 0 0 1 -0.221,-0.326 1.094,1.094 0 0 1 -0.084,-0.449 c 0,-0.179 0.033,-0.339 0.098,-0.479 a 0.997,0.997 0 0 1 0.271,-0.353 c 0.116,-0.095 0.254,-0.167 0.415,-0.217 a 1.732,1.732 0 0 1 0.806,-0.05 c 0.096,0.017 0.187,0.039 0.272,0.066 l 0.227,0.093 0.131,0.083 0.042,0.05 0.017,0.046 0.01,0.068 0.003,0.103 -0.005,0.106 -0.015,0.078 -0.028,0.046 -0.042,0.015 -0.114,-0.046 -0.191,-0.104 a 1.63,1.63 0 0 0 -0.267,-0.106 1.164,1.164 0 0 0 -0.659,0 l -0.219,0.128 -0.129,0.189 -0.043,0.232 a 0.56,0.56 0 0 0 0.083,0.308 c 0.055,0.086 0.128,0.163 0.22,0.229 0.092,0.066 0.196,0.127 0.313,0.182 0.117,0.056 0.236,0.111 0.358,0.167 0.122,0.057 0.241,0.118 0.358,0.186 0.117,0.067 0.221,0.147 0.313,0.239 0.092,0.092 0.166,0.2 0.222,0.325 0.056,0.125 0.084,0.272 0.084,0.442 z m 3.676,0.597 -0.003,0.093 -0.011,0.069 -0.021,0.053 -0.047,0.056 -0.139,0.101 c -0.071,0.045 -0.159,0.09 -0.264,0.133 a 2.118,2.118 0 0 1 -0.807,0.154 c -0.278,0 -0.53,-0.047 -0.754,-0.14 a 1.51,1.51 0 0 1 -0.573,-0.411 1.882,1.882 0 0 1 -0.365,-0.671 3.03,3.03 0 0 1 -0.128,-0.92 c 0,-0.355 0.046,-0.673 0.138,-0.951 0.092,-0.279 0.221,-0.515 0.386,-0.708 0.166,-0.193 0.364,-0.341 0.595,-0.442 a 1.88,1.88 0 0 1 0.768,-0.153 c 0.124,0 0.244,0.012 0.361,0.035 0.117,0.023 0.226,0.052 0.325,0.088 0.1,0.035 0.188,0.076 0.266,0.123 l 0.161,0.114 0.058,0.068 0.021,0.055 0.013,0.075 0.005,0.103 -0.007,0.112 -0.02,0.078 -0.031,0.046 -0.045,0.015 -0.129,-0.065 -0.214,-0.143 a 1.7,1.7 0 0 0 -0.318,-0.143 1.388,1.388 0 0 0 -0.449,-0.064 c -0.19,0 -0.363,0.038 -0.519,0.114 -0.156,0.076 -0.289,0.188 -0.399,0.336 a 1.653,1.653 0 0 0 -0.257,0.542 2.662,2.662 0 0 0 -0.091,0.731 c 0,0.272 0.029,0.512 0.088,0.721 0.059,0.209 0.143,0.383 0.252,0.524 0.109,0.14 0.244,0.247 0.403,0.318 0.159,0.071 0.339,0.107 0.541,0.107 0.17,0 0.319,-0.021 0.446,-0.063 0.127,-0.042 0.235,-0.089 0.325,-0.141 l 0.221,-0.141 0.136,-0.063 0.04,0.01 0.026,0.038 0.015,0.078 z m -11.785,26.925 -0.007,0.104 -0.023,0.075 -0.038,0.043 -0.048,0.013 h -2.059 l -0.144,-0.052 -0.068,-0.18 v -3.826 l 0.068,-0.181 0.144,-0.051 h 2.036 l 0.048,0.013 0.035,0.043 0.021,0.075 0.009,0.111 -0.009,0.104 -0.021,0.073 -0.035,0.042 -0.048,0.013 h -1.678 v 1.346 h 1.439 l 0.048,0.015 0.036,0.042 0.022,0.072 0.007,0.11 -0.007,0.102 -0.022,0.07 -0.036,0.038 -0.048,0.012 h -1.439 v 1.535 h 1.701 l 0.048,0.013 0.038,0.042 0.023,0.073 z m 1.963,-0.846 c 0,0.17 -0.016,0.326 -0.046,0.468 a 0.916,0.916 0 0 1 -0.159,0.361 0.736,0.736 0 0 1 -0.297,0.23 1.131,1.131 0 0 1 -0.456,0.081 l -0.184,-0.015 -0.167,-0.04 -0.133,-0.053 -0.074,-0.048 -0.03,-0.04 -0.02,-0.048 -0.012,-0.07 -0.003,-0.101 0.005,-0.121 0.018,-0.076 0.032,-0.04 0.044,-0.012 0.068,0.025 0.099,0.055 0.134,0.055 0.179,0.025 0.192,-0.028 0.132,-0.104 0.08,-0.21 a 1.84,1.84 0 0 0 0.027,-0.35 v -3.07 l 0.013,-0.043 0.046,-0.033 0.088,-0.02 0.137,-0.007 0.136,0.007 0.088,0.02 0.046,0.033 0.015,0.043 z m 3.514,0.846 -0.007,0.104 -0.023,0.075 -0.038,0.043 -0.048,0.013 h -2.059 l -0.145,-0.052 -0.067,-0.18 v -3.826 l 0.067,-0.181 0.145,-0.051 h 2.036 l 0.048,0.013 0.035,0.043 0.021,0.075 0.009,0.111 -0.009,0.104 -0.021,0.073 -0.035,0.042 -0.048,0.013 h -1.678 v 1.346 h 1.439 l 0.048,0.015 0.036,0.042 0.022,0.072 0.007,0.11 -0.007,0.102 -0.022,0.07 -0.036,0.038 -0.048,0.012 h -1.439 v 1.535 h 1.701 l 0.048,0.013 0.038,0.042 0.023,0.073 z m 3.793,-0.372 -0.003,0.093 -0.012,0.07 -0.021,0.053 -0.046,0.056 -0.139,0.101 a 1.792,1.792 0 0 1 -0.264,0.133 2.146,2.146 0 0 1 -0.807,0.153 c -0.279,0 -0.53,-0.046 -0.754,-0.139 a 1.523,1.523 0 0 1 -0.574,-0.411 1.89,1.89 0 0 1 -0.365,-0.671 3.026,3.026 0 0 1 -0.127,-0.92 c 0,-0.356 0.046,-0.673 0.138,-0.952 0.092,-0.278 0.22,-0.514 0.386,-0.708 0.166,-0.193 0.364,-0.341 0.595,-0.443 0.231,-0.102 0.487,-0.152 0.767,-0.152 0.124,0 0.245,0.012 0.361,0.035 0.117,0.023 0.226,0.053 0.325,0.088 0.1,0.036 0.188,0.076 0.265,0.123 l 0.161,0.115 0.058,0.068 0.021,0.055 0.013,0.075 0.005,0.103 -0.006,0.113 -0.02,0.078 -0.032,0.046 -0.044,0.015 -0.129,-0.064 -0.214,-0.143 c -0.087,-0.052 -0.193,-0.1 -0.318,-0.143 -0.125,-0.043 -0.274,-0.065 -0.449,-0.065 a 1.09,1.09 0 0 0 -0.918,0.451 c -0.11,0.148 -0.196,0.329 -0.257,0.542 a 2.662,2.662 0 0 0 -0.091,0.731 c 0,0.272 0.029,0.512 0.088,0.721 0.059,0.208 0.143,0.383 0.252,0.524 0.109,0.14 0.244,0.246 0.403,0.318 0.159,0.072 0.339,0.108 0.541,0.108 0.17,0 0.319,-0.021 0.446,-0.063 0.127,-0.042 0.235,-0.089 0.325,-0.141 l 0.22,-0.141 0.136,-0.063 0.04,0.01 0.026,0.039 0.015,0.078 z m 3.445,-3.438 -0.007,0.11 -0.022,0.074 -0.036,0.042 -0.049,0.013 h -1.206 v 3.72 l -0.013,0.046 -0.047,0.032 -0.088,0.019 -0.137,0.009 -0.137,-0.009 -0.089,-0.019 -0.046,-0.032 -0.014,-0.046 v -3.72 h -1.207 l -0.047,-0.013 -0.036,-0.042 -0.021,-0.074 -0.009,-0.11 0.009,-0.111 0.021,-0.078 0.036,-0.043 0.047,-0.013 h 2.984 l 0.049,0.013 0.036,0.043 0.021,0.078 0.007,0.111 z"
     id="path92"
     inkscape:connector-curvature="0"
     style="fill:#666565" />
  <path
     d="m 123.606,307.12 c 0,0.201 -0.037,0.38 -0.111,0.537 -0.074,0.157 -0.177,0.29 -0.308,0.399 a 1.368,1.368 0 0 1 -0.464,0.247 1.94,1.94 0 0 1 -0.575,0.083 2.175,2.175 0 0 1 -0.727,-0.126 1.606,1.606 0 0 1 -0.242,-0.109 l -0.136,-0.096 -0.057,-0.101 -0.018,-0.164 0.007,-0.121 0.02,-0.078 0.033,-0.042 0.047,-0.012 0.131,0.056 0.217,0.123 c 0.088,0.044 0.195,0.086 0.32,0.125 0.125,0.039 0.269,0.058 0.433,0.058 0.124,0 0.237,-0.017 0.34,-0.05 a 0.79,0.79 0 0 0 0.265,-0.141 l 0.171,-0.224 a 0.724,0.724 0 0 0 0.06,-0.302 c 0,-0.122 -0.028,-0.225 -0.083,-0.312 -0.055,-0.087 -0.128,-0.162 -0.219,-0.227 a 1.941,1.941 0 0 0 -0.31,-0.179 l -0.356,-0.166 a 3.734,3.734 0 0 1 -0.354,-0.188 1.496,1.496 0 0 1 -0.309,-0.242 1.132,1.132 0 0 1 -0.22,-0.327 1.078,1.078 0 0 1 -0.084,-0.449 c 0,-0.179 0.032,-0.339 0.098,-0.479 a 0.992,0.992 0 0 1 0.272,-0.354 c 0.116,-0.095 0.254,-0.167 0.414,-0.217 a 1.736,1.736 0 0 1 0.806,-0.05 c 0.096,0.017 0.187,0.039 0.272,0.066 l 0.227,0.093 0.131,0.083 0.042,0.05 0.017,0.046 0.01,0.068 0.003,0.103 -0.005,0.106 -0.015,0.078 -0.028,0.046 -0.042,0.015 -0.114,-0.046 -0.19,-0.104 a 1.63,1.63 0 0 0 -0.267,-0.106 1.162,1.162 0 0 0 -0.658,0 l -0.219,0.127 -0.129,0.189 -0.043,0.232 c 0,0.12 0.028,0.222 0.083,0.309 0.055,0.087 0.128,0.163 0.22,0.229 0.092,0.066 0.196,0.127 0.313,0.183 0.117,0.056 0.236,0.111 0.358,0.167 0.122,0.056 0.241,0.118 0.358,0.186 0.117,0.067 0.221,0.147 0.313,0.239 0.092,0.092 0.166,0.2 0.222,0.325 0.052,0.126 0.08,0.274 0.08,0.444 z m 2.182,-0.464 v 1.582 l -0.013,0.046 -0.046,0.031 -0.089,0.02 -0.136,0.009 -0.138,-0.009 -0.089,-0.02 -0.048,-0.031 -0.014,-0.046 v -1.582 l -1.213,-2.42 -0.045,-0.119 0.017,-0.066 0.09,-0.03 0.174,-0.007 0.161,0.007 0.098,0.018 0.055,0.033 0.035,0.055 0.593,1.233 c 0.056,0.117 0.111,0.24 0.166,0.368 l 0.169,0.388 h 0.007 a 17.585,17.585 0 0 1 0.322,-0.746 l 0.597,-1.24 0.028,-0.057 0.05,-0.035 0.088,-0.018 0.143,-0.007 0.187,0.009 0.095,0.031 0.018,0.066 -0.045,0.116 z m 5.188,1.432 -0.021,0.113 -0.056,0.076 -0.078,0.043 -0.086,0.014 h -0.183 l -0.151,-0.019 -0.123,-0.066 -0.116,-0.131 -0.127,-0.212 -1.353,-2.44 a 13.993,13.993 0 0 1 -0.415,-0.799 h -0.007 a 25.16,25.16 0 0 1 0.013,0.981 v 2.589 l -0.014,0.045 -0.044,0.033 -0.083,0.02 -0.131,0.008 -0.131,-0.008 -0.081,-0.02 -0.043,-0.033 -0.013,-0.045 v -3.958 l 0.073,-0.189 0.159,-0.056 h 0.272 l 0.161,0.017 0.116,0.055 0.1,0.106 0.104,0.171 1.041,1.883 0.186,0.336 c 0.06,0.109 0.117,0.217 0.172,0.323 l 0.164,0.313 0.161,0.31 h 0.003 a 30.486,30.486 0 0 1 -0.009,-0.545 l -0.002,-0.545 v -2.327 l 0.014,-0.043 0.044,-0.035 0.083,-0.021 0.134,-0.007 0.126,0.007 0.083,0.021 0.043,0.035 0.013,0.043 z m 4.012,-0.371 -0.003,0.093 -0.012,0.069 -0.021,0.053 -0.046,0.056 -0.139,0.102 c -0.071,0.045 -0.159,0.089 -0.264,0.132 a 2.118,2.118 0 0 1 -0.807,0.154 c -0.278,0 -0.53,-0.046 -0.754,-0.139 a 1.52,1.52 0 0 1 -0.573,-0.411 1.874,1.874 0 0 1 -0.365,-0.671 3.03,3.03 0 0 1 -0.128,-0.92 c 0,-0.356 0.046,-0.673 0.138,-0.952 0.092,-0.279 0.221,-0.515 0.386,-0.708 0.166,-0.193 0.364,-0.341 0.595,-0.442 0.231,-0.101 0.487,-0.153 0.768,-0.153 0.124,0 0.244,0.012 0.361,0.035 0.117,0.023 0.226,0.052 0.325,0.088 0.1,0.035 0.188,0.076 0.265,0.123 l 0.161,0.114 0.058,0.068 0.021,0.055 0.013,0.074 0.005,0.103 -0.007,0.113 -0.02,0.078 -0.031,0.046 -0.045,0.015 -0.129,-0.064 -0.214,-0.143 a 1.7,1.7 0 0 0 -0.318,-0.143 1.382,1.382 0 0 0 -0.449,-0.065 c -0.19,0 -0.363,0.039 -0.519,0.115 -0.156,0.076 -0.289,0.188 -0.399,0.336 a 1.653,1.653 0 0 0 -0.257,0.542 2.662,2.662 0 0 0 -0.091,0.731 c 0,0.272 0.029,0.512 0.088,0.721 0.059,0.209 0.143,0.383 0.252,0.524 0.109,0.14 0.244,0.246 0.403,0.318 0.159,0.072 0.339,0.107 0.54,0.107 0.17,0 0.319,-0.021 0.446,-0.063 0.127,-0.042 0.235,-0.089 0.325,-0.141 l 0.221,-0.141 0.136,-0.063 0.04,0.01 0.027,0.038 0.015,0.078 z"
     id="path94"
     inkscape:connector-curvature="0"
     style="fill:#999999" />
  <path
     d="m 28.281,305.223 c 0,0.214 -0.035,0.408 -0.106,0.581 -0.071,0.173 -0.172,0.319 -0.303,0.441 -0.131,0.122 -0.293,0.215 -0.484,0.282 -0.191,0.066 -0.419,0.1 -0.685,0.1 h -0.487 v 1.545 l -0.015,0.046 -0.046,0.031 -0.086,0.02 -0.138,0.009 -0.137,-0.009 -0.088,-0.02 -0.047,-0.031 -0.013,-0.046 v -3.958 l 0.07,-0.189 0.156,-0.057 h 0.918 a 2.446,2.446 0 0 1 0.569,0.062 c 0.116,0.025 0.234,0.073 0.355,0.143 0.12,0.069 0.223,0.155 0.307,0.257 0.084,0.102 0.148,0.219 0.194,0.353 0.046,0.134 0.066,0.279 0.066,0.44 z m -0.6,0.047 a 0.882,0.882 0 0 0 -0.098,-0.438 0.685,0.685 0 0 0 -0.242,-0.262 0.792,0.792 0 0 0 -0.298,-0.109 1.95,1.95 0 0 0 -0.3,-0.023 h -0.527 v 1.721 h 0.514 c 0.172,0 0.315,-0.022 0.429,-0.066 a 0.774,0.774 0 0 0 0.463,-0.466 c 0.04,-0.11 0.059,-0.229 0.059,-0.357 z m 5.073,0.792 c 0,0.347 -0.041,0.66 -0.123,0.938 a 1.958,1.958 0 0 1 -0.367,0.711 1.592,1.592 0 0 1 -0.611,0.451 2.173,2.173 0 0 1 -0.859,0.157 c -0.323,0 -0.602,-0.048 -0.837,-0.144 -0.235,-0.096 -0.43,-0.236 -0.583,-0.419 -0.154,-0.184 -0.268,-0.411 -0.343,-0.683 -0.075,-0.272 -0.113,-0.584 -0.113,-0.938 0,-0.338 0.041,-0.646 0.123,-0.922 0.082,-0.276 0.205,-0.511 0.368,-0.705 0.163,-0.194 0.368,-0.342 0.613,-0.447 0.245,-0.105 0.532,-0.158 0.859,-0.158 0.316,0 0.591,0.047 0.825,0.143 0.234,0.096 0.43,0.234 0.585,0.416 0.156,0.183 0.271,0.408 0.348,0.676 0.077,0.269 0.115,0.577 0.115,0.924 z m -0.6,0.04 c 0,-0.243 -0.021,-0.469 -0.065,-0.678 a 1.556,1.556 0 0 0 -0.215,-0.543 c -0.101,-0.154 -0.235,-0.273 -0.403,-0.36 -0.168,-0.087 -0.375,-0.129 -0.623,-0.129 -0.248,0 -0.456,0.046 -0.624,0.139 -0.168,0.093 -0.304,0.217 -0.409,0.372 -0.105,0.155 -0.18,0.335 -0.226,0.542 -0.046,0.207 -0.068,0.424 -0.068,0.651 0,0.252 0.021,0.484 0.063,0.696 0.042,0.212 0.112,0.395 0.212,0.549 0.1,0.153 0.232,0.273 0.399,0.358 0.167,0.085 0.376,0.127 0.628,0.127 0.25,0 0.459,-0.046 0.63,-0.139 0.171,-0.093 0.307,-0.218 0.411,-0.376 0.104,-0.158 0.178,-0.341 0.222,-0.549 0.045,-0.208 0.068,-0.428 0.068,-0.66 z m 5.609,2.029 -0.039,0.075 -0.074,0.043 -0.114,0.021 -0.167,0.007 -0.174,-0.007 -0.118,-0.021 -0.07,-0.043 -0.036,-0.075 -0.899,-3.239 h -0.006 l -0.829,3.239 -0.033,0.075 -0.067,0.043 -0.111,0.021 -0.174,0.007 -0.182,-0.007 -0.12,-0.021 -0.071,-0.043 -0.035,-0.075 -1.134,-3.962 -0.021,-0.119 0.026,-0.066 0.092,-0.03 0.169,-0.007 0.162,0.005 0.092,0.018 0.042,0.036 0.019,0.06 0.964,3.594 h 0.003 l 0.915,-3.588 0.025,-0.061 0.048,-0.038 0.095,-0.02 0.16,-0.007 0.148,0.007 0.088,0.02 0.048,0.038 0.025,0.061 0.984,3.588 h 0.007 l 0.945,-3.591 0.02,-0.058 0.042,-0.038 0.089,-0.02 0.154,-0.007 0.158,0.009 0.084,0.031 0.025,0.067 -0.018,0.119 z m 4.327,-0.109 -0.007,0.104 -0.023,0.075 -0.038,0.043 -0.048,0.013 h -2.059 l -0.145,-0.051 -0.067,-0.181 v -3.826 l 0.067,-0.181 0.145,-0.051 h 2.035 l 0.048,0.013 0.035,0.043 0.022,0.075 0.008,0.111 -0.008,0.104 -0.022,0.073 -0.035,0.042 -0.048,0.013 h -1.677 v 1.346 h 1.439 l 0.048,0.015 0.036,0.041 0.022,0.073 0.007,0.11 -0.007,0.103 -0.022,0.069 -0.036,0.038 -0.048,0.012 h -1.439 v 1.535 h 1.701 l 0.048,0.013 0.038,0.042 0.023,0.072 z m 3.789,0.149 -0.01,0.046 -0.043,0.033 -0.093,0.02 -0.159,0.007 -0.141,-0.007 -0.088,-0.021 -0.052,-0.042 -0.031,-0.066 -0.395,-1.011 a 3.787,3.787 0 0 0 -0.144,-0.316 1.026,1.026 0 0 0 -0.178,-0.249 c -0.068,-0.07 -0.149,-0.124 -0.242,-0.163 -0.093,-0.039 -0.205,-0.058 -0.335,-0.058 h -0.381 v 1.827 l -0.015,0.046 -0.046,0.032 -0.086,0.02 -0.138,0.008 -0.138,-0.008 -0.088,-0.02 -0.046,-0.032 -0.013,-0.046 v -3.972 l 0.068,-0.181 0.145,-0.051 h 0.912 c 0.108,0 0.198,0.003 0.27,0.009 l 0.194,0.018 c 0.166,0.029 0.313,0.074 0.439,0.136 0.127,0.062 0.234,0.141 0.32,0.235 a 0.95,0.95 0 0 1 0.194,0.327 c 0.043,0.123 0.065,0.258 0.065,0.406 0,0.144 -0.02,0.272 -0.058,0.386 -0.038,0.114 -0.095,0.214 -0.167,0.302 -0.072,0.088 -0.16,0.163 -0.262,0.227 a 1.745,1.745 0 0 1 -0.342,0.163 l 0.192,0.118 0.161,0.17 0.141,0.229 c 0.044,0.086 0.088,0.184 0.133,0.292 l 0.384,0.945 0.06,0.167 z m -0.859,-3.014 c 0,-0.168 -0.038,-0.31 -0.113,-0.426 -0.075,-0.116 -0.201,-0.199 -0.378,-0.25 l -0.187,-0.033 a 2.879,2.879 0 0 0 -0.273,-0.01 h -0.481 v 1.445 h 0.557 c 0.15,0 0.28,-0.018 0.39,-0.055 a 0.766,0.766 0 0 0 0.273,-0.152 l 0.161,-0.23 a 0.802,0.802 0 0 0 0.051,-0.289 z"
     id="path96"
     inkscape:connector-curvature="0"
     style="fill:#666565" />
  <path
     d="m 128.045,282.795 a 3.485,3.485 0 0 0 -3.121,1.805 3.862,3.862 0 0 1 3.043,-1.496 c 1.199,0 2.254,0.539 2.966,1.393 a 3.482,3.482 0 0 0 -2.888,-1.702 z"
     id="path98"
     inkscape:connector-curvature="0"
     style="fill:#ffffff" />
  <path
     d="m 427.642,283.298 c 0,3.506 4.146,3.005 4.146,0.553 v -5.804 h -4.146 z"
     id="path100"
     inkscape:connector-curvature="0"
     style="fill:#80838a" />
  <path
     d="m 421.93,286.984 c 0,1.732 1.196,2.764 2.948,2.764 h 9.95 c 1.478,0 2.671,-1.021 2.671,-2.488 v -7.278 c 0,-0.884 -0.658,-1.842 -1.474,-1.842 h -2.304 v 5.988 c 0,4.548 -7.923,4.514 -7.923,0.092 v -6.172 h -1.751 c -1.139,0 -2.118,0.722 -2.118,1.842 v 7.094 z m -13.772,-7.216 c 0,0.945 0.796,1.742 1.792,1.742 1.045,0 1.866,-0.771 1.866,-1.742 0,-0.971 -0.821,-1.742 -1.866,-1.742 -0.996,0 -1.792,0.771 -1.792,1.742 z m 0.298,3.459 h 3.086 v 9.979 h -3.086 z m 5.949,-3.459 c 0,0.945 0.82,1.742 1.816,1.742 1.021,0 1.842,-0.771 1.842,-1.742 0,-0.971 -0.821,-1.742 -1.842,-1.742 -0.996,0 -1.816,0.771 -1.816,1.742 z m 0.299,3.459 h 3.086 v 9.979 h -3.086 z m -11.151,-4.356 -2.688,10.578 c 0,0 -2.066,-7.939 -2.415,-9.084 -0.323,-1.12 -1.02,-1.618 -1.99,-1.618 -0.996,0 -1.668,0.498 -2.016,1.618 -0.324,1.145 -2.39,9.084 -2.39,9.084 l -2.713,-10.578 h -3.235 c 0,0 3.111,11.274 3.534,12.594 0.323,1.02 1.12,1.842 2.265,1.842 1.344,0 1.967,-0.971 2.239,-1.842 0.3,-0.896 2.315,-8.337 2.315,-8.337 0,0 2.016,7.441 2.29,8.337 0.299,0.871 0.92,1.842 2.239,1.842 1.17,0 1.941,-0.822 2.29,-1.842 0.423,-1.319 3.534,-12.594 3.534,-12.594 z"
     id="path102"
     inkscape:connector-curvature="0"
     style="fill:#80838a" />
  <g
     id="g174">
    <path
       d="m 675.108,0 c -87.83,0 -159.287,71.454 -159.287,159.285 0,87.831 71.456,159.287 159.287,159.287 87.831,0 159.287,-71.456 159.287,-159.287 C 834.395,71.454 762.939,0 675.108,0 Z m 0,187.632 c -15.63,0 -28.347,-12.716 -28.347,-28.347 0,-15.63 12.717,-28.346 28.347,-28.346 15.63,0 28.347,12.716 28.347,28.346 0,15.63 -12.717,28.347 -28.347,28.347 z"
       id="path104"
       inkscape:connector-curvature="0"
       style="fill:#efebe4" />
    <path
       d="m 675.108,4.888 c -85.134,0 -154.397,69.263 -154.397,154.397 0,85.135 69.263,154.397 154.397,154.397 85.135,0 154.397,-69.261 154.397,-154.397 0,-85.134 -69.262,-154.397 -154.397,-154.397 z m 0,182.744 c -15.63,0 -28.347,-12.716 -28.347,-28.347 0,-15.63 12.717,-28.346 28.347,-28.346 15.63,0 28.347,12.716 28.347,28.346 0,15.63 -12.717,28.347 -28.347,28.347 z"
       id="path106"
       inkscape:connector-curvature="0"
       style="fill:#2792ac" />
    <path
       d="m 675.108,187.632 c -15.63,0 -28.347,-12.716 -28.347,-28.347 0,-15.63 12.717,-28.346 28.347,-28.346 15.63,0 28.347,12.716 28.347,28.346 0,15.63 -12.717,28.347 -28.347,28.347 z m 26.001,-28.347 c 0,-14.336 -11.663,-26 -26.001,-26 -14.336,0 -25.999,11.664 -25.999,26 0,14.337 11.663,26.001 25.999,26.001 14.338,-0.001 26.001,-11.664 26.001,-26.001 z"
       id="path108"
       inkscape:connector-curvature="0"
       style="fill:#efede7" />
    <path
       d="m 675.108,178.41 v -0.259 c -5.201,0 -9.916,-2.115 -13.334,-5.532 a 18.804,18.804 0 0 1 -5.532,-13.334 c 0,-5.201 2.116,-9.916 5.532,-13.333 a 18.804,18.804 0 0 1 13.334,-5.532 c 5.201,0 9.916,2.115 13.334,5.532 a 18.804,18.804 0 0 1 5.532,13.333 c 0,5.202 -2.116,9.917 -5.532,13.334 a 18.804,18.804 0 0 1 -13.334,5.532 v 0.518 c 10.688,-0.001 19.383,-8.695 19.383,-19.383 -10e-4,-10.688 -8.696,-19.382 -19.383,-19.383 -10.688,0.001 -19.383,8.695 -19.384,19.383 10e-4,10.689 8.696,19.383 19.384,19.383 z"
       id="path110"
       inkscape:connector-curvature="0"
       style="fill:#bcbcbc" />
    <path
       d="m 675.108,12.608 c -80.877,0 -146.677,65.8 -146.677,146.677 0,80.879 65.8,146.677 146.677,146.677 80.878,0 146.677,-65.798 146.677,-146.677 0,-80.877 -65.798,-146.677 -146.677,-146.677 z m 0,175.024 c -15.63,0 -28.347,-12.716 -28.347,-28.347 0,-15.63 12.717,-28.346 28.347,-28.346 15.63,0 28.347,12.716 28.347,28.346 0,15.63 -12.717,28.347 -28.347,28.347 z"
       id="path112"
       inkscape:connector-curvature="0"
       style="fill:#ffffff" />
    <path
       d="m 565.09,51.064 c 26.367,13.156 65.868,21.516 110.017,21.516 44.15,0 83.652,-8.36 110.019,-21.516 C 757.1,22.577 718.131,4.888 675.107,4.888 c -43.022,0 -81.992,17.689 -110.017,46.176 z"
       id="path114"
       inkscape:connector-curvature="0"
       style="fill:#ffffff" />
    <path
       d="m 565.09,51.064 c 26.367,13.156 65.868,21.516 110.017,21.516 44.15,0 83.652,-8.36 110.019,-21.516"
       stroke-miterlimit="10"
       id="path116"
       inkscape:connector-curvature="0"
       style="fill:none;stroke:#999999;stroke-width:1.72500002;stroke-miterlimit:10" />
    <g
       id="g120"
       style="fill:#888c88">
      <path
         d="m 711.375,29.815 v -0.226 h 1.611 v 0.226 h -0.672 v 1.789 h -0.268 v -1.789 z m 2.206,-0.226 0.635,1.693 0.638,-1.693 h 0.367 v 2.015 h -0.254 v -1.676 h -0.006 l -0.629,1.676 h -0.229 l -0.629,-1.676 h -0.006 v 1.676 h -0.254 v -2.015 z"
         id="path118"
         inkscape:connector-curvature="0" />
    </g>
    <g
       id="g126"
       style="fill:#2792ac">
      <path
         d="m 695.603,37.257 c 0,5.119 6.044,4.387 6.044,0.807 V 29.59 h -6.044 z"
         id="path122"
         inkscape:connector-curvature="0" />
      <path
         d="m 687.269,42.633 c 0,2.527 1.742,4.033 4.301,4.033 h 14.517 c 2.161,0 3.904,-1.484 3.904,-3.635 V 32.417 c 0,-1.29 -0.957,-2.688 -2.151,-2.688 h -3.366 v 8.732 c 0,6.635 -11.56,6.581 -11.56,0.14 v -9.012 h -2.559 c -1.667,0 -3.097,1.054 -3.097,2.688 z"
         id="path124"
         inkscape:connector-curvature="0" />
    </g>
    <g
       id="g130"
       style="fill:#888c88">
      <path
         d="m 667.17,32.127 c 0,1.376 1.161,2.538 2.613,2.538 1.527,0 2.721,-1.129 2.721,-2.538 0,-1.419 -1.194,-2.538 -2.721,-2.538 -1.451,-0.01 -2.613,1.119 -2.613,2.538 z m 4.936,19.604 v -14.56 h -4.495 v 14.56 z m 4.183,-19.604 c 0,1.376 1.194,2.538 2.656,2.538 1.484,0 2.688,-1.129 2.688,-2.538 0,-1.419 -1.194,-2.538 -2.688,-2.538 -1.462,-0.01 -2.656,1.119 -2.656,2.538 z m 4.936,19.604 v -14.56 h -4.506 v 14.56 z m -20.776,-20.916 -3.925,15.432 c 0,0 -3.011,-11.582 -3.527,-13.259 -0.473,-1.635 -1.484,-2.355 -2.904,-2.355 -1.452,0 -2.43,0.731 -2.947,2.355 -0.473,1.667 -3.484,13.259 -3.484,13.259 l -3.947,-15.432 h -4.721 c 0,0 4.538,16.453 5.162,18.378 0.473,1.484 1.635,2.688 3.301,2.688 1.957,0 2.871,-1.419 3.269,-2.688 0.441,-1.312 3.377,-12.162 3.377,-12.162 0,0 2.947,10.861 3.344,12.162 0.441,1.269 1.344,2.688 3.269,2.688 1.71,0 2.828,-1.194 3.344,-2.688 0.613,-1.925 5.162,-18.378 5.162,-18.378 z"
         id="path128"
         inkscape:connector-curvature="0" />
    </g>
    <g
       id="g138"
       style="fill:#cbd3d2">
      <path
         d="m 658.006,275.328 c -3.631,-0.002 -6.059,-2.65 -6.059,-5.864 0,-3.212 2.432,-5.893 6.054,-5.883 h 34.215 c 3.62,-0.01 6.052,2.671 6.052,5.883 0,3.214 -2.427,5.862 -6.058,5.864 z m 0.011,-10.303 c -2.876,0.005 -4.64,1.985 -4.64,4.432 0,2.447 1.755,4.441 4.64,4.431 h 34.181 c 2.887,0.01 4.64,-1.983 4.64,-4.431 0,-2.447 -1.765,-4.427 -4.64,-4.432 z"
         id="path132"
         inkscape:connector-curvature="0" />
      <path
         d="m 656.542,266.679 h 1.675 l 2.316,3.857 -10e-4,-3.857 h 1.66 v 5.531 h -1.658 l -2.327,-3.857 v 3.857 h -1.664 z m 14.678,0.569 h 1.617 v 0.744 h 0.874 v 0.547 h -0.874 l 0.002,3.67 h -1.619 l 10e-4,-3.67 h -0.878 v -0.545 l 0.878,-0.002 z m -8.103,1.283 h 1.616 v 3.679 h -1.616 z m -0.005,-1.854 h 1.62 v 1.131 h -1.62 z m 28.314,1.605 c -1.304,0 -2.361,0.923 -2.361,2.064 0,1.14 1.057,2.065 2.361,2.065 1.305,0 2.36,-0.925 2.36,-2.065 0,-1.141 -1.055,-2.064 -2.36,-2.064 m 0.649,2.058 -0.002,0.779 c 0,0.586 -0.336,0.827 -0.661,0.827 -0.324,0 -0.662,-0.241 -0.662,-0.827 l 10e-4,-0.793 10e-4,-0.766 c 0,-0.584 0.34,-0.824 0.661,-0.824 0.323,0 0.661,0.24 0.661,0.824 0,0.223 -10e-4,0.635 0.002,0.782 z m -5.119,0.012 v -0.658 c 0,-0.569 -0.382,-0.713 -0.633,-0.713 -0.258,0 -0.633,0.144 -0.633,0.713 v 1.31 c 0,0.57 0.376,0.716 0.633,0.716 0.251,0 0.633,-0.147 0.633,-0.716 z m -0.011,-3.673 h 1.593 v 5.53 h -1.597 l -10e-4,-0.212 a 1.903,1.903 0 0 1 -1.86,0.139 1.964,1.964 0 0 1 -1.104,-1.825 c 0,-0.97 0.888,-2.031 2.053,-1.925 0.383,0.035 0.656,0.179 0.915,0.329 z m -18.431,1.683 c 0.605,-0.018 1.829,0.389 1.82,1.844 -0.002,0.26 -10e-4,2.002 -10e-4,2.002 h -1.604 v -2.415 c 0,-0.321 -0.298,-0.677 -0.739,-0.677 -0.44,0 -0.767,0.356 -0.767,0.677 l 0.002,2.415 h -1.603 l -0.002,-3.677 1.605,-0.002 c 0,0 -0.002,0.296 0,0.387 0.31,-0.302 0.756,-0.539 1.289,-0.554 m 13.127,0 c 0.604,-0.018 1.83,0.389 1.821,1.844 -0.002,0.26 0,2.002 0,2.002 h -1.606 v -2.415 c 0,-0.321 -0.298,-0.677 -0.739,-0.677 -0.44,0 -0.766,0.356 -0.766,0.677 l 0.002,2.415 h -1.603 v -3.677 l 1.603,-0.002 c 0,0 -0.002,0.296 0,0.387 0.31,-0.302 0.755,-0.539 1.288,-0.554 m -5.082,2.56 10e-4,0.224 c 0,0.672 -0.429,0.822 -0.668,0.822 -0.238,0 -0.676,-0.15 -0.676,-0.822 l 0.002,-0.759 c 0,0 3.043,0.002 3.043,-0.002 0,-1.14 -1.069,-2.084 -2.383,-2.084 -1.314,0 -2.378,0.923 -2.378,2.065 0,1.142 1.065,2.064 2.378,2.064 1.09,0 2.011,-0.64 2.292,-1.509 z m -1.341,-1.109 c -0.003,-0.322 0.003,-0.537 0.106,-0.721 a 0.655,0.655 0 0 1 0.568,-0.336 c 0.21,0.002 0.442,0.109 0.567,0.336 0.103,0.184 0.109,0.399 0.106,0.721 z m 18.901,-2.527 c 0.157,0 0.298,-0.01 0.298,-0.205 0,-0.156 -0.137,-0.184 -0.267,-0.184 h -0.252 v 0.389 z m -0.22,0.708 h -0.185 v -1.258 h 0.464 c 0.29,0 0.433,0.109 0.433,0.358 0,0.225 -0.137,0.323 -0.317,0.346 l 0.347,0.554 h -0.207 l -0.323,-0.546 H 693.9 v 0.546 z"
         id="path134"
         inkscape:connector-curvature="0" />
      <path
         d="m 694.122,268.275 c 0.48,0 0.859,-0.387 0.859,-0.913 0,-0.517 -0.378,-0.906 -0.859,-0.906 -0.484,0 -0.864,0.389 -0.864,0.906 0,0.526 0.379,0.913 0.864,0.913 m -1.076,-0.913 a 1.074,1.074 0 1 1 2.148,0 c 0,0.632 -0.494,1.095 -1.072,1.095 a 1.075,1.075 0 0 1 -1.076,-1.095"
         id="path136"
         inkscape:connector-curvature="0" />
    </g>
    <g
       id="g160">
      <path
         d="m 746.388,150.015 c 7.297,0 13.212,4.121 13.212,9.202 0,5.082 -5.916,9.203 -13.212,9.203 -7.297,0 -13.212,-4.121 -13.212,-9.203 -0.001,-5.081 5.915,-9.202 13.212,-9.202 z"
         id="path140"
         inkscape:connector-curvature="0"
         style="fill:#ffffff" />
      <g
         id="g144"
         style="fill:#9d8354">
        <path
           d="m 743.545,164.654 h 0.408 v 0.021 c 0,0.128 0.04,0.225 0.119,0.292 0.079,0.067 0.195,0.1 0.347,0.1 a 0.435,0.435 0 0 0 0.271,-0.073 0.244,0.244 0 0 0 0.096,-0.206 c 0,-0.074 -0.021,-0.129 -0.063,-0.165 -0.042,-0.035 -0.126,-0.062 -0.253,-0.08 l -0.283,-0.04 c -0.207,-0.03 -0.36,-0.097 -0.457,-0.2 -0.098,-0.103 -0.146,-0.248 -0.146,-0.435 0,-0.222 0.07,-0.403 0.211,-0.542 a 0.762,0.762 0 0 1 0.559,-0.209 c 0.249,0 0.444,0.066 0.585,0.197 0.141,0.132 0.211,0.312 0.211,0.54 v 0.018 h -0.399 c -0.009,-0.114 -0.046,-0.198 -0.112,-0.254 a 0.415,0.415 0 0 0 -0.279,-0.084 0.438,0.438 0 0 0 -0.261,0.068 0.222,0.222 0 0 0 -0.092,0.192 c 0,0.066 0.018,0.115 0.054,0.145 0.036,0.031 0.125,0.057 0.268,0.08 l 0.296,0.044 c 0.205,0.032 0.356,0.101 0.452,0.208 0.096,0.107 0.145,0.259 0.145,0.454 0,0.252 -0.072,0.443 -0.217,0.574 -0.145,0.131 -0.356,0.196 -0.634,0.196 -0.265,0 -0.469,-0.069 -0.612,-0.206 -0.143,-0.138 -0.214,-0.334 -0.214,-0.589 z m 3.274,0.234 a 0.858,0.858 0 0 1 -0.255,0.45 0.647,0.647 0 0 1 -0.442,0.159 0.628,0.628 0 0 1 -0.523,-0.244 c -0.128,-0.162 -0.193,-0.383 -0.193,-0.661 0,-0.278 0.064,-0.498 0.192,-0.659 a 0.634,0.634 0 0 1 0.524,-0.242 c 0.23,0 0.407,0.084 0.531,0.251 0.124,0.167 0.186,0.406 0.186,0.715 v 0.072 h -1.02 a 0.499,0.499 0 0 0 0.085,0.295 c 0.055,0.073 0.127,0.11 0.216,0.11 a 0.27,0.27 0 0 0 0.181,-0.064 0.36,0.36 0 0 0 0.11,-0.182 z m -0.987,-0.51 0.597,0.002 a 0.396,0.396 0 0 0 -0.09,-0.247 0.266,0.266 0 0 0 -0.209,-0.09 0.264,0.264 0 0 0 -0.208,0.091 0.384,0.384 0 0 0 -0.09,0.244 z m 2.573,0.787 c 0,0.066 0.004,0.116 0.013,0.151 0.009,0.035 0.023,0.062 0.044,0.082 v 0.038 h -0.407 l -0.018,-0.184 a 0.616,0.616 0 0 1 -0.217,0.185 0.624,0.624 0 0 1 -0.28,0.06 0.506,0.506 0 0 1 -0.388,-0.151 0.576,0.576 0 0 1 -0.142,-0.409 c 0,-0.16 0.043,-0.279 0.128,-0.358 0.085,-0.079 0.231,-0.131 0.437,-0.155 l 0.115,-0.011 c 0.238,-0.023 0.356,-0.088 0.356,-0.195 0,-0.064 -0.023,-0.112 -0.069,-0.143 a 0.369,0.369 0 0 0 -0.206,-0.047 c -0.092,0 -0.16,0.022 -0.203,0.067 -0.043,0.045 -0.065,0.115 -0.067,0.211 l -0.387,0.002 v -0.006 c 0,-0.198 0.058,-0.35 0.174,-0.454 0.116,-0.104 0.284,-0.156 0.503,-0.156 0.108,0 0.204,0.015 0.287,0.045 0.083,0.03 0.153,0.074 0.209,0.134 a 0.387,0.387 0 0 1 0.09,0.173 c 0.018,0.07 0.026,0.175 0.026,0.317 z m -0.361,-0.541 c -0.046,0.036 -0.134,0.062 -0.264,0.081 a 0.656,0.656 0 0 1 -0.036,0.006 c -0.139,0.02 -0.226,0.045 -0.263,0.075 -0.037,0.03 -0.055,0.076 -0.055,0.138 0,0.066 0.018,0.118 0.054,0.157 a 0.19,0.19 0 0 0 0.145,0.059 0.393,0.393 0 0 0 0.304,-0.127 0.47,0.47 0 0 0 0.117,-0.331 l -0.001,-0.037 a 0.037,0.037 0 0 0 -10e-4,-0.021 z m 0.689,0.812 v -2.259 h 0.366 v 2.259 z"
           id="path142"
           inkscape:connector-curvature="0" />
      </g>
      <path
         d="m 761.175,159.224 1.58,1.692 -2.258,1.355 0.634,2.62 -2.429,0.067 -0.167,2.854 -2.708,-0.746 -0.457,2.693 -2.506,-0.995 -1.306,2.375 -1.957,-1.693 -1.707,2.406 -1.879,-2.042 -2.054,1.907 -1.341,-2.246 -2.422,1.425 -0.837,-2.515 -2.804,1.105 -0.413,-2.479 -2.508,0.156 0.375,-2.524 -2.566,-0.011 0.6,-2.757 -1.99,-1.118 1.584,-1.799 -1.422,-2.501 2.312,-0.731 -0.609,-2.676 2.536,-0.034 0.294,-2.654 2.294,0.761 0.759,-2.587 2.317,1.254 0.959,-2.288 2.007,1.395 1.41,-2.175 1.896,1.895 1.675,-1.733 1.469,2.184 2.294,-1.474 0.91,2.41 2.306,-1.091 0.593,2.515 2.733,-0.487 -0.083,2.461 2.762,0.298 -0.782,2.378 2.406,1.031 z m -1.575,-0.006 c 0,-5.081 -5.916,-9.202 -13.212,-9.202 -7.297,0 -13.212,4.121 -13.212,9.202 0,5.082 5.916,9.203 13.212,9.203 7.297,0 13.212,-4.121 13.212,-9.203 z"
         id="path146"
         inkscape:connector-curvature="0"
         style="fill:#9d8354" />
      <g
         id="g150"
         style="fill:#9d8354">
        <path
           d="m 742.013,154.482 c 0,-0.611 0.347,-0.763 0.593,-0.763 0.246,0 0.593,0.152 0.593,0.763 0,0.611 -0.346,0.763 -0.593,0.763 -0.246,0 -0.593,-0.152 -0.593,-0.763 z m -0.454,0 c 0,1.023 0.759,1.148 1.048,1.148 0.289,0 1.047,-0.124 1.047,-1.148 0,-1.023 -0.758,-1.147 -1.047,-1.147 -0.29,0 -1.048,0.124 -1.048,1.147 z m 2.858,1.09 h -0.426 v -1.31 h -0.234 v -0.305 h 0.234 v -0.131 c 0,-0.335 0.182,-0.463 0.474,-0.463 0.125,0 0.182,0.003 0.219,0.006 v 0.343 h -0.118 c -0.146,0 -0.149,0.046 -0.149,0.181 v 0.064 h 0.276 v 0.305 h -0.276 z m 0.95,0 h -0.425 v -1.31 h -0.234 v -0.305 h 0.234 v -0.131 c 0,-0.335 0.182,-0.463 0.474,-0.463 0.124,0 0.182,0.003 0.218,0.006 v 0.343 h -0.118 c -0.146,0 -0.149,0.046 -0.149,0.181 v 0.064 h 0.276 v 0.305 h -0.276 z m 0.896,-1.614 v 1.615 h -0.425 v -1.615 z m 0,-0.195 h -0.425 v -0.394 h 0.425 z m 1.738,1.22 a 0.692,0.692 0 0 1 -0.739,0.631 c -0.608,0 -0.748,-0.464 -0.748,-0.803 0,-0.521 0.228,-0.894 0.776,-0.894 0.255,0 0.675,0.116 0.714,0.619 h -0.432 c -0.018,-0.106 -0.085,-0.273 -0.283,-0.26 -0.268,0 -0.338,0.266 -0.338,0.466 0,0.175 0.006,0.523 0.328,0.523 0.216,0 0.289,-0.206 0.289,-0.282 z m 0.674,-1.025 v 1.615 h -0.426 v -1.615 z m 0,-0.195 h -0.426 v -0.394 h 0.426 z m 1.238,1.23 c 0,0.194 -0.191,0.316 -0.379,0.316 -0.082,0 -0.197,-0.046 -0.197,-0.194 0,-0.175 0.13,-0.215 0.288,-0.242 0.176,-0.027 0.245,-0.054 0.288,-0.088 z m 0.416,-0.609 c 0,-0.398 -0.416,-0.468 -0.643,-0.468 -0.33,0 -0.674,0.07 -0.722,0.565 h 0.41 c 0.012,-0.094 0.048,-0.225 0.261,-0.225 0.109,0 0.279,0.009 0.279,0.188 0,0.091 -0.082,0.118 -0.149,0.127 l -0.382,0.058 c -0.27,0.039 -0.471,0.2 -0.471,0.515 0,0.332 0.249,0.469 0.492,0.469 a 0.653,0.653 0 0 0 0.521,-0.235 0.672,0.672 0 0 0 0.04,0.193 h 0.458 v -0.063 c -0.052,-0.018 -0.094,-0.061 -0.094,-0.252 z m 0.756,1.188 h -0.425 v -2.18 h 0.425 z"
           id="path148"
           inkscape:connector-curvature="0" />
      </g>
      <path
         d="m 746.388,167.659 c 6.827,0 12.381,-3.786 12.381,-8.441 0,-4.654 -5.554,-8.441 -12.381,-8.441 -6.827,0 -12.381,3.787 -12.381,8.441 0,4.654 5.554,8.441 12.381,8.441 z m -12.076,-8.441 c 0,-4.486 5.417,-8.136 12.076,-8.136 6.659,0 12.076,3.65 12.076,8.136 0,4.486 -5.417,8.136 -12.076,8.136 -6.659,0 -12.076,-3.649 -12.076,-8.136 z"
         id="path152"
         inkscape:connector-curvature="0"
         style="fill:#9d8354" />
      <g
         id="g158"
         style="fill:#9d8354">
        <path
           d="m 754.175,162.058 a 2.626,2.626 0 0 0 2.623,-2.623 2.626,2.626 0 0 0 -2.623,-2.623 H 738.47 a 2.626,2.626 0 0 0 -2.623,2.623 2.626,2.626 0 0 0 2.623,2.623 z m -15.706,-0.681 a 1.944,1.944 0 0 1 -1.942,-1.942 c 0,-1.071 0.871,-1.942 1.942,-1.942 h 15.705 c 1.07,0 1.942,0.871 1.942,1.942 a 1.944,1.944 0 0 1 -1.942,1.942 z"
           id="path154"
           inkscape:connector-curvature="0" />
        <path
           d="m 737.797,160.687 v -2.47 h 0.772 l 1.03,1.602 0.003,-1.601 h 0.801 v 2.47 h -0.801 c -0.069,-0.152 -0.992,-1.593 -0.992,-1.593 v 1.593 z m 4.871,-1.65 a 0.673,0.673 0 0 0 0.087,0.081 c 0.075,-0.05 0.135,-0.095 0.215,-0.122 0.609,-0.208 0.925,0.142 0.986,0.199 0.278,0.257 0.193,0.955 0.21,1.492 h -0.809 c 0,0 0.013,-1.005 0.002,-1.142 -0.01,-0.119 -0.18,-0.264 -0.28,-0.268 -0.167,-0.007 -0.375,0.08 -0.384,0.269 -0.018,0.384 0.006,1.141 0.006,1.141 h -0.792 v -1.652 z m 1.883,-0.189 -0.001,-0.235 h 0.793 l -10e-4,0.234 0.378,0.001 -0.002,0.221 h -0.375 v 1.618 h -0.792 v -1.618 h -0.358 v -0.221 z m 1.104,1.009 c -0.014,-0.541 0.488,-0.882 0.914,-0.904 0.202,-0.01 0.409,-0.026 0.591,0.059 0.115,0.054 0.247,0.072 0.342,0.163 0.188,0.178 0.31,0.405 0.31,0.695 l -1.354,-0.004 c 0,0.213 -0.119,0.698 0.252,0.706 0.142,0.003 0.222,-0.022 0.274,-0.144 a 0.648,0.648 0 0 0 0.031,-0.302 c 0.137,0.008 0.711,-0.009 0.781,-0.006 -0.155,0.432 -0.623,0.619 -1.075,0.619 -0.186,-0.001 -1.045,-0.086 -1.066,-0.882 z m 0.803,-0.258 0.546,-0.002 c 0,-0.093 0,-0.144 -0.011,-0.221 -0.014,-0.102 -0.096,-0.247 -0.268,-0.24 -0.233,0.01 -0.267,0.142 -0.267,0.286 z m 6.568,0.611 c -0.142,-0.187 -0.163,-0.553 -0.031,-0.826 0.115,-0.238 0.414,-0.413 0.571,-0.463 0.213,-0.069 0.558,-0.088 0.849,-0.018 a 0.977,0.977 0 0 1 0.649,0.481 c 0.13,0.237 0.107,0.626 -0.039,0.827 -0.094,0.129 -0.303,0.352 -0.536,0.414 -0.203,0.054 -0.621,0.084 -0.841,0.015 a 1.104,1.104 0 0 1 -0.622,-0.43 z m 1.01,0.284 c 0.224,0.002 0.275,-0.173 0.279,-0.283 0.009,-0.251 -0.005,-0.563 -0.005,-0.827 0.001,-0.136 -0.076,-0.315 -0.28,-0.315 -0.292,0 -0.282,0.229 -0.285,0.315 -0.006,0.145 -0.006,0.639 -0.003,0.826 0.002,0.062 0.032,0.283 0.294,0.284 z m -1.395,0.193 h -0.713 c -0.003,0 -0.016,-0.096 -0.016,-0.096 -0.199,0.155 -1,0.232 -1.309,-0.42 -0.028,-0.058 -0.108,-0.481 0.008,-0.741 0.189,-0.422 0.625,-0.515 0.935,-0.497 0.124,0.007 0.363,0.135 0.363,0.135 l 0.002,-0.903 h 0.73 c 0,0.001 0.009,2.522 0,2.522 z m -0.743,-0.415 c 0.023,-0.073 0.011,-0.546 0.011,-0.777 a 0.462,0.462 0 0 0 -0.063,-0.185 c -0.06,-0.074 -0.107,-0.113 -0.229,-0.107 a 0.271,0.271 0 0 0 -0.252,0.231 c -0.018,0.232 -0.031,0.47 0.005,0.766 0.008,0.07 0.041,0.137 0.105,0.182 0.174,0.122 0.379,0.028 0.423,-0.11 z m -10.346,0.415 v -1.669 h -0.817 v 1.669 z m 0,-1.95 v -0.52 h -0.817 v 0.52 z m 7.3,0.287 a 0.609,0.609 0 0 0 0.087,0.081 c 0.074,-0.05 0.134,-0.095 0.215,-0.122 0.609,-0.208 0.925,0.142 0.986,0.199 0.278,0.257 0.193,0.956 0.21,1.492 h -0.809 c 0,0 0.013,-1.005 0.002,-1.142 -0.01,-0.119 -0.181,-0.263 -0.28,-0.267 -0.168,-0.007 -0.375,0.08 -0.384,0.269 -0.018,0.384 -0.011,1.153 -0.011,1.153 h -0.767 v -1.665 z m 5.83,-0.268 h -0.053 v -0.249 h 0.093 c 0.064,0 0.102,0.018 0.102,0.075 0,0.046 -0.027,0.062 -0.06,0.065 l 0.064,0.109 h -0.063 l -0.058,-0.105 h -0.025 z m 0.047,-0.147 c 0.024,0 0.038,-0.005 0.038,-0.033 0,-0.026 -0.028,-0.028 -0.048,-0.028 h -0.038 v 0.06 h 0.048 z m -0.009,0.254 a 0.224,0.224 0 0 1 -0.233,-0.232 c 0,-0.147 0.11,-0.232 0.233,-0.232 0.123,0 0.232,0.085 0.232,0.232 a 0.224,0.224 0 0 1 -0.232,0.232 z m 0,-0.409 c -0.092,0 -0.166,0.071 -0.166,0.178 0,0.107 0.074,0.178 0.166,0.178 v 0.001 c 0.089,0 0.166,-0.072 0.166,-0.178 0,-0.108 -0.076,-0.179 -0.166,-0.179 z"
           id="path156"
           inkscape:connector-curvature="0" />
      </g>
    </g>
    <g
       id="g172">
      <path
         d="m 781.506,144.836 h 20.172 v 28.9 h -20.172 z"
         id="path162"
         inkscape:connector-curvature="0"
         style="fill:#0a080b" />
      <path
         d="m 782.57,149.596 h 18.029 v 17.927 H 782.57 Z m 0.921,19.71 c 0,0.03 0,0.061 -0.01,0.091 -0.02,0.294 -0.112,0.518 -0.467,0.518 -0.518,0 -0.548,-0.315 -0.548,-0.741 v -0.233 c 0.01,-0.406 0.051,-0.71 0.548,-0.71 0.274,0 0.436,0.142 0.457,0.416 0.01,0.041 0.01,0.081 0.01,0.122 h -0.305 c -0.01,-0.102 0,-0.294 -0.152,-0.294 -0.244,0 -0.223,0.284 -0.223,0.406 v 0.447 c 0,0.132 0.01,0.345 0.223,0.345 0.173,0 0.152,-0.264 0.162,-0.365 z m 0.233,-0.366 c 0.01,-0.406 0.051,-0.71 0.548,-0.71 0.497,0 0.528,0.304 0.548,0.71 v 0.233 c 0,0.426 -0.03,0.741 -0.548,0.741 -0.508,0 -0.548,-0.315 -0.548,-0.741 z m 0.315,0.386 c 0,0.132 0.01,0.345 0.223,0.345 0.223,0 0.223,-0.223 0.223,-0.376 v -0.406 c 0,-0.132 0.01,-0.416 -0.223,-0.416 -0.244,0 -0.223,0.284 -0.223,0.406 z m 1.806,-1.055 h 0.315 v 1.604 h -0.325 l -0.244,-0.568 a 5.214,5.214 0 0 1 -0.223,-0.639 c 0.01,0.132 0.02,0.294 0.03,0.457 0.01,0.162 0.02,0.315 0.02,0.447 v 0.304 h -0.315 v -1.604 h 0.325 l 0.244,0.589 c 0.081,0.183 0.152,0.376 0.223,0.639 l -0.03,-0.457 c -0.01,-0.152 -0.02,-0.304 -0.02,-0.447 z m 0.501,0 h 1.039 v 0.236 h -0.363 v 1.368 h -0.312 v -1.368 h -0.364 z m 1.216,1.604 v -1.604 h 0.878 v 0.236 h -0.565 v 0.404 h 0.521 v 0.235 h -0.521 v 0.494 h 0.565 v 0.235 z m 1.866,-1.604 h 0.315 v 1.604 h -0.325 l -0.244,-0.568 a 5.214,5.214 0 0 1 -0.223,-0.639 c 0.01,0.132 0.02,0.294 0.03,0.457 0.01,0.162 0.02,0.315 0.02,0.447 v 0.304 h -0.315 v -1.604 h 0.325 l 0.244,0.589 c 0.081,0.183 0.142,0.376 0.223,0.639 l -0.03,-0.457 c -0.01,-0.152 -0.02,-0.304 -0.02,-0.447 z m 0.505,0 h 1.038 v 0.236 h -0.364 v 1.368 h -0.311 v -1.368 h -0.363 z m 2.093,0.913 v 0.69 h -0.315 v -1.604 h 0.589 c 0.274,0 0.477,0.091 0.477,0.386 0,0.173 -0.041,0.355 -0.254,0.386 v 0.01 c 0.183,0.02 0.244,0.132 0.244,0.294 0,0.061 -0.01,0.457 0.071,0.507 v 0.03 h -0.345 c -0.041,-0.101 -0.03,-0.304 -0.03,-0.406 0,-0.101 0,-0.233 -0.112,-0.264 -0.081,-0.02 -0.173,-0.02 -0.264,-0.02 h -0.061 z m 0,-0.233 h 0.244 c 0.102,-0.01 0.183,-0.071 0.183,-0.233 0,-0.183 -0.081,-0.213 -0.193,-0.213 h -0.233 v 0.446 z m 0.914,0.923 0.396,-1.604 h 0.416 l 0.376,1.604 h -0.335 l -0.081,-0.406 h -0.365 l -0.081,0.406 z m 0.467,-0.639 h 0.264 l -0.081,-0.457 c -0.02,-0.071 -0.02,-0.142 -0.03,-0.223 0,-0.041 -0.01,-0.071 -0.01,-0.112 -0.01,0.03 -0.01,0.071 -0.01,0.112 l -0.03,0.223 z m 0.793,-0.964 h 1.039 v 0.236 h -0.363 v 1.368 h -0.312 v -1.368 H 794.2 Z m 1.218,1.604 v -1.604 h 0.876 v 0.236 h -0.564 v 0.404 h 0.519 v 0.235 h -0.519 v 0.494 h 0.564 v 0.235 z m 1.135,-0.001 v -1.604 h 0.65 a 0.4,0.4 0 0 1 0.325,0.183 c 0.071,0.112 0.091,0.294 0.091,0.558 0,0.315 0,0.68 -0.254,0.832 -0.071,0.041 -0.152,0.041 -0.233,0.041 h -0.578 v -0.01 z M 797,169.641 c 0.274,0 0.294,-0.142 0.294,-0.609 0,-0.386 -0.041,-0.528 -0.223,-0.528 h -0.203 v 1.137 z m 1.451,0.233 v -1.604 h 0.497 c 0.132,0 0.264,0.01 0.355,0.122 a 0.422,0.422 0 0 1 0.081,0.284 c 0,0.142 -0.03,0.274 -0.203,0.335 0.173,0.02 0.244,0.162 0.244,0.376 0,0.061 0,0.132 -0.02,0.193 -0.071,0.203 -0.183,0.284 -0.406,0.284 h -0.548 z m 0.376,-0.233 c 0.061,0 0.132,0.01 0.193,-0.02 0.081,-0.041 0.091,-0.142 0.091,-0.223 0,-0.173 -0.041,-0.244 -0.223,-0.244 h -0.122 v 0.487 z m -0.011,-0.721 c 0.081,0 0.173,0 0.223,-0.061 0.03,-0.041 0.03,-0.091 0.03,-0.173 0,-0.122 -0.03,-0.173 -0.173,-0.183 h -0.142 v 0.416 h 0.062 z m 1.269,-0.233 c 0.03,0.081 0.061,0.162 0.071,0.244 h 0.01 c 0.02,-0.122 0.061,-0.213 0.102,-0.304 l 0.152,-0.365 h 0.345 l -0.436,0.924 v 0.68 h -0.315 v -0.68 l -0.436,-0.924 h 0.335 z m -17.556,4.031 v -2.37 h 3.365 v 0.555 h -2.014 v 0.339 h 1.704 v 0.551 h -1.704 v 0.372 h 2.092 v 0.553 z m 6.828,-1.677 c -0.02,-0.081 -0.102,-0.132 -0.193,-0.162 a 1.21,1.21 0 0 0 -0.345,-0.041 c -0.294,0 -0.426,0.051 -0.426,0.142 0,0.355 2.375,0.132 2.375,0.995 0,0.548 -0.802,0.822 -1.928,0.822 -1.086,0 -1.796,-0.365 -1.827,-0.792 h 1.299 c 0.03,0.081 0.112,0.152 0.223,0.183 0.112,0.041 0.254,0.061 0.386,0.061 0.335,0 0.558,-0.061 0.558,-0.173 0,-0.355 -2.375,-0.112 -2.375,-1.015 0,-0.507 0.761,-0.761 1.786,-0.761 1.147,0 1.665,0.335 1.766,0.751 h -1.299 z m 3.867,0.853 v 0.822 h -1.35 v -2.375 h 1.949 c 1.37,0 1.827,0.213 1.827,0.68 0,0.274 -0.213,0.497 -0.69,0.579 0.436,0.091 0.7,0.152 0.7,0.629 0,0.304 -0.02,0.416 0.142,0.416 v 0.071 h -1.37 c -0.03,-0.051 -0.071,-0.203 -0.071,-0.416 0,-0.315 -0.091,-0.406 -0.721,-0.406 z m 0,-0.518 h 0.528 c 0.416,0 0.639,-0.061 0.639,-0.223 0,-0.162 -0.223,-0.244 -0.548,-0.244 h -0.629 v 0.467 z m 3.735,1.34 v -2.375 h 1.969 c 0.934,0 1.664,0.132 1.664,0.599 0,0.244 -0.274,0.426 -0.538,0.518 0.447,0.061 0.69,0.284 0.69,0.538 0,0.528 -0.7,0.71 -1.776,0.71 h -2.01 v 0.01 z m 1.36,-0.985 v 0.436 h 0.589 c 0.335,0 0.589,-0.041 0.589,-0.213 0,-0.203 -0.315,-0.223 -0.751,-0.223 z m 0,-0.832 v 0.396 h 0.558 c 0.264,0 0.467,-0.071 0.467,-0.203 0,-0.183 -0.264,-0.183 -0.548,-0.183 h -0.477 z"
         id="path164"
         inkscape:connector-curvature="0"
         style="fill:#ffffff" />
      <path
         d="m 783.105,151.199 c 0,-0.518 0.467,-0.944 1.045,-0.944 0.578,0 1.035,0.426 1.035,0.944 0,0.528 -0.467,0.954 -1.035,0.954 -0.588,0 -1.045,-0.426 -1.045,-0.954 m 1.888,0 c 0,-0.426 -0.376,-0.782 -0.853,-0.782 -0.477,0 -0.863,0.345 -0.863,0.782 0,0.436 0.386,0.782 0.863,0.782 0.477,0 0.853,-0.345 0.853,-0.782 m -1.076,0.061 v 0.477 h -0.193 v -1.106 h 0.396 c 0.223,0 0.457,0.051 0.457,0.315 0,0.132 -0.081,0.233 -0.244,0.264 0.162,0.03 0.183,0.102 0.203,0.223 0.02,0.102 0.03,0.223 0.071,0.325 h -0.244 c -0.01,-0.061 -0.03,-0.132 -0.041,-0.203 -0.01,-0.091 -0.01,-0.183 -0.071,-0.233 -0.051,-0.041 -0.112,-0.041 -0.183,-0.041 h -0.152 m 0.204,-0.193 c 0.183,0 0.223,-0.071 0.223,-0.162 0,-0.081 -0.041,-0.132 -0.193,-0.132 h -0.233 v 0.284 h 0.203 z"
         id="path166"
         inkscape:connector-curvature="0"
         style="fill:#0a080b" />
      <path
         d="m 799.813,148.165 v -0.628 h 0.918 v -0.581 h -0.918 v -0.538 h 0.948 v -0.586 h -1.683 v 2.913 h 1.688 v -0.58 z m -1.895,-0.703 h -0.011 l -0.568,-1.63 h -0.755 v 2.913 h 0.697 l -0.067,-1.622 0.008,-0.007 0.57,1.629 h 0.752 v -2.913 h -0.696 z m -2.755,-1.683 c -0.639,0 -1.005,0.315 -1.005,0.863 v 1.187 c 0,0.66 0.254,0.995 1.005,0.995 0.741,0 0.984,-0.345 0.984,-0.995 v -1.177 c 0,-0.558 -0.345,-0.873 -0.984,-0.873 m 0.243,2.112 c 0,0.173 -0.02,0.416 -0.254,0.416 -0.234,0 -0.264,-0.244 -0.264,-0.416 v -1.198 c 0,-0.183 0.03,-0.396 0.264,-0.396 0.244,0 0.254,0.213 0.254,0.396 z m -2.673,-1.105 h -0.009 l -0.369,-0.954 h -0.741 l 0.739,1.689 v 1.224 h 0.733 v -1.224 l 0.756,-1.689 h -0.733 z m -1.387,0.902 c -0.01,-0.203 -0.162,-0.335 -0.365,-0.376 v -0.01 c 0.304,-0.122 0.386,-0.355 0.386,-0.66 0,-0.579 -0.305,-0.812 -0.903,-0.812 h -1.066 v 2.913 h 0.731 v -1.147 h 0.244 c 0.173,0.01 0.223,0.132 0.254,0.315 0.02,0.183 0,0.416 0.02,0.68 0,0.061 0.02,0.112 0.041,0.162 h 0.802 v -0.041 a 0.168,0.168 0 0 1 -0.071,-0.102 c -0.042,-0.192 -0.052,-0.689 -0.073,-0.922 m -0.964,-0.62 h -0.254 v -0.71 c 0.355,-0.01 0.518,0.01 0.518,0.355 0,0.183 -0.051,0.355 -0.264,0.355 m -2.405,0.469 h 0.92 v -0.581 h -0.92 v -0.538 h 0.951 v -0.586 h -1.684 v 2.913 h 1.731 v -0.58 h -0.998 z m -2.208,0.34 h -0.009 l -0.375,-2.045 h -0.734 l 0.679,2.914 h 0.864 l 0.686,-2.914 h -0.734 z m -2.414,-0.34 h 0.926 v -0.581 h -0.926 v -0.538 h 0.956 v -0.586 h -1.694 v 2.913 h 1.744 v -0.58 h -1.006 z"
         id="path168"
         inkscape:connector-curvature="0"
         style="fill:#ffffff" />
      <path
         d="m 784.621,153.058 11.145,-2.823 1.022,3.607 -6.571,1.666 0.42,1.476 6.57,-1.663 1.024,3.608 -6.573,1.664 0.439,1.556 6.573,-1.664 1.022,3.608 -11.144,2.822 z"
         id="path170"
         inkscape:connector-curvature="0"
         style="fill:#0a080b" />
    </g>
  </g>
</svg>
