<?xml version="1.0" encoding="UTF-8" standalone="no"?>
<svg
   xmlns:dc="http://purl.org/dc/elements/1.1/"
   xmlns:cc="http://creativecommons.org/ns#"
   xmlns:rdf="http://www.w3.org/1999/02/22-rdf-syntax-ns#"
   xmlns:svg="http://www.w3.org/2000/svg"
   xmlns="http://www.w3.org/2000/svg"
   xmlns:sodipodi="http://sodipodi.sourceforge.net/DTD/sodipodi-0.dtd"
   xmlns:inkscape="http://www.inkscape.org/namespaces/inkscape"
   viewBox="0 0 184.69799 184.69701"
   version="1.1"
   id="svg72"
   sodipodi:docname="game.svg"
   width="184.698"
   height="184.69701"
   inkscape:version="0.92.4 5da689c313, 2019-01-14">
  <metadata
     id="metadata78">
    <rdf:RDF>
      <cc:Work
         rdf:about="">
        <dc:format>image/svg+xml</dc:format>
        <dc:type
           rdf:resource="http://purl.org/dc/dcmitype/StillImage" />
      </cc:Work>
    </rdf:RDF>
  </metadata>
  <defs
     id="defs76" />
  <sodipodi:namedview
     pagecolor="#ffffff"
     bordercolor="#666666"
     borderopacity="1"
     objecttolerance="10"
     gridtolerance="10"
     guidetolerance="10"
     inkscape:pageopacity="0"
     inkscape:pageshadow="2"
     inkscape:window-width="640"
     inkscape:window-height="480"
     id="namedview74"
     showgrid="false"
     inkscape:zoom="1.2777754"
     inkscape:cx="92.348503"
     inkscape:cy="92.349"
     inkscape:window-x="0"
     inkscape:window-y="0"
     inkscape:window-maximized="0"
     inkscape:current-layer="svg72">
    <inkscape:grid
       type="xygrid"
       id="grid885"
       originx="0"
       originy="0.0010008545" />
  </sodipodi:namedview>
  <path
     d="M 92.349,0 C 41.428,0 0,41.427 0,92.348 c 0,50.921 41.428,92.349 92.349,92.349 50.921,0 92.349,-41.428 92.349,-92.349 C 184.698,41.427 143.27,0 92.349,0 Z m 0,108.782 c -9.062,0 -16.435,-7.373 -16.435,-16.435 0,-9.062 7.373,-16.434 16.435,-16.434 9.062,0 16.435,7.373 16.435,16.434 -0.001,9.063 -7.374,16.435 -16.435,16.435 z"
     id="path2"
     inkscape:connector-curvature="0"
     style="fill:#efece6" />
  <path
     d="m 92.349,2.834 c -49.357,0 -89.514,40.156 -89.514,89.514 0,49.358 40.156,89.514 89.514,89.514 49.358,0 89.514,-40.155 89.514,-89.514 C 181.862,42.99 141.707,2.834 92.349,2.834 Z m 0,105.948 c -9.062,0 -16.435,-7.373 -16.435,-16.435 0,-9.062 7.373,-16.434 16.435,-16.434 9.062,0 16.435,7.373 16.435,16.434 -0.001,9.063 -7.374,16.435 -16.435,16.435 z"
     id="path4"
     inkscape:connector-curvature="0"
     style="fill:#1f9dba" />
  <path
     d="m 92.349,108.782 c -9.062,0 -16.435,-7.373 -16.435,-16.435 0,-9.062 7.373,-16.434 16.435,-16.434 9.062,0 16.435,7.373 16.435,16.434 -0.001,9.063 -7.374,16.435 -16.435,16.435 z m 15.074,-16.434 c 0,-8.312 -6.762,-15.074 -15.074,-15.074 -8.312,0 -15.073,6.762 -15.073,15.074 0,8.312 6.762,15.074 15.073,15.074 8.312,0 15.074,-6.762 15.074,-15.074 z"
     id="path6"
     inkscape:connector-curvature="0"
     style="fill:#efede8" />
  <path
     d="m 92.349,103.436 v -0.15 a 10.9,10.9 0 0 1 -7.73,-3.207 10.908,10.908 0 0 1 -3.208,-7.731 c 0,-3.016 1.227,-5.749 3.208,-7.73 a 10.902,10.902 0 0 1 7.73,-3.207 10.9,10.9 0 0 1 7.73,3.207 10.907,10.907 0 0 1 3.208,7.73 c 0,3.016 -1.227,5.749 -3.208,7.731 a 10.902,10.902 0 0 1 -7.73,3.207 v 0.3 c 6.196,0 11.238,-5.041 11.238,-11.238 0,-6.196 -5.041,-11.237 -11.238,-11.237 -6.196,0 -11.238,5.041 -11.238,11.237 0,6.197 5.041,11.238 11.238,11.238 z"
     id="path8"
     inkscape:connector-curvature="0"
     style="fill:#bcbcbc" />
  <path
     d="m 92.349,7.31 c -46.89,0 -85.038,38.148 -85.038,85.038 0,46.891 38.148,85.038 85.038,85.038 46.89,0 85.038,-38.147 85.038,-85.038 0,-46.89 -38.148,-85.038 -85.038,-85.038 z m 0,101.472 c -9.062,0 -16.435,-7.373 -16.435,-16.435 0,-9.062 7.373,-16.434 16.435,-16.434 9.062,0 16.435,7.373 16.435,16.434 -0.001,9.063 -7.374,16.435 -16.435,16.435 z"
     id="path10"
     inkscape:connector-curvature="0"
     style="fill:#ffffff" />
  <path
     d="m 28.564,29.605 c 15.287,7.627 38.187,12.474 63.784,12.474 25.597,0 48.498,-4.847 63.785,-12.474 C 139.885,13.089 117.292,2.834 92.348,2.834 67.405,2.834 44.812,13.089 28.564,29.605 Z"
     id="path12"
     inkscape:connector-curvature="0"
     style="fill:#ffffff" />
  <path
     d="m 28.564,29.605 c 15.287,7.627 38.187,12.474 63.784,12.474 25.597,0 48.498,-4.847 63.785,-12.474"
     stroke-miterlimit="10"
     id="path14"
     inkscape:connector-curvature="0"
     style="fill:none;stroke:#999999;stroke-miterlimit:10" />
  <g
     id="g18"
     style="fill:#888c88">
    <path
       d="m 113.375,17.286 v -0.131 h 0.934 v 0.131 h -0.389 v 1.037 h -0.155 v -1.037 z m 1.279,-0.131 0.368,0.982 0.37,-0.982 h 0.213 v 1.168 h -0.147 v -0.972 h -0.003 l -0.365,0.972 h -0.132 l -0.365,-0.972 h -0.003 v 0.972 h -0.147 v -1.168 z"
       id="path16"
       inkscape:connector-curvature="0" />
  </g>
  <g
     id="g24"
     style="fill:#1f9dba">
    <path
       d="m 104.231,21.6 c 0,2.968 3.504,2.544 3.504,0.468 v -4.913 h -3.504 z"
       id="path20"
       inkscape:connector-curvature="0" />
    <path
       d="m 99.399,24.717 c 0,1.465 1.01,2.338 2.494,2.338 h 8.417 c 1.253,0 2.263,-0.86 2.263,-2.107 v -6.154 c 0,-0.748 -0.555,-1.559 -1.247,-1.559 h -1.951 v 5.062 c 0,3.847 -6.702,3.816 -6.702,0.081 v -5.225 h -1.484 c -0.966,0 -1.796,0.611 -1.796,1.559 z"
       id="path22"
       inkscape:connector-curvature="0" />
  </g>
  <g
     id="g28"
     style="fill:#888c88">
    <path
       d="m 87.747,18.626 c 0,0.798 0.673,1.471 1.515,1.471 0.885,0 1.577,-0.655 1.577,-1.471 0,-0.823 -0.692,-1.471 -1.577,-1.471 -0.842,-0.006 -1.515,0.648 -1.515,1.471 z m 2.861,11.366 V 21.55 h -2.606 v 8.442 z m 2.426,-11.366 c 0,0.798 0.692,1.471 1.54,1.471 0.86,0 1.559,-0.655 1.559,-1.471 0,-0.823 -0.692,-1.471 -1.559,-1.471 -0.848,-0.006 -1.54,0.648 -1.54,1.471 z m 2.861,11.366 V 21.55 h -2.612 v 8.442 z M 83.85,17.866 81.574,26.813 c 0,0 -1.746,-6.715 -2.045,-7.687 -0.274,-0.948 -0.86,-1.365 -1.683,-1.365 -0.842,0 -1.409,0.424 -1.708,1.365 -0.274,0.966 -2.02,7.687 -2.02,7.687 L 71.83,17.866 h -2.737 c 0,0 2.631,9.539 2.993,10.655 0.274,0.86 0.948,1.559 1.914,1.559 1.135,0 1.665,-0.823 1.895,-1.559 0.256,-0.761 1.958,-7.051 1.958,-7.051 0,0 1.708,6.297 1.939,7.051 0.256,0.736 0.779,1.559 1.895,1.559 0.991,0 1.64,-0.692 1.939,-1.559 0.355,-1.116 2.993,-10.655 2.993,-10.655 z"
       id="path26"
       inkscape:connector-curvature="0" />
  </g>
  <g
     id="g36"
     style="fill:#cdd4d4">
    <path
       d="m 82.434,159.625 c -2.105,-0.001 -3.513,-1.536 -3.513,-3.4 0,-1.862 1.41,-3.417 3.51,-3.411 h 19.837 c 2.099,-0.006 3.509,1.549 3.509,3.411 0,1.863 -1.407,3.399 -3.512,3.4 z m 0.006,-5.973 c -1.667,0.003 -2.69,1.151 -2.69,2.569 0,1.419 1.017,2.575 2.69,2.569 h 19.817 c 1.674,0.006 2.69,-1.15 2.69,-2.569 0,-1.418 -1.023,-2.566 -2.69,-2.569 z"
       id="path30"
       inkscape:connector-curvature="0" />
    <path
       d="m 81.585,154.611 h 0.971 l 1.343,2.236 v -2.236 h 0.962 v 3.207 H 83.9 l -1.349,-2.236 v 2.236 h -0.965 z m 8.51,0.33 h 0.938 v 0.432 h 0.507 v 0.317 h -0.507 l 0.001,2.128 h -0.939 v -2.128 h -0.509 v -0.316 l 0.509,-0.001 z m -4.699,0.744 h 0.937 v 2.133 h -0.937 z m -0.002,-1.075 h 0.939 v 0.656 h -0.939 z m 16.415,0.93 c -0.756,0 -1.369,0.535 -1.369,1.197 0,0.661 0.613,1.197 1.369,1.197 0.756,0 1.368,-0.536 1.368,-1.197 0,-0.662 -0.612,-1.197 -1.368,-1.197 m 0.376,1.194 -0.001,0.452 c 0,0.34 -0.195,0.48 -0.383,0.48 -0.188,0 -0.384,-0.14 -0.384,-0.48 v -0.46 l 0.001,-0.444 c 0,-0.339 0.197,-0.478 0.383,-0.478 0.187,0 0.383,0.139 0.383,0.478 z m -2.968,0.007 v -0.382 c 0,-0.33 -0.221,-0.413 -0.367,-0.413 -0.149,0 -0.367,0.083 -0.367,0.413 v 0.76 c 0,0.33 0.218,0.415 0.367,0.415 0.145,0 0.367,-0.085 0.367,-0.415 z m -0.006,-2.13 h 0.924 v 3.206 h -0.926 v -0.123 a 1.103,1.103 0 0 1 -1.078,0.081 1.14,1.14 0 0 1 -0.64,-1.058 c 0,-0.563 0.515,-1.177 1.19,-1.116 0.222,0.02 0.38,0.104 0.53,0.191 z m -10.685,0.976 c 0.351,-0.01 1.06,0.225 1.055,1.069 v 1.161 h -0.93 v -1.4 c 0,-0.186 -0.173,-0.392 -0.428,-0.392 -0.255,0 -0.445,0.206 -0.445,0.392 l 10e-4,1.4 h -0.93 l -0.001,-2.132 0.93,-0.001 v 0.224 a 1.12,1.12 0 0 1 0.748,-0.321 m 7.61,0 c 0.35,-0.01 1.061,0.225 1.056,1.069 v 1.161 h -0.931 v -1.4 c 0,-0.186 -0.173,-0.392 -0.428,-0.392 -0.255,0 -0.444,0.206 -0.444,0.392 l 0.001,1.4 h -0.93 v -2.132 l 0.93,-0.001 v 0.224 c 0.179,-0.175 0.437,-0.312 0.746,-0.321 m -2.946,1.484 v 0.13 c 0,0.39 -0.249,0.477 -0.387,0.477 -0.138,0 -0.392,-0.087 -0.392,-0.477 l 0.001,-0.44 c 0,0 1.764,0.001 1.764,-0.001 0,-0.661 -0.62,-1.208 -1.382,-1.208 -0.762,0 -1.379,0.535 -1.379,1.197 0,0.662 0.617,1.197 1.379,1.197 0.632,0 1.166,-0.371 1.329,-0.875 z m -0.778,-0.643 c -0.002,-0.187 0.002,-0.311 0.062,-0.418 a 0.38,0.38 0 0 1 0.33,-0.195 0.38,0.38 0 0 1 0.329,0.195 c 0.06,0.107 0.063,0.231 0.062,0.418 z m 10.959,-1.465 c 0.091,0 0.173,-0.006 0.173,-0.119 0,-0.09 -0.08,-0.107 -0.155,-0.107 h -0.146 v 0.225 h 0.128 z m -0.128,0.41 h -0.107 v -0.73 h 0.269 c 0.168,0 0.251,0.063 0.251,0.208 0,0.131 -0.08,0.187 -0.184,0.201 l 0.201,0.321 h -0.12 l -0.187,-0.317 h -0.123 z"
       id="path32"
       inkscape:connector-curvature="0" />
    <path
       d="m 103.372,155.536 c 0.279,0 0.498,-0.224 0.498,-0.529 0,-0.3 -0.219,-0.525 -0.498,-0.525 -0.281,0 -0.501,0.225 -0.501,0.525 0,0.305 0.22,0.529 0.501,0.529 m -0.624,-0.529 a 0.623,0.623 0 1 1 1.245,0 0.623,0.623 0 0 1 -0.621,0.635 0.624,0.624 0 0 1 -0.624,-0.635"
       id="path34"
       inkscape:connector-curvature="0" />
  </g>
  <g
     id="g58">
    <path
       d="m 133.674,86.974 c 4.23,0 7.66,2.389 7.66,5.335 0,2.947 -3.43,5.336 -7.66,5.336 -4.23,0 -7.66,-2.389 -7.66,-5.336 0,-2.946 3.43,-5.335 7.66,-5.335 z"
       id="path38"
       inkscape:connector-curvature="0"
       style="fill:#ffffff" />
    <g
       id="g42"
       style="fill:#a08554">
      <path
         d="m 132.026,95.46 h 0.237 v 0.012 c 0,0.074 0.023,0.131 0.069,0.169 0.046,0.039 0.113,0.058 0.201,0.058 0.068,0 0.12,-0.014 0.157,-0.042 a 0.14,0.14 0 0 0 0.055,-0.119 c 0,-0.043 -0.012,-0.075 -0.036,-0.095 a 0.323,0.323 0 0 0 -0.147,-0.047 l -0.164,-0.023 c -0.12,-0.018 -0.209,-0.056 -0.265,-0.116 -0.057,-0.059 -0.085,-0.144 -0.085,-0.252 0,-0.129 0.041,-0.233 0.122,-0.314 a 0.44,0.44 0 0 1 0.324,-0.121 0.48,0.48 0 0 1 0.339,0.114 0.406,0.406 0 0 1 0.122,0.313 v 0.011 h -0.231 a 0.207,0.207 0 0 0 -0.065,-0.148 c -0.038,-0.033 -0.092,-0.049 -0.162,-0.049 a 0.247,0.247 0 0 0 -0.151,0.04 0.129,0.129 0 0 0 -0.054,0.111 c 0,0.038 0.01,0.067 0.031,0.084 0.021,0.018 0.073,0.033 0.155,0.046 l 0.172,0.026 a 0.427,0.427 0 0 1 0.262,0.121 0.38,0.38 0 0 1 0.084,0.263 c 0,0.146 -0.042,0.257 -0.126,0.333 -0.084,0.076 -0.206,0.114 -0.368,0.114 -0.154,0 -0.272,-0.04 -0.355,-0.12 -0.083,-0.08 -0.124,-0.194 -0.124,-0.341 z m 1.898,0.136 a 0.493,0.493 0 0 1 -0.148,0.261 0.376,0.376 0 0 1 -0.256,0.092 0.365,0.365 0 0 1 -0.303,-0.141 0.604,0.604 0 0 1 -0.112,-0.383 c 0,-0.161 0.037,-0.289 0.112,-0.382 a 0.366,0.366 0 0 1 0.304,-0.14 c 0.133,0 0.236,0.049 0.308,0.146 0.072,0.097 0.108,0.235 0.108,0.415 v 0.042 h -0.591 a 0.29,0.29 0 0 0 0.049,0.171 0.15,0.15 0 0 0 0.125,0.064 0.155,0.155 0 0 0 0.105,-0.037 0.212,0.212 0 0 0 0.063,-0.105 z m -0.572,-0.296 0.346,0.001 a 0.228,0.228 0 0 0 -0.052,-0.143 0.153,0.153 0 0 0 -0.121,-0.052 0.155,0.155 0 0 0 -0.121,0.053 0.221,0.221 0 0 0 -0.052,0.141 z m 1.491,0.457 c 0,0.038 0.003,0.068 0.008,0.088 a 0.1,0.1 0 0 0 0.025,0.047 v 0.022 h -0.236 l -0.011,-0.107 a 0.361,0.361 0 0 1 -0.126,0.107 0.364,0.364 0 0 1 -0.162,0.035 0.292,0.292 0 0 1 -0.225,-0.088 0.332,0.332 0 0 1 -0.082,-0.237 c 0,-0.093 0.025,-0.162 0.074,-0.208 0.049,-0.046 0.134,-0.076 0.254,-0.09 l 0.066,-0.006 c 0.138,-0.014 0.207,-0.051 0.207,-0.113 0,-0.037 -0.013,-0.065 -0.04,-0.083 a 0.214,0.214 0 0 0 -0.119,-0.027 c -0.053,0 -0.093,0.013 -0.118,0.039 -0.025,0.026 -0.038,0.067 -0.039,0.123 l -0.224,0.001 v -0.004 c 0,-0.115 0.034,-0.203 0.101,-0.263 0.067,-0.06 0.164,-0.091 0.292,-0.091 0.063,0 0.118,0.009 0.166,0.026 a 0.295,0.295 0 0 1 0.121,0.078 c 0.025,0.027 0.042,0.06 0.052,0.101 0.01,0.04 0.015,0.102 0.015,0.184 z m -0.208,-0.314 a 0.351,0.351 0 0 1 -0.153,0.047 l -0.021,0.004 a 0.375,0.375 0 0 0 -0.152,0.043 c -0.021,0.017 -0.032,0.044 -0.032,0.08 a 0.13,0.13 0 0 0 0.032,0.091 0.108,0.108 0 0 0 0.084,0.034 0.227,0.227 0 0 0 0.177,-0.074 0.273,0.273 0 0 0 0.068,-0.192 v -0.021 a 0.03,0.03 0 0 1 -0.003,-0.012 z m 0.399,0.471 v -1.309 h 0.212 v 1.309 z"
         id="path40"
         inkscape:connector-curvature="0" />
    </g>
    <path
       d="m 142.247,92.313 0.916,0.981 -1.309,0.786 0.368,1.519 -1.408,0.039 -0.097,1.654 -1.57,-0.432 -0.265,1.562 -1.453,-0.577 -0.757,1.377 -1.135,-0.982 -0.989,1.395 -1.09,-1.184 -1.191,1.106 -0.777,-1.302 -1.404,0.826 -0.485,-1.458 -1.626,0.641 -0.239,-1.437 -1.454,0.091 0.218,-1.464 -1.488,-0.006 0.348,-1.598 -1.154,-0.648 0.918,-1.043 -0.824,-1.45 1.341,-0.424 -0.353,-1.551 1.47,-0.019 0.17,-1.539 1.33,0.441 0.44,-1.5 1.343,0.727 0.556,-1.327 1.164,0.809 0.817,-1.261 1.099,1.099 0.971,-1.004 0.851,1.266 1.33,-0.855 0.528,1.397 1.337,-0.633 0.344,1.458 1.584,-0.282 -0.048,1.427 1.601,0.173 -0.454,1.378 1.395,0.598 z m -0.913,-0.004 c 0,-2.946 -3.43,-5.335 -7.66,-5.335 -4.23,0 -7.66,2.389 -7.66,5.335 0,2.947 3.43,5.336 7.66,5.336 4.231,-10e-4 7.66,-2.39 7.66,-5.336 z"
       id="path44"
       inkscape:connector-curvature="0"
       style="fill:#a08554" />
    <g
       id="g48"
       style="fill:#a08554">
      <path
         d="m 131.138,89.563 c 0,-0.354 0.201,-0.442 0.344,-0.442 0.143,0 0.344,0.088 0.344,0.442 0,0.354 -0.201,0.442 -0.344,0.442 -0.143,0 -0.344,-0.088 -0.344,-0.442 z m -0.264,0 c 0,0.593 0.44,0.665 0.607,0.665 0.167,0 0.607,-0.072 0.607,-0.665 0,-0.593 -0.44,-0.665 -0.607,-0.665 -0.167,0 -0.607,0.072 -0.607,0.665 z m 1.657,0.632 h -0.247 v -0.759 h -0.136 v -0.177 h 0.136 v -0.076 c 0,-0.194 0.106,-0.268 0.275,-0.268 0.072,0 0.106,0.002 0.127,0.004 v 0.199 h -0.069 c -0.084,0 -0.086,0.027 -0.086,0.105 v 0.037 h 0.16 v 0.177 h -0.16 z m 0.551,0 h -0.247 V 89.436 H 132.7 v -0.177 h 0.136 v -0.076 c 0,-0.194 0.106,-0.268 0.275,-0.268 0.072,0 0.106,0.002 0.127,0.004 v 0.199 h -0.069 c -0.084,0 -0.086,0.027 -0.086,0.105 v 0.037 h 0.16 v 0.177 h -0.16 z m 0.52,-0.936 v 0.936 h -0.246 v -0.936 z m 0,-0.113 h -0.246 v -0.228 h 0.246 z m 1.007,0.708 a 0.402,0.402 0 0 1 -0.429,0.366 c -0.353,0 -0.434,-0.269 -0.434,-0.465 0,-0.302 0.132,-0.518 0.45,-0.518 0.148,0 0.391,0.067 0.414,0.359 h -0.25 c -0.011,-0.061 -0.049,-0.158 -0.164,-0.151 -0.155,0 -0.196,0.154 -0.196,0.27 0,0.102 0.004,0.303 0.19,0.303 0.125,0 0.168,-0.119 0.168,-0.163 z M 135,89.259 v 0.936 h -0.247 v -0.936 z m 0,-0.113 h -0.247 V 88.918 H 135 Z m 0.718,0.714 c 0,0.113 -0.111,0.183 -0.22,0.183 -0.048,0 -0.114,-0.026 -0.114,-0.112 0,-0.102 0.076,-0.124 0.167,-0.14 0.102,-0.016 0.142,-0.032 0.167,-0.051 z m 0.241,-0.354 c 0,-0.231 -0.241,-0.271 -0.373,-0.271 -0.191,0 -0.391,0.041 -0.419,0.328 h 0.238 c 0.007,-0.055 0.028,-0.13 0.151,-0.13 0.063,0 0.162,0.005 0.162,0.109 0,0.053 -0.047,0.068 -0.086,0.074 l -0.221,0.033 c -0.157,0.023 -0.273,0.116 -0.273,0.299 0,0.192 0.145,0.272 0.285,0.272 a 0.38,0.38 0 0 0 0.302,-0.136 0.403,0.403 0 0 0 0.023,0.112 h 0.266 v -0.037 c -0.03,-0.011 -0.055,-0.035 -0.055,-0.146 z m 0.439,0.689 h -0.247 v -1.264 h 0.247 z"
         id="path46"
         inkscape:connector-curvature="0" />
    </g>
    <path
       d="m 133.674,97.203 c 3.958,0 7.178,-2.195 7.178,-4.894 0,-2.698 -3.22,-4.894 -7.178,-4.894 -3.958,0 -7.178,2.195 -7.178,4.894 0,2.698 3.22,4.894 7.178,4.894 z m -7.001,-4.894 c 0,-2.601 3.141,-4.717 7.001,-4.717 3.861,0 7.002,2.116 7.002,4.717 0,2.601 -3.141,4.717 -7.002,4.717 -3.861,0 -7.001,-2.116 -7.001,-4.717 z"
       id="path50"
       inkscape:connector-curvature="0"
       style="fill:#a08554" />
    <g
       id="g56"
       style="fill:#a08554">
      <path
         d="m 138.189,93.956 c 0.838,0 1.521,-0.682 1.521,-1.521 0,-0.839 -0.682,-1.521 -1.521,-1.521 h -9.105 c -0.839,0 -1.521,0.682 -1.521,1.521 0,0.839 0.682,1.521 1.521,1.521 z m -9.106,-0.395 a 1.127,1.127 0 0 1 0,-2.252 h 9.105 a 1.127,1.127 0 0 1 0,2.252 z"
         id="path52"
         inkscape:connector-curvature="0" />
      <path
         d="m 128.693,93.161 v -1.432 h 0.448 l 0.597,0.929 0.002,-0.928 h 0.464 v 1.432 h -0.464 c -0.04,-0.088 -0.575,-0.924 -0.575,-0.924 v 0.924 z m 2.824,-0.957 c 0.015,0.018 0.04,0.038 0.051,0.047 0.043,-0.029 0.078,-0.055 0.125,-0.071 0.353,-0.121 0.536,0.082 0.572,0.115 0.161,0.149 0.112,0.554 0.122,0.865 h -0.469 c 0,0 0.008,-0.583 0.001,-0.662 -0.006,-0.069 -0.105,-0.153 -0.162,-0.155 -0.097,-0.004 -0.217,0.046 -0.222,0.156 -0.011,0.223 0.004,0.661 0.004,0.661 h -0.459 v -0.958 z m 1.092,-0.11 v -0.136 h 0.459 v 0.136 h 0.219 l -0.002,0.129 -0.217,-0.001 v 0.939 h -0.459 v -0.939 h -0.208 v -0.128 z m 0.64,0.586 c -0.008,-0.314 0.283,-0.511 0.53,-0.524 0.117,-0.006 0.237,-0.015 0.342,0.034 0.067,0.032 0.143,0.042 0.198,0.094 0.109,0.103 0.18,0.235 0.18,0.403 l -0.785,-0.003 c 0,0.123 -0.069,0.405 0.146,0.41 0.082,0.002 0.129,-0.013 0.159,-0.084 a 0.38,0.38 0 0 0 0.018,-0.175 c 0.079,0.005 0.412,-0.005 0.453,-0.004 -0.09,0.25 -0.361,0.359 -0.623,0.359 -0.108,0 -0.605,-0.049 -0.618,-0.51 z m 0.466,-0.15 0.316,-0.001 c 0,-0.054 0,-0.084 -0.006,-0.128 -0.008,-0.059 -0.056,-0.143 -0.155,-0.139 -0.135,0.006 -0.155,0.082 -0.155,0.166 z m 3.808,0.354 c -0.082,-0.108 -0.094,-0.321 -0.018,-0.479 0.067,-0.138 0.24,-0.239 0.331,-0.269 0.123,-0.04 0.324,-0.051 0.492,-0.011 0.125,0.03 0.28,0.104 0.376,0.279 a 0.507,0.507 0 0 1 -0.023,0.479 c -0.055,0.075 -0.176,0.204 -0.311,0.24 -0.118,0.031 -0.36,0.049 -0.488,0.009 a 0.636,0.636 0 0 1 -0.359,-0.248 z m 0.585,0.165 c 0.13,10e-4 0.159,-0.1 0.162,-0.164 0.005,-0.146 -0.003,-0.327 -0.003,-0.479 0,-0.079 -0.044,-0.182 -0.162,-0.182 -0.169,0 -0.163,0.133 -0.165,0.182 -0.003,0.084 -0.003,0.371 -0.002,0.479 0.001,0.035 0.018,0.163 0.17,0.164 z m -0.808,0.112 h -0.413 c -0.002,0 -0.009,-0.055 -0.009,-0.055 -0.116,0.09 -0.58,0.134 -0.759,-0.243 -0.016,-0.034 -0.063,-0.279 0.005,-0.43 0.109,-0.245 0.362,-0.299 0.542,-0.288 0.072,0.004 0.21,0.078 0.21,0.078 l 0.001,-0.524 h 0.423 c 0,0 0.005,1.462 0,1.462 z m -0.432,-0.241 c 0.013,-0.042 0.007,-0.317 0.007,-0.451 a 0.247,0.247 0 0 0 -0.037,-0.107 c -0.035,-0.043 -0.062,-0.065 -0.133,-0.062 a 0.157,0.157 0 0 0 -0.146,0.134 c -0.011,0.134 -0.018,0.272 0.003,0.444 a 0.15,0.15 0 0 0 0.061,0.106 c 0.101,0.071 0.22,0.016 0.245,-0.064 z m -5.997,0.241 v -0.968 h -0.474 v 0.968 z m 0,-1.131 v -0.301 h -0.474 v 0.301 z m 4.231,0.167 c 0.015,0.018 0.04,0.038 0.051,0.047 0.043,-0.029 0.078,-0.055 0.125,-0.071 0.353,-0.121 0.536,0.082 0.572,0.115 0.161,0.149 0.112,0.554 0.122,0.865 h -0.469 c 0,0 0.008,-0.583 0.001,-0.662 -0.006,-0.069 -0.105,-0.153 -0.162,-0.155 -0.097,-0.004 -0.217,0.046 -0.222,0.156 -0.011,0.223 -0.006,0.669 -0.006,0.669 h -0.444 v -0.966 z m 3.38,-0.156 h -0.031 v -0.145 h 0.054 c 0.037,0 0.059,0.011 0.059,0.044 0,0.027 -0.016,0.036 -0.035,0.038 l 0.037,0.063 h -0.037 l -0.033,-0.061 h -0.015 z m 0.028,-0.085 c 0.014,0 0.022,-0.003 0.022,-0.019 0,-0.015 -0.016,-0.016 -0.028,-0.016 h -0.022 v 0.035 z m -0.005,0.147 c -0.071,0 -0.135,-0.049 -0.135,-0.134 0,-0.085 0.064,-0.134 0.135,-0.134 0.071,0 0.135,0.049 0.135,0.134 a 0.13,0.13 0 0 1 -0.135,0.134 z m 0,-0.237 c -0.053,0 -0.096,0.041 -0.096,0.103 0,0.062 0.043,0.103 0.096,0.103 0.052,0 0.096,-0.042 0.096,-0.103 0,-0.061 -0.044,-0.103 -0.096,-0.103 z"
         id="path54"
         inkscape:connector-curvature="0" />
    </g>
  </g>
  <g
     id="g70">
    <path
       d="m 154.034,83.971 h 11.695 v 16.755 h -11.695 z"
       id="path60"
       inkscape:connector-curvature="0"
       style="fill:#050800" />
    <path
       d="m 154.651,86.73 h 10.452 v 10.393 h -10.452 z m 0.534,11.427 c 0,0.018 0,0.035 -0.006,0.053 -0.012,0.171 -0.065,0.3 -0.271,0.3 -0.3,0 -0.318,-0.182 -0.318,-0.43 v -0.135 c 0.006,-0.235 0.029,-0.412 0.318,-0.412 0.159,0 0.253,0.082 0.265,0.241 0.006,0.024 0.006,0.047 0.006,0.071 h -0.177 c -0.006,-0.059 0,-0.171 -0.088,-0.171 -0.141,0 -0.129,0.165 -0.129,0.235 v 0.259 c 0,0.076 0.006,0.2 0.129,0.2 0.1,0 0.088,-0.153 0.094,-0.212 h 0.177 z m 0.135,-0.211 c 0.006,-0.235 0.029,-0.412 0.318,-0.412 0.289,0 0.306,0.177 0.318,0.412 v 0.135 c 0,0.247 -0.018,0.43 -0.318,0.43 -0.294,0 -0.318,-0.182 -0.318,-0.43 z m 0.183,0.223 c 0,0.076 0.006,0.2 0.129,0.2 0.129,0 0.129,-0.129 0.129,-0.218 v -0.235 c 0,-0.076 0.006,-0.241 -0.129,-0.241 -0.141,0 -0.129,0.165 -0.129,0.235 z m 1.047,-0.612 h 0.182 v 0.93 h -0.188 l -0.141,-0.33 a 2.99,2.99 0 0 1 -0.129,-0.371 l 0.018,0.265 c 0.006,0.094 0.012,0.182 0.012,0.259 v 0.177 h -0.182 v -0.93 h 0.188 l 0.141,0.341 c 0.047,0.106 0.088,0.218 0.129,0.371 l -0.018,-0.265 a 3.92,3.92 0 0 1 -0.012,-0.259 z m 0.29,0.001 h 0.603 v 0.136 h -0.211 v 0.793 h -0.181 v -0.793 h -0.211 z m 0.706,0.929 v -0.929 h 0.509 v 0.136 h -0.328 v 0.234 h 0.302 v 0.137 h -0.302 v 0.286 h 0.328 v 0.136 z m 1.081,-0.93 h 0.182 v 0.93 h -0.188 l -0.141,-0.33 a 2.99,2.99 0 0 1 -0.129,-0.371 l 0.018,0.265 c 0.006,0.094 0.012,0.182 0.012,0.259 v 0.177 h -0.182 v -0.93 h 0.188 l 0.141,0.341 c 0.047,0.106 0.082,0.218 0.129,0.371 l -0.018,-0.265 a 3.92,3.92 0 0 1 -0.012,-0.259 z m 0.293,0.001 h 0.602 v 0.136 h -0.211 v 0.793 h -0.18 v -0.793 h -0.211 z m 1.214,0.529 v 0.4 h -0.182 v -0.93 h 0.341 c 0.159,0 0.277,0.053 0.277,0.224 0,0.1 -0.024,0.206 -0.147,0.224 v 0.006 c 0.106,0.012 0.141,0.076 0.141,0.171 0,0.035 -0.006,0.265 0.041,0.294 v 0.018 h -0.2 c -0.024,-0.059 -0.018,-0.177 -0.018,-0.235 0,-0.059 0,-0.135 -0.065,-0.153 -0.047,-0.012 -0.1,-0.012 -0.153,-0.012 h -0.035 z m 0,-0.136 h 0.141 c 0.059,-0.006 0.106,-0.041 0.106,-0.135 0,-0.106 -0.047,-0.124 -0.112,-0.124 h -0.135 z m 0.529,0.536 0.229,-0.93 h 0.241 l 0.218,0.93 h -0.194 l -0.047,-0.235 h -0.212 l -0.047,0.235 z m 0.271,-0.371 h 0.153 l -0.047,-0.265 c -0.012,-0.041 -0.012,-0.082 -0.018,-0.129 0,-0.024 -0.006,-0.041 -0.006,-0.065 -0.006,0.018 -0.006,0.041 -0.006,0.065 a 6.812,6.812 0 0 0 -0.018,0.129 z m 0.46,-0.558 h 0.602 v 0.136 h -0.21 v 0.793 h -0.181 v -0.793 h -0.211 z m 0.706,0.929 v -0.929 h 0.508 v 0.136 h -0.327 v 0.234 h 0.301 v 0.137 h -0.301 v 0.286 h 0.327 v 0.136 z m 0.658,0 v -0.93 h 0.377 c 0.041,0 0.129,0.018 0.188,0.106 0.041,0.065 0.053,0.171 0.053,0.324 0,0.182 0,0.394 -0.147,0.483 -0.041,0.024 -0.088,0.024 -0.135,0.024 h -0.335 v -0.007 z m 0.259,-0.135 c 0.159,0 0.171,-0.082 0.171,-0.353 0,-0.224 -0.024,-0.306 -0.129,-0.306 h -0.118 v 0.659 z m 0.841,0.135 v -0.93 h 0.288 c 0.076,0 0.153,0.006 0.206,0.071 a 0.246,0.246 0 0 1 0.047,0.165 c 0,0.082 -0.018,0.159 -0.118,0.194 0.1,0.012 0.141,0.094 0.141,0.218 0,0.035 0,0.076 -0.012,0.112 -0.041,0.118 -0.106,0.165 -0.235,0.165 h -0.318 v 0.005 z m 0.218,-0.135 c 0.035,0 0.076,0.006 0.112,-0.012 0.047,-0.024 0.053,-0.082 0.053,-0.129 0,-0.1 -0.024,-0.141 -0.129,-0.141 h -0.071 v 0.282 z m -0.006,-0.418 c 0.047,0 0.1,0 0.129,-0.035 0.018,-0.024 0.018,-0.053 0.018,-0.1 0,-0.071 -0.018,-0.1 -0.1,-0.106 h -0.082 v 0.241 z m 0.736,-0.136 a 0.626,0.626 0 0 1 0.041,0.141 h 0.006 a 0.68,0.68 0 0 1 0.059,-0.177 L 165,97.551 h 0.2 l -0.253,0.535 v 0.394 h -0.182 v -0.394 l -0.253,-0.535 h 0.194 z m -10.179,2.338 v -1.374 h 1.951 v 0.321 h -1.167 v 0.197 h 0.988 v 0.32 h -0.988 v 0.215 h 1.213 v 0.321 z m 3.959,-0.972 c -0.012,-0.047 -0.059,-0.076 -0.112,-0.094 a 0.681,0.681 0 0 0 -0.2,-0.024 c -0.171,0 -0.247,0.029 -0.247,0.082 0,0.206 1.377,0.076 1.377,0.577 0,0.318 -0.465,0.477 -1.118,0.477 -0.63,0 -1.042,-0.212 -1.059,-0.459 h 0.753 a 0.189,0.189 0 0 0 0.129,0.106 0.675,0.675 0 0 0 0.224,0.035 c 0.194,0 0.324,-0.035 0.324,-0.1 0,-0.206 -1.377,-0.065 -1.377,-0.588 0,-0.294 0.441,-0.441 1.036,-0.441 0.665,0 0.965,0.194 1.024,0.435 h -0.753 v -0.006 z m 2.242,0.494 v 0.477 h -0.783 v -1.377 h 1.13 c 0.794,0 1.059,0.124 1.059,0.394 0,0.159 -0.124,0.288 -0.4,0.335 0.253,0.053 0.406,0.088 0.406,0.365 0,0.177 -0.012,0.241 0.082,0.241 v 0.041 h -0.794 a 0.557,0.557 0 0 1 -0.041,-0.241 c 0,-0.182 -0.053,-0.235 -0.418,-0.235 z m 0,-0.3 h 0.306 c 0.241,0 0.371,-0.035 0.371,-0.129 0,-0.094 -0.129,-0.141 -0.318,-0.141 h -0.365 v 0.271 h 0.006 z m 2.165,0.777 v -1.377 h 1.142 c 0.541,0 0.965,0.076 0.965,0.347 0,0.141 -0.159,0.247 -0.312,0.3 0.259,0.035 0.4,0.165 0.4,0.312 0,0.306 -0.406,0.412 -1.03,0.412 h -1.165 z m 0.789,-0.571 v 0.253 h 0.341 c 0.194,0 0.341,-0.024 0.341,-0.124 0,-0.118 -0.182,-0.129 -0.435,-0.129 z m 0,-0.483 v 0.229 h 0.324 c 0.153,0 0.271,-0.041 0.271,-0.118 0,-0.106 -0.153,-0.106 -0.318,-0.106 h -0.277 z"
       id="path62"
       inkscape:connector-curvature="0"
       style="fill:#ffffff" />
    <path
       d="m 154.961,87.66 c 0,-0.3 0.271,-0.547 0.606,-0.547 0.335,0 0.6,0.247 0.6,0.547 0,0.306 -0.271,0.553 -0.6,0.553 -0.341,0 -0.606,-0.247 -0.606,-0.553 m 1.095,0 c 0,-0.247 -0.218,-0.453 -0.494,-0.453 -0.277,0 -0.5,0.2 -0.5,0.453 0,0.253 0.224,0.453 0.5,0.453 0.276,0 0.494,-0.2 0.494,-0.453 m -0.624,0.035 v 0.277 H 155.32 V 87.33 h 0.229 c 0.129,0 0.265,0.029 0.265,0.182 0,0.076 -0.047,0.135 -0.141,0.153 0.094,0.018 0.106,0.059 0.118,0.129 0.012,0.059 0.018,0.129 0.041,0.188 h -0.141 c -0.006,-0.035 -0.018,-0.076 -0.024,-0.118 -0.006,-0.053 -0.006,-0.106 -0.041,-0.135 -0.029,-0.024 -0.065,-0.024 -0.106,-0.024 h -0.088 m 0.118,-0.11 c 0.106,0 0.129,-0.041 0.129,-0.094 0,-0.047 -0.024,-0.076 -0.112,-0.076 h -0.135 v 0.165 h 0.118 z"
       id="path64"
       inkscape:connector-curvature="0"
       style="fill:#050800" />
    <path
       d="m 164.648,85.901 v -0.364 h 0.532 V 85.2 h -0.532 v -0.312 h 0.549 v -0.34 h -0.975 v 1.689 h 0.979 v -0.336 z m -1.098,-0.408 h -0.007 l -0.329,-0.945 h -0.438 v 1.689 h 0.404 l -0.039,-0.94 0.005,-0.005 0.33,0.945 h 0.436 v -1.689 h -0.403 z m -1.598,-0.975 c -0.371,0 -0.583,0.182 -0.583,0.5 v 0.688 c 0,0.382 0.147,0.577 0.583,0.577 0.43,0 0.571,-0.2 0.571,-0.577 v -0.683 c 0,-0.323 -0.2,-0.505 -0.571,-0.505 m 0.141,1.224 c 0,0.1 -0.012,0.241 -0.147,0.241 -0.135,0 -0.153,-0.141 -0.153,-0.241 v -0.694 c 0,-0.106 0.018,-0.229 0.153,-0.229 0.141,0 0.147,0.124 0.147,0.229 z m -1.549,-0.641 h -0.006 l -0.214,-0.553 h -0.43 l 0.429,0.98 v 0.709 h 0.425 v -0.709 l 0.438,-0.98 h -0.425 z m -0.805,0.523 c -0.006,-0.118 -0.094,-0.194 -0.212,-0.218 V 85.4 c 0.177,-0.071 0.224,-0.206 0.224,-0.382 0,-0.335 -0.177,-0.471 -0.524,-0.471 h -0.618 v 1.689 h 0.424 v -0.665 h 0.141 c 0.1,0.006 0.129,0.076 0.147,0.182 0.012,0.106 0,0.241 0.012,0.394 0,0.035 0.012,0.065 0.024,0.094 h 0.465 v -0.024 a 0.098,0.098 0 0 1 -0.041,-0.059 c -0.024,-0.11 -0.03,-0.399 -0.042,-0.534 m -0.559,-0.359 h -0.147 v -0.412 c 0.206,-0.006 0.3,0.006 0.3,0.206 0,0.106 -0.029,0.206 -0.153,0.206 m -1.394,0.272 h 0.533 V 85.2 h -0.533 v -0.312 h 0.551 v -0.34 h -0.976 v 1.689 h 1.003 v -0.336 h -0.578 z m -1.28,0.197 h -0.005 l -0.218,-1.186 h -0.426 l 0.394,1.69 h 0.501 l 0.398,-1.69 h -0.426 z m -1.4,-0.197 h 0.537 V 85.2 h -0.537 v -0.312 h 0.555 v -0.34 h -0.983 v 1.689 h 1.011 v -0.336 h -0.583 z"
       id="path66"
       inkscape:connector-curvature="0"
       style="fill:#ffffff" />
    <path
       d="m 155.84,88.737 6.462,-1.636 0.592,2.091 -3.81,0.966 0.244,0.856 3.809,-0.964 0.594,2.092 -3.811,0.964 0.255,0.902 3.811,-0.965 0.592,2.092 -6.461,1.637 z"
       id="path68"
       inkscape:connector-curvature="0"
       style="fill:#050800" />
  </g>
</svg>
