<svg xmlns="http://www.w3.org/2000/svg" viewBox="0 0 535.779 376.05"><path d="M453.403 352.055c0 3.755 3.415 6.803 7.624 6.803h67.132c4.205 0 7.62-3.048 7.62-6.803s-3.415-6.803-7.62-6.803h-67.132c-4.209 0-7.624 3.048-7.624 6.803z" fill-rule="evenodd" clip-rule="evenodd" fill="#f0f0f0"/><path d="M455.408 351.13c0 2.912 3.105 5.279 6.926 5.279h64.918c3.821 0 6.926-2.367 6.926-5.279s-3.105-5.275-6.926-5.275h-64.918c-3.822 0-6.926 2.362-6.926 5.275z" fill-rule="evenodd" clip-rule="evenodd" fill="#cac9c9"/><path d="M456.932 350.422v.004c0 2.271 2.869 4.114 6.397 4.114h63.232c3.528 0 6.397-1.843 6.397-4.114v-.004c0-2.271-2.869-4.113-6.397-4.113h-63.232c-3.528 0-6.397 1.842-6.397 4.113z" fill-rule="evenodd" clip-rule="evenodd" fill="#a2a1a1"/><path d="M458.133 349.868v.004c0 1.764 2.681 3.196 5.982 3.196h61.9c3.301 0 5.982-1.432 5.982-3.196v-.004c0-1.764-2.681-3.196-5.982-3.196h-61.9c-3.301-.001-5.982 1.432-5.982 3.196z" fill-rule="evenodd" clip-rule="evenodd" fill="#797878"/><path d="M459.102 349.422c0 1.358 2.528 2.463 5.642 2.463h60.835c3.113 0 5.642-1.105 5.642-2.463s-2.528-2.463-5.642-2.463h-60.835c-3.114.001-5.642 1.105-5.642 2.463z" fill-rule="evenodd" clip-rule="evenodd" fill="#4f4f4f"/><path d="M459.897 349.051v.004c0 1.022 2.406 1.852 5.371 1.852h59.949c2.961 0 5.367-.83 5.367-1.852v-.004c0-1.022-2.406-1.852-5.367-1.852h-59.949c-2.965.001-5.371.831-5.371 1.852z" fill-rule="evenodd" clip-rule="evenodd" fill="#262525"/><path d="M460.569 348.741v.004c0 .738 2.301 1.341 5.135 1.341h59.211c2.834 0 5.135-.603 5.135-1.341v-.004c0-.738-2.301-1.341-5.135-1.341h-59.211c-2.833 0-5.135.603-5.135 1.341zM461.285 0h70.913v344.54h-70.913z" fill-rule="evenodd" clip-rule="evenodd"/><linearGradient id="a" gradientUnits="userSpaceOnUse" x1="436.125" y1="45.925" x2="502.674" y2="86.43"><stop offset="0" stop-color="#dfdede"/><stop offset="1" stop-color="#292b29"/></linearGradient><path fill-rule="evenodd" clip-rule="evenodd" fill="url(#a)" d="M460.565.009v164.742L531.474.009z"/><path fill-rule="evenodd" clip-rule="evenodd" fill="#2e2e2e" d="M463.434 4.301h64.464v342.384h-64.464z"/><linearGradient id="b" gradientUnits="userSpaceOnUse" x1="456.516" y1="20.528" x2="486.994" y2="41.121"><stop offset="0" stop-color="#524f4f"/><stop offset="1" stop-color="#2e2d2d"/></linearGradient><path fill-rule="evenodd" clip-rule="evenodd" fill="url(#b)" d="M463.757 4.484v73.595l46.949-73.595z"/><g fill-rule="evenodd" clip-rule="evenodd"><path d="M496.379 28.658c10.676 0 19.344 8.663 19.344 19.34s-8.668 19.34-19.344 19.34c-10.672 0-19.339-8.663-19.339-19.34s8.668-19.34 19.339-19.34z" fill="#333"/><path d="M496.379 38.683c5.144 0 9.314 4.175 9.314 9.314 0 5.14-4.17 9.31-9.314 9.31-5.139 0-9.309-4.17-9.309-9.31 0-5.139 4.17-9.314 9.309-9.314z" fill="#2e2e2e"/></g><g fill-rule="evenodd" clip-rule="evenodd"><path d="M496.379 85.961c10.676 0 19.344 8.663 19.344 19.34 0 10.676-8.668 19.34-19.344 19.34-10.672 0-19.339-8.664-19.339-19.34 0-10.677 8.668-19.34 19.339-19.34z" fill="#333"/><path d="M496.379 95.986c5.144 0 9.314 4.174 9.314 9.314 0 5.139-4.17 9.309-9.314 9.309-5.139 0-9.309-4.17-9.309-9.309 0-5.139 4.17-9.314 9.309-9.314z" fill="#2e2e2e"/></g><g fill-rule="evenodd" clip-rule="evenodd"><path d="M496.379 145.411c10.676 0 19.344 8.663 19.344 19.34 0 10.676-8.668 19.34-19.344 19.34-10.672 0-19.339-8.663-19.339-19.34 0-10.676 8.668-19.34 19.339-19.34z" fill="#333"/><path d="M496.379 155.437c5.144 0 9.314 4.175 9.314 9.314 0 5.14-4.17 9.31-9.314 9.31-5.139 0-9.309-4.17-9.309-9.31 0-5.139 4.17-9.314 9.309-9.314z" fill="#2e2e2e"/></g><g fill-rule="evenodd" clip-rule="evenodd"><path d="M496.379 202.714c10.676 0 19.344 8.663 19.344 19.34 0 10.676-8.668 19.34-19.344 19.34-10.672 0-19.339-8.663-19.339-19.34s8.668-19.34 19.339-19.34z" fill="#333"/><path d="M496.379 212.74c5.144 0 9.314 4.174 9.314 9.314 0 5.139-4.17 9.309-9.314 9.309-5.139 0-9.309-4.17-9.309-9.309 0-5.14 4.17-9.314 9.309-9.314z" fill="#2e2e2e"/></g><g fill-rule="evenodd" clip-rule="evenodd"><path d="M497.1 263.597c10.672 0 19.34 8.663 19.34 19.34s-8.668 19.34-19.34 19.34c-10.676 0-19.344-8.663-19.344-19.34s8.668-19.34 19.344-19.34z" fill="#333"/><path d="M497.1 273.627c5.139 0 9.31 4.17 9.31 9.31 0 5.14-4.17 9.314-9.31 9.314-5.144 0-9.314-4.174-9.314-9.314 0-5.139 4.17-9.31 9.314-9.31z" fill="#2e2e2e"/></g><linearGradient id="c" gradientUnits="userSpaceOnUse" x1="463.959" y1="-2.783" x2="465.031" y2="338.474"><stop offset="0" stop-color="#fff"/><stop offset="1" stop-color="#333"/></linearGradient><path fill-rule="evenodd" clip-rule="evenodd" fill="url(#c)" d="M463.434 4.306h2.148v335.222h-2.148z"/><linearGradient id="d" gradientUnits="userSpaceOnUse" x1="463.311" y1="5.932" x2="526.75" y2="4.861"><stop offset="0" stop-color="#fff"/><stop offset="1" stop-color="#333"/></linearGradient><path fill-rule="evenodd" clip-rule="evenodd" fill="url(#d)" d="M464.866 4.306h62.315v2.148h-62.315z"/><linearGradient id="e" gradientUnits="userSpaceOnUse" x1="459.057" y1="-2.251" x2="527.82" y2="6.284"><stop offset="0" stop-color="#878787"/><stop offset="1" stop-color="#070308"/></linearGradient><path fill-rule="evenodd" clip-rule="evenodd" fill="url(#e)" d="M460.565.009l2.869 5.013h64.464l3.58-5.013z"/><linearGradient id="f" gradientUnits="userSpaceOnUse" x1="495.665" y1="349.553" x2="495.665" y2="344.122"><stop offset="0" stop-color="#383838"/><stop offset="1" stop-color="#595959"/></linearGradient><path fill-rule="evenodd" clip-rule="evenodd" fill="url(#f)" d="M459.132 344.536l4.302 5.017h64.464l4.3-5.017z"/><path d="M.712 352.771v.005c0 3.755 3.415 6.803 7.624 6.803h67.132c4.205 0 7.62-3.048 7.62-6.803v-.005c0-3.755-3.415-6.803-7.62-6.803H8.336c-4.209 0-7.624 3.048-7.624 6.803z" fill-rule="evenodd" clip-rule="evenodd" fill="#f0f0f0"/><path d="M2.716 351.846c0 2.913 3.105 5.28 6.925 5.28h64.918c3.821 0 6.925-2.367 6.925-5.28 0-2.912-3.105-5.274-6.925-5.274H9.641c-3.82-.001-6.925 2.361-6.925 5.274z" fill-rule="evenodd" clip-rule="evenodd" fill="#cac9c9"/><path d="M4.24 351.143c0 2.271 2.869 4.113 6.397 4.113h63.232c3.528 0 6.397-1.843 6.397-4.113 0-2.271-2.869-4.118-6.397-4.118H10.637c-3.528 0-6.397 1.847-6.397 4.118z" fill-rule="evenodd" clip-rule="evenodd" fill="#a2a1a1"/><path d="M5.441 350.588c0 1.764 2.681 3.201 5.982 3.201h61.9c3.301 0 5.982-1.437 5.982-3.201 0-1.768-2.681-3.201-5.982-3.201h-61.9c-3.301 0-5.982 1.433-5.982 3.201z" fill-rule="evenodd" clip-rule="evenodd" fill="#797878"/><path d="M6.41 350.139c0 1.358 2.528 2.463 5.642 2.463h60.835c3.113 0 5.642-1.105 5.642-2.463s-2.528-2.463-5.642-2.463H12.052c-3.114 0-5.642 1.104-5.642 2.463z" fill-rule="evenodd" clip-rule="evenodd" fill="#4f4f4f"/><path d="M7.209 349.767v.004c0 1.022 2.402 1.852 5.367 1.852h59.949c2.965 0 5.367-.829 5.367-1.852v-.004c0-1.022-2.402-1.852-5.367-1.852H12.576c-2.965.001-5.367.83-5.367 1.852z" fill-rule="evenodd" clip-rule="evenodd" fill="#262525"/><path d="M7.877 349.461c0 .742 2.301 1.341 5.135 1.341h59.211c2.834 0 5.135-.598 5.135-1.341 0-.742-2.301-1.345-5.135-1.345H13.012c-2.833.001-5.135.603-5.135 1.345z" fill-rule="evenodd" clip-rule="evenodd"/><path d="M52.285 369.242v.004c0 3.755 3.415 6.803 7.62 6.803h415.24c4.205 0 7.62-3.048 7.62-6.803v-.004c0-3.756-3.415-6.803-7.62-6.803H59.905c-4.205 0-7.62 3.048-7.62 6.803z" fill-rule="evenodd" clip-rule="evenodd" fill="#fff"/><path d="M54.818 368.251c0 3.205 3.332 5.807 7.441 5.807l410.659.005c4.109 0 7.445-2.607 7.445-5.812s-3.336-5.812-7.445-5.812H62.259c-4.109 0-7.441 2.607-7.441 5.812z" fill-rule="evenodd" clip-rule="evenodd" fill="#eeedec"/><path d="M56.639 367.535c0 2.812 3.279 5.096 7.314 5.096h407.362c4.039 0 7.314-2.284 7.314-5.096 0-2.812-3.279-5.092-7.314-5.092l-407.362-.004c-4.035 0-7.314 2.284-7.314 5.096z" fill-rule="evenodd" clip-rule="evenodd" fill="#dfdede"/><path d="M58.014 366.993v.004c0 2.511 3.236 4.55 7.218 4.55l404.873.005c3.982 0 7.218-2.044 7.218-4.555 0-2.515-3.236-4.554-7.218-4.554l-404.873-.004c-3.982 0-7.218 2.044-7.218 4.554z" fill-rule="evenodd" clip-rule="evenodd" fill="#cfcfce"/><path d="M59.088 366.574c0 2.279 3.201 4.131 7.144 4.131h402.93c3.939 0 7.14-1.852 7.14-4.131s-3.201-4.131-7.144-4.131l-402.926-.004c-3.943 0-7.144 1.856-7.144 4.135z" fill-rule="evenodd" clip-rule="evenodd" fill="#bdbdbc"/><path d="M59.984 366.221c0 2.087 3.175 3.781 7.082 3.781h401.306c3.908 0 7.078-1.694 7.078-3.777v-.004c0-2.083-3.17-3.777-7.078-3.777H67.062c-3.904-.001-7.078 1.689-7.078 3.777z" fill-rule="evenodd" clip-rule="evenodd" fill="#adadad"/><path d="M60.8 365.902c0 1.908 3.148 3.458 7.021 3.458l399.835.004c3.873 0 7.022-1.55 7.022-3.463 0-1.908-3.148-3.458-7.022-3.458H67.822c-3.878 0-7.022 1.55-7.022 3.459z" fill-rule="evenodd" clip-rule="evenodd" fill="#9f9f9f"/><path d="M61.547 365.609c0 1.747 3.122 3.166 6.969 3.166l398.485.004c3.842 0 6.969-1.419 6.969-3.17 0-1.747-3.127-3.166-6.973-3.166H68.516c-3.847 0-6.969 1.42-6.969 3.166z" fill-rule="evenodd" clip-rule="evenodd" fill="#8f8f8f"/><path d="M62.232 365.338c0 1.602 3.1 2.899 6.921 2.899h397.245c3.816 0 6.921-1.297 6.921-2.895 0-1.602-3.105-2.899-6.926-2.899H69.154c-3.821 0-6.922 1.297-6.922 2.895z" fill-rule="evenodd" clip-rule="evenodd" fill="#818080"/><path d="M62.861 365.094c0 1.463 3.083 2.65 6.877 2.65H465.84c3.799 0 6.877-1.188 6.877-2.65 0-1.463-3.083-2.651-6.877-2.651H69.739c-3.795 0-6.878 1.188-6.878 2.651z" fill-rule="evenodd" clip-rule="evenodd" fill="#6e6e6e"/><path d="M63.446 364.863c0 1.336 3.061 2.423 6.834 2.423h395.049c3.773 0 6.833-1.083 6.833-2.419s-3.061-2.423-6.838-2.423H70.28c-3.773-.001-6.834 1.082-6.834 2.419z" fill-rule="evenodd" clip-rule="evenodd" fill="#5f5e5e"/><path d="M63.988 364.648v.004c0 1.218 3.048 2.205 6.799 2.205l394.066.004c3.751 0 6.798-.991 6.798-2.21 0-1.218-3.048-2.209-6.803-2.209H70.782c-3.751.001-6.794.988-6.794 2.206z" fill-rule="evenodd" clip-rule="evenodd" fill="#4f4f4f"/><path d="M64.49 364.452c0 1.109 3.03 2.013 6.764 2.013h393.158c3.729 0 6.76-.899 6.76-2.008s-3.031-2.013-6.764-2.013H71.249c-3.729-.001-6.759.899-6.759 2.008z" fill-rule="evenodd" clip-rule="evenodd" fill="#404040"/><path d="M64.957 364.269c0 1.009 3.017 1.826 6.733 1.826l392.307.004c3.716 0 6.728-.821 6.728-1.825 0-1.009-3.017-1.83-6.728-1.83H71.686c-3.712-.001-6.729.816-6.729 1.825z" fill-rule="evenodd" clip-rule="evenodd" fill="#2e2d2d"/><path d="M65.398 364.098c0 .913 3 1.655 6.698 1.655h391.516c3.694 0 6.698-.742 6.698-1.655s-3.005-1.655-6.703-1.655H72.097c-3.699 0-6.699.743-6.699 1.655z" fill-rule="evenodd" clip-rule="evenodd" fill="#1f1e1e"/><path d="M65.809 363.937c0 .825 2.987 1.493 6.668 1.493H463.25c3.681 0 6.668-.668 6.668-1.493 0-.821-2.987-1.493-6.668-1.493H72.476c-3.681-.001-6.667.668-6.667 1.493z" fill-rule="evenodd" clip-rule="evenodd" fill="#100f10"/><path d="M66.193 363.784c0 .742 2.978 1.345 6.642 1.345h390.08c3.663 0 6.642-.603 6.642-1.341 0-.742-2.978-1.345-6.646-1.345H72.834c-3.667 0-6.641.603-6.641 1.341zM1.432.716h71.629v344.54H1.432z" fill-rule="evenodd" clip-rule="evenodd"/><linearGradient id="g" gradientUnits="userSpaceOnUse" x1="-23.011" y1="46.639" x2="43.538" y2="87.145"><stop offset="0" stop-color="#dfdede"/><stop offset="1" stop-color="#292b29"/></linearGradient><path fill-rule="evenodd" clip-rule="evenodd" fill="url(#g)" d="M1.432.725v164.742L72.341.725z"/><path fill-rule="evenodd" clip-rule="evenodd" fill="#2e2e2e" d="M4.297 5.017h64.464V347.4H4.297z"/><linearGradient id="h" gradientUnits="userSpaceOnUse" x1="-2.62" y1="21.244" x2="27.858" y2="41.837"><stop offset="0" stop-color="#524f4f"/><stop offset="1" stop-color="#2e2d2d"/></linearGradient><path fill-rule="evenodd" clip-rule="evenodd" fill="url(#h)" d="M4.62 5.201v73.594L51.574 5.201z"/><g fill-rule="evenodd" clip-rule="evenodd"><path d="M37.247 29.374c10.672 0 19.34 8.664 19.34 19.34s-8.667 19.34-19.34 19.34c-10.676 0-19.344-8.663-19.344-19.34s8.668-19.34 19.344-19.34z" fill="#333"/><path d="M37.247 39.4c5.139 0 9.31 4.174 9.31 9.314s-4.17 9.31-9.31 9.31c-5.144 0-9.314-4.17-9.314-9.31 0-5.14 4.17-9.314 9.314-9.314z" fill="#2e2e2e"/></g><g fill-rule="evenodd" clip-rule="evenodd"><path d="M37.247 86.677c10.672 0 19.34 8.663 19.34 19.34s-8.667 19.34-19.34 19.34c-10.676 0-19.344-8.663-19.344-19.34s8.668-19.34 19.344-19.34z" fill="#333"/><path d="M37.247 96.702c5.139 0 9.31 4.174 9.31 9.314 0 5.139-4.17 9.31-9.31 9.31-5.144 0-9.314-4.17-9.314-9.31 0-5.14 4.17-9.314 9.314-9.314z" fill="#2e2e2e"/></g><g fill-rule="evenodd" clip-rule="evenodd"><path d="M37.247 146.128c10.672 0 19.34 8.663 19.34 19.34 0 10.676-8.667 19.34-19.34 19.34-10.676 0-19.344-8.664-19.344-19.34 0-10.677 8.668-19.34 19.344-19.34z" fill="#333"/><path d="M37.247 156.153c5.139 0 9.31 4.174 9.31 9.314 0 5.139-4.17 9.309-9.31 9.309-5.144 0-9.314-4.17-9.314-9.309 0-5.139 4.17-9.314 9.314-9.314z" fill="#2e2e2e"/></g><g fill-rule="evenodd" clip-rule="evenodd"><path d="M37.247 203.43c10.672 0 19.34 8.663 19.34 19.34 0 10.676-8.667 19.34-19.34 19.34-10.676 0-19.344-8.663-19.344-19.34s8.668-19.34 19.344-19.34z" fill="#333"/><path d="M37.247 213.46c5.139 0 9.31 4.17 9.31 9.31 0 5.14-4.17 9.31-9.31 9.31-5.144 0-9.314-4.17-9.314-9.31 0-5.14 4.17-9.31 9.314-9.31z" fill="#2e2e2e"/></g><g fill-rule="evenodd" clip-rule="evenodd"><path d="M37.963 264.313c10.676 0 19.34 8.664 19.34 19.34s-8.663 19.34-19.34 19.34c-10.676 0-19.344-8.663-19.344-19.34 0-10.676 8.668-19.34 19.344-19.34z" fill="#333"/><path d="M37.963 274.344c5.14 0 9.31 4.17 9.31 9.309 0 5.14-4.17 9.314-9.31 9.314-5.139 0-9.314-4.174-9.314-9.314s4.175-9.309 9.314-9.309z" fill="#2e2e2e"/></g><linearGradient id="i" gradientUnits="userSpaceOnUse" x1="4.822" y1="-2.067" x2="5.894" y2="339.19"><stop offset="0" stop-color="#fff"/><stop offset="1" stop-color="#333"/></linearGradient><path fill-rule="evenodd" clip-rule="evenodd" fill="url(#i)" d="M4.297 5.022h2.148v335.222H4.297z"/><linearGradient id="j" gradientUnits="userSpaceOnUse" x1="4.178" y1="6.648" x2="67.617" y2="5.577"><stop offset="0" stop-color="#fff"/><stop offset="1" stop-color="#333"/></linearGradient><path fill-rule="evenodd" clip-rule="evenodd" fill="url(#j)" d="M5.729 5.022h62.32V7.17H5.729z"/><linearGradient id="k" gradientUnits="userSpaceOnUse" x1="-.076" y1="-1.534" x2="68.688" y2="7.001"><stop offset="0" stop-color="#8f8f8f"/><stop offset="1" stop-color="#070308"/></linearGradient><path fill-rule="evenodd" clip-rule="evenodd" fill="url(#k)" d="M1.432.725l2.865 5.013h64.464l3.58-5.013z"/><linearGradient id="l" gradientUnits="userSpaceOnUse" x1="36.531" y1="350.269" x2="36.531" y2="344.838"><stop offset="0" stop-color="#383838"/><stop offset="1" stop-color="#595959"/></linearGradient><path fill-rule="evenodd" clip-rule="evenodd" fill="url(#l)" d="M0 345.252l4.297 5.018h64.464l4.3-5.018z"/><linearGradient id="m" gradientUnits="userSpaceOnUse" x1="267.17" y1="327.363" x2="267.173" y2="303.726"><stop offset="0" stop-color="#474747"/><stop offset="1" stop-color="#969696"/></linearGradient><path fill-rule="evenodd" clip-rule="evenodd" fill="url(#m)" d="M68.044 302.988h398.254v24.353H68.044z"/><linearGradient id="n" gradientUnits="userSpaceOnUse" x1="267.169" y1="328.061" x2="267.169" y2="337.373"><stop offset="0" stop-color="#383838"/><stop offset="1" stop-color="#818080"/></linearGradient><path fill-rule="evenodd" clip-rule="evenodd" fill="url(#n)" d="M55.15 337.371h424.038l-12.894-10.026H68.044z"/><linearGradient id="o" gradientUnits="userSpaceOnUse" x1="55.154" y1="345.966" x2="479.188" y2="345.966"><stop offset="0" stop-color="#b6b5b5"/><stop offset=".48" stop-color="#626161"/><stop offset="1" stop-color="#a3a3a4"/></linearGradient><path fill-rule="evenodd" clip-rule="evenodd" fill="url(#o)" d="M55.154 337.371h424.034v17.191H55.154z"/><linearGradient id="p" gradientUnits="userSpaceOnUse" x1="267.171" y1="354.562" x2="267.171" y2="365.066"><stop offset="0" stop-color="#5e5c5b"/><stop offset="1" stop-color="#100f10"/></linearGradient><path fill-rule="evenodd" clip-rule="evenodd" fill="url(#p)" d="M55.15 354.562l9.266 8.597H470.94l8.253-8.597z"/><linearGradient id="q" gradientUnits="userSpaceOnUse" x1="62.673" y1="327.345" x2="62.673" y2="337.371"><stop offset="0" stop-color="#fff"/><stop offset="1" stop-color="#afb0b0"/></linearGradient><path fill-rule="evenodd" clip-rule="evenodd" fill="url(#q)" d="M55.87 337.371l12.174-10.026 1.433 10.026z"/><linearGradient id="r" gradientUnits="userSpaceOnUse" x1="471.671" y1="327.345" x2="471.671" y2="337.371"><stop offset="0" stop-color="#fff"/><stop offset="1" stop-color="#afb0b0"/></linearGradient><path fill-rule="evenodd" clip-rule="evenodd" fill="url(#r)" d="M478.476 337.371l-12.178-10.026-1.432 10.026z"/><path fill-rule="evenodd" clip-rule="evenodd" fill="gray" d="M48.233 47.277h433.824v256.249H48.233z"/><linearGradient id="s" gradientUnits="userSpaceOnUse" x1="57.742" y1="43.034" x2="351.418" y2="230.7"><stop offset="0" stop-color="#383838"/><stop offset="1" stop-color="#292b29"/></linearGradient><path fill-rule="evenodd" clip-rule="evenodd" fill="url(#s)" d="M50.141 49.43h429.767v252.126H50.141z"/><linearGradient id="t" gradientUnits="userSpaceOnUse" x1="76.493" y1="30.175" x2="191.099" y2="159.823"><stop offset="0" stop-color="#dfdede"/><stop offset="1" stop-color="#292b29"/></linearGradient><path fill-rule="evenodd" clip-rule="evenodd" fill="url(#t)" d="M50.137 49.43v162.415L280.461 49.43z"/><linearGradient id="u" gradientUnits="userSpaceOnUse" x1="69.149" y1="65.687" x2="469.44" y2="291.863"><stop offset="0" stop-color="#070308"/><stop offset="1" stop-color="#384245"/></linearGradient><path fill-rule="evenodd" clip-rule="evenodd" fill="url(#u)" d="M58.735 58.735h413.297v235.66H58.735z"/><linearGradient id="v" gradientUnits="userSpaceOnUse" x1="70.528" y1="67.031" x2="469.432" y2="290.453"><stop offset="0" stop-color="#747575"/><stop offset="1" stop-color="#171b1e"/></linearGradient><path fill-rule="evenodd" clip-rule="evenodd" fill="url(#v)" d="M60.167 60.171h411.86v232.791H60.167z"/><path fill-rule="evenodd" clip-rule="evenodd" fill="#5e5e5e" d="M55.154 337.371h422.602v1.437H55.154z"/><path fill-rule="evenodd" clip-rule="evenodd" fill="#949191" d="M56.586 336.659h421.89v.712H56.586z"/><path fill-rule="evenodd" clip-rule="evenodd" fill="#b0b0b0" d="M55.154 338.803h422.602v1.432H55.154z"/><path fill-rule="evenodd" clip-rule="evenodd" fill="#404040" d="M55.15 337.375h1.437v17.191H55.15z"/><path fill-rule="evenodd" clip-rule="evenodd" fill="#4f4f4f" d="M477.76 337.375h1.432v17.191h-1.432z"/><path fill-rule="evenodd" clip-rule="evenodd" fill="#404040" d="M68.044 303.704h1.437v23.641h-1.437zM464.866 303.709h1.432v23.636h-1.432z"/><path fill-rule="evenodd" clip-rule="evenodd" fill="#616161" d="M472.027 58.735h1.437v234.944h-1.437z"/><path fill-rule="evenodd" clip-rule="evenodd" fill="#696969" d="M58.735 291.53H473.46v1.432H58.735z"/><path fill-rule="evenodd" clip-rule="evenodd" fill="#575757" d="M69.477 326.629h395.389v.716H69.477z"/><linearGradient id="w" gradientUnits="userSpaceOnUse" x1="267.171" y1="302.268" x2="267.171" y2="305.855"><stop offset="0" stop-color="#404040"/><stop offset="1" stop-color="#8c8c8c"/></linearGradient><path fill-rule="evenodd" clip-rule="evenodd" fill="url(#w)" d="M69.477 303.704h395.389v2.153H69.477z"/><path fill-rule="evenodd" clip-rule="evenodd" fill="#bfbfbf" d="M56.586 338.807h1.432v15.755h-1.432z"/><path fill-rule="evenodd" clip-rule="evenodd" fill="#333" d="M68.044 327.345h398.254v1.432H68.044z"/><linearGradient id="x" gradientUnits="userSpaceOnUse" x1="50.488" y1="45.105" x2="51.205" y2="287.924"><stop offset="0" stop-color="#fff"/><stop offset="1" stop-color="#333"/></linearGradient><path fill-rule="evenodd" clip-rule="evenodd" fill="url(#x)" d="M50.137 50.146h1.437V288.67h-1.437z"/><linearGradient id="y" gradientUnits="userSpaceOnUse" x1="44.432" y1="50.509" x2="464.174" y2="49.792"><stop offset="0" stop-color="#fff"/><stop offset="1" stop-color="#292b29"/></linearGradient><path fill-rule="evenodd" clip-rule="evenodd" fill="url(#y)" d="M50.853 49.425h414.729v1.437H50.853z"/><path fill-rule="evenodd" clip-rule="evenodd" fill="#8c8c8c" d="M56.582 353.845h421.174v1.432H56.582z"/><linearGradient id="z" gradientUnits="userSpaceOnUse" x1="267.887" y1="318.035" x2="267.887" y2="327.347"><stop offset="0" stop-color="#7e7d7d"/><stop offset="1" stop-color="#3d3d3d"/></linearGradient><path fill-rule="evenodd" clip-rule="evenodd" fill="url(#z)" d="M68.761 327.345h398.253l-12.894-7.161H81.655z"/><linearGradient id="A" gradientUnits="userSpaceOnUse" x1="57.65" y1="52.261" x2="58.366" y2="295.081"><stop offset="0" stop-color="#fff"/><stop offset="1" stop-color="#333"/></linearGradient><path fill-rule="evenodd" clip-rule="evenodd" fill="url(#A)" d="M57.298 57.303h1.436v238.524h-1.436z"/><linearGradient id="B" gradientUnits="userSpaceOnUse" x1="52.31" y1="58.388" x2="472.051" y2="57.671"><stop offset="0" stop-color="#fff"/><stop offset="1" stop-color="#292b29"/></linearGradient><path fill-rule="evenodd" clip-rule="evenodd" fill="url(#B)" d="M58.735 57.307H473.46v1.432H58.735z"/><linearGradient id="C" gradientUnits="userSpaceOnUse" x1="46.012" y1="107.89" x2="186.356" y2="192.357"><stop offset="0" stop-color="#adadad"/><stop offset="1" stop-color="#575959"/></linearGradient><path fill-rule="evenodd" clip-rule="evenodd" fill="url(#C)" d="M60.167 60.171v232.791h51.277L260.073 60.171z"/></svg>