<?xml version="1.0" encoding="UTF-8" standalone="no"?>
<svg
   xmlns:dc="http://purl.org/dc/elements/1.1/"
   xmlns:cc="http://creativecommons.org/ns#"
   xmlns:rdf="http://www.w3.org/1999/02/22-rdf-syntax-ns#"
   xmlns:svg="http://www.w3.org/2000/svg"
   xmlns="http://www.w3.org/2000/svg"
   xmlns:sodipodi="http://sodipodi.sourceforge.net/DTD/sodipodi-0.dtd"
   xmlns:inkscape="http://www.inkscape.org/namespaces/inkscape"
   viewBox="0 0 812.23 376.05"
   version="1.1"
   id="svg572"
   sodipodi:docname="consolegame.svg"
   width="812.22998"
   height="376.04999"
   inkscape:version="0.92.4 5da689c313, 2019-01-14">
  <metadata
     id="metadata578">
    <rdf:RDF>
      <cc:Work
         rdf:about="">
        <dc:format>image/svg+xml</dc:format>
        <dc:type
           rdf:resource="http://purl.org/dc/dcmitype/StillImage" />
      </cc:Work>
    </rdf:RDF>
  </metadata>
  <defs
     id="defs576" />
  <sodipodi:namedview
     pagecolor="#ffffff"
     bordercolor="#666666"
     borderopacity="1"
     objecttolerance="10"
     gridtolerance="10"
     guidetolerance="10"
     inkscape:pageopacity="0"
     inkscape:pageshadow="2"
     inkscape:window-width="640"
     inkscape:window-height="480"
     id="namedview574"
     showgrid="false"
     inkscape:zoom="0.33364934"
     inkscape:cx="406.11499"
     inkscape:cy="188.02501"
     inkscape:window-x="0"
     inkscape:window-y="0"
     inkscape:window-maximized="0"
     inkscape:current-layer="svg572">
    <inkscape:grid
       type="xygrid"
       id="grid1385"
       originx="0"
       originy="1.2207032e-05" />
  </sodipodi:namedview>
  <path
     d="m 453.403,352.055 c 0,3.755 3.415,6.803 7.624,6.803 h 67.132 c 4.205,0 7.62,-3.048 7.62,-6.803 0,-3.755 -3.415,-6.803 -7.62,-6.803 h -67.132 c -4.209,0 -7.624,3.048 -7.624,6.803 z"
     id="path2"
     inkscape:connector-curvature="0"
     style="clip-rule:evenodd;fill:#f0f0f0;fill-rule:evenodd" />
  <path
     d="m 455.408,351.13 c 0,2.912 3.105,5.279 6.926,5.279 h 64.918 c 3.821,0 6.926,-2.367 6.926,-5.279 0,-2.912 -3.105,-5.275 -6.926,-5.275 h -64.918 c -3.822,0 -6.926,2.362 -6.926,5.275 z"
     id="path4"
     inkscape:connector-curvature="0"
     style="clip-rule:evenodd;fill:#cac9c9;fill-rule:evenodd" />
  <path
     d="m 456.932,350.422 v 0.004 c 0,2.271 2.869,4.114 6.397,4.114 h 63.232 c 3.528,0 6.397,-1.843 6.397,-4.114 v -0.004 c 0,-2.271 -2.869,-4.113 -6.397,-4.113 h -63.232 c -3.528,0 -6.397,1.842 -6.397,4.113 z"
     id="path6"
     inkscape:connector-curvature="0"
     style="clip-rule:evenodd;fill:#a2a1a1;fill-rule:evenodd" />
  <path
     d="m 458.133,349.868 v 0.004 c 0,1.764 2.681,3.196 5.982,3.196 h 61.9 c 3.301,0 5.982,-1.432 5.982,-3.196 v -0.004 c 0,-1.764 -2.681,-3.196 -5.982,-3.196 h -61.9 c -3.301,-0.001 -5.982,1.432 -5.982,3.196 z"
     id="path8"
     inkscape:connector-curvature="0"
     style="clip-rule:evenodd;fill:#797878;fill-rule:evenodd" />
  <path
     d="m 459.102,349.422 c 0,1.358 2.528,2.463 5.642,2.463 h 60.835 c 3.113,0 5.642,-1.105 5.642,-2.463 0,-1.358 -2.528,-2.463 -5.642,-2.463 h -60.835 c -3.114,10e-4 -5.642,1.105 -5.642,2.463 z"
     id="path10"
     inkscape:connector-curvature="0"
     style="clip-rule:evenodd;fill:#4f4f4f;fill-rule:evenodd" />
  <path
     d="m 459.897,349.051 v 0.004 c 0,1.022 2.406,1.852 5.371,1.852 h 59.949 c 2.961,0 5.367,-0.83 5.367,-1.852 v -0.004 c 0,-1.022 -2.406,-1.852 -5.367,-1.852 h -59.949 c -2.965,10e-4 -5.371,0.831 -5.371,1.852 z"
     id="path12"
     inkscape:connector-curvature="0"
     style="clip-rule:evenodd;fill:#262525;fill-rule:evenodd" />
  <path
     d="m 460.569,348.741 v 0.004 c 0,0.738 2.301,1.341 5.135,1.341 h 59.211 c 2.834,0 5.135,-0.603 5.135,-1.341 v -0.004 c 0,-0.738 -2.301,-1.341 -5.135,-1.341 h -59.211 c -2.833,0 -5.135,0.603 -5.135,1.341 z M 461.285,0 h 70.913 v 344.54 h -70.913 z"
     id="path14"
     inkscape:connector-curvature="0"
     style="clip-rule:evenodd;fill-rule:evenodd" />
  <linearGradient
     id="a"
     gradientUnits="userSpaceOnUse"
     x1="436.125"
     y1="45.924999"
     x2="502.67401"
     y2="86.43">
    <stop
       offset="0"
       stop-color="#dfdede"
       id="stop16" />
    <stop
       offset="1"
       stop-color="#292b29"
       id="stop18" />
  </linearGradient>
  <path
     d="M 460.565,0.009 V 164.751 L 531.474,0.009 Z"
     id="path21"
     inkscape:connector-curvature="0"
     style="clip-rule:evenodd;fill:url(#a);fill-rule:evenodd" />
  <path
     d="m 463.434,4.301 h 64.464 v 342.384 h -64.464 z"
     id="path23"
     inkscape:connector-curvature="0"
     style="clip-rule:evenodd;fill:#2e2e2e;fill-rule:evenodd" />
  <linearGradient
     id="b"
     gradientUnits="userSpaceOnUse"
     x1="456.51599"
     y1="20.528"
     x2="486.99399"
     y2="41.120998">
    <stop
       offset="0"
       stop-color="#524f4f"
       id="stop25" />
    <stop
       offset="1"
       stop-color="#2e2d2d"
       id="stop27" />
  </linearGradient>
  <path
     d="M 463.757,4.484 V 78.079 L 510.706,4.484 Z"
     id="path30"
     inkscape:connector-curvature="0"
     style="clip-rule:evenodd;fill:url(#b);fill-rule:evenodd" />
  <g
     id="g36"
     style="clip-rule:evenodd;fill-rule:evenodd">
    <path
       d="m 496.379,28.658 c 10.676,0 19.344,8.663 19.344,19.34 0,10.677 -8.668,19.34 -19.344,19.34 -10.672,0 -19.339,-8.663 -19.339,-19.34 0,-10.677 8.668,-19.34 19.339,-19.34 z"
       id="path32"
       inkscape:connector-curvature="0"
       style="fill:#333333" />
    <path
       d="m 496.379,38.683 c 5.144,0 9.314,4.175 9.314,9.314 0,5.14 -4.17,9.31 -9.314,9.31 -5.139,0 -9.309,-4.17 -9.309,-9.31 0,-5.139 4.17,-9.314 9.309,-9.314 z"
       id="path34"
       inkscape:connector-curvature="0"
       style="fill:#2e2e2e" />
  </g>
  <g
     id="g42"
     style="clip-rule:evenodd;fill-rule:evenodd">
    <path
       d="m 496.379,85.961 c 10.676,0 19.344,8.663 19.344,19.34 0,10.676 -8.668,19.34 -19.344,19.34 -10.672,0 -19.339,-8.664 -19.339,-19.34 0,-10.677 8.668,-19.34 19.339,-19.34 z"
       id="path38"
       inkscape:connector-curvature="0"
       style="fill:#333333" />
    <path
       d="m 496.379,95.986 c 5.144,0 9.314,4.174 9.314,9.314 0,5.139 -4.17,9.309 -9.314,9.309 -5.139,0 -9.309,-4.17 -9.309,-9.309 0,-5.139 4.17,-9.314 9.309,-9.314 z"
       id="path40"
       inkscape:connector-curvature="0"
       style="fill:#2e2e2e" />
  </g>
  <g
     id="g48"
     style="clip-rule:evenodd;fill-rule:evenodd">
    <path
       d="m 496.379,145.411 c 10.676,0 19.344,8.663 19.344,19.34 0,10.676 -8.668,19.34 -19.344,19.34 -10.672,0 -19.339,-8.663 -19.339,-19.34 0,-10.676 8.668,-19.34 19.339,-19.34 z"
       id="path44"
       inkscape:connector-curvature="0"
       style="fill:#333333" />
    <path
       d="m 496.379,155.437 c 5.144,0 9.314,4.175 9.314,9.314 0,5.14 -4.17,9.31 -9.314,9.31 -5.139,0 -9.309,-4.17 -9.309,-9.31 0,-5.139 4.17,-9.314 9.309,-9.314 z"
       id="path46"
       inkscape:connector-curvature="0"
       style="fill:#2e2e2e" />
  </g>
  <g
     id="g54"
     style="clip-rule:evenodd;fill-rule:evenodd">
    <path
       d="m 496.379,202.714 c 10.676,0 19.344,8.663 19.344,19.34 0,10.676 -8.668,19.34 -19.344,19.34 -10.672,0 -19.339,-8.663 -19.339,-19.34 0,-10.677 8.668,-19.34 19.339,-19.34 z"
       id="path50"
       inkscape:connector-curvature="0"
       style="fill:#333333" />
    <path
       d="m 496.379,212.74 c 5.144,0 9.314,4.174 9.314,9.314 0,5.139 -4.17,9.309 -9.314,9.309 -5.139,0 -9.309,-4.17 -9.309,-9.309 0,-5.14 4.17,-9.314 9.309,-9.314 z"
       id="path52"
       inkscape:connector-curvature="0"
       style="fill:#2e2e2e" />
  </g>
  <g
     id="g60"
     style="clip-rule:evenodd;fill-rule:evenodd">
    <path
       d="m 497.1,263.597 c 10.672,0 19.34,8.663 19.34,19.34 0,10.677 -8.668,19.34 -19.34,19.34 -10.676,0 -19.344,-8.663 -19.344,-19.34 0,-10.677 8.668,-19.34 19.344,-19.34 z"
       id="path56"
       inkscape:connector-curvature="0"
       style="fill:#333333" />
    <path
       d="m 497.1,273.627 c 5.139,0 9.31,4.17 9.31,9.31 0,5.14 -4.17,9.314 -9.31,9.314 -5.144,0 -9.314,-4.174 -9.314,-9.314 0,-5.139 4.17,-9.31 9.314,-9.31 z"
       id="path58"
       inkscape:connector-curvature="0"
       style="fill:#2e2e2e" />
  </g>
  <linearGradient
     id="c"
     gradientUnits="userSpaceOnUse"
     x1="463.95901"
     y1="-2.783"
     x2="465.03101"
     y2="338.474">
    <stop
       offset="0"
       stop-color="#fff"
       id="stop62" />
    <stop
       offset="1"
       stop-color="#333"
       id="stop64" />
  </linearGradient>
  <path
     d="m 463.434,4.306 h 2.148 v 335.222 h -2.148 z"
     id="path67"
     inkscape:connector-curvature="0"
     style="clip-rule:evenodd;fill:url(#c);fill-rule:evenodd" />
  <linearGradient
     id="d"
     gradientUnits="userSpaceOnUse"
     x1="463.311"
     y1="5.9320002"
     x2="526.75"
     y2="4.8610001">
    <stop
       offset="0"
       stop-color="#fff"
       id="stop69" />
    <stop
       offset="1"
       stop-color="#333"
       id="stop71" />
  </linearGradient>
  <path
     d="m 464.866,4.306 h 62.315 v 2.148 h -62.315 z"
     id="path74"
     inkscape:connector-curvature="0"
     style="clip-rule:evenodd;fill:url(#d);fill-rule:evenodd" />
  <linearGradient
     id="e"
     gradientUnits="userSpaceOnUse"
     x1="459.05701"
     y1="-2.2509999"
     x2="527.82001"
     y2="6.2839999">
    <stop
       offset="0"
       stop-color="#878787"
       id="stop76" />
    <stop
       offset="1"
       stop-color="#070308"
       id="stop78" />
  </linearGradient>
  <path
     d="m 460.565,0.009 2.869,5.013 h 64.464 l 3.58,-5.013 z"
     id="path81"
     inkscape:connector-curvature="0"
     style="clip-rule:evenodd;fill:url(#e);fill-rule:evenodd" />
  <linearGradient
     id="f"
     gradientUnits="userSpaceOnUse"
     x1="495.66501"
     y1="349.55301"
     x2="495.66501"
     y2="344.12201">
    <stop
       offset="0"
       stop-color="#383838"
       id="stop83" />
    <stop
       offset="1"
       stop-color="#595959"
       id="stop85" />
  </linearGradient>
  <path
     d="m 459.132,344.536 4.302,5.017 h 64.464 l 4.3,-5.017 z"
     id="path88"
     inkscape:connector-curvature="0"
     style="clip-rule:evenodd;fill:url(#f);fill-rule:evenodd" />
  <path
     d="m 0.712,352.771 v 0.005 c 0,3.755 3.415,6.803 7.624,6.803 h 67.132 c 4.205,0 7.62,-3.048 7.62,-6.803 v -0.005 c 0,-3.755 -3.415,-6.803 -7.62,-6.803 H 8.336 c -4.209,0 -7.624,3.048 -7.624,6.803 z"
     id="path90"
     inkscape:connector-curvature="0"
     style="clip-rule:evenodd;fill:#f0f0f0;fill-rule:evenodd" />
  <path
     d="m 2.716,351.846 c 0,2.913 3.105,5.28 6.925,5.28 h 64.918 c 3.821,0 6.925,-2.367 6.925,-5.28 0,-2.912 -3.105,-5.274 -6.925,-5.274 H 9.641 c -3.82,-10e-4 -6.925,2.361 -6.925,5.274 z"
     id="path92"
     inkscape:connector-curvature="0"
     style="clip-rule:evenodd;fill:#cac9c9;fill-rule:evenodd" />
  <path
     d="m 4.24,351.143 c 0,2.271 2.869,4.113 6.397,4.113 h 63.232 c 3.528,0 6.397,-1.843 6.397,-4.113 0,-2.271 -2.869,-4.118 -6.397,-4.118 H 10.637 c -3.528,0 -6.397,1.847 -6.397,4.118 z"
     id="path94"
     inkscape:connector-curvature="0"
     style="clip-rule:evenodd;fill:#a2a1a1;fill-rule:evenodd" />
  <path
     d="m 5.441,350.588 c 0,1.764 2.681,3.201 5.982,3.201 h 61.9 c 3.301,0 5.982,-1.437 5.982,-3.201 0,-1.768 -2.681,-3.201 -5.982,-3.201 h -61.9 c -3.301,0 -5.982,1.433 -5.982,3.201 z"
     id="path96"
     inkscape:connector-curvature="0"
     style="clip-rule:evenodd;fill:#797878;fill-rule:evenodd" />
  <path
     d="m 6.41,350.139 c 0,1.358 2.528,2.463 5.642,2.463 h 60.835 c 3.113,0 5.642,-1.105 5.642,-2.463 0,-1.358 -2.528,-2.463 -5.642,-2.463 H 12.052 c -3.114,0 -5.642,1.104 -5.642,2.463 z"
     id="path98"
     inkscape:connector-curvature="0"
     style="clip-rule:evenodd;fill:#4f4f4f;fill-rule:evenodd" />
  <path
     d="m 7.209,349.767 v 0.004 c 0,1.022 2.402,1.852 5.367,1.852 h 59.949 c 2.965,0 5.367,-0.829 5.367,-1.852 v -0.004 c 0,-1.022 -2.402,-1.852 -5.367,-1.852 H 12.576 c -2.965,10e-4 -5.367,0.83 -5.367,1.852 z"
     id="path100"
     inkscape:connector-curvature="0"
     style="clip-rule:evenodd;fill:#262525;fill-rule:evenodd" />
  <path
     d="m 7.877,349.461 c 0,0.742 2.301,1.341 5.135,1.341 h 59.211 c 2.834,0 5.135,-0.598 5.135,-1.341 0,-0.742 -2.301,-1.345 -5.135,-1.345 H 13.012 c -2.833,0.001 -5.135,0.603 -5.135,1.345 z"
     id="path102"
     inkscape:connector-curvature="0"
     style="clip-rule:evenodd;fill-rule:evenodd" />
  <path
     d="m 52.285,369.242 v 0.004 c 0,3.755 3.415,6.803 7.62,6.803 h 415.24 c 4.205,0 7.62,-3.048 7.62,-6.803 v -0.004 c 0,-3.756 -3.415,-6.803 -7.62,-6.803 H 59.905 c -4.205,0 -7.62,3.048 -7.62,6.803 z"
     id="path104"
     inkscape:connector-curvature="0"
     style="clip-rule:evenodd;fill:#ffffff;fill-rule:evenodd" />
  <path
     d="m 54.818,368.251 c 0,3.205 3.332,5.807 7.441,5.807 l 410.659,0.005 c 4.109,0 7.445,-2.607 7.445,-5.812 0,-3.205 -3.336,-5.812 -7.445,-5.812 H 62.259 c -4.109,0 -7.441,2.607 -7.441,5.812 z"
     id="path106"
     inkscape:connector-curvature="0"
     style="clip-rule:evenodd;fill:#eeedec;fill-rule:evenodd" />
  <path
     d="m 56.639,367.535 c 0,2.812 3.279,5.096 7.314,5.096 h 407.362 c 4.039,0 7.314,-2.284 7.314,-5.096 0,-2.812 -3.279,-5.092 -7.314,-5.092 L 63.953,362.439 c -4.035,0 -7.314,2.284 -7.314,5.096 z"
     id="path108"
     inkscape:connector-curvature="0"
     style="clip-rule:evenodd;fill:#dfdede;fill-rule:evenodd" />
  <path
     d="m 58.014,366.993 v 0.004 c 0,2.511 3.236,4.55 7.218,4.55 l 404.873,0.005 c 3.982,0 7.218,-2.044 7.218,-4.555 0,-2.515 -3.236,-4.554 -7.218,-4.554 L 65.232,362.439 c -3.982,0 -7.218,2.044 -7.218,4.554 z"
     id="path110"
     inkscape:connector-curvature="0"
     style="clip-rule:evenodd;fill:#cfcfce;fill-rule:evenodd" />
  <path
     d="m 59.088,366.574 c 0,2.279 3.201,4.131 7.144,4.131 h 402.93 c 3.939,0 7.14,-1.852 7.14,-4.131 0,-2.279 -3.201,-4.131 -7.144,-4.131 L 66.232,362.439 c -3.943,0 -7.144,1.856 -7.144,4.135 z"
     id="path112"
     inkscape:connector-curvature="0"
     style="clip-rule:evenodd;fill:#bdbdbc;fill-rule:evenodd" />
  <path
     d="m 59.984,366.221 c 0,2.087 3.175,3.781 7.082,3.781 h 401.306 c 3.908,0 7.078,-1.694 7.078,-3.777 v -0.004 c 0,-2.083 -3.17,-3.777 -7.078,-3.777 H 67.062 c -3.904,-0.001 -7.078,1.689 -7.078,3.777 z"
     id="path114"
     inkscape:connector-curvature="0"
     style="clip-rule:evenodd;fill:#adadad;fill-rule:evenodd" />
  <path
     d="m 60.8,365.902 c 0,1.908 3.148,3.458 7.021,3.458 l 399.835,0.004 c 3.873,0 7.022,-1.55 7.022,-3.463 0,-1.908 -3.148,-3.458 -7.022,-3.458 H 67.822 c -3.878,0 -7.022,1.55 -7.022,3.459 z"
     id="path116"
     inkscape:connector-curvature="0"
     style="clip-rule:evenodd;fill:#9f9f9f;fill-rule:evenodd" />
  <path
     d="m 61.547,365.609 c 0,1.747 3.122,3.166 6.969,3.166 l 398.485,0.004 c 3.842,0 6.969,-1.419 6.969,-3.17 0,-1.747 -3.127,-3.166 -6.973,-3.166 H 68.516 c -3.847,0 -6.969,1.42 -6.969,3.166 z"
     id="path118"
     inkscape:connector-curvature="0"
     style="clip-rule:evenodd;fill:#8f8f8f;fill-rule:evenodd" />
  <path
     d="m 62.232,365.338 c 0,1.602 3.1,2.899 6.921,2.899 h 397.245 c 3.816,0 6.921,-1.297 6.921,-2.895 0,-1.602 -3.105,-2.899 -6.926,-2.899 H 69.154 c -3.821,0 -6.922,1.297 -6.922,2.895 z"
     id="path120"
     inkscape:connector-curvature="0"
     style="clip-rule:evenodd;fill:#818080;fill-rule:evenodd" />
  <path
     d="m 62.861,365.094 c 0,1.463 3.083,2.65 6.877,2.65 H 465.84 c 3.799,0 6.877,-1.188 6.877,-2.65 0,-1.463 -3.083,-2.651 -6.877,-2.651 H 69.739 c -3.795,0 -6.878,1.188 -6.878,2.651 z"
     id="path122"
     inkscape:connector-curvature="0"
     style="clip-rule:evenodd;fill:#6e6e6e;fill-rule:evenodd" />
  <path
     d="m 63.446,364.863 c 0,1.336 3.061,2.423 6.834,2.423 h 395.049 c 3.773,0 6.833,-1.083 6.833,-2.419 0,-1.336 -3.061,-2.423 -6.838,-2.423 H 70.28 c -3.773,-0.001 -6.834,1.082 -6.834,2.419 z"
     id="path124"
     inkscape:connector-curvature="0"
     style="clip-rule:evenodd;fill:#5f5e5e;fill-rule:evenodd" />
  <path
     d="m 63.988,364.648 v 0.004 c 0,1.218 3.048,2.205 6.799,2.205 l 394.066,0.004 c 3.751,0 6.798,-0.991 6.798,-2.21 0,-1.218 -3.048,-2.209 -6.803,-2.209 H 70.782 c -3.751,10e-4 -6.794,0.988 -6.794,2.206 z"
     id="path126"
     inkscape:connector-curvature="0"
     style="clip-rule:evenodd;fill:#4f4f4f;fill-rule:evenodd" />
  <path
     d="m 64.49,364.452 c 0,1.109 3.03,2.013 6.764,2.013 h 393.158 c 3.729,0 6.76,-0.899 6.76,-2.008 0,-1.109 -3.031,-2.013 -6.764,-2.013 H 71.249 c -3.729,-0.001 -6.759,0.899 -6.759,2.008 z"
     id="path128"
     inkscape:connector-curvature="0"
     style="clip-rule:evenodd;fill:#404040;fill-rule:evenodd" />
  <path
     d="m 64.957,364.269 c 0,1.009 3.017,1.826 6.733,1.826 l 392.307,0.004 c 3.716,0 6.728,-0.821 6.728,-1.825 0,-1.009 -3.017,-1.83 -6.728,-1.83 H 71.686 c -3.712,-0.001 -6.729,0.816 -6.729,1.825 z"
     id="path130"
     inkscape:connector-curvature="0"
     style="clip-rule:evenodd;fill:#2e2d2d;fill-rule:evenodd" />
  <path
     d="m 65.398,364.098 c 0,0.913 3,1.655 6.698,1.655 h 391.516 c 3.694,0 6.698,-0.742 6.698,-1.655 0,-0.913 -3.005,-1.655 -6.703,-1.655 H 72.097 c -3.699,0 -6.699,0.743 -6.699,1.655 z"
     id="path132"
     inkscape:connector-curvature="0"
     style="clip-rule:evenodd;fill:#1f1e1e;fill-rule:evenodd" />
  <path
     d="m 65.809,363.937 c 0,0.825 2.987,1.493 6.668,1.493 H 463.25 c 3.681,0 6.668,-0.668 6.668,-1.493 0,-0.821 -2.987,-1.493 -6.668,-1.493 H 72.476 c -3.681,-0.001 -6.667,0.668 -6.667,1.493 z"
     id="path134"
     inkscape:connector-curvature="0"
     style="clip-rule:evenodd;fill:#100f10;fill-rule:evenodd" />
  <path
     d="m 66.193,363.784 c 0,0.742 2.978,1.345 6.642,1.345 h 390.08 c 3.663,0 6.642,-0.603 6.642,-1.341 0,-0.742 -2.978,-1.345 -6.646,-1.345 H 72.834 c -3.667,0 -6.641,0.603 -6.641,1.341 z M 1.432,0.716 h 71.629 v 344.54 H 1.432 Z"
     id="path136"
     inkscape:connector-curvature="0"
     style="clip-rule:evenodd;fill-rule:evenodd" />
  <linearGradient
     id="g"
     gradientUnits="userSpaceOnUse"
     x1="-23.011"
     y1="46.639"
     x2="43.537998"
     y2="87.144997">
    <stop
       offset="0"
       stop-color="#dfdede"
       id="stop138" />
    <stop
       offset="1"
       stop-color="#292b29"
       id="stop140" />
  </linearGradient>
  <path
     d="M 1.432,0.725 V 165.467 L 72.341,0.725 Z"
     id="path143"
     inkscape:connector-curvature="0"
     style="clip-rule:evenodd;fill:url(#g);fill-rule:evenodd" />
  <path
     d="M 4.297,5.017 H 68.761 V 347.4 H 4.297 Z"
     id="path145"
     inkscape:connector-curvature="0"
     style="clip-rule:evenodd;fill:#2e2e2e;fill-rule:evenodd" />
  <linearGradient
     id="h"
     gradientUnits="userSpaceOnUse"
     x1="-2.6199999"
     y1="21.243999"
     x2="27.858"
     y2="41.837002">
    <stop
       offset="0"
       stop-color="#524f4f"
       id="stop147" />
    <stop
       offset="1"
       stop-color="#2e2d2d"
       id="stop149" />
  </linearGradient>
  <path
     d="M 4.62,5.201 V 78.795 L 51.574,5.201 Z"
     id="path152"
     inkscape:connector-curvature="0"
     style="clip-rule:evenodd;fill:url(#h);fill-rule:evenodd" />
  <g
     id="g158"
     style="clip-rule:evenodd;fill-rule:evenodd">
    <path
       d="m 37.247,29.374 c 10.672,0 19.34,8.664 19.34,19.34 0,10.676 -8.667,19.34 -19.34,19.34 -10.676,0 -19.344,-8.663 -19.344,-19.34 0,-10.677 8.668,-19.34 19.344,-19.34 z"
       id="path154"
       inkscape:connector-curvature="0"
       style="fill:#333333" />
    <path
       d="m 37.247,39.4 c 5.139,0 9.31,4.174 9.31,9.314 0,5.14 -4.17,9.31 -9.31,9.31 -5.144,0 -9.314,-4.17 -9.314,-9.31 0,-5.14 4.17,-9.314 9.314,-9.314 z"
       id="path156"
       inkscape:connector-curvature="0"
       style="fill:#2e2e2e" />
  </g>
  <g
     id="g164"
     style="clip-rule:evenodd;fill-rule:evenodd">
    <path
       d="m 37.247,86.677 c 10.672,0 19.34,8.663 19.34,19.34 0,10.677 -8.667,19.34 -19.34,19.34 -10.676,0 -19.344,-8.663 -19.344,-19.34 0,-10.677 8.668,-19.34 19.344,-19.34 z"
       id="path160"
       inkscape:connector-curvature="0"
       style="fill:#333333" />
    <path
       d="m 37.247,96.702 c 5.139,0 9.31,4.174 9.31,9.314 0,5.139 -4.17,9.31 -9.31,9.31 -5.144,0 -9.314,-4.17 -9.314,-9.31 0,-5.14 4.17,-9.314 9.314,-9.314 z"
       id="path162"
       inkscape:connector-curvature="0"
       style="fill:#2e2e2e" />
  </g>
  <g
     id="g170"
     style="clip-rule:evenodd;fill-rule:evenodd">
    <path
       d="m 37.247,146.128 c 10.672,0 19.34,8.663 19.34,19.34 0,10.676 -8.667,19.34 -19.34,19.34 -10.676,0 -19.344,-8.664 -19.344,-19.34 0,-10.677 8.668,-19.34 19.344,-19.34 z"
       id="path166"
       inkscape:connector-curvature="0"
       style="fill:#333333" />
    <path
       d="m 37.247,156.153 c 5.139,0 9.31,4.174 9.31,9.314 0,5.139 -4.17,9.309 -9.31,9.309 -5.144,0 -9.314,-4.17 -9.314,-9.309 0,-5.139 4.17,-9.314 9.314,-9.314 z"
       id="path168"
       inkscape:connector-curvature="0"
       style="fill:#2e2e2e" />
  </g>
  <g
     id="g176"
     style="clip-rule:evenodd;fill-rule:evenodd">
    <path
       d="m 37.247,203.43 c 10.672,0 19.34,8.663 19.34,19.34 0,10.676 -8.667,19.34 -19.34,19.34 -10.676,0 -19.344,-8.663 -19.344,-19.34 0,-10.677 8.668,-19.34 19.344,-19.34 z"
       id="path172"
       inkscape:connector-curvature="0"
       style="fill:#333333" />
    <path
       d="m 37.247,213.46 c 5.139,0 9.31,4.17 9.31,9.31 0,5.14 -4.17,9.31 -9.31,9.31 -5.144,0 -9.314,-4.17 -9.314,-9.31 0,-5.14 4.17,-9.31 9.314,-9.31 z"
       id="path174"
       inkscape:connector-curvature="0"
       style="fill:#2e2e2e" />
  </g>
  <g
     id="g182"
     style="clip-rule:evenodd;fill-rule:evenodd">
    <path
       d="m 37.963,264.313 c 10.676,0 19.34,8.664 19.34,19.34 0,10.676 -8.663,19.34 -19.34,19.34 -10.676,0 -19.344,-8.663 -19.344,-19.34 0,-10.676 8.668,-19.34 19.344,-19.34 z"
       id="path178"
       inkscape:connector-curvature="0"
       style="fill:#333333" />
    <path
       d="m 37.963,274.344 c 5.14,0 9.31,4.17 9.31,9.309 0,5.14 -4.17,9.314 -9.31,9.314 -5.139,0 -9.314,-4.174 -9.314,-9.314 0,-5.14 4.175,-9.309 9.314,-9.309 z"
       id="path180"
       inkscape:connector-curvature="0"
       style="fill:#2e2e2e" />
  </g>
  <linearGradient
     id="i"
     gradientUnits="userSpaceOnUse"
     x1="4.822"
     y1="-2.0669999"
     x2="5.8940001"
     y2="339.19">
    <stop
       offset="0"
       stop-color="#fff"
       id="stop184" />
    <stop
       offset="1"
       stop-color="#333"
       id="stop186" />
  </linearGradient>
  <path
     d="M 4.297,5.022 H 6.445 V 340.244 H 4.297 Z"
     id="path189"
     inkscape:connector-curvature="0"
     style="clip-rule:evenodd;fill:url(#i);fill-rule:evenodd" />
  <linearGradient
     id="j"
     gradientUnits="userSpaceOnUse"
     x1="4.178"
     y1="6.6479998"
     x2="67.616997"
     y2="5.5770001">
    <stop
       offset="0"
       stop-color="#fff"
       id="stop191" />
    <stop
       offset="1"
       stop-color="#333"
       id="stop193" />
  </linearGradient>
  <path
     d="m 5.729,5.022 h 62.32 V 7.17 H 5.729 Z"
     id="path196"
     inkscape:connector-curvature="0"
     style="clip-rule:evenodd;fill:url(#j);fill-rule:evenodd" />
  <linearGradient
     id="k"
     gradientUnits="userSpaceOnUse"
     x1="-0.075999998"
     y1="-1.534"
     x2="68.688004"
     y2="7.0009999">
    <stop
       offset="0"
       stop-color="#8f8f8f"
       id="stop198" />
    <stop
       offset="1"
       stop-color="#070308"
       id="stop200" />
  </linearGradient>
  <path
     d="m 1.432,0.725 2.865,5.013 h 64.464 l 3.58,-5.013 z"
     id="path203"
     inkscape:connector-curvature="0"
     style="clip-rule:evenodd;fill:url(#k);fill-rule:evenodd" />
  <linearGradient
     id="l"
     gradientUnits="userSpaceOnUse"
     x1="36.530998"
     y1="350.26901"
     x2="36.530998"
     y2="344.83801">
    <stop
       offset="0"
       stop-color="#383838"
       id="stop205" />
    <stop
       offset="1"
       stop-color="#595959"
       id="stop207" />
  </linearGradient>
  <path
     d="m 0,345.252 4.297,5.018 h 64.464 l 4.3,-5.018 z"
     id="path210"
     inkscape:connector-curvature="0"
     style="clip-rule:evenodd;fill:url(#l);fill-rule:evenodd" />
  <linearGradient
     id="m"
     gradientUnits="userSpaceOnUse"
     x1="267.17001"
     y1="327.36301"
     x2="267.173"
     y2="303.72601">
    <stop
       offset="0"
       stop-color="#474747"
       id="stop212" />
    <stop
       offset="1"
       stop-color="#969696"
       id="stop214" />
  </linearGradient>
  <path
     d="m 68.044,302.988 h 398.254 v 24.353 H 68.044 Z"
     id="path217"
     inkscape:connector-curvature="0"
     style="clip-rule:evenodd;fill:url(#m);fill-rule:evenodd" />
  <linearGradient
     id="n"
     gradientUnits="userSpaceOnUse"
     x1="267.16901"
     y1="328.061"
     x2="267.16901"
     y2="337.37299">
    <stop
       offset="0"
       stop-color="#383838"
       id="stop219" />
    <stop
       offset="1"
       stop-color="#818080"
       id="stop221" />
  </linearGradient>
  <path
     d="M 55.15,337.371 H 479.188 L 466.294,327.345 H 68.044 Z"
     id="path224"
     inkscape:connector-curvature="0"
     style="clip-rule:evenodd;fill:url(#n);fill-rule:evenodd" />
  <linearGradient
     id="o"
     gradientUnits="userSpaceOnUse"
     x1="55.153999"
     y1="345.966"
     x2="479.18799"
     y2="345.966">
    <stop
       offset="0"
       stop-color="#b6b5b5"
       id="stop226" />
    <stop
       offset=".48"
       stop-color="#626161"
       id="stop228" />
    <stop
       offset="1"
       stop-color="#a3a3a4"
       id="stop230" />
  </linearGradient>
  <path
     d="m 55.154,337.371 h 424.034 v 17.191 H 55.154 Z"
     id="path233"
     inkscape:connector-curvature="0"
     style="clip-rule:evenodd;fill:url(#o);fill-rule:evenodd" />
  <linearGradient
     id="p"
     gradientUnits="userSpaceOnUse"
     x1="267.17099"
     y1="354.56201"
     x2="267.17099"
     y2="365.06601">
    <stop
       offset="0"
       stop-color="#5e5c5b"
       id="stop235" />
    <stop
       offset="1"
       stop-color="#100f10"
       id="stop237" />
  </linearGradient>
  <path
     d="m 55.15,354.562 9.266,8.597 H 470.94 l 8.253,-8.597 z"
     id="path240"
     inkscape:connector-curvature="0"
     style="clip-rule:evenodd;fill:url(#p);fill-rule:evenodd" />
  <linearGradient
     id="q"
     gradientUnits="userSpaceOnUse"
     x1="62.673"
     y1="327.345"
     x2="62.673"
     y2="337.371">
    <stop
       offset="0"
       stop-color="#fff"
       id="stop242" />
    <stop
       offset="1"
       stop-color="#afb0b0"
       id="stop244" />
  </linearGradient>
  <path
     d="m 55.87,337.371 12.174,-10.026 1.433,10.026 z"
     id="path247"
     inkscape:connector-curvature="0"
     style="clip-rule:evenodd;fill:url(#q);fill-rule:evenodd" />
  <linearGradient
     id="r"
     gradientUnits="userSpaceOnUse"
     x1="471.67099"
     y1="327.345"
     x2="471.67099"
     y2="337.371">
    <stop
       offset="0"
       stop-color="#fff"
       id="stop249" />
    <stop
       offset="1"
       stop-color="#afb0b0"
       id="stop251" />
  </linearGradient>
  <path
     d="m 478.476,337.371 -12.178,-10.026 -1.432,10.026 z"
     id="path254"
     inkscape:connector-curvature="0"
     style="clip-rule:evenodd;fill:url(#r);fill-rule:evenodd" />
  <path
     d="M 48.233,47.277 H 482.057 V 303.526 H 48.233 Z"
     id="path256"
     inkscape:connector-curvature="0"
     style="clip-rule:evenodd;fill:#808080;fill-rule:evenodd" />
  <linearGradient
     id="s"
     gradientUnits="userSpaceOnUse"
     x1="57.742001"
     y1="43.034"
     x2="351.418"
     y2="230.7">
    <stop
       offset="0"
       stop-color="#383838"
       id="stop258" />
    <stop
       offset="1"
       stop-color="#292b29"
       id="stop260" />
  </linearGradient>
  <path
     d="M 50.141,49.43 H 479.908 V 301.556 H 50.141 Z"
     id="path263"
     inkscape:connector-curvature="0"
     style="clip-rule:evenodd;fill:url(#s);fill-rule:evenodd" />
  <linearGradient
     id="t"
     gradientUnits="userSpaceOnUse"
     x1="76.492996"
     y1="30.174999"
     x2="191.099"
     y2="159.823">
    <stop
       offset="0"
       stop-color="#dfdede"
       id="stop265" />
    <stop
       offset="1"
       stop-color="#292b29"
       id="stop267" />
  </linearGradient>
  <path
     d="M 50.137,49.43 V 211.845 L 280.461,49.43 Z"
     id="path270"
     inkscape:connector-curvature="0"
     style="clip-rule:evenodd;fill:url(#t);fill-rule:evenodd" />
  <linearGradient
     id="u"
     gradientUnits="userSpaceOnUse"
     x1="69.149002"
     y1="65.686996"
     x2="469.44"
     y2="291.86301">
    <stop
       offset="0"
       stop-color="#070308"
       id="stop272" />
    <stop
       offset="1"
       stop-color="#384245"
       id="stop274" />
  </linearGradient>
  <path
     d="m 58.735,58.735 h 413.297 v 235.66 H 58.735 Z"
     id="path277"
     inkscape:connector-curvature="0"
     style="clip-rule:evenodd;fill:url(#u);fill-rule:evenodd" />
  <linearGradient
     id="v"
     gradientUnits="userSpaceOnUse"
     x1="70.528"
     y1="67.030998"
     x2="469.43201"
     y2="290.453">
    <stop
       offset="0"
       stop-color="#747575"
       id="stop279" />
    <stop
       offset="1"
       stop-color="#171b1e"
       id="stop281" />
  </linearGradient>
  <path
     d="m 60.167,60.171 h 411.86 V 292.962 H 60.167 Z"
     id="path284"
     inkscape:connector-curvature="0"
     style="clip-rule:evenodd;fill:url(#v);fill-rule:evenodd" />
  <path
     d="m 55.154,337.371 h 422.602 v 1.437 H 55.154 Z"
     id="path286"
     inkscape:connector-curvature="0"
     style="clip-rule:evenodd;fill:#5e5e5e;fill-rule:evenodd" />
  <path
     d="m 56.586,336.659 h 421.89 v 0.712 H 56.586 Z"
     id="path288"
     inkscape:connector-curvature="0"
     style="clip-rule:evenodd;fill:#949191;fill-rule:evenodd" />
  <path
     d="m 55.154,338.803 h 422.602 v 1.432 H 55.154 Z"
     id="path290"
     inkscape:connector-curvature="0"
     style="clip-rule:evenodd;fill:#b0b0b0;fill-rule:evenodd" />
  <path
     d="m 55.15,337.375 h 1.437 v 17.191 H 55.15 Z"
     id="path292"
     inkscape:connector-curvature="0"
     style="clip-rule:evenodd;fill:#404040;fill-rule:evenodd" />
  <path
     d="m 477.76,337.375 h 1.432 v 17.191 h -1.432 z"
     id="path294"
     inkscape:connector-curvature="0"
     style="clip-rule:evenodd;fill:#4f4f4f;fill-rule:evenodd" />
  <path
     d="m 68.044,303.704 h 1.437 v 23.641 h -1.437 z m 396.822,0.005 h 1.432 v 23.636 h -1.432 z"
     id="path296"
     inkscape:connector-curvature="0"
     style="clip-rule:evenodd;fill:#404040;fill-rule:evenodd" />
  <path
     d="m 472.027,58.735 h 1.437 v 234.944 h -1.437 z"
     id="path298"
     inkscape:connector-curvature="0"
     style="clip-rule:evenodd;fill:#616161;fill-rule:evenodd" />
  <path
     d="M 58.735,291.53 H 473.46 v 1.432 H 58.735 Z"
     id="path300"
     inkscape:connector-curvature="0"
     style="clip-rule:evenodd;fill:#696969;fill-rule:evenodd" />
  <path
     d="m 69.477,326.629 h 395.389 v 0.716 H 69.477 Z"
     id="path302"
     inkscape:connector-curvature="0"
     style="clip-rule:evenodd;fill:#575757;fill-rule:evenodd" />
  <linearGradient
     id="w"
     gradientUnits="userSpaceOnUse"
     x1="267.17099"
     y1="302.26801"
     x2="267.17099"
     y2="305.85501">
    <stop
       offset="0"
       stop-color="#404040"
       id="stop304" />
    <stop
       offset="1"
       stop-color="#8c8c8c"
       id="stop306" />
  </linearGradient>
  <path
     d="m 69.477,303.704 h 395.389 v 2.153 H 69.477 Z"
     id="path309"
     inkscape:connector-curvature="0"
     style="clip-rule:evenodd;fill:url(#w);fill-rule:evenodd" />
  <path
     d="m 56.586,338.807 h 1.432 v 15.755 h -1.432 z"
     id="path311"
     inkscape:connector-curvature="0"
     style="clip-rule:evenodd;fill:#bfbfbf;fill-rule:evenodd" />
  <path
     d="m 68.044,327.345 h 398.254 v 1.432 H 68.044 Z"
     id="path313"
     inkscape:connector-curvature="0"
     style="clip-rule:evenodd;fill:#333333;fill-rule:evenodd" />
  <linearGradient
     id="x"
     gradientUnits="userSpaceOnUse"
     x1="50.487999"
     y1="45.105"
     x2="51.205002"
     y2="287.92401">
    <stop
       offset="0"
       stop-color="#fff"
       id="stop315" />
    <stop
       offset="1"
       stop-color="#333"
       id="stop317" />
  </linearGradient>
  <path
     d="m 50.137,50.146 h 1.437 V 288.67 h -1.437 z"
     id="path320"
     inkscape:connector-curvature="0"
     style="clip-rule:evenodd;fill:url(#x);fill-rule:evenodd" />
  <linearGradient
     id="y"
     gradientUnits="userSpaceOnUse"
     x1="44.431999"
     y1="50.508999"
     x2="464.17401"
     y2="49.792">
    <stop
       offset="0"
       stop-color="#fff"
       id="stop322" />
    <stop
       offset="1"
       stop-color="#292b29"
       id="stop324" />
  </linearGradient>
  <path
     d="m 50.853,49.425 h 414.729 v 1.437 H 50.853 Z"
     id="path327"
     inkscape:connector-curvature="0"
     style="clip-rule:evenodd;fill:url(#y);fill-rule:evenodd" />
  <path
     d="m 56.582,353.845 h 421.174 v 1.432 H 56.582 Z"
     id="path329"
     inkscape:connector-curvature="0"
     style="clip-rule:evenodd;fill:#8c8c8c;fill-rule:evenodd" />
  <linearGradient
     id="z"
     gradientUnits="userSpaceOnUse"
     x1="267.88699"
     y1="318.035"
     x2="267.88699"
     y2="327.34698">
    <stop
       offset="0"
       stop-color="#7e7d7d"
       id="stop331" />
    <stop
       offset="1"
       stop-color="#3d3d3d"
       id="stop333" />
  </linearGradient>
  <path
     d="M 68.761,327.345 H 467.014 L 454.12,320.184 H 81.655 Z"
     id="path336"
     inkscape:connector-curvature="0"
     style="clip-rule:evenodd;fill:url(#z);fill-rule:evenodd" />
  <linearGradient
     id="A"
     gradientUnits="userSpaceOnUse"
     x1="57.650002"
     y1="52.261002"
     x2="58.366001"
     y2="295.08099">
    <stop
       offset="0"
       stop-color="#fff"
       id="stop338" />
    <stop
       offset="1"
       stop-color="#333"
       id="stop340" />
  </linearGradient>
  <path
     d="m 57.298,57.303 h 1.436 v 238.524 h -1.436 z"
     id="path343"
     inkscape:connector-curvature="0"
     style="clip-rule:evenodd;fill:url(#A);fill-rule:evenodd" />
  <linearGradient
     id="B"
     gradientUnits="userSpaceOnUse"
     x1="52.310001"
     y1="58.388"
     x2="472.05099"
     y2="57.671001">
    <stop
       offset="0"
       stop-color="#fff"
       id="stop345" />
    <stop
       offset="1"
       stop-color="#292b29"
       id="stop347" />
  </linearGradient>
  <path
     d="M 58.735,57.307 H 473.46 v 1.432 H 58.735 Z"
     id="path350"
     inkscape:connector-curvature="0"
     style="clip-rule:evenodd;fill:url(#B);fill-rule:evenodd" />
  <linearGradient
     id="C"
     gradientUnits="userSpaceOnUse"
     x1="46.012001"
     y1="107.89"
     x2="186.356"
     y2="192.35699">
    <stop
       offset="0"
       stop-color="#adadad"
       id="stop352" />
    <stop
       offset="1"
       stop-color="#575959"
       id="stop354" />
  </linearGradient>
  <path
     d="m 60.167,60.171 v 232.791 h 51.277 L 260.073,60.171 Z"
     id="path357"
     inkscape:connector-curvature="0"
     style="clip-rule:evenodd;fill:url(#C);fill-rule:evenodd" />
  <g
     id="g570">
    <path
       d="m 679.24,261.138 c -12.57,-12.57 -29.281,-19.492 -47.056,-19.492 -17.775,0 -34.488,6.922 -47.056,19.492 -12.57,12.57 -19.492,29.281 -19.492,47.056 0,17.777 6.922,34.489 19.492,47.058 12.57,12.57 29.281,19.492 47.056,19.492 17.775,0 34.487,-6.921 47.056,-19.49 12.55,-12.55 19.462,-29.263 19.462,-47.059 -10e-4,-17.795 -6.913,-34.507 -19.462,-47.057 z m -47.401,48.821 a 1.9350003,1.9350003 0 1 1 -0.002,-3.87 1.9350003,1.9350003 0 0 1 0.002,3.87 z"
       id="path359"
       inkscape:connector-curvature="0"
       style="fill:#333333" />
    <path
       d="m 632.183,242.95 c 17.427,0 33.811,6.787 46.135,19.11 25.439,25.439 25.439,66.831 0,92.27 -12.324,12.322 -28.707,19.109 -46.135,19.109 -17.428,0 -33.812,-6.786 -46.135,-19.11 -12.323,-12.323 -19.109,-28.707 -19.109,-46.135 0,-17.427 6.786,-33.81 19.109,-46.133 12.324,-12.323 28.708,-19.111 46.135,-19.111 m 0,-2.609 c -18.125,0 -35.164,7.058 -47.98,19.875 -12.816,12.814 -19.873,29.854 -19.873,47.978 0,18.125 7.058,35.165 19.873,47.98 12.816,12.816 29.855,19.875 47.98,19.875 18.123,0 35.162,-7.058 47.979,-19.874 12.796,-12.796 19.844,-29.836 19.844,-47.981 0,-18.143 -7.048,-35.183 -19.844,-47.979 -12.816,-12.815 -29.855,-19.874 -47.979,-19.874 z"
       id="path361"
       inkscape:connector-curvature="0"
       style="fill:#070308" />
    <radialGradient
       id="D"
       cx="1406.1639"
       cy="325.57401"
       r="64.025002"
       gradientTransform="rotate(45,1135.388,-578.905)"
       gradientUnits="userSpaceOnUse">
      <stop
         offset=".55"
         stop-color="#070308"
         id="stop363" />
      <stop
         offset="1"
         stop-color="#070308"
         stop-opacity="0"
         id="stop365" />
    </radialGradient>
    <path
       d="m 678.307,261.9 c -25.472,-25.474 -66.773,-25.474 -92.247,0 l 92.247,92.247 c 25.474,-25.474 25.474,-66.774 0,-92.247 z"
       id="path368"
       inkscape:connector-curvature="0"
       style="fill:url(#D)" />
    <radialGradient
       id="E"
       cx="1406.163"
       cy="835.12"
       r="64.026001"
       gradientTransform="matrix(0.70710678,0.70710678,0.70710678,-0.70710678,-1008.5829,-40.529509)"
       gradientUnits="userSpaceOnUse">
      <stop
         offset=".55"
         stop-color="#070308"
         id="stop370" />
      <stop
         offset="1"
         stop-color="#070308"
         stop-opacity="0"
         id="stop372" />
    </radialGradient>
    <path
       d="m 586.06,354.148 c -25.475,-25.474 -25.474,-66.775 0,-92.248 l 92.247,92.247 c -25.473,25.474 -66.774,25.474 -92.247,0.001 z"
       id="path375"
       inkscape:connector-curvature="0"
       style="fill:url(#E)" />
    <circle
       cx="632.18298"
       cy="308.19501"
       r="58"
       id="circle377"
       style="fill:none;stroke:#070308;stroke-width:0.32600001" />
    <circle
       cx="632.18298"
       cy="308.19501"
       r="52.333"
       id="circle379"
       style="fill:none;stroke:#070308;stroke-width:0.32600001" />
    <circle
       cx="632.18298"
       cy="308.19501"
       r="42.950001"
       id="circle381"
       style="fill:none;stroke:#070308;stroke-width:0.32600001" />
    <circle
       cx="632.18298"
       cy="308.19501"
       r="36.033001"
       id="circle383"
       style="fill:none;stroke:#070308;stroke-width:0.32600001" />
    <path
       d="m 632.183,277.326 c -17.048,0 -30.869,13.821 -30.869,30.869 0,17.049 13.821,30.869 30.869,30.869 17.048,0 30.869,-13.821 30.869,-30.869 0,-17.048 -13.82,-30.869 -30.869,-30.869 z m -0.344,32.633 a 1.9350003,1.9350003 0 1 1 -0.002,-3.87 1.9350003,1.9350003 0 0 1 0.002,3.87 z"
       id="path385"
       inkscape:connector-curvature="0"
       style="fill:#070308" />
    <linearGradient
       id="F"
       gradientUnits="userSpaceOnUse"
       x1="672.47699"
       y1="1122.522"
       x2="703.82202"
       y2="1091.176"
       gradientTransform="translate(-55.96,-798.66)">
      <stop
         offset="0"
         stop-color="#fff"
         stop-opacity="0"
         id="stop387" />
      <stop
         offset=".429"
         stop-color="#fff"
         stop-opacity=".214"
         id="stop389" />
      <stop
         offset=".5"
         stop-color="#fff"
         stop-opacity=".25"
         id="stop391" />
      <stop
         offset=".572"
         stop-color="#fff"
         stop-opacity=".214"
         id="stop393" />
      <stop
         offset="1"
         stop-color="#fff"
         stop-opacity="0"
         id="stop395" />
    </linearGradient>
    <path
       d="m 604.449,249.103 c -6.402,3.01 -12.323,7.084 -17.551,12.129 l -1.678,1.678 a 65.225,65.225 0 0 0 -12.12,17.532 l 86.834,86.836 a 65.232,65.232 0 0 0 17.496,-12.082 l 1.717,-1.717 a 64.932,64.932 0 0 0 12.103,-17.571 z m 27.39,60.856 a 1.9350003,1.9350003 0 1 1 -0.002,-3.87 1.9350003,1.9350003 0 0 1 0.002,3.87 z"
       id="path398"
       inkscape:connector-curvature="0"
       style="fill:url(#F)" />
    <radialGradient
       id="G"
       cx="632.18298"
       cy="425.57101"
       r="24.652"
       gradientTransform="matrix(1,0,0,-1,0,733.766)"
       gradientUnits="userSpaceOnUse">
      <stop
         offset="0"
         stop-color="#c23435"
         id="stop400" />
      <stop
         offset="1"
         stop-color="#b32215"
         id="stop402" />
    </radialGradient>
    <path
       d="m 632.183,283.544 c -13.615,0 -24.652,11.037 -24.652,24.651 0,13.614 11.037,24.652 24.652,24.652 13.615,0 24.652,-11.037 24.652,-24.652 0,-13.615 -11.036,-24.651 -24.652,-24.651 z m -0.344,26.415 a 1.9350003,1.9350003 0 1 1 -0.002,-3.87 1.9350003,1.9350003 0 0 1 0.002,3.87 z"
       id="path405"
       inkscape:connector-curvature="0"
       style="fill:url(#G);stroke:#070308;stroke-width:0.32600001" />
    <path
       d="m 640.978,306.981 c -0.309,-0.003 -0.543,0.085 -0.703,0.264 -0.055,0.057 -0.098,0.086 -0.132,0.086 a 0.06,0.06 0 0 1 -0.05,-0.027 0.096,0.096 0 0 1 -0.022,-0.064 c 0,-0.048 0.052,-0.107 0.155,-0.176 0.21,-0.142 0.493,-0.212 0.848,-0.212 0.267,0 0.488,0.05 0.664,0.15 a 0.573,0.573 0 0 1 0.224,0.212 0.572,0.572 0 0 1 0.078,0.294 0.494,0.494 0 0 1 -0.217,0.425 c -0.134,0.096 -0.3,0.157 -0.497,0.179 -0.104,0.012 -0.171,0.02 -0.199,0.026 l 0.316,0.044 c 0.237,0.029 0.422,0.104 0.556,0.228 a 0.513,0.513 0 0 1 0.172,0.398 0.628,0.628 0 0 1 -0.163,0.423 c -0.212,0.245 -0.561,0.367 -1.048,0.367 -0.37,0 -0.665,-0.073 -0.883,-0.22 -0.143,-0.095 -0.215,-0.185 -0.215,-0.269 0,-0.022 0.007,-0.04 0.023,-0.054 0.016,-0.014 0.035,-0.022 0.057,-0.022 0.028,0 0.049,0.007 0.063,0.021 a 0.645,0.645 0 0 1 0.068,0.103 0.459,0.459 0 0 0 0.224,0.191 c 0.183,0.083 0.381,0.124 0.596,0.124 l 0.087,-10e-4 v -1.275 h -0.288 a 0.401,0.401 0 0 1 -0.119,-0.01 c -0.016,-0.007 -0.024,-0.025 -0.024,-0.052 0,-0.031 0.008,-0.05 0.025,-0.059 a 0.391,0.391 0 0 1 0.121,-0.011 h 0.287 l -10e-4,-1.083 z m 2.529,0 c -0.308,-0.003 -0.541,0.085 -0.703,0.264 -0.055,0.057 -0.098,0.086 -0.132,0.086 a 0.064,0.064 0 0 1 -0.05,-0.027 0.096,0.096 0 0 1 -0.022,-0.064 c 0,-0.048 0.052,-0.107 0.155,-0.176 0.21,-0.142 0.493,-0.212 0.848,-0.212 0.267,0 0.488,0.05 0.664,0.15 a 0.566,0.566 0 0 1 0.302,0.506 0.497,0.497 0 0 1 -0.215,0.425 c -0.134,0.096 -0.3,0.157 -0.498,0.179 -0.104,0.012 -0.171,0.02 -0.199,0.026 l 0.315,0.044 c 0.237,0.029 0.422,0.104 0.556,0.228 a 0.513,0.513 0 0 1 0.172,0.398 0.629,0.629 0 0 1 -0.164,0.423 c -0.211,0.245 -0.561,0.367 -1.047,0.367 -0.37,0 -0.665,-0.073 -0.883,-0.22 -0.145,-0.095 -0.217,-0.185 -0.217,-0.269 0,-0.022 0.008,-0.04 0.023,-0.054 a 0.085,0.085 0 0 1 0.057,-0.022 c 0.029,0 0.05,0.007 0.064,0.021 0.014,0.014 0.037,0.048 0.068,0.103 a 0.459,0.459 0 0 0 0.224,0.191 c 0.183,0.083 0.381,0.124 0.596,0.124 l 0.086,-10e-4 v -1.275 h -0.288 a 0.392,0.392 0 0 1 -0.119,-0.01 c -0.016,-0.007 -0.024,-0.025 -0.024,-0.052 0,-0.031 0.008,-0.05 0.024,-0.059 a 0.391,0.391 0 0 1 0.121,-0.011 h 0.287 z m 2.33,-0.084 -0.008,0.545 0.008,0.748 v 0.031 h -0.551 v -0.031 l 0.008,-0.76 v -0.322 l -0.018,0.007 -0.138,0.042 a 0.107,0.107 0 0 1 -0.036,0.008 c -0.02,0 -0.029,-0.011 -0.029,-0.033 0,-0.016 0.005,-0.026 0.014,-0.033 0.01,-0.007 0.039,-0.014 0.087,-0.026 l 0.239,-0.063 0.091,-0.024 z m 1.145,-0.287 a 0.085,0.085 0 0 1 0.061,0.02 c 0.016,0.015 0.026,0.033 0.026,0.051 a 0.468,0.468 0 0 1 -0.044,0.114 l -0.299,0.631 -0.771,1.628 -0.21,0.444 a 3.444,3.444 0 0 0 -0.072,0.16 c -0.033,0.082 -0.072,0.123 -0.116,0.123 a 0.076,0.076 0 0 1 -0.052,-0.021 0.06,0.06 0 0 1 -0.023,-0.048 c 0,-0.02 0.015,-0.06 0.046,-0.123 l 0.074,-0.16 0.602,-1.264 0.376,-0.797 0.176,-0.369 c 0.096,-0.21 0.152,-0.327 0.166,-0.352 0.015,-0.023 0.034,-0.036 0.06,-0.037 z m 0.199,1.645 c -0.155,-0.002 -0.271,0.042 -0.352,0.132 -0.027,0.029 -0.049,0.043 -0.065,0.043 -0.01,0 -0.018,-0.004 -0.026,-0.013 a 0.052,0.052 0 0 1 -0.011,-0.033 c 0,-0.023 0.026,-0.052 0.077,-0.087 a 0.76,0.76 0 0 1 0.424,-0.106 c 0.133,0 0.244,0.025 0.333,0.074 a 0.284,0.284 0 0 1 0.15,0.253 0.248,0.248 0 0 1 -0.108,0.213 0.53,0.53 0 0 1 -0.248,0.09 c -0.052,0.007 -0.086,0.01 -0.1,0.013 l 0.158,0.022 a 0.492,0.492 0 0 1 0.278,0.113 0.26,0.26 0 0 1 0.087,0.2 0.31,0.31 0 0 1 -0.083,0.211 c -0.106,0.122 -0.281,0.183 -0.524,0.183 -0.185,0 -0.333,-0.037 -0.441,-0.11 -0.072,-0.048 -0.108,-0.093 -0.108,-0.135 0,-0.012 0.004,-0.02 0.013,-0.028 a 0.037,0.037 0 0 1 0.027,-0.011 c 0.013,0 0.024,0.003 0.031,0.011 a 0.386,0.386 0 0 1 0.035,0.051 c 0.021,0.04 0.059,0.072 0.112,0.095 a 0.697,0.697 0 0 0 0.297,0.063 h 0.043 v -0.638 h -0.145 a 0.182,0.182 0 0 1 -0.06,-0.005 c -0.008,-0.004 -0.013,-0.013 -0.013,-0.026 0,-0.016 0.005,-0.026 0.013,-0.03 a 0.232,0.232 0 0 1 0.061,-0.005 h 0.145 z m 2.083,1.056 a 1.11,1.11 0 0 0 0.426,0.177 c 0.02,0.004 0.029,0.013 0.029,0.029 0,0.02 -0.013,0.031 -0.043,0.031 a 0.689,0.689 0 0 1 -0.282,-0.089 1.955,1.955 0 0 1 -0.346,-0.227 v 0.039 l 10e-4,0.163 v 0.091 h -0.582 v -0.042 l 10e-4,-0.313 0.003,-0.372 -0.002,-0.577 h 0.385 c 0.172,0 0.301,0.005 0.389,0.014 a 0.81,0.81 0 0 1 0.224,0.053 0.49,0.49 0 0 1 0.239,0.209 0.528,0.528 0 0 1 -0.009,0.575 0.514,0.514 0 0 1 -0.433,0.239 z m -0.091,-0.058 h 0.046 a 0.52,0.52 0 0 0 0.333,-0.11 0.44,0.44 0 0 0 0.13,-0.173 0.456,0.456 0 0 0 -0.065,-0.492 0.453,0.453 0 0 0 -0.209,-0.144 1.237,1.237 0 0 0 -0.351,-0.044 l -0.009,0.639 v 0.174 l 10e-4,0.044 c 0.039,0.037 0.081,0.072 0.124,0.106 z m 1.374,0.039 v 0.234 h -0.582 v -0.059 l 0.005,-0.672 -0.004,-0.318 v -0.217 l -0.002,-0.039 h 0.437 c 0.176,0 0.313,0.008 0.404,0.023 0.093,0.014 0.17,0.042 0.232,0.082 a 0.524,0.524 0 0 1 0.248,0.446 0.543,0.543 0 0 1 -0.261,0.46 0.58,0.58 0 0 1 -0.299,0.074 c -0.041,0 -0.102,-0.005 -0.179,-0.017 z m 0,-1.004 v 0.064 l -0.003,0.639 0.002,0.237 c 0.05,0.013 0.116,0.02 0.196,0.02 0.072,0 0.14,-0.013 0.205,-0.042 a 0.438,0.438 0 0 0 0.163,-0.121 0.46,0.46 0 0 0 10e-4,-0.611 0.46,0.46 0 0 0 -0.207,-0.141 1.032,1.032 0 0 0 -0.327,-0.043 h -0.029 v -0.002 z m 2.233,-0.11 0.207,0.711 0.095,0.316 0.085,0.285 0.012,0.037 h -0.581 l -0.183,-0.676 -0.395,0.594 -0.404,-0.564 c -0.039,0.137 -0.082,0.307 -0.128,0.507 a 0.766,0.766 0 0 1 -0.036,0.135 c -0.007,0.014 -0.022,0.022 -0.044,0.022 -0.028,0 -0.042,-0.01 -0.042,-0.029 0,-0.007 0.008,-0.039 0.026,-0.097 l 0.059,-0.204 0.104,-0.351 0.202,-0.687 0.522,0.759 0.5,-0.759 v 10e-4 z m -33.621,1.852 c 0.048,-0.048 0.121,-0.072 0.219,-0.072 0.104,0 0.185,0.028 0.239,0.082 a 0.231,0.231 0 0 1 0.072,0.17 h -0.117 a 0.136,0.136 0 0 0 -0.042,-0.102 c -0.031,-0.031 -0.078,-0.046 -0.143,-0.046 -0.07,0 -0.12,0.014 -0.147,0.042 a 0.113,0.113 0 0 0 -0.036,0.082 c 0,0.031 0.008,0.052 0.021,0.067 a 0.3,0.3 0 0 0 0.091,0.051 c 0.078,0.034 0.167,0.072 0.266,0.117 0.026,0.01 0.052,0.027 0.076,0.051 a 0.18,0.18 0 0 1 0.056,0.132 0.233,0.233 0 0 1 -0.072,0.173 c -0.05,0.05 -0.134,0.076 -0.249,0.076 a 0.356,0.356 0 0 1 -0.26,-0.091 c -0.044,-0.044 -0.067,-0.111 -0.067,-0.194 h 0.117 c 0,0.061 0.013,0.104 0.041,0.132 0.038,0.038 0.095,0.057 0.174,0.057 0.07,0 0.124,-0.018 0.157,-0.051 0.028,-0.029 0.042,-0.055 0.042,-0.082 a 0.1,0.1 0 0 0 -0.031,-0.076 0.258,0.258 0 0 0 -0.082,-0.051 1.764,1.764 0 0 0 -0.132,-0.062 l -0.149,-0.067 a 0.227,0.227 0 0 1 -0.072,-0.046 0.164,0.164 0 0 1 -0.046,-0.122 0.243,0.243 0 0 1 0.072,-0.17 z m 0.652,-0.061 h 0.698 v 0.097 h -0.29 v 0.775 h -0.117 v -0.775 h -0.29 v -0.097 z m 0.82,0 h 0.561 v 0.097 h -0.444 v 0.27 h 0.413 v 0.097 h -0.413 v 0.311 h 0.47 v 0.096 h -0.587 z m 0.76,-0.005 h 0.428 c 0.068,0 0.124,0.022 0.17,0.067 a 0.248,0.248 0 0 1 0.065,0.183 c 0,0.08 -0.022,0.141 -0.065,0.184 a 0.19,0.19 0 0 1 -0.102,0.046 l 0.199,0.393 h -0.127 l -0.183,-0.377 h -0.265 v 0.377 h -0.117 v -0.871 z m 0.118,0.097 v 0.3 h 0.3 a 0.122,0.122 0 0 0 0.087,-0.035 c 0.023,-0.024 0.035,-0.061 0.035,-0.112 0,-0.048 -0.013,-0.085 -0.041,-0.112 a 0.126,0.126 0 0 0 -0.096,-0.041 z m 0.677,-0.092 h 0.561 v 0.097 h -0.444 v 0.27 h 0.412 v 0.097 h -0.413 v 0.311 h 0.47 v 0.096 h -0.587 z m 0.852,0.097 a 0.346,0.346 0 0 1 0.259,-0.107 c 0.102,0 0.189,0.036 0.26,0.107 0.082,0.082 0.123,0.194 0.123,0.337 0,0.143 -0.041,0.256 -0.123,0.337 a 0.36,0.36 0 0 1 -0.26,0.106 0.358,0.358 0 0 1 -0.26,-0.106 c -0.082,-0.082 -0.124,-0.194 -0.124,-0.337 0,-0.143 0.042,-0.255 0.125,-0.337 z m 0.085,0.067 c -0.057,0.059 -0.086,0.149 -0.086,0.27 0,0.123 0.029,0.212 0.087,0.27 0.052,0.051 0.11,0.076 0.174,0.076 0.064,0 0.123,-0.026 0.174,-0.076 0.059,-0.059 0.087,-0.148 0.087,-0.27 0,-0.122 -0.029,-0.211 -0.087,-0.27 -0.051,-0.051 -0.109,-0.076 -0.174,-0.076 -0.065,0 -0.123,0.025 -0.174,0.076 z m -11.108,-1.297 c 0.02,0 0.044,0.015 0.072,0.047 0.087,0.095 0.192,0.17 0.317,0.227 a 0.884,0.884 0 0 0 0.371,0.086 c 0.134,0 0.202,-0.041 0.202,-0.123 a 0.311,0.311 0 0 0 -0.07,-0.176 5.319,5.319 0 0 0 -0.339,-0.386 4.486,4.486 0 0 1 -0.448,-0.541 0.824,0.824 0 0 1 -0.15,-0.444 c 0,-0.211 0.095,-0.385 0.284,-0.519 a 1.15,1.15 0 0 1 0.685,-0.198 c 0.191,0 0.365,0.039 0.524,0.115 0.059,0.03 0.111,0.065 0.153,0.104 0.044,0.039 0.065,0.072 0.065,0.098 0,0.013 -0.007,0.024 -0.018,0.035 -0.013,0.01 -0.025,0.016 -0.037,0.016 -0.02,0 -0.048,-0.018 -0.086,-0.053 a 0.718,0.718 0 0 0 -0.245,-0.146 0.84,0.84 0 0 0 -0.292,-0.059 0.242,0.242 0 0 0 -0.141,0.038 0.11,0.11 0 0 0 -0.055,0.096 0.34,0.34 0 0 0 0.068,0.173 c 0.045,0.068 0.121,0.158 0.228,0.271 0.338,0.361 0.545,0.603 0.621,0.729 0.08,0.132 0.119,0.26 0.119,0.383 a 0.555,0.555 0 0 1 -0.085,0.296 0.648,0.648 0 0 1 -0.235,0.23 c -0.19,0.115 -0.424,0.171 -0.698,0.171 -0.254,0 -0.476,-0.067 -0.669,-0.197 -0.135,-0.093 -0.202,-0.164 -0.202,-0.217 0,-0.014 0.007,-0.028 0.017,-0.04 a 0.056,0.056 0 0 1 0.042,-0.02 z m 3.024,-1.485 v 0.05 l -0.004,0.269 -0.003,0.417 -0.005,0.637 0.007,0.357 0.004,0.157 h -0.887 l 0.008,-0.637 0.005,-0.561 -0.004,-0.296 -0.005,-0.327 0.002,-0.065 z m -0.448,-0.604 c 0.304,0 0.457,0.08 0.457,0.238 0,0.077 -0.041,0.137 -0.121,0.181 a 0.724,0.724 0 0 1 -0.338,0.065 c -0.289,0 -0.434,-0.082 -0.434,-0.246 0,-0.156 0.146,-0.235 0.436,-0.238 z m 3.095,0.133 -0.003,0.845 -0.002,0.598 0.005,0.838 v 0.078 h -0.883 v -0.225 a 0.945,0.945 0 0 1 -0.274,0.202 0.706,0.706 0 0 1 -0.3,0.062 0.823,0.823 0 0 1 -0.584,-0.243 0.995,0.995 0 0 1 -0.316,-0.757 c 0,-0.298 0.102,-0.539 0.307,-0.724 a 0.879,0.879 0 0 1 0.609,-0.248 c 0.1,0 0.197,0.02 0.291,0.057 0.094,0.037 0.184,0.095 0.272,0.171 l -0.006,-0.652 h 0.884 z m -0.877,0.795 a 1.336,1.336 0 0 0 -0.243,-0.183 0.394,0.394 0 0 0 -0.19,-0.061 c -0.044,0 -0.073,0.016 -0.089,0.048 a 0.491,0.491 0 0 0 -0.023,0.179 l 0.002,0.076 v 1.161 c 0,0.094 0.005,0.15 0.013,0.174 0.013,0.05 0.046,0.075 0.099,0.075 a 0.334,0.334 0 0 0 0.183,-0.065 c 0.064,-0.044 0.148,-0.117 0.249,-0.226 v -1.178 z m 1.967,0.675 v 0.535 c 0,0.102 0.007,0.17 0.02,0.196 0.023,0.053 0.08,0.08 0.17,0.08 a 0.814,0.814 0 0 0 0.398,-0.11 c 0.129,-0.073 0.243,-0.175 0.339,-0.303 a 0.595,0.595 0 0 1 0.067,-0.082 0.058,0.058 0 0 1 0.044,-0.016 c 0.02,0 0.036,0.007 0.048,0.022 0.013,0.013 0.02,0.033 0.02,0.053 0,0.048 -0.039,0.115 -0.115,0.196 -0.101,0.104 -0.227,0.19 -0.378,0.257 a 1.096,1.096 0 0 1 -0.439,0.098 0.953,0.953 0 0 1 -0.649,-0.248 0.95,0.95 0 0 1 -0.252,-0.359 0.955,0.955 0 0 1 -0.009,-0.732 0.987,0.987 0 0 1 0.189,-0.312 1,1 0 0 1 0.727,-0.322 0.96,0.96 0 0 1 0.579,0.189 c 0.269,0.196 0.402,0.479 0.401,0.851 h -0.402 l -0.519,10e-4 -0.236,0.003 v 0.003 z m 0.442,-0.114 v -0.502 a 5.013,5.013 0 0 0 -0.007,-0.194 0.12,0.12 0 0 0 -0.025,-0.059 c -0.033,-0.046 -0.098,-0.068 -0.197,-0.068 -0.101,0 -0.164,0.026 -0.189,0.078 -0.016,0.031 -0.025,0.112 -0.025,0.243 v 0.502 l 0.211,0.008 0.231,-0.007 z m 3.096,-1.498 1.381,2.5 h -1.198 l -0.166,-0.315 h -0.579 l -0.509,-0.003 -0.087,-0.001 -0.114,0.211 a 0.798,0.798 0 0 1 -0.069,0.119 0.061,0.061 0 0 1 -0.05,0.023 c -0.039,0 -0.059,-0.016 -0.059,-0.052 0,-0.013 0.011,-0.042 0.033,-0.083 l 0.236,-0.402 1.046,-1.761 0.135,-0.234 z m -0.537,1.135 -0.302,0.507 -0.241,0.417 0.515,0.008 0.517,-0.008 -0.489,-0.926 z"
       id="path407"
       inkscape:connector-curvature="0"
       style="fill:#ffffff" />
    <circle
       cx="632.18298"
       cy="308.19501"
       r="22.187"
       id="circle409"
       style="fill:none;stroke:#c23435;stroke-width:0.32600001" />
    <path
       d="m 631.838,301.389 a 6.6345,6.6345 0 1 0 -10e-4,13.269 6.6345001,6.6345001 0 0 0 0.002,-13.269 z m 0.001,8.571 a 1.9365001,1.9365001 0 1 1 10e-4,-3.873 1.9365001,1.9365001 0 0 1 -10e-4,3.873 z"
       id="path411"
       inkscape:connector-curvature="0"
       style="fill:#be2518;stroke:#c23435;stroke-width:0.32600001" />
    <g
       id="g463">
      <path
         d="m 747.613,261.113 c -12.572,-12.572 -29.288,-19.497 -47.067,-19.497 -17.78,0 -34.496,6.925 -47.068,19.497 -25.953,25.953 -25.953,68.181 0,94.135 12.572,12.572 29.288,19.497 47.068,19.497 17.779,0 34.495,-6.924 47.067,-19.497 12.553,-12.553 19.468,-29.268 19.468,-47.068 0,-17.8 -6.914,-34.515 -19.468,-47.067 z m -47.067,49.004 a 1.936,1.936 0 1 1 0,-3.872 1.937,1.937 0 0 1 0,3.872 z"
         id="path413"
         inkscape:connector-curvature="0"
         style="fill:#333333" />
      <path
         d="m 700.546,242.92 c 17.431,0 33.819,6.789 46.145,19.115 25.446,25.445 25.446,66.845 0,92.291 -12.326,12.326 -28.714,19.115 -46.145,19.115 -17.432,0 -33.82,-6.788 -46.146,-19.114 -25.446,-25.446 -25.446,-66.845 0,-92.289 12.325,-12.327 28.713,-19.118 46.146,-19.118 m -0.001,-2.609 c -18.127,0 -35.172,7.06 -47.99,19.879 -26.461,26.461 -26.461,69.518 0,95.981 12.819,12.818 29.862,19.879 47.991,19.879 18.127,0 35.172,-7.059 47.989,-19.879 12.801,-12.8 19.849,-29.844 19.849,-47.99 0,-18.148 -7.049,-35.191 -19.849,-47.99 -12.819,-12.819 -29.862,-19.879 -47.99,-19.88 z"
         id="path415"
         inkscape:connector-curvature="0"
         style="fill:#070308" />
      <radialGradient
         id="H"
         cx="1454.86"
         cy="277.10101"
         r="64.024002"
         gradientTransform="rotate(45,1135.388,-578.905)"
         gradientUnits="userSpaceOnUse">
        <stop
           offset=".55"
           stop-color="#070308"
           id="stop417" />
        <stop
           offset="1"
           stop-color="#070308"
           stop-opacity="0"
           id="stop419" />
      </radialGradient>
      <path
         d="m 747.013,262.057 c -25.472,-25.474 -66.773,-25.474 -92.247,0 l 92.247,92.247 c 25.475,-25.474 25.475,-66.773 0,-92.247 z"
         id="path422"
         inkscape:connector-curvature="0"
         style="fill:url(#H)" />
      <radialGradient
         id="I"
         cx="1454.86"
         cy="883.59198"
         r="64.024002"
         gradientTransform="matrix(0.70710678,0.70710678,0.70710678,-0.70710678,-1008.5829,-40.529509)"
         gradientUnits="userSpaceOnUse">
        <stop
           offset=".55"
           stop-color="#070308"
           id="stop424" />
        <stop
           offset="1"
           stop-color="#070308"
           stop-opacity="0"
           id="stop426" />
      </radialGradient>
      <path
         d="m 654.765,354.306 c -25.473,-25.474 -25.472,-66.775 10e-4,-92.248 l 92.247,92.247 c -25.473,25.474 -66.774,25.474 -92.248,10e-4 z"
         id="path429"
         inkscape:connector-curvature="0"
         style="fill:url(#I)" />
      <circle
         cx="700.89001"
         cy="308.353"
         r="58"
         id="circle431"
         style="fill:none;stroke:#070308;stroke-width:0.32600001" />
      <circle
         cx="700.89001"
         cy="308.353"
         r="52.333"
         id="circle433"
         style="fill:none;stroke:#070308;stroke-width:0.32600001" />
      <circle
         cx="700.88898"
         cy="308.353"
         r="42.949001"
         id="circle435"
         style="fill:none;stroke:#070308;stroke-width:0.32600001" />
      <circle
         cx="700.89001"
         cy="308.353"
         r="36.033001"
         id="circle437"
         style="fill:none;stroke:#070308;stroke-width:0.32600001" />
      <path
         d="m 700.89,277.484 c -17.049,0 -30.869,13.821 -30.869,30.869 0,17.049 13.821,30.869 30.869,30.869 17.048,0 30.869,-13.821 30.869,-30.869 0,-17.048 -13.821,-30.869 -30.869,-30.869 z m -0.344,32.633 a 1.936,1.936 0 1 1 0,-3.872 1.937,1.937 0 0 1 0,3.872 z"
         id="path439"
         inkscape:connector-curvature="0"
         style="fill:#070308" />
      <linearGradient
         id="J"
         gradientUnits="userSpaceOnUse"
         x1="741.15997"
         y1="1122.704"
         x2="772.53699"
         y2="1091.326"
         gradientTransform="translate(-55.96,-798.66)">
        <stop
           offset="0"
           stop-color="#221e1f"
           stop-opacity="0"
           id="stop441" />
        <stop
           offset=".5"
           stop-color="#fff"
           stop-opacity=".25"
           id="stop443" />
        <stop
           offset="1"
           stop-color="#221e1f"
           stop-opacity="0"
           id="stop445" />
      </linearGradient>
      <path
         d="m 673.154,249.244 a 65.191,65.191 0 0 0 -17.038,11.634 l -2.702,2.704 a 64.895,64.895 0 0 0 -11.609,17.061 l 86.817,86.821 a 65.142,65.142 0 0 0 17.036,-11.63 l 2.712,-2.711 a 64.91,64.91 0 0 0 11.604,-17.055 z m 27.392,60.872 a 1.9355,1.9355 0 1 1 0,-3.871 1.9355,1.9355 0 1 1 0,3.871 z"
         id="path448"
         inkscape:connector-curvature="0"
         style="fill:url(#J)" />
      <radialGradient
         id="K"
         cx="700.89001"
         cy="425.41299"
         r="24.652"
         gradientTransform="matrix(1,0,0,-1,0,733.766)"
         gradientUnits="userSpaceOnUse">
        <stop
           offset="0"
           stop-color="#309dcd"
           id="stop450" />
        <stop
           offset="1"
           stop-color="#186aac"
           id="stop452" />
      </radialGradient>
      <path
         d="m 700.89,283.702 c -13.615,0 -24.652,11.037 -24.652,24.651 0,13.614 11.037,24.652 24.652,24.652 13.615,0 24.652,-11.037 24.652,-24.652 0,-13.615 -11.037,-24.651 -24.652,-24.651 z m -0.344,26.415 a 1.936,1.936 0 1 1 0,-3.872 1.937,1.937 0 0 1 0,3.872 z"
         id="path455"
         inkscape:connector-curvature="0"
         style="fill:url(#K);stroke:#070308;stroke-width:0.32600001" />
      <path
         d="m 709.699,307.14 c -0.309,-0.004 -0.543,0.085 -0.703,0.264 -0.055,0.057 -0.098,0.086 -0.13,0.086 a 0.064,0.064 0 0 1 -0.052,-0.027 0.107,0.107 0 0 1 -0.021,-0.064 c 0,-0.048 0.051,-0.107 0.154,-0.176 0.21,-0.142 0.493,-0.212 0.848,-0.212 0.267,0 0.489,0.05 0.665,0.15 a 0.573,0.573 0 0 1 0.224,0.212 0.572,0.572 0 0 1 0.078,0.294 0.494,0.494 0 0 1 -0.217,0.425 c -0.133,0.097 -0.3,0.157 -0.497,0.179 -0.104,0.012 -0.171,0.02 -0.199,0.026 l 0.315,0.044 c 0.237,0.029 0.422,0.104 0.556,0.228 a 0.511,0.511 0 0 1 0.174,0.398 0.633,0.633 0 0 1 -0.164,0.424 c -0.211,0.244 -0.56,0.367 -1.046,0.367 -0.371,0 -0.665,-0.073 -0.883,-0.22 -0.145,-0.095 -0.215,-0.185 -0.215,-0.269 0,-0.022 0.006,-0.039 0.023,-0.054 a 0.082,0.082 0 0 1 0.057,-0.022 c 0.028,0 0.049,0.008 0.064,0.021 a 0.6,0.6 0 0 1 0.068,0.102 0.454,0.454 0 0 0 0.224,0.191 c 0.183,0.085 0.381,0.126 0.596,0.126 l 0.086,-0.002 v -1.275 h -0.289 a 0.397,0.397 0 0 1 -0.119,-0.01 c -0.016,-0.007 -0.023,-0.025 -0.023,-0.052 0,-0.031 0.008,-0.05 0.023,-0.059 a 0.4,0.4 0 0 1 0.122,-0.011 h 0.287 l -0.003,-1.083 z m 2.531,0 c -0.309,-0.004 -0.543,0.085 -0.703,0.264 -0.055,0.057 -0.098,0.086 -0.13,0.086 a 0.064,0.064 0 0 1 -0.052,-0.027 0.107,0.107 0 0 1 -0.021,-0.064 c 0,-0.048 0.052,-0.107 0.154,-0.176 0.211,-0.142 0.494,-0.212 0.85,-0.212 0.265,0 0.487,0.05 0.663,0.15 a 0.566,0.566 0 0 1 0.302,0.506 0.497,0.497 0 0 1 -0.215,0.425 c -0.134,0.097 -0.3,0.157 -0.498,0.179 -0.104,0.012 -0.171,0.02 -0.199,0.026 l 0.315,0.044 c 0.236,0.029 0.421,0.104 0.556,0.228 a 0.514,0.514 0 0 1 0.173,0.398 0.633,0.633 0 0 1 -0.164,0.424 c -0.211,0.244 -0.56,0.367 -1.046,0.367 -0.372,0 -0.667,-0.073 -0.884,-0.22 -0.144,-0.095 -0.215,-0.185 -0.215,-0.269 0,-0.022 0.007,-0.039 0.023,-0.054 0.016,-0.015 0.035,-0.022 0.057,-0.022 0.028,0 0.049,0.008 0.064,0.021 a 0.6,0.6 0 0 1 0.068,0.102 0.456,0.456 0 0 0 0.223,0.191 c 0.183,0.085 0.381,0.126 0.596,0.126 l 0.087,-0.002 v -1.275 h -0.29 a 0.397,0.397 0 0 1 -0.119,-0.01 c -0.016,-0.007 -0.024,-0.025 -0.024,-0.052 0,-0.031 0.008,-0.05 0.024,-0.059 a 0.387,0.387 0 0 1 0.121,-0.011 h 0.287 v -1.084 z m 2.329,-0.084 -0.008,0.545 0.008,0.748 v 0.031 h -0.551 v -0.031 l 0.008,-0.76 0.001,-0.28 v -0.04 l -0.02,0.007 -0.137,0.042 a 0.112,0.112 0 0 1 -0.037,0.008 c -0.02,0 -0.029,-0.011 -0.029,-0.033 0,-0.016 0.005,-0.026 0.014,-0.033 0.01,-0.007 0.039,-0.014 0.087,-0.026 l 0.239,-0.063 0.091,-0.025 0.333,-0.091 v 10e-4 z m 1.144,-0.288 a 0.088,0.088 0 0 1 0.062,0.02 0.071,0.071 0 0 1 0.025,0.051 0.452,0.452 0 0 1 -0.042,0.113 c -0.029,0.061 -0.128,0.272 -0.3,0.631 l -0.77,1.628 -0.211,0.444 a 2.58,2.58 0 0 0 -0.072,0.16 c -0.034,0.082 -0.07,0.123 -0.117,0.123 a 0.078,0.078 0 0 1 -0.052,-0.021 0.066,0.066 0 0 1 -0.022,-0.048 c 0,-0.02 0.016,-0.06 0.046,-0.123 l 0.074,-0.16 0.603,-1.264 0.376,-0.797 0.176,-0.369 c 0.096,-0.21 0.153,-0.327 0.167,-0.352 a 0.066,0.066 0 0 1 0.057,-0.036 z m 0.2,1.644 c -0.154,-0.002 -0.271,0.042 -0.352,0.132 -0.027,0.029 -0.049,0.043 -0.065,0.043 -0.011,0 -0.018,-0.004 -0.026,-0.013 a 0.053,0.053 0 0 1 -0.012,-0.033 c 0,-0.023 0.026,-0.052 0.078,-0.087 a 0.752,0.752 0 0 1 0.423,-0.106 c 0.133,0 0.244,0.025 0.333,0.074 a 0.284,0.284 0 0 1 0.151,0.253 0.25,0.25 0 0 1 -0.108,0.213 0.53,0.53 0 0 1 -0.248,0.09 c -0.052,0.007 -0.086,0.01 -0.1,0.013 l 0.157,0.022 a 0.495,0.495 0 0 1 0.279,0.113 0.26,0.26 0 0 1 0.087,0.2 0.31,0.31 0 0 1 -0.083,0.211 c -0.106,0.122 -0.281,0.183 -0.524,0.183 -0.185,0 -0.333,-0.037 -0.441,-0.11 -0.072,-0.048 -0.108,-0.093 -0.108,-0.135 0,-0.012 0.004,-0.02 0.013,-0.028 a 0.04,0.04 0 0 1 0.028,-0.011 c 0.014,0 0.024,0.003 0.031,0.011 0.008,0.007 0.018,0.024 0.035,0.051 0.022,0.04 0.061,0.072 0.114,0.095 0.091,0.042 0.19,0.063 0.298,0.063 h 0.043 v -0.638 h -0.145 a 0.182,0.182 0 0 1 -0.06,-0.005 c -0.008,-0.004 -0.013,-0.013 -0.013,-0.026 0,-0.016 0.005,-0.026 0.013,-0.03 a 0.194,0.194 0 0 1 0.061,-0.005 h 0.143 z m 2.083,1.057 a 1.145,1.145 0 0 0 0.426,0.177 c 0.02,0.004 0.03,0.013 0.03,0.029 0,0.02 -0.013,0.031 -0.043,0.031 a 0.698,0.698 0 0 1 -0.282,-0.089 1.955,1.955 0 0 1 -0.346,-0.227 v 0.039 l 0.001,0.163 v 0.091 h -0.582 v -0.042 l 10e-4,-0.313 0.003,-0.372 -0.003,-0.577 h 0.385 c 0.172,0 0.3,0.005 0.389,0.014 a 0.82,0.82 0 0 1 0.224,0.053 c 0.1,0.042 0.179,0.111 0.238,0.209 a 0.52,0.52 0 0 1 -0.009,0.575 0.51,0.51 0 0 1 -0.432,0.239 z m -0.091,-0.059 h 0.046 a 0.51,0.51 0 0 0 0.331,-0.11 0.445,0.445 0 0 0 0.132,-0.173 0.458,0.458 0 0 0 -0.066,-0.492 0.454,0.454 0 0 0 -0.209,-0.143 1.242,1.242 0 0 0 -0.351,-0.044 l -0.01,0.639 v 0.174 l 10e-4,0.044 c 0.04,0.038 0.082,0.072 0.126,0.105 z m 1.373,0.04 v 0.234 h -0.582 l 10e-4,-0.059 0.005,-0.672 -0.004,-0.318 v -0.217 l -0.002,-0.039 h 0.437 c 0.176,0 0.313,0.008 0.404,0.023 a 0.526,0.526 0 0 1 0.478,0.528 0.543,0.543 0 0 1 -0.261,0.46 0.582,0.582 0 0 1 -0.299,0.074 1.27,1.27 0 0 1 -0.179,-0.017 z m 0,-1.004 v 0.064 l -0.003,0.639 0.003,0.237 c 0.05,0.013 0.116,0.02 0.196,0.02 a 0.492,0.492 0 0 0 0.205,-0.042 0.45,0.45 0 0 0 0.163,-0.121 0.464,0.464 0 0 0 0.002,-0.611 0.465,0.465 0 0 0 -0.207,-0.141 1.03,1.03 0 0 0 -0.326,-0.043 h -0.03 z m 2.234,-0.11 0.207,0.711 0.095,0.315 0.085,0.285 0.012,0.037 h -0.582 l -0.183,-0.675 -0.394,0.594 -0.404,-0.564 a 9.708,9.708 0 0 0 -0.127,0.506 0.631,0.631 0 0 1 -0.036,0.135 c -0.008,0.014 -0.022,0.022 -0.044,0.022 -0.028,0 -0.041,-0.01 -0.041,-0.029 0,-0.007 0.009,-0.038 0.026,-0.097 l 0.059,-0.204 0.104,-0.352 0.202,-0.686 0.523,0.759 z m -33.621,1.852 c 0.048,-0.048 0.121,-0.072 0.219,-0.072 0.106,0 0.185,0.028 0.239,0.082 a 0.231,0.231 0 0 1 0.072,0.17 h -0.117 a 0.136,0.136 0 0 0 -0.042,-0.102 c -0.031,-0.031 -0.078,-0.046 -0.143,-0.046 -0.07,0 -0.12,0.014 -0.148,0.042 a 0.113,0.113 0 0 0 -0.036,0.082 c 0,0.031 0.008,0.052 0.02,0.067 a 0.291,0.291 0 0 0 0.093,0.051 c 0.078,0.034 0.167,0.072 0.265,0.117 0.027,0.01 0.052,0.027 0.076,0.051 a 0.183,0.183 0 0 1 0.055,0.132 0.233,0.233 0 0 1 -0.072,0.173 c -0.05,0.05 -0.134,0.076 -0.249,0.076 a 0.356,0.356 0 0 1 -0.26,-0.091 0.271,0.271 0 0 1 -0.067,-0.194 h 0.117 c 0,0.061 0.013,0.104 0.041,0.132 0.038,0.038 0.095,0.057 0.174,0.057 0.072,0 0.124,-0.018 0.158,-0.051 0.027,-0.029 0.041,-0.055 0.041,-0.082 a 0.103,0.103 0 0 0 -0.031,-0.076 0.258,0.258 0 0 0 -0.082,-0.051 1.977,1.977 0 0 0 -0.132,-0.062 l -0.149,-0.067 a 0.198,0.198 0 0 1 -0.07,-0.046 0.16,0.16 0 0 1 -0.046,-0.122 0.23,0.23 0 0 1 0.072,-0.17 z m 0.652,-0.061 h 0.698 v 0.097 h -0.29 v 0.775 h -0.117 v -0.775 h -0.29 v -0.097 z m 0.82,0 h 0.56 v 0.097 h -0.444 v 0.27 h 0.413 v 0.097 h -0.413 v 0.311 h 0.47 v 0.096 h -0.586 z m 0.761,-0.005 h 0.427 c 0.068,0 0.124,0.022 0.168,0.067 a 0.25,0.25 0 0 1 0.067,0.183 c 0,0.08 -0.022,0.141 -0.067,0.184 a 0.18,0.18 0 0 1 -0.102,0.046 l 0.2,0.393 h -0.127 l -0.184,-0.377 h -0.265 v 0.377 h -0.117 v -0.873 h -10e-4 z m 0.116,0.097 v 0.3 h 0.3 a 0.122,0.122 0 0 0 0.087,-0.035 c 0.023,-0.024 0.036,-0.061 0.036,-0.112 0,-0.048 -0.013,-0.085 -0.041,-0.112 a 0.13,0.13 0 0 0 -0.097,-0.041 z m 0.678,-0.092 h 0.561 v 0.097 h -0.445 v 0.27 h 0.413 v 0.097 h -0.413 v 0.311 h 0.47 v 0.096 h -0.586 z m 0.851,0.097 a 0.352,0.352 0 0 1 0.26,-0.107 0.35,0.35 0 0 1 0.259,0.107 c 0.082,0.082 0.123,0.194 0.123,0.337 0,0.143 -0.041,0.256 -0.123,0.337 a 0.354,0.354 0 0 1 -0.259,0.106 0.358,0.358 0 0 1 -0.26,-0.106 c -0.082,-0.082 -0.123,-0.194 -0.123,-0.337 0,-0.143 0.041,-0.255 0.123,-0.337 z m 0.087,0.066 c -0.059,0.059 -0.087,0.149 -0.087,0.27 0,0.123 0.029,0.212 0.087,0.27 a 0.24,0.24 0 0 0 0.174,0.076 0.245,0.245 0 0 0 0.175,-0.076 c 0.059,-0.059 0.087,-0.148 0.087,-0.27 0,-0.122 -0.028,-0.211 -0.086,-0.27 a 0.24,0.24 0 0 0 -0.174,-0.076 0.239,0.239 0 0 0 -0.173,0.076 z m -11.125,-1.296 c 0.02,0 0.043,0.015 0.072,0.047 a 0.974,0.974 0 0 0 0.684,0.313 c 0.133,0 0.202,-0.041 0.202,-0.123 a 0.307,0.307 0 0 0 -0.068,-0.176 5.319,5.319 0 0 0 -0.339,-0.386 4.557,4.557 0 0 1 -0.45,-0.541 0.84,0.84 0 0 1 -0.149,-0.444 c 0,-0.211 0.095,-0.385 0.285,-0.519 0.186,-0.132 0.415,-0.198 0.686,-0.198 0.19,0 0.365,0.039 0.524,0.115 0.06,0.03 0.111,0.065 0.153,0.104 0.044,0.039 0.065,0.072 0.065,0.098 0,0.013 -0.007,0.024 -0.017,0.035 -0.014,0.01 -0.026,0.016 -0.039,0.016 -0.02,0 -0.047,-0.018 -0.086,-0.053 a 0.738,0.738 0 0 0 -0.245,-0.146 0.813,0.813 0 0 0 -0.292,-0.059 0.242,0.242 0 0 0 -0.141,0.038 0.107,0.107 0 0 0 -0.055,0.096 0.34,0.34 0 0 0 0.068,0.173 c 0.042,0.068 0.121,0.159 0.228,0.271 0.339,0.361 0.545,0.603 0.621,0.729 a 0.76,0.76 0 0 1 0.119,0.383 0.563,0.563 0 0 1 -0.085,0.297 0.656,0.656 0 0 1 -0.235,0.23 c -0.19,0.115 -0.421,0.171 -0.698,0.171 a 1.15,1.15 0 0 1 -0.667,-0.196 c -0.134,-0.094 -0.204,-0.165 -0.204,-0.217 0,-0.013 0.008,-0.028 0.018,-0.041 a 0.05,0.05 0 0 1 0.04,-0.02 z m 3.024,-1.485 v 0.05 l -0.004,0.269 -0.003,0.417 -0.005,0.637 0.007,0.357 0.004,0.157 h -0.887 l 0.01,-0.637 0.005,-0.561 -0.004,-0.296 -0.007,-0.327 0.003,-0.065 z m -0.448,-0.604 c 0.303,0 0.455,0.08 0.455,0.238 0,0.077 -0.041,0.137 -0.122,0.181 a 0.723,0.723 0 0 1 -0.339,0.065 c -0.287,0 -0.433,-0.082 -0.433,-0.246 0.003,-0.156 0.15,-0.235 0.439,-0.238 z m 3.094,0.133 -0.003,0.845 -0.003,0.598 0.005,0.838 v 0.078 h -0.883 v -0.225 a 0.972,0.972 0 0 1 -0.274,0.202 0.715,0.715 0 0 1 -0.3,0.062 0.826,0.826 0 0 1 -0.585,-0.243 0.994,0.994 0 0 1 -0.314,-0.758 c 0,-0.297 0.101,-0.538 0.307,-0.724 a 0.892,0.892 0 0 1 0.612,-0.247 c 0.098,0 0.197,0.02 0.29,0.057 0.095,0.038 0.183,0.095 0.274,0.171 l -0.01,-0.652 h 0.885 z m -0.876,0.795 a 1.385,1.385 0 0 0 -0.243,-0.183 0.388,0.388 0 0 0 -0.189,-0.061 c -0.044,0 -0.074,0.016 -0.091,0.048 a 0.522,0.522 0 0 0 -0.022,0.179 l 0.002,0.076 v 1.161 c 10e-4,0.094 0.005,0.15 0.013,0.174 0.014,0.05 0.046,0.075 0.098,0.075 a 0.324,0.324 0 0 0 0.183,-0.065 c 0.065,-0.044 0.15,-0.117 0.25,-0.226 z m 1.967,0.675 v 0.535 c 0,0.102 0.006,0.17 0.02,0.196 0.023,0.053 0.08,0.08 0.17,0.08 a 0.798,0.798 0 0 0 0.395,-0.11 c 0.13,-0.073 0.244,-0.175 0.341,-0.303 0.033,-0.042 0.053,-0.069 0.068,-0.082 a 0.066,0.066 0 0 1 0.046,-0.017 0.06,0.06 0 0 1 0.046,0.02 0.08,0.08 0 0 1 0.02,0.055 c 0,0.048 -0.039,0.114 -0.117,0.196 -0.1,0.104 -0.226,0.189 -0.377,0.256 a 1.1,1.1 0 0 1 -0.44,0.098 0.952,0.952 0 0 1 -0.649,-0.247 0.952,0.952 0 0 1 -0.253,-0.359 0.956,0.956 0 0 1 -0.01,-0.733 0.987,0.987 0 0 1 0.189,-0.312 0.979,0.979 0 0 1 1.309,-0.133 c 0.269,0.196 0.402,0.479 0.4,0.851 h -0.401 l -0.519,10e-4 -0.235,0.005 v 0.003 z m 0.442,-0.115 v -0.502 a 3.024,3.024 0 0 0 -0.008,-0.194 0.101,0.101 0 0 0 -0.023,-0.059 c -0.033,-0.046 -0.098,-0.069 -0.197,-0.069 -0.101,0 -0.164,0.026 -0.189,0.078 -0.016,0.031 -0.025,0.112 -0.025,0.243 v 0.502 l 0.21,0.008 z m 3.096,-1.497 1.38,2.5 h -1.198 l -0.167,-0.315 h -0.581 l -0.507,-0.003 -0.088,-10e-4 -0.114,0.211 a 0.945,0.945 0 0 1 -0.068,0.119 0.06,0.06 0 0 1 -0.05,0.023 c -0.041,0 -0.059,-0.016 -0.059,-0.052 0,-0.013 0.012,-0.042 0.033,-0.083 l 0.236,-0.403 1.046,-1.761 0.135,-0.233 v -0.002 z m -0.537,1.135 -0.302,0.507 -0.241,0.417 0.515,0.007 0.517,-0.007 z"
         id="path457"
         inkscape:connector-curvature="0"
         style="fill:#ffffff" />
      <circle
         cx="700.89001"
         cy="308.353"
         r="22.187"
         id="circle459"
         style="fill:none;stroke:#59accc;stroke-width:0.32600001" />
      <path
         d="m 700.544,301.546 a 6.6350002,6.6350002 0 1 0 0.003,13.27 6.6350002,6.6350002 0 0 0 -0.003,-13.27 z m 0.002,8.571 a 1.936,1.936 0 1 1 0,-3.872 1.937,1.937 0 0 1 0,3.872 z"
         id="path461"
         inkscape:connector-curvature="0"
         style="fill:#1f5ea4;stroke:#59accc;stroke-width:0.32600001" />
    </g>
    <g
       id="g568">
      <path
         d="M 811.512,325.478 H 795.84 c 0,0 -0.67,0.039 -0.67,-0.897 v 0.63 c 0,0.936 0.67,0.896 0.67,0.896 h 15.672 c 0.585,-0.039 0.663,-0.478 0.663,-0.478 v -0.63 c 0,0 -0.078,0.44 -0.663,0.479 z"
         id="path465"
         inkscape:connector-curvature="0"
         style="fill:#373737" />
      <linearGradient
         id="L"
         gradientUnits="userSpaceOnUse"
         x1="-75.029999"
         y1="748.45398"
         x2="-75.029999"
         y2="765.45801"
         gradientTransform="rotate(-90,144.573,97.857)">
        <stop
           offset="0"
           stop-color="#87888c"
           id="stop467" />
        <stop
           offset=".079"
           stop-color="#969eaf"
           id="stop469" />
        <stop
           offset=".096"
           stop-color="#828793"
           id="stop471" />
        <stop
           offset=".126"
           stop-color="#656970"
           id="stop473" />
        <stop
           offset=".159"
           stop-color="#515457"
           id="stop475" />
        <stop
           offset=".196"
           stop-color="#434545"
           id="stop477" />
        <stop
           offset=".239"
           stop-color="#3a3b3a"
           id="stop479" />
        <stop
           offset=".293"
           stop-color="#343634"
           id="stop481" />
        <stop
           offset=".394"
           stop-color="#323433"
           id="stop483" />
        <stop
           offset=".596"
           stop-color="#353635"
           id="stop485" />
        <stop
           offset=".672"
           stop-color="#323232"
           id="stop487" />
        <stop
           offset=".788"
           stop-color="#2c292a"
           id="stop489" />
        <stop
           offset=".892"
           stop-color="#231c20"
           id="stop491" />
        <stop
           offset=".98"
           stop-color="#2f2c2f"
           id="stop493" />
      </linearGradient>
      <path
         d="m 795.17,311.745 c 0,0 0.358,-0.834 0.865,-1.223 0,0 7.017,-2.378 15.204,-0.078 0,0 0.702,0.663 0.936,1.364 v 13.191 c 0,0 -0.078,0.439 -0.663,0.478 H 795.84 c 0,0 -0.67,0.039 -0.67,-0.897 z"
         id="path496"
         inkscape:connector-curvature="0"
         style="fill:url(#L)" />
      <g
         id="g566">
        <linearGradient
           id="M"
           gradientUnits="userSpaceOnUse"
           x1="-92.287003"
           y1="750.992"
           x2="-92.287003"
           y2="762.91901"
           gradientTransform="rotate(-90,144.573,97.857)">
          <stop
             offset="0"
             stop-color="#b2b3b0"
             id="stop498" />
          <stop
             offset=".079"
             stop-color="#fefdee"
             id="stop500" />
          <stop
             offset=".081"
             stop-color="#fdfded"
             id="stop502" />
          <stop
             offset=".13"
             stop-color="#f0ece1"
             id="stop504" />
          <stop
             offset=".187"
             stop-color="#e5dfd7"
             id="stop506" />
          <stop
             offset=".259"
             stop-color="#dfd8d2"
             id="stop508" />
          <stop
             offset=".394"
             stop-color="#ddd5d0"
             id="stop510" />
          <stop
             offset=".596"
             stop-color="#cac3bf"
             id="stop512" />
          <stop
             offset=".84"
             stop-color="#d0c9c6"
             id="stop514" />
          <stop
             offset=".892"
             stop-color="#d2cbc8"
             id="stop516" />
          <stop
             offset=".98"
             stop-color="#7a7575"
             id="stop518" />
        </linearGradient>
        <path
           d="m 809.426,328.799 c 0.115,0 0.21,0.095 0.21,0.21 v 11.415 a 0.21,0.21 0 0 1 -0.21,0.21 h -11.508 a 0.21,0.21 0 0 1 -0.21,-0.21 v -11.415 a 0.21,0.21 0 0 1 0.21,-0.21 z"
           id="path521"
           inkscape:connector-curvature="0"
           style="fill:url(#M)" />
        <path
           stroke-miterlimit="10"
           d="m 803.703,328.799 v 1.739 h -1.176 v 2.03 h 1.176 v 4.304 h -1.176 v 1.995 h 1.145 l 0.031,1.767"
           id="path523"
           inkscape:connector-curvature="0"
           style="fill:none;stroke:#817c7c;stroke-width:0.105;stroke-miterlimit:10" />
        <linearGradient
           id="N"
           gradientUnits="userSpaceOnUse"
           x1="-115.536"
           y1="748.46002"
           x2="-115.536"
           y2="765.513"
           gradientTransform="rotate(-90,144.573,97.857)">
          <stop
             offset="0"
             stop-color="#87888c"
             id="stop525" />
          <stop
             offset=".079"
             stop-color="#969eaf"
             id="stop527" />
          <stop
             offset=".096"
             stop-color="#828793"
             id="stop529" />
          <stop
             offset=".126"
             stop-color="#656970"
             id="stop531" />
          <stop
             offset=".159"
             stop-color="#515457"
             id="stop533" />
          <stop
             offset=".196"
             stop-color="#434545"
             id="stop535" />
          <stop
             offset=".239"
             stop-color="#3a3b3a"
             id="stop537" />
          <stop
             offset=".293"
             stop-color="#343634"
             id="stop539" />
          <stop
             offset=".394"
             stop-color="#323433"
             id="stop541" />
          <stop
             offset=".596"
             stop-color="#353635"
             id="stop543" />
          <stop
             offset=".672"
             stop-color="#323232"
             id="stop545" />
          <stop
             offset=".788"
             stop-color="#2c292a"
             id="stop547" />
          <stop
             offset=".892"
             stop-color="#231c20"
             id="stop549" />
          <stop
             offset=".98"
             stop-color="#2f2c2f"
             id="stop551" />
        </linearGradient>
        <path
           d="m 795.181,373.664 v -33.363 c 0,0 -0.072,-0.42 0.365,-0.42 h 16.237 c 0,0 0.447,-0.008 0.447,0.537 v 33.246 c 0,0 -0.667,1.184 -1.155,1.334 0,0 -6.874,2.366 -14.912,0 0,0 -0.537,-0.302 -0.982,-1.334 z"
           id="path554"
           inkscape:connector-curvature="0"
           style="fill:url(#N)" />
        <path
           d="m 801.863,332.816 c 0.058,0 0.105,0.047 0.105,0.105 v 1.975 a 0.105,0.105 0 0 1 -0.105,0.105 h -2.42 a 0.105,0.105 0 0 1 -0.105,-0.105 v -1.975 c 0,-0.058 0.047,-0.105 0.105,-0.105 z"
           id="path556"
           inkscape:connector-curvature="0"
           style="fill:#070308" />
        <path
           d="m 799.558,334.581 c 0,0.058 0.047,0.105 0.105,0.105 h 2.305 v -1.766 a 0.105,0.105 0 0 0 -0.105,-0.105 h -2.305 z"
           id="path558"
           inkscape:connector-curvature="0"
           style="fill:#363536" />
        <path
           d="m 807.9,332.816 c 0.058,0 0.105,0.047 0.105,0.105 v 1.975 a 0.105,0.105 0 0 1 -0.105,0.105 h -2.42 a 0.105,0.105 0 0 1 -0.105,-0.105 v -1.975 c 0,-0.058 0.047,-0.105 0.105,-0.105 z"
           id="path560"
           inkscape:connector-curvature="0"
           style="fill:#070308" />
        <path
           d="m 805.596,334.581 c 0,0.058 0.047,0.105 0.105,0.105 h 2.305 v -1.766 a 0.105,0.105 0 0 0 -0.105,-0.105 h -2.305 z"
           id="path562"
           inkscape:connector-curvature="0"
           style="fill:#363536" />
        <path
           d="m 803.764,344.981 -1.342,2.382 h 0.953 v 6.699 c -1.109,-0.038 -1.382,-0.697 -1.382,-0.697 -0.312,-0.697 -0.299,-1.505 -0.276,-1.841 a 1.237,1.237 0 1 0 -0.786,0.023 5.951,5.951 0 0 0 0.157,1.699 c 0.296,1.366 1.653,1.577 2.287,1.6 v 1.914 a 1.236,1.236 0 0 0 0.39,2.41 1.237,1.237 0 0 0 0.396,-2.408 v -3.189 c 2.52,-0.114 2.43,-2.317 2.43,-2.317 v -1.203 h 0.667 v -2.025 h -2.025 v 2.025 h 0.572 v 1.167 c -0.02,1.401 -1.251,1.574 -1.644,1.594 v -5.453 h 1.072 z"
           id="path564"
           inkscape:connector-curvature="0"
           style="fill:#5a605f" />
      </g>
    </g>
  </g>
</svg>
