<?xml version="1.0" encoding="UTF-8" standalone="no"?>
<svg
   xmlns:dc="http://purl.org/dc/elements/1.1/"
   xmlns:cc="http://creativecommons.org/ns#"
   xmlns:rdf="http://www.w3.org/1999/02/22-rdf-syntax-ns#"
   xmlns:svg="http://www.w3.org/2000/svg"
   xmlns="http://www.w3.org/2000/svg"
   xmlns:sodipodi="http://sodipodi.sourceforge.net/DTD/sodipodi-0.dtd"
   xmlns:inkscape="http://www.inkscape.org/namespaces/inkscape"
   viewBox="0 0 247.9 135.739"
   version="1.1"
   id="svg213"
   sodipodi:docname="game.svg"
   width="247.89999"
   height="135.739"
   inkscape:version="0.92.4 5da689c313, 2019-01-14">
  <metadata
     id="metadata219">
    <rdf:RDF>
      <cc:Work
         rdf:about="">
        <dc:format>image/svg+xml</dc:format>
        <dc:type
           rdf:resource="http://purl.org/dc/dcmitype/StillImage" />
      </cc:Work>
    </rdf:RDF>
  </metadata>
  <defs
     id="defs217" />
  <sodipodi:namedview
     pagecolor="#ffffff"
     bordercolor="#666666"
     borderopacity="1"
     objecttolerance="10"
     gridtolerance="10"
     guidetolerance="10"
     inkscape:pageopacity="0"
     inkscape:pageshadow="2"
     inkscape:window-width="471"
     inkscape:window-height="442"
     id="namedview215"
     showgrid="false"
     inkscape:zoom="1.0931828"
     inkscape:cx="123.95"
     inkscape:cy="67.869501"
     inkscape:window-x="0"
     inkscape:window-y="0"
     inkscape:window-maximized="0"
     inkscape:current-layer="svg213" />
  <path
     d="M 114.91,20.826 C 102.34,8.257 85.628,1.335 67.853,1.335 50.078,1.335 33.365,8.257 20.797,20.826 8.227,33.396 1.305,50.108 1.305,67.883 c 0,17.777 6.922,34.489 19.492,47.058 12.57,12.57 29.281,19.492 47.056,19.492 17.775,0 34.487,-6.921 47.056,-19.49 12.55,-12.55 19.462,-29.263 19.462,-47.059 0,-17.795 -6.912,-34.507 -19.461,-47.058 z M 67.509,69.648 a 1.9350003,1.9350003 0 1 1 -0.002,-3.87 1.9350003,1.9350003 0 0 1 0.002,3.87 z"
     id="path2"
     inkscape:connector-curvature="0"
     style="fill:#333333" />
  <path
     d="m 67.853,2.639 c 17.427,0 33.811,6.787 46.135,19.11 25.439,25.439 25.439,66.831 0,92.27 -12.324,12.322 -28.707,19.109 -46.135,19.109 -17.428,0 -33.812,-6.786 -46.135,-19.11 C 9.396,101.695 2.609,85.311 2.609,67.883 2.609,50.455 9.395,34.073 21.719,21.75 34.042,9.426 50.426,2.639 67.853,2.639 m 0,-2.609 C 49.728,0.03 32.689,7.088 19.873,19.905 7.058,32.72 0,49.759 0,67.883 c 0,18.125 7.058,35.165 19.873,47.98 12.816,12.816 29.855,19.875 47.98,19.875 18.123,0 35.162,-7.058 47.979,-19.874 12.796,-12.796 19.844,-29.836 19.844,-47.981 0,-18.143 -7.048,-35.183 -19.844,-47.979 C 103.016,7.089 85.977,0.03 67.853,0.03 Z"
     id="path4"
     inkscape:connector-curvature="0"
     style="fill:#070308" />
  <radialGradient
     id="a"
     cx="841.61401"
     cy="547.34003"
     r="64.025002"
     gradientTransform="rotate(45,1128.724,-588.03)"
     gradientUnits="userSpaceOnUse">
    <stop
       offset=".55"
       stop-color="#070308"
       id="stop6" />
    <stop
       offset="1"
       stop-color="#070308"
       stop-opacity="0"
       id="stop8" />
  </radialGradient>
  <path
     d="M 113.977,21.588 C 88.505,-3.886 47.204,-3.886 21.73,21.588 l 92.247,92.247 c 25.474,-25.474 25.474,-66.773 0,-92.247 z"
     id="path11"
     inkscape:connector-curvature="0"
     style="fill:url(#a)" />
  <radialGradient
     id="b"
     cx="841.61298"
     cy="595.10199"
     r="64.026001"
     gradientTransform="matrix(0.70710678,0.70710678,0.70710678,-0.70710678,-1004.0831,-51.396912)"
     gradientUnits="userSpaceOnUse">
    <stop
       offset=".55"
       stop-color="#070308"
       id="stop13" />
    <stop
       offset="1"
       stop-color="#070308"
       stop-opacity="0"
       id="stop15" />
  </radialGradient>
  <path
     d="M 21.73,113.837 C -3.745,88.363 -3.744,47.062 21.73,21.589 l 92.247,92.247 C 88.504,139.31 47.203,139.31 21.73,113.837 Z"
     id="path18"
     inkscape:connector-curvature="0"
     style="fill:url(#b)" />
  <circle
     cx="67.852997"
     cy="67.884003"
     r="58"
     id="circle20"
     style="fill:none;stroke:#070308;stroke-width:0.32600001" />
  <circle
     cx="67.852997"
     cy="67.884003"
     r="52.333"
     id="circle22"
     style="fill:none;stroke:#070308;stroke-width:0.32600001" />
  <circle
     cx="67.852997"
     cy="67.884003"
     r="42.950001"
     id="circle24"
     style="fill:none;stroke:#070308;stroke-width:0.32600001" />
  <circle
     cx="67.852997"
     cy="67.884003"
     r="36.033001"
     id="circle26"
     style="fill:none;stroke:#070308;stroke-width:0.32600001" />
  <path
     d="m 67.853,37.015 c -17.048,0 -30.869,13.821 -30.869,30.869 0,17.049 13.821,30.869 30.869,30.869 17.048,0 30.869,-13.821 30.869,-30.869 0,-17.048 -13.82,-30.869 -30.869,-30.869 z m -0.344,32.633 a 1.9350003,1.9350003 0 1 1 -0.002,-3.87 1.9350003,1.9350003 0 0 1 0.002,3.87 z"
     id="path28"
     inkscape:connector-curvature="0"
     style="fill:#070308" />
  <linearGradient
     id="c"
     gradientUnits="userSpaceOnUse"
     x1="108.147"
     y1="882.21002"
     x2="139.492"
     y2="850.86499"
     gradientTransform="translate(-55.96,-798.66)">
    <stop
       offset="0"
       stop-color="#fff"
       stop-opacity="0"
       id="stop30" />
    <stop
       offset=".429"
       stop-color="#fff"
       stop-opacity=".214"
       id="stop32" />
    <stop
       offset=".5"
       stop-color="#fff"
       stop-opacity=".25"
       id="stop34" />
    <stop
       offset=".572"
       stop-color="#fff"
       stop-opacity=".214"
       id="stop36" />
    <stop
       offset="1"
       stop-color="#fff"
       stop-opacity="0"
       id="stop38" />
  </linearGradient>
  <path
     d="m 40.119,8.792 c -6.402,3.01 -12.323,7.084 -17.551,12.129 L 20.89,22.599 A 65.225,65.225 0 0 0 8.77,40.131 l 86.834,86.836 A 65.232,65.232 0 0 0 113.1,114.885 l 1.717,-1.717 A 64.932,64.932 0 0 0 126.92,95.597 Z m 27.39,60.856 a 1.9350003,1.9350003 0 1 1 -0.002,-3.87 1.9350003,1.9350003 0 0 1 0.002,3.87 z"
     id="path41"
     inkscape:connector-curvature="0"
     style="fill:url(#c)" />
  <radialGradient
     id="d"
     cx="67.852997"
     cy="647.63098"
     r="24.652"
     gradientTransform="matrix(1,0,0,-1,0,715.515)"
     gradientUnits="userSpaceOnUse">
    <stop
       offset="0"
       stop-color="#c23435"
       id="stop43" />
    <stop
       offset="1"
       stop-color="#b32215"
       id="stop45" />
  </radialGradient>
  <path
     d="m 67.853,43.233 c -13.615,0 -24.652,11.037 -24.652,24.651 0,13.614 11.037,24.652 24.652,24.652 13.615,0 24.652,-11.037 24.652,-24.652 0,-13.615 -11.036,-24.651 -24.652,-24.651 z m -0.344,26.415 a 1.9350003,1.9350003 0 1 1 -0.002,-3.87 1.9350003,1.9350003 0 0 1 0.002,3.87 z"
     id="path48"
     inkscape:connector-curvature="0"
     style="fill:url(#d);stroke:#070308;stroke-width:0.32600001" />
  <path
     d="m 76.647,66.669 c -0.309,-0.003 -0.543,0.085 -0.703,0.264 -0.055,0.057 -0.098,0.086 -0.132,0.086 a 0.06,0.06 0 0 1 -0.05,-0.027 0.096,0.096 0 0 1 -0.022,-0.064 c 0,-0.048 0.052,-0.107 0.155,-0.176 0.21,-0.142 0.493,-0.212 0.848,-0.212 0.267,0 0.488,0.05 0.664,0.15 a 0.566,0.566 0 0 1 0.302,0.506 0.494,0.494 0 0 1 -0.217,0.425 c -0.134,0.096 -0.3,0.157 -0.497,0.179 -0.104,0.012 -0.171,0.02 -0.199,0.026 l 0.316,0.044 c 0.237,0.029 0.422,0.104 0.556,0.228 a 0.513,0.513 0 0 1 0.172,0.398 0.628,0.628 0 0 1 -0.163,0.423 c -0.212,0.245 -0.561,0.367 -1.048,0.367 -0.371,0 -0.665,-0.073 -0.883,-0.22 -0.144,-0.095 -0.215,-0.185 -0.215,-0.269 0,-0.022 0.007,-0.04 0.023,-0.054 a 0.085,0.085 0 0 1 0.057,-0.022 c 0.028,0 0.049,0.007 0.063,0.021 a 0.58,0.58 0 0 1 0.068,0.103 0.454,0.454 0 0 0 0.224,0.191 c 0.183,0.083 0.381,0.124 0.596,0.124 l 0.087,-10e-4 v -1.275 h -0.288 a 0.401,0.401 0 0 1 -0.119,-0.01 c -0.016,-0.007 -0.024,-0.025 -0.024,-0.052 0,-0.031 0.008,-0.05 0.025,-0.059 a 0.391,0.391 0 0 1 0.121,-0.011 h 0.287 L 76.65,66.669 Z m 2.53,0 c -0.308,-0.003 -0.541,0.085 -0.703,0.264 -0.055,0.057 -0.098,0.086 -0.132,0.086 a 0.064,0.064 0 0 1 -0.05,-0.027 0.096,0.096 0 0 1 -0.022,-0.064 c 0,-0.048 0.052,-0.107 0.155,-0.176 0.21,-0.142 0.493,-0.212 0.848,-0.212 0.267,0 0.488,0.05 0.664,0.15 a 0.566,0.566 0 0 1 0.302,0.506 0.497,0.497 0 0 1 -0.215,0.425 c -0.134,0.096 -0.3,0.157 -0.498,0.179 -0.104,0.012 -0.171,0.02 -0.199,0.026 l 0.315,0.044 c 0.237,0.029 0.422,0.104 0.556,0.228 a 0.513,0.513 0 0 1 0.172,0.398 0.629,0.629 0 0 1 -0.164,0.423 c -0.211,0.245 -0.561,0.367 -1.047,0.367 -0.37,0 -0.665,-0.073 -0.883,-0.22 -0.145,-0.095 -0.217,-0.185 -0.217,-0.269 0,-0.022 0.008,-0.04 0.023,-0.054 a 0.085,0.085 0 0 1 0.057,-0.022 c 0.029,0 0.05,0.007 0.064,0.021 a 0.564,0.564 0 0 1 0.068,0.103 0.454,0.454 0 0 0 0.224,0.191 c 0.183,0.083 0.381,0.124 0.596,0.124 l 0.086,-10e-4 v -1.275 h -0.288 a 0.392,0.392 0 0 1 -0.119,-0.01 c -0.016,-0.007 -0.024,-0.025 -0.024,-0.052 0,-0.031 0.008,-0.05 0.024,-0.059 a 0.391,0.391 0 0 1 0.121,-0.011 h 0.287 z m 2.33,-0.083 -0.008,0.545 0.008,0.748 v 0.031 h -0.551 v -0.031 l 0.008,-0.76 v -0.322 l -0.018,0.007 -0.138,0.042 a 0.107,0.107 0 0 1 -0.037,0.008 c -0.02,0 -0.029,-0.011 -0.029,-0.033 0,-0.016 0.005,-0.026 0.014,-0.033 0.01,-0.007 0.039,-0.014 0.087,-0.026 l 0.239,-0.063 0.091,-0.024 z m 1.145,-0.287 a 0.085,0.085 0 0 1 0.061,0.02 c 0.016,0.015 0.026,0.033 0.026,0.051 a 0.468,0.468 0 0 1 -0.044,0.114 l -0.299,0.631 -0.771,1.628 -0.21,0.444 a 3.444,3.444 0 0 0 -0.072,0.16 c -0.033,0.082 -0.072,0.123 -0.116,0.123 a 0.076,0.076 0 0 1 -0.052,-0.021 0.06,0.06 0 0 1 -0.023,-0.048 c 0,-0.02 0.015,-0.06 0.046,-0.123 l 0.074,-0.16 0.602,-1.264 0.376,-0.797 0.176,-0.369 c 0.097,-0.21 0.152,-0.327 0.166,-0.352 0.015,-0.023 0.034,-0.036 0.06,-0.037 z m 0.199,1.644 c -0.155,-0.002 -0.271,0.042 -0.352,0.132 -0.027,0.029 -0.049,0.043 -0.065,0.043 -0.01,0 -0.018,-0.004 -0.026,-0.013 a 0.052,0.052 0 0 1 -0.011,-0.033 c 0,-0.023 0.026,-0.052 0.077,-0.087 a 0.76,0.76 0 0 1 0.424,-0.106 c 0.133,0 0.244,0.025 0.333,0.074 a 0.284,0.284 0 0 1 0.15,0.253 0.248,0.248 0 0 1 -0.108,0.213 0.53,0.53 0 0 1 -0.248,0.09 c -0.052,0.007 -0.086,0.01 -0.1,0.013 l 0.158,0.022 a 0.485,0.485 0 0 1 0.278,0.114 0.26,0.26 0 0 1 0.087,0.2 0.31,0.31 0 0 1 -0.083,0.211 c -0.106,0.122 -0.28,0.183 -0.524,0.183 -0.185,0 -0.333,-0.037 -0.441,-0.11 -0.072,-0.048 -0.108,-0.093 -0.108,-0.135 0,-0.012 0.004,-0.02 0.013,-0.028 a 0.037,0.037 0 0 1 0.027,-0.011 c 0.013,0 0.024,0.003 0.031,0.011 a 0.386,0.386 0 0 1 0.035,0.051 c 0.022,0.04 0.059,0.072 0.112,0.095 a 0.697,0.697 0 0 0 0.297,0.063 H 82.85 V 68.55 h -0.145 a 0.182,0.182 0 0 1 -0.06,-0.005 c -0.008,-0.004 -0.013,-0.013 -0.013,-0.026 0,-0.016 0.005,-0.026 0.013,-0.03 a 0.232,0.232 0 0 1 0.061,-0.005 h 0.145 z M 84.934,69 a 1.11,1.11 0 0 0 0.426,0.177 c 0.02,0.004 0.029,0.013 0.029,0.029 0,0.02 -0.013,0.031 -0.043,0.031 a 0.689,0.689 0 0 1 -0.282,-0.089 1.955,1.955 0 0 1 -0.346,-0.227 v 0.039 l 10e-4,0.163 v 0.091 h -0.583 v -0.042 l 0.001,-0.313 0.003,-0.372 -0.002,-0.577 h 0.385 c 0.172,0 0.301,0.005 0.389,0.014 a 0.81,0.81 0 0 1 0.224,0.053 0.49,0.49 0 0 1 0.239,0.209 0.528,0.528 0 0 1 -0.009,0.575 A 0.51,0.51 0 0 1 84.934,69 Z m -0.091,-0.059 h 0.046 a 0.52,0.52 0 0 0 0.333,-0.11 0.44,0.44 0 0 0 0.13,-0.173 0.456,0.456 0 0 0 -0.065,-0.492 0.453,0.453 0 0 0 -0.209,-0.144 1.237,1.237 0 0 0 -0.351,-0.044 l -0.009,0.639 v 0.174 l 10e-4,0.044 c 0.039,0.038 0.081,0.073 0.124,0.106 z m 1.374,0.04 v 0.234 H 85.635 V 69.156 L 85.64,68.484 85.636,68.166 V 67.95 l -0.002,-0.039 h 0.437 c 0.176,0 0.313,0.008 0.404,0.023 0.093,0.014 0.17,0.042 0.232,0.082 a 0.524,0.524 0 0 1 0.248,0.446 0.543,0.543 0 0 1 -0.261,0.46 0.58,0.58 0 0 1 -0.299,0.074 c -0.041,0 -0.102,-0.005 -0.179,-0.017 z m 0,-1.004 v 0.064 l -0.003,0.639 0.002,0.237 c 0.05,0.013 0.116,0.02 0.196,0.02 0.072,0 0.14,-0.013 0.205,-0.042 a 0.438,0.438 0 0 0 0.163,-0.121 0.464,0.464 0 0 0 0.002,-0.611 0.46,0.46 0 0 0 -0.207,-0.141 1.032,1.032 0 0 0 -0.327,-0.043 h -0.029 v -0.002 z m 2.233,-0.111 0.207,0.711 0.095,0.316 0.085,0.285 0.012,0.037 h -0.581 l -0.183,-0.676 -0.395,0.594 -0.404,-0.564 c -0.039,0.137 -0.082,0.307 -0.128,0.507 a 0.766,0.766 0 0 1 -0.036,0.135 c -0.007,0.014 -0.022,0.022 -0.044,0.022 -0.028,0 -0.042,-0.01 -0.042,-0.029 0,-0.007 0.008,-0.039 0.026,-0.097 l 0.059,-0.204 0.104,-0.351 0.202,-0.687 0.522,0.759 0.5,-0.759 z m -33.621,1.853 c 0.048,-0.048 0.121,-0.072 0.219,-0.072 0.104,0 0.185,0.028 0.239,0.082 a 0.231,0.231 0 0 1 0.072,0.17 H 55.242 A 0.136,0.136 0 0 0 55.2,69.797 c -0.031,-0.031 -0.078,-0.046 -0.144,-0.046 -0.07,0 -0.12,0.014 -0.147,0.042 a 0.113,0.113 0 0 0 -0.036,0.082 c 0,0.031 0.008,0.052 0.021,0.067 a 0.3,0.3 0 0 0 0.091,0.051 c 0.078,0.034 0.167,0.072 0.265,0.117 0.026,0.01 0.052,0.027 0.076,0.051 a 0.18,0.18 0 0 1 0.056,0.132 0.236,0.236 0 0 1 -0.072,0.174 c -0.05,0.05 -0.134,0.076 -0.249,0.076 a 0.356,0.356 0 0 1 -0.26,-0.091 c -0.044,-0.044 -0.067,-0.111 -0.067,-0.194 h 0.117 c 0,0.061 0.013,0.104 0.041,0.132 0.038,0.038 0.095,0.057 0.174,0.057 0.07,0 0.124,-0.018 0.157,-0.051 0.028,-0.029 0.042,-0.055 0.042,-0.082 A 0.1,0.1 0 0 0 55.234,70.238 0.258,0.258 0 0 0 55.152,70.187 1.764,1.764 0 0 0 55.02,70.125 l -0.149,-0.067 a 0.227,0.227 0 0 1 -0.072,-0.046 0.164,0.164 0 0 1 -0.046,-0.122 0.243,0.243 0 0 1 0.072,-0.17 z m 0.652,-0.061 h 0.698 v 0.097 h -0.29 v 0.775 h -0.117 v -0.775 h -0.29 v -0.097 z m 0.82,0 h 0.561 v 0.097 h -0.444 v 0.27 h 0.413 v 0.097 h -0.413 v 0.311 h 0.47 v 0.096 h -0.587 z m 0.76,-0.005 h 0.428 c 0.068,0 0.124,0.022 0.17,0.067 a 0.248,0.248 0 0 1 0.065,0.183 c 0,0.08 -0.022,0.141 -0.065,0.184 a 0.19,0.19 0 0 1 -0.102,0.046 l 0.199,0.393 H 57.629 L 57.446,70.149 H 57.18 v 0.377 h -0.117 v -0.871 z m 0.118,0.097 v 0.3 h 0.3 a 0.122,0.122 0 0 0 0.087,-0.035 c 0.023,-0.024 0.035,-0.061 0.035,-0.112 0,-0.048 -0.013,-0.085 -0.041,-0.112 A 0.126,0.126 0 0 0 57.464,69.75 Z m 0.677,-0.092 h 0.561 v 0.097 h -0.444 v 0.27 h 0.412 v 0.097 h -0.413 v 0.311 h 0.47 v 0.096 h -0.587 z m 0.852,0.097 a 0.347,0.347 0 0 1 0.259,-0.107 c 0.102,0 0.189,0.036 0.26,0.107 0.082,0.082 0.123,0.194 0.123,0.337 0,0.143 -0.041,0.256 -0.123,0.337 a 0.36,0.36 0 0 1 -0.26,0.106 0.358,0.358 0 0 1 -0.26,-0.106 c -0.082,-0.082 -0.124,-0.194 -0.124,-0.337 0,-0.143 0.042,-0.255 0.125,-0.337 z m 0.085,0.066 c -0.057,0.059 -0.086,0.149 -0.086,0.27 0,0.123 0.029,0.212 0.087,0.27 0.052,0.051 0.11,0.076 0.174,0.076 0.064,0 0.123,-0.026 0.174,-0.076 0.059,-0.059 0.087,-0.148 0.087,-0.27 0,-0.122 -0.029,-0.211 -0.087,-0.27 -0.051,-0.051 -0.109,-0.076 -0.174,-0.076 -0.065,0 -0.123,0.025 -0.174,0.076 z M 47.684,68.525 c 0.02,0 0.044,0.015 0.072,0.047 0.087,0.095 0.192,0.17 0.317,0.227 a 0.883,0.883 0 0 0 0.37,0.086 c 0.134,0 0.202,-0.041 0.202,-0.123 a 0.311,0.311 0 0 0 -0.07,-0.176 5.319,5.319 0 0 0 -0.339,-0.386 4.486,4.486 0 0 1 -0.448,-0.541 0.824,0.824 0 0 1 -0.15,-0.444 c 0,-0.211 0.095,-0.385 0.284,-0.519 a 1.15,1.15 0 0 1 0.685,-0.198 c 0.191,0 0.365,0.039 0.524,0.115 0.059,0.03 0.111,0.065 0.153,0.104 0.044,0.039 0.065,0.072 0.065,0.098 0,0.013 -0.007,0.024 -0.018,0.035 -0.013,0.01 -0.025,0.016 -0.037,0.016 -0.02,0 -0.048,-0.018 -0.086,-0.053 a 0.728,0.728 0 0 0 -0.245,-0.146 0.84,0.84 0 0 0 -0.292,-0.059 0.242,0.242 0 0 0 -0.141,0.038 0.11,0.11 0 0 0 -0.055,0.096 0.34,0.34 0 0 0 0.068,0.173 c 0.045,0.068 0.121,0.159 0.228,0.271 0.338,0.361 0.545,0.603 0.621,0.729 0.08,0.132 0.119,0.26 0.119,0.383 a 0.555,0.555 0 0 1 -0.085,0.296 0.648,0.648 0 0 1 -0.235,0.23 c -0.19,0.115 -0.424,0.171 -0.698,0.171 -0.254,0 -0.476,-0.067 -0.669,-0.197 -0.135,-0.093 -0.202,-0.164 -0.202,-0.217 0,-0.014 0.007,-0.028 0.017,-0.04 a 0.056,0.056 0 0 1 0.042,-0.02 z m 3.024,-1.485 v 0.05 l -0.004,0.269 -0.003,0.417 -0.005,0.637 0.007,0.357 0.004,0.157 H 49.82 l 0.008,-0.637 0.005,-0.561 -0.004,-0.296 -0.005,-0.327 0.002,-0.065 z m -0.447,-0.604 c 0.304,0 0.457,0.08 0.457,0.238 0,0.077 -0.041,0.137 -0.121,0.181 a 0.724,0.724 0 0 1 -0.338,0.065 c -0.289,0 -0.434,-0.082 -0.434,-0.246 0,-0.157 0.146,-0.235 0.436,-0.238 z m 3.095,0.133 -0.003,0.845 -0.002,0.598 0.005,0.838 v 0.078 h -0.883 v -0.225 a 0.945,0.945 0 0 1 -0.274,0.202 0.706,0.706 0 0 1 -0.3,0.062 0.823,0.823 0 0 1 -0.584,-0.243 0.995,0.995 0 0 1 -0.316,-0.757 c 0,-0.298 0.102,-0.539 0.307,-0.724 a 0.879,0.879 0 0 1 0.609,-0.248 c 0.1,0 0.197,0.02 0.291,0.057 a 0.956,0.956 0 0 1 0.272,0.171 l -0.007,-0.652 h 0.884 z m -0.877,0.794 a 1.336,1.336 0 0 0 -0.243,-0.183 0.394,0.394 0 0 0 -0.19,-0.061 c -0.044,0 -0.073,0.016 -0.089,0.048 a 0.491,0.491 0 0 0 -0.023,0.179 l 0.002,0.076 v 1.161 c 0,0.094 0.005,0.15 0.013,0.174 0.013,0.05 0.046,0.075 0.099,0.075 a 0.334,0.334 0 0 0 0.183,-0.065 c 0.064,-0.044 0.148,-0.117 0.249,-0.226 z m 1.967,0.676 v 0.535 c 0,0.102 0.007,0.17 0.02,0.196 0.023,0.053 0.08,0.08 0.17,0.08 a 0.814,0.814 0 0 0 0.398,-0.11 c 0.129,-0.073 0.243,-0.175 0.339,-0.303 a 0.595,0.595 0 0 1 0.067,-0.082 0.058,0.058 0 0 1 0.044,-0.016 c 0.02,0 0.036,0.007 0.048,0.022 0.013,0.013 0.02,0.033 0.02,0.053 0,0.048 -0.039,0.115 -0.115,0.196 -0.101,0.104 -0.227,0.19 -0.378,0.257 a 1.096,1.096 0 0 1 -0.439,0.098 0.953,0.953 0 0 1 -0.649,-0.248 0.95,0.95 0 0 1 -0.252,-0.359 0.955,0.955 0 0 1 -0.009,-0.732 0.987,0.987 0 0 1 0.189,-0.312 1,1 0 0 1 0.727,-0.322 0.96,0.96 0 0 1 0.579,0.189 c 0.269,0.196 0.402,0.479 0.401,0.851 h -0.402 l -0.519,0.001 -0.236,0.003 z m 0.442,-0.115 v -0.502 a 5.013,5.013 0 0 0 -0.007,-0.194 0.12,0.12 0 0 0 -0.025,-0.059 c -0.033,-0.046 -0.098,-0.068 -0.197,-0.068 -0.101,0 -0.164,0.026 -0.189,0.078 -0.016,0.031 -0.025,0.112 -0.025,0.243 v 0.502 l 0.211,0.008 0.231,-0.007 z m 3.096,-1.497 1.381,2.5 h -1.198 l -0.166,-0.315 h -0.579 l -0.509,-0.003 -0.087,-10e-4 -0.114,0.211 a 0.798,0.798 0 0 1 -0.069,0.119 0.061,0.061 0 0 1 -0.05,0.023 c -0.039,0 -0.059,-0.016 -0.059,-0.052 0,-0.013 0.011,-0.042 0.033,-0.083 l 0.236,-0.402 1.046,-1.761 0.135,-0.234 z m -0.537,1.135 -0.302,0.507 -0.241,0.417 0.515,0.008 0.517,-0.008 -0.489,-0.926 z"
     id="path50"
     inkscape:connector-curvature="0"
     style="fill:#ffffff" />
  <circle
     cx="67.852997"
     cy="67.884003"
     r="22.187"
     id="circle52"
     style="fill:none;stroke:#c23435;stroke-width:0.32600001" />
  <path
     d="m 67.508,61.077 a 6.6345,6.6345 0 1 0 -10e-4,13.269 6.6345001,6.6345001 0 0 0 0.002,-13.269 z m 0.001,8.571 a 1.9365001,1.9365001 0 1 1 0.001,-3.873 1.9365001,1.9365001 0 0 1 -0.001,3.873 z"
     id="path54"
     inkscape:connector-curvature="0"
     style="fill:#be2518;stroke:#c23435;stroke-width:0.32600001" />
  <g
     id="g106">
    <path
       d="M 183.283,20.802 C 170.711,8.229 153.995,1.305 136.216,1.305 c -17.78,0 -34.496,6.925 -47.068,19.497 -25.953,25.953 -25.953,68.181 0,94.135 12.572,12.572 29.288,19.497 47.068,19.497 17.779,0 34.495,-6.924 47.067,-19.497 12.553,-12.553 19.468,-29.268 19.468,-47.068 0,-17.8 -6.915,-34.515 -19.468,-47.067 z m -47.067,49.004 a 1.936,1.936 0 1 1 0,-3.872 1.937,1.937 0 0 1 0,3.872 z"
       id="path56"
       inkscape:connector-curvature="0"
       style="fill:#333333" />
    <path
       d="m 136.216,2.609 c 17.431,0 33.819,6.789 46.145,19.115 25.446,25.445 25.446,66.845 0,92.291 -12.326,12.326 -28.714,19.115 -46.145,19.115 -17.432,0 -33.82,-6.788 -46.146,-19.114 C 64.624,88.57 64.624,47.171 90.07,21.727 102.395,9.4 118.783,2.609 136.216,2.609 M 136.215,0 c -18.127,0 -35.172,7.06 -47.99,19.879 -26.461,26.461 -26.461,69.518 0,95.981 12.819,12.818 29.862,19.879 47.991,19.879 18.127,0 35.172,-7.059 47.989,-19.879 12.801,-12.8 19.849,-29.844 19.849,-47.99 0,-18.148 -7.049,-35.191 -19.849,-47.99 C 171.386,7.06 154.343,0.001 136.215,0 Z"
       id="path58"
       inkscape:connector-curvature="0"
       style="fill:#070308" />
    <radialGradient
       id="e"
       cx="890.30902"
       cy="498.867"
       r="64.024002"
       gradientTransform="rotate(45,1128.724,-588.03)"
       gradientUnits="userSpaceOnUse">
      <stop
         offset=".55"
         stop-color="#070308"
         id="stop60" />
      <stop
         offset="1"
         stop-color="#070308"
         stop-opacity="0"
         id="stop62" />
    </radialGradient>
    <path
       d="m 182.683,21.746 c -25.472,-25.474 -66.773,-25.474 -92.247,0 l 92.247,92.247 c 25.475,-25.474 25.475,-66.774 0,-92.247 z"
       id="path65"
       inkscape:connector-curvature="0"
       style="fill:url(#e)" />
    <radialGradient
       id="f"
       cx="890.31"
       cy="643.57501"
       r="64.024002"
       gradientTransform="matrix(0.70710678,0.70710678,0.70710678,-0.70710678,-1004.0831,-51.396912)"
       gradientUnits="userSpaceOnUse">
      <stop
         offset=".55"
         stop-color="#070308"
         id="stop67" />
      <stop
         offset="1"
         stop-color="#070308"
         stop-opacity="0"
         id="stop69" />
    </radialGradient>
    <path
       d="M 90.435,113.994 C 64.961,88.52 64.963,47.219 90.436,21.746 l 92.247,92.247 c -25.473,25.475 -66.774,25.475 -92.248,0.001 z"
       id="path72"
       inkscape:connector-curvature="0"
       style="fill:url(#f)" />
    <circle
       cx="136.55901"
       cy="68.042"
       r="58"
       id="circle74"
       style="fill:none;stroke:#070308;stroke-width:0.32600001" />
    <circle
       cx="136.55901"
       cy="68.042"
       r="52.333"
       id="circle76"
       style="fill:none;stroke:#070308;stroke-width:0.32600001" />
    <circle
       cx="136.55901"
       cy="68.042"
       r="42.949001"
       id="circle78"
       style="fill:none;stroke:#070308;stroke-width:0.32600001" />
    <circle
       cx="136.55901"
       cy="68.042"
       r="36.033001"
       id="circle80"
       style="fill:none;stroke:#070308;stroke-width:0.32600001" />
    <path
       d="m 136.559,37.173 c -17.049,0 -30.869,13.821 -30.869,30.869 0,17.049 13.821,30.869 30.869,30.869 17.048,0 30.869,-13.821 30.869,-30.869 0,-17.048 -13.82,-30.869 -30.869,-30.869 z m -0.343,32.633 a 1.936,1.936 0 1 1 0,-3.872 1.937,1.937 0 0 1 0,3.872 z"
       id="path82"
       inkscape:connector-curvature="0"
       style="fill:#070308" />
    <linearGradient
       id="g"
       gradientUnits="userSpaceOnUse"
       x1="176.83"
       y1="882.39301"
       x2="208.207"
       y2="851.01501"
       gradientTransform="translate(-55.96,-798.66)">
      <stop
         offset="0"
         stop-color="#221e1f"
         stop-opacity="0"
         id="stop84" />
      <stop
         offset=".5"
         stop-color="#fff"
         stop-opacity=".25"
         id="stop86" />
      <stop
         offset="1"
         stop-color="#221e1f"
         stop-opacity="0"
         id="stop88" />
    </linearGradient>
    <path
       d="M 108.824,8.933 A 65.191,65.191 0 0 0 91.786,20.567 l -2.702,2.704 A 64.895,64.895 0 0 0 77.475,40.332 l 86.817,86.821 a 65.142,65.142 0 0 0 17.036,-11.63 l 2.712,-2.711 a 64.91,64.91 0 0 0 11.604,-17.055 z m 27.392,60.872 a 1.9355,1.9355 0 1 1 0,-3.871 1.936,1.936 0 1 1 0,3.871 z"
       id="path91"
       inkscape:connector-curvature="0"
       style="fill:url(#g)" />
    <radialGradient
       id="h"
       cx="136.56"
       cy="647.47302"
       r="24.652"
       gradientTransform="matrix(1,0,0,-1,0,715.515)"
       gradientUnits="userSpaceOnUse">
      <stop
         offset="0"
         stop-color="#309dcd"
         id="stop93" />
      <stop
         offset="1"
         stop-color="#186aac"
         id="stop95" />
    </radialGradient>
    <path
       d="m 136.559,43.39 c -13.615,0 -24.652,11.037 -24.652,24.651 0,13.614 11.037,24.652 24.652,24.652 13.615,0 24.652,-11.037 24.652,-24.652 0,-13.615 -11.036,-24.651 -24.652,-24.651 z m -0.343,26.416 a 1.936,1.936 0 1 1 0,-3.872 1.937,1.937 0 0 1 0,3.872 z"
       id="path98"
       inkscape:connector-curvature="0"
       style="fill:url(#h);stroke:#070308;stroke-width:0.32600001" />
    <path
       d="m 145.369,66.829 c -0.309,-0.004 -0.543,0.085 -0.703,0.264 -0.055,0.057 -0.098,0.086 -0.13,0.086 a 0.064,0.064 0 0 1 -0.052,-0.027 0.107,0.107 0 0 1 -0.021,-0.064 c 0,-0.048 0.051,-0.107 0.154,-0.176 0.21,-0.142 0.493,-0.212 0.848,-0.212 0.267,0 0.489,0.05 0.665,0.15 a 0.573,0.573 0 0 1 0.224,0.212 0.572,0.572 0 0 1 0.078,0.294 0.494,0.494 0 0 1 -0.217,0.425 c -0.133,0.097 -0.3,0.157 -0.497,0.179 -0.104,0.012 -0.171,0.02 -0.199,0.026 l 0.315,0.044 c 0.237,0.029 0.422,0.104 0.556,0.228 a 0.511,0.511 0 0 1 0.174,0.398 0.633,0.633 0 0 1 -0.164,0.424 c -0.211,0.244 -0.56,0.367 -1.046,0.367 -0.37,0 -0.665,-0.073 -0.883,-0.22 -0.145,-0.095 -0.215,-0.185 -0.215,-0.269 0,-0.022 0.007,-0.039 0.023,-0.054 a 0.082,0.082 0 0 1 0.057,-0.022 c 0.028,0 0.049,0.008 0.064,0.021 a 0.6,0.6 0 0 1 0.068,0.102 0.45,0.45 0 0 0 0.224,0.191 c 0.183,0.085 0.381,0.126 0.596,0.126 l 0.086,-0.002 v -1.275 h -0.289 a 0.397,0.397 0 0 1 -0.119,-0.01 c -0.016,-0.007 -0.023,-0.025 -0.023,-0.052 0,-0.031 0.008,-0.05 0.023,-0.059 a 0.4,0.4 0 0 1 0.122,-0.011 h 0.287 l -0.003,-1.083 z m 2.531,0 c -0.309,-0.004 -0.543,0.085 -0.703,0.264 -0.055,0.057 -0.098,0.086 -0.13,0.086 a 0.064,0.064 0 0 1 -0.052,-0.027 0.107,0.107 0 0 1 -0.021,-0.064 c 0,-0.048 0.052,-0.107 0.154,-0.176 0.211,-0.142 0.494,-0.212 0.85,-0.212 0.265,0 0.487,0.05 0.663,0.15 a 0.566,0.566 0 0 1 0.302,0.506 0.497,0.497 0 0 1 -0.215,0.425 c -0.134,0.097 -0.3,0.157 -0.498,0.179 -0.104,0.012 -0.171,0.02 -0.199,0.026 l 0.315,0.044 c 0.236,0.029 0.421,0.104 0.556,0.228 a 0.514,0.514 0 0 1 0.173,0.398 0.633,0.633 0 0 1 -0.164,0.424 c -0.211,0.244 -0.56,0.367 -1.046,0.367 -0.372,0 -0.667,-0.073 -0.884,-0.22 -0.143,-0.095 -0.215,-0.185 -0.215,-0.269 0,-0.022 0.007,-0.039 0.023,-0.054 a 0.08,0.08 0 0 1 0.057,-0.022 c 0.028,0 0.049,0.008 0.064,0.021 a 0.6,0.6 0 0 1 0.068,0.102 0.45,0.45 0 0 0 0.223,0.191 c 0.183,0.085 0.381,0.126 0.596,0.126 l 0.087,-0.002 v -1.275 h -0.29 a 0.397,0.397 0 0 1 -0.119,-0.01 c -0.016,-0.007 -0.024,-0.025 -0.024,-0.052 0,-0.031 0.008,-0.05 0.024,-0.059 a 0.387,0.387 0 0 1 0.121,-0.011 h 0.287 v -1.084 z m 2.329,-0.085 -0.008,0.545 0.008,0.748 v 0.031 h -0.551 v -0.031 l 0.008,-0.76 0.001,-0.28 v -0.04 l -0.02,0.007 -0.137,0.042 a 0.112,0.112 0 0 1 -0.037,0.008 c -0.02,0 -0.029,-0.011 -0.029,-0.033 0,-0.016 0.005,-0.026 0.014,-0.033 0.01,-0.007 0.039,-0.014 0.087,-0.026 l 0.239,-0.063 0.091,-0.025 0.333,-0.091 z m 1.144,-0.287 a 0.088,0.088 0 0 1 0.062,0.02 0.071,0.071 0 0 1 0.025,0.051 0.467,0.467 0 0 1 -0.042,0.114 c -0.029,0.061 -0.128,0.272 -0.3,0.631 l -0.77,1.628 -0.211,0.444 a 2.58,2.58 0 0 0 -0.072,0.16 c -0.034,0.082 -0.07,0.123 -0.117,0.123 a 0.078,0.078 0 0 1 -0.052,-0.021 0.066,0.066 0 0 1 -0.022,-0.048 c 0,-0.02 0.016,-0.06 0.046,-0.123 l 0.074,-0.16 0.603,-1.264 0.376,-0.797 0.176,-0.369 c 0.097,-0.21 0.153,-0.327 0.167,-0.352 a 0.062,0.062 0 0 1 0.057,-0.037 z m 0.2,1.644 c -0.154,-0.002 -0.271,0.042 -0.352,0.132 -0.027,0.029 -0.049,0.043 -0.065,0.043 -0.011,0 -0.018,-0.004 -0.026,-0.013 a 0.053,0.053 0 0 1 -0.012,-0.033 c 0,-0.023 0.026,-0.052 0.078,-0.087 a 0.752,0.752 0 0 1 0.423,-0.106 c 0.133,0 0.244,0.025 0.333,0.074 a 0.284,0.284 0 0 1 0.151,0.253 0.25,0.25 0 0 1 -0.108,0.213 0.53,0.53 0 0 1 -0.248,0.09 c -0.052,0.007 -0.086,0.01 -0.1,0.013 l 0.157,0.022 a 0.489,0.489 0 0 1 0.279,0.114 0.26,0.26 0 0 1 0.087,0.2 0.31,0.31 0 0 1 -0.083,0.211 c -0.106,0.122 -0.28,0.183 -0.524,0.183 -0.185,0 -0.333,-0.037 -0.441,-0.11 -0.072,-0.048 -0.108,-0.093 -0.108,-0.135 0,-0.012 0.004,-0.02 0.013,-0.028 a 0.04,0.04 0 0 1 0.028,-0.011 c 0.014,0 0.024,0.003 0.031,0.011 0.008,0.007 0.018,0.024 0.035,0.051 a 0.23,0.23 0 0 0 0.113,0.095 c 0.091,0.042 0.19,0.063 0.298,0.063 h 0.043 v -0.638 h -0.145 a 0.182,0.182 0 0 1 -0.06,-0.005 c -0.008,-0.004 -0.013,-0.013 -0.013,-0.026 0,-0.016 0.005,-0.026 0.013,-0.03 a 0.194,0.194 0 0 1 0.061,-0.005 h 0.144 z m 2.083,1.057 a 1.145,1.145 0 0 0 0.426,0.177 c 0.02,0.004 0.03,0.013 0.03,0.029 0,0.02 -0.013,0.031 -0.043,0.031 a 0.698,0.698 0 0 1 -0.282,-0.089 1.955,1.955 0 0 1 -0.346,-0.227 v 0.039 l 0.001,0.163 v 0.091 H 152.86 V 69.33 l 10e-4,-0.313 0.003,-0.372 -0.003,-0.577 h 0.385 c 0.172,0 0.3,0.005 0.389,0.014 a 0.82,0.82 0 0 1 0.224,0.053 c 0.1,0.042 0.179,0.111 0.238,0.209 a 0.52,0.52 0 0 1 -0.009,0.575 0.51,0.51 0 0 1 -0.432,0.239 z m -0.091,-0.059 h 0.046 a 0.51,0.51 0 0 0 0.331,-0.11 0.445,0.445 0 0 0 0.132,-0.173 0.464,0.464 0 0 0 -0.275,-0.636 1.242,1.242 0 0 0 -0.351,-0.044 l -0.01,0.639 v 0.174 l 0.001,0.044 c 0.04,0.039 0.082,0.073 0.126,0.106 z m 1.373,0.04 v 0.234 h -0.582 l 0.001,-0.059 0.005,-0.672 -0.004,-0.318 v -0.217 l -0.002,-0.039 h 0.437 c 0.176,0 0.313,0.008 0.404,0.023 a 0.526,0.526 0 0 1 0.478,0.528 0.543,0.543 0 0 1 -0.261,0.46 0.582,0.582 0 0 1 -0.299,0.074 1.27,1.27 0 0 1 -0.179,-0.017 z m 0,-1.005 v 0.064 l -0.003,0.639 0.003,0.237 c 0.05,0.013 0.116,0.02 0.196,0.02 a 0.492,0.492 0 0 0 0.205,-0.042 0.438,0.438 0 0 0 0.163,-0.121 0.46,0.46 0 0 0 10e-4,-0.611 0.46,0.46 0 0 0 -0.207,-0.141 1.03,1.03 0 0 0 -0.326,-0.043 h -0.03 z m 2.234,-0.109 0.207,0.711 0.095,0.315 0.085,0.285 0.012,0.037 h -0.582 l -0.183,-0.675 -0.394,0.594 -0.404,-0.564 a 9.708,9.708 0 0 0 -0.127,0.506 0.631,0.631 0 0 1 -0.036,0.135 c -0.008,0.014 -0.022,0.022 -0.044,0.022 -0.028,0 -0.041,-0.01 -0.041,-0.029 0,-0.007 0.009,-0.038 0.026,-0.097 l 0.059,-0.204 0.104,-0.352 0.202,-0.686 0.523,0.759 z m -33.621,1.852 c 0.048,-0.048 0.121,-0.072 0.219,-0.072 0.106,0 0.185,0.028 0.239,0.082 a 0.231,0.231 0 0 1 0.072,0.17 h -0.117 a 0.136,0.136 0 0 0 -0.042,-0.102 c -0.031,-0.031 -0.078,-0.046 -0.144,-0.046 -0.07,0 -0.12,0.014 -0.148,0.042 a 0.114,0.114 0 0 0 -0.037,0.082 c 0,0.031 0.008,0.052 0.02,0.067 a 0.291,0.291 0 0 0 0.093,0.051 c 0.078,0.034 0.167,0.072 0.265,0.117 0.027,0.01 0.052,0.027 0.076,0.051 a 0.183,0.183 0 0 1 0.055,0.132 0.236,0.236 0 0 1 -0.072,0.174 c -0.05,0.05 -0.134,0.076 -0.249,0.076 a 0.356,0.356 0 0 1 -0.26,-0.091 0.271,0.271 0 0 1 -0.067,-0.194 h 0.117 c 0,0.061 0.013,0.104 0.041,0.132 0.038,0.038 0.095,0.057 0.174,0.057 0.072,0 0.124,-0.018 0.158,-0.051 0.027,-0.029 0.041,-0.055 0.041,-0.082 a 0.103,0.103 0 0 0 -0.031,-0.076 0.258,0.258 0 0 0 -0.082,-0.051 1.977,1.977 0 0 0 -0.132,-0.062 l -0.149,-0.067 a 0.198,0.198 0 0 1 -0.07,-0.046 0.16,0.16 0 0 1 -0.046,-0.122 0.23,0.23 0 0 1 0.072,-0.17 z m 0.652,-0.061 h 0.698 v 0.097 h -0.29 v 0.775 h -0.117 v -0.775 h -0.29 v -0.097 z m 0.82,0 h 0.56 v 0.097 h -0.444 v 0.27 h 0.413 v 0.097 h -0.413 v 0.311 h 0.47 v 0.096 h -0.586 z m 0.761,-0.005 h 0.427 c 0.068,0 0.124,0.022 0.168,0.067 a 0.25,0.25 0 0 1 0.067,0.183 c 0,0.08 -0.022,0.141 -0.067,0.184 a 0.18,0.18 0 0 1 -0.102,0.046 l 0.2,0.393 h -0.127 l -0.184,-0.377 h -0.265 v 0.377 h -0.117 v -0.873 h -0.001 z m 0.116,0.096 v 0.3 h 0.3 a 0.122,0.122 0 0 0 0.087,-0.035 c 0.023,-0.024 0.036,-0.061 0.036,-0.112 0,-0.048 -0.013,-0.085 -0.041,-0.112 a 0.13,0.13 0 0 0 -0.097,-0.041 z m 0.677,-0.091 h 0.561 v 0.097 h -0.445 v 0.27 h 0.413 v 0.097 h -0.413 v 0.311 h 0.47 v 0.096 h -0.586 z m 0.852,0.097 a 0.352,0.352 0 0 1 0.26,-0.107 0.35,0.35 0 0 1 0.259,0.107 c 0.082,0.082 0.123,0.194 0.123,0.337 0,0.143 -0.041,0.256 -0.123,0.337 a 0.354,0.354 0 0 1 -0.259,0.106 0.358,0.358 0 0 1 -0.26,-0.106 c -0.082,-0.082 -0.123,-0.194 -0.123,-0.337 0,-0.143 0.041,-0.255 0.123,-0.337 z m 0.086,0.066 c -0.059,0.059 -0.087,0.149 -0.087,0.27 0,0.123 0.029,0.212 0.087,0.27 a 0.24,0.24 0 0 0 0.174,0.076 0.245,0.245 0 0 0 0.175,-0.076 c 0.059,-0.059 0.087,-0.148 0.087,-0.27 0,-0.122 -0.028,-0.211 -0.086,-0.27 a 0.24,0.24 0 0 0 -0.174,-0.076 0.239,0.239 0 0 0 -0.173,0.076 z m -11.124,-1.296 c 0.02,0 0.043,0.015 0.072,0.047 a 0.974,0.974 0 0 0 0.684,0.313 c 0.133,0 0.202,-0.041 0.202,-0.123 a 0.314,0.314 0 0 0 -0.068,-0.176 5.319,5.319 0 0 0 -0.339,-0.386 4.557,4.557 0 0 1 -0.45,-0.541 0.84,0.84 0 0 1 -0.149,-0.444 c 0,-0.211 0.095,-0.385 0.285,-0.519 0.186,-0.132 0.415,-0.198 0.686,-0.198 0.19,0 0.365,0.039 0.524,0.115 0.06,0.03 0.111,0.065 0.153,0.104 0.044,0.039 0.065,0.072 0.065,0.098 0,0.013 -0.007,0.024 -0.017,0.035 -0.014,0.01 -0.026,0.016 -0.039,0.016 -0.02,0 -0.047,-0.018 -0.086,-0.053 a 0.738,0.738 0 0 0 -0.245,-0.146 0.813,0.813 0 0 0 -0.292,-0.059 0.242,0.242 0 0 0 -0.141,0.038 0.107,0.107 0 0 0 -0.055,0.096 0.34,0.34 0 0 0 0.068,0.173 c 0.042,0.068 0.121,0.159 0.228,0.271 0.339,0.361 0.545,0.603 0.621,0.729 a 0.76,0.76 0 0 1 0.119,0.383 0.56,0.56 0 0 1 -0.085,0.297 0.656,0.656 0 0 1 -0.235,0.23 c -0.19,0.115 -0.421,0.171 -0.698,0.171 a 1.15,1.15 0 0 1 -0.667,-0.196 c -0.134,-0.094 -0.204,-0.165 -0.204,-0.217 0,-0.013 0.008,-0.028 0.018,-0.041 a 0.05,0.05 0 0 1 0.04,-0.02 z m 3.024,-1.485 v 0.05 l -0.004,0.269 -0.003,0.417 -0.005,0.637 0.007,0.357 0.004,0.157 h -0.887 l 0.01,-0.637 0.005,-0.561 -0.004,-0.296 -0.007,-0.327 0.003,-0.065 z m -0.448,-0.604 c 0.303,0 0.455,0.08 0.455,0.238 0,0.077 -0.041,0.137 -0.122,0.181 a 0.723,0.723 0 0 1 -0.339,0.065 c -0.287,0 -0.433,-0.082 -0.433,-0.246 0.003,-0.157 0.15,-0.235 0.439,-0.238 z m 3.094,0.133 -0.003,0.845 -0.003,0.598 0.005,0.838 v 0.078 h -0.883 V 68.86 a 0.972,0.972 0 0 1 -0.274,0.202 0.715,0.715 0 0 1 -0.3,0.062 0.826,0.826 0 0 1 -0.585,-0.243 0.994,0.994 0 0 1 -0.314,-0.758 c 0,-0.297 0.101,-0.538 0.307,-0.724 a 0.892,0.892 0 0 1 0.612,-0.247 c 0.098,0 0.197,0.02 0.29,0.057 0.095,0.038 0.183,0.095 0.274,0.171 l -0.01,-0.652 h 0.885 z m -0.876,0.794 a 1.336,1.336 0 0 0 -0.243,-0.183 0.388,0.388 0 0 0 -0.189,-0.061 c -0.044,0 -0.074,0.016 -0.091,0.048 a 0.522,0.522 0 0 0 -0.022,0.179 l 0.002,0.076 v 1.161 c 0.001,0.094 0.005,0.15 0.013,0.174 0.014,0.05 0.046,0.075 0.098,0.075 a 0.324,0.324 0 0 0 0.183,-0.065 c 0.065,-0.044 0.15,-0.117 0.25,-0.226 z m 1.967,0.676 v 0.535 c 0,0.102 0.007,0.17 0.02,0.196 0.023,0.053 0.08,0.08 0.17,0.08 a 0.798,0.798 0 0 0 0.395,-0.11 c 0.13,-0.073 0.244,-0.175 0.34,-0.303 0.033,-0.042 0.053,-0.069 0.068,-0.082 a 0.066,0.066 0 0 1 0.046,-0.017 0.06,0.06 0 0 1 0.046,0.02 0.08,0.08 0 0 1 0.02,0.055 c 0,0.048 -0.039,0.114 -0.117,0.196 -0.1,0.104 -0.226,0.189 -0.377,0.256 a 1.1,1.1 0 0 1 -0.44,0.098 0.952,0.952 0 0 1 -0.649,-0.247 0.952,0.952 0 0 1 -0.253,-0.359 0.956,0.956 0 0 1 -0.01,-0.733 0.987,0.987 0 0 1 0.189,-0.312 0.979,0.979 0 0 1 1.309,-0.133 c 0.269,0.196 0.402,0.479 0.4,0.851 h -0.401 l -0.519,10e-4 -0.235,0.005 z m 0.442,-0.115 V 67.58 a 3.024,3.024 0 0 0 -0.008,-0.194 0.101,0.101 0 0 0 -0.023,-0.059 c -0.033,-0.046 -0.098,-0.068 -0.197,-0.068 -0.101,0 -0.164,0.026 -0.189,0.078 -0.016,0.031 -0.025,0.112 -0.025,0.243 v 0.502 l 0.21,0.008 0.232,-0.007 z m 3.096,-1.497 1.38,2.5 h -1.198 l -0.167,-0.315 h -0.581 l -0.507,-0.003 -0.088,-10e-4 -0.113,0.211 a 0.945,0.945 0 0 1 -0.068,0.119 0.06,0.06 0 0 1 -0.05,0.023 c -0.041,0 -0.059,-0.016 -0.059,-0.052 0,-0.013 0.012,-0.042 0.033,-0.083 l 0.236,-0.403 1.046,-1.761 0.135,-0.233 z m -0.537,1.135 -0.302,0.507 -0.241,0.417 0.515,0.007 0.517,-0.007 z"
       id="path100"
       inkscape:connector-curvature="0"
       style="fill:#ffffff" />
    <circle
       cx="136.55901"
       cy="68.042"
       r="22.187"
       id="circle102"
       style="fill:none;stroke:#59accc;stroke-width:0.32600001" />
    <path
       d="m 136.214,61.234 a 6.6350002,6.6350002 0 1 0 0.003,13.27 6.6350002,6.6350002 0 0 0 -0.003,-13.27 z m 0.002,8.572 a 1.936,1.936 0 1 1 0,-3.872 1.937,1.937 0 0 1 0,3.872 z"
       id="path104"
       inkscape:connector-curvature="0"
       style="fill:#1f5ea4;stroke:#59accc;stroke-width:0.32600001" />
  </g>
  <g
     id="g211">
    <path
       d="M 247.182,85.167 H 231.51 c 0,0 -0.67,0.039 -0.67,-0.897 v 0.63 c 0,0.936 0.67,0.896 0.67,0.896 h 15.672 c 0.585,-0.039 0.663,-0.478 0.663,-0.478 v -0.63 c 0,0 -0.078,0.44 -0.663,0.479 z"
       id="path108"
       inkscape:connector-curvature="0"
       style="fill:#373737" />
    <linearGradient
       id="i"
       gradientUnits="userSpaceOnUse"
       x1="149.492"
       y1="181.661"
       x2="149.492"
       y2="198.666"
       gradientTransform="rotate(-90,137.91,88.731)">
      <stop
         offset="0"
         stop-color="#87888c"
         id="stop110" />
      <stop
         offset=".079"
         stop-color="#969eaf"
         id="stop112" />
      <stop
         offset=".096"
         stop-color="#828793"
         id="stop114" />
      <stop
         offset=".126"
         stop-color="#656970"
         id="stop116" />
      <stop
         offset=".159"
         stop-color="#515457"
         id="stop118" />
      <stop
         offset=".196"
         stop-color="#434545"
         id="stop120" />
      <stop
         offset=".239"
         stop-color="#3a3b3a"
         id="stop122" />
      <stop
         offset=".293"
         stop-color="#343634"
         id="stop124" />
      <stop
         offset=".394"
         stop-color="#323433"
         id="stop126" />
      <stop
         offset=".596"
         stop-color="#353635"
         id="stop128" />
      <stop
         offset=".672"
         stop-color="#323232"
         id="stop130" />
      <stop
         offset=".788"
         stop-color="#2c292a"
         id="stop132" />
      <stop
         offset=".892"
         stop-color="#231c20"
         id="stop134" />
      <stop
         offset=".98"
         stop-color="#2f2c2f"
         id="stop136" />
    </linearGradient>
    <path
       d="m 230.84,71.434 c 0,0 0.358,-0.834 0.865,-1.223 0,0 7.017,-2.378 15.204,-0.078 0,0 0.702,0.663 0.936,1.364 v 13.191 c 0,0 -0.078,0.439 -0.663,0.478 H 231.51 c 0,0 -0.67,0.039 -0.67,-0.897 z"
       id="path139"
       inkscape:connector-curvature="0"
       style="fill:url(#i)" />
    <g
       id="g209">
      <linearGradient
         id="j"
         gradientUnits="userSpaceOnUse"
         x1="132.235"
         y1="184.2"
         x2="132.235"
         y2="196.127"
         gradientTransform="rotate(-90,137.91,88.731)">
        <stop
           offset="0"
           stop-color="#b2b3b0"
           id="stop141" />
        <stop
           offset=".079"
           stop-color="#fefdee"
           id="stop143" />
        <stop
           offset=".081"
           stop-color="#fdfded"
           id="stop145" />
        <stop
           offset=".13"
           stop-color="#f0ece1"
           id="stop147" />
        <stop
           offset=".187"
           stop-color="#e5dfd7"
           id="stop149" />
        <stop
           offset=".259"
           stop-color="#dfd8d2"
           id="stop151" />
        <stop
           offset=".394"
           stop-color="#ddd5d0"
           id="stop153" />
        <stop
           offset=".596"
           stop-color="#cac3bf"
           id="stop155" />
        <stop
           offset=".84"
           stop-color="#d0c9c6"
           id="stop157" />
        <stop
           offset=".892"
           stop-color="#d2cbc8"
           id="stop159" />
        <stop
           offset=".98"
           stop-color="#7a7575"
           id="stop161" />
      </linearGradient>
      <path
         d="m 245.096,88.488 c 0.115,0 0.21,0.095 0.21,0.21 v 11.415 a 0.21,0.21 0 0 1 -0.21,0.21 h -11.508 a 0.21,0.21 0 0 1 -0.21,-0.21 V 88.698 a 0.21,0.21 0 0 1 0.21,-0.21 z"
         id="path164"
         inkscape:connector-curvature="0"
         style="fill:url(#j)" />
      <path
         stroke-miterlimit="10"
         d="m 239.373,88.488 v 1.739 h -1.176 v 2.029 h 1.176 v 4.305 h -1.176 v 1.994 h 1.145 l 0.031,1.768"
         id="path166"
         inkscape:connector-curvature="0"
         style="fill:none;stroke:#817c7c;stroke-width:0.105;stroke-miterlimit:10" />
      <linearGradient
         id="k"
         gradientUnits="userSpaceOnUse"
         x1="108.986"
         y1="181.668"
         x2="108.986"
         y2="198.72099"
         gradientTransform="rotate(-90,137.91,88.731)">
        <stop
           offset="0"
           stop-color="#87888c"
           id="stop168" />
        <stop
           offset=".079"
           stop-color="#969eaf"
           id="stop170" />
        <stop
           offset=".096"
           stop-color="#828793"
           id="stop172" />
        <stop
           offset=".126"
           stop-color="#656970"
           id="stop174" />
        <stop
           offset=".159"
           stop-color="#515457"
           id="stop176" />
        <stop
           offset=".196"
           stop-color="#434545"
           id="stop178" />
        <stop
           offset=".239"
           stop-color="#3a3b3a"
           id="stop180" />
        <stop
           offset=".293"
           stop-color="#343634"
           id="stop182" />
        <stop
           offset=".394"
           stop-color="#323433"
           id="stop184" />
        <stop
           offset=".596"
           stop-color="#353635"
           id="stop186" />
        <stop
           offset=".672"
           stop-color="#323232"
           id="stop188" />
        <stop
           offset=".788"
           stop-color="#2c292a"
           id="stop190" />
        <stop
           offset=".892"
           stop-color="#231c20"
           id="stop192" />
        <stop
           offset=".98"
           stop-color="#2f2c2f"
           id="stop194" />
      </linearGradient>
      <path
         d="M 230.851,133.353 V 99.99 c 0,0 -0.072,-0.42 0.365,-0.42 h 16.237 c 0,0 0.447,-0.008 0.447,0.537 v 33.246 c 0,0 -0.667,1.184 -1.155,1.334 0,0 -6.874,2.366 -14.912,0 -0.001,0 -0.537,-0.302 -0.982,-1.334 z"
         id="path197"
         inkscape:connector-curvature="0"
         style="fill:url(#k)" />
      <path
         d="m 237.533,92.504 c 0.058,0 0.105,0.047 0.105,0.105 v 1.975 a 0.105,0.105 0 0 1 -0.105,0.105 h -2.42 a 0.105,0.105 0 0 1 -0.105,-0.105 v -1.975 c 0,-0.058 0.047,-0.105 0.105,-0.105 z"
         id="path199"
         inkscape:connector-curvature="0"
         style="fill:#070308" />
      <path
         d="m 235.228,94.27 c 0,0.058 0.047,0.105 0.105,0.105 h 2.305 v -1.766 a 0.105,0.105 0 0 0 -0.105,-0.105 h -2.305 z"
         id="path201"
         inkscape:connector-curvature="0"
         style="fill:#363536" />
      <path
         d="m 243.57,92.504 c 0.058,0 0.105,0.047 0.105,0.105 v 1.975 a 0.105,0.105 0 0 1 -0.105,0.105 h -2.42 a 0.105,0.105 0 0 1 -0.105,-0.105 v -1.975 c 0,-0.058 0.047,-0.105 0.105,-0.105 z"
         id="path203"
         inkscape:connector-curvature="0"
         style="fill:#070308" />
      <path
         d="m 241.266,94.27 c 0,0.058 0.047,0.105 0.105,0.105 h 2.305 v -1.766 a 0.105,0.105 0 0 0 -0.105,-0.105 h -2.305 z"
         id="path205"
         inkscape:connector-curvature="0"
         style="fill:#363536" />
      <path
         d="m 239.434,104.67 -1.342,2.382 h 0.953 v 6.699 c -1.109,-0.038 -1.382,-0.697 -1.382,-0.697 -0.312,-0.696 -0.299,-1.505 -0.276,-1.841 a 1.237,1.237 0 1 0 -0.786,0.023 5.951,5.951 0 0 0 0.157,1.699 c 0.296,1.366 1.653,1.577 2.287,1.6 v 1.914 a 1.236,1.236 0 0 0 0.39,2.41 1.237,1.237 0 0 0 0.397,-2.408 v -3.189 c 2.52,-0.114 2.43,-2.317 2.43,-2.317 v -1.203 h 0.667 v -2.025 h -2.025 v 2.025 h 0.572 v 1.167 c -0.02,1.401 -1.251,1.574 -1.644,1.594 v -5.453 h 1.072 z"
         id="path207"
         inkscape:connector-curvature="0"
         style="fill:#5a605f" />
    </g>
  </g>
</svg>
