<svg xmlns="http://www.w3.org/2000/svg" viewBox="0 0 247.9 135.739"><path d="M114.91 20.826C102.34 8.257 85.628 1.335 67.853 1.335S33.365 8.257 20.797 20.826C8.227 33.396 1.305 50.108 1.305 67.883c0 17.777 6.922 34.489 19.492 47.058 12.57 12.57 29.281 19.492 47.056 19.492s34.487-6.921 47.056-19.49c12.55-12.55 19.462-29.263 19.462-47.059 0-17.795-6.912-34.507-19.461-47.058zM67.509 69.648a1.935 1.935 0 11-.002-3.87 1.935 1.935 0 01.002 3.87z" fill="#333"/><path d="M67.853 2.639c17.427 0 33.811 6.787 46.135 19.11 25.439 25.439 25.439 66.831 0 92.27-12.324 12.322-28.707 19.109-46.135 19.109s-33.812-6.786-46.135-19.11C9.396 101.695 2.609 85.311 2.609 67.883s6.786-33.81 19.11-46.133C34.042 9.426 50.426 2.639 67.853 2.639m0-2.609c-18.125 0-35.164 7.058-47.98 19.875C7.058 32.72 0 49.759 0 67.883c0 18.125 7.058 35.165 19.873 47.98 12.816 12.816 29.855 19.875 47.98 19.875 18.123 0 35.162-7.058 47.979-19.874 12.796-12.796 19.844-29.836 19.844-47.981 0-18.143-7.048-35.183-19.844-47.979C103.016 7.089 85.977.03 67.853.03z" fill="#070308"/><radialGradient id="a" cx="841.614" cy="547.34" r="64.025" gradientTransform="rotate(45 1128.724 -588.03)" gradientUnits="userSpaceOnUse"><stop offset=".55" stop-color="#070308"/><stop offset="1" stop-color="#070308" stop-opacity="0"/></radialGradient><path d="M113.977 21.588c-25.472-25.474-66.773-25.474-92.247 0l92.247 92.247c25.474-25.474 25.474-66.773 0-92.247z" fill="url(#a)"/><radialGradient id="b" cx="841.613" cy="595.102" r="64.026" gradientTransform="scale(1 -1) rotate(-45 -440 1237.734)" gradientUnits="userSpaceOnUse"><stop offset=".55" stop-color="#070308"/><stop offset="1" stop-color="#070308" stop-opacity="0"/></radialGradient><path d="M21.73 113.837c-25.475-25.474-25.474-66.775 0-92.248l92.247 92.247c-25.473 25.474-66.774 25.474-92.247.001z" fill="url(#b)"/><circle cx="67.853" cy="67.884" r="58" fill="none" stroke="#070308" stroke-width=".326"/><circle cx="67.853" cy="67.884" r="52.333" fill="none" stroke="#070308" stroke-width=".326"/><circle cx="67.853" cy="67.884" r="42.95" fill="none" stroke="#070308" stroke-width=".326"/><circle cx="67.853" cy="67.884" r="36.033" fill="none" stroke="#070308" stroke-width=".326"/><path d="M67.853 37.015c-17.048 0-30.869 13.821-30.869 30.869 0 17.049 13.821 30.869 30.869 30.869s30.869-13.821 30.869-30.869-13.82-30.869-30.869-30.869zm-.344 32.633a1.935 1.935 0 11-.002-3.87 1.935 1.935 0 01.002 3.87z" fill="#070308"/><linearGradient id="c" gradientUnits="userSpaceOnUse" x1="108.147" y1="882.21" x2="139.492" y2="850.865" gradientTransform="translate(-55.96 -798.66)"><stop offset="0" stop-color="#fff" stop-opacity="0"/><stop offset=".429" stop-color="#fff" stop-opacity=".214"/><stop offset=".5" stop-color="#fff" stop-opacity=".25"/><stop offset=".572" stop-color="#fff" stop-opacity=".214"/><stop offset="1" stop-color="#fff" stop-opacity="0"/></linearGradient><path d="M40.119 8.792c-6.402 3.01-12.323 7.084-17.551 12.129l-1.678 1.678A65.225 65.225 0 008.77 40.131l86.834 86.836a65.232 65.232 0 0017.496-12.082l1.717-1.717a64.932 64.932 0 0012.103-17.571L40.119 8.792zm27.39 60.856a1.935 1.935 0 11-.002-3.87 1.935 1.935 0 01.002 3.87z" fill="url(#c)"/><radialGradient id="d" cx="67.853" cy="647.631" r="24.652" gradientTransform="matrix(1 0 0 -1 0 715.515)" gradientUnits="userSpaceOnUse"><stop offset="0" stop-color="#c23435"/><stop offset="1" stop-color="#b32215"/></radialGradient><path d="M67.853 43.233c-13.615 0-24.652 11.037-24.652 24.651s11.037 24.652 24.652 24.652 24.652-11.037 24.652-24.652-11.036-24.651-24.652-24.651zm-.344 26.415a1.935 1.935 0 11-.002-3.87 1.935 1.935 0 01.002 3.87z" fill="url(#d)" stroke="#070308" stroke-width=".326"/><path d="M76.647 66.669c-.309-.003-.543.085-.703.264-.055.057-.098.086-.132.086a.06.06 0 01-.05-.027.096.096 0 01-.022-.064c0-.048.052-.107.155-.176.21-.142.493-.212.848-.212.267 0 .488.05.664.15a.566.566 0 01.302.506.494.494 0 01-.217.425c-.134.096-.3.157-.497.179-.104.012-.171.02-.199.026l.316.044c.237.029.422.104.556.228a.513.513 0 01.172.398.628.628 0 01-.163.423c-.212.245-.561.367-1.048.367-.371 0-.665-.073-.883-.22-.144-.095-.215-.185-.215-.269 0-.022.007-.04.023-.054a.085.085 0 01.057-.022c.028 0 .049.007.063.021a.58.58 0 01.068.103.454.454 0 00.224.191c.183.083.381.124.596.124l.087-.001v-1.275h-.288a.401.401 0 01-.119-.01c-.016-.007-.024-.025-.024-.052 0-.031.008-.05.025-.059a.391.391 0 01.121-.011h.287l-.001-1.083h-.003zm2.53 0c-.308-.003-.541.085-.703.264-.055.057-.098.086-.132.086a.064.064 0 01-.05-.027.096.096 0 01-.022-.064c0-.048.052-.107.155-.176.21-.142.493-.212.848-.212.267 0 .488.05.664.15a.566.566 0 01.302.506.497.497 0 01-.215.425c-.134.096-.3.157-.498.179-.104.012-.171.02-.199.026l.315.044c.237.029.422.104.556.228a.513.513 0 01.172.398.629.629 0 01-.164.423c-.211.245-.561.367-1.047.367-.37 0-.665-.073-.883-.22-.145-.095-.217-.185-.217-.269 0-.022.008-.04.023-.054a.085.085 0 01.057-.022c.029 0 .05.007.064.021a.564.564 0 01.068.103.454.454 0 00.224.191c.183.083.381.124.596.124l.086-.001v-1.275h-.288a.392.392 0 01-.119-.01c-.016-.007-.024-.025-.024-.052 0-.031.008-.05.024-.059a.391.391 0 01.121-.011h.287l-.001-1.083zm2.33-.083l-.008.545.008.748v.031h-.551v-.031l.008-.76v-.322l-.018.007-.138.042a.107.107 0 01-.037.008c-.02 0-.029-.011-.029-.033 0-.016.005-.026.014-.033.01-.007.039-.014.087-.026l.239-.063.091-.024.334-.089zm1.145-.287a.085.085 0 01.061.02c.016.015.026.033.026.051a.468.468 0 01-.044.114l-.299.631-.771 1.628-.21.444a3.444 3.444 0 00-.072.16c-.033.082-.072.123-.116.123a.076.076 0 01-.052-.021.06.06 0 01-.023-.048c0-.02.015-.06.046-.123l.074-.16.602-1.264.376-.797.176-.369c.097-.21.152-.327.166-.352.015-.023.034-.036.06-.037zm.199 1.644c-.155-.002-.271.042-.352.132-.027.029-.049.043-.065.043-.01 0-.018-.004-.026-.013a.052.052 0 01-.011-.033c0-.023.026-.052.077-.087a.76.76 0 01.424-.106c.133 0 .244.025.333.074a.284.284 0 01.15.253.248.248 0 01-.108.213.53.53 0 01-.248.09c-.052.007-.086.01-.1.013l.158.022a.485.485 0 01.278.114.26.26 0 01.087.2.31.31 0 01-.083.211c-.106.122-.28.183-.524.183-.185 0-.333-.037-.441-.11-.072-.048-.108-.093-.108-.135 0-.012.004-.02.013-.028a.037.037 0 01.027-.011c.013 0 .024.003.031.011a.386.386 0 01.035.051c.022.04.059.072.112.095a.697.697 0 00.297.063h.043v-.638h-.145a.182.182 0 01-.06-.005c-.008-.004-.013-.013-.013-.026 0-.016.005-.026.013-.03a.232.232 0 01.061-.005h.145v-.541zM84.934 69a1.11 1.11 0 00.426.177c.02.004.029.013.029.029 0 .02-.013.031-.043.031a.689.689 0 01-.282-.089 1.955 1.955 0 01-.346-.227v.039l.001.163v.091h-.583v-.042l.001-.313.003-.372-.002-.577h.385c.172 0 .301.005.389.014a.81.81 0 01.224.053.49.49 0 01.239.209.528.528 0 01-.009.575.51.51 0 01-.432.239zm-.091-.059h.046a.52.52 0 00.333-.11.44.44 0 00.13-.173.456.456 0 00-.065-.492.453.453 0 00-.209-.144 1.237 1.237 0 00-.351-.044l-.009.639v.174l.001.044c.039.038.081.073.124.106zm1.374.04v.234h-.582v-.059l.005-.672-.004-.318v-.216l-.002-.039h.437c.176 0 .313.008.404.023.093.014.17.042.232.082a.524.524 0 01.248.446.543.543 0 01-.261.46.58.58 0 01-.299.074c-.041 0-.102-.005-.179-.017l.001.002zm0-1.004v.064l-.003.639.002.237c.05.013.116.02.196.02.072 0 .14-.013.205-.042a.438.438 0 00.163-.121.464.464 0 00.002-.611.46.46 0 00-.207-.141 1.032 1.032 0 00-.327-.043h-.029v-.002zm2.233-.111l.207.711.095.316.085.285.012.037h-.581l-.183-.676-.395.594-.404-.564c-.039.137-.082.307-.128.507a.766.766 0 01-.036.135c-.007.014-.022.022-.044.022-.028 0-.042-.01-.042-.029 0-.007.008-.039.026-.097l.059-.204.104-.351.202-.687.522.759.5-.759.001.001zM54.829 69.719c.048-.048.121-.072.219-.072.104 0 .185.028.239.082a.231.231 0 01.072.17h-.117a.136.136 0 00-.042-.102c-.031-.031-.078-.046-.144-.046-.07 0-.12.014-.147.042a.113.113 0 00-.036.082c0 .031.008.052.021.067a.3.3 0 00.091.051c.078.034.167.072.265.117.026.01.052.027.076.051a.18.18 0 01.056.132.236.236 0 01-.072.174c-.05.05-.134.076-.249.076a.356.356 0 01-.26-.091c-.044-.044-.067-.111-.067-.194h.117c0 .061.013.104.041.132.038.038.095.057.174.057.07 0 .124-.018.157-.051.028-.029.042-.055.042-.082a.1.1 0 00-.031-.076.258.258 0 00-.082-.051 1.764 1.764 0 00-.132-.062l-.149-.067a.227.227 0 01-.072-.046.164.164 0 01-.046-.122.243.243 0 01.072-.17l.004-.001zm.652-.061h.698v.097h-.29v.775h-.117v-.775h-.29v-.097zm.82 0h.561v.097h-.444v.27h.413v.097h-.413v.311h.47v.096h-.587v-.871zm.76-.005h.428c.068 0 .124.022.17.067a.248.248 0 01.065.183c0 .08-.022.141-.065.184a.19.19 0 01-.102.046l.199.393h-.127l-.183-.377h-.266v.377h-.117v-.871l-.002-.002zm.118.097v.3h.3a.122.122 0 00.087-.035c.023-.024.035-.061.035-.112 0-.048-.013-.085-.041-.112a.126.126 0 00-.096-.041h-.285zm.677-.092h.561v.097h-.444v.27h.412v.097h-.413v.311h.47v.096h-.587l.001-.871zm.852.097a.347.347 0 01.259-.107c.102 0 .189.036.26.107.082.082.123.194.123.337s-.041.256-.123.337a.36.36 0 01-.26.106.358.358 0 01-.26-.106c-.082-.082-.124-.194-.124-.337s.042-.255.125-.337zm.085.066c-.057.059-.086.149-.086.27 0 .123.029.212.087.27.052.051.11.076.174.076s.123-.026.174-.076c.059-.059.087-.148.087-.27s-.029-.211-.087-.27c-.051-.051-.109-.076-.174-.076s-.123.025-.174.076h-.001zM47.684 68.525c.02 0 .044.015.072.047.087.095.192.17.317.227a.883.883 0 00.37.086c.134 0 .202-.041.202-.123a.311.311 0 00-.07-.176 5.319 5.319 0 00-.339-.386 4.486 4.486 0 01-.448-.541.824.824 0 01-.15-.444c0-.211.095-.385.284-.519a1.15 1.15 0 01.685-.198c.191 0 .365.039.524.115.059.03.111.065.153.104.044.039.065.072.065.098 0 .013-.007.024-.018.035-.013.01-.025.016-.037.016-.02 0-.048-.018-.086-.053a.728.728 0 00-.245-.146.84.84 0 00-.292-.059.242.242 0 00-.141.038.11.11 0 00-.055.096.34.34 0 00.068.173c.045.068.121.159.228.271.338.361.545.603.621.729.08.132.119.26.119.383a.555.555 0 01-.085.296.648.648 0 01-.235.23c-.19.115-.424.171-.698.171-.254 0-.476-.067-.669-.197-.135-.093-.202-.164-.202-.217 0-.014.007-.028.017-.04a.056.056 0 01.042-.02l.003.004zm3.024-1.485v.05l-.004.269-.003.417-.005.637.007.357.004.157h-.887l.008-.637.005-.561-.004-.296-.005-.327.002-.065.882-.001zm-.447-.604c.304 0 .457.08.457.238 0 .077-.041.137-.121.181a.724.724 0 01-.338.065c-.289 0-.434-.082-.434-.246 0-.157.146-.235.436-.238zm3.095.133l-.003.845-.002.598.005.838v.078h-.883v-.225a.945.945 0 01-.274.202.706.706 0 01-.3.062.823.823 0 01-.584-.243.995.995 0 01-.316-.757c0-.298.102-.539.307-.724a.879.879 0 01.609-.248c.1 0 .197.02.291.057a.956.956 0 01.272.171l-.007-.652h.884l.001-.002zm-.877.794a1.336 1.336 0 00-.243-.183.394.394 0 00-.19-.061c-.044 0-.073.016-.089.048a.491.491 0 00-.023.179l.002.076v1.161c0 .094.005.15.013.174.013.05.046.075.099.075a.334.334 0 00.183-.065c.064-.044.148-.117.249-.226l-.001-1.178zm1.967.676v.535c0 .102.007.17.02.196.023.053.08.08.17.08a.814.814 0 00.398-.11c.129-.073.243-.175.339-.303a.595.595 0 01.067-.082.058.058 0 01.044-.016c.02 0 .036.007.048.022.013.013.02.033.02.053 0 .048-.039.115-.115.196-.101.104-.227.19-.378.257a1.096 1.096 0 01-.439.098.953.953 0 01-.649-.248.95.95 0 01-.252-.359.955.955 0 01-.009-.732.987.987 0 01.189-.312 1 1 0 01.727-.322.96.96 0 01.579.189c.269.196.402.479.401.851h-.402l-.519.001-.236.003-.003.003zm.442-.115v-.502a5.013 5.013 0 00-.007-.194.12.12 0 00-.025-.059c-.033-.046-.098-.068-.197-.068-.101 0-.164.026-.189.078-.016.031-.025.112-.025.243v.502l.211.008.231-.007.001-.001zm3.096-1.497l1.381 2.5h-1.198l-.166-.315h-.579l-.509-.003-.087-.001-.114.211a.798.798 0 01-.069.119.061.061 0 01-.05.023c-.039 0-.059-.016-.059-.052 0-.013.011-.042.033-.083l.236-.402 1.046-1.761.135-.234v-.002zm-.537 1.135l-.302.507-.241.417.515.008.517-.008-.489-.926v.002z" fill="#fff"/><circle cx="67.853" cy="67.884" r="22.187" fill="none" stroke="#c23435" stroke-width=".326"/><path d="M67.508 61.077a6.634 6.634 0 10-.001 13.269 6.634 6.634 0 00.002-13.269h-.001zm.001 8.571a1.936 1.936 0 11.001-3.873 1.936 1.936 0 01-.001 3.873h0z" fill="#be2518" stroke="#c23435" stroke-width=".326"/><g><path d="M183.283 20.802C170.711 8.229 153.995 1.305 136.216 1.305c-17.78 0-34.496 6.925-47.068 19.497-25.953 25.953-25.953 68.181 0 94.135 12.572 12.572 29.288 19.497 47.068 19.497 17.779 0 34.495-6.924 47.067-19.497 12.553-12.553 19.468-29.268 19.468-47.068s-6.915-34.515-19.468-47.067zm-47.067 49.004a1.935 1.935 0 110-3.872 1.937 1.937 0 010 3.872z" fill="#333"/><path d="M136.216 2.609c17.431 0 33.819 6.789 46.145 19.115 25.446 25.445 25.446 66.845 0 92.291-12.326 12.326-28.714 19.115-46.145 19.115-17.432 0-33.82-6.788-46.146-19.114-25.446-25.446-25.446-66.845 0-92.289C102.395 9.4 118.783 2.609 136.216 2.609M136.215 0c-18.127 0-35.172 7.06-47.99 19.879-26.461 26.461-26.461 69.518 0 95.981 12.819 12.818 29.862 19.879 47.991 19.879 18.127 0 35.172-7.059 47.989-19.879 12.801-12.8 19.849-29.844 19.849-47.99 0-18.148-7.049-35.191-19.849-47.99C171.386 7.06 154.343.001 136.215 0z" fill="#070308"/><radialGradient id="e" cx="890.309" cy="498.867" r="64.024" gradientTransform="rotate(45 1128.724 -588.03)" gradientUnits="userSpaceOnUse"><stop offset=".55" stop-color="#070308"/><stop offset="1" stop-color="#070308" stop-opacity="0"/></radialGradient><path d="M182.683 21.746c-25.472-25.474-66.773-25.474-92.247 0l92.247 92.247c25.475-25.474 25.475-66.774 0-92.247z" fill="url(#e)"/><radialGradient id="f" cx="890.31" cy="643.575" r="64.024" gradientTransform="scale(1 -1) rotate(-45 -440 1237.734)" gradientUnits="userSpaceOnUse"><stop offset=".55" stop-color="#070308"/><stop offset="1" stop-color="#070308" stop-opacity="0"/></radialGradient><path d="M90.435 113.994c-25.474-25.474-25.472-66.775.001-92.248l92.247 92.247c-25.473 25.475-66.774 25.475-92.248.001z" fill="url(#f)"/><circle cx="136.559" cy="68.042" r="58" fill="none" stroke="#070308" stroke-width=".326"/><circle cx="136.559" cy="68.042" r="52.333" fill="none" stroke="#070308" stroke-width=".326"/><circle cx="136.559" cy="68.042" r="42.949" fill="none" stroke="#070308" stroke-width=".326"/><circle cx="136.559" cy="68.042" r="36.033" fill="none" stroke="#070308" stroke-width=".326"/><path d="M136.559 37.173c-17.049 0-30.869 13.821-30.869 30.869 0 17.049 13.821 30.869 30.869 30.869s30.869-13.821 30.869-30.869-13.82-30.869-30.869-30.869zm-.343 32.633a1.935 1.935 0 110-3.872 1.937 1.937 0 010 3.872z" fill="#070308"/><linearGradient id="g" gradientUnits="userSpaceOnUse" x1="176.83" y1="882.393" x2="208.207" y2="851.015" gradientTransform="translate(-55.96 -798.66)"><stop offset="0" stop-color="#221e1f" stop-opacity="0"/><stop offset=".5" stop-color="#fff" stop-opacity=".25"/><stop offset="1" stop-color="#221e1f" stop-opacity="0"/></linearGradient><path d="M108.824 8.933a65.191 65.191 0 00-17.038 11.634l-2.702 2.704a64.895 64.895 0 00-11.609 17.061l86.817 86.821a65.142 65.142 0 0017.036-11.63l2.712-2.711a64.91 64.91 0 0011.604-17.055l-86.82-86.824zm27.392 60.872a1.935 1.935 0 110-3.871 1.936 1.936 0 110 3.871z" fill="url(#g)"/><radialGradient id="h" cx="136.56" cy="647.473" r="24.652" gradientTransform="matrix(1 0 0 -1 0 715.515)" gradientUnits="userSpaceOnUse"><stop offset="0" stop-color="#309dcd"/><stop offset="1" stop-color="#186aac"/></radialGradient><path d="M136.559 43.39c-13.615 0-24.652 11.037-24.652 24.651s11.037 24.652 24.652 24.652 24.652-11.037 24.652-24.652-11.036-24.651-24.652-24.651zm-.343 26.416a1.935 1.935 0 110-3.872 1.937 1.937 0 010 3.872z" fill="url(#h)" stroke="#070308" stroke-width=".326"/><path d="M145.369 66.829c-.309-.004-.543.085-.703.264-.055.057-.098.086-.13.086a.064.064 0 01-.052-.027.107.107 0 01-.021-.064c0-.048.051-.107.154-.176.21-.142.493-.212.848-.212.267 0 .489.05.665.15a.573.573 0 01.224.212.572.572 0 01.078.294.494.494 0 01-.217.425c-.133.097-.3.157-.497.179-.104.012-.171.02-.199.026l.315.044c.237.029.422.104.556.228a.511.511 0 01.174.398.633.633 0 01-.164.424c-.211.244-.56.367-1.046.367-.37 0-.665-.073-.883-.22-.145-.095-.215-.185-.215-.269 0-.022.007-.039.023-.054a.082.082 0 01.057-.022c.028 0 .049.008.064.021a.6.6 0 01.068.102.45.45 0 00.224.191c.183.085.381.126.596.126l.086-.002v-1.275h-.289a.397.397 0 01-.119-.01c-.016-.007-.023-.025-.023-.052 0-.031.008-.05.023-.059a.4.4 0 01.122-.011h.287l-.003-1.083-.003-.001zm2.531 0c-.309-.004-.543.085-.703.264-.055.057-.098.086-.13.086a.064.064 0 01-.052-.027.107.107 0 01-.021-.064c0-.048.052-.107.154-.176.211-.142.494-.212.85-.212.265 0 .487.05.663.15a.566.566 0 01.302.506.497.497 0 01-.215.425c-.134.097-.3.157-.498.179-.104.012-.171.02-.199.026l.315.044c.236.029.421.104.556.228a.514.514 0 01.173.398.633.633 0 01-.164.424c-.211.244-.56.367-1.046.367-.372 0-.667-.073-.884-.22-.143-.095-.215-.185-.215-.269 0-.022.007-.039.023-.054a.08.08 0 01.057-.022c.028 0 .049.008.064.021a.6.6 0 01.068.102.45.45 0 00.223.191c.183.085.381.126.596.126l.087-.002v-1.275h-.29a.397.397 0 01-.119-.01c-.016-.007-.024-.025-.024-.052 0-.031.008-.05.024-.059a.387.387 0 01.121-.011h.287v-1.084h-.003zm2.329-.085l-.008.545.008.748v.031h-.551v-.031l.008-.76.001-.28v-.04l-.02.007-.137.042a.112.112 0 01-.037.008c-.02 0-.029-.011-.029-.033 0-.016.005-.026.014-.033.01-.007.039-.014.087-.026l.239-.063.091-.025.333-.091.001.001zm1.144-.287a.088.088 0 01.062.02.071.071 0 01.025.051.467.467 0 01-.042.114c-.029.061-.128.272-.3.631l-.77 1.628-.211.444a2.58 2.58 0 00-.072.16c-.034.082-.07.123-.117.123a.078.078 0 01-.052-.021.066.066 0 01-.022-.048c0-.02.016-.06.046-.123l.074-.16.603-1.264.376-.797.176-.369c.097-.21.153-.327.167-.352a.062.062 0 01.057-.037zm.2 1.644c-.154-.002-.271.042-.352.132-.027.029-.049.043-.065.043-.011 0-.018-.004-.026-.013a.053.053 0 01-.012-.033c0-.023.026-.052.078-.087a.752.752 0 01.423-.106c.133 0 .244.025.333.074a.284.284 0 01.151.253.25.25 0 01-.108.213.53.53 0 01-.248.09c-.052.007-.086.01-.1.013l.157.022a.489.489 0 01.279.114.26.26 0 01.087.2.31.31 0 01-.083.211c-.106.122-.28.183-.524.183-.185 0-.333-.037-.441-.11-.072-.048-.108-.093-.108-.135 0-.012.004-.02.013-.028a.04.04 0 01.028-.011c.014 0 .024.003.031.011.008.007.018.024.035.051a.23.23 0 00.113.095c.091.042.19.063.298.063h.043v-.638h-.145a.182.182 0 01-.06-.005c-.008-.004-.013-.013-.013-.026 0-.016.005-.026.013-.03a.194.194 0 01.061-.005h.144l-.002-.541zm2.083 1.057a1.145 1.145 0 00.426.177c.02.004.03.013.03.029 0 .02-.013.031-.043.031a.698.698 0 01-.282-.089 1.955 1.955 0 01-.346-.227v.039l.001.163v.091h-.582v-.042l.001-.313.003-.372-.003-.577h.385c.172 0 .3.005.389.014a.82.82 0 01.224.053c.1.042.179.111.238.209a.52.52 0 01-.009.575.51.51 0 01-.432.239zm-.091-.059h.046a.51.51 0 00.331-.11.445.445 0 00.132-.173.464.464 0 00-.275-.636 1.242 1.242 0 00-.351-.044l-.01.639v.174l.001.044c.04.039.082.073.126.106zm1.373.04v.234h-.582l.001-.059.005-.672-.004-.318v-.217l-.002-.039h.437c.176 0 .313.008.404.023a.526.526 0 01.478.528.543.543 0 01-.261.46.582.582 0 01-.299.074 1.27 1.27 0 01-.179-.017l.002.003zm0-1.005v.064l-.003.639.003.237c.05.013.116.02.196.02a.492.492 0 00.205-.042.438.438 0 00.163-.121.46.46 0 00.001-.611.46.46 0 00-.207-.141 1.03 1.03 0 00-.326-.043h-.03l-.002-.002zm2.234-.109l.207.711.095.315.085.285.012.037h-.582l-.183-.675-.394.594-.404-.564a9.708 9.708 0 00-.127.506.631.631 0 01-.036.135c-.008.014-.022.022-.044.022-.028 0-.041-.01-.041-.029 0-.007.009-.038.026-.097l.059-.204.104-.352.202-.686.523.759.498-.757zM123.551 69.877c.048-.048.121-.072.219-.072.106 0 .185.028.239.082a.231.231 0 01.072.17h-.117a.136.136 0 00-.042-.102c-.031-.031-.078-.046-.144-.046-.07 0-.12.014-.148.042a.114.114 0 00-.037.082c0 .031.008.052.02.067a.291.291 0 00.093.051c.078.034.167.072.265.117.027.01.052.027.076.051a.183.183 0 01.055.132.236.236 0 01-.072.174c-.05.05-.134.076-.249.076a.356.356 0 01-.26-.091.271.271 0 01-.067-.194h.117c0 .061.013.104.041.132.038.038.095.057.174.057.072 0 .124-.018.158-.051.027-.029.041-.055.041-.082a.103.103 0 00-.031-.076.258.258 0 00-.082-.051 1.977 1.977 0 00-.132-.062l-.149-.067a.198.198 0 01-.07-.046.16.16 0 01-.046-.122.23.23 0 01.072-.17l.004-.001zm.652-.061h.698v.097h-.29v.775h-.117v-.775h-.29v-.097zm.82 0h.56v.097h-.444v.27h.413v.097h-.413v.311h.47v.096h-.586v-.871zm.761-.005h.427c.068 0 .124.022.168.067a.25.25 0 01.067.183c0 .08-.022.141-.067.184a.18.18 0 01-.102.046l.2.393h-.127l-.184-.377h-.265v.377h-.117v-.873h-.001.001zm.116.096v.3h.3a.122.122 0 00.087-.035c.023-.024.036-.061.036-.112 0-.048-.013-.085-.041-.112a.13.13 0 00-.097-.041h-.285zm.677-.091h.561v.097h-.445v.27h.413v.097h-.413v.311h.47v.096h-.586v-.871zm.852.097a.352.352 0 01.26-.107.35.35 0 01.259.107c.082.082.123.194.123.337s-.041.256-.123.337a.354.354 0 01-.259.106.358.358 0 01-.26-.106c-.082-.082-.123-.194-.123-.337s.041-.255.123-.337zm.086.066c-.059.059-.087.149-.087.27 0 .123.029.212.087.27a.24.24 0 00.174.076.245.245 0 00.175-.076c.059-.059.087-.148.087-.27 0-.122-.028-.211-.086-.27a.24.24 0 00-.174-.076.239.239 0 00-.173.076h-.003zM116.391 68.683c.02 0 .043.015.072.047a.974.974 0 00.684.313c.133 0 .202-.041.202-.123a.314.314 0 00-.068-.176 5.319 5.319 0 00-.339-.386 4.557 4.557 0 01-.45-.541.84.84 0 01-.149-.444c0-.211.095-.385.285-.519.186-.132.415-.198.686-.198.19 0 .365.039.524.115.06.03.111.065.153.104.044.039.065.072.065.098 0 .013-.007.024-.017.035-.014.01-.026.016-.039.016-.02 0-.047-.018-.086-.053a.738.738 0 00-.245-.146.813.813 0 00-.292-.059.242.242 0 00-.141.038.107.107 0 00-.055.096.34.34 0 00.068.173c.042.068.121.159.228.271.339.361.545.603.621.729a.76.76 0 01.119.383.56.56 0 01-.085.297.656.656 0 01-.235.23c-.19.115-.421.171-.698.171a1.15 1.15 0 01-.667-.196c-.134-.094-.204-.165-.204-.217 0-.013.008-.028.018-.041a.05.05 0 01.04-.02l.005.003zm3.024-1.485v.05l-.004.269-.003.417-.005.637.007.357.004.157h-.887l.01-.637.005-.561-.004-.296-.007-.327.003-.065.881-.001zm-.448-.604c.303 0 .455.08.455.238 0 .077-.041.137-.122.181a.723.723 0 01-.339.065c-.287 0-.433-.082-.433-.246.003-.157.15-.235.439-.238zm3.094.133l-.003.845-.003.598.005.838v.078h-.883v-.226a.972.972 0 01-.274.202.715.715 0 01-.3.062.826.826 0 01-.585-.243.994.994 0 01-.314-.758c0-.297.101-.538.307-.724a.892.892 0 01.612-.247c.098 0 .197.02.29.057.095.038.183.095.274.171l-.01-.652h.885l-.001-.001zm-.876.794a1.336 1.336 0 00-.243-.183.388.388 0 00-.189-.061c-.044 0-.074.016-.091.048a.522.522 0 00-.022.179l.002.076v1.161c.001.094.005.15.013.174.014.05.046.075.098.075a.324.324 0 00.183-.065c.065-.044.15-.117.25-.226l-.001-1.178zm1.967.676v.535c0 .102.007.17.02.196.023.053.08.08.17.08a.798.798 0 00.395-.11c.13-.073.244-.175.34-.303.033-.042.053-.069.068-.082a.066.066 0 01.046-.017.06.06 0 01.046.02.08.08 0 01.02.055c0 .048-.039.114-.117.196-.1.104-.226.189-.377.256a1.1 1.1 0 01-.44.098.952.952 0 01-.649-.247.952.952 0 01-.253-.359.956.956 0 01-.01-.733.987.987 0 01.189-.312.979.979 0 011.309-.133c.269.196.402.479.4.851h-.401l-.519.001-.235.005-.002.003zm.442-.115v-.502a3.024 3.024 0 00-.008-.194.101.101 0 00-.023-.059c-.033-.046-.098-.068-.197-.068-.101 0-.164.026-.189.078-.016.031-.025.112-.025.243v.502l.21.008.232-.007v-.001zm3.096-1.497l1.38 2.5h-1.198l-.167-.315h-.581l-.507-.003-.088-.001-.113.211a.945.945 0 01-.068.119.06.06 0 01-.05.023c-.041 0-.059-.016-.059-.052 0-.013.012-.042.033-.083l.236-.403 1.046-1.761.135-.233.001-.002zm-.537 1.135l-.302.507-.241.417.515.007.517-.007-.489-.924z" fill="#fff"/><circle cx="136.559" cy="68.042" r="22.187" fill="none" stroke="#59accc" stroke-width=".326"/><path d="M136.214 61.234a6.635 6.635 0 10.003 13.27 6.635 6.635 0 00-.003-13.27h0zm.002 8.572a1.935 1.935 0 110-3.872 1.937 1.937 0 010 3.872z" fill="#1f5ea4" stroke="#59accc" stroke-width=".326"/></g><g><path d="M247.182 85.167H231.51s-.67.039-.67-.897v.63c0 .936.67.896.67.896h15.672c.585-.039.663-.478.663-.478v-.63s-.078.44-.663.479z" fill="#373737"/><linearGradient id="i" gradientUnits="userSpaceOnUse" x1="149.492" y1="181.661" x2="149.492" y2="198.666" gradientTransform="rotate(-90 137.91 88.731)"><stop offset="0" stop-color="#87888c"/><stop offset=".079" stop-color="#969eaf"/><stop offset=".096" stop-color="#828793"/><stop offset=".126" stop-color="#656970"/><stop offset=".159" stop-color="#515457"/><stop offset=".196" stop-color="#434545"/><stop offset=".239" stop-color="#3a3b3a"/><stop offset=".293" stop-color="#343634"/><stop offset=".394" stop-color="#323433"/><stop offset=".596" stop-color="#353635"/><stop offset=".672" stop-color="#323232"/><stop offset=".788" stop-color="#2c292a"/><stop offset=".892" stop-color="#231c20"/><stop offset=".98" stop-color="#2f2c2f"/></linearGradient><path d="M230.84 71.434s.358-.834.865-1.223c0 0 7.017-2.378 15.204-.078 0 0 .702.663.936 1.364v13.191s-.078.439-.663.478H231.51s-.67.039-.67-.897V71.434z" fill="url(#i)"/><g><linearGradient id="j" gradientUnits="userSpaceOnUse" x1="132.235" y1="184.2" x2="132.235" y2="196.127" gradientTransform="rotate(-90 137.91 88.731)"><stop offset="0" stop-color="#b2b3b0"/><stop offset=".079" stop-color="#fefdee"/><stop offset=".081" stop-color="#fdfded"/><stop offset=".13" stop-color="#f0ece1"/><stop offset=".187" stop-color="#e5dfd7"/><stop offset=".259" stop-color="#dfd8d2"/><stop offset=".394" stop-color="#ddd5d0"/><stop offset=".596" stop-color="#cac3bf"/><stop offset=".84" stop-color="#d0c9c6"/><stop offset=".892" stop-color="#d2cbc8"/><stop offset=".98" stop-color="#7a7575"/></linearGradient><path d="M245.096 88.488c.115 0 .21.095.21.21v11.415a.21.21 0 01-.21.21h-11.508a.21.21 0 01-.21-.21V88.698a.21.21 0 01.21-.21h11.508z" fill="url(#j)"/><path fill="none" stroke="#817c7c" stroke-width=".105" stroke-miterlimit="10" d="M239.373 88.488v1.739h-1.176v2.029h1.176v4.305h-1.176v1.994h1.145l.031 1.768"/><linearGradient id="k" gradientUnits="userSpaceOnUse" x1="108.986" y1="181.668" x2="108.986" y2="198.721" gradientTransform="rotate(-90 137.91 88.731)"><stop offset="0" stop-color="#87888c"/><stop offset=".079" stop-color="#969eaf"/><stop offset=".096" stop-color="#828793"/><stop offset=".126" stop-color="#656970"/><stop offset=".159" stop-color="#515457"/><stop offset=".196" stop-color="#434545"/><stop offset=".239" stop-color="#3a3b3a"/><stop offset=".293" stop-color="#343634"/><stop offset=".394" stop-color="#323433"/><stop offset=".596" stop-color="#353635"/><stop offset=".672" stop-color="#323232"/><stop offset=".788" stop-color="#2c292a"/><stop offset=".892" stop-color="#231c20"/><stop offset=".98" stop-color="#2f2c2f"/></linearGradient><path d="M230.851 133.353V99.99s-.072-.42.365-.42h16.237s.447-.008.447.537v33.246s-.667 1.184-1.155 1.334c0 0-6.874 2.366-14.912 0-.001 0-.537-.302-.982-1.334z" fill="url(#k)"/><path d="M237.533 92.504c.058 0 .105.047.105.105v1.975a.105.105 0 01-.105.105h-2.42a.105.105 0 01-.105-.105v-1.975c0-.058.047-.105.105-.105h2.42z" fill="#070308"/><path d="M235.228 94.27c0 .058.047.105.105.105h2.305v-1.766a.105.105 0 00-.105-.105h-2.305v1.766z" fill="#363536"/><path d="M243.57 92.504c.058 0 .105.047.105.105v1.975a.105.105 0 01-.105.105h-2.42a.105.105 0 01-.105-.105v-1.975c0-.058.047-.105.105-.105h2.42z" fill="#070308"/><path d="M241.266 94.27c0 .058.047.105.105.105h2.305v-1.766a.105.105 0 00-.105-.105h-2.305v1.766z" fill="#363536"/><path d="M239.434 104.67l-1.342 2.382h.953v6.699c-1.109-.038-1.382-.697-1.382-.697-.312-.696-.299-1.505-.276-1.841a1.237 1.237 0 10-.786.023 5.951 5.951 0 00.157 1.699c.296 1.366 1.653 1.577 2.287 1.6v1.914a1.236 1.236 0 00.39 2.41 1.237 1.237 0 00.397-2.408v-3.189c2.52-.114 2.43-2.317 2.43-2.317v-1.203h.667v-2.025h-2.025v2.025h.572v1.167c-.02 1.401-1.251 1.574-1.644 1.594v-5.453h1.072l-1.47-2.38z" fill="#5a605f"/></g></g></svg>