<svg xmlns="http://www.w3.org/2000/svg" viewBox="0 0 30 30"><path d="M27.699 5.578c.341.569.716 1.194-.99 1.428-.931.127-1.885-.066-2.226-.635-.342-.569.835-.972.99-1.428.428-1.26 1.884.066 2.226.635z" fill="#e6e2be"/><path d="M26.309 6.339c-.705.174-1.479.029-1.939-.323a.765.765 0 00.113.356c.341.569 1.296.762 2.226.635 1.706-.233 1.331-.858.99-1.428a1.18 1.18 0 00-.288-.313c.027.459-.396.899-1.102 1.073z" opacity=".2" fill="#cdb748"/><path d="M29.941 5.882a.854.854 0 01-.044.174c-.126.335-.491.569-1.552.461a3.178 3.178 0 01-.899-.217 1.725 1.725 0 01-.239-.122c-.224-.175-.356-.333-.413-.476a.455.455 0 01-.035-.206c-.019-.085-.025-.166-.019-.245a.804.804 0 01.051-.227c.028-.201.233-.387.514-.53.094-.048.196-.091.303-.127 1.263-.094 1.744 1.061 2.171 1.086.427.025.092.32.162.429z" fill="#faf8d5"/><path d="M28.749 6.043a3.152 3.152 0 01-.899-.217 1.725 1.725 0 01-.239-.122c-.225-.174-.356-.333-.414-.476a.455.455 0 01-.035-.206c-.019-.084-.025-.166-.019-.245a.775.775 0 01.049-.218c-.22.132-.378.292-.402.465a.83.83 0 00-.032.472.453.453 0 00.035.206c.058.144.189.301.413.476.073.044.153.085.239.122.258.109.568.183.899.217 1.061.108 1.426-.126 1.552-.461.012-.032.018-.066.025-.099-.238.102-.602.144-1.172.086z" opacity=".2" fill="#e1cb56"/><path d="M16.182 2.346a.854.854 0 01-.044.174c-.126.335-.491.569-1.553.461a3.178 3.178 0 01-.899-.217 1.797 1.797 0 01-.24-.122c-.224-.175-.355-.333-.413-.476a.455.455 0 01-.035-.206c-.019-.085-.025-.166-.019-.245a.84.84 0 01.051-.227c.027-.201.233-.387.514-.53.093-.048.196-.091.303-.127 1.263-.094 1.743 1.061 2.172 1.086.428.025.093.32.163.429z" fill="#faf8d5"/><path d="M14.99 2.507a3.152 3.152 0 01-.899-.217 1.725 1.725 0 01-.239-.122c-.225-.174-.356-.333-.414-.476a.455.455 0 01-.035-.206c-.019-.084-.025-.166-.019-.245a.775.775 0 01.049-.218c-.22.132-.378.292-.402.465a.83.83 0 00-.032.472.453.453 0 00.035.206c.058.143.189.301.413.476.073.044.154.085.24.122.258.109.568.183.899.217 1.062.108 1.427-.126 1.553-.461.011-.032.017-.066.025-.099-.24.102-.604.145-1.174.086z" opacity=".2" fill="#e1cb56"/><g fill="#e6e2be"><path d="M4.223 7.537c0 .742-.939 1.344-2.095 1.344-1.157 0-2.096-.602-2.096-1.344 0-.742.939-1.343 2.096-1.343 1.156 0 2.095.601 2.095 1.343z"/><path d="M6.329 5.948c0 .742-.938 1.344-2.094 1.344-1.157 0-2.096-.602-2.096-1.344 0-.741.939-1.343 2.096-1.343 1.155-.001 2.094.601 2.094 1.343z"/><path d="M8.993 4.359c0 .742-.939 1.343-2.096 1.343-1.156 0-2.095-.601-2.095-1.343s.939-1.344 2.095-1.344c1.157 0 2.096.602 2.096 1.344z"/><path d="M12.023 3.261c0 .742-.938 1.344-2.096 1.344-1.157 0-2.095-.602-2.095-1.344 0-.742.938-1.344 2.095-1.344 1.158 0 2.096.602 2.096 1.344zM27.095 8.304c0 .741-.939 1.343-2.096 1.343s-2.096-.602-2.096-1.343c0-.743.939-1.344 2.096-1.344s2.096.601 2.096 1.344z"/><path d="M26.601 6.96c0 .742-.939 1.344-2.096 1.344s-2.096-.602-2.096-1.344c0-.742.939-1.343 2.096-1.343 1.157-.001 2.096.601 2.096 1.343zM22.904 5.023c0 .742-.939 1.344-2.096 1.344s-2.096-.602-2.096-1.344c0-.742.939-1.343 2.096-1.343s2.096.602 2.096 1.343z"/><path d="M25.391 5.702c0 .742-.938 1.344-2.096 1.344-1.157 0-2.096-.602-2.096-1.344 0-.741.938-1.343 2.096-1.343 1.158 0 2.096.602 2.096 1.343zM20.384 3.882c0 .742-.938 1.344-2.096 1.344-1.157 0-2.095-.602-2.095-1.344 0-.742.938-1.344 2.095-1.344 1.158 0 2.096.602 2.096 1.344z"/><path d="M17.974 3.261c0 .742-.939 1.344-2.096 1.344s-2.095-.602-2.095-1.344c0-.742.938-1.344 2.095-1.344 1.158 0 2.096.602 2.096 1.344z"/><path d="M14.796 3.015c0 .741-.938 1.344-2.095 1.344-1.157 0-2.096-.602-2.096-1.344 0-.742.939-1.344 2.096-1.344s2.095.602 2.095 1.344z"/><path d="M20.384 5.226c0 .742-2.97 1.343-6.632 1.343-3.661 0-6.631-.601-6.631-1.343s2.97-1.344 6.631-1.344c3.662 0 6.632.602 6.632 1.344z"/><path d="M15.958 6.569c0 .742-2.97 1.344-6.632 1.344-3.661 0-6.631-.602-6.631-1.344 0-.742 2.969-1.343 6.631-1.343 3.662 0 6.632.602 6.632 1.343z"/><path d="M25.508 7.292c0 .742-2.969 1.343-6.63 1.343-3.662 0-6.632-.602-6.632-1.343 0-.742 2.97-1.344 6.632-1.344 3.661 0 6.63.602 6.63 1.344z"/><path d="M15.624 7.913c0 .741-2.969 1.343-6.631 1.343-3.662 0-6.631-.602-6.631-1.343 0-.743 2.97-1.344 6.631-1.344 3.662 0 6.631.602 6.631 1.344z"/></g><path fill="#9e4d3f" d="M0 8.304l3.885 21.703h1.506L2.128 8.304z"/><path fill="#fffdfd" d="M2.128 8.304l3.263 21.703h1.506L4.255 8.304z"/><path fill="#9e4d3f" d="M4.234 8.304l2.649 21.703H8.39L6.361 8.304z"/><path fill="#fffdfd" d="M6.361 8.304L8.39 30.007h1.507L8.488 8.304z"/><path fill="#9e4d3f" d="M8.468 8.304l1.413 21.703h1.506l-.792-21.703z"/><path fill="#fffdfd" d="M10.595 8.304l.792 21.703h1.507l-.172-21.703z"/><path fill="#9e4d3f" d="M12.701 8.304l.179 21.703h1.506l.442-21.703z"/><path fill="#fffdfd" d="M14.828 8.304l-.442 21.703h1.507l1.062-21.703z"/><g><path fill="#9e4d3f" d="M16.934 8.304l-1.056 21.703h1.507l1.677-21.703z"/><path fill="#fffdfd" d="M19.062 8.304l-1.677 21.703h1.506l2.298-21.703z"/></g><g><path fill="#9e4d3f" d="M21.169 8.304l-2.292 21.703h1.507l2.911-21.703z"/><path fill="#fffdfd" d="M23.295 8.304l-2.911 21.703h1.507l3.532-21.703z"/><path fill="#9e4d3f" d="M25.058 8.304l-3.233 21.703h1.506l3.854-21.703z"/></g><g><path d="M19.253 1.575c0 .631 0 1.324-1.783 1.143-.972-.099-1.782-.512-1.782-1.143S17.057.836 17.47.432c1.144-1.115 1.783.512 1.783 1.143z" fill="#e6e2be"/><path d="M17.47 1.979c-.782 0-1.445-.324-1.685-.773a.783.783 0 00-.097.37c0 .631.81 1.044 1.782 1.143 1.783.181 1.783-.512 1.783-1.143a.78.78 0 00-.097-.37c-.241.449-.904.773-1.686.773z" opacity=".2" fill="#cdb748"/></g><g><path d="M10.942 1.648c-.498-.022-.702-.026-.921-.248-.219-.222-.457-.54-.462-.593-.019-.221.078-.432.318-.595.049-.033.103-.064.162-.092.643-.186 1.976-.19 2.331.234.039.047.066.1.08.158a.364.364 0 01.073.144c.011.046-.249.695-.796.844-.071.042-.287.171-.785.148z" fill="#e6e2be"/><path d="M12.523.659c-.131.196-.34.417-.631.497-.071.041-.287.17-.785.148-.498-.022-.702-.026-.921-.249-.22-.222-.457-.541-.462-.593A.567.567 0 019.73.338a.594.594 0 00-.171.469c.005.052.243.37.462.593.219.222.423.226.921.249.498.022.714-.107.785-.148.541-.149.801-.783.796-.842z" opacity=".2" fill="#cdb748"/></g><g><path d="M4.233 2.996a.826.826 0 01-.044.171c-.122.327-.479.556-1.516.45a3.13 3.13 0 01-.879-.211 1.968 1.968 0 01-.234-.119c-.219-.172-.347-.326-.403-.466a.45.45 0 01-.035-.202.796.796 0 01.031-.461c.027-.197.227-.379.502-.518.091-.047.191-.089.296-.124 1.234-.092 1.704 1.037 2.122 1.062.418.024.091.311.16.418z" fill="#e6e2be"/><path d="M3.067 3.154a3.097 3.097 0 01-.878-.212 1.83 1.83 0 01-.234-.119c-.219-.171-.348-.325-.404-.466a.431.431 0 01-.034-.201.767.767 0 01.029-.452c-.215.13-.37.285-.393.454a.804.804 0 00-.031.461.437.437 0 00.035.202c.056.14.185.294.404.466.071.043.149.083.233.119.253.106.556.178.879.211 1.037.106 1.394-.123 1.516-.45.012-.031.018-.065.025-.097-.234.099-.59.14-1.147.084z" opacity=".2" fill="#cdb748"/></g><g><path d="M22.266 5.739a1.068 1.068 0 01-.053.209c-.15.401-.586.68-1.857.551a3.815 3.815 0 01-1.076-.259 2.188 2.188 0 01-.286-.146c-.268-.209-.425-.398-.494-.57a.538.538 0 01-.042-.246c-.022-.101-.029-.199-.022-.293a.934.934 0 01.061-.272c.033-.241.279-.464.615-.634.112-.057.234-.108.362-.152 1.511-.113 2.086 1.27 2.598 1.299.51.03.11.383.194.513z" fill="#faf8d5"/><path d="M20.839 5.932a3.782 3.782 0 01-1.076-.259 2.126 2.126 0 01-.286-.146c-.268-.209-.425-.398-.495-.57a.553.553 0 01-.042-.247.954.954 0 01.036-.552c-.263.158-.453.349-.481.555a.968.968 0 00-.039.565.549.549 0 00.042.246c.069.172.226.361.494.57.087.053.184.102.286.146.309.13.681.219 1.076.259 1.27.129 1.707-.15 1.857-.551.014-.038.021-.079.031-.119-.285.122-.721.172-1.403.103z" opacity=".2" fill="#e1cb56"/></g><g><path d="M10.01 4.396a.92.92 0 01-.053.208c-.15.401-.587.68-1.856.551a3.799 3.799 0 01-1.076-.259 2.25 2.25 0 01-.286-.145c-.268-.209-.425-.398-.495-.57a.552.552 0 01-.041-.247.968.968 0 01.037-.565c.033-.241.278-.464.614-.634a2.89 2.89 0 01.362-.152c1.511-.113 2.086 1.27 2.598 1.299.513.03.113.383.196.514z" fill="#faf8d5"/><path d="M8.584 4.588a3.8 3.8 0 01-1.075-.258 2.25 2.25 0 01-.286-.146c-.268-.209-.426-.398-.495-.57a.54.54 0 01-.042-.247.954.954 0 01.036-.552c-.264.157-.453.348-.481.554a1.023 1.023 0 00-.062.272c-.006.094.001.192.024.293a.54.54 0 00.042.247c.07.172.226.361.495.57.087.053.183.102.286.146.309.13.68.219 1.076.259 1.269.129 1.706-.15 1.856-.551.014-.038.021-.079.03-.119-.286.121-.722.172-1.404.102z" opacity=".2" fill="#e1cb56"/></g><g><path d="M15.285 7.045a1.068 1.068 0 01-.053.209c-.151.401-.587.68-1.857.551a3.799 3.799 0 01-1.076-.259 2.126 2.126 0 01-.286-.146c-.268-.209-.426-.398-.495-.57a.538.538 0 01-.042-.246.986.986 0 01.038-.565c.033-.241.279-.464.615-.634.112-.057.234-.108.362-.152 1.51-.113 2.085 1.27 2.597 1.299.514.03.113.382.197.513z" fill="#faf8d5"/><path d="M13.859 7.237a3.765 3.765 0 01-1.076-.259 2.126 2.126 0 01-.286-.146c-.268-.209-.426-.398-.495-.57a.54.54 0 01-.042-.247c-.022-.1-.029-.198-.022-.292a.953.953 0 01.058-.26c-.263.158-.453.349-.481.555a.986.986 0 00-.038.565.536.536 0 00.042.246c.069.172.226.361.495.57.087.053.183.102.286.146.309.13.68.219 1.076.259 1.27.129 1.706-.15 1.857-.551.014-.038.021-.079.03-.119-.287.122-.723.173-1.404.103z" opacity=".2" fill="#e1cb56"/></g><g><path d="M14.559 3.885a.75.75 0 01-.038.15c-.108.289-.422.49-1.336.396a2.687 2.687 0 01-.774-.185 1.472 1.472 0 01-.206-.105c-.193-.15-.306-.286-.356-.41a.384.384 0 01-.031-.178c-.016-.073-.021-.143-.016-.211a.723.723 0 01.043-.196c.024-.173.201-.333.443-.456.081-.041.168-.078.261-.109 1.086-.081 1.5.913 1.868.935.369.022.082.275.142.369z" fill="#faf8d5"/><path d="M13.533 4.024a2.728 2.728 0 01-.774-.187 1.472 1.472 0 01-.206-.105c-.193-.15-.306-.286-.356-.41a.396.396 0 01-.03-.178c-.016-.073-.021-.142-.016-.211a.696.696 0 01.042-.187c-.19.114-.325.251-.346.4a.723.723 0 00-.027.407.384.384 0 00.031.178c.05.124.163.26.356.41.063.038.132.073.206.105.222.094.489.157.774.186.914.093 1.228-.108 1.336-.396.01-.027.015-.057.022-.085-.208.087-.522.123-1.012.073z" opacity=".2" fill="#e1cb56"/></g><g><path d="M21.822 3.163a.816.816 0 01-.092-1.189 1.835 1.835 0 01.332-.254c.073-.053.142-.098.2-.135.832-.355 1.665.356 2.089.794a.495.495 0 01-.038.155c-.035.087-.09.174-.146.261-.056.086-.114.172-.157.254a.439.439 0 00-.06.238c.005.05.007.096.004.138-.013.207-.12.309-.279.341a.703.703 0 01-.212.006 2.592 2.592 0 01-.676-.157c-.068-.026-.524-.251-.785-.339a1.434 1.434 0 01-.18-.113z" fill="#e6e2be"/><g opacity=".2" fill="#cdb748"><path d="M24.265 2.62c-.009.017-.013.033-.02.049.022-.039.042-.078.059-.117-.014.024-.029.046-.039.068zM23.93 3.337a.745.745 0 01-.213.006 2.602 2.602 0 01-.676-.157c-.069-.025-.524-.251-.785-.338a1.247 1.247 0 01-.179-.114.824.824 0 01-.285-.812c-.02.018-.043.034-.061.052a.815.815 0 00.091 1.189c.047.035.107.074.18.113.261.087.717.313.785.339.205.075.434.137.676.157a.703.703 0 00.212-.006c.159-.031.265-.134.279-.341.002-.029-.001-.063-.003-.095-.007.001-.013.005-.021.007z"/></g></g><g><path d="M24.351 1.577c0 .319 0 .669-.901.578-.491-.05-.9-.259-.9-.578 0-.319.692-.373.9-.577.578-.564.901.258.901.577z" fill="#e6e2be"/><path d="M23.45 1.781c-.395 0-.73-.164-.851-.39a.398.398 0 00-.049.187c0 .319.409.528.9.578.901.091.901-.259.901-.578a.398.398 0 00-.049-.187c-.121.226-.457.39-.852.39z" opacity=".2" fill="#cdb748"/></g><g><path d="M6.031 6.344c.342.569.716 1.194-.99 1.428-.93.127-1.885-.066-2.226-.635-.342-.57.835-.972.99-1.428.428-1.261 1.885.065 2.226.635z" fill="#faf8d5"/><path d="M4.641 7.104c-.706.174-1.479.029-1.939-.323a.765.765 0 00.113.356c.342.569 1.296.762 2.226.635 1.706-.233 1.332-.858.99-1.428a1.147 1.147 0 00-.288-.313c.027.46-.396.899-1.102 1.073z" opacity=".2" fill="#e1cb56"/></g></svg>