<?xml version="1.0" encoding="UTF-8" standalone="no"?>
<svg
   xmlns:dc="http://purl.org/dc/elements/1.1/"
   xmlns:cc="http://creativecommons.org/ns#"
   xmlns:rdf="http://www.w3.org/1999/02/22-rdf-syntax-ns#"
   xmlns:svg="http://www.w3.org/2000/svg"
   xmlns="http://www.w3.org/2000/svg"
   xmlns:sodipodi="http://sodipodi.sourceforge.net/DTD/sodipodi-0.dtd"
   xmlns:inkscape="http://www.inkscape.org/namespaces/inkscape"
   viewBox="0 0 325 101.99925"
   version="1.1"
   id="svg16"
   sodipodi:docname="logo.svg"
   width="325"
   height="101.99925"
   inkscape:version="0.92.4 5da689c313, 2019-01-14">
  <metadata
     id="metadata22">
    <rdf:RDF>
      <cc:Work
         rdf:about="">
        <dc:format>image/svg+xml</dc:format>
        <dc:type
           rdf:resource="http://purl.org/dc/dcmitype/StillImage" />
      </cc:Work>
    </rdf:RDF>
  </metadata>
  <defs
     id="defs20" />
  <sodipodi:namedview
     pagecolor="#ffffff"
     bordercolor="#666666"
     borderopacity="1"
     objecttolerance="10"
     gridtolerance="10"
     guidetolerance="10"
     inkscape:pageopacity="0"
     inkscape:pageshadow="2"
     inkscape:window-width="471"
     inkscape:window-height="442"
     id="namedview18"
     showgrid="false"
     inkscape:zoom="0.84066455"
     inkscape:cx="161.18164"
     inkscape:cy="51"
     inkscape:window-x="0"
     inkscape:window-y="0"
     inkscape:window-maximized="0"
     inkscape:current-layer="svg16" />
  <g
     id="g6"
     style="fill:#070308"
     transform="translate(-3.6620729e-4,-7.4989859e-4)">
    <path
       d="m 206.365,21.779 c 0.524,0.033 1.049,0.065 1.573,0.102 4.025,0.278 7.871,1.222 11.466,3.089 2.567,1.335 4.843,3.062 6.875,5.122 2.205,2.237 4.029,4.744 5.403,7.573 1.008,2.076 1.707,4.255 2.192,6.508 0.594,2.762 0.789,5.559 0.672,8.373 -0.19,4.514 -1.189,8.83 -3.317,12.847 -1.485,2.802 -3.421,5.261 -5.725,7.436 -3.693,3.487 -8.02,5.761 -12.992,6.815 -1.84,0.389 -3.696,0.633 -5.576,0.693 -0.086,0.003 -0.17,0.027 -0.255,0.042 h -2.212 c -0.481,-0.035 -0.962,-0.067 -1.442,-0.103 -5.759,-0.417 -11.014,-2.197 -15.569,-5.82 -3.595,-2.86 -6.409,-6.35 -8.33,-10.538 -0.976,-2.129 -1.629,-4.36 -2.064,-6.659 a 33.152,33.152 0 0 1 -0.517,-7.86 c 0.278,-5.552 1.74,-10.735 4.961,-15.329 3.769,-5.374 8.699,-9.196 15.062,-11.044 a 29.303,29.303 0 0 1 5.931,-1.093 c 0.639,-0.05 1.28,-0.075 1.918,-0.114 0.105,-0.006 0.208,-0.026 0.312,-0.04 z m -0.874,51.065 c 2.047,-0.017 4.028,-0.184 5.971,-0.665 4.231,-1.045 7.751,-3.24 10.548,-6.588 2.856,-3.416 4.342,-7.386 4.744,-11.787 a 29.99,29.99 0 0 0 0.064,-4.526 c -0.098,-1.639 -0.313,-3.262 -0.748,-4.848 -1.359,-4.952 -4.14,-8.904 -8.413,-11.763 -3.197,-2.136 -6.773,-3.115 -10.587,-3.304 -2.085,-0.102 -4.157,-0.008 -6.212,0.365 -3.592,0.652 -6.787,2.135 -9.541,4.547 a 20.183,20.183 0 0 0 -5.794,8.524 c -0.905,2.529 -1.267,5.147 -1.304,7.82 -0.031,2.077 0.115,4.14 0.567,6.168 0.819,3.662 2.465,6.894 5.035,9.65 a 19.561,19.561 0 0 0 8.111,5.25 c 2.468,0.844 5.017,1.13 7.559,1.157 m 105.004,6.217 c -0.217,0.523 -0.382,0.629 -0.974,0.629 h -5.797 c -0.68,0 -0.931,-0.252 -0.931,-0.937 v -55.33 c 0,-0.71 0.25,-0.958 0.97,-0.958 1.932,0 3.865,-0.007 5.795,0.01 0.239,0.002 0.499,0.096 0.703,0.222 0.123,0.077 0.16,0.295 0.235,0.451 v 55.913 z"
       id="path2"
       inkscape:connector-curvature="0" />
    <path
       d="m 152.903,45.677 2.905,3.86 6.141,8.162 c 2.633,3.5 5.264,6.998 7.898,10.496 2.58,3.429 5.158,6.858 7.741,10.284 0.192,0.252 0.274,0.51 0.137,0.802 -0.139,0.296 -0.409,0.391 -0.714,0.409 -0.139,0.008 -0.28,0.001 -0.421,0.001 -2.38,0 -4.76,-0.002 -7.14,0.003 -0.407,10e-4 -0.705,-0.136 -0.96,-0.475 -4.489,-5.999 -8.987,-11.992 -13.485,-17.987 L 147.34,51.023 c -0.02,-0.029 -0.045,-0.053 -0.081,-0.096 l -0.925,0.861 c -2.072,1.936 -4.142,3.874 -6.213,5.812 -1.142,1.066 -2.284,2.134 -3.432,3.193 a 0.582,0.582 0 0 0 -0.209,0.474 c 0.005,5.796 0.004,11.593 0.004,17.389 0,0.07 0.002,0.14 0,0.211 -0.015,0.531 -0.285,0.82 -0.816,0.822 a 949.73,949.73 0 0 1 -6.086,0.001 c -0.515,-0.002 -0.786,-0.292 -0.796,-0.808 V 23.42 c 0,-0.699 0.252,-0.954 0.946,-0.954 l 5.559,-0.001 c 0.122,0 0.246,-0.004 0.369,0.001 0.537,0.025 0.8,0.289 0.824,0.823 0.004,0.08 0.001,0.159 0.001,0.237 v 27.141 c 0.46,-0.429 0.875,-0.814 1.288,-1.202 2.446,-2.295 4.89,-4.591 7.338,-6.885 l 9.63,-9.021 8.067,-7.57 c 1.134,-1.064 2.271,-2.124 3.401,-3.19 0.236,-0.223 0.505,-0.332 0.828,-0.332 l 8.511,0.001 c 0.483,0 0.756,0.176 0.858,0.537 0.085,0.299 -0.03,0.531 -0.239,0.73 -0.822,0.781 -1.642,1.561 -2.465,2.338 -1.456,1.373 -2.917,2.744 -4.373,4.117 -2.02,1.903 -4.038,3.804 -6.055,5.71 -2.069,1.952 -4.135,3.907 -6.204,5.858 l -4.167,3.919 m 90.446,5.408 v -27.56 l 0.001,-0.238 c 0.011,-0.52 0.273,-0.791 0.789,-0.821 0.035,-0.002 0.071,-0.001 0.105,-0.001 7.88,0.001 15.757,-0.019 23.636,0.012 3.624,0.013 7.091,0.828 10.398,2.306 2.878,1.287 5.406,3.081 7.601,5.339 3.578,3.674 5.955,8.01 7.123,13.01 0.673,2.879 0.95,5.794 0.889,8.744 -0.082,3.962 -0.77,7.809 -2.272,11.49 -1.254,3.074 -3.049,5.802 -5.312,8.225 -3.472,3.719 -7.691,6.164 -12.634,7.362 -2.133,0.516 -4.293,0.746 -6.488,0.744 -7.632,-0.012 -15.264,-0.004 -22.898,-0.005 -0.131,0 -0.263,-0.009 -0.391,-0.029 -0.282,-0.046 -0.457,-0.215 -0.507,-0.495 a 2.447,2.447 0 0 1 -0.038,-0.443 c -0.002,-9.214 -0.002,-18.427 -0.002,-27.64 m 7.708,21.24 h 0.34 c 5.13,0 10.258,0.004 15.387,-0.006 0.92,-0.002 1.843,-0.04 2.76,-0.111 1.906,-0.15 3.722,-0.655 5.46,-1.45 2.271,-1.04 4.179,-2.555 5.822,-4.426 a 20.996,20.996 0 0 0 3.633,-5.823 c 0.949,-2.278 1.46,-4.654 1.648,-7.112 a 29.344,29.344 0 0 0 -0.234,-6.695 c -0.4,-2.624 -1.254,-5.1 -2.573,-7.406 -1.466,-2.564 -3.359,-4.76 -5.789,-6.456 -2.909,-2.031 -6.176,-2.976 -9.702,-2.993 -5.49,-0.026 -10.979,-0.008 -16.468,-0.009 h -0.285 v 42.488 h 10e-4 z"
       id="path4"
       inkscape:connector-curvature="0" />
  </g>
  <g
     id="g10"
     style="fill:#36a2cd"
     transform="translate(-3.6620729e-4,-7.4989859e-4)">
    <path
       d="m 102.394,51.849 c -0.33,1.072 -1.054,1.856 -1.829,2.629 -5.194,5.176 -10.371,10.37 -15.554,15.556 -1.867,1.868 -3.863,1.864 -5.738,-0.013 -5.349,-5.353 -10.699,-10.706 -16.045,-16.06 -1.822,-1.823 -1.821,-3.815 0.005,-5.643 5.377,-5.386 10.756,-10.769 16.135,-16.151 1.75,-1.752 3.807,-1.753 5.557,-0.002 5.215,5.216 10.422,10.439 15.646,15.646 0.775,0.772 1.497,1.56 1.823,2.632 z m -51.558,50.15 c -1.067,-0.339 -1.839,-1.077 -2.608,-1.85 C 43.056,94.95 37.869,89.769 32.686,84.58 30.832,82.723 30.83,80.743 32.68,78.89 38.043,73.523 43.406,68.155 48.772,62.788 c 1.783,-1.784 3.827,-1.791 5.601,-0.016 5.364,5.366 10.728,10.735 16.09,16.104 1.842,1.845 1.847,3.866 0.013,5.701 -5.227,5.234 -10.462,10.46 -15.678,15.704 -0.746,0.75 -1.514,1.425 -2.554,1.719 z M 32.012,38.284 c 0,-5.969 0.054,-11.937 -0.035,-17.905 -0.025,-1.727 0.387,-3.076 1.707,-4.215 1.06,-0.917 2.001,-1.975 2.995,-2.971 L 48.475,1.387 c 1.849,-1.849 3.845,-1.848 5.693,10e-4 5.35,5.351 10.698,10.703 16.047,16.056 1.838,1.84 1.836,3.862 -0.001,5.701 C 63.889,29.479 57.56,35.811 51.233,42.143 A 88403.214,88403.214 0 0 1 34.471,58.922 C 33.436,59.959 32.518,59.717 32.142,58.281 32.026,57.837 32.016,57.356 32.016,56.892 32.01,50.689 32.012,44.486 32.012,38.284 M 19.22,51.215 c 0,5.477 0.008,10.955 -0.012,16.432 a 4.456,4.456 0 0 1 -0.271,1.554 c -0.365,0.95 -1.051,1.068 -1.769,0.352 C 14.649,67.039 12.137,64.516 9.623,61.998 6.717,59.087 3.81,56.176 0.905,53.264 c -1.202,-1.206 -1.207,-2.878 -0.01,-4.09 5.349,-5.41 10.7,-10.82 16.052,-16.229 0.354,-0.357 0.687,-0.842 1.289,-0.615 0.575,0.217 0.802,0.736 0.883,1.31 0.052,0.356 0.092,0.719 0.092,1.078 0.005,5.499 0.003,10.997 0.003,16.497 z"
       id="path8"
       inkscape:connector-curvature="0" />
  </g>
  <g
     id="g14"
     style="fill:#070308"
     transform="translate(-3.6620729e-4,-7.4989859e-4)">
    <path
       d="m 317.903,23.376 h -1.394 v 3.561 h -0.453 v -3.561 h -1.394 v -0.435 h 3.241 z m 4.461,-0.435 v 3.996 h -0.453 v -3.308 l -1.479,1.901 -1.502,-1.901 v 3.308 h -0.453 v -3.996 h 0.525 l 1.43,1.895 1.406,-1.895 z"
       id="path12"
       inkscape:connector-curvature="0" />
  </g>
</svg>
