<?xml version="1.0" encoding="UTF-8" standalone="no"?>
<svg
   xmlns:dc="http://purl.org/dc/elements/1.1/"
   xmlns:cc="http://creativecommons.org/ns#"
   xmlns:rdf="http://www.w3.org/1999/02/22-rdf-syntax-ns#"
   xmlns:svg="http://www.w3.org/2000/svg"
   xmlns="http://www.w3.org/2000/svg"
   xmlns:sodipodi="http://sodipodi.sourceforge.net/DTD/sodipodi-0.dtd"
   xmlns:inkscape="http://www.inkscape.org/namespaces/inkscape"
   viewBox="0 0 175.72799 297.7075"
   version="1.1"
   id="svg137"
   sodipodi:docname="console.svg"
   width="175.728"
   height="297.70749"
   inkscape:version="0.92.4 5da689c313, 2019-01-14">
  <metadata
     id="metadata143">
    <rdf:RDF>
      <cc:Work
         rdf:about="">
        <dc:format>image/svg+xml</dc:format>
        <dc:type
           rdf:resource="http://purl.org/dc/dcmitype/StillImage" />
      </cc:Work>
    </rdf:RDF>
  </metadata>
  <defs
     id="defs141" />
  <sodipodi:namedview
     pagecolor="#ffffff"
     bordercolor="#666666"
     borderopacity="1"
     objecttolerance="10"
     gridtolerance="10"
     guidetolerance="10"
     inkscape:pageopacity="0"
     inkscape:pageshadow="2"
     inkscape:window-width="640"
     inkscape:window-height="480"
     id="namedview139"
     showgrid="false"
     inkscape:zoom="0.79271777"
     inkscape:cx="87.863503"
     inkscape:cy="148.855"
     inkscape:window-x="0"
     inkscape:window-y="0"
     inkscape:window-maximized="0"
     inkscape:current-layer="svg137">
    <inkscape:grid
       type="xygrid"
       id="grid950"
       originx="6.558237e-08"
       originy="8.5449222e-06" />
  </sodipodi:namedview>
  <path
     d="m 77.122,292.6835 h 12.415 v 4.855 H 77.122 Z"
     id="path2"
     inkscape:connector-curvature="0"
     style="fill:#c9c9c9" />
  <path
     d="m 77.648,297.6975 c 0.11,0 0.2,-0.17 0.2,-0.38 v -4.634 h 11.275 v 4.63 c 0,0.212 0.09,0.384 0.202,0.384 h 45.997 c 0,0 14.484,0.736 27.445,-10.734 12.961,-11.471 12.961,-29.865 12.961,-29.865 V 16.186498 H 6.5582372e-8 V 290.0725 A 7.624,7.624 0 0 0 7.6240001,297.6975 Z"
     id="path4"
     inkscape:connector-curvature="0"
     style="fill:#d6d6d6" />
  <path
     d="m 36.68,2.7384983 a 4.108,4.108 0 0 0 -7.746,0 z"
     id="path6"
     inkscape:connector-curvature="0"
     style="fill:#bdbec0" />
  <path
     d="M 162.958,1.4854983 H 12.77 L 0.76300007,13.602498 v 3.728 H 174.966 v -3.728 z"
     id="path8"
     inkscape:connector-curvature="0"
     style="fill:#aeadab" />
  <path
     d="M 12.77,1.3684983 H 7.6240001 A 7.624,7.624 0 0 0 6.5582372e-8,8.9924983 V 14.519498 H 12.77 Z m 155.334,0 h -5.146 V 14.519498 h 12.77 V 8.9924983 a 7.625,7.625 0 0 0 -7.624,-7.624 z"
     id="path10"
     inkscape:connector-curvature="0"
     style="fill:#d9d9d9" />
  <linearGradient
     id="a"
     gradientUnits="userSpaceOnUse"
     x1="-263.271"
     y1="113.218"
     x2="-261.129"
     y2="116.927"
     gradientTransform="translate(404.8,159.0175)">
    <stop
       offset="0"
       stop-color="#c9c9c9"
       id="stop12" />
    <stop
       offset="1"
       stop-color="#a8a8a8"
       id="stop14" />
  </linearGradient>
  <path
     d="m 164.49,259.1765 -45.866,26.215 z"
     id="path17"
     inkscape:connector-curvature="0"
     style="fill:url(#a)" />
  <path
     d="m 162.767,286.9635 c 12.961,-11.471 12.961,-29.865 12.961,-29.865 v -4.262 l -78.439,44.861 h 38.032 c 0,0 14.485,0.736 27.446,-10.734 z"
     id="path19"
     inkscape:connector-curvature="0"
     style="fill:#c6c6c6" />
  <path
     d="m 71.928,254.1645 z m -4.007,2.035 z m -4.101,2.088 v -0.002 z m -4.006,2.035 z"
     id="path21"
     inkscape:connector-curvature="0"
     style="fill:#39509c" />
  <path
     d="m 35.425,174.8955 c 15.438,0 27.955,12.517 27.955,27.954 0,15.439 -12.517,27.954 -27.955,27.954 -15.438,0 -27.9539999,-12.515 -27.9539999,-27.954 0,-15.438 12.5149999,-27.954 27.9539999,-27.954 z"
     id="path23"
     inkscape:connector-curvature="0"
     style="fill:#c9c9c9" />
  <g
     id="g27"
     style="fill:#d9d9d9"
     transform="translate(6.5582372e-8,-0.00250173)">
    <path
       d="m 9.485,203.011 2.707,1.72 v -3.378 z m 51.881,0 -2.708,1.72 v -3.378 z m -25.972,26.353 1.72,-2.708 h -3.377 z m 0,-53.024 1.72,2.708 h -3.377 z"
       id="path25"
       inkscape:connector-curvature="0" />
  </g>
  <path
     d="M 55.382,194.7175 H 43.747 v -12.396 a 2.1,2.1 0 0 0 -2.1,-2.101 H 29.965 a 2.1,2.1 0 0 0 -2.1,2.101 v 12.396 H 15.469 a 2.1,2.1 0 0 0 -2.101,2.101 v 11.683 c 0,1.158 0.94,2.1 2.101,2.1 h 12.397 v 12.778 c 0,1.16 0.94,2.1 2.1,2.1 h 11.682 a 2.1,2.1 0 0 0 2.1,-2.1 v -12.778 h 11.635 a 2.102,2.102 0 0 0 2.101,-2.1 v -11.684 a 2.104,2.104 0 0 0 -2.102,-2.1 z"
     id="path29"
     inkscape:connector-curvature="0"
     style="fill:#3d3d3d" />
  <linearGradient
     id="b"
     gradientUnits="userSpaceOnUse"
     x1="-352.05801"
     y1="-151.12199"
     x2="-285.39999"
     y2="-8.1739998"
     gradientTransform="translate(404.8,159.0175)">
    <stop
       offset="0"
       stop-color="#7c7f81"
       id="stop31" />
    <stop
       offset=".015"
       stop-color="#7c7e81"
       id="stop33" />
    <stop
       offset=".625"
       stop-color="#676b7c"
       id="stop35" />
    <stop
       offset="1"
       stop-color="#60657a"
       id="stop37" />
  </linearGradient>
  <path
     d="m 154.89,132.8955 c 6.379,-6.379 6.988,-14.559 6.988,-17.662 V 29.846498 a 5.337,5.337 0 0 0 -5.337,-5.337 H 18.297 a 5.337,5.337 0 0 0 -5.336,5.337 V 134.6735 a 5.337,5.337 0 0 0 5.336,5.337 h 118.931 c 1.572,0 11.284,-0.736 17.662,-7.115 z"
     id="path40"
     inkscape:connector-curvature="0"
     style="fill:url(#b)" />
  <path
     d="m 39.263,37.724498 h 95.678 V 126.5415 H 39.263 Z"
     id="path42"
     inkscape:connector-curvature="0"
     style="fill:#c2aa33" />
  <linearGradient
     id="c"
     gradientUnits="userSpaceOnUse"
     x1="-382.44"
     y1="-91.584999"
     x2="-380.39899"
     y2="-87.209"
     gradientTransform="translate(404.8,159.0175)">
    <stop
       offset="0"
       stop-color="#ef4237"
       id="stop44" />
    <stop
       offset="1"
       stop-color="#cd3634"
       id="stop46" />
  </linearGradient>
  <path
     d="m 23.38,67.205498 a 2.414,2.414 0 1 1 0,4.827 2.414,2.414 0 0 1 0,-4.827 z"
     id="path49"
     inkscape:connector-curvature="0"
     style="fill:url(#c)" />
  <path
     d="M 156.541,25.462498 H 18.297 a 4.39,4.39 0 0 0 -4.384,4.384 V 134.6735 a 4.389,4.389 0 0 0 4.384,4.384 h 118.931 c 0.103,0 10.386,-0.234 16.988,-6.837 6.056,-6.056 6.709,-13.897 6.709,-16.987 V 29.846498 a 4.389,4.389 0 0 0 -4.384,-4.384 z"
     id="path51"
     inkscape:connector-curvature="0"
     style="fill:none" />
  <path
     d="m 88.358,290.5825 c -0.012,-0.049 -0.024,-0.098 -0.033,-0.16 l -0.206,0.041 a 0.48,0.48 0 0 0 0.239,0.119 z"
     id="path53"
     inkscape:connector-curvature="0"
     style="fill:#c7c7c7" />
  <g
     id="g57"
     style="fill:#aaabaf"
     transform="translate(6.5582372e-8,-0.00250173)">
    <path
       d="m 123.506,292.745 a 1.523,1.523 0 0 1 -1.342,-0.801 l -12.706,-23.508 a 1.525,1.525 0 0 1 2.682,-1.451 l 12.706,23.508 a 1.525,1.525 0 0 1 -1.34,2.252 z m 8.641,-4.957 a 1.522,1.522 0 0 1 -1.342,-0.799 l -12.706,-23.508 a 1.525,1.525 0 0 1 2.682,-1.451 l 12.706,23.508 a 1.525,1.525 0 0 1 -1.34,2.25 z m 8.64,-4.955 a 1.524,1.524 0 0 1 -1.342,-0.801 l -12.706,-23.506 c -0.4,-0.74 -0.125,-1.666 0.616,-2.068 0.74,-0.4 1.665,-0.123 2.066,0.617 l 12.706,23.506 c 0.4,0.742 0.125,1.668 -0.616,2.066 -0.23,0.127 -0.479,0.186 -0.724,0.186 z m 8.641,-4.957 a 1.521,1.521 0 0 1 -1.342,-0.799 L 135.38,253.571 a 1.526,1.526 0 0 1 2.683,-1.451 l 12.706,23.506 a 1.524,1.524 0 0 1 -1.341,2.25 z m 8.64,-4.955 a 1.521,1.521 0 0 1 -1.342,-0.799 L 144.02,248.616 a 1.526,1.526 0 0 1 2.682,-1.453 l 12.707,23.508 a 1.523,1.523 0 0 1 -1.341,2.25 z m 8.64,-4.955 a 1.522,1.522 0 0 1 -1.342,-0.799 l -12.707,-23.508 c -0.4,-0.74 -0.124,-1.666 0.616,-2.067 a 1.526,1.526 0 0 1 2.066,0.616 l 12.706,23.507 a 1.525,1.525 0 0 1 -1.339,2.251 z"
       id="path55"
       inkscape:connector-curvature="0" />
  </g>
  <g
     id="g61"
     style="fill:#34308e"
     transform="translate(6.5582372e-8,-0.00250173)">
    <path
       d="m 61.55,153.103 -0.454,3.186 c -0.96,0.517 -1.915,0.775 -2.863,0.775 -1.139,0 -2.044,-0.373 -2.718,-1.12 -0.673,-0.747 -1.009,-1.673 -1.009,-2.777 0,-1.405 0.528,-2.623 1.584,-3.653 1.056,-1.03 2.555,-1.546 4.497,-1.546 0.381,0 0.893,0.039 1.536,0.115 l -0.146,1.066 c -0.698,-0.076 -1.223,-0.115 -1.574,-0.115 -1.452,0 -2.588,0.41 -3.409,1.229 -0.821,0.819 -1.231,1.774 -1.231,2.866 0,0.847 0.239,1.536 0.717,2.069 0.478,0.533 1.094,0.8 1.847,0.8 0.563,0 1.13,-0.142 1.701,-0.425 l 0.209,-1.537 h -1.263 l 0.133,-0.933 z m 4.935,-5.072 1.719,8.918 h -1.093 l -0.523,-2.78 h -2.789 l -1.17,2.78 h -1.186 l 3.925,-8.918 z m -2.29,5.198 h 2.216 l -0.686,-3.638 z m 14.14,-5.147 v 8.867 h -1.174 l -0.006,-6.754 -3.577,6.754 -1.564,-6.785 -2.182,6.785 h -1.17 l 2.924,-8.867 h 1.016 l 1.385,6.007 3.182,-6.007 z m 7.382,0 -0.146,1.053 h -3.55 l -0.386,2.781 h 3.129 l -0.14,1.053 H 81.47 l -0.42,2.927 h 4.666 l -0.159,1.054 h -5.821 l 1.289,-8.867 h 4.692 z m 5.504,0 h 1.301 c 0.91,0 1.606,0.2 2.088,0.602 0.482,0.402 0.724,0.952 0.724,1.649 0,0.77 -0.408,1.354 -1.225,1.751 1.223,0.423 1.834,1.217 1.834,2.382 0,0.736 -0.296,1.335 -0.889,1.794 -0.592,0.46 -1.363,0.689 -2.311,0.689 h -2.755 z m 0.532,4.538 -0.467,3.339 h 1.341 c 0.682,0 1.205,-0.133 1.57,-0.4 0.364,-0.266 0.546,-0.646 0.546,-1.143 0,-0.503 -0.209,-0.929 -0.628,-1.275 -0.419,-0.346 -0.918,-0.521 -1.499,-0.521 z m 0.493,-3.522 -0.354,2.532 h 0.637 c 0.488,0 0.878,-0.122 1.169,-0.365 0.291,-0.243 0.437,-0.563 0.437,-0.962 0,-0.816 -0.506,-1.225 -1.52,-1.225 a 3.47,3.47 0 0 0 -0.369,0.02 z m 8.826,-1.131 c 0.935,0 1.691,0.342 2.27,1.025 0.577,0.684 0.866,1.582 0.866,2.695 0,1.54 -0.421,2.821 -1.263,3.843 -0.842,1.022 -1.847,1.533 -3.015,1.533 -0.922,0 -1.68,-0.349 -2.272,-1.048 -0.592,-0.697 -0.889,-1.595 -0.889,-2.691 0,-1.366 0.403,-2.601 1.209,-3.703 0.806,-1.102 1.837,-1.654 3.094,-1.654 z m -1.117,8.03 c 0.821,0 1.535,-0.441 2.143,-1.323 0.607,-0.883 0.911,-1.948 0.911,-3.196 0,-0.762 -0.176,-1.359 -0.527,-1.793 -0.351,-0.434 -0.825,-0.651 -1.422,-0.651 -0.914,0 -1.658,0.456 -2.231,1.368 -0.573,0.912 -0.86,1.941 -0.86,3.089 0,0.773 0.18,1.386 0.54,1.834 0.36,0.448 0.841,0.672 1.446,0.672 z m 10.753,-7.915 -3.113,4.455 -0.621,4.412 h -1.167 l 0.622,-4.418 -2.082,-4.449 h 1.24 l 1.505,3.245 2.267,-3.245 z m 1.689,6.137 v 0.5 h -0.988 v 2.229 h -0.68 v -2.229 h -0.988 v -0.5 z m 1.882,1.011 0.877,-1.012 h 0.591 v 2.729 h -0.68 v -1.703 l -0.737,0.855 h -0.102 l -0.737,-0.855 v 1.703 h -0.68 v -2.729 h 0.59 z"
       id="path59"
       inkscape:connector-curvature="0" />
  </g>
  <g
     id="g65"
     style="fill:#34308e"
     transform="translate(6.5582372e-8,-0.00250173)">
    <path
       d="m 12.326,150.943 h 1.783 l 2.465,4.105 -0.001,-4.105 h 1.767 v 5.887 h -1.765 l -2.477,-4.105 v 4.105 h -1.771 z m 15.623,0.605 h 1.721 v 0.792 h 0.931 v 0.582 H 29.67 l 0.002,3.906 h -1.723 l 10e-4,-3.906 h -0.934 v -0.58 l 0.934,-0.002 z m -8.625,1.367 h 1.72 v 3.915 h -1.72 z m -0.005,-1.974 h 1.724 v 1.204 h -1.724 z m 30.134,1.708 c -1.388,0 -2.513,0.982 -2.513,2.197 0,1.213 1.125,2.197 2.513,2.197 1.389,0 2.512,-0.984 2.512,-2.197 0,-1.215 -1.123,-2.197 -2.512,-2.197 m 0.691,2.191 -0.002,0.829 c 0,0.624 -0.357,0.881 -0.703,0.881 -0.345,0 -0.705,-0.257 -0.705,-0.881 l 10e-4,-0.845 10e-4,-0.815 c 0,-0.622 0.362,-0.877 0.703,-0.877 0.343,0 0.703,0.255 0.703,0.877 0,0.237 -0.001,0.676 0.002,0.832 z m -5.448,0.012 v -0.7 c 0,-0.606 -0.406,-0.759 -0.673,-0.759 -0.274,0 -0.674,0.153 -0.674,0.759 v 1.394 c 0,0.607 0.4,0.763 0.674,0.763 0.267,0 0.673,-0.156 0.673,-0.763 z m -0.012,-3.909 h 1.696 v 5.886 h -1.699 l -10e-4,-0.225 c -0.658,0.424 -1.4,0.424 -1.98,0.148 a 2.092,2.092 0 0 1 -1.175,-1.942 c 0,-1.033 0.946,-2.161 2.185,-2.049 0.408,0.037 0.698,0.19 0.974,0.351 z m -19.616,1.791 c 0.644,-0.019 1.946,0.414 1.938,1.963 -0.002,0.277 -0.001,2.131 -0.001,2.131 h -1.707 v -2.571 c 0,-0.342 -0.317,-0.72 -0.786,-0.72 -0.468,0 -0.816,0.379 -0.816,0.72 l 0.002,2.571 h -1.706 l -0.002,-3.914 1.708,-0.002 c 0,0 -0.002,0.315 0,0.412 a 2.045,2.045 0 0 1 1.37,-0.59 m 13.972,0 c 0.643,-0.019 1.947,0.414 1.938,1.963 -0.002,0.277 0,2.131 0,2.131 h -1.709 v -2.571 c 0,-0.342 -0.317,-0.72 -0.786,-0.72 -0.468,0 -0.815,0.379 -0.815,0.72 l 0.002,2.571 h -1.706 v -3.914 l 1.706,-0.002 c 0,0 -0.002,0.315 0,0.412 a 2.043,2.043 0 0 1 1.37,-0.59 m -5.409,2.725 10e-4,0.238 c 0,0.716 -0.457,0.875 -0.711,0.875 -0.253,0 -0.72,-0.16 -0.72,-0.875 l 0.002,-0.808 c 0,0 3.239,0.002 3.239,-0.002 0,-1.213 -1.138,-2.218 -2.536,-2.218 -1.398,0 -2.531,0.982 -2.531,2.197 0,1.215 1.133,2.197 2.531,2.197 1.16,0 2.141,-0.681 2.439,-1.606 z m -1.428,-1.181 c -0.004,-0.342 0.004,-0.571 0.113,-0.767 a 0.699,0.699 0 0 1 0.605,-0.358 c 0.223,0.002 0.47,0.116 0.603,0.358 0.109,0.196 0.116,0.425 0.113,0.767 z"
       id="path63"
       inkscape:connector-curvature="0" />
  </g>
  <path
     d="M 19.732,32.488498 H 58.324"
     stroke-miterlimit="10"
     id="path67"
     inkscape:connector-curvature="0"
     style="fill:none;stroke:#04004d;stroke-miterlimit:10" />
  <path
     d="M 19.732,29.142498 H 58.324"
     stroke-miterlimit="10"
     id="path69"
     inkscape:connector-curvature="0"
     style="fill:none;stroke:#760d50;stroke-miterlimit:10" />
  <path
     d="m 137.962,32.488498 h 16.284"
     stroke-miterlimit="10"
     id="path71"
     inkscape:connector-curvature="0"
     style="fill:none;stroke:#04004d;stroke-miterlimit:10" />
  <path
     d="m 137.962,29.142498 h 16.284"
     stroke-miterlimit="10"
     id="path73"
     inkscape:connector-curvature="0"
     style="fill:none;stroke:#760d50;stroke-miterlimit:10" />
  <g
     id="g77"
     style="fill:#eeeeec"
     transform="translate(6.5582372e-8,-0.00250173)">
    <path
       d="m 62.41,32.478 v -3.122 h 1.043 c 0.236,0 0.415,0.016 0.539,0.045 0.173,0.042 0.321,0.116 0.444,0.223 0.16,0.14 0.279,0.317 0.358,0.534 0.08,0.216 0.12,0.464 0.12,0.742 0,0.237 -0.027,0.447 -0.081,0.63 a 1.55,1.55 0 0 1 -0.207,0.456 c -0.084,0.12 -0.176,0.214 -0.276,0.283 -0.1,0.07 -0.22,0.12 -0.361,0.156 a 2,2 0 0 1 -0.486,0.053 z m 0.401,-0.368 h 0.646 c 0.2,0 0.357,-0.02 0.47,-0.058 a 0.682,0.682 0 0 0 0.272,-0.162 0.983,0.983 0 0 0 0.221,-0.395 1.98,1.98 0 0 0 0.08,-0.601 c 0,-0.326 -0.052,-0.578 -0.156,-0.753 a 0.795,0.795 0 0 0 -0.379,-0.352 c -0.107,-0.043 -0.28,-0.064 -0.518,-0.064 h -0.636 z m 2.534,-1.152 c 0,-0.518 0.135,-0.924 0.405,-1.217 0.27,-0.293 0.618,-0.44 1.044,-0.44 0.28,0 0.532,0.07 0.756,0.207 0.224,0.138 0.395,0.33 0.513,0.576 0.118,0.246 0.176,0.526 0.176,0.837 0,0.317 -0.062,0.6 -0.186,0.85 -0.124,0.25 -0.3,0.44 -0.527,0.568 -0.227,0.128 -0.472,0.193 -0.735,0.193 a 1.366,1.366 0 0 1 -1.274,-0.794 1.815,1.815 0 0 1 -0.172,-0.78 z m 0.412,0.006 c 0,0.376 0.099,0.672 0.295,0.889 a 0.955,0.955 0 0 0 0.738,0.325 c 0.302,0 0.55,-0.11 0.745,-0.328 0.195,-0.218 0.292,-0.53 0.292,-0.93 0,-0.255 -0.041,-0.477 -0.125,-0.666 a 0.967,0.967 0 0 0 -0.905,-0.597 c -0.283,0 -0.528,0.1 -0.731,0.302 -0.206,0.2 -0.309,0.536 -0.309,1.005 z m 3.766,1.514 v -2.753 h -0.998 v -0.369 h 2.399 v 0.369 h -1.001 v 2.753 z m 2.975,0 v -3.122 h 0.603 l 0.717,2.21 c 0.066,0.206 0.114,0.36 0.145,0.462 0.034,-0.113 0.087,-0.28 0.161,-0.5 l 0.725,-2.173 h 0.538 v 3.122 h -0.386 v -2.613 l -0.879,2.613 h -0.361 l -0.876,-2.658 v 2.658 z m 3.206,0 1.162,-3.122 h 0.432 l 1.238,3.122 H 78.08 l -0.353,-0.945 h -1.265 l -0.333,0.945 z m 0.874,-1.281 h 1.026 l -0.316,-0.865 a 8.53,8.53 0 0 1 -0.215,-0.647 c -0.038,0.2 -0.092,0.4 -0.163,0.597 z m 3.053,1.281 v -2.753 h -0.997 v -0.369 h 2.398 v 0.369 h -1 v 2.753 h -0.4 z m 1.821,0 v -3.122 h 1.342 c 0.27,0 0.475,0.029 0.615,0.085 0.141,0.056 0.253,0.155 0.337,0.296 a 0.91,0.91 0 0 1 0.126,0.47 c 0,0.222 -0.07,0.409 -0.209,0.56 -0.138,0.152 -0.353,0.249 -0.643,0.29 0.106,0.052 0.186,0.104 0.24,0.155 0.118,0.11 0.228,0.249 0.334,0.415 l 0.526,0.85 h -0.504 l -0.4,-0.649 c -0.118,-0.188 -0.214,-0.33 -0.29,-0.43 -0.076,-0.1 -0.144,-0.169 -0.204,-0.209 a 0.615,0.615 0 0 0 -0.183,-0.083 1.142,1.142 0 0 0 -0.223,-0.015 h -0.464 v 1.386 z m 0.4,-1.743 h 0.861 c 0.183,0 0.326,-0.02 0.43,-0.06 a 0.453,0.453 0 0 0 0.235,-0.187 0.515,0.515 0 0 0 0.08,-0.28 0.475,0.475 0 0 0 -0.155,-0.365 c -0.104,-0.096 -0.268,-0.142 -0.492,-0.142 h -0.958 v 1.034 z m 2.718,1.743 v -3.122 h 0.4 v 3.122 z m 0.796,0 1.17,-1.627 -1.031,-1.495 h 0.476 l 0.55,0.8 c 0.114,0.167 0.195,0.294 0.243,0.384 0.067,-0.114 0.148,-0.233 0.24,-0.356 l 0.609,-0.829 h 0.435 l -1.063,1.472 1.146,1.65 h -0.496 l -0.762,-1.114 a 5.805,5.805 0 0 1 -0.132,-0.208 5.189,5.189 0 0 1 -0.144,0.235 l -0.76,1.087 z m 4.834,0 -0.804,-3.122 h 0.41 l 0.462,2.047 c 0.049,0.214 0.092,0.427 0.128,0.639 0.076,-0.334 0.122,-0.527 0.135,-0.577 l 0.577,-2.109 h 0.483 l 0.433,1.58 c 0.109,0.393 0.187,0.761 0.236,1.106 0.038,-0.197 0.088,-0.424 0.15,-0.68 l 0.475,-2.006 h 0.403 l -0.83,3.122 H 92.071 L 91.433,30.1 C 91.379,29.9 91.348,29.779 91.339,29.733 A 7.911,7.911 0 0 1 91.25,30.1 l -0.642,2.378 z m 3.528,0 v -3.122 h 0.4 v 3.122 z m 1.874,0 v -2.753 h -0.997 v -0.369 h 2.399 v 0.369 h -1.002 v 2.753 z m 1.827,0 v -3.122 h 0.4 v 1.282 h 1.574 v -1.282 h 0.401 v 3.122 h -0.4 V 31.007 H 97.83 v 1.471 z m 4.079,-1.002 0.379,-0.035 c 0.017,0.157 0.059,0.285 0.125,0.384 0.065,0.1 0.166,0.181 0.304,0.243 0.138,0.062 0.292,0.092 0.465,0.092 0.152,0 0.287,-0.023 0.404,-0.07 a 0.556,0.556 0 0 0 0.261,-0.193 0.455,0.455 0 0 0 0.003,-0.524 0.61,0.61 0 0 0 -0.273,-0.184 5.27,5.27 0 0 0 -0.538,-0.152 c -0.278,-0.069 -0.473,-0.134 -0.584,-0.195 a 0.826,0.826 0 0 1 -0.323,-0.29 0.728,0.728 0 0 1 -0.106,-0.39 0.812,0.812 0 0 1 0.51,-0.753 1.4,1.4 0 0 1 0.555,-0.106 c 0.225,0 0.422,0.037 0.594,0.111 a 0.86,0.86 0 0 1 0.396,0.33 0.964,0.964 0 0 1 0.148,0.49 l -0.384,0.03 c -0.02,-0.197 -0.09,-0.346 -0.21,-0.447 -0.119,-0.1 -0.294,-0.15 -0.527,-0.15 -0.242,0 -0.419,0.045 -0.53,0.136 a 0.415,0.415 0 0 0 -0.166,0.331 c 0,0.112 0.039,0.204 0.118,0.278 0.077,0.072 0.278,0.146 0.603,0.222 0.326,0.076 0.549,0.142 0.67,0.199 a 0.92,0.92 0 0 1 0.39,0.318 0.796,0.796 0 0 1 0.126,0.444 0.87,0.87 0 0 1 -0.138,0.469 0.921,0.921 0 0 1 -0.398,0.343 1.353,1.353 0 0 1 -0.583,0.123 c -0.273,0 -0.503,-0.042 -0.688,-0.124 a 0.97,0.97 0 0 1 -0.435,-0.372 1.06,1.06 0 0 1 -0.168,-0.558 z m 3.732,1.002 v -2.753 h -0.998 v -0.369 h 2.398 v 0.369 h -1 v 2.753 z m 1.822,0 v -3.122 h 2.188 v 0.369 h -1.788 v 0.956 h 1.674 v 0.366 h -1.674 v 1.063 h 1.858 v 0.368 z m 2.822,0 v -3.122 h 1.342 c 0.27,0 0.475,0.029 0.615,0.085 0.141,0.056 0.253,0.155 0.337,0.296 a 0.91,0.91 0 0 1 0.126,0.47 c 0,0.222 -0.07,0.409 -0.209,0.56 -0.138,0.152 -0.353,0.249 -0.643,0.29 0.106,0.052 0.186,0.104 0.24,0.155 0.118,0.11 0.228,0.249 0.334,0.415 l 0.526,0.85 h -0.504 l -0.4,-0.649 a 5.88,5.88 0 0 0 -0.29,-0.43 0.911,0.911 0 0 0 -0.204,-0.209 0.615,0.615 0 0 0 -0.183,-0.083 1.142,1.142 0 0 0 -0.223,-0.015 h -0.464 v 1.386 z m 0.4,-1.743 h 0.861 c 0.183,0 0.326,-0.02 0.43,-0.06 a 0.453,0.453 0 0 0 0.235,-0.187 0.515,0.515 0 0 0 0.08,-0.28 0.475,0.475 0 0 0 -0.155,-0.365 c -0.104,-0.096 -0.268,-0.142 -0.492,-0.142 h -0.958 v 1.034 z m 2.658,1.743 v -3.122 h 2.188 v 0.369 h -1.788 v 0.956 h 1.674 v 0.366 h -1.674 v 1.063 h 1.858 v 0.368 z m 2.694,-1.52 c 0,-0.518 0.135,-0.924 0.405,-1.217 0.27,-0.293 0.618,-0.44 1.045,-0.44 0.28,0 0.531,0.07 0.755,0.207 0.224,0.138 0.396,0.33 0.513,0.576 0.117,0.246 0.176,0.526 0.176,0.837 0,0.317 -0.062,0.6 -0.186,0.85 -0.124,0.25 -0.3,0.44 -0.527,0.568 a 1.473,1.473 0 0 1 -0.734,0.193 c -0.285,0 -0.54,-0.071 -0.764,-0.213 a 1.364,1.364 0 0 1 -0.51,-0.581 1.83,1.83 0 0 1 -0.173,-0.78 z m 0.413,0.006 c 0,0.376 0.098,0.672 0.294,0.889 a 0.955,0.955 0 0 0 0.739,0.325 c 0.301,0 0.55,-0.11 0.744,-0.328 0.195,-0.219 0.293,-0.53 0.293,-0.93 0,-0.255 -0.042,-0.477 -0.125,-0.666 a 0.967,0.967 0 0 0 -0.905,-0.597 c -0.284,0 -0.528,0.1 -0.732,0.302 -0.206,0.2 -0.308,0.536 -0.308,1.005 z m 4.032,0.512 0.378,-0.035 c 0.018,0.157 0.06,0.285 0.125,0.384 0.065,0.1 0.167,0.181 0.305,0.243 0.137,0.062 0.292,0.092 0.464,0.092 0.153,0 0.288,-0.023 0.405,-0.07 a 0.556,0.556 0 0 0 0.26,-0.193 0.455,0.455 0 0 0 0.004,-0.524 0.61,0.61 0 0 0 -0.273,-0.184 5.27,5.27 0 0 0 -0.539,-0.152 c -0.277,-0.069 -0.472,-0.134 -0.583,-0.195 a 0.826,0.826 0 0 1 -0.323,-0.29 0.728,0.728 0 0 1 -0.107,-0.39 0.812,0.812 0 0 1 0.51,-0.753 1.4,1.4 0 0 1 0.556,-0.106 c 0.224,0 0.422,0.037 0.593,0.111 a 0.86,0.86 0 0 1 0.396,0.33 0.964,0.964 0 0 1 0.149,0.49 l -0.384,0.03 c -0.02,-0.197 -0.09,-0.346 -0.21,-0.447 -0.119,-0.1 -0.294,-0.15 -0.528,-0.15 -0.242,0 -0.418,0.045 -0.53,0.136 a 0.415,0.415 0 0 0 -0.166,0.331 c 0,0.112 0.04,0.204 0.118,0.278 0.077,0.072 0.28,0.146 0.604,0.222 0.326,0.076 0.548,0.142 0.67,0.199 a 0.92,0.92 0 0 1 0.39,0.318 0.796,0.796 0 0 1 0.126,0.444 0.87,0.87 0 0 1 -0.138,0.469 0.921,0.921 0 0 1 -0.398,0.343 1.353,1.353 0 0 1 -0.583,0.123 c -0.274,0 -0.503,-0.042 -0.688,-0.124 a 0.97,0.97 0 0 1 -0.436,-0.372 1.06,1.06 0 0 1 -0.167,-0.558 z m 2.839,-0.518 c 0,-0.518 0.135,-0.924 0.405,-1.217 0.27,-0.293 0.618,-0.44 1.044,-0.44 0.28,0 0.532,0.07 0.756,0.207 0.224,0.138 0.395,0.33 0.513,0.576 0.118,0.246 0.176,0.526 0.176,0.837 0,0.317 -0.062,0.6 -0.186,0.85 -0.124,0.25 -0.3,0.44 -0.527,0.568 a 1.473,1.473 0 0 1 -0.735,0.193 c -0.284,0 -0.54,-0.071 -0.764,-0.213 a 1.364,1.364 0 0 1 -0.51,-0.581 1.83,1.83 0 0 1 -0.172,-0.78 z m 0.412,0.006 c 0,0.376 0.099,0.672 0.295,0.889 a 0.955,0.955 0 0 0 0.738,0.325 c 0.302,0 0.55,-0.11 0.745,-0.328 0.195,-0.218 0.292,-0.53 0.292,-0.93 0,-0.255 -0.041,-0.477 -0.125,-0.666 a 0.967,0.967 0 0 0 -0.905,-0.597 c -0.283,0 -0.528,0.1 -0.731,0.302 -0.206,0.2 -0.309,0.536 -0.309,1.005 z m 4.983,-1.608 h 0.4 v 1.804 c 0,0.314 -0.034,0.563 -0.103,0.748 -0.069,0.185 -0.193,0.335 -0.372,0.45 -0.18,0.115 -0.416,0.173 -0.707,0.173 -0.284,0 -0.515,-0.05 -0.696,-0.151 a 0.852,0.852 0 0 1 -0.386,-0.438 c -0.077,-0.19 -0.115,-0.452 -0.115,-0.783 v -1.804 h 0.4 v 1.802 c 0,0.271 0.025,0.471 0.073,0.6 0.05,0.128 0.133,0.227 0.252,0.296 0.119,0.069 0.265,0.104 0.437,0.104 0.294,0 0.504,-0.069 0.629,-0.206 0.125,-0.138 0.188,-0.402 0.188,-0.794 v -1.8 z m 1.065,3.122 v -3.122 h 0.41 l 1.59,2.451 v -2.45 h 0.383 v 3.121 h -0.41 l -1.589,-2.452 v 2.452 h -0.385 z m 3.06,0 v -3.122 h 1.042 c 0.236,0 0.415,0.016 0.539,0.045 0.173,0.042 0.32,0.116 0.444,0.223 0.16,0.14 0.279,0.317 0.358,0.534 0.08,0.216 0.12,0.464 0.12,0.742 0,0.237 -0.027,0.447 -0.081,0.63 -0.054,0.184 -0.122,0.336 -0.207,0.456 -0.085,0.12 -0.176,0.214 -0.276,0.283 -0.1,0.07 -0.22,0.12 -0.361,0.156 a 2,2 0 0 1 -0.486,0.053 z m 0.4,-0.368 h 0.645 c 0.2,0 0.357,-0.02 0.47,-0.058 a 0.682,0.682 0 0 0 0.272,-0.162 0.983,0.983 0 0 0 0.221,-0.395 1.98,1.98 0 0 0 0.08,-0.601 c 0,-0.326 -0.052,-0.578 -0.156,-0.753 a 0.795,0.795 0 0 0 -0.379,-0.352 c -0.107,-0.043 -0.28,-0.064 -0.518,-0.064 h -0.636 v 2.385 z"
       id="path75"
       inkscape:connector-curvature="0" />
  </g>
  <g
     id="g81"
     style="fill:#eeeeec"
     transform="translate(6.5582372e-8,-0.00250173)">
    <path
       d="m 17.517,79.874 v -2.79 h 0.992 c 0.201,0 0.364,0.027 0.485,0.084 a 0.64,0.64 0 0 1 0.287,0.26 c 0.07,0.118 0.105,0.241 0.105,0.368 a 0.66,0.66 0 0 1 -0.092,0.337 0.666,0.666 0 0 1 -0.277,0.255 c 0.16,0.05 0.283,0.134 0.369,0.253 0.085,0.12 0.128,0.26 0.128,0.422 0,0.13 -0.026,0.252 -0.079,0.365 -0.053,0.113 -0.117,0.2 -0.193,0.26 a 0.79,0.79 0 0 1 -0.29,0.138 c -0.115,0.03 -0.257,0.046 -0.426,0.046 h -1.01 z m 0.35,-1.618 h 0.57 c 0.155,0 0.267,-0.01 0.334,-0.032 0.09,-0.028 0.156,-0.074 0.202,-0.139 0.046,-0.065 0.067,-0.146 0.067,-0.243 a 0.469,0.469 0 0 0 -0.063,-0.245 0.323,0.323 0 0 0 -0.18,-0.145 1.44,1.44 0 0 0 -0.402,-0.039 h -0.529 v 0.843 z m 0,1.288 h 0.657 c 0.113,0 0.193,-0.004 0.239,-0.013 a 0.557,0.557 0 0 0 0.201,-0.076 c 0.055,-0.036 0.098,-0.088 0.134,-0.155 0.036,-0.067 0.052,-0.146 0.052,-0.236 a 0.483,0.483 0 0 0 -0.076,-0.271 0.399,0.399 0 0 0 -0.21,-0.161 1.245,1.245 0 0 0 -0.386,-0.047 h -0.612 v 0.96 z m 1.917,0.33 1.015,-2.79 h 0.376 l 1.083,2.79 H 21.86 l -0.309,-0.846 h -1.105 l -0.29,0.846 z m 0.763,-1.147 h 0.896 L 21.168,77.955 A 8.102,8.102 0 0 1 20.98,77.376 c -0.034,0.179 -0.08,0.357 -0.142,0.533 z m 2.743,1.147 v -2.46 h -0.87 v -0.33 h 2.095 v 0.33 h -0.874 v 2.46 h -0.35 z m 2.372,0 v -2.46 h -0.87 v -0.33 h 2.095 v 0.33 h -0.874 v 2.46 h -0.35 z m 1.478,0 v -2.79 h 1.911 v 0.328 H 27.49 v 0.855 h 1.462 v 0.328 H 27.49 v 0.95 h 1.622 v 0.328 H 27.14 Z m 2.311,0 v -2.79 h 1.172 c 0.236,0 0.415,0.024 0.537,0.074 0.123,0.05 0.221,0.14 0.294,0.265 a 0.83,0.83 0 0 1 0.11,0.42 c 0,0.199 -0.06,0.365 -0.182,0.501 -0.122,0.136 -0.308,0.222 -0.562,0.259 a 0.946,0.946 0 0 1 0.21,0.139 c 0.103,0.098 0.2,0.223 0.29,0.37 l 0.46,0.76 h -0.44 l -0.35,-0.58 a 5.198,5.198 0 0 0 -0.251,-0.385 0.857,0.857 0 0 0 -0.177,-0.187 0.487,0.487 0 0 0 -0.16,-0.074 0.966,0.966 0 0 0 -0.195,-0.013 h -0.405 v 1.239 h -0.35 z m 0.35,-1.56 h 0.752 c 0.16,0 0.285,-0.017 0.375,-0.052 a 0.4,0.4 0 0 0 0.205,-0.168 0.474,0.474 0 0 0 0.07,-0.25 0.429,0.429 0 0 0 -0.136,-0.326 c -0.09,-0.085 -0.235,-0.127 -0.43,-0.127 H 29.8 v 0.923 z m 2.866,1.56 v -1.182 l -1.02,-1.608 h 0.426 l 0.52,0.842 c 0.097,0.157 0.187,0.314 0.27,0.471 0.08,-0.145 0.175,-0.31 0.288,-0.493 l 0.512,-0.82 h 0.407 l -1.055,1.608 v 1.182 z"
       id="path79"
       inkscape:connector-curvature="0" />
  </g>
  <g
     id="g85"
     style="fill:#34308e"
     transform="translate(6.5582372e-8,-0.00250173)">
    <path
       d="m 58.232,257.205 c 0.137,-0.072 0.289,-0.049 0.343,0.054 0.05,0.096 -0.012,0.242 -0.149,0.314 l -2.258,1.196 c -0.185,0.098 -0.274,0.28 -0.204,0.414 l 0.202,0.382 c 0.069,0.131 0.274,0.163 0.459,0.065 l 1.694,-0.897 c 0.445,-0.235 0.953,-0.156 1.133,0.183 l 0.2,0.378 c 0.178,0.336 -0.042,0.8 -0.487,1.036 l -2.268,1.2 c -0.137,0.072 -0.284,0.047 -0.339,-0.056 -0.052,-0.099 0.009,-0.236 0.146,-0.309 l 2.267,-1.2 c 0.175,-0.093 0.264,-0.28 0.193,-0.414 l -0.2,-0.378 c -0.071,-0.135 -0.276,-0.166 -0.451,-0.073 l -1.694,0.897 c -0.45,0.237 -0.958,0.159 -1.136,-0.177 l -0.202,-0.382 c -0.178,-0.336 0.043,-0.801 0.492,-1.039 z m 5.602,0.187 c 0.128,-0.067 0.291,-0.044 0.342,0.05 0.055,0.104 -0.021,0.247 -0.149,0.314 l -2.154,1.141 c -0.449,0.237 -0.958,0.159 -1.136,-0.177 l -0.853,-1.611 c -0.178,-0.336 0.042,-0.801 0.492,-1.038 l 2.154,-1.141 c 0.133,-0.07 0.284,-0.047 0.339,0.056 0.05,0.096 -0.012,0.242 -0.145,0.313 l -2.154,1.141 c -0.175,0.093 -0.264,0.279 -0.194,0.409 l 0.316,0.598 2.419,-1.28 c 0.137,-0.073 0.286,-0.044 0.337,0.053 0.052,0.098 -0.007,0.238 -0.144,0.312 l -2.419,1.28 0.344,0.649 c 0.069,0.131 0.276,0.166 0.451,0.073 z m 0.086,-2.963 c -0.054,-0.103 0.007,-0.239 0.144,-0.312 0.133,-0.07 0.289,-0.049 0.344,0.054 l 1.077,2.035 c 0.069,0.131 0.276,0.165 0.456,0.07 l 2.22,-1.176 c 0.132,-0.07 0.291,-0.044 0.341,0.051 0.055,0.103 -0.016,0.243 -0.148,0.313 l -2.22,1.176 c -0.449,0.238 -0.958,0.159 -1.136,-0.177 z m 8.251,-1.451 c 0.127,-0.067 0.291,-0.044 0.341,0.051 0.055,0.103 -0.021,0.246 -0.148,0.313 l -2.153,1.141 c -0.45,0.238 -0.958,0.159 -1.136,-0.177 l -0.853,-1.611 c -0.178,-0.336 0.043,-0.8 0.492,-1.038 l 2.154,-1.141 c 0.132,-0.07 0.284,-0.047 0.338,0.057 0.05,0.096 -0.012,0.242 -0.144,0.312 l -2.154,1.141 c -0.175,0.093 -0.264,0.28 -0.194,0.409 l 0.316,0.598 2.418,-1.28 c 0.137,-0.072 0.287,-0.044 0.337,0.053 0.052,0.098 -0.007,0.239 -0.145,0.312 l -2.419,1.281 0.345,0.648 c 0.068,0.131 0.275,0.166 0.45,0.073 z m 2.955,-4.72 c 0.142,-0.076 0.289,-0.05 0.343,0.053 0.051,0.095 -0.006,0.238 -0.148,0.314 l -2.153,1.14 c -0.18,0.096 -0.269,0.282 -0.2,0.413 l 0.853,1.611 c 0.069,0.13 0.275,0.166 0.455,0.07 l 2.154,-1.141 c 0.142,-0.074 0.291,-0.045 0.341,0.051 0.055,0.103 -0.006,0.238 -0.148,0.314 l -2.153,1.14 c -0.45,0.238 -0.958,0.159 -1.136,-0.177 l -0.854,-1.611 c -0.178,-0.336 0.043,-0.8 0.492,-1.038 z m 4.525,-2.397 c 0.142,-0.075 0.289,-0.049 0.343,0.054 0.051,0.095 -0.006,0.238 -0.148,0.313 l -1.302,0.689 1.204,2.275 c 0.055,0.103 -0.011,0.241 -0.144,0.312 -0.137,0.072 -0.289,0.049 -0.344,-0.054 l -1.204,-2.275 -1.306,0.691 c -0.137,0.073 -0.289,0.039 -0.339,-0.056 -0.054,-0.103 0.007,-0.238 0.145,-0.312 z"
       id="path83"
       inkscape:connector-curvature="0" />
  </g>
  <g
     id="g89"
     style="fill:#34308e"
     transform="translate(6.5582372e-8,-0.00250173)">
    <path
       d="m 89.196,257.205 c 0.138,-0.072 0.289,-0.049 0.344,0.054 0.05,0.095 -0.012,0.242 -0.149,0.314 l -2.258,1.195 c -0.185,0.098 -0.274,0.281 -0.204,0.415 l 0.202,0.382 c 0.069,0.131 0.274,0.162 0.458,0.064 l 1.695,-0.897 c 0.445,-0.235 0.953,-0.155 1.133,0.184 l 0.2,0.378 c 0.178,0.336 -0.042,0.8 -0.487,1.035 l -2.268,1.201 c -0.137,0.072 -0.284,0.047 -0.339,-0.057 -0.052,-0.098 0.009,-0.235 0.146,-0.308 l 2.268,-1.201 c 0.175,-0.093 0.264,-0.279 0.192,-0.413 l -0.2,-0.378 c -0.071,-0.135 -0.276,-0.167 -0.451,-0.074 l -1.695,0.897 c -0.45,0.238 -0.958,0.16 -1.136,-0.176 l -0.202,-0.383 c -0.178,-0.336 0.043,-0.8 0.492,-1.038 z m 4.348,-2.308 c 0.143,-0.074 0.289,-0.048 0.344,0.055 0.05,0.095 -0.007,0.238 -0.148,0.314 l -1.302,0.688 1.204,2.275 c 0.055,0.103 -0.012,0.241 -0.144,0.312 -0.138,0.072 -0.289,0.049 -0.344,-0.053 l -1.204,-2.275 -1.307,0.691 c -0.138,0.072 -0.289,0.039 -0.339,-0.056 -0.055,-0.103 0.007,-0.24 0.144,-0.313 z m 3.755,-1.987 c 0.449,-0.238 0.958,-0.158 1.136,0.178 l 1.077,2.035 c 0.055,0.103 -0.021,0.246 -0.148,0.313 -0.128,0.068 -0.289,0.049 -0.344,-0.053 l -0.568,-1.074 -2.414,1.277 0.568,1.074 c 0.055,0.103 -0.016,0.244 -0.148,0.314 -0.128,0.067 -0.284,0.047 -0.339,-0.056 l -1.077,-2.035 c -0.178,-0.336 0.042,-0.802 0.492,-1.04 z m -1.453,2.317 2.414,-1.278 -0.317,-0.6 c -0.071,-0.135 -0.273,-0.163 -0.449,-0.07 l -1.766,0.935 c -0.18,0.096 -0.271,0.278 -0.199,0.413 z m 7.157,-4.558 0.305,0.575 c 0.178,0.336 -0.04,0.795 -0.487,1.036 0.211,0.146 0.583,0.394 0.841,0.56 a 0.128,0.128 0 0 1 0.054,0.054 c 0.039,0.074 0.01,0.18 -0.064,0.256 a 0.31,0.31 0 0 1 -0.083,0.062 c -0.095,0.05 -0.212,0.059 -0.287,0.007 l -0.977,-0.664 -1.685,0.892 0.451,0.853 c 0.055,0.103 -0.021,0.246 -0.149,0.313 -0.137,0.073 -0.289,0.05 -0.344,-0.053 l -1.077,-2.035 c -0.178,-0.336 0.043,-0.802 0.497,-1.042 l 1.87,-0.99 c 0.45,-0.24 0.958,-0.16 1.135,0.176 z m -0.482,0.256 c -0.069,-0.131 -0.278,-0.16 -0.459,-0.065 l -1.869,0.99 c -0.18,0.095 -0.269,0.282 -0.199,0.413 l 0.434,0.819 2.196,-1.163 c 0.18,-0.095 0.273,-0.284 0.202,-0.419 z m 4.483,-3.153 c 0.142,-0.075 0.289,-0.049 0.343,0.054 0.051,0.095 -0.006,0.239 -0.148,0.313 l -1.302,0.689 1.204,2.275 c 0.055,0.103 -0.011,0.241 -0.144,0.312 -0.137,0.073 -0.289,0.05 -0.344,-0.053 l -1.204,-2.275 -1.307,0.691 c -0.137,0.072 -0.288,0.039 -0.339,-0.056 -0.054,-0.103 0.007,-0.24 0.145,-0.313 z"
       id="path87"
       inkscape:connector-curvature="0" />
  </g>
  <path
     d="m 132.44,224.2985 c 0.544,-0.288 1.321,-0.496 1.64,0.105 l 0.27,0.509 c 0.11,0.208 0.099,0.457 -0.007,0.689 0.239,0.049 0.462,0.186 0.565,0.38 l 0.233,0.442 c 0.223,0.42 -0.052,1.002 -0.615,1.3 l -2.876,1.523 c -0.166,0.087 -0.366,0.053 -0.431,-0.067 l -1.33,-2.513 c -0.236,-0.446 0.022,-1.03 0.598,-1.335 z m 1.053,1.458 c 0.225,-0.119 0.342,-0.356 0.252,-0.523 l -0.27,-0.51 c -0.086,-0.163 -0.35,-0.204 -0.575,-0.085 l -2.172,1.15 c -0.231,0.122 -0.333,0.357 -0.229,0.556 l 0.412,0.779 z m 0.79,1.508 c 0.226,-0.119 0.337,-0.354 0.249,-0.518 l -0.233,-0.442 c -0.089,-0.168 -0.346,-0.208 -0.571,-0.089 l -2.574,1.363 0.556,1.049 z m 24.559,-16.963 c 0.563,-0.298 1.198,-0.198 1.421,0.221 l 1.349,2.549 c 0.068,0.128 -0.025,0.308 -0.186,0.393 -0.16,0.084 -0.361,0.061 -0.43,-0.067 l -0.712,-1.345 -3.019,1.599 0.711,1.345 c 0.068,0.129 -0.02,0.305 -0.186,0.393 -0.16,0.085 -0.356,0.059 -0.424,-0.069 l -1.35,-2.548 c -0.222,-0.42 0.053,-1.002 0.616,-1.3 z m -1.815,2.898 3.02,-1.6 -0.398,-0.752 c -0.089,-0.168 -0.344,-0.203 -0.563,-0.087 l -2.208,1.169 c -0.226,0.119 -0.338,0.35 -0.249,0.517 z"
     id="path91"
     inkscape:connector-curvature="0"
     style="fill:#34308e" />
  <path
     d="m 72.595,245.8145 -14.685,7.775 a 3.108,3.108 0 0 1 -4.189,-1.289 l -0.355,-0.67 a 3.108,3.108 0 0 1 1.289,-4.189 l 14.685,-7.775 a 3.108,3.108 0 0 1 4.189,1.289 l 0.355,0.67 a 3.109,3.109 0 0 1 -1.289,4.189 z m 29.681,0 -14.685,7.775 a 3.108,3.108 0 0 1 -4.189,-1.289 l -0.355,-0.67 a 3.108,3.108 0 0 1 1.289,-4.189 l 14.685,-7.775 a 3.108,3.108 0 0 1 4.189,1.289 l 0.355,0.67 a 3.107,3.107 0 0 1 -1.289,4.189 z"
     id="path93"
     inkscape:connector-curvature="0"
     style="fill:#939598" />
  <path
     d="m 157.438,205.2015 -28.64,15.164 c -6.28,3.325 -14.139,0.907 -17.465,-5.373 l -1.128,-2.131 c -3.325,-6.28 -0.907,-14.139 5.373,-17.465 l 28.64,-15.164 c 6.28,-3.325 14.139,-0.907 17.465,5.373 l 1.128,2.131 c 3.326,6.281 0.908,14.14 -5.373,17.465 z"
     id="path95"
     inkscape:connector-curvature="0"
     style="fill:#c9c9c9" />
  <g
     id="g99"
     style="fill:#9b2063"
     transform="translate(6.5582372e-8,-0.00250173)">
    <path
       d="m 118.429,197.654 c -5.263,2.787 -7.279,9.335 -4.492,14.599 2.787,5.263 9.336,7.277 14.599,4.49 5.263,-2.787 7.278,-9.336 4.492,-14.599 -2.787,-5.263 -9.336,-7.277 -14.599,-4.49 z m 26.052,-13.794 c -5.262,2.786 -7.278,9.334 -4.491,14.598 2.787,5.263 9.336,7.277 14.598,4.491 5.264,-2.787 7.278,-9.336 4.492,-14.599 -2.787,-5.263 -9.335,-7.277 -14.599,-4.49 z"
       id="path97"
       inkscape:connector-curvature="0" />
  </g>
  <path
     d="M 16.686,1.4854983 H 54.089 V 11.689498 H 16.686 Z"
     id="path101"
     inkscape:connector-curvature="0"
     style="fill:#c9c9c9" />
  <path
     d="m 22.463,1.5674983 v 2.241 c 0,0.11 0.089,0.198 0.198,0.198 h 1.597 a 0.2,0.2 0 0 0 0.2,-0.2 v -2.241 a 0.198,0.198 0 0 0 -0.198,-0.198 h -1.598 a 0.2,0.2 0 0 0 -0.199,0.2 z m 4.423,0 v 2.238 c 0,0.112 0.09,0.202 0.202,0.202 h 1.594 c 0.11,0 0.199,-0.089 0.199,-0.199 v -2.24 a 0.199,0.199 0 0 0 -0.199,-0.199 h -1.597 a 0.197,0.197 0 0 0 -0.199,0.198 z"
     id="path103"
     inkscape:connector-curvature="0"
     style="fill:#d9d9d9" />
  <g
     id="g111"
     style="fill:#d9d9d9"
     transform="translate(6.5582372e-8,-0.00250173)">
    <path
       d="m 26.853,5.773 c 0.595,0 1.09,0.198 1.486,0.594 0.396,0.396 0.594,0.893 0.594,1.49 0,0.597 -0.2,1.091 -0.599,1.483 -0.399,0.391 -0.903,0.587 -1.511,0.587 -0.581,0 -1.064,-0.196 -1.451,-0.587 -0.387,-0.392 -0.58,-0.882 -0.58,-1.472 0,-0.605 0.195,-1.106 0.584,-1.502 0.389,-0.396 0.882,-0.593 1.477,-0.593 z m 0.022,0.551 c -0.441,0 -0.804,0.145 -1.087,0.435 -0.284,0.29 -0.426,0.66 -0.426,1.11 0,0.437 0.142,0.8 0.427,1.09 0.285,0.29 0.641,0.435 1.069,0.435 0.43,0 0.788,-0.148 1.075,-0.444 0.287,-0.296 0.431,-0.664 0.431,-1.105 0,-0.429 -0.144,-0.79 -0.431,-1.083 A 1.427,1.427 0 0 0 26.875,6.324 Z m 2.742,-0.493 h 2.054 v 0.516 h -1.503 v 1.131 h 1.503 v 0.516 h -1.503 v 1.887 h -0.551 z m 2.65,0 h 2.054 v 0.516 h -1.503 v 1.131 h 1.503 v 0.516 h -1.503 v 1.887 h -0.551 z m 4.217,1.792 c 0,0.339 -0.26,0.612 -0.582,0.612 -0.322,0 -0.582,-0.274 -0.582,-0.612 0,-0.338 0.26,-0.612 0.582,-0.612 0.333,-0.001 0.582,0.285 0.582,0.612 z m 3.142,-1.85 c 0.595,0 1.09,0.198 1.486,0.594 0.396,0.396 0.594,0.893 0.594,1.49 0,0.597 -0.2,1.091 -0.599,1.483 -0.399,0.391 -0.903,0.587 -1.511,0.587 -0.581,0 -1.064,-0.196 -1.451,-0.587 -0.387,-0.392 -0.58,-0.882 -0.58,-1.472 0,-0.605 0.195,-1.106 0.584,-1.502 0.389,-0.396 0.881,-0.593 1.477,-0.593 z m 0.022,0.551 c -0.441,0 -0.804,0.145 -1.087,0.435 -0.284,0.29 -0.426,0.66 -0.426,1.11 0,0.437 0.142,0.8 0.427,1.09 0.285,0.29 0.641,0.435 1.069,0.435 0.43,0 0.788,-0.148 1.075,-0.444 0.287,-0.296 0.431,-0.664 0.431,-1.105 0,-0.429 -0.144,-0.79 -0.431,-1.083 A 1.43,1.43 0 0 0 39.648,6.324 Z m 5.797,-0.493 h 0.524 v 4.05 H 45.495 L 42.92,6.761 v 3.12 h -0.518 v -4.05 h 0.447 l 2.597,3.146 V 5.831 Z"
       id="path105"
       inkscape:connector-curvature="0" />
    <g
       id="g109">
      <path
         d="M 23.335,5.401 V 10.3 L 19.571,7.85 Z m 24.236,0 V 10.3 l 3.765,-2.45 z"
         id="path107"
         inkscape:connector-curvature="0" />
    </g>
  </g>
  <path
     d="m 31.286,1.5674983 v 2.439 h 18.962 a 3.852,3.852 0 0 1 3.841,3.841 3.852,3.852 0 0 1 -3.841,3.8409997 h -29.73 a 3.852,3.852 0 0 1 -3.841,-3.8409997 3.856,3.856 0 0 1 3.338,-3.808 v -2.474 a 0.197,0.197 0 0 0 -0.197,-0.197 H 15.439 V 14.519498 H 160.29 V 1.3684983 H 31.486 a 0.2,0.2 0 0 0 -0.2,0.199 z M 80.277,293.0635 v 4.266 c 0,0.209 0.089,0.378 0.198,0.378 h 1.597 c 0.11,0 0.2,-0.17 0.2,-0.38 v -4.266 c 0,-0.208 -0.089,-0.376 -0.198,-0.376 h -1.598 c -0.109,-0.002 -0.199,0.168 -0.199,0.378 z m 4.423,-10e-4 v 4.26 c 0,0.212 0.09,0.385 0.202,0.385 h 1.594 c 0.11,0 0.199,-0.17 0.199,-0.379 v -4.265 c 0,-0.209 -0.089,-0.379 -0.199,-0.379 h -1.597 c -0.11,-0.001 -0.199,0.169 -0.199,0.378 z"
     id="path113"
     inkscape:connector-curvature="0"
     style="fill:#d9d9d9" />
  <path
     d="M 89.412,292.6835 H 68.324 a 3.32,3.32 0 0 1 -3.311,-3.31 v -0.408 a 3.32,3.32 0 0 1 3.311,-3.31 h 21.087 a 3.32,3.32 0 0 1 3.311,3.31 v 0.408 a 3.32,3.32 0 0 1 -3.31,3.31 z"
     id="path115"
     inkscape:connector-curvature="0"
     style="fill:#c9c9c9" />
  <g
     id="g125"
     style="fill:#d9d9d9"
     transform="translate(6.5582372e-8,-0.00250173)">
    <path
       d="m 72.532,290.907 v -3.313 h 1.049 c 0.316,0 0.567,0.086 0.755,0.256 0.188,0.171 0.282,0.399 0.282,0.688 a 0.922,0.922 0 0 1 -0.144,0.511 0.828,0.828 0 0 1 -0.396,0.323 c -0.167,0.067 -0.408,0.101 -0.72,0.101 h -0.351 v 1.436 h -0.475 z m 0.965,-2.891 h -0.49 v 1.035 h 0.519 c 0.192,0 0.341,-0.046 0.445,-0.137 0.104,-0.091 0.156,-0.221 0.156,-0.39 0,-0.338 -0.21,-0.508 -0.63,-0.508 z m 3.865,-0.417 h 0.474 v 3.309 h -0.474 v -1.439 h -1.859 v 1.439 H 75.03 v -3.309 h 0.474 v 1.431 h 1.859 v -1.431 z m 2.827,-0.047 c 0.511,0 0.937,0.162 1.276,0.485 0.34,0.323 0.51,0.729 0.51,1.217 0,0.488 -0.171,0.892 -0.515,1.212 -0.343,0.319 -0.776,0.479 -1.298,0.479 -0.499,0 -0.914,-0.16 -1.246,-0.479 a 1.6,1.6 0 0 1 -0.498,-1.202 c 0,-0.494 0.167,-0.903 0.502,-1.227 0.335,-0.324 0.758,-0.485 1.269,-0.485 z m 0.018,0.45 c -0.378,0 -0.689,0.118 -0.933,0.354 -0.244,0.237 -0.366,0.539 -0.366,0.907 0,0.356 0.122,0.653 0.367,0.891 0.245,0.236 0.551,0.355 0.918,0.355 0.369,0 0.677,-0.121 0.924,-0.362 0.247,-0.242 0.371,-0.543 0.371,-0.902 0,-0.351 -0.124,-0.646 -0.371,-0.885 a 1.258,1.258 0 0 0 -0.91,-0.358 z m 4.979,-0.403 h 0.45 v 3.309 h -0.407 l -2.212,-2.548 v 2.548 h -0.445 v -3.309 h 0.384 l 2.23,2.57 z m 1.159,0 h 1.875 v 0.422 h -1.402 v 1.009 h 1.354 v 0.424 h -1.354 v 1.028 h 1.447 v 0.421 h -1.92 z m 3.244,1.923 -0.36,-0.219 c -0.226,-0.139 -0.387,-0.273 -0.482,-0.407 a 0.77,0.77 0 0 1 -0.144,-0.461 c 0,-0.26 0.09,-0.472 0.271,-0.635 0.181,-0.162 0.416,-0.243 0.705,-0.243 0.276,0 0.529,0.077 0.76,0.232 v 0.537 c -0.238,-0.229 -0.495,-0.344 -0.77,-0.344 a 0.638,0.638 0 0 0 -0.381,0.107 0.325,0.325 0 0 0 -0.149,0.274 c 0,0.1 0.037,0.192 0.11,0.278 0.073,0.087 0.191,0.178 0.354,0.272 l 0.362,0.215 c 0.403,0.24 0.605,0.548 0.605,0.92 0,0.266 -0.089,0.48 -0.266,0.646 -0.178,0.166 -0.409,0.249 -0.693,0.249 -0.327,0 -0.625,-0.101 -0.893,-0.302 v -0.602 c 0.256,0.324 0.552,0.486 0.888,0.486 a 0.558,0.558 0 0 0 0.371,-0.124 0.387,0.387 0 0 0 0.148,-0.311 c -0.001,-0.197 -0.146,-0.388 -0.436,-0.568 z"
       id="path117"
       inkscape:connector-curvature="0" />
    <g
       id="g123">
      <path
         d="m 69.324,287.187 a 2.06,2.06 0 0 1 1.949,2.72 0.135,0.135 0 0 1 -0.116,0.074 c -0.068,0 -0.12,-0.086 -0.12,-0.154 a 1.81,1.81 0 0 0 -1.712,-2.39 1.81,1.81 0 0 0 -1.712,2.39 c 0,0.068 -0.052,0.154 -0.12,0.154 a 0.135,0.135 0 0 1 -0.116,-0.074 2.057,2.057 0 0 1 1.947,-2.72 z"
         id="path119"
         inkscape:connector-curvature="0" />
      <path
         d="m 68.036,291.157 v -1.291 a 0.6455,0.6455 0 0 0 0,1.291 z m 2.577,0 v -1.291 a 0.6455,0.6455 0 0 1 0,1.291 z"
         id="path121"
         inkscape:connector-curvature="0" />
    </g>
  </g>
  <g
     id="g135"
     transform="translate(6.5582372e-8,-0.00250173)">
    <path
       d="m 40.412,223.849 h -9.364 a 1.875,1.875 0 0 1 -1.874,-1.873 V 209.255 H 16.76 a 1.877,1.877 0 0 1 -1.874,-1.874 v -9.363 c 0,-1.034 0.84,-1.874 1.874,-1.874 H 29.174 V 183.73 c 0,-1.034 0.84,-1.875 1.874,-1.875 h 9.364 c 1.033,0 1.874,0.841 1.874,1.875 v 12.414 H 54.09 c 1.033,0 1.874,0.84 1.874,1.874 v 9.363 a 1.876,1.876 0 0 1 -1.874,1.873 H 42.286 v 12.721 c 0,1.034 -0.84,1.874 -1.874,1.874 z"
       id="path127"
       inkscape:connector-curvature="0"
       style="fill:#212121" />
    <circle
       cx="35.424999"
       cy="202.85201"
       r="5.4580002"
       id="circle129"
       style="fill:#191919" />
    <g
       id="g133"
       style="fill:#191919">
      <path
         d="M 44.158,208.31 H 43.26 c -0.555,0 -1.01,-0.454 -1.01,-1.01 v -8.897 c 0,-0.555 0.454,-1.01 1.01,-1.01 h 0.897 c 0.555,0 1.01,0.454 1.01,1.01 v 8.897 c 0,0.556 -0.454,1.01 -1.009,1.01 z m 4.145,0 h -0.897 c -0.555,0 -1.01,-0.454 -1.01,-1.01 v -8.897 c 0,-0.555 0.454,-1.01 1.01,-1.01 h 0.897 c 0.555,0 1.01,0.454 1.01,1.01 v 8.897 c 0,0.556 -0.454,1.01 -1.01,1.01 z m 4.146,0 h -0.897 c -0.555,0 -1.01,-0.454 -1.01,-1.01 v -8.897 c 0,-0.555 0.454,-1.01 1.01,-1.01 h 0.897 c 0.555,0 1.01,0.454 1.01,1.01 v 8.897 c 0,0.556 -0.454,1.01 -1.01,1.01 z M 40.884,194.12 v 0.897 c 0,0.555 -0.454,1.01 -1.01,1.01 h -8.897 c -0.555,0 -1.01,-0.454 -1.01,-1.01 v -0.897 c 0,-0.555 0.454,-1.01 1.01,-1.01 h 8.897 c 0.555,0 1.01,0.454 1.01,1.01 z m 0,-4.146 v 0.897 c 0,0.555 -0.454,1.01 -1.01,1.01 h -8.897 c -0.555,0 -1.01,-0.454 -1.01,-1.01 v -0.897 c 0,-0.555 0.454,-1.01 1.01,-1.01 h 8.897 c 0.555,0 1.01,0.454 1.01,1.01 z m 0,-4.146 v 0.897 c 0,0.555 -0.454,1.01 -1.01,1.01 h -8.897 c -0.555,0 -1.01,-0.454 -1.01,-1.01 v -0.897 c 0,-0.555 0.454,-1.01 1.01,-1.01 h 8.897 c 0.555,0 1.01,0.454 1.01,1.01 z m -10.917,25.756 v -0.897 c 0,-0.555 0.454,-1.01 1.01,-1.01 h 8.897 c 0.555,0 1.01,0.454 1.01,1.01 v 0.897 c 0,0.555 -0.454,1.01 -1.01,1.01 h -8.897 c -0.556,0 -1.01,-0.454 -1.01,-1.01 z m 0,4.146 v -0.897 c 0,-0.555 0.454,-1.01 1.01,-1.01 h 8.897 c 0.555,0 1.01,0.454 1.01,1.01 v 0.897 c 0,0.555 -0.454,1.01 -1.01,1.01 h -8.897 c -0.556,0 -1.01,-0.455 -1.01,-1.01 z m 0,4.146 v -0.897 c 0,-0.555 0.454,-1.01 1.01,-1.01 h 8.897 c 0.555,0 1.01,0.454 1.01,1.01 v 0.897 c 0,0.555 -0.454,1.01 -1.01,1.01 h -8.897 c -0.556,0 -1.01,-0.455 -1.01,-1.01 z m -3.274,-22.482 h 0.897 c 0.555,0 1.01,0.454 1.01,1.01 v 8.897 c 0,0.555 -0.454,1.01 -1.01,1.01 h -0.897 c -0.555,0 -1.01,-0.454 -1.01,-1.01 v -8.897 c 0,-0.556 0.454,-1.01 1.01,-1.01 z m -4.146,0 h 0.897 c 0.555,0 1.01,0.454 1.01,1.01 v 8.897 c 0,0.555 -0.454,1.01 -1.01,1.01 h -0.897 c -0.555,0 -1.01,-0.454 -1.01,-1.01 v -8.897 c 0,-0.556 0.455,-1.01 1.01,-1.01 z m -4.146,0 h 0.897 c 0.555,0 1.01,0.454 1.01,1.01 v 8.897 c 0,0.555 -0.454,1.01 -1.01,1.01 h -0.897 c -0.555,0 -1.01,-0.454 -1.01,-1.01 v -8.897 c 0,-0.556 0.455,-1.01 1.01,-1.01 z"
         id="path131"
         inkscape:connector-curvature="0" />
    </g>
  </g>
</svg>
