<?xml version="1.0" encoding="UTF-8" standalone="no"?>
<svg
   xmlns:dc="http://purl.org/dc/elements/1.1/"
   xmlns:cc="http://creativecommons.org/ns#"
   xmlns:rdf="http://www.w3.org/1999/02/22-rdf-syntax-ns#"
   xmlns:svg="http://www.w3.org/2000/svg"
   xmlns="http://www.w3.org/2000/svg"
   xmlns:sodipodi="http://sodipodi.sourceforge.net/DTD/sodipodi-0.dtd"
   xmlns:inkscape="http://www.inkscape.org/namespaces/inkscape"
   width="400"
   height="429.08398"
   version="1.1"
   id="svg44"
   sodipodi:docname="console.svg"
   inkscape:version="0.92.4 5da689c313, 2019-01-14">
  <metadata
     id="metadata50">
    <rdf:RDF>
      <cc:Work
         rdf:about="">
        <dc:format>image/svg+xml</dc:format>
        <dc:type
           rdf:resource="http://purl.org/dc/dcmitype/StillImage" />
      </cc:Work>
    </rdf:RDF>
  </metadata>
  <defs
     id="defs48" />
  <sodipodi:namedview
     pagecolor="#ffffff"
     bordercolor="#666666"
     borderopacity="1"
     objecttolerance="10"
     gridtolerance="10"
     guidetolerance="10"
     inkscape:pageopacity="0"
     inkscape:pageshadow="2"
     inkscape:window-width="471"
     inkscape:window-height="442"
     id="namedview46"
     showgrid="false"
     inkscape:zoom="0.55000888"
     inkscape:cx="200"
     inkscape:cy="214.54199"
     inkscape:window-x="0"
     inkscape:window-y="0"
     inkscape:window-maximized="0"
     inkscape:current-layer="svg44" />
  <path
     d="M 395.88615,424.77879 H 4.0181775 C 1.817747,424.77879 0,422.96104 0,420.76061 V 4.018207 C 0,1.817777 1.817747,3e-5 4.0181775,3e-5 H 395.98182 C 398.18225,3e-5 400,1.817777 400,4.018207 V 420.85628 c -0.0957,2.10476 -1.91342,3.92251 -4.11385,3.92251 z"
     id="path2"
     inkscape:connector-curvature="0"
     style="fill:#524c82" />
  <circle
     cx="42.095192"
     cy="104.85533"
     r="24.396078"
     id="circle4" />
  <circle
     cx="42.095192"
     cy="104.85533"
     r="23.917723"
     id="circle6"
     style="fill:#cbc9e0" />
  <circle
     cx="42.095192"
     cy="369.86371"
     r="24.396078"
     id="circle8" />
  <circle
     cx="42.095192"
     cy="369.86371"
     r="23.917723"
     id="circle10"
     style="fill:#463371" />
  <circle
     cx="357.80914"
     cy="369.95938"
     r="24.396078"
     id="circle12" />
  <circle
     cx="357.80914"
     cy="369.95938"
     r="23.917723"
     id="circle14"
     style="fill:#453371" />
  <circle
     cx="357.80914"
     cy="369.95938"
     r="12.437216"
     id="circle16"
     style="fill:#524c82" />
  <path
     d="m 203.97034,386.51043 h -4.01818 c -33.48481,0.19134 -74.71896,-1.24372 -126.381244,-12.91557 l -0.956709,-0.0957 0.09567,-0.95671 c 0.09567,-0.86104 0.09567,-1.72207 0.09567,-2.58311 0,-16.83808 -13.776609,-30.61469 -30.614686,-30.61469 H 41.234153 V 135.85267 h 0.956708 c 16.838077,0 30.614686,-13.77661 30.614686,-30.61469 0,-16.838079 -13.776609,-30.614684 -30.710356,-30.614684 H 41.138482 V 0 h 1.913417 v 72.709878 c 17.507774,0.478354 31.571395,14.924663 31.571395,32.528102 0,17.60344 -14.063621,32.04975 -31.571395,32.5281 v 199.66516 c 17.507774,0.47835 31.571395,14.92465 31.571395,32.5281 0,0.66969 0,1.24372 -0.09567,1.91342 51.183926,11.4805 92.035396,12.91557 125.328866,12.72423 33.29347,0.0957 74.14495,-1.24373 125.42454,-12.72423 0,-0.6697 -0.0957,-1.24373 -0.0957,-1.91342 0,-17.60345 14.06362,-32.04975 31.5714,-32.5281 V 0 h 1.91341 v 339.24898 h -0.9567 c -16.83808,0 -30.61469,13.77661 -30.61469,30.61469 0,0.86104 0,1.72207 0.0957,2.58311 l 0.0957,0.95671 -0.95671,0.0957 c -49.65319,11.1935 -89.54795,13.01124 -122.36307,13.01124 z"
     id="path18"
     inkscape:connector-curvature="0"
     style="fill:#20203a" />
  <g
     id="g26"
     style="fill:#483573">
    <path
       d="m 277.7326,33.389171 c -5.74025,0 -9.56709,-4.209519 -9.56709,-9.280076 0,-5.070557 3.82684,-9.375748 9.56709,-9.280077 h 54.2454 c 5.74025,0 9.56708,4.20952 9.56708,9.280077 0,5.070557 -3.82683,9.280076 -9.56708,9.280076 z m 0,-16.264051 c -4.5922,0 -7.36666,3.157139 -7.36666,6.983975 0,3.922506 2.77446,7.079646 7.36666,6.983975 h 54.14972 c 4.59221,0 7.36666,-3.15714 7.36666,-6.983975 0,-3.922507 -2.77445,-6.983975 -7.36666,-6.983975 z"
       id="path20"
       inkscape:connector-curvature="0" />
    <path
       d="m 275.4365,19.708234 h 2.67878 l 3.6355,6.122937 v -6.122937 h 2.58311 v 8.801722 h -2.58311 l -3.73117,-6.122937 v 6.122937 h -2.67878 z m 23.24802,0.956709 h 2.58312 v 1.14805 h 1.33939 v 0.861038 h -1.33939 v 5.835925 h -2.58312 v -5.835925 h -1.43506 v -0.861038 h 1.43506 z m -12.81989,2.009088 h 2.58311 v 5.835925 h -2.58311 z m 0,-2.965797 h 2.58311 v 1.817747 h -2.58311 z m 44.77397,2.583114 c -2.10476,0 -3.73116,1.435063 -3.73116,3.25281 0,1.817747 1.72207,3.25281 3.73116,3.25281 2.10476,0 3.73117,-1.435063 3.73117,-3.25281 0.0957,-1.817747 -1.62641,-3.25281 -3.73117,-3.25281 m 1.05238,3.25281 v 1.243722 c 0,0.956709 -0.57402,1.339392 -1.05238,1.339392 -0.47835,0 -1.05238,-0.382683 -1.05238,-1.339392 v -2.487443 c 0,-0.956709 0.57403,-1.339393 1.05238,-1.339393 0.47836,0 1.05238,0.382684 1.05238,1.339393 z m -8.13202,0 v -1.05238 c 0,-0.861038 -0.57403,-1.14805 -0.95671,-1.14805 -0.38269,0 -0.95671,0.191341 -0.95671,1.14805 v 2.10476 c 0,0.861038 0.57402,1.148051 0.95671,1.148051 0.38268,0 0.95671,-0.191342 0.95671,-1.148051 z m 0,-5.835924 h 2.48744 v 8.801722 h -2.48744 v -0.382684 c -0.95671,0.669696 -2.10476,0.669696 -2.9658,0.191342 -0.19134,-0.09567 -1.72208,-0.861038 -1.72208,-2.870127 0,-1.530734 1.43507,-3.25281 3.25281,-3.061468 0.57403,0.09567 1.05238,0.287012 1.43507,0.478354 z m -29.17963,2.678785 c 0.95671,0 2.87013,0.574025 2.87013,2.965797 v 3.15714 h -2.58311 V 24.68312 c 0,-0.478354 -0.47836,-1.05238 -1.14805,-1.05238 -0.6697,0 -1.24372,0.574026 -1.24372,1.05238 v 3.826836 h -2.58312 v -5.835925 h 2.58312 v 0.574026 c 0.57402,-0.478355 1.24372,-0.861038 2.10475,-0.861038 m 20.76059,0 c 0.95671,0 2.87013,0.574025 2.87013,2.965797 v 3.15714 h -2.58312 V 24.68312 c 0,-0.478354 -0.47835,-1.05238 -1.14805,-1.05238 -0.6697,0 -1.24372,0.574026 -1.24372,1.05238 v 3.826836 h -2.58312 v -5.835925 h 2.58312 v 0.574026 c 0.57402,-0.478355 1.33939,-0.861038 2.10476,-0.861038 m -8.03636,4.113848 v 0.382684 c 0,1.052379 -0.66969,1.339392 -1.05238,1.339392 -0.38268,0 -1.05238,-0.191342 -1.05238,-1.339392 v -1.243722 h 4.78355 c 0,-1.817747 -1.72208,-3.348481 -3.73117,-3.348481 -2.10476,0 -3.73116,1.435063 -3.73116,3.25281 0,1.817747 1.72207,3.25281 3.73116,3.25281 1.72208,0 3.15714,-1.052379 3.6355,-2.391772 z M 304.9988,24.68312 c 0,-0.478354 0,-0.861038 0.19135,-1.148051 0.19134,-0.382683 0.57402,-0.574025 0.86103,-0.574025 0.28702,0 0.6697,0.191342 0.86104,0.574025 0.19134,0.287013 0.19134,0.669697 0.19134,1.148051 z m 29.94499,-4.018177 c 0.28702,0 0.47836,0 0.47836,-0.287013 0,-0.287013 -0.19134,-0.287013 -0.38269,-0.287013 h -0.38268 v 0.574026 z m -0.38268,1.14805 h -0.28701 v -2.009088 h 0.76536 c 0.47836,0 0.6697,0.191341 0.6697,0.574025 0,0.382684 -0.19134,0.478354 -0.47835,0.574025 l 0.57402,0.861038 h -0.28701 l -0.47836,-0.861038 h -0.38268 v 0.861038 z"
       id="path22"
       inkscape:connector-curvature="0" />
    <path
       d="m 334.94379,22.291348 c 0.76537,0 1.3394,-0.574026 1.3394,-1.435064 0,-0.861038 -0.57403,-1.435063 -1.3394,-1.435063 -0.76536,0 -1.33939,0.574025 -1.33939,1.435063 0,0.765368 0.57403,1.435064 1.33939,1.435064 m -1.72207,-1.435064 c 0,-0.956708 0.76536,-1.722076 1.72207,-1.722076 0.95671,0 1.72208,0.765368 1.72208,1.722076 0,0.956709 -0.76537,1.722077 -1.72208,1.722077 -0.95671,0 -1.72207,-0.765368 -1.72207,-1.722077"
       id="path24"
       inkscape:connector-curvature="0" />
  </g>
  <path
     d="m 252.7625,383.73598 c -19.22985,1.53073 -36.73763,1.81774 -52.81034,1.72207 -16.16838,0.0957 -33.58048,-0.28701 -52.81033,-1.72207 7.74934,8.51471 28.41426,14.63764 52.81033,14.63764 24.30041,0.0957 45.06099,-6.02726 52.81034,-14.63764"
     id="path28"
     inkscape:connector-curvature="0"
     style="fill:#f2a136" />
  <path
     d="m 236.88113,385.93641 c -13.4896,1.05238 -25.73547,1.24372 -37.02464,1.24372 -11.28916,0 -23.53504,-0.19134 -37.02463,-1.24372 5.45324,6.02726 19.89954,10.23678 36.92896,10.23678 17.12509,0.0957 31.66707,-4.20952 37.12031,-10.23678"
     id="path30"
     inkscape:connector-curvature="0"
     style="fill:#e58b48" />
  <circle
     cx="199.95216"
     cy="218.12967"
     r="111.45659"
     id="circle32" />
  <path
     d="m 236.68979,273.61878 21.23894,27.84023 -0.0957,-0.0957 c -16.45539,11.48051 -36.45061,18.17747 -57.97656,18.17747 -21.43028,0 -41.32982,-6.69696 -57.78522,-18.0818 l 21.23894,-27.84023 c 10.42813,6.98398 22.96102,11.00215 36.45061,11.00215 13.68094,0 26.3095,-4.11385 36.8333,-11.28916 l 0.0957,0.28701 z"
     id="path34"
     inkscape:connector-curvature="0"
     style="fill:#393939" />
  <path
     d="m 166.85004,283.47288 -17.31644,22.674 c 14.82899,8.51471 32.04975,13.39393 50.41856,13.39393 21.52596,0 41.52117,-6.69696 57.97657,-18.17747 l -17.50778,-22.96102 c -11.09782,8.80173 -26.11815,13.87228 -40.46879,13.87228 -12.05453,0 -23.34369,-3.15714 -33.10212,-8.80172"
     id="path36"
     inkscape:connector-curvature="0"
     style="fill:#cbc9e0" />
  <path
     d="m 208.27553,199.18683 v -1.24373 h -3.53982 c -0.47836,0 -0.86104,0.0957 -1.24372,0.28702 -0.38269,0.19134 -0.6697,0.38268 -0.86104,0.76536 -0.19134,0.28702 -0.28701,0.6697 -0.38268,0.95671 v 3.82684 c 0,0.38268 0.0957,0.6697 0.28701,0.95671 0.19134,0.28701 0.57402,0.57402 0.86104,0.76537 0.38268,0.19134 0.76536,0.28701 1.24372,0.28701 h 3.53982 v -1.24372 h -3.44415 c -0.28701,0 -0.57403,-0.0957 -0.76537,-0.19135 -0.19134,-0.19134 -0.28701,-0.28701 -0.28701,-0.57402 v -1.43506 h 4.49653 v -1.24373 H 203.779 v -1.05238 c 0,-0.28701 0.0957,-0.47835 0.28701,-0.57402 0.19134,-0.19134 0.47836,-0.19134 0.76537,-0.19134 h 3.44415 v -0.0957 z m 9.08874,6.60129 v -6.12294 l 3.15714,6.12294 h 1.53073 v -7.84502 h -1.53073 v 4.97489 l -2.58312,-4.97489 h -2.10476 v 7.84502 h 1.53074 m 12.24587,-7.84502 v 7.84502 h 3.73117 c 0.47835,0 0.86103,-0.0957 1.24372,-0.28701 0.38268,-0.19135 0.66969,-0.38269 0.95671,-0.76537 0.19134,-0.28701 0.28701,-0.6697 0.38268,-1.05238 v -3.73117 c 0,-0.38268 -0.0957,-0.66969 -0.38268,-0.95671 -0.19135,-0.28701 -0.57403,-0.57402 -0.95671,-0.76536 -0.38269,-0.19134 -0.76537,-0.28702 -1.24372,-0.28702 z m 4.49653,1.43507 c 0.19134,0.19134 0.28702,0.38268 0.38269,0.57402 v 3.73117 c 0,0.28701 -0.0957,0.47835 -0.38269,0.57402 -0.19134,0.19135 -0.47835,0.28702 -0.76536,0.28702 h -2.20043 v -5.35757 h 2.20043 c 0.28701,0 0.47835,0.0957 0.76536,0.19134 z m 14.06362,-1.24372 c -0.38268,-0.19135 -0.76536,-0.28702 -1.24372,-0.28702 h -1.33939 c -0.47835,0 -0.86104,0.0957 -1.24372,0.28702 -0.38269,0.19134 -0.6697,0.38268 -0.95671,0.76536 -0.19134,0.28702 -0.38268,0.6697 -0.38268,1.05238 v 3.92251 c 0,0.38268 0.0957,0.6697 0.38268,0.95671 0.19134,0.28701 0.57402,0.57402 0.95671,0.76537 0.38268,0.19134 0.76537,0.28701 1.24372,0.28701 h 1.33939 c 0.47836,0 0.86104,-0.0957 1.24372,-0.28701 0.38269,-0.19135 0.6697,-0.38269 0.95671,-0.76537 0.19134,-0.28701 0.38269,-0.6697 0.38269,-0.95671 v -3.92251 c 0,-0.38268 -0.0957,-0.76536 -0.38269,-1.05238 -0.28701,-0.28701 -0.57402,-0.57402 -0.95671,-0.76536 z m -0.57402,1.24372 c 0.19134,0.19134 0.38268,0.38268 0.38268,0.57402 v 3.82684 c 0,0.19134 -0.0957,0.38268 -0.38268,0.57402 -0.19134,0.19135 -0.47836,0.28702 -0.76537,0.28702 h -1.24372 c -0.28701,0 -0.57403,-0.0957 -0.76537,-0.28702 -0.19134,-0.19134 -0.28701,-0.38268 -0.28701,-0.57402 v -3.82684 c 0,-0.19134 0.0957,-0.38268 0.28701,-0.57402 0.19134,-0.19134 0.47836,-0.19134 0.76537,-0.28701 h 1.24372 c 0.28701,0 0.57403,0.0957 0.76537,0.28701 z m 3.73116,11.28916 v -2.10476 h -10.81081 v 10.14112 h 10.90648 v -2.2961 h -8.03635 v -1.91342 h 4.5922 v -2.10476 h -4.5922 v -1.72208 h 7.94068 m -11.95886,0 c 0,-0.66969 -0.19134,-1.24372 -0.57402,-1.6264 -0.38269,-0.38269 -1.05238,-0.57403 -1.91342,-0.57403 h -8.89739 v 10.14112 h 8.22769 c 2.20043,0 3.25281,-0.76537 3.25281,-2.20043 v -1.24372 c 0,-0.86104 -0.38268,-1.43507 -1.14805,-1.81775 0.6697,-0.28701 1.05238,-0.86104 1.05238,-1.62641 z m -2.77445,0.0957 c 0.0957,0.0957 0.19134,0.19135 0.0957,0.38269 v 0.95671 c 0,0.0957 0,0.28701 -0.0957,0.28701 l -0.6697,0.0957 h -5.07056 v -1.81775 h 5.07056 c 0.38268,-0.0957 0.6697,0 0.6697,0.0957 z m -5.74026,5.74026 v -2.00909 h 5.07056 c 0.38268,0 0.57403,0.0957 0.76537,0.0957 0.0957,0.0957 0.19134,0.28701 0.19134,0.47835 v 0.76537 c 0,0.19134 -0.0957,0.38269 -0.19134,0.47836 -0.0957,0.0957 -0.38269,0.19134 -0.76537,0.19134 h -5.07056 z m -4.11385,-7.94069 h -2.87012 v 7.84502 h -6.12294 v -7.84502 h -2.87013 v 7.65368 c 0,0.66969 0.0957,1.14805 0.28702,1.53073 0.19134,0.38268 0.47835,0.6697 0.86103,0.76537 0.38269,0.19134 0.95671,0.28701 1.62641,0.19134 h 6.31428 c 0.66969,0 1.24372,-0.0957 1.6264,-0.19134 0.38269,-0.19135 0.6697,-0.38269 0.86104,-0.76537 0.19134,-0.38268 0.28701,-0.86104 0.28701,-1.53073 z m -13.20258,1.05238 c -0.19134,-0.38268 -0.47835,-0.66969 -0.86104,-0.76536 -0.38268,-0.19135 -0.95671,-0.19135 -1.6264,-0.19135 h -6.21861 c -0.6697,0 -1.24372,0.0957 -1.62641,0.19135 -0.38268,0.19134 -0.66969,0.38268 -0.86103,0.76536 -0.19134,0.38269 -0.28702,0.86104 -0.28702,1.53074 v 5.07056 c 0,0.66969 0.0957,1.14805 0.28702,1.53073 0.19134,0.38268 0.47835,0.6697 0.86103,0.76537 0.38269,0.19134 0.95671,0.28701 1.62641,0.19134 h 6.21861 c 0.66969,0 1.24372,-0.0957 1.6264,-0.19134 0.38269,-0.19135 0.6697,-0.38269 0.86104,-0.76537 0.19134,-0.38268 0.28701,-0.86104 0.28701,-1.53073 v -1.91342 h -2.87012 v 2.10476 h -6.02727 v -5.64459 h 6.02727 v 1.81775 h 2.87012 v -1.53073 c 0,-0.57403 -0.0957,-1.14805 -0.28701,-1.43507 z m -13.48959,1.05238 v -2.10476 h -10.81082 v 10.14112 h 10.90649 v -2.2961 h -8.03636 v -1.91342 h 4.5922 v -2.10476 h -4.5922 v -1.72208 h 7.94069 m -43.14758,-12.72423 h -1.53073 v 4.97489 l -2.58312,-4.97489 h -2.10475 v 7.84502 h 1.53073 v -6.12294 l 3.15714,6.12294 h 1.53073 v -7.84502 m 10.33246,7.84502 v -7.84502 h -1.72208 v 7.84502 h 1.72208 m 10.23678,0 v -6.12294 l 3.15714,6.12294 h 1.53074 v -7.84502 h -1.62641 v 4.97489 l -2.58311,-4.97489 h -2.10476 v 7.84502 h 1.6264 m 11.57618,-7.84502 v 1.24373 h 2.58312 v 6.60129 h 1.6264 v -6.60129 h 2.67879 v -1.24373 h -6.88831 m -3.63549,10.61947 -4.30519,7.17532 -4.30519,-7.17532 h -2.58312 v 8.32337 l -5.07055,-8.32337 h -2.48745 l -6.12293,10.14112 h 7.65367 v -2.2961 h -3.44415 l 3.15714,-5.07056 4.20951,7.36666 h 4.68788 v -5.45324 l 3.25281,5.45324 h 2.10476 l 3.25281,-5.45324 v 5.45324 h 2.58311 V 208.5626 h -2.58311 m -24.58742,2.20043 v -2.20043 h -9.56709 c -0.6697,0 -1.24372,0.0957 -1.6264,0.19135 -0.38269,0.19134 -0.6697,0.38268 -0.86104,0.76536 -0.19134,0.38269 -0.28702,0.86104 -0.28702,1.53074 v 5.07055 c 0,0.6697 0.0957,1.14805 0.28702,1.53074 0.19134,0.38268 0.47835,0.66969 0.86104,0.76537 0.38268,0.19134 0.9567,0.28701 1.6264,0.19134 h 6.98398 c 0.9567,0 1.72207,-0.19134 2.10476,-0.57403 0.38268,-0.38268 0.57402,-1.05238 0.57402,-2.00909 v -3.63549 h -6.60129 v 2.10476 h 3.82683 v 1.72208 h -6.79263 v -5.64459 h 9.47142 z"
     id="path38"
     inkscape:connector-curvature="0"
     style="fill:#b7b7b7;fill-rule:evenodd" />
  <path
     d="m 58.93327,75.771376 c 0.861038,-2.391772 1.243721,-3.635494 2.104759,-6.027266 0.669696,0.191342 0.956709,0.382684 1.626405,0.669696 l 1.148051,0.574026 c 0.287013,0.191342 0.382684,0.574025 0.478355,0.861038 0,0.382683 -0.09567,0.765367 -0.287013,1.243721 -0.191342,0.382684 -0.478355,0.765368 -0.765367,0.956709 -0.287013,0.191342 -0.574026,0.287013 -0.861038,0.382684 -0.287013,0 -0.669697,-0.09567 -1.243722,-0.287013 -0.191342,-0.09567 -0.382683,-0.09567 -0.574025,-0.191342 -0.382684,0.861038 -0.478355,1.339393 -0.861038,2.296102 -0.191342,-0.287013 -0.382684,-0.287013 -0.765367,-0.478355 z m 2.774455,-4.592202 c -0.287012,0.669696 -0.382683,1.052379 -0.669696,1.722076 0.191342,0.09567 0.287013,0.09567 0.478355,0.191341 0.382683,0.09567 0.574025,0.191342 0.765367,0.191342 0.191342,0 0.287012,0 0.382683,-0.09567 0.09567,-0.09567 0.287013,-0.287012 0.382684,-0.478354 0.09567,-0.191342 0.09567,-0.382684 0.09567,-0.574026 0,-0.191341 -0.09567,-0.287012 -0.191342,-0.382683 -0.09567,-0.09567 -0.382684,-0.287013 -0.765367,-0.382684 -0.191342,-0.09567 -0.287013,-0.09567 -0.478355,-0.191341 z m 3.826836,4.209519 c 0.382684,-0.669696 0.765367,-1.148051 1.243722,-1.435064 0.478354,-0.287012 0.861038,-0.478354 1.339392,-0.478354 0.478355,0 0.861038,0.191342 1.339393,0.478354 0.574025,0.478355 0.956709,1.05238 0.956709,1.817747 0,0.765367 -0.382684,1.530735 -1.05238,2.296102 -0.669696,0.861038 -1.435064,1.339392 -2.10476,1.530734 -0.574025,0.191342 -1.148051,0.09567 -1.626405,-0.287013 -0.478354,-0.382683 -0.765367,-0.861038 -0.765367,-1.530734 -0.09567,-0.669696 0.09567,-1.435063 0.669696,-2.391772 z m 0.861038,0.478354 c -0.382683,0.669696 -0.574025,1.148051 -0.574025,1.626405 0,0.478355 0.09567,0.765368 0.382683,0.956709 0.287013,0.191342 0.669697,0.191342 1.05238,0.09567 0.382684,-0.191342 0.861038,-0.478354 1.339393,-1.14805 0.478354,-0.574026 0.669696,-1.05238 0.765367,-1.530735 0,-0.478354 -0.191342,-0.765367 -0.478355,-1.05238 -0.382683,-0.287012 -0.765367,-0.287012 -1.14805,-0.191341 -0.478355,0.287012 -0.956709,0.669696 -1.339393,1.243722 z m 2.965798,6.696964 c 1.626405,-2.00909 2.296101,-3.157141 3.731165,-5.2619 l 0.765367,0.765367 c -1.05238,1.435063 -1.626405,2.104759 -2.678785,3.539823 1.530734,-0.95671 2.296101,-1.339393 3.922506,-2.200431 0.287013,0.382684 0.478355,0.574026 0.765367,0.956709 -1.14805,1.435062 -1.817746,2.104762 -3.061468,3.444152 1.626405,-0.86104 2.391772,-1.24372 4.113848,-2.00909 0.287013,0.38269 0.382684,0.57403 0.574026,0.86104 -2.391773,0.95671 -3.635494,1.53073 -5.931596,2.67878 -0.191341,-0.28701 -0.287012,-0.47835 -0.574025,-0.76536 1.339392,-1.43507 1.913418,-2.20043 3.157139,-3.73117 -1.722076,0.95671 -2.583114,1.43507 -4.209519,2.39177 -0.191342,-0.28701 -0.287013,-0.38268 -0.574025,-0.66969 z m 3.922506,5.35757 c 2.200431,-1.24372 3.348482,-1.81775 5.644583,-3.06147 0.765367,1.33939 1.05238,2.10476 1.722076,3.53982 -0.382684,0.19134 -0.574025,0.28702 -1.05238,0.38269 -0.382683,-1.05238 -0.669696,-1.53074 -1.14805,-2.48745 -0.478355,0.28702 -0.765368,0.38269 -1.243722,0.6697 0.478354,0.86104 0.669696,1.33939 1.05238,2.20043 -0.382684,0.19134 -0.574026,0.28701 -0.956709,0.38268 -0.382684,-0.86103 -0.574026,-1.33939 -0.956709,-2.20043 l -1.530734,0.76537 c 0.478354,0.86104 0.669696,1.33939 1.052379,2.2961 -0.382683,0.19134 -0.574025,0.28701 -1.052379,0.38269 -0.669697,-1.14806 -0.956709,-1.72208 -1.530735,-2.87013 z m 2.10476,5.16623 c 2.487443,-0.76537 3.731165,-1.05238 6.122937,-1.81775 0.287013,0.86104 0.382684,1.33939 0.574025,2.20043 0.09567,0.57403 0.191342,0.95671 0.09567,1.24372 -0.09567,0.28701 -0.191341,0.47836 -0.478354,0.6697 -0.287013,0.19134 -0.574025,0.28701 -0.956709,0.38268 -0.478355,0.0957 -0.956709,0 -1.243722,-0.19134 -0.382683,-0.19134 -0.574025,-0.47835 -0.765367,-0.86104 -0.09567,0.19134 -0.287012,0.47836 -0.478354,0.57403 -0.191342,0.19134 -0.478355,0.38268 -0.956709,0.66969 -0.478355,0.28702 -0.669696,0.47836 -1.148051,0.76537 -0.09567,-0.38268 -0.09567,-0.6697 -0.191342,-1.05238 0.478355,-0.38268 0.765367,-0.57402 1.243722,-0.86104 0.478354,-0.38268 0.765367,-0.57402 0.861038,-0.66969 0.09567,-0.0957 0.191342,-0.19135 0.191342,-0.38269 v -0.47835 c 0,-0.0957 0,-0.0957 -0.09567,-0.19134 -1.05238,0.28701 -1.530734,0.38268 -2.583114,0.66969 0,-0.19134 -0.09567,-0.28701 -0.191342,-0.66969 z m 3.826836,-0.0957 c 0.09567,0.28701 0.09567,0.47835 0.191341,0.76536 0.09567,0.47836 0.191342,0.76537 0.287013,0.86104 l 0.287013,0.28701 c 0.09567,0.0957 0.287012,0.0957 0.478354,0 0.191342,0 0.382684,-0.0957 0.478355,-0.19134 0.09567,-0.0957 0.191342,-0.19134 0.191342,-0.38268 0,-0.0957 0,-0.38269 -0.09567,-0.86104 -0.09567,-0.28701 -0.09567,-0.47835 -0.191342,-0.76537 -0.669696,0.0957 -0.956709,0.19135 -1.626406,0.28702 z M 55.489117,338.77066 c 0.478355,-2.2961 0.669697,-3.44415 1.148051,-5.83593 1.243722,0.28702 1.817747,0.38269 3.061469,0.76537 0.765367,0.19134 1.243721,0.47836 1.530734,0.6697 0.287013,0.19134 0.478354,0.47835 0.574025,0.76536 0.09567,0.28702 0.09567,0.6697 -0.09567,0.95671 -0.191341,0.38269 -0.478354,0.6697 -0.861038,0.86104 -0.382683,0.19134 -0.861038,0.19134 -1.435063,0.0957 0.191342,0.19134 0.382684,0.47836 0.478354,0.6697 0.09567,0.19134 0.191342,0.57402 0.287013,1.14805 0.09567,0.57402 0.191342,0.76537 0.191342,1.33939 -0.478355,-0.19134 -0.765367,-0.28701 -1.339393,-0.57402 -0.191341,-0.57403 -0.191341,-0.86104 -0.382683,-1.53074 -0.191342,-0.57402 -0.287013,-0.86104 -0.382684,-1.05238 -0.09567,-0.19134 -0.191341,-0.28701 -0.287012,-0.38268 -0.09567,-0.0957 -0.287013,-0.19134 -0.669697,-0.19134 -0.09567,0 -0.191341,0 -0.287012,-0.0957 -0.191342,0.9567 -0.382684,1.43506 -0.574026,2.39177 -0.191341,0.19134 -0.478354,0.0957 -0.956709,0 z m 2.009089,-3.06147 c 0.382684,0.0957 0.574026,0.19134 0.956709,0.28701 0.574025,0.19134 0.956709,0.28701 1.148051,0.28701 0.191342,0 0.287012,0 0.478354,-0.0957 0.09567,-0.0957 0.287013,-0.19134 0.287013,-0.38268 0.09567,-0.19134 0.09567,-0.38268 0,-0.47835 -0.09567,-0.19135 -0.191342,-0.28702 -0.382684,-0.38269 -0.09567,-0.0957 -0.478354,-0.19134 -1.14805,-0.38268 -0.478355,-0.0957 -0.669697,-0.19134 -1.05238,-0.28701 -0.09567,0.57402 -0.09567,0.86103 -0.287013,1.43506 z m 3.635494,4.87921 c 1.05238,-2.10475 1.530734,-3.25281 2.487443,-5.35757 1.913418,0.95671 2.870127,1.43507 4.592203,2.67879 -0.191342,0.28701 -0.382683,0.47835 -0.574025,0.86104 -1.243722,-0.86104 -1.913418,-1.24372 -3.252811,-2.00909 -0.287012,0.47835 -0.382683,0.6697 -0.574025,1.14805 1.148051,0.6697 1.722076,0.95671 2.870127,1.72208 -0.191342,0.28701 -0.382684,0.47835 -0.574026,0.86103 -1.052379,-0.76536 -1.626405,-1.05238 -2.774455,-1.72207 -0.287013,0.57402 -0.478355,0.86104 -0.765368,1.43506 1.243722,0.6697 1.817747,0.95671 2.870127,1.81775 -0.191342,0.28701 -0.382683,0.47835 -0.574025,0.86104 -1.339393,-1.05238 -2.10476,-1.53074 -3.731165,-2.29611 z m 5.548912,1.14806 c 0.382683,0.28701 0.669696,0.38268 1.05238,0.66969 -0.382684,0.6697 -0.287013,1.24372 0.287012,1.72208 0.287013,0.28701 0.574026,0.38268 0.765367,0.47835 0.287013,0 0.478355,0 0.669697,-0.19134 0.09567,-0.0957 0.191341,-0.19134 0.191341,-0.28701 0,-0.0957 0,-0.28701 -0.09567,-0.38269 -0.09567,-0.19134 -0.287013,-0.47835 -0.669697,-1.05238 -0.287012,-0.47835 -0.574025,-0.86103 -0.669696,-1.14805 -0.09567,-0.28701 -0.191342,-0.57402 -0.09567,-0.86103 0,-0.28702 0.09567,-0.57403 0.287013,-0.76537 0.191342,-0.28701 0.478354,-0.38269 0.765367,-0.47836 0.287013,-0.0957 0.669696,0 1.05238,0.0957 0.382683,0.19135 0.765367,0.38269 1.148051,0.76537 0.669696,0.57403 0.956708,1.14805 1.052379,1.72208 0.09567,0.57402 -0.09567,1.05238 -0.478354,1.43506 l -0.956709,-0.95671 c 0.191342,-0.28701 0.287013,-0.47835 0.191342,-0.76536 -0.09567,-0.19135 -0.191342,-0.47836 -0.478355,-0.76537 -0.287012,-0.28701 -0.574025,-0.38269 -0.765367,-0.47836 -0.191342,-0.0957 -0.382683,0 -0.478354,0.0957 -0.09567,0.0957 -0.09567,0.28702 -0.09567,0.47836 0.09567,0.19134 0.287012,0.57402 0.669696,1.05238 0.382684,0.57402 0.574025,1.05238 0.669696,1.33939 0.09567,0.28701 0.09567,0.6697 0,0.86104 -0.09567,0.28701 -0.287012,0.57402 -0.478354,0.76537 -0.382684,0.38268 -0.861038,0.47835 -1.339393,0.47835 -0.478354,0 -1.052379,-0.38268 -1.626405,-0.86104 -1.05238,-0.76536 -1.243721,-1.81774 -0.574025,-2.96579 z m 2.965797,5.45324 c 1.817747,-1.53074 2.774456,-2.20043 4.592203,-3.73117 1.339393,1.62641 2.009089,2.58312 2.965798,4.49653 -0.382684,0.19135 -0.478355,0.28702 -0.861038,0.47836 -0.765367,-1.33939 -1.148051,-2.00909 -2.009089,-3.15714 -0.382683,0.28701 -0.669696,0.47835 -1.05238,0.76537 0.765368,1.05238 1.148051,1.6264 1.817747,2.87012 -0.382683,0.19134 -0.478354,0.28702 -0.861038,0.47836 -0.669696,-1.14805 -0.956709,-1.72208 -1.722076,-2.67879 -0.478354,0.38269 -0.765367,0.57403 -1.339392,0.95671 0.765367,1.05238 1.14805,1.62641 1.817747,2.87013 -0.382684,0.19134 -0.574026,0.28701 -0.861038,0.47835 -0.861038,-1.6264 -1.435064,-2.39177 -2.487444,-3.82683 z m 3.444153,5.83592 c 1.817747,-0.76537 2.678785,-1.14805 4.496532,-1.91342 -0.287013,-0.76536 -0.478355,-1.14805 -0.861039,-1.91341 0.382684,-0.19135 0.574026,-0.28702 0.861039,-0.47836 1.052379,2.10476 1.530734,3.15714 2.20043,5.45324 -0.382684,0.0957 -0.574025,0.19134 -0.956709,0.28701 -0.191342,-0.86103 -0.382683,-1.24372 -0.669696,-2.00908 -1.817747,0.66969 -2.774456,1.05238 -4.592203,1.72207 -0.191342,-0.47835 -0.287013,-0.76537 -0.478354,-1.14805 z m 252.379818,2.58311 c -0.57403,-0.0957 -1.05238,-0.28701 -1.3394,-0.57402 -0.28701,-0.38268 -0.57402,-0.76537 -0.66969,-1.24372 -0.0957,-0.47836 -0.0957,-1.14805 0.0957,-1.81775 0.28701,-0.95671 0.76536,-1.72208 1.33939,-2.10476 0.57403,-0.38268 1.33939,-0.47835 2.00909,-0.19134 0.76537,0.28701 1.14805,0.86104 1.43506,1.53073 0.19134,0.57403 0.19134,1.24373 0,2.00909 -0.19134,0.76537 -0.47835,1.43507 -0.95671,1.81775 -0.57402,0.47835 -1.14805,0.6697 -1.91341,0.57402 z m 0.0957,-1.24372 c 0.57402,0.0957 0.9567,0 1.33939,-0.28701 0.28701,-0.28701 0.57402,-0.57402 0.66969,-1.05238 0.0957,-0.47835 0.0957,-0.86104 -0.0957,-1.24372 -0.19134,-0.38268 -0.47835,-0.6697 -1.05238,-0.86104 -0.47835,-0.19134 -0.9567,-0.19134 -1.33939,0.0957 -0.38268,0.28701 -0.57402,0.6697 -0.76537,1.14805 -0.19134,0.57403 -0.0957,1.05238 0.0957,1.43507 0.28701,0.38268 0.66969,0.57402 1.14805,0.76536 z m 4.01817,-4.5922 c -1.72207,-0.86104 -2.58311,-1.24372 -4.30519,-2.00909 0.38269,-0.86104 0.57403,-1.24372 1.05238,-2.00909 0.47836,-0.76536 0.76537,-1.14805 0.95671,-1.33939 0.28701,-0.28701 0.6697,-0.47835 0.95671,-0.57402 0.38268,-0.0957 0.6697,0 0.95671,0.28701 0.28701,0.19134 0.47835,0.47835 0.47835,0.76536 0.0957,0.28702 0,0.57403 -0.0957,0.95671 -0.0957,0.28702 -0.38268,0.76537 -0.76536,1.43507 -0.19135,0.28701 -0.28702,0.38268 -0.38269,0.66969 0.6697,0.38269 0.95671,0.47836 1.62641,0.86104 l -0.47836,0.95671 z m -2.96579,-2.87013 c 0.47835,0.28702 0.66969,0.38269 1.14805,0.6697 0.0957,-0.28701 0.19134,-0.38268 0.38268,-0.57403 0.28701,-0.38268 0.38268,-0.66969 0.47835,-0.86103 0.0957,-0.19135 0.0957,-0.28702 0.0957,-0.47836 0,-0.19134 -0.0957,-0.28701 -0.19135,-0.38268 -0.0957,-0.0957 -0.28701,-0.0957 -0.47835,-0.0957 -0.19134,0 -0.28701,0.0957 -0.38268,0.28701 -0.0957,0.0957 -0.38269,0.38268 -0.6697,0.95671 -0.19134,0.0957 -0.28701,0.19134 -0.38268,0.47835 z m 5.74025,-1.43506 c -1.43506,-1.24372 -2.20043,-1.91342 -3.63549,-3.15714 1.33939,-1.53073 2.10475,-2.2961 3.73116,-3.53982 0.19134,0.28701 0.28701,0.38268 0.47835,0.66969 -1.14805,0.86104 -1.72207,1.3394 -2.77445,2.39178 l 0.76537,0.76536 c 0.86103,-0.95671 1.33939,-1.33939 2.39177,-2.10476 0.19134,0.28702 0.28701,0.38269 0.47835,0.6697 -0.95671,0.76537 -1.43506,1.14805 -2.2961,2.10476 0.38268,0.38268 0.57403,0.57403 0.95671,0.86104 0.86104,-0.95671 1.43506,-1.33939 2.48744,-2.10476 0.19135,0.28701 0.28702,0.38268 0.47836,0.66969 -1.33939,0.86104 -1.91342,1.43507 -3.06147,2.77446 z m 3.92251,-3.44415 c -1.05238,-1.62641 -1.62641,-2.39177 -2.67879,-3.92251 0.47836,-0.28701 0.6697,-0.47835 1.14805,-0.76537 1.62641,0.47836 2.39177,0.86104 3.82684,1.62641 -0.47836,-1.14805 -0.76537,-1.72208 -1.24372,-2.9658 0.47835,-0.19134 0.76536,-0.28701 1.24372,-0.47835 0.66969,1.81774 0.95671,2.67878 1.6264,4.49653 -0.47835,0.19134 -0.66969,0.28701 -1.05238,0.47835 -1.33939,-0.76536 -2.10476,-1.05238 -3.63549,-1.6264 0.66969,1.05238 0.95671,1.6264 1.6264,2.67878 -0.28701,0.0957 -0.47835,0.19135 -0.86103,0.47836 z"
     id="path40"
     inkscape:connector-curvature="0"
     style="fill:#b7b7b7" />
  <path
     d="M 353.50395,429.08398 H 46.400383 c -2.391773,0 -4.30519,-1.91342 -4.30519,-4.30519 H 357.80914 c 0,2.39177 -1.91342,4.30519 -4.30519,4.30519 z"
     id="path42"
     inkscape:connector-curvature="0"
     style="fill:#d8d8d8" />
</svg>
