<?xml version="1.0" encoding="UTF-8" standalone="no"?>
<svg
   xmlns:dc="http://purl.org/dc/elements/1.1/"
   xmlns:cc="http://creativecommons.org/ns#"
   xmlns:rdf="http://www.w3.org/1999/02/22-rdf-syntax-ns#"
   xmlns:svg="http://www.w3.org/2000/svg"
   xmlns="http://www.w3.org/2000/svg"
   xmlns:sodipodi="http://sodipodi.sourceforge.net/DTD/sodipodi-0.dtd"
   xmlns:inkscape="http://www.inkscape.org/namespaces/inkscape"
   width="500"
   height="267.11819"
   version="1.1"
   id="svg96"
   sodipodi:docname="consolegame.svg"
   inkscape:version="0.92.4 5da689c313, 2019-01-14">
  <metadata
     id="metadata102">
    <rdf:RDF>
      <cc:Work
         rdf:about="">
        <dc:format>image/svg+xml</dc:format>
        <dc:type
           rdf:resource="http://purl.org/dc/dcmitype/StillImage" />
      </cc:Work>
    </rdf:RDF>
  </metadata>
  <defs
     id="defs100" />
  <sodipodi:namedview
     pagecolor="#ffffff"
     bordercolor="#666666"
     borderopacity="1"
     objecttolerance="10"
     gridtolerance="10"
     guidetolerance="10"
     inkscape:pageopacity="0"
     inkscape:pageshadow="2"
     inkscape:window-width="640"
     inkscape:window-height="480"
     id="namedview98"
     showgrid="false"
     inkscape:zoom="0.542"
     inkscape:cx="250"
     inkscape:cy="133.5591"
     inkscape:window-x="0"
     inkscape:window-y="0"
     inkscape:window-maximized="0"
     inkscape:current-layer="svg96">
    <inkscape:grid
       type="xygrid"
       id="grid909"
       originx="0"
       originy="5.4199219e-06" />
  </sodipodi:namedview>
  <path
     d="M 246.4515,264.43808 H 2.501441 C 1.1316043,264.43808 0,263.30648 0,261.93664 V 2.50148 C 0,1.13164 1.1316043,4e-5 2.501441,4e-5 H 246.51105 c 1.36984,0 2.50144,1.1316 2.50144,2.50144 V 261.9962 c -0.0596,1.31028 -1.19116,2.44188 -2.56099,2.44188 z"
     id="path2"
     inkscape:connector-curvature="0"
     style="fill:#524c82" />
  <circle
     cx="26.205572"
     cy="65.275734"
     r="15.187321"
     id="circle4" />
  <circle
     cx="26.205572"
     cy="65.275734"
     r="14.889529"
     id="circle6"
     style="fill:#cbc9e0" />
  <circle
     cx="26.205572"
     cy="230.25171"
     r="15.187321"
     id="circle8" />
  <circle
     cx="26.205572"
     cy="230.25171"
     r="14.889529"
     id="circle10"
     style="fill:#463371" />
  <circle
     cx="222.74736"
     cy="230.31128"
     r="15.187321"
     id="circle12" />
  <circle
     cx="222.74736"
     cy="230.31128"
     r="14.889529"
     id="circle14"
     style="fill:#453371" />
  <circle
     cx="222.74736"
     cy="230.31128"
     r="7.7425556"
     id="circle16"
     style="fill:#524c82" />
  <path
     d="m 126.97791,240.61484 h -2.50144 c -20.84534,0.11911 -46.514893,-0.77426 -78.676277,-8.04035 l -0.595581,-0.0596 0.05956,-0.59558 c 0.05956,-0.53602 0.05956,-1.07204 0.05956,-1.60807 0,-10.48223 -8.576369,-19.0586 -19.058598,-19.0586 H 25.669553 V 84.57253 h 0.595581 c 10.482229,0 19.058598,-8.57637 19.058598,-19.0586 0,-10.48223 -8.576369,-19.0586 -19.118156,-19.0586 H 25.609995 V 0 h 1.191162 v 45.26417 c 10.899136,0.29779 19.65418,9.29106 19.65418,20.24976 0,10.95869 -8.755044,19.95197 -19.65418,20.24976 v 124.29779 c 10.899136,0.29779 19.65418,9.29107 19.65418,20.24976 0,0.41691 0,0.77426 -0.05956,1.19117 31.863594,7.14697 57.294903,8.04034 78.021133,7.92122 20.72623,0.0596 46.15754,-0.77425 78.08069,-7.92122 0,-0.41691 -0.0596,-0.77426 -0.0596,-1.19117 0,-10.95869 8.75504,-19.95197 19.65417,-20.24976 V 0 h 1.19117 v 211.19309 h -0.59558 c -10.48223,0 -19.0586,8.57637 -19.0586,19.05859 0,0.53603 0,1.07205 0.0596,1.60807 l 0.0596,0.59558 -0.59558,0.0596 c -30.91066,6.9683 -55.7464,8.09991 -76.17483,8.09991 z"
     id="path18"
     inkscape:connector-curvature="0"
     style="fill:#20203a" />
  <g
     id="g26"
     style="fill:#483573">
    <path
       d="m 172.89722,20.785824 c -3.57349,0 -5.95581,-2.620558 -5.95581,-5.777138 0,-3.15658 2.38232,-5.8366957 5.95581,-5.7771376 h 33.76945 c 3.57349,0 5.95581,2.6205576 5.95581,5.7771376 0,3.15658 -2.38232,5.777137 -5.95581,5.777137 z m 0,-10.124881 c -2.85879,0 -4.58598,1.965418 -4.58598,4.347743 0,2.441883 1.72719,4.407301 4.58598,4.347743 h 33.70989 c 2.85879,0 4.58598,-1.965418 4.58598,-4.347743 0,-2.441883 -1.72719,-4.347743 -4.58598,-4.347743 z"
       id="path20"
       inkscape:connector-curvature="0" />
    <path
       d="m 171.46782,12.269013 h 1.66763 l 2.26321,3.811719 v -3.811719 h 1.60807 v 5.479346 h -1.60807 l -2.32277,-3.811719 v 3.811719 h -1.66762 z m 14.47263,0.595581 h 1.60807 v 0.714697 h 0.83381 v 0.536023 h -0.83381 v 3.633045 h -1.60807 v -3.633045 h -0.89337 v -0.536023 h 0.89337 z m -7.98079,1.25072 h 1.60807 v 3.633045 h -1.60807 z m 0,-1.846301 h 1.60807 v 1.131604 h -1.60807 z m 27.8732,1.608069 c -1.31028,0 -2.32277,0.893372 -2.32277,2.024976 0,1.131604 1.07205,2.024976 2.32277,2.024976 1.31028,0 2.32277,-0.893372 2.32277,-2.024976 0.0596,-1.131604 -1.01249,-2.024976 -2.32277,-2.024976 m 0.65514,2.024976 v 0.774255 c 0,0.595582 -0.35735,0.833814 -0.65514,0.833814 -0.29779,0 -0.65514,-0.238233 -0.65514,-0.833814 v -1.548511 c 0,-0.595581 0.35735,-0.833814 0.65514,-0.833814 0.29779,0 0.65514,0.238233 0.65514,0.833814 z m -5.06244,0 v -0.65514 c 0,-0.536023 -0.35735,-0.714697 -0.59558,-0.714697 -0.23824,0 -0.59558,0.119116 -0.59558,0.714697 v 1.310279 c 0,0.536023 0.35734,0.714698 0.59558,0.714698 0.23823,0 0.59558,-0.119117 0.59558,-0.714698 z m 0,-3.633045 h 1.54851 v 5.479347 h -1.54851 v -0.238233 c -0.59558,0.416907 -1.31028,0.416907 -1.8463,0.119116 -0.11912,-0.05956 -1.07205,-0.536023 -1.07205,-1.786743 0,-0.95293 0.89337,-2.024976 2.02498,-1.90586 0.35735,0.05956 0.65514,0.178674 0.89337,0.297791 z m -18.16523,1.667627 c 0.59558,0 1.78675,0.357349 1.78675,1.846302 v 1.965418 h -1.60807 v -2.382325 c 0,-0.297791 -0.29779,-0.655139 -0.7147,-0.655139 -0.41691,0 -0.77426,0.357348 -0.77426,0.655139 v 2.382325 h -1.60807 v -3.633046 h 1.60807 v 0.357349 c 0.35735,-0.29779 0.77426,-0.536023 1.31028,-0.536023 m 12.92411,0 c 0.59559,0 1.78675,0.357349 1.78675,1.846302 v 1.965418 h -1.60807 v -2.382325 c 0,-0.297791 -0.29779,-0.655139 -0.7147,-0.655139 -0.41691,0 -0.77425,0.357348 -0.77425,0.655139 v 2.382325 h -1.60807 v -3.633046 h 1.60807 v 0.357349 c 0.35734,-0.29779 0.83381,-0.536023 1.31027,-0.536023 m -5.00288,2.560999 v 0.238233 c 0,0.655139 -0.41691,0.833813 -0.65514,0.833813 -0.23823,0 -0.65514,-0.119116 -0.65514,-0.833813 v -0.774256 h 2.97791 c 0,-1.131604 -1.07205,-2.084534 -2.32277,-2.084534 -1.31028,0 -2.32276,0.893372 -2.32276,2.024976 0,1.131604 1.07204,2.024976 2.32276,2.024976 1.07205,0 1.96542,-0.655139 2.26321,-1.488953 z m -1.31028,-1.131604 c 0,-0.297791 0,-0.536023 0.11912,-0.714697 0.11912,-0.238233 0.35735,-0.357349 0.53602,-0.357349 0.17868,0 0.41691,0.119116 0.53603,0.357349 0.11911,0.178674 0.11911,0.416907 0.11911,0.714697 z m 18.64169,-2.501441 c 0.17868,0 0.29779,0 0.29779,-0.178674 0,-0.178675 -0.11911,-0.178675 -0.23823,-0.178675 h -0.23823 v 0.357349 z m -0.23823,0.714698 h -0.17867 v -1.250721 h 0.47646 c 0.29779,0 0.41691,0.119116 0.41691,0.357349 0,0.238232 -0.11912,0.29779 -0.29779,0.357348 l 0.35735,0.536023 h -0.17868 l -0.29779,-0.536023 h -0.23823 v 0.536023 z"
       id="path22"
       inkscape:connector-curvature="0" />
    <path
       d="m 208.51297,13.877082 c 0.47647,0 0.83382,-0.357349 0.83382,-0.893372 0,-0.536023 -0.35735,-0.893372 -0.83382,-0.893372 -0.47646,0 -0.83381,0.357349 -0.83381,0.893372 0,0.476465 0.35735,0.893372 0.83381,0.893372 m -1.07204,-0.893372 c 0,-0.595581 0.47646,-1.072046 1.07204,-1.072046 0.59559,0 1.07205,0.476465 1.07205,1.072046 0,0.595581 -0.47646,1.072046 -1.07205,1.072046 -0.59558,0 -1.07204,-0.476465 -1.07204,-1.072046"
       id="path24"
       inkscape:connector-curvature="0" />
  </g>
  <path
     d="m 157.35255,238.88765 c -11.97118,0.95293 -22.87032,1.13161 -32.87608,1.07205 -10.06532,0.0596 -20.9049,-0.17868 -32.876083,-1.07205 4.824207,5.30067 17.688763,9.11239 32.876083,9.11239 15.12776,0.0596 28.05187,-3.75216 32.87608,-9.11239"
     id="path28"
     inkscape:connector-curvature="0"
     style="fill:#f2a136" />
  <path
     d="m 147.4659,240.25749 c -8.39769,0.65514 -16.02113,0.77425 -23.04899,0.77425 -7.02786,0 -14.6513,-0.11911 -23.04899,-0.77425 3.39481,3.75216 12.38809,6.37272 22.98943,6.37272 10.66091,0.0596 19.71374,-2.62056 23.10855,-6.37272"
     id="path30"
     inkscape:connector-curvature="0"
     style="fill:#e58b48" />
  <circle
     cx="124.47647"
     cy="135.79254"
     r="69.385208"
     id="circle32" />
  <path
     d="m 147.34679,170.33626 13.2219,17.33141 -0.0596,-0.0596 c -10.244,7.14698 -22.69164,11.31604 -36.09222,11.31604 -13.34102,0 -25.729107,-4.16906 -35.973104,-11.25648 l 13.221904,-17.33141 c 6.49183,4.34774 14.29395,6.84918 22.69164,6.84918 8.51681,0 16.37848,-2.561 22.92988,-7.02786 l 0.0596,0.17868 z"
     id="path34"
     inkscape:connector-curvature="0"
     style="fill:#393939" />
  <path
     d="m 103.86936,176.47074 -10.780021,14.11528 c 9.231511,5.30067 19.951971,8.33813 31.387131,8.33813 13.40057,0 25.84822,-4.16906 36.09222,-11.31604 l -10.89914,-14.29395 c -6.90874,5.47935 -16.25936,8.63593 -25.19308,8.63593 -7.50432,0 -14.53218,-1.96542 -20.60711,-5.47935"
     id="path36"
     inkscape:connector-curvature="0"
     style="fill:#cbc9e0" />
  <path
     d="m 129.65802,124.00004 v -0.77425 h -2.20365 c -0.29779,0 -0.53602,0.0596 -0.77425,0.17867 -0.23823,0.11912 -0.41691,0.23823 -0.53602,0.47646 -0.11912,0.17868 -0.17868,0.41691 -0.23824,0.59559 v 2.38232 c 0,0.23823 0.0596,0.41691 0.17868,0.59558 0.11911,0.17868 0.35735,0.35735 0.53602,0.47647 0.23823,0.11911 0.47647,0.17867 0.77426,0.17867 h 2.20365 v -0.77425 h -2.1441 c -0.17867,0 -0.35734,-0.0596 -0.47646,-0.11912 -0.11912,-0.11912 -0.17868,-0.17868 -0.17868,-0.35735 v -0.89337 h 2.79924 v -0.77426 h -2.73968 v -0.65514 c 0,-0.17867 0.0596,-0.29779 0.17868,-0.35734 0.11911,-0.11912 0.29779,-0.11912 0.47646,-0.11912 h 2.14409 V 124 Z m 8.57637,4.10951 v -4.88376 h -0.95293 v 3.09702 l -1.60807,-3.09702 h -1.31027 v 4.88376 h 0.95293 v -3.81172 l 1.96541,3.81172 m 5.65802,-4.88376 v 4.88376 h 2.32277 c 0.29779,0 0.53602,-0.0596 0.77426,-0.17867 0.23823,-0.11912 0.4169,-0.23824 0.59558,-0.47647 0.11911,-0.17867 0.17867,-0.41691 0.23823,-0.65514 v -2.32276 c 0,-0.23824 -0.0596,-0.41691 -0.23823,-0.59559 -0.11912,-0.17867 -0.35735,-0.35734 -0.59558,-0.47646 -0.23824,-0.11912 -0.47647,-0.17867 -0.77426,-0.17867 z m 2.79924,0.89337 c 0.11911,0.11911 0.17867,0.23823 0.23823,0.35735 v 2.32276 c 0,0.17868 -0.0596,0.29779 -0.23823,0.35735 -0.11912,0.11912 -0.29779,0.17868 -0.47647,0.17868 h -1.36984 v -3.33526 h 1.36984 c 0.17868,0 0.29779,0.0596 0.47647,0.11912 z m 8.75504,-0.77426 c -0.23823,-0.11911 -0.47647,-0.17867 -0.77426,-0.17867 h -0.83381 c -0.29779,0 -0.53602,0.0596 -0.77425,0.17867 -0.23824,0.11912 -0.41691,0.23823 -0.59559,0.47647 -0.11911,0.17867 -0.23823,0.4169 -0.23823,0.65514 v 2.44188 c 0,0.23823 0.0596,0.41691 0.23823,0.59558 0.11912,0.17867 0.35735,0.35735 0.59559,0.47646 0.23823,0.11912 0.47646,0.17868 0.77425,0.17868 h 0.83381 c 0.29779,0 0.53603,-0.0596 0.77426,-0.17868 0.23823,-0.11911 0.41691,-0.23823 0.59558,-0.47646 0.11912,-0.17867 0.23823,-0.41691 0.23823,-0.59558 v -2.44188 c 0,-0.23824 -0.0596,-0.47647 -0.23823,-0.65514 -0.17867,-0.17868 -0.35735,-0.35735 -0.59558,-0.47647 z m -0.35735,0.77426 c 0.11912,0.11911 0.23823,0.23823 0.23823,0.35735 v 2.38232 c 0,0.11912 -0.0596,0.23823 -0.23823,0.35735 -0.11912,0.11912 -0.29779,0.17867 -0.47646,0.17867 h -0.77426 c -0.17867,0 -0.35735,-0.0596 -0.47646,-0.17867 -0.11912,-0.11912 -0.17868,-0.23823 -0.17868,-0.35735 v -2.38232 c 0,-0.11912 0.0596,-0.23824 0.17868,-0.35735 0.11911,-0.11912 0.29779,-0.11912 0.47646,-0.17868 h 0.77426 c 0.17867,0 0.35734,0.0596 0.47646,0.17868 z m -4.4073,12.03074 h 6.78963 v -1.4294 h -5.00289 v -1.19116 h 2.85879 v -1.31028 h -2.85879 v -1.07204 h 4.94333 v -1.31028 h -6.73007 m -0.7147,1.31028 c 0,-0.41691 -0.11911,-0.77426 -0.35735,-1.01249 -0.23823,-0.23824 -0.65514,-0.35735 -1.19116,-0.35735 h -5.5389 v 6.31316 h 5.12199 c 1.36984,0 2.02498,-0.47647 2.02498,-1.36984 v -0.77425 c 0,-0.53603 -0.23823,-0.89338 -0.7147,-1.13161 0.41691,-0.17867 0.65514,-0.53602 0.65514,-1.01249 z m -1.72718,0.0596 c 0.0596,0.0596 0.11911,0.11912 0.0596,0.23824 v 0.59558 c 0,0.0596 0,0.17867 -0.0596,0.17867 l -0.41691,0.0596 h -3.15658 v -1.1316 h 3.15658 c 0.23823,-0.0596 0.41691,0 0.41691,0.0596 z m -3.57349,3.57349 v -1.25072 h 3.15658 c 0.23823,0 0.35735,0.0596 0.47647,0.0596 0.0596,0.0596 0.11911,0.17867 0.11911,0.29779 v 0.47646 c 0,0.11912 -0.0596,0.23824 -0.11911,0.29779 -0.0596,0.0596 -0.23824,0.11912 -0.47647,0.11912 h -3.15658 z m -2.561,-4.94332 H 139.366 v 4.88376 h -3.81172 v -4.88376 h -1.78675 v 4.76465 c 0,0.4169 0.0596,0.71469 0.17868,0.95293 0.11912,0.23823 0.29779,0.4169 0.53602,0.47646 0.23823,0.11912 0.59558,0.17868 1.01249,0.11912 h 3.93084 c 0.4169,0 0.77425,-0.0596 1.01248,-0.11912 0.23824,-0.11912 0.41691,-0.23823 0.53603,-0.47646 0.11911,-0.23824 0.17867,-0.53603 0.17867,-0.95293 z m -8.21902,0.65514 c -0.11912,-0.23824 -0.29779,-0.41691 -0.53602,-0.47647 -0.23823,-0.11912 -0.59558,-0.11912 -1.01249,-0.11912 h -3.87128 c -0.4169,0 -0.77425,0.0596 -1.01249,0.11912 -0.23823,0.11912 -0.4169,0.23823 -0.53602,0.47647 -0.11912,0.23823 -0.17867,0.53602 -0.17867,0.95293 v 3.15658 c 0,0.4169 0.0596,0.71469 0.17867,0.95293 0.11912,0.23823 0.29779,0.4169 0.53602,0.47646 0.23824,0.11912 0.59559,0.17868 1.01249,0.11912 h 3.87128 c 0.41691,0 0.77426,-0.0596 1.01249,-0.11912 0.23823,-0.11912 0.4169,-0.23823 0.53602,-0.47646 0.11912,-0.23824 0.17868,-0.53603 0.17868,-0.95293 v -1.19117 h -1.78675 v 1.31028 h -3.75216 v -3.51393 h 3.75216 v 1.13161 h 1.78675 v -0.95293 c 0,-0.35735 -0.0596,-0.7147 -0.17868,-0.89337 z m -15.12776,5.65802 h 6.78962 v -1.4294 h -5.00288 v -1.19116 h 2.85879 v -1.31028 h -2.85879 v -1.07204 h 4.94333 v -1.31028 h -6.73007 m -22.691644,-6.61095 h -1.310279 v 4.88376 h 0.95293 v -3.81172 l 1.965418,3.81172 h 0.95293 v -4.88376 h -0.95293 v 3.09702 m 6.313165,1.78674 h 1.07204 v -4.88376 h -1.07204 m 10.36311,4.88376 v -4.88376 h -1.01249 v 3.09702 l -1.60807,-3.09702 h -1.31028 v 4.88376 h 1.01249 v -3.81172 l 1.96542,3.81172 m 6.84918,0 h 1.01249 v -4.10951 h 1.66763 v -0.77425 h -4.28819 v 0.77425 h 1.60807 m -10.83958,5.8367 v 5.18155 l -3.15658,-5.18155 h -1.54851 l -3.811717,6.31316 h 4.764647 v -1.4294 h -2.14409 l 1.96542,-3.15658 2.62056,4.58598 h 2.91834 v -3.39482 l 2.02498,3.39482 h 1.31028 l 2.02497,-3.39482 v 3.39482 h 1.60807 v -6.31316 h -1.60807 l -2.68011,4.46686 -2.68012,-4.46686 m -9.9462,1.36983 v -1.36983 h -5.955814 c -0.416907,0 -0.774256,0.0596 -1.012488,0.11911 -0.238233,0.11912 -0.416907,0.23824 -0.536023,0.47647 -0.119117,0.23823 -0.178675,0.53602 -0.178675,0.95293 v 3.15658 c 0,0.4169 0.05956,0.7147 0.178675,0.95293 0.119116,0.23823 0.29779,0.4169 0.536023,0.47646 0.238232,0.11912 0.595581,0.17868 1.012488,0.11912 h 4.347742 c 0.595581,0 1.072046,-0.11912 1.310279,-0.35735 0.238233,-0.23823 0.357353,-0.65514 0.357353,-1.25072 v -2.26321 h -4.109515 v 1.31028 h 2.382325 v 1.07205 h -4.228626 v -3.51393 h 5.896256 z"
     id="path38"
     inkscape:connector-curvature="0"
     style="fill:#b7b7b7;fill-rule:evenodd" />
  <path
     d="m 36.687801,47.17007 c 0.536023,-1.48896 0.774256,-2.26321 1.310279,-3.75216 0.416907,0.11911 0.595581,0.23823 1.012488,0.4169 l 0.714697,0.35735 c 0.178675,0.11912 0.238233,0.35735 0.297791,0.53602 0,0.23824 -0.05956,0.47647 -0.178675,0.77426 -0.119116,0.23823 -0.29779,0.47647 -0.476465,0.59558 -0.178674,0.11912 -0.357348,0.17868 -0.536023,0.23823 -0.178674,0 -0.416906,-0.0596 -0.774255,-0.17867 -0.119116,-0.0596 -0.238233,-0.0596 -0.357349,-0.11912 -0.238232,0.53603 -0.29779,0.83382 -0.536023,1.4294 -0.119116,-0.17868 -0.238232,-0.17868 -0.476465,-0.29779 z m 1.727186,-2.85879 c -0.178675,0.4169 -0.238233,0.65514 -0.416907,1.07204 0.119116,0.0596 0.178674,0.0596 0.29779,0.11912 0.238233,0.0596 0.357349,0.11912 0.476465,0.11912 0.119116,0 0.178675,0 0.238233,-0.0596 0.05956,-0.0596 0.178674,-0.17868 0.238232,-0.29779 0.05956,-0.11912 0.05956,-0.23823 0.05956,-0.35735 0,-0.11912 -0.05956,-0.17868 -0.119116,-0.23823 -0.05956,-0.0596 -0.238232,-0.17868 -0.476465,-0.23824 -0.119116,-0.0595 -0.178674,-0.0595 -0.29779,-0.11911 z m 2.382324,2.62056 c 0.238233,-0.41691 0.476465,-0.7147 0.774256,-0.89338 0.29779,-0.17867 0.536023,-0.29779 0.833813,-0.29779 0.297791,0 0.536024,0.11912 0.833814,0.29779 0.357349,0.29779 0.595581,0.65514 0.595581,1.13161 0,0.47646 -0.238232,0.95293 -0.655139,1.42939 -0.416907,0.53603 -0.893372,0.83382 -1.310279,0.95293 -0.357348,0.11912 -0.714697,0.0596 -1.012488,-0.17867 -0.29779,-0.23823 -0.476465,-0.53602 -0.476465,-0.95293 -0.05956,-0.41691 0.05956,-0.89337 0.416907,-1.48895 z m 0.536023,0.29779 c -0.238232,0.4169 -0.357348,0.71469 -0.357348,1.01248 0,0.29779 0.05956,0.47647 0.238232,0.59559 0.178674,0.11911 0.416907,0.11911 0.655139,0.0596 0.238233,-0.11911 0.536023,-0.29779 0.833814,-0.71469 0.297791,-0.35735 0.416907,-0.65514 0.476465,-0.95293 0,-0.29779 -0.119116,-0.47647 -0.297791,-0.65514 -0.238232,-0.17868 -0.476465,-0.17868 -0.714697,-0.11912 -0.297791,0.17867 -0.595581,0.41691 -0.833814,0.77426 z m 1.846302,4.16906 c 1.012488,-1.25072 1.429395,-1.96541 2.322767,-3.27569 l 0.476465,0.47646 c -0.65514,0.89337 -1.012488,1.31028 -1.667628,2.20365 0.95293,-0.59558 1.429395,-0.83381 2.441883,-1.36983 0.178675,0.23823 0.297791,0.35734 0.476465,0.59558 -0.714697,0.89337 -1.131604,1.31028 -1.90586,2.14409 1.012488,-0.53602 1.488953,-0.77426 2.560999,-1.25072 0.178675,0.23823 0.238233,0.35735 0.357349,0.53602 -1.488953,0.59558 -2.263208,0.95293 -3.692603,1.66763 -0.119116,-0.17867 -0.178675,-0.29779 -0.357349,-0.47647 0.833814,-0.89337 1.191162,-1.36983 1.965418,-2.32276 -1.072046,0.59558 -1.608069,0.89337 -2.620557,1.48895 -0.119116,-0.17867 -0.178675,-0.23823 -0.357349,-0.41691 z m 2.441883,3.33526 c 1.369837,-0.77426 2.084534,-1.13161 3.513929,-1.90586 0.476465,0.83381 0.655139,1.31028 1.072046,2.20365 -0.238232,0.11912 -0.357349,0.17867 -0.655139,0.23823 -0.238233,-0.65514 -0.416907,-0.95293 -0.714698,-1.54851 -0.29779,0.17868 -0.476465,0.23823 -0.774255,0.41691 0.29779,0.53602 0.416907,0.83381 0.655139,1.36983 -0.238232,0.11912 -0.357349,0.17868 -0.595581,0.23824 -0.238233,-0.53603 -0.357349,-0.83382 -0.595581,-1.36984 l -0.95293,0.47647 c 0.29779,0.53602 0.416907,0.83381 0.655139,1.42939 -0.238232,0.11912 -0.357349,0.17867 -0.655139,0.23823 -0.416907,-0.7147 -0.595581,-1.07204 -0.95293,-1.78674 z m 1.310279,3.21614 c 1.548511,-0.47647 2.322766,-0.65514 3.811719,-1.13161 0.178674,0.53603 0.238233,0.83382 0.357349,1.36984 0.05956,0.35735 0.119116,0.59558 0.05956,0.77426 -0.05956,0.17867 -0.119116,0.29779 -0.297791,0.4169 -0.178674,0.11912 -0.357348,0.17868 -0.595581,0.23823 -0.29779,0.0596 -0.595581,0 -0.774255,-0.11911 -0.238233,-0.11912 -0.357349,-0.29779 -0.476465,-0.53602 -0.05956,0.11911 -0.178675,0.29779 -0.297791,0.35734 -0.119116,0.11912 -0.297791,0.23824 -0.595581,0.41691 -0.297791,0.17868 -0.416907,0.29779 -0.714698,0.47647 -0.05956,-0.23824 -0.05956,-0.41691 -0.119116,-0.65514 0.297791,-0.23824 0.476465,-0.35735 0.774256,-0.53603 0.29779,-0.23823 0.476465,-0.35735 0.536023,-0.4169 0.05956,-0.0596 0.119116,-0.11912 0.119116,-0.23824 V 58.0692 c 0,-0.0596 0,-0.0596 -0.05956,-0.11911 -0.655139,0.17867 -0.95293,0.23823 -1.608069,0.4169 0,-0.11911 -0.05956,-0.17867 -0.119116,-0.4169 z m 2.382324,-0.0596 c 0.05956,0.17867 0.05956,0.29779 0.119116,0.47646 0.05956,0.29779 0.119117,0.47647 0.178675,0.53603 l 0.178674,0.17867 c 0.05956,0.0596 0.178675,0.0596 0.297791,0 0.119116,0 0.238232,-0.0596 0.29779,-0.11911 0.05956,-0.0596 0.119117,-0.11912 0.119117,-0.23824 0,-0.0596 0,-0.23823 -0.05956,-0.53602 -0.05956,-0.17867 -0.05956,-0.29779 -0.119117,-0.47647 -0.416907,0.0596 -0.595581,0.11912 -1.012488,0.17868 z M 34.543709,210.89534 c 0.29779,-1.4294 0.416907,-2.1441 0.714697,-3.63305 0.774256,0.17868 1.131605,0.23823 1.90586,0.47647 0.476465,0.11911 0.774256,0.29779 0.95293,0.4169 0.178674,0.11912 0.297791,0.29779 0.357349,0.47647 0.05956,0.17867 0.05956,0.4169 -0.05956,0.59558 -0.119117,0.23823 -0.297791,0.41691 -0.536024,0.53602 -0.238232,0.11912 -0.536023,0.11912 -0.893371,0.0596 0.119116,0.11912 0.238232,0.29779 0.29779,0.41691 0.05956,0.11911 0.119117,0.35735 0.178675,0.71469 0.05956,0.35735 0.119116,0.47647 0.119116,0.83382 -0.297791,-0.11912 -0.476465,-0.17868 -0.833814,-0.35735 -0.119116,-0.35735 -0.119116,-0.53602 -0.238232,-0.95293 -0.119116,-0.35735 -0.178675,-0.53602 -0.238233,-0.65514 -0.05956,-0.11912 -0.119116,-0.17867 -0.178674,-0.23823 -0.05956,-0.0596 -0.178674,-0.11912 -0.416907,-0.11912 -0.05956,0 -0.119116,0 -0.178674,-0.0596 -0.119117,0.59558 -0.238233,0.89337 -0.357349,1.48896 -0.119116,0.11911 -0.297791,0.0596 -0.595581,0 z m 1.25072,-1.90586 c 0.238233,0.0596 0.357349,0.11911 0.595582,0.17867 0.357348,0.11912 0.595581,0.17867 0.714697,0.17867 0.119116,0 0.178674,0 0.297791,-0.0596 0.05956,-0.0596 0.178674,-0.11912 0.178674,-0.23824 0.05956,-0.11911 0.05956,-0.23823 0,-0.29779 -0.05956,-0.11911 -0.119116,-0.17867 -0.238233,-0.23823 -0.05956,-0.0596 -0.29779,-0.11912 -0.714697,-0.23823 -0.297791,-0.0596 -0.416907,-0.11912 -0.655139,-0.17868 -0.05956,0.35735 -0.05956,0.53603 -0.178675,0.89338 z m 2.263209,3.03746 c 0.655139,-1.31028 0.95293,-2.02498 1.548511,-3.33525 1.191162,0.59558 1.786743,0.89337 2.85879,1.66762 -0.119117,0.17868 -0.238233,0.29779 -0.357349,0.53603 -0.774256,-0.53603 -1.191162,-0.77426 -2.024976,-1.25072 -0.178674,0.29779 -0.238233,0.4169 -0.357349,0.71469 0.714698,0.41691 1.072046,0.59558 1.786744,1.07205 -0.119117,0.17867 -0.238233,0.29779 -0.357349,0.53602 -0.655139,-0.47646 -1.012488,-0.65514 -1.727185,-1.07204 -0.178675,0.35734 -0.297791,0.53602 -0.476465,0.89337 0.774255,0.4169 1.131604,0.59558 1.786743,1.1316 -0.119116,0.17868 -0.238232,0.29779 -0.357349,0.53603 -0.833813,-0.65514 -1.310278,-0.95293 -2.322766,-1.4294 z m 3.454371,0.7147 c 0.238232,0.17867 0.416907,0.23823 0.655139,0.4169 -0.238232,0.41691 -0.178674,0.77426 0.178674,1.07205 0.178675,0.17867 0.357349,0.23823 0.476465,0.29779 0.178675,0 0.297791,0 0.416907,-0.11912 0.05956,-0.0596 0.119116,-0.11911 0.119116,-0.17867 0,-0.0596 0,-0.17867 -0.05956,-0.23823 -0.05956,-0.11912 -0.178674,-0.29779 -0.416907,-0.65514 -0.178674,-0.29779 -0.357348,-0.53602 -0.416906,-0.7147 -0.05956,-0.17867 -0.119117,-0.35735 -0.05956,-0.53602 0,-0.17868 0.05956,-0.35735 0.178675,-0.47647 0.119116,-0.17867 0.29779,-0.23823 0.476465,-0.29779 0.178674,-0.0596 0.416907,0 0.655139,0.0596 0.238233,0.11912 0.476465,0.23823 0.714698,0.47647 0.416906,0.35734 0.595581,0.71469 0.655139,1.07204 0.05956,0.35735 -0.05956,0.65514 -0.297791,0.89337 l -0.595581,-0.59558 c 0.119116,-0.17867 0.178674,-0.29779 0.119116,-0.47646 -0.05956,-0.11912 -0.119116,-0.29779 -0.29779,-0.47647 -0.178675,-0.17867 -0.357349,-0.23823 -0.476465,-0.29779 -0.119116,-0.0596 -0.238233,0 -0.297791,0.0596 -0.05956,0.0596 -0.05956,0.17867 -0.05956,0.29779 0.05956,0.11912 0.178674,0.35735 0.416907,0.65514 0.238232,0.35735 0.357349,0.65514 0.416907,0.83381 0.05956,0.17868 0.05956,0.41691 0,0.53603 -0.05956,0.17867 -0.178675,0.35735 -0.297791,0.47646 -0.238232,0.23823 -0.536023,0.29779 -0.833814,0.29779 -0.29779,0 -0.655139,-0.23823 -1.012488,-0.53602 -0.655139,-0.47647 -0.774255,-1.1316 -0.357348,-1.8463 z m 1.846301,3.39481 c 1.131605,-0.95293 1.727186,-1.36984 2.85879,-2.32277 0.833814,1.01249 1.250721,1.60807 1.846302,2.79924 -0.238233,0.11911 -0.297791,0.17867 -0.536023,0.29779 -0.476465,-0.83382 -0.714698,-1.25072 -1.250721,-1.96542 -0.238232,0.17867 -0.416907,0.29779 -0.655139,0.47646 0.476465,0.65514 0.714697,1.01249 1.131604,1.78675 -0.238232,0.11911 -0.29779,0.17867 -0.536023,0.29779 -0.416907,-0.7147 -0.595581,-1.07205 -1.072046,-1.66763 -0.297791,0.23823 -0.476465,0.35735 -0.833814,0.59558 0.476465,0.65514 0.714698,1.01249 1.131605,1.78674 -0.238233,0.11912 -0.357349,0.17868 -0.536024,0.2978 -0.536023,-1.01249 -0.893371,-1.48896 -1.548511,-2.38233 z m 2.144093,3.63305 c 1.131604,-0.47647 1.667627,-0.7147 2.799231,-1.19117 -0.178674,-0.47646 -0.29779,-0.71469 -0.536023,-1.19116 0.238233,-0.11912 0.357349,-0.17867 0.536023,-0.29779 0.65514,1.31028 0.95293,1.96542 1.369837,3.39481 -0.238233,0.0596 -0.357349,0.11912 -0.595581,0.17868 -0.119116,-0.53603 -0.238233,-0.77426 -0.416907,-1.25072 -1.131604,0.4169 -1.727185,0.65514 -2.85879,1.07204 -0.119116,-0.29779 -0.178674,-0.47646 -0.29779,-0.71469 z m 157.114317,1.60806 c -0.35735,-0.0596 -0.65514,-0.17867 -0.83381,-0.35734 -0.17868,-0.23824 -0.35735,-0.47647 -0.41691,-0.77426 -0.0596,-0.29779 -0.0596,-0.7147 0.0596,-1.1316 0.17867,-0.59558 0.47646,-1.07205 0.83381,-1.31028 0.35735,-0.23823 0.83381,-0.29779 1.25072,-0.11912 0.47647,0.17868 0.7147,0.53602 0.89337,0.95293 0.11912,0.35735 0.11912,0.77426 0,1.25072 -0.11911,0.47647 -0.29779,0.89337 -0.59558,1.13161 -0.35735,0.29779 -0.7147,0.4169 -1.19116,0.35734 z m 0.0596,-0.77425 c 0.35735,0.0596 0.59558,0 0.83381,-0.17868 0.17868,-0.17867 0.35735,-0.35734 0.41691,-0.65513 0.0596,-0.29779 0.0596,-0.53603 -0.0596,-0.77426 -0.11912,-0.23823 -0.29779,-0.41691 -0.65514,-0.53602 -0.29779,-0.11912 -0.59558,-0.11912 -0.83381,0.0596 -0.23824,0.17867 -0.35735,0.4169 -0.47647,0.71469 -0.11911,0.35735 -0.0596,0.65514 0.0596,0.89337 0.17867,0.23824 0.41691,0.35735 0.7147,0.47647 z m 2.50144,-2.85879 c -1.07205,-0.53602 -1.60807,-0.77426 -2.68012,-1.25072 0.23824,-0.53602 0.35735,-0.77426 0.65514,-1.25072 0.29779,-0.47647 0.47647,-0.7147 0.59558,-0.83382 0.17868,-0.17867 0.41691,-0.29779 0.59559,-0.35734 0.23823,-0.0596 0.4169,0 0.59558,0.17867 0.17867,0.11912 0.29779,0.29779 0.29779,0.47647 0.0596,0.17867 0,0.35734 -0.0596,0.59558 -0.0596,0.17867 -0.23823,0.47646 -0.47647,0.89337 -0.11911,0.17867 -0.17867,0.23823 -0.23823,0.41691 0.41691,0.23823 0.59558,0.29779 1.01249,0.53602 l -0.29779,0.59558 z m -1.8463,-1.78674 c 0.29779,0.17867 0.4169,0.23823 0.71469,0.4169 0.0596,-0.17867 0.11912,-0.23823 0.23824,-0.35735 0.17867,-0.23823 0.23823,-0.4169 0.29779,-0.53602 0.0596,-0.11912 0.0596,-0.17867 0.0596,-0.29779 0,-0.11912 -0.0596,-0.17867 -0.11912,-0.23823 -0.0596,-0.0596 -0.17867,-0.0596 -0.29779,-0.0596 -0.11912,0 -0.17868,0.0596 -0.23823,0.17867 -0.0596,0.0596 -0.23824,0.23824 -0.41691,0.59559 -0.11912,0.0596 -0.17867,0.11911 -0.23823,0.29779 z m 3.57348,-0.89338 c -0.89337,-0.77425 -1.36983,-1.19116 -2.2632,-1.96541 0.83381,-0.95293 1.31027,-1.4294 2.32276,-2.20365 0.11912,0.17867 0.17868,0.23823 0.29779,0.4169 -0.71469,0.53603 -1.07204,0.83382 -1.72718,1.48896 l 0.47646,0.47646 c 0.53603,-0.59558 0.83382,-0.83381 1.48896,-1.31028 0.11911,0.17868 0.17867,0.23823 0.29779,0.41691 -0.59559,0.47646 -0.89338,0.7147 -1.4294,1.31028 0.23823,0.23823 0.35735,0.35735 0.59558,0.53602 0.53603,-0.59558 0.89337,-0.83381 1.54851,-1.31028 0.11912,0.17868 0.17868,0.23823 0.29779,0.41691 -0.83381,0.53602 -1.19116,0.89337 -1.90586,1.72718 z m 2.44189,-2.14409 c -0.65514,-1.01249 -1.01249,-1.48895 -1.66763,-2.44188 0.29779,-0.17868 0.41691,-0.29779 0.7147,-0.47647 1.01249,0.29779 1.48895,0.53603 2.38232,1.01249 -0.29779,-0.7147 -0.47646,-1.07204 -0.77425,-1.8463 0.29779,-0.11912 0.47646,-0.17867 0.77425,-0.29779 0.41691,1.1316 0.59558,1.66763 1.01249,2.79923 -0.29779,0.11912 -0.41691,0.17868 -0.65514,0.29779 -0.83381,-0.47646 -1.31028,-0.65514 -2.26321,-1.01249 0.41691,0.65514 0.59558,1.01249 1.01249,1.66763 -0.17867,0.0596 -0.29779,0.11912 -0.53602,0.29779 z"
     id="path40"
     inkscape:connector-curvature="0"
     style="fill:#b7b7b7" />
  <path
     d="M 220.06725,267.1182 H 28.885688 c -1.488953,0 -2.680116,-1.19116 -2.680116,-2.68012 H 222.74736 c 0,1.48896 -1.19116,2.68012 -2.68011,2.68012 z"
     id="path42"
     inkscape:connector-curvature="0"
     style="fill:#d8d8d8" />
  <path
     d="m 497.34067,178.96133 c 0,47.20315 -38.29439,85.49754 -85.49754,85.49754 -47.20315,0 -85.6305,-38.29439 -85.6305,-85.49754 0,-47.20315 38.42735,-85.6305 85.6305,-85.6305 47.20315,0 85.49754,38.29438 85.49754,85.6305 z M 423.54419,153.9636 c -3.5901,-1.72856 -7.57909,-2.65933 -11.70106,-2.65933 -15.15819,0 -27.52409,12.3659 -27.52409,27.52409 0,15.1582 12.3659,27.65706 27.52409,27.65706 15.1582,0 27.52409,-12.3659 27.52409,-27.52409 0,-11.03623 -6.51536,-20.47686 -15.82303,-24.99773"
     id="path44"
     inkscape:connector-curvature="0"
     style="fill:#7b79aa" />
  <path
     d="m 411.84313,267.1182 c -48.66578,0 -88.15687,-39.62405 -88.15687,-88.15687 0,-48.53282 39.49109,-88.15687 88.15687,-88.15687 48.66578,0 88.15687,39.49109 88.15687,88.15687 0,48.66578 -39.62405,88.15687 -88.15687,88.15687 z m 0,-176.18077 c -48.53282,0 -88.0239,39.49108 -88.0239,88.0239 0,48.53282 39.49108,88.0239 88.0239,88.0239 48.53282,0 88.0239,-39.49108 88.0239,-88.0239 0,-48.53282 -39.49108,-88.0239 -88.0239,-88.0239 z"
     id="path46"
     inkscape:connector-curvature="0"
     style="fill:#0f1417" />
  <path
     d="m 411.84313,194.25249 c -8.3769,0 -15.29116,-6.91426 -15.29116,-15.29116 0,-8.3769 6.91426,-15.29116 15.29116,-15.29116 8.3769,0 15.29116,6.91426 15.29116,15.29116 0,8.3769 -6.91426,15.29116 -15.29116,15.29116 z m 0,-29.51859 c -7.84503,0 -14.22743,6.3824 -14.22743,14.22743 0,7.84503 6.3824,14.22743 14.22743,14.22743 7.84503,0 14.22743,-6.3824 14.22743,-14.22743 0,-7.84503 -6.3824,-14.22743 -14.22743,-14.22743 z"
     id="path48"
     inkscape:connector-curvature="0"
     style="fill:#a198a0" />
  <path
     d="m 411.84313,191.32723 c -6.7813,0 -12.3659,-5.5846 -12.3659,-12.3659 0,-6.7813 5.5846,-12.3659 12.3659,-12.3659 6.7813,0 12.3659,5.5846 12.3659,12.3659 0,6.7813 -5.5846,12.3659 -12.3659,12.3659 z m 0,-23.66806 c -6.24943,0 -11.30216,5.05273 -11.30216,11.30216 0,6.24943 5.05273,11.30216 11.30216,11.30216 6.24943,0 11.30216,-5.05273 11.30216,-11.30216 0,-6.24943 -5.05273,-11.30216 -11.30216,-11.30216 z"
     id="path50"
     inkscape:connector-curvature="0"
     style="fill:#a198a0" />
  <path
     d="m 438.96832,178.96133 c 0,15.02523 -12.09996,27.12519 -27.12519,27.12519 -15.02523,0 -27.12519,-12.09996 -27.12519,-27.12519 0,-15.02523 12.09996,-27.12519 27.12519,-27.12519 15.02523,0 27.12519,12.09996 27.12519,27.12519 z m -27.12519,-23.66806 c -13.03073,0 -23.66806,10.50436 -23.66806,23.66806 0,13.16369 10.63733,23.53509 23.66806,23.53509 13.03073,0 23.53509,-10.50436 23.53509,-23.53509 0,-13.03073 -10.50436,-23.66806 -23.53509,-23.66806 z"
     id="path52"
     inkscape:connector-curvature="0"
     style="fill:#cbc9e0" />
  <path
     d="m 411.84313,206.48542 c -15.15819,0 -27.52409,-12.3659 -27.52409,-27.52409 0,-15.1582 12.3659,-27.52409 27.52409,-27.52409 15.1582,0 27.52409,12.36589 27.52409,27.52409 0,15.15819 -12.36589,27.52409 -27.52409,27.52409 z m 0,-54.25038 c -14.75929,0 -26.72629,11.96699 -26.72629,26.72629 0,14.75929 11.967,26.72629 26.72629,26.72629 14.7593,0 26.72629,-11.967 26.72629,-26.72629 0,-14.7593 -11.96699,-26.72629 -26.72629,-26.72629 z"
     id="path54"
     inkscape:connector-curvature="0" />
  <path
     d="m 392.16407,198.10852 c 5.05273,5.1857 11.967,8.3769 19.67906,8.3769 7.71206,0 14.7593,-3.1912 19.67906,-8.3769 h 63.69101 c -8.7758,38.02846 -42.81525,66.35035 -83.37007,66.35035 -40.68779,0 -74.72724,-28.32189 -83.37007,-66.35035"
     id="path56"
     inkscape:connector-curvature="0" />
  <g
     id="g66"
     style="fill:#ffffff;fill-rule:evenodd">
    <path
       d="m 402.13657,215.66012 -2.92526,5.31867 h 3.72306 v -1.19671 h -1.72857 l 1.5956,-2.65933 2.12747,3.85604 h 1.5956 l -3.05824,-5.31867 h -1.32966"
       id="path58"
       inkscape:connector-curvature="0" />
    <path
       d="m 412.90687,215.66012 h -1.32967 l -2.12747,3.85603 -2.12746,-3.85603 h -1.32967 v 5.31867 h 1.32967 v -2.7923 l 1.5956,2.7923 h 1.06373 l 1.5956,-2.7923 v 2.7923 h 1.32967 m -13.5626,-3.19121 h -3.32417 v 1.06374 h 1.86154 v 0.93076 h -3.45713 v -2.92526 h 4.7868 v -1.1967 h -4.7868 c -1.06374,0 -1.32967,0.26593 -1.32967,1.32966 v 2.65934 c 0,0.93076 0.26593,1.32967 1.32967,1.32967 h 3.45713 c 1.06373,0 1.32967,-0.26594 1.32967,-1.32967 v -1.86154 z m 25.13069,-2.12746 h -3.05823 c -1.06373,0 -1.32967,0.26593 -1.32967,1.32966 v 2.65934 c 0,0.93076 0.26594,1.32967 1.32967,1.32967 h 3.05823 c 1.06373,0 1.32967,-0.26594 1.32967,-1.32967 v -0.93077 H 424.342 v 1.06373 h -3.05823 v -2.92526 h 3.05823 v 0.93076 h 1.46263 v -0.79779 c 0,-0.93077 -0.3989,-1.32967 -1.32967,-1.32967 z m 6.3824,4.12196 h -3.05823 v -4.12196 h -1.46263 v 3.989 c 0,0.93076 0.26593,1.32967 1.32966,1.32967 h 3.1912 c 1.06374,0 1.32967,-0.26594 1.32967,-1.32967 v -3.989 h -1.46264 v 4.12196 z m 7.1802,-1.46262 c 0.3989,-0.13297 0.53187,-0.39891 0.53187,-0.79781 v -0.66483 c 0,-0.7978 -0.39891,-1.06373 -1.19671,-1.06373 h -4.38789 v 5.31866 h 4.12196 c 1.06373,0 1.5956,-0.3989 1.5956,-1.06373 v -0.66483 c -0.13296,-0.53187 -0.26593,-0.93077 -0.66483,-1.06373 z m -3.72307,-1.59561 h 2.52637 c 0.39889,0 0.39889,0.13297 0.39889,0.26593 v 0.53187 c 0,0.13297 0,0.26593 -0.39889,0.26593 h -2.52637 z m 2.92526,2.7923 c 0,0.26593 0,0.26593 -0.39889,0.26593 h -2.52637 v -1.06373 h 2.52637 c 0.39889,0 0.39889,0.13297 0.39889,0.26593 z m 3.32418,-0.66483 h 2.26043 v -1.1967 h -2.26043 v -0.7978 h 3.98899 v -1.1967 h -5.45163 v 5.31867 h 5.45163 v -1.19671 h -3.98899 v -0.93076 m -25.66257,0 h 2.39341 v -1.1967 h -2.39341 v -0.7978 h 3.989 v -1.1967 h -5.45163 v 5.31867 h 5.45163 v -1.19671 h -3.989 v -0.93076 m 14.22744,-4.52086 h 0.7978 v -4.12197 h -0.7978 v 2.65933 l -1.32967,-2.65933 h -1.06374 v 4.12197 h 0.7978 v -3.19121 m -19.94499,3.19121 v -3.19121 l 1.5956,3.19121 h 0.7978 v -4.12197 h -0.7978 v 2.65933 l -1.32966,-2.65933 h -1.06374 v 4.12196 m -11.83403,0 v -3.1912 l 1.5956,3.1912 h 0.7978 v -4.12196 h -0.7978 v 2.65933 l -1.32966,-2.65933 h -1.06374 v 4.12196 m 8.3769,-4.12196 h -0.93077 v 4.12196 h 0.93077 v -4.12196 m 14.22743,0 h -3.32417 v 0.66483 h 1.32967 v 3.45713 h 0.7978 v -3.45713 h 1.1967 m 18.74829,3.45713 c 0.66483,0 1.32967,-0.53186 1.32967,-1.06373 v -1.9945 c 0,-0.53186 -0.53187,-1.06373 -1.32967,-1.06373 h -1.86153 v 3.989 h 1.86153 z m -1.06373,-3.45713 h 1.06373 c 0.26594,0 0.53187,0.26593 0.53187,0.3989 v 1.86153 c 0,0.26594 -0.26593,0.39891 -0.53187,0.39891 h -1.06373 z m 9.1747,0.3989 c 0,-0.53186 -0.53187,-1.06373 -1.32967,-1.06373 h -0.66483 c -0.66484,0 -1.32967,0.53187 -1.32967,1.06373 v 1.9945 c 0,0.53187 0.53187,1.06373 1.32967,1.06373 h 0.66483 c 0.66483,0 1.32967,-0.53186 1.32967,-1.06373 z m -0.7978,1.9945 c 0,0.26594 -0.26594,0.3989 -0.53187,0.3989 h -0.66483 c -0.26594,0 -0.53187,-0.26593 -0.53187,-0.3989 v -1.9945 c 0,-0.26593 0.26593,-0.3989 0.53187,-0.3989 h 0.66483 c 0.26593,0 0.53187,0.13297 0.53187,0.3989 z m -22.87027,0 c 0,0.53187 0.53187,1.06373 1.19671,1.06373 h 1.72856 v -0.66483 h -1.72856 c -0.26594,0 -0.53187,-0.13296 -0.53187,-0.3989 v -0.7978 h 2.26043 v -0.66483 h -2.12746 v -0.53187 c 0,-0.26593 0.26593,-0.3989 0.53187,-0.3989 h 1.72856 v -0.66483 h -1.72856 c -0.66484,0 -1.19671,0.53187 -1.19671,1.06373 z m 25.26367,6.51536 h 1.06373 v 0.26594 h -0.3989 v 0.93076 h -0.26593 v -0.93076 h -0.3989 m 1.46263,-0.26594 0.26593,0.93077 0.26594,-0.93077 h 0.26593 v 1.1967 h -0.13297 v -0.93076 h -0.13296 l -0.13297,0.93076 h -0.26594 l -0.26593,-0.93076 v 0.93076 h -0.13296 v -1.1967 m -66.88222,-1.86153 3.05824,1.72857 v -3.45713 l -3.05824,-1.72857 v 3.45713"
       id="path60"
       inkscape:connector-curvature="0" />
    <path
       d="m 376.20808,212.46892 2.12746,1.1967 v 4.91977 l 4.25494,2.52636 v 2.52636 l -6.3824,-3.72306 m 6.64833,-7.84503 -2.92526,1.72857 2.92526,1.86153 3.05823,-1.86153 -3.05823,-1.72857"
       id="path62"
       inkscape:connector-curvature="0" />
    <path
       d="m 376.47401,211.93705 2.12746,1.1967 4.25494,-2.52636 3.72307,2.12747 2.12746,-1.1967 -5.85053,-3.32417 m 4.65383,10.3714 v -2.52637 l -1.32967,0.7978 v 1.06373 l -2.92526,1.72857 v -3.45713 l 6.3824,-3.72307 v 7.44613 l -6.3824,3.72306 v -2.52636 l 4.25493,-2.52636"
       id="path64"
       inkscape:connector-curvature="0" />
  </g>
  <path
     d="m 354.53452,220.18098 h 0.3989 c 0,0.13297 0,0.13297 0.13296,0.26594 0,0 0.13297,0.13296 0.26594,0.13296 h 0.26593 l 0.13297,-0.13296 v -0.13297 c 0,0 -0.13297,0 -0.26594,-0.13297 h -0.26593 c -0.13297,0 -0.26593,-0.13296 -0.3989,-0.13296 -0.13297,-0.13297 -0.13297,-0.26594 -0.13297,-0.3989 0,-0.13297 0,-0.3989 0.13297,-0.3989 0.13297,-0.13297 0.26593,-0.13297 0.53187,-0.13297 0.26593,0 0.3989,0 0.53186,0.13297 0.13297,0.13296 0.13297,0.26593 0.13297,0.3989 h -0.3989 c 0,-0.13297 0,-0.13297 -0.13297,-0.26594 0,0 -0.13296,-0.13296 -0.26593,-0.13296 h -0.26593 l -0.13297,0.13296 v 0.13297 h 0.53187 c 0.13296,0 0.26593,0.13297 0.3989,0.13297 0.13296,0.13296 0.13296,0.26593 0.13296,0.3989 0,0.26593 0,0.3989 -0.13296,0.53186 -0.13297,0.13297 -0.26594,0.13297 -0.53187,0.13297 -0.26593,0 -0.3989,0 -0.53187,-0.13297 0,0 -0.13296,-0.13296 -0.13296,-0.3989 z m 2.7923,0.26594 c 0,0.13296 -0.13297,0.26593 -0.26594,0.39889 -0.13296,0.13297 -0.26593,0.13297 -0.3989,0.13297 -0.13296,0 -0.26593,-0.13297 -0.3989,-0.26593 -0.13296,-0.13297 -0.13296,-0.26593 -0.13296,-0.53187 0,-0.26593 0,-0.3989 0.13296,-0.53186 0.13297,-0.13297 0.26594,-0.26594 0.3989,-0.26594 0.13297,0 0.3989,0.13297 0.3989,0.26594 0.13297,0.13296 0.13297,0.3989 0.13297,0.53186 l 0.13297,0.26594 -0.7978,-0.13297 c 0,0.13297 0,0.13297 0.13296,0.26593 l 0.13297,0.13297 h 0.13297 l 0.13296,-0.13297 z m -0.7978,-0.3989 h 0.53186 c 0,-0.13297 0,-0.13297 -0.13296,-0.26594 l -0.13297,-0.13296 c -0.13297,0 -0.13297,0 -0.13297,0.13296 -0.13296,0 -0.13296,0.13297 -0.13296,0.26594 z m 2.12746,0.53186 c 0,0.13297 0,0.13297 0,0 v 0.13297 h -0.3989 v -0.13297 c 0,0.13297 -0.13296,0.13297 -0.13296,0.13297 h -0.26594 c -0.13296,0 -0.26593,0 -0.26593,-0.13297 -0.13297,-0.13296 -0.13297,-0.13296 -0.13297,-0.3989 0,-0.13296 0,-0.26593 0.13297,-0.26593 0.13297,0 0.13297,-0.13297 0.3989,-0.13297 h 0.13297 c 0.13296,0 0.26593,-0.13296 0.26593,-0.13296 v -0.13297 h -0.26593 v 0.13297 h -0.26594 c 0,-0.13297 0,-0.26594 0.13297,-0.3989 0.13297,-0.13297 0.26593,-0.13297 0.3989,-0.13297 h 0.26593 c 0.13297,0 0.13297,0 0.13297,0.13297 0,0 0,0.13296 0.13297,0.13296 v 0.26594 z m -0.3989,-0.3989 c 0,0 -0.13296,0 -0.26593,0.13297 h -0.26593 v 0.26593 h 0.13296 c 0.13297,0 0.13297,0 0.26594,-0.13296 0.13296,0 0.13296,-0.13297 0.13296,-0.26594 z m 0.66484,0.66483 v -1.86153 h 0.26593 v 1.86153 z"
     id="path68"
     inkscape:connector-curvature="0"
     style="fill:#ffffff" />
  <path
     d="m 369.29381,215.66012 1.32967,1.46263 -1.86153,1.06373 0.53186,2.12747 h -1.9945 l -0.13296,2.3934 -2.26044,-0.66484 -0.3989,2.26044 -2.12746,-0.7978 -1.06374,1.9945 -1.59559,-1.46264 -1.46264,1.9945 -1.5956,-1.72856 -1.72856,1.5956 -1.06374,-1.86154 -1.9945,1.1967 -0.66483,-2.12746 -2.3934,0.93076 -0.3989,-2.12746 -2.12746,0.3989 0.26593,-2.12747 h -2.12747 l 0.53187,-2.26043 -1.5956,-0.93077 1.32967,-1.46263 -1.1967,-2.12747 1.86153,-0.66483 -0.53187,-2.26043 h 2.12747 l 0.26593,-2.26043 1.86154,0.66483 0.66483,-2.12747 1.9945,1.06374 0.7978,-1.86154 1.72856,1.1967 1.1967,-1.86153 1.5956,1.5956 1.32967,-1.46263 1.1967,1.86153 1.86153,-1.1967 0.7978,1.9945 1.86153,-0.93077 0.53187,2.12747 2.26043,-0.3989 -0.13296,1.9945 2.26043,0.26593 -0.66483,1.9945 1.99449,0.7978 z m -1.32966,0 c 0,-4.25494 -4.91977,-7.71207 -11.03623,-7.71207 -6.11647,0 -11.03623,3.45713 -11.03623,7.71207 0,4.25493 4.91976,7.71206 11.03623,7.71206 6.11646,0 11.03623,-3.45713 11.03623,-7.71206 z"
     id="path70"
     inkscape:connector-curvature="0"
     style="fill:#ffffff" />
  <path
     d="m 353.33782,211.80408 c 0,-0.53186 0.26593,-0.66483 0.53186,-0.66483 0.26594,0 0.53187,0.13297 0.53187,0.66483 0,0.53187 -0.26593,0.66484 -0.53187,0.66484 -0.26593,-0.13297 -0.53186,-0.26594 -0.53186,-0.66484 z m -0.3989,0 c 0,0.7978 0.66483,0.93077 0.93076,0.93077 0.26594,0 0.93077,-0.13297 0.93077,-0.93077 0,-0.7978 -0.66483,-0.93076 -0.93077,-0.93076 -0.26593,0 -0.93076,0 -0.93076,0.93076 z m 2.3934,0.7978 h -0.3989 v -1.06373 h -0.13297 v -0.26593 h 0.13297 v -0.13297 c 0,-0.26593 0.13296,-0.3989 0.3989,-0.3989 h 0.13296 v 0.26593 h -0.13296 c -0.13297,0 -0.13297,0 -0.13297,0.13297 h 0.26593 v 0.26593 h -0.26593 z m 0.7978,0 h -0.3989 v -1.06373 h -0.13297 v -0.26593 h 0.13297 v -0.13297 c 0,-0.26593 0.13296,-0.3989 0.3989,-0.3989 h 0.13296 v 0.26593 h -0.13296 c -0.13297,0 -0.13297,0 -0.13297,0.13297 h 0.26593 v 0.26593 h -0.26593 z m 0.66483,-1.32966 v 1.32966 h -0.3989 v -1.32966 z m 0,-0.13297 h -0.3989 v -0.26593 h 0.3989 z m 1.46263,1.06373 c 0,0.13297 -0.13296,0.53187 -0.66483,0.53187 -0.53187,0 -0.66483,-0.3989 -0.66483,-0.66483 0,-0.3989 0.13296,-0.7978 0.66483,-0.7978 0.26593,0 0.53187,0.13296 0.53187,0.53186 h -0.3989 c 0,-0.13296 -0.13297,-0.26593 -0.26594,-0.26593 -0.26593,0 -0.26593,0.26593 -0.26593,0.3989 0,0.13297 0,0.3989 0.26593,0.3989 0.13297,0 0.26594,-0.13297 0.26594,-0.26593 z m 0.53187,-0.93076 v 1.32966 h -0.3989 v -1.32966 z m 0,-0.13297 h -0.3989 v -0.26593 h 0.3989 z m 1.06373,1.06373 c 0,0.13297 -0.13296,0.26594 -0.26593,0.26594 -0.13297,0 -0.13297,0 -0.13297,-0.13297 0,-0.13297 0.13297,-0.13297 0.26594,-0.26593 0.13296,0 0.26593,0 0.26593,-0.13297 v 0.26593 z m 0.3989,-0.53186 c 0,-0.26594 -0.3989,-0.3989 -0.53186,-0.3989 -0.26594,0 -0.53187,0 -0.66484,0.53186 h 0.3989 c 0,-0.13296 0,-0.13296 0.26594,-0.13296 0.13296,0 0.26593,0 0.26593,0.13296 0,0.13297 -0.13297,0.13297 -0.13297,0.13297 h -0.26593 c -0.26593,0 -0.3989,0.13297 -0.3989,0.3989 0,0.26593 0.26593,0.3989 0.3989,0.3989 0.26593,0 0.3989,-0.13297 0.3989,-0.13297 v 0.13297 h 0.3989 c 0,0 -0.13297,0 -0.13297,-0.26593 z m 0.26593,-0.7978 h 0.26594 v 1.72856 h -0.26594"
     id="path72"
     inkscape:connector-curvature="0"
     style="fill:#ffffff" />
  <path
     d="m 356.92792,222.70735 c 5.71756,0 10.37139,-3.1912 10.37139,-7.04723 0,-3.85604 -4.65383,-7.04723 -10.37139,-7.04723 -5.71757,0 -10.3714,3.19119 -10.3714,7.04723 0,3.85603 4.65383,7.04723 10.3714,7.04723 z m -10.10547,-7.04723 c 0,-3.72307 4.52087,-6.7813 10.10547,-6.7813 5.58459,0 10.10546,3.05823 10.10546,6.7813 0,3.72306 -4.52087,6.78129 -10.10546,6.78129 -5.5846,0 -10.10547,-3.05823 -10.10547,-6.78129 z"
     id="path74"
     inkscape:connector-curvature="0"
     style="fill:#ffffff" />
  <g
     id="g80"
     style="fill:#ffffff">
    <path
       d="m 363.44328,218.05352 c 1.1967,0 2.12747,-0.93077 2.12747,-2.12747 0,-1.1967 -0.93077,-2.12746 -2.12747,-2.12746 h -13.16369 c -1.1967,0 -2.12747,0.93076 -2.12747,2.12746 0,1.1967 0.93077,2.12747 2.12747,2.12747 z m -13.16369,-0.53187 c -0.93077,0 -1.5956,-0.66483 -1.5956,-1.5956 0,-0.93077 0.66483,-1.59559 1.5956,-1.59559 h 13.03072 c 0.93077,0 1.5956,0.66482 1.5956,1.59559 0,0.93077 -0.66483,1.5956 -1.5956,1.5956 z"
       id="path76"
       inkscape:connector-curvature="0" />
    <path
       d="m 349.74772,216.85682 v -1.9945 h 0.66483 l 0.7978,1.32967 v -1.32967 h 0.66484 v 1.9945 h -0.66484 c 0,-0.13297 -0.7978,-1.32966 -0.7978,-1.32966 v 1.32966 z m 4.12197,-1.32966 h 0.26593 c 0.53186,-0.13297 0.7978,0.13296 0.7978,0.13296 0.26593,0.26593 0.13297,0.7978 0.13297,1.1967 h -0.66484 v -0.93077 c 0,-0.13296 -0.13296,-0.26593 -0.26593,-0.26593 -0.13297,0 -0.26593,0.13297 -0.26593,0.26593 v 0.93077 h -0.66484 v -1.32966 z m 1.1967,0 v -0.13297 h 0.26593 v -0.26594 h 0.66483 v 0.26594 h 0.3989 v 0.13297 h -0.3989 v 1.32966 h -0.66483 v -1.32966 m 0.93076,0.66483 c 0,-0.3989 0.39891,-0.7978 0.79781,-0.7978 h 0.53186 c 0.13297,0 0.26594,0 0.26594,0.13297 0.13296,0.13296 0.26593,0.39889 0.26593,0.53186 h -1.06373 c 0,0.13297 -0.13297,0.53187 0.26593,0.53187 0.13296,0 0.13296,0 0.26593,-0.13297 v -0.26593 h 0.66483 c -0.13296,0.3989 -0.53186,0.53186 -0.93076,0.53186 -0.26593,0.26594 -0.93077,0.13297 -1.06374,-0.53186 z m 0.66484,-0.13297 h 0.3989 v -0.13297 c 0,-0.13296 -0.13297,-0.26593 -0.26593,-0.26593 l -0.13297,0.13297 z m 5.5846,0.3989 c -0.13297,-0.13296 -0.13297,-0.3989 0,-0.66483 0.13297,-0.13297 0.3989,-0.3989 0.53186,-0.3989 0.13297,0 0.3989,-0.13297 0.66484,0 0.13296,0 0.39889,0.13297 0.53186,0.3989 0.13297,0.13296 0.13297,0.53187 0,0.66483 l -0.3989,0.3989 c -0.13296,0 -0.53186,0.13297 -0.66483,0 -0.3989,0 -0.53186,-0.13297 -0.66483,-0.3989 z m 0.7978,0.26593 c 0.13296,0 0.26593,-0.13296 0.26593,-0.26593 v -0.66483 c 0,-0.13297 0,-0.26593 -0.26593,-0.26593 -0.26594,0 -0.26594,0.13296 -0.26594,0.26593 v 0.66483 c 0,0.13297 0,0.26593 0.26594,0.26593 z m -1.19671,0.13297 h -0.53186 v -0.13297 c -0.13297,0.13297 -0.7978,0.13297 -1.06373,-0.39889 0,0 -0.13297,-0.39891 0,-0.66484 0.13297,-0.3989 0.53186,-0.3989 0.7978,-0.3989 0.13296,0 0.26593,0.13297 0.26593,0.13297 v -0.7978 h 0.66483 c -0.13297,0.26593 -0.13297,2.26043 -0.13297,2.26043 z m -0.53186,-0.26593 v -0.7978 l -0.13297,-0.13297 c -0.13296,0 -0.26593,0.13297 -0.26593,0.13297 v 0.66483 c 0,0 0,0.13297 0.13297,0.13297 0,0.13296 0.13296,0.13296 0.26593,0 z m -9.30766,-1.06373 v 1.32966 h 0.66483 v -1.32966 m -0.66483,-0.66484 v 0.3989 h 0.66483 v -0.3989 m 5.9835,0.66484 c 0.13296,0 0.13296,0 0,0 h 0.26593 c 0.53187,-0.13297 0.7978,0.13296 0.7978,0.13296 0.26593,0.26593 0.13297,0.7978 0.13297,1.1967 h -0.66484 v -0.93077 c 0,-0.13296 -0.13296,-0.26593 -0.26593,-0.26593 -0.13297,0 -0.26593,0.13297 -0.26593,0.26593 v 0.93077 h -0.66484 v -1.32966 z m 4.91976,-0.26594 v -0.26593 h 0.26593 c -0.13296,0.13296 -0.13296,0.26593 -0.26593,0.26593 z m 0,-0.13297 z m 0,0.26594 c -0.13296,0 -0.13296,-0.13297 -0.13296,-0.13297 0,-0.13297 0.13296,-0.13297 0.13296,-0.13297 0.13297,0 0.13297,0.13297 0.13297,0.13297 0.13296,0 0,0.13297 -0.13297,0.13297 z m 0,-0.3989 c -0.13296,0 -0.13296,0 -0.13296,0.13296 0,0.13297 0,0.13297 0.13296,0.13297 0.13297,0 0.13297,0 0.13297,-0.13297 0,0 0,-0.13296 -0.13297,-0.13296 z"
       id="path78"
       inkscape:connector-curvature="0" />
  </g>
  <path
     d="m 473.27371,203.02829 h -19.28016 v 27.52409 h 19.41313 v -27.52409"
     id="path82"
     inkscape:connector-curvature="0"
     style="fill:#ffffff" />
  <path
     d="m 454.52542,203.56016 h 18.48236 v 26.46036 h -18.48236 z"
     id="path84"
     inkscape:connector-curvature="0" />
  <path
     d="m 455.45618,207.94805 h 16.48786 v 16.35489 h -16.48786 z m 0.7978,18.08346 c 0,0.3989 -0.13296,0.53187 -0.3989,0.53187 -0.53186,0 -0.53186,-0.26593 -0.53186,-0.66483 v -0.26594 c 0,-0.3989 0,-0.66483 0.53186,-0.66483 0.26594,0 0.3989,0.13297 0.3989,0.3989 v 0.13297 h -0.26593 c 0,-0.13297 0,-0.26594 -0.13297,-0.26594 -0.26593,0 -0.26593,0.26594 -0.26593,0.3989 v 0.3989 c 0,0.13297 0,0.26594 0.26593,0.26594 0.13297,0 0.13297,-0.26594 0.13297,-0.3989 z m 0.26594,-0.3989 c 0,-0.3989 0,-0.66483 0.53186,-0.66483 0.53187,0 0.53187,0.26593 0.53187,0.66483 v 0.26594 c 0,0.3989 0,0.66483 -0.53187,0.66483 -0.3989,0 -0.53186,-0.26593 -0.53186,-0.66483 z m 0.26593,0.3989 c 0,0.13297 0,0.26594 0.26593,0.26594 0.26593,0 0.26593,-0.26594 0.26593,-0.3989 v -0.3989 c 0,-0.13297 0,-0.3989 -0.26593,-0.3989 -0.26593,0 -0.26593,0.26593 -0.26593,0.3989 z m 1.72856,-1.06373 h 0.26594 v 1.46263 h -0.26594 l -0.26593,-0.53186 c -0.13297,-0.13297 -0.13297,-0.3989 -0.26593,-0.53187 v 1.06373 h -0.26594 v -1.46263 h 0.26594 l 0.26593,0.53187 c 0.13297,0.13296 0.13297,0.3989 0.26593,0.53186 z m 1.32967,0.26593 h -0.26593 v 1.1967 h -0.26594 v -1.1967 h -0.3989 v -0.26593 h 0.93077 m 1.06373,1.32967 v 0.13296 h -0.93076 v -1.46263 h 0.93076 v 0.26593 h -0.53186 v 0.3989 h 0.3989 v 0.13297 h -0.3989 v 0.53187"
     id="path86"
     inkscape:connector-curvature="0"
     style="fill:#ffffff" />
  <path
     d="m 461.70561,224.96778 h 0.26594 v 1.46263 h -0.26594 l -0.26593,-0.53186 c -0.13297,-0.13297 -0.13297,-0.3989 -0.26593,-0.53187 v 1.06373 h -0.26594 v -1.46263 h 0.26594 l 0.26593,0.53187 c 0.13297,0.13296 0.13297,0.3989 0.26593,0.53186 z m 1.46264,0.26593 h -0.3989 v 1.1967 h -0.26594 v -1.1967 h -0.26593 v -0.26593 h 0.93077 m 0.93076,0.93077 v 0.66483 h -0.26593 v -1.46263 h 0.53187 c 0.26593,0 0.3989,0.13296 0.3989,0.3989 0,0.13296 0,0.26593 -0.26594,0.3989 0.13297,0 0.26594,0.13296 0.26594,0.26593 v 0.3989 h -0.26594 v -0.3989 c 0,-0.13297 0,-0.26593 -0.13296,-0.26593 z m 0,-0.26594 h 0.26594 c 0.13296,0 0.13296,0 0.13296,-0.26593 0,-0.13297 -0.13296,-0.13297 -0.13296,-0.13297 h -0.26594 z m 0.7978,0.7978 0.3989,-1.46263 h 0.3989 l 0.3989,1.46263 h -0.26593 l -0.13297,-0.3989 h -0.3989 l -0.13296,0.3989 z m 0.53187,-0.53186 h 0.26593 l -0.13296,-0.3989 v -0.3989 0.3989 z m 1.5956,-0.66484 h -0.26594 v 1.1967 h -0.26593 v -1.1967 h -0.3989 v -0.26593 h 0.93077 m 1.06373,1.32967 v 0.13296 h -0.93077 v -1.46263 h 0.93077 v 0.26593 h -0.53187 v 0.3989 h 0.3989 v 0.13297 h -0.3989 v 0.53187 m 0.66484,0.13296 v -1.46263 h 0.53186 c 0.13297,0 0.26594,0 0.26594,0.13297 0,0.13296 0.13296,0.26593 0.13296,0.53186 0,0.26594 0,0.66484 -0.26593,0.7978 z m 0.3989,-0.13296 c 0.26593,0 0.26593,-0.13297 0.26593,-0.53187 0,-0.3989 0,-0.53187 -0.26593,-0.53187 h -0.13297 z m 1.32966,0.13296 v -1.46263 h 0.3989 c 0.13297,0 0.26594,0 0.26594,0.13297 0,0.13296 0.13296,0.13296 0.13296,0.26593 0,0.13297 0,0.26593 -0.13296,0.26593 0.13296,0 0.26593,0.13297 0.26593,0.3989 v 0.13297 c 0,0.13297 -0.13297,0.26593 -0.3989,0.26593 z m 0.3989,-0.13296 h 0.13297 c 0.13297,0 0.13297,-0.13297 0.13297,-0.26594 0,-0.13296 0,-0.26593 -0.26594,-0.26593 h -0.13296 z m 0,-0.66484 h 0.26594 v -0.13296 c 0,-0.13297 0,-0.13297 -0.13297,-0.13297 h -0.13297 z m 1.1967,-0.26593 v 0.26593 c 0,-0.13296 0,-0.13296 0.13297,-0.26593 l 0.13297,-0.3989 h 0.26593 l -0.3989,0.7978 v 0.66483 h -0.26593 v -0.66483 l -0.3989,-0.7978 h 0.26593 z m -12.89776,3.1912 v 0.53187 h -3.1912 v -2.12747 h 3.05823 v 0.53187 h -1.86153 v 0.26593 h 1.5956 v 0.53187 h -1.5956 v 0.26593 m 5.05273,-0.93077 c 0,-0.13296 -0.13296,-0.13296 -0.13296,-0.13296 h -0.26594 c -0.26593,0 -0.3989,0 -0.3989,0.13296 0,0.26594 2.12747,0.13297 2.12747,0.93077 0,0.53187 -0.7978,0.7978 -1.72857,0.7978 -0.93076,0 -1.5956,-0.3989 -1.72856,-0.66483 h 1.1967 c 0,0.13296 0.13296,0.13296 0.26593,0.13296 h 0.3989 c 0.26593,0 0.53187,0 0.53187,-0.13296 0,-0.26594 -2.12747,-0.13297 -2.12747,-0.93077 0,-0.3989 0.66483,-0.66483 1.5956,-0.66483 1.06373,0 1.46263,0.26593 1.5956,0.66483 h -1.32967 z m 3.45714,0.66484 v 0.7978 h -1.1967 v -2.12747 h 1.72856 c 1.1967,0 1.72857,0.13297 1.72857,0.66483 0,0.26594 -0.13297,0.3989 -0.66484,0.53187 0.3989,0.13297 0.66484,0.13297 0.66484,0.53187 0,0.26593 0,0.3989 0.13296,0.3989 h -1.1967 v -0.3989 c 0,-0.26594 -0.13296,-0.3989 -0.66483,-0.3989 z m 0,-0.3989 h 0.53186 c 0.3989,0 0.53187,0 0.53187,-0.26594 0,-0.13296 -0.26593,-0.26593 -0.53187,-0.26593 h -0.53186 z m 3.45713,1.1967 v -2.12747 h 1.86153 c 0.7978,0 1.46263,0.13297 1.46263,0.53187 0,0.26593 -0.26593,0.3989 -0.53186,0.53186 0.3989,0 0.66483,0.26594 0.66483,0.53187 0,0.53187 -0.66483,0.66483 -1.5956,0.66483 h -1.86153 z m 1.1967,-0.93077 v 0.3989 h 0.53186 c 0.26594,0 0.53187,0 0.53187,-0.13297 0,-0.13296 -0.26593,-0.26593 -0.66483,-0.26593 z m 0,-0.66483 v 0.3989 h 0.53186 c 0.26594,0 0.3989,0 0.3989,-0.13297 0,-0.13297 -0.26593,-0.13297 -0.53186,-0.13297 h -0.3989 z"
     id="path88"
     inkscape:connector-curvature="0"
     style="fill:#ffffff" />
  <path
     d="m 455.98805,209.41069 c 0,-0.53187 0.3989,-0.7978 0.93076,-0.7978 0.53187,0 0.93077,0.3989 0.93077,0.7978 0,0.53186 -0.3989,0.93076 -0.93077,0.93076 -0.53186,0 -0.93076,-0.3989 -0.93076,-0.93076 m 1.72856,0 c 0,-0.3989 -0.3989,-0.66484 -0.7978,-0.66484 -0.39889,0 -0.79779,0.26594 -0.79779,0.66484 0,0.3989 0.3989,0.66483 0.79779,0.66483 0.3989,0 0.7978,-0.26593 0.7978,-0.66483 m -1.06373,0.13296 v 0.3989 h -0.13296 v -1.06373 h 0.39889 c 0.26594,0 0.3989,0 0.3989,0.26593 0,0.13297 -0.13296,0.26594 -0.26593,0.26594 0.13297,0 0.13297,0.13296 0.13297,0.26593 v 0.26593 h -0.26594 v -0.3989 h -0.26593 m 0.26593,-0.26593 c 0.13297,0 0.26594,-0.13297 0.26594,-0.13297 0,-0.13296 0,-0.13296 -0.13297,-0.13296 h -0.3989 v 0.26593 z"
     id="path90"
     inkscape:connector-curvature="0" />
  <path
     d="m 471.27921,206.35245 h -0.66483 v -0.3989 h 0.66483 v -0.7978 h 0.3989 v 0.7978 h 0.66483 v 0.3989 h -0.66483 v 0.66484 h -0.3989 m -1.86153,0 0.66483,-2.12747 h -0.7978 v -0.3989 h 1.1967 v 0.53187 l -0.53187,1.9945 m -2.12746,-2.12747 c 0.13296,-0.13297 0.3989,-0.26593 0.3989,-0.3989 h 0.3989 v 2.52637 h -0.53187 v -1.9945 c -0.13297,0.13296 -0.26593,0.26593 -0.3989,0.26593 v -0.3989 z m -1.06374,2.12747 v -0.3989 h -0.93076 v -0.7978 h 0.7978 v -0.3989 h -0.7978 v -0.66484 h 0.93076 v -0.3989 h -1.32966 v 2.65934 m -0.7978,-1.32967 c 0.3989,0 0.3989,-0.26593 0.3989,-0.66483 0,-0.3989 -0.26593,-0.66484 -0.53187,-0.66484 h -0.93076 v 2.65934 h 0.53186 v -1.06374 h 0.13297 c 0.3989,0 0.3989,0.26594 0.3989,0.53187 v 0.53187 h 0.53187 v -0.7978 c -0.13297,-0.3989 -0.3989,-0.53187 -0.53187,-0.53187 m -0.3989,-0.13297 h -0.26593 v -0.7978 h 0.26593 c 0.13297,0 0.26593,0.13297 0.26593,0.3989 0,0.13297 0,0.3989 -0.26593,0.3989 m -1.46263,0.66484 c 0,0.26593 -0.13297,0.3989 -0.26594,0.3989 -0.13296,0 -0.26593,-0.13297 -0.26593,-0.3989 v -1.86154 h -0.53187 v 1.86154 c 0,0.53186 0.26594,0.7978 0.7978,0.7978 0.66484,0 0.7978,-0.3989 0.7978,-0.7978 v -1.86154 h -0.53186 z m -2.3934,0.7978 h 0.53186 v -2.12747 h 0.53187 v -0.53187 h -1.72857 v 0.53187 h 0.66484 m -1.72857,-0.53187 -0.66483,2.65934 h 0.53186 l 0.13297,-0.53187 h 0.66483 l 0.13297,0.53187 h 0.53187 l -0.66484,-2.65934 z m 0.13297,1.72857 0.26593,-1.1967 0.26593,1.1967 z m -2.52637,-1.72857 h -0.7978 v 2.65934 h 0.3989 v -1.9945 h 0.13297 l 0.3989,1.9945 h 0.53186 l 0.3989,-1.9945 v 1.9945 h 0.53187 v -2.65934 h -0.7978 l -0.3989,1.86154"
     id="path92"
     inkscape:connector-curvature="0"
     style="fill:#ffffff" />
  <path
     d="m 464.09901,217.12275 -0.7978,-7.44613 5.1857,-1.32967 3.1912,11.967 -3.1912,0.7978 -2.26043,-8.50987 0.93076,8.90877 -3.45713,0.93076 -3.5901,-8.24393 2.26044,8.64283 -3.05824,0.7978 -3.32416,-11.96699 5.1857,-1.32967"
     id="path94"
     inkscape:connector-curvature="0" />
</svg>
