<?xml version="1.0" encoding="UTF-8" standalone="no"?>
<svg
   xmlns:dc="http://purl.org/dc/elements/1.1/"
   xmlns:cc="http://creativecommons.org/ns#"
   xmlns:rdf="http://www.w3.org/1999/02/22-rdf-syntax-ns#"
   xmlns:svg="http://www.w3.org/2000/svg"
   xmlns="http://www.w3.org/2000/svg"
   xmlns:sodipodi="http://sodipodi.sourceforge.net/DTD/sodipodi-0.dtd"
   xmlns:inkscape="http://www.inkscape.org/namespaces/inkscape"
   viewBox="130.3 60.7 142.05051 200.00001"
   version="1.1"
   id="svg122"
   sodipodi:docname="controller.svg"
   width="142.05051"
   height="200"
   inkscape:version="0.92.4 5da689c313, 2019-01-14">
  <metadata
     id="metadata128">
    <rdf:RDF>
      <cc:Work
         rdf:about="">
        <dc:format>image/svg+xml</dc:format>
        <dc:type
           rdf:resource="http://purl.org/dc/dcmitype/StillImage" />
      </cc:Work>
    </rdf:RDF>
  </metadata>
  <defs
     id="defs126" />
  <sodipodi:namedview
     pagecolor="#ffffff"
     bordercolor="#666666"
     borderopacity="1"
     objecttolerance="10"
     gridtolerance="10"
     guidetolerance="10"
     inkscape:pageopacity="0"
     inkscape:pageshadow="2"
     inkscape:window-width="471"
     inkscape:window-height="442"
     id="namedview124"
     showgrid="false"
     inkscape:zoom="1.1800001"
     inkscape:cx="71.025253"
     inkscape:cy="100.00001"
     inkscape:window-x="0"
     inkscape:window-y="0"
     inkscape:window-maximized="0"
     inkscape:current-layer="svg122" />
  <path
     d="m 250.59045,80.571659 c 14.0205,3.51256 17.74144,13.78235 13.54422,26.850281 -4.22699,13.06794 -13.54422,-26.374001 -13.54422,-26.850281 z"
     id="path2"
     inkscape:connector-curvature="0"
     style="fill:#d0d0d0" />
  <path
     d="m 250.53092,80.571659 v -0.0595 h 0.0595 c 6.31072,1.57768 10.74607,4.55443 13.12747,8.90048 1.30977,2.35164 1.99443,5.12001 2.05396,8.18607 0.0595,3.006521 -0.47628,6.310711 -1.63721,9.823271 -0.62512,1.90512 -1.36931,2.79815 -2.2921,2.67908 -2.41117,-0.38698 -5.35815,-8.30513 -7.41211,-14.883751 -2.20279,-7.17397 -3.89954,-14.40747 -3.89954,-14.64561 z m 15.18143,17.44375 c 0,-3.21489 -0.68466,-6.07257 -2.08373,-8.54327 -2.3814,-4.28652 -6.75722,-7.26327 -13.0084,-8.84095 0.14884,0.71442 1.72652,7.53118 3.92931,14.58608 2.91722,9.406531 5.47722,14.526541 7.35258,14.794451 0.83349,0.11907 1.57767,-0.74419 2.17302,-2.61954 1.1014,-3.3935 1.63722,-6.51909 1.63722,-9.376771 z"
     id="path4"
     inkscape:connector-curvature="0" />
  <path
     d="m 263.18211,92.389349 v 0.65489 h -4.46513 v 2.14326 h -0.53581 v -2.79815 z"
     id="path6"
     inkscape:connector-curvature="0"
     style="fill:#b7b7b7" />
  <path
     d="m 250.59045,240.57199 c 14.0205,-3.51256 17.74144,-13.78235 13.54422,-26.85029 -4.22699,-13.06793 -13.54422,26.40378 -13.54422,26.85029 z"
     id="path8"
     inkscape:connector-curvature="0"
     style="fill:#d0d0d0" />
  <path
     d="m 250.53092,240.63153 v -0.0595 c 0,-0.23814 1.69675,-7.47164 3.92931,-14.64561 2.05396,-6.57862 5.00094,-14.52654 7.41211,-14.88375 0.89302,-0.14884 1.66698,0.74418 2.2921,2.67907 1.13116,3.54233 1.66698,6.84653 1.63721,9.82328 -0.0595,3.06605 -0.74419,5.83443 -2.05396,8.18606 -2.41117,4.31629 -6.81676,7.32281 -13.12747,8.90049 h -0.0893 z m 15.18143,-17.5033 c 0,-2.85768 -0.53582,-5.98327 -1.63722,-9.40653 -0.59535,-1.84558 -1.33953,-2.73861 -2.17302,-2.61954 -1.87536,0.26791 -4.40559,5.38792 -7.35258,14.79445 -2.20279,7.02513 -3.78047,13.87166 -3.92931,14.58608 6.25118,-1.57768 10.627,-4.55443 13.0084,-8.84095 1.39907,-2.44094 2.08373,-5.29862 2.08373,-8.51351 z"
     id="path10"
     inkscape:connector-curvature="0" />
  <path
     d="m 262.9142,225.4501 c 0.0595,0.32744 0.0893,0.80372 0.0893,1.25023 0,0.68466 -0.11907,1.13117 -0.41674,1.45861 -0.23814,0.23814 -0.56558,0.38698 -0.95256,0.38698 -0.65489,0 -1.1014,-0.41675 -1.28,-0.95256 -0.11907,0.38698 -0.47628,0.62512 -1.0121,0.74419 -0.68465,0.14883 -1.1907,0.2679 -1.3693,0.38697 v -0.68465 c 0.14883,-0.0893 0.56558,-0.1786 1.1907,-0.32744 0.68465,-0.14884 0.95256,-0.41675 0.98232,-1.0121 v -0.59535 h -2.17302 v -0.65488 z m -2.2921,0.62512 v 0.65488 c 0,0.68465 0.38698,1.13117 0.95256,1.13117 0.65489,0 0.9228,-0.47628 0.9228,-1.16094 0,-0.29767 -0.0298,-0.53581 -0.0595,-0.62511 h -1.81582 z"
     id="path12"
     inkscape:connector-curvature="0"
     style="fill:#b7b7b7" />
  <path
     d="m 218.97737,259.53389 c -35.89961,2.64931 -61.32106,0.50605 -75.72854,-5.14978 -21.10516,-8.2456 -12.68095,-21.87911 0.17861,-26.58238 8.78141,-3.21489 43.63916,-3.89954 46.13963,-4.07815 2.53024,-0.1786 29.23169,35.95915 29.4103,35.81031 z"
     id="path14"
     inkscape:connector-curvature="0"
     style="fill:#3c3760" />
  <path
     d="m 130.35951,241.61385 v -0.0893 c 0.0298,-2.73861 1.3693,-5.50699 3.86977,-8.03723 2.32187,-2.3814 5.59629,-4.40559 9.19816,-5.71536 7.47164,-2.73861 33.30984,-3.63163 43.04381,-3.95907 1.63721,-0.0595 2.73861,-0.0893 3.12559,-0.11907 1.90512,-0.11907 16.87817,19.46794 24.94517,30.00564 2.50047,3.27443 4.31629,5.62606 4.49489,5.7749 h 0.11907 l -0.0893,0.0893 h -0.0298 c -34.441,2.56 -60.63641,0.77395 -75.7583,-5.14978 -10.65676,-4.13768 -12.91909,-9.22793 -12.91909,-12.80003 z m 88.52855,17.86051 c -0.29767,-0.32745 -1.3693,-1.72652 -4.46512,-5.74513 -7.47165,-9.76374 -23.01028,-30.09495 -24.85587,-29.97588 -0.38698,0.0298 -1.45861,0.0595 -3.12559,0.11907 -8.78141,0.29768 -35.5424,1.22047 -43.01404,3.95908 -3.5721,1.30977 -6.84653,3.33396 -9.16839,5.68559 -2.4707,2.53024 -3.81024,5.26885 -3.84001,7.97769 v 0.0893 c 0,3.54233 2.23256,8.6028 12.80003,12.74049 15.12189,5.92373 41.28753,7.70978 75.66899,5.14978 z"
     id="path16"
     inkscape:connector-curvature="0" />
  <path
     d="m 263.68816,208.12541 c 1.22046,0.62512 1.13116,1.84559 1.04186,5.06048 -0.29768,8.48374 -6.10234,21.78981 -8.90048,25.33214 -1.84559,2.32187 -3.09582,2.58978 -5.53676,1.63722 z"
     id="path18"
     inkscape:connector-curvature="0"
     style="fill:#364ec6" />
  <path
     d="m 251.27511,81.970729 -58.61222,24.766561 c 10.56747,18.84283 14.0205,41.79358 14.0205,54.02802 0,12.23445 -3.36373,35.06612 -14.0205,54.02802 l 58.61222,24.76657 c 15.95538,-27.65402 21.01586,-60.93409 21.01586,-78.79459 0,-9.46606 -1.45861,-23.36749 -5.17955,-38.40008 -3.30419,-13.30607 -8.39444,-27.505171 -15.83631,-40.394501 z"
     id="path20"
     inkscape:connector-curvature="0"
     style="fill:#463f6f" />
  <path
     d="m 192.60336,214.8231 0.0298,-0.0298 c 11.04375,-19.70609 13.99073,-43.22241 13.99073,-54.02802 0,-10.8056 -2.94698,-34.32193 -13.99073,-54.02802 l -0.0298,-0.0298 0.0595,-0.0298 58.64198,-24.766571 0.0298,0.0298 c 6.75723,11.69863 12.08561,25.302381 15.83631,40.424271 3.3042,13.27631 5.17955,27.26704 5.17955,38.40008 0,10.35909 -1.63721,23.36749 -4.52466,35.75077 -1.72652,7.47165 -3.92931,14.76469 -6.48932,21.61121 -2.88744,7.70979 -6.25117,14.94329 -10.03165,21.46237 l -0.0298,0.0298 -0.0298,-0.0298 -58.64198,-24.76656 z M 251.27511,82.030259 192.75219,106.76706 c 4.70327,8.36467 8.48374,18.54515 10.95445,29.46983 1.93488,8.54327 3.03628,17.47352 3.03628,24.55819 0,7.11443 -1.1014,16.04468 -3.00652,24.49866 -2.4707,10.86513 -6.25117,21.07539 -10.98421,29.49959 l 58.52292,24.7368 c 16.55073,-28.72564 20.98609,-63.01781 20.98609,-78.76482 0,-11.13304 -1.87535,-25.12377 -5.17955,-38.40008 -3.7507,-15.09212 -9.07909,-28.666111 -15.80654,-40.334971 z"
     id="path22"
     inkscape:connector-curvature="0" />
  <path
     d="m 202.93268,131.9206 c 5.17955,19.34888 6.01304,36.7331 0.26791,54.5043 l 0.56558,0.95256 c 7.17397,-14.70515 6.48932,-38.96566 -0.1786,-55.66523 z m 48.10429,-49.949871 4.8521,15.89585 c 10.56746,18.842831 14.0205,50.902431 14.0205,63.136871 0,12.23445 -3.36373,42.77591 -14.0205,61.73781 l -4.8521,16.81864 c 15.95538,-27.65402 21.01586,-60.93409 21.01586,-78.79459 0,-9.46606 -1.45861,-23.36749 -5.17955,-38.40008 -3.30419,-13.30607 -8.39444,-27.505171 -15.83631,-40.394501 z"
     id="path24"
     inkscape:connector-curvature="0"
     style="fill:#524c82" />
  <path
     d="m 218.97737,61.877659 c -35.89961,-2.67907 -61.32106,-0.50604 -75.72854,5.20932 -21.10516,8.36466 -12.68095,22.17679 0.17861,26.93959 8.78141,3.27442 43.63916,3.95908 46.13963,4.13768 2.53024,0.17861 29.23169,-36.46519 29.4103,-36.28659 z"
     id="path26"
     inkscape:connector-curvature="0"
     style="fill:#3c3760" />
  <path
     d="m 130.35951,80.035839 c 0,-3.63164 2.26233,-8.78141 12.85956,-12.97863 15.12189,-5.98327 41.31729,-7.79909 75.7583,-5.20931 h 0.0298 l 0.0893,0.0893 h -0.11907 c -0.17861,0.14884 -1.99443,2.56 -4.4949,5.8642 -8.03722,10.68653 -23.04005,30.54146 -24.94517,30.39262 -0.38697,-0.0298 -1.4586,-0.0595 -3.12558,-0.11907 -9.73398,-0.32744 -35.57217,-1.25024 -43.04382,-4.01862 -3.60186,-1.33953 -6.84652,-3.39349 -9.19815,-5.80466 -2.50047,-2.56 -3.84001,-5.38792 -3.86978,-8.15629 0.0595,0 0.0595,-0.0298 0.0595,-0.0595 z m 88.52855,-18.09864 c -34.38146,-2.56001 -60.51733,-0.77396 -75.60946,5.20931 -10.56746,4.19722 -12.82979,9.31723 -12.82979,12.88933 v 0.0893 c 0.0298,2.73861 1.3693,5.53676 3.84001,8.067 2.32186,2.3814 5.56652,4.43535 9.16839,5.77489 7.47164,2.76838 34.23263,3.69117 43.01404,4.01862 1.63721,0.0595 2.73861,0.0893 3.12559,0.11907 1.84558,0.11907 17.38422,-20.48005 24.85586,-30.36286 3.06606,-4.07815 4.10792,-5.47722 4.43536,-5.80466 z"
     id="path28"
     inkscape:connector-curvature="0" />
  <path
     d="m 188.01916,240.8399 c -6.16187,-11.19258 -10.32932,-19.55725 -21.67074,-22.534 -11.34142,-2.97675 -18.51539,-12.77026 -18.51539,-24.40936 0,-13.99072 11.34142,-25.33214 25.33215,-25.33214 6.16187,0 11.8177,2.20279 16.19352,5.8642 4.40559,3.6614 10.38886,12.80002 30.36285,12.80002 19.974,0 36.19729,16.22329 36.19729,36.19729 0,19.97399 -16.22329,36.19728 -36.19729,36.19728 -13.63351,0.0298 -25.54052,-7.56094 -31.70239,-18.78329 z"
     id="path30"
     inkscape:connector-curvature="0"
     style="fill:#4e477c" />
  <path
     d="m 147.80326,193.92631 c 0,-13.99073 11.37119,-25.36191 25.36192,-25.36191 5.92373,0 11.69863,2.08372 16.22329,5.8642 0.65488,0.53581 1.30977,1.1907 2.11349,1.93488 4.46512,4.31629 11.25212,10.86514 28.24936,10.86514 9.67444,0 18.7833,3.78048 25.62982,10.627 6.84653,6.84653 10.627,15.95538 10.627,25.62982 0,9.67444 -3.78047,18.7833 -10.627,25.62982 -6.84652,6.84653 -15.95538,10.627 -25.62982,10.627 -13.21677,0 -25.39168,-7.20373 -31.76193,-18.81306 l 0.0298,-0.0298 -0.0298,0.0298 c -0.23814,-0.44651 -0.47628,-0.89302 -0.74418,-1.33954 -5.83444,-10.627 -10.03165,-18.30701 -20.89679,-21.16469 -5.53676,-1.45861 -10.21026,-4.55443 -13.54422,-8.98979 -3.27442,-4.40559 -5.00094,-9.76374 -5.00094,-15.50887 z m 108.11558,29.52937 c 0,-19.94423 -16.22329,-36.13775 -36.13775,-36.13775 -7.50141,0 -13.69305,-1.25024 -18.90237,-3.86978 -4.40559,-2.2028 -7.17397,-4.88187 -9.40653,-7.02513 -0.77395,-0.74419 -1.45861,-1.39907 -2.08372,-1.93489 -4.52466,-3.78047 -10.26979,-5.8642 -16.16376,-5.8642 -13.93119,0 -25.27261,11.34142 -25.27261,25.27261 0,11.84747 7.26327,21.40284 18.48562,24.34982 5.03071,1.30977 8.96002,3.78048 12.41305,7.73955 3.15535,3.63164 5.65583,8.18607 8.54327,13.48468 0.23814,0.44652 0.47628,0.89303 0.74419,1.33954 6.37025,11.57956 18.51539,18.75353 31.70239,18.75353 19.85493,0.0298 36.07822,-16.19352 36.07822,-36.10798 z"
     id="path32"
     inkscape:connector-curvature="0" />
  <path
     d="m 188.01916,80.214449 c -6.16187,11.19258 -10.32932,19.55725 -21.67074,22.534001 -11.34142,2.97675 -18.51539,12.77026 -18.51539,24.40935 0,13.99073 11.34142,25.33215 25.33215,25.33215 6.16187,0 11.8177,-2.2028 16.19352,-5.8642 4.37582,-3.66141 10.38886,-12.80003 30.36285,-12.80003 19.974,0 36.19729,-16.22329 36.19729,-36.197281 0,-19.974 -16.19352,-36.19729 -36.16752,-36.19729 -13.66328,0 -25.57029,7.59071 -31.73216,18.7833 z"
     id="path34"
     inkscape:connector-curvature="0"
     style="fill:#4e477c" />
  <path
     d="m 147.80326,127.1578 c 0,-5.74513 1.72652,-11.10328 5.00094,-15.4791 3.3042,-4.40559 8.00746,-7.53118 13.54422,-8.98979 10.86514,-2.857681 15.06235,-10.537701 20.89679,-21.164691 0.23814,-0.44652 0.47628,-0.89303 0.74418,-1.33954 6.37025,-11.60933 18.54516,-18.81306 31.76193,-18.81306 9.67444,0 18.7833,3.78047 25.62982,10.62699 6.84653,6.84653 10.627,15.95539 10.627,25.62983 0,9.674431 -3.78047,18.783291 -10.627,25.629821 -6.84652,6.84652 -15.95538,10.627 -25.62982,10.627 -16.99724,0 -23.75447,6.54885 -28.24936,10.86513 -0.77396,0.74419 -1.45861,1.39908 -2.11349,1.93489 -4.55443,3.78048 -10.29956,5.8642 -16.22329,5.8642 -13.96096,-0.0298 -25.36192,-11.40095 -25.36192,-25.39168 z M 255.91884,97.628439 c 0,-19.94423 -16.22329,-36.13775 -36.13775,-36.13775 -13.18701,0 -25.33215,7.20373 -31.70239,18.78329 -0.23814,0.44651 -0.47628,0.89303 -0.74419,1.33954 -2.88745,5.29861 -5.38792,9.85304 -8.54328,13.48468 -3.45303,3.95908 -7.38234,6.429781 -12.41304,7.739551 -11.22235,2.94698 -18.48562,12.50235 -18.48562,24.34982 0,13.93119 11.34141,25.27261 25.27261,25.27261 5.89396,0 11.63909,-2.08373 16.16375,-5.8642 0.65489,-0.53582 1.30977,-1.1907 2.08373,-1.93489 2.23256,-2.14326 5.00094,-4.8521 9.40653,-7.02513 5.20931,-2.58977 11.40095,-3.86977 18.90236,-3.86977 19.974,0 36.19729,-16.22329 36.19729,-36.137751 z"
     id="path36"
     inkscape:connector-curvature="0" />
  <path
     d="m 219.75132,121.91872 c -13.42514,0 -24.29028,-10.89491 -24.29028,-24.290281 0,-13.39538 10.8949,-24.29029 24.29028,-24.29029 13.42514,0 24.29028,10.89491 24.29028,24.29029 0,13.395371 -10.86514,24.290281 -24.29028,24.290281 z"
     id="path38"
     inkscape:connector-curvature="0"
     style="fill:#524c82" />
  <path
     d="m 173.19494,144.21458 c -9.4363,0 -17.08654,-7.65025 -17.08654,-17.05678 0,-9.40653 7.65024,-17.08655 17.05678,-17.08655 9.4363,0 17.08654,7.65025 17.08654,17.05678 0.0298,9.4363 -7.62048,17.08655 -17.05678,17.08655 z"
     id="path40"
     inkscape:connector-curvature="0"
     style="fill:#44416d" />
  <path
     d="m 219.75132,202.05284 c -12.20468,0 -22.11726,9.88281 -22.11726,22.11726 0,12.20467 9.88282,22.11725 22.11726,22.11725 12.23444,0 22.11726,-9.88281 22.11726,-22.11725 0,-12.23445 -9.88282,-22.11726 -22.11726,-22.11726 z"
     id="path42"
     inkscape:connector-curvature="0"
     style="fill:#524c82" />
  <path
     d="m 219.75132,212.23333 c -6.57862,0 -11.93677,5.32838 -11.93677,11.93677 0,6.60838 5.32838,11.93677 11.93677,11.93677 6.57862,0 11.93677,-5.32839 11.93677,-11.93677 0,-6.60839 -5.32838,-11.93677 -11.93677,-11.93677 z"
     id="path44"
     inkscape:connector-curvature="0" />
  <path
     d="m 219.75132,212.47147 c -6.45955,0 -11.69863,5.23908 -11.69863,11.69863 0,6.45954 5.23908,11.69863 11.69863,11.69863 6.45955,0 11.69863,-5.23909 11.69863,-11.69863 0,-6.45955 -5.23908,-11.69863 -11.69863,-11.69863 z"
     id="path46"
     inkscape:connector-curvature="0"
     style="fill:#42c7c3" />
  <path
     d="m 218.82853,165.88532 c -2.61954,0 -4.7628,-2.11349 -4.7628,-4.7628 0,-2.61954 2.11349,-4.7628 4.7628,-4.7628 2.61954,0 4.7628,2.11349 4.7628,4.7628 0,2.61954 -2.11349,4.7628 -4.7628,4.7628 z"
     id="path48"
     inkscape:connector-curvature="0" />
  <path
     d="m 218.82853,165.79602 c -2.58978,0 -4.6735,-2.08373 -4.6735,-4.6735 0,-2.58977 2.08372,-4.6735 4.6735,-4.6735 2.58977,0 4.6735,2.08373 4.6735,4.6735 0,2.56001 -2.08373,4.6735 -4.6735,4.6735 z m 20.68841,60.48757 c 0.14884,5.12001 6.63816,4.46512 8.067,-0.0595 1.42884,-4.55442 0.32744,-11.84746 -3.45303,-15.24096 -3.78048,-3.36373 -9.4363,-0.29767 -7.56095,3.27443 1.87535,3.5721 2.76838,6.90606 2.94698,12.02607 z"
     id="path50"
     inkscape:connector-curvature="0"
     style="fill:#d3d3d3" />
  <path
     d="m 236.03415,212.85844 c 0,-0.92279 0.44651,-1.81581 1.30977,-2.4707 1.63721,-1.28 4.58419,-1.51814 6.87629,0.50605 3.84001,3.42326 4.9414,10.86514 3.51256,15.3898 -0.83349,2.67907 -3.39349,4.01861 -5.38791,3.7507 -1.78605,-0.23814 -2.88745,-1.63721 -2.97675,-3.69117 -0.14884,-4.7628 -0.98233,-8.12652 -2.94699,-11.96653 -0.2679,-0.53582 -0.38697,-1.0121 -0.38697,-1.51815 z m 11.9963,9.07909 c 0,-3.95907 -1.30977,-8.4242 -4.01861,-10.83537 -2.14326,-1.90512 -4.94141,-1.66698 -6.48932,-0.47628 -1.22047,0.95256 -1.51814,2.2921 -0.86326,3.5721 1.99443,3.86978 2.82792,7.26327 2.97675,12.08561 0.0595,1.90512 1.07163,3.18512 2.70885,3.42326 1.87535,0.26791 4.28652,-0.98233 5.06047,-3.54233 0.41675,-1.22047 0.62512,-2.67908 0.62512,-4.22699 z"
     id="path52"
     inkscape:connector-curvature="0" />
  <path
     d="m 219.75132,112.09544 c -8.00746,0 -14.46701,-6.48931 -14.46701,-14.467001 0,-7.9777 6.48932,-14.46701 14.46701,-14.46701 8.00746,0 14.46701,6.48931 14.46701,14.46701 0,7.977691 -6.45955,14.467001 -14.46701,14.467001 z"
     id="path54"
     inkscape:connector-curvature="0"
     style="fill:#cccccc;stroke:#000000;stroke-width:0.29767504;stroke-linecap:round;stroke-linejoin:round" />
  <path
     stroke-miterlimit="10"
     d="m 219.75132,109.20799 c -6.40001,0 -11.60933,-5.17954 -11.60933,-11.609321 0,-6.42978 5.17955,-11.60933 11.60933,-11.60933 6.42978,0 11.60933,5.17955 11.60933,11.60933 0,6.429781 -5.17955,11.609321 -11.60933,11.609321 z"
     id="path56"
     inkscape:connector-curvature="0"
     style="fill:none;stroke:#797979;stroke-width:0.29767504;stroke-miterlimit:10" />
  <path
     d="m 219.75132,105.78473 c -4.49489,0 -8.1563,-3.6614 -8.1563,-8.156291 0,-4.4949 3.66141,-8.1563 8.1563,-8.1563 4.49489,0 8.1563,3.6614 8.1563,8.1563 0.0298,4.494891 -3.63164,8.156291 -8.1563,8.156291 z"
     id="path58"
     inkscape:connector-curvature="0"
     style="fill:none;stroke:#797979;stroke-width:2.63969278;stroke-linecap:round;stroke-linejoin:round" />
  <path
     d="m 219.75132,101.64705 c -2.23256,0 -4.04838,-1.815821 -4.04838,-4.048381 0,-2.23257 1.81582,-4.04838 4.04838,-4.04838 2.23256,0 4.04838,1.81581 4.04838,4.04838 0,2.23256 -1.81582,4.048381 -4.04838,4.048381 z"
     id="path60"
     inkscape:connector-curvature="0"
     style="fill:none;stroke:#797979;stroke-width:4.46512556;stroke-linecap:round;stroke-linejoin:round" />
  <path
     d="m 222.78761,224.14033 -3.09582,-0.86326 v 1.72652 l 3.09582,-0.86326 m 0.71442,-0.47628 v 0.98233 l -6.07257,1.84558 v -0.86326 l 1.57767,-0.44651 v -2.14326 l -1.57767,-0.44651 v -0.86326 l 6.07257,1.93489"
     id="path62"
     inkscape:connector-curvature="0"
     style="fill:#3faaa2" />
  <path
     d="m 246.1551,217.1152 v 0.86326 l -2.67908,1.48837 2.67908,1.48838 v 0.89302 l -3.36373,-1.93489 h -2.73861 v -0.83349 h 2.73861 l 3.36373,-1.96465"
     id="path64"
     inkscape:connector-curvature="0"
     style="fill:#b7b7b7" />
  <path
     d="m 218.53085,244.67991 c -5.12001,0.23814 -4.37582,6.69768 0.20838,8.06699 4.55442,1.36931 11.87723,0.11907 15.18142,-3.72094 3.3042,-3.84001 0.14884,-9.4363 -3.39349,-7.53118 -3.54234,1.90512 -6.8763,2.94699 -11.99631,3.18513 z"
     id="path66"
     inkscape:connector-curvature="0"
     style="fill:#d3d3d3" />
  <path
     d="m 214.80991,248.01387 c 0,-0.14884 0,-0.29768 0.0298,-0.44652 0.20837,-1.78605 1.57768,-2.91721 3.66141,-3.03628 4.7628,-0.23814 8.09676,-1.1014 11.907,-3.15536 1.39907,-0.74418 2.94698,-0.41674 3.95907,0.86326 1.28001,1.60745 1.60745,4.5842 -0.38697,6.87629 -3.36373,3.89955 -10.77584,5.09025 -15.33027,3.75071 -2.4707,-0.71442 -3.84001,-2.94698 -3.84001,-4.8521 z m 20.33121,-2.61954 c 0,-1.13117 -0.35721,-2.2028 -0.98233,-2.94699 -0.95256,-1.1907 -2.2921,-1.48837 -3.60187,-0.80372 -3.84,2.05396 -7.2335,2.94698 -12.02607,3.18512 -1.90512,0.0893 -3.18512,1.13117 -3.36373,2.76838 -0.23814,1.87535 1.07163,4.25675 3.60187,5.00094 4.46513,1.33954 11.7284,0.14884 15.03259,-3.6614 0.9228,-1.1014 1.33954,-2.35163 1.33954,-3.54233 z"
     id="path68"
     inkscape:connector-curvature="0" />
  <path
     d="m 228.29459,246.16828 v 0.89303 l -2.29209,1.33953 2.29209,1.36931 v 0.89302 l -2.85768,-1.81581 -3.21489,1.93488 v -0.89302 l 2.61954,-1.48838 -2.61954,-1.60744 v -0.89303 l 3.21489,2.02419 2.85768,-1.75628"
     id="path70"
     inkscape:connector-curvature="0"
     style="fill:#b7b7b7" />
  <path
     d="m 187.09637,123.5857 c 0,-0.59535 -0.44651,-1.07163 -0.98233,-1.07163 h -8.30513 v -8.30513 c 0,-0.53582 -0.47628,-0.98233 -1.07163,-0.98233 h -7.11444 c -0.59535,0 -1.07163,0.44651 -1.07163,0.98233 v 8.30513 h -8.30513 c -0.53582,0 -0.98233,0.47628 -0.98233,1.07163 v 7.11443 c 0,0.59535 0.44651,1.07163 0.98233,1.07163 h 8.30513 v 8.30514 c 0,0.53581 0.47628,0.98232 1.07163,0.98232 h 7.11444 c 0.59535,0 1.07163,-0.44651 1.07163,-0.98232 v -8.30514 h 8.30513 c 0.53582,0 0.98233,-0.47628 0.98233,-1.07163 z"
     id="path72"
     inkscape:connector-curvature="0"
     style="fill:#9e9e9e" />
  <path
     d="m 158.96608,130.70013 v -7.11443 c 0,-0.74419 0.56558,-1.36931 1.28,-1.36931 h 8.00746 v -8.00745 c 0,-0.71442 0.62512,-1.28001 1.3693,-1.28001 h 7.11444 c 0.74418,0 1.3693,0.56559 1.3693,1.28001 v 8.00745 h 8.00746 c 0.71442,0 1.28,0.62512 1.28,1.36931 v 7.11443 c 0,0.77396 -0.56558,1.36931 -1.28,1.36931 h -8.00746 v 8.00746 c 0,0.71442 -0.62512,1.28 -1.3693,1.28 h -7.11444 c -0.74418,0 -1.3693,-0.56558 -1.3693,-1.28 v -8.00746 h -8.00746 c -0.71442,0.0298 -1.28,-0.59535 -1.28,-1.36931 z M 177.541,114.20894 c 0,-0.38698 -0.35721,-0.68466 -0.77396,-0.68466 h -7.11443 c -0.41674,0 -0.77395,0.29768 -0.77395,0.68466 v 8.30513 c 0,0.1786 -0.11907,0.29767 -0.29768,0.29767 h -8.30513 c -0.38698,0 -0.68466,0.35721 -0.68466,0.77396 v 7.11443 c 0,0.41675 0.29768,0.77396 0.68466,0.77396 h 8.30513 c 0.17861,0 0.29768,0.11907 0.29768,0.29767 v 8.30514 c 0,0.38697 0.35721,0.68465 0.77395,0.68465 h 7.11443 c 0.41675,0 0.77396,-0.29768 0.77396,-0.68465 v -8.30514 c 0,-0.1786 0.11907,-0.29767 0.29767,-0.29767 h 8.30514 c 0.38698,0 0.68465,-0.35721 0.68465,-0.77396 v -7.11443 c 0,-0.41675 -0.29767,-0.77396 -0.68465,-0.77396 h -8.30514 c -0.1786,0 -0.29767,-0.11907 -0.29767,-0.29767 z"
     id="path74"
     inkscape:connector-curvature="0" />
  <path
     d="m 186.14381,130.7299 c -0.0893,0 -0.0893,0.0595 -0.0893,0 v -7.1442 h -8.21584 c -0.59535,0 -1.07163,-0.47628 -1.07163,-1.07163 v -8.30513 c 0,0.0893 0.0595,0.0893 0,0.0893 h -7.11443 c -0.0595,0 0,0 0,-0.0893 v 8.30513 c 0,0.59535 -0.47628,1.07163 -1.07163,1.07163 h -8.2456 v 7.11443 c 0,0.0595 0,0 -0.0893,0 h 8.30513 c 0.59535,0 1.07163,0.47628 1.07163,1.07163 v 8.30514 c 0,-0.0893 -0.0595,-0.0893 0,-0.0893 h 7.11444 c 0.0595,0 0,0 0,0.0893 v -8.30514 c 0,-0.59535 0.47628,-1.07163 1.07163,-1.07163 h 8.3349 z"
     id="path76"
     inkscape:connector-curvature="0"
     style="fill:#cccccc" />
  <path
     d="m 173.19494,130.52153 c -1.87535,0 -3.36372,-1.51815 -3.36372,-3.36373 0,-1.84559 1.51814,-3.36373 3.36372,-3.36373 1.84559,0 3.36373,1.51814 3.36373,3.36373 0,1.84558 -1.51814,3.36373 -3.36373,3.36373 z m 11.78794,-3.3935 c 0,-0.11907 -0.0893,-0.23814 -0.17861,-0.29767 l -4.64373,-2.67908 c -0.11907,-0.0595 -0.26791,-0.0595 -0.38698,0 -0.11907,0.0595 -0.1786,0.20837 -0.1786,0.32744 v 5.35815 c 0,0.14884 0.0595,0.26791 0.1786,0.32745 0.11907,0.0595 0.26791,0.0595 0.38698,0 l 4.64373,-2.67908 c 0.0893,-0.0893 0.17861,-0.20837 0.17861,-0.35721 z m -23.57587,0 c 0,-0.11907 0.0893,-0.23814 0.17861,-0.29767 l 4.64373,-2.67908 c 0.11907,-0.0595 0.26791,-0.0595 0.38698,0 0.11907,0.0595 0.1786,0.20837 0.1786,0.32744 v 5.35815 c 0,0.14884 -0.0595,0.26791 -0.1786,0.32745 -0.11907,0.0595 -0.26791,0.0595 -0.38698,0 l -4.64373,-2.67908 c -0.11907,-0.0893 -0.17861,-0.20837 -0.17861,-0.35721 z m 11.78793,11.8177 c 0.11907,0 0.23814,-0.0893 0.29768,-0.1786 l 2.67907,-4.64373 c 0.0595,-0.11907 0.0595,-0.26791 0,-0.38698 -0.0595,-0.11907 -0.20837,-0.17861 -0.32744,-0.17861 h -5.35815 c -0.14884,0 -0.26791,0.0595 -0.32744,0.17861 -0.0595,0.11907 -0.0595,0.26791 0,0.38698 l 2.67907,4.64373 c 0.0893,0.0893 0.23814,0.1786 0.35721,0.1786 z m 0,-23.57586 c 0.11907,0 0.23814,0.0893 0.29768,0.1786 l 2.67907,4.64373 c 0.0595,0.11907 0.0595,0.26791 0,0.38698 -0.0595,0.11907 -0.20837,0.17861 -0.32744,0.17861 h -5.35815 c -0.14884,0 -0.26791,-0.0595 -0.32744,-0.17861 -0.0595,-0.11907 -0.0595,-0.26791 0,-0.38698 l 2.67907,-4.64373 c 0.0893,-0.11907 0.23814,-0.20837 0.35721,-0.1786 z"
     id="path78"
     inkscape:connector-curvature="0"
     style="fill:#808080" />
  <path
     d="m 230.31878,150.49552 h -0.38697 c 0.0595,-0.11907 0.11907,-0.23814 0.1786,-0.32744 0.0298,-0.11907 0.0595,-0.23814 0.0595,-0.35721 0,-0.1786 -0.0298,-0.32744 -0.11907,-0.41674 -0.0893,-0.0893 -0.17861,-0.14884 -0.32745,-0.14884 -0.11907,0 -0.20837,0.0298 -0.2679,0.0893 -0.0595,0.0595 -0.11907,0.17861 -0.14884,0.38698 l -0.0298,0.20837 c -0.0595,0.26791 -0.14884,0.44651 -0.29767,0.56558 -0.11907,0.11907 -0.29768,0.17861 -0.53582,0.17861 -0.26791,0 -0.44651,-0.0893 -0.59535,-0.23814 -0.14884,-0.14884 -0.20837,-0.38698 -0.20837,-0.71442 0,-0.11907 0,-0.26791 0.0298,-0.38698 0.0298,-0.11907 0.0595,-0.26791 0.11907,-0.38698 h 0.38697 c -0.0893,0.14884 -0.14883,0.26791 -0.20837,0.38698 -0.0298,0.11907 -0.0595,0.26791 -0.0595,0.38698 0,0.1786 0.0298,0.32744 0.11907,0.44651 0.0893,0.11907 0.20837,0.14884 0.35721,0.14884 0.14883,0 0.23814,-0.0298 0.32744,-0.11907 0.0595,-0.0595 0.11907,-0.20837 0.1786,-0.38698 l 0.0595,-0.20837 c 0.0595,-0.26791 0.14884,-0.44651 0.26791,-0.56558 0.11907,-0.11907 0.2679,-0.17861 0.47628,-0.17861 0.23814,0 0.44651,0.0893 0.59535,0.23814 0.14883,0.17861 0.20837,0.38698 0.20837,0.65489 0,0.11907 0,0.20837 -0.0298,0.32744 -0.0595,0.1786 -0.0893,0.29767 -0.14884,0.41674 m 0.0893,0.50605 v 2.08373 h -0.32745 v -0.86326 h -2.44093 v -0.35721 h 2.44093 v -0.86326 h 0.32745 m -0.32745,3.30419 -1.39907,-0.38697 v 0.77395 l 1.39907,-0.38698 m 0.32745,-0.23814 v 0.44652 l -2.73861,0.83349 v -0.38698 l 0.71442,-0.20837 v -0.95256 l -0.71442,-0.20838 v -0.38697 l 2.73861,0.86325 m -1.42884,2.76838 c -0.0298,0.0893 -0.0595,0.17861 -0.14884,0.23814 -0.0595,0.0595 -0.20837,0.14884 -0.41675,0.23814 l -0.74418,0.38698 v -0.38698 l 0.68465,-0.32744 c 0.20837,-0.0893 0.32744,-0.17861 0.38698,-0.26791 0.0595,-0.0893 0.0893,-0.1786 0.0893,-0.29767 v -0.35721 h -1.16093 v -0.38698 h 2.73861 v 0.77395 c 0,0.29768 -0.0595,0.53582 -0.20838,0.68466 -0.14883,0.14883 -0.32744,0.23814 -0.59535,0.23814 -0.1786,0 -0.32744,-0.0595 -0.44651,-0.14884 -0.0893,-0.0595 -0.1786,-0.20837 -0.1786,-0.38698 m 1.13116,-0.74419 h -0.98233 v 0.41675 c 0,0.1786 0.0298,0.29767 0.11907,0.38698 0.0893,0.0893 0.20838,0.11907 0.35721,0.11907 0.14884,0 0.26791,-0.0595 0.35721,-0.14884 0.0893,-0.0893 0.11907,-0.23814 0.11907,-0.41675 v -0.35721 m 0.32745,1.69675 v 2.08373 h -0.32745 v -0.86326 h -2.44093 v -0.38698 h 2.44093 v -0.86326 h 0.32745 m 0,3.84001 v 0.35721 l -3.09582,-1.45861 v -0.35721 l 3.09582,1.45861 m -0.29768,1.36931 h -1.04186 v 0.41674 c 0,0.17861 0.0595,0.29768 0.14884,0.38698 0.0893,0.0893 0.20837,0.14884 0.38697,0.14884 0.17861,0 0.29768,-0.0595 0.38698,-0.14884 0.0893,-0.0893 0.14884,-0.23814 0.14884,-0.41675 v -0.38697 m 0.26791,-0.35721 v 0.80372 c 0,0.29767 -0.0595,0.53581 -0.20838,0.68465 -0.14883,0.14884 -0.35721,0.23814 -0.62511,0.23814 -0.26791,0 -0.47628,-0.0893 -0.62512,-0.23814 -0.14884,-0.14884 -0.20837,-0.38698 -0.20837,-0.68465 v -0.41675 h -1.1014 v -0.35721 h 2.76838 m -0.32745,3.00652 -1.39907,-0.38698 v 0.77396 l 1.39907,-0.38698 m 0.32745,-0.23814 v 0.44652 l -2.73861,0.83349 v -0.38698 l 0.71442,-0.20837 v -0.95257 l -0.71442,-0.20837 v -0.38698 l 2.73861,0.86326 m -1.69675,1.63722 h 1.69675 v 0.38697 h -2.17303 c -0.0595,0 -0.0893,0.0298 -0.11907,0.0298 -0.0595,0.0298 -0.11907,0.0893 -0.17861,0.17861 -0.0298,0.0893 -0.0595,0.1786 -0.0595,0.2679 0,0.11907 0.0298,0.20838 0.0595,0.26791 0.0298,0.0595 0.0893,0.11907 0.17861,0.17861 0.0298,0.0298 0.0595,0.0298 0.11907,0.0298 h 2.17303 v 0.35721 h -1.69675 c -0.26791,0 -0.47628,-0.0298 -0.59535,-0.0595 -0.11907,-0.0298 -0.20837,-0.0893 -0.29768,-0.17861 -0.0595,-0.0893 -0.11907,-0.1786 -0.14883,-0.2679 -0.0298,-0.11907 -0.0595,-0.20838 -0.0595,-0.35721 0,-0.11907 0.0298,-0.23814 0.0595,-0.35721 0.0298,-0.11907 0.0893,-0.20838 0.14883,-0.26791 0.0893,-0.0893 0.17861,-0.14884 0.29768,-0.17861 0.11907,0 0.32744,-0.0298 0.59535,-0.0298 m 1.60744,3.86977 h -0.38697 c 0.0595,-0.11907 0.11907,-0.23814 0.1786,-0.32744 0.0298,-0.11907 0.0595,-0.23814 0.0595,-0.35721 0,-0.17861 -0.0298,-0.32744 -0.11907,-0.41675 -0.0893,-0.0893 -0.17861,-0.14883 -0.32745,-0.14883 -0.11907,0 -0.20837,0.0298 -0.2679,0.0893 -0.0595,0.0595 -0.11907,0.1786 -0.14884,0.38698 l -0.0298,0.20837 c -0.0595,0.26791 -0.14884,0.44651 -0.29767,0.56558 -0.11907,0.11907 -0.29768,0.17861 -0.53582,0.17861 -0.26791,0 -0.44651,-0.0893 -0.59535,-0.23814 -0.14884,-0.14884 -0.20837,-0.38698 -0.20837,-0.71442 0,-0.11907 0,-0.26791 0.0298,-0.38698 0.0298,-0.11907 0.0595,-0.26791 0.11907,-0.38698 h 0.38697 c -0.0893,0.14884 -0.14883,0.26791 -0.20837,0.38698 -0.0298,0.11907 -0.0595,0.26791 -0.0595,0.38698 0,0.1786 0.0298,0.32744 0.11907,0.44651 0.0893,0.11907 0.20837,0.14884 0.35721,0.14884 0.14883,0 0.23814,-0.0298 0.32744,-0.11907 0.0595,-0.0595 0.11907,-0.20838 0.1786,-0.38698 l 0.0595,-0.20837 c 0.0595,-0.26791 0.14884,-0.44652 0.26791,-0.56559 0.11907,-0.11907 0.2679,-0.1786 0.47628,-0.1786 0.23814,0 0.44651,0.0893 0.59535,0.23814 0.14883,0.1786 0.20837,0.38698 0.20837,0.65488 0,0.11907 0,0.20838 -0.0298,0.32745 -0.0595,0.14883 -0.0893,0.2679 -0.14884,0.41674 m 0.0893,0.77396 v 1.63721 h -0.32745 v -1.25024 h -0.80372 v 1.1907 h -0.32744 v -1.1907 h -0.98233 v 1.28001 h -0.32744 v -1.66698 h 2.76838"
     id="path80"
     inkscape:connector-curvature="0"
     style="fill:#353156" />
  <path
     d="m 173.19494,129.36059 c -1.22046,0 -2.20279,-0.98232 -2.20279,-2.20279 0,-1.22047 0.98233,-2.2028 2.20279,-2.2028 1.22047,0 2.2028,0.98233 2.2028,2.2028 0,1.22047 -0.98233,2.20279 -2.2028,2.20279 z"
     id="path82"
     inkscape:connector-curvature="0"
     style="fill:#6a6a6a" />
  <path
     d="m 219.84062,115.19126 -10.35909,-3.24466 -6.34048,-8.81118 -0.11907,-10.865141 6.40002,-8.75164 10.29955,-3.45303 10.29956,3.39349 6.48932,8.72188 -0.0298,10.865141 -6.28095,8.84095 -10.35909,3.30419 z"
     id="path84"
     inkscape:connector-curvature="0" />
  <path
     d="m 219.84062,114.83405 -10.15072,-3.18512 -6.2214,-8.63258 -0.11907,-10.656761 6.28094,-8.60281 10.09118,-3.3935 10.12095,3.33396 6.34048,8.54328 -0.0298,10.656761 -6.16188,8.69211 -10.15072,3.24466 z"
     id="path86"
     inkscape:connector-curvature="0"
     style="fill:#b0b2b2" />
  <path
     d="m 219.75132,110.39869 c -7.0549,0 -12.80003,-5.71536 -12.80003,-12.800021 0,-7.08467 5.71536,-12.80003 12.80003,-12.80003 7.08467,0 12.80003,5.71536 12.80003,12.80003 0,7.084661 -5.71536,12.800021 -12.80003,12.800021 z"
     id="path88"
     inkscape:connector-curvature="0"
     style="fill:#cccccc" />
  <path
     d="m 219.75132,109.80334 c -6.72746,0 -12.17491,-5.44745 -12.17491,-12.174901 0,-6.72746 5.44745,-12.17491 12.17491,-12.17491 6.72746,0 12.17491,5.44745 12.17491,12.17491 0,6.727451 -5.41769,12.174901 -12.17491,12.174901 z"
     id="path90"
     inkscape:connector-curvature="0"
     style="fill:#d8d8d8" />
  <path
     d="m 219.75132,107.92799 c -5.68559,0 -10.29956,-4.61396 -10.29956,-10.299551 0,-5.6856 4.61397,-10.29956 10.29956,-10.29956 5.68559,0 10.29956,4.61396 10.29956,10.29956 0,5.685591 -4.5842,10.299551 -10.29956,10.299551 z"
     id="path92"
     inkscape:connector-curvature="0"
     style="fill:#cccccc" />
  <path
     d="m 219.75132,107.15404 c -5.26885,0 -9.55537,-4.28652 -9.55537,-9.555371 0,-5.26885 4.28652,-9.55537 9.55537,-9.55537 5.26885,0 9.55537,4.28652 9.55537,9.55537 0,5.298611 -4.25675,9.555371 -9.55537,9.555371 z"
     id="path94"
     inkscape:connector-curvature="0"
     style="fill:#d8d8d8" />
  <path
     d="m 219.75132,105.33822 c -4.25675,0 -7.70978,-3.45303 -7.70978,-7.709781 0,-4.25676 3.45303,-7.70979 7.70978,-7.70979 4.25675,0 7.70978,3.45303 7.70978,7.70979 0.0298,4.256751 -3.42326,7.709781 -7.70978,7.709781 z"
     id="path96"
     inkscape:connector-curvature="0"
     style="fill:#cccccc" />
  <path
     d="m 219.75132,104.05822 c -3.54233,0 -6.42978,-2.88745 -6.42978,-6.429781 0,-3.54234 2.88745,-6.42979 6.42978,-6.42979 3.54233,0 6.42978,2.88745 6.42978,6.42979 0,3.542331 -2.85768,6.429781 -6.42978,6.429781 z"
     id="path98"
     inkscape:connector-curvature="0"
     style="fill:#d8d8d8" />
  <path
     d="m 219.75132,101.91496 c -2.3814,0 -4.31629,-1.934891 -4.31629,-4.316291 0,-2.3814 1.93489,-4.31629 4.31629,-4.31629 2.3814,0 4.31629,1.93489 4.31629,4.31629 0,2.3814 -1.93489,4.316291 -4.31629,4.316291 z"
     id="path100"
     inkscape:connector-curvature="0"
     style="fill:#cccccc" />
  <path
     d="m 219.75132,100.72426 c -1.72651,0 -3.12559,-1.399081 -3.12559,-3.125591 0,-1.72652 1.39908,-3.12559 3.12559,-3.12559 1.72652,0 3.12559,1.39907 3.12559,3.12559 0,1.72651 -1.39907,3.125591 -3.12559,3.125591 z"
     id="path102"
     inkscape:connector-curvature="0"
     style="fill:#d8d8d8" />
  <path
     d="m 173.46285,212.20356 -10.35909,-3.24466 -6.34048,-8.81118 -0.11907,-10.86514 6.40001,-8.75165 10.29956,-3.45303 10.29956,3.3935 6.48931,8.72188 -0.0298,10.86514 -6.28095,8.84095 -10.35909,3.30419 z"
     id="path104"
     inkscape:connector-curvature="0" />
  <path
     d="m 173.46285,211.84635 -10.15072,-3.18512 -6.22141,-8.63258 -0.11907,-10.65677 6.28095,-8.60281 10.09118,-3.39349 10.12095,3.33396 6.34048,8.54327 -0.0298,10.65677 -6.16187,8.69211 -10.15072,3.24466 z"
     id="path106"
     inkscape:connector-curvature="0"
     style="fill:#ffd22d" />
  <path
     d="m 173.19494,185.08536 c -5.26884,0 -9.55537,4.25676 -9.55537,9.5256 0,5.26885 4.25676,9.55537 9.52561,9.55537 5.26884,0 9.55537,-4.25675 9.55537,-9.5256 0,-5.29861 -4.25676,-9.55537 -9.52561,-9.55537 z"
     id="path108"
     inkscape:connector-curvature="0" />
  <path
     d="m 173.19494,185.26397 c -5.17954,0 -9.34699,4.19722 -9.34699,9.34699 0,5.17955 4.19722,9.347 9.34699,9.347 5.17955,0 9.347,-4.19722 9.347,-9.347 0,-5.14977 -4.19722,-9.34699 -9.347,-9.34699 z"
     id="path110"
     inkscape:connector-curvature="0"
     style="fill:#ffde32" />
  <path
     d="m 170.5754,196.51608 c -0.11907,-0.20837 -0.20837,-0.41674 -0.23814,-0.65488 -0.0595,-0.20837 -0.0893,-0.44651 -0.0893,-0.71442 0,-0.77396 0.26791,-1.36931 0.83349,-1.81582 0.56558,-0.41674 1.33954,-0.65488 2.32187,-0.65488 0.98232,0 1.75628,0.20837 2.32186,0.65488 0.56558,0.44651 0.83349,1.04186 0.83349,1.81582 0,0.23814 -0.0298,0.47628 -0.0893,0.71442 -0.0595,0.20837 -0.14884,0.44651 -0.23814,0.65488 h -0.83349 c 0.1786,-0.20837 0.29767,-0.41674 0.38698,-0.65488 0.0893,-0.23814 0.11907,-0.47628 0.11907,-0.68465 0,-0.53582 -0.20838,-0.9228 -0.62512,-1.1907 -0.41675,-0.26791 -1.04186,-0.38698 -1.87535,-0.38698 -0.83349,0 -1.45861,0.11907 -1.87536,0.38698 -0.41674,0.2679 -0.62511,0.65488 -0.62511,1.1907 0,0.23814 0.0298,0.47628 0.11907,0.71442 0.0893,0.23814 0.20837,0.44651 0.38697,0.65488 h -0.83349"
     id="path112"
     inkscape:connector-curvature="0"
     style="fill:#e5bd13" />
  <path
     d="m 207.84432,194.99794 c -3.95908,0 -7.17397,3.21489 -7.17397,7.17397 0,3.95908 3.21489,7.17397 7.17397,7.17397 3.95908,0 7.17397,-3.21489 7.17397,-7.17397 0,-3.98885 -3.21489,-7.17397 -7.17397,-7.17397 z"
     id="path114"
     inkscape:connector-curvature="0" />
  <path
     d="m 207.84432,195.17655 c -3.86978,0 -7.02513,3.15535 -7.02513,7.02513 0,3.86977 3.15535,7.02513 7.02513,7.02513 3.86977,0 7.02513,-3.15536 7.02513,-7.02513 0,-3.86978 -3.12559,-7.02513 -7.02513,-7.02513 z"
     id="path116"
     inkscape:connector-curvature="0"
     style="fill:#ef1c35" />
  <path
     d="m 207.72525,201.10028 h -2.23256 v 0.98233 c 0,0.47628 0.0893,0.80372 0.23814,1.01209 0.1786,0.20838 0.44651,0.29768 0.83349,0.29768 0.38697,0 0.68465,-0.11907 0.86325,-0.32744 0.17861,-0.20838 0.26791,-0.53582 0.26791,-1.0121 v -0.95256 m 2.53024,0 h -1.84559 v 0.95256 c 0,0.38698 0.0893,0.68465 0.23814,0.86326 0.14884,0.1786 0.38698,0.26791 0.74419,0.26791 0.29768,0 0.53582,-0.0893 0.65489,-0.26791 0.14883,-0.17861 0.20837,-0.44651 0.20837,-0.86326 v -0.95256 m 0.65488,-0.80372 v 1.78605 c 0,0.62512 -0.14883,1.1014 -0.41674,1.42884 -0.26791,0.32744 -0.65489,0.50605 -1.13117,0.50605 -0.35721,0 -0.65488,-0.0893 -0.89302,-0.26791 -0.20837,-0.17861 -0.35721,-0.44651 -0.41675,-0.80372 -0.0595,0.38697 -0.23814,0.71442 -0.50604,0.92279 -0.26791,0.23814 -0.62512,0.32744 -1.07163,0.32744 -0.56559,0 -0.95256,-0.1786 -1.25024,-0.53581 -0.26791,-0.35721 -0.41674,-0.89303 -0.41674,-1.60745 v -1.78605 h 6.10233"
     id="path118"
     inkscape:connector-curvature="0"
     style="fill:#cc1b39" />
  <path
     d="m 259.31233,164.93276 h 0.62512 v -1.78605 c 0,-0.23814 -0.0595,-0.44651 -0.14884,-0.62512 -0.0893,-0.1786 -0.20837,-0.35721 -0.35721,-0.44651 -0.14883,-0.11907 -0.32744,-0.1786 -0.50604,-0.1786 h -1.93489 c -0.17861,0 -0.35721,0.0595 -0.50605,0.1786 -0.14884,0.11907 -0.26791,0.26791 -0.35721,0.44651 -0.0893,0.17861 -0.14884,0.38698 -0.14884,0.62512 v 1.81582 h 0.62512 v -1.72652 c 0,-0.14883 0.0298,-0.2679 0.11907,-0.38697 0.0893,-0.0893 0.17861,-0.17861 0.29768,-0.17861 h 0.71442 v 2.2921 h 0.62511 v -2.2921 h 0.53582 c 0.11907,0 0.23814,0.0595 0.29767,0.17861 0.0893,0.11907 0.11907,0.23814 0.11907,0.38697 z m -3.33396,4.61397 h 3.06606 l -3.06606,1.60744 v 0.77396 h 3.95908 v -0.77396 h -2.53024 l 2.53024,-1.33954 v -1.04186 h -3.95908 v 0.77396 m 3.95908,6.2214 h -3.95908 v 1.90512 c 0,0.23814 0.0595,0.44652 0.14884,0.65489 0.0893,0.20837 0.20837,0.35721 0.35721,0.47628 0.14884,0.11907 0.32744,0.1786 0.53582,0.1786 h 1.90512 c 0.1786,0 0.35721,-0.0595 0.50604,-0.1786 0.14884,-0.11907 0.26791,-0.26791 0.35721,-0.47628 0.0893,-0.17861 0.14884,-0.41675 0.14884,-0.65489 z m -0.74419,2.26233 c -0.0893,0.11907 -0.1786,0.17861 -0.29767,0.17861 h -1.87535 c -0.11907,0 -0.23814,-0.0595 -0.29768,-0.17861 -0.0893,-0.0893 -0.11907,-0.23814 -0.11907,-0.35721 v -1.10139 h 2.73861 v 1.10139 c -0.0298,0.14884 -0.0595,0.26791 -0.14884,0.35721 z m 0.62512,7.17397 c 0.0893,-0.1786 0.11907,-0.41674 0.14884,-0.65488 v -0.71442 c 0,-0.23814 -0.0595,-0.44651 -0.14884,-0.65489 -0.0893,-0.20837 -0.20837,-0.35721 -0.35721,-0.47628 -0.14884,-0.11907 -0.32744,-0.1786 -0.53581,-0.1786 h -1.96466 c -0.1786,0 -0.35721,0.0595 -0.50605,0.1786 -0.14883,0.11907 -0.2679,0.26791 -0.35721,0.47628 -0.0893,0.17861 -0.14883,0.41675 -0.14883,0.65489 v 0.71442 c 0,0.23814 0.0595,0.44651 0.14883,0.65488 0.0893,0.20838 0.20838,0.35721 0.35721,0.47628 0.14884,0.11907 0.32745,0.17861 0.50605,0.17861 h 1.96466 c 0.1786,0 0.35721,-0.0595 0.53581,-0.17861 0.14884,-0.11907 0.26791,-0.2679 0.35721,-0.47628 z m -0.59535,-0.29767 c -0.0893,0.11907 -0.1786,0.1786 -0.29767,0.1786 h -1.93489 c -0.11907,0 -0.20837,-0.0595 -0.29768,-0.1786 -0.0893,-0.0893 -0.11907,-0.23814 -0.11907,-0.35721 v -0.65489 c 0,-0.14883 0.0595,-0.2679 0.11907,-0.38697 0.0893,-0.0893 0.17861,-0.17861 0.29768,-0.17861 h 1.93489 c 0.11907,0 0.20837,0.0595 0.29767,0.17861 0.0893,0.11907 0.11907,0.23814 0.11907,0.38697 v 0.65489 c 0,0.11907 -0.0298,0.23814 -0.11907,0.35721 z m -5.77489,1.90512 h 1.10139 v -5.47722 h -5.14978 v 5.50699 h 1.16094 v -4.07815 h 0.95256 v 2.35163 h 1.1014 v -2.35163 h 0.83349 v 4.04838 m 0.0298,-6.07257 c 0.35721,0 0.62512,-0.0893 0.80373,-0.29768 0.1786,-0.20837 0.2679,-0.53581 0.2679,-0.95256 v -4.49489 h -5.17954 v 4.19722 c 0,1.10139 0.35721,1.63721 1.10139,1.63721 h 0.62512 c 0.44651,0 0.74419,-0.17861 0.92279,-0.59535 0.17861,0.35721 0.44652,0.53581 0.8335,0.53581 h 0.62511 v -0.0298 z m -0.0298,-1.39908 c -0.0595,0.0595 -0.0893,0.0893 -0.17861,0.0595 h -0.47628 c -0.0595,0 -0.11907,0 -0.1786,-0.0595 l -0.0595,-0.35721 v -2.58977 h 0.92279 v 2.58977 c 0.0298,0.17861 0,0.32745 -0.0298,0.35721 z m -2.94699,-2.94698 h 1.0121 v 2.58977 c 0,0.17861 -0.0298,0.29768 -0.0595,0.35721 -0.0595,0.0595 -0.11907,0.0893 -0.26791,0.0893 h -0.35721 c -0.11907,0 -0.20837,-0.0298 -0.23814,-0.0893 -0.0595,-0.0595 -0.0893,-0.1786 -0.0893,-0.35721 v -2.58977 z m 4.04838,-2.05396 v -1.42884 h -3.98884 v -3.12558 h 3.98884 v -1.42884 h -3.86977 c -0.32745,0 -0.56559,0.0298 -0.77396,0.11907 -0.1786,0.0893 -0.32744,0.23814 -0.38698,0.44651 -0.0893,0.20837 -0.11907,0.47628 -0.11907,0.83349 v 3.21489 c 0,0.35721 0.0298,0.62512 0.11907,0.83349 0.0893,0.20837 0.20838,0.35721 0.38698,0.44651 0.17861,0.0893 0.44651,0.11907 0.77396,0.11907 h 3.86977 v -0.0298 z m -0.53581,-6.72745 c 0.1786,-0.0893 0.32744,-0.23814 0.41674,-0.44651 0.0893,-0.20838 0.11907,-0.47628 0.11907,-0.83349 v -3.15536 c 0,-0.35721 -0.0298,-0.62512 -0.11907,-0.83349 -0.0893,-0.20837 -0.20837,-0.35721 -0.41674,-0.44651 -0.17861,-0.0893 -0.44651,-0.14884 -0.77396,-0.11907 h -2.58977 c -0.32744,0 -0.56558,0.0298 -0.77396,0.11907 -0.1786,0.0893 -0.32744,0.23814 -0.38697,0.44651 -0.0893,0.20837 -0.11907,0.47628 -0.11907,0.83349 v 3.15536 c 0,0.35721 0.0298,0.62511 0.11907,0.83349 0.0893,0.1786 0.20837,0.35721 0.38697,0.44651 0.17861,0.0893 0.44652,0.11907 0.77396,0.11907 h 0.95256 v -1.42884 h -1.04186 v -3.06606 h 2.85768 v 3.06606 h -0.92279 v 1.42884 h 0.77395 c 0.32744,0.0298 0.56558,-0.0298 0.74419,-0.11907 z m -0.56558,-6.8763 h 1.10139 v -5.47722 h -5.14978 v 5.53676 h 1.16094 v -4.07815 h 0.95256 v 2.32187 h 1.1014 v -2.32187 h 0.83349 v 4.01861 m 6.48931,-21.93865 v -0.77395 h -2.53024 l 2.53024,-1.33954 v -1.04186 h -3.95908 v 0.77395 h 3.06606 l -3.06606,1.60745 v 0.77395 h 3.95908 m -3.95908,5.29862 h 3.95908 v -0.89303 h -3.95908 v 0.89303 m 0,5.14978 h 3.06606 l -3.06606,1.60744 v 0.77396 h 3.95908 v -0.77396 h -2.53024 l 2.53024,-1.33953 v -1.04187 h -3.95908 v 0.77396 m 3.95908,5.92373 h -0.62512 v 1.30977 h -3.33396 v 0.83349 h 3.33396 v 1.33954 h 0.62512 v -3.4828 m -5.38792,-1.87535 -3.6614,-2.2028 3.6614,-2.17302 v -1.30978 h -4.25675 l 4.25675,-2.56 v -1.30977 l -5.14978,-3.06605 v 3.86977 h 1.16094 v -1.72651 l 2.56,1.57767 -3.72094,2.17303 v 2.35164 h 2.73862 l -2.73862,1.66698 v 1.04186 l 2.73862,1.66698 h -2.73862 v 1.33954 h 5.14978 v -1.33954 m -1.13116,-12.50235 h 1.13116 v -4.85211 c 0,-0.35721 -0.0298,-0.62511 -0.11907,-0.83349 -0.0893,-0.20837 -0.20837,-0.35721 -0.41674,-0.44651 -0.17861,-0.0893 -0.44651,-0.11907 -0.77396,-0.11907 h -2.58977 c -0.32744,0 -0.56558,0.0298 -0.77396,0.11907 -0.1786,0.0893 -0.32744,0.23814 -0.38697,0.44651 -0.0893,0.20838 -0.11907,0.47628 -0.11907,0.83349 v 3.54234 c 0,0.50604 0.0893,0.86325 0.2679,1.07163 0.20838,0.20837 0.53582,0.29767 1.0121,0.29767 h 1.81582 v -3.33396 h -1.07163 v 1.93489 h -0.86326 v -3.45303 h 2.85768 v 4.79257 h 0.0298 z"
     id="path120"
     inkscape:connector-curvature="0"
     style="fill:#b7b7b7;fill-rule:evenodd" />
</svg>
