<?xml version="1.0" encoding="UTF-8" standalone="no"?>
<svg
   xmlns:dc="http://purl.org/dc/elements/1.1/"
   xmlns:cc="http://creativecommons.org/ns#"
   xmlns:rdf="http://www.w3.org/1999/02/22-rdf-syntax-ns#"
   xmlns:svg="http://www.w3.org/2000/svg"
   xmlns="http://www.w3.org/2000/svg"
   xmlns:sodipodi="http://sodipodi.sourceforge.net/DTD/sodipodi-0.dtd"
   xmlns:inkscape="http://www.inkscape.org/namespaces/inkscape"
   viewBox="0 0 180.226 117.553"
   version="1.1"
   id="svg204"
   sodipodi:docname="game.svg"
   width="180.226"
   height="117.553"
   inkscape:version="0.92.4 5da689c313, 2019-01-14">
  <metadata
     id="metadata210">
    <rdf:RDF>
      <cc:Work
         rdf:about="">
        <dc:format>image/svg+xml</dc:format>
        <dc:type
           rdf:resource="http://purl.org/dc/dcmitype/StillImage" />
      </cc:Work>
    </rdf:RDF>
  </metadata>
  <defs
     id="defs208" />
  <sodipodi:namedview
     pagecolor="#ffffff"
     bordercolor="#666666"
     borderopacity="1"
     objecttolerance="10"
     gridtolerance="10"
     guidetolerance="10"
     inkscape:pageopacity="0"
     inkscape:pageshadow="2"
     inkscape:window-width="640"
     inkscape:window-height="480"
     id="namedview206"
     showgrid="false"
     inkscape:zoom="1.5036676"
     inkscape:cx="90.112999"
     inkscape:cy="58.776499"
     inkscape:window-x="0"
     inkscape:window-y="0"
     inkscape:window-maximized="0"
     inkscape:current-layer="svg204" />
  <linearGradient
     id="a"
     gradientUnits="userSpaceOnUse"
     y1="58.776001"
     x2="180.226"
     y2="58.776001">
    <stop
       offset="0"
       stop-color="#2a2b2b"
       id="stop2" />
    <stop
       offset=".07"
       stop-color="#15161b"
       id="stop4" />
    <stop
       offset=".5"
       stop-color="#161613"
       id="stop6" />
    <stop
       offset=".93"
       stop-color="#15161b"
       id="stop8" />
    <stop
       offset="1"
       stop-color="#2a2b2b"
       id="stop10" />
  </linearGradient>
  <path
     d="M 178.067,117.553 H 2.159 A 2.165,2.165 0 0 1 0,115.394 V 2.159 C 0,0.971 0.971,0 2.159,0 h 175.908 c 1.187,0 2.159,0.971 2.159,2.159 v 113.236 a 2.165,2.165 0 0 1 -2.159,2.158 z"
     id="path13"
     inkscape:connector-curvature="0"
     style="fill:url(#a)" />
  <linearGradient
     id="b"
     gradientUnits="userSpaceOnUse"
     x1="25.232"
     y1="52.898998"
     x2="154.994"
     y2="52.898998">
    <stop
       offset="0"
       stop-color="#cd9767"
       id="stop15" />
    <stop
       offset="1"
       stop-color="#ddc062"
       id="stop17" />
  </linearGradient>
  <path
     d="M 150.683,105.798 H 29.543 a 4.324,4.324 0 0 1 -4.311,-4.311 V 0 h 129.762 v 101.486 a 4.324,4.324 0 0 1 -4.311,4.312 z"
     id="path20"
     inkscape:connector-curvature="0"
     style="fill:url(#b)" />
  <path
     d="M 150.683,105.798 H 29.543 a 4.324,4.324 0 0 1 -4.311,-4.311 V 76.051 h 129.762 v 25.435 a 4.324,4.324 0 0 1 -4.311,4.312 z"
     id="path22"
     inkscape:connector-curvature="0"
     style="fill:#040006" />
  <g
     stroke-miterlimit="10"
     id="g28"
     style="fill:none;stroke:#9aa29e;stroke-miterlimit:10">
    <path
       d="M 25.232,76.051 H 154.994"
       id="path24"
       inkscape:connector-curvature="0"
       style="stroke-width:1.26400006" />
    <path
       d="M 25.232,81.608 H 154.994 M 25.232,87.164 H 154.994 M 25.232,92.72 H 154.994 M 25.232,98.277 H 154.994 M 25.932,103.833 H 154.294 M 27.491,76.051 v 29.747 M 33.39,76.051 v 29.747 m 5.898,-29.747 v 29.747 m 5.899,-29.747 v 29.747 m 5.899,-29.747 v 29.747 m 5.899,-29.747 v 29.747 m 5.898,-29.747 v 29.747 m 5.899,-29.747 v 29.747 m 5.899,-29.747 v 29.747 m 5.898,-29.747 v 29.747 m 5.899,-29.747 v 29.747 m 5.899,-29.747 v 29.747 m 5.899,-29.747 v 29.747 m 5.898,-29.747 v 29.747 m 5.899,-29.747 v 29.747 m 5.899,-29.747 v 29.747 m 5.899,-29.747 v 29.747 m 5.898,-29.747 v 29.747 m 5.899,-29.747 v 29.747 m 5.899,-29.747 v 29.747 m 5.898,-29.747 v 29.747 m 5.899,-29.747 v 29.747"
       id="path26"
       inkscape:connector-curvature="0"
       style="stroke-width:0.31600001" />
  </g>
  <path
     d="m 50.175,89.443 v 5.683 l 10.747,6.153 h 58.382 l 10.746,-6.153 v -5.683 l -5.146,-2.894 h -22.441 l -3.897,-6.6 H 81.66 l -3.898,6.6 h -22.44 z"
     id="path30"
     inkscape:connector-curvature="0"
     style="fill:#bfc0cd" />
  <g
     id="g34"
     style="fill:#201813">
    <path
       d="m 63.751,100.041 h -0.336 v -1.32 a 1.26,1.26 0 0 1 -0.414,0.054 v -0.283 c 0.277,0 0.435,-0.104 0.474,-0.312 h 0.275 v 1.861 z m 3.192,-1.578 c -0.078,0 -0.142,0.039 -0.195,0.117 a 0.799,0.799 0 0 0 -0.109,0.339 0.548,0.548 0 0 1 0.545,-0.058 0.53,0.53 0 0 1 0.181,0.127 0.603,0.603 0 0 1 0.121,0.193 0.708,0.708 0 0 1 10e-4,0.493 0.61,0.61 0 0 1 -0.12,0.205 0.56,0.56 0 0 1 -0.433,0.19 0.617,0.617 0 0 1 -0.274,-0.059 0.543,0.543 0 0 1 -0.204,-0.172 0.788,0.788 0 0 1 -0.126,-0.279 1.547,1.547 0 0 1 -0.043,-0.38 c 0,-0.667 0.222,-1 0.665,-1 0.072,0 0.138,0.011 0.201,0.034 a 0.483,0.483 0 0 1 0.165,0.101 c 0.049,0.045 0.09,0.101 0.123,0.168 a 0.762,0.762 0 0 1 0.068,0.235 h -0.346 c -0.016,-0.169 -0.09,-0.254 -0.22,-0.254 z m -0.019,0.635 c -0.1,0 -0.199,0.051 -0.299,0.152 a 0.874,0.874 0 0 0 0.089,0.4 c 0.054,0.092 0.127,0.138 0.218,0.138 a 0.215,0.215 0 0 0 0.107,-0.027 0.256,0.256 0 0 0 0.08,-0.074 0.338,0.338 0 0 0 0.051,-0.11 0.491,0.491 0 0 0 0,-0.273 0.357,0.357 0 0 0 -0.053,-0.109 0.233,0.233 0 0 0 -0.193,-0.097 z m 3.527,0.427 h -0.76 v -0.323 h 0.76 z m 3.71,-0.053 c 0,0.186 -0.06,0.327 -0.18,0.424 -0.12,0.097 -0.299,0.145 -0.536,0.145 h -0.72 v -1.874 h 0.686 c 0.1,0 0.191,0.012 0.273,0.035 a 0.64,0.64 0 0 1 0.21,0.101 0.46,0.46 0 0 1 0.133,0.159 0.468,0.468 0 0 1 0.047,0.211 0.416,0.416 0 0 1 -0.18,0.363 0.477,0.477 0 0 1 0.201,0.183 0.483,0.483 0 0 1 0.066,0.253 z m -1.086,-0.567 h 0.335 a 0.46,0.46 0 0 0 0.241,-0.049 c 0.052,-0.033 0.078,-0.087 0.078,-0.164 A 0.193,0.193 0 0 0 73.71,98.602 0.151,0.151 0 0 0 73.653,98.538 0.305,0.305 0 0 0 73.547,98.5 0.888,0.888 0 0 0 73.388,98.488 h -0.312 v 0.417 z m 0,0.814 h 0.369 c 0.239,0 0.359,-0.082 0.359,-0.247 0,-0.043 -0.006,-0.08 -0.019,-0.11 -0.013,-0.03 -0.033,-0.057 -0.064,-0.077 a 0.34,0.34 0 0 0 -0.121,-0.046 0.985,0.985 0 0 0 -0.188,-0.015 h -0.337 v 0.495 z m 3.815,0.322 h -0.348 v -1.874 h 0.348 z m 3.785,-1.552 h -0.583 v 1.552 h -0.351 v -1.552 h -0.58 v -0.322 h 1.513 v 0.322 z m 6.237,0.324 a 0.377,0.377 0 0 0 -0.259,-0.339 0.5,0.5 0 0 0 -0.16,-0.025 0.522,0.522 0 0 0 -0.217,0.043 0.447,0.447 0 0 0 -0.165,0.126 0.605,0.605 0 0 0 -0.104,0.206 c -0.025,0.081 -0.037,0.175 -0.037,0.28 0,0.105 0.012,0.199 0.037,0.28 0.025,0.081 0.059,0.15 0.104,0.206 0.046,0.056 0.1,0.098 0.163,0.127 a 0.539,0.539 0 0 0 0.38,0.019 0.367,0.367 0 0 0 0.219,-0.197 0.518,0.518 0 0 0 0.042,-0.167 h 0.357 a 0.833,0.833 0 0 1 -0.079,0.298 0.703,0.703 0 0 1 -0.165,0.22 c -0.069,0.06 -0.149,0.105 -0.239,0.136 -0.09,0.031 -0.189,0.047 -0.295,0.047 A 0.916,0.916 0 0 1 86.13,100.004 0.759,0.759 0 0 1 85.854,99.81 c -0.077,-0.084 -0.136,-0.186 -0.177,-0.305 -0.041,-0.119 -0.062,-0.252 -0.062,-0.4 0,-0.148 0.021,-0.281 0.063,-0.4 a 0.873,0.873 0 0 1 0.177,-0.306 0.773,0.773 0 0 1 0.278,-0.195 0.91,0.91 0 0 1 0.648,-0.02 0.75,0.75 0 0 1 0.411,0.352 0.73,0.73 0 0 1 0.081,0.278 h -0.361 z m 4.314,1.228 h -0.39 l -0.205,-0.536 h -0.655 l -0.195,0.536 h -0.37 l 0.72,-1.874 h 0.333 z m -0.703,-0.833 -0.227,-0.594 -0.215,0.594 z m 4.526,0.833 h -0.376 l -0.179,-0.51 a 0.387,0.387 0 0 0 -0.126,-0.175 0.339,0.339 0 0 0 -0.205,-0.07 h -0.375 v 0.753 h -0.349 v -1.874 h 0.839 c 0.051,0 0.098,10e-4 0.143,0.003 a 0.758,0.758 0 0 1 0.251,0.054 0.467,0.467 0 0 1 0.189,0.158 0.617,0.617 0 0 1 0.093,0.216 0.662,0.662 0 0 1 0.011,0.117 0.508,0.508 0 0 1 -0.311,0.482 c 0.08,0.061 0.144,0.157 0.195,0.289 z m -1.261,-1.075 h 0.465 a 0.85,0.85 0 0 0 0.162,-0.013 0.286,0.286 0 0 0 0.109,-0.043 0.171,0.171 0 0 0 0.063,-0.078 0.292,0.292 0 0 0 0.02,-0.117 c 0,-0.083 -0.026,-0.144 -0.078,-0.183 -0.052,-0.039 -0.132,-0.059 -0.239,-0.059 h -0.501 v 0.493 z m 4.959,-0.477 h -0.583 v 1.552 h -0.351 v -1.552 h -0.58 v -0.322 h 1.513 v 0.322 z m 3.898,1.552 h -0.376 l -0.179,-0.51 a 0.387,0.387 0 0 0 -0.126,-0.175 c -0.03,-0.022 -0.06,-0.038 -0.095,-0.051 -0.035,-0.013 -0.072,-0.019 -0.11,-0.019 h -0.375 v 0.753 h -0.349 v -1.874 h 0.839 c 0.051,0 0.098,10e-4 0.143,0.003 a 0.758,0.758 0 0 1 0.251,0.054 0.467,0.467 0 0 1 0.189,0.158 0.617,0.617 0 0 1 0.093,0.216 0.662,0.662 0 0 1 0.011,0.117 0.508,0.508 0 0 1 -0.311,0.482 c 0.08,0.061 0.144,0.157 0.195,0.289 z m -1.261,-1.075 h 0.465 a 0.85,0.85 0 0 0 0.162,-0.013 0.286,0.286 0 0 0 0.109,-0.043 0.171,0.171 0 0 0 0.063,-0.078 0.292,0.292 0 0 0 0.02,-0.117 c 0,-0.083 -0.026,-0.144 -0.078,-0.183 -0.052,-0.039 -0.132,-0.059 -0.239,-0.059 h -0.501 v 0.493 z m 3.956,1.075 h -0.348 v -1.874 h 0.348 z m 3.993,-0.947 c 0,0.631 -0.318,0.947 -0.957,0.947 h -0.617 v -1.874 h 0.617 c 0.639,0 0.957,0.309 0.957,0.927 z m -0.356,0 c 0,-0.094 -0.009,-0.18 -0.028,-0.254 a 0.433,0.433 0 0 0 -0.096,-0.19 0.436,0.436 0 0 0 -0.185,-0.119 0.876,0.876 0 0 0 -0.293,-0.041 h -0.265 v 1.229 h 0.265 c 0.117,0 0.214,-0.014 0.291,-0.043 0.077,-0.029 0.139,-0.069 0.185,-0.123 a 0.47,0.47 0 0 0 0.098,-0.196 1.16,1.16 0 0 0 0.028,-0.263 z m 3.556,0.976 c -0.136,0 -0.259,-0.023 -0.372,-0.07 -0.113,-0.047 -0.207,-0.112 -0.286,-0.196 a 0.87,0.87 0 0 1 -0.185,-0.305 1.136,1.136 0 0 1 -0.067,-0.397 c 0,-0.148 0.022,-0.281 0.067,-0.401 a 0.814,0.814 0 0 1 0.469,-0.497 0.967,0.967 0 0 1 0.367,-0.068 c 0.112,0 0.216,0.016 0.314,0.048 a 0.813,0.813 0 0 1 0.256,0.136 c 0.074,0.059 0.133,0.13 0.18,0.213 a 0.708,0.708 0 0 1 0.081,0.279 h -0.359 a 0.4,0.4 0 0 0 -0.043,-0.154 0.316,0.316 0 0 0 -0.095,-0.114 0.452,0.452 0 0 0 -0.144,-0.072 0.623,0.623 0 0 0 -0.185,-0.025 0.55,0.55 0 0 0 -0.222,0.043 0.455,0.455 0 0 0 -0.173,0.127 0.606,0.606 0 0 0 -0.114,0.205 0.91,0.91 0 0 0 -0.039,0.278 c 0,0.103 0.014,0.195 0.039,0.276 0.027,0.081 0.064,0.15 0.114,0.206 a 0.485,0.485 0 0 0 0.173,0.13 c 0.068,0.03 0.142,0.045 0.223,0.045 a 0.794,0.794 0 0 0 0.3,-0.051 0.524,0.524 0 0 0 0.209,-0.16 V 99.35 h -0.464 v -0.32 h 0.81 v 1.011 h -0.269 l -0.044,-0.135 a 0.673,0.673 0 0 1 -0.231,0.123 1.067,1.067 0 0 1 -0.31,0.041 z m 4.691,-0.029 h -1.432 v -1.874 h 1.391 v 0.322 h -1.042 v 0.423 h 0.975 v 0.32 h -0.975 v 0.486 h 1.083 z"
       id="path32"
       inkscape:connector-curvature="0" />
  </g>
  <path
     d="m 50.175,89.443 v 5.683 l 5.147,2.895 h 69.582 l 5.146,-2.895 v -5.683 l -5.146,-2.894 h -22.441 l -3.897,-6.6 H 81.66 l -3.898,6.6 h -22.44 z"
     id="path36"
     inkscape:connector-curvature="0"
     style="fill:#bfc0cd" />
  <linearGradient
     id="c"
     gradientUnits="userSpaceOnUse"
     x1="114.613"
     y1="-108.311"
     x2="114.613"
     y2="-125.096"
     gradientTransform="matrix(1,0,0,-1,-24.5,-27.718)">
    <stop
       offset="0"
       stop-color="#d6dae4"
       id="stop38" />
    <stop
       offset=".39"
       stop-color="#747083"
       id="stop40" />
    <stop
       offset=".98"
       stop-color="#d6dae4"
       id="stop42" />
  </linearGradient>
  <path
     d="m 101.998,87.192 -3.897,-6.6 H 82.017 l -3.897,6.6 H 55.321 l -4.538,2.546 v 5.093 l 4.538,2.546 h 69.584 l 4.538,-2.546 v -5.093 l -4.538,-2.546 z"
     id="path45"
     inkscape:connector-curvature="0"
     style="fill:url(#c)" />
  <linearGradient
     id="d"
     gradientUnits="userSpaceOnUse"
     x1="102.709"
     y1="-115.605"
     x2="109.905"
     y2="-122.801"
     gradientTransform="matrix(1,0,0,-1,-24.5,-27.718)">
    <stop
       offset="0"
       stop-color="#2a2a2a"
       id="stop47" />
    <stop
       offset=".11"
       stop-color="#0c0a0d"
       id="stop49" />
    <stop
       offset=".22"
       stop-color="#2a2a2a"
       id="stop51" />
    <stop
       offset=".34"
       stop-color="#0c0a0d"
       id="stop53" />
    <stop
       offset=".47"
       stop-color="#2a2a2a"
       id="stop55" />
    <stop
       offset=".59"
       stop-color="#0c0a0d"
       id="stop57" />
    <stop
       offset=".72"
       stop-color="#2a2a2a"
       id="stop59" />
    <stop
       offset=".84"
       stop-color="#0c0a0d"
       id="stop61" />
    <stop
       offset="1"
       stop-color="#2a2a2a"
       id="stop63" />
  </linearGradient>
  <path
     d="m 87.593,88.478 v 7.506 H 85.02 v -2.773 l -4.932,-2.756 v 5.529 h -2.573 v -7.506 h 2.68 l 4.825,2.696 v -2.696 z"
     id="path66"
     inkscape:connector-curvature="0"
     style="fill:url(#d)" />
  <linearGradient
     id="e"
     gradientUnits="userSpaceOnUse"
     x1="134.353"
     y1="-117.443"
     x2="141.634"
     y2="-124.724"
     gradientTransform="matrix(1,0,0,-1,-24.5,-27.718)">
    <stop
       offset="0"
       stop-color="#2a2a2a"
       id="stop68" />
    <stop
       offset=".11"
       stop-color="#0c0a0d"
       id="stop70" />
    <stop
       offset=".22"
       stop-color="#2a2a2a"
       id="stop72" />
    <stop
       offset=".34"
       stop-color="#0c0a0d"
       id="stop74" />
    <stop
       offset=".47"
       stop-color="#2a2a2a"
       id="stop76" />
    <stop
       offset=".59"
       stop-color="#0c0a0d"
       id="stop78" />
    <stop
       offset=".72"
       stop-color="#2a2a2a"
       id="stop80" />
    <stop
       offset=".84"
       stop-color="#0c0a0d"
       id="stop82" />
    <stop
       offset="1"
       stop-color="#2a2a2a"
       id="stop84" />
  </linearGradient>
  <path
     d="m 111.073,88.478 h 2.573 v 7.505 h -2.573 z"
     id="path87"
     inkscape:connector-curvature="0"
     style="fill:url(#e)" />
  <linearGradient
     id="f"
     gradientUnits="userSpaceOnUse"
     x1="113.832"
     y1="-115.737"
     x2="120.951"
     y2="-122.857"
     gradientTransform="matrix(1,0,0,-1,-24.5,-27.718)">
    <stop
       offset="0"
       stop-color="#2a2a2a"
       id="stop89" />
    <stop
       offset=".11"
       stop-color="#0c0a0d"
       id="stop91" />
    <stop
       offset=".22"
       stop-color="#2a2a2a"
       id="stop93" />
    <stop
       offset=".34"
       stop-color="#0c0a0d"
       id="stop95" />
    <stop
       offset=".47"
       stop-color="#2a2a2a"
       id="stop97" />
    <stop
       offset=".59"
       stop-color="#0c0a0d"
       id="stop99" />
    <stop
       offset=".72"
       stop-color="#2a2a2a"
       id="stop101" />
    <stop
       offset=".84"
       stop-color="#0c0a0d"
       id="stop103" />
    <stop
       offset="1"
       stop-color="#2a2a2a"
       id="stop105" />
  </linearGradient>
  <path
     d="m 95.742,89.979 h -4.289 v 1.501 h 5.146 l -2.466,1.502 h -2.68 v 1.501 h 6.969 l -2.466,1.501 H 88.88 v -5.79 l 2.573,-1.716 h 6.754 z"
     id="path108"
     inkscape:connector-curvature="0"
     style="fill:url(#f)" />
  <linearGradient
     id="g"
     gradientUnits="userSpaceOnUse"
     x1="91.101997"
     y1="-115.737"
     x2="98.222"
     y2="-122.857"
     gradientTransform="matrix(1,0,0,-1,-24.5,-27.718)">
    <stop
       offset="0"
       stop-color="#2a2a2a"
       id="stop110" />
    <stop
       offset=".11"
       stop-color="#0c0a0d"
       id="stop112" />
    <stop
       offset=".22"
       stop-color="#2a2a2a"
       id="stop114" />
    <stop
       offset=".34"
       stop-color="#0c0a0d"
       id="stop116" />
    <stop
       offset=".47"
       stop-color="#2a2a2a"
       id="stop118" />
    <stop
       offset=".59"
       stop-color="#0c0a0d"
       id="stop120" />
    <stop
       offset=".72"
       stop-color="#2a2a2a"
       id="stop122" />
    <stop
       offset=".84"
       stop-color="#0c0a0d"
       id="stop124" />
    <stop
       offset="1"
       stop-color="#2a2a2a"
       id="stop126" />
  </linearGradient>
  <path
     d="m 73.012,89.979 h -4.289 v 1.501 h 5.147 l -2.466,1.502 h -2.681 v 1.501 h 6.969 l -2.466,1.501 H 66.15 v -5.79 l 2.573,-1.716 h 6.755 z"
     id="path129"
     inkscape:connector-curvature="0"
     style="fill:url(#g)" />
  <linearGradient
     id="h"
     gradientUnits="userSpaceOnUse"
     x1="80.544998"
     y1="-116.331"
     x2="87.568001"
     y2="-123.354"
     gradientTransform="matrix(1,0,0,-1,-24.5,-27.718)">
    <stop
       offset="0"
       stop-color="#2a2a2a"
       id="stop131" />
    <stop
       offset=".11"
       stop-color="#0c0a0d"
       id="stop133" />
    <stop
       offset=".22"
       stop-color="#2a2a2a"
       id="stop135" />
    <stop
       offset=".34"
       stop-color="#0c0a0d"
       id="stop137" />
    <stop
       offset=".47"
       stop-color="#2a2a2a"
       id="stop139" />
    <stop
       offset=".59"
       stop-color="#0c0a0d"
       id="stop141" />
    <stop
       offset=".72"
       stop-color="#2a2a2a"
       id="stop143" />
    <stop
       offset=".84"
       stop-color="#0c0a0d"
       id="stop145" />
    <stop
       offset="1"
       stop-color="#2a2a2a"
       id="stop147" />
  </linearGradient>
  <path
     d="m 54.464,90.194 2.573,-1.716 h 7.827 l -2.466,1.501 h -5.361 v 4.504 h 4.825 V 92.66 H 58.86 l 2.466,-1.501 h 3.109 v 3.109 l -2.573,1.716 h -7.398 z"
     id="path150"
     inkscape:connector-curvature="0"
     style="fill:url(#h)" />
  <linearGradient
     id="i"
     gradientUnits="userSpaceOnUse"
     x1="124.419"
     y1="-115.657"
     x2="131.591"
     y2="-122.829"
     gradientTransform="matrix(1,0,0,-1,-24.5,-27.718)">
    <stop
       offset="0"
       stop-color="#2a2a2a"
       id="stop152" />
    <stop
       offset=".11"
       stop-color="#0c0a0d"
       id="stop154" />
    <stop
       offset=".22"
       stop-color="#2a2a2a"
       id="stop156" />
    <stop
       offset=".34"
       stop-color="#0c0a0d"
       id="stop158" />
    <stop
       offset=".47"
       stop-color="#2a2a2a"
       id="stop160" />
    <stop
       offset=".59"
       stop-color="#0c0a0d"
       id="stop162" />
    <stop
       offset=".72"
       stop-color="#2a2a2a"
       id="stop164" />
    <stop
       offset=".84"
       stop-color="#0c0a0d"
       id="stop166" />
    <stop
       offset="1"
       stop-color="#2a2a2a"
       id="stop168" />
  </linearGradient>
  <path
     d="m 106.463,94.483 v -1.501 h -7.291 v -2.895 l 2.466,-1.501 h 7.72 l -2.466,1.501 h -5.039 v 1.393 h 7.398 v 3.003 l -2.466,1.501 h -7.613 l 2.466,-1.501 z"
     id="path171"
     inkscape:connector-curvature="0"
     style="fill:url(#i)" />
  <linearGradient
     id="j"
     gradientUnits="userSpaceOnUse"
     x1="140.82201"
     y1="-115.657"
     x2="147.995"
     y2="-122.829"
     gradientTransform="matrix(1,0,0,-1,-24.5,-27.718)">
    <stop
       offset="0"
       stop-color="#2a2a2a"
       id="stop173" />
    <stop
       offset=".11"
       stop-color="#0c0a0d"
       id="stop175" />
    <stop
       offset=".22"
       stop-color="#2a2a2a"
       id="stop177" />
    <stop
       offset=".34"
       stop-color="#0c0a0d"
       id="stop179" />
    <stop
       offset=".47"
       stop-color="#2a2a2a"
       id="stop181" />
    <stop
       offset=".59"
       stop-color="#0c0a0d"
       id="stop183" />
    <stop
       offset=".72"
       stop-color="#2a2a2a"
       id="stop185" />
    <stop
       offset=".84"
       stop-color="#0c0a0d"
       id="stop187" />
    <stop
       offset="1"
       stop-color="#2a2a2a"
       id="stop189" />
  </linearGradient>
  <path
     d="m 122.867,94.483 v -1.501 h -7.291 v -2.895 l 2.466,-1.501 h 7.72 l -2.466,1.501 h -5.039 v 1.393 h 7.397 v 3.003 l -2.465,1.501 h -7.613 l 2.466,-1.501 z"
     id="path192"
     inkscape:connector-curvature="0"
     style="fill:url(#j)" />
  <g
     id="g196"
     style="fill:#0a080b">
    <path
       d="m 126.183,90.165 v -0.72 h -0.255 v -0.147 h 0.685 v 0.147 h -0.255 v 0.72 z m 0.603,0 v -0.866 h 0.262 l 0.156,0.591 0.154,-0.591 h 0.261 v 0.866 h -0.161 l -0.001,-0.682 -0.171,0.682 h -0.168 l -0.17,-0.682 -10e-4,0.682 z"
       id="path194"
       inkscape:connector-curvature="0" />
  </g>
  <path
     d="m 94.768,82.199 -1.356,4.132 h 0.67 l 1.359,-3.99 c 0.049,-0.182 0.198,-0.316 0.373,-0.316 0.177,0 0.326,0.133 0.375,0.316 l 1.149,3.375 h -1.803 v 0.615 h 2.683 l -1.356,-4.132 a 1.09,1.09 0 0 0 -2.094,0 z m 0.794,2.566 0.238,-0.705 0.248,0.705 z m -0.098,-2.023 -1.214,3.59 h 0.783 l 0.502,-1.488 v 0.703 h 1.578 l -0.937,-2.805 c -0.048,-0.156 -0.19,-0.605 -0.356,-0.605 -0.168,0 -0.31,0.449 -0.356,0.605 z m -4.289,-0.549 h 2.348 v -0.672 h -2.404 c -0.648,0 -1.174,0.527 -1.174,1.175 v 2.461 c 0,0.648 0.525,1.174 1.174,1.174 h 2.404 v -3.132 h -1.901 v 0.615 h 1.229 v 1.845 H 91.175 A 0.558,0.558 0 0 1 90.616,85.1 v -2.349 c 0,-0.307 0.249,-0.558 0.559,-0.558 z m 0.447,1.789 v 0.672 h 0.391 v 0.168 h -0.391 a 0.168,0.168 0 0 1 -0.168,-0.168 v -1.455 c 0,-0.093 0.075,-0.168 0.168,-0.168 h 1.901 v -0.67 h -2.18 c -0.31,0 -0.56,0.25 -0.56,0.559 v 2.013 c 0,0.308 0.25,0.559 0.56,0.559 h 1.342 v -1.51 z m -4.304,-1.789 h 2.348 v -0.672 h -2.404 c -0.648,0 -1.174,0.527 -1.174,1.175 v 2.433 c 0,0.648 0.525,1.175 1.174,1.175 h 2.404 V 85.632 H 87.318 A 0.56,0.56 0 0 1 86.759,85.073 V 82.75 a 0.56,0.56 0 0 1 0.559,-0.557 z m 1.844,1.621 v -0.615 h -1.565 c 0,-0.093 0.075,-0.168 0.168,-0.168 h 1.9 v -0.67 h -2.18 a 0.56,0.56 0 0 0 -0.559,0.559 v 0.894 z m 0,0.225 v 0.615 h -1.565 c 0,0.093 0.075,0.168 0.168,0.168 h 1.9 v 0.67 h -2.18 a 0.56,0.56 0 0 1 -0.559,-0.559 v -0.894 z m -5.745,0.838 h -1.41 v 0.615 h 2.18 a 0.75512069,0.75512069 0 0 0 -0.027,-1.51 h -0.848 c -0.343,-0.13 -0.634,-0.47 -0.634,-0.867 0,-0.509 0.469,-0.922 0.978,-0.922 h 2.097 v -0.672 h -2.181 c -0.864,0 -1.565,0.702 -1.565,1.566 0,0.866 0.757,1.566 1.621,1.566 v -0.007 l 0.004,0.007 h 0.499 a 0.111,0.111 0 1 1 0,0.222 h -0.714 z m 0.925,-1.901 h 1.411 v -0.615 h -2.181 a 0.75513923,0.75513923 0 0 0 0.029,1.51 h 0.848 c 0.343,0.132 0.633,0.47 0.633,0.867 0,0.509 -0.469,0.922 -0.978,0.922 h -2.096 v 0.672 h 2.18 c 0.864,0 1.566,-0.701 1.566,-1.566 0,-0.864 -0.757,-1.566 -1.621,-1.566 v 0.009 L 84.127,83.2 h -0.498 a 0.11,0.11 0 0 1 -0.111,-0.111 0.11,0.11 0 0 1 0.111,-0.111 h 0.713 z"
     id="path198"
     inkscape:connector-curvature="0"
     style="fill:#1d1a1f" />
  <g
     id="g202"
     style="fill:#0a080b">
    <path
       d="M 99.073,86.331 V 85.703 H 98.85 v -0.128 h 0.597 v 0.128 h -0.222 v 0.628 z m 0.526,0 v -0.755 h 0.228 l 0.136,0.515 0.134,-0.515 h 0.228 v 0.755 h -0.14 v -0.595 l -0.149,0.595 h -0.147 l -0.148,-0.595 v 0.595 z"
       id="path200"
       inkscape:connector-curvature="0" />
  </g>
</svg>
