<?xml version="1.0" encoding="UTF-8" standalone="no"?>
<svg
   xmlns:dc="http://purl.org/dc/elements/1.1/"
   xmlns:cc="http://creativecommons.org/ns#"
   xmlns:rdf="http://www.w3.org/1999/02/22-rdf-syntax-ns#"
   xmlns:svg="http://www.w3.org/2000/svg"
   xmlns="http://www.w3.org/2000/svg"
   xmlns:sodipodi="http://sodipodi.sourceforge.net/DTD/sodipodi-0.dtd"
   xmlns:inkscape="http://www.inkscape.org/namespaces/inkscape"
   viewBox="0 0 226.67799 528.462"
   version="1.1"
   id="svg44"
   sodipodi:docname="controller.svg"
   width="226.67799"
   height="528.46198"
   inkscape:version="0.92.4 5da689c313, 2019-01-14">
  <metadata
     id="metadata50">
    <rdf:RDF>
      <cc:Work
         rdf:about="">
        <dc:format>image/svg+xml</dc:format>
        <dc:type
           rdf:resource="http://purl.org/dc/dcmitype/StillImage" />
      </cc:Work>
    </rdf:RDF>
  </metadata>
  <defs
     id="defs48" />
  <sodipodi:namedview
     pagecolor="#ffffff"
     bordercolor="#666666"
     borderopacity="1"
     objecttolerance="10"
     gridtolerance="10"
     guidetolerance="10"
     inkscape:pageopacity="0"
     inkscape:pageshadow="2"
     inkscape:window-width="640"
     inkscape:window-height="480"
     id="namedview46"
     showgrid="false"
     inkscape:zoom="0.44657896"
     inkscape:cx="113.3385"
     inkscape:cy="264.23101"
     inkscape:window-x="0"
     inkscape:window-y="0"
     inkscape:window-maximized="0"
     inkscape:current-layer="svg44" />
  <path
     d="m 226.677,359.573 c 0,-1.359 -0.113,-2.929 -0.71,-4.269 -0.595,-1.34 -1.87,-2.466 -3.672,-2.466 v 0.884 c -0.348,-0.019 -0.865,0.027 -0.878,0.456 l 0.168,61.06 c -0.664,21.81 -7.004,40.758 -17.119,57.372 -0.355,0.705 0.383,1.006 0.671,0.999 a 39.897,39.897 0 0 0 2.835,-0.208 v 0.087 c 1.167,0 2.064,0.101 2.929,0 0.858,-0.1 1.73,-0.59 2.219,-1.481 0.007,-0.007 0.027,0.007 0.034,0 0,-0.007 -0.007,-0.021 0,-0.027 9.216,-16.393 13.524,-35.288 13.524,-55.368 v -57.039 z m 0,0 m 0,-190.55 c 0,1.361 -0.113,2.929 -0.71,4.269 -0.595,1.347 -1.87,2.467 -3.672,2.467 v -0.879 c -0.348,0.014 -0.865,-0.034 -0.878,-0.456 l 0.168,-61.066 c -0.664,-21.803 -7.004,-40.751 -17.119,-57.365 -0.355,-0.703 0.383,-1.012 0.671,-0.999 1.172,0.046 2.097,0.12 2.835,0.208 v -0.087 c 1.167,0 2.064,-0.101 2.929,0 0.858,0.094 1.73,0.583 2.219,1.474 0.007,0.007 0.027,-0.005 0.034,0 0,0.007 -0.007,0.021 0,0.027 9.216,16.402 13.524,35.288 13.524,55.377 v 57.03 z m 0,0"
     id="path2"
     inkscape:connector-curvature="0"
     style="fill:#bdbdbd" />
  <path
     d="m 222.408,111.213 v 144.881 h -2.025 v 16.515 h 2.025 v 144.633 c 0,61.435 -49.759,111.22 -111.188,111.22 C 49.787,528.462 0,478.677 0,417.242 0,393.006 7.761,370.599 20.925,352.322 v -0.027 l 1.776,-2.299 a 23.477,23.477 0 0 0 5.142,-14.712 V 193.165 a 23.477,23.477 0 0 0 -5.142,-14.712 l -1.776,-2.299 v -0.021 C 7.756,157.87 0,135.463 0,111.213 0,49.787 49.78,0 111.213,0 172.641,0 222.401,49.787 222.401,111.213 Z m 0,0"
     id="path4"
     inkscape:connector-curvature="0"
     style="fill:#cccccc" />
  <path
     d="m 59.304,199.652 c 0.462,0.074 0.824,-0.12 1.078,-0.577 l 0.436,-0.77 c 0.643,-1.079 1.522,-1.589 2.629,-1.534 0.508,0.026 0.957,0.16 1.347,0.395 0.402,0.242 0.717,0.577 0.932,1.005 0.221,0.422 0.321,0.885 0.307,1.388 -0.007,0.676 -0.268,1.22 -0.777,1.635 -0.503,0.408 -1.179,0.609 -2.03,0.602 v -1.594 c 0.342,0.014 0.623,-0.048 0.844,-0.161 0.201,-0.12 0.314,-0.323 0.328,-0.597 0,-0.275 -0.088,-0.51 -0.261,-0.71 a 1.012,1.012 0 0 0 -0.71,-0.369 c -0.415,-0.06 -0.752,0.175 -1.019,0.698 -0.268,0.522 -0.496,0.904 -0.676,1.139 -0.597,0.75 -1.395,1.105 -2.407,1.059 -0.522,-0.027 -0.985,-0.154 -1.386,-0.39 a 2.417,2.417 0 0 1 -0.913,-0.944 c -0.221,-0.403 -0.321,-0.858 -0.307,-1.374 0.014,-0.362 0.086,-0.704 0.214,-1.012 0.148,-0.323 0.362,-0.597 0.643,-0.825 0.556,-0.448 1.301,-0.662 2.225,-0.643 l -0.021,1.603 c -0.463,-0.014 -0.818,0.053 -1.059,0.208 -0.228,0.148 -0.348,0.401 -0.348,0.77 0,0.262 0.079,0.489 0.24,0.671 0.168,0.18 0.403,0.295 0.691,0.327 z m 0,0 m 4.926,33.526 v -1.977 l -7.387,-0.978 v -1.603 l 7.387,0.973 v -1.965 l 1.695,0.235 v 5.549 z m 0,0 m -4.282,-7.292 c -0.643,-0.046 -1.215,-0.208 -1.704,-0.482 a 3.046,3.046 0 0 1 -1.146,-1.066 2.659,2.659 0 0 1 -0.381,-1.455 c 0.019,-0.717 0.328,-1.273 0.911,-1.675 0.597,-0.415 1.4,-0.637 2.406,-0.678 0.671,-0.026 1.409,0.027 2.205,0.168 0.791,0.134 1.483,0.362 2.066,0.671 0.595,0.321 1.038,0.69 1.333,1.112 0.288,0.429 0.429,0.899 0.415,1.4 -0.021,0.752 -0.321,1.342 -0.89,1.771 -0.583,0.429 -1.381,0.669 -2.394,0.717 v -1.609 c 0.563,0.007 0.959,-0.06 1.186,-0.221 0.242,-0.16 0.369,-0.408 0.383,-0.736 0.041,-0.851 -0.831,-1.368 -2.606,-1.556 -0.812,-0.081 -1.388,-0.12 -1.73,-0.12 -1.026,-0.021 -1.555,0.261 -1.589,0.851 -0.014,0.376 0.113,0.678 0.383,0.904 0.268,0.228 0.637,0.376 1.112,0.443 z m 0,0 m 0.743,-7.064 v -2.507 l -2.172,-0.275 v 2.963 l -1.675,-0.221 v -4.571 l 9.082,1.179 v 4.585 l -1.695,-0.214 v -2.982 l -1.918,-0.249 v 2.514 z m 0,0 m -2.173,-8.573 v 2.775 l -1.675,-0.221 v -4.375 l 9.082,1.179 v 1.609 z m 0,0 m 2.173,-3.164 v -2.507 l -2.172,-0.275 v 2.963 l -1.675,-0.221 v -4.571 l 9.082,1.179 v 4.585 l -1.695,-0.214 v -2.982 l -1.918,-0.249 v 2.514 z m 0,0 m -1.387,52.469 c 0.462,0.072 0.824,-0.122 1.078,-0.577 l 0.436,-0.772 c 0.643,-1.079 1.522,-1.587 2.629,-1.534 0.508,0.026 0.957,0.161 1.347,0.395 0.402,0.242 0.717,0.577 0.932,1.005 0.221,0.422 0.321,0.879 0.307,1.381 -0.007,0.676 -0.268,1.227 -0.777,1.635 -0.503,0.415 -1.179,0.616 -2.03,0.604 v -1.589 c 0.342,0.007 0.623,-0.048 0.844,-0.168 0.201,-0.12 0.314,-0.314 0.328,-0.59 0,-0.274 -0.088,-0.508 -0.261,-0.71 -0.168,-0.214 -0.401,-0.335 -0.71,-0.374 -0.415,-0.055 -0.752,0.18 -1.019,0.703 -0.268,0.522 -0.496,0.897 -0.676,1.139 -0.597,0.75 -1.395,1.098 -2.407,1.052 a 3.064,3.064 0 0 1 -1.386,-0.383 2.417,2.417 0 0 1 -0.913,-0.944 c -0.221,-0.403 -0.321,-0.865 -0.307,-1.374 0.014,-0.369 0.086,-0.703 0.214,-1.019 0.148,-0.314 0.362,-0.59 0.643,-0.817 0.556,-0.45 1.301,-0.664 2.225,-0.65 l -0.021,1.608 c -0.463,-0.021 -0.818,0.048 -1.059,0.208 -0.228,0.148 -0.348,0.403 -0.348,0.765 0,0.268 0.079,0.489 0.24,0.676 0.168,0.182 0.403,0.289 0.691,0.33 z m 0,0 m 4.926,28.92 v -1.977 l -7.387,-0.973 v -1.608 l 7.387,0.978 v -1.963 l 1.695,0.233 v 5.544 z m 0,0 m -2.499,-10.738 v 0.932 c 0,0.256 0.079,0.482 0.24,0.678 0.168,0.187 0.396,0.328 0.691,0.408 0.281,0.081 0.563,0.106 0.837,0.067 0.462,-0.06 0.703,-0.288 0.731,-0.671 v -1.084 z m -1.677,-0.221 -3.21,-0.408 v -1.609 l 9.082,1.181 -0.021,2.419 c 0,0.764 -0.235,1.361 -0.71,1.783 -0.482,0.41 -1.139,0.597 -1.97,0.551 -0.657,-0.027 -1.194,-0.168 -1.623,-0.429 a 2.523,2.523 0 0 1 -1.017,-1.04 l -3.634,0.918 h -0.106 v -1.716 l 3.21,-0.757 v -0.893 z m 0,0 m -1.515,-6.709 -1.695,-0.602 v -1.771 l 9.082,3.62 v 1.515 l -9.082,1.259 v -1.676 l 1.695,-0.16 z m 1.695,0.604 v 1.414 l 3.118,-0.302 z m 0,0 m 3.996,-2.876 v -1.971 l -7.387,-0.978 v -1.608 l 7.387,0.978 v -1.965 l 1.695,0.235 v 5.544 z m 0,0"
     id="path6"
     inkscape:connector-curvature="0"
     style="fill:#4c4c4c" />
  <path
     d="m 112.488,174.975 c -34.867,0 -63.131,-28.225 -63.131,-63.038 0,-34.813 28.263,-63.029 63.131,-63.029 34.873,0 63.136,28.217 63.136,63.029 0,34.812 -28.263,63.038 -63.136,63.038"
     id="path8"
     inkscape:connector-curvature="0"
     style="fill:#999999" />
  <path
     d="m 112.487,174.975 c -34.866,0 -63.131,-28.225 -63.131,-63.038 0,-34.813 28.265,-63.029 63.131,-63.029 34.873,0 63.138,28.217 63.138,63.029 0,34.812 -28.265,63.038 -63.138,63.038"
     id="path10"
     inkscape:connector-curvature="0"
     style="fill:none;stroke:#999999;stroke-width:1.37300003" />
  <path
     d="m 112.495,173.024 c -33.761,0 -61.126,-27.347 -61.126,-61.087 0,-33.733 27.366,-61.078 61.126,-61.078 33.752,0 61.12,27.345 61.12,61.078 0,33.74 -27.368,61.087 -61.12,61.087"
     id="path12"
     inkscape:connector-curvature="0"
     style="fill:#cccccc" />
  <path
     d="m 112.366,517.639 c -55.361,0 -100.242,-44.881 -100.242,-100.242 0,-55.363 44.881,-100.249 100.242,-100.249 55.363,0 100.249,44.886 100.249,100.249 0.001,55.361 -44.886,100.242 -100.249,100.242"
     id="path14"
     inkscape:connector-curvature="0"
     style="fill:#666666" />
  <path
     d="m 128.312,155.846 v -28.083 h 28.083 a 2.188,2.188 0 0 0 2.179,-2.184 v -27.28 a 2.182,2.182 0 0 0 -2.179,-2.177 H 128.312 V 68.036 a 2.193,2.193 0 0 0 -2.184,-2.184 H 98.854 A 2.193,2.193 0 0 0 96.67,68.036 V 96.121 H 68.587 a 2.182,2.182 0 0 0 -2.179,2.177 v 27.28 c 0,1.199 0.978,2.184 2.179,2.184 H 96.67 v 28.083 c 0,1.199 0.985,2.179 2.184,2.179 h 27.273 a 2.188,2.188 0 0 0 2.185,-2.178"
     id="path16"
     inkscape:connector-curvature="0"
     style="fill:#4c4c4c" />
  <path
     d="m 115.355,72.427 c -1.573,-2.775 -4.154,-2.775 -5.722,0 l -6.1,10.757 c -1.575,2.776 -0.844,5.048 1.628,5.048 h 14.658 c 2.473,0 3.203,-2.272 1.628,-5.048 l -6.092,-10.757 c -1.573,-2.775 -4.154,-2.775 -5.722,0 l -6.1,10.757 c -1.575,2.776 -0.844,5.048 1.628,5.048 h 14.658 c 2.473,0 3.203,-2.272 1.628,-5.048 z m 0,0 m 0,78.889 c -1.573,2.775 -4.154,2.775 -5.722,0 l -6.1,-10.751 c -1.575,-2.781 -0.844,-5.048 1.628,-5.048 h 14.658 c 2.473,0 3.203,2.267 1.628,5.048 l -6.092,10.751 c -1.573,2.775 -4.154,2.775 -5.722,0 l -6.1,-10.751 c -1.575,-2.781 -0.844,-5.048 1.628,-5.048 h 14.658 c 2.473,0 3.203,2.267 1.628,5.048 z m 0,0 m 36.476,-36.517 c 2.775,-1.575 2.775,-4.149 0,-5.724 l -10.75,-6.098 c -2.776,-1.575 -5.048,-0.839 -5.048,1.635 v 14.652 c 0,2.472 2.272,3.203 5.048,1.635 l 10.75,-6.1 c 2.775,-1.575 2.775,-4.149 0,-5.724 l -10.75,-6.098 c -2.776,-1.575 -5.048,-0.839 -5.048,1.635 v 14.652 c 0,2.472 2.272,3.203 5.048,1.635 z m 0,0 m -78.888,-0.067 c -2.774,-1.575 -2.774,-4.149 0,-5.724 L 83.7,102.91 c 2.775,-1.57 5.048,-0.839 5.048,1.635 v 14.651 c 0,2.473 -2.273,3.21 -5.048,1.635 l -10.757,-6.099 c -2.774,-1.575 -2.774,-4.149 0,-5.724 L 83.7,102.91 c 2.775,-1.57 5.048,-0.839 5.048,1.635 v 14.651 c 0,2.473 -2.273,3.21 -5.048,1.635 z m 0,0"
     id="path18"
     inkscape:connector-curvature="0"
     style="fill:#666666" />
  <path
     d="m 180.384,228.729 -1.287,-0.47 v 0.355 z m 1.534,-13.238 c 0,-0.041 -0.019,-0.067 -0.039,-0.094 l -1.541,-0.295 h -0.007 c -0.06,0 -0.108,0.041 -0.108,0.094 v 0.268 c 0,0.067 0.141,0.235 0.208,0.249 l 1.268,0.24 c 0.074,0.014 0.22,-0.106 0.22,-0.173 v -0.289 z m 0.61,53.606 v 1.494 l -0.63,-0.113 v -0.376 l -4.478,-0.784 v -0.717 l 4.478,0.784 v -0.401 z m 0,-6.649 v 0.63 l -2.668,0.336 2.668,0.489 v 0.717 l -5.108,-0.939 v -0.63 l 2.963,-0.242 -2.963,-0.583 v -0.738 z m 0,-6.48 v 1.32 l -0.63,-0.088 v -0.717 l -1.582,-0.293 v 0.697 l -0.544,-0.094 v -0.71 l -1.721,-0.295 v 0.724 l -0.631,-0.12 v -1.409 z m 0,-8.125 v 0.832 l -2.963,0.134 2.95,1.273 v 0.805 l -5.094,-0.844 v -0.631 l 2.696,0.41 -2.696,-1.127 v -0.441 l 2.756,-0.136 -2.756,-0.496 v -0.717 z m 0,-7.398 v 0.63 l -2.668,0.328 2.668,0.496 v 0.717 l -5.108,-0.937 v -0.65 l 2.963,-0.228 -2.963,-0.577 v -0.738 z m 0,-5.771 v 0.649 l -5.108,-0.957 v -0.63 z m 0,-5.945 v 0.851 l -5.108,-0.275 v -0.846 l 1.174,0.108 v -0.516 l -1.174,-0.422 v -0.757 z m 0,-7.447 v 1.494 l -0.63,-0.094 v -0.376 l -4.478,-0.803 v -0.717 l 4.478,0.784 v -0.403 z m 0,-6.395 v 1.421 c 0,0.269 -0.235,0.443 -0.516,0.39 l -1.81,-0.341 c -0.194,-0.034 -0.355,-0.376 -0.429,-0.556 v 0.093 h -0.019 v 0.087 l -0.027,0.021 v 0.067 h -0.021 v 0.046 h -0.026 v 0.021 c -0.053,0.033 -0.214,0.046 -0.249,0.046 -0.026,0 -2.011,-0.362 -2.011,-0.362 v -0.643 c 0,0 1.783,0.348 1.85,0.355 a 0.835,0.835 0 0 0 0.256,-0.026 c 0.053,0 0.148,-0.007 0.201,-0.062 v -0.448 l -2.306,-0.429 v -0.643 z m 0,-6.312 v 1.34 l -0.63,-0.108 v -0.697 l -1.582,-0.309 v 0.691 l -0.544,-0.088 v -0.697 l -1.721,-0.288 v 0.69 l -0.631,-0.088 v -1.428 z m 0,-6.502 v 1.474 l -0.63,-0.094 v -0.376 l -4.478,-0.81 v -0.717 l 4.478,0.784 v -0.402 z m 0,-6.717 v 0.625 l -2.668,0.341 2.668,0.489 v 0.738 l -5.108,-0.959 v -0.63 l 2.963,-0.242 -2.963,-0.589 v -0.731 z m 0,-6.172 v 1.319 l -0.63,-0.086 V 189.7 l -1.582,-0.288 v 0.69 l -0.544,-0.088 v -0.717 l -1.721,-0.268 v 0.69 l -0.631,-0.113 v -1.428 z m 0.187,120.122 v 0.83 l -2.943,0.134 2.917,1.273 0.026,0.805 -5.093,-0.851 v -0.623 l 2.694,0.402 -2.694,-1.112 v -0.456 l 2.761,-0.134 -2.761,-0.489 v -0.738 z m 0,-5.523 v 1.34 l -0.609,-0.106 v -0.698 l -1.609,-0.307 v 0.71 l -0.522,-0.108 v -0.697 l -1.716,-0.288 v 0.69 l -0.637,-0.093 v -1.421 z m 0,-5.858 v 1.495 l -0.609,-0.108 v -0.381 l -4.483,-0.777 v -0.745 l 4.483,0.784 v -0.383 z m 0,-5.214 v 1.098 c 0,0.263 -0.221,0.45 -0.496,0.403 l -1.273,-0.249 v -0.602 l 0.837,0.134 c 0.196,0.033 0.343,-0.081 0.343,-0.268 a 0.416,0.416 0 0 0 -0.343,-0.403 l -0.609,-0.113 c -0.034,-0.021 -0.208,0.033 -0.228,0.067 -0.046,0.081 -1.368,0.879 -1.467,0.879 -0.048,0.019 -0.074,0.019 -0.094,0.019 a 106.77,106.77 0 0 0 -1.287,-0.221 c -0.261,-0.053 -0.475,-0.3 -0.475,-0.556 v -0.964 c 0,-0.263 0.214,-0.429 0.475,-0.383 l 1.287,0.221 v 0.65 l -0.925,-0.154 c -0.189,-0.034 -0.362,0.088 -0.362,0.268 0,0.189 0.173,0.362 0.362,0.403 l 0.743,0.134 c 0.316,-0.129 1.455,-0.913 1.723,-0.966 0.034,-0.026 0.196,-0.046 0.316,-0.046 0.134,0.007 0.978,0.18 0.978,0.18 l 0.021,0.027 h 0.039 l 0.048,0.021 h 0.026 l 0.021,0.019 h 0.027 l 0.019,0.027 h 0.021 l 0.021,0.021 0.026,0.019 h 0.027 v 0.021 l 0.014,0.027 0.027,0.021 0.019,0.026 0.021,0.021 0.027,0.021 0.019,0.026 v 0.021 l 0.027,0.021 v 0.026 l 0.021,0.021 v 0.074 z m 0,-7.313 v 0.805 l -1.923,0.113 1.923,1.033 v 0.805 l -2.943,-1.656 -2.15,-0.403 v -0.717 l 2.311,0.362 z m 0,-5.141 v 1.093 c 0,0.268 -0.221,0.455 -0.496,0.401 l -1.273,-0.249 v -0.595 l 0.837,0.134 c 0.196,0.027 0.343,-0.088 0.343,-0.275 a 0.428,0.428 0 0 0 -0.343,-0.403 l -0.609,-0.106 c -0.034,-0.021 -0.208,0.033 -0.228,0.06 -0.046,0.088 -1.368,0.878 -1.467,0.878 -0.048,0.021 -0.074,0.026 -0.094,0.021 a 56.991,56.991 0 0 1 -1.287,-0.249 0.584,0.584 0 0 1 -0.475,-0.556 v -0.939 c 0,-0.261 0.214,-0.429 0.475,-0.383 l 1.287,0.228 v 0.643 l -0.925,-0.154 c -0.189,-0.033 -0.362,0.081 -0.362,0.268 0,0.182 0.173,0.376 0.362,0.403 l 0.743,0.134 c 0.316,-0.12 1.455,-0.911 1.723,-0.966 0.034,-0.026 0.196,-0.046 0.316,-0.039 0.134,0.007 0.978,0.18 0.978,0.18 v 0.021 h 0.06 l 0.048,0.027 h 0.026 l 0.021,0.014 h 0.027 l 0.019,0.026 h 0.021 l 0.046,0.048 h 0.027 v 0.019 l 0.014,0.021 0.046,0.046 h 0.021 v 0.027 l 0.027,0.014 0.019,0.026 v 0.021 l 0.027,0.027 v 0.021 l 0.021,0.019 v 0.074 z m -6.741,-93.841 V 314.07 h 7.533 V 186.416 Z m 29.764,45.443 v 1.388 c 0,0.3 -0.703,0.951 -1.018,0.891 l -5.657,-1.186 c -0.288,-0.055 -0.987,-0.779 -0.987,-1.072 v -1.227 c 0,-0.256 0.161,-0.436 0.403,-0.45 0.039,0 0.093,-0.007 0.134,0 l 6.944,1.321 0.026,0.019 0.021,0.021 0.021,0.046 v 0.027 l 0.021,0.021 0.026,0.019 v 0.021 l 0.021,0.021 v 0.026 l 0.027,0.048 v 0.067 h 0.018 z m 0,-17.83 v 1.388 c 0,0.309 -0.703,0.952 -1.018,0.89 l -5.678,-1.179 c -0.288,-0.06 -0.966,-0.45 -0.966,-0.738 v -1.723 l 0.021,-0.026 v -0.088 h 0.021 v -0.041 l 0.021,-0.026 v -0.021 l 0.019,-0.027 0.027,-0.019 v -0.027 h 0.021 l 0.026,-0.014 0.021,-0.026 h 0.027 l 0.039,-0.041 h 0.046 l 0.021,-0.026 h 0.046 l 0.027,-0.021 h 0.021 c 0.039,0 0.093,-0.007 0.134,0 l 6.944,1.34 c 0.107,0.123 0.18,0.278 0.18,0.425 m 0.095,97.784 v 0.086 c 0,0.846 -0.69,1.402 -1.536,1.254 l -15.046,-2.689 c -0.851,-0.141 -1.561,-0.918 -1.561,-1.762 0,-0.844 0.71,-1.193 1.561,-1.052 l 15.046,2.666 0.067,0.021 0.062,0.027 0.093,0.014 0.067,0.026 0.087,0.021 0.067,0.021 0.074,0.019 0.067,0.048 0.067,0.026 0.067,0.041 0.067,0.026 0.069,0.041 0.046,0.046 0.134,0.094 0.046,0.06 0.048,0.046 0.039,0.048 0.094,0.134 0.046,0.039 0.041,0.067 0.026,0.074 0.048,0.067 0.019,0.041 0.021,0.087 0.027,0.074 v 0.067 l 0.019,0.067 v 0.087 z m 0,-11.522 v 1.319 c 0,0.851 -0.69,1.421 -1.536,1.28 l -15.046,-2.821 c -0.851,-0.148 -1.561,-0.966 -1.561,-1.81 v -1.301 z m 2.647,9.846 c 0,-1.227 -1.019,-2.399 -2.285,-2.62 l -18.572,-3.198 c -1.187,-0.208 -2.126,0.57 -2.126,1.75 v 4.719 c 0,1.179 0.939,2.332 2.126,2.546 l 18.572,3.466 c 1.266,0.235 2.285,-0.563 2.285,-1.783 z m 0,-12.279 -22.984,-4.324 v 6.536 c 0,1.186 0.939,2.325 2.126,2.553 l 18.572,3.466 c 1.266,0.233 2.285,-0.565 2.285,-1.79 v -6.441 z m 0,-11.388 -22.984,-4.317 v 3.312 l 13.318,2.661 -13.318,1.052 v 2.862 l 22.984,4.317 v -3.305 l -12.018,-2.219 12.018,-1.481 z m 0,-7.265 -22.984,-4.478 v 6.441 l 2.85,0.45 v -3.178 l 7.754,1.321 v 3.176 l 2.4,0.45 v -3.176 l 7.124,1.386 v 3.178 l 2.855,0.443 v -6.013 z m 0,-7.875 -2.855,-0.537 v 1.79 l -20.129,-3.531 v 3.264 l 20.129,3.6 v 1.723 l 2.855,0.448 z m 0,-11.086 -22.984,-4.324 v 3.312 l 13.318,2.661 -13.318,1.052 v 2.862 l 22.984,4.317 v -3.312 l -12.018,-2.212 12.018,-1.474 z m 0,-4.364 -22.984,-4.317 v 2.855 l 22.984,4.324 z m 0,-11.367 -22.984,-4.317 v 3.291 l 13.318,2.661 -13.318,1.052 v 2.862 l 22.984,4.317 v -3.291 l -12.018,-2.232 12.018,-1.474 z m 0,-15.323 -22.984,-4.29 v 2.862 l 10.403,1.944 v 2.037 c -0.256,0.269 -0.717,0.295 -0.952,0.343 -0.335,0.046 -0.77,0.106 -1.105,0.06 -0.336,-0.034 -8.346,-1.561 -8.346,-1.561 v 2.862 c 0,0 8.727,1.608 8.867,1.608 0.141,0.007 0.583,0 0.832,-0.154 0.16,-0.106 0.522,-0.288 0.657,-0.496 0.261,-0.395 0.434,-0.844 0.434,-0.844 v -0.201 c 0.323,0.812 0.858,2.359 1.743,2.521 l 8.164,1.568 c 1.266,0.24 2.285,-0.563 2.285,-1.79 v -6.469 z m 0,-7.686 -22.984,-4.478 v 6.448 l 2.85,0.45 v -3.178 l 7.754,1.294 v 3.178 l 2.4,0.443 v -3.171 l 7.124,1.407 v 3.178 l 2.855,0.443 v -6.014 z m 0,-10.222 -22.984,-4.317 v 2.862 l 10.403,1.971 v 3.644 c 0,1.187 0.945,2.306 2.131,2.527 l 8.164,1.561 c 1.266,0.235 2.285,-0.563 2.285,-1.79 v -6.458 z m 0,-10.288 -20.858,-3.579 c -1.187,-0.208 -2.126,0.589 -2.126,1.769 v 4.269 c 0,1.181 0.939,2.334 2.126,2.553 l 20.858,3.821 v -2.687 l -20.274,-3.639 c -0.288,-0.055 -0.544,-0.343 -0.544,-0.631 v -2.117 c 0,-0.302 0.256,-0.496 0.544,-0.456 l 20.274,3.56 z m 0,-8.231 c 0,-1.227 -1.019,-2.419 -2.285,-2.641 h -0.074 l -0.021,-0.021 h -0.067 l -0.046,-0.021 h -0.041 l -0.046,-0.019 h -0.067 l -0.046,-0.027 h -0.067 l -0.074,-0.021 -0.062,-0.026 -0.141,-0.027 -0.153,-0.039 -0.161,-0.021 -0.161,-0.048 -0.18,-0.019 -0.175,-0.048 -0.208,-0.039 -0.182,-0.046 -0.381,-0.067 -0.201,-0.048 -0.189,-0.039 -0.18,-0.027 -0.182,-0.039 -0.18,-0.048 -0.182,-0.019 -0.153,-0.021 -0.142,-0.046 -0.153,-0.027 h -0.067 l -0.048,-0.021 h -0.106 l -0.074,-0.026 h -0.088 l -0.046,-0.021 h -0.048 c -0.556,-0.021 -1.306,0.053 -1.446,0.228 -1.213,0.214 -6.858,4.23 -7.716,4.115 -0.863,-0.113 -3.391,-0.583 -3.391,-0.583 -0.851,-0.148 -1.536,-0.724 -1.536,-1.568 0,-0.837 0.678,-1.414 1.536,-1.273 l 4.202,0.757 v -2.996 l -5.83,-1.005 c -1.187,-0.201 -2.126,0.59 -2.126,1.771 v 4.269 c 0,1.186 0.939,2.313 2.126,2.527 0,0 5.448,1.105 5.83,1.098 0.396,-0.007 0.436,-0.113 0.436,-0.113 0.443,0 6.407,-3.572 6.628,-3.934 0.094,-0.161 0.685,-0.288 1.04,-0.295 0.355,-0.007 2.74,0.468 2.74,0.468 0.846,0.148 1.536,0.952 1.536,1.796 0,0.844 -0.69,1.194 -1.536,1.047 l -3.78,-0.643 v 3.015 l 5.678,1.054 c 1.266,0.233 2.285,-0.563 2.285,-1.79 v -4.433 z m 0,0"
     id="path20"
     inkscape:connector-curvature="0"
     style="fill:#4c4c4c" />
  <path
     d="M 99.036,231.497 81.334,208.924 c -6.146,-7.802 4.988,-17.548 11.63,-9.116 l 17.694,22.574 c 6.212,8.07 -5.328,17.299 -11.622,9.115 m 0,56.742 -17.702,-22.573 c -6.146,-7.802 4.988,-17.548 11.63,-9.115 l 17.694,22.573 c 6.212,8.07 -5.328,17.3 -11.622,9.115"
     id="path22"
     inkscape:connector-curvature="0"
     style="fill:#666666" />
  <path
     d="m 184.835,451.806 0.039,-3.686 -5.535,4.652 -6.033,-4.96 0.027,3.466 3.886,3.27 -3.886,3.27 -0.027,3.466 6.033,-4.96 5.535,4.652 -0.039,-3.686 -3.332,-2.742 z m 0,0 m -40.906,45.39 -0.014,1.721 0.014,1.723 -11.409,5.208 -0.012,-2.8 2.862,-1.301 0.033,-5.643 -2.895,-1.314 0.012,-2.802 z m -6.234,3.492 3.9,-1.771 -3.84,-1.742 z m 0,0 M 88.271,334.474 v -3.118 l -6.414,5.161 H 76.59 v 2.721 h 5.295 l 6.386,5.141 v -3.116 l -4.248,-3.399 z m 0,0"
     id="path24"
     inkscape:connector-curvature="0"
     style="fill:#d8d8d8" />
  <path
     d="m 48.359,377.691 v 7.601 h -0.007 c -0.309,4.744 -5.383,5.053 -5.611,0.328 -0.221,5.758 -5.918,5.369 -6.16,-0.328 v -0.027 l -0.007,-0.127 h 0.007 v -7.447 z m -9.605,7.559 c 0.302,1.817 2.359,1.93 2.728,0.041 v -4.571 h -2.728 z m 4.898,-0.039 c 0.738,1.951 2.347,1.126 2.534,0.081 v -4.571 h -2.534 z m 0,0"
     id="path26"
     inkscape:connector-curvature="0"
     style="fill:#cccccc" />
  <path
     d="m 132.092,367.027 c 0,-11.434 -9.296,-20.731 -20.731,-20.731 -11.435,0 -20.731,9.296 -20.731,20.731 0,11.434 9.296,20.731 20.731,20.731 11.435,0 20.731,-9.297 20.731,-20.731 z m -1.756,0 c 0,10.491 -8.485,18.975 -18.975,18.975 -10.489,0 -18.98,-8.485 -18.98,-18.975 0,-10.489 8.492,-18.974 18.98,-18.974 10.491,0 18.975,8.485 18.975,18.974 z m 0,0 m 40.966,50.335 c 0,-11.441 -9.29,-20.703 -20.731,-20.703 -11.434,0 -20.724,9.262 -20.724,20.703 0,11.434 9.29,20.731 20.724,20.731 11.441,0 20.731,-9.296 20.731,-20.731 z m -1.75,0 c 0,10.489 -8.492,18.975 -18.981,18.975 -10.482,0 -18.975,-8.487 -18.975,-18.975 0,-10.488 8.493,-18.955 18.975,-18.955 10.489,0.001 18.981,8.466 18.981,18.955 z m 0,0 m -75.744,1.663 c 0,-11.434 -9.296,-20.731 -20.731,-20.731 -11.441,0 -20.705,9.296 -20.705,20.731 0,11.434 9.264,20.703 20.705,20.703 11.435,0 20.731,-9.269 20.731,-20.703 z m -1.757,0 c 0,10.489 -8.485,18.948 -18.974,18.948 -10.489,0 -18.948,-8.459 -18.948,-18.948 0,-10.489 8.459,-18.975 18.948,-18.975 10.489,-0.001 18.974,8.486 18.974,18.975 z m 0,0 m 40.965,50.335 c 0,-11.434 -9.296,-20.731 -20.731,-20.731 -11.435,0 -20.724,9.296 -20.724,20.731 0,11.434 9.29,20.731 20.724,20.731 11.434,0 20.731,-9.296 20.731,-20.731 z m -1.748,0 c 0,10.489 -8.492,18.974 -18.975,18.974 -10.489,0 -18.981,-8.485 -18.981,-18.974 0,-10.489 8.492,-18.975 18.981,-18.975 10.483,0 18.975,8.487 18.975,18.975 z m 0,0"
     id="path28"
     inkscape:connector-curvature="0"
     style="fill:#f4f4f4" />
  <path
     d="m 127.34,488.449 c -10.636,8.291 -25.966,6.4 -34.257,-4.243 l -39.21,-50.329 c -8.291,-10.643 -6.373,-25.973 4.271,-34.257 10.643,-8.291 25.966,-6.4 34.257,4.243 l 39.188,50.363 c 3.111,3.988 4.799,8.612 5.122,13.303 0.528,7.816 -2.715,15.745 -9.371,20.92 z m 0,0"
     id="path30"
     inkscape:connector-curvature="0"
     style="fill:#d8d8d8" />
  <path
     d="m 133.004,469.36 c 0,11.448 -9.264,20.717 -20.719,20.717 -11.446,0 -20.71,-9.269 -20.71,-20.717 0,-11.455 9.264,-20.717 20.71,-20.717 11.456,0.001 20.719,9.263 20.719,20.717 z m 0,0"
     id="path32"
     inkscape:connector-curvature="0"
     style="fill:#47449e" />
  <path
     d="m 165.511,436.633 c -10.643,8.284 -25.966,6.393 -34.257,-4.25 L 92.039,382.054 c -8.284,-10.643 -6.367,-25.973 4.276,-34.257 10.643,-8.291 25.966,-6.4 34.257,4.243 l 39.183,50.361 c 3.109,3.989 4.804,8.613 5.127,13.305 0.527,7.816 -2.715,15.745 -9.371,20.927 z m 0,0"
     id="path34"
     inkscape:connector-curvature="0"
     style="fill:#d8d8d8" />
  <path
     d="m 171.288,417.376 c 0,11.448 -9.262,20.717 -20.717,20.717 -11.448,0 -20.717,-9.269 -20.717,-20.717 0,-11.448 9.269,-20.717 20.717,-20.717 11.455,0 20.717,9.269 20.717,20.717 z m 0,0"
     id="path36"
     inkscape:connector-curvature="0"
     style="fill:#a59ef7" />
  <path
     d="m 93.808,419.011 c 0,11.448 -9.269,20.717 -20.717,20.717 -11.455,0 -20.719,-9.269 -20.719,-20.717 0,-11.448 9.264,-20.717 20.719,-20.717 11.448,0 20.717,9.269 20.717,20.717 z m 0,0"
     id="path38"
     inkscape:connector-curvature="0"
     style="fill:#47449e" />
  <path
     d="m 132.08,367.027 c 0,11.448 -9.271,20.717 -20.719,20.717 -11.453,0 -20.717,-9.269 -20.717,-20.717 0,-11.448 9.264,-20.717 20.717,-20.717 11.448,0 20.719,9.269 20.719,20.717 z m 0,0"
     id="path40"
     inkscape:connector-curvature="0"
     style="fill:#a59ef7" />
  <circle
     cx="112.439"
     cy="111.942"
     r="11.582"
     id="circle42"
     style="fill:#595959" />
</svg>
