<?xml version="1.0" encoding="UTF-8" standalone="no"?>
<!-- Generator: Adobe Illustrator 22.0.0, SVG Export Plug-In . SVG Version: 6.00 Build 0)  -->

<svg
   xmlns:dc="http://purl.org/dc/elements/1.1/"
   xmlns:cc="http://creativecommons.org/ns#"
   xmlns:rdf="http://www.w3.org/1999/02/22-rdf-syntax-ns#"
   xmlns:svg="http://www.w3.org/2000/svg"
   xmlns="http://www.w3.org/2000/svg"
   xmlns:sodipodi="http://sodipodi.sourceforge.net/DTD/sodipodi-0.dtd"
   xmlns:inkscape="http://www.inkscape.org/namespaces/inkscape"
   version="1.1"
   id="Capa_1"
   x="0px"
   y="0px"
   viewBox="0 0 862 131.67501"
   xml:space="preserve"
   sodipodi:docname="logo.svg"
   width="862"
   height="131.675"
   inkscape:version="0.92.4 5da689c313, 2019-01-14"><metadata
   id="metadata13"><rdf:RDF><cc:Work
       rdf:about=""><dc:format>image/svg+xml</dc:format><dc:type
         rdf:resource="http://purl.org/dc/dcmitype/StillImage" /></cc:Work></rdf:RDF></metadata><defs
   id="defs11" /><sodipodi:namedview
   pagecolor="#ffffff"
   bordercolor="#666666"
   borderopacity="1"
   objecttolerance="10"
   gridtolerance="10"
   guidetolerance="10"
   inkscape:pageopacity="0"
   inkscape:pageshadow="2"
   inkscape:window-width="471"
   inkscape:window-height="442"
   id="namedview9"
   showgrid="false"
   inkscape:zoom="0.31515037"
   inkscape:cx="429.95349"
   inkscape:cy="65.837003"
   inkscape:window-x="0"
   inkscape:window-y="0"
   inkscape:window-maximized="0"
   inkscape:current-layer="Capa_1" />
<g
   id="g6">
	<path
   style="fill:#c12c2d"
   d="M 68.137,63.819 V 0 H 48.94 V 44.625 L 20.633,0 H 0 V 63.819 H 19.195 V 17.757 L 48.939,63.82 h 19.198 z m 31.191,0 V 20.634 H 80.134 v 43.188 z m 0,-52.3 V 0 H 80.134 v 11.519 z m 67.179,52.3 V 34.072 c 0,-6.239 -11.995,-14.876 -18.233,-14.876 h -5.759 c -4.316,0 -9.116,3.836 -13.434,5.756 v -4.318 h -19.195 v 43.188 h 19.193 v -29.75 c 0,-2.88 6.719,-6.239 9.6,-6.239 2.877,0 8.156,3.357 8.156,6.239 v 29.749 z m 159.313,0.002 v -29.75 c 0,-6.235 -11.994,-14.875 -18.238,-14.875 h -5.757 c -4.318,0 -9.114,3.837 -13.436,5.756 v -4.318 h -19.193 v 43.188 h 19.193 v -29.75 c 0,-2.878 6.723,-6.235 9.594,-6.235 2.876,0 8.162,3.357 8.162,6.235 v 29.75 H 325.82 Z M 197.693,63.819 V 20.634 h 10.081 v -5.759 h -10.08 V 5.759 h -19.668 v 9.116 h -10.081 v 5.759 h 10.081 v 43.188 z m 36.952,-44.625 c -15.353,0 -28.308,10.556 -28.308,23.51 0,13.439 12.957,23.993 28.308,23.993 13.435,0 24.474,-7.679 27.353,-17.751 h -19.675 v 5.756 c 0,4.798 -3.356,6.237 -7.679,6.237 -4.321,0 -7.196,-1.439 -7.196,-6.237 V 42.706 h 35.511 C 262.96,29.751 250.479,19.194 234.645,19.194 Z m 0,4.321 c 4.323,0 7.68,2.879 7.68,7.678 v 4.319 H 227.45 V 31.19 c -0.002,-4.796 2.874,-7.675 7.195,-7.675 z M 423.71,19.194 c -15.839,0 -28.313,10.556 -28.313,23.51 0,13.439 12.474,23.993 28.313,23.993 15.347,0 28.308,-10.554 28.308,-23.993 0,-12.953 -12.961,-23.51 -28.308,-23.51 z m 0,4.321 c 4.316,0 7.198,2.879 7.198,7.678 v 23.515 c 0,4.798 -2.882,6.236 -7.198,6.236 -4.8,0 -7.68,-1.438 -7.68,-6.236 V 31.189 c 0.002,-4.795 2.881,-7.674 7.68,-7.674 z M 368.528,0 v 23.513 c 0,0 -5.765,-4.318 -13.439,-4.318 -11.996,0 -22.074,10.556 -22.074,22.071 0,11.997 10.078,23.993 22.074,23.993 7.678,0 13.439,-2.879 13.439,-2.879 v 1.439 h 19.189 V 0 Z m -7.203,26.394 c 4.32,0 7.203,3.357 7.203,7.679 v 17.754 c 0,4.321 -2.883,5.757 -7.203,5.757 -4.799,0 -7.679,-1.437 -7.679,-5.757 V 34.072 c 0.002,-4.321 2.88,-7.678 7.679,-7.678 z m 93.088,-6.956 c -5.155,0 -9.353,-4.198 -9.353,-9.36 0,-5.517 4.109,-9.838 9.353,-9.838 5.077,0 9.364,4.507 9.364,9.838 0,4.899 -4.462,9.36 -9.364,9.36 z m 0,-18.713 c -4.972,0 -8.867,4.107 -8.867,9.354 0,4.895 3.978,8.876 8.867,8.876 4.646,0 8.879,-4.23 8.879,-8.876 0.001,-5.071 -4.067,-9.354 -8.879,-9.354 z m 2.191,13.312 -1.846,-3.236 h -2.979 v 3.117 h -0.484 V 5.517 h 3.604 c 1.575,0 2.399,1.328 2.399,2.642 0,1.198 -0.685,2.407 -1.999,2.612 l 1.726,3.025 z m -4.824,-3.721 h 3.12 c 1.314,0 1.915,-1.117 1.915,-2.158 C 456.815,7.118 456.214,6 454.9,6 h -3.12 z"
   id="path2"
   inkscape:connector-curvature="0" />
	<path
   style="fill:#070308"
   d="m 86.256,131.589 v -23.598 c 0,-4.473 -4.478,-8.949 -8.955,-8.949 H 43.128 v 32.549 H 53.71 v -21.968 c 0,-1.629 1.215,-3.258 2.844,-3.258 h 16.273 c 1.629,0 3.258,1.629 3.258,3.258 v 21.966 z m 283.13,0 v -23.598 c 0,-4.473 -4.473,-8.949 -8.944,-8.949 h -34.177 v 32.549 h 10.576 v -21.968 c 0,-1.629 1.226,-3.258 2.844,-3.258 h 16.273 c 1.628,0 3.257,1.629 3.257,3.258 v 21.966 z m 153.706,0 v -23.598 c 0,-4.473 -4.473,-8.949 -8.946,-8.949 h -34.177 v 32.549 h 10.578 v -21.968 c 0,-1.629 1.224,-3.258 2.853,-3.258 h 16.273 c 1.628,0 3.252,1.629 3.252,3.258 v 21.966 z m -92.255,0 v -23.598 c 0,-4.473 -4.475,-8.949 -8.947,-8.949 h -45.976 v 32.549 h 10.584 v -21.968 c 0,-1.629 1.219,-3.258 2.845,-3.258 h 6.102 c 1.226,0 2.846,1.629 2.846,3.258 v 21.966 h 10.586 v -21.966 c 0,-1.629 1.216,-3.258 2.845,-3.258 h 6.101 c 1.225,0 2.844,1.629 2.844,3.258 v 21.966 z m -395.032,0 H 8.957 C 4.479,131.589 0,128.739 0,124.267 V 98.636 h 35.803 v 7.729 H 11.802 c -1.221,0 -2.844,1.224 -2.844,2.85 0,1.626 1.623,2.848 2.844,2.848 h 22.375 v 6.508 H 11.802 c -1.221,0 -2.844,1.63 -2.844,2.851 0,1.626 1.623,3.253 2.844,3.253 h 24.003 z m 132.242,0 H 141.19 c -4.473,0 -8.946,-2.85 -8.946,-7.322 V 98.636 h 35.802 v 7.729 H 144.04 c -1.219,0 -2.848,1.224 -2.848,2.85 0,1.626 1.629,2.848 2.848,2.848 h 22.375 v 6.508 H 144.04 c -1.219,0 -2.848,1.63 -2.848,2.851 0,1.626 1.629,3.253 2.848,3.253 h 24.005 v 6.915 h 0.002 z m 306.088,0 h -26.857 c -4.473,0 -8.946,-2.85 -8.946,-7.322 V 98.636 h 35.804 v 7.729 H 450.13 c -1.224,0 -2.853,1.224 -2.853,2.85 0,1.626 1.629,2.848 2.853,2.848 h 22.376 v 6.508 H 450.13 c -1.224,0 -2.853,1.63 -2.853,2.851 0,1.626 1.629,3.253 2.853,3.253 h 24.005 z M 90.728,99.041 v 7.319 h 10.578 c 2.848,0 2.848,0 2.848,3.259 v 21.966 h 10.172 v -21.963 c 0,-3.259 0,-3.259 3.255,-3.259 h 10.171 V 99.044 H 90.728 Z m 129.27,0 v 7.319 h 10.577 c 2.844,0 2.844,0 2.844,3.259 v 21.966 h 10.171 v -21.963 c 0,-3.259 0,-3.259 3.259,-3.259 h 10.171 v -7.319 h -37.021 v -0.003 z m 309.06,0 v 7.319 h 10.578 c 2.844,0 2.844,0 2.844,3.259 v 21.966 h 10.17 v -21.963 c 0,-3.259 0,-3.259 3.256,-3.259 h 10.172 v -7.319 h -37.02 z m -353.709,0 v 32.548 h 10.581 v -5.693 c 0,-1.629 1.216,-3.259 2.844,-3.259 H 202.2 c 1.629,0 2.844,1.63 2.844,3.259 v 5.693 h 8.955 v -8.952 c 0,-1.221 -1.224,-2.844 -1.224,-4.473 0,-1.221 2.844,-4.067 2.844,-7.323 v -2.85 c 0,-2.847 -4.473,-8.949 -7.318,-8.949 z m 13.424,7.319 H 202.2 c 1.629,0 2.844,1.629 2.844,3.259 v 2.844 c 0,1.629 -1.215,2.85 -2.844,2.85 h -13.426 c -1.629,0 -2.844,-1.221 -2.844,-2.85 v -2.844 c 0,-1.628 1.215,-3.259 2.843,-3.259 z m 80.148,-7.319 c -2.853,0 -7.326,6.102 -7.326,8.948 v 23.6 h 10.577 v -8.952 h 19.126 v 8.952 h 10.576 v -23.598 c 0,-2.847 -4.471,-8.949 -7.73,-8.949 z m 6.106,7.319 h 13.42 c 1.225,0 2.854,1.629 2.854,3.259 v 5.693 h -19.127 v -5.693 c -0.002,-1.628 1.222,-3.259 2.853,-3.259 z m 44.344,25.229 V 99.041 H 309.2 v 32.548 z m 540.536,-0.088 v -23.597 c 0,-4.473 -4.482,-8.948 -8.955,-8.948 h -45.97 v 32.545 h 10.577 v -21.967 c 0,-1.63 1.218,-3.259 2.844,-3.259 h 6.102 c 1.225,0 2.854,1.629 2.854,3.259 V 131.5 h 10.576 v -21.966 c 0,-1.63 1.218,-3.259 2.847,-3.259 h 6.103 c 1.224,0 2.85,1.629 2.85,3.259 V 131.5 Z m -62.208,0 h -26.852 c -4.473,0 -8.946,-2.85 -8.946,-7.322 v -25.63 h 35.8 v 7.727 h -24.008 c -1.215,0 -2.844,1.225 -2.844,2.851 0,1.629 1.629,2.847 2.844,2.847 h 22.375 v 6.509 h -22.375 c -1.215,0 -2.844,1.629 -2.844,2.85 0,1.629 1.629,3.255 2.844,3.255 h 24.004 v 6.915 h 0.002 z M 720.381,98.953 v 7.322 h 10.579 c 2.844,0 2.844,0 2.844,3.259 v 21.963 h 10.17 v -21.963 c 0,-3.259 0,-3.259 3.259,-3.259 h 10.17 V 98.954 Z M 599.88,99.13 c -2.844,0 -8.945,4.477 -8.945,7.32 v 4.479 c 0,2.847 6.102,7.319 8.945,7.319 h 17.902 c 1.63,0 3.251,1.629 3.251,2.851 0,1.622 -1.618,3.253 -3.251,3.253 h -26.848 v 7.323 h 30.099 c 2.854,0 8.553,-4.473 8.553,-7.323 v -4.473 c 0,-3.255 -5.698,-7.729 -8.553,-7.729 H 603.14 c -1.627,0 -3.257,-1.221 -3.257,-2.851 0,-1.626 1.63,-2.85 3.257,-2.85 h 26.446 v -7.32 H 599.88 Z m 86.184,0 c -2.854,0 -8.953,4.477 -8.953,7.32 v 4.479 c 0,2.847 6.1,7.319 8.953,7.319 h 17.902 c 1.62,0 3.251,1.629 3.251,2.851 0,1.622 -1.626,3.253 -3.251,3.253 h -26.857 v 7.323 h 30.108 c 2.853,0 8.54,-4.473 8.54,-7.323 v -4.473 c 0,-3.255 -5.688,-7.729 -8.54,-7.729 h -17.903 c -1.619,0 -3.253,-1.221 -3.253,-2.851 0,-1.626 1.629,-2.85 3.253,-2.85 h 26.443 v -7.32 h -29.693 z m -53.231,0 v 14.646 c 0,2.847 4.473,7.323 7.326,7.323 h 7.316 v 10.576 h 10.586 V 121.1 h 7.318 c 2.854,0 7.326,-4.477 7.326,-7.323 V 99.13 h -10.17 v 11.8 c 0,1.221 -1.631,2.847 -3.257,2.847 h -13.015 c -1.63,0 -3.259,-1.626 -3.259,-2.847 v -11.8 z"
   id="path4"
   inkscape:connector-curvature="0" />
</g>
</svg>