<?xml version="1.0" encoding="UTF-8" standalone="no"?>
<svg
   xmlns:dc="http://purl.org/dc/elements/1.1/"
   xmlns:cc="http://creativecommons.org/ns#"
   xmlns:rdf="http://www.w3.org/1999/02/22-rdf-syntax-ns#"
   xmlns:svg="http://www.w3.org/2000/svg"
   xmlns="http://www.w3.org/2000/svg"
   xmlns:sodipodi="http://sodipodi.sourceforge.net/DTD/sodipodi-0.dtd"
   xmlns:inkscape="http://www.inkscape.org/namespaces/inkscape"
   viewBox="0 0 693.14898 297.97321"
   version="1.1"
   id="svg251"
   sodipodi:docname="consolegame.svg"
   width="693.14899"
   height="297.97321"
   inkscape:version="0.92.4 5da689c313, 2019-01-14">
  <metadata
     id="metadata257">
    <rdf:RDF>
      <cc:Work
         rdf:about="">
        <dc:format>image/svg+xml</dc:format>
        <dc:type
           rdf:resource="http://purl.org/dc/dcmitype/StillImage" />
      </cc:Work>
    </rdf:RDF>
  </metadata>
  <defs
     id="defs255" />
  <sodipodi:namedview
     pagecolor="#ffffff"
     bordercolor="#666666"
     borderopacity="1"
     objecttolerance="10"
     gridtolerance="10"
     guidetolerance="10"
     inkscape:pageopacity="0"
     inkscape:pageshadow="2"
     inkscape:window-width="640"
     inkscape:window-height="480"
     id="namedview253"
     showgrid="false"
     inkscape:zoom="0.39096989"
     inkscape:cx="346.57401"
     inkscape:cy="148.9865"
     inkscape:window-x="0"
     inkscape:window-y="0"
     inkscape:window-maximized="0"
     inkscape:current-layer="svg251">
    <inkscape:grid
       type="xygrid"
       id="grid1064"
       originx="0"
       originy="8.0566408e-06" />
  </sodipodi:namedview>
  <g
     id="g6"
     style="fill:#7942ba"
     transform="translate(0,1.9059923e-4)">
    <path
       d="m 0.78,276.553 c 0,0 0.649,17.524 81.783,21.42 h 8.184 c 81.133,-3.895 81.782,-21.42 81.782,-21.42 V 7.179 c 0,0 0,-7.788 -8.439,-7.141 H 9.218 C 0.782,-0.608 0.78,7.179 0.78,7.179 Z"
       id="path2"
       inkscape:connector-curvature="0" />
    <path
       d="m 5.581,26.799 c 0,0.485 -0.227,0.877 -0.509,0.877 H 0.507 C 0.226,27.675 0,27.284 0,26.799 0,26.315 0.226,25.923 0.507,25.923 h 4.564 c 0.283,-10e-4 0.51,0.391 0.51,0.876 z m 0,9.78 c 0,0.485 -0.227,0.876 -0.509,0.876 H 0.507 C 0.226,37.455 0,37.063 0,36.579 0,36.094 0.226,35.703 0.507,35.703 h 4.564 c 0.283,-0.001 0.51,0.391 0.51,0.876 z m 0,9.779 c 0,0.484 -0.227,0.876 -0.509,0.876 H 0.507 C 0.226,47.235 0,46.843 0,46.358 0,45.873 0.226,45.481 0.507,45.481 h 4.564 c 0.283,10e-4 0.51,0.393 0.51,0.877 z m 0,9.781 c 0,0.485 -0.227,0.878 -0.509,0.878 H 0.507 C 0.226,57.017 0,56.624 0,56.139 0,55.654 0.226,55.264 0.507,55.264 h 4.564 c 0.283,0 0.51,0.39 0.51,0.875 z m 167.565,-29.34 c 0,0.485 -0.225,0.877 -0.505,0.877 h -4.569 c -0.279,0 -0.508,-0.392 -0.508,-0.877 0,-0.484 0.229,-0.876 0.508,-0.876 h 4.569 c 0.28,-10e-4 0.505,0.391 0.505,0.876 z m 0,9.78 c 0,0.485 -0.225,0.876 -0.505,0.876 h -4.569 c -0.279,0 -0.508,-0.392 -0.508,-0.876 0,-0.485 0.229,-0.876 0.508,-0.876 h 4.569 c 0.28,-0.001 0.505,0.391 0.505,0.876 z m 0,9.779 c 0,0.484 -0.225,0.876 -0.505,0.876 h -4.569 c -0.279,0 -0.508,-0.392 -0.508,-0.876 0,-0.485 0.229,-0.877 0.508,-0.877 h 4.569 c 0.28,10e-4 0.505,0.393 0.505,0.877 z m 0,9.781 c 0,0.485 -0.225,0.878 -0.505,0.878 h -4.569 c -0.279,0 -0.508,-0.393 -0.508,-0.878 0,-0.485 0.229,-0.875 0.508,-0.875 h 4.569 c 0.28,0 0.505,0.39 0.505,0.875 z"
       id="path4"
       inkscape:connector-curvature="0" />
  </g>
  <path
     d="M 144.317,0.1441906 H 28.828 V 248.96619 c 0,4.624 2.307,8.694 5.805,11.074 v 0.002 c 0,0 6.485,3.538 52.689,3.538 29.081,0 41.987,0.179 47.56,-1.839 5.428,-1.587 9.404,-6.702 9.404,-12.773 v -2.903 h 0.031 z"
     id="path8"
     inkscape:connector-curvature="0"
     style="fill:#7042b2" />
  <path
     d="m 86.576,9.0221906 h 64.012 c 13.209,-0.089 12.199,5.5680004 12.199,5.5680004 V 133.75219 c 0,0 1.153,6.613 -7.112,8.437 -8.076,1.781 -11.376,2.862 -69.009,4.817 -57.633,-1.956 -60.933,-3.036 -69.009,-4.817 -8.265,-1.823 -7.112,-8.437 -7.112,-8.437 V 14.590191 c 0,0 -1.01,-5.6570004 12.199,-5.5680004 h 64.012 z"
     id="path10"
     inkscape:connector-curvature="0"
     style="fill:#333333" />
  <path
     d="m 86.666,149.05519 -0.069,-0.003 c -55.181,-1.872 -60.674,-3.03 -68.277,-4.633 l -1.079,-0.226 c -6.969,-1.449 -8.767,-7.474 -8.743,-10.458 V 16.638191 c -0.003,-0.445 0.047,-4.56 2.799,-7.3320004 1.536,-1.547 3.551,-2.331 5.987,-2.331 H 156.23 c 2.437,0 4.451,0.784 5.987,2.331 2.751,2.7720004 2.802,6.8870004 2.799,7.3470004 V 133.75219 c 0.023,2.968 -1.774,8.993 -8.743,10.442 l -1.005,0.21 c -7.644,1.608 -13.167,2.77 -68.532,4.648 z M 17.284,11.070191 c -1.324,0 -2.331,0.367 -3.081,1.122 -1.33,1.34 -1.615,3.708 -1.61,4.432 V 133.75219 c 0.003,0.544 0.188,5.332 5.481,6.431 l 1.089,0.229 c 7.397,1.559 12.744,2.686 67.502,4.545 54.944,-1.865 60.32,-2.996 67.759,-4.561 l 1.015,-0.213 c 5.293,-1.1 5.478,-5.887 5.481,-6.429 V 16.638191 c -0.002,-0.934 -0.239,-5.568 -4.69,-5.568 H 17.284 Z"
     id="path12"
     inkscape:connector-curvature="0"
     style="fill:#272727" />
  <path
     d="M 36.27,26.652191 H 136.876 V 114.92719 H 36.27 Z"
     id="path14"
     inkscape:connector-curvature="0"
     style="fill:#8e827b" />
  <g
     id="g20"
     style="fill:#2b2b2b"
     transform="translate(0,1.9059923e-4)">
    <path
       d="m 41.959,215.75 a 2.05,2.05 0 0 1 -2.051,2.051 H 30.38 a 2.05,2.05 0 0 1 -2.051,-2.051 v -39.385 c 0,-1.135 0.919,-2.055 2.051,-2.055 h 9.528 c 1.133,0 2.051,0.92 2.051,2.055 z"
       id="path16"
       inkscape:connector-curvature="0" />
    <path
       d="m 54.836,189.242 c 1.134,0 2.051,0.916 2.051,2.051 v 9.527 a 2.05,2.05 0 0 1 -2.051,2.052 H 15.451 a 2.05,2.05 0 0 1 -2.05,-2.052 v -9.527 a 2.05,2.05 0 0 1 2.05,-2.051 z"
       id="path18"
       inkscape:connector-curvature="0" />
  </g>
  <path
     d="m 40.169,196.41019 a 4.8720001,4.8720001 0 1 1 -9.744,-0.002 4.8720001,4.8720001 0 0 1 9.744,0.002 z m 6.738,-5.14 8.573,4.625 -8.573,4.629 z m -23.759,9.254 -8.572,-4.625 8.572,-4.629 z m 7.261,-15.991 4.627,-8.567 4.63,8.567 z m 9.257,23.751 -4.628,8.571 -4.629,-8.571 z"
     id="path22"
     inkscape:connector-curvature="0"
     style="fill:#3a3a3a" />
  <g
     id="g34"
     style="fill:#c1c1c1"
     transform="translate(0,1.9059923e-4)">
    <path
       d="m 47.889,133.467 c -0.659,0.193 -1.767,0.445 -2.957,0.445 -1.336,0 -2.425,-0.312 -3.188,-0.951 -0.761,-0.614 -1.105,-1.503 -1.105,-2.43 0,-1.446 0.689,-2.806 1.94,-3.707 1.063,-0.759 2.512,-1.192 4.134,-1.192 1.221,0 2.095,0.216 2.442,0.372 l -0.518,1.181 c -0.46,-0.193 -1.176,-0.336 -2.053,-0.336 -1.033,0 -1.983,0.274 -2.7,0.792 a 3.448,3.448 0 0 0 -1.423,2.782 c 0,1.456 0.949,2.298 2.757,2.298 0.517,0 0.949,-0.084 1.236,-0.181 l 0.458,-2.034 h -1.709 l 0.274,-1.132 h 3.329 z"
       id="path24"
       inkscape:connector-curvature="0" />
    <path
       d="m 50.259,131.518 -1.322,2.31 h -1.779 l 4.852,-8.112 h 2.096 l 1.221,8.112 h -1.751 l -0.272,-2.31 z m 2.942,-1.083 -0.272,-2.023 c -0.042,-0.433 -0.101,-1.059 -0.144,-1.542 h -0.029 c -0.259,0.483 -0.516,1.06 -0.788,1.542 l -1.179,2.023 z"
       id="path26"
       inkscape:connector-curvature="0" />
    <path
       d="m 62.408,133.828 0.643,-3.814 c 0.144,-0.833 0.348,-1.975 0.59,-2.975 H 63.6 c -0.503,0.951 -1.078,1.999 -1.61,2.854 l -2.382,3.838 h -1.294 l -0.501,-3.78 a 44.326,44.326 0 0 1 -0.26,-2.912 h -0.027 c -0.26,0.926 -0.548,2.155 -0.791,2.975 l -1.106,3.814 h -1.551 l 2.458,-8.112 h 2.209 l 0.518,3.79 c 0.072,0.724 0.172,1.565 0.185,2.336 h 0.06 c 0.344,-0.77 0.802,-1.625 1.219,-2.323 l 2.34,-3.803 h 2.242 l -1.278,8.112 z m 7.666,-3.611 h -3.475 l -0.548,2.42 h 3.906 l -0.273,1.191 H 64.1 l 1.837,-8.112 h 5.37 l -0.272,1.192 h -3.691 l -0.487,2.13 h 3.49 z m 5.585,-4.369 c 0.645,-0.119 1.45,-0.193 2.327,-0.193 1.003,0 1.735,0.147 2.326,0.496 0.559,0.287 0.933,0.77 0.933,1.384 0,1.023 -0.948,1.719 -2.011,1.962 v 0.034 c 0.904,0.23 1.55,0.855 1.55,1.781 0,0.854 -0.544,1.493 -1.248,1.902 -0.805,0.483 -1.954,0.661 -3.418,0.661 -0.976,0 -1.78,-0.047 -2.238,-0.119 z m 0.072,6.886 c 0.273,0.024 0.574,0.034 0.89,0.034 1.249,0 2.399,-0.42 2.399,-1.503 0,-0.867 -0.878,-1.192 -1.896,-1.192 h -0.789 z m 0.86,-3.696 h 0.775 c 1.251,0 2.155,-0.493 2.155,-1.325 0,-0.661 -0.617,-0.948 -1.536,-0.948 -0.389,0 -0.719,0.021 -0.892,0.059 z"
       id="path28"
       inkscape:connector-curvature="0" />
    <path
       d="m 89.86,128.941 c 0,1.444 -0.619,2.938 -1.754,3.877 -0.875,0.72 -2.051,1.141 -3.46,1.141 -2.497,0 -3.805,-1.528 -3.805,-3.343 0,-1.447 0.646,-2.963 1.811,-3.902 0.874,-0.71 2.096,-1.132 3.403,-1.132 2.584,0.001 3.805,1.507 3.805,3.359 z m -5.918,-1.48 c -0.847,0.711 -1.334,2.036 -1.334,3.082 0,1.228 0.661,2.238 2.284,2.238 0.703,0 1.377,-0.252 1.88,-0.685 0.835,-0.699 1.308,-2.081 1.308,-3.104 0,-1.072 -0.446,-2.226 -2.227,-2.226 a 2.914,2.914 0 0 0 -1.911,0.695 z"
       id="path30"
       inkscape:connector-curvature="0" />
    <path
       d="m 90.536,133.828 0.76,-3.334 -1.882,-4.778 h 1.78 l 0.76,2.312 c 0.216,0.699 0.317,1.058 0.405,1.419 h 0.027 c 0.26,-0.384 0.575,-0.843 1.005,-1.444 l 1.739,-2.287 h 1.979 l -4.149,4.754 -0.761,3.358 z"
       id="path32"
       inkscape:connector-curvature="0" />
  </g>
  <path
     d="m 104.263,131.00019 a 0.911,0.911 0 0 1 0.527,-0.241 c 0.199,-0.023 0.377,0.002 0.543,0.069 a 0.796,0.796 0 0 1 0.381,0.335 c 0.092,0.149 0.114,0.327 0.067,0.535 a 1.42,1.42 0 0 1 -0.335,0.577 5.937,5.937 0 0 1 -0.492,0.488 c -0.374,0.355 -0.79,0.614 -1.248,0.785 -0.456,0.168 -0.92,0.248 -1.387,0.241 a 3.677,3.677 0 0 1 -1.372,-0.3 3.56,3.56 0 0 1 -1.207,-0.854 4.033,4.033 0 0 1 -0.536,-0.717 3.4,3.4 0 0 1 -0.331,-0.79 4.13,4.13 0 0 1 -0.156,-1.273 c 0.007,-0.438 0.084,-0.867 0.23,-1.283 0.144,-0.417 0.347,-0.808 0.612,-1.174 0.267,-0.367 0.591,-0.682 0.975,-0.938 0.28,-0.191 0.562,-0.355 0.845,-0.496 0.285,-0.136 0.584,-0.268 0.904,-0.389 0.183,-0.066 0.369,-0.134 0.562,-0.201 0.193,-0.064 0.391,-0.111 0.593,-0.151 0.203,-0.032 0.405,-0.045 0.606,-0.037 0.203,0.009 0.403,0.049 0.594,0.116 0.134,0.053 0.27,0.126 0.404,0.216 a 2.517,2.517 0 0 1 0.679,0.679 1.6,1.6 0 0 1 0.188,0.378 0.921,0.921 0 0 1 0.021,0.343 0.715,0.715 0 0 1 -0.113,0.318 0.851,0.851 0 0 1 -0.617,0.362 c -0.223,0.027 -0.391,0.004 -0.512,-0.062 a 0.934,0.934 0 0 1 -0.29,-0.263 l -0.21,-0.302 a 0.545,0.545 0 0 0 -0.285,-0.216 0.714,0.714 0 0 0 -0.176,0.013 6.639,6.639 0 0 0 -0.988,0.32 4.764,4.764 0 0 0 -0.924,0.485 3.495,3.495 0 0 0 -0.746,0.661 2.41,2.41 0 0 0 -0.463,0.845 2.945,2.945 0 0 0 -0.128,1.127 c 0.027,0.381 0.144,0.738 0.347,1.074 0.117,0.202 0.267,0.374 0.46,0.52 0.193,0.149 0.407,0.258 0.639,0.333 0.23,0.074 0.466,0.1 0.707,0.077 a 1.66,1.66 0 0 0 0.691,-0.225 c 0.195,-0.122 0.366,-0.271 0.522,-0.448 a 6.87,6.87 0 0 0 0.419,-0.537 z"
     id="path36"
     inkscape:connector-curvature="0"
     style="fill:#ff004f" />
  <path
     d="m 113.301,130.26319 a 7.959,7.959 0 0 1 -0.583,1.314 5.09,5.09 0 0 1 -0.862,1.149 4.159,4.159 0 0 1 -1.187,0.818 c -0.45,0.208 -0.966,0.312 -1.545,0.312 a 5.772,5.772 0 0 1 -0.889,-0.092 2.803,2.803 0 0 1 -0.633,-0.198 2.454,2.454 0 0 1 -0.944,-0.462 2.939,2.939 0 0 1 -0.664,-0.739 3.621,3.621 0 0 1 -0.409,-0.895 4.49,4.49 0 0 1 -0.18,-0.919 c -0.042,-0.52 0.004,-1.05 0.148,-1.588 a 4.8,4.8 0 0 1 0.681,-1.484 4.66,4.66 0 0 1 1.177,-1.166 4.05,4.05 0 0 1 1.62,-0.639 c 0.315,-0.049 0.63,-0.066 0.951,-0.049 0.323,0.015 0.635,0.071 0.936,0.168 0.251,0.079 0.481,0.171 0.697,0.275 0.215,0.104 0.418,0.239 0.616,0.398 0.258,0.209 0.476,0.449 0.657,0.721 0.176,0.271 0.304,0.558 0.386,0.852 0.099,0.376 0.141,0.748 0.134,1.117 -0.008,0.37 -0.046,0.739 -0.107,1.107 z m -3.467,2.028 c 0.268,-0.105 0.503,-0.244 0.706,-0.417 a 3.39,3.39 0 0 0 0.906,-1.236 c 0.104,-0.237 0.196,-0.473 0.275,-0.716 0.054,-0.302 0.085,-0.614 0.087,-0.936 a 1.922,1.922 0 0 0 -0.219,-0.914 1.73,1.73 0 0 0 -0.569,-0.62 2.427,2.427 0 0 0 -0.838,-0.356 2.52,2.52 0 0 0 -0.916,-0.044 c -0.307,0.04 -0.583,0.148 -0.822,0.324 a 3.484,3.484 0 0 0 -0.825,0.86 3.906,3.906 0 0 0 -0.622,2.012 c -0.007,0.336 0.049,0.656 0.176,0.961 0.094,0.225 0.24,0.431 0.433,0.614 a 2.163,2.163 0 0 0 1.42,0.609 c 0.272,0.01 0.542,-0.038 0.808,-0.141 z"
     id="path38"
     inkscape:connector-curvature="0"
     style="fill:#7942ba" />
  <path
     d="m 126.758,130.01419 c -0.161,0.48 -0.369,0.948 -0.624,1.406 a 5.38,5.38 0 0 1 -0.922,1.229 4.422,4.422 0 0 1 -1.269,0.872 c -0.478,0.223 -1.03,0.334 -1.652,0.334 a 6.668,6.668 0 0 1 -0.951,-0.094 3.864,3.864 0 0 1 -0.678,-0.213 2.624,2.624 0 0 1 -1.009,-0.498 3.173,3.173 0 0 1 -0.708,-0.787 3.701,3.701 0 0 1 -0.436,-0.96 4.793,4.793 0 0 1 -0.193,-0.983 4.877,4.877 0 0 1 0.156,-1.695 5.051,5.051 0 0 1 0.73,-1.585 4.815,4.815 0 0 1 1.261,-1.248 4.297,4.297 0 0 1 1.729,-0.686 c 0.334,-0.05 0.671,-0.07 1.016,-0.05 0.344,0.016 0.678,0.078 1.003,0.179 0.266,0.084 0.515,0.183 0.743,0.297 0.228,0.106 0.451,0.248 0.659,0.421 0.275,0.223 0.507,0.48 0.698,0.77 0.193,0.292 0.33,0.597 0.416,0.913 0.105,0.401 0.151,0.801 0.142,1.194 -0.007,0.396 -0.044,0.79 -0.111,1.184 z m -3.707,2.169 c 0.287,-0.113 0.537,-0.259 0.752,-0.443 0.215,-0.185 0.401,-0.389 0.567,-0.612 0.16,-0.223 0.294,-0.458 0.405,-0.713 0.112,-0.251 0.207,-0.508 0.293,-0.766 0.057,-0.324 0.087,-0.659 0.091,-0.998 a 2.023,2.023 0 0 0 -0.232,-0.978 1.797,1.797 0 0 0 -0.61,-0.661 2.607,2.607 0 0 0 -0.891,-0.386 2.81,2.81 0 0 0 -0.984,-0.045 1.841,1.841 0 0 0 -0.879,0.349 3.74,3.74 0 0 0 -0.879,0.916 3.95,3.95 0 0 0 -0.508,1.125 3.96,3.96 0 0 0 -0.159,1.029 c -0.009,0.361 0.053,0.701 0.187,1.025 0.104,0.243 0.26,0.461 0.465,0.656 a 2.31,2.31 0 0 0 1.516,0.649 c 0.293,0.012 0.581,-0.037 0.866,-0.147 z"
     id="path40"
     inkscape:connector-curvature="0"
     style="fill:#f9e52d" />
  <path
     d="m 128.809,132.95919 a 0.799,0.799 0 0 1 -0.304,0.53 1.316,1.316 0 0 1 -0.565,0.268 0.93,0.93 0 0 1 -0.555,-0.057 c -0.169,-0.08 -0.258,-0.235 -0.27,-0.471 a 65.553,65.553 0 0 1 -0.07,-3.093 v -3.186 a 0.662,0.662 0 0 1 -0.347,-0.233 0.692,0.692 0 0 1 -0.139,-0.342 0.856,0.856 0 0 1 0.049,-0.387 0.948,0.948 0 0 1 0.222,-0.336 c 0.103,-0.104 0.247,-0.197 0.428,-0.283 a 7.086,7.086 0 0 1 1.246,-0.428 9.44,9.44 0 0 1 0.534,-0.119 4.919,4.919 0 0 1 1.834,0.006 4.548,4.548 0 0 1 1.624,0.628 c 0.468,0.305 0.817,0.698 1.048,1.183 0.23,0.487 0.256,1.038 0.072,1.663 a 3.951,3.951 0 0 1 -0.215,0.518 c -0.087,0.17 -0.189,0.332 -0.302,0.48 a 2.94,2.94 0 0 1 -0.58,0.594 5.856,5.856 0 0 1 -0.723,0.481 c 0.183,0.173 0.359,0.354 0.52,0.544 0.165,0.191 0.347,0.362 0.549,0.521 0.077,0.06 0.19,0.154 0.34,0.283 a 5.888,5.888 0 0 1 0.803,0.852 c 0.104,0.141 0.153,0.26 0.143,0.357 a 0.86,0.86 0 0 1 -0.151,0.446 1.01,1.01 0 0 1 -0.331,0.312 0.843,0.843 0 0 1 -0.425,0.111 0.896,0.896 0 0 1 -0.464,-0.143 3.107,3.107 0 0 1 -0.49,-0.429 12.932,12.932 0 0 0 -0.448,-0.453 58.612,58.612 0 0 1 -0.93,-0.939 29.328,29.328 0 0 0 -0.935,-0.931 4.525,4.525 0 0 1 -0.584,0.074 21.25,21.25 0 0 0 -0.583,0.044 v 1.935 z m 2.586,-6.282 a 3.078,3.078 0 0 0 -1.266,-0.35 3.606,3.606 0 0 0 -1.32,0.169 v 2.932 c 0.431,-0.024 0.855,-0.076 1.276,-0.15 a 2.843,2.843 0 0 0 1.162,-0.483 c 0.196,-0.141 0.352,-0.303 0.473,-0.491 0.119,-0.184 0.191,-0.375 0.216,-0.57 a 1.088,1.088 0 0 0 -0.087,-0.569 c -0.083,-0.185 -0.234,-0.349 -0.454,-0.488 z"
     id="path42"
     inkscape:connector-curvature="0"
     style="fill:#00b3dd" />
  <path
     d="m 119.03,131.81919 c 0.231,0.079 0.407,0.184 0.532,0.322 a 0.704,0.704 0 0 1 0.204,0.434 0.671,0.671 0 0 1 -0.156,0.444 c -0.109,0.143 -0.285,0.259 -0.531,0.347 a 1.686,1.686 0 0 1 -0.398,0.079 c -0.173,0.017 -0.414,0.04 -0.719,0.062 -0.307,0.024 -0.696,0.057 -1.169,0.094 -0.471,0.035 -1.049,0.089 -1.739,0.151 -0.17,0.022 -0.349,0.04 -0.532,0.054 a 0.713,0.713 0 0 1 -0.489,-0.131 0.73,0.73 0 0 1 -0.285,-0.376 2.644,2.644 0 0 1 -0.144,-0.55 6.74,6.74 0 0 1 -0.061,-0.585 c -0.011,-0.193 -0.02,-0.354 -0.03,-0.485 a 74,74 0 0 1 -0.064,-0.892 c -0.022,-0.335 -0.045,-0.682 -0.064,-1.031 -0.025,-0.349 -0.049,-0.691 -0.077,-1.027 -0.025,-0.335 -0.05,-0.635 -0.07,-0.893 a 39.102,39.102 0 0 1 -0.072,-1.107 3.98,3.98 0 0 1 0.013,-0.664 c 0.02,-0.163 0.064,-0.284 0.136,-0.361 0.072,-0.079 0.173,-0.151 0.305,-0.216 a 0.808,0.808 0 0 1 0.376,-0.071 c 0.142,0 0.27,0.024 0.396,0.069 0.124,0.047 0.23,0.117 0.323,0.21 a 0.516,0.516 0 0 1 0.145,0.317 c 0.105,1.035 0.184,2.061 0.246,3.079 0.06,1.02 0.132,2.036 0.21,3.054 0.604,-0.049 1.21,-0.1 1.809,-0.161 0.597,-0.06 1.203,-0.122 1.815,-0.189 z"
     id="path44"
     inkscape:connector-curvature="0"
     style="fill:#aae000" />
  <circle
     cx="116.379"
     cy="202.49419"
     r="10.323"
     id="circle46"
     style="fill:#2b2b2b" />
  <path
     d="m 114.102,207.62419 h -2.523 v -9.496 h 2.388 c 1.506,0 2.632,0.747 2.632,2.51 0,0.774 -0.352,1.615 -1.112,1.968 0.801,0.285 1.276,1.126 1.276,2.157 -0.001,1.897 -1.087,2.861 -2.661,2.861 z m -0.095,-8.208 h -1.112 v 2.578 h 1.085 c 0.706,0 1.262,-0.407 1.262,-1.316 -0.001,-0.936 -0.516,-1.262 -1.235,-1.262 z m -0.054,3.853 h -1.058 v 3.067 h 1.195 c 0.799,0 1.315,-0.434 1.315,-1.574 -0.001,-1.059 -0.624,-1.493 -1.452,-1.493 z"
     id="path48"
     inkscape:connector-curvature="0"
     style="fill:#414042" />
  <circle
     cx="146.888"
     cy="193.08919"
     r="10.323"
     id="circle50"
     style="fill:#2b2b2b" />
  <path
     d="m 146.661,198.29519 -0.557,-2.51 h -2.063 l -0.542,2.51 h -1.411 l 2.333,-9.496 h 1.37 l 2.32,9.496 z m -1.18,-5.372 c -0.136,-0.624 -0.339,-1.723 -0.408,-2.076 -0.067,0.353 -0.271,1.438 -0.406,2.076 l -0.352,1.601 h 1.519 z"
     id="path52"
     inkscape:connector-curvature="0"
     style="fill:#414042" />
  <g
     id="g56"
     style="fill:#bac2c5"
     transform="translate(0,1.9059923e-4)">
    <path
       d="m 17.111,59.254 h 0.897 c 0.139,0 0.272,0.014 0.4,0.041 0.126,0.027 0.238,0.073 0.337,0.136 0.099,0.063 0.176,0.149 0.235,0.256 a 0.807,0.807 0 0 1 0.087,0.395 c 0,0.165 -0.031,0.302 -0.094,0.41 -0.063,0.108 -0.143,0.194 -0.241,0.256 A 0.96,0.96 0 0 1 18.41,60.88 1.602,1.602 0 0 1 18.077,60.919 H 17.47 v 1.357 h -0.359 z m 0.359,1.331 h 0.606 c 0.179,0 0.325,-0.041 0.437,-0.122 0.112,-0.081 0.169,-0.207 0.169,-0.378 0,-0.171 -0.057,-0.297 -0.169,-0.378 A 0.73,0.73 0 0 0 18.076,59.585 H 17.47 Z m 3.492,1.768 c -0.231,0 -0.442,-0.04 -0.633,-0.12 a 1.49,1.49 0 0 1 -0.828,-0.835 1.666,1.666 0 0 1 -0.117,-0.633 c 0,-0.228 0.039,-0.439 0.117,-0.634 0.078,-0.195 0.188,-0.362 0.328,-0.504 0.142,-0.142 0.307,-0.251 0.5,-0.331 0.191,-0.079 0.403,-0.12 0.633,-0.12 0.23,0 0.442,0.04 0.634,0.12 a 1.483,1.483 0 0 1 0.828,0.835 c 0.079,0.195 0.117,0.406 0.117,0.634 0,0.228 -0.039,0.439 -0.117,0.633 a 1.508,1.508 0 0 1 -0.329,0.504 1.527,1.527 0 0 1 -0.499,0.331 c -0.192,0.079 -0.404,0.12 -0.634,0.12 z m 0,-0.333 a 1.153,1.153 0 0 0 0.862,-0.367 1.23,1.23 0 0 0 0.245,-0.399 c 0.058,-0.152 0.088,-0.316 0.088,-0.489 0,-0.173 -0.03,-0.337 -0.088,-0.489 a 1.23,1.23 0 0 0 -0.245,-0.399 1.138,1.138 0 0 0 -0.862,-0.367 1.138,1.138 0 0 0 -0.862,0.367 1.23,1.23 0 0 0 -0.245,0.399 1.364,1.364 0 0 0 -0.088,0.489 c 0,0.173 0.03,0.336 0.088,0.489 0.058,0.153 0.141,0.285 0.245,0.399 a 1.138,1.138 0 0 0 0.862,0.367 z m 1.72,-2.766 h 0.397 l 0.687,2.51 h 0.008 l 0.742,-2.51 h 0.401 l 0.739,2.51 h 0.008 l 0.7,-2.51 h 0.375 l -0.888,3.023 H 25.463 L 24.716,59.716 H 24.71 l -0.751,2.561 h -0.393 z m 4.461,0 h 1.9 v 0.333 h -1.542 v 0.947 h 1.439 v 0.333 h -1.439 v 1.075 h 1.618 v 0.333 h -1.977 z m 2.532,0 h 0.773 c 0.145,0 0.289,0.008 0.433,0.026 0.144,0.017 0.272,0.054 0.387,0.111 0.114,0.057 0.206,0.14 0.278,0.25 0.071,0.11 0.107,0.258 0.107,0.446 a 0.736,0.736 0 0 1 -0.201,0.538 0.964,0.964 0 0 1 -0.555,0.26 l 0.858,1.392 h -0.44 l -0.82,-1.357 h -0.461 v 1.357 h -0.359 z m 0.358,1.331 h 0.32 c 0.099,0 0.203,-0.002 0.31,-0.008 0.107,-0.005 0.205,-0.024 0.294,-0.055 a 0.519,0.519 0 0 0 0.222,-0.147 0.427,0.427 0 0 0 0.088,-0.288 0.468,0.468 0 0 0 -0.064,-0.26 0.418,0.418 0 0 0 -0.169,-0.151 c -0.07,-0.036 -0.148,-0.059 -0.235,-0.07 -0.087,-0.011 -0.174,-0.017 -0.263,-0.017 h -0.504 z"
       id="path54"
       inkscape:connector-curvature="0" />
  </g>
  <circle
     cx="19.605"
     cy="55.23119"
     r="2.8"
     id="circle58"
     style="fill:#e50016" />
  <path
     d="m 22.834,52.718191 c -0.021,0 -0.042,0.003 -0.064,0.003 0.566,0.681 0.907,1.556 0.907,2.51 0,0.955 -0.341,1.829 -0.907,2.51 0.021,0 0.042,0.003 0.064,0.003 a 2.513,2.513 0 1 0 0,-5.026 z m 3.345,0 c -0.021,0 -0.042,0.003 -0.064,0.003 0.566,0.681 0.907,1.556 0.907,2.51 0,0.955 -0.341,1.829 -0.907,2.51 0.021,0 0.042,0.003 0.064,0.003 a 2.513,2.513 0 1 0 0,-5.026 z m 3.368,0 c -0.021,0 -0.042,0.003 -0.064,0.003 0.566,0.681 0.907,1.556 0.907,2.51 0,0.955 -0.341,1.829 -0.907,2.51 0.021,0 0.042,0.003 0.064,0.003 a 2.513,2.513 0 1 0 0,-5.026 z"
     id="path60"
     inkscape:connector-curvature="0"
     style="fill:#bac2c5" />
  <g
     id="g64"
     style="fill:#2b2b2b"
     transform="translate(0,1.9059923e-4)">
    <path
       d="m 127.598,255.547 a 1.0255,1.0255 0 1 1 -2.051,0 1.026,1.026 0 0 1 2.051,0 z m 5.127,4.103 c 0,0.568 -0.458,1.023 -1.025,1.023 a 1.024,1.024 0 1 1 1.025,-1.023 z m 0,-5.128 c 0,0.569 -0.458,1.025 -1.025,1.025 a 1.024,1.024 0 1 1 0,-2.048 c 0.567,0 1.025,0.457 1.025,1.023 z m 0,-5.127 c 0,0.564 -0.458,1.027 -1.025,1.027 a 1.027,1.027 0 0 1 -1.025,-1.027 1.025,1.025 0 1 1 2.05,0 z m 5.127,-1.026 a 1.025,1.025 0 1 1 -2.05,0 1.025,1.025 0 0 1 2.05,0 z m 5.127,3.936 c 0,0.563 -0.456,1.022 -1.025,1.022 a 1.025,1.025 0 1 1 1.025,-1.022 z m 0,-5.131 c 0,0.568 -0.456,1.025 -1.025,1.025 a 1.022,1.022 0 0 1 -1.023,-1.025 1.024,1.024 0 1 1 2.048,0 z m 5.13,-1.024 a 1.027,1.027 0 0 1 -2.054,0 1.028,1.028 0 0 1 2.054,0 z m 5.127,34.866 c 0,0.567 -0.459,1.028 -1.026,1.028 a 1.027,1.027 0 0 1 -1.025,-1.028 c 0,-0.564 0.458,-1.022 1.025,-1.022 a 1.023,1.023 0 0 1 1.026,1.022 z m 0,-5.125 a 1.025,1.025 0 1 1 -2.05,0 1.025,1.025 0 0 1 2.05,0 z m 0,-5.127 c 0,0.565 -0.459,1.023 -1.026,1.023 a 1.025,1.025 0 1 1 0,-2.05 1.026,1.026 0 0 1 1.026,1.027 z m 0,-5.129 a 1.027,1.027 0 0 1 -2.051,0 c 0,-0.567 0.458,-1.023 1.025,-1.023 a 1.022,1.022 0 0 1 1.026,1.023 z m 0,-5.127 a 1.027,1.027 0 1 1 -2.053,-0.003 1.027,1.027 0 0 1 2.053,0.003 z m 0,-5.128 c 0,0.565 -0.459,1.023 -1.026,1.023 a 1.026,1.026 0 1 1 1.026,-1.023 z m 0,-5.128 c 0,0.568 -0.459,1.023 -1.026,1.023 a 1.024,1.024 0 0 1 0,-2.047 c 0.567,0 1.026,0.458 1.026,1.024 z m 0,-5.129 c 0,0.564 -0.459,1.027 -1.026,1.027 a 1.026,1.026 0 1 1 1.026,-1.027 z m 5.127,-1.025 a 1.024,1.024 0 1 1 -1.026,-1.025 1.024,1.024 0 0 1 1.026,1.025 z m 0,5.13 a 1.0255,1.0255 0 0 1 -2.051,0 1.026,1.026 0 1 1 2.051,0 z m 5.13,-1.029 a 1.03,1.03 0 0 1 -1.025,1.028 1.028,1.028 0 1 1 1.025,-1.028 z m 0,5.128 c 0,0.569 -0.461,1.024 -1.025,1.024 a 1.024,1.024 0 1 1 0,-2.046 c 0.564,0 1.025,0.457 1.025,1.022 z m 0,5.13 c 0,0.566 -0.461,1.022 -1.025,1.022 a 1.024,1.024 0 1 1 0,-2.048 c 0.564,0 1.025,0.458 1.025,1.026 z m 0,5.126 a 1.03,1.03 0 0 1 -1.025,1.028 1.03,1.03 0 0 1 -1.028,-1.028 c 0,-0.563 0.46,-1.028 1.028,-1.028 a 1.03,1.03 0 0 1 1.025,1.028 z m 0,5.128 a 1.028,1.028 0 0 1 -2.053,0 c 0,-0.567 0.46,-1.023 1.028,-1.023 0.564,0 1.025,0.456 1.025,1.023 z m 0,5.13 a 1.0265,1.0265 0 0 1 -2.053,0 1.0265,1.0265 0 0 1 2.053,0 z m -5.13,-19.489 a 1.0260019,1.0260019 0 1 1 -2.052,0.004 1.0260019,1.0260019 0 0 1 2.052,-0.004 z m 0,5.128 a 1.0260019,1.0260019 0 1 1 -2.052,0.004 1.0260019,1.0260019 0 0 1 2.052,-0.004 z m 0,5.131 a 1.025,1.025 0 1 1 -1.026,-1.028 c 0.569,0 1.026,0.462 1.026,1.028 z m 0,5.125 a 1.0260005,1.0260005 0 1 1 -2.052,0.002 1.0260005,1.0260005 0 0 1 2.052,-0.002 z m 0,5.127 a 1.026,1.026 0 1 1 -2.051,0 c 0,-0.564 0.458,-1.023 1.025,-1.023 a 1.024,1.024 0 0 1 1.026,1.023 z m 0,5.13 a 1.02,1.02 0 0 1 -1.026,1.022 1.025,1.025 0 1 1 1.026,-1.022 z m -10.254,-28.718 a 1.03,1.03 0 0 1 -1.025,1.029 1.027,1.027 0 1 1 1.025,-1.029 z m 0,5.128 a 1.027,1.027 0 1 1 -2.054,0 1.028,1.028 0 0 1 2.054,0 z m 0,5.13 c 0,0.566 -0.462,1.021 -1.025,1.021 a 1.024,1.024 0 1 1 0,-2.046 c 0.564,0 1.025,0.457 1.025,1.025 z m 0,5.127 a 1.03,1.03 0 0 1 -1.025,1.027 1.03,1.03 0 0 1 -1.029,-1.027 1.028,1.028 0 0 1 2.054,0 z m 0,5.127 a 1.03,1.03 0 0 1 -1.025,1.028 1.031,1.031 0 0 1 -1.029,-1.028 1.027,1.027 0 0 1 2.054,0 z m 0,5.129 c 0,0.567 -0.462,1.023 -1.025,1.023 a 1.025,1.025 0 1 1 0,-2.048 c 0.564,0 1.025,0.459 1.025,1.025 z m 0,5.128 a 1.027,1.027 0 0 1 -2.054,0 1.03,1.03 0 0 1 1.029,-1.028 1.03,1.03 0 0 1 1.025,1.028 z m -5.13,-24.613 a 1.025,1.025 0 1 1 -2.048,0 1.024,1.024 0 1 1 2.048,0 z m 0,5.124 a 1.024506,1.024506 0 1 1 -2.049,0.007 1.024506,1.024506 0 0 1 2.049,-0.007 z m 0,5.133 c 0,0.564 -0.456,1.023 -1.025,1.023 a 1.022,1.022 0 0 1 -1.023,-1.023 1.024,1.024 0 1 1 2.048,0 z m 0,5.128 a 1.025,1.025 0 0 1 -2.048,0 1.025,1.025 0 1 1 2.048,0 z m 0,5.124 a 1.0245031,1.0245031 0 1 1 -2.049,0.005 1.0245031,1.0245031 0 0 1 2.049,-0.005 z m 0,5.128 a 1.024,1.024 0 1 1 -2.048,0 1.024,1.024 0 1 1 2.048,0 z m -5.127,-29.569 a 1.025,1.025 0 1 1 -1.023,-1.029 c 0.564,0 1.023,0.462 1.023,1.029 z m 0,5.126 a 1.025,1.025 0 1 1 -2.05,0 1.025,1.025 0 0 1 2.05,0 z m 0,5.125 a 1.026,1.026 0 1 1 -2.051,0 1.0255,1.0255 0 0 1 2.051,0 z m 0,5.133 c 0,0.564 -0.459,1.022 -1.023,1.022 a 1.024,1.024 0 1 1 1.023,-1.022 z m 0,5.127 a 1.0260005,1.0260005 0 1 1 -2.052,-0.002 1.0260005,1.0260005 0 0 1 2.052,0.002 z m 0,5.125 a 1.026,1.026 0 1 1 -2.051,0 c 0,-0.565 0.458,-1.023 1.028,-1.023 a 1.022,1.022 0 0 1 1.023,1.023 z m 0,5.129 a 1.0265001,1.0265001 0 1 1 -2.053,10e-4 1.0265001,1.0265001 0 0 1 2.053,-10e-4 z m -5.127,-19.487 c 0,0.565 -0.458,1.029 -1.025,1.029 a 1.029,1.029 0 0 1 0,-2.056 c 0.567,0 1.025,0.464 1.025,1.027 z m 0,5.128 a 1.025,1.025 0 0 1 -2.05,0 c 0,-0.567 0.458,-1.022 1.025,-1.022 0.567,0 1.025,0.455 1.025,1.022 z m 0,5.13 c 0,0.564 -0.458,1.022 -1.025,1.022 a 1.0235,1.0235 0 1 1 0,-2.047 c 0.567,0 1.025,0.458 1.025,1.025 z m 0,5.127 a 1.0260005,1.0260005 0 1 1 -2.052,-0.002 1.0260005,1.0260005 0 0 1 2.052,0.002 z m 0,5.127 c 0,0.564 -0.458,1.026 -1.025,1.026 a 1.027,1.027 0 0 1 0,-2.051 c 0.567,0 1.025,0.459 1.025,1.025 z m -5.127,-24.615 z m 0,5.133 a 1.026,1.026 0 1 1 -2.051,-0.005 1.026,1.026 0 0 1 2.051,0.005 z m 0,5.123 c 0,0.568 -0.459,1.028 -1.029,1.028 -0.566,0 -1.022,-0.46 -1.022,-1.028 a 1.0255,1.0255 0 1 1 2.051,0 z m 0,5.128 z m 0,5.13 c 0,0.566 -0.459,1.023 -1.029,1.023 a 1.02,1.02 0 0 1 -1.022,-1.023 c 0,-0.567 0.456,-1.025 1.022,-1.025 a 1.023,1.023 0 0 1 1.029,1.025 z"
       id="path62"
       inkscape:connector-curvature="0" />
  </g>
  <g
     id="g72"
     style="clip-rule:evenodd;fill:#593e9b;fill-rule:evenodd"
     transform="translate(0,1.9059923e-4)">
    <path
       d="M 103.911,162.158 H 69.235 c -3.669,-0.008 -6.135,2.659 -6.135,5.856 0,3.197 2.46,5.834 6.14,5.834 h 34.665 c 3.681,-0.001 6.141,-2.638 6.141,-5.834 0,-3.198 -2.466,-5.864 -6.135,-5.856 z m -0.018,10.257 H 69.252 c -2.925,0.011 -4.703,-1.974 -4.703,-4.409 0,-2.435 1.789,-4.404 4.703,-4.41 h 34.641 c 2.915,0.005 4.704,1.974 4.704,4.41 0,2.435 -1.778,4.42 -4.704,4.409 z"
       id="path66"
       inkscape:connector-curvature="0" />
    <path
       d="m 71.8,169.079 -2.347,-3.837 h -1.696 v 5.504 h 1.685 v -3.838 l 2.359,3.838 h 1.681 v -5.504 h -1.683 z m 13.357,-1.987 v -0.543 h -0.886 v -0.741 h -1.639 l 0.002,0.741 h -0.891 v 0.543 h 0.89 l -10e-4,3.654 h 1.64 l -0.001,-3.654 z m -10.738,-0.006 h 1.637 v 3.66 h -1.637 z m -0.003,-1.846 h 1.641 v 1.126 h -1.641 z m 28.693,1.596 c -1.321,0 -2.392,0.92 -2.392,2.056 0,1.134 1.071,2.054 2.392,2.054 1.322,0 2.393,-0.92 2.393,-2.054 0,-1.136 -1.07,-2.056 -2.393,-2.056 z m 0.657,2.825 c 0,0.583 -0.34,0.824 -0.669,0.824 -0.328,0 -0.671,-0.241 -0.671,-0.824 l 0.001,-0.789 10e-4,-0.763 c 0,-0.581 0.342,-0.82 0.668,-0.82 0.326,0 0.669,0.239 0.669,0.82 l 0.001,0.779 z m -5.198,-2.394 c -0.262,-0.148 -0.538,-0.292 -0.927,-0.326 -1.179,-0.105 -2.082,0.95 -2.082,1.916 0,1.273 0.972,1.745 1.12,1.815 0.551,0.259 1.259,0.26 1.885,-0.137 l 0.001,0.211 h 1.618 v -5.503 h -1.616 c 0.001,-0.001 0.001,1.178 0.001,2.024 z m 0.012,1.63 v 0.649 c 0,0.566 -0.386,0.713 -0.641,0.713 -0.261,0 -0.642,-0.148 -0.642,-0.713 l 0.001,-0.65 -0.001,-0.653 c 0,-0.566 0.382,-0.71 0.642,-0.71 0.255,0 0.641,0.144 0.641,0.71 z m -18.691,-1.98 c -0.541,0.016 -0.992,0.25 -1.305,0.552 -0.002,-0.09 0,-0.384 0,-0.384 l -1.627,0.001 0.001,3.66 h 1.625 l -0.002,-2.404 c 0,-0.319 0.331,-0.674 0.778,-0.674 0.446,0 0.748,0.355 0.748,0.674 v 2.404 h 1.627 c 0,0 -10e-4,-1.734 0.001,-1.991 0.008,-1.451 -1.234,-1.856 -1.846,-1.838 z m 13.306,0 c -0.542,0.016 -0.992,0.25 -1.306,0.552 -0.003,-0.09 0,-0.384 0,-0.384 l -1.624,0.001 -0.001,3.66 h 1.625 l -0.003,-2.404 c 0,-0.319 0.333,-0.674 0.778,-0.674 0.446,0 0.748,0.355 0.748,0.674 v 2.404 h 1.626 c 0,0 -10e-4,-1.734 0.001,-1.991 0.009,-1.451 -1.233,-1.856 -1.844,-1.838 z m -3.428,2.014 c 0,-1.135 -1.084,-2.076 -2.415,-2.076 -1.331,0 -2.411,0.92 -2.411,2.054 0,1.136 1.08,2.056 2.411,2.056 1.105,0 2.037,-0.638 2.323,-1.502 l -1.632,0.001 10e-4,0.222 c 0,0.67 -0.435,0.819 -0.676,0.819 -0.242,0 -0.686,-0.149 -0.686,-0.819 l 0.002,-0.756 h 3.083 z m -2.976,-1.288 a 0.667,0.667 0 0 1 0.576,-0.333 h -0.001 0.001 a 0.663,0.663 0 0 1 0.575,0.333 c 0.104,0.184 0.11,0.398 0.108,0.718 h -1.367 c -0.003,-0.32 0.003,-0.534 0.108,-0.718 z m 19.547,-1.989 c 0,-0.247 -0.145,-0.356 -0.438,-0.356 h -0.473 v 1.253 h 0.188 v -0.544 h 0.215 l 0.328,0.544 h 0.209 l -0.352,-0.552 c 0.184,-0.023 0.323,-0.121 0.323,-0.345 z m -0.722,0.193 v -0.388 h 0.256 c 0.13,0 0.269,0.029 0.269,0.184 0,0.193 -0.142,0.204 -0.301,0.204 z"
       id="path68"
       inkscape:connector-curvature="0" />
    <path
       d="m 105.843,164.838 a 1.08,1.08 0 0 0 -1.092,1.084 c 0,0.63 0.501,1.09 1.092,1.09 0.586,0 1.086,-0.459 1.086,-1.09 0,-0.624 -0.5,-1.084 -1.086,-1.084 z m 0,1.991 c -0.491,0 -0.875,-0.385 -0.875,-0.908 0,-0.514 0.384,-0.902 0.875,-0.902 0.487,0 0.87,0.389 0.87,0.902 -10e-4,0.524 -0.383,0.908 -0.87,0.908 z"
       id="path70"
       inkscape:connector-curvature="0" />
  </g>
  <g
     id="g76"
     style="fill:#593e9b"
     transform="translate(0,1.9059923e-4)">
    <path
       d="m 46.205,5.519 c -0.207,0.096 -0.622,0.192 -1.154,0.192 -1.231,0 -2.159,-0.72 -2.159,-2.045 0,-1.265 0.928,-2.123 2.283,-2.123 0.544,0 0.888,0.108 1.037,0.18 L 46.076,2.149 A 2.206,2.206 0 0 0 45.193,1.981 c -1.024,0 -1.705,0.605 -1.705,1.667 0,0.989 0.616,1.625 1.68,1.625 0.344,0 0.693,-0.066 0.921,-0.168 z m 4.303,-1.931 c 0,1.391 -0.915,2.129 -2.03,2.129 -1.154,0 -1.965,-0.828 -1.965,-2.051 0,-1.283 0.862,-2.123 2.03,-2.123 1.192,0 1.965,0.846 1.965,2.045 z m -3.392,0.066 c 0,0.864 0.506,1.637 1.394,1.637 0.896,0 1.401,-0.762 1.401,-1.679 0,-0.803 -0.454,-1.643 -1.395,-1.643 -0.933,0 -1.4,0.798 -1.4,1.685 z m 7.803,0.222 A 27.653,27.653 0 0 1 54.854,2.131 h -0.02 c -0.148,0.474 -0.33,0.978 -0.551,1.535 L 53.512,5.627 H 53.083 L 52.376,3.702 A 17.732,17.732 0 0 1 51.87,2.131 h -0.013 a 50.274,50.274 0 0 1 -0.084,1.787 l -0.117,1.733 h -0.538 l 0.305,-4.042 h 0.72 l 0.746,1.955 c 0.182,0.498 0.331,0.941 0.441,1.361 h 0.02 c 0.109,-0.408 0.266,-0.852 0.46,-1.361 l 0.778,-1.955 h 0.72 l 0.272,4.042 h -0.552 z m 5.208,0 A 27.653,27.653 0 0 1 60.062,2.131 h -0.02 c -0.149,0.474 -0.33,0.978 -0.551,1.535 L 58.72,5.627 H 58.291 L 57.584,3.702 A 17.732,17.732 0 0 1 57.078,2.131 h -0.013 a 50.274,50.274 0 0 1 -0.084,1.787 l -0.117,1.733 h -0.538 l 0.305,-4.042 h 0.72 l 0.746,1.955 c 0.182,0.498 0.331,0.941 0.441,1.361 h 0.02 c 0.109,-0.408 0.266,-0.852 0.46,-1.361 l 0.778,-1.955 h 0.72 l 0.272,4.042 H 60.236 Z M 32.971,5.568 h 5.5 l -2.75,-3.875 z"
       id="path74"
       inkscape:connector-curvature="0" />
  </g>
  <path
     d="m 80.671,247.17619 c 0,1.135 -0.859,2.052 -1.92,2.052 h -11.03 c -1.063,0 -1.922,-0.917 -1.922,-2.052 v -0.51 c 0,-1.137 0.859,-2.056 1.922,-2.056 H 78.75 c 1.061,0 1.92,0.919 1.92,2.056 v 0.51 z m 26.676,0 c 0,1.135 -0.857,2.052 -1.917,2.052 H 94.397 c -1.058,0 -1.916,-0.917 -1.916,-2.052 v -0.51 c 0,-1.137 0.858,-2.056 1.916,-2.056 h 11.034 c 1.059,0 1.917,0.919 1.917,2.056 v 0.51 z"
     id="path78"
     inkscape:connector-curvature="0"
     style="fill:#2b2b2b" />
  <g
     id="g82"
     style="fill:#593e9b"
     transform="translate(0,1.9059923e-4)">
    <path
       d="m 64.538,254.168 c -0.406,-0.386 -0.799,-0.498 -1.121,-0.498 -0.441,0 -0.756,0.231 -0.756,0.567 0,0.918 2.065,0.903 2.065,2.424 0,0.749 -0.566,1.296 -1.337,1.296 -0.519,0 -0.938,-0.141 -1.338,-0.441 v -0.869 c 0.35,0.448 0.791,0.693 1.261,0.693 0.532,0 0.777,-0.336 0.777,-0.602 0,-0.988 -2.066,-1.1 -2.066,-2.409 0,-0.778 0.574,-1.275 1.45,-1.275 0.364,0 0.729,0.112 1.064,0.336 v 0.778 z m 3.648,-0.434 h -2.024 v 1.442 h 1.954 v 0.616 h -1.954 v 1.485 h 2.087 v 0.616 h -2.773 v -4.776 h 2.711 v 0.617 z m 1.468,3.544 h 2.157 v 0.616 h -2.844 v -4.776 h 0.687 z m 5.461,-3.544 h -2.024 v 1.442 h 1.954 v 0.616 h -1.954 v 1.485 h 2.087 v 0.616 h -2.773 v -4.776 h 2.711 v 0.617 z m 4.859,0.448 c -0.588,-0.344 -1.093,-0.497 -1.646,-0.497 -1.093,0 -1.905,0.777 -1.905,1.828 0,1.071 0.784,1.813 1.933,1.813 0.54,0 1.128,-0.189 1.667,-0.539 v 0.749 c -0.469,0.245 -0.98,0.421 -1.729,0.421 -1.793,0 -2.578,-1.38 -2.578,-2.382 0,-1.457 1.1,-2.521 2.62,-2.521 0.49,0 0.987,0.119 1.639,0.393 v 0.735 z m 4.472,-0.448 h -1.652 v 4.16 h -0.687 v -4.16 h -1.653 v -0.616 h 3.992 z"
       id="path80"
       inkscape:connector-curvature="0" />
  </g>
  <g
     id="g86"
     style="fill:#593e9b"
     transform="translate(0,1.9059923e-4)">
    <path
       d="m 93.251,254.171 c -0.406,-0.386 -0.799,-0.498 -1.121,-0.498 -0.441,0 -0.756,0.231 -0.756,0.567 0,0.918 2.066,0.903 2.066,2.424 0,0.749 -0.568,1.296 -1.338,1.296 -0.518,0 -0.939,-0.141 -1.338,-0.441 v -0.869 c 0.35,0.448 0.791,0.693 1.26,0.693 0.533,0 0.779,-0.336 0.779,-0.602 0,-0.988 -2.066,-1.1 -2.066,-2.409 0,-0.778 0.574,-1.275 1.449,-1.275 0.363,0 0.729,0.112 1.064,0.336 v 0.778 z m 4.523,-0.434 H 96.12 v 4.16 h -0.686 v -4.16 h -1.652 v -0.616 h 3.992 z m 4.088,4.16 h -0.701 l -0.637,-1.408 h -2.031 l -0.602,1.408 H 97.19 l 2.053,-4.805 h 0.482 z m -3.103,-2.024 h 1.486 l -0.771,-1.729 z m 4.846,-2.752 c 0.967,0 1.568,0.511 1.568,1.338 0,0.553 -0.287,0.966 -0.799,1.169 0.434,0.287 0.701,0.729 1.064,1.324 0.203,0.329 0.322,0.49 0.652,0.945 h -0.82 l -0.631,-0.98 c -0.629,-0.98 -0.916,-1.093 -1.268,-1.093 h -0.287 v 2.073 h -0.686 v -4.776 z m -0.52,2.087 h 0.441 c 0.736,0 0.945,-0.378 0.939,-0.777 -0.008,-0.448 -0.273,-0.722 -0.939,-0.722 h -0.441 z m 6.484,-1.471 h -1.654 v 4.16 h -0.686 v -4.16 h -1.652 v -0.616 h 3.992 z"
       id="path84"
       inkscape:connector-curvature="0" />
  </g>
  <g
     id="g106"
     transform="translate(0,1.9059923e-4)">
    <path
       d="m 223.104,156.348 h 129.729 v 25.773 H 223.104 Z"
       id="path88"
       inkscape:connector-curvature="0"
       style="fill:#a3a3a3" />
    <path
       d="m 336.187,158.391 h 18.03 v -3.885 c 0,-0.573 -0.466,-1.038 -1.038,-1.038 H 342.44 v -6.229 c 0,-0.573 -0.465,-1.038 -1.038,-1.038 H 222.758 c -0.573,0 -1.038,0.465 -1.038,1.038 v 11.153 h 17.455 a 14.694,14.694 0 0 0 -2.881,3.261 H 221.72 v 2.175 h 13.409 c -0.32,0.742 -0.578,1.516 -0.771,2.316 H 221.72 v 2.111 h 12.286 a 14.814,14.814 0 0 0 0.011,2.854 H 221.72 v 2.22 h 12.699 c 0.203,0.776 0.472,1.527 0.794,2.248 H 221.72 v 2.169 h 14.69 a 14.731,14.731 0 0 0 2.795,3.106 H 221.72 v 115.747 l 5.42,1.374 h 121.656 l 5.42,-1.374 V 180.852 h -18.059 a 14.731,14.731 0 0 0 2.795,-3.106 h 15.265 v -2.169 H 340.15 c 0.322,-0.721 0.591,-1.472 0.793,-2.248 h 13.274 v -2.22 h -12.872 c 0.05,-0.493 0.076,-0.994 0.076,-1.499 0,-0.457 -0.024,-0.909 -0.065,-1.355 h 12.861 v -2.111 h -13.212 a 14.568,14.568 0 0 0 -0.772,-2.316 h 13.984 v -2.175 h -15.149 a 14.677,14.677 0 0 0 -2.881,-3.262 z"
       id="path90"
       inkscape:connector-curvature="0"
       style="fill:#bcbcbc" />
    <path
       d="m 250.434,183.562 c -7.707,0 -13.953,-6.247 -13.953,-13.952 0,-7.707 6.247,-13.954 13.953,-13.954 h 74.495 c 7.706,0 13.954,6.247 13.954,13.954 0,7.706 -6.247,13.952 -13.954,13.952 z m 88.245,93.175 a 2.422,2.422 0 0 1 -2.422,2.421 h -97.499 a 2.423,2.423 0 0 1 -2.422,-2.421 v -86.025 a 2.423,2.423 0 0 1 2.422,-2.422 h 97.499 a 2.422,2.422 0 0 1 2.422,2.422 z m -42.292,5.39 c 1.237,0 1.522,1.188 0.721,1.989 -1.47,1.472 -8.85,9.37 -8.85,9.37 0,0 -0.346,0.389 -0.75,0.389 -0.431,0 -0.749,-0.389 -0.749,-0.389 0,0 -7.38,-7.898 -8.851,-9.37 -0.801,-0.8 -0.516,-1.989 0.721,-1.989 z m -69.246,15.846 -5.42,-1.374 V 208.73 h 5.075 c 0.191,0 0.346,0.154 0.346,0.345 v 88.898 z m 121.656,0 5.42,-1.374 V 208.73 h -5.074 a 0.346,0.346 0 0 0 -0.346,0.345 z"
       id="path92"
       inkscape:connector-curvature="0"
       style="fill:#a3a3a3" />
    <g
       id="g96"
       style="fill:#bcbcbc">
      <path
         d="m 324.673,172.677 v -2.621 h -0.979 v -0.351 h 2.355 v 0.351 h -0.984 v 2.621 z m 2.079,0 v -2.972 h 0.592 l 0.703,2.104 c 0.065,0.196 0.112,0.343 0.142,0.44 0.034,-0.108 0.087,-0.267 0.159,-0.476 l 0.711,-2.068 h 0.529 v 2.972 h -0.379 v -2.487 l -0.864,2.487 h -0.354 l -0.86,-2.53 v 2.53 z"
         id="path94"
         inkscape:connector-curvature="0" />
    </g>
    <g
       id="g100"
       style="clip-rule:evenodd;fill:#bcbcbc;fill-rule:evenodd">
      <path
         d="m 296.578,169.823 c 0.112,-0.202 0.229,-0.401 0.337,-0.604 0.612,-1.155 1.24,-2.302 1.821,-3.472 0.303,-0.532 0.133,-0.503 0.752,-0.446 0.395,0.036 0.387,0.008 0.4,0.411 0.028,0.933 0.068,1.865 0.101,2.798 0.015,0.396 0.024,0.793 0.038,1.19 l 0.104,2.744 c 0.003,0.074 0.001,0.148 0.001,0.234 h -1.035 l -0.161,-4.862 a 0.876,0.876 0 0 1 -0.06,-0.015 l -2.625,4.898 -0.064,-0.016 -1.228,-5.087 -0.056,-0.001 c -0.094,0.279 -0.19,0.558 -0.282,0.837 -0.453,1.375 -0.903,2.751 -1.361,4.124 -0.018,0.053 -0.085,0.126 -0.132,0.127 -0.327,0.012 -0.653,0.006 -1.007,0.006 l 0.293,-0.911 1.553,-4.795 c 0.165,-0.511 0.329,-1.023 0.488,-1.535 0.033,-0.108 0.088,-0.147 0.201,-0.142 0.198,0.009 0.398,0.013 0.596,-0.001 0.147,-0.01 0.205,0.045 0.238,0.184 0.21,0.897 0.43,1.794 0.645,2.691 0.131,0.543 0.259,1.087 0.388,1.63 z m 11.306,2.836 1.097,-7.38 c 0.108,-0.006 0.206,-0.017 0.302,-0.017 0.445,-0.002 0.889,0 1.334,0 0.763,-0.001 1.485,0.535 1.639,1.282 0.138,0.667 0.06,1.314 -0.396,1.868 -0.059,0.07 -0.111,0.147 -0.175,0.234 l 0.155,0.12 c 0.508,0.386 0.793,0.888 0.819,1.536 0.048,1.235 -0.811,2.267 -2.048,2.353 -0.878,0.063 -1.765,0.026 -2.646,0.031 -0.021,0 -0.043,-0.015 -0.081,-0.027 z m 1.933,-0.969 10e-4,0.018 c 0.272,-0.019 0.551,-0.012 0.818,-0.061 0.57,-0.109 1.013,-0.662 0.988,-1.197 -0.027,-0.601 -0.488,-1.124 -1.082,-1.192 -0.316,-0.037 -0.64,-0.022 -0.959,-0.039 -0.122,-0.006 -0.165,0.046 -0.18,0.157 -0.041,0.313 -0.09,0.623 -0.134,0.935 -0.056,0.392 -0.105,0.784 -0.161,1.177 -0.02,0.145 0.017,0.218 0.183,0.206 0.175,-0.014 0.351,-0.004 0.526,-0.004 z m 0.153,-3.481 c 0.653,-0.001 1.002,-0.199 1.231,-0.698 0.233,-0.504 0.029,-1.238 -0.67,-1.248 -0.151,-0.003 -0.303,0 -0.453,-0.017 -0.178,-0.021 -0.247,0.051 -0.268,0.225 -0.053,0.445 -0.123,0.887 -0.186,1.33 -0.058,0.408 -0.057,0.408 0.346,0.408 z m 9.392,-0.206 c -0.03,0.895 -0.286,1.726 -0.614,2.544 -0.274,0.677 -0.677,1.257 -1.26,1.692 -0.95,0.707 -2.471,0.769 -3.395,-0.065 -0.486,-0.438 -0.741,-0.999 -0.798,-1.644 -0.077,-0.883 0.111,-1.729 0.405,-2.553 0.206,-0.578 0.425,-1.15 0.806,-1.644 0.506,-0.659 1.175,-1.028 1.995,-1.143 0.572,-0.08 1.117,-0.01 1.621,0.287 0.614,0.362 0.985,0.904 1.134,1.592 0.064,0.305 0.073,0.623 0.106,0.934 z m -1.026,-0.144 c -0.027,-0.187 -0.041,-0.416 -0.097,-0.635 a 1.367,1.367 0 0 0 -0.735,-0.912 c -0.71,-0.358 -1.732,0.008 -2.201,0.643 -0.351,0.476 -0.568,1.016 -0.733,1.58 -0.189,0.643 -0.32,1.287 -0.235,1.963 0.091,0.723 0.622,1.281 1.438,1.279 0.668,-0.002 1.212,-0.312 1.59,-0.853 0.632,-0.904 0.921,-1.927 0.973,-3.065 z m -32.082,-1.511 c -0.698,-0.17 -1.382,-0.204 -2.057,-0.07 -1.064,0.211 -2.011,0.641 -2.563,1.647 a 3.13,3.13 0 0 0 -0.253,2.539 c 0.147,0.466 0.453,0.805 0.887,1.014 0.675,0.327 1.361,0.327 2.044,0.009 0.128,-0.06 0.214,-0.141 0.225,-0.301 0.016,-0.244 0.052,-0.487 0.092,-0.728 0.025,-0.144 -0.035,-0.171 -0.159,-0.168 -0.291,0.005 -0.583,0.002 -0.911,0.002 0.035,-0.27 0.067,-0.52 0.101,-0.772 0.033,-0.246 0.034,-0.246 0.283,-0.246 0.58,0 1.158,0.003 1.738,-0.001 0.12,-0.001 0.171,0.029 0.153,0.159 -0.111,0.768 -0.215,1.535 -0.329,2.304 a 0.467,0.467 0 0 1 -0.122,0.237 c -0.43,0.449 -0.984,0.636 -1.581,0.711 -0.646,0.081 -1.286,0.043 -1.881,-0.244 -0.926,-0.447 -1.493,-1.175 -1.639,-2.205 -0.104,-0.74 -0.064,-1.47 0.175,-2.18 0.298,-0.888 0.879,-1.553 1.651,-2.068 a 4.694,4.694 0 0 1 2.122,-0.755 6.325,6.325 0 0 1 1.898,0.067 c 0.273,0.051 0.277,0.046 0.239,0.323 -0.032,0.236 -0.072,0.471 -0.113,0.726 z m 19.305,6.328 h -4.74 c 0.35,-2.46 0.699,-4.903 1.047,-7.357 h 3.847 c -0.05,0.309 -0.095,0.611 -0.155,0.91 -0.005,0.028 -0.104,0.054 -0.159,0.054 -0.777,0.003 -1.555,0.009 -2.333,-10e-4 -0.189,-0.003 -0.264,0.045 -0.288,0.244 -0.065,0.562 -0.156,1.12 -0.237,1.68 -0.008,0.056 0,0.114 0,0.193 h 0.217 c 0.666,0 1.332,0.005 1.999,-0.003 0.153,-0.002 0.195,0.048 0.168,0.194 -0.052,0.274 -0.092,0.55 -0.14,0.843 h -0.199 c -0.672,0 -1.345,0.003 -2.017,-0.004 -0.149,-0.002 -0.22,0.037 -0.241,0.196 a 91.408,91.408 0 0 1 -0.272,1.869 c -0.024,0.155 0.025,0.201 0.183,0.201 1.087,-0.007 2.174,-0.003 3.262,-0.003 h 0.204 z m -13.945,0.012 c -0.338,0 -0.664,0.003 -0.989,-0.005 -0.032,-0.001 -0.082,-0.072 -0.09,-0.114 a 83.903,83.903 0 0 1 -0.294,-1.725 c -0.022,-0.145 -0.079,-0.196 -0.226,-0.195 -0.579,0.007 -1.158,0.01 -1.736,-0.002 -0.164,-0.003 -0.224,0.076 -0.28,0.202 -0.253,0.564 -0.513,1.125 -0.762,1.691 -0.042,0.097 -0.093,0.128 -0.195,0.127 -0.326,-0.005 -0.651,-0.001 -0.998,-0.001 0.193,-0.43 0.374,-0.839 0.56,-1.247 0.465,-1.019 0.933,-2.036 1.397,-3.055 0.445,-0.976 0.886,-1.955 1.337,-2.927 0.03,-0.065 0.134,-0.127 0.209,-0.133 0.215,-0.018 0.432,0.003 0.648,-0.01 0.135,-0.007 0.185,0.044 0.206,0.171 0.102,0.622 0.211,1.243 0.317,1.865 l 0.725,4.26 0.164,0.967 c 0.005,0.036 0.004,0.076 0.007,0.131 z m -1.974,-5.297 -0.053,-0.006 -1.017,2.225 c 0.045,0.023 0.06,0.036 0.075,0.037 l 1.262,0.005 c 0.112,0 0.113,-0.062 0.097,-0.154 -0.078,-0.453 -0.15,-0.909 -0.227,-1.363 -0.042,-0.247 -0.091,-0.495 -0.137,-0.744 z m 29.67,-2.119 c 0.294,0 0.551,0.024 0.803,-0.005 0.312,-0.036 0.456,0.094 0.591,0.369 0.35,0.718 0.742,1.415 1.12,2.12 0.013,0.024 0.032,0.046 0.066,0.09 0.131,-0.172 0.255,-0.33 0.376,-0.492 0.496,-0.664 0.991,-1.33 1.489,-1.992 0.034,-0.045 0.098,-0.094 0.15,-0.096 0.384,-0.007 0.769,-0.005 1.206,-0.005 -0.135,0.189 -0.244,0.35 -0.361,0.505 -0.779,1.028 -1.555,2.058 -2.341,3.083 -0.173,0.227 -0.156,0.496 -0.196,0.749 -0.152,0.979 -0.291,1.96 -0.432,2.941 -0.019,0.136 -0.067,0.2 -0.223,0.191 -0.284,-0.017 -0.568,-0.005 -0.879,-0.005 l 0.135,-0.918 c 0.135,-0.924 0.271,-1.846 0.397,-2.771 a 0.507,0.507 0 0 0 -0.071,-0.278 c -0.578,-1.099 -1.161,-2.197 -1.742,-3.295 -0.024,-0.048 -0.045,-0.096 -0.088,-0.191 z"
         id="path98"
         inkscape:connector-curvature="0" />
    </g>
    <g
       id="g104"
       style="fill:#bcbcbc">
      <path
         d="m 250.248,171.301 a 0.272,0.272 0 0 1 -0.081,-0.094 c -0.616,-0.995 -1.231,-1.991 -1.845,-2.987 -0.037,-0.061 -0.074,-0.085 -0.147,-0.085 -0.404,0.005 -0.809,0.002 -1.214,0.002 l -0.101,0.005 v 4.564 h 1.398 v -3.154 l 0.024,-0.007 0.061,0.094 c 0.618,0.994 1.236,1.989 1.851,2.984 0.042,0.068 0.086,0.092 0.165,0.092 0.394,-0.005 0.789,-0.003 1.184,-0.003 h 0.102 v -4.567 h -1.398 z m 22.517,-1.475 c -0.255,-0.139 -0.501,-0.251 -0.78,-0.271 -0.275,-0.02 -0.537,0.02 -0.786,0.138 -0.252,0.12 -0.459,0.292 -0.627,0.514 -0.414,0.549 -0.465,1.299 -0.073,1.845 0.594,0.829 1.374,0.927 2.262,0.5 0.004,0.053 0.008,0.103 0.01,0.151 h 1.343 v -4.562 h -1.349 z m -0.002,2.01 c -0.011,0.295 -0.254,0.493 -0.545,0.483 a 0.516,0.516 0 0 1 -0.523,-0.51 c -0.009,-0.213 -0.002,-0.427 -0.002,-0.641 h -10e-4 c 0,-0.197 -0.005,-0.394 10e-4,-0.593 0.009,-0.322 0.211,-0.526 0.523,-0.537 0.305,-0.009 0.537,0.181 0.549,0.496 0.017,0.434 0.016,0.869 -0.002,1.302 z m -14.553,-1.831 c -0.568,-0.584 -1.531,-0.624 -2.162,-0.092 l -0.101,0.079 v -0.308 h -1.345 v 3.024 h 1.34 c 0.002,-0.044 0.006,-0.085 0.006,-0.128 0,-0.595 -0.004,-1.191 0,-1.786 0,-0.096 0.015,-0.201 0.055,-0.286 0.125,-0.271 0.464,-0.414 0.769,-0.338 0.29,0.07 0.471,0.309 0.471,0.623 v 1.912 h 1.349 c 0.003,-0.017 0.006,-0.026 0.006,-0.036 0,-0.562 0.007,-1.125 -0.002,-1.688 -0.007,-0.37 -0.122,-0.704 -0.386,-0.976 z m 11.562,0.838 a 1.251,1.251 0 0 0 -0.458,-0.92 1.608,1.608 0 0 0 -2.076,-0.01 l -0.102,0.085 v -0.318 h -1.349 v 3.023 h 1.35 v -0.135 l -0.002,-1.807 c 0,-0.126 0.034,-0.239 0.109,-0.341 a 0.691,0.691 0 0 1 0.767,-0.237 c 0.273,0.092 0.42,0.307 0.42,0.621 l 0.001,1.777 c 0,0.041 0.004,0.082 0.007,0.123 h 1.338 c 0.004,-0.02 0.009,-0.034 0.009,-0.046 -0.002,-0.605 0.008,-1.211 -0.014,-1.815 z m 8.242,-0.865 c -0.79,-0.687 -2.096,-0.677 -2.886,0.02 -0.725,0.64 -0.737,1.675 -0.023,2.327 a 2.11,2.11 0 0 0 1.444,0.551 c 0.551,-0.003 1.021,-0.148 1.425,-0.474 0.804,-0.653 0.821,-1.745 0.04,-2.424 z m -0.873,1.19 h -0.01 c 0,0.26 0.012,0.52 -0.004,0.779 -0.019,0.346 -0.267,0.567 -0.593,0.554 -0.256,-0.01 -0.466,-0.208 -0.513,-0.489 a 1.343,1.343 0 0 1 -0.02,-0.236 c -10e-4,-0.405 -10e-4,-0.808 0.002,-1.213 0.001,-0.085 0.007,-0.172 0.025,-0.254 0.062,-0.3 0.295,-0.491 0.566,-0.476 0.289,0.016 0.505,0.237 0.537,0.547 0.004,0.046 0.01,0.092 0.01,0.138 z m -12.261,-1.064 a 2.098,2.098 0 0 0 -1.375,-0.611 c -0.621,-0.044 -1.18,0.116 -1.652,0.532 -0.315,0.277 -0.511,0.625 -0.54,1.051 -0.038,0.553 0.184,0.999 0.609,1.335 0.634,0.501 1.353,0.602 2.115,0.372 0.531,-0.16 0.945,-0.481 1.185,-0.997 0.019,-0.04 0.03,-0.082 0.045,-0.123 h -1.34 c -0.01,0.125 -0.012,0.243 -0.029,0.359 -0.04,0.287 -0.258,0.491 -0.525,0.5 -0.292,0.011 -0.537,-0.158 -0.58,-0.452 -0.041,-0.281 -0.031,-0.569 -0.043,-0.868 h 2.6 c 0,-0.049 0.003,-0.085 -0.001,-0.12 a 1.576,1.576 0 0 0 -0.469,-0.978 z m -1.311,0.634 c -0.234,0 -0.467,-0.003 -0.701,0.002 -0.089,0.002 -0.117,-0.028 -0.107,-0.113 0.013,-0.107 0.007,-0.218 0.028,-0.324 a 0.56,0.56 0 0 1 1.106,0.018 c 0.021,0.132 0.021,0.266 0.032,0.416 z m -2.099,-1.513 h -0.737 v -0.61 h -1.375 v 0.611 h -0.114 c -0.182,0.001 -0.363,-0.001 -0.543,0.004 -0.029,0.001 -0.081,0.031 -0.082,0.05 -0.007,0.127 -0.004,0.255 -0.004,0.393 h 0.749 v 3.033 h 1.373 v -3.036 h 0.733 z m -9.009,3.482 h 1.357 v -3.025 h -1.357 z m 1.356,-4.563 h -1.363 v 0.911 h 1.363 z"
         id="path102"
         inkscape:connector-curvature="0" />
    </g>
  </g>
  <g
     id="g249"
     transform="translate(0,1.9059923e-4)">
    <path
       d="M 692.458,64.573 H 403.983 a 0.694,0.694 0 0 1 -0.692,-0.692 V 42.675 a 4.326,4.326 0 0 1 4.313,-4.313 h 281.232 a 4.326,4.326 0 0 1 4.313,4.313 v 21.208 a 0.694,0.694 0 0 1 -0.691,0.69 z"
       id="path108"
       inkscape:connector-curvature="0"
       style="fill:#c3bab1" />
    <path
       d="m 404.733,64.573 h 286.972 v 0.69 H 404.733 Z"
       id="path110"
       inkscape:connector-curvature="0"
       style="fill:#97907e" />
    <path
       d="m 404.733,65.263 h 286.972 v 0.69 H 404.733 Z"
       id="path112"
       inkscape:connector-curvature="0"
       style="fill:#b0aa9c" />
    <path
       d="M 692.444,93.318 H 403.995 a 0.706,0.706 0 0 1 -0.704,-0.704 V 66.657 c 0,-0.387 0.317,-0.704 0.704,-0.704 h 288.449 c 0.387,0 0.704,0.317 0.704,0.704 v 25.957 a 0.706,0.706 0 0 1 -0.704,0.704 z"
       id="path114"
       inkscape:connector-curvature="0"
       style="fill:#c3bab1" />
    <path
       d="m 404.733,93.318 h 286.972 v 0.723 H 404.733 Z"
       id="path116"
       inkscape:connector-curvature="0"
       style="fill:#97907e" />
    <path
       d="m 404.733,94.041 h 286.972 v 0.723 H 404.733 Z"
       id="path118"
       inkscape:connector-curvature="0"
       style="fill:#b0aa9c" />
    <path
       d="M 692.393,126.26 H 404.046 a 0.758,0.758 0 0 1 -0.755,-0.755 V 95.52 c 0,-0.415 0.34,-0.755 0.755,-0.755 h 288.347 c 0.415,0 0.755,0.34 0.755,0.755 v 29.985 c 0,0.415 -0.34,0.755 -0.755,0.755 z"
       id="path120"
       inkscape:connector-curvature="0"
       style="fill:#c3bab1" />
    <path
       d="m 404.733,126.26 h 286.972 v 0.723 H 404.733 Z"
       id="path122"
       inkscape:connector-curvature="0"
       style="fill:#97907e" />
    <path
       d="m 404.733,126.984 h 286.972 v 0.723 H 404.733 Z"
       id="path124"
       inkscape:connector-curvature="0"
       style="fill:#b0aa9c" />
    <path
       d="M 692.444,155.072 H 403.995 a 0.706,0.706 0 0 1 -0.704,-0.704 v -25.957 c 0,-0.387 0.317,-0.704 0.704,-0.704 h 288.449 c 0.387,0 0.704,0.317 0.704,0.704 v 25.957 a 0.706,0.706 0 0 1 -0.704,0.704 z"
       id="path126"
       inkscape:connector-curvature="0"
       style="fill:#c3bab1" />
    <path
       d="m 404.733,155.068 h 286.972 v 0.723 H 404.733 Z"
       id="path128"
       inkscape:connector-curvature="0"
       style="fill:#97907e" />
    <path
       d="m 404.733,155.791 h 286.972 v 0.723 H 404.733 Z"
       id="path130"
       inkscape:connector-curvature="0"
       style="fill:#b0aa9c" />
    <path
       d="M 692.444,183.879 H 403.995 a 0.706,0.706 0 0 1 -0.704,-0.704 v -25.957 c 0,-0.387 0.317,-0.704 0.704,-0.704 h 288.449 c 0.387,0 0.704,0.317 0.704,0.704 v 25.957 a 0.706,0.706 0 0 1 -0.704,0.704 z"
       id="path132"
       inkscape:connector-curvature="0"
       style="fill:#c3bab1" />
    <path
       d="m 404.733,183.879 h 286.972 v 0.723 H 404.733 Z"
       id="path134"
       inkscape:connector-curvature="0"
       style="fill:#97907e" />
    <path
       d="m 404.733,184.603 h 286.972 v 0.723 H 404.733 Z"
       id="path136"
       inkscape:connector-curvature="0"
       style="fill:#b0aa9c" />
    <path
       d="M 692.444,212.691 H 403.995 a 0.706,0.706 0 0 1 -0.704,-0.704 V 186.03 c 0,-0.387 0.317,-0.704 0.704,-0.704 h 288.449 c 0.387,0 0.704,0.317 0.704,0.704 v 25.957 a 0.706,0.706 0 0 1 -0.704,0.704 z"
       id="path138"
       inkscape:connector-curvature="0"
       style="fill:#c3bab1" />
    <path
       d="m 404.733,212.691 h 286.972 v 0.723 H 404.733 Z"
       id="path140"
       inkscape:connector-curvature="0"
       style="fill:#97907e" />
    <path
       d="m 404.733,213.415 h 286.972 v 0.723 H 404.733 Z"
       id="path142"
       inkscape:connector-curvature="0"
       style="fill:#b0aa9c" />
    <path
       d="M 692.444,241.503 H 403.995 a 0.706,0.706 0 0 1 -0.704,-0.704 v -25.957 c 0,-0.387 0.317,-0.704 0.704,-0.704 h 288.449 c 0.387,0 0.704,0.317 0.704,0.704 v 25.957 a 0.706,0.706 0 0 1 -0.704,0.704 z"
       id="path144"
       inkscape:connector-curvature="0"
       style="fill:#c3bab1" />
    <path
       d="m 404.733,241.503 h 286.972 v 0.723 H 404.733 Z"
       id="path146"
       inkscape:connector-curvature="0"
       style="fill:#97907e" />
    <path
       d="m 404.733,242.226 h 286.972 v 0.723 H 404.733 Z"
       id="path148"
       inkscape:connector-curvature="0"
       style="fill:#b0aa9c" />
    <path
       d="M 692.444,270.315 H 403.995 a 0.706,0.706 0 0 1 -0.704,-0.704 v -25.957 c 0,-0.387 0.317,-0.704 0.704,-0.704 h 288.449 c 0.387,0 0.704,0.317 0.704,0.704 v 25.957 a 0.706,0.706 0 0 1 -0.704,0.704 z"
       id="path150"
       inkscape:connector-curvature="0"
       style="fill:#c3bab1" />
    <path
       d="m 404.733,270.315 h 286.972 v 0.723 H 404.733 Z"
       id="path152"
       inkscape:connector-curvature="0"
       style="fill:#97907e" />
    <path
       d="m 404.733,271.038 h 286.972 v 0.723 H 404.733 Z"
       id="path154"
       inkscape:connector-curvature="0"
       style="fill:#b0aa9c" />
    <path
       d="M 692.458,271.762 H 403.983 a 0.694,0.694 0 0 0 -0.692,0.692 v 21.206 a 4.326,4.326 0 0 0 4.313,4.313 h 281.232 a 4.326,4.326 0 0 0 4.313,-4.313 v -21.208 a 0.694,0.694 0 0 0 -0.691,-0.69 z"
       id="path156"
       inkscape:connector-curvature="0"
       style="fill:#c3bab1" />
    <path
       d="m 481.758,31.306 v 60.373 c 0,18.968 18.645,17.799 63.496,19.75 2.081,0.09 4.173,0.09 6.254,0 44.851,-1.951 63.496,-0.782 63.496,-19.75 V 31.306 h 32.326 c 0.946,0 1.72,0.774 1.72,1.72 v 263.227 c 0,0.946 -0.774,1.72 -1.72,1.72 H 449.11 c -0.946,0 -1.72,-0.774 -1.72,-1.72 V 33.026 c 0,-0.946 0.774,-1.72 1.72,-1.72 z"
       id="path158"
       inkscape:connector-curvature="0"
       style="fill:#bcb4ad" />
    <g
       id="g176">
      <path
         d="M 615.003,31.306 H 481.758 v 60.373 c 0,18.968 18.645,17.799 63.496,19.75 2.08,0.09 4.173,0.09 6.254,0 44.851,-1.951 63.496,-0.782 63.496,-19.75 V 31.306 Z"
         id="path160"
         inkscape:connector-curvature="0"
         style="fill:#c9c2bd" />
      <path
         d="m 548.381,111.497 c 1.043,0 2.087,-0.023 3.127,-0.068 29.586,-1.287 47.769,-1.216 56.719,-6.464 l -10e-4,-12.783 a 0.31,0.31 0 0 0 -0.428,-0.295 c -9.744,3.999 -29.398,6.081 -56.289,7.251 a 72.385,72.385 0 0 1 -6.254,0 c -26.891,-1.17 -46.546,-3.252 -56.289,-7.251 a 0.31,0.31 0 0 0 -0.428,0.295 l -0.001,12.783 c 8.95,5.248 27.132,5.177 56.719,6.464 1.038,0.045 2.082,0.068 3.125,0.068 z"
         id="path162"
         inkscape:connector-curvature="0"
         style="fill:#363932" />
      <path
         d="M 519.126,97.471 V 31.306 h -3.909 v 65.782 c 1.27,0.133 2.573,0.26 3.909,0.383 z m 58.51,0 V 31.306 h 3.909 v 65.782 c -1.27,0.133 -2.574,0.26 -3.909,0.383 z"
         id="path164"
         inkscape:connector-curvature="0"
         style="fill:#bcb5b1" />
      <g
         id="g168"
         style="fill:#33352e">
        <path
           d="m 515.217,110.117 c 1.264,0.077 2.567,0.148 3.909,0.217 v 0.003 -12.866 c -1.336,-0.123 -2.639,-0.25 -3.909,-0.383 m 66.328,13.029 c -1.264,0.077 -2.567,0.148 -3.909,0.217 v 0.003 -12.866 c 1.336,-0.123 2.639,-0.25 3.909,-0.383"
           id="path166"
           inkscape:connector-curvature="0" />
      </g>
      <g
         id="g174">
        <g
           id="g172"
           style="fill:#a5a19f">
          <path
             d="m 538.081,49.413 h 20.599 v 0.535 h -20.599 z m 0,1.453 h 12.191 v 0.535 h -12.191 z m 0,1.401 h 8.714 v 0.535 h -8.714 z m 0,1.376 h 6.344 v 0.535 h -6.344 z m 0,1.364 h 4.572 v 0.535 h -4.572 z m 0,1.362 h 2.737 v 0.535 h -2.737 z m 0,1.39 h 1.369 v 0.535 h -1.369 z m 0,1.361 h 0.459 v 0.535 h -0.459 z m 14.695,-8.254 h 5.905 v 0.535 h -5.905 z m -3.65,1.401 h 9.554 v 0.535 h -9.554 z m -2.331,1.376 h 11.886 v 0.535 h -11.886 z m -1.796,1.364 h 13.682 v 0.535 h -13.682 z m 12.344,1.362 h 1.338 v 0.535 h -1.338 z m -7.338,0 h 5.026 v 0.535 h -5.026 z m -6.86,0 h 4.548 v 0.535 h -4.548 z m 14.198,1.376 h 1.338 v 0.535 h -1.338 z m -7.338,0 h 2.733 v 0.535 h -2.733 z m -8.255,0 h 3.669 v 0.535 h -3.669 z m 14.676,1.375 h 2.255 v 0.535 h -2.255 z m -7.3,0 h 1.758 v 0.535 h -1.758 z m -8.307,0 h 2.766 v 0.535 h -2.766 z m 14.67,1.357 h 3.191 v 0.535 h -3.191 z m -7.337,0 h 1.854 v 0.535 h -1.854 z m -8.702,0 h 3.203 v 0.535 h -3.203 z m 14.702,1.395 h 4.529 v 0.535 h -4.529 z m -7.357,0 h 2.255 v 0.535 h -2.255 z m -8.255,0 h 3.18 v 0.535 h -3.18 z m -0.459,2.771 h 20.599 v 0.535 H 538.081 Z M 555.967,66 h 2.713 v 0.535 h -2.713 z m -8.255,0 h 4.051 v 0.535 h -4.051 z m 7.357,1.356 h 3.592 v 0.535 h -3.592 z m -7.796,0 h 2.733 v 0.535 h -2.733 z m 6.879,1.395 h 4.51 v 0.535 h -4.51 z m -7.816,0 h 2.752 v 0.535 h -2.752 z m 6.879,1.357 h 5.465 v 0.535 h -5.465 z m -7.777,0 h 2.713 v 0.535 h -2.713 z m 6.421,1.395 h 6.822 v 0.535 h -6.822 z m -7.816,0 h 3.229 v 0.535 h -3.229 z m 5.504,1.357 h 9.134 v 0.535 h -9.134 z m -7.338,0 h 5.064 v 0.535 h -5.064 z m -4.128,1.382 h 20.599 v 0.535 h -20.599 z m 14.657,-10.994 h 5.943 v 0.535 h -5.943 z m -14.641,0 h 3.18 v 0.535 h -3.18 z m 7.322,0 h 3.21 v 0.535 h -3.21 z M 538.097,66 h 6.367 v 0.535 h -6.367 z m -0.016,1.356 h 4.605 v 0.535 h -4.605 z m 0,1.395 h 3.196 v 0.535 h -3.196 z m 0.016,1.357 h 1.8 v 0.535 h -1.8 z m 0,1.395 h 1.341 v 0.535 h -1.341 z m 0,1.357 h 0.9 v 0.535 h -0.9 z"
             id="path170"
             inkscape:connector-curvature="0" />
        </g>
      </g>
    </g>
    <g
       id="g206">
      <circle
         cx="668.75"
         cy="283.54501"
         r="5.4089999"
         id="circle178"
         style="fill:#2b2726" />
      <path
         d="m 664.396,285.086 0.843,-4.541 4.354,-1.541 3.511,3 -0.842,4.541 -4.354,1.541 z"
         id="path180"
         inkscape:connector-curvature="0"
         style="fill:#544237" />
      <path
         d="m 664.832,284.931 0.758,-4.086 3.919,-1.387 3.16,2.7 -0.758,4.087 -3.919,1.387 z"
         id="path182"
         inkscape:connector-curvature="0"
         style="fill:#817054" />
      <circle
         cx="668.75"
         cy="106.932"
         r="5.4089999"
         id="circle184"
         style="fill:#2b2726" />
      <path
         d="m 664.396,108.473 0.843,-4.541 4.354,-1.541 3.511,3 -0.842,4.541 -4.354,1.541 z"
         id="path186"
         inkscape:connector-curvature="0"
         style="fill:#544237" />
      <path
         d="m 664.832,108.319 0.758,-4.087 3.919,-1.387 3.16,2.7 -0.758,4.087 -3.919,1.387 z"
         id="path188"
         inkscape:connector-curvature="0"
         style="fill:#817054" />
      <g
         id="g196">
        <circle
           cx="427.68799"
           cy="283.54501"
           r="5.4089999"
           id="circle190"
           style="fill:#2b2726" />
        <path
           d="m 432.042,285.086 -0.843,-4.541 -4.353,-1.541 -3.512,3 0.843,4.541 4.354,1.541 z"
           id="path192"
           inkscape:connector-curvature="0"
           style="fill:#544237" />
        <path
           d="m 431.607,284.931 -0.759,-4.086 -3.918,-1.387 -3.16,2.7 0.758,4.087 3.918,1.387 z"
           id="path194"
           inkscape:connector-curvature="0"
           style="fill:#817054" />
      </g>
      <g
         id="g204">
        <circle
           cx="427.68799"
           cy="106.932"
           r="5.4089999"
           id="circle198"
           style="fill:#2b2726" />
        <path
           d="m 432.042,108.473 -0.843,-4.541 -4.353,-1.541 -3.512,3 0.843,4.541 4.354,1.541 z"
           id="path200"
           inkscape:connector-curvature="0"
           style="fill:#544237" />
        <path
           d="m 431.607,108.319 -0.759,-4.087 -3.918,-1.387 -3.16,2.7 0.758,4.087 3.918,1.387 z"
           id="path202"
           inkscape:connector-curvature="0"
           style="fill:#817054" />
      </g>
    </g>
    <linearGradient
       id="a"
       gradientUnits="userSpaceOnUse"
       x1="548.21899"
       y1="274.75601"
       x2="548.21899"
       y2="223.155">
      <stop
         offset="0"
         stop-color="#bcb4ad"
         id="stop208" />
      <stop
         offset=".421"
         stop-color="#b3aba4"
         id="stop210" />
      <stop
         offset=".611"
         stop-color="#ada59e"
         id="stop212" />
      <stop
         offset="1"
         stop-color="#ada59e"
         id="stop214" />
    </linearGradient>
    <path
       d="m 520.434,223.155 h 55.571 v 51.601 h -55.571 z"
       id="path217"
       inkscape:connector-curvature="0"
       style="fill:url(#a)" />
    <g
       id="g223">
      <g
         id="g221"
         style="fill:#726f68">
        <path
           d="m 522.608,223.155 h -2.174 v 51.601 c 1.648,-16.396 3.571,-33.671 2.174,-51.601 z m 51.223,0 h 2.174 v 51.601 c -1.648,-16.396 -3.571,-33.671 -2.174,-51.601 z"
           id="path219"
           inkscape:connector-curvature="0" />
      </g>
    </g>
    <path
       d="m 641.629,297.973 v -70.285 c 0,-3.043 -2.457,-5.533 -5.46,-5.533 H 460.27 c -3.003,0 -5.46,2.49 -5.46,5.533 v 70.285 l 0.589,-69.358 c 0,-3.003 2.442,-5.46 5.426,-5.46 h 174.79 c 2.984,0 5.426,2.457 5.426,5.46 z"
       id="path225"
       inkscape:connector-curvature="0"
       style="fill:#5b5b5b" />
    <g
       id="g245">
      <path
         d="M 635.051,187.93 H 461.387 c -3.443,0 -6.259,-2.817 -6.259,-6.259 v -52.805 c 0,-3.443 2.817,-6.259 6.259,-6.259 h 173.664 c 3.443,0 6.259,2.817 6.259,6.259 v 52.805 c 0,3.442 -2.816,6.259 -6.259,6.259 z"
         id="path227"
         inkscape:connector-curvature="0"
         style="fill:#ffffff" />
      <g
         id="g237"
         style="fill:#000099">
        <path
           d="m 617.089,178.871 a 1.444,1.444 0 1 0 0,2.888 1.443,1.443 0 0 0 1.44,-1.444 v -0.004 a 1.44,1.44 0 0 0 -1.44,-1.44 v -0.199 c 0.906,0 1.637,0.736 1.637,1.638 a 1.64,1.64 0 0 1 -1.632,1.646 h -0.005 a 1.642,1.642 0 1 1 0,-3.284 z"
           id="path229"
           inkscape:connector-curvature="0" />
        <path
           d="m 616.584,179.56 h 0.525 c 0.229,0 0.477,0.035 0.477,0.319 0,0.374 -0.399,0.33 -0.657,0.33 h -0.345 v 0.177 h 0.413 l 0.525,0.846 h 0.266 l -0.555,-0.846 c 0.327,-0.009 0.581,-0.142 0.581,-0.503 0,-0.155 -0.069,-0.318 -0.207,-0.395 -0.137,-0.082 -0.291,-0.09 -0.447,-0.09 h -0.799 v 1.835 h 0.223 z m -12.848,-24.053 h 6.593 l 3.257,7.487 4.882,-7.487 h 6.756 l -9.523,14.812 -1.547,11.557 h -6.104 l 1.79,-13.184 z m -48.507,26.368 0.814,-5.861 h -9.277 l 0.569,-4.557 h 8.056 l 0.814,-5.86 h -7.975 l 0.569,-4.232 h 9.277 l 0.895,-5.859 H 543.59 l -3.663,26.368 z m -54.774,-13.022 2.035,-5.452 0.651,5.452 z m -2.197,5.209 h 5.534 l 0.977,7.813 h 10.011 l 4.639,-14.324 2.279,14.324 h 5.29 l 5.86,-15.137 0.977,15.137 h 5.86 l -1.627,-26.369 h -6.999 l -5.452,13.917 -2.117,-13.917 h -6.266 l -7.162,21.649 -2.686,-21.649 h -7.813 l -8.708,21.893 1.139,-8.546 h -10.581 l -0.733,5.209 h 4.639 l -0.325,1.791 c -0.814,0.489 -2.685,0.57 -3.418,0.57 -0.732,0 -6.185,-0.489 -5.941,-6.348 0.244,-5.861 8.057,-11.313 17.335,-8.301 l 0.895,-5.616 c -6.186,-2.116 -22.431,-0.931 -24.091,13.591 -0.976,8.546 6.837,12.616 12.046,12.535 3.011,0.163 6.429,-0.977 7.65,-1.628 l -0.407,1.22 h 6.186 z"
           id="path231"
           inkscape:connector-curvature="0" />
        <path
           d="m 597.144,155.262 c -4.232,-0.163 -10.337,2.279 -12.371,12.127 -2.036,9.848 3.418,13.835 8.463,14.486 5.047,0.652 12.127,-2.523 13.43,-11.963 1.302,-9.441 -3.337,-14.405 -9.522,-14.65 z m -0.651,5.616 c 1.71,0 5.371,1.139 4.476,7.975 -0.895,6.837 -5.128,7.651 -6.673,7.489 -1.547,-0.163 -4.721,-1.22 -3.827,-7.489 0.896,-6.265 4.233,-8.056 6.024,-7.975 z"
           id="path233"
           inkscape:connector-curvature="0" />
        <path
           d="m 571.427,165.598 h 3.416 c 2.523,0 3.013,-1.627 3.094,-2.279 0.081,-0.651 -0.651,-1.954 -1.953,-1.954 h -3.988 z m -1.466,10.417 h 4.639 c 2.523,0 3.094,-1.953 3.175,-2.604 0.081,-0.65 -0.651,-1.953 -1.953,-1.953 h -5.209 z m -6.838,5.86 3.662,-26.369 h 11.232 c 2.685,0 6.593,3.093 6.104,7.243 -0.487,4.151 -1.791,4.395 -2.685,5.046 1.382,1.222 2.767,3.174 2.198,6.837 -0.57,3.662 -3.583,7.243 -8.873,7.243 z"
           id="path235"
           inkscape:connector-curvature="0" />
      </g>
      <path
         d="m 491.406,138.307 c 3.753,1.033 7.525,2.002 11.235,3.187 1.058,0.338 2.129,0.648 3.067,1.283 0.703,0.476 1.327,1.013 1.662,1.82 0.626,1.226 0.67,2.494 0.223,3.775 -0.223,0.638 -0.696,1.085 -1.292,1.405 -1.14,0.613 -2.367,0.983 -3.613,1.295 -3.288,0.823 -6.639,1.293 -9.995,1.722 -2.967,0.379 -5.941,0.702 -8.919,0.975 -2.366,0.217 -4.732,0.445 -7.103,0.613 -1.573,0.112 -3.147,0.236 -4.718,0.381 -0.315,0.029 -0.592,-0.005 -0.816,-0.246 -0.84,-0.723 -1.171,-2.443 -0.656,-3.429 0.18,-0.344 0.447,-0.597 0.835,-0.683 a 6.633,6.633 0 0 1 2.71,-0.03 c 0.296,0.056 0.546,0.205 0.632,0.483 0.096,0.311 0.276,0.324 0.543,0.304 8.391,-0.632 16.756,-1.476 25.023,-3.1 1.621,-0.318 3.229,-0.698 4.791,-1.242 0.289,-0.101 0.777,-0.214 0.809,-0.443 0.099,-0.49 -0.44,-0.777 -0.883,-0.948 -1.666,-0.643 -3.372,-1.167 -5.081,-1.682 a 205.063,205.063 0 0 0 -8.104,-2.284 c -0.713,-0.183 -1.265,-0.492 -1.861,-1.074 -1.058,-1.249 -1.405,-2.746 -1.442,-4.334 -0.013,-0.546 0.372,-0.916 0.757,-1.245 0.512,-0.438 1.111,-0.74 1.711,-1.034 2.777,-1.362 5.691,-2.331 8.695,-3.056 3.416,-0.825 6.853,-1.501 10.372,-1.669 1.884,-0.09 3.741,0.112 5.585,0.498 1.204,0.251 2.209,0.741 2.719,1.944 0.465,0.811 0.629,1.689 0.602,2.615 -0.03,1.042 -0.422,1.906 -1.237,2.563 -1.311,1.057 -2.783,1.825 -4.37,2.374 -0.294,0.102 -0.52,0.158 -0.906,0.002 -0.395,-0.172 -0.583,-0.475 -0.68,-0.918 -0.037,-0.171 -0.051,-0.329 -0.069,-0.495 -0.142,-1.319 0.134,-2.107 1.643,-2.372 1.075,-0.188 2.087,-0.624 3.052,-1.146 0.178,-0.096 0.463,-0.265 0.473,-0.37 0.083,-0.399 -0.342,-0.71 -0.751,-0.88 -1.026,-0.428 -2.116,-0.552 -3.199,-0.717 -1.938,-0.295 -3.854,-0.024 -5.764,0.256 -4.111,0.601 -8.132,1.569 -12.019,3.052 a 36.087,36.087 0 0 0 -3.868,1.718 c -0.082,0.043 -0.166,0.085 -0.243,0.135 -0.158,0.104 -0.318,0.218 -0.31,0.43 0.01,0.239 0.227,0.393 0.76,0.567 z m 72.154,1.725 c -0.556,-1.46 -1.572,-2.011 -3.107,-1.671 -4.365,0.965 -8.453,2.634 -12.325,4.843 -1.09,0.591 -2.385,1.321 -3.197,1.882 0.783,-0.722 1.581,-1.741 2.467,-2.678 1.004,-1.063 1.991,-2.142 2.99,-3.21 0.115,-0.122 0.229,-0.247 0.206,-0.436 -0.363,-0.629 -0.825,-1.184 -1.282,-1.745 -0.272,-0.333 -0.567,-0.411 -0.977,-0.253 -0.851,0.329 -1.648,0.763 -2.436,1.213 -3.399,1.939 -6.667,4.094 -10.016,6.116 -2.061,1.244 -4.086,2.555 -6.314,3.499 -0.319,0.101 -0.883,0.251 -1.048,0.007 -0.159,-0.235 0.107,-0.48 0.246,-0.684 1.138,-1.673 2.479,-3.179 3.843,-4.669 1.001,-1.094 2.046,-2.142 3.089,-3.193 0.104,-0.105 0.214,-0.207 0.241,-0.364 -0.407,-0.595 -0.835,-1.177 -1.214,-1.79 -0.242,-0.39 -0.39,-0.475 -0.809,-0.138 -6.261,5.033 -12.971,9.325 -20.48,12.28 -0.945,0.311 -1.234,0.261 -1.35,0.048 -0.101,-0.184 0.057,-0.312 0.172,-0.428 1.115,-1.116 2.182,-2.283 3.357,-3.332 2.519,-2.248 5.158,-4.351 7.851,-6.388 0.207,-0.156 0.43,-0.298 0.51,-0.569 -0.465,-0.669 -0.94,-1.331 -1.388,-2.011 -0.175,-0.265 -0.299,-0.292 -0.554,-0.086 -0.967,0.784 -1.964,1.531 -2.929,2.318 -2.898,2.361 -5.762,4.76 -8.207,7.609 -0.642,0.748 -1.228,1.537 -1.658,2.434 -0.301,0.628 -0.347,1.225 0.017,1.854 0.298,0.516 0.595,1.026 0.998,1.468 0.541,0.63 1.254,0.669 1.992,0.542 a 8.544,8.544 0 0 0 1.658,-0.475 c 3.139,-1.226 6.117,-2.778 9.045,-4.434 a 108.192,108.192 0 0 0 3.029,-1.776 c -0.166,0.608 -0.327,1.022 -0.569,1.658 -0.109,0.451 -0.171,0.899 0.043,1.341 0.186,0.384 0.497,0.675 0.744,1.014 0.532,0.642 1.214,0.868 2.031,0.758 0.595,-0.08 1.157,-0.263 1.705,-0.495 a 106.984,106.984 0 0 0 12.132,-6.085 c -0.675,0.627 -7.803,8.93 -10.284,12.396 -0.775,1.082 -0.864,1.558 -0.156,2.27 1.043,0.892 1.483,1.011 2.083,0.338 1.483,-1.664 2.959,-3.329 4.606,-4.842 a 120.256,120.256 0 0 1 4.145,-3.641 c 0.394,-0.33 0.681,-0.365 1.11,-0.046 1.343,1.001 2.875,1.444 4.549,1.405 1.745,-0.041 3.368,-0.555 4.926,-1.291 3.721,-1.758 6.808,-4.362 9.647,-7.289 0.404,-0.417 0.74,-0.897 0.908,-1.457 0.176,-0.6 0.301,-1.218 -0.04,-1.817 z m -4.032,2.519 c -2.451,2.348 -5.073,4.461 -8.234,5.794 -1.524,0.643 -3.1,1.032 -4.766,0.562 a 4.399,4.399 0 0 1 -0.968,-0.414 c -0.304,-0.168 -0.252,-0.279 0.003,-0.455 4.571,-3.168 9.462,-5.649 14.893,-6.979 0.108,-0.026 0.218,-0.045 0.329,-0.06 0.03,-0.004 0.131,-0.015 0.131,0.045 -0.39,0.581 -0.896,1.038 -1.388,1.507 z m 67.14,6.496 c -0.263,-0.716 -0.543,-1.049 -1.232,-1.251 -2.587,-0.76 -5.243,-1.044 -7.914,-1.156 -7.034,-0.293 -14.024,0.242 -20.982,1.26 a 9.175,9.175 0 0 1 -0.501,0.057 c -0.494,0.045 -0.473,-0.202 -0.319,-0.58 0.484,-1.184 1.007,-2.351 1.499,-3.532 0.377,-0.905 0.545,-1.815 -0.024,-2.715 -0.332,-0.627 -0.778,-1.157 -1.285,-1.655 a 12.001,12.001 0 0 1 -1.608,-1.963 c -0.06,-0.102 -0.099,-0.168 -0.146,-0.251 -0.264,-0.457 -0.286,-0.861 -0.076,-1.378 0.312,-0.766 0.393,-1.579 0.096,-2.389 -0.268,-0.443 -0.493,-0.912 -0.904,-1.257 -0.894,-0.753 -2.108,-0.901 -2.943,-0.343 -0.788,0.527 -0.999,1.529 -0.592,2.715 0.233,0.681 0.651,1.245 1.082,1.803 0.183,0.236 0.212,0.399 -0.057,0.634 -4.211,3.663 -8.611,7.064 -13.493,9.8 -2.955,1.657 -6.011,3.085 -9.37,3.723 -1.071,0.203 -2.163,0.382 -3.233,-0.054 -0.778,-0.763 -0.65,-0.956 -0.251,-1.808 0.276,-0.589 0.727,-1.073 1.152,-1.565 a 0.743,0.743 0 0 1 0.802,-0.223 5.441,5.441 0 0 0 1.8,0.283 c 2.534,-0.013 4.849,-0.82 7.06,-1.972 2.247,-1.171 4.297,-2.637 6.248,-4.251 1.021,-0.844 1.198,-1.664 0.552,-2.823 -0.777,-1.476 -1.785,-2.01 -3.455,-1.861 -0.97,0.087 -1.904,0.32 -2.808,0.665 -3.916,1.494 -7.38,3.72 -10.48,6.524 -1.147,1.038 -2.18,2.18 -2.968,3.524 -0.417,0.711 -0.716,1.463 -0.832,2.285 -0.168,1.187 0.323,2.131 1.08,2.98 0.514,0.549 1.197,0.714 1.9,0.831 0.775,0.128 1.547,0.055 2.326,0.03 1.699,-0.054 3.306,-0.475 4.883,-1.037 3.333,-1.187 6.361,-2.964 9.281,-4.925 3.768,-2.531 7.306,-5.362 10.694,-8.381 0.304,-0.271 0.518,-0.369 0.867,0.015 0.136,0.15 0.24,0.284 0.371,0.437 0.425,0.54 0.814,1.115 1.285,1.61 0.572,0.601 0.59,1.227 0.298,1.939 a 47.82,47.82 0 0 1 -2.029,4.273 c -0.688,1.296 -0.74,2.46 0.361,3.543 0.091,0.09 0.164,0.198 0.246,0.298 0.32,0.433 0.758,0.472 1.246,0.392 2.693,-0.438 5.396,-0.803 8.106,-1.13 3.225,-0.389 6.464,-0.602 9.707,-0.694 2.765,-0.079 5.519,0.211 8.27,0.485 0.667,0.066 1.23,0.116 1.363,0.907 0.051,0.536 0.88,0.442 0.95,0.442 1.214,-0.007 2.429,0 3.63,-0.223 a 0.317,0.317 0 0 0 0.249,-0.238 c 0.136,-0.586 0.27,-1.123 0.098,-1.8 z m -57.575,-5.643 c 2.675,-2.028 5.519,-3.745 8.785,-4.657 0.409,-0.114 0.832,-0.178 1.252,-0.248 0.219,-0.036 0.443,-0.035 0.655,0.069 0.348,0.171 0.356,0.557 0.055,0.802 -0.117,0.095 -0.232,0.193 -0.348,0.289 -2.148,1.59 -4.325,3.135 -6.779,4.234 -1.117,0.5 -2.255,0.95 -3.5,1.02 -0.549,0.061 -1.096,0.091 -1.728,-0.127 0.576,-0.498 1.068,-0.972 1.608,-1.382 z"
         id="path239"
         inkscape:connector-curvature="0"
         style="fill:#950c8c" />
      <g
         id="g243">
        <path
           d="m 490.86,137.514 c 3.753,1.033 7.525,2.002 11.235,3.187 1.058,0.338 2.129,0.648 3.067,1.283 0.703,0.476 1.327,1.013 1.662,1.82 0.626,1.226 0.67,2.494 0.223,3.775 -0.223,0.638 -0.696,1.085 -1.292,1.405 -1.14,0.613 -2.367,0.983 -3.613,1.295 -3.288,0.823 -6.639,1.293 -9.995,1.722 -2.967,0.379 -5.941,0.702 -8.919,0.975 -2.366,0.217 -4.732,0.445 -7.103,0.613 -1.573,0.112 -3.147,0.236 -4.718,0.381 -0.315,0.029 -0.592,-0.005 -0.816,-0.246 -0.84,-0.723 -1.171,-2.443 -0.656,-3.429 0.18,-0.344 0.447,-0.597 0.835,-0.683 a 6.633,6.633 0 0 1 2.71,-0.03 c 0.296,0.056 0.546,0.205 0.632,0.483 0.096,0.311 0.276,0.324 0.543,0.304 8.391,-0.632 16.756,-1.476 25.023,-3.1 1.621,-0.318 3.229,-0.698 4.791,-1.242 0.289,-0.101 0.777,-0.214 0.809,-0.443 0.099,-0.49 -0.44,-0.777 -0.883,-0.948 -1.666,-0.643 -3.372,-1.167 -5.081,-1.682 a 205.063,205.063 0 0 0 -8.104,-2.284 c -0.713,-0.183 -1.265,-0.492 -1.861,-1.074 -1.058,-1.249 -1.405,-2.746 -1.442,-4.334 -0.013,-0.546 0.372,-0.916 0.757,-1.245 0.512,-0.438 1.111,-0.74 1.711,-1.034 2.777,-1.362 5.691,-2.331 8.695,-3.056 3.416,-0.825 6.853,-1.501 10.372,-1.669 1.884,-0.09 3.741,0.112 5.585,0.498 1.204,0.251 2.209,0.741 2.719,1.944 0.465,0.811 0.629,1.689 0.602,2.615 -0.03,1.042 -0.422,1.906 -1.237,2.563 -1.311,1.057 -2.783,1.825 -4.37,2.374 -0.294,0.102 -0.52,0.158 -0.906,0.002 -0.395,-0.172 -0.583,-0.475 -0.68,-0.918 -0.037,-0.171 -0.051,-0.329 -0.069,-0.495 -0.142,-1.319 0.134,-2.107 1.643,-2.372 1.075,-0.188 2.087,-0.624 3.052,-1.146 0.178,-0.096 0.463,-0.265 0.473,-0.37 0.083,-0.399 -0.342,-0.71 -0.751,-0.88 -1.026,-0.428 -2.116,-0.552 -3.199,-0.717 -1.938,-0.295 -3.854,-0.024 -5.764,0.256 -4.111,0.601 -8.132,1.569 -12.019,3.052 a 36.087,36.087 0 0 0 -3.868,1.718 c -0.082,0.043 -0.166,0.085 -0.243,0.135 -0.158,0.104 -0.318,0.218 -0.31,0.43 0.01,0.239 0.228,0.392 0.76,0.567 z m 72.154,1.725 c -0.556,-1.46 -1.572,-2.011 -3.107,-1.671 -4.365,0.965 -8.453,2.634 -12.325,4.843 -1.09,0.591 -2.385,1.321 -3.197,1.882 0.783,-0.722 1.581,-1.741 2.467,-2.678 1.004,-1.063 1.991,-2.142 2.99,-3.21 0.115,-0.122 0.229,-0.247 0.206,-0.436 -0.363,-0.629 -0.825,-1.184 -1.282,-1.745 -0.272,-0.333 -0.567,-0.411 -0.977,-0.253 -0.851,0.329 -1.648,0.763 -2.436,1.213 -3.399,1.939 -6.667,4.094 -10.016,6.116 -2.061,1.244 -4.086,2.555 -6.314,3.499 -0.319,0.101 -0.883,0.251 -1.048,0.007 -0.159,-0.235 0.107,-0.48 0.246,-0.684 1.138,-1.673 2.479,-3.179 3.843,-4.669 1.001,-1.094 2.046,-2.142 3.089,-3.193 0.104,-0.105 0.214,-0.207 0.241,-0.364 -0.407,-0.595 -0.835,-1.177 -1.214,-1.79 -0.242,-0.39 -0.39,-0.475 -0.809,-0.138 -6.261,5.033 -12.971,9.325 -20.48,12.28 -0.945,0.311 -1.234,0.261 -1.35,0.048 -0.101,-0.184 0.057,-0.312 0.172,-0.428 1.114,-1.116 2.182,-2.283 3.357,-3.332 2.519,-2.248 5.158,-4.351 7.851,-6.388 0.207,-0.156 0.43,-0.298 0.51,-0.569 -0.465,-0.669 -0.94,-1.331 -1.388,-2.011 -0.175,-0.265 -0.299,-0.292 -0.554,-0.086 -0.967,0.784 -1.964,1.531 -2.929,2.318 -2.898,2.361 -5.762,4.76 -8.207,7.609 -0.642,0.748 -1.228,1.537 -1.658,2.434 -0.301,0.628 -0.347,1.225 0.017,1.854 0.298,0.516 0.595,1.026 0.998,1.468 0.541,0.63 1.254,0.669 1.992,0.542 a 8.544,8.544 0 0 0 1.658,-0.475 c 3.139,-1.226 6.117,-2.778 9.045,-4.434 a 108.192,108.192 0 0 0 3.029,-1.776 c -0.166,0.608 -0.327,1.022 -0.569,1.658 -0.109,0.451 -0.171,0.899 0.043,1.341 0.186,0.384 0.497,0.675 0.744,1.014 0.532,0.642 1.214,0.868 2.031,0.758 0.595,-0.08 1.157,-0.263 1.705,-0.495 a 106.984,106.984 0 0 0 12.132,-6.085 c -0.675,0.627 -7.803,8.93 -10.284,12.396 -0.775,1.082 -0.864,1.558 -0.156,2.27 1.043,0.892 1.483,1.011 2.083,0.338 1.483,-1.664 2.959,-3.329 4.606,-4.842 a 120.256,120.256 0 0 1 4.145,-3.641 c 0.394,-0.33 0.681,-0.365 1.11,-0.046 1.343,1.001 2.875,1.444 4.549,1.405 1.745,-0.041 3.368,-0.555 4.926,-1.291 3.721,-1.758 6.808,-4.362 9.647,-7.289 0.404,-0.417 0.74,-0.897 0.908,-1.457 0.176,-0.6 0.302,-1.218 -0.04,-1.817 z m -4.031,2.519 c -2.451,2.348 -5.073,4.461 -8.234,5.794 -1.524,0.643 -3.1,1.032 -4.766,0.562 a 4.399,4.399 0 0 1 -0.968,-0.414 c -0.304,-0.168 -0.252,-0.279 0.003,-0.455 4.571,-3.168 9.462,-5.649 14.893,-6.979 0.108,-0.026 0.218,-0.045 0.329,-0.06 0.03,-0.004 0.131,-0.015 0.131,0.045 -0.39,0.581 -0.897,1.038 -1.388,1.507 z m 67.139,6.496 c -0.263,-0.716 -0.543,-1.049 -1.232,-1.251 -2.587,-0.76 -5.243,-1.044 -7.914,-1.156 -7.034,-0.293 -14.024,0.242 -20.982,1.26 a 9.175,9.175 0 0 1 -0.501,0.057 c -0.494,0.045 -0.473,-0.202 -0.319,-0.58 0.484,-1.184 1.007,-2.351 1.499,-3.532 0.377,-0.905 0.545,-1.815 -0.024,-2.715 -0.332,-0.627 -0.778,-1.157 -1.285,-1.655 a 12.001,12.001 0 0 1 -1.608,-1.963 c -0.06,-0.102 -0.099,-0.168 -0.146,-0.251 -0.264,-0.457 -0.286,-0.861 -0.076,-1.378 0.312,-0.766 0.393,-1.58 0.096,-2.389 -0.268,-0.443 -0.493,-0.912 -0.904,-1.257 -0.894,-0.753 -2.108,-0.901 -2.943,-0.343 -0.788,0.527 -0.999,1.529 -0.592,2.715 0.233,0.681 0.651,1.245 1.082,1.803 0.183,0.236 0.212,0.399 -0.057,0.634 -4.211,3.663 -8.611,7.064 -13.493,9.8 -2.955,1.657 -6.011,3.085 -9.37,3.723 -1.071,0.203 -2.163,0.382 -3.233,-0.054 -0.778,-0.762 -0.65,-0.956 -0.251,-1.808 0.276,-0.589 0.727,-1.073 1.152,-1.565 a 0.743,0.743 0 0 1 0.802,-0.223 5.441,5.441 0 0 0 1.8,0.283 c 2.534,-0.013 4.849,-0.82 7.06,-1.972 2.247,-1.171 4.297,-2.637 6.248,-4.251 1.021,-0.844 1.198,-1.664 0.552,-2.823 -0.777,-1.476 -1.785,-2.01 -3.455,-1.861 -0.97,0.087 -1.904,0.32 -2.808,0.665 -3.916,1.494 -7.38,3.72 -10.479,6.524 -1.147,1.038 -2.18,2.18 -2.968,3.524 -0.417,0.711 -0.716,1.463 -0.832,2.285 -0.168,1.187 0.323,2.131 1.08,2.98 0.514,0.549 1.197,0.714 1.9,0.831 0.775,0.128 1.547,0.055 2.326,0.03 1.699,-0.054 3.306,-0.475 4.883,-1.037 3.333,-1.187 6.361,-2.964 9.281,-4.925 3.768,-2.531 7.306,-5.362 10.694,-8.381 0.304,-0.271 0.518,-0.369 0.867,0.015 0.136,0.15 0.24,0.284 0.371,0.437 0.425,0.54 0.814,1.115 1.285,1.61 0.572,0.601 0.59,1.227 0.298,1.939 a 47.82,47.82 0 0 1 -2.029,4.273 c -0.688,1.296 -0.74,2.46 0.361,3.543 0.091,0.09 0.164,0.198 0.246,0.298 0.32,0.433 0.758,0.472 1.246,0.392 2.693,-0.438 5.396,-0.803 8.106,-1.13 3.225,-0.389 6.464,-0.602 9.707,-0.694 2.765,-0.079 5.519,0.211 8.27,0.485 0.667,0.066 1.23,0.116 1.363,0.907 0.051,0.536 0.88,0.442 0.95,0.442 1.214,-0.007 2.429,0 3.63,-0.223 a 0.317,0.317 0 0 0 0.249,-0.238 c 0.136,-0.586 0.27,-1.123 0.097,-1.8 z m -57.574,-5.643 c 2.675,-2.028 5.519,-3.745 8.785,-4.657 0.409,-0.114 0.832,-0.178 1.252,-0.248 0.219,-0.036 0.443,-0.035 0.655,0.069 0.348,0.171 0.356,0.557 0.055,0.802 -0.117,0.095 -0.232,0.193 -0.348,0.289 -2.148,1.59 -4.325,3.135 -6.779,4.234 -1.117,0.5 -2.255,0.95 -3.5,1.02 -0.549,0.061 -1.096,0.091 -1.728,-0.127 0.576,-0.498 1.067,-0.972 1.608,-1.382 z"
           id="path241"
           inkscape:connector-curvature="0"
           style="fill:#fe0000" />
      </g>
    </g>
    <path
       stroke-miterlimit="10"
       d="m 447.389,199.433 h 201.66"
       id="path247"
       inkscape:connector-curvature="0"
       style="fill:none;stroke:#818384;stroke-width:0.68300003;stroke-miterlimit:10" />
  </g>
</svg>
