<?xml version="1.0" encoding="UTF-8" standalone="no"?>
<svg
   xmlns:dc="http://purl.org/dc/elements/1.1/"
   xmlns:cc="http://creativecommons.org/ns#"
   xmlns:rdf="http://www.w3.org/1999/02/22-rdf-syntax-ns#"
   xmlns:svg="http://www.w3.org/2000/svg"
   xmlns="http://www.w3.org/2000/svg"
   xmlns:sodipodi="http://sodipodi.sourceforge.net/DTD/sodipodi-0.dtd"
   xmlns:inkscape="http://www.inkscape.org/namespaces/inkscape"
   viewBox="-290 382 30 30"
   version="1.1"
   id="svg26"
   sodipodi:docname="icon_empty.svg"
   inkscape:version="0.92.4 5da689c313, 2019-01-14">
  <metadata
     id="metadata32">
    <rdf:RDF>
      <cc:Work
         rdf:about="">
        <dc:format>image/svg+xml</dc:format>
        <dc:type
           rdf:resource="http://purl.org/dc/dcmitype/StillImage" />
      </cc:Work>
    </rdf:RDF>
  </metadata>
  <defs
     id="defs30" />
  <sodipodi:namedview
     pagecolor="#ffffff"
     bordercolor="#666666"
     borderopacity="1"
     objecttolerance="10"
     gridtolerance="10"
     guidetolerance="10"
     inkscape:pageopacity="0"
     inkscape:pageshadow="2"
     inkscape:window-width="640"
     inkscape:window-height="480"
     id="namedview28"
     showgrid="false"
     inkscape:zoom="7.8666667"
     inkscape:cx="15"
     inkscape:cy="15"
     inkscape:window-x="0"
     inkscape:window-y="0"
     inkscape:window-maximized="0"
     inkscape:current-layer="svg26">
    <inkscape:grid
       type="xygrid"
       id="grid839" />
  </sodipodi:namedview>
  <path
     fill="#5D5D5D"
     d="M-268.5 389.1h5.9v20.8h-5.9v-20.8z"
     id="path2" />
  <path
     fill="#3C3C3C"
     d="M-266.4 390.7h3.9v2h-3.9v-2zm0 3.9h3.9v2h-3.9v-2zm0 3.9h3.9v2h-3.9v-2zm0 3.9h3.9v2h-3.9v-2zm0 3.9h3.9v2h-3.9v-2z"
     id="path4" />
  <path
     fill="#5D5D5D"
     d="M-290 389.1h5.9v20.8h-5.9v-20.8z"
     id="path6" />
  <path
     fill="#3C3C3C"
     d="M-290 406.3h3.9v2h-3.9v-2zm0-3.9h3.9v2h-3.9v-2zm0-3.9h3.9v2h-3.9v-2zm0-3.9h3.9v2h-3.9v-2zm0-3.9h3.9v2h-3.9v-2z"
     id="path8" />
  <g
     fill="#9A9A9A"
     id="g14">
    <path
       d="M-268.5 393h-2.9v-1.9h-2v-2h-5.9v2h-2v2h-2.9v12.7h3v1.9h1.9v1.9h5.9v-2h2v-1.8h2.9V393z"
       id="path10" />
    <path
       d="M-277.2 384.2h2v5.7h-2v-5.7z"
       id="path12" />
  </g>
  <path
     fill="#7D7D7D"
     d="M-277.2 396.9h2v2.9h-2v-2.9zm-2 1h2v3.9h-2v-3.9z"
     id="path16" />
  <path
     fill="#B1B1B1"
     d="M-279.1 389.1h1.9v1.9h-1.9v-1.9zm-2 2h1.9v1.9h-1.9v-1.9zm0 14.7h1.9v1.9h-1.9v-1.9zm-3-12.8h2.9v12.7h-2.9V393z"
     id="path18" />
  <path
     fill="#686868"
     d="M-275.3 389.1h2v1.9h-2v-1.9zm2 1.9h1.9v2h-1.9v-2zm2.9 2h1.9v12.7h-1.9V393z"
     id="path20" />
  <path
     fill="#727272"
     d="M-290 389.1h5.9v1.6h-5.9v-1.6zm0 3.5h1.6v2h-1.6v-2zm0 3.9h1.6v2h-1.6v-2zm0 3.9h1.6v2h-1.6v-2zm0 3.9h1.6v2h-1.6v-2zm0 4h1.6v1.6h-1.6v-1.6z"
     id="path22" />
  <path
     fill="#727272"
     d="M-290 389.1h5.9v1.6h-5.9v-1.6zm0 3.5h1.6v2h-1.6v-2zm0 3.9h1.6v2h-1.6v-2zm0 3.9h1.6v2h-1.6v-2zm0 3.9h1.6v2h-1.6v-2zm0 4h1.6v1.6h-1.6v-1.6zm21.5-19.2h5.9v1.6h-5.9v-1.6zm4.4 3.5h1.6v2h-1.6v-2zm0 3.9h1.6v2h-1.6v-2zm0 3.9h1.6v2h-1.6v-2zm0 3.9h1.6v2h-1.6v-2zm0 4h1.6v1.6h-1.6v-1.6z"
     id="path24" />
</svg>
