<?xml version="1.0" encoding="UTF-8" standalone="no"?>
<svg
   xmlns:dc="http://purl.org/dc/elements/1.1/"
   xmlns:cc="http://creativecommons.org/ns#"
   xmlns:rdf="http://www.w3.org/1999/02/22-rdf-syntax-ns#"
   xmlns:svg="http://www.w3.org/2000/svg"
   xmlns="http://www.w3.org/2000/svg"
   xmlns:sodipodi="http://sodipodi.sourceforge.net/DTD/sodipodi-0.dtd"
   xmlns:inkscape="http://www.inkscape.org/namespaces/inkscape"
   viewBox="0 0 86.976 200.00017"
   version="1.1"
   id="svg44"
   sodipodi:docname="controller.svg"
   width="86.975998"
   height="200.00017"
   inkscape:version="0.92.4 5da689c313, 2019-01-14">
  <metadata
     id="metadata50">
    <rdf:RDF>
      <cc:Work
         rdf:about="">
        <dc:format>image/svg+xml</dc:format>
        <dc:type
           rdf:resource="http://purl.org/dc/dcmitype/StillImage" />
      </cc:Work>
    </rdf:RDF>
  </metadata>
  <defs
     id="defs48" />
  <sodipodi:namedview
     pagecolor="#ffffff"
     bordercolor="#666666"
     borderopacity="1"
     objecttolerance="10"
     gridtolerance="10"
     guidetolerance="10"
     inkscape:pageopacity="0"
     inkscape:pageshadow="2"
     inkscape:window-width="640"
     inkscape:window-height="480"
     id="namedview46"
     showgrid="false"
     inkscape:zoom="1.18"
     inkscape:cx="43.487999"
     inkscape:cy="100.00017"
     inkscape:window-x="0"
     inkscape:window-y="0"
     inkscape:window-maximized="0"
     inkscape:current-layer="svg44" />
  <path
     d="m 86.457,136.148 c 0,-0.52 -0.065,-1.104 -0.26,-1.624 -0.195,-0.52 -0.715,-0.91 -1.364,-0.91 v 0.325 c -0.13,0 -0.325,0 -0.325,0.195 l 0.065,23.125 c -0.26,8.25 -2.663,15.46 -6.496,21.695 -0.13,0.26 0.13,0.39 0.26,0.39 0.455,0 0.78,-0.065 1.104,-0.065 v 0.065 c 0.455,0 0.78,0.065 1.105,0 0.324,-0.065 0.65,-0.195 0.844,-0.585 3.508,-6.236 5.132,-13.38 5.132,-20.98 v -21.631 z m 0,-72.166 c 0,0.52 -0.065,1.104 -0.26,1.624 -0.195,0.52 -0.715,0.909 -1.364,0.909 V 66.19 c -0.13,0 -0.325,0 -0.325,-0.195 l 0.065,-23.124 c -0.26,-8.25 -2.663,-15.46 -6.496,-21.695 -0.13,-0.26 0.13,-0.39 0.26,-0.39 0.455,0 0.78,0.065 1.104,0.065 v -0.065 c 0.455,0 0.78,-0.065 1.105,0 0.324,0.065 0.65,0.195 0.844,0.585 3.508,6.235 5.132,13.38 5.132,20.98 v 21.63 z m 0,0"
     id="path2"
     inkscape:connector-curvature="0"
     style="fill:#bdbdbd" />
  <path
     d="m 84.833,42.092 v 54.823 h -0.78 v 6.235 h 0.78 v 54.758 C 84.833,181.163 65.995,200 42.74,200 19.487,200.065 0.65,181.228 0.65,157.973 c 0,-9.224 2.923,-17.668 7.924,-24.618 l 0.65,-0.845 a 8.845,8.845 0 0 0 1.948,-5.586 V 73.141 A 8.98,8.98 0 0 0 9.224,67.554 L 8.574,66.71 A 42.01,42.01 0 0 1 0.65,42.092 C 0.65,18.837 19.487,0 42.74,0 65.993,0 84.832,18.837 84.832,42.092 Z m 0,0"
     id="path4"
     inkscape:connector-curvature="0"
     style="fill:#cccccc" />
  <path
     d="M 0,0 H 86.976 V 200 H 0 Z"
     id="path6"
     inkscape:connector-curvature="0"
     style="fill:none" />
  <path
     d="m 23.06,75.609 c 0.194,0 0.324,-0.065 0.39,-0.195 l 0.194,-0.26 c 0.26,-0.39 0.585,-0.584 0.974,-0.584 0.195,0 0.39,0.065 0.52,0.13 0.13,0.065 0.26,0.194 0.325,0.39 0.065,0.13 0.13,0.324 0.13,0.519 0,0.26 -0.13,0.455 -0.325,0.65 -0.195,0.13 -0.455,0.26 -0.78,0.26 v -0.585 c 0.13,0 0.26,0 0.325,-0.065 0.065,-0.065 0.13,-0.13 0.13,-0.195 0,-0.13 -0.065,-0.195 -0.13,-0.26 -0.065,-0.065 -0.13,-0.13 -0.26,-0.13 -0.13,0 -0.26,0.065 -0.39,0.26 -0.13,0.195 -0.194,0.325 -0.26,0.455 -0.194,0.26 -0.519,0.39 -0.909,0.39 -0.194,0 -0.39,-0.066 -0.52,-0.13 a 0.783,0.783 0 0 1 -0.324,-0.325 1.224,1.224 0 0 1 -0.13,-0.52 c 0,-0.13 0.065,-0.26 0.065,-0.39 0.065,-0.13 0.13,-0.195 0.26,-0.325 0.195,-0.194 0.52,-0.26 0.844,-0.26 v 0.585 c -0.195,0 -0.324,0 -0.39,0.065 -0.064,0.065 -0.13,0.13 -0.13,0.26 0,0.13 0,0.195 0.066,0.26 0.13,-0.065 0.26,-0.065 0.324,0 z m 1.883,12.666 v -0.78 L 22.15,87.106 v -0.584 l 2.793,0.39 v -0.715 l 0.65,0.065 v 2.078 z m -1.624,-2.793 c -0.26,0 -0.454,-0.065 -0.65,-0.195 -0.194,-0.13 -0.324,-0.26 -0.454,-0.39 -0.13,-0.194 -0.13,-0.324 -0.13,-0.519 0,-0.26 0.13,-0.455 0.325,-0.65 0.195,-0.13 0.52,-0.26 0.91,-0.26 0.26,0 0.519,0 0.844,0.065 0.324,0.065 0.584,0.13 0.78,0.26 0.194,0.13 0.389,0.26 0.519,0.39 0.13,0.195 0.13,0.325 0.13,0.52 0,0.26 -0.13,0.52 -0.325,0.65 -0.195,0.194 -0.52,0.26 -0.91,0.26 v -0.52 c 0.195,0 0.39,0 0.455,-0.066 0.065,-0.064 0.13,-0.13 0.13,-0.26 0,-0.324 -0.325,-0.519 -0.974,-0.584 -0.325,0 -0.52,-0.065 -0.65,-0.065 -0.39,0 -0.584,0.13 -0.584,0.325 0,0.13 0.065,0.26 0.13,0.325 l 0.39,0.194 z m 0.26,-2.663 v -0.974 l -0.844,-0.13 v 1.104 l -0.65,-0.065 V 81 l 3.443,0.455 v 1.754 l -0.65,-0.065 V 82.04 l -0.714,-0.065 v 0.974 z m -0.78,-3.248 v 1.04 L 22.15,80.546 v -1.69 l 3.443,0.455 v 0.585 L 22.8,79.571 Z m 0.78,-1.169 v -0.974 l -0.844,-0.13 v 1.104 l -0.65,-0.065 v -1.689 l 3.443,0.455 v 1.754 l -0.65,-0.065 v -1.105 l -0.714,-0.064 v 0.974 z m -0.52,19.877 c 0.195,0 0.325,-0.065 0.39,-0.195 l 0.195,-0.325 c 0.26,-0.39 0.585,-0.585 0.974,-0.585 0.195,0 0.39,0.065 0.52,0.13 0.13,0.065 0.26,0.195 0.325,0.39 0.065,0.13 0.13,0.325 0.13,0.52 0,0.26 -0.13,0.454 -0.325,0.65 -0.195,0.13 -0.455,0.259 -0.78,0.259 v -0.585 c 0.13,0 0.26,0 0.325,-0.065 0.065,-0.065 0.13,-0.13 0.13,-0.194 0,-0.13 -0.065,-0.195 -0.13,-0.26 -0.065,-0.065 -0.13,-0.13 -0.26,-0.13 -0.13,0 -0.26,0.065 -0.39,0.26 -0.13,0.194 -0.194,0.324 -0.26,0.454 -0.194,0.26 -0.519,0.39 -0.909,0.39 -0.194,0 -0.39,-0.065 -0.52,-0.13 a 0.665,0.665 0 0 1 -0.324,-0.39 1.224,1.224 0 0 1 -0.13,-0.52 c 0,-0.13 0.065,-0.26 0.065,-0.389 0.065,-0.13 0.13,-0.195 0.26,-0.325 0.195,-0.195 0.52,-0.26 0.844,-0.26 v 0.585 c -0.195,0 -0.324,0 -0.39,0.065 -0.064,0.065 -0.13,0.13 -0.13,0.26 0,0.13 0,0.195 0.066,0.26 0.13,0.065 0.26,0.065 0.324,0.13 z m 1.884,10.912 v -0.714 l -2.793,-0.39 v -0.585 l 2.793,0.39 v -0.714 l 0.65,0.065 v 2.078 z m -0.974,-4.027 v 0.325 c 0,0.065 0,0.195 0.065,0.26 0.065,0.065 0.13,0.13 0.26,0.13 0.13,0 0.194,0.064 0.324,0 0.195,0 0.26,-0.13 0.26,-0.26 v -0.39 l -0.91,-0.065 z m -0.585,-0.13 -1.234,-0.13 v -0.585 l 3.443,0.455 v 0.91 c 0,0.26 -0.065,0.52 -0.26,0.65 a 1.31,1.31 0 0 1 -0.715,0.194 c -0.26,0 -0.454,-0.065 -0.584,-0.195 a 0.586,0.586 0 0 1 -0.39,-0.39 l -1.364,0.325 h -0.065 v -0.65 l 1.234,-0.26 v -0.324 z m -0.584,-2.533 -0.65,-0.26 v -0.65 l 3.443,1.364 v 0.585 l -3.443,0.455 v -0.65 l 0.65,-0.065 v -0.78 z m 0.65,0.26 v 0.52 l 1.168,-0.13 -1.169,-0.39 z m 1.493,-1.105 v -0.714 l -2.793,-0.39 v -0.585 l 2.793,0.39 v -0.714 l 0.65,0.065 v 2.078 z m 0,0"
     id="path8"
     inkscape:connector-curvature="0"
     style="fill:#4c4c4c" />
  <path
     d="m 43.196,66.255 c -13.186,0 -23.904,-10.653 -23.904,-23.839 0,-13.186 10.718,-23.839 23.904,-23.839 13.186,0 23.904,10.653 23.904,23.84 0,13.187 -10.718,23.837 -23.904,23.837"
     id="path10"
     inkscape:connector-curvature="0"
     style="fill:#999999" />
  <path
     d="m 43.196,66.255 c -13.186,0 -23.904,-10.653 -23.904,-23.839 0,-13.186 10.718,-23.839 23.904,-23.839 13.186,0 23.904,10.653 23.904,23.84 0,13.187 -10.718,23.837 -23.904,23.837"
     id="path12"
     inkscape:connector-curvature="0"
     style="fill:none;stroke:#999999;stroke-width:0.51999998" />
  <path
     d="m 43.196,65.476 c -12.797,0 -23.125,-10.328 -23.125,-23.125 0,-12.796 10.328,-23.124 23.125,-23.124 12.796,0 23.124,10.328 23.124,23.124 0,12.797 -10.328,23.125 -23.124,23.125"
     id="path14"
     inkscape:connector-curvature="0"
     style="fill:#cccccc" />
  <path
     d="m 43.13,195.973 c -20.915,0 -37.934,-17.019 -37.934,-37.935 0,-20.98 17.019,-37.934 37.935,-37.934 20.98,0 37.934,17.018 37.934,37.934 0.065,20.916 -16.953,37.935 -37.934,37.935"
     id="path16"
     inkscape:connector-curvature="0"
     style="fill:#666666" />
  <path
     d="M 49.172,58.98 V 48.392 h 10.653 a 0.86,0.86 0 0 0 0.844,-0.844 V 37.22 A 0.86,0.86 0 0 0 59.825,36.375 H 49.172 V 25.788 A 0.86,0.86 0 0 0 48.327,24.943 H 38.064 A 0.86,0.86 0 0 0 37.22,25.788 V 36.375 H 26.567 a 0.86,0.86 0 0 0 -0.844,0.845 v 10.328 c 0,0.455 0.39,0.844 0.844,0.844 H 37.22 v 10.653 c 0,0.455 0.39,0.845 0.844,0.845 h 10.328 a 0.91,0.91 0 0 0 0.78,-0.91"
     id="path18"
     inkscape:connector-curvature="0"
     style="fill:#4c4c4c" />
  <path
     d="m 44.3,27.411 c -0.585,-1.039 -1.559,-1.039 -2.143,0 l -2.339,4.093 c -0.585,1.039 -0.325,1.883 0.585,1.883 h 5.521 c 0.91,0 1.234,-0.844 0.585,-1.883 L 44.3,27.41 c -0.585,-1.039 -1.559,-1.039 -2.143,0 l -2.339,4.093 c -0.585,1.039 -0.325,1.883 0.585,1.883 h 5.521 c 0.91,0 1.234,-0.844 0.585,-1.883 L 44.3,27.41 Z m 0,29.88 c -0.585,1.04 -1.559,1.04 -2.143,0 L 39.818,53.2 c -0.585,-1.04 -0.325,-1.884 0.585,-1.884 h 5.521 c 0.91,0 1.234,0.845 0.585,1.884 L 44.3,57.291 c -0.585,1.04 -1.559,1.04 -2.143,0 L 39.818,53.2 c -0.585,-1.04 -0.325,-1.884 0.585,-1.884 h 5.521 c 0.91,0 1.234,0.845 0.585,1.884 z M 58.07,43.456 c 1.04,-0.585 1.04,-1.56 0,-2.144 l -4.027,-2.338 c -1.039,-0.585 -1.883,-0.325 -1.883,0.65 v 5.52 c 0,0.91 0.844,1.235 1.883,0.65 l 4.028,-2.338 c 1.04,-0.585 1.04,-1.56 0,-2.144 l -4.028,-2.338 c -1.039,-0.585 -1.883,-0.325 -1.883,0.65 v 5.52 c 0,0.91 0.844,1.235 1.883,0.65 l 4.028,-2.338 z m -29.814,0 c -1.04,-0.585 -1.04,-1.56 0,-2.144 l 4.092,-2.338 c 1.04,-0.585 1.884,-0.325 1.884,0.65 v 5.52 c 0,0.91 -0.845,1.235 -1.884,0.65 l -4.092,-2.338 c -1.04,-0.585 -1.04,-1.56 0,-2.144 l 4.092,-2.338 c 1.04,-0.585 1.884,-0.325 1.884,0.65 v 5.52 c 0,0.91 -0.845,1.235 -1.884,0.65 z m 9.873,44.17 -6.69,-8.574 c -2.339,-2.923 1.883,-6.626 4.417,-3.443 l 6.69,8.574 c 2.339,3.053 -2.078,6.56 -4.417,3.443 m 0,21.5 -6.69,-8.574 c -2.339,-2.923 1.883,-6.625 4.417,-3.443 l 6.69,8.575 c 2.339,3.053 -2.078,6.56 -4.417,3.442"
     id="path20"
     inkscape:connector-curvature="0"
     style="fill:#666666" />
  <path
     d="m 70.607,171.03 v -1.365 l -2.078,1.754 -2.274,-1.884 v 1.3 l 1.494,1.234 -1.494,1.234 v 1.299 l 2.274,-1.884 2.078,1.754 v -1.364 l -1.234,-1.04 1.234,-1.039 z m -15.524,17.213 v 1.299 l -4.287,1.949 v -1.04 l 1.104,-0.52 v -2.143 l -1.104,-0.52 v -1.039 z m -2.339,1.299 1.494,-0.65 -1.429,-0.65 z M 34.037,126.599 v -1.169 l -2.403,1.949 H 29.62 v 1.04 h 2.014 l 2.403,1.948 v -1.17 l -1.624,-1.298 z m 0,0"
     id="path22"
     inkscape:connector-curvature="0"
     style="fill:#d8d8d8" />
  <path
     d="m 18.902,142.968 v 2.858 c -0.13,1.82 -2.013,1.884 -2.143,0.13 -0.065,2.209 -2.274,2.014 -2.339,-0.13 v -2.858 z m -3.637,2.858 c 0.13,0.715 0.91,0.715 1.039,0 v -1.753 h -1.04 v 1.753 z m 1.883,0 c 0.26,0.715 0.91,0.455 0.975,0 v -1.753 h -0.975 z m 0,0"
     id="path24"
     inkscape:connector-curvature="0"
     style="fill:#cccccc" />
  <path
     d="m 50.6,138.941 a 7.845,7.845 0 0 0 -7.859,-7.86 7.845,7.845 0 0 0 -7.86,7.86 7.845,7.845 0 0 0 7.86,7.86 7.845,7.845 0 0 0 7.86,-7.86 z m -0.649,0 a 7.194,7.194 0 0 1 -7.21,7.21 7.194,7.194 0 0 1 -7.21,-7.21 c 0,-3.962 3.183,-7.21 7.21,-7.21 4.027,0 7.21,3.248 7.21,7.21 z m 15.525,19.032 a 7.845,7.845 0 0 0 -7.86,-7.86 c -4.352,0 -7.86,3.508 -7.86,7.86 0,4.352 3.508,7.86 7.86,7.86 a 7.845,7.845 0 0 0 7.86,-7.86 z m -0.65,0 a 7.194,7.194 0 0 1 -7.21,7.21 7.194,7.194 0 0 1 -7.21,-7.21 c 0,-4.027 3.248,-7.145 7.21,-7.145 3.962,0 7.21,3.183 7.21,7.145 z m -28.71,0.65 a 7.845,7.845 0 0 0 -7.86,-7.86 7.845,7.845 0 0 0 -7.86,7.86 7.845,7.845 0 0 0 7.86,7.86 7.845,7.845 0 0 0 7.86,-7.86 z m -0.65,0 c 0,3.962 -3.183,7.145 -7.21,7.145 a 7.125,7.125 0 0 1 -7.145,-7.145 c 0,-3.963 3.183,-7.21 7.145,-7.21 4.027,0.065 7.21,3.247 7.21,7.21 z m 15.525,19.032 a 7.845,7.845 0 0 0 -7.86,-7.86 c -4.352,0 -7.86,3.508 -7.86,7.86 0,4.352 3.508,7.86 7.86,7.86 a 7.845,7.845 0 0 0 7.86,-7.86 z m -0.65,0 a 7.194,7.194 0 0 1 -7.21,7.21 7.194,7.194 0 0 1 -7.21,-7.21 7.194,7.194 0 0 1 7.21,-7.21 c 3.962,0.065 7.21,3.248 7.21,7.21 z m 0,0"
     id="path26"
     inkscape:connector-curvature="0"
     style="fill:#f4f4f4" />
  <path
     d="m 48.847,184.93 c -4.027,3.118 -9.808,2.403 -12.991,-1.624 L 20.98,164.274 c -3.118,-4.027 -2.404,-9.808 1.624,-12.991 4.027,-3.118 9.808,-2.404 12.99,1.624 l 14.81,19.097 a 9.243,9.243 0 0 1 1.95,5.066 c 0.194,2.858 -0.975,5.911 -3.508,7.86 z m 0,0"
     id="path28"
     inkscape:connector-curvature="0"
     style="fill:#d8d8d8" />
  <path
     d="m 50.99,177.655 a 7.845,7.845 0 0 1 -7.86,7.86 c -4.351,0 -7.859,-3.508 -7.859,-7.86 0,-4.352 3.508,-7.86 7.86,-7.86 4.352,0.065 7.86,3.573 7.86,7.86 z m 0,0"
     id="path30"
     inkscape:connector-curvature="0"
     style="fill:#eb2d2f" />
  <path
     d="m 63.267,165.313 c -4.027,3.118 -9.808,2.404 -12.991,-1.624 L 35.401,144.657 c -3.118,-4.027 -2.403,-9.808 1.624,-12.991 4.027,-3.118 9.808,-2.403 12.991,1.624 l 14.81,19.097 a 9.242,9.242 0 0 1 1.949,5.067 c 0.26,2.858 -0.974,5.91 -3.508,7.86 z m 0,0"
     id="path32"
     inkscape:connector-curvature="0"
     style="fill:#d8d8d8" />
  <path
     d="m 65.476,157.973 a 7.845,7.845 0 0 1 -7.86,7.86 c -4.352,0 -7.86,-3.508 -7.86,-7.86 0,-4.352 3.508,-7.86 7.86,-7.86 4.352,0.066 7.86,3.573 7.86,7.86 z m 0,0"
     id="path34"
     inkscape:connector-curvature="0"
     style="fill:#323b98" />
  <path
     d="m 36.116,158.623 a 7.845,7.845 0 0 1 -7.86,7.86 7.845,7.845 0 0 1 -7.86,-7.86 7.845,7.845 0 0 1 7.86,-7.86 7.845,7.845 0 0 1 7.86,7.86 z m 0,0"
     id="path36"
     inkscape:connector-curvature="0"
     style="fill:#f9ec2b" />
  <path
     d="m 50.6,138.941 a 7.845,7.845 0 0 1 -7.859,7.86 7.845,7.845 0 0 1 -7.86,-7.86 7.845,7.845 0 0 1 7.86,-7.86 7.845,7.845 0 0 1 7.86,7.86 z m 0,0"
     id="path38"
     inkscape:connector-curvature="0"
     style="fill:#01954b" />
  <circle
     cx="43.195999"
     cy="42.351002"
     r="4.7420001"
     id="circle40"
     style="fill:#595959" />
  <path
     d="m 70.412,73.985 c 0,0 0.065,-0.13 0.065,-0.26 v -1.559 c 0,0 0.13,-0.195 0.39,-0.195 0,0 0.26,0.065 0.26,0.39 v 2.144 h 0.585 v -2.793 c 0,0 0,-0.65 -0.78,-0.845 0,0 -1.104,-0.195 -1.104,0.91 v 1.429 c 0,0 -0.065,0.454 -0.39,0.39 0,0 -0.325,-0.066 -0.325,-0.326 v -2.208 h -0.65 v 2.533 c 0,0 -0.13,0.975 0.845,1.105 0,0 0.91,0.065 1.104,-0.715 z m -1.299,3.638 v -1.17 c 0,0 0.065,-0.454 0.455,-0.454 h 2.144 v -0.975 h -2.404 c 0,0 -0.844,0.26 -0.844,0.975 v 2.533 h 3.248 v -0.974 h -2.599 z m 2.663,4.157 v -2.663 h -3.312 v 0.909 h 1.104 v 1.624 c 0.13,1.104 1.104,1.04 1.104,1.04 0.975,-0.066 1.104,-0.91 1.104,-0.91 z m -1.558,-0.52 v -1.17 h 0.909 v 1.235 c 0,0.325 -0.39,0.39 -0.39,0.39 -0.584,-0.13 -0.52,-0.455 -0.52,-0.455 z m -0.13,1.754 c 0,0 -1.364,-0.195 -1.624,1.364 v 1.949 h 0.65 v -1.69 c 0,0 0,-0.519 0.714,-0.584 v 2.339 h 0.65 v -2.274 c 0,0 0.584,0.065 0.649,0.65 v 1.624 h 0.65 v -2.014 c 0,-0.065 -0.13,-1.364 -1.69,-1.364 z m 0.65,7.6 c 0.974,0 1.038,-0.975 1.038,-0.975 v -2.728 h -3.312 v 0.975 h 1.234 v 0.974 l -1.234,0.844 v 1.105 l 1.234,-0.975 c 0.195,0.78 1.04,0.78 1.04,0.78 z m -0.456,-1.69 v -1.103 h 0.845 v 1.104 c 0,0 0.065,0.584 -0.455,0.584 0,0.065 -0.39,0.13 -0.39,-0.584 z m 0.26,3.898 h -2.078 v 0.975 h 1.299 v 2.338 h 0.714 v -2.338 h 0.195 c 0.39,0.065 0.52,0.65 0.52,0.65 v 1.688 h 0.584 v -2.014 c -0.064,-1.104 -1.234,-1.299 -1.234,-1.299 z m 1.17,6.041 V 96.72 h -0.65 v 1.688 c 0,0.65 -0.65,0.715 -0.65,0.715 v -1.624 c -0.065,-1.104 -1.039,-1.104 -1.039,-1.104 -1.04,0 -1.04,1.17 -1.04,1.17 v 2.532 h 1.82 c 1.429,0 1.559,-1.234 1.559,-1.234 z m -2.664,0.26 v -1.3 c 0,0 0,-0.324 0.39,-0.324 0,0 0.39,0.065 0.39,0.39 v 1.299 h -0.78 z m 2.664,5.261 v -3.767 h -3.248 v 0.974 h 2.598 v 0.845 h -2.663 v 0.974 h 2.598 v 0.39 c 0,0.52 -0.39,0.584 -0.39,0.584 H 68.4 v 0.91 h 2.143 c 1.04,0.13 1.17,-0.91 1.17,-0.91 z m -3.248,1.56 v 1.039 h 3.248 v -1.04 h -3.248 z m 1.624,1.493 c -1.624,0 -1.69,1.364 -1.69,1.364 v 1.884 h 0.65 v -1.624 c 0.13,-0.714 0.975,-0.65 0.975,-0.65 1.104,0 0.974,0.715 0.974,0.715 v 1.624 h 0.65 v -2.013 c -0.13,-1.3 -1.56,-1.3 -1.56,-1.3 z m 1.624,5.587 c 0,0 0.13,-1.754 -1.365,-2.014 0,0 -1.234,-0.195 -1.688,0.65 0,0 -0.78,1.234 0,2.663 0,0 0.454,0.974 1.883,0.714 0,0 1.234,-0.26 1.17,-2.013 z m -2.794,0.065 c 0,0 -0.13,-1.235 1.105,-1.105 0,0 1.104,-0.13 1.104,1.04 0,0 0.13,1.169 -1.104,1.169 0,-0.065 -1.105,0.065 -1.105,-1.104 z m 2.729,6.235 v -3.767 h -3.248 v 0.974 h 2.598 v 0.845 h -2.663 v 0.974 h 2.598 v 0.39 c 0,0.52 -0.39,0.584 -0.39,0.584 h -2.208 v 0.91 h 2.143 c 1.04,0.065 1.17,-0.91 1.17,-0.91 z m 6.885,-48.392 v 1.43 l -3.313,2.013 h 3.313 v 1.429 H 73.79 v -1.43 l 3.313,-2.013 H 73.79 V 70.932 Z M 78.077,83.6 v 1.364 h -0.65 v 0.78 h -0.454 v -0.78 H 73.79 V 83.6 h 3.183 v -0.78 h 0.455 v 0.78 h 0.65 z m -1.104,-6.95 v 1.363 H 73.79 v -1.364 h 3.183 z m 1.559,-0.066 v 1.43 h -0.974 v -1.43 z m -1.364,24.424 c 0,-1.105 -0.78,-2.014 -1.754,-2.014 -0.974,0 -1.754,0.91 -1.754,2.014 0,1.104 0.78,2.013 1.754,2.013 0.974,0.065 1.754,-0.844 1.754,-2.013 m -1.754,0.584 h -0.65 c -0.52,0 -0.714,-0.26 -0.714,-0.584 0,-0.26 0.195,-0.585 0.714,-0.585 h 1.365 c 0.52,0 0.714,0.325 0.714,0.585 0,0.26 -0.195,0.584 -0.714,0.584 z m -0.065,-4.417 h 0.585 c 0.52,0 0.584,-0.324 0.584,-0.52 0,-0.194 -0.13,-0.519 -0.584,-0.519 h -1.17 c -0.52,0 -0.65,0.325 -0.65,0.52 0,0.195 0.13,0.52 0.65,0.52 h 0.585 z m 3.183,0 v 1.364 H 73.79 v -1.364 h 0.195 c -0.325,-0.52 -0.325,-1.104 -0.13,-1.624 0.065,-0.13 0.455,-0.974 1.559,-0.974 0.844,0 1.754,0.78 1.689,1.754 0,0.325 -0.13,0.584 -0.26,0.78 z m -1.43,-15.914 c 0,0.52 -0.324,1.559 -1.558,1.559 H 73.79 v -1.364 h 2.079 c 0.26,0 0.584,-0.26 0.584,-0.65 0,-0.39 -0.324,-0.65 -0.584,-0.65 H 73.79 v -1.363 h 3.183 v 1.364 h -0.325 c 0.195,0.26 0.455,0.65 0.455,1.104 m 0,11.302 c 0,0.52 -0.325,1.56 -1.56,1.56 H 73.79 v -1.365 h 2.079 c 0.26,0 0.584,-0.26 0.584,-0.65 0,-0.389 -0.324,-0.649 -0.584,-0.649 H 73.79 v -1.364 h 3.183 v 1.364 h -0.325 c 0.195,0.26 0.455,0.65 0.455,1.104 M 74.894,88.211 H 74.7 c -0.585,0 -0.715,-0.39 -0.715,-0.584 0,-0.194 0.13,-0.585 0.715,-0.585 h 0.65 v 2.598 c 0.973,0 1.818,-0.909 1.818,-2.078 0,-1.17 -0.78,-2.079 -1.754,-2.079 -0.974,0 -1.754,0.91 -1.754,2.079 0,0.91 0.52,1.754 1.3,1.948 z m 0.975,-1.169 c 0.26,0 0.454,0 0.65,0.065 0.194,0.13 0.26,0.325 0.26,0.52 0,0.195 -0.066,0.39 -0.26,0.52 -0.13,0.064 -0.325,0.064 -0.65,0.064 z M 72.036,60.605 c -0.714,0 -1.299,-1.3 -1.299,-2.858 0,-1.558 0.585,-2.858 1.3,-2.858 0.714,0 1.298,1.299 1.298,2.858 -0.065,1.559 -0.584,2.858 -1.299,2.858 m -2.143,5.067 c -0.715,0 -1.3,-1.3 -1.3,-2.858 0,-1.56 0.585,-2.859 1.3,-2.859 0.714,0 1.299,1.3 1.299,2.859 0,1.558 -0.585,2.858 -1.3,2.858 m 1.365,0.324 c 1.429,-0.324 2.988,-1.559 2.338,-3.182 2.988,1.299 2.534,3.767 1.494,4.611 -0.78,0.715 -3.507,0.65 -3.832,-1.429 m 2.338,-5.001 c 1.43,-0.325 2.988,-1.56 2.339,-3.183 2.988,1.299 2.533,3.767 1.494,4.612 -0.845,0.714 -3.573,0.65 -3.833,-1.43"
     id="path42"
     inkscape:connector-curvature="0"
     style="fill:#4c4c4c" />
</svg>
