<?xml version="1.0" encoding="UTF-8" standalone="no"?>
<svg
   xmlns:dc="http://purl.org/dc/elements/1.1/"
   xmlns:cc="http://creativecommons.org/ns#"
   xmlns:rdf="http://www.w3.org/1999/02/22-rdf-syntax-ns#"
   xmlns:svg="http://www.w3.org/2000/svg"
   xmlns="http://www.w3.org/2000/svg"
   xmlns:xlink="http://www.w3.org/1999/xlink"
   xmlns:sodipodi="http://sodipodi.sourceforge.net/DTD/sodipodi-0.dtd"
   xmlns:inkscape="http://www.inkscape.org/namespaces/inkscape"
   viewBox="0 0 633.8759 292.82285"
   version="1.1"
   id="svg240"
   sodipodi:docname="controls.svg"
   width="633.87592"
   height="292.82285"
   inkscape:version="0.92.4 5da689c313, 2019-01-14">
  <metadata
     id="metadata246">
    <rdf:RDF>
      <cc:Work
         rdf:about="">
        <dc:format>image/svg+xml</dc:format>
        <dc:type
           rdf:resource="http://purl.org/dc/dcmitype/StillImage" />
      </cc:Work>
    </rdf:RDF>
  </metadata>
  <defs
     id="defs244" />
  <sodipodi:namedview
     pagecolor="#ffffff"
     bordercolor="#666666"
     borderopacity="1"
     objecttolerance="10"
     gridtolerance="10"
     guidetolerance="10"
     inkscape:pageopacity="0"
     inkscape:pageshadow="2"
     inkscape:window-width="471"
     inkscape:window-height="442"
     id="namedview242"
     showgrid="false"
     inkscape:zoom="0.42752773"
     inkscape:cx="316.93725"
     inkscape:cy="146.41188"
     inkscape:window-x="0"
     inkscape:window-y="0"
     inkscape:window-maximized="0"
     inkscape:current-layer="svg240" />
  <path
     d="m 406.40375,56.404962 c -1.191,0 -2.529,0.149 -3.72,0.596 -1.191,0.447 -2.084,1.638 -2.084,3.124 h 0.744 c 0,0.298 0,0.744 0.447,0.744 l 52.966,-0.149 c 18.896,0.596 35.41,6.099 49.691,14.879 0.595,0.298 0.893,-0.298 0.893,-0.596 0,-1.042 -0.149,-1.787 -0.149,-2.529 h 0.149 c 0,-1.042 0.149,-1.787 0,-2.531 -0.149,-0.742 -0.447,-1.489 -1.34,-1.933 -14.283,-8.035 -30.646,-11.754 -48.053,-11.754 h -49.544 z m -165.291,0 c 1.191,0 2.529,0.149 3.72,0.596 1.191,0.447 2.082,1.638 2.082,3.124 h -0.744 c 0,0.298 0,0.744 -0.447,0.744 l -52.964,-0.149 c -18.896,0.596 -35.41,6.099 -49.691,14.879 -0.596,0.298 -0.893,-0.298 -0.893,-0.596 0,-1.042 0.149,-1.787 0.149,-2.529 h -0.149 c 0,-1.042 -0.149,-1.787 0,-2.531 0.149,-0.742 0.447,-1.489 1.34,-1.933 14.281,-8.035 30.646,-11.754 48.053,-11.754 h 49.542 z"
     id="path2"
     inkscape:connector-curvature="0"
     style="fill:#bdbdbd" />
  <path
     d="m 190.97575,60.123962 h 125.568 v 1.787 h 14.281 v -1.787 h 125.419 c 53.264,0 96.408,43.146998 96.408,96.410998 0.149,53.259 -42.996,96.404 -96.26,96.404 -21.127,0 -40.467,-6.695 -56.386,-18.149 l -1.935,-1.489 a 20.259,20.259 0 0 0 -12.794,-4.462 h -123.186 a 20.57,20.57 0 0 0 -12.797,4.462 l -1.933,1.489 a 96.224,96.224 0 0 1 -56.386,18.149 c -53.264,0 -96.408005,-43.145 -96.408005,-96.404 0,-53.259 43.145005,-96.407998 96.408005,-96.407998 v -0.003 z"
     id="path4"
     inkscape:connector-curvature="0"
     style="fill:#cccccc" />
  <path
     d="M 94.566745,254.42696 V 55.215962 H 552.65075 V 254.42796 H 94.566745 Z"
     id="path6"
     inkscape:connector-curvature="0"
     style="fill:none" />
  <path
     d="m 267.74375,201.60996 c 0,-0.444 -0.149,-0.742 -0.447,-0.893 l -0.596,-0.444 c -0.893,-0.596 -1.338,-1.34 -1.338,-2.231 0,-0.447 0.149,-0.893 0.298,-1.191 0.149,-0.298 0.444,-0.596 0.893,-0.744 a 2.793,2.793 0 0 1 1.189,-0.298 c 0.596,0 1.042,0.298 1.489,0.744 0.298,0.447 0.595,1.042 0.595,1.787 h -1.34 c 0,-0.298 0,-0.596 -0.149,-0.744 -0.149,-0.149 -0.298,-0.298 -0.447,-0.298 -0.298,0 -0.447,0.149 -0.596,0.298 -0.149,0.149 -0.298,0.298 -0.298,0.596 0,0.298 0.149,0.596 0.595,0.893 0.447,0.298 0.744,0.444 1.042,0.596 0.596,0.444 0.893,1.189 0.893,2.082 0,0.444 -0.151,0.893 -0.298,1.191 a 1.792,1.792 0 0 1 -0.744,0.742 c -0.37,0.186 -0.777,0.288 -1.191,0.298 -0.298,0 -0.595,-0.149 -0.893,-0.149 -0.298,-0.149 -0.447,-0.298 -0.744,-0.596 -0.444,-0.447 -0.596,-1.191 -0.596,-1.933 h 1.34 c 0,0.447 0,0.742 0.149,0.893 0.149,0.147 0.298,0.298 0.596,0.298 0.298,0 0.447,0 0.596,-0.151 -0.149,-0.298 -0.149,-0.596 0,-0.742 z m 29.01,-4.312 h -1.787 l -0.891,6.397 h -1.338 l 0.893,-6.397 h -1.638 l 0.149,-1.489 h 4.759 c 0.002,0 -0.147,1.489 -0.147,1.489 z m -6.397,3.719 c 0,0.596 -0.149,1.04 -0.447,1.489 -0.298,0.444 -0.596,0.742 -0.893,1.04 -0.444,0.298 -0.742,0.298 -1.189,0.298 -0.596,0 -1.042,-0.298 -1.489,-0.744 -0.298,-0.447 -0.596,-1.191 -0.596,-2.084 0,-0.596 0,-1.189 0.149,-1.933 0.149,-0.742 0.298,-1.338 0.596,-1.787 0.298,-0.444 0.596,-0.891 0.893,-1.189 0.447,-0.298 0.744,-0.298 1.191,-0.298 0.595,0 1.191,0.298 1.489,0.744 0.444,0.447 0.596,1.191 0.596,2.084 h -1.191 c 0,-0.447 0,-0.893 -0.151,-1.042 -0.147,-0.149 -0.298,-0.298 -0.596,-0.298 -0.742,0 -1.189,0.744 -1.338,2.231 0,0.744 -0.149,1.191 -0.149,1.489 0,0.893 0.298,1.338 0.744,1.338 0.298,0 0.596,-0.149 0.744,-0.298 l 0.444,-0.893 z m -6.099,-0.595 h -2.231 l -0.298,1.933 h 2.529 l -0.149,1.489 h -4.017 l 1.042,-7.886 h 4.017 l -0.149,1.489 h -2.529 l -0.149,1.635 h 2.231 z m -7.44,1.786 h 2.382 l -0.149,1.486 h -3.871 l 1.042,-7.886 h 1.34 l -0.744,6.397 z m -2.677,-1.786 h -2.231 l -0.298,1.933 h 2.529 l -0.149,1.489 h -3.869 l 1.042,-7.886 h 4.017 l -0.149,1.489 h -2.531 l -0.147,1.635 h 2.231 z m 45.527,1.191 c 0,-0.447 -0.149,-0.744 -0.447,-0.893 l -0.744,-0.447 c -0.893,-0.596 -1.34,-1.34 -1.34,-2.231 0,-0.447 0.149,-0.893 0.298,-1.191 0.149,-0.298 0.447,-0.596 0.893,-0.744 a 2.802,2.802 0 0 1 1.191,-0.298 c 0.596,0 1.04,0.298 1.489,0.744 0.298,0.447 0.593,1.042 0.593,1.787 h -1.34 c 0,-0.298 0,-0.596 -0.149,-0.744 -0.149,-0.149 -0.298,-0.298 -0.444,-0.298 -0.298,0 -0.447,0.149 -0.595,0.298 -0.149,0.149 -0.298,0.298 -0.298,0.596 0,0.298 0.149,0.596 0.596,0.893 0.444,0.298 0.742,0.444 1.04,0.596 0.596,0.444 0.893,1.189 0.893,2.082 0,0.444 -0.149,0.893 -0.298,1.191 a 1.522,1.522 0 0 1 -0.893,0.742 c -0.37,0.186 -0.777,0.288 -1.191,0.298 -0.298,0 -0.596,-0.149 -0.891,-0.149 -0.298,-0.149 -0.447,-0.298 -0.744,-0.596 -0.447,-0.447 -0.596,-1.191 -0.596,-1.933 h 1.34 c 0,0.447 0,0.742 0.149,0.893 0.149,0.147 0.298,0.298 0.596,0.298 0.298,0 0.447,0 0.596,-0.151 0.147,-0.299 0.147,-0.597 0.296,-0.743 z m 24.993,-4.315 h -1.635 l -0.893,6.397 h -1.34 l 0.893,-6.397 h -1.635 l 0.149,-1.489 h 4.759 z m -9.224,2.23 h 0.744 c 0.149,0 0.447,0 0.596,-0.149 0.149,-0.149 0.298,-0.298 0.298,-0.596 0,-0.298 0.147,-0.444 0,-0.742 0,-0.447 -0.298,-0.596 -0.595,-0.596 h -0.893 l -0.149,2.084 v -0.001 z m -0.298,1.34 -0.298,2.826 h -1.34 l 1.042,-7.886 h 2.084 c 0.596,0 1.191,0.149 1.489,0.596 0.303,0.492 0.457,1.06 0.444,1.638 0,0.596 -0.149,1.04 -0.447,1.338 a 1.34,1.34 0 0 1 -0.893,0.893 l 0.744,3.124 v 0.149 h -1.489 l -0.596,-2.826 h -0.742 z m -5.801,1.338 -0.596,1.489 h -1.489 l 3.124,-7.886 h 1.34 l 1.042,7.886 h -1.489 l -0.149,-1.489 h -1.787 z m 0.595,-1.489 h 1.191 l -0.298,-2.675 -0.893,2.678 z m -2.531,-3.419 h -1.635 l -0.893,6.397 h -1.34 l 0.893,-6.397 h -1.635 l 0.149,-1.489 h 4.759 z"
     id="path8"
     inkscape:connector-curvature="0"
     style="fill:#4c4c4c" />
  <path
     d="m 246.31875,155.48996 c 0,30.201 -24.4,54.75 -54.601,54.75 -30.201,0 -54.601,-24.549 -54.601,-54.75 0,-30.201 24.4,-54.75 54.604,-54.75 30.204,0 54.597,24.549 54.597,54.75"
     id="path10"
     inkscape:connector-curvature="0"
     style="fill:#999999" />
  <path
     d="m 246.31875,155.48996 c 0,30.201 -24.4,54.75 -54.601,54.75 -30.201,0 -54.601,-24.549 -54.601,-54.75 0,-30.201 24.4,-54.75 54.604,-54.75 30.204,0 54.597,24.549 54.597,54.75"
     id="path12"
     inkscape:connector-curvature="0"
     style="fill:none;stroke:#999999;stroke-width:1.19099998" />
  <path
     d="m 244.53475,155.48996 c 0,29.311 -23.655,52.966 -52.966,52.966 -29.308,0 -52.964,-23.655 -52.964,-52.966 0,-29.308 23.655,-52.964 52.964,-52.964 29.31,0.001 52.966,23.656 52.966,52.964"
     id="path14"
     inkscape:connector-curvature="0"
     style="fill:#cccccc" />
  <path
     d="m 543.42775,155.64196 c 0,47.904 -38.981,86.885 -86.887,86.885 -48.053,0 -86.885,-38.981 -86.885,-86.887 0,-48.053 38.978,-86.884998 86.885,-86.884998 47.906,-0.149 86.887,38.829998 86.887,86.884998"
     id="path16"
     inkscape:connector-curvature="0"
     style="fill:#666666" />
  <path
     d="m 229.65575,141.80296 h -24.251 v -24.4 a 1.97,1.97 0 0 0 -1.933,-1.933 h -23.655 a 1.97,1.97 0 0 0 -1.935,1.933 v 24.4 h -24.249 a 1.969,1.969 0 0 0 -1.935,1.935 v 23.507 a 1.97,1.97 0 0 0 1.935,1.933 h 24.249 v 24.4 a 1.97,1.97 0 0 0 1.935,1.933 h 23.655 c 1.042,0 1.933,-0.893 1.933,-1.933 v -24.4 h 24.4 c 1.042,0 1.935,-0.893 1.935,-1.933 v -23.655 a 2.083,2.083 0 0 0 -2.084,-1.787"
     id="path18"
     inkscape:connector-curvature="0"
     style="fill:#4c4c4c" />
  <path
     d="m 157.34975,152.96196 c -2.38,1.34 -2.38,3.571 0,4.908 l 9.375,5.357 c 2.38,1.34 4.313,0.744 4.313,-1.34 v -12.645 c 0,-2.084 -1.933,-2.826 -4.313,-1.34 l -9.377,5.06 c -2.38,1.34 -2.38,3.571 0,4.908 l 9.375,5.357 c 2.38,1.34 4.313,0.744 4.313,-1.34 v -12.645 c 0,-2.084 -1.933,-2.826 -4.313,-1.34 l -9.375,5.06 z m 68.438,0 c 2.382,1.34 2.382,3.571 0,4.908 l -9.37,5.357 c -2.382,1.34 -4.315,0.744 -4.315,-1.34 v -12.645 c 0,-2.084 1.935,-2.826 4.315,-1.34 l 9.37,5.06 c 2.382,1.34 2.382,3.571 0,4.908 l -9.37,5.357 c -2.382,1.34 -4.315,0.744 -4.315,-1.34 v -12.645 c 0,-2.084 1.935,-2.826 4.315,-1.34 z m -31.688,-31.539 c -1.34,-2.382 -3.573,-2.382 -4.911,0 l -5.355,9.224 c -1.34,2.38 -0.744,4.313 1.489,4.313 h 12.643 c 2.084,0 2.829,-1.933 1.489,-4.313 l -5.355,-9.226 c -1.34,-2.382 -3.573,-2.382 -4.911,0 l -5.355,9.226 c -1.34,2.38 -0.744,4.313 1.489,4.313 h 12.643 c 2.084,0 2.829,-1.933 1.489,-4.313 l -5.355,-9.226 z m 0,68.286 c -1.34,2.382 -3.573,2.382 -4.911,0 l -5.355,-9.372 c -1.34,-2.382 -0.744,-4.315 1.489,-4.315 h 12.643 c 2.084,0 2.829,1.935 1.489,4.315 l -5.355,9.372 c -1.34,2.382 -3.573,2.382 -4.911,0 l -5.355,-9.372 c -1.34,-2.382 -0.744,-4.315 1.489,-4.315 h 12.643 c 2.084,0 2.829,1.935 1.489,4.315 z m 101.168,-22.613 -19.638,15.323 c -6.695,5.357 -15.176,-4.313 -7.886,-10.117 l 19.638,-15.323 c 6.992,-5.357 15.025,4.76 7.886,10.117 m 49.244,0 -19.638,15.323 c -6.695,5.357 -15.174,-4.313 -7.886,-10.117 l 19.64,-15.323 c 6.993,-5.357 15.025,4.76 7.884,10.117"
     id="path20"
     inkscape:connector-curvature="0"
     style="fill:#666666" />
  <path
     d="m 486.29775,92.707962 h -3.126 l 4.017,4.76 -4.315,5.207998 h 2.978 l 2.826,-3.421998 2.826,3.421998 h 2.975 l -4.315,-5.207998 4.017,-4.76 h -3.124 l -2.382,2.826 -2.38,-2.826 z m 39.425,35.555998 h 2.975 l 4.464,9.819 h -2.382 l -1.191,-2.529 h -4.908 l -1.191,2.529 h -2.38 z m 2.975,5.358 -1.489,-3.422 -1.489,3.273 z m -144.166,42.846 h -2.677 l 4.464,5.504 v 4.613 h 2.382 v -4.613 l 4.462,-5.504 h -2.68 l -2.973,3.72 z"
     id="path22"
     inkscape:connector-curvature="0"
     style="fill:#d8d8d8" />
  <path
     d="m 422.02375,211.13396 h 6.546 c 4.169,0.298 4.315,4.611 0.298,4.908 5.06,0.149 4.613,5.208 -0.298,5.357 h -6.546 z m 6.546,8.33 c 1.638,-0.298 1.638,-2.084 0,-2.38 h -4.015 v 2.382 h 4.015 z m 0,-4.313 c 1.638,-0.596 1.042,-2.084 0,-2.233 h -4.015 v 2.233 z"
     id="path24"
     inkscape:connector-curvature="0"
     style="fill:#cccccc" />
  <path
     d="m 412.80075,138.53196 c -9.924,-0.019 -17.984,8.01 -18.003,17.934 v 0.066 c -0.019,9.924 8.01,17.984 17.934,18.003 h 0.069 c 9.924,0.019 17.984,-8.01 18.003,-17.934 v -0.069 c 0.019,-9.924 -8.01,-17.984 -17.934,-18.003 h -0.069 z m 0,1.487 c 9.1,-0.02 16.494,7.34 16.514,16.441 v 0.073 c 0.02,9.1 -7.34,16.494 -16.441,16.514 h -0.073 c -9.075,0 -16.514,-7.29 -16.514,-16.514 0,-9.224 7.439,-16.514 16.514,-16.514 z m 43.591,-35.559 c -9.924,-0.019 -17.984,8.01 -18.003,17.934 v 0.069 c 0,9.968 8.035,18.003 18.003,18.003 9.968,0 18.003,-8.035 18.003,-18.003 0.019,-9.924 -8.01,-17.984 -17.934,-18.003 z m 0,1.489 c 9.1,-0.02 16.494,7.34 16.514,16.441 v 0.073 c 0.02,9.1 -7.34,16.494 -16.441,16.514 h -0.073 c -9.224,0 -16.365,-7.439 -16.365,-16.514 0,-9.075 7.29,-16.514 16.365,-16.514 z m 1.489,65.758 c -9.924,-0.019 -17.984,8.01 -18.003,17.934 v 0.069 c -0.019,9.924 8.01,17.984 17.934,18.003 h 0.069 c 9.924,0.019 17.984,-8.01 18.003,-17.934 v -0.069 c 0.019,-9.924 -8.01,-17.984 -17.934,-18.003 z m 0,1.488 c 9.075,0 16.365,7.29 16.365,16.514 0.025,9.013 -7.26,16.34 -16.273,16.365 h -0.092 c -9.077,0 -16.514,-7.29 -16.514,-16.365 0.149,-9.223 7.437,-16.514 16.514,-16.514 z m 43.591,-35.558 c -9.924,-0.019 -17.984,8.01 -18.003,17.934 v 0.069 c 0,9.968 8.035,18.003 18.003,18.003 9.968,0 18.003,-8.035 18.003,-18.003 0.019,-9.924 -8.01,-17.984 -17.934,-18.003 z m 0,1.488 c 9.1,-0.02 16.494,7.34 16.514,16.441 v 0.073 c 0.02,9.1 -7.34,16.494 -16.441,16.514 h -0.073 c -9.1,0.02 -16.494,-7.34 -16.514,-16.441 v -0.073 c 0.149,-9.074 7.439,-16.514 16.514,-16.514 z"
     id="path26"
     inkscape:connector-curvature="0"
     style="fill:#f4f4f4" />
  <path
     d="m 518.13475,142.54696 c 7.141,9.224 5.504,22.464 -3.72,29.755 l -43.591,34.072 c -9.224,7.142 -22.464,5.506 -29.755,-3.72 -7.142,-9.224 -5.506,-22.464 3.72,-29.753 l 43.74,-33.921 a 21.17,21.17 0 0 1 11.603,-4.466 c 6.546,-0.444 13.539,2.233 18.003,8.035 z"
     id="path28"
     inkscape:connector-curvature="0"
     style="fill:#d8d8d8" />
  <path
     d="m 501.47175,137.63896 c 9.924,-0.019 17.984,8.01 18.003,17.934 v 0.069 c 0,9.966 -8.035,18 -18.003,18 -9.968,0 -18.003,-8.035 -18.003,-18.003 0.149,-9.968 8.184,-18.003 18.003,-18.003 z"
     id="path30"
     inkscape:connector-curvature="0"
     style="fill:#eb2d2f" />
  <path
     d="m 473.20375,109.51896 c 7.142,9.224 5.506,22.464 -3.72,29.755 l -43.591,34.07 c -9.224,7.142 -22.464,5.504 -29.755,-3.72 -7.142,-9.224 -5.504,-22.464 3.72,-29.755 l 43.74,-33.921 a 21.171,21.171 0 0 1 11.606,-4.464 c 6.546,-0.596 13.536,2.231 18.003,8.035 z"
     id="path32"
     inkscape:connector-curvature="0"
     style="fill:#d8d8d8" />
  <path
     d="m 456.39175,104.45996 c 9.924,-0.019 17.984,8.01 18.003,17.934 v 0.069 c 0,9.968 -8.035,18.003 -18.003,18.003 -9.968,0 -18.003,-8.035 -18.003,-18.003 0.151,-9.968 8.184,-18.003 18.003,-18.003 z"
     id="path34"
     inkscape:connector-curvature="0"
     style="fill:#323b98" />
  <path
     d="m 457.88075,171.70696 c 9.924,-0.019 17.984,8.01 18.003,17.934 v 0.069 c 0.019,9.924 -8.01,17.984 -17.934,18.003 h -0.069 c -9.924,0.019 -17.984,-8.01 -18.003,-17.934 v -0.069 c -0.019,-9.924 8.01,-17.984 17.934,-18.003 z"
     id="path36"
     inkscape:connector-curvature="0"
     style="fill:#f9ec2b" />
  <path
     d="m 412.80075,138.53196 c 9.924,-0.019 17.984,8.01 18.003,17.934 v 0.066 c 0.019,9.924 -8.01,17.984 -17.934,18.003 h -0.069 c -9.924,0.019 -17.984,-8.01 -18.003,-17.934 v -0.069 c -0.019,-9.924 8.01,-17.984 17.934,-18.003 h 0.069 z"
     id="path38"
     inkscape:connector-curvature="0"
     style="fill:#01954b" />
  <circle
     cx="191.56876"
     cy="155.48997"
     r="10.861"
     id="circle40"
     style="fill:#595959" />
  <path
     d="m 264.02375,93.153962 c 0,0 -0.298,-0.149 -0.596,-0.149 h -3.571 c 0,0 -0.447,-0.298 -0.447,-0.893 0,0 0.149,-0.596 0.893,-0.596 h 4.911 v -1.34 h -6.397 c 0,0 -1.489,0 -1.935,1.787 0,0 -0.447,2.529 2.084,2.529 h 3.273 c 0,0 1.04,0.149 0.893,0.893 0,0 -0.151,0.744 -0.747,0.744 h -5.057 v 1.489 h 5.802 c 0,0 2.233,0.298 2.531,-1.935 10e-4,0 0.15,-2.084 -1.637,-2.529 z m 8.333,2.976 h -2.68 c 0,0 -1.04,-0.149 -1.04,-1.042 v -4.911 h -2.233 v 5.506 c 0,0 0.596,1.933 2.233,1.933 h 5.802 v -7.439 h -2.231 v 5.953 z m 9.521,-6.1 h -6.099 v 7.586 h 2.082 v -2.529 h 3.72 c 2.529,-0.298 2.382,-2.529 2.382,-2.529 -0.152,-2.232 -2.085,-2.528 -2.085,-2.528 z m -1.191,3.569 h -2.68 v -2.082 h 2.829 c 0.744,0 0.893,0.893 0.893,0.893 -0.298,1.338 -1.042,1.191 -1.042,1.191 z m 4.017,0.297 c 0,0 -0.447,3.124 3.124,3.72 h 4.464 v -1.489 h -3.871 c 0,0 -1.189,0 -1.338,-1.635 h 5.357 v -1.489 h -5.208 c 0,0 0.149,-1.338 1.489,-1.486 h 3.72 v -1.489 h -4.613 c -0.149,0 -3.124,0.298 -3.124,3.871 z m 17.408,-1.488 c 0,-2.231 -2.233,-2.377 -2.233,-2.377 h -6.248 v 7.586 h 2.233 v -2.827 h 2.231 l 1.933,2.826 h 2.531 l -2.233,-2.826 c 1.786,-0.447 1.786,-2.382 1.786,-2.382 z m -3.871,1.044 h -2.526 v -1.935 h 2.529 c 0,0 1.338,-0.149 1.338,1.042 0.149,0 0.298,0.893 -1.338,0.893 z m 8.928,-0.595 v 4.76 h 2.233 v -2.975 h 5.355 v -1.635 h -5.355 v -0.447 c 0.149,-0.893 1.489,-1.191 1.489,-1.191 h 3.866 v -1.339 h -4.613 c -2.529,0.147 -2.975,2.827 -2.975,2.827 z m 13.836,-2.68 h -4.908 v 1.489 h 3.866 c 1.489,0 1.638,1.489 1.638,1.489 h -3.72 c -2.529,0.149 -2.529,2.38 -2.529,2.38 0,2.382 2.68,2.382 2.68,2.382 h 5.799 v -4.169 c 10e-4,-3.273 -2.826,-3.571 -2.826,-3.571 z m 0.596,6.101 h -2.978 c 0,0 -0.742,0 -0.742,-0.893 0,0 0.149,-0.893 0.893,-0.893 h 2.975 v 1.787 h -0.148 z m 12.05,-6.101 h -8.628 v 7.439 h 2.231 v -5.951 h 1.935 v 6.099 h 2.231 v -5.951 h 0.893 c 1.191,0 1.338,0.893 1.338,0.893 v 5.055 h 2.084 v -4.908 c 0.298,-2.382 -2.084,-2.68 -2.084,-2.68 z m 3.573,7.439 h 2.38 v -7.439 h -2.382 v 7.439 z m 3.419,-3.72 c 0,3.72 3.124,3.871 3.124,3.871 h 4.315 v -1.489 h -3.72 c -1.635,-0.298 -1.489,-2.233 -1.489,-2.233 0,-2.529 1.638,-2.231 1.638,-2.231 h 3.72 v -1.489 h -4.611 c -2.978,0.298 -2.978,3.573 -2.978,3.573 z m 12.797,-3.719 c 0,0 -4.017,-0.298 -4.613,3.126 0,0 -0.447,2.826 1.489,3.866 0,0 2.826,1.787 6.099,0 0,0 2.231,-1.04 1.635,-4.313 0,10e-4 -0.595,-2.826 -4.61,-2.679 z m 0.149,6.399 c 0,0 -2.829,0.298 -2.531,-2.531 0,0 -0.298,-2.529 2.382,-2.529 0,0 2.678,-0.298 2.678,2.529 -0.15,0 0.148,2.531 -2.529,2.531 z m 14.28,-6.25 h -8.628 v 7.439 h 2.231 v -5.951 h 1.935 v 6.099 h 2.231 v -5.951 h 0.893 c 1.191,0 1.338,0.893 1.338,0.893 v 5.057 h 2.084 v -4.908 c 0.15,-2.381 -2.084,-2.678 -2.084,-2.678 z m -110.838,-15.77 h 3.275 l 4.611,7.588 v -7.588 h 3.273 v 10.861 h -3.275 l -4.611,-7.588 v 7.588 h -3.273 z m 29.015,1.042 h 3.124 v 1.489 h 1.787 v 1.04 h -1.787 v 7.29 h -3.124 v -7.29 h -1.786 v -1.042 h 1.786 v -1.489 z m -15.918,2.529 h 3.122 v 7.29 h -3.124 v -7.29 z m -0.151,-3.571 h 3.275 v 2.231 h -3.275 z m 55.941,3.124 c -2.531,0 -4.613,1.787 -4.613,4.017 0,2.231 2.084,4.017 4.613,4.017 2.529,0 4.611,-1.787 4.611,-4.017 0.149,-2.23 -1.933,-4.017 -4.611,-4.017 m 1.338,4.018 v 1.489 c 0,1.191 -0.596,1.635 -1.338,1.635 -0.595,0 -1.34,-0.447 -1.34,-1.635 v -3.127 c 0,-1.191 0.744,-1.635 1.34,-1.635 0.596,0 1.338,0.447 1.338,1.635 z m -10.117,0.149 v -1.34 c 0,-1.191 -0.742,-1.338 -1.191,-1.338 -0.444,0 -1.189,0.298 -1.189,1.338 v 2.68 c 0,1.191 0.744,1.489 1.191,1.489 0.447,0 1.191,-0.298 1.191,-1.489 v -1.34 z m 0,-7.291 h 3.124 v 10.861 h -3.124 v -0.447 c -1.191,0.744 -2.529,0.744 -3.72,0.298 -0.298,-0.149 -2.231,-1.042 -2.231,-3.571 0,-1.933 1.787,-4.017 4.017,-3.869 0.744,0 1.338,0.298 1.786,0.596 z m -36.45,3.275 c 1.191,0 3.571,0.742 3.571,3.568 v 4.017 h -3.124 v -4.762 c 0,-0.596 -0.595,-1.338 -1.489,-1.338 -0.893,0 -1.489,0.742 -1.489,1.338 v 4.762 h -3.122 v -7.29 h 3.124 v 0.744 c 0.596,-0.447 1.489,-1.042 2.529,-1.042 m 25.887,0.001 c 1.191,0 3.573,0.744 3.573,3.573 v 4.015 h -3.126 v -4.762 c 0,-0.596 -0.596,-1.338 -1.489,-1.338 -0.891,0 -1.486,0.742 -1.486,1.338 v 4.762 h -3.124 v -7.29 h 3.124 v 0.744 c 0.594,-0.446 1.488,-1.042 2.528,-1.042 m -9.968,5.06 v 0.444 c 0,1.34 -0.893,1.638 -1.338,1.638 -0.445,0 -1.34,-0.298 -1.34,-1.638 v -1.489 h 5.951 c 0,-2.229 -2.082,-4.164 -4.76,-4.164 -2.68,0 -4.762,1.787 -4.762,4.017 0,2.23 2.084,4.017 4.762,4.017 2.084,0 4.017,-1.191 4.462,-2.978 z m -2.678,-2.233 c 0,-0.596 0,-1.04 0.149,-1.489 0.298,-0.444 0.744,-0.596 1.191,-0.596 0.447,0 0.893,0.151 1.191,0.596 0.147,0.298 0.147,0.744 0.147,1.489 z m -60.552,8.779 c 0,1.635 -2.978,2.975 -6.546,2.975 -3.568,0 -6.546,-1.34 -6.546,-2.978 0,-1.635 2.975,-2.973 6.546,-2.973 3.571,0.149 6.546,1.338 6.546,2.976 m 11.606,4.908 c 0,1.638 -2.978,2.978 -6.546,2.978 -3.573,0 -6.548,-1.34 -6.548,-2.978 0,-1.635 2.978,-2.975 6.548,-2.975 3.568,0 6.546,1.34 6.546,2.978 m 0.742,-3.127 c -0.742,-3.273 -3.571,-6.844 -7.288,-5.355 2.975,-6.844 8.628,-5.804 10.561,-3.422 1.638,1.787 1.489,8.033 -3.273,8.777 m -11.455,-5.355 c -0.744,-3.275 -3.573,-6.844 -7.29,-5.357 2.975,-6.844 8.628,-5.802 10.563,-3.422 1.635,1.935 1.489,8.184 -3.275,8.779"
     id="path42"
     inkscape:connector-curvature="0"
     style="fill:#4c4c4c" />
  <path
     d="M 4.158745,133.09096 H 118.59375 a 3.764,3.764 0 0 1 3.765,3.765 v 34.503 a 3.764,3.764 0 0 1 -3.765,3.765 H 4.158745 a 3.764,3.764 0 0 1 -3.76399999,-3.765 v -34.503 a 3.765,3.765 0 0 1 3.76399999,-3.765 z"
     id="path44"
     inkscape:connector-curvature="0"
     style="fill:#f1f1f1;fill-opacity:0.8;stroke:#35495e;stroke-width:0.78948975" />
  <path
     d="m 24.876745,172.98796 h -7.2 c -2.318,0 -3.159,-1.89 -3.159,-3.16 v -8.842 h -8.844 c -2.319,0 -3.16,-1.89 -3.16,-3.16 v -7.2 c 0,-2.318 1.89,-3.16 3.16,-3.16 h 8.844 v -8.843 c 0,-2.319 1.889,-3.16 3.158,-3.16 h 7.201 c 2.319,0 3.16,1.89 3.16,3.16 v 8.843 h 8.841 c 1.217,0 2.182,0.532 2.718,1.499 0.21,0.38 0.462,1.126 0.435,1.66 h 0.008 v 7.2 c 0,2.318 -1.89,3.16 -3.16,3.16 h -8.842 v 8.842 c 0,2.32 -1.89,3.16 -3.16,3.16 z m -19.203,-24.004 c -0.38,0.006 -1.641,0.14 -1.641,1.64 v 7.2 c 0.006,0.38 0.14,1.642 1.641,1.642 h 10.362 v 10.36 c 0.005,0.381 0.14,1.642 1.64,1.642 h 7.197 c 0.389,-0.006 1.645,-0.144 1.645,-1.641 v -10.36 h 10.36 c 0.38,-0.006 1.64,-0.142 1.64,-1.642 v -7.21 c -0.004,-0.291 -0.113,-1.63 -1.64,-1.63 h -10.358 v -10.362 c -0.007,-0.38 -0.141,-1.641 -1.642,-1.641 h -7.2 c -0.381,0.006 -1.64,0.14 -1.64,1.641 v 10.361 h -10.364 z"
     id="path46"
     inkscape:connector-curvature="0"
     style="fill:#35495e" />
  <path
     d="m 21.278745,157.92296 c -2.038,0 -3.696,-1.658 -3.696,-3.697 0,-2.039 1.658,-3.696 3.695,-3.696 a 3.7,3.7 0 0 1 3.696,3.696 3.7,3.7 0 0 1 -3.696,3.697 z m 0,-5.874 a 2.18,2.18 0 0 0 -2.177,2.177 c 0,1.202 0.976,2.178 2.176,2.178 1.201,0 2.177,-0.977 2.177,-2.178 0,-1.201 -0.977,-2.177 -2.177,-2.177 z"
     id="path48"
     inkscape:connector-curvature="0"
     style="fill:#35495e" />
  <g
     id="g54"
     style="fill:#35495e"
     transform="translate(-0.00125499,-3.8074947e-5)">
    <path
       d="m 21.278,138.686 -3.043,4.743 h 6.088 z"
       id="path50"
       inkscape:connector-curvature="0" />
    <path
       d="m 24.322,144.188 h -6.088 a 0.761,0.761 0 0 1 -0.639,-1.17 l 3.043,-4.742 c 0.28,-0.437 1,-0.436 1.278,0 l 3.045,4.743 a 0.76,0.76 0 0 1 -0.639,1.17 z m -4.697,-1.518 h 3.308 l -1.655,-2.578 z"
       id="path52"
       inkscape:connector-curvature="0" />
  </g>
  <g
     id="g60"
     style="fill:#35495e"
     transform="translate(-0.00125499,-3.8074947e-5)">
    <path
       d="m 5.68,154.226 4.742,3.042 v -6.085 l -4.743,3.043 z"
       id="path56"
       inkscape:connector-curvature="0" />
    <path
       d="m 10.422,158.028 a 0.759,0.759 0 0 1 -0.41,-0.12 l -4.743,-3.043 a 0.757,0.757 0 0 1 0,-1.278 l 4.743,-3.043 a 0.761,0.761 0 0 1 1.17,0.639 v 6.085 a 0.76,0.76 0 0 1 -0.76,0.76 z m -3.336,-3.802 2.577,1.653 v -3.306 z"
       id="path58"
       inkscape:connector-curvature="0" />
  </g>
  <g
     id="g66"
     style="fill:#35495e"
     transform="translate(-0.00125499,-3.8074947e-5)">
    <path
       d="m 36.82,154.225 -4.743,-3.042 v 6.085 l 4.744,-3.043 z"
       id="path62"
       inkscape:connector-curvature="0" />
    <path
       d="m 32.078,158.028 a 0.76,0.76 0 0 1 -0.76,-0.76 v -6.085 a 0.758,0.758 0 0 1 1.17,-0.64 l 4.745,3.043 a 0.76,0.76 0 0 1 0,1.278 l -4.745,3.043 a 0.762,0.762 0 0 1 -0.41,0.12 z m 0.76,-5.456 v 3.307 l 2.577,-1.654 -2.578,-1.653 z"
       id="path64"
       inkscape:connector-curvature="0" />
  </g>
  <g
     id="g72"
     style="fill:#35495e"
     transform="translate(-0.00125499,-3.8074947e-5)">
    <path
       d="m 21.278,169.766 3.045,-4.743 h -6.088 z"
       id="path68"
       inkscape:connector-curvature="0" />
    <path
       d="m 21.278,170.525 a 0.76,0.76 0 0 1 -0.639,-0.35 l -3.043,-4.742 a 0.761,0.761 0 0 1 0.64,-1.17 h 6.087 a 0.758,0.758 0 0 1 0.64,1.17 l -3.046,4.743 a 0.76,0.76 0 0 1 -0.639,0.35 z m -1.653,-4.743 1.653,2.577 1.655,-2.577 z"
       id="path70"
       inkscape:connector-curvature="0" />
  </g>
  <g
     id="g76"
     style="fill:#35495e"
     transform="translate(-0.00125499,-3.8074947e-5)">
    <path
       d="M 52.327,161.582 V 146.086 H 56.7 c 1.348,0 2.54,0.298 3.576,0.894 1.036,0.596 1.834,1.444 2.395,2.544 0.567,1.1 0.855,2.363 0.862,3.789 v 0.99 c 0,1.461 -0.284,2.742 -0.852,3.842 a 5.912,5.912 0 0 1 -2.416,2.533 c -1.043,0.589 -2.26,0.89 -3.65,0.904 h -4.29 z m 2.044,-13.814 v 12.143 h 2.15 c 1.575,0 2.798,-0.489 3.671,-1.468 0.88,-0.98 1.32,-2.373 1.32,-4.183 v -0.904 c 0,-1.76 -0.415,-3.126 -1.245,-4.098 -0.824,-0.98 -1.994,-1.476 -3.512,-1.49 H 54.37 Z m 16.049,8.035 h -5.194 v -1.607 h 5.194 z m 4.257,-0.287 v 6.066 h -2.043 v -15.496 h 5.715 c 1.696,0 3.023,0.433 3.98,1.299 0.966,0.865 1.448,2.011 1.448,3.437 0,1.505 -0.472,2.665 -1.416,3.48 -0.936,0.81 -2.28,1.214 -4.033,1.214 h -3.65 z m 0,-1.671 h 3.672 c 1.093,0 1.93,-0.256 2.512,-0.766 0.582,-0.518 0.873,-1.263 0.873,-2.235 0,-0.923 -0.291,-1.66 -0.873,-2.214 -0.582,-0.553 -1.38,-0.84 -2.395,-0.862 h -3.788 v 6.077 z m 18.817,3.693 h -6.492 l -1.459,4.045 h -2.107 l 5.917,-15.497 h 1.789 l 5.928,15.497 h -2.097 l -1.48,-4.045 z m -5.875,-1.681 h 5.268 l -2.64,-7.248 z m 11.537,5.725 v -15.496 h 4.374 c 1.349,0 2.54,0.298 3.576,0.894 1.036,0.596 1.835,1.444 2.395,2.544 0.568,1.1 0.855,2.363 0.862,3.789 v 0.99 c 0,1.461 -0.284,2.742 -0.852,3.842 a 5.912,5.912 0 0 1 -2.415,2.533 c -1.044,0.589 -2.26,0.89 -3.651,0.904 z m 2.043,-13.814 v 12.143 h 2.15 c 1.575,0 2.8,-0.489 3.672,-1.468 0.88,-0.98 1.32,-2.373 1.32,-4.183 v -0.904 c 0,-1.76 -0.415,-3.126 -1.245,-4.098 -0.824,-0.98 -1.994,-1.476 -3.512,-1.49 z"
       id="path74"
       inkscape:connector-curvature="0" />
  </g>
  <path
     d="m 317.52475,250.39996 h 117.06 a 3.764,3.764 0 0 1 3.764,3.763 v 34.497 a 3.764,3.764 0 0 1 -3.764,3.764 h -117.06 a 3.764,3.764 0 0 1 -3.764,-3.764 v -34.497 a 3.764,3.764 0 0 1 3.764,-3.764 z"
     id="path78"
     inkscape:connector-curvature="0"
     style="fill:#f1f1f1;fill-opacity:0.8;stroke:#35495e;stroke-width:0.79775327" />
  <path
     d="m 349.12875,268.16896 h 1.434 v -6.063 h 2.558 v -1.128 h -6.548 v 1.128 h 2.557 z m -8.694,-3.966 v -2.097 h 2.476 c 0.753,0 1.223,0.29 1.223,1.036 0,0.806 -0.43,1.06 -1.223,1.06 h -2.476 z m -1.431,3.966 h 1.43 v -2.84 h 2.438 c 1.05,0 1.185,0.726 1.185,1.751 0,0.525 0.068,0.888 0.174,1.089 h 1.548 c -0.28,-0.394 -0.289,-1.197 -0.289,-1.543 0,-1.016 -0.18,-1.762 -0.992,-1.94 v -0.021 c 0.642,-0.21 1.126,-0.795 1.126,-1.733 0,-1.117 -0.562,-1.95 -2.3,-1.95 h -4.317 z m -8.865,0 h 1.548 l 0.706,-1.782 h 3.21 l 0.716,1.782 h 1.6 l -3.039,-7.19 h -1.7 l -3.04,7.19 z m 2.685,-2.91 1.184,-3.035 1.166,3.035 z m -6.716,2.91 h 1.431 v -6.063 h 2.561 v -1.128 h -6.553 v 1.128 h 2.561 z m -9.782,-5.169 c 0,2.949 5.024,1.396 5.024,3.18 0,0.79 -0.81,1.062 -1.68,1.062 -1.176,0 -1.919,-0.455 -1.958,-1.404 h -1.547 c 0.021,1.513 1.003,2.532 3.461,2.532 1.452,0 3.273,-0.485 3.273,-2.34 0,-3.071 -5.082,-1.45 -5.082,-3.14 0,-0.675 0.63,-0.986 1.586,-0.986 1.193,0 1.672,0.603 1.722,1.158 h 1.547 c -0.184,-2.088 -2.285,-2.286 -3.337,-2.286 -1.663,0 -3.01,0.621 -3.01,2.224 m 32.955,8.73 h -29.305 c -2.118,0 -3.836,1.769 -3.836,3.949 0,2.18 1.718,3.948 3.836,3.948 h 29.305 c 2.119,0 3.836,-1.767 3.836,-3.948 0,-2.181 -1.717,-3.948 -3.836,-3.948 z"
     id="path80"
     inkscape:connector-curvature="0"
     style="fill:#35495e" />
  <g
     id="g84"
     style="fill:#35495e"
     transform="translate(-0.00125499,-3.8074947e-5)">
    <path
       d="m 370.255,271.98 c -1.752,-0.504 -3.03,-1.122 -3.831,-1.853 -0.795,-0.738 -1.192,-1.646 -1.192,-2.724 0,-1.22 0.486,-2.228 1.458,-3.023 0.98,-0.802 2.25,-1.203 3.81,-1.203 1.065,0 2.012,0.206 2.842,0.618 0.837,0.411 1.483,0.979 1.937,1.702 a 4.33,4.33 0 0 1 0.692,2.374 h -2.054 c 0,-0.937 -0.298,-1.671 -0.894,-2.203 -0.596,-0.54 -1.437,-0.81 -2.523,-0.81 -1.007,0 -1.795,0.224 -2.362,0.671 -0.561,0.44 -0.841,1.054 -0.841,1.841 0,0.632 0.266,1.168 0.798,1.607 0.54,0.433 1.451,0.83 2.735,1.192 1.292,0.362 2.3,0.763 3.023,1.203 0.73,0.433 1.27,0.94 1.618,1.522 0.354,0.582 0.532,1.267 0.532,2.054 0,1.256 -0.49,2.264 -1.469,3.023 -0.98,0.752 -2.288,1.128 -3.927,1.128 a 7.335,7.335 0 0 1 -2.98,-0.607 c -0.922,-0.412 -1.636,-0.972 -2.14,-1.682 -0.496,-0.709 -0.744,-1.514 -0.744,-2.415 h 2.054 c 0,0.936 0.344,1.678 1.032,2.224 0.695,0.54 1.621,0.809 2.778,0.809 1.078,0 1.905,-0.22 2.48,-0.66 0.575,-0.44 0.862,-1.04 0.862,-1.798 0,-0.758 -0.266,-1.345 -0.798,-1.756 -0.533,-0.419 -1.498,-0.83 -2.896,-1.235 z m 19.083,-6.908 h -4.98 v 13.815 h -2.033 v -13.815 h -4.97 v -1.682 h 11.983 z m 10.026,9.77 h -6.492 l -1.458,4.045 h -2.108 l 5.918,-15.497 h 1.788 l 5.928,15.497 h -2.097 z m -5.875,-1.681 h 5.268 l -2.64,-7.248 z m 17.221,-0.543 h -3.64 v 6.269 h -2.054 V 263.39 h 5.13 c 1.745,0 3.086,0.398 4.023,1.192 0.943,0.795 1.415,1.951 1.415,3.47 0,0.965 -0.262,1.806 -0.787,2.522 -0.518,0.717 -1.242,1.252 -2.172,1.607 l 3.64,6.577 v 0.128 h -2.192 z m -3.64,-1.671 h 3.14 c 1.014,0 1.82,-0.263 2.415,-0.788 0.603,-0.525 0.905,-1.227 0.905,-2.107 0,-0.958 -0.288,-1.692 -0.862,-2.203 -0.568,-0.511 -1.391,-0.77 -2.47,-0.777 h -3.129 v 5.875 z m 21.222,-5.875 h -4.981 v 13.815 h -2.033 v -13.815 h -4.97 v -1.682 h 11.984 z"
       id="path82"
       inkscape:connector-curvature="0" />
  </g>
  <g
     id="g94"
     transform="translate(-0.00125499,-3.8074947e-5)">
    <path
       d="m 162.969,250.415 h 127.183 a 3.761,3.761 0 0 1 3.76,3.76 v 34.472 a 3.761,3.761 0 0 1 -3.76,3.76 H 162.969 a 3.761,3.761 0 0 1 -3.76,-3.76 v -34.471 a 3.761,3.761 0 0 1 3.76,-3.761 z"
       id="path86"
       inkscape:connector-curvature="0"
       style="fill:#f1f1f1;fill-opacity:0.8;stroke:#35495e;stroke-width:0.82921845" />
    <path
       d="m 193.8,271.657 h -28.698 c -2.075,0 -3.757,1.731 -3.757,3.866 0,2.135 1.682,3.867 3.757,3.867 H 193.8 c 2.074,0 3.756,-1.73 3.756,-3.867 0,-2.137 -1.682,-3.866 -3.756,-3.866 z m 0.528,-3.487 h 1.16 v -5.936 h 2.075 v -1.103 h -5.309 v 1.102 h 2.074 z m -2.835,-4.438 c -0.123,-1.519 -1.115,-2.799 -3.016,-2.799 -2.174,0 -3.09,1.733 -3.09,3.718 0,1.98 0.957,3.717 2.952,3.717 2.275,0 2.993,-1.486 3.155,-2.89 h -1.25 c -0.097,0.74 -0.499,1.787 -1.704,1.787 -1.148,0 -1.942,-1.018 -1.942,-2.488 0,-1.834 0.794,-2.743 1.864,-2.743 0.976,0 1.665,0.63 1.781,1.697 h 1.25 z m -11.917,4.438 h 4.86 v -1.103 h -3.7 v -1.953 h 3.491 v -1.103 h -3.49 v -1.777 h 3.635 v -1.103 h -4.795 v 7.039 z m -5.55,0 h 4.52 v -1.161 h -3.359 v -5.878 h -1.16 v 7.039 z m -6.12,0 h 4.86 v -1.103 h -3.7 v -1.953 h 3.49 v -1.103 h -3.49 v -1.777 h 3.64 v -1.103 h -4.8 z m -6.415,-5.059 c 0,2.888 4.071,1.366 4.071,3.113 0,0.774 -0.658,1.04 -1.363,1.04 -0.954,0 -1.555,-0.446 -1.587,-1.375 h -1.252 c 0.014,1.48 0.812,2.477 2.8,2.477 1.178,0 2.655,-0.473 2.655,-2.29 0,-3.006 -4.117,-1.42 -4.117,-3.073 0,-0.662 0.511,-0.968 1.283,-0.968 0.967,0 1.356,0.59 1.395,1.136 h 1.255 c -0.149,-2.043 -1.853,-2.238 -2.704,-2.238 -1.345,0 -2.436,0.61 -2.436,2.178"
       id="path88"
       inkscape:connector-curvature="0"
       style="fill:#35495e" />
    <g
       id="g92"
       style="fill:#35495e">
      <path
         d="m 215.686,271.98 c -1.752,-0.504 -3.03,-1.122 -3.831,-1.853 -0.795,-0.738 -1.192,-1.646 -1.192,-2.724 0,-1.22 0.486,-2.228 1.458,-3.023 0.98,-0.802 2.25,-1.203 3.81,-1.203 1.065,0 2.012,0.206 2.842,0.618 0.837,0.411 1.483,0.979 1.937,1.702 a 4.33,4.33 0 0 1 0.692,2.374 h -2.054 c 0,-0.937 -0.299,-1.671 -0.894,-2.203 -0.596,-0.54 -1.437,-0.81 -2.523,-0.81 -1.007,0 -1.795,0.224 -2.363,0.671 -0.56,0.44 -0.84,1.054 -0.84,1.841 0,0.632 0.266,1.168 0.798,1.607 0.54,0.433 1.45,0.83 2.735,1.192 1.291,0.362 2.299,0.763 3.023,1.203 0.73,0.433 1.27,0.94 1.617,1.522 0.355,0.582 0.533,1.266 0.533,2.054 0,1.256 -0.49,2.263 -1.47,3.023 -0.978,0.752 -2.288,1.128 -3.926,1.128 a 7.335,7.335 0 0 1 -2.98,-0.607 c -0.923,-0.411 -1.636,-0.972 -2.14,-1.682 -0.496,-0.709 -0.745,-1.514 -0.745,-2.415 h 2.054 c 0,0.936 0.345,1.678 1.033,2.224 0.695,0.54 1.621,0.809 2.778,0.809 1.078,0 1.905,-0.22 2.48,-0.66 0.574,-0.44 0.861,-1.04 0.861,-1.798 0,-0.758 -0.266,-1.345 -0.798,-1.756 -0.532,-0.419 -1.497,-0.83 -2.895,-1.235 z m 17.135,-0.256 h -6.716 v 5.492 h 7.802 v 1.67 h -9.845 V 263.39 h 9.738 v 1.682 h -7.695 v 4.981 h 6.716 v 1.67 z m 5.684,5.492 h 7.343 v 1.67 h -9.397 V 263.39 h 2.054 z m 18.455,-5.492 h -6.716 v 5.492 h 7.801 v 1.67 H 248.2 V 263.39 h 9.739 v 1.682 h -7.695 v 4.981 h 6.716 v 1.67 z m 15.027,2.246 c -0.191,1.639 -0.798,2.905 -1.82,3.799 -1.014,0.887 -2.366,1.33 -4.054,1.33 -1.831,0 -3.3,-0.656 -4.406,-1.968 -1.1,-1.313 -1.65,-3.07 -1.65,-5.269 v -1.49 c 0,-1.44 0.256,-2.707 0.766,-3.8 0.518,-1.092 1.249,-1.93 2.193,-2.511 0.943,-0.59 2.036,-0.883 3.278,-0.883 1.646,0 2.966,0.46 3.96,1.383 0.992,0.916 1.57,2.186 1.734,3.81 h -2.054 c -0.178,-1.234 -0.565,-2.128 -1.16,-2.682 -0.59,-0.553 -1.416,-0.83 -2.48,-0.83 -1.306,0 -2.33,0.483 -3.076,1.448 -0.738,0.965 -1.107,2.338 -1.107,4.118 v 1.501 c 0,1.682 0.351,3.02 1.054,4.013 0.703,0.993 1.685,1.49 2.948,1.49 1.135,0 2.005,-0.256 2.607,-0.767 0.61,-0.518 1.015,-1.415 1.214,-2.692 z m 13.187,-8.898 h -4.981 v 13.815 h -2.033 v -13.815 h -4.97 v -1.682 h 11.984 z"
         id="path90"
         inkscape:connector-curvature="0" />
    </g>
  </g>
  <g
     id="g114"
     transform="translate(-0.00125499,-3.8074947e-5)">
    <path
       d="m 558.819,129.323 h 70.963 a 3.778,3.778 0 0 1 3.778,3.778 v 34.63 a 3.778,3.778 0 0 1 -3.778,3.78 h -70.963 a 3.778,3.778 0 0 1 -3.779,-3.78 v -34.63 a 3.778,3.778 0 0 1 3.779,-3.778 z"
       id="path96"
       inkscape:connector-curvature="0"
       style="fill:#f1f1f1;fill-opacity:0.8;stroke:#35495e;stroke-width:0.63438869" />
    <path
       d="m 615.607,153.847 h -6.492 l -1.459,4.045 h -2.107 l 5.918,-15.497 h 1.788 l 5.928,15.497 h -2.097 z m -5.875,-1.681 H 615 l -2.64,-7.248 z"
       id="path98"
       inkscape:connector-curvature="0"
       style="fill:#35495e" />
    <g
       transform="matrix(0.99188,0,0,-0.99188,557.5,168.996)"
       id="g112">
      <defs
         id="defs101">
        <path
           id="a"
           d="M 0.15,0.15 H 36.91 V 36.91 H 0.15 Z"
           inkscape:connector-curvature="0" />
      </defs>
      <clipPath
         id="b">
        <use
           xlink:href="#a"
           overflow="visible"
           id="use103"
           style="overflow:visible"
           x="0"
           y="0"
           width="100%"
           height="100%" />
      </clipPath>
      <g
         clip-path="url(#b)"
         id="g110">
        <path
           d="M 30.23,14.114 A 5.1190001,5.1190001 0 1 0 30.232,24.352 5.1190001,5.1190001 0 0 0 30.23,14.114 M 19.46,22.51 a 5.118,5.118 0 1 0 10e-4,10.236 5.118,5.118 0 0 0 0,-10.236 M 17.615,4.197 a 5.118,5.118 0 1 0 0,10.236 5.118,5.118 0 0 0 0,-10.236 m -10.639,8.61 a 5.118,5.118 0 1 0 0,10.236 5.118,5.118 0 0 0 0,-10.235 M 18.6,37.06 C 8.384,37.06 0.102,28.78 0.102,18.563 0.102,8.347 8.384,0.065 18.6,0.065 c 10.216,0 18.498,8.282 18.498,18.498 0,10.217 -8.282,18.498 -18.498,18.498"
           id="path106"
           inkscape:connector-curvature="0"
           style="fill:#35495e" />
        <path
           d="m 21.235,9.315 a 3.6200001,3.6200001 0 1 0 -7.24,0.002 3.6200001,3.6200001 0 0 0 7.24,-0.002 M 10.79,17.926 a 3.813,3.813 0 1 0 -3.812,3.812 3.812,3.812 0 0 0 3.811,-3.812 m 12.284,9.6 a 3.62,3.62 0 1 0 -7.238,0 3.62,3.62 0 0 0 7.238,0"
           id="path108"
           inkscape:connector-curvature="0"
           style="fill:#35495e" />
      </g>
    </g>
  </g>
  <g
     id="g134"
     transform="translate(-0.00125499,-3.8074947e-5)">
    <path
       d="m 520.984,202.225 h 70.962 a 3.778,3.778 0 0 1 3.779,3.778 v 34.631 a 3.778,3.778 0 0 1 -3.779,3.778 h -70.962 a 3.778,3.778 0 0 1 -3.779,-3.778 v -34.63 a 3.778,3.778 0 0 1 3.779,-3.78 z"
       id="path116"
       inkscape:connector-curvature="0"
       style="fill:#f1f1f1;fill-opacity:0.8;stroke:#35495e;stroke-width:0.63438869" />
    <path
       d="m 569.215,230.794 v -15.497 h 5.066 c 1.682,0 2.944,0.348 3.789,1.043 0.851,0.696 1.277,1.725 1.277,3.087 a 3.17,3.17 0 0 1 -0.617,1.926 c -0.412,0.554 -0.972,0.983 -1.682,1.288 0.837,0.234 1.497,0.681 1.98,1.341 0.489,0.653 0.734,1.433 0.734,2.342 0,1.39 -0.45,2.483 -1.352,3.278 -0.9,0.794 -2.174,1.192 -3.82,1.192 z m 2.043,-7.248 v 5.577 h 3.374 c 0.95,0 1.7,-0.245 2.246,-0.735 0.553,-0.497 0.83,-1.178 0.83,-2.043 0,-1.866 -1.014,-2.8 -3.044,-2.8 h -3.406 z m 0,-1.64 h 3.087 c 0.894,0 1.607,-0.223 2.14,-0.67 0.538,-0.447 0.808,-1.054 0.808,-1.82 0,-0.851 -0.248,-1.469 -0.745,-1.852 -0.497,-0.39 -1.252,-0.585 -2.267,-0.585 h -3.023 v 4.928 z"
       id="path118"
       inkscape:connector-curvature="0"
       style="fill:#35495e" />
    <g
       transform="matrix(1.01304,0,0,-1.01304,519.025,242.196)"
       id="g132">
      <defs
         id="defs121">
        <path
           id="c"
           d="M -0.241,-0.242 H 37.303 V 37.302 H -0.241 Z"
           inkscape:connector-curvature="0" />
      </defs>
      <clipPath
         id="d">
        <use
           xlink:href="#c"
           overflow="visible"
           id="use123"
           style="overflow:visible"
           x="0"
           y="0"
           width="100%"
           height="100%" />
      </clipPath>
      <g
         clip-path="url(#d)"
         id="g130">
        <path
           d="M 30.23,14.114 A 5.1190001,5.1190001 0 1 0 30.232,24.352 5.1190001,5.1190001 0 0 0 30.23,14.114 M 19.46,22.51 a 5.118,5.118 0 1 0 10e-4,10.236 5.118,5.118 0 0 0 0,-10.236 M 17.615,4.197 a 5.118,5.118 0 1 0 0,10.236 5.118,5.118 0 0 0 0,-10.236 m -10.639,8.61 a 5.118,5.118 0 1 0 0,10.236 5.118,5.118 0 0 0 0,-10.235 M 18.6,37.06 C 8.384,37.06 0.102,28.78 0.102,18.563 0.102,8.347 8.384,0.065 18.6,0.065 c 10.216,0 18.498,8.282 18.498,18.498 0,10.217 -8.282,18.498 -18.498,18.498"
           id="path126"
           inkscape:connector-curvature="0"
           style="fill:#35495e" />
        <path
           d="m 33.885,19.232 a 3.6545,3.6545 0 1 0 -7.309,-10e-4 3.6545,3.6545 0 0 0 7.309,10e-4 M 10.79,17.926 a 3.813,3.813 0 1 0 -3.812,3.812 3.812,3.812 0 0 0 3.811,-3.812 m 12.284,9.6 a 3.62,3.62 0 1 0 -7.238,0 3.62,3.62 0 0 0 7.238,0"
           id="path128"
           inkscape:connector-curvature="0"
           style="fill:#35495e" />
      </g>
    </g>
  </g>
  <g
     id="g156"
     transform="translate(-0.00125499,-3.8074947e-5)">
    <path
       d="m 522.368,55.037 h 70.963 a 3.778,3.778 0 0 1 3.778,3.778 v 34.63 a 3.778,3.778 0 0 1 -3.778,3.779 h -70.963 a 3.778,3.778 0 0 1 -3.778,-3.778 v -34.63 a 3.778,3.778 0 0 1 3.778,-3.78 z"
       id="path136"
       inkscape:connector-curvature="0"
       style="fill:#f1f1f1;fill-opacity:0.8;stroke:#35495e;stroke-width:0.63438869" />
    <path
       d="m 575.654,74.048 3.715,-5.939 h 2.405 l -4.896,7.684 5.013,7.812 h -2.426 l -3.81,-6.045 -3.832,6.045 h -2.416 l 5.023,-7.812 -4.906,-7.684 h 2.395 z"
       id="path138"
       inkscape:connector-curvature="0"
       style="fill:#35495e" />
    <g
       id="g154">
      <g
         transform="matrix(1.02827,0,0,-1.02827,520.34,95.529)"
         id="g152">
        <defs
           id="defs141">
          <path
             id="e"
             d="M -0.524,-0.524 H 37.585 V 37.585 H -0.524 Z"
             inkscape:connector-curvature="0" />
        </defs>
        <clipPath
           id="f">
          <use
             xlink:href="#e"
             overflow="visible"
             id="use143"
             style="overflow:visible"
             x="0"
             y="0"
             width="100%"
             height="100%" />
        </clipPath>
        <g
           clip-path="url(#f)"
           id="g150">
          <path
             d="M 30.23,14.114 A 5.1190001,5.1190001 0 1 0 30.232,24.352 5.1190001,5.1190001 0 0 0 30.23,14.114 m -10.77,8.397 a 5.1185,5.1185 0 1 0 0,10.237 5.1185,5.1185 0 0 0 0,-10.237 M 17.616,4.197 a 5.118,5.118 0 1 0 0,10.236 5.118,5.118 0 0 0 0,-10.236 M 6.977,12.808 a 5.118,5.118 0 1 0 0,10.235 5.118,5.118 0 0 0 0,-10.235 M 18.6,37.061 C 8.384,37.061 0.102,28.78 0.102,18.563 0.102,8.347 8.384,0.065 18.6,0.065 c 10.216,0 18.498,8.282 18.498,18.498 0,10.217 -8.282,18.498 -18.498,18.498"
             id="path146"
             inkscape:connector-curvature="0"
             style="fill:#35495e" />
          <path
             d="m 33.885,19.232 a 3.6545,3.6545 0 1 0 -7.309,-10e-4 3.6545,3.6545 0 0 0 7.309,10e-4 M 21.235,9.315 a 3.6200001,3.6200001 0 1 0 -7.24,0.002 3.6200001,3.6200001 0 0 0 7.24,-0.002 M 10.79,17.926 a 3.813,3.813 0 1 0 -3.812,3.812 3.812,3.812 0 0 0 3.811,-3.812"
             id="path148"
             inkscape:connector-curvature="0"
             style="fill:#35495e" />
        </g>
      </g>
    </g>
  </g>
  <g
     id="g176"
     transform="translate(-0.00125499,-3.8074947e-5)">
    <path
       d="m 321.231,81.569 h 70.963 a 3.778,3.778 0 0 1 3.778,3.778 v 34.63 a 3.778,3.778 0 0 1 -3.778,3.779 H 321.23 a 3.778,3.778 0 0 1 -3.778,-3.779 v -34.63 a 3.778,3.778 0 0 1 3.778,-3.778 z"
       id="path158"
       inkscape:connector-curvature="0"
       style="fill:#f1f1f1;fill-opacity:0.8;stroke:#35495e;stroke-width:0.63480318" />
    <path
       d="m 374.188,102.421 4.044,-7.78 h 2.32 l -5.342,9.717 v 5.779 h -2.044 v -5.779 l -5.342,-9.717 h 2.342 z"
       id="path160"
       inkscape:connector-curvature="0"
       style="fill:#35495e" />
    <g
       transform="matrix(1.03335,0,0,-1.03335,318.877,121.998)"
       id="g174">
      <defs
         id="defs163">
        <path
           id="g"
           d="M -0.618,-0.618 H 37.679 V 37.679 H -0.618 Z"
           inkscape:connector-curvature="0" />
      </defs>
      <clipPath
         id="h">
        <use
           xlink:href="#g"
           overflow="visible"
           id="use165"
           style="overflow:visible"
           x="0"
           y="0"
           width="100%"
           height="100%" />
      </clipPath>
      <g
         clip-path="url(#h)"
         id="g172">
        <path
           d="M 30.23,14.114 A 5.1190001,5.1190001 0 1 0 30.232,24.352 5.1190001,5.1190001 0 0 0 30.23,14.114 M 19.46,22.51 a 5.118,5.118 0 1 0 10e-4,10.236 5.118,5.118 0 0 0 0,-10.236 M 17.615,4.197 a 5.118,5.118 0 1 0 0,10.236 5.118,5.118 0 0 0 0,-10.236 m -10.639,8.61 a 5.118,5.118 0 1 0 0,10.236 5.118,5.118 0 0 0 0,-10.235 M 18.6,37.06 C 8.384,37.06 0.102,28.78 0.102,18.563 0.102,8.347 8.384,0.065 18.6,0.065 c 10.216,0 18.498,8.282 18.498,18.498 0,10.217 -8.282,18.498 -18.498,18.498"
           id="path168"
           inkscape:connector-curvature="0"
           style="fill:#35495e" />
        <path
           d="m 33.885,19.232 a 3.6545,3.6545 0 1 0 -7.309,-10e-4 3.6545,3.6545 0 0 0 7.309,10e-4 M 21.235,9.315 a 3.6200001,3.6200001 0 1 0 -7.24,0.002 3.6200001,3.6200001 0 0 0 7.24,-0.002 m 1.838,18.211 a 3.62,3.62 0 1 0 -7.238,0 3.62,3.62 0 0 0 7.238,0"
           id="path170"
           inkscape:connector-curvature="0"
           style="fill:#35495e" />
      </g>
    </g>
  </g>
  <g
     id="g188"
     transform="translate(-0.00125499,-3.8074947e-5)">
    <path
       d="m 163.16,0.322 h 73.278 a 3.777,3.777 0 0 1 3.777,3.778 v 34.623 a 3.778,3.778 0 0 1 -3.777,3.778 H 163.16 a 3.777,3.777 0 0 1 -3.777,-3.778 V 4.1 a 3.777,3.777 0 0 1 3.777,-3.778 z"
       id="path178"
       inkscape:connector-curvature="0"
       style="fill:#f1f1f1;fill-opacity:0.8;stroke:#35495e;stroke-width:0.64392358" />
    <g
       id="g182"
       style="fill:#35495e">
      <path
         d="m 213.442,27.215 h 7.343 v 1.67 h -9.397 V 13.39 h 2.054 z m 15.656,1.671 h -1.98 V 15.764 l -3.97,1.458 v -1.788 l 5.641,-2.118 h 0.31 z"
         id="path180"
         inkscape:connector-curvature="0" />
    </g>
    <path
       d="m 190.442,14.588 c 3.327,0 6.034,3.004 6.034,6.695 0,3.698 -2.707,6.707 -6.034,6.707 h -20.565 c -3.303,-0.028 -5.99,-3.04 -5.99,-6.707 0,-3.663 2.687,-6.665 5.978,-6.695 h 20.577 m 0,-1.435 h -20.577 c -4.096,0.036 -7.412,3.655 -7.412,8.13 0,4.475 3.316,8.106 7.412,8.143 h 20.577 c 4.126,0 7.47,-3.648 7.47,-8.143 0,-4.495 -3.345,-8.13 -7.47,-8.13 z"
       id="path184"
       inkscape:connector-curvature="0"
       style="fill:#35495e" />
    <path
       d="m 177.685,24.812 h 4.995 V 23.51 h -3.442 v -5.757 h -1.553 z"
       id="path186"
       inkscape:connector-curvature="0"
       style="fill:#35495e" />
  </g>
  <g
     id="g200"
     transform="translate(-0.00125499,-3.8074947e-5)">
    <path
       d="m 408.628,0.322 h 73.277 a 3.777,3.777 0 0 1 3.778,3.777 V 38.723 A 3.777,3.777 0 0 1 481.905,42.5 H 408.628 A 3.777,3.777 0 0 1 404.85,38.723 V 4.1 a 3.778,3.778 0 0 1 3.778,-3.778 z"
       id="path190"
       inkscape:connector-curvature="0"
       style="fill:#f1f1f1;fill-opacity:0.8;stroke:#35495e;stroke-width:0.64392358" />
    <g
       id="g194"
       style="fill:#35495e">
      <path
         d="m 462.35,22.709 h -3.64 v 6.268 h -2.053 V 13.481 h 5.13 c 1.745,0 3.086,0.397 4.023,1.192 0.943,0.794 1.415,1.95 1.415,3.47 0,0.964 -0.262,1.805 -0.787,2.522 -0.518,0.716 -1.242,1.252 -2.171,1.607 l 3.64,6.577 v 0.128 h -2.193 l -3.363,-6.268 z m -3.64,-1.671 h 3.14 c 1.015,0 1.82,-0.263 2.416,-0.788 0.603,-0.525 0.905,-1.227 0.905,-2.107 0,-0.958 -0.288,-1.692 -0.862,-2.203 -0.568,-0.511 -1.391,-0.77 -2.47,-0.777 h -3.128 v 5.875 z m 17.328,7.939 h -1.98 V 15.855 l -3.97,1.458 v -1.788 l 5.641,-2.118 h 0.309 z"
         id="path192"
         inkscape:connector-curvature="0" />
    </g>
    <path
       d="m 423.93,18.946 h 1.69 c 0.687,0 1.063,0.296 1.063,0.971 0,0.71 -0.377,1.008 -1.062,1.008 h -1.692 v -1.98 z m -1.54,5.824 h 1.54 v -2.744 h 1.544 c 0.776,0 1.062,0.325 1.17,1.063 0.078,0.56 0.058,1.24 0.245,1.682 h 1.541 c -0.275,-0.394 -0.265,-1.217 -0.298,-1.662 -0.048,-0.708 -0.261,-1.446 -1.017,-1.643 0,0 1.109,-0.288 1.109,-1.78 0,-1.064 -0.797,-1.936 -2.054,-1.936 h -3.783 l 0.002,7.02 z"
       id="path196"
       inkscape:connector-curvature="0"
       style="fill:#35495e" />
    <path
       d="m 435.605,14.61 c 3.307,0 5.996,2.986 5.996,6.651 0,3.676 -2.69,6.667 -5.996,6.667 H 415.17 c -3.281,-0.029 -5.951,-3.02 -5.951,-6.667 0,-3.638 2.67,-6.622 5.94,-6.65 h 20.446 m 0,-1.427 h -20.447 c -4.07,0.035 -7.365,3.632 -7.365,8.077 0,4.449 3.295,8.056 7.365,8.093 h 20.447 c 4.1,0 7.422,-3.624 7.422,-8.093 0,-4.467 -3.323,-8.077 -7.422,-8.077 z"
       id="path198"
       inkscape:connector-curvature="0"
       style="fill:#35495e" />
  </g>
  <ellipse
     cx="190.56975"
     cy="155.95297"
     rx="2.4530001"
     ry="2.4000001"
     id="ellipse202"
     style="fill:#1a1a1a;stroke:#1a1a1a" />
  <ellipse
     cx="280.31274"
     cy="170.48697"
     rx="2.4530001"
     ry="2.4000001"
     id="ellipse204"
     style="fill:#1a1a1a;stroke:#1a1a1a" />
  <ellipse
     cx="329.68274"
     cy="170.71797"
     rx="2.4530001"
     ry="2.4000001"
     id="ellipse206"
     style="fill:#1a1a1a;stroke:#1a1a1a" />
  <ellipse
     cx="457.72275"
     cy="190.90398"
     rx="2.4530001"
     ry="2.4000001"
     id="ellipse208"
     style="fill:#1a1a1a;stroke:#1a1a1a" />
  <ellipse
     cx="501.90274"
     cy="155.72197"
     rx="2.4530001"
     ry="2.4000001"
     id="ellipse210"
     style="fill:#1a1a1a;stroke:#1a1a1a" />
  <ellipse
     cx="456.79974"
     cy="122.50096"
     rx="2.4530001"
     ry="2.4000001"
     id="ellipse212"
     style="fill:#1a1a1a;stroke:#1a1a1a" />
  <ellipse
     cx="412.27475"
     cy="157.22197"
     rx="2.4530001"
     ry="2.4000001"
     id="ellipse214"
     style="fill:#1a1a1a;stroke:#1a1a1a" />
  <ellipse
     cx="447.34174"
     cy="57.673962"
     rx="2.4530001"
     ry="2.4000001"
     id="ellipse216"
     style="fill:#1a1a1a;stroke:#1a1a1a" />
  <ellipse
     cx="194.49174"
     cy="57.211964"
     rx="2.4530001"
     ry="2.4000001"
     id="ellipse218"
     style="fill:#1a1a1a;stroke:#1a1a1a" />
  <path
     d="m 194.55875,42.778962 0.138,14.522 m 252.617,-14.479 0.138,14.522"
     id="path220"
     inkscape:connector-curvature="0"
     style="fill:#1a1a1a;stroke:#1a1a1a;stroke-width:0.70200002" />
  <path
     d="m 456.64675,84.931962 0.138,36.366998"
     id="path222"
     inkscape:connector-curvature="0"
     style="fill:#1a1a1a;stroke:#1a1a1a;stroke-width:1.11199999" />
  <path
     d="m 412.32275,107.75596 0.138,49.253"
     id="path224"
     inkscape:connector-curvature="0"
     style="fill:#1a1a1a;stroke:#1a1a1a;stroke-width:1.29400003" />
  <path
     d="m 457.59175,190.38196 0.138,36.367"
     id="path226"
     inkscape:connector-curvature="0"
     style="fill:#1a1a1a;stroke:#1a1a1a;stroke-width:1.11199999" />
  <path
     d="m 329.61675,171.59996 0.134,78.398 m -49.505,-78.337 0.134,78.398"
     id="path228"
     inkscape:connector-curvature="0"
     style="fill:#1a1a1a;stroke:#1a1a1a;stroke-width:1.61099994" />
  <path
     d="m 191.00875,155.88596 -68.705,0.134"
     id="path230"
     inkscape:connector-curvature="0"
     style="fill:#1a1a1a;stroke:#1a1a1a;stroke-width:1.50999999" />
  <path
     d="m 516.90775,225.89796 -59.704,0.135"
     id="path232"
     inkscape:connector-curvature="0"
     style="fill:#1a1a1a;stroke:#1a1a1a;stroke-width:1.40900004" />
  <path
     d="m 554.83475,155.64296 -53.781,0.135"
     id="path234"
     inkscape:connector-curvature="0"
     style="fill:#1a1a1a;stroke:#1a1a1a;stroke-width:1.33800006" />
  <path
     d="m 412.97575,108.08996 -16.79,0.135"
     id="path236"
     inkscape:connector-curvature="0"
     style="fill:#1a1a1a;stroke:#1a1a1a;stroke-width:0.74699998" />
  <path
     d="m 518.28575,85.496962 -62.149,0.135"
     id="path238"
     inkscape:connector-curvature="0"
     style="fill:#1a1a1a;stroke:#1a1a1a;stroke-width:1.43799996" />
</svg>
