<?xml version="1.0" encoding="UTF-8" standalone="no"?>
<!-- Generator: Adobe Illustrator 16.0.0, SVG Export Plug-In . SVG Version: 6.00 Build 0)  -->

<svg
   xmlns:dc="http://purl.org/dc/elements/1.1/"
   xmlns:cc="http://creativecommons.org/ns#"
   xmlns:rdf="http://www.w3.org/1999/02/22-rdf-syntax-ns#"
   xmlns:svg="http://www.w3.org/2000/svg"
   xmlns="http://www.w3.org/2000/svg"
   xmlns:sodipodi="http://sodipodi.sourceforge.net/DTD/sodipodi-0.dtd"
   xmlns:inkscape="http://www.inkscape.org/namespaces/inkscape"
   version="1.1"
   id="svg48"
   sodipodi:docname="logo.svg"
   inkscape:version="0.92.4 5da689c313, 2019-01-14"
   x="0px"
   y="0px"
   width="603"
   height="100.00111"
   viewBox="0 0 603 100.00111"
   enable-background="new 0 0 600 100"
   xml:space="preserve"><metadata
   id="metadata16"><rdf:RDF><cc:Work
       rdf:about=""><dc:format>image/svg+xml</dc:format><dc:type
         rdf:resource="http://purl.org/dc/dcmitype/StillImage" /></cc:Work></rdf:RDF></metadata><defs
   id="defs14" />
<sodipodi:namedview
   id="namedview50"
   guidetolerance="10"
   objecttolerance="10"
   inkscape:cy="49.21905"
   inkscape:cx="283.46507"
   gridtolerance="10"
   inkscape:zoom="1.7760955"
   fit-margin-left="0"
   borderopacity="1"
   fit-margin-top="0"
   bordercolor="#666666"
   pagecolor="#ffffff"
   showgrid="false"
   inkscape:window-maximized="1"
   inkscape:window-y="0"
   inkscape:window-x="0"
   inkscape:window-height="1015"
   inkscape:window-width="1920"
   fit-margin-bottom="0"
   fit-margin-right="0"
   inkscape:current-layer="svg48"
   inkscape:pageshadow="2"
   inkscape:pageopacity="0">
	</sodipodi:namedview>
<rect
   id="rect864"
   x="0.42054999"
   y="0.42054999"
   width="599.159"
   height="99.160004"
   style="fill:#4c504e;stroke:#666666;stroke-width:0.84109998" />
<g
   id="layer1"
   transform="matrix(10.943788,0,0,10.943788,-306.28062,-2099.3592)"
   inkscape:label="Calque 1">
	
		<g
   id="g5106"
   transform="matrix(0.10351411,0,0,0.10351411,25.72942,189.51196)"
   inkscape:export-ydpi="96"
   inkscape:export-xdpi="96">
		<path
   id="path67"
   inkscape:connector-curvature="0"
   d="m 52.783,58.699 c -3.678,0 -6.694,-2.99 -6.694,-6.694 0,-3.704 2.99,-6.694 6.694,-6.694 3.704,0 6.694,2.99 6.694,6.694 -10e-4,3.704 -2.99,6.694 -6.694,6.694 z m 0,-10.636 c -2.169,0 -3.942,1.773 -3.942,3.942 0,2.17 1.773,3.943 3.942,3.943 2.17,0 3.942,-1.773 3.942,-3.943 0,-2.169 -1.773,-3.942 -3.942,-3.942 z"
   style="fill:#ff0000" />
		<path
   id="path69"
   inkscape:connector-curvature="0"
   d="m 75.167,59.123 c -0.053,0 -0.132,0 -0.185,0 L 64.821,57.8 C 64.451,57.747 64.133,57.562 63.922,57.271 63.71,56.98 63.604,56.609 63.657,56.265 l 1.322,-10.16 c 0.106,-0.741 0.794,-1.297 1.535,-1.191 l 10.159,1.323 c 0.371,0.053 0.688,0.238 0.9,0.529 0.212,0.291 0.317,0.662 0.265,1.006 l -1.323,10.16 c -0.079,0.688 -0.661,1.191 -1.348,1.191 z m -8.599,-3.89 7.408,0.979 0.978,-7.408 -7.408,-0.979 z"
   style="fill:#ff5ddc" />
		<path
   id="path73"
   inkscape:connector-curvature="0"
   d="m 52.968,41.978 c -0.079,0 -0.185,0 -0.291,-0.027 -0.741,-0.159 -1.217,-0.873 -1.059,-1.614 l 2.17,-10.398 c 0.159,-0.741 0.872,-1.217 1.614,-1.058 0.741,0.159 1.217,0.873 1.059,1.614 l -2.17,10.398 c -0.106,0.635 -0.688,1.084 -1.323,1.085 z"
   style="fill:#027fe1" />
		<path
   id="path75"
   inkscape:connector-curvature="0"
   d="m 59.265,37.85 c -0.079,0 -0.185,0 -0.291,-0.027 L 48.576,35.654 c -0.741,-0.159 -1.217,-0.873 -1.058,-1.614 0.159,-0.741 0.872,-1.217 1.614,-1.058 l 10.398,2.17 c 0.741,0.159 1.217,0.873 1.059,1.614 -0.133,0.634 -0.688,1.084 -1.324,1.084 z"
   style="fill:#027fe1" />
		<path
   id="path77"
   inkscape:connector-curvature="0"
   d="m 66.409,41.237 c -0.344,0 -0.661,-0.132 -0.9,-0.344 -0.37,-0.318 -0.529,-0.82 -0.423,-1.297 l 1.878,-8.943 c 0.106,-0.476 0.45,-0.873 0.9,-1.006 0.476,-0.159 0.979,-0.053 1.349,0.265 l 6.853,6.033 c 0.37,0.318 0.528,0.82 0.423,1.297 -0.106,0.476 -0.45,0.873 -0.9,1.032 l -8.731,2.884 c -0.158,0.052 -0.317,0.079 -0.449,0.079 z m 2.725,-7.726 -0.899,4.312 4.207,-1.402 z"
   style="fill:#8aee49" />
	</g>
	<path
   d="m 35.588,198.708 c -0.011,-0.511 -0.025,-0.673 -0.071,-0.869 -0.161,-0.673 -0.432,-1.189 -0.839,-1.594 -0.544,-0.541 -1.192,-0.59 -1.968,-0.148 l -0.216,0.123 c 0,0 -0.154,0 -0.339,0 -0.185,0 -0.339,0 -0.339,0 L 31.6,196.097 c -0.776,-0.443 -1.424,-0.394 -1.968,0.148 -0.407,0.405 -0.678,0.921 -0.839,1.594 -0.047,0.197 -0.06,0.358 -0.071,0.869 -0.019,0.749 0.008,1.009 0.126,1.249 0.134,0.279 0.41,0.47 0.67,0.47 0.314,0 0.867,-0.424 1.258,-0.965 l 0.167,-0.23 h 1.214 1.214 l 0.167,0.23 c 0.391,0.541 0.943,0.965 1.257,0.965 0.26,0 0.536,-0.191 0.67,-0.47 0.115,-0.24 0.142,-0.5 0.123,-1.249 z m -4.338,-0.979 h -0.37 v 0.369 c 0,0.115 -0.096,0.21 -0.21,0.21 -0.115,0 -0.211,-0.096 -0.211,-0.21 v -0.369 H 30.09 c -0.115,0 -0.211,-0.096 -0.211,-0.211 0,-0.115 0.096,-0.21 0.211,-0.21 h 0.369 v -0.369 c 0,-0.115 0.096,-0.21 0.211,-0.21 0.115,0 0.21,0.095 0.21,0.21 v 0.369 h 0.369 c 0.115,0 0.211,0.096 0.211,0.21 -0.003,0.118 -0.096,0.211 -0.21,0.211 z m 2.717,-1.154 c 0.178,0 0.323,0.145 0.323,0.323 0,0.178 -0.145,0.323 -0.323,0.323 -0.178,0 -0.323,-0.145 -0.323,-0.323 0.003,-0.178 0.145,-0.323 0.323,-0.323 z m -1.047,0.624 c 0,-0.178 0.145,-0.323 0.323,-0.323 0.178,0 0.322,0.145 0.322,0.323 0,0.178 -0.145,0.322 -0.322,0.322 -0.178,0 -0.323,-0.144 -0.323,-0.322 z m 0.67,1.091 c -0.178,0 -0.322,-0.145 -0.322,-0.323 0,-0.178 0.145,-0.322 0.322,-0.322 0.178,0 0.323,0.145 0.323,0.322 -10e-4,0.178 -0.146,0.323 -0.323,0.323 z m 0.677,-0.323 c -0.178,0 -0.323,-0.145 -0.323,-0.322 0,-0.178 0.145,-0.323 0.323,-0.323 0.178,0 0.323,0.145 0.323,0.323 0,0.18 -0.145,0.322 -0.323,0.322 z"
   id="path10"
   inkscape:connector-curvature="0"
   style="fill:#808080" />
</g>
</svg>