<?xml version="1.0" encoding="UTF-8" standalone="no"?>
<svg
   xmlns:dc="http://purl.org/dc/elements/1.1/"
   xmlns:cc="http://creativecommons.org/ns#"
   xmlns:rdf="http://www.w3.org/1999/02/22-rdf-syntax-ns#"
   xmlns:svg="http://www.w3.org/2000/svg"
   xmlns="http://www.w3.org/2000/svg"
   xmlns:sodipodi="http://sodipodi.sourceforge.net/DTD/sodipodi-0.dtd"
   xmlns:inkscape="http://www.inkscape.org/namespaces/inkscape"
   viewBox="0 0 160.22256 224.74809"
   version="1.1"
   id="svg269"
   sodipodi:docname="console.svg"
   width="160.22256"
   height="224.74809"
   inkscape:version="0.92.4 5da689c313, 2019-01-14">
  <metadata
     id="metadata275">
    <rdf:RDF>
      <cc:Work
         rdf:about="">
        <dc:format>image/svg+xml</dc:format>
        <dc:type
           rdf:resource="http://purl.org/dc/dcmitype/StillImage" />
      </cc:Work>
    </rdf:RDF>
  </metadata>
  <defs
     id="defs273" />
  <sodipodi:namedview
     pagecolor="#ffffff"
     bordercolor="#666666"
     borderopacity="1"
     objecttolerance="10"
     gridtolerance="10"
     guidetolerance="10"
     inkscape:pageopacity="0"
     inkscape:pageshadow="2"
     inkscape:window-width="471"
     inkscape:window-height="442"
     id="namedview271"
     showgrid="false"
     inkscape:zoom="1.050065"
     inkscape:cx="80.11328"
     inkscape:cy="112.374"
     inkscape:window-x="0"
     inkscape:window-y="0"
     inkscape:window-maximized="0"
     inkscape:current-layer="svg269" />
  <linearGradient
     id="a"
     gradientUnits="userSpaceOnUse"
     y1="112.374"
     x2="160.222"
     y2="112.374"
     gradientTransform="translate(0.00227948,9.5625548e-5)">
    <stop
       offset="0"
       stop-color="#251b1a"
       id="stop2" />
    <stop
       offset=".05"
       stop-color="#666465"
       id="stop4" />
    <stop
       offset=".95"
       stop-color="#666465"
       id="stop6" />
    <stop
       offset="1"
       stop-color="#251b1a"
       id="stop8" />
  </linearGradient>
  <path
     d="m 61.175279,0.28609563 v 0.522 c 0,1.00999997 0.826,1.83599997 1.836,1.83599997 h 34.202 c 1.01,0 1.836,-0.826 1.836,-1.83599997 v -0.538 c 0,-0.152 0.127,-0.274 0.279,-0.270000004452 C 121.66228,0.59209563 141.94928,2.2010956 158.41128,4.5300956 a 1.4,1.4 0 0 1 1.202,1.51 c -1.937,23.6180004 -3.169,59.1080004 -3.169,98.7910044 0,43.657 1.491,82.238 3.771,105.52 a 1.401,1.401 0 0 1 -0.898,1.453 c -21.194,8.062 -48.895,12.944 -79.206001,12.944 -30.311,0 -58.012,-4.882 -79.20599952,-12.944 a 1.401,1.401 0 0 1 -0.898,-1.453 c 2.28000002,-23.282 3.77100002,-61.864 3.77100002,-105.52 0,-39.683004 -1.232,-75.174004 -3.16800002,-98.7910044 a 1.4,1.4 0 0 1 1.20200002,-1.51 C 18.270279,2.2010956 38.552279,0.59309563 60.880279,0.00109563 a 0.286,0.286 0 0 1 0.295,0.285 z"
     id="path11"
     inkscape:connector-curvature="0"
     style="fill:url(#a)" />
  <path
     d="m 80.113279,180.0811 c 37.583001,0 50.642001,-3.078 54.803001,-4.042 0.296,-0.068 1.267,-0.295 2.025,-1.186 0.668,-0.785 0.79,-1.63 0.82,-1.945 V 26.085096 c 0,-1.514 -1.256,-2.753 -2.792,-2.753 H 25.256279 c -1.535,0 -2.792,1.239 -2.792,2.753 V 172.9091 c 0.03,0.315 0.152,1.16 0.82,1.945 0.759,0.891 1.729,1.117 2.025,1.186 4.162,0.963 17.221,4.041 54.804,4.041 z"
     id="path13"
     inkscape:connector-curvature="0"
     style="fill:#dcdee5" />
  <radialGradient
     id="b"
     cx="125.434"
     cy="4.1719999"
     r="6.704"
     gradientTransform="matrix(0.5,-0.866,1.7321,1,55.494279,108.6301)"
     gradientUnits="userSpaceOnUse">
    <stop
       offset="0"
       stop-color="#7eab4e"
       id="stop15" />
    <stop
       offset="1"
       stop-color="#b7d65e"
       id="stop17" />
  </radialGradient>
  <path
     d="m 116.62328,0.67909563 c 0.221,3.88899997 4.124,6.98599997 8.907,6.98599997 4.283,0 7.861,-2.484 8.72,-5.796 a 575.21,575.21 0 0 0 -17.627,-1.18899997"
     id="path20"
     inkscape:connector-curvature="0"
     style="fill:url(#b)" />
  <path
     d="m 80.113279,180.0811 c 36.875001,0 49.687001,-3.037 53.771001,-3.987 0.29,-0.068 1.243,-0.291 1.987,-1.17 a 3.49,3.49 0 0 0 0.805,-1.918 V 28.172096 c 0,-1.494 -1.233,-2.716 -2.739,-2.716 H 26.290279 c -1.507,0 -2.739,1.222 -2.739,2.716 V 173.0061 c 0.029,0.311 0.149,1.144 0.805,1.918 0.744,0.879 1.697,1.102 1.987,1.17 4.082,0.95 16.895,3.987 53.77,3.987 z"
     id="path22"
     inkscape:connector-curvature="0"
     style="fill:#d3d5e1" />
  <g
     id="g26"
     style="fill:#e0dedf"
     transform="translate(0.00227948,9.5625548e-5)">
    <path
       d="m 31.811,10.743 h -1.329 v 0.806 h 0.283 c 0.045,0 0.095,0.028 0.095,0.07 v 7.424 h 0.974 v -8.3 z m 3.273,2.401 c -0.209,-0.426 -0.557,-0.485 -0.839,-0.485 a 0.92,0.92 0 0 0 -0.736,0.356 c -0.01,-0.071 -0.04,-0.198 -0.124,-0.258 -0.08,-0.061 -0.126,-0.061 -0.234,-0.061 l -0.538,10e-4 v 6.348 h 0.97 v -4.862 c 0,-0.634 0.167,-0.761 0.437,-0.761 0.163,0 0.381,0.054 0.381,0.518 v 5.105 h 0.953 v -4.862 c 0,-0.634 0.166,-0.761 0.437,-0.761 0.163,0 0.38,0.054 0.38,0.518 v 5.105 h 0.954 v -4.843 c 0,-1.023 -0.406,-1.542 -1.204,-1.542 a 0.989,0.989 0 0 0 -0.837,0.484 z m -6.313,-0.485 c -0.814,0 -1.245,0.469 -1.245,1.355 v 0.647 h 0.462 c 0.163,0.003 0.264,-0.023 0.324,-0.082 0.046,-0.046 0.067,-0.11 0.067,-0.208 v -0.45 c 0,-0.428 0.151,-0.511 0.41,-0.511 0.231,0 0.343,0.185 0.343,0.566 v 0.87 c -0.899,0.337 -1.641,0.707 -1.641,1.772 v 1.148 c 0,0.909 0.298,1.298 0.999,1.298 0.293,0 0.495,-0.097 0.691,-0.322 a 0.537,0.537 0 0 0 0.085,0.179 c 0.102,0.124 0.189,0.124 0.252,0.124 h 0.531 v -5.123 c 0,-0.862 -0.406,-1.263 -1.278,-1.263 z m 0.409,4.757 c 0,0.689 -0.12,0.945 -0.445,0.945 -0.344,0 -0.373,-0.347 -0.373,-0.767 l -10e-4,-0.891 c 0,-0.698 0.24,-0.886 0.785,-1.152 l 0.034,-0.016 z m -3.438,-4.738 c -0.457,0 -0.649,0.12 -0.813,0.374 0,0 -0.048,-0.336 -0.302,-0.336 h -0.531 v 9.132 h 0.911 v -3.139 c 0.183,0.243 0.375,0.346 0.793,0.346 0.582,0 1.005,-0.56 1.005,-1.237 v -3.847 c 0,-0.943 -0.507,-1.293 -1.063,-1.293 z m 0.131,4.894 c 0,0.46 -0.052,0.725 -0.379,0.725 -0.352,0 -0.486,-0.299 -0.486,-0.69 v -3.591 c 0,-0.506 0.173,-0.69 0.499,-0.69 0.327,0 0.366,0.23 0.366,0.668 z"
       id="path24"
       inkscape:connector-curvature="0" />
  </g>
  <path
     d="M 136.74028,138.5811 H 23.615279 l -0.065,34.425 c 0.029,0.311 0.149,1.144 0.805,1.918 0.744,0.879 1.697,1.102 1.987,1.17 4.083,0.95 16.896,3.987 53.771,3.987 36.875001,0 49.687001,-3.037 53.771001,-3.987 0.29,-0.068 1.243,-0.291 1.987,-1.17 a 3.49,3.49 0 0 0 0.805,-1.918 z"
     id="path28"
     inkscape:connector-curvature="0"
     style="fill:#88887c" />
  <circle
     cx="128.11327"
     cy="147.07709"
     r="7.5630002"
     id="circle30"
     style="fill:#dad9d8" />
  <path
     d="m 126.71928,146.5711 h -2.154 a 0.979,0.979 0 0 1 -0.976,-0.976 v -1.936 c 0,-0.537 0.439,-0.976 0.976,-0.976 h 2.154 c 0.537,0 0.976,0.439 0.976,0.976 v 1.936 a 0.979,0.979 0 0 1 -0.976,0.976 z"
     id="path32"
     inkscape:connector-curvature="0"
     style="fill:#88887c" />
  <g
     id="g38"
     style="fill:#dad9d8"
     transform="translate(0.00227948,9.5625548e-5)">
    <path
       d="m 126.491,144.917 h -1.702 a 0.29,0.29 0 0 1 -0.29,-0.29 c 0,-0.16 0.131,-0.29 0.29,-0.29 h 1.702 c 0.16,0 0.29,0.131 0.29,0.29 a 0.29,0.29 0 0 1 -0.29,0.29 z"
       id="path34"
       inkscape:connector-curvature="0" />
    <path
       d="m 125.93,143.776 v 1.702 a 0.29,0.29 0 0 1 -0.29,0.29 0.29,0.29 0 0 1 -0.29,-0.29 v -1.702 c 0,-0.16 0.131,-0.29 0.29,-0.29 0.16,0 0.29,0.131 0.29,0.29 z"
       id="path36"
       inkscape:connector-curvature="0" />
  </g>
  <path
     d="m 131.66128,146.5711 h -2.154 a 0.979,0.979 0 0 1 -0.976,-0.976 v -1.936 c 0,-0.537 0.439,-0.976 0.976,-0.976 h 2.154 c 0.537,0 0.976,0.439 0.976,0.976 v 1.936 a 0.979,0.979 0 0 1 -0.976,0.976 z"
     id="path40"
     inkscape:connector-curvature="0"
     style="fill:#88887c" />
  <g
     id="g48"
     style="fill:#dad9d8"
     transform="translate(0.00227948,9.5625548e-5)">
    <path
       d="m 131.437,144.917 h -1.71 a 0.29,0.29 0 0 1 -0.29,-0.29 c 0,-0.16 0.131,-0.29 0.29,-0.29 h 1.71 a 0.29,0.29 0 0 1 0,0.58 z"
       id="path42"
       inkscape:connector-curvature="0" />
    <circle
       cx="130.582"
       cy="143.508"
       r="0.37099999"
       id="circle44" />
    <circle
       cx="130.582"
       cy="145.74699"
       r="0.37099999"
       id="circle46" />
  </g>
  <path
     d="m 126.71928,151.4471 h -2.154 a 0.979,0.979 0 0 1 -0.976,-0.976 v -1.936 c 0,-0.537 0.439,-0.976 0.976,-0.976 h 2.154 c 0.537,0 0.976,0.439 0.976,0.976 v 1.936 a 0.979,0.979 0 0 1 -0.976,0.976 z"
     id="path50"
     inkscape:connector-curvature="0"
     style="fill:#88887c" />
  <g
     id="g56"
     style="fill:#dad9d8"
     transform="translate(0.00227948,9.5625548e-5)">
    <path
       d="m 126.447,149.107 -1.203,1.203 a 0.29,0.29 0 0 1 -0.41,-0.41 l 1.203,-1.203 a 0.29,0.29 0 0 1 0.41,0.41 z"
       id="path52"
       inkscape:connector-curvature="0" />
    <path
       d="m 125.243,148.697 1.203,1.203 a 0.29,0.29 0 0 1 -0.41,0.41 l -1.203,-1.203 a 0.29,0.29 0 0 1 0.41,-0.41 z"
       id="path54"
       inkscape:connector-curvature="0" />
  </g>
  <path
     d="m 131.66128,151.4711 h -2.154 a 0.979,0.979 0 0 1 -0.976,-0.976 v -1.936 c 0,-0.537 0.439,-0.976 0.976,-0.976 h 2.154 c 0.537,0 0.976,0.439 0.976,0.976 v 1.936 a 0.979,0.979 0 0 1 -0.976,0.976 z"
     id="path58"
     inkscape:connector-curvature="0"
     style="fill:#88887c" />
  <g
     id="g62"
     style="fill:#dad9d8"
     transform="translate(0.00227948,9.5625548e-5)">
    <path
       d="m 131.437,150.411 h -1.71 a 0.29,0.29 0 0 1 -0.29,-0.29 c 0,-0.16 0.131,-0.29 0.29,-0.29 h 1.71 a 0.29,0.29 0 0 1 0,0.58 z m 0,-1.188 h -1.71 a 0.29,0.29 0 0 1 -0.29,-0.29 c 0,-0.16 0.131,-0.29 0.29,-0.29 h 1.71 a 0.29,0.29 0 0 1 0,0.58 z"
       id="path60"
       inkscape:connector-curvature="0" />
  </g>
  <circle
     cx="128.11327"
     cy="166.48309"
     r="7.5619998"
     id="circle64"
     style="fill:#dad9d8" />
  <ellipse
     transform="rotate(-36.148)"
     cx="7.9567285"
     cy="209.6281"
     rx="3.9130001"
     ry="3.2279999"
     id="ellipse66"
     style="fill:#88887c" />
  <ellipse
     transform="rotate(-36.148)"
     cx="8.0259771"
     cy="208.77313"
     rx="3.9130001"
     ry="3.2279999"
     id="ellipse68"
     style="fill:#dad9d8" />
  <ellipse
     transform="rotate(-36.148)"
     cx="8.053422"
     cy="208.93561"
     rx="3.2049999"
     ry="2.5320001"
     id="ellipse70"
     style="fill:#88887c" />
  <path
     d="m 127.60228,164.7691 c 0,0.083 0.097,0.213 0.238,0.213 0.141,0 0.237,-0.055 0.258,-0.151 0.052,-0.373 0.208,-0.92 0.655,-1.407 0.903,-0.985 2.264,-0.934 2.53,-0.914 0.114,0 0.246,-0.098 0.246,-0.231 0,-0.133 -0.092,-0.24 -0.206,-0.24 -0.309,-0.026 -1.888,-0.081 -2.948,1.076 a 3.064,3.064 0 0 0 -0.773,1.654 z"
     id="path72"
     inkscape:connector-curvature="0"
     style="fill:#dad9d8" />
  <path
     d="m 126.60428,166.3211 c 0.024,0.078 0.094,0.339 0.074,0.42 -0.043,0.18 -0.346,0.25 -0.453,0.281 -0.186,0.054 -0.293,0.141 -1.047,0.969 -0.122,0.134 -0.719,0.793 -1.469,1.781 -0.145,0.191 -0.368,0.494 -0.344,0.875 0.005,0.074 0.022,0.349 0.219,0.484 0.17,0.117 0.387,0.07 0.484,0.047 0.717,-0.167 1.161,-0.907 2.133,-1.974 0.446,-0.49 0.658,-0.7 0.952,-1.261 0.027,-0.052 0.084,-0.239 0.165,-0.313 0.148,-0.135 0.514,0.025 0.794,0.177"
     id="path74"
     inkscape:connector-curvature="0"
     style="fill:#88887c" />
  <circle
     cx="32.113281"
     cy="166.48309"
     r="7.5619998"
     id="circle76"
     style="fill:#dad9d8" />
  <circle
     cx="32.113281"
     cy="147.07709"
     r="7.5630002"
     id="circle78"
     style="fill:#dad9d8" />
  <g
     id="g84"
     style="fill:#88887c"
     transform="translate(0.00227948,9.5625548e-5)">
    <path
       d="m 31.158,152.241 v -2.184 c 0,-0.31 0.254,-0.249 0.564,-0.249 H 32.5 c 0.31,0 0.564,-0.061 0.564,0.249 v 2.184 c 0,0.132 0.09,0.252 0.217,0.286 0.899,0.242 1.752,0.311 2.154,0.259 0.575,-0.074 0.806,-0.218 0.933,-0.4 0.102,-0.146 0.125,-0.336 0.196,-0.706 0.061,-0.318 0.072,-0.565 0.078,-0.729 0.03,-0.789 -0.018,-1.899 -0.03,-2.259 a 0.298,0.298 0 0 0 -0.051,-0.155 c -1.312,-1.976 -2.766,-3.445 -4.186,-4.551 -0.088,-0.069 -0.155,-0.133 -0.266,-0.133 -0.111,0 -0.177,0.064 -0.266,0.133 -1.419,1.106 -2.874,2.575 -4.186,4.551 a 0.295,0.295 0 0 0 -0.051,0.155 c -0.012,0.36 -0.06,1.47 -0.03,2.259 0.006,0.164 0.018,0.412 0.078,0.729 0.071,0.37 0.094,0.56 0.196,0.706 0.127,0.182 0.358,0.326 0.933,0.4 0.403,0.052 1.255,-0.017 2.154,-0.259 a 0.296,0.296 0 0 0 0.221,-0.286 z"
       id="path80"
       inkscape:connector-curvature="0" />
    <path
       d="m 35.947,145.28 v -3.364 a 0.566,0.566 0 0 0 -0.565,-0.565 h -0.776 a 0.566,0.566 0 0 0 -0.565,0.565 v 1.547 a 34.755,34.755 0 0 0 -0.681,-0.577 c -0.302,-0.249 -0.777,-0.58 -1.118,-0.83 a 0.215,0.215 0 0 0 -0.263,0 c -0.341,0.25 -0.816,0.581 -1.118,0.83 -1.681,1.391 -3.002,2.706 -4.346,4.473 a 0.37,0.37 0 0 0 -0.073,0.214 0.379,0.379 0 1 0 0.669,0.24 c 1.31,-1.721 2.591,-2.995 4.228,-4.349 0,0 0.519,-0.505 0.771,-0.505 0.252,0 0.771,0.505 0.771,0.505 1.637,1.354 2.918,2.628 4.228,4.349 a 0.379,0.379 0 0 0 0.669,-0.24 0.366,0.366 0 0 0 -0.073,-0.214 24.794,24.794 0 0 0 -1.758,-2.079 z"
       id="path82"
       inkscape:connector-curvature="0" />
  </g>
  <path
     d="m 37.388279,164.5281 h -10.55 a 0.539,0.539 0 0 1 -0.537,-0.537 v -0.587 c 0,-0.295 0.242,-0.537 0.537,-0.537 h 10.55 c 0.295,0 0.537,0.242 0.537,0.537 v 0.587 a 0.539,0.539 0 0 1 -0.537,0.537 z"
     id="path86"
     inkscape:connector-curvature="0"
     style="fill:#88887c" />
  <path
     d="m 31.357279,164.1741 h -3.484 a 0.478,0.478 0 0 1 -0.477,-0.477 c 0,-0.262 0.214,-0.477 0.477,-0.477 h 3.484 c 0.262,0 0.477,0.214 0.477,0.477 a 0.478,0.478 0 0 1 -0.477,0.477 z"
     id="path88"
     inkscape:connector-curvature="0"
     style="fill:#dad9d8" />
  <path
     d="m 31.317279,171.3351 h -4.13 a 0.523,0.523 0 0 1 -0.521,-0.521 v -5.047 c 0,-0.286 0.234,-0.521 0.521,-0.521 h 4.13 c 0.286,0 0.521,0.234 0.521,0.521 v 5.047 a 0.523,0.523 0 0 1 -0.521,0.521 z"
     id="path90"
     inkscape:connector-curvature="0"
     style="fill:#88887c" />
  <path
     d="m 30.552279,167.1571 h -2.6 a 0.426,0.426 0 0 1 -0.424,-0.424 c 0,-0.233 0.191,-0.424 0.424,-0.424 h 2.6 c 0.233,0 0.424,0.191 0.424,0.424 a 0.426,0.426 0 0 1 -0.424,0.424 z m 0,1.558 h -2.6 a 0.426,0.426 0 0 1 -0.424,-0.424 c 0,-0.233 0.191,-0.424 0.424,-0.424 h 2.6 c 0.233,0 0.424,0.191 0.424,0.424 a 0.426,0.426 0 0 1 -0.424,0.424 z m 0,1.558 h -2.6 a 0.426,0.426 0 0 1 -0.424,-0.424 c 0,-0.233 0.191,-0.424 0.424,-0.424 h 2.6 c 0.233,0 0.424,0.191 0.424,0.424 a 0.426,0.426 0 0 1 -0.424,0.424 z"
     id="path92"
     inkscape:connector-curvature="0"
     style="fill:#dad9d8" />
  <path
     d="m 33.759279,167.7471 h -0.912 c -0.284,0 -0.514,0.2 -0.514,0.447 a 0.4,0.4 0 0 0 0.067,0.221 l 2.115,2.109 a 0.61,0.61 0 0 0 0.863,0 l 2.115,-2.109 a 0.4,0.4 0 0 0 0.067,-0.221 c 0,-0.247 -0.23,-0.447 -0.514,-0.447 h -0.912 v -2.091 a 0.41,0.41 0 0 0 -0.409,-0.409 h -1.557 a 0.41,0.41 0 0 0 -0.409,0.409 z"
     id="path94"
     inkscape:connector-curvature="0"
     style="fill:#88887c" />
  <path
     d="m 41.615279,178.1481 v -35.858 a 2.783,2.783 0 0 1 2.775,-2.775 h 74.350001 v 38.633"
     stroke-miterlimit="10"
     id="path96"
     inkscape:connector-curvature="0"
     style="fill:none;stroke:#dad9d8;stroke-width:0.5;stroke-miterlimit:10" />
  <path
     d="m 85.708279,139.5151 h 1.505 l -0.753,1.303 -0.752,1.303 -0.753,-1.303 -0.752,-1.303 z m 0,38.366 h 1.505 l -0.753,-1.304 -0.752,-1.303 -0.753,1.303 -0.752,1.304 z"
     id="path98"
     inkscape:connector-curvature="0"
     style="fill:#dad9d8" />
  <circle
     cx="43.774281"
     cy="141.6731"
     r="1.914"
     stroke-miterlimit="10"
     id="circle100"
     style="fill:none;stroke:#dad9d8;stroke-width:0.5;stroke-miterlimit:10" />
  <path
     d="m 44.662279,141.0231 a 0.172,0.172 0 0 0 0.048,-0.138 c -0.014,-0.093 -0.106,-0.156 -0.207,-0.141 a 0.196,0.196 0 0 0 -0.1,0.045 l -0.771,0.855 -0.682,-0.574 a 0.186,0.186 0 0 0 -0.105,-0.031 c -0.102,0 -0.184,0.076 -0.184,0.17 0,0.051 0.024,0.097 0.063,0.129 l 0.941,0.792 z"
     id="path102"
     inkscape:connector-curvature="0"
     style="fill:#dad9d8" />
  <circle
     cx="43.422279"
     cy="174.55609"
     r="0.90399998"
     id="circle104"
     style="fill:#dad9d8" />
  <circle
     cx="117.09328"
     cy="174.55609"
     r="0.90399998"
     id="circle106"
     style="fill:#dad9d8" />
  <path
     d="m 116.20328,142.6111 -0.651,0.651 a 0.272,0.272 0 0 1 -0.384,0 l -0.026,-0.026 a 0.272,0.272 0 0 1 0,-0.384 l 0.651,-0.651 a 0.272,0.272 0 0 1 0.384,0 l 0.026,0.026 a 0.272,0.272 0 0 1 0,0.384 z m -1.058,-1.383 -0.889,0.238 a 0.271,0.271 0 0 1 -0.332,-0.192 l -0.01,-0.036 a 0.271,0.271 0 0 1 0.192,-0.332 l 0.889,-0.238 a 0.271,0.271 0 0 1 0.332,0.192 l 0.01,0.036 a 0.272,0.272 0 0 1 -0.192,0.332 z"
     id="path108"
     inkscape:connector-curvature="0"
     style="fill:#dad9d8" />
  <path
     d="m 115.14528,142.8491 0.651,-0.651 a 0.272,0.272 0 0 1 0.384,0 l 0.026,0.026 a 0.272,0.272 0 0 1 0,0.384 l -0.651,0.651 a 0.272,0.272 0 0 1 -0.384,0 l -0.026,-0.026 a 0.273,0.273 0 0 1 0,-0.384 z m 2.013,0.429 -0.238,0.889 a 0.271,0.271 0 0 0 0.192,0.332 l 0.036,0.01 a 0.271,0.271 0 0 0 0.332,-0.192 l 0.238,-0.889 a 0.271,0.271 0 0 0 -0.192,-0.332 l -0.036,-0.01 a 0.271,0.271 0 0 0 -0.332,0.192 z"
     id="path110"
     inkscape:connector-curvature="0"
     style="fill:#dad9d8" />
  <path
     d="m 118.74028,142.3971 a 2.71,2.71 0 0 1 -0.181,0.007 c -1.338,0 -2.424,-1.075 -2.424,-2.4 0,-0.166 0.017,-0.327 0.049,-0.484"
     stroke-miterlimit="10"
     id="path112"
     inkscape:connector-curvature="0"
     style="fill:none;stroke:#dad9d8;stroke-width:0.5;stroke-miterlimit:10" />
  <g
     id="g116"
     style="fill:#dad9d8"
     transform="translate(0.00227948,9.5625548e-5)">
    <path
       d="m 44.009,172.348 a 0.37,0.37 0 0 1 -0.207,-0.147 0.467,0.467 0 0 1 -0.064,-0.247 c -0.226,0.084 -0.508,0.207 -0.659,0.17 a 0.614,0.614 0 0 1 -0.449,-0.741 c 0.058,-0.239 0.227,-0.362 0.516,-0.39 0.322,-0.03 0.717,-0.069 0.845,-0.131 l 0.023,-0.098 c 0.083,-0.345 -0.043,-0.587 -0.296,-0.647 a 0.29,0.29 0 0 0 -0.255,0.056 c -0.07,0.056 -0.13,0.155 -0.208,0.285 -0.042,0.072 -0.095,0.096 -0.167,0.078 -0.093,-0.022 -0.191,-0.149 -0.162,-0.266 0.016,-0.068 0.093,-0.111 0.207,-0.155 0.166,-0.068 0.491,-0.18 0.783,-0.171 a 0.693,0.693 0 0 1 0.376,0.229 c 0.136,0.188 0.173,0.372 0.112,0.624 l -0.227,0.939 c -0.054,0.224 0.012,0.312 0.1,0.333 a 0.402,0.402 0 0 0 0.188,-0.011 l 0.015,0.148 z m -0.059,-1.315 c -0.12,0.027 -0.378,0.073 -0.501,0.094 -0.206,0.038 -0.339,0.104 -0.383,0.284 a 0.364,0.364 0 0 0 0.26,0.459 0.661,0.661 0 0 0 0.441,-0.079 c 0.055,-0.228 0.129,-0.53 0.183,-0.758 z m 2.667,0.266 a 0.59,0.59 0 0 1 0.203,0.101 c 0.416,0.337 0.471,0.983 0.096,1.445 -0.426,0.524 -1.243,0.608 -1.752,0.194 a 1.83,1.83 0 0 1 -0.483,-0.625 l 0.253,-0.311 1.521,-1.872 c 0.116,-0.121 0.352,0.195 0.352,0.195 l -0.612,0.753 z m -1.337,1.002 a 0.428,0.428 0 0 0 -0.091,0.152 0.523,0.523 0 0 0 0.194,0.506 c 0.322,0.262 0.751,0.14 1.107,-0.299 0.36,-0.443 0.304,-0.921 -0.019,-1.183 a 0.977,0.977 0 0 0 -0.374,-0.182 z m 1.948,3.26 c -0.348,-0.107 -0.669,-0.347 -0.771,-0.63 -0.217,-0.598 0.141,-1.125 0.644,-1.309 0.372,-0.135 0.74,-0.087 1.095,0.141 0.283,0.18 0.461,0.435 0.527,0.619 0.076,0.212 0.066,0.391 0.031,0.483 -0.027,0.085 -0.058,0.106 -0.108,0.124 -0.113,0.042 -0.255,-0.04 -0.273,-0.092 -0.009,-0.023 -0.006,-0.046 0.015,-0.106 a 0.738,0.738 0 0 0 0.025,-0.546 c -0.113,-0.312 -0.475,-0.489 -0.964,-0.312 -0.656,0.232 -0.711,0.758 -0.611,1.03 0.071,0.198 0.181,0.34 0.466,0.48 z"
       id="path114"
       inkscape:connector-curvature="0" />
  </g>
  <g
     id="g120"
     style="fill:#dad9d8"
     transform="translate(0.00227948,9.5625548e-5)">
    <path
       d="m 114.104,175.607 -0.136,-0.034 c 0.102,-0.547 0.084,-0.583 -0.279,-0.674 l -1.863,-0.469 c -0.248,-0.063 -0.266,-0.031 -0.339,0.178 l -0.084,0.231 -0.121,-0.03 c 0.027,-0.334 0.03,-0.674 -0.015,-0.948 l 2.523,0.635 c 0.369,0.093 0.396,0.069 0.566,-0.466 l 0.136,0.034 z m 1.477,-3.869 c 0.12,0.201 0.249,0.438 0.35,0.602 l -1.289,1.38 -0.088,-0.082 a 14.79,14.79 0 0 0 -0.062,-1.182 c -0.056,-0.483 -0.144,-0.977 -0.462,-1.274 -0.304,-0.283 -0.63,-0.286 -0.879,-0.019 -0.236,0.253 -0.185,0.595 -0.131,0.823 l -0.155,0.012 -0.102,-0.485 a 0.908,0.908 0 0 1 0.248,-0.706 c 0.325,-0.349 0.819,-0.4 1.215,-0.031 0.312,0.29 0.425,0.608 0.456,1.288 0.018,0.312 0.026,0.751 0.029,1.048 0.021,-0.021 0.622,-0.666 0.653,-0.699 0.185,-0.197 0.217,-0.27 0.103,-0.609 z m -0.203,-2.091 0.096,-0.382 a 0.879,0.879 0 0 1 0.487,-0.512 c 0.421,-0.175 0.808,-0.027 0.954,0.324 a 0.542,0.542 0 0 1 -0.001,0.402 2.136,2.136 0 0 1 -0.224,0.386 c 0.468,-0.086 0.84,0.09 0.98,0.428 0.313,0.754 -0.441,1.441 -0.77,1.578 -0.217,0.091 -0.455,0.08 -0.548,0.038 -0.081,-0.037 -0.112,-0.073 -0.133,-0.124 -0.026,-0.075 0.005,-0.17 0.033,-0.22 0.025,-0.043 0.065,-0.064 0.122,-0.045 0.171,0.059 0.412,0.116 0.675,0.006 0.333,-0.138 0.465,-0.485 0.278,-0.935 -0.181,-0.423 -0.561,-0.461 -0.856,-0.338 a 1.318,1.318 0 0 0 -0.289,0.18 l -0.09,-0.125 c 0.355,-0.305 0.612,-0.629 0.469,-0.971 -0.113,-0.272 -0.354,-0.356 -0.623,-0.245 -0.259,0.107 -0.379,0.38 -0.426,0.605 z"
       id="path118"
       inkscape:connector-curvature="0" />
  </g>
  <path
     d="m 61.175279,0.31309563 v 0.187 c 0,0.62899997 0.826,0.362 1.836,0.362 h 34.202 c 1.01,0 1.836,0.08 1.836,-0.549 v -0.043 0.537 c 0,1.00999997 -0.826,1.83599997 -1.836,1.83599997 h -34.201 a 1.841,1.841 0 0 1 -1.836,-1.83599997 v -0.494 z"
     id="path122"
     inkscape:connector-curvature="0"
     style="fill:#3a383a" />
  <g
     id="g126"
     style="fill:#e0dedf"
     transform="translate(0.00227948,9.5625548e-5)">
    <path
       d="m 119.339,14.495 h 0.47 v 4.507 h -0.47 z m 1.427,1.777 c 0,-0.319 -0.042,-0.565 -0.124,-0.738 -0.083,-0.174 -0.2,-0.261 -0.352,-0.261 -0.154,0 -0.272,0.077 -0.356,0.23 -0.083,0.153 -0.125,0.369 -0.125,0.647 l -0.048,-0.869 c 0.073,-0.272 0.17,-0.482 0.289,-0.629 0.119,-0.148 0.25,-0.222 0.395,-0.222 0.167,0 0.31,0.072 0.428,0.215 0.118,0.144 0.208,0.353 0.271,0.627 0.062,0.275 0.093,0.606 0.093,0.995 v 2.735 h -0.47 v -2.73 z m 1.427,0 c 0,-0.319 -0.043,-0.565 -0.131,-0.738 -0.088,-0.174 -0.21,-0.261 -0.368,-0.261 -0.146,0 -0.259,0.084 -0.338,0.252 -0.08,0.168 -0.12,0.405 -0.12,0.712 l -0.095,-0.868 c 0.075,-0.298 0.175,-0.529 0.298,-0.693 0.124,-0.163 0.259,-0.245 0.408,-0.245 0.172,0 0.319,0.072 0.441,0.215 0.122,0.144 0.215,0.353 0.278,0.627 0.063,0.274 0.096,0.606 0.096,0.995 v 2.735 h -0.47 v -2.731 z m 1.686,2.631 a 1.11,1.11 0 0 1 -0.262,-0.444 2.918,2.918 0 0 1 -0.135,-0.7 v -0.003 h 0.384 v 0.003 c 0.014,0.19 0.054,0.337 0.121,0.442 0.066,0.105 0.153,0.158 0.26,0.158 0.123,0 0.218,-0.078 0.285,-0.232 0.067,-0.155 0.101,-0.374 0.101,-0.656 v -0.434 c 0,-0.279 -0.034,-0.497 -0.101,-0.652 -0.067,-0.155 -0.162,-0.232 -0.285,-0.232 -0.066,0 -0.13,0.036 -0.192,0.106 a 0.929,0.929 0 0 0 -0.162,0.298 h -0.35 v -2.721 h 1.395 v 0.689 h -1.011 v 1.162 a 0.602,0.602 0 0 1 0.16,-0.171 0.318,0.318 0 0 1 0.181,-0.06 c 0.158,0 0.293,0.062 0.406,0.185 0.112,0.123 0.198,0.303 0.256,0.54 0.058,0.237 0.087,0.522 0.087,0.856 v 0.434 c 0,0.334 -0.03,0.62 -0.09,0.856 -0.06,0.236 -0.148,0.417 -0.264,0.542 a 0.545,0.545 0 0 1 -0.416,0.187 0.52,0.52 0 0 1 -0.368,-0.153 z m 2.523,0.1 h -0.384 v -4.377 l -0.39,0.451 v -0.75 l 0.39,-0.49 h 0.384 z m 1.175,-0.1 a 1.11,1.11 0 0 1 -0.262,-0.444 2.918,2.918 0 0 1 -0.135,-0.7 v -0.003 h 0.384 v 0.003 c 0.014,0.19 0.054,0.337 0.121,0.442 0.066,0.105 0.153,0.158 0.26,0.158 0.123,0 0.218,-0.078 0.285,-0.232 0.067,-0.155 0.101,-0.374 0.101,-0.656 v -0.434 c 0,-0.279 -0.034,-0.497 -0.101,-0.652 -0.067,-0.155 -0.162,-0.232 -0.285,-0.232 -0.066,0 -0.13,0.036 -0.192,0.106 a 0.929,0.929 0 0 0 -0.162,0.298 h -0.35 v -2.721 h 1.395 v 0.689 h -1.011 v 1.162 a 0.602,0.602 0 0 1 0.16,-0.171 0.318,0.318 0 0 1 0.181,-0.06 c 0.158,0 0.293,0.062 0.406,0.185 0.112,0.123 0.198,0.303 0.256,0.54 0.058,0.237 0.087,0.522 0.087,0.856 v 0.434 c 0,0.334 -0.03,0.62 -0.09,0.856 -0.06,0.236 -0.148,0.417 -0.264,0.542 a 0.545,0.545 0 0 1 -0.416,0.187 0.52,0.52 0 0 1 -0.368,-0.153 z"
       id="path124"
       inkscape:connector-curvature="0" />
  </g>
  <linearGradient
     id="c"
     gradientUnits="userSpaceOnUse"
     x1="70.069"
     y1="204.66499"
     x2="90.153"
     y2="204.66499"
     gradientTransform="translate(0.00227948,9.5625548e-5)">
    <stop
       offset="0"
       stop-color="#a8a3ab"
       id="stop128" />
    <stop
       offset=".19"
       stop-color="#a39ea6"
       id="stop130" />
    <stop
       offset=".417"
       stop-color="#959098"
       id="stop132" />
    <stop
       offset=".661"
       stop-color="#7d7a80"
       id="stop134" />
    <stop
       offset=".917"
       stop-color="#5c5a5e"
       id="stop136" />
    <stop
       offset="1"
       stop-color="#504e52"
       id="stop138" />
  </linearGradient>
  <path
     d="m 80.592279,219.8311 h -0.958 c -5.259,0 -9.563,-4.303 -9.563,-9.563 v -11.208 c 0,-5.259 4.303,-9.563 9.563,-9.563 h 0.958 c 5.259,0 9.563,4.303 9.563,9.563 v 11.208 c 0,5.26 -4.303,9.563 -9.563,9.563 z"
     id="path141"
     inkscape:connector-curvature="0"
     style="fill:url(#c)" />
  <radialGradient
     id="d"
     cx="80.111"
     cy="198.08099"
     r="5.5869999"
     gradientUnits="userSpaceOnUse"
     gradientTransform="translate(0.00227948,9.5625548e-5)">
    <stop
       offset="0"
       stop-color="#9a949c"
       id="stop143" />
    <stop
       offset="1"
       stop-color="#c7c6cc"
       id="stop145" />
  </radialGradient>
  <ellipse
     cx="80.113281"
     cy="198.08109"
     rx="6.25"
     ry="4.8330002"
     id="ellipse148"
     style="fill:url(#d)" />
  <radialGradient
     id="e"
     cx="80.111"
     cy="212.08099"
     r="5.5869999"
     gradientUnits="userSpaceOnUse"
     gradientTransform="translate(0.00227948,9.5625548e-5)">
    <stop
       offset="0"
       stop-color="#9a949c"
       id="stop150" />
    <stop
       offset="1"
       stop-color="#c7c6cc"
       id="stop152" />
  </radialGradient>
  <ellipse
     cx="80.113281"
     cy="212.08109"
     rx="6.25"
     ry="4.8330002"
     id="ellipse155"
     style="fill:url(#e)" />
  <radialGradient
     id="f"
     cx="80.111"
     cy="198.08099"
     r="2.5829999"
     gradientTransform="matrix(1,0,0,4,0.00227948,-594.2439)"
     gradientUnits="userSpaceOnUse">
    <stop
       offset="0"
       stop-color="#a3a2a7"
       id="stop157" />
    <stop
       offset="1"
       stop-color="#bdb5bf"
       id="stop159" />
  </radialGradient>
  <circle
     cx="80.113281"
     cy="198.08109"
     r="2.5829999"
     id="circle162"
     style="fill:url(#f)" />
  <radialGradient
     id="g"
     cx="80.111"
     cy="212.08099"
     r="2.5829999"
     gradientTransform="matrix(1,0,0,4,0.00227948,-636.2439)"
     gradientUnits="userSpaceOnUse">
    <stop
       offset="0"
       stop-color="#a3a2a7"
       id="stop164" />
    <stop
       offset="1"
       stop-color="#bdb5bf"
       id="stop166" />
  </radialGradient>
  <circle
     cx="80.113281"
     cy="212.08109"
     r="2.5829999"
     id="circle169"
     style="fill:url(#g)" />
  <linearGradient
     id="h"
     gradientUnits="userSpaceOnUse"
     x1="106.51"
     y1="211.248"
     x2="106.51"
     y2="195.758"
     gradientTransform="translate(0.00227948,9.5625548e-5)">
    <stop
       offset="0"
       stop-color="#a8a3ab"
       id="stop171" />
    <stop
       offset="1"
       stop-color="#504e52"
       id="stop173" />
  </linearGradient>
  <ellipse
     cx="106.51228"
     cy="203.5031"
     rx="9.3990002"
     ry="7.7449999"
     id="ellipse176"
     style="fill:url(#h)" />
  <radialGradient
     id="i"
     cx="106.51"
     cy="203.50301"
     r="7.2030001"
     gradientUnits="userSpaceOnUse"
     gradientTransform="translate(0.00227948,9.5625548e-5)">
    <stop
       offset="0"
       stop-color="#c7c6cc"
       id="stop178" />
    <stop
       offset=".33"
       stop-color="#c4c3c9"
       id="stop180" />
    <stop
       offset=".581"
       stop-color="#bcb9c0"
       id="stop182" />
    <stop
       offset=".805"
       stop-color="#ada9b0"
       id="stop184" />
    <stop
       offset="1"
       stop-color="#9a949c"
       id="stop186" />
  </radialGradient>
  <ellipse
     cx="106.51128"
     cy="203.5031"
     rx="7.9819999"
     ry="6.3280001"
     stroke-miterlimit="10"
     id="ellipse189"
     style="fill:url(#i);stroke:#848484;stroke-width:0.1;stroke-miterlimit:10" />
  <g
     id="g193"
     style="fill:#170b06"
     transform="translate(0.00227948,9.5625548e-5)">
    <path
       d="m 108.294,200.391 -2.666,1.017 a 0.344,0.344 0 0 1 -0.442,-0.198 0.344,0.344 0 0 1 0.198,-0.442 l 2.666,-1.017 a 0.344,0.344 0 0 1 0.442,0.198 0.344,0.344 0 0 1 -0.198,0.442 z m 0.934,1.905 -2.666,1.017 a 0.344,0.344 0 0 1 -0.442,-0.198 0.344,0.344 0 0 1 0.198,-0.442 l 2.666,-1.017 a 0.344,0.344 0 0 1 0.442,0.198 0.344,0.344 0 0 1 -0.198,0.442 z m 1.147,2.135 -2.666,1.017 a 0.344,0.344 0 0 1 -0.442,-0.198 0.344,0.344 0 0 1 0.198,-0.442 l 2.666,-1.017 a 0.344,0.344 0 0 1 0.442,0.198 0.344,0.344 0 0 1 -0.198,0.442 z m -4.691,-0.416 -0.503,-0.987 a 0.385,0.385 0 0 0 -0.518,-0.168 l -0.987,0.503 a 0.385,0.385 0 0 0 -0.168,0.518 l 0.503,0.987 a 0.385,0.385 0 0 0 0.518,0.168 l 0.987,-0.503 a 0.387,0.387 0 0 0 0.168,-0.518 z m -0.72,0.167 -0.395,0.201 a 0.155,0.155 0 0 1 -0.207,-0.067 l -0.201,-0.395 a 0.155,0.155 0 0 1 0.067,-0.207 l 0.395,-0.201 a 0.155,0.155 0 0 1 0.207,0.067 l 0.201,0.395 a 0.155,0.155 0 0 1 -0.067,0.207 z m 1.849,2.033 -0.503,-0.987 a 0.385,0.385 0 0 0 -0.518,-0.168 l -0.987,0.503 a 0.385,0.385 0 0 0 -0.168,0.518 l 0.503,0.987 a 0.385,0.385 0 0 0 0.518,0.168 l 0.987,-0.503 a 0.385,0.385 0 0 0 0.168,-0.518 z m -0.72,0.167 -0.395,0.201 a 0.155,0.155 0 0 1 -0.207,-0.067 l -0.201,-0.395 a 0.155,0.155 0 0 1 0.067,-0.207 l 0.395,-0.201 a 0.155,0.155 0 0 1 0.207,0.067 l 0.201,0.395 a 0.154,0.154 0 0 1 -0.067,0.207 z m -2.655,-4.721 -0.693,-0.21 a 0.162,0.162 0 0 0 -0.203,0.106 l -0.111,0.354 a 0.162,0.162 0 0 0 0.106,0.203 l 1.18,0.362 c 0.1,0.031 0.208,-0.025 0.239,-0.125 l 0.547,-1.748 a 0.192,0.192 0 0 0 -0.125,-0.239 l -0.305,-0.095 a 0.192,0.192 0 0 0 -0.239,0.125 z"
       id="path191"
       inkscape:connector-curvature="0" />
  </g>
  <linearGradient
     id="j"
     gradientUnits="userSpaceOnUse"
     x1="135.07201"
     y1="206.811"
     x2="135.07201"
     y2="191.321"
     gradientTransform="translate(0.00227948,9.5625548e-5)">
    <stop
       offset="0"
       stop-color="#a8a3ab"
       id="stop195" />
    <stop
       offset="1"
       stop-color="#504e52"
       id="stop197" />
  </linearGradient>
  <ellipse
     cx="135.07428"
     cy="199.06609"
     rx="9.3990002"
     ry="7.7449999"
     id="ellipse200"
     style="fill:url(#j)" />
  <radialGradient
     id="k"
     cx="135.07201"
     cy="199.06599"
     r="7.2030001"
     gradientUnits="userSpaceOnUse"
     gradientTransform="translate(0.00227948,9.5625548e-5)">
    <stop
       offset="0"
       stop-color="#c7c6cc"
       id="stop202" />
    <stop
       offset=".33"
       stop-color="#c4c3c9"
       id="stop204" />
    <stop
       offset=".581"
       stop-color="#bcb9c0"
       id="stop206" />
    <stop
       offset=".805"
       stop-color="#ada9b0"
       id="stop208" />
    <stop
       offset="1"
       stop-color="#9a949c"
       id="stop210" />
  </radialGradient>
  <ellipse
     cx="135.07428"
     cy="199.06609"
     rx="7.9819999"
     ry="6.3280001"
     stroke-miterlimit="10"
     id="ellipse213"
     style="fill:url(#k);stroke:#848484;stroke-width:0.1;stroke-miterlimit:10" />
  <g
     id="g219"
     transform="translate(0.00227948,9.5625548e-5)">
    <path
       d="m 131.643,197.527 c -0.456,0.873 -0.519,1.362 -0.54,1.695 -0.024,0.374 -0.159,0.997 0.457,2.263 0.134,0.275 0.356,0.504 0.581,0.575 0.324,0.102 0.59,-0.123 0.761,-0.277 0.736,-0.662 1.04,-1.247 1.39,-2.541 0.114,-0.42 0.186,-0.958 -0.016,-1.201 a 0.63,0.63 0 0 0 -0.547,-0.215 c -0.502,0.069 -0.784,0.725 -0.838,1.239 -0.181,1.73 1.685,2.605 1.827,2.694"
       stroke-miterlimit="10"
       id="path215"
       inkscape:connector-curvature="0"
       style="fill:none;stroke:#170b06;stroke-width:0.59600002;stroke-miterlimit:10" />
    <path
       d="m 136.457,200.691 c -0.084,0.136 -0.813,1.069 -1.022,0.965 -0.158,-0.078 0.153,-1.319 0.324,-1.58 l 2.632,-4.031 0.68,0.411 z"
       id="path217"
       inkscape:connector-curvature="0"
       style="fill:#170b06" />
  </g>
  <linearGradient
     id="l"
     gradientUnits="userSpaceOnUse"
     x1="160.953"
     y1="211.248"
     x2="160.953"
     y2="195.758"
     gradientTransform="matrix(-1,0,0,1,214.54228,9.5625548e-5)">
    <stop
       offset="0"
       stop-color="#a8a3ab"
       id="stop221" />
    <stop
       offset="1"
       stop-color="#504e52"
       id="stop223" />
  </linearGradient>
  <ellipse
     cx="53.589283"
     cy="203.5031"
     rx="9.3990002"
     ry="7.7449999"
     id="ellipse226"
     style="fill:url(#l)" />
  <radialGradient
     id="m"
     cx="160.953"
     cy="203.50301"
     r="7.2030001"
     gradientTransform="matrix(-1,0,0,1,214.54228,9.5625548e-5)"
     gradientUnits="userSpaceOnUse">
    <stop
       offset="0"
       stop-color="#c7c6cc"
       id="stop228" />
    <stop
       offset=".33"
       stop-color="#c4c3c9"
       id="stop230" />
    <stop
       offset=".581"
       stop-color="#bcb9c0"
       id="stop232" />
    <stop
       offset=".805"
       stop-color="#ada9b0"
       id="stop234" />
    <stop
       offset="1"
       stop-color="#9a949c"
       id="stop236" />
  </radialGradient>
  <ellipse
     cx="53.589283"
     cy="203.5031"
     rx="7.9819999"
     ry="6.3280001"
     stroke-miterlimit="10"
     id="ellipse239"
     style="fill:url(#m);stroke:#848484;stroke-width:0.1;stroke-miterlimit:10" />
  <linearGradient
     id="n"
     gradientUnits="userSpaceOnUse"
     x1="189.51601"
     y1="206.811"
     x2="189.51601"
     y2="191.321"
     gradientTransform="matrix(-1,0,0,1,214.54228,9.5625548e-5)">
    <stop
       offset="0"
       stop-color="#a8a3ab"
       id="stop241" />
    <stop
       offset="1"
       stop-color="#504e52"
       id="stop243" />
  </linearGradient>
  <ellipse
     cx="25.027279"
     cy="199.06609"
     rx="9.3990002"
     ry="7.7449999"
     id="ellipse246"
     style="fill:url(#n)" />
  <radialGradient
     id="o"
     cx="189.51601"
     cy="199.06599"
     r="7.2030001"
     gradientTransform="matrix(-1,0,0,1,214.54228,9.5625548e-5)"
     gradientUnits="userSpaceOnUse">
    <stop
       offset="0"
       stop-color="#c7c6cc"
       id="stop248" />
    <stop
       offset=".33"
       stop-color="#c4c3c9"
       id="stop250" />
    <stop
       offset=".581"
       stop-color="#bcb9c0"
       id="stop252" />
    <stop
       offset=".805"
       stop-color="#ada9b0"
       id="stop254" />
    <stop
       offset="1"
       stop-color="#9a949c"
       id="stop256" />
  </radialGradient>
  <ellipse
     cx="25.027279"
     cy="199.06609"
     rx="7.9819999"
     ry="6.3280001"
     stroke-miterlimit="10"
     id="ellipse259"
     style="fill:url(#o);stroke:#848484;stroke-width:0.1;stroke-miterlimit:10" />
  <g
     id="g263"
     style="fill:#170b06"
     transform="translate(0.00227948,9.5625548e-5)">
    <path
       d="m 24.215,199.514 a 2.43,2.43 0 1 0 0,4.86 2.43,2.43 0 0 0 0,-4.86 z m 0.151,2.576 -1.551,0.017 c -0.112,0.001 -0.204,-0.07 -0.205,-0.156 l -0.002,-0.36 c -0.001,-0.087 0.091,-0.158 0.203,-0.159 l 1.072,-0.013 -0.008,-1.29 c -0.001,-0.102 0.107,-0.186 0.238,-0.187 l 0.239,-0.003 c 0.132,-0.001 0.24,0.082 0.241,0.184 l 0.011,1.78 c 0.002,0.102 -0.106,0.186 -0.238,0.187 z m 2.208,-7.483 -5.839,3.371 a 0.295,0.295 0 0 1 -0.403,-0.108 l -0.172,-0.298 a 0.295,0.295 0 0 1 0.108,-0.403 l 5.839,-3.371 a 0.295,0.295 0 0 1 0.403,0.108 l 0.172,0.298 a 0.295,0.295 0 0 1 -0.108,0.403 z m -4.08,4.586 -0.627,0.362 a 0.252,0.252 0 0 1 -0.345,-0.093 l -0.336,-0.581 a 0.252,0.252 0 0 1 0.093,-0.345 l 0.627,-0.362 a 0.252,0.252 0 0 1 0.345,0.093 l 0.336,0.581 a 0.253,0.253 0 0 1 -0.093,0.345 z m 1.763,-1.018 -0.627,0.362 a 0.252,0.252 0 0 1 -0.345,-0.093 l -0.336,-0.581 a 0.252,0.252 0 0 1 0.093,-0.345 l 0.627,-0.362 a 0.252,0.252 0 0 1 0.345,0.093 l 0.336,0.581 a 0.254,0.254 0 0 1 -0.093,0.345 z m 1.762,-1.018 -0.627,0.362 a 0.252,0.252 0 0 1 -0.345,-0.093 l -0.336,-0.581 a 0.252,0.252 0 0 1 0.093,-0.345 l 0.627,-0.362 a 0.252,0.252 0 0 1 0.345,0.093 l 0.336,0.581 c 0.07,0.12 0.028,0.276 -0.093,0.345 z m 1.763,-1.017 -0.627,0.362 a 0.252,0.252 0 0 1 -0.345,-0.093 l -0.336,-0.581 a 0.252,0.252 0 0 1 0.093,-0.345 l 0.627,-0.362 a 0.252,0.252 0 0 1 0.345,0.093 l 0.336,0.581 a 0.253,0.253 0 0 1 -0.093,0.345 z m -0.881,2.759 -0.627,0.362 a 0.252,0.252 0 0 1 -0.345,-0.093 l -0.336,-0.581 a 0.252,0.252 0 0 1 0.093,-0.345 l 0.627,-0.362 a 0.252,0.252 0 0 1 0.345,0.093 l 0.336,0.581 a 0.254,0.254 0 0 1 -0.093,0.345 z m 1.762,-1.018 -0.627,0.362 a 0.252,0.252 0 0 1 -0.345,-0.093 l -0.336,-0.581 a 0.252,0.252 0 0 1 0.093,-0.345 l 0.627,-0.362 a 0.252,0.252 0 0 1 0.345,0.093 l 0.336,0.581 a 0.253,0.253 0 0 1 -0.093,0.345 z m -0.623,2.803 -0.627,0.362 a 0.252,0.252 0 0 1 -0.345,-0.093 l -0.336,-0.581 a 0.252,0.252 0 0 1 0.093,-0.345 l 0.627,-0.362 a 0.252,0.252 0 0 1 0.345,0.093 l 0.336,0.581 a 0.253,0.253 0 0 1 -0.093,0.345 z m 1.763,-1.018 -0.627,0.362 a 0.252,0.252 0 0 1 -0.345,-0.093 l -0.336,-0.581 a 0.252,0.252 0 0 1 0.093,-0.345 l 0.627,-0.362 a 0.252,0.252 0 0 1 0.345,0.093 l 0.336,0.581 a 0.254,0.254 0 0 1 -0.093,0.345 z"
       id="path261"
       inkscape:connector-curvature="0" />
  </g>
  <g
     id="g267"
     style="fill:#170b06"
     transform="translate(0.00227948,9.5625548e-5)">
    <path
       d="m 52.815,201.359 c -0.782,-1.079 -1.173,-1.618 -1.215,-1.711 -0.02,-0.045 -0.076,-0.179 -0.188,-0.205 -0.095,-0.023 -0.186,0.043 -0.222,0.068 -0.101,0.072 -0.525,0.435 -0.582,1.198 -0.04,0.545 0.132,0.969 0.291,1.334 a 19.782,19.782 0 0 0 1.591,2.96 c 0.661,1.005 1.035,1.439 1.42,1.642 0.314,0.166 1.078,0.412 1.198,0.411 0.006,0 0.034,-0.001 0.066,0.011 0.079,0.029 0.116,0.109 0.129,0.135 0.066,0.135 0.168,0.249 0.251,0.374 0.176,0.263 0.458,0.42 0.702,0.444 0.147,0.015 0.184,-0.026 0.193,-0.039 0.049,-0.067 -0.022,-0.191 -0.032,-0.209 -0.057,-0.1 -0.131,-0.129 -0.348,-0.262 -0.153,-0.093 -0.229,-0.14 -0.251,-0.167 -0.147,-0.187 -0.098,-0.467 -0.09,-0.509 0.011,-0.063 0.027,-0.106 0.032,-0.122 0.182,-0.549 -0.938,-1.901 -1.037,-2.254 -0.004,-0.013 -0.009,-0.035 -0.029,-0.052 -0.112,-0.09 -0.406,0.247 -0.602,0.174 -0.127,-0.047 -0.159,-0.245 -0.178,-0.344 -0.177,-0.951 -0.723,-1.716 -0.885,-1.912 -0.155,-0.187 -0.341,-0.411 -0.517,-0.445 -0.021,-0.004 -0.089,-0.014 -0.106,-0.058 -0.019,-0.048 0.028,-0.128 0.092,-0.155 0.065,-0.027 0.097,0.024 0.179,0.01 0.092,-0.016 0.175,-0.101 0.184,-0.184 0.006,-0.062 -0.032,-0.114 -0.046,-0.133 z m -1.157,-2.149 1.604,2.29 c 0.03,0.017 0.08,0.039 0.135,0.029 0.147,-0.027 0.214,-0.259 0.227,-0.31 0.082,-0.327 -0.215,-0.657 -0.694,-1.309 -0.021,-0.029 -0.609,-0.851 -0.697,-0.897 -0.181,-0.096 -0.393,0.055 -0.575,0.197 z m 4.825,7.333 -0.053,0.029 a 0.174,0.174 0 0 1 -0.235,-0.068 l -1.296,-2.36 a 0.174,0.174 0 0 1 0.068,-0.235 l 0.053,-0.029 a 0.174,0.174 0 0 1 0.235,0.068 l 1.296,2.36 a 0.173,0.173 0 0 1 -0.068,0.235 z"
       id="path265"
       inkscape:connector-curvature="0" />
  </g>
</svg>
