<?xml version="1.0" encoding="UTF-8" standalone="no"?>
<svg
   xmlns:dc="http://purl.org/dc/elements/1.1/"
   xmlns:cc="http://creativecommons.org/ns#"
   xmlns:rdf="http://www.w3.org/1999/02/22-rdf-syntax-ns#"
   xmlns:svg="http://www.w3.org/2000/svg"
   xmlns="http://www.w3.org/2000/svg"
   xmlns:sodipodi="http://sodipodi.sourceforge.net/DTD/sodipodi-0.dtd"
   xmlns:inkscape="http://www.inkscape.org/namespaces/inkscape"
   width="79.118141"
   height="200"
   version="1.1"
   id="svg41"
   sodipodi:docname="controller.svg"
   inkscape:version="0.92.4 5da689c313, 2019-01-14">
  <metadata
     id="metadata45">
    <rdf:RDF>
      <cc:Work
         rdf:about="">
        <dc:format>image/svg+xml</dc:format>
        <dc:type
           rdf:resource="http://purl.org/dc/dcmitype/StillImage" />
      </cc:Work>
    </rdf:RDF>
  </metadata>
  <sodipodi:namedview
     pagecolor="#ffffff"
     bordercolor="#666666"
     borderopacity="1"
     objecttolerance="10"
     gridtolerance="10"
     guidetolerance="10"
     inkscape:pageopacity="0"
     inkscape:pageshadow="2"
     inkscape:window-width="471"
     inkscape:window-height="442"
     id="namedview43"
     showgrid="false"
     inkscape:zoom="1.18"
     inkscape:cx="39.559071"
     inkscape:cy="100"
     inkscape:window-x="0"
     inkscape:window-y="0"
     inkscape:window-maximized="0"
     inkscape:current-layer="svg41" />
  <defs
     id="defs5">
    <clipPath
       id="a">
      <path
         d="M 0,357.583 H 141.457 V 0 H 0 Z"
         id="path2"
         inkscape:connector-curvature="0" />
    </clipPath>
  </defs>
  <path
     d="M 3.342278,200 H 75.775919 V 1.9494618 H 3.342278 Z"
     id="path7"
     inkscape:connector-curvature="0"
     style="fill:#959995" />
  <g
     clip-path="url(#a)"
     transform="matrix(0.55931154,0,0,-0.55931154,-1.6779346e-4,200)"
     id="g39">
    <path
       d="M 27.4583,354.0965 H 5.9763 v -101.214 c 0,0 -5.976,-0.219 -5.976,3.719 v 94.94 c 0,0 0,6.011 5.355,6.011 h 18.603 c 0,0 3.5,0.517 3.5,-3.456 m 113.9983,-2.5551 v -94.94 c 0,-3.938 -5.976,-3.719 -5.976,-3.719 v 101.214 h -21.474 c 0,3.973 3.501,3.465 3.501,3.465 0,0 13.23,-0.009 18.594,-0.009 5.355,0 5.355,-6.011 5.355,-6.011"
       id="path9"
       inkscape:connector-curvature="0"
       style="fill:#9a2025" />
    <path
       d="M 124.691,320.259 H 16.774 v 22.462 h 107.917 z"
       id="path11"
       inkscape:connector-curvature="0"
       style="fill:#21201f" />
    <path
       d="M 124.691,309.173 H 16.774 v 11.087 h 107.917 z"
       id="path13"
       inkscape:connector-curvature="0"
       style="fill:#ffffff" />
    <path
       d="m 48.5596,316.3593 v 1.015 c 0,0.903 0.451,1.354 1.354,1.354 h 6.091 v -1.354 h -6.091 v -1.015 h 4.737 c 0.902,0 1.354,-0.451 1.354,-1.354 v -1.015 c 0,-0.902 -0.452,-1.353 -1.354,-1.353 h -6.091 v 1.353 h 6.091 v 1.015 h -4.737 c -0.903,0 -1.354,0.452 -1.354,1.354 m 10.4901,1.0151 v 1.354 h 5.076 v -1.354 h -1.015 v -3.384 c 0,-0.902 -0.452,-1.353 -1.354,-1.353 h -3.722 c -0.903,0 -1.354,0.451 -1.354,1.353 v 1.015 h 1.354 v -1.015 h 3.722 v 3.384 z m 5.7523,-1.0154 h 2.369 v -1.354 h -2.369 z m 10.8287,3e-4 c 0,-0.902 -0.451,-1.354 -1.354,-1.354 h -5.075 v -1.015 h 6.429 v -1.353 h -7.783 v 2.368 c 0,0.903 0.451,1.354 1.354,1.354 h 5.075 v 1.015 h -6.429 v 1.354 h 6.429 c 0.903,0 1.354,-0.451 1.354,-1.354 z m 7.1063,1.0147 h -5.076 v -3.384 h 5.076 z m 1.353,-3.383 c 0,-0.903 -0.451,-1.354 -1.353,-1.354 h -5.076 c -0.902,0 -1.353,0.451 -1.353,1.354 v 3.383 c 0,0.903 0.451,1.354 1.353,1.354 h 5.076 c 0.902,0 1.353,-0.451 1.353,-1.354 z m 7.107,3.383 h -5.076 v -3.384 h 5.076 z m 1.353,-3.383 c 0,-0.903 -0.451,-1.354 -1.353,-1.354 h -5.076 c -0.903,0 -1.354,0.451 -1.354,1.354 v 3.383 c 0,0.903 0.451,1.354 1.354,1.354 h 5.076 c 0.902,0 1.353,-0.451 1.353,-1.354 z"
       id="path15"
       inkscape:connector-curvature="0"
       style="fill:#231f20" />
    <path
       d="m 70.4833,164.286 c -25.734,0 -46.595,20.861 -46.595,46.595 0,25.735 20.861,46.595 46.595,46.595 25.735,0 46.595,-20.86 46.595,-46.595 0,-25.734 -20.86,-46.595 -46.595,-46.595 m 0,98.51 c -28.675,0 -51.915,-23.24 -51.915,-51.915 0,-28.674 23.24,-51.915 51.915,-51.915 28.675,0 51.915,23.241 51.915,51.915 0,28.675 -23.24,51.915 -51.915,51.915"
       id="path17"
       inkscape:connector-curvature="0"
       style="fill:#656769" />
    <path
       d="m 117.0784,210.8811 c 0,-25.734 -20.861,-46.595 -46.595,-46.595 -25.735,0 -46.595,20.861 -46.595,46.595 0,25.735 20.86,46.595 46.595,46.595 25.734,0 46.595,-20.86 46.595,-46.595"
       id="path19"
       inkscape:connector-curvature="0"
       style="fill:#818283" />
    <path
       d="m 99.4028,210.8811 c 0,-15.969 -12.95,-28.92 -28.92,-28.92 -15.969,0 -28.919,12.951 -28.919,28.92 0,10.737 5.854,20.108 14.543,25.096 -0.595,-1.584 -0.937,-3.29 -0.971,-5.075 v -0.009 c -5.609,-4.489 -9.197,-11.393 -9.197,-19.137 0,-13.554 10.99,-24.544 24.544,-24.544 13.555,0 24.545,10.99 24.545,24.544 0,7.744 -3.588,14.648 -9.197,19.137 v 0.009 c -0.035,1.785 -0.376,3.491 -0.971,5.075 8.689,-4.988 14.543,-14.359 14.543,-25.096"
       id="path21"
       inkscape:connector-curvature="0"
       style="fill:#656769" />
    <path
       d="m 95.0277,211.7561 c 0,-13.554 -10.99,-24.544 -24.544,-24.544 -13.555,0 -24.545,10.99 -24.545,24.544 0,7.744 3.588,14.648 9.197,19.137 -0.009,-0.105 -0.009,-0.219 -0.009,-0.324 0,-2.546 0.621,-4.953 1.724,-7.07 -2.669,-3.176 -4.27,-7.272 -4.27,-11.743 0,-10.089 8.172,-18.262 18.261,-18.262 10.089,0 18.262,8.173 18.262,18.262 0,4.716 -1.785,9.022 -4.725,12.259 0.936,1.995 1.461,4.209 1.461,6.554 0,0.105 0,0.219 -0.008,0.324 5.608,-4.489 9.196,-11.393 9.196,-19.137"
       id="path23"
       inkscape:connector-curvature="0"
       style="fill:#232221" />
    <path
       d="m 49.1152,235.9856 -5.486,5.486 c -0.385,0.385 -0.893,0.578 -1.4,0.578 -0.499,0 -1.007,-0.193 -1.392,-0.578 -0.761,-0.761 -0.761,-2.012 0,-2.782 l 5.495,-5.487 c 0.377,-0.385 0.884,-0.577 1.392,-0.577 0.507,0 1.015,0.192 1.391,0.577 0.77,0.762 0.77,2.013 0,2.783 m 52.641,-52.641 -5.486,5.486 c -0.385,0.385 -0.892,0.577 -1.391,0.577 -0.508,0 -1.006,-0.192 -1.391,-0.577 -0.77,-0.761 -0.77,-2.021 0,-2.783 l 5.486,-5.495 c 0.385,-0.385 0.892,-0.569 1.391,-0.569 0.508,0 1.015,0.184 1.391,0.569 0.771,0.77 0.771,2.021 0,2.792 m -0.314,58.057 c -0.771,0.762 -2.022,0.762 -2.783,0 l -5.495,-5.495 c -0.377,-0.385 -0.569,-0.883 -0.569,-1.391 0,-0.508 0.192,-1.006 0.569,-1.391 0.77,-0.77 2.021,-0.77 2.782,0 l 5.496,5.486 c 0.376,0.385 0.568,0.893 0.568,1.391 0,0.508 -0.192,1.015 -0.568,1.4 m -52.642,-52.65 c -0.77,0.77 -2.021,0.77 -2.791,0 l -5.487,-5.486 c -0.385,-0.385 -0.577,-0.893 -0.577,-1.392 0,-0.507 0.192,-1.006 0.577,-1.391 0.762,-0.77 2.022,-0.77 2.783,0 l 5.495,5.487 c 0.376,0.385 0.569,0.892 0.569,1.391 0,0.507 -0.193,1.015 -0.569,1.391 m 23.127,64.402 c -0.359,0.359 -0.849,0.578 -1.391,0.578 -1.085,0 -1.969,-0.884 -1.969,-1.969 v -5.959 c 0.63,0.079 1.269,0.122 1.916,0.122 0.683,0 1.365,-0.043 2.021,-0.131 v 5.968 c 0,0.542 -0.218,1.032 -0.577,1.391 m 0,-74.447 c -0.359,0.359 -0.849,0.577 -1.391,0.577 -1.085,0 -1.969,-0.883 -1.969,-1.968 v -7.771 c 0,-0.542 0.219,-1.032 0.577,-1.391 0.359,-0.359 0.849,-0.577 1.392,-0.577 1.085,0 1.968,0.892 1.968,1.968 v 7.771 c 0,0.542 -0.218,1.032 -0.577,1.391 m 39.437,34.091 h -7.761 c -0.543,0 -1.033,-0.219 -1.391,-0.578 -0.359,-0.358 -0.578,-0.848 -0.578,-1.391 0,-1.085 0.884,-1.969 1.969,-1.969 h 7.761 c 0.543,0 1.033,0.219 1.392,0.578 0.358,0.359 0.577,0.849 0.577,1.391 0,1.085 -0.884,1.969 -1.969,1.969 m -72.478,-1.969 c 0,-0.542 -0.219,-1.032 -0.578,-1.391 -0.358,-0.359 -0.848,-0.578 -1.391,-0.578 h -7.77 c -1.085,0 -1.969,0.884 -1.969,1.969 0,0.543 0.219,1.033 0.578,1.391 0.358,0.359 0.848,0.578 1.391,0.578 h 7.77 c 1.085,0 1.969,-0.884 1.969,-1.969"
       id="path25"
       inkscape:connector-curvature="0"
       style="fill:#959995" />
    <path
       d="m 85.84,230.5692 c 0,-2.345 -0.525,-4.559 -1.461,-6.554 -0.657,-1.374 -1.505,-2.634 -2.512,-3.754 -1.093,-1.207 -2.38,-2.24 -3.806,-3.045 -2.231,-1.277 -4.821,-2.004 -7.578,-2.004 -2.756,0 -5.346,0.727 -7.577,2.004 -1.252,0.709 -2.398,1.593 -3.395,2.616 -1.059,1.077 -1.961,2.311 -2.661,3.667 -1.102,2.117 -1.723,4.524 -1.723,7.07 0,0.105 0,0.219 0.008,0.324 v 0.009 c 0.035,1.785 0.377,3.491 0.972,5.075 1.977,5.241 6.729,9.117 12.46,9.826 0.63,0.079 1.269,0.123 1.916,0.123 0.683,0 1.365,-0.044 2.022,-0.132 5.687,-0.752 10.395,-4.611 12.355,-9.817 0.595,-1.584 0.936,-3.29 0.971,-5.075 v -0.009 c 0.009,-0.105 0.009,-0.219 0.009,-0.324"
       id="path27"
       inkscape:connector-curvature="0"
       style="fill:#191716" />
    <path
       d="m 89.1038,211.7561 c 0,-10.089 -8.173,-18.262 -18.262,-18.262 -10.089,0 -18.262,8.173 -18.262,18.262 0,4.471 1.602,8.567 4.271,11.743 0.7,-1.356 1.601,-2.59 2.66,-3.666 -1.637,-2.276 -2.59,-5.058 -2.59,-8.077 0,-4.743 2.371,-8.925 5.985,-11.437 2.249,-1.566 4.979,-2.485 7.936,-2.485 2.643,0 5.119,0.735 7.219,2.013 4.017,2.441 6.703,6.86 6.703,11.909 0,3.211 -1.085,6.151 -2.896,8.505 1.006,1.12 1.855,2.38 2.511,3.754 2.94,-3.237 4.725,-7.543 4.725,-12.259"
       id="path29"
       inkscape:connector-curvature="0"
       style="fill:#1b1918" />
    <path
       d="m 78.061,217.2163 v -17.369 c -2.1,-1.278 -4.576,-2.013 -7.219,-2.013 -2.958,0 -5.688,0.919 -7.936,2.485 v 16.897 c 2.231,-1.277 4.821,-2.004 7.577,-2.004 2.757,0 5.347,0.727 7.578,2.004"
       id="path31"
       inkscape:connector-curvature="0"
       style="fill:#191716" />
    <path
       d="m 62.9056,217.2163 v -16.897 c -3.614,2.512 -5.985,6.694 -5.985,11.437 0,3.019 0.954,5.801 2.59,8.076 0.997,-1.023 2.144,-1.907 3.395,-2.616 m 21.8581,-5.4602 c 0,-5.049 -2.686,-9.468 -6.703,-11.909 v 17.369 c 1.427,0.805 2.713,1.838 3.807,3.045 1.811,-2.354 2.896,-5.294 2.896,-8.505"
       id="path33"
       inkscape:connector-curvature="0"
       style="fill:#1c1b1a" />
    <path
       d="m 44.6425,334.2797 c 0,0.752 0.27,1.401 0.81,1.948 0.54,0.547 1.296,0.821 2.266,0.821 h 7.383 v -2.461 h -7.383 c -0.41,0 -0.615,-0.103 -0.615,-0.308 0,-0.205 0.205,-0.308 0.615,-0.308 h 1.846 c 1.408,0 2.683,-0.57 3.825,-1.712 1.141,-1.142 1.712,-2.519 1.712,-4.132 0,-1.6 -0.571,-2.974 -1.712,-4.123 -1.142,-1.148 -2.417,-1.722 -3.825,-1.722 h -7.998 v 2.461 h 7.383 c 1.135,0 2.034,0.335 2.697,1.005 0.663,0.669 0.994,1.462 0.994,2.379 0,0.929 -0.331,1.726 -0.994,2.389 -0.663,0.663 -1.562,0.994 -2.697,0.994 h -1.231 c -0.97,0 -1.726,0.27 -2.266,0.81 -0.54,0.541 -0.81,1.193 -0.81,1.959 m -3.076,0 c 0,1.6 0.571,2.974 1.712,4.122 1.142,1.149 2.417,1.723 3.825,1.723 h 7.998 v -2.461 h -7.383 c -1.135,0 -2.033,-0.335 -2.697,-1.005 -0.663,-0.67 -0.994,-1.463 -0.994,-2.379 0,-0.93 0.331,-1.726 0.994,-2.389 0.664,-0.663 1.562,-0.995 2.697,-0.995 h 1.231 c 0.97,0 1.726,-0.27 2.266,-0.81 0.54,-0.54 0.81,-1.193 0.81,-1.958 0,-0.752 -0.27,-1.402 -0.81,-1.949 -0.54,-0.547 -1.296,-0.82 -2.266,-0.82 h -7.383 v 2.461 h 7.383 c 0.41,0 0.615,0.102 0.615,0.308 0,0.205 -0.205,0.307 -0.615,0.307 h -1.846 c -1.408,0 -2.683,0.571 -3.825,1.713 -1.141,1.141 -1.712,2.519 -1.712,4.132 m 17.8421,-3.3839 h 7.998 v -2.461 h -5.537 c 0,-0.41 0.205,-0.615 0.615,-0.615 h 6.768 v -2.461 h -7.383 c -1.641,0 -2.461,0.82 -2.461,2.461 z m 0,0.615 v 3.077 c 0,1.64 0.82,2.461 2.461,2.461 h 7.383 v -2.461 h -6.768 c -0.41,0 -0.615,-0.206 -0.615,-0.616 h 5.537 v -2.461 z m -3.076,3.077 c 0,3.691 1.845,5.537 5.537,5.537 h 7.383 v -2.461 h -7.383 c -2.051,0 -3.076,-1.026 -3.076,-3.076 v -6.768 c 0,-2.051 1.025,-3.077 3.076,-3.077 h 7.383 v -2.461 h -7.383 c -3.692,0 -5.537,1.846 -5.537,5.538 z m 17.2268,-4e-4 c 0,1.641 0.82,2.461 2.461,2.461 h 7.383 v -2.461 h -6.768 c -0.41,0 -0.615,-0.205 -0.615,-0.615 v -5.538 c 0,-0.41 0.205,-0.615 0.615,-0.615 h 1.231 v 0.615 h -1.231 v 2.461 h 3.692 v -5.537 h -4.307 c -1.641,0 -2.461,0.821 -2.461,2.461 z m -3.076,0 c 0,3.691 1.845,5.537 5.537,5.537 h 7.383 v -2.461 h -7.383 c -2.051,0 -3.076,-1.025 -3.076,-3.076 v -6.768 c 0,-2.051 1.025,-3.076 3.076,-3.076 h 4.922 v 6.768 h -4.307 v 2.461 h 6.768 v -11.69 h -7.383 c -3.692,0 -5.537,1.846 -5.537,5.537 z"
       id="path35"
       inkscape:connector-curvature="0"
       style="fill:#28479f" />
    <path
       d="m 91.6068,330.6908 -1.128,-2.871 h 2.256 z m -1.538,-5.332 v 1.333 l -1.743,-4.409 h -2.461 l 5.332,14.355 c 0.068,0.274 0.205,0.411 0.41,0.411 0.205,0 0.342,-0.137 0.41,-0.411 l 4.307,-11.279 z m 0,-0.615 h 7.28 l -4.922,12.51 c -0.136,0.273 -0.41,0.41 -0.82,0.41 -0.342,0 -0.615,-0.137 -0.82,-0.41 l -5.538,-14.971 h -2.461 l 5.743,15.791 c 0.683,1.367 1.709,2.051 3.076,2.051 1.572,0 2.598,-0.684 3.076,-2.051 l 5.948,-15.791 h -10.562 z"
       id="path37"
       inkscape:connector-curvature="0"
       style="fill:#28479f" />
  </g>
</svg>
