<?xml version="1.0" encoding="UTF-8" standalone="no"?>
<svg
   xmlns:dc="http://purl.org/dc/elements/1.1/"
   xmlns:cc="http://creativecommons.org/ns#"
   xmlns:rdf="http://www.w3.org/1999/02/22-rdf-syntax-ns#"
   xmlns:svg="http://www.w3.org/2000/svg"
   xmlns="http://www.w3.org/2000/svg"
   xmlns:sodipodi="http://sodipodi.sourceforge.net/DTD/sodipodi-0.dtd"
   xmlns:inkscape="http://www.inkscape.org/namespaces/inkscape"
   viewBox="-51 295.6 403 136.76416"
   version="1.1"
   id="svg16"
   sodipodi:docname="logo.svg"
   width="403"
   height="136.76416"
   inkscape:version="0.92.4 5da689c313, 2019-01-14">
  <metadata
     id="metadata22">
    <rdf:RDF>
      <cc:Work
         rdf:about="">
        <dc:format>image/svg+xml</dc:format>
        <dc:type
           rdf:resource="http://purl.org/dc/dcmitype/StillImage" />
      </cc:Work>
    </rdf:RDF>
  </metadata>
  <defs
     id="defs20" />
  <sodipodi:namedview
     pagecolor="#ffffff"
     bordercolor="#666666"
     borderopacity="1"
     objecttolerance="10"
     gridtolerance="10"
     guidetolerance="10"
     inkscape:pageopacity="0"
     inkscape:pageshadow="2"
     inkscape:window-width="471"
     inkscape:window-height="442"
     id="namedview18"
     showgrid="false"
     inkscape:zoom="0.6775"
     inkscape:cx="200"
     inkscape:cy="68.38209"
     inkscape:window-x="1920"
     inkscape:window-y="186"
     inkscape:window-maximized="0"
     inkscape:current-layer="svg16">
    <inkscape:grid
       type="xygrid"
       id="grid24"
       originx="0"
       originy="9.84375e-06" />
  </sodipodi:namedview>
  <path
     d="M 32.820807,369.05427 H 62.29137 c 12.06961,0 21.84377,-9.77415 21.84377,-21.84376 0,-12.0696 -9.77416,-21.76971 -21.84377,-21.76971 h -7.70085 c -0.59237,0 -1.1107,-0.51833 -1.1107,-1.1107 0,-0.66642 0.51833,-1.18475 1.1107,-1.18475 h 29.39652 l 0.074,-9.18178 H 54.59047 c -5.70159,0 -10.292482,4.59089 -10.292482,10.29248 0,5.77564 4.590892,10.44058 10.292482,10.44058 h 7.70085 c 6.88634,0 12.51389,5.62754 12.51389,12.51388 0,6.88634 -5.62755,12.43984 -12.51389,12.43984 H 32.820757 v 9.40392 z"
     id="path2"
     inkscape:connector-curvature="0"
     style="fill:#17569b" />
  <path
     d="M 32.820807,357.503 H 62.29137 c 5.77564,0 10.36653,-4.66494 10.36653,-10.36653 0,-5.7016 -4.59089,-10.36653 -10.36653,-10.36653 h -7.70085 c -6.886336,0 -12.439835,-5.7016 -12.439835,-12.58793 0,-6.88634 5.553499,-12.43984 12.439835,-12.43984 h 29.47057 l -0.074,-9.32988 H 54.59057 c -12.069602,0 -21.769713,9.77416 -21.769713,21.84376 0,12.06961 9.774158,21.76972 21.769713,21.76972 h 7.62681 c 0.59237,0 1.1107,0.51832 1.1107,1.1107 0,0.59237 -0.51833,1.1107 -1.1107,1.1107 H 32.820857 v 9.25583 z m 74.120693,2.2214 c -5.10922,0 -9.25583,-4.07257 -9.25583,-9.25583 v -29.61866 c 0,-4.96113 4.14661,-9.10774 9.25583,-9.10774 h 31.46983 v -9.25583 H 106.9415 c -10.21843,0 -18.51166,8.29322 -18.51166,18.51166 v 29.47057 c 0,10.21843 8.29323,18.51166 18.51166,18.51166 h 31.32174 v -9.25583 z"
     id="path4"
     inkscape:connector-curvature="0"
     style="fill:#17569b" />
  <path
     d="m 99.98112,320.998 c 0,-3.85043 3.10996,-7.10848 7.03443,-7.10848 h 31.46983 v 9.25583 H 111.3843 c -2.14735,0 -2.14735,2.14735 -2.14735,2.14735 h 22.65827 v 9.25584 h -31.84006 l -0.074,-13.55054 z m 6.96038,36.505 c -3.85042,0 -7.03443,-3.18401 -7.03443,-7.03443 v -13.62459 h 31.84006 v 9.25583 h -22.65827 c 0,2.14736 2.14735,2.14736 2.14735,2.14736 h 26.95298 v 9.18178 l -31.24769,0.074 z m 53.60978,2.2214 c -5.10922,0 -9.32988,-4.14662 -9.32988,-9.25583 V 320.998 c 0,-5.10922 4.14661,-9.25583 9.25583,-9.25583 h 30.50722 v -9.25583 h -30.58127 c -10.21843,0 -18.51166,8.29322 -18.51166,18.51166 v 29.47057 c 0,10.21843 8.36727,18.51166 18.58571,18.51166 h 30.50722 v -43.61348 h -26.21251 v 9.25583 h 16.95668 v 25.10182 z"
     id="path6"
     inkscape:connector-curvature="0"
     style="fill:#17569b" />
  <path
     d="m 153.36875,350.46857 c 0,3.85042 3.18401,7.10847 7.10848,7.10847 h 19.02999 v -20.73306 h -14.73528 v 9.32988 h 5.47945 v 2.14735 h -5.47945 c -1.18475,0 -2.14736,-1.03665 -2.14736,-2.14735 V 325.4408 c 0,0 0,-2.14735 2.14736,-2.14735 h 26.13846 v -9.25584 h -30.50722 c -3.85042,0 -7.10847,3.18401 -7.10847,7.10848 l 0.074,29.32248 z m 66.19771,-36.6531 c 0.44428,-1.18474 1.48093,-2.0733 2.81377,-2.0733 1.33284,0 2.44354,0.81451 2.81377,2.0733 l 14.73529,43.83562 h -21.62163 v -10.29248 h 7.25658 l -3.25806,-9.77416 -10.66271,31.39578 h -10.88486 z"
     id="path8"
     inkscape:connector-curvature="0"
     style="fill:#17569b" />
  <path
     d="m 243.03924,359.7244 h -24.65753 v 9.25583 h 37.46761 l -19.47427,-57.75639 c -1.70308,-5.62754 -7.33062,-9.77416 -13.99482,-9.77416 -6.6642,0 -12.29174,4.14662 -13.99482,9.77416 L 188.689,368.98023 h 9.92226 l 19.02998,-56.20141 c 0.81452,-1.85116 2.59164,-3.184 4.81304,-3.184 2.14735,0 3.92447,1.25879 4.73898,3.184 z m 7.40467,-49.61126 c 1.92521,0 3.77638,-0.74046 5.10922,-2.14735 1.40688,-1.40689 2.14735,-3.18401 2.14735,-5.10922 0,-1.92521 -0.74047,-3.77638 -2.14735,-5.10922 -1.33284,-1.40688 -3.18401,-2.14735 -5.10922,-2.14735 -3.99852,0 -7.25657,3.184 -7.25657,7.18252 0,1.92522 0.81451,3.77638 2.14735,5.10922 1.33284,1.55498 3.18401,2.2214 5.10922,2.2214 z m -6.21992,-7.25657 c 0,-1.62903 0.66642,-3.18401 1.85117,-4.4428 1.1107,-1.18475 2.73972,-1.85116 4.4428,-1.85116 1.62902,0 3.184,0.66641 4.4428,1.85116 1.18474,1.18475 1.85116,2.81377 1.85116,4.4428 0,3.48019 -2.81377,6.21992 -6.21992,6.21992 -1.70307,0 -3.25805,-0.59237 -4.4428,-1.85117 -1.25879,-1.03665 -1.92521,-2.66568 -1.92521,-4.36875 z"
     id="path10"
     inkscape:connector-curvature="0"
     style="fill:#17569b" />
  <path
     d="m 248.59274,303.52299 v 3.48019 h -1.03665 v -8.07108 h 2.96187 c 1.1107,0 1.77712,0 2.44354,0.51832 0.51832,0.44428 0.81451,1.1107 0.81451,1.85117 0,1.85117 -1.48093,2.14735 -1.92521,2.14735 l 2.2214,3.4802 h -1.2588 l -2.14735,-3.4802 -2.07331,0.074 z m 0,-0.88856 h 2.14736 c 0.37023,0 0.66642,0 0.9626,-0.14809 0.81452,-0.1481 1.03666,-0.74047 1.03666,-1.2588 0,-0.14809 -0.074,-0.81451 -0.51833,-1.18474 -0.44428,-0.37024 -0.96261,-0.29619 -1.55498,-0.29619 h -2.07331 z"
     id="path12"
     inkscape:connector-curvature="0"
     style="fill:#17569b" />
  <path
     d="m -51,402.81955 v -8.07109 c 0,-7.18252 3.554239,-10.73676 10.736764,-10.73676 H 8.089226 v 10.73676 h -48.352462 v 8.07109 h 37.615698 c 7.182525,0 10.736764,3.55424 10.736764,10.73676 v 8.07109 c 0,7.18252 -3.554239,10.73676 -10.736764,10.73676 H -51 V 421.6274 h 48.352462 v -8.07109 H -40.263236 C -47.371714,413.55631 -51,409.92803 -51,402.81955 Z m 64.420585,18.7338 v -26.87893 c 0,-7.18253 3.554239,-10.73677 10.736764,-10.73677 H 72.50981 v 10.73677 H 24.157349 v 26.87893 H 61.77305 v -8.07109 H 40.299519 V 402.7455 H 72.50981 v 29.54461 H 24.157349 c -7.108478,0 -10.736764,-3.55424 -10.736764,-10.73676 z m 64.420585,-7.99704 v -10.73676 h 18.80785 v 10.73676 z m 24.21325,18.7338 v -10.73676 h 16.14217 v -26.87893 h -16.14217 v -10.73677 h 29.54462 v 37.6157 h 16.14217 v 10.73676 z m 112.699,-10.73676 c 0,7.18252 -3.55423,10.73676 -10.73676,10.73676 h -40.28138 c -7.18252,0 -10.73676,-3.55424 -10.73676,-10.73676 v -26.87893 c 0,-7.18253 3.55424,-10.73677 10.73676,-10.73677 h 40.28138 c 7.18253,0 10.73676,3.55424 10.73676,10.73677 z m -10.73676,0 v -26.87893 h -40.28138 v 26.87893 z m 77.82303,0 c 0,7.18252 -3.55424,10.73676 -10.73677,10.73676 h -40.28137 c -7.18253,0 -10.73677,-3.55424 -10.73677,-10.73676 v -26.87893 c 0,-7.18253 3.55424,-10.73677 10.73677,-10.73677 h 40.28137 c 7.18253,0 10.73677,3.55424 10.73677,10.73677 z m -10.73677,0 v -26.87893 h -40.28137 v 26.87893 z m 77.89708,0 c 0,7.18252 -3.55424,10.73676 -10.73676,10.73676 h -40.28138 c -7.18253,0 -10.73677,-3.55424 -10.73677,-10.73676 v -26.87893 c 0,-7.18253 3.55424,-10.73677 10.73677,-10.73677 h 40.28138 c 7.18252,0 10.73676,3.55424 10.73676,10.73677 z m -10.73676,0 v -26.87893 h -40.28138 v 26.87893 z"
     id="path14"
     inkscape:connector-curvature="0"
     style="fill:#ff0000" />
</svg>
