<?xml version="1.0" encoding="UTF-8" standalone="no"?>
<svg
   xmlns:dc="http://purl.org/dc/elements/1.1/"
   xmlns:cc="http://creativecommons.org/ns#"
   xmlns:rdf="http://www.w3.org/1999/02/22-rdf-syntax-ns#"
   xmlns:svg="http://www.w3.org/2000/svg"
   xmlns="http://www.w3.org/2000/svg"
   xmlns:sodipodi="http://sodipodi.sourceforge.net/DTD/sodipodi-0.dtd"
   xmlns:inkscape="http://www.inkscape.org/namespaces/inkscape"
   width="500"
   height="290.40408"
   version="1.1"
   id="svg148"
   sodipodi:docname="consolegame.svg"
   inkscape:version="0.92.4 5da689c313, 2019-01-14">
  <metadata
     id="metadata152">
    <rdf:RDF>
      <cc:Work
         rdf:about="">
        <dc:format>image/svg+xml</dc:format>
        <dc:type
           rdf:resource="http://purl.org/dc/dcmitype/StillImage" />
      </cc:Work>
    </rdf:RDF>
  </metadata>
  <sodipodi:namedview
     pagecolor="#ffffff"
     bordercolor="#666666"
     borderopacity="1"
     objecttolerance="10"
     gridtolerance="10"
     guidetolerance="10"
     inkscape:pageopacity="0"
     inkscape:pageshadow="2"
     inkscape:window-width="640"
     inkscape:window-height="480"
     id="namedview150"
     showgrid="false"
     inkscape:zoom="0.542"
     inkscape:cx="250"
     inkscape:cy="145.20206"
     inkscape:window-x="0"
     inkscape:window-y="0"
     inkscape:window-maximized="0"
     inkscape:current-layer="svg148">
    <inkscape:grid
       type="xygrid"
       id="grid959"
       originx="0"
       originy="1.6748047e-05" />
  </sodipodi:namedview>
  <defs
     id="defs8">
    <clipPath
       id="a">
      <path
         d="M 0,369.507 H 464.017 V 0 H 0 Z"
         id="path2"
         inkscape:connector-curvature="0" />
    </clipPath>
    <clipPath
       id="b">
      <path
         d="M 0,223.285 H 144.692 V 0 H 0 Z"
         id="path5"
         inkscape:connector-curvature="0" />
    </clipPath>
  </defs>
  <g
     clip-path="url(#a)"
     transform="matrix(0.7859231,0,0,-0.7859231,0,290.40409)"
     id="g132">
    <path
       d="m 285.9677,366.7803 h -107.918 c -0.752,0 -1.363,0.611 -1.363,1.363 0,0.753 0.611,1.364 1.363,1.364 h 107.918 c 0.754,0 1.365,-0.611 1.365,-1.364 0,-0.752 -0.611,-1.363 -1.365,-1.363"
       id="path10"
       inkscape:connector-curvature="0"
       style="fill:#5a5758" />
    <path
       d="m 464.0166,44.0469 c 0,-2.256 -1.846,-4.104 -4.104,-4.104 H 4.1036 c -2.256,0 -4.104,1.848 -4.104,4.104 v 226.537 c 0,2.258 1.848,4.104 4.104,4.104 h 455.809 c 2.258,0 4.104,-1.846 4.104,-4.104 v -12.168 c 0,-2.256 -1.846,-4.119 -4.104,-4.137 l -17.428,-0.14 c -2.257,-0.02 -4.104,-1.881 -4.104,-4.139 v -24.723 c 0,-2.256 1.847,-4.103 4.104,-4.103 h 17.428 c 2.258,0 4.104,-1.848 4.104,-4.104 z"
       id="path12"
       inkscape:connector-curvature="0"
       style="fill:#4f4c4d" />
    <path
       d="m 459.6406,278.518 c 0,3.612 -2.955,6.566 -6.568,6.566 H 10.9446 c -3.612,0 -6.566,-2.954 -6.566,-6.566 V 36.113 c 0,-3.611 2.954,-6.566 6.566,-6.566 h 392.022 c 1.301,0 2.373,1.109 2.381,2.464 0.01,1.354 0.885,2.464 1.945,2.464 h 22.346 c 1.069,0 1.945,-1.11 1.94,-2.464 -0.003,-1.355 1.396,-2.464 3.112,-2.464 h 18.382 c 3.613,0 6.568,2.955 6.568,6.566 z"
       id="path14"
       inkscape:connector-curvature="0"
       style="fill:#444141" />
    <path
       d="m 337.3418,217.0967 c 0,-3.161 -2.585,-5.745 -5.744,-5.745 h -199.178 c -3.159,0 -5.746,2.584 -5.746,5.745 v 145.416 c 0,3.161 2.587,5.746 5.746,5.746 h 199.178 c 3.159,0 5.744,-2.585 5.744,-5.746 z"
       id="path16"
       inkscape:connector-curvature="0"
       style="fill:#444141" />
    <path
       d="M 328.588,259.367 H 135.431 V 361.562 H 328.588 Z M 450.8261,43.7871 c 0,-2.258 -1.847,-4.105 -4.105,-4.105 H 17.7061 c -2.256,0 -4.104,1.847 -4.104,4.105 v 187.775 c 0,2.258 1.848,4.104 4.104,4.104 h 429.015 c 2.258,0 4.105,-1.846 4.105,-4.104 z"
       id="path18"
       inkscape:connector-curvature="0"
       style="fill:#4f4c4d" />
    <path
       d="M 371.098,216.221 H 93.332 v 49.691 h 277.766 z"
       id="path20"
       inkscape:connector-curvature="0"
       style="fill:#4f4c4d" />
    <path
       d="M 440.977,45.775 H 23.453 V 216.22 h 417.524 z"
       id="path22"
       inkscape:connector-curvature="0"
       style="fill:#5a5758" />
    <path
       d="M 151.495,62.59 H 31.387 v 20.654 h 120.108 z"
       id="path24"
       inkscape:connector-curvature="0"
       style="fill:#4f4c4d" />
    <path
       d="m 49.1592,72.9179 c 0,-11.502 -9.325,-20.826 -20.825,-20.826 -11.503,0 -20.826,9.324 -20.826,20.826 0,11.501 9.323,20.826 20.826,20.826 11.5,0 20.825,-9.325 20.825,-20.826"
       id="path26"
       inkscape:connector-curvature="0"
       style="fill:#4f4c4d" />
    <path
       d="m 28.334,87.5976 c -8.095,0 -14.68,-6.586 -14.68,-14.68 0,-8.093 6.585,-14.679 14.68,-14.679 8.094,0 14.679,6.586 14.679,14.679 0,8.094 -6.585,14.68 -14.679,14.68 m 0,-30.102 c -8.505,0 -15.424,6.918 -15.424,15.422 0,8.504 6.919,15.422 15.424,15.422 8.504,0 15.423,-6.918 15.423,-15.422 0,-8.504 -6.919,-15.422 -15.423,-15.422"
       id="path28"
       inkscape:connector-curvature="0"
       style="fill:#231f20" />
    <path
       d="M 151.495,114.025 H 31.387 v 20.654 h 120.108 z"
       id="path30"
       inkscape:connector-curvature="0"
       style="fill:#4f4c4d" />
    <path
       d="m 49.1592,124.3535 c 0,-11.502 -9.325,-20.826 -20.825,-20.826 -11.503,0 -20.826,9.324 -20.826,20.826 0,11.501 9.323,20.825 20.826,20.825 11.5,0 20.825,-9.324 20.825,-20.825"
       id="path32"
       inkscape:connector-curvature="0"
       style="fill:#4f4c4d" />
    <path
       d="m 28.334,139.0332 c -8.095,0 -14.68,-6.586 -14.68,-14.68 0,-8.093 6.585,-14.679 14.68,-14.679 8.094,0 14.679,6.586 14.679,14.679 0,8.094 -6.585,14.68 -14.679,14.68 m 0,-30.103 c -8.505,0 -15.424,6.919 -15.424,15.423 0,8.504 6.919,15.422 15.424,15.422 8.504,0 15.423,-6.918 15.423,-15.422 0,-8.504 -6.919,-15.423 -15.423,-15.423"
       id="path34"
       inkscape:connector-curvature="0"
       style="fill:#231f20" />
    <path
       d="M 151.495,165.461 H 31.387 v 20.654 h 120.108 z"
       id="path36"
       inkscape:connector-curvature="0"
       style="fill:#4f4c4d" />
    <path
       d="m 49.1592,175.789 c 0,-11.502 -9.325,-20.827 -20.825,-20.827 -11.503,0 -20.826,9.325 -20.826,20.827 0,11.5 9.323,20.825 20.826,20.825 11.5,0 20.825,-9.325 20.825,-20.825"
       id="path38"
       inkscape:connector-curvature="0"
       style="fill:#4f4c4d" />
    <path
       d="m 28.334,190.4668 c -8.095,0 -14.68,-6.584 -14.68,-14.678 0,-8.094 6.585,-14.679 14.68,-14.679 8.094,0 14.679,6.585 14.679,14.679 0,8.094 -6.585,14.678 -14.679,14.678 m 0,-30.101 c -8.505,0 -15.424,6.919 -15.424,15.423 0,8.504 6.919,15.422 15.424,15.422 8.504,0 15.423,-6.918 15.423,-15.422 0,-8.504 -6.919,-15.423 -15.423,-15.423"
       id="path40"
       inkscape:connector-curvature="0"
       style="fill:#231f20" />
    <path
       d="M 312.613,62.59 H 432.72 V 83.244 H 312.613 Z"
       id="path42"
       inkscape:connector-curvature="0"
       style="fill:#4f4c4d" />
    <path
       d="m 414.9492,72.9179 c 0,-11.502 9.322,-20.826 20.825,-20.826 11.502,0 20.825,9.324 20.825,20.826 0,11.501 -9.323,20.826 -20.825,20.826 -11.503,0 -20.825,-9.325 -20.825,-20.826"
       id="path44"
       inkscape:connector-curvature="0"
       style="fill:#4f4c4d" />
    <path
       d="m 435.7744,87.5976 c -8.095,0 -14.681,-6.586 -14.681,-14.68 0,-8.093 6.586,-14.679 14.681,-14.679 8.095,0 14.68,6.586 14.68,14.679 0,8.094 -6.585,14.68 -14.68,14.68 m 0,-30.102 c -8.505,0 -15.425,6.918 -15.425,15.422 0,8.504 6.92,15.422 15.425,15.422 8.505,0 15.424,-6.918 15.424,-15.422 0,-8.504 -6.919,-15.422 -15.424,-15.422"
       id="path46"
       inkscape:connector-curvature="0"
       style="fill:#231f20" />
    <path
       d="M 312.613,114.025 H 432.72 v 20.654 H 312.613 Z"
       id="path48"
       inkscape:connector-curvature="0"
       style="fill:#4f4c4d" />
    <path
       d="m 414.9492,124.3535 c 0,-11.502 9.322,-20.826 20.825,-20.826 11.502,0 20.825,9.324 20.825,20.826 0,11.501 -9.323,20.825 -20.825,20.825 -11.503,0 -20.825,-9.324 -20.825,-20.825"
       id="path50"
       inkscape:connector-curvature="0"
       style="fill:#4f4c4d" />
    <path
       d="m 435.7744,139.0332 c -8.095,0 -14.681,-6.586 -14.681,-14.68 0,-8.093 6.586,-14.679 14.681,-14.679 8.095,0 14.68,6.586 14.68,14.679 0,8.094 -6.585,14.68 -14.68,14.68 m 0,-30.103 c -8.505,0 -15.425,6.919 -15.425,15.423 0,8.504 6.92,15.422 15.425,15.422 8.505,0 15.424,-6.918 15.424,-15.422 0,-8.504 -6.919,-15.423 -15.424,-15.423"
       id="path52"
       inkscape:connector-curvature="0"
       style="fill:#231f20" />
    <path
       d="M 312.613,165.461 H 432.72 v 20.654 H 312.613 Z"
       id="path54"
       inkscape:connector-curvature="0"
       style="fill:#4f4c4d" />
    <path
       d="m 414.9492,175.789 c 0,-11.502 9.322,-20.827 20.825,-20.827 11.502,0 20.825,9.325 20.825,20.827 0,11.5 -9.323,20.825 -20.825,20.825 -11.503,0 -20.825,-9.325 -20.825,-20.825"
       id="path56"
       inkscape:connector-curvature="0"
       style="fill:#4f4c4d" />
    <path
       d="m 435.7744,190.4668 c -8.095,0 -14.681,-6.584 -14.681,-14.678 0,-8.094 6.586,-14.679 14.681,-14.679 8.095,0 14.68,6.585 14.68,14.679 0,8.094 -6.585,14.678 -14.68,14.678 m 0,-30.101 c -8.505,0 -15.425,6.919 -15.425,15.423 0,8.504 6.92,15.422 15.425,15.422 8.505,0 15.424,-6.918 15.424,-15.422 0,-8.504 -6.919,-15.423 -15.424,-15.423"
       id="path58"
       inkscape:connector-curvature="0"
       style="fill:#231f20" />
    <path
       d="m 328.5879,4.9238 c 0,-2.707 -2.215,-4.924 -4.925,-4.924 h -183.308 c -2.708,0 -4.924,2.217 -4.924,4.924 v 258.82 c 0,2.707 2.216,4.924 4.924,4.924 h 183.308 c 2.71,0 4.925,-2.217 4.925,-4.924 z"
       id="path60"
       inkscape:connector-curvature="0"
       style="fill:#5a5758" />
    <path
       d="m 145.827,20.381 h -6.156 v 225.58 h 6.156 z m 11.9,0 h -6.156 v 225.58 h 6.156 z m 11.902,0 h -6.156 v 225.58 h 6.156 z m 11.901,0 h -6.155 v 225.58 h 6.155 z m 11.902,0 h -6.155 V 170.76 h 6.155 z m 83.309,0 h -6.155 V 170.76 h 6.155 z m 11.902,0 h -6.157 v 225.58 h 6.157 z m 11.901,0 h -6.155 v 225.58 h 6.155 z m 11.901,0 h -6.156 v 225.58 h 6.156 z m 11.902,0 h -6.155 v 225.58 h 6.155 z m -62.748,0 H 202.418 V 170.76 h 59.181 z"
       id="path62"
       inkscape:connector-curvature="0"
       style="fill:#656263" />
    <path
       d="m 180.8584,66.6416 c 0,-7.866 -6.379,-14.243 -14.245,-14.243 -7.866,0 -14.244,6.377 -14.244,14.243 0,7.866 6.378,14.245 14.244,14.245 7.866,0 14.245,-6.379 14.245,-14.245"
       id="path64"
       inkscape:connector-curvature="0"
       style="fill:#4f4c4d" />
    <path
       d="m 176.9111,66.6416 c 0,-5.686 -4.611,-10.298 -10.298,-10.298 -5.686,0 -10.298,4.612 -10.298,10.298 0,5.689 4.612,10.298 10.298,10.298 5.687,0 10.298,-4.609 10.298,-10.298"
       id="path66"
       inkscape:connector-curvature="0"
       style="fill:#656263" />
    <path
       d="m 163.7734,61.7226 -2.84,4.92 2.84,4.919 h 5.681 l 2.84,-4.919 -2.84,-4.92 z"
       id="path68"
       inkscape:connector-curvature="0"
       style="fill:#444141" />
    <path
       d="m 180.8584,203.8262 c 0,-7.866 -6.379,-14.244 -14.245,-14.244 -7.866,0 -14.244,6.378 -14.244,14.244 0,7.867 6.378,14.245 14.244,14.245 7.866,0 14.245,-6.378 14.245,-14.245"
       id="path70"
       inkscape:connector-curvature="0"
       style="fill:#4f4c4d" />
    <path
       d="m 176.9111,203.8262 c 0,-5.686 -4.611,-10.299 -10.298,-10.299 -5.686,0 -10.298,4.613 -10.298,10.299 0,5.688 4.612,10.299 10.298,10.299 5.687,0 10.298,-4.611 10.298,-10.299"
       id="path72"
       inkscape:connector-curvature="0"
       style="fill:#656263" />
    <path
       d="m 163.7734,198.9072 -2.84,4.921 2.84,4.918 h 5.681 l 2.84,-4.918 -2.84,-4.921 z"
       id="path74"
       inkscape:connector-curvature="0"
       style="fill:#444141" />
    <path
       d="m 311.7832,66.6416 c 0,-7.866 -6.377,-14.243 -14.243,-14.243 -7.867,0 -14.244,6.377 -14.244,14.243 0,7.866 6.377,14.245 14.244,14.245 7.866,0 14.243,-6.379 14.243,-14.245"
       id="path76"
       inkscape:connector-curvature="0"
       style="fill:#4f4c4d" />
    <path
       d="m 307.8369,66.6416 c 0,-5.686 -4.61,-10.298 -10.297,-10.298 -5.688,0 -10.299,4.612 -10.299,10.298 0,5.689 4.611,10.298 10.299,10.298 5.687,0 10.297,-4.609 10.297,-10.298"
       id="path78"
       inkscape:connector-curvature="0"
       style="fill:#656263" />
    <path
       d="m 294.7002,61.7226 -2.841,4.92 2.841,4.919 h 5.679 l 2.842,-4.919 -2.842,-4.92 z"
       id="path80"
       inkscape:connector-curvature="0"
       style="fill:#444141" />
    <path
       d="m 311.7832,203.8262 c 0,-7.866 -6.377,-14.244 -14.243,-14.244 -7.867,0 -14.244,6.378 -14.244,14.244 0,7.867 6.377,14.245 14.244,14.245 7.866,0 14.243,-6.378 14.243,-14.245"
       id="path82"
       inkscape:connector-curvature="0"
       style="fill:#4f4c4d" />
    <path
       d="m 307.8369,203.8262 c 0,-5.686 -4.61,-10.299 -10.297,-10.299 -5.688,0 -10.299,4.613 -10.299,10.299 0,5.688 4.611,10.299 10.299,10.299 5.687,0 10.297,-4.611 10.297,-10.299"
       id="path84"
       inkscape:connector-curvature="0"
       style="fill:#656263" />
    <path
       d="m 294.7002,198.9072 -2.841,4.921 2.841,4.918 h 5.679 l 2.842,-4.918 -2.842,-4.921 z"
       id="path86"
       inkscape:connector-curvature="0"
       style="fill:#444141" />
    <path
       d="m 205.8203,72.5097 5.455,4.876 c 2.186,-0.009 4.371,0.001 6.556,-0.006 0,-2.324 -0.001,-4.649 0.003,-6.974 -1.576,0 -3.148,0.002 -4.72,0 -0.002,-1.839 0.002,-3.678 -0.002,-5.515 2.587,-0.004 5.17,-0.008 7.757,0.002 0,0.551 0.012,1.101 0.015,1.654 2.314,-0.004 4.628,0.006 6.942,-0.006 -0.012,-1.34 0.002,-2.679 -0.005,-4.021 0.007,-0.151 -0.149,-0.24 -0.236,-0.344 -1.67,-1.598 -3.306,-3.239 -4.994,-4.818 -3.703,-0.03 -7.409,-0.002 -11.116,-0.014 l -5.649,4.982 z m 32.8232,7.4874 c -10.942,-0.008 -21.883,-0.001 -32.823,-0.003 v 7.482 c 10.437,0.002 20.876,-0.005 31.314,0.004 -0.004,0.696 -0.012,1.391 0.005,2.086 2.369,-0.006 4.736,-0.004 7.104,0 0.025,-1.271 0.007,-2.543 0.012,-3.814 0.024,-0.151 -0.057,-0.266 -0.163,-0.358 z m -32.8232,13.4443 v 7.481 c 10.949,-0.006 21.901,0.017 32.849,-0.01 1.885,-1.789 3.707,-3.65 5.572,-5.459 0.004,-1.326 0.001,-2.649 0.001,-3.975 -2.361,-0.002 -4.724,-0.004 -7.086,0.002 -0.006,0.652 -0.003,1.307 -10e-4,1.961 -10.445,0.003 -20.891,0 -31.335,0 m -3e-4,17.3906 h 38.422 v -7.48 H 205.82 Z m 0.002,7.3643 c 1.804,1.809 3.586,3.645 5.393,5.451 h 14.589 c 1.807,-1.806 3.588,-3.64 5.392,-5.451 0.004,-1.78 0.002,-3.562 0.003,-5.343 h -7.281 v 3.238 H 213.1 v -3.238 h -7.28 z m -0.002,7.9043 v 16.479 h 7.28 v -8.998 h 23.862 v 8.998 h 7.28 v -16.479 z m -3e-4,26.4904 h 38.422 v -7.483 h -38.422 z m 19.3274,8.6141 c 1.527,1.493 3.008,3.042 4.552,4.517 4.847,0.032 9.696,0.004 14.543,0.013 v -7.582 h -15.368 v -3.741 h -7.281 v 3.741 h -8.493 v -3.741 h -7.28 l 0.002,5.846 5.56,5.476 c 3.001,0.005 6.003,-0.002 9.004,0.002 z"
       id="path88"
       inkscape:connector-curvature="0"
       style="fill:#0a93b2" />
    <path
       d="m 220.38,141.064 h 7.281 v -5.46 h -7.281 z m 23.8553,-68.6802 0.007,-10.183 -5.454,-4.877 c -2.188,0.008 -4.372,-0.002 -6.56,0.006 0.002,2.324 0.003,4.65 0,6.973 1.574,0.004 3.148,0 4.721,0.004 0.001,1.837 -0.004,3.676 0.003,5.513 l -9.074,-0.002 c 0,-0.416 -0.002,-0.833 -0.017,-1.248 -2.312,0 -4.625,-0.007 -6.939,0.004 0.009,1.205 -0.003,2.411 0.006,3.615 -0.015,0.129 0.112,0.208 0.183,0.296 1.645,1.589 3.282,3.185 4.925,4.776 0.081,0.087 0.181,0.121 0.301,0.104 4.084,0 8.168,-0.002 12.25,0 z m 14.5674,13.6767 v -11.428 c 0.007,-0.749 -0.233,-1.522 -0.761,-2.068 -0.35,-0.365 -0.848,-0.578 -1.355,-0.559 -2.264,0.002 -4.527,-0.004 -6.789,0.004 -0.817,-0.005 -1.492,0.631 -1.777,1.359 -0.232,0.524 -0.251,1.107 -0.24,1.671 0.003,3.673 0,7.348 0.002,11.021 h 2.022 v -11.527 h 6.875 v 9 h -2.427 v -4.348 h -2.021 v 6.875 z m -8.8987,4.9545 h 2.428 v 8.595 h -2.428 z m -2.021,-2.528 v 11.027 c -0.01,0.927 0.376,1.946 1.222,2.414 0.455,0.269 1.001,0.201 1.508,0.209 0.636,-0.012 1.275,0.023 1.91,-0.017 0.77,-0.08 1.355,-0.718 1.618,-1.409 0.303,-0.741 0.189,-1.554 0.211,-2.332 l 4.446,3.959 0.006,-3.129 c -1.483,-1.324 -2.962,-2.648 -4.452,-3.966 v -4.228 h 4.451 v -2.528 z m 10.9197,27.8059 c -2.964,-1.461 -5.921,-2.932 -8.89,-4.381 v -1.148 c 2.969,-1.448 5.926,-2.92 8.89,-4.381 l -0.001,-2.93 c -3.64,1.793 -7.271,3.597 -10.913,5.381 v 5.006 c 3.642,1.785 7.273,3.59 10.913,5.383 z m -10.9199,4.1446 v 12.842 h 2.021 v -10.315 h 2.428 v 9 h 2.021 v -9 h 4.45 v -2.527 z m 10.9131,29.1015 -0.007,-3.711 c -1.256,-1.344 -2.58,-2.629 -3.855,-3.955 1.275,-1.326 2.599,-2.611 3.855,-3.955 l 0.007,-3.709 -5.795,5.692 c -1.711,-1.721 -3.396,-3.469 -5.112,-5.187 l -0.003,3.723 3.366,3.436 c -1.107,1.162 -2.269,2.274 -3.358,3.452 l -0.005,3.706 c 1.736,-1.73 3.43,-3.508 5.171,-5.234 z M 214.0488,33.7519 c -0.032,0 -0.066,0.008 -0.096,0.023 -3.134,1.521 -4.754,3.295 -4.681,5.129 0.059,1.509 1.293,2.936 3.563,4.123 2.157,1.127 5.198,2.022 8.796,2.586 0.118,0.02 0.231,-0.063 0.25,-0.183 0.02,-0.119 -0.062,-0.233 -0.183,-0.249 -7.287,-1.146 -11.879,-3.558 -11.987,-6.294 -0.063,-1.621 1.51,-3.299 4.434,-4.715 0.109,-0.055 0.153,-0.186 0.101,-0.295 -0.038,-0.078 -0.116,-0.125 -0.197,-0.125 m 27.3252,11.2676 h -0.037 c -2.315,0.381 -4.761,0.635 -7.264,0.756 -0.122,0.004 -0.215,0.107 -0.211,0.229 0.007,0.122 0.113,0.214 0.232,0.209 2.52,-0.12 4.982,-0.376 7.314,-0.758 0.12,-0.02 0.201,-0.133 0.183,-0.254 -0.019,-0.107 -0.113,-0.182 -0.217,-0.182 m -6.9189,-14.8291 h -0.403 0.22 c 0.061,0 0.122,0.128 0.183,0.128 11.762,0 21.042,3.121 21.164,7.05 0.042,1.376 -1.062,2.804 -3.194,4.065 -2.125,1.261 -5.169,2.348 -8.803,3.121 -0.12,0.025 -0.195,0.149 -0.17,0.268 0.024,0.118 0.142,0.197 0.26,0.173 3.681,-0.781 6.772,-1.869 8.936,-3.152 2.28,-1.351 3.459,-2.88 3.409,-4.424 -0.064,-2.09 -2.372,-3.904 -6.498,-5.271 -3.989,-1.322 -9.346,-1.958 -15.104,-1.958"
       id="path90"
       inkscape:connector-curvature="0"
       style="fill:#0a93b2" />
    <path
       d="m 238.4355,41.4492 5.8,4.423 -6.812,-2.72 -1.916,1.993 0.61,-2.761 -5.8,-4.423 6.813,2.72 1.914,-1.994 z"
       id="path92"
       inkscape:connector-curvature="0"
       style="fill:#0a93b2" />
    <path
       d="m 224.8017,43.7461 0.457,2.451 1.708,0.274 c 0.225,0.035 0.34,-0.092 0.293,-0.33 l -0.311,-1.678 c -0.043,-0.237 -0.214,-0.408 -0.436,-0.446 z m 19.43,-7.023 0.465,2.507 c 0.148,0.792 1,1.57 1.726,1.686 l 3.141,0.498 c 0.527,0.084 0.896,-0.508 0.787,-1.086 l -0.154,-0.806 c -0.108,-0.579 -0.699,-1.194 -1.226,-1.277 l -3.262,-0.519 -0.046,-0.292 c -0.062,-0.333 0.159,-0.592 0.464,-0.543 l 3.645,0.58 -0.246,-1.325 -4.111,-0.649 c -0.725,-0.116 -1.331,0.432 -1.183,1.226 m -8.145,2.552 1.312,0.207 -1.007,-5.418 -1.342,-0.213 1.006,5.418 z m -8.729,-6.642 -1.344,-0.213 0.654,3.519 c 0.083,0.44 -0.052,0.582 -0.475,0.515 l -2.341,-0.37 -0.768,-4.129 -1.343,-0.213 1.007,5.418 0.033,0.006 4.455,0.705 c 0.673,0.108 1.04,-0.3 0.908,-1.013 z m -6.451,0.353 -0.263,-1.419 -5.616,-0.889 1.749,9.418 4.639,0.734 -0.238,-1.291 -3.296,-0.522 -0.505,-2.71 2.687,0.427 -0.241,-1.291 -2.685,-0.426 -0.505,-2.709 z m 0.193,1.032 -3.175,-0.504 0.12,0.644 2.563,0.408 0.625,3.355 -2.565,-0.407 0.119,0.646 3.175,0.502 z m 7.044,-2.262 0.019,0.113 c 0.088,-0.008 0.204,-0.041 0.307,-0.025 l 2.639,0.413 c -0.098,-0.527 -0.794,-0.658 -1.855,-0.826 l -1.209,-0.191 -0.646,-3.484 1.588,0.252 c 3.906,0.384 5.394,2.404 5.871,4.812 l 4.759,0.755 0.768,4.128 0.388,0.062 c 0.424,0.067 0.362,0.145 0.28,-0.296 l -0.702,-3.778 3.418,0.543 0.046,0.25 c 0.258,-0.113 0.559,-0.154 0.88,-0.104 l 5.911,0.938 0.551,2.968 -0.384,0.273 c 0.333,0.393 0.592,0.872 0.667,1.277 l 0.093,0.469 c 0.295,1.748 -1.318,2.214 -2.055,2.097 l -3.394,-0.538 c -0.6,-0.097 -1.262,-0.514 -1.744,-1.068 -0.445,0.44 -1.131,0.612 -1.53,0.55 l -3.777,-0.6 0.423,-0.935 3.406,0.539 c 0.491,0.079 0.818,-0.119 0.91,-0.506 -0.037,-0.103 -0.91,-4.752 -0.91,-4.752 l -1.222,-0.194 0.655,3.52 c 0.082,0.439 -0.05,0.582 -0.475,0.514 l -2.341,-0.372 -0.768,-4.129 -1.343,-0.21 0.88,4.726 -1.105,1.303 -3.981,-1.438 1.888,0.299 0.03,0.004 -1.199,-6.45 c -0.306,-1.64 -2.054,-3.206 -3.606,-3.452 l -1.585,-0.251 0.24,1.288 1.207,0.192 c 1.062,0.171 2.256,1.232 2.461,2.343 l 0.133,0.699 -3.146,-0.5 c -0.675,-0.107 -1.041,0.303 -0.907,1.015 l 0.563,3.034 c 0.1,0.538 0.437,0.986 0.887,1.218 l 0.007,0.081 1.577,1.213 -0.922,-0.156 c -0.488,-0.077 -1.398,-0.445 -1.976,-1.18 -0.437,0.519 -1.2,0.726 -1.631,0.657 l -3.388,-0.538 0.552,2.968 2.472,0.391 c 1.317,0.209 2.771,1.69 3.031,3.08 l 0.37,1.998 c 0.26,1.392 -0.718,2.486 -2.033,2.277 l -5.404,-0.857 -1.151,-6.194 -4.974,-0.79 c -0.421,-0.066 -0.83,-0.48 -0.914,-0.926 l -1.859,-10 c -0.081,-0.444 0.192,-0.752 0.613,-0.684 l 9.492,1.506 0.768,4.129 0.388,0.061 c 0.426,0.067 0.362,0.144 0.279,-0.297 l -0.701,-3.777 z m 17.817,7.316 -0.03,-0.156 2.541,0.404 c 0.201,0.031 0.394,0.235 0.435,0.453 0.041,0.219 -0.087,0.371 -0.29,0.339 l -0.652,-0.102 -1.04,-0.166 -0.263,-0.041 c -0.304,-0.05 -0.64,-0.397 -0.701,-0.731 m -15.631,-2.553 -0.3,-1.619 c -0.082,-0.441 0.051,-0.585 0.478,-0.517 l 2.461,0.391 0.527,2.838 -2.462,-0.391 c -0.425,-0.067 -0.621,-0.26 -0.704,-0.702 m 0.839,-0.59 c 0.082,0.409 0.236,0.35 0.651,0.416 l 0.386,0.061 -0.121,-0.646 -0.386,-0.061 c -0.416,-0.065 -0.598,-0.176 -0.53,0.23"
       id="path94"
       inkscape:connector-curvature="0"
       style="fill:#0a93b2" />
    <path
       d="m 235.7265,42.5996 -0.361,1.437 -0.205,-0.024 -0.066,-0.354 c -0.045,-0.246 -0.244,-0.447 -0.474,-0.483 l -1.405,-0.224 c -0.232,-0.036 -0.365,0.111 -0.319,0.357 l 0.708,3.808 c 0.044,0.243 0.242,0.443 0.475,0.481 l 1.404,0.223 c 0.231,0.038 0.363,-0.112 0.318,-0.356 l -0.091,-0.485 2.84,0.45 0.107,0.581 c 0.272,1.464 -0.724,2.577 -2.11,2.359 l -2.716,-0.431 c -1.384,-0.221 -2.868,-1.728 -3.139,-3.192 l -0.755,-4.063 c -0.273,-1.467 0.723,-2.577 2.108,-2.359 l 0.908,0.146 z m 2.0127,0.8672 c 0.073,0.199 0.124,0.275 0.163,0.48 l 0.097,0.516 -1.131,-0.179 z"
       id="path96"
       inkscape:connector-curvature="0"
       style="fill:#0a93b2" />
    <path
       d="m 186.3193,268.6679 v -90.568 c 0,-1.651 1.35,-3 3,-3 h 85.38 c 1.65,0 3,1.349 3,3 v 90.568 z"
       id="path98"
       inkscape:connector-curvature="0"
       style="fill:#444141" />
    <path
       d="m 258.5478,216.666 c 0,-3.299 -2.7,-6 -6,-6 h -41.077 c -3.3,0 -6,2.701 -6,6 v 58.588 c 0,3.3 2.7,6 6,6 h 41.077 c 3.3,0 6,-2.7 6,-6 z"
       id="path100"
       inkscape:connector-curvature="0"
       style="fill:#4f4c4d" />
    <path
       d="m 209.7217,277.7837 c -1.1,0 -2,-0.9 -2,-2 v -39.029 c 0,-3.122 2.557,-5.678 5.678,-5.678 h 37.218 c 3.122,0 5.677,2.556 5.677,5.678 v 39.029 c 0,1.1 -0.9,2 -2,2 z"
       id="path102"
       inkscape:connector-curvature="0"
       style="fill:#444141" />
    <path
       d="m 125.083,190.234 h -55.38 v 4.26 h 55.38 z m 0,7.924 h -55.38 v 4.26 h 55.38 z m 0,7.924 h -55.38 v 4.26 h 55.38 z m 213.94,-15.848 h 55.38 v 4.26 h -55.38 z m 0,7.924 h 55.38 v 4.26 h -55.38 z m 0,7.924 h 55.38 v 4.26 h -55.38 z"
       id="path104"
       inkscape:connector-curvature="0"
       style="fill:#231f20" />
    <path
       d="m 135.4306,320.041 h 41.645 c 2.878,0 5.21,-2.047 5.21,-4.925 0,-2.878 -2.332,-4.925 -5.21,-4.925 h -41.645"
       id="path106"
       inkscape:connector-curvature="0"
       style="fill:#444141" />
    <path
       d="m 183.5586,361.5625 v 6.921 c 0,0.49 0.532,0.888 1.021,0.888 0.49,0 1.022,-0.398 1.022,-0.888 v -6.921 m 2.2665,0 v 6.921 c 0,0.49 0.534,0.888 1.024,0.888 0.49,0 1.023,-0.398 1.023,-0.888 v -6.921 m 2.2655,0 v 6.921 c 0,0.49 0.534,0.888 1.022,0.888 0.49,0 1.024,-0.398 1.024,-0.888 v -6.921 m 2.2656,0 v 6.921 c 0,0.49 0.533,0.888 1.022,0.888 0.491,0 1.024,-0.398 1.024,-0.888 v -6.921 m 2.2665,0 v 6.921 c 0,0.49 0.532,0.888 1.022,0.888 0.489,0 1.023,-0.398 1.023,-0.888 v -6.921 m 2.2655,0 v 6.921 c 0,0.49 0.534,0.888 1.023,0.888 0.49,0 1.024,-0.398 1.024,-0.888 v -6.921 m 2.2665,0 v 6.921 c 0,0.49 0.532,0.888 1.022,0.888 0.489,0 1.022,-0.398 1.022,-0.888 v -6.921 m 2.2665,0 v 6.921 c 0,0.49 0.534,0.888 1.022,0.888 0.49,0 1.023,-0.398 1.023,-0.888 v -6.921 m 2.2675,0 v 6.921 c 0,0.49 0.532,0.888 1.022,0.888 0.491,0 1.023,-0.398 1.023,-0.888 v -6.921 m 2.2656,0 v 6.921 c 0,0.49 0.533,0.888 1.022,0.888 0.491,0 1.024,-0.398 1.024,-0.888 v -6.921 m 2.2665,0 v 6.921 c 0,0.49 0.534,0.888 1.023,0.888 0.489,0 1.022,-0.398 1.022,-0.888 v -6.921 m 2.2665,0 v 6.921 c 0,0.49 0.533,0.888 1.023,0.888 0.49,0 1.024,-0.398 1.024,-0.888 v -6.921 m 2.2645,0 v 6.921 c 0,0.49 0.532,0.888 1.023,0.888 0.49,0 1.022,-0.398 1.022,-0.888 v -6.921 m 2.2685,0 v 6.921 c 0,0.49 0.532,0.888 1.021,0.888 0.489,0 1.023,-0.398 1.023,-0.888 v -6.921 m 2.2666,0 v 6.921 c 0,0.49 0.533,0.888 1.022,0.888 0.49,0 1.022,-0.398 1.022,-0.888 v -6.921 m 2.2665,0 v 6.921 c 0,0.49 0.534,0.888 1.023,0.888 0.491,0 1.023,-0.398 1.023,-0.888 v -6.921 m 2.2665,0 v 6.921 c 0,0.49 0.535,0.888 1.023,0.888 0.49,0 1.022,-0.398 1.022,-0.888 v -6.921 m 2.2675,0 v 6.921 c 0,0.49 0.532,0.888 1.022,0.888 0.489,0 1.023,-0.398 1.023,-0.888 v -6.921 m 2.2655,0 v 6.921 c 0,0.49 0.534,0.888 1.024,0.888 0.49,0 1.023,-0.398 1.023,-0.888 v -6.921 m 2.2655,0 v 6.921 c 0,0.49 0.532,0.888 1.024,0.888 0.488,0 1.022,-0.398 1.022,-0.888 v -6.921 m 2.2646,0 v 6.921 c 0,0.49 0.535,0.888 1.024,0.888 0.49,0 1.023,-0.398 1.023,-0.888 v -6.921 m 2.2665,0 v 6.921 c 0,0.49 0.532,0.888 1.022,0.888 0.489,0 1.022,-0.398 1.022,-0.888 v -6.921 m 2.2675,0 v 6.921 c 0,0.49 0.533,0.888 1.022,0.888 0.49,0 1.024,-0.398 1.024,-0.888 v -6.921"
       id="path108"
       inkscape:connector-curvature="0"
       style="fill:#4f4c4d" />
    <path
       d="m 126.9482,236.7851 c 0,-1.805 -1.477,-3.282 -3.283,-3.282 H 7.6602 c -1.805,0 -3.281,1.477 -3.281,3.282 v 48.701 c 0,1.806 1.476,3.283 3.281,3.283 h 116.005 c 1.806,0 3.283,-1.477 3.283,-3.283 z m 332.6914,0 c 0,-1.805 -1.478,-3.282 -3.283,-3.282 h -116.005 c -1.805,0 -3.281,1.477 -3.281,3.282 v 48.701 c 0,1.806 1.476,3.283 3.281,3.283 h 116.005 c 1.805,0 3.283,-1.477 3.283,-3.283 z"
       id="path110"
       inkscape:connector-curvature="0"
       style="fill:#5a5758" />
    <path
       d="m 126.9482,216.6855 c 0,-1.806 -1.477,-3.283 -3.283,-3.283 H 7.6602 c -1.805,0 -3.281,1.477 -3.281,3.283 v 48.701 c 0,1.805 1.476,3.282 3.281,3.282 h 116.005 c 1.806,0 3.283,-1.477 3.283,-3.282 z"
       id="path112"
       inkscape:connector-curvature="0"
       style="fill:#5a5758" />
    <path
       d="m 117.4258,256.1582 c -2.56,0 -4.652,2.094 -4.652,4.652 v 6.336 h -94.036 v -6.336 c 0,-2.558 -2.095,-4.652 -4.654,-4.652 h -7.148 v -30.434 h 7.148 c 2.559,0 4.654,-2.093 4.654,-4.654 v -6.145 h 94.036 v 6.145 c 0,2.561 2.092,4.654 4.652,4.654 h 6.966 v 30.434 z"
       id="path114"
       inkscape:connector-curvature="0"
       style="fill:#4f4c4d" />
    <path
       d="m 17.0156,261.8183 c 0,-2.146 -1.741,-3.889 -3.89,-3.889 -2.147,0 -3.887,1.743 -3.887,3.889 0,2.147 1.74,3.89 3.887,3.89 2.149,0 3.89,-1.743 3.89,-3.89 m 0,-41.7089 c 0,-2.148 -1.741,-3.889 -3.89,-3.889 -2.147,0 -3.887,1.741 -3.887,3.889 0,2.148 1.74,3.889 3.887,3.889 2.149,0 3.89,-1.741 3.89,-3.889 m 105.1543,41.7089 c 0,-2.146 -1.741,-3.889 -3.888,-3.889 -2.149,0 -3.889,1.743 -3.889,3.889 0,2.147 1.74,3.89 3.889,3.89 2.147,0 3.888,-1.743 3.888,-3.89 m 0,-41.7089 c 0,-2.148 -1.741,-3.889 -3.888,-3.889 -2.149,0 -3.889,1.741 -3.889,3.889 0,2.148 1.74,3.889 3.889,3.889 2.147,0 3.888,-1.741 3.888,-3.889"
       id="path116"
       inkscape:connector-curvature="0"
       style="fill:#4f4c4d" />
    <path
       d="m 459.6406,216.6855 c 0,-1.806 -1.479,-3.283 -3.284,-3.283 h -116.005 c -1.805,0 -3.282,1.477 -3.282,3.283 v 48.701 c 0,1.805 1.477,3.282 3.282,3.282 h 116.005 c 1.805,0 3.284,-1.477 3.284,-3.282 z"
       id="path118"
       inkscape:connector-curvature="0"
       style="fill:#5a5758" />
    <path
       d="m 450.1172,256.1582 c -2.561,0 -4.653,2.094 -4.653,4.652 v 6.336 h -94.037 v -6.336 c 0,-2.558 -2.094,-4.652 -4.652,-4.652 h -7.149 v -30.434 h 7.149 c 2.558,0 4.652,-2.093 4.652,-4.654 v -6.145 h 94.037 v 6.145 c 0,2.561 2.092,4.654 4.653,4.654 h 6.966 v 30.434 z"
       id="path120"
       inkscape:connector-curvature="0"
       style="fill:#4f4c4d" />
    <path
       d="m 349.706,261.8183 c 0,-2.146 -1.74,-3.889 -3.888,-3.889 -2.148,0 -3.888,1.743 -3.888,3.889 0,2.147 1.74,3.89 3.888,3.89 2.148,0 3.888,-1.743 3.888,-3.89 m 0,-41.7089 c 0,-2.148 -1.74,-3.889 -3.888,-3.889 -2.148,0 -3.888,1.741 -3.888,3.889 0,2.148 1.74,3.889 3.888,3.889 2.148,0 3.888,-1.741 3.888,-3.889 m 105.1553,41.7089 c 0,-2.146 -1.742,-3.889 -3.89,-3.889 -2.147,0 -3.887,1.743 -3.887,3.889 0,2.147 1.74,3.89 3.887,3.89 2.148,0 3.89,-1.743 3.89,-3.89 m 0,-41.7089 c 0,-2.148 -1.742,-3.889 -3.89,-3.889 -2.147,0 -3.887,1.741 -3.887,3.889 0,2.148 1.74,3.889 3.887,3.889 2.148,0 3.89,-1.741 3.89,-3.889"
       id="path122"
       inkscape:connector-curvature="0"
       style="fill:#4f4c4d" />
    <path
       d="M 98.709,234.173 H 69.703 v 17.17 h 29.006 z"
       id="path124"
       inkscape:connector-curvature="0"
       style="fill:#0c6737" />
    <path
       d="m 81.17,234.173 h -9.435 v 17.17 h 9.435 z"
       id="path126"
       inkscape:connector-curvature="0"
       style="fill:#098846" />
    <path
       d="m 73.77,234.173 h -0.985 v 17.17 h 0.985 z m 1.974,0 h -0.986 v 17.17 h 0.986 z m 1.972,0 H 76.73 v 17.17 h 0.986 z m 1.973,0 h -0.986 v 17.17 h 0.986 z m 1.973,0 h -0.986 v 17.17 h 0.986 z"
       id="path128"
       inkscape:connector-curvature="0"
       style="fill:#0c6737" />
    <path
       d="m 186.3193,257.584 h 12.702 c 1.447,0 2.618,1.312 2.618,2.758 0,1.448 -1.171,2.759 -2.618,2.759 h -12.702 z"
       id="path130"
       inkscape:connector-curvature="0"
       style="fill:#110f0d" />
  </g>
  <g
     clip-path="url(#b)"
     transform="matrix(0.62552465,0,0,-0.62552465,409.49159,290.4041)"
     id="g146">
    <path
       d="m 144.6924,8.4258 c 0,-4.635 -3.792,-8.426 -8.426,-8.426 H 8.4254 c -4.634,0 -8.425,3.791 -8.425,8.426 v 206.434 c 0,4.634 3.791,8.425 8.425,8.425 h 127.841 c 4.634,0 8.426,-3.791 8.426,-8.425 z"
       id="path134"
       inkscape:connector-curvature="0"
       style="fill:#e9e9e9" />
    <path
       d="M 138.812,20.012 H 5.88 V 148.31 h 132.932 z"
       id="path136"
       inkscape:connector-curvature="0"
       style="fill:#bdbcbc" />
    <path
       d="M 3.8887,218.375 V 160.9 c 0,-4.633 3.791,-8.425 8.426,-8.425 h 120.063 c 4.635,0 8.426,3.792 8.426,8.425 v 57.475 z"
       id="path138"
       inkscape:connector-curvature="0"
       style="fill:#2f2d2e" />
    <path
       d="M 140.804,218.375 H 3.889 v -11.621 h 136.915 z"
       id="path140"
       inkscape:connector-curvature="0"
       style="fill:#231f20" />
    <path
       d="m 92.3897,10.041 -20.044,6.004 -20.043,-6.004 V 3.596 h 40.087 z"
       id="path142"
       inkscape:connector-curvature="0"
       style="fill:#d3d2d2" />
    <path
       d="M 9.502,207.779 H 7.543 v 7.74 h 1.959 z m 3.449,0 h -1.958 v 8.951 h 1.958 z m 3.45,0 h -1.958 v 8.951 h 1.958 z m 3.451,0 h -1.958 v 8.951 h 1.958 z m 3.45,0 h -1.959 v 8.951 h 1.959 z m 3.449,0 h -1.958 v 8.951 h 1.958 z m 3.45,0 h -1.958 v 8.951 h 1.958 z m 3.45,0 h -1.958 v 8.951 h 1.958 z m 3.451,0 h -1.959 v 8.951 h 1.959 z m 3.449,0 h -1.958 v 8.951 h 1.958 z m 3.45,0 h -1.958 v 8.951 h 1.958 z m 3.45,0 h -1.959 v 8.951 h 1.959 z m 3.449,0 h -1.958 v 8.951 H 50.9 Z m 3.451,0 h -1.958 v 8.951 h 1.958 z m 3.45,0 h -1.959 v 8.951 h 1.959 z m 3.449,0 h -1.958 v 8.951 h 1.958 z m 3.45,0 h -1.958 v 8.951 H 64.7 Z m 3.45,-1.025 h -1.958 v 11.621 h 1.958 z m 3.451,1.025 h -1.959 v 8.951 h 1.959 z m 3.449,0 h -1.958 v 8.951 h 1.958 z m 3.45,0 h -1.958 v 8.951 H 78.5 Z m 3.45,0 h -1.958 v 8.951 h 1.958 z m 3.45,0 h -1.959 v 8.951 H 85.4 Z m 3.45,0 h -1.958 v 8.951 h 1.958 z m 3.45,0 h -1.958 v 8.951 H 92.3 Z m 3.45,0 h -1.959 v 8.951 h 1.959 z m 3.449,0 h -1.958 v 8.951 h 1.958 z m 3.45,0 h -1.958 v 8.951 h 1.958 z m 3.451,0 h -1.958 v 8.951 h 1.958 z m 3.45,0 h -1.959 v 8.951 h 1.959 z m 3.449,0 h -1.958 v 8.951 h 1.958 z m 3.45,0 h -1.958 v 8.951 h 1.958 z m 3.45,0 h -1.959 v 8.951 h 1.959 z m 3.451,0 h -1.959 v 8.951 h 1.959 z m 3.449,0 h -1.958 v 8.951 h 1.958 z m 3.45,0 h -1.958 v 8.951 h 1.958 z m 3.45,0 h -1.959 v 8.951 h 1.959 z m 3.449,-1.025 h -1.958 v 11.621 h 1.958 z"
       id="path144"
       inkscape:connector-curvature="0"
       style="fill:#f6b310" />
  </g>
</svg>
