<?xml version="1.0" encoding="UTF-8" standalone="no"?>
<svg
   xmlns:dc="http://purl.org/dc/elements/1.1/"
   xmlns:cc="http://creativecommons.org/ns#"
   xmlns:rdf="http://www.w3.org/1999/02/22-rdf-syntax-ns#"
   xmlns:svg="http://www.w3.org/2000/svg"
   xmlns="http://www.w3.org/2000/svg"
   xmlns:sodipodi="http://sodipodi.sourceforge.net/DTD/sodipodi-0.dtd"
   xmlns:inkscape="http://www.inkscape.org/namespaces/inkscape"
   viewBox="-101.7 363.6 702 517.58544"
   version="1.1"
   id="svg14"
   sodipodi:docname="logo.svg"
   width="702"
   height="517.58545"
   inkscape:version="0.92.4 5da689c313, 2019-01-14">
  <metadata
     id="metadata20">
    <rdf:RDF>
      <cc:Work
         rdf:about="">
        <dc:format>image/svg+xml</dc:format>
        <dc:type
           rdf:resource="http://purl.org/dc/dcmitype/StillImage" />
      </cc:Work>
    </rdf:RDF>
  </metadata>
  <defs
     id="defs18" />
  <sodipodi:namedview
     pagecolor="#ffffff"
     bordercolor="#666666"
     borderopacity="1"
     objecttolerance="10"
     gridtolerance="10"
     guidetolerance="10"
     inkscape:pageopacity="0"
     inkscape:pageshadow="2"
     inkscape:window-width="471"
     inkscape:window-height="442"
     id="namedview16"
     showgrid="false"
     inkscape:zoom="0.6775"
     inkscape:cx="499.9858"
     inkscape:cy="440.58283"
     inkscape:window-x="0"
     inkscape:window-y="0"
     inkscape:window-maximized="0"
     inkscape:current-layer="svg14" />
  <path
     d="M -101.7,814.78544 H 70.8 v 66.4 h -172.5 z"
     id="path2"
     inkscape:connector-curvature="0"
     style="fill:none" />
  <path
     d="m 327.97798,364.00658 14.14462,15.76776 v 19.01407 h -20.17347 v -13.68085 h -15.99964 v 22.49225 h 4.86946 v 20.17346 H 299.225 c -0.46375,0 -0.69563,-0.46376 -0.92751,-0.69564 -4.63758,-4.86945 -9.50704,-9.50703 -13.91274,-14.37649 v -32.23116 l 14.3765,-16.4634 z m 21.89795,95.04646 c 0,-31.76741 0,-63.53482 -0.23188,-95.07035 h 21.79662 c 0,30.14426 0,60.52039 0.23187,90.66465 h 6.02886 v 20.63722 h -11.13019 c -0.46376,0 -0.69564,-0.23188 -0.92752,-0.46376 z m 38.69572,-95.1951 h 21.79661 c 0,31.76741 0.23188,63.53482 0.23188,95.30223 -5.10133,5.56509 -10.66643,10.66642 -15.76776,16.23152 h -11.59395 v -20.63722 h 5.79697 c -0.46375,-30.37614 -0.46375,-60.52039 -0.46375,-90.89653 m 28.7764,0.0396 h 21.79661 c 0,37.10063 0.23188,74.20125 0.23188,111.30187 h -21.79661 c -0.23188,-37.10062 -0.23188,-74.20124 -0.23188,-111.30187 m 43.00147,-0.17715 c 5.33322,5.33321 10.66643,10.43455 15.76777,15.53588 v 42.20196 L 460.34952,437.226 h -15.53588 v -21.10098 h 9.27515 v -31.30365 h -9.27515 v -21.10098 z m 22.96599,0.0359 h 47.76705 v 21.10098 h -25.97044 c 0,22.95601 0,46.1439 0.23188,69.09991 h 25.97044 v 21.10098 h -47.76706 c -0.23187,-37.10063 -0.23187,-74.20125 -0.23187,-111.30187 M 538.28634,363.6 h 21.79661 c 0,37.10062 0.23188,74.20125 0.23188,111.30187 h -21.79661 c 0,-37.10062 -0.23188,-74.20125 -0.23188,-111.30187 m 46.67931,55.88421 13.21709,13.21709 c 0.23188,14.14462 0,28.05735 0,42.20196 h -22.02849 v -44.52075 h -10.89831 v -21.10097 h 10.89831 v -24.57917 h -10.89831 v -21.10098 h 16.92716 l 15.99964,15.99965 v 26.20231 z"
     id="path4"
     inkscape:connector-curvature="0"
     style="fill:#0a93b2" />
  <path
     d="m 510.74423,405.85793 h 15.76776 v 21.10098 h -15.76776 c 0.23188,-6.95636 0.23188,-14.14461 0,-21.10098 M 327.83909,475.2732 h -29.44862 l -14.14461,-15.76777 v -19.01407 h 20.17346 v 13.68086 h 15.99964 V 427.9699 h -3.71006 v -20.17346 h 10.43455 c 0.46376,0 0.69564,0.23188 0.92752,0.46376 4.63758,4.86946 9.27515,9.50703 13.91273,14.14461 0.23188,0.23188 0.46376,0.46376 0.23188,0.92752 v 35.47747 z m 39.65523,42.33204 h -33.15868 c -2.08691,0 -4.4057,-0.69564 -6.02885,-2.08691 -1.1594,-0.92752 -1.62315,-2.55067 -1.62315,-3.94194 v -19.70971 c 0,-2.31879 1.85503,-4.4057 3.94194,-5.10133 1.62315,-0.69564 3.2463,-0.69564 4.86945,-0.69564 h 31.99929 v 5.79697 h -33.39056 v 19.94159 h 26.20232 v -6.95637 h -12.52146 v -5.79697 H 367.7262 Z M 381.7289,491.6508 v 6.95637 h 24.81104 V 491.6508 H 381.7289 m -7.42012,-5.79697 h 31.99928 c 2.78255,0 5.5651,1.1594 6.95637,3.47819 0.69564,1.39127 0.69564,3.01442 0.69564,4.40569 v 5.5651 c -0.23188,2.31879 -2.08691,3.94194 -4.17382,4.63758 -2.08691,0.92751 -4.4057,0.46375 -6.72449,0.69563 l 11.59394,12.75334 h -9.04327 c -3.94195,-4.4057 -7.65201,-8.57952 -11.59395,-12.98522 H 381.7289 v 12.98522 h -7.42012 c 0.23187,0 0,-31.53553 0,-31.53553 z m 80.67878,31.40823 c -4.17382,-8.57952 -8.57952,-17.15904 -12.75334,-25.73856 h -3.24631 c -4.17382,8.57952 -8.34764,17.15904 -12.75334,25.73856 h -8.57951 c 5.10133,-10.66643 10.43455,-21.10098 15.53588,-31.76741 h 14.60837 c 5.10134,10.43455 10.43455,21.10098 15.76777,31.53553 z m 12.11776,-31.47292 h 37.3325 v 5.79697 h -29.91238 v 6.95637 h 26.20232 v 5.79697 h -26.20232 v 12.98522 h -7.42012 v -31.53553 m 84.21887,31.38921 h -10.66643 c -3.94194,-3.71006 -7.652,-7.42012 -11.59394,-11.13019 -3.94194,3.71007 -7.652,7.65201 -11.36207,11.13019 h -10.66643 l 16.46341,-16.92716 c -5.10134,-4.86945 -9.9708,-9.73891 -15.07213,-14.84025 h 10.89831 l 9.97079,9.73892 c 3.47818,-3.24631 6.49261,-6.49261 9.97079,-9.73892 h 10.66643 c -5.10134,5.10134 -10.20267,9.9708 -15.07213,15.07213 z M 215.64727,388.13334 v -0.23188 c 4.4057,-9.04327 9.50704,-13.68085 14.84025,-13.68085 4.4057,0.23188 8.57952,3.71006 12.0577,10.20267 3.24631,6.26073 5.79697,15.07213 7.65201,25.50668 0,0.23188 -0.23188,0.69564 -0.46376,0.69564 -0.23188,0 -0.69564,-0.23188 -0.69564,-0.46376 -3.2463,-21.10098 -10.43455,-34.31808 -18.31843,-34.78184 -4.63758,-0.23187 -9.50704,4.4057 -13.68086,12.98522 -0.23187,0.23188 -0.46375,0.46376 -0.92751,0.23188 -0.46376,0 -0.46376,-0.23188 -0.46376,-0.46376 m 32.72878,79.05726 c 1.15939,-6.72449 1.85503,-13.91274 2.08691,-21.10098 0,-0.46376 0.23188,-0.69564 0.69564,-0.69564 0.46375,0 0.69563,0.23188 0.69563,0.69564 -0.23188,7.18824 -1.15939,14.37649 -2.08691,21.10098 0,0.46375 -0.46376,0.69563 -0.69563,0.46375 -0.46376,0 -0.69564,-0.23188 -0.69564,-0.46375 m -42.99267,-19.95689 v -1.1594 0.69564 c 0,0.23188 0.46376,0.46376 0.46376,0.46376 0,34.08619 9.04328,60.98415 20.63722,61.21602 3.94194,0 8.11576,-3.01442 11.82583,-9.27515 3.71006,-6.26073 6.72448,-15.07213 9.04327,-25.50668 0,-0.23188 0.46376,-0.46376 0.69564,-0.46376 0.23188,0 0.46376,0.46376 0.46376,0.69564 -2.31879,10.66643 -5.33322,19.7097 -9.04328,25.97043 -3.94194,6.72449 -8.34764,9.9708 -12.75334,9.9708 -6.02885,-0.23188 -11.36206,-6.95637 -15.30401,-18.78219 -4.17382,-11.59395 -6.02885,-27.12983 -6.02885,-43.82511"
     id="path6"
     inkscape:connector-curvature="0"
     style="fill:#0a93b2" />
  <path
     d="m 237.99877,458.68597 12.75334,16.69528 -7.88388,-19.7097 5.79697,-5.5651 -8.11576,1.85504 -12.75334,-16.69528 7.88388,19.7097 -5.79697,5.56509 z"
     id="path8"
     inkscape:connector-curvature="0"
     style="fill:#0a93b2" />
  <path
     d="m 244.66158,419.12233 7.18825,1.39128 0.69563,4.86945 c 0,0.69564 -0.23188,0.92752 -0.92751,0.92752 l -4.86946,-0.92752 c -0.69564,-0.23188 -1.15939,-0.69563 -1.39127,-1.15939 z m -20.40534,56.34657 7.18824,1.39128 c 2.31879,0.46375 4.63758,2.78254 4.86946,5.10133 l 1.39127,9.04328 c 0.23188,1.62315 -1.39127,2.55067 -3.2463,2.31879 l -2.31879,-0.46376 c -1.62315,-0.23188 -3.47818,-2.08691 -3.71006,-3.47818 l -1.62315,-9.50704 -0.92752,-0.23188 c -0.92752,-0.23188 -1.62315,0.46376 -1.62315,1.39128 l 1.62315,10.66643 -3.94194,-0.69564 -1.85503,-11.82582 c 0.46376,-2.31879 2.08691,-4.17382 4.17382,-3.71007 m 7.42012,-23.65164 0.69564,3.71006 -15.76776,-2.78255 -0.69564,-3.94194 z m -19.24595,-25.2748 -0.69563,-3.94194 10.20267,1.85503 c 1.15939,0.23188 1.62315,-0.23188 1.39127,-1.39128 l -1.15939,-6.72448 -12.0577,-2.31879 -0.69564,-3.94194 15.76776,2.78254 2.08691,12.98522 c 0.23188,1.85503 -0.92751,3.01443 -3.01442,2.55067 0.46376,0.46376 -11.82583,-1.85503 -11.82583,-1.85503 z m 0.92752,-18.55031 -4.17382,-0.69564 -2.55067,-16.23152 27.36171,5.10133 2.08691,13.44898 -3.71006,-0.69564 -1.62315,-9.50703 -7.88389,-1.39128 1.1594,7.88389 -3.71006,-0.69564 -1.1594,-7.88388 -7.88388,-1.39128 c 0.23188,-0.46375 2.08691,12.05771 2.08691,12.05771 z m 3.01443,0.46375 -1.39128,-9.27515 1.85503,0.23188 1.1594,7.42012 9.73891,1.85503 -1.15939,-7.42012 1.85503,0.23188 1.39127,9.27515 c 0,0.23188 -13.44897,-2.31879 -13.44897,-2.31879 z m -6.49261,20.40535 h 0.23188 c 0,0.23188 -0.23188,0.69563 0,0.92751 l 1.15939,7.65201 c -1.62315,-0.23188 -1.85503,-2.31879 -2.31879,-5.33322 l -0.46376,-3.47818 -10.20267,-1.85503 0.69564,4.63757 c 1.15939,11.36207 6.95637,15.53589 13.91273,16.92716 l 2.31879,13.68086 12.0577,2.08691 0.23188,1.15939 c 0.23188,1.1594 0.46376,1.1594 -0.92751,0.92752 l -10.89831,-2.08691 1.62315,9.97079 0.69564,0.23188 c -0.23188,0.69564 -0.46376,1.62315 -0.23188,2.55067 l 2.78255,17.15903 8.57951,1.62316 0.69564,-1.1594 c 1.1594,0.92752 2.55067,1.62315 3.71006,1.85503 l 1.39128,0.23188 c 5.10133,0.92752 6.49261,-3.94194 6.02885,-6.02885 l -1.62315,-9.73891 c -0.23188,-1.85503 -1.39128,-3.71006 -3.01443,-5.10134 1.1594,-1.39127 1.85503,-3.2463 1.62315,-4.4057 l -1.85503,-10.8983 -2.78254,1.15939 1.62315,9.97079 c 0.23188,1.39128 -0.23188,2.31879 -1.39128,2.55067 -0.23187,0 -13.68085,-2.55067 -13.68085,-2.55067 l -0.46376,-3.47818 10.20267,1.85503 c 1.39128,0.23188 1.62316,-0.23188 1.39128,-1.39127 l -1.1594,-6.72449 -12.0577,-2.31879 -0.69564,-3.94194 13.68086,2.55067 3.71006,-3.24631 -4.17382,-11.59394 0.92751,5.56509 -18.78219,-3.47818 c -4.86945,-0.92752 -9.27515,-6.02885 -9.97079,-10.43455 l -0.69563,-4.63758 3.71006,0.69564 0.46376,3.47818 c 0.46375,3.01443 3.47818,6.49261 6.72448,7.18825 l 2.08691,0.46375 -1.39127,-9.04327 c -0.23188,-1.85503 0.92752,-3.01443 3.01443,-2.55067 l 8.81139,1.62315 c 1.62316,0.23188 2.78255,1.1594 3.47819,2.55067 h 0.23188 l 3.47818,4.63758 -0.46376,-2.78255 c -0.23188,-1.39127 -1.39127,-3.94194 -3.47818,-5.79697 1.39127,-1.1594 2.08691,-3.47819 1.85503,-4.63758 l -1.62315,-9.73891 8.57952,1.62315 1.15939,7.18824 c 0.69564,3.71007 4.86946,8.11577 9.04328,8.8114 l 5.79697,1.1594 c 3.94194,0.69563 7.18825,-2.08691 6.49261,-5.79698 l -2.55067,-15.76776 -17.85467,-3.2463 -2.31879,-14.3765 c -0.23188,-1.15939 -1.39128,-2.31878 -2.78255,-2.55066 l -28.98486,-5.33322 c -1.39127,-0.23188 -2.08691,0.46376 -2.08691,1.85503 l 4.4057,27.59359 12.0577,2.31879 0.23188,1.15939 c 0.23188,1.1594 0.46376,1.1594 -0.92752,0.92752 l -10.8983,-2.08691 c 0.23187,-0.92752 1.85503,9.04328 1.85503,9.04328 z m 21.33285,51.70899 h -0.46375 l 1.15939,7.42012 c 0,0.69564 0.69564,1.1594 1.39127,1.1594 0.69564,0.23188 1.1594,-0.23188 0.92752,-0.92752 l -0.23188,-1.85503 -0.46376,-3.01442 -0.23188,-0.69564 c -0.23187,-0.92752 -1.15939,-1.85503 -2.08691,-2.08691 m -7.42012,-45.44826 -4.63758,-0.92752 c -1.39127,-0.23188 -1.62315,0.23188 -1.39127,1.39127 l 1.15939,7.18825 8.11576,1.62315 -1.15939,-7.18824 c -0.23188,-1.1594 -0.92752,-1.85503 -2.08691,-2.08691 m -1.85503,2.55066 c 1.15939,0.23188 0.92751,0.69564 1.15939,1.85504 l 0.23188,1.15939 -1.85503,-0.23188 -0.23188,-1.15939 c 0,-1.39128 -0.46376,-1.85503 0.69564,-1.62316"
     id="path10"
     inkscape:connector-curvature="0"
     style="fill:#0a93b2" />
  <path
     d="m 241.35105,450.8276 4.17382,-1.1594 v -0.69563 l -0.92752,-0.23188 c -0.69564,-0.23188 -1.39127,-0.69564 -1.39127,-1.39128 l -0.69564,-4.17382 c 0,-0.69563 0.23188,-1.15939 0.92752,-0.92751 l 11.13018,2.08691 c 0.69564,0.23188 1.39128,0.69564 1.39128,1.39127 l 0.69563,4.17382 c 0,0.69564 -0.23188,1.1594 -0.92751,0.92752 l -1.39128,-0.23188 1.39128,8.11576 1.62315,0.23188 c 4.17382,0.69564 7.42012,-2.08691 6.72449,-6.02885 l -1.1594,-7.88388 c -0.69563,-3.94195 -5.10133,-8.34764 -9.27515,-9.04328 l -11.82583,-2.08691 c -4.17382,-0.69564 -7.42012,2.08691 -6.72448,6.02885 l 0.46375,2.55067 z m 2.48249,5.771 c 0.46376,0.23188 0.69564,0.46376 1.39127,0.46376 l 1.39128,0.23188 -0.46376,-3.24631 z"
     id="path12"
     inkscape:connector-curvature="0"
     style="fill:#0a93b2" />
</svg>
