<?xml version="1.0" encoding="UTF-8" standalone="no"?>
<svg
   xmlns:dc="http://purl.org/dc/elements/1.1/"
   xmlns:cc="http://creativecommons.org/ns#"
   xmlns:rdf="http://www.w3.org/1999/02/22-rdf-syntax-ns#"
   xmlns:svg="http://www.w3.org/2000/svg"
   xmlns="http://www.w3.org/2000/svg"
   xmlns:xlink="http://www.w3.org/1999/xlink"
   xmlns:sodipodi="http://sodipodi.sourceforge.net/DTD/sodipodi-0.dtd"
   xmlns:inkscape="http://www.inkscape.org/namespaces/inkscape"
   viewBox="0 0 388.26896 338.03674"
   version="1.1"
   id="svg208"
   sodipodi:docname="controls.svg"
   width="388.26895"
   height="338.03674"
   inkscape:version="0.92.4 5da689c313, 2019-01-14">
  <metadata
     id="metadata214">
    <rdf:RDF>
      <cc:Work
         rdf:about="">
        <dc:format>image/svg+xml</dc:format>
        <dc:type
           rdf:resource="http://purl.org/dc/dcmitype/StillImage" />
      </cc:Work>
    </rdf:RDF>
  </metadata>
  <defs
     id="defs212" />
  <sodipodi:namedview
     pagecolor="#ffffff"
     bordercolor="#666666"
     borderopacity="1"
     objecttolerance="10"
     gridtolerance="10"
     guidetolerance="10"
     inkscape:pageopacity="0"
     inkscape:pageshadow="2"
     inkscape:window-width="471"
     inkscape:window-height="442"
     id="namedview210"
     showgrid="false"
     inkscape:zoom="0.69796612"
     inkscape:cx="194.13424"
     inkscape:cy="124.99988"
     inkscape:window-x="0"
     inkscape:window-y="0"
     inkscape:window-maximized="0"
     inkscape:current-layer="svg208" />
  <g
     id="g6"
     style="fill:#7942ba"
     transform="translate(-0.00125499,88.036879)">
    <path
       d="m 130.755,179.231 c 0,0 0.628,16.936 79.037,20.701 h 7.909 c 78.409,-3.765 79.036,-20.701 79.036,-20.701 v -260.33 c 0,0 0,-7.526 -8.155,-6.901 H 138.91 c -8.153,-0.625 -8.155,6.901 -8.155,6.901 z"
       id="path2"
       inkscape:connector-curvature="0" />
    <path
       d="m 135.394,-62.138 c 0,0.469 -0.219,0.847 -0.492,0.847 h -4.411 c -0.272,0 -0.49,-0.379 -0.49,-0.847 0,-0.468 0.218,-0.847 0.49,-0.847 h 4.411 c 0.273,0 0.492,0.379 0.492,0.847 z m 0,9.452 c 0,0.468 -0.219,0.847 -0.492,0.847 h -4.411 c -0.272,0 -0.49,-0.379 -0.49,-0.847 0,-0.468 0.218,-0.847 0.49,-0.847 h 4.411 c 0.273,0 0.492,0.378 0.492,0.847 z m 0,9.451 c 0,0.468 -0.219,0.847 -0.492,0.847 h -4.411 c -0.272,0 -0.49,-0.379 -0.49,-0.847 0,-0.469 0.218,-0.847 0.49,-0.847 h 4.411 c 0.273,0 0.492,0.379 0.492,0.847 z m 0,9.452 c 0,0.469 -0.219,0.848 -0.492,0.848 h -4.411 c -0.272,0 -0.49,-0.38 -0.49,-0.848 0,-0.469 0.218,-0.846 0.49,-0.846 h 4.411 c 0.273,0 0.492,0.377 0.492,0.846 z m 161.939,-28.355 c 0,0.469 -0.218,0.847 -0.488,0.847 h -4.416 c -0.27,0 -0.491,-0.379 -0.491,-0.847 0,-0.468 0.221,-0.847 0.491,-0.847 h 4.416 c 0.271,0 0.488,0.379 0.488,0.847 z m 0,9.452 c 0,0.468 -0.218,0.847 -0.488,0.847 h -4.416 c -0.27,0 -0.491,-0.379 -0.491,-0.847 0,-0.468 0.221,-0.847 0.491,-0.847 h 4.416 c 0.271,0 0.488,0.378 0.488,0.847 z m 0,9.451 c 0,0.468 -0.218,0.847 -0.488,0.847 h -4.416 c -0.27,0 -0.491,-0.379 -0.491,-0.847 0,-0.469 0.221,-0.847 0.491,-0.847 h 4.416 c 0.271,0 0.488,0.379 0.488,0.847 z m 0,9.452 c 0,0.469 -0.218,0.848 -0.488,0.848 h -4.416 c -0.27,0 -0.491,-0.38 -0.491,-0.848 0,-0.469 0.221,-0.846 0.491,-0.846 h 4.416 c 0.271,0 0.488,0.377 0.488,0.846 z"
       id="path4"
       inkscape:connector-curvature="0" />
  </g>
  <path
     d="m 269.47075,0.13887893 h -111.61 V 240.60688 c 0,4.469 2.23,8.403 5.61,10.702 v 0.002 c 0,0 6.268,3.419 50.92,3.419 28.104,0 40.577,0.173 45.963,-1.777 5.246,-1.534 9.088,-6.477 9.088,-12.344 v -2.806 h 0.03 z"
     id="path8"
     inkscape:connector-curvature="0"
     style="fill:#7042b2" />
  <path
     d="m 213.66875,8.7188789 h 61.863 c 12.765,-0.086 11.79,5.3810001 11.79,5.3810001 V 129.26088 c 0,0 1.115,6.391 -6.873,8.153 -7.805,1.721 -10.994,2.766 -66.692,4.656 -55.698,-1.89 -58.887,-2.934 -66.692,-4.656 -7.988,-1.762 -6.873,-8.153 -6.873,-8.153 V 14.099879 c 0,0 -0.976,-5.4670001 11.79,-5.3810001 h 61.863 z"
     id="path10"
     inkscape:connector-curvature="0"
     style="fill:#333333" />
  <path
     d="m 213.75575,144.04988 -0.067,-0.003 c -53.328,-1.809 -58.637,-2.929 -65.985,-4.477 l -1.042,-0.218 c -6.735,-1.401 -8.472,-7.223 -8.45,-10.107 V 16.078879 c -0.003,-0.43 0.046,-4.407 2.705,-7.0860001 1.485,-1.495 3.432,-2.253 5.786,-2.253 h 134.281 c 2.355,0 4.302,0.758 5.786,2.253 2.659,2.6790001 2.708,6.6550001 2.705,7.1000001 V 129.26088 c 0.023,2.868 -1.714,8.691 -8.45,10.091 l -0.972,0.203 c -7.387,1.554 -12.724,2.677 -66.231,4.492 z m -67.053,-133.352001 c -1.279,0 -2.253,0.355 -2.977,1.084 -1.286,1.295 -1.561,3.584 -1.556,4.283 V 129.26088 c 0.003,0.526 0.181,5.152 5.297,6.215 l 1.053,0.221 c 7.149,1.507 12.316,2.595 65.236,4.392 53.099,-1.803 58.295,-2.895 65.484,-4.408 l 0.981,-0.206 c 5.116,-1.063 5.294,-5.69 5.297,-6.213 V 16.078879 c -0.002,-0.903 -0.231,-5.381 -4.533,-5.381 z"
     id="path12"
     inkscape:connector-curvature="0"
     style="fill:#272727" />
  <path
     d="m 165.05175,25.757879 h 97.228 v 85.311001 h -97.228 z"
     id="path14"
     inkscape:connector-curvature="0"
     style="fill:#8e827b" />
  <g
     id="g20"
     style="fill:#2b2b2b"
     transform="translate(-0.00125499,88.036879)">
    <path
       d="m 170.551,120.469 a 1.98,1.98 0 0 1 -1.982,1.982 h -9.208 a 1.98,1.98 0 0 1 -1.982,-1.982 V 82.407 c 0,-1.097 0.888,-1.986 1.982,-1.986 h 9.208 c 1.095,0 1.982,0.889 1.982,1.986 z"
       id="path16"
       inkscape:connector-curvature="0" />
    <path
       d="m 182.996,94.852 a 1.98,1.98 0 0 1 1.982,1.982 v 9.207 a 1.98,1.98 0 0 1 -1.982,1.983 h -38.063 a 1.98,1.98 0 0 1 -1.981,-1.983 v -9.207 a 1.98,1.98 0 0 1 1.981,-1.982 z"
       id="path18"
       inkscape:connector-curvature="0" />
  </g>
  <path
     d="m 168.81975,189.81588 a 4.7080001,4.7080001 0 1 1 -9.416,-0.002 4.7080001,4.7080001 0 0 1 9.416,0.002 z m 6.512,-4.968 8.285,4.47 -8.285,4.473 z m -22.961,8.943 -8.284,-4.469 8.284,-4.474 z m 7.017,-15.453 4.472,-8.28 4.474,8.28 z m 8.946,22.953 -4.472,8.283 -4.474,-8.283 z"
     id="path22"
     inkscape:connector-curvature="0"
     style="fill:#3a3a3a" />
  <g
     id="g34"
     style="fill:#c1c1c1"
     transform="translate(-0.00125499,88.036879)">
    <path
       d="m 176.282,40.949 c -0.637,0.187 -1.707,0.43 -2.858,0.43 -1.291,0 -2.344,-0.302 -3.081,-0.919 -0.735,-0.593 -1.068,-1.453 -1.068,-2.348 0,-1.398 0.666,-2.712 1.875,-3.583 1.027,-0.733 2.427,-1.152 3.995,-1.152 1.18,0 2.025,0.209 2.36,0.36 l -0.5,1.142 c -0.445,-0.187 -1.137,-0.325 -1.984,-0.325 -0.999,0 -1.916,0.265 -2.609,0.766 a 3.33,3.33 0 0 0 -1.375,2.688 c 0,1.407 0.917,2.221 2.665,2.221 0.5,0 0.917,-0.081 1.194,-0.175 l 0.443,-1.965 h -1.652 l 0.265,-1.094 h 3.217 z"
       id="path24"
       inkscape:connector-curvature="0" />
    <path
       d="m 178.572,39.065 -1.278,2.233 h -1.719 l 4.689,-7.84 h 2.025 l 1.18,7.84 h -1.692 l -0.263,-2.233 z m 2.844,-1.047 -0.263,-1.955 c -0.041,-0.419 -0.098,-1.023 -0.139,-1.49 h -0.028 c -0.25,0.467 -0.498,1.025 -0.762,1.49 l -1.139,1.955 z"
       id="path26"
       inkscape:connector-curvature="0" />
    <path
       d="m 190.314,41.298 0.621,-3.686 a 46.34,46.34 0 0 1 0.57,-2.875 h -0.041 a 47.695,47.695 0 0 1 -1.556,2.758 l -2.302,3.71 h -1.25 l -0.484,-3.653 a 42.842,42.842 0 0 1 -0.251,-2.814 h -0.026 c -0.251,0.895 -0.53,2.083 -0.764,2.875 l -1.069,3.686 h -1.499 l 2.375,-7.84 h 2.135 l 0.501,3.663 c 0.069,0.7 0.167,1.513 0.179,2.257 h 0.058 c 0.332,-0.745 0.775,-1.57 1.178,-2.245 l 2.262,-3.675 h 2.166 l -1.235,7.84 h -1.568 z m 7.408,-3.49 h -3.358 l -0.529,2.339 h 3.775 l -0.264,1.151 h -5.397 l 1.775,-7.84 h 5.19 l -0.263,1.152 h -3.568 l -0.471,2.059 h 3.373 z m 5.397,-4.222 a 12.706,12.706 0 0 1 2.248,-0.187 c 0.969,0 1.677,0.142 2.248,0.479 0.54,0.277 0.902,0.744 0.902,1.337 0,0.989 -0.916,1.661 -1.943,1.897 v 0.033 c 0.873,0.222 1.498,0.826 1.498,1.721 0,0.825 -0.526,1.443 -1.206,1.839 -0.778,0.467 -1.889,0.638 -3.304,0.638 -0.943,0 -1.721,-0.045 -2.163,-0.115 z m 0.07,6.655 c 0.264,0.024 0.554,0.033 0.86,0.033 1.207,0 2.318,-0.406 2.318,-1.452 0,-0.838 -0.848,-1.152 -1.832,-1.152 h -0.763 z m 0.831,-3.572 h 0.749 c 1.209,0 2.083,-0.477 2.083,-1.281 0,-0.639 -0.596,-0.916 -1.484,-0.916 -0.376,0 -0.695,0.021 -0.862,0.057 z"
       id="path28"
       inkscape:connector-curvature="0" />
    <path
       d="m 216.844,36.575 c 0,1.396 -0.598,2.839 -1.695,3.746 -0.845,0.696 -1.982,1.103 -3.344,1.103 -2.413,0 -3.677,-1.477 -3.677,-3.231 0,-1.398 0.625,-2.864 1.75,-3.771 0.845,-0.687 2.025,-1.094 3.289,-1.094 2.497,10e-4 3.677,1.457 3.677,3.247 z m -5.719,-1.431 c -0.818,0.687 -1.29,1.968 -1.29,2.978 0,1.187 0.639,2.163 2.207,2.163 0.679,0 1.331,-0.244 1.817,-0.662 0.806,-0.676 1.264,-2.011 1.264,-3 0,-1.036 -0.431,-2.151 -2.152,-2.151 -0.721,0 -1.346,0.253 -1.846,0.672 z"
       id="path30"
       inkscape:connector-curvature="0" />
    <path
       d="m 217.497,41.298 0.735,-3.222 -1.819,-4.618 h 1.72 l 0.734,2.234 c 0.209,0.675 0.307,1.022 0.391,1.372 h 0.026 c 0.251,-0.371 0.555,-0.815 0.972,-1.396 l 1.68,-2.21 h 1.913 l -4.01,4.594 -0.736,3.246 z"
       id="path32"
       inkscape:connector-curvature="0" />
  </g>
  <path
     d="m 230.76175,126.60188 a 0.888,0.888 0 0 1 0.51,-0.233 c 0.192,-0.022 0.364,0.002 0.525,0.067 a 0.767,0.767 0 0 1 0.368,0.323 c 0.089,0.144 0.11,0.316 0.065,0.517 a 1.38,1.38 0 0 1 -0.324,0.558 5.863,5.863 0 0 1 -0.476,0.472 3.532,3.532 0 0 1 -1.207,0.759 c -0.441,0.163 -0.889,0.24 -1.341,0.233 a 3.57,3.57 0 0 1 -1.326,-0.29 3.447,3.447 0 0 1 -1.166,-0.825 3.896,3.896 0 0 1 -0.518,-0.693 3.262,3.262 0 0 1 -0.32,-0.764 3.982,3.982 0 0 1 -0.151,-1.23 c 0.007,-0.424 0.081,-0.838 0.222,-1.24 a 4.33,4.33 0 0 1 0.592,-1.135 c 0.258,-0.354 0.571,-0.659 0.942,-0.907 0.27,-0.184 0.544,-0.343 0.817,-0.479 0.275,-0.132 0.564,-0.259 0.873,-0.376 0.176,-0.064 0.357,-0.129 0.543,-0.194 0.187,-0.062 0.378,-0.108 0.573,-0.146 0.196,-0.031 0.392,-0.043 0.586,-0.036 0.196,0.009 0.39,0.048 0.574,0.112 0.13,0.051 0.261,0.122 0.391,0.209 a 2.46,2.46 0 0 1 0.656,0.656 c 0.083,0.126 0.143,0.249 0.182,0.366 a 0.9,0.9 0 0 1 0.02,0.331 0.703,0.703 0 0 1 -0.109,0.308 0.81,0.81 0 0 1 -0.249,0.233 0.89,0.89 0 0 1 -0.348,0.117 c -0.215,0.026 -0.377,0.004 -0.495,-0.06 a 0.894,0.894 0 0 1 -0.28,-0.254 l -0.203,-0.292 a 0.52,0.52 0 0 0 -0.276,-0.209 0.732,0.732 0 0 0 -0.17,0.012 c -0.318,0.075 -0.637,0.18 -0.955,0.309 -0.323,0.127 -0.62,0.285 -0.893,0.469 a 3.389,3.389 0 0 0 -0.721,0.639 2.354,2.354 0 0 0 -0.448,0.816 2.871,2.871 0 0 0 -0.124,1.09 c 0.026,0.369 0.139,0.713 0.335,1.038 0.113,0.195 0.258,0.362 0.445,0.503 0.187,0.144 0.393,0.249 0.617,0.321 0.223,0.072 0.45,0.096 0.683,0.074 0.233,-0.022 0.455,-0.094 0.668,-0.218 0.189,-0.118 0.353,-0.261 0.504,-0.433 0.153,-0.172 0.287,-0.344 0.409,-0.518 z"
     id="path36"
     inkscape:connector-curvature="0"
     style="fill:#ff004f" />
  <path
     d="m 239.49675,125.88988 a 7.665,7.665 0 0 1 -0.563,1.269 4.88,4.88 0 0 1 -0.833,1.11 c -0.33,0.326 -0.71,0.589 -1.147,0.79 -0.435,0.201 -0.933,0.302 -1.494,0.302 a 5.685,5.685 0 0 1 -0.859,-0.089 2.701,2.701 0 0 1 -0.612,-0.192 2.372,2.372 0 0 1 -0.913,-0.447 2.829,2.829 0 0 1 -0.641,-0.714 c -0.17,-0.27 -0.304,-0.56 -0.395,-0.864 a 4.31,4.31 0 0 1 -0.174,-0.888 4.492,4.492 0 0 1 0.143,-1.535 c 0.139,-0.517 0.356,-0.996 0.658,-1.434 a 4.496,4.496 0 0 1 1.137,-1.127 c 0.46,-0.314 0.982,-0.517 1.565,-0.617 a 4.41,4.41 0 0 1 0.919,-0.048 c 0.312,0.014 0.613,0.069 0.905,0.162 0.242,0.076 0.465,0.165 0.674,0.266 0.208,0.101 0.404,0.231 0.595,0.385 a 2.976,2.976 0 0 1 1.008,1.52 c 0.096,0.363 0.136,0.723 0.129,1.08 a 7.436,7.436 0 0 1 -0.102,1.071 z m -3.351,1.959 a 2.37,2.37 0 0 0 0.682,-0.403 c 0.192,-0.165 0.364,-0.349 0.51,-0.551 a 3.4,3.4 0 0 0 0.366,-0.644 c 0.101,-0.229 0.19,-0.457 0.266,-0.692 a 5.34,5.34 0 0 0 0.084,-0.904 1.851,1.851 0 0 0 -0.211,-0.883 1.669,1.669 0 0 0 -0.55,-0.599 2.372,2.372 0 0 0 -0.81,-0.345 2.419,2.419 0 0 0 -0.885,-0.042 1.697,1.697 0 0 0 -0.795,0.313 3.356,3.356 0 0 0 -0.797,0.831 3.663,3.663 0 0 0 -0.46,1.016 3.789,3.789 0 0 0 -0.141,0.929 c -0.007,0.325 0.048,0.634 0.17,0.929 0.091,0.217 0.232,0.417 0.418,0.593 a 2.1,2.1 0 0 0 1.372,0.589 1.95,1.95 0 0 0 0.781,-0.137 z"
     id="path38"
     inkscape:connector-curvature="0"
     style="fill:#7942ba" />
  <path
     d="m 252.50175,125.64888 a 8.133,8.133 0 0 1 -0.603,1.359 5.197,5.197 0 0 1 -0.891,1.187 4.275,4.275 0 0 1 -1.226,0.843 c -0.462,0.215 -0.996,0.323 -1.596,0.323 a 6.45,6.45 0 0 1 -0.919,-0.091 3.687,3.687 0 0 1 -0.655,-0.206 2.54,2.54 0 0 1 -0.975,-0.481 3.056,3.056 0 0 1 -0.684,-0.761 3.545,3.545 0 0 1 -0.421,-0.927 4.675,4.675 0 0 1 -0.187,-0.95 4.696,4.696 0 0 1 0.151,-1.638 4.892,4.892 0 0 1 0.706,-1.532 4.647,4.647 0 0 1 1.219,-1.206 4.157,4.157 0 0 1 1.67,-0.663 c 0.323,-0.049 0.649,-0.068 0.982,-0.049 0.333,0.015 0.655,0.075 0.969,0.173 0.257,0.081 0.498,0.177 0.718,0.287 0.22,0.103 0.436,0.24 0.637,0.407 a 3.221,3.221 0 0 1 1.076,1.627 c 0.101,0.388 0.146,0.774 0.137,1.154 a 7.608,7.608 0 0 1 -0.108,1.144 z m -3.583,2.096 c 0.277,-0.109 0.519,-0.25 0.727,-0.428 0.208,-0.179 0.387,-0.376 0.548,-0.591 0.155,-0.215 0.284,-0.443 0.392,-0.689 0.108,-0.242 0.2,-0.491 0.283,-0.74 0.055,-0.313 0.084,-0.637 0.088,-0.964 a 1.957,1.957 0 0 0 -0.224,-0.946 1.743,1.743 0 0 0 -0.589,-0.639 2.527,2.527 0 0 0 -0.861,-0.373 2.695,2.695 0 0 0 -0.951,-0.043 c -0.318,0.04 -0.6,0.153 -0.85,0.337 a 3.597,3.597 0 0 0 -0.849,0.885 3.86,3.86 0 0 0 -0.491,1.087 3.825,3.825 0 0 0 -0.153,0.994 c -0.009,0.349 0.051,0.677 0.181,0.99 a 1.9,1.9 0 0 0 0.45,0.634 2.233,2.233 0 0 0 1.465,0.627 c 0.28,0.013 0.559,-0.035 0.834,-0.141 z"
     id="path40"
     inkscape:connector-curvature="0"
     style="fill:#f9e52d" />
  <path
     d="m 254.48375,128.49488 a 0.773,0.773 0 0 1 -0.294,0.512 c -0.167,0.134 -0.35,0.219 -0.546,0.259 a 0.893,0.893 0 0 1 -0.536,-0.055 c -0.163,-0.077 -0.249,-0.227 -0.261,-0.455 a 62.552,62.552 0 0 1 -0.068,-2.989 v -3.079 a 0.642,0.642 0 0 1 -0.469,-0.555 0.826,0.826 0 0 1 0.048,-0.374 0.92,0.92 0 0 1 0.214,-0.325 c 0.1,-0.101 0.239,-0.191 0.413,-0.273 0.18,-0.086 0.374,-0.162 0.581,-0.232 a 9.294,9.294 0 0 1 1.139,-0.297 4.736,4.736 0 0 1 1.772,0.006 4.408,4.408 0 0 1 1.569,0.606 c 0.452,0.294 0.789,0.674 1.013,1.143 0.223,0.47 0.247,1.004 0.069,1.607 a 3.83,3.83 0 0 1 -0.208,0.501 2.977,2.977 0 0 1 -0.292,0.464 2.825,2.825 0 0 1 -0.561,0.574 5.72,5.72 0 0 1 -0.698,0.465 c 0.176,0.168 0.347,0.343 0.503,0.526 0.16,0.185 0.335,0.35 0.531,0.503 0.075,0.058 0.184,0.149 0.328,0.273 0.144,0.126 0.287,0.26 0.419,0.404 0.133,0.141 0.253,0.28 0.357,0.419 0.101,0.136 0.148,0.251 0.138,0.345 a 0.824,0.824 0 0 1 -0.146,0.431 0.976,0.976 0 0 1 -0.32,0.302 0.812,0.812 0 0 1 -0.86,-0.03 3,3 0 0 1 -0.474,-0.415 12.026,12.026 0 0 0 -0.433,-0.437 54.781,54.781 0 0 1 -0.899,-0.908 27.347,27.347 0 0 0 -0.903,-0.899 4.575,4.575 0 0 1 -0.564,0.072 c -0.19,0.011 -0.379,0.026 -0.563,0.043 v 1.868 z m 2.499,-6.071 a 2.957,2.957 0 0 0 -1.224,-0.338 3.456,3.456 0 0 0 -1.276,0.164 v 2.833 c 0.416,-0.023 0.826,-0.074 1.233,-0.145 0.404,-0.069 0.78,-0.227 1.123,-0.467 0.189,-0.136 0.34,-0.293 0.457,-0.474 0.115,-0.177 0.184,-0.362 0.209,-0.551 a 1.047,1.047 0 0 0 -0.084,-0.55 c -0.079,-0.18 -0.225,-0.338 -0.438,-0.472 z"
     id="path42"
     inkscape:connector-curvature="0"
     style="fill:#00b3dd" />
  <path
     d="m 245.03275,127.39388 c 0.223,0.076 0.393,0.177 0.514,0.311 a 0.673,0.673 0 0 1 0.197,0.419 0.652,0.652 0 0 1 -0.15,0.429 c -0.106,0.138 -0.276,0.25 -0.513,0.335 a 1.61,1.61 0 0 1 -0.385,0.076 c -0.168,0.017 -0.4,0.039 -0.695,0.06 l -1.13,0.091 c -0.455,0.034 -1.014,0.086 -1.68,0.146 -0.165,0.021 -0.337,0.038 -0.514,0.052 a 0.687,0.687 0 0 1 -0.472,-0.127 0.703,0.703 0 0 1 -0.275,-0.364 2.557,2.557 0 0 1 -0.139,-0.531 6.326,6.326 0 0 1 -0.059,-0.565 c -0.01,-0.186 -0.019,-0.342 -0.029,-0.469 -0.019,-0.25 -0.041,-0.537 -0.062,-0.862 -0.021,-0.324 -0.043,-0.659 -0.062,-0.997 -0.025,-0.337 -0.048,-0.668 -0.074,-0.992 -0.024,-0.324 -0.048,-0.613 -0.067,-0.863 -0.034,-0.443 -0.057,-0.8 -0.07,-1.07 a 3.72,3.72 0 0 1 0.013,-0.642 c 0.019,-0.157 0.062,-0.274 0.132,-0.349 a 0.996,0.996 0 0 1 0.294,-0.209 0.772,0.772 0 0 1 0.364,-0.068 c 0.137,0 0.26,0.024 0.383,0.067 0.12,0.046 0.223,0.113 0.312,0.203 a 0.5,0.5 0 0 1 0.14,0.307 c 0.101,1 0.178,1.991 0.237,2.976 0.058,0.986 0.127,1.967 0.203,2.951 0.584,-0.048 1.169,-0.096 1.748,-0.155 0.577,-0.058 1.163,-0.118 1.754,-0.182 z"
     id="path44"
     inkscape:connector-curvature="0"
     style="fill:#aae000" />
  <circle
     cx="242.47075"
     cy="195.69487"
     r="9.9759998"
     id="circle46"
     style="fill:#2b2b2b" />
  <path
     d="m 240.27075,200.65288 h -2.438 v -9.178 h 2.308 c 1.455,0 2.544,0.722 2.544,2.425 0,0.748 -0.34,1.561 -1.075,1.902 0.774,0.276 1.233,1.088 1.233,2.085 -0.001,1.835 -1.051,2.766 -2.572,2.766 z m -0.092,-7.932 h -1.075 v 2.492 h 1.049 c 0.682,0 1.219,-0.393 1.219,-1.272 0,-0.905 -0.498,-1.22 -1.193,-1.22 z m -0.052,3.723 h -1.023 v 2.964 h 1.155 c 0.772,0 1.271,-0.419 1.271,-1.521 -0.001,-1.023 -0.603,-1.443 -1.403,-1.443 z"
     id="path48"
     inkscape:connector-curvature="0"
     style="fill:#414042" />
  <circle
     cx="271.95575"
     cy="186.60588"
     r="9.9759998"
     id="circle50"
     style="fill:#2b2b2b" />
  <path
     d="m 271.73675,191.63788 -0.539,-2.425 h -1.993 l -0.524,2.425 h -1.364 l 2.255,-9.177 h 1.324 l 2.242,9.177 z m -1.141,-5.192 c -0.132,-0.603 -0.328,-1.665 -0.394,-2.006 -0.065,0.341 -0.262,1.39 -0.393,2.006 l -0.34,1.547 h 1.468 z"
     id="path52"
     inkscape:connector-curvature="0"
     style="fill:#414042" />
  <g
     id="g56"
     style="fill:#bac2c5"
     transform="translate(-0.00125499,88.036879)">
    <path
       d="m 146.538,-30.773 h 0.867 c 0.135,0 0.263,0.013 0.386,0.039 a 0.95,0.95 0 0 1 0.325,0.132 c 0.095,0.061 0.17,0.144 0.227,0.247 a 0.78,0.78 0 0 1 0.084,0.382 c 0,0.159 -0.03,0.292 -0.091,0.396 -0.061,0.104 -0.138,0.187 -0.233,0.247 a 0.914,0.914 0 0 1 -0.312,0.128 c -0.113,0.024 -0.22,0.037 -0.322,0.037 h -0.586 v 1.311 h -0.347 c 0.002,0.002 0.002,-2.919 0.002,-2.919 z m 0.346,1.287 h 0.586 a 0.703,0.703 0 0 0 0.423,-0.118 c 0.108,-0.078 0.163,-0.2 0.163,-0.366 0,-0.165 -0.055,-0.287 -0.163,-0.365 a 0.706,0.706 0 0 0 -0.423,-0.118 h -0.586 z m 3.375,1.708 c -0.223,0 -0.427,-0.039 -0.612,-0.116 a 1.43,1.43 0 0 1 -0.8,-0.807 1.62,1.62 0 0 1 -0.113,-0.612 c 0,-0.22 0.038,-0.424 0.113,-0.613 a 1.43,1.43 0 0 1 0.8,-0.807 c 0.185,-0.077 0.39,-0.116 0.612,-0.116 0.222,0 0.427,0.039 0.613,0.116 a 1.423,1.423 0 0 1 0.801,0.807 c 0.076,0.189 0.113,0.393 0.113,0.613 0,0.22 -0.037,0.424 -0.113,0.612 a 1.433,1.433 0 0 1 -0.801,0.807 c -0.186,0.077 -0.39,0.116 -0.613,0.116 z m 0,-0.322 c 0.17,0 0.327,-0.031 0.468,-0.094 a 1.13,1.13 0 0 0 0.603,-0.645 c 0.056,-0.147 0.085,-0.305 0.085,-0.472 0,-0.167 -0.029,-0.325 -0.085,-0.472 a 1.164,1.164 0 0 0 -0.237,-0.385 1.104,1.104 0 0 0 -0.834,-0.355 1.122,1.122 0 0 0 -1.071,0.74 1.318,1.318 0 0 0 -0.085,0.472 c 0,0.167 0.029,0.325 0.085,0.472 0.056,0.148 0.136,0.276 0.237,0.385 a 1.104,1.104 0 0 0 0.834,0.354 z m 1.662,-2.673 h 0.384 l 0.664,2.426 h 0.008 l 0.717,-2.426 h 0.388 l 0.714,2.426 h 0.008 l 0.677,-2.426 h 0.363 l -0.858,2.921 h -0.375 l -0.722,-2.475 h -0.007 l -0.726,2.475 h -0.38 z m 4.312,0 h 1.836 v 0.322 h -1.49 v 0.916 h 1.39 v 0.322 h -1.39 v 1.039 h 1.564 v 0.322 h -1.91 z m 2.447,0 h 0.747 c 0.14,0 0.279,0.008 0.418,0.025 0.139,0.017 0.263,0.053 0.374,0.108 0.11,0.055 0.199,0.135 0.268,0.241 0.069,0.106 0.103,0.249 0.103,0.431 a 0.71,0.71 0 0 1 -0.194,0.52 c -0.129,0.132 -0.308,0.216 -0.537,0.252 l 0.829,1.345 h -0.425 l -0.792,-1.311 h -0.445 v 1.311 h -0.347 z m 0.346,1.287 h 0.309 c 0.096,0 0.196,-0.002 0.299,-0.008 0.103,-0.005 0.198,-0.023 0.285,-0.053 a 0.5,0.5 0 0 0 0.214,-0.142 c 0.056,-0.064 0.085,-0.157 0.085,-0.279 a 0.45,0.45 0 0 0 -0.062,-0.252 0.41,0.41 0 0 0 -0.163,-0.146 0.7,0.7 0 0 0 -0.227,-0.068 1.946,1.946 0 0 0 -0.254,-0.016 h -0.487 z"
       id="path54"
       inkscape:connector-curvature="0" />
  </g>
  <circle
     cx="148.94576"
     cy="53.376881"
     r="2.7060001"
     id="circle58"
     style="fill:#e50016" />
  <path
     d="m 152.06675,50.947879 -0.061,0.003 c 0.547,0.658 0.877,1.504 0.877,2.426 0,0.922 -0.329,1.768 -0.877,2.426 l 0.061,0.003 a 2.429,2.429 0 1 0 0,-4.858 z m 3.233,0 -0.061,0.003 c 0.547,0.658 0.877,1.504 0.877,2.426 0,0.922 -0.329,1.768 -0.877,2.426 l 0.061,0.003 a 2.429,2.429 0 1 0 0,-4.858 z m 3.255,0 -0.061,0.003 c 0.547,0.658 0.877,1.504 0.877,2.426 0,0.922 -0.329,1.768 -0.877,2.426 l 0.061,0.003 a 2.429,2.429 0 1 0 0,-4.858 z"
     id="path60"
     inkscape:connector-curvature="0"
     style="fill:#bac2c5" />
  <g
     id="g64"
     style="fill:#2b2b2b"
     transform="translate(-0.00125499,88.036879)">
    <path
       d="m 253.315,158.93 a 0.993,0.993 0 0 1 -0.995,0.993 0.99,0.99 0 0 1 -0.988,-0.993 0.992,0.992 0 0 1 1.983,0 z m 4.954,3.966 c 0,0.549 -0.443,0.989 -0.991,0.989 -0.548,0 -0.991,-0.44 -0.991,-0.989 a 0.991,0.991 0 1 1 1.982,0 z m 0,-4.957 c 0,0.55 -0.443,0.991 -0.991,0.991 a 0.9895,0.9895 0 1 1 0,-1.979 c 0.548,0 0.991,0.442 0.991,0.988 z m 0,-4.955 c 0,0.545 -0.443,0.993 -0.991,0.993 a 0.993,0.993 0 0 1 0,-1.984 0.99,0.99 0 0 1 0.991,0.991 z m 4.955,-0.991 a 0.99000051,0.99000051 0 1 1 -1.98,0.002 0.99000051,0.99000051 0 0 1 1.98,-0.002 z m 4.955,3.804 c 0,0.545 -0.44,0.988 -0.99,0.988 a 0.9915,0.9915 0 1 1 0,-1.983 c 0.55,0 0.99,0.445 0.99,0.995 z m 0,-4.959 c 0,0.549 -0.44,0.991 -0.99,0.991 a 0.988,0.988 0 0 1 -0.989,-0.991 c 0,-0.546 0.441,-0.989 0.989,-0.989 0.55,0 0.99,0.444 0.99,0.989 z m 4.959,-0.989 a 0.993,0.993 0 1 1 -1.986,0 0.994,0.994 0 0 1 1.986,0 z m 4.954,33.695 a 0.994,0.994 0 0 1 -0.992,0.994 0.992,0.992 0 0 1 -0.99,-0.994 0.99,0.99 0 0 1 0.99,-0.988 0.99,0.99 0 0 1 0.992,0.988 z m 0,-4.953 a 0.992,0.992 0 1 1 -1.983,-0.001 0.992,0.992 0 0 1 1.983,0.001 z m 0,-4.955 a 0.99050114,0.99050114 0 1 1 -1.981,-0.003 0.99050114,0.99050114 0 0 1 1.981,0.003 z m 0,-4.957 a 0.992,0.992 0 0 1 -1.982,0 c 0,-0.548 0.443,-0.989 0.99,-0.989 0.549,0 0.992,0.441 0.992,0.989 z m 0,-4.955 a 0.991,0.991 0 0 1 -1.982,0 c 0,-0.546 0.443,-0.994 0.99,-0.994 a 0.995,0.995 0 0 1 0.992,0.994 z m 0,-4.955 a 0.99050114,0.99050114 0 1 1 -1.981,-0.003 0.99050114,0.99050114 0 0 1 1.981,0.003 z m 0,-4.956 a 0.989,0.989 0 0 1 -0.992,0.989 0.99,0.99 0 0 1 0,-1.979 0.99,0.99 0 0 1 0.992,0.99 z m 0,-4.957 a 0.995,0.995 0 0 1 -0.992,0.993 0.993,0.993 0 0 1 0,-1.984 c 0.549,0 0.992,0.446 0.992,0.991 z m 4.955,-0.991 a 0.9905,0.9905 0 1 1 -1.981,0 0.991,0.991 0 0 1 1.981,0 z m 0,4.958 a 0.9905,0.9905 0 0 1 -1.981,0 c 0,-0.548 0.443,-0.994 0.99,-0.994 0.549,0 0.991,0.446 0.991,0.994 z m 4.958,-0.994 a 0.995,0.995 0 0 1 -0.991,0.994 0.994,0.994 0 0 1 -0.993,-0.994 c 0,-0.545 0.445,-0.991 0.993,-0.991 0.545,0 0.991,0.446 0.991,0.991 z m 0,4.956 a 0.99,0.99 0 0 1 -0.991,0.99 0.99,0.99 0 1 1 0,-1.978 0.99,0.99 0 0 1 0.991,0.988 z m 0,4.958 a 0.99,0.99 0 0 1 -0.991,0.988 0.99,0.99 0 1 1 0,-1.98 c 0.545,0 0.991,0.442 0.991,0.992 z m 0,4.953 a 0.995,0.995 0 0 1 -0.991,0.994 0.994,0.994 0 0 1 0,-1.988 c 0.545,0.001 0.991,0.45 0.991,0.994 z m 0,4.956 a 0.993,0.993 0 0 1 -1.984,0 0.99,0.99 0 0 1 0.993,-0.989 0.99,0.99 0 0 1 0.991,0.989 z m 0,4.958 a 0.992,0.992 0 0 1 -1.984,0 0.992,0.992 0 0 1 1.984,0 z m -4.958,-18.835 a 0.992,0.992 0 0 1 -0.991,0.994 0.992,0.992 0 0 1 0,-1.984 0.99,0.99 0 0 1 0.991,0.99 z m 0,4.956 a 0.992,0.992 0 0 1 -0.991,0.994 0.992,0.992 0 0 1 0,-1.982 0.99,0.99 0 0 1 0.991,0.988 z m 0,4.959 a 0.9905,0.9905 0 0 1 -1.981,0 c 0,-0.547 0.443,-0.994 0.99,-0.994 0.549,0 0.991,0.447 0.991,0.994 z m 0,4.953 z m 0,4.955 a 0.992,0.992 0 0 1 -0.991,0.993 0.9905,0.9905 0 1 1 0,-1.981 c 0.549,0 0.991,0.442 0.991,0.988 z m 0,4.958 a 0.987,0.987 0 0 1 -0.991,0.988 0.99,0.99 0 1 1 0.991,-0.988 z m -9.909,-27.754 a 0.995,0.995 0 0 1 -0.991,0.995 0.993,0.993 0 1 1 0.991,-0.995 z m 0,4.956 a 0.993,0.993 0 1 1 -1.986,0 0.994,0.994 0 0 1 1.986,0 z m 0,4.957 a 0.99,0.99 0 0 1 -0.991,0.987 0.99,0.99 0 0 1 -0.995,-0.987 0.993,0.993 0 0 1 1.986,0 z m 0,4.955 a 0.996,0.996 0 0 1 -0.991,0.993 0.996,0.996 0 0 1 -0.995,-0.993 0.994,0.994 0 0 1 1.986,0 z m 0,4.955 a 0.996,0.996 0 0 1 -0.991,0.994 0.997,0.997 0 0 1 -0.995,-0.994 0.993,0.993 0 0 1 1.986,0 z m 0,4.957 a 0.99,0.99 0 0 1 -0.991,0.989 0.991,0.991 0 0 1 -0.995,-0.989 0.994,0.994 0 0 1 1.986,0 z m 0,4.955 a 0.993,0.993 0 0 1 -1.986,0 c 0,-0.547 0.446,-0.994 0.995,-0.994 a 0.997,0.997 0 0 1 0.991,0.994 z m -4.959,-23.786 a 0.99,0.99 0 1 1 -1.979,0 0.99,0.99 0 1 1 1.979,0 z m 0,4.952 a 0.99000808,0.99000808 0 1 1 -1.98,0.008 0.99000808,0.99000808 0 0 1 1.98,-0.008 z m 0,4.96 a 0.9895,0.9895 0 1 1 -1.979,0 0.99,0.99 0 1 1 1.979,0 z m 0,4.956 a 0.99,0.99 0 1 1 -1.979,0 0.99,0.99 0 0 1 1.979,0 z m 0,4.952 a 0.99,0.99 0 1 1 -1.979,0 c 0,-0.546 0.441,-0.989 0.989,-0.989 0.55,0 0.99,0.443 0.99,0.989 z m 0,4.956 a 0.9895,0.9895 0 1 1 -1.979,0 0.99,0.99 0 1 1 1.979,0 z m -4.955,-28.576 a 0.99,0.99 0 1 1 -0.988,-0.995 c 0.545,0 0.988,0.447 0.988,0.995 z m 0,4.954 a 0.9905,0.9905 0 1 1 -1.981,0 0.991,0.991 0 0 1 1.981,0 z m 0,4.953 a 0.992,0.992 0 0 1 -0.988,0.993 0.991,0.991 0 1 1 0.988,-0.993 z m 0,4.96 a 0.99,0.99 0 1 1 -0.988,-0.994 c 0.545,0 0.988,0.445 0.988,0.994 z m 0,4.955 a 0.991,0.991 0 1 1 -0.988,-0.994 c 0.545,0 0.988,0.445 0.988,0.994 z m 0,4.953 a 0.992,0.992 0 0 1 -0.988,0.993 0.99,0.99 0 1 1 0.988,-0.993 z m 0,4.957 a 0.99,0.99 0 1 1 -0.988,-0.991 0.99,0.99 0 0 1 0.988,0.991 z m -4.955,-18.832 c 0,0.546 -0.443,0.995 -0.991,0.995 a 0.994,0.994 0 0 1 0,-1.988 c 0.548,0 0.991,0.448 0.991,0.993 z m 0,4.955 a 0.991,0.991 0 0 1 -1.982,0 c 0,-0.548 0.443,-0.988 0.991,-0.988 0.548,0 0.991,0.44 0.991,0.988 z m 0,4.958 c 0,0.545 -0.443,0.988 -0.991,0.988 a 0.99,0.99 0 1 1 0,-1.979 0.99,0.99 0 0 1 0.991,0.991 z m 0,4.955 a 0.9915,0.9915 0 1 1 -1.983,0 0.9915,0.9915 0 0 1 1.983,0 z m 0,4.955 c 0,0.545 -0.443,0.992 -0.991,0.992 a 0.992,0.992 0 0 1 0,-1.983 0.99,0.99 0 0 1 0.991,0.991 z m -4.954,-23.789 z m 0,4.96 a 0.9915,0.9915 0 0 1 -1.983,0 0.9915,0.9915 0 1 1 1.983,0 z m 0,4.951 a 0.993,0.993 0 0 1 -0.995,0.994 0.99,0.99 0 0 1 -0.988,-0.994 0.993,0.993 0 0 1 1.983,0 z m 0,4.956 z m 0,4.958 a 0.99,0.99 0 0 1 -0.995,0.989 0.987,0.987 0 0 1 -0.988,-0.989 c 0,-0.548 0.441,-0.991 0.988,-0.991 a 0.99,0.99 0 0 1 0.995,0.991 z"
       id="path62"
       inkscape:connector-curvature="0" />
  </g>
  <g
     id="g72"
     style="clip-rule:evenodd;fill:#593e9b;fill-rule:evenodd"
     transform="translate(-0.00125499,88.036879)">
    <path
       d="m 230.423,68.677 h -33.512 c -3.546,-0.008 -5.929,2.569 -5.929,5.66 0,3.09 2.377,5.638 5.934,5.639 h 33.501 c 3.558,-0.001 5.935,-2.549 5.935,-5.639 0,-3.091 -2.383,-5.668 -5.929,-5.66 z m -0.017,9.912 h -33.478 c -2.827,0.01 -4.545,-1.908 -4.545,-4.261 0,-2.354 1.729,-4.257 4.545,-4.262 h 33.478 c 2.817,0.005 4.546,1.908 4.546,4.262 0,2.353 -1.719,4.272 -4.546,4.261 z"
       id="path66"
       inkscape:connector-curvature="0" />
    <path
       d="m 199.39,75.366 -2.268,-3.709 h -1.639 v 5.319 h 1.629 v -3.709 l 2.28,3.709 h 1.623 v -5.319 h -1.626 z m 12.909,-1.921 V 72.92 h -0.857 v -0.716 h -1.583 l 0.001,0.717 H 209 v 0.524 h 0.859 v 3.531 h 1.585 l -0.002,-3.531 z m -10.378,-0.006 h 1.582 v 3.537 h -1.582 z m -0.003,-1.783 h 1.586 v 1.088 h -1.586 z m 27.73,1.541 c -1.277,0 -2.312,0.889 -2.312,1.987 0,1.096 1.035,1.985 2.312,1.985 1.278,0 2.312,-0.889 2.312,-1.985 0.001,-1.097 -1.034,-1.987 -2.312,-1.987 z m 0.635,2.731 c 0,0.563 -0.329,0.797 -0.647,0.797 -0.317,0 -0.648,-0.233 -0.648,-0.797 l 0.001,-0.763 0.001,-0.737 c 0,-0.561 0.33,-0.792 0.646,-0.792 0.315,0 0.647,0.231 0.647,0.792 l 0.001,0.753 z m -5.024,-2.314 c -0.253,-0.143 -0.52,-0.282 -0.896,-0.315 -1.14,-0.101 -2.012,0.918 -2.012,1.852 0,1.23 0.94,1.686 1.082,1.754 a 1.883,1.883 0 0 0 1.822,-0.133 l 0.001,0.203 h 1.564 v -5.318 h -1.562 z m 0.012,1.576 v 0.627 c 0,0.547 -0.373,0.689 -0.62,0.689 -0.252,0 -0.621,-0.143 -0.621,-0.689 l 0.001,-0.629 -0.001,-0.631 c 0,-0.547 0.369,-0.686 0.621,-0.686 0.247,0 0.62,0.139 0.62,0.686 z m -18.063,-1.914 a 1.9,1.9 0 0 0 -1.262,0.533 c -0.002,-0.087 0,-0.372 0,-0.372 l -1.572,0.001 0.001,3.537 h 1.571 l -0.002,-2.323 c 0,-0.308 0.32,-0.651 0.752,-0.651 0.431,0 0.723,0.343 0.723,0.651 v 2.323 h 1.572 c 0,0 -0.001,-1.676 10e-4,-1.924 0.008,-1.401 -1.193,-1.792 -1.784,-1.775 z m 12.858,0 a 1.9,1.9 0 0 0 -1.262,0.533 c -0.002,-0.087 0,-0.372 0,-0.372 l -1.57,0.001 -0.001,3.537 h 1.571 l -0.002,-2.323 c 0,-0.308 0.321,-0.651 0.752,-0.651 0.431,0 0.723,0.343 0.723,0.651 v 2.323 h 1.572 c 0,0 -10e-4,-1.676 0.001,-1.924 0.008,-1.401 -1.193,-1.792 -1.784,-1.775 z m -3.312,1.947 c 0,-1.097 -1.047,-2.006 -2.334,-2.006 -1.286,0 -2.33,0.889 -2.33,1.985 0,1.097 1.044,1.987 2.33,1.987 1.068,0 1.969,-0.616 2.245,-1.452 l -1.577,0.001 0.001,0.214 c 0,0.647 -0.421,0.792 -0.654,0.792 -0.234,0 -0.663,-0.144 -0.663,-0.792 l 0.002,-0.73 h 2.98 z m -2.876,-1.246 a 0.645,0.645 0 0 1 0.557,-0.322 h -0.001 0.001 a 0.64,0.64 0 0 1 0.556,0.322 c 0.101,0.178 0.106,0.385 0.104,0.694 h -1.321 c -0.004,-0.309 0.003,-0.516 0.104,-0.694 z m 18.89,-1.922 c 0,-0.238 -0.14,-0.344 -0.423,-0.344 h -0.457 v 1.211 h 0.182 v -0.525 h 0.208 l 0.317,0.525 h 0.202 l -0.34,-0.533 c 0.177,-0.023 0.311,-0.117 0.311,-0.334 z m -0.697,0.186 v -0.375 h 0.248 c 0.125,0 0.26,0.028 0.26,0.178 0,0.187 -0.137,0.197 -0.291,0.197 z"
       id="path68"
       inkscape:connector-curvature="0" />
    <path
       d="m 232.29,71.266 c -0.571,0 -1.055,0.445 -1.055,1.047 0,0.609 0.484,1.053 1.055,1.053 0.567,0 1.049,-0.444 1.049,-1.053 a 1.04,1.04 0 0 0 -1.049,-1.047 z m 0,1.925 c -0.475,0 -0.846,-0.372 -0.846,-0.878 0,-0.497 0.371,-0.872 0.846,-0.872 0.471,0 0.84,0.375 0.84,0.872 0,0.506 -0.369,0.878 -0.84,0.878 z"
       id="path70"
       inkscape:connector-curvature="0" />
  </g>
  <g
     id="g76"
     style="fill:#593e9b"
     transform="translate(-0.00125499,88.036879)">
    <path
       d="m 174.655,-82.703 c -0.2,0.092 -0.601,0.185 -1.116,0.185 -1.19,0 -2.087,-0.696 -2.087,-1.976 0,-1.223 0.897,-2.052 2.207,-2.052 0.526,0 0.858,0.104 1.002,0.174 l -0.131,0.411 a 2.127,2.127 0 0 0 -0.853,-0.162 c -0.99,0 -1.648,0.585 -1.648,1.611 0,0.956 0.596,1.57 1.623,1.57 0.332,0 0.67,-0.064 0.89,-0.162 z m 4.158,-1.866 c 0,1.344 -0.884,2.057 -1.962,2.057 -1.116,0 -1.899,-0.8 -1.899,-1.982 0,-1.24 0.833,-2.052 1.962,-2.052 1.153,0.001 1.899,0.818 1.899,1.977 z m -3.278,0.064 c 0,0.835 0.489,1.582 1.347,1.582 0.865,0 1.354,-0.736 1.354,-1.623 0,-0.776 -0.439,-1.588 -1.348,-1.588 -0.902,0 -1.353,0.771 -1.353,1.629 z m 7.541,0.214 c -0.032,-0.545 -0.069,-1.2 -0.063,-1.687 h -0.019 c -0.143,0.458 -0.319,0.945 -0.532,1.484 l -0.746,1.895 h -0.414 l -0.683,-1.86 c -0.2,-0.551 -0.369,-1.055 -0.489,-1.519 h -0.012 a 46.62,46.62 0 0 1 -0.081,1.727 l -0.113,1.675 h -0.52 l 0.294,-3.906 h 0.696 l 0.721,1.889 c 0.176,0.481 0.32,0.91 0.427,1.316 h 0.019 c 0.106,-0.394 0.257,-0.823 0.445,-1.316 l 0.752,-1.889 h 0.696 l 0.263,3.906 h -0.533 z m 5.033,0 c -0.032,-0.545 -0.069,-1.2 -0.063,-1.687 h -0.019 a 21.98,21.98 0 0 1 -0.532,1.484 l -0.746,1.895 h -0.414 l -0.683,-1.86 c -0.2,-0.551 -0.369,-1.055 -0.489,-1.519 h -0.012 a 46.62,46.62 0 0 1 -0.081,1.727 l -0.113,1.675 h -0.52 l 0.294,-3.906 h 0.696 l 0.721,1.889 c 0.176,0.481 0.32,0.91 0.427,1.316 h 0.019 c 0.106,-0.394 0.257,-0.823 0.445,-1.316 l 0.752,-1.889 h 0.696 l 0.263,3.906 h -0.533 z m -26.244,1.635 h 5.315 l -2.658,-3.745 z"
       id="path74"
       inkscape:connector-curvature="0" />
  </g>
  <path
     d="m 207.96175,238.87688 c 0,1.097 -0.831,1.983 -1.856,1.983 h -10.659 c -1.027,0 -1.858,-0.886 -1.858,-1.983 v -0.493 c 0,-1.099 0.831,-1.987 1.858,-1.987 h 10.659 c 1.025,0 1.856,0.888 1.856,1.987 z m 25.781,0 c 0,1.097 -0.829,1.983 -1.852,1.983 h -10.663 c -1.023,0 -1.852,-0.886 -1.852,-1.983 v -0.493 c 0,-1.099 0.829,-1.987 1.852,-1.987 h 10.663 c 1.024,0 1.852,0.888 1.852,1.987 z"
     id="path78"
     inkscape:connector-curvature="0"
     style="fill:#2b2b2b" />
  <g
     id="g82"
     style="fill:#593e9b"
     transform="translate(-0.00125499,88.036879)">
    <path
       d="m 192.372,157.598 c -0.393,-0.373 -0.772,-0.481 -1.083,-0.481 -0.427,0 -0.73,0.224 -0.73,0.548 0,0.887 1.996,0.873 1.996,2.342 0,0.724 -0.547,1.252 -1.292,1.252 -0.501,0 -0.907,-0.136 -1.293,-0.427 v -0.84 c 0.338,0.433 0.764,0.67 1.218,0.67 0.514,0 0.751,-0.325 0.751,-0.581 0,-0.955 -1.997,-1.063 -1.997,-2.328 0,-0.752 0.555,-1.233 1.402,-1.233 0.352,0 0.704,0.109 1.029,0.325 v 0.753 z m 3.525,-0.42 h -1.956 v 1.394 h 1.889 v 0.596 h -1.889 v 1.435 h 2.017 v 0.596 h -2.68 v -4.616 h 2.62 v 0.595 z m 1.42,3.425 h 2.085 v 0.596 h -2.748 v -4.616 h 0.663 z m 5.277,-3.425 h -1.956 v 1.394 h 1.888 v 0.596 h -1.888 v 1.435 h 2.017 v 0.596 h -2.68 v -4.616 h 2.62 v 0.595 z m 4.695,0.433 c -0.568,-0.332 -1.056,-0.48 -1.59,-0.48 -1.056,0 -1.841,0.751 -1.841,1.767 0,1.035 0.758,1.753 1.868,1.753 0.522,0 1.09,-0.183 1.611,-0.521 v 0.724 a 3.38,3.38 0 0 1 -1.671,0.407 c -1.733,0 -2.492,-1.334 -2.492,-2.302 0,-1.408 1.063,-2.437 2.532,-2.437 0.474,0 0.954,0.115 1.584,0.379 v 0.71 z m 4.323,-0.433 h -1.597 v 4.02 h -0.663 v -4.02 h -1.598 v -0.596 h 3.858 z"
       id="path80"
       inkscape:connector-curvature="0" />
  </g>
  <g
     id="g86"
     style="fill:#593e9b"
     transform="translate(-0.00125499,88.036879)">
    <path
       d="m 220.121,157.601 c -0.393,-0.373 -0.772,-0.481 -1.083,-0.481 -0.427,0 -0.73,0.224 -0.73,0.548 0,0.887 1.997,0.873 1.997,2.342 0,0.724 -0.549,1.252 -1.293,1.252 -0.5,0 -0.908,-0.136 -1.293,-0.427 v -0.84 c 0.338,0.433 0.764,0.67 1.217,0.67 0.515,0 0.753,-0.325 0.753,-0.581 0,-0.955 -1.997,-1.063 -1.997,-2.328 0,-0.752 0.555,-1.233 1.401,-1.233 0.351,0 0.704,0.109 1.029,0.325 v 0.753 z m 4.372,-0.42 h -1.599 v 4.02 h -0.663 v -4.02 h -1.597 v -0.596 h 3.858 v 0.596 z m 3.95,4.02 h -0.678 l -0.615,-1.361 h -1.963 l -0.581,1.361 h -0.678 l 1.984,-4.643 h 0.466 z m -2.999,-1.956 h 1.436 l -0.746,-1.671 z m 4.683,-2.66 c 0.934,0 1.516,0.494 1.516,1.293 0,0.534 -0.277,0.933 -0.772,1.13 0.419,0.277 0.678,0.704 1.029,1.28 0.196,0.318 0.311,0.474 0.63,0.914 h -0.793 l -0.61,-0.948 c -0.608,-0.948 -0.885,-1.056 -1.225,-1.056 h -0.277 v 2.004 h -0.663 v -4.616 h 1.165 z m -0.502,2.017 h 0.427 c 0.712,0 0.914,-0.365 0.908,-0.751 -0.008,-0.433 -0.264,-0.697 -0.908,-0.697 h -0.427 z m 6.266,-1.421 h -1.599 v 4.02 h -0.663 v -4.02 h -1.597 v -0.596 h 3.858 v 0.596 z"
       id="path84"
       inkscape:connector-curvature="0" />
  </g>
  <g
     id="g106"
     transform="translate(-0.00125499,88.036879)">
    <path
       d="m 313.212,50.785 h 70.963 a 3.778,3.778 0 0 1 3.778,3.779 v 34.63 a 3.778,3.778 0 0 1 -3.778,3.779 h -70.963 a 3.778,3.778 0 0 1 -3.778,-3.778 V 54.564 a 3.778,3.778 0 0 1 3.778,-3.779 z"
       id="path88"
       inkscape:connector-curvature="0"
       style="fill:#f1f1f1;fill-opacity:0.8;stroke:#35495e;stroke-width:0.63438869" />
    <path
       d="m 370,75.31 h -6.492 l -1.458,4.044 h -2.107 l 5.917,-15.496 h 1.788 l 5.928,15.496 h -2.096 z m -5.875,-1.682 h 5.269 l -2.64,-7.248 z"
       id="path90"
       inkscape:connector-curvature="0"
       style="fill:#35495e" />
    <g
       transform="matrix(0.99188,0,0,-0.99188,311.892,90.459)"
       id="g104">
      <defs
         id="defs93">
        <path
           id="a"
           d="M 0.15,0.15 H 36.91 V 36.91 H 0.15 Z"
           inkscape:connector-curvature="0" />
      </defs>
      <clipPath
         id="b">
        <use
           xlink:href="#a"
           overflow="visible"
           id="use95"
           style="overflow:visible"
           x="0"
           y="0"
           width="100%"
           height="100%" />
      </clipPath>
      <g
         clip-path="url(#b)"
         id="g102">
        <path
           d="M 30.23,14.114 A 5.1190001,5.1190001 0 1 0 30.232,24.352 5.1190001,5.1190001 0 0 0 30.23,14.114 M 19.46,22.51 a 5.118,5.118 0 1 0 10e-4,10.236 5.118,5.118 0 0 0 0,-10.236 M 17.615,4.197 a 5.118,5.118 0 1 0 0,10.236 5.118,5.118 0 0 0 0,-10.236 m -10.639,8.61 a 5.118,5.118 0 1 0 0,10.236 5.118,5.118 0 0 0 0,-10.235 M 18.6,37.06 C 8.384,37.06 0.102,28.78 0.102,18.563 0.102,8.347 8.384,0.065 18.6,0.065 c 10.216,0 18.498,8.282 18.498,18.498 0,10.217 -8.282,18.498 -18.498,18.498"
           id="path98"
           inkscape:connector-curvature="0"
           style="fill:#35495e" />
        <path
           d="m 21.235,9.315 a 3.6200001,3.6200001 0 1 0 -7.24,0.002 3.6200001,3.6200001 0 0 0 7.24,-0.002 M 10.79,17.926 a 3.813,3.813 0 1 0 -3.812,3.812 3.812,3.812 0 0 0 3.811,-3.812 m 12.284,9.6 a 3.62,3.62 0 1 0 -7.238,0 3.62,3.62 0 0 0 7.238,0"
           id="path100"
           inkscape:connector-curvature="0"
           style="fill:#35495e" />
      </g>
    </g>
  </g>
  <g
     id="g126"
     transform="translate(-0.00125499,88.036879)">
    <path
       d="m 313.212,106.346 h 70.963 a 3.778,3.778 0 0 1 3.778,3.778 v 34.63 a 3.778,3.778 0 0 1 -3.778,3.78 h -70.963 a 3.778,3.778 0 0 1 -3.778,-3.78 v -34.63 a 3.778,3.778 0 0 1 3.778,-3.778 z"
       id="path108"
       inkscape:connector-curvature="0"
       style="fill:#f1f1f1;fill-opacity:0.8;stroke:#35495e;stroke-width:0.63438869" />
    <path
       d="m 361.443,134.914 v -15.496 h 5.066 c 1.682,0 2.945,0.348 3.79,1.043 0.85,0.696 1.276,1.724 1.276,3.087 a 3.17,3.17 0 0 1 -0.617,1.926 c -0.412,0.553 -0.972,0.983 -1.682,1.288 0.838,0.234 1.497,0.681 1.98,1.34 0.49,0.654 0.734,1.434 0.734,2.342 0,1.391 -0.45,2.484 -1.351,3.278 -0.901,0.795 -2.175,1.192 -3.821,1.192 z m 2.044,-7.248 v 5.577 h 3.374 c 0.95,0 1.699,-0.244 2.245,-0.734 0.554,-0.497 0.83,-1.178 0.83,-2.043 0,-1.866 -1.014,-2.8 -3.043,-2.8 z m 0,-1.639 h 3.086 c 0.894,0 1.607,-0.223 2.14,-0.67 0.539,-0.447 0.808,-1.054 0.808,-1.82 0,-0.852 -0.248,-1.469 -0.745,-1.852 -0.496,-0.39 -1.252,-0.586 -2.267,-0.586 h -3.022 z"
       id="path110"
       inkscape:connector-curvature="0"
       style="fill:#35495e" />
    <g
       transform="matrix(1.01304,0,0,-1.01304,311.253,146.317)"
       id="g124">
      <defs
         id="defs113">
        <path
           id="c"
           d="M -0.241,-0.242 H 37.303 V 37.302 H -0.241 Z"
           inkscape:connector-curvature="0" />
      </defs>
      <clipPath
         id="d">
        <use
           xlink:href="#c"
           overflow="visible"
           id="use115"
           style="overflow:visible"
           x="0"
           y="0"
           width="100%"
           height="100%" />
      </clipPath>
      <g
         clip-path="url(#d)"
         id="g122">
        <path
           d="M 30.23,14.114 A 5.1190001,5.1190001 0 1 0 30.232,24.352 5.1190001,5.1190001 0 0 0 30.23,14.114 M 19.46,22.51 a 5.118,5.118 0 1 0 10e-4,10.236 5.118,5.118 0 0 0 0,-10.236 M 17.615,4.197 a 5.118,5.118 0 1 0 0,10.236 5.118,5.118 0 0 0 0,-10.236 m -10.639,8.61 a 5.118,5.118 0 1 0 0,10.236 5.118,5.118 0 0 0 0,-10.235 M 18.6,37.06 C 8.384,37.06 0.102,28.78 0.102,18.563 0.102,8.347 8.384,0.065 18.6,0.065 c 10.216,0 18.498,8.282 18.498,18.498 0,10.217 -8.282,18.498 -18.498,18.498"
           id="path118"
           inkscape:connector-curvature="0"
           style="fill:#35495e" />
        <path
           d="m 33.885,19.232 a 3.6545,3.6545 0 1 0 -7.309,-10e-4 3.6545,3.6545 0 0 0 7.309,10e-4 M 10.79,17.926 a 3.813,3.813 0 1 0 -3.812,3.812 3.812,3.812 0 0 0 3.811,-3.812 m 12.284,9.6 a 3.62,3.62 0 1 0 -7.238,0 3.62,3.62 0 0 0 7.238,0"
           id="path120"
           inkscape:connector-curvature="0"
           style="fill:#35495e" />
      </g>
    </g>
  </g>
  <g
     id="g136"
     transform="translate(-0.00125499,88.036879)">
    <path
       d="m 82.41,207.593 h 127.183 a 3.761,3.761 0 0 1 3.76,3.76 v 34.471 a 3.761,3.761 0 0 1 -3.76,3.761 H 82.41 a 3.761,3.761 0 0 1 -3.761,-3.76 v -34.471 a 3.761,3.761 0 0 1 3.76,-3.761 z"
       id="path128"
       inkscape:connector-curvature="0"
       style="fill:#f1f1f1;fill-opacity:0.8;stroke:#35495e;stroke-width:0.82921845" />
    <path
       d="m 113.242,228.835 h -28.7 c -2.074,0 -3.756,1.731 -3.756,3.866 0,2.135 1.682,3.866 3.757,3.866 h 28.699 c 2.074,0 3.756,-1.73 3.756,-3.866 0,-2.136 -1.682,-3.866 -3.756,-3.866 z m 0.528,-3.488 h 1.158 v -5.935 h 2.075 v -1.104 h -5.308 v 1.103 h 2.074 v 5.936 z m -2.836,-4.438 c -0.123,-1.518 -1.115,-2.798 -3.016,-2.798 -2.175,0 -3.09,1.732 -3.09,3.718 0,1.98 0.957,3.717 2.952,3.717 2.274,0 2.993,-1.486 3.155,-2.89 h -1.25 c -0.098,0.74 -0.5,1.787 -1.704,1.787 -1.148,0 -1.942,-1.019 -1.942,-2.488 0,-1.834 0.794,-2.744 1.864,-2.744 0.976,0 1.665,0.631 1.781,1.697 z m -11.917,4.438 h 4.86 v -1.103 h -3.7 v -1.952 h 3.491 v -1.103 h -3.491 v -1.777 h 3.636 v -1.104 h -4.795 v 7.04 z m -5.55,0 h 4.52 v -1.16 h -3.359 v -5.879 h -1.16 v 7.04 z m -6.121,0 h 4.86 v -1.103 h -3.7 v -1.952 h 3.49 v -1.103 h -3.49 v -1.777 h 3.641 v -1.104 h -4.801 v 7.04 z m -6.415,-5.058 c 0,2.887 4.072,1.366 4.072,3.113 0,0.774 -0.658,1.04 -1.363,1.04 -0.954,0 -1.555,-0.446 -1.587,-1.375 H 80.8 c 0.015,1.48 0.812,2.477 2.802,2.477 1.177,0 2.653,-0.473 2.653,-2.29 0,-3.006 -4.116,-1.421 -4.116,-3.073 0,-0.662 0.511,-0.969 1.283,-0.969 0.967,0 1.356,0.591 1.395,1.137 h 1.255 c -0.149,-2.044 -1.853,-2.238 -2.704,-2.238 -1.345,0 -2.437,0.61 -2.437,2.178"
       id="path130"
       inkscape:connector-curvature="0"
       style="fill:#35495e" />
    <g
       id="g134"
       style="fill:#35495e">
      <path
         d="m 135.127,229.157 c -1.753,-0.504 -3.03,-1.121 -3.832,-1.852 -0.794,-0.738 -1.191,-1.646 -1.191,-2.725 0,-1.22 0.486,-2.228 1.458,-3.022 0.98,-0.802 2.25,-1.203 3.81,-1.203 1.064,0 2.012,0.206 2.842,0.617 0.837,0.412 1.483,0.98 1.937,1.703 a 4.33,4.33 0 0 1 0.692,2.373 h -2.055 c 0,-0.936 -0.298,-1.67 -0.894,-2.203 -0.596,-0.54 -1.437,-0.809 -2.522,-0.809 -1.008,0 -1.795,0.224 -2.363,0.67 -0.56,0.44 -0.84,1.054 -0.84,1.842 0,0.632 0.266,1.167 0.798,1.607 0.539,0.433 1.45,0.83 2.735,1.192 1.291,0.362 2.299,0.763 3.023,1.203 0.73,0.432 1.27,0.94 1.617,1.521 0.355,0.582 0.532,1.267 0.532,2.055 0,1.255 -0.49,2.263 -1.468,3.022 -0.98,0.752 -2.289,1.128 -3.928,1.128 a 7.335,7.335 0 0 1 -2.98,-0.606 c -0.922,-0.412 -1.635,-0.972 -2.139,-1.682 -0.497,-0.71 -0.745,-1.515 -0.745,-2.416 h 2.054 c 0,0.937 0.345,1.678 1.033,2.225 0.695,0.54 1.62,0.809 2.777,0.809 1.079,0 1.906,-0.22 2.48,-0.66 0.575,-0.44 0.862,-1.04 0.862,-1.799 0,-0.759 -0.266,-1.344 -0.798,-1.756 -0.532,-0.418 -1.497,-0.83 -2.895,-1.234 z m 17.135,-0.256 h -6.716 v 5.492 h 7.801 v 1.671 h -9.844 v -15.496 h 9.738 v 1.682 h -7.695 v 4.98 h 6.716 z m 5.683,5.492 h 7.344 v 1.671 h -9.398 v -15.496 h 2.054 z m 18.455,-5.492 h -6.715 v 5.492 h 7.8 v 1.671 h -9.844 v -15.496 h 9.738 v 1.682 h -7.694 v 4.98 h 6.715 z m 15.028,2.246 c -0.191,1.64 -0.798,2.906 -1.82,3.8 -1.014,0.887 -2.366,1.33 -4.055,1.33 -1.83,0 -3.299,-0.656 -4.406,-1.969 -1.1,-1.313 -1.65,-3.069 -1.65,-5.268 v -1.49 c 0,-1.44 0.256,-2.707 0.767,-3.8 0.518,-1.092 1.249,-1.93 2.192,-2.512 0.944,-0.588 2.037,-0.883 3.279,-0.883 1.646,0 2.965,0.461 3.959,1.384 0.993,0.915 1.572,2.185 1.735,3.81 h -2.055 c -0.177,-1.235 -0.564,-2.129 -1.16,-2.682 -0.589,-0.553 -1.415,-0.83 -2.48,-0.83 -1.305,0 -2.33,0.482 -3.075,1.447 -0.738,0.965 -1.107,2.338 -1.107,4.12 v 1.5 c 0,1.682 0.351,3.019 1.054,4.012 0.703,0.993 1.685,1.49 2.948,1.49 1.135,0 2.004,-0.255 2.607,-0.766 0.61,-0.518 1.015,-1.416 1.213,-2.693 z m 13.187,-8.897 h -4.981 v 13.814 H 197.6 V 222.25 h -4.97 v -1.682 h 11.984 v 1.682 z"
         id="path132"
         inkscape:connector-curvature="0" />
    </g>
  </g>
  <g
     id="g146"
     transform="translate(-0.00125499,88.036879)">
    <path
       d="m 223.964,207.577 h 117.06 a 3.764,3.764 0 0 1 3.764,3.764 v 34.497 a 3.764,3.764 0 0 1 -3.764,3.763 H 223.964 A 3.764,3.764 0 0 1 220.2,245.838 V 211.34 a 3.764,3.764 0 0 1 3.764,-3.764 z"
       id="path138"
       inkscape:connector-curvature="0"
       style="fill:#f1f1f1;fill-opacity:0.8;stroke:#35495e;stroke-width:0.79775327" />
    <path
       d="m 255.568,225.346 h 1.435 v -6.063 h 2.557 v -1.127 h -6.548 v 1.127 h 2.557 v 6.063 z m -8.694,-3.966 v -2.097 h 2.476 c 0.754,0 1.224,0.292 1.224,1.037 0,0.806 -0.431,1.06 -1.224,1.06 z m -1.43,3.966 h 1.43 v -2.84 h 2.438 c 1.05,0 1.185,0.726 1.185,1.752 0,0.525 0.068,0.888 0.173,1.088 h 1.549 c -0.28,-0.394 -0.29,-1.196 -0.29,-1.542 0,-1.017 -0.179,-1.762 -0.991,-1.94 v -0.022 c 0.641,-0.21 1.125,-0.795 1.125,-1.733 0,-1.116 -0.561,-1.95 -2.3,-1.95 h -4.317 l -0.003,7.187 z m -8.865,0 h 1.547 l 0.706,-1.782 h 3.21 l 0.716,1.782 h 1.6 l -3.038,-7.19 h -1.7 z m 2.684,-2.909 1.185,-3.035 1.165,3.035 z m -6.715,2.91 h 1.43 v -6.064 h 2.562 v -1.127 h -6.553 v 1.127 h 2.56 v 6.063 z m -9.783,-5.169 c 0,2.95 5.025,1.397 5.025,3.18 0,0.791 -0.811,1.062 -1.68,1.062 -1.177,0 -1.92,-0.454 -1.959,-1.403 h -1.546 c 0.02,1.512 1.002,2.532 3.46,2.532 1.452,0 3.273,-0.485 3.273,-2.34 0,-3.072 -5.081,-1.45 -5.081,-3.14 0,-0.675 0.63,-0.986 1.585,-0.986 1.193,0 1.672,0.602 1.722,1.158 h 1.548 c -0.185,-2.088 -2.285,-2.287 -3.338,-2.287 -1.663,0 -3.009,0.622 -3.009,2.224 m 32.955,8.73 h -29.305 c -2.118,0 -3.836,1.768 -3.836,3.948 0,2.18 1.718,3.948 3.836,3.948 h 29.305 c 2.118,0 3.835,-1.767 3.835,-3.948 0,-2.181 -1.717,-3.948 -3.835,-3.948 z"
       id="path140"
       inkscape:connector-curvature="0"
       style="fill:#35495e" />
    <g
       id="g144"
       style="fill:#35495e">
      <path
         d="m 276.694,229.157 c -1.753,-0.504 -3.03,-1.121 -3.832,-1.852 -0.794,-0.738 -1.191,-1.646 -1.191,-2.725 0,-1.22 0.485,-2.228 1.458,-3.022 0.979,-0.802 2.249,-1.203 3.81,-1.203 1.064,0 2.011,0.206 2.842,0.617 0.837,0.412 1.483,0.98 1.937,1.703 a 4.33,4.33 0 0 1 0.691,2.373 h -2.054 c 0,-0.936 -0.298,-1.67 -0.894,-2.203 -0.596,-0.54 -1.437,-0.809 -2.522,-0.809 -1.008,0 -1.795,0.224 -2.363,0.67 -0.56,0.44 -0.84,1.054 -0.84,1.842 0,0.632 0.266,1.167 0.798,1.607 0.539,0.433 1.45,0.83 2.735,1.192 1.291,0.362 2.299,0.763 3.022,1.203 0.731,0.432 1.27,0.94 1.618,1.522 0.355,0.582 0.532,1.266 0.532,2.054 0,1.256 -0.49,2.263 -1.468,3.022 -0.98,0.752 -2.289,1.128 -3.928,1.128 a 7.335,7.335 0 0 1 -2.98,-0.606 c -0.922,-0.412 -1.635,-0.972 -2.139,-1.682 -0.497,-0.71 -0.745,-1.515 -0.745,-2.416 h 2.054 c 0,0.937 0.344,1.678 1.033,2.225 0.695,0.54 1.62,0.809 2.777,0.809 1.079,0 1.905,-0.22 2.48,-0.66 0.575,-0.44 0.862,-1.04 0.862,-1.799 0,-0.759 -0.266,-1.344 -0.798,-1.756 -0.532,-0.418 -1.497,-0.83 -2.895,-1.234 z m 19.083,-6.907 h -4.98 v 13.814 h -2.034 V 222.25 h -4.97 v -1.681 h 11.984 z m 10.026,9.77 h -6.493 l -1.458,4.044 h -2.107 l 5.917,-15.496 h 1.788 l 5.929,15.496 h -2.097 l -1.48,-4.044 z m -5.876,-1.682 h 5.269 l -2.64,-7.248 z m 17.221,-0.543 h -3.64 v 6.27 h -2.054 v -15.497 h 5.13 c 1.745,0 3.086,0.397 4.023,1.192 0.944,0.794 1.416,1.95 1.416,3.47 0,0.964 -0.263,1.805 -0.788,2.522 -0.518,0.717 -1.242,1.252 -2.171,1.607 l 3.64,6.577 v 0.128 h -2.193 z m -3.64,-1.67 h 3.14 c 1.014,0 1.82,-0.263 2.416,-0.788 0.603,-0.525 0.904,-1.228 0.904,-2.107 0,-0.958 -0.287,-1.693 -0.862,-2.204 -0.567,-0.51 -1.39,-0.77 -2.469,-0.777 h -3.13 v 5.875 z m 21.222,-5.875 h -4.98 v 13.814 h -2.033 V 222.25 h -4.97 v -1.681 h 11.983 z"
         id="path142"
         inkscape:connector-curvature="0" />
    </g>
  </g>
  <g
     id="g182"
     transform="translate(-0.00125499,88.036879)">
    <path
       d="m 4.16,80 h 114.435 a 3.764,3.764 0 0 1 3.765,3.764 v 34.503 a 3.764,3.764 0 0 1 -3.765,3.765 H 4.16 A 3.764,3.764 0 0 1 0.396,118.267 V 83.764 A 3.765,3.765 0 0 1 4.16,79.999 Z"
       id="path148"
       inkscape:connector-curvature="0"
       style="fill:#f1f1f1;fill-opacity:0.8;stroke:#35495e;stroke-width:0.78948975" />
    <path
       d="m 24.878,119.896 h -7.2 c -2.318,0 -3.159,-1.89 -3.159,-3.16 v -8.842 H 5.675 c -2.319,0 -3.16,-1.89 -3.16,-3.16 v -7.2 c 0,-2.318 1.89,-3.16 3.16,-3.16 h 8.844 v -8.843 c 0,-2.319 1.889,-3.16 3.158,-3.16 h 7.201 c 2.319,0 3.16,1.89 3.16,3.16 v 8.843 h 8.841 c 1.217,0 2.182,0.532 2.718,1.499 0.21,0.38 0.462,1.126 0.435,1.66 h 0.008 v 7.2 c 0,2.318 -1.89,3.16 -3.16,3.16 h -8.842 v 8.842 c 0,2.32 -1.89,3.161 -3.16,3.161 z M 5.675,95.892 c -0.38,0.006 -1.641,0.141 -1.641,1.64 v 7.2 c 0.006,0.381 0.14,1.642 1.641,1.642 h 10.362 v 10.36 c 0.005,0.381 0.14,1.642 1.64,1.642 h 7.197 c 0.389,-0.006 1.645,-0.144 1.645,-1.641 v -10.36 h 10.36 c 0.38,-0.006 1.64,-0.142 1.64,-1.642 v -7.21 c -0.004,-0.291 -0.113,-1.63 -1.64,-1.63 H 26.521 V 85.531 C 26.514,85.151 26.38,83.89 24.879,83.89 h -7.2 c -0.381,0.006 -1.64,0.14 -1.64,1.641 v 10.361 z"
       id="path150"
       inkscape:connector-curvature="0"
       style="fill:#35495e" />
    <path
       d="m 21.28,104.831 c -2.038,0 -3.696,-1.658 -3.696,-3.697 0,-2.039 1.658,-3.696 3.695,-3.696 a 3.7,3.7 0 0 1 3.696,3.696 3.7,3.7 0 0 1 -3.696,3.697 z m 0,-5.874 a 2.18,2.18 0 0 0 -2.177,2.177 c 0,1.202 0.976,2.179 2.176,2.179 1.201,0 2.177,-0.978 2.177,-2.179 0,-1.201 -0.977,-2.177 -2.177,-2.177 z"
       id="path152"
       inkscape:connector-curvature="0"
       style="fill:#35495e" />
    <g
       id="g158"
       style="fill:#35495e">
      <path
         d="m 21.278,85.594 -3.043,4.743 h 6.088 z"
         id="path154"
         inkscape:connector-curvature="0" />
      <path
         d="m 24.322,91.097 h -6.088 a 0.761,0.761 0 0 1 -0.639,-1.17 l 3.043,-4.743 c 0.28,-0.436 1,-0.435 1.278,0 l 3.045,4.743 a 0.76,0.76 0 0 1 -0.639,1.17 z m -4.697,-1.52 h 3.308 l -1.655,-2.576 -1.653,2.577 z"
         id="path156"
         inkscape:connector-curvature="0" />
    </g>
    <g
       id="g164"
       style="fill:#35495e">
      <path
         d="m 5.68,101.134 4.742,3.042 v -6.085 l -4.743,3.043 z"
         id="path160"
         inkscape:connector-curvature="0" />
      <path
         d="m 10.422,104.936 a 0.759,0.759 0 0 1 -0.41,-0.12 l -4.743,-3.043 a 0.757,0.757 0 0 1 0,-1.277 l 4.743,-3.044 a 0.761,0.761 0 0 1 1.17,0.639 v 6.085 a 0.76,0.76 0 0 1 -0.76,0.76 z m -3.336,-3.802 2.577,1.653 v -3.306 z"
         id="path162"
         inkscape:connector-curvature="0" />
    </g>
    <g
       id="g170"
       style="fill:#35495e">
      <path
         d="m 36.82,101.133 -4.743,-3.042 v 6.085 l 4.744,-3.043 z"
         id="path166"
         inkscape:connector-curvature="0" />
      <path
         d="m 32.078,104.936 a 0.76,0.76 0 0 1 -0.76,-0.76 v -6.085 a 0.758,0.758 0 0 1 1.17,-0.64 l 4.745,3.044 a 0.76,0.76 0 0 1 0,1.277 l -4.745,3.043 a 0.762,0.762 0 0 1 -0.41,0.12 z m 0.76,-5.456 v 3.307 l 2.577,-1.654 -2.578,-1.653 z"
         id="path168"
         inkscape:connector-curvature="0" />
    </g>
    <g
       id="g176"
       style="fill:#35495e">
      <path
         d="m 21.278,116.674 3.045,-4.743 h -6.088 z"
         id="path172"
         inkscape:connector-curvature="0" />
      <path
         d="m 21.278,117.433 a 0.76,0.76 0 0 1 -0.639,-0.349 l -3.043,-4.743 a 0.761,0.761 0 0 1 0.64,-1.17 h 6.087 a 0.758,0.758 0 0 1 0.64,1.17 l -3.046,4.743 a 0.76,0.76 0 0 1 -0.639,0.35 z m -1.653,-4.743 1.653,2.577 1.655,-2.577 z"
         id="path174"
         inkscape:connector-curvature="0" />
    </g>
    <g
       id="g180"
       style="fill:#35495e">
      <path
         d="M 52.327,108.49 V 92.994 H 56.7 c 1.348,0 2.54,0.299 3.576,0.895 1.036,0.596 1.834,1.443 2.395,2.543 0.567,1.1 0.855,2.363 0.862,3.789 v 0.99 c 0,1.461 -0.284,2.742 -0.852,3.842 a 5.912,5.912 0 0 1 -2.416,2.533 c -1.043,0.589 -2.26,0.89 -3.65,0.904 h -4.29 z m 2.044,-13.814 v 12.144 h 2.15 c 1.575,0 2.798,-0.49 3.671,-1.47 0.88,-0.978 1.32,-2.372 1.32,-4.182 v -0.904 c 0,-1.76 -0.415,-3.126 -1.245,-4.098 -0.824,-0.98 -1.994,-1.476 -3.512,-1.49 H 54.37 Z m 16.049,8.035 h -5.194 v -1.607 h 5.194 z m 4.257,-0.287 v 6.066 H 72.634 V 92.994 h 5.715 c 1.696,0 3.023,0.433 3.98,1.299 0.966,0.866 1.448,2.011 1.448,3.437 0,1.505 -0.472,2.665 -1.416,3.48 -0.936,0.81 -2.28,1.214 -4.033,1.214 h -3.65 z m 0,-1.67 h 3.672 c 1.093,0 1.93,-0.256 2.512,-0.767 0.582,-0.518 0.873,-1.263 0.873,-2.235 0,-0.923 -0.291,-1.66 -0.873,-2.214 -0.582,-0.553 -1.38,-0.84 -2.395,-0.862 h -3.788 v 6.077 z m 18.817,3.692 h -6.492 l -1.459,4.045 h -2.107 l 5.917,-15.497 h 1.789 l 5.928,15.497 h -2.097 l -1.48,-4.045 z m -5.875,-1.681 h 5.268 l -2.64,-7.248 z m 11.537,5.725 V 92.994 h 4.374 c 1.349,0 2.54,0.299 3.576,0.895 1.036,0.595 1.835,1.443 2.395,2.543 0.568,1.1 0.855,2.363 0.862,3.789 v 0.99 c 0,1.461 -0.284,2.742 -0.852,3.842 a 5.912,5.912 0 0 1 -2.415,2.533 c -1.044,0.589 -2.26,0.89 -3.651,0.904 z m 2.043,-13.814 v 12.144 h 2.15 c 1.575,0 2.8,-0.49 3.672,-1.47 0.88,-0.978 1.32,-2.372 1.32,-4.182 v -0.904 c 0,-1.76 -0.415,-3.126 -1.245,-4.098 -0.824,-0.98 -1.994,-1.476 -3.512,-1.49 z"
         id="path178"
         inkscape:connector-curvature="0" />
    </g>
  </g>
  <ellipse
     cx="275.05676"
     cy="185.97987"
     rx="2.4530001"
     ry="2.4000001"
     id="ellipse184"
     style="fill:#434547" />
  <ellipse
     cx="243.52675"
     cy="196.18488"
     rx="2.4530001"
     ry="2.4000001"
     id="ellipse186"
     style="fill:#434547" />
  <ellipse
     cx="226.32475"
     cy="238.53888"
     rx="2.4530001"
     ry="2.4000001"
     id="ellipse188"
     style="fill:#434547" />
  <ellipse
     cx="200.68275"
     cy="238.66689"
     rx="2.4530001"
     ry="2.4000001"
     id="ellipse190"
     style="fill:#434547" />
  <ellipse
     cx="164.06975"
     cy="189.67888"
     rx="2.4530001"
     ry="2.4000001"
     id="ellipse192"
     style="fill:#434547" />
  <path
     d="m 165.94675,189.74088 -43.236,0.068"
     id="path194"
     inkscape:connector-curvature="0"
     style="fill:#434547;stroke:#434547;stroke-width:0.852" />
  <path
     d="m 226.19075,237.62188 0.068,57.671"
     id="path196"
     inkscape:connector-curvature="0"
     style="fill:#434547;stroke:#434547;stroke-width:0.98299998" />
  <path
     d="m 200.43375,237.80288 0.068,57.491"
     id="path198"
     inkscape:connector-curvature="0"
     style="fill:#434547;stroke:#434547;stroke-width:0.98100001" />
  <path
     d="m 274.87275,156.50288 0.106,29.93"
     id="path200"
     inkscape:connector-curvature="0"
     style="fill:#434547;stroke:#434547;stroke-width:0.88599998" />
  <path
     d="m 243.47275,196.18488 0.106,29.419"
     id="path202"
     inkscape:connector-curvature="0"
     style="fill:#434547;stroke:#434547;stroke-width:0.87800002" />
  <path
     d="m 309.13375,156.82188 -34.718,0.068"
     id="path204"
     inkscape:connector-curvature="0"
     style="fill:#434547;stroke:#434547;stroke-width:0.76099998" />
  <path
     d="m 309.10175,225.53588 -65.958,0.068"
     id="path206"
     inkscape:connector-curvature="0"
     style="fill:#434547;stroke:#434547;stroke-width:1.04999995" />
</svg>
