<?xml version="1.0" encoding="UTF-8" standalone="no"?>
<svg
   xmlns:dc="http://purl.org/dc/elements/1.1/"
   xmlns:cc="http://creativecommons.org/ns#"
   xmlns:rdf="http://www.w3.org/1999/02/22-rdf-syntax-ns#"
   xmlns:svg="http://www.w3.org/2000/svg"
   xmlns="http://www.w3.org/2000/svg"
   xmlns:sodipodi="http://sodipodi.sourceforge.net/DTD/sodipodi-0.dtd"
   xmlns:inkscape="http://www.inkscape.org/namespaces/inkscape"
   viewBox="-62 141.1 400.00001 421.0503"
   version="1.1"
   id="svg40"
   sodipodi:docname="console.svg"
   width="400"
   height="421.05029"
   inkscape:version="0.92.4 5da689c313, 2019-01-14">
  <metadata
     id="metadata46">
    <rdf:RDF>
      <cc:Work
         rdf:about="">
        <dc:format>image/svg+xml</dc:format>
        <dc:type
           rdf:resource="http://purl.org/dc/dcmitype/StillImage" />
      </cc:Work>
    </rdf:RDF>
  </metadata>
  <defs
     id="defs44" />
  <sodipodi:namedview
     pagecolor="#ffffff"
     bordercolor="#666666"
     borderopacity="1"
     objecttolerance="10"
     gridtolerance="10"
     guidetolerance="10"
     inkscape:pageopacity="0"
     inkscape:pageshadow="2"
     inkscape:window-width="640"
     inkscape:window-height="480"
     id="namedview42"
     showgrid="false"
     inkscape:zoom="0.56050311"
     inkscape:cx="200"
     inkscape:cy="210.52514"
     inkscape:window-x="0"
     inkscape:window-y="0"
     inkscape:window-maximized="0"
     inkscape:current-layer="svg40">
    <inkscape:grid
       type="xygrid"
       id="grid853"
       originx="0"
       originy="-2.4767656e-06" />
  </sodipodi:namedview>
  <path
     d="m 335.23675,141.38142 -52.16316,109.84755 -1.73053,-2.47219 50.67985,-107.62258 c 1.3185,0 2.38978,0.0824 3.21384,0.24722 M -5.2559539,248.74236 -6.9864854,251.21455 -59.14965,141.367 c 0.824063,-0.16481 1.812938,-0.24722 3.213844,-0.24722 z"
     id="path2"
     inkscape:connector-curvature="0"
     style="fill:#a7a8a8" />
  <path
     d="m 331.99349,141.18241 -50.67985,107.54017 c -31.64401,-45.07622 -84.05439,-74.49526 -143.30449,-74.49526 -59.250106,0 -111.578083,29.41904 -143.304494,74.49526 L -56.057602,141.1 H 329.27408 c 1.07128,0 1.89535,0 2.71941,0.0824"
     id="path4"
     inkscape:connector-curvature="0"
     style="fill:#e4e5e4" />
  <path
     d="m 338,149.78892 v 313.72064 c 0,0 -0.24722,81.4998 -5.52122,87.59786 -2.55459,2.96663 -48.20766,7.08694 -94.6848,8.98228 C 188.35023,562.23227 138,562.14986 138,562.14986 c 0,0 -50.350227,0.0824 -99.793984,-2.06016 -46.4771326,-1.97775 -92.130202,-6.01565 -94.684796,-8.98228 C -61.752781,544.92695 -62,463.50956 -62,463.50956 V 149.78892 c 0,-5.85084 0,-7.74619 2.719407,-8.32303 l 52.1631641,109.84755 1.7305315,-2.47219 C 26.339514,203.76502 78.667491,174.34599 137.91759,174.34599 c 59.25011,0 111.57808,29.41903 143.30449,74.49526 l 1.73054,2.47219 52.16316,-109.84755 C 338,142.04273 338,143.85567 338,149.78892"
     id="path6"
     inkscape:connector-curvature="0"
     style="fill:#dedfde" />
  <path
     d="m 274.56696,349.57236 c 0,75.48413 -61.14545,136.62958 -136.54718,136.62958 -75.401733,0 -136.5471801,-61.22785 -136.5471801,-136.62958 0,-21.17841 4.8619695,-41.28554 13.4322211,-59.1677 22.002472,-45.81788 68.891636,-77.46189 123.114959,-77.46189 54.47054,0 101.60692,31.97363 123.44458,78.20355 8.40544,17.71734 13.1026,37.49485 13.1026,58.42604"
     id="path8"
     inkscape:connector-curvature="0"
     style="fill:#e4e5e4" />
  <path
     d="m 313.11067,349.57236 c 0,96.82736 -78.36835,175.27812 -175.11331,175.27812 -96.74495,0 -175.113306,-78.45076 -175.113306,-175.27812 0,-36.42357 11.124846,-70.29255 30.0782863,-98.31067 l 1.7305316,-2.47219 1.4833127,3.04903 c -19.1182526,27.77091 -30.3255046,61.39266 -30.3255046,97.73383 0,95.17923 77.132262,172.3939 172.22909,172.3939 95.09683,0 172.14668,-77.13226 172.14668,-172.3939 0,-36.25876 -11.20725,-69.96292 -30.3255,-97.73383 l 1.48331,-3.04903 1.73053,2.47219 c 18.95344,28.01812 29.99588,61.8871 29.99588,98.31067"
     id="path10"
     inkscape:connector-curvature="0"
     style="fill:#a7a8a8" />
  <path
     d="m 281.29477,248.74236 -1.48332,3.04903 c -31.06716,-45.07622 -82.9831,-74.66007 -141.82117,-74.66007 -58.838076,0 -110.754021,29.50144 -141.8211823,74.57767 l -1.4833128,-3.04904 C 26.412196,203.58373 78.740173,174.16469 137.99028,174.16469 c 59.2501,0 111.66048,29.50145 143.30449,74.57767"
     id="path12"
     inkscape:connector-curvature="0"
     style="fill:#a7a8a8" />
  <path
     d="m 123.92468,524.3267 14.09147,30.40791 14.09147,-30.40791"
     id="path14"
     inkscape:connector-curvature="0"
     style="fill:#d65725" />
  <path
     d="m -35.724351,518.61752 c -7.828595,-20.68398 -6.427689,-28.8422 3.049032,-34.69304 14.009064,-8.65266 36.5883804,14.91553 39.2253808,27.44128 2.8018129,13.67944 -4.3675319,26.04038 -15.4099712,27.93573 -11.0424396,1.97775 -22.3320976,-8.73507 -26.8644416,-20.68397"
     id="path16"
     inkscape:connector-curvature="0"
     style="fill:#a7a8a8" />
  <path
     d="m -33.013597,519.99502 c -2.307375,-12.60816 4.779563,-24.30985 15.822002,-26.20519 11.0424397,-1.89535 21.8376601,6.75731 24.1450355,19.36547 2.3073753,12.60816 -4.8619695,24.30985 -15.9044088,26.20519 -10.9600327,1.89534 -21.7552537,-6.75731 -24.0626287,-19.36547"
     id="path18"
     inkscape:connector-curvature="0"
     style="fill:#bbbbbb" />
  <path
     d="m -27.18937,518.98909 c -1.648125,-8.89988 3.378657,-17.22291 11.207252,-18.54141 7.8285951,-1.3185 15.40997132,4.77956 17.0580966,13.67944 1.6481252,8.89987 -3.4610631,17.2229 -11.2896576,18.5414 -7.663783,1.40091 -15.327565,-4.77956 -16.975691,-13.67943"
     id="path20"
     inkscape:connector-curvature="0"
     style="fill:#c1c3c2" />
  <path
     d="m 261.452,291.16074 c -21.83766,-46.31232 -68.97404,-78.28595 -123.44458,-78.28595 -54.223324,0 -101.112488,31.644 -123.11496,77.46188 L -3.8137618,251.77054 C 27.253399,206.69432 79.169345,177.19288 138.00742,177.19288 c 58.83807,0 110.75401,29.58384 141.82117,74.66007 z"
     id="path22"
     inkscape:connector-curvature="0"
     style="fill:#e4e5e4" />
  <path
     d="m 311.76885,518.61752 c 7.8286,-20.68398 6.42769,-28.8422 -3.13144,-34.69304 -13.92666,-8.65266 -36.50597,14.91553 -39.14297,27.44128 -2.80182,13.67944 4.36753,26.04038 15.40997,27.93573 11.04244,1.97775 22.3321,-8.73507 26.86444,-20.68397"
     id="path24"
     inkscape:connector-curvature="0"
     style="fill:#a7a8a8" />
  <path
     d="m 308.97569,519.99502 c 2.30738,-12.60816 -4.77956,-24.30985 -15.822,-26.20519 -11.04244,-1.89535 -21.83766,6.75731 -24.14504,19.36547 -2.30737,12.60816 4.86197,24.30985 15.90441,26.20519 11.04244,1.89534 21.83766,-6.75731 24.06263,-19.36547"
     id="path26"
     inkscape:connector-curvature="0"
     style="fill:#bbbbbb" />
  <path
     d="m 286.12171,532.68047 c -7.82859,-1.3185 -12.85537,-9.64153 -11.28965,-18.54141 1.64812,-8.89987 9.3119,-14.99794 17.05809,-13.67944 7.8286,1.40091 12.85538,9.64154 11.20725,18.54141 -1.56571,8.89988 -9.2295,14.99794 -16.97569,13.67944 M -39.85925,430.94607 c 0,-2.30738 1.895344,-4.12031 4.120313,-4.12031 2.307375,0 4.120313,1.89534 4.120313,4.12031 0,2.30737 -1.895344,4.12031 -4.120313,4.12031 -2.307375,0.0824 -4.120313,-1.81294 -4.120313,-4.12031 m -16.627936,-78.65126 c 0,-2.30737 1.895344,-4.12031 4.120313,-4.12031 2.307376,0 4.120313,1.81294 4.120313,4.12031 0,2.30738 -1.895344,4.12032 -4.120313,4.12032 -2.224969,0.0824 -4.120313,-1.81294 -4.120313,-4.12032 m 4.134899,40.08406 c 0,-2.30738 1.895344,-4.12032 4.120313,-4.12032 2.307376,0 4.120314,1.81294 4.120314,4.12032 0,2.30737 -1.895345,4.12031 -4.120314,4.12031 -2.224969,0 -4.120313,-1.89534 -4.120313,-4.12031 M -39.85925,273.67479 c 0,2.30737 1.895344,4.12031 4.120313,4.12031 2.307375,0 4.120313,-1.89534 4.120313,-4.12031 0,-2.30738 -1.895344,-4.12032 -4.120313,-4.12032 -2.307375,-0.0824 -4.120313,1.81294 -4.120313,4.12032 m -12.493037,38.62406 c 0,2.30738 1.895344,4.12031 4.120313,4.12031 2.307376,0 4.120314,-1.89534 4.120314,-4.12031 0,-2.30738 -1.895345,-4.12031 -4.120314,-4.12031 -2.224969,0 -4.120313,1.81293 -4.120313,4.12031 M 315.90375,430.94607 c 0,-2.30738 -1.89534,-4.12031 -4.12031,-4.12031 -2.30738,0 -4.12032,1.89534 -4.12032,4.12031 0,2.30737 1.89535,4.12031 4.12032,4.12031 2.30737,0.0824 4.12031,-1.81294 4.12031,-4.12031 m 16.54413,-78.65126 c 0,-2.30737 -1.89535,-4.12031 -4.12032,-4.12031 -2.30737,0 -4.12031,1.81294 -4.12031,4.12031 0,2.30738 1.89535,4.12032 4.12031,4.12032 2.30738,0.0824 4.12032,-1.81294 4.12032,-4.12032 m -4.13779,40.08406 c 0,-2.30738 -1.89534,-4.12032 -4.12031,-4.12032 -2.30737,0 -4.12031,1.81294 -4.12031,4.12032 0,2.30737 1.89534,4.12031 4.12031,4.12031 2.30738,0 4.12031,-1.89534 4.12031,-4.12031 M 315.90375,273.67479 c 0,2.30737 -1.89534,4.12031 -4.12031,4.12031 -2.30738,0 -4.12032,-1.89534 -4.12032,-4.12031 0,-2.30738 1.89535,-4.12032 4.12032,-4.12032 2.30737,-0.0824 4.12031,1.81294 4.12031,4.12032 m 12.40634,38.62406 c 0,2.30738 -1.89534,4.12031 -4.12031,4.12031 -2.30737,0 -4.12031,-1.89534 -4.12031,-4.12031 0,-2.30738 1.89534,-4.12031 4.12031,-4.12031 2.30738,0 4.12031,1.81293 4.12031,4.12031"
     id="path28"
     inkscape:connector-curvature="0"
     style="fill:#c1c3c2" />
  <path
     d="m 183.6417,313.71805 v 11.7841 c 0,2.637 -2.14257,4.77956 -4.77957,4.77956 h -77.21466 c -2.637004,0 -4.779567,-2.14256 -4.779567,-4.77956 v -11.7841 c 0,-2.637 2.142563,-4.77956 4.779567,-4.77956 h 9.39431 c 2.38978,0 4.28513,-1.89535 4.28513,-4.28513 v -11.12484 c 0,-13.92666 10.71281,-25.95798 24.63947,-26.53482 14.83313,-0.65925 27.11166,11.12485 27.11166,25.87557 v 11.8665 c 0,2.38978 1.89534,4.28512 4.28512,4.28512 h 7.49897 c 2.637,-0.0824 4.77957,2.06016 4.77957,4.69716"
     id="path30"
     inkscape:connector-curvature="0"
     style="fill:#dedfde" />
  <path
     d="m 133.88727,323.45196 c -0.0824,0 -0.24722,0.24722 -0.32963,0.24722 -0.24722,0.0824 -0.49443,0.16481 -0.65925,0.24722 -0.24722,0 -0.49443,0.0824 -0.65925,0.0824 -0.32962,0 -0.65925,-0.0824 -0.82406,-0.24721 -0.24722,-0.16482 -0.24722,-0.0824 -0.41203,-0.32963 -0.16481,-0.24722 -0.41203,-0.57684 -0.41203,-0.82406 v -0.57685 c 0,-0.16481 0.0824,-0.24721 0.24722,-0.41203 0.16481,-0.16481 0.24722,-0.32962 0.49443,-0.49443 0.24722,-0.0824 0.41204,-0.16482 0.74166,-0.24722 0.16481,-0.0824 0.41203,-0.0824 0.82406,-0.16482 0.24722,0 0.65925,0 0.74166,-0.0824 0.16481,0 0.24722,0 0.41203,-0.0824 0.0824,-0.0824 0.24722,-0.0824 0.32963,-0.16481 0.0824,-0.0824 0.16481,-0.0824 0.32962,-0.24722 v 1.64813 c 0,0 0,0.74165 -0.24722,1.07128 -0.32962,0.41203 -0.57684,0.57684 -0.57684,0.57684 m -3.79069,-5.60362 c 0.41203,-0.16482 0.65925,-0.24722 0.90647,-0.41204 0.24722,-0.0824 0.49444,-0.16481 0.90647,-0.24721 0.32962,-0.0824 0.57684,-0.0824 0.98887,-0.0824 0.32963,0 0.74166,0.16481 1.07128,0.24722 0.24722,0.0824 0.49444,0.32962 0.57685,0.57684 0.16481,0.16481 0.24722,0.24722 0.24722,0.57685 v 0.24721 c 0,0.0824 -0.0824,0.16482 -0.16482,0.24722 -0.0824,0.0824 -0.16481,0.24722 -0.24721,0.24722 l -0.24722,0.24722 c -0.16482,0.0824 -0.24722,0.0824 -0.41203,0.16481 -0.16482,0.0824 -0.32963,0 -0.57685,0.0824 -0.74165,0.0824 -1.23609,0.16481 -1.56572,0.24722 -0.32962,0.0824 -0.49443,0.16481 -0.74165,0.24722 -0.24722,0.0824 -0.32963,0.24722 -0.57685,0.41203 -0.24722,0.16481 -0.24722,0.32962 -0.41203,0.49444 -0.0824,0.16481 -0.24722,0.32962 -0.24722,0.57684 0,0.24722 -0.0824,0.49444 -0.0824,0.74166 0,0.41203 0.0824,0.74165 0.24722,1.15368 0.16481,0.32963 0.49443,0.65925 0.90646,0.82407 0.41204,0.16481 0.90647,0.41203 1.56572,0.41203 h 0.65925 c 0.24722,0 0.41203,-0.0824 0.82407,-0.16481 0.16481,-0.16482 0.41203,-0.24722 0.65925,-0.49444 l 0.41203,-0.41203 v 0.90647 h 1.56572 c -0.16482,-0.65926 -0.24722,-0.74166 -0.16482,-1.15369 0,-0.74166 -0.0824,-2.47219 0,-3.37866 v -1.07128 c 0,-0.32963 -0.16481,-0.82406 -0.24722,-1.15369 -0.0824,-0.24722 -0.24721,-0.49444 -0.49443,-0.74165 -0.24722,-0.24722 -0.74166,-0.57685 -1.07128,-0.74166 -0.41204,-0.0824 -0.74166,-0.16481 -1.15369,-0.16481 -0.41203,0 -1.07128,0 -1.48331,0.0824 -0.41204,0.0824 -0.74166,0.16482 -1.40091,0.32963 -0.24722,0.57684 -0.24722,0.90647 -0.24722,1.15369 m 32.49122,5.52402 c -0.0824,0 -0.24721,0.24722 -0.41203,0.24722 -0.24722,0.0824 -0.41203,0.16481 -0.57684,0.24721 -0.24722,0 -0.49444,0.0824 -0.65925,0.0824 -0.32963,0 -0.65925,-0.0824 -0.90647,-0.24722 -0.24722,-0.16481 -0.24722,-0.0824 -0.41203,-0.32962 -0.16481,-0.24722 -0.41203,-0.57685 -0.41203,-0.82407 v -0.57684 c 0.0824,-0.16481 0.0824,-0.24722 0.24722,-0.41203 0.16481,-0.16481 0.24721,-0.32963 0.49443,-0.49444 0.16482,-0.0824 0.41203,-0.16481 0.74166,-0.24722 0.16481,-0.0824 0.41203,-0.0824 0.82406,-0.16481 0.16481,0 0.65925,0 0.74166,-0.0824 0.0824,0 0.24722,-0.0824 0.32962,-0.0824 0.16482,-0.0824 0.24722,-0.0824 0.32963,-0.16482 0.0824,-0.0824 0.16481,-0.0824 0.32962,-0.24721 v 1.64812 c 0,0 0,0.65925 -0.24721,1.07128 -0.16482,0.41203 -0.41204,0.57685 -0.41204,0.57685 m -3.79068,-5.60363 c 0.32962,-0.16481 0.65925,-0.24722 0.90646,-0.41203 0.24722,-0.0824 0.57685,-0.16481 0.90647,-0.24722 0.32963,-0.0824 0.65925,-0.0824 0.98888,-0.0824 0.32962,0 0.82406,0.16482 1.07128,0.24722 0.24722,0.0824 0.49444,0.32963 0.65925,0.57685 0.16481,0.16481 0.16481,0.32962 0.24722,0.65925 v 0.24722 c 0,0.0824 -0.0824,0.0824 -0.16481,0.16481 -0.0824,0.0824 -0.16482,0.24722 -0.24722,0.24722 -0.0824,0.0824 -0.16481,0.16481 -0.32963,0.24722 -0.0824,0.0824 -0.24722,0.0824 -0.41203,0.16481 -0.16481,0.0824 -0.32962,0 -0.57684,0.0824 -0.74166,0.0824 -1.3185,0.16482 -1.56572,0.24722 -0.32963,0.0824 -0.49444,0.16482 -0.74166,0.24722 -0.24722,0.0824 -0.32962,0.24722 -0.57684,0.41203 -0.24722,0.16482 -0.24722,0.24722 -0.41203,0.49444 -0.0824,0.16481 -0.16482,0.41203 -0.24722,0.57685 -0.0824,0.24721 -0.16481,0.49443 -0.16481,0.74165 0,0.41203 0.0824,0.74166 0.24721,1.15369 0.24722,0.32962 0.49444,0.65925 0.90647,0.82406 0.41203,0.16481 0.90647,0.41203 1.64813,0.41203 h 0.65925 c 0.24722,0 0.49444,-0.0824 0.82406,-0.16481 0.16481,-0.16481 0.49444,-0.24722 0.74166,-0.49444 l 0.41203,-0.41203 v 0.90647 h 1.56572 c -0.16481,-0.65925 -0.24722,-0.74166 -0.24722,-1.15369 v -4.44994 c 0,-0.32962 -0.16481,-0.82406 -0.24722,-1.15368 -0.0824,-0.24722 -0.24722,-0.49444 -0.49444,-0.74166 -0.16481,-0.24722 -0.65925,-0.57684 -1.07128,-0.74166 -0.41203,-0.0824 -0.65925,-0.16481 -1.15369,-0.16481 -0.41203,0 -1.07128,0.0824 -1.48331,0.0824 -0.49444,0.0824 -0.74166,0.16481 -1.40091,0.32962 -0.24721,0.49444 -0.24721,0.90647 -0.24721,1.15369 m -21.36136,6.92567 0.16482,-0.57684 v -1.64813 l -0.0824,-4.69716 c 0,-0.41203 -0.24722,-0.90646 -0.24722,-1.15368 0.24722,0 0.74166,-0.0824 0.98888,-0.16482 0.16481,-0.0824 0.41203,-0.0824 0.57684,-0.0824 v 1.07128 c 0.16481,-0.32963 0.49444,-0.32963 0.57684,-0.49444 0.0824,-0.16481 0.24722,-0.16481 0.49444,-0.32962 0.24722,-0.16482 0.32963,-0.16482 0.65925,-0.24722 0.32963,0 0.57685,-0.0824 0.90647,-0.0824 0.24722,0 0.41203,0 0.65925,0.0824 0.24722,0 0.41203,0.16481 0.57685,0.24722 0.16481,0.0824 0.32962,0.24722 0.49443,0.32962 0.16482,0.16481 0.24722,0.24722 0.41203,0.49444 0,0.0824 0.32963,-0.41203 0.82407,-0.65925 0.49443,-0.24722 0.98887,-0.49444 1.56572,-0.49444 0.32962,0 1.15368,0 1.48331,0.16481 0.32962,0.16482 0.82406,0.32963 1.07128,0.57685 0.24722,0.24722 0.24722,0.32962 0.49444,0.57684 0.24722,0.24722 0.32962,0.90647 0.32962,1.15369 v 5.10919 c 0,0.41203 0.0824,0.41203 0.16481,0.82406 h -1.64812 c 0.24722,-0.65925 0.16481,-0.49444 0.16481,-0.82406 v -4.69716 c 0,-0.32962 -0.0824,-0.74166 -0.16481,-0.90647 -0.0824,-0.16481 -0.41203,-0.49444 -0.49444,-0.65925 -0.16481,-0.16481 -0.32962,-0.16481 -0.57684,-0.24722 -0.16481,-0.0824 -0.49444,-0.0824 -0.74166,-0.0824 -0.16481,0 -0.49444,0 -0.65925,0.0824 -0.16481,0.0824 -0.32962,0.0824 -0.49444,0.24722 -0.16481,0.0824 -0.24721,0.16481 -0.41203,0.32963 -0.0824,0.16481 -0.24722,0.32962 -0.32962,0.49443 -0.0824,0.16482 -0.0824,0.49444 -0.0824,0.82407 v 4.77956 l 0.24722,0.74166 h -1.73053 c 0,-0.74166 0.0824,-0.0824 0.0824,-0.82407 v -4.86197 c 0,-0.24721 -0.0824,-0.41203 -0.0824,-0.57684 -0.0824,-0.16481 -0.16481,-0.49444 -0.32963,-0.57684 -0.16481,-0.16482 -0.49443,-0.49444 -0.65925,-0.49444 -0.16481,-0.0824 -0.49443,-0.16481 -0.74165,-0.16481 -0.24722,0 -0.41203,0 -0.65925,0.16481 -0.24722,0.0824 -0.41203,0.16481 -0.57685,0.32962 -0.16481,0.16482 -0.32962,0.24722 -0.49443,0.49444 -0.0824,0.24722 -0.24722,0.24722 -0.24722,0.65925 -0.0824,0.41203 -0.0824,2.14256 -0.0824,3.21385 v 1.81293 c 0,0.32963 0.16481,0.49444 0.16481,0.82407 h -0.82406 c 0,-0.0824 -0.41203,-0.0824 -0.74166,-0.0824 m 19.89807,-1.51117 c 0,0.0824 0,0.24722 -0.0824,0.49444 0,0.24722 -0.0824,0.49444 -0.16481,0.74166 -0.32963,0.0824 -0.74166,0.24722 -1.07128,0.24722 -0.32963,0 -1.2361,0.0824 -1.48332,0.0824 -0.49443,0 -1.15368,-0.0824 -1.64812,-0.24722 -0.49444,-0.16481 -1.07128,-0.49443 -1.40091,-0.90646 -0.32962,-0.32963 -0.74165,-0.74166 -0.98887,-1.3185 -0.16481,-0.57685 -0.32963,-1.07129 -0.32963,-1.64813 0,-0.82406 0.0824,-1.15369 0.32963,-1.89534 0.24722,-0.74166 0.82406,-1.3185 1.4009,-1.73054 0.57685,-0.41203 1.81294,-0.74165 2.80182,-0.74165 0.74165,0 1.56572,0.0824 2.22497,0.32962 0,0.49444 0.0824,0.74166 0.0824,1.07128 -0.49443,-0.16481 -0.98887,-0.41203 -1.23609,-0.49443 -0.32963,0 -0.74166,-0.0824 -0.90647,-0.0824 -0.49444,0 -1.40091,0.24722 -1.73053,0.41203 -0.32963,0.16481 -0.65925,0.41203 -0.90647,0.74166 -0.24722,0.32962 -0.41203,0.74165 -0.49444,1.23609 -0.0824,0.49444 -0.16481,0.49444 -0.0824,0.98888 0,0.65925 0.16481,1.15369 0.32962,1.64812 0.24722,0.49444 0.49444,0.90647 0.98888,1.15369 0.41203,0.24722 0.90646,0.49444 1.48331,0.49444 0.57684,0.16481 1.73053,0.0824 2.88422,-0.57685 m 8.54973,1.18847 -0.16481,-0.57685 c 0,-0.0824 -0.16482,-0.41203 -0.24722,-0.82406 0.90647,0.49444 1.89534,0.90647 2.637,0.90647 0.32962,0 0.74166,-0.16481 0.98887,-0.24722 0.24722,-0.0824 0.49444,-0.24722 0.65925,-0.49444 0.0824,-0.16481 0.24722,-0.41203 0.24722,-0.57684 0,-0.0824 0.0824,-0.24722 0,-0.41203 0,-0.0824 -0.0824,-0.41203 -0.16481,-0.49444 l -0.49444,-0.49444 c -0.16481,-0.0824 -0.49443,-0.32962 -1.07128,-0.49443 -0.49444,-0.24722 -1.15369,-0.41204 -1.4009,-0.65925 -0.24722,-0.16482 -0.65925,-0.41204 -0.82407,-0.65925 -0.16481,-0.24722 -0.24722,-0.41204 -0.41203,-0.65925 -0.0824,-0.24722 0,-0.49444 0,-0.74166 0,-0.32963 0.24722,-0.74166 0.41203,-0.98888 0.24722,-0.32962 0.57685,-0.49443 0.98888,-0.74165 0.41203,-0.16482 0.90647,-0.24722 1.48331,-0.24722 0.65925,0 1.23609,0.16481 1.97775,0.24722 0,0.41203 -0.0824,0.74165 0,1.07128 -0.49444,-0.32963 -1.15369,-0.57685 -1.73053,-0.57685 -0.32963,0 -0.65925,0.0824 -0.90647,0.16482 -0.24722,0.0824 -0.57684,0.32962 -0.74166,0.49444 -0.0824,0.16481 -0.16481,0.32962 -0.16481,0.49443 0,0.16482 0,0.32963 0.0824,0.49444 0,0.0824 0.32962,0.49444 0.49444,0.49444 0.24721,0.0824 0.16481,0.0824 0.32962,0.16481 0.24722,0 0.82406,0.32963 1.40091,0.57684 0.57684,0.24722 1.15368,0.65925 1.3185,0.82407 0.16481,0.16481 0.41203,0.41203 0.49443,0.82406 0.0824,0.24722 0.16482,0.49444 0.16482,0.65925 0,0.32962 -0.0824,0.32962 -0.0824,0.57684 0,0.41203 -0.0824,0.49444 -0.24722,0.82407 -0.24722,0.32962 -0.57684,0.65925 -1.07128,0.82406 -0.49444,0.16481 -0.90647,0.32962 -1.48331,0.32962 h -1.07128 c -0.32963,0 -0.57685,-0.16481 -0.82407,-0.16481 -0.0824,0.24722 -0.24721,0.24722 -0.57684,0.0824 m 10.25645,-0.67384 c -0.0824,0.24722 -0.16481,0.41203 -0.16481,0.90647 -0.32963,0.0824 -0.49444,0.16481 -0.74166,0.16481 h -0.57684 c -0.49444,0 -0.82407,0 -1.07129,-0.16481 -0.24721,-0.16481 -0.49443,-0.32962 -0.65925,-0.57684 -0.16481,-0.24722 -0.24721,-0.98888 -0.24721,-1.48332 v -5.19159 h -0.98888 v -0.74166 h 0.98888 v -1.4009 c 0,-0.24722 -0.16482,-0.49444 -0.24722,-0.65925 0.49443,-0.0824 1.15368,-0.32963 1.48331,-0.41204 0,0.82407 0.0824,1.97776 0.0824,2.47219 h 2.14256 v 0.82407 l -0.57685,-0.0824 h -1.56571 v 5.02678 c 0,0.41203 0.0824,0.90647 0.16481,1.15369 0.0824,0.24722 0.24722,0.24722 0.41203,0.41203 0.16481,0.0824 0.32962,0.0824 0.49444,0.0824 h 0.41203 c 0.16481,-0.16482 0.24722,-0.24722 0.65925,-0.32963 m -47.81475,-0.46345 c 0,0.32962 -0.16482,0.65925 -0.16482,1.15369 -0.49443,0.16481 -1.23609,0.41203 -1.64812,0.49443 h -1.07128 c -0.65925,0 -1.2361,-0.16481 -1.81294,-0.32962 -0.49444,-0.16481 -0.98887,-0.49444 -1.40091,-0.90647 -0.41203,-0.41203 -0.74165,-0.90647 -0.90646,-1.40091 -0.16482,-0.57684 -0.24722,-1.07128 -0.24722,-1.64812 0,-0.82406 0.0824,-1.15369 0.32962,-1.89535 0.24722,-0.74165 0.82406,-1.23609 1.40091,-1.64812 0.57684,-0.41203 1.23609,-0.57684 2.14256,-0.57684 0.49444,0 0.98888,0 1.40091,0.16481 0.41203,0.16481 0.74165,0.32962 1.07128,0.57684 0.24722,0.32963 0.49444,0.65925 0.74165,1.07128 0.16482,0.49444 0.24722,0.49444 0.24722,0.98888 0.0824,0.24722 0.0824,0.65925 0.0824,0.82406 h -6.01566 v 0.57684 c 0,0.57685 0.0824,1.15369 0.32963,1.64813 0.24722,0.49444 0.57684,0.82406 0.98887,1.07128 0.49444,0.24722 0.98888,0.49444 1.56572,0.49444 0.82406,0.0824 1.97775,-0.16481 2.96663,-0.65925 m -5.52122,-3.9555 h 4.36753 v -0.49444 c 0,-0.16481 -0.0824,-0.32962 -0.24722,-0.57684 -0.0824,-0.24722 -0.24722,-0.32963 -0.49444,-0.49444 -0.16481,-0.16481 -0.32962,-0.24722 -0.57684,-0.41203 -0.24722,-0.0824 -0.57684,-0.0824 -0.82406,-0.0824 -0.24722,0 -0.49444,0.0824 -0.74166,0.16481 -0.24722,0.0824 -0.49444,0.24722 -0.65925,0.41204 -0.24722,0.16481 -0.32962,0.32962 -0.49444,0.49443 -0.16481,0.24722 -0.24722,0.41203 -0.24722,0.65925 v 0.0824 c -0.0824,0 -0.0824,0 -0.0824,0.24722 m -6.77437,5.65859 c 0,-0.16481 0.16481,-0.41203 0.16481,-0.49444 0,-2.637 0,-4.69716 -0.0824,-6.34528 v -0.74166 l -0.24722,-0.57684 c 0.24722,0 0.57685,-0.0824 0.74166,-0.0824 0.16481,0 0.65925,-0.0824 0.82406,-0.0824 v 1.48331 c 0.16482,-0.32963 0.24722,-0.32963 0.32963,-0.49444 0.0824,-0.16481 0.32962,-0.41203 0.49444,-0.49444 0.16481,-0.0824 0.32962,-0.24721 0.57684,-0.32962 0.24722,-0.0824 0.41203,-0.16481 0.65925,-0.16481 h 0.90647 c 0.49444,0.0824 0.74165,0.16481 0.90647,0.24722 0,0.24721 -0.32963,1.15368 -0.32963,1.15368 0,0 -0.41203,0 -0.74165,-0.16481 -0.32963,-0.0824 -0.49444,-0.0824 -0.74166,-0.0824 -0.24722,0 -0.65925,0.0824 -0.90647,0.16482 -0.24722,0.0824 -0.49444,0.24722 -0.65925,0.49443 -0.16481,0.24722 -0.24722,0.49444 -0.41203,0.74166 -0.0824,0.24722 -0.0824,0 -0.0824,0.41203 v 5.02678 l 0.16482,0.49444 h -0.82407 c -0.0824,-0.24722 -0.49443,-0.16481 -0.74165,-0.16481 m -12.37792,0.0569 0.24722,-0.82406 v -9.97116 c 0,-0.32963 -0.16481,-0.57685 -0.32963,-1.15369 h 5.27401 c 0.90646,0.0824 1.15368,0.0824 1.73053,0.24722 0.49443,0.0824 1.3185,0.57684 1.73053,0.90647 0.41203,0.24722 0.82406,0.57684 1.15369,1.07128 0.32962,0.49444 0.49443,0.57684 0.65925,1.15369 0.24722,0.74165 0.49443,1.48331 0.49443,2.22497 0.0824,0.98887 0,1.73053 -0.32962,2.637 -0.32963,0.90647 -0.90647,1.56572 -1.56572,2.14256 -0.57684,0.65925 -1.23609,0.98888 -2.06016,1.15369 -0.74165,0.16481 -1.64812,0.32962 -2.637,0.32962 h -2.30737 l -2.06016,0.0824 z m 2.06016,-0.98888 h 1.81294 c 0.49443,0 0.98887,0 1.48331,-0.0824 0.49444,-0.0824 0.90647,-0.24722 1.23609,-0.41203 0.41203,-0.16482 0.74166,-0.32963 1.15369,-0.74166 0.41203,-0.32963 0.65925,-0.74166 0.90647,-1.15369 0.24722,-0.49444 0.41203,-0.90647 0.49444,-1.48331 0.0824,-0.57684 0.16481,-1.15369 0.16481,-1.64813 0,-0.65925 -0.24722,-1.15368 -0.41203,-1.64812 -0.16482,-0.57684 -0.49444,-1.23609 -0.90647,-1.64813 -0.49444,-0.41203 -0.82406,-0.65925 -1.40091,-0.82406 -0.49444,-0.16481 -1.23609,-0.32962 -2.06015,-0.32962 -0.49444,0 -1.2361,0 -1.48332,0.0824 -0.32962,0 -0.65925,0.0824 -1.07128,0.0824 l 0.0824,9.80634 z"
     id="path32"
     inkscape:connector-curvature="0" />
  <path
     d="m 141.58492,296.01175 c 0,-1.40091 -0.65925,-1.2361 -1.15369,-1.3185 -0.49444,-0.0824 -1.64812,0.16481 -2.7194,-0.0824 -1.2361,-0.24722 -1.89535,-1.97775 -1.73054,-2.80181 0.65925,-2.38978 2.22497,-2.71941 3.29625,-2.637 0.82407,0 2.38979,0.0824 4.36754,1.81293 0.90647,0.74166 1.4009,2.80182 1.4009,3.95551 0,1.4009 0,3.04903 -0.90647,3.9555 -1.4009,1.48331 -4.94437,2.7194 -7.00453,2.637 -7.99341,-0.82407 -7.66378,-8.32304 -7.66378,-8.32304 0,0 -0.65925,-3.21384 2.06016,-6.6749 0.24721,-0.24722 0.57684,-0.90647 0.82406,-1.2361 0.24722,-0.32962 0.49444,-0.41203 0.82406,-0.65925 0.32963,-0.24722 0.65925,-0.41203 0.98888,-0.65925 0.90646,-0.49444 1.81293,-0.98887 2.7194,-1.3185 1.40091,-0.41203 2.71941,-0.49444 3.79069,-0.49444 3.29625,0.0824 6.83972,1.89535 8.65266,4.69716 0.24722,0.41203 0.49444,0.65925 0.74165,0.98888 0.49444,0.32962 0.74166,0.98887 1.07129,1.81293 0.41203,1.15369 0.24721,0.74166 0.74165,2.5546 0.32963,1.3185 0.49444,2.14256 0.49444,2.96662 0,0.41204 0.0824,0.82407 0.0824,1.2361 0,1.4009 0.24722,1.81294 -0.0824,2.88422 -0.49444,1.89534 -1.64813,3.79069 -2.637,4.69715 -1.73053,1.73054 -3.37866,2.22497 -4.28513,2.71941 -0.90646,0.49444 -1.3185,0.57684 -2.55459,0.98888 -1.23609,0.49443 -1.89534,0.49443 -4.03791,0.49443 -2.14256,0 -3.87309,-0.16481 -4.44994,-0.24722 -3.79068,-1.07128 -5.19159,-1.73053 -6.83972,-3.13143 -4.28512,-3.37866 -5.19159,-9.97116 -5.19159,-9.97116 0,0 -0.49444,-3.37866 0.24722,-6.83972 0.41203,-1.89534 2.30737,-5.274 3.37866,-6.5925 0.90646,-1.15369 3.04903,-2.80181 4.28512,-3.62588 1.2361,-0.82406 3.04903,-1.89534 5.10919,-2.47219 0.98888,-0.32962 1.81294,-0.49443 4.12031,-0.57684 2.637,-0.0824 6.5925,0.57684 8.89988,1.3185 2.38978,0.74166 4.61475,2.30738 5.76844,3.54347 1.15369,1.23609 3.70828,5.02678 4.12031,5.76844 0.49444,0.74166 1.64813,4.86197 1.81294,5.43881 0.0824,0.49444 0.32962,2.38978 2.14256,2.30738 1.64813,-0.16481 1.15369,-2.06016 1.15369,-2.38978 -0.0824,-0.32963 -0.65925,-3.54347 -0.90647,-4.44994 -0.24722,-0.90647 -1.56572,-3.21385 -1.89534,-3.62588 -0.16482,-0.24722 -1.3185,-2.22497 -2.47219,-3.70828 -0.90647,-1.15369 -1.73053,-2.22497 -2.637,-2.80181 -1.81294,-1.15369 -4.03791,-2.14257 -4.03791,-2.14257 0,0 -3.87309,-1.3185 -5.93325,-1.56571 -1.73053,-0.24722 -3.62588,-0.57685 -6.75731,-0.41204 -3.13144,0.24722 -4.86197,1.07129 -6.01566,1.48332 -1.15369,0.49443 -3.70828,1.64812 -5.68603,3.21384 -1.89535,1.56572 -1.3185,0.82406 -2.38978,1.97775 -0.98888,1.15369 -1.3185,1.48331 -2.06016,2.47219 -0.74166,0.98887 -2.22497,3.9555 -2.80181,5.93325 -0.24722,0.82406 -0.57685,2.06016 -0.74166,3.21384 -0.16481,0.98888 -0.16481,1.97776 -0.0824,2.80182 0.16482,1.73053 0.0824,1.73053 0.0824,1.73053 0,0 0.82406,3.29625 1.23609,4.69716 0.49444,1.3185 1.07129,3.21384 3.79069,6.26287 2.71941,2.96663 5.1916,3.79069 6.18047,4.20272 0.90647,0.32963 4.12031,1.48331 8.32303,1.56572 4.86197,0.0824 6.18047,-0.98887 7.00454,-1.3185 0.90647,-0.41203 3.87309,-1.64812 6.26287,-3.87309 2.38978,-2.22497 3.13144,-4.69716 3.21385,-4.86197 0.65925,-1.89535 0.90647,-4.94438 0.24722,-7.8286 -0.41204,-1.97775 -0.74166,-3.70828 -1.15369,-4.94437 -0.74166,-2.14257 -1.56572,-3.29625 -2.14256,-4.20272 -0.57685,-0.90647 -2.30738,-2.22497 -3.37866,-2.88422 -0.49444,-0.32963 -0.98888,-0.65925 -1.73053,-0.98888 -0.74166,-0.32962 -1.64813,-0.49444 -2.71941,-0.74165 -0.98888,-0.24722 -2.38978,-0.49444 -3.46106,-0.57685 -0.98888,-0.0824 -1.81294,0 -2.14257,0 -0.49443,0 -2.14256,0.24722 -4.44993,1.48331 -1.2361,0.65925 -2.637,1.48332 -4.12032,2.96663 -0.49443,0.49444 -0.90647,1.07128 -1.23609,1.56572 -3.29625,4.53234 -2.14256,9.64153 -2.14256,9.64153 0,0 0.57684,6.83972 6.5925,8.81747 2.14256,0.65925 4.0379,0.74166 5.60362,0.49444 2.637,-0.32963 4.53235,-1.40091 5.85085,-2.14256 1.3185,-0.65925 2.30737,-1.81294 2.80181,-3.04904 0.49444,-1.15368 0.65925,-2.30737 0.57684,-3.29625 0,-0.57684 0,-1.3185 -0.16481,-2.14256 -0.16481,-2.14256 -0.82406,-4.03791 -2.55459,-5.52122 l -0.49444,-0.32962 c -0.32962,-0.24722 -0.57684,-0.32963 -0.82406,-0.49444 -1.48332,-0.74166 -2.88422,-1.07128 -4.94438,-1.15369 -0.74165,0 -1.81294,0.16481 -2.38978,0.49444 -2.38978,1.15369 -3.70828,3.29625 -3.54347,6.01566 0.0824,2.55459 2.55459,3.9555 2.96663,4.36753 -0.0824,0 5.274,1.3185 5.43881,-1.07128"
     id="path34"
     inkscape:connector-curvature="0"
     style="fill:#cf3311" />
  <path
     d="m 121.40478,518.82617 h 33.20972 l 17.30532,-37.41245 c -10.87763,2.80182 -22.16729,4.20272 -33.86898,4.20272 -11.70168,0 -23.07375,-1.48331 -33.86897,-4.20272 l 17.22291,37.41245"
     id="path36"
     inkscape:connector-curvature="0"
     style="fill:#c1c3c2" />
  <path
     d="m -25.363988,516.39749 c 0.164812,0.0824 0.329625,0.0824 0.576843,0.0824 0.906469,0 1.483313,-0.41203 1.483313,-1.2361 0,-0.74165 -0.576844,-1.15368 -1.400906,-1.15368 -0.329625,0 -0.576844,0 -0.741657,0.0824 v 2.22497 z m -0.741657,-2.80181 c 0.329625,-0.0824 0.824063,-0.0824 1.400907,-0.0824 0.741656,0 1.236094,0.16481 1.648125,0.49444 0.329625,0.24722 0.494437,0.65925 0.494437,1.23609 0,0.49444 -0.164812,0.90647 -0.412031,1.2361 -0.412031,0.41203 -1.071281,0.65925 -1.730531,0.65925 -0.247219,0 -0.412032,0 -0.576844,-0.0824 v 2.30738 h -0.824063 v -5.76844 z m 4.981376,2.82892 c 0,1.2361 0.65925,2.30738 1.812938,2.30738 1.153688,0 1.812938,-1.07128 1.812938,-2.38978 0,-1.15369 -0.576844,-2.38979 -1.812938,-2.38979 -1.153688,0.0824 -1.812938,1.2361 -1.812938,2.47219 m 4.532345,-0.0824 c 0,1.97775 -1.236094,3.04903 -2.719407,3.04903 -1.565719,0 -2.637,-1.15369 -2.637,-2.96663 0,-1.81294 1.153687,-3.04903 2.719406,-3.04903 1.565719,0.0824 2.637001,1.23609 2.637001,2.96663 m 1.90342,2.99126 -1.483313,-5.76844 h 0.824063 l 0.65925,2.88422 c 0.164812,0.74166 0.329625,1.40091 0.412031,1.97775 0.08241,-0.57684 0.247219,-1.23609 0.494438,-1.97775 l 0.741656,-2.88422 h 0.741656 l 0.741657,2.96663 c 0.164812,0.65925 0.329625,1.4009 0.412031,1.97775 0.08241,-0.65925 0.247219,-1.2361 0.494438,-1.97775 l 0.7416559,-2.88422 h 0.7416564 l -1.6481253,5.76844 h -0.741656 l -0.741657,-3.04903 c -0.164812,-0.74166 -0.329625,-1.3185 -0.412031,-1.89535 -0.08241,0.57685 -0.247219,1.15369 -0.412031,1.89535 l -0.824063,3.04903 h -0.741656 z m 9.2556239,-2.77717 h -2.2249691 v 2.06015 h 2.4721879 v 0.65925 h -3.2138443 v -5.76843 h 3.131438 v 0.65925 h -2.3897816 v 1.81293 h 2.2249691 z m 1.9905233,-0.28884 h 0.7416563 c 0.8240627,0 1.3185003,-0.41203 1.3185003,-1.07128 0,-0.74165 -0.5768439,-1.07128 -1.3185003,-1.07128 -0.329625,0 -0.5768438,0 -0.7416563,0.0824 v 2.06015 z m -0.7416564,-2.637 c 0.4120313,-0.0824 0.9064689,-0.0824 1.4009065,-0.0824 0.8240626,0 1.3185002,0.16481 1.6481252,0.49443 0.3296251,0.24722 0.49443762,0.65925 0.49443762,1.07129 0,0.74165 -0.49443762,1.23609 -1.07128142,1.48331 0.4120313,0.16481 0.7416564,0.57684 0.82406263,1.15369 0.16481253,0.82406 0.32962505,1.4009 0.4120313,1.56572 H -1.2173877 c -0.082406,-0.16482 -0.2472188,-0.65925 -0.4120313,-1.40091 -0.1648126,-0.82406 -0.4944376,-1.07128 -1.1536877,-1.15369 h -0.7416564 v 2.47219 H -4.2664194 Z M 279.6014,516.42188 c 0,1.3185 0.74166,2.5546 2.06016,2.5546 1.3185,0 2.06015,-1.2361 2.06015,-2.637 0,-1.2361 -0.65925,-2.5546 -2.06015,-2.5546 -1.40091,0 -2.06016,1.2361 -2.06016,2.637 m 4.94438,-0.0824 c 0,2.22497 -1.3185,3.37865 -2.96663,3.37865 -1.64812,0 -2.88422,-1.3185 -2.88422,-3.21384 0,-1.97775 1.2361,-3.29625 2.96663,-3.29625 1.73053,-0.0824 2.88422,1.23609 2.88422,3.13144 m 1.82422,0.0607 c 0.16482,0.0824 0.41204,0.0824 0.65925,0.0824 0.98888,0 1.56572,-0.49444 1.56572,-1.3185 0,-0.82407 -0.57684,-1.2361 -1.48331,-1.2361 -0.32962,0 -0.65925,0 -0.74166,0.0824 v 2.38978 z m -0.74165,-3.04903 c 0.41203,-0.0824 0.90647,-0.16481 1.56572,-0.16481 0.82406,0 1.4009,0.16481 1.81293,0.49443 0.32963,0.32963 0.57685,0.74166 0.57685,1.3185 0,0.57685 -0.16481,0.98888 -0.49444,1.3185 -0.41203,0.49444 -1.15369,0.65925 -1.97775,0.65925 -0.24722,0 -0.49444,0 -0.65925,-0.0824 v 2.55459 h -0.82406 z m 8.28924,3.27334 h -2.47218 v 2.30738 h 2.7194 v 0.65925 h -3.54347 v -6.34529 h 3.46107 v 0.65925 h -2.637 v 1.97775 h 2.47218 z m 1.32732,2.97544 v -6.34528 h 0.90647 l 2.06016,3.21384 c 0.49443,0.74166 0.82406,1.40091 1.15368,2.06016 -0.0824,-0.82406 -0.0824,-1.64812 -0.0824,-2.637 v -2.637 h 0.74165 v 6.34528 h -0.82406 l -1.97775,-3.21384 c -0.41203,-0.74166 -0.90647,-1.40091 -1.15369,-2.14256 0.0824,0.82406 0.0824,1.56571 0.0824,2.637 v 2.7194 h -0.90647 z"
     id="path38"
     inkscape:connector-curvature="0"
     style="fill:#8c8c8c" />
</svg>
