<?xml version="1.0" encoding="UTF-8" standalone="no"?>
<svg
   xmlns:dc="http://purl.org/dc/elements/1.1/"
   xmlns:cc="http://creativecommons.org/ns#"
   xmlns:rdf="http://www.w3.org/1999/02/22-rdf-syntax-ns#"
   xmlns:svg="http://www.w3.org/2000/svg"
   xmlns="http://www.w3.org/2000/svg"
   xmlns:sodipodi="http://sodipodi.sourceforge.net/DTD/sodipodi-0.dtd"
   xmlns:inkscape="http://www.inkscape.org/namespaces/inkscape"
   viewBox="-261 285 157.82805 400"
   version="1.1"
   id="svg18"
   sodipodi:docname="controller.svg"
   width="157.82805"
   height="400"
   inkscape:version="0.92.4 5da689c313, 2019-01-14">
  <metadata
     id="metadata24">
    <rdf:RDF>
      <cc:Work
         rdf:about="">
        <dc:format>image/svg+xml</dc:format>
        <dc:type
           rdf:resource="http://purl.org/dc/dcmitype/StillImage" />
      </cc:Work>
    </rdf:RDF>
  </metadata>
  <defs
     id="defs22" />
  <sodipodi:namedview
     pagecolor="#ffffff"
     bordercolor="#666666"
     borderopacity="1"
     objecttolerance="10"
     gridtolerance="10"
     guidetolerance="10"
     inkscape:pageopacity="0"
     inkscape:pageshadow="2"
     inkscape:window-width="640"
     inkscape:window-height="480"
     id="namedview20"
     showgrid="false"
     inkscape:zoom="0.59"
     inkscape:cx="78.914024"
     inkscape:cy="200"
     inkscape:window-x="0"
     inkscape:window-y="0"
     inkscape:window-maximized="0"
     inkscape:current-layer="svg18">
    <inkscape:grid
       type="xygrid"
       id="grid834"
       originx="0"
       originy="0" />
  </sodipodi:namedview>
  <path
     d="m -176.29412,434.50226 h -10.85973 v -90.49774 c 0,-33.30316 -16.83258,-48.14479 -54.66063,-48.14479 V 285 c 43.43891,0 65.52036,19.9095 65.52036,59.00452 z"
     id="path2"
     inkscape:connector-curvature="0"
     style="fill:#60605d" />
  <path
     d="m -164.34842,424.36652 h -15.56561 v -2.89593 h 14.29865 l -1.26697,-3.61991 h -13.03168 v -2.89593 h 11.76471 l -1.62896,-4.34389 h -10.13575 v -2.89593 h 8.86878 l -1.62896,-4.34389 h -18.09955 l -1.62895,4.34389 h 9.59276 v 2.89593 h -10.67874 l -1.62896,4.34389 h 12.3077 v 2.89593 h -13.21267 l -1.44797,3.61991 h 14.66064 v 2.89593 h -15.74661 l -2.35294,6.51583 h 39.09502"
     id="path4"
     inkscape:connector-curvature="0"
     style="fill:#868580" />
  <path
     d="m -247.96833,428.71041 h 131.76471 c 7.23982,0 13.03167,5.79185 13.03167,13.03167 v 230.22625 c 0,7.23981 -5.79185,13.03167 -13.03167,13.03167 H -247.96833 C -255.20814,685 -261,679.20814 -261,671.96833 V 441.74208 c 0,-7.23982 5.79186,-13.03167 13.03167,-13.03167 z"
     id="path6"
     inkscape:connector-curvature="0"
     style="fill:#c9c9c9" />
  <path
     d="m -226.97285,475.76923 h 91.22172 c 2.35294,0 4.34389,1.99095 4.34389,4.34389 v 127.42082 c 0,2.35294 -1.99095,4.34389 -4.34389,4.34389 h -91.22172 c -2.35294,0 -4.34389,-1.99095 -4.34389,-4.34389 V 480.11312 c 0,-2.53393 1.99095,-4.34389 4.34389,-4.34389 z"
     id="path8"
     inkscape:connector-curvature="0"
     style="fill:#dcdbdb" />
  <path
     d="m -226.97285,450.61086 h 28.95928 c 2.35294,0 4.34389,1.99095 4.34389,4.34389 v 57.91855 c 0,2.35294 -1.99095,4.34389 -4.34389,4.34389 h -28.95928 c -2.35294,0 -4.34389,-1.99095 -4.34389,-4.34389 v -57.91855 c 0,-2.35294 1.99095,-4.34389 4.34389,-4.34389 z"
     id="path10"
     inkscape:connector-curvature="0"
     style="fill:#60605d" />
  <path
     d="m -226.97285,446.80995 h 28.95928 c 2.35294,0 4.34389,1.99095 4.34389,4.3439 v 57.91855 c 0,2.35294 -1.99095,4.34389 -4.34389,4.34389 h -28.95928 c -2.35294,0 -4.34389,-1.99095 -4.34389,-4.34389 v -57.91855 c 0,-2.53394 1.99095,-4.3439 4.34389,-4.3439 z"
     id="path12"
     inkscape:connector-curvature="0"
     style="fill:#868580" />
  <path
     d="m -164.71041,450.61086 h 28.95928 c 2.35294,0 4.34389,1.99095 4.34389,4.34389 v 57.91855 c 0,2.35294 -1.99095,4.34389 -4.34389,4.34389 h -28.95928 c -2.35294,0 -4.34389,-1.99095 -4.34389,-4.34389 v -57.91855 c 0,-2.35294 1.99095,-4.34389 4.34389,-4.34389 z"
     id="path14"
     inkscape:connector-curvature="0"
     style="fill:#60605d" />
  <path
     d="m -164.71041,446.80995 h 28.95928 c 2.35294,0 4.34389,1.99095 4.34389,4.3439 v 57.91855 c 0,2.35294 -1.99095,4.34389 -4.34389,4.34389 h -28.95928 c -2.35294,0 -4.34389,-1.99095 -4.34389,-4.34389 v -57.91855 c 0,-2.53394 1.99095,-4.3439 4.34389,-4.3439 z"
     id="path16"
     inkscape:connector-curvature="0"
     style="fill:#868580" />
</svg>
