<?xml version="1.0" encoding="UTF-8" standalone="no"?>
<svg
   xmlns:dc="http://purl.org/dc/elements/1.1/"
   xmlns:cc="http://creativecommons.org/ns#"
   xmlns:rdf="http://www.w3.org/1999/02/22-rdf-syntax-ns#"
   xmlns:svg="http://www.w3.org/2000/svg"
   xmlns="http://www.w3.org/2000/svg"
   xmlns:sodipodi="http://sodipodi.sourceforge.net/DTD/sodipodi-0.dtd"
   xmlns:inkscape="http://www.inkscape.org/namespaces/inkscape"
   viewBox="-54.3 345.6 403 87.302905"
   version="1.1"
   id="svg40"
   sodipodi:docname="logo.svg"
   width="403"
   height="87.302902"
   inkscape:version="0.92.4 5da689c313, 2019-01-14">
  <metadata
     id="metadata46">
    <rdf:RDF>
      <cc:Work
         rdf:about="">
        <dc:format>image/svg+xml</dc:format>
        <dc:type
           rdf:resource="http://purl.org/dc/dcmitype/StillImage" />
      </cc:Work>
    </rdf:RDF>
  </metadata>
  <defs
     id="defs44" />
  <sodipodi:namedview
     pagecolor="#ffffff"
     bordercolor="#666666"
     borderopacity="1"
     objecttolerance="10"
     gridtolerance="10"
     guidetolerance="10"
     inkscape:pageopacity="0"
     inkscape:pageshadow="2"
     inkscape:window-width="640"
     inkscape:window-height="480"
     id="namedview42"
     showgrid="false"
     inkscape:zoom="0.6775"
     inkscape:cx="200"
     inkscape:cy="43.651459"
     inkscape:window-x="0"
     inkscape:window-y="0"
     inkscape:window-maximized="0"
     inkscape:current-layer="svg40">
    <inkscape:grid
       type="xygrid"
       id="grid853"
       originx="-1e-06"
       originy="7.7783206e-06" />
  </sodipodi:namedview>
  <path
     d="M -10.648548,345.6 C -34.797925,345.6 -54.3,365.18506 -54.3,389.25145 c 0,24.14938 19.585062,43.65145 43.651452,43.65145 4.647303,0 9.1286308,-0.74689 13.2780084,-2.07469 v -21.82572 c -3.6514523,2.07468 -7.8838174,3.3195 -12.3651452,3.3195 -13.2780082,0 -23.9834022,-10.37345 -23.9834022,-23.07054 0,-12.6971 10.788382,-23.07054 23.9834022,-23.07054 4.5643153,0 8.7966804,1.24481 12.3651452,3.3195 V 347.67468 C -1.5199172,346.34688 -6.001245,345.6 -10.648548,345.6 Z M 3.0443981,372.65394 H 35.575519 L 20.96971,387.84066 H 3.0443981"
     id="path2"
     inkscape:connector-curvature="0"
     style="fill:#002255" />
  <path
     d="M 3.0443981,406.01493 H 35.575519 L 20.96971,390.9112 H 3.0443981"
     id="path4"
     inkscape:connector-curvature="0"
     style="fill:#ff0000" />
  <path
     d="m 90.596266,384.02323 c 4.149377,0 7.468879,-1.16182 10.124484,-3.3195 2.6556,-2.24066 3.9834,-5.3112 4.06639,-9.37759 -0.083,-4.06639 -1.41079,-7.21992 -4.06639,-9.46058 -2.655605,-2.24067 -5.975107,-3.31951 -10.124484,-3.31951 -4.149378,0 -7.46888,1.16183 -10.124482,3.31951 -2.655601,2.15767 -3.983402,5.39419 -4.06639,9.46058 0.08299,4.06639 1.410789,7.21991 4.06639,9.37759 2.655602,2.15768 5.975104,3.3195 10.124482,3.3195 z m 0,-5.89211 c -1.908714,-0.083 -3.319503,-0.74689 -4.232366,-2.07469 -0.912863,-1.3278 -1.3278,-2.90457 -1.244813,-4.81328 0,-1.90871 0.414938,-3.48548 1.244813,-4.81328 0.829876,-1.3278 2.240664,-1.9917 4.232366,-2.07469 1.908713,0.083 3.319502,0.74689 4.232365,2.07469 0.912863,1.3278 1.327801,2.90457 1.244813,4.81328 0,1.82573 -0.414938,3.48548 -1.244813,4.81328 -0.912863,1.3278 -2.323652,1.9917 -4.232365,2.07469 z m 17.593364,5.3112 h 8.46473 v -10.29046 c 0,-2.57261 0.41493,-4.56431 1.24481,-5.80913 0.82988,-1.24481 1.9917,-1.82572 3.48548,-1.82572 1.16182,0 2.07469,0.49792 2.57261,1.41079 0.49793,0.91286 0.82988,2.07469 0.82988,3.48547 v 13.11204 h 8.46473 v -10.29046 c 0,-2.57261 0.41493,-4.56432 1.24481,-5.80913 0.82988,-1.24481 1.9917,-1.82572 3.48548,-1.82572 1.16182,0 2.07469,0.49792 2.57261,1.41078 0.49793,0.91287 0.82988,2.07469 0.82988,3.48548 v 13.11203 h 8.46473 v -14.35684 c 0.083,-3.3195 -0.49793,-5.89212 -1.65975,-7.80083 -1.16183,-1.82573 -3.48548,-2.82158 -6.97096,-2.82158 -1.74274,0 -3.40249,0.33195 -4.89626,1.07884 -1.49378,0.74689 -2.73859,1.90871 -3.73444,3.56846 -0.6639,-1.57676 -1.65975,-2.73859 -2.98756,-3.56846 -1.3278,-0.74689 -2.90456,-1.16183 -4.6473,-1.16183 -1.90871,0 -3.73444,0.41494 -5.22821,1.24482 -1.57677,0.82987 -2.73859,2.07469 -3.65146,3.81742 h -0.083 v -4.48132 h -7.71785 l -0.083,24.31535 z m 46.22406,0 h 8.46473 v -10.29046 c 0,-2.57261 0.41494,-4.56431 1.24482,-5.80913 0.82987,-1.24481 1.9917,-1.82572 3.48547,-1.82572 1.16183,0 2.07469,0.49792 2.57262,1.41079 0.49792,0.91286 0.82987,2.07469 0.82987,3.48547 v 13.11204 h 8.46473 v -10.29046 c 0,-2.57261 0.41494,-4.56432 1.24482,-5.80913 0.82987,-1.24481 1.9917,-1.82572 3.48547,-1.82572 1.16183,0 2.07469,0.49792 2.57262,1.41078 0.49792,0.91287 0.82987,2.07469 0.82987,3.48548 v 13.11203 h 8.46473 v -14.35684 c 0.083,-3.3195 -0.49792,-5.89212 -1.65975,-7.80083 -1.16182,-1.82573 -3.48547,-2.82158 -6.97095,-2.82158 -1.74274,0 -3.40249,0.33195 -4.89627,1.07884 -1.49377,0.74689 -2.73859,1.90871 -3.73444,3.56846 -0.6639,-1.57676 -1.65975,-2.73859 -2.98755,-3.56846 -1.3278,-0.74689 -2.90456,-1.16183 -4.6473,-1.16183 -1.9917,0 -3.73444,0.41494 -5.22822,1.24482 -1.57676,0.82987 -2.73859,2.07469 -3.65145,3.81742 h -0.083 v -4.48132 h -7.71784 l -0.083,24.31535 z m 59.17013,0.58091 c 4.14938,0 7.46888,-1.16182 10.12448,-3.3195 2.6556,-2.24066 3.9834,-5.3112 4.06639,-9.37759 -0.083,-4.06639 -1.41079,-7.21992 -4.06639,-9.46058 -2.6556,-2.24067 -5.9751,-3.31951 -10.12448,-3.31951 -4.14938,0 -7.46888,1.16183 -10.12448,3.31951 -2.65561,2.15767 -3.98341,5.39419 -4.06639,9.46058 0.083,4.06639 1.41078,7.21991 4.06639,9.37759 2.6556,2.15768 6.05809,3.3195 10.12448,3.3195 z m 0,-5.89211 c -1.90872,-0.083 -3.3195,-0.74689 -4.23237,-2.07469 -0.91286,-1.3278 -1.3278,-2.90457 -1.24481,-4.81328 0,-1.90871 0.41494,-3.48548 1.24481,-4.81328 0.82988,-1.3278 2.24067,-1.9917 4.23237,-2.07469 1.90871,0.083 3.3195,0.74689 4.23236,2.07469 0.91287,1.3278 1.3278,2.90457 1.3278,4.81328 0,1.82573 -0.41493,3.48548 -1.3278,4.81328 -0.91286,1.3278 -2.24066,1.9917 -4.23236,2.07469 z m 43.90041,-29.79254 h -8.46473 v 13.85893 h -0.083 c -1.07883,-1.41079 -2.32365,-2.32366 -3.73444,-2.90457 -1.41078,-0.58091 -2.98755,-0.82987 -4.6473,-0.82987 -3.40249,0.16597 -5.9751,1.41078 -7.71784,3.90041 -1.74274,2.48963 -2.6556,5.3112 -2.6556,8.38174 0,3.73444 0.99585,6.80498 2.82157,9.29461 1.90872,2.48963 4.64731,3.81743 8.29876,3.90041 1.9917,0 3.73444,-0.49792 5.22822,-1.41078 1.49377,-0.91287 2.57261,-2.07469 3.15352,-3.48548 h 0.083 v 4.39834 h 7.80083 l -0.083,-35.10374 z m -18.75518,22.65561 c 0,-1.65975 0.41493,-3.07054 1.3278,-4.23237 0.91286,-1.16182 2.15767,-1.74274 3.81742,-1.82572 1.57677,0 2.82158,0.6639 3.73444,1.82572 0.91287,1.16183 1.41079,2.6556 1.41079,4.56432 0,1.82572 -0.58091,3.3195 -1.49377,4.48132 -0.99585,1.16183 -2.15768,1.74274 -3.65146,1.74274 -1.57676,0 -2.82157,-0.6639 -3.73444,-1.82572 -0.91286,-1.16183 -1.41078,-2.73859 -1.41078,-4.73029 z m 36.09958,13.02904 c 4.14938,0 7.46888,-1.16182 10.12448,-3.3195 2.6556,-2.24066 3.9834,-5.3112 4.06639,-9.37759 -0.083,-4.06639 -1.41079,-7.21992 -4.06639,-9.46058 -2.6556,-2.24067 -5.9751,-3.31951 -10.12448,-3.31951 -4.14938,0 -7.46888,1.16183 -10.12448,3.31951 -2.6556,2.24066 -3.9834,5.39419 -4.06639,9.46058 0.083,4.06639 1.41079,7.21991 4.06639,9.37759 2.6556,2.15768 6.05809,3.3195 10.12448,3.3195 z m 0,-5.89211 c -1.90871,-0.083 -3.3195,-0.74689 -4.23236,-2.07469 -0.82988,-1.3278 -1.32781,-2.90457 -1.24482,-4.81328 0,-1.90871 0.41494,-3.48548 1.24482,-4.81328 0.82987,-1.3278 2.24066,-1.9917 4.23236,-2.07469 1.90871,0.083 3.3195,0.74689 4.23237,2.07469 0.82987,1.3278 1.3278,2.90457 1.24481,4.81328 0,1.82573 -0.41494,3.48548 -1.24481,4.81328 -0.82988,1.3278 -2.24067,1.9917 -4.23237,2.07469 z m 35.51867,-19.3361 c -0.41493,-0.083 -0.91286,-0.16598 -1.41079,-0.16598 -0.49792,-0.083 -0.99585,-0.083 -1.49377,-0.083 -1.82573,0 -3.3195,0.49793 -4.39834,1.41079 -1.16183,0.91286 -2.07469,2.15768 -2.82158,3.65145 h -0.083 v -4.48132 h -7.71784 v 24.39834 h 8.46473 v -10.29046 c 0,-2.40664 0.49793,-4.31535 1.57677,-5.64315 1.07883,-1.3278 2.57261,-1.9917 4.56431,-1.9917 h 1.41079 c 0.49792,0 0.91286,0.083 1.41079,0.24896 l 0.49792,-7.05394 z m 26.47303,14.93776 v -1.57677 c 0.083,-3.73444 -0.91286,-6.97095 -2.73859,-9.54357 -1.90871,-2.6556 -5.06224,-3.9834 -9.54357,-4.14937 -3.90041,0 -6.97095,1.16182 -9.37759,3.3195 -2.40664,2.24066 -3.65145,5.3112 -3.65145,9.37759 0.083,4.06639 1.41079,7.21992 4.06639,9.37759 2.6556,2.24067 5.9751,3.31951 10.12448,3.40249 1.57676,0 3.15353,-0.083 4.6473,-0.33195 1.49378,-0.24896 2.98755,-0.6639 4.31536,-1.16182 v -5.97511 c -1.24482,0.66391 -2.57262,1.16183 -3.81743,1.41079 -1.24482,0.33195 -2.48963,0.41494 -3.65145,0.41494 -2.07469,0 -3.73444,-0.33195 -4.97926,-1.07884 -1.24481,-0.74689 -1.9917,-1.90871 -2.24066,-3.56846 l 16.84647,0.083 z m -17.01245,-4.81328 c 0.083,-1.41079 0.49793,-2.6556 1.24482,-3.56847 0.74689,-0.99585 1.90871,-1.49377 3.40249,-1.49377 1.65975,0 2.90456,0.49792 3.56846,1.49377 0.74689,0.99585 1.07884,2.15768 1.07884,3.56847 z M 58.397095,383.69128 c -3.651452,-0.99585 -6.473029,-2.6556 -8.79668,-5.22821 -2.323652,-2.57262 -3.40249,-4.89627 -4.06639,-9.04565 -1.244813,-8.13278 2.240664,-15.60166 8.962655,-18.83817 3.40249,-1.65975 7.966805,-2.48963 12.531121,-2.48963 2.821577,0 5.311203,0.49793 7.634855,0.91287 l -0.746888,7.3029 c 0,0 -0.580913,-0.16598 -2.240664,-0.58091 -1.576764,-0.41494 -3.153527,-0.58092 -4.730291,-0.58092 -3.153527,0 -6.224066,0.82988 -8.215767,2.40664 -4.730291,3.65146 -4.730291,13.19502 0.165975,17.17843 2.987552,2.48962 8.381742,3.3195 13.19502,2.07468 l 2.240664,-0.58091 0.663901,7.38589 c -1.410789,0.33195 -4.39834,0.91287 -8.049793,0.91287 -4.813278,0 -6.307054,-0.16598 -8.547718,-0.82988 z m -18.921161,4.23237 H 345.7 v 2.48962 H 39.475934 Z"
     id="path6"
     inkscape:connector-curvature="0"
     style="fill:#002255" />
  <path
     d="m 89.849378,427.84066 c 0,-0.41494 -0.08299,-0.74689 -0.331951,-0.82988 -0.248962,-0.16597 -0.497925,-0.24896 -0.912863,-0.24896 -1.327801,-0.24896 -2.074688,-0.74689 -2.323651,-1.49377 -0.248963,-0.82988 -0.33195,-1.82573 -0.33195,-3.07054 l -1.327801,-25.56017 c 0,-0.91286 -0.08299,-1.65975 -0.248963,-2.32365 -0.165975,-0.58091 -0.746888,-0.91286 -1.825726,-0.99585 -0.912863,0 -1.576763,0.33195 -1.991701,0.82987 -0.414938,0.49793 -0.829876,1.16183 -1.327801,1.82573 l -16.431535,23.07054 -2.73859,3.90041 c -0.580912,0.82988 -1.161825,1.57677 -1.742738,2.32366 -0.663901,0.74688 -1.493776,1.16182 -2.489627,1.3278 -0.580913,0.083 -1.078838,0.16597 -1.576763,0.33195 -0.497925,0.16597 -0.746888,0.58091 -0.829876,1.24481 0,0.41494 0.165975,0.6639 0.414938,0.74689 0.248963,0.083 0.580913,0.16597 0.912863,0.16597 0.912863,0 1.908714,-0.083 2.904564,-0.16597 0.995851,-0.083 1.908714,-0.16598 2.904565,-0.16598 0.912863,0 1.742738,0.083 2.572614,0.16598 0.829875,0.083 1.742738,0.083 2.572614,0.16597 0.414938,0 0.746888,-0.083 1.078838,-0.24896 0.33195,-0.16598 0.497925,-0.49793 0.497925,-0.91286 -0.08299,-0.6639 -0.414937,-0.99585 -1.161825,-1.07884 -0.746888,-0.083 -1.410789,-0.24896 -2.157677,-0.41494 -0.746888,-0.16597 -1.078838,-0.6639 -1.161825,-1.57676 0.165975,-0.91287 0.746888,-2.24067 1.825726,-3.90042 1.078838,-1.65975 1.825726,-2.90456 2.323651,-3.56846 h 10.207469 c 0.08299,1.07884 0.08299,2.15767 0.165975,3.23651 0.08299,1.07884 0.08299,2.15768 0.08299,3.23652 -0.08299,1.49377 -0.414938,2.40664 -1.161826,2.6556 -0.746888,0.24896 -1.493776,0.41494 -2.157676,0.41494 -0.746888,0 -1.161826,0.49792 -1.161826,1.24481 0,0.33195 0.08299,0.58091 0.33195,0.74689 0.248963,0.16597 0.497926,0.16597 0.829876,0.16597 1.410788,0 2.821577,-0.083 4.232365,-0.16597 1.410788,-0.083 2.821577,-0.16598 4.232365,-0.16598 0.912863,0 1.908714,0.083 2.821577,0.083 0.912863,0.083 1.908713,0.083 2.821577,0.083 0.414937,0 0.829875,-0.083 1.078838,-0.16598 0.414937,-0.16597 0.580913,-0.49792 0.580913,-0.91286 z M 77.23527,414.72863 h -8.547718 l 8.13278,-11.86722 z m 86.80498,-19.41909 c 0,-0.33195 -0.083,-0.49793 -0.33195,-0.6639 -0.16598,-0.16598 -0.41494,-0.24896 -0.74689,-0.24896 -0.49792,0 -0.91286,0 -1.3278,0.083 -0.41494,0 -0.91286,0.083 -1.3278,0.16598 -1.16183,0.083 -2.24066,0.16597 -3.40249,0.24896 -1.16183,0 -2.32365,0.083 -3.48548,0 -0.82987,0 -1.65975,-0.083 -2.57261,-0.083 -0.82988,-0.083 -1.65975,-0.083 -2.57262,-0.083 -0.41493,0 -0.74688,0.083 -1.07883,0.33195 -0.33195,0.24896 -0.49793,0.58091 -0.49793,0.99585 0.16598,0.74688 0.74689,1.16182 1.74274,1.07884 0.99585,-0.083 1.57676,0.41493 1.74274,1.3278 0,0.24896 0,0.49792 -0.083,0.82987 -0.083,0.24896 -0.16597,0.49793 -0.24896,0.82988 l -6.47303,22.40664 c -0.24896,1.07883 -0.49793,1.9917 -0.82988,2.73859 -0.33195,0.74688 -0.99585,1.24481 -2.07469,1.49377 -0.49792,0.083 -1.07883,0.16598 -1.74273,0.33195 -0.6639,0.16598 -1.07884,0.58091 -1.07884,1.16183 0,0.33195 0.16597,0.58091 0.41494,0.74689 0.24896,0.16597 0.58091,0.24896 0.91286,0.24896 1.07884,0 2.24066,-0.083 3.3195,-0.16598 1.16183,-0.083 2.24066,-0.16597 3.40249,-0.16597 1.24481,0 2.40664,0.083 3.65145,0.16597 1.24482,0.083 2.40664,0.083 3.65145,0.083 0.49793,0 1.07884,0 1.74274,-0.083 0.6639,-0.083 0.99585,-0.41494 1.07884,-1.07884 -0.083,-0.6639 -0.41494,-0.99585 -0.99585,-1.07883 -0.58091,-0.083 -1.24481,-0.16598 -1.82573,-0.33195 -0.58091,-0.16598 -0.91286,-0.74689 -0.99585,-1.74274 0,-0.41494 0.083,-0.82988 0.16598,-1.24482 0.083,-0.41493 0.24896,-0.82987 0.33195,-1.24481 l 6.47303,-22.48963 c 0.24896,-0.91286 0.49792,-1.57676 0.82987,-1.9917 0.33195,-0.41493 0.99585,-0.74688 1.90872,-0.91286 0.49792,-0.083 0.99585,-0.16598 1.57676,-0.41494 0.41494,-0.33195 0.6639,-0.74689 0.74689,-1.24481 z m 33.69295,0.24896 c -0.083,-0.58091 -0.66391,-0.91286 -1.65976,-1.16182 -1.07883,-0.24897 -2.15767,-0.33195 -3.3195,-0.41494 -1.16182,-0.083 -1.90871,-0.083 -2.32365,-0.083 -4.31535,0 -8.79668,0.91286 -13.44398,2.57261 -4.64731,1.74274 -8.63071,4.23237 -11.95021,7.55187 -3.3195,3.3195 -5.06224,7.38589 -5.14523,12.19917 0.083,3.07054 0.91286,5.56017 2.6556,7.55187 1.74274,1.9917 3.81743,3.48548 6.47303,4.48133 2.57262,0.99585 5.22822,1.49377 8.04979,1.49377 1.65976,0 3.31951,-0.083 5.06225,-0.33195 1.65975,-0.16597 3.3195,-0.49792 4.97925,-0.91286 0.58091,-0.083 1.16182,-0.24896 1.57676,-0.49793 0.41494,-0.16597 0.74689,-0.58091 0.99585,-1.24481 0.41494,-1.24481 0.82988,-2.57261 1.24482,-3.90041 0.33195,-1.3278 0.74688,-2.65561 1.07883,-3.90042 0.58092,-1.82572 1.3278,-2.98755 2.15768,-3.3195 0.82988,-0.33195 1.57676,-0.49793 2.24066,-0.49793 0.6639,0 0.99585,-0.41493 0.99585,-1.24481 0,-0.33195 -0.16597,-0.58091 -0.41493,-0.74689 -0.24897,-0.16597 -0.58092,-0.24896 -0.82988,-0.24896 -1.24481,0 -2.57261,0.083 -3.81743,0.16598 -1.3278,0.083 -2.57261,0.16597 -3.90041,0.16597 -1.24481,0 -2.48963,-0.083 -3.65145,-0.16597 -1.24482,-0.083 -2.48963,-0.16598 -3.65146,-0.16598 -0.41493,0 -0.82987,0.083 -1.16182,0.24896 -0.41494,0.16598 -0.58091,0.49793 -0.58091,0.91287 0.083,0.58091 0.41493,0.91286 0.99585,0.99585 0.6639,0.083 1.24481,0.16597 1.90871,0.41493 0.6639,0.16598 0.99585,0.74689 0.99585,1.65976 -0.083,0.99585 -0.33195,2.24066 -0.91286,3.9834 -0.49793,1.65975 -0.99585,2.98755 -1.3278,4.06639 -0.16598,0.74689 -0.49793,1.3278 -0.82988,1.65975 -0.33195,0.33195 -0.91286,0.49792 -1.74274,0.49792 -2.98755,-0.083 -5.3112,-0.99585 -6.80498,-2.90456 -1.57676,-1.90871 -2.32365,-4.23237 -2.32365,-7.13693 0,-2.6556 0.58092,-5.3112 1.65975,-7.80083 1.07884,-2.48963 2.57262,-4.73029 4.39834,-6.639 1.82573,-1.82573 4.14938,-3.40249 6.80498,-4.73029 2.73859,-1.32781 5.39419,-1.99171 8.0498,-2.07469 1.24481,0 1.9917,0.24896 2.32365,0.74688 0.24896,0.49793 0.41493,1.32781 0.33195,2.48963 0,0.33195 0,0.58091 -0.083,0.91286 0,0.33195 -0.083,0.58092 -0.083,0.91287 0,0.49792 0.083,0.99585 0.24896,1.41079 0.16598,0.41493 0.58092,0.6639 1.16183,0.6639 0.6639,-0.083 1.07884,-0.33195 1.41079,-0.91287 0.33195,-0.58091 0.49792,-1.16182 0.6639,-1.65975 0.16597,-0.41494 0.41494,-1.24481 0.82987,-2.57261 0.33195,-1.3278 0.58092,-2.15768 0.66391,-2.48963 z m 29.37759,32.28216 c 0,-0.41494 -0.083,-0.74689 -0.33195,-0.82988 -0.24896,-0.16597 -0.49793,-0.24896 -0.91286,-0.24896 -1.32781,-0.24896 -2.07469,-0.74689 -2.32366,-1.49377 -0.24896,-0.82988 -0.33195,-1.82573 -0.33195,-3.07054 l -1.3278,-25.56017 c 0,-0.91286 -0.083,-1.65975 -0.24896,-2.32365 -0.16598,-0.58091 -0.74689,-0.91286 -1.82573,-0.99585 -0.91286,0 -1.57676,0.33195 -1.9917,0.82987 -0.41494,0.49793 -0.82987,1.16183 -1.3278,1.82573 l -16.43153,23.07054 -2.73859,3.90041 c -0.58092,0.82988 -1.16183,1.57677 -1.74274,2.32366 -0.6639,0.74688 -1.49378,1.16182 -2.48963,1.3278 -0.58091,0.083 -1.07884,0.16597 -1.57676,0.33195 -0.49793,0.16597 -0.74689,0.58091 -0.82988,1.24481 0,0.41494 0.16598,0.6639 0.41494,0.74689 0.24896,0.083 0.58091,0.16597 0.91286,0.16597 0.91287,0 1.90872,-0.083 2.90457,-0.16597 0.99585,-0.083 1.90871,-0.16598 2.90456,-0.16598 0.91287,0 1.74274,0.083 2.57262,0.16598 0.91286,0.083 1.74274,0.083 2.57261,0.16597 0.41494,0 0.74689,-0.083 1.07884,-0.24896 0.33195,-0.16598 0.49792,-0.49793 0.49792,-0.91286 -0.083,-0.6639 -0.41493,-0.99585 -1.16182,-1.07884 -0.74689,-0.083 -1.41079,-0.24896 -2.15768,-0.41494 -0.74689,-0.16597 -1.07884,-0.6639 -1.16182,-1.57676 0.16597,-0.91287 0.74688,-2.24067 1.82572,-3.90042 1.07884,-1.65975 1.82573,-2.90456 2.32365,-3.56846 h 10.29046 c 0.083,1.07884 0.083,2.15767 0.16598,3.23651 0.083,1.07884 0.083,2.15768 0.083,3.23652 -0.083,1.49377 -0.41493,2.40664 -1.16182,2.6556 -0.74689,0.24896 -1.49378,0.41494 -2.15768,0.41494 -0.74689,0 -1.16182,0.49792 -1.16182,1.24481 0,0.33195 0.083,0.58091 0.33195,0.74689 0.24896,0.16597 0.49792,0.16597 0.82987,0.16597 1.41079,0 2.82158,-0.083 4.23237,-0.16597 1.41078,-0.083 2.82157,-0.16598 4.23236,-0.16598 0.91286,0 1.90872,0.083 2.82158,0.083 0.91286,0.083 1.90871,0.083 2.82157,0.083 0.41494,0 0.82988,-0.083 1.07884,-0.16598 0.33195,-0.16597 0.49793,-0.49792 0.49793,-0.91286 z m -12.6971,-13.11203 h -8.54771 l 8.13278,-11.86722 z m -72.11618,-19.25312 c 0,-0.33195 -0.083,-0.58091 -0.33195,-0.74688 -0.16597,-0.16598 -0.41494,-0.24897 -0.74689,-0.24897 -1.07884,0 -2.15767,0 -3.23651,0.083 -1.07884,0.083 -2.15768,0.083 -3.23652,0.083 -0.58091,0 -1.41079,-0.083 -2.57261,-0.083 -1.16183,0 -1.90871,0.083 -2.32365,0.41494 -0.083,0.083 -0.16598,0.24896 -0.16598,0.33195 -0.083,0.16597 -0.16597,0.24896 -0.16597,0.33195 l -14.10789,21.3278 -0.58091,-20.99585 c 0,-0.41494 0,-0.74689 -0.083,-0.99585 -0.083,-0.33195 -0.33195,-0.41494 -0.74688,-0.49793 -1.16183,0 -2.40664,0 -3.56847,0.083 h -3.56846 c -0.6639,0 -1.32781,-0.083 -1.99171,-0.083 -0.6639,-0.083 -1.3278,-0.083 -1.9917,-0.083 -0.41493,0 -0.82987,0.083 -1.24481,0.16597 -0.41494,0.16598 -0.58091,0.41494 -0.6639,0.91286 0.16597,0.82988 0.82988,1.24482 1.90871,1.16183 1.16183,0 1.74274,0.41494 1.90872,1.16183 0,0.58091 -0.16598,1.16182 -0.33195,1.74273 -0.24897,0.58092 -0.41494,1.16183 -0.58092,1.65976 -1.24481,3.48547 -2.48962,6.88796 -3.73444,10.37344 -1.244809,3.48548 -2.489623,6.88797 -3.817423,10.37344 -0.497926,1.49378 -0.995851,2.48963 -1.493776,3.07054 -0.497926,0.58092 -1.493776,0.99585 -3.07054,1.24482 -0.414937,0.083 -0.829875,0.16597 -1.161825,0.41493 -0.331951,0.16598 -0.497926,0.49793 -0.497926,0.99585 0,0.41494 0.165975,0.6639 0.414938,0.82988 0.248963,0.083 0.580913,0.16597 0.995851,0.16597 0.912863,0 1.825726,0 2.738589,-0.083 0.912863,-0.083 1.825726,-0.083 2.738589,-0.083 0.829876,0 1.659751,0.083 2.489627,0.16597 0.829876,0.083 1.659746,0.083 2.489626,0.16598 0.41494,0 0.74689,-0.083 1.07884,-0.33195 0.33195,-0.16598 0.49792,-0.49793 0.58091,-0.91286 -0.083,-0.74689 -0.41494,-1.07884 -1.16182,-1.16183 -0.74689,-0.083 -1.49378,-0.16597 -2.24067,-0.33195 -0.746886,-0.16597 -1.161824,-0.82987 -1.161824,-1.9917 0.08299,-1.57676 0.6639,-3.9834 1.742734,-7.21992 1.07884,-3.15352 2.15768,-6.30705 3.40249,-9.2946 1.16183,-2.98756 1.99171,-4.97926 2.40664,-6.05809 l 0.58092,24.39834 c 0,0.74688 0.083,1.3278 0.24896,1.82572 0.16597,0.41494 0.6639,0.6639 1.49377,0.6639 0.82988,0 1.49378,-0.33195 1.99171,-0.91286 0.49792,-0.58091 0.91286,-1.16183 1.3278,-1.82573 l 16.43153,-24.14937 -5.39419,20.41493 c -0.16597,0.91287 -0.41494,1.74274 -0.74689,2.6556 -0.33195,0.91287 -0.99585,1.41079 -1.90871,1.65976 -0.58091,0 -1.16183,0.16597 -1.82573,0.24896 -0.6639,0.16597 -1.07883,0.58091 -1.16182,1.24481 0,0.41494 0.16597,0.6639 0.41494,0.82988 0.24896,0.16597 0.58091,0.24896 0.91286,0.24896 1.16182,0 2.40664,-0.083 3.56846,-0.16598 1.16183,-0.083 2.40664,-0.16597 3.56847,-0.16597 1.24481,0 2.48962,0.083 3.65145,0.16597 1.24481,0.083 2.48963,0.16598 3.65145,0.16598 0.49793,0 0.82988,-0.083 1.24482,-0.24896 0.33195,-0.16598 0.58091,-0.49793 0.58091,-0.99585 -0.083,-0.58092 -0.33195,-0.99585 -0.91286,-1.07884 -0.58092,-0.083 -1.16183,-0.24896 -1.74274,-0.41494 -0.58092,-0.16597 -0.91287,-0.6639 -0.91287,-1.57676 0,-0.58092 0.083,-1.24482 0.24897,-1.90872 0.16597,-0.6639 0.24896,-1.24481 0.41493,-1.82572 l 5.22822,-20.99585 c 0.16598,-0.91287 0.41494,-1.65975 0.74689,-2.15768 0.33195,-0.49792 0.91286,-0.82988 1.90871,-0.99585 0.49793,0 0.99585,-0.16598 1.49378,-0.33195 0.24896,0.16597 0.58091,-0.24896 0.58091,-0.82988 z"
     id="path8"
     inkscape:connector-curvature="0"
     style="fill:#ff0000" />
  <path
     d="m 310.43029,399.5419 c -8.46473,-0.24896 -7.05394,16.34855 -4.73029,20.74689 0.99585,1.90872 2.40664,2.90457 4.73029,2.90457 2.32365,0 3.9834,-0.91287 5.06224,-2.82158 2.40664,-4.23237 3.48548,-20.58091 -5.06224,-20.82988 z m 5.47718,16.43154 c -0.16598,1.16183 -0.58091,2.82158 -1.16183,3.90041 -0.91286,1.65976 -2.32365,2.32366 -4.23236,2.32366 -1.90872,0 -2.98755,-0.74689 -3.90042,-2.40664 -0.58091,-1.07884 -0.91286,-2.6556 -1.16182,-3.81743 -0.33195,-1.82573 -0.49793,-3.73444 -0.49793,-5.56017 0,-2.82157 0.49793,-7.46888 3.07054,-9.21161 0.74689,-0.49793 1.57676,-0.66391 2.48963,-0.66391 4.6473,0.083 5.64315,6.14108 5.80913,9.79254 0,1.82572 -0.16598,3.73444 -0.41494,5.64315 z"
     id="path10"
     inkscape:connector-curvature="0"
     style="fill:none" />
  <path
     d="m 319.80788,398.79502 c -2.24066,-3.23652 -5.39419,-4.81328 -9.2946,-4.81328 -3.90042,0 -6.97096,1.57676 -9.21162,4.81328 -2.57261,3.56846 -3.23651,8.21576 -3.23651,12.6141 0,4.31536 0.74688,8.96266 3.23651,12.61411 2.24066,3.15353 5.39419,4.81328 9.21162,4.81328 3.90041,0 6.97095,-1.57676 9.21162,-4.73029 2.57261,-3.56847 3.23651,-8.13278 3.23651,-12.36515 0.083,-4.48132 -0.58091,-9.2946 -3.15353,-12.94605 z m -0.82987,24.6473 c -2.07469,2.90456 -4.89627,4.31535 -8.46473,4.31535 -3.56847,0 -6.39004,-1.49377 -8.46473,-4.39834 -2.07469,-2.90456 -3.07054,-6.97095 -3.07054,-12.03319 0,-5.06224 0.99585,-9.12863 3.07054,-12.0332 2.07469,-2.90456 4.89626,-4.39834 8.46473,-4.39834 3.65145,0 6.47303,1.49378 8.46473,4.39834 1.9917,2.90457 2.98755,7.05394 2.98755,12.28216 0.083,5.06224 -0.91286,9.04564 -2.98755,11.86722 z"
     id="path12"
     inkscape:connector-curvature="0"
     style="fill:none" />
  <path
     d="m 320.63776,398.2141 c -2.40664,-3.48547 -5.80913,-5.22821 -10.04149,-5.22821 -4.23237,0 -7.63486,1.74274 -10.0415,5.14523 -2.6556,3.73444 -3.40249,8.6307 -3.40249,13.11203 0,4.56431 0.74689,9.37759 3.40249,13.19502 2.40664,3.40249 5.80913,5.22822 10.0415,5.22822 4.14937,0 7.55186,-1.74274 9.9585,-5.14523 2.6556,-3.73444 3.40249,-8.46473 3.40249,-12.94606 0,-4.48133 -0.6639,-9.54357 -3.3195,-13.361 z m -0.91286,25.80913 c -2.24067,3.15353 -5.39419,4.73029 -9.21162,4.73029 -3.90042,0 -6.97096,-1.57676 -9.21162,-4.81328 -2.57261,-3.65145 -3.23651,-8.29875 -3.23651,-12.6141 0,-4.31536 0.74688,-8.96266 3.23651,-12.61411 2.24066,-3.15353 5.39419,-4.81328 9.21162,-4.81328 3.90041,0 7.05394,1.57676 9.2946,4.81328 2.57262,3.65145 3.23652,8.46473 3.23652,12.86307 0,4.31535 -0.74689,8.87967 -3.3195,12.44813 z"
     id="path14"
     inkscape:connector-curvature="0"
     style="fill:#002255" />
  <path
     d="m 310.43029,400.45477 c -0.91286,0 -1.74274,0.16597 -2.48963,0.6639 -2.57261,1.74274 -3.07054,6.39004 -3.07054,9.21162 0,1.82572 0.16598,3.73444 0.49793,5.56016 0.24896,1.16183 0.58091,2.73859 1.16183,3.81743 0.91286,1.65975 1.9917,2.40664 3.90041,2.40664 1.90871,0 3.3195,-0.6639 4.23237,-2.32365 0.58091,-1.07884 0.99585,-2.6556 1.16182,-3.90042 0.33195,-1.90871 0.41494,-3.81743 0.33195,-5.72614 -0.083,-3.56846 -1.07884,-9.54357 -5.72614,-9.70954 z m 3.48548,18.34025 c -0.82988,1.74273 -2.15768,2.24066 -3.40249,2.24066 -1.3278,0 -2.48963,-0.24896 -3.3195,-2.15768 -0.74689,-1.74273 -1.24482,-4.97925 -1.24482,-7.55186 0,-3.15353 0.33195,-6.22407 1.41079,-7.96681 0.74689,-1.24481 2.07469,-1.74274 3.07054,-1.74274 1.07884,0 2.32365,0.74689 3.07054,2.07469 0.99585,1.74274 1.41079,4.56432 1.41079,7.63486 0.083,2.73859 -0.16598,5.72614 -0.99585,7.46888 z"
     id="path16"
     inkscape:connector-curvature="0"
     style="fill:#002255" />
  <path
     d="m 319.061,399.29294 c -1.99171,-2.90456 -4.81328,-4.39834 -8.46473,-4.39834 -3.56847,0 -6.39005,1.49378 -8.46473,4.39834 -2.07469,2.90457 -3.07054,6.88797 -3.07054,12.0332 0,5.14522 0.99585,9.12863 3.07054,12.03319 2.07468,2.90457 4.89626,4.39834 8.46473,4.39834 3.56846,0 6.39004,-1.41079 8.46473,-4.31535 2.07468,-2.90457 3.07054,-6.80498 3.07054,-11.86722 -0.083,-5.22822 -1.07884,-9.37759 -3.07054,-12.28216 z m -3.48548,20.99585 c -1.07884,1.90872 -2.73859,2.82158 -5.06224,2.82158 -2.32365,0 -3.73444,-0.99585 -4.73029,-2.90457 -2.32365,-4.31535 -3.73444,-20.91286 4.73029,-20.74688 8.46473,0.33195 7.38589,16.68049 5.06224,20.82987 z"
     id="path18"
     inkscape:connector-curvature="0"
     style="fill:#002255" />
  <path
     d="m 280.13983,399.5419 c -8.46473,-0.24896 -7.05394,16.34855 -4.73029,20.74689 0.99585,1.90872 2.40664,2.90457 4.73029,2.90457 2.32366,0 3.98341,-0.91287 5.06224,-2.82158 2.40664,-4.23237 3.40249,-20.58091 -5.06224,-20.82988 z m 5.39419,16.43154 c -0.16597,1.16183 -0.58091,2.82158 -1.16182,3.90041 -0.91286,1.65976 -2.32365,2.32366 -4.23237,2.32366 h -0.33195 c -1.65975,-0.083 -2.6556,-0.82988 -3.48547,-2.40664 -0.58092,-1.07884 -0.91287,-2.6556 -1.16183,-3.81743 -0.33195,-1.82573 -0.49792,-3.73444 -0.49792,-5.56017 0,-2.82157 0.49792,-7.46888 3.07054,-9.21161 0.74688,-0.49793 1.57676,-0.66391 2.48962,-0.66391 4.6473,0.16598 5.64316,6.14108 5.80913,9.79254 0,1.82572 -0.16597,3.73444 -0.49793,5.64315 z"
     id="path20"
     inkscape:connector-curvature="0"
     style="fill:none" />
  <path
     d="m 289.51743,398.79502 c -2.24067,-3.23652 -5.39419,-4.81328 -9.29461,-4.81328 -3.90041,0 -6.97095,1.57676 -9.21162,4.81328 -2.57261,3.56846 -3.23651,8.21576 -3.23651,12.6141 0,4.31536 0.74689,8.96266 3.23651,12.61411 2.24067,3.15353 5.39419,4.81328 9.21162,4.81328 3.90042,0 6.97096,-1.57676 9.21162,-4.73029 2.57261,-3.56847 3.23651,-8.13278 3.23651,-12.36515 0,-4.48132 -0.6639,-9.2946 -3.15352,-12.94605 z m -0.82988,24.6473 c -2.07469,2.90456 -4.89626,4.31535 -8.46473,4.31535 -3.56846,0 -6.39004,-1.49377 -8.46473,-4.39834 -2.07469,-2.90456 -3.07054,-6.97095 -3.07054,-12.03319 0,-5.06224 0.99585,-9.12863 3.07054,-12.0332 2.07469,-2.90456 4.89627,-4.39834 8.46473,-4.39834 3.65145,0 6.47303,1.49378 8.46473,4.39834 1.9917,2.90457 2.98755,7.05394 2.98755,12.28216 0.083,5.06224 -0.99585,9.04564 -2.98755,11.86722 z"
     id="path22"
     inkscape:connector-curvature="0"
     style="fill:none" />
  <path
     d="m 280.13983,400.45477 c -0.91286,0 -1.74273,0.16597 -2.48962,0.6639 -2.57262,1.74274 -3.07054,6.39004 -3.07054,9.21162 0,1.82572 0.16597,3.73444 0.49792,5.56016 0.24897,1.16183 0.58092,2.73859 1.16183,3.81743 0.82987,1.57676 1.82573,2.32365 3.48548,2.40664 h 0.33195 c 1.90871,0 3.3195,-0.6639 4.23236,-2.32365 0.58091,-1.07884 0.99585,-2.6556 1.16183,-3.90042 0.33195,-1.90871 0.41494,-3.81743 0.33195,-5.72614 0,-3.56846 -0.99585,-9.54357 -5.64316,-9.70954 z m 3.56847,18.34025 c -0.82988,1.74273 -2.15768,2.24066 -3.40249,2.24066 -1.3278,0 -2.48963,-0.24896 -3.3195,-2.15768 -0.74689,-1.74273 -1.24482,-4.97925 -1.24482,-7.55186 0,-3.15353 0.33195,-6.22407 1.41079,-7.96681 0.74689,-1.24481 2.07469,-1.74274 3.07054,-1.74274 1.07884,0 2.32365,0.74689 3.07054,2.07469 0.99585,1.74274 1.41079,4.56432 1.41079,7.63486 0.083,2.73859 -0.16598,5.72614 -0.99585,7.46888 z"
     id="path24"
     inkscape:connector-curvature="0"
     style="fill:#002255" />
  <path
     d="m 290.26432,398.2141 c -2.40664,-3.48547 -5.80913,-5.22821 -10.0415,-5.22821 -4.23236,0 -7.63485,1.74274 -10.04149,5.14523 -2.6556,3.73444 -3.40249,8.6307 -3.40249,13.11203 0,4.56431 0.74689,9.37759 3.40249,13.19502 2.40664,3.40249 5.80913,5.22822 10.04149,5.22822 4.14938,0 7.55187,-1.74274 9.95851,-5.14523 2.6556,-3.73444 3.40249,-8.46473 3.40249,-12.94606 0.083,-4.48133 -0.6639,-9.54357 -3.3195,-13.361 z m -0.82988,25.80913 c -2.24066,3.15353 -5.39419,4.73029 -9.21162,4.73029 -3.90041,0 -6.97095,-1.57676 -9.21162,-4.81328 -2.57261,-3.65145 -3.23651,-8.29875 -3.23651,-12.6141 0,-4.31536 0.74689,-8.96266 3.23651,-12.61411 2.24067,-3.15353 5.39419,-4.81328 9.21162,-4.81328 3.90042,0 7.05394,1.57676 9.29461,4.81328 2.57261,3.65145 3.23651,8.46473 3.23651,12.86307 -0.083,4.31535 -0.74689,8.87967 -3.3195,12.44813 z"
     id="path26"
     inkscape:connector-curvature="0"
     style="fill:#002255" />
  <path
     d="m 288.68755,399.29294 c -1.9917,-2.90456 -4.81328,-4.39834 -8.46473,-4.39834 -3.56846,0 -6.39004,1.49378 -8.46473,4.39834 -2.07469,2.90457 -3.07054,6.88797 -3.07054,12.0332 0,5.14522 0.99585,9.12863 3.07054,12.03319 2.07469,2.90457 4.89627,4.39834 8.46473,4.39834 3.56847,0 6.39004,-1.41079 8.46473,-4.31535 2.07469,-2.90457 3.07054,-6.80498 3.07054,-11.86722 0,-5.22822 -0.99585,-9.37759 -3.07054,-12.28216 z m -3.48548,20.99585 c -1.07883,1.90872 -2.73858,2.82158 -5.06224,2.82158 -2.32365,0 -3.73444,-0.99585 -4.73029,-2.90457 -2.32365,-4.31535 -3.73444,-20.91286 4.73029,-20.74688 8.46473,0.33195 7.46888,16.68049 5.06224,20.82987 z"
     id="path28"
     inkscape:connector-curvature="0"
     style="fill:#002255" />
  <path
     d="m 250.67925,410.82821 c -3.48547,-0.16597 -6.39004,2.57262 -6.55601,6.05809 -0.16598,3.48548 2.57261,6.39004 6.05809,6.55602 3.48547,0.16597 6.39004,-2.57262 6.55601,-6.05809 0.083,-3.48548 -2.57261,-6.39004 -6.05809,-6.55602 z m -0.49792,11.78423 c -2.98755,-0.083 -5.31121,-2.6556 -5.22822,-5.64315 0.083,-2.98755 2.6556,-5.3112 5.64316,-5.22822 2.98755,0.083 5.3112,2.65561 5.22821,5.64316 -0.083,2.98755 -2.6556,5.3112 -5.64315,5.22821 z"
     id="path30"
     inkscape:connector-curvature="0"
     style="fill:none" />
  <path
     d="m 258.48008,408.58755 c -1.3278,-1.16183 -2.90456,-2.07469 -4.56431,-2.57262 -0.99585,-0.33195 -2.07469,-0.49792 -3.15353,-0.58091 h -1.65975 c 0.58091,-1.24481 1.3278,-2.48963 1.9917,-3.65145 0.6639,-1.07884 1.3278,-2.07469 1.9917,-3.07054 0.58091,-0.82988 1.16183,-1.57676 1.82573,-2.32365 l 1.07884,-1.16183 -6.55602,-1.07884 -0.33195,0.33195 c -1.24481,1.3278 -2.40664,2.90457 -3.40249,4.39834 -1.3278,1.9917 -2.48963,4.06639 -3.56846,6.22407 -1.65976,3.3195 -3.90042,8.63071 -3.56847,12.36515 0.16598,6.14107 5.06224,11.12033 11.20332,11.36929 1.57676,0.083 3.15353,-0.16598 4.56432,-0.74689 1.41078,-0.49792 2.73858,-1.3278 3.81742,-2.32365 2.24067,-2.07469 3.56847,-4.89627 3.73444,-7.9668 0,-0.33195 0.083,-0.58092 0.083,-0.91287 0.083,-1.74274 -0.24896,-3.40249 -0.99585,-4.89626 -0.49793,-1.24482 -1.41079,-2.40664 -2.48963,-3.40249 z m 2.6556,9.12863 c -0.33195,5.89211 -5.3112,10.53942 -11.2863,10.29045 -5.72614,-0.24896 -10.29046,-4.89626 -10.37345,-10.53941 -0.58091,-6.14108 6.55602,-18.50623 10.29046,-22.32366 l 4.56432,0.74689 c -2.07469,2.32365 -5.31121,7.55187 -6.722,10.78838 0.58092,-0.16597 1.16183,-0.24896 1.74274,-0.33195 0.49793,-0.083 0.91287,-0.083 1.41079,0 0.99585,0.083 1.9917,0.24897 2.90456,0.49793 1.57677,0.49792 3.07054,1.3278 4.23237,2.40664 2.15768,1.90871 3.40249,4.6473 3.3195,7.63485 0,0.33195 0,0.58092 -0.083,0.82988 z"
     id="path32"
     inkscape:connector-curvature="0"
     style="fill:none" />
  <path
     d="m 261.88257,411.5751 c -0.6639,-1.41079 -1.65975,-2.6556 -2.82157,-3.73444 -1.41079,-1.24481 -3.07054,-2.24066 -4.89627,-2.82158 -1.07884,-0.33195 -2.24066,-0.58091 -3.40249,-0.58091 h -0.16597 c 0.41493,-0.74689 0.82987,-1.49378 1.24481,-2.15768 0.58091,-0.99585 1.24481,-1.9917 1.9917,-2.98755 0.58091,-0.74689 1.07884,-1.57676 1.74274,-2.24066 l 2.15768,-2.48963 -8.79669,-1.41079 -0.6639,0.6639 c -1.3278,1.3278 -2.48962,2.98755 -3.48547,4.56432 -1.3278,1.9917 -2.57262,4.14938 -3.65146,6.30705 -1.74273,3.56847 -3.9834,8.87967 -3.65145,12.86307 0.24897,6.63901 5.47718,11.95021 12.11618,12.19917 1.65976,0.083 3.40249,-0.16597 4.97926,-0.82987 1.49377,-0.58092 2.90456,-1.41079 4.14938,-2.57262 2.40663,-2.24066 3.90041,-5.3112 4.06639,-8.54771 0,-0.33195 0.083,-0.6639 0.083,-0.91287 0.24897,-1.74274 -0.16597,-3.56846 -0.99585,-5.3112 z m 0.16598,6.22407 c -0.16598,3.07053 -1.49378,5.89211 -3.73444,7.9668 -1.07884,0.99585 -2.40664,1.82573 -3.81743,2.32365 -1.49378,0.58091 -2.98755,0.82988 -4.56431,0.74689 -6.14108,-0.24896 -11.03735,-5.22822 -11.20332,-11.36929 -0.33195,-3.81743 1.90871,-9.04565 3.56846,-12.36515 1.07884,-2.15768 2.24066,-4.23237 3.56847,-6.22407 0.99585,-1.49377 2.15767,-3.15352 3.40248,-4.39834 l 0.33195,-0.33195 6.55602,1.07884 -1.07884,1.16183 c -0.6639,0.74689 -1.24481,1.57676 -1.82572,2.32365 -0.6639,0.99585 -1.3278,1.9917 -1.9917,3.07054 -0.74689,1.16182 -1.41079,2.40664 -1.99171,3.65145 h 0.16598 c 0.49793,-0.083 0.99585,-0.083 1.49378,0 1.07883,0.083 2.15767,0.24896 3.15352,0.58091 1.65975,0.49793 3.23652,1.41079 4.56432,2.57262 1.07884,0.99585 1.90871,2.15767 2.57261,3.40249 0.74689,1.49377 1.07884,3.23651 0.99585,4.89626 -0.16597,0.33195 -0.16597,0.6639 -0.16597,0.91287 z"
     id="path34"
     inkscape:connector-curvature="0"
     style="fill:#002255" />
  <path
     d="m 253.6668,406.84481 c -0.91286,-0.33195 -1.90871,-0.49793 -2.90456,-0.49793 h -1.41079 c -0.58091,0.083 -1.16182,0.16598 -1.74274,0.33195 1.3278,-3.3195 4.64731,-8.46473 6.722,-10.78838 l -4.56432,-0.74689 c -3.73444,3.90042 -10.87137,16.18258 -10.29046,22.32366 0.16598,5.64315 4.64731,10.29045 10.37345,10.53941 5.9751,0.24897 10.95435,-4.31535 11.2863,-10.29045 0,-0.24896 0.083,-0.58091 0.083,-0.82988 0.083,-2.98755 -1.16182,-5.72614 -3.3195,-7.63485 -1.16183,-1.07884 -2.57261,-1.90872 -4.23237,-2.40664 z m -3.56846,16.59751 c -3.48548,-0.16598 -6.22407,-3.07054 -6.05809,-6.55602 0.16597,-3.48547 3.07054,-6.22406 6.55602,-6.05809 3.48547,0.16598 6.22406,3.07054 6.05809,6.55602 -0.083,3.48547 -3.07054,6.22406 -6.55602,6.05809 z"
     id="path36"
     inkscape:connector-curvature="0"
     style="fill:#002255" />
  <path
     d="m 250.59627,411.74107 c -2.98756,-0.083 -5.56017,2.24067 -5.64316,5.22822 -0.083,2.98755 2.24067,5.56017 5.22822,5.64315 2.98755,0.083 5.56016,-2.24066 5.64315,-5.22821 0.16598,-2.98755 -2.24066,-5.56017 -5.22821,-5.64316 z m -0.24897,9.79254 c -2.40664,0 -4.31535,-1.90872 -4.31535,-4.31536 0,-2.40664 1.90871,-4.31535 4.31535,-4.31535 2.40664,0 4.31536,1.90871 4.31536,4.31535 0,2.40664 -1.99171,4.31536 -4.31536,4.31536 z"
     id="path38"
     inkscape:connector-curvature="0"
     style="fill:#002255" />
</svg>
