<?xml version="1.0" encoding="UTF-8" standalone="no"?>
<svg
   xmlns:dc="http://purl.org/dc/elements/1.1/"
   xmlns:cc="http://creativecommons.org/ns#"
   xmlns:rdf="http://www.w3.org/1999/02/22-rdf-syntax-ns#"
   xmlns:svg="http://www.w3.org/2000/svg"
   xmlns="http://www.w3.org/2000/svg"
   xmlns:sodipodi="http://sodipodi.sourceforge.net/DTD/sodipodi-0.dtd"
   xmlns:inkscape="http://www.inkscape.org/namespaces/inkscape"
   viewBox="0 0 577 151"
   version="1.1"
   id="svg20"
   sodipodi:docname="logo.svg"
   width="577"
   height="151"
   inkscape:version="0.92.4 5da689c313, 2019-01-14">
  <metadata
     id="metadata26">
    <rdf:RDF>
      <cc:Work
         rdf:about="">
        <dc:format>image/svg+xml</dc:format>
        <dc:type
           rdf:resource="http://purl.org/dc/dcmitype/StillImage" />
      </cc:Work>
    </rdf:RDF>
  </metadata>
  <defs
     id="defs24" />
  <sodipodi:namedview
     pagecolor="#ffffff"
     bordercolor="#666666"
     borderopacity="1"
     objecttolerance="10"
     gridtolerance="10"
     guidetolerance="10"
     inkscape:pageopacity="0"
     inkscape:pageshadow="2"
     inkscape:window-width="471"
     inkscape:window-height="442"
     id="namedview22"
     showgrid="false"
     inkscape:zoom="0.47202264"
     inkscape:cx="287.0625"
     inkscape:cy="75.5"
     inkscape:window-x="0"
     inkscape:window-y="0"
     inkscape:window-maximized="0"
     inkscape:current-layer="svg20">
    <inkscape:grid
       type="xygrid"
       id="grid28"
       originx="0"
       originy="0" />
  </sodipodi:namedview>
  <path
     d="m 79.8,76.1 c 8.3,-9.7 20.7,-15.9 34.5,-15.9 2.8,0 5.5,0.3 8.1,0.7 1.8,-4.9 2.7,-10.1 2.7,-15.6 C 125.1,20.3 104.8,0 79.8,0 54.8,0 34.5,20.3 34.5,45.3 c 0,5.5 1,10.7 2.8,15.6 2.7,-0.5 5.4,-0.8 8.2,-0.8 13.6,0.2 26,6.3 34.3,16 z"
     id="path2"
     inkscape:connector-curvature="0"
     style="fill:#ff0000" />
  <path
     d="M 122.4,61 C 117,75.9 103.9,87.1 88,90 c 1.8,4.9 2.7,10.1 2.7,15.6 0,11.3 -4.1,21.5 -10.9,29.5 8.3,9.7 20.7,15.9 34.5,15.9 25,0 45.3,-20.3 45.3,-45.3 0,-22.4 -16.1,-40.9 -37.2,-44.7 z"
     id="path4"
     inkscape:connector-curvature="0"
     style="fill:#0000ff" />
  <path
     d="M 71.7,90 C 55.7,87.1 42.7,75.9 37.2,61 16,64.9 0,83.4 0,105.6 c 0,25 20.3,45.3 45.3,45.3 13.8,0 26.1,-6.2 34.5,-15.9 -6.8,-7.9 -10.9,-18.2 -10.9,-29.5 0,-5.4 1,-10.6 2.8,-15.5 z"
     id="path6"
     inkscape:connector-curvature="0"
     style="fill:#00ff00" />
  <path
     d="m 71.7,90 c 2.6,0.5 5.3,0.7 8.1,0.7 2.8,0 5.5,-0.3 8.2,-0.7 -1.9,-5.1 -4.7,-9.8 -8.1,-13.9 -3.6,4.1 -6.4,8.8 -8.2,13.9 z"
     id="path8"
     inkscape:connector-curvature="0"
     style="fill:#ffffff" />
  <path
     d="m 122.4,61 c -2.6,-0.5 -5.3,-0.7 -8.1,-0.7 -13.8,0 -26.1,6.2 -34.5,15.9 3.5,4.1 6.3,8.8 8.1,13.9 16,-3 29,-14.2 34.5,-29.1"
     id="path10"
     inkscape:connector-curvature="0"
     style="fill:#ff00ff" />
  <path
     d="m 71.6,90.1 c 2.6,0.5 5.3,0.7 8.1,0.7 2.8,0 5.5,-0.3 8.2,-0.7 1.8,4.9 2.7,10.1 2.7,15.6 0,11.3 -4.1,21.5 -10.9,29.5 -6.8,-7.9 -10.9,-18.2 -10.9,-29.5 0.1,-5.6 1.1,-10.8 2.8,-15.6"
     id="path12"
     inkscape:connector-curvature="0"
     style="fill:#00ffff" />
  <path
     d="m 37.2,61 c 2.7,-0.5 5.4,-0.8 8.2,-0.8 13.8,0 26.1,6.2 34.5,15.9 C 76.4,80.2 73.6,84.9 71.8,90 55.7,87.2 42.6,75.9 37.2,61"
     id="path14"
     inkscape:connector-curvature="0"
     style="fill:#ffff00" />
  <g
     id="g18">
    <path
       d="m 185.5,118.156 1.126,-14.813 1.563,-32.813 0.751,-23.813 c 0.041,-2.166 0.063,-4.354 0.063,-6.563 0,-1.625 -0.021,-4.063 -0.063,-7.313 5.333,0.084 9.666,0.125 12.999,0.125 2.666,0 6.374,-0.063 11.124,-0.188 4.75,-0.125 8.521,-0.188 11.313,-0.188 5.75,0 9.979,0.417 12.688,1.25 2.874,0.917 5.395,2.354 7.562,4.313 2.166,1.959 3.813,4.313 4.938,7.063 1.25,3.084 1.875,6.396 1.875,9.938 0,5.375 -1.344,10.261 -4.031,14.656 -2.688,4.396 -6.406,7.678 -11.156,9.844 -4.75,2.167 -10.021,3.25 -15.813,3.25 -2.834,0 -5.854,-0.291 -9.063,-0.875 -0.917,-4.333 -1.959,-8.396 -3.125,-12.188 2.576,0.542 5.133,0.813 7.668,0.813 3.449,0 6.442,-0.521 8.978,-1.563 2.535,-1.041 4.552,-2.739 6.048,-5.094 1.496,-2.354 2.244,-5.01 2.244,-7.969 0,-1.75 -0.313,-3.354 -0.936,-4.813 -0.624,-1.458 -1.528,-2.625 -2.713,-3.5 -1.185,-0.875 -2.494,-1.469 -3.928,-1.781 -1.435,-0.313 -3.482,-0.469 -6.143,-0.469 -2.328,0 -4.677,0.042 -7.046,0.125 a 179.79,179.79 0 0 1 -6.298,0.125 853.157,853.157 0 0 0 -1.117,23.438 l -0.745,23.875 c -0.249,8.459 -0.373,14.667 -0.373,18.625 0,1.5 0.021,3.667 0.063,6.5 l -9.069,-0.125 c -1.169,0.003 -4.297,0.045 -9.384,0.128 z M 309.25,31.344 c 6.208,0 12.166,0.854 17.875,2.563 5.708,1.709 10.771,4.49 15.188,8.344 4.416,3.854 7.75,8.344 10,13.469 2.25,5.125 3.375,11.104 3.375,17.938 0,6.417 -1.063,12.553 -3.188,18.406 -2.125,5.854 -5.417,10.896 -9.875,15.125 -4.459,4.229 -9.886,7.365 -16.281,9.406 -6.396,2.041 -13.115,3.063 -20.156,3.063 -6.667,0 -13.073,-0.938 -19.219,-2.813 -6.146,-1.875 -11.438,-4.813 -15.875,-8.813 -4.437,-4 -7.615,-8.594 -9.531,-13.781 -1.917,-5.188 -2.875,-10.802 -2.875,-16.844 0,-6.625 1.197,-12.958 3.594,-19 2.396,-6.041 5.916,-11.041 10.563,-15 4.646,-3.958 10.083,-6.958 16.313,-9 6.227,-2.042 12.925,-3.063 20.092,-3.063 z m -1,13.312 c -6.292,0 -11.771,1.448 -16.438,4.344 -4.667,2.896 -8.178,6.854 -10.531,11.875 -2.354,5.021 -3.531,10.448 -3.531,16.281 0,5.417 1.135,10.406 3.406,14.969 2.271,4.563 5.76,8.042 10.469,10.438 4.708,2.396 9.791,3.594 15.25,3.594 4.125,0 8.063,-0.708 11.813,-2.125 3.75,-1.416 6.989,-3.572 9.719,-6.469 2.729,-2.896 4.781,-6.385 6.156,-10.469 1.375,-4.083 2.063,-8.333 2.063,-12.75 0,-4.125 -0.615,-8.083 -1.844,-11.875 -1.229,-3.791 -3.136,-7.052 -5.719,-9.781 -2.584,-2.729 -5.698,-4.75 -9.344,-6.063 -3.647,-1.312 -7.469,-1.969 -11.469,-1.969 z m 59.188,73.5 c 1.256,-12.416 2.198,-26.688 2.827,-42.813 0.628,-16.125 0.942,-30.291 0.942,-42.5 4.998,0.084 9.185,0.125 12.559,0.125 3.624,0 7.175,-0.063 10.653,-0.188 3.478,-0.125 7.153,-0.188 11.028,-0.188 4.831,0 9.152,0.271 12.964,0.813 3.812,0.542 7.196,1.792 10.153,3.75 2.957,1.959 5.154,4.334 6.592,7.125 1.438,2.792 2.156,6.042 2.156,9.75 0,2.334 -0.271,4.553 -0.813,6.656 a 23.87,23.87 0 0 1 -2.406,5.938 c -1.063,1.854 -2.323,3.479 -3.781,4.875 -1.459,1.396 -2.906,2.5 -4.344,3.313 -1.438,0.813 -3.073,1.511 -4.906,2.094 -1.834,0.584 -4.292,1.292 -7.375,2.125 l 4.25,8.25 c 1.375,2.625 3.979,7.334 7.813,14.125 l 6.313,11.063 c 0.333,0.584 1.333,2.479 3,5.688 -5.098,-0.083 -8.461,-0.125 -10.09,-0.125 -2.006,0 -5.537,0.042 -10.592,0.125 l -6.926,-16.625 a 702.477,702.477 0 0 0 -4.368,-9 l -7.55,-15.188 c -0.749,-1.416 -1.789,-3.541 -3.12,-6.375 2.793,0.5 5.337,0.75 7.631,0.75 3.586,0 6.858,-0.583 9.819,-1.75 2.961,-1.166 5.233,-2.969 6.818,-5.406 1.584,-2.438 2.377,-5.094 2.377,-7.969 0,-1.75 -0.344,-3.375 -1.031,-4.875 -0.687,-1.5 -1.844,-2.771 -3.469,-3.813 -1.625,-1.041 -3.563,-1.708 -5.813,-2 -2.25,-0.291 -4.5,-0.438 -6.75,-0.438 -1.25,0 -2.959,0.021 -5.125,0.063 -2.167,0.042 -4.834,0.063 -8,0.063 l -1.116,25.688 -1.178,46.875 -9.697,-0.125 c -1.542,-10e-4 -4.692,0.041 -9.445,0.124 z m 99.062,0 1.37,-18.25 1.369,-27.188 0.872,-26.75 h -4.368 l -4.057,0.063 -3.87,0.063 -14.416,0.437 c 0.333,-6 0.521,-10.563 0.563,-13.688 11.995,0.084 24.553,0.126 37.674,0.126 l 22.43,-0.063 11.996,-0.063 c -0.417,5.93 -0.625,10.492 -0.625,13.688 A 437.312,437.312 0 0 0 493.75,45.968 h -4.813 l -0.743,11.418 -1.796,43.924 -0.124,7.362 a 703.086,703.086 0 0 0 -0.062,9.483 l -9.513,-0.125 c -1.042,0.001 -4.442,0.043 -10.199,0.126 z m 53.375,-1.812 c -0.334,-6.333 -0.771,-11.5 -1.313,-15.5 8.166,3.709 15.583,5.563 22.25,5.563 2.666,0 5.156,-0.406 7.469,-1.219 2.313,-0.813 4.021,-1.958 5.125,-3.438 1.104,-1.479 1.656,-3.135 1.656,-4.969 0,-1.416 -0.266,-2.688 -0.797,-3.813 -0.797,-1.541 -2.124,-3.146 -3.982,-4.813 -2.382,-2.291 -6.631,-6.063 -12.748,-11.313 -2.915,-2.541 -4.927,-4.354 -6.035,-5.438 -2.5,-2.375 -4.417,-4.51 -5.75,-6.406 -1.334,-1.896 -2.292,-3.781 -2.875,-5.656 -0.584,-1.875 -0.875,-3.875 -0.875,-6 0,-3.916 1.094,-7.594 3.281,-11.031 2.187,-3.437 5.458,-6.125 9.813,-8.063 4.354,-1.938 9.844,-2.906 16.469,-2.906 5.958,0 12.666,0.729 20.125,2.188 0.208,4.334 0.625,9.292 1.25,14.875 -6.487,-2.5 -12.476,-3.75 -17.965,-3.75 -4.076,0 -7.413,0.928 -10.012,2.781 -2.6,1.854 -3.898,4.011 -3.898,6.469 0,0.667 0.09,1.365 0.271,2.094 0.182,0.729 0.453,1.438 0.815,2.125 0.362,0.687 1.008,1.584 1.937,2.688 0.929,1.104 2.288,2.396 4.078,3.875 1.789,1.479 3.318,2.678 4.587,3.594 l 7.712,7 a 76.944,76.944 0 0 1 5.24,4.75 c 1.539,1.542 2.859,3.021 3.961,4.438 1.102,1.417 1.965,2.771 2.589,4.063 a 18.825,18.825 0 0 1 1.404,3.969 c 0.312,1.354 0.468,2.781 0.468,4.281 0,3.5 -0.813,6.803 -2.438,9.906 -1.625,3.104 -3.959,5.656 -7,7.656 -3.042,2 -6.375,3.386 -10,4.156 -3.625,0.77 -7.459,1.156 -11.5,1.156 -2.667,0 -5.771,-0.229 -9.313,-0.688 -3.541,-0.458 -8.208,-1.332 -13.999,-2.624 z"
       id="path16"
       inkscape:connector-curvature="0" />
  </g>
</svg>
