<?xml version="1.0" encoding="UTF-8" standalone="no"?>
<svg
   xmlns:dc="http://purl.org/dc/elements/1.1/"
   xmlns:cc="http://creativecommons.org/ns#"
   xmlns:rdf="http://www.w3.org/1999/02/22-rdf-syntax-ns#"
   xmlns:svg="http://www.w3.org/2000/svg"
   xmlns="http://www.w3.org/2000/svg"
   xmlns:sodipodi="http://sodipodi.sourceforge.net/DTD/sodipodi-0.dtd"
   xmlns:inkscape="http://www.inkscape.org/namespaces/inkscape"
   viewBox="0 0 207.07421 396.12956"
   version="1.1"
   id="svg40"
   sodipodi:docname="controller.svg"
   width="207.07422"
   height="396.12955"
   inkscape:version="0.92.4 5da689c313, 2019-01-14">
  <metadata
     id="metadata46">
    <rdf:RDF>
      <cc:Work
         rdf:about="">
        <dc:format>image/svg+xml</dc:format>
        <dc:type
           rdf:resource="http://purl.org/dc/dcmitype/StillImage" />
      </cc:Work>
    </rdf:RDF>
  </metadata>
  <defs
     id="defs44" />
  <sodipodi:namedview
     pagecolor="#ffffff"
     bordercolor="#666666"
     borderopacity="1"
     objecttolerance="10"
     gridtolerance="10"
     guidetolerance="10"
     inkscape:pageopacity="0"
     inkscape:pageshadow="2"
     inkscape:window-width="640"
     inkscape:window-height="480"
     id="namedview42"
     showgrid="false"
     inkscape:zoom="0.59581216"
     inkscape:cx="103.537"
     inkscape:cy="198.049"
     inkscape:window-x="0"
     inkscape:window-y="0"
     inkscape:window-maximized="0"
     inkscape:current-layer="svg40">
    <inkscape:grid
       type="xygrid"
       id="grid853"
       originx="8.4376946e-15"
       originy="8.0566408e-06" />
  </sodipodi:namedview>
  <path
     d="m 194.483,0.29753381 c -7.337,2.44199999 -14.755,4.32399999 -22.129,6.15299999 -11.057,2.751 -22.026,5.3630002 -32.401,9.7850002 -5.183,2.213 -10.214,4.888 -14.973,8.269 a 67.837,67.837 0 0 0 -13.306,12.441 c -2.584,3.159 -5.476,7.813 -7.718,14.196 -2.243,6.381 -3.824,14.477 -3.823,24.458 0,5.63 0.501,11.859 1.662,18.728 a 5.2,5.2 0 0 0 5.994,4.261 5.2,5.2 0 0 0 4.261,-5.994 c -1.071,-6.336 -1.516,-11.983 -1.517,-16.995 0.001,-8.888 1.398,-15.776 3.235,-21.011 1.838,-5.232 4.129,-8.825 5.956,-11.059 4.63,-5.655 9.765,-9.868 15.427,-13.248 8.481,-5.064 18.219,-8.21 28.839,-10.997 10.61,-2.795 22.063,-5.226 33.777,-9.121 a 5.2,5.2 0 1 0 -3.284,-9.86600019 z"
     id="path2"
     inkscape:connector-curvature="0"
     style="fill:#9fa5a3" />
  <path
     d="m 73,86.065534 h 68.074 c 1.435,0 2.6,1.165 2.6,2.601 v 1.563 c 0,1.435 -1.165,2.6 -2.6,2.6 H 73 a 2.601,2.601 0 0 1 -2.6,-2.6 v -1.563 a 2.601,2.601 0 0 1 2.6,-2.601 z"
     id="path4"
     inkscape:connector-curvature="0"
     style="clip-rule:evenodd;fill:#a19c7d;fill-rule:evenodd" />
  <path
     d="m 83.612,80.342534 h 46.87 l 3.318,6.519 H 80.793 Z m 1.885,-10.404 h 43.654 l 3.09,7.558 H 82.872 Z m 3.688,-11.446 h 35.842 l 2.537,8.6 H 87.03 Z m 3.715,-10.404 h 28.49 l 2.017,8.599 h -32.22 z"
     id="path6"
     inkscape:connector-curvature="0"
     style="clip-rule:evenodd;fill:#9fa5a3;fill-rule:evenodd" />
  <path
     d="m 23.12,89.707534 h 167.834 c 8.897,0 16.119,7.222 16.119,16.118996 v 274.182 c 0,8.898 -7.222,16.12 -16.119,16.12 H 23.12 c -8.898,0 -23.12,-7.222 -23.12,-16.12 l 7,-274.182 C 7,96.929534 14.222,89.707534 23.12,89.707534 Z"
     id="path8"
     inkscape:connector-curvature="0"
     style="clip-rule:evenodd;fill:#a6a07e;fill-rule:evenodd" />
  <path
     d="m 35.07,137.56953 h 141.855 c 6.889,0 12.479,5.591 12.479,12.48 v 185.737 c 0,6.889 -5.591,12.48 -12.479,12.48 H 35.07 c -6.889,0 -12.48,-5.592 -12.48,-12.48 v -185.737 c 0,-6.889 5.592,-12.48 12.48,-12.48 z"
     id="path10"
     inkscape:connector-curvature="0"
     style="clip-rule:evenodd;fill:#b4ae8b;fill-rule:evenodd" />
  <path
     d="m 46.499,105.83453 h 115.879 a 6.242,6.242 0 0 1 6.239,6.239 v 78.042 a 6.242,6.242 0 0 1 -6.239,6.24 H 46.499 a 6.242,6.242 0 0 1 -6.24,-6.24 v -78.042 a 6.243,6.243 0 0 1 6.24,-6.239 z"
     id="path12"
     inkscape:connector-curvature="0"
     style="clip-rule:evenodd;fill:#5a5f57;fill-rule:evenodd" />
  <path
     d="m 45.457,138.08953 h 118.481 a 2.601,2.601 0 0 1 2.601,2.6 v 51.506 a 2.601,2.601 0 0 1 -2.601,2.601 H 45.457 a 2.6,2.6 0 0 1 -2.6,-2.601 v -51.506 c 0,-1.435 1.165,-2.6 2.6,-2.6 z"
     id="path14"
     inkscape:connector-curvature="0"
     style="clip-rule:evenodd;fill:#777a72;fill-rule:evenodd" />
  <path
     d="m 45.457,107.91553 h 118.481 a 2.6,2.6 0 0 1 2.601,2.6 v 25.494 a 2.6,2.6 0 0 1 -2.601,2.6 H 45.457 a 2.6,2.6 0 0 1 -2.6,-2.6 v -25.494 c 0,-1.435 1.165,-2.6 2.6,-2.6 z"
     id="path16"
     inkscape:connector-curvature="0"
     style="clip-rule:evenodd;fill:#a2a79b;fill-rule:evenodd" />
  <path
     d="m 45.457,190.63453 h 118.481 c 1.436,0 2.601,0.932 2.601,2.081 0,1.147 -1.165,2.08 -2.601,2.08 H 45.457 c -1.435,0 -2.6,-0.933 -2.6,-2.08 0,-1.149 1.165,-2.081 2.6,-2.081 z"
     id="path18"
     inkscape:connector-curvature="0"
     style="clip-rule:evenodd;fill:#514a3c;fill-rule:evenodd" />
  <path
     d="m 48.578,294.68253 h 22.338 a 6.243,6.243 0 0 1 6.24,6.239 v 22.896 a 6.242,6.242 0 0 1 -6.24,6.24 H 48.578 a 6.243,6.243 0 0 1 -6.24,-6.24 v -22.896 a 6.242,6.242 0 0 1 6.24,-6.239 z"
     id="path20"
     inkscape:connector-curvature="0"
     style="clip-rule:evenodd;fill:#aaa384;fill-rule:evenodd" />
  <path
     d="m 24.04,92.905534 c 3.166,9.488996 6.329,18.979996 9.485,28.473996 1.484,4.463 3.074,8.892 4.342,13.425 0.195,0.697 0.506,1.376 0.339,2.13 -0.536,0.941 -1.485,0.781 -2.296,0.743 -4.699,-0.222 -8.303,1.716 -11.053,5.436 -0.297,0.402 -0.531,0.958 -1.21,0.827 -2.515,-3.26 -4.175,-7.022 -6.049,-10.636 -3.192,-6.155 -6.424,-12.3 -9.213,-18.658 -0.391,-0.891 -0.701,-1.862 -1.458,-2.558 v -9.954 c 0.521,-0.197 0.551,-0.715 0.7,-1.131 2.613,-7.292996 7.972,-11.268996 15.612,-11.540996"
     id="path22"
     inkscape:connector-curvature="0"
     style="fill:#afaa8c" />
  <path
     d="m 0,371.64453 c 2.612,-3.475 5.261,-6.936 7.829,-10.426 4.413,-5.997 8.777,-12.014 13.158,-18.023 0.325,-0.446 0.594,-0.92 1.324,-1.119 1.209,-0.072 1.635,0.65 2.185,1.169 3.444,3.247 8.103,4.677 13.693,4.786 1.296,0.024 2.655,-0.185 3.84,0.408 0.635,0.819 0.148,1.618 -0.2,2.373 a 1048.824,1048.824 0 0 1 -20.536,42.115 2.311,2.311 0 0 1 -0.528,0.651 c -0.2,0.139 -0.398,0.281 -0.591,0.426 h -1.062 c -7.323,-0.42 -12.675,-3.064 -16.59,-7.401 -1.421,-1.575 -1.943,-3.338 -2.522,-5.105 z"
     id="path24"
     inkscape:connector-curvature="0"
     style="fill:#9f997b" />
  <path
     d="m 191.838,89.799534 c 4.952,0.385 9.148,2.452 12.229,6.71 2.486,3.437 3.313,7.310996 2.91,11.487996 -2.647,6.45 -5.245,12.922 -7.957,19.345 -2.742,6.495 -5.59,12.946 -8.415,19.406 -0.285,0.652 -0.735,1.232 -1.109,1.847 -0.619,-0.482 -0.746,-1.225 -0.955,-1.902 -1.426,-4.622 -4.552,-7.395 -9.193,-8.561 -0.622,-0.156 -1.326,-0.137 -1.801,-0.69 4.475,-15.795 9.204,-31.514 14.198,-47.367996"
     id="path26"
     inkscape:connector-curvature="0"
     style="fill:#afaa8c" />
  <path
     d="m 189.291,340.90453 c 2.156,4.18 4.398,8.315 6.449,12.549 3.458,7.139 7.084,14.193 10.253,21.479 0.258,0.592 0.644,1.125 0.971,1.686 0.419,5.291 -0.246,10.253 -3.951,14.351 -2.682,2.967 -5.938,4.712 -9.849,5.16 l -1.176,-0.119 c -1.78,-2.369 -2.249,-5.315 -3.175,-8.029 -4.149,-12.163 -8.232,-24.352 -12.14,-36.6 -0.256,-0.803 -0.66,-1.607 -0.262,-2.49 0.417,-0.514 1.011,-0.5 1.579,-0.553 4.333,-0.407 7.82,-2.274 10.121,-6.208 0.294,-0.501 0.552,-1.058 1.18,-1.226 z"
     id="path28"
     inkscape:connector-curvature="0"
     style="fill:#9f997b" />
  <path
     d="m 49.842,306.88753 0.025,-0.04 c 1.399,-2.163 3.605,-3.429 5.681,-3.429 2.113,0 3.441,1.163 5.188,1.163 1.695,0 2.727,-1.165 5.17,-1.165 1.846,0 3.803,1.01 5.196,2.755 a 6.211,6.211 0 0 0 -1.043,0.717 z"
     id="path30"
     inkscape:connector-curvature="0"
     style="fill:#b4ae8b" />
  <path
     d="m 64.052,301.46853 c 0.887,-1.144 1.561,-2.759 1.317,-4.409 -1.45,0.1 -3.146,1.026 -4.136,2.232 -0.899,1.097 -1.641,2.722 -1.352,4.301 1.583,0.05 3.22,-0.899 4.171,-2.124 z m -14.283,5.387 c -0.602,0.947 -1.019,2.306 -1.13,3.497 h 19.544 c 0.211,-1.304 0.914,-2.549 2.027,-3.496 l -20.441,-0.001 h 0.001 z m -0.952,6.964 a 13.196,13.196 0 0 1 -0.102,-3.466 l 19.392,-10e-4 a 6.167,6.167 0 0 0 0.449,3.468 z"
     id="path32"
     inkscape:connector-curvature="0"
     style="fill:#b4ae8b" />
  <path
     d="m 49.765,317.28653 a 16.456,16.456 0 0 1 -0.948,-3.467 l 19.739,0.001 a 5.901,5.901 0 0 0 3.334,3.163 l -0.137,0.304 z"
     id="path34"
     inkscape:connector-curvature="0"
     style="fill:#b4ae8b" />
  <path
     d="m 71.754,317.28753 c -0.547,1.207 -0.864,1.833 -1.62,2.99 -0.102,0.155 -0.207,0.313 -0.316,0.474 l -18.22,0.002 -0.173,-0.261 a 17.778,17.778 0 0 1 -1.659,-3.206 z"
     id="path36"
     inkscape:connector-curvature="0"
     style="fill:#b4ae8b" />
  <path
     d="m 69.817,320.75053 c -1.115,1.64 -2.611,3.444 -4.427,3.461 -1.772,0.017 -2.226,-1.157 -4.63,-1.145 -2.404,0.014 -2.906,1.165 -4.677,1.148 -1.895,-0.018 -3.365,-1.789 -4.486,-3.463 z"
     id="path38"
     inkscape:connector-curvature="0"
     style="fill:#b4ae8b" />
</svg>
