<?xml version="1.0" encoding="UTF-8" standalone="no"?>
<svg
   xmlns:dc="http://purl.org/dc/elements/1.1/"
   xmlns:cc="http://creativecommons.org/ns#"
   xmlns:rdf="http://www.w3.org/1999/02/22-rdf-syntax-ns#"
   xmlns:svg="http://www.w3.org/2000/svg"
   xmlns="http://www.w3.org/2000/svg"
   xmlns:sodipodi="http://sodipodi.sourceforge.net/DTD/sodipodi-0.dtd"
   xmlns:inkscape="http://www.inkscape.org/namespaces/inkscape"
   viewBox="0 0 168 168"
   version="1.1"
   id="svg18"
   sodipodi:docname="game.svg"
   width="168"
   height="168"
   inkscape:version="0.92.4 5da689c313, 2019-01-14">
  <metadata
     id="metadata24">
    <rdf:RDF>
      <cc:Work
         rdf:about="">
        <dc:format>image/svg+xml</dc:format>
        <dc:type
           rdf:resource="http://purl.org/dc/dcmitype/StillImage" />
      </cc:Work>
    </rdf:RDF>
  </metadata>
  <defs
     id="defs22" />
  <sodipodi:namedview
     pagecolor="#ffffff"
     bordercolor="#666666"
     borderopacity="1"
     objecttolerance="10"
     gridtolerance="10"
     guidetolerance="10"
     inkscape:pageopacity="0"
     inkscape:pageshadow="2"
     inkscape:window-width="640"
     inkscape:window-height="480"
     id="namedview20"
     showgrid="false"
     inkscape:zoom="1.4047619"
     inkscape:cx="84"
     inkscape:cy="84"
     inkscape:window-x="0"
     inkscape:window-y="0"
     inkscape:window-maximized="0"
     inkscape:current-layer="svg18">
    <inkscape:grid
       type="xygrid"
       id="grid834"
       originx="0"
       originy="0" />
  </sodipodi:namedview>
  <path
     d="M 168,39.729 V 0 H 0 v 168 h 65.64 v -0.48 l 0.36,-0.84 0.66,-0.66 0.9,-0.36 0.48,-0.06 0.48,0.06 0.84,0.36 0.66,0.66 0.36,0.84 0.06,0.48 h 27.18 l 0.06,-0.48 0.36,-0.84 0.6,-0.66 0.9,-0.36 0.48,-0.06 0.48,0.06 0.9,0.36 0.6,0.66 0.36,0.84 0.06,0.48 H 168 V 47.75 h -3.979 V 39.729 Z M 84.03,100.02 c -8.831,0 -15.99,-7.159 -15.99,-15.99 0,-8.831 7.159,-15.99 15.99,-15.99 8.831,0 15.99,7.159 15.99,15.99 0,8.831 -7.159,15.99 -15.99,15.99 z"
     id="path2"
     inkscape:connector-curvature="0"
     style="clip-rule:evenodd;fill-rule:evenodd" />
  <path
     d="m 110.15,94.2 v 0.48 l -0.36,0.9 -0.66,0.66 -0.9,0.36 h -0.96 l -0.84,-0.36 -0.66,-0.66 -0.36,-0.9 -0.06,-0.48 0.06,-0.48 0.36,-0.84 0.66,-0.66 0.84,-0.36 0.48,-0.06 0.48,0.06 0.9,0.36 0.66,0.66 0.36,0.84 z M 84,112.02 h 0.84 l 1.56,0.36 2.1,0.96 2.22,2.16 0.96,2.1 0.3,1.56 0.06,0.84 v 31.98 l -0.06,0.84 -0.3,1.56 -0.96,2.16 -2.22,2.16 -2.1,0.96 -1.56,0.3 -0.84,0.06 -0.78,-0.06 -1.56,-0.3 -2.16,-0.96 -2.16,-2.16 -0.96,-2.16 -0.36,-1.56 v -33.66 l 0.36,-1.56 0.96,-2.1 2.16,-2.16 2.16,-0.96 1.56,-0.36 H 84 Z"
     id="path4"
     inkscape:connector-curvature="0"
     style="fill:#3c3c3c" />
  <path
     d="M 100.02,84 99.96,85.68 99.3,88.8 98.1,91.68 96.36,94.2 94.2,96.36 91.68,98.1 88.8,99.3 85.68,99.96 84,100.02 82.38,99.96 79.26,99.3 76.38,98.1 73.8,96.36 71.64,94.2 69.9,91.68 68.7,88.8 68.1,85.68 68.04,84 l 0.06,-1.62 0.6,-3.12 1.2,-2.88 1.74,-2.58 2.16,-2.16 2.58,-1.74 2.88,-1.2 3.12,-0.6 1.62,-0.06 1.68,0.06 3.12,0.6 2.88,1.2 2.52,1.74 2.16,2.16 1.74,2.58 1.2,2.88 0.66,3.12 z m 4.02,0 -0.06,2.1 -0.84,3.9 -1.5,3.54 -2.16,3.24 -2.7,2.7 -3.24,2.16 -3.54,1.5 -3.9,0.78 -2.1,0.12 -2.04,-0.12 -3.9,-0.78 -3.6,-1.5 -3.18,-2.16 -2.7,-2.7 L 66.42,93.54 64.86,90 64.08,86.1 64.02,84 l 0.06,-2.04 0.78,-3.9 1.56,-3.6 2.16,-3.18 2.7,-2.7 3.18,-2.16 3.6,-1.56 3.9,-0.78 2.04,-0.06 2.1,0.06 3.9,0.78 3.54,1.56 3.24,2.16 2.7,2.7 2.16,3.18 1.5,3.6 0.84,3.9 z"
     id="path6"
     inkscape:connector-curvature="0"
     style="clip-rule:evenodd;fill:#3c3c3c;fill-rule:evenodd" />
  <g
     id="g16">
    <path
       d="m 41.187,3.796 h 85.625 v 6.563 H 41.187 Z"
       id="path8"
       inkscape:connector-curvature="0"
       style="fill:#ed1a24" />
    <path
       d="m 41.187,10.359 h 85.625 v 6.563 H 41.187 Z m 0,6.563 h 85.625 v 6.563 H 41.187 Z m 0,6.563 h 85.625 v 6.563 H 41.187 Z m 0,6.563 h 85.625 v 7.674 H 41.187 Z"
       id="path10"
       inkscape:connector-curvature="0"
       style="fill:#ffffff" />
    <g
       stroke-miterlimit="10"
       id="g14"
       style="fill:none;stroke:#231f20;stroke-width:0.30000001;stroke-miterlimit:10">
      <path
         d="m 41.187,10.359 h 85.626 m -85.626,6.563 h 85.626 m -85.626,6.563 h 85.626 m -85.626,6.563 h 85.626"
         id="path12"
         inkscape:connector-curvature="0" />
    </g>
  </g>
</svg>
