<?xml version="1.0" encoding="UTF-8" standalone="no"?>
<svg
   xmlns:dc="http://purl.org/dc/elements/1.1/"
   xmlns:cc="http://creativecommons.org/ns#"
   xmlns:rdf="http://www.w3.org/1999/02/22-rdf-syntax-ns#"
   xmlns:svg="http://www.w3.org/2000/svg"
   xmlns="http://www.w3.org/2000/svg"
   xmlns:sodipodi="http://sodipodi.sourceforge.net/DTD/sodipodi-0.dtd"
   xmlns:inkscape="http://www.inkscape.org/namespaces/inkscape"
   viewBox="-769.518 494.892 1780 548.12382"
   version="1.1"
   id="svg18"
   sodipodi:docname="logo.svg"
   width="1780"
   height="548.12384"
   inkscape:version="0.92.4 5da689c313, 2019-01-14">
  <metadata
     id="metadata24">
    <rdf:RDF>
      <cc:Work
         rdf:about="">
        <dc:format>image/svg+xml</dc:format>
        <dc:type
           rdf:resource="http://purl.org/dc/dcmitype/StillImage" />
      </cc:Work>
    </rdf:RDF>
  </metadata>
  <defs
     id="defs22" />
  <sodipodi:namedview
     pagecolor="#ffffff"
     bordercolor="#666666"
     borderopacity="1"
     objecttolerance="10"
     gridtolerance="10"
     guidetolerance="10"
     inkscape:pageopacity="0"
     inkscape:pageshadow="2"
     inkscape:window-width="640"
     inkscape:window-height="480"
     id="namedview20"
     showgrid="false"
     inkscape:zoom="0.15245978"
     inkscape:cx="888.75925"
     inkscape:cy="274.06205"
     inkscape:window-x="0"
     inkscape:window-y="0"
     inkscape:window-maximized="0"
     inkscape:current-layer="svg18" />
  <path
     d="m -744.01272,693.72575 c 0.164,-0.271 0.338,-0.537 0.511,-0.799 28.075,-43.407 72.361,-68.813 114.008,-68.813 42.407,0 69.065,23.344 104.119,23.344 34.012,0 54.729,-23.378 103.758,-23.378 37.043,0 76.318,20.256 104.293,55.282 -7.735,4.254 -14.712,9.083 -20.949,14.391 z"
     stroke-miterlimit="2.613"
     id="path2"
     inkscape:connector-curvature="0"
     style="fill:#61bb46;stroke:#61bb46;stroke-width:2.9849999;stroke-miterlimit:2.61299992" />
  <path
     d="m -458.80672,584.96975 c 17.796,-22.952 31.333,-55.36 26.427,-88.494 -29.097,2.003 -63.129,20.605 -83.006,44.821 -18.037,21.999 -32.928,54.624 -27.131,86.316 31.766,0.992 64.627,-18.055 83.71,-42.643 z"
     stroke-miterlimit="2.613"
     id="path4"
     inkscape:connector-curvature="0"
     style="fill:#61bb46;stroke:#61bb46;stroke-width:2.9849999;stroke-miterlimit:2.61299992" />
  <path
     d="m -745.46072,693.08575 c -12.09,19.021 -20.456,46.284 -22.676,70.197 l 392.241,-0.01 c 4.241,-26.161 18.343,-51.156 40.694,-70.158 l -410.259,-0.029 h 0.023 z"
     id="path6"
     inkscape:connector-curvature="0"
     style="fill:#fdb827" />
  <path
     d="m -764.57472,832.85675 c -3.812,-24.424 -4.428,-47.97 -2.034,-69.572 l 389.186,-0.01 c -3.807,23.427 -0.612,47.806 9.017,69.597 z"
     stroke-miterlimit="2.613"
     id="path8"
     inkscape:connector-curvature="0"
     style="fill:#f5821f;stroke:#f5821f;stroke-width:2.9849999;stroke-miterlimit:2.61299992" />
  <path
     d="m -745.55472,902.42375 c -9.19,-23.373 -15.483,-46.848 -19.02,-69.568 l 396.168,0.015 c 12.265,27.768 34.962,51.358 66.922,63.48 -0.949,2.12 -1.865,4.148 -2.747,6.102 z"
     stroke-miterlimit="2.613"
     id="path10"
     inkscape:connector-curvature="0"
     style="fill:#e03a3e;stroke:#e03a3e;stroke-width:2.9849999;stroke-miterlimit:2.61299992" />
  <path
     d="m -304.23272,902.45275 c -10.973,24.224 -17.333,36.797 -32.518,60.006 a 599.08,599.08 0 0 1 -6.352,9.523 l -365.683,0.034 a 802.098,802.098 0 0 1 -3.475,-5.241 c -13.672,-20.91 -24.74,-42.59 -33.294,-64.352 z"
     stroke-miterlimit="2.613"
     id="path12"
     inkscape:connector-curvature="0"
     style="fill:#963d97;stroke:#963d97;stroke-width:2.9849999;stroke-miterlimit:2.61299992" />
  <path
     d="m -343.10272,971.98175 c -22.37,32.90605 -52.402,69.11805 -88.843,69.46105 -35.559,0.324 -44.681,-23.237 -92.924,-22.972 -48.243,0.271 -58.315,23.383 -93.874,23.049 -38.017,-0.353 -67.538,-35.916 -90.042,-69.50505 z"
     stroke-miterlimit="2.613"
     id="path14"
     inkscape:connector-curvature="0"
     style="fill:#009ddc;stroke:#009ddc;stroke-width:2.9849999;stroke-miterlimit:2.61299992" />
  <path
     d="m 452.89928,655.62775 v 228.325 h 55.197 v -228.325 z m 356.544,0 v 31.808 h 32.325 a 6.39,6.39 0 0 1 4.586,1.941 6.74,6.74 0 0 1 1.889,4.717 v 151.448 a 6.761,6.761 0 0 1 -1.889,4.711 6.36,6.36 0 0 1 -4.586,1.941 h -32.325 v 31.866 h 86.624 v -228.432 z m 111.939,0 v 228.435 h 86.61802 v -31.863 h -32.31902 a 6.365,6.365 0 0 1 -4.586,-1.941 6.677,6.677 0 0 1 -1.875,-4.711 v -151.451 a 6.68,6.68 0 0 1 1.875,-4.717 6.36,6.36 0 0 1 4.586,-1.941 h 32.31902 v -31.811 z m -1097.778,54.56 c -25.839,0 -46.899,8.495 -64.485,25.969 -17.698,17.582 -26.112,37.126 -26.112,59.841 0,22.415 8.82,42.218 27.547,60.677 18.675,18.402 39.527,27.277 63.688,27.277 h 35.4 v -41.232 h -14.964 c -13.624,0 -25.786,-4.426 -35.295,-13.095 -9.506,-8.657 -14.65,-20.195 -14.65,-32.996 0,-12.956 5.042,-24.487 14.438,-32.799 9.34,-8.271 21.322,-12.389 34.868,-12.389 h 37.629 a 6.368,6.368 0 0 1 4.583,1.944 6.738,6.738 0 0 1 1.892,4.708 v 125.874 h 55.196997 v -173.779 z m 153.859997,0 v 228.319 h 55.252 v -180.425 a 6.735,6.735 0 0 1 1.889,-4.708 6.373,6.373 0 0 1 4.583,-1.944 h 35.028 c 14.577,0 27.611003,5.057 37.841003,14.839 9.46,9.064 14.705,20.407 14.705,32.735 0,12.752 -5.67,24.127 -15.868,32.029 -10.084,7.812 -22.584003,11.686 -36.676003,11.686 h -13.004 v 41.235 h 36.992 c 25.446003,0 46.472003,-8.207 64.168003,-24.941 17.681,-16.696 26.109,-36.266 26.109,-60.271 0,-24.874 -8.454,-45.287 -26.059,-62.683 -17.626,-17.422 -38.193,-25.862 -62.892003,-25.862 z m 237.718003,0 v 228.319 h 55.197 v -180.425 a 6.745,6.745 0 0 1 1.886,-4.708 6.374,6.374 0 0 1 4.592,-1.944 h 35.066 c 14.589,0 27.611,5.057 37.841,14.839 9.457,9.064 14.705,20.407 14.708,32.735 -0.003,12.775 -5.734,24.133 -15.923,32.029 -10.081,7.809 -22.534,11.686 -36.629,11.686 h -13.017 v 41.235 h 36.992 c 25.449,0 46.423,-8.201 64.116,-24.941 17.687,-16.696 26.109,-36.266 26.109,-60.271 0,-24.874 -8.445,-45.287 -26.059,-62.683 -17.623,-17.428 -38.14,-25.862 -62.84,-25.862 z m 426.817,0 c -28.983,0 -53.697,8.797 -75.101,26.678 -21.45,17.919 -31.366,37.266 -31.366,59.408 0,26.673 10.189,47.396 31.787,64.162 20.238,15.655 44.761,23.517 74.363,23.517 h 108.684 v -41.247 h -103.173 c -13.464,0 -25.56,-4.536 -35.135,-13.255 -9.631,-8.779 -14.859,-20.581 -14.859,-33.778 0,-12.581 5.039,-23.796 14.275,-31.968 9.314,-8.236 21.587,-12.278 35.72,-12.278 h 35.034 c 2.485,-0.006 4.769,1.462 5.841,3.766 a 6.794,6.794 0 0 1 -0.793,7.039 l -39.704,51.395 h 60.666 l 42.145,-57.722 v -45.717 z"
     id="path16"
     inkscape:connector-curvature="0"
     style="fill:#808080" />
</svg>
