<?xml version="1.0" encoding="UTF-8" standalone="no"?>
<svg
   xmlns:dc="http://purl.org/dc/elements/1.1/"
   xmlns:cc="http://creativecommons.org/ns#"
   xmlns:rdf="http://www.w3.org/1999/02/22-rdf-syntax-ns#"
   xmlns:svg="http://www.w3.org/2000/svg"
   xmlns="http://www.w3.org/2000/svg"
   xmlns:sodipodi="http://sodipodi.sourceforge.net/DTD/sodipodi-0.dtd"
   xmlns:inkscape="http://www.inkscape.org/namespaces/inkscape"
   viewBox="0 0 288.93927 355.159"
   version="1.1"
   id="svg101"
   sodipodi:docname="console.svg"
   width="288.93927"
   height="355.159"
   inkscape:version="0.92.4 5da689c313, 2019-01-14">
  <metadata
     id="metadata107">
    <rdf:RDF>
      <cc:Work
         rdf:about="">
        <dc:format>image/svg+xml</dc:format>
        <dc:type
           rdf:resource="http://purl.org/dc/dcmitype/StillImage" />
      </cc:Work>
    </rdf:RDF>
  </metadata>
  <defs
     id="defs105" />
  <sodipodi:namedview
     pagecolor="#ffffff"
     bordercolor="#666666"
     borderopacity="1"
     objecttolerance="10"
     gridtolerance="10"
     guidetolerance="10"
     inkscape:pageopacity="0"
     inkscape:pageshadow="2"
     inkscape:window-width="640"
     inkscape:window-height="480"
     id="namedview103"
     showgrid="false"
     inkscape:zoom="0.66449112"
     inkscape:cx="144.46924"
     inkscape:cy="177.5795"
     inkscape:window-x="0"
     inkscape:window-y="0"
     inkscape:window-maximized="0"
     inkscape:current-layer="svg101" />
  <path
     d="m 287.09274,24.208 c 0,-18.692 -11.338,-24.208 -20.531,-24.208 -2.422,0 -10.812,0.021 -22.176,0.053 v 4.312 h -4.434 v -4.3 l -4.871,0.014 v 4.286 h -4.434 V 0.091 l -4.871,0.014 v 4.26 h -4.434 V 0.117 l -4.871,0.014 v 4.233 h -4.434 v -4.22 l -4.871,0.014 v 4.207 h -4.434 V 0.17 l -4.871,0.014 v 4.181 h -4.434 V 0.196 l -4.871,0.013 v 4.155 h -4.434 V 0.221 l -4.871,0.013 v 4.13 h -4.434 V 0.246 l -4.871,0.012 v 4.107 h -4.434 V 0.269 l -4.871,0.011 v 4.084 h -4.434 V 0.29 l -4.871,0.009 v 4.066 h -4.434 v -4.06 l -2.435,0.001 -2.436,-0.001 v 4.06 h -4.431 V 0.299 l -4.871,-0.009 v 4.075 h -4.434 V 0.28 l -4.871,-0.011 v 4.096 h -4.434 V 0.258 l -4.871,-0.012 v 4.119 h -4.434 v -4.13 l -4.871,-0.013 v 4.143 h -4.434 V 0.209 L 95.508742,0.196 v 4.169 h -4.434 V 0.184 l -4.871,-0.014 v 4.195 h -4.434 V 0.158 l -4.871,-0.014 v 4.221 h -4.434 V 0.131 l -4.871,-0.014 v 4.247 h -4.434 v -4.26 l -4.871,-0.014 v 4.274 h -4.434 V 0.079 l -4.871,-0.014 v 4.3 h -4.434 V 0.053 C 33.188742,0.021 24.798742,0 22.376742,0 13.183742,0 1.8457419,5.516 1.8457419,24.208 c 0,18.693 -3.411,288.662 -0.95900002,304.904 2.45100002,18.999 11.64400012,26.047 27.88600012,26.047 16.242,0 115.697998,-0.667 115.697998,-0.667 0,0 99.456,0.667 115.697,0.667 16.241,0 25.434,-7.048 27.886,-26.047 2.45,-16.241 -0.961,-286.211 -0.961,-304.904 z"
     id="path2"
     inkscape:connector-curvature="0"
     style="fill:#d9d9d9" />
  <path
     d="M 267.92674,348.159 H 22.052742 c -8.301,0 -15.0920001,-6.792 -15.0920001,-15.092 V 21.164 c 0,-8.301 6.7920001,-15.092 15.0920001,-15.092 H 267.92674 c 8.301,0 15.092,6.791 15.092,15.092 v 311.902 c 0,8.301 -6.791,15.093 -15.092,15.093 z"
     id="path4"
     inkscape:connector-curvature="0"
     style="fill:#4c4c4c" />
  <path
     d="M 266.91174,347.158 H 22.856742 C 14.601742,347.517 7.3417419,340.3 7.8587419,332.16 V 21.859 C 7.3417419,13.524 15.039742,6.35 22.856742,6.861 H 266.91174 c 8.246,-0.467 15.551,6.575 14.998,14.998 v 310.302 c 0.596,8.008 -6.796,15.444 -14.998,14.997 z"
     id="path6"
     inkscape:connector-curvature="0"
     style="fill:#c3c2c7" />
  <path
     d="M 254.94174,289.469 H 33.999742 c -7.19,0 -13.072,-5.883 -13.072,-13.072 V 53.476 c 0,-7.19 5.883,-13.072 13.072,-13.072 H 254.94174 c 7.19,0 13.072,5.883 13.072,13.072 v 222.921 c 0.001,7.19 -5.882,13.072 -13.072,13.072 z"
     id="path8"
     inkscape:connector-curvature="0"
     style="fill:#86878b" />
  <path
     d="m 216.27274,332.904 a 3.128,3.128 0 0 1 -3.125,-3.124 3.129,3.129 0 0 1 3.125,-3.125 h 8.903 a 3.128,3.128 0 0 1 3.124,3.125 3.128,3.128 0 0 1 -3.124,3.124 z"
     id="path10"
     inkscape:connector-curvature="0"
     style="fill:#c95b5b" />
  <linearGradient
     id="a"
     gradientUnits="userSpaceOnUse"
     x1="220.724"
     y1="332.061"
     x2="220.724"
     y2="327.496"
     gradientTransform="translate(-2.581203e-4)">
    <stop
       offset="0"
       id="stop12" />
    <stop
       offset="1"
       stop-color="#fff"
       id="stop14" />
  </linearGradient>
  <path
     d="m 225.25374,332.061 h -9.059 a 2.21,2.21 0 0 1 -2.204,-2.204 V 329.7 a 2.21,2.21 0 0 1 2.204,-2.204 h 9.059 a 2.21,2.21 0 0 1 2.204,2.204 v 0.157 a 2.21,2.21 0 0 1 -2.204,2.204 z"
     id="path17"
     inkscape:connector-curvature="0"
     style="fill:url(#a)" />
  <path
     d="m 225.25374,332.061 h -9.059 a 2.21,2.21 0 0 1 -2.204,-2.204 V 329.7 a 2.21,2.21 0 0 1 2.204,-2.204 h 9.059 a 2.21,2.21 0 0 1 2.204,2.204 v 0.157 a 2.21,2.21 0 0 1 -2.204,2.204 z"
     id="path19"
     inkscape:connector-curvature="0"
     style="fill:#c11b25" />
  <path
     d="m 179.51874,270.126 h -70.88 c -3.268,0 -5.942,-2.674 -5.942,-5.942 v -31.898 c 0,-3.268 2.674,-5.942 5.942,-5.942 h 70.88 c 3.268,0 5.942,2.674 5.942,5.942 v 31.898 c 0,3.269 -2.674,5.942 -5.942,5.942 z"
     stroke-miterlimit="10"
     id="path21"
     inkscape:connector-curvature="0"
     style="fill:#808080;stroke:#2d2828;stroke-miterlimit:10" />
  <path
     d="m 144.46774,164.937 c 13.34,0 71.377,-2.497 81.42,-3.324 10.043,-0.827 14.002,-3.935 16.187,-7.207 2.367,-3.545 2.599,-10.279 2.127,-14.888 -0.473,-4.608 -5.908,-5.317 -7.916,-5.317 h -91.818 0.003 -91.817998 c -2.009,0 -7.444,0.709 -7.916,5.317 -0.473,4.608 -0.24,11.343 2.127,14.888 2.185,3.272 6.144,6.38 16.187,7.207 10.043,0.827 68.079998,3.324 81.419998,3.324"
     id="path23"
     inkscape:connector-curvature="0"
     style="fill:#464749" />
  <path
     d="m 200.97274,265.595 v -31.857 a 8.32,8.32 0 0 1 8.319,-8.319 h 25.139 a 8.319,8.319 0 0 1 8.319,8.319 v 31.857 a 8.319,8.319 0 0 1 -8.319,8.319 h -25.139 a 8.319,8.319 0 0 1 -8.319,-8.319 z"
     id="path25"
     inkscape:connector-curvature="0"
     style="fill:#bfc0c5" />
  <path
     d="m 234.34574,271.453 h -24.969 c -3.268,0 -5.942,-2.674 -5.942,-5.942 v -31.688 c 0,-3.268 2.674,-5.942 5.942,-5.942 h 24.969 c 3.268,0 5.942,2.674 5.942,5.942 v 31.688 c 0,3.268 -2.674,5.942 -5.942,5.942 z"
     id="path27"
     inkscape:connector-curvature="0"
     style="fill:#444245" />
  <path
     d="m 45.798742,265.534 v -31.857 a 8.32,8.32 0 0 1 8.319,-8.319 h 25.138 a 8.319,8.319 0 0 1 8.319,8.319 v 31.857 a 8.319,8.319 0 0 1 -8.319,8.319 h -25.138 a 8.319,8.319 0 0 1 -8.319,-8.319 z"
     id="path29"
     inkscape:connector-curvature="0"
     style="fill:#bfc0c5" />
  <path
     d="m 63.182742,158.538 h -0.7 a 1.191,1.191 0 0 1 -1.188,-1.188 v -19.327 c 0,-0.654 0.535,-1.188 1.188,-1.188 h 0.7 c 0.654,0 1.189,0.535 1.189,1.188 v 19.327 c 0,0.653 -0.535,1.188 -1.189,1.188 z m 162.572998,0 h 0.701 c 0.654,0 1.188,-0.535 1.188,-1.188 v -19.327 c 0,-0.654 -0.535,-1.188 -1.188,-1.188 h -0.701 c -0.654,0 -1.188,0.535 -1.188,1.188 v 19.327 c 0,0.653 0.534,1.188 1.188,1.188 z m -78.331,0.054 a 4.137,4.137 0 0 1 -5.908,0 l -5.908,-6.016 c -1.625,-1.654 -0.296,-3.008 2.954,-3.008 h 11.817 c 3.25,0 4.579,1.354 2.954,3.008 z"
     id="path31"
     inkscape:connector-curvature="0"
     style="fill:#444343" />
  <path
     d="m 51.030742,316.548 c -0.65,0 -1.282,0.534 -1.398,1.197 v 0.036 l -0.012,0.012 v 0.036 l -0.012,0.024 v 0.024 l -0.012,0.024 v 0.035 l -0.012,0.024 v 0.036 l -0.012,0.035 -0.012,0.036 -0.012,0.071 -0.024,0.083 -0.012,0.083 -0.024,0.083 -0.012,0.095 -0.024,0.095 -0.024,0.107 -0.024,0.095 -0.035,0.201 -0.024,0.107 -0.024,0.095 -0.012,0.095 -0.024,0.095 -0.024,0.095 -0.012,0.095 -0.012,0.083 -0.024,0.071 -0.012,0.083 v 0.036 l -0.012,0.024 v 0.059 l -0.012,0.036 v 0.048 l -0.012,0.024 v 0.024 c -0.012,0.29 0.028,0.685 0.118,0.758 0.115,0.638 2.241,3.591 2.18,4.04 -0.057,0.451 -0.308,1.777 -0.308,1.777 -0.077,0.447 -0.382,0.806 -0.829,0.806 -0.447,0 -0.752,-0.357 -0.675,-0.806 l 0.403,-2.204 h -1.588 l -0.533,3.057 c -0.109,0.621 0.312,1.114 0.936,1.114 h 2.263 c 0.627,0 1.224,-0.493 1.339,-1.114 0,0 0.583,-2.855 0.58,-3.057 -0.002,-0.203 -0.059,-0.225 -0.059,-0.225 0,-0.232 -1.892,-3.355 -2.085,-3.472 -0.083,-0.049 -0.152,-0.358 -0.154,-0.545 -0.004,-0.186 0.249,-1.434 0.249,-1.434 a 0.998,0.998 0 0 1 0.948,-0.806 c 0.447,0 0.634,0.358 0.557,0.806 l -0.344,1.979 h 1.6 l 0.557,-2.974 c 0.126,-0.662 -0.298,-1.197 -0.948,-1.197 h -2.342 z m 4.36,0 -1.896,10.924 c -0.109,0.621 0.312,1.114 0.936,1.114 h 2.263 c 0.627,0 1.235,-0.493 1.351,-1.114 l 2.026,-10.924 h -1.422 l -1.931,10.616 a 0.357,0.357 0 0 1 -0.332,0.284 h -1.126 c -0.158,0 -0.263,-0.129 -0.237,-0.284 l 1.884,-10.616 z m 5.45,0 -2.287,12.038 h 1.517 l 1.043,-5.45 h 1.931 c 0.628,0 1.224,-0.497 1.339,-1.114 l 0.829,-4.277 c 0.125,-0.664 -0.298,-1.197 -0.948,-1.197 z m 5.415,0 -2.37,12.038 h 3.412 l 0.237,-1.493 h -1.682 l 0.687,-4.064 h 1.683 l 0.237,-1.256 h -1.683 l 0.747,-3.732 h 1.682 l 0.237,-1.493 z m 4.076,0 -2.275,12.038 h 1.517 l 1.031,-5.45 h 1.078 c 0.142,0.132 0.158,0.375 0.178,0.498 0.028,0.177 0.058,0.403 0.035,0.581 -0.019,0.176 -0.829,4.372 -0.829,4.372 h 1.517 c 0,0 0.853,-4.571 0.853,-4.645 0.002,-0.075 0,-0.309 -0.083,-0.438 -0.055,-0.083 -0.151,-0.274 -0.261,-0.344 -0.211,-0.136 -0.45,-0.225 -0.45,-0.225 h -0.107 c 0.434,-0.171 1.252,-0.453 1.339,-0.912 l 0.829,-4.277 c 0.126,-0.664 -0.298,-1.197 -0.948,-1.197 h -3.424 z m 8.116,0 -2.287,12.038 h 1.742 l 1.41,-6.979 0.557,6.979 h 1.517 l 2.287,-12.038 h -1.742 l -1.185,6.292 -0.782,-6.292 z m 6.019,0 -2.287,12.038 h 1.517 l 2.287,-12.038 z m 2.31,0 -2.287,12.038 h 1.754 l 1.41,-6.979 0.557,6.979 h 1.517 l 2.287,-12.038 h -1.754 l -1.173,6.292 -0.782,-6.292 z m 5.877,0 -0.284,1.493 h 0.948 l -1.872,10.545 h 1.73 l 1.908,-10.545 h 0.912 l 0.237,-1.493 z m 4.171,0 -2.37,12.038 h 3.412 l 0.237,-1.493 h -1.682 l 0.699,-4.064 h 1.683 l 0.237,-1.256 h -1.683 l 0.735,-3.732 h 1.683 l 0.236998,-1.493 z m 3.849998,0 -2.286998,12.038 h 1.753998 l 1.41,-6.979 0.557,6.979 h 1.517 l 2.287,-12.038 h -1.753 l -1.173,6.292 -0.782,-6.292 z m 6.031,0 -2.287,12.038 h 3.46 c 0.628,0 1.235,-0.493 1.351,-1.114 l 1.837,-9.728 c 0.125,-0.664 -0.298,-1.197 -0.948,-1.197 h -3.413 z m 6.505,0 c -0.65,0 -1.27,0.534 -1.386,1.197 l -1.694,9.728 c -0.11,0.621 0.301,1.114 0.924,1.114 h 2.5 c 0.627,0 1.235,-0.493 1.351,-1.114 l 1.837,-9.728 c 0.126,-0.662 -0.299,-1.197 -0.948,-1.197 z m -5.213,1.387 h 0.699 c 0.447,0 0.752,0.358 0.675,0.806 l -1.493,7.879 c -0.078,0.447 -0.513,0.818 -0.96,0.818 h -0.687 z m 6.102,0 h 0.047 c 0.447,0 0.741,0.358 0.663,0.806 l -1.422,7.879 c -0.077,0.446 -0.489,0.818 -0.936,0.818 -0.447,0 -0.634,-0.37 -0.557,-0.818 l 1.41,-7.879 0.012,-0.035 0.012,-0.036 0.012,-0.047 0.012,-0.035 0.012,-0.047 0.012,-0.036 0.012,-0.035 0.024,-0.036 0.012,-0.036 0.024,-0.035 0.012,-0.036 0.024,-0.035 0.024,-0.024 0.024,-0.036 0.024,-0.036 0.036,-0.024 0.024,-0.024 0.024,-0.024 0.035,-0.024 0.036,-0.024 0.024,-0.024 0.035,-0.024 0.036,-0.012 0.035,-0.024 0.024,-0.012 0.047,-0.012 0.036,-0.012 h 0.036 l 0.035,-0.012 h 0.047 z m -51.801998,0.047 h 0.735 c 0.161,0 0.503,0.369 0.474,0.533 l -0.628,2.974 c -0.029,0.154 -0.237,0.509 -0.391,0.509 h -0.913 l -0.012,-0.012 h -0.047 v -0.012 h -0.024 l -0.012,-0.012 h -0.012 l -0.012,-0.012 -0.012,-0.012 h -0.012 v -0.012 l -0.012,-0.012 -0.012,-0.012 v -0.012 l -0.012,-0.012 -0.012,-0.012 v -0.024 l -0.012,-0.012 v -0.024 l -0.012,-0.012 v -0.012 c 0,-0.02 -0.003,-0.049 0,-0.071 l 0.711,-3.638 a 0.398,0.398 0 0 1 0.227,-0.091 z m 9.444,0 h 0.735 c 0.161,0 0.506,0.369 0.474,0.533 l -0.628,2.962 c -0.028,0.155 -0.414,0.521 -0.569,0.521 h -0.652 a 0.226,0.226 0 0 1 -0.237,-0.213 c 0,-0.02 -0.002,-0.048 0,-0.071 l 0.699,-3.638 0.012,-0.012 0.012,-0.012 0.024,-0.012 h 0.012 l 0.012,-0.012 0.012,-0.012 h 0.012 l 0.012,-0.012 h 0.012 l 0.024,-0.012 h 0.036 v -0.01 z m -24.076,11.647 v 3.945 h 69.375998 v -3.945 z m 50.661,0.415 h 0.591 c 0.143,0 0.246,0.113 0.217,0.261 l -0.133,0.664 h -0.326 l 0.072,-0.438 c 0.016,-0.099 -0.043,-0.178 -0.145,-0.178 -0.101,0 -0.2,0.078 -0.217,0.178 l -0.06,0.32 c -0.01,0.019 0.02,0.109 0.036,0.118 0.045,0.025 0.471,0.719 0.471,0.77 0.01,0.026 0.016,0.038 0.012,0.047 -0.013,0.087 -0.133,0.675 -0.133,0.675 a 0.32,0.32 0 0 1 -0.302,0.249 h -0.507 a 0.202,0.202 0 0 1 -0.205,-0.249 l 0.121,-0.675 h 0.35 l -0.085,0.486 c -0.016,0.099 0.043,0.19 0.145,0.19 0.097,0 0.201,-0.09 0.217,-0.19 l 0.072,-0.391 c -0.065,-0.164 -0.492,-0.759 -0.519,-0.9 -0.019,-0.016 -0.027,-0.101 -0.024,-0.166 0.004,-0.071 0.097,-0.509 0.097,-0.509 h 0.012 v -0.036 l 0.012,-0.024 v -0.012 l 0.012,-0.012 v -0.012 l 0.012,-0.012 v -0.012 l 0.012,-0.012 0.012,-0.012 v -0.012 h 0.012 l 0.012,-0.012 0.012,-0.012 0.012,-0.012 v -0.012 h 0.012 l 0.012,-0.012 0.012,-0.012 h 0.012 l 0.012,-0.012 h 0.012 l 0.012,-0.012 h 0.036 z m 2.777998,0 h 0.435 l 0.06,1.007 0.556,-1.007 h 0.435 l -0.894,1.54 -0.217,1.126 h -0.386 l 0.193,-1.208 z m 3.949,0 h 0.591 c 0.143,0 0.244,0.113 0.217,0.261 l -0.133,0.664 h -0.326 l 0.072,-0.438 c 0.016,-0.099 -0.043,-0.178 -0.145,-0.178 -0.101,0 -0.201,0.078 -0.217,0.178 l -0.06,0.32 c -0.012,0.019 0.016,0.109 0.036,0.118 0.042,0.025 0.471,0.719 0.471,0.77 0.012,0.026 0.012,0.038 0.012,0.047 l -0.121,0.675 a 0.321,0.321 0 0 1 -0.302,0.249 h -0.519 a 0.202,0.202 0 0 1 -0.205,-0.249 l 0.121,-0.675 h 0.35 l -0.084,0.486 c -0.016,0.099 0.046,0.19 0.145,0.19 0.101,0 0.198,-0.09 0.217,-0.19 l 0.072,-0.391 c -0.066,-0.164 -0.492,-0.759 -0.519,-0.9 -0.019,-0.016 -0.027,-0.101 -0.024,-0.166 0.004,-0.071 0.097,-0.509 0.097,-0.509 l 0.012,-0.012 v -0.024 l 0.012,-0.024 v -0.012 l 0.012,-0.012 v -0.012 l 0.012,-0.012 v -0.012 l 0.012,-0.012 0.012,-0.012 v -0.012 h 0.012 l 0.012,-0.012 0.012,-0.012 0.012,-0.012 0.012,-0.012 0.012,-0.012 0.012,-0.012 h 0.012 l 0.012,-0.012 h 0.012 l 0.012,-0.012 h 0.036 z m 2.814,0 h 0.809 l -0.06,0.32 h -0.205 l -0.423,2.346 h -0.399 l 0.423,-2.346 h -0.205 z m 3.165,0 h 0.725 l -0.06,0.32 h -0.374 l -0.169,0.841 h 0.386 l -0.06,0.273 h -0.374 l -0.157,0.9 h 0.374 l -0.048,0.332 h -0.773 z m 2.983,0 h 0.447 l 0.072,1.54 0.688,-1.528 0.435,-0.012 -0.459,2.666 h -0.338 l 0.217,-1.41 -0.604,1.41 h -0.242 l -0.072,-1.445 -0.266,1.445 h -0.399 z m -64.870998,0.094 h 0.713 l -0.048,0.332 h -0.387 l -0.157,0.829 h 0.374 l -0.048,0.284 h -0.386 l -0.145,0.901 h 0.374 l -0.06,0.332 h -0.773 z m 3.334,0 h 0.338 l 0.181,1.398 0.266,-1.398 h 0.399 l -0.519,2.678 h -0.338 l -0.133,-1.552 -0.314,1.552 h -0.399 z m 3.623,0 h 0.797 l -0.048,0.332 h -0.205 l -0.435,2.346 h -0.386 l 0.423,-2.346 h -0.218 z m 3.515,0 h 0.725 l -0.06,0.332 h -0.374 l -0.169,0.829 h 0.374 l -0.048,0.284 h -0.374 l -0.157,0.901 h 0.374 l -0.048,0.332 h -0.773 z m 3.406,0 h 0.773 c 0.143,0 0.234,0.125 0.205,0.273 l -0.181,0.948 c -0.02,0.103 -0.203,0.186 -0.302,0.225 h 0.048 v 0.012 h 0.048 l 0.012,0.012 h 0.036 v 0.012 h 0.024 v 0.012 h 0.012 a 0.435,0.435 0 0 1 0.024,0.13 c 0,0.016 -0.193,1.055 -0.193,1.055 h -0.35 c 0,0 0.187,-0.933 0.193,-0.971 a 0.504,0.504 0 0 0 -0.012,-0.13 c -0.002,-0.029 -0.004,-0.077 -0.036,-0.107 h -0.242 l -0.229,1.208 h -0.35 z m 3.454,0 h 0.809 l -0.048,0.332 h -0.205 l -0.435,2.346 h -0.387 l 0.423,-2.346 h -0.217 z m 4.022,0 h 0.459 l -0.145,2.678 h -0.459 l 0.06,-0.616 h -0.278 l -0.23,0.616 h -0.411 z m 3.213,0 h 0.35 l -0.519,2.678 h -0.338 z m 3.116,0 h 0.338 l 0.181,1.398 0.266,-1.398 h 0.387 l -0.507,2.678 h -0.35 l -0.121,-1.552 -0.314,1.552 h -0.399 z m 3.998,0 h 0.447 l 0.072,1.552 0.688,-1.54 h 0.435 l -0.459,2.666 h -0.338 l 0.217,-1.41 -0.604,1.41 h -0.242 l -0.072,-1.445 -0.266,1.445 h -0.386 z m 4.384,0 h 0.713 l -0.048,0.332 h -0.387 l -0.157,0.829 h 0.374 l -0.048,0.284 h -0.387 l -0.157,0.901 h 0.387 l -0.06,0.332 h -0.761 z m 3.503,0 h 0.338 l 0.181,1.398 0.266,-1.398 h 0.386 l -0.507,2.678 h -0.338 l -0.133,-1.552 -0.314,1.552 h -0.399 z m 3.587,0 h 0.809 l -0.06,0.332 h -0.205 l -0.423,2.346 h -0.387 l 0.423,-2.346 h -0.217 z m -28.951,0.32 c -0.019,0 -0.035,0.011 -0.048,0.024 l -0.157,0.806 v 0.012 c 0,0.026 0.018,0.047 0.048,0.047 h 0.145 c 0.036,0 0.127,-0.071 0.133,-0.107 l 0.133,-0.663 c 0.006,-0.038 -0.061,-0.118 -0.097,-0.118 h -0.157 z m 7.15,0.806 -0.254,0.675 h 0.193 z"
     id="path33"
     inkscape:connector-curvature="0"
     style="fill:#444245" />
  <circle
     transform="rotate(-80.729)"
     cx="-37.530735"
     cy="241.46873"
     id="ellipse35"
     r="18.909"
     style="fill:#4c4c4c" />
  <circle
     transform="rotate(-45.001)"
     cx="110.54015"
     cy="217.93401"
     id="ellipse37"
     r="18.249001"
     style="fill:#b2b2b2" />
  <path
     d="m 230.27974,78.166 c 0,1.776 -3.22,3.215 -7.191,3.215 -3.972,0 -7.191,-1.44 -7.191,-3.215 0,-1.776 3.22,-3.215 7.191,-3.215 3.972,0 7.191,1.439 7.191,3.215 z"
     id="path39"
     inkscape:connector-curvature="0"
     style="fill:#7cb832" />
  <path
     d="m 243.15374,83.491 c 0,1.776 -3.22,3.215 -7.191,3.215 -3.971,0 -7.191,-1.44 -7.191,-3.215 0,-1.776 3.22,-3.215 7.191,-3.215 3.971,0 7.191,1.44 7.191,3.215 z"
     id="path41"
     inkscape:connector-curvature="0"
     style="fill:#e5dc1d" />
  <path
     d="m 244.01874,81.381 c -0.866,-3.601 -4.004,-7.58 -8.057,-5.85 3.3,-7.612 9.527,-6.401 11.69,-3.806 1.684,2.021 1.644,8.933 -3.633,9.656 z"
     id="path43"
     inkscape:connector-curvature="0"
     style="fill:#c21e27" />
  <path
     d="m 231.34474,75.559 c -0.866,-3.601 -4.004,-7.58 -8.057,-5.85 3.3,-7.612 9.527,-6.401 11.69,-3.806 1.684,2.021 1.644,8.933 -3.633,9.656 z"
     id="path45"
     inkscape:connector-curvature="0"
     style="fill:#1d54b8" />
  <path
     d="m 40.445742,6.648 h 0.616 v 33.756 h -0.616 z m 207.430998,0 h 0.616 v 33.756 h -0.616 z m 4.276,282.818 h 0.616 v 57.705 h -0.616 z m -215.985998,0.003 h 0.616 v 57.702 h -0.616 z"
     id="path47"
     inkscape:connector-curvature="0"
     style="fill:#4c4c4c" />
  <g
     id="g55"
     style="fill:#444245"
     transform="translate(-2.581203e-4)">
    <path
       d="m 52.692,312.836 c -2.794,-0.001 -4.662,-1.981 -4.662,-4.383 0,-2.401 1.872,-4.405 4.658,-4.397 h 26.328 c 2.785,-0.008 4.657,1.996 4.657,4.397 0,2.402 -1.867,4.382 -4.661,4.383 z m 0.009,-7.701 c -2.213,0.004 -3.57,1.484 -3.57,3.312 0,1.829 1.35,3.319 3.57,3.312 h 26.302 c 2.222,0.008 3.571,-1.482 3.571,-3.312 0,-1.829 -1.358,-3.309 -3.571,-3.312 z"
       id="path49"
       inkscape:connector-curvature="0" />
    <path
       d="m 51.566,306.371 h 1.289 l 1.782,2.883 -10e-4,-2.883 h 1.277 v 4.134 h -1.276 l -1.791,-2.883 v 2.883 h -1.281 z m 11.294,0.425 h 1.244 v 0.556 h 0.673 v 0.409 h -0.673 l 0.001,2.743 H 62.86 l 10e-4,-2.743 h -0.675 v -0.408 l 0.675,-0.001 z m -6.236,0.96 h 1.243 v 2.75 h -1.243 z m -0.003,-1.386 h 1.246 v 0.846 h -1.246 z m 21.787,1.199 c -1.003,0 -1.817,0.69 -1.817,1.543 0,0.852 0.813,1.543 1.817,1.543 1.004,0 1.816,-0.691 1.816,-1.543 0,-0.853 -0.812,-1.543 -1.816,-1.543 m 0.499,1.539 -10e-4,0.582 c 0,0.438 -0.258,0.618 -0.508,0.618 -0.249,0 -0.51,-0.18 -0.51,-0.618 l 10e-4,-0.593 0.001,-0.572 c 0,-0.437 0.261,-0.616 0.508,-0.616 0.248,0 0.508,0.179 0.508,0.616 0,0.166 -0.001,0.475 10e-4,0.584 z m -3.939,0.009 v -0.492 c 0,-0.425 -0.294,-0.533 -0.487,-0.533 -0.198,0 -0.487,0.108 -0.487,0.533 v 0.978 c 0,0.426 0.289,0.535 0.487,0.535 0.193,0 0.487,-0.109 0.487,-0.535 z m -0.008,-2.746 h 1.226 v 4.133 h -1.229 l -10e-4,-0.158 a 1.498,1.498 0 0 1 -1.431,0.104 1.47,1.47 0 0 1 -0.849,-1.364 c 0,-0.725 0.684,-1.518 1.58,-1.439 0.295,0.026 0.505,0.134 0.704,0.246 z m -14.182,1.258 c 0.465,-0.013 1.407,0.291 1.401,1.379 l -0.001,1.496 h -1.234 v -1.805 c 0,-0.24 -0.229,-0.506 -0.568,-0.506 -0.339,0 -0.59,0.266 -0.59,0.506 l 10e-4,1.805 h -1.234 l -10e-4,-2.748 1.235,-10e-4 v 0.289 c 0.237,-0.227 0.58,-0.403 0.991,-0.415 m 10.101,0 c 0.465,-0.013 1.408,0.291 1.401,1.379 v 1.496 h -1.236 v -1.805 c 0,-0.24 -0.229,-0.506 -0.568,-0.506 -0.339,0 -0.589,0.266 -0.589,0.506 l 0.001,1.805 h -1.234 v -2.748 l 1.234,-10e-4 v 0.289 c 0.238,-0.227 0.58,-0.403 0.991,-0.415 m -3.911,1.914 10e-4,0.167 c 0,0.503 -0.33,0.615 -0.514,0.615 -0.183,0 -0.52,-0.112 -0.52,-0.615 l 0.001,-0.567 c 0,0 2.341,0.001 2.341,-10e-4 0,-0.852 -0.823,-1.558 -1.834,-1.558 -1.011,0 -1.83,0.69 -1.83,1.543 0,0.853 0.819,1.543 1.83,1.543 0.839,0 1.548,-0.479 1.764,-1.128 z m -1.032,-0.829 c -0.003,-0.241 0.003,-0.401 0.082,-0.539 a 0.506,0.506 0 0 1 0.873,0 c 0.079,0.137 0.084,0.298 0.082,0.539 z m 14.544,-1.889 c 0.121,0 0.229,-0.008 0.229,-0.153 0,-0.116 -0.106,-0.137 -0.205,-0.137 H 80.31 v 0.291 h 0.17 z m -0.169,0.529 h -0.142 v -0.941 h 0.357 c 0.223,0 0.333,0.082 0.333,0.268 0,0.168 -0.106,0.241 -0.244,0.259 l 0.267,0.414 h -0.16 l -0.249,-0.408 H 80.31 Z"
       id="path51"
       inkscape:connector-curvature="0" />
    <path
       d="m 80.482,307.564 c 0.37,0 0.661,-0.289 0.661,-0.682 a 0.658,0.658 0 0 0 -0.661,-0.677 0.66,0.66 0 0 0 -0.665,0.677 0.66,0.66 0 0 0 0.665,0.682 m -0.828,-0.682 c 0,-0.468 0.379,-0.813 0.828,-0.813 a 0.8155,0.8155 0 1 1 0,1.631 0.815,0.815 0 0 1 -0.828,-0.818"
       id="path53"
       inkscape:connector-curvature="0" />
  </g>
  <g
     id="g59"
     style="fill:#707175"
     transform="translate(-2.581203e-4)">
    <path
       d="m 214.238,319.677 c 0.003,0.003 0.006,0.004 0.01,0.004 h 0.162 c 0.05,0 0.102,0.003 0.152,0.008 0.09,0.006 0.181,0.019 0.27,0.038 0.09,0.021 0.173,0.053 0.25,0.099 a 0.688,0.688 0 0 1 0.302,0.34 c 0.061,0.144 0.092,0.295 0.095,0.452 0.002,0.144 -0.022,0.282 -0.074,0.416 a 0.745,0.745 0 0 1 -0.258,0.332 0.863,0.863 0 0 1 -0.33,0.142 2.555,2.555 0 0 1 -0.362,0.042 h -0.193 l -0.731,-0.004 v 1.004 h -0.604 v -2.872 h 1.311 z m -0.008,0.511 h -0.7 v 0.849 h 0.736 a 0.801,0.801 0 0 0 0.38,-0.086 c 0.106,-0.058 0.159,-0.169 0.159,-0.334 0.006,-0.185 -0.051,-0.301 -0.17,-0.351 a 1.052,1.052 0 0 0 -0.405,-0.074 z m 1.56,0.289 c 0.069,-0.21 0.171,-0.382 0.306,-0.514 0.135,-0.132 0.312,-0.226 0.53,-0.282 a 2.37,2.37 0 0 1 0.78,-0.048 c 0.093,0.011 0.183,0.028 0.268,0.052 0.214,0.054 0.388,0.146 0.524,0.28 0.136,0.134 0.235,0.306 0.3,0.516 a 2.49,2.49 0 0 1 0.084,0.624 c 0,0.115 -0.007,0.227 -0.021,0.336 a 1.927,1.927 0 0 1 -0.063,0.313 c -0.064,0.216 -0.165,0.39 -0.304,0.521 a 1.114,1.114 0 0 1 -0.536,0.274 1.904,1.904 0 0 1 -0.265,0.046 2.52,2.52 0 0 1 -0.275,0.014 c -0.083,0 -0.166,-0.005 -0.248,-0.016 a 2.44,2.44 0 0 1 -0.244,-0.044 1.127,1.127 0 0 1 -0.532,-0.274 1.156,1.156 0 0 1 -0.304,-0.521 2.292,2.292 0 0 1 -0.084,-0.636 c 0,-0.112 0.007,-0.224 0.02,-0.334 a 1.7,1.7 0 0 1 0.064,-0.303 z m 0.624,0.204 a 1.49,1.49 0 0 0 -0.04,0.218 2.023,2.023 0 0 0 0.002,0.441 c 0.009,0.073 0.021,0.145 0.038,0.214 a 0.854,0.854 0 0 0 0.146,0.32 0.59,0.59 0 0 0 0.286,0.2 0.83,0.83 0 0 0 0.145,0.035 0.856,0.856 0 0 0 0.303,0 0.892,0.892 0 0 0 0.144,-0.035 c 0.123,-0.043 0.219,-0.109 0.288,-0.2 0.069,-0.091 0.117,-0.197 0.145,-0.32 a 1.813,1.813 0 0 0 0,-0.869 0.812,0.812 0 0 0 -0.145,-0.321 0.562,0.562 0 0 0 -0.288,-0.198 0.983,0.983 0 0 0 -0.447,-0.036 0.831,0.831 0 0 0 -0.145,0.036 0.573,0.573 0 0 0 -0.284,0.2 0.936,0.936 0 0 0 -0.147,0.319 v -0.004 z m 2.897,-1.004 0.664,2.208 0.56,-2.208 h 0.712 l 0.645,2.208 0.619,-2.208 h 0.62 l -0.888,2.872 h -0.74 l -0.611,-2.144 -0.536,2.144 h -0.736 l -0.952,-2.872 z m 4.787,0.677 c -0.109,0.116 -0.17,0.281 -0.184,0.494 l 1.672,-0.004 v 0.5 h -1.676 c 0,0.102 0.011,0.199 0.034,0.292 a 0.57,0.57 0 0 0 0.138,0.256 0.385,0.385 0 0 0 0.218,0.134 c 0.084,0.018 0.17,0.026 0.258,0.026 h 0.037 l 0.992,-0.004 v 0.5 h -1.02 a 2.5,2.5 0 0 1 -0.471,-0.044 1.05,1.05 0 0 1 -0.762,-0.682 1.938,1.938 0 0 1 -0.104,-0.578 c -0.003,-0.043 -0.004,-0.084 -0.003,-0.124 l 0.007,-0.12 c 0.029,-0.453 0.152,-0.787 0.37,-1 0.217,-0.214 0.543,-0.32 0.978,-0.32 l 1.004,-0.004 v 0.5 h -0.992 c -0.221,0.004 -0.387,0.063 -0.496,0.178 z m 3.504,-0.677 a 0.838,0.838 0 0 0 0.086,0.004 c 0.027,0 0.057,0.002 0.086,0.004 0.109,0.006 0.217,0.022 0.321,0.053 a 0.631,0.631 0 0 1 0.278,0.163 0.669,0.669 0 0 1 0.162,0.244 1.03,1.03 0 0 1 0.068,0.345 l 0.002,0.056 a 0.907,0.907 0 0 1 -0.139,0.518 0.69,0.69 0 0 1 -0.441,0.29 l 0.716,1.196 h -0.68 l -0.633,-1.128 h -0.712 v 1.128 h -0.604 v -2.872 h 1.49 z m -0.144,0.511 h -0.74 v 0.725 h 0.74 c 0.006,0.002 0.011,0.004 0.016,0.004 h 0.017 c 0.128,0 0.244,-0.02 0.35,-0.059 0.105,-0.038 0.157,-0.141 0.154,-0.306 0,-0.171 -0.056,-0.273 -0.166,-0.308 a 1.22,1.22 0 0 0 -0.37,-0.053 v -0.003 z"
       id="path57"
       inkscape:connector-curvature="0" />
  </g>
  <g
     id="g63"
     style="fill:#dcdbe1"
     transform="translate(-2.581203e-4)">
    <path
       d="m 134.555,260.16 c -0.191,0.203 -0.299,0.491 -0.322,0.865 l 2.926,-0.008 v 0.875 h -2.933 c 0,0.178 0.02,0.348 0.06,0.512 0.04,0.163 0.12,0.313 0.241,0.447 0.107,0.126 0.235,0.205 0.382,0.235 0.147,0.03 0.297,0.045 0.451,0.045 h 0.063 l 1.736,-0.007 V 264 h -1.785 c -0.285,0 -0.559,-0.025 -0.823,-0.077 a 1.705,1.705 0 0 1 -0.745,-0.356 1.825,1.825 0 0 1 -0.588,-0.837 3.428,3.428 0 0 1 -0.182,-1.012 1.974,1.974 0 0 1 -0.003,-0.217 c 0.002,-0.07 0.005,-0.14 0.01,-0.21 0.051,-0.793 0.267,-1.377 0.647,-1.75 0.38,-0.373 0.951,-0.56 1.711,-0.56 l 1.757,-0.008 v 0.875 h -1.736 c -0.387,0.006 -0.677,0.109 -0.867,0.312 z m 4.227,3.007 c 0.527,0.005 0.851,-0.119 0.97,-0.371 0.119,-0.252 0.179,-0.604 0.179,-1.057 v -2.766 h 1.099 v 2.989 c 0,0.056 -0.001,0.108 -0.003,0.157 -0.002,0.05 -0.003,0.1 -0.003,0.151 -0.014,0.219 -0.054,0.434 -0.119,0.644 -0.065,0.21 -0.172,0.399 -0.322,0.567 a 1.3,1.3 0 0 1 -0.731,0.438 4.48,4.48 0 0 1 -0.857,0.08 h -1.45 v -0.833 h 1.237 z m 4.411,-3.007 c -0.191,0.203 -0.299,0.491 -0.322,0.865 l 2.926,-0.008 v 0.875 h -2.933 c 0,0.178 0.02,0.348 0.06,0.512 0.04,0.163 0.12,0.313 0.241,0.447 0.107,0.126 0.235,0.205 0.382,0.235 0.147,0.03 0.297,0.045 0.451,0.045 h 0.063 l 1.736,-0.007 V 264 h -1.785 c -0.285,0 -0.559,-0.025 -0.823,-0.077 a 1.705,1.705 0 0 1 -0.745,-0.356 1.825,1.825 0 0 1 -0.588,-0.837 3.428,3.428 0 0 1 -0.182,-1.012 1.974,1.974 0 0 1 -0.003,-0.217 c 0.002,-0.07 0.005,-0.14 0.01,-0.21 0.051,-0.793 0.267,-1.377 0.647,-1.75 0.38,-0.373 0.951,-0.56 1.711,-0.56 l 1.757,-0.008 v 0.875 h -1.736 c -0.387,0.006 -0.676,0.109 -0.867,0.312 z m 4.612,0.179 c -0.148,0.331 -0.23,0.717 -0.244,1.155 v 0.228 a 2.356,2.356 0 0 0 0.098,0.713 c 0.047,0.156 0.123,0.295 0.23,0.416 a 0.705,0.705 0 0 0 0.389,0.235 c 0.147,0.03 0.298,0.045 0.451,0.045 h 0.063 l 1.736,-0.007 V 264 h -1.785 c -0.284,0 -0.56,-0.025 -0.823,-0.077 a 1.697,1.697 0 0 1 -0.744,-0.356 c -0.281,-0.229 -0.477,-0.508 -0.589,-0.837 -0.112,-0.329 -0.173,-0.666 -0.182,-1.012 a 1.974,1.974 0 0 1 -0.003,-0.217 c 0.002,-0.07 0.005,-0.14 0.01,-0.21 0.051,-0.793 0.268,-1.377 0.647,-1.75 0.379,-0.373 0.95,-0.56 1.712,-0.56 l 1.757,-0.008 v 0.861 h -1.736 c -0.508,0.006 -0.837,0.174 -0.987,0.505 z m 2.982,-0.483 v -0.875 h 4.34 v 0.875 h -1.631 V 264 h -1.092 v -4.144 z"
       id="path61"
       inkscape:connector-curvature="0" />
  </g>
  <g
     id="g67"
     style="fill:#dcdbe1"
     transform="translate(-2.581203e-4)">
    <path
       d="m 212.555,258.912 c 0.052,0.005 0.102,0.008 0.15,0.008 0.048,0 0.099,0.002 0.15,0.007 0.191,0.009 0.38,0.039 0.563,0.091 0.185,0.052 0.347,0.146 0.486,0.287 0.127,0.121 0.221,0.264 0.283,0.427 0.063,0.163 0.102,0.331 0.116,0.504 0,0.033 0.001,0.065 0.003,0.098 0.003,0.033 0.004,0.065 0.004,0.099 0.005,0.35 -0.076,0.652 -0.241,0.906 -0.166,0.255 -0.424,0.424 -0.774,0.508 l 1.254,2.093 h -1.19 l -1.106,-1.974 h -1.245 v 1.974 h -1.058 v -5.026 h 2.605 z m -0.252,0.897 h -1.295 v 1.267 h 1.295 a 0.058,0.058 0 0 0 0.028,0.007 h 0.027 c 0.225,0 0.428,-0.033 0.613,-0.101 0.184,-0.068 0.273,-0.246 0.27,-0.536 0,-0.299 -0.098,-0.479 -0.291,-0.539 -0.193,-0.06 -0.41,-0.091 -0.647,-0.091 z m 4.102,0.29 c -0.191,0.203 -0.299,0.491 -0.322,0.865 l 2.926,-0.008 v 0.875 h -2.934 c 0,0.178 0.02,0.348 0.061,0.512 0.039,0.163 0.119,0.313 0.24,0.447 a 0.67,0.67 0 0 0 0.383,0.235 c 0.146,0.03 0.297,0.045 0.451,0.045 h 0.062 l 1.736,-0.007 v 0.875 h -1.785 a 4.23,4.23 0 0 1 -0.822,-0.077 1.833,1.833 0 0 1 -1.334,-1.193 3.46,3.46 0 0 1 -0.182,-1.012 c -0.005,-0.074 -0.006,-0.146 -0.004,-0.217 0.002,-0.071 0.006,-0.14 0.011,-0.21 0.052,-0.793 0.267,-1.377 0.647,-1.75 0.38,-0.373 0.951,-0.56 1.711,-0.56 l 1.758,-0.008 v 0.875 h -1.736 c -0.386,0.006 -0.676,0.11 -0.867,0.313 z m 5.165,-0.29 c -0.229,0.005 -0.421,0.053 -0.577,0.144 -0.156,0.091 -0.234,0.265 -0.234,0.521 0,0.196 0.066,0.336 0.199,0.42 0.133,0.084 0.288,0.126 0.465,0.126 l 1.4,-0.007 c 0.052,0.005 0.105,0.007 0.161,0.007 0.056,0 0.112,0.002 0.168,0.007 0.163,0.01 0.325,0.036 0.483,0.081 a 0.972,0.972 0 0 1 0.42,0.241 c 0.111,0.103 0.195,0.227 0.252,0.371 0.057,0.144 0.091,0.294 0.105,0.447 0.004,0.047 0.008,0.093 0.01,0.137 0.002,0.045 0.004,0.09 0.004,0.137 -0.01,0.583 -0.17,0.979 -0.483,1.187 -0.313,0.208 -0.737,0.312 -1.274,0.312 h -2.813 v -0.896 h 2.646 a 1.35,1.35 0 0 0 0.605,-0.111 c 0.171,-0.079 0.24,-0.259 0.207,-0.539 -0.023,-0.22 -0.105,-0.354 -0.245,-0.406 a 1.576,1.576 0 0 0 -0.497,-0.084 l -1.246,-0.007 c -0.518,0.005 -0.928,-0.1 -1.229,-0.312 -0.301,-0.212 -0.449,-0.596 -0.444,-1.151 0.009,-0.583 0.172,-0.981 0.487,-1.193 0.314,-0.213 0.74,-0.318 1.277,-0.318 l 2.765,-0.008 v 0.896 h -2.612 z m 4.852,0.29 c -0.191,0.203 -0.299,0.491 -0.322,0.865 l 2.927,-0.008 v 0.875 h -2.934 c 0,0.178 0.02,0.348 0.06,0.512 0.04,0.163 0.12,0.313 0.241,0.447 0.107,0.126 0.234,0.205 0.382,0.235 0.148,0.03 0.298,0.045 0.451,0.045 h 0.063 l 1.736,-0.007 v 0.875 h -1.785 a 4.24,4.24 0 0 1 -0.823,-0.077 1.7,1.7 0 0 1 -0.745,-0.356 1.818,1.818 0 0 1 -0.588,-0.837 3.396,3.396 0 0 1 -0.182,-1.012 c -0.006,-0.074 -0.006,-0.146 -0.004,-0.217 0.002,-0.071 0.006,-0.14 0.01,-0.21 0.052,-0.793 0.268,-1.377 0.648,-1.75 0.38,-0.373 0.95,-0.56 1.711,-0.56 l 1.758,-0.008 v 0.875 h -1.736 c -0.388,0.006 -0.678,0.11 -0.868,0.313 z m 3.01,-0.304 v -0.875 h 4.34 v 0.875 h -1.631 v 4.144 h -1.092 v -4.144 z"
       id="path65"
       inkscape:connector-curvature="0" />
  </g>
  <g
     id="g71"
     style="fill:#616666"
     transform="translate(-2.581203e-4)">
    <path
       d="m 24.37,242.681 c 0.104,-0.315 0.257,-0.572 0.459,-0.771 0.202,-0.199 0.467,-0.339 0.795,-0.423 0.12,-0.028 0.244,-0.05 0.372,-0.066 0.128,-0.016 0.256,-0.023 0.384,-0.023 a 2.887,2.887 0 0 1 0.816,0.096 c 0.32,0.08 0.582,0.22 0.786,0.42 0.204,0.2 0.354,0.458 0.45,0.774 a 3.66,3.66 0 0 1 0.096,1.439 c -0.021,0.164 -0.052,0.32 -0.096,0.468 -0.097,0.324 -0.248,0.585 -0.456,0.783 -0.208,0.198 -0.477,0.335 -0.805,0.411 -0.128,0.032 -0.26,0.055 -0.396,0.069 a 4.04,4.04 0 0 1 -0.414,0.021 3.096,3.096 0 0 1 -0.738,-0.089 c -0.324,-0.076 -0.59,-0.213 -0.798,-0.411 -0.208,-0.198 -0.36,-0.459 -0.456,-0.783 a 3.22,3.22 0 0 1 -0.093,-0.456 c -0.022,-0.164 -0.033,-0.33 -0.033,-0.498 0,-0.168 0.01,-0.335 0.03,-0.501 0.02,-0.165 0.052,-0.316 0.096,-0.452 v -0.008 z m 0.937,0.306 a 2.269,2.269 0 0 0 -0.061,0.327 2.995,2.995 0 0 0 -0.018,0.326 c 0,0.112 0.007,0.224 0.021,0.333 0.015,0.11 0.033,0.218 0.058,0.321 0.044,0.185 0.116,0.344 0.219,0.48 a 0.887,0.887 0 0 0 0.429,0.3 1.338,1.338 0 0 0 0.445,0.073 1.461,1.461 0 0 0 0.444,-0.073 0.902,0.902 0 0 0 0.433,-0.3 c 0.104,-0.137 0.176,-0.296 0.216,-0.48 0.024,-0.104 0.043,-0.211 0.057,-0.321 a 2.45,2.45 0 0 0 0,-0.659 2.941,2.941 0 0 0 -0.057,-0.321 1.223,1.223 0 0 0 -0.216,-0.483 0.86,0.86 0 0 0 -0.433,-0.297 1.451,1.451 0 0 0 -0.673,-0.054 c -0.075,0.012 -0.147,0.03 -0.216,0.054 a 0.863,0.863 0 0 0 -0.426,0.3 c -0.1,0.137 -0.174,0.297 -0.222,0.48 z m 5.004,-1.506 1.764,3.096 -0.042,-3.096 h 0.924 v 4.308 h -1.05 l -1.854,-3.258 0.042,3.258 h -0.931 v -4.308 z"
       id="path69"
       inkscape:connector-curvature="0" />
  </g>
  <g
     id="g75"
     style="fill:#616666"
     transform="translate(-2.581203e-4)">
    <path
       d="m 24.37,254.681 c 0.104,-0.315 0.257,-0.572 0.459,-0.771 0.202,-0.199 0.467,-0.339 0.795,-0.423 0.12,-0.028 0.244,-0.05 0.372,-0.066 0.128,-0.016 0.256,-0.023 0.384,-0.023 a 2.887,2.887 0 0 1 0.816,0.096 c 0.32,0.08 0.582,0.22 0.786,0.42 0.204,0.2 0.354,0.458 0.45,0.774 a 3.66,3.66 0 0 1 0.096,1.439 c -0.021,0.164 -0.052,0.32 -0.096,0.468 -0.097,0.324 -0.248,0.585 -0.456,0.783 -0.208,0.198 -0.477,0.335 -0.805,0.411 -0.128,0.032 -0.26,0.055 -0.396,0.069 a 4.04,4.04 0 0 1 -0.414,0.021 3.096,3.096 0 0 1 -0.738,-0.089 c -0.324,-0.076 -0.59,-0.213 -0.798,-0.411 -0.208,-0.198 -0.36,-0.459 -0.456,-0.783 a 3.22,3.22 0 0 1 -0.093,-0.456 c -0.022,-0.164 -0.033,-0.33 -0.033,-0.498 0,-0.168 0.01,-0.335 0.03,-0.501 0.02,-0.165 0.052,-0.316 0.096,-0.452 v -0.008 z m 0.937,0.306 a 2.269,2.269 0 0 0 -0.061,0.327 2.995,2.995 0 0 0 -0.018,0.326 c 0,0.112 0.007,0.224 0.021,0.333 0.015,0.11 0.033,0.218 0.058,0.321 0.044,0.185 0.116,0.344 0.219,0.48 a 0.887,0.887 0 0 0 0.429,0.3 1.338,1.338 0 0 0 0.445,0.073 1.461,1.461 0 0 0 0.444,-0.073 0.902,0.902 0 0 0 0.433,-0.3 c 0.104,-0.137 0.176,-0.296 0.216,-0.48 0.024,-0.104 0.043,-0.211 0.057,-0.321 a 2.45,2.45 0 0 0 0,-0.659 2.941,2.941 0 0 0 -0.057,-0.321 1.223,1.223 0 0 0 -0.216,-0.483 0.86,0.86 0 0 0 -0.433,-0.297 1.451,1.451 0 0 0 -0.673,-0.054 c -0.075,0.012 -0.147,0.03 -0.216,0.054 a 0.863,0.863 0 0 0 -0.426,0.3 c -0.1,0.137 -0.174,0.297 -0.222,0.48 z m 4.22,-0.96 c 0.262,-0.36 0.837,-0.54 1.726,-0.54 l 1.38,-0.006 v 0.75 h -1.458 c -0.381,0.008 -0.659,0.09 -0.837,0.246 -0.179,0.155 -0.277,0.426 -0.298,0.81 l 2.593,-0.006 v 0.744 H 30.04 v 1.764 h -0.905 v -1.98 c 0,-0.828 0.131,-1.422 0.392,-1.782 z m 4.069,0 c 0.262,-0.36 0.837,-0.54 1.725,-0.54 l 1.38,-0.006 v 0.75 h -1.458 c -0.38,0.008 -0.659,0.09 -0.837,0.246 -0.178,0.155 -0.277,0.426 -0.297,0.81 l 2.592,-0.006 v 0.744 h -2.592 v 1.764 h -0.906 v -1.98 c -0.001,-0.828 0.13,-1.422 0.393,-1.782 z"
       id="path73"
       inkscape:connector-curvature="0" />
  </g>
  <circle
     cx="42.07674"
     cy="243.644"
     r="1.327"
     id="circle77"
     style="fill:#616666" />
  <circle
     cx="42.07674"
     cy="255.644"
     r="1.327"
     id="circle79"
     style="fill:#616666" />
  <path
     d="m 79.214742,271.391 h -24.969 c -3.268,0 -5.942,-2.674 -5.942,-5.942 v -31.687 c 0,-3.268 2.674,-5.942 5.942,-5.942 h 24.969 c 3.268,0 5.942,2.674 5.942,5.942 v 31.687 c 0,3.268 -2.674,5.942 -5.942,5.942 z"
     id="path81"
     inkscape:connector-curvature="0"
     style="fill:#7c7d7f" />
  <path
     d="m 79.773742,265.391 h -25.924 c -3.006,0 -5.465,-2.459 -5.465,-5.465 v -25.924 c 0,-3.006 2.459,-5.465 5.465,-5.465 h 25.924 c 3.006,0 5.465,2.459 5.465,5.465 v 25.924 c 0,3.006 -2.459,5.465 -5.465,5.465 z"
     id="path83"
     inkscape:connector-curvature="0"
     style="fill:#444245" />
  <path
     d="m 84.000742,245.83 h -34.541 a 1.16,1.16 0 0 1 -1.156,-1.156 v -2.137 c 0,-0.636 0.52,-1.156 1.156,-1.156 h 34.541 c 0.636,0 1.156,0.52 1.156,1.156 v 2.137 a 1.16,1.16 0 0 1 -1.156,1.156 z"
     id="path85"
     inkscape:connector-curvature="0"
     style="fill:#494747" />
  <path
     d="m 49.467742,241.38 c -0.601,0 -1.083,0.493 -1.142,1.112 0.059,0.619 0.541,1.113 1.142,1.113 h 34.524 c 0.601,0 1.083,-0.493 1.142,-1.113 -0.059,-0.619 -0.541,-1.112 -1.142,-1.112 z"
     id="path87"
     inkscape:connector-curvature="0"
     style="fill:#666666" />
  <g
     id="g91"
     style="fill:#dcdbe1"
     transform="translate(-2.581203e-4)">
    <path
       d="m 55.187,256.132 c 0.005,0.005 0.011,0.008 0.018,0.008 h 0.285 c 0.088,0 0.177,0.004 0.266,0.014 0.158,0.01 0.316,0.031 0.473,0.066 0.157,0.035 0.302,0.092 0.438,0.172 0.247,0.145 0.423,0.343 0.528,0.595 0.104,0.252 0.16,0.516 0.164,0.791 0.005,0.252 -0.038,0.494 -0.129,0.728 -0.091,0.234 -0.242,0.428 -0.452,0.581 a 1.46,1.46 0 0 1 -0.577,0.249 4.59,4.59 0 0 1 -0.634,0.073 h -0.336 l -1.28,-0.007 v 1.757 h -1.058 v -5.026 h 2.294 z m -0.013,0.896 h -1.225 v 1.483 h 1.287 c 0.257,0 0.479,-0.05 0.665,-0.15 0.187,-0.1 0.28,-0.295 0.28,-0.584 0.01,-0.322 -0.09,-0.526 -0.297,-0.612 a 1.828,1.828 0 0 0 -0.711,-0.13 v -0.007 z m 2.729,0.504 c 0.122,-0.368 0.3,-0.669 0.536,-0.899 0.235,-0.231 0.545,-0.396 0.927,-0.493 a 3.984,3.984 0 0 1 0.883,-0.105 3.27,3.27 0 0 1 0.951,0.112 c 0.374,0.093 0.68,0.257 0.917,0.489 0.238,0.233 0.413,0.535 0.525,0.903 a 4.205,4.205 0 0 1 0.147,1.092 c 0,0.201 -0.012,0.397 -0.035,0.588 a 3.353,3.353 0 0 1 -0.112,0.547 c -0.112,0.378 -0.289,0.682 -0.532,0.913 -0.242,0.231 -0.555,0.391 -0.938,0.479 a 3.3,3.3 0 0 1 -0.462,0.08 4.54,4.54 0 0 1 -0.483,0.025 c -0.145,0 -0.289,-0.01 -0.434,-0.028 a 4.61,4.61 0 0 1 -0.428,-0.077 c -0.378,-0.089 -0.688,-0.248 -0.931,-0.479 -0.243,-0.231 -0.42,-0.535 -0.532,-0.913 -0.047,-0.164 -0.083,-0.341 -0.108,-0.532 -0.025,-0.191 -0.038,-0.385 -0.038,-0.581 0,-0.196 0.012,-0.391 0.035,-0.585 0.022,-0.193 0.061,-0.369 0.111,-0.528 v -0.008 z m 1.093,0.357 a 2.5,2.5 0 0 0 -0.07,0.381 3.357,3.357 0 0 0 0.07,1.145 c 0.051,0.215 0.136,0.401 0.255,0.561 0.119,0.158 0.286,0.275 0.501,0.35 0.079,0.028 0.163,0.049 0.252,0.063 a 1.694,1.694 0 0 0 0.785,-0.063 c 0.214,-0.074 0.382,-0.191 0.504,-0.35 a 1.41,1.41 0 0 0 0.252,-0.561 c 0.027,-0.121 0.05,-0.246 0.066,-0.374 a 3.15,3.15 0 0 0 -0.066,-1.145 1.431,1.431 0 0 0 -0.252,-0.563 1.011,1.011 0 0 0 -0.504,-0.347 1.694,1.694 0 0 0 -0.785,-0.063 1.498,1.498 0 0 0 -0.252,0.063 0.996,0.996 0 0 0 -0.497,0.35 1.627,1.627 0 0 0 -0.259,0.561 z m 5.067,-1.757 1.162,3.864 0.98,-3.864 h 1.246 l 1.127,3.864 1.085,-3.864 h 1.085 l -1.555,5.026 h -1.295 l -1.07,-3.752 -0.938,3.752 h -1.288 l -1.666,-5.026 z m 8.379,1.186 c -0.191,0.203 -0.299,0.491 -0.322,0.865 l 2.927,-0.008 v 0.875 h -2.934 c 0,0.178 0.02,0.348 0.06,0.512 0.04,0.163 0.12,0.313 0.241,0.447 a 0.672,0.672 0 0 0 0.382,0.235 c 0.147,0.03 0.298,0.045 0.451,0.045 h 0.063 l 1.736,-0.007 v 0.875 h -1.785 a 4.24,4.24 0 0 1 -0.823,-0.077 1.705,1.705 0 0 1 -0.745,-0.356 c -0.28,-0.229 -0.476,-0.508 -0.588,-0.837 -0.112,-0.329 -0.173,-0.666 -0.182,-1.012 -0.005,-0.074 -0.006,-0.146 -0.004,-0.217 0.002,-0.071 0.006,-0.14 0.011,-0.21 0.051,-0.793 0.267,-1.377 0.647,-1.75 0.38,-0.373 0.95,-0.56 1.711,-0.56 l 1.758,-0.008 v 0.875 H 73.31 c -0.387,0.006 -0.676,0.11 -0.868,0.313 z m 6.132,-1.186 c 0.052,0.005 0.102,0.008 0.15,0.008 0.048,0 0.1,0.002 0.15,0.007 0.191,0.009 0.38,0.039 0.563,0.091 0.185,0.052 0.347,0.146 0.487,0.287 0.126,0.121 0.22,0.264 0.283,0.427 a 1.757,1.757 0 0 1 0.119,0.602 c 0.002,0.033 0.003,0.065 0.003,0.099 0.005,0.35 -0.075,0.652 -0.241,0.906 -0.166,0.255 -0.424,0.424 -0.773,0.508 l 1.253,2.093 h -1.19 l -1.105,-1.974 h -1.246 v 1.974 H 75.97 v -5.026 h 2.604 z m -0.252,0.896 h -1.295 v 1.267 h 1.295 a 0.06,0.06 0 0 0 0.028,0.007 h 0.027 c 0.225,0 0.429,-0.033 0.613,-0.101 0.184,-0.068 0.273,-0.246 0.27,-0.536 0,-0.299 -0.098,-0.479 -0.291,-0.539 -0.193,-0.06 -0.409,-0.091 -0.647,-0.091 z"
       id="path89"
       inkscape:connector-curvature="0" />
  </g>
  <g
     id="g95"
     style="fill:#85898a"
     transform="translate(-2.581203e-4)">
    <path
       d="m 116.089,141.348 a 1.555,1.555 0 0 1 -0.479,0.842 c -0.246,0.225 -0.499,0.338 -0.759,0.338 h -1.044 l -0.276,1.3 h -0.751 l 0.775,-3.645 h 1.715 c 0.577,0 0.865,0.265 0.865,0.795 a 1.762,1.762 0 0 1 -0.046,0.37 z m -0.7,-0.19 c 0,-0.233 -0.122,-0.35 -0.366,-0.35 h -0.856 l -0.228,1.095 h 0.875 c 0.15,0 0.285,-0.088 0.405,-0.265 a 0.843,0.843 0 0 0 0.17,-0.48 z m 6.61,2.67 h -0.767 l -0.1,-0.73 h -1.346 l -0.41,0.73 h -0.763 l 2.045,-3.645 h 0.865 z m -0.908,-1.355 -0.181,-1.423 -0.752,1.423 z m 6.782,0.73 -0.135,0.625 h -2.495 l 0.775,-3.645 h 0.747 l -0.637,3.02 z m 10.931,-3.02 -2.015,3.645 h -0.645 l -0.46,-3.645 h 0.755 l 0.22,2.745 1.385,-2.745 z m 5.88,0 -0.135,0.625 h -1.892 l -0.171,0.83 h 1.743 l -0.13,0.625 h -1.746 l -0.2,0.94 h 1.976 l -0.135,0.625 h -2.725 l 0.775,-3.645 z m 6.179,1.01 c -0.083,0.39 -0.323,0.683 -0.72,0.88 0.229,0.14 0.33,0.296 0.3,0.47 l -0.15,0.89 c -0.02,0.11 0.007,0.195 0.08,0.255 l -0.03,0.14 h -0.81 a 1.138,1.138 0 0 1 -0.01,-0.42 l 0.115,-0.55 a 0.962,0.962 0 0 0 0.024,-0.195 c 0,-0.183 -0.119,-0.275 -0.359,-0.275 h -0.888 l -0.307,1.44 h -0.751 l 0.774,-3.645 h 2.051 c 0.187,0 0.347,0.057 0.479,0.17 0.153,0.13 0.23,0.317 0.23,0.56 0.003,0.087 -0.008,0.18 -0.028,0.28 z m -0.71,-0.08 c 0,-0.204 -0.118,-0.305 -0.355,-0.305 h -1.051 l -0.198,0.955 h 1.034 c 0.141,0 0.271,-0.072 0.391,-0.215 a 0.68,0.68 0 0 0 0.179,-0.435 z m 6.756,0.18 h -0.695 v -0.09 c 0,-0.153 -0.06,-0.272 -0.178,-0.357 -0.118,-0.085 -0.281,-0.127 -0.487,-0.127 -0.427,0 -0.674,0.157 -0.74,0.47 a 0.434,0.434 0 0 0 -0.01,0.09 c 0,0.15 0.12,0.252 0.359,0.305 l 0.74,0.16 c 0.283,0.06 0.488,0.138 0.615,0.235 0.153,0.12 0.229,0.289 0.229,0.505 0,0.08 -0.01,0.17 -0.029,0.27 -0.08,0.38 -0.276,0.673 -0.588,0.88 -0.312,0.207 -0.711,0.31 -1.197,0.31 -0.4,0 -0.705,-0.089 -0.915,-0.268 -0.21,-0.179 -0.315,-0.429 -0.315,-0.752 0,-0.057 0.004,-0.115 0.011,-0.175 h 0.725 c -0.03,0.394 0.2,0.59 0.69,0.59 0.227,0 0.415,-0.042 0.567,-0.128 a 0.528,0.528 0 0 0 0.277,-0.35 0.494,0.494 0 0 0 0.01,-0.101 c 0,-0.214 -0.136,-0.349 -0.408,-0.402 l -0.851,-0.168 a 0.832,0.832 0 0 1 -0.476,-0.257 0.693,0.693 0 0 1 -0.176,-0.477 1.33,1.33 0 0 1 0.568,-1.028 c 0.289,-0.203 0.646,-0.305 1.073,-0.305 0.396,0 0.701,0.076 0.915,0.228 0.213,0.152 0.319,0.369 0.319,0.652 0.001,0.09 -0.01,0.187 -0.033,0.29 z m 4.334,-1.11 -0.774,3.645 h -0.751 l 0.774,-3.645 z m 6.39,1.855 c -0.119,0.573 -0.38,1.033 -0.779,1.38 -0.4,0.347 -0.86,0.52 -1.38,0.52 -0.46,0 -0.813,-0.131 -1.061,-0.395 -0.229,-0.243 -0.345,-0.573 -0.345,-0.99 0,-0.167 0.02,-0.342 0.06,-0.525 0.113,-0.53 0.347,-0.967 0.7,-1.31 a 2.05,2.05 0 0 1 1.49,-0.595 c 0.45,0 0.795,0.133 1.035,0.4 0.227,0.244 0.34,0.574 0.34,0.99 0,0.17 -0.02,0.345 -0.06,0.525 z m -0.72,0 c 0.03,-0.146 0.045,-0.283 0.045,-0.41 0,-0.27 -0.07,-0.479 -0.212,-0.627 -0.143,-0.148 -0.345,-0.222 -0.607,-0.222 -0.317,0 -0.592,0.111 -0.823,0.333 -0.231,0.222 -0.388,0.524 -0.467,0.907 -0.03,0.144 -0.046,0.277 -0.046,0.4 0,0.28 0.074,0.496 0.221,0.647 0.146,0.152 0.356,0.228 0.63,0.228 0.297,0 0.561,-0.116 0.792,-0.347 0.232,-0.233 0.387,-0.535 0.467,-0.909 z m 7.351,-1.855 -0.775,3.645 h -0.74 l -0.934,-2.54 -0.54,2.54 h -0.751 l 0.774,-3.645 h 0.74 l 0.943,2.495 0.53,-2.495 z"
       id="path93"
       inkscape:connector-curvature="0" />
  </g>
  <g
     id="g99"
     style="fill:#444245"
     transform="translate(-2.581203e-4)">
    <path
       d="m 117.453,327.169 h -0.639 v 1.418 h -0.45 v -1.418 h -0.663 v -0.294 h 1.752 z m 2.367,1.418 h -0.45 v -1.391 l -0.39,1.391 h -0.45 l -0.39,-1.383 v 1.383 h -0.45 v -1.712 h 0.658 l 0.406,1.311 0.411,-1.311 h 0.655 z"
       id="path97"
       inkscape:connector-curvature="0" />
  </g>
</svg>
