<?xml version="1.0" encoding="UTF-8" standalone="no"?>
<svg
   xmlns:dc="http://purl.org/dc/elements/1.1/"
   xmlns:cc="http://creativecommons.org/ns#"
   xmlns:rdf="http://www.w3.org/1999/02/22-rdf-syntax-ns#"
   xmlns:svg="http://www.w3.org/2000/svg"
   xmlns="http://www.w3.org/2000/svg"
   xmlns:sodipodi="http://sodipodi.sourceforge.net/DTD/sodipodi-0.dtd"
   xmlns:inkscape="http://www.inkscape.org/namespaces/inkscape"
   viewBox="0 0 192.128 134.474"
   version="1.1"
   id="svg46"
   sodipodi:docname="game.svg"
   width="192.12801"
   height="134.474"
   inkscape:version="0.92.4 5da689c313, 2019-01-14">
  <metadata
     id="metadata52">
    <rdf:RDF>
      <cc:Work
         rdf:about="">
        <dc:format>image/svg+xml</dc:format>
        <dc:type
           rdf:resource="http://purl.org/dc/dcmitype/StillImage" />
      </cc:Work>
    </rdf:RDF>
  </metadata>
  <defs
     id="defs50" />
  <sodipodi:namedview
     pagecolor="#ffffff"
     bordercolor="#666666"
     borderopacity="1"
     objecttolerance="10"
     gridtolerance="10"
     guidetolerance="10"
     inkscape:pageopacity="0"
     inkscape:pageshadow="2"
     inkscape:window-width="471"
     inkscape:window-height="442"
     id="namedview48"
     showgrid="false"
     inkscape:zoom="1.4105179"
     inkscape:cx="96.064003"
     inkscape:cy="67.237"
     inkscape:window-x="0"
     inkscape:window-y="0"
     inkscape:window-maximized="0"
     inkscape:current-layer="svg46" />
  <path
     d="m 96.064,134.474 c 12.198,0 85.597,-0.953 87.251,-0.953 7.99,0 8.813,-5.634 8.813,-8.058 0,-2.424 -0.661,-110.48 -0.881,-116.869 C 191.027,2.204 186.4,1.543 182.654,1.323 178.908,1.102 107.521,0 96.064,0 84.607,0 13.22,1.102 9.474,1.322 5.728,1.542 1.101,2.203 0.881,8.593 0.661,14.982 0,123.039 0,125.462 c 0,2.424 0.823,8.058 8.813,8.058 1.654,0 75.053,0.954 87.251,0.954 z"
     id="path2"
     inkscape:connector-curvature="0"
     style="fill:#cccccc" />
  <path
     d="m 163.534,0.922 h 0.44 v 132.833 h -0.44 z M 28.129,0.931 h 0.44 v 132.833 h -0.44 z"
     id="path4"
     inkscape:connector-curvature="0"
     style="fill:#666666" />
  <path
     d="M 165.604,64.524 H 22.997 c -4.874,0 -8.863,-3.988 -8.863,-8.863 V 16.886 c 0,-4.874 3.988,-8.863 8.863,-8.863 h 142.607 c 4.874,0 8.863,3.988 8.863,8.863 v 38.775 c 0,4.875 -3.989,8.863 -8.863,8.863 z"
     id="path6"
     inkscape:connector-curvature="0" />
  <ellipse
     cx="20.962999"
     cy="54.886002"
     rx="4.152"
     ry="1.857"
     id="ellipse8"
     style="fill:#7cb832" />
  <path
     d="m 32.548,57.961 c 0,1.025 -1.859,1.857 -4.152,1.857 -2.293,0 -4.152,-0.831 -4.152,-1.857 0,-1.025 1.859,-1.857 4.152,-1.857 2.293,0 4.152,0.832 4.152,1.857 z"
     id="path10"
     inkscape:connector-curvature="0"
     style="fill:#e5dc1d" />
  <path
     d="m 33.048,56.743 c -0.5,-2.079 -2.312,-4.377 -4.652,-3.378 1.905,-4.395 5.501,-3.696 6.75,-2.197 0.972,1.166 0.948,5.157 -2.098,5.575 z"
     id="path12"
     inkscape:connector-curvature="0"
     style="fill:#c21e27" />
  <path
     d="m 25.73,53.381 c -0.5,-2.079 -2.312,-4.377 -4.652,-3.378 1.905,-4.395 5.501,-3.696 6.75,-2.197 0.972,1.167 0.948,5.157 -2.098,5.575 z"
     id="path14"
     inkscape:connector-curvature="0"
     style="fill:#1d54b8" />
  <path
     d="m 11.694,124.723 a 3.55,3.55 0 1 1 -7.1,0 3.55,3.55 0 0 1 7.1,0 z m 168.74,0 a 3.55,3.55 0 1 0 7.1,0 3.55,3.55 0 0 0 -7.1,0 z"
     id="path16"
     inkscape:connector-curvature="0"
     style="fill:#666666" />
  <path
     d="M 148.213,93.499 H 43.915 a 4.24,4.24 0 0 1 -4.228,-4.228 v -1.66 a 4.24,4.24 0 0 1 4.228,-4.228 h 104.298 a 4.24,4.24 0 0 1 4.228,4.228 v 1.66 a 4.24,4.24 0 0 1 -4.228,4.228 z"
     id="path18"
     inkscape:connector-curvature="0"
     style="fill:#b2b2b2" />
  <path
     d="m 77.9,84.91 h 36.152 v 7.062 H 77.9 Z"
     id="path20"
     inkscape:connector-curvature="0"
     style="fill:#999999" />
  <path
     d="m 39.741,89.711 h 112.647 c 0.011,-0.074 0.024,-0.148 0.032,-0.223 H 39.709 c 0.007,0.075 0.021,0.149 0.032,0.223 z m 0.338,1.158 H 152.05 a 4.35,4.35 0 0 0 0.092,-0.223 H 39.987 c 0.029,0.076 0.059,0.15 0.092,0.223 z m 0.76,1.159 H 151.29 c 0.066,-0.073 0.13,-0.146 0.191,-0.223 H 40.648 c 0.061,0.077 0.125,0.15 0.191,0.223 z m -1.152,-3.699 v 0.223 H 152.441 V 88.329 Z M 151.29,84.854 H 40.838 C 40.772,84.927 40.708,85 40.647,85.077 H 151.48 a 3.996,3.996 0 0 0 -0.19,-0.223 z m 1.098,2.317 H 39.741 c -0.011,0.074 -0.024,0.148 -0.032,0.223 H 152.42 c -0.008,-0.075 -0.021,-0.149 -0.032,-0.223 z M 152.05,86.012 H 40.078 a 4.35,4.35 0 0 0 -0.092,0.223 h 112.155 a 3.863,3.863 0 0 0 -0.091,-0.223 z"
     id="path22"
     inkscape:connector-curvature="0"
     style="fill:#666666" />
  <path
     d="m 151.072,21.876 c -1.678,0 -2.8,-1.19 -2.8,-2.632 0,-1.442 1.124,-2.645 2.798,-2.642 h 15.812 c 1.673,-0.004 2.798,1.199 2.798,2.642 0,1.442 -1.122,2.632 -2.8,2.632 z"
     id="path24"
     inkscape:connector-curvature="0"
     style="clip-rule:evenodd;fill:#e10025;fill-rule:evenodd" />
  <path
     d="m 151.077,17.251 c -1.329,0.002 -2.145,0.891 -2.145,1.989 0,1.098 0.811,1.994 2.145,1.989 h 15.797 c 1.334,0.005 2.145,-0.891 2.145,-1.989 0,-1.099 -0.816,-1.987 -2.145,-1.989 z"
     id="path26"
     inkscape:connector-curvature="0"
     style="clip-rule:evenodd;fill:#ffffff;fill-rule:evenodd" />
  <path
     d="m 150.395,17.993 h 0.774 l 1.07,1.731 -0.001,-1.731 h 0.768 v 2.483 h -0.766 l -1.076,-1.731 v 1.731 h -0.769 z m 6.783,0.256 h 0.748 v 0.334 h 0.404 v 0.245 h -0.404 v 1.648 h -0.748 l 0.001,-1.648 h -0.406 v -0.245 h 0.406 z m -3.745,0.576 h 0.747 v 1.651 h -0.747 z m -0.001,-0.832 h 0.748 v 0.508 h -0.748 z m 13.384,1.645 -0.001,0.35 c 0,0.263 -0.155,0.372 -0.305,0.372 -0.149,0 -0.306,-0.109 -0.306,-0.372 l 0.001,-0.356 v -0.344 c 0,-0.262 0.156,-0.37 0.305,-0.37 0.149,0 0.305,0.108 0.305,0.37 l 0.001,0.352 z m -0.3,-0.926 c -0.603,0 -1.091,0.415 -1.091,0.927 0,0.512 0.488,0.927 1.091,0.927 0.603,0 1.091,-0.415 1.091,-0.927 0,-0.511 -0.488,-0.927 -1.091,-0.927 z m -2.071,-0.719 h 0.737 v 2.482 h -0.738 l -10e-4,-0.095 a 0.9,0.9 0 0 1 -0.86,0.062 0.881,0.881 0 0 1 -0.511,-0.819 c 0,-0.436 0.411,-0.912 0.949,-0.864 0.177,0.016 0.303,0.08 0.423,0.147 z m 0.005,1.649 v -0.295 c 0,-0.255 -0.176,-0.32 -0.292,-0.32 -0.119,0 -0.293,0.065 -0.293,0.32 v 0.588 c 0,0.255 0.174,0.322 0.293,0.322 0.116,0 0.292,-0.067 0.292,-0.322 z m -8.522,-0.893 c 0.279,-0.008 0.846,0.175 0.841,0.829 v 0.898 h -0.742 v -1.084 c 0,-0.144 -0.138,-0.304 -0.341,-0.304 -0.204,0 -0.355,0.16 -0.355,0.304 l 0.001,1.084 h -0.741 l -0.001,-1.651 0.742,-10e-4 v 0.173 a 0.906,0.906 0 0 1 0.596,-0.248 z m 6.067,0 c 0.279,-0.008 0.845,0.175 0.841,0.829 l -0.001,0.898 h -0.742 v -1.084 c 0,-0.144 -0.138,-0.304 -0.341,-0.304 -0.203,0 -0.355,0.16 -0.355,0.304 l 0.001,1.084 h -0.741 l 10e-4,-1.651 0.741,-10e-4 v 0.173 a 0.906,0.906 0 0 1 0.596,-0.248 z m -2.97,0.652 c -0.001,-0.145 0.002,-0.241 0.049,-0.324 a 0.304,0.304 0 0 1 0.263,-0.15 c 0.098,0 0.204,0.049 0.262,0.15 0.048,0.083 0.05,0.179 0.049,0.324 z m 0.62,0.498 10e-4,0.1 c 0,0.302 -0.199,0.369 -0.308,0.369 -0.111,0 -0.313,-0.067 -0.313,-0.369 l 0.001,-0.341 h 1.406 c 0,-0.512 -0.494,-0.936 -1.101,-0.936 -0.607,0 -1.099,0.415 -1.099,0.927 0,0.512 0.492,0.927 1.099,0.927 0.504,0 0.929,-0.288 1.059,-0.678 z m 8.014,-1.315 h -0.086 v -0.565 h 0.216 c 0.133,0 0.2,0.049 0.2,0.161 0,0.101 -0.063,0.145 -0.147,0.156 l 0.161,0.249 h -0.095 l -0.15,-0.245 h -0.098 v 0.244 z m 0.102,-0.318 c 0.073,0 0.137,-0.005 0.137,-0.092 0,-0.07 -0.063,-0.083 -0.123,-0.083 h -0.117 v 0.175 z"
     id="path28"
     inkscape:connector-curvature="0"
     style="clip-rule:evenodd;fill:#e10025;fill-rule:evenodd" />
  <path
     d="m 167.265,18.3 a 0.49,0.49 0 0 1 0.498,-0.489 0.4905,0.4905 0 1 1 0,0.981 0.491,0.491 0 0 1 -0.498,-0.492 z m 0.497,0.41 a 0.395,0.395 0 0 0 0.396,-0.41 0.395,0.395 0 0 0 -0.396,-0.407 0.396,0.396 0 0 0 -0.399,0.407 c 0,0.236 0.175,0.41 0.399,0.41 z"
     id="path30"
     inkscape:connector-curvature="0"
     style="clip-rule:evenodd;fill:#e10025;fill-rule:evenodd" />
  <g
     id="g44">
    <g
       id="g34"
       style="fill:#e60012">
      <path
         d="m 19.718,14.2 c -0.508,0 -1.003,0.421 -1.093,0.943 v 0.027 l -0.009,0.009 v 0.028 l -0.009,0.019 v 0.019 l -0.009,0.019 v 0.028 l -0.009,0.019 v 0.028 l -0.009,0.028 -0.009,0.028 -0.009,0.056 -0.019,0.065 -0.009,0.065 -0.019,0.065 -0.009,0.075 -0.019,0.075 -0.019,0.084 -0.019,0.075 -0.028,0.159 -0.019,0.084 -0.019,0.075 -0.009,0.075 -0.019,0.075 -0.018,0.075 -0.009,0.075 -0.009,0.065 -0.019,0.056 -0.009,0.065 v 0.028 l -0.009,0.019 v 0.047 l -0.009,0.028 v 0.038 l -0.009,0.019 v 0.018 c -0.01,0.228 0.022,0.54 0.093,0.597 0.09,0.503 1.753,2.829 1.705,3.183 -0.045,0.355 -0.241,1.4 -0.241,1.4 -0.06,0.352 -0.299,0.635 -0.649,0.635 -0.35,0 -0.588,-0.281 -0.528,-0.635 L 18.959,20.4 H 17.718 L 17.3,22.808 c -0.085,0.489 0.244,0.878 0.732,0.878 h 1.77 c 0.49,0 0.957,-0.388 1.047,-0.878 0,0 0.456,-2.25 0.454,-2.409 -0.002,-0.16 -0.046,-0.177 -0.046,-0.177 0,-0.183 -1.48,-2.644 -1.631,-2.735 -0.065,-0.039 -0.119,-0.282 -0.12,-0.429 -0.003,-0.146 0.195,-1.13 0.195,-1.13 a 0.782,0.782 0 0 1 0.741,-0.635 c 0.35,0 0.496,0.282 0.435,0.635 l -0.269,1.559 h 1.251 l 0.435,-2.343 c 0.098,-0.522 -0.233,-0.943 -0.741,-0.943 h -1.835 z m 3.41,0 -1.482,8.607 c -0.085,0.489 0.244,0.878 0.732,0.878 h 1.77 c 0.49,0 0.965,-0.388 1.056,-0.878 L 26.788,14.2 h -1.112 l -1.51,8.365 a 0.28,0.28 0 0 1 -0.259,0.224 h -0.88 c -0.123,0 -0.205,-0.102 -0.185,-0.224 L 24.315,14.2 Z m 4.262,0 -1.788,9.485 h 1.186 l 0.815,-4.294 h 1.51 c 0.491,0 0.957,-0.391 1.047,-0.878 l 0.649,-3.37 C 30.907,14.62 30.576,14.2 30.068,14.2 Z m 4.234,0 -1.853,9.485 h 2.668 l 0.185,-1.176 h -1.316 l 0.537,-3.202 h 1.316 l 0.185,-0.99 H 32.03 l 0.584,-2.941 H 33.93 L 34.115,14.2 Z m 3.187,0 -1.779,9.485 h 1.186 l 0.806,-4.294 h 0.843 c 0.111,0.104 0.124,0.296 0.139,0.392 0.022,0.14 0.045,0.318 0.028,0.457 -0.015,0.139 -0.649,3.445 -0.649,3.445 h 1.186 c 0,0 0.667,-3.602 0.667,-3.66 0.002,-0.059 0,-0.243 -0.065,-0.345 -0.043,-0.065 -0.118,-0.216 -0.204,-0.271 a 2.082,2.082 0 0 0 -0.352,-0.177 h -0.083 c 0.339,-0.135 0.979,-0.357 1.047,-0.719 l 0.649,-3.37 C 38.328,14.62 37.997,14.2 37.489,14.2 Z m 6.346,0 -1.788,9.485 h 1.362 l 1.102,-5.499 0.435,5.499 h 1.186 L 45.242,14.2 H 43.88 L 42.954,19.157 42.343,14.2 Z m 4.707,0 -1.788,9.485 h 1.186 L 47.05,14.2 Z m 1.806,0 -1.788,9.485 h 1.371 l 1.102,-5.499 0.435,5.499 h 1.186 L 51.764,14.2 H 50.393 L 49.476,19.157 48.865,14.2 Z m 4.596,0 -0.222,1.176 h 0.741 l -1.464,8.309 h 1.353 l 1.492,-8.309 h 0.713 L 55.064,14.2 Z m 3.261,0 -1.853,9.485 h 2.668 l 0.185,-1.176 h -1.316 l 0.547,-3.202 h 1.316 l 0.185,-0.99 h -1.316 l 0.574,-2.941 h 1.316 L 58.018,14.2 Z m 3.011,0 -1.788,9.485 h 1.371 l 1.102,-5.499 0.435,5.499 h 1.186 L 62.632,14.2 H 61.261 L 60.344,19.157 59.733,14.2 Z m 4.716,0 -1.788,9.485 h 2.705 c 0.491,0 0.965,-0.388 1.056,-0.878 l 1.436,-7.665 C 66.76,14.62 66.43,14.2 65.922,14.2 Z m 5.086,0 c -0.508,0 -0.993,0.421 -1.084,0.943 l -1.325,7.665 c -0.086,0.489 0.235,0.878 0.723,0.878 h 1.955 c 0.49,0 0.965,-0.388 1.056,-0.878 l 1.436,-7.665 C 71.199,14.621 70.867,14.2 70.36,14.2 Z m -4.077,1.092 h 0.547 c 0.35,0 0.588,0.282 0.528,0.635 l -1.167,6.208 c -0.061,0.352 -0.401,0.644 -0.751,0.644 h -0.537 z m 4.772,0 h 0.037 c 0.35,0 0.579,0.282 0.519,0.635 l -1.112,6.208 c -0.06,0.351 -0.382,0.644 -0.732,0.644 -0.35,0 -0.496,-0.292 -0.435,-0.644 l 1.102,-6.208 0.009,-0.028 0.009,-0.028 0.009,-0.037 0.009,-0.028 0.009,-0.037 0.009,-0.028 0.009,-0.028 0.019,-0.028 0.009,-0.028 0.019,-0.028 0.009,-0.028 0.019,-0.028 0.019,-0.019 0.019,-0.028 0.019,-0.028 0.028,-0.019 0.019,-0.019 0.019,-0.019 0.028,-0.019 0.028,-0.019 0.019,-0.019 0.028,-0.019 0.028,-0.009 0.028,-0.019 0.019,-0.009 0.037,-0.009 0.028,-0.009 h 0.028 l 0.028,-0.009 h 0.037 z M 28.529,15.33 h 0.574 c 0.126,0 0.394,0.291 0.371,0.42 l -0.491,2.343 c -0.023,0.121 -0.185,0.401 -0.306,0.401 H 27.964 L 27.955,18.485 H 27.919 V 18.476 H 27.901 L 27.892,18.467 H 27.883 L 27.874,18.458 27.865,18.449 H 27.856 V 18.44 L 27.847,18.431 27.838,18.422 V 18.41 L 27.829,18.401 27.82,18.392 v -0.018 l -0.009,-0.009 v -0.018 l -0.009,-0.009 v -0.009 c 0,-0.015 -0.002,-0.039 0,-0.056 l 0.556,-2.866 a 0.253,0.253 0 0 1 0.171,-0.077 z m 7.384,0 h 0.573 c 0.126,0 0.395,0.291 0.371,0.42 l -0.491,2.334 c -0.022,0.122 -0.323,0.411 -0.445,0.411 h -0.51 a 0.176,0.176 0 0 1 -0.185,-0.168 c 0,-0.015 -0.002,-0.038 0,-0.056 l 0.547,-2.866 0.009,-0.009 0.009,-0.009 0.019,-0.009 h 0.009 l 0.009,-0.009 0.009,-0.009 h 0.009 l 0.009,-0.009 h 0.009 l 0.019,-0.009 H 35.91 V 15.33 Z m -18.826,9.177 v 3.109 h 54.248 v -3.109 z m 39.614,0.326 h 0.461 c 0.112,0 0.192,0.089 0.17,0.205 l -0.104,0.523 h -0.255 l 0.057,-0.345 c 0.013,-0.078 -0.033,-0.14 -0.113,-0.14 a 0.177,0.177 0 0 0 -0.17,0.14 L 56.7,25.468 c -0.008,0.015 0.016,0.086 0.028,0.093 0.035,0.02 0.368,0.566 0.368,0.607 0.008,0.02 0.012,0.03 0.009,0.037 -0.01,0.068 -0.104,0.532 -0.104,0.532 a 0.25,0.25 0 0 1 -0.236,0.196 h -0.397 c -0.11,0 -0.181,-0.09 -0.161,-0.196 l 0.094,-0.532 h 0.274 l -0.066,0.383 c -0.013,0.078 0.033,0.149 0.113,0.149 0.076,0 0.157,-0.071 0.17,-0.149 L 56.849,26.28 C 56.798,26.151 56.464,25.682 56.443,25.57 56.428,25.558 56.422,25.49 56.424,25.439 56.427,25.383 56.5,25.038 56.5,25.038 h 0.009 v -0.027 l 0.009,-0.019 v -0.009 l 0.009,-0.009 v -0.009 l 0.009,-0.009 v -0.009 l 0.009,-0.009 0.009,-0.009 V 24.92 h 0.009 l 0.009,-0.009 0.009,-0.009 0.009,-0.009 V 24.88 h 0.009 l 0.009,-0.009 0.009,-0.009 h 0.009 l 0.009,-0.009 h 0.009 l 0.009,-0.009 h 0.028 z m 2.172,0 h 0.34 l 0.047,0.794 0.434,-0.794 h 0.34 l -0.699,1.214 -0.17,0.887 h -0.302 l 0.151,-0.952 z m 3.089,0 h 0.461 c 0.112,0 0.19,0.089 0.17,0.205 l -0.104,0.523 h -0.255 l 0.057,-0.345 c 0.013,-0.078 -0.033,-0.14 -0.113,-0.14 a 0.176,0.176 0 0 0 -0.17,0.14 l -0.047,0.252 c -0.01,0.015 0.013,0.086 0.028,0.093 0.033,0.02 0.368,0.566 0.368,0.607 0.01,0.02 0.009,0.03 0.009,0.037 l -0.094,0.532 a 0.252,0.252 0 0 1 -0.236,0.196 H 61.63 c -0.11,0 -0.181,-0.09 -0.161,-0.196 l 0.094,-0.532 h 0.274 l -0.066,0.383 c -0.013,0.078 0.036,0.149 0.113,0.149 0.079,0 0.154,-0.071 0.17,-0.149 l 0.057,-0.308 c -0.052,-0.129 -0.385,-0.598 -0.406,-0.71 -0.015,-0.012 -0.021,-0.08 -0.019,-0.131 0.003,-0.056 0.076,-0.401 0.076,-0.401 l 0.009,-0.009 v -0.018 l 0.009,-0.019 v -0.009 l 0.009,-0.009 v -0.009 l 0.009,-0.009 v -0.009 l 0.009,-0.009 0.009,-0.009 V 24.92 h 0.009 l 0.009,-0.009 0.009,-0.009 0.009,-0.009 0.009,-0.009 0.009,-0.009 0.009,-0.009 h 0.009 l 0.009,-0.009 h 0.009 l 0.009,-0.009 h 0.028 z m 2.2,0 h 0.633 l -0.047,0.252 h -0.161 l -0.331,1.848 h -0.312 l 0.331,-1.848 h -0.161 z m 2.475,0 h 0.567 l -0.047,0.252 h -0.293 l -0.132,0.663 h 0.302 l -0.047,0.215 h -0.293 l -0.123,0.709 h 0.293 l -0.038,0.261 h -0.604 z m 2.332,0 h 0.349 l 0.057,1.214 0.538,-1.204 0.34,-0.009 -0.359,2.101 H 69.63 l 0.17,-1.111 -0.472,1.111 h -0.189 l -0.057,-1.139 -0.208,1.139 h -0.312 z m -50.725,0.075 h 0.557 l -0.038,0.261 h -0.302 l -0.123,0.654 h 0.293 l -0.038,0.224 h -0.302 l -0.113,0.71 h 0.293 l -0.047,0.261 H 17.82 Z m 2.607,0 h 0.264 l 0.142,1.102 0.208,-1.102 h 0.312 l -0.406,2.11 h -0.264 l -0.104,-1.223 -0.246,1.223 h -0.312 z m 2.833,0 h 0.623 l -0.038,0.261 h -0.161 l -0.34,1.848 h -0.302 l 0.331,-1.848 h -0.17 z m 2.748,0 h 0.567 l -0.047,0.261 h -0.293 l -0.132,0.654 h 0.293 l -0.038,0.224 h -0.293 l -0.123,0.71 h 0.293 l -0.038,0.261 h -0.604 z m 2.664,0 H 29.7 c 0.112,0 0.183,0.098 0.161,0.215 l -0.142,0.747 c -0.016,0.081 -0.159,0.147 -0.236,0.177 h 0.037 v 0.009 h 0.036 l 0.009,0.009 h 0.027 v 0.009 h 0.018 v 0.009 h 0.009 c 0.013,0.023 0.019,0.09 0.019,0.103 0,0.012 -0.151,0.831 -0.151,0.831 h -0.274 l 0.151,-0.765 C 29.367,26.219 29.36,26.18 29.355,26.149 29.353,26.126 29.352,26.088 29.327,26.065 h -0.189 l -0.179,0.952 h -0.274 z m 2.701,0 h 0.633 l -0.038,0.261 h -0.161 l -0.34,1.848 h -0.302 l 0.331,-1.848 h -0.17 z m 3.145,0 H 35.3 l -0.113,2.11 h -0.359 l 0.047,-0.485 h -0.217 l -0.179,0.485 h -0.321 z m 2.512,0 h 0.274 l -0.406,2.11 h -0.264 z m 2.436,0 h 0.264 l 0.142,1.102 0.208,-1.102 h 0.302 l -0.397,2.11 h -0.274 l -0.094,-1.223 -0.246,1.223 h -0.312 z m 3.126,0 h 0.349 l 0.057,1.223 0.538,-1.214 h 0.34 l -0.359,2.101 h -0.264 l 0.17,-1.111 -0.472,1.111 h -0.189 l -0.057,-1.139 -0.208,1.139 H 42.62 Z m 3.429,0 h 0.557 l -0.038,0.261 h -0.302 l -0.123,0.654 h 0.293 l -0.038,0.224 h -0.302 l -0.123,0.71 h 0.302 l -0.047,0.261 h -0.595 z m 2.739,0 h 0.264 l 0.142,1.102 0.208,-1.102 H 50.1 l -0.397,2.11 h -0.264 l -0.104,-1.223 -0.246,1.223 h -0.312 z m 2.805,0 h 0.633 l -0.047,0.261 h -0.161 l -0.331,1.848 h -0.302 l 0.331,-1.848 h -0.17 z M 29.351,25.16 c -0.015,0 -0.027,0.009 -0.038,0.019 l -0.123,0.635 v 0.009 c 0,0.02 0.014,0.037 0.038,0.037 h 0.113 c 0.028,0 0.099,-0.056 0.104,-0.084 l 0.104,-0.523 c 0.005,-0.03 -0.047,-0.093 -0.076,-0.093 z m 5.591,0.635 -0.198,0.532 h 0.151 z m 36.03,-2.668 h -0.25 v 0.559 h -0.176 v -0.559 h -0.259 v -0.116 h 0.685 z m 0.925,0.559 h -0.176 v -0.548 l -0.152,0.548 H 71.393 L 71.24,23.141 v 0.545 h -0.176 v -0.674 h 0.257 l 0.159,0.516 0.161,-0.516 h 0.256 z"
         id="path32"
         inkscape:connector-curvature="0" />
    </g>
    <g
       id="g38"
       style="fill:#aab3b2">
      <path
         d="m 59.973,28.753 h 11.362 v 3.271 H 59.973 Z m -42.886,0 h 11.362 v 3.271 H 17.087 Z"
         id="path36"
         inkscape:connector-curvature="0" />
    </g>
    <g
       id="g42"
       style="fill:#aab3b2">
      <path
         d="m 29.335,31.942 0.72,-3.105 h 1.23 c 0.422,0 0.726,0.079 0.913,0.237 0.187,0.158 0.265,0.401 0.237,0.73 -0.033,0.381 -0.167,0.665 -0.4,0.854 -0.234,0.188 -0.57,0.282 -1.008,0.282 h -0.524 l -0.224,1.001 h -0.944 z m 1.323,-1.734 h 0.333 c 0.183,0 0.314,-0.027 0.394,-0.081 0.08,-0.054 0.125,-0.144 0.136,-0.269 0.009,-0.101 -0.017,-0.175 -0.078,-0.22 C 31.382,29.593 31.28,29.57 31.138,29.57 h -0.325 z m 1.223,1.734 1.735,-3.105 h 0.956 l 0.327,3.105 h -0.901 l -0.014,-0.371 h -0.952 l -0.183,0.371 z m 1.443,-0.997 h 0.615 l -0.058,-1.149 z m 1.797,0.997 0.728,-3.105 h 0.956 l -0.542,2.297 h 1.356 l -0.182,0.807 h -2.316 z m 4.53,0 -0.281,-3.105 h 0.918 l 0.037,1.804 v 0.111 c -0.001,0.037 -0.002,0.074 -0.006,0.111 l -0.007,0.06 a 4.56,4.56 0 0 1 -0.015,0.102 c 0.021,-0.086 0.04,-0.157 0.058,-0.214 0.018,-0.057 0.034,-0.103 0.05,-0.138 l 0.847,-1.836 h 0.991 l -1.644,3.105 z m 2.13,0 0.728,-3.105 h 2.312 l -0.174,0.74 h -1.378 l -0.104,0.426 h 1.226 l -0.168,0.691 H 43 l -0.106,0.497 h 1.468 l -0.169,0.75 h -2.412 z m 2.809,0 0.716,-3.105 h 1.384 c 0.386,0 0.662,0.067 0.829,0.201 0.167,0.134 0.238,0.345 0.213,0.633 a 1.026,1.026 0 0 1 -0.192,0.533 c -0.11,0.149 -0.262,0.265 -0.456,0.348 a 0.53,0.53 0 0 1 0.266,0.205 0.56,0.56 0 0 1 0.056,0.334 c -0.003,0.03 -0.006,0.061 -0.011,0.094 a 2.544,2.544 0 0 1 -0.018,0.104 l -0.06,0.314 a 0.799,0.799 0 0 0 -0.017,0.103 0.173,0.173 0 0 0 0.014,0.098 0.123,0.123 0 0 0 0.064,0.056 l -0.007,0.08 h -1.009 a 0.326,0.326 0 0 1 -0.005,-0.064 1.02,1.02 0 0 1 0.03,-0.246 l 0.07,-0.312 a 0.825,0.825 0 0 0 0.02,-0.137 C 46.488,31.049 46.46,30.956 46.393,30.903 46.325,30.85 46.2,30.823 46.017,30.823 h -0.246 l -0.26,1.117 H 44.59 Z m 1.331,-1.779 h 0.455 c 0.143,0 0.251,-0.026 0.323,-0.077 0.072,-0.051 0.113,-0.132 0.122,-0.241 0.008,-0.094 -0.015,-0.162 -0.071,-0.204 -0.056,-0.042 -0.152,-0.063 -0.287,-0.063 h -0.404 z m 1.81,0.791 h 0.928 l -10e-4,0.009 c -0.01,0.114 0.021,0.201 0.092,0.263 0.071,0.061 0.178,0.092 0.322,0.092 a 0.412,0.412 0 0 0 0.247,-0.064 0.244,0.244 0 0 0 0.099,-0.187 c 0.009,-0.101 -0.106,-0.207 -0.346,-0.316 l -0.137,-0.063 c -0.336,-0.16 -0.561,-0.312 -0.674,-0.456 A 0.725,0.725 0 0 1 48.12,29.7 0.917,0.917 0 0 1 48.496,29.009 c 0.225,-0.166 0.526,-0.249 0.904,-0.249 0.378,0 0.669,0.088 0.874,0.264 0.205,0.176 0.305,0.423 0.3,0.742 H 49.681 C 49.677,29.661 49.645,29.582 49.586,29.531 49.527,29.48 49.438,29.454 49.321,29.454 a 0.319,0.319 0 0 0 -0.199,0.061 0.207,0.207 0 0 0 -0.089,0.152 c -0.008,0.092 0.132,0.202 0.422,0.331 l 0.275,0.126 c 0.231,0.11 0.397,0.238 0.498,0.385 a 0.777,0.777 0 0 1 0.125,0.522 0.964,0.964 0 0 1 -0.401,0.734 c -0.24,0.175 -0.563,0.263 -0.971,0.263 -0.424,0 -0.745,-0.094 -0.965,-0.282 -0.219,-0.192 -0.314,-0.455 -0.285,-0.792 z m 2.888,0.988 0.724,-3.105 h 0.96 l -0.724,3.105 z m 1.753,-1.368 c 0.022,-0.259 0.081,-0.498 0.176,-0.717 a 1.91,1.91 0 0 1 0.381,-0.575 1.75,1.75 0 0 1 0.576,-0.395 c 0.214,-0.089 0.443,-0.134 0.688,-0.134 0.451,0 0.793,0.13 1.028,0.389 0.235,0.259 0.332,0.616 0.292,1.07 a 2.293,2.293 0 0 1 -0.17,0.703 1.828,1.828 0 0 1 -0.952,0.97 c -0.216,0.093 -0.45,0.139 -0.7,0.139 -0.445,0 -0.786,-0.13 -1.022,-0.391 -0.237,-0.26 -0.336,-0.613 -0.297,-1.059 z m 1.739,-1.054 c -0.207,0 -0.384,0.099 -0.53,0.296 -0.147,0.197 -0.234,0.456 -0.262,0.775 -0.019,0.214 0.011,0.376 0.089,0.488 0.078,0.112 0.201,0.167 0.369,0.167 0.208,0 0.386,-0.102 0.532,-0.308 0.147,-0.205 0.235,-0.478 0.264,-0.818 0.016,-0.187 -0.017,-0.334 -0.1,-0.441 C 54.392,29.574 54.27,29.52 54.111,29.52 Z m 1.471,2.422 0.72,-3.105 h 0.873 l 0.556,1.585 a 0.906,0.906 0 0 1 0.04,0.177 c 0.007,0.06 0.01,0.124 0.007,0.19 a 3.31,3.31 0 0 1 0.053,-0.369 l 0.368,-1.583 h 0.889 L 58.36,31.942 H 57.479 L 56.913,30.33 c -0.009,-0.031 -0.017,-0.076 -0.024,-0.136 -0.007,-0.06 -0.009,-0.127 -0.01,-0.201 l -0.007,0.084 a 2.393,2.393 0 0 1 -0.04,0.267 l -0.365,1.598 z"
         id="path40"
         inkscape:connector-curvature="0" />
    </g>
  </g>
</svg>
