<svg xmlns="http://www.w3.org/2000/svg" viewBox="-108.08 381.062 402.121 130.872"><g fill="#e60012"><path d="M-88.775 381.062c-3.73 0-7.355 3.089-8.021 6.917V388.185l-.068.068V388.459l-.068.137v.137l-.068.137v.205l-.068.137v.206l-.068.205-.068.206-.068.41-.136.48-.068.479-.136.48-.068.547-.136.548-.136.617-.136.548-.204 1.164-.136.616-.136.548-.068.548-.136.548-.135.548-.068.548-.068.479-.136.411-.068.479v.206l-.068.137V400.512l-.068.206v.273l-.068.137v.137c-.071 1.674.161 3.96.679 4.384.659 3.688 12.858 20.757 12.507 23.356-.33 2.607-1.768 10.274-1.768 10.274-.442 2.586-2.192 4.658-4.758 4.658s-4.316-2.065-3.875-4.658l2.311-12.74h-9.108l-3.059 17.671c-.624 3.589 1.788 6.438 5.37 6.438h12.982c3.596 0 7.022-2.849 7.681-6.438 0 0 3.345-16.506 3.33-17.671-.014-1.172-.34-1.301-.34-1.301 0-1.342-10.855-19.397-11.963-20.068-.477-.283-.87-2.07-.883-3.15-.021-1.074 1.427-8.288 1.427-8.288.442-2.585 2.872-4.658 5.437-4.658 2.566 0 3.637 2.072 3.195 4.658l-1.971 11.438h9.177l3.194-17.192c.722-3.829-1.708-6.917-5.437-6.917h-13.456zm25.013 0l-10.876 63.15c-.624 3.589 1.788 6.438 5.37 6.438h12.982c3.596 0 7.083-2.849 7.749-6.438l11.623-63.15h-8.157l-11.08 61.369c-.161.89-1.02 1.644-1.903 1.644h-6.457c-.905 0-1.507-.747-1.36-1.644l10.808-61.369h-8.699zm31.268 0l-13.119 69.588h8.7l5.982-31.506h11.08c3.603 0 7.022-2.871 7.68-6.439l4.758-24.726c.715-3.836-1.708-6.917-5.437-6.917h-19.644zm31.063 0l-13.595 69.588H4.55l1.36-8.63h-9.652L.2 418.527h9.652l1.36-7.26H1.56l4.283-21.575h9.652l1.36-8.63H-1.431zm23.382 0L8.901 450.65h8.7l5.914-31.506H29.7c.813.762.907 2.17 1.019 2.876.161 1.024.33 2.332.204 3.356-.112 1.017-4.758 25.273-4.758 25.273h8.7s4.894-26.425 4.894-26.849c.014-.431.001-1.786-.476-2.534-.316-.48-.865-1.584-1.496-1.986-1.213-.784-2.583-1.301-2.583-1.301h-.612c2.489-.989 7.184-2.618 7.681-5.274l4.758-24.726c.722-3.836-1.708-6.917-5.438-6.917H21.951zm46.562 0L55.394 450.65h9.992l8.088-40.342 3.195 40.342h8.701l13.119-69.588h-9.992L81.7 417.431l-4.486-36.369h-8.701zm34.53 0L89.924 450.65h8.7l13.118-69.588h-8.699zm13.254 0l-13.118 69.588h10.06l8.088-40.342 3.195 40.342h8.7l13.118-69.588h-10.06l-6.729 36.369-4.486-36.369h-8.768zm33.715 0l-1.632 8.63h5.438l-10.74 60.958h9.924l10.944-60.958h5.234l1.36-8.63h-20.528zm23.926 0l-13.595 69.588h19.576l1.359-8.63h-9.652l4.01-23.493h9.652l1.36-7.26h-9.652l4.214-21.575h9.652l1.359-8.63h-18.283zm22.091 0L182.91 450.65h10.06l8.088-40.342 3.195 40.342h8.7l13.118-69.588h-10.06l-6.729 36.369-4.486-36.369h-8.767zm34.598 0l-13.119 69.588h19.848c3.603 0 7.083-2.849 7.749-6.438l10.536-56.233c.715-3.836-1.708-6.917-5.438-6.917h-19.576zm37.317 0c-3.73 0-7.287 3.089-7.953 6.917l-9.72 56.233c-.631 3.589 1.726 6.438 5.301 6.438h14.343c3.596 0 7.083-2.849 7.749-6.438l10.536-56.233c.722-3.829-1.715-6.917-5.438-6.917h-14.818zm-29.908 8.013h4.01c2.566 0 4.316 2.072 3.875 4.658l-8.565 45.548c-.449 2.586-2.94 4.726-5.506 4.726h-3.942l10.128-54.932zm35.006 0h.272c2.566 0 4.248 2.072 3.806 4.658l-8.157 45.548c-.442 2.578-2.804 4.726-5.37 4.726-2.566 0-3.637-2.141-3.195-4.726l8.088-45.548.068-.205.068-.206.068-.274.068-.205.068-.274.068-.206.068-.205.136-.205.068-.206.136-.205.068-.206.136-.205.136-.137.136-.206.136-.205.204-.137.136-.137.136-.137.204-.137.204-.137.136-.137.204-.137.204-.068.204-.137.136-.069.272-.068.204-.069h.204l.204-.068h.272l.204-.07zm-297.176.274h4.214c.925 0 2.887 2.135 2.719 3.082l-3.603 17.191c-.168.89-1.36 2.945-2.243 2.945H-28.281l-.068-.068h-.272v-.069h-.136l-.068-.068h-.068l-.068-.069-.068-.068h-.068v-.069l-.068-.068-.068-.069v-.068l-.068-.069-.068-.068v-.137l-.068-.068v-.137l-.068-.069v-.068c0-.113-.014-.284 0-.411l4.078-21.027c.374-.311.831-.548 1.293-.548zm54.174 0h4.214c.925 0 2.901 2.135 2.719 3.082l-3.602 17.123c-.161.897-2.373 3.013-3.263 3.013H26.37c-.771 0-1.303-.512-1.36-1.232 0-.113-.014-.277 0-.411l4.011-21.027.068-.068.068-.069.136-.068h.068l.068-.069.068-.068h.068l.068-.069h.068l.136-.068H30.041v-.069zm-138.12 67.328v22.808h397.999v-22.808H-108.08zm290.635 2.398h3.396c.822 0 1.412.651 1.247 1.507l-.762 3.836h-1.871l.416-2.534c.093-.573-.246-1.027-.832-1.027-.579 0-1.147.451-1.247 1.027l-.346 1.849c-.057.11.115.63.208.685.257.146 2.702 4.154 2.702 4.452.057.149.091.219.07.274-.072.502-.763 3.904-.763 3.904-.15.781-.918 1.438-1.732 1.438h-2.91c-.808 0-1.328-.657-1.178-1.438l.692-3.904h2.009l-.485 2.808c-.093.573.246 1.096.832 1.096.557 0 1.154-.52 1.247-1.096l.415-2.26c-.371-.946-2.822-4.386-2.979-5.206-.108-.091-.153-.586-.139-.959.021-.408.554-2.945.554-2.945h.069V460.376l.07-.137v-.068l.069-.069v-.068l.069-.069v-.068l.07-.069.069-.068v-.069h.07l.069-.068.07-.069.069-.068v-.069h.07l.069-.068.07-.069h.069l.07-.068h.069l.07-.068H182.488l.067-.069zm15.936 0h2.494l.347 5.822 3.187-5.822h2.495l-5.128 8.904-1.247 6.507h-2.217l1.108-6.986-1.039-8.425zm22.658 0h3.397c.822 0 1.397.651 1.247 1.507l-.762 3.836h-1.871l.416-2.534c.093-.573-.245-1.027-.831-1.027-.579 0-1.154.451-1.247 1.027l-.347 1.849c-.071.11.094.63.208.685.243.146 2.702 4.154 2.702 4.452.071.149.069.219.069.274-.093.502-.693 3.904-.693 3.904-.15.781-.925 1.438-1.732 1.438h-2.98c-.807 0-1.327-.657-1.178-1.438l.693-3.904h2.009l-.485 2.808c-.093.573.267 1.096.831 1.096.579 0 1.133-.52 1.247-1.096l.416-2.26c-.378-.946-2.822-4.386-2.979-5.206-.107-.091-.153-.586-.139-.959.022-.408.554-2.945.554-2.945l.07-.069v-.137l.069-.137v-.068l.07-.069v-.068l.069-.069v-.068l.07-.069.069-.068v-.069h.07l.069-.068.07-.069.069-.068.07-.069.069-.068.069-.069h.07l.069-.068h.07l.069-.068H221.084l.065-.069zm16.145 0h4.643l-.347 1.849h-1.178l-2.425 13.562H235.7l2.425-13.562h-1.178l.347-1.849zm18.153 0h4.157l-.346 1.849h-2.148l-.97 4.863h2.217l-.346 1.576h-2.148l-.901 5.205h2.148l-.277 1.918h-4.435l3.049-15.411zm17.115 0h2.564l.416 8.904 3.949-8.835 2.494-.069-2.633 15.411h-1.94l1.247-8.151-3.464 8.151h-1.386l-.416-8.356-1.524 8.356h-2.287l2.98-15.411zm-372.154.548h4.088l-.277 1.917h-2.218l-.901 4.795h2.148l-.277 1.644h-2.217l-.832 5.206h2.148l-.347 1.917h-4.435l3.12-15.479zm19.124 0h1.94l1.04 8.082 1.524-8.082h2.287l-2.98 15.479h-1.94l-.762-8.972-1.802 8.972h-2.287l2.98-15.479zm20.787 0h4.573l-.277 1.917h-1.178l-2.495 13.562h-2.217l2.425-13.562h-1.247l.416-1.917zm20.163 0h4.157l-.346 1.917h-2.148l-.97 4.795h2.148l-.277 1.644h-2.148l-.901 5.206h2.148l-.277 1.917h-4.435l3.049-15.479zm19.54 0h4.435c.822 0 1.342.72 1.178 1.575l-1.04 5.48c-.114.593-1.167 1.078-1.732 1.301h.278v.068h.278l.07.069H-16.303v.068h.139v.069h.07c.092.166.139.66.139.753 0 .091-1.109 6.096-1.109 6.096h-2.009s1.073-5.392 1.109-5.616c.021-.24-.027-.53-.07-.754-.014-.165-.022-.448-.208-.616h-1.386l-1.316 6.986h-2.009l2.975-15.479zm19.817 0h4.642l-.277 1.917H3.026L.532 475.102h-2.218L.739 461.54H-.508l.347-1.917zm23.073 0h2.633l-.832 15.479H22.08l.347-3.561h-1.594l-1.317 3.561H17.16l5.752-15.479zm18.431 0h2.009l-2.98 15.479h-1.94l2.911-15.479zm17.877 0h1.94l1.04 8.082 1.524-8.082h2.218l-2.91 15.479h-2.009l-.693-8.972-1.802 8.972H56.24l2.98-15.479zm22.934 0h2.564l.416 8.972 3.95-8.904h2.494l-2.633 15.411h-1.94l1.247-8.15-3.464 8.15h-1.386l-.416-8.356-1.525 8.356h-2.217l2.91-15.479zm25.153 0h4.088l-.277 1.917H108.9l-.9 4.795h2.148l-.277 1.644h-2.218l-.901 5.206h2.218l-.347 1.917h-4.365l3.049-15.479zm20.093 0h1.94l1.039 8.082 1.525-8.082h2.217l-2.91 15.479h-1.94l-.762-8.972-1.801 8.972h-2.287l2.979-15.479zm20.579 0h4.643l-.347 1.917h-1.178l-2.425 13.562h-2.218l2.425-13.562h-1.247l.347-1.917zm-166.086 1.849c-.108 0-.199.063-.277.137l-.901 4.658v.068c0 .149.106.274.277.274h.832c.207 0 .726-.412.762-.616l.763-3.836c.036-.22-.347-.685-.554-.685h-.902zm41.019 4.657l-1.455 3.904h1.109l.346-3.904zM287.251 446.554h-1.833v4.099h-1.29v-4.099h-1.902v-.849h5.025v.849zM294.041 450.653h-1.291v-4.02l-1.118 4.02h-1.291l-1.119-3.998v3.998h-1.29v-4.948h1.888l1.165 3.788 1.178-3.788h1.878v4.948z"/></g><g fill="#aab3b2"><path d="M206.557 487.833h83.362v24h-83.362zM-108.08 487.833h83.362v24h-83.362z"/></g><g fill="#aab3b2"><path d="M-18.218 511.23l5.283-22.778h9.024c3.098 0 5.33.581 6.698 1.74 1.369 1.159 1.947 2.946 1.736 5.357-.244 2.794-1.224 4.881-2.938 6.264-1.714 1.38-4.179 2.072-7.396 2.072h-3.843l-1.64 7.345h-6.924zm9.705-12.726h2.443c1.34 0 2.302-.198 2.889-.595.585-.397.918-1.055.999-1.972.065-.742-.126-1.281-.573-1.616-.447-.335-1.192-.503-2.234-.503h-2.383l-1.141 4.686zM.457 511.23l12.728-22.778H20.2l2.402 22.778h-6.611l-.105-2.721H8.9l-1.339 2.721H.457zm10.588-7.314h4.513l-.425-8.427-4.088 8.427zM24.226 511.23l5.341-22.778h7.015l-3.975 16.855h9.948l-1.336 5.923H24.226zM57.466 511.23l-2.06-22.778h6.731l.273 13.237c.006.268.007.539.003.811-.004.274-.018.545-.041.812a7.747 7.747 0 0 1-.053.44l-.11.75c.154-.628.296-1.152.427-1.569s.252-.756.364-1.013l6.211-13.469h7.268L64.421 511.23h-6.955zM73.088 511.23l5.341-22.778h16.963l-1.278 5.428H84.002l-.764 3.125h8.995l-1.232 5.072h-8.966l-.781 3.65h10.768l-1.241 5.504H73.088zM93.7 511.23l5.252-22.778h10.157c2.829 0 4.856.493 6.081 1.477 1.225.984 1.744 2.533 1.56 4.647-.133 1.515-.602 2.819-1.407 3.913-.806 1.093-1.919 1.943-3.343 2.552.938.391 1.59.894 1.954 1.508.362.614.5 1.429.41 2.45-.019.218-.047.447-.082.689-.036.242-.081.498-.135.765l-.439 2.304a6.93 6.93 0 0 0-.093.471c-.014.098-.023.193-.032.286-.026.299.007.539.101.719.094.18.25.317.471.41l-.051.588h-7.402a2.569 2.569 0 0 1-.04-.471 5.973 5.973 0 0 1 .092-1.059c.032-.205.076-.454.131-.742l.514-2.289c.031-.134.058-.273.08-.418.022-.144.045-.339.066-.587.084-.969-.122-1.649-.618-2.041-.497-.392-1.416-.588-2.756-.588h-1.802l-1.907 8.196H93.7zm9.764-13.051h3.336c1.053 0 1.843-.188 2.372-.564.529-.375.828-.966.898-1.771.061-.69-.113-1.191-.522-1.5-.411-.31-1.112-.464-2.104-.464h-2.964l-1.016 4.299zM116.747 503.977h6.806l-.006.063c-.073.835.151 1.476.674 1.926.521.448 1.309.672 2.361.672.774 0 1.379-.156 1.813-.471.435-.315.678-.77.729-1.369.065-.742-.78-1.515-2.537-2.32a66.222 66.222 0 0 1-1.003-.463c-2.468-1.175-4.116-2.291-4.941-3.347-.826-1.057-1.171-2.359-1.036-3.906.189-2.163 1.108-3.855 2.759-5.071s3.86-1.825 6.631-1.825c2.771 0 4.907.645 6.414 1.934 1.505 1.289 2.24 3.103 2.203 5.443h-6.553c-.03-.772-.264-1.347-.697-1.725-.435-.375-1.083-.564-1.946-.564-.576 0-1.063.15-1.462.449-.398.299-.616.67-.654 1.113-.06.672.972 1.48 3.093 2.428.841.381 1.513.69 2.019.928 1.697.804 2.916 1.745 3.656 2.821.739 1.078 1.045 2.354.916 3.827-.201 2.309-1.183 4.106-2.943 5.389-1.76 1.284-4.134 1.926-7.123 1.926-3.107 0-5.468-.691-7.079-2.072-1.613-1.384-2.311-3.311-2.094-5.786zM137.932 511.23l5.311-22.778h7.045l-5.312 22.778h-7.044zM150.796 501.195c.165-1.897.597-3.65 1.293-5.258a14.018 14.018 0 0 1 2.797-4.221c1.253-1.279 2.664-2.245 4.229-2.899 1.566-.655 3.248-.983 5.045-.983 3.307 0 5.819.952 7.54 2.854 1.721 1.902 2.436 4.519 2.145 7.848-.163 1.865-.58 3.585-1.248 5.156-.669 1.572-1.56 2.936-2.674 4.089-1.288 1.34-2.727 2.351-4.315 3.032-1.588.68-3.301 1.021-5.138 1.021-3.266 0-5.767-.956-7.501-2.868s-2.459-4.504-2.173-7.771zm12.754-7.733c-1.519 0-2.816.725-3.891 2.173-1.075 1.448-1.715 3.343-1.919 5.683-.138 1.567.082 2.76.655 3.579.573.82 1.476 1.229 2.707 1.229 1.528 0 2.831-.752 3.905-2.257 1.075-1.505 1.722-3.505 1.939-6 .12-1.371-.124-2.448-.73-3.232-.606-.782-1.494-1.175-2.666-1.175zM174.344 511.23l5.282-22.778h6.403l4.076 11.629c.143.422.241.855.297 1.299.055.443.072.907.05 1.391.046-.526.102-1.018.166-1.476.065-.459.138-.869.22-1.23l2.697-11.613h6.522l-5.341 22.778h-6.463l-4.149-11.829c-.069-.227-.128-.559-.174-.997a14.8 14.8 0 0 1-.071-1.477l-.055.618a16.79 16.79 0 0 1-.123 1.06c-.048.325-.104.627-.168.905l-2.677 11.721h-6.492z"/></g></svg>