<?xml version="1.0" encoding="UTF-8" standalone="no"?>
<svg
   xmlns:dc="http://purl.org/dc/elements/1.1/"
   xmlns:cc="http://creativecommons.org/ns#"
   xmlns:rdf="http://www.w3.org/1999/02/22-rdf-syntax-ns#"
   xmlns:svg="http://www.w3.org/2000/svg"
   xmlns="http://www.w3.org/2000/svg"
   xmlns:sodipodi="http://sodipodi.sourceforge.net/DTD/sodipodi-0.dtd"
   xmlns:inkscape="http://www.inkscape.org/namespaces/inkscape"
   viewBox="0 0 595.53002 389.882"
   version="1.1"
   id="svg166"
   sodipodi:docname="consolegame.svg"
   width="595.53003"
   height="389.88199"
   inkscape:version="0.92.4 5da689c313, 2019-01-14">
  <metadata
     id="metadata172">
    <rdf:RDF>
      <cc:Work
         rdf:about="">
        <dc:format>image/svg+xml</dc:format>
        <dc:type
           rdf:resource="http://purl.org/dc/dcmitype/StillImage" />
      </cc:Work>
    </rdf:RDF>
  </metadata>
  <defs
     id="defs170" />
  <sodipodi:namedview
     pagecolor="#ffffff"
     bordercolor="#666666"
     borderopacity="1"
     objecttolerance="10"
     gridtolerance="10"
     guidetolerance="10"
     inkscape:pageopacity="0"
     inkscape:pageshadow="2"
     inkscape:window-width="471"
     inkscape:window-height="442"
     id="namedview168"
     showgrid="false"
     inkscape:zoom="0.45505607"
     inkscape:cx="297.7655"
     inkscape:cy="194.94101"
     inkscape:window-x="0"
     inkscape:window-y="0"
     inkscape:window-maximized="0"
     inkscape:current-layer="svg166">
    <inkscape:grid
       type="xygrid"
       id="grid174"
       originx="0"
       originy="1.147461e-05" />
  </sodipodi:namedview>
  <path
     d="m 111.953,376.966 c 14.197,2.535 38.97,5.042 75.508,5.042 36.538,0 61.311,-2.507 75.508,-5.042"
     id="path2"
     inkscape:connector-curvature="0"
     style="fill:none" />
  <linearGradient
     id="e"
     gradientUnits="userSpaceOnUse"
     x1="-1163.42"
     y1="248.67"
     x2="-1163.42"
     y2="266.58701"
     gradientTransform="matrix(-1,0,0,1,-654.846,0)">
    <stop
       offset="0"
       stop-color="#3a3b3f"
       id="stop4" />
    <stop
       offset=".335"
       stop-color="#333"
       id="stop6" />
    <stop
       offset="1"
       stop-color="#282a2e"
       id="stop8" />
  </linearGradient>
  <path
     d="m 592.399,270.794 a 2.544,2.544 0 0 0 2.544,-2.544 c 0,0 0.587,-4.293 0.587,-9.913 0,-5.619 -0.587,-9.913 -0.587,-9.913 a 2.544,2.544 0 0 0 -2.544,-2.544 h -167.65 a 2.544,2.544 0 0 0 -2.544,2.544 c 0,0 -0.587,4.293 -0.587,9.913 0,5.619 0.587,9.913 0.587,9.913 a 2.544,2.544 0 0 0 2.544,2.544 z"
     id="path11"
     inkscape:connector-curvature="0"
     style="fill:url(#e)" />
  <linearGradient
     id="f"
     gradientUnits="userSpaceOnUse"
     x1="508.57401"
     y1="277.15201"
     x2="508.57401"
     y2="272.526">
    <stop
       offset="0"
       stop-color="#1f1f1f"
       id="stop13" />
    <stop
       offset="1"
       stop-color="#1c1f23"
       id="stop15" />
  </linearGradient>
  <path
     d="m 424.996,277.255 5.874,-4.112 h 155.408 l 5.874,4.112 z"
     id="path18"
     inkscape:connector-curvature="0"
     style="fill:url(#f)" />
  <path
     d="m 432.044,268.444 h 153.061 v 6.461 H 432.044 Z"
     id="path20"
     inkscape:connector-curvature="0"
     style="fill:#202221" />
  <linearGradient
     id="g"
     gradientUnits="userSpaceOnUse"
     x1="508.57401"
     y1="278.03799"
     x2="508.57401"
     y2="374.522">
    <stop
       offset="0"
       stop-color="#333"
       id="stop22" />
    <stop
       offset="1"
       stop-color="#282a2e"
       id="stop24" />
  </linearGradient>
  <path
     d="M 424.996,277.255 H 592.152 V 389.882 H 424.996 Z"
     id="path27"
     inkscape:connector-curvature="0"
     style="fill:url(#g)" />
  <linearGradient
     id="h"
     gradientUnits="userSpaceOnUse"
     x1="508.57401"
     y1="263.94101"
     x2="508.57401"
     y2="349.349">
    <stop
       offset="0"
       stop-color="#303030"
       id="stop29" />
    <stop
       offset="1"
       stop-color="#202125"
       id="stop31" />
  </linearGradient>
  <path
     stroke-miterlimit="10"
     d="M 585.122,354.962 H 432.026 a 0.935,0.935 0 0 1 -0.935,-0.935 v -64.052 a 7.238,7.238 0 0 1 7.238,-7.238 h 140.49 a 7.238,7.238 0 0 1 7.238,7.238 v 64.052 a 0.934,0.934 0 0 1 -0.935,0.935 z"
     id="path34"
     inkscape:connector-curvature="0"
     style="fill:url(#h);stroke:#323433;stroke-width:0.58700001;stroke-miterlimit:10" />
  <path
     d="m 431.091,355.875 h 154.966 v 0.99 H 431.091 Z m 0,1.902 h 154.966 v 0.99 H 431.091 Z m 0,1.902 h 154.966 v 0.99 H 431.091 Z m 0,1.902 h 154.966 v 0.99 H 431.091 Z m 0,1.902 h 154.966 v 0.99 H 431.091 Z m 0,1.903 h 154.966 v 0.99 H 431.091 Z m 0,1.902 h 154.966 v 0.99 H 431.091 Z m 0,1.902 h 154.966 v 0.99 H 431.091 Z m 0,1.902 h 154.966 v 0.99 H 431.091 Z m 0,1.902 h 154.966 v 0.99 H 431.091 Z m 0,1.902 h 154.966 v 0.99 H 431.091 Z m 0,1.903 h 154.966 v 0.99 H 431.091 Z m 0,1.902 h 154.966 v 0.99 H 431.091 Z m 0,1.902 h 154.966 v 0.99 H 431.091 Z m 0,1.902 h 154.966 v 0.99 H 431.091 Z m 0,1.902 h 154.966 v 0.99 H 431.091 Z m 0,1.903 h 154.966 v 0.99 H 431.091 Z m 0,1.902 h 154.966 v 0.99 H 431.091 Z"
     id="path36"
     inkscape:connector-curvature="0"
     style="fill:#202221" />
  <g
     id="g46"
     style="fill:#d02a30">
    <path
       d="m 472.471,306.417 c 0.164,0.04 0.24,-0.128 0.361,-0.2 0.192,-0.115 1.999,-0.681 2.018,-0.702 0.183,-0.181 -0.091,-0.624 0.066,-0.721 0.168,-0.106 0.523,-0.056 0.662,-0.139 0.697,-0.418 1.746,-0.438 2.426,-0.863 0.208,-0.131 0.406,-0.475 0.62,-0.561 0.442,-0.176 0.986,-0.17 1.464,-0.361 0.247,-0.099 0.314,-0.49 0.462,-0.662 0.279,-0.325 0.592,-0.398 0.922,-0.66 0.475,-0.382 -1.821,0.075 -0.983,-0.763 0.805,-0.805 4.056,-0.487 4.37,-0.802 l 0.059,-0.099 c 0.22,-0.22 0.761,0.043 0.761,-0.561 v -0.2 c -0.026,-0.018 -2.09,0.202 -2.244,0.24 -1.348,0.337 -3.086,0.181 -4.349,0.561 -0.547,0.164 -3.363,0.608 -3.57,0.814 l -0.499,0.348 c -2.344,0.468 -4.712,0.731 -7.057,1.122 -1.162,0.194 -2.86,0.247 -3.875,0.585 -0.927,0.309 -2.419,0.382 -3.341,0.638 -0.725,0.202 -2.765,-0.234 -3.407,0.04 -0.147,0.063 -0.298,0.784 -0.2,0.882 0.087,0.088 0.353,0.066 0.46,0.141 0.095,0.066 0.261,0.149 0.2,0.3 -0.082,0.204 -0.907,-0.038 -1.122,0.321 -0.261,0.436 0.664,1.039 0.822,1.303 0.244,0.406 -0.715,0.588 -0.502,1.122 h 0.401 c 0.2,0 0.37,0.064 0.502,0.261 l 0.175,0.139 c 0.383,0.542 9.306,-0.962 9.306,-0.962 0,0 -2.607,22.24 -13.149,23.412 -2.406,0.268 -4.96,-2.823 -5.132,-2.887 -0.159,-0.059 -0.468,-0.074 -0.571,0.003 -0.103,0.078 -0.216,0.561 0.101,0.922 1.199,1.364 4.768,4.293 8.327,4.206 11.066,-0.265 15.516,-26.217 15.516,-26.217 z"
       id="path38"
       inkscape:connector-curvature="0" />
    <path
       d="m 471.689,318.324 v 0.059 c 0,1.124 0.782,0.342 1.042,0.601 0.05,0.05 -0.022,0.55 -0.059,0.622 -0.925,1.848 -1.718,3.77 -2.906,5.553 -0.071,0.104 -0.064,0.247 -0.12,0.361 -0.415,0.83 -1.063,1.744 -1.403,2.424 -0.13,0.26 -0.154,0.547 -0.301,0.843 -0.016,0.032 -0.08,0.56 -0.12,0.481 0,0.709 -0.741,1.967 -0.481,2.485 0.077,0.155 0.035,-0.123 0.12,-0.179 0.188,-0.127 0.471,-0.228 0.601,-0.422 0.111,-0.167 0.345,-1.273 0.422,-1.323 0.279,-0.186 0.441,-0.566 0.441,-0.061 0,0.232 0.011,0.385 -0.061,0.601 -0.03,0.091 0.03,0.212 0,0.301 l -0.08,0.18 v 0.301 l 0.08,-0.12 0.061,-0.12 c 0.034,-0.067 0.011,-0.143 0.059,-0.24 0.09,-0.179 0.024,-0.138 0.021,-0.141 0,-0.002 0.019,-0.019 0.099,-0.099 0.147,-0.147 0.032,-0.454 0.181,-0.601 0.067,-0.069 0.399,-0.638 0.481,-0.802 l 0.361,-0.662 c 0.058,-0.117 0.096,-0.324 0.18,-0.24 0.431,0.431 0.327,1.568 0.12,2.185 -0.019,0.058 -0.149,0.391 -0.12,0.42 0.04,0.04 0.071,-0.095 0.12,-0.12 0.566,-0.282 0.151,-0.891 0.301,-1.042 0.577,-0.577 0.667,-1.629 1.263,-2.225 1.002,-1.002 2.874,-7.464 3.828,-8.418 0.757,-0.757 4.837,-1.63 5.612,-2.405 0.503,-0.505 0.481,0.907 0.481,1.082 0,0.49 -0.029,4.325 0,4.409 0.13,0.389 0.357,0.612 0.481,0.983 0.191,0.574 -0.173,2.833 0.441,3.448 0.088,0.088 0.055,-0.115 0.061,-0.12 0.075,-0.077 0.3,-0.612 0.3,-0.742 0,-0.127 0.03,-0.45 0.12,-0.361 0.069,0.067 0.603,1.946 0.662,2.004 0.128,0.128 -0.021,0.38 0.059,0.542 0.043,0.085 0.165,0.157 0.181,0.18 0.024,0.039 0.04,0.162 0.059,0.122 0.13,-0.26 0.082,-0.644 0.24,-0.963 0.131,-0.261 0.125,-0.866 0.301,-1.042 0.274,-0.274 0.675,0.696 0.721,0.742 0.047,0.047 0.253,0.228 0.301,0.18 v -1.222 c 0,-1.914 0,-12.448 0.059,-12.568 0.087,-0.173 0.502,-6.581 0.502,-7.317 0,-0.912 -0.152,-0.693 -0.622,-1.162 -0.098,-0.096 -0.042,-1.004 -0.061,-1.023 l -0.481,-0.42 c -0.184,-0.186 -1.507,0.601 -2.044,0.601 -1.17,0 -0.882,0.38 -1.464,0.962 -0.03,0.032 -0.088,-0.029 -0.12,-0.059 -0.125,-0.127 -0.12,-0.132 -0.12,-0.361 v -0.181 c -0.09,-0.045 -0.548,0.146 -0.601,0.181 -0.321,0.213 -0.603,0.984 -0.781,1.342 -0.34,0.68 -0.864,1.206 -1.223,1.925 -0.144,0.289 -0.297,1.337 -0.481,1.523 -0.888,0.886 -2.493,3.522 -3.027,4.59 -0.061,0.122 -0.301,0.962 -0.301,0.962 -0.255,0.255 -1.456,2.342 -1.563,2.666 -0.051,0.152 -0.959,0.523 -1.143,0.601 -0.18,0.079 -0.422,0.042 -0.561,0.181 -0.087,0.087 -0.037,0.088 -0.037,0.091 0,0.003 -0.014,0.004 -0.081,0.027 z m 5.792,-2.157 -0.019,-0.008 c 0,-0.603 1.363,-2.528 1.584,-3.408 v -0.021 c 0.147,-0.074 0.192,-0.564 0.24,-0.601 0.394,-0.295 1.029,-1.69 1.624,-2.284 l 0.641,-0.622 c 0.043,-0.043 0.136,-0.083 0.18,-0.04 0.104,0.104 -0.024,1.961 -0.059,2.142 -0.115,0.572 0.072,2.368 -0.04,2.629 -0.12,0.282 -0.616,0.423 -1.129,0.702 -0.696,0.38 -1.486,0.867 -1.959,0.962 -0.265,0.053 -0.224,0.601 -1.042,0.601 z m 20.334,-12.331 -0.008,-0.005 h 0.04 c 0.119,0.04 0.258,0.032 0.361,0.099 0.101,0.067 0.024,-0.072 0.12,0 0.147,0.112 0.436,0.418 0.641,0.523 0.109,0.053 0.298,0.019 0.422,0.019 h 0.16 c 0.058,0.232 0.71,1.332 0.962,1.483 0.144,0.087 0.468,0.083 0.662,0.181 0.046,0.022 0.152,-0.003 0.2,0.019 h 0.08 c 0,0.316 -0.786,0.539 -0.561,0.761 0.333,0.335 0.406,0.736 -0.341,0.923 -0.558,0.139 -1.188,-0.075 -1.723,0.139 -0.63,0.252 -1.265,0.757 -1.925,0.922 h -0.019 c -3.144,1.048 -6.435,5.503 -6.435,8.86 v 0.12 c 0,2.215 1.311,4.745 3.328,5.552 0.277,0.112 0.497,0.423 0.842,0.481 0.273,0.046 0.64,0.221 0.983,0.221 0.24,0 1.592,0.21 1.783,0.099 0.458,-0.261 0.968,-0.417 1.424,-0.721 0.242,-0.16 0.055,-0.955 -0.04,-1.002 -0.515,-0.258 -0.061,-3.426 0.141,-4.029 0.167,-0.5 0.521,-1.283 0.24,-1.563 l -0.08,-0.08 c -0.019,-0.019 -0.345,-0.085 -0.382,-0.061 -0.425,0.284 -1.61,0.101 -1.784,0.2 -0.612,0.35 -1.231,0.622 -1.844,0.962 -0.164,0.091 -1.185,0.718 -1.303,0.481 -0.026,-0.053 0.13,-0.149 0.16,-0.18 0.128,-0.128 0.394,-0.401 0.561,-0.502 0.354,-0.212 0.616,-1.188 0.983,-1.483 1.048,-0.838 2.939,-1.717 4.33,-2.065 0.032,-0.008 0.085,0.011 0.099,-0.019 l 0.04,-0.08 0.763,-0.341 c 0.26,-0.13 0.41,-0.495 0.681,-0.54 0.226,-0.038 0.321,0.26 0.481,0.34 0.592,0.297 1.242,-0.348 1.242,0.341 v 0.54 c -0.325,0.325 -0.088,1.159 -0.281,1.544 -0.093,0.186 -0.822,3.028 -0.822,3.107 0,0.099 -0.268,1.307 -0.281,1.323 -0.098,0.123 -0.139,3.391 -0.139,3.828 0,0.654 0.168,1.207 0.361,1.784 0.038,0.117 0.12,0.333 0.12,0.441 0,0.071 0.064,0.075 0.04,0.101 -0.13,0.13 -0.297,-0.188 -0.341,-0.2 -1.055,-0.301 -2.071,-2.052 -2.105,-2.065 -0.532,-0.213 -0.502,0.693 -0.922,0.902 -0.393,0.196 -0.978,0.729 -1.257,1.101 -0.321,0.428 -3.657,0.397 -3.955,0.101 -0.434,-0.434 -1.26,-0.375 -1.723,-0.721 -0.264,-0.199 -2.942,-2.59 -2.987,-2.746 -0.13,-0.455 -0.441,-1.124 -0.662,-1.565 0,0 -0.463,-2.214 -0.566,-3.588 -0.337,-4.489 2.155,-8.92 5.217,-11.546 0.438,-0.375 0.92,-1.072 1.443,-1.283 0.624,-0.248 1.164,-0.361 1.824,-0.58 0.468,-0.157 1.045,-0.232 1.464,-0.443 0.069,-0.034 0.184,-0.123 0.281,-0.099 z m 12.058,-1.027 h -0.08 c 0.107,0.107 -0.08,0.08 -0.08,0.08 -0.072,0.072 -0.343,0.311 -0.401,0.481 -0.095,0.284 -1.137,1.481 -0.962,2.006 -0.018,-0.018 -0.212,0.13 -0.24,0.16 -0.197,0.197 -0.377,0.765 -0.561,1.042 -0.165,0.247 -1.13,2.829 -1.284,3.286 -0.032,0.101 0.042,0.399 0,0.482 -0.313,0.627 -0.723,1.287 -1.042,1.924 -0.462,0.925 -0.798,2.56 -1.363,3.687 -0.37,0.741 -0.802,2.647 -1.042,4.17 -0.12,0.76 0,1.962 0,2.647 0,0.242 -0.003,0.955 0.08,1.122 0.034,0.067 0.186,0.374 0.24,0.321 -0.085,0.255 0.386,0.386 0.481,0.481 0.019,0.019 0.188,0.428 0.24,0.481 0.005,0.005 0.234,0.087 0.16,0.16 0.765,-0.255 1.864,0.361 2.887,-0.321 0.213,-0.143 1.812,-1.133 1.844,-1.122 l 0.24,-0.321 c 0.231,-0.348 0.678,-0.556 0.882,-0.962 0.199,-0.397 1.047,-1.765 1.443,-1.765 -0.654,0.095 -0.16,3.871 -0.16,4.33 h 0.16 c 0,0.175 0.106,0.829 0.321,0.721 -0.059,0.18 0.41,0.46 0.561,0.561 0.935,0.624 2.291,-0.917 2.647,-0.561 0.058,0.058 -0.348,0.752 -0.401,0.962 -0.048,0.189 -1.247,2.85 -1.443,3.047 -0.2,0.2 -0.803,0.957 -0.803,1.283 0,0.22 -0.034,0.285 0.08,0.401 0,0 -0.026,0.188 0.082,0.08 v 0.16 c 0.095,-0.095 0.314,0.395 0.321,0.401 0.151,0.152 1.066,-0.248 0.962,-0.561 0.096,0.096 0.143,-0.289 0.24,-0.321 0.369,-0.123 0.455,0.293 0.561,0.24 0.377,-0.188 1.122,-1.367 1.122,-0.481 h 0.16 v -0.16 c 0.048,0.024 0.287,-0.138 0.321,-0.16 0.213,-0.141 1.371,-1.869 1.523,-2.324 0.054,-0.16 0.471,-0.688 0.561,-0.643 v -0.16 c 0.074,0.074 0.155,-0.154 0.162,-0.16 0.062,-0.063 0.264,-0.149 0.401,-0.24 0.055,-0.037 0.072,-0.124 0.16,-0.08 -0.066,-0.192 0.096,-0.417 0.24,-0.561 0.984,-0.986 3.145,-5.571 3.928,-7.135 0.051,-0.101 1.146,-1.614 1.284,-1.683 l 0.882,-0.08 c 0.056,0 0.311,-0.09 0.24,-0.16 0.135,0.045 2.052,-1.525 2.725,-1.525 -0.048,-0.047 0.263,-0.224 0.321,-0.24 0.297,-0.074 0.585,-0.24 0.882,-0.24 v -0.16 c 0.098,0 0.669,-0.293 0.803,-0.16 0.314,0.316 -0.322,2.86 -0.322,2.887 0,0.239 0.242,1.119 0.24,1.122 h 0.162 c 0,1.117 0.16,2.217 0.16,3.368 v 0.321 c 0.03,0.031 0.449,-0.032 0.481,0 0.442,0.442 0.074,2.398 0.721,3.046 0.022,0.022 0,0.05 0,0.08 0,0.18 0.086,0.24 0.24,0.24 0,0.295 -0.019,0.34 -0.16,0.481 -0.019,0.019 0.08,0.253 0.08,0.401 0.202,-0.101 0.151,0.232 0.16,0.24 0.258,0.26 -0.01,0.821 -0.16,1.124 -0.003,0.005 -0.055,0.534 0.08,0.401 -0.095,0.282 0.16,0.107 0.16,0.401 h 0.16 c -0.034,0.034 0.202,0.204 0.24,0.321 0.072,0.218 0.16,0.417 0.16,0.641 h 0.08 v 0.24 h 0.16 l 0.08,0.16 v 0.16 c 0.171,0.172 0.187,-0.505 0.08,-0.721 -0.164,-0.327 0.08,-1.133 0.08,-1.523 0,-0.515 0.239,-2.881 0.321,-3.128 0.348,-1.042 0.215,-6.693 0.321,-7.135 0.401,-1.683 0.641,-4.771 0.641,-6.895 0,-1.42 0.224,-3.14 0.561,-4.49 0.106,-0.425 0.144,-1.089 0.321,-1.443 0.051,-0.103 0.191,-0.139 0.24,-0.24 0.006,-0.011 0.051,-0.452 -0.08,-0.321 v -0.401 h -0.16 c 0,-0.027 0.045,-0.366 -0.08,-0.24 v -0.162 c -0.3,0 -0.697,-0.16 -1.042,-0.16 -0.039,0 -0.715,-0.087 -0.641,-0.16 h -0.16 c 0.085,-0.083 -0.213,-0.213 -0.321,-0.16 v -0.16 l -0.08,-0.08 h -0.24 c 0.067,-0.066 -0.223,-0.223 -0.24,-0.24 -0.127,-0.127 -0.071,-0.423 -0.24,-0.481 -0.154,-0.051 -0.367,0.196 -0.481,0.08 0.143,0.431 -0.441,0.321 -0.561,0.561 -0.232,0.465 0.07,1.14 -0.16,1.605 l -0.802,0.721 a 0.055,0.055 0 0 0 0,0.08 c -0.269,0 -0.757,0.511 -0.803,0.481 0.043,0.042 -0.037,0.119 -0.08,0.16 -0.149,0.149 -0.524,0.327 -0.641,0.561 -0.242,0.484 -0.949,0.938 -1.202,1.443 -0.417,0.834 -1.391,2.3 -2.244,2.727 -0.151,0.075 -0.438,0.904 -0.641,0.802 0.047,0.139 -0.608,0.734 -0.723,0.962 -0.269,0.539 -1.129,2.175 -1.443,2.645 -0.165,0.249 -0.709,0.441 -0.641,0.643 -0.003,-0.003 -0.862,0.535 -0.802,0.721 -0.125,-0.063 -1.327,0.925 -1.443,1.042 -0.237,0.237 -1.178,0.191 -1.284,0.401 -0.074,0.149 0.438,0.89 0.242,1.283 -0.128,0.255 -0.563,0.357 -0.563,0.641 h 0.402 c 0.402,0 0.633,-0.24 0.962,-0.24 0.053,0 0.133,-0.027 0.08,0.08 -0.189,0.378 -2.405,3.714 -2.567,3.769 -0.106,0.035 -0.96,-0.079 -0.962,-0.08 -0.095,-0.095 -0.146,-0.415 -0.24,-0.321 0,-0.181 -0.022,-1.56 0,-1.605 0.409,-0.816 0.388,-1.898 0.802,-2.725 0.55,-1.098 1.672,-4.231 2.166,-4.971 0.128,-0.192 0.309,-0.282 0.24,-0.561 h 0.08 c 0.353,-1.31 1.178,-2.573 1.603,-3.849 0.106,-0.316 0.535,-1.578 0.721,-1.763 l 0.321,-0.24 c -0.042,-0.125 0.322,-0.72 0.16,-0.882 -0.026,-0.026 -0.3,-0.261 -0.24,-0.321 h -0.16 l -0.08,-0.08 v -0.16 c -0.264,0.263 0.226,-1.509 -0.08,-1.202 0,-0.648 -1.318,-0.561 -1.844,-0.561 l -0.08,-0.08 v -0.16 c -0.061,0.059 -0.157,-0.082 -0.24,-0.082 -0.175,0 -0.856,0.01 -0.963,0.082 -0.524,0.349 -1.667,3.272 -2.164,3.767 l -0.24,0.641 c -0.069,0.138 -0.337,0.258 -0.24,0.401 h -0.08 c 0.234,0.704 -0.422,1.234 -0.721,1.685 -0.056,0.083 -0.481,2.661 -0.481,3.046 h -0.16 c 0,0.072 -0.083,0.399 -0.16,0.321 0.087,0.348 -0.459,1.056 -0.561,1.363 -1.093,3.28 -0.738,2.1 -3.047,4.41 -0.423,0.425 -0.755,1.092 -1.282,1.443 -0.266,0.178 -0.491,0.25 -0.721,0.481 a 0.057,0.057 0 0 0 0,0.08 h -0.16 c 0.117,0.117 -0.585,0.298 -0.481,0.402 -0.037,-0.013 -1.02,1.013 -1.765,0.641 -1,-0.5 0.915,-4.15 0.803,-4.49 a 1.49,1.49 0 0 0 0.321,-0.401 c 0.216,-0.436 0.135,-1.206 0.401,-1.603 0.617,-0.927 1.283,-1.308 1.283,-2.647 l 0.08,-0.16 h 0.16 c -0.005,-0.01 0.16,-0.329 0.16,-0.481 a 0.057,0.057 0 0 0 0.08,0 l 0.401,-0.401 c 0.426,-0.426 0.455,-1.231 0.721,-1.763 0.136,-0.272 0.596,-0.471 0.721,-0.721 0.112,-0.226 -0.098,-0.928 0.08,-1.284 0.027,-0.053 0.171,-0.39 0.24,-0.321 -0.055,-0.164 1.447,-2.155 1.364,-2.325 h 0.16 c -0.093,-0.186 0.721,-1.622 0.721,-1.683 h -0.16 v -0.16 c -0.119,0.117 -0.422,-0.422 -0.481,-0.483 a 0.059,0.059 0 0 0 -0.08,0 v -0.16 h -0.16 c 0.106,-0.106 -0.08,-0.08 -0.08,-0.08 -0.006,-0.005 -0.058,-0.503 -0.162,-0.401 0,-0.181 -0.253,-0.763 -0.24,-0.802 h -0.16 c 0.305,-0.608 -0.947,-0.431 -1.282,-0.321 -0.184,0.055 -0.603,0.557 -0.725,0.475 z m 16.557,10.784 c 0.027,0 0.199,-0.611 0.3,-0.782 0.423,-0.702 0.864,-1.584 1.343,-2.224 0.414,-0.551 2.464,-3.161 1.985,-0.763 -0.099,0.495 -0.321,0.734 -0.321,1.284 0,1.026 -0.242,0.912 -1.002,1.101 -0.763,0.191 -1.64,1.384 -2.305,1.384 z m 8.413,18.873 c -0.024,0 -0.015,-0.048 -0.015,-0.072 v -0.401 c 0,-0.297 0.338,-0.824 0.26,-0.901 -0.755,-0.755 0.851,-2.972 1.244,-3.889 0.042,-0.099 -0.032,-0.891 0,-0.922 0.024,-0.026 0.305,-0.122 0.26,-0.2 -0.08,-0.139 -0.235,-0.539 -0.139,-0.761 0.075,-0.176 0.333,-0.252 0.401,-0.402 0.186,-0.417 0.143,-0.684 0.38,-1.042 0.042,-0.063 0.043,-0.374 0.141,-0.521 0.062,-0.095 0.061,-0.223 0.12,-0.321 0.188,-0.314 0.486,-0.325 0.58,-0.641 0.168,-0.561 -0.136,-1.279 0,-1.624 0.255,-0.638 1.186,-3.738 1.364,-3.968 l 0.2,-0.261 c 0.362,-0.473 0.011,-1.061 0.2,-1.504 0.194,-0.454 0.441,-0.928 0.701,-1.363 0.143,-0.237 0.176,-1.167 0.521,-1.744 0.04,-0.064 0.279,-1.225 0.2,-1.302 -0.096,-0.098 -0.404,0.322 -0.521,0.401 -0.204,0.136 -0.433,0.112 -0.641,0.321 -0.064,0.064 -2.03,0.489 -1.884,-0.141 -0.034,0.034 -0.242,-0.172 -0.261,-0.18 -0.176,-0.077 -0.106,0.042 -0.321,-0.08 -0.026,-0.016 -0.636,-0.037 -0.66,-0.061 -0.434,-0.433 -0.433,-0.6 -0.963,-0.903 -0.133,-0.075 -0.023,-0.152 -0.26,-0.08 0.06,-0.043 -0.197,-0.115 -0.2,-0.12 -0.104,-0.103 0.063,-0.923 0.12,-0.981 0.401,-0.401 1.828,-1.265 1.624,-1.945 0.148,-0.064 0.021,-0.002 0.139,-0.12 a 2.9,2.9 0 0 1 0.462,-0.261 c 0.322,-0.12 1.092,-0.317 1.363,-0.521 0.172,-0.128 0.287,-0.16 0.521,-0.26 0.954,-0.409 1.89,-0.737 2.906,-1.042 0.218,-0.066 0.284,-0.306 0.521,-0.402 0.188,-0.074 0.559,-0.066 0.721,-0.18 l 0.2,-0.141 c 1.04,-0.726 3.766,-0.401 4.29,-0.701 0.329,-0.188 0.661,-0.601 0.903,-0.721 0.394,-0.197 4.708,0.468 5.011,0.641 0.507,0.289 0.79,0.289 1.162,0.66 0.023,0.022 0.407,0.587 0.521,0.523 -0.005,0.345 0.853,0.481 0.903,0.58 0.17,0.342 0.425,0.664 0.781,0.842 0.045,0.022 0.17,0.45 0.2,0.521 0.116,0.268 0.361,0.481 0.521,0.641 0.234,0.234 -0.027,0.688 0.12,0.983 0.075,0.151 -0.083,0.688 -0.059,0.842 -0.157,0.367 0.071,1.092 -0.056,1.507 -0.327,1.063 -0.779,1.767 -1.448,2.722 -0.414,0.592 -1.106,0.712 -1.423,1.164 -0.056,0.08 -0.183,0.539 -0.321,0.58 -0.319,0.096 -1.428,0.667 -1.683,0.922 -0.229,0.231 -0.483,0.454 -0.782,0.582 l -0.26,0.061 h -0.141 c 0,0.042 1.4,1.318 1.504,1.422 0.779,0.779 1.175,2.018 1.824,2.666 0.454,0.455 1.148,1.031 1.544,1.624 0.016,0.026 0.05,-0.011 0.08,0 1.8,0.72 3.652,3.355 5.311,4.089 -0.042,0.072 0.349,0.361 0.401,0.401 0.263,0.202 0.875,0.79 1.042,1.042 0.271,0.406 3.483,3.41 4.223,4.149 0.072,0.072 0.202,0.842 0.127,0.922 0.159,-0.526 -2.623,-1.767 -2.805,-2.225 -0.207,-0.516 -2.727,-2.438 -3.368,-2.666 -0.024,-0.008 -1.701,-1.634 -1.884,-1.743 -0.47,-0.282 -1.276,-0.561 -1.763,-0.903 -0.71,-0.497 -0.986,-1.254 -1.424,-1.763 -0.29,-0.338 -0.769,-0.25 -1.223,-1.042 -0.042,-0.074 -0.441,-0.269 -0.521,-0.382 l -0.14,-0.2 c -0.197,-0.281 -0.481,-0.401 -0.721,-0.641 -0.03,-0.031 -0.075,-0.284 -0.181,-0.341 -0.087,-0.046 -0.488,-0.309 -0.401,-0.441 h -0.18 c 0.042,-0.072 -0.234,-0.228 -0.261,-0.321 -0.035,-0.117 -0.391,-0.531 -0.521,-0.66 -0.027,-0.027 -0.457,0.032 -0.521,0 l -0.321,-0.202 c -0.042,-0.022 -0.26,-0.12 -0.2,-0.179 -0.271,0 -0.839,-0.577 -1.042,-0.782 -0.141,-0.139 -0.895,-0.093 -1.103,-0.58 -0.111,-0.258 -0.431,-0.361 -0.662,-0.521 -0.136,-0.096 -0.316,-0.168 -0.38,-0.321 l -0.12,-0.261 c -0.037,-0.085 -0.029,-0.098 -0.027,-0.098 0.003,0.002 -0.003,0.024 -0.114,-0.042 -0.074,-0.045 -0.059,-0.053 -0.059,-0.12 v -0.141 0.2 l 0.12,0.12 0.08,0.2 c 0.045,0.148 0.059,0.13 0.059,0.321 0,0.191 0.067,0.402 0.2,0.521 0.326,0.293 0.681,0.593 0.962,0.922 0.29,0.338 0.957,0.818 1.303,1.164 0.681,0.68 1.768,1.307 2.607,2.143 0.348,0.349 0.455,0.636 0.701,0.963 0.019,0.024 -0.027,0.064 0,0.08 l 0.721,0.18 c 0.627,0.733 1.711,1.164 2.145,2.145 0.069,-0.045 0.091,0.059 0.12,0.08 0.3,0.21 0.94,0.739 0.983,1.023 0.188,-0.075 0.245,0.202 0.38,0.26 1.515,0.649 3.262,2.28 4.431,3.448 0.106,0.106 0.633,0.973 0.842,1.042 0.324,0.109 1.148,0.502 1.363,0.782 0.087,0.111 0.159,0.455 0.2,0.58 0.002,0.006 2.262,2.318 2.466,2.406 0.021,0.008 -0.006,0.037 0,0.059 0.082,0.276 0.521,0.26 0.521,0.521 0,0.107 0.098,0.279 0,0.321 -0.037,0.016 -0.176,-0.072 -0.2,-0.12 -0.018,-0.034 -1.521,-1.486 -1.563,-1.502 -1.089,-0.436 -4.171,-3.469 -5.653,-4.21 -1.15,-0.576 -2.751,-2.39 -3.689,-3.328 -0.465,-0.465 -0.734,-0.853 -1.042,-1.162 -0.127,-0.127 -0.64,-0.215 -0.782,-0.382 l -0.14,-0.2 c -1.207,-0.534 -1.847,-1.523 -2.847,-1.823 l -0.2,-0.12 c -0.021,-0.011 -0.05,0.021 -0.059,0 -0.069,-0.159 -3.309,-3.84 -3.448,-3.91 -0.261,-0.13 -2.95,-1.848 -3.046,-1.943 -0.154,-0.154 0.034,-0.443 0.12,-0.641 0.531,-1.238 0.989,0.232 1.884,-0.662 0.133,-0.133 -0.672,-0.845 -0.842,-0.903 -0.104,-0.034 -0.289,-0.194 -0.2,-0.26 l -0.181,-0.061 c 0,-0.364 0.032,-0.548 0.261,-0.721 0.098,-0.074 0.093,-0.234 0.18,-0.321 0.136,-0.135 0.513,0.168 0.521,0.181 0.505,0.67 0.962,0.922 2.086,0.922 0.175,0 0.415,0.079 0.521,-0.061 0.718,-0.959 1.803,-2.926 2.525,-3.767 0.037,-0.043 0.102,-0.481 0.061,-0.523 -0.127,-0.125 -0.367,-0.55 -0.441,-0.721 l -0.922,-0.321 c -0.146,-0.043 -0.08,-0.104 -0.12,-0.2 -0.01,-0.021 -0.039,0.01 -0.061,0 -0.26,-0.111 -0.859,-0.455 -0.922,-0.58 h -0.181 c -0.072,0 -0.576,-0.021 -0.601,0 -0.098,0.083 -0.053,0.109 -0.056,0.117 -0.002,0.003 -0.015,0.003 -0.064,0.003 -2.179,0 -2.51,0.239 -3.307,1.964 -0.079,0.17 -0.245,0.309 -0.26,0.521 -0.155,0.088 -0.117,-0.564 -0.662,-0.401 -0.112,0.034 -0.51,1.916 -0.641,2.084 l -0.922,1.164 c -0.874,1.311 -1.271,6.02 -1.945,6.695 -0.047,0.046 0,0.133 0,0.2 0,0.858 -0.151,1.387 -0.441,2.065 -0.101,0.236 -0.265,2.534 -0.462,3.126 -0.189,0.568 -0.386,0.709 -0.58,1.162 -0.398,0.925 0.282,1.637 -0.662,2.345 -0.019,0.015 0,0.037 0,0.061 0,0.292 0.024,0.895 -0.18,0.981 -0.074,0.032 -0.606,-0.115 -0.662,-0.139 -0.098,-0.042 -0.061,-0.234 0,-0.321 0.107,-0.154 0.54,-0.58 0.662,-0.702 0.115,-0.115 0,-0.781 0.059,-0.922 0.042,-0.098 0.503,-0.563 0.582,-0.641 0.119,-0.119 0.107,-0.322 0.2,-0.462 0.042,-0.063 -0.184,-0.444 -0.2,-0.46 -0.021,-0.019 0.019,-0.622 0,-0.641 -0.138,-0.138 -0.46,0.397 -0.521,0.521 -0.151,0.298 -0.976,2.459 -0.983,2.466 -0.402,0.402 -0.872,1.892 -1.103,2.025 -0.301,0.171 -0.417,-1.435 -1.042,-0.342 -0.027,0.05 -0.032,0.699 -0.059,0.782 -0.112,0.332 -0.309,0.481 -0.442,0.922 v 0.38 c -0.112,0.085 -0.194,-0.377 -0.46,-0.2 -0.74,0.494 -0.288,0.293 -0.582,0 -0.021,-0.022 -0.05,-0.008 -0.08,0 l 0.019,0.016"
       id="path40"
       inkscape:connector-curvature="0" />
    <path
       d="m 544.136,317.027 -0.008,-0.006 c 0.213,0.122 0.386,-0.002 0.542,0.061 0.56,0.223 1.068,0.152 1.603,0.42 0.744,0.372 1.61,1.505 2.567,1.824 0.051,0.018 0.01,0.114 0.04,0.16 0.103,0.165 0.33,0.49 0.481,0.641 0.372,0.373 1.613,1.93 1.924,2.086 0.116,0.058 0.441,0.26 0.481,0.361 0.05,0.122 0.239,0.6 0.281,0.641 0.417,0.417 0.656,0.396 1.162,0.701 0.116,0.069 0.386,0.535 0.441,0.702 0.034,0.096 0.175,0.106 0.261,0.16 0.335,0.21 1.922,1.654 2.084,1.763 0.21,0.139 0.284,0.523 0.582,0.641 0.18,0.072 0.149,0.396 0.321,0.481 0.778,0.389 3.048,1.544 3.748,2.246 0.144,0.144 0.156,0.401 0.321,0.521 0.385,0.279 1.233,0.601 1.504,0.962 0.521,0.696 2.082,2.701 2.826,3.107 0.159,0.086 0.255,0.035 0.26,0.261 0.018,-0.018 0.045,-0.018 0.061,0 0.083,0.083 0.234,0.292 0.382,0.38 0.325,0.195 0.742,0.806 1.002,1.023 0.037,0.032 0.072,0.027 0.12,0.04 0.184,0.046 1.895,1.05 1.544,1.403 -0.063,0.061 -0.213,0.072 -0.261,0 -0.197,-0.295 -0.449,-0.574 -0.761,-0.761 -0.08,-0.048 -0.311,-0.037 -0.361,-0.16 -0.388,-0.968 -3.568,-2.514 -4.009,-3.248 -0.027,-0.046 -0.31,-0.053 -0.321,-0.059 -0.135,-0.08 -0.694,-0.314 -0.702,-0.321 -0.244,-0.244 -0.556,-0.715 -0.802,-0.863 -0.595,-0.356 -2.034,-1.967 -2.185,-2.025 -0.899,-0.337 -1.6,-1.151 -2.626,-1.662 -0.138,-0.07 -0.321,-0.082 -0.42,-0.2 -0.643,-0.771 -4.771,-3.823 -4.811,-4.29 h -0.16 c 0.021,-0.014 -0.155,-0.128 -0.22,-0.16 -0.031,-0.016 -0.077,0.024 -0.101,0 l -0.542,-0.321 c -0.035,-0.014 -0.797,-1.218 -1.061,-1.483 l -0.12,-0.122 c -0.742,-0.741 -1.409,-1.496 -2.345,-1.964 -0.021,-0.01 -0.441,-0.781 -0.582,-0.922 -0.016,-0.016 -0.037,0.006 -0.059,0 -0.768,-0.192 -1.432,-0.112 -1.985,-0.481 -0.196,-0.13 -0.321,-0.832 -0.321,-1.223 v -0.059 c 0,-0.04 -0.024,-0.069 0,-0.101 0.032,-0.042 0.273,-0.064 0.22,-0.099 z"
       id="path42"
       inkscape:connector-curvature="0" />
    <path
       d="m 566.578,338.608 c 0.062,-0.063 0.212,-0.013 0.261,0.061 0.152,0.229 0.388,0.335 0.481,0.58 0.099,0.266 0.616,0.138 0.761,0.382 0.074,0.123 0.13,0.144 0.2,0.261 0.071,0.117 0.12,0.125 0.12,0.281 v 0.259 l -0.061,0.16 c 0,0 0.055,0.013 -0.059,-0.099 -0.093,-0.095 0.053,-0.027 -0.04,-0.12 l -0.061,-0.04 c -0.011,-0.021 0.018,-0.045 0,-0.061 -0.077,-0.077 -0.088,-0.135 -0.16,-0.22 -0.058,-0.071 -0.273,-0.133 -0.38,-0.261 -0.114,-0.136 -0.37,-0.21 -0.481,-0.321 -0.064,-0.063 -0.763,-0.59 -0.903,-0.641 -0.587,-0.22 -1.065,-0.544 -1.544,-1.023 -0.396,-0.396 -2.047,-1.311 -2.204,-1.704 -0.013,-0.031 -0.077,0.024 -0.101,0 a 1.422,1.422 0 0 0 -0.58,-0.38 c -0.143,-0.058 -3.254,-2.48 -3.267,-2.506 -0.019,-0.037 -0.019,-0.048 -0.018,-0.048 0.005,-0.003 0.022,0.032 -0.043,-0.013 -0.8,-0.532 -1.558,-1.38 -2.405,-1.803 -0.09,-0.045 -0.681,-0.939 -0.681,-1.082 v -0.04 c -1.092,-0.728 -1.783,-0.484 -3.168,-2.145 -0.022,-0.027 -0.005,-0.088 -0.04,-0.099 -0.641,-0.215 -3.944,-3.767 -4.128,-4.231 -0.111,-0.273 -0.591,-0.228 -0.742,-0.481 -0.208,-0.348 -0.125,-0.579 -0.382,-0.962 -0.08,-0.12 -1.255,-0.393 -1.282,-0.422 -0.329,-0.329 -0.478,-0.879 -0.681,-1.082 -0.245,-0.245 -0.912,-0.366 -1.122,-0.681 -0.016,-0.024 0,-0.265 0,-0.321 0.043,0.027 0.178,-0.112 0.2,-0.12 h 0.761 c 0.252,0.151 1.133,0.915 1.323,0.962 0.726,0.183 1.411,0.324 1.985,0.802 0.835,0.696 0.489,1.157 0.903,1.985 0.333,0.668 3.638,3.639 4.328,4.33 0.265,0.263 0.438,0.827 0.763,1.023 0.125,0.075 0.954,0.212 1.002,0.26 0.298,0.298 0.79,0.571 1.021,0.802 0.085,0.085 0.138,0.592 0.221,0.641 0.117,0.071 1.335,1.089 1.383,1.183 0.039,0.079 0.212,-0.032 0.26,0.04 0.13,0.196 0.612,0.367 0.802,0.481 0.146,0.088 0.465,0.685 0.641,0.802 0.112,0.075 0.798,0.691 0.803,0.702 0.074,0.199 0.292,0.112 0.441,0.261 0.37,0.37 1.242,0.5 1.603,0.861 1.641,1.641 3.432,2.751 4.59,3.908"
       id="path44"
       inkscape:connector-curvature="0" />
  </g>
  <g
     id="g164">
    <path
       d="m 19.726,129.977 c -5.911,6.13 -9.098,10.261 -10.056,11.553 a 1.528,1.528 0 0 0 -0.3,0.956 l 4.437,168.692 c 0.004,0.138 0.024,0.268 0.064,0.4 0.806,2.657 9.901,31.944 23.112,44.422 13.008,12.285 43.03,24.571 52.996,27.926 a 1.535,1.535 0 0 0 1.988,-1.119 c 1.024,-4.516 4.914,-17.302 17.394,-26.038 14.055,-9.838 51.038,-13.257 57.327,-13.774 a 1.52,1.52 0 0 0 1.248,-0.851 c 1.167,-2.389 5.779,-9.452 19.52,-9.452 13.74,0 18.35,7.062 19.517,9.451 0.238,0.488 0.707,0.807 1.248,0.852 6.289,0.518 43.262,3.936 57.317,13.774 12.478,8.734 16.354,21.517 17.373,26.035 a 1.535,1.535 0 0 0 1.989,1.121 c 9.963,-3.357 39.94,-15.641 52.947,-27.926 13.214,-12.48 22.224,-41.772 23.02,-44.423 0.039,-0.131 0.059,-0.261 0.063,-0.398 l 4.248,-168.581 a 1.527,1.527 0 0 0 -0.418,-1.095 1575.19,1575.19 0 0 0 -11.28,-11.753 1.57,1.57 0 0 0 -0.524,-0.357 1.543,1.543 0 0 1 -0.955,-1.427 V 14.082 c 0,-0.653 -0.403,-1.233 -1.018,-1.452 C 345.828,10.797 321.695,2.669 292.075,0.006 292.025,0.002 291.975,0 291.926,0 H 82.052 C 82.017,0 81.983,0.001 81.948,0.003 52.14,1.791 25.51,10.699 20.029,12.63 A 1.54,1.54 0 0 0 19,14.085 V 130 Z"
       id="path48"
       inkscape:connector-curvature="0"
       style="fill:#2f3033" />
    <path
       d="m 367.923,264.494 c 0,0 -0.491,1.765 -1.332,3.365 -0.934,1.778 -2.856,3.579 -5.881,4.704 l 3.699,-130.068 c 0,0 -32.152,-36.495 -69.986,-61.495 h -9.177 l -0.378,-70.25 8.825,-1.71 77.231,60.559 z"
       id="path50"
       inkscape:connector-curvature="0"
       style="fill:#141619" />
    <path
       d="M 90.129,0 89.873,44 H 285.066 L 285.467,0 Z"
       id="path52"
       inkscape:connector-curvature="0"
       style="fill:#232326" />
    <path
       d="m 7,264.494 c 0,0 0.491,1.765 1.332,3.365 0.934,1.778 2.856,3.579 5.881,4.704 L 10.514,142.495 c 0,0 32.152,-36.495 69.986,-61.495 h 9.177 L 90.055,10.75 81.23,9.04 4,69.599 Z"
       id="path54"
       inkscape:connector-curvature="0"
       style="fill:#141619" />
    <path
       d="M 80.176,6 83.5,8.811 V 81.078 L 80.183,81 Z"
       id="path56"
       inkscape:connector-curvature="0"
       style="fill:#202125" />
    <path
       d="m 187.462,318.692 c 20.038,0 38.462,-8.192 45.962,-12.192 7.5,-4 22,-12.5 31.5,-25 9.5,-12.5 17,-25.5 21,-44.5 4,-19 3,-193 3,-193 0,0 -61.924,-8 -101.462,-8 C 147.924,36 86,44 86,44 c 0,0 -1,174 3,193 4,19 11.5,32 21,44.5 9.5,12.5 24,21 31.5,25 7.5,4 25.923,12.192 45.962,12.192 z"
       id="path58"
       inkscape:connector-curvature="0"
       style="fill:#323335" />
    <path
       d="m 187.462,341.393 c 12.746,0 17.041,4.682 18.138,6.286 0.227,0.332 0.586,0.537 0.987,0.55 5.384,0.169 41.73,1.645 55.292,11.034 12.412,8.593 17.896,22.06 19.288,25.993 0.221,0.625 0.888,0.962 1.523,0.773 6.615,-1.978 31.967,-10.023 49.446,-25.491 16.303,-14.427 22.097,-36.294 22.097,-42.06 0,-12.018 10.283,-166.37 10.928,-176.041 a 1.203,1.203 0 0 0 -0.271,-0.852 c -2.794,-3.449 -25.01,-30.085 -68.567,-60.422 -0.813,-0.566 -1.936,-0.003 -1.964,0.987 l -3.744,135.389 c 0,55.866 -47.288,102.154 -103.154,102.154 -55.866,0 -103.153,-46.289 -103.153,-102.155 L 80.253,83.296 C 80.223,82.308 79.101,81.747 78.29,82.312 34.819,112.566 12.871,138.185 10.046,141.58 a 1.212,1.212 0 0 0 -0.282,0.866 c 0.651,9.761 10.927,164.018 10.927,176.032 0,5.766 5.794,27.633 22.097,42.06 17.479,15.468 42.832,23.513 49.446,25.491 a 1.235,1.235 0 0 0 1.523,-0.773 c 1.392,-3.933 6.876,-17.4 19.288,-25.993 13.562,-9.39 49.907,-10.866 55.292,-11.034 0.402,-0.013 0.76,-0.218 0.987,-0.55 1.096,-1.604 5.391,-6.286 18.138,-6.286 z"
       id="path60"
       inkscape:connector-curvature="0"
       style="fill:#0d1725" />
    <path
       d="m 75.833,9.917 0.176,82.161 4.174,-0.09 L 80.176,7 C 78.804,7.805 76.707,9.331 75.833,9.917 Z M 69.322,97.134 73.509,97.038 73.448,11.13 c -1.041,0.748 -3.325,2.709 -4.217,3.37 z m -6.705,5.069 4.199,-0.101 -0.115,-84.175 c -1.394,0.944 -2.807,1.92 -4.228,2.911 z m -6.721,5.083 4.212,-0.107 -0.169,-83.691 c -1.405,0.995 -2.82,2.01 -4.239,3.039 z m -6.739,5.095 4.225,-0.113 -0.223,-83.424 a 546.45,546.45 0 0 0 -4.249,3.152 z m -6.756,5.108 4.237,-0.118 -0.277,-82.998 a 621.24,621.24 0 0 0 -4.26,3.254 z m -7.013,4.697 4.127,-0.12 -0.331,-82.368 a 632.116,632.116 0 0 0 -4.146,3.255 z m -6.551,5.559 4.263,-0.13 -0.384,-82.77 a 717.974,717.974 0 0 0 -4.281,3.445 z m -6.807,5.147 4.276,-0.135 -0.437,-82.901 a 847.664,847.664 0 0 0 -4.895,4.049 z m -6.813,7.163 4.288,-0.143 -1.5,-84.037 c -1.48,1.248 -2.513,2.286 -3.892,3.472 z m -4.697,131.743 4.3,2.849 L 11.298,61.5 c -1.524,1.329 -2.574,1.965 -3.924,3.177 z"
       id="path62"
       inkscape:connector-curvature="0"
       style="fill:#313339" />
    <path
       d="m 73.448,11.13 1.059,1.406 -0.036,79.575 -0.966,0.021 z m -6.746,6.798 1.064,1.405 0.012,77.29 -0.969,0.022 z m -6.763,5.56 1.067,1.406 0.062,76.487 -0.972,0.023 z m -6.781,5.356 1.072,1.406 0.111,76.088 -0.975,0.024 z m -6.797,5.529 1.076,1.406 0.16,75.691 -0.978,0.026 z m -7.177,5.305 1.08,1.405 0.212,75.947 -0.98,0.027 z m -6.468,5.167 1.084,1.405 0.259,75.957 -0.983,0.029 z m -6.848,5.011 1.089,1.404 0.309,76.542 -0.986,0.03 z m -7.863,6.019 2.092,0.699 0.36,76.988 -0.989,0.031 z m -6.707,5.625 1.884,0.946 0.45,77.058 -0.992,0.033 z"
       id="path64"
       inkscape:connector-curvature="0"
       style="fill:#202125" />
    <path
       d="m 3.178,263.072 c 0,0 0.988,3.372 2.431,4.869 1.568,1.626 2.881,2.254 2.881,2.254 L 4,67.188 a 337.863,337.863 0 0 0 -4,3.425 z"
       id="path66"
       inkscape:connector-curvature="0"
       style="fill:#313339" />
    <path
       d="M 4,67.188 6.199,67.875 9.356,270.628 8.49,270.195 7.564,269.632 Z"
       id="path68"
       inkscape:connector-curvature="0"
       style="fill:#202125" />
    <g
       id="g72">
      <path
         d="m 294.748,6 -3.325,2.811 V 81.078 L 294.74,81 Z"
         id="path70"
         inkscape:connector-curvature="0"
         style="fill:#202125" />
    </g>
    <g
       id="g82">
      <path
         d="M 299.09,9.917 298.914,92.078 294.74,91.988 294.748,7 c 1.371,0.805 3.468,2.331 4.342,2.917 z m 6.511,87.217 -4.187,-0.096 0.061,-85.909 c 1.041,0.748 3.325,2.709 4.217,3.37 z m 6.705,5.069 -4.199,-0.101 0.115,-84.175 c 1.394,0.944 2.807,1.92 4.228,2.911 z m 6.722,5.083 -4.212,-0.107 0.169,-83.691 c 1.405,0.995 2.82,2.01 4.239,3.039 z m 6.738,5.095 -4.225,-0.113 0.223,-83.424 a 546.45,546.45 0 0 1 4.249,3.152 z m 6.756,5.108 -4.237,-0.118 0.277,-82.998 a 621.24,621.24 0 0 1 4.26,3.254 z m 7.013,4.697 -4.127,-0.12 0.331,-82.368 a 632.116,632.116 0 0 1 4.146,3.255 z m 6.551,5.559 -4.263,-0.13 0.384,-82.77 a 760.392,760.392 0 0 1 4.281,3.444 z m 6.807,5.147 -4.276,-0.135 0.437,-82.901 a 847.664,847.664 0 0 1 4.895,4.049 z m 6.813,7.163 -4.288,-0.143 1.5,-84.037 c 1.48,1.248 2.513,2.286 3.892,3.472 z m 4.697,131.743 -4.3,2.849 3.522,-213.147 c 1.524,1.329 2.574,1.965 3.924,3.177 z"
         id="path74"
         inkscape:connector-curvature="0"
         style="fill:#313339" />
      <path
         d="m 301.475,11.13 -1.059,1.406 0.036,79.575 0.966,0.021 z m 6.746,6.798 -1.063,1.405 -0.013,77.29 0.969,0.022 z m 6.763,5.56 -1.067,1.406 -0.062,76.487 0.972,0.023 z m 6.781,5.356 -1.072,1.406 -0.11,76.088 0.974,0.024 z m 6.797,5.529 -1.076,1.406 -0.16,75.691 0.978,0.026 z m 7.177,5.305 -1.08,1.405 -0.212,75.947 0.98,0.027 z m 6.468,5.167 -1.084,1.405 -0.259,75.957 0.983,0.029 z m 6.848,5.011 -1.089,1.404 -0.309,76.542 0.986,0.03 z m 7.863,6.019 -2.092,0.699 -0.36,76.988 0.989,0.031 z m 6.707,5.625 -1.884,0.946 -0.45,77.058 0.992,0.033 z"
         id="path76"
         inkscape:connector-curvature="0"
         style="fill:#202125" />
      <path
         d="m 371.745,263.072 c 0,0 -0.988,3.372 -2.431,4.869 -1.568,1.626 -2.881,2.254 -2.881,2.254 l 4.49,-203.008 a 337.863,337.863 0 0 1 4,3.425 z"
         id="path78"
         inkscape:connector-curvature="0"
         style="fill:#313339" />
      <path
         d="m 370.923,67.188 -2.199,0.687 -3.157,202.753 0.866,-0.433 0.926,-0.563 z"
         id="path80"
         inkscape:connector-curvature="0"
         style="fill:#202125" />
    </g>
    <path
       d="m 187.462,335.692 c 13.088,0 16.011,4.528 16.661,6.418 0.169,0.492 0.594,0.841 1.113,0.881 6.57,0.504 46.212,3.915 60.303,13.778 12.745,8.921 16.515,22.066 17.434,26.314 0.16,0.739 0.907,1.183 1.628,0.958 7.355,-2.304 35.278,-11.741 53.339,-28.041 16.957,-15.304 22.983,-38.499 22.983,-44.615 0,-12.744 4.003,-159.664 4.257,-168.962 a 1.24,1.24 0 0 0 -0.28,-0.826 c -2.751,-3.398 -24.951,-30.039 -68.522,-60.396 -0.836,-0.582 -1.992,-0.003 -2.02,1.016 l -3.742,135.322 c 0,55.866 -47.288,102.154 -103.154,102.154 -55.866,0 -103.154,-46.289 -103.154,-102.155 L 80.566,83.368 c -0.028,-1.018 -1.184,-1.597 -2.02,-1.015 -43.371,30.164 -64.936,54.479 -67.75,57.744 -0.207,0.24 -0.314,0.537 -0.307,0.853 0.213,9.522 3.511,157.697 3.511,170.435 0,6.116 6.026,29.312 22.983,44.615 18.061,16.3 45.984,25.737 53.339,28.041 a 1.274,1.274 0 0 0 1.628,-0.958 c 0.919,-4.248 4.689,-17.393 17.434,-26.314 14.09,-9.863 53.733,-13.274 60.303,-13.778 0.518,-0.04 0.944,-0.389 1.113,-0.881 0.65,-1.89 3.574,-6.418 16.662,-6.418 z"
       id="path84"
       inkscape:connector-curvature="0"
       style="fill:#2f3033" />
    <g
       id="g88">
      <path
         d="m 294.407,81.564 c 12.853,8.411 31.286,22.737 45.016,35.186 14.527,13.172 24,24.25 24,24.25 0,0 -2.5,157.224 -2.5,170.385 0,-13.161 3.521,-170.916 3.521,-170.916 0,0 -22.037,-26.704 -70.037,-59.781 z"
         id="path86"
         inkscape:connector-curvature="0"
         style="fill:#3f4044" />
    </g>
    <radialGradient
       id="i"
       cx="108.5"
       cy="358.75"
       r="187.033"
       gradientUnits="userSpaceOnUse">
      <stop
         offset="0"
         stop-color="#454545"
         id="stop90" />
      <stop
         offset="1"
         stop-color="#2a2e33"
         id="stop92" />
    </radialGradient>
    <path
       d="m 187.462,388.882 c 0,0 61.311,-0.507 75.508,-3.042 10.578,-1.889 15.156,-4.108 16.803,-5.116 0.479,-0.293 0.7,-0.862 0.534,-1.399 -1.645,-5.314 -6.062,-14.458 -16.532,-21.594 -13.808,-9.412 -51.072,-12.65 -57.073,-13.117 a 1.19,1.19 0 0 1 -1.037,-0.791 c -0.848,-2.428 -4.602,-10.084 -18.204,-10.084 -13.602,0 -17.355,7.656 -18.204,10.084 a 1.19,1.19 0 0 1 -1.037,0.791 c -6,0.467 -43.265,3.705 -57.073,13.117 -10.47,7.136 -14.887,16.28 -16.532,21.594 a 1.214,1.214 0 0 0 0.534,1.399 c 1.647,1.008 6.225,3.227 16.803,5.116 14.198,2.535 75.51,3.042 75.51,3.042 z"
       id="path95"
       inkscape:connector-curvature="0"
       style="fill:url(#i)" />
    <path
       d="m 187.462,389.882 c 0,0 61.311,-0.507 75.508,-3.042 10.578,-1.889 15.156,-4.108 16.803,-5.116 0.479,-0.293 0.7,-0.862 0.534,-1.399 -1.645,-5.314 -6.062,-14.458 -16.532,-21.594 -13.808,-9.412 -51.072,-12.65 -57.073,-13.117 a 1.19,1.19 0 0 1 -1.037,-0.791 c -0.848,-2.428 -4.602,-10.084 -18.204,-10.084 -13.602,0 -17.355,7.656 -18.204,10.084 a 1.19,1.19 0 0 1 -1.037,0.791 c -6,0.467 -43.265,3.705 -57.073,13.117 -10.47,7.136 -14.887,16.28 -16.532,21.594 a 1.214,1.214 0 0 0 0.534,1.399 c 1.647,1.008 6.225,3.227 16.803,5.116 14.198,2.535 75.51,3.042 75.51,3.042 z"
       id="path97"
       inkscape:connector-curvature="0"
       style="fill:#2b2c30" />
    <g
       id="g101"
       style="fill:#cccec6">
      <path
         d="m 127.015,378.802 -0.439,0.008 c 0.004,-0.213 -0.069,-0.328 -0.218,-0.346 -0.097,-0.011 -0.184,0.032 -0.261,0.131 -0.077,0.099 -0.142,0.309 -0.196,0.628 a 0.603,0.603 0 0 1 0.208,-0.158 0.441,0.441 0 0 1 0.234,-0.034 c 0.183,0.021 0.332,0.125 0.448,0.311 0.117,0.186 0.158,0.419 0.125,0.701 -0.035,0.3 -0.134,0.526 -0.297,0.681 a 0.676,0.676 0 0 1 -0.563,0.193 c -0.233,-0.027 -0.414,-0.16 -0.542,-0.399 -0.128,-0.239 -0.162,-0.616 -0.103,-1.129 0.061,-0.521 0.184,-0.887 0.369,-1.097 0.186,-0.211 0.404,-0.302 0.654,-0.272 a 0.609,0.609 0 0 1 0.416,0.226 c 0.105,0.129 0.16,0.315 0.165,0.556 z m -1.151,1.073 c -0.021,0.179 -0.003,0.32 0.053,0.423 0.056,0.103 0.126,0.159 0.212,0.169 0.083,0.01 0.157,-0.021 0.221,-0.095 0.064,-0.072 0.107,-0.198 0.128,-0.377 0.021,-0.187 0.007,-0.325 -0.042,-0.417 -0.05,-0.093 -0.119,-0.144 -0.207,-0.154 -0.086,-0.01 -0.163,0.022 -0.232,0.097 -0.07,0.075 -0.114,0.192 -0.133,0.354 z m 3.661,1.375 0.061,-0.573 -0.956,-0.101 0.05,-0.479 1.203,-1.699 0.376,0.04 -0.19,1.804 0.29,0.031 -0.051,0.479 -0.29,-0.03 -0.06,0.572 z m 0.112,-1.053 0.103,-0.973 -0.639,0.916 z m 2.448,0.545 0.053,-0.547 0.881,0.086 -0.053,0.546 z m 2.994,-1.825 0.937,0.082 c 0.256,0.022 0.434,0.063 0.533,0.118 0.099,0.055 0.18,0.146 0.241,0.271 a 0.753,0.753 0 0 1 0.071,0.41 0.768,0.768 0 0 1 -0.124,0.364 0.602,0.602 0 0 1 -0.261,0.225 0.641,0.641 0 0 1 0.304,0.282 0.785,0.785 0 0 1 0.079,0.446 c -0.019,0.207 -0.084,0.378 -0.196,0.513 -0.112,0.135 -0.238,0.213 -0.378,0.234 -0.097,0.015 -0.317,0.007 -0.662,-0.023 l -0.796,-0.07 z m 0.328,1.65 -0.066,0.761 0.438,0.038 c 0.192,0.018 0.316,0.019 0.373,0.003 a 0.273,0.273 0 0 0 0.147,-0.106 0.408,0.408 0 0 0 0.075,-0.219 c 0.009,-0.094 -0.005,-0.172 -0.039,-0.235 -0.034,-0.063 -0.083,-0.109 -0.146,-0.138 -0.063,-0.029 -0.197,-0.052 -0.399,-0.07 z m 0.1,-1.134 -0.059,0.66 0.312,0.027 c 0.187,0.017 0.303,0.023 0.348,0.021 a 0.296,0.296 0 0 0 0.197,-0.085 0.34,0.34 0 0 0 0.088,-0.219 0.348,0.348 0 0 0 -0.037,-0.21 0.223,0.223 0 0 0 -0.126,-0.11 2.772,2.772 0 0 0 -0.45,-0.06 z m 3.251,2.671 0.229,-2.854 0.472,0.038 -0.229,2.854 z m 3.055,0.237 0.174,-2.373 -0.695,-0.051 0.036,-0.483 1.859,0.137 -0.035,0.483 -0.693,-0.051 -0.174,2.372 z m 5.548,0.379 0.177,-2.857 0.472,0.029 -0.177,2.857 z m 2.538,0.151 0.158,-2.859 0.461,0.026 0.853,1.962 0.106,-1.909 0.44,0.024 -0.158,2.859 -0.477,-0.026 -0.84,-1.917 -0.104,1.864 z m 4.474,0.236 0.115,-2.376 -0.696,-0.034 0.023,-0.483 1.863,0.091 -0.023,0.483 -0.694,-0.033 -0.115,2.376 z m 3.072,0.143 0.12,-2.86 1.741,0.073 -0.021,0.484 -1.269,-0.054 -0.026,0.634 1.178,0.05 -0.02,0.482 -1.179,-0.05 -0.033,0.776 1.312,0.056 -0.021,0.483 z m 3.809,0.154 0.102,-2.861 0.998,0.035 c 0.255,0.009 0.436,0.041 0.543,0.097 a 0.613,0.613 0 0 1 0.261,0.277 0.936,0.936 0 0 1 0.089,0.459 c -0.008,0.224 -0.068,0.402 -0.181,0.535 -0.113,0.133 -0.268,0.213 -0.467,0.241 0.099,0.076 0.18,0.159 0.243,0.248 0.063,0.089 0.148,0.247 0.255,0.476 l 0.265,0.568 -0.564,-0.021 -0.321,-0.635 a 4.069,4.069 0 0 0 -0.236,-0.432 c -0.042,-0.059 -0.087,-0.099 -0.136,-0.122 -0.049,-0.023 -0.128,-0.037 -0.237,-0.041 l -0.098,-0.003 -0.042,1.194 z m 0.532,-1.634 0.352,0.013 c 0.214,0.008 0.352,0.003 0.41,-0.014 a 0.262,0.262 0 0 0 0.146,-0.109 0.413,0.413 0 0 0 0.063,-0.227 0.402,0.402 0 0 0 -0.047,-0.222 0.278,0.278 0 0 0 -0.145,-0.119 c -0.044,-0.016 -0.172,-0.027 -0.384,-0.035 l -0.371,-0.013 z m 5.515,1.831 -0.514,-0.015 -0.187,-0.654 -0.939,-0.028 -0.213,0.643 -0.504,-0.015 0.998,-2.835 0.502,0.015 z m -0.839,-1.159 -0.292,-1.071 -0.35,1.053 z m 4.234,0.191 0.454,0.188 c -0.079,0.318 -0.203,0.55 -0.373,0.693 a 0.89,0.89 0 0 1 -0.621,0.207 0.908,0.908 0 0 1 -0.735,-0.37 c -0.212,-0.277 -0.313,-0.647 -0.302,-1.109 0.011,-0.488 0.13,-0.867 0.356,-1.139 a 0.94,0.94 0 0 1 0.781,-0.341 c 0.263,0.006 0.48,0.102 0.654,0.285 0.123,0.13 0.211,0.322 0.264,0.574 l -0.472,0.126 a 0.629,0.629 0 0 0 -0.171,-0.36 0.448,0.448 0 0 0 -0.313,-0.132 0.502,0.502 0 0 0 -0.43,0.217 c -0.113,0.148 -0.174,0.396 -0.183,0.744 -0.008,0.36 0.039,0.618 0.143,0.773 a 0.49,0.49 0 0 0 0.41,0.237 0.431,0.431 0 0 0 0.328,-0.138 c 0.095,-0.093 0.164,-0.245 0.21,-0.455 z m 2.966,1.113 0.043,-2.378 -0.697,-0.013 0.009,-0.484 1.864,0.033 -0.009,0.484 -0.694,-0.013 -0.043,2.379 z m 3.055,0.049 0.039,-2.863 0.473,0.007 -0.039,2.863 z m 3.119,0.036 -0.813,-2.871 0.514,0.005 0.574,2.125 0.595,-2.114 0.504,0.005 -0.868,2.855 z m 3.208,0.025 0.013,-2.863 1.742,0.008 -0.002,0.484 -1.27,-0.006 -0.003,0.635 1.18,0.006 -0.002,0.482 -1.18,-0.006 -0.004,0.777 1.313,0.006 -0.002,0.484 z m 6.266,0.01 -0.011,-2.863 0.708,-0.003 0.435,1.954 0.416,-1.957 0.712,-0.003 0.012,2.863 -0.441,0.002 -0.009,-2.256 -0.459,2.258 -0.456,0.001 -0.474,-2.254 0.009,2.256 z m 4.333,-2.887 0.473,-0.005 0.015,1.551 c 0.003,0.241 0.01,0.398 0.022,0.471 a 0.475,0.475 0 0 0 0.152,0.292 0.46,0.46 0 0 0 0.313,0.101 0.457,0.457 0 0 0 0.268,-0.076 0.372,0.372 0 0 0 0.14,-0.204 c 0.024,-0.087 0.035,-0.273 0.033,-0.559 l -0.016,-1.584 0.473,-0.004 0.015,1.504 c 0.004,0.384 -0.015,0.662 -0.054,0.833 -0.04,0.172 -0.131,0.312 -0.273,0.419 -0.142,0.107 -0.332,0.162 -0.568,0.164 -0.244,0.003 -0.436,-0.039 -0.574,-0.126 a 0.748,0.748 0 0 1 -0.302,-0.368 c -0.063,-0.159 -0.098,-0.453 -0.102,-0.881 z m 3.994,2.821 -0.041,-2.839 0.473,-0.007 0.034,2.354 1.18,-0.017 0.007,0.484 z m 3.875,-0.062 -0.046,-2.379 -0.697,0.014 -0.009,-0.484 1.864,-0.036 0.01,0.484 -0.695,0.014 0.046,2.379 z m 3.071,-0.065 -0.068,-2.863 0.473,-0.011 0.068,2.862 z m 2.517,-0.064 -0.083,-2.862 0.709,-0.021 0.483,1.942 0.366,-1.967 0.712,-0.021 0.083,2.862 -0.441,0.013 -0.065,-2.255 -0.402,2.269 -0.456,0.013 -0.529,-2.241 0.065,2.255 z m 4.338,-0.132 -0.102,-2.861 1.741,-0.062 0.018,0.484 -1.269,0.045 0.022,0.634 1.179,-0.041 0.017,0.481 -1.179,0.042 0.027,0.777 1.312,-0.047 0.018,0.484 z m 3.673,-3 0.863,-0.035 c 0.218,-0.01 0.384,0.008 0.497,0.052 a 0.844,0.844 0 0 1 0.317,0.234 c 0.099,0.112 0.178,0.259 0.239,0.441 0.061,0.183 0.097,0.411 0.108,0.686 0.011,0.247 -0.009,0.464 -0.057,0.648 -0.049,0.186 -0.113,0.333 -0.194,0.443 -0.081,0.11 -0.182,0.195 -0.301,0.254 -0.119,0.059 -0.274,0.093 -0.466,0.101 l -0.889,0.037 z m 0.492,0.464 0.079,1.893 0.354,-0.015 a 0.922,0.922 0 0 0 0.329,-0.057 0.402,0.402 0 0 0 0.163,-0.137 c 0.041,-0.06 0.073,-0.152 0.097,-0.278 0.024,-0.126 0.03,-0.291 0.022,-0.495 -0.009,-0.212 -0.031,-0.378 -0.065,-0.499 -0.034,-0.121 -0.084,-0.215 -0.148,-0.283 a 0.441,0.441 0 0 0 -0.231,-0.129 1.876,1.876 0 0 0 -0.385,-0.009 z m 3.572,2.224 -0.136,-2.86 0.473,-0.021 0.135,2.859 z m 4.626,-0.234 -0.514,0.027 -0.239,-0.637 -0.938,0.05 -0.16,0.658 -0.503,0.026 0.761,-2.908 0.502,-0.026 z m -0.931,-1.085 -0.38,-1.044 -0.261,1.078 z m 4.998,-0.093 0.459,-0.085 c 0.075,0.362 0.258,0.533 0.546,0.515 0.144,-0.01 0.253,-0.054 0.33,-0.134 0.077,-0.08 0.112,-0.176 0.104,-0.286 a 0.305,0.305 0 0 0 -0.054,-0.163 c -0.031,-0.043 -0.077,-0.078 -0.138,-0.104 -0.061,-0.026 -0.205,-0.064 -0.435,-0.119 a 1.455,1.455 0 0 1 -0.455,-0.169 0.745,0.745 0 0 1 -0.242,-0.267 0.854,0.854 0 0 1 -0.107,-0.37 0.852,0.852 0 0 1 0.079,-0.428 0.7,0.7 0 0 1 0.274,-0.301 c 0.121,-0.072 0.272,-0.114 0.456,-0.126 0.275,-0.019 0.495,0.043 0.66,0.182 0.164,0.14 0.26,0.348 0.287,0.625 l -0.472,0.057 c -0.031,-0.152 -0.083,-0.256 -0.156,-0.313 -0.072,-0.057 -0.173,-0.081 -0.3,-0.072 -0.127,0.008 -0.224,0.041 -0.289,0.099 a 0.245,0.245 0 0 0 0.016,0.394 c 0.065,0.05 0.213,0.099 0.442,0.147 0.242,0.054 0.418,0.114 0.529,0.184 0.11,0.069 0.198,0.162 0.262,0.278 0.064,0.116 0.101,0.261 0.112,0.432 0.017,0.249 -0.047,0.462 -0.188,0.641 -0.141,0.179 -0.374,0.279 -0.699,0.301 -0.572,0.037 -0.913,-0.269 -1.021,-0.918 z m 4.564,0.624 -0.089,-1.202 -0.979,-1.591 0.554,-0.04 0.633,1.089 0.46,-1.17 0.543,-0.039 -0.739,1.72 0.088,1.198 z m 2.977,-1.162 0.457,-0.092 c 0.082,0.36 0.267,0.528 0.555,0.505 a 0.485,0.485 0 0 0 0.328,-0.14 0.367,0.367 0 0 0 0.043,-0.449 0.321,0.321 0 0 0 -0.14,-0.102 3.556,3.556 0 0 0 -0.436,-0.111 1.48,1.48 0 0 1 -0.459,-0.162 0.74,0.74 0 0 1 -0.245,-0.263 0.858,0.858 0 0 1 -0.114,-0.368 0.844,0.844 0 0 1 0.072,-0.429 0.698,0.698 0 0 1 0.27,-0.306 c 0.119,-0.074 0.271,-0.118 0.453,-0.134 0.275,-0.022 0.496,0.035 0.663,0.172 0.167,0.136 0.266,0.343 0.298,0.62 l -0.471,0.063 c -0.033,-0.151 -0.087,-0.255 -0.161,-0.31 -0.073,-0.056 -0.174,-0.078 -0.302,-0.067 -0.127,0.011 -0.223,0.045 -0.287,0.104 -0.064,0.059 -0.094,0.128 -0.087,0.206 0.007,0.078 0.043,0.141 0.11,0.188 0.066,0.048 0.215,0.095 0.444,0.14 0.243,0.05 0.421,0.107 0.532,0.175 0.112,0.067 0.201,0.159 0.267,0.274 0.066,0.115 0.105,0.259 0.119,0.43 a 0.896,0.896 0 0 1 -0.177,0.644 c -0.139,0.182 -0.37,0.285 -0.695,0.312 -0.573,0.048 -0.918,-0.253 -1.037,-0.9 z m 4.48,0.555 -0.216,-2.369 -0.694,0.063 -0.044,-0.482 1.857,-0.17 0.044,0.482 -0.692,0.063 0.216,2.369 z m 3.064,-0.29 -0.288,-2.849 1.733,-0.175 0.049,0.481 -1.264,0.128 0.064,0.632 1.174,-0.119 0.048,0.48 -1.174,0.118 0.078,0.773 1.307,-0.132 0.048,0.481 z m 3.745,-0.388 -0.321,-2.845 0.704,-0.08 0.645,1.896 0.201,-1.991 0.707,-0.079 0.322,2.845 -0.438,0.05 -0.254,-2.242 -0.212,2.295 -0.453,0.051 -0.715,-2.189 0.254,2.241 z"
         id="path99"
         inkscape:connector-curvature="0" />
    </g>
    <path
       d="m 271.543,109.615 0.647,-36.086 a 2.429,2.429 0 0 0 -2.235,-2.465 c -8.936,-0.708 -43.09,-3.188 -82.955,-3.188 -39.881,0 -74.048,2.621 -82.966,3.367 a 2.428,2.428 0 0 0 -2.224,2.464 l 0.647,35.909 a 2.429,2.429 0 0 0 2.428,2.385 h 164.229 a 2.43,2.43 0 0 0 2.429,-2.386 z"
       id="path103"
       inkscape:connector-curvature="0"
       style="fill:#030405" />
    <path
       d="m 205.742,342.625 c 0,-2.509 -1.5,-9.125 -18.375,-9.125 -16.875,0 -18.375,6.616 -18.375,9.125 0,2.509 1.5,9.125 18.375,9.125 16.875,0 18.375,-6.616 18.375,-9.125 z"
       id="path105"
       inkscape:connector-curvature="0"
       style="fill:#8d0303" />
    <g
       id="g109">
      <path
         d="m 187,70.935 c 23.833,0 83.267,2.996 83.267,2.996 l 1.922,-0.226 a 2.428,2.428 0 0 0 -2.224,-2.464 c -8.918,-0.746 -43.085,-3.367 -82.966,-3.367 -39.881,0 -74.048,2.621 -82.966,3.367 a 2.428,2.428 0 0 0 -2.224,2.464 l 1.922,0.226 c 0.001,0 59.436,-2.996 83.269,-2.996 z"
         id="path107"
         inkscape:connector-curvature="0"
         style="fill:#202125" />
    </g>
    <g
       id="g115">
      <circle
         cx="187.367"
         cy="363"
         r="2.7839999"
         id="circle111"
         style="fill:#0d1725" />
      <circle
         cx="187.367"
         cy="363"
         r="2.345"
         id="circle113"
         style="fill:#ff6d67" />
    </g>
    <path
       d="m 207.956,342.235 c 0,-2.985 -1.917,-10.765 -20.588,-10.765 -18.671,0 -20.589,7.78 -20.589,10.765 0,2.985 1.917,10.765 20.589,10.765 18.672,0 20.588,-7.78 20.588,-10.765 z"
       id="path117"
       inkscape:connector-curvature="0"
       style="fill:#0d1725" />
    <path
       d="m 205.753,342.625 c 0,-2.509 -1.5,-9.125 -18.375,-9.125 -16.875,0 -18.375,6.616 -18.375,9.125 0,2.509 1.5,9.125 18.375,9.125 16.875,0 18.375,-6.616 18.375,-9.125 z"
       id="path119"
       inkscape:connector-curvature="0"
       style="fill:#bf181a" />
    <path
       d="m 270.01,110.459 -3.075,-3.182 A 0.91,0.91 0 0 0 266.281,107 H 107.719 c -0.246,0 -0.482,0.1 -0.654,0.277 l -3.075,3.182 c -0.558,0.577 -0.149,1.541 0.654,1.541 h 164.713 c 0.802,0 1.211,-0.964 0.653,-1.541 z"
       id="path121"
       inkscape:connector-curvature="0"
       style="fill:#202125" />
    <g
       id="g132">
      <linearGradient
         id="j"
         gradientUnits="userSpaceOnUse"
         x1="-11.953"
         y1="249.403"
         x2="200.714"
         y2="39.403">
        <stop
           offset="0"
           stop-color="#3a3b3f"
           id="stop123" />
        <stop
           offset=".335"
           stop-color="#333"
           id="stop125" />
        <stop
           offset="1"
           stop-color="#282a2e"
           id="stop127" />
      </linearGradient>
      <path
         d="M 80.516,81.564 C 67.662,89.975 49.229,104.301 35.5,116.75 20.973,129.922 11.5,141 11.5,141 c 0,0 2.5,157.224 2.5,170.385 0,-13.161 -3.521,-170.916 -3.521,-170.916 0,0 22.037,-26.704 70.037,-59.781 z"
         id="path130"
         inkscape:connector-curvature="0"
         style="fill:url(#j)" />
    </g>
    <g
       id="g142"
       style="fill:#bf181a">
      <path
         d="m 35.117,309.167 c 0.111,-0.042 0.09,-0.176 0.132,-0.269 0.067,-0.149 0.899,-1.231 0.902,-1.252 0.036,-0.185 -0.296,-0.343 -0.243,-0.467 0.057,-0.133 0.283,-0.247 0.331,-0.355 0.243,-0.54 0.846,-0.979 1.077,-1.515 0.07,-0.165 0.051,-0.455 0.143,-0.595 0.189,-0.288 0.508,-0.506 0.712,-0.817 0.105,-0.161 -0.008,-0.427 0.011,-0.592 0.036,-0.312 0.19,-0.484 0.28,-0.779 0.128,-0.426 -1.031,0.789 -0.869,-0.065 0.155,-0.819 2.172,-1.951 2.233,-2.271 l -0.004,-0.085 c 0.042,-0.224 0.46,-0.284 0.225,-0.653 l -0.078,-0.122 c -0.022,0 -1.139,0.976 -1.213,1.062 -0.654,0.755 -1.727,1.369 -2.314,2.116 -0.255,0.323 -1.722,1.742 -1.762,1.953 l -0.155,0.416 c -1.183,1.241 -2.459,2.367 -3.673,3.563 -0.601,0.592 -1.569,1.317 -2.029,1.937 -0.419,0.567 -1.26,1.219 -1.697,1.752 -0.343,0.419 -1.702,0.985 -1.968,1.414 -0.062,0.098 0.132,0.6 0.227,0.62 0.085,0.018 0.231,-0.104 0.323,-0.102 0.081,0.001 0.21,-0.016 0.233,0.101 0.032,0.158 -0.543,0.347 -0.529,0.653 0.018,0.373 0.791,0.363 0.986,0.46 0.3,0.148 -0.187,0.651 0.145,0.889 l 0.059,-0.041 0.175,-0.122 a 0.373,0.373 0 0 1 0.394,-0.045 l 0.156,0.014 c 0.434,0.174 5.045,-4.382 5.045,-4.382 0,0 7.14,14.631 1.457,19.645 -1.297,1.145 -3.987,0.301 -4.112,0.331 -0.116,0.029 -0.301,0.146 -0.331,0.235 -0.029,0.09 0.092,0.431 0.418,0.521 1.229,0.343 4.448,0.675 6.487,-0.83 6.337,-4.676 -1.174,-22.323 -1.174,-22.323 z"
         id="path134"
         inkscape:connector-curvature="0" />
      <path
         d="m 39.297,316.75 0.023,0.036 c 0.437,0.686 0.589,-0.111 0.841,-0.058 0.048,0.01 0.201,0.345 0.208,0.404 0.181,1.505 0.467,3.001 0.469,4.573 0,0.092 0.059,0.177 0.07,0.269 0.081,0.676 0.06,1.498 0.127,2.051 0.025,0.211 0.123,0.396 0.153,0.637 0.003,0.026 0.171,0.374 0.117,0.342 0.276,0.432 0.334,1.502 0.687,1.712 0.105,0.063 -0.028,-0.09 0,-0.159 0.06,-0.154 0.186,-0.331 0.186,-0.502 0,-0.147 -0.295,-0.917 -0.269,-0.979 0.09,-0.227 0.036,-0.525 0.233,-0.217 0.091,0.142 0.156,0.23 0.199,0.392 0.018,0.068 0.1,0.117 0.117,0.184 l 0.023,0.142 0.047,0.074 0.07,0.109 v -0.106 l -0.011,-0.098 c -0.007,-0.055 -0.049,-0.092 -0.059,-0.171 -0.018,-0.146 -0.04,-0.094 -0.043,-0.095 -10e-4,-0.001 0.004,-0.02 0.019,-0.101 0.028,-0.15 -0.158,-0.29 -0.129,-0.441 a 6.236,6.236 0 0 0 -0.032,-0.685 l -0.048,-0.551 c -0.012,-0.095 -0.07,-0.237 0.011,-0.22 0.419,0.087 0.801,0.823 0.921,1.284 0.011,0.043 0.065,0.299 0.093,0.305 0.039,0.008 0.004,-0.086 0.023,-0.122 0.22,-0.403 -0.259,-0.605 -0.23,-0.759 0.111,-0.587 -0.246,-1.266 -0.131,-1.873 0.193,-1.02 -1.232,-5.726 -1.048,-6.697 0.146,-0.77 2.182,-2.967 2.332,-3.756 0.097,-0.513 0.633,0.357 0.701,0.464 0.191,0.299 1.667,2.651 1.716,2.69 0.227,0.185 0.447,0.228 0.663,0.403 0.335,0.272 1.002,1.799 1.599,1.924 0.086,0.018 -0.013,-0.093 -0.011,-0.098 0.014,-0.078 -0.064,-0.496 -0.114,-0.575 -0.049,-0.077 -0.158,-0.287 -0.07,-0.269 0.066,0.013 1.109,0.941 1.166,0.953 0.125,0.026 0.136,0.24 0.245,0.306 0.058,0.034 0.157,0.028 0.175,0.036 0.029,0.014 0.086,0.082 0.082,0.05 -0.025,-0.211 -0.203,-0.426 -0.235,-0.686 -0.025,-0.213 -0.264,-0.579 -0.23,-0.759 0.053,-0.279 0.664,0.149 0.709,0.159 0.045,0.009 0.236,0.036 0.245,-0.013 l -0.476,-0.745 c -0.745,-1.168 -4.846,-7.594 -4.858,-7.692 -0.017,-0.141 -2.27,-4.219 -2.556,-4.668 -0.355,-0.556 -0.358,-0.36 -0.815,-0.455 -0.094,-0.019 -0.415,-0.595 -0.434,-0.599 l -0.444,-0.06 c -0.18,-0.038 -0.644,0.981 -0.956,1.2 -0.681,0.477 -0.366,0.591 -0.478,1.184 -0.005,0.032 -0.063,0.018 -0.093,0.013 -0.122,-0.026 -0.121,-0.031 -0.21,-0.171 l -0.071,-0.111 c -0.07,0.009 -0.262,0.313 -0.28,0.356 -0.104,0.261 0.032,0.846 0.068,1.137 0.067,0.553 -0.034,1.088 0.037,1.673 0.028,0.235 0.348,0.937 0.313,1.125 -0.172,0.903 -0.081,3.165 0.024,4.034 0.012,0.099 0.199,0.71 0.199,0.71 -0.049,0.259 0.064,2.023 0.128,2.264 0.029,0.114 -0.355,0.71 -0.432,0.833 -0.074,0.121 -0.229,0.197 -0.256,0.339 -0.017,0.088 0.013,0.069 0.014,0.071 10e-4,0.002 -0.004,0.012 -0.034,0.053 z m 2.534,-3.678 -0.014,0.003 c -0.235,-0.368 -0.191,-2.098 -0.404,-2.725 l -0.008,-0.013 c 0.057,-0.105 -0.108,-0.423 -0.094,-0.465 0.115,-0.341 -0.058,-1.451 0.056,-2.056 l 0.131,-0.641 c 0.008,-0.044 0.047,-0.106 0.089,-0.098 0.101,0.021 0.749,1.206 0.799,1.331 0.156,0.396 0.964,1.415 1,1.62 0.04,0.221 -0.194,0.509 -0.384,0.889 -0.257,0.516 -0.528,1.135 -0.766,1.386 -0.133,0.14 0.103,0.458 -0.373,0.792 z m 7.041,-15.815 h -0.007 l 0.023,-0.016 c 0.085,-0.024 0.163,-0.086 0.249,-0.086 0.085,0 -0.014,-0.054 0.07,-0.049 0.13,0.008 0.417,0.077 0.577,0.057 0.084,-0.012 0.181,-0.11 0.253,-0.16 l 0.093,-0.065 c 0.124,0.118 0.932,0.523 1.137,0.512 0.118,-0.006 0.305,-0.14 0.456,-0.159 0.036,-0.005 0.087,-0.064 0.124,-0.07 l 0.047,-0.033 c 0.123,0.193 -0.248,0.649 -0.03,0.693 0.325,0.068 0.523,0.284 0.161,0.703 -0.271,0.313 -0.721,0.438 -0.949,0.788 -0.269,0.41 -0.442,0.977 -0.762,1.348 l -0.011,0.008 c -1.423,1.922 -1.605,5.982 -0.298,8.03 l 0.047,0.073 c 0.862,1.352 2.611,2.36 4.099,2.03 0.205,-0.045 0.454,0.055 0.677,-0.05 0.177,-0.083 0.459,-0.126 0.658,-0.266 0.14,-0.098 1.009,-0.521 1.077,-0.666 0.165,-0.346 0.402,-0.649 0.548,-1.021 0.079,-0.197 -0.34,-0.605 -0.413,-0.595 -0.4,0.052 -1.369,-2.065 -1.486,-2.515 -0.098,-0.373 -0.196,-0.995 -0.468,-1.052 l -0.078,-0.016 c -0.019,-0.004 -0.234,0.089 -0.246,0.118 -0.137,0.346 -0.898,0.718 -0.961,0.85 -0.221,0.463 -0.475,0.882 -0.699,1.339 -0.06,0.122 -0.41,0.921 -0.572,0.825 -0.036,-0.022 0.018,-0.144 0.023,-0.175 0.025,-0.131 0.074,-0.405 0.131,-0.535 0.124,-0.274 -0.104,-0.976 -0.005,-1.305 0.284,-0.939 1.043,-2.246 1.718,-3.026 0.016,-0.018 0.054,-0.028 0.05,-0.052 l -0.008,-0.065 0.311,-0.52 c 0.101,-0.185 0.046,-0.47 0.186,-0.607 0.117,-0.116 0.288,0.028 0.412,0.011 0.46,-0.06 0.588,-0.719 0.856,-0.298 l 0.21,0.33 c -0.063,0.331 0.4,0.743 0.438,1.056 0.018,0.151 0.7,2.183 0.731,2.231 0.039,0.061 0.353,0.906 0.351,0.921 -0.009,0.115 1.239,2.125 1.409,2.392 0.255,0.399 0.568,0.668 0.905,0.941 0.068,0.056 0.2,0.154 0.242,0.22 0.027,0.043 0.067,0.02 0.063,0.045 -0.025,0.132 -0.246,0.007 -0.277,0.017 -0.732,0.246 -2.005,-0.407 -2.03,-0.401 -0.393,0.087 -0.023,0.627 -0.185,0.927 -0.153,0.28 -0.286,0.844 -0.303,1.184 -0.02,0.392 -1.975,1.734 -2.264,1.674 -0.422,-0.088 -0.88,0.285 -1.284,0.263 -0.231,-0.013 -2.722,-0.381 -2.808,-0.457 -0.253,-0.225 -0.694,-0.506 -0.995,-0.684 0,0 -1.132,-1.162 -1.726,-1.958 -1.943,-2.601 -2.218,-6.32 -1.457,-9.171 0.109,-0.407 0.118,-1.03 0.341,-1.371 0.266,-0.406 0.537,-0.695 0.837,-1.098 0.211,-0.287 0.518,-0.568 0.68,-0.867 0.027,-0.049 0.059,-0.151 0.125,-0.175 z m 6.622,-5.545 -0.047,0.033 c 0.104,0.022 -0.015,0.082 -0.015,0.082 -0.014,0.073 -0.079,0.33 -0.046,0.457 0.055,0.212 -0.085,1.367 0.221,1.616 -0.017,-0.004 -0.073,0.165 -0.078,0.196 -0.038,0.201 0.078,0.62 0.079,0.865 0,0.218 0.443,2.187 0.532,2.529 0.021,0.075 0.18,0.227 0.188,0.294 0.062,0.51 0.08,1.08 0.142,1.599 0.091,0.753 0.532,1.888 0.642,2.805 0.073,0.603 0.564,1.942 1.016,2.969 0.226,0.513 0.764,1.197 1.03,1.615 0.094,0.148 0.37,0.584 0.484,0.652 0.046,0.027 0.254,0.152 0.265,0.098 0.05,0.19 0.375,0.078 0.467,0.097 0.019,0.004 0.276,0.185 0.327,0.195 0.005,10e-4 0.17,-0.043 0.156,0.032 0.346,-0.467 1.226,-0.54 1.557,-1.373 0.069,-0.174 0.614,-1.43 0.637,-1.437 l 0.015,-0.294 c -0.001,-0.306 0.178,-0.616 0.139,-0.946 -0.039,-0.324 -0.078,-1.504 0.153,-1.665 -0.344,0.324 1.414,2.427 1.592,2.707 l 0.093,-0.065 c 0.068,0.107 0.384,0.463 0.468,0.309 0.035,0.134 0.418,0.113 0.545,0.113 0.787,-10e-4 0.977,-1.494 1.323,-1.422 0.056,0.012 0.09,0.601 0.141,0.75 0.046,0.135 0.383,2.248 0.346,2.448 -0.039,0.204 -0.095,0.911 0.032,1.11 0.086,0.134 0.091,0.188 0.203,0.212 0,0 0.058,0.125 0.079,0.016 l 0.062,0.098 c 0.018,-0.096 0.337,0.113 0.343,0.114 0.147,0.031 0.524,-0.586 0.342,-0.735 0.093,0.019 -0.029,-0.234 0.015,-0.294 0.167,-0.226 0.379,-0.007 0.42,-0.082 0.146,-0.268 0.121,-1.292 0.466,-0.751 l 0.093,-0.065 -0.062,-0.098 c 0.037,-0.005 0.113,-0.201 0.124,-0.229 0.069,-0.173 0.071,-1.699 -0.018,-2.039 -0.031,-0.12 0.007,-0.612 0.077,-0.621 l -0.062,-0.098 c 0.072,0.015 0.031,-0.157 0.032,-0.164 0.012,-0.064 0.096,-0.199 0.14,-0.31 0.017,-0.045 -0.006,-0.105 0.062,-0.114 -0.113,-0.091 -0.106,-0.294 -0.078,-0.44 0.189,-1.003 -0.337,-4.681 -0.49,-5.955 -0.009,-0.083 0.039,-1.452 0.092,-1.551 l 0.482,-0.408 c 0.033,-0.023 0.146,-0.182 0.078,-0.196 0.096,-0.028 0.601,-1.767 0.994,-2.042 -0.046,-0.009 0.066,-0.244 0.093,-0.277 0.144,-0.166 0.247,-0.385 0.42,-0.506 l -0.062,-0.098 c 0.057,-0.04 0.275,-0.452 0.405,-0.425 0.306,0.065 0.926,1.876 0.936,1.893 0.093,0.146 0.577,0.584 0.577,0.587 l 0.094,-0.066 c 0.435,0.682 0.956,1.287 1.405,1.989 l 0.125,0.196 c 0.03,0.006 0.249,-0.203 0.28,-0.196 0.43,0.089 0.976,1.433 1.606,1.564 0.022,0.005 0.019,0.03 0.031,0.049 0.07,0.11 0.144,0.111 0.234,0.049 0.115,0.18 0.121,0.215 0.094,0.359 -0.004,0.02 0.145,0.122 0.203,0.212 0.078,-0.144 0.178,0.08 0.187,0.081 0.251,0.053 0.314,0.505 0.344,0.751 0,0.004 0.176,0.348 0.203,0.212 0.055,0.211 0.135,0 0.249,0.179 l 0.093,-0.065 c -0.007,0.034 0.197,0.042 0.265,0.098 0.127,0.104 0.256,0.189 0.343,0.326 l 0.047,-0.033 0.094,0.147 0.093,-0.065 0.109,0.065 0.062,0.098 c 0.167,0.035 -0.087,-0.385 -0.234,-0.473 -0.223,-0.133 -0.395,-0.724 -0.546,-0.962 -0.2,-0.314 -0.982,-1.855 -1.031,-2.039 -0.203,-0.777 -2.48,-4.171 -2.591,-4.484 -0.422,-1.19 -1.484,-3.172 -2.311,-4.468 a 14.922,14.922 0 0 1 -1.421,-2.968 c -0.104,-0.302 -0.34,-0.723 -0.375,-1.011 -0.01,-0.083 0.057,-0.163 0.046,-0.245 -10e-4,-0.009 -0.146,-0.297 -0.171,-0.163 l -0.156,-0.245 -0.093,0.065 c -0.011,-0.017 -0.116,-0.241 -0.14,-0.114 l -0.063,-0.099 c -0.175,0.122 -0.469,0.187 -0.669,0.327 -0.022,0.016 -0.45,0.239 -0.436,0.164 l -0.093,0.065 c 0.017,-0.085 -0.207,-0.043 -0.249,0.033 l -0.062,-0.098 -0.078,-0.016 -0.14,0.098 c 0.014,-0.068 -0.217,-0.045 -0.234,-0.049 -0.123,-0.026 -0.206,-0.229 -0.327,-0.195 -0.11,0.032 -0.138,0.269 -0.249,0.245 0.251,0.205 -0.132,0.375 -0.108,0.571 0.046,0.378 0.485,0.667 0.531,1.044 l -0.186,0.767 c -0.004,0.023 0.009,0.044 0.031,0.049 -0.157,0.11 -0.242,0.621 -0.281,0.621 0.041,0.008 0.025,0.087 0.016,0.13 -0.029,0.152 -0.178,0.413 -0.155,0.604 0.048,0.394 -0.188,0.959 -0.139,1.371 0.082,0.678 0.085,1.971 -0.245,2.579 -0.058,0.107 0.097,0.73 -0.061,0.751 0.081,0.066 -0.068,0.696 -0.047,0.882 0.053,0.438 0.19,1.787 0.19,2.202 10e-4,0.219 -0.241,0.558 -0.123,0.654 -0.003,-10e-4 -0.294,0.678 -0.186,0.767 -0.097,0.013 -0.413,1.106 -0.435,1.224 -0.046,0.241 -0.612,0.597 -0.592,0.768 0.015,0.121 0.601,0.364 0.64,0.684 0.025,0.208 -0.188,0.448 -0.078,0.621 l 0.234,-0.164 c 0.234,-0.164 0.275,-0.405 0.467,-0.539 0.031,-0.022 0.067,-0.071 0.078,0.016 0.037,0.308 0.046,3.247 -0.027,3.346 -0.048,0.065 -0.59,0.344 -0.591,0.343 -0.092,-0.019 -0.247,-0.194 -0.265,-0.098 -0.071,-0.111 -0.62,-0.942 -0.625,-0.979 -0.08,-0.665 -0.513,-1.316 -0.594,-1.99 -0.107,-0.894 -0.673,-3.263 -0.674,-3.916 0,-0.17 0.07,-0.298 -0.078,-0.44 l 0.047,-0.033 c -0.304,-0.943 -0.315,-2.05 -0.565,-3.002 -0.061,-0.236 -0.302,-1.181 -0.266,-1.37 l 0.093,-0.277 c -0.073,-0.059 -0.093,-0.571 -0.25,-0.603 -0.025,-0.005 -0.276,-0.037 -0.265,-0.098 l -0.093,0.065 -0.078,-0.016 -0.062,-0.098 c -0.052,0.268 -0.456,-1.013 -0.515,-0.701 -0.252,-0.395 -0.986,0.195 -1.292,0.41 l -0.078,-0.016 -0.062,-0.098 c -0.012,0.061 -0.123,0.014 -0.172,0.048 -0.102,0.071 -0.495,0.355 -0.529,0.443 -0.169,0.427 0.303,2.676 0.206,3.181 l 0.11,0.489 c 0.013,0.112 -0.096,0.295 0.016,0.343 l -0.047,0.033 c 0.41,0.334 0.235,0.925 0.236,1.322 0,0.074 0.756,1.82 0.906,2.054 l -0.093,0.065 c 0.028,0.044 0.107,0.278 0.031,0.261 0.186,0.177 0.144,0.832 0.204,1.06 0.64,2.447 0.388,1.582 -0.058,3.933 -0.081,0.432 -0.015,0.974 -0.185,1.403 -0.086,0.217 -0.188,0.353 -0.233,0.588 -0.004,0.023 0.01,0.045 0.031,0.049 l -0.093,0.065 c 0.114,0.024 -0.225,0.421 -0.123,0.442 -0.026,0.007 -0.199,1.034 -0.778,1.111 -0.777,0.103 -1.083,-2.905 -1.28,-3.067 0.005,0.002 0.05,-0.216 0.031,-0.375 -0.044,-0.354 -0.391,-0.79 -0.391,-1.141 -10e-4,-0.817 0.238,-1.321 -0.283,-2.138 l -0.016,-0.13 0.093,-0.065 c -0.007,-0.004 -0.035,-0.266 -0.094,-0.359 0.022,0.005 0.042,-0.01 0.047,-0.033 l 0.077,-0.408 c 0.082,-0.434 -0.214,-0.937 -0.266,-1.37 -0.027,-0.222 0.164,-0.531 0.139,-0.734 -0.023,-0.184 -0.418,-0.526 -0.453,-0.816 -0.005,-0.043 -0.052,-0.308 0.015,-0.294 -0.095,-0.077 0.004,-1.905 -0.11,-1.975 l 0.093,-0.065 c -0.127,-0.076 -0.211,-1.284 -0.235,-1.321 l -0.093,0.065 -0.062,-0.098 c -0.024,0.12 -0.41,-0.085 -0.468,-0.098 -0.021,-0.004 -0.043,0.012 -0.047,0.033 l -0.062,-0.098 -0.093,0.065 c 0.02,-0.108 -0.078,-0.016 -0.078,-0.016 -0.006,0 -0.23,-0.284 -0.25,-0.178 -0.071,-0.111 -0.445,-0.362 -0.452,-0.391 l -0.093,0.065 c -0.059,-0.495 -0.72,0.123 -0.872,0.327 -0.091,0.108 -0.139,0.585 -0.242,0.585 z m 13.84,-0.173 c 0.016,-0.011 -0.122,-0.454 -0.13,-0.6 -0.027,-0.601 -0.113,-1.319 -0.083,-1.904 0.026,-0.505 0.204,-2.934 0.859,-1.275 0.135,0.343 0.099,0.579 0.313,0.914 0.399,0.626 0.214,0.655 -0.155,1.081 -0.37,0.427 -0.416,1.512 -0.804,1.784 z m 12.247,8.083 c -0.014,0.01 -0.027,-0.023 -0.037,-0.038 l -0.156,-0.245 c -0.115,-0.181 -0.124,-0.641 -0.199,-0.656 -0.734,-0.153 -0.661,-2.16 -0.79,-2.88 -0.014,-0.078 -0.366,-0.531 -0.359,-0.562 0.004,-0.025 0.13,-0.199 0.073,-0.228 -0.101,-0.052 -0.347,-0.233 -0.378,-0.408 -0.025,-0.138 0.096,-0.29 0.077,-0.409 -0.054,-0.33 -0.183,-0.476 -0.184,-0.791 0,-0.055 -0.12,-0.246 -0.121,-0.375 0,-0.083 -0.051,-0.161 -0.055,-0.245 -0.013,-0.268 0.156,-0.397 0.088,-0.628 -0.12,-0.411 -0.577,-0.725 -0.632,-0.991 -0.1,-0.493 -0.764,-2.765 -0.75,-2.977 l 0.015,-0.241 c 0.027,-0.436 -0.407,-0.652 -0.469,-0.999 a 8.713,8.713 0 0 1 -0.122,-1.117 c -0.009,-0.203 -0.352,-0.784 -0.376,-1.277 -0.002,-0.055 -0.314,-0.861 -0.39,-0.876 -0.094,-0.02 -0.11,0.361 -0.147,0.457 -0.066,0.166 -0.208,0.245 -0.249,0.457 -0.012,0.065 -0.992,1.126 -1.152,0.682 -0.007,0.034 -0.208,-0.006 -0.222,-0.003 -0.133,0.025 -0.045,0.069 -0.218,0.082 -0.021,0.001 -0.385,0.237 -0.408,0.232 -0.422,-0.087 -0.486,-0.189 -0.912,-0.158 -0.107,0.008 -0.072,-0.084 -0.183,0.057 0.018,-0.051 -0.16,0.01 -0.164,0.008 -0.101,-0.02 -0.323,-0.589 -0.312,-0.648 0.077,-0.408 0.572,-1.517 0.189,-1.849 0.061,-0.099 0.011,-0.009 0.034,-0.13 0.007,-0.039 0.121,-0.279 0.167,-0.348 0.141,-0.205 0.512,-0.639 0.591,-0.874 0.05,-0.148 0.105,-0.215 0.202,-0.371 0.396,-0.638 0.814,-1.221 1.287,-1.821 0.101,-0.129 0.046,-0.303 0.147,-0.458 0.081,-0.121 0.3,-0.268 0.35,-0.404 l 0.062,-0.168 c 0.323,-0.867 2.037,-1.78 2.226,-2.177 0.118,-0.248 0.151,-0.636 0.245,-0.808 0.153,-0.281 2.924,-1.635 3.168,-1.652 0.407,-0.031 0.573,-0.146 0.934,-0.071 0.022,0.005 0.466,0.192 0.507,0.106 0.131,0.212 0.684,-0.054 0.751,-0.014 0.232,0.139 0.506,0.232 0.782,0.195 0.035,-0.005 0.274,0.205 0.32,0.236 0.172,0.116 0.397,0.146 0.553,0.179 0.228,0.047 0.252,0.431 0.453,0.551 0.103,0.061 0.219,0.454 0.293,0.538 0.051,0.288 0.466,0.637 0.554,0.942 0.223,0.782 0.234,1.396 0.217,2.251 -0.011,0.53 -0.367,0.885 -0.376,1.291 -0.002,0.072 0.103,0.403 0.039,0.485 -0.148,0.189 -0.572,0.989 -0.621,1.249 -0.044,0.234 -0.104,0.474 -0.229,0.674 l -0.127,0.143 -0.082,0.058 c 0.016,0.025 1.328,0.233 1.429,0.254 0.757,0.158 1.47,0.752 2.1,0.883 0.441,0.093 1.07,0.161 1.531,0.361 0.019,0.009 0.025,-0.027 0.047,-0.033 1.329,-0.295 3.433,0.558 4.685,0.329 0.004,0.061 0.344,0.078 0.389,0.081 0.232,0.016 0.817,0.125 1.012,0.211 0.316,0.137 3.356,0.66 4.074,0.809 0.07,0.015 0.445,0.431 0.433,0.511 -0.112,-0.385 -2.215,-0.008 -2.5,-0.213 -0.321,-0.231 -2.537,-0.375 -2.999,-0.253 -0.017,0.005 -1.626,-0.303 -1.775,-0.295 -0.383,0.019 -0.962,0.178 -1.378,0.169 -0.607,-0.014 -1.062,-0.363 -1.515,-0.495 -0.301,-0.088 -0.545,0.161 -1.118,-0.137 -0.053,-0.028 -0.362,0.016 -0.452,-0.02 l -0.159,-0.065 c -0.224,-0.091 -0.436,-0.048 -0.67,-0.097 -0.03,-0.006 -0.154,-0.142 -0.238,-0.134 -0.069,0.007 -0.404,0.01 -0.405,-0.106 l -0.105,0.073 c -0.004,-0.061 -0.225,-0.044 -0.277,-0.089 -0.066,-0.057 -0.434,-0.164 -0.561,-0.19 -0.027,-0.005 -0.254,0.206 -0.303,0.212 l -0.265,0.008 c -0.033,0.003 -0.198,0.033 -0.187,-0.028 -0.158,0.111 -0.713,-0.01 -0.911,-0.052 -0.137,-0.027 -0.557,0.308 -0.868,0.096 -0.165,-0.112 -0.392,-0.044 -0.588,-0.048 -0.117,-0.003 -0.249,0.026 -0.346,-0.041 l -0.172,-0.11 c -0.054,-0.037 -0.055,-0.048 -0.054,-0.049 0.002,0 0.008,0.016 -0.082,0.021 -0.06,0.003 -0.055,-0.008 -0.081,-0.049 l -0.055,-0.086 0.055,0.086 0.023,0.036 0.117,0.024 0.125,0.09 c 0.084,0.072 0.085,0.055 0.159,0.171 0.074,0.116 0.196,0.218 0.32,0.236 0.304,0.046 0.628,0.084 0.919,0.17 0.301,0.088 0.876,0.109 1.212,0.179 0.661,0.137 1.538,0.076 2.352,0.245 0.339,0.071 0.513,0.203 0.783,0.302 0.021,0.007 0.009,0.05 0.031,0.049 l 0.49,-0.185 c 0.65,0.191 1.449,0.012 2.084,0.434 0.023,-0.055 0.076,-10e-4 0.101,0 0.256,0.006 0.835,0.068 0.97,0.223 0.08,-0.122 0.221,0.023 0.322,0.004 1.135,-0.222 2.787,0.06 3.923,0.297 0.103,0.021 0.748,0.335 0.896,0.292 0.231,-0.065 0.864,-0.162 1.098,-0.078 0.093,0.032 0.27,0.213 0.343,0.272 0.003,0.003 2.22,0.492 2.373,0.463 0.015,-0.004 0.011,0.025 0.023,0.036 0.155,0.135 0.404,-0.054 0.506,0.105 0.042,0.065 0.165,0.13 0.125,0.196 -0.015,0.025 -0.131,0.028 -0.164,0.008 a 36.813,36.813 0 0 0 -1.495,-0.279 c -0.804,0.178 -3.78,-0.415 -4.931,-0.263 -0.893,0.118 -2.532,-0.336 -3.444,-0.526 -0.452,-0.094 -0.76,-0.221 -1.059,-0.284 -0.123,-0.026 -0.456,0.13 -0.604,0.086 l -0.159,-0.065 c -0.911,0.167 -1.668,-0.176 -2.368,0.049 l -0.164,0.008 c -0.017,0.002 -0.021,0.033 -0.034,0.024 -0.102,-0.069 -3.422,-0.993 -3.53,-0.979 -0.203,0.027 -2.437,0.075 -2.53,0.057 -0.15,-0.031 -0.153,-0.284 -0.18,-0.44 -0.173,-0.971 0.666,-0.262 0.839,-1.172 0.026,-0.135 -0.72,-0.241 -0.841,-0.207 -0.074,0.022 -0.244,-10e-4 -0.218,-0.077 l -0.129,0.037 c -0.142,-0.222 -0.195,-0.348 -0.129,-0.547 0.028,-0.085 -0.037,-0.181 -0.02,-0.269 0.027,-0.138 0.364,-0.106 0.374,-0.102 0.555,0.203 0.919,0.17 1.573,-0.288 0.102,-0.071 0.272,-0.121 0.28,-0.25 0.045,-0.878 -0.089,-2.52 0.004,-3.328 0.005,-0.041 -0.128,-0.335 -0.168,-0.344 -0.123,-0.025 -0.428,-0.186 -0.538,-0.26 l -0.662,0.18 c -0.102,0.033 -0.087,-0.031 -0.148,-0.073 -0.014,-0.009 -0.019,0.022 -0.036,0.025 -0.194,0.038 -0.678,0.073 -0.763,0.022 l -0.105,0.074 c -0.042,0.029 -0.343,0.222 -0.35,0.245 -0.025,0.091 0.012,0.088 0.013,0.094 0,0.003 -0.007,0.008 -0.036,0.028 -1.269,0.888 -1.369,1.17 -1.161,2.547 0.02,0.136 -0.022,0.289 0.052,0.424 -0.056,0.117 -0.288,-0.297 -0.542,0.026 -0.052,0.066 0.449,1.377 0.438,1.533 l -0.084,1.086 c 0.002,1.156 1.603,4.191 1.474,4.877 -0.009,0.047 0.052,0.081 0.078,0.122 0.334,0.523 0.452,0.908 0.547,1.439 0.033,0.185 0.833,1.654 0.948,2.095 0.111,0.423 0.051,0.59 0.114,0.946 0.129,0.727 0.801,0.884 0.527,1.701 -0.006,0.017 0.014,0.022 0.024,0.037 0.114,0.178 0.362,0.536 0.277,0.672 -0.03,0.05 -0.398,0.177 -0.44,0.185 -0.073,0.014 -0.127,-0.118 -0.125,-0.196 0.003,-0.138 0.089,-0.574 0.112,-0.698 0.022,-0.117 -0.304,-0.476 -0.324,-0.587 -0.014,-0.077 0.074,-0.549 0.089,-0.629 0.023,-0.121 -0.063,-0.24 -0.063,-0.363 0,-0.055 -0.28,-0.196 -0.296,-0.199 -0.02,-0.003 -0.231,-0.387 -0.25,-0.391 -0.134,-0.028 -0.113,0.43 -0.101,0.53 0.028,0.243 0.389,1.899 0.388,1.905 -0.078,0.41 0.228,1.51 0.146,1.685 -0.109,0.227 -0.801,-0.705 -0.74,0.217 0.004,0.041 0.254,0.439 0.27,0.501 0.064,0.248 0.007,0.42 0.101,0.743 l 0.148,0.232 c -0.032,0.098 -0.26,-0.151 -0.346,0.065 -0.239,0.603 -0.054,0.297 -0.339,0.237 -0.021,-0.005 -0.032,0.015 -0.047,0.033 l 0.017,0.002 z"
         id="path136"
         inkscape:connector-curvature="0" />
      <path
         d="m 80.982,286.413 -0.007,-0.001 c 0.172,-0.013 0.224,-0.159 0.339,-0.184 0.413,-0.092 0.681,-0.343 1.097,-0.398 0.578,-0.076 1.523,0.262 2.205,0.066 0.037,-0.01 0.05,0.065 0.086,0.081 0.124,0.059 0.383,0.165 0.53,0.195 0.362,0.076 1.691,0.52 1.932,0.488 0.09,-0.012 0.358,-0.021 0.42,0.024 0.076,0.054 0.373,0.268 0.413,0.277 0.405,0.084 0.536,-0.026 0.95,-0.047 0.094,-0.005 0.433,0.169 0.53,0.249 0.057,0.045 0.143,-0.007 0.215,-0.009 0.277,-0.009 1.763,0.226 1.9,0.226 0.177,-10e-4 0.369,0.203 0.588,0.154 0.133,-0.029 0.241,0.181 0.374,0.163 0.604,-0.079 2.376,-0.301 3.057,-0.158 0.14,0.029 0.247,0.181 0.39,0.187 0.333,0.013 0.952,-0.136 1.25,-0.026 0.574,0.212 2.264,0.799 2.855,0.743 0.126,-0.012 0.162,-0.083 0.253,0.053 0.003,-0.018 0.019,-0.029 0.035,-0.025 0.081,0.017 0.25,0.082 0.37,0.076 0.266,-0.014 0.746,0.189 0.982,0.215 0.034,0.005 0.053,-0.013 0.086,-0.025 0.125,-0.047 1.512,-0.132 1.445,0.226 -0.013,0.063 -0.096,0.131 -0.152,0.107 -0.23,-0.1 -0.485,-0.167 -0.74,-0.154 -0.065,0.003 -0.196,0.104 -0.272,0.049 -0.603,-0.433 -3.057,-0.078 -3.599,-0.346 -0.034,-0.017 -0.201,0.094 -0.21,0.095 -0.11,0.006 -0.527,0.091 -0.534,0.091 -0.237,-0.049 -0.602,-0.209 -0.803,-0.199 -0.485,0.025 -1.95,-0.37 -2.061,-0.344 -0.655,0.161 -1.38,-0.05 -2.176,0.057 -0.108,0.013 -0.219,0.081 -0.323,0.049 -0.674,-0.208 -4.267,-0.387 -4.472,-0.655 l -0.093,0.065 c 0.007,-0.017 -0.14,-0.015 -0.19,-0.008 -0.024,0.003 -0.035,0.046 -0.059,0.041 l -0.44,0.025 c -0.026,0.006 -0.938,-0.418 -1.195,-0.472 l -0.117,-0.025 c -0.721,-0.149 -1.403,-0.338 -2.13,-0.242 -0.016,0.003 -0.561,-0.297 -0.698,-0.325 -0.016,-0.003 -0.019,0.019 -0.035,0.024 -0.522,0.196 -0.877,0.515 -1.343,0.516 -0.164,10e-4 -0.511,-0.377 -0.663,-0.616 l -0.023,-0.036 c -0.016,-0.024 -0.041,-0.032 -0.039,-0.062 0.002,-0.038 0.134,-0.15 0.089,-0.15 z"
         id="path138"
         inkscape:connector-curvature="0" />
      <path
         d="m 102.453,290.426 c 0.012,-0.064 0.118,-0.094 0.176,-0.069 0.178,0.078 0.356,0.046 0.506,0.158 0.161,0.122 0.412,-0.167 0.592,-0.078 0.091,0.045 0.132,0.035 0.218,0.078 0.087,0.043 0.119,0.027 0.179,0.122 l 0.062,0.098 0.039,0.061 0.027,0.123 c 0,0 0.037,-0.014 -0.073,-0.036 -0.091,-0.02 0.02,-0.038 -0.07,-0.057 h -0.051 c -0.015,-0.008 -0.007,-0.035 -0.024,-0.037 -0.075,-0.016 -0.104,-0.046 -0.179,-0.069 -0.061,-0.02 -0.211,0.03 -0.323,-0.004 -0.119,-0.037 -0.297,0.023 -0.405,10e-4 -0.062,-0.012 -0.674,-0.049 -0.775,-0.023 a 2.81,2.81 0 0 1 -1.297,0.006 c -0.385,-0.08 -1.703,0.035 -1.947,-0.141 -0.019,-0.013 -0.036,0.046 -0.059,0.041 a 0.955,0.955 0 0 0 -0.486,0.005 c -0.106,0.023 -2.861,-0.186 -2.878,-0.196 -0.026,-0.015 -0.03,-0.022 -0.029,-0.022 0.002,-0.004 0.026,0.01 -0.03,0.01 -0.673,0.002 -1.445,-0.207 -2.102,-0.12 -0.07,0.009 -0.762,-0.295 -0.818,-0.382 l -0.016,-0.024 c -0.919,0.001 -1.227,0.432 -2.68,-0.017 -0.024,-0.007 -0.037,-0.052 -0.062,-0.044 -0.457,0.13 -3.763,-0.69 -4.051,-0.897 -0.17,-0.121 -0.433,0.102 -0.619,0.009 -0.257,-0.127 -0.298,-0.302 -0.597,-0.431 -0.093,-0.041 -0.884,0.272 -0.911,0.266 -0.319,-0.066 -0.62,-0.341 -0.818,-0.382 -0.238,-0.05 -0.673,0.149 -0.919,0.042 -0.019,-0.008 -0.103,-0.161 -0.125,-0.196 0.036,-10e-4 0.06,-0.141 0.07,-0.155 l 0.443,-0.311 c 0.205,-0.011 1.016,0.096 1.145,0.047 0.494,-0.185 0.948,-0.378 1.468,-0.32 0.757,0.084 0.735,0.507 1.298,0.843 0.454,0.272 3.535,0.737 4.206,0.876 0.256,0.053 0.577,0.326 0.843,0.313 0.102,-0.005 0.638,-0.26 0.685,-0.25 0.29,0.06 0.683,0.026 0.907,0.072 0.083,0.017 0.311,0.305 0.378,0.301 0.096,-0.005 1.201,0.119 1.266,0.158 0.053,0.032 0.111,-0.106 0.167,-0.081 0.152,0.066 0.5,-0.026 0.654,-0.033 0.119,-0.006 0.537,0.228 0.685,0.228 0.095,0 0.734,0.096 0.741,0.101 0.12,0.091 0.213,-0.051 0.358,-0.02 0.36,0.075 0.918,-0.202 1.269,-0.129 1.595,0.332 3.07,0.279 4.194,0.513 z"
         id="path140"
         inkscape:connector-curvature="0" />
    </g>
    <g
       id="g152">
      <g
         id="g150"
         style="fill:#cccec6">
        <path
           d="m 179.756,368.438 h 0.709 v 4.336 h -0.709 z m -0.545,0.047 c 0.02,0.633 -0.043,1.979 -0.421,2.547 -0.387,0.581 -0.856,0.909 -1.433,1.003 l -0.038,0.006 v 0.737 l 0.05,-0.004 c 0.713,-0.063 1.585,-0.631 1.903,-1.242 0.305,-0.584 0.358,-1.04 0.358,-3.049 v -0.046 h -0.421 z m 3.654,3.55 c -0.577,-0.094 -1.045,-0.422 -1.433,-1.003 -0.378,-0.568 -0.441,-1.914 -0.421,-2.547 l 0.001,-0.047 h -0.421 v 0.046 c 0,2.009 0.054,2.464 0.358,3.049 0.319,0.61 1.19,1.179 1.903,1.242 l 0.05,0.004 v -0.737 z"
           id="path144"
           inkscape:connector-curvature="0" />
        <path
           d="m 195.371,372.843 v -4.36 h -0.652 v 4.36 z m -9.421,-4.36 v 0.653 h 0.906 v 3.707 h 0.653 v -3.707 h 0.905 v -0.653 z m 6.319,0.853 v 3.507 h -0.653 v -3.707 c 0,-0.453 0.179,-0.653 0.642,-0.653 h 0.706 c 0.527,0 1.169,0.4 1.169,1.274 0,0.874 -0.484,1.095 -0.737,1.232 -0.147,0.105 -0.116,0.19 -0.053,0.326 l 1.021,1.527 -0.763,-0.005 -1,-1.506 c -0.184,-0.3 -0.1,-0.616 0.1,-0.721 0.15,-0.079 0.779,-0.253 0.779,-0.811 0,-0.537 -0.326,-0.663 -0.579,-0.663 h -0.442 c -0.127,0 -0.19,0.053 -0.19,0.2 z m -2.107,-0.421 c -0.116,-0.4 -0.358,-0.432 -0.527,-0.432 -0.168,0 -0.411,0.032 -0.526,0.432 l -1.106,3.928 h 0.674 l 0.305,-1.095 h 1.306 l 0.305,1.095 h 0.674 z m -1,2.201 0.474,-1.653 0.474,1.653 z m -3.858,-2.201 c -0.116,-0.4 -0.358,-0.432 -0.527,-0.432 -0.169,0 -0.411,0.032 -0.527,0.432 l -1.106,3.928 h 0.674 l 0.305,-1.095 h 1.306 l 0.305,1.095 h 0.674 z m -1,2.201 0.474,-1.653 0.474,1.653 z m 12.823,-2.29 a 0.748,0.748 0 1 0 0.1,0.374 0.746,0.746 0 0 0 -0.1,-0.374 z m -0.101,0.696 a 0.622,0.622 0 0 1 -0.547,0.311 0.632,0.632 0 0 1 -0.317,-1.184 0.636,0.636 0 0 1 0.864,0.873 z"
           id="path146"
           inkscape:connector-curvature="0"
           style="clip-rule:evenodd;fill-rule:evenodd" />
        <path
           d="m 196.689,369.381 a 0.351,0.351 0 0 0 -0.103,-0.131 0.282,0.282 0 0 0 0.181,-0.262 0.26,0.26 0 0 0 -0.032,-0.126 0.222,0.222 0 0 0 -0.087,-0.09 0.335,0.335 0 0 0 -0.162,-0.031 h -0.294 v 0.924 h 0.145 v -0.388 h 0.108 c 0.015,0 0.04,0.03 0.074,0.09 l 0.03,0.057 0.126,0.241 h 0.165 z m -0.25,-0.215 h -0.101 v -0.313 h 0.11 c 0.051,0 0.087,0.007 0.107,0.021 0.02,0.014 0.036,0.031 0.046,0.052 a 0.147,0.147 0 0 1 0.016,0.07 0.189,0.189 0 0 1 -0.039,0.116 c -0.026,0.036 -0.073,0.054 -0.139,0.054 z"
           id="path148"
           inkscape:connector-curvature="0"
           style="clip-rule:evenodd;fill-rule:evenodd" />
      </g>
    </g>
    <g
       id="g158">
      <path
         d="M 247.741,94.26 H 127.182 a 0.304,0.304 0 0 1 -0.304,-0.304 v -8.059 c 0,-0.168 0.136,-0.304 0.304,-0.304 h 120.559 c 0.168,0 0.304,0.136 0.304,0.304 v 8.059 a 0.304,0.304 0 0 1 -0.304,0.304 z"
         id="path154"
         inkscape:connector-curvature="0"
         style="fill:#1b1c1a" />
      <path
         d="m 128.837,87.219 h 0.792 v 1.708 h -0.792 z m 0,3.708 h 0.792 v 1.708 h -0.792 z m 117.249,-2 h -0.792 v -1.708 h 0.792 z m 0,3.708 h -0.792 v -1.708 h 0.792 z m -31.874,-7.041 h 2.375 v 1.125 h -2.375 z m 0,7.562 h 2.375 v 1.125 h -2.375 z m -82.761,-5.937 h 0.854 v 0.854 h -0.854 z m 0,4.562 h 0.854 v 0.854 h -0.854 z m 1.8,-4.562 h 0.854 v 0.854 h -0.854 z m 0,4.562 h 0.854 v 0.854 h -0.854 z m 1.8,-4.562 h 0.854 v 0.854 h -0.854 z m 0,4.562 h 0.854 v 0.854 h -0.854 z m 1.8,-4.562 h 0.854 v 0.854 h -0.854 z m 0,4.562 h 0.854 v 0.854 h -0.854 z m 1.8,-4.562 h 0.854 v 0.854 h -0.854 z m 0,4.562 h 0.854 v 0.854 h -0.854 z m 1.8,-4.562 h 0.854 v 0.854 h -0.854 z m 0,4.562 h 0.854 v 0.854 h -0.854 z m 1.8,-4.562 h 0.854 v 0.854 h -0.854 z m 0,4.562 h 0.854 v 0.854 h -0.854 z m 1.8,-4.562 h 0.854 v 0.854 h -0.854 z m 0,4.562 h 0.854 v 0.854 h -0.854 z m 1.8,-4.562 h 0.854 v 0.854 h -0.854 z m 0,4.562 h 0.854 v 0.854 h -0.854 z m 1.8,-4.562 h 0.854 v 0.854 h -0.854 z m 0,4.562 h 0.854 v 0.854 h -0.854 z m 1.8,-4.562 h 0.854 v 0.854 h -0.854 z m 0,4.562 h 0.854 v 0.854 h -0.854 z m 1.8,-4.562 h 0.854 v 0.854 h -0.854 z m 0,4.562 h 0.854 v 0.854 h -0.854 z m 1.8,-4.562 h 0.854 v 0.854 h -0.854 z m 0,4.562 h 0.854 v 0.854 h -0.854 z m 1.8,-4.562 h 0.854 v 0.854 h -0.854 z m 0,4.562 h 0.854 v 0.854 h -0.854 z m 1.8,-4.562 h 0.854 v 0.854 h -0.854 z m 0,4.562 h 0.854 v 0.854 h -0.854 z m 1.8,-4.562 h 0.854 v 0.854 h -0.854 z m 0,4.562 h 0.854 v 0.854 h -0.854 z m 1.8,-4.562 h 0.854 v 0.854 h -0.854 z m 0,4.562 h 0.854 v 0.854 h -0.854 z m 1.8,-4.562 h 0.854 v 0.854 h -0.854 z m 0,4.562 h 0.854 v 0.854 h -0.854 z m 1.8,-4.562 h 0.854 v 0.854 h -0.854 z m 0,4.562 h 0.854 v 0.854 h -0.854 z m 1.8,-4.562 h 0.854 v 0.854 h -0.854 z m 0,4.562 h 0.854 v 0.854 h -0.854 z m 1.8,-4.562 h 0.854 v 0.854 h -0.854 z m 0,4.562 h 0.854 v 0.854 h -0.854 z m 1.8,-4.562 h 0.854 v 0.854 h -0.854 z m 0,4.562 h 0.854 v 0.854 h -0.854 z m 1.8,-4.562 h 0.854 v 0.854 h -0.854 z m 0,4.562 h 0.854 v 0.854 h -0.854 z m 1.8,-4.562 h 0.854 v 0.854 h -0.854 z m 0,4.562 h 0.854 v 0.854 h -0.854 z m 1.8,-4.562 h 0.854 v 0.854 h -0.854 z m 0,4.562 h 0.854 v 0.854 h -0.854 z m 1.8,-4.562 h 0.854 v 0.854 h -0.854 z m 0,4.562 h 0.854 v 0.854 h -0.854 z m 1.8,-4.562 h 0.854 v 0.854 h -0.854 z m 0,4.562 h 0.854 v 0.854 h -0.854 z m 1.8,-4.562 h 0.854 v 0.854 h -0.854 z m 0,4.562 h 0.854 v 0.854 h -0.854 z m 1.8,-4.562 h 0.854 v 0.854 h -0.854 z m 0,4.562 h 0.854 v 0.854 h -0.854 z m 1.8,-4.562 h 0.854 v 0.854 h -0.854 z m 0,4.562 h 0.854 v 0.854 h -0.854 z m 1.8,-4.562 h 0.854 v 0.854 h -0.854 z m 0,4.562 h 0.854 v 0.854 h -0.854 z m 1.8,-4.562 h 0.854 v 0.854 h -0.854 z m 0,4.562 h 0.854 v 0.854 h -0.854 z m 1.8,-4.562 h 0.854 v 0.854 h -0.854 z m 0,4.562 h 0.854 v 0.854 h -0.854 z m 1.8,-4.562 h 0.854 v 0.854 h -0.854 z m 0,4.562 h 0.854 v 0.854 h -0.854 z m 1.8,-4.562 h 0.854 v 0.854 h -0.854 z m 0,4.562 h 0.854 v 0.854 h -0.854 z m 1.8,-4.562 h 0.854 v 0.854 h -0.854 z m 0,4.562 h 0.854 v 0.854 h -0.854 z m 1.8,-4.562 h 0.854 v 0.854 h -0.854 z m 0,4.562 h 0.854 v 0.854 h -0.854 z m 1.8,-4.562 h 0.854 v 0.854 h -0.854 z m 0,4.562 h 0.854 v 0.854 h -0.854 z m 1.8,-4.562 h 0.854 v 0.854 h -0.854 z m 0,4.562 h 0.854 v 0.854 h -0.854 z m 1.8,-4.562 h 0.854 v 0.854 h -0.854 z m 0,4.562 h 0.854 v 0.854 h -0.854 z m 1.8,-4.562 h 0.854 v 0.854 h -0.854 z m 0,4.562 h 0.854 v 0.854 h -0.854 z m 1.8,-4.562 h 0.854 v 0.854 h -0.854 z m 0,4.562 h 0.854 v 0.854 h -0.854 z m 1.8,-4.562 h 0.854 v 0.854 h -0.854 z m 0,4.562 h 0.854 v 0.854 h -0.854 z m 1.8,-4.562 h 0.854 v 0.854 h -0.854 z m 0,4.562 h 0.854 v 0.854 h -0.854 z m 1.8,-4.562 h 0.854 v 0.854 h -0.854 z m 0,4.562 h 0.854 v 0.854 h -0.854 z m 1.8,-4.562 h 0.854 v 0.854 h -0.854 z m 0,4.562 h 0.854 v 0.854 h -0.854 z m -81.946,-2.854 h 0.946 v 2 h -0.946 z m 1.8,0 h 0.946 v 2 h -0.946 z m 1.8,0 h 0.946 v 2 h -0.946 z m 1.8,0 h 0.946 v 2 h -0.946 z m 1.8,0 h 0.946 v 2 h -0.946 z m 1.8,0 h 0.946 v 2 h -0.946 z m 1.8,0 h 0.946 v 2 h -0.946 z m 1.8,0 h 0.946 v 2 h -0.946 z m 1.8,0 h 0.946 v 2 h -0.946 z m 1.8,0 h 0.946 v 2 h -0.946 z m 1.8,0 h 0.946 v 2 h -0.946 z m 1.8,0 h 0.946 v 2 h -0.946 z m 1.8,0 h 0.946 v 2 h -0.946 z m 1.8,0 h 0.946 v 2 h -0.946 z m 1.8,0 h 0.946 v 2 h -0.946 z m 1.8,0 h 0.946 v 2 h -0.946 z m 1.8,0 h 0.946 v 2 h -0.946 z m 1.8,0 h 0.946 v 2 h -0.946 z m 1.8,0 h 0.946 v 2 h -0.946 z m 1.8,0 h 0.946 v 2 h -0.946 z m 1.8,0 h 0.946 v 2 h -0.946 z m 1.8,0 h 0.946 v 2 h -0.946 z m 1.8,0 h 0.946 v 2 h -0.946 z m 1.8,0 h 0.946 v 2 h -0.946 z m 1.8,0 h 0.946 v 2 h -0.946 z m 1.8,0 h 0.946 v 2 h -0.946 z m 1.8,0 h 0.946 v 2 h -0.946 z m 1.8,0 h 0.946 v 2 h -0.946 z m 1.8,0 h 0.946 v 2 h -0.946 z m 1.8,0 h 0.946 v 2 h -0.946 z m 1.8,0 h 0.946 v 2 h -0.946 z m 1.8,0 h 0.946 v 2 h -0.946 z m 1.8,0 h 0.946 v 2 h -0.946 z m 1.8,0 h 0.946 v 2 h -0.946 z m 1.8,0 h 0.946 v 2 h -0.946 z m 1.8,0 h 0.946 v 2 h -0.946 z m 1.8,0 h 0.946 v 2 h -0.946 z m 1.8,0 h 0.946 v 2 h -0.946 z m 1.8,0 h 0.946 v 2 h -0.946 z m 1.8,0 h 0.946 v 2 h -0.946 z m 1.8,0 h 0.946 v 2 h -0.946 z m 1.8,0 h 0.946 v 2 h -0.946 z m 1.8,0 h 0.946 v 2 h -0.946 z m 1.8,0 h 0.946 v 2 h -0.946 z m 1.8,0 h 0.946 v 2 h -0.946 z m 1.8,0 h 0.946 v 2 h -0.946 z m 1.8,0 h 0.946 v 2 h -0.946 z m 30.162,-0.854 h -0.854 v -0.854 h 0.854 z m 0,4.563 h -0.854 v -0.854 h 0.854 z m -1.8,-4.563 h -0.854 v -0.854 h 0.854 z m 0,4.563 h -0.854 v -0.854 h 0.854 z m -1.8,-4.563 h -0.854 v -0.854 h 0.854 z m 0,4.563 h -0.854 v -0.854 h 0.854 z m -1.8,-4.563 h -0.854 v -0.854 h 0.854 z m 0,4.563 h -0.854 v -0.854 h 0.854 z m -1.8,-4.563 h -0.854 v -0.854 h 0.854 z m 0,4.563 h -0.854 v -0.854 h 0.854 z m -1.8,-4.563 h -0.854 v -0.854 h 0.854 z m 0,4.563 h -0.854 v -0.854 h 0.854 z m -1.8,-4.563 h -0.854 v -0.854 h 0.854 z m 0,4.563 h -0.854 v -0.854 h 0.854 z m -1.8,-4.563 h -0.854 v -0.854 h 0.854 z m 0,4.563 h -0.854 v -0.854 h 0.854 z m 13.546,-1.709 h -0.946 v -2 h 0.946 z m -1.8,0 h -0.946 v -2 h 0.946 z m -1.8,0 h -0.946 v -2 h 0.946 z m -1.8,0 h -0.946 v -2 h 0.946 z m -1.8,0 h -0.946 v -2 h 0.946 z m -1.8,0 h -0.946 v -2 h 0.946 z m -1.8,0 h -0.946 v -2 h 0.946 z m -1.8,0 h -0.946 v -2 h 0.946 z m -1.8,0 h -0.946 v -2 h 0.946 z m -0.946,-2.854 h -0.854 v -0.854 h 0.854 z m 0,4.563 h -0.854 v -0.854 h 0.854 z m -0.854,-1.709 h -0.946 v -2 h 0.946 z m -0.946,-2.854 h -0.854 v -0.854 h 0.854 z m 0,4.563 h -0.854 v -0.854 h 0.854 z m -0.854,-1.709 h -0.946 v -2 h 0.946 z m -0.946,-2.854 h -0.854 v -0.854 h 0.854 z m 0,4.563 h -0.854 v -0.854 h 0.854 z m -0.854,-1.709 h -0.946 v -2 h 0.946 z m -0.946,-2.854 h -0.854 v -0.854 h 0.854 z m 0,4.563 h -0.854 v -0.854 h 0.854 z m -0.854,-1.709 h -0.946 v -2 h 0.946 z m -0.946,-2.854 h -0.854 v -0.854 h 0.854 z m 0,4.563 h -0.854 v -0.854 h 0.854 z m -0.854,-1.709 h -0.946 v -2 h 0.946 z m -0.946,-2.854 h -0.854 v -0.854 h 0.854 z m 0,4.563 h -0.854 v -0.854 h 0.854 z m -0.854,-1.709 h -0.946 v -2 h 0.946 z m -0.946,-2.854 h -0.854 v -0.854 h 0.854 z m 0,4.563 h -0.854 v -0.854 h 0.854 z m -0.854,-1.709 h -0.946 v -2 h 0.946 z"
         id="path156"
         inkscape:connector-curvature="0"
         style="fill:#121411" />
    </g>
    <circle
       transform="rotate(-31.714,187.48,217.548)"
       cx="187.46201"
       cy="217.53799"
       id="ellipse160"
       r="86.768997"
       style="fill:#3f4044" />
    <circle
       cx="187.46201"
       cy="217.53799"
       r="85.768997"
       id="circle162"
       style="fill:#292a2d" />
  </g>
</svg>
