<?xml version="1.0" encoding="UTF-8" standalone="no"?>
<svg
   xmlns:dc="http://purl.org/dc/elements/1.1/"
   xmlns:cc="http://creativecommons.org/ns#"
   xmlns:rdf="http://www.w3.org/1999/02/22-rdf-syntax-ns#"
   xmlns:svg="http://www.w3.org/2000/svg"
   xmlns="http://www.w3.org/2000/svg"
   xmlns:sodipodi="http://sodipodi.sourceforge.net/DTD/sodipodi-0.dtd"
   xmlns:inkscape="http://www.inkscape.org/namespaces/inkscape"
   viewBox="0 0 222.62883 238.05713"
   version="1.1"
   id="svg370"
   sodipodi:docname="controller.svg"
   width="222.62883"
   height="238.05713"
   inkscape:version="0.92.4 5da689c313, 2019-01-14">
  <metadata
     id="metadata376">
    <rdf:RDF>
      <cc:Work
         rdf:about="">
        <dc:format>image/svg+xml</dc:format>
        <dc:type
           rdf:resource="http://purl.org/dc/dcmitype/StillImage" />
      </cc:Work>
    </rdf:RDF>
  </metadata>
  <defs
     id="defs374" />
  <sodipodi:namedview
     pagecolor="#ffffff"
     bordercolor="#666666"
     borderopacity="1"
     objecttolerance="10"
     gridtolerance="10"
     guidetolerance="10"
     inkscape:pageopacity="0"
     inkscape:pageshadow="2"
     inkscape:window-width="471"
     inkscape:window-height="442"
     id="namedview372"
     showgrid="false"
     inkscape:zoom="0.99136338"
     inkscape:cx="111.3135"
     inkscape:cy="119.02856"
     inkscape:window-x="0"
     inkscape:window-y="0"
     inkscape:window-maximized="0"
     inkscape:current-layer="svg370">
    <inkscape:grid
       type="xygrid"
       id="grid378"
       originx="0"
       originy="0.00056273082" />
  </sodipodi:namedview>
  <path
     d="M 2.708,13.861562 V 224.19556 c 0,0 29.833,15.779 78.5,13.667 22.778,-0.989 43.67,-7.347 54.5,-12 6.101,-2.621 26.837,-16.092 33.333,-34.667 10.827,-30.958 9.833,-72.167 9.833,-72.167 0,0 0.993,-41.208998 -9.833,-72.166998 -6.496,-18.575 -27.233,-32.046 -33.333,-34.667 C 124.878,7.5415625 103.986,1.1835625 81.208,0.19456249 32.542,-1.9174375 2.708,13.861562 2.708,13.861562 Z"
     id="path2"
     inkscape:connector-curvature="0"
     style="fill:#2b2d30" />
  <path
     d="m 3.043,180.22856 h -0.03 l 4.667,10.633 c 0,0 26.333,13 47.333,15.667 21,2.667 46.25,-2.333 46.25,-2.333 0,0 2.917,-0.5 4.25,-2.167 1.333,-1.667 1.667,-4.5 1.667,-4.5 V 40.528562 c 0,0 -0.333,-2.833 -1.667,-4.5 -1.333,-1.667 -4.25,-2.167 -4.25,-2.167 0,0 -25.25,-5 -46.25,-2.333 -21,2.667 -47.334,15.667 -47.334,15.667 l -4.666,10.633 h 0.03 z"
     id="path4"
     inkscape:connector-curvature="0"
     style="fill:#313131" />
  <path
     d="m 68.567,207.06156 c -4.893,0 -9.442,-0.263 -13.523,-0.781 -19.936,-2.532 -45.014,-14.555 -47.115,-15.575 v -20.403 l 0.733,1.19 a 0.25,0.25 0 0 0 0.213,0.119 h 79.932 a 5.825,5.825 0 0 0 5.818,-5.818 V 73.263562 a 5.825,5.825 0 0 0 -5.818,-5.818 H 8.875 a 0.25,0.25 0 0 0 -0.213,0.119 l -0.733,1.19 v -21.403 c 2.101,-1.021 27.181,-13.044 47.115,-15.575 4.082,-0.519 8.632,-0.781 13.523,-0.781 16.737,0 32.489,3.08 32.646,3.111 0.035,0.006 2.847,0.506 4.104,2.078 1.271,1.59 1.61,4.345 1.614,4.373 l -0.002,156.970998 c -0.002,0 -0.341,2.754 -1.612,4.344 -1.259,1.574 -4.068,2.072 -4.097,2.077 -0.164,0.032 -15.913,3.112 -32.651,3.112 z"
     id="path6"
     inkscape:connector-curvature="0"
     style="fill:#393b3f" />
  <path
     d="m 68.566,31.245562 c 16.711,0 32.443,3.076 32.612,3.109 0.027,0.005 2.743,0.485 3.944,1.986 1.16,1.45 1.519,3.934 1.557,4.22 V 197.49656 c -0.038,0.286 -0.397,2.769 -1.557,4.22 -1.196,1.496 -3.917,1.982 -3.957,1.989 -0.157,0.031 -15.882,3.107 -32.6,3.107 -4.881,0 -9.419,-0.262 -13.49,-0.779 -19.526,-2.479 -44.015,-14.092 -46.896,-15.484 v -19.363 l 0.27,0.438 a 0.5,0.5 0 0 0 0.426,0.238 h 79.932 a 6.075,6.075 0 0 0 6.068,-6.068 V 73.264562 a 6.075,6.075 0 0 0 -6.068,-6.068 H 8.875 a 0.5,0.5 0 0 0 -0.426,0.238 l -0.27,0.438 v -20.364 c 2.881,-1.391 27.367,-13.004 46.896,-15.483 4.072,-0.518 8.611,-0.78 13.491,-0.78 m 0,-0.5 c -4.523,0 -9.131,0.221 -13.553,0.783 -21,2.667 -47.333,15.667 -47.333,15.667 v 22.443 l 1.196,-1.943 h 79.932 a 5.568,5.568 0 0 1 5.568,5.568 v 92.529998 a 5.568,5.568 0 0 1 -5.568,5.568 H 8.875 l -1.196,-1.943 v 21.443 c 0,0 26.333,13 47.333,15.667 4.421,0.561 9.031,0.783 13.553,0.783 16.96,0 32.697,-3.116 32.697,-3.116 0,0 2.917,-0.5 4.25,-2.167 1.333,-1.667 1.667,-4.5 1.667,-4.5 V 40.528562 c 0,0 -0.333,-2.833 -1.667,-4.5 -1.333,-1.667 -4.25,-2.167 -4.25,-2.167 0,0 -15.738,-3.116 -32.696,-3.116 z"
     id="path8"
     inkscape:connector-curvature="0"
     style="fill:#212123" />
  <path
     d="m 4.875,119.52856 v 45.333 l 4,6.5 h 79.932 a 5.568,5.568 0 0 0 5.568,-5.568 V 73.263562 a 5.568,5.568 0 0 0 -5.568,-5.568 H 8.875 l -4,6.5 z"
     id="path10"
     inkscape:connector-curvature="0"
     style="fill:#3e4346" />
  <path
     d="M 10.375,67.695562 V 171.36156 h -1.5 l -4,-6.5 V 74.195562 l 4,-6.5 z"
     id="path12"
     inkscape:connector-curvature="0"
     style="fill:#262626" />
  <linearGradient
     id="a"
     gradientUnits="userSpaceOnUse"
     x1="-364.32501"
     y1="224.724"
     x2="-154.155"
     y2="224.724"
     gradientTransform="matrix(0,-1,-1,0,228.967,-139.71144)">
    <stop
       offset="0"
       stop-color="#262626"
       id="stop14" />
    <stop
       offset="1"
       stop-color="#2a2e33"
       id="stop16" />
  </linearGradient>
  <path
     d="m 3.013,181.22856 3.612,10.133 c 0,0 0.25,7.875 0,16.125 -0.25,8.25 -2.5,17.25 -3.612,17.125 -1.112,-0.125 -1.263,-3 -1.263,-3 V 17.445562 c 0,0 0.15,-2.875 1.263,-3 1.113,-0.125 3.362,8.875 3.612,17.125 0.25,8.25 0,16.125 0,16.125 l -3.612,10.133 z"
     id="path19"
     inkscape:connector-curvature="0"
     style="fill:url(#a)" />
  <path
     d="m 1.75,119.52856 v 102.083 c 0,0 -0.733,-1.592 -1.028,-5.244 -0.516,-6.364 -0.722,-16.945 -0.722,-21.631 0,-7.375 0.875,-22.875 0.875,-22.875 l 0.438,-1.313 V 68.507562 l -0.438,-1.313 c 0,0 -0.875,-15.5 -0.875,-22.875 0,-4.686 0.206,-15.267 0.722,-21.631 0.296,-3.652 1.028,-5.244 1.028,-5.244 V 119.52856"
     id="path21"
     inkscape:connector-curvature="0"
     style="fill:#6e727d" />
  <path
     d="m 168.063,193.89556 c -7.938,12.966 -16.239,26.466 -31.588,30.216 -15.349,3.75 -27.117,-6.5 -27.117,-13.5 V 28.445562 c 0,-7 11.768,-17.25 27.117,-13.5 15.349,3.75 23.651,17.25 31.588,30.216 3.969,6.483 9.453,40.425 9.453,74.366998 0,33.942 -5.485,67.884 -9.453,74.367 z"
     id="path23"
     inkscape:connector-curvature="0"
     style="fill:#3d4144" />
  <path
     d="M 99.331,196.79756 V 42.259562 a 2.07,2.07 0 0 1 2.065,-2.065 2.07,2.07 0 0 1 2.065,2.065 V 196.79656 a 2.07,2.07 0 0 1 -2.065,2.065 2.07,2.07 0 0 1 -2.065,-2.064 z"
     id="path25"
     inkscape:connector-curvature="0"
     style="fill:#151515" />
  <path
     d="M 98.623,196.79756 V 42.259562 a 2.07,2.07 0 0 1 2.065,-2.065 2.07,2.07 0 0 1 2.065,2.065 V 196.79656 a 2.07,2.07 0 0 1 -2.065,2.065 2.07,2.07 0 0 1 -2.065,-2.064 z"
     id="path27"
     inkscape:connector-curvature="0"
     style="fill:#424242" />
  <path
     d="M 99.477,196.79756 V 42.259562 a 2.07,2.07 0 0 1 2.065,-2.065 2.07,2.07 0 0 1 2.065,2.065 V 196.79656 a 2.07,2.07 0 0 1 -2.065,2.065 2.07,2.07 0 0 1 -2.065,-2.064 z"
     id="path29"
     inkscape:connector-curvature="0"
     style="fill:#242424" />
  <path
     d="m 76.825,95.771562 v -11.25 a 4.638,4.638 0 0 1 4.625,-4.625 4.638,4.638 0 0 1 4.625,4.625 v 11.25 a 4.638,4.638 0 0 1 -4.625,4.624998 4.64,4.64 0 0 1 -4.625,-4.624998 z"
     id="path31"
     inkscape:connector-curvature="0"
     style="fill:#0e0e0e" />
  <path
     d="m 78.041,95.859562 v -11.426 a 3.419,3.419 0 0 1 3.409,-3.409 3.419,3.419 0 0 1 3.409,3.409 v 11.426 a 3.419,3.419 0 0 1 -3.409,3.409 3.419,3.419 0 0 1 -3.409,-3.409 z"
     id="path33"
     inkscape:connector-curvature="0"
     style="fill:#212121" />
  <path
     d="m 79.7,95.812562 v -11.333 c 0,-0.963 0.787,-1.75 1.75,-1.75 0.963,0 1.75,0.787 1.75,1.75 v 11.333 c 0,0.963 -0.787,1.75 -1.75,1.75 -0.962,0 -1.75,-0.787 -1.75,-1.75 z"
     id="path35"
     inkscape:connector-curvature="0"
     style="fill:#313131" />
  <path
     d="m 126.527,110.87256 -7.29,-5.944 a 3.639,3.639 0 0 1 -0.519,-5.104998 l 0.165,-0.203 a 3.639,3.639 0 0 1 5.105,-0.519 l 7.29,5.943998 a 3.639,3.639 0 0 1 0.519,5.105 l -0.165,0.203 a 3.64,3.64 0 0 1 -5.105,0.519 z"
     id="path37"
     inkscape:connector-curvature="0"
     style="fill:#0e0e0e" />
  <path
     d="m 127.556,110.36556 -7.648,-6.236 a 2.683,2.683 0 0 1 -0.383,-3.763 l 0.214,-0.262 a 2.683,2.683 0 0 1 3.763,-0.382998 l 7.648,6.235998 a 2.683,2.683 0 0 1 0.383,3.763 l -0.214,0.262 a 2.683,2.683 0 0 1 -3.763,0.383 z"
     id="path39"
     inkscape:connector-curvature="0"
     style="fill:#212121" />
  <path
     d="m 129.171,109.43756 -7.738,-6.31 a 1.377,1.377 0 0 1 -0.196,-1.932 l 0.163,-0.2 a 1.377,1.377 0 0 1 1.932,-0.196 l 7.738,6.31 c 0.585,0.477 0.674,1.346 0.196,1.932 l -0.163,0.2 a 1.378,1.378 0 0 1 -1.932,0.196 z"
     id="path41"
     inkscape:connector-curvature="0"
     style="fill:#313131" />
  <path
     d="m 126.527,128.84256 -7.29,-5.944 a 3.639,3.639 0 0 1 -0.519,-5.105 l 0.165,-0.203 a 3.639,3.639 0 0 1 5.105,-0.519 l 7.29,5.944 a 3.639,3.639 0 0 1 0.519,5.105 l -0.165,0.203 a 3.64,3.64 0 0 1 -5.105,0.519 z"
     id="path43"
     inkscape:connector-curvature="0"
     style="fill:#0e0e0e" />
  <path
     d="m 127.556,128.33456 -7.648,-6.236 a 2.683,2.683 0 0 1 -0.383,-3.763 l 0.214,-0.262 a 2.683,2.683 0 0 1 3.763,-0.383 l 7.648,6.236 a 2.683,2.683 0 0 1 0.383,3.763 l -0.214,0.262 a 2.681,2.681 0 0 1 -3.763,0.383 z"
     id="path45"
     inkscape:connector-curvature="0"
     style="fill:#212121" />
  <path
     d="m 129.171,127.40756 -7.738,-6.31 a 1.377,1.377 0 0 1 -0.196,-1.932 l 0.163,-0.2 a 1.377,1.377 0 0 1 1.932,-0.196 l 7.738,6.31 c 0.585,0.477 0.674,1.346 0.196,1.932 l -0.163,0.2 a 1.379,1.379 0 0 1 -1.932,0.196 z"
     id="path47"
     inkscape:connector-curvature="0"
     style="fill:#313131" />
  <path
     d="m 76.825,124.66856 v -11.25 a 4.638,4.638 0 0 1 4.625,-4.625 4.638,4.638 0 0 1 4.625,4.625 v 11.25 a 4.638,4.638 0 0 1 -4.625,4.625 4.639,4.639 0 0 1 -4.625,-4.625 z"
     id="path49"
     inkscape:connector-curvature="0"
     style="fill:#0e0e0e" />
  <path
     d="m 78.041,124.75656 v -11.426 a 3.419,3.419 0 0 1 3.409,-3.409 3.419,3.419 0 0 1 3.409,3.409 v 11.426 a 3.419,3.419 0 0 1 -3.409,3.409 3.419,3.419 0 0 1 -3.409,-3.409 z"
     id="path51"
     inkscape:connector-curvature="0"
     style="fill:#212121" />
  <path
     d="m 79.7,124.71056 v -11.333 c 0,-0.963 0.787,-1.75 1.75,-1.75 0.963,0 1.75,0.787 1.75,1.75 v 11.333 c 0,0.963 -0.787,1.75 -1.75,1.75 -0.962,0 -1.75,-0.788 -1.75,-1.75 z"
     id="path53"
     inkscape:connector-curvature="0"
     style="fill:#313131" />
  <path
     d="m 76.825,155.27156 v -11.25 a 4.638,4.638 0 0 1 4.625,-4.625 4.638,4.638 0 0 1 4.625,4.625 v 11.25 a 4.638,4.638 0 0 1 -4.625,4.625 4.64,4.64 0 0 1 -4.625,-4.625 z"
     id="path55"
     inkscape:connector-curvature="0"
     style="fill:#0e0e0e" />
  <path
     d="m 78.041,155.35956 v -11.426 a 3.419,3.419 0 0 1 3.409,-3.409 3.419,3.419 0 0 1 3.409,3.409 v 11.426 a 3.419,3.419 0 0 1 -3.409,3.409 3.419,3.419 0 0 1 -3.409,-3.409 z"
     id="path57"
     inkscape:connector-curvature="0"
     style="fill:#212121" />
  <path
     d="m 79.7,155.31256 v -11.333 c 0,-0.963 0.787,-1.75 1.75,-1.75 0.963,0 1.75,0.787 1.75,1.75 v 11.333 c 0,0.962 -0.787,1.75 -1.75,1.75 -0.962,0 -1.75,-0.787 -1.75,-1.75 z"
     id="path59"
     inkscape:connector-curvature="0"
     style="fill:#313131" />
  <path
     d="m 57.325,95.771562 v -11.25 a 4.638,4.638 0 0 1 4.625,-4.625 4.638,4.638 0 0 1 4.625,4.625 v 11.25 a 4.638,4.638 0 0 1 -4.625,4.624998 4.64,4.64 0 0 1 -4.625,-4.624998 z"
     id="path61"
     inkscape:connector-curvature="0"
     style="fill:#0e0e0e" />
  <path
     d="m 58.541,95.859562 v -11.426 a 3.419,3.419 0 0 1 3.409,-3.409 3.419,3.419 0 0 1 3.409,3.409 v 11.426 a 3.419,3.419 0 0 1 -3.409,3.409 3.419,3.419 0 0 1 -3.409,-3.409 z"
     id="path63"
     inkscape:connector-curvature="0"
     style="fill:#212121" />
  <path
     d="m 60.2,95.812562 v -11.333 c 0,-0.963 0.787,-1.75 1.75,-1.75 0.962,0 1.75,0.787 1.75,1.75 v 11.333 c 0,0.963 -0.788,1.75 -1.75,1.75 -0.962,0 -1.75,-0.787 -1.75,-1.75 z"
     id="path65"
     inkscape:connector-curvature="0"
     style="fill:#313131" />
  <path
     d="m 57.325,124.66856 v -11.25 a 4.638,4.638 0 0 1 4.625,-4.625 4.638,4.638 0 0 1 4.625,4.625 v 11.25 a 4.638,4.638 0 0 1 -4.625,4.625 4.639,4.639 0 0 1 -4.625,-4.625 z"
     id="path67"
     inkscape:connector-curvature="0"
     style="fill:#0e0e0e" />
  <path
     d="m 58.541,124.75656 v -11.426 a 3.419,3.419 0 0 1 3.409,-3.409 3.419,3.419 0 0 1 3.409,3.409 v 11.426 a 3.419,3.419 0 0 1 -3.409,3.409 3.419,3.419 0 0 1 -3.409,-3.409 z"
     id="path69"
     inkscape:connector-curvature="0"
     style="fill:#212121" />
  <path
     d="m 60.2,124.71056 v -11.333 c 0,-0.963 0.787,-1.75 1.75,-1.75 0.962,0 1.75,0.787 1.75,1.75 v 11.333 c 0,0.963 -0.788,1.75 -1.75,1.75 -0.962,0 -1.75,-0.788 -1.75,-1.75 z"
     id="path71"
     inkscape:connector-curvature="0"
     style="fill:#313131" />
  <path
     d="m 57.325,155.27156 v -11.25 a 4.638,4.638 0 0 1 4.625,-4.625 4.638,4.638 0 0 1 4.625,4.625 v 11.25 a 4.638,4.638 0 0 1 -4.625,4.625 4.64,4.64 0 0 1 -4.625,-4.625 z"
     id="path73"
     inkscape:connector-curvature="0"
     style="fill:#0e0e0e" />
  <path
     d="m 58.541,155.35956 v -11.426 a 3.419,3.419 0 0 1 3.409,-3.409 3.419,3.419 0 0 1 3.409,3.409 v 11.426 a 3.419,3.419 0 0 1 -3.409,3.409 3.419,3.419 0 0 1 -3.409,-3.409 z"
     id="path75"
     inkscape:connector-curvature="0"
     style="fill:#212121" />
  <path
     d="m 60.2,155.31256 v -11.333 c 0,-0.963 0.787,-1.75 1.75,-1.75 0.962,0 1.75,0.787 1.75,1.75 v 11.333 c 0,0.962 -0.788,1.75 -1.75,1.75 -0.962,0 -1.75,-0.787 -1.75,-1.75 z"
     id="path77"
     inkscape:connector-curvature="0"
     style="fill:#313131" />
  <path
     d="m 37.825,95.771562 v -11.25 a 4.638,4.638 0 0 1 4.625,-4.625 4.638,4.638 0 0 1 4.625,4.625 v 11.25 a 4.638,4.638 0 0 1 -4.625,4.624998 4.64,4.64 0 0 1 -4.625,-4.624998 z"
     id="path79"
     inkscape:connector-curvature="0"
     style="fill:#0e0e0e" />
  <path
     d="m 39.041,95.859562 v -11.426 a 3.419,3.419 0 0 1 3.409,-3.409 3.419,3.419 0 0 1 3.409,3.409 v 11.426 a 3.419,3.419 0 0 1 -3.409,3.409 3.419,3.419 0 0 1 -3.409,-3.409 z"
     id="path81"
     inkscape:connector-curvature="0"
     style="fill:#212121" />
  <path
     d="m 40.7,95.812562 v -11.333 c 0,-0.963 0.787,-1.75 1.75,-1.75 0.962,0 1.75,0.787 1.75,1.75 v 11.333 c 0,0.963 -0.788,1.75 -1.75,1.75 -0.962,0 -1.75,-0.787 -1.75,-1.75 z"
     id="path83"
     inkscape:connector-curvature="0"
     style="fill:#313131" />
  <path
     d="m 37.825,124.66856 v -11.25 a 4.638,4.638 0 0 1 4.625,-4.625 4.638,4.638 0 0 1 4.625,4.625 v 11.25 a 4.638,4.638 0 0 1 -4.625,4.625 4.639,4.639 0 0 1 -4.625,-4.625 z"
     id="path85"
     inkscape:connector-curvature="0"
     style="fill:#0e0e0e" />
  <path
     d="m 39.041,124.75656 v -11.426 a 3.419,3.419 0 0 1 3.409,-3.409 3.419,3.419 0 0 1 3.409,3.409 v 11.426 a 3.419,3.419 0 0 1 -3.409,3.409 3.419,3.419 0 0 1 -3.409,-3.409 z"
     id="path87"
     inkscape:connector-curvature="0"
     style="fill:#212121" />
  <path
     d="m 40.7,124.71056 v -11.333 c 0,-0.963 0.787,-1.75 1.75,-1.75 0.962,0 1.75,0.787 1.75,1.75 v 11.333 c 0,0.963 -0.788,1.75 -1.75,1.75 -0.962,0 -1.75,-0.788 -1.75,-1.75 z"
     id="path89"
     inkscape:connector-curvature="0"
     style="fill:#313131" />
  <path
     d="m 37.825,155.27156 v -11.25 a 4.638,4.638 0 0 1 4.625,-4.625 4.638,4.638 0 0 1 4.625,4.625 v 11.25 a 4.638,4.638 0 0 1 -4.625,4.625 4.64,4.64 0 0 1 -4.625,-4.625 z"
     id="path91"
     inkscape:connector-curvature="0"
     style="fill:#0e0e0e" />
  <path
     d="m 39.041,155.35956 v -11.426 a 3.419,3.419 0 0 1 3.409,-3.409 3.419,3.419 0 0 1 3.409,3.409 v 11.426 a 3.419,3.419 0 0 1 -3.409,3.409 3.419,3.419 0 0 1 -3.409,-3.409 z"
     id="path93"
     inkscape:connector-curvature="0"
     style="fill:#212121" />
  <path
     d="m 40.7,155.31256 v -11.333 c 0,-0.963 0.787,-1.75 1.75,-1.75 0.962,0 1.75,0.787 1.75,1.75 v 11.333 c 0,0.962 -0.788,1.75 -1.75,1.75 -0.962,0 -1.75,-0.787 -1.75,-1.75 z"
     id="path95"
     inkscape:connector-curvature="0"
     style="fill:#313131" />
  <path
     d="m 18.325,95.771562 v -11.25 a 4.638,4.638 0 0 1 4.625,-4.625 4.638,4.638 0 0 1 4.625,4.625 v 11.25 a 4.638,4.638 0 0 1 -4.625,4.624998 4.64,4.64 0 0 1 -4.625,-4.624998 z"
     id="path97"
     inkscape:connector-curvature="0"
     style="fill:#0e0e0e" />
  <path
     d="m 19.541,95.859562 v -11.426 a 3.419,3.419 0 0 1 3.409,-3.409 3.419,3.419 0 0 1 3.409,3.409 v 11.426 a 3.419,3.419 0 0 1 -3.409,3.409 3.419,3.419 0 0 1 -3.409,-3.409 z"
     id="path99"
     inkscape:connector-curvature="0"
     style="fill:#212121" />
  <path
     d="m 21.2,95.812562 v -11.333 c 0,-0.963 0.788,-1.75 1.75,-1.75 0.962,0 1.75,0.787 1.75,1.75 v 11.333 c 0,0.963 -0.787,1.75 -1.75,1.75 -0.962,0 -1.75,-0.787 -1.75,-1.75 z"
     id="path101"
     inkscape:connector-curvature="0"
     style="fill:#313131" />
  <path
     d="m 18.325,124.66856 v -11.25 a 4.638,4.638 0 0 1 4.625,-4.625 4.638,4.638 0 0 1 4.625,4.625 v 11.25 a 4.638,4.638 0 0 1 -4.625,4.625 4.639,4.639 0 0 1 -4.625,-4.625 z"
     id="path103"
     inkscape:connector-curvature="0"
     style="fill:#0e0e0e" />
  <path
     d="m 19.541,124.75656 v -11.426 a 3.419,3.419 0 0 1 3.409,-3.409 3.419,3.419 0 0 1 3.409,3.409 v 11.426 a 3.419,3.419 0 0 1 -3.409,3.409 3.419,3.419 0 0 1 -3.409,-3.409 z"
     id="path105"
     inkscape:connector-curvature="0"
     style="fill:#212121" />
  <path
     d="m 21.2,124.71056 v -11.333 c 0,-0.963 0.788,-1.75 1.75,-1.75 0.962,0 1.75,0.787 1.75,1.75 v 11.333 c 0,0.963 -0.787,1.75 -1.75,1.75 -0.962,0 -1.75,-0.788 -1.75,-1.75 z"
     id="path107"
     inkscape:connector-curvature="0"
     style="fill:#313131" />
  <path
     d="m 18.325,155.27156 v -11.25 a 4.638,4.638 0 0 1 4.625,-4.625 4.638,4.638 0 0 1 4.625,4.625 v 11.25 a 4.638,4.638 0 0 1 -4.625,4.625 4.64,4.64 0 0 1 -4.625,-4.625 z"
     id="path109"
     inkscape:connector-curvature="0"
     style="fill:#0e0e0e" />
  <path
     d="m 19.541,155.35956 v -11.426 a 3.419,3.419 0 0 1 3.409,-3.409 3.419,3.419 0 0 1 3.409,3.409 v 11.426 a 3.419,3.419 0 0 1 -3.409,3.409 3.419,3.419 0 0 1 -3.409,-3.409 z"
     id="path111"
     inkscape:connector-curvature="0"
     style="fill:#212121" />
  <path
     d="m 21.2,155.31256 v -11.333 c 0,-0.963 0.788,-1.75 1.75,-1.75 0.962,0 1.75,0.787 1.75,1.75 v 11.333 c 0,0.962 -0.787,1.75 -1.75,1.75 -0.962,0 -1.75,-0.787 -1.75,-1.75 z"
     id="path113"
     inkscape:connector-curvature="0"
     style="fill:#313131" />
  <path
     d="m 114.834,167.49456 5.314,4.044 a 2.78,2.78 0 0 0 4.142,-0.838 l 6.724,-11.971 c 0.969,-1.739 1.516,-4.425 -0.063,-5.637 l -11.202,-8.597 c -2.64,-2.026 -6.457,-0.144 -6.457,3.184 v 16.653 c 0,1.234 0.569,2.401 1.542,3.162 z m 25.912,-6.725 5.761,5.681 c 2.63,2.365 2.856,5.196 1.274,8.36 l -4.202,8.405 c -1.536,3.073 -5.129,4.242 -7.564,1.819 l -4.658,-4.636 c -1.944,-1.935 -2.355,-5.43 -1.09,-7.864 l 5.903,-10.934 a 2.94,2.94 0 0 1 4.576,-0.831 z m 11.299,17.594 -5.733,11.036 c -1.217,2.343 -0.864,4.693 0.889,6.668 l 5.237,5.902 c 1.886,2.125 5.321,1.674 6.594,-0.866 l 4.588,-9.441 c 1.478,-2.949 1.136,-5.987 -1.069,-8.439 l -5.001,-5.56 c -1.576,-1.754 -4.418,-1.392 -5.505,0.7 z"
     stroke-miterlimit="10"
     id="path115"
     inkscape:connector-curvature="0"
     style="fill:none;stroke:#030405;stroke-miterlimit:10" />
  <path
     d="m 114.834,167.40056 5.814,4.544 a 2.78,2.78 0 0 0 4.142,-0.838 l 7.224,-12.971 a 4.013,4.013 0 0 0 -1.063,-5.137 l -11.202,-8.597 c -2.64,-2.026 -6.457,-0.144 -6.457,3.184 v 16.653 c 0,1.235 0.569,2.401 1.542,3.162 z m 25.912,-6.724 5.761,5.181 a 7.86,7.86 0 0 1 1.774,9.36 l -4.202,8.405 c -1.536,3.073 -5.629,3.742 -8.064,1.319 l -4.658,-4.636 a 6.275,6.275 0 0 1 -1.141,-7.342 l 5.955,-11.456 a 2.94,2.94 0 0 1 4.575,-0.831 z m 11.299,17.593 -5.733,11.036 a 6.372,6.372 0 0 0 0.889,7.168 l 5.237,5.902 c 1.886,2.125 5.321,1.674 6.594,-0.866 l 4.725,-9.426 a 8.018,8.018 0 0 0 -1.206,-8.955 l -5.001,-5.56 c -1.576,-1.753 -4.418,-1.391 -5.505,0.701 z"
     id="path117"
     inkscape:connector-curvature="0"
     style="fill:#bf181a" />
  <linearGradient
     id="b"
     gradientUnits="userSpaceOnUse"
     x1="149.224"
     y1="105.202"
     x2="154.427"
     y2="112.718"
     gradientTransform="rotate(90,109.93872,119.02828)">
    <stop
       offset="0"
       stop-color="#cb2626"
       id="stop119" />
    <stop
       offset=".197"
       stop-color="#ce292b"
       id="stop121" />
    <stop
       offset=".434"
       stop-color="#d7333a"
       id="stop123" />
    <stop
       offset=".691"
       stop-color="#e64452"
       id="stop125" />
    <stop
       offset=".961"
       stop-color="#fc5a73"
       id="stop127" />
    <stop
       offset="1"
       stop-color="#ff5e79"
       id="stop129" />
  </linearGradient>
  <ellipse
     cx="123.333"
     cy="158.61156"
     rx="6.4580002"
     ry="8"
     id="ellipse132"
     style="fill:url(#b)" />
  <linearGradient
     id="c"
     gradientUnits="userSpaceOnUse"
     x1="163.942"
     y1="87.108002"
     x2="170.03101"
     y2="94.158997"
     gradientTransform="rotate(90,109.93872,119.02828)">
    <stop
       offset="0"
       stop-color="#cb2626"
       id="stop134" />
    <stop
       offset=".197"
       stop-color="#ce292b"
       id="stop136" />
    <stop
       offset=".434"
       stop-color="#d7333a"
       id="stop138" />
    <stop
       offset=".691"
       stop-color="#e64452"
       id="stop140" />
    <stop
       offset=".961"
       stop-color="#fc5a73"
       id="stop142" />
    <stop
       offset="1"
       stop-color="#ff5e79"
       id="stop144" />
  </linearGradient>
  <ellipse
     cx="141.235"
     cy="173.57057"
     rx="6.276"
     ry="7.9580002"
     id="ellipse147"
     style="fill:url(#c)" />
  <linearGradient
     id="d"
     gradientUnits="userSpaceOnUse"
     x1="180.112"
     y1="70.917999"
     x2="184.881"
     y2="80.089996"
     gradientTransform="rotate(90,109.93872,119.02828)">
    <stop
       offset="0"
       stop-color="#cb2626"
       id="stop149" />
    <stop
       offset=".197"
       stop-color="#ce292b"
       id="stop151" />
    <stop
       offset=".434"
       stop-color="#d7333a"
       id="stop153" />
    <stop
       offset=".691"
       stop-color="#e64452"
       id="stop155" />
    <stop
       offset=".961"
       stop-color="#fc5a73"
       id="stop157" />
    <stop
       offset="1"
       stop-color="#ff5e79"
       id="stop159" />
  </linearGradient>
  <ellipse
     cx="156.45799"
     cy="190.02856"
     rx="6.0830002"
     ry="8.0830002"
     id="ellipse162"
     style="fill:url(#d)" />
  <ellipse
     cx="140.42101"
     cy="59.846561"
     rx="23.412001"
     ry="28.294001"
     id="ellipse164"
     style="fill:#262626" />
  <ellipse
     cx="140.854"
     cy="59.69556"
     rx="22.979"
     ry="27.667"
     id="ellipse166"
     style="fill:#3b3d3f" />
  <ellipse
     cx="141.429"
     cy="59.69556"
     rx="16.172001"
     ry="19.5"
     id="ellipse168"
     style="fill:#030301" />
  <ellipse
     cx="141.76401"
     cy="59.361561"
     rx="15.513"
     ry="18.5"
     id="ellipse170"
     style="fill:#242424" />
  <linearGradient
     id="e"
     gradientUnits="userSpaceOnUse"
     x1="28.021999"
     y1="89.967003"
     x2="28.021999"
     y2="85.633003"
     gradientTransform="rotate(90,109.93872,119.02828)">
    <stop
       offset="0"
       stop-color="#262626"
       id="stop172" />
    <stop
       offset="1"
       stop-color="#1f2326"
       id="stop174" />
  </linearGradient>
  <ellipse
     cx="140.875"
     cy="37.111561"
     rx="1.8329999"
     ry="2.1670001"
     id="ellipse177"
     style="fill:url(#e)" />
  <ellipse
     cx="140.91901"
     cy="37.13456"
     rx="1.225"
     ry="1.6339999"
     id="ellipse179"
     style="fill:#151515" />
  <linearGradient
     id="f"
     gradientUnits="userSpaceOnUse"
     x1="73.427002"
     y1="89.787003"
     x2="73.427002"
     y2="85.454002"
     gradientTransform="rotate(90,109.93872,119.02828)">
    <stop
       offset="0"
       stop-color="#262626"
       id="stop181" />
    <stop
       offset="1"
       stop-color="#2a2e33"
       id="stop183" />
  </linearGradient>
  <ellipse
     cx="141.429"
     cy="82.516563"
     rx="1.8329999"
     ry="2.1670001"
     id="ellipse186"
     style="fill:url(#f)" />
  <ellipse
     cx="141.474"
     cy="82.539566"
     rx="1.225"
     ry="1.6339999"
     id="ellipse188"
     style="fill:#151515" />
  <linearGradient
     id="g"
     gradientUnits="userSpaceOnUse"
     x1="50.605"
     y1="108.328"
     x2="50.605"
     y2="103.994"
     gradientTransform="rotate(90,109.93872,119.02828)">
    <stop
       offset="0"
       stop-color="#262626"
       id="stop190" />
    <stop
       offset="1"
       stop-color="#2a2e33"
       id="stop192" />
  </linearGradient>
  <ellipse
     cx="122.431"
     cy="59.69556"
     rx="2.0220001"
     ry="2.1670001"
     id="ellipse195"
     style="fill:url(#g)" />
  <ellipse
     cx="122.48"
     cy="59.71756"
     rx="1.351"
     ry="1.6339999"
     id="ellipse197"
     style="fill:#212121" />
  <linearGradient
     id="h"
     gradientUnits="userSpaceOnUse"
     x1="50.882999"
     y1="71.054001"
     x2="50.882999"
     y2="67.276001"
     gradientTransform="rotate(90,109.93872,119.02828)">
    <stop
       offset="0"
       stop-color="#262626"
       id="stop199" />
    <stop
       offset="1"
       stop-color="#2a2e33"
       id="stop201" />
  </linearGradient>
  <ellipse
     cx="159.91299"
     cy="59.972561"
     rx="1.598"
     ry="1.8890001"
     id="ellipse204"
     style="fill:url(#h)" />
  <ellipse
     cx="159.951"
     cy="59.992561"
     rx="1.068"
     ry="1.424"
     id="ellipse206"
     style="fill:#151515" />
  <ellipse
     cx="153.612"
     cy="44.22456"
     rx="0.76899999"
     ry="0.93800002"
     id="ellipse208"
     style="fill:#151515" />
  <ellipse
     cx="127.75"
     cy="43.72456"
     rx="0.76899999"
     ry="0.93800002"
     id="ellipse210"
     style="fill:#212121" />
  <ellipse
     cx="127.75"
     cy="75.700562"
     rx="0.76899999"
     ry="0.93800002"
     id="ellipse212"
     style="fill:#212121" />
  <ellipse
     cx="153.705"
     cy="75.587563"
     rx="0.676"
     ry="0.824"
     id="ellipse214"
     style="fill:#151515" />
  <path
     d="m 155.016,52.735562 -4.582,0.236 a 1.171,1.171 0 0 1 -1.225,-1.17 v -7.793 c 0,-0.464 -0.271,-0.888 -0.697,-1.071 -0.391,-0.168 -2.52,-0.915 -4.8,-1.111 -2.68,-0.231 -5.57,0.608 -6.093,0.727 -0.534,0.121 -0.91,0.594 -0.91,1.142 v 6.819 c 0,0.682 -0.581,1.22 -1.261,1.168 l -5.614,-0.009 c -0.5,-0.038 -0.968,0.242 -1.166,0.703 -0.444,1.039 -1.627,4.105 -1.627,6.986 0,2.881 0.683,5.946 1.127,6.986 0.197,0.461 0.665,0.742 1.166,0.703 l 6.114,-0.009 c 0.68,-0.052 1.261,0.985 1.261,1.668 v 6.319 c 0,0.547 0.376,1.021 0.91,1.142 0.518,0.117 3.351,0.604 6.006,0.51 2.312,-0.082 4.49,-0.724 4.886,-0.895 0.426,-0.184 0.697,-0.607 0.697,-1.071 v -7.793 c 0,-0.668 0.558,-1.201 1.225,-1.17 l 4.582,0.236 a 1.168,1.168 0 0 0 1.172,-0.819 c 0.293,-0.94 0.687,-3.612 0.687,-5.808 0,-2.196 -0.394,-4.867 -0.687,-5.808 a 1.167,1.167 0 0 0 -1.171,-0.818 z"
     id="path216"
     inkscape:connector-curvature="0"
     style="fill:#151515" />
  <path
     d="m 165.295,164.11156 c 0.087,1.219 0.642,3.904 1.97,4.841 2.039,1.438 7.925,0.791 8.735,0.284 1.455,-0.913 2.125,-2.625 3.625,-10.375 1.5,-7.75 1.875,-39.833 1.875,-39.833 0,0 -0.375,-32.082998 -1.875,-39.832998 -1.5,-7.75 -2.17,-9.462 -3.625,-10.375 -0.809,-0.508 -6.696,-1.155 -8.735,0.284 -1.328,0.937 -1.883,3.622 -1.97,4.841 -0.25,3.5 -0.25,86.665998 0,90.165998 z m -9.232,-10.5 c 0.326,1.06 5.762,7.535 7.79,9.553 0.28,0.279 0.755,0.078 0.755,-0.317 V 75.209562 a 0.443,0.443 0 0 0 -0.755,-0.317 c -2.028,2.017 -7.464,8.493 -7.79,9.553 -0.5,1.625 -0.5,67.540998 0,69.165998 z m -14.66,-34.588 c 0.288,8.656 3.625,16.995 5.242,20.558 0.159,0.351 0.867,0.264 0.867,-0.106 V 98.571562 c 0,-0.369 -0.708,-0.456 -0.867,-0.106 -1.617,3.562998 -4.955,11.901998 -5.242,20.557998 z"
     id="path218"
     inkscape:connector-curvature="0"
     style="fill:#282828" />
  <linearGradient
     id="i"
     gradientUnits="userSpaceOnUse"
     x1="109.939"
     y1="60.528999"
     x2="109.939"
     y2="47.775002"
     gradientTransform="rotate(90,109.93872,119.02828)">
    <stop
       offset="0"
       stop-color="#454649"
       id="stop220" />
    <stop
       offset=".781"
       stop-color="#2a2e33"
       id="stop222" />
    <stop
       offset="1"
       stop-color="#44474d"
       id="stop224" />
  </linearGradient>
  <path
     d="m 168,164.11156 c 0.087,1.219 0.642,3.904 1.97,4.841 2.039,1.438 5.221,0.791 6.03,0.284 1.455,-0.913 2.125,-2.625 3.625,-10.375 1.5,-7.75 1.875,-39.833 1.875,-39.833 0,0 -0.375,-32.082998 -1.875,-39.832998 -1.5,-7.75 -2.17,-9.462 -3.625,-10.375 -0.809,-0.508 -3.991,-1.155 -6.03,0.284 -1.328,0.937 -1.883,3.622 -1.97,4.841 -0.25,3.5 -0.25,86.665998 0,90.165998 z"
     id="path227"
     inkscape:connector-curvature="0"
     style="fill:url(#i)" />
  <linearGradient
     id="j"
     gradientUnits="userSpaceOnUse"
     x1="109.939"
     y1="70.762001"
     x2="109.939"
     y2="63.584"
     gradientTransform="rotate(90,109.93872,119.02828)">
    <stop
       offset="0"
       stop-color="#454649"
       id="stop229" />
    <stop
       offset="1"
       stop-color="#2a2e33"
       id="stop231" />
  </linearGradient>
  <path
     d="m 158.875,153.61156 c 0.401,1.305 3.853,6.476 5.199,8.465 0.162,0.239 0.534,0.123 0.534,-0.165 V 76.144562 c 0,-0.288 -0.372,-0.404 -0.534,-0.165 -1.346,1.989 -4.798,7.161 -5.199,8.465 -0.5,1.626 -0.5,67.541998 0,69.166998 z"
     id="path234"
     inkscape:connector-curvature="0"
     style="fill:url(#j)" />
  <linearGradient
     id="k"
     gradientUnits="userSpaceOnUse"
     x1="109.939"
     y1="85.830002"
     x2="109.939"
     y2="79.251999"
     gradientTransform="rotate(90,109.93872,119.02828)">
    <stop
       offset="0"
       stop-color="#454649"
       id="stop236" />
    <stop
       offset="1"
       stop-color="#2a2e33"
       id="stop238" />
  </linearGradient>
  <path
     d="m 143.5,119.02856 c 0.189,7.773 2.381,15.261 3.442,18.46 0.104,0.315 0.569,0.237 0.569,-0.095 v -36.731 c 0,-0.332 -0.465,-0.41 -0.569,-0.095 -1.061,3.2 -3.253,10.688 -3.442,18.461 z"
     id="path241"
     inkscape:connector-curvature="0"
     style="fill:url(#k)" />
  <linearGradient
     id="l"
     gradientUnits="userSpaceOnUse"
     x1="56.972"
     y1="74.938004"
     x2="50.472"
     y2="85.438004"
     gradientTransform="rotate(90,109.93872,119.02828)">
    <stop
       offset="0"
       stop-color="#454649"
       id="stop243" />
    <stop
       offset="1"
       stop-color="#2a2e33"
       id="stop245" />
  </linearGradient>
  <path
     d="m 155.016,53.735562 -5.082,0.236 a 1.171,1.171 0 0 1 -1.225,-1.17 v -8.293 c 0,-0.464 -0.271,-0.888 -0.697,-1.071 a 11.26,11.26 0 0 0 -4.39,-0.897 c -1.884,0 -3.534,0.294 -4.502,0.513 -0.534,0.121 -0.91,0.594 -0.91,1.142 v 7.819 c 0,0.682 -0.581,1.22 -1.261,1.168 l -6.614,-0.509 c -0.5,-0.038 -0.968,0.242 -1.166,0.703 -0.444,1.039 -1.127,3.105 -1.127,5.986 0,2.881 0.683,4.946 1.127,5.986 0.197,0.461 0.665,0.742 1.166,0.703 l 6.614,-0.509 a 1.171,1.171 0 0 1 1.261,1.168 v 7.819 c 0,0.547 0.376,1.021 0.91,1.142 0.968,0.219 2.618,0.513 4.502,0.513 1.967,0 3.539,-0.531 4.39,-0.897 0.426,-0.184 0.697,-0.607 0.697,-1.071 v -8.293 c 0,-0.668 0.558,-1.201 1.225,-1.17 l 5.082,0.236 a 1.168,1.168 0 0 0 1.172,-0.819 c 0.293,-0.94 0.687,-2.612 0.687,-4.808 0,-2.196 -0.394,-3.867 -0.687,-4.808 a 1.168,1.168 0 0 0 -1.172,-0.819 z"
     id="path248"
     inkscape:connector-curvature="0"
     style="fill:url(#l)" />
  <path
     d="m 148.421,140.00656 c 0.018,2.392 0.761,4.226 0.87,4.483 0.01,0.023 0.021,0.04 0.038,0.061 l 5.003,6.196 c 0.214,0.265 0.769,0.154 0.769,-0.153 V 87.463562 c 0,-0.307 -0.556,-0.418 -0.769,-0.153 l -5.003,6.196 a 0.259,0.259 0 0 0 -0.038,0.061 c -0.109,0.257 -0.852,2.091 -0.87,4.483 -0.02,2.707998 -0.02,39.247998 0,41.955998 z"
     id="path250"
     inkscape:connector-curvature="0"
     style="fill:#282828" />
  <linearGradient
     id="m"
     gradientUnits="userSpaceOnUse"
     x1="109.939"
     y1="79.625999"
     x2="109.939"
     y2="73.445999"
     gradientTransform="rotate(90,109.93872,119.02828)">
    <stop
       offset="0"
       stop-color="#454649"
       id="stop252" />
    <stop
       offset="1"
       stop-color="#2a2e33"
       id="stop254" />
  </linearGradient>
  <path
     d="m 150.375,139.36156 c 0.012,2.319 0.538,4.096 0.616,4.345 a 0.262,0.262 0 0 0 0.027,0.059 l 3.54,6.006 c 0.151,0.257 0.544,0.149 0.544,-0.148 V 88.433562 c 0,-0.298 -0.393,-0.405 -0.544,-0.148 l -3.54,6.006 a 0.262,0.262 0 0 0 -0.027,0.059 c -0.077,0.249 -0.603,2.026 -0.616,4.345 -0.014,2.624998 -0.014,38.040998 0,40.665998 z"
     id="path257"
     inkscape:connector-curvature="0"
     style="fill:url(#m)" />
  <g
     id="g283"
     style="fill:#5b5b5b"
     transform="translate(0,5.6248668e-4)">
    <circle
       cx="89.5"
       cy="119.217"
       r="2.9579999"
       id="circle259" />
    <circle
       cx="89.5"
       cy="149.82001"
       r="2.9579999"
       id="circle261" />
    <circle
       cx="70"
       cy="90.32"
       r="2.9579999"
       id="circle263" />
    <circle
       cx="70"
       cy="119.217"
       r="2.9579999"
       id="circle265" />
    <circle
       cx="70"
       cy="149.82001"
       r="2.9579999"
       id="circle267" />
    <circle
       cx="50.5"
       cy="90.32"
       r="2.9579999"
       id="circle269" />
    <circle
       cx="50.5"
       cy="119.217"
       r="2.9579999"
       id="circle271" />
    <circle
       cx="50.5"
       cy="149.82001"
       r="2.9579999"
       id="circle273" />
    <circle
       cx="31"
       cy="90.32"
       r="2.9579999"
       id="circle275" />
    <circle
       cx="31"
       cy="119.217"
       r="2.9579999"
       id="circle277" />
    <circle
       cx="31"
       cy="149.82001"
       r="2.9579999"
       id="circle279" />
    <circle
       cx="89.5"
       cy="90.32"
       r="2.9579999"
       id="circle281" />
  </g>
  <g
     id="g307"
     transform="translate(0,5.6248668e-4)">
    <g
       id="g287"
       style="fill:#cccec6">
      <path
         d="m 122.833,113.006 c 0.233,-0.322 0.473,-0.552 0.719,-0.689 0.246,-0.139 0.483,-0.204 0.71,-0.194 0.227,0.01 0.449,0.095 0.668,0.253 0.316,0.23 0.486,0.537 0.509,0.924 0.023,0.387 -0.127,0.803 -0.452,1.249 -0.328,0.45 -0.689,0.727 -1.085,0.827 -0.348,0.089 -0.681,0.019 -0.998,-0.213 -0.32,-0.232 -0.492,-0.526 -0.516,-0.883 -0.025,-0.407 0.123,-0.832 0.445,-1.274 z m 0.473,0.316 c -0.226,0.31 -0.336,0.586 -0.331,0.826 0.005,0.24 0.095,0.424 0.269,0.551 0.175,0.128 0.376,0.156 0.604,0.087 0.228,-0.07 0.457,-0.265 0.688,-0.583 0.228,-0.313 0.339,-0.584 0.336,-0.816 -0.004,-0.23 -0.096,-0.412 -0.278,-0.544 -0.182,-0.132 -0.385,-0.164 -0.609,-0.096 -0.223,0.067 -0.449,0.258 -0.679,0.575 z m 1.051,2.827 1.96,-2.694 0.717,0.521 c 0.268,0.194 0.433,0.334 0.496,0.421 a 0.723,0.723 0 0 1 0.131,0.501 c -0.014,0.198 -0.099,0.404 -0.255,0.619 a 1.23,1.23 0 0 1 -0.467,0.409 0.794,0.794 0 0 1 -0.478,0.078 c -0.149,-0.027 -0.358,-0.14 -0.628,-0.336 l -0.292,-0.212 -0.739,1.017 z m 2.074,-1.914 -0.559,0.767 0.247,0.18 c 0.166,0.12 0.287,0.19 0.364,0.209 0.076,0.021 0.156,0.014 0.238,-0.019 0.082,-0.033 0.156,-0.094 0.22,-0.183 a 0.511,0.511 0 0 0 0.106,-0.27 0.358,0.358 0 0 0 -0.056,-0.229 c -0.042,-0.063 -0.157,-0.162 -0.344,-0.298 z m 0.483,3.774 1.629,-2.238 -0.656,-0.478 0.331,-0.456 1.755,1.277 -0.331,0.456 -0.654,-0.477 -1.629,2.238 z m 1.375,1 1.96,-2.694 0.445,0.323 -1.96,2.694 z m 1.75,-0.761 c 0.233,-0.322 0.473,-0.552 0.719,-0.689 0.246,-0.139 0.483,-0.204 0.71,-0.194 0.227,0.01 0.45,0.095 0.668,0.253 0.316,0.23 0.486,0.537 0.51,0.924 0.024,0.387 -0.127,0.803 -0.452,1.249 -0.328,0.45 -0.689,0.727 -1.084,0.827 -0.349,0.089 -0.681,0.019 -0.999,-0.212 -0.32,-0.233 -0.492,-0.527 -0.516,-0.884 -0.027,-0.408 0.121,-0.833 0.444,-1.274 z m 0.472,0.315 c -0.226,0.31 -0.336,0.586 -0.331,0.826 0.005,0.241 0.095,0.424 0.27,0.551 0.175,0.128 0.376,0.156 0.604,0.087 0.228,-0.07 0.458,-0.265 0.689,-0.583 0.228,-0.313 0.339,-0.584 0.336,-0.815 a 0.652,0.652 0 0 0 -0.278,-0.545 0.659,0.659 0 0 0 -0.609,-0.096 c -0.225,0.067 -0.451,0.259 -0.681,0.575 z m 1.057,2.832 1.96,-2.694 0.434,0.315 -0.404,2.456 1.309,-1.799 0.416,0.303 -1.96,2.694 -0.449,-0.326 0.389,-2.404 -1.278,1.757 z"
         id="path285"
         inkscape:connector-curvature="0" />
    </g>
    <g
       id="g291"
       style="fill:#cccec6">
      <path
         d="m 122.698,97.031 2.077,-2.605 0.693,0.553 c 0.258,0.206 0.417,0.354 0.477,0.442 0.095,0.14 0.131,0.311 0.109,0.507 -0.023,0.197 -0.116,0.399 -0.282,0.607 -0.15,0.188 -0.312,0.317 -0.485,0.389 a 0.8,0.8 0 0 1 -0.48,0.056 c -0.147,-0.034 -0.352,-0.154 -0.612,-0.362 l -0.283,-0.225 -0.784,0.982 z m 2.156,-1.82 -0.591,0.741 0.239,0.19 c 0.16,0.127 0.279,0.202 0.354,0.226 0.075,0.024 0.156,0.021 0.239,-0.01 a 0.5,0.5 0 0 0 0.228,-0.172 0.505,0.505 0 0 0 0.117,-0.264 0.354,0.354 0 0 0 -0.045,-0.231 c -0.04,-0.065 -0.15,-0.169 -0.33,-0.313 z m 1.544,4.771 -0.467,-0.373 0.283,-0.739 -0.855,-0.682 -0.647,0.448 -0.458,-0.365 2.909,-1.942 0.457,0.364 z m 0.028,-1.663 0.476,-1.202 -1.061,0.735 z m 2.271,-0.766 0.43,0.343 -1.125,1.411 c -0.175,0.22 -0.283,0.366 -0.326,0.441 a 0.56,0.56 0 0 0 -0.076,0.376 0.53,0.53 0 0 0 0.209,0.319 c 0.1,0.08 0.199,0.122 0.297,0.129 a 0.428,0.428 0 0 0 0.277,-0.082 c 0.086,-0.061 0.232,-0.221 0.439,-0.48 l 1.149,-1.441 0.43,0.344 -1.091,1.368 c -0.278,0.351 -0.499,0.587 -0.66,0.714 -0.162,0.125 -0.346,0.185 -0.554,0.177 -0.208,-0.008 -0.419,-0.098 -0.634,-0.269 -0.223,-0.178 -0.365,-0.355 -0.426,-0.535 -0.061,-0.18 -0.063,-0.364 -0.003,-0.555 0.06,-0.189 0.245,-0.48 0.556,-0.87 z m 0.65,3.39 0.46,0.286 c -0.218,0.371 -0.196,0.661 0.067,0.87 0.13,0.104 0.26,0.152 0.389,0.144 a 0.422,0.422 0 0 0 0.396,-0.346 0.379,0.379 0 0 0 -0.038,-0.197 4.723,4.723 0 0 0 -0.281,-0.443 c -0.139,-0.202 -0.225,-0.369 -0.259,-0.502 a 0.886,0.886 0 0 1 0.001,-0.419 c 0.034,-0.146 0.1,-0.28 0.197,-0.402 a 0.971,0.971 0 0 1 0.402,-0.306 0.818,0.818 0 0 1 0.473,-0.045 c 0.16,0.033 0.324,0.116 0.491,0.249 0.251,0.2 0.394,0.426 0.426,0.674 0.032,0.249 -0.049,0.503 -0.242,0.764 l -0.45,-0.322 c 0.092,-0.155 0.129,-0.285 0.111,-0.391 a 0.495,0.495 0 0 0 -0.202,-0.297 0.553,0.553 0 0 0 -0.327,-0.142 0.277,0.277 0 0 0 -0.238,0.105 c -0.057,0.071 -0.075,0.153 -0.057,0.246 0.019,0.094 0.107,0.252 0.266,0.474 0.167,0.236 0.271,0.427 0.312,0.573 a 0.857,0.857 0 0 1 0.008,0.444 c -0.037,0.15 -0.117,0.304 -0.242,0.46 a 1.04,1.04 0 0 1 -0.664,0.403 c -0.262,0.043 -0.541,-0.054 -0.837,-0.29 -0.525,-0.416 -0.579,-0.946 -0.162,-1.59 z m 1.423,2.524 2.077,-2.605 1.585,1.265 -0.352,0.441 -1.155,-0.922 -0.46,0.578 1.073,0.855 -0.35,0.438 -1.074,-0.856 -0.564,0.709 1.194,0.952 -0.351,0.44 z"
         id="path289"
         inkscape:connector-curvature="0" />
    </g>
    <path
       d="m 89.714,89.292 0.813,0.139 c 0.343,0.646 0.742,1.146 1.197,1.497 v 0.452 l -4.682,-0.805 v -0.75 l 3.225,0.556 c -0.121,-0.152 -0.231,-0.331 -0.333,-0.535 -0.102,-0.204 -0.175,-0.389 -0.22,-0.554 z m 0.53,29.658 0.134,-0.733 c 0.444,0.063 0.777,0.204 1.001,0.422 0.223,0.219 0.335,0.486 0.335,0.804 0,0.343 -0.113,0.618 -0.34,0.828 -0.227,0.21 -0.53,0.314 -0.911,0.314 -0.296,0 -0.585,-0.077 -0.866,-0.231 -0.207,-0.115 -0.511,-0.348 -0.911,-0.699 -0.359,-0.319 -0.63,-0.537 -0.813,-0.653 v 1.323 l -0.831,-0.143 v -2.316 c 0.345,0.037 0.674,0.147 0.987,0.33 0.211,0.122 0.578,0.409 1.101,0.859 0.381,0.328 0.646,0.538 0.794,0.629 0.198,0.118 0.381,0.178 0.546,0.178 0.165,0 0.294,-0.039 0.389,-0.116 a 0.355,0.355 0 0 0 0.142,-0.284 C 91,119.201 90.748,119.03 90.244,118.95 Z m -1.986,29.486 0.104,0.714 c -0.248,0.029 -0.419,0.083 -0.515,0.161 a 0.386,0.386 0 0 0 -0.143,0.312 c 0,0.163 0.068,0.302 0.205,0.416 0.136,0.114 0.315,0.171 0.538,0.171 0.2,0 0.354,-0.047 0.461,-0.141 a 0.459,0.459 0 0 0 0.161,-0.363 0.654,0.654 0 0 0 -0.013,-0.118 l 0.758,0.13 -0.006,0.076 c 0,0.195 0.06,0.346 0.179,0.451 0.12,0.105 0.29,0.158 0.51,0.158 0.154,0 0.274,-0.035 0.358,-0.107 a 0.338,0.338 0 0 0 0.127,-0.271 c 0,-0.234 -0.212,-0.397 -0.638,-0.49 l 0.165,-0.683 c 0.368,0.094 0.646,0.228 0.835,0.403 0.245,0.229 0.368,0.504 0.368,0.825 a 0.987,0.987 0 0 1 -0.329,0.772 c -0.219,0.198 -0.514,0.297 -0.884,0.297 -0.249,0 -0.471,-0.06 -0.663,-0.179 a 1.055,1.055 0 0 1 -0.419,-0.475 0.998,0.998 0 0 1 -0.386,0.349 1.147,1.147 0 0 1 -0.538,0.124 c -0.366,0 -0.699,-0.113 -0.999,-0.34 -0.355,-0.269 -0.533,-0.607 -0.533,-1.016 0,-0.313 0.109,-0.575 0.328,-0.787 0.222,-0.21 0.543,-0.341 0.969,-0.389 z M 68.491,90.308 v -1.499 l 0.762,0.13 2.941,2.066 v 0.642 l -2.929,-0.502 v 0.463 l -0.774,-0.133 v -0.463 l -0.949,-0.163 v -0.704 z m 0.775,0.133 1.45,0.25 -1.45,-1.006 z m -0.391,27.442 0.079,0.727 -0.095,-0.003 c -0.218,0 -0.381,0.04 -0.487,0.12 a 0.363,0.363 0 0 0 -0.16,0.301 c 0,0.178 0.103,0.339 0.308,0.484 0.205,0.145 0.491,0.218 0.856,0.218 0.221,0 0.385,-0.041 0.492,-0.123 a 0.38,0.38 0 0 0 0.162,-0.316 0.548,0.548 0 0 0 -0.082,-0.286 0.98,0.98 0 0 0 -0.251,-0.265 l 0.057,-0.615 2.378,0.58 v 1.921 L 71.3,120.483 v -1.268 l -0.718,-0.172 c 0.04,0.072 0.07,0.145 0.091,0.218 a 0.881,0.881 0 0 1 -0.323,0.929 c -0.234,0.19 -0.558,0.286 -0.968,0.286 a 2.32,2.32 0 0 1 -0.997,-0.217 c -0.309,-0.146 -0.54,-0.33 -0.693,-0.555 a 1.225,1.225 0 0 1 -0.229,-0.701 c 0,-0.317 0.126,-0.583 0.378,-0.797 0.251,-0.212 0.596,-0.321 1.034,-0.323 z m 2.184,33.346 -0.069,-0.699 c 0.186,-0.015 0.315,-0.051 0.389,-0.109 a 0.285,0.285 0 0 0 0.109,-0.232 c 0,-0.15 -0.087,-0.282 -0.259,-0.396 -0.173,-0.113 -0.432,-0.207 -0.776,-0.281 a 0.804,0.804 0 0 1 0.193,0.511 c 0,0.29 -0.12,0.532 -0.361,0.726 -0.24,0.193 -0.577,0.29 -1.008,0.29 -0.488,0 -0.913,-0.125 -1.273,-0.376 -0.36,-0.25 -0.54,-0.568 -0.54,-0.953 0,-0.21 0.062,-0.398 0.186,-0.566 0.123,-0.169 0.311,-0.302 0.562,-0.4 0.25,-0.099 0.591,-0.147 1.022,-0.147 0.875,0 1.591,0.157 2.147,0.473 0.556,0.315 0.834,0.708 0.834,1.178 0,0.277 -0.094,0.502 -0.282,0.673 -0.188,0.171 -0.481,0.272 -0.874,0.308 z m -2.147,-1.914 c -0.247,0 -0.429,0.039 -0.544,0.119 -0.115,0.079 -0.172,0.178 -0.172,0.297 0,0.146 0.083,0.271 0.25,0.374 0.222,0.14 0.518,0.21 0.887,0.21 0.243,0 0.422,-0.04 0.537,-0.118 0.115,-0.078 0.173,-0.173 0.173,-0.285 a 0.428,0.428 0 0 0 -0.115,-0.271 c -0.077,-0.092 -0.208,-0.169 -0.392,-0.231 -0.184,-0.062 -0.391,-0.095 -0.624,-0.095 z m -17.247,-60.1 0.842,0.143 v 2.517 L 51.859,91.764 A 3.235,3.235 0 0 0 51.333,91.349 6.938,6.938 0 0 0 50.358,90.812 11.123,11.123 0 0 0 49.095,90.33 c -0.531,-0.16 -0.924,-0.261 -1.178,-0.301 v -0.711 c 0.309,0.042 0.709,0.141 1.199,0.295 0.491,0.154 0.945,0.333 1.363,0.536 0.418,0.203 0.813,0.436 1.186,0.698 z m -1.183,29.471 c 0.107,-0.133 0.231,-0.233 0.371,-0.302 0.139,-0.067 0.295,-0.102 0.469,-0.102 0.23,0 0.446,0.055 0.648,0.164 0.201,0.108 0.355,0.253 0.461,0.432 0.106,0.179 0.158,0.379 0.158,0.602 0,0.323 -0.103,0.585 -0.309,0.783 -0.206,0.199 -0.481,0.299 -0.826,0.299 -0.234,0 -0.438,-0.054 -0.613,-0.161 a 1.21,1.21 0 0 1 -0.43,-0.486 c -0.116,0.156 -0.257,0.273 -0.423,0.351 -0.166,0.078 -0.356,0.116 -0.57,0.116 -0.385,0 -0.727,-0.108 -1.024,-0.323 -0.371,-0.267 -0.556,-0.615 -0.556,-1.046 0,-0.326 0.117,-0.594 0.353,-0.804 0.234,-0.211 0.547,-0.315 0.936,-0.315 0.319,0 0.602,0.072 0.845,0.217 0.242,0.144 0.412,0.336 0.51,0.575 z m -1.372,-0.048 c -0.18,0 -0.318,0.04 -0.414,0.12 a 0.376,0.376 0 0 0 -0.145,0.303 c 0,0.181 0.099,0.325 0.297,0.434 0.197,0.108 0.428,0.163 0.69,0.163 a 0.584,0.584 0 0 0 0.39,-0.123 0.38,0.38 0 0 0 0.146,-0.303 c 0,-0.154 -0.087,-0.291 -0.26,-0.412 -0.172,-0.121 -0.408,-0.182 -0.704,-0.182 z m 2.151,0.33 a 0.53,0.53 0 0 0 -0.356,0.113 0.357,0.357 0 0 0 -0.131,0.281 c 0,0.129 0.061,0.245 0.181,0.349 0.12,0.104 0.266,0.155 0.437,0.155 0.154,0 0.276,-0.037 0.367,-0.112 0.091,-0.075 0.136,-0.17 0.136,-0.284 0,-0.133 -0.06,-0.25 -0.179,-0.351 -0.119,-0.101 -0.272,-0.151 -0.455,-0.151 z m -2.272,29.535 0.07,0.698 c -0.184,0.015 -0.313,0.051 -0.386,0.109 -0.073,0.058 -0.109,0.138 -0.109,0.237 0,0.15 0.086,0.283 0.259,0.396 0.172,0.113 0.43,0.207 0.772,0.281 a 0.82,0.82 0 0 1 -0.19,-0.512 c 0,-0.29 0.12,-0.532 0.36,-0.727 0.24,-0.195 0.576,-0.291 1.008,-0.291 0.482,0 0.905,0.124 1.27,0.372 0.365,0.248 0.546,0.57 0.546,0.969 a 0.919,0.919 0 0 1 -0.183,0.56 c -0.121,0.165 -0.309,0.297 -0.562,0.396 -0.253,0.099 -0.594,0.147 -1.023,0.147 -0.881,0 -1.598,-0.157 -2.152,-0.473 -0.554,-0.316 -0.831,-0.709 -0.831,-1.18 0,-0.279 0.1,-0.508 0.298,-0.686 0.199,-0.176 0.483,-0.276 0.853,-0.296 z m 2.153,1.919 c 0.245,0 0.426,-0.04 0.541,-0.119 0.115,-0.08 0.173,-0.179 0.173,-0.298 0,-0.146 -0.083,-0.272 -0.251,-0.379 -0.222,-0.138 -0.519,-0.207 -0.892,-0.207 -0.241,0 -0.419,0.039 -0.534,0.116 -0.115,0.077 -0.174,0.173 -0.174,0.285 0,0.091 0.04,0.183 0.118,0.275 0.078,0.092 0.209,0.17 0.394,0.232 0.183,0.064 0.392,0.095 0.625,0.095 z m -21.895,-60.694 0.597,-0.688 1.063,0.833 0.316,-1.117 0.957,0.258 -0.618,1.031 1.418,-0.119 v 0.801 l -1.418,-0.123 0.585,1.096 -0.95,0.241 -0.29,-1.117 -1.063,0.773 -0.597,-0.655 1.241,-0.602 z m 0.809,28.155 c 0.602,0 1.176,0.096 1.726,0.287 0.549,0.191 0.938,0.419 1.169,0.681 a 0.99,0.99 0 0 1 0.264,0.673 c 0,0.307 -0.136,0.561 -0.408,0.761 -0.271,0.199 -0.67,0.3 -1.194,0.3 -0.602,0 -1.176,-0.095 -1.724,-0.284 -0.548,-0.189 -0.938,-0.415 -1.168,-0.678 a 0.997,0.997 0 0 1 -0.257,-0.676 c 0,-0.303 0.134,-0.556 0.403,-0.759 0.268,-0.203 0.664,-0.305 1.189,-0.305 z m -0.184,0.734 c -0.25,0 -0.426,0.033 -0.527,0.1 -0.101,0.067 -0.152,0.152 -0.152,0.256 0,0.131 0.073,0.25 0.219,0.358 0.197,0.142 0.573,0.265 1.129,0.37 0.556,0.104 0.984,0.156 1.287,0.156 0.232,0 0.4,-0.033 0.503,-0.102 0.103,-0.067 0.153,-0.153 0.153,-0.257 0,-0.125 -0.071,-0.237 -0.215,-0.339 -0.227,-0.161 -0.643,-0.298 -1.248,-0.41 a 6.6,6.6 0 0 0 -1.149,-0.132 z M 29.7,148.556 v -0.346 h 0.701 v 0.463 l 0.934,0.157 v -0.62 h 0.701 v 0.737 l 1.238,0.208 v 0.584 l -1.238,-0.207 v 0.576 l 1.238,0.205 v 0.601 l -1.238,-0.21 v 0.362 h -0.701 v -0.481 l -0.934,-0.158 v 0.64 H 29.7 v -0.759 l -1.234,-0.21 v -0.581 l 1.234,0.204 v -0.578 l -1.234,-0.206 v -0.588 z m 1.635,0.86 -0.934,-0.155 v 0.577 l 0.934,0.155 z"
       id="path293"
       inkscape:connector-curvature="0"
       style="fill:#333333" />
    <g
       id="g297">
      <path
         d="m 133.069,148.908 0.466,0.492 c -0.279,0.358 -0.565,0.579 -0.861,0.665 a 1.235,1.235 0 0 1 -0.897,-0.089 1.259,1.259 0 0 1 -0.718,-0.88 c -0.111,-0.469 -0.03,-0.991 0.243,-1.567 0.289,-0.608 0.652,-1.02 1.09,-1.233 0.381,-0.185 0.772,-0.181 1.175,0.01 0.328,0.156 0.55,0.397 0.664,0.728 0.082,0.232 0.085,0.523 0.01,0.871 l -0.665,-0.106 a 0.883,0.883 0 0 0 -0.012,-0.551 0.622,0.622 0 0 0 -0.32,-0.341 0.693,0.693 0 0 0 -0.664,0.031 c -0.226,0.123 -0.441,0.401 -0.647,0.834 -0.213,0.45 -0.298,0.801 -0.255,1.054 0.042,0.253 0.17,0.431 0.383,0.531 a 0.6,0.6 0 0 0 0.49,0.012 c 0.17,-0.069 0.343,-0.222 0.518,-0.461 z"
         id="path295"
         inkscape:connector-curvature="0"
         style="fill:#cccec6" />
    </g>
    <g
       id="g301">
      <path
         d="m 149.631,159.504 1.171,0.557 c 0.32,0.151 0.532,0.288 0.633,0.408 0.103,0.12 0.163,0.274 0.183,0.465 0.019,0.19 -0.016,0.379 -0.104,0.565 a 1.052,1.052 0 0 1 -0.336,0.411 0.826,0.826 0 0 1 -0.444,0.166 0.872,0.872 0 0 1 0.256,0.511 c 0.027,0.195 -0.009,0.399 -0.112,0.614 a 1.24,1.24 0 0 1 -0.5,0.569 c -0.209,0.12 -0.41,0.161 -0.6,0.121 -0.133,-0.027 -0.415,-0.142 -0.846,-0.347 l -0.996,-0.473 z m 0.308,0.873 -0.392,0.825 0.389,0.186 c 0.234,0.11 0.38,0.175 0.439,0.192 a 0.402,0.402 0 0 0 0.297,-0.016 0.463,0.463 0 0 0 0.218,-0.24 0.467,0.467 0 0 0 0.052,-0.289 0.317,0.317 0 0 0 -0.109,-0.203 c -0.059,-0.047 -0.243,-0.146 -0.555,-0.293 z m -0.674,1.419 -0.452,0.952 0.548,0.261 c 0.241,0.114 0.401,0.175 0.481,0.182 0.08,0.009 0.161,-0.015 0.242,-0.066 0.081,-0.051 0.149,-0.134 0.202,-0.246 a 0.576,0.576 0 0 0 0.063,-0.325 0.415,0.415 0 0 0 -0.124,-0.248 c -0.069,-0.068 -0.23,-0.161 -0.483,-0.281 z"
         id="path299"
         inkscape:connector-curvature="0"
         style="fill:#cccec6" />
    </g>
    <g
       id="g305">
      <path
         d="m 166.059,180.549 -0.64,-0.304 0.127,-0.93 -1.171,-0.556 -0.626,0.692 -0.628,-0.298 2.833,-3.026 0.626,0.297 z m -0.416,-1.926 0.225,-1.516 -1.025,1.136 z"
         id="path303"
         inkscape:connector-curvature="0"
         style="fill:#cccec6" />
    </g>
  </g>
  <g
     id="g313"
     style="fill:#585858"
     transform="translate(0,5.6248668e-4)">
    <path
       d="m 170.783,108.063 h 5.693 v 1.174 h -5.693 z m 5.631,-0.903 c -0.831,0.033 -2.598,-0.071 -3.344,-0.697 -0.763,-0.641 -1.194,-1.417 -1.317,-2.372 l -0.008,-0.063 h -0.968 l 0.006,0.082 c 0.082,1.181 0.829,2.623 1.63,3.151 0.767,0.505 1.365,0.593 4.003,0.593 h 0.06 v -0.696 z m -4.661,6.048 c 0.123,-0.955 0.554,-1.73 1.317,-2.372 0.745,-0.627 2.513,-0.73 3.344,-0.697 l 0.062,0.002 v -0.696 h -0.06 c -2.637,0 -3.236,0.089 -4.003,0.593 -0.801,0.527 -1.548,1.97 -1.63,3.151 l -0.006,0.082 h 0.968 z"
       id="path309"
       inkscape:connector-curvature="0" />
    <path
       d="m 170.692,133.912 h 5.724 v -1.081 h -5.724 z m 5.724,-15.596 h -0.857 v 1.5 h -4.867 v 1.08 h 4.867 v 1.5 h 0.857 z m -1.12,10.46 h -4.604 v -1.081 h 4.867 c 0.594,0 0.857,0.296 0.857,1.063 v 1.168 c 0,0.872 -0.525,1.935 -1.673,1.935 -1.147,0 -1.438,-0.802 -1.618,-1.22 -0.138,-0.244 -0.249,-0.192 -0.429,-0.087 l -2.005,1.691 0.007,-1.264 1.977,-1.656 c 0.394,-0.305 0.809,-0.166 0.947,0.166 0.104,0.249 0.332,1.29 1.065,1.29 0.705,0 0.871,-0.54 0.871,-0.959 v -0.732 c 0.001,-0.21 -0.069,-0.314 -0.262,-0.314 z m 0.553,-3.487 c 0.525,-0.192 0.567,-0.593 0.567,-0.872 0,-0.279 -0.041,-0.68 -0.567,-0.872 l -5.157,-1.83 v 1.116 l 1.438,0.506 v 2.162 l -1.438,0.506 v 1.116 z m -2.89,-1.656 2.171,0.784 -2.171,0.784 z m 2.89,-6.386 c 0.525,-0.192 0.567,-0.593 0.567,-0.872 0,-0.279 -0.041,-0.68 -0.567,-0.872 l -5.157,-1.83 v 1.116 l 1.438,0.506 v 2.162 l -1.438,0.506 v 1.116 z m -2.89,-1.656 2.171,0.784 -2.171,0.784 z"
       id="path311"
       inkscape:connector-curvature="0"
       style="clip-rule:evenodd;fill-rule:evenodd" />
  </g>
  <g
     stroke-miterlimit="10"
     id="g319"
     style="fill:#313131;stroke:#0c0c0c;stroke-width:0.1;stroke-miterlimit:10"
     transform="translate(0,5.6248668e-4)">
    <path
       d="m 171.283,108.063 h 5.693 v 1.174 h -5.693 z m 5.631,-0.903 c -0.831,0.033 -2.598,-0.071 -3.344,-0.697 -0.763,-0.641 -1.194,-1.417 -1.317,-2.372 l -0.008,-0.063 h -0.968 l 0.006,0.082 c 0.082,1.181 0.829,2.623 1.63,3.151 0.767,0.505 1.365,0.593 4.003,0.593 h 0.06 v -0.696 z m -4.661,6.048 c 0.123,-0.955 0.554,-1.73 1.317,-2.372 0.745,-0.627 2.513,-0.73 3.344,-0.697 l 0.062,0.002 v -0.696 h -0.06 c -2.637,0 -3.236,0.089 -4.003,0.593 -0.801,0.527 -1.548,1.97 -1.63,3.151 l -0.006,0.082 h 0.968 z"
       id="path315"
       inkscape:connector-curvature="0" />
    <path
       d="m 171.192,133.912 h 5.724 v -1.081 h -5.724 z m 5.724,-15.596 h -0.857 v 1.5 h -4.867 v 1.08 h 4.867 v 1.5 h 0.857 z m -1.12,10.46 h -4.604 v -1.081 h 4.867 c 0.594,0 0.857,0.296 0.857,1.063 v 1.168 c 0,0.872 -0.525,1.935 -1.673,1.935 -1.147,0 -1.438,-0.802 -1.618,-1.22 -0.138,-0.244 -0.249,-0.192 -0.429,-0.087 l -2.005,1.691 0.007,-1.264 1.977,-1.656 c 0.394,-0.305 0.809,-0.166 0.947,0.166 0.104,0.249 0.332,1.29 1.065,1.29 0.705,0 0.871,-0.54 0.871,-0.959 v -0.732 c 0.001,-0.21 -0.069,-0.314 -0.262,-0.314 z m 0.553,-3.487 c 0.525,-0.192 0.567,-0.593 0.567,-0.872 0,-0.279 -0.041,-0.68 -0.567,-0.872 l -5.157,-1.83 v 1.116 l 1.438,0.506 v 2.162 l -1.438,0.506 v 1.116 z m -2.89,-1.656 2.171,0.784 -2.171,0.784 z m 2.89,-6.386 c 0.525,-0.192 0.567,-0.593 0.567,-0.872 0,-0.279 -0.041,-0.68 -0.567,-0.872 l -5.157,-1.83 v 1.116 l 1.438,0.506 v 2.162 l -1.438,0.506 v 1.116 z m -2.89,-1.656 2.171,0.784 -2.171,0.784 z"
       id="path317"
       inkscape:connector-curvature="0"
       style="clip-rule:evenodd;fill-rule:evenodd" />
  </g>
  <path
     d="m 199.938,118.69556 c 1.456,0.112 9.98,0.637 15.542,-5.405 4.468,-4.853 4.411,-11.102 4.395,-11.762 -0.346,-14.380998 -20.23,-18.805998 -21.833,-33.666998 -0.595,-5.515 1.569,-10.228 3.167,-13"
     stroke-miterlimit="10"
     id="path321"
     inkscape:connector-curvature="0"
     style="fill:none;stroke:#211e1e;stroke-width:5.5;stroke-miterlimit:10" />
  <path
     d="m 183.606,124.48056 a 1.438,1.438 0 0 1 -1.305,-0.676 c -0.764,-1.228 -2.201,-3.721 -2.201,-5.11 0,-1.389 1.437,-3.882 2.201,-5.11 a 1.438,1.438 0 0 1 1.305,-0.676 l 16.386,0.932 a 1.439,1.439 0 0 1 1.311,1.069 c 0.232,0.875 0.508,2.24 0.508,3.785 0,1.545 -0.276,2.91 -0.508,3.785 a 1.44,1.44 0 0 1 -1.311,1.069 z"
     id="path323"
     inkscape:connector-curvature="0"
     style="fill:#202020" />
  <linearGradient
     id="n"
     gradientUnits="userSpaceOnUse"
     x1="103.439"
     y1="44.924999"
     x2="115.772"
     y2="44.924999"
     gradientTransform="rotate(90,109.93872,119.02828)">
    <stop
       offset="0"
       stop-color="#1b1e21"
       id="stop325" />
    <stop
       offset=".5"
       stop-color="#4a4a4d"
       id="stop327" />
    <stop
       offset="1"
       stop-color="#1b1e21"
       id="stop329" />
  </linearGradient>
  <path
     d="m 181.373,124.86156 a 0.623,0.623 0 0 1 -0.61,-0.486 c -0.261,-1.158 -0.888,-2.264 -0.888,-5.68 0,-3.416 0.626,-4.523 0.888,-5.68 a 0.624,0.624 0 0 1 0.61,-0.486 h 5.802 c 0.311,0 0.573,0.225 0.619,0.532 0.143,0.958 0.414,3.109 0.414,5.635 0,2.526 -0.271,4.677 -0.414,5.635 a 0.624,0.624 0 0 1 -0.619,0.532 h -5.802 z"
     id="path332"
     inkscape:connector-curvature="0"
     style="fill:url(#n)" />
  <linearGradient
     id="o"
     gradientUnits="userSpaceOnUse"
     x1="103.79"
     y1="38.775002"
     x2="115.42"
     y2="38.775002"
     gradientTransform="rotate(90,109.93872,119.02828)">
    <stop
       offset="0"
       stop-color="#1b1e21"
       id="stop334" />
    <stop
       offset=".5"
       stop-color="#4a4a4d"
       id="stop336" />
    <stop
       offset="1"
       stop-color="#1b1e21"
       id="stop338" />
  </linearGradient>
  <path
     d="m 189.148,124.50956 a 0.284,0.284 0 0 1 -0.295,-0.331 c 0.146,-0.86 0.497,-3.177 0.497,-5.484 0,-2.307 -0.352,-4.624 -0.497,-5.484 a 0.284,0.284 0 0 1 0.295,-0.331 l 1.623,0.085 a 0.284,0.284 0 0 1 0.265,0.235 c 0.125,0.717 0.497,3.06 0.497,5.494 0,2.434 -0.372,4.777 -0.497,5.494 a 0.283,0.283 0 0 1 -0.265,0.235 z"
     id="path341"
     inkscape:connector-curvature="0"
     style="fill:url(#o)" />
  <linearGradient
     id="p"
     gradientUnits="userSpaceOnUse"
     x1="103.967"
     y1="35.526001"
     x2="115.243"
     y2="35.526001"
     gradientTransform="rotate(90,109.93872,119.02828)">
    <stop
       offset="0"
       stop-color="#1b1e21"
       id="stop343" />
    <stop
       offset=".5"
       stop-color="#4a4a4d"
       id="stop345" />
    <stop
       offset="1"
       stop-color="#1b1e21"
       id="stop347" />
  </linearGradient>
  <path
     d="m 192.477,124.33256 a 0.283,0.283 0 0 1 -0.295,-0.328 c 0.138,-0.84 0.466,-3.079 0.466,-5.309 0,-2.23 -0.329,-4.469 -0.466,-5.309 a 0.283,0.283 0 0 1 0.295,-0.328 l 1.493,0.079 a 0.282,0.282 0 0 1 0.265,0.236 c 0.119,0.704 0.467,2.969 0.467,5.323 0,2.354 -0.348,4.619 -0.467,5.323 a 0.283,0.283 0 0 1 -0.265,0.236 z"
     id="path350"
     inkscape:connector-curvature="0"
     style="fill:url(#p)" />
  <linearGradient
     id="q"
     gradientUnits="userSpaceOnUse"
     x1="104.16"
     y1="32.278"
     x2="115.05"
     y2="32.278"
     gradientTransform="rotate(90,109.93872,119.02828)">
    <stop
       offset="0"
       stop-color="#1b1e21"
       id="stop352" />
    <stop
       offset=".5"
       stop-color="#4a4a4d"
       id="stop354" />
    <stop
       offset="1"
       stop-color="#1b1e21"
       id="stop356" />
  </linearGradient>
  <path
     d="m 195.811,124.13956 a 0.282,0.282 0 0 1 -0.295,-0.326 c 0.129,-0.819 0.434,-2.972 0.434,-5.118 0,-2.146 -0.304,-4.3 -0.434,-5.118 a 0.282,0.282 0 0 1 0.295,-0.326 l 1.356,0.071 a 0.28,0.28 0 0 1 0.265,0.234 c 0.112,0.687 0.435,2.87 0.435,5.139 0,2.269 -0.323,4.452 -0.435,5.139 a 0.279,0.279 0 0 1 -0.265,0.234 z"
     id="path359"
     inkscape:connector-curvature="0"
     style="fill:url(#q)" />
  <linearGradient
     id="r"
     gradientUnits="userSpaceOnUse"
     x1="104.316"
     y1="29.028999"
     x2="114.895"
     y2="29.028999"
     gradientTransform="rotate(90,109.93872,119.02828)">
    <stop
       offset="0"
       stop-color="#1b1e21"
       id="stop361" />
    <stop
       offset=".5"
       stop-color="#4a4a4d"
       id="stop363" />
    <stop
       offset="1"
       stop-color="#1b1e21"
       id="stop365" />
  </linearGradient>
  <path
     d="m 199.126,123.98456 a 0.283,0.283 0 0 1 -0.296,-0.324 c 0.123,-0.801 0.408,-2.887 0.408,-4.965 0,-2.078 -0.285,-4.163 -0.408,-4.965 a 0.282,0.282 0 0 1 0.296,-0.324 l 1.249,0.066 a 0.28,0.28 0 0 1 0.265,0.235 c 0.107,0.676 0.41,2.79 0.41,4.988 0,2.198 -0.303,4.312 -0.41,4.988 a 0.28,0.28 0 0 1 -0.265,0.235 z"
     id="path368"
     inkscape:connector-curvature="0"
     style="fill:url(#r)" />
</svg>
