<?xml version="1.0" encoding="UTF-8" standalone="no"?>
<svg
   xmlns:dc="http://purl.org/dc/elements/1.1/"
   xmlns:cc="http://creativecommons.org/ns#"
   xmlns:rdf="http://www.w3.org/1999/02/22-rdf-syntax-ns#"
   xmlns:svg="http://www.w3.org/2000/svg"
   xmlns="http://www.w3.org/2000/svg"
   xmlns:sodipodi="http://sodipodi.sourceforge.net/DTD/sodipodi-0.dtd"
   xmlns:inkscape="http://www.inkscape.org/namespaces/inkscape"
   viewBox="0 0 753 269.1051"
   version="1.1"
   id="svg16"
   sodipodi:docname="logo.svg"
   width="753"
   height="269.1051"
   inkscape:version="0.92.4 5da689c313, 2019-01-14">
  <metadata
     id="metadata22">
    <rdf:RDF>
      <cc:Work
         rdf:about="">
        <dc:format>image/svg+xml</dc:format>
        <dc:type
           rdf:resource="http://purl.org/dc/dcmitype/StillImage" />
      </cc:Work>
    </rdf:RDF>
  </metadata>
  <defs
     id="defs20" />
  <sodipodi:namedview
     pagecolor="#ffffff"
     bordercolor="#666666"
     borderopacity="1"
     objecttolerance="10"
     gridtolerance="10"
     guidetolerance="10"
     inkscape:pageopacity="0"
     inkscape:pageshadow="2"
     inkscape:window-width="471"
     inkscape:window-height="442"
     id="namedview18"
     showgrid="false"
     inkscape:zoom="0.36114071"
     inkscape:cx="375.27643"
     inkscape:cy="134.55"
     inkscape:window-x="0"
     inkscape:window-y="0"
     inkscape:window-maximized="0"
     inkscape:current-layer="svg16">
    <inkscape:grid
       type="xygrid"
       id="grid24"
       originx="0.076421649"
       originy="-6.1035155e-06" />
  </sodipodi:namedview>
  <path
     d="m 150.07642,45.505105 c 1,0.3 1.5,-0.8 2.3,-1.3 1.2,-0.7 12.5,-4.3 12.6,-4.4 1.1,-1.1 -0.6,-3.9 0.4,-4.5 1.1,-0.7 3.3,-0.3 4.1,-0.9 4.3,-2.6 10.9,-2.7 15.1,-5.4 1.3,-0.8 2.5,-3 3.9,-3.5 2.8,-1.1 6.1,-1.1 9.1,-2.3 1.5,-0.6 2,-3.1 2.9,-4.1 1.7,-2 3.7,-2.5 5.8,-4.1 3,-2.4 -11.4,0.5 -6.1,-4.8 5,-5.0000002 25.3,-3.0000002 27.3,-5.0000002 l 0.4,-0.6 c 1.4,-1.4 4.8,0.3 4.8,-3.5 V 0.00510479 c -0.2,-0.1 -13,1.30000001 -14,1.50000001 -8.6,2.1 -19.4,1.1 -27.3,3.5 -3.4,1 -21,3.8 -22.3,5.1000002 l -3.1,2.2 c -14.6,2.9 -29.4,4.6 -44,7 -7.3,1.2 -17.8,1.5 -24.199998,3.6 -5.8,1.9 -15.1,2.4 -20.8,4 -4.5,1.3 -17.3,-1.5 -21.3,0.3 -0.9,0.4 -1.9,4.9 -1.3,5.5 0.5,0.6 2.2,0.4 2.9,0.9 0.6,0.4 1.6,0.9 1.3,1.9 -0.5,1.3 -5.7,-0.2 -7,2 -1.6,2.7 4.1,6.5 5.1,8.1 1.5,2.5 -4.5,3.7 -3.1,7 h 2.5 c 1.3,0 2.3,0.4 3.1,1.6 l 1.1,0.9 c 2.4,3.4 57.999998,-6 57.999998,-6 0,0 -16.3,138.699995 -81.999998,145.999995 -15,1.7 -30.9000003,-17.6 -32.0000003,-18 -1,-0.4 -2.9,-0.5 -3.60000005,0 -0.6,0.5 -1.4,3.5 0.60000005,5.8 7.5,8.5 29.7000003,26.8 51.9000003,26.2 69.199998,-1.7 96.899998,-163.599995 96.899998,-163.599995 z"
     id="path2"
     inkscape:connector-curvature="0"
     style="fill:#ff0000" />
  <path
     d="m 145.17642,119.8051 v 0.4 c 0,7 4.9,2.1 6.5,3.8 0.3,0.3 -0.1,3.4 -0.4,3.9 -5.8,11.5 -10.7,23.5 -18.1,34.6 -0.4,0.7 -0.4,1.5 -0.8,2.3 -2.6,5.2 -6.6,10.9 -8.8,15.1 -0.8,1.6 -1,3.4 -1.9,5.3 -0.1,0.2 -0.5,3.5 -0.8,3 0,4.4 -4.6,12.3 -3,15.5 0.5,1 0.2,-0.8 0.8,-1.1 1.2,-0.8 2.9,-1.4 3.8,-2.6 0.7,-1 2.1,-7.9 2.6,-8.3 1.7,-1.2 2.8,-3.5 2.8,-0.4 0,1.5 0.1,2.4 -0.4,3.8 -0.2,0.6 0.2,1.3 0,1.9 l -0.5,1.1 v 1.9 l 0.5,-0.8 0.4,-0.8 c 0.2,-0.4 0.1,-0.9 0.4,-1.5 0.6,-1.1 0.1,-0.9 0.1,-0.9 l 0.6,-0.6 c 0.9,-0.9 0.2,-2.8 1.1,-3.8 0.4,-0.4 2.5,-4 3,-5 l 2.3,-4.1 c 0.4,-0.7 0.6,-2 1.1,-1.5 2.7,2.7 2,9.8 0.8,13.6 -0.1,0.4 -0.9,2.4 -0.8,2.6 0.3,0.3 0.4,-0.6 0.8,-0.8 3.5,-1.8 0.9,-5.6 1.9,-6.5 3.6,-3.6 4.2,-10.2 7.9,-13.9 6.3,-6.3 17.9,-46.6 23.9,-52.5 4.7,-4.7 30.2,-10.2 35,-15 3.1,-3.2 3,5.7 3,6.8 0,3.1 -0.2,27 0,27.5 0.8,2.4 2.2,3.8 3,6.1 1.2,3.6 -1.1,17.7 2.8,21.5 0.6,0.5 0.3,-0.7 0.4,-0.8 0.5,-0.5 1.9,-3.8 1.9,-4.6 0,-0.8 0.2,-2.8 0.8,-2.3 0.4,0.4 3.8,12.1 4.1,12.5 0.8,0.8 -0.1,2.4 0.4,3.4 0.3,0.5 1,1 1.1,1.1 0.2,0.2 0.3,1 0.4,0.8 0.8,-1.6 0.5,-4 1.5,-6 0.8,-1.6 0.8,-5.4 1.9,-6.5 1.7,-1.7 4.2,4.3 4.5,4.6 0.3,0.3 1.6,1.4 1.9,1.1 v -7.6 c 0,-11.9 0,-77.599995 0.4,-78.399995 0.5,-1.1 3.1,-41 3.1,-45.6 0,-5.7 -1,-4.3 -3.9,-7.3 -0.6,-0.6 -0.3,-6.3 -0.4,-6.4 l -3,-2.6 c -1.1,-1.2 -9.4,3.8 -12.8,3.8 -7.3,0 -5.5,2.4 -9.1,6 -0.2,0.2 -0.6,-0.2 -0.8,-0.4 -0.8,-0.8 -0.8,-0.8 -0.8,-2.3 v -1.1 c -0.6,-0.3 -3.4,0.9 -3.8,1.1 -2,1.3 -3.8,6.1 -4.9,8.4 -2.1,4.2 -5.4,7.5 -7.6,12 -0.9,1.8 -1.9,8.3 -3,9.5 -5.5,5.5 -15.6,22 -18.9,28.6 -0.4,0.8 -1.9,6 -1.9,6 -1.6,1.6 -9.1,14.599995 -9.8,16.599995 -0.3,1 -6,3.3 -7.1,3.8 -1.1,0.5 -2.6,0.3 -3.5,1.1 -0.5,0.5 -0.2,0.5 -0.2,0.6 0.1,0.1 0,0.1 -0.5,0.3 z m 36.2,-13.5 h -0.1 c 0,-3.8 8.5,-15.799995 9.9,-21.299995 v -0.1 c 0.9,-0.5 1.2,-3.5 1.5,-3.8 2.5,-1.8 6.4,-10.5 10.1,-14.3 l 4,-3.9 c 0.3,-0.3 0.9,-0.5 1.1,-0.3 0.6,0.6 -0.1,12.2 -0.4,13.4 -0.7,3.6 0.5,14.8 -0.3,16.4 -0.8,1.8 -3.8,2.6 -7,4.4 -4.3,2.4 -9.3,5.399995 -12.2,5.999995 -1.7,0.3 -1.4,3.8 -6.5,3.8 z m 126.8,-76.899995 h 0.2 c 0.7,0.3 1.6,0.2 2.3,0.6 0.6,0.4 0.2,-0.4 0.8,0 0.9,0.7 2.7,2.6 4,3.3 0.7,0.3 1.9,0.1 2.6,0.1 h 1 c 0.4,1.5 4.4,8.3 6,9.3 0.9,0.5 2.9,0.5 4.1,1.1 0.3,0.1 0.9,0 1.3,0.1 h 0.5 c 0,2 -4.9,3.4 -3.5,4.8 2.1,2.1 2.5,4.6 -2.1,5.8 -3.5,0.9 -7.4,-0.5 -10.8,0.9 -3.9,1.6 -7.9,4.7 -12,5.8 h -0.1 c -19.6,6.5 -40.1,34.3 -40.1,55.299995 v 0.8 c 0,13.8 8.2,29.6 20.8,34.6 1.7,0.7 3.1,2.6 5.3,3 1.7,0.3 4,1.4 6.1,1.4 1.5,0 9.9,1.3 11.1,0.6 2.9,-1.6 6,-2.6 8.9,-4.5 1.5,-1 0.3,-6 -0.3,-6.3 -3.2,-1.6 -0.4,-21.4 0.9,-25.1 1,-3.1 3.3,-8 1.5,-9.8 l -0.5,-0.5 c -0.1,-0.1 -2.2,-0.5 -2.4,-0.4 -2.6,1.8 -10,0.6 -11.1,1.3 -3.8,2.2 -7.7,3.9 -11.5,6 -1,0.6 -7.4,4.5 -8.1,3 -0.2,-0.3 0.8,-0.9 1,-1.1 0.8,-0.8 2.5,-2.5 3.5,-3.1 2.2,-1.3 3.8,-7.4 6.1,-9.3 6.5,-5.2 18.3,-10.699995 27,-12.899995 0.2,0 0.5,0.1 0.6,-0.1 l 0.3,-0.5 4.8,-2.1 c 1.6,-0.8 2.6,-3.1 4.3,-3.4 1.4,-0.2 2,1.6 3,2.1 3.7,1.9 7.8,-2.2 7.8,2.1 v 3.4 c -2,2 -0.6,7.199995 -1.8,9.599995 -0.6,1.2 -5.1,18.9 -5.1,19.4 0,0.6 -1.7,8.1 -1.8,8.3 -0.6,0.8 -0.9,21.1 -0.9,23.9 0,4.1 1,7.5 2.3,11.1 0.2,0.7 0.8,2.1 0.8,2.8 0,0.4 0.4,0.5 0.3,0.6 -0.8,0.8 -1.9,-1.2 -2.1,-1.3 -6.6,-1.9 -12.9,-12.8 -13.1,-12.9 -3.3,-1.3 -3.1,4.3 -5.8,5.6 -2.4,1.2 -6.1,4.5 -7.8,6.9 -2,2.7 -22.8,2.5 -24.7,0.6 -2.7,-2.7 -7.9,-2.3 -10.8,-4.5 -1.6,-1.2 -18.4,-16.2 -18.6,-17.1 -0.8,-2.8 -2.8,-7 -4.1,-9.8 0,0 -2.9,-13.8 -3.5,-22.4 -2.1,-27.999995 13.4,-55.599995 32.5,-71.999995 2.7,-2.3 5.7,-6.7 9,-8 3.9,-1.5 7.3,-2.3 11.4,-3.6 2.9,-1 6.5,-1.5 9.1,-2.8 0,-0.3 0.8,-0.9 1.4,-0.7 z m 75.2,-6.4 h -0.5 c 0.7,0.7 -0.5,0.5 -0.5,0.5 -0.5,0.5 -2.1,1.9 -2.5,3 -0.6,1.8 -7.1,9.2 -6,12.5 -0.1,-0.1 -1.3,0.8 -1.5,1 -1.2,1.2 -2.4,4.8 -3.5,6.5 -1,1.5 -7,17.6 -8,20.5 -0.2,0.6 0.3,2.5 0,3 -2,3.9 -4.5,8 -6.5,12 -2.9,5.8 -5,16 -8.5,22.999995 -2.3,4.6 -5,16.5 -6.5,26 -0.8,4.7 0,12.2 0,16.5 0,1.5 0,6 0.5,7 0.2,0.4 1.2,2.3 1.5,2 -0.5,1.6 2.4,2.4 3,3 0.1,0.1 1.2,2.7 1.5,3 0,0 1.5,0.5 1,1 4.8,-1.6 11.6,2.3 18,-2 1.3,-0.9 11.3,-7.1 11.5,-7 l 1.5,-2 c 1.4,-2.2 4.2,-3.5 5.5,-6 1.2,-2.5 6.5,-11 9,-11 -4.1,0.6 -1,24.1 -1,27 h 1 c 0,1.1 0.7,5.2 2,4.5 -0.4,1.1 2.6,2.9 3.5,3.5 5.8,3.9 14.3,-5.7 16.5,-3.5 0.4,0.4 -2.2,4.7 -2.5,6 -0.3,1.2 -7.8,17.8 -9,19 -1.3,1.3 -5,6 -5,8 0,1.4 -0.2,1.8 0.5,2.5 0,0 -0.2,1.2 0.5,0.5 v 1 c 0.6,-0.6 2,2.5 2,2.5 0.9,1 6.6,-1.5 6,-3.5 0.6,0.6 0.9,-1.8 1.5,-2 2.3,-0.8 2.8,1.8 3.5,1.5 2.3,-1.2 7,-8.5 7,-3 h 1 v -1 c 0.3,0.2 1.8,-0.9 2,-1 1.3,-0.9 8.5,-11.7 9.5,-14.5 0.3,-1 2.9,-4.3 3.5,-4 v -1 c 0.5,0.5 1,-1 1,-1 0.4,-0.4 1.6,-0.9 2.5,-1.5 0.3,-0.2 0.5,-0.8 1,-0.5 -0.4,-1.2 0.6,-2.6 1.5,-3.5 6.1,-6.1 19.6,-34.8 24.5,-44.5 0.3,-0.6 7.1,-10.1 8,-10.5 l 5.5,-0.5 c 0.4,0 1.9,-0.6 1.5,-1 0.8,0.3 12.8,-9.5 17,-9.5 -0.3,-0.3 1.6,-1.4 2,-1.5 1.9,-0.5 3.7,-1.5 5.5,-1.5 v -1 c 0.6,0 4.2,-1.799995 5,-1 2,2 -2,17.8 -2,18 0,1.5 1.5,7 1.5,7 h 1 c 0,7 1,13.8 1,21 v 2 c 0.2,0.2 2.8,-0.2 3,0 2.8,2.8 0.5,15 4.5,19 0.1,0.1 0,0.3 0,0.5 0,1.1 0.5,1.5 1.5,1.5 0,1.8 -0.1,2.1 -1,3 -0.1,0.1 0.5,1.6 0.5,2.5 1.3,-0.6 0.9,1.5 1,1.5 1.6,1.6 -0.1,5.1 -1,7 0,0 -0.3,3.3 0.5,2.5 -0.6,1.8 1,0.7 1,2.5 h 1 c -0.2,0.2 1.3,1.3 1.5,2 0.4,1.4 1,2.6 1,4 h 0.5 v 1.5 h 1 l 0.5,1 v 1 c 1.1,1.1 1.2,-3.2 0.5,-4.5 -1,-2 0.5,-7.1 0.5,-9.5 0,-3.2 1.5,-18 2,-19.5 2.2,-6.5 1.3,-41.8 2,-44.5 2.5,-10.5 4,-29.799995 4,-42.999995 0,-8.9 1.4,-19.6 3.5,-28 0.7,-2.7 0.9,-6.8 2,-9 0.3,-0.6 1.2,-0.9 1.5,-1.5 0,-0.1 0.3,-2.8 -0.5,-2 v -2.5 h -1 c 0,-0.2 0.3,-2.3 -0.5,-1.5 v -1 c -1.9,0 -4.4,-1 -6.5,-1 -0.2,0 -4.5,-0.5 -4,-1 h -1 c 0.5,-0.5 -1.3,-1.3 -2,-1 v -1 l -0.5,-0.5 h -1.5 c 0.4,-0.4 -1.4,-1.4 -1.5,-1.5 -0.8,-0.8 -0.4,-2.6 -1.5,-3 -1,-0.3 -2.3,1.2 -3,0.5 0.9,2.7 -2.8,2 -3.5,3.5 -1.5,2.9 0.4,7.1 -1,10 l -5,4.5 c -0.1,0.1 -0.1,0.4 0,0.5 -1.7,0 -4.7,3.2 -5,3 0.3,0.3 -0.2,0.7 -0.5,1 -0.9,0.9 -3.3,2 -4,3.5 -1.5,3 -5.9,5.8 -7.5,9 -2.6,5.2 -8.7,14.3 -14,17 -0.9,0.5 -2.7,5.6 -4,5 0.3,0.9 -3.8,4.6 -4.5,6 -1.7,3.4 -7,13.6 -9,16.499995 -1,1.6 -4.4,2.8 -4,4 0,0 -5.4,3.3 -5,4.5 -0.8,-0.4 -8.3,5.8 -9,6.5 -1.5,1.5 -7.4,1.2 -8,2.5 -0.5,0.9 2.7,5.5 1.5,8 -0.8,1.6 -3.5,2.2 -3.5,4 h 2.5 c 2.5,0 4,-1.5 6,-1.5 0.3,0 0.8,-0.2 0.5,0.5 -1.2,2.4 -15,23.2 -16,23.5 -0.7,0.2 -6,-0.5 -6,-0.5 -0.6,-0.6 -0.9,-2.6 -1.5,-2 0,-1.1 -0.1,-9.7 0,-10 2.5,-5.1 2.4,-11.8 5,-17 3.4,-6.9 10.4,-26.399995 13.5,-30.999995 0.8,-1.2 1.9,-1.8 1.5,-3.5 h 0.5 c 2.2,-8.2 7.4,-16 10,-24 0.7,-2 3.3,-9.8 4.5,-11 l 2,-1.5 c -0.3,-0.8 2,-4.5 1,-5.5 -0.2,-0.2 -1.9,-1.6 -1.5,-2 h -1 l -0.5,-0.5 v -1 c -1.6,1.6 1.4,-9.4 -0.5,-7.5 0,-4 -8.2,-3.5 -11.5,-3.5 l -0.5,-0.5 v -1 c -0.4,0.4 -1,-0.5 -1.5,-0.5 -1.1,0 -5.3,0.1 -6,0.5 -3.3,2.2 -10.4,20.4 -13.5,23.5 l -1.5,4 c -0.4,0.9 -2.1,1.6 -1.5,2.5 h -0.5 c 1.5,4.4 -2.6,7.7 -4.5,10.5 -0.4,0.5 -3,16.6 -3,19 h -1 c 0,0.5 -0.5,2.5 -1,2 0.5,2.2 -2.9,6.599995 -3.5,8.499995 -6.8,20.5 -4.6,13.1 -19,27.5 -2.6,2.6 -4.7,6.8 -8,9 -1.7,1.1 -3.1,1.6 -4.5,3 -0.1,0.1 -0.1,0.4 0,0.5 h -1 c 0.7,0.7 -3.6,1.9 -3,2.5 -0.2,-0.1 -6.4,6.3 -11,4 -6.2,-3.1 5.7,-25.9 5,-28 0,0 1.4,-1.3 2,-2.5 1.4,-2.7 0.8,-7.5 2.5,-10 3.9,-5.8 8,-8.2 8,-16.499995 l 0.5,-1 h 1 c 0,-0.1 1,-2 1,-3 0.1,0.1 0.4,0.1 0.5,0 l 2.5,-2.5 c 2.7,-2.7 2.8,-7.7 4.5,-11 0.8,-1.7 3.7,-2.9 4.5,-4.5 0.7,-1.4 -0.6,-5.8 0.5,-8 0.2,-0.3 1.1,-2.4 1.5,-2 -0.3,-1 9,-13.4 8.5,-14.5 h 1 c -0.6,-1.2 4.5,-10.1 4.5,-10.5 h -1 v -1 c -0.7,0.7 -2.6,-2.6 -3,-3 -0.1,-0.1 -0.4,-0.1 -0.5,0 v -1 h -1 c 0.7,-0.7 -0.5,-0.5 -0.5,-0.5 0,0 -0.4,-3.1 -1,-2.5 0,-1.1 -1.6,-4.8 -1.5,-5 h -1 c 1.9,-3.8 -5.9,-2.7 -8,-2 -1.1,0.4 -3.7,3.5 -4.5,3 z m 103.3,67.3 c 0.2,0 1.2,-3.8 1.9,-4.9 2.6,-4.4 5.4,-9.9 8.4,-13.9 2.6,-3.4 15.4,-19.7 12.4,-4.8 -0.6,3.1 -2,4.6 -2,8 0,6.4 -1.5,5.7 -6.3,6.9 -4.8,1.2 -10.2,8.7 -14.4,8.7 z m 52.5,117.699995 c -0.2,0 -0.1,-0.3 -0.1,-0.5 v -2.5 c 0,-1.8 2.1,-5.1 1.6,-5.6 -4.7,-4.7 5.3,-18.5 7.8,-24.3 0.3,-0.6 -0.2,-5.6 0,-5.8 0.2,-0.2 1.9,-0.8 1.6,-1.3 -0.5,-0.9 -1.5,-3.4 -0.9,-4.8 0.5,-1.1 2.1,-1.6 2.5,-2.5 1.2,-2.6 0.9,-4.3 2.4,-6.5 0.3,-0.4 0.3,-2.3 0.9,-3.3 0.4,-0.6 0.4,-1.4 0.8,-2 1.2,-2 3,-2 3.6,-4 1.1,-3.5 -0.8,-8 0,-10.1 1.6,-4 7.4,-23.3 8.5,-24.8 l 1.3,-1.6 c 2.3,-2.9 0.1,-6.6 1.3,-9.399995 1.2,-2.8 2.8,-5.8 4.4,-8.5 0.9,-1.5 1.1,-7.3 3.3,-10.9 0.3,-0.4 1.7,-7.6 1.3,-8.1 -0.6,-0.6 -2.5,2 -3.3,2.5 -1.3,0.9 -2.7,0.7 -4,2 -0.4,0.4 -12.7,3.1 -11.8,-0.9 -0.2,0.2 -1.5,-1.1 -1.6,-1.1 -1.1,-0.5 -0.7,0.3 -2,-0.5 -0.2,-0.1 -4,-0.2 -4.1,-0.4 -2.7,-2.7 -2.7,-3.7 -6,-5.6 -0.8,-0.5 -0.1,-1 -1.6,-0.5 0.4,-0.3 -1.2,-0.7 -1.3,-0.8 -0.6,-0.6 0.4,-5.8 0.8,-6.1 2.5,-2.5 11.4,-7.9 10.1,-12.1 0.9,-0.4 0.1,0 0.9,-0.8 0.2,-0.2 2.2,-1.4 2.9,-1.6 2,-0.8 6.8,-2 8.5,-3.3 1.1,-0.8 1.8,-1 3.3,-1.6 5.9,-2.6 11.8,-4.6 18.1,-6.5 1.4,-0.4 1.8,-1.9 3.3,-2.5 1.2,-0.5 3.5,-0.4 4.5,-1.1 l 0.9,-0.6 c 6.5,-4.5 23.5,-2.5 26.8,-4.4 2,-1.2 4.1,-3.8 5.6,-4.5 2.5,-1.2 29.4,2.9 31.3,4 3.2,1.8 4.9,1.8 7.3,4.1 0.1,0.1 2.5,3.7 3.3,3.3 0,2.1 5.3,3 5.6,3.6 1.1,2.1 2.7,4.1 4.9,5.3 0.3,0.1 1.1,2.8 1.3,3.3 0.7,1.7 2.3,3 3.3,4 1.5,1.5 -0.2,4.3 0.8,6.1 0.5,0.9 -0.5,4.3 -0.4,5.3 -1,2.3 0.4,6.8 -0.3,9.4 -2,6.6 -4.9,11 -9,17 -2.6,3.7 -6.9,4.4 -8.9,7.3 -0.4,0.5 -1.1,3.4 -2,3.6 -2,0.6 -8.9,4.199995 -10.5,5.799995 -1.4,1.4 -3,2.8 -4.9,3.6 l -1.6,0.4 h -0.9 c 0,0.3 8.7,8.2 9.4,8.9 4.9,4.9 7.3,12.6 11.4,16.6 2.8,2.8 7.2,6.4 9.6,10.1 0.1,0.2 0.3,-0.1 0.5,0 11.2,4.5 22.8,20.9 33.1,25.5 -0.3,0.5 2.2,2.3 2.5,2.5 1.6,1.3 5.5,4.9 6.5,6.5 1.7,2.5 21.7,21.3 26.3,25.9 0.5,0.5 1.3,5.3 0.8,5.8 1,-3.3 -16.4,-11 -17.5,-13.9 -1.3,-3.2 -17,-15.2 -21,-16.6 -0.1,0 -10.6,-10.2 -11.8,-10.9 -2.9,-1.8 -8,-3.5 -11,-5.6 -4.4,-3.1 -6.1,-7.8 -8.9,-11 -1.8,-2.1 -4.8,-1.6 -7.6,-6.5 -0.3,-0.5 -2.8,-1.7 -3.3,-2.4 l -0.9,-1.3 c -1.2,-1.8 -3,-2.5 -4.5,-4 -0.2,-0.2 -0.5,-1.8 -1.1,-2.1 -0.5,-0.3 -3,-1.9 -2.5,-2.8 h -1.1 c 0.3,-0.5 -1.5,-1.4 -1.6,-2 -0.2,-0.7 -2.4,-3.3 -3.3,-4.1 -0.2,-0.2 -2.9,0.2 -3.3,0 l -2,-1.3 c -0.3,-0.1 -1.6,-0.8 -1.3,-1.1 -1.7,0 -5.2,-3.6 -6.5,-4.9 -0.9,-0.9 -5.6,-0.6 -6.9,-3.6 -0.7,-1.6 -2.7,-2.3 -4.1,-3.3 -0.8,-0.6 -2,-1.1 -2.4,-2 l -0.8,-1.6 c -0.2,-0.5 -0.2,-0.6 -0.2,-0.6 0,0 0,0.1 -0.7,-0.3 -0.5,-0.3 -0.4,-0.3 -0.4,-0.8 v -0.9 1.3 l 0.8,0.8 0.5,1.3 c 0.3,0.9 0.4,0.8 0.4,2 0,1.2 0.4,2.5 1.3,3.3 2,1.8 4.3,3.7 6,5.8 1.8,2.1 6,5.1 8.1,7.3 4.3,4.2 11,8.2 16.3,13.4 2.2,2.2 2.8,4 4.4,6 0.1,0.2 -0.2,0.4 0,0.5 l 4.5,1.1 c 3.9,4.6 10.7,7.3 13.4,13.4 0.4,-0.3 0.6,0.4 0.8,0.5 1.9,1.3 5.9,4.6 6.1,6.4 1.2,-0.5 1.5,1.3 2.4,1.6 9.5,4 20.4,14.2 27.6,21.5 0.7,0.7 3.9,6.1 5.3,6.5 2,0.7 7.2,3.1 8.5,4.9 0.5,0.7 1,2.8 1.3,3.6 0,0 14.1,14.5 15.4,15 0.1,0 0,0.2 0,0.4 0.5,1.7 3.3,1.6 3.3,3.3 0,0.7 0.6,1.7 0,2 -0.2,0.1 -1.1,-0.5 -1.3,-0.8 -0.1,-0.2 -9.5,-9.3 -9.8,-9.4 -6.8,-2.7 -26,-21.6 -35.3,-26.3 -7.2,-3.6 -17.2,-14.9 -23,-20.8 -2.9,-2.9 -4.6,-5.3 -6.5,-7.3 -0.8,-0.8 -4,-1.3 -4.9,-2.4 l -0.9,-1.3 c -7.5,-3.3 -11.5,-9.5 -17.8,-11.4 l -1.3,-0.8 c -0.1,-0.1 -0.3,0.1 -0.4,0 -0.4,-1 -20.6,-24 -21.5,-24.4 -1.6,-0.8 -18.4,-11.5 -19,-12.1 -1,-1 0.2,-2.8 0.8,-4 3.3,-7.699995 6.2,1.4 11.8,-4.1 0.8,-0.8 -4.2,-5.299995 -5.3,-5.599995 -0.6,-0.2 -1.8,-1.2 -1.3,-1.6 l -1.1,-0.4 c 0,-2.3 0.2,-3.4 1.6,-4.5 0.6,-0.5 0.6,-1.5 1.1,-2 0.8,-0.8 3.2,1.1 3.3,1.1 3.1,4.2 6,5.8 13,5.8 1.1,0 2.6,0.5 3.3,-0.4 4.5,-6 11.3,-18.3 15.8,-23.5 0.2,-0.3 0.6,-3 0.4,-3.3 -0.8,-0.8 -2.3,-3.4 -2.8,-4.5 l -5.8,-2 c -0.9,-0.3 -0.5,-0.7 -0.8,-1.3 -0.1,-0.1 -0.2,0.1 -0.4,0 -1.6,-0.7 -5.4,-2.8 -5.8,-3.6 h -1.1 c -0.5,0 -3.6,-0.1 -3.8,0 -0.6,0.5 -0.3,0.7 -0.3,0.7 h -0.4 c -13.6,0 -15.7,1.5 -20.6,12.2 -0.5,1.1 -1.5,1.9 -1.6,3.3 -1,0.5 -0.7,-3.5 -4.1,-2.5 -0.7,0.2 -3.2,11.9 -4,13 l -5.8,7.3 c -5.5,8.2 -7.9,37.599995 -12.1,41.799995 -0.3,0.3 0,0.8 0,1.3 0,5.4 -0.9,8.7 -2.8,12.9 -0.6,1.5 -1.7,15.8 -2.9,19.5 -1.2,3.5 -2.4,4.4 -3.6,7.3 -2.5,5.8 1.8,10.2 -4.1,14.6 -0.1,0.1 0,0.2 0,0.4 0,1.8 0.2,5.6 -1.1,6.1 -0.5,0.2 -3.8,-0.7 -4.1,-0.9 -0.6,-0.3 -0.4,-1.5 0,-2 0.7,-1 3.4,-3.6 4.1,-4.4 0.7,-0.7 0,-4.9 0.4,-5.8 0.3,-0.6 3.1,-3.5 3.6,-4 0.7,-0.7 0.7,-2 1.3,-2.9 0.3,-0.4 -1.2,-2.8 -1.3,-2.9 -0.1,-0.1 0.1,-3.9 0,-4 -0.9,-0.9 -2.9,2.5 -3.3,3.3 -0.9,1.9 -6.1,15.3 -6.1,15.4 -2.5,2.5 -5.4,11.8 -6.9,12.6 -1.9,1.1 -2.6,-9 -6.5,-2.1 -0.2,0.3 -0.2,4.4 -0.4,4.9 -0.7,2.1 -1.9,3 -2.8,5.8 v 2.4 c -0.7,0.5 -1.2,-2.3 -2.9,-1.3 -4.6,3.1 -1.8,1.8 -3.6,0 -0.1,-0.1 -0.3,0 -0.5,0 l 0.1,0.1"
     id="path4"
     inkscape:connector-curvature="0"
     style="fill:#ff0000" />
  <path
     d="m 597.17642,111.7051 c 1.3,0.7 2.4,0 3.3,0.3 3.5,1.4 6.7,0.9 10,2.6 4.6,2.3 10,9.4 16,11.4 0.3,0.1 0.1,0.7 0.3,1 0.6,1 2.1,3.1 3,4 2.3,2.3 10.1,12 12,13 0.7,0.4 2.8,1.6 3,2.3 0.3,0.8 1.5,3.7 1.8,4 2.6,2.6 4.1,2.5 7.3,4.4 0.7,0.4 2.4,3.3 2.8,4.4 0.2,0.6 1.1,0.7 1.6,1 2.1,1.3 12,10.3 13,11 1.3,0.9 1.8,3.3 3.6,4 1.1,0.5 0.9,2.5 2,3 4.9,2.4 19,9.6 23.4,14 0.9,0.9 1,2.5 2,3.3 2.4,1.7 7.7,3.8 9.4,6 3.3,4.3 13,16.8 17.6,19.4 1,0.5 1.6,0.2 1.6,1.6 0.1,-0.1 0.3,-0.1 0.4,0 0.5,0.5 1.5,1.8 2.4,2.4 2,1.2 4.6,5 6.3,6.4 0.2,0.2 0.5,0.2 0.8,0.3 1.1,0.3 11.8,6.5 9.6,8.8 -0.4,0.4 -1.3,0.5 -1.6,0 -1.2,-1.8 -2.8,-3.6 -4.8,-4.8 -0.5,-0.3 -1.9,-0.2 -2.3,-1 -2.4,-6 -22.3,-15.7 -25,-20.3 -0.2,-0.3 -1.9,-0.3 -2,-0.4 -0.8,-0.5 -4.3,-2 -4.4,-2 -1.5,-1.5 -3.5,-4.5 -5,-5.4 -3.7,-2.2 -12.7,-12.3 -13.6,-12.6 -5.6,-2.1 -10,-7.2 -16.4,-10.4 -0.9,-0.4 -2,-0.5 -2.6,-1.3 -4,-4.8 -29.8,-23.8 -30,-26.8 h -1 c 0.1,-0.1 -1,-0.8 -1.4,-1 -0.2,-0.1 -0.5,0.2 -0.6,0 l -3.4,-2 c -0.2,-0.1 -5,-7.6 -6.6,-9.3 l -0.8,-0.8 c -4.6,-4.6 -8.8,-9.3 -14.6,-12.3 -0.1,-0.1 -2.8,-4.9 -3.6,-5.8 -0.1,-0.1 -0.2,0 -0.4,0 -4.8,-1.2 -8.9,-0.7 -12.4,-3 -1.2,-0.8 -2,-5.2 -2,-7.6 v -0.4 c 0,-0.3 -0.2,-0.4 0,-0.6 0.2,-0.3 1.7,-0.4 1.4,-0.6 z"
     id="path6"
     inkscape:connector-curvature="0"
     style="fill:#ff0000" />
  <path
     d="m 737.07642,246.3051 c 0.4,-0.4 1.3,-0.1 1.6,0.4 1,1.4 2.4,2.1 3,3.6 0.6,1.7 3.8,0.9 4.8,2.4 0.5,0.8 0.8,0.9 1.3,1.6 0.4,0.7 0.8,0.8 0.8,1.8 v 1.6 l -0.4,1 c 0,0 0.3,0.1 -0.4,-0.6 -0.6,-0.6 0.3,-0.2 -0.3,-0.8 l -0.4,-0.3 c -0.1,-0.1 0.1,-0.3 0,-0.4 -0.5,-0.5 -0.6,-0.8 -1,-1.4 -0.4,-0.4 -1.7,-0.8 -2.4,-1.6 -0.7,-0.9 -2.3,-1.3 -3,-2 -0.4,-0.4 -4.8,-3.7 -5.6,-4 -3.7,-1.4 -6.6,-3.4 -9.6,-6.4 -2.5,-2.5 -12.8,-8.2 -13.8,-10.6 -0.1,-0.2 -0.5,0.1 -0.6,0 -1.2,-1.2 -1.9,-1.7 -3.6,-2.4 -0.9,-0.4 -20.3,-15.5 -20.4,-15.6 -0.1,-0.2 -0.1,-0.3 -0.1,-0.3 0,0 0.1,0.2 -0.3,-0.1 -5,-3.3 -9.7,-8.6 -15,-11.3 -0.6,-0.3 -4.3,-5.9 -4.3,-6.8 v -0.3 c -6.8,-4.5 -11.1,-3 -19.8,-13.4 -0.1,-0.2 0,-0.5 -0.3,-0.6 -4,-1.3 -24.6,-23.5 -25.8,-26.4 -0.7,-1.7 -3.7,-1.4 -4.6,-3 -1.3,-2.2 -0.8,-3.6 -2.4,-6 -0.5,-0.8 -7.8,-2.5 -8,-2.6 -2,-2 -3,-5.5 -4.3,-6.8 -1.5,-1.5 -5.7,-2.3 -7,-4.3 -0.1,-0.2 0,-1.7 0,-2 0.3,0.2 1.1,-0.7 1.3,-0.8 h 4.8 c 1.6,0.9 7.1,5.7 8.3,6 4.5,1.1 8.8,2 12.4,5 5.2,4.3 3,7.2 5.6,12.4 2.1,4.2 22.7,22.7 27,27 1.7,1.6 2.7,5.2 4.8,6.4 0.8,0.5 6,1.3 6.3,1.6 1.9,1.9 4.9,3.6 6.4,5 0.5,0.5 0.9,3.7 1.4,4 0.7,0.4 8.3,6.8 8.6,7.4 0.2,0.5 1.3,-0.2 1.6,0.3 0.8,1.2 3.8,2.3 5,3 0.9,0.5 2.9,4.3 4,5 0.7,0.5 5,4.3 5,4.4 0.5,1.2 1.8,0.7 2.8,1.6 2.3,2.3 7.8,3.1 10,5.4 10.2,10.2 21.4,17.2 28.6,24.4"
     id="path8"
     inkscape:connector-curvature="0"
     style="fill:#ff0000" />
  <g
     id="g12"
     style="fill:#fdc007"
     transform="translate(0.07642165,0.00510479)">
    <path
       d="m 180.3,249.1 c 0,-11 8.9,-20 20,-20 11,0 20,9 20,20 0,11 -9,20 -20,20 -11.1,0 -20,-9 -20,-20 z m 66,0 c 0,-11 9,-20 20,-20 11,0 20,9 20,20 0,11 -9,20 -20,20 -11.1,0 -20,-9 -20,-20 z m 68,0 c 0,-11 9,-20 20,-20 11,0 20,9 20,20 0,11 -9,20 -20,20 -11,0 -20,-9 -20,-20 z m 68,0 c 0,-11 9,-20 20,-20 11,0 20,9 20,20 0,11 -9,20 -20,20 -11,0 -20,-9 -20,-20 z m 66,0 c 0,-11 9,-20 20,-20 11,0 20,9 20,20 0,11 -9,20 -20,20 -11,0 -20,-9 -20,-20 z m 68.1,0 c 0,-11 8.9,-20 20,-20 11,0 20,9 20,20 0,11 -9,20 -20,20 -11.1,0 -20,-9 -20,-20 z"
       id="path10"
       inkscape:connector-curvature="0" />
  </g>
  <path
     d="m 528.47642,239.1051 v 4 h 6 v 16 h 4 v -16 h 6 v -4 z m -62.1,0 h 4 v 20 h -4 z m -136,9 h 8 v 2 h -8 z m -63,-6.7 v 9.9 h -6 z m 0,14.3 v 4.4 h 4 v -4.4 h 4 v -4.4 h -4 v -13.2 h -6 l -8,13.2 v 4.4 z m 138.1,-2.4 c 0,-0.7 -0.1,-1.2 -0.4,-1.6 -0.3,-0.4 -0.7,-0.7 -1.2,-0.9 -0.3,-0.1 -0.8,-0.2 -1.4,-0.2 h -3.3 v 5.5 h 3.3 c 0.5,0 1.1,-0.2 1.7,-0.4 0.5,-0.2 0.9,-0.5 1.1,-0.9 0.1,-0.5 0.2,-1 0.2,-1.5 z m -1.4,-8.9 c 0,-0.3 -0.1,-0.7 -0.3,-1.1 -0.2,-0.4 -0.5,-0.6 -0.9,-0.8 -0.4,-0.2 -0.8,-0.2 -1.3,-0.3 h -2.5 v 4.6 h 2.7 c 0.4,0 0.8,-0.1 1.2,-0.3 0.4,-0.2 0.7,-0.5 0.9,-0.9 0.1,-0.3 0.2,-0.7 0.2,-1.2 z m 7,9 c 0,1.1 -0.2,2 -0.6,2.8 -0.4,0.8 -1,1.5 -1.6,2 -0.8,0.6 -1.7,1.1 -2.7,1.4 -1,0.3 -2.2,0.4 -3.8,0.4 h -8.7 v -21.8 h 7.7 c 1.6,0 2.8,0.1 3.7,0.2 0.8,0.1 1.6,0.4 2.3,0.8 0.8,0.4 1.4,1 1.8,1.7 0.4,0.7 0.6,1.5 0.6,2.4 0,1.1 -0.3,2 -0.8,2.8 -0.5,0.8 -1.3,1.4 -2.2,1.8 v 0.1 c 1.4,0.3 2.4,0.9 3.2,1.7 0.7,1 1.1,2.2 1.1,3.7 z m -210,1.5 c 0.3,-0.4 0.5,-0.7 0.6,-1.2 0.2,-0.4 0.2,-1 0.2,-1.9 0,-0.7 -0.1,-1.3 -0.3,-1.7 -0.2,-0.5 -0.4,-0.8 -0.8,-1.1 -0.3,-0.3 -0.7,-0.5 -1.1,-0.6 -0.4,-0.1 -0.8,-0.2 -1.3,-0.2 -0.4,0 -0.8,0 -1.2,0.1 -0.4,0.1 -0.8,0.2 -1.1,0.4 v 1.3 c 0,1.3 0.1,2.3 0.3,3 0.2,0.8 0.5,1.3 0.8,1.7 0.3,0.3 0.5,0.5 0.9,0.7 0.3,0.1 0.7,0.2 1,0.2 0.3,0 0.6,-0.1 1,-0.2 0.5,0 0.8,-0.2 1,-0.5 z m 6.4,-3.3 c 0,2.3 -0.7,4.2 -2.2,5.7 -1.5,1.5 -3.5,2.2 -6,2.2 -1.3,0 -2.4,-0.2 -3.4,-0.5 -1,-0.4 -1.8,-0.9 -2.5,-1.6 -0.8,-0.8 -1.5,-1.9 -1.9,-3.3 -0.4,-1.3 -0.7,-2.9 -0.7,-4.8 0,-1.9 0.2,-3.6 0.6,-5.1 0.4,-1.5 1.1,-2.8 2,-3.9 0.9,-1.1 2,-1.9 3.5,-2.5 1.4,-0.6 3.1,-0.9 5.1,-0.9 0.7,0 1.4,0 2.1,0.1 0.7,0.1 1.2,0.2 1.5,0.2 v 4.3 h -0.4 c -0.3,-0.1 -0.7,-0.3 -1.3,-0.4 -0.6,-0.2 -1.3,-0.2 -2,-0.2 -1.7,0 -3,0.4 -4,1.3 -0.9,0.9 -1.5,2.2 -1.7,3.8 0.7,-0.5 1.4,-0.8 2.2,-1.1 0.7,-0.3 1.6,-0.4 2.5,-0.4 0.8,0 1.5,0.1 2.2,0.3 0.7,0.2 1.3,0.5 1.8,0.9 0.8,0.6 1.3,1.3 1.8,2.3 0.6,1 0.8,2.2 0.8,3.6 z"
     id="path14"
     inkscape:connector-curvature="0" />
</svg>
