<?xml version="1.0" encoding="UTF-8" standalone="no"?>
<!-- Generator: Adobe Illustrator 22.0.0, SVG Export Plug-In . SVG Version: 6.00 Build 0)  -->

<svg
   xmlns:dc="http://purl.org/dc/elements/1.1/"
   xmlns:cc="http://creativecommons.org/ns#"
   xmlns:rdf="http://www.w3.org/1999/02/22-rdf-syntax-ns#"
   xmlns:svg="http://www.w3.org/2000/svg"
   xmlns="http://www.w3.org/2000/svg"
   xmlns:sodipodi="http://sodipodi.sourceforge.net/DTD/sodipodi-0.dtd"
   xmlns:inkscape="http://www.inkscape.org/namespaces/inkscape"
   version="1.1"
   id="Capa_1"
   x="0px"
   y="0px"
   viewBox="0 0 30 30"
   style="enable-background:new 0 0 30 30;"
   xml:space="preserve"
   sodipodi:docname="icon_empty.svg"
   inkscape:version="0.92.4 5da689c313, 2019-01-14"><metadata
   id="metadata17"><rdf:RDF><cc:Work
       rdf:about=""><dc:format>image/svg+xml</dc:format><dc:type
         rdf:resource="http://purl.org/dc/dcmitype/StillImage" /></cc:Work></rdf:RDF></metadata><defs
   id="defs15" /><sodipodi:namedview
   pagecolor="#ffffff"
   bordercolor="#666666"
   borderopacity="1"
   objecttolerance="10"
   gridtolerance="10"
   guidetolerance="10"
   inkscape:pageopacity="0"
   inkscape:pageshadow="2"
   inkscape:window-width="471"
   inkscape:window-height="442"
   id="namedview13"
   showgrid="false"
   inkscape:zoom="7.8666667"
   inkscape:cx="15"
   inkscape:cy="15"
   inkscape:window-x="0"
   inkscape:window-y="0"
   inkscape:window-maximized="0"
   inkscape:current-layer="Capa_1"><inkscape:grid
     type="xygrid"
     id="grid19" /></sodipodi:namedview>
<g
   id="g10">
	<path
   style="fill:#D1D1D1;"
   d="M9.019,3.21C4.038,3.21,0,7.248,0,12.229v11.236L5.771,30V18.369H2.93v-2.395h5.049v6.42   l1.041,1.529l1.04-1.529l-0.001-6.42h5.049v2.395h-2.84V30l5.771-6.535V12.229C18.038,7.248,14,3.21,9.019,3.21z"
   id="path2" />
	<path
   style="fill:#BFBFBF;"
   d="M9.019,23.924l1.04-1.529l-0.001-6.42h5.049v2.395h-2.84V30l5.771-6.535V12.229   c0-4.981-4.038-9.019-9.019-9.019c-0.005,0-0.01,0-0.015,0L9.019,23.924z"
   id="path4" />
	<path
   style="fill:#5B5B5B;"
   d="M6.039,0H12v11.416H6.039V0z"
   id="path6" />
	<path
   style="fill:#4D4D4D;"
   d="M9.004,0H12v11.416H9.004V0z"
   id="path8" />
</g>
</svg>