<?xml version="1.0" encoding="UTF-8" standalone="no"?>
<svg
   xmlns:dc="http://purl.org/dc/elements/1.1/"
   xmlns:cc="http://creativecommons.org/ns#"
   xmlns:rdf="http://www.w3.org/1999/02/22-rdf-syntax-ns#"
   xmlns:svg="http://www.w3.org/2000/svg"
   xmlns="http://www.w3.org/2000/svg"
   xmlns:sodipodi="http://sodipodi.sourceforge.net/DTD/sodipodi-0.dtd"
   xmlns:inkscape="http://www.inkscape.org/namespaces/inkscape"
   viewBox="0 0 596 179.318"
   version="1.1"
   id="svg29"
   sodipodi:docname="logo.svg"
   width="596"
   height="179.31799"
   inkscape:version="0.92.4 5da689c313, 2019-01-14">
  <metadata
     id="metadata35">
    <rdf:RDF>
      <cc:Work
         rdf:about="">
        <dc:format>image/svg+xml</dc:format>
        <dc:type
           rdf:resource="http://purl.org/dc/dcmitype/StillImage" />
      </cc:Work>
    </rdf:RDF>
  </metadata>
  <defs
     id="defs33" />
  <sodipodi:namedview
     pagecolor="#ffffff"
     bordercolor="#666666"
     borderopacity="1"
     objecttolerance="10"
     gridtolerance="10"
     guidetolerance="10"
     inkscape:pageopacity="0"
     inkscape:pageshadow="2"
     inkscape:window-width="471"
     inkscape:window-height="442"
     id="namedview31"
     showgrid="false"
     inkscape:zoom="0.45627275"
     inkscape:cx="296.9715"
     inkscape:cy="89.659003"
     inkscape:window-x="0"
     inkscape:window-y="0"
     inkscape:window-maximized="0"
     inkscape:current-layer="svg29">
    <inkscape:grid
       type="xygrid"
       id="grid37"
       originx="0"
       originy="6.8359378e-06" />
  </sodipodi:namedview>
  <linearGradient
     id="a"
     gradientUnits="userSpaceOnUse"
     x1="478.70599"
     y1="-234.162"
     x2="478.70599"
     y2="-331.92401"
     gradientTransform="matrix(1,0,0,-1,-0.09,-234.162)">
    <stop
       offset="0"
       stop-color="#33438a"
       id="stop2" />
    <stop
       offset="1"
       stop-color="#0098df"
       id="stop4" />
  </linearGradient>
  <path
     d="M 559.93,6.986 V 45.387 H 390.307 V 97.762 H 566.926 V 90.777 H 397.297 V 52.375 H 566.926 V 0 H 390.307 v 6.986 z"
     id="path7"
     inkscape:connector-curvature="0"
     style="fill:url(#a)" />
  <linearGradient
     id="b"
     gradientUnits="userSpaceOnUse"
     x1="270.465"
     y1="-234.162"
     x2="270.465"
     y2="-331.92401"
     gradientTransform="matrix(1,0,0,-1,-0.09,-234.162)">
    <stop
       offset="0"
       stop-color="#33438a"
       id="stop9" />
    <stop
       offset="1"
       stop-color="#0098df"
       id="stop11" />
  </linearGradient>
  <path
     d="M 364.131,0 V 6.986 H 274.038 V 97.762 H 176.62 v -6.985 h 90.093 V 0 Z"
     id="path14"
     inkscape:connector-curvature="0"
     style="fill:url(#b)" />
  <linearGradient
     id="c"
     gradientUnits="userSpaceOnUse"
     x1="88.400002"
     y1="-234.162"
     x2="88.400002"
     y2="-331.92401"
     gradientTransform="matrix(1,0,0,-1,-0.09,-234.162)">
    <stop
       offset="0"
       stop-color="#33438a"
       id="stop16" />
    <stop
       offset="1"
       stop-color="#0098df"
       id="stop18" />
  </linearGradient>
  <path
     d="M 6.986,97.762 V 52.375 H 176.62 V 0 H 0 V 6.873 L 169.639,6.986 V 45.387 H 0 v 52.375 z"
     id="path21"
     inkscape:connector-curvature="0"
     style="fill:url(#c)" />
  <path
     d="m 152.989,131.765 v 34.387 h 5.37 v -31.087 h 4.972 c 0,0 3.604,-0.015 4.842,1.604 1.046,1.375 1.238,3.858 1.238,5.541 0,1.803 -0.11,4.575 -0.717,5.594 -0.915,1.551 -2.41,1.859 -3.791,1.859 h -3.28 v 3.048 h 4.712 c 0,0 4.255,0.188 6.09,-1.676 2.243,-2.29 2.81,-5.348 2.81,-9.446 0,-3.736 -1.35,-7.494 -4.116,-8.763 -2.288,-1.063 -6.414,-1.063 -6.414,-1.063 z m 25.462,34.387 h 5.38 v -34.387 h -5.38 z m 31.914,-26.377 9.821,25.743 -5.636,13.8 h 4.455 l 16.228,-39.543 h -4.971 l -7.071,19.274 -6.583,-19.274 z m 27.912,26.155 v -3.242 c 0,0 5.674,0.221 6.853,0.221 2.623,0 3.927,-0.563 4.909,-1.609 0.583,-0.627 1.111,-3.439 1.111,-4.433 0,-1.008 -0.187,-3.164 -0.579,-4.039 -0.404,-0.868 -1.316,-1.675 -2.692,-1.786 -0.973,-0.09 -2.494,-0.277 -4.253,-0.364 a 6.89,6.89 0 0 1 -4.91,-2.336 c -0.776,-0.938 -1.827,-2.321 -1.827,-6.629 0,-4.286 1.11,-6.683 2.219,-7.805 1.118,-1.121 2.753,-1.612 3.999,-1.829 1.432,-0.254 3.791,-0.271 3.791,-0.271 l 7.516,0.225 v 3.245 c 0,0 -5.484,-0.211 -6.661,-0.211 -2.623,0 -3.408,0.552 -4.39,1.604 -0.574,0.634 -1.027,2.363 -1.027,3.368 0,0.988 0.117,3 0.506,3.868 0.392,0.875 1.312,1.676 2.679,1.799 0.975,0.073 2.495,0.271 4.256,0.357 2.49,0.124 4.124,1.407 4.908,2.344 0.784,0.935 1.836,2.898 1.836,7.187 0,4.289 -1.118,7.354 -2.229,8.458 -1.11,1.133 -2.74,1.626 -3.99,1.841 -1.44,0.261 -3.798,0.261 -3.798,0.261 z m 29.275,-30.865 h -5.361 v 25.23 c 0,0 0.129,2.3 0.257,3.104 0.135,0.813 1.315,2.75 4.388,2.75 l 5.561,-0.12 v -3.237 c 0,0 -1.514,0.113 -2.418,0.113 -0.921,0 -2.041,-0.067 -2.229,-1.629 -0.199,-1.543 -0.199,-3.408 -0.199,-3.408 v -14.857 h 6.056 v -3.236 h -6.056 z m 48.776,31.087 h 5.368 v -26.377 h -5.368 z m 0,-29.601 h 5.368 v -4.786 h -5.368 z m 21.325,3.006 c 3.65,0 6.482,0.821 8.005,2.052 1.535,1.236 3.418,3.829 3.418,11.353 0,7.524 -1.883,10.114 -3.418,11.363 -1.522,1.229 -4.354,2.049 -8.005,2.049 -3.658,0 -6.482,-0.82 -8.01,-2.049 -1.527,-1.249 -3.414,-3.839 -3.414,-11.363 0,-7.521 1.887,-10.114 3.414,-11.353 1.527,-1.229 4.352,-2.052 8.01,-2.052 z m -3.672,5.058 c -0.741,0.905 -1.637,2.824 -1.637,8.346 0,5.538 0.896,7.44 1.637,8.345 0.729,0.901 2.083,1.515 3.838,1.515 1.764,0 3.111,-0.611 3.859,-1.515 0.733,-0.902 1.636,-2.807 1.636,-8.345 0,-5.521 -0.901,-7.438 -1.636,-8.346 -0.748,-0.901 -2.097,-1.501 -3.859,-1.501 -1.755,0 -3.11,0.6 -3.838,1.501 z m 25.216,-1.125 5.255,-0.225 c 1.385,0 2.997,0.373 3.778,1.361 0.737,0.941 1.198,2.056 1.198,3.858 v 17.626 h 5.371 v -18.065 c 0,-3.419 -1.049,-5.396 -2.627,-6.644 -2.254,-1.789 -6.279,-1.629 -6.279,-1.629 l -12.03,0.229 v 26.106 h 5.334 z m -52.537,-8.425 h -5.374 v 25.23 c 0,0 0.127,2.3 0.26,3.104 0.131,0.813 1.303,2.75 4.381,2.75 l 5.566,-0.12 v -3.237 c 0,0 -1.509,0.113 -2.424,0.113 -0.907,0 -2.029,-0.067 -2.223,-1.629 -0.188,-1.543 -0.188,-3.408 -0.188,-3.408 v -14.857 h 6.042 v -3.236 h -6.041 z m -103.478,13.422 c 0,-1.803 -0.46,-2.917 -1.194,-3.858 -0.787,-0.988 -2.407,-1.359 -3.784,-1.359 l -7.079,0.223 v -3.486 l 8.522,-0.229 c 0,0 4.03,-0.16 6.284,1.629 1.565,1.245 2.621,3.225 2.621,6.644 v 17.813 l -10.288,0.221 c 0,0 -4.662,0.023 -7.001,-0.935 -2.29,-0.93 -3.537,-3.485 -3.537,-7.021 0,-3.415 1.052,-5.411 2.622,-6.659 2.255,-1.783 6.275,-1.61 6.275,-1.61 h 3.288 v 3.048 h -1.844 c -1.375,0 -2.795,0.253 -3.577,1.236 -0.744,0.944 -1.136,1.749 -1.136,3.55 0,2.362 0.46,3.422 1.572,4.227 0.981,0.714 2.741,0.87 4.71,0.87 l 3.546,-0.22 z m 87.481,0 c 0,-1.803 -0.453,-2.917 -1.188,-3.858 -0.793,-0.988 -2.409,-1.359 -3.782,-1.359 l -7.072,0.223 v -3.486 l 8.505,-0.229 c 0,0 4.032,-0.16 6.285,1.629 1.571,1.245 2.614,3.225 2.614,6.644 v 17.813 l -10.272,0.221 c 0,0 -4.664,0.023 -7.013,-0.935 -2.28,-0.93 -3.534,-3.485 -3.534,-7.021 0,-3.415 1.058,-5.411 2.619,-6.659 2.257,-1.783 6.288,-1.61 6.288,-1.61 h 3.278 v 3.048 h -1.843 c -1.367,0 -2.801,0.253 -3.58,1.236 -0.734,0.944 -1.135,1.749 -1.135,3.55 0,2.362 0.471,3.422 1.572,4.227 0.981,0.714 2.749,0.87 4.713,0.87 l 3.545,-0.22 z m 132.271,-12.276 c 0.068,3.962 -0.125,6.048 -1.457,8.031 -1.174,1.742 -3.498,3.331 -8.635,3.331 l -6.373,-0.189 c -1.008,0.019 -3.607,0.313 -4.84,1.632 -1.055,1.14 -1.138,1.993 -1.244,5.026 v 8.896 h 21.66 v 4.357 h -23.678 l -1.138,-0.007 c -1.609,0 -3.191,-1.092 -3.191,-3.277 v -6.636 c 0.113,-7.752 0.667,-8.863 2.351,-10.897 1.168,-1.405 3.912,-2.979 7.24,-3.146 0.656,-0.029 1.885,-0.113 3.614,-0.066 1.259,0.056 2.519,0.092 3.071,0.102 2.951,0.03 4.025,-0.514 4.833,-1.571 0.921,-1.188 1.416,-2.595 1.416,-4.896 0,-2.156 -0.44,-4.188 -1.263,-5.131 -0.994,-1.093 -1.948,-1.822 -4.717,-1.822 -7.007,-0.019 -15.182,0.167 -15.182,0.167 v -4.116 c 0,0 7.99,-0.34 16.139,-0.46 5.074,-0.087 7.872,1.262 9.295,3.118 1.503,1.932 2.032,3.761 2.099,7.554 z m -42.635,24.44 c 0,-2.401 1.811,-4.212 4.133,-4.212 2.298,0 4.106,1.811 4.106,4.212 0,2.446 -1.808,4.241 -4.106,4.241 -2.322,0 -4.133,-1.795 -4.133,-4.241 z m 4.134,5.089 c 2.766,0 5.126,-2.145 5.126,-5.088 0,-2.91 -2.36,-5.057 -5.126,-5.057 -2.79,0 -5.153,2.147 -5.153,5.057 -10e-4,2.942 2.362,5.088 5.153,5.088 z m -1.073,-4.684 h 1.021 l 1.54,2.538 h 0.995 l -1.665,-2.576 c 0.858,-0.109 1.517,-0.567 1.517,-1.611 0,-1.156 -0.685,-1.665 -2.066,-1.665 h -2.229 v 5.853 h 0.886 v -2.539 z m 0,-0.753 v -1.811 h 1.209 c 0.616,0 1.276,0.135 1.276,0.859 0,0.898 -0.673,0.952 -1.425,0.952 z"
     id="path23"
     inkscape:connector-curvature="0" />
  <g
     id="g27">
    <path
       d="m 582.075,87.92 h -3.626 v 9.842 h -1.432 V 87.92 h -3.656 v -1.265 h 8.714 z m 11.868,9.842 h -1.462 v -8.958 l -3.032,8.958 h -1.463 l -3.031,-9.005 v 9.005 h -1.463 V 86.656 h 2.025 l 3.202,9.463 3.202,-9.463 h 2.021 v 11.106 z"
       id="path25"
       inkscape:connector-curvature="0" />
  </g>
</svg>
