<?xml version="1.0" encoding="UTF-8" standalone="no"?>
<svg
   xmlns:dc="http://purl.org/dc/elements/1.1/"
   xmlns:cc="http://creativecommons.org/ns#"
   xmlns:rdf="http://www.w3.org/1999/02/22-rdf-syntax-ns#"
   xmlns:svg="http://www.w3.org/2000/svg"
   xmlns="http://www.w3.org/2000/svg"
   xmlns:sodipodi="http://sodipodi.sourceforge.net/DTD/sodipodi-0.dtd"
   xmlns:inkscape="http://www.inkscape.org/namespaces/inkscape"
   width="400"
   height="428.8656"
   version="1.1"
   id="svg54"
   sodipodi:docname="console.svg"
   inkscape:version="0.92.4 5da689c313, 2019-01-14">
  <metadata
     id="metadata58">
    <rdf:RDF>
      <cc:Work
         rdf:about="">
        <dc:format>image/svg+xml</dc:format>
        <dc:type
           rdf:resource="http://purl.org/dc/dcmitype/StillImage" />
      </cc:Work>
    </rdf:RDF>
  </metadata>
  <sodipodi:namedview
     pagecolor="#ffffff"
     bordercolor="#666666"
     borderopacity="1"
     objecttolerance="10"
     gridtolerance="10"
     guidetolerance="10"
     inkscape:pageopacity="0"
     inkscape:pageshadow="2"
     inkscape:window-width="471"
     inkscape:window-height="442"
     id="namedview56"
     showgrid="false"
     inkscape:zoom="0.55028895"
     inkscape:cx="200"
     inkscape:cy="214.43279"
     inkscape:window-x="0"
     inkscape:window-y="0"
     inkscape:window-maximized="0"
     inkscape:current-layer="svg54">
    <inkscape:grid
       type="xygrid"
       id="grid60"
       originx="0"
       originy="-1.0585938e-05" />
  </sodipodi:namedview>
  <defs
     id="defs8">
    <clipPath
       id="a">
      <path
         d="M 0,214.571 H 200.129 V 0 H 0 Z"
         id="path2"
         inkscape:connector-curvature="0" />
    </clipPath>
    <clipPath
       id="b">
      <path
         d="M 0,214.571 H 200.129 V 0 H 0 Z"
         id="path5"
         inkscape:connector-curvature="0" />
    </clipPath>
  </defs>
  <g
     clip-path="url(#a)"
     transform="matrix(1.9987118,0,0,-1.9987118,0,428.86559)"
     id="g16">
    <path
       d="M 154.5794,74.8154 H 44.7784 c -1.559,0 -2.835,1.276 -2.835,2.835 v 9.003 c 0,1.559 1.276,2.835 2.835,2.835 h 109.801 c 1.559,0 2.835,-1.276 2.835,-2.835 v -9.003 c 0,-1.559 -1.276,-2.835 -2.835,-2.835"
       id="path10"
       inkscape:connector-curvature="0"
       style="fill:#cac2b5" />
    <path
       d="M 181.2666,83.152 H 19.1526 c -1.559,0 -2.834,1.276 -2.834,2.835 v 125.75 c 0,1.559 1.275,2.834 2.834,2.834 h 162.114 c 1.559,0 2.835,-1.275 2.835,-2.834 V 85.987 c 0,-1.559 -1.276,-2.835 -2.835,-2.835"
       id="path12"
       inkscape:connector-curvature="0"
       style="fill:#efede1" />
    <path
       d="m 173.1577,95.2732 h -145.81 c -0.779,0 -1.417,0.638 -1.417,1.417 v 104.343 c 0,0.779 0.638,1.417 1.417,1.417 h 145.81 c 0.78,0 1.417,-0.638 1.417,-1.417 V 96.6902 c 0,-0.779 -0.637,-1.417 -1.417,-1.417"
       id="path14"
       inkscape:connector-curvature="0"
       style="fill:#d8d5cb" />
  </g>
  <g
     clip-path="url(#b)"
     transform="matrix(1.9987118,0,0,-1.9987118,0,428.86559)"
     id="g48">
    <path
       stroke-miterlimit="10"
       d="M 153.0653,103.8857 H 47.4403 c -7.795,0 -14.173,6.378 -14.173,14.173 v 61.606 c 0,7.795 6.378,14.173 14.173,14.173 h 105.625 c 7.795,0 14.173,-6.378 14.173,-14.173 v -61.606 c 0,-7.795 -6.378,-14.173 -14.173,-14.173 z"
       id="path18"
       inkscape:connector-curvature="0"
       style="fill:none;stroke:#4f4c4d;stroke-width:0.25;stroke-miterlimit:10" />
    <path
       d="m 141.4103,65.884 h -83.463 l 4.526,8.931 h 74.458 z"
       id="path20"
       inkscape:connector-curvature="0"
       style="fill:#e4dccb" />
    <path
       d="M 159.509,57.463 H 41.944 v 8.421 h 117.565 z"
       id="path22"
       inkscape:connector-curvature="0"
       style="fill:#efede0" />
    <path
       d="M 191.6249,0 H 8.5039 c -4.677,0 -8.504,3.827 -8.504,8.504 v 40.455 c 0,4.677 3.827,8.504 8.504,8.504 h 183.121 c 4.677,0 8.504,-3.827 8.504,-8.504 V 8.504 c 0,-4.677 -3.827,-8.504 -8.504,-8.504"
       id="path24"
       inkscape:connector-curvature="0"
       style="fill:#e4dccb" />
    <path
       d="m 14.1035,15.3564 c -1.218,0 -2.215,0.997 -2.215,2.215 v 22.32 c 0,1.218 0.997,2.215 2.215,2.215 1.218,0 2.215,-0.997 2.215,-2.215 v -22.32 c 0,-1.218 -0.997,-2.215 -2.215,-2.215 m 8.1253,0 c -1.218,0 -2.215,0.997 -2.215,2.215 v 22.32 c 0,1.218 0.997,2.215 2.215,2.215 1.218,0 2.215,-0.997 2.215,-2.215 v -22.32 c 0,-1.218 -0.997,-2.215 -2.215,-2.215 m 7.9759,0 c -1.218,0 -2.215,0.997 -2.215,2.215 v 22.32 c 0,1.218 0.997,2.215 2.215,2.215 1.218,0 2.215,-0.997 2.215,-2.215 v -22.32 c 0,-1.218 -0.997,-2.215 -2.215,-2.215 m 8.1252,0 c -1.218,0 -2.215,0.997 -2.215,2.215 v 22.32 c 0,1.218 0.997,2.215 2.215,2.215 1.218,0 2.215,-0.997 2.215,-2.215 v -22.32 c 0,-1.218 -0.997,-2.215 -2.215,-2.215 m 7.5975,0 c -1.218,0 -2.215,0.997 -2.215,2.215 v 22.32 c 0,1.218 0.997,2.215 2.215,2.215 1.218,0 2.215,-0.997 2.215,-2.215 v -22.32 c 0,-1.218 -0.997,-2.215 -2.215,-2.215 m 8.1253,0 c -1.218,0 -2.215,0.997 -2.215,2.215 v 22.32 c 0,1.218 0.997,2.215 2.215,2.215 1.218,0 2.215,-0.997 2.215,-2.215 v -22.32 c 0,-1.218 -0.997,-2.215 -2.215,-2.215"
       id="path26"
       inkscape:connector-curvature="0"
       style="fill:#c0ba9f" />
    <path
       d="M 188.5454,8.1831 H 69.9584 c -1.559,0 -2.835,1.276 -2.835,2.835 v 35.427 c 0,1.559 1.276,2.835 2.835,2.835 h 118.587 c 1.559,0 2.835,-1.276 2.835,-2.835 v -35.427 c 0,-1.559 -1.276,-2.835 -2.835,-2.835"
       id="path28"
       inkscape:connector-curvature="0"
       style="fill:#666870" />
    <path
       stroke-miterlimit="10"
       d="M 188.5454,8.1831 H 69.9584 c -1.559,0 -2.835,1.276 -2.835,2.835 v 35.427 c 0,1.559 1.276,2.835 2.835,2.835 h 118.587 c 1.559,0 2.835,-1.276 2.835,-2.835 v -35.427 c 0,-1.559 -1.276,-2.835 -2.835,-2.835 z"
       id="path30"
       inkscape:connector-curvature="0"
       style="fill:none;stroke:#4f4c4d;stroke-width:0.5;stroke-miterlimit:10" />
    <path
       d="m 122.3736,25.8304 h -48.415 c -0.78,0 -1.417,0.638 -1.417,1.417 v 2.968 c 0,0.779 0.637,1.417 1.417,1.417 h 48.415 c 0.78,0 1.417,-0.638 1.417,-1.417 v -2.968 c 0,-0.779 -0.637,-1.417 -1.417,-1.417"
       id="path32"
       inkscape:connector-curvature="0"
       style="fill:#201d1d" />
    <path
       d="M 101.253,22.204 H 88.199 v 13.054 h 13.054 z"
       id="path34"
       inkscape:connector-curvature="0"
       style="fill:#201d1d" />
    <path
       d="m 84.562,22.204 h -4.636 v 13.054 h 4.636 z"
       id="path36"
       inkscape:connector-curvature="0"
       style="fill:#525458" />
    <path
       d="m 179.0843,25.8304 h -48.415 c -0.78,0 -1.417,0.638 -1.417,1.417 v 2.968 c 0,0.779 0.637,1.417 1.417,1.417 h 48.415 c 0.78,0 1.417,-0.638 1.417,-1.417 v -2.968 c 0,-0.779 -0.637,-1.417 -1.417,-1.417"
       id="path38"
       inkscape:connector-curvature="0"
       style="fill:#201d1d" />
    <path
       d="m 186.9229,25.6823 h -3.115 c -0.78,0 -1.418,0.638 -1.418,1.417 v 3.116 c 0,0.779 0.638,1.417 1.418,1.417 h 3.115 c 0.78,0 1.417,-0.638 1.417,-1.417 v -3.116 c 0,-0.779 -0.637,-1.417 -1.417,-1.417"
       id="path40"
       inkscape:connector-curvature="0"
       style="fill:#525458" />
    <path
       d="m 185.3652,31.7064 h 1.558 c 0.779,0 1.417,-0.638 1.417,-1.417 v -3.116 c 0,-0.779 -0.638,-1.417 -1.417,-1.417 l -1.558,-0.074"
       id="path42"
       inkscape:connector-curvature="0"
       style="fill:#201d1d" />
    <path
       d="m 188.34,10.638 h -5.95 v 5.95 h 5.95 z"
       id="path44"
       inkscape:connector-curvature="0"
       style="fill:#cac2b5" />
    <path
       d="m 187.76,11.323 h -1.815 v 1.815 h 1.815 z"
       id="path46"
       inkscape:connector-curvature="0"
       style="fill:#1f70c1" />
  </g>
  <path
     d="m 91.486275,220.45741 c -11.2883,-1.36593 -20.72304,-9.77108 -23.601552,-21.02595 -0.905942,-3.54221 -0.931783,-5.44019 -0.92382,-67.85133 0.0091,-71.27948 -0.140438,-67.768872 3.166943,-74.35087 2.346208,-4.66918 7.150415,-9.55251 11.730043,-11.92323 6.638021,-3.43628 -3.142146,-3.17496 118.595211,-3.16875 91.55008,0.005 110.11528,0.11293 112.14727,0.65396 9.83491,2.61859 17.47643,10.19943 20.29446,20.133295 0.81393,2.869186 0.8604,6.562495 0.8604,68.377215 0,60.94209 -0.056,65.54686 -0.83108,68.35224 -2.68507,9.71849 -10.13982,17.26282 -19.97159,20.21163 -2.62968,0.78871 -8.88303,0.83955 -110.59344,0.89942 -59.29338,0.0349 -109.186162,-0.10361 -110.872845,-0.30763 z"
     id="path50"
     inkscape:connector-curvature="0"
     style="fill:#ffffff" />
  <path
     d="m 82.339283,84.242629 v 6.460388 h 45.944237 v -6.460388 z m 52.453347,0 v 6.460388 h 65.47278 c 0,0 -6.68812,-6.460388 -15.54541,-6.460388 z m 78.31612,0 v 6.460388 h 39.6104 l -2.35109,-6.460388 z m 68.00871,0 -2.35066,6.460388 h 39.24985 V 84.242629 Z M 82.339283,96.804933 v 6.460387 h 45.944237 v -6.460387 z m 52.453347,0.0091 v 6.450397 h 73.07062 c 0,0 -0.85435,-4.971547 -2.34193,-6.450397 z m 78.31612,0 v 6.450397 h 43.95327 l -2.17705,-6.450397 z m 63.30612,0 -2.17621,6.450397 h 43.77675 V 96.814078 H 276.41487 Z M 95.54234,109.36722 v 6.46788 h 19.89743 v -6.46788 z m 52.45376,0 v 6.46788 h 19.897 v -6.46788 z m 39.25069,0 v 6.46788 h 19.89702 c 0,0 1.26317,-3.41609 1.26317,-6.46788 z m 39.06543,0 v 6.46788 h 35.27671 l -2.35151,-6.46788 z m 45.76937,0 -2.36067,6.46788 h 35.45156 v -6.46788 z M 95.54234,121.9391 v 6.46039 h 19.89743 v -6.46039 z m 52.45376,0 v 6.46039 h 50.82168 c 0,0 4.25128,-3.3145 5.60605,-6.46039 z m 78.31612,0 v 6.46039 h 19.89742 v -3.59678 l 1.26277,3.59637 h 36.44788 l 1.35561,-3.59637 v 3.59637 h 19.89658 v -6.45998 h -37.3505 l -1.98263,5.47241 -1.99135,-5.47241 z M 95.54234,134.50141 v 6.46039 h 19.89743 v -6.46039 z m 52.45376,0 v 6.46039 h 56.42815 c -1.35561,-3.13465 -5.60605,-6.46039 -5.60605,-6.46039 z m 78.31612,0 v 6.46039 h 19.89742 v -6.46039 z m 23.51211,0 2.40604,6.46039 h 27.32913 l 2.28656,-6.46039 z m 35.45157,0 v 6.46039 h 19.89658 v -6.46039 z m -189.73356,12.5623 v 6.45956 h 19.89743 v -6.45956 z m 52.45376,0 v 6.45956 h 19.897 v -6.45956 z m 39.25069,0 v 6.45956 h 21.16019 c 0,-3.04847 -1.26317,-6.45956 -1.26317,-6.45956 z m 39.06543,0 v 6.45956 h 19.89742 v -6.45956 z m 28.02984,0 2.33235,6.45956 h 18.32157 l 2.35026,-6.45956 z m 30.93384,0 v 6.45956 h 19.89658 v -6.45956 z M 82.698587,159.62685 v 6.46872 h 45.944653 v -6.46872 z m 52.094043,0 v 6.46872 h 70.72869 c 1.48758,-1.4826 2.34193,-6.46872 2.34193,-6.46872 z m 78.67667,0 v 6.46872 h 32.74159 v -6.46872 z m 45.39965,0 2.3973,6.46872 h 9.3215 l 2.24991,-6.46872 z m 26.40695,0 v 6.46872 h 33.10006 v -6.46872 z M 82.698587,172.19791 v 6.46038 h 45.944653 v -6.46038 z m 52.094043,0 v 6.45039 H 184.72 c 8.8577,0 15.54541,-6.45039 15.54541,-6.45039 z m 78.67667,0 v 6.46038 h 32.74159 v -6.46038 z m 49.94528,0 2.30447,6.44249 0.39677,0.008 2.34193,-6.45041 -5.04317,-8.3e-4 z m 21.86132,0 v 6.46038 h 33.10006 v -6.46038 z"
     id="path52"
     inkscape:connector-curvature="0"
     style="fill:#1f70c1" />
</svg>
