<?xml version="1.0" encoding="UTF-8" standalone="no"?>
<svg
   xmlns:dc="http://purl.org/dc/elements/1.1/"
   xmlns:cc="http://creativecommons.org/ns#"
   xmlns:rdf="http://www.w3.org/1999/02/22-rdf-syntax-ns#"
   xmlns:svg="http://www.w3.org/2000/svg"
   xmlns="http://www.w3.org/2000/svg"
   xmlns:sodipodi="http://sodipodi.sourceforge.net/DTD/sodipodi-0.dtd"
   xmlns:inkscape="http://www.inkscape.org/namespaces/inkscape"
   width="88.886208"
   height="200"
   version="1.1"
   id="svg51"
   sodipodi:docname="controller.svg"
   inkscape:version="0.92.4 5da689c313, 2019-01-14">
  <metadata
     id="metadata55">
    <rdf:RDF>
      <cc:Work
         rdf:about="">
        <dc:format>image/svg+xml</dc:format>
        <dc:type
           rdf:resource="http://purl.org/dc/dcmitype/StillImage" />
      </cc:Work>
    </rdf:RDF>
  </metadata>
  <sodipodi:namedview
     pagecolor="#ffffff"
     bordercolor="#666666"
     borderopacity="1"
     objecttolerance="10"
     gridtolerance="10"
     guidetolerance="10"
     inkscape:pageopacity="0"
     inkscape:pageshadow="2"
     inkscape:window-width="471"
     inkscape:window-height="442"
     id="namedview53"
     showgrid="false"
     inkscape:zoom="1.18"
     inkscape:cx="44.443104"
     inkscape:cy="100"
     inkscape:window-x="0"
     inkscape:window-y="0"
     inkscape:window-maximized="0"
     inkscape:current-layer="svg51">
    <inkscape:grid
       type="xygrid"
       id="grid57"
       originx="1.9995767e-12"
       originy="-3.5978923e-07" />
  </sodipodi:namedview>
  <defs
     id="defs5">
    <clipPath
       id="a">
      <path
         d="M 0,398.861 H 177.267 V 0 H 0 Z"
         id="path2"
         inkscape:connector-curvature="0" />
    </clipPath>
  </defs>
  <g
     clip-path="url(#a)"
     transform="matrix(0.50142802,0,0,-0.50142802,-2.0057121e-4,200.00008)"
     id="g49">
    <path
       d="m 65.739,62.8189 c 5.204,10e-4 10.409,0.007 15.613,-0.002 1.674,-0.003 1.813,-0.23 1.058,-1.719 -2.723,-5.364 -4.712,-11.008 -5.843,-16.895 -1.27,-6.606 -1.549,-13.273 -0.792,-20.01 0.893,-7.95 3.178,-15.425 6.759,-22.542 0.586,-1.165 0.347,-1.574 -1.004,-1.576 -10.271,-0.012 -20.548,-0.19 -30.814,0.05 -11.864,0.277 -21.823,8.552 -24.573,20.029 -0.434,1.81 -0.733,3.656 -0.701,5.553 0.065,3.697 0.015,7.395 0.019,11.093 0.015,11.609 7.501,21.654 18.615,24.947 2.326,0.69 4.707,1.078 7.145,1.073 4.84,-0.008 9.679,-0.002 14.518,-10e-4"
       id="path7"
       inkscape:connector-curvature="0"
       style="fill:#666870" />
    <path
       d="m 97.4094,36.5225 c -2.419,0 -4.841,-0.074 -7.257,0.021 -2.247,0.089 -3.796,-0.917 -4.746,-2.82 -0.513,-1.026 -1.187,-1.376 -2.263,-1.333 -1.321,0.054 -2.648,0.058 -3.97,10e-4 -1.237,-0.054 -1.706,0.449 -1.689,1.691 0.074,5.241 1.053,10.33 2.466,15.35 1.192,4.236 2.984,8.229 5.014,12.122 0.356,0.682 0.765,1.242 1.63,1.254 4.38,0.058 8.78,0.242 12.994,-1.289 9.033,-3.281 14.81,-9.589 17.231,-18.878 0.691,-2.649 0.853,-5.408 0.672,-8.156 -0.071,-1.067 0.33,-1.485 1.388,-1.467 1.642,0.027 3.286,-0.079 4.927,-0.033 4.083,0.117 7.516,-1.397 10.32,-4.252 2.334,-2.376 5.135,-3.375 8.365,-3.426 1.734,-0.028 3.469,-0.041 5.203,10e-4 1.107,0.027 1.407,-0.514 1.399,-1.518 -0.007,-0.963 -0.205,-1.602 -1.352,-1.56 -2.597,0.094 -5.205,-0.196 -7.793,0.171 -3.095,0.438 -5.717,1.862 -7.87,4.085 -2.299,2.373 -5.059,3.481 -8.334,3.427 -1.506,-0.025 -3.016,-0.068 -4.518,0.015 -1.303,0.071 -1.808,-0.397 -1.738,-1.723 0.219,-4.159 -0.332,-8.231 -2.051,-12.036 -4.038,-8.941 -10.867,-14.316 -20.645,-15.83 -2.638,-0.408 -5.282,-0.212 -7.924,-0.276 -0.887,-0.022 -1.398,0.387 -1.811,1.167 -3.69,6.958 -6.249,14.261 -7.1,22.137 -0.2,1.86 -0.479,3.7 -0.473,5.579 0.004,1.115 0.456,1.571 1.559,1.542 1.505,-0.039 3.013,-0.031 4.518,0 0.822,0.016 1.377,-0.256 1.728,-1.041 0.989,-2.21 2.741,-3.133 5.141,-3.108 4.701,0.05 9.403,0.046 14.104,0.003 2.303,-0.021 3.962,0.896 4.907,3.005 0.367,0.818 0.955,1.151 1.831,1.137 1.461,-0.023 2.922,-0.004 4.382,0.002 0.619,0.002 1.225,0.028 1.261,0.88 0.039,0.908 -0.547,1.035 -1.255,1.034 -1.461,-0.002 -2.922,0.024 -4.382,-0.002 -0.829,-0.015 -1.349,0.316 -1.726,1.066 -1.057,2.106 -2.696,3.203 -5.16,3.082 -2.323,-0.113 -4.655,-0.024 -6.983,-0.024"
       id="path9"
       inkscape:connector-curvature="0"
       style="fill:#d8d5cb" />
    <path
       d="m 100.3676,28.2979 c -1.32,-10e-4 -2.642,-0.035 -3.961,0.007 -1.967,0.062 -3.492,1.509 -3.434,3.197 0.059,1.738 1.552,3.072 3.515,3.087 2.641,0.021 5.282,0.027 7.923,-0.002 2.116,-0.023 3.413,-1.203 3.464,-3.074 0.047,-1.691 -1.453,-3.134 -3.409,-3.205 -1.365,-0.049 -2.732,-0.009 -4.098,-0.01"
       id="path11"
       inkscape:connector-curvature="0"
       style="fill:#666870" />
    <path
       stroke-miterlimit="10"
       d="m 100.3676,28.2979 c -1.32,-10e-4 -2.642,-0.035 -3.961,0.007 -1.967,0.062 -3.492,1.509 -3.434,3.197 0.059,1.738 1.552,3.072 3.515,3.087 2.641,0.021 5.282,0.027 7.923,-0.002 2.116,-0.023 3.413,-1.203 3.464,-3.074 0.047,-1.691 -1.453,-3.134 -3.409,-3.205 -1.365,-0.049 -2.732,-0.009 -4.098,-0.01 z"
       id="path13"
       inkscape:connector-curvature="0"
       style="fill:none;stroke:#4f4c4d;stroke-width:0.5;stroke-miterlimit:10" />
    <path
       d="m 108.413,398.8612 h 23.256 c 7.795,0 14.173,-6.378 14.173,-14.173 v -282.907 c 0,-7.795 -6.378,-14.173 -14.173,-14.173 h -23.256"
       id="path15"
       inkscape:connector-curvature="0"
       style="fill:#d8d5cb" />
    <path
       d="m 37.4294,87.6082 h -23.256 c -7.795,0 -14.173,6.378 -14.173,14.173 v 282.907 c 0,7.795 6.378,14.173 14.173,14.173 h 23.256"
       id="path17"
       inkscape:connector-curvature="0"
       style="fill:#cac2b5" />
    <path
       d="m 11.1573,101.7814 v 282.907 c 0,7.795 6.378,14.173 14.173,14.173 h 95.555 c 7.796,0 14.174,-6.378 14.174,-14.173 v -282.907 c 0,-7.795 -6.378,-14.173 -14.174,-14.173 h -95.555 c -7.795,0 -14.173,6.378 -14.173,14.173"
       id="path19"
       inkscape:connector-curvature="0"
       style="fill:#efede1" />
    <path
       d="m 113.581,378.958 h 9.956 v -15.299 h -9.956 z m 0,-20.947 h 9.956 v -15.299 h -9.956 z"
       id="path21"
       inkscape:connector-curvature="0"
       style="fill:#c0ba9f" />
    <path
       d="m 113.581,337.51 h 9.956 v -15.299 h -9.956 z m 0,-21.113 h 9.956 v -15.299 h -9.956 z m 0,-21.112 h 9.956 v -15.299 h -9.956 z m 0,-20.755 h 9.956 v -15.299 h -9.956 z"
       id="path23"
       inkscape:connector-curvature="0"
       style="fill:#666870" />
    <path
       d="m 113.581,253.723 h 9.956 v -15.299 h -9.956 z m 0,-21.112 h 9.956 v -15.299 h -9.956 z m 0,-20.807 h 9.956 v -15.299 h -9.956 z"
       id="path25"
       inkscape:connector-curvature="0"
       style="fill:#c0ba9f" />
    <path
       d="m 87.267,378.958 h 15.299 V 363.659 H 87.267 Z m -21.171,0 H 81.395 V 363.659 H 66.096 Z"
       id="path27"
       inkscape:connector-curvature="0"
       style="fill:#cac2b5" />
    <path
       d="m 87.267,358.011 h 15.299 V 342.712 H 87.267 Z m 0,-20.501 h 15.299 V 322.211 H 87.267 Z m 0,-21.113 h 15.299 V 301.098 H 87.267 Z m 0,-21.112 h 15.299 V 279.986 H 87.267 Z m 0,-20.755 h 15.299 V 259.231 H 87.267 Z m 0,-20.807 h 15.299 V 238.424 H 87.267 Z m 0,-21.112 h 15.299 V 217.312 H 87.267 Z m -21.171,125.4 H 81.395 V 342.712 H 66.096 Z m 0,-20.501 H 81.395 V 322.211 H 66.096 Z m 0,-21.113 H 81.395 V 301.098 H 66.096 Z m 0,-21.112 H 81.395 V 279.986 H 66.096 Z m 0,-20.755 H 81.395 V 259.231 H 66.096 Z m 0,-20.807 H 81.395 V 238.424 H 66.096 Z M 45.348,337.51 H 60.647 V 322.211 H 45.348 Z m 0,-21.113 H 60.647 V 301.098 H 45.348 Z m 0,-21.112 H 60.647 V 279.986 H 45.348 Z m 0,-20.755 H 60.647 V 259.231 H 45.348 Z m 0,-20.807 H 60.647 V 238.424 H 45.348 Z M 24.177,378.958 H 39.476 V 363.659 H 24.177 Z m 0,-146.347 H 39.476 V 217.312 H 24.177 Z m 0,-20.807 H 39.476 V 196.505 H 24.177 Z m 0,-23.722 H 39.476 V 172.783 H 24.177 Z m 0,-21.112 H 39.476 V 151.671 H 24.177 Z m 21.171,0 H 60.647 V 151.671 H 45.348 Z"
       id="path29"
       inkscape:connector-curvature="0"
       style="fill:#c0ba9f" />
    <path
       d="M 45.348,125.356 H 60.647 V 110.057 H 45.348 Z"
       id="path31"
       inkscape:connector-curvature="0"
       style="fill:#cac2b5" />
    <path
       d="M 24.177,145.857 H 39.476 V 130.558 H 24.177 Z"
       id="path33"
       inkscape:connector-curvature="0"
       style="fill:#c0ba9f" />
    <path
       d="M 24.177,125.356 H 39.476 V 110.057 H 24.177 Z m 41.919,0 H 81.395 V 110.057 H 66.096 Z"
       id="path35"
       inkscape:connector-curvature="0"
       style="fill:#cac2b5" />
    <path
       d="m 87.267,125.356 h 15.299 V 110.057 H 87.267 Z m 0,20.501 h 15.299 V 130.558 H 87.267 Z m 0,21.113 h 15.299 V 151.671 H 87.267 Z m 0,21.112 h 15.299 V 172.783 H 87.267 Z"
       id="path37"
       inkscape:connector-curvature="0"
       style="fill:#666870" />
    <path
       d="M 45.348,378.958 H 60.647 V 342.712 H 45.348 Z m 0,-146.347 H 60.647 V 196.365 H 45.348 Z"
       id="path39"
       inkscape:connector-curvature="0"
       style="fill:#cac2b5" />
    <path
       d="M 66.096,232.611 H 81.395 V 196.365 H 66.096 Z"
       id="path41"
       inkscape:connector-curvature="0"
       style="fill:#666870" />
    <path
       d="m 66.32,211.664 h 36.246 V 196.365 H 66.32 Z M 24.177,358.011 H 39.476 V 238.425 H 24.177 Z M 118.5821,141.45 c -4.263,0 -7.719,3.456 -7.719,7.719 0,4.263 3.456,7.719 7.719,7.719 4.263,0 7.719,-3.456 7.719,-7.719 0,-4.263 -3.456,-7.719 -7.719,-7.719"
       id="path43"
       inkscape:connector-curvature="0"
       style="fill:#666870" />
    <path
       d="m 118.6046,120.702 c -4.263,0 -7.719,3.456 -7.719,7.719 0,4.263 3.456,7.719 7.719,7.719 4.263,0 7.719,-3.456 7.719,-7.719 0,-4.263 -3.456,-7.719 -7.719,-7.719"
       id="path45"
       inkscape:connector-curvature="0"
       style="fill:#1f70c1" />
    <path
       d="m 145.8423,255.367 c 7.046,0.201 7.603,-1.91 12.442,-6.837 4.027,-4.1 8.861,-5.824 14.434,-5.912 2.992,-0.047 -0.858,-0.102 2.134,-0.029 1.911,0.047 2.427,-0.888 2.414,-2.621 -0.013,-1.661 -0.355,-2.763 -2.333,-2.691 -4.481,0.163 -2.136,-0.306 -6.602,0.327 -5.341,0.756 -9.866,3.214 -13.581,7.049 -3.967,4.095 -3.257,5.01 -8.908,4.916"
       id="path47"
       inkscape:connector-curvature="0"
       style="fill:#d8d5cb" />
  </g>
</svg>
