<?xml version="1.0" encoding="UTF-8" standalone="no"?>
<!-- Generator: Adobe Illustrator 22.0.0, SVG Export Plug-In . SVG Version: 6.00 Build 0)  -->

<svg
   xmlns:dc="http://purl.org/dc/elements/1.1/"
   xmlns:cc="http://creativecommons.org/ns#"
   xmlns:rdf="http://www.w3.org/1999/02/22-rdf-syntax-ns#"
   xmlns:svg="http://www.w3.org/2000/svg"
   xmlns="http://www.w3.org/2000/svg"
   xmlns:sodipodi="http://sodipodi.sourceforge.net/DTD/sodipodi-0.dtd"
   xmlns:inkscape="http://www.inkscape.org/namespaces/inkscape"
   version="1.1"
   id="Capa_1"
   x="0px"
   y="0px"
   viewBox="0 0 200 200"
   enable-background="new 0 0 200 200"
   xml:space="preserve"
   sodipodi:docname="game.svg"
   width="200"
   height="200"
   inkscape:version="0.92.4 5da689c313, 2019-01-14"><metadata
   id="metadata37"><rdf:RDF><cc:Work
       rdf:about=""><dc:format>image/svg+xml</dc:format><dc:type
         rdf:resource="http://purl.org/dc/dcmitype/StillImage" /></cc:Work></rdf:RDF></metadata><defs
   id="defs35" /><sodipodi:namedview
   pagecolor="#ffffff"
   bordercolor="#666666"
   borderopacity="1"
   objecttolerance="10"
   gridtolerance="10"
   guidetolerance="10"
   inkscape:pageopacity="0"
   inkscape:pageshadow="2"
   inkscape:window-width="471"
   inkscape:window-height="442"
   id="namedview33"
   showgrid="false"
   inkscape:zoom="1.18"
   inkscape:cx="99.9801"
   inkscape:cy="100.0099"
   inkscape:window-x="0"
   inkscape:window-y="0"
   inkscape:window-maximized="0"
   inkscape:current-layer="Capa_1" />
<g
   id="g30"
   transform="translate(-0.0199,-0.0099)">
	<g
   id="g14">
		<g
   id="g20"
   transform="translate(172.0199,86.0099)">
			<path
   d="m -72,-86 c -55.2,0 -100,44.8 -100,100 0,55.2 44.8,100 100,100 C -16.8,114 28,69.2 28,14 28,-41.2 -16.8,-86 -72,-86 Z m -0.2,113.9 c -8.2,0 -14.3,-6.7 -14.7,-14.7 -0.4,-7.9 7,-14.7 14.7,-14.7 8.2,0 14.3,6.7 14.7,14.7 0.3,7.9 -7,14.7 -14.7,14.7 z"
   id="path2"
   inkscape:connector-curvature="0"
   style="fill:#231f20" />
		</g>
		<g
   id="g24"
   transform="translate(150.1937,36.812)">
			<path
   id="path26"
   d="m 24.4,120.4 c -17.2,22.4 -44.2,36.8 -74.6,36.8 -30.4,0 -57.4,-14.4 -74.6,-36.8 -12.2,-15.8 -19.4,-35.7 -19.4,-57.2 0,-51.9 42.1,-94 94,-94 51.9,0 94.1,42.1 94.1,94 0,21.5 -7.3,41.4 -19.5,57.2 z M -50.2,-35.2 c -54.3,0 -98.4,44 -98.4,98.4 0,54.4 44,98.4 98.4,98.4 54.3,0 98.4,-44 98.4,-98.4 0,-54.4 -44.1,-98.4 -98.4,-98.4"
   inkscape:connector-curvature="0"
   style="fill:#ffffff" />
		</g>
		<g
   id="g32"
   transform="translate(86.0001,59.9826)">
			<path
   id="path34"
   d="M 14,70.3 C -2.7,70.3 -16.2,56.7 -16.2,40 -16.2,23.3 -2.7,9.7 14,9.7 30.7,9.7 44.3,23.3 44.3,40 44.3,56.7 30.7,70.3 14,70.3 M -60.6,97.2 H 88.6 C 100.8,81.4 108,61.5 108,40 c 0,-51.9 -42.1,-94 -94.1,-94 -51.9,0 -94,42.1 -94,94 0.1,21.5 7.3,41.4 19.5,57.2"
   inkscape:connector-curvature="0"
   style="fill:#6e6f71" />
		</g>
		<g
   id="g36"
   transform="translate(86.0001,61.9003)">
			<path
   id="path38"
   d="m 14,66.1 c -15.5,0 -28,-12.6 -28,-28 0,-15.4 12.6,-28 28,-28 15.4,0 28.1,12.5 28.1,28 0,15.5 -12.6,28 -28.1,28 M 14,7.8 c -16.7,0 -30.2,13.6 -30.2,30.3 0,16.7 13.5,30.3 30.2,30.3 16.7,0 30.3,-13.6 30.3,-30.3 C 44.3,21.4 30.7,7.8 14,7.8"
   inkscape:connector-curvature="0"
   style="fill:#1f70c1" />
		</g>
		<g
   id="g40"
   transform="translate(86.0001,63.4424)">
			<path
   id="path42"
   d="M 14,62.8 C -0.5,62.8 -12.2,51 -12.2,36.6 -12.2,22.1 -0.5,10.4 14,10.4 28.5,10.4 40.2,22.1 40.2,36.6 40.2,51 28.5,62.8 14,62.8 M 14,8.5 c -15.5,0 -28,12.6 -28,28 0,15.4 12.6,28 28,28 15.4,0 28.1,-12.5 28.1,-28 C 42.1,21 29.5,8.5 14,8.5"
   inkscape:connector-curvature="0"
   style="fill:#918f90" />
		</g>
		<g
   id="g44"
   transform="translate(86.0001,74.1182)">
			<path
   d="m 14,-0.4 c -14.5,0 -26.2,11.7 -26.2,26.2 0,14.5 11.7,26.3 26.2,26.3 14.5,0 26.2,-11.8 26.2,-26.3 C 40.2,11.4 28.5,-0.4 14,-0.4 Z m 1.9,40 c -0.7,0.1 -1.4,0.2 -2.1,0.2 C 5.6,39.7 -0.5,33 -0.8,25.1 -1,20.7 1.2,16.7 4.4,14 7,11.8 10.3,10.4 14,10.4 c 8.1,0 14.7,6.6 14.7,14.7 0,7.4 -5.6,13.5 -12.8,14.5 z"
   id="path13"
   inkscape:connector-curvature="0"
   style="fill:#4f4c4d" />
		</g>
		<g
   id="g48"
   transform="translate(86.0001,74.1182)">
			<path
   stroke-miterlimit="10"
   d="m 14,-0.4 c -14.5,0 -26.2,11.7 -26.2,26.2 0,14.5 11.7,26.3 26.2,26.3 14.5,0 26.2,-11.8 26.2,-26.3 C 40.2,11.4 28.5,-0.4 14,-0.4 Z m 1.9,40 c -0.7,0.1 -1.4,0.2 -2.1,0.2 C 5.6,39.7 -0.5,33 -0.8,25.1 -1,20.7 1.2,16.7 4.4,14 7,11.8 10.3,10.4 14,10.4 c 8.1,0 14.7,6.6 14.7,14.7 0,7.4 -5.6,13.5 -12.8,14.5 z"
   id="path16"
   inkscape:connector-curvature="0"
   style="fill:none;stroke:#353132;stroke-width:1.83889997;stroke-miterlimit:10" />
		</g>
		<g
   id="g52"
   transform="translate(120.2069,46.6753)">
		</g>
		<g
   id="g56"
   transform="translate(96.6313,34.6915)">
		</g>
		<g
   id="g60"
   transform="translate(57.4432,34.3568)">
		</g>
		<g
   id="g64"
   transform="translate(66.1619,36.1176)">
		</g>
		<g
   id="g68"
   transform="translate(73.8872,33.7205)">
		</g>
		<g
   id="g72"
   transform="translate(95.358,34.037)">
		</g>
		<g
   id="g76"
   transform="translate(84.9848,36.4939)">
		</g>
		<g
   id="g80"
   transform="translate(110.4707,40.2041)">
		</g>
		<g
   id="g84"
   transform="translate(103.1266,48.8373)">
		</g>
	</g>
	<path
   id="path4059"
   inkscape:connector-curvature="0"
   d="m 69.6,160.4 v 1.7 h 11.8 v -1.7 z m 13.5,0 v 1.7 H 100 c 0,0 -1.7,-1.7 -4,-1.7 z m 20.2,0 v 1.7 h 10.2 l -0.6,-1.7 z m 17.5,0 -0.6,1.7 h 10.1 v -1.7 z m -51.2,3.3 v 1.7 h 11.8 v -1.7 z m 13.5,0 v 1.7 h 18.8 c 0,0 -0.2,-1.3 -0.6,-1.7 z m 20.2,0 v 1.7 h 11.3 l -0.6,-1.7 z m 16.3,0 -0.6,1.7 h 11.3 v -1.7 z M 73,166.9 v 1.7 h 5.1 v -1.7 z m 13.5,0 v 1.7 h 5.1 v -1.7 z m 10.1,0 v 1.7 h 5.1 c 0,0 0.3,-0.9 0.3,-1.7 z m 10.1,0 v 1.7 h 9.1 l -0.6,-1.7 z m 11.8,0 -0.6,1.7 h 9.1 v -1.7 z M 73,170.1 v 1.7 h 5.1 v -1.7 z m 13.5,0 v 1.7 h 13.1 c 0,0 1.1,-0.9 1.4,-1.7 z m 20.2,0 v 1.7 h 5.1 v -0.9 l 0.3,0.9 h 9.4 l 0.3,-0.9 v 0.9 h 5.1 v -1.7 h -9.6 l -0.5,1.4 -0.5,-1.4 z M 73,173.4 v 1.7 h 5.1 v -1.7 z m 13.5,0 v 1.7 H 101 c -0.3,-0.8 -1.4,-1.7 -1.4,-1.7 z m 20.2,0 v 1.7 h 5.1 v -1.7 z m 6,0 0.6,1.7 h 7 l 0.6,-1.7 z m 9.2,0 v 1.7 h 5.1 v -1.7 z M 73,176.6 v 1.7 h 5.1 v -1.7 z m 13.5,0 v 1.7 h 5.1 v -1.7 z m 10.1,0 v 1.7 h 5.5 c 0,-0.8 -0.3,-1.7 -0.3,-1.7 z m 10.1,0 v 1.7 h 5.1 v -1.7 z m 7.2,0 0.6,1.7 h 4.7 l 0.6,-1.7 z m 8,0 v 1.7 h 5.1 v -1.7 z m -52.3,3.3 v 1.7 h 11.8 v -1.7 z m 13.5,0 v 1.7 h 18.2 c 0.4,-0.4 0.6,-1.7 0.6,-1.7 z m 20.3,0 v 1.7 h 8.4 v -1.7 z m 11.7,0 0.6,1.7 h 2.4 l 0.6,-1.7 z m 6.8,0 v 1.7 h 8.5 v -1.7 z m -52.3,3.2 v 1.7 h 11.8 v -1.7 z m 13.5,0 v 1.7 H 96 c 2.3,0 4,-1.7 4,-1.7 z m 20.3,0 v 1.7 h 8.4 v -1.7 z m 12.9,0 0.6,1.7 h 0.1 l 0.6,-1.7 h -1.3 z m 5.6,0 v 1.7 h 8.5 v -1.7 z"
   style="fill:#1f70c1" />
</g>
</svg>