<?xml version="1.0" encoding="UTF-8" standalone="no"?>
<svg
   xmlns:dc="http://purl.org/dc/elements/1.1/"
   xmlns:cc="http://creativecommons.org/ns#"
   xmlns:rdf="http://www.w3.org/1999/02/22-rdf-syntax-ns#"
   xmlns:svg="http://www.w3.org/2000/svg"
   xmlns="http://www.w3.org/2000/svg"
   xmlns:sodipodi="http://sodipodi.sourceforge.net/DTD/sodipodi-0.dtd"
   xmlns:inkscape="http://www.inkscape.org/namespaces/inkscape"
   viewBox="0 0 28.000001 11.20003"
   version="1.1"
   id="svg4"
   sodipodi:docname="icon_filled2.svg"
   width="28"
   height="11.20003"
   inkscape:version="0.92.4 5da689c313, 2019-01-14">
  <metadata
     id="metadata10">
    <rdf:RDF>
      <cc:Work
         rdf:about="">
        <dc:format>image/svg+xml</dc:format>
        <dc:type
           rdf:resource="http://purl.org/dc/dcmitype/StillImage" />
      </cc:Work>
    </rdf:RDF>
  </metadata>
  <defs
     id="defs8" />
  <sodipodi:namedview
     pagecolor="#ffffff"
     bordercolor="#666666"
     borderopacity="1"
     objecttolerance="10"
     gridtolerance="10"
     guidetolerance="10"
     inkscape:pageopacity="0"
     inkscape:pageshadow="2"
     inkscape:window-width="640"
     inkscape:window-height="480"
     id="namedview6"
     showgrid="false"
     inkscape:zoom="7.8666662"
     inkscape:cx="14.918652"
     inkscape:cy="5.000909"
     inkscape:window-x="0"
     inkscape:window-y="0"
     inkscape:window-maximized="0"
     inkscape:current-layer="svg4" />
  <path
     d="M 0,0 V 0.76637 H 5.450164 V 0 Z m 6.22231,0 v 0.76637 h 7.76675 C 13.98906,0.76637 13.195677,0 12.144978,0 Z m 9.290299,0 V 0.76637 H 20.21142 L 19.932521,0 Z m 8.067578,0 -0.278849,0.76637 h 4.656039 V 0 Z M 0,1.4902101 v 0.76637 h 5.450164 v -0.76637 z m 6.22231,10e-4 v 0.76518 h 8.668048 c 0,0 -0.101346,-0.58975 -0.277812,-0.76518 z m 9.290299,0 v 0.76518 h 5.213986 l -0.258254,-0.76518 z m 7.509731,0 -0.258156,0.76518 h 5.193045 v -0.76518 z m -21.4561192,1.48912 v 0.76726 h 2.360345 v -0.76726 z m 6.2223594,0 v 0.76726 h 2.3602958 v -0.76726 z m 4.6561388,0 v 0.76726 h 2.360295 c 0,0 0.149846,-0.40524 0.149846,-0.76726 z m 4.63416,0 v 0.76726 h 4.184722 l -0.278949,-0.76726 z m 5.429421,0 -0.280035,0.76726 h 4.205465 v -0.76726 z m -20.9420792,1.49135 v 0.76637 h 2.360345 v -0.76637 z m 6.2223594,0 v 0.76637 h 6.0287548 c 0,0 0.50431,-0.39319 0.665022,-0.76637 z m 9.2902988,0 v 0.76637 h 2.360345 v -0.42667 l 0.149797,0.42662 h 4.323652 l 0.160811,-0.42662 v 0.42662 h 2.360246 v -0.76632 h -4.430728 l -0.23519,0.64917 -0.236227,-0.64917 z m -15.5126582,1.49021 v 0.76637 h 2.360345 v -0.76637 z m 6.2223594,0 v 0.76637 h 6.6938258 c -0.16081,-0.37185 -0.665021,-0.76637 -0.665021,-0.76637 z m 9.2902988,0 v 0.76637 h 2.360345 v -0.76637 z m 2.78914,0 0.285418,0.76637 h 3.241937 l 0.271244,-0.76637 z m 4.205465,0 v 0.76637 h 2.360246 v -0.76637 z m -22.5072632,1.49021 v 0.76627 h 2.360345 v -0.76627 z m 6.2223594,0 v 0.76627 h 2.3602958 v -0.76627 z m 4.6561388,0 v 0.76627 h 2.510141 c 0,-0.36162 -0.149846,-0.76627 -0.149846,-0.76627 z m 4.63416,0 v 0.76627 h 2.360345 v -0.76627 z m 3.325059,0 0.276676,0.76627 h 2.173408 l 0.278801,-0.76627 z m 3.669546,0 v 0.76627 h 2.360246 v -0.76627 z m -24.03086138,1.49031 v 0.76736 H 5.492836 v -0.76736 z m 6.17968738,0 v 0.76736 h 8.390236 c 0.176466,-0.17587 0.277812,-0.76736 0.277812,-0.76736 z m 9.33307,0 v 0.76736 h 3.883992 v -0.76736 z m 5.385563,0 0.284382,0.76736 h 1.105768 l 0.266897,-0.76736 z m 3.132541,0 v 0.76736 H 28 v -0.76736 z M 0.04262262,10.43366 v 0.76637 H 5.492836 v -0.76637 z m 6.17968738,0 v 0.76518 h 5.922668 c 1.050748,0 1.844082,-0.76518 1.844082,-0.76518 z m 9.33307,0 v 0.76637 h 3.883992 v -0.76637 z m 5.924791,0 0.273368,0.76425 0.04707,10e-4 0.277813,-0.76518 -0.598248,-10e-5 z m 2.593313,0 v 0.76637 H 28 v -0.76637 z"
     id="path2"
     inkscape:connector-curvature="0"
     style="fill:#1f70c1" />
</svg>
