<?xml version="1.0" encoding="UTF-8" standalone="no"?>
<svg
   xmlns:dc="http://purl.org/dc/elements/1.1/"
   xmlns:cc="http://creativecommons.org/ns#"
   xmlns:rdf="http://www.w3.org/1999/02/22-rdf-syntax-ns#"
   xmlns:svg="http://www.w3.org/2000/svg"
   xmlns="http://www.w3.org/2000/svg"
   xmlns:sodipodi="http://sodipodi.sourceforge.net/DTD/sodipodi-0.dtd"
   xmlns:inkscape="http://www.inkscape.org/namespaces/inkscape"
   viewBox="-290 382 30 30"
   version="1.1"
   id="svg20"
   sodipodi:docname="icon_empty.svg"
   inkscape:version="0.92.4 5da689c313, 2019-01-14">
  <metadata
     id="metadata26">
    <rdf:RDF>
      <cc:Work
         rdf:about="">
        <dc:format>image/svg+xml</dc:format>
        <dc:type
           rdf:resource="http://purl.org/dc/dcmitype/StillImage" />
      </cc:Work>
    </rdf:RDF>
  </metadata>
  <defs
     id="defs24" />
  <sodipodi:namedview
     pagecolor="#ffffff"
     bordercolor="#666666"
     borderopacity="1"
     objecttolerance="10"
     gridtolerance="10"
     guidetolerance="10"
     inkscape:pageopacity="0"
     inkscape:pageshadow="2"
     inkscape:window-width="471"
     inkscape:window-height="442"
     id="namedview22"
     showgrid="false"
     inkscape:zoom="7.8666667"
     inkscape:cx="15"
     inkscape:cy="15"
     inkscape:window-x="0"
     inkscape:window-y="0"
     inkscape:window-maximized="0"
     inkscape:current-layer="svg20">
    <inkscape:grid
       type="xygrid"
       id="grid28" />
  </sodipodi:namedview>
  <path
     fill="#4D4D4D"
     d="M-290 400.1v-13.8c0-1.3 1-2.3 2.3-2.3h21.5c1.3 0 2.3 1 2.3 2.3v13.8c0 1.3-1 2.3-2.3 2.3h-21.5c-1.3 0-2.3-1-2.3-2.3z"
     id="path2" />
  <path
     fill="gray"
     d="M-266.1 401.7h-21.7c-.8 0-1.5-.7-1.5-1.5v-14c0-.8.7-1.5 1.5-1.5h21.7c.8 0 1.5.7 1.5 1.5v14c0 .8-.7 1.5-1.5 1.5z"
     id="path4" />
  <path
     fill="#777"
     d="M-287.2 386.7h20.5v13h-20.5z"
     id="path6" />
  <path
     fill="#999"
     d="M-286.5 387.4h19.1V399h-19.1z"
     id="path8" />
  <path
     fill="#4D4D4D"
     d="M-290 407.7V404c0-1.3 1-2.3 2.3-2.3h21.5c1.3 0 2.3 1 2.3 2.3v3.7c0 1.3-1 2.3-2.3 2.3h-21.5c-1.2 0-2.3-1-2.3-2.3z"
     id="path10" />
  <path
     fill="gray"
     d="M-266.1 409.3h-21.7c-.8 0-1.5-.7-1.5-1.5v-3.9c0-.8.7-1.5 1.5-1.5h21.7c.8 0 1.5.7 1.5 1.5v3.9c0 .8-.7 1.5-1.5 1.5z"
     id="path12" />
  <circle
     cx="-268"
     cy="405.9"
     r="1.4"
     fill="#777"
     id="circle14" />
  <circle
     cx="-268"
     cy="405.9"
     r=".7"
     fill="#999"
     id="circle16" />
  <path
     fill="#777"
     d="M-287.3 405.2h11v.7h-11zm7.1.7h-3.1c.3.3.7.7 1.5.7s1.3-.4 1.6-.7z"
     id="path18" />
</svg>
