<?xml version="1.0" encoding="UTF-8" standalone="no"?>
<svg
   xmlns:dc="http://purl.org/dc/elements/1.1/"
   xmlns:cc="http://creativecommons.org/ns#"
   xmlns:rdf="http://www.w3.org/1999/02/22-rdf-syntax-ns#"
   xmlns:svg="http://www.w3.org/2000/svg"
   xmlns="http://www.w3.org/2000/svg"
   xmlns:sodipodi="http://sodipodi.sourceforge.net/DTD/sodipodi-0.dtd"
   xmlns:inkscape="http://www.inkscape.org/namespaces/inkscape"
   width="403"
   height="160.00169"
   version="1.1"
   id="svg4"
   sodipodi:docname="logo.svg"
   inkscape:version="0.92.4 5da689c313, 2019-01-14">
  <metadata
     id="metadata10">
    <rdf:RDF>
      <cc:Work
         rdf:about="">
        <dc:format>image/svg+xml</dc:format>
        <dc:type
           rdf:resource="http://purl.org/dc/dcmitype/StillImage" />
      </cc:Work>
    </rdf:RDF>
  </metadata>
  <defs
     id="defs8" />
  <sodipodi:namedview
     pagecolor="#ffffff"
     bordercolor="#666666"
     borderopacity="1"
     objecttolerance="10"
     gridtolerance="10"
     guidetolerance="10"
     inkscape:pageopacity="0"
     inkscape:pageshadow="2"
     inkscape:window-width="640"
     inkscape:window-height="480"
     id="namedview6"
     showgrid="false"
     inkscape:zoom="0.6775"
     inkscape:cx="200"
     inkscape:cy="80.000843"
     inkscape:window-x="0"
     inkscape:window-y="0"
     inkscape:window-maximized="0"
     inkscape:current-layer="svg4" />
  <path
     d="M 0,0 V 10.948108 H 77.859485 V 0 Z M 88.890143,0 V 10.948108 H 199.84372 C 199.84372,10.948108 188.50967,0 173.49968,0 Z M 221.6087,0 v 10.948108 h 67.12587 L 284.7503,0 Z m 115.25112,0 -3.98357,10.948108 h 66.51486 V 0 Z M 0,21.288732 V 32.236841 H 77.859485 V 21.288732 Z m 88.890143,0.01552 V 32.235426 H 212.71941 c 0,0 -1.4478,-8.42504 -3.96876,-10.931174 z m 132.718557,0 v 10.931174 h 74.48552 l -3.68935,-10.931174 z m 107.28187,0 -3.68794,10.931174 h 74.18636 V 21.304252 Z M 22.374583,42.577463 v 10.96081 h 33.719214 v -10.96081 z m 88.890847,0 v 10.96081 h 33.71851 v -10.96081 z m 66.51627,0 v 10.96081 h 33.71851 c 0,0 2.14065,-5.78908 2.14065,-10.96081 z m 66.20229,0 v 10.96081 h 59.78174 l -3.98498,-10.96081 z m 77.56315,0 -4.0005,10.96081 h 60.07807 V 42.577463 Z M 22.374583,63.882423 v 10.94811 h 33.719214 v -10.94811 z m 88.890847,0 v 10.94811 h 86.12507 c 0,0 7.20443,-5.61693 9.50031,-10.94811 z m 132.71856,0 v 10.94811 h 33.71921 v -6.09529 l 2.13995,6.09459 h 61.76647 l 2.29729,-6.09459 v 6.09459 h 33.7178 V 63.882423 H 314.3286 l -3.35985,9.27383 -3.37468,-9.27383 z M 22.374583,85.171163 v 10.9481 h 33.719214 v -10.9481 z m 88.890847,0 v 10.9481 h 95.62609 c -2.29729,-5.31213 -9.50031,-10.9481 -9.50031,-10.9481 z m 132.71856,0 v 10.9481 h 33.71921 v -10.9481 z m 39.84485,0 4.07741,10.9481 h 46.31338 l 3.87491,-10.9481 z m 60.07807,0 v 10.9481 h 33.7178 v -10.9481 z M 22.374583,106.45989 v 10.9467 h 33.719214 v -10.9467 z m 88.890847,0 v 10.9467 h 33.71851 v -10.9467 z m 66.51627,0 v 10.9467 h 35.85916 c 0,-5.16608 -2.14065,-10.9467 -2.14065,-10.9467 z m 66.20229,0 v 10.9467 h 33.71921 v -10.9467 z m 47.50083,0 3.95253,10.9467 h 31.04868 l 3.98286,-10.9467 z m 52.42209,0 v 10.9467 h 33.7178 v -10.9467 z M 0.6088946,127.75003 v 10.96222 H 78.469085 v -10.96222 z m 88.2812484,0 v 10.96222 H 208.75065 c 2.52096,-2.51248 3.96876,-10.96222 3.96876,-10.96222 z m 133.329567,0 v 10.96222 h 55.48561 v -10.96222 z m 76.93662,0 4.06259,10.96222 h 15.79669 l 3.81282,-10.96222 z m 44.75058,0 v 10.96222 H 400 V 127.75003 Z M 0.6088946,149.05358 v 10.94811 H 78.469085 v -10.94811 z m 88.2812484,0 v 10.93118 h 84.609537 c 15.0107,0 26.34404,-10.93118 26.34404,-10.93118 z m 133.329567,0 v 10.94811 h 55.48561 v -10.94811 z m 84.63988,0 3.90525,10.91777 0.67239,0.0148 3.96876,-10.93118 -8.5464,-0.001 z m 37.04732,0 v 10.94811 H 400 v -10.94811 z"
     id="path2"
     inkscape:connector-curvature="0"
     style="fill:#1f70c1" />
</svg>
