<?xml version="1.0" encoding="UTF-8" standalone="no"?>
<svg
   xmlns:dc="http://purl.org/dc/elements/1.1/"
   xmlns:cc="http://creativecommons.org/ns#"
   xmlns:rdf="http://www.w3.org/1999/02/22-rdf-syntax-ns#"
   xmlns:svg="http://www.w3.org/2000/svg"
   xmlns="http://www.w3.org/2000/svg"
   xmlns:sodipodi="http://sodipodi.sourceforge.net/DTD/sodipodi-0.dtd"
   xmlns:inkscape="http://www.inkscape.org/namespaces/inkscape"
   viewBox="0 0 562 81.18"
   version="1.1"
   id="svg27"
   sodipodi:docname="logo.svg"
   width="562"
   height="81.18"
   inkscape:version="0.92.4 5da689c313, 2019-01-14">
  <metadata
     id="metadata33">
    <rdf:RDF>
      <cc:Work
         rdf:about="">
        <dc:format>image/svg+xml</dc:format>
        <dc:type
           rdf:resource="http://purl.org/dc/dcmitype/StillImage" />
      </cc:Work>
    </rdf:RDF>
  </metadata>
  <defs
     id="defs31" />
  <sodipodi:namedview
     pagecolor="#ffffff"
     bordercolor="#666666"
     borderopacity="1"
     objecttolerance="10"
     gridtolerance="10"
     guidetolerance="10"
     inkscape:pageopacity="0"
     inkscape:pageshadow="2"
     inkscape:window-width="471"
     inkscape:window-height="442"
     id="namedview29"
     showgrid="false"
     inkscape:zoom="0.48457841"
     inkscape:cx="279.62451"
     inkscape:cy="40.59"
     inkscape:window-x="0"
     inkscape:window-y="0"
     inkscape:window-maximized="0"
     inkscape:current-layer="svg27" />
  <path
     d="m 559.249,75.466 c 0,3.154 -2.15,5.714 -4.801,5.714 H 4.801 C 2.15,81.18 0,78.62 0,75.466 V 5.715 C 0,2.56 2.15,0 4.801,0 h 549.646 c 2.651,0 4.801,2.56 4.801,5.715 v 69.751 z"
     id="path2"
     inkscape:connector-curvature="0" />
  <linearGradient
     id="a"
     gradientUnits="userSpaceOnUse"
     x1="908.05902"
     y1="1394.493"
     x2="1316.951"
     y2="1394.493"
     gradientTransform="matrix(0.672,0,0,0.672,-450.241,-897.07)">
    <stop
       offset="0"
       stop-color="#f50019"
       id="stop4" />
    <stop
       offset=".276"
       stop-color="#f66d19"
       id="stop6" />
    <stop
       offset=".478"
       stop-color="#fbfa35"
       id="stop8" />
    <stop
       offset=".681"
       stop-color="#74b719"
       id="stop10" />
    <stop
       offset=".791"
       stop-color="#17710a"
       id="stop12" />
    <stop
       offset=".883"
       stop-color="#226887"
       id="stop14" />
    <stop
       offset="1"
       stop-color="#3262d9"
       id="stop16" />
  </linearGradient>
  <path
     d="m 159.942,18.077 h 22.146 c 14.6,0 19.753,10.796 19.753,21.839 0,13.435 -7.116,21.962 -22.391,21.962 h -19.507 z m 13.495,32.575 h 5.276 c 8.404,0 9.631,-6.81 9.631,-10.919 0,-2.76 -0.859,-10.43 -10.613,-10.43 h -4.295 z M 206.44,18.077 h 25.705 c 7.668,0 14.293,4.233 14.293,12.515 0,4.54 -2.086,9.325 -6.564,10.981 3.681,1.412 5.95,5.46 6.441,10.919 0.183,2.147 0.245,7.361 1.472,9.386 h -13.496 c -0.675,-2.208 -0.921,-4.477 -1.105,-6.748 -0.368,-4.172 -0.737,-8.527 -6.074,-8.527 h -7.179 V 61.88 H 206.437 V 18.077 Z m 13.496,19.14 h 7.055 c 2.515,0 5.951,-0.43 5.951,-4.355 0,-2.76 -1.533,-4.355 -6.687,-4.355 h -6.318 v 8.71 z m 46.561,-19.14 h 13.189 l 15.95,43.801 H 281.65 l -1.84,-6.257 h -13.926 l -1.963,6.257 h -13.558 z m 10.612,28.157 -3.926,-13.496 h -0.123 l -4.233,13.496 z M 329.497,57.4 c -3.006,3.864 -7.668,5.52 -12.452,5.52 -12.945,0 -20.92,-10.061 -20.92,-22.513 0,-16.686 11.718,-23.372 21.594,-23.372 11.165,0 18.22,6.073 20.182,16.379 h -12.945 c -0.49,-3.19 -3.189,-5.46 -6.379,-5.46 -9.263,0 -8.957,9.754 -8.957,12.76 0,4.109 1.656,11.288 9.876,11.288 3.129,0 6.318,-1.595 6.993,-4.846 h -5.95 v -9.387 h 17.913 v 24.109 h -8.527 z m 37.787,-40.366 c 13.313,0 22.207,9.569 22.207,22.944 0,13.375 -8.895,22.944 -22.207,22.944 -13.312,0 -22.208,-9.569 -22.208,-22.944 0,-13.374 8.896,-22.944 22.208,-22.944 z m 0,34.967 c 3.435,0 8.711,-2.27 8.711,-12.025 0,-9.754 -5.276,-12.024 -8.711,-12.024 -3.435,0 -8.711,2.27 -8.711,12.024 0,9.755 5.277,12.025 8.711,12.025 z m 27.972,-33.924 h 13.803 l 12.76,23.434 h 0.123 V 18.077 h 12.76 V 61.878 H 421.574 L 408.139,37.953 h -0.123 v 23.925 h -12.76 z"
     id="path19"
     inkscape:connector-curvature="0"
     style="fill:url(#a)" />
  <path
     d="m 447.336,33.413 c 0.062,-5.03 2.086,-8.711 5.337,-11.165 3.252,-2.393 7.668,-3.558 12.453,-3.558 12.39,0 16.502,7.361 16.502,10.981 0,8.956 -5.644,8.956 -5.644,9.141 v 0.123 c 0,0.491 6.994,0.491 6.994,9.999 0,5.214 -3.926,13.435 -17.913,13.435 -19.2,0 -19.263,-13.496 -18.956,-16.687 h 11.657 c -0.062,2.27 0.49,3.989 1.657,5.091 1.165,1.411 2.945,1.902 5.091,1.902 3.496,0 5.704,-1.288 5.704,-4.784 0,-3.742 -2.883,-4.417 -5.704,-4.417 -1.779,0 -2.639,0.183 -3.558,0.306 v -8.344 c 0.919,0.062 1.901,0.245 3.558,0.245 2.576,0 5.828,-0.552 5.828,-3.864 0,-2.701 -3.067,-3.742 -5.583,-3.742 -3.313,0 -6.011,1.779 -5.89,5.337 z m 38.218,3.743 c -0.675,-11.718 6.625,-18.465 18.098,-18.465 10.367,0 17.422,4.355 17.422,13.435 0,10.919 -10.674,14.354 -18.711,19.263 v 0.062 h 19.324 v 10.43 h -36.992 c -0.245,-4.11 0.982,-7.669 3.066,-10.552 3.558,-4.97 9.693,-8.22 15.153,-11.533 2.208,-1.35 5.766,-3.068 5.766,-6.197 0,-3.865 -2.27,-5.214 -5.153,-5.214 -4.908,0 -6.564,3.558 -6.441,8.772 z"
     id="path21"
     inkscape:connector-curvature="0"
     style="fill:#ffffff" />
  <path
     d="m 373.437,67.356 h 3.887 c 2.562,0 3.467,1.894 3.467,3.832 0,2.359 -1.249,3.854 -3.931,3.854 h -3.424 v -7.687 h 0.001 z m 2.37,5.717 h 0.925 c 1.474,0 1.691,-1.195 1.691,-1.918 0,-0.484 -0.151,-1.83 -1.862,-1.83 h -0.753 l -10e-4,3.748 c 10e-4,0 0,0 0,0 z m 8.141,-5.717 h 2.314 l 2.799,7.687 h -2.455 l -0.322,-1.099 h -2.445 l -0.345,1.099 h -2.379 z m 1.862,4.942 -0.689,-2.369 H 385.1 l -0.742,2.369 z m 4.848,-2.972 h -2.153 v -1.971 h 6.675 v 1.971 h -2.154 v 5.717 h -2.367 v -5.717 z m 6.731,-1.97 h 2.314 l 2.799,7.687 h -2.455 l -0.322,-1.099 h -2.444 l -0.345,1.099 h -2.379 z m 1.862,4.942 -0.689,-2.369 h -0.021 l -0.742,2.369 z m 13.41,-4.942 h 2.368 v 5.717 h 3.401 v 1.971 h -5.771 v -7.688 z m 7.193,1.97 h -2.152 v -1.971 h 6.675 v 1.971 h -2.154 v 5.717 h -2.367 v -5.717 z m 5.396,-1.97 h 3.887 c 2.562,0 3.467,1.894 3.467,3.832 0,2.359 -1.249,3.854 -3.93,3.854 h -3.424 v -7.687 z m 2.369,5.717 h 0.925 c 1.475,0 1.691,-1.195 1.691,-1.918 0,-0.484 -0.151,-1.83 -1.862,-1.83 h -0.753 z m 6.075,-0.161 h 2.239 v 2.131 h -2.239 z"
     id="path23"
     inkscape:connector-curvature="0"
     style="fill:#dedede" />
  <path
     d="M 76.055,41.738 H 69.413 L 85.225,14.353 a 17.184,17.184 0 0 1 14.864,-8.61 h 32.674 l -3.321,5.752 H 100.089 A 11.416,11.416 0 0 0 90.21,17.222 Z M 93.848,19.317 a 7.21,7.21 0 0 1 6.241,-3.625 h 26.929 l 1.437,-2.488 h -28.366 a 9.705,9.705 0 0 0 -8.398,4.872 L 78.03,41.738 h 2.872 z m 2.516,10.565 h 22.462 l 3.884,-6.727 1.182,-2.048 2.14,-3.705 H 100.09 a 5.494,5.494 0 0 0 -4.757,2.764 L 82.877,41.738 h 6.642 z m -51.039,0 c -0.004,0.047 -0.007,0.069 -0.005,0.069 -0.052,0.177 -0.294,0.687 -1.141,2.108 -1.789,3.004 -3.62,6.757 -3.621,11.819 0,9.45 7.688,17.138 17.138,17.138 h 65.256 l -6.774,11.733 h 6.642 l 5.321,-9.216 a 5.47,5.47 0 0 0 0.763,-2.79 5.485,5.485 0 0 0 -5.479,-5.479 H 57.698 c -6.279,0 -11.386,-5.108 -11.386,-11.386 0,-3.453 1.124,-6.045 2.811,-8.874 1.569,-2.634 1.964,-3.543 1.963,-5.395 A 5.484,5.484 0 0 0 45.608,24.131 H 26.333 l 3.32,5.752 h 15.672 z m 78.1,21.185 H 57.697 c -3.963,0 -7.189,-3.225 -7.189,-7.189 10e-4,-2.19 0.602,-4.013 2.218,-6.725 1.738,-2.916 2.556,-4.61 2.556,-7.544 0,-5.334 -4.34,-9.675 -9.676,-9.675 H 19.1 l -0.937,-1.621 -6.286,2.842 9.728,3.119 -1.07,-1.853 h 25.071 c 3.964,0 7.188,3.225 7.188,7.188 0.001,2.232 -0.496,3.402 -2.205,6.269 -1.849,3.101 -2.568,5.344 -2.568,7.999 0,5.335 4.341,9.676 9.676,9.676 h 65.729 c 3.964,0 7.189,3.225 7.189,7.189 a 7.202,7.202 0 0 1 -1.009,3.676 l -4.809,8.33 h 2.871 l 4.084,-7.073 a 9.677,9.677 0 0 0 1.351,-4.933 c -0.001,-5.335 -4.341,-9.675 -9.678,-9.675 z M 63.848,62.882 h -6.642 l -5.698,9.867 h 6.642 z m -0.85,9.866 5.697,-9.867 h -2.871 l -5.697,9.867 z m 14.313,-9.866 h -6.642 l -5.697,9.867 h 6.642 z M 123.425,43.604 H 57.979 c 0.035,-0.42 0.216,-1.052 1.157,-2.632 2.045,-3.43 3.608,-6.445 3.608,-11.364 0,-9.45 -7.687,-17.138 -17.138,-17.138 h -0.45 l -3.79,3.791 -3.79,-3.791 H 19.599 l 3.322,5.753 h 22.685 c 6.279,0 11.386,5.108 11.386,11.386 0.001,3.475 -1.056,5.498 -2.797,8.419 -1.459,2.449 -1.976,3.979 -1.976,5.85 a 5.486,5.486 0 0 0 5.479,5.479 h 65.729 c 6.279,0 11.386,5.108 11.386,11.386 0,2.039 -0.546,4.041 -1.58,5.789 l -3.59,6.217 h 6.642 l 1.915,-3.318 a 17.135,17.135 0 0 0 2.365,-8.688 c -0.001,-9.451 -7.689,-17.139 -17.14,-17.139 z M 47.048,11.74 41.366,6.059 35.685,11.74 h 2.638 l 3.043,-3.043 3.044,3.043 z"
     id="path25"
     inkscape:connector-curvature="0"
     style="fill:#f50019" />
</svg>
