<?xml version="1.0" encoding="UTF-8" standalone="no"?>
<svg
   xmlns:dc="http://purl.org/dc/elements/1.1/"
   xmlns:cc="http://creativecommons.org/ns#"
   xmlns:rdf="http://www.w3.org/1999/02/22-rdf-syntax-ns#"
   xmlns:svg="http://www.w3.org/2000/svg"
   xmlns="http://www.w3.org/2000/svg"
   xmlns:sodipodi="http://sodipodi.sourceforge.net/DTD/sodipodi-0.dtd"
   xmlns:inkscape="http://www.inkscape.org/namespaces/inkscape"
   viewBox="0 0 115 274.667"
   version="1.1"
   id="svg104"
   sodipodi:docname="controller.svg"
   width="115"
   height="274.66699"
   inkscape:version="0.92.4 5da689c313, 2019-01-14">
  <metadata
     id="metadata110">
    <rdf:RDF>
      <cc:Work
         rdf:about="">
        <dc:format>image/svg+xml</dc:format>
        <dc:type
           rdf:resource="http://purl.org/dc/dcmitype/StillImage" />
      </cc:Work>
    </rdf:RDF>
  </metadata>
  <defs
     id="defs108" />
  <sodipodi:namedview
     pagecolor="#ffffff"
     bordercolor="#666666"
     borderopacity="1"
     objecttolerance="10"
     gridtolerance="10"
     guidetolerance="10"
     inkscape:pageopacity="0"
     inkscape:pageshadow="2"
     inkscape:window-width="640"
     inkscape:window-height="480"
     id="namedview106"
     showgrid="false"
     inkscape:zoom="0.85922228"
     inkscape:cx="57.5"
     inkscape:cy="137.3335"
     inkscape:window-x="0"
     inkscape:window-y="0"
     inkscape:window-maximized="0"
     inkscape:current-layer="svg104">
    <inkscape:grid
       type="xygrid"
       id="grid917"
       originx="0"
       originy="7.8125003e-06" />
  </sodipodi:namedview>
  <path
     d="M 0,257.167 V 17.5 C 0,7.875 7.875,0 17.5,0 h 80 c 9.625,0 17.5,7.875 17.5,17.5 v 239.667 c 0,9.625 -7.875,17.5 -17.5,17.5 h -80 c -9.625,0 -17.5,-7.875 -17.5,-17.5 z"
     id="path2"
     inkscape:connector-curvature="0"
     style="fill:#ebeae9" />
  <path
     d="M 95.667,274.667 V 0 H 97.5 c 9.625,0 17.5,7.875 17.5,17.5 v 239.667 c 0,9.625 -7.875,17.5 -17.5,17.5 z m -74.052,0 V 264.104 L 11.279,257.875 V 152.323 l 10.336,-13.99 V 0 H 17.5 C 7.875,0 0,7.875 0,17.5 v 239.667 c 0,9.625 7.875,17.5 17.5,17.5 z"
     id="path4"
     inkscape:connector-curvature="0"
     style="fill:#d8d2c7" />
  <path
     d="m 12.585,152.323 9.03,-13.99 -10.337,13.99 v 105.552 l 10.337,6.229 -9.03,-6.104 z"
     id="path6"
     inkscape:connector-curvature="0"
     style="fill:#70706e" />
  <path
     d="M 14.271,256.406 V 153.066 L 23.19,139.542 V 56.879 H 94.3 v 199.575 a 0.838,0.838 0 0 1 -0.838,0.838 H 15.156 a 0.886,0.886 0 0 1 -0.885,-0.886 z"
     id="path8"
     inkscape:connector-curvature="0"
     style="fill:#94a079" />
  <path
     d="M 88.333,99.833 V 250.166 H 65.666 V 99.833 Z"
     id="path10"
     inkscape:connector-curvature="0"
     style="fill:#0c0c0c" />
  <g
     id="g30"
     style="fill:#0058a2">
    <path
       d="m 28.698,101.741 0.005,5.307 c 0,2.17 1.755,3.93 3.916,3.93 a 3.924,3.924 0 0 0 3.919,-3.93 l -0.007,-1.379 c 0,-0.109 0.089,-0.197 0.199,-0.197 0.11,0 0.199,0.088 0.199,0.197 l -0.001,5.296 1.661,0.002 v -5.299 c 0,-1.026 -0.831,-1.86 -1.854,-1.86 a 1.857,1.857 0 0 0 -1.854,1.86 l -0.018,1.385 a 2.247,2.247 0 0 1 -2.242,2.251 2.248,2.248 0 0 1 -2.244,-2.251 v -5.311 z"
       id="path12"
       inkscape:connector-curvature="0" />
    <path
       d="m 30.768,101.743 v 5.311 a 1.854,1.854 0 0 0 3.706,0 l 0.014,-1.385 a 2.247,2.247 0 0 1 2.246,-2.25 2.246,2.246 0 0 1 2.241,2.25 l 0.002,5.299 1.669,-0.002 v -5.296 c 0,-2.17 -1.753,-3.93 -3.916,-3.93 a 3.925,3.925 0 0 0 -3.917,3.93 l -0.002,1.37 a 0.193,0.193 0 0 1 -0.192,0.193 0.192,0.192 0 0 1 -0.19,-0.193 l -0.005,-5.298 z m -0.401,13.349 c 0,-0.92 0.734,-1.674 1.669,-1.674 h 5.302 c 0.901,0 1.643,0.754 1.643,1.674 l -0.001,5.665 h 1.665 v -5.665 a 3.33,3.33 0 0 0 -3.325,-3.336 h -5.284 a 3.331,3.331 0 0 0 -3.326,3.336 l -0.003,5.642 1.662,-0.002 z"
       id="path14"
       inkscape:connector-curvature="0" />
    <path
       d="m 37.32,113.824 c 0.703,0 1.271,0.566 1.271,1.268 v 5.665 h -1.666 v -4.88 c 0,-0.391 -0.389,-0.396 -0.389,-0.396 v 4.071 h -1.659 v -5.73 z m -6.549,1.268 c 0,-0.701 0.566,-1.27 1.266,-1.27 h 2.446 v 5.73 H 32.82 v -4.071 c -0.391,0.005 -0.393,0.396 -0.393,0.396 v 4.857 l -1.653,-0.002 z"
       id="path16"
       inkscape:connector-curvature="0" />
    <g
       id="g22">
      <path
         d="m 30.372,124.726 a 1.67,1.67 0 0 1 1.665,-1.667 h 5.284 a 1.66,1.66 0 0 1 1.661,1.663 v 5.486 h 1.664 v -5.499 a 3.33,3.33 0 0 0 -3.325,-3.335 h -5.284 c -1.836,0 -3.326,1.506 -3.326,3.349 l -0.003,5.486 h 7.829 v -4.715 h -1.659 v 3.049 h -4.506 z"
         id="path18"
         inkscape:connector-curvature="0" />
      <path
         d="m 32.036,123.45 c -0.702,0 -1.275,0.569 -1.275,1.272 v 3.426 h 3.723 v -2.651 h -1.665 v 0.985 l -0.391,0.004 v -0.981 c 0,-0.213 0.177,-0.39 0.391,-0.39 l 3.718,-0.007 c 0,0 0.388,-0.001 0.397,0.393 v 4.709 l 1.659,-0.003 -0.002,-5.486 a 1.27,1.27 0 0 0 -1.271,-1.272 h -5.284 z"
         id="path20"
         inkscape:connector-curvature="0" />
    </g>
    <g
       id="g28">
      <path
         d="m 38.617,135.363 a 0.544,0.544 0 0 1 0,1.026 l -7.868,2.662 v -3.899 l 1.851,0.003 v 1.304 l 1.744,-0.587 -5.634,-1.911 v -1.966 z"
         id="path24"
         inkscape:connector-curvature="0" />
      <path
         d="m 30.372,139.589 v -4.431 H 28.71 v 6.742 l 10.375,-3.506 c 1.012,-0.308 1.755,-1.32 1.755,-2.519 0,-1.201 -0.742,-2.211 -1.751,-2.519 L 28.71,129.817 v 1.764 l 10.089,3.435 a 0.928,0.928 0 1 1 10e-4,1.712 z"
         id="path26"
         inkscape:connector-curvature="0" />
    </g>
  </g>
  <circle
     cx="39.792"
     cy="170.959"
     r="17.893"
     id="circle32"
     style="fill:#cfceca" />
  <circle
     cx="39.792"
     cy="170.959"
     r="16.476"
     id="circle34"
     style="fill:#0e0906" />
  <circle
     cx="39.792"
     cy="170.95799"
     r="15.625"
     id="circle36"
     style="fill:#3c3c3c" />
  <circle
     cx="39.792"
     cy="227.69099"
     r="17.893"
     id="circle38"
     style="fill:#cfceca" />
  <circle
     cx="39.792"
     cy="227.69099"
     r="16.476"
     id="circle40"
     style="fill:#0e0906" />
  <circle
     cx="39.792"
     cy="227.69099"
     r="15.625"
     id="circle42"
     style="fill:#3c3c3c" />
  <g
     id="g46"
     style="fill:#f5dece">
    <path
       d="m 58.756,103.448 2.132,0.326 c 0.568,0.082 0.853,0.286 0.853,0.612 v 5.876 l -1.279,-0.153 v -5.183 l -1.279,-0.199 v 4.555 c 0,0.408 -0.284,0.571 -0.853,0.49 l -2.131,-0.327 c -0.568,-0.109 -0.853,-0.326 -0.853,-0.653 v -5.876 l 1.279,0.153 v 5.183 l 1.279,0.199 v -4.555 c 0,-0.38 0.284,-0.53 0.852,-0.448 z m -2.557,6.468 1.279,0.204 v 1.184 l -0.853,-0.112 v 2.938 l 3.837,0.592 v -1.184 l 1.279,0.153 v 3.184 l -1.279,-0.153 v -0.755 l -4.263,-0.663 c -0.568,-0.109 -0.853,-0.32 -0.853,-0.633 v -4.407 c 0,-0.328 0.284,-0.444 0.853,-0.348 z m 2.983,6.907 v 3.673 l -1.279,-0.194 v -3.673 z m 1.28,4.407 1.279,0.153 v 2.204 c 0,0.327 -0.284,0.449 -0.853,0.367 l -4.263,-0.663 v 1.398 l -1.279,-0.153 v -4.04 l 1.279,0.153 v 1.418 l 3.837,0.592 z m 1.279,4.683 v 6.366 l -1.279,-0.153 v -5.183 l -1.279,-0.199 v 4.555 c 0,0.408 -0.284,0.571 -0.853,0.49 l -2.131,-0.327 c -0.568,-0.109 -0.853,-0.326 -0.853,-0.653 v -5.876 l 1.279,0.153 v 5.183 l 1.279,0.199 v -5.126 z m -3.446,6.325 c 0.592,0.123 0.888,0.354 0.888,0.694 v 4.586 l 1.279,0.199 v -5.102 l 1.279,0.153 v 5.877 c 0,0.326 -0.272,0.455 -0.817,0.388 l -2.167,-0.307 c -0.568,-0.081 -0.853,-0.272 -0.853,-0.571 v -4.749 l -1.279,-0.199 v 5.193 l -1.279,-0.153 v -5.968 c 0,-0.327 0.296,-0.442 0.888,-0.347 z"
       id="path44"
       inkscape:connector-curvature="0" />
  </g>
  <g
     id="g50"
     style="fill:#eedfc3">
    <path
       d="m 72.864,111.229 2.272,0.625 v 3.623 l -1.515,-0.343 v 8.995 l 6.818,1.812 v -3.624 l 2.273,0.469 v 9.745 l -2.273,-0.469 v -2.311 l -7.575,-2.03 c -1.01,-0.333 -1.515,-0.979 -1.515,-1.937 V 112.29 c 0,-0.999 0.505,-1.353 1.515,-1.061 z m 0,20.24 8.333,2.186 c 1.01,0.25 1.515,0.875 1.515,1.874 v 16.491 c 0,1 -0.484,1.396 -1.452,1.188 l -8.396,-2.186 c -1.01,-0.334 -1.515,-1 -1.515,-2 V 132.53 c 0,-0.999 0.505,-1.353 1.515,-1.061 z m 7.575,5.715 -6.818,-1.811 v 11.995 l 6.818,1.811 z m -4.545,25.332 6.818,-7.497 v 4.498 l -4.435,4.873 4.435,7.121 v 5.997 l -6.818,-10.495 -4.545,-1.062 v -4.498 z m 6.818,16.491 v 17.991 c 0,1 -0.484,1.396 -1.452,1.188 l -3.851,-0.938 c -1.01,-0.333 -1.515,-0.916 -1.515,-1.749 V 181.85 l 2.272,0.453 v 11.244 l 2.272,0.609 v -11.994 l -9.09,-2.405 v -3.748 z m -11.363,17.242 11.363,8.996 v 4.498 l -11.363,6.746 v -4.498 l 2.272,-1.499 v -7.496 l 2.273,1.499 v 4.498 l 3.788,-2.249 -8.333,-6.747 z m 11.363,23.988 v 17.242 c 0,1.499 -0.763,2.077 -2.289,1.733 l -6.802,-1.733 c -1.515,-0.5 -2.272,-1.5 -2.272,-2.999 v -17.241 z m -2.273,3.155 -6.818,-1.812 v 11.994 l 6.818,1.812 z"
       id="path48"
       inkscape:connector-curvature="0" />
  </g>
  <g
     id="g102">
    <path
       d="m 23.19,83.201 v -52.57 c 0,-4.842 3.94,-8.782 8.782,-8.782 h 53.545 c 4.842,0 8.782,3.94 8.782,8.782 V 83.2 c 0,4.842 -3.94,8.782 -8.782,8.782 H 31.972 C 27.13,91.983 23.19,88.043 23.19,83.201 Z M 92.333,30.631 A 6.823,6.823 0 0 0 85.518,23.816 H 31.972 a 6.823,6.823 0 0 0 -6.815,6.815 V 83.2 a 6.823,6.823 0 0 0 6.815,6.815 H 85.517 A 6.823,6.823 0 0 0 92.332,83.2 V 30.631 Z"
       id="path52"
       inkscape:connector-curvature="0"
       style="fill:#cfceca" />
    <path
       d="m 24.657,83.201 v -52.57 c 0,-4.034 3.282,-7.315 7.315,-7.315 h 53.545 c 4.034,0 7.315,3.282 7.315,7.315 V 83.2 c 0,4.034 -3.282,7.315 -7.315,7.315 H 31.972 c -4.033,0.001 -7.315,-3.281 -7.315,-7.314 z M 92.153,31.247 c 0,-3.406 -2.855,-6.177 -6.364,-6.177 H 31.83 c -3.509,0 -6.364,2.771 -6.364,6.177 v 51.417 c 0,3.406 2.855,6.177 6.364,6.177 h 53.959 c 3.509,0 6.364,-2.771 6.364,-6.177 z"
       id="path54"
       inkscape:connector-curvature="0"
       style="fill:#101012" />
    <path
       d="m 92.153,31.247 c 0,-3.406 -2.855,-6.177 -6.364,-6.177 H 31.83 c -3.509,0 -6.364,2.771 -6.364,6.177 v 51.417 c 0,3.406 2.855,6.177 6.364,6.177 h 53.959 c 3.509,0 6.364,-2.771 6.364,-6.177 z"
       id="path56"
       inkscape:connector-curvature="0"
       style="fill:#363437" />
    <circle
       cx="58.744999"
       cy="56.916"
       r="13.876"
       id="circle58"
       style="fill:#050505" />
    <circle
       cx="58.744999"
       cy="56.916"
       r="13.54"
       id="circle60"
       style="fill:#1e1e20" />
    <path
       d="m 72.458,39.76 6.032,-6.031 -3.745,8.318 z"
       id="path62"
       inkscape:connector-curvature="0"
       style="fill:#212023" />
    <path
       d="m 72.458,39.76 6.032,-6.031 -8.318,3.745 z"
       id="path64"
       inkscape:connector-curvature="0"
       style="fill:#121113" />
    <path
       d="m 74.733,55.747 c 0,-0.492 0.4,-0.892 0.892,-0.892 h 11.958 c 0.492,0 0.892,0.4 0.892,0.892 v 2.417 c 0,0.492 -0.4,0.892 -0.892,0.892 H 75.625 a 0.893,0.893 0 0 1 -0.892,-0.892 z"
       id="path66"
       inkscape:connector-curvature="0"
       style="fill:#050505" />
    <path
       d="m 74.875,58.164 v -2.417 c 0,-0.413 0.337,-0.75 0.75,-0.75 h 11.958 c 0.413,0 0.75,0.337 0.75,0.75 v 2.417 c 0,0.413 -0.337,0.75 -0.75,0.75 H 75.625 a 0.753,0.753 0 0 1 -0.75,-0.75 z"
       id="path68"
       inkscape:connector-curvature="0"
       style="fill:#252627" />
    <path
       d="m 41.583,43.199 -6.031,-6.032 8.317,3.745 z"
       id="path70"
       inkscape:connector-curvature="0"
       style="fill:#212023" />
    <path
       d="m 41.583,43.199 -6.031,-6.032 3.744,8.318 z"
       id="path72"
       inkscape:connector-curvature="0"
       style="fill:#121113" />
    <path
       d="M 57.569,40.924 A 0.893,0.893 0 0 1 56.677,40.032 V 28.074 c 0,-0.492 0.4,-0.892 0.892,-0.892 h 2.417 c 0.492,0 0.892,0.4 0.892,0.892 v 11.958 c 0,0.492 -0.4,0.892 -0.892,0.892 z"
       id="path74"
       inkscape:connector-curvature="0"
       style="fill:#050505" />
    <path
       d="m 59.986,40.782 h -2.417 a 0.752,0.752 0 0 1 -0.75,-0.75 V 28.074 c 0,-0.413 0.337,-0.75 0.75,-0.75 h 2.417 c 0.413,0 0.75,0.337 0.75,0.75 v 11.958 c 0,0.412 -0.338,0.75 -0.75,0.75 z"
       id="path76"
       inkscape:connector-curvature="0"
       style="fill:#252627" />
    <g
       id="g82">
      <path
         d="m 45.021,74.074 -6.031,6.031 3.745,-8.317 z"
         id="path78"
         inkscape:connector-curvature="0"
         style="fill:#212023" />
      <path
         d="m 45.021,74.074 -6.031,6.031 8.317,-3.744 z"
         id="path80"
         inkscape:connector-curvature="0"
         style="fill:#121113" />
    </g>
    <g
       id="g88">
      <path
         d="m 42.746,58.087 c 0,0.492 -0.4,0.892 -0.892,0.892 H 29.896 A 0.893,0.893 0 0 1 29.004,58.087 V 55.67 c 0,-0.492 0.4,-0.892 0.892,-0.892 h 11.958 c 0.492,0 0.892,0.4 0.892,0.892 z"
         id="path84"
         inkscape:connector-curvature="0"
         style="fill:#050505" />
      <path
         d="m 42.604,55.671 v 2.417 c 0,0.413 -0.338,0.75 -0.75,0.75 H 29.896 a 0.752,0.752 0 0 1 -0.75,-0.75 v -2.417 c 0,-0.413 0.337,-0.75 0.75,-0.75 h 11.958 c 0.413,0 0.75,0.337 0.75,0.75 z"
         id="path86"
         inkscape:connector-curvature="0"
         style="fill:#252627" />
    </g>
    <g
       id="g94">
      <path
         d="m 75.897,70.636 6.031,6.031 -8.318,-3.745 z"
         id="path90"
         inkscape:connector-curvature="0"
         style="fill:#212023" />
      <path
         d="m 75.897,70.636 6.031,6.031 -3.745,-8.317 z"
         id="path92"
         inkscape:connector-curvature="0"
         style="fill:#121113" />
    </g>
    <g
       id="g100">
      <path
         d="m 59.91,72.911 c 0.492,0 0.892,0.4 0.892,0.892 v 11.958 c 0,0.492 -0.4,0.892 -0.892,0.892 H 57.493 A 0.893,0.893 0 0 1 56.601,85.761 V 73.803 c 0,-0.492 0.4,-0.892 0.892,-0.892 z"
         id="path96"
         inkscape:connector-curvature="0"
         style="fill:#050505" />
      <path
         d="m 57.493,73.053 h 2.417 c 0.413,0 0.75,0.338 0.75,0.75 v 11.958 c 0,0.413 -0.337,0.75 -0.75,0.75 h -2.417 a 0.752,0.752 0 0 1 -0.75,-0.75 V 73.803 c 0,-0.413 0.338,-0.75 0.75,-0.75 z"
         id="path98"
         inkscape:connector-curvature="0"
         style="fill:#252627" />
    </g>
  </g>
</svg>
