<?xml version="1.0" encoding="UTF-8" standalone="no"?>
<svg
   xmlns:dc="http://purl.org/dc/elements/1.1/"
   xmlns:cc="http://creativecommons.org/ns#"
   xmlns:rdf="http://www.w3.org/1999/02/22-rdf-syntax-ns#"
   xmlns:svg="http://www.w3.org/2000/svg"
   xmlns="http://www.w3.org/2000/svg"
   xmlns:sodipodi="http://sodipodi.sourceforge.net/DTD/sodipodi-0.dtd"
   xmlns:inkscape="http://www.inkscape.org/namespaces/inkscape"
   viewBox="0 0 564 152.78884"
   version="1.1"
   id="svg20"
   sodipodi:docname="logo.svg"
   width="564"
   height="152.78885"
   inkscape:version="0.92.4 5da689c313, 2019-01-14">
  <metadata
     id="metadata26">
    <rdf:RDF>
      <cc:Work
         rdf:about="">
        <dc:format>image/svg+xml</dc:format>
        <dc:type
           rdf:resource="http://purl.org/dc/dcmitype/StillImage" />
      </cc:Work>
    </rdf:RDF>
  </metadata>
  <defs
     id="defs24" />
  <sodipodi:namedview
     pagecolor="#ffffff"
     bordercolor="#666666"
     borderopacity="1"
     objecttolerance="10"
     gridtolerance="10"
     guidetolerance="10"
     inkscape:pageopacity="0"
     inkscape:pageshadow="2"
     inkscape:window-width="640"
     inkscape:window-height="480"
     id="namedview22"
     showgrid="false"
     inkscape:zoom="0.48261261"
     inkscape:cx="280.43924"
     inkscape:cy="78.046432"
     inkscape:window-x="0"
     inkscape:window-y="0"
     inkscape:window-maximized="0"
     inkscape:current-layer="svg20">
    <inkscape:grid
       type="xygrid"
       id="grid833"
       originx="-0.32424915"
       originy="3.0719294" />
  </sodipodi:namedview>
  <g
     stroke-miterlimit="10"
     id="g18"
     style="fill:#23568f;stroke:#ffffff;stroke-width:1.5;stroke-miterlimit:10"
     transform="translate(-0.32424914,-0.23207998)">
    <path
       d="m 421.511,68.35 0.674,-2.268 h 40.578 l -0.796,2.268 c -3.678,0 -6.488,0.818 -8.428,2.452 -1.942,1.635 -3.647,5.046 -5.12,10.236 l -15.2,53.205 c -1.104,3.76 -1.655,6.272 -1.655,7.54 0,1.47 0.571,2.614 1.716,3.432 1.472,1.063 4.25,1.635 8.336,1.716 l -0.613,2.268 h -41.252 l 0.675,-2.268 c 4.127,0 7.151,-0.786 9.071,-2.36 1.92,-1.572 3.657,-5.016 5.21,-10.328 l 15.325,-53.205 c 0.94,-3.269 1.41,-5.741 1.41,-7.417 0,-1.511 -0.572,-2.696 -1.717,-3.555 -1.145,-0.858 -3.882,-1.43 -8.214,-1.716 z m 48.853,0 0.675,-2.268 h 40.577 l -0.797,2.268 c -3.678,0 -6.487,0.818 -8.428,2.452 -1.941,1.635 -3.647,5.046 -5.119,10.236 l -15.2,53.205 c -1.104,3.76 -1.656,6.272 -1.656,7.54 0,1.47 0.573,2.614 1.716,3.432 1.472,1.063 4.25,1.635 8.337,1.716 l -0.613,2.268 h -41.252 l 0.674,-2.268 c 4.128,0 7.152,-0.786 9.072,-2.36 1.92,-1.572 3.658,-5.016 5.21,-10.328 l 15.324,-53.205 c 0.94,-3.269 1.41,-5.741 1.41,-7.417 0,-1.511 -0.572,-2.696 -1.717,-3.555 -1.144,-0.858 -3.882,-1.43 -8.213,-1.716 z m 48.852,0 0.675,-2.268 h 40.578 l -0.797,2.268 c -3.677,0 -6.487,0.818 -8.428,2.452 -1.94,1.635 -3.648,5.046 -5.118,10.236 l -15.202,53.205 c -1.103,3.76 -1.654,6.272 -1.654,7.54 0,1.47 0.571,2.614 1.716,3.432 1.47,1.063 4.249,1.635 8.336,1.716 l -0.614,2.268 h -41.251 l 0.673,-2.268 c 4.128,0 7.152,-0.786 9.072,-2.36 1.921,-1.572 3.658,-5.016 5.211,-10.328 l 15.324,-53.205 c 0.94,-3.269 1.41,-5.741 1.41,-7.417 0,-1.511 -0.573,-2.696 -1.717,-3.555 -1.144,-0.858 -3.882,-1.43 -8.214,-1.716 z"
       id="path2"
       inkscape:connector-curvature="0"
       style="stroke-width:1.60903502" />
    <path
       d="m 421.511,68.35 0.674,-2.268 h 40.578 l -0.796,2.268 c -3.678,0 -6.488,0.818 -8.428,2.452 -1.942,1.635 -3.647,5.046 -5.12,10.236 l -15.2,53.205 c -1.104,3.76 -1.655,6.272 -1.655,7.54 0,1.47 0.571,2.614 1.716,3.432 1.472,1.063 4.25,1.635 8.336,1.716 l -0.613,2.268 h -41.252 l 0.675,-2.268 c 4.127,0 7.151,-0.786 9.071,-2.36 1.92,-1.572 3.657,-5.016 5.21,-10.328 l 15.325,-53.205 c 0.94,-3.269 1.41,-5.741 1.41,-7.417 0,-1.511 -0.572,-2.696 -1.717,-3.555 -1.145,-0.858 -3.882,-1.43 -8.214,-1.716 z m 48.853,0 0.675,-2.268 h 40.577 l -0.797,2.268 c -3.678,0 -6.487,0.818 -8.428,2.452 -1.941,1.635 -3.647,5.046 -5.119,10.236 l -15.2,53.205 c -1.104,3.76 -1.656,6.272 -1.656,7.54 0,1.47 0.573,2.614 1.716,3.432 1.472,1.063 4.25,1.635 8.337,1.716 l -0.613,2.268 h -41.252 l 0.674,-2.268 c 4.128,0 7.152,-0.786 9.072,-2.36 1.92,-1.572 3.658,-5.016 5.21,-10.328 l 15.324,-53.205 c 0.94,-3.269 1.41,-5.741 1.41,-7.417 0,-1.511 -0.572,-2.696 -1.717,-3.555 -1.144,-0.858 -3.882,-1.43 -8.213,-1.716 z m 48.852,0 0.675,-2.268 h 40.578 l -0.797,2.268 c -3.677,0 -6.487,0.818 -8.428,2.452 -1.94,1.635 -3.648,5.046 -5.118,10.236 l -15.202,53.205 c -1.103,3.76 -1.654,6.272 -1.654,7.54 0,1.47 0.571,2.614 1.716,3.432 1.47,1.063 4.249,1.635 8.336,1.716 l -0.614,2.268 h -41.251 l 0.673,-2.268 c 4.128,0 7.152,-0.786 9.072,-2.36 1.921,-1.572 3.658,-5.016 5.211,-10.328 l 15.324,-53.205 c 0.94,-3.269 1.41,-5.741 1.41,-7.417 0,-1.511 -0.573,-2.696 -1.717,-3.555 -1.144,-0.858 -3.882,-1.43 -8.214,-1.716 z"
       id="path4"
       inkscape:connector-curvature="0"
       style="stroke-width:1.60903502" />
    <g
       id="g10">
      <path
         d="m 0.976,149.2 14.65,-54.936 h 18.311 l 21.975,43.949 43.947,-43.949 h 18.312 L 103.522,149.2 H 85.21 L 92.535,123.564 66.899,149.2 H 41.262 l -14.65,-29.3 -7.324,29.3 z m 106.209,0 43.947,-54.936 h 21.975 l 32.961,54.935 h -21.974 l -7.325,-10.986 h -36.624 l 7.325,-10.987 h 21.974 l -10.986,-18.313 -32.962,40.286 H 107.185 Z M 224.38,94.264 h 87.896 c 4.884,0 6.816,2.34 5.799,7.02 l -4.578,18.616 c -1.628,4.884 -4.476,7.326 -8.546,7.326 h -25.636 l 25.636,21.973 h -21.974 l -36.623,-32.96 h 49.06 l 2.976,-10.988 h -58.598 l -11.75,43.948 H 209.73 Z m 87.896,54.936 14.65,-54.936 h 18.311 l -8.087,30.291 48.373,-30.29 h 29.299 l -53.41,31.13 35.098,23.804 h -29.298 l -30.444,-23.042 -6.18,23.042 h -18.312 z"
         id="path6"
         inkscape:connector-curvature="0"
         style="stroke-width:1.00144506" />
      <path
         d="m 0.976,149.2 14.65,-54.936 h 18.311 l 21.975,43.949 43.947,-43.949 h 18.312 L 103.522,149.2 H 85.21 L 92.535,123.564 66.899,149.2 H 41.262 l -14.65,-29.3 -7.324,29.3 z m 106.209,0 43.947,-54.936 h 21.975 l 32.961,54.935 h -21.974 l -7.325,-10.986 h -36.624 l 7.325,-10.987 h 21.974 l -10.986,-18.313 -32.962,40.286 H 107.185 Z M 224.38,94.264 h 87.896 c 4.884,0 6.816,2.34 5.799,7.02 l -4.578,18.616 c -1.628,4.884 -4.476,7.326 -8.546,7.326 h -25.636 l 25.636,21.973 h -21.974 l -36.623,-32.96 h 49.06 l 2.976,-10.988 h -58.598 l -11.75,43.948 H 209.73 Z m 87.896,54.936 14.65,-54.936 h 18.311 l -8.087,30.291 48.373,-30.29 h 29.299 l -53.41,31.13 35.098,23.804 h -29.298 l -30.444,-23.042 -6.18,23.042 h -18.312 z"
         id="path8"
         inkscape:connector-curvature="0"
         style="stroke-width:1.00144506" />
    </g>
    <g
       id="g16">
      <path
         d="m 24.699,27.267 5.05,-18.94 C 31.014,3.275 34.17,0.75 39.22,0.75 h 90.916 l -2.367,11.365 H 47.586 l -3.078,11.364 h 70.476 c 6.314,0 8.839,2.526 7.576,7.576 l -5.05,18.941 c -1.684,5.05 -5.052,7.576 -10.102,7.576 H 16.49 L 18.858,46.208 H 99.04 l 3.079,-11.364 H 31.644 c -5.893,0 -8.208,-2.526 -6.945,-7.577 z M 124.77,49.996 135.819,8.326 c 1.262,-5.05 4.42,-7.576 9.47,-7.576 h 90.916 l -2.367,11.365 h -80.183 l -3.078,11.364 h 66.687 l -2.367,11.365 h -67.32 L 144.5,46.208 h 80.34 l -2.21,11.364 h -92.494 c -5.05,0 -6.84,-2.525 -5.366,-7.576 z m 106.069,0 11.049,-41.67 c 1.262,-5.05 4.42,-7.576 9.47,-7.576 h 94.704 l -2.368,11.365 h -83.97 l -9.155,34.093 h 65.188 l 3.788,-11.364 h -17.52 l 2.367,-11.365 h 34.094 l -7.261,26.833 c -1.684,4.84 -4.314,7.26 -7.892,7.26 h -87.128 c -5.05,0 -6.84,-2.525 -5.366,-7.576 z M 334.698,57.572 380.156,0.75 h 22.729 l 34.093,56.822 H 414.25 l -7.576,-11.364 h -37.882 l 7.577,-11.364 h 22.729 l -11.365,-18.942 -34.094,41.67 h -18.94 z"
         id="path12"
         inkscape:connector-curvature="0"
         style="stroke-width:1.03584003" />
      <path
         d="m 24.699,27.267 5.05,-18.94 C 31.014,3.275 34.17,0.75 39.22,0.75 h 90.916 l -2.367,11.365 H 47.586 l -3.078,11.364 h 70.476 c 6.314,0 8.839,2.526 7.576,7.576 l -5.05,18.941 c -1.684,5.05 -5.052,7.576 -10.102,7.576 H 16.49 L 18.858,46.208 H 99.04 l 3.079,-11.364 H 31.644 c -5.893,0 -8.208,-2.526 -6.945,-7.577 z M 124.77,49.996 135.819,8.326 c 1.262,-5.05 4.42,-7.576 9.47,-7.576 h 90.916 l -2.367,11.365 h -80.183 l -3.078,11.364 h 66.687 l -2.367,11.365 h -67.32 L 144.5,46.208 h 80.34 l -2.21,11.364 h -92.494 c -5.05,0 -6.84,-2.525 -5.366,-7.576 z m 106.069,0 11.049,-41.67 c 1.262,-5.05 4.42,-7.576 9.47,-7.576 h 94.704 l -2.368,11.365 h -83.97 l -9.155,34.093 h 65.188 l 3.788,-11.364 h -17.52 l 2.367,-11.365 h 34.094 l -7.261,26.833 c -1.684,4.84 -4.314,7.26 -7.892,7.26 h -87.128 c -5.05,0 -6.84,-2.525 -5.366,-7.576 z M 334.698,57.572 380.156,0.75 h 22.729 l 34.093,56.822 H 414.25 l -7.576,-11.364 h -37.882 l 7.577,-11.364 h 22.729 l -11.365,-18.942 -34.094,41.67 h -18.94 z"
         id="path14"
         inkscape:connector-curvature="0"
         style="stroke-width:1.03584003" />
    </g>
  </g>
</svg>
