<?xml version="1.0" encoding="UTF-8" standalone="no"?>
<svg
   xmlns:dc="http://purl.org/dc/elements/1.1/"
   xmlns:cc="http://creativecommons.org/ns#"
   xmlns:rdf="http://www.w3.org/1999/02/22-rdf-syntax-ns#"
   xmlns:svg="http://www.w3.org/2000/svg"
   xmlns="http://www.w3.org/2000/svg"
   xmlns:sodipodi="http://sodipodi.sourceforge.net/DTD/sodipodi-0.dtd"
   xmlns:inkscape="http://www.inkscape.org/namespaces/inkscape"
   viewBox="0 0 170.36301 87.851996"
   version="1.1"
   id="svg376"
   sodipodi:docname="game.svg"
   width="170.36301"
   height="87.851997"
   inkscape:version="0.92.4 5da689c313, 2019-01-14">
  <metadata
     id="metadata382">
    <rdf:RDF>
      <cc:Work
         rdf:about="">
        <dc:format>image/svg+xml</dc:format>
        <dc:type
           rdf:resource="http://purl.org/dc/dcmitype/StillImage" />
      </cc:Work>
    </rdf:RDF>
  </metadata>
  <defs
     id="defs380" />
  <sodipodi:namedview
     pagecolor="#ffffff"
     bordercolor="#666666"
     borderopacity="1"
     objecttolerance="10"
     gridtolerance="10"
     guidetolerance="10"
     inkscape:pageopacity="0"
     inkscape:pageshadow="2"
     inkscape:window-width="640"
     inkscape:window-height="480"
     id="namedview378"
     showgrid="false"
     inkscape:zoom="1.5905343"
     inkscape:cx="85.191498"
     inkscape:cy="43.928999"
     inkscape:window-x="0"
     inkscape:window-y="0"
     inkscape:window-maximized="0"
     inkscape:current-layer="svg376" />
  <path
     d="M 104.035,87.852 H 2.218 A 2.218,2.218 0 0 1 0,85.634 V 41.702 H 0.925 V 40.534 H 0 V 39.185 H 0.925 V 38.017 H 0 V 36.701 H 0.925 V 35.534 H 0 V 20.657 c 0,-1.225 0.993,-2.218 2.218,-2.218 h 101.817 c 1.225,0 2.218,0.993 2.218,2.218 v 14.877 h -0.925 v 1.168 h 0.925 v 1.316 h -0.925 v 1.168 h 0.925 v 1.349 h -0.925 v 1.168 h 0.925 v 43.931 a 2.218,2.218 0 0 1 -2.218,2.218 z"
     id="path2"
     inkscape:connector-curvature="0"
     style="fill:#222227" />
  <path
     d="m 0.925,35.534 h 104.403 v 1.168 H 0.925 Z m 0,2.484 h 104.403 v 1.168 H 0.925 Z m 0,2.517 h 104.403 v 1.168 H 0.925 Z"
     id="path4"
     inkscape:connector-curvature="0" />
  <path
     d="M 1.563,18.784 H 104.697 V 34.261 H 1.563 Z"
     id="path6"
     inkscape:connector-curvature="0"
     style="fill:#b12d17" />
  <path
     d="M 104.869,34.434 H 1.39 V 18.612 H 104.869 Z M 1.735,34.089 H 104.523 V 18.957 H 1.735 Z"
     id="path8"
     inkscape:connector-curvature="0"
     style="fill:#020203" />
  <path
     d="M 1.563,31.682 H 104.697"
     id="path10"
     inkscape:connector-curvature="0"
     style="fill:#b12d17" />
  <path
     d="m 1.563,31.509 h 103.134 v 0.346 H 1.563 Z"
     id="path12"
     inkscape:connector-curvature="0"
     style="fill:#020203" />
  <path
     d="M 1.563,29.102 H 104.697"
     id="path14"
     inkscape:connector-curvature="0"
     style="fill:#b12d17" />
  <path
     d="m 1.563,28.93 h 103.134 v 0.346 H 1.563 Z"
     id="path16"
     inkscape:connector-curvature="0"
     style="fill:#020203" />
  <path
     d="M 1.563,26.523 H 104.697"
     id="path18"
     inkscape:connector-curvature="0"
     style="fill:#b12d17" />
  <path
     d="m 1.563,26.35 h 103.134 v 0.346 H 1.563 Z"
     id="path20"
     inkscape:connector-curvature="0"
     style="fill:#020203" />
  <path
     d="M 1.563,23.943 H 104.697"
     id="path22"
     inkscape:connector-curvature="0"
     style="fill:#b12d17" />
  <path
     d="m 1.563,23.771 h 103.134 v 0.346 H 1.563 Z"
     id="path24"
     inkscape:connector-curvature="0"
     style="fill:#020203" />
  <path
     d="M 1.563,21.364 H 104.697"
     id="path26"
     inkscape:connector-curvature="0"
     style="fill:#b12d17" />
  <path
     d="m 1.563,21.191 h 103.134 v 0.346 H 1.563 Z"
     id="path28"
     inkscape:connector-curvature="0"
     style="fill:#020203" />
  <path
     d="M 101.571,18.784 V 34.261"
     id="path30"
     inkscape:connector-curvature="0"
     style="fill:#b12d17" />
  <path
     d="m 101.399,18.784 h 0.346 v 15.477 h -0.346 z"
     id="path32"
     inkscape:connector-curvature="0"
     style="fill:#020203" />
  <path
     d="M 98.446,18.784 V 34.261"
     id="path34"
     inkscape:connector-curvature="0"
     style="fill:#b12d17" />
  <path
     d="m 98.273,18.784 h 0.346 v 15.477 h -0.346 z"
     id="path36"
     inkscape:connector-curvature="0"
     style="fill:#020203" />
  <path
     d="M 95.321,18.784 V 34.261"
     id="path38"
     inkscape:connector-curvature="0"
     style="fill:#b12d17" />
  <path
     d="m 95.148,18.784 h 0.346 v 15.477 h -0.346 z"
     id="path40"
     inkscape:connector-curvature="0"
     style="fill:#020203" />
  <path
     d="M 92.196,18.784 V 34.261"
     id="path42"
     inkscape:connector-curvature="0"
     style="fill:#b12d17" />
  <path
     d="m 92.023,18.784 h 0.346 v 15.477 h -0.346 z"
     id="path44"
     inkscape:connector-curvature="0"
     style="fill:#020203" />
  <path
     d="M 89.07,18.784 V 34.261"
     id="path46"
     inkscape:connector-curvature="0"
     style="fill:#b12d17" />
  <path
     d="m 88.898,18.784 h 0.345 v 15.477 h -0.345 z"
     id="path48"
     inkscape:connector-curvature="0"
     style="fill:#020203" />
  <path
     d="M 85.945,18.784 V 34.261"
     id="path50"
     inkscape:connector-curvature="0"
     style="fill:#b12d17" />
  <path
     d="m 85.772,18.784 h 0.346 v 15.477 h -0.346 z"
     id="path52"
     inkscape:connector-curvature="0"
     style="fill:#020203" />
  <path
     d="M 82.82,18.784 V 34.261"
     id="path54"
     inkscape:connector-curvature="0"
     style="fill:#b12d17" />
  <path
     d="m 82.647,18.784 h 0.346 v 15.477 h -0.346 z"
     id="path56"
     inkscape:connector-curvature="0"
     style="fill:#020203" />
  <path
     d="M 79.694,18.784 V 34.261"
     id="path58"
     inkscape:connector-curvature="0"
     style="fill:#b12d17" />
  <path
     d="m 79.522,18.784 h 0.346 v 15.477 h -0.346 z"
     id="path60"
     inkscape:connector-curvature="0"
     style="fill:#020203" />
  <path
     d="M 76.569,18.784 V 34.261"
     id="path62"
     inkscape:connector-curvature="0"
     style="fill:#b12d17" />
  <path
     d="m 76.396,18.784 h 0.346 v 15.477 h -0.346 z"
     id="path64"
     inkscape:connector-curvature="0"
     style="fill:#020203" />
  <path
     d="M 73.444,18.784 V 34.261"
     id="path66"
     inkscape:connector-curvature="0"
     style="fill:#b12d17" />
  <path
     d="m 73.271,18.784 h 0.346 v 15.477 h -0.346 z"
     id="path68"
     inkscape:connector-curvature="0"
     style="fill:#020203" />
  <path
     d="M 70.319,18.784 V 34.261"
     id="path70"
     inkscape:connector-curvature="0"
     style="fill:#b12d17" />
  <path
     d="m 70.146,18.784 h 0.346 v 15.477 h -0.346 z"
     id="path72"
     inkscape:connector-curvature="0"
     style="fill:#020203" />
  <path
     d="M 67.193,18.784 V 34.261"
     id="path74"
     inkscape:connector-curvature="0"
     style="fill:#b12d17" />
  <path
     d="m 67.02,18.784 h 0.346 V 34.261 H 67.02 Z"
     id="path76"
     inkscape:connector-curvature="0"
     style="fill:#020203" />
  <path
     d="M 64.068,18.784 V 34.261"
     id="path78"
     inkscape:connector-curvature="0"
     style="fill:#b12d17" />
  <path
     d="m 63.895,18.784 h 0.346 v 15.477 h -0.346 z"
     id="path80"
     inkscape:connector-curvature="0"
     style="fill:#020203" />
  <g
     id="g86"
     transform="translate(0,-0.006)">
    <path
       d="M 60.943,18.79 V 34.267"
       id="path82"
       inkscape:connector-curvature="0"
       style="fill:#b12d17" />
    <path
       d="m 60.77,18.79 h 0.346 V 34.267 H 60.77 Z"
       id="path84"
       inkscape:connector-curvature="0"
       style="fill:#020203" />
  </g>
  <g
     id="g92"
     transform="translate(0,-0.006)">
    <path
       d="M 57.818,18.79 V 34.267"
       id="path88"
       inkscape:connector-curvature="0"
       style="fill:#b12d17" />
    <path
       d="m 57.645,18.79 h 0.346 v 15.477 h -0.346 z"
       id="path90"
       inkscape:connector-curvature="0"
       style="fill:#020203" />
  </g>
  <g
     id="g98"
     transform="translate(0,-0.006)">
    <path
       d="M 54.692,18.79 V 34.267"
       id="path94"
       inkscape:connector-curvature="0"
       style="fill:#b12d17" />
    <path
       d="m 54.519,18.79 h 0.346 v 15.477 h -0.346 z"
       id="path96"
       inkscape:connector-curvature="0"
       style="fill:#020203" />
  </g>
  <g
     id="g104"
     transform="translate(0,-0.006)">
    <path
       d="M 51.567,18.79 V 34.267"
       id="path100"
       inkscape:connector-curvature="0"
       style="fill:#b12d17" />
    <path
       d="M 51.394,18.79 H 51.74 V 34.267 H 51.394 Z"
       id="path102"
       inkscape:connector-curvature="0"
       style="fill:#020203" />
  </g>
  <g
     id="g110"
     transform="translate(0,-0.006)">
    <path
       d="M 48.442,18.79 V 34.267"
       id="path106"
       inkscape:connector-curvature="0"
       style="fill:#b12d17" />
    <path
       d="m 48.269,18.79 h 0.346 v 15.477 h -0.346 z"
       id="path108"
       inkscape:connector-curvature="0"
       style="fill:#020203" />
  </g>
  <g
     id="g116"
     transform="translate(0,-0.006)">
    <path
       d="M 45.316,18.79 V 34.267"
       id="path112"
       inkscape:connector-curvature="0"
       style="fill:#b12d17" />
    <path
       d="m 45.144,18.79 h 0.345 v 15.477 h -0.345 z"
       id="path114"
       inkscape:connector-curvature="0"
       style="fill:#020203" />
  </g>
  <g
     id="g122"
     transform="translate(0,-0.006)">
    <path
       d="M 42.191,18.79 V 34.267"
       id="path118"
       inkscape:connector-curvature="0"
       style="fill:#b12d17" />
    <path
       d="m 42.018,18.79 h 0.346 v 15.477 h -0.346 z"
       id="path120"
       inkscape:connector-curvature="0"
       style="fill:#020203" />
  </g>
  <g
     id="g128"
     transform="translate(0,-0.006)">
    <path
       d="M 39.066,18.79 V 34.267"
       id="path124"
       inkscape:connector-curvature="0"
       style="fill:#b12d17" />
    <path
       d="m 38.893,18.79 h 0.346 v 15.477 h -0.346 z"
       id="path126"
       inkscape:connector-curvature="0"
       style="fill:#020203" />
  </g>
  <g
     id="g134"
     transform="translate(0,-0.006)">
    <path
       d="M 35.941,18.79 V 34.267"
       id="path130"
       inkscape:connector-curvature="0"
       style="fill:#b12d17" />
    <path
       d="m 35.768,18.79 h 0.346 v 15.477 h -0.346 z"
       id="path132"
       inkscape:connector-curvature="0"
       style="fill:#020203" />
  </g>
  <g
     id="g140"
     transform="translate(0,-0.006)">
    <path
       d="M 32.815,18.79 V 34.267"
       id="path136"
       inkscape:connector-curvature="0"
       style="fill:#b12d17" />
    <path
       d="m 32.643,18.79 h 0.346 v 15.477 h -0.346 z"
       id="path138"
       inkscape:connector-curvature="0"
       style="fill:#020203" />
  </g>
  <g
     id="g146"
     transform="translate(0,-0.006)">
    <path
       d="M 29.69,18.79 V 34.267"
       id="path142"
       inkscape:connector-curvature="0"
       style="fill:#b12d17" />
    <path
       d="m 29.517,18.79 h 0.345 v 15.477 h -0.345 z"
       id="path144"
       inkscape:connector-curvature="0"
       style="fill:#020203" />
  </g>
  <g
     id="g152"
     transform="translate(0,-0.006)">
    <path
       d="M 26.565,18.79 V 34.267"
       id="path148"
       inkscape:connector-curvature="0"
       style="fill:#b12d17" />
    <path
       d="m 26.392,18.79 h 0.346 v 15.477 h -0.346 z"
       id="path150"
       inkscape:connector-curvature="0"
       style="fill:#020203" />
  </g>
  <g
     id="g158"
     transform="translate(0,-0.006)">
    <path
       d="M 23.44,18.79 V 34.267"
       id="path154"
       inkscape:connector-curvature="0"
       style="fill:#b12d17" />
    <path
       d="m 23.267,18.79 h 0.346 v 15.477 h -0.346 z"
       id="path156"
       inkscape:connector-curvature="0"
       style="fill:#020203" />
  </g>
  <g
     id="g164"
     transform="translate(0,-0.006)">
    <path
       d="M 20.314,18.79 V 34.267"
       id="path160"
       inkscape:connector-curvature="0"
       style="fill:#b12d17" />
    <path
       d="m 20.141,18.79 h 0.346 v 15.477 h -0.346 z"
       id="path162"
       inkscape:connector-curvature="0"
       style="fill:#020203" />
  </g>
  <g
     id="g170"
     transform="translate(0,-0.006)">
    <path
       d="M 17.189,18.79 V 34.267"
       id="path166"
       inkscape:connector-curvature="0"
       style="fill:#b12d17" />
    <path
       d="m 17.016,18.79 h 0.346 v 15.477 h -0.346 z"
       id="path168"
       inkscape:connector-curvature="0"
       style="fill:#020203" />
  </g>
  <g
     id="g176"
     transform="translate(0,-0.006)">
    <path
       d="M 14.064,18.79 V 34.267"
       id="path172"
       inkscape:connector-curvature="0"
       style="fill:#b12d17" />
    <path
       d="m 13.891,18.79 h 0.346 v 15.477 h -0.346 z"
       id="path174"
       inkscape:connector-curvature="0"
       style="fill:#020203" />
  </g>
  <g
     id="g182"
     transform="translate(0,-0.006)">
    <path
       d="M 10.938,18.79 V 34.267"
       id="path178"
       inkscape:connector-curvature="0"
       style="fill:#b12d17" />
    <path
       d="m 10.766,18.79 h 0.346 v 15.477 h -0.346 z"
       id="path180"
       inkscape:connector-curvature="0"
       style="fill:#020203" />
  </g>
  <g
     id="g188"
     transform="translate(0,-0.006)">
    <path
       d="M 7.813,18.79 V 34.267"
       id="path184"
       inkscape:connector-curvature="0"
       style="fill:#b12d17" />
    <path
       d="M 7.64,18.79 H 7.986 V 34.267 H 7.64 Z"
       id="path186"
       inkscape:connector-curvature="0"
       style="fill:#020203" />
  </g>
  <g
     id="g194"
     transform="translate(0,-0.006)">
    <path
       d="M 4.688,18.79 V 34.267"
       id="path190"
       inkscape:connector-curvature="0"
       style="fill:#b12d17" />
    <path
       d="M 4.515,18.79 H 4.861 V 34.267 H 4.515 Z"
       id="path192"
       inkscape:connector-curvature="0"
       style="fill:#020203" />
  </g>
  <g
     id="g206"
     style="fill:#ffffff"
     transform="translate(0,-0.006)">
    <path
       d="m 79.263,31.131 2.505,-0.002 a 1.855,1.855 0 1 0 0,-3.71 l -0.65,0.003 a 0.094,0.094 0 1 1 0,-0.188 h 2.499 l 10e-4,-0.785 h -2.501 a 0.877,0.877 0 1 0 0,1.754 l 0.654,0.007 a 1.062,1.062 0 0 1 0,2.124 h -2.507 l -10e-4,0.797"
       id="path196"
       inkscape:connector-curvature="0" />
    <path
       d="m 79.264,30.151 h 2.507 a 0.877,0.877 0 1 0 0,-1.754 L 81.117,28.39 a 1.062,1.062 0 1 1 0,-2.124 l 2.501,-10e-4 -10e-4,-0.79 -2.499,-0.001 a 1.855,1.855 0 1 0 0,3.71 l 0.647,10e-4 c 0.05,0 0.091,0.04 0.091,0.091 0,0.05 -0.041,0.091 -0.091,0.091 l -2.501,10e-4 v 0.783 m 6.3,0.19 a 0.788,0.788 0 0 1 -0.79,-0.79 V 27.04 c 0,-0.426 0.356,-0.778 0.79,-0.778 l 2.674,0.001 v -0.789 l -2.674,-0.001 c -0.87,0 -1.574,0.705 -1.574,1.574 v 2.503 c 0,0.869 0.705,1.574 1.574,1.574 l 2.663,0.001 -0.001,-0.787 -2.662,0.003"
       id="path198"
       inkscape:connector-curvature="0" />
    <path
       d="m 84.966,27.048 c 0,-0.331 0.267,-0.6 0.598,-0.6 h 2.674 v 0.787 h -2.304 c -0.185,0 -0.187,0.186 -0.187,0.186 h 1.921 l 10e-4,0.785 h -2.704 l 10e-4,-1.158 m 0.598,3.102 a 0.599,0.599 0 0 1 -0.599,-0.599 l -0.001,-1.158 h 2.704 l -0.001,0.787 h -1.921 c 0.002,0.185 0.187,0.186 0.187,0.186 h 2.293 l -0.001,0.783 -2.661,10e-4 m 4.548,0.188 A 0.79,0.79 0 0 1 89.324,29.55 v -2.503 c 0,-0.434 0.352,-0.786 0.786,-0.786 l 2.589,-10e-4 v -0.788 h -2.595 c -0.87,0 -1.574,0.705 -1.574,1.574 v 2.503 a 1.58,1.58 0 0 0 1.58,1.574 l 2.589,10e-4 v -3.707 h -2.225 v 0.786 h 1.439 v 2.134 l -1.801,0.001"
       id="path200"
       inkscape:connector-curvature="0" />
    <path
       d="m 89.509,29.551 c 0,0.331 0.269,0.604 0.6,0.604 h 1.617 v -1.764 h -1.251 v 0.788 h 0.464 l 0.002,0.186 -0.462,-10e-4 a 0.185,0.185 0 0 1 -0.185,-0.185 l -0.003,-1.761 c 0,0 0,-0.184 0.186,-0.187 H 92.7 l -0.002,-0.786 -2.589,0.002 a 0.6,0.6 0 0 0 -0.6,0.6 v 2.504 m 5.622,-3.117 a 0.257,0.257 0 0 1 0.484,10e-4 l 1.256,3.725 h -1.839 l 0.002,-0.876 h 0.615 l -0.277,-0.825 -0.901,2.667 h -0.929 l 1.589,-4.692"
       id="path202"
       inkscape:connector-curvature="0" />
    <path
       d="m 97.125,30.339 h -2.09 v 0.787 h 3.182 l -1.655,-4.912 c -0.145,-0.479 -0.623,-0.83 -1.189,-0.83 -0.566,0 -1.044,0.351 -1.189,0.83 l -1.671,4.913 h 0.833 l 1.621,-4.776 a 0.438,0.438 0 0 1 0.808,-10e-4 l 1.35,3.989"
       id="path204"
       inkscape:connector-curvature="0" />
  </g>
  <g
     id="g374"
     transform="translate(0,-0.006)">
    <path
       d="m 167.68,87.858 h -49.363 a 2.69,2.69 0 0 1 -2.683,-2.683 V 2.689 a 2.69,2.69 0 0 1 2.683,-2.683 h 49.363 a 2.691,2.691 0 0 1 2.683,2.683 v 82.486 a 2.69,2.69 0 0 1 -2.683,2.683 z"
       id="path208"
       inkscape:connector-curvature="0"
       style="fill:#2e2e34" />
    <path
       d="m 165.76,54.387 h -45.522 a 1.727,1.727 0 0 1 -1.722,-1.722 V 5.206 c 0,-0.947 0.775,-1.722 1.722,-1.722 h 45.522 c 0.947,0 1.722,0.775 1.722,1.722 v 47.459 c 0,0.947 -0.775,1.722 -1.722,1.722 z"
       id="path210"
       inkscape:connector-curvature="0"
       style="fill:#ffffff" />
    <path
       d="m 166,84.734 h -46.003 a 1.486,1.486 0 0 1 -1.481,-1.481 V 59.419 c 0,-0.815 0.667,-1.481 1.481,-1.481 H 166 c 0.815,0 1.481,0.667 1.481,1.481 V 83.253 A 1.484,1.484 0 0 1 166,84.734 Z"
       id="path212"
       inkscape:connector-curvature="0"
       style="fill:#14191c" />
    <path
       d="M 167.482,74.618 H 118.517 V 59.107 c 0,-0.643 0.526,-1.169 1.168,-1.169 h 46.628 c 0.643,0 1.168,0.526 1.168,1.169 v 15.511 z"
       id="path214"
       inkscape:connector-curvature="0"
       style="fill:#070c12" />
    <path
       d="m 122.575,75.193 h -0.147 a 0.731,0.731 0 0 0 -0.729,0.729 v 3.17 h 1.6 v -3.175 a 0.725,0.725 0 0 0 -0.724,-0.724 z"
       id="path216"
       inkscape:connector-curvature="0"
       style="fill:#eac664" />
    <circle
       cx="122.499"
       cy="75.931999"
       r="0.233"
       id="circle218"
       style="fill:#57493e" />
    <path
       d="m 125.138,75.193 h -0.147 a 0.731,0.731 0 0 0 -0.729,0.729 v 3.17 h 1.601 v -3.175 a 0.728,0.728 0 0 0 -0.725,-0.724 z"
       id="path220"
       inkscape:connector-curvature="0"
       style="fill:#eac664" />
    <circle
       cx="125.062"
       cy="75.931999"
       r="0.233"
       id="circle222"
       style="fill:#57493e" />
    <path
       d="m 127.7,75.193 h -0.147 a 0.731,0.731 0 0 0 -0.729,0.729 v 3.17 h 1.601 V 75.917 A 0.727,0.727 0 0 0 127.7,75.193 Z"
       id="path224"
       inkscape:connector-curvature="0"
       style="fill:#eac664" />
    <circle
       cx="127.624"
       cy="75.931999"
       r="0.233"
       id="circle226"
       style="fill:#57493e" />
    <path
       d="m 130.263,75.193 h -0.147 a 0.731,0.731 0 0 0 -0.729,0.729 v 3.17 h 1.601 v -3.175 a 0.728,0.728 0 0 0 -0.725,-0.724 z"
       id="path228"
       inkscape:connector-curvature="0"
       style="fill:#eac664" />
    <circle
       cx="130.187"
       cy="75.931999"
       r="0.233"
       id="circle230"
       style="fill:#57493e" />
    <path
       d="m 132.825,75.193 h -0.146 a 0.731,0.731 0 0 0 -0.729,0.729 v 3.17 h 1.601 v -3.175 a 0.729,0.729 0 0 0 -0.726,-0.724 z"
       id="path232"
       inkscape:connector-curvature="0"
       style="fill:#eac664" />
    <circle
       cx="132.74899"
       cy="75.931999"
       r="0.233"
       id="circle234"
       style="fill:#57493e" />
    <path
       d="m 135.387,75.193 h -0.146 a 0.731,0.731 0 0 0 -0.729,0.729 v 3.17 h 1.6 v -3.175 a 0.727,0.727 0 0 0 -0.725,-0.724 z"
       id="path236"
       inkscape:connector-curvature="0"
       style="fill:#eac664" />
    <circle
       cx="135.312"
       cy="75.931999"
       r="0.233"
       id="circle238"
       style="fill:#57493e" />
    <path
       d="m 137.95,75.193 h -0.147 a 0.731,0.731 0 0 0 -0.729,0.729 v 3.17 h 1.6 v -3.175 a 0.726,0.726 0 0 0 -0.724,-0.724 z"
       id="path240"
       inkscape:connector-curvature="0"
       style="fill:#eac664" />
    <circle
       cx="137.87399"
       cy="75.931999"
       r="0.233"
       id="circle242"
       style="fill:#57493e" />
    <path
       d="m 140.512,75.193 h -0.147 a 0.731,0.731 0 0 0 -0.729,0.729 v 3.17 h 1.6 v -3.175 a 0.725,0.725 0 0 0 -0.724,-0.724 z"
       id="path244"
       inkscape:connector-curvature="0"
       style="fill:#eac664" />
    <path
       d="m 140.67,75.932 a 0.233,0.233 0 1 1 -0.465,0 0.233,0.233 0 0 1 0.465,0 z"
       id="path246"
       inkscape:connector-curvature="0"
       style="fill:#57493e" />
    <path
       d="m 143.075,75.193 h -0.147 a 0.731,0.731 0 0 0 -0.729,0.729 v 3.17 h 1.6 v -3.175 a 0.726,0.726 0 0 0 -0.724,-0.724 z"
       id="path248"
       inkscape:connector-curvature="0"
       style="fill:#eac664" />
    <path
       d="m 143.232,75.932 a 0.233,0.233 0 1 1 -0.465,0 0.233,0.233 0 0 1 0.465,0 z"
       id="path250"
       inkscape:connector-curvature="0"
       style="fill:#57493e" />
    <path
       d="m 145.637,75.193 h -0.147 a 0.731,0.731 0 0 0 -0.729,0.729 v 3.17 h 1.6 v -3.175 a 0.725,0.725 0 0 0 -0.724,-0.724 z"
       id="path252"
       inkscape:connector-curvature="0"
       style="fill:#eac664" />
    <circle
       cx="145.561"
       cy="75.931999"
       r="0.233"
       id="circle254"
       style="fill:#57493e" />
    <path
       d="m 148.2,75.193 h -0.147 a 0.731,0.731 0 0 0 -0.729,0.729 v 3.17 h 1.601 V 75.917 A 0.728,0.728 0 0 0 148.2,75.193 Z"
       id="path256"
       inkscape:connector-curvature="0"
       style="fill:#eac664" />
    <circle
       cx="148.12399"
       cy="75.931999"
       r="0.233"
       id="circle258"
       style="fill:#57493e" />
    <path
       d="m 150.762,75.193 h -0.147 a 0.731,0.731 0 0 0 -0.729,0.729 v 3.17 h 1.601 v -3.175 a 0.727,0.727 0 0 0 -0.725,-0.724 z"
       id="path260"
       inkscape:connector-curvature="0"
       style="fill:#eac664" />
    <circle
       cx="150.686"
       cy="75.931999"
       r="0.233"
       id="circle262"
       style="fill:#57493e" />
    <path
       d="m 153.325,75.193 h -0.147 a 0.731,0.731 0 0 0 -0.729,0.729 v 3.17 h 1.601 v -3.175 a 0.728,0.728 0 0 0 -0.725,-0.724 z"
       id="path264"
       inkscape:connector-curvature="0"
       style="fill:#eac664" />
    <circle
       cx="153.24899"
       cy="75.931999"
       r="0.233"
       id="circle266"
       style="fill:#57493e" />
    <path
       d="m 155.887,75.193 h -0.146 a 0.731,0.731 0 0 0 -0.729,0.729 v 3.17 h 1.601 v -3.175 a 0.729,0.729 0 0 0 -0.726,-0.724 z"
       id="path268"
       inkscape:connector-curvature="0"
       style="fill:#eac664" />
    <circle
       cx="155.811"
       cy="75.931999"
       r="0.233"
       id="circle270"
       style="fill:#57493e" />
    <path
       d="m 158.449,75.193 h -0.146 a 0.731,0.731 0 0 0 -0.729,0.729 v 3.17 h 1.601 v -3.175 a 0.728,0.728 0 0 0 -0.726,-0.724 z"
       id="path272"
       inkscape:connector-curvature="0"
       style="fill:#eac664" />
    <circle
       cx="158.37399"
       cy="75.931999"
       r="0.233"
       id="circle274"
       style="fill:#57493e" />
    <path
       d="m 161.012,75.193 h -0.147 a 0.731,0.731 0 0 0 -0.729,0.729 v 3.17 h 1.6 v -3.175 a 0.726,0.726 0 0 0 -0.724,-0.724 z"
       id="path276"
       inkscape:connector-curvature="0"
       style="fill:#eac664" />
    <circle
       cx="160.936"
       cy="75.931999"
       r="0.233"
       id="circle278"
       style="fill:#57493e" />
    <path
       d="m 163.574,75.193 h -0.147 a 0.731,0.731 0 0 0 -0.729,0.729 v 3.17 h 1.6 v -3.175 a 0.725,0.725 0 0 0 -0.724,-0.724 z"
       id="path280"
       inkscape:connector-curvature="0"
       style="fill:#eac664" />
    <path
       d="m 163.732,75.932 a 0.233,0.233 0 1 1 -0.465,0 0.233,0.233 0 0 1 0.465,0 z"
       id="path282"
       inkscape:connector-curvature="0"
       style="fill:#57493e" />
    <path
       d="m 121.294,80.305 h -0.147 a 0.731,0.731 0 0 0 -0.729,0.729 v 3.17 h 1.6 v -3.175 a 0.726,0.726 0 0 0 -0.724,-0.724 z"
       id="path284"
       inkscape:connector-curvature="0"
       style="fill:#eac664" />
    <circle
       cx="121.218"
       cy="81.043999"
       r="0.233"
       id="circle286"
       style="fill:#57493e" />
    <path
       d="m 123.857,80.305 h -0.147 a 0.731,0.731 0 0 0 -0.729,0.729 v 3.17 h 1.6 v -3.175 a 0.726,0.726 0 0 0 -0.724,-0.724 z"
       id="path288"
       inkscape:connector-curvature="0"
       style="fill:#eac664" />
    <circle
       cx="123.781"
       cy="81.043999"
       r="0.233"
       id="circle290"
       style="fill:#57493e" />
    <path
       d="m 126.419,80.305 h -0.147 a 0.731,0.731 0 0 0 -0.729,0.729 v 3.17 h 1.601 v -3.175 a 0.728,0.728 0 0 0 -0.725,-0.724 z"
       id="path292"
       inkscape:connector-curvature="0"
       style="fill:#eac664" />
    <circle
       cx="126.343"
       cy="81.043999"
       r="0.233"
       id="circle294"
       style="fill:#57493e" />
    <path
       d="m 128.982,80.305 h -0.147 a 0.731,0.731 0 0 0 -0.729,0.729 v 3.17 h 1.601 v -3.175 a 0.728,0.728 0 0 0 -0.725,-0.724 z"
       id="path296"
       inkscape:connector-curvature="0"
       style="fill:#eac664" />
    <circle
       cx="128.90601"
       cy="81.043999"
       r="0.233"
       id="circle298"
       style="fill:#57493e" />
    <path
       d="m 131.544,80.305 h -0.146 a 0.731,0.731 0 0 0 -0.729,0.729 v 3.17 h 1.601 v -3.175 a 0.73,0.73 0 0 0 -0.726,-0.724 z"
       id="path300"
       inkscape:connector-curvature="0"
       style="fill:#eac664" />
    <circle
       cx="131.468"
       cy="81.043999"
       r="0.233"
       id="circle302"
       style="fill:#57493e" />
    <path
       d="m 134.106,80.305 h -0.146 a 0.731,0.731 0 0 0 -0.729,0.729 v 3.17 h 1.601 v -3.175 a 0.728,0.728 0 0 0 -0.726,-0.724 z"
       id="path304"
       inkscape:connector-curvature="0"
       style="fill:#eac664" />
    <circle
       cx="134.03101"
       cy="81.043999"
       r="0.233"
       id="circle306"
       style="fill:#57493e" />
    <path
       d="m 136.669,80.305 h -0.147 a 0.731,0.731 0 0 0 -0.729,0.729 v 3.17 h 1.6 v -3.175 a 0.726,0.726 0 0 0 -0.724,-0.724 z"
       id="path308"
       inkscape:connector-curvature="0"
       style="fill:#eac664" />
    <circle
       cx="136.593"
       cy="81.043999"
       r="0.233"
       id="circle310"
       style="fill:#57493e" />
    <path
       d="m 139.231,80.305 h -0.147 a 0.731,0.731 0 0 0 -0.729,0.729 v 3.17 h 1.6 v -3.175 a 0.726,0.726 0 0 0 -0.724,-0.724 z"
       id="path312"
       inkscape:connector-curvature="0"
       style="fill:#eac664" />
    <path
       d="m 139.388,81.044 a 0.233,0.233 0 1 1 -0.465,0 0.233,0.233 0 0 1 0.465,0 z"
       id="path314"
       inkscape:connector-curvature="0"
       style="fill:#57493e" />
    <path
       d="m 141.794,80.305 h -0.147 a 0.731,0.731 0 0 0 -0.729,0.729 v 3.17 h 1.6 v -3.175 a 0.726,0.726 0 0 0 -0.724,-0.724 z"
       id="path316"
       inkscape:connector-curvature="0"
       style="fill:#eac664" />
    <path
       d="m 141.951,81.044 a 0.233,0.233 0 1 1 -0.465,0 0.233,0.233 0 0 1 0.465,0 z"
       id="path318"
       inkscape:connector-curvature="0"
       style="fill:#57493e" />
    <path
       d="m 144.356,80.305 h -0.147 a 0.731,0.731 0 0 0 -0.729,0.729 v 3.17 h 1.6 v -3.175 a 0.726,0.726 0 0 0 -0.724,-0.724 z"
       id="path320"
       inkscape:connector-curvature="0"
       style="fill:#eac664" />
    <circle
       cx="144.28"
       cy="81.043999"
       r="0.233"
       id="circle322"
       style="fill:#57493e" />
    <path
       d="m 146.919,80.305 h -0.147 a 0.731,0.731 0 0 0 -0.729,0.729 v 3.17 h 1.6 v -3.175 a 0.726,0.726 0 0 0 -0.724,-0.724 z"
       id="path324"
       inkscape:connector-curvature="0"
       style="fill:#eac664" />
    <circle
       cx="146.843"
       cy="81.043999"
       r="0.233"
       id="circle326"
       style="fill:#57493e" />
    <path
       d="m 149.481,80.305 h -0.147 a 0.731,0.731 0 0 0 -0.729,0.729 v 3.17 h 1.601 v -3.175 a 0.728,0.728 0 0 0 -0.725,-0.724 z"
       id="path328"
       inkscape:connector-curvature="0"
       style="fill:#eac664" />
    <circle
       cx="149.405"
       cy="81.043999"
       r="0.233"
       id="circle330"
       style="fill:#57493e" />
    <path
       d="m 152.044,80.305 h -0.147 a 0.731,0.731 0 0 0 -0.729,0.729 v 3.17 h 1.601 v -3.175 a 0.728,0.728 0 0 0 -0.725,-0.724 z"
       id="path332"
       inkscape:connector-curvature="0"
       style="fill:#eac664" />
    <circle
       cx="151.968"
       cy="81.043999"
       r="0.233"
       id="circle334"
       style="fill:#57493e" />
    <path
       d="m 154.606,80.305 h -0.147 a 0.731,0.731 0 0 0 -0.729,0.729 v 3.17 h 1.601 v -3.175 a 0.728,0.728 0 0 0 -0.725,-0.724 z"
       id="path336"
       inkscape:connector-curvature="0"
       style="fill:#eac664" />
    <circle
       cx="154.53"
       cy="81.043999"
       r="0.233"
       id="circle338"
       style="fill:#57493e" />
    <path
       d="m 157.168,80.305 h -0.146 a 0.731,0.731 0 0 0 -0.729,0.729 v 3.17 h 1.601 v -3.175 a 0.728,0.728 0 0 0 -0.726,-0.724 z"
       id="path340"
       inkscape:connector-curvature="0"
       style="fill:#eac664" />
    <circle
       cx="157.093"
       cy="81.043999"
       r="0.233"
       id="circle342"
       style="fill:#57493e" />
    <path
       d="m 159.731,80.305 h -0.146 a 0.731,0.731 0 0 0 -0.729,0.729 v 3.17 h 1.6 v -3.175 a 0.728,0.728 0 0 0 -0.725,-0.724 z"
       id="path344"
       inkscape:connector-curvature="0"
       style="fill:#eac664" />
    <circle
       cx="159.655"
       cy="81.043999"
       r="0.233"
       id="circle346"
       style="fill:#57493e" />
    <path
       d="m 162.293,80.305 h -0.147 a 0.731,0.731 0 0 0 -0.729,0.729 v 3.17 h 1.6 v -3.175 a 0.726,0.726 0 0 0 -0.724,-0.724 z"
       id="path348"
       inkscape:connector-curvature="0"
       style="fill:#eac664" />
    <circle
       cx="162.218"
       cy="81.043999"
       r="0.233"
       id="circle350"
       style="fill:#57493e" />
    <path
       d="m 164.856,80.305 h -0.147 a 0.731,0.731 0 0 0 -0.729,0.729 v 3.17 h 1.6 v -3.175 a 0.726,0.726 0 0 0 -0.724,-0.724 z"
       id="path352"
       inkscape:connector-curvature="0"
       style="fill:#eac664" />
    <path
       d="m 165.013,81.044 a 0.233,0.233 0 1 1 -0.465,0 0.233,0.233 0 0 1 0.465,0 z"
       id="path354"
       inkscape:connector-curvature="0"
       style="fill:#57493e" />
    <g
       stroke-miterlimit="10"
       id="g358"
       style="fill:none;stroke:#1b3157;stroke-width:0.1;stroke-miterlimit:10">
      <path
         d="m 118.516,3.484 h 48.965 v 50.902 h -48.965 z m 0,47.908 h 48.966 m -48.966,-2.994 h 48.966 m -48.966,-2.994 h 48.966 M 118.516,42.41 h 48.966 m -48.966,-2.995 h 48.966 m -48.966,-2.994 h 48.966 m -48.966,-2.994 h 48.966 m -48.966,-2.994 h 48.966 m -48.966,-2.995 h 48.966 m -48.966,-2.994 h 48.966 M 118.516,21.45 h 48.966 m -48.966,-2.995 h 48.966 m -48.966,-2.994 h 48.966 m -48.966,-2.994 h 48.966 M 118.516,9.473 h 48.966 M 118.516,6.478 h 48.966 M 164.601,3.484 V 54.387 M 161.721,3.484 V 54.387 M 158.841,3.484 V 54.387 M 155.96,3.484 V 54.387 M 153.08,3.484 V 54.387 M 150.2,3.484 V 54.387 M 147.32,3.484 V 54.387 M 144.439,3.484 V 54.387 M 141.559,3.484 V 54.387 M 138.679,3.484 V 54.387 M 135.798,3.484 V 54.387 M 132.918,3.484 V 54.387 M 130.038,3.484 V 54.387 M 127.157,3.484 v 50.903 m -2.88,-50.903 v 50.903 m -2.88,-50.903 v 50.903"
         id="path356"
         inkscape:connector-curvature="0" />
    </g>
    <g
       id="g372"
       style="fill:#26537d">
      <path
         d="m 153.155,51.148 1.802,-0.001 a 1.335,1.335 0 1 0 0,-2.67 l -0.467,0.003 -0.068,-0.068 0.068,-0.067 h 1.798 l 10e-4,-0.565 h -1.799 a 0.6315,0.6315 0 1 0 0,1.263 l 0.47,0.005 a 0.764,0.764 0 1 1 0,1.528 h -1.803 l -0.002,0.572"
         id="path360"
         inkscape:connector-curvature="0" />
      <path
         d="m 153.156,50.442 h 1.803 a 0.631,0.631 0 1 0 0,-1.262 l -0.47,-0.006 a 0.764,0.764 0 1 1 0,-1.528 l 1.799,-10e-4 -0.001,-0.568 -1.798,-10e-4 a 1.335,1.335 0 0 0 0,2.67 l 0.465,10e-4 0.065,0.065 -0.065,0.065 -1.799,10e-4 0.001,0.564 m 4.532,0.137 a 0.566,0.566 0 0 1 -0.568,-0.568 v -1.806 c 0,-0.307 0.256,-0.56 0.568,-0.56 l 1.924,10e-4 v -0.567 l -1.924,-10e-4 c -0.626,0 -1.132,0.507 -1.132,1.132 v 1.801 c 0,0.625 0.507,1.132 1.132,1.132 l 1.916,10e-4 -0.001,-0.566 -1.915,10e-4"
         id="path362"
         inkscape:connector-curvature="0" />
      <path
         d="m 157.258,48.211 c 0,-0.238 0.192,-0.432 0.43,-0.432 h 1.924 v 0.567 h -1.658 c -0.132,0 -0.134,0.134 -0.134,0.134 h 1.382 v 0.565 h -1.945 l 0.001,-0.834 m 0.43,2.231 a 0.43,0.43 0 0 1 -0.431,-0.43 v -0.833 h 1.945 v 0.566 h -1.382 c 0.002,0.134 0.134,0.134 0.134,0.134 h 1.649 l -0.001,0.563 h -1.914 m 3.272,0.136 a 0.568,0.568 0 0 1 -0.567,-0.567 V 48.21 c 0,-0.312 0.253,-0.565 0.565,-0.565 l 1.862,-0.001 0.001,-0.567 h -1.867 c -0.626,0 -1.132,0.507 -1.132,1.132 v 1.801 c 0,0.625 0.511,1.132 1.137,1.132 l 1.863,10e-4 -0.001,-2.667 h -1.601 v 0.565 h 1.035 v 1.535 h -1.295"
         id="path364"
         inkscape:connector-curvature="0" />
      <path
         d="m 160.526,50.011 c 0,0.238 0.193,0.435 0.432,0.435 h 1.163 v -1.269 h -0.9 v 0.567 h 0.334 l 0.001,0.134 -0.332,-10e-4 -0.133,-0.133 -0.003,-1.266 c 0,0 0,-0.132 0.134,-0.135 h 1.599 l -0.002,-0.565 -1.862,0.001 a 0.433,0.433 0 0 0 -0.432,0.432 v 1.8 m 4.046,-2.241 0.173,-0.125 0.175,0.125 0.903,2.679 h -1.323 l 0.002,-0.63 h 0.442 l -0.199,-0.593 -0.649,1.918 h -0.668 l 1.144,-3.374"
         id="path366"
         inkscape:connector-curvature="0" />
      <path
         d="m 166.005,50.578 h -1.503 v 0.566 h 2.289 L 165.6,47.61 c -0.104,-0.344 -0.447,-0.597 -0.855,-0.597 -0.408,0 -0.751,0.253 -0.855,0.597 l -1.202,3.534 h 0.6 l 1.166,-3.436 a 0.314,0.314 0 0 1 0.58,-10e-4 l 0.971,2.871 m 0.482,-2.232 a 0.625,0.625 0 0 0 0.629,-0.629 0.629,0.629 0 1 0 -0.629,0.629 z m -0.542,-0.63 a 0.54,0.54 0 0 1 0.925,-0.383 0.542,0.542 0 1 1 -0.925,0.383"
         id="path368"
         inkscape:connector-curvature="0" />
      <path
         d="m 166.292,47.768 v 0.297 h -0.091 v -0.698 h 0.259 l 0.208,0.043 0.073,0.161 c 0,0.163 -0.131,0.186 -0.165,0.192 l 0.196,0.302 h -0.111 l -0.19,-0.297 z m 0,-0.077 h 0.184 l 0.085,-0.007 0.087,-0.112 -0.041,-0.098 -0.136,-0.03 h -0.179 v 0.247"
         id="path370"
         inkscape:connector-curvature="0" />
    </g>
  </g>
</svg>
