<?xml version="1.0" encoding="UTF-8" standalone="no"?>
<svg
   xmlns:dc="http://purl.org/dc/elements/1.1/"
   xmlns:cc="http://creativecommons.org/ns#"
   xmlns:rdf="http://www.w3.org/1999/02/22-rdf-syntax-ns#"
   xmlns:svg="http://www.w3.org/2000/svg"
   xmlns="http://www.w3.org/2000/svg"
   xmlns:sodipodi="http://sodipodi.sourceforge.net/DTD/sodipodi-0.dtd"
   xmlns:inkscape="http://www.inkscape.org/namespaces/inkscape"
   viewBox="0 0 551.00201 602.667"
   version="1.1"
   id="svg190"
   sodipodi:docname="console.svg"
   width="551.00201"
   height="602.66699"
   inkscape:version="0.92.4 5da689c313, 2019-01-14">
  <metadata
     id="metadata196">
    <rdf:RDF>
      <cc:Work
         rdf:about="">
        <dc:format>image/svg+xml</dc:format>
        <dc:type
           rdf:resource="http://purl.org/dc/dcmitype/StillImage" />
      </cc:Work>
    </rdf:RDF>
  </metadata>
  <defs
     id="defs194" />
  <sodipodi:namedview
     pagecolor="#ffffff"
     bordercolor="#666666"
     borderopacity="1"
     objecttolerance="10"
     gridtolerance="10"
     guidetolerance="10"
     inkscape:pageopacity="0"
     inkscape:pageshadow="2"
     inkscape:window-width="640"
     inkscape:window-height="480"
     id="namedview192"
     showgrid="false"
     inkscape:zoom="0.39159271"
     inkscape:cx="275.501"
     inkscape:cy="301.3335"
     inkscape:window-x="0"
     inkscape:window-y="0"
     inkscape:window-maximized="0"
     inkscape:current-layer="svg190" />
  <path
     d="M 550.011,602.667 H 0.99100029 a 0.99,0.99 0 0 1 -0.99,-0.99 V 14.656 a 0.99,0.99 0 0 1 0.99,-0.99 H 550.011 a 0.99,0.99 0 0 1 0.99,0.99 v 587.021 a 0.99,0.99 0 0 1 -0.99,0.99 z"
     id="path2"
     inkscape:connector-curvature="0"
     style="fill:#333333" />
  <linearGradient
     id="a"
     gradientUnits="userSpaceOnUse"
     x1="58.5"
     y1="6.8330002"
     x2="492.5"
     y2="6.8330002"
     gradientTransform="translate(0.00100029)">
    <stop
       offset="0"
       stop-color="#40423f"
       id="stop4" />
    <stop
       offset=".008"
       stop-color="#3a3c3a"
       id="stop6" />
    <stop
       offset=".027"
       stop-color="#353534"
       id="stop8" />
    <stop
       offset=".08"
       stop-color="#333"
       id="stop10" />
    <stop
       offset=".92"
       stop-color="#333"
       id="stop12" />
    <stop
       offset=".973"
       stop-color="#353534"
       id="stop14" />
    <stop
       offset=".992"
       stop-color="#3a3c3a"
       id="stop16" />
    <stop
       offset="1"
       stop-color="#40423f"
       id="stop18" />
  </linearGradient>
  <path
     d="M 491.511,0 H 59.491 a 0.99,0.99 0 0 0 -0.99,0.99 v 12.677 h 434 V 0.99 A 0.99,0.99 0 0 0 491.511,0 Z"
     id="path21"
     inkscape:connector-curvature="0"
     style="fill:url(#a)" />
  <path
     d="m 516.501,13.667 v 418 l 26.556,157.845 a 0.99,0.99 0 0 1 -0.276,0.865 l 7.931,12 a 0.988,0.988 0 0 0 0.29,-0.7 V 14.656 a 0.99,0.99 0 0 0 -0.99,-0.99 z m -482,0 v 418 L 7.9450003,589.512 a 0.986,0.986 0 0 0 0.276,0.865 l -7.93100001,12 A 0.988,0.988 0 0 1 2.9020621e-7,601.677 L 0.00100029,14.656 a 0.99,0.99 0 0 1 0.99,-0.99 z"
     id="path23"
     inkscape:connector-curvature="0"
     style="fill:#4c423f" />
  <path
     d="M 275.501,584.155 H 17.259 A 0.982,0.982 0 0 1 16.29,583.009 L 41.751,431.667 v -418 h -7.25 v 418 L 7.9450003,589.512 a 0.99,0.99 0 0 0 0.977,1.155 H 542.08 a 0.99,0.99 0 0 0 0.977,-1.155 L 516.501,431.667 v -418 h -7.25 v 418 l 25.462,151.342 a 0.983,0.983 0 0 1 -0.969,1.146 z"
     id="path25"
     inkscape:connector-curvature="0"
     style="fill:#43454e" />
  <path
     d="M 275.501,590.667 H 8.9220003 a 0.987,0.987 0 0 1 -0.701,-0.29 l -7.93100001,12 c 0.179,0.179 0.426,0.29 0.7,0.29 H 550.01 a 0.988,0.988 0 0 0 0.7,-0.29 l -7.931,-12 a 0.986,0.986 0 0 1 -0.701,0.29 z"
     id="path27"
     inkscape:connector-curvature="0"
     style="fill:#3a2d2c" />
  <path
     d="m 308.168,542 h -10.833 a 1.417,1.417 0 0 1 -1.417,-1.417 V 450 h 13.667 v 90.583 A 1.418,1.418 0 0 1 308.168,542 Z"
     id="path29"
     inkscape:connector-curvature="0"
     style="fill:#444444" />
  <linearGradient
     id="b"
     gradientUnits="userSpaceOnUse"
     x1="295.91699"
     y1="557.18799"
     x2="533.16101"
     y2="557.18799"
     gradientTransform="translate(0.00100029)">
    <stop
       offset="0"
       stop-color="#35363b"
       id="stop31" />
    <stop
       offset="1"
       stop-color="#43454b"
       id="stop33" />
  </linearGradient>
  <path
     d="M 309.584,562.667 H 531.29 l 1.872,11.125 H 295.918 v -33.208 c 0,0.782 0.634,1.417 1.417,1.417 h 10.833 c 0.782,0 1.417,-0.634 1.417,-1.417 v 22.083 z"
     id="path36"
     inkscape:connector-curvature="0"
     style="fill:url(#b)" />
  <path
     d="M 484.962,573.792 H 326.29 a 0.289,0.289 0 0 1 -0.289,-0.289 v -36.297 c 0,-0.16 0.129,-0.289 0.289,-0.289 h 158.672 c 0.16,0 0.289,0.129 0.289,0.289 v 36.297 a 0.29,0.29 0 0 1 -0.289,0.289 z"
     stroke-miterlimit="10"
     id="path38"
     inkscape:connector-curvature="0"
     style="fill:#2d2f33;stroke:#202123;stroke-miterlimit:10" />
  <path
     d="M 481.543,514.917 H 329.709 a 3.719,3.719 0 0 1 -3.708,-3.708 v -58.292 h 159.25 v 58.292 a 3.72,3.72 0 0 1 -3.708,3.708 z"
     id="path40"
     inkscape:connector-curvature="0"
     style="fill:#1a1b1c" />
  <path
     d="m 473.325,455.667 v 40.375 c 0,4.652 -3.806,8.458 -8.458,8.458 H 346.385 c -4.652,0 -8.458,-3.806 -8.458,-8.458 v -40.375"
     stroke-miterlimit="10"
     id="path42"
     inkscape:connector-curvature="0"
     style="fill:none;stroke:#ffffff;stroke-width:2;stroke-miterlimit:10" />
  <path
     stroke-miterlimit="10"
     d="m 414.126,468.333 -8.5,-5.166 -8.5,5.166"
     id="path44"
     inkscape:connector-curvature="0"
     style="fill:none;stroke:#ffffff;stroke-width:2;stroke-miterlimit:10" />
  <path
     d="M 483.215,556.579 H 328.037 a 0.412,0.412 0 0 1 -0.411,-0.411 v -0.482 c 0,-0.226 0.185,-0.411 0.411,-0.411 h 155.178 c 0.226,0 0.411,0.185 0.411,0.411 v 0.482 a 0.412,0.412 0 0 1 -0.411,0.411 z m -121.127,-3.233 h -34.269 a 0.194,0.194 0 0 1 -0.194,-0.194 v -0.917 c 0,-0.107 0.087,-0.194 0.194,-0.194 h 34.269 c 0.107,0 0.194,0.087 0.194,0.194 v 0.917 a 0.194,0.194 0 0 1 -0.194,0.194 z m 0,-3 h -34.269 a 0.194,0.194 0 0 1 -0.194,-0.194 v -0.917 c 0,-0.107 0.087,-0.194 0.194,-0.194 h 34.269 c 0.107,0 0.194,0.087 0.194,0.194 v 0.917 a 0.194,0.194 0 0 1 -0.194,0.194 z m 0,-3 h -34.269 a 0.194,0.194 0 0 1 -0.194,-0.194 v -0.917 c 0,-0.107 0.087,-0.194 0.194,-0.194 h 34.269 c 0.107,0 0.194,0.087 0.194,0.194 v 0.917 a 0.194,0.194 0 0 1 -0.194,0.194 z m 0,-3 h -34.269 a 0.194,0.194 0 0 1 -0.194,-0.194 v -0.917 c 0,-0.107 0.087,-0.194 0.194,-0.194 h 34.269 c 0.107,0 0.194,0.087 0.194,0.194 v 0.917 a 0.194,0.194 0 0 1 -0.194,0.194 z m 0,-3 h -34.269 a 0.194,0.194 0 0 1 -0.194,-0.194 v -0.917 c 0,-0.107 0.087,-0.194 0.194,-0.194 h 34.269 c 0.107,0 0.194,0.087 0.194,0.194 v 0.917 a 0.194,0.194 0 0 1 -0.194,0.194 z m 87.076,12.036 h 34.269 a 0.194,0.194 0 0 0 0.194,-0.194 v -0.917 a 0.194,0.194 0 0 0 -0.194,-0.194 h -34.269 a 0.194,0.194 0 0 0 -0.194,0.194 v 0.917 c 0,0.107 0.087,0.194 0.194,0.194 z m 0,-3 h 34.269 a 0.194,0.194 0 0 0 0.194,-0.194 v -0.917 a 0.194,0.194 0 0 0 -0.194,-0.194 h -34.269 a 0.194,0.194 0 0 0 -0.194,0.194 v 0.917 c 0,0.107 0.087,0.194 0.194,0.194 z m 0,-3 h 34.269 a 0.194,0.194 0 0 0 0.194,-0.194 v -0.917 a 0.194,0.194 0 0 0 -0.194,-0.194 h -34.269 a 0.194,0.194 0 0 0 -0.194,0.194 v 0.917 c 0,0.107 0.087,0.194 0.194,0.194 z m 0,-3 h 34.269 a 0.194,0.194 0 0 0 0.194,-0.194 v -0.917 a 0.194,0.194 0 0 0 -0.194,-0.194 h -34.269 a 0.194,0.194 0 0 0 -0.194,0.194 v 0.917 c 0,0.107 0.087,0.194 0.194,0.194 z m 0,-3 h 34.269 a 0.194,0.194 0 0 0 0.194,-0.194 v -0.917 a 0.194,0.194 0 0 0 -0.194,-0.194 h -34.269 a 0.194,0.194 0 0 0 -0.194,0.194 v 0.917 c 0,0.107 0.087,0.194 0.194,0.194 z"
     id="path46"
     inkscape:connector-curvature="0"
     style="fill:#5d606d" />
  <path
     d="M 507.925,23.167 H 297.244 a 1.33,1.33 0 0 0 -1.326,1.326 v 393.514 a 1.33,1.33 0 0 0 1.326,1.326 h 210.681 a 1.33,1.33 0 0 0 1.326,-1.326 V 24.493 a 1.33,1.33 0 0 0 -1.326,-1.326 z"
     id="path48"
     inkscape:connector-curvature="0"
     style="fill:#2d2f33" />
  <path
     d="M 502.001,419.333 V 23.167 h 5.924 a 1.33,1.33 0 0 1 1.326,1.326 v 394.84 h -7.25 z m -453,0 V 23.167 h -5.924 a 1.33,1.33 0 0 0 -1.326,1.326 v 394.84 z"
     id="path50"
     inkscape:connector-curvature="0"
     style="fill:#494c56" />
  <path
     d="m 366.466,542.375 h 4.841 c 0.41,0 0.753,0.048 1.027,0.144 0.274,0.097 0.489,0.232 0.645,0.408 0.154,0.176 0.264,0.383 0.328,0.62 0.063,0.237 0.096,0.508 0.096,0.813 v 0.496 c 0,0.229 -0.028,0.453 -0.084,0.672 -0.056,0.219 -0.146,0.417 -0.272,0.596 a 1.336,1.336 0 0 1 -0.508,0.428 c -0.213,0.107 -0.47,0.16 -0.768,0.16 h -3.528 v 1.456 h -1.776 v -5.793 z m 1.777,2.895 h 2.76 c 0.197,0 0.343,-0.056 0.437,-0.168 a 0.676,0.676 0 0 0 0.14,-0.447 v -0.225 c 0,-0.202 -0.056,-0.355 -0.168,-0.46 -0.112,-0.104 -0.299,-0.155 -0.56,-0.155 h -2.608 v 1.455 z m 6.049,-1.183 h 1.439 v 0.776 h 0.017 c 0.08,-0.305 0.253,-0.521 0.52,-0.648 0.267,-0.127 0.592,-0.191 0.977,-0.191 0.554,0 0.953,0.126 1.195,0.38 0.243,0.253 0.364,0.662 0.364,1.228 0,0.059 -0.003,0.152 -0.008,0.28 a 0.438,0.438 0 0 0 -0.008,0.08 h -1.328 c 0,-0.277 -0.05,-0.475 -0.148,-0.592 -0.098,-0.117 -0.295,-0.177 -0.588,-0.177 -0.277,0 -0.496,0.057 -0.656,0.168 -0.16,0.112 -0.239,0.286 -0.239,0.521 v 2.256 h -1.536 v -4.081 z m 5.143,1.816 c 0,-0.374 0.044,-0.685 0.132,-0.933 0.088,-0.248 0.215,-0.439 0.38,-0.576 0.166,-0.136 0.361,-0.231 0.588,-0.287 a 3.26,3.26 0 0 1 0.788,-0.084 h 1.072 c 0.427,0 0.783,0.026 1.068,0.079 0.285,0.054 0.519,0.145 0.7,0.272 0.181,0.128 0.315,0.306 0.403,0.532 0.088,0.226 0.132,0.519 0.132,0.876 v 0.688 h -3.728 v 0.248 c 0,0.208 0.073,0.353 0.22,0.433 0.147,0.08 0.389,0.119 0.725,0.119 h 0.472 a 2.6,2.6 0 0 0 0.479,-0.035 0.66,0.66 0 0 0 0.261,-0.101 0.278,0.278 0 0 0 0.107,-0.14 0.601,0.601 0 0 0 0.024,-0.188 h 1.439 v 0.177 c 0,0.245 -0.051,0.45 -0.151,0.615 a 1.016,1.016 0 0 1 -0.429,0.385 c -0.184,0.091 -0.396,0.154 -0.636,0.191 -0.24,0.037 -0.509,0.057 -0.808,0.057 h -1.152 c -0.293,0 -0.559,-0.021 -0.796,-0.064 -0.237,-0.043 -0.455,-0.131 -0.652,-0.264 a 1.348,1.348 0 0 1 -0.468,-0.593 c -0.114,-0.261 -0.172,-0.6 -0.172,-1.016 v -0.391 z m 3.776,-0.345 c 0,-0.239 -0.072,-0.396 -0.216,-0.468 -0.145,-0.072 -0.446,-0.107 -0.904,-0.107 -0.267,0 -0.471,0.008 -0.612,0.023 a 1.034,1.034 0 0 0 -0.324,0.08 0.275,0.275 0 0 0 -0.147,0.164 1.022,1.022 0 0 0 -0.036,0.308 z m 3.784,1.336 c 0,0.064 0.01,0.118 0.028,0.16 0.019,0.043 0.06,0.08 0.124,0.112 a 0.972,0.972 0 0 0 0.292,0.076 c 0.13,0.019 0.3,0.027 0.508,0.027 h 0.544 c 0.368,0 0.612,-0.02 0.732,-0.06 0.119,-0.04 0.18,-0.121 0.18,-0.244 0,-0.122 -0.046,-0.209 -0.136,-0.26 -0.091,-0.051 -0.268,-0.076 -0.528,-0.076 h -1.44 a 5.213,5.213 0 0 1 -0.903,-0.076 c -0.235,-0.045 -0.422,-0.121 -0.561,-0.228 -0.139,-0.107 -0.238,-0.251 -0.3,-0.433 a 2.218,2.218 0 0 1 -0.092,-0.703 c 0,-0.246 0.047,-0.447 0.14,-0.604 a 0.894,0.894 0 0 1 0.388,-0.355 c 0.166,-0.08 0.357,-0.135 0.576,-0.164 0.219,-0.029 0.475,-0.044 0.769,-0.044 h 1.071 c 0.513,0 0.922,0.02 1.229,0.06 0.307,0.04 0.543,0.106 0.708,0.2 a 0.744,0.744 0 0 1 0.34,0.368 c 0.062,0.151 0.095,0.355 0.1,0.611 h -1.535 a 0.337,0.337 0 0 0 -0.089,-0.147 c -0.037,-0.035 -0.095,-0.063 -0.172,-0.084 -0.077,-0.021 -0.183,-0.035 -0.315,-0.04 a 13.92,13.92 0 0 0 -0.568,-0.008 c -0.453,0 -0.742,0.016 -0.868,0.048 -0.125,0.032 -0.188,0.117 -0.188,0.256 0,0.091 0.057,0.153 0.172,0.188 0.114,0.035 0.364,0.053 0.748,0.053 h 1.063 c 0.443,0 0.799,0.034 1.068,0.104 0.269,0.07 0.468,0.164 0.596,0.284 0.128,0.12 0.212,0.255 0.252,0.404 0.04,0.149 0.061,0.333 0.061,0.552 0,0.277 -0.033,0.503 -0.101,0.676 -0.066,0.174 -0.179,0.31 -0.336,0.408 -0.157,0.098 -0.374,0.169 -0.651,0.212 -0.277,0.043 -0.643,0.064 -1.097,0.064 h -1.456 c -0.714,0 -1.216,-0.098 -1.504,-0.292 -0.288,-0.195 -0.432,-0.543 -0.432,-1.045 z m 6.328,0 c 0,0.064 0.01,0.118 0.028,0.16 0.019,0.043 0.06,0.08 0.124,0.112 a 0.972,0.972 0 0 0 0.292,0.076 c 0.13,0.019 0.3,0.027 0.508,0.027 h 0.544 c 0.368,0 0.612,-0.02 0.732,-0.06 0.119,-0.04 0.18,-0.121 0.18,-0.244 0,-0.122 -0.046,-0.209 -0.136,-0.26 -0.091,-0.051 -0.268,-0.076 -0.528,-0.076 h -1.44 a 5.213,5.213 0 0 1 -0.903,-0.076 c -0.235,-0.045 -0.422,-0.121 -0.561,-0.228 -0.139,-0.107 -0.238,-0.251 -0.3,-0.433 a 2.218,2.218 0 0 1 -0.092,-0.703 c 0,-0.246 0.047,-0.447 0.14,-0.604 a 0.894,0.894 0 0 1 0.388,-0.355 c 0.166,-0.08 0.357,-0.135 0.576,-0.164 0.219,-0.029 0.475,-0.044 0.769,-0.044 h 1.071 c 0.513,0 0.922,0.02 1.229,0.06 0.307,0.04 0.543,0.106 0.708,0.2 a 0.744,0.744 0 0 1 0.34,0.368 c 0.062,0.151 0.095,0.355 0.1,0.611 h -1.535 a 0.337,0.337 0 0 0 -0.089,-0.147 c -0.037,-0.035 -0.095,-0.063 -0.172,-0.084 -0.077,-0.021 -0.183,-0.035 -0.315,-0.04 a 13.92,13.92 0 0 0 -0.568,-0.008 c -0.453,0 -0.742,0.016 -0.868,0.048 -0.125,0.032 -0.188,0.117 -0.188,0.256 0,0.091 0.057,0.153 0.172,0.188 0.114,0.035 0.364,0.053 0.748,0.053 h 1.063 c 0.443,0 0.799,0.034 1.068,0.104 0.269,0.07 0.468,0.164 0.596,0.284 0.128,0.12 0.212,0.255 0.252,0.404 0.04,0.149 0.061,0.333 0.061,0.552 0,0.277 -0.033,0.503 -0.101,0.676 -0.066,0.174 -0.179,0.31 -0.336,0.408 -0.157,0.098 -0.374,0.169 -0.651,0.212 -0.277,0.043 -0.643,0.064 -1.097,0.064 h -1.456 c -0.714,0 -1.216,-0.098 -1.504,-0.292 -0.288,-0.195 -0.432,-0.543 -0.432,-1.045 z m 9.216,-1.703 h -0.769 v -1.104 h 0.769 v -0.96 h 1.535 v 0.96 h 2.385 v 1.104 h -2.385 v 1.567 c 0,0.145 0.049,0.241 0.145,0.292 0.096,0.051 0.245,0.076 0.448,0.076 0.245,0 0.411,-0.034 0.5,-0.104 0.088,-0.069 0.132,-0.197 0.132,-0.385 v -0.271 h 1.344 v 0.496 c 0,0.41 -0.143,0.741 -0.428,0.992 -0.285,0.25 -0.722,0.376 -1.309,0.376 h -0.607 c -0.251,0 -0.48,-0.023 -0.688,-0.068 -0.208,-0.045 -0.394,-0.121 -0.556,-0.229 -0.163,-0.106 -0.289,-0.253 -0.38,-0.439 -0.091,-0.186 -0.136,-0.416 -0.136,-0.688 z m 4.863,0.447 c 0,-0.319 0.048,-0.586 0.145,-0.8 0.096,-0.213 0.225,-0.38 0.388,-0.5 a 1.45,1.45 0 0 1 0.536,-0.248 2.74,2.74 0 0 1 0.62,-0.067 h 2.296 c 0.219,0 0.425,0.022 0.62,0.067 0.194,0.046 0.373,0.128 0.536,0.248 0.162,0.12 0.292,0.287 0.388,0.5 0.096,0.214 0.144,0.48 0.144,0.8 v 0.977 c 0,0.319 -0.048,0.587 -0.144,0.8 -0.096,0.213 -0.226,0.38 -0.388,0.5 a 1.45,1.45 0 0 1 -0.536,0.248 2.746,2.746 0 0 1 -0.62,0.068 h -2.296 a 2.74,2.74 0 0 1 -0.62,-0.068 1.435,1.435 0 0 1 -0.536,-0.248 1.233,1.233 0 0 1 -0.388,-0.5 c -0.097,-0.213 -0.145,-0.48 -0.145,-0.8 z m 1.536,0.681 c 0,0.282 0.083,0.479 0.248,0.592 0.165,0.113 0.432,0.168 0.8,0.168 h 0.368 c 0.256,0 0.46,-0.011 0.612,-0.032 a 0.99,0.99 0 0 0 0.352,-0.104 0.38,0.38 0 0 0 0.172,-0.196 0.97,0.97 0 0 0 0.048,-0.34 v -0.561 c 0,-0.144 -0.016,-0.259 -0.048,-0.344 -0.031,-0.085 -0.089,-0.152 -0.172,-0.2 -0.083,-0.048 -0.2,-0.081 -0.352,-0.1 a 5.192,5.192 0 0 0 -0.612,-0.028 h -0.368 c -0.368,0 -0.635,0.057 -0.8,0.168 -0.165,0.112 -0.248,0.31 -0.248,0.592 z m 9.111,-3.944 h 6.336 v 1.344 h -4.56 v 0.929 h 4.32 v 1.199 h -4.32 v 0.929 h 4.664 v 1.392 h -6.44 z m 9.066,6.055 c 0,0.422 -0.128,0.721 -0.385,0.896 -0.256,0.176 -0.626,0.264 -1.111,0.264 -0.086,0 -0.222,-0.008 -0.408,-0.023 a 4.205,4.205 0 0 1 -0.2,-0.017 v -1.032 a 0.16,0.16 0 0 1 0.056,0.009 c 0.054,0.005 0.089,0.008 0.104,0.008 0.272,0 0.408,-0.134 0.408,-0.4 v -4.048 h 1.536 z m 0,-4.855 h -1.536 v -1.2 h 1.536 z m 0.951,2.328 c 0,-0.374 0.044,-0.685 0.132,-0.933 0.088,-0.248 0.215,-0.439 0.38,-0.576 0.166,-0.136 0.361,-0.231 0.588,-0.287 a 3.26,3.26 0 0 1 0.788,-0.084 h 1.072 c 0.427,0 0.783,0.026 1.068,0.079 0.285,0.054 0.519,0.145 0.7,0.272 0.181,0.128 0.315,0.306 0.403,0.532 0.088,0.226 0.132,0.519 0.132,0.876 v 0.688 h -3.728 v 0.248 c 0,0.208 0.073,0.353 0.22,0.433 0.147,0.08 0.389,0.119 0.725,0.119 h 0.472 a 2.6,2.6 0 0 0 0.479,-0.035 0.66,0.66 0 0 0 0.261,-0.101 0.278,0.278 0 0 0 0.107,-0.14 0.601,0.601 0 0 0 0.024,-0.188 h 1.439 v 0.177 c 0,0.245 -0.051,0.45 -0.151,0.615 a 1.016,1.016 0 0 1 -0.429,0.385 c -0.184,0.091 -0.396,0.154 -0.636,0.191 -0.24,0.037 -0.509,0.057 -0.808,0.057 h -1.152 c -0.293,0 -0.559,-0.021 -0.796,-0.064 -0.237,-0.043 -0.455,-0.131 -0.652,-0.264 a 1.348,1.348 0 0 1 -0.468,-0.593 c -0.114,-0.261 -0.172,-0.6 -0.172,-1.016 v -0.391 z m 3.776,-0.345 c 0,-0.239 -0.072,-0.396 -0.216,-0.468 -0.145,-0.072 -0.446,-0.107 -0.904,-0.107 -0.267,0 -0.471,0.008 -0.612,0.023 a 1.034,1.034 0 0 0 -0.324,0.08 0.275,0.275 0 0 0 -0.147,0.164 1.022,1.022 0 0 0 -0.036,0.308 z m 2.159,0.345 c 0,-0.374 0.044,-0.685 0.132,-0.933 0.088,-0.248 0.215,-0.439 0.38,-0.576 0.166,-0.136 0.361,-0.231 0.588,-0.287 a 3.26,3.26 0 0 1 0.788,-0.084 h 1.729 c 0.587,0 1.038,0.11 1.355,0.332 0.317,0.221 0.477,0.561 0.477,1.02 v 0.368 h -1.488 c 0,-0.208 -0.065,-0.354 -0.196,-0.44 -0.13,-0.085 -0.361,-0.128 -0.691,-0.128 h -0.592 c -0.326,0 -0.564,0.05 -0.717,0.148 -0.151,0.099 -0.228,0.257 -0.228,0.476 v 0.544 c 0,0.251 0.07,0.428 0.212,0.532 0.142,0.104 0.343,0.156 0.604,0.156 h 0.783 c 0.245,0 0.444,-0.036 0.597,-0.108 a 0.374,0.374 0 0 0 0.228,-0.364 v -0.096 h 1.488 v 0.36 c 0,0.261 -0.05,0.483 -0.148,0.668 a 1.145,1.145 0 0 1 -0.403,0.436 c -0.171,0.107 -0.361,0.185 -0.572,0.232 -0.211,0.047 -0.434,0.072 -0.668,0.072 h -1.568 c -0.293,0 -0.559,-0.021 -0.796,-0.064 -0.237,-0.043 -0.455,-0.131 -0.652,-0.264 a 1.348,1.348 0 0 1 -0.468,-0.593 c -0.114,-0.261 -0.172,-0.6 -0.172,-1.016 v -0.391 z m 6.681,-0.712 h -0.769 v -1.104 h 0.769 v -0.96 h 1.535 v 0.96 h 2.385 v 1.104 h -2.385 v 1.567 c 0,0.145 0.049,0.241 0.145,0.292 0.096,0.051 0.245,0.076 0.448,0.076 0.245,0 0.411,-0.034 0.5,-0.104 0.088,-0.069 0.132,-0.197 0.132,-0.385 v -0.271 h 1.344 v 0.496 c 0,0.41 -0.143,0.741 -0.428,0.992 -0.285,0.25 -0.722,0.376 -1.309,0.376 h -0.607 c -0.251,0 -0.48,-0.023 -0.688,-0.068 -0.208,-0.045 -0.394,-0.121 -0.556,-0.229 -0.163,-0.106 -0.289,-0.253 -0.38,-0.439 -0.091,-0.186 -0.136,-0.416 -0.136,-0.688 z m -85.47,-73.593 h 1.554 v 5.068 h -1.554 z m 2.688,0 h 2.407 l 2.919,3.683 h 0.015 v -3.683 h 1.554 v 5.068 h -2.408 l -2.919,-3.682 h -0.014 v 3.682 H 357.9 Z m 7.853,3.409 h 1.555 c 0.004,0.252 0.055,0.412 0.15,0.479 0.096,0.068 0.27,0.102 0.521,0.102 h 1.904 c 0.21,0 0.373,-0.026 0.489,-0.08 0.117,-0.054 0.175,-0.169 0.175,-0.347 0,-0.121 -0.021,-0.211 -0.066,-0.27 -0.044,-0.059 -0.135,-0.102 -0.272,-0.13 -0.138,-0.027 -0.339,-0.046 -0.603,-0.056 -0.264,-0.01 -0.678,-0.014 -1.242,-0.014 a 11.58,11.58 0 0 1 -1.41,-0.066 c -0.339,-0.045 -0.593,-0.12 -0.764,-0.228 a 0.788,0.788 0 0 1 -0.343,-0.445 c -0.059,-0.188 -0.087,-0.451 -0.087,-0.787 0,-0.28 0.018,-0.51 0.052,-0.689 a 0.977,0.977 0 0 1 0.249,-0.483 c 0.131,-0.142 0.336,-0.253 0.616,-0.332 0.279,-0.079 0.655,-0.119 1.127,-0.119 h 2.17 c 0.434,0 0.784,0.035 1.05,0.105 0.266,0.069 0.463,0.169 0.592,0.297 0.128,0.129 0.213,0.28 0.255,0.455 0.042,0.175 0.063,0.389 0.063,0.641 v 0.161 h -1.555 c 0,-0.205 -0.042,-0.345 -0.126,-0.417 -0.084,-0.072 -0.294,-0.108 -0.63,-0.108 h -1.722 a 0.809,0.809 0 0 0 -0.431,0.099 0.324,0.324 0 0 0 -0.157,0.294 c 0,0.107 0.019,0.188 0.056,0.245 0.037,0.056 0.115,0.099 0.234,0.129 0.119,0.03 0.299,0.051 0.539,0.06 0.24,0.01 0.582,0.014 1.025,0.014 0.663,0 1.178,0.018 1.544,0.053 0.366,0.035 0.654,0.106 0.864,0.214 0.21,0.108 0.357,0.266 0.441,0.476 0.084,0.21 0.126,0.502 0.126,0.875 0,0.354 -0.036,0.634 -0.108,0.837 -0.072,0.203 -0.198,0.359 -0.378,0.469 -0.18,0.11 -0.429,0.185 -0.746,0.224 a 10.9,10.9 0 0 1 -1.295,0.06 h -1.883 c -0.369,0 -0.676,-0.021 -0.921,-0.063 -0.245,-0.042 -0.445,-0.112 -0.602,-0.21 -0.156,-0.099 -0.272,-0.235 -0.347,-0.413 -0.075,-0.178 -0.112,-0.403 -0.112,-0.679 v -0.353 z m 7.351,-3.409 h 5.544 v 1.177 h -3.99 v 0.812 h 3.78 v 1.05 h -3.78 v 0.813 h 4.081 v 1.218 h -5.635 z m 6.573,0 h 4.689 c 0.294,0 0.539,0.035 0.735,0.105 0.196,0.07 0.351,0.17 0.465,0.301 0.115,0.131 0.196,0.287 0.245,0.469 a 2.4,2.4 0 0 1 0.074,0.63 v 0.322 c 0,0.364 -0.06,0.644 -0.179,0.837 -0.119,0.193 -0.349,0.33 -0.689,0.409 v 0.014 c 0.131,0.023 0.245,0.058 0.343,0.102 a 0.857,0.857 0 0 1 0.263,0.186 c 0.077,0.08 0.137,0.188 0.179,0.326 0.042,0.138 0.063,0.307 0.063,0.507 v 0.861 h -1.554 v -0.609 c 0,-0.266 -0.046,-0.45 -0.137,-0.553 -0.091,-0.103 -0.258,-0.154 -0.5,-0.154 h -2.443 v 1.316 h -1.554 z m 1.554,2.492 h 2.569 c 0.205,0 0.352,-0.042 0.44,-0.126 0.088,-0.084 0.133,-0.219 0.133,-0.406 v -0.168 c 0,-0.214 -0.054,-0.356 -0.161,-0.427 -0.107,-0.071 -0.291,-0.104 -0.553,-0.104 h -2.429 v 1.231 z m 5.334,-2.492 h 5.922 v 1.261 h -2.185 v 3.808 h -1.554 v -3.808 h -2.184 v -1.261 z m 9.947,1.779 c 0,-0.364 0.05,-0.666 0.15,-0.906 0.1,-0.24 0.245,-0.429 0.434,-0.563 0.189,-0.136 0.418,-0.23 0.687,-0.284 0.269,-0.053 0.589,-0.08 0.963,-0.08 h 1.826 c 0.546,0 0.981,0.031 1.306,0.095 0.324,0.063 0.571,0.167 0.742,0.312 0.17,0.145 0.286,0.333 0.347,0.566 0.061,0.233 0.091,0.546 0.091,0.938 h -1.554 v -0.14 c 0,-0.173 -0.061,-0.295 -0.183,-0.364 -0.121,-0.07 -0.303,-0.105 -0.546,-0.105 h -1.693 c -0.383,0 -0.641,0.083 -0.773,0.249 -0.134,0.165 -0.2,0.421 -0.2,0.767 v 0.546 c 0,0.383 0.06,0.647 0.179,0.794 0.119,0.147 0.355,0.221 0.711,0.221 h 1.658 c 0.191,0 0.342,-0.007 0.452,-0.021 a 0.61,0.61 0 0 0 0.266,-0.092 0.394,0.394 0 0 0 0.147,-0.21 c 0.03,-0.093 0.045,-0.219 0.045,-0.378 h 1.555 v 0.477 c 0,0.233 -0.026,0.439 -0.077,0.619 a 1.1,1.1 0 0 1 -0.28,0.473 c -0.136,0.136 -0.327,0.241 -0.574,0.318 -0.247,0.077 -0.56,0.115 -0.938,0.115 h -2.506 a 4.71,4.71 0 0 1 -0.963,-0.084 1.832,1.832 0 0 1 -0.687,-0.283 c -0.188,-0.133 -0.333,-0.319 -0.434,-0.56 -0.101,-0.241 -0.15,-0.543 -0.15,-0.907 v -1.513 z m 9.793,-1.779 h 2.022 l 2.786,5.068 h -1.729 l -0.482,-0.896 h -3.15 l -0.455,0.896 h -1.735 z m 0.028,3.08 h 1.988 l -1.008,-1.903 z m 5.334,-3.08 h 4.689 c 0.294,0 0.539,0.035 0.735,0.105 0.196,0.07 0.351,0.17 0.465,0.301 0.115,0.131 0.196,0.287 0.245,0.469 a 2.4,2.4 0 0 1 0.074,0.63 v 0.322 c 0,0.364 -0.06,0.644 -0.179,0.837 -0.119,0.193 -0.349,0.33 -0.689,0.409 v 0.014 c 0.131,0.023 0.245,0.058 0.343,0.102 a 0.857,0.857 0 0 1 0.263,0.186 c 0.077,0.08 0.137,0.188 0.179,0.326 0.042,0.138 0.063,0.307 0.063,0.507 v 0.861 h -1.554 v -0.609 c 0,-0.266 -0.046,-0.45 -0.137,-0.553 -0.091,-0.103 -0.258,-0.154 -0.5,-0.154 h -2.443 v 1.316 h -1.554 z m 1.553,2.492 h 2.569 c 0.205,0 0.352,-0.042 0.44,-0.126 0.088,-0.084 0.133,-0.219 0.133,-0.406 v -0.168 c 0,-0.214 -0.054,-0.356 -0.161,-0.427 -0.107,-0.071 -0.291,-0.104 -0.553,-0.104 h -2.429 v 1.231 z m 5.335,-2.492 h 5.922 v 1.261 h -2.185 v 3.808 h -1.554 v -3.808 h -2.184 v -1.261 z m 6.601,0 h 4.689 c 0.294,0 0.539,0.035 0.735,0.105 0.196,0.07 0.351,0.17 0.465,0.301 0.115,0.131 0.196,0.287 0.245,0.469 a 2.4,2.4 0 0 1 0.074,0.63 v 0.322 c 0,0.364 -0.06,0.644 -0.179,0.837 -0.119,0.193 -0.349,0.33 -0.689,0.409 v 0.014 c 0.131,0.023 0.245,0.058 0.343,0.102 a 0.857,0.857 0 0 1 0.263,0.186 c 0.077,0.08 0.137,0.188 0.179,0.326 0.042,0.138 0.063,0.307 0.063,0.507 v 0.861 h -1.554 v -0.609 c 0,-0.266 -0.046,-0.45 -0.137,-0.553 -0.091,-0.103 -0.258,-0.154 -0.5,-0.154 h -2.443 v 1.316 h -1.554 z m 1.553,2.492 h 2.569 c 0.205,0 0.352,-0.042 0.44,-0.126 0.088,-0.084 0.133,-0.219 0.133,-0.406 v -0.168 c 0,-0.214 -0.054,-0.356 -0.161,-0.427 -0.107,-0.071 -0.291,-0.104 -0.553,-0.104 h -2.429 v 1.231 z m 5.79,-2.492 h 1.554 v 5.068 h -1.554 z m 2.744,0 h 4.69 c 0.77,0 1.313,0.136 1.627,0.406 0.315,0.271 0.473,0.724 0.473,1.358 v 1.54 c 0,0.635 -0.157,1.087 -0.473,1.357 -0.314,0.271 -0.857,0.406 -1.627,0.406 h -4.69 z m 1.553,3.767 h 2.758 c 0.341,0 0.58,-0.064 0.718,-0.192 0.138,-0.129 0.207,-0.368 0.207,-0.718 v -0.687 c 0,-0.35 -0.069,-0.589 -0.207,-0.717 -0.138,-0.129 -0.377,-0.192 -0.718,-0.192 h -2.758 z m 6.063,-1.988 c 0,-0.364 0.05,-0.666 0.15,-0.906 0.1,-0.24 0.245,-0.429 0.434,-0.563 0.189,-0.136 0.418,-0.23 0.687,-0.284 0.269,-0.053 0.589,-0.08 0.963,-0.08 h 2.338 c 0.429,0 0.777,0.037 1.046,0.112 0.269,0.074 0.472,0.181 0.609,0.318 0.137,0.137 0.23,0.302 0.28,0.493 0.049,0.191 0.073,0.425 0.073,0.7 v 0.161 h -1.526 c 0,-0.233 -0.061,-0.386 -0.182,-0.459 -0.121,-0.072 -0.322,-0.108 -0.603,-0.108 h -1.687 c -0.205,0 -0.37,0.016 -0.493,0.046 a 0.595,0.595 0 0 0 -0.294,0.157 0.64,0.64 0 0 0 -0.154,0.315 c -0.03,0.135 -0.046,0.314 -0.046,0.539 v 0.63 c 0,0.224 0.016,0.403 0.046,0.539 0.03,0.135 0.081,0.24 0.154,0.314 0.072,0.075 0.17,0.127 0.294,0.158 0.123,0.03 0.288,0.045 0.493,0.045 h 1.659 c 0.116,0 0.222,-0.007 0.314,-0.021 a 0.865,0.865 0 0 0 0.252,-0.077 0.426,0.426 0 0 0 0.179,-0.168 0.562,0.562 0 0 0 0.066,-0.287 v -0.147 h -1.932 v -1.05 h 3.486 v 1.442 c 0,0.359 -0.049,0.642 -0.144,0.847 a 0.936,0.936 0 0 1 -0.438,0.455 c -0.196,0.098 -0.438,0.16 -0.725,0.186 -0.287,0.026 -0.688,0.038 -1.201,0.038 h -1.868 a 4.71,4.71 0 0 1 -0.963,-0.084 1.832,1.832 0 0 1 -0.687,-0.283 c -0.188,-0.133 -0.333,-0.319 -0.434,-0.56 -0.101,-0.241 -0.15,-0.543 -0.15,-0.907 v -1.511 z m 7.546,-1.779 h 5.544 v 1.177 h -3.99 v 0.812 h 3.78 v 1.05 h -3.78 v 0.813 h 4.081 v 1.218 h -5.635 z"
     id="path52"
     inkscape:connector-curvature="0"
     style="fill:#ffffff" />
  <path
     d="m 155.332,4.615 c 1.09,0 1.791,0.181 2.104,0.542 0.313,0.362 0.47,1.171 0.47,2.429 0,1.374 -0.157,2.239 -0.472,2.597 -0.315,0.357 -1.078,0.536 -2.288,0.536 -1.09,0 -1.794,-0.177 -2.113,-0.529 -0.319,-0.354 -0.479,-1.13 -0.479,-2.332 0,-1.429 0.156,-2.327 0.47,-2.693 0.314,-0.366 1.082,-0.55 2.308,-0.55 z m -0.088,0.975 c -0.766,0 -1.212,0.099 -1.341,0.295 -0.129,0.196 -0.193,0.876 -0.193,2.039 0,0.861 0.075,1.38 0.227,1.556 0.15,0.176 0.595,0.264 1.333,0.264 0.706,0 1.13,-0.099 1.271,-0.297 0.141,-0.197 0.211,-0.798 0.211,-1.8 0,-1.004 -0.066,-1.599 -0.2,-1.781 -0.134,-0.184 -0.57,-0.276 -1.308,-0.276 z m 4.57,0.035 v 1.617 h 2.689 v 0.959 h -2.689 v 2.465 h -1.139 V 4.668 h 3.973 v 0.957 z m 4.667,0 v 1.617 h 2.689 v 0.959 h -2.689 v 2.465 h -1.139 V 4.668 h 3.973 v 0.957 z m 17.271,-1.01 c 1.09,0 1.791,0.181 2.104,0.542 0.313,0.362 0.47,1.171 0.47,2.429 0,1.374 -0.157,2.239 -0.472,2.597 -0.315,0.357 -1.078,0.536 -2.288,0.536 -1.09,0 -1.794,-0.177 -2.113,-0.529 -0.319,-0.354 -0.479,-1.13 -0.479,-2.332 0,-1.429 0.156,-2.327 0.47,-2.693 0.314,-0.366 1.082,-0.55 2.308,-0.55 z m -0.088,0.975 c -0.766,0 -1.212,0.099 -1.341,0.295 -0.129,0.196 -0.193,0.876 -0.193,2.039 0,0.861 0.075,1.38 0.227,1.556 0.15,0.176 0.595,0.264 1.333,0.264 0.706,0 1.13,-0.099 1.271,-0.297 0.141,-0.197 0.211,-0.798 0.211,-1.8 0,-1.004 -0.066,-1.599 -0.2,-1.781 -0.134,-0.184 -0.57,-0.276 -1.308,-0.276 z m 9,-0.922 v 5.998 h -1.93 L 187.02,7.375 a 16.663,16.663 0 0 1 -0.399,-0.861 l -0.193,-0.432 -0.189,-0.43 h -0.044 l 0.018,0.395 0.013,0.392 0.01,0.786 v 3.441 h -1.139 V 4.668 h 1.93 l 1.56,3.041 c 0.138,0.27 0.297,0.596 0.479,0.979 l 0.229,0.487 0.229,0.492 h 0.039 L 189.549,9.28 189.536,8.893 189.527,8.12 V 4.668 Z"
     id="path54"
     inkscape:connector-curvature="0"
     style="fill:#262625" />
  <path
     d="M 285.721,573.792 H 47.781 a 2.537,2.537 0 0 1 -2.53,-2.53 l 27.75,-97.134 a 2.537,2.537 0 0 1 2.53,-2.53 h 210.19 a 2.537,2.537 0 0 1 2.53,2.53 v 97.134 a 2.537,2.537 0 0 1 -2.53,2.53 z"
     id="path56"
     inkscape:connector-curvature="0"
     style="fill:#272828" />
  <path
     d="m 158.877,489.268 h 2.387 l 1.757,3.263 1.757,-3.263 h 2.388 v 5.068 h -1.513 v -3.64 h -0.014 l -2.037,3.64 h -1.162 l -2.037,-3.64 h -0.014 v 3.64 h -1.512 z m 9.225,1.779 c 0,-0.364 0.05,-0.666 0.15,-0.906 0.1,-0.24 0.245,-0.429 0.434,-0.563 0.189,-0.136 0.418,-0.23 0.687,-0.284 0.269,-0.053 0.589,-0.08 0.963,-0.08 h 2.491 c 0.374,0 0.694,0.028 0.963,0.084 0.269,0.056 0.498,0.15 0.689,0.283 0.191,0.134 0.336,0.32 0.434,0.561 0.099,0.24 0.147,0.542 0.147,0.906 v 1.512 c 0,0.364 -0.049,0.665 -0.147,0.903 a 1.243,1.243 0 0 1 -0.434,0.56 1.811,1.811 0 0 1 -0.689,0.287 4.71,4.71 0 0 1 -0.963,0.084 h -2.491 a 4.71,4.71 0 0 1 -0.963,-0.084 1.832,1.832 0 0 1 -0.687,-0.283 c -0.188,-0.133 -0.333,-0.319 -0.434,-0.56 -0.101,-0.241 -0.15,-0.543 -0.15,-0.907 z m 1.596,1.029 c 0,0.383 0.06,0.647 0.179,0.794 0.119,0.147 0.355,0.221 0.711,0.221 h 1.987 c 0.354,0 0.592,-0.073 0.711,-0.221 0.119,-0.146 0.179,-0.411 0.179,-0.794 v -0.546 c 0,-0.346 -0.066,-0.602 -0.2,-0.767 -0.133,-0.166 -0.391,-0.249 -0.773,-0.249 h -1.819 c -0.383,0 -0.641,0.083 -0.773,0.249 -0.134,0.165 -0.2,0.421 -0.2,0.767 v 0.546 z m 6.356,-2.808 h 4.69 c 0.77,0 1.313,0.136 1.627,0.406 0.315,0.271 0.473,0.724 0.473,1.358 v 1.54 c 0,0.635 -0.157,1.087 -0.473,1.357 -0.314,0.271 -0.857,0.406 -1.627,0.406 h -4.69 z m 1.554,3.767 h 2.758 c 0.341,0 0.58,-0.064 0.718,-0.192 0.138,-0.129 0.207,-0.368 0.207,-0.718 v -0.687 c 0,-0.35 -0.069,-0.589 -0.207,-0.717 -0.138,-0.129 -0.377,-0.192 -0.718,-0.192 h -2.758 z m 6.175,-3.767 h 5.544 v 1.177 h -3.99 v 0.812 h 3.78 v 1.05 h -3.78 v 0.813 h 4.081 v 1.218 h -5.635 z m 9.505,-0.055 h 1.554 v 1.807 h 3.276 v -1.807 h 1.554 v 5.068 h -1.554 v -1.918 h -3.276 v 1.918 h -1.554 z m 7.321,1.778 c 0,-0.364 0.05,-0.666 0.15,-0.906 0.1,-0.24 0.245,-0.429 0.434,-0.563 0.189,-0.136 0.418,-0.23 0.687,-0.284 0.269,-0.053 0.589,-0.08 0.963,-0.08 h 2.491 c 0.374,0 0.694,0.028 0.963,0.084 0.269,0.056 0.498,0.15 0.689,0.283 0.191,0.134 0.336,0.32 0.434,0.561 0.099,0.24 0.147,0.542 0.147,0.906 v 1.512 c 0,0.364 -0.049,0.665 -0.147,0.903 a 1.243,1.243 0 0 1 -0.434,0.56 1.811,1.811 0 0 1 -0.689,0.287 4.71,4.71 0 0 1 -0.963,0.084 h -2.491 a 4.71,4.71 0 0 1 -0.963,-0.084 1.832,1.832 0 0 1 -0.687,-0.283 c -0.188,-0.133 -0.333,-0.319 -0.434,-0.56 -0.101,-0.241 -0.15,-0.543 -0.15,-0.907 z m 1.596,1.029 c 0,0.383 0.06,0.647 0.179,0.794 0.119,0.147 0.355,0.221 0.711,0.221 h 1.987 c 0.354,0 0.592,-0.073 0.711,-0.221 0.119,-0.146 0.179,-0.411 0.179,-0.794 v -0.546 c 0,-0.346 -0.066,-0.602 -0.2,-0.767 -0.133,-0.166 -0.391,-0.249 -0.773,-0.249 h -1.819 c -0.383,0 -0.641,0.083 -0.773,0.249 -0.134,0.165 -0.2,0.421 -0.2,0.767 v 0.546 z m 6.3,-2.807 h 1.554 v 3.767 h 3.493 v 1.302 h -5.047 z m 5.761,0 h 4.69 c 0.77,0 1.313,0.136 1.627,0.406 0.315,0.271 0.473,0.724 0.473,1.358 v 1.54 c 0,0.635 -0.157,1.087 -0.473,1.357 -0.314,0.271 -0.857,0.406 -1.627,0.406 h -4.69 z m 1.554,3.766 h 2.758 c 0.341,0 0.58,-0.064 0.718,-0.192 0.138,-0.129 0.207,-0.368 0.207,-0.718 v -0.687 c 0,-0.35 -0.069,-0.589 -0.207,-0.717 -0.138,-0.129 -0.377,-0.192 -0.718,-0.192 h -2.758 z m 11.499,-0.378 h 1.555 c 0.004,0.252 0.055,0.412 0.15,0.479 0.096,0.068 0.27,0.102 0.521,0.102 h 1.904 c 0.21,0 0.373,-0.026 0.489,-0.08 0.117,-0.054 0.175,-0.169 0.175,-0.347 0,-0.121 -0.021,-0.211 -0.066,-0.27 -0.044,-0.059 -0.135,-0.102 -0.272,-0.13 -0.138,-0.027 -0.339,-0.046 -0.603,-0.056 -0.264,-0.01 -0.678,-0.014 -1.242,-0.014 a 11.58,11.58 0 0 1 -1.41,-0.066 c -0.339,-0.045 -0.593,-0.12 -0.764,-0.228 a 0.788,0.788 0 0 1 -0.343,-0.445 c -0.059,-0.188 -0.087,-0.451 -0.087,-0.787 0,-0.28 0.018,-0.51 0.052,-0.689 a 0.977,0.977 0 0 1 0.249,-0.483 c 0.131,-0.142 0.336,-0.253 0.616,-0.332 0.279,-0.079 0.655,-0.119 1.127,-0.119 h 2.17 c 0.434,0 0.784,0.035 1.05,0.105 0.266,0.069 0.463,0.169 0.592,0.297 0.128,0.129 0.213,0.28 0.255,0.455 0.042,0.175 0.063,0.389 0.063,0.641 v 0.161 h -1.555 c 0,-0.205 -0.042,-0.345 -0.126,-0.417 -0.084,-0.072 -0.294,-0.108 -0.63,-0.108 h -1.722 a 0.809,0.809 0 0 0 -0.431,0.099 0.324,0.324 0 0 0 -0.157,0.294 c 0,0.107 0.019,0.188 0.056,0.245 0.037,0.056 0.115,0.099 0.234,0.129 0.119,0.03 0.299,0.051 0.539,0.06 0.24,0.01 0.582,0.014 1.025,0.014 0.663,0 1.178,0.018 1.544,0.053 0.366,0.035 0.654,0.106 0.864,0.214 0.21,0.108 0.357,0.266 0.441,0.476 0.084,0.21 0.126,0.502 0.126,0.875 0,0.354 -0.036,0.634 -0.108,0.837 -0.072,0.203 -0.198,0.359 -0.378,0.469 -0.18,0.11 -0.429,0.185 -0.746,0.224 a 10.9,10.9 0 0 1 -1.295,0.06 h -1.88 c -0.369,0 -0.676,-0.021 -0.921,-0.063 -0.245,-0.042 -0.445,-0.112 -0.602,-0.21 -0.156,-0.099 -0.272,-0.235 -0.347,-0.413 -0.075,-0.178 -0.112,-0.403 -0.112,-0.679 z m 6.98,-3.409 h 5.922 v 1.261 h -2.185 v 3.808 h -1.554 v -3.808 h -2.184 v -1.261 z m 8.33,0 h 2.022 l 2.786,5.068 h -1.729 l -0.482,-0.896 h -3.15 l -0.455,0.896 h -1.735 z m 0.027,3.08 h 1.988 l -1.008,-1.903 z m 5.335,-3.08 h 4.689 c 0.294,0 0.539,0.035 0.735,0.105 0.196,0.07 0.351,0.17 0.465,0.301 0.115,0.131 0.196,0.287 0.245,0.469 a 2.4,2.4 0 0 1 0.074,0.63 v 0.322 c 0,0.364 -0.06,0.644 -0.179,0.837 -0.119,0.193 -0.349,0.33 -0.689,0.409 v 0.014 c 0.131,0.023 0.245,0.058 0.343,0.102 a 0.857,0.857 0 0 1 0.263,0.186 c 0.077,0.08 0.137,0.188 0.179,0.326 0.042,0.138 0.063,0.307 0.063,0.507 v 0.861 h -1.554 v -0.609 c 0,-0.266 -0.046,-0.45 -0.137,-0.553 -0.091,-0.103 -0.258,-0.154 -0.5,-0.154 h -2.443 v 1.316 h -1.554 z m 1.554,2.492 h 2.569 c 0.205,0 0.352,-0.042 0.44,-0.126 0.088,-0.084 0.133,-0.219 0.133,-0.406 v -0.168 c 0,-0.214 -0.054,-0.356 -0.161,-0.427 -0.107,-0.071 -0.291,-0.104 -0.553,-0.104 h -2.429 v 1.231 z m 5.334,-2.492 h 5.922 v 1.261 h -2.185 v 3.808 h -1.554 v -3.808 h -2.184 v -1.261 z m -92.86,11.894 h 4.733 v 0.936 h -3.582 v 0.756 a 0.886,0.886 0 0 1 0.315,-0.204 c 0.118,-0.044 0.289,-0.065 0.513,-0.065 h 1.506 c 0.488,0 0.854,0.095 1.095,0.285 0.242,0.189 0.363,0.515 0.363,0.975 v 0.276 c 0,0.324 -0.042,0.582 -0.126,0.773 a 0.883,0.883 0 0 1 -0.378,0.43 c -0.168,0.094 -0.374,0.155 -0.618,0.186 -0.244,0.031 -0.565,0.045 -0.966,0.045 h -1.044 c -0.364,0 -0.662,-0.013 -0.894,-0.039 a 1.69,1.69 0 0 1 -0.585,-0.159 c -0.158,-0.079 -0.277,-0.195 -0.357,-0.348 -0.08,-0.153 -0.12,-0.354 -0.12,-0.605 v -0.253 h 1.224 c 0,0.188 0.044,0.313 0.133,0.375 0.088,0.063 0.281,0.094 0.582,0.094 h 1.248 c 0.287,0 0.473,-0.041 0.555,-0.123 0.082,-0.082 0.123,-0.237 0.123,-0.465 a 0.957,0.957 0 0 0 -0.036,-0.294 0.292,0.292 0 0 0 -0.12,-0.162 0.528,0.528 0 0 0 -0.225,-0.072 3.285,3.285 0 0 0 -0.394,-0.019 h -1.403 c -0.221,0 -0.351,0.097 -0.391,0.288 h -1.151 z m 8.777,0 h 2.046 l 1.506,2.796 1.506,-2.796 h 2.046 v 4.344 h -1.296 v -3.12 h -0.012 l -1.746,3.12 h -0.996 l -1.746,-3.12 h -0.012 v 3.12 h -1.296 z m 8.076,0 h 1.331 v 4.344 h -1.331 z m 2.304,0 h 2.063 l 2.502,3.155 h 0.013 v -3.155 h 1.332 v 4.344 h -2.064 l -2.502,-3.156 h -0.012 v 3.156 h -1.332 z m 12.933,1.068 -1.602,1.025 -0.606,-0.869 1.843,-1.2 h 1.59 v 4.344 h -1.225 z m 2.983,0.611 c 0,-0.336 0.033,-0.611 0.099,-0.827 a 1.09,1.09 0 0 1 0.318,-0.517 c 0.146,-0.128 0.339,-0.22 0.579,-0.275 0.239,-0.057 0.542,-0.084 0.905,-0.084 h 1.561 c 0.364,0 0.666,0.026 0.906,0.081 0.239,0.054 0.433,0.146 0.578,0.275 0.146,0.13 0.253,0.303 0.318,0.52 0.066,0.216 0.1,0.491 0.1,0.827 v 1.213 c 0,0.548 -0.126,0.938 -0.375,1.173 -0.251,0.233 -0.644,0.351 -1.18,0.351 h -2.256 c -0.532,0 -0.924,-0.117 -1.176,-0.351 -0.252,-0.234 -0.378,-0.625 -0.378,-1.173 v -1.213 z m 1.296,0.985 c 0,0.24 0.054,0.412 0.162,0.516 0.107,0.104 0.31,0.156 0.605,0.156 h 1.236 c 0.3,0 0.503,-0.052 0.609,-0.156 0.105,-0.104 0.158,-0.275 0.158,-0.516 v -0.936 c 0,-0.24 -0.053,-0.412 -0.158,-0.517 -0.106,-0.104 -0.31,-0.155 -0.609,-0.155 h -1.236 c -0.296,0 -0.498,0.052 -0.605,0.155 -0.108,0.104 -0.162,0.276 -0.162,0.517 z m 7.763,-2.64 h 2.046 l 1.506,2.796 1.506,-2.796 h 2.046 v 4.344 h -1.296 v -3.12 h -0.012 l -1.746,3.12 h -0.996 l -1.746,-3.12 h -0.012 v 3.12 h -1.296 z m 8.077,0 h 1.331 v 4.344 h -1.331 z m 2.304,0 h 2.063 l 2.502,3.155 h 0.013 v -3.155 h 1.332 v 4.344 h -2.064 l -2.502,-3.156 h -0.012 v 3.156 h -1.332 z m 11.958,2.844 c 0,-0.276 0.097,-0.496 0.291,-0.66 0.194,-0.164 0.499,-0.26 0.915,-0.288 l 1.524,-0.096 a 9.3,9.3 0 0 0 0.603,-0.049 c 0.122,-0.016 0.215,-0.039 0.279,-0.068 a 0.233,0.233 0 0 0 0.126,-0.129 0.833,0.833 0 0 0 0.03,-0.259 c 0,-0.1 -0.008,-0.176 -0.021,-0.228 -0.013,-0.052 -0.049,-0.093 -0.105,-0.123 a 0.73,0.73 0 0 0 -0.258,-0.063 5.274,5.274 0 0 0 -0.504,-0.018 h -0.882 c -0.292,0 -0.488,0.034 -0.588,0.103 -0.101,0.067 -0.15,0.212 -0.15,0.432 v 0.186 h -1.26 v -0.51 c 0,-0.424 0.132,-0.721 0.396,-0.891 0.264,-0.17 0.699,-0.255 1.308,-0.255 h 1.752 c 0.316,0 0.575,0.023 0.777,0.071 0.201,0.048 0.36,0.123 0.477,0.226 0.116,0.102 0.198,0.231 0.246,0.39 0.048,0.159 0.072,0.355 0.072,0.591 0,0.34 -0.022,0.604 -0.066,0.792 -0.044,0.188 -0.126,0.336 -0.246,0.444 -0.12,0.108 -0.293,0.186 -0.519,0.234 a 6.682,6.682 0 0 1 -0.957,0.107 l -1.374,0.072 c -0.272,0.016 -0.447,0.058 -0.525,0.126 -0.078,0.068 -0.117,0.202 -0.117,0.402 h 3.864 v 0.936 h -5.088 z m 5.79,-1.213 c 0,-0.336 0.033,-0.611 0.099,-0.827 a 1.09,1.09 0 0 1 0.318,-0.517 c 0.146,-0.128 0.339,-0.22 0.579,-0.275 0.239,-0.057 0.542,-0.084 0.905,-0.084 h 1.561 c 0.364,0 0.666,0.026 0.906,0.081 0.239,0.054 0.433,0.146 0.578,0.275 0.146,0.13 0.253,0.303 0.318,0.52 0.066,0.216 0.1,0.491 0.1,0.827 v 1.213 c 0,0.548 -0.126,0.938 -0.375,1.173 -0.251,0.233 -0.644,0.351 -1.18,0.351 h -2.256 c -0.532,0 -0.924,-0.117 -1.176,-0.351 -0.252,-0.234 -0.378,-0.625 -0.378,-1.173 v -1.213 z m 1.296,0.985 c 0,0.24 0.054,0.412 0.162,0.516 0.107,0.104 0.31,0.156 0.605,0.156 h 1.236 c 0.3,0 0.503,-0.052 0.609,-0.156 0.105,-0.104 0.158,-0.275 0.158,-0.516 v -0.936 c 0,-0.24 -0.053,-0.412 -0.158,-0.517 -0.106,-0.104 -0.31,-0.155 -0.609,-0.155 h -1.236 c -0.296,0 -0.498,0.052 -0.605,0.155 -0.108,0.104 -0.162,0.276 -0.162,0.517 z m 7.763,-2.64 h 2.046 l 1.506,2.796 1.506,-2.796 h 2.046 v 4.344 h -1.296 v -3.12 h -0.012 l -1.746,3.12 h -0.996 l -1.746,-3.12 h -0.012 v 3.12 h -1.296 z m 8.077,0 h 1.331 v 4.344 h -1.331 z m 2.304,0 h 2.063 l 2.502,3.155 h 0.013 v -3.155 h 1.332 v 4.344 h -2.064 l -2.502,-3.156 h -0.012 v 3.156 h -1.332 z m -127.78,2.892 c 0,-0.276 0.097,-0.496 0.291,-0.66 0.194,-0.164 0.499,-0.26 0.915,-0.288 l 1.524,-0.096 a 9.3,9.3 0 0 0 0.603,-0.049 c 0.122,-0.016 0.215,-0.039 0.279,-0.068 a 0.233,0.233 0 0 0 0.126,-0.129 0.833,0.833 0 0 0 0.03,-0.259 c 0,-0.1 -0.008,-0.176 -0.021,-0.228 -0.013,-0.052 -0.049,-0.093 -0.105,-0.123 a 0.73,0.73 0 0 0 -0.258,-0.063 5.274,5.274 0 0 0 -0.504,-0.018 h -0.882 c -0.292,0 -0.488,0.034 -0.588,0.103 -0.101,0.067 -0.15,0.212 -0.15,0.432 v 0.186 h -1.26 v -0.51 c 0,-0.424 0.132,-0.721 0.396,-0.891 0.264,-0.17 0.699,-0.255 1.308,-0.255 h 1.752 c 0.316,0 0.575,0.023 0.777,0.071 0.201,0.048 0.36,0.123 0.477,0.226 0.116,0.102 0.198,0.231 0.246,0.39 0.048,0.159 0.072,0.355 0.072,0.591 0,0.34 -0.022,0.604 -0.066,0.792 -0.044,0.188 -0.126,0.336 -0.246,0.444 -0.12,0.108 -0.293,0.186 -0.519,0.234 a 6.682,6.682 0 0 1 -0.957,0.107 l -1.374,0.072 c -0.272,0.016 -0.447,0.058 -0.525,0.126 -0.078,0.068 -0.117,0.202 -0.117,0.402 h 3.864 v 0.936 h -5.088 z m 8.922,-2.868 h 2.046 l 1.506,2.796 1.506,-2.796 h 2.046 v 4.344 h -1.296 v -3.12 h -0.012 l -1.746,3.12 h -0.996 l -1.746,-3.12 h -0.012 v 3.12 h -1.296 z m 8.076,0 h 1.331 v 4.344 h -1.331 z m 2.304,0 h 2.063 l 2.502,3.155 h 0.013 v -3.155 h 1.332 v 4.344 h -2.064 l -2.502,-3.156 h -0.012 v 3.156 h -1.332 z m -18.869,-11.842 h 5.922 v 1.261 h -2.185 v 3.808 h -1.554 v -3.808 h -2.184 v -1.261 z m 6.686,0 h 1.554 v 5.068 h -1.554 z m 2.687,0 h 2.387 l 1.757,3.263 1.757,-3.263 h 2.388 v 5.068 h -1.513 v -3.64 h -0.014 l -2.037,3.64 h -1.162 l -2.037,-3.64 h -0.014 v 3.64 h -1.512 z m 9.338,0 h 5.544 v 1.177 h -3.99 v 0.812 h 3.78 v 1.05 h -3.78 v 0.813 h 4.081 v 1.218 h -5.635 z"
     id="path58"
     inkscape:connector-curvature="0"
     style="fill:#ffffff" />
  <g
     id="g66"
     style="fill:#ffffff"
     transform="translate(0.00100029)">
    <path
       d="m 121.301,556.046 h 1.332 v 1.548 h 2.808 v -1.548 h 1.332 v 4.344 h -1.332 v -1.644 h -2.808 v 1.644 h -1.332 z m 5.772,1.524 c 0,-0.312 0.043,-0.57 0.13,-0.776 0.086,-0.206 0.21,-0.367 0.372,-0.483 a 1.49,1.49 0 0 1 0.588,-0.243 c 0.229,-0.046 0.505,-0.068 0.824,-0.068 h 2.137 c 0.319,0 0.595,0.023 0.824,0.071 0.23,0.048 0.428,0.129 0.592,0.243 0.164,0.114 0.288,0.274 0.372,0.48 0.084,0.206 0.126,0.465 0.126,0.776 v 1.296 c 0,0.313 -0.042,0.57 -0.126,0.774 -0.084,0.204 -0.208,0.364 -0.372,0.48 a 1.577,1.577 0 0 1 -0.592,0.245 4.012,4.012 0 0 1 -0.824,0.072 h -2.137 c -0.319,0 -0.595,-0.023 -0.824,-0.072 a 1.573,1.573 0 0 1 -0.588,-0.242 1.077,1.077 0 0 1 -0.372,-0.48 c -0.087,-0.206 -0.13,-0.465 -0.13,-0.777 z m 1.368,0.881 c 0,0.328 0.052,0.556 0.153,0.682 0.101,0.126 0.305,0.188 0.609,0.188 h 1.704 c 0.304,0 0.507,-0.063 0.608,-0.188 0.103,-0.126 0.153,-0.354 0.153,-0.682 v -0.468 c 0,-0.296 -0.058,-0.515 -0.171,-0.657 -0.114,-0.142 -0.335,-0.213 -0.663,-0.213 h -1.561 c -0.328,0 -0.549,0.071 -0.663,0.213 -0.113,0.143 -0.171,0.361 -0.171,0.657 v 0.468 z m 4.8,-0.881 c 0,-0.312 0.043,-0.57 0.13,-0.776 0.086,-0.206 0.21,-0.367 0.372,-0.483 a 1.49,1.49 0 0 1 0.588,-0.243 c 0.229,-0.046 0.505,-0.068 0.824,-0.068 h 1.566 c 0.468,0 0.841,0.026 1.119,0.081 0.278,0.054 0.49,0.143 0.636,0.267 a 0.924,0.924 0 0 1 0.297,0.486 c 0.052,0.199 0.078,0.468 0.078,0.804 h -1.332 v -0.12 c 0,-0.147 -0.052,-0.252 -0.156,-0.312 -0.104,-0.061 -0.26,-0.091 -0.468,-0.091 h -1.452 c -0.328,0 -0.549,0.071 -0.663,0.213 -0.113,0.143 -0.171,0.361 -0.171,0.657 v 0.468 c 0,0.328 0.052,0.556 0.153,0.682 0.101,0.126 0.305,0.188 0.609,0.188 h 1.422 c 0.164,0 0.293,-0.006 0.387,-0.018 0.094,-0.012 0.17,-0.038 0.229,-0.078 0.058,-0.04 0.1,-0.1 0.126,-0.18 a 1.12,1.12 0 0 0 0.038,-0.324 h 1.332 v 0.408 c 0,0.2 -0.021,0.377 -0.065,0.531 -0.044,0.153 -0.124,0.288 -0.24,0.404 -0.116,0.116 -0.28,0.207 -0.492,0.273 a 2.782,2.782 0 0 1 -0.804,0.099 h -2.148 c -0.319,0 -0.595,-0.023 -0.824,-0.072 a 1.573,1.573 0 0 1 -0.588,-0.242 1.077,1.077 0 0 1 -0.372,-0.48 c -0.087,-0.206 -0.13,-0.465 -0.13,-0.777 v -1.297 z m 5.965,-1.524 h 1.332 v 1.596 h 0.624 l 1.68,-1.596 h 1.813 l -2.353,2.124 2.628,2.22 h -1.884 l -1.92,-1.668 h -0.588 v 1.668 h -1.332 z"
       id="path60"
       inkscape:connector-curvature="0" />
    <path
       d="m 144.924,556.046 h 4.752 v 1.008 h -3.42 v 0.696 h 3.24 v 0.899 h -3.24 v 0.696 h 3.498 v 1.044 h -4.83 z"
       id="path62"
       inkscape:connector-curvature="0" />
    <path
       d="m 152.051,558.878 -2.406,-2.832 h 1.608 l 1.464,1.775 1.464,-1.775 h 1.607 l -2.405,2.832 v 1.512 h -1.332 z"
       id="path64"
       inkscape:connector-curvature="0" />
  </g>
  <path
     d="m 159.063,556.046 h 5.076 v 1.08 h -1.872 v 3.264 h -1.332 v -3.264 h -1.872 z m 5.155,0 h 4.752 v 1.008 h -3.42 v 0.696 h 3.24 v 0.899 h -3.24 v 0.696 h 3.498 v 1.044 h -4.83 z m 5.129,0 h 2.063 l 2.502,3.155 h 0.013 v -3.155 h 1.332 v 4.344 h -2.064 l -2.502,-3.156 h -0.012 v 3.156 h -1.332 z m 6.306,0 h 2.063 l 2.502,3.155 h 0.013 v -3.155 h 1.332 v 4.344 h -2.064 l -2.502,-3.156 h -0.012 v 3.156 h -1.332 z m 6.379,0 h 1.331 v 4.344 h -1.331 z m 1.722,2.922 h 1.332 c 0.004,0.216 0.047,0.353 0.129,0.411 0.082,0.058 0.231,0.087 0.447,0.087 h 1.632 c 0.18,0 0.32,-0.023 0.42,-0.069 0.1,-0.046 0.15,-0.145 0.15,-0.297 0,-0.104 -0.02,-0.181 -0.058,-0.231 -0.038,-0.05 -0.116,-0.087 -0.233,-0.11 a 3.378,3.378 0 0 0 -0.517,-0.048 32.774,32.774 0 0 0 -1.064,-0.013 c -0.517,0 -0.919,-0.019 -1.209,-0.057 -0.29,-0.038 -0.509,-0.103 -0.654,-0.195 -0.146,-0.092 -0.244,-0.219 -0.294,-0.381 -0.05,-0.162 -0.075,-0.387 -0.075,-0.675 0,-0.24 0.015,-0.437 0.045,-0.591 0.03,-0.154 0.102,-0.292 0.213,-0.414 0.112,-0.122 0.288,-0.217 0.528,-0.285 0.24,-0.068 0.562,-0.102 0.966,-0.102 h 1.86 c 0.372,0 0.672,0.029 0.899,0.09 0.229,0.06 0.397,0.145 0.508,0.255 0.109,0.11 0.183,0.24 0.219,0.39 0.036,0.15 0.054,0.333 0.054,0.549 v 0.139 h -1.332 c 0,-0.176 -0.036,-0.295 -0.107,-0.357 -0.072,-0.062 -0.253,-0.093 -0.54,-0.093 h -1.477 c -0.156,0 -0.279,0.028 -0.369,0.084 -0.09,0.056 -0.135,0.14 -0.135,0.252 0,0.092 0.016,0.162 0.048,0.21 0.032,0.048 0.1,0.085 0.201,0.111 0.102,0.025 0.256,0.043 0.462,0.051 0.206,0.008 0.499,0.012 0.879,0.012 0.568,0 1.009,0.016 1.323,0.045 0.313,0.03 0.561,0.091 0.741,0.184 a 0.77,0.77 0 0 1 0.378,0.407 c 0.072,0.181 0.107,0.431 0.107,0.75 0,0.305 -0.03,0.543 -0.093,0.718 a 0.746,0.746 0 0 1 -0.324,0.401 c -0.153,0.095 -0.366,0.158 -0.639,0.192 -0.273,0.034 -0.642,0.051 -1.11,0.051 h -1.613 c -0.316,0 -0.579,-0.018 -0.789,-0.054 -0.21,-0.036 -0.382,-0.096 -0.517,-0.18 a 0.755,0.755 0 0 1 -0.297,-0.354 1.53,1.53 0 0 1 -0.096,-0.582 v -0.301 z"
     id="path68"
     inkscape:connector-curvature="0"
     style="fill:#ffffff" />
  <g
     id="g74"
     style="fill:#ffffff"
     transform="translate(0.00100029)">
    <path
       d="m 191.091,557.945 c 0,-0.312 0.043,-0.57 0.13,-0.776 0.086,-0.206 0.21,-0.367 0.372,-0.483 a 1.49,1.49 0 0 1 0.588,-0.243 c 0.229,-0.046 0.505,-0.068 0.824,-0.068 h 2.005 c 0.367,0 0.666,0.031 0.896,0.096 0.23,0.063 0.404,0.155 0.522,0.272 0.117,0.118 0.197,0.26 0.239,0.424 0.042,0.164 0.063,0.363 0.063,0.6 v 0.138 h -1.309 c 0,-0.199 -0.052,-0.331 -0.155,-0.393 -0.104,-0.063 -0.276,-0.093 -0.517,-0.093 h -1.445 a 1.85,1.85 0 0 0 -0.424,0.039 0.504,0.504 0 0 0 -0.252,0.135 0.557,0.557 0 0 0 -0.132,0.27 2.27,2.27 0 0 0 -0.039,0.462 v 0.54 c 0,0.192 0.014,0.347 0.039,0.462 0.026,0.116 0.07,0.206 0.132,0.271 a 0.523,0.523 0 0 0 0.252,0.135 c 0.106,0.026 0.247,0.039 0.424,0.039 h 1.422 c 0.1,0 0.189,-0.006 0.27,-0.018 a 0.748,0.748 0 0 0 0.216,-0.066 0.366,0.366 0 0 0 0.153,-0.144 0.476,0.476 0 0 0 0.057,-0.246 v -0.126 h -1.655 v -0.9 h 2.987 v 1.236 c 0,0.308 -0.041,0.55 -0.123,0.726 -0.082,0.176 -0.206,0.307 -0.375,0.391 a 1.711,1.711 0 0 1 -0.62,0.158 12.3,12.3 0 0 1 -1.029,0.033 h -1.603 c -0.319,0 -0.595,-0.023 -0.824,-0.072 a 1.573,1.573 0 0 1 -0.588,-0.242 1.077,1.077 0 0 1 -0.372,-0.48 c -0.087,-0.206 -0.13,-0.465 -0.13,-0.777 v -1.3 z m 7.89,-1.524 h 1.734 l 2.388,4.344 h -1.482 l -0.414,-0.768 h -2.699 l -0.391,0.768 h -1.487 z m 0.025,2.64 h 1.703 l -0.863,-1.632 z"
       id="path70"
       inkscape:connector-curvature="0" />
    <path
       d="m 203.073,556.421 h 2.046 l 1.506,2.796 1.506,-2.796 h 2.046 v 4.344 h -1.296 v -3.12 h -0.012 l -1.746,3.12 h -0.996 l -1.746,-3.12 h -0.012 v 3.12 h -1.296 z m 7.5,0 h 4.752 v 1.008 h -3.42 v 0.696 h 3.24 v 0.899 h -3.24 v 0.696 h 3.498 v 1.044 h -4.83 z m 7.529,2.802 h 1.261 v 0.192 c 0,0.184 0.039,0.307 0.116,0.368 0.078,0.063 0.231,0.094 0.459,0.094 h 1.591 c 0.195,0 0.321,-0.029 0.378,-0.087 0.056,-0.059 0.084,-0.165 0.084,-0.321 0,-0.156 -0.031,-0.265 -0.094,-0.327 -0.062,-0.062 -0.19,-0.093 -0.387,-0.093 h -1.368 v -0.9 h 1.242 c 0.208,0 0.345,-0.028 0.411,-0.087 0.066,-0.058 0.099,-0.169 0.099,-0.333 0,-0.16 -0.048,-0.27 -0.144,-0.33 -0.096,-0.06 -0.25,-0.09 -0.462,-0.09 h -1.32 c -0.216,0 -0.364,0.029 -0.444,0.087 -0.079,0.059 -0.119,0.167 -0.119,0.327 v 0.186 h -1.261 v -0.239 c 0,-0.296 0.038,-0.529 0.114,-0.699 0.076,-0.17 0.198,-0.298 0.366,-0.384 0.168,-0.086 0.385,-0.144 0.651,-0.171 0.266,-0.028 0.622,-0.042 1.07,-0.042 h 0.895 c 0.396,0 0.717,0.018 0.963,0.054 0.246,0.036 0.438,0.098 0.576,0.186 a 0.711,0.711 0 0 1 0.291,0.36 c 0.056,0.152 0.084,0.352 0.084,0.6 0,0.188 -0.011,0.336 -0.03,0.444 a 0.624,0.624 0 0 1 -0.105,0.261 c -0.05,0.066 -0.119,0.119 -0.207,0.159 -0.088,0.04 -0.214,0.086 -0.378,0.138 v 0.019 c 0.181,0.032 0.323,0.071 0.43,0.117 a 0.568,0.568 0 0 1 0.242,0.183 0.643,0.643 0 0 1 0.114,0.285 c 0.021,0.114 0.03,0.263 0.03,0.447 0,0.224 -0.023,0.41 -0.069,0.558 a 0.751,0.751 0 0 1 -0.233,0.36 c -0.11,0.092 -0.263,0.16 -0.456,0.204 a 3.482,3.482 0 0 1 -0.747,0.065 h -2.214 c -0.204,0 -0.392,-0.017 -0.562,-0.051 -0.17,-0.034 -0.321,-0.094 -0.453,-0.18 -0.132,-0.086 -0.233,-0.202 -0.306,-0.349 a 1.237,1.237 0 0 1 -0.108,-0.549 z"
       id="path72"
       inkscape:connector-curvature="0" />
  </g>
  <g
     id="g80"
     style="fill:#ffffff"
     transform="translate(0.00100029)">
    <path
       d="m 227.946,557.57 c 0,-0.312 0.043,-0.57 0.13,-0.776 0.086,-0.206 0.21,-0.367 0.372,-0.483 a 1.49,1.49 0 0 1 0.588,-0.243 c 0.229,-0.046 0.505,-0.068 0.824,-0.068 h 2.005 c 0.367,0 0.666,0.031 0.896,0.096 0.23,0.063 0.404,0.155 0.522,0.272 0.117,0.118 0.197,0.26 0.239,0.424 0.042,0.164 0.063,0.363 0.063,0.6 v 0.138 h -1.309 c 0,-0.199 -0.052,-0.331 -0.155,-0.393 -0.104,-0.063 -0.276,-0.093 -0.517,-0.093 h -1.445 a 1.85,1.85 0 0 0 -0.424,0.039 0.504,0.504 0 0 0 -0.252,0.135 0.557,0.557 0 0 0 -0.132,0.27 2.27,2.27 0 0 0 -0.039,0.462 v 0.54 c 0,0.192 0.014,0.347 0.039,0.462 0.026,0.116 0.07,0.206 0.132,0.271 a 0.523,0.523 0 0 0 0.252,0.135 c 0.106,0.026 0.247,0.039 0.424,0.039 h 1.422 c 0.1,0 0.189,-0.006 0.27,-0.018 a 0.748,0.748 0 0 0 0.216,-0.066 0.366,0.366 0 0 0 0.153,-0.144 0.476,0.476 0 0 0 0.057,-0.246 v -0.126 h -1.655 v -0.9 h 2.987 v 1.236 c 0,0.308 -0.041,0.55 -0.123,0.726 -0.082,0.176 -0.206,0.307 -0.375,0.391 a 1.711,1.711 0 0 1 -0.62,0.158 12.3,12.3 0 0 1 -1.029,0.033 h -1.603 c -0.319,0 -0.595,-0.023 -0.824,-0.072 a 1.573,1.573 0 0 1 -0.588,-0.242 1.077,1.077 0 0 1 -0.372,-0.48 c -0.087,-0.206 -0.13,-0.465 -0.13,-0.777 v -1.3 z m 7.891,-1.524 h 1.734 l 2.388,4.344 h -1.482 l -0.414,-0.768 h -2.699 l -0.391,0.768 h -1.487 z m 0.024,2.64 h 1.703 l -0.863,-1.632 z"
       id="path76"
       inkscape:connector-curvature="0" />
    <path
       d="m 239.929,556.046 h 2.046 l 1.506,2.796 1.506,-2.796 h 2.046 v 4.344 h -1.296 v -3.12 h -0.012 l -1.746,3.12 h -0.996 l -1.746,-3.12 h -0.012 v 3.12 h -1.296 z m 7.5,0 h 4.752 v 1.008 h -3.42 v 0.696 h 3.24 v 0.899 h -3.24 v 0.696 h 3.498 v 1.044 h -4.83 z m 7.464,1.884 3.102,-1.884 h 1.536 v 2.502 h 0.642 v 0.972 h -0.642 v 0.87 h -1.26 v -0.87 h -3.378 z m 1.043,0.606 v 0.012 h 2.334 v -1.458 z"
       id="path78"
       inkscape:connector-curvature="0" />
  </g>
  <path
     d="m 129.621,547.518 a 6.14,6.14 0 0 1 -6.135,-6.134 v -19.719 a 6.142,6.142 0 0 1 6.135,-6.135 h 19.719 a 6.14,6.14 0 0 1 6.134,6.135 v 19.719 a 6.14,6.14 0 0 1 -6.134,6.134 z"
     id="path82"
     inkscape:connector-curvature="0"
     style="fill:#191919" />
  <path
     d="m 129.621,546.101 a 4.723,4.723 0 0 1 -4.718,-4.717 v -19.719 a 4.723,4.723 0 0 1 4.718,-4.718 h 19.719 a 4.723,4.723 0 0 1 4.717,4.718 v 19.719 a 4.722,4.722 0 0 1 -4.717,4.717 z"
     id="path84"
     inkscape:connector-curvature="0"
     style="fill:#343635" />
  <path
     d="m 129.621,545.251 a 3.87,3.87 0 0 1 -3.867,-3.866 v -19.719 a 3.87,3.87 0 0 1 3.867,-3.867 h 19.719 a 3.87,3.87 0 0 1 3.866,3.867 v 19.719 a 3.87,3.87 0 0 1 -3.866,3.866 z"
     id="path86"
     inkscape:connector-curvature="0"
     style="fill:#403f3b" />
  <path
     d="m 149.339,542.983 h -19.718 a 1.6,1.6 0 0 1 -1.599,-1.599 v -19.719 a 1.6,1.6 0 0 1 1.599,-1.599 h 19.719 a 1.6,1.6 0 0 1 1.599,1.599 v 19.719 a 1.6,1.6 0 0 1 -1.6,1.599 z"
     id="path88"
     inkscape:connector-curvature="0"
     style="fill:#e3dfb9" />
  <path
     d="m 164.621,547.518 a 6.14,6.14 0 0 1 -6.135,-6.134 v -19.719 a 6.142,6.142 0 0 1 6.135,-6.135 h 19.719 a 6.14,6.14 0 0 1 6.134,6.135 v 19.719 a 6.14,6.14 0 0 1 -6.134,6.134 z"
     id="path90"
     inkscape:connector-curvature="0"
     style="fill:#191919" />
  <path
     d="m 164.621,546.101 a 4.723,4.723 0 0 1 -4.718,-4.717 v -19.719 a 4.723,4.723 0 0 1 4.718,-4.718 h 19.719 a 4.723,4.723 0 0 1 4.717,4.718 v 19.719 a 4.722,4.722 0 0 1 -4.717,4.717 z"
     id="path92"
     inkscape:connector-curvature="0"
     style="fill:#343635" />
  <path
     d="m 164.621,545.251 a 3.87,3.87 0 0 1 -3.867,-3.866 v -19.719 a 3.87,3.87 0 0 1 3.867,-3.867 h 19.719 a 3.87,3.87 0 0 1 3.866,3.867 v 19.719 a 3.87,3.87 0 0 1 -3.866,3.866 z"
     id="path94"
     inkscape:connector-curvature="0"
     style="fill:#403f3b" />
  <path
     d="m 184.339,542.983 h -19.718 a 1.6,1.6 0 0 1 -1.599,-1.599 v -19.719 a 1.6,1.6 0 0 1 1.599,-1.599 h 19.719 a 1.6,1.6 0 0 1 1.599,1.599 v 19.719 a 1.6,1.6 0 0 1 -1.6,1.599 z"
     id="path96"
     inkscape:connector-curvature="0"
     style="fill:#e3dfb9" />
  <path
     d="m 199.621,547.418 a 6.14,6.14 0 0 1 -6.135,-6.134 v -19.719 a 6.142,6.142 0 0 1 6.135,-6.135 h 19.719 a 6.14,6.14 0 0 1 6.134,6.135 v 19.719 a 6.14,6.14 0 0 1 -6.134,6.134 z"
     id="path98"
     inkscape:connector-curvature="0"
     style="fill:#191919" />
  <path
     d="m 199.621,546.001 a 4.723,4.723 0 0 1 -4.718,-4.717 v -19.719 a 4.723,4.723 0 0 1 4.718,-4.718 h 19.719 a 4.723,4.723 0 0 1 4.717,4.718 v 19.719 a 4.722,4.722 0 0 1 -4.717,4.717 z"
     id="path100"
     inkscape:connector-curvature="0"
     style="fill:#343635" />
  <path
     d="m 199.621,545.15 a 3.87,3.87 0 0 1 -3.867,-3.866 v -19.719 a 3.87,3.87 0 0 1 3.867,-3.867 h 19.719 a 3.87,3.87 0 0 1 3.866,3.867 v 19.719 a 3.87,3.87 0 0 1 -3.866,3.866 z"
     id="path102"
     inkscape:connector-curvature="0"
     style="fill:#403f3b" />
  <path
     d="m 219.339,542.883 h -19.718 a 1.6,1.6 0 0 1 -1.599,-1.599 v -19.719 a 1.6,1.6 0 0 1 1.599,-1.599 h 19.719 a 1.6,1.6 0 0 1 1.599,1.599 v 19.719 a 1.6,1.6 0 0 1 -1.6,1.599 z"
     id="path104"
     inkscape:connector-curvature="0"
     style="fill:#e3dfb9" />
  <path
     d="m 234.621,547.418 a 6.14,6.14 0 0 1 -6.135,-6.134 v -19.719 a 6.142,6.142 0 0 1 6.135,-6.135 h 19.719 a 6.14,6.14 0 0 1 6.134,6.135 v 19.719 a 6.14,6.14 0 0 1 -6.134,6.134 z"
     id="path106"
     inkscape:connector-curvature="0" />
  <path
     d="m 234.621,546.001 a 4.723,4.723 0 0 1 -4.718,-4.717 v -19.719 a 4.723,4.723 0 0 1 4.718,-4.718 h 19.719 a 4.723,4.723 0 0 1 4.717,4.718 v 19.719 a 4.722,4.722 0 0 1 -4.717,4.717 z"
     id="path108"
     inkscape:connector-curvature="0"
     style="fill:#343635" />
  <path
     d="m 234.621,545.15 a 3.87,3.87 0 0 1 -3.867,-3.866 v -19.719 a 3.87,3.87 0 0 1 3.867,-3.867 h 19.719 a 3.87,3.87 0 0 1 3.866,3.867 v 19.719 a 3.87,3.87 0 0 1 -3.866,3.866 z"
     id="path110"
     inkscape:connector-curvature="0"
     style="fill:#403f3b" />
  <path
     d="m 254.339,542.883 h -19.718 a 1.6,1.6 0 0 1 -1.599,-1.599 v -19.719 a 1.6,1.6 0 0 1 1.599,-1.599 h 19.719 a 1.6,1.6 0 0 1 1.599,1.599 v 19.719 a 1.6,1.6 0 0 1 -1.6,1.599 z"
     id="path112"
     inkscape:connector-curvature="0"
     style="fill:#e3dfb9" />
  <path
     d="m 140.382,529.457 -2.937,1.881 -1.111,-1.595 3.377,-2.2 h 2.915 v 7.964 h -2.244 z m 29.434,3.387 c 0,-0.506 0.178,-0.909 0.534,-1.21 0.355,-0.301 0.914,-0.477 1.678,-0.528 l 2.794,-0.176 a 17.18,17.18 0 0 0 1.105,-0.088 c 0.224,-0.029 0.394,-0.071 0.511,-0.127 a 0.417,0.417 0 0 0 0.231,-0.236 c 0.036,-0.103 0.055,-0.26 0.055,-0.473 0,-0.184 -0.013,-0.322 -0.038,-0.418 a 0.362,0.362 0 0 0 -0.192,-0.226 c -0.104,-0.055 -0.261,-0.094 -0.474,-0.115 a 9.678,9.678 0 0 0 -0.924,-0.033 h -1.617 c -0.535,0 -0.895,0.063 -1.077,0.187 -0.184,0.125 -0.275,0.39 -0.275,0.792 v 0.342 h -2.311 v -0.936 c 0,-0.777 0.242,-1.321 0.727,-1.634 0.484,-0.312 1.283,-0.467 2.397,-0.467 h 3.213 c 0.579,0 1.054,0.044 1.424,0.132 0.37,0.088 0.662,0.226 0.875,0.412 0.212,0.188 0.362,0.426 0.451,0.715 0.088,0.29 0.132,0.651 0.132,1.084 0,0.623 -0.041,1.107 -0.121,1.452 -0.081,0.345 -0.231,0.616 -0.451,0.813 -0.22,0.198 -0.537,0.342 -0.951,0.43 -0.415,0.088 -1,0.153 -1.755,0.197 l -2.519,0.133 c -0.499,0.029 -0.82,0.106 -0.963,0.23 -0.143,0.125 -0.215,0.37 -0.215,0.737 h 7.084 v 1.716 h -9.328 z m 34.945,-0.265 h 2.311 v 0.353 c 0,0.337 0.071,0.563 0.214,0.676 0.144,0.114 0.424,0.171 0.842,0.171 h 2.915 c 0.359,0 0.59,-0.053 0.693,-0.159 0.103,-0.106 0.153,-0.303 0.153,-0.589 0,-0.286 -0.057,-0.485 -0.17,-0.6 -0.114,-0.113 -0.351,-0.171 -0.71,-0.171 h -2.508 v -1.649 h 2.277 c 0.381,0 0.632,-0.053 0.753,-0.159 0.121,-0.106 0.182,-0.311 0.182,-0.611 0,-0.293 -0.088,-0.494 -0.264,-0.604 -0.177,-0.11 -0.459,-0.165 -0.848,-0.165 h -2.42 c -0.396,0 -0.667,0.053 -0.813,0.159 -0.147,0.106 -0.221,0.307 -0.221,0.6 v 0.341 h -2.31 v -0.439 c 0,-0.543 0.069,-0.97 0.209,-1.281 0.14,-0.313 0.363,-0.547 0.671,-0.704 0.309,-0.158 0.706,-0.263 1.193,-0.313 0.488,-0.052 1.143,-0.077 1.964,-0.077 h 1.639 c 0.727,0 1.314,0.033 1.766,0.099 0.451,0.066 0.803,0.18 1.056,0.341 0.254,0.162 0.432,0.382 0.534,0.66 0.103,0.279 0.153,0.646 0.153,1.101 0,0.345 -0.018,0.615 -0.055,0.813 -0.037,0.198 -0.101,0.357 -0.192,0.479 -0.091,0.122 -0.219,0.219 -0.38,0.292 -0.161,0.073 -0.392,0.157 -0.692,0.253 v 0.032 c 0.33,0.06 0.592,0.131 0.786,0.215 0.194,0.084 0.343,0.196 0.445,0.336 0.103,0.139 0.173,0.313 0.209,0.522 0.037,0.209 0.056,0.482 0.056,0.819 0,0.41 -0.043,0.752 -0.127,1.022 a 1.368,1.368 0 0 1 -0.429,0.66 c -0.202,0.169 -0.48,0.294 -0.836,0.374 -0.356,0.081 -0.813,0.121 -1.37,0.121 h -4.059 c -0.374,0 -0.717,-0.031 -1.028,-0.094 a 2.336,2.336 0 0 1 -0.831,-0.33 c -0.241,-0.157 -0.429,-0.37 -0.561,-0.638 -0.132,-0.268 -0.198,-0.603 -0.198,-1.007 v -0.849 z m 34.879,-1.683 5.688,-3.454 h 2.815 v 4.587 h 1.178 v 1.782 h -1.178 v 1.595 h -2.31 v -1.595 h -6.193 z m 1.914,1.111 v 0.022 h 4.279 v -2.673 z"
     id="path114"
     inkscape:connector-curvature="0" />
  <path
     d="m 96.621,547.518 a 6.14,6.14 0 0 1 -6.135,-6.134 v -19.719 a 6.142,6.142 0 0 1 6.135,-6.135 h 19.719 a 6.14,6.14 0 0 1 6.134,6.135 v 19.719 a 6.14,6.14 0 0 1 -6.134,6.134 z"
     id="path116"
     inkscape:connector-curvature="0"
     style="fill:#191919" />
  <path
     d="m 96.621,546.101 a 4.723,4.723 0 0 1 -4.718,-4.717 v -19.719 a 4.723,4.723 0 0 1 4.718,-4.718 h 19.719 a 4.723,4.723 0 0 1 4.717,4.718 v 19.719 a 4.722,4.722 0 0 1 -4.717,4.717 z"
     id="path118"
     inkscape:connector-curvature="0"
     style="fill:#343635" />
  <path
     d="m 96.621,545.251 a 3.87,3.87 0 0 1 -3.867,-3.866 v -19.719 a 3.87,3.87 0 0 1 3.867,-3.867 h 19.719 a 3.87,3.87 0 0 1 3.866,3.867 v 19.719 a 3.87,3.87 0 0 1 -3.866,3.866 z"
     id="path120"
     inkscape:connector-curvature="0"
     style="fill:#403f3b" />
  <path
     d="M 116.339,542.983 H 96.621 a 1.6,1.6 0 0 1 -1.599,-1.599 v -19.719 a 1.6,1.6 0 0 1 1.599,-1.599 h 19.719 a 1.6,1.6 0 0 1 1.599,1.599 v 19.719 a 1.6,1.6 0 0 1 -1.6,1.599 z"
     id="path122"
     inkscape:connector-curvature="0"
     style="fill:#e8c72f" />
  <path
     d="m 87.662,500.121 h 4.689 c 0.294,0 0.539,0.035 0.735,0.105 0.196,0.07 0.351,0.17 0.465,0.301 0.115,0.131 0.196,0.287 0.245,0.469 a 2.4,2.4 0 0 1 0.074,0.63 v 0.322 c 0,0.364 -0.06,0.644 -0.179,0.837 -0.119,0.193 -0.349,0.33 -0.689,0.409 v 0.014 c 0.131,0.023 0.245,0.058 0.343,0.102 a 0.857,0.857 0 0 1 0.263,0.186 c 0.077,0.08 0.137,0.188 0.179,0.326 0.042,0.138 0.063,0.307 0.063,0.507 v 0.861 h -1.554 v -0.609 c 0,-0.266 -0.046,-0.45 -0.137,-0.553 -0.091,-0.103 -0.258,-0.154 -0.5,-0.154 h -2.443 v 1.316 h -1.554 z m 1.554,2.492 h 2.569 c 0.205,0 0.352,-0.042 0.44,-0.126 0.088,-0.084 0.133,-0.219 0.133,-0.406 v -0.168 c 0,-0.214 -0.054,-0.356 -0.161,-0.427 -0.107,-0.071 -0.291,-0.104 -0.553,-0.104 h -2.429 v 1.231 z m 5.705,-2.492 h 5.544 v 1.177 h -3.99 v 0.812 h 3.78 v 1.05 h -3.78 v 0.813 h 4.081 v 1.218 h -5.635 z m 6.481,3.409 h 1.555 c 0.004,0.252 0.055,0.412 0.15,0.479 0.096,0.068 0.27,0.102 0.521,0.102 h 1.904 c 0.21,0 0.373,-0.026 0.489,-0.08 0.117,-0.054 0.175,-0.169 0.175,-0.347 0,-0.121 -0.021,-0.211 -0.066,-0.27 -0.044,-0.059 -0.135,-0.102 -0.272,-0.13 -0.138,-0.027 -0.339,-0.046 -0.603,-0.056 -0.264,-0.01 -0.678,-0.014 -1.242,-0.014 a 11.58,11.58 0 0 1 -1.41,-0.066 c -0.339,-0.045 -0.593,-0.12 -0.764,-0.228 a 0.788,0.788 0 0 1 -0.343,-0.445 c -0.059,-0.188 -0.087,-0.451 -0.087,-0.787 0,-0.28 0.018,-0.51 0.052,-0.689 a 0.977,0.977 0 0 1 0.249,-0.483 c 0.131,-0.142 0.336,-0.253 0.616,-0.332 0.279,-0.079 0.655,-0.119 1.127,-0.119 h 2.17 c 0.434,0 0.784,0.035 1.05,0.105 0.266,0.069 0.463,0.169 0.592,0.297 0.128,0.129 0.213,0.28 0.255,0.455 0.042,0.175 0.063,0.389 0.063,0.641 v 0.161 h -1.555 c 0,-0.205 -0.042,-0.345 -0.126,-0.417 -0.084,-0.072 -0.294,-0.108 -0.63,-0.108 h -1.722 a 0.809,0.809 0 0 0 -0.431,0.099 0.324,0.324 0 0 0 -0.157,0.294 c 0,0.107 0.019,0.188 0.056,0.245 0.037,0.056 0.115,0.099 0.234,0.129 0.119,0.03 0.299,0.051 0.539,0.06 0.24,0.01 0.582,0.014 1.025,0.014 0.663,0 1.178,0.018 1.544,0.053 0.366,0.035 0.654,0.106 0.864,0.214 0.21,0.108 0.357,0.266 0.441,0.476 0.084,0.21 0.126,0.502 0.126,0.875 0,0.354 -0.036,0.634 -0.108,0.837 -0.072,0.203 -0.198,0.359 -0.378,0.469 -0.18,0.11 -0.429,0.185 -0.746,0.224 a 10.9,10.9 0 0 1 -1.295,0.06 h -1.883 c -0.369,0 -0.676,-0.021 -0.921,-0.063 -0.245,-0.042 -0.445,-0.112 -0.602,-0.21 -0.156,-0.099 -0.272,-0.235 -0.347,-0.413 -0.075,-0.178 -0.112,-0.403 -0.112,-0.679 v -0.353 z m 7.351,-3.409 h 5.544 v 1.177 h -3.99 v 0.812 h 3.78 v 1.05 h -3.78 v 0.813 h 4.081 v 1.218 h -5.635 z m 6.202,0 h 5.922 v 1.261 h -2.185 v 3.808 h -1.554 v -3.808 h -2.184 v -1.261 z"
     id="path124"
     inkscape:connector-curvature="0"
     style="fill:#eec421" />
  <path
     d="M 258.992,509.127 H 87.056 a 0.64,0.64 0 0 0 -0.638,0.638 v 0.991 a 0.64,0.64 0 0 0 0.638,0.638 h 171.936 a 0.64,0.64 0 0 0 0.638,-0.638 v -0.991 a 0.64,0.64 0 0 0 -0.638,-0.638 z m 0,41.766 H 87.056 a 0.64,0.64 0 0 0 -0.638,0.638 v 0.991 a 0.64,0.64 0 0 0 0.638,0.638 h 171.936 a 0.64,0.64 0 0 0 0.638,-0.638 v -0.991 a 0.64,0.64 0 0 0 -0.638,-0.638 z m 0.189,11.972 H 121.752 a 0.45,0.45 0 0 0 -0.449,0.449 v 0.508 a 0.45,0.45 0 0 0 0.449,0.449 h 137.429 a 0.45,0.45 0 0 0 0.449,-0.449 v -0.508 a 0.45,0.45 0 0 0 -0.449,-0.449 z m 0,-66.609 H 121.752 a 0.45,0.45 0 0 0 -0.449,0.449 v 0.508 a 0.45,0.45 0 0 0 0.449,0.449 h 137.429 a 0.45,0.45 0 0 0 0.449,-0.449 v -0.508 a 0.45,0.45 0 0 0 -0.449,-0.449 z"
     id="path126"
     inkscape:connector-curvature="0"
     style="fill:#e3d4a7" />
  <g
     id="g146"
     transform="translate(0.00100029)">
    <linearGradient
       id="c"
       gradientUnits="userSpaceOnUse"
       x1="517.78101"
       y1="419.33301"
       x2="517.78101"
       y2="583.85101">
      <stop
         offset="0"
         stop-color="#494c56"
         id="stop128" />
      <stop
         offset=".187"
         stop-color="#474c57"
         id="stop130" />
      <stop
         offset="1"
         stop-color="#43454b"
         id="stop132" />
    </linearGradient>
    <path
       d="m 502,419.333 c 0.375,7.433 0.101,18.464 -0.331,27.003 a 238.298,238.298 0 0 1 -0.875,11.663 l 33.703,125.851 a 0.98,0.98 0 0 0 0.258,-0.842 L 509.293,431.666 v -12.333 z"
       id="path135"
       inkscape:connector-curvature="0"
       style="fill:url(#c)" />
    <linearGradient
       id="d"
       gradientUnits="userSpaceOnUse"
       x1="33.262001"
       y1="419.33301"
       x2="33.262001"
       y2="583.85101">
      <stop
         offset="0"
         stop-color="#494c56"
         id="stop137" />
      <stop
         offset=".187"
         stop-color="#474c57"
         id="stop139" />
      <stop
         offset="1"
         stop-color="#43454b"
         id="stop141" />
    </linearGradient>
    <path
       d="m 49.044,419.333 c -0.375,7.433 -0.101,18.464 0.331,27.003 0.203,4.013 0.501,7.928 0.875,11.663 L 16.547,583.851 a 0.98,0.98 0 0 1 -0.258,-0.842 L 41.75,431.667 v -12.333 h 7.294 z"
       id="path144"
       inkscape:connector-curvature="0"
       style="fill:url(#d)" />
  </g>
  <path
     d="m 41.751,24.493 a 1.33,1.33 0 0 1 1.326,-1.326 h 13.167 v 57 h 233.757 v -57 h 217.924 a 1.33,1.33 0 0 1 1.326,1.326 V 13.667 h -467.5 z"
     id="path148"
     inkscape:connector-curvature="0"
     style="fill:#2d2f33" />
  <path
     d="m 49.001,419.333 h 248.243 a 1.33,1.33 0 0 1 -1.326,-1.326 V 24.493 a 1.33,1.33 0 0 1 1.326,-1.326 h -7.243 v 57 H 56.244 v -57 h -7.243 z"
     id="path150"
     inkscape:connector-curvature="0"
     style="fill:#272828" />
  <path
     d="M 279.081,409.333 H 67.164 c -0.94,0 -1.708,-0.769 -1.708,-1.708 V 95.042 c 0,-0.94 0.769,-1.708 1.708,-1.708 h 211.917 c 0.94,0 1.708,0.769 1.708,1.708 v 312.583 c 0,0.94 -0.769,1.708 -1.708,1.708 z"
     id="path152"
     inkscape:connector-curvature="0"
     style="fill:#2a2c30" />
  <linearGradient
     id="e"
     gradientUnits="userSpaceOnUse"
     x1="405.73001"
     y1="434.41299"
     x2="405.73001"
     y2="451.41699"
     gradientTransform="translate(0.00100029)">
    <stop
       offset="0"
       stop-color="#46474d"
       id="stop154" />
    <stop
       offset=".225"
       stop-color="#3b3d41"
       id="stop156" />
    <stop
       offset=".556"
       stop-color="#333538"
       id="stop158" />
    <stop
       offset="1"
       stop-color="#303235"
       id="stop160" />
  </linearGradient>
  <path
     d="M 498.63,434.413 H 312.833 a 2.171,2.171 0 0 0 -2.165,2.165 v 12.674 c 0,1.191 0.974,2.165 2.165,2.165 H 498.63 a 2.171,2.171 0 0 0 2.165,-2.165 v -12.674 c 0,-1.19 -0.975,-2.165 -2.165,-2.165 z"
     id="path163"
     inkscape:connector-curvature="0"
     style="fill:url(#e)" />
  <linearGradient
     id="f"
     gradientUnits="userSpaceOnUse"
     x1="275.5"
     y1="458.34399"
     x2="275.5"
     y2="13.667"
     gradientTransform="translate(0.00100029)">
    <stop
       offset="0"
       stop-color="#494949"
       id="stop165" />
    <stop
       offset=".112"
       stop-color="#3e3f3f"
       id="stop167" />
    <stop
       offset="1"
       stop-color="#3e3f3f"
       id="stop169" />
  </linearGradient>
  <path
     d="m 295.918,457.5 v -6.963 c 0,-4.942 4.043,-8.985 8.985,-8.985 h 196.245 a 0.854,0.854 0 0 0 0.854,-0.854 V 27.181 c 0,-7.433 -6.081,-13.514 -13.514,-13.514 H 62.515 c -7.433,0 -13.514,6.081 -13.514,13.514 V 444.83 c 0,7.433 6.081,13.514 13.514,13.514 h 232.559 a 0.844,0.844 0 0 0 0.844,-0.844 z"
     id="path172"
     inkscape:connector-curvature="0"
     style="fill:url(#f)" />
  <path
     d="m 486.603,136.111 v 38.968 a 2.913,2.913 0 0 1 -2.905,2.905 H 67.304 a 2.913,2.913 0 0 1 -2.905,-2.905 v -38.968 a 2.913,2.913 0 0 1 2.905,-2.905 h 416.393 a 2.914,2.914 0 0 1 2.906,2.905 z m -6.834,1.016 H 71.233 a 2.62,2.62 0 0 0 -2.612,2.612 v 31.712 a 2.62,2.62 0 0 0 2.612,2.612 h 408.536 a 2.62,2.62 0 0 0 2.612,-2.612 v -31.712 a 2.62,2.62 0 0 0 -2.612,-2.612 z"
     id="path174"
     inkscape:connector-curvature="0"
     style="fill:#393938" />
  <g
     id="g188"
     transform="translate(0.00100029)">
    <g
       id="g178"
       style="fill:#ffffff">
      <path
         d="m 241.989,152.929 h 1.79 l 2.084,3.962 2.084,-3.962 h 1.79 l -2.865,5.332 h -2.017 z m 7.806,0 h 1.634 v 5.332 h -1.634 z m 2.268,0 h 4.934 c 0.81,0 1.381,0.142 1.712,0.427 0.332,0.285 0.497,0.761 0.497,1.428 v 1.621 c 0,0.667 -0.165,1.143 -0.497,1.428 -0.331,0.285 -0.902,0.427 -1.712,0.427 h -4.934 z m 1.636,3.962 h 2.901 c 0.359,0 0.61,-0.067 0.755,-0.202 0.145,-0.135 0.218,-0.387 0.218,-0.755 v -0.721 c 0,-0.369 -0.073,-0.62 -0.218,-0.755 -0.145,-0.135 -0.396,-0.202 -0.755,-0.202 h -2.901 z m 5.875,-3.962 h 5.832 v 1.237 h -4.197 v 0.855 h 3.977 v 1.104 h -3.977 v 0.855 h 4.293 v 1.281 h -5.928 z m 6.178,1.871 c 0,-0.383 0.053,-0.701 0.158,-0.954 0.106,-0.253 0.258,-0.45 0.457,-0.593 0.2,-0.142 0.44,-0.241 0.722,-0.298 0.282,-0.057 0.62,-0.085 1.013,-0.085 h 2.621 c 0.393,0 0.73,0.03 1.012,0.089 0.282,0.058 0.524,0.158 0.725,0.298 0.201,0.139 0.353,0.336 0.457,0.589 0.103,0.253 0.155,0.571 0.155,0.954 v 1.59 c 0,0.383 -0.051,0.699 -0.155,0.95 a 1.304,1.304 0 0 1 -0.457,0.589 1.893,1.893 0 0 1 -0.725,0.302 5.005,5.005 0 0 1 -1.012,0.089 h -2.621 c -0.393,0 -0.731,-0.03 -1.013,-0.089 a 1.916,1.916 0 0 1 -0.722,-0.298 1.318,1.318 0 0 1 -0.457,-0.589 c -0.105,-0.253 -0.158,-0.571 -0.158,-0.954 z m 1.679,1.082 c 0,0.403 0.063,0.681 0.188,0.836 0.125,0.155 0.374,0.232 0.747,0.232 h 2.092 c 0.373,0 0.622,-0.077 0.748,-0.232 0.125,-0.155 0.187,-0.433 0.187,-0.836 v -0.574 c 0,-0.363 -0.069,-0.632 -0.209,-0.806 -0.14,-0.174 -0.412,-0.262 -0.814,-0.262 h -1.915 c -0.403,0 -0.674,0.087 -0.814,0.262 -0.14,0.174 -0.21,0.443 -0.21,0.806 z m 14.639,-2.953 h 5.832 v 1.237 h -4.197 v 0.855 h 3.977 v 1.104 h -3.977 v 0.855 h 4.293 v 1.281 h -5.928 z m 6.297,0 h 2.533 l 3.072,3.873 h 0.014 v -3.873 h 1.635 v 5.332 h -2.534 l -3.071,-3.873 h -0.014 v 3.873 h -1.635 z m 7.349,0 h 6.23 v 1.326 h -2.298 v 4.006 h -1.635 v -4.006 h -2.298 v -1.326 z m 6.326,0 h 5.832 v 1.237 h -4.197 v 0.855 h 3.977 v 1.104 h -3.977 v 0.855 h 4.293 v 1.281 h -5.928 z m 6.296,0 h 4.934 c 0.309,0 0.567,0.037 0.773,0.111 0.207,0.074 0.369,0.179 0.49,0.316 0.121,0.137 0.206,0.302 0.258,0.494 0.051,0.191 0.077,0.413 0.077,0.663 v 0.339 c 0,0.383 -0.063,0.676 -0.188,0.88 -0.125,0.204 -0.368,0.347 -0.725,0.431 v 0.015 c 0.138,0.024 0.258,0.06 0.36,0.106 a 0.915,0.915 0 0 1 0.277,0.196 0.822,0.822 0 0 1 0.187,0.342 c 0.045,0.146 0.066,0.324 0.066,0.534 v 0.906 h -1.634 v -0.641 c 0,-0.28 -0.049,-0.474 -0.144,-0.582 -0.096,-0.108 -0.271,-0.162 -0.527,-0.162 h -2.57 v 1.384 h -1.635 v -5.332 z m 1.635,2.621 h 2.702 c 0.217,0 0.371,-0.044 0.465,-0.132 0.093,-0.088 0.139,-0.231 0.139,-0.427 v -0.177 c 0,-0.226 -0.057,-0.376 -0.169,-0.449 -0.113,-0.073 -0.307,-0.11 -0.582,-0.11 h -2.556 v 1.295 z m 4.993,-2.621 h 6.23 v 1.326 h -2.298 v 4.006 h -1.635 v -4.006 h -2.298 v -1.326 z m 8.144,0 h 2.129 l 2.93,5.332 h -1.819 l -0.509,-0.943 h -3.313 l -0.479,0.943 h -1.826 z m 0.03,3.24 h 2.091 l -1.06,-2.003 z m 5.081,-3.24 h 1.634 v 5.332 h -1.634 z m 2.209,0 h 2.533 l 3.072,3.873 h 0.014 v -3.873 h 1.635 v 5.332 h -2.534 l -3.071,-3.873 h -0.014 v 3.873 h -1.635 z m 7.739,0 h 2.512 l 1.848,3.431 1.848,-3.431 h 2.512 v 5.332 h -1.591 v -3.829 h -0.014 l -2.143,3.829 h -1.223 l -2.143,-3.829 h -0.014 v 3.829 h -1.591 v -5.332 z m 9.205,0 h 5.832 v 1.237 h -4.197 v 0.855 h 3.977 v 1.104 h -3.977 v 0.855 h 4.293 v 1.281 h -5.928 z m 6.296,0 h 2.533 l 3.072,3.873 h 0.014 v -3.873 h 1.635 v 5.332 h -2.534 l -3.071,-3.873 h -0.014 v 3.873 h -1.635 z m 7.35,0 h 6.23 v 1.326 h -2.298 v 4.006 h -1.635 v -4.006 h -2.298 v -1.326 z m 15.247,3.585 h 1.635 c 0.004,0.266 0.058,0.435 0.158,0.505 0.101,0.072 0.283,0.106 0.548,0.106 h 2.003 c 0.221,0 0.393,-0.027 0.516,-0.085 0.122,-0.056 0.183,-0.178 0.183,-0.363 0,-0.128 -0.023,-0.223 -0.069,-0.284 -0.047,-0.061 -0.143,-0.106 -0.288,-0.137 a 4.227,4.227 0 0 0 -0.633,-0.059 44.525,44.525 0 0 0 -1.307,-0.014 c -0.634,0 -1.128,-0.023 -1.484,-0.07 -0.356,-0.047 -0.624,-0.126 -0.803,-0.239 a 0.823,0.823 0 0 1 -0.361,-0.467 c -0.061,-0.2 -0.092,-0.475 -0.092,-0.829 0,-0.295 0.019,-0.536 0.056,-0.725 a 1.02,1.02 0 0 1 0.261,-0.509 c 0.138,-0.149 0.354,-0.266 0.648,-0.349 0.295,-0.085 0.689,-0.126 1.186,-0.126 h 2.283 c 0.457,0 0.824,0.036 1.104,0.11 0.28,0.074 0.487,0.178 0.623,0.313 a 1,1 0 0 1 0.269,0.48 c 0.044,0.183 0.066,0.408 0.066,0.674 v 0.169 h -1.634 c 0,-0.216 -0.044,-0.363 -0.133,-0.439 -0.088,-0.076 -0.309,-0.113 -0.663,-0.113 h -1.811 c -0.191,0 -0.342,0.034 -0.453,0.102 a 0.337,0.337 0 0 0 -0.165,0.309 c 0,0.113 0.019,0.198 0.058,0.257 0.039,0.059 0.121,0.104 0.247,0.137 0.125,0.032 0.314,0.052 0.566,0.063 0.254,0.009 0.613,0.014 1.08,0.014 0.697,0 1.238,0.018 1.623,0.056 0.386,0.036 0.689,0.111 0.91,0.225 0.22,0.113 0.375,0.279 0.464,0.5 0.088,0.221 0.132,0.529 0.132,0.92 0,0.374 -0.038,0.667 -0.114,0.881 a 0.93,0.93 0 0 1 -0.397,0.493 c -0.189,0.115 -0.45,0.194 -0.785,0.236 -0.333,0.041 -0.787,0.063 -1.362,0.063 h -1.981 c -0.387,0 -0.71,-0.022 -0.968,-0.067 a 1.71,1.71 0 0 1 -0.634,-0.221 0.911,0.911 0 0 1 -0.364,-0.433 1.875,1.875 0 0 1 -0.118,-0.716 z m 9.566,-0.109 -2.953,-3.475 h 1.974 l 1.797,2.179 1.796,-2.179 h 1.974 l -2.953,3.475 v 1.855 h -1.635 z m 4.478,0.109 h 1.635 c 0.004,0.266 0.058,0.435 0.158,0.505 0.101,0.072 0.283,0.106 0.548,0.106 h 2.003 c 0.221,0 0.393,-0.027 0.516,-0.085 0.122,-0.056 0.183,-0.178 0.183,-0.363 0,-0.128 -0.023,-0.223 -0.069,-0.284 -0.047,-0.061 -0.143,-0.106 -0.288,-0.137 a 4.227,4.227 0 0 0 -0.633,-0.059 44.525,44.525 0 0 0 -1.307,-0.014 c -0.634,0 -1.128,-0.023 -1.484,-0.07 -0.356,-0.047 -0.624,-0.126 -0.803,-0.239 a 0.823,0.823 0 0 1 -0.361,-0.467 c -0.061,-0.2 -0.092,-0.475 -0.092,-0.829 0,-0.295 0.019,-0.536 0.056,-0.725 a 1.02,1.02 0 0 1 0.261,-0.509 c 0.138,-0.149 0.354,-0.266 0.648,-0.349 0.295,-0.085 0.689,-0.126 1.186,-0.126 h 2.283 c 0.457,0 0.824,0.036 1.104,0.11 0.28,0.074 0.487,0.178 0.623,0.313 a 1,1 0 0 1 0.269,0.48 c 0.044,0.183 0.066,0.408 0.066,0.674 v 0.169 h -1.634 c 0,-0.216 -0.044,-0.363 -0.133,-0.439 -0.088,-0.076 -0.309,-0.113 -0.663,-0.113 h -1.811 c -0.191,0 -0.342,0.034 -0.453,0.102 a 0.337,0.337 0 0 0 -0.165,0.309 c 0,0.113 0.019,0.198 0.058,0.257 0.039,0.059 0.121,0.104 0.247,0.137 0.125,0.032 0.314,0.052 0.566,0.063 0.254,0.009 0.613,0.014 1.08,0.014 0.697,0 1.238,0.018 1.623,0.056 0.386,0.036 0.689,0.111 0.91,0.225 0.22,0.113 0.375,0.279 0.464,0.5 0.088,0.221 0.132,0.529 0.132,0.92 0,0.374 -0.038,0.667 -0.114,0.881 a 0.93,0.93 0 0 1 -0.397,0.493 c -0.189,0.115 -0.45,0.194 -0.785,0.236 a 11.7,11.7 0 0 1 -1.362,0.063 h -1.981 c -0.387,0 -0.71,-0.022 -0.968,-0.067 a 1.71,1.71 0 0 1 -0.634,-0.221 0.911,0.911 0 0 1 -0.364,-0.433 1.875,1.875 0 0 1 -0.118,-0.716 z m 6.723,-3.585 h 6.23 v 1.325 h -2.298 v 4.006 h -1.635 v -4.006 h -2.298 v -1.325 z m 6.325,0 h 5.832 v 1.237 h -4.197 v 0.854 h 3.977 v 1.104 h -3.977 v 0.856 h 4.293 v 1.28 h -5.928 z m 6.296,0 h 2.512 l 1.848,3.43 1.848,-3.43 h 2.512 v 5.331 h -1.591 v -3.829 h -0.014 l -2.143,3.829 h -1.223 l -2.143,-3.829 h -0.014 v 3.829 h -1.591 v -5.331 z"
         id="path176"
         inkscape:connector-curvature="0" />
    </g>
    <g
       id="g184"
       style="fill:#ffffff">
      <path
         d="m 205.541,147.489 v 4.135 h -62.19 v -4.168 l 62.19,0.033 m -60.825,9.16 v 1.472 h -1.345 l 0.004,-4.941 h 6.31 v 1.32 h -4.931 l -0.004,1.015 h 4.759 v 1.168 l -4.793,-0.034 m 15.375,1.461 h 1.406 v -4.924 h -1.406 z m 19.757,-4.924 -0.006,4.919 h 1.45 l 0.006,-1.788 h 3.954 v 1.794 h 1.45 l 0.011,-4.924 h -1.455 l -0.006,1.89 h -3.954 v -1.89 h -1.45 m 11.185,-0.006 v 4.924 h 6.357 v -1.314 h -5.003 v -3.61 h -1.354 m -34.927,0.005 h -3.276 l -2.867,4.93 h 1.517 l 0.936,-1.45 h 4.079 l 0.857,1.45 h 1.69 z m -3.111,2.279 0.655,-1.027 h 1.759 l 0.552,1.027 h -2.966 m 15.578,1.252 c 0.065,0 -0.062,0.006 0,0"
         id="path180"
         inkscape:connector-curvature="0" />
      <path
         d="m 168.792,156.734 c 0.644,-0.09 1.208,-0.615 1.208,-1.286 v -0.795 c 0,-0.739 -0.739,-1.455 -1.472,-1.455 h -5.513 v 4.913 h 1.31 v -1.421 h 2.724 l 1.276,1.421 h 1.759 z m -0.679,-1.162 h -3.792 v -1.089 h 3.796 c 0.312,0 0.565,0.254 0.565,0.564 0,0.316 -0.251,0.57 -0.569,0.525 m 10.506,-0.434 h -1.382 a 0.8,0.8 0 0 0 -0.761,-0.581 h -2.939 a 0.767,0.767 0 0 0 -0.767,0.761 v 0.694 c 0,0.417 0.344,0.761 0.767,0.761 h 2.939 a 0.767,0.767 0 0 0 0.761,-0.666 h 1.342 c 0,1.213 -0.835,2.002 -1.895,2.002 h -3.531 a 1.908,1.908 0 0 1 -1.918,-1.895 v -1.139 c 0,-1.044 0.857,-1.895 1.918,-1.895 h 3.531 c 1.06,0.001 1.935,0.909 1.935,1.958 m 9.617,2.967 h 1.404 v -4.913 h -1.404 z m 15.725,-4.919 h -5.516 v 4.907 h 5.55 c 0,0 1.523,-0.305 1.529,-2.521 0.006,-2.081 -1.354,-2.352 -1.563,-2.386 z m -0.394,3.61 -3.779,-0.011 -0.006,-2.307 h 3.79 c 0.338,0.062 0.756,0.124 0.767,1.111 0.006,1.185 -0.772,1.207 -0.772,1.207 m 1.979,2.803 v 4.135 h -62.192 v -4.168 l 62.192,0.033"
         id="path182"
         inkscape:connector-curvature="0" />
    </g>
    <path
       d="M 475.152,140.883 H 75.848 a 1.07,1.07 0 0 0 -1.066,1.066 v 0.597 c 0,0.586 0.48,1.066 1.066,1.066 h 399.305 a 1.07,1.07 0 0 0 1.066,-1.066 v -0.597 a 1.07,1.07 0 0 0 -1.067,-1.066 z m 0,26.694 H 75.848 a 1.07,1.07 0 0 0 -1.066,1.066 v 0.597 c 0,0.586 0.48,1.066 1.066,1.066 h 399.305 a 1.07,1.07 0 0 0 1.066,-1.066 v -0.597 a 1.07,1.07 0 0 0 -1.067,-1.066 z"
       id="path186"
       inkscape:connector-curvature="0"
       style="fill:#e3d4a7" />
  </g>
</svg>
