<?xml version="1.0" encoding="UTF-8" standalone="no"?>
<svg
   xmlns:dc="http://purl.org/dc/elements/1.1/"
   xmlns:cc="http://creativecommons.org/ns#"
   xmlns:rdf="http://www.w3.org/1999/02/22-rdf-syntax-ns#"
   xmlns:svg="http://www.w3.org/2000/svg"
   xmlns="http://www.w3.org/2000/svg"
   xmlns:sodipodi="http://sodipodi.sourceforge.net/DTD/sodipodi-0.dtd"
   xmlns:inkscape="http://www.inkscape.org/namespaces/inkscape"
   viewBox="0 0 123.15217 362.53788"
   version="1.1"
   id="svg41"
   sodipodi:docname="controller.svg"
   width="123.15217"
   height="362.53787"
   inkscape:version="0.92.4 5da689c313, 2019-01-14">
  <metadata
     id="metadata47">
    <rdf:RDF>
      <cc:Work
         rdf:about="">
        <dc:format>image/svg+xml</dc:format>
        <dc:type
           rdf:resource="http://purl.org/dc/dcmitype/StillImage" />
      </cc:Work>
    </rdf:RDF>
  </metadata>
  <defs
     id="defs45" />
  <sodipodi:namedview
     pagecolor="#ffffff"
     bordercolor="#666666"
     borderopacity="1"
     objecttolerance="10"
     gridtolerance="10"
     guidetolerance="10"
     inkscape:pageopacity="0"
     inkscape:pageshadow="2"
     inkscape:window-width="640"
     inkscape:window-height="480"
     id="namedview43"
     showgrid="false"
     inkscape:zoom="0.65096625"
     inkscape:cx="61.57617"
     inkscape:cy="181.269"
     inkscape:window-x="0"
     inkscape:window-y="0"
     inkscape:window-maximized="0"
     inkscape:current-layer="svg41" />
  <path
     d="M 4.7771693,28.475858 H 103.18517 v 2.125 H 4.7771693 Z"
     id="path2"
     inkscape:connector-curvature="0" />
  <linearGradient
     id="a"
     gradientUnits="userSpaceOnUse"
     x1="53.980999"
     y1="28.476"
     x2="53.980999"
     gradientTransform="translate(1.6933002e-4,-1.4217084e-4)">
    <stop
       offset="0"
       stop-color="#2b2724"
       id="stop4" />
    <stop
       offset="1"
       stop-color="#171517"
       id="stop6" />
  </linearGradient>
  <path
     d="M 0.29516933,28.475858 H 107.66717 a 20.597,20.597 0 0 0 -0.14,-2.125 c -0.627,-5.305 -3.539,-8.755 -5.75,-11.375 C 96.187169,8.3528578 89.314169,5.8588578 83.777169,3.8508578 c -8.449,-3.06499997 -15.522,-3.47099997 -21.125,-3.74999997 -2.387,-0.119 -8.636,-0.334 -16.875,0.75 -8.526,1.12199997 -19.362,2.53799997 -30.5,9.50000017 -6.7049997,4.191 -12.9059997,9.083 -14.74999967,17 -0.049,0.213 -0.14,0.602 -0.232,1.125 z"
     id="path9"
     inkscape:connector-curvature="0"
     style="fill:url(#a)" />
  <linearGradient
     id="b"
     gradientUnits="userSpaceOnUse"
     x1="53.792"
     y1="30.593"
     x2="53.792"
     y2="70.225998"
     gradientTransform="translate(1.6933002e-4,-1.4217084e-4)">
    <stop
       offset="0"
       stop-color="#2b2724"
       id="stop11" />
    <stop
       offset="1"
       stop-color="#171517"
       id="stop13" />
  </linearGradient>
  <path
     d="m 48.527169,70.225858 c -0.296,-2.707 -1.167,-6.414 -3.625,-10 -2.915,-4.254 -6.65,-6.275 -9.375,-7.75 -3.203,-1.734 -5.77,-2.454 -9.5,-3.5 -7.411,-2.079 -8.547,-1.227 -13.75,-3.125 -4.3319997,-1.58 -7.7049997,-2.81 -9.9999997,-6.125 -2.12299997,-3.067 -2.40199997,-6.59 -2.23799997,-9.122 H 107.58417 v -0.01 c -0.449,4.834 -2.665,9.252 -6.378,12.066 -2.577001,1.954 -3.508001,1.356 -7.054001,3.567 -7.295,4.549 -10.199,11.757 -11,14 -0.719,2.013 -1.607,5.862 -1.625,10 h -33 z"
     id="path16"
     inkscape:connector-curvature="0"
     style="fill:url(#b)" />
  <path
     d="m 51.902169,70.225858 h 25.375 v 9.875 h -25.375 z"
     id="path18"
     inkscape:connector-curvature="0"
     style="fill:#171614" />
  <path
     d="m 28.423169,93.975858 h -5.598 c -7.795,0 -14.1729997,6.378002 -14.1729997,14.173002 v 238.154 c 0,7.795 6.3779997,14.173 14.1729997,14.173 h 86.154001 c 7.795,0 14.173,-6.378 14.173,-14.173 v -238.154 c 0,-7.795 -6.378,-14.173002 -14.173,-14.173002 h -4.842 a 1.984,1.984 0 0 1 -1.984,-1.984 v -9.891 c 0,-1.1 -0.9,-2 -2,-2 H 32.382169 a 1.985,1.985 0 0 0 -1.979,1.979 v 9.917 a 1.98,1.98 0 0 1 -1.98,1.979 z"
     id="path20"
     inkscape:connector-curvature="0"
     style="fill:#1b1e22" />
  <path
     d="m 97.895169,362.53786 h -17.86 a 0.384,0.384 0 0 1 -0.383,-0.383 v -1.68 h 18.625 v 1.68 a 0.383,0.383 0 0 1 -0.382,0.383 z"
     id="path22"
     inkscape:connector-curvature="0"
     style="fill:#151314" />
  <linearGradient
     id="c"
     gradientUnits="userSpaceOnUse"
     x1="66.278"
     y1="80.100998"
     x2="66.278"
     y2="360.47601"
     gradientTransform="translate(1.6933002e-4,-1.4217084e-4)">
    <stop
       offset="0"
       stop-color="#222224"
       id="stop24" />
    <stop
       offset=".085"
       stop-color="#191d21"
       id="stop26" />
    <stop
       offset=".871"
       stop-color="#181c20"
       id="stop28" />
    <stop
       offset=".919"
       stop-color="#181c20"
       id="stop30" />
    <stop
       offset="1"
       stop-color="#232325"
       id="stop32" />
  </linearGradient>
  <path
     d="M 30.402169,82.079858 V 360.47586 H 102.15217 V 82.100858 c 0,-1.1 -0.9,-2 -2,-2 H 32.382169 c -1.089,0 -1.98,0.89 -1.98,1.979 z"
     id="path35"
     inkscape:connector-curvature="0"
     style="fill:url(#c)" />
  <g
     id="g39"
     style="fill:#212122"
     transform="translate(1.6933002e-4,-1.4217084e-4)">
    <path
       d="m 30.402,117.101 h 71.75 v 4.375 h -71.75 z m 0,9.625 h 71.75 v 4.375 h -71.75 z m 0,9.625 h 71.75 v 4.375 h -71.75 z m 0,9.625 h 71.75 v 4.375 h -71.75 z m 0,9.625 h 71.75 v 4.375 h -71.75 z m 0,9.625 h 71.75 v 4.375 h -71.75 z m 0,9.625 h 71.75 v 4.375 h -71.75 z m 0,9.625 h 71.75 v 4.375 h -71.75 z m 0,9.625 h 71.75 v 4.375 h -71.75 z m 0,9.625 h 71.75 v 4.375 h -71.75 z m 0,9.625 h 71.75 v 4.375 h -71.75 z m 0,9.625 h 71.75 v 4.375 h -71.75 z m 0,9.625 h 71.75 v 4.375 h -71.75 z m 0,9.625 h 71.75 v 4.375 h -71.75 z m 0,9.625 h 71.75 v 4.375 h -71.75 z m 0,9.625 h 71.75 v 4.375 h -71.75 z m 0,9.625 h 71.75 v 4.375 h -71.75 z m 0,9.625 h 71.75 v 4.375 h -71.75 z m 0,9.625 h 71.75 v 4.375 h -71.75 z m 0,9.625 h 71.75 v 4.375 h -71.75 z m 0,9.625 h 71.75 v 4.375 h -71.75 z m 0,9.625 h 71.75 v 4.375 h -71.75 z m 0,9.625 h 71.75 v 4.375 h -71.75 z"
       id="path37"
       inkscape:connector-curvature="0" />
  </g>
</svg>
