<?xml version="1.0" encoding="UTF-8" standalone="no"?>
<svg
   xmlns:dc="http://purl.org/dc/elements/1.1/"
   xmlns:cc="http://creativecommons.org/ns#"
   xmlns:rdf="http://www.w3.org/1999/02/22-rdf-syntax-ns#"
   xmlns:svg="http://www.w3.org/2000/svg"
   xmlns="http://www.w3.org/2000/svg"
   xmlns:sodipodi="http://sodipodi.sourceforge.net/DTD/sodipodi-0.dtd"
   xmlns:inkscape="http://www.inkscape.org/namespaces/inkscape"
   viewBox="0 0 394 102.569"
   version="1.1"
   id="svg6"
   sodipodi:docname="logo.svg"
   width="394"
   height="102.569"
   inkscape:version="0.92.4 5da689c313, 2019-01-14">
  <metadata
     id="metadata12">
    <rdf:RDF>
      <cc:Work
         rdf:about="">
        <dc:format>image/svg+xml</dc:format>
        <dc:type
           rdf:resource="http://purl.org/dc/dcmitype/StillImage" />
      </cc:Work>
    </rdf:RDF>
  </metadata>
  <defs
     id="defs10" />
  <sodipodi:namedview
     pagecolor="#ffffff"
     bordercolor="#666666"
     borderopacity="1"
     objecttolerance="10"
     gridtolerance="10"
     guidetolerance="10"
     inkscape:pageopacity="0"
     inkscape:pageshadow="2"
     inkscape:window-width="640"
     inkscape:window-height="480"
     id="namedview8"
     showgrid="false"
     inkscape:zoom="0.69153644"
     inkscape:cx="195.94051"
     inkscape:cy="51.285"
     inkscape:window-x="0"
     inkscape:window-y="0"
     inkscape:window-maximized="0"
     inkscape:current-layer="svg6" />
  <path
     d="M 391.846,0.213 V 26.264 H 0 V 0 L 391.846,0.213 M 8.601,57.93 v 9.276 H 0.128 L 0.153,36.073 h 39.759 v 8.316 H 8.842 l -0.025,6.397 h 29.985 v 7.357 L 8.601,57.93 m 96.871,9.205 h 8.857 V 36.109 h -8.857 z M 229.961,36.109 229.925,67.1 h 9.134 l 0.036,-11.266 h 24.913 v 11.302 h 9.134 l 0.071,-31.026 h -9.169 l -0.036,11.906 H 239.095 V 36.109 h -9.134 m 70.476,-0.036 V 67.099 H 340.49 V 58.818 H 308.966 V 36.073 h -8.529 M 80.366,36.109 H 59.725 L 41.66,67.171 h 9.56 l 5.9,-9.134 h 25.699 l 5.402,9.134 h 10.648 z m -19.6,14.358 4.126,-6.468 h 11.081 l 3.479,6.468 H 60.766 m 98.154,7.89 c 0.409,0 -0.391,0.035 0,0"
     id="path2"
     inkscape:connector-curvature="0" />
  <path
     d="m 160.299,58.463 c 4.055,-0.569 7.609,-3.874 7.609,-8.103 v -5.011 c 0,-4.656 -4.656,-9.169 -9.272,-9.169 h -34.737 v 30.955 h 8.256 v -8.956 h 17.166 l 8.039,8.956 h 11.081 z m -4.279,-7.321 h -23.89 v -6.859 h 23.915 a 3.561,3.561 0 0 1 3.558,3.554 c 0,1.99 -1.582,3.589 -3.583,3.305 m 66.194,-2.737 h -8.707 c -0.533,-2.061 -2.559,-3.661 -4.798,-3.661 h -18.516 c -2.665,0 -4.833,2.168 -4.833,4.798 v 4.371 c 0,2.63 2.168,4.798 4.833,4.798 h 18.516 c 2.452,0 4.514,-1.848 4.798,-4.194 h 8.459 c 0,7.641 -5.26,12.617 -11.941,12.617 h -22.248 c -6.682,0 -12.084,-5.367 -12.084,-11.941 v -7.179 c 0,-6.575 5.402,-11.941 12.084,-11.941 h 22.248 c 6.68,0 12.189,5.722 12.189,12.332 m 60.595,18.694 h 8.849 V 36.144 h -8.849 z m 99.086,-30.99 h -34.758 v 30.92 h 34.971 c 0,0 9.596,-1.919 9.631,-15.886 0.036,-13.115 -8.529,-14.821 -9.844,-15.034 z m -2.488,22.745 -23.812,-0.071 -0.036,-14.536 h 23.883 c 2.132,0.391 4.762,0.782 4.833,7.001 0.036,7.464 -4.868,7.606 -4.868,7.606 m 12.474,17.664 v 26.051 H 0.021 V 76.304 l 391.86,0.214"
     id="path4"
     inkscape:connector-curvature="0" />
</svg>
