<?xml version="1.0" encoding="UTF-8" standalone="no"?>
<svg
   xmlns:dc="http://purl.org/dc/elements/1.1/"
   xmlns:cc="http://creativecommons.org/ns#"
   xmlns:rdf="http://www.w3.org/1999/02/22-rdf-syntax-ns#"
   xmlns:svg="http://www.w3.org/2000/svg"
   xmlns="http://www.w3.org/2000/svg"
   xmlns:sodipodi="http://sodipodi.sourceforge.net/DTD/sodipodi-0.dtd"
   xmlns:inkscape="http://www.inkscape.org/namespaces/inkscape"
   viewBox="0 0 1928.546 2663.3508"
   enable-background="new 0 0 1928.546 2663.351"
   version="1.1"
   id="svg164"
   sodipodi:docname="console.svg"
   width="1928.546"
   height="2663.3508"
   inkscape:version="0.92.4 5da689c313, 2019-01-14">
  <metadata
     id="metadata170">
    <rdf:RDF>
      <cc:Work
         rdf:about="">
        <dc:format>image/svg+xml</dc:format>
        <dc:type
           rdf:resource="http://purl.org/dc/dcmitype/StillImage" />
      </cc:Work>
    </rdf:RDF>
  </metadata>
  <defs
     id="defs168" />
  <sodipodi:namedview
     pagecolor="#ffffff"
     bordercolor="#666666"
     borderopacity="1"
     objecttolerance="10"
     gridtolerance="10"
     guidetolerance="10"
     inkscape:pageopacity="0"
     inkscape:pageshadow="2"
     inkscape:window-width="640"
     inkscape:window-height="480"
     id="namedview166"
     showgrid="false"
     inkscape:zoom="0.088610173"
     inkscape:cx="964.27301"
     inkscape:cy="1331.6752"
     inkscape:window-x="0"
     inkscape:window-y="0"
     inkscape:window-maximized="0"
     inkscape:current-layer="svg164" />
  <filter
     height="2.21"
     id="c"
     width="1.242"
     x="-0.121"
     y="-0.60500002">
    <feGaussianBlur
       stdDeviation=".459"
       id="feGaussianBlur2" />
  </filter>
  <filter
     height="1.643"
     id="b"
     width="1.1289999"
     x="-0.064000003"
     y="-0.32100001">
    <feGaussianBlur
       stdDeviation=".244"
       id="feGaussianBlur5" />
  </filter>
  <path
     d="M 1901.315,2646.776 V 2.206 c 19.885,8.297 27.231,17.651 27.231,17.651 v 2595.855 z"
     id="path8"
     inkscape:connector-curvature="0"
     style="fill:#646665" />
  <linearGradient
     id="a"
     gradientUnits="userSpaceOnUse"
     x1="732.56299"
     y1="2663.0991"
     x2="732.56299">
    <stop
       offset="0"
       stop-color="#050505"
       id="stop10" />
    <stop
       offset="1"
       stop-color="#212121"
       id="stop12" />
  </linearGradient>
  <path
     d="M 1465.125,2663.099 V 0 C 308.565,36.627 0,93.898 0,93.898 c 0,120.465 10.466,2338.969 5.232,2338.969 606.979,219.769 1459.893,230.232 1459.893,230.232 z"
     id="path15"
     inkscape:connector-curvature="0"
     style="fill:url(#a);enable-background:new" />
  <path
     d="M 1638.158,14.115 1901.314,2.206 v 1321.033 l -257.701,-7.982 z"
     id="path17"
     inkscape:connector-curvature="0"
     style="fill:#1b1b1b" />
  <path
     d="m 1522.169,6.173 v 1320.124 l 121.445,-11.04 -5.455,-1301.141 z"
     id="path19"
     inkscape:connector-curvature="0"
     style="fill:#606261" />
  <g
     id="g25"
     style="fill:#838498">
    <path
       d="m 1854.651,67.742 c -1.45,0.062 -2.62,1.319 -2.62,2.801 0,1.492 1.167,2.653 2.612,2.594 h 0.01 c 1.444,-0.062 2.607,-1.319 2.607,-2.817 0,-1.482 -1.162,-2.64 -2.607,-2.578 z m 0,5.07 c -1.273,0.054 -2.298,-0.961 -2.298,-2.282 0,-1.306 1.025,-2.409 2.298,-2.463 1.266,-0.054 2.293,0.961 2.293,2.267 0,1.321 -1.027,2.424 -2.293,2.478 z"
       id="path21"
       inkscape:connector-curvature="0" />
    <path
       d="m 1855.992,69.669 c 0,-0.254 -0.109,-0.518 -0.327,-0.636 -0.22,-0.124 -0.466,-0.128 -0.712,-0.118 l -1.273,0.054 v 3.016 l 0.356,-0.015 v -1.392 l 0.657,-0.028 0.835,1.356 0.424,-0.018 -0.882,-1.354 c 0.519,-0.036 0.922,-0.272 0.922,-0.865 z m -1.408,0.596 -0.548,0.024 v -1.066 l 0.835,-0.035 c 0.362,-0.016 0.759,0.023 0.759,0.489 0,0.614 -0.636,0.57 -1.046,0.588 z m -15.254,-14.461 5.345,-6.117 c 0.31,-0.445 0.464,-0.755 0.464,-1.014 0,-0.432 -0.361,-0.59 -1.493,-0.542 l -1.35,0.057 v -3.717 l 14.596,-0.623 v 3.718 l -1.917,0.081 c -2.216,0.095 -2.628,0.458 -5.717,4.61 l -8.456,9.783 v 5.75 c 0,1.47 0.721,1.957 2.782,1.869 l 3.192,-0.136 v 3.587 l -20.442,0.872 v -3.587 l 3.193,-0.136 c 2.059,-0.088 2.78,-0.636 2.78,-2.106 v -5.75 l -9.958,-10.943 c -1.647,-1.917 -1.418,-2.36 -6,-2.164 v -3.718 l 18.488,-0.789 v 3.718 l -1.317,0.056 c -1.339,0.057 -1.905,0.34 -1.905,0.86 0,0.432 0.411,0.76 0.67,1.094 l 5.037,5.451 c 0.596,0.618 1.326,0.67 2.008,-0.164 z m -124.039,-5.914 4.46,-0.19 v 10.373 l -4.119,0.176 c -0.365,-2.059 -1.621,-2.812 -2.77,-3.85 -2.069,-1.874 -6.549,-3.317 -10.317,-3.156 -4.863,0.207 -8.969,1.939 -8.969,4.23 0,6.354 27.816,0.11 27.816,12.126 0,6.268 -5.958,10.024 -16.658,10.48 -3.705,0.158 -9.31,-0.79 -12.617,-2.461 -1.037,-0.575 -1.477,0.647 -1.671,2.163 l -4.573,0.195 v -10.72 l 4.136,-0.176 c 0.911,2.685 2.169,3.191 3.325,4.224 2.005,1.816 6.78,2.997 11.157,2.764 6.6,-0.348 8.87,-1.933 8.87,-4.095 0,-2.161 -2.245,-2.584 -9.479,-3.443 l -6.14,-0.774 c -6.931,-0.785 -11.977,-2.17 -11.977,-7.875 0,-5.922 6.383,-9.912 16.476,-10.343 4.253,-0.181 7.813,0.254 11.227,2.1 0.947,0.594 1.835,0.632 1.823,-1.748 z m 87.029,13.654 0.09,-11.533 c 0,-1.513 -0.762,-2 -2.942,-1.906 l -2.56,0.11 v -3.588 l 16.29,-0.695 v 3.587 l -2.125,0.09 c -2.18,0.094 -2.943,0.645 -2.943,2.157 v 23.212 l -6.377,0.221 -20.645,-19.296 v 14.652 c 0,1.47 0.764,1.999 2.941,1.906 l 2.834,-0.121 v 3.545 l -16.915,0.721 v -3.544 l 2.802,-0.12 c 2.18,-0.093 2.942,-0.686 2.942,-2.157 V 53.15 c 0,-1.513 -0.763,-1.999 -2.942,-1.906 l -2.802,0.12 v -3.588 l 14.627,-0.624 17.726,16.392 z m -54.56,-16.166 c -12.982,0.554 -21.108,6.823 -21.108,16.332 0,9.338 8.013,14.874 20.712,14.332 13.488,-0.575 21.333,-6.702 21.333,-16.6 0,-8.905 -8.466,-14.596 -20.937,-14.064 z m -0.296,26.899 c -7.185,0.306 -11.316,-3.796 -11.316,-11.188 0,-7.218 4.31,-11.682 11.675,-11.996 7.065,-0.302 11.197,3.889 11.197,11.323 0,7.261 -4.19,11.546 -11.556,11.86 z"
       id="path23"
       inkscape:connector-curvature="0" />
  </g>
  <g
     id="g31"
     style="fill:#838498">
    <path
       d="m 1527.318,94.578 c 0.726,-0.114 1.278,0.874 1.236,2.2 -0.041,1.335 -0.661,2.51 -1.385,2.627 v 0 c -0.723,0.114 -1.271,-0.875 -1.228,-2.215 0.041,-1.327 0.658,-2.499 1.381,-2.612 z m -0.144,4.536 c 0.638,-0.1 1.181,-1.128 1.219,-2.31 0.037,-1.169 -0.447,-2.036 -1.084,-1.935 -0.634,0.1 -1.178,1.128 -1.216,2.296 -0.037,1.183 0.447,2.05 1.081,1.95 z"
       id="path27"
       inkscape:connector-curvature="0" />
    <path
       d="m 1526.59,96.459 c 0.01,-0.228 0.07,-0.476 0.183,-0.607 a 0.525,0.525 0 0 1 0.36,-0.19 l 0.638,-0.1 -0.086,2.699 -0.178,0.028 0.04,-1.245 -0.33,0.052 -0.457,1.31 -0.213,0.034 0.482,-1.315 c -0.26,0.028 -0.456,-0.135 -0.439,-0.666 z m 0.69,0.369 0.274,-0.043 0.03,-0.954 -0.417,0.066 c -0.182,0.029 -0.382,0.11 -0.395,0.526 -0.018,0.55 0.303,0.437 0.508,0.405 z m 8.068,-14.724 -2.51,-4.849 c -0.143,-0.362 -0.211,-0.621 -0.204,-0.853 0.012,-0.387 0.198,-0.57 0.765,-0.66 l 0.676,-0.106 0.105,-3.326 -7.309,1.148 -0.105,3.327 0.96,-0.151 c 1.11,-0.174 1.306,0.103 2.739,3.457 l 3.967,7.766 -0.164,5.145 c -0.041,1.316 -0.417,1.836 -1.449,1.998 l -1.598,0.25 -0.102,3.21 10.236,-1.608 0.102,-3.21 -1.599,0.251 c -1.03,0.163 -1.377,-0.244 -1.336,-1.56 l 0.164,-5.145 5.309,-10.956 c 0.88,-1.908 0.779,-2.277 3.073,-2.638 l 0.105,-3.326 -9.258,1.455 -0.105,3.326 0.66,-0.103 c 0.67,-0.106 0.946,0.082 0.932,0.546 -0.013,0.387 -0.229,0.73 -0.368,1.058 l -2.683,5.467 c -0.317,0.622 -0.685,0.754 -1.003,0.087 z m 62.43,-19.79 -2.233,0.351 -0.294,9.283 2.062,-0.324 c 0.242,-1.885 0.894,-2.706 1.5,-3.77 1.092,-1.918 3.381,-3.733 5.268,-4.03 2.436,-0.382 4.447,0.688 4.382,2.737 -0.18,5.687 -13.965,3.35 -14.306,14.103 -0.178,5.609 2.706,8.273 8.064,7.43 1.855,-0.29 4.696,-1.794 6.403,-3.676 0.537,-0.635 0.723,0.406 0.777,1.74 l 2.29,-0.36 0.304,-9.592 -2.07,0.325 c -0.534,2.51 -1.18,3.11 -1.79,4.169 -1.058,1.859 -3.487,3.474 -5.678,3.778 -3.304,0.46 -4.398,-0.694 -4.337,-2.628 0.062,-1.934 1.2,-2.575 4.856,-4.189 l 3.104,-1.41 c 3.502,-1.513 6.074,-3.342 6.236,-8.447 0.168,-5.3 -2.923,-8.124 -7.977,-7.33 -2.13,0.335 -3.929,1.14 -5.695,3.192 -0.493,0.641 -0.94,0.78 -0.866,-1.352 z m -44.073,22.391 0.283,-10.31 c 0.043,-1.354 0.439,-1.878 1.53,-2.05 l 1.283,-0.201 0.101,-3.21 -8.156,1.282 -0.102,3.21 1.063,-0.167 c 1.092,-0.172 1.46,0.232 1.416,1.586 l -0.658,20.77 3.194,-0.547 10.911,-19.68 -0.416,13.11 c -0.042,1.317 -0.44,1.879 -1.53,2.05 l -1.42,0.223 -0.1,3.172 8.47,-1.331 0.101,-3.172 -1.403,0.22 c -1.091,0.172 -1.458,-0.27 -1.416,-1.586 l 0.5,-15.78 c 0.044,-1.354 0.44,-1.878 1.531,-2.05 l 1.404,-0.22 0.102,-3.21 -7.325,1.15 -9.363,16.74 z m 27.847,-20.843 c 6.5,-1.022 10.401,3.638 10.131,12.147 -0.265,8.356 -4.444,14.246 -10.803,15.246 -6.754,1.061 -10.518,-3.504 -10.237,-12.362 0.252,-7.967 4.664,-14.05 10.909,-15.031 z m -0.616,24.035 c 3.599,-0.565 5.789,-4.72 5.998,-11.334 0.205,-6.459 -1.832,-9.95 -5.52,-9.37 -3.538,0.556 -5.73,4.789 -5.941,11.441 -0.206,6.498 1.775,9.843 5.463,9.263 z"
       id="path29"
       inkscape:connector-curvature="0" />
  </g>
  <path
     d="m 1522.169,40.596 115.99,-26.481 -115.99,-7.942 z"
     id="path33"
     inkscape:connector-curvature="0"
     style="fill:#c5c5c5" />
  <g
     id="g39"
     style="fill:#838498">
    <path
       d="m 1748.132,260.206 v 6.713 l 44.55,-1.83 -1.22,-4.883 z m 43.333,-18.916 0.609,-5.49 -42.72,-18.92 -1.22,5.49 z m -21.015,-85.4 c -10.089,0 -18.657,7.111 -21.712,17.003 h 5.145 c 2.804,-6.905 9.209,-11.681 16.568,-11.681 9.936,0 17.96,8.753 17.96,19.614 0,10.867 -8.026,19.708 -17.96,19.708 -6.452,0 -12.153,-3.74 -15.345,-9.328 h -5.493 c 3.619,8.65 11.584,14.649 20.84,14.649 12.63,0 22.844,-11.218 22.844,-25.029 0,-13.811 -10.216,-24.936 -22.846,-24.936 z"
       id="path35"
       inkscape:connector-curvature="0" />
    <path
       d="m 1740.198,179.042 h 28.076 l 1.22,6.713 -28.684,-0.611 z"
       id="path37"
       inkscape:connector-curvature="0" />
  </g>
  <g
     id="g45"
     style="fill:#838498">
    <path
       d="m 1578.394,271.002 v 6.492 l -20.996,2.193 0.575,-4.832 z m -20.422,-14.443 -0.287,-5.256 20.133,-22.095 0.575,5.2 -20.421,22.15 z m 9.904,-84.456 c 4.755,-0.898 8.793,5.217 10.232,14.512 l -2.424,0.458 c -1.322,-6.43 -4.34,-10.478 -7.808,-9.824 -4.683,0.884 -8.464,10.062 -8.464,20.567 0,10.51 3.782,18.345 8.464,17.461 3.042,-0.574 5.727,-4.697 7.231,-10.385 l 2.589,-0.489 c -1.705,8.688 -5.46,15.198 -9.822,16.021 -5.952,1.123 -10.765,-8.817 -10.765,-22.174 0,-13.357 4.813,-25.024 10.767,-26.147 z"
       id="path41"
       inkscape:connector-curvature="0" />
    <path
       d="m 1582.132,191.8 -13.232,2.497 -0.575,6.6 13.518,-3.141 z"
       id="path43"
       inkscape:connector-curvature="0" />
  </g>
  <path
     d="m 1536.268,80.688 v 1181.685 l 21.065,-3.663 c 0,0 8.427,1.221 8.427,-12.208 V 86.792 c 0,0 -13.693,-4.883 -29.492,-6.104 z"
     id="path47"
     inkscape:connector-curvature="0"
     style="fill:#2d2d2d" />
  <path
     d="m 1566.037,84.826 v 1178.291 l 3.821,-3.652 c 0,0 1.528,1.218 1.528,-12.172 V 90.912 c -10e-4,0 -2.483,-4.87 -5.349,-6.086 z"
     id="path49"
     inkscape:connector-curvature="0"
     style="fill:#acacac" />
  <path
     d="m 1540.029,172.327 h 13.426 v 993.523 h -14.646 z"
     id="path51"
     inkscape:connector-curvature="0"
     style="fill:#181818" />
  <path
     d="m 1592.701,638.155 29.276,24.767 -29.276,26.069 z m 4.414,7.656 v 35.474 l 20.447,-18.199 z m 177.265,-12.745 -34.324,32.416 34.324,33.688 z m -5.177,9.988 v 46.128 l -23.972,-23.518 23.973,-22.61 z"
     id="path53"
     inkscape:connector-curvature="0"
     style="fill:#606899" />
  <path
     d="m 1781.189,638.06 v 53.665 h 14.983 V 638.06 Z m 3.088,3.723 h 8.808 v 45.584 h -8.808 z m -197.385,0.243 v 41.27 l -12.779,0.071 v -41.27 z m -2.633,2.878 -7.513,0.042 V 680 l 7.513,-0.042 z"
     id="path55"
     inkscape:connector-curvature="0"
     style="fill:#697490" />
  <path
     d="m 1583.99,637.7 v 34.369 c 0,0 -18.504,21.148 -4.403,26.433 14.099,5.289 14.099,6.17 14.099,6.17 h 25.553 l 22.911,-13.22 c 0,0 3.758,-7.92 -0.88,-12.334 -4.086,-3.894 -11.454,-4.408 -11.454,-4.408 0,0 5.599,-17.963 -0.884,-26.436 -7.284,-9.522 -20.267,-12.334 -20.267,-12.334 l -24.673,1.76 z"
     id="path57"
     inkscape:connector-curvature="0"
     style="fill:#2d2d2d" />
  <path
     d="m 1580.468,687.048 c 0,0 -14.982,6.17 -0.88,11.455 14.098,5.288 14.098,6.169 14.098,6.169 h 25.553 l 22.911,-13.219 c 0,0 3.758,1.773 -0.88,-2.644 l -60.802,-1.76 z"
     id="path59"
     inkscape:connector-curvature="0"
     style="fill:#171717" />
  <path
     d="m 1618.48,651.9 -0.032,50.55 -7.695,-4.405 v -59.417 l 9.823,4.571 c 6.287,2.974 10.134,8.755 10.071,18.887 -0.062,11.785 -3.159,16.52 -9.196,13.436 v -23.237 c 0,-2.809 -2.97,-2.973 -2.97,-0.385 z"
     id="path61"
     inkscape:connector-curvature="0"
     style="fill:#c41700" />
  <path
     d="m 1607.22,688.242 -3.63,2.148 c -2.346,1.432 -4.347,-1.927 -2.19,-3.304 l 1.752,-1.1 -6.6,-3.691 c -2.033,1.212 -3.941,3.8 -3.816,7.435 0.126,3.688 4.911,4.57 8.603,5.616 3.44,0.991 6.568,0.44 9.415,-1.321 v -3.8 l -3.535,-1.983 z m 11.29,14.208 6.726,-4.13 -6.788,-3.8 v 7.654 l 0.063,0.276 z"
     id="path63"
     inkscape:connector-curvature="0"
     style="fill:#d8a100" />
  <path
     d="m 1636.403,691.382 0.125,-0.056 c 2.94,-1.816 4.192,-4.35 3.88,-6.718 -0.501,-3.964 -4.099,-6.112 -9.635,-6.828 -3.973,-0.495 -7.882,1.046 -11.699,3.359 l -0.625,0.385 6.85,3.745 4.004,-2.368 c 4.191,-1.377 5.88,1.046 1.845,3.304 l -2.001,1.21 z m -25.65,-17.511 -3.034,1.816 3.034,1.653 v -3.47 z"
     id="path65"
     inkscape:connector-curvature="0"
     style="fill:#0f3bc2" />
  <path
     d="m 1625.236,698.32 11.166,-6.938 -7.256,-3.966 -10.698,6.443 v 0.661 z m -14.483,-12.17 -3.534,2.092 3.534,1.983 z m 7.695,3.25 v -7.876 l 6.85,3.745 -6.85,4.13 z m -15.295,-3.415 7.6,-4.79 v -3.855 l -3.034,-1.653 -11.01,6.553 c -0.031,0 -0.094,0.055 -0.157,0.055 l 6.6,3.69 z"
     id="path67"
     inkscape:connector-curvature="0"
     style="fill:#109dbc" />
  <path
     d="m 1586.639,672.068 h 21.15 v 1.762 h -21.15 z"
     id="path69"
     inkscape:connector-curvature="0"
     style="fill:#9a9a9a;filter:url(#b)" />
  <path
     d="m 1576.061,684.405 h 14.1 v 4.405 h -14.1 z"
     id="path71"
     inkscape:connector-curvature="0"
     style="fill:#bababa;filter:url(#c)" />
  <g
     id="g75"
     style="fill:#2b2828">
    <path
       d="m 792.51,1215.254 c 7.13,0.223 13.06,0.712 19.704,1.224 -0.046,1.213 -2.168,6.915 -2.191,7.522 l -40.406,-1.265 c 0.272,-0.903 2.394,-6.605 2.417,-7.211 7.629,-0.369 13.583,-0.486 20.476,-0.27 z m 24.197,-10.476 c -6.395,-0.808 -12.325,-1.297 -20.169,-1.543 -8.318,-0.26 -14.51,-0.15 -21.188,0.247 -5.015,0.45 -10.03,0.901 -14.591,1.973 l -0.238,-0.01 -15.64,48.09 14.498,0.453 c 0,0 6.458,-19.532 6.707,-19.829 l 40.168,1.258 c -0.284,1.206 -6.47,19.837 -6.47,19.837 l 14.737,0.46 15.64,-48.089 -0.475,-0.014 c -4.231,-1.347 -8.487,-2.088 -12.98,-2.835 z m 244.46,42.997 c -7.322,0.687 -15.107,0.752 -22.638,0.521 -7.53,-0.23 -15.048,-0.765 -21.571,-1.875 0.278,-0.902 8.513,-24.94 8.537,-25.546 7.068,-0.39 14.61,-0.463 22.626,-0.218 7.53,0.23 15.049,0.765 21.596,1.27 -0.534,1.197 -8.538,25.545 -8.55,25.848 z m 11.512,10.372 0.243,0.01 14.894,-45.087 -0.485,-0.015 c -4.083,-1.34 -8.674,-2.087 -13.509,-2.843 -6.777,-0.814 -14.296,-1.349 -22.069,-1.587 -7.53,-0.23 -15.558,-0.173 -23.112,0.203 -4.882,0.457 -10.007,0.908 -14.669,1.98 l -0.486,-0.015 -14.894,45.086 0.728,0.022 c 4.106,0.733 8.686,1.785 13.278,2.532 7.008,1.126 14.527,1.66 22.3,1.898 7.53,0.23 15.315,0.166 22.88,-0.514 5.125,-0.45 10.02,-1.21 14.901,-1.668 z m -652.477,-58.21 c 5.315,0.216 9.52,0.69 15.01,1.217 -0.22,1.206 -1.672,6.916 -1.874,7.515 l -30.97,-1.258 c 0.21,-0.903 1.663,-6.612 1.864,-7.212 5.699,-0.376 10.473,-0.485 15.97,-0.262 z m 18.29,-10.49 c -4.747,-0.8 -9.32,-1.29 -15.733,-1.55 -6.048,-0.246 -10.821,-0.136 -15.97,0.262 -3.867,0.45 -7.733,0.9 -11.25,1.972 l -0.184,-0.01 -12.059,48.09 11.362,0.461 c 0,0 4.796,-19.54 4.805,-19.843 l 31.154,1.265 c -0.403,1.198 -4.989,19.836 -4.989,19.836 l 11.362,0.462 12.06,-48.09 -0.55,-0.022 c -3.08,-1.34 -6.544,-2.087 -10.008,-2.835 z m -86.185,32.658 c -5.325,0.656 -10.987,0.719 -16.64,0.491 -5.476,-0.22 -10.767,-0.724 -15.865,-1.8 0.38,-0.855 9.6,-37.333 9.6,-37.333 l -10.953,-0.44 -11.827,46.818 0.353,0.015 c 2.986,0.7 6.493,1.712 9.833,2.426 5.273,1.083 10.388,1.58 16.218,1.814 5.476,0.22 11.138,0.159 16.64,-0.49 3.55,-0.438 7.286,-1.158 10.66,-1.602 l 0.353,0.014 2.81,-11.203 -0.53,-0.021 c -3.383,0.734 -6.757,1.178 -10.652,1.311 z m 365.955,-17.96 c -6.196,-0.822 -12.83,-1.356 -19.476,-1.587 a 228.943,228.943 0 0 0 -20.397,0.203 c -4.522,0.45 -8.83,0.907 -13.16,1.972 l -0.214,-0.01 -3.41,11.723 0.858,0.03 c 3.89,-0.776 8.199,-1.234 12.936,-1.676 4.308,-0.458 8.606,-0.612 13.322,-0.449 -0.246,0.902 -11.895,39.969 -11.895,39.969 l 13.29,0.461 c 0,0 11.66,-39.369 11.896,-39.968 4.501,0.156 8.778,0.608 13.045,1.364 4.48,0.763 8.318,1.503 11.717,2.532 l 0.429,0.015 3.409,-11.723 -0.215,-0.01 c -4.031,-1.355 -7.869,-2.096 -12.135,-2.85 z M 626.07,1196.1 c -6.037,-0.815 -12.732,-1.35 -19.438,-1.58 -7.14,-0.245 -13.64,-0.165 -20.8,0.195 -4.347,0.458 -8.911,0.908 -13.063,1.98 l -0.433,-0.015 -8.13,28.26 52.783,1.816 c -0.465,0.895 -1.963,6.612 -2.19,6.908 -6.522,0.687 -13.238,0.76 -20.16,0.521 -7.14,-0.245 -13.835,-0.78 -19.86,-1.897 -4.1,-0.445 -8.406,-1.2 -11.835,-2.23 l -0.433,-0.014 -3.44,11.723 0.65,0.022 c 3.44,0.726 7.734,1.784 11.823,2.532 6.242,1.126 12.937,1.66 19.86,1.898 6.706,0.23 13.64,0.165 20.377,-0.514 4.564,-0.45 8.922,-1.21 13.27,-1.668 l 0.216,0.01 8.347,-28.253 -52.784,-1.816 c 0.248,-0.902 2.18,-6.604 2.2,-7.21 6.295,-0.391 13.444,-0.449 20.15,-0.218 6.923,0.238 13.619,0.772 19.655,1.587 4.521,0.763 8.394,1.503 12.04,2.54 l 0.216,0.01 3.44,-11.723 -0.216,-0.01 c -3.851,-1.347 -7.724,-2.088 -12.246,-2.85 z m -99.095,14.105 c -4.842,0.443 -8.577,0.62 -13.397,0.456 0.032,-0.91 1.026,-4.216 1.026,-4.216 l -13.365,-0.453 c 0,0 -1.234,3.905 -1.245,4.208 -4.163,-0.141 -9.63,-0.63 -12.894,-1.349 0.251,-0.902 5.472,-18.335 5.472,-18.335 l -13.584,-0.461 -8.432,27.646 0.197,0.614 c 3.923,0.74 7.834,1.785 12.425,2.244 3.692,1.036 8.94,1.518 13.321,1.667 -0.48,1.198 -6.433,20.731 -6.433,20.731 l 13.583,0.461 c 0,0 5.975,-20.14 6.434,-20.73 5.04,0.17 9.651,0.024 14.722,-0.715 4.393,-0.155 8.15,-0.937 12.553,-1.396 l 0.24,-0.599 8.213,-27.654 -13.364,-0.454 c 0,0 -5.45,17.729 -5.472,18.335 z m 660.069,3.37 c -7.121,-0.815 -15.02,-1.349 -23.443,-1.595 a 307.836,307.836 0 0 0 -23.263,0.233 c 0.267,-0.296 0.572,-1.502 0.572,-1.502 l -15.824,-0.461 -18.245,52.297 15.824,0.462 c 0,0 13.321,-38.171 13.346,-38.778 7.682,-0.383 15.606,-0.456 23.774,-0.218 8.422,0.246 15.811,0.765 22.69,1.27 -0.305,1.205 -13.359,39.08 -13.359,39.08 l 15.824,0.461 16.808,-48.392 -0.766,-0.023 c -4.033,-1.332 -8.603,-2.072 -13.937,-2.835 v 10e-4 z m 163.606,6.467 c -4.444,-1.347 -8.912,-2.087 -13.629,-2.835 a 285.517,285.517 0 0 0 -22.922,-1.594 298.79,298.79 0 0 0 -23.495,0.21 c -5.515,0.442 -10.78,0.892 -15.57,1.964 l -4.218,11.716 0.749,0.022 c 4.528,-0.776 9.794,-1.227 15.308,-1.669 7.511,-0.383 15.26,-0.456 23.245,-0.217 7.986,0.238 15.46,0.764 22.436,1.276 -0.299,1.205 -2.526,6.908 -2.55,7.515 l -46.418,-1.385 -3.956,11.42 46.417,1.384 c -0.286,0.902 -2.264,6.612 -2.526,6.907 -7.523,0.687 -15.271,0.76 -23.257,0.521 -7.986,-0.238 -15.46,-0.764 -22.91,-1.897 -4.73,-0.445 -9.447,-1.193 -13.653,-2.23 l -0.25,-0.01 -3.968,11.723 0.499,0.015 c 4.218,0.733 8.923,1.785 13.89,2.54 7.2,1.125 14.675,1.652 22.66,1.89 7.737,0.231 15.735,0.166 23.508,-0.513 5.265,-0.45 10.542,-1.204 15.308,-1.67 l 0.25,0.01 15.55,-45.079 z m -434.795,-12.109 c -6.848,-0.822 -13.944,-1.349 -21.526,-1.587 a 273.856,273.856 0 0 0 -22.306,0.21 c -4.999,0.45 -9.997,0.9 -14.546,1.972 l -0.237,-0.01 -4.004,11.715 0.71,0.022 c 4.537,-0.768 9.299,-1.226 14.535,-1.668 4.524,-0.465 9.748,-0.605 14.724,-0.449 -0.509,0.895 -12.91,39.976 -12.91,39.976 l 14.69,0.461 c 0,0 12.887,-39.369 12.91,-39.976 5.212,0.164 9.94,0.616 14.655,1.371 4.478,0.749 8.957,1.496 12.95,2.533 l 0.237,0.01 4.005,-11.715 -0.711,-0.023 c -3.982,-1.338 -8.46,-2.087 -13.176,-2.842 z m 30.403,52.439 13.012,0.454 15.239,-51.994 -13.013,-0.454 z M 278.551,1198.97 c -4.79,0.708 -10.789,0.455 -17.847,0.157 l -14.47,-0.61 c 0.203,-0.902 1.778,-6.605 1.795,-7.211 5.135,-0.39 10.966,-0.448 16.436,-0.218 5.647,0.238 10.932,0.765 15.687,1.27 -0.387,1.197 -1.415,6.316 -1.6,6.611 z m 14.573,-15.478 c -3.142,-1.347 -6.3,-2.087 -9.989,-2.85 -4.924,-0.815 -10.385,-1.349 -15.855,-1.58 -5.47,-0.231 -11.84,0.108 -16.26,0.225 l -0.705,-0.03 c -3.194,0.473 -9.757,1.411 -13.656,1.854 l -2.797,11.42 c 1.076,-0.563 2.664,-0.496 2.84,-0.488 -0.21,1.206 -9.218,38.474 -9.218,38.474 l 10.94,0.462 c 0,0 4.828,-20.746 5.19,-21.035 l 14.469,0.61 c 22.586,0.953 28.856,-2.122 29.033,-2.115 l 0.353,0.015 5.831,-24.954 z"
       id="path73"
       inkscape:connector-curvature="0" />
  </g>
  <g
     id="g79"
     style="fill:#2b2828">
    <path
       d="m 792.51,1215.254 c 7.13,0.224 13.06,0.713 19.704,1.224 -0.046,1.214 -2.168,6.916 -2.19,7.522 l -40.407,-1.265 c 0.273,-0.902 2.394,-6.605 2.418,-7.21 7.628,-0.37 13.582,-0.486 20.475,-0.27 z m 24.197,-10.476 c -6.394,-0.807 -12.325,-1.297 -20.168,-1.542 -8.319,-0.261 -14.51,-0.151 -21.189,0.247 -5.014,0.45 -10.029,0.9 -14.591,1.972 l -0.238,-0.01 -15.64,48.09 14.498,0.454 c 0,0 6.458,-19.533 6.708,-19.83 l 40.168,1.259 c -0.284,1.205 -6.47,19.836 -6.47,19.836 l 14.737,0.461 15.64,-48.09 -0.475,-0.014 c -4.232,-1.347 -8.487,-2.087 -12.98,-2.835 z m -98.445,-0.632 c -6.195,-0.823 -12.83,-1.357 -19.476,-1.588 a 228.943,228.943 0 0 0 -20.396,0.203 c -4.523,0.45 -8.831,0.908 -13.16,1.972 l -0.215,-0.01 -3.409,11.723 0.858,0.03 c 3.89,-0.776 8.198,-1.234 12.935,-1.677 4.308,-0.457 8.606,-0.612 13.322,-0.448 -0.246,0.902 -11.895,39.968 -11.895,39.968 l 13.291,0.462 c 0,0 11.66,-39.37 11.895,-39.969 4.502,0.157 8.779,0.609 13.045,1.364 4.48,0.763 8.319,1.503 11.717,2.532 l 0.429,0.015 3.409,-11.723 -0.215,-0.01 c -4.03,-1.355 -7.868,-2.095 -12.135,-2.85 z M 626.07,1196.1 c -6.037,-0.815 -12.732,-1.349 -19.438,-1.58 -7.14,-0.245 -13.64,-0.165 -20.8,0.196 -4.347,0.457 -8.91,0.908 -13.063,1.98 l -0.433,-0.016 -8.13,28.26 52.783,1.817 c -0.464,0.895 -1.963,6.612 -2.19,6.908 -6.521,0.686 -13.238,0.759 -20.16,0.52 -7.139,-0.245 -13.834,-0.779 -19.86,-1.897 -4.1,-0.445 -8.405,-1.2 -11.835,-2.229 l -0.432,-0.015 -3.44,11.723 0.648,0.022 c 3.44,0.726 7.735,1.785 11.825,2.532 6.241,1.126 12.937,1.66 19.86,1.898 6.706,0.231 13.638,0.166 20.376,-0.513 4.564,-0.45 8.923,-1.211 13.27,-1.669 l 0.216,0.01 8.348,-28.253 -52.784,-1.816 c 0.248,-0.903 2.179,-6.605 2.2,-7.211 6.294,-0.39 13.444,-0.449 20.15,-0.218 6.922,0.238 13.618,0.772 19.654,1.587 4.522,0.763 8.394,1.503 12.04,2.54 l 0.217,0.01 3.44,-11.723 -0.216,-0.01 c -3.852,-1.347 -7.725,-2.088 -12.246,-2.851 z m -99.095,14.106 c -4.841,0.442 -8.576,0.62 -13.396,0.456 0.032,-0.91 1.026,-4.216 1.026,-4.216 l -13.365,-0.454 c 0,0 -1.235,3.905 -1.245,4.208 -4.163,-0.14 -9.63,-0.63 -12.895,-1.348 0.251,-0.903 5.472,-18.335 5.472,-18.335 l -13.584,-0.462 -8.432,27.647 0.198,0.614 c 3.922,0.74 7.834,1.784 12.424,2.244 3.692,1.036 8.94,1.518 13.322,1.667 -0.481,1.198 -6.434,20.73 -6.434,20.73 l 13.584,0.462 c 0,0 5.974,-20.14 6.434,-20.731 5.039,0.17 9.65,0.024 14.721,-0.715 4.393,-0.154 8.15,-0.937 12.553,-1.395 l 0.24,-0.6 8.214,-27.653 -13.365,-0.454 c 0,0 -5.45,17.728 -5.472,18.335 z"
       id="path77"
       inkscape:connector-curvature="0" />
  </g>
  <path
     d="m 1203.035,1253.964 c -0.176,-0.01 -0.344,-0.318 -1.05,-0.348 l -0.706,-0.03 -0.086,3.033 1.588,0.067 c 0.362,-0.288 0.723,-0.577 0.75,-1.486 0.01,-0.303 -0.328,-0.925 -0.496,-1.236 z m -0.848,-1.25 1.412,0.06 c 0.336,0.62 0.671,1.243 0.637,2.455 -0.026,0.91 -0.035,1.214 -0.573,1.494 -0.01,0.304 -0.538,0.281 -0.714,0.274 0.512,0.629 0.689,0.636 0.848,1.25 0.335,0.622 0.327,0.925 0.318,1.228 l -0.06,2.123 -0.706,-0.03 0.035,-1.213 c 0.034,-1.213 -0.293,-2.138 -0.47,-2.145 -0.167,-0.311 -0.697,-0.333 -1.05,-0.348 l -0.705,-0.03 -0.104,3.64 -0.882,-0.038 0.25,-8.794 z m -2.806,-0.725 c -0.572,1.493 -1.145,2.987 -1.196,4.807 -0.06,2.123 0.426,3.661 0.92,4.897 0.672,1.243 1.89,1.901 2.772,1.938 1.06,0.045 2.135,-0.517 3.052,-1.693 0.74,-1.183 1.136,-2.684 1.196,-4.807 0.052,-1.82 -0.258,-3.35 -0.92,-4.897 -0.849,-1.25 -1.882,-2.204 -2.94,-2.25 -0.883,-0.036 -1.79,0.836 -2.884,2.005 z m 5.883,10.57 c -0.933,1.783 -2.01,2.345 -3.421,2.285 -1.235,-0.052 -2.277,-0.703 -3.107,-2.56 -0.84,-1.553 -1.317,-3.395 -1.257,-5.518 0.06,-2.123 0.65,-4.223 1.575,-5.702 0.917,-1.176 1.993,-1.738 3.228,-1.686 1.412,0.06 2.453,0.71 3.3,1.961 0.84,1.554 1.31,3.699 1.249,5.822 -0.061,2.123 -0.641,3.92 -1.567,5.399 z"
     id="path81"
     inkscape:connector-curvature="0"
     style="fill:#2b2828" />
  <path
     d="m 1465.125,0 6.146,0.33 v 2662.769 h -6.146 z"
     id="path83"
     inkscape:connector-curvature="0"
     style="opacity:0.731;enable-background:new" />
  <path
     d="m 1907.741,161.058 10.838,3.986 v 6.285 l -11.074,-4.073 z"
     id="path85"
     inkscape:connector-curvature="0"
     style="fill:#90f05a;stroke:#24c200;stroke-width:0.68800002" />
  <path
     d="m 1907.741,187.106 10.838,3.987 v 6.285 l -11.074,-4.073 0.236,-6.198 z"
     id="path87"
     inkscape:connector-curvature="0"
     style="fill:#1a15ff;stroke:#0016c2;stroke-width:0.68800002" />
  <linearGradient
     id="d"
     gradientUnits="userSpaceOnUse"
     x1="2149.0601"
     y1="1327.233"
     x2="3104.3799"
     y2="1327.233"
     gradientTransform="matrix(0,-2.7902,-2.7902,0,5199.666,8659.45)">
    <stop
       offset="0"
       stop-color="#a5a5a5"
       id="stop89" />
    <stop
       offset="1"
       stop-color="#f7f7f7"
       id="stop91" />
  </linearGradient>
  <path
     d="m 1470.617,2663.099 h 51.552 V 6.173 l -50.897,-5.843 -0.655,2662.766 z"
     id="path94"
     inkscape:connector-curvature="0"
     style="fill:url(#d);enable-background:new" />
  <linearGradient
     id="e"
     gradientUnits="userSpaceOnUse"
     x1="1709.7629"
     y1="2663.3511"
     x2="1709.7629"
     y2="1323.116">
    <stop
       offset="0"
       stop-color="#121212"
       id="stop96" />
    <stop
       offset="1"
       stop-color="#313131"
       id="stop98" />
  </linearGradient>
  <path
     d="m 1522.169,1326.297 375.189,-3.181 V 2649.98 c -60.447,4.819 -126.846,8.674 -192.668,10.726 -61.765,1.925 -125.346,3.214 -182.521,2.393 z"
     id="path101"
     inkscape:connector-curvature="0"
     style="fill:url(#e)" />
  <path
     d="m 1522.169,1326.297 375.188,-3.181 -253.743,-7.859 z"
     id="path103"
     inkscape:connector-curvature="0" />
  <path
     d="m 1191.19,9.625 c -174.749,6.79 -325.839,13.995 -456,21.221 v 2571.631 c 171.183,24.351 330.303,38.971 456,47.726 z"
     id="path105"
     inkscape:connector-curvature="0"
     style="fill:#050505" />
  <g
     id="g109"
     style="fill:#2b2828">
    <path
       d="m 792.51,1215.254 c 7.13,0.223 13.06,0.712 19.704,1.224 -0.046,1.213 -2.168,6.915 -2.191,7.522 l -40.406,-1.265 c 0.272,-0.903 2.394,-6.605 2.417,-7.211 7.629,-0.369 13.583,-0.486 20.476,-0.27 z m 24.197,-10.476 c -6.395,-0.808 -12.325,-1.297 -20.169,-1.543 -8.318,-0.26 -14.51,-0.15 -21.188,0.247 -5.015,0.45 -10.03,0.901 -14.591,1.973 l -0.238,-0.01 -15.64,48.09 14.498,0.453 c 0,0 6.458,-19.532 6.707,-19.829 l 40.168,1.258 c -0.284,1.206 -6.47,19.837 -6.47,19.837 l 14.737,0.46 15.64,-48.089 -0.475,-0.014 c -4.231,-1.347 -8.487,-2.088 -12.98,-2.835 z m 244.46,42.997 c -7.322,0.687 -15.107,0.752 -22.638,0.521 -7.53,-0.23 -15.048,-0.765 -21.571,-1.875 0.278,-0.902 8.513,-24.94 8.537,-25.546 7.068,-0.39 14.61,-0.463 22.626,-0.218 7.53,0.23 15.049,0.765 21.596,1.27 -0.534,1.197 -8.538,25.545 -8.55,25.848 z m 11.512,10.372 0.243,0.01 14.894,-45.087 -0.485,-0.015 c -4.083,-1.34 -8.674,-2.087 -13.509,-2.843 -6.777,-0.814 -14.296,-1.349 -22.069,-1.587 -7.53,-0.23 -15.558,-0.173 -23.112,0.203 -4.882,0.457 -10.007,0.908 -14.669,1.98 l -0.486,-0.015 -14.894,45.086 0.728,0.022 c 4.106,0.733 8.686,1.785 13.278,2.532 7.008,1.126 14.527,1.66 22.3,1.898 7.53,0.23 15.315,0.166 22.88,-0.514 5.125,-0.45 10.02,-1.21 14.901,-1.668 z m -652.477,-58.21 c 5.315,0.216 9.52,0.69 15.01,1.217 -0.22,1.206 -1.672,6.916 -1.874,7.515 l -30.97,-1.258 c 0.21,-0.903 1.663,-6.612 1.864,-7.212 5.699,-0.376 10.473,-0.485 15.97,-0.262 z m 18.29,-10.49 c -4.747,-0.8 -9.32,-1.29 -15.733,-1.55 -6.048,-0.246 -10.821,-0.136 -15.97,0.262 -3.867,0.45 -7.733,0.9 -11.25,1.972 l -0.184,-0.01 -12.059,48.09 11.362,0.461 c 0,0 4.796,-19.54 4.805,-19.843 l 31.154,1.265 c -0.403,1.198 -4.989,19.836 -4.989,19.836 l 11.362,0.462 12.06,-48.09 -0.55,-0.022 c -3.08,-1.34 -6.544,-2.087 -10.008,-2.835 z m -86.185,32.658 c -5.325,0.656 -10.987,0.719 -16.64,0.491 -5.476,-0.22 -10.767,-0.724 -15.865,-1.8 0.38,-0.855 9.6,-37.333 9.6,-37.333 l -10.953,-0.44 -11.827,46.818 0.353,0.015 c 2.986,0.7 6.493,1.712 9.833,2.426 5.273,1.083 10.388,1.58 16.218,1.814 5.476,0.22 11.138,0.159 16.64,-0.49 3.55,-0.438 7.286,-1.158 10.66,-1.602 l 0.353,0.014 2.81,-11.203 -0.53,-0.021 c -3.383,0.734 -6.757,1.178 -10.652,1.311 z m 365.955,-17.96 c -6.196,-0.822 -12.83,-1.356 -19.476,-1.587 a 228.943,228.943 0 0 0 -20.397,0.203 c -4.522,0.45 -8.83,0.907 -13.16,1.972 l -0.214,-0.01 -3.41,11.723 0.858,0.03 c 3.89,-0.776 8.199,-1.234 12.936,-1.676 4.308,-0.458 8.606,-0.612 13.322,-0.449 -0.246,0.902 -11.895,39.969 -11.895,39.969 l 13.29,0.461 c 0,0 11.66,-39.369 11.896,-39.968 4.501,0.156 8.778,0.608 13.045,1.364 4.48,0.763 8.318,1.503 11.717,2.532 l 0.429,0.015 3.409,-11.723 -0.215,-0.01 c -4.031,-1.355 -7.869,-2.096 -12.135,-2.85 z M 626.07,1196.1 c -6.037,-0.815 -12.732,-1.35 -19.438,-1.58 -7.14,-0.245 -13.64,-0.165 -20.8,0.195 -4.347,0.458 -8.911,0.908 -13.063,1.98 l -0.433,-0.015 -8.13,28.26 52.783,1.816 c -0.465,0.895 -1.963,6.612 -2.19,6.908 -6.522,0.687 -13.238,0.76 -20.16,0.521 -7.14,-0.245 -13.835,-0.78 -19.86,-1.897 -4.1,-0.445 -8.406,-1.2 -11.835,-2.23 l -0.433,-0.014 -3.44,11.723 0.65,0.022 c 3.44,0.726 7.734,1.784 11.823,2.532 6.242,1.126 12.937,1.66 19.86,1.898 6.706,0.23 13.64,0.165 20.377,-0.514 4.564,-0.45 8.922,-1.21 13.27,-1.668 l 0.216,0.01 8.347,-28.253 -52.784,-1.816 c 0.248,-0.902 2.18,-6.604 2.2,-7.21 6.295,-0.391 13.444,-0.449 20.15,-0.218 6.923,0.238 13.619,0.772 19.655,1.587 4.521,0.763 8.394,1.503 12.04,2.54 l 0.216,0.01 3.44,-11.723 -0.216,-0.01 c -3.851,-1.347 -7.724,-2.088 -12.246,-2.85 z m -99.095,14.105 c -4.842,0.443 -8.577,0.62 -13.397,0.456 0.032,-0.91 1.026,-4.216 1.026,-4.216 l -13.365,-0.453 c 0,0 -1.234,3.905 -1.245,4.208 -4.163,-0.141 -9.63,-0.63 -12.894,-1.349 0.251,-0.902 5.472,-18.335 5.472,-18.335 l -13.584,-0.461 -8.432,27.646 0.197,0.614 c 3.923,0.74 7.834,1.785 12.425,2.244 3.692,1.036 8.94,1.518 13.321,1.667 -0.48,1.198 -6.433,20.731 -6.433,20.731 l 13.583,0.461 c 0,0 5.975,-20.14 6.434,-20.73 5.04,0.17 9.651,0.024 14.722,-0.715 4.393,-0.155 8.15,-0.937 12.553,-1.396 l 0.24,-0.599 8.213,-27.654 -13.364,-0.454 c 0,0 -5.45,17.729 -5.472,18.335 z m 660.069,3.37 c -7.121,-0.815 -15.02,-1.349 -23.443,-1.595 a 307.836,307.836 0 0 0 -23.263,0.233 c 0.267,-0.296 0.572,-1.502 0.572,-1.502 l -15.824,-0.461 -18.245,52.297 15.824,0.462 c 0,0 13.321,-38.171 13.346,-38.778 7.682,-0.383 15.606,-0.456 23.774,-0.218 8.422,0.246 15.811,0.765 22.69,1.27 -0.305,1.205 -13.359,39.08 -13.359,39.08 l 15.824,0.461 16.808,-48.392 -0.766,-0.023 c -4.033,-1.332 -8.603,-2.072 -13.937,-2.835 v 10e-4 z m 163.606,6.467 c -4.444,-1.347 -8.912,-2.087 -13.629,-2.835 a 285.517,285.517 0 0 0 -22.922,-1.594 298.79,298.79 0 0 0 -23.495,0.21 c -5.515,0.442 -10.78,0.892 -15.57,1.964 l -4.218,11.716 0.749,0.022 c 4.528,-0.776 9.794,-1.227 15.308,-1.669 7.511,-0.383 15.26,-0.456 23.245,-0.217 7.986,0.238 15.46,0.764 22.436,1.276 -0.299,1.205 -2.526,6.908 -2.55,7.515 l -46.418,-1.385 -3.956,11.42 46.417,1.384 c -0.286,0.902 -2.264,6.612 -2.526,6.907 -7.523,0.687 -15.271,0.76 -23.257,0.521 -7.986,-0.238 -15.46,-0.764 -22.91,-1.897 -4.73,-0.445 -9.447,-1.193 -13.653,-2.23 l -0.25,-0.01 -3.968,11.723 0.499,0.015 c 4.218,0.733 8.923,1.785 13.89,2.54 7.2,1.125 14.675,1.652 22.66,1.89 7.737,0.231 15.735,0.166 23.508,-0.513 5.265,-0.45 10.542,-1.204 15.308,-1.67 l 0.25,0.01 15.55,-45.079 z m -434.795,-12.109 c -6.848,-0.822 -13.944,-1.349 -21.526,-1.587 a 273.856,273.856 0 0 0 -22.306,0.21 c -4.999,0.45 -9.997,0.9 -14.546,1.972 l -0.237,-0.01 -4.004,11.715 0.71,0.022 c 4.537,-0.768 9.299,-1.226 14.535,-1.668 4.524,-0.465 9.748,-0.605 14.724,-0.449 -0.509,0.895 -12.91,39.976 -12.91,39.976 l 14.69,0.461 c 0,0 12.887,-39.369 12.91,-39.976 5.212,0.164 9.94,0.616 14.655,1.371 4.478,0.749 8.957,1.496 12.95,2.533 l 0.237,0.01 4.005,-11.715 -0.711,-0.023 c -3.982,-1.338 -8.46,-2.087 -13.176,-2.842 z m 30.403,52.439 13.012,0.454 15.239,-51.994 -13.013,-0.454 z M 278.551,1198.97 c -4.79,0.708 -10.789,0.455 -17.847,0.157 l -14.47,-0.61 c 0.203,-0.902 1.778,-6.605 1.795,-7.211 5.135,-0.39 10.966,-0.448 16.436,-0.218 5.647,0.238 10.932,0.765 15.687,1.27 -0.387,1.197 -1.415,6.316 -1.6,6.611 z m 14.573,-15.478 c -3.142,-1.347 -6.3,-2.087 -9.989,-2.85 -4.924,-0.815 -10.385,-1.349 -15.855,-1.58 -5.47,-0.231 -11.84,0.108 -16.26,0.225 l -0.705,-0.03 c -3.194,0.473 -9.757,1.411 -13.656,1.854 l -2.797,11.42 c 1.076,-0.563 2.664,-0.496 2.84,-0.488 -0.21,1.206 -9.218,38.474 -9.218,38.474 l 10.94,0.462 c 0,0 4.828,-20.746 5.19,-21.035 l 14.469,0.61 c 22.586,0.953 28.856,-2.122 29.033,-2.115 l 0.353,0.015 5.831,-24.954 z"
       id="path107"
       inkscape:connector-curvature="0" />
  </g>
  <linearGradient
     id="f"
     gradientUnits="userSpaceOnUse"
     x1="1860.42"
     y1="1987.933"
     x2="1901.3149"
     y2="1987.933">
    <stop
       offset="0"
       stop-color="#212121"
       id="stop111" />
    <stop
       offset=".234"
       stop-color="#232323"
       id="stop113" />
    <stop
       offset=".319"
       stop-color="#2a2a2a"
       id="stop115" />
    <stop
       offset=".379"
       stop-color="#353535"
       id="stop117" />
    <stop
       offset=".427"
       stop-color="#464646"
       id="stop119" />
    <stop
       offset=".459"
       stop-color="#565656"
       id="stop121" />
    <stop
       offset=".55"
       stop-color="#4e4e4e"
       id="stop123" />
    <stop
       offset=".808"
       stop-color="#3d3d3d"
       id="stop125" />
    <stop
       offset="1"
       stop-color="#373737"
       id="stop127" />
  </linearGradient>
  <path
     d="m 1860.42,1323.43 v 1329.32 l 36.937,-2.77 3.958,-3.204 V 1323.239 l -3.958,-0.123 z"
     id="path130"
     inkscape:connector-curvature="0"
     style="fill:url(#f)" />
  <g
     id="g155">
    <path
       d="m 1894.633,1963.827 c 0.14,4.922 -2.541,9.073 -5.987,9.273 -3.447,0.2 -6.354,-3.628 -6.494,-8.549 a 12.483,12.483 0 0 1 0,-0.724 c -0.14,-4.921 2.54,-9.073 5.987,-9.273 3.447,-0.2 6.354,3.628 6.495,8.549 0.01,0.241 0.01,0.483 -10e-4,0.724 z m 0,30.718 c 0.14,4.922 -2.541,9.073 -5.987,9.273 -3.447,0.2 -6.354,-3.628 -6.494,-8.549 a 12.483,12.483 0 0 1 0,-0.724 c -0.14,-4.921 2.54,-9.073 5.987,-9.273 3.447,-0.2 6.354,3.628 6.495,8.549 0.01,0.241 0.01,0.483 -10e-4,0.724 z m 0,30.718 c 0.14,4.922 -2.541,9.073 -5.987,9.273 -3.447,0.2 -6.354,-3.628 -6.494,-8.549 a 12.483,12.483 0 0 1 0,-0.724 c -0.14,-4.921 2.54,-9.073 5.987,-9.273 3.447,-0.2 6.354,3.628 6.495,8.549 0.01,0.242 0.01,0.483 -10e-4,0.724 z"
       id="path132"
       inkscape:connector-curvature="0"
       style="fill:#131313" />
    <radialGradient
       id="g"
       cx="914.28198"
       cy="1416.885"
       r="0.78399998"
       gradientTransform="matrix(5.1197,0,0,-9.6705,-2791.985,15663.577)"
       gradientUnits="userSpaceOnUse">
      <stop
         offset="0"
         stop-color="#fff"
         id="stop134" />
      <stop
         offset="1"
         stop-color="#fff"
         stop-opacity="0"
         id="stop136" />
    </radialGradient>
    <path
       d="m 1892.849,1961.596 c 0.08,4.182 -1.652,7.694 -3.867,7.845 -2.215,0.151 -4.076,-3.118 -4.156,-7.3 a 16.503,16.503 0 0 1 0,-0.545 c -0.08,-4.182 1.652,-7.694 3.867,-7.845 2.215,-0.15 4.076,3.118 4.156,7.3 0,0.182 0,0.364 0,0.545 z"
       id="path139"
       inkscape:connector-curvature="0"
       style="opacity:0.56099997;fill:url(#g);enable-background:new" />
    <radialGradient
       id="h"
       cx="914.28198"
       cy="1416.885"
       r="0.78399998"
       gradientTransform="matrix(5.1197,0,0,-9.6705,-2791.985,15694.294)"
       gradientUnits="userSpaceOnUse">
      <stop
         offset="0"
         stop-color="#fff"
         id="stop141" />
      <stop
         offset="1"
         stop-color="#fff"
         stop-opacity="0"
         id="stop143" />
    </radialGradient>
    <path
       d="m 1892.849,1992.313 c 0.08,4.182 -1.652,7.694 -3.867,7.845 -2.215,0.15 -4.076,-3.118 -4.156,-7.3 a 16.503,16.503 0 0 1 0,-0.545 c -0.08,-4.182 1.652,-7.694 3.867,-7.845 2.215,-0.151 4.076,3.118 4.156,7.3 0,0.182 0,0.364 0,0.545 z"
       id="path146"
       inkscape:connector-curvature="0"
       style="opacity:0.56099997;fill:url(#h);enable-background:new" />
    <radialGradient
       id="i"
       cx="914.28198"
       cy="1416.885"
       r="0.78399998"
       gradientTransform="matrix(5.1197,0,0,-9.6705,-2791.985,15725.013)"
       gradientUnits="userSpaceOnUse">
      <stop
         offset="0"
         stop-color="#fff"
         id="stop148" />
      <stop
         offset="1"
         stop-color="#fff"
         stop-opacity="0"
         id="stop150" />
    </radialGradient>
    <path
       d="m 1892.849,2023.032 c 0.08,4.182 -1.652,7.694 -3.867,7.845 -2.215,0.15 -4.076,-3.118 -4.156,-7.3 a 16.503,16.503 0 0 1 0,-0.545 c -0.08,-4.182 1.652,-7.694 3.867,-7.845 2.215,-0.151 4.076,3.118 4.156,7.3 0,0.181 0,0.363 0,0.545 z"
       id="path153"
       inkscape:connector-curvature="0"
       style="opacity:0.56099997;fill:url(#i);enable-background:new" />
  </g>
  <linearGradient
     id="j"
     gradientUnits="userSpaceOnUse"
     x1="1858.9399"
     y1="2653.658"
     x2="1858.9399"
     y2="1323.342">
    <stop
       offset="0"
       stop-color="#121212"
       id="stop157" />
    <stop
       offset="1"
       stop-color="#313131"
       id="stop159" />
  </linearGradient>
  <path
     d="m 1847.19,1323.542 23.5,-0.2 V 2651.98 l -23.5,1.678 z"
     id="path162"
     inkscape:connector-curvature="0"
     style="fill:url(#j)" />
</svg>
