<?xml version="1.0" encoding="UTF-8" standalone="no"?>
<svg
   xmlns:dc="http://purl.org/dc/elements/1.1/"
   xmlns:cc="http://creativecommons.org/ns#"
   xmlns:rdf="http://www.w3.org/1999/02/22-rdf-syntax-ns#"
   xmlns:svg="http://www.w3.org/2000/svg"
   xmlns="http://www.w3.org/2000/svg"
   xmlns:sodipodi="http://sodipodi.sourceforge.net/DTD/sodipodi-0.dtd"
   xmlns:inkscape="http://www.inkscape.org/namespaces/inkscape"
   viewBox="0 0 149.621 241.3558"
   version="1.1"
   id="svg675"
   sodipodi:docname="controller.svg"
   width="149.621"
   height="241.3558"
   inkscape:version="0.92.4 5da689c313, 2019-01-14">
  <metadata
     id="metadata681">
    <rdf:RDF>
      <cc:Work
         rdf:about="">
        <dc:format>image/svg+xml</dc:format>
        <dc:type
           rdf:resource="http://purl.org/dc/dcmitype/StillImage" />
      </cc:Work>
    </rdf:RDF>
  </metadata>
  <defs
     id="defs679" />
  <sodipodi:namedview
     pagecolor="#ffffff"
     bordercolor="#666666"
     borderopacity="1"
     objecttolerance="10"
     gridtolerance="10"
     guidetolerance="10"
     inkscape:pageopacity="0"
     inkscape:pageshadow="2"
     inkscape:window-width="471"
     inkscape:window-height="442"
     id="namedview677"
     showgrid="false"
     inkscape:zoom="0.9778087"
     inkscape:cx="74.810501"
     inkscape:cy="120.67787"
     inkscape:window-x="0"
     inkscape:window-y="0"
     inkscape:window-maximized="0"
     inkscape:current-layer="svg675">
    <inkscape:grid
       type="xygrid"
       id="grid683"
       originx="0"
       originy="-0.00013284375" />
  </sodipodi:namedview>
  <linearGradient
     id="a"
     gradientUnits="userSpaceOnUse"
     x1="-46.367001"
     y1="195.98801"
     x2="-45.367001"
     y2="195.98801"
     gradientTransform="matrix(-78.6875,0,0,-78.6875,-3522.178,15542.512)">
    <stop
       offset="0"
       stop-color="#1a1a1a"
       id="stop2" />
    <stop
       offset=".541"
       stop-color="#25272c"
       id="stop4" />
    <stop
       offset="1"
       stop-color="#30353e"
       id="stop6" />
  </linearGradient>
  <path
     d="m 51.584,132.07193 v -23.477 a 23.957,23.957 0 0 1 -3.912,-1.379 v 26.234 a 24.047,24.047 0 0 1 3.912,-1.378 m 74.775,39.81 v -43.128 a 1.575,1.575 0 0 1 -0.75,-1.344 v -14.312 c 0,-0.564 0.303,-1.04 0.75,-1.313 V 69.451931 a 38.055,38.055 0 0 1 -6.291,7.461 v 87.506999 a 38.061,38.061 0 0 1 6.291,7.462"
     id="path9"
     inkscape:connector-curvature="0"
     style="fill:url(#a)" />
  <linearGradient
     id="b"
     gradientUnits="userSpaceOnUse"
     x1="-46.367001"
     y1="195.98801"
     x2="-45.367001"
     y2="195.98801"
     gradientTransform="matrix(-68.4843,0,0,-68.4843,-3055.374,13542.812)">
    <stop
       offset="0"
       stop-color="#282828"
       id="stop11" />
    <stop
       offset="0"
       stop-color="#282828"
       id="stop13" />
    <stop
       offset="0"
       stop-color="#282828"
       id="stop15" />
    <stop
       offset=".004"
       stop-color="#404649"
       id="stop17" />
    <stop
       offset=".007"
       stop-color="#525b61"
       id="stop19" />
    <stop
       offset=".01"
       stop-color="#5c686f"
       id="stop21" />
    <stop
       offset=".013"
       stop-color="#606c74"
       id="stop23" />
    <stop
       offset=".021"
       stop-color="#505a63"
       id="stop25" />
    <stop
       offset=".032"
       stop-color="#424952"
       id="stop27" />
    <stop
       offset=".045"
       stop-color="#383e47"
       id="stop29" />
    <stop
       offset=".064"
       stop-color="#323740"
       id="stop31" />
    <stop
       offset=".117"
       stop-color="#30353e"
       id="stop33" />
    <stop
       offset=".884"
       stop-color="#1a1a1a"
       id="stop35" />
    <stop
       offset=".937"
       stop-color="#1b1c1c"
       id="stop37" />
    <stop
       offset=".956"
       stop-color="#212223"
       id="stop39" />
    <stop
       offset=".97"
       stop-color="#2a2d2e"
       id="stop41" />
    <stop
       offset=".981"
       stop-color="#373c3f"
       id="stop43" />
    <stop
       offset=".991"
       stop-color="#485055"
       id="stop45" />
    <stop
       offset=".999"
       stop-color="#5d6870"
       id="stop47" />
    <stop
       offset="1"
       stop-color="#606c74"
       id="stop49" />
  </linearGradient>
  <path
     d="m 72.892,113.94993 0.244,-0.004 a 7.696,7.696 0 0 1 0,15.391 l -0.244,-0.004 -0.243,0.004 a 7.6955,7.6955 0 1 1 0,-15.391 l 0.243,0.004 m 47.176,50.47 V 76.912931 c -6.746,6.183 -15.737,9.957 -25.608,9.957 -4.499,0 -8.814,-0.784 -12.818,-2.222 0.006,0.217 0.008,0.436 0.008,0.653 0,13.284 -10.769,24.051999 -24.052,24.051999 a 24.09,24.09 0 0 1 -6.014,-0.758 v 23.477 a 24.09,24.09 0 0 1 6.014,-0.758 c 13.283,0 24.052,10.769 24.052,24.053 0,0.44 -0.008,0.891 -0.031,1.326 a 37.854,37.854 0 0 1 12.841,-2.23 c 9.872,0 18.863,3.774 25.608,9.957"
     id="path52"
     inkscape:connector-curvature="0"
     style="fill:url(#b)" />
  <radialGradient
     id="c"
     cx="-46.367001"
     cy="195.98801"
     r="1"
     gradientTransform="matrix(-39.0436,-20.8473,12.2791,-22.9967,-4164.975,3575.3859)"
     gradientUnits="userSpaceOnUse">
    <stop
       offset="0"
       stop-color="#30353e"
       id="stop54" />
    <stop
       offset="1"
       stop-color="#1a1a1a"
       id="stop56" />
  </radialGradient>
  <path
     d="M 103.872,12.098931 C 73.807,6.6089312 41.645,3.0279312 27.532,0.33393123 13.007,-2.4380688 0,12.536931 0,27.123931 c 0,7.645 3.571,15.184 12.369,20.007 11.236,6.161 24.26,12.806 33.241,17.313 a 23.936,23.936 0 0 1 11.987,-3.195 c 0.332,0 0.667,0.005 0.996,0.018 a 37.87,37.87 0 0 1 -2.042,-12.306 c 0,-20.936 16.972,-37.908 37.908,-37.908 3.216,0 6.34,0.401 9.323,1.155 l 0.09,-0.109"
     id="path59"
     inkscape:connector-curvature="0"
     style="fill:url(#c)" />
  <linearGradient
     id="d"
     gradientUnits="userSpaceOnUse"
     x1="-46.367001"
     y1="195.98801"
     x2="-45.367001"
     y2="195.98801"
     gradientTransform="matrix(-9.1504,0,0,-9.1504,-274.66,1984.6199)">
    <stop
       offset="0"
       stop-color="#23262a"
       id="stop61" />
    <stop
       offset="1"
       stop-color="#606c74"
       id="stop63" />
  </linearGradient>
  <path
     d="m 140.471,174.67393 v 33.15 l 4.271,-2.598 c 2.8,-1.704 4.879,-6.132 4.879,-13.978 0,-7.846 -2.079,-12.273 -4.879,-13.977 z"
     id="path66"
     inkscape:connector-curvature="0"
     style="fill:url(#d)" />
  <linearGradient
     id="e"
     gradientUnits="userSpaceOnUse"
     x1="-46.367001"
     y1="195.98801"
     x2="-45.367001"
     y2="195.98801"
     gradientTransform="matrix(-9.1504,0,0,-9.1504,-274.66,1842.2679)">
    <stop
       offset="0"
       stop-color="#23262a"
       id="stop68" />
    <stop
       offset="1"
       stop-color="#606c74"
       id="stop70" />
  </linearGradient>
  <path
     d="m 140.471,32.320931 v 33.15 l 4.271,-2.598 c 2.8,-1.703 4.879,-6.131 4.879,-13.977 0,-7.846 -2.079,-12.273 -4.879,-13.977 z"
     id="path73"
     inkscape:connector-curvature="0"
     style="fill:url(#e)" />
  <radialGradient
     id="f"
     cx="-46.367001"
     cy="195.98801"
     r="1"
     gradientTransform="matrix(0,17.4997,-17.4997,0,3563.682,860.31393)"
     gradientUnits="userSpaceOnUse">
    <stop
       offset="0"
       stop-color="#30353e"
       id="stop75" />
    <stop
       offset=".459"
       stop-color="#25272c"
       id="stop77" />
    <stop
       offset="1"
       stop-color="#1a1a1a"
       id="stop79" />
  </radialGradient>
  <path
     d="m 120.602,69.745931 c 10.98,-1.699 16.47,-2.483 20.522,-3.268 4.053,-0.785 6.144,-7.712 6.144,-17.582 0,-9.869 -2.091,-16.797 -6.144,-17.582 -4.052,-0.784 -9.542,-1.569 -20.522,-3.268"
     id="path82"
     inkscape:connector-curvature="0"
     style="fill:url(#f)" />
  <radialGradient
     id="g"
     cx="-46.367001"
     cy="195.98801"
     r="1"
     gradientTransform="matrix(0,17.4997,-17.4997,0,3563.683,1002.6669)"
     gradientUnits="userSpaceOnUse">
    <stop
       offset="0"
       stop-color="#30353e"
       id="stop84" />
    <stop
       offset=".459"
       stop-color="#25272c"
       id="stop86" />
    <stop
       offset="1"
       stop-color="#1a1a1a"
       id="stop88" />
  </radialGradient>
  <path
     d="m 120.602,212.09893 c 10.98,-1.699 16.47,-2.483 20.522,-3.268 4.053,-0.784 6.144,-7.713 6.144,-17.582 0,-9.869 -2.091,-16.797 -6.144,-17.582 -4.052,-0.784 -9.542,-1.568 -20.522,-3.268"
     id="path91"
     inkscape:connector-curvature="0"
     style="fill:url(#g)" />
  <radialGradient
     id="h"
     cx="-46.367001"
     cy="195.98801"
     r="1"
     gradientTransform="matrix(-32.5903,36.9664,-28.8708,-25.453,4230.167,6762.7349)"
     gradientUnits="userSpaceOnUse">
    <stop
       offset="0"
       stop-color="#444d56"
       id="stop93" />
    <stop
       offset=".294"
       stop-color="#30353e"
       id="stop95" />
    <stop
       offset=".601"
       stop-color="#23262a"
       id="stop97" />
    <stop
       offset="1"
       stop-color="#1a1a1a"
       id="stop99" />
  </radialGradient>
  <path
     d="m 39.035,85.300931 c 0,-10.251 8.311,-18.562 18.563,-18.562 10.251,0 18.562,8.311 18.562,18.562 0,10.251 -8.311,18.561999 -18.562,18.561999 -10.252,0 -18.563,-8.309999 -18.563,-18.561999 m 93.334,-36.34 c 0,-17.72 -12.157,-32.6 -28.586,-36.753 a 37.993,37.993 0 0 0 -9.323,-1.155 c -20.937,0 -37.908,16.972 -37.908,37.908 0,4.308 0.719,8.447 2.042,12.306 a 25.345,25.345 0 0 0 -0.996,-0.018 23.947,23.947 0 0 0 -11.987,3.195 c -7.211,4.153 -12.065,11.938 -12.065,20.857 0,9.745 5.795,18.135999 14.127,21.915999 a 23.99,23.99 0 0 0 9.926,2.137 c 13.283,0 24.052,-10.768999 24.052,-24.051999 a 23.6,23.6 0 0 0 -0.008,-0.653 37.852,37.852 0 0 0 12.818,2.222 c 9.872,0 18.863,-3.774 25.608,-9.957 a 38.084,38.084 0 0 0 6.291,-7.461 37.749,37.749 0 0 0 6.009,-20.492"
     id="path102"
     inkscape:connector-curvature="0"
     style="fill:url(#h)" />
  <radialGradient
     id="i"
     cx="-46.367001"
     cy="195.98801"
     r="1"
     gradientTransform="matrix(-39.0457,20.8485,-12.2798,-22.9979,648.18,5680.4299)"
     gradientUnits="userSpaceOnUse">
    <stop
       offset="0"
       stop-color="#30353e"
       id="stop104" />
    <stop
       offset="1"
       stop-color="#1a1a1a"
       id="stop106" />
  </radialGradient>
  <path
     d="m 103.872,229.23393 -0.089,-0.109 a 37.993,37.993 0 0 1 -9.323,1.155 c -20.937,0 -37.908,-16.973 -37.908,-37.908 0,-4.56 0.805,-8.931 2.28,-12.979 -0.405,0.02 -0.824,0.026 -1.234,0.026 a 23.927,23.927 0 0 1 -11.358,-2.846 c -8.995,4.509 -22.369,11.322 -33.87,17.629 -8.793,4.82 -12.362,12.373 -12.362,20.032 0,14.626 13.016,29.641 27.525,26.765 13.59,-2.693 46.274,-6.274 76.339,-11.765"
     id="path109"
     inkscape:connector-curvature="0"
     style="fill:url(#i)" />
  <linearGradient
     id="j"
     gradientUnits="userSpaceOnUse"
     x1="-46.367001"
     y1="195.98801"
     x2="-45.367001"
     y2="195.98801"
     gradientTransform="matrix(-6.6665,0,0,-6.6665,-215.176,1404.9959)">
    <stop
       offset="0"
       stop-color="#444d56"
       id="stop111" />
    <stop
       offset=".155"
       stop-color="#565e66"
       id="stop113" />
    <stop
       offset=".464"
       stop-color="#84898e"
       id="stop115" />
    <stop
       offset=".896"
       stop-color="#cdcecf"
       id="stop117" />
    <stop
       offset="1"
       stop-color="#e0e0e0"
       id="stop119" />
  </linearGradient>
  <path
     d="m 93.933,94.189931 v 8.496999 c 0,0.866 -0.702,1.568 -1.568,1.568 h -3.53 a 1.568,1.568 0 0 1 -1.568,-1.568 v -8.496999 c 0,-0.867 0.702,-1.569 1.568,-1.569 h 3.53 a 1.57,1.57 0 0 1 1.568,1.569 z"
     id="path122"
     inkscape:connector-curvature="0"
     style="fill:url(#j)" />
  <path
     d="m 93.933,94.189931 h -0.25 v 8.496999 a 1.32,1.32 0 0 1 -1.318,1.318 h -3.53 a 1.32,1.32 0 0 1 -1.318,-1.318 v -8.496999 a 1.32,1.32 0 0 1 1.318,-1.319 h 3.53 a 1.32,1.32 0 0 1 1.318,1.319 h 0.5 a 1.818,1.818 0 0 0 -1.818,-1.819 h -3.53 a 1.818,1.818 0 0 0 -1.818,1.819 v 8.496999 c 0,1.004 0.814,1.818 1.818,1.818 h 3.53 a 1.818,1.818 0 0 0 1.818,-1.818 v -8.496999 z"
     id="path124"
     inkscape:connector-curvature="0"
     style="fill:#232323" />
  <linearGradient
     id="k"
     gradientUnits="userSpaceOnUse"
     x1="-46.367001"
     y1="195.98801"
     x2="-45.367001"
     y2="195.98801"
     gradientTransform="matrix(-6.7853,0,0,-6.7853,-220.624,1471.1519)">
    <stop
       offset="0"
       stop-color="#444d56"
       id="stop126" />
    <stop
       offset=".155"
       stop-color="#565e66"
       id="stop128" />
    <stop
       offset=".464"
       stop-color="#84898e"
       id="stop130" />
    <stop
       offset=".896"
       stop-color="#cdcecf"
       id="stop132" />
    <stop
       offset="1"
       stop-color="#e0e0e0"
       id="stop134" />
  </linearGradient>
  <path
     d="m 90.599,146.34693 -3.333,-8.496 c -0.317,-0.81 0.7,-1.569 1.568,-1.569 h 3.53 c 0.869,0 1.886,0.76 1.568,1.569 z"
     id="path137"
     inkscape:connector-curvature="0"
     style="fill:url(#k)" />
  <path
     d="m 90.599,146.34693 0.233,-0.091 -3.333,-8.496 -0.042,-0.216 c -0.003,-0.231 0.156,-0.486 0.428,-0.687 0.269,-0.2 0.634,-0.328 0.95,-0.326 h 3.53 a 1.67,1.67 0 0 1 0.95,0.326 c 0.272,0.2 0.431,0.455 0.428,0.687 l -0.043,0.216 -3.333,8.495 0.232,0.092 0.233,-0.091 -0.233,0.091 0.233,0.092 3.333,-8.496 a 1.09,1.09 0 0 0 0.077,-0.398 c -0.003,-0.454 -0.28,-0.83 -0.632,-1.09 a 2.173,2.173 0 0 0 -1.246,-0.423 h -3.53 c -0.442,0.002 -0.89,0.162 -1.246,0.423 -0.352,0.26 -0.629,0.636 -0.632,1.09 0,0.131 0.025,0.267 0.077,0.397 l 3.566,9.09 0.233,-0.593 z"
     id="path139"
     inkscape:connector-curvature="0"
     style="fill:#232323" />
  <linearGradient
     id="l"
     gradientUnits="userSpaceOnUse"
     x1="-46.367001"
     y1="195.98801"
     x2="-45.367001"
     y2="195.98801"
     gradientTransform="matrix(0,56,-56,0,11070.3,2617.3589)">
    <stop
       offset="0"
       stop-color="#23262a"
       id="stop141" />
    <stop
       offset=".478"
       stop-color="#1a1a1a"
       id="stop143" />
    <stop
       offset=".738"
       stop-color="#1b1c1c"
       id="stop145" />
    <stop
       offset=".832"
       stop-color="#202123"
       id="stop147" />
    <stop
       offset=".899"
       stop-color="#282b2e"
       id="stop149" />
    <stop
       offset=".952"
       stop-color="#343a3f"
       id="stop151" />
    <stop
       offset=".998"
       stop-color="#434c55"
       id="stop153" />
    <stop
       offset="1"
       stop-color="#444d56"
       id="stop155" />
  </linearGradient>
  <path
     d="m 122.958,41.000931 a 2.782,2.782 0 0 0 -2.781,-2.781 h -14.656 v -14.687 c 0,-1.536 -1.246,-2.75 -2.781,-2.75 H 87.146 c -1.536,0 -2.781,1.214 -2.781,2.75 v 14.687 H 69.708 a 2.78,2.78 0 0 0 -2.781,2.781 v 15.594 c 0,1.536 1.245,2.75 2.781,2.75 h 14.656 v 14.688 c 0,1.536 1.246,2.75 2.781,2.75 h 15.594 c 1.536,0 2.781,-1.214 2.781,-2.75 v -14.688 h 14.656 c 1.536,0 2.781,-1.214 2.781,-2.75 v -15.594 z"
     id="path158"
     inkscape:connector-curvature="0"
     style="fill:url(#l)" />
  <radialGradient
     id="m"
     cx="-46.367001"
     cy="195.98801"
     r="1"
     gradientTransform="matrix(-34.0373,-35.8679,27.0802,-25.6982,-6802.68,3554.2439)"
     gradientUnits="userSpaceOnUse">
    <stop
       offset="0"
       stop-color="#444d56"
       id="stop160" />
    <stop
       offset=".294"
       stop-color="#30353e"
       id="stop162" />
    <stop
       offset=".601"
       stop-color="#23262a"
       id="stop164" />
    <stop
       offset="1"
       stop-color="#1a1a1a"
       id="stop166" />
  </radialGradient>
  <path
     d="m 39.035,155.36693 c 0,-10.252 8.311,-18.563 18.563,-18.563 10.251,0 18.562,8.311 18.562,18.563 0,10.251 -8.311,18.562 -18.562,18.562 -10.252,0 -18.563,-8.311 -18.563,-18.562 m 93.334,37.005 a 37.74,37.74 0 0 0 -6.009,-20.49 38.061,38.061 0 0 0 -6.291,-7.462 c -6.746,-6.183 -15.737,-9.957 -25.608,-9.957 -4.507,0 -8.831,0.787 -12.841,2.23 0.023,-0.436 0.031,-0.886 0.031,-1.326 0,-13.284 -10.769,-24.053 -24.052,-24.053 a 23.957,23.957 0 0 0 -9.926,2.137 c -8.332,3.779 -14.127,12.171 -14.127,21.916 0,9.175 5.139,17.151 12.694,21.206 a 23.942,23.942 0 0 0 11.358,2.846 c 0.41,0 0.829,-0.007 1.234,-0.026 a 37.82,37.82 0 0 0 -2.28,12.979 c 0,20.936 16.972,37.908 37.908,37.908 3.216,0 6.341,-0.401 9.323,-1.155 16.429,-4.153 28.586,-19.033 28.586,-36.753"
     id="path169"
     inkscape:connector-curvature="0"
     style="fill:url(#m)" />
  <linearGradient
     id="n"
     gradientUnits="userSpaceOnUse"
     x1="-46.367001"
     y1="195.98801"
     x2="-45.367001"
     y2="195.98801"
     gradientTransform="matrix(3.5938,0,0,3.5938,283.046,-655.55107)">
    <stop
       offset="0"
       stop-color="#1a1a1a"
       id="stop171" />
    <stop
       offset=".541"
       stop-color="#25272c"
       id="stop173" />
    <stop
       offset="1"
       stop-color="#30353e"
       id="stop175" />
  </linearGradient>
  <path
     d="m 120.007,48.782931 -3.593,-3.784 v 7.567 z"
     id="path178"
     inkscape:connector-curvature="0"
     style="fill:url(#n)" />
  <linearGradient
     id="o"
     gradientUnits="userSpaceOnUse"
     x1="-46.367001"
     y1="195.98801"
     x2="-45.367001"
     y2="195.98801"
     gradientTransform="matrix(3.5938,0,0,3.5938,236.51,-655.55107)">
    <stop
       offset="0"
       stop-color="#1a1a1a"
       id="stop180" />
    <stop
       offset=".541"
       stop-color="#25272c"
       id="stop182" />
    <stop
       offset="1"
       stop-color="#30353e"
       id="stop184" />
  </linearGradient>
  <path
     d="m 69.878,48.782931 3.594,-3.784 v 7.567 z"
     id="path187"
     inkscape:connector-curvature="0"
     style="fill:url(#o)" />
  <linearGradient
     id="p"
     gradientUnits="userSpaceOnUse"
     x1="-46.367001"
     y1="195.98801"
     x2="-45.367001"
     y2="195.98801"
     gradientTransform="matrix(7.5674,0,0,7.5674,442.039,-1411.0701)">
    <stop
       offset="0"
       stop-color="#1a1a1a"
       id="stop189" />
    <stop
       offset=".541"
       stop-color="#25272c"
       id="stop191" />
    <stop
       offset="1"
       stop-color="#30353e"
       id="stop193" />
  </linearGradient>
  <path
     d="m 94.942,73.846931 3.784,-3.593 h -7.567 z"
     id="path196"
     inkscape:connector-curvature="0"
     style="fill:url(#p)" />
  <linearGradient
     id="q"
     gradientUnits="userSpaceOnUse"
     x1="-46.367001"
     y1="195.98801"
     x2="-45.367001"
     y2="195.98801"
     gradientTransform="matrix(7.5674,0,0,7.5674,442.039,-1457.6061)">
    <stop
       offset="0"
       stop-color="#1a1a1a"
       id="stop198" />
    <stop
       offset=".541"
       stop-color="#25272c"
       id="stop200" />
    <stop
       offset="1"
       stop-color="#30353e"
       id="stop202" />
  </linearGradient>
  <path
     d="m 94.942,23.717931 3.784,3.593 h -7.567 z"
     id="path205"
     inkscape:connector-curvature="0"
     style="fill:url(#q)" />
  <linearGradient
     id="r"
     gradientUnits="userSpaceOnUse"
     x1="-46.367001"
     y1="195.98801"
     x2="-45.367001"
     y2="195.98801"
     gradientTransform="matrix(-11.3125,0,0,-11.3125,-423.98,2277.6359)">
    <stop
       offset="0"
       stop-color="#23262a"
       id="stop207" />
    <stop
       offset="1"
       stop-color="#606c74"
       id="stop209" />
  </linearGradient>
  <path
     d="m 100.553,58.101931 a 1.175,1.175 0 0 0 -0.469,-0.844 l -4.438,-3.5 a 1.18,1.18 0 0 0 -1.438,0 l -4.469,3.5 a 1.183,1.183 0 0 0 -0.469,0.938 l -0.031,8.125 a 1.181,1.181 0 0 0 1.187,1.188 h 8.781 a 1.18,1.18 0 0 0 1.188,-1.156 l 0.156,-8.125 v -0.126 z"
     id="path212"
     inkscape:connector-curvature="0"
     style="fill:url(#r)" />
  <linearGradient
     id="s"
     gradientUnits="userSpaceOnUse"
     x1="-46.367001"
     y1="195.98801"
     x2="-45.367001"
     y2="195.98801"
     gradientTransform="matrix(-11.3125,0,0,-11.3125,-423.89,2254.1799)">
    <stop
       offset="0"
       stop-color="#23262a"
       id="stop214" />
    <stop
       offset="1"
       stop-color="#606c74"
       id="stop216" />
  </linearGradient>
  <path
     d="m 100.642,39.462931 a 1.177,1.177 0 0 1 -0.469,0.844 l -4.438,3.5 a 1.18,1.18 0 0 1 -1.438,0 l -4.469,-3.5 a 1.183,1.183 0 0 1 -0.469,-0.938 l -0.031,-8.125 a 1.18,1.18 0 0 1 1.187,-1.187 h 8.781 a 1.18,1.18 0 0 1 1.188,1.156 l 0.156,8.125 v 0.125 z"
     id="path219"
     inkscape:connector-curvature="0"
     style="fill:url(#s)" />
  <linearGradient
     id="t"
     gradientUnits="userSpaceOnUse"
     x1="-46.367001"
     y1="195.98801"
     x2="-45.367001"
     y2="195.98801"
     gradientTransform="matrix(-13.9947,0,0,-13.9947,-558.686,2791.5299)">
    <stop
       offset="0"
       stop-color="#23262a"
       id="stop221" />
    <stop
       offset="1"
       stop-color="#606c74"
       id="stop223" />
  </linearGradient>
  <path
     d="m 85.623,54.393931 a 1.18,1.18 0 0 0 0.844,-0.469 l 3.5,-4.438 a 1.18,1.18 0 0 0 0,-1.438 l -3.5,-4.469 a 1.18,1.18 0 0 0 -0.938,-0.469 l -8.125,-0.031 a 1.181,1.181 0 0 0 -1.187,1.187 v 8.781 a 1.18,1.18 0 0 0 1.156,1.188 l 8.125,0.156 h 0.125 z"
     id="path226"
     inkscape:connector-curvature="0"
     style="fill:url(#t)" />
  <linearGradient
     id="u"
     gradientUnits="userSpaceOnUse"
     x1="-46.367001"
     y1="195.98801"
     x2="-45.367001"
     y2="195.98801"
     gradientTransform="matrix(-13.9947,0,0,-13.9947,-535.228,2791.6199)">
    <stop
       offset="0"
       stop-color="#23262a"
       id="stop228" />
    <stop
       offset="1"
       stop-color="#606c74"
       id="stop230" />
  </linearGradient>
  <path
     d="m 104.262,54.481931 a 1.18,1.18 0 0 1 -0.844,-0.469 l -3.5,-4.438 a 1.18,1.18 0 0 1 0,-1.438 l 3.5,-4.469 a 1.18,1.18 0 0 1 0.938,-0.469 l 8.125,-0.031 a 1.181,1.181 0 0 1 1.187,1.187 v 8.781 a 1.18,1.18 0 0 1 -1.156,1.188 l -8.125,0.156 h -0.125 z"
     id="path233"
     inkscape:connector-curvature="0"
     style="fill:url(#u)" />
  <linearGradient
     id="v"
     gradientUnits="userSpaceOnUse"
     x1="-46.367001"
     y1="195.98801"
     x2="-45.367001"
     y2="195.98801"
     gradientTransform="matrix(-7.6719,0,0,-7.6719,-212.942,1552.6099)">
    <stop
       offset="0"
       stop-color="#30353e"
       id="stop235" />
    <stop
       offset=".378"
       stop-color="#3f474f"
       id="stop237" />
    <stop
       offset="1"
       stop-color="#606c74"
       id="stop239" />
  </linearGradient>
  <path
     d="m 142.783,46.622931 v 1.038 h -6.798 v 3.736 h -0.874 v -4.774 h 7.672"
     id="path242"
     inkscape:connector-curvature="0"
     style="fill:url(#v)" />
  <linearGradient
     id="w"
     gradientUnits="userSpaceOnUse"
     x1="-46.367001"
     y1="195.98801"
     x2="-45.367001"
     y2="195.98801"
     gradientTransform="matrix(-7.6719,0,0,-7.6719,-212.942,1696.1279)">
    <stop
       offset="0"
       stop-color="#30353e"
       id="stop244" />
    <stop
       offset=".378"
       stop-color="#3f474f"
       id="stop246" />
    <stop
       offset="1"
       stop-color="#606c74"
       id="stop248" />
  </linearGradient>
  <path
     d="m 138.708,193.17893 c -0.076,0.223 -0.237,0.438 -0.483,0.647 -0.247,0.212 -0.585,0.425 -1.017,0.637 l -2.097,1.054 v -1.115 l 1.968,-0.981 c 0.514,-0.254 0.855,-0.5 1.023,-0.74 0.167,-0.236 0.251,-0.56 0.251,-0.971 v -1.131 h -3.242 v -1.038 h 7.672 v 2.344 c 0,0.877 -0.183,1.531 -0.55,1.963 -0.367,0.432 -0.92,0.647 -1.66,0.647 -0.483,0 -0.884,-0.113 -1.203,-0.34 -0.317,-0.223 -0.538,-0.549 -0.662,-0.976 m 3.222,-2.601 h -2.724 v 1.306 c 0,0.5 0.115,0.877 0.344,1.13 0.233,0.257 0.574,0.386 1.023,0.386 0.449,0 0.786,-0.129 1.012,-0.386 0.229,-0.253 0.344,-0.63 0.344,-1.13 v -1.306"
     id="path251"
     inkscape:connector-curvature="0"
     style="fill:url(#w)" />
  <linearGradient
     id="x"
     gradientUnits="userSpaceOnUse"
     x1="-46.367001"
     y1="195.98801"
     x2="-45.367001"
     y2="195.98801"
     gradientTransform="matrix(-3.4531,0,0,-3.4531,-60.294,775.86993)">
    <stop
       offset="0"
       stop-color="#9ba2a6"
       id="stop253" />
    <stop
       offset=".311"
       stop-color="#adb2b5"
       id="stop255" />
    <stop
       offset=".93"
       stop-color="#dadbdb"
       id="stop257" />
    <stop
       offset="1"
       stop-color="#e0e0e0"
       id="stop259" />
  </linearGradient>
  <path
     d="M 99.649,92.784931 H 99.21 a 2.74,2.74 0 0 0 0.183,-0.484 c 0.04,-0.151 0.06,-0.298 0.06,-0.439 0,-0.245 -0.048,-0.435 -0.143,-0.568 a 0.47,0.47 0 0 0 -0.406,-0.199 c -0.147,0 -0.259,0.044 -0.334,0.132 -0.074,0.089 -0.135,0.257 -0.181,0.504 l -0.056,0.272 c -0.064,0.335 -0.177,0.583 -0.339,0.742 -0.161,0.161 -0.376,0.241 -0.646,0.241 -0.323,0 -0.567,-0.108 -0.733,-0.326 -0.167,-0.215 -0.25,-0.532 -0.25,-0.95 0,-0.157 0.018,-0.325 0.053,-0.503 0.036,-0.177 0.088,-0.36 0.158,-0.551 h 0.464 c -0.103,0.183 -0.18,0.362 -0.232,0.537 a 1.812,1.812 0 0 0 -0.078,0.517 c 0,0.257 0.051,0.456 0.152,0.596 a 0.5,0.5 0 0 0 0.432,0.209 0.493,0.493 0 0 0 0.384,-0.152 c 0.092,-0.1 0.161,-0.264 0.207,-0.493 l 0.054,-0.274 c 0.067,-0.336 0.171,-0.579 0.314,-0.729 0.143,-0.15 0.341,-0.225 0.595,-0.225 0.294,0 0.526,0.103 0.695,0.31 0.169,0.208 0.254,0.494 0.254,0.858 0,0.156 -0.014,0.315 -0.042,0.477 -0.028,0.162 -0.069,0.328 -0.126,0.498 m 0.109,0.902 v 2.104 h -0.379 v -1.654 h -0.985 v 1.585 h -0.379 v -1.585 h -1.206 v 1.694 H 96.43 v -2.145 h 3.328 m 0,2.891 v 0.45 h -2.949 v 1.621 H 96.43 v -2.071 h 3.328 m 0,2.541 v 2.103999 h -0.379 v -1.653999 h -0.985 v 1.584999 h -0.379 v -1.584999 h -1.206 v 1.693999 H 96.43 v -2.144999 h 3.328 m -0.256,5.381999 h -0.475 a 1.56,1.56 0 0 0 0.316,-0.486 c 0.07,-0.171 0.105,-0.353 0.105,-0.546 0,-0.38 -0.117,-0.672 -0.35,-0.874 -0.232,-0.202 -0.568,-0.303 -1.008,-0.303 -0.438,0 -0.774,0.101 -1.007,0.303 -0.232,0.202 -0.348,0.493 -0.348,0.874 0,0.193 0.035,0.375 0.105,0.546 0.07,0.172 0.175,0.334 0.316,0.486 h -0.47 a 1.835,1.835 0 0 1 -0.321,-1.059 c 0,-0.503 0.154,-0.9 0.461,-1.19 0.309,-0.29 0.73,-0.435 1.264,-0.435 0.535,0 0.957,0.145 1.264,0.435 0.309,0.29 0.464,0.687 0.464,1.19 a 1.9,1.9 0 0 1 -0.316,1.059 m 0.256,0.239 v 2.815 h -0.379 v -1.182 H 96.43 v -0.453 h 2.949 v -1.181 h 0.379"
     id="path262"
     inkscape:connector-curvature="0"
     style="fill:url(#x)" />
  <linearGradient
     id="y"
     gradientUnits="userSpaceOnUse"
     x1="-46.367001"
     y1="195.98801"
     x2="-45.367001"
     y2="195.98801"
     gradientTransform="matrix(-3.4531,0,0,-3.4531,-60.294,817.19593)">
    <stop
       offset="0"
       stop-color="#9ba2a6"
       id="stop264" />
    <stop
       offset=".311"
       stop-color="#adb2b5"
       id="stop266" />
    <stop
       offset=".93"
       stop-color="#dadbdb"
       id="stop268" />
    <stop
       offset="1"
       stop-color="#e0e0e0"
       id="stop270" />
  </linearGradient>
  <path
     d="M 99.649,135.66593 H 99.21 c 0.082,-0.171 0.143,-0.332 0.183,-0.483 0.04,-0.151 0.06,-0.298 0.06,-0.439 0,-0.245 -0.048,-0.435 -0.143,-0.568 a 0.47,0.47 0 0 0 -0.406,-0.198 c -0.147,0 -0.259,0.044 -0.334,0.132 -0.074,0.089 -0.135,0.257 -0.181,0.504 l -0.056,0.271 c -0.064,0.336 -0.177,0.584 -0.339,0.742 -0.161,0.161 -0.376,0.241 -0.646,0.241 -0.323,0 -0.567,-0.108 -0.733,-0.325 -0.167,-0.216 -0.25,-0.532 -0.25,-0.95 0,-0.157 0.018,-0.325 0.053,-0.504 0.036,-0.177 0.088,-0.36 0.158,-0.551 h 0.464 c -0.103,0.184 -0.18,0.362 -0.232,0.538 a 1.812,1.812 0 0 0 -0.078,0.517 c 0,0.257 0.051,0.456 0.152,0.596 a 0.5,0.5 0 0 0 0.432,0.209 c 0.164,0 0.292,-0.05 0.384,-0.151 0.092,-0.1 0.161,-0.264 0.207,-0.492 l 0.054,-0.274 c 0.067,-0.336 0.171,-0.579 0.314,-0.729 0.143,-0.149 0.341,-0.225 0.595,-0.225 0.294,0 0.526,0.103 0.695,0.31 0.169,0.208 0.254,0.494 0.254,0.858 0,0.156 -0.014,0.315 -0.042,0.477 a 3.26,3.26 0 0 1 -0.126,0.494 m 0.109,0.441 v 2.816 h -0.379 v -1.182 H 96.43 v -0.453 h 2.949 v -1.182 h 0.379 m -0.443,4.01 -1.656,-0.611 v 1.225 l 1.656,-0.614 m 0.443,-0.254 v 0.51 l -3.328,1.269 v -0.468 l 0.854,-0.304 v -1.5 l -0.854,-0.303 v -0.476 l 3.328,1.272 m -1.767,3.841 a 0.665,0.665 0 0 1 -0.209,0.281 2.114,2.114 0 0 1 -0.441,0.276 l -0.91,0.457 v -0.484 l 0.854,-0.426 c 0.223,-0.109 0.371,-0.217 0.443,-0.321 0.073,-0.103 0.109,-0.242 0.109,-0.421 v -0.49 H 96.43 v -0.45 h 3.328 v 1.017 c 0,0.38 -0.08,0.664 -0.238,0.852 -0.159,0.187 -0.399,0.28 -0.72,0.28 a 0.885,0.885 0 0 1 -0.521,-0.146 0.75,0.75 0 0 1 -0.288,-0.425 m 1.397,-1.128 h -1.181 v 0.566 c 0,0.217 0.05,0.38 0.149,0.49 0.101,0.111 0.249,0.167 0.443,0.167 0.194,0 0.341,-0.056 0.439,-0.167 0.099,-0.11 0.149,-0.273 0.149,-0.49 v -0.566 m 0.371,1.933 v 2.815 h -0.379 v -1.182 H 96.43 v -0.452 h 2.949 v -1.182 h 0.379"
     id="path273"
     inkscape:connector-curvature="0"
     style="fill:url(#y)" />
  <path
     d="m 123.183,82.597931 h 2.701 v 2.083 h -2.701 z m 0,6.559 h 2.701 v 2.083 h -2.701 z m 0,5.863 h 2.701 v 2.083 h -2.701 z"
     id="path275"
     inkscape:connector-curvature="0"
     style="fill:#1a1a1a" />
  <linearGradient
     id="z"
     gradientUnits="userSpaceOnUse"
     x1="-46.367001"
     y1="195.98801"
     x2="-45.367001"
     y2="195.98801"
     gradientTransform="matrix(-6.5769,0,0,-6.5769,-233.194,1410.6439)">
    <stop
       offset="0"
       stop-color="#23262a"
       id="stop277" />
    <stop
       offset=".132"
       stop-color="#35373b"
       id="stop279" />
    <stop
       offset=".394"
       stop-color="#636567"
       id="stop281" />
    <stop
       offset=".76"
       stop-color="#acadae"
       id="stop283" />
    <stop
       offset="1"
       stop-color="#e0e0e0"
       id="stop285" />
  </linearGradient>
  <path
     d="m 72.892,129.33293 a 7.696,7.696 0 0 1 0,-15.383 l -0.243,-0.004 a 7.696,7.696 0 1 0 0,15.391 l 0.243,-0.004"
     id="path288"
     inkscape:connector-curvature="0"
     style="fill:url(#z)" />
  <path
     d="m 73.136,129.33693 a 7.696,7.696 0 1 1 0.001,-15.39 7.696,7.696 0 0 1 -0.001,15.39"
     id="path290"
     inkscape:connector-curvature="0"
     style="fill:#1a1a1a" />
  <linearGradient
     id="A"
     gradientUnits="userSpaceOnUse"
     x1="-46.367001"
     y1="195.98801"
     x2="-45.367001"
     y2="195.98801"
     gradientTransform="matrix(6.07,0,0,6.07,355.072,-1068.0121)">
    <stop
       offset="0"
       stop-color="#23262a"
       id="stop292" />
    <stop
       offset=".132"
       stop-color="#35373b"
       id="stop294" />
    <stop
       offset=".394"
       stop-color="#636567"
       id="stop296" />
    <stop
       offset=".76"
       stop-color="#acadae"
       id="stop298" />
    <stop
       offset="1"
       stop-color="#e0e0e0"
       id="stop300" />
  </linearGradient>
  <path
     d="m 79.894,121.64193 a 6.39,6.39 0 0 0 -6.389,-6.39 l -0.185,0.002 a 6.39,6.39 0 0 1 0,12.774 l 0.185,0.003 a 6.39,6.39 0 0 0 6.389,-6.389"
     id="path303"
     inkscape:connector-curvature="0"
     style="fill:url(#A)" />
  <linearGradient
     id="B"
     gradientUnits="userSpaceOnUse"
     x1="-46.367001"
     y1="195.98801"
     x2="-45.367001"
     y2="195.98801"
     gradientTransform="matrix(-11.9484,0,0,-11.9484,-474.754,2463.3999)">
    <stop
       offset="0"
       stop-color="#30353e"
       id="stop305" />
    <stop
       offset=".521"
       stop-color="#1a1a1a"
       id="stop307" />
    <stop
       offset=".741"
       stop-color="#1b1c1c"
       id="stop309" />
    <stop
       offset=".821"
       stop-color="#212223"
       id="stop311" />
    <stop
       offset=".877"
       stop-color="#2a2d2e"
       id="stop313" />
    <stop
       offset=".922"
       stop-color="#373c3f"
       id="stop315" />
    <stop
       offset=".961"
       stop-color="#485055"
       id="stop317" />
    <stop
       offset=".995"
       stop-color="#5d6870"
       id="stop319" />
    <stop
       offset="1"
       stop-color="#606c74"
       id="stop321" />
  </linearGradient>
  <path
     d="m 66.745,121.65493 v -0.028 0.028 m 9.17,0.426 -0.063,-0.212 c -0.062,-0.063 -0.162,-0.075 -0.312,-0.075 h -0.756 a 7.89,7.89 0 0 1 -0.035,0.6 h 0.603 c 0.313,0 0.501,-0.1 0.563,-0.313 m 3.611,-0.439 a 6.391,6.391 0 0 0 -6.206,-6.387 l -0.185,-0.002 a 6.363,6.363 0 0 0 -3.429,0.997 2.974,2.974 0 0 1 1.06,-0.196 c 1.873,0 3.447,1.781 3.893,4.192 h 2.467 c -0.113,0.562 -0.312,1.273 -0.587,2.123 -0.225,0.65 -0.5,1.087 -0.836,1.337 -0.299,0.262 -0.744,0.388 -1.327,0.398 -0.654,1.853 -2.025,3.127 -3.609,3.127 -0.367,0 -0.723,-0.068 -1.06,-0.196 a 6.36,6.36 0 0 0 3.429,0.997 l 0.185,-0.003 a 6.39,6.39 0 0 0 6.205,-6.387"
     id="path324"
     inkscape:connector-curvature="0"
     style="fill:url(#B)" />
  <linearGradient
     id="C"
     gradientUnits="userSpaceOnUse"
     x1="-46.367001"
     y1="195.98801"
     x2="-45.367001"
     y2="195.98801"
     gradientTransform="matrix(-7.5985,0,0,-7.5985,-277.628,1610.8679)">
    <stop
       offset="0"
       stop-color="#30353e"
       id="stop326" />
    <stop
       offset=".521"
       stop-color="#1a1a1a"
       id="stop328" />
    <stop
       offset=".741"
       stop-color="#1b1c1c"
       id="stop330" />
    <stop
       offset=".821"
       stop-color="#212223"
       id="stop332" />
    <stop
       offset=".877"
       stop-color="#2a2d2e"
       id="stop334" />
    <stop
       offset=".922"
       stop-color="#373c3f"
       id="stop336" />
    <stop
       offset=".961"
       stop-color="#485055"
       id="stop338" />
    <stop
       offset=".995"
       stop-color="#5d6870"
       id="stop340" />
    <stop
       offset="1"
       stop-color="#606c74"
       id="stop342" />
  </linearGradient>
  <path
     d="m 72.25,121.90393 0.005,0.013 c 0.249,0.65 0.375,1.274 0.387,1.874 l 0.005,0.217 c 0,0.462 -0.068,0.946 -0.229,1.432 -0.163,0.499 -0.351,0.774 -0.588,0.787 l -0.038,0.002 c -0.232,0 -0.421,-0.228 -0.599,-0.701 l -0.112,-0.25 -0.75,-2.111 -0.448,-1.262 h 0.882 l 0.815,2.261 0.175,0.462 c 0.055,0.166 0.11,0.254 0.174,0.255 l 0.026,-0.005 c 0.063,-0.024 0.112,-0.087 0.124,-0.224 l 0.026,-0.463 -0.088,-0.35 -0.188,-0.524 -0.494,-1.412 h 0.915 m -0.693,-5.269 c 0.184,0 0.392,0.249 0.585,0.712 l 0.126,0.313 0.649,1.811 0.217,0.663 h -0.881 l -0.522,-1.475 -0.124,-0.337 c -0.038,-0.099 -0.089,-0.187 -0.125,-0.25 l -0.069,-0.033 -0.119,0.096 -0.063,0.5 0.1,0.525 0.125,0.312 0.238,0.663 h -0.835 a 5.614,5.614 0 0 1 -0.129,-1.186 c 0,-0.476 0.063,-0.947 0.189,-1.413 0.149,-0.562 0.35,-0.875 0.625,-0.9 l 0.013,-0.001 m 3.227,5.158 h -4.902 l 0.475,-1.549 h 4.303 c -0.446,-2.411 -2.02,-4.192 -3.893,-4.192 -0.367,0 -0.722,0.068 -1.06,0.196 -1.704,0.645 -2.958,2.808 -2.962,5.379 v 0.028 c 0.004,2.57 1.258,4.733 2.962,5.379 a 2.97,2.97 0 0 0 1.06,0.196 c 1.584,0 2.955,-1.274 3.609,-3.127 l -0.084,10e-4 c -0.601,0 -1,-0.175 -1.224,-0.499 a 0.84,0.84 0 0 1 -0.168,-0.521 c 0,-0.211 0.063,-0.444 0.18,-0.69 h 1.67 c 0.019,-0.199 0.03,-0.398 0.034,-0.601"
     id="path345"
     inkscape:connector-curvature="0"
     style="fill:url(#C)" />
  <linearGradient
     id="D"
     gradientUnits="userSpaceOnUse"
     x1="-46.367001"
     y1="195.98801"
     x2="-45.367001"
     y2="195.98801"
     gradientTransform="matrix(-11.9484,0,0,-11.9484,-474.754,2463.9319)">
    <stop
       offset="0"
       stop-color="#c0d4f8"
       id="stop347" />
    <stop
       offset=".521"
       stop-color="#686868"
       id="stop349" />
    <stop
       offset=".65"
       stop-color="#6b6b6b"
       id="stop351" />
    <stop
       offset=".727"
       stop-color="#737373"
       id="stop353" />
    <stop
       offset=".791"
       stop-color="#818181"
       id="stop355" />
    <stop
       offset=".847"
       stop-color="#959595"
       id="stop357" />
    <stop
       offset=".898"
       stop-color="#b0b0b0"
       id="stop359" />
    <stop
       offset=".946"
       stop-color="#d0d0d0"
       id="stop361" />
    <stop
       offset=".99"
       stop-color="#f5f5f5"
       id="stop363" />
    <stop
       offset="1"
       stop-color="#fff"
       id="stop365" />
  </linearGradient>
  <path
     d="m 77.126,120.24493 h -2.467 c 0.083,0.446 0.126,0.914 0.126,1.396 l -10e-4,0.152 h 0.756 c 0.15,0 0.25,0.012 0.312,0.075 l 0.063,0.212 c -0.063,0.213 -0.25,0.313 -0.563,0.313 H 74.75 a 7.23,7.23 0 0 1 -0.374,1.71 c 0.583,-0.011 1.028,-0.137 1.327,-0.398 0.336,-0.25 0.612,-0.687 0.836,-1.337 0.275,-0.849 0.474,-1.561 0.587,-2.123"
     id="path368"
     inkscape:connector-curvature="0"
     style="fill:url(#D)" />
  <linearGradient
     id="E"
     gradientUnits="userSpaceOnUse"
     x1="-46.367001"
     y1="195.98801"
     x2="-45.367001"
     y2="195.98801"
     gradientTransform="matrix(-7.5985,0,0,-7.5985,-277.628,1611.3999)">
    <stop
       offset="0"
       stop-color="#c0d4f8"
       id="stop370" />
    <stop
       offset=".521"
       stop-color="#686868"
       id="stop372" />
    <stop
       offset=".65"
       stop-color="#6b6b6b"
       id="stop374" />
    <stop
       offset=".727"
       stop-color="#737373"
       id="stop376" />
    <stop
       offset=".791"
       stop-color="#818181"
       id="stop378" />
    <stop
       offset=".847"
       stop-color="#959595"
       id="stop380" />
    <stop
       offset=".898"
       stop-color="#b0b0b0"
       id="stop382" />
    <stop
       offset=".946"
       stop-color="#d0d0d0"
       id="stop384" />
    <stop
       offset=".99"
       stop-color="#f5f5f5"
       id="stop386" />
    <stop
       offset="1"
       stop-color="#fff"
       id="stop388" />
  </linearGradient>
  <path
     d="m 74.75,122.39393 h -1.67 c -0.116,0.246 -0.18,0.479 -0.18,0.69 a 0.84,0.84 0 0 0 0.168,0.521 c 0.225,0.324 0.624,0.499 1.224,0.499 l 0.084,-0.001 a 7.222,7.222 0 0 0 0.374,-1.709 m 0.036,-0.752 c 0,-0.482 -0.044,-0.95 -0.126,-1.396 h -4.303 l -0.475,1.549 h 4.902 l 0.002,-0.153"
     id="path391"
     inkscape:connector-curvature="0"
     style="fill:url(#E)" />
  <linearGradient
     id="F"
     gradientUnits="userSpaceOnUse"
     x1="-46.367001"
     y1="195.98801"
     x2="-45.367001"
     y2="195.98801"
     gradientTransform="matrix(-7.5985,0,0,-7.5985,-277.628,1607.6099)">
    <stop
       offset="0"
       stop-color="#c0d4f8"
       id="stop393" />
    <stop
       offset=".521"
       stop-color="#686868"
       id="stop395" />
    <stop
       offset=".65"
       stop-color="#6b6b6b"
       id="stop397" />
    <stop
       offset=".727"
       stop-color="#737373"
       id="stop399" />
    <stop
       offset=".791"
       stop-color="#818181"
       id="stop401" />
    <stop
       offset=".847"
       stop-color="#959595"
       id="stop403" />
    <stop
       offset=".898"
       stop-color="#b0b0b0"
       id="stop405" />
    <stop
       offset=".946"
       stop-color="#d0d0d0"
       id="stop407" />
    <stop
       offset=".99"
       stop-color="#f5f5f5"
       id="stop409" />
    <stop
       offset="1"
       stop-color="#fff"
       id="stop411" />
  </linearGradient>
  <path
     d="m 73.134,120.13393 -0.217,-0.663 -0.649,-1.811 -0.126,-0.313 c -0.193,-0.464 -0.401,-0.712 -0.585,-0.712 h -0.013 c -0.275,0.025 -0.476,0.338 -0.625,0.9 a 5.385,5.385 0 0 0 -0.189,1.413 c 0,0.391 0.043,0.786 0.129,1.186 h 0.835 l -0.238,-0.663 -0.125,-0.312 -0.1,-0.525 0.063,-0.5 0.119,-0.096 0.069,0.033 c 0.036,0.063 0.087,0.151 0.125,0.25 l 0.124,0.337 0.522,1.475 h 0.881"
     id="path414"
     inkscape:connector-curvature="0"
     style="fill:url(#F)" />
  <linearGradient
     id="G"
     gradientUnits="userSpaceOnUse"
     x1="-46.367001"
     y1="195.98801"
     x2="-45.367001"
     y2="195.98801"
     gradientTransform="matrix(-7.5985,0,0,-7.5985,-277.628,1613.2919)">
    <stop
       offset="0"
       stop-color="#c0d4f8"
       id="stop416" />
    <stop
       offset=".521"
       stop-color="#686868"
       id="stop418" />
    <stop
       offset=".65"
       stop-color="#6b6b6b"
       id="stop420" />
    <stop
       offset=".727"
       stop-color="#737373"
       id="stop422" />
    <stop
       offset=".791"
       stop-color="#818181"
       id="stop424" />
    <stop
       offset=".847"
       stop-color="#959595"
       id="stop426" />
    <stop
       offset=".898"
       stop-color="#b0b0b0"
       id="stop428" />
    <stop
       offset=".946"
       stop-color="#d0d0d0"
       id="stop430" />
    <stop
       offset=".99"
       stop-color="#f5f5f5"
       id="stop432" />
    <stop
       offset="1"
       stop-color="#fff"
       id="stop434" />
  </linearGradient>
  <path
     d="m 72.646,124.00793 -0.005,-0.217 a 5.532,5.532 0 0 0 -0.387,-1.874 l -0.005,-0.013 h -0.914 l 0.494,1.412 0.188,0.524 0.088,0.35 -0.026,0.463 c -0.012,0.137 -0.062,0.199 -0.124,0.224 l -0.026,0.005 c -0.063,-10e-4 -0.119,-0.089 -0.174,-0.255 l -0.175,-0.462 -0.815,-2.261 h -0.882 l 0.448,1.262 0.75,2.111 0.112,0.25 c 0.178,0.474 0.366,0.701 0.599,0.701 l 0.038,-0.002 c 0.237,-0.013 0.425,-0.288 0.588,-0.787 a 4.56,4.56 0 0 0 0.228,-1.431"
     id="path437"
     inkscape:connector-curvature="0"
     style="fill:url(#G)" />
  <linearGradient
     id="H"
     gradientUnits="userSpaceOnUse"
     x1="-46.367001"
     y1="195.98801"
     x2="-45.367001"
     y2="195.98801"
     gradientTransform="matrix(-6.2974,0,0,-6.2974,-165.66,1354.8999)">
    <stop
       offset="0"
       stop-color="#1a1a1a"
       id="stop439" />
    <stop
       offset=".541"
       stop-color="#25272c"
       id="stop441" />
    <stop
       offset="1"
       stop-color="#30353e"
       id="stop443" />
  </linearGradient>
  <path
     d="m 126.332,69.465931 -0.007,42.344999 c -0.447,0.272 -0.75,0.748 -0.75,1.313 v 14.312 c 0,0.565 0.301,1.071 0.75,1.344 v 43.13 c -1.77,-2.752 -3.889,-5.318 -6.291,-7.521 V 76.935931 h 10e-4 a 38.047,38.047 0 0 0 6.297,-7.47 z"
     id="path446"
     inkscape:connector-curvature="0"
     style="fill:url(#H)" />
  <path
     d="m 122.439,100.83093 v 0.439 h -1.06 c 0.038,0.106 0.076,0.245 0.114,0.416 0.038,0.172 0.067,0.326 0.086,0.462 h -0.161 a 4.524,4.524 0 0 0 -0.159,-0.644 1.462,1.462 0 0 0 -0.181,-0.391 v -0.283 h 1.361 z m -0.159,-6.907999 h 0.16 v 2.365 l -0.116,-0.051 a 0.95,0.95 0 0 1 -0.18,-0.289 5.601,5.601 0 0 1 -0.205,-0.575 c -0.121,-0.389 -0.216,-0.652 -0.287,-0.789 -0.071,-0.136 -0.137,-0.205 -0.2,-0.205 -0.066,0 -0.122,0.062 -0.167,0.187 a 1.462,1.462 0 0 0 -0.068,0.487 c 0,0.211 0.024,0.381 0.072,0.508 0.048,0.127 0.115,0.191 0.2,0.193 l -0.018,0.451 c -0.127,-0.031 -0.225,-0.147 -0.292,-0.349 -0.067,-0.202 -0.1,-0.472 -0.1,-0.813 0,-0.343 0.036,-0.615 0.108,-0.815 0.072,-0.2 0.162,-0.3 0.268,-0.3 l 0.16,0.088 c 0.052,0.059 0.107,0.156 0.166,0.292 a 8.8,8.8 0 0 1 0.238,0.677 c 0.084,0.264 0.141,0.433 0.17,0.508 l 0.09,0.186 v -1.756 z m -0.222,-3.43 -0.022,-0.439 a 0.443,0.443 0 0 0 0.204,-0.258 c 0.042,-0.121 0.062,-0.269 0.062,-0.443 0,-0.207 -0.027,-0.381 -0.081,-0.523 -0.054,-0.142 -0.122,-0.213 -0.202,-0.213 -0.076,0 -0.139,0.066 -0.189,0.197 -0.049,0.132 -0.074,0.3 -0.074,0.503 0,0.083 0.006,0.187 0.019,0.31 l -0.146,-0.049 0.002,-0.071 a 2.11,2.11 0 0 0 -0.056,-0.505 c -0.037,-0.149 -0.094,-0.224 -0.171,-0.224 -0.061,0 -0.111,0.054 -0.151,0.163 -0.04,0.109 -0.06,0.25 -0.06,0.422 0,0.171 0.02,0.313 0.061,0.427 0.041,0.114 0.102,0.187 0.183,0.22 l -0.029,0.439 c -0.112,-0.054 -0.198,-0.176 -0.259,-0.366 a 2.322,2.322 0 0 1 -0.092,-0.71 c 0,-0.195 0.016,-0.375 0.047,-0.54 0.032,-0.164 0.075,-0.29 0.13,-0.377 l 0.175,-0.13 0.16,0.125 c 0.048,0.083 0.086,0.206 0.115,0.368 0.018,-0.211 0.057,-0.375 0.115,-0.493 0.058,-0.118 0.131,-0.176 0.219,-0.176 0.118,0 0.218,0.114 0.301,0.342 0.082,0.228 0.123,0.516 0.123,0.864 0,0.314 -0.035,0.575 -0.106,0.782 -0.071,0.207 -0.166,0.326 -0.278,0.355 z m 0.376,-7.005 h -0.324 v 1.552 h -0.152 l -0.878,-1.633 v -0.358 h 0.878 v -0.483 h 0.152 v 0.483 h 0.324 z m -0.477,0 h -0.611 l 0.611,1.12 z"
     id="path448"
     inkscape:connector-curvature="0"
     style="fill:#b3b3b3" />
  <linearGradient
     id="I"
     gradientUnits="userSpaceOnUse"
     x1="-46.367001"
     y1="195.98801"
     x2="-45.367001"
     y2="195.98801"
     gradientTransform="matrix(-0.5359,0,0,-0.5359,99.526,197.25193)">
    <stop
       offset="0"
       stop-color="#23262a"
       id="stop450" />
    <stop
       offset=".132"
       stop-color="#35373b"
       id="stop452" />
    <stop
       offset=".394"
       stop-color="#636567"
       id="stop454" />
    <stop
       offset=".76"
       stop-color="#acadae"
       id="stop456" />
    <stop
       offset="1"
       stop-color="#e0e0e0"
       id="stop458" />
  </linearGradient>
  <path
     d="m 123.853,82.875931 h 0.481 v 18.679999 h -0.481 z"
     id="path461"
     inkscape:connector-curvature="0"
     style="fill:url(#I)" />
  <linearGradient
     id="J"
     gradientUnits="userSpaceOnUse"
     x1="-46.367001"
     y1="195.98801"
     x2="-45.367001"
     y2="195.98801"
     gradientTransform="matrix(-1.4217,0,0,-1.4217,58.868,362.04393)">
    <stop
       offset="0"
       stop-color="#23262a"
       id="stop463" />
    <stop
       offset=".132"
       stop-color="#35373b"
       id="stop465" />
    <stop
       offset=".394"
       stop-color="#636567"
       id="stop467" />
    <stop
       offset=".76"
       stop-color="#acadae"
       id="stop469" />
    <stop
       offset="1"
       stop-color="#e0e0e0"
       id="stop471" />
  </linearGradient>
  <path
     d="m 123.183,82.874931 h 1.818 v 1.058 h -1.818 z"
     id="path474"
     inkscape:connector-curvature="0"
     style="fill:url(#J)" />
  <linearGradient
     id="K"
     gradientUnits="userSpaceOnUse"
     x1="-46.367001"
     y1="195.98801"
     x2="-45.367001"
     y2="195.98801"
     gradientTransform="matrix(-1.4217,0,0,-1.4217,58.868,367.91993)">
    <stop
       offset="0"
       stop-color="#23262a"
       id="stop476" />
    <stop
       offset=".132"
       stop-color="#35373b"
       id="stop478" />
    <stop
       offset=".394"
       stop-color="#636567"
       id="stop480" />
    <stop
       offset=".76"
       stop-color="#acadae"
       id="stop482" />
    <stop
       offset="1"
       stop-color="#e0e0e0"
       id="stop484" />
  </linearGradient>
  <path
     d="m 123.183,88.748931 h 1.818 v 1.058 h -1.818 z"
     id="path487"
     inkscape:connector-curvature="0"
     style="fill:url(#K)" />
  <linearGradient
     id="L"
     gradientUnits="userSpaceOnUse"
     x1="-46.367001"
     y1="195.98801"
     x2="-45.367001"
     y2="195.98801"
     gradientTransform="matrix(-1.4217,0,0,-1.4217,58.868,373.79193)">
    <stop
       offset="0"
       stop-color="#23262a"
       id="stop489" />
    <stop
       offset=".132"
       stop-color="#35373b"
       id="stop491" />
    <stop
       offset=".394"
       stop-color="#636567"
       id="stop493" />
    <stop
       offset=".76"
       stop-color="#acadae"
       id="stop495" />
    <stop
       offset="1"
       stop-color="#e0e0e0"
       id="stop497" />
  </linearGradient>
  <path
     d="m 123.183,94.622931 h 1.818 v 1.058 h -1.818 z"
     id="path500"
     inkscape:connector-curvature="0"
     style="fill:url(#L)" />
  <linearGradient
     id="M"
     gradientUnits="userSpaceOnUse"
     x1="-46.367001"
     y1="195.98801"
     x2="-45.367001"
     y2="195.98801"
     gradientTransform="matrix(-1.4217,0,0,-1.4217,58.868,379.66793)">
    <stop
       offset="0"
       stop-color="#ca2228"
       id="stop502" />
    <stop
       offset=".131"
       stop-color="#cc3439"
       id="stop504" />
    <stop
       offset=".393"
       stop-color="#d16266"
       id="stop506" />
    <stop
       offset=".757"
       stop-color="#daabad"
       id="stop508" />
    <stop
       offset="1"
       stop-color="#e0e0e0"
       id="stop510" />
  </linearGradient>
  <path
     d="m 123.183,100.49793 h 1.818 v 1.058 h -1.818 z"
     id="path513"
     inkscape:connector-curvature="0"
     style="fill:url(#M)" />
  <linearGradient
     id="N"
     gradientUnits="userSpaceOnUse"
     x1="-46.367001"
     y1="195.98801"
     x2="-45.367001"
     y2="195.98801"
     gradientTransform="matrix(-56.0313,0,0,-56.0313,-2475.55,11173.854)">
    <stop
       offset="0"
       stop-color="#23262a"
       id="stop515" />
    <stop
       offset=".478"
       stop-color="#1a1a1a"
       id="stop517" />
    <stop
       offset=".738"
       stop-color="#1b1c1c"
       id="stop519" />
    <stop
       offset=".832"
       stop-color="#202123"
       id="stop521" />
    <stop
       offset=".899"
       stop-color="#282b2e"
       id="stop523" />
    <stop
       offset=".952"
       stop-color="#343a3f"
       id="stop525" />
    <stop
       offset=".998"
       stop-color="#434c55"
       id="stop527" />
    <stop
       offset="1"
       stop-color="#444d56"
       id="stop529" />
  </linearGradient>
  <path
     d="m 122.476,184.59093 a 2.78,2.78 0 0 0 -2.781,-2.781 h -14.656 v -14.688 c 0,-1.536 -1.245,-2.75 -2.781,-2.75 H 86.663 c -1.536,0 -2.781,1.214 -2.781,2.75 v 14.688 H 69.226 a 2.782,2.782 0 0 0 -2.781,2.781 v 15.594 c 0,1.535 1.246,2.75 2.781,2.75 h 14.656 v 14.688 c 0,1.535 1.246,2.75 2.781,2.75 h 15.594 c 1.536,0 2.781,-1.215 2.781,-2.75 v -14.688 h 14.656 c 1.536,0 2.781,-1.215 2.781,-2.75 v -15.594 z"
     id="path532"
     inkscape:connector-curvature="0"
     style="fill:url(#N)" />
  <linearGradient
     id="O"
     gradientUnits="userSpaceOnUse"
     x1="-46.367001"
     y1="195.98801"
     x2="-45.367001"
     y2="195.98801"
     gradientTransform="matrix(-16.4868,0,0,-16.4868,-644.1,3423.5999)">
    <stop
       offset="0"
       stop-color="#23262a"
       id="stop534" />
    <stop
       offset="1"
       stop-color="#606c74"
       id="stop536" />
  </linearGradient>
  <path
     d="m 112.107,200.60693 c -4.548,0.004 -8.239,-3.68 -8.244,-8.228 -0.005,-4.548 3.679,-8.239 8.227,-8.243 h 0.017 a 8.236,8.236 0 0 1 0.016,16.471 z"
     id="path539"
     inkscape:connector-curvature="0"
     style="fill:url(#O)" />
  <linearGradient
     id="P"
     gradientUnits="userSpaceOnUse"
     x1="-46.367001"
     y1="195.98801"
     x2="-45.367001"
     y2="195.98801"
     gradientTransform="matrix(-16.4863,0,0,-16.4863,-679.504,3423.5039)">
    <stop
       offset="0"
       stop-color="#23262a"
       id="stop541" />
    <stop
       offset="1"
       stop-color="#606c74"
       id="stop543" />
  </linearGradient>
  <path
     d="m 76.683,200.60693 a 8.235,8.235 0 0 1 -8.243,-8.228 8.234,8.234 0 0 1 8.227,-8.243 h 0.017 a 8.236,8.236 0 0 1 0.016,16.471 z"
     id="path546"
     inkscape:connector-curvature="0"
     style="fill:url(#P)" />
  <linearGradient
     id="Q"
     gradientUnits="userSpaceOnUse"
     x1="-46.367001"
     y1="195.98801"
     x2="-45.367001"
     y2="195.98801"
     gradientTransform="matrix(-16.4868,0,0,-16.4868,-661.814,3441.3119)">
    <stop
       offset="0"
       stop-color="#23262a"
       id="stop548" />
    <stop
       offset="1"
       stop-color="#606c74"
       id="stop550" />
  </linearGradient>
  <path
     d="m 94.395,201.84893 a 8.235,8.235 0 0 1 8.243,8.228 8.235,8.235 0 0 1 -8.227,8.243 h -0.016 a 8.236,8.236 0 0 1 -0.016,-16.471 z"
     id="path553"
     inkscape:connector-curvature="0"
     style="fill:url(#Q)" />
  <linearGradient
     id="R"
     gradientUnits="userSpaceOnUse"
     x1="-46.367001"
     y1="195.98801"
     x2="-45.367001"
     y2="195.98801"
     gradientTransform="matrix(-16.4868,0,0,-16.4868,-661.814,3405.8879)">
    <stop
       offset="0"
       stop-color="#23262a"
       id="stop555" />
    <stop
       offset="1"
       stop-color="#606c74"
       id="stop557" />
  </linearGradient>
  <path
     d="m 94.395,166.42393 a 8.236,8.236 0 0 1 0.016,16.471 h -0.016 a 8.236,8.236 0 1 1 -0.016,-16.471 z"
     id="path560"
     inkscape:connector-curvature="0"
     style="fill:url(#R)" />
  <path
     d="m 99.109,169.94493 h -0.5 v 8.928 h -8.428 v -8.428 h 8.928 v -0.5 h -0.5 0.5 v -0.5 h -9.928 v 10.428 h 10.428 v -10.428 h -0.5 z"
     id="path562"
     inkscape:connector-curvature="0"
     style="fill:#e295dd" />
  <path
     d="m 108.771,197.61993 h 0.5 v -9.63 l 7.577,4.382 -8.327,4.815 0.25,0.433 h 0.5 -0.5 l 0.25,0.433 9.824,-5.681 -10.574,-6.116 v 12.23 l 0.75,-0.433 z"
     id="path564"
     inkscape:connector-curvature="0"
     style="fill:#3dd3c8" />
  <path
     d="m 94.395,204.43593 0.004,0.5 H 94.4 a 5.147,5.147 0 0 1 5.147,5.142 v 0.006 a 5.145,5.145 0 0 1 -5.142,5.147 H 94.39 a 5.146,5.146 0 0 1 -5.147,-5.142 v -0.006 a 5.146,5.146 0 0 1 5.142,-5.147 H 94.4 l -0.005,-0.5 v -0.5 h -0.011 a 6.148,6.148 0 0 0 -6.141,6.147 v 0.006 a 6.147,6.147 0 0 0 6.147,6.142 h 0.016 a 6.148,6.148 0 0 0 6.141,-6.147 v -0.008 0.002 a 6.146,6.146 0 0 0 -6.147,-6.142 h -0.01 0.004 v 0.5 z"
     id="path566"
     inkscape:connector-curvature="0"
     style="fill:#f36070" />
  <linearGradient
     id="S"
     gradientUnits="userSpaceOnUse"
     x1="-46.367001"
     y1="195.98801"
     x2="-45.367001"
     y2="195.98801"
     gradientTransform="matrix(-6.8731,0,0,-6.8731,-204.654,1451.5499)">
    <stop
       offset="0"
       stop-color="#9ba2a6"
       id="stop568" />
    <stop
       offset=".311"
       stop-color="#adb2b5"
       id="stop570" />
    <stop
       offset=".93"
       stop-color="#dadbdb"
       id="stop572" />
    <stop
       offset="1"
       stop-color="#e0e0e0"
       id="stop574" />
  </linearGradient>
  <path
     d="m 113.725,107.50693 v 0.78 h -2.063 v -0.78 c 1.279,-0.388 1.471,-2.322 1.471,-3.534 0,-1.061 -0.279,-1.853 -0.817,-1.853 -0.622,0 -0.64,1.492 -0.803,2.698 -0.21,1.553 -0.174,3.817 -2.204,3.817 -1.602,0 -2.145,-2.127 -2.148,-3.459 -0.005,-2.384 0.682,-3.125 0.682,-3.67 0,-0.151 -0.146,-0.229 -0.438,-0.229 v -0.78 h 2.315 v 0.78 c -1.396,0.293 -1.7,2.439 -1.7,3.344 0,0.642 0.126,2.291 0.888,2.291 0.722,0 0.685,-1.058 0.868,-2.344 0.202,-1.41 0.246,-4.189 2.12,-4.189 1.446,0 2.138,1.62 2.138,3.438 0,2.112 -0.686,3.156 -0.686,3.47 -0.001,0.147 0.135,0.22 0.377,0.22 z"
     id="path577"
     inkscape:connector-curvature="0"
     style="fill:url(#S)" />
  <linearGradient
     id="T"
     gradientUnits="userSpaceOnUse"
     x1="-46.367001"
     y1="195.98801"
     x2="-45.367001"
     y2="195.98801"
     gradientTransform="matrix(-6.1113,0,0,-6.1113,-169.714,1323.1319)">
    <stop
       offset="0"
       stop-color="#9ba2a6"
       id="stop579" />
    <stop
       offset=".311"
       stop-color="#adb2b5"
       id="stop581" />
    <stop
       offset=".93"
       stop-color="#dadbdb"
       id="stop583" />
    <stop
       offset="1"
       stop-color="#e0e0e0"
       id="stop585" />
  </linearGradient>
  <path
     d="m 107.541,129.15893 v -1.258 l 4.294,-5.02 h -3.193 c -0.214,0 -0.321,0.107 -0.321,0.321 v 0.918 h -0.78 v -3.753 h 0.78 v 0.918 c 0,0.214 0.107,0.321 0.321,0.321 h 3.909 c 0.214,0 0.321,-0.107 0.321,-0.321 v -0.918 h 0.78 v 3.148 l -3.734,4.367 h 2.633 c 0.214,0 0.321,-0.106 0.321,-0.32 v -0.918 h 0.78 v 3.753 h -0.78 v -0.917 c 0,-0.215 -0.107,-0.321 -0.321,-0.321 z"
     id="path588"
     inkscape:connector-curvature="0"
     style="fill:url(#T)" />
  <linearGradient
     id="U"
     gradientUnits="userSpaceOnUse"
     x1="-46.367001"
     y1="195.98801"
     x2="-45.367001"
     y2="195.98801"
     gradientTransform="matrix(-6.1113,0,0,-6.1113,-169.714,1333.7639)">
    <stop
       offset="0"
       stop-color="#9ba2a6"
       id="stop590" />
    <stop
       offset=".311"
       stop-color="#adb2b5"
       id="stop592" />
    <stop
       offset=".93"
       stop-color="#dadbdb"
       id="stop594" />
    <stop
       offset="1"
       stop-color="#e0e0e0"
       id="stop596" />
  </linearGradient>
  <path
     d="m 113.652,137.30893 v 3.688 h -0.78 v -0.725 c 0,-0.306 -0.107,-0.563 -0.321,-0.771 l -2.633,-2.469 h -1.276 c -0.214,0 -0.321,0.106 -0.321,0.321 v 0.917 h -0.78 v -4.45 h 0.78 v 0.918 c 0,0.214 0.107,0.321 0.321,0.321 h 1.193 l 2.716,-2.533 c 0.214,-0.208 0.321,-0.465 0.321,-0.771 v -0.725 h 0.78 v 4.532 h -0.78 v -0.449 c 0,-0.11 -0.038,-0.181 -0.115,-0.211 l -0.207,0.036 -1.596,1.496 1.596,1.496 0.207,0.036 c 0.077,-0.03 0.115,-0.101 0.115,-0.211 v -0.449 h 0.78 z"
     id="path599"
     inkscape:connector-curvature="0"
     style="fill:url(#U)" />
  <linearGradient
     id="V"
     gradientUnits="userSpaceOnUse"
     x1="-46.367001"
     y1="195.98801"
     x2="-45.367001"
     y2="195.98801"
     gradientTransform="matrix(-6.873,0,0,-6.873,-204.652,1461.8639)">
    <stop
       offset="0"
       stop-color="#9ba2a6"
       id="stop601" />
    <stop
       offset=".311"
       stop-color="#adb2b5"
       id="stop603" />
    <stop
       offset=".93"
       stop-color="#dadbdb"
       id="stop605" />
    <stop
       offset="1"
       stop-color="#e0e0e0"
       id="stop607" />
  </linearGradient>
  <path
     d="m 114.033,114.82593 c 0,-2.86 -1.472,-4.754 -3.437,-4.754 -1.965,0 -3.437,1.894 -3.437,4.754 0,2.86 1.472,4.754 3.437,4.754 1.965,0 3.437,-1.894 3.437,-4.754 z m -0.917,0 c 0,1.64 -1.08,2.726 -2.52,2.726 -1.44,0 -2.52,-1.086 -2.52,-2.726 0,-1.64 1.08,-2.727 2.52,-2.727 1.44,0 2.52,1.087 2.52,2.727 z"
     id="path610"
     inkscape:connector-curvature="0"
     style="fill:url(#V)" />
  <path
     d="m 124.38,164.56193 v -1.419 c 0,-0.276 -0.018,-0.518 -0.053,-0.723 a 1.887,1.887 0 0 0 -0.151,-0.51 c -0.066,-0.134 -0.145,-0.233 -0.239,-0.299 -0.094,-0.066 -0.198,-0.098 -0.313,-0.098 a 0.563,0.563 0 0 0 -0.278,0.076 0.672,0.672 0 0 0 -0.24,0.245 c -0.07,0.113 -0.126,0.261 -0.169,0.444 a 2.98,2.98 0 0 0 -0.064,0.671 v 1.611 h 1.507 z m -1.121,-0.981 v -0.313 c 0,-0.179 0.014,-0.319 0.042,-0.422 a 0.675,0.675 0 0 1 0.102,-0.232 l 0.119,-0.098 0.096,-0.021 0.118,0.024 0.123,0.099 c 0.038,0.049 0.07,0.119 0.096,0.212 0.026,0.092 0.039,0.214 0.039,0.366 v 0.384 h -0.735 z m -0.386,-5.32 v 0.981 h 0.821 l 0.118,0.007 0.112,0.051 0.083,0.139 a 0.873,0.873 0 0 1 0.033,0.268 0.907,0.907 0 0 1 -0.033,0.277 l -0.083,0.143 -0.112,0.051 -0.118,0.007 h -0.821 v 0.982 h 0.924 c 0.21,0 0.365,-0.12 0.467,-0.359 0.101,-0.239 0.152,-0.604 0.152,-1.096 0,-0.492 -0.051,-0.855 -0.152,-1.094 -0.102,-0.237 -0.257,-0.356 -0.467,-0.356 h -0.924 z m 0.968,-1.498 -0.464,-0.308 v -0.01 l 0.464,-0.285 z m 0.539,1.343 v -0.986 l -0.215,-0.144 v -1.013 l 0.215,-0.134 v -1.018 l -1.507,1.16 v 0.96 z m 0,-3.538 v -2.392 h -0.387 v 1.41 h -1.12 v 0.982 z m -0.507,-2.569 0.207,-0.08 0.147,-0.206 c 0.041,-0.083 0.073,-0.177 0.097,-0.281 a 3.41,3.41 0 0 0 0.084,-0.607 5.504,5.504 0 0 0 -0.02,-0.759 c -0.017,-0.176 -0.046,-0.333 -0.086,-0.473 -0.04,-0.14 -0.093,-0.253 -0.159,-0.34 a 0.301,0.301 0 0 0 -0.247,-0.129 l -0.176,0.076 -0.123,0.202 a 1.83,1.83 0 0 0 -0.082,0.288 6.484,6.484 0 0 0 -0.094,0.663 5.976,5.976 0 0 1 -0.038,0.292 l -0.046,0.212 -0.066,0.087 -0.052,-0.035 -0.031,-0.09 -0.015,-0.115 -0.004,-0.112 0.009,-0.151 0.029,-0.139 0.049,-0.096 0.072,-0.02 v -0.929 a 0.32,0.32 0 0 0 -0.231,0.12 c -0.063,0.075 -0.113,0.173 -0.152,0.295 -0.039,0.122 -0.066,0.262 -0.083,0.42 a 4.605,4.605 0 0 0 0.004,0.973 c 0.019,0.154 0.049,0.291 0.089,0.41 a 0.888,0.888 0 0 0 0.155,0.288 l 0.225,0.109 0.187,-0.099 c 0.049,-0.065 0.089,-0.149 0.121,-0.252 0.032,-0.103 0.057,-0.219 0.076,-0.348 a 38.743,38.743 0 0 0 0.101,-0.721 l 0.038,-0.21 0.038,-0.107 0.05,-0.031 0.069,0.04 0.042,0.103 0.021,0.135 0.005,0.129 c 0,0.093 -0.007,0.185 -0.021,0.276 -0.014,0.093 -0.043,0.156 -0.089,0.192 l -0.099,0.036 v 0.984 z m 0.507,-3.286 v -0.983 h -0.598 v -0.919 h 0.598 v -0.982 h -1.507 v 0.982 h 0.523 v 0.919 h -0.523 v 0.983 z m -0.754,-3.32 a 0.496,0.496 0 0 0 0.318,-0.115 0.979,0.979 0 0 0 0.249,-0.328 c 0.07,-0.142 0.124,-0.313 0.164,-0.512 0.04,-0.199 0.059,-0.419 0.059,-0.66 0,-0.241 -0.02,-0.461 -0.059,-0.66 -0.039,-0.199 -0.094,-0.37 -0.164,-0.512 a 0.954,0.954 0 0 0 -0.249,-0.327 0.492,0.492 0 0 0 -0.635,0 0.94,0.94 0 0 0 -0.249,0.327 c -0.07,0.142 -0.125,0.313 -0.164,0.512 -0.039,0.199 -0.059,0.419 -0.059,0.66 0,0.241 0.02,0.461 0.059,0.66 0.04,0.199 0.094,0.37 0.164,0.512 0.069,0.141 0.152,0.25 0.249,0.328 a 0.5,0.5 0 0 0 0.317,0.115 z m 0,-0.982 -0.207,-0.064 -0.126,-0.159 -0.063,-0.205 -0.018,-0.205 0.018,-0.205 0.063,-0.205 0.126,-0.159 0.207,-0.064 0.207,0.064 0.125,0.159 0.063,0.205 0.018,0.205 -0.018,0.205 -0.063,0.205 -0.125,0.159 z m -0.192,-5.632 c -0.19,0.042 -0.337,0.183 -0.44,0.422 -0.103,0.239 -0.156,0.58 -0.157,1.02 0,0.247 0.019,0.47 0.057,0.668 0.038,0.197 0.091,0.367 0.161,0.509 0.069,0.141 0.152,0.249 0.249,0.325 a 0.512,0.512 0 0 0 0.635,0.007 0.882,0.882 0 0 0 0.25,-0.314 2.05,2.05 0 0 0 0.167,-0.507 c 0.041,-0.199 0.061,-0.429 0.061,-0.688 0,-0.231 -0.018,-0.438 -0.055,-0.62 -0.037,-0.182 -0.085,-0.334 -0.145,-0.457 a 0.838,0.838 0 0 0 -0.202,-0.281 l -0.226,-0.096 v 0.964 l 0.099,0.06 0.081,0.099 0.053,0.147 0.019,0.212 a 0.992,0.992 0 0 1 -0.036,0.29 l -0.095,0.186 -0.133,0.1 -0.15,0.031 -0.15,-0.031 -0.133,-0.1 -0.095,-0.186 a 0.992,0.992 0 0 1 -0.036,-0.29 c 0,-0.102 0.009,-0.184 0.027,-0.248 l 0.063,-0.153 0.073,-0.081 0.058,-0.031 z m 0.946,-0.408 v -0.982 h -0.446 l -0.141,-0.272 0.587,-0.786 v -1.223 l -0.919,1.344 -0.588,-1.156 v 1.209 l 0.519,0.875 v 0.009 h -0.519 v 0.982 z m -1.396,-6.149 -0.112,-0.041 -0.08,-0.128 -0.049,-0.194 -0.016,-0.237 0.01,-0.197 0.031,-0.185 0.056,-0.135 0.083,-0.053 0.096,0.056 0.058,0.145 0.026,0.19 0.006,0.203 -0.004,0.21 -0.007,0.153 h 0.402 l -0.01,-0.147 a 4.08,4.08 0 0 1 -0.004,-0.216 l 0.007,-0.213 0.031,-0.188 0.065,-0.131 0.109,-0.051 c 0.085,0 0.145,0.053 0.179,0.157 0.035,0.104 0.052,0.246 0.052,0.425 0,0.108 -0.007,0.208 -0.021,0.298 l -0.071,0.222 c -0.053,0.121 -0.135,0.178 -0.246,0.169 v 1.188 l 0.113,0.004 0.164,-0.057 0.184,-0.169 c 0.062,-0.077 0.119,-0.188 0.17,-0.332 0.051,-0.144 0.093,-0.328 0.126,-0.554 0.032,-0.225 0.049,-0.5 0.049,-0.825 0,-0.354 -0.022,-0.65 -0.067,-0.886 a 2.433,2.433 0 0 0 -0.164,-0.563 0.767,0.767 0 0 0 -0.21,-0.295 l -0.208,-0.084 -0.194,0.053 -0.13,0.132 -0.08,0.172 -0.044,0.172 -0.022,0.132 -0.012,0.053 h -0.006 l -0.012,-0.091 -0.05,-0.196 -0.129,-0.197 c -0.058,-0.061 -0.141,-0.091 -0.25,-0.091 l -0.157,0.084 a 0.83,0.83 0 0 0 -0.175,0.282 2.494,2.494 0 0 0 -0.14,0.519 4.579,4.579 0 0 0 -0.058,0.798 c 0,0.246 0.015,0.478 0.043,0.694 0.029,0.217 0.072,0.409 0.129,0.576 0.059,0.167 0.133,0.298 0.222,0.394 a 0.432,0.432 0 0 0 0.316,0.15 v -1.175 z m 1.265,2.462 h -0.268 v -0.28 l 0.021,-0.128 0.054,-0.048 0.057,0.054 0.008,0.032 0.004,-0.019 0.046,-0.049 0.044,-0.003 0.019,-0.006 0.009,-0.019 h 0.007 v 0.128 l -0.018,0.008 -0.029,0.004 h -0.025 l -0.026,0.022 -0.008,0.07 v 0.115 h 0.106 v 0.119 z m -0.151,-0.117 v -0.134 l -0.009,-0.067 -0.027,-0.022 -0.026,0.021 -0.009,0.063 v 0.139 z"
     id="path612"
     inkscape:connector-curvature="0"
     style="fill:#2e90d7" />
  <path
     d="m 124.119,133.96693 v 0.031 l 0.137,0.127 c 0.04,0.084 0.065,0.203 0.065,0.336 0,0.133 -0.025,0.253 -0.065,0.337 l -0.137,0.127 -0.137,-0.127 c -0.04,-0.084 -0.065,-0.204 -0.065,-0.337 0,-0.133 0.025,-0.252 0.065,-0.336 l 0.137,-0.127 v -0.062 c -0.167,0.01 -0.262,0.247 -0.265,0.525 0.003,0.278 0.098,0.517 0.265,0.526 0.167,-0.01 0.262,-0.248 0.265,-0.526 -0.003,-0.278 -0.098,-0.516 -0.265,-0.525 z"
     id="path614"
     inkscape:connector-curvature="0"
     style="fill:#2e90d7" />
  <path
     d="m 71.921,188.54693 8.503,8.504 0.707,-0.707 -8.503,-8.504 z m 0.707,8.504 8.503,-8.504 -0.707,-0.707 -8.503,8.504 z"
     id="path616"
     inkscape:connector-curvature="0"
     style="fill:#94b8f2" />
  <linearGradient
     id="W"
     gradientUnits="userSpaceOnUse"
     x1="-46.367001"
     y1="195.98801"
     x2="-45.367001"
     y2="195.98801"
     gradientTransform="matrix(-3.5205,0,0,-3.5205,-38.57,810.55993)">
    <stop
       offset="0"
       stop-color="#23262a"
       id="stop618" />
    <stop
       offset=".132"
       stop-color="#35373b"
       id="stop620" />
    <stop
       offset=".394"
       stop-color="#636567"
       id="stop622" />
    <stop
       offset=".76"
       stop-color="#acadae"
       id="stop624" />
    <stop
       offset="1"
       stop-color="#e0e0e0"
       id="stop626" />
  </linearGradient>
  <path
     d="m 123.974,120.45993 c 0.044,-0.307 0.18,-0.529 0.339,-0.529 0.196,0 0.355,0.336 0.355,0.751 0,0.415 -0.159,0.751 -0.355,0.751 -0.159,0 -0.294,-0.223 -0.339,-0.529 h -0.8 c -0.002,0.016 -0.256,0.588 -0.331,0.743 -0.16,0.334 -0.247,0.433 -0.408,0.465 l -0.042,0.01 -0.009,0.003 v 0.197 l -0.001,0.196 h -0.516 l -0.001,-0.579 v -0.58 h 0.518 v 0.429 l 0.024,-0.005 c 0.164,-0.026 0.202,-0.084 0.515,-0.781 l 0.044,-0.102 c 0,-0.002 -0.287,-0.003 -0.638,-0.003 h -0.638 v 0.24 c 0,0.142 -0.001,0.24 -0.002,0.24 -10e-4,0 -0.121,-0.153 -0.265,-0.339 l -0.27,-0.349 -0.007,-0.01 0.27,-0.35 0.272,-0.351 a 7.56,7.56 0 0 1 0.002,0.242 v 0.244 h 0.952 c 0.524,0 0.952,-0.002 0.952,-0.004 0,-0.007 -0.094,-0.247 -0.145,-0.371 a 4.851,4.851 0 0 0 -0.189,-0.403 c -0.069,-0.116 -0.123,-0.173 -0.191,-0.203 -0.045,-0.02 -0.075,-0.024 -0.168,-0.024 h -0.093 l -0.007,0.05 c -0.025,0.182 -0.083,0.33 -0.162,0.41 l -0.122,0.056 -0.122,-0.056 c -0.192,-0.195 -0.236,-0.765 -0.083,-1.091 0.053,-0.113 0.118,-0.176 0.192,-0.184 0.125,-0.013 0.243,0.157 0.289,0.419 l 0.009,0.051 0.096,0.004 c 0.133,0.005 0.191,0.021 0.262,0.07 0.16,0.112 0.302,0.391 0.576,1.128 l 0.054,0.144 z"
     id="path629"
     inkscape:connector-curvature="0"
     style="fill:url(#W)" />
  <path
     d="m 76.16,85.300931 c 0,10.251 -8.311,18.561999 -18.562,18.561999 -10.252,0 -18.563,-8.310999 -18.563,-18.561999 0,-10.251 8.311,-18.563 18.563,-18.563 10.251,10e-4 18.562,8.312 18.562,18.563 z m 0,70.065999 c 0,10.251 -8.311,18.562 -18.562,18.562 -10.252,0 -18.563,-8.311 -18.563,-18.563 0,-10.251 8.311,-18.562 18.563,-18.562 10.251,0.001 18.562,8.311 18.562,18.563 z"
     id="path631"
     inkscape:connector-curvature="0"
     style="fill:#1b1b1c" />
  <radialGradient
     id="X"
     cx="-46.367001"
     cy="195.98801"
     r="1"
     gradientTransform="matrix(0,16.2091,-16.2091,0,3234.396,836.87593)"
     gradientUnits="userSpaceOnUse">
    <stop
       offset="0"
       stop-color="#23262a"
       id="stop633" />
    <stop
       offset=".405"
       stop-color="#25292d"
       id="stop635" />
    <stop
       offset=".754"
       stop-color="#2c3038"
       id="stop637" />
    <stop
       offset=".883"
       stop-color="#30353e"
       id="stop639" />
    <stop
       offset=".926"
       stop-color="#444d56"
       id="stop641" />
    <stop
       offset=".929"
       stop-color="#414952"
       id="stop643" />
    <stop
       offset=".94"
       stop-color="#373e47"
       id="stop645" />
    <stop
       offset=".956"
       stop-color="#323740"
       id="stop647" />
    <stop
       offset="1"
       stop-color="#30353e"
       id="stop649" />
  </radialGradient>
  <path
     d="m 57.598,101.51093 c -8.952,0 -16.209,-7.256999 -16.209,-16.208999 0,-8.952 7.257,-16.209 16.209,-16.209 8.952,0 16.209,7.257 16.209,16.209 0,8.952 -7.257,16.208999 -16.209,16.208999 z"
     id="path652"
     inkscape:connector-curvature="0"
     style="fill:url(#X)" />
  <radialGradient
     id="Y"
     cx="-46.367001"
     cy="195.98801"
     r="1"
     gradientTransform="matrix(0,16.2092,-16.2092,0,3234.421,906.94693)"
     gradientUnits="userSpaceOnUse">
    <stop
       offset="0"
       stop-color="#23262a"
       id="stop654" />
    <stop
       offset=".405"
       stop-color="#25292d"
       id="stop656" />
    <stop
       offset=".754"
       stop-color="#2c3038"
       id="stop658" />
    <stop
       offset=".883"
       stop-color="#30353e"
       id="stop660" />
    <stop
       offset=".926"
       stop-color="#444d56"
       id="stop662" />
    <stop
       offset=".929"
       stop-color="#414952"
       id="stop664" />
    <stop
       offset=".94"
       stop-color="#373e47"
       id="stop666" />
    <stop
       offset=".956"
       stop-color="#323740"
       id="stop668" />
    <stop
       offset="1"
       stop-color="#30353e"
       id="stop670" />
  </radialGradient>
  <path
     d="m 57.598,171.57593 c -8.952,0 -16.209,-7.258 -16.209,-16.209 0,-8.952 7.257,-16.21 16.209,-16.21 8.952,0 16.209,7.258 16.209,16.21 0,8.951 -7.257,16.209 -16.209,16.209 z"
     id="path673"
     inkscape:connector-curvature="0"
     style="fill:url(#Y)" />
</svg>
