<?xml version="1.0" encoding="UTF-8" standalone="no"?>
<svg
   xmlns:dc="http://purl.org/dc/elements/1.1/"
   xmlns:cc="http://creativecommons.org/ns#"
   xmlns:rdf="http://www.w3.org/1999/02/22-rdf-syntax-ns#"
   xmlns:svg="http://www.w3.org/2000/svg"
   xmlns="http://www.w3.org/2000/svg"
   xmlns:sodipodi="http://sodipodi.sourceforge.net/DTD/sodipodi-0.dtd"
   xmlns:inkscape="http://www.inkscape.org/namespaces/inkscape"
   viewBox="0 0 88.588009 237.767"
   version="1.1"
   id="svg93"
   sodipodi:docname="controller.svg"
   width="88.588005"
   height="237.767"
   inkscape:version="0.92.4 5da689c313, 2019-01-14">
  <metadata
     id="metadata99">
    <rdf:RDF>
      <cc:Work
         rdf:about="">
        <dc:format>image/svg+xml</dc:format>
        <dc:type
           rdf:resource="http://purl.org/dc/dcmitype/StillImage" />
      </cc:Work>
    </rdf:RDF>
  </metadata>
  <defs
     id="defs97" />
  <sodipodi:namedview
     pagecolor="#ffffff"
     bordercolor="#666666"
     borderopacity="1"
     objecttolerance="10"
     gridtolerance="10"
     guidetolerance="10"
     inkscape:pageopacity="0"
     inkscape:pageshadow="2"
     inkscape:window-width="471"
     inkscape:window-height="442"
     id="namedview95"
     showgrid="false"
     inkscape:zoom="0.99256836"
     inkscape:cx="44.294998"
     inkscape:cy="118.8835"
     inkscape:window-x="0"
     inkscape:window-y="0"
     inkscape:window-maximized="0"
     inkscape:current-layer="svg93">
    <inkscape:grid
       type="xygrid"
       id="grid101"
       originx="0"
       originy="1.7089844e-06" />
  </sodipodi:namedview>
  <circle
     transform="rotate(-45.001)"
     cx="-105.48784"
     cy="168.82144"
     r="43.800999"
     id="circle2"
     style="fill:#211c1d" />
  <g
     id="g6"
     style="opacity:0.1;fill:#808094">
    <path
       d="m 44.789,234.548 8.892,-8.59 h -4.343 v -9.829 H 40.24 v 9.829 h -4.343 z m 28.696,-11.886 0.213,-12.362 -3.071,3.071 -6.95,-6.95 -6.433,6.433 6.95,6.95 -3.072,3.071 z m 11.886,-28.695 -8.591,-8.893 v 4.343 h -9.828 v 9.098 h 9.828 v 4.344 z m -11.886,-28.696 -12.362,-0.213 3.071,3.071 -6.95,6.949 6.433,6.434 6.95,-6.95 3.071,3.071 z m -28.696,-11.887 -8.892,8.591 h 4.343 v 9.829 h 9.098 v -9.829 h 4.343 z m -28.696,11.886 -0.213,12.363 3.071,-3.071 6.95,6.95 6.433,-6.434 -6.949,-6.949 3.071,-3.072 z m -11.886,28.696 8.591,8.892 v -4.343 h 9.828 v -9.098 h -9.828 v -4.343 z m 11.886,28.696 12.362,0.213 -3.071,-3.071 6.95,-6.95 -6.433,-6.433 -6.95,6.95 -3.071,-3.071 z"
       id="path4"
       inkscape:connector-curvature="0" />
  </g>
  <path
     d="M 44.295,237.761 C 20.332,237.496 0.988,217.992 0.988,193.966 c 0,-24.025 19.344,-43.529 43.307,-43.795 -0.165,-0.002 -0.329,-0.006 -0.494,-0.006 C 19.61,150.165 0,169.776 0,193.966 c 0,24.191 19.61,43.801 43.801,43.801 0.165,0 0.329,-0.004 0.494,-0.006 z"
     id="path8"
     inkscape:connector-curvature="0"
     style="fill:#6d6e6f" />
  <linearGradient
     id="a"
     gradientUnits="userSpaceOnUse"
     x1="313.09799"
     y1="1146.832"
     x2="292.13901"
     y2="1125.873"
     gradientTransform="rotate(90,644.88,536.228)">
    <stop
       offset="0"
       stop-color="#a4a5a9"
       id="stop10" />
    <stop
       offset="1"
       stop-color="#e6e6e7"
       id="stop12" />
  </linearGradient>
  <circle
     cx="44.755001"
     cy="193.966"
     r="14.82"
     id="circle15"
     style="fill:url(#a)" />
  <circle
     cx="44.755001"
     cy="193.966"
     r="11.808"
     id="circle17"
     style="opacity:0.3;fill:#211c1d" />
  <linearGradient
     id="b"
     gradientUnits="userSpaceOnUse"
     x1="292.215"
     y1="1146.825"
     x2="313.091"
     y2="1125.949"
     gradientTransform="rotate(90,644.88,536.228)">
    <stop
       offset="0"
       stop-color="#211c1d"
       stop-opacity="0"
       id="stop19" />
    <stop
       offset=".045"
       stop-color="#211c1d"
       stop-opacity=".09"
       id="stop21" />
    <stop
       offset=".5"
       stop-color="#211c1d"
       id="stop23" />
    <stop
       offset=".955"
       stop-color="#211c1d"
       stop-opacity=".09"
       id="stop25" />
    <stop
       offset="1"
       stop-color="#211c1d"
       stop-opacity="0"
       id="stop27" />
  </linearGradient>
  <path
     d="m 59.482,194 c 0,-8.153 -6.609,-14.761 -14.762,-14.761 -8.152,0 -14.761,6.609 -14.761,14.761 0,8.152 6.609,14.761 14.761,14.761 8.153,0.001 14.762,-6.608 14.762,-14.761 z m -28.728,-0.182 c 0,-7.814 6.335,-14.149 14.149,-14.149 7.814,0 14.149,6.335 14.149,14.149 0,7.814 -6.335,14.149 -14.149,14.149 -7.814,0 -14.149,-6.335 -14.149,-14.149 z"
     id="path30"
     inkscape:connector-curvature="0"
     style="opacity:0.15;fill:url(#b)" />
  <linearGradient
     id="c"
     gradientUnits="userSpaceOnUse"
     x1="-3911.7561"
     y1="-2407.4651"
     x2="-3890.8799"
     y2="-2428.3411"
     gradientTransform="rotate(-90,-622.347,-3084.97)">
    <stop
       offset="0"
       stop-color="#fff"
       stop-opacity="0"
       id="stop32" />
    <stop
       offset=".5"
       stop-color="#fff"
       id="stop34" />
    <stop
       offset="1"
       stop-color="#fff"
       stop-opacity="0"
       id="stop36" />
  </linearGradient>
  <path
     d="m 29.96,194 c 0,8.152 6.609,14.762 14.761,14.762 8.153,0 14.761,-6.609 14.761,-14.762 0,-8.153 -6.609,-14.761 -14.761,-14.761 -8.153,0 -14.761,6.609 -14.761,14.761 z m 28.728,0.182 c 0,7.814 -6.335,14.149 -14.149,14.149 -7.814,0 -14.149,-6.335 -14.149,-14.149 0,-7.814 6.335,-14.149 14.149,-14.149 7.814,0.001 14.149,6.335 14.149,14.149 z"
     id="path39"
     inkscape:connector-curvature="0"
     style="opacity:0.4;fill:url(#c)" />
  <linearGradient
     id="d"
     gradientUnits="userSpaceOnUse"
     x1="291.366"
     y1="1118.745"
     x2="313.939"
     y2="1141.319"
     gradientTransform="rotate(90,644.88,536.228)">
    <stop
       offset="0"
       stop-color="#999"
       id="stop41" />
    <stop
       offset="1"
       stop-color="#e6e6e6"
       id="stop43" />
  </linearGradient>
  <radialGradient
     id="e"
     cx="55.743"
     cy="193.795"
     r="20.511"
     gradientTransform="matrix(0.866,-0.5,0.35,0.6062,-60.36,104.185)"
     gradientUnits="userSpaceOnUse">
    <stop
       offset="0"
       stop-color="#ac6566"
       id="stop46" />
    <stop
       offset=".033"
       stop-color="#ac6463"
       id="stop48" />
    <stop
       offset=".314"
       stop-color="#ac564c"
       id="stop50" />
    <stop
       offset=".577"
       stop-color="#ac4a3c"
       id="stop52" />
    <stop
       offset=".813"
       stop-color="#ab4032"
       id="stop54" />
    <stop
       offset="1"
       stop-color="#ab3d2f"
       id="stop56" />
  </radialGradient>
  <circle
     cx="55.743"
     cy="193.795"
     r="20.511"
     id="circle59"
     style="fill:url(#e)" />
  <g
     id="g91">
    <circle
       cx="61.400002"
       cy="96.678001"
       r="17.455"
       id="circle61"
       style="fill:#a33e2f" />
    <circle
       cx="61.400002"
       cy="96.678001"
       r="13.877"
       id="circle63"
       style="fill:#9d2d20" />
    <circle
       cx="27.23"
       cy="41.464001"
       r="17.455"
       id="circle65"
       style="fill:#a33e2f" />
    <circle
       cx="27.23"
       cy="41.464001"
       r="13.877"
       id="circle67"
       style="fill:#9d2d20" />
    <circle
       cx="61.223999"
       cy="59.698002"
       r="17.455"
       id="circle69"
       style="fill:#a33e2f" />
    <circle
       cx="61.223999"
       cy="59.698002"
       r="13.877"
       id="circle71"
       style="fill:#9d2d20" />
    <g
       id="g77">
      <circle
         cx="27.190001"
         cy="115.782"
         r="17.455"
         id="circle73"
         style="fill:#a33e2f" />
      <circle
         cx="27.190001"
         cy="115.782"
         r="13.877"
         id="circle75"
         style="fill:#9d2d20" />
    </g>
    <g
       id="g83">
      <circle
         cx="27.486"
         cy="78.443001"
         r="17.455"
         id="circle79"
         style="fill:#a33e2f" />
      <circle
         cx="27.486"
         cy="78.443001"
         r="13.877"
         id="circle81"
         style="fill:#9d2d20" />
    </g>
    <g
       id="g89">
      <circle
         cx="60.969002"
         cy="17.455"
         r="17.455"
         id="circle85"
         style="fill:#a33e2f" />
      <circle
         cx="60.969002"
         cy="17.455"
         r="13.877"
         id="circle87"
         style="fill:#9d2d20" />
    </g>
  </g>
</svg>
