<?xml version="1.0" encoding="UTF-8" standalone="no"?>
<svg
   xmlns:dc="http://purl.org/dc/elements/1.1/"
   xmlns:cc="http://creativecommons.org/ns#"
   xmlns:rdf="http://www.w3.org/1999/02/22-rdf-syntax-ns#"
   xmlns:svg="http://www.w3.org/2000/svg"
   xmlns="http://www.w3.org/2000/svg"
   xmlns:sodipodi="http://sodipodi.sourceforge.net/DTD/sodipodi-0.dtd"
   xmlns:inkscape="http://www.inkscape.org/namespaces/inkscape"
   viewBox="0 0 371 296.827"
   version="1.1"
   id="svg303"
   sodipodi:docname="logo.svg"
   width="371"
   height="296.827"
   inkscape:version="0.92.4 5da689c313, 2019-01-14">
  <metadata
     id="metadata309">
    <rdf:RDF>
      <cc:Work
         rdf:about="">
        <dc:format>image/svg+xml</dc:format>
        <dc:type
           rdf:resource="http://purl.org/dc/dcmitype/StillImage" />
      </cc:Work>
    </rdf:RDF>
  </metadata>
  <defs
     id="defs307" />
  <sodipodi:namedview
     pagecolor="#ffffff"
     bordercolor="#666666"
     borderopacity="1"
     objecttolerance="10"
     gridtolerance="10"
     guidetolerance="10"
     inkscape:pageopacity="0"
     inkscape:pageshadow="2"
     inkscape:window-width="471"
     inkscape:window-height="442"
     id="namedview305"
     showgrid="false"
     inkscape:zoom="0.23321859"
     inkscape:cx="184"
     inkscape:cy="148.4135"
     inkscape:window-x="0"
     inkscape:window-y="0"
     inkscape:window-maximized="0"
     inkscape:current-layer="svg303">
    <inkscape:grid
       type="xygrid"
       id="grid311"
       originx="-397"
       originy="4.1503907e-06" />
  </sodipodi:namedview>
  <path
     d="M 366.693,118.176 250.238,118.142 0,38.839 V 0.483 C 1.118,0.431 115.453,0.476 171.585,0.476 c 41.705,0 83.41,0.005 125.115,-0.002 15.824,-0.003 29.558,5.623 41.513,15.708 14.562,12.285 23.351,28.167 28.204,46.393 0.223,0.838 0.271,1.741 0.272,2.615 0.016,16.822 0.004,52.986 0.004,52.986 z"
     id="path2"
     inkscape:connector-curvature="0"
     style="fill:#ffe1b2" />
  <path
     d="m 221.921,115.752 v 96.4 h 32.329 v 84.675 H 78.679 v -43.568 l 42.905,-21.643 V 83.949 Z"
     id="path4"
     inkscape:connector-curvature="0"
     style="fill:#fe822e" />
  <path
     d="m 233.287,127.293 h 133.244 v 74.27 H 233.287 Z"
     id="path6"
     inkscape:connector-curvature="0"
     style="fill:#fbd4a4" />
  <path
     d="m 324.003,188.13 42.547,-34.038 v 20.154 l -32.694,25.081 z m -47.922,5.823 -9.741,6.606 13.66,1.231 3.247,-3.359 z"
     id="path8"
     inkscape:connector-curvature="0"
     style="fill:#fec486" />
  <path
     d="m 308.889,175.462 56.793,-44.624"
     id="path10"
     inkscape:connector-curvature="0"
     style="fill:#fef2bd;stroke:#fef2bd;stroke-width:1.954" />
  <path
     d="m 321.764,187.235 -12.54,-13.884 -13.487,9.807 -13.385,13.594 6.27,5.374 17.579,-0.56 z m -86.887,-1.344 c 1.791,-0.448 24.185,-16.123 24.185,-16.123 l -5.822,-9.405 32.247,-20.602 -7.614,-11.197 58.671,-1.344 -101.802,73.263 z"
     id="path12"
     inkscape:connector-curvature="0"
     style="fill:#fec486" />
  <path
     d="m 339.929,201.76 25.973,-20.057 v 0"
     id="path14"
     inkscape:connector-curvature="0"
     style="fill:#fef2bd;stroke:#fef2bd;stroke-width:1.954" />
  <path
     d="m 351.891,201.516 13.698,-10.957 v 0"
     id="path16"
     inkscape:connector-curvature="0"
     style="fill:#fef2bd;stroke:#fef2bd;stroke-width:1.15900004" />
  <path
     d="m 253.199,158.918 -18.846,12.15 -0.439,-18.611 6.716,-5.756 -4.982,-6.951 18.562,-12.068 c 5.866,-0.248 11.725,-0.124 17.59,0.023 l -27.301,17.685 z"
     id="path18"
     inkscape:connector-curvature="0"
     style="fill:#ed9954" />
  <path
     d="m 313.558,116.789 26.776,-15.952 10.824,14.812 z"
     id="path20"
     inkscape:connector-curvature="0"
     style="fill:#fec486" />
  <path
     d="M 308.961,117.359 339.195,99.128 331.585,88.791 289.63,116.22 Z"
     id="path22"
     inkscape:connector-curvature="0"
     style="fill:#fcc486" />
  <path
     d="m 221.105,93.349 -12.372,9.198 -6.267,-1.139 -4.192,-0.731 L 215,86.596 219.558,90.014 245.195,72.923 234.371,58.68 297.038,25.067 282.934,0.458 309,1.139 l 24.497,10.824 18.231,22.788 -126.474,73.492 -10.255,-3.418 10.215,-7.854 z"
     id="path24"
     inkscape:connector-curvature="0"
     style="fill:#f7c589" />
  <path
     d="m 232.66,58.679 -25.637,22.218 -16.95,17.286 -9.955,-3.296 5.256,-10.002 3.988,1.709 10.824,-14.812 -7.406,-6.836 17.091,-13.673 13.103,-8.546 z"
     id="path26"
     inkscape:connector-curvature="0"
     style="fill:#ffb978" />
  <path
     d="m 175.815,93.306 7.28,-15.826 8.546,-11.394 -9.685,-5.127 -12.533,15.951 5.127,2.849 -5.444,11.458 z"
     id="path28"
     inkscape:connector-curvature="0"
     style="fill:#feb46d" />
  <path
     d="m 162.076,89.852 5.638,-10.663 -4.558,-2.279 -5.453,11.111 z"
     id="path30"
     inkscape:connector-curvature="0"
     style="fill:#e79552" />
  <path
     d="M 149.971,85.864 159.738,67.225 175.12,48.425 199.617,27.346 230.381,9.115 262.285,0 183.666,1.139 148.344,27.345 132.962,12.533 111.883,28.485 97.071,45.006 84.538,34.751 65.494,59.087 l 23.602,7.406 9.115,-20.918 14.243,9.685 -7.367,16.482 13.226,4.59 7.814,-20.502 9.115,-15.382 9.685,-11.394 15.952,13.103 -15.382,22.218 6.267,1.709 -5.088,11.516 -5.127,-2.035 -1.913,6.471 z"
     id="path32"
     inkscape:connector-curvature="0"
     style="fill:#fab474" />
  <path
     d="M 26.908,47.366 45.427,31.422 97.07,0.458 0,0.483 v 38.356 z"
     id="path34"
     inkscape:connector-curvature="0"
     style="fill:#ed9954" />
  <path
     d="M 140.938,1.351 111.883,19.465 89.095,37.03 84.537,34.285 114.731,11.231 135.821,1.353 Z"
     id="path36"
     inkscape:connector-curvature="0"
     style="fill:#f6d998" />
  <path
     d="m 222.975,92.292 118.498,-67.795 3.988,0.57 -121.916,70.074 z"
     id="path38"
     inkscape:connector-curvature="0"
     style="fill:#fec887" />
  <path
     d="m 242.06,65.374 93.716,-51.131 1.139,3.418 -93.269,50.453 z"
     id="path40"
     inkscape:connector-curvature="0"
     style="fill:#fed08f" />
  <path
     d="M 240.065,112.115 357.493,43.43 355.076,41.013 234.626,109.899 Z"
     id="path42"
     inkscape:connector-curvature="0"
     style="fill:#fcd9aa" />
  <path
     d="M 246.712,114.129 361.723,49.674 359.709,47.458 243.288,113.725 Z"
     id="path44"
     inkscape:connector-curvature="0"
     style="fill:#fcd4a4" />
  <path
     d="m 265.444,109.295 -1.611,-2.014 98.293,-55.189 1.208,2.216 z"
     id="path46"
     inkscape:connector-curvature="0"
     style="fill:#fed9a8" />
  <path
     d="m 270.681,114.532 94.466,-54.585 -0.604,-3.827 -97.286,55.592 z"
     id="path48"
     inkscape:connector-curvature="0"
     style="fill:#fcdbac" />
  <path
     d="m 340.977,100.029 c 1.208,-0.403 26.789,-16.114 26.789,-16.114 l -1.209,12.488 -19.941,11.884 z"
     id="path50"
     inkscape:connector-curvature="0"
     style="fill:#fee5b6" />
  <path
     d="m 352.458,114.733 15.107,-9.064 -1.007,-6.043 -17.927,10.474 3.223,4.028 z"
     id="path52"
     inkscape:connector-curvature="0"
     style="fill:#efd8ac" />
  <path
     d="M 188.904,58.939 206.629,43.228 226.368,31.143 253.761,18.051 283.974,4.959 285.384,6.57 251.948,21.274 225.16,33.762 207.234,45.847 191.12,60.551 Z"
     id="path54"
     inkscape:connector-curvature="0"
     style="fill:#fedca6" />
  <path
     d="m 155.304,272 -6.073,-8.687 -11.324,2.745 7.597,-8.019 -6.167,-8.634 10.768,3.731 7.512,-8.08 -0.941,10.325 10.81,3.64 -11.35,2.65 z"
     id="path56"
     inkscape:connector-curvature="0"
     style="fill:#f3a0ef" />
  <path
     d="m 154.151,266.966 -3.728,-5.333 -6.95,1.685 4.663,-4.922 -3.785,-5.3 6.61,2.29 4.611,-4.96 -0.578,6.338 6.636,2.234 -6.967,1.627 z"
     id="path58"
     inkscape:connector-curvature="0"
     style="fill:#edc6fd" />
  <path
     d="m 127.128,262.898 -3.188,-4.56 -5.945,1.44 3.988,-4.21 -3.237,-4.532 5.653,1.96 3.944,-4.243 -0.495,5.42 5.675,1.911 -5.958,1.391 z"
     id="path60"
     inkscape:connector-curvature="0"
     style="fill:#f3a0ef" />
  <path
     d="m 126.523,260.255 -1.957,-2.8 -3.649,0.885 2.448,-2.584 -1.987,-2.782 3.47,1.202 2.421,-2.604 -0.303,3.327 3.483,1.173 -3.657,0.854 -0.27,3.33 z"
     id="path62"
     inkscape:connector-curvature="0"
     style="fill:#ebc4fd" />
  <path
     d="m 141.92,293.618 -3.189,-4.56 -5.944,1.441 3.988,-4.21 -3.238,-4.532 5.653,1.959 3.944,-4.242 -0.494,5.42 5.674,1.91 -5.958,1.392 z"
     id="path64"
     inkscape:connector-curvature="0"
     style="fill:#f3a0ef" />
  <path
     d="m 141.314,290.976 -1.956,-2.8 -3.65,0.885 2.449,-2.584 -1.987,-2.782 3.47,1.202 2.42,-2.604 -0.303,3.328 3.483,1.172 -3.657,0.854 -0.269,3.33 z"
     id="path66"
     inkscape:connector-curvature="0"
     style="fill:#ebc4fd" />
  <path
     d="m 177.76,291.058 -3.187,-4.56 -5.945,1.441 3.988,-4.21 -3.237,-4.532 5.653,1.959 3.943,-4.242 -0.494,5.42 5.675,1.91 -5.959,1.392 -0.436,5.422 z"
     id="path68"
     inkscape:connector-curvature="0"
     style="fill:#f3a0ef" />
  <path
     d="m 177.155,288.416 -1.957,-2.8 -3.648,0.885 2.448,-2.584 -1.988,-2.782 3.47,1.202 2.421,-2.604 -0.303,3.327 3.483,1.173 -3.657,0.854 -0.269,3.33 z"
     id="path70"
     inkscape:connector-curvature="0"
     style="fill:#ebc4fd" />
  <path
     d="m 193.406,255.786 -3.188,-4.56 -5.945,1.44 3.988,-4.209 -3.237,-4.532 5.652,1.959 3.944,-4.242 -0.494,5.42 5.674,1.91 -5.958,1.392 z"
     id="path72"
     inkscape:connector-curvature="0"
     style="fill:#f3a0ef" />
  <path
     d="m 192.8,253.144 -1.957,-2.8 -3.649,0.885 2.448,-2.584 -1.987,-2.782 3.47,1.202 2.421,-2.604 -0.303,3.327 3.483,1.173 -3.657,0.854 z"
     id="path74"
     inkscape:connector-curvature="0"
     style="fill:#ebc4fd" />
  <path
     d="m 175.77,217.1 -3.189,-4.56 -5.944,1.442 3.988,-4.21 -3.238,-4.533 5.653,1.96 3.944,-4.243 -0.494,5.42 5.674,1.91 -5.958,1.392 -0.436,5.423 z"
     id="path76"
     inkscape:connector-curvature="0"
     style="fill:#f3a0ef" />
  <path
     d="m 175.164,214.458 -1.957,-2.799 -3.649,0.885 2.448,-2.584 -1.987,-2.783 3.47,1.203 2.421,-2.605 -0.304,3.328 3.484,1.173 -3.658,0.854 z"
     id="path78"
     inkscape:connector-curvature="0"
     style="fill:#ebc4fd" />
  <path
     d="m 151.875,234.452 -3.188,-4.56 -5.944,1.441 3.988,-4.21 -3.238,-4.532 5.653,1.959 3.943,-4.242 -0.494,5.42 5.675,1.91 -5.958,1.392 z"
     id="path80"
     inkscape:connector-curvature="0"
     style="fill:#f3a0ef" />
  <path
     d="m 151.27,231.81 -1.957,-2.8 -3.649,0.885 2.448,-2.584 -1.987,-2.782 3.47,1.202 2.421,-2.604 -0.303,3.327 3.483,1.173 -3.657,0.854 -0.269,3.33 z"
     id="path82"
     inkscape:connector-curvature="0"
     style="fill:#ebc4fd" />
  <path
     d="m 228.26,263.466 -3.54,-4.744 -6.597,1.5 4.426,-4.38 -3.593,-4.714 6.274,2.037 4.377,-4.413 -0.549,5.639 6.299,1.987 -6.613,1.447 -0.485,5.64 z"
     id="path84"
     inkscape:connector-curvature="0"
     style="fill:#f3a0ef" />
  <path
     d="m 227.588,260.717 -2.172,-2.912 -4.05,0.92 2.717,-2.688 -2.206,-2.894 3.852,1.25 2.687,-2.708 -0.337,3.461 3.866,1.22 -4.06,0.889 z"
     id="path86"
     inkscape:connector-curvature="0"
     style="fill:#ebc4fd" />
  <path
     d="m 218.069,273.137 -2.663,-3.569 -4.964,1.128 3.33,-3.295 -2.703,-3.547 4.72,1.533 3.294,-3.32 -0.413,4.242 4.74,1.495 -4.977,1.09 z"
     id="path88"
     inkscape:connector-curvature="0"
     style="fill:#f3a0ef" />
  <path
     d="m 217.564,271.07 -1.635,-2.192 -3.047,0.693 2.045,-2.023 -1.66,-2.177 2.898,0.94 2.022,-2.038 -0.254,2.605 2.91,0.917 -3.055,0.669 -0.224,2.605 z"
     id="path90"
     inkscape:connector-curvature="0"
     style="fill:#ebc4fd" />
  <path
     d="m 172.242,250.249 -2.453,-3.509 -4.574,1.109 3.068,-3.24 -2.49,-3.486 4.349,1.507 3.034,-3.264 -0.38,4.17 4.366,1.47 -4.584,1.07 z"
     id="path92"
     inkscape:connector-curvature="0"
     style="fill:#f3a0ef" />
  <path
     d="m 171.776,248.216 -1.506,-2.154 -2.807,0.68 1.883,-1.988 -1.529,-2.14 2.67,0.924 1.863,-2.003 -0.234,2.56 2.68,0.902 -2.814,0.657 z"
     id="path94"
     inkscape:connector-curvature="0"
     style="fill:#ebc4fd" />
  <path
     d="m 144.365,246.835 -2.453,-3.508 -4.574,1.108 3.069,-3.239 -2.491,-3.487 4.35,1.507 3.034,-3.264 -0.38,4.17 4.365,1.47 -4.584,1.071 z"
     id="path96"
     inkscape:connector-curvature="0"
     style="fill:#f3a0ef" />
  <path
     d="m 143.9,244.802 -1.506,-2.154 -2.808,0.681 1.884,-1.988 -1.529,-2.14 2.67,0.924 1.863,-2.004 -0.234,2.56 2.68,0.903 -2.814,0.657 z"
     id="path98"
     inkscape:connector-curvature="0"
     style="fill:#ebc4fd" />
  <path
     d="m 138.676,268.738 -2.453,-3.508 -4.574,1.108 3.069,-3.239 -2.491,-3.487 4.35,1.507 3.034,-3.264 -0.38,4.17 4.366,1.47 -4.585,1.071 z"
     id="path100"
     inkscape:connector-curvature="0"
     style="fill:#f3a0ef" />
  <path
     d="m 138.21,266.705 -1.505,-2.154 -2.808,0.68 1.884,-1.987 -1.53,-2.141 2.67,0.925 1.863,-2.004 -0.233,2.56 2.68,0.903 -2.814,0.657 z"
     id="path102"
     inkscape:connector-curvature="0"
     style="fill:#ebc4fd" />
  <path
     d="m 151.192,280.4 -2.453,-3.508 -4.574,1.109 3.069,-3.24 -2.491,-3.486 4.35,1.507 3.033,-3.264 -0.38,4.17 4.366,1.47 -4.584,1.07 -0.336,4.173 z"
     id="path104"
     inkscape:connector-curvature="0"
     style="fill:#f3a0ef" />
  <path
     d="m 150.726,278.368 -1.505,-2.154 -2.808,0.68 1.884,-1.988 -1.53,-2.14 2.67,0.924 1.863,-2.003 -0.233,2.56 2.68,0.902 -2.814,0.657 z"
     id="path106"
     inkscape:connector-curvature="0"
     style="fill:#ebc4fd" />
  <path
     d="m 169.681,271.867 -2.453,-3.509 -4.573,1.11 3.068,-3.24 -2.49,-3.487 4.349,1.507 3.034,-3.264 -0.38,4.17 4.366,1.47 -4.585,1.071 z"
     id="path108"
     inkscape:connector-curvature="0"
     style="fill:#f3a0ef" />
  <path
     d="m 169.216,269.834 -1.506,-2.154 -2.807,0.68 1.883,-1.988 -1.529,-2.14 2.67,0.925 1.863,-2.004 -0.234,2.56 2.68,0.903 -2.813,0.657 z"
     id="path110"
     inkscape:connector-curvature="0"
     style="fill:#ebc4fd" />
  <path
     d="m 211.78,209.288 -2.452,-3.51 -4.574,1.11 3.068,-3.24 -2.49,-3.487 4.349,1.508 3.034,-3.264 -0.38,4.17 4.366,1.47 -4.584,1.07 -0.336,4.173 z"
     id="path112"
     inkscape:connector-curvature="0"
     style="fill:#f3a0ef" />
  <path
     d="m 211.315,207.255 -1.506,-2.154 -2.807,0.68 1.883,-1.988 -1.529,-2.14 2.67,0.924 1.863,-2.003 -0.234,2.56 2.68,0.902 -2.814,0.657 z"
     id="path114"
     inkscape:connector-curvature="0"
     style="fill:#ebc4fd" />
  <path
     d="m 170.82,158.086 -2.454,-3.509 -4.574,1.11 3.069,-3.24 -2.491,-3.487 4.35,1.507 3.034,-3.264 -0.38,4.17 4.365,1.47 -4.584,1.071 -0.336,4.172 z"
     id="path116"
     inkscape:connector-curvature="0"
     style="fill:#f3a0ef" />
  <path
     d="m 170.354,156.053 -1.506,-2.154 -2.808,0.68 1.884,-1.987 -1.529,-2.141 2.67,0.925 1.863,-2.004 -0.234,2.56 2.68,0.903 -2.814,0.657 z"
     id="path118"
     inkscape:connector-curvature="0"
     style="fill:#ebc4fd" />
  <path
     d="m 169.574,133.054 -3.607,-5.16 -6.726,1.631 4.512,-4.763 -3.663,-5.127 6.396,2.216 4.462,-4.8 -0.56,6.133 6.42,2.161 -6.74,1.575 z"
     id="path120"
     inkscape:connector-curvature="0"
     style="fill:#f3a0ef" />
  <path
     d="m 168.889,130.064 -2.214,-3.167 -4.129,1.001 2.77,-2.924 -2.248,-3.147 3.926,1.36 2.739,-2.946 -0.344,3.764 3.941,1.327 -4.138,0.966 z"
     id="path122"
     inkscape:connector-curvature="0"
     style="fill:#ebc4fd" />
  <path
     d="m 145.721,126.582 -1.635,-2.34 -3.05,0.74 2.046,-2.16 -1.66,-2.324 2.899,1.004 2.023,-2.176 -0.254,2.78 2.911,0.98 -3.056,0.714 z"
     id="path124"
     inkscape:connector-curvature="0"
     style="fill:#f3a0ef" />
  <path
     d="m 145.41,125.227 -1.003,-1.437 -1.872,0.454 1.256,-1.325 -1.02,-1.427 1.78,0.616 1.242,-1.335 -0.155,1.706 1.786,0.602 -1.876,0.438 -0.137,1.708 z"
     id="path126"
     inkscape:connector-curvature="0"
     style="fill:#ebc4fd" />
  <path
     d="m 180.424,114.066 -1.635,-2.34 -3.05,0.74 2.046,-2.16 -1.66,-2.324 2.899,1.004 2.023,-2.175 -0.254,2.78 2.911,0.98 -3.056,0.714 z"
     id="path128"
     inkscape:connector-curvature="0"
     style="fill:#f3a0ef" />
  <path
     d="m 180.114,112.71 -1.004,-1.435 -1.872,0.453 1.256,-1.325 -1.02,-1.427 1.78,0.616 1.242,-1.335 -0.155,1.706 1.787,0.602 -1.877,0.438 -0.137,1.708 z"
     id="path130"
     inkscape:connector-curvature="0"
     style="fill:#ebc4fd" />
  <path
     d="m 105.817,294.252 -3.188,-4.56 -5.945,1.44 3.988,-4.209 -3.237,-4.532 5.652,1.959 3.944,-4.242 -0.495,5.42 5.675,1.91 -5.958,1.392 z"
     id="path132"
     inkscape:connector-curvature="0"
     style="fill:#f3a0ef" />
  <path
     d="m 105.212,291.61 -1.957,-2.8 -3.65,0.885 2.449,-2.584 -1.987,-2.783 3.47,1.203 2.42,-2.604 -0.303,3.327 3.484,1.173 -3.658,0.854 -0.268,3.328 z"
     id="path134"
     inkscape:connector-curvature="0"
     style="fill:#ebc4fd" />
  <path
     d="m 221.331,118.883 -13.17,1.9 7.365,4.357 -11.613,5.144 12.668,-0.633 -17.893,6.334 17.599,0.94 -14.274,7.928 10.799,-2.086 -7.726,4.861 10.717,-0.613 -18.405,8.125 16.78,-2.185 -10.233,4.302 -22.834,4.696 17.07,-0.355 -17.704,6.056 40.319,-9.949 0.208,0.222 -36.57,12.873 25.12,-3.112 -33.785,9.281 15.119,-0.678 -26.244,8.464 19.14,-3.657 -22.307,11.257 36.18,-15.038 -18.603,10.763 30.561,-14.093 -11.125,6.66 -19.924,12.713 22.706,-11.323 -7.309,8.552 15.652,-12.167 -2.239,7.23 -5.361,7.972 13.423,-13.206 0.249,9.342 5.329,-15.137 z m 18.051,93.74 -15.918,4.472 12.982,0.55 -26.199,9.546 -14.568,-2.534 7.601,4.434 -6.967,3.8 10.134,-1.9 -7.601,6.967 16.468,-8.867 -14.568,15.835 20.902,-15.835 14.158,-7.345 -19.859,17.479 23.435,-13.934 6.967,-2.534 -20.268,18.368 14.024,-9.114 -5.189,8.743 13.966,-12.297 -5.7,10.134 -4.28,9.949 c 5.547,-5.113 10.277,-10.732 15.355,-16.298 l -0.008,-20.091 z"
     id="path136"
     inkscape:connector-curvature="0"
     style="fill:#ecb57b" />
  <linearGradient
     id="a"
     gradientUnits="userSpaceOnUse"
     x1="493.561"
     y1="270.53201"
     x2="475.67899"
     y2="270.53201"
     gradientTransform="translate(-397)">
    <stop
       offset="0"
       stop-color="#fff"
       stop-opacity="0"
       id="stop138" />
    <stop
       offset=".085"
       stop-color="#f7f7f7"
       stop-opacity=".085"
       id="stop140" />
    <stop
       offset=".22"
       stop-color="#e0e0e0"
       stop-opacity=".22"
       id="stop142" />
    <stop
       offset=".387"
       stop-color="#bbb"
       stop-opacity=".387"
       id="stop144" />
    <stop
       offset=".58"
       stop-color="#878787"
       stop-opacity=".58"
       id="stop146" />
    <stop
       offset=".793"
       stop-color="#464646"
       stop-opacity=".793"
       id="stop148" />
    <stop
       offset="1"
       id="stop150" />
  </linearGradient>
  <path
     d="m 96.561,244.238 -17.882,9.02 v 43.568 h 17.882 z"
     id="path153"
     inkscape:connector-curvature="0"
     style="fill:url(#a)" />
  <linearGradient
     id="b"
     gradientUnits="userSpaceOnUse"
     x1="536.466"
     y1="157.782"
     x2="518.58398"
     y2="157.782"
     gradientTransform="translate(-397)">
    <stop
       offset=".417"
       stop-color="#fff"
       stop-opacity="0"
       id="stop155" />
    <stop
       offset=".6"
       stop-color="#b2b2b2"
       stop-opacity=".314"
       id="stop157" />
    <stop
       offset="1"
       id="stop159" />
  </linearGradient>
  <path
     d="M 139.466,231.616 V 89.617 l -17.882,-5.668 v 147.667 z"
     id="path162"
     inkscape:connector-curvature="0"
     style="fill:url(#b)" />
  <linearGradient
     id="c"
     gradientUnits="userSpaceOnUse"
     x1="635.08502"
     y1="230.265"
     x2="635.08502"
     y2="212.15199"
     gradientTransform="translate(-397)">
    <stop
       offset=".277"
       stop-color="#fff"
       stop-opacity="0"
       id="stop164" />
    <stop
       offset=".364"
       stop-color="#fbfbfb"
       stop-opacity=".12"
       id="stop166" />
    <stop
       offset=".454"
       stop-color="#eee"
       stop-opacity=".245"
       id="stop168" />
    <stop
       offset=".546"
       stop-color="#dadada"
       stop-opacity=".372"
       id="stop170" />
    <stop
       offset=".639"
       stop-color="#bcbcbc"
       stop-opacity=".501"
       id="stop172" />
    <stop
       offset=".733"
       stop-color="#979797"
       stop-opacity=".63"
       id="stop174" />
    <stop
       offset=".827"
       stop-color="#696969"
       stop-opacity=".761"
       id="stop176" />
    <stop
       offset=".92"
       stop-color="#343434"
       stop-opacity=".89"
       id="stop178" />
    <stop
       offset="1"
       id="stop180" />
  </linearGradient>
  <path
     d="m 221.921,212.152 h 32.329 v 18.113 h -32.329 z"
     id="path183"
     inkscape:connector-curvature="0"
     style="fill:url(#c)" />
  <linearGradient
     id="d"
     gradientUnits="userSpaceOnUse"
     x1="566.875"
     y1="112.286"
     x2="570.63"
     y2="100.442"
     gradientTransform="translate(-397)">
    <stop
       offset="0"
       stop-color="#fff"
       stop-opacity="0"
       id="stop185" />
    <stop
       offset=".12"
       stop-color="#fbfbfb"
       stop-opacity=".12"
       id="stop187" />
    <stop
       offset=".245"
       stop-color="#eee"
       stop-opacity=".245"
       id="stop189" />
    <stop
       offset=".372"
       stop-color="#dadada"
       stop-opacity=".372"
       id="stop191" />
    <stop
       offset=".501"
       stop-color="#bcbcbc"
       stop-opacity=".501"
       id="stop193" />
    <stop
       offset=".63"
       stop-color="#979797"
       stop-opacity=".63"
       id="stop195" />
    <stop
       offset=".761"
       stop-color="#696969"
       stop-opacity=".761"
       id="stop197" />
    <stop
       offset=".89"
       stop-color="#343434"
       stop-opacity=".89"
       id="stop199" />
    <stop
       offset="1"
       id="stop201" />
  </linearGradient>
  <path
     d="M 121.584,96.977 221.92,128.781 V 115.753 L 121.584,83.949 Z"
     id="path204"
     inkscape:connector-curvature="0"
     style="fill:url(#d)" />
  <linearGradient
     id="e"
     gradientUnits="userSpaceOnUse"
     x1="413.069"
     y1="22.207001"
     x2="397"
     y2="22.207001"
     gradientTransform="translate(-397)">
    <stop
       offset="0"
       stop-color="#fff"
       stop-opacity="0"
       id="stop206" />
    <stop
       offset=".12"
       stop-color="#fbfbfb"
       stop-opacity=".12"
       id="stop208" />
    <stop
       offset=".245"
       stop-color="#eee"
       stop-opacity=".245"
       id="stop210" />
    <stop
       offset=".372"
       stop-color="#dadada"
       stop-opacity=".372"
       id="stop212" />
    <stop
       offset=".501"
       stop-color="#bcbcbc"
       stop-opacity=".501"
       id="stop214" />
    <stop
       offset=".63"
       stop-color="#979797"
       stop-opacity=".63"
       id="stop216" />
    <stop
       offset=".761"
       stop-color="#696969"
       stop-opacity=".761"
       id="stop218" />
    <stop
       offset=".89"
       stop-color="#343434"
       stop-opacity=".89"
       id="stop220" />
    <stop
       offset="1"
       id="stop222" />
  </linearGradient>
  <path
     d="M 0,0.483 H 16.069 V 43.931 L 0,38.839 Z"
     id="path225"
     inkscape:connector-curvature="0"
     style="fill:url(#e)" />
  <linearGradient
     id="f"
     gradientUnits="userSpaceOnUse"
     x1="649.85699"
     y1="164.392"
     x2="630.28699"
     y2="164.392"
     gradientTransform="translate(-397)">
    <stop
       offset="0"
       stop-color="#fff"
       stop-opacity="0"
       id="stop227" />
    <stop
       offset=".12"
       stop-color="#fbfbfb"
       stop-opacity=".12"
       id="stop229" />
    <stop
       offset=".245"
       stop-color="#eee"
       stop-opacity=".245"
       id="stop231" />
    <stop
       offset=".372"
       stop-color="#dadada"
       stop-opacity=".372"
       id="stop233" />
    <stop
       offset=".501"
       stop-color="#bcbcbc"
       stop-opacity=".501"
       id="stop235" />
    <stop
       offset=".63"
       stop-color="#979797"
       stop-opacity=".63"
       id="stop237" />
    <stop
       offset=".761"
       stop-color="#696969"
       stop-opacity=".761"
       id="stop239" />
    <stop
       offset=".89"
       stop-color="#343434"
       stop-opacity=".89"
       id="stop241" />
    <stop
       offset="1"
       id="stop243" />
  </linearGradient>
  <path
     d="m 233.287,127.22 h 19.57 v 74.343 h -19.57 z"
     id="path246"
     inkscape:connector-curvature="0"
     style="fill:url(#f)" />
  <linearGradient
     id="g"
     gradientUnits="userSpaceOnUse"
     x1="501.20499"
     y1="240.381"
     x2="506.46399"
     y2="250.806"
     gradientTransform="translate(-397)">
    <stop
       offset="0"
       id="stop248" />
    <stop
       offset=".053"
       stop-color="#222"
       stop-opacity=".898"
       id="stop250" />
    <stop
       offset=".185"
       stop-color="#6f6f6f"
       stop-opacity=".645"
       id="stop252" />
    <stop
       offset=".302"
       stop-color="#adadad"
       stop-opacity=".421"
       id="stop254" />
    <stop
       offset=".401"
       stop-color="#d9d9d9"
       stop-opacity=".231"
       id="stop256" />
    <stop
       offset=".477"
       stop-color="#f5f5f5"
       stop-opacity=".085"
       id="stop258" />
    <stop
       offset=".521"
       stop-color="#fff"
       stop-opacity="0"
       id="stop260" />
  </linearGradient>
  <path
     d="m 131.804,231.616 -27.202,21.643 H 78.679 l 42.905,-21.643 z"
     id="path263"
     inkscape:connector-curvature="0"
     style="fill:url(#g)" />
  <linearGradient
     id="h"
     gradientUnits="userSpaceOnUse"
     x1="697.64301"
     y1="147.203"
     x2="697.64301"
     y2="127.293"
     gradientTransform="translate(-397)">
    <stop
       offset="0"
       stop-color="#fff"
       stop-opacity="0"
       id="stop265" />
    <stop
       offset=".12"
       stop-color="#fbfbfb"
       stop-opacity=".12"
       id="stop267" />
    <stop
       offset=".245"
       stop-color="#eee"
       stop-opacity=".245"
       id="stop269" />
    <stop
       offset=".372"
       stop-color="#dadada"
       stop-opacity=".372"
       id="stop271" />
    <stop
       offset=".501"
       stop-color="#bcbcbc"
       stop-opacity=".501"
       id="stop273" />
    <stop
       offset=".63"
       stop-color="#979797"
       stop-opacity=".63"
       id="stop275" />
    <stop
       offset=".761"
       stop-color="#696969"
       stop-opacity=".761"
       id="stop277" />
    <stop
       offset=".89"
       stop-color="#343434"
       stop-opacity=".89"
       id="stop279" />
    <stop
       offset="1"
       id="stop281" />
  </linearGradient>
  <path
     d="M 233.287,127.293 H 368 v 19.91 H 233.287 Z"
     id="path284"
     inkscape:connector-curvature="0"
     style="fill:url(#h)" />
  <linearGradient
     id="i"
     gradientUnits="userSpaceOnUse"
     x1="580.34399"
     y1="65.191002"
     x2="580.34399"
     y2="0.45899999"
     gradientTransform="translate(-397)">
    <stop
       offset=".745"
       stop-color="#fff"
       stop-opacity="0"
       id="stop286" />
    <stop
       offset=".767"
       stop-color="#f4f4f4"
       stop-opacity=".087"
       id="stop288" />
    <stop
       offset=".806"
       stop-color="#d6d6d6"
       stop-opacity=".24"
       id="stop290" />
    <stop
       offset=".858"
       stop-color="#a5a5a5"
       stop-opacity=".443"
       id="stop292" />
    <stop
       offset=".92"
       stop-color="#616161"
       stop-opacity=".688"
       id="stop294" />
    <stop
       offset=".991"
       stop-color="#0c0c0c"
       stop-opacity=".964"
       id="stop296" />
    <stop
       offset="1"
       id="stop298" />
  </linearGradient>
  <path
     d="M 0,11.098 V 0.483 C 1.118,0.431 115.453,0.476 171.585,0.476 c 41.705,0 83.41,0.005 125.115,-0.002 15.824,-0.003 29.558,5.623 41.513,15.708 14.562,12.285 23.351,28.167 28.204,46.393 0.223,0.838 0.271,1.741 0.272,2.615 -0.001,-0.731 -0.048,-1.486 -0.272,-2.186 C 361.564,47.77 352.775,34.495 338.213,24.227 326.257,15.798 312.524,11.096 296.7,11.098 Z"
     id="path301"
     inkscape:connector-curvature="0"
     style="fill:url(#i)" />
</svg>
