<?xml version="1.0" encoding="UTF-8" standalone="no"?>
<svg
   xmlns:dc="http://purl.org/dc/elements/1.1/"
   xmlns:cc="http://creativecommons.org/ns#"
   xmlns:rdf="http://www.w3.org/1999/02/22-rdf-syntax-ns#"
   xmlns:svg="http://www.w3.org/2000/svg"
   xmlns="http://www.w3.org/2000/svg"
   xmlns:sodipodi="http://sodipodi.sourceforge.net/DTD/sodipodi-0.dtd"
   xmlns:inkscape="http://www.inkscape.org/namespaces/inkscape"
   viewBox="0 0 153.533 157.63"
   version="1.1"
   id="svg12"
   sodipodi:docname="game.svg"
   width="153.533"
   height="157.63"
   inkscape:version="0.92.4 5da689c313, 2019-01-14">
  <metadata
     id="metadata18">
    <rdf:RDF>
      <cc:Work
         rdf:about="">
        <dc:format>image/svg+xml</dc:format>
        <dc:type
           rdf:resource="http://purl.org/dc/dcmitype/StillImage" />
      </cc:Work>
    </rdf:RDF>
  </metadata>
  <defs
     id="defs16" />
  <sodipodi:namedview
     pagecolor="#ffffff"
     bordercolor="#666666"
     borderopacity="1"
     objecttolerance="10"
     gridtolerance="10"
     guidetolerance="10"
     inkscape:pageopacity="0"
     inkscape:pageshadow="2"
     inkscape:window-width="471"
     inkscape:window-height="442"
     id="namedview14"
     showgrid="false"
     inkscape:zoom="1.4971769"
     inkscape:cx="76.766502"
     inkscape:cy="78.814998"
     inkscape:window-x="0"
     inkscape:window-y="0"
     inkscape:window-maximized="0"
     inkscape:current-layer="svg12" />
  <path
     d="M 153.533,12.487 V 10.043 L 141.659,0.11 h -3.186 V 0.613 H 125.65 L 125.048,1.059 124.015,1.8 V 1.814 H 19.99 V 0.11 H 1.787 L 1.788,0.113 C 0.798,0.113 0,0.911 0,1.901 v 153.935 c 0,0.99 0.798,1.788 1.788,1.788 h 149.957 c 0.991,0 1.788,-0.798 1.788,-1.788 V 18.397 h -1.467 v -5.91 z M 13.832,146.97 H 4.835 v -6.412 h 8.997 z"
     id="path2"
     inkscape:connector-curvature="0"
     style="fill:#174090" />
  <path
     d="m 21.564,68.596 h 110.404 a 3.17,3.17 0 0 1 3.169,3.169 V 157.63 H 18.395 V 71.765 a 3.169,3.169 0 0 1 3.169,-3.169 z"
     id="path4"
     inkscape:connector-curvature="0"
     style="fill:#f7f7f7" />
  <path
     d="m 39.076,0 v 50.923 a 2.677,2.677 0 0 0 2.683,2.683 h 77.759 a 2.677,2.677 0 0 0 2.683,-2.683 V 0 Z m 48.143,7.726 h 22.715 V 49.957 H 87.219 Z"
     id="path6"
     inkscape:connector-curvature="0"
     style="fill:#8a8e8c" />
  <path
     d="m 9.199,23.39 v -3.464 h 1.858 L 7.341,11.101 3.625,19.926 h 1.858 v 3.464 h 3.754"
     id="path8"
     inkscape:connector-curvature="0"
     style="fill:#143795" />
  <path
     d="m 56.719,128.785 c -0.864,0 -1.547,-0.282 -2.048,-0.848 l 0.4,-0.512 c 0.442,0.512 1,0.768 1.672,0.768 0.432,0 0.75,-0.093 0.952,-0.28 0.203,-0.187 0.304,-0.402 0.304,-0.647 a 0.697,0.697 0 0 0 -0.324,-0.601 c -0.216,-0.148 -0.48,-0.263 -0.792,-0.34 -0.312,-0.077 -0.623,-0.162 -0.932,-0.256 a 1.842,1.842 0 0 1 -0.788,-0.464 c -0.216,-0.216 -0.324,-0.5 -0.324,-0.852 0,-0.438 0.173,-0.795 0.52,-1.072 0.347,-0.277 0.787,-0.416 1.32,-0.416 0.784,0 1.413,0.251 1.888,0.752 l -0.4,0.488 c -0.378,-0.427 -0.893,-0.641 -1.544,-0.641 -0.32,0 -0.583,0.079 -0.788,0.236 a 0.736,0.736 0 0 0 -0.308,0.612 c 0,0.187 0.079,0.341 0.236,0.464 0.157,0.122 0.352,0.213 0.584,0.271 a 11.734,11.734 0 0 1 1.52,0.5 c 0.232,0.098 0.427,0.258 0.584,0.477 0.157,0.219 0.236,0.482 0.236,0.792 0,0.432 -0.161,0.801 -0.484,1.107 -0.323,0.306 -0.817,0.462 -1.484,0.462 z m 7.448,-0.096 h -0.76 l -0.472,-1.192 h -2.656 l -0.472,1.192 h -0.76 l 2.152,-5.336 h 0.824 z m -1.424,-1.776 -1.136,-2.88 -1.128,2.88 z m 7.344,1.776 h -0.664 v -4.488 l -1.808,4.488 h -0.272 l -1.816,-4.488 v 4.488 h -0.664 v -5.336 h 0.952 l 1.664,4.112 1.656,-4.112 h 0.952 z m 5.848,0.096 c -0.779,0 -1.431,-0.257 -1.956,-0.771 -0.525,-0.514 -0.788,-1.178 -0.788,-1.988 0,-0.81 0.262,-1.474 0.788,-1.988 0.526,-0.514 1.177,-0.771 1.956,-0.771 0.859,0 1.533,0.352 2.024,1.056 l -0.552,0.313 a 1.69,1.69 0 0 0 -0.628,-0.564 1.753,1.753 0 0 0 -0.844,-0.212 c -0.592,0 -1.083,0.203 -1.472,0.608 -0.39,0.405 -0.584,0.925 -0.584,1.56 0,0.63 0.196,1.148 0.588,1.556 0.392,0.408 0.881,0.612 1.468,0.612 0.299,0 0.58,-0.072 0.844,-0.216 0.264,-0.145 0.473,-0.331 0.628,-0.561 l 0.56,0.305 c -0.517,0.707 -1.195,1.061 -2.032,1.061 z m 7.224,-0.784 c -0.496,0.523 -1.133,0.784 -1.912,0.784 -0.779,0 -1.415,-0.261 -1.908,-0.784 -0.493,-0.522 -0.74,-1.181 -0.74,-1.976 0,-0.795 0.247,-1.453 0.74,-1.976 0.493,-0.523 1.129,-0.784 1.908,-0.784 0.778,0 1.416,0.261 1.912,0.784 0.496,0.522 0.744,1.181 0.744,1.976 0,0.795 -0.248,1.453 -0.744,1.976 z m -1.912,0.192 c 0.586,0 1.061,-0.204 1.424,-0.612 0.363,-0.407 0.544,-0.926 0.544,-1.556 0,-0.629 -0.181,-1.147 -0.544,-1.556 -0.363,-0.409 -0.837,-0.612 -1.424,-0.612 -0.592,0 -1.067,0.203 -1.424,0.608 -0.357,0.405 -0.536,0.925 -0.536,1.56 0,0.63 0.178,1.148 0.536,1.556 0.357,0.408 0.832,0.612 1.424,0.612 z m 5.864,0.592 c -0.704,0 -1.243,-0.193 -1.616,-0.58 -0.374,-0.387 -0.56,-0.916 -0.56,-1.588 v -3.264 h 0.672 v 3.248 c 0,0.496 0.129,0.886 0.388,1.168 0.258,0.282 0.63,0.424 1.116,0.424 0.486,0 0.859,-0.142 1.12,-0.424 0.261,-0.282 0.392,-0.672 0.392,-1.168 v -3.248 h 0.672 v 3.256 c 0,0.678 -0.187,1.209 -0.56,1.596 -0.373,0.387 -0.915,0.58 -1.624,0.58 z m 4.096,-0.096 h -0.664 v -5.336 h 2.144 c 0.517,0 0.925,0.154 1.224,0.464 0.298,0.31 0.448,0.69 0.448,1.145 0,0.453 -0.151,0.834 -0.452,1.144 -0.301,0.31 -0.708,0.464 -1.22,0.464 h -1.48 z m 1.4,-2.712 c 0.314,0 0.571,-0.095 0.768,-0.284 0.197,-0.189 0.296,-0.434 0.296,-0.731 0,-0.299 -0.099,-0.543 -0.296,-0.732 -0.197,-0.189 -0.454,-0.284 -0.768,-0.284 h -1.4 v 2.032 h 1.4 z m 6.128,2.712 h -3.496 v -5.336 h 3.496 v 0.592 h -2.832 v 1.72 h 2.776 v 0.593 h -2.776 v 1.84 h 2.832 z"
     id="path10"
     inkscape:connector-curvature="0" />
</svg>
