<?xml version="1.0" encoding="UTF-8" standalone="no"?>
<svg
   xmlns:dc="http://purl.org/dc/elements/1.1/"
   xmlns:cc="http://creativecommons.org/ns#"
   xmlns:rdf="http://www.w3.org/1999/02/22-rdf-syntax-ns#"
   xmlns:svg="http://www.w3.org/2000/svg"
   xmlns="http://www.w3.org/2000/svg"
   xmlns:sodipodi="http://sodipodi.sourceforge.net/DTD/sodipodi-0.dtd"
   xmlns:inkscape="http://www.inkscape.org/namespaces/inkscape"
   viewBox="0 0 711 168.65481"
   version="1.1"
   id="svg8"
   sodipodi:docname="logo.svg"
   width="711"
   height="168.65482"
   inkscape:version="0.92.4 5da689c313, 2019-01-14">
  <metadata
     id="metadata14">
    <rdf:RDF>
      <cc:Work
         rdf:about="">
        <dc:format>image/svg+xml</dc:format>
        <dc:type
           rdf:resource="http://purl.org/dc/dcmitype/StillImage" />
      </cc:Work>
    </rdf:RDF>
  </metadata>
  <defs
     id="defs12" />
  <sodipodi:namedview
     pagecolor="#ffffff"
     bordercolor="#666666"
     borderopacity="1"
     objecttolerance="10"
     gridtolerance="10"
     guidetolerance="10"
     inkscape:pageopacity="0"
     inkscape:pageshadow="2"
     inkscape:window-width="640"
     inkscape:window-height="480"
     id="namedview10"
     showgrid="false"
     inkscape:zoom="0.38256791"
     inkscape:cx="354.18549"
     inkscape:cy="84.326997"
     inkscape:window-x="0"
     inkscape:window-y="0"
     inkscape:window-maximized="0"
     inkscape:current-layer="svg8">
    <inkscape:grid
       type="xygrid"
       id="grid821"
       originx="0"
       originy="-6.9580076e-06" />
  </sodipodi:namedview>
  <path
     d="m 61.89,53.539811 c 0,-9.901 -4.95,-16.091 -13.615,-16.091 -8.665,0 -11.141,6.189 -11.141,13.615 0,7.427 6.189,13.616 29.707,24.757 23.518,11.141 28.471,25.994999 28.471,44.560999 0,18.566 -14.854,48.272 -48.275,48.272 -33.421,0 -47.037,-21.042 -47.037,-51.988 h 29.707 c 0,12.379 6.189,18.568 16.092,18.568 9.901,0 13.616,-7.426 13.616,-13.615 0,-6.188 0.993,-9.405 -34.658,-27.232999 -22.281,-11.139 -23.519,-35.896 -23.519,-43.323 0,-7.426 3.714,-30.943 23.519,-42.0839997 19.803,-11.141 48.273,-3.714 59.413,11.1399997 11.142,14.853 7.427,33.419 7.427,33.419 -12.379,0.002 -29.707,0.002 -29.707,0.002 z M 329.256,5.2648113 H 293.36 V 94.385811 L 235.183,4.0268113 H 199.287 V 98.100811 L 138.634,5.2648113 H 101.5 l 1.239,163.3889987 h 40.846 v -24.754 h 35.896 l 14.853,23.518 h 45.799 V 88.196811 l 51.988,80.457999 h 40.846 V 88.196811 l 51.988,79.220999 H 433.23 Z M 143.585,111.71581 V 88.196811 l 16.091,23.517999 h -16.091 z m 297.073,54.463 L 337.921,5.2648113 H 544.634 L 496.359,82.008811 c 0,0 -12.379,-7.426 -28.471,17.33 -16.091,24.756999 -8.664,34.657999 -7.427,38.371999 -4.949,8.664 -19.803,28.468 -19.803,28.468 z"
     id="path2"
     inkscape:connector-curvature="0"
     style="fill:#0849ff" />
  <path
     d="m 688.571,78.013811 c -5.156,2.682 -12.791,1.032 -14.234,-7.426 17.946,-11.966 22.691,-18.774 24.343,-28.263 1.649,-9.489 -6.81,-9.903 -15.473,-4.539 -8.663,5.364 -20.422,19.185 -20.836,36.72 -5.569,8.046 -11.346,17.33 -20.422,16.917 10.313,-19.187 12.377,-28.468 10.933,-35.276 -1.443,-6.808 -8.87,-6.808 -25.786,18.566 1.649,-15.265 8.043,-28.88 9.282,-32.594 1.236,-3.714 1.443,-6.808 -2.479,-5.777 -3.916,1.032 -9.075,10.314 -15.881,27.23 -6.808,16.916 -17.743,31.974 -21.041,35.895 -3.301,3.919999 -8.873,5.568999 -8.46,-4.747 0.414,-10.314 7.015,-18.565 8.46,-23.102 1.444,-4.539 -1.033,-12.172 -3.921,-10.315 -2.888,1.857 -12.172,19.598 -16.71,27.436 -4.537,7.84 -10.108,15.058999 -12.171,17.121999 -2.062,2.062 -6.191,1.444 -4.539,-4.95 1.651,-6.395999 5.982,-12.995999 8.046,-16.296999 2.063,-3.301 6.396,-10.108 1.857,-11.964 -4.539,-1.857 -15.473,3.92 -19.184,29.086999 -3.095,6.394 -7.016,10.522 -11.76,12.171 1.857,-9.078 4.125,-31.354999 -4.744,-27.023999 1.444,-4.95 -1.034,-7.219 -5.778,-6.394 -4.745,0.825 -24.342,11.966 -25.581,36.924999 -4.333,7.633 -15.265,17.33 -21.042,17.33 -5.775,0 -9.076,-5.159 -8.664,-10.727 0.413,-5.57 7.632,-13.204 11.139,-14.853 1.239,3.095 3.3,2.888 4.539,2.888 1.238,0 5.156,-4.539 6.6,-11.553 1.444,-7.013999 0.62,-10.519999 -2.887,-11.759999 -3.506,-1.236 -13.202,4.95 -18.979,13.203999 -5.777,8.251 -15.679,24.34 -3.095,38.574 12.585,14.235 25.167,-1.236 34.244,-18.152 2.474,9.281 9.489,13.201 14.645,13.201 5.158,0 13.41,-6.396 16.71,-13.82 4.951,0.205 11.964,-6.191 15.059,-12.172 -0.206,6.6 8.046,12.79 12.999,11.76 4.95,-1.034 11.346,-13.411 15.265,-21.866999 0,10.933999 -0.62,19.184999 7.221,18.978999 7.838,-0.208 20.009,-22.485999 33.418,-47.035999 -6.189,29.911999 -10.727,40.433999 -11.76,49.096999 -1.032,8.664 0.825,21.455 4.536,21.455 3.715,0 7.017,-18.36 8.047,-34.657 7.838,-2.269 9.49,-2.887 10.933,-2.887 1.447,0 6.808,2.271 14.851,-3.507 8.047,-5.776999 12.79,-13.201999 18.568,-20.835999 4.332,10.522 11.758,14.234 23.929,7.427 12.171,-6.808 18.566,-25.787 19.598,-30.531 -7.002,11.14 -14.638,18.36 -19.795,21.042 z M 528.079,115.76581 c -0.411,8.045 -5.983,10.314 -8.457,10.314 -2.474,0 -7.013,-0.411 -7.013,-8.252 0,-7.837 7.013,-17.121 14.439,-24.341999 2.888,-2.681 -0.208,4.332 -1.032,12.170999 -0.827,7.841 0.411,11.14 2.063,10.109 z m 97.575,-22.897999 c 2.269,-11.964 11.138,-25.167 15.472,-25.167 4.33,0 -1.239,13.615 -3.714,18.566 -2.475,4.951 -6.601,5.365 -11.758,6.601 z m 61.268,-49.716 c 3.918,-3.301 5.569,1.444 1.649,7.014 -3.917,5.569 -12.585,13.615 -14.853,14.44 1.034,-10.932 9.283,-18.153 13.204,-21.454 z"
     id="path4"
     inkscape:connector-curvature="0"
     style="fill:#c60000" />
  <path
     d="m 673.512,32.424811 c 0.206,-5.158 2.887,-12.171 7.633,-17.74 4.745,-5.5719997 12.995,-14.23499968 16.089,-14.64799968 3.096,-0.413 4.54,2.68199998 4.54,7.63299998 0,4.9499997 0,6.5999997 -3.509,9.2819997 -3.507,2.682 -15.059,10.933 -16.914,12.79 -1.857,1.858 -8.045,8.252 -7.839,2.683 z"
     id="path6"
     inkscape:connector-curvature="0"
     style="fill:#c60000" />
</svg>
