<?xml version="1.0" encoding="UTF-8" standalone="no"?>
<svg
   xmlns:dc="http://purl.org/dc/elements/1.1/"
   xmlns:cc="http://creativecommons.org/ns#"
   xmlns:rdf="http://www.w3.org/1999/02/22-rdf-syntax-ns#"
   xmlns:svg="http://www.w3.org/2000/svg"
   xmlns="http://www.w3.org/2000/svg"
   xmlns:sodipodi="http://sodipodi.sourceforge.net/DTD/sodipodi-0.dtd"
   xmlns:inkscape="http://www.inkscape.org/namespaces/inkscape"
   viewBox="0 0 171.16063 105.162"
   version="1.1"
   id="svg76"
   sodipodi:docname="game.svg"
   width="171.16063"
   height="105.162"
   inkscape:version="0.92.4 5da689c313, 2019-01-14">
  <metadata
     id="metadata82">
    <rdf:RDF>
      <cc:Work
         rdf:about="">
        <dc:format>image/svg+xml</dc:format>
        <dc:type
           rdf:resource="http://purl.org/dc/dcmitype/StillImage" />
      </cc:Work>
    </rdf:RDF>
  </metadata>
  <defs
     id="defs80" />
  <sodipodi:namedview
     pagecolor="#ffffff"
     bordercolor="#666666"
     borderopacity="1"
     objecttolerance="10"
     gridtolerance="10"
     guidetolerance="10"
     inkscape:pageopacity="0"
     inkscape:pageshadow="2"
     inkscape:window-width="471"
     inkscape:window-height="442"
     id="namedview78"
     showgrid="false"
     inkscape:zoom="1.5833138"
     inkscape:cx="85.580819"
     inkscape:cy="52.580999"
     inkscape:window-x="0"
     inkscape:window-y="0"
     inkscape:window-maximized="0"
     inkscape:current-layer="svg76">
    <inkscape:grid
       type="xygrid"
       id="grid84"
       originx="0.00081753681"
       originy="-2.5634765e-06" />
  </sodipodi:namedview>
  <path
     d="m 121.48482,21.123 c -14.597,0 -26.430002,11.833 -26.430002,26.429 0,14.596 11.833002,26.43 26.430002,26.43 14.597,0 26.43,-11.833 26.43,-26.43 0,-14.597 -11.833,-26.429 -26.43,-26.429 z m 0,39.892 c -7.438,0 -13.466,-6.029 -13.466,-13.466 0,-7.437 6.028,-13.466 13.466,-13.466 7.438,0 13.467,6.029 13.467,13.466 0,7.437 -6.03,13.466 -13.467,13.466 z"
     id="path2"
     inkscape:connector-curvature="0" />
  <path
     d="m 168.94982,67.349 c 1.515,1.557 1.99,2.076 1.99,2.076 0,0 0.259,0.173 0.216,0.908 -0.043,0.735 0,24.178 0,24.912 0,0.735 -0.216,0.735 -0.433,0.995 -0.216,0.26 -1.773,2.076 -1.773,2.076 z m -166.7390025,0 c -1.51399996,1.557 -1.98999996,2.076 -1.98999996,2.076 0,0 -0.259,0.173 -0.216,0.908 0.043,0.735 0,24.178 0,24.912 0,0.735 0.216,0.735 0.432,0.995 0.216,0.26 1.77299996,2.076 1.77299996,2.076 V 67.349 Z"
     id="path4"
     inkscape:connector-curvature="0"
     style="fill:#d9dadb" />
  <path
     d="M 166.44282,0 H 4.6488175 a 3.081,3.081 0 0 0 -3.072,3.073 v 99.017 a 3.081,3.081 0 0 0 3.072,3.072 H 166.44182 a 3.082,3.082 0 0 0 3.072,-3.072 V 3.073 A 3.08,3.08 0 0 0 166.44282,0 Z M 44.953818,102.919 a 3.639,3.639 0 1 1 0,-7.277 3.639,3.639 0 0 1 0,7.277 z m 4.722,-46.234 c -5.046,0 -9.136,-4.09 -9.136,-9.136 0,-5.046 4.09,-9.135 9.136,-9.135 a 9.136,9.136 0 0 1 0,18.271 z m 15.639,41.821 a 1.32,1.32 0 0 1 -1.316,1.316 h -4.024 a 1.32,1.32 0 0 1 -1.317,-1.316 v -3.638 a 1.32,1.32 0 0 1 1.317,-1.316 h 4.024 a 1.32,1.32 0 0 1 1.316,1.316 z m 33.959,-51.216 c 0,0.07 -0.139,0.127 -0.308,0.127 h -26.771 c -0.169,0 -0.307,-0.057 -0.307,-0.127 v -5.187 c 0,-0.07 0.138,-0.127 0.307,-0.127 h 26.771 c 0.169,0 0.308,0.057 0.308,0.127 z m 13.230002,51.216 a 1.32,1.32 0 0 1 -1.316,1.316 h -4.024 a 1.32,1.32 0 0 1 -1.317,-1.316 v -3.638 a 1.32,1.32 0 0 1 1.317,-1.316 h 4.024 c 0.725,0 1.316,0.592 1.316,1.316 z m 13.704,4.413 a 3.64,3.64 0 1 1 0,-7.279 3.64,3.64 0 0 1 0,7.279 z m -4.723,-46.234 c -5.045,0 -9.135,-4.09 -9.135,-9.136 0,-5.046 4.09,-9.135 9.135,-9.135 a 9.1355,9.1355 0 1 1 0,18.271 z"
     id="path6"
     inkscape:connector-curvature="0"
     style="fill:#e9e8e4" />
  <path
     d="m 49.676818,26.788 c -11.468,0 -20.765,9.297 -20.765,20.765 0,11.468 9.297,20.765 20.765,20.765 11.468,0 20.765,-9.296 20.765,-20.765 0,-11.468 -9.297,-20.765 -20.765,-20.765 z m 0,34.231 c -7.438,0 -13.467,-6.029 -13.467,-13.466 0,-7.437 6.029,-13.466 13.467,-13.466 7.438,0 13.466,6.029 13.466,13.466 0,7.437 -6.028,13.466 -13.466,13.466 z"
     id="path8"
     inkscape:connector-curvature="0" />
  <path
     d="m 121.48482,37.922 c -5.316,0 -9.627,4.31 -9.627,9.627 0,5.317 4.311,9.627 9.627,9.627 5.317,0 9.628,-4.31 9.628,-9.627 0,-5.317 -4.311,-9.627 -9.628,-9.627 z m 0.589,17.655 v -1.753 h -1.144 v 1.756 a 8.044,8.044 0 0 1 -6.119,-3.526 l 1.521,-0.878 -0.572,-0.99 -1.521,0.878 a 8.018,8.018 0 0 1 -0.806,-3.514 c 0,-1.27 0.294,-2.47 0.817,-3.538 l 1.504,0.868 0.571,-0.99 -1.5,-0.866 a 8.045,8.045 0 0 1 6.093,-3.503 v 1.711 h 1.144 v -1.711 a 8.047,8.047 0 0 1 6.082,3.503 l -1.484,0.856 0.572,0.991 1.486,-0.858 a 8.02,8.02 0 0 1 0.817,3.537 8.008,8.008 0 0 1 -0.796,3.495 l -1.503,-0.868 -0.571,0.99 1.505,0.87 a 8.037,8.037 0 0 1 -6.096,3.54 z M 49.675818,37.922 c -5.317,0 -9.628,4.31 -9.628,9.627 0,5.317 4.311,9.627 9.628,9.627 5.317,0 9.627,-4.31 9.627,-9.627 a 9.626,9.626 0 0 0 -9.627,-9.627 z m 0.555,17.658 v -1.756 h -1.144 v 1.753 a 8.047,8.047 0 0 1 -6.098,-3.541 l 1.506,-0.87 -0.572,-0.99 -1.503,0.868 a 8.019,8.019 0 0 1 -0.796,-3.495 8.02,8.02 0 0 1 0.818,-3.537 l 1.486,0.858 0.573,-0.99 -1.483,-0.856 a 8.043,8.043 0 0 1 6.081,-3.503 v 1.711 h 1.144 V 39.52 a 8.044,8.044 0 0 1 6.094,3.503 l -1.501,0.866 0.572,0.99 1.503,-0.868 a 8.021,8.021 0 0 1 0.818,3.538 c 0,1.26 -0.29,2.452 -0.806,3.514 l -1.522,-0.877 -0.571,0.99 1.521,0.878 a 8.046,8.046 0 0 1 -6.12,3.526 z"
     id="path10"
     inkscape:connector-curvature="0"
     style="fill:#e2e2df" />
  <path
     d="m 144.70282,105.162 c -1.052,-4.787 -4.57,-21.569 -4.946,-23.224 -0.387,-1.703 -1.084,-3.097 -3.252,-3.097 H 34.656818 c -2.168,0 -2.864,1.394 -3.252,3.097 -0.376,1.654 -3.895,18.437 -4.946,23.224 h 1.612 a 4919.07,4919.07 0 0 0 4.657,-21.9 c 0.535,-2.563 1.084,-3.097 3.252,-3.097 h 99.202002 c 2.167,0 2.716,0.534 3.251,3.097 0.479,2.291 3.386,16.036 4.658,21.9 z"
     id="path12"
     inkscape:connector-curvature="0"
     style="fill:#d9dadb" />
  <path
     d="m 158.83382,14.732 c -0.144,-0.165 -5.323,-5.571 -5.546,-5.809 -0.155,-0.167 -0.408,-0.171 -0.408,-0.171 H 18.282818 c 0,0 -0.253,0.004 -0.409,0.171 -0.223,0.238 -5.402,5.644 -5.546,5.809 -0.223,0.256 -0.178,0.418 -0.178,0.418 v 57.916 a 0.44,0.44 0 0 0 0.439,0.438 H 158.57182 a 0.44,0.44 0 0 0 0.438,-0.438 V 15.151 c 0.001,0 0.046,-0.162 -0.176,-0.419 z m -26.233,32.817 c 0,6.114 -5.002,11.116 -11.116,11.116 H 49.675818 c -6.113,0 -11.115,-5.002 -11.115,-11.116 0,-6.114 5.002,-11.116 11.115,-11.116 h 71.809002 c 6.114,10e-4 11.116,5.003 11.116,11.116 z"
     id="path14"
     inkscape:connector-curvature="0"
     style="clip-rule:evenodd;fill:#7a9ca5;fill-rule:evenodd" />
  <path
     d="m 99.390818,41.635 h -27.62 c -0.175,0 -0.317,0.064 -0.317,0.143 v 5.836 c 0,0.079 0.143,0.143 0.317,0.143 h 27.62 c 0.174,0 0.316,-0.064 0.316,-0.143 v -5.836 c 0.001,-0.079 -0.142,-0.143 -0.316,-0.143 z m -0.117,5.655 c 0,0.07 -0.139,0.127 -0.308,0.127 h -26.771 c -0.169,0 -0.307,-0.057 -0.307,-0.127 v -5.187 c 0,-0.07 0.138,-0.127 0.307,-0.127 h 26.771 c 0.169,0 0.308,0.057 0.308,0.127 z"
     id="path16"
     inkscape:connector-curvature="0"
     style="fill:#b4b4b5" />
  <path
     d="M 121.48482,36.434 H 49.675818 c -6.139,0 -11.115,4.976 -11.115,11.115 0,6.139 4.977,11.116 11.115,11.116 h 71.809002 c 6.14,0 11.116,-4.977 11.116,-11.116 0,-6.139 -4.976,-11.115 -11.116,-11.115 z M 49.658818,56.685 a 9.153,9.153 0 1 1 0,-18.306 9.153,9.153 0 0 1 0,18.306 z m 50.049,-9.071 c 0,0.079 -0.143,0.143 -0.316,0.143 h -27.621 c -0.175,0 -0.317,-0.064 -0.317,-0.143 v -5.836 c 0,-0.079 0.143,-0.143 0.317,-0.143 h 27.62 c 0.174,0 0.316,0.064 0.316,0.143 v 5.836 z m 21.777002,9.071 a 9.153,9.153 0 1 1 0,-18.306 9.153,9.153 0 0 1 0,18.306 z"
     id="path18"
     inkscape:connector-curvature="0"
     style="clip-rule:evenodd;fill:#e9e8e4;fill-rule:evenodd" />
  <circle
     cx="7.2618175"
     cy="5.7259998"
     r="3.0250001"
     id="circle20"
     style="fill:#dbdbdb" />
  <g
     id="g26"
     style="fill:#8e8e8e"
     transform="translate(8.175368e-4)">
    <path
       d="M 7.505,8.021 H 7.018 A 0.279,0.279 0 0 1 6.74,7.743 V 3.709 c 0,-0.153 0.125,-0.278 0.278,-0.278 h 0.487 c 0.153,0 0.278,0.125 0.278,0.278 V 7.743 A 0.279,0.279 0 0 1 7.505,8.021 Z"
       id="path22"
       inkscape:connector-curvature="0" />
    <path
       d="M 9.556,5.483 V 5.97 A 0.279,0.279 0 0 1 9.278,6.248 H 5.244 A 0.279,0.279 0 0 1 4.966,5.97 V 5.483 c 0,-0.153 0.125,-0.278 0.278,-0.278 h 4.034 c 0.153,0 0.278,0.125 0.278,0.278 z"
       id="path24"
       inkscape:connector-curvature="0" />
  </g>
  <circle
     cx="163.78882"
     cy="5.7259998"
     r="3.0250001"
     id="circle28"
     style="fill:#dbdbdb" />
  <g
     id="g34"
     style="fill:#8e8e8e"
     transform="translate(8.175368e-4)">
    <path
       d="m 164.032,8.021 h -0.487 A 0.279,0.279 0 0 1 163.267,7.743 V 3.709 c 0,-0.153 0.125,-0.278 0.278,-0.278 h 0.487 c 0.153,0 0.278,0.125 0.278,0.278 v 4.034 a 0.279,0.279 0 0 1 -0.278,0.278 z"
       id="path30"
       inkscape:connector-curvature="0" />
    <path
       d="M 166.083,5.483 V 5.97 a 0.279,0.279 0 0 1 -0.278,0.278 h -4.034 A 0.279,0.279 0 0 1 161.493,5.97 V 5.483 c 0,-0.153 0.125,-0.278 0.278,-0.278 h 4.034 c 0.153,0 0.278,0.125 0.278,0.278 z"
       id="path32"
       inkscape:connector-curvature="0" />
  </g>
  <circle
     cx="163.78882"
     cy="99.436996"
     r="3.0250001"
     id="circle36"
     style="fill:#dbdbdb" />
  <g
     id="g42"
     style="fill:#8e8e8e"
     transform="translate(8.175368e-4)">
    <path
       d="m 164.032,101.732 h -0.487 a 0.279,0.279 0 0 1 -0.278,-0.278 V 97.42 c 0,-0.153 0.125,-0.278 0.278,-0.278 h 0.487 c 0.153,0 0.278,0.125 0.278,0.278 v 4.034 a 0.28,0.28 0 0 1 -0.278,0.278 z"
       id="path38"
       inkscape:connector-curvature="0" />
    <path
       d="m 166.083,99.193 v 0.487 a 0.279,0.279 0 0 1 -0.278,0.278 h -4.034 a 0.279,0.279 0 0 1 -0.278,-0.278 v -0.487 c 0,-0.153 0.125,-0.278 0.278,-0.278 h 4.034 c 0.153,0 0.278,0.125 0.278,0.278 z"
       id="path40"
       inkscape:connector-curvature="0" />
  </g>
  <circle
     cx="7.2618175"
     cy="99.436996"
     r="3.0250001"
     id="circle44"
     style="fill:#dbdbdb" />
  <g
     id="g50"
     style="fill:#8e8e8e"
     transform="translate(8.175368e-4)">
    <path
       d="M 7.505,101.732 H 7.018 A 0.279,0.279 0 0 1 6.74,101.454 V 97.42 c 0,-0.153 0.125,-0.278 0.278,-0.278 h 0.487 c 0.153,0 0.278,0.125 0.278,0.278 v 4.034 a 0.28,0.28 0 0 1 -0.278,0.278 z"
       id="path46"
       inkscape:connector-curvature="0" />
    <path
       d="M 9.556,99.193 V 99.68 A 0.279,0.279 0 0 1 9.278,99.958 H 5.244 A 0.279,0.279 0 0 1 4.966,99.68 v -0.487 c 0,-0.153 0.125,-0.278 0.278,-0.278 h 4.034 c 0.153,0 0.278,0.125 0.278,0.278 z"
       id="path48"
       inkscape:connector-curvature="0" />
  </g>
  <circle
     cx="85.545815"
     cy="87"
     r="3.0250001"
     id="circle52"
     style="fill:#dbdbdb" />
  <g
     id="g58"
     style="fill:#8e8e8e"
     transform="translate(8.175368e-4)">
    <path
       d="m 85.789,89.295 h -0.487 a 0.279,0.279 0 0 1 -0.278,-0.278 v -4.034 c 0,-0.153 0.125,-0.278 0.278,-0.278 h 0.487 c 0.153,0 0.278,0.125 0.278,0.278 v 4.034 a 0.279,0.279 0 0 1 -0.278,0.278 z"
       id="path54"
       inkscape:connector-curvature="0" />
    <path
       d="m 87.84,86.757 v 0.487 a 0.279,0.279 0 0 1 -0.278,0.278 H 83.528 A 0.279,0.279 0 0 1 83.25,87.244 v -0.487 c 0,-0.153 0.125,-0.278 0.278,-0.278 h 4.034 a 0.278,0.278 0 0 1 0.278,0.278 z"
       id="path56"
       inkscape:connector-curvature="0" />
  </g>
  <g
     id="g62"
     transform="translate(8.175368e-4)">
    <path
       d="m 68.186,11.256 v 2.809 h -0.324 v -2.809 h -0.887 v -0.297 h 2.098 v 0.297 z m 1.215,2.061 -0.262,0.747 h -0.347 l 1.13,-3.106 h 0.274 l 1.13,3.106 H 70.98 l -0.261,-0.747 z m 0.657,-1.9 -0.563,1.621 h 1.13 z m 3.924,2.647 h -0.328 l -1.607,-2.503 v 2.503 h -0.328 v -3.106 h 0.328 l 1.607,2.494 v -2.494 h 0.328 z m 0.656,-1.152 v -0.806 c 0,-0.411 0.098,-0.712 0.293,-0.903 0.195,-0.19 0.457,-0.286 0.787,-0.286 0.327,0 0.588,0.095 0.781,0.286 0.193,0.191 0.291,0.492 0.291,0.903 v 0.806 c 0,0.411 -0.098,0.712 -0.293,0.902 -0.195,0.191 -0.456,0.286 -0.783,0.286 -0.33,0 -0.592,-0.095 -0.785,-0.286 -0.194,-0.19 -0.291,-0.491 -0.291,-0.902 z m 1.823,-0.792 c 0,-0.604 -0.247,-0.905 -0.743,-0.905 -0.249,0 -0.437,0.071 -0.563,0.213 -0.126,0.142 -0.188,0.373 -0.188,0.691 v 0.81 c 0,0.303 0.063,0.523 0.191,0.662 0.127,0.138 0.313,0.207 0.56,0.207 0.496,0 0.743,-0.29 0.743,-0.869 z m 4.631,1.944 h -0.328 v -2.431 l -0.878,1.81 h -0.252 l -0.883,-1.81 v 2.431 h -0.328 v -3.106 h 0.328 l 1.009,2.093 1.004,-2.093 h 0.328 z m 0.999,-0.747 -0.262,0.747 h -0.347 l 1.13,-3.106 h 0.274 l 1.13,3.106 H 83.67 l -0.261,-0.747 z m 0.657,-1.9 -0.563,1.621 h 1.13 z m 1.448,1.77 h 0.324 c 0.042,0.411 0.288,0.617 0.738,0.617 0.234,0 0.412,-0.049 0.533,-0.148 0.122,-0.099 0.183,-0.243 0.183,-0.432 0,-0.171 -0.048,-0.3 -0.145,-0.387 -0.096,-0.087 -0.241,-0.147 -0.437,-0.18 l -0.351,-0.059 c -0.252,-0.042 -0.446,-0.128 -0.581,-0.259 -0.135,-0.131 -0.202,-0.314 -0.202,-0.552 0,-0.273 0.091,-0.486 0.274,-0.639 0.183,-0.153 0.425,-0.229 0.725,-0.229 0.276,0 0.502,0.071 0.678,0.214 0.175,0.143 0.279,0.359 0.313,0.65 h -0.324 c -0.036,-0.387 -0.26,-0.581 -0.671,-0.581 -0.213,0 -0.379,0.05 -0.497,0.151 -0.118,0.101 -0.178,0.238 -0.178,0.412 0,0.153 0.046,0.272 0.138,0.358 0.091,0.085 0.229,0.145 0.416,0.178 l 0.36,0.063 c 0.261,0.045 0.46,0.135 0.599,0.27 0.138,0.135 0.207,0.326 0.207,0.572 0,0.282 -0.095,0.5 -0.284,0.655 -0.188,0.154 -0.448,0.231 -0.778,0.231 -0.313,0 -0.557,-0.076 -0.733,-0.229 -0.178,-0.154 -0.28,-0.379 -0.307,-0.676 z m 3.555,-1.931 v 2.809 H 87.427 V 11.256 H 86.54 v -0.297 h 2.098 v 0.297 z m 1.611,1.08 h 1.333 v 0.297 h -1.333 v 1.135 h 1.558 v 0.297 h -1.886 v -3.106 h 1.886 v 0.297 h -1.558 z m 2.462,0.365 v 1.364 h -0.328 v -3.106 h 1.152 c 0.291,0 0.52,0.076 0.687,0.228 0.166,0.151 0.249,0.367 0.249,0.646 0,0.222 -0.058,0.405 -0.175,0.549 -0.117,0.144 -0.281,0.24 -0.491,0.288 l 0.734,1.396 h -0.379 l -0.702,-1.364 h -0.747 z m 0.797,-0.284 c 0.201,0 0.357,-0.05 0.468,-0.151 0.111,-0.101 0.167,-0.244 0.167,-0.43 0,-0.192 -0.055,-0.337 -0.164,-0.435 -0.109,-0.098 -0.267,-0.146 -0.471,-0.146 h -0.797 v 1.161 h 0.797 z m 3.663,-0.531 c 0,0.279 -0.088,0.498 -0.264,0.657 -0.175,0.159 -0.413,0.239 -0.713,0.239 h -0.788 v 1.283 h -0.328 v -3.106 h 1.116 c 0.303,0 0.542,0.08 0.716,0.241 0.174,0.161 0.261,0.389 0.261,0.686 z m -0.328,0 c 0,-0.213 -0.059,-0.371 -0.176,-0.475 -0.117,-0.104 -0.284,-0.155 -0.5,-0.155 h -0.761 v 1.229 h 0.761 c 0.216,0 0.383,-0.049 0.5,-0.148 0.117,-0.099 0.176,-0.25 0.176,-0.451 z m 0.913,1.431 -0.262,0.747 H 96.26 l 1.13,-3.106 h 0.274 l 1.13,3.106 h -0.347 l -0.261,-0.747 z m 0.656,-1.9 -0.563,1.621 h 1.13 z m 1.558,1.495 v -0.806 c 0,-0.411 0.1,-0.712 0.297,-0.903 0.198,-0.19 0.464,-0.286 0.797,-0.286 0.21,0 0.396,0.039 0.557,0.117 0.16,0.078 0.284,0.189 0.371,0.333 0.087,0.144 0.13,0.311 0.13,0.5 v 0.014 h -0.328 v -0.014 a 0.61,0.61 0 0 0 -0.195,-0.477 c -0.131,-0.117 -0.309,-0.175 -0.534,-0.175 -0.249,0 -0.438,0.07 -0.569,0.211 -0.13,0.141 -0.195,0.372 -0.195,0.693 v 0.81 c 0,0.579 0.256,0.869 0.77,0.869 0.225,0 0.402,-0.058 0.531,-0.173 a 0.604,0.604 0 0 0 0.193,-0.475 v -0.018 h 0.319 v 0.018 c 0,0.291 -0.095,0.522 -0.283,0.693 -0.189,0.171 -0.444,0.257 -0.766,0.257 -0.333,0 -0.599,-0.095 -0.797,-0.286 -0.199,-0.19 -0.298,-0.491 -0.298,-0.902 z m 3.135,0.297 v 0.855 h -0.328 v -3.106 h 0.328 v 1.81 l 1.437,-1.81 h 0.392 l -0.981,1.211 1.121,1.895 h -0.383 l -0.95,-1.639 z m -49.592,3.446 v 2.809 h -0.324 v -2.809 h -0.887 v -0.297 h 2.098 v 0.297 z m 1.084,1.657 v -0.806 c 0,-0.411 0.098,-0.712 0.293,-0.903 0.195,-0.19 0.457,-0.286 0.787,-0.286 0.327,0 0.588,0.095 0.781,0.286 0.193,0.191 0.291,0.492 0.291,0.903 v 0.806 c 0,0.411 -0.098,0.712 -0.293,0.902 -0.195,0.191 -0.456,0.286 -0.783,0.286 -0.33,0 -0.592,-0.095 -0.785,-0.286 -0.194,-0.19 -0.291,-0.491 -0.291,-0.902 z m 1.824,-0.792 c 0,-0.603 -0.247,-0.904 -0.743,-0.904 -0.249,0 -0.437,0.071 -0.563,0.213 -0.126,0.143 -0.188,0.373 -0.188,0.691 v 0.811 c 0,0.303 0.063,0.523 0.191,0.662 0.127,0.138 0.313,0.207 0.56,0.207 0.496,0 0.743,-0.29 0.743,-0.869 z m 2.29,-1.162 v 2.809 h 1.549 v 0.297 h -1.877 v -3.106 z m 1.813,1.954 v -0.806 c 0,-0.411 0.098,-0.712 0.293,-0.903 0.195,-0.19 0.457,-0.286 0.787,-0.286 0.327,0 0.588,0.095 0.781,0.286 0.193,0.191 0.29,0.492 0.29,0.903 v 0.806 c 0,0.411 -0.097,0.712 -0.292,0.902 -0.195,0.191 -0.456,0.286 -0.783,0.286 -0.33,0 -0.592,-0.095 -0.785,-0.286 -0.194,-0.19 -0.291,-0.491 -0.291,-0.902 z M 61.46,17.52 c 0,-0.603 -0.248,-0.904 -0.743,-0.904 -0.249,0 -0.437,0.071 -0.563,0.213 -0.126,0.143 -0.188,0.373 -0.188,0.691 v 0.811 c 0,0.303 0.063,0.523 0.191,0.662 0.127,0.138 0.313,0.207 0.56,0.207 0.495,0 0.743,-0.29 0.743,-0.869 z m 1.265,1.197 -0.262,0.747 h -0.347 l 1.13,-3.106 h 0.274 l 1.13,3.106 h -0.347 l -0.261,-0.747 z m 0.657,-1.9 -0.563,1.621 h 1.13 z m 2.723,-0.459 c 0.33,0 0.592,0.095 0.785,0.286 0.193,0.191 0.29,0.492 0.29,0.903 v 0.729 c 0,0.411 -0.097,0.712 -0.29,0.903 -0.193,0.19 -0.455,0.286 -0.785,0.286 h -1.063 v -3.106 h 1.063 z m 0.742,1.936 V 17.56 c 0,-0.315 -0.063,-0.544 -0.191,-0.688 -0.127,-0.144 -0.31,-0.216 -0.547,-0.216 h -0.733 v 2.512 h 0.733 c 0.492,-10e-4 0.738,-0.292 0.738,-0.874 z M 69.7,16.655 v 2.809 h -0.324 v -2.809 h -0.887 v -0.297 h 2.098 v 0.297 z m 2.209,2.809 h -0.328 v -1.305 l -0.928,-1.801 h 0.355 l 0.734,1.49 0.738,-1.49 h 0.355 l -0.928,1.805 v 1.301 z m 3.411,-2.178 c 0,0.279 -0.088,0.498 -0.264,0.657 -0.175,0.159 -0.413,0.239 -0.713,0.239 h -0.788 v 1.283 h -0.328 v -3.106 h 1.116 c 0.303,0 0.542,0.08 0.716,0.241 0.174,0.161 0.261,0.389 0.261,0.686 z m -0.328,0 c 0,-0.213 -0.059,-0.371 -0.176,-0.475 -0.117,-0.104 -0.284,-0.156 -0.5,-0.156 h -0.761 v 1.229 h 0.761 c 0.216,0 0.383,-0.049 0.5,-0.148 0.117,-0.099 0.176,-0.249 0.176,-0.45 z m 1.16,0.45 h 1.333 v 0.297 h -1.333 v 1.135 h 1.558 v 0.297 h -1.886 v -3.106 h 1.886 v 0.297 h -1.558 z m 4.254,0.018 v 0.297 h -1.238 v -0.297 z m 1.537,0.558 v -0.806 c 0,-0.411 0.1,-0.712 0.297,-0.903 0.198,-0.19 0.464,-0.286 0.797,-0.286 0.21,0 0.396,0.039 0.557,0.117 0.16,0.078 0.284,0.189 0.371,0.333 0.087,0.144 0.131,0.311 0.131,0.5 v 0.014 H 83.767 V 17.267 A 0.61,0.61 0 0 0 83.572,16.79 c -0.131,-0.117 -0.309,-0.175 -0.534,-0.175 -0.249,0 -0.438,0.07 -0.569,0.211 -0.13,0.141 -0.195,0.372 -0.195,0.693 v 0.811 c 0,0.579 0.256,0.869 0.77,0.869 0.225,0 0.402,-0.058 0.531,-0.173 a 0.604,0.604 0 0 0 0.193,-0.475 v -0.018 h 0.319 v 0.018 c 0,0.291 -0.095,0.522 -0.283,0.693 -0.189,0.171 -0.444,0.257 -0.766,0.257 -0.333,0 -0.599,-0.095 -0.797,-0.286 -0.198,-0.191 -0.298,-0.492 -0.298,-0.903 z m 3.137,-1.954 v 2.809 h 1.549 v 0.297 h -1.877 v -3.106 z m 1.813,1.954 v -0.806 c 0,-0.411 0.098,-0.712 0.293,-0.903 0.195,-0.19 0.457,-0.286 0.787,-0.286 0.327,0 0.588,0.095 0.781,0.286 0.193,0.191 0.29,0.492 0.29,0.903 v 0.806 c 0,0.411 -0.097,0.712 -0.292,0.902 -0.195,0.191 -0.456,0.286 -0.783,0.286 -0.33,0 -0.592,-0.095 -0.785,-0.286 -0.194,-0.19 -0.291,-0.491 -0.291,-0.902 z m 1.823,-0.792 c 0,-0.603 -0.248,-0.904 -0.743,-0.904 -0.249,0 -0.437,0.071 -0.563,0.213 -0.126,0.143 -0.188,0.373 -0.188,0.691 v 0.811 c 0,0.303 0.063,0.523 0.191,0.662 0.127,0.138 0.313,0.207 0.56,0.207 0.495,0 0.743,-0.29 0.743,-0.869 z m 1.265,1.197 -0.262,0.747 h -0.347 l 1.13,-3.106 h 0.274 l 1.13,3.106 H 91.56 l -0.261,-0.747 z m 0.657,-1.9 -0.563,1.621 h 1.13 z m 2.723,-0.459 c 0.33,0 0.592,0.095 0.785,0.286 0.193,0.191 0.29,0.492 0.29,0.903 v 0.729 c 0,0.411 -0.097,0.712 -0.29,0.903 -0.193,0.19 -0.455,0.286 -0.785,0.286 h -1.063 v -3.106 h 1.063 z m 0.742,1.936 V 17.56 c 0,-0.315 -0.063,-0.544 -0.191,-0.688 -0.127,-0.144 -0.31,-0.216 -0.547,-0.216 h -0.733 v 2.512 h 0.733 c 0.492,-10e-4 0.738,-0.292 0.738,-0.874 z m 0.863,-1.058 V 16.48 l 0.297,-0.279 v 1.036 h -0.297 z m 0.617,0 V 16.48 l 0.297,-0.279 v 1.036 h -0.297 z m 1.224,0.509 h 1.333 v 0.297 h -1.333 v 1.422 h -0.328 v -3.106 h 1.886 v 0.297 h -1.558 z m 2.461,-1.387 v 3.106 H 98.94 v -3.106 z m 1.085,0 v 2.809 h 1.549 v 0.297 h -1.877 v -3.106 z m 2.38,1.378 h 1.333 v 0.297 h -1.333 v 1.135 h 1.558 v 0.297 h -1.886 v -3.106 h 1.886 v 0.297 h -1.558 z m 4.397,1.728 h -0.328 l -1.607,-2.503 v 2.503 h -0.328 v -3.106 h 0.328 l 1.607,2.494 v -2.494 h 0.328 z m 0.999,-0.747 -0.262,0.747 h -0.347 l 1.13,-3.106 h 0.274 l 1.13,3.106 h -0.347 l -0.261,-0.747 z m 0.658,-1.9 -0.563,1.621 h 1.13 z m 4.329,2.647 h -0.328 v -2.431 l -0.878,1.81 h -0.252 l -0.883,-1.81 v 2.431 h -0.328 v -3.106 h 0.328 l 1.009,2.093 1.004,-2.093 h 0.328 z m 1.047,-1.728 h 1.333 v 0.297 h -1.333 v 1.135 h 1.558 v 0.297 h -1.886 v -3.106 h 1.886 v 0.297 h -1.558 z m 1.922,0.85 h 0.324 c 0.042,0.411 0.288,0.617 0.738,0.617 0.234,0 0.412,-0.049 0.533,-0.148 0.122,-0.099 0.183,-0.243 0.183,-0.432 0,-0.171 -0.048,-0.3 -0.145,-0.387 -0.096,-0.087 -0.241,-0.147 -0.437,-0.18 l -0.351,-0.059 c -0.252,-0.042 -0.446,-0.128 -0.581,-0.259 -0.135,-0.131 -0.202,-0.314 -0.202,-0.552 0,-0.273 0.091,-0.486 0.274,-0.639 0.183,-0.153 0.425,-0.229 0.725,-0.229 0.276,0 0.502,0.071 0.678,0.214 0.175,0.143 0.279,0.359 0.313,0.65 h -0.324 c -0.036,-0.387 -0.26,-0.581 -0.671,-0.581 -0.213,0 -0.379,0.05 -0.497,0.151 -0.118,0.101 -0.178,0.238 -0.178,0.412 0,0.153 0.046,0.272 0.138,0.358 0.091,0.085 0.229,0.145 0.416,0.178 l 0.36,0.063 c 0.261,0.045 0.46,0.135 0.599,0.27 0.138,0.135 0.207,0.326 0.207,0.572 0,0.282 -0.095,0.5 -0.284,0.655 -0.188,0.154 -0.448,0.231 -0.778,0.231 -0.313,0 -0.557,-0.076 -0.733,-0.229 -0.179,-0.153 -0.28,-0.378 -0.307,-0.676 z m 2.844,-2.232 v 0.756 l -0.298,0.279 v -1.035 z m 0.616,0 v 0.756 l -0.297,0.279 V 16.354 Z M 33.5,23.145 h 1.332 v 0.297 H 33.5 v 1.422 h -0.328 v -3.106 h 1.886 v 0.297 H 33.5 Z m 2.46,-1.387 v 3.106 h -0.328 v -3.106 z m 1.085,0 v 2.809 h 1.549 v 0.297 h -1.877 v -3.106 z m 2.38,1.378 h 1.333 v 0.297 h -1.333 v 1.135 h 1.558 v 0.297 h -1.886 v -3.106 h 1.886 v 0.297 h -1.558 z m 4.398,1.728 h -0.328 l -1.607,-2.503 v 2.503 H 41.56 v -3.106 h 0.328 l 1.607,2.494 v -2.494 h 0.328 z m 0.998,-0.747 -0.261,0.747 h -0.347 l 1.13,-3.106 h 0.274 l 1.13,3.106 H 46.4 l -0.261,-0.747 z m 0.657,-1.9 -0.563,1.621 h 1.13 z m 4.33,2.647 h -0.329 v -2.431 l -0.877,1.81 h -0.253 l -0.882,-1.81 v 2.431 h -0.328 v -3.106 h 0.328 l 1.008,2.093 1.004,-2.093 h 0.329 z m 1.048,-1.728 h 1.332 v 0.297 h -1.332 v 1.135 h 1.558 v 0.297 h -1.886 v -3.106 h 1.886 v 0.297 h -1.558 z m 1.921,0.85 h 0.324 c 0.043,0.411 0.288,0.617 0.738,0.617 0.234,0 0.412,-0.049 0.534,-0.148 0.121,-0.099 0.182,-0.243 0.182,-0.432 0,-0.171 -0.048,-0.3 -0.144,-0.387 -0.097,-0.087 -0.242,-0.147 -0.437,-0.18 l -0.352,-0.059 c -0.252,-0.042 -0.445,-0.128 -0.581,-0.259 -0.135,-0.131 -0.202,-0.314 -0.202,-0.552 0,-0.273 0.092,-0.486 0.274,-0.639 0.184,-0.153 0.425,-0.229 0.725,-0.229 0.276,0 0.502,0.071 0.678,0.214 0.176,0.143 0.28,0.359 0.313,0.65 h -0.323 c -0.036,-0.387 -0.26,-0.581 -0.671,-0.581 -0.213,0 -0.379,0.05 -0.498,0.151 a 0.514,0.514 0 0 0 -0.178,0.412 c 0,0.153 0.046,0.272 0.138,0.358 0.092,0.086 0.23,0.145 0.416,0.178 l 0.36,0.063 c 0.261,0.045 0.461,0.135 0.599,0.27 0.139,0.135 0.207,0.326 0.207,0.572 0,0.282 -0.095,0.5 -0.283,0.655 -0.189,0.154 -0.449,0.231 -0.779,0.231 -0.312,0 -0.557,-0.076 -0.733,-0.229 -0.177,-0.153 -0.28,-0.378 -0.307,-0.676 z m 2.943,-1.057 v 0.414 h -0.396 v -0.414 z m 0,1.521 v 0.414 H 55.324 V 24.45 Z m 1.512,-0.738 v -0.806 c 0,-0.411 0.1,-0.712 0.297,-0.903 0.198,-0.19 0.464,-0.286 0.797,-0.286 0.21,0 0.396,0.039 0.557,0.117 0.16,0.078 0.284,0.189 0.371,0.333 0.087,0.144 0.131,0.311 0.131,0.5 v 0.014 H 59.056 V 22.667 A 0.61,0.61 0 0 0 58.861,22.19 c -0.131,-0.117 -0.309,-0.175 -0.534,-0.175 -0.249,0 -0.438,0.07 -0.569,0.211 -0.13,0.141 -0.195,0.372 -0.195,0.693 v 0.81 c 0,0.579 0.256,0.869 0.77,0.869 0.225,0 0.402,-0.058 0.531,-0.173 a 0.604,0.604 0 0 0 0.193,-0.475 v -0.018 h 0.319 v 0.018 c 0,0.291 -0.095,0.522 -0.283,0.693 -0.189,0.171 -0.444,0.257 -0.766,0.257 -0.333,0 -0.599,-0.095 -0.797,-0.286 -0.198,-0.19 -0.298,-0.491 -0.298,-0.902 z m 2.745,0 v -0.806 c 0,-0.411 0.1,-0.712 0.297,-0.903 0.198,-0.19 0.464,-0.286 0.797,-0.286 0.21,0 0.396,0.039 0.557,0.117 0.16,0.078 0.284,0.189 0.371,0.333 0.087,0.144 0.13,0.311 0.13,0.5 v 0.014 H 61.8 V 22.667 A 0.61,0.61 0 0 0 61.605,22.19 c -0.131,-0.117 -0.309,-0.175 -0.534,-0.175 -0.249,0 -0.438,0.07 -0.569,0.211 -0.13,0.141 -0.195,0.372 -0.195,0.693 v 0.81 c 0,0.579 0.256,0.869 0.77,0.869 0.225,0 0.402,-0.058 0.531,-0.173 a 0.604,0.604 0 0 0 0.193,-0.475 v -0.018 h 0.319 v 0.018 c 0,0.291 -0.095,0.522 -0.283,0.693 -0.189,0.171 -0.444,0.257 -0.766,0.257 -0.333,0 -0.599,-0.095 -0.797,-0.286 -0.197,-0.19 -0.297,-0.491 -0.297,-0.902 z m 5.221,1.152 h -0.292 l -0.688,-2.696 -0.671,2.696 h -0.293 l -0.797,-3.106 h 0.32 l 0.63,2.575 0.607,-2.575 h 0.419 l 0.63,2.575 0.607,-2.575 h 0.307 z M 66.696,23.5 v 1.364 h -0.328 v -3.106 h 1.152 c 0.291,0 0.52,0.076 0.687,0.228 0.166,0.151 0.25,0.367 0.25,0.646 0,0.222 -0.059,0.405 -0.176,0.549 -0.117,0.144 -0.281,0.24 -0.491,0.288 l 0.734,1.396 H 68.145 L 67.443,23.5 Z m 0.797,-0.283 c 0.201,0 0.357,-0.05 0.468,-0.151 0.111,-0.101 0.167,-0.244 0.167,-0.43 0,-0.192 -0.055,-0.337 -0.164,-0.435 -0.109,-0.098 -0.267,-0.146 -0.471,-0.146 h -0.797 v 1.161 h 0.797 z m 1.934,-1.459 v 3.106 h -0.328 v -3.106 z m 1.643,0.298 v 2.809 h -0.324 v -2.809 h -0.887 v -0.297 h 2.098 v 0.297 z m 1.61,1.08 h 1.333 v 0.297 H 72.68 v 1.135 h 1.558 v 0.297 h -1.886 v -3.106 h 1.886 v 0.297 H 72.68 Z m 2.462,0.364 v 1.364 h -0.328 v -3.106 h 1.152 c 0.291,0 0.52,0.076 0.687,0.228 0.166,0.151 0.249,0.367 0.249,0.646 0,0.222 -0.058,0.405 -0.175,0.549 -0.117,0.144 -0.281,0.24 -0.491,0.288 l 0.734,1.396 H 76.591 L 75.889,23.5 Z m 0.797,-0.283 c 0.201,0 0.357,-0.05 0.468,-0.151 0.111,-0.101 0.167,-0.244 0.167,-0.43 0,-0.192 -0.055,-0.337 -0.164,-0.435 -0.109,-0.098 -0.267,-0.146 -0.471,-0.146 h -0.797 v 1.161 h 0.797 z m 1.746,1.229 v 0.756 l -0.298,0.279 v -1.035 z m 1.511,-0.734 v -0.806 c 0,-0.411 0.1,-0.712 0.297,-0.903 0.198,-0.19 0.464,-0.286 0.797,-0.286 0.21,0 0.396,0.039 0.557,0.117 0.16,0.078 0.284,0.189 0.371,0.333 0.087,0.144 0.13,0.311 0.13,0.5 v 0.014 H 81.02 V 22.667 A 0.61,0.61 0 0 0 80.825,22.19 c -0.131,-0.117 -0.309,-0.175 -0.534,-0.175 -0.249,0 -0.438,0.07 -0.569,0.211 -0.13,0.141 -0.195,0.372 -0.195,0.693 v 0.81 c 0,0.579 0.256,0.869 0.77,0.869 0.225,0 0.402,-0.058 0.531,-0.173 a 0.604,0.604 0 0 0 0.193,-0.475 v -0.018 h 0.319 v 0.018 c 0,0.291 -0.095,0.522 -0.283,0.693 -0.189,0.171 -0.444,0.257 -0.766,0.257 -0.333,0 -0.599,-0.095 -0.797,-0.286 -0.199,-0.19 -0.298,-0.491 -0.298,-0.902 z m 2.745,0 v -0.806 c 0,-0.411 0.1,-0.712 0.297,-0.903 0.198,-0.19 0.464,-0.286 0.797,-0.286 0.21,0 0.396,0.039 0.557,0.117 0.16,0.078 0.284,0.189 0.371,0.333 0.087,0.144 0.131,0.311 0.131,0.5 v 0.014 H 83.765 V 22.667 A 0.61,0.61 0 0 0 83.57,22.19 c -0.131,-0.117 -0.309,-0.175 -0.534,-0.175 -0.249,0 -0.438,0.07 -0.569,0.211 -0.13,0.141 -0.195,0.372 -0.195,0.693 v 0.81 c 0,0.579 0.256,0.869 0.77,0.869 0.225,0 0.402,-0.058 0.531,-0.173 a 0.604,0.604 0 0 0 0.193,-0.475 v -0.018 h 0.319 v 0.018 c 0,0.291 -0.095,0.522 -0.283,0.693 -0.189,0.171 -0.444,0.257 -0.766,0.257 -0.333,0 -0.599,-0.095 -0.797,-0.286 -0.198,-0.19 -0.298,-0.491 -0.298,-0.902 z m 5.477,1.152 H 87.09 v -2.431 l -0.878,1.81 H 85.96 l -0.883,-1.81 v 2.431 H 84.75 v -3.106 h 0.328 l 1.009,2.093 1.004,-2.093 h 0.328 v 3.106 z m 1,-0.747 -0.262,0.747 h -0.347 l 1.13,-3.106 h 0.274 l 1.13,3.106 h -0.347 l -0.261,-0.747 z m 0.656,-1.9 -0.563,1.621 h 1.13 z m 2.025,-0.459 v 3.106 h -0.328 v -3.106 z m 1.084,0 v 2.809 h 1.549 v 0.297 h -1.877 v -3.106 z m 2.381,1.378 h 1.333 v 0.297 h -1.333 v 1.135 h 1.558 v 0.297 h -1.886 v -3.106 h 1.886 v 0.297 h -1.558 z m 2.461,0.364 v 1.364 h -0.328 v -3.106 h 1.152 c 0.291,0 0.52,0.076 0.687,0.228 0.166,0.151 0.249,0.367 0.249,0.646 0,0.222 -0.058,0.405 -0.175,0.549 -0.117,0.144 -0.281,0.24 -0.491,0.288 l 0.734,1.396 H 98.474 L 97.772,23.5 Z m 0.797,-0.283 c 0.201,0 0.357,-0.05 0.468,-0.151 0.111,-0.101 0.167,-0.244 0.167,-0.43 0,-0.192 -0.055,-0.337 -0.164,-0.435 -0.109,-0.098 -0.267,-0.146 -0.471,-0.146 h -0.797 v 1.161 h 0.797 z m 1.746,1.229 v 0.756 l -0.298,0.279 v -1.035 z m 1.512,-0.734 v -0.806 c 0,-0.411 0.1,-0.712 0.297,-0.903 0.198,-0.19 0.464,-0.286 0.797,-0.286 0.21,0 0.396,0.039 0.557,0.117 0.16,0.078 0.284,0.189 0.371,0.333 0.087,0.144 0.131,0.311 0.131,0.5 v 0.014 h -0.329 v -0.014 a 0.61,0.61 0 0 0 -0.195,-0.477 c -0.131,-0.117 -0.309,-0.175 -0.534,-0.175 -0.249,0 -0.438,0.07 -0.569,0.211 -0.13,0.141 -0.195,0.372 -0.195,0.693 v 0.81 c 0,0.579 0.256,0.869 0.77,0.869 0.225,0 0.402,-0.058 0.531,-0.173 a 0.604,0.604 0 0 0 0.193,-0.475 v -0.018 h 0.319 v 0.018 c 0,0.291 -0.095,0.522 -0.283,0.693 -0.189,0.171 -0.444,0.257 -0.766,0.257 -0.333,0 -0.599,-0.095 -0.797,-0.286 -0.199,-0.19 -0.298,-0.491 -0.298,-0.902 z m 2.745,0 v -0.806 c 0,-0.411 0.1,-0.712 0.297,-0.903 0.198,-0.19 0.464,-0.286 0.797,-0.286 0.21,0 0.396,0.039 0.557,0.117 0.16,0.078 0.284,0.189 0.371,0.333 0.087,0.144 0.13,0.311 0.13,0.5 v 0.014 h -0.328 v -0.014 a 0.61,0.61 0 0 0 -0.195,-0.477 c -0.131,-0.117 -0.309,-0.175 -0.534,-0.175 -0.249,0 -0.438,0.07 -0.569,0.211 -0.13,0.141 -0.195,0.372 -0.195,0.693 v 0.81 c 0,0.579 0.256,0.869 0.77,0.869 0.225,0 0.402,-0.058 0.531,-0.173 a 0.604,0.604 0 0 0 0.193,-0.475 v -0.018 h 0.319 v 0.018 c 0,0.291 -0.095,0.522 -0.283,0.693 -0.189,0.171 -0.444,0.257 -0.766,0.257 -0.333,0 -0.599,-0.095 -0.797,-0.286 -0.199,-0.19 -0.298,-0.491 -0.298,-0.902 z m 5.476,1.152 h -0.328 v -2.431 l -0.878,1.81 h -0.252 l -0.883,-1.81 v 2.431 h -0.328 v -3.106 h 0.328 l 1.009,2.093 1.004,-2.093 h 0.328 z m 1.048,-1.728 h 1.333 v 0.297 h -1.333 v 1.135 h 1.558 v 0.297 h -1.886 v -3.106 h 1.886 v 0.297 h -1.558 z m 2.462,0.364 v 1.364 h -0.328 v -3.106 h 1.152 c 0.291,0 0.52,0.076 0.687,0.228 0.166,0.151 0.25,0.367 0.25,0.646 0,0.222 -0.059,0.405 -0.176,0.549 -0.117,0.144 -0.281,0.24 -0.491,0.288 l 0.734,1.396 h -0.379 l -0.702,-1.364 h -0.747 z m 0.797,-0.283 c 0.201,0 0.357,-0.05 0.468,-0.151 0.111,-0.101 0.167,-0.244 0.167,-0.43 0,-0.192 -0.055,-0.337 -0.164,-0.435 -0.109,-0.098 -0.267,-0.146 -0.471,-0.146 h -0.797 v 1.161 h 0.797 z m 1.507,0.495 v -0.806 c 0,-0.411 0.099,-0.712 0.295,-0.903 0.196,-0.19 0.46,-0.286 0.79,-0.286 0.213,0 0.399,0.039 0.559,0.117 0.16,0.078 0.282,0.188 0.369,0.331 0.087,0.143 0.13,0.307 0.13,0.493 v 0.018 h -0.328 v -0.018 a 0.597,0.597 0 0 0 -0.196,-0.471 c -0.13,-0.115 -0.307,-0.173 -0.528,-0.173 -0.249,0 -0.438,0.071 -0.567,0.213 -0.129,0.142 -0.193,0.373 -0.193,0.691 v 0.81 c 0,0.579 0.255,0.869 0.765,0.869 0.237,0 0.418,-0.064 0.543,-0.193 0.124,-0.129 0.187,-0.335 0.187,-0.617 V 23.55 h -0.743 v -0.284 h 1.072 v 0.464 c 0,0.408 -0.097,0.705 -0.289,0.891 -0.191,0.186 -0.451,0.279 -0.778,0.279 -0.33,0 -0.594,-0.095 -0.79,-0.286 -0.2,-0.19 -0.298,-0.491 -0.298,-0.902 z m 3.136,-0.576 h 1.333 v 0.297 h -1.333 v 1.135 h 1.558 v 0.297 h -1.886 v -3.106 h 1.886 v 0.297 h -1.558 z m 2.461,0.364 v 1.364 h -0.328 v -3.106 h 1.152 c 0.291,0 0.52,0.076 0.687,0.228 0.166,0.151 0.249,0.367 0.249,0.646 0,0.222 -0.058,0.405 -0.175,0.549 -0.117,0.144 -0.281,0.24 -0.491,0.288 l 0.734,1.396 h -0.379 L 121.46,23.5 Z m 0.797,-0.283 c 0.201,0 0.357,-0.05 0.468,-0.151 0.111,-0.101 0.167,-0.244 0.167,-0.43 0,-0.192 -0.055,-0.337 -0.164,-0.435 -0.109,-0.098 -0.267,-0.146 -0.471,-0.146 h -0.797 v 1.161 h 0.797 z m 1.747,1.229 v 0.756 l -0.298,0.279 v -1.035 z m 1.511,-0.734 v -0.806 c 0,-0.411 0.1,-0.712 0.297,-0.903 0.198,-0.19 0.464,-0.286 0.797,-0.286 0.21,0 0.396,0.039 0.557,0.117 0.16,0.078 0.284,0.189 0.371,0.333 0.087,0.144 0.131,0.311 0.131,0.5 v 0.014 h -0.329 v -0.014 a 0.61,0.61 0 0 0 -0.195,-0.477 c -0.131,-0.117 -0.309,-0.175 -0.534,-0.175 -0.249,0 -0.438,0.07 -0.569,0.211 -0.13,0.141 -0.195,0.372 -0.195,0.693 v 0.81 c 0,0.579 0.256,0.869 0.77,0.869 0.225,0 0.402,-0.058 0.531,-0.173 a 0.604,0.604 0 0 0 0.193,-0.475 v -0.018 h 0.319 v 0.018 c 0,0.291 -0.095,0.522 -0.283,0.693 -0.189,0.171 -0.444,0.257 -0.766,0.257 -0.333,0 -0.599,-0.095 -0.797,-0.286 -0.198,-0.19 -0.298,-0.491 -0.298,-0.902 z m 2.745,0 v -0.806 c 0,-0.411 0.1,-0.712 0.297,-0.903 0.198,-0.19 0.464,-0.286 0.797,-0.286 0.21,0 0.396,0.039 0.557,0.117 0.16,0.078 0.284,0.189 0.371,0.333 0.087,0.144 0.13,0.311 0.13,0.5 v 0.014 h -0.328 v -0.014 a 0.61,0.61 0 0 0 -0.195,-0.477 c -0.131,-0.117 -0.309,-0.175 -0.534,-0.175 -0.249,0 -0.438,0.07 -0.569,0.211 -0.13,0.141 -0.195,0.372 -0.195,0.693 v 0.81 c 0,0.579 0.256,0.869 0.77,0.869 0.225,0 0.402,-0.058 0.531,-0.173 a 0.604,0.604 0 0 0 0.193,-0.475 v -0.018 h 0.319 v 0.018 c 0,0.291 -0.095,0.522 -0.283,0.693 -0.189,0.171 -0.444,0.257 -0.766,0.257 -0.333,0 -0.599,-0.095 -0.797,-0.286 -0.198,-0.19 -0.298,-0.491 -0.298,-0.902 z m 3.137,-0.567 h 1.333 v 0.297 h -1.333 v 1.422 h -0.328 v -3.106 h 1.886 v 0.297 h -1.558 z m 2.461,-1.387 v 3.106 h -0.328 v -3.106 z m 1.085,0 v 2.809 h 1.549 v 0.297 h -1.877 v -3.106 z m 2.38,1.378 h 1.333 v 0.297 h -1.333 v 1.135 h 1.558 v 0.297 h -1.886 v -3.106 h 1.886 v 0.297 h -1.558 z M 31.369,29.112 v -0.806 c 0,-0.411 0.099,-0.712 0.297,-0.903 0.198,-0.19 0.464,-0.286 0.797,-0.286 0.21,0 0.396,0.039 0.556,0.117 a 0.867,0.867 0 0 1 0.372,0.333 c 0.087,0.144 0.13,0.311 0.13,0.5 v 0.014 H 33.193 V 28.067 A 0.607,0.607 0 0 0 32.997,27.59 c -0.13,-0.117 -0.308,-0.175 -0.533,-0.175 -0.249,0 -0.438,0.07 -0.569,0.211 -0.131,0.141 -0.196,0.372 -0.196,0.693 v 0.81 c 0,0.579 0.257,0.869 0.771,0.869 0.225,0 0.401,-0.058 0.531,-0.173 a 0.604,0.604 0 0 0 0.193,-0.475 v -0.018 h 0.319 v 0.018 c 0,0.291 -0.095,0.522 -0.283,0.693 -0.189,0.171 -0.444,0.257 -0.766,0.257 -0.333,0 -0.599,-0.095 -0.797,-0.286 -0.2,-0.19 -0.298,-0.491 -0.298,-0.902 z m 2.745,0 v -0.806 c 0,-0.411 0.099,-0.712 0.297,-0.903 0.198,-0.19 0.464,-0.286 0.797,-0.286 0.21,0 0.396,0.039 0.556,0.117 a 0.867,0.867 0 0 1 0.372,0.333 c 0.087,0.144 0.13,0.311 0.13,0.5 v 0.014 H 35.938 V 28.067 A 0.607,0.607 0 0 0 35.742,27.59 c -0.13,-0.117 -0.308,-0.175 -0.533,-0.175 -0.249,0 -0.438,0.07 -0.569,0.211 -0.131,0.141 -0.196,0.372 -0.196,0.693 v 0.81 c 0,0.579 0.257,0.869 0.771,0.869 0.225,0 0.401,-0.058 0.531,-0.173 a 0.604,0.604 0 0 0 0.193,-0.475 v -0.018 h 0.319 v 0.018 c 0,0.291 -0.095,0.522 -0.283,0.693 -0.189,0.171 -0.444,0.257 -0.766,0.257 -0.333,0 -0.599,-0.095 -0.797,-0.286 -0.2,-0.19 -0.298,-0.491 -0.298,-0.902 z m 2.744,0 v -0.806 c 0,-0.411 0.1,-0.712 0.298,-0.903 0.198,-0.19 0.463,-0.286 0.797,-0.286 0.21,0 0.395,0.039 0.556,0.117 0.16,0.078 0.284,0.189 0.371,0.333 0.087,0.144 0.131,0.311 0.131,0.5 v 0.014 H 38.682 V 28.067 A 0.61,0.61 0 0 0 38.487,27.59 c -0.131,-0.117 -0.309,-0.175 -0.533,-0.175 -0.249,0 -0.439,0.07 -0.57,0.211 -0.13,0.141 -0.195,0.372 -0.195,0.693 v 0.81 c 0,0.579 0.257,0.869 0.77,0.869 0.226,0 0.402,-0.058 0.531,-0.173 a 0.604,0.604 0 0 0 0.193,-0.475 v -0.018 h 0.32 v 0.018 c 0,0.291 -0.095,0.522 -0.284,0.693 -0.188,0.171 -0.444,0.257 -0.765,0.257 -0.334,0 -0.599,-0.095 -0.797,-0.286 -0.199,-0.19 -0.299,-0.491 -0.299,-0.902 z m 3.088,0.406 -0.262,0.747 h -0.346 l 1.129,-3.106 h 0.275 l 1.13,3.106 h -0.347 l -0.262,-0.747 z m 0.657,-1.9 -0.563,1.621 h 1.13 z m 1.988,-0.459 v 2.809 h 1.549 v 0.297 h -1.877 v -3.106 z m 1.814,1.953 v -0.806 c 0,-0.411 0.099,-0.712 0.297,-0.903 0.198,-0.19 0.464,-0.286 0.797,-0.286 0.21,0 0.396,0.039 0.556,0.117 a 0.867,0.867 0 0 1 0.372,0.333 c 0.087,0.144 0.13,0.311 0.13,0.5 v 0.014 H 46.229 V 28.067 A 0.607,0.607 0 0 0 46.033,27.59 c -0.13,-0.117 -0.308,-0.175 -0.533,-0.175 -0.249,0 -0.438,0.07 -0.569,0.211 -0.131,0.141 -0.196,0.372 -0.196,0.693 v 0.81 c 0,0.579 0.257,0.869 0.771,0.869 0.225,0 0.401,-0.058 0.531,-0.173 A 0.604,0.604 0 0 0 46.23,29.35 v -0.018 h 0.319 v 0.018 c 0,0.291 -0.095,0.522 -0.283,0.693 -0.189,0.171 -0.444,0.257 -0.766,0.257 -0.333,0 -0.599,-0.095 -0.797,-0.286 -0.2,-0.19 -0.298,-0.491 -0.298,-0.902 z m 2.983,0.734 v 0.756 l -0.297,0.279 v -1.035 z m 2.638,-2.687 c 0.33,0 0.592,0.095 0.785,0.286 0.193,0.191 0.29,0.492 0.29,0.903 v 0.729 c 0,0.411 -0.097,0.712 -0.29,0.903 -0.193,0.19 -0.455,0.286 -0.785,0.286 H 48.963 V 27.16 h 1.063 z m 0.742,1.935 V 28.36 c 0,-0.315 -0.063,-0.544 -0.191,-0.688 -0.127,-0.144 -0.31,-0.216 -0.547,-0.216 h -0.733 v 2.512 h 0.733 c 0.492,0 0.738,-0.292 0.738,-0.874 z m 1.318,-0.193 v 1.364 h -0.328 v -3.106 h 1.152 c 0.291,0 0.52,0.076 0.687,0.228 0.166,0.151 0.25,0.367 0.25,0.646 0,0.222 -0.059,0.405 -0.176,0.549 -0.117,0.144 -0.281,0.24 -0.491,0.288 l 0.734,1.396 h -0.379 l -0.702,-1.364 h -0.747 z m 0.797,-0.284 c 0.201,0 0.357,-0.05 0.468,-0.151 0.111,-0.101 0.167,-0.244 0.167,-0.43 0,-0.192 -0.055,-0.337 -0.164,-0.435 -0.109,-0.098 -0.267,-0.146 -0.471,-0.146 h -0.797 v 1.161 h 0.797 z m 1.85,0.901 -0.262,0.747 h -0.347 l 1.13,-3.106 h 0.274 l 1.13,3.106 H 56.311 L 56.05,29.518 Z m 0.657,-1.9 -0.563,1.621 h 1.13 z m 2.025,-0.459 v 3.106 h -0.328 v -3.106 z m 3.019,3.106 h -0.328 l -1.607,-2.503 v 2.503 H 58.17 v -3.106 h 0.328 l 1.607,2.494 v -2.494 h 0.328 v 3.106 z m 1.607,-2.809 v 2.809 H 61.717 V 27.456 H 60.83 v -0.297 h 2.098 v 0.297 z m 1.61,1.445 v 1.364 h -0.328 v -3.106 h 1.152 c 0.291,0 0.52,0.076 0.687,0.228 0.166,0.151 0.25,0.367 0.25,0.646 0,0.222 -0.059,0.405 -0.176,0.549 -0.117,0.144 -0.281,0.24 -0.491,0.288 l 0.734,1.396 H 65.1 l -0.702,-1.364 h -0.747 z m 0.797,-0.284 c 0.201,0 0.357,-0.05 0.468,-0.151 0.111,-0.101 0.167,-0.244 0.167,-0.43 0,-0.192 -0.055,-0.337 -0.164,-0.435 -0.109,-0.098 -0.267,-0.146 -0.471,-0.146 h -0.797 v 1.161 h 0.797 z m 1.508,0.495 v -0.806 c 0,-0.411 0.098,-0.712 0.293,-0.903 0.195,-0.19 0.457,-0.286 0.787,-0.286 0.327,0 0.588,0.095 0.781,0.286 0.193,0.191 0.29,0.492 0.29,0.903 v 0.806 c 0,0.411 -0.097,0.712 -0.292,0.902 -0.195,0.191 -0.456,0.286 -0.783,0.286 -0.33,0 -0.592,-0.095 -0.785,-0.286 -0.195,-0.19 -0.291,-0.491 -0.291,-0.902 z m 1.823,-0.792 c 0,-0.604 -0.248,-0.905 -0.743,-0.905 -0.249,0 -0.437,0.071 -0.563,0.213 -0.126,0.142 -0.188,0.373 -0.188,0.691 v 0.81 c 0,0.303 0.063,0.523 0.191,0.662 0.127,0.138 0.313,0.207 0.56,0.207 0.495,0 0.743,-0.29 0.743,-0.869 z m 1.16,1.526 v 0.756 l -0.298,0.279 v -1.035 z m 2.638,-2.687 c 0.33,0 0.592,0.095 0.785,0.286 0.193,0.191 0.29,0.492 0.29,0.903 v 0.729 c 0,0.411 -0.097,0.712 -0.29,0.903 -0.193,0.19 -0.455,0.286 -0.785,0.286 H 70.514 V 27.16 h 1.063 z m 0.742,1.935 V 28.36 c 0,-0.315 -0.063,-0.544 -0.191,-0.688 -0.127,-0.144 -0.31,-0.216 -0.547,-0.216 h -0.733 v 2.512 h 0.733 c 0.492,0 0.738,-0.292 0.738,-0.874 z m 1.317,-0.193 v 1.364 h -0.328 v -3.106 h 1.152 c 0.291,0 0.52,0.076 0.687,0.228 0.166,0.151 0.249,0.367 0.249,0.646 0,0.222 -0.058,0.405 -0.175,0.549 -0.117,0.144 -0.281,0.24 -0.491,0.288 l 0.734,1.396 h -0.379 l -0.702,-1.364 h -0.747 z m 0.797,-0.284 c 0.201,0 0.357,-0.05 0.468,-0.151 0.111,-0.101 0.167,-0.244 0.167,-0.43 0,-0.192 -0.055,-0.337 -0.164,-0.435 -0.109,-0.098 -0.267,-0.146 -0.471,-0.146 h -0.797 v 1.161 h 0.797 z m 1.851,0.901 -0.262,0.747 h -0.347 l 1.13,-3.106 h 0.274 l 1.13,3.106 h -0.347 l -0.261,-0.747 z m 0.657,-1.9 -0.563,1.621 h 1.13 z m 1.556,1.494 v -0.806 c 0,-0.411 0.099,-0.712 0.295,-0.903 0.196,-0.19 0.46,-0.286 0.79,-0.286 0.213,0 0.399,0.039 0.559,0.117 a 0.879,0.879 0 0 1 0.369,0.331 c 0.087,0.143 0.13,0.307 0.13,0.493 v 0.018 h -0.328 v -0.018 a 0.597,0.597 0 0 0 -0.196,-0.471 c -0.13,-0.115 -0.307,-0.173 -0.528,-0.173 -0.249,0 -0.438,0.071 -0.567,0.213 -0.129,0.142 -0.193,0.373 -0.193,0.691 v 0.81 c 0,0.579 0.255,0.869 0.765,0.869 0.237,0 0.418,-0.064 0.543,-0.193 0.124,-0.129 0.187,-0.335 0.187,-0.617 V 28.95 H 79.58 v -0.284 h 1.071 v 0.464 c 0,0.408 -0.096,0.705 -0.287,0.891 -0.192,0.186 -0.452,0.279 -0.779,0.279 -0.33,0 -0.594,-0.095 -0.79,-0.286 -0.2,-0.19 -0.298,-0.491 -0.298,-0.902 z m 2.745,0 v -0.806 c 0,-0.411 0.098,-0.712 0.293,-0.903 0.195,-0.19 0.457,-0.286 0.787,-0.286 0.327,0 0.588,0.095 0.781,0.286 0.193,0.191 0.291,0.492 0.291,0.903 v 0.806 c 0,0.411 -0.098,0.712 -0.293,0.902 -0.195,0.191 -0.456,0.286 -0.783,0.286 -0.33,0 -0.592,-0.095 -0.785,-0.286 -0.195,-0.19 -0.291,-0.491 -0.291,-0.902 z m 1.823,-0.792 c 0,-0.604 -0.247,-0.905 -0.743,-0.905 -0.249,0 -0.437,0.071 -0.563,0.213 -0.126,0.142 -0.188,0.373 -0.188,0.691 v 0.81 c 0,0.303 0.063,0.523 0.191,0.662 0.127,0.138 0.313,0.207 0.56,0.207 0.496,0 0.743,-0.29 0.743,-0.869 z m 3.249,1.945 h -0.328 l -1.607,-2.503 v 2.503 H 84.05 v -3.106 h 0.328 l 1.607,2.494 v -2.494 h 0.328 v 3.106 z m 0.896,-0.419 v 0.756 l -0.298,0.279 v -1.035 z m 1.51,-0.734 v -0.806 c 0,-0.411 0.1,-0.712 0.297,-0.903 0.198,-0.19 0.464,-0.286 0.797,-0.286 0.21,0 0.396,0.039 0.557,0.117 0.16,0.078 0.284,0.189 0.371,0.333 0.087,0.144 0.131,0.311 0.131,0.5 v 0.014 H 90.544 V 28.067 A 0.61,0.61 0 0 0 90.349,27.59 c -0.131,-0.117 -0.309,-0.175 -0.534,-0.175 -0.249,0 -0.438,0.07 -0.569,0.211 -0.13,0.141 -0.195,0.372 -0.195,0.693 v 0.81 c 0,0.579 0.256,0.869 0.77,0.869 0.225,0 0.402,-0.058 0.531,-0.173 a 0.604,0.604 0 0 0 0.193,-0.475 v -0.018 h 0.319 v 0.018 c 0,0.291 -0.095,0.522 -0.283,0.693 -0.189,0.171 -0.444,0.257 -0.766,0.257 -0.333,0 -0.599,-0.095 -0.797,-0.286 -0.198,-0.19 -0.298,-0.491 -0.298,-0.902 z m 2.745,0 v -0.806 c 0,-0.411 0.098,-0.712 0.293,-0.903 0.195,-0.19 0.457,-0.286 0.787,-0.286 0.327,0 0.588,0.095 0.781,0.286 0.193,0.191 0.29,0.492 0.29,0.903 v 0.806 c 0,0.411 -0.097,0.712 -0.292,0.902 -0.195,0.191 -0.456,0.286 -0.783,0.286 -0.33,0 -0.592,-0.095 -0.785,-0.286 -0.194,-0.19 -0.291,-0.491 -0.291,-0.902 z m 1.824,-0.792 c 0,-0.604 -0.248,-0.905 -0.743,-0.905 -0.249,0 -0.437,0.071 -0.563,0.213 -0.126,0.142 -0.188,0.373 -0.188,0.691 v 0.81 c 0,0.303 0.063,0.523 0.191,0.662 0.127,0.138 0.313,0.207 0.56,0.207 0.495,0 0.743,-0.29 0.743,-0.869 z m 1.125,1.472 a 1.04,1.04 0 0 1 -0.14,-0.54 v -2.093 h 0.333 v 2.066 c 0,0.237 0.066,0.426 0.2,0.565 0.134,0.14 0.313,0.209 0.538,0.209 0.222,0 0.4,-0.07 0.535,-0.209 0.136,-0.139 0.203,-0.328 0.203,-0.565 v -2.066 h 0.328 v 2.093 c 0,0.204 -0.046,0.385 -0.137,0.542 -0.092,0.157 -0.219,0.28 -0.381,0.367 -0.162,0.087 -0.345,0.13 -0.549,0.13 -0.204,0 -0.388,-0.043 -0.55,-0.13 a 0.963,0.963 0 0 1 -0.38,-0.369 z m 3.046,-0.891 v 1.364 h -0.328 v -3.106 h 1.152 c 0.291,0 0.52,0.076 0.687,0.228 0.166,0.151 0.25,0.367 0.25,0.646 0,0.222 -0.059,0.405 -0.176,0.549 -0.117,0.144 -0.281,0.24 -0.491,0.288 l 0.734,1.396 H 98.909 L 98.207,28.902 H 97.46 Z m 0.796,-0.284 c 0.201,0 0.357,-0.05 0.468,-0.151 0.111,-0.101 0.167,-0.244 0.167,-0.43 0,-0.192 -0.055,-0.337 -0.164,-0.435 -0.109,-0.098 -0.267,-0.146 -0.471,-0.146 H 97.46 v 1.161 h 0.796 z m 1.935,-1.458 v 3.106 h -0.328 v -3.106 z m 1.084,1.377 h 1.333 v 0.297 h -1.333 v 1.135 h 1.558 v 0.297 h -1.886 v -3.106 h 1.886 v 0.297 h -1.558 z m 2.462,0.365 v 1.364 h -0.328 v -3.106 h 1.152 c 0.291,0 0.52,0.076 0.687,0.228 0.166,0.151 0.25,0.367 0.25,0.646 0,0.222 -0.059,0.405 -0.176,0.549 -0.117,0.144 -0.281,0.24 -0.491,0.288 l 0.734,1.396 h -0.379 l -0.702,-1.364 h -0.747 z m 0.797,-0.284 c 0.201,0 0.357,-0.05 0.468,-0.151 0.111,-0.101 0.167,-0.244 0.167,-0.43 0,-0.192 -0.055,-0.337 -0.164,-0.435 -0.109,-0.098 -0.267,-0.146 -0.471,-0.146 h -0.797 v 1.161 h 0.797 z m 1.746,1.229 v 0.756 l -0.298,0.279 v -1.035 z m 2.462,-2.39 v 2.809 h -0.324 v -2.809 h -0.887 v -0.297 h 2.098 v 0.297 z m 1.083,1.656 v -0.806 c 0,-0.411 0.098,-0.712 0.293,-0.903 0.195,-0.19 0.457,-0.286 0.787,-0.286 0.327,0 0.588,0.095 0.781,0.286 0.193,0.191 0.29,0.492 0.29,0.903 v 0.806 c 0,0.411 -0.097,0.712 -0.292,0.902 -0.195,0.191 -0.456,0.286 -0.783,0.286 -0.33,0 -0.592,-0.095 -0.785,-0.286 -0.195,-0.19 -0.291,-0.491 -0.291,-0.902 z m 1.823,-0.792 c 0,-0.604 -0.248,-0.905 -0.743,-0.905 -0.249,0 -0.437,0.071 -0.563,0.213 -0.126,0.142 -0.188,0.373 -0.188,0.691 v 0.81 c 0,0.303 0.063,0.523 0.191,0.662 0.127,0.138 0.313,0.207 0.56,0.207 0.495,0 0.743,-0.29 0.743,-0.869 z m 3.397,1.945 h -0.292 l -0.688,-2.696 -0.671,2.696 h -0.293 l -0.797,-3.106 h 0.32 l 0.63,2.575 0.607,-2.575 h 0.419 l 0.63,2.575 0.607,-2.575 h 0.307 z m 1.498,-1.729 h 1.333 v 0.297 h -1.333 v 1.135 h 1.558 v 0.297 h -1.886 v -3.106 h 1.886 v 0.297 h -1.558 z m 2.462,0.365 v 1.364 h -0.328 v -3.106 h 1.152 c 0.291,0 0.52,0.076 0.687,0.228 0.166,0.151 0.249,0.367 0.249,0.646 0,0.222 -0.058,0.405 -0.175,0.549 -0.117,0.144 -0.281,0.24 -0.491,0.288 l 0.734,1.396 h -0.379 l -0.702,-1.364 h -0.747 z m 0.797,-0.284 c 0.201,0 0.357,-0.05 0.468,-0.151 0.111,-0.101 0.167,-0.244 0.167,-0.43 0,-0.192 -0.055,-0.337 -0.164,-0.435 -0.109,-0.098 -0.267,-0.146 -0.471,-0.146 h -0.797 v 1.161 h 0.797 z m 1.746,1.229 v 0.756 l -0.298,0.279 v -1.035 z m 1.511,-0.734 v -0.806 c 0,-0.411 0.099,-0.712 0.295,-0.903 0.196,-0.19 0.46,-0.286 0.79,-0.286 0.213,0 0.399,0.039 0.559,0.117 a 0.879,0.879 0 0 1 0.369,0.331 c 0.087,0.143 0.13,0.307 0.13,0.493 v 0.018 h -0.328 v -0.018 a 0.597,0.597 0 0 0 -0.196,-0.471 c -0.13,-0.115 -0.307,-0.173 -0.528,-0.173 -0.249,0 -0.438,0.071 -0.567,0.213 -0.129,0.142 -0.193,0.373 -0.193,0.691 v 0.81 c 0,0.579 0.255,0.869 0.765,0.869 0.237,0 0.418,-0.064 0.543,-0.193 0.124,-0.129 0.187,-0.335 0.187,-0.617 V 28.95 h -0.743 v -0.284 h 1.071 v 0.464 c 0,0.408 -0.096,0.705 -0.287,0.891 -0.192,0.186 -0.452,0.279 -0.779,0.279 -0.33,0 -0.594,-0.095 -0.79,-0.286 -0.199,-0.19 -0.298,-0.491 -0.298,-0.902 z m 2.745,0 v -0.806 c 0,-0.411 0.098,-0.712 0.293,-0.903 0.195,-0.19 0.457,-0.286 0.787,-0.286 0.327,0 0.588,0.095 0.781,0.286 0.193,0.191 0.291,0.492 0.291,0.903 v 0.806 c 0,0.411 -0.098,0.712 -0.293,0.902 -0.195,0.191 -0.456,0.286 -0.783,0.286 -0.33,0 -0.592,-0.095 -0.785,-0.286 -0.194,-0.19 -0.291,-0.491 -0.291,-0.902 z m 1.823,-0.792 c 0,-0.604 -0.247,-0.905 -0.743,-0.905 -0.249,0 -0.437,0.071 -0.563,0.213 -0.126,0.142 -0.188,0.373 -0.188,0.691 v 0.81 c 0,0.303 0.063,0.523 0.191,0.662 0.127,0.138 0.313,0.207 0.56,0.207 0.496,0 0.743,-0.29 0.743,-0.869 z m 1.314,-1.161 v 2.809 h 1.549 v 0.297 h -1.877 v -3.106 z m 3.115,0 c 0.33,0 0.592,0.095 0.785,0.286 0.193,0.191 0.29,0.492 0.29,0.903 v 0.729 c 0,0.411 -0.097,0.712 -0.29,0.903 -0.193,0.19 -0.455,0.286 -0.785,0.286 h -1.063 V 27.16 h 1.063 z m 0.742,1.935 V 28.36 c 0,-0.315 -0.063,-0.544 -0.191,-0.688 -0.127,-0.144 -0.31,-0.216 -0.547,-0.216 h -0.733 v 2.512 h 0.733 c 0.492,0 0.738,-0.292 0.738,-0.874 z m 2.052,-1.935 c 0.33,0 0.592,0.095 0.785,0.286 0.193,0.191 0.29,0.492 0.29,0.903 v 0.729 c 0,0.411 -0.097,0.712 -0.29,0.903 -0.193,0.19 -0.455,0.286 -0.785,0.286 h -1.063 V 27.16 h 1.063 z m 0.742,1.935 V 28.36 c 0,-0.315 -0.063,-0.544 -0.191,-0.688 -0.127,-0.144 -0.31,-0.216 -0.547,-0.216 h -0.733 v 2.512 h 0.733 c 0.492,0 0.738,-0.292 0.738,-0.874 z m 1.355,-1.935 v 3.106 h -0.328 v -3.106 z m 0.692,1.953 v -0.806 c 0,-0.411 0.099,-0.712 0.295,-0.903 0.196,-0.19 0.46,-0.286 0.79,-0.286 0.213,0 0.399,0.039 0.559,0.117 a 0.879,0.879 0 0 1 0.369,0.331 c 0.087,0.143 0.13,0.307 0.13,0.493 v 0.018 h -0.328 v -0.018 a 0.597,0.597 0 0 0 -0.196,-0.471 c -0.13,-0.115 -0.307,-0.173 -0.528,-0.173 -0.249,0 -0.438,0.071 -0.567,0.213 -0.129,0.142 -0.193,0.373 -0.193,0.691 v 0.81 c 0,0.579 0.255,0.869 0.765,0.869 0.237,0 0.418,-0.064 0.543,-0.193 0.124,-0.129 0.187,-0.335 0.187,-0.617 V 28.95 h -0.743 v -0.284 h 1.071 v 0.464 c 0,0.408 -0.096,0.705 -0.287,0.891 -0.192,0.186 -0.452,0.279 -0.779,0.279 -0.33,0 -0.594,-0.095 -0.79,-0.286 -0.199,-0.19 -0.298,-0.491 -0.298,-0.902 z"
       id="path60"
       inkscape:connector-curvature="0" />
  </g>
  <g
     id="g66"
     transform="translate(8.175368e-4)">
    <path
       d="m 33.457,66.36 v 2.81 h 1.549 v 0.297 H 33.129 V 66.36 Z m 2.416,0 v 3.106 H 35.545 V 66.36 Z m 0.693,1.954 v -0.806 c 0,-0.411 0.099,-0.712 0.297,-0.903 0.198,-0.19 0.464,-0.285 0.797,-0.285 0.21,0 0.396,0.039 0.556,0.117 a 0.86,0.86 0 0 1 0.372,0.333 c 0.087,0.144 0.13,0.311 0.13,0.499 v 0.014 H 38.39 V 67.27 a 0.608,0.608 0 0 0 -0.196,-0.477 c -0.13,-0.117 -0.308,-0.176 -0.533,-0.176 -0.249,0 -0.438,0.07 -0.569,0.212 -0.131,0.141 -0.196,0.372 -0.196,0.693 v 0.81 c 0,0.579 0.257,0.869 0.771,0.869 0.225,0 0.401,-0.058 0.531,-0.174 a 0.603,0.603 0 0 0 0.193,-0.475 v -0.018 h 0.319 v 0.018 c 0,0.291 -0.095,0.522 -0.283,0.693 -0.189,0.171 -0.444,0.257 -0.766,0.257 -0.333,0 -0.599,-0.096 -0.797,-0.286 -0.198,-0.19 -0.298,-0.49 -0.298,-0.902 z m 3.137,-0.576 h 1.332 v 0.297 h -1.332 v 1.135 h 1.558 v 0.297 H 39.375 V 66.36 h 1.886 v 0.298 h -1.558 z m 4.397,1.729 h -0.329 l -1.607,-2.503 v 2.503 H 41.836 V 66.36 h 0.328 l 1.607,2.494 V 66.36 H 44.1 Z m 0.507,-0.878 h 0.324 c 0.042,0.411 0.288,0.616 0.738,0.616 0.234,0 0.412,-0.049 0.533,-0.148 0.122,-0.099 0.183,-0.243 0.183,-0.432 0,-0.171 -0.048,-0.3 -0.144,-0.388 -0.097,-0.087 -0.242,-0.146 -0.438,-0.18 L 45.452,67.998 C 45.2,67.956 45.007,67.87 44.871,67.739 c -0.135,-0.131 -0.202,-0.314 -0.202,-0.552 0,-0.272 0.092,-0.485 0.274,-0.639 0.184,-0.153 0.425,-0.229 0.725,-0.229 0.276,0 0.502,0.071 0.678,0.214 0.176,0.143 0.279,0.359 0.313,0.65 h -0.324 c -0.036,-0.388 -0.259,-0.581 -0.67,-0.581 -0.214,0 -0.379,0.051 -0.498,0.151 a 0.512,0.512 0 0 0 -0.178,0.411 c 0,0.153 0.046,0.272 0.138,0.358 0.091,0.085 0.23,0.145 0.416,0.178 l 0.36,0.063 c 0.261,0.046 0.461,0.136 0.599,0.271 0.138,0.135 0.207,0.325 0.207,0.571 0,0.282 -0.095,0.501 -0.283,0.655 -0.189,0.154 -0.449,0.231 -0.779,0.231 -0.312,0 -0.557,-0.076 -0.733,-0.229 -0.177,-0.151 -0.28,-0.376 -0.307,-0.673 z m 2.997,-0.851 h 1.333 v 0.297 h -1.333 v 1.135 h 1.558 v 0.297 H 47.276 V 66.36 h 1.886 v 0.298 h -1.558 z m 3.195,-1.378 c 0.33,0 0.592,0.096 0.786,0.286 0.193,0.19 0.29,0.491 0.29,0.902 v 0.729 c 0,0.411 -0.097,0.712 -0.29,0.902 -0.194,0.19 -0.456,0.286 -0.786,0.286 H 49.737 V 66.36 Z m 0.744,1.936 v -0.733 c 0,-0.315 -0.063,-0.545 -0.191,-0.688 -0.128,-0.145 -0.31,-0.216 -0.547,-0.216 h -0.733 v 2.512 h 0.733 c 0.491,-0.001 0.738,-0.293 0.738,-0.875 z m 2.852,-1.638 v 2.809 H 54.071 V 66.658 H 53.184 V 66.36 h 2.098 v 0.298 z m 1.084,1.656 v -0.806 c 0,-0.411 0.098,-0.712 0.293,-0.903 0.195,-0.19 0.457,-0.285 0.787,-0.285 0.327,0 0.588,0.095 0.781,0.285 0.193,0.191 0.291,0.492 0.291,0.903 v 0.806 c 0,0.411 -0.098,0.712 -0.293,0.902 -0.195,0.19 -0.456,0.286 -0.783,0.286 -0.33,0 -0.592,-0.096 -0.785,-0.286 -0.194,-0.19 -0.291,-0.49 -0.291,-0.902 z m 1.823,-0.792 c 0,-0.604 -0.247,-0.905 -0.743,-0.905 -0.249,0 -0.437,0.071 -0.563,0.214 -0.126,0.143 -0.188,0.373 -0.188,0.691 v 0.81 c 0,0.304 0.063,0.523 0.191,0.662 0.127,0.138 0.313,0.207 0.56,0.207 0.496,0 0.743,-0.29 0.743,-0.869 z m 2.849,-0.864 v 2.809 H 59.827 V 66.658 H 58.94 V 66.36 h 2.098 v 0.298 z m 1.215,2.062 -0.262,0.747 h -0.347 l 1.13,-3.106 h 0.274 l 1.13,3.106 H 62.944 L 62.683,68.72 Z m 0.656,-1.901 -0.563,1.621 h 1.13 z m 3.925,2.648 h -0.328 l -1.607,-2.503 v 2.503 H 63.684 V 66.36 h 0.328 l 1.607,2.494 V 66.36 h 0.328 z m 0.656,-1.153 v -0.806 c 0,-0.411 0.098,-0.712 0.293,-0.903 0.195,-0.19 0.457,-0.285 0.787,-0.285 0.327,0 0.588,0.095 0.781,0.285 0.193,0.191 0.29,0.492 0.29,0.903 v 0.806 c 0,0.411 -0.097,0.712 -0.292,0.902 -0.195,0.19 -0.456,0.286 -0.783,0.286 -0.33,0 -0.592,-0.096 -0.785,-0.286 -0.194,-0.19 -0.291,-0.49 -0.291,-0.902 z m 1.823,-0.792 c 0,-0.604 -0.248,-0.905 -0.743,-0.905 -0.249,0 -0.437,0.071 -0.563,0.214 -0.126,0.143 -0.188,0.373 -0.188,0.691 v 0.81 c 0,0.304 0.063,0.523 0.191,0.662 0.127,0.138 0.313,0.207 0.56,0.207 0.495,0 0.743,-0.29 0.743,-0.869 z m 4.631,1.945 h -0.328 v -2.431 l -0.878,1.81 h -0.252 l -0.883,-1.81 v 2.431 H 70.388 V 66.36 h 0.328 l 1.009,2.094 1.004,-2.094 h 0.328 z M 74.14,66.36 v 3.106 H 73.812 V 66.36 Z m 0.694,1.954 v -0.806 c 0,-0.411 0.1,-0.712 0.297,-0.903 0.198,-0.19 0.464,-0.285 0.797,-0.285 0.21,0 0.396,0.039 0.557,0.117 0.16,0.078 0.284,0.188 0.371,0.333 0.087,0.144 0.13,0.311 0.13,0.499 v 0.014 H 76.658 V 67.27 a 0.61,0.61 0 0 0 -0.195,-0.477 c -0.131,-0.117 -0.309,-0.176 -0.534,-0.176 -0.249,0 -0.438,0.07 -0.569,0.212 -0.13,0.141 -0.195,0.372 -0.195,0.693 v 0.81 c 0,0.579 0.256,0.869 0.77,0.869 0.225,0 0.402,-0.058 0.531,-0.174 a 0.603,0.603 0 0 0 0.193,-0.475 v -0.018 h 0.319 v 0.018 c 0,0.291 -0.095,0.522 -0.283,0.693 -0.189,0.171 -0.444,0.257 -0.766,0.257 -0.333,0 -0.599,-0.096 -0.797,-0.286 -0.199,-0.19 -0.298,-0.49 -0.298,-0.902 z m 3.136,-0.211 v 1.364 H 77.642 V 66.36 h 1.152 c 0.291,0 0.52,0.076 0.687,0.228 0.166,0.151 0.25,0.367 0.25,0.646 a 0.845,0.845 0 0 1 -0.176,0.549 0.855,0.855 0 0 1 -0.491,0.288 l 0.734,1.396 h -0.379 l -0.702,-1.364 z m 0.797,-0.284 c 0.201,0 0.357,-0.051 0.468,-0.151 0.111,-0.101 0.167,-0.243 0.167,-0.43 0,-0.192 -0.055,-0.337 -0.164,-0.435 -0.109,-0.098 -0.267,-0.146 -0.471,-0.146 H 77.97 v 1.161 h 0.797 z m 1.507,0.495 v -0.806 c 0,-0.411 0.098,-0.712 0.293,-0.903 0.195,-0.19 0.457,-0.285 0.787,-0.285 0.327,0 0.588,0.095 0.781,0.285 0.193,0.191 0.291,0.492 0.291,0.903 v 0.806 c 0,0.411 -0.098,0.712 -0.293,0.902 -0.195,0.19 -0.456,0.286 -0.783,0.286 -0.33,0 -0.592,-0.096 -0.785,-0.286 -0.194,-0.19 -0.291,-0.49 -0.291,-0.902 z m 1.823,-0.792 c 0,-0.604 -0.247,-0.905 -0.743,-0.905 -0.249,0 -0.437,0.071 -0.563,0.214 -0.126,0.143 -0.188,0.373 -0.188,0.691 v 0.81 c 0,0.304 0.063,0.523 0.191,0.662 0.127,0.138 0.313,0.207 0.56,0.207 0.496,0 0.743,-0.29 0.743,-0.869 z m 0.922,0.792 v -0.806 c 0,-0.411 0.1,-0.712 0.297,-0.903 0.198,-0.19 0.464,-0.285 0.797,-0.285 0.21,0 0.396,0.039 0.557,0.117 0.16,0.078 0.284,0.188 0.371,0.333 0.087,0.144 0.13,0.311 0.13,0.499 v 0.014 H 84.843 V 67.27 a 0.61,0.61 0 0 0 -0.195,-0.477 c -0.131,-0.117 -0.309,-0.176 -0.534,-0.176 -0.249,0 -0.438,0.07 -0.569,0.212 -0.13,0.141 -0.195,0.372 -0.195,0.693 v 0.81 c 0,0.579 0.256,0.869 0.77,0.869 0.225,0 0.402,-0.058 0.531,-0.174 a 0.603,0.603 0 0 0 0.193,-0.475 v -0.018 h 0.319 v 0.018 c 0,0.291 -0.095,0.522 -0.283,0.693 -0.189,0.171 -0.444,0.257 -0.766,0.257 -0.333,0 -0.599,-0.096 -0.797,-0.286 -0.198,-0.19 -0.298,-0.49 -0.298,-0.902 z m 2.744,0 v -0.806 c 0,-0.411 0.098,-0.712 0.293,-0.903 0.195,-0.19 0.457,-0.285 0.787,-0.285 0.327,0 0.588,0.095 0.781,0.285 0.193,0.191 0.29,0.492 0.29,0.903 v 0.806 c 0,0.411 -0.097,0.712 -0.292,0.902 -0.195,0.19 -0.456,0.286 -0.783,0.286 -0.33,0 -0.592,-0.096 -0.785,-0.286 -0.194,-0.19 -0.291,-0.49 -0.291,-0.902 z m 1.823,-0.792 c 0,-0.604 -0.248,-0.905 -0.743,-0.905 -0.249,0 -0.437,0.071 -0.563,0.214 -0.126,0.143 -0.188,0.373 -0.188,0.691 v 0.81 c 0,0.304 0.063,0.523 0.191,0.662 0.127,0.138 0.313,0.207 0.56,0.207 0.495,0 0.743,-0.29 0.743,-0.869 z m 3.655,1.945 h -0.328 v -2.431 l -0.878,1.81 H 89.783 L 88.9,67.036 v 2.431 H 88.572 V 66.36 H 88.9 l 1.009,2.094 1.004,-2.094 h 0.328 z m 2.812,-2.179 c 0,0.279 -0.088,0.498 -0.264,0.657 -0.175,0.159 -0.413,0.238 -0.713,0.238 h -0.788 v 1.283 H 91.96 V 66.36 h 1.116 c 0.303,0 0.542,0.08 0.716,0.241 0.174,0.161 0.261,0.39 0.261,0.687 z m -0.328,0 c 0,-0.213 -0.059,-0.371 -0.176,-0.475 -0.117,-0.104 -0.284,-0.155 -0.5,-0.155 h -0.761 v 1.229 h 0.761 c 0.216,0 0.383,-0.05 0.5,-0.148 0.118,-0.1 0.176,-0.25 0.176,-0.451 z m 0.972,1.706 a 1.04,1.04 0 0 1 -0.14,-0.54 V 66.36 h 0.333 v 2.066 c 0,0.237 0.066,0.426 0.2,0.564 a 0.71,0.71 0 0 0 0.538,0.21 c 0.222,0 0.4,-0.07 0.535,-0.21 0.136,-0.139 0.203,-0.327 0.203,-0.564 V 66.36 h 0.328 v 2.094 c 0,0.204 -0.046,0.385 -0.137,0.542 -0.092,0.157 -0.219,0.28 -0.381,0.367 -0.162,0.087 -0.345,0.13 -0.549,0.13 -0.204,0 -0.388,-0.043 -0.55,-0.13 -0.162,-0.087 -0.287,-0.21 -0.38,-0.369 z m 3.604,-2.336 v 2.809 H 97.977 V 66.658 H 97.09 V 66.36 h 2.098 v 0.298 z m 1.611,1.08 h 1.333 v 0.297 h -1.333 v 1.135 h 1.558 v 0.297 H 99.584 V 66.36 h 1.886 v 0.298 h -1.558 z m 2.461,0.365 v 1.364 h -0.328 V 66.36 h 1.152 c 0.291,0 0.52,0.076 0.687,0.228 0.166,0.151 0.25,0.367 0.25,0.646 a 0.845,0.845 0 0 1 -0.176,0.549 0.855,0.855 0 0 1 -0.491,0.288 l 0.734,1.396 h -0.379 l -0.702,-1.364 z m 0.796,-0.284 c 0.201,0 0.357,-0.051 0.468,-0.151 0.111,-0.101 0.167,-0.243 0.167,-0.43 0,-0.192 -0.055,-0.337 -0.164,-0.435 -0.109,-0.098 -0.267,-0.146 -0.471,-0.146 h -0.797 v 1.161 h 0.797 z m 4.641,-0.531 c 0,0.279 -0.088,0.498 -0.264,0.657 -0.175,0.159 -0.413,0.238 -0.713,0.238 h -0.788 v 1.283 h -0.328 V 66.36 h 1.116 c 0.303,0 0.542,0.08 0.716,0.241 0.174,0.161 0.261,0.39 0.261,0.687 z m -0.328,0 c 0,-0.213 -0.059,-0.371 -0.176,-0.475 -0.117,-0.104 -0.284,-0.155 -0.5,-0.155 h -0.761 v 1.229 h 0.761 c 0.216,0 0.383,-0.05 0.5,-0.148 0.117,-0.1 0.176,-0.25 0.176,-0.451 z m 1.159,0.815 v 1.364 h -0.328 V 66.36 h 1.152 c 0.291,0 0.52,0.076 0.687,0.228 0.166,0.151 0.249,0.367 0.249,0.646 a 0.844,0.844 0 0 1 -0.175,0.549 0.855,0.855 0 0 1 -0.491,0.288 l 0.734,1.396 h -0.379 l -0.702,-1.364 z m 0.797,-0.284 c 0.201,0 0.357,-0.051 0.468,-0.151 0.111,-0.101 0.167,-0.243 0.167,-0.43 0,-0.192 -0.055,-0.337 -0.164,-0.435 -0.109,-0.098 -0.267,-0.146 -0.471,-0.146 h -0.797 v 1.161 h 0.797 z m 1.508,0.495 v -0.806 c 0,-0.411 0.098,-0.712 0.293,-0.903 0.195,-0.19 0.457,-0.285 0.787,-0.285 0.327,0 0.588,0.095 0.781,0.285 0.193,0.191 0.291,0.492 0.291,0.903 v 0.806 c 0,0.411 -0.098,0.712 -0.293,0.902 -0.195,0.19 -0.456,0.286 -0.783,0.286 -0.33,0 -0.592,-0.096 -0.785,-0.286 -0.194,-0.19 -0.291,-0.49 -0.291,-0.902 z m 1.823,-0.792 c 0,-0.604 -0.247,-0.905 -0.743,-0.905 -0.249,0 -0.437,0.071 -0.563,0.214 -0.126,0.143 -0.188,0.373 -0.188,0.691 v 0.81 c 0,0.304 0.063,0.523 0.191,0.662 0.127,0.138 0.313,0.207 0.56,0.207 0.496,0 0.743,-0.29 0.743,-0.869 z m 2.047,-1.162 c 0.33,0 0.592,0.096 0.785,0.286 0.193,0.19 0.29,0.491 0.29,0.902 v 0.729 c 0,0.411 -0.097,0.712 -0.29,0.902 -0.193,0.19 -0.455,0.286 -0.785,0.286 h -1.063 V 66.36 Z m 0.742,1.936 v -0.733 c 0,-0.315 -0.063,-0.545 -0.191,-0.688 -0.127,-0.145 -0.31,-0.216 -0.547,-0.216 h -0.733 v 2.512 h 0.733 c 0.492,-0.001 0.738,-0.293 0.738,-0.875 z m 1.13,0.698 a 1.04,1.04 0 0 1 -0.14,-0.54 V 66.36 h 0.333 v 2.066 c 0,0.237 0.066,0.426 0.2,0.564 a 0.71,0.71 0 0 0 0.538,0.21 c 0.222,0 0.4,-0.07 0.535,-0.21 0.136,-0.139 0.203,-0.327 0.203,-0.564 V 66.36 h 0.328 v 2.094 c 0,0.204 -0.046,0.385 -0.137,0.542 -0.092,0.157 -0.219,0.28 -0.381,0.367 -0.162,0.087 -0.345,0.13 -0.549,0.13 -0.204,0 -0.388,-0.043 -0.55,-0.13 a 0.976,0.976 0 0 1 -0.38,-0.369 z m 2.654,-0.68 v -0.806 c 0,-0.411 0.1,-0.712 0.297,-0.903 0.198,-0.19 0.464,-0.285 0.797,-0.285 0.21,0 0.396,0.039 0.557,0.117 0.16,0.078 0.284,0.188 0.371,0.333 a 0.948,0.948 0 0 1 0.131,0.499 v 0.014 h -0.329 V 67.27 a 0.61,0.61 0 0 0 -0.195,-0.477 c -0.131,-0.117 -0.309,-0.176 -0.534,-0.176 -0.249,0 -0.438,0.07 -0.569,0.212 -0.13,0.141 -0.195,0.372 -0.195,0.693 v 0.81 c 0,0.579 0.256,0.869 0.77,0.869 0.225,0 0.402,-0.058 0.531,-0.174 a 0.603,0.603 0 0 0 0.193,-0.475 v -0.018 h 0.319 v 0.018 c 0,0.291 -0.095,0.522 -0.283,0.693 -0.189,0.171 -0.444,0.257 -0.766,0.257 -0.333,0 -0.599,-0.096 -0.797,-0.286 -0.198,-0.19 -0.298,-0.49 -0.298,-0.902 z m 3.696,-1.656 v 2.809 h -0.324 v -2.809 h -0.887 V 66.36 h 2.098 v 0.298 z m 1.07,1.931 h 0.324 c 0.042,0.411 0.288,0.616 0.738,0.616 0.234,0 0.412,-0.049 0.533,-0.148 0.122,-0.099 0.183,-0.243 0.183,-0.432 0,-0.171 -0.048,-0.3 -0.145,-0.388 -0.096,-0.087 -0.241,-0.146 -0.437,-0.18 l -0.351,-0.059 c -0.252,-0.042 -0.446,-0.128 -0.581,-0.259 -0.135,-0.131 -0.202,-0.314 -0.202,-0.552 0,-0.272 0.091,-0.485 0.274,-0.639 0.183,-0.153 0.425,-0.229 0.725,-0.229 0.276,0 0.502,0.071 0.678,0.214 0.175,0.143 0.279,0.359 0.313,0.65 h -0.324 c -0.036,-0.388 -0.26,-0.581 -0.671,-0.581 -0.213,0 -0.379,0.051 -0.497,0.151 -0.118,0.1 -0.178,0.237 -0.178,0.411 0,0.153 0.046,0.272 0.137,0.358 0.092,0.085 0.23,0.145 0.417,0.178 l 0.36,0.063 c 0.261,0.046 0.46,0.136 0.599,0.271 0.138,0.135 0.207,0.325 0.207,0.571 0,0.282 -0.095,0.501 -0.284,0.655 -0.188,0.154 -0.448,0.231 -0.778,0.231 -0.313,0 -0.557,-0.076 -0.733,-0.229 -0.178,-0.151 -0.28,-0.376 -0.307,-0.673 z m 3.582,-0.275 v -0.806 c 0,-0.411 0.1,-0.712 0.297,-0.903 0.198,-0.19 0.464,-0.285 0.797,-0.285 0.21,0 0.396,0.039 0.557,0.117 0.16,0.078 0.284,0.188 0.371,0.333 a 0.948,0.948 0 0 1 0.131,0.499 v 0.014 h -0.329 V 67.27 a 0.61,0.61 0 0 0 -0.195,-0.477 c -0.131,-0.117 -0.309,-0.176 -0.534,-0.176 -0.249,0 -0.438,0.07 -0.569,0.212 -0.13,0.141 -0.195,0.372 -0.195,0.693 v 0.81 c 0,0.579 0.256,0.869 0.77,0.869 0.225,0 0.402,-0.058 0.531,-0.174 a 0.603,0.603 0 0 0 0.193,-0.475 v -0.018 h 0.319 v 0.018 c 0,0.291 -0.095,0.522 -0.283,0.693 -0.189,0.171 -0.444,0.257 -0.766,0.257 -0.333,0 -0.599,-0.096 -0.797,-0.286 -0.198,-0.19 -0.298,-0.49 -0.298,-0.902 z m 2.744,0 v -0.806 c 0,-0.411 0.098,-0.712 0.293,-0.903 0.195,-0.19 0.457,-0.285 0.787,-0.285 0.327,0 0.588,0.095 0.781,0.285 0.193,0.191 0.291,0.492 0.291,0.903 v 0.806 c 0,0.411 -0.098,0.712 -0.293,0.902 -0.195,0.19 -0.456,0.286 -0.783,0.286 -0.33,0 -0.592,-0.096 -0.785,-0.286 -0.194,-0.19 -0.291,-0.49 -0.291,-0.902 z m 1.823,-0.792 c 0,-0.604 -0.247,-0.905 -0.743,-0.905 -0.249,0 -0.437,0.071 -0.563,0.214 -0.126,0.143 -0.188,0.373 -0.188,0.691 v 0.81 c 0,0.304 0.063,0.523 0.191,0.662 0.127,0.138 0.313,0.207 0.56,0.207 0.496,0 0.743,-0.29 0.743,-0.869 z m 1.314,0.581 v 1.364 h -0.328 V 66.36 h 1.152 c 0.291,0 0.52,0.076 0.687,0.228 0.166,0.151 0.249,0.367 0.249,0.646 a 0.844,0.844 0 0 1 -0.175,0.549 0.855,0.855 0 0 1 -0.491,0.288 l 0.734,1.396 h -0.379 l -0.702,-1.364 z m 0.797,-0.284 c 0.201,0 0.357,-0.051 0.468,-0.151 0.111,-0.101 0.167,-0.243 0.167,-0.43 0,-0.192 -0.055,-0.337 -0.164,-0.435 -0.109,-0.098 -0.267,-0.146 -0.471,-0.146 h -0.797 v 1.161 h 0.797 z m 3.663,-0.531 c 0,0.279 -0.088,0.498 -0.264,0.657 -0.175,0.159 -0.413,0.238 -0.713,0.238 h -0.788 v 1.283 h -0.328 V 66.36 h 1.116 c 0.303,0 0.542,0.08 0.716,0.241 0.174,0.161 0.261,0.39 0.261,0.687 z m -0.328,0 c 0,-0.213 -0.059,-0.371 -0.176,-0.475 -0.117,-0.104 -0.284,-0.155 -0.5,-0.155 h -0.761 v 1.229 h 0.761 c 0.216,0 0.383,-0.05 0.5,-0.148 0.117,-0.1 0.176,-0.25 0.176,-0.451 z"
       id="path64"
       inkscape:connector-curvature="0" />
  </g>
  <g
     id="g70"
     transform="translate(8.175368e-4)">
    <path
       d="m 23.415,43.817 h 0.324 c 0.042,0.411 0.288,0.617 0.738,0.617 0.234,0 0.412,-0.049 0.533,-0.148 0.122,-0.099 0.183,-0.243 0.183,-0.432 0,-0.171 -0.048,-0.3 -0.145,-0.387 -0.096,-0.087 -0.241,-0.147 -0.437,-0.18 L 24.26,43.228 c -0.252,-0.042 -0.446,-0.128 -0.581,-0.259 -0.135,-0.131 -0.202,-0.314 -0.202,-0.552 0,-0.273 0.091,-0.486 0.274,-0.639 0.183,-0.153 0.425,-0.229 0.725,-0.229 0.276,0 0.502,0.071 0.678,0.214 0.175,0.143 0.279,0.359 0.313,0.65 h -0.324 c -0.036,-0.387 -0.26,-0.581 -0.671,-0.581 -0.213,0 -0.379,0.05 -0.497,0.151 -0.118,0.101 -0.178,0.238 -0.178,0.412 0,0.153 0.046,0.272 0.138,0.358 0.091,0.085 0.229,0.145 0.416,0.178 l 0.36,0.063 c 0.261,0.045 0.46,0.135 0.599,0.27 0.138,0.135 0.207,0.326 0.207,0.572 0,0.282 -0.095,0.5 -0.284,0.655 -0.188,0.154 -0.448,0.231 -0.778,0.231 -0.313,0 -0.557,-0.076 -0.733,-0.229 -0.179,-0.153 -0.28,-0.378 -0.307,-0.676 z m 3.033,-2.228 v 3.106 H 26.12 v -3.106 z m 1.818,0 c 0.33,0 0.592,0.095 0.785,0.286 0.193,0.191 0.29,0.492 0.29,0.903 v 0.729 c 0,0.411 -0.097,0.712 -0.29,0.903 -0.193,0.19 -0.455,0.286 -0.785,0.286 H 27.203 V 41.59 h 1.063 z m 0.742,1.936 v -0.734 c 0,-0.315 -0.063,-0.544 -0.191,-0.688 -0.127,-0.144 -0.31,-0.216 -0.547,-0.216 h -0.733 v 2.512 h 0.733 c 0.492,-10e-4 0.738,-0.292 0.738,-0.874 z m 1.319,-0.558 h 1.333 v 0.297 h -1.333 v 1.135 h 1.558 v 0.297 H 29.999 V 41.59 h 1.886 v 0.297 H 30.327 Z M 33.3,42.368 v -0.369 l 0.531,-0.41 h 0.329 v 3.106 h -0.324 v -2.728 z"
       id="path68"
       inkscape:connector-curvature="0" />
  </g>
  <g
     id="g74"
     transform="translate(8.175368e-4)">
    <path
       d="m 135.415,43.817 h 0.324 c 0.042,0.411 0.288,0.617 0.738,0.617 0.234,0 0.412,-0.049 0.533,-0.148 0.122,-0.099 0.183,-0.243 0.183,-0.432 0,-0.171 -0.048,-0.3 -0.145,-0.387 -0.096,-0.087 -0.241,-0.147 -0.437,-0.18 l -0.351,-0.059 c -0.252,-0.042 -0.446,-0.128 -0.581,-0.259 -0.135,-0.131 -0.202,-0.314 -0.202,-0.552 0,-0.273 0.091,-0.486 0.274,-0.639 0.183,-0.153 0.425,-0.229 0.725,-0.229 0.276,0 0.502,0.071 0.678,0.214 0.175,0.143 0.279,0.359 0.313,0.65 h -0.324 c -0.036,-0.387 -0.26,-0.581 -0.671,-0.581 -0.213,0 -0.379,0.05 -0.497,0.151 -0.118,0.101 -0.178,0.238 -0.178,0.412 0,0.153 0.046,0.272 0.138,0.358 0.091,0.085 0.229,0.145 0.416,0.178 l 0.36,0.063 c 0.261,0.045 0.46,0.135 0.599,0.27 0.138,0.135 0.207,0.326 0.207,0.572 0,0.282 -0.095,0.5 -0.284,0.655 -0.188,0.154 -0.448,0.231 -0.778,0.231 -0.313,0 -0.557,-0.076 -0.733,-0.229 -0.179,-0.153 -0.28,-0.378 -0.307,-0.676 z m 3.033,-2.228 v 3.106 h -0.328 v -3.106 z m 1.818,0 c 0.33,0 0.592,0.095 0.785,0.286 0.193,0.191 0.29,0.492 0.29,0.903 v 0.729 c 0,0.411 -0.097,0.712 -0.29,0.903 -0.193,0.19 -0.455,0.286 -0.785,0.286 h -1.063 V 41.59 h 1.063 z m 0.742,1.936 v -0.734 c 0,-0.315 -0.063,-0.544 -0.191,-0.688 -0.127,-0.144 -0.31,-0.216 -0.547,-0.216 h -0.733 v 2.512 h 0.733 c 0.492,-10e-4 0.738,-0.292 0.738,-0.874 z m 1.319,-0.558 h 1.333 v 0.297 h -1.333 v 1.135 h 1.558 v 0.297 h -1.886 V 41.59 h 1.886 v 0.297 h -1.558 z m 2.973,-0.599 v -0.369 l 0.531,-0.41 h 0.329 v 3.106 h -0.324 v -2.728 z"
       id="path72"
       inkscape:connector-curvature="0" />
  </g>
</svg>
