<?xml version="1.0" encoding="UTF-8" standalone="no"?>
<svg
   xmlns:dc="http://purl.org/dc/elements/1.1/"
   xmlns:cc="http://creativecommons.org/ns#"
   xmlns:rdf="http://www.w3.org/1999/02/22-rdf-syntax-ns#"
   xmlns:svg="http://www.w3.org/2000/svg"
   xmlns="http://www.w3.org/2000/svg"
   xmlns:sodipodi="http://sodipodi.sourceforge.net/DTD/sodipodi-0.dtd"
   xmlns:inkscape="http://www.inkscape.org/namespaces/inkscape"
   viewBox="0 0 400.00001 492.50449"
   version="1.1"
   id="svg54"
   sodipodi:docname="console.svg"
   width="400"
   height="492.50449"
   inkscape:version="0.92.4 5da689c313, 2019-01-14">
  <metadata
     id="metadata60">
    <rdf:RDF>
      <cc:Work
         rdf:about="">
        <dc:format>image/svg+xml</dc:format>
        <dc:type
           rdf:resource="http://purl.org/dc/dcmitype/StillImage" />
      </cc:Work>
    </rdf:RDF>
  </metadata>
  <defs
     id="defs58" />
  <sodipodi:namedview
     pagecolor="#ffffff"
     bordercolor="#666666"
     borderopacity="1"
     objecttolerance="10"
     gridtolerance="10"
     guidetolerance="10"
     inkscape:pageopacity="0"
     inkscape:pageshadow="2"
     inkscape:window-width="471"
     inkscape:window-height="442"
     id="namedview56"
     showgrid="false"
     inkscape:zoom="0.47918345"
     inkscape:cx="200"
     inkscape:cy="246.25226"
     inkscape:window-x="0"
     inkscape:window-y="0"
     inkscape:window-maximized="0"
     inkscape:current-layer="svg54">
    <inkscape:grid
       type="xygrid"
       id="grid62"
       originx="0"
       originy="1.3916016e-05" />
  </sodipodi:namedview>
  <path
     d="m 286.46812,492.5045 h -29.98201 c -2.23866,0 -3.9976,-1.8389 -3.9976,-3.9976 v -31.58105 c 0,-2.23866 1.83889,-3.9976 3.9976,-3.9976 h 29.98201 c 2.23866,0 3.9976,1.83889 3.9976,3.9976 v 31.58105 c 0,2.23866 -1.75894,3.9976 -3.9976,3.9976 z"
     id="path2"
     inkscape:connector-curvature="0"
     style="fill:#fbb040" />
  <path
     d="m 48.930642,489.30642 c -8.714772,0 -15.75055,-6.95583 -15.990406,-15.59065 L 28.942634,426.46412 V 15.99041 C 28.942634,7.19569 36.138317,0 44.93304,0 h 312.61243 c 8.79473,0 15.99041,7.19569 15.99041,15.99041 v 411.03338 l -3.9976,46.69198 c -0.23986,8.63482 -7.27564,15.59065 -15.99041,15.59065 z"
     id="path4"
     inkscape:connector-curvature="0"
     style="fill:#aa1c41" />
  <path
     d="M 353.54787,475.71457 H 48.930642 c -4.397362,0 -7.995203,-3.59784 -7.995203,-7.9952 l -3.997602,-47.1717 V 10.39377 c 0,-4.39737 3.597842,-7.99521 7.995203,-7.99521 h 312.61243 c 4.39736,0 7.99521,3.59784 7.99521,7.99521 v 410.71357 l -3.99761,46.61203 c 0,4.39736 -3.59784,7.9952 -7.9952,7.9952 z"
     id="path6"
     inkscape:connector-curvature="0"
     style="fill:#c0a987" />
  <path
     d="M 36.937837,419.42835 H 365.54068 v 2.39856 H 36.937837 Z M 246.81191,416.15031 H 155.6666 c -2.87827,0 -5.19688,-2.31861 -5.19688,-5.19688 V 257.44554 c 0,-2.87828 2.31861,-5.19689 5.19688,-5.19689 h 91.14531 c 2.87828,0 5.19688,2.31861 5.19688,5.19689 v 153.50789 c 0,2.87827 -2.3186,5.19688 -5.19688,5.19688 z M 155.6666,254.64721 c -1.51909,0 -2.79832,1.27924 -2.79832,2.79833 v 153.50789 c 0,1.51909 1.27923,2.79832 2.79832,2.79832 h 91.14531 c 1.51909,0 2.79832,-1.27923 2.79832,-2.79832 V 257.44554 c 0,-1.51909 -1.27923,-2.79833 -2.79832,-2.79833 z"
     id="path8"
     inkscape:connector-curvature="0"
     style="fill:#ffffff" />
  <path
     d="m 204.51729,253.44793 h 2.39856 v 94.3434 h -2.39856 z m -7.9952,0 h 2.39856 v 94.3434 h -2.39856 z M 134.95902,73.39597 c -0.63961,0 -1.19928,-0.55967 -1.19928,-1.19929 V 3.19808 c 0,-0.63961 0.55967,-1.19928 1.19928,-1.19928 0.63962,0 1.19929,0.55967 1.19929,1.19928 v 68.9986 c 0,0.71957 -0.47972,1.19929 -1.19929,1.19929 z m 11.35319,0 c -0.63961,0 -1.19928,-0.55967 -1.19928,-1.19929 V 3.19808 c 0,-0.63961 0.55967,-1.19928 1.19928,-1.19928 0.63962,0 1.19928,0.55967 1.19928,1.19928 v 68.9986 c 0,0.71957 -0.47971,1.19929 -1.19928,1.19929 z m 11.35319,0 c -0.63962,0 -1.19928,-0.55967 -1.19928,-1.19929 V 3.19808 c 0,-0.63961 0.55966,-1.19928 1.19928,-1.19928 0.63962,0 1.19928,0.55967 1.19928,1.19928 v 68.9986 c 0,0.71957 -0.47971,1.19929 -1.19928,1.19929 z m 11.35319,0 c -0.63962,0 -1.19928,-0.55967 -1.19928,-1.19929 V 3.19808 c 0,-0.63961 0.55966,-1.19928 1.19928,-1.19928 0.63962,0 1.19928,0.55967 1.19928,1.19928 v 68.9986 c 0,0.71957 -0.55966,1.19929 -1.19928,1.19929 z m 11.35319,0 c -0.63962,0 -1.19928,-0.55967 -1.19928,-1.19929 V 3.19808 c 0,-0.63961 0.55966,-1.19928 1.19928,-1.19928 0.63961,0 1.19928,0.55967 1.19928,1.19928 v 68.9986 c 0,0.71957 -0.55967,1.19929 -1.19928,1.19929 z m 11.35319,0 c -0.63962,0 -1.19929,-0.55967 -1.19929,-1.19929 V 3.19808 c 0,-0.63961 0.55967,-1.19928 1.19929,-1.19928 0.63961,0 1.19928,0.55967 1.19928,1.19928 v 68.9986 c 0,0.71957 -0.55967,1.19929 -1.19928,1.19929 z m 11.35318,0 c -0.63961,0 -1.19928,-0.55967 -1.19928,-1.19929 V 3.19808 c 0,-0.63961 0.55967,-1.19928 1.19928,-1.19928 0.63962,0 1.19928,0.55967 1.19928,1.19928 v 68.9986 c 0,0.71957 -0.55966,1.19929 -1.19928,1.19929 z m 11.35319,0 c -0.63962,0 -1.19928,-0.55967 -1.19928,-1.19929 V 3.19808 c 0,-0.63961 0.55966,-1.19928 1.19928,-1.19928 0.63962,0 1.19928,0.55967 1.19928,1.19928 v 68.9986 c 0,0.71957 -0.55966,1.19929 -1.19928,1.19929 z m 11.35319,0 c -0.63962,0 -1.19928,-0.55967 -1.19928,-1.19929 V 3.19808 c 0,-0.63961 0.55966,-1.19928 1.19928,-1.19928 0.63962,0 1.19928,0.55967 1.19928,1.19928 v 68.9986 c 0,0.71957 -0.55966,1.19929 -1.19928,1.19929 z m 11.35319,0 c -0.63962,0 -1.19928,-0.55967 -1.19928,-1.19929 V 3.19808 c 0,-0.63961 0.55966,-1.19928 1.19928,-1.19928 0.63961,0 1.19928,0.55967 1.19928,1.19928 v 68.9986 c 0,0.71957 -0.55967,1.19929 -1.19928,1.19929 z m 11.35319,0 c -0.63962,0 -1.19928,-0.55967 -1.19928,-1.19929 V 3.19808 c 0,-0.63961 0.55966,-1.19928 1.19928,-1.19928 0.63961,0 1.19928,0.55967 1.19928,1.19928 v 68.9986 c 0,0.71957 -0.55967,1.19929 -1.19928,1.19929 z m 11.35318,0 c -0.63961,0 -1.19928,-0.55967 -1.19928,-1.19929 V 3.19808 c 0,-0.63961 0.55967,-1.19928 1.19928,-1.19928 0.63962,0 1.19928,0.55967 1.19928,1.19928 v 68.9986 c 0,0.71957 -0.55966,1.19929 -1.19928,1.19929 z m 11.35319,0 c -0.63961,0 -1.19928,-0.55967 -1.19928,-1.19929 V 3.19808 c 0,-0.63961 0.55967,-1.19928 1.19928,-1.19928 0.63962,0 1.19928,0.55967 1.19928,1.19928 v 68.9986 c 0,0.71957 -0.55966,1.19929 -1.19928,1.19929 z M 33.419948,65.96043 h 78.352992 v 2.39856 H 33.419948 Z m 263.042172,0 h 78.35299 v 2.39856 h -78.35299 z"
     id="path10"
     inkscape:connector-curvature="0"
     style="fill:#ffffff" />
  <path
     d="m 243.61383,378.97262 h -84.74915 c -2.23866,0 -3.9976,-1.8389 -3.9976,-3.9976 V 334.999 c 0,-2.23865 1.8389,-3.9976 3.9976,-3.9976 h 84.74915 c 2.23866,0 3.9976,1.8389 3.9976,3.9976 v 39.97602 c 0,2.23865 -1.83889,3.9976 -3.9976,3.9976 z"
     id="path12"
     inkscape:connector-curvature="0"
     style="fill:#aa1c41" />
  <path
     d="M 394.0036,233.22007 H 400 v 62.04277 h -5.9964 z m 0,-105.85649 H 400 v 31.74096 h -5.9964 z m 0,-51.56905 H 400 v 31.74095 h -5.9964 z M 0,85.30882 h 6.1563062 v 62.04277 H 0 Z m 0,136.1583 h 6.1563062 v 31.74096 H 0 Z m 0,51.56906 h 6.1563062 v 31.74096 H 0 Z"
     id="path14"
     inkscape:connector-curvature="0" />
  <path
     d="m 302.45852,406.15631 h -29.98201 c -2.23865,0 -3.9976,-1.8389 -3.9976,-3.9976 v -31.58105 c 0,-2.23866 1.8389,-3.99761 3.9976,-3.99761 h 29.98201 c 2.23866,0 3.99761,1.8389 3.99761,3.99761 v 31.58105 c 0,2.23865 -1.75895,3.9976 -3.99761,3.9976 z m -171.4971,0 h -29.98201 c -2.238654,0 -3.997599,-1.8389 -3.997599,-3.9976 v -31.58105 c 0,-2.23866 1.838897,-3.99761 3.997599,-3.99761 h 29.98201 c 2.23866,0 3.9976,1.8389 3.9976,3.99761 v 31.58105 c 0,2.23865 -1.75894,3.9976 -3.9976,3.9976 z m 216.67,50.60963 H 52.368579 c -2.238657,0 -3.997602,-1.83889 -3.997602,-3.9976 l -1.59904,-15.43074 c 0,-2.23866 1.838896,-3.9976 3.997601,-3.9976 H 349.23046 c 2.23866,0 3.9976,1.8389 3.9976,3.9976 l -1.59904,15.43074 c 0,2.23866 -1.75894,3.9976 -3.9976,3.9976 z M 331.64102,198.28103 H 68.358985 c -2.238657,0 -3.997602,-1.83889 -3.997602,-3.9976 v -57.00579 l -1.59904,-7.99521 c 0,-2.23865 1.838896,-3.9976 3.997601,-3.9976 H 333.24006 c 2.23865,0 3.9976,1.8389 3.9976,3.9976 l -1.59904,6.95583 v 58.04517 c 0,2.23866 -1.75895,3.9976 -3.9976,3.9976 z"
     id="path16"
     inkscape:connector-curvature="0"
     style="fill:#aa1c41" />
  <path
     d="M 297.42155,116.57006 H 110.57366 V 2.39856 h 2.39856 V 114.1715 H 295.02299 V 2.39856 h 2.39856"
     id="path18"
     inkscape:connector-curvature="0"
     style="fill:#ffffff" />
  <path
     d="M 9.9940036,46.37218 H 52.368579 c 2.238657,0 3.997601,1.8389 3.997601,3.9976 v 279.8321 c 0,2.23866 -1.838896,3.9976 -3.997601,3.9976 H 9.9940036 c -2.1587048,0 -3.9976014,-1.83889 -3.9976014,-3.9976 V 50.36978 c 0,-2.1587 1.8388966,-3.9976 3.9976014,-3.9976 z M 347.63142,334.19948 H 390.006 c 2.23865,0 3.9976,-1.83889 3.9976,-3.9976 V 50.36978 c 0,-2.23866 -1.8389,-3.9976 -3.9976,-3.9976 h -42.37458 c -2.23866,0 -3.9976,1.8389 -3.9976,3.9976 v 279.8321 c 0,2.23866 1.8389,3.9976 3.9976,3.9976 z"
     id="path20"
     inkscape:connector-curvature="0"
     style="fill:#aa1c41" />
  <path
     d="M 138.95663,416.15031 H 61.163302 c -2.878273,0 -5.196882,-2.31861 -5.196882,-5.19688 v -49.57026 c 0,-2.87827 2.318609,-5.19688 5.196882,-5.19688 h 77.793328 c 2.87827,0 5.19688,2.31861 5.19688,5.19688 v 49.57026 c 0,2.87827 -2.31861,5.19688 -5.19688,5.19688 z M 61.163302,358.58485 c -1.519089,0 -2.798321,1.27923 -2.798321,2.79832 v 49.57026 c 0,1.51909 1.279232,2.79832 2.798321,2.79832 h 77.793328 c 1.51908,0 2.79832,-1.27923 2.79832,-2.79832 v -49.57026 c 0,-1.51909 -1.27924,-2.79832 -2.79832,-2.79832 z m 281.191288,57.56546 h -77.79333 c -2.87827,0 -5.19688,-2.31861 -5.19688,-5.19688 v -49.57026 c 0,-2.87827 2.31861,-5.19688 5.19688,-5.19688 h 77.79333 c 2.87827,0 5.19688,2.31861 5.19688,5.19688 v 49.57026 c 0,2.87827 -2.31861,5.19688 -5.19688,5.19688 z m -77.87328,-57.56546 c -1.51909,0 -2.79832,1.27923 -2.79832,2.79832 v 49.57026 c 0,1.51909 1.27923,2.79832 2.79832,2.79832 h 77.79333 c 1.51908,0 2.79832,-1.27923 2.79832,-2.79832 v -49.57026 c 0,-1.51909 -1.27924,-2.79832 -2.79832,-2.79832 z M 56.36618,214.35139 h 287.26764 v 2.39856 H 56.36618 Z"
     id="path22"
     inkscape:connector-curvature="0"
     style="fill:#ffffff" />
  <path
     d="M 133.35998,389.60624 H 98.580851 c -0.879472,0 -1.59904,0.71957 -1.59904,1.59904 v 7.43554 c 0,0.87947 0.719568,1.59904 1.59904,1.59904 h 34.779129 c 0.87948,0 1.59904,-0.71957 1.59904,-1.59904 v -7.43554 c 0,-0.87947 -0.71956,-1.59904 -1.59904,-1.59904 z m 112.65241,-17.5095 h -89.54627 c -0.87947,0 -1.59904,-0.71956 -1.59904,-1.59904 v -31.18129 c 0,-0.87947 0.71957,-1.59904 1.59904,-1.59904 h 89.54627 c 0.87947,0 1.59904,0.71957 1.59904,1.59904 v 31.18129 c 0,0.87948 -0.71957,1.59904 -1.59904,1.59904 z M 331.64102,198.28103 H 68.358985 c -2.238657,0 -3.997602,-1.83889 -3.997602,-3.9976 0,-2.23865 1.838897,-3.9976 3.997602,-3.9976 H 331.64102 c 2.23865,0 3.9976,1.8389 3.9976,3.9976 0,2.23866 -1.75895,3.9976 -3.9976,3.9976 z m 1.59904,-65.001 H 66.759944 c -2.238657,0 -3.997601,-1.83889 -3.997601,-3.9976 0,-2.23865 1.838896,-3.9976 3.997601,-3.9976 H 333.24006 c 2.23865,0 3.9976,1.8389 3.9976,3.9976 0,2.15871 -1.75895,3.9976 -3.9976,3.9976 z"
     id="path24"
     inkscape:connector-curvature="0"
     style="fill:#59001d" />
  <g
     id="g30"
     style="fill:#c0a987">
    <path
       d="m 117.20967,435.97841 h 8.79473 v 2.63842 h -5.6766 v 3.19808 h 5.6766 v 2.71837 h -5.6766 v 5.6766 h -3.11813 m 18.78873,0 h -2.95822 v -2.23866 h -5.8365 l -1.67899,2.23866 h -3.51789 l 11.59304,-14.15151 h 2.47851 z m -2.95822,-4.87708 v -4.1575 l -3.51789,4.1575 z m 4.1575,-9.35439 h 3.43794 l 4.95703,9.59425 4.87707,-9.59425 h 3.51789 v 14.23147 h -3.03818 v -7.19569 l -3.8377,7.19569 h -3.11813 l -3.67779,-7.19569 v 7.19569 h -3.11813 m 74.43534,-14.23147 h 3.51789 l 4.87707,9.59425 4.95703,-9.59425 h 3.43794 v 14.23146 h -3.03818 v -7.19568 l -3.8377,7.19568 h -3.11813 l -3.67779,-7.19568 v 7.19568 h -3.11813 m -56.68599,-14.23146 h 3.19808 v 14.15151 h -3.19808 z m 4.07756,0 h 3.19808 v 11.59305 h 4.23745 v 2.63842 h -7.43553 m 3.83769,-14.23147 h 3.59784 l 3.35799,5.8365 3.19808,-5.8365 h 3.59784 l -5.35678,9.03458 v 5.19688 h -3.11813 v -5.19688 m 25.8245,-5.11693 c -1.43913,-2.31861 -4.23745,-3.83769 -7.43554,-3.83769 -4.63721,0 -8.39496,3.19808 -8.39496,7.19568 0,3.9976 3.75775,7.19568 8.39496,7.19568 3.27804,0 6.07636,-1.59904 7.43554,-3.91765 h -3.83769 c -0.95943,0.71957 -2.15871,1.19928 -3.59785,1.19928 -2.87827,0 -5.27683,-1.9988 -5.27683,-4.47731 0,-2.47851 2.31861,-4.47732 5.27683,-4.47732 1.35919,0 2.55847,0.47972 3.51789,1.19929 z"
       id="path26"
       inkscape:connector-curvature="0" />
    <path
       d="m 202.27863,450.52968 c -4.63721,0 -8.47491,-3.27803 -8.47491,-7.19568 0,-3.9976 3.75774,-7.19568 8.47491,-7.19568 4.63722,0 8.47492,3.27803 8.47492,7.19568 0,3.91765 -3.8377,7.19568 -8.47492,7.19568 z m 5.35679,-7.27563 c 0,-2.55847 -2.39856,-4.55727 -5.35679,-4.55727 -2.95822,0 -5.35678,2.07876 -5.35678,4.55727 0,2.55846 2.39856,4.55726 5.35678,4.55726 2.95823,0 5.35679,-1.9988 5.35679,-4.55726 z m 27.42355,-7.19568 c 2.79832,0.1599 5.03697,2.23865 5.03697,4.63721 0,2.47852 -2.23865,4.47732 -5.03697,4.63722 h -2.39857 v 4.87708 h -3.11812 v -14.15151 z m -2.39857,2.71837 v 3.83769 h 2.39857 c 1.03937,-0.1599 1.83889,-0.95942 1.83889,-1.91885 0,-0.95942 -0.79952,-1.75894 -1.83889,-1.91884 z m 41.49511,11.59304 h -3.11813 v -14.23146 h 6.63602 c 2.79832,0.1599 5.03697,2.23866 5.03697,4.63722 0,1.9988 -1.43913,3.67779 -3.51788,4.39736 l 3.59784,5.19688 h -3.35799 l -5.03698,-7.35559 h -0.3198 z m 3.59784,-7.6754 c 1.03938,-0.1599 1.8389,-0.95942 1.8389,-1.91884 0,-0.95943 -0.79952,-1.75895 -1.8389,-1.91885 h -3.59784 v 3.83769 z m -33.65981,1.51909 v 2.07876 c 0.15991,0.87947 1.11933,1.59904 2.23866,1.59904 1.11933,0 2.07875,-0.71957 2.23866,-1.59904 v -10.15391 h 3.19808 v 10.15391 c -0.23986,2.39856 -2.55847,4.31741 -5.43674,4.31741 -2.87827,0 -5.19688,-1.91885 -5.43674,-4.31741 v -10.15391 h 3.19808 z m 10.87348,6.15631 h 3.11813 v -11.51309 h 2.79832 v -2.71837 h -8.63482 v 2.71837 h 2.71837 m 15.27084,11.51309 h -8.63482 v -14.23146 h 8.63482 v 2.63842 h -5.51669 v 3.35798 h 5.51669 v 2.63842 h -5.51669 v 2.95822 h 5.51669 m -221.706978,6.07636 c -0.07995,-0.31981 -0.159904,-0.63962 -0.159904,-0.95943 v -0.39976 H 294.54327 v 1.35919 z m 303.178098,0 v -1.35919 h -21.74696 v 1.35919 z"
       id="path28"
       inkscape:connector-curvature="0" />
  </g>
  <g
     id="g38"
     style="fill:#c0a987">
    <path
       d="m 296.70198,450.04997 h 1.35918 l 1.91885,3.11813 v -3.11813 h 1.35919 v 4.47731 h -1.35919 l -1.91885,-3.11812 v 3.11812 h -1.35918 z m 11.9928,0.47971 h 1.35919 v 0.63962 h 0.71957 v 0.47971 h -0.71957 v 2.95823 h -1.35919 v -2.95823 h -0.71956 v -0.47971 h 0.71956 z m -6.63601,1.03938"
       id="path32"
       inkscape:connector-curvature="0" />
    <path
       d="m 313.01219,453.56786 v 0.1599 c 0,0.55967 -0.3198,0.63962 -0.55966,0.63962 -0.1599,0 -0.55966,-0.1599 -0.55966,-0.63962 v -0.63961 h 2.47851 c 0,-0.95943 -0.87947,-1.67899 -1.91885,-1.67899 -1.03938,0 -1.91885,0.71956 -1.91885,1.67899 0,0.95942 0.87947,1.67899 1.91885,1.67899 0.87947,0 1.67899,-0.55966 1.8389,-1.19928 z m -1.03937,-0.95942 c 0,-0.23986 0,-0.39976 0.0799,-0.55967 0.0799,-0.1599 0.31981,-0.23985 0.47971,-0.23985 0.15991,0 0.39976,0.0799 0.47971,0.23985 0.08,0.15991 0.08,0.31981 0.08,0.55967 z m 15.43074,-2.07876 c 0.1599,0 0.23985,0 0.23985,-0.1599 0,-0.1599 -0.0799,-0.1599 -0.23985,-0.1599 h -0.23986 v 0.3198 z m -0.23986,0.63962 h -0.1599 v -1.03938 h 0.39976 c 0.23985,0 0.31981,0.08 0.31981,0.31981 0,0.15991 -0.08,0.23986 -0.23986,0.31981 l 0.31981,0.47971 h -0.15991 l -0.23985,-0.47971 h -0.15991 v 0.39976 z"
       id="path34"
       inkscape:connector-curvature="0" />
    <path
       d="m 327.40356,451.3292 c 0.39976,0 0.71957,-0.3198 0.71957,-0.71956 0,-0.39976 -0.31981,-0.71957 -0.71957,-0.71957 -0.39976,0 -0.71957,0.31981 -0.71957,0.71957 0,0.47971 0.31981,0.71956 0.71957,0.71956 m -0.87947,-0.71956 c 0,-0.47972 0.39976,-0.87948 0.87947,-0.87948 0.47971,0 0.87947,0.39976 0.87947,0.87948 0,0.47971 -0.39976,0.87947 -0.87947,0.87947 -0.47971,0 -0.87947,-0.31981 -0.87947,-0.87947"
       id="path36"
       inkscape:connector-curvature="0" />
  </g>
  <g
     transform="scale(0.79952029)"
     id="g52"
     style="fill:#c0a987">
    <circle
       cx="93.900002"
       cy="547.70001"
       r="2.3"
       id="circle40" />
    <path
       d="m 90.5,547.2 v -0.3 c 0,-0.8 -0.7,-1.5 -1.5,-1.5 -0.7,0 -1.2,0.4 -1.4,1 l -4.8,14.7 c -0.1,0.2 -0.1,0.3 -0.1,0.5 0,0.8 0.7,1.5 1.5,1.5 0.7,0 1.2,-0.4 1.4,-1 z"
       id="path42"
       inkscape:connector-curvature="0" />
    <circle
       cx="92.099998"
       cy="553.20001"
       r="2.3"
       id="circle44" />
    <circle
       cx="104.2"
       cy="547.70001"
       r="2.3"
       id="circle46" />
    <path
       d="m 100.9,547.2 v -0.3 c 0,-0.8 -0.7,-1.5 -1.5,-1.5 -0.7,0 -1.2,0.4 -1.4,1 l -4.8,14.7 c -0.1,0.2 -0.1,0.3 -0.1,0.5 0,0.8 0.7,1.5 1.5,1.5 0.7,0 1.2,-0.4 1.4,-1 z"
       id="path48"
       inkscape:connector-curvature="0" />
    <circle
       cx="102.4"
       cy="553.20001"
       r="2.3"
       id="circle50" />
  </g>
</svg>
