<?xml version="1.0" encoding="UTF-8" standalone="no"?>
<svg
   xmlns:dc="http://purl.org/dc/elements/1.1/"
   xmlns:cc="http://creativecommons.org/ns#"
   xmlns:rdf="http://www.w3.org/1999/02/22-rdf-syntax-ns#"
   xmlns:svg="http://www.w3.org/2000/svg"
   xmlns="http://www.w3.org/2000/svg"
   xmlns:sodipodi="http://sodipodi.sourceforge.net/DTD/sodipodi-0.dtd"
   xmlns:inkscape="http://www.inkscape.org/namespaces/inkscape"
   viewBox="0 0 306.96753 199.99999"
   version="1.1"
   id="svg26"
   sodipodi:docname="game.svg"
   width="306.96753"
   height="200"
   inkscape:version="0.92.4 5da689c313, 2019-01-14">
  <metadata
     id="metadata32">
    <rdf:RDF>
      <cc:Work
         rdf:about="">
        <dc:format>image/svg+xml</dc:format>
        <dc:type
           rdf:resource="http://purl.org/dc/dcmitype/StillImage" />
      </cc:Work>
    </rdf:RDF>
  </metadata>
  <defs
     id="defs30" />
  <sodipodi:namedview
     pagecolor="#ffffff"
     bordercolor="#666666"
     borderopacity="1"
     objecttolerance="10"
     gridtolerance="10"
     guidetolerance="10"
     inkscape:pageopacity="0"
     inkscape:pageshadow="2"
     inkscape:window-width="471"
     inkscape:window-height="442"
     id="namedview28"
     showgrid="false"
     inkscape:zoom="0.88282953"
     inkscape:cx="153.48376"
     inkscape:cy="99.999992"
     inkscape:window-x="0"
     inkscape:window-y="0"
     inkscape:window-maximized="0"
     inkscape:current-layer="svg26" />
  <path
     d="M 299.52889,0 H 7.4386313 C 3.3225886,0 0,3.37218 0,7.43863 v 161.17035 c 0,4.11604 3.3225886,7.43863 7.4386313,7.43863 H 19.340441 v 19.98512 c 0,2.182 1.785272,3.96727 3.96727,3.96727 H 281.67617 c 2.182,0 3.96727,-1.78527 3.96727,-3.96727 v -19.98512 h 13.88545 c 4.11604,0 7.43863,-3.37218 7.43863,-7.43863 V 7.43863 C 306.96752,3.37218 303.59534,0 299.52889,0 Z"
     id="path2"
     inkscape:connector-curvature="0"
     style="fill:#c68228" />
  <path
     d="M 291.09844,10.90999 H 15.86908 c -2.181998,0 -3.96727,1.78527 -3.96727,3.96727 v 150.26035 c 0,2.182 1.785272,3.96727 3.96727,3.96727 h 6.446814 v 24.94421 c 0,2.182 1.785271,3.96727 3.96727,3.96727 H 279.19663 c 2.182,0 3.96727,-1.78527 3.96727,-3.96727 v -24.94421 h 7.93454 c 2.182,0 3.96727,-1.78527 3.96727,-3.96727 V 14.87726 c 0,-2.182 -1.78527,-3.96727 -3.96727,-3.96727 z"
     id="path4"
     inkscape:connector-curvature="0"
     style="fill:#fbaa2a" />
  <path
     d="M 281.18026,149.76444 H 25.787255 c -2.181998,0 -3.96727,-1.78527 -3.96727,-3.96727 V 23.80362 c 0,-2.182 1.785272,-3.96727 3.96727,-3.96727 H 281.18026 c 2.182,0 3.96727,1.78527 3.96727,3.96727 v 121.99355 c 0,2.182 -1.78527,3.96727 -3.96727,3.96727 z"
     id="path6"
     inkscape:connector-curvature="0"
     style="fill:#e6e7e8" />
  <g
     id="g16"
     style="fill-rule:evenodd">
    <path
       d="m 39.871063,40.912472 c -4.512769,0 -7.537813,-3.173816 -7.537813,-7.091495 0,-3.868089 3.025044,-7.091495 7.537813,-7.091495 h 42.49938 c 4.51277,0 7.537813,3.223406 7.537813,7.091495 0,3.868088 -3.025043,7.091495 -7.537813,7.091495 z"
       id="path8"
       inkscape:connector-curvature="0" />
    <path
       d="m 39.871063,28.465162 c -3.570543,0 -5.752541,2.380362 -5.752541,5.355815 0,2.975452 2.181998,5.355814 5.752541,5.355814 h 42.449789 c 3.570544,0 5.752542,-2.380362 5.752542,-5.355814 0,-2.975453 -2.181998,-5.355815 -5.752542,-5.355815 z"
       id="path10"
       inkscape:connector-curvature="0"
       style="fill:#ffffff" />
    <path
       d="m 38.036201,30.498388 h 2.082817 l 2.876271,4.611951 v -4.611951 h 2.082816 v 6.645177 h -2.082816 l -2.876271,-4.661542 v 4.661542 h -2.082817 v -6.645177 m 18.249442,0.694272 h 1.983635 v 0.892636 h 1.090999 v 0.644681 h -1.090999 v 4.413588 h -1.983635 v -4.413588 h -1.090999 v -0.644681 h 1.090999 V 31.19266 m -10.066947,1.537317 h 2.033225 v 4.413588 h -2.033225 v -4.413588 m 0,-2.231589 h 2.033225 v 1.338954 h -2.033225 v -1.338954 m 35.953384,4.413588 v 0.942227 c 0,0.694272 -0.396727,0.991817 -0.843045,0.991817 -0.396727,0 -0.843045,-0.297545 -0.843045,-0.991817 v -1.884454 c 0,-0.694272 0.396727,-0.991817 0.843045,-0.991817 0.446318,0 0.843045,0.297545 0.843045,0.991817 z m -0.793454,-2.479544 c -1.636499,0 -2.925862,1.091 -2.925862,2.479544 0,1.388545 1.289363,2.479544 2.925862,2.479544 1.636499,0 2.925862,-1.091 2.925862,-2.479544 0,-1.388545 -1.289363,-2.479544 -2.925862,-2.479544 z m -5.554178,-1.934044 h 1.983635 v 6.645177 h -1.983635 v -0.247954 c -0.743863,0.495909 -1.636499,0.495909 -2.330771,0.148773 -0.198364,-0.09918 -1.388545,-0.644682 -1.388545,-2.181999 0,-1.190181 1.091,-2.429953 2.529135,-2.330771 0.495909,0.04959 0.793454,0.198364 1.14059,0.396727 0.04959,-1.041408 0.04959,-2.429953 0.04959,-2.429953 z m 0,4.413588 v -0.793454 c 0,-0.694272 -0.495909,-0.843045 -0.793454,-0.843045 -0.297545,0 -0.793454,0.198364 -0.793454,0.843045 v 1.586908 c 0,0.694272 0.446318,0.843045 0.793454,0.843045 0.297545,0 0.793454,-0.198364 0.793454,-0.843045 z M 52.913464,32.531614 c 0.743863,0 2.28118,0.446318 2.28118,2.231589 v 2.429953 h -1.983635 v -2.925861 c 0,-0.396727 -0.347136,-0.793454 -0.892636,-0.793454 -0.5455,0 -0.942227,0.446318 -0.942227,0.793454 v 2.925861 h -1.983635 v -4.413588 h 1.983635 v 0.446318 c 0.347137,-0.396727 0.892636,-0.694272 1.537318,-0.694272 z m 16.315397,0 c 0.743864,0 2.281181,0.446318 2.281181,2.231589 v 2.429953 h -1.983635 v -2.925861 c 0,-0.396727 -0.347136,-0.793454 -0.892636,-0.793454 -0.5455,0 -0.942227,0.446318 -0.942227,0.793454 v 2.925861 h -1.983635 v -4.413588 h 1.983635 v 0.446318 c 0.297546,-0.396727 0.892636,-0.694272 1.537317,-0.694272 z m -7.98413,1.735681 c 0,-0.396727 0,-0.644682 0.148772,-0.892636 0.148773,-0.297545 0.446318,-0.396727 0.694272,-0.396727 0.247955,0 0.5455,0.148773 0.694273,0.396727 0.148772,0.198363 0.148772,0.495909 0.148772,0.892636 z m 1.686089,1.338953 v 0.247955 c 0,0.793454 -0.545499,0.991817 -0.843045,0.991817 -0.297545,0 -0.843044,-0.198363 -0.843044,-0.991817 v -0.892636 h 3.768906 c 0,-1.388545 -1.338954,-2.529135 -2.975452,-2.529135 -1.636499,0 -2.975453,1.091 -2.975453,2.479544 0,1.388545 1.338954,2.479544 2.975453,2.479544 1.338953,0 2.479543,-0.793454 2.826679,-1.834863 z m 21.52244,-3.520952 h -0.247954 v -1.537317 h 0.59509 c 0.347136,0 0.5455,0.148773 0.5455,0.446318 0,0.247954 -0.148773,0.396727 -0.396727,0.396727 l 0.446318,0.644681 h -0.247955 l -0.396727,-0.644681 h -0.247954 v 0.694272 z m 0.247954,-0.892636 c 0.198364,0 0.347137,0 0.347137,-0.247954 0,-0.198363 -0.148773,-0.198363 -0.347137,-0.198363 h -0.297545 v 0.446317 z"
       id="path12"
       inkscape:connector-curvature="0" />
    <path
       d="m 83.362261,31.291842 c 0,-0.743863 0.59509,-1.289363 1.338953,-1.289363 0.694273,0 1.338954,0.5455 1.338954,1.289363 0,0.743863 -0.59509,1.338954 -1.338954,1.338954 -0.694272,0 -1.338953,-0.5455 -1.338953,-1.338954 z m 1.338953,1.090999 c 0.595091,0 1.041409,-0.446317 1.041409,-1.090999 0,-0.644681 -0.446318,-1.090999 -1.041409,-1.090999 -0.59509,0 -1.090999,0.446318 -1.090999,1.090999 0.04959,0.644682 0.495909,1.090999 1.090999,1.090999 z"
       id="path14"
       inkscape:connector-curvature="0" />
  </g>
  <path
     d="m 157.64939,30.10166 c 0,2.13241 0.34714,5.00868 -0.89263,6.94272 -0.59509,1.04141 -1.68609,1.6365 -2.7275,2.13241 h -6.99231 v -2.182 h 6.09967 c 1.091,-0.14877 1.98364,-1.091 2.33077,-2.1324 0.19837,-0.69428 0.19837,-1.43814 0.19837,-2.13241 h -9.819 v -2.57873 h 11.80263 z m 24.34912,6.89313 c 1.73568,-0.0496 3.57055,0.0496 5.25664,0 0.84304,-0.0496 1.5869,-0.74386 2.08281,-1.43813 0.44632,-0.59509 0.59509,-1.19018 0.64468,-2.03323 0.0496,-1.14059 0,-2.28118 0.0496,-3.42177 h 1.68609 v 4.61195 c 0,1.23977 -0.39672,2.182 -1.19018,3.07464 -0.24795,0.39672 -0.94222,0.89263 -1.58691,1.14059 -0.44631,0.0992 -0.89263,0.24795 -1.38854,0.19836 h -5.50459 z m 85.29631,-4.11604 c -0.39673,1.38854 -1.43814,2.97545 -3.07464,2.92586 v -2.57872 c 0.44632,-0.19837 0.94223,-0.44632 1.23978,-0.89264 0.34713,-0.64468 0.34713,-1.38854 0.29754,-2.28118 3.273,-0.0496 6.69477,0 9.96777,0 v 5.90131 c 0,2.08282 -2.28118,3.17382 -2.82668,3.17382 h -7.88495 v -2.182 h 6.44681 c 0.89264,0 1.78527,-0.29754 2.03323,-0.69427 h -6.0005 V 33.6722 h 6.24845 c 0.0496,-0.94222 -0.59509,-0.79345 -1.14059,-0.84304 h -5.30622 z M 158.1453,39.17679 v -2.13241 l 3.42177,-0.0496 c 0.44632,0 0.44632,-1.14059 0.44632,-1.88445 h 3.86809 c 0,-0.34714 -0.39673,-0.5455 -0.99182,-0.5455 h -6.69477 v -2.33077 h 9.52145 c 0,1.38854 0.14877,3.273 -0.44632,4.21522 -0.74386,1.091 -2.87627,0.74387 -3.62013,0.84305 0,0.89263 -0.64468,1.88445 -1.28936,1.88445 h -4.21523 z m 10.06695,-6.59558 11.50508,1.23977 v -2.38037 l -11.50508,-1.23977 m 0,5.00868 11.50508,1.23977 v -2.38036 l -11.50508,-1.23977 m 0,5.05827 11.50508,1.28936 v -2.38036 l -11.50508,-1.28936 m 12.05058,-5.40541 h 2.08282 v 5.80213 h -2.08282 z m 12.10018,3.47136 h 11.10835 v 2.28118 h -11.10835 z m 26.87825,-3.47136 h -11.25713 v 2.57873 h 9.32309 v 4.26481 h -9.62063 v 2.23159 h 11.55467 m 0.74386,-2.182 c 1.73568,-0.0496 5.50459,0.0496 7.24027,0 0.84305,-0.0496 1.58691,-0.74386 2.08282,-1.43813 0.44632,-0.59509 0.59509,-1.19018 0.64468,-2.03323 0.0496,-1.14059 0,-2.28118 0.0496,-3.42177 h 1.68609 v 4.61195 c 0,1.23977 -0.39673,2.182 -1.19018,3.07464 -0.24796,0.39672 -0.94223,0.89263 -1.58691,1.14059 -0.44632,0.0992 -0.89264,0.24795 -1.38854,0.19836 h -7.43864 l -0.0992,-2.13241 z m 13.93504,-1.93404 h 9.86858 V 33.1267 h -1.19018 c 0.49591,-0.24795 0.84305,-0.74386 0.84305,-1.33895 0,-0.84304 -0.69428,-1.48773 -1.48773,-1.48773 -0.79345,0 -1.48773,0.69428 -1.48773,1.48773 0,0.59509 0.34714,1.091 0.84305,1.33895 h -0.79345 c -0.24796,0 -0.19837,-0.64468 -0.69428,-0.64468 h -5.9509 v -2.38036 h -1.68609 v 6.79395 c 0,0.99182 0.89263,2.13241 1.58691,2.28118 h 9.96776 v -2.182 h -8.82717 c -0.79346,-0.19836 -0.99182,-1.19018 -0.99182,-1.93404 z m 7.98413,-4.06645 c 0.44632,0 0.79345,0.34713 0.79345,0.79345 0,0.44632 -0.34713,0.79346 -0.79345,0.79346 -0.44632,0 -0.79345,-0.34714 -0.79345,-0.79346 0,-0.44632 0.34713,-0.79345 0.79345,-0.79345 z m 9.86858,1.48772 h -6.69476 v 2.38037 h 5.05826 v 2.1324 h -5.90131 v 2.182 h 9.42227 v -2.182 h -1.88446"
     id="path18"
     inkscape:connector-curvature="0"
     style="fill:#ea2c27" />
  <path
     d="m 252.51674,33.57302 h 11.10835 v 2.28118 h -11.10835 z"
     id="path20"
     inkscape:connector-curvature="0"
     style="fill:#ea2c27" />
  <path
     d="m 233.32507,46.7642 h 42.44979 v 10.66203 h -42.44979 z"
     id="path22"
     inkscape:connector-curvature="0"
     style="fill-rule:evenodd" />
  <path
     d="m 235.65584,55.4426 v -7.04191 h 1.43813 v 2.77709 h 2.77709 v -2.77709 h 1.43814 v 6.99232 h -1.43814 v -3.07464 h -2.77709 v 3.07464 h -1.43813 z m 8.87677,0 -2.52914,-7.04191 h 1.53732 l 1.78527,5.20705 1.73568,-5.20705 h 1.48773 l -2.52914,6.99232 h -1.48772 z m 9.2239,-2.57873 1.38854,0.44632 c -0.19836,0.74386 -0.5455,1.33895 -1.04141,1.68609 -0.4959,0.34714 -1.09099,0.5455 -1.88445,0.5455 -0.94222,0 -1.68609,-0.29754 -2.28118,-0.94223 -0.59509,-0.64468 -0.89263,-1.48772 -0.89263,-2.62831 0,-1.19018 0.29754,-2.08282 0.89263,-2.7275 0.59509,-0.64468 1.38855,-0.99182 2.38036,-0.99182 0.84305,0 1.53732,0.24796 2.08282,0.74386 0.29755,0.29755 0.5455,0.74387 0.69427,1.28937 l -1.38854,0.34713 c -0.0992,-0.34713 -0.24796,-0.64468 -0.49591,-0.84304 -0.24796,-0.19836 -0.59509,-0.29755 -0.94223,-0.29755 -0.49591,0 -0.94222,0.19837 -1.28936,0.5455 -0.34714,0.39673 -0.49591,0.99182 -0.49591,1.83487 0,0.89263 0.14877,1.53731 0.49591,1.88445 0.29755,0.39673 0.74386,0.5455 1.23977,0.5455 0.39673,0 0.69427,-0.0992 0.99182,-0.34714 0.24795,-0.19836 0.39673,-0.59509 0.5455,-1.091 z m 2.42995,0.69428 v -1.33896 h 2.62832 v 1.33896 z m 3.42177,-5.15746 h 1.43814 v 3.8185 c 0,0.59509 0,0.99182 0.0496,1.19018 0.0496,0.29755 0.19836,0.49591 0.44632,0.69427 0.24795,0.19837 0.5455,0.24796 0.94222,0.24796 0.39673,0 0.69428,-0.0992 0.89264,-0.24796 0.19836,-0.14877 0.34713,-0.34713 0.34713,-0.59509 0.0496,-0.24795 0.0496,-0.64468 0.0496,-1.19018 v -3.86808 h 1.43813 v 3.66972 c 0,0.84304 -0.0496,1.43814 -0.0992,1.78527 -0.0992,0.34714 -0.19836,0.64468 -0.44632,0.89264 -0.19836,0.24795 -0.49591,0.44632 -0.84304,0.59509 -0.34714,0.14877 -0.79346,0.19836 -1.33896,0.19836 -0.69427,0 -1.19018,-0.0992 -1.53731,-0.24795 -0.34714,-0.14878 -0.59509,-0.34714 -0.84305,-0.59509 -0.19836,-0.24796 -0.34714,-0.49591 -0.39673,-0.79346 -0.0992,-0.39672 -0.14877,-0.99182 -0.14877,-1.78527 v -3.76891 z m 7.04191,7.04191 v -7.04191 h 2.1324 l 1.28937,4.76073 1.23977,-4.76073 h 2.13241 v 6.99232 h -1.33896 v -5.50459 l -1.38854,5.50459 h -1.33896 l -1.38854,-5.50459 v 5.50459 h -1.33895 z"
     id="path24"
     inkscape:connector-curvature="0"
     style="fill:#e6e7e8" />
</svg>
