<?xml version="1.0" encoding="UTF-8" standalone="no"?>
<svg
   xmlns:dc="http://purl.org/dc/elements/1.1/"
   xmlns:cc="http://creativecommons.org/ns#"
   xmlns:rdf="http://www.w3.org/1999/02/22-rdf-syntax-ns#"
   xmlns:svg="http://www.w3.org/2000/svg"
   xmlns="http://www.w3.org/2000/svg"
   xmlns:sodipodi="http://sodipodi.sourceforge.net/DTD/sodipodi-0.dtd"
   xmlns:inkscape="http://www.inkscape.org/namespaces/inkscape"
   viewBox="0 0 402 59.762961"
   version="1.1"
   id="svg22"
   sodipodi:docname="logo.svg"
   width="403"
   height="59.762962"
   inkscape:version="0.92.4 5da689c313, 2019-01-14">
  <metadata
     id="metadata28">
    <rdf:RDF>
      <cc:Work
         rdf:about="">
        <dc:format>image/svg+xml</dc:format>
        <dc:type
           rdf:resource="http://purl.org/dc/dcmitype/StillImage" />
      </cc:Work>
    </rdf:RDF>
  </metadata>
  <defs
     id="defs26" />
  <sodipodi:namedview
     pagecolor="#ffffff"
     bordercolor="#666666"
     borderopacity="1"
     objecttolerance="10"
     gridtolerance="10"
     guidetolerance="10"
     inkscape:pageopacity="0"
     inkscape:pageshadow="2"
     inkscape:window-width="471"
     inkscape:window-height="442"
     id="namedview24"
     showgrid="false"
     inkscape:zoom="0.6775"
     inkscape:cx="200"
     inkscape:cy="29.881481"
     inkscape:window-x="0"
     inkscape:window-y="0"
     inkscape:window-maximized="0"
     inkscape:current-layer="svg22" />
  <path
     d="M 89.397294,0.53351192 H 105.88776 V 6.3051739 H 95.168955 v 6.9356941 h 10.718805 v 5.965667 H 95.168955 v 12.367847 h -5.771661 m 35.260486,0 h -5.62616 v -4.850136 h -10.8643 l -3.24959,4.850136 H 98.321544 L 120.09865,0.53351192 h 4.55913 z m -5.62616,-10.7188 v -9.021253 l -6.64468,9.069754 h 6.64468 z m 7.80872,-20.32207008 h 6.49919 l 9.21525,20.85558508 9.26376,-20.85558508 h 6.54769 V 31.574382 h -5.77166 V 15.908443 l -7.17821,15.665939 h -5.86866 l -6.88719,-15.665939 v 15.665939 h -5.82017 M 266.52426,0.53351192 h 6.49918 L 282.1902,21.389097 291.45396,0.53351192 h 6.59618 V 31.574382 h -5.82016 V 15.908443 l -7.1297,15.665939 h -5.86867 l -6.93569,-15.665939 v 15.665939 h -5.77166 M 160.20928,0.53351192 h 6.01417 V 31.574382 h -6.01417 z m 7.66321,0 h 6.01417 V 25.899723 h 7.80872 v 5.674659 h -13.82289 m 7.1297,-31.04087008 h 6.69319 l 6.30518,12.70735608 6.11117,-12.70735608 h 6.59618 L 190.76514,20.273565 v 11.300817 h -5.82017 V 20.273565 M 233.34933,9.1182529 c -2.61907,-5.044142 -7.90572,-8.48773798 -13.96839,-8.48773798 -8.68175,0 -15.76294,7.08119798 -15.76294,15.76294208 0,8.681743 7.03269,15.762941 15.76294,15.762941 6.11117,0 11.39782,-3.492097 14.01689,-8.536239 l -7.1297,0.0485 c -1.74605,1.600544 -4.12262,2.619073 -6.69319,2.619073 -5.48065,0 -9.89427,-4.413624 -9.89427,-9.894277 0,-5.480654 4.41362,-9.8942781 9.89427,-9.8942781 2.57057,0 4.85014,0.970027 6.64469,2.570572 l 7.1297,0.0485 z"
     id="path2"
     inkscape:connector-curvature="0"
     style="fill:#ea2c27" />
  <path
     d="m 248.96677,32.253401 c -8.73025,0 -15.85995,-7.081198 -15.85995,-15.859944 0,-8.7302451 7.0812,-15.85994508 15.85995,-15.85994508 8.73024,0 15.85994,7.08119898 15.85994,15.85994508 -0.0485,8.778746 -7.1297,15.859944 -15.85994,15.859944 z m 10.03978,-15.859944 c 0,-5.529155 -4.51063,-10.0397821 -10.03978,-10.0397821 -5.52916,0 -10.03978,4.5106271 -10.03978,10.0397821 0,5.529155 4.51062,10.039781 10.03978,10.039781 5.57765,0 10.03978,-4.510626 10.03978,-10.039781 z M 310.41799,0.53351192 c 5.23815,0.436512 9.36076,4.80163498 9.36076,10.18528608 0,5.38365 -4.12261,9.748773 -9.36076,10.185285 h -4.55913 V 31.574382 H 300.0387 V 0.53351192 Z m -4.55913,5.96566698 v 8.4392371 h 4.55913 c 1.98855,-0.388011 3.4921,-2.13406 3.4921,-4.219618 0,-2.0855591 -1.50355,-3.8316081 -3.4921,-4.2196191 z m 77.89318,25.4632141 h -5.77166 V 0.82451992 h 12.56185 c 5.23815,0.43651198 9.36077,4.80163498 9.36077,10.18528608 0,4.365122 -2.76458,8.099727 -6.64469,9.554767 l 6.69319,11.446321 h -6.30518 l -9.36076,-16.102451 h -0.53352 z m 6.79019,-16.78147 c 1.98856,-0.388011 3.4921,-2.13406 3.4921,-4.219619 0,-2.0855581 -1.50354,-3.8316071 -3.4921,-4.2196181 h -6.79019 v 8.4392371 z m -63.14877,3.298092 v 4.559128 c 0.38802,1.988556 2.13406,3.492098 4.21962,3.492098 2.08556,0 3.83161,-1.503542 4.21962,-3.492098 V 0.82451992 h 5.96567 V 23.038143 c -0.43651,5.238147 -4.80164,9.360762 -10.18529,9.360762 -5.38365,0 -9.74877,-4.122615 -10.18528,-9.360762 V 0.82451992 h 5.96566 z m 20.32207,13.483378 h 5.86867 V 6.6931849 h 5.28665 V 0.82451992 H 342.62289 V 6.6931849 h 5.09264 M 376.47684,31.962393 H 360.32589 V 0.82451992 h 16.15095 V 6.4991789 h -10.37929 v 7.4207081 h 10.37929 v 5.820163 h -10.37929 v 6.499183 h 10.37929 M 89.397294,36.521521 V 39.52861 H 393.69482 L 400,36.521521 M 108.74934,43.69972 c 0,3.5406 0.58201,8.14823 -1.45504,11.34932 -0.92153,1.74605 -2.71608,2.66757 -4.41363,3.4436 H 91.482852 v -3.5891 h 9.942778 c 1.74605,-0.24251 3.24959,-1.79455 3.83161,-3.4921 0.29101,-1.11553 0.33951,-2.32807 0.33951,-3.4921 H 89.542798 v -4.21962 z m 39.72261,11.25232 c 2.81308,-0.0485 5.77166,0.0485 8.63324,0 1.40654,-0.0485 2.57057,-1.21254 3.3466,-2.32807 0.77602,-0.92152 0.97002,-1.98855 1.06703,-3.29809 0.0485,-1.89155 0,-3.7346 0.0485,-5.62616 h 2.71607 v 7.56621 c 0,1.98856 -0.67902,3.5406 -1.98855,4.99564 -0.43652,0.67902 -1.60055,1.45504 -2.57058,1.89156 -0.72752,0.194 -1.50354,0.38801 -2.27956,0.33951 h -9.02125 z m 139.2959,-6.69319 c -0.63051,2.27956 -2.37656,4.80163 -4.99564,4.80163 v -4.21961 c 0.72752,-0.33951 1.55205,-0.72752 1.98856,-1.40654 0.53351,-1.01853 0.53351,-2.32807 0.48501,-3.68611 5.38365,-0.0485 10.91281,0 16.29646,0 v 9.60327 c 0,3.3466 -3.7346,5.18965 -4.60763,5.18965 -4.26812,-0.0485 -8.58474,0 -12.85286,0 v -3.5891 c 3.05559,-0.0485 7.46921,0 10.5248,0 1.40654,0 2.91008,-0.48502 3.34659,-1.16404 l -9.79728,0.0485 0.0485,-4.17112 h 10.18528 c 0.097,-1.55204 -0.97003,-1.30954 -1.89155,-1.40654 h -8.73025 z M 109.57386,58.49264 v -3.5406 l 5.52915,-0.0485 c 0.77603,0 0.72752,-1.84306 0.72752,-3.10409 h 6.30518 c 0,-0.58202 -0.67902,-0.92153 -1.64904,-0.92153 h -10.96131 v -3.8316 h 15.56893 c -0.0485,2.27956 0.19401,5.28664 -0.72752,6.88719 -1.26103,1.79455 -4.70463,1.21253 -5.91716,1.40654 0,1.45504 -1.01853,3.10409 -2.08556,3.10409 h -6.79019 z m 16.34496,-10.76731 18.81852,2.08556 v -3.88011 l -18.81852,-2.03705 m 0,8.14823 18.81852,2.03705 V 50.1989 l -18.81852,-2.03705 m 0,8.29373 18.81852,2.03706 v -3.83161 l -18.81852,-2.08556 m 19.69155,-8.87575 h 3.39509 v 9.45777 h -3.39509 z m 19.83706,5.67466 h 18.1395 v 3.73461 h -18.1395 z m 43.84522,-5.67466 h -18.38201 v 4.26812 h 15.22943 v 6.9357 h -15.76295 v 3.5891 h 18.91553 m 1.16404,-3.5406 c 2.81308,-0.0485 8.97275,0.0485 11.78583,0 1.40654,-0.0485 2.57057,-1.21254 3.34659,-2.32807 0.77602,-0.92152 0.97003,-1.98855 1.06703,-3.29809 0.0485,-1.89155 0,-3.7346 0.0485,-5.62616 h 2.71608 v 7.56621 c 0,1.98856 -0.67902,3.5406 -1.98856,4.99564 -0.43651,0.67902 -1.60054,1.45504 -2.57057,1.89156 -0.72752,0.194 -1.50354,0.38801 -2.27956,0.33951 h -12.17384 z"
     id="path4"
     inkscape:connector-curvature="0"
     style="fill:#ea2c27" />
  <path
     d="m 210.50519,43.69972 h 11.05831 v 4.17112 h -11.05831 z m 22.69863,8.09973 h 16.10246 c 0.0485,-1.01853 0,-2.13406 0,-3.10409 h -1.98856 c 0.77602,-0.38801 1.35804,-1.21253 1.35804,-2.18256 0,-1.35804 -1.11553,-2.47357 -2.47357,-2.47357 -1.35804,0 -2.47357,1.11553 -2.47357,2.47357 0,0.97003 0.53351,1.79455 1.35804,2.18256 h -1.11553 c -0.38801,0 -0.33951,-1.06703 -1.11553,-1.06703 h -9.70028 v -3.88011 h -2.76457 c 0,3.5891 -0.0485,7.46921 0,11.05831 0,1.60055 1.40654,3.5406 2.57057,3.73461 h 16.29645 v -3.5891 l -14.4049,-0.0485 c -1.26103,-0.29101 -1.64905,-1.89156 -1.64905,-3.10409 z m 13.04687,-6.59619 c 0.72752,0 1.30954,0.58202 1.30954,1.30954 0,0.72752 -0.58202,1.30954 -1.30954,1.30954 -0.72752,0 -1.30954,-0.58202 -1.30954,-1.30954 0,-0.72752 0.63052,-1.30954 1.30954,-1.30954 z m 16.19945,2.42507 h -11.0098 v 3.88011 h 8.24523 v 3.4436 h -9.65177 v 3.5406 h 15.47193 v -3.5406 h -3.05559"
     id="path6"
     inkscape:connector-curvature="0"
     style="fill:#ea2c27" />
  <path
     d="m 263.61418,49.37438 h 18.13951 v 3.73461 h -18.13951 z"
     id="path8"
     inkscape:connector-curvature="0"
     style="fill:#ea2c27" />
  <circle
     cx="37.209831"
     cy="8.0997276"
     r="7.8572206"
     id="circle10"
     style="stroke:#000000;stroke-width:0.4850136" />
  <path
     d="m 26.103019,6.4506779 c 0.097,-0.33951 0.145505,-0.727521 0.145505,-1.115531 0,-2.764578 -2.231063,-4.99563998 -4.995641,-4.99563998 -2.231062,0 -4.122615,1.45503998 -4.753133,3.44359598 L 0.49430159,52.91498 c -0.2425068,0.48501 -0.3395095,1.06703 -0.3395095,1.69755 0,2.76458 2.23106251,4.99564 4.99564001,4.99564 2.2310626,0 4.1226156,-1.45504 4.7531333,-3.4436 z"
     id="path12"
     inkscape:connector-curvature="0"
     style="stroke:#000000;stroke-width:0.30958417" />
  <circle
     cx="31.195663"
     cy="26.481739"
     r="7.8572206"
     id="circle14"
     style="stroke:#000000;stroke-width:0.4850136" />
  <circle
     cx="71.791298"
     cy="8.0997276"
     r="7.8572206"
     id="circle16"
     style="stroke:#000000;stroke-width:0.4850136" />
  <path
     d="m 60.684489,6.4506779 c 0.097,-0.33951 0.145504,-0.727521 0.145504,-1.115531 0,-2.764578 -2.231063,-4.99563998 -4.99564,-4.99563998 -2.231063,0 -4.122616,1.45503998 -4.753133,3.44359598 L 35.075771,52.91498 c -0.194005,0.53352 -0.291008,1.11553 -0.291008,1.69755 0,2.76458 2.231062,4.99564 4.99564,4.99564 2.231062,0 4.122615,-1.45504 4.753133,-3.4436 z"
     id="path18"
     inkscape:connector-curvature="0"
     style="stroke:#000000;stroke-width:0.30958417" />
  <circle
     cx="65.777138"
     cy="26.481739"
     r="7.8572206"
     id="circle20"
     style="stroke:#000000;stroke-width:0.4850136" />
</svg>
