<?xml version="1.0" encoding="UTF-8" standalone="no"?>
<svg
   xmlns:dc="http://purl.org/dc/elements/1.1/"
   xmlns:cc="http://creativecommons.org/ns#"
   xmlns:rdf="http://www.w3.org/1999/02/22-rdf-syntax-ns#"
   xmlns:svg="http://www.w3.org/2000/svg"
   xmlns="http://www.w3.org/2000/svg"
   xmlns:xlink="http://www.w3.org/1999/xlink"
   xmlns:sodipodi="http://sodipodi.sourceforge.net/DTD/sodipodi-0.dtd"
   xmlns:inkscape="http://www.inkscape.org/namespaces/inkscape"
   viewBox="0 0 489.244 500.07299"
   version="1.1"
   id="svg402"
   sodipodi:docname="console.svg"
   width="489.24399"
   height="500.073"
   inkscape:version="0.92.4 5da689c313, 2019-01-14">
  <metadata
     id="metadata406">
    <rdf:RDF>
      <cc:Work
         rdf:about="">
        <dc:format>image/svg+xml</dc:format>
        <dc:type
           rdf:resource="http://purl.org/dc/dcmitype/StillImage" />
      </cc:Work>
    </rdf:RDF>
  </metadata>
  <sodipodi:namedview
     pagecolor="#ffffff"
     bordercolor="#666666"
     borderopacity="1"
     objecttolerance="10"
     gridtolerance="10"
     guidetolerance="10"
     inkscape:pageopacity="0"
     inkscape:pageshadow="2"
     inkscape:window-width="640"
     inkscape:window-height="480"
     id="namedview404"
     showgrid="false"
     inkscape:zoom="0.47193015"
     inkscape:cx="244.62199"
     inkscape:cy="250.036"
     inkscape:window-x="0"
     inkscape:window-y="0"
     inkscape:window-maximized="0"
     inkscape:current-layer="svg402">
    <inkscape:grid
       type="xygrid"
       id="grid1213"
       originx="0"
       originy="-0.0010051269" />
  </sodipodi:namedview>
  <path
     d="m 440.586,267.742 h 41.662 c 0,0 0.073,32.129 0.073,50.329 0,18.2 0.236,161.618 0.236,161.618 0,10.473 -8.433,18.994 -18.906,19.101 -39.693,0.407 -134.994,1.283 -219.03,1.283 -84.036,0 -179.337,-0.876 -219.03,-1.283 -10.473,-0.107 -18.906,-8.628 -18.906,-19.101 0,0 0.236,-143.418 0.236,-161.618 0,-18.2 0.074,-50.329 0.074,-50.329 h 41.662"
     id="path2"
     inkscape:connector-curvature="0"
     style="fill:#369ccd" />
  <path
     d="m 244.462,498.304 219.068,-1.151 c 9.204,-0.048 16.639,-7.523 16.639,-16.727 V 388.854 L 479.68,271.567 a 1.579,1.579 0 0 0 -1.579,-1.572 h -37.676 l -2.043,1.114 h -62.958 l -1.486,0.743 v 217.265 c 0,1.682 -0.593,3.335 -1.758,4.548 -0.568,0.592 -1.239,1.047 -1.957,1.047 l -125.763,-0.743 -125.763,0.743 c -0.718,0 -1.388,-0.455 -1.957,-1.047 -1.165,-1.213 -1.758,-2.866 -1.758,-4.548 V 271.854 l -1.486,-0.743 H 50.541 l -2.043,-1.114 H 10.822 a 1.58,1.58 0 0 0 -1.579,1.572 L 8.755,388.855 v 91.572 c 0,9.204 7.435,16.678 16.639,16.727 z"
     id="path4"
     inkscape:connector-curvature="0"
     style="fill:#9bddf8" />
  <path
     d="M 244.622,497.721 463.69,496.57 c 9.204,-0.048 16.639,-7.523 16.639,-16.727 V 388.271 L 479.84,270.984 a 1.579,1.579 0 0 0 -1.579,-1.572 h -37.676 l -2.043,1.114 h -62.958 l -1.486,0.743 v 217.265 c 0,1.682 -0.593,3.335 -1.758,4.548 -0.568,0.591 -1.239,1.047 -1.957,1.047 l -125.763,-0.743 -125.763,0.743 c -0.718,0 -1.388,-0.455 -1.957,-1.047 -1.165,-1.213 -1.758,-2.867 -1.758,-4.548 V 271.271 l -1.486,-0.743 H 50.701 l -2.043,-1.114 H 10.982 a 1.58,1.58 0 0 0 -1.579,1.572 L 8.914,388.272 v 91.572 c 0,9.204 7.435,16.678 16.639,16.727 z"
     id="path6"
     inkscape:connector-curvature="0"
     style="fill:#1f8abe" />
  <circle
     cx="397.92899"
     cy="342.46201"
     r="14.114"
     id="circle8"
     style="fill:#050d24" />
  <circle
     cx="397.92899"
     cy="342.46201"
     r="12.731"
     id="circle10"
     style="fill:#204861" />
  <linearGradient
     id="a"
     gradientUnits="userSpaceOnUse"
     x1="404.61499"
     y1="349.14801"
     x2="390.62799"
     y2="335.16101">
    <stop
       offset="0"
       stop-color="#1f8abe"
       id="stop12" />
    <stop
       offset="1"
       stop-color="#38abce"
       id="stop14" />
  </linearGradient>
  <circle
     cx="397.92899"
     cy="342.46201"
     r="10.86"
     id="circle17"
     style="fill:url(#a)" />
  <path
     d="m 388.341,345.097 c 0,-7.091 5.749,-12.84 12.84,-12.84 0.171,0 0.337,0.019 0.506,0.026 a 10.81,10.81 0 0 0 -3.757,-0.681 c -5.998,0 -10.86,4.862 -10.86,10.86 0,2.125 0.62,4.101 1.675,5.776 a 12.76,12.76 0 0 1 -0.404,-3.141 z"
     id="path19"
     inkscape:connector-curvature="0"
     style="fill:#b8ffff" />
  <circle
     cx="425.332"
     cy="315.245"
     r="14.114"
     id="circle21"
     style="fill:#050d24" />
  <circle
     cx="425.332"
     cy="315.245"
     r="12.731"
     id="circle23"
     style="fill:#204861" />
  <linearGradient
     id="b"
     gradientUnits="userSpaceOnUse"
     x1="430.811"
     y1="320.72299"
     x2="418.16101"
     y2="308.073">
    <stop
       offset="0"
       stop-color="#1f8abe"
       id="stop25" />
    <stop
       offset="1"
       stop-color="#38abce"
       id="stop27" />
  </linearGradient>
  <circle
     cx="425.332"
     cy="315.245"
     r="10.86"
     id="circle30"
     style="fill:url(#b)" />
  <path
     d="m 415.744,317.88 c 0,-7.091 5.749,-12.84 12.84,-12.84 0.171,0 0.337,0.019 0.506,0.026 a 10.81,10.81 0 0 0 -3.757,-0.681 c -5.998,0 -10.86,4.862 -10.86,10.86 0,2.125 0.62,4.101 1.675,5.776 a 12.76,12.76 0 0 1 -0.404,-3.141 z"
     id="path32"
     inkscape:connector-curvature="0"
     style="fill:#b8ffff" />
  <circle
     cx="425.332"
     cy="369.103"
     r="14.114"
     id="circle34"
     style="fill:#050d24" />
  <circle
     cx="425.332"
     cy="369.103"
     r="12.731"
     id="circle36"
     style="fill:#204861" />
  <linearGradient
     id="c"
     gradientUnits="userSpaceOnUse"
     x1="433.59698"
     y1="377.367"
     x2="419.849"
     y2="363.61899">
    <stop
       offset="0"
       stop-color="#1f8abe"
       id="stop38" />
    <stop
       offset="1"
       stop-color="#38abce"
       id="stop40" />
  </linearGradient>
  <circle
     cx="425.332"
     cy="369.103"
     r="10.86"
     id="circle43"
     style="fill:url(#c)" />
  <path
     d="m 415.744,371.738 c 0,-7.091 5.749,-12.84 12.84,-12.84 0.171,0 0.337,0.019 0.506,0.026 a 10.81,10.81 0 0 0 -3.757,-0.681 c -5.998,0 -10.86,4.862 -10.86,10.86 0,2.125 0.62,4.101 1.675,5.776 a 12.765,12.765 0 0 1 -0.404,-3.141 z"
     id="path45"
     inkscape:connector-curvature="0"
     style="fill:#b8ffff" />
  <circle
     cx="452.90201"
     cy="342.46201"
     r="14.114"
     id="circle47"
     style="fill:#050d24" />
  <circle
     cx="452.90201"
     cy="342.46201"
     r="12.731"
     id="circle49"
     style="fill:#204861" />
  <linearGradient
     id="d"
     gradientUnits="userSpaceOnUse"
     x1="459.216"
     y1="348.776"
     x2="444.612"
     y2="334.172">
    <stop
       offset="0"
       stop-color="#1f8abe"
       id="stop51" />
    <stop
       offset="1"
       stop-color="#38abce"
       id="stop53" />
  </linearGradient>
  <circle
     cx="452.90201"
     cy="342.46201"
     r="10.86"
     id="circle56"
     style="fill:url(#d)" />
  <path
     d="m 443.313,345.097 c 0,-7.091 5.749,-12.84 12.84,-12.84 0.171,0 0.337,0.019 0.506,0.026 a 10.81,10.81 0 0 0 -3.757,-0.681 c -5.998,0 -10.86,4.862 -10.86,10.86 0,2.125 0.62,4.101 1.675,5.776 a 12.807,12.807 0 0 1 -0.404,-3.141 z"
     id="path58"
     inkscape:connector-curvature="0"
     style="fill:#b8ffff" />
  <path
     d="m 244.751,4.706 228.656,5.425 11.616,9.789 1.935,214.939 a 3.329,3.329 0 0 1 -3.323,3.359 L 5.811,239.092 A 3.33,3.33 0 0 1 2.477,235.66 L 9.224,16.949 24.621,7.693 Z"
     id="path60"
     inkscape:connector-curvature="0"
     style="fill:#1b1c1b" />
  <g
     id="g72"
     style="fill:#474747">
    <circle
       cx="53.484001"
       cy="109.096"
       r="1.857"
       id="circle62" />
    <circle
       cx="53.484001"
       cy="120.796"
       r="1.857"
       id="circle64" />
    <circle
       cx="53.484001"
       cy="132.49699"
       r="1.857"
       id="circle66" />
    <circle
       cx="65.183998"
       cy="120.796"
       r="1.857"
       id="circle68" />
    <circle
       cx="41.783001"
       cy="120.796"
       r="1.857"
       id="circle70" />
  </g>
  <g
     id="g84"
     style="fill:#383838">
    <circle
       cx="435.04401"
       cy="109.096"
       r="1.857"
       id="circle74" />
    <circle
       cx="435.04401"
       cy="120.796"
       r="1.857"
       id="circle76" />
    <circle
       cx="435.04401"
       cy="132.49699"
       r="1.857"
       id="circle78" />
    <circle
       cx="423.34399"
       cy="120.796"
       r="1.857"
       id="circle80" />
    <circle
       cx="446.74399"
       cy="120.796"
       r="1.857"
       id="circle82" />
  </g>
  <linearGradient
     id="e"
     gradientUnits="userSpaceOnUse"
     x1="242.55"
     y1="21.551001"
     x2="249.849"
     y2="31.075001">
    <stop
       offset="0"
       stop-color="#1c1c1c"
       id="stop86" />
    <stop
       offset="1"
       stop-color="#2c3332"
       id="stop88" />
  </linearGradient>
  <circle
     cx="244.526"
     cy="24.129"
     r="7.8559999"
     id="circle91"
     style="fill:url(#e)" />
  <circle
     cx="244.62199"
     cy="24.267"
     r="7.4380002"
     id="circle93"
     style="fill:#202423" />
  <linearGradient
     id="f"
     gradientUnits="userSpaceOnUse"
     x1="242.787"
     y1="20.636999"
     x2="246.79201"
     y2="28.559">
    <stop
       offset="0"
       stop-color="#1c1c1c"
       id="stop95" />
    <stop
       offset="1"
       stop-color="#2c3332"
       id="stop97" />
  </linearGradient>
  <circle
     cx="244.62199"
     cy="24.267"
     r="5.0910001"
     id="circle100"
     style="fill:url(#f)" />
  <circle
     cx="244.62199"
     cy="24.267"
     r="4.5580001"
     id="circle102"
     style="fill:#1d1f1f" />
  <circle
     cx="244.62199"
     cy="24.267"
     r="0.86400002"
     id="circle104"
     style="fill:#14100d" />
  <g
     id="g116"
     style="fill:#14100d">
    <circle
       cx="53.300999"
       cy="108.768"
       r="1.857"
       id="circle106" />
    <circle
       cx="53.300999"
       cy="120.468"
       r="1.857"
       id="circle108" />
    <circle
       cx="53.300999"
       cy="132.16901"
       r="1.857"
       id="circle110" />
    <circle
       cx="65.000999"
       cy="120.468"
       r="1.857"
       id="circle112" />
    <circle
       cx="41.601002"
       cy="120.468"
       r="1.857"
       id="circle114" />
  </g>
  <g
     id="g128"
     style="fill:#14100d">
    <circle
       cx="434.86099"
       cy="108.768"
       r="1.857"
       id="circle118" />
    <circle
       cx="434.86099"
       cy="120.468"
       r="1.857"
       id="circle120" />
    <circle
       cx="434.86099"
       cy="132.16901"
       r="1.857"
       id="circle122" />
    <circle
       cx="423.16101"
       cy="120.468"
       r="1.857"
       id="circle124" />
    <circle
       cx="446.56201"
       cy="120.468"
       r="1.857"
       id="circle126" />
  </g>
  <path
     d="m 10.689,60.544 1.49,-0.568 a 3.245,3.245 0 0 0 2.085,-3.034 V 30.469 c 0,-1.348 -0.83,-2.556 -2.085,-3.034 l -1.49,-0.568 z m 467.865,0 -1.49,-0.568 a 3.245,3.245 0 0 1 -2.085,-3.034 V 30.469 c 0,-1.348 0.83,-2.556 2.085,-3.034 l 1.49,-0.568 z"
     id="path130"
     inkscape:connector-curvature="0"
     style="fill:#383838" />
  <path
     d="m 9.657,60.544 1.496,-0.568 a 3.244,3.244 0 0 0 2.094,-3.034 V 30.469 A 3.246,3.246 0 0 0 11.153,27.435 L 9.657,26.867 Z"
     id="path132"
     inkscape:connector-curvature="0"
     style="fill:#1a1c1b" />
  <path
     d="m 479.586,60.544 -1.496,-0.568 a 3.244,3.244 0 0 1 -2.094,-3.034 V 30.469 c 0,-1.348 0.834,-2.556 2.094,-3.034 l 1.496,-0.568 z"
     id="path134"
     inkscape:connector-curvature="0"
     style="fill:#141414" />
  <path
     d="M 244.622,226.077 H 385.05 a 2.792,2.792 0 0 0 2.792,-2.792 V 53.431 A 2.792,2.792 0 0 0 385.05,50.639 H 104.194 a 2.792,2.792 0 0 0 -2.792,2.792 v 169.854 a 2.792,2.792 0 0 0 2.792,2.792 z"
     id="path136"
     inkscape:connector-curvature="0"
     style="fill:#14100d" />
  <path
     d="m 244.622,222.363 h 138.942 a 0.192,0.192 0 0 0 0.192,-0.192 V 54.545 a 0.192,0.192 0 0 0 -0.192,-0.192 H 105.679 a 0.192,0.192 0 0 0 -0.192,0.192 V 222.17 c 0,0.106 0.086,0.192 0.192,0.192 h 138.943 z"
     id="path138"
     inkscape:connector-curvature="0"
     style="fill:#212121" />
  <path
     d="m 468.903,265.811 0.41,-1.929 h -9.23 V 235.737 H 28.229 v 28.145 h -8.298 l 0.41,1.929 -16.503,-0.092 5.36,4.226 h 41.276 v -0.036 h 1.94 l 0.04,0.46 c 0.06,0.696 0.643,1.23 1.343,1.23 h 381.65 c 0.7,0 1.283,-0.534 1.343,-1.23 l 0.04,-0.46 h 1.94 v 0.036 h 41.276 l 5.492,-4.226 z"
     id="path140"
     inkscape:connector-curvature="0"
     style="fill:#0a304c" />
  <path
     d="m 477.235,231.527 h -40.309 c -0.748,0 -1.354,0.606 -1.354,1.354 v 0.506 a 0.372,0.372 0 0 1 -0.369,0.371 l -190.581,0.241 -190.581,-0.241 a 0.371,0.371 0 0 1 -0.369,-0.371 v -0.506 c 0,-0.748 -0.606,-1.354 -1.354,-1.354 H 12.009 a 0.37,0.37 0 0 0 -0.37,0.37 v 2.473 c 0,0.205 0.166,0.37 0.37,0.37 h 37.875 a 0.37,0.37 0 0 1 0.37,0.383 l -0.705,20.211 h 390.146 l -0.705,-20.211 a 0.37,0.37 0 0 1 0.37,-0.383 h 37.875 a 0.37,0.37 0 0 0 0.37,-0.37 v -2.473 a 0.37,0.37 0 0 0 -0.37,-0.37 z"
     id="path142"
     inkscape:connector-curvature="0"
     style="fill:#17668e" />
  <path
     d="m 438.004,244.872 0.539,8.942 H 50.701 l 0.582,-9.656 c -0.001,-10e-4 386.721,-0.799 386.721,0.714 z"
     id="path144"
     inkscape:connector-curvature="0"
     style="fill:#57a9d0" />
  <circle
     cx="63.596001"
     cy="334.22699"
     r="46.800999"
     id="circle146"
     style="fill:#23537f" />
  <linearGradient
     id="g"
     gradientUnits="userSpaceOnUse"
     x1="46.821999"
     y1="314.28699"
     x2="89.413002"
     y2="363.31601">
    <stop
       offset="0"
       stop-color="#1a75a1"
       id="stop148" />
    <stop
       offset="1"
       stop-color="#499fc9"
       id="stop150" />
  </linearGradient>
  <circle
     cx="64.628998"
     cy="334.78601"
     r="46.800999"
     id="circle153"
     style="fill:url(#g)" />
  <linearGradient
     id="h"
     gradientUnits="userSpaceOnUse"
     x1="89.786003"
     y1="312.104"
     x2="29.365999"
     y2="366.58099">
    <stop
       offset="0"
       stop-color="#1f8abe"
       id="stop155" />
    <stop
       offset=".478"
       stop-color="#81c8eb"
       id="stop157" />
    <stop
       offset="1"
       stop-color="#1f8abe"
       id="stop159" />
  </linearGradient>
  <circle
     cx="64.628998"
     cy="334.78601"
     r="43.085999"
     id="circle162"
     style="fill:url(#h)" />
  <circle
     cx="64.628998"
     cy="334.78601"
     r="38.312"
     id="circle164"
     style="fill:#136697" />
  <circle
     cx="65.372002"
     cy="335.52899"
     r="37.348"
     id="circle166"
     style="fill:#1f8abe" />
  <circle
     cx="67.986"
     cy="338.88501"
     r="28.242001"
     id="circle168"
     style="fill:#255373" />
  <linearGradient
     id="i"
     gradientUnits="userSpaceOnUse"
     x1="77.837997"
     y1="356.21899"
     x2="51.59"
     y2="313.62799">
    <stop
       offset="0"
       stop-color="#787878"
       id="stop170" />
    <stop
       offset="1"
       stop-color="#bfbfbf"
       id="stop172" />
  </linearGradient>
  <circle
     cx="64.628998"
     cy="334.78601"
     r="27.115"
     id="circle175"
     style="fill:url(#i)" />
  <linearGradient
     id="j"
     gradientUnits="userSpaceOnUse"
     x1="77.537003"
     y1="349.97101"
     x2="52.036999"
     y2="319.97101">
    <stop
       offset="0"
       stop-color="#8c8c8c"
       id="stop177" />
    <stop
       offset="1"
       stop-color="#c4c4c4"
       id="stop179" />
  </linearGradient>
  <circle
     cx="64.628998"
     cy="334.78601"
     r="25.474001"
     id="circle182"
     style="fill:url(#j)" />
  <linearGradient
     id="k"
     gradientUnits="userSpaceOnUse"
     x1="54.511002"
     y1="320.75601"
     x2="72.360001"
     y2="345.504">
    <stop
       offset="0"
       stop-color="#919191"
       id="stop184" />
    <stop
       offset="1"
       stop-color="#bfbfbf"
       id="stop186" />
  </linearGradient>
  <circle
     cx="64.628998"
     cy="334.78601"
     r="21.172001"
     id="circle189"
     style="fill:url(#k)" />
  <path
     d="M 94.508,413.514 H 76.289 c -0.73,0 -1.322,-0.592 -1.322,-1.322 v -18.219 c 0,-0.559 -0.453,-1.012 -1.012,-1.012 H 53.942 c -0.559,0 -1.012,0.453 -1.012,1.012 v 18.219 c 0,0.73 -0.592,1.322 -1.322,1.322 H 33.389 c -0.559,0 -1.012,0.453 -1.012,1.012 v 20.014 c 0,0.559 0.453,1.012 1.012,1.012 h 18.219 c 0.73,0 1.322,0.592 1.322,1.322 v 18.219 c 0,0.559 0.453,1.012 1.012,1.012 h 20.014 c 0.559,0 1.012,-0.453 1.012,-1.012 v -18.219 c 0,-0.73 0.592,-1.322 1.322,-1.322 h 18.219 c 0.559,0 1.012,-0.453 1.012,-1.012 v -20.014 a 1.013,1.013 0 0 0 -1.013,-1.012 z"
     id="path191"
     inkscape:connector-curvature="0"
     style="fill:#14100d" />
  <path
     d="M 93.444,415 H 74.382 a 0.9,0.9 0 0 1 -0.9,-0.9 v -19.062 a 0.59,0.59 0 0 0 -0.591,-0.591 H 55.006 a 0.59,0.59 0 0 0 -0.591,0.591 V 414.1 a 0.9,0.9 0 0 1 -0.9,0.9 H 34.453 a 0.59,0.59 0 0 0 -0.591,0.591 v 17.886 a 0.59,0.59 0 0 0 0.591,0.591 h 19.062 a 0.9,0.9 0 0 1 0.9,0.9 v 19.062 a 0.59,0.59 0 0 0 0.591,0.591 h 17.886 a 0.59,0.59 0 0 0 0.591,-0.591 v -19.062 a 0.9,0.9 0 0 1 0.9,-0.9 h 19.062 a 0.59,0.59 0 0 0 0.591,-0.591 V 415.59 A 0.592,0.592 0 0 0 93.444,415 Z"
     id="path193"
     inkscape:connector-curvature="0"
     style="fill:#78bddb" />
  <defs
     id="defs196">
    <path
       id="l"
       d="m 94.035,433.476 a 0.59,0.59 0 0 1 -0.591,0.591 H 74.382 a 0.9,0.9 0 0 0 -0.9,0.9 v 19.062 a 0.59,0.59 0 0 1 -0.591,0.591 H 55.006 a 0.59,0.59 0 0 1 -0.591,-0.591 v -19.062 a 0.9,0.9 0 0 0 -0.9,-0.9 H 34.453 a 0.59,0.59 0 0 1 -0.591,-0.591 V 415.59 a 0.59,0.59 0 0 1 0.591,-0.591 h 19.062 a 0.9,0.9 0 0 0 0.9,-0.9 v -19.062 a 0.59,0.59 0 0 1 0.591,-0.591 h 17.886 a 0.59,0.59 0 0 1 0.591,0.591 V 414.1 a 0.9,0.9 0 0 0 0.9,0.9 h 19.203 a 0.45,0.45 0 0 1 0.45,0.45 v 18.026 z"
       inkscape:connector-curvature="0" />
  </defs>
  <use
     xlink:href="#l"
     overflow="visible"
     id="use198"
     style="overflow:visible;fill:#22698c"
     x="0"
     y="0"
     width="100%"
     height="100%" />
  <clipPath
     id="m">
    <use
       xlink:href="#l"
       overflow="visible"
       id="use200"
       style="overflow:visible"
       x="0"
       y="0"
       width="100%"
       height="100%" />
  </clipPath>
  <path
     clip-path="url(#m)"
     stroke-miterlimit="10"
     d="m 55.901,437.517 v 11.734 M 68.113,395.933 H 56.812 a 0.912,0.912 0 0 0 -0.912,0.912 v 18.42 c 0,0.674 -0.547,1.221 -1.221,1.221 H 36.26 a 0.912,0.912 0 0 0 -0.912,0.912 v 11.301 M 88.666,416.486 H 76.932"
     id="path203"
     inkscape:connector-curvature="0"
     style="fill:none;stroke:#b8ffff;stroke-width:7.4289999;stroke-linecap:round;stroke-linejoin:round;stroke-miterlimit:10" />
  <linearGradient
     id="n"
     gradientUnits="userSpaceOnUse"
     x1="47.629002"
     y1="402.01199"
     x2="72.390999"
     y2="436.18399">
    <stop
       offset="0"
       stop-color="#1f8abe"
       id="stop205" />
    <stop
       offset="1"
       stop-color="#38abce"
       id="stop207" />
  </linearGradient>
  <path
     d="m 91.637,416.486 h -18.42 a 1.221,1.221 0 0 1 -1.221,-1.221 v -18.42 a 0.912,0.912 0 0 0 -0.912,-0.912 H 56.812 a 0.912,0.912 0 0 0 -0.912,0.912 v 18.42 c 0,0.674 -0.547,1.221 -1.221,1.221 H 36.26 a 0.912,0.912 0 0 0 -0.912,0.912 v 14.272 c 0,0.504 0.408,0.912 0.912,0.912 h 18.42 c 0.674,0 1.221,0.547 1.221,1.221 v 18.42 c 0,0.504 0.408,0.912 0.912,0.912 h 14.272 a 0.912,0.912 0 0 0 0.912,-0.912 v -18.42 c 0,-0.674 0.547,-1.221 1.221,-1.221 h 18.42 a 0.912,0.912 0 0 0 0.912,-0.912 v -14.272 a 0.913,0.913 0 0 0 -0.913,-0.912 z"
     id="path210"
     inkscape:connector-curvature="0"
     style="fill:url(#n)" />
  <g
     id="g214"
     style="fill:#d0effe">
    <path
       d="m 63.949,412.586 a 0.681,0.681 0 0 1 -0.681,-0.681 v -10.772 a 0.681,0.681 0 0 1 1.362,0 v 10.772 a 0.682,0.682 0 0 1 -0.681,0.681 z m 0,23.895 a 0.681,0.681 0 0 0 -0.681,0.681 v 10.772 a 0.681,0.681 0 0 0 1.362,0 v -10.772 a 0.682,0.682 0 0 0 -0.681,-0.681 z m 11.947,-11.948 c 0,-0.376 0.305,-0.681 0.681,-0.681 h 10.772 a 0.681,0.681 0 0 1 0,1.362 H 76.577 a 0.68,0.68 0 0 1 -0.681,-0.681 z m -23.895,0 A 0.681,0.681 0 0 0 51.32,423.852 H 40.548 a 0.681,0.681 0 0 0 0,1.362 H 51.32 a 0.68,0.68 0 0 0 0.681,-0.681 z"
       id="path212"
       inkscape:connector-curvature="0" />
  </g>
  <path
     d="m 386.581,477.045 h 12.421 a 3.447,3.447 0 0 0 3.447,-3.447 v -12.421 a 3.447,3.447 0 0 0 -3.447,-3.447 h -12.421 a 3.447,3.447 0 0 0 -3.447,3.447 v 12.421 a 3.447,3.447 0 0 0 3.447,3.447 z"
     id="path216"
     inkscape:connector-curvature="0"
     style="fill:#00132d" />
  <path
     d="m 385.838,475.627 h 13.907 c 0.71,0 1.286,-0.576 1.286,-1.286 v -13.907 c 0,-0.71 -0.576,-1.286 -1.286,-1.286 h -13.907 c -0.71,0 -1.286,0.576 -1.286,1.286 v 13.907 c 0,0.71 0.576,1.286 1.286,1.286 z"
     id="path218"
     inkscape:connector-curvature="0"
     style="fill:#3c9fd5" />
  <path
     d="m 115.145,271.271 h 258.954 v 217.265 c 0,1.682 -0.593,3.335 -1.758,4.548 z"
     id="path220"
     inkscape:connector-curvature="0"
     style="fill:#23537f" />
  <path
     d="m 121.065,496.329 123.557,0.649 123.35,-0.656 c 0.304,-0.002 3.188,-0.994 4.37,-2.661 1.182,-1.667 1.573,-4.313 1.758,-5.341 l -255.649,5.65 c -10e-4,1.798 2.319,2.358 2.614,2.359 z"
     id="path222"
     inkscape:connector-curvature="0"
     style="fill:#23537f" />
  <path
     d="M 363.481,494.131 H 118.859 c -0.718,0 -1.388,-0.455 -1.957,-1.047 -1.165,-1.213 -1.758,-2.867 -1.758,-4.548 V 271.271 l 255.655,219.027 c 0,0 -0.878,3.833 -7.318,3.833 z"
     id="path224"
     inkscape:connector-curvature="0"
     style="fill:#50abd5" />
  <path
     d="m 244.622,493.388 h 120.835 a 6.166,6.166 0 0 0 6.166,-6.166 V 274.923 a 2.29,2.29 0 0 0 -2.29,-2.29 H 119.911 a 2.29,2.29 0 0 0 -2.291,2.29 v 212.299 a 6.166,6.166 0 0 0 6.166,6.166 z"
     id="path226"
     inkscape:connector-curvature="0"
     style="fill:#1f8abe" />
  <path
     d="M 365.629,275.356 H 123.615 c -0.986,0 -1.785,0.799 -1.785,1.785 V 464.788 H 367.413 V 277.141 c 0,-0.986 -0.799,-1.785 -1.784,-1.785 z"
     id="path228"
     inkscape:connector-curvature="0"
     style="fill:#268fc3" />
  <path
     d="M 367.599,464.973 H 121.645 V 277.141 c 0,-1.087 0.884,-1.97 1.97,-1.97 h 242.014 c 1.087,0 1.97,0.884 1.97,1.97 z M 122.016,464.602 H 367.228 V 277.141 c 0,-0.881 -0.717,-1.599 -1.599,-1.599 H 123.615 a 1.6,1.6 0 0 0 -1.599,1.599 z"
     id="path230"
     inkscape:connector-curvature="0"
     style="fill:#1e1e1e" />
  <path
     d="m 244.622,458.473 h 113.656 c 0.943,0 1.707,-0.764 1.707,-1.707 V 285.627 a 2.47,2.47 0 0 0 -2.47,-2.47 H 131.729 a 2.47,2.47 0 0 0 -2.47,2.47 v 171.139 c 0,0.943 0.764,1.707 1.707,1.707 z"
     id="path232"
     inkscape:connector-curvature="0"
     style="fill:#a6d2e8" />
  <path
     d="m 244.622,457.73 h 113.656 c 0.943,0 1.707,-0.764 1.707,-1.707 V 284.884 a 2.47,2.47 0 0 0 -2.47,-2.47 H 131.729 a 2.47,2.47 0 0 0 -2.47,2.47 v 171.139 c 0,0.943 0.764,1.707 1.707,1.707 z"
     id="path234"
     inkscape:connector-curvature="0"
     style="fill:#14100d" />
  <path
     d="M 244.622,453.134 H 355.899 V 286.499 H 133.345 v 166.635 z"
     id="path236"
     inkscape:connector-curvature="0"
     style="fill:#212121" />
  <path
     d="m 126.138,491.717 h 236.968 a 4.127,4.127 0 0 0 4.122,-4.122 V 464.974 H 122.016 v 22.621 a 4.127,4.127 0 0 0 4.122,4.122 z"
     id="path238"
     inkscape:connector-curvature="0"
     style="fill:#2088bd" />
  <path
     d="m 126.138,491.717 h 236.968 a 4.127,4.127 0 0 0 4.122,-4.122 V 464.974 H 122.016 v 22.621 a 4.127,4.127 0 0 0 4.122,4.122 z"
     id="path240"
     inkscape:connector-curvature="0"
     style="fill:#2088bd" />
  <path
     d="m 121.645,464.602 v 22.993 a 4.499,4.499 0 0 0 4.493,4.493 h 236.968 a 4.499,4.499 0 0 0 4.493,-4.493 v -22.993 z m 245.768,0.557 v 22.435 a 4.308,4.308 0 0 1 -4.308,4.308 H 126.138 a 4.308,4.308 0 0 1 -4.308,-4.308 v -22.807 h 245.583 z"
     id="path242"
     inkscape:connector-curvature="0"
     style="fill:#1e1e1e" />
  <path
     d="m 121.83,465.159 v 22.435 a 4.308,4.308 0 0 0 4.308,4.308 h 236.968 a 4.308,4.308 0 0 0 4.308,-4.308 V 464.787 H 121.83 Z m 0.186,-0.186 h 245.212 v 22.621 a 4.127,4.127 0 0 1 -4.122,4.122 H 126.138 a 4.127,4.127 0 0 1 -4.122,-4.122 z"
     id="path244"
     inkscape:connector-curvature="0"
     style="fill:#1e1e1e" />
  <linearGradient
     id="o"
     gradientUnits="userSpaceOnUse"
     x1="168.25999"
     y1="481.37799"
     x2="168.25999"
     y2="474.771">
    <stop
       offset="0"
       stop-color="#1f8abe"
       id="stop246" />
    <stop
       offset="1"
       stop-color="#38abce"
       id="stop248" />
  </linearGradient>
  <path
     stroke-miterlimit="10"
     d="m 143.745,473.648 h 49.029 v 10.825 h -49.029 z"
     id="path251"
     inkscape:connector-curvature="0"
     style="fill:url(#o);stroke:#136b96;stroke-width:0.59399998;stroke-miterlimit:10" />
  <linearGradient
     id="p"
     gradientUnits="userSpaceOnUse"
     x1="244.46201"
     y1="481.37799"
     x2="244.46201"
     y2="474.771">
    <stop
       offset="0"
       stop-color="#1f8abe"
       id="stop253" />
    <stop
       offset="1"
       stop-color="#38abce"
       id="stop255" />
  </linearGradient>
  <path
     stroke-miterlimit="10"
     d="m 219.947,473.648 h 49.029 v 10.825 h -49.029 z"
     id="path258"
     inkscape:connector-curvature="0"
     style="fill:url(#p);stroke:#136b96;stroke-width:0.59399998;stroke-miterlimit:10" />
  <linearGradient
     id="q"
     gradientUnits="userSpaceOnUse"
     x1="320.98401"
     y1="481.37799"
     x2="320.98401"
     y2="474.771">
    <stop
       offset="0"
       stop-color="#1f8abe"
       id="stop260" />
    <stop
       offset="1"
       stop-color="#38abce"
       id="stop262" />
  </linearGradient>
  <path
     stroke-miterlimit="10"
     d="m 296.47,473.648 h 49.029 v 10.825 H 296.47 Z"
     id="path265"
     inkscape:connector-curvature="0"
     style="fill:url(#q);stroke:#136b96;stroke-width:0.59399998;stroke-miterlimit:10" />
  <path
     d="m 48.632,263.718 -0.098,-15.353 0.99,-11.024 -27.167,-0.065 C 8.863,237.244 0,247.244 0,259.58 v 3.891 l 48.632,0.247"
     id="path267"
     inkscape:connector-curvature="0"
     style="fill:#40a6d6" />
  <path
     d="m 48.632,263.718 0.026,4.024 H 6.995 L 0,263.47 l 48.632,0.248"
     id="path269"
     inkscape:connector-curvature="0"
     style="fill:#1a5d88" />
  <path
     d="m 17.829,261.613 h 30.79 l 0.039,6.129 H 19.129 Z"
     id="path271"
     inkscape:connector-curvature="0"
     style="fill:#0d79ad" />
  <path
     d="m 17.829,260.87 v -8.391 a 3.824,3.824 0 0 1 3.678,-3.821 l 27.028,-1.035 0.085,13.248 H 17.829 Z"
     id="path273"
     inkscape:connector-curvature="0"
     style="fill:#a0e1f1" />
  <path
     d="m 17.829,261.613 v -8.391 a 3.824,3.824 0 0 1 3.678,-3.821 l 27.028,-1.035 0.085,13.248 H 17.829 Z"
     id="path275"
     inkscape:connector-curvature="0"
     style="fill:#14699d" />
  <path
     d="m 440.612,263.718 0.098,-15.353 -0.99,-11.024 27.167,-0.065 c 13.494,-0.032 22.357,9.967 22.357,22.303 v 3.891 l -48.632,0.248"
     id="path277"
     inkscape:connector-curvature="0"
     style="fill:#40a6d6" />
  <path
     d="m 440.612,263.718 -0.026,4.024 h 41.662 l 6.996,-4.272 -48.632,0.248"
     id="path279"
     inkscape:connector-curvature="0"
     style="fill:#1a5d88" />
  <path
     d="m 471.415,261.613 h -30.79 l -0.039,6.129 h 29.529 z"
     id="path281"
     inkscape:connector-curvature="0"
     style="fill:#0d79ad" />
  <path
     d="m 471.415,260.87 v -8.391 a 3.824,3.824 0 0 0 -3.678,-3.821 l -27.028,-1.035 -0.085,13.248 h 30.791 z"
     id="path283"
     inkscape:connector-curvature="0"
     style="fill:#a0e1f1" />
  <path
     d="m 471.415,261.613 v -8.391 a 3.824,3.824 0 0 0 -3.678,-3.821 l -27.028,-1.035 -0.085,13.248 h 30.791 z"
     id="path285"
     inkscape:connector-curvature="0"
     style="fill:#14699d" />
  <path
     d="M 6.941,297.132 H 6.407 v 5.432 H 5.59 a 0.483,0.483 0 0 0 -0.483,0.483 v 2.006 c 0,0.267 0.216,0.483 0.483,0.483 h 0.817 v 5.711 h 0.517 z"
     id="path287"
     inkscape:connector-curvature="0"
     style="fill:#9dd1eb" />
  <path
     d="m 482.682,145.436 h 3.315 v 50.186 h -3.315 z"
     id="path289"
     inkscape:connector-curvature="0"
     style="fill:#4ea9d0" />
  <path
     d="m 483.768,145.436 h 2.009 v 50.186 h -2.009 z"
     id="path291"
     inkscape:connector-curvature="0"
     style="fill:#1d3d51" />
  <path
     d="m 485.254,145.436 h 2.009 v 50.186 h -2.009 z"
     id="path293"
     inkscape:connector-curvature="0"
     style="fill:#1a7292" />
  <path
     d="m 468.376,157.563 h 4.361 v 26.042 z"
     id="path295"
     inkscape:connector-curvature="0"
     style="fill:#aeafaf" />
  <g
     id="g319">
    <path
       d="m 482.138,145.436 h 5.125 V 24.762 C 487.263,13.001 476.243,1.981 464.482,1.981 452.934,1.877 350.334,0.325 244.622,0 138.91,0.325 36.31,1.877 24.762,1.981 13.001,1.981 1.981,13.001 1.981,24.762 v 209.979 a 1.49,1.49 0 0 0 1.491,1.491 H 9.658 V 236.17 H 6.024 V 25.11 c 0,-9.529 8.399,-18.032 17.927,-18.161 l 220.13,-2.987 220.13,2.987 c 9.528,0.129 17.927,8.632 17.927,18.161 v 120.326"
       id="path297"
       inkscape:connector-curvature="0"
       style="fill:#1a7292" />
    <path
       d="M 482.138,144.693 V 24.367 c 0,-9.529 -8.399,-18.032 -17.927,-18.161 0,0 -124.653,-3.73 -220.13,-3.73 -95.477,0 -220.13,3.73 -220.13,3.73 C 14.423,6.335 6.024,14.838 6.024,24.367 v 211.06 H 9.657 V 25.753 c 0,-8.205 8.282,-15.6 14.857,-15.6 h 440.214 c 6.576,0 14.857,7.395 14.857,15.6 v 118.94 z"
       id="path299"
       inkscape:connector-curvature="0"
       style="fill:#93cbe1" />
    <path
       d="M 482.138,145.436 V 25.11 c 0,-9.529 -8.399,-18.032 -17.927,-18.161 L 244.081,3.962 23.951,6.949 C 14.423,7.078 6.024,15.581 6.024,25.11 V 236.17 H 9.657 V 26.496 c 0,-8.205 8.282,-15.6 14.857,-15.6 h 440.214 c 6.576,0 14.857,7.395 14.857,15.6 v 118.94 z"
       id="path301"
       inkscape:connector-curvature="0"
       style="fill:#409fcb" />
    <path
       d="m 486.81,145.105 h -5.803 v 21.805 h 5.803 c 0.272,0 0.492,-0.22 0.492,-0.492 v -20.821 a 0.492,0.492 0 0 0 -0.492,-0.492 z"
       id="path303"
       inkscape:connector-curvature="0"
       style="fill:#a8a8b4" />
    <path
       d="m 487.449,145.105 h -0.422 v 21.805 h 0.422 c 0.055,0 0.099,-0.22 0.099,-0.492 v -20.821 c 0,-0.272 -0.044,-0.492 -0.099,-0.492 z"
       id="path305"
       inkscape:connector-curvature="0"
       style="fill:#545c67" />
    <path
       d="m 481.007,145.105 h 2.333 v 21.805 h -2.333 z"
       id="path307"
       inkscape:connector-curvature="0"
       style="fill:#d1ced5" />
    <path
       d="m 481.007,145.105 -1.741,0.629 a 0.479,0.479 0 0 0 -0.316,0.45 v 19.647 c 0,0.202 0.126,0.382 0.316,0.45 l 1.741,0.629 z"
       id="path309"
       inkscape:connector-curvature="0"
       style="fill:#65656d" />
    <path
       d="m 484.083,155.958 h 3.889 c 0.15,0 0.271,0.101 0.271,0.227 v 1.955 c 0,0.125 -0.121,0.227 -0.271,0.227 h -3.889 z"
       id="path311"
       inkscape:connector-curvature="0"
       style="fill:#434550" />
    <path
       d="m 484.083,155.958 -3.75,0.401 c -0.122,0.013 -0.214,0.1 -0.214,0.203 v 1.2 c 0,0.103 0.091,0.19 0.214,0.203 l 3.75,0.401 z"
       id="path313"
       inkscape:connector-curvature="0"
       style="fill:#5d5f62" />
    <path
       d="m 484.083,155.215 h 3.889 c 0.15,0 0.271,0.101 0.271,0.227 v 1.955 c 0,0.125 -0.121,0.227 -0.271,0.227 h -3.889 z"
       id="path315"
       inkscape:connector-curvature="0"
       style="fill:#85868f" />
    <path
       d="m 484.083,155.215 -3.75,0.401 c -0.122,0.013 -0.214,0.1 -0.214,0.203 v 1.2 c 0,0.103 0.091,0.19 0.214,0.203 l 3.75,0.401 z"
       id="path317"
       inkscape:connector-curvature="0"
       style="fill:#d6d7e0" />
  </g>
  <g
     id="g323">
    <path
       d="m 482.138,195.622 h 5.125 v 39.119 a 1.49,1.49 0 0 1 -1.491,1.491 h -6.186 v -0.062 h 2.552 v -40.548"
       id="path321"
       inkscape:connector-curvature="0"
       style="fill:#1a7292" />
  </g>
  <path
     d="m 465.074,250.872 0.121,4.011 a 0.59,0.59 0 0 0 0.572,0.572 l 4.391,0.131 a 0.59,0.59 0 0 0 0.607,-0.59 v -2.232 c 0,-1.29 -1.159,-2.35 -2.449,-2.35 l -2.619,-0.149 a 0.591,0.591 0 0 0 -0.623,0.607 z"
     id="path325"
     inkscape:connector-curvature="0"
     style="fill:#a0e1f1" />
  <path
     d="m 464.34,250.217 0.13,4.32 c 0.01,0.336 0.28,0.606 0.616,0.616 l 4.728,0.141 a 0.635,0.635 0 0 0 0.654,-0.635 v -2.404 c 0,-1.389 -1.248,-2.531 -2.637,-2.531 l -2.82,-0.16 a 0.635,0.635 0 0 0 -0.671,0.653 z"
     id="path327"
     inkscape:connector-curvature="0"
     style="fill:#1b1c1b" />
  <path
     d="m 464.826,250.617 0.121,4.011 a 0.59,0.59 0 0 0 0.572,0.572 l 4.391,0.131 a 0.59,0.59 0 0 0 0.607,-0.59 v -2.232 c 0,-1.29 -1.159,-2.35 -2.449,-2.35 l -2.619,-0.149 a 0.59,0.59 0 0 0 -0.623,0.607 z"
     id="path329"
     inkscape:connector-curvature="0"
     style="fill:#00feff" />
  <path
     d="m 483.791,318.334 -0.292,-2.481 h -0.729 v -2.818 h 1.021 l -0.292,-2.481 h -0.729 v -6.761 h -0.827 v 26.997 h 0.827 v -7.157 h 1.021 l -0.292,-2.481 h -0.729 v -2.818 z"
     id="path331"
     inkscape:connector-curvature="0"
     style="fill:#367d9c" />
  <path
     d="m 9.393,274.118 h 41.308 v -2.847 l -2.043,-1.114 H 10.927 c -0.847,0 -1.534,0.687 -1.534,1.534 z m 470.458,0 h -41.308 v -2.847 l 2.043,-1.114 h 37.731 c 0.847,0 1.534,0.687 1.534,1.534 z"
     id="path333"
     inkscape:connector-curvature="0"
     style="fill:#19537d" />
  <path
     d="m 9.393,273.375 h 41.308 v -2.847 l -2.043,-1.114 H 10.927 c -0.847,0 -1.534,0.687 -1.534,1.534 z m 470.458,0 h -41.308 v -2.847 l 2.043,-1.114 h 37.731 c 0.847,0 1.534,0.687 1.534,1.534 z"
     id="path335"
     inkscape:connector-curvature="0"
     style="fill:#55aede" />
  <path
     d="m 479.586,195.622 h 2.552 v 40.548 h -2.552 z"
     id="path337"
     inkscape:connector-curvature="0"
     style="fill:#8ac2e1" />
  <g
     id="g349">
    <defs
       id="defs340">
      <path
         id="r"
         d="m 385.838,475.627 h 13.907 c 0.71,0 1.286,-0.576 1.286,-1.286 v -13.907 c 0,-0.71 -0.576,-1.286 -1.286,-1.286 h -13.907 c -0.71,0 -1.286,0.576 -1.286,1.286 v 13.907 c 0,0.71 0.576,1.286 1.286,1.286 z"
         inkscape:connector-curvature="0" />
    </defs>
    <use
       xlink:href="#r"
       overflow="visible"
       id="use342"
       style="overflow:visible;fill:#22698c"
       x="0"
       y="0"
       width="100%"
       height="100%" />
    <clipPath
       id="s">
      <use
         xlink:href="#r"
         overflow="visible"
         id="use344"
         style="overflow:visible"
         x="0"
         y="0"
         width="100%"
         height="100%" />
    </clipPath>
    <path
       clip-path="url(#s)"
       stroke-miterlimit="10"
       d="m 398.272,460.013 h -12.855 v 12.896"
       id="path347"
       inkscape:connector-curvature="0"
       style="fill:none;stroke:#b8ffff;stroke-width:2.22900009;stroke-linecap:round;stroke-linejoin:round;stroke-miterlimit:10" />
  </g>
  <linearGradient
     id="t"
     gradientUnits="userSpaceOnUse"
     x1="400.746"
     y1="475.34201"
     x2="385.62299"
     y2="460.21899">
    <stop
       offset="0"
       stop-color="#1f8abe"
       id="stop351" />
    <stop
       offset="1"
       stop-color="#38abce"
       id="stop353" />
  </linearGradient>
  <path
     d="m 386.22,474.762 h 13.143 c 0.444,0 0.803,-0.36 0.803,-0.803 v -13.143 a 0.803,0.803 0 0 0 -0.803,-0.803 H 386.22 a 0.803,0.803 0 0 0 -0.803,0.803 v 13.143 c 0,0.444 0.359,0.803 0.803,0.803 z"
     id="path356"
     inkscape:connector-curvature="0"
     style="fill:url(#t)" />
  <path
     d="m 438.004,244.872 -0.39,-6.473 c 0,0 -0.743,-2.971 -2.414,-2.971 H 244.622 54.044 c -1.671,0 -2.414,2.971 -2.414,2.971 l -0.347,5.758 z"
     id="path358"
     inkscape:connector-curvature="0"
     style="fill:#409fcb" />
  <g
     id="g362">
    <path
       d="m 50.655,268.17 a 1.361,1.361 0 0 0 1.355,1.244 h 385.222 a 1.36,1.36 0 0 0 1.355,-1.244 l 0.597,-6.928 H 50.058 Z"
       id="path360"
       inkscape:connector-curvature="0"
       style="fill:#204e6d" />
  </g>
  <g
     id="g366">
    <path
       d="m 50.058,261.242 h 389.128 l 0.509,-5.906 H 49.549 Z"
       id="path364"
       inkscape:connector-curvature="0"
       style="fill:#215b87" />
  </g>
  <g
     id="g394">
    <g
       id="g370"
       style="fill:#e3f4f5">
      <path
         d="m 155.503,481.821 c -0.846,0 -1.514,-0.276 -2.005,-0.83 l 0.392,-0.501 c 0.434,0.501 0.979,0.752 1.637,0.752 0.423,0 0.733,-0.092 0.932,-0.274 0.199,-0.183 0.298,-0.394 0.298,-0.634 a 0.684,0.684 0 0 0 -0.317,-0.588 2.33,2.33 0 0 0 -0.775,-0.332 c -0.306,-0.076 -0.61,-0.159 -0.913,-0.251 -0.303,-0.092 -0.56,-0.243 -0.771,-0.454 -0.211,-0.212 -0.317,-0.489 -0.317,-0.834 0,-0.428 0.169,-0.778 0.509,-1.05 0.339,-0.271 0.77,-0.407 1.292,-0.407 0.767,0 1.383,0.246 1.848,0.736 l -0.391,0.478 c -0.371,-0.417 -0.875,-0.626 -1.512,-0.626 -0.313,0 -0.57,0.077 -0.771,0.23 a 0.722,0.722 0 0 0 -0.302,0.6 c 0,0.183 0.077,0.334 0.231,0.454 0.154,0.12 0.345,0.209 0.572,0.267 0.227,0.057 0.475,0.129 0.744,0.215 0.269,0.086 0.517,0.178 0.744,0.274 0.227,0.096 0.417,0.252 0.572,0.466 0.154,0.214 0.231,0.473 0.231,0.775 0,0.423 -0.158,0.784 -0.474,1.084 -0.317,0.301 -0.802,0.45 -1.454,0.45 z m 6.476,-0.094 h -3.422 v -5.223 h 3.422 v 0.579 h -2.772 v 1.684 h 2.717 v 0.579 h -2.717 v 1.802 h 2.772 z m 4.181,0 h -3.078 v -5.223 h 0.65 v 4.644 h 2.427 v 0.579 z m 4.448,0 h -3.422 v -5.223 h 3.422 v 0.579 h -2.772 v 1.684 h 2.717 v 0.579 h -2.717 v 1.802 h 2.772 z m 3.664,0.094 c -0.763,0 -1.401,-0.252 -1.915,-0.756 -0.515,-0.503 -0.771,-1.152 -0.771,-1.945 0,-0.794 0.257,-1.442 0.771,-1.946 0.514,-0.504 1.152,-0.756 1.915,-0.756 0.84,0 1.5,0.345 1.981,1.034 l -0.541,0.306 a 1.656,1.656 0 0 0 -0.615,-0.553 1.727,1.727 0 0 0 -0.826,-0.207 c -0.58,0 -1.06,0.198 -1.441,0.595 -0.381,0.397 -0.572,0.906 -0.572,1.527 0,0.616 0.192,1.124 0.576,1.522 0.384,0.399 0.862,0.6 1.437,0.6 0.292,0 0.567,-0.07 0.826,-0.212 0.259,-0.141 0.463,-0.323 0.615,-0.548 l 0.548,0.298 c -0.505,0.694 -1.168,1.041 -1.988,1.041 z m 4.918,-0.094 h -0.65 v -4.644 h -1.652 v -0.579 h 3.962 v 0.579 h -1.66 z"
         id="path368"
         inkscape:connector-curvature="0" />
    </g>
    <g
       id="g374"
       style="fill:#e3f4f5">
      <path
         d="m 243.263,481.727 h -0.65 v -2.396 h -3.054 v 2.396 h -0.65 v -5.223 h 0.65 v 2.247 h 3.054 v -2.247 h 0.65 z m 5.631,-0.673 c -0.485,0.512 -1.109,0.768 -1.872,0.768 -0.763,0 -1.385,-0.256 -1.868,-0.768 -0.483,-0.511 -0.724,-1.156 -0.724,-1.934 0,-0.778 0.241,-1.423 0.724,-1.935 0.483,-0.512 1.105,-0.768 1.868,-0.768 0.763,0 1.386,0.256 1.872,0.768 0.486,0.512 0.728,1.156 0.728,1.935 0,0.777 -0.243,1.423 -0.728,1.934 z m -1.872,0.188 c 0.574,0 1.039,-0.2 1.394,-0.6 0.355,-0.398 0.532,-0.906 0.532,-1.522 0,-0.616 -0.177,-1.124 -0.532,-1.523 -0.355,-0.399 -0.82,-0.599 -1.394,-0.599 -0.58,0 -1.044,0.198 -1.394,0.595 -0.35,0.397 -0.525,0.906 -0.525,1.527 0,0.616 0.175,1.124 0.525,1.522 0.35,0.4 0.814,0.6 1.394,0.6 z m 8.88,0.485 h -0.65 v -4.393 l -1.77,4.393 h -0.267 l -1.777,-4.393 v 4.393 h -0.65 v -5.223 h 0.932 l 1.629,4.024 1.621,-4.024 h 0.932 z m 4.8,0 h -3.422 v -5.223 h 3.422 v 0.579 h -2.772 v 1.684 h 2.717 v 0.579 h -2.717 v 1.802 h 2.772 z"
         id="path372"
         inkscape:connector-curvature="0" />
    </g>
    <g
       id="g378"
       style="fill:#adadad">
      <path
         d="m 457.842,184.262 c -0.485,0.512 -1.109,0.767 -1.871,0.767 -0.762,0 -1.385,-0.255 -1.867,-0.767 -0.483,-0.512 -0.725,-1.156 -0.725,-1.934 0,-0.778 0.241,-1.422 0.725,-1.934 0.482,-0.512 1.105,-0.768 1.867,-0.768 0.762,0 1.386,0.256 1.871,0.768 0.486,0.512 0.729,1.156 0.729,1.934 0,0.778 -0.243,1.422 -0.729,1.934 z m -1.871,0.188 c 0.574,0 1.039,-0.2 1.394,-0.599 0.355,-0.399 0.533,-0.907 0.533,-1.523 0,-0.616 -0.178,-1.124 -0.533,-1.523 -0.354,-0.399 -0.819,-0.599 -1.394,-0.599 -0.579,0 -1.044,0.198 -1.394,0.595 -0.35,0.396 -0.524,0.906 -0.524,1.527 0,0.616 0.175,1.124 0.524,1.523 0.349,0.399 0.815,0.599 1.394,0.599 z m 4.416,0.485 h -0.65 v -5.223 h 3.423 v 0.58 h -2.772 v 1.684 h 2.717 v 0.58 h -2.717 v 2.379 z m 4.471,0 h -0.65 v -5.223 h 3.423 v 0.58 h -2.772 v 1.684 h 2.717 v 0.58 h -2.717 v 2.379 z"
         id="path376"
         inkscape:connector-curvature="0" />
    </g>
    <g
       id="g382"
       style="fill:#008255">
      <path
         d="m 442.969,173.328 c -0.409,0 -0.775,-0.069 -1.098,-0.208 -0.323,-0.139 -0.575,-0.321 -0.758,-0.547 l 0.529,-0.67 c 0.155,0.165 0.35,0.295 0.585,0.392 0.235,0.097 0.471,0.145 0.706,0.145 0.282,0 0.501,-0.055 0.656,-0.166 a 0.51,0.51 0 0 0 0.233,-0.434 0.443,0.443 0 0 0 -0.227,-0.413 c -0.15,-0.087 -0.391,-0.13 -0.72,-0.13 -0.296,0 -0.491,0.005 -0.586,0.014 v -0.903 c 0.057,0.005 0.252,0.007 0.586,0.007 0.584,0 0.875,-0.167 0.875,-0.501 a 0.454,0.454 0 0 0 -0.247,-0.413 c -0.164,-0.097 -0.374,-0.145 -0.628,-0.145 -0.461,0 -0.86,0.163 -1.199,0.487 l -0.501,-0.628 c 0.441,-0.499 1.042,-0.748 1.799,-0.748 0.551,0 0.984,0.115 1.303,0.346 0.317,0.231 0.476,0.542 0.476,0.932 0,0.282 -0.101,0.519 -0.303,0.709 -0.202,0.19 -0.445,0.312 -0.728,0.363 0.278,0.028 0.531,0.143 0.759,0.342 0.229,0.2 0.343,0.462 0.343,0.787 0,0.409 -0.17,0.742 -0.509,0.999 -0.336,0.255 -0.787,0.383 -1.346,0.383 z m 4.615,-0.085 h -1.863 v -4.707 h 1.856 c 0.738,0 1.339,0.216 1.803,0.649 0.463,0.433 0.695,1 0.695,1.701 0,0.71 -0.23,1.281 -0.691,1.711 -0.462,0.431 -1.062,0.646 -1.8,0.646 z m -0.007,-0.882 c 0.451,0 0.81,-0.141 1.076,-0.423 0.266,-0.282 0.398,-0.633 0.398,-1.051 0,-0.428 -0.128,-0.78 -0.385,-1.055 -0.257,-0.275 -0.617,-0.413 -1.083,-0.413 h -0.861 v 2.943 h 0.855 z"
         id="path380"
         inkscape:connector-curvature="0" />
    </g>
    <g
       id="g386"
       style="fill:#e3f4f5">
      <path
         d="m 310.456,481.821 c -0.846,0 -1.514,-0.276 -2.004,-0.83 l 0.392,-0.501 c 0.433,0.501 0.979,0.752 1.636,0.752 0.423,0 0.733,-0.092 0.933,-0.274 0.198,-0.183 0.297,-0.394 0.297,-0.634 a 0.683,0.683 0 0 0 -0.316,-0.588 2.339,2.339 0 0 0 -0.775,-0.332 c -0.306,-0.076 -0.609,-0.159 -0.912,-0.251 -0.303,-0.092 -0.561,-0.243 -0.771,-0.454 -0.212,-0.212 -0.317,-0.489 -0.317,-0.834 0,-0.428 0.17,-0.778 0.509,-1.05 0.34,-0.271 0.771,-0.407 1.292,-0.407 0.768,0 1.384,0.246 1.849,0.736 l -0.392,0.478 c -0.371,-0.417 -0.875,-0.626 -1.512,-0.626 -0.313,0 -0.57,0.077 -0.771,0.23 a 0.724,0.724 0 0 0 -0.301,0.6 c 0,0.183 0.076,0.334 0.23,0.454 0.154,0.12 0.345,0.209 0.572,0.267 0.227,0.057 0.475,0.129 0.743,0.215 0.27,0.086 0.518,0.178 0.744,0.274 0.228,0.097 0.418,0.252 0.571,0.466 0.154,0.214 0.231,0.473 0.231,0.775 0,0.423 -0.158,0.784 -0.474,1.084 -0.318,0.301 -0.801,0.45 -1.454,0.45 z m 4.949,-0.094 h -0.65 v -4.644 h -1.651 v -0.579 h 3.962 v 0.579 h -1.66 v 4.644 z m 6.625,0 h -0.744 l -0.462,-1.167 h -2.6 l -0.462,1.167 h -0.744 l 2.106,-5.223 h 0.807 z m -1.394,-1.738 -1.112,-2.819 -1.104,2.819 z m 6.021,1.738 h -0.767 l -1.324,-2.075 h -1.049 v 2.075 h -0.65 v -5.223 h 2.099 c 0.486,0 0.881,0.144 1.187,0.431 0.306,0.287 0.458,0.668 0.458,1.143 0,0.449 -0.132,0.807 -0.396,1.073 -0.264,0.266 -0.586,0.415 -0.967,0.446 z m -1.77,-2.646 c 0.309,0 0.561,-0.094 0.756,-0.282 a 0.959,0.959 0 0 0 0.294,-0.721 c 0,-0.297 -0.099,-0.537 -0.294,-0.72 -0.195,-0.183 -0.447,-0.274 -0.756,-0.274 h -1.37 v 1.997 z m 4.77,2.646 h -0.65 v -4.644 h -1.651 v -0.579 h 3.962 v 0.579 h -1.66 v 4.644 z"
         id="path384"
         inkscape:connector-curvature="0" />
    </g>
    <g
       id="g390"
       style="fill:#e3f4f5">
      <path
         d="m 406.583,470.089 h -0.65 v -5.223 h 2.099 c 0.507,0 0.906,0.151 1.198,0.454 0.293,0.303 0.438,0.676 0.438,1.119 0,0.444 -0.147,0.817 -0.442,1.12 -0.295,0.303 -0.692,0.454 -1.194,0.454 h -1.448 v 2.076 z m 1.37,-2.655 c 0.309,0 0.559,-0.093 0.752,-0.278 0.193,-0.185 0.29,-0.424 0.29,-0.717 0,-0.292 -0.097,-0.53 -0.29,-0.716 -0.193,-0.186 -0.443,-0.278 -0.752,-0.278 h -1.37 v 1.989 z m 6.984,1.981 c -0.485,0.512 -1.109,0.768 -1.871,0.768 -0.762,0 -1.385,-0.256 -1.867,-0.768 -0.483,-0.511 -0.725,-1.156 -0.725,-1.934 0,-0.778 0.241,-1.423 0.725,-1.935 0.482,-0.512 1.105,-0.768 1.867,-0.768 0.762,0 1.386,0.256 1.871,0.768 0.486,0.512 0.729,1.156 0.729,1.935 0,0.778 -0.243,1.423 -0.729,1.934 z m -1.871,0.188 c 0.574,0 1.039,-0.2 1.394,-0.6 0.355,-0.398 0.533,-0.906 0.533,-1.522 0,-0.616 -0.178,-1.124 -0.533,-1.523 -0.354,-0.399 -0.819,-0.599 -1.394,-0.599 -0.579,0 -1.044,0.198 -1.394,0.595 -0.35,0.397 -0.524,0.906 -0.524,1.527 0,0.616 0.175,1.124 0.524,1.522 0.35,0.4 0.815,0.6 1.394,0.6 z m 8.309,0.486 h -0.705 l -1.151,-4.213 -1.151,4.213 h -0.704 l -1.488,-5.223 h 0.721 l 1.159,4.354 1.198,-4.354 h 0.54 l 1.198,4.354 1.15,-4.354 h 0.729 z m 5.794,0 h -3.422 v -5.223 h 3.422 v 0.579 h -2.772 v 1.684 h 2.716 v 0.579 h -2.716 v 1.802 h 2.772 z m 4.979,0 h -0.767 l -1.324,-2.075 h -1.049 v 2.075 h -0.65 v -5.223 h 2.099 c 0.486,0 0.881,0.144 1.187,0.431 0.306,0.287 0.458,0.668 0.458,1.143 0,0.449 -0.132,0.807 -0.396,1.073 -0.264,0.266 -0.586,0.415 -0.967,0.446 z m -1.769,-2.647 c 0.309,0 0.561,-0.094 0.756,-0.282 a 0.959,0.959 0 0 0 0.294,-0.721 c 0,-0.297 -0.099,-0.537 -0.294,-0.72 -0.195,-0.183 -0.447,-0.274 -0.756,-0.274 h -1.37 v 1.997 z"
         id="path388"
         inkscape:connector-curvature="0" />
    </g>
    <path
       d="m 398.525,346.64 h -1.176 v -3.996 l -3.727,-5.455 h 1.374 l 2.933,4.393 2.934,-4.393 h 1.374 l -3.712,5.455 z m 31.469,-26.833 h -1.431 l -3.019,-4.024 -3.017,4.024 h -1.432 l 3.685,-4.846 -3.472,-4.605 h 1.431 l 2.805,3.77 2.792,-3.77 h 1.444 l -3.471,4.591 z m 27.867,26.833 h -1.347 l -0.836,-2.111 h -4.704 l -0.836,2.111 h -1.346 l 3.812,-9.451 h 1.459 z m -2.522,-3.146 -2.012,-5.102 -1.998,5.102 z m -28.836,30.101 h -4.307 v -9.451 h 4.208 c 0.813,0 1.457,0.223 1.935,0.666 0.477,0.444 0.715,1.025 0.715,1.743 0,0.566 -0.16,1.046 -0.481,1.438 a 2.002,2.002 0 0 1 -1.176,0.73 c 0.5,0.075 0.933,0.34 1.296,0.793 0.364,0.454 0.546,0.964 0.546,1.53 0,0.766 -0.243,1.382 -0.729,1.85 -0.489,0.467 -1.157,0.701 -2.007,0.701 z m -0.298,-5.357 c 0.52,0 0.921,-0.142 1.204,-0.425 0.283,-0.283 0.426,-0.646 0.426,-1.091 0,-0.445 -0.145,-0.81 -0.433,-1.099 -0.288,-0.288 -0.688,-0.432 -1.197,-0.432 h -2.833 v 3.046 h 2.833 z m 0.071,4.308 c 0.547,0 0.975,-0.146 1.282,-0.439 0.307,-0.292 0.46,-0.688 0.46,-1.189 0,-0.454 -0.153,-0.839 -0.46,-1.155 -0.308,-0.316 -0.735,-0.475 -1.282,-0.475 h -2.905 v 3.259 h 2.905 z"
       id="path392"
       inkscape:connector-curvature="0"
       style="fill:#fbffff" />
  </g>
  <g
     stroke-miterlimit="10"
     id="g398"
     style="fill:none;stroke:#e3f4f5;stroke-width:1.48599994;stroke-linecap:round;stroke-linejoin:round;stroke-miterlimit:10">
    <path
       d="m 395.161,464.089 a 3.907,3.907 0 1 1 -4.828,0 m 2.414,-1.251 v 4.415"
       id="path396"
       inkscape:connector-curvature="0" />
  </g>
  <path
     d="m 230.494,473.838 -4.992,5.353 h 1.468 v 4.723 h 7.048 v -4.723 h 1.468 z m 1.322,8.108 h -2.643 v -2.44 h 2.643 z"
     id="path400"
     inkscape:connector-curvature="0"
     style="fill:#e3f4f5" />
</svg>
