<?xml version="1.0" encoding="UTF-8" standalone="no"?>
<svg
   xmlns:dc="http://purl.org/dc/elements/1.1/"
   xmlns:cc="http://creativecommons.org/ns#"
   xmlns:rdf="http://www.w3.org/1999/02/22-rdf-syntax-ns#"
   xmlns:svg="http://www.w3.org/2000/svg"
   xmlns="http://www.w3.org/2000/svg"
   xmlns:sodipodi="http://sodipodi.sourceforge.net/DTD/sodipodi-0.dtd"
   xmlns:inkscape="http://www.inkscape.org/namespaces/inkscape"
   viewBox="0 0 511 60.11"
   version="1.1"
   id="svg8"
   sodipodi:docname="logo.svg"
   width="511"
   height="60.110001"
   inkscape:version="0.92.4 5da689c313, 2019-01-14">
  <metadata
     id="metadata14">
    <rdf:RDF>
      <cc:Work
         rdf:about="">
        <dc:format>image/svg+xml</dc:format>
        <dc:type
           rdf:resource="http://purl.org/dc/dcmitype/StillImage" />
      </cc:Work>
    </rdf:RDF>
  </metadata>
  <defs
     id="defs12" />
  <sodipodi:namedview
     pagecolor="#ffffff"
     bordercolor="#666666"
     borderopacity="1"
     objecttolerance="10"
     gridtolerance="10"
     guidetolerance="10"
     inkscape:pageopacity="0"
     inkscape:pageshadow="2"
     inkscape:window-width="471"
     inkscape:window-height="442"
     id="namedview10"
     showgrid="false"
     inkscape:zoom="0.53329871"
     inkscape:cx="254.07899"
     inkscape:cy="30.055"
     inkscape:window-x="0"
     inkscape:window-y="0"
     inkscape:window-maximized="0"
     inkscape:current-layer="svg8" />
  <path
     d="m 265.842,53.988 c 0,0.637 -0.526,1.16 -1.165,1.16 H 242.44 a 1.16,1.16 0 0 1 -1.163,-1.16 V 37.904 c 0,-0.639 0.517,-1.157 1.163,-1.157 h 22.237 c 0.64,0 1.165,0.517 1.165,1.157 z m -0.965,-22.066 h -22.642 c -3.278,0 -5.94,2.682 -5.94,5.95 v 16.153 c 0,3.263 2.662,5.943 5.94,5.943 h 22.643 c 3.278,0 5.947,-2.68 5.947,-5.943 V 37.871 c 0,-3.267 -2.67,-5.949 -5.948,-5.949"
     id="path2"
     inkscape:connector-curvature="0"
     style="fill:#929497" />
  <path
     d="m 326.764,27.334 c 0,0 16.665,-2.669 16.665,-13.044 C 343.43,4.148 325.684,0 306.804,0 289.764,0 278.561,2.082 278.561,2.082 v 9.214 c 7.734,-1.87 15.131,-3.464 25.213,-3.464 10.82,0 19.08,3.228 19.08,7.79 0,5.5 -8.168,8.64 -25.743,8.64 h -8.077 v 8.29 h 7.503 c 18.513,0 29.041,2.785 29.041,9.581 0,6.067 -9.406,9.753 -21.135,9.753 -10.227,0 -19.583,-2.178 -27.17,-4.284 v 9.94 c 3.644,0.625 13.314,2.568 31.325,2.568 19.952,0 37.313,-6.416 37.313,-17.726 0.002,-9.484 -12.026,-15.05 -19.147,-15.05"
     id="path4"
     inkscape:connector-curvature="0"
     style="fill:#c02424" />
  <path
     d="M 5.196,7.754 V 28.539 H 0 V 0.484 H 4.437 L 25.473,20.918 V 0.484 h 5.128 v 28.055 h -4.059 z m 52.074,0 V 28.539 H 52.076 V 0.484 h 4.432 L 77.544,20.918 V 0.484 h 5.133 V 28.539 H 78.62 Z m 107.925,0 v 20.785 h -5.192 V 0.484 h 4.432 l 21.034,20.434 V 0.484 h 5.132 v 28.055 h -4.054 z M 42.967,0.485 h 0.96 V 28.538 H 38.735 V 0.485 Z m 75.08,0 h 0.956 V 5.31 h -12.527 v 23.227 h -5.395 V 5.31 H 88.563 V 0.485 Z m 33.275,0 h 0.973 V 5.31 h -22.263 v 6.296 h 17.221 v 4.825 h -17.22 v 7.274 h 22.262 v 4.832 H 124.893 V 0.484 h 26.43 z m 68.159,23.22 H 203.528 V 5.31 h 15.953 c 4.991,0 6.768,4.961 6.768,9.192 0,4.25 -1.777,9.204 -6.768,9.204 m 8.522,-19.123 c -2.027,-2.676 -5.035,-4.099 -8.67,-4.099 h -20.814 v 28.055 h 20.814 c 3.636,0 6.643,-1.42 8.671,-4.099 1.901,-2.495 2.911,-5.92 2.911,-9.939 0,-3.995 -1.01,-7.436 -2.912,-9.918 m 37.839,17.97 c 0,0.633 -0.526,1.154 -1.165,1.154 H 242.44 a 1.16,1.16 0 0 1 -1.163,-1.154 V 6.47 c 0,-0.635 0.517,-1.152 1.163,-1.152 h 22.237 c 0.64,0 1.165,0.517 1.165,1.152 V 22.554 Z M 264.877,0.484 h -22.642 c -3.278,0 -5.94,2.684 -5.94,5.951 v 16.16 c 0,3.264 2.662,5.944 5.94,5.944 h 22.643 c 3.278,0 5.947,-2.68 5.947,-5.945 V 6.435 c 0,-3.266 -2.67,-5.95 -5.948,-5.95 m 168.788,47.713 c 5.388,2.126 16.76,3.85 25.63,3.85 9.714,0 13.745,-3.335 13.745,-7.518 0,-3.754 -3.74,-5.96 -14.469,-9.893 -14.34,-5.301 -24.858,-9.472 -24.858,-18.891 0,-9.755 12.654,-15.493 31.955,-15.493 10.362,0 13.92,0.655 20.504,1.862 l 0.046,9.256 c -6.462,-1.23 -12.19,-3.341 -21.09,-3.341 -9.536,0 -13.597,3.027 -13.597,6.148 0,4.529 6.255,6.693 17.237,10.607 15.281,5.47 23.784,9.692 23.784,18.915 0,9.489 -10.646,16.34 -34.66,16.34 -9.866,0 -16.664,-0.65 -24.226,-1.866 V 48.198 Z M 382.545,8.431 h -11.427 v 43.262 h 11.427 c 17.544,0 28.611,-7.501 28.611,-21.543 0,-14.037 -11.067,-21.719 -28.61,-21.719 m 30.683,47.293 c -5.659,2.56 -16.348,4.184 -25.702,4.184 H 351.805 V 0.38 h 35.722 c 9.354,0 20.043,1.646 25.707,4.199 13.758,6.211 18.25,16.152 18.25,25.571 0,9.426 -4.45,19.352 -18.255,25.574 M 497.398,51.8 h -1.879 v -1.01 h 4.987 v 1.01 h -1.903 v 5.594 h -1.205 z m 9.455,2.899 c -0.037,-0.853 -0.087,-1.881 -0.076,-2.772 h -0.033 a 33.922,33.922 0 0 1 -0.78,2.527 l -0.972,2.86 h -0.92 l -0.88,-2.821 a 32.362,32.362 0 0 1 -0.667,-2.566 h -0.02 a 153.3,153.3 0 0 1 -0.12,2.813 l -0.146,2.654 h -1.128 l 0.443,-6.604 h 1.587 l 0.864,2.654 c 0.231,0.775 0.441,1.56 0.607,2.296 h 0.031 c 0.175,-0.718 0.4,-1.532 0.655,-2.305 l 0.908,-2.645 h 1.57 l 0.383,6.604 h -1.176 z"
     id="path6"
     inkscape:connector-curvature="0"
     style="fill:#221d1f" />
</svg>
