<?xml version="1.0" encoding="UTF-8" standalone="no"?>
<svg
   xmlns:dc="http://purl.org/dc/elements/1.1/"
   xmlns:cc="http://creativecommons.org/ns#"
   xmlns:rdf="http://www.w3.org/1999/02/22-rdf-syntax-ns#"
   xmlns:svg="http://www.w3.org/2000/svg"
   xmlns="http://www.w3.org/2000/svg"
   xmlns:sodipodi="http://sodipodi.sourceforge.net/DTD/sodipodi-0.dtd"
   xmlns:inkscape="http://www.inkscape.org/namespaces/inkscape"
   width="400"
   height="175.27666"
   version="1.1"
   id="svg113"
   sodipodi:docname="console.svg"
   inkscape:version="0.92.4 5da689c313, 2019-01-14">
  <metadata
     id="metadata117">
    <rdf:RDF>
      <cc:Work
         rdf:about="">
        <dc:format>image/svg+xml</dc:format>
        <dc:type
           rdf:resource="http://purl.org/dc/dcmitype/StillImage" />
      </cc:Work>
    </rdf:RDF>
  </metadata>
  <sodipodi:namedview
     pagecolor="#ffffff"
     bordercolor="#666666"
     borderopacity="1"
     objecttolerance="10"
     gridtolerance="10"
     guidetolerance="10"
     inkscape:pageopacity="0"
     inkscape:pageshadow="2"
     inkscape:window-width="471"
     inkscape:window-height="442"
     id="namedview115"
     showgrid="false"
     inkscape:zoom="0.6775"
     inkscape:cx="200"
     inkscape:cy="87.638321"
     inkscape:window-x="0"
     inkscape:window-y="0"
     inkscape:window-maximized="0"
     inkscape:current-layer="svg113">
    <inkscape:grid
       type="xygrid"
       id="grid119"
       originx="0"
       originy="-7.1044922e-06" />
  </sodipodi:namedview>
  <defs
     id="defs5">
    <clipPath
       id="a">
      <path
         d="M 0,232.525 H 530.647 V 0 H 0 Z"
         id="path2"
         inkscape:connector-curvature="0" />
    </clipPath>
  </defs>
  <g
     clip-path="url(#a)"
     transform="matrix(0.75379702,0,0,-0.75379702,0,175.27665)"
     id="g111">
    <path
       d="m 95.7473,232.5246 c 0,0 -14.697,-15.715 -19.391,-19.634 -2.149,-1.793 -16.151,-0.575 -28.183,-1.502 h -18.227 c 10.403,12.966 17.107,17.515 20.714,19.198 3.636,1.694 7.76,1.938 7.76,1.938 z m 339.575,-0.0145 13.388,-14.806 c 5.337,-5.814 5.337,-5.814 13.064,-6.087 4.898,-0.174 11.374,-0.156 17.151,-0.229 h 21.816 c -5.585,6.862 -10.624,11.454 -13.515,14.228 -6.061,5.818 -14.788,6.909 -14.788,6.909 l -37.116,-0.015 M 81.3559,6.6188 c -3.938,-0.12 -20.845,-0.004 -21.969,0.004 -1.283,0.007 -1.876,-0.197 -5.272,2.105 -3.392,2.302 -3.778,3.636 -4.141,4.363 -0.364,0.727 -0.204,2.32 0.316,2.771 0.523,0.458 1.229,1.065 2.545,1.171 1.32,0.101 9.403,-0.004 9.403,-0.004 h 11.875 c 0,0 3.123,0.076 6.334,-2.636 2.145,-1.811 3.105,-2.487 3.545,-3.545 0.287,-0.688 1.302,-4.105 -2.636,-4.229 m 14.271,-1.225 c 0,0 -6.697,7.352 -12.289,12.388 -1.982,1.785 -4.549,2.818 -7.218,2.839 l -33.397,0.288 c -0.505,-0.03 -0.97,-0.03 -1.403,0 h -10.134 c 6.771,-8.003 13.115,-13.294 16.446,-15.879 5.938,-4.603 11.515,-4.89 11.515,-4.89 h 2.258 l 39.473,0.003 z"
       id="path7"
       inkscape:connector-curvature="0"
       style="fill:#dbdde2" />
    <path
       d="m 520.6778,60.7846 c -10.424,-35.393 -22.06,-40.723 -22.06,-40.723 0,0 -0.818,-0.364 -1.785,-0.397 -0.971,-0.029 -37.484,0 -37.484,0 0,0 -2.909,0.517 -4.727,-1.24 -1.818,-1.759 -18.118,-18.241 -18.118,-18.241 l -335.626,-0.04 -5.251,5.25 c 0,0 -6.697,7.352 -12.289,12.388 -1.982,1.785 -4.549,2.818 -7.218,2.84 l -33.397,0.287 c -0.505,-0.029 -0.97,-0.029 -1.403,0 h -10.134 c -5.297,6.261 -10.857,14.177 -15.431,23.754 -10.421,21.816 -15.755,49.468 -15.755,71.669 0,22.202 5.272,47.654 9.272,57.471 4,9.818 9.879,24.06 20.424,37.27 0.083,0.105 0.171,0.21 0.25,0.316 h 18.228 c 12.031,0.927 26.034,-0.291 28.183,1.502 4.694,3.919 19.391,19.634 19.391,19.634 h 166.773 l 172.801,-0.014 13.388,-14.806 c 5.338,-5.814 5.338,-5.814 13.064,-6.087 4.898,-0.175 11.374,-0.156 17.152,-0.229 h 21.816 c 6.126,-7.523 12.911,-17.773 18.238,-31.343 10.181,-25.939 10.668,-45.33 11.395,-53.813 0.727,-8.486 0.727,-30.059 -9.697,-65.448"
       id="path9"
       inkscape:connector-curvature="0"
       style="fill:#2d2d2d" />
    <path
       d="m 515.4674,64.7842 c -10.155,-33.891 -19.515,-38.422 -19.515,-38.422 0,0 -0.796,-0.349 -1.741,-0.378 -0.946,-0.029 -36.557,-0.229 -36.557,-0.229 0,0 -2.836,0.494 -4.607,-1.189 -1.77,-1.683 -18.06,-19.173 -18.06,-19.173 h -339.36 c 0,0 -6.698,7.352 -12.29,12.388 -1.982,1.786 -4.549,2.818 -7.217,2.84 l -33.397,0.287 c -0.506,-0.029 -0.971,-0.029 -1.404,0 -3.21,0.197 -4.639,1.847 -6.25,3.782 -5.141,6.174 -11.664,16.827 -15.315,24.336 -10.155,20.892 -13.817,48.064 -13.817,69.327 0,21.264 6.025,45.545 9.919,54.948 3.56,8.588 8.647,20.707 17.33,32.382 1.799,2.422 4.432,4.102 7.388,4.709 2.334,0.476 4.916,0.789 7.599,0.996 12.032,0.927 26.034,-0.291 28.183,1.502 4.694,3.92 19.391,19.634 19.391,19.634 h 166.773 l 172.802,-0.014 13.388,-14.806 c 5.337,-5.814 5.337,-5.814 13.064,-6.087 4.898,-0.174 11.373,-0.156 17.151,-0.229 4.432,-0.054 8.454,-0.16 11.032,-0.44 1.603,-0.178 3.094,-0.916 4.203,-2.09 5.599,-5.949 12.326,-16.173 18.296,-29.579 9.919,-24.838 10.876,-43.345 11.585,-51.472 0.709,-8.126 1.581,-29.132 -8.574,-63.023"
       id="path11"
       inkscape:connector-curvature="0"
       style="fill:#313131" />
    <path
       stroke-miterlimit="10"
       d="m 42.7232,20.9084 h -1.404 m 59.573,-20.7798 -0.015,0.015"
       id="path13"
       inkscape:connector-curvature="0"
       style="fill:none;stroke:#ec1c24;stroke-width:0.36399999;stroke-miterlimit:10" />
    <path
       stroke-miterlimit="10"
       d="M 48.359,211.3885 H 48.174"
       id="path15"
       inkscape:connector-curvature="0"
       style="fill:none;stroke:#ec1c24;stroke-width:0.35100001;stroke-miterlimit:10" />
    <path
       d="m 408.1083,43.8153 h -284.146 c -0.852,0 -1.55,0.697 -1.55,1.55 v 156.643 c 0,0.852 0.698,1.549 1.55,1.549 h 284.146 c 0.852,0 1.55,-0.697 1.55,-1.549 V 45.3653 c 0,-0.853 -0.698,-1.55 -1.55,-1.55 m 61.6652,49.6317 c -18.275,0 -33.088,14.813 -33.088,33.088 0,18.274 14.813,33.088 33.088,33.088 18.275,0 33.088,-14.814 33.088,-33.088 0,-18.275 -14.813,-33.088 -33.088,-33.088 m 0,67.266 c -18.875,0 -34.179,-15.304 -34.179,-34.178 0,-18.875 15.304,-34.179 34.179,-34.179 18.875,0 34.179,15.304 34.179,34.179 0,18.874 -15.304,34.178 -34.179,34.178"
       id="path17"
       inkscape:connector-curvature="0"
       style="fill:#0f0f12" />
    <path
       d="m 452.4418,127.8073 c 0,8.702 -7.054,15.756 -15.756,15.756 -8.702,0 -15.756,-7.054 -15.756,-15.756 0,-8.702 7.054,-15.756 15.756,-15.756 8.702,0 15.756,7.054 15.756,15.756"
       id="path19"
       inkscape:connector-curvature="0"
       style="fill:#0f0f12" />
    <path
       d="m 451.4722,127.8073 c 0,8.166 -6.62,14.786 -14.786,14.786 -8.167,0 -14.787,-6.62 -14.787,-14.786 0,-8.166 6.62,-14.786 14.787,-14.786 8.166,0 14.786,6.62 14.786,14.786"
       id="path21"
       inkscape:connector-curvature="0"
       style="fill:#232323" />
    <path
       d="m 518.6174,127.8073 c 0,8.702 -7.054,15.756 -15.756,15.756 -8.702,0 -15.756,-7.054 -15.756,-15.756 0,-8.702 7.054,-15.756 15.756,-15.756 8.702,0 15.756,7.054 15.756,15.756"
       id="path23"
       inkscape:connector-curvature="0"
       style="fill:#0f0f12" />
    <path
       d="m 517.5266,127.8073 c 0,8.099 -6.566,14.665 -14.665,14.665 -8.1,0 -14.666,-6.566 -14.666,-14.665 0,-8.099 6.566,-14.665 14.666,-14.665 8.099,0 14.665,6.566 14.665,14.665"
       id="path25"
       inkscape:connector-curvature="0"
       style="fill:#232323" />
    <path
       d="m 485.6205,160.8042 c 0,8.702 -7.054,15.756 -15.756,15.756 -8.702,0 -15.756,-7.054 -15.756,-15.756 0,-8.702 7.054,-15.756 15.756,-15.756 8.702,0 15.756,7.054 15.756,15.756"
       id="path27"
       inkscape:connector-curvature="0"
       style="fill:#0f0f12" />
    <path
       d="m 484.4388,160.8042 c 0,8.049 -6.525,14.574 -14.574,14.574 -8.05,0 -14.575,-6.525 -14.575,-14.574 0,-8.049 6.525,-14.574 14.575,-14.574 8.049,0 14.574,6.525 14.574,14.574"
       id="path29"
       inkscape:connector-curvature="0"
       style="fill:#232323" />
    <path
       d="m 485.6205,94.356 c 0,8.702 -7.054,15.756 -15.756,15.756 -8.702,0 -15.756,-7.054 -15.756,-15.756 0,-8.702 7.054,-15.756 15.756,-15.756 8.702,0 15.756,7.054 15.756,15.756"
       id="path31"
       inkscape:connector-curvature="0"
       style="fill:#0f0f12" />
    <path
       d="m 484.4388,94.356 c 0,8.049 -6.525,14.574 -14.574,14.574 -8.05,0 -14.575,-6.525 -14.575,-14.574 0,-8.049 6.525,-14.574 14.575,-14.574 8.049,0 14.574,6.525 14.574,14.574"
       id="path33"
       inkscape:connector-curvature="0"
       style="fill:#232323" />
    <path
       d="m 379.0549,13.0764 c -6.73,0 -12.337,4.436 -12.879,10.028 h 25.758 c -0.542,-5.592 -6.149,-10.028 -12.879,-10.028 m -14.711,11.817 v -0.894 c 0,-7.011 6.599,-12.712 14.711,-12.712 8.112,0 14.711,5.701 14.711,12.712 v 0.894 z"
       id="path35"
       inkscape:connector-curvature="0"
       style="fill:#231f20" />
    <path
       d="m 391.9337,23.1046 c -0.542,-5.592 -6.149,-10.028 -12.879,-10.028 -6.73,0 -12.337,4.436 -12.879,10.028 z"
       id="path37"
       inkscape:connector-curvature="0"
       style="fill:#232323" />
    <path
       d="m 413.597,13.0764 c -6.73,0 -12.337,4.436 -12.879,10.028 h 25.758 c -0.542,-5.592 -6.149,-10.028 -12.879,-10.028 m -14.711,11.817 v -0.894 c 0,-7.011 6.599,-12.712 14.711,-12.712 8.112,0 14.711,5.701 14.711,12.712 v 0.894 z"
       id="path39"
       inkscape:connector-curvature="0"
       style="fill:#231f20" />
    <path
       d="m 426.4758,23.1046 c -0.542,-5.592 -6.148,-10.028 -12.879,-10.028 -6.73,0 -12.337,4.436 -12.879,10.028 z"
       id="path41"
       inkscape:connector-curvature="0"
       style="fill:#232323" />
    <path
       d="m 120.1704,13.0764 c -6.73,0 -12.337,4.436 -12.879,10.028 h 25.758 c -0.542,-5.592 -6.149,-10.028 -12.879,-10.028 m -14.711,11.817 v -0.894 c 0,-7.011 6.599,-12.712 14.711,-12.712 8.112,0 14.711,5.701 14.711,12.712 v 0.894 z"
       id="path43"
       inkscape:connector-curvature="0"
       style="fill:#231f20" />
    <path
       d="m 133.0492,23.1046 c -0.542,-5.592 -6.149,-10.028 -12.879,-10.028 -6.73,0 -12.337,4.436 -12.879,10.028 z"
       id="path45"
       inkscape:connector-curvature="0"
       style="fill:#232323" />
    <path
       d="m 166.2424,18.3923 c 0,-2.931 -2.385,-5.316 -5.319,-5.316 h -4.909 c -2.931,0 -5.316,2.385 -5.316,5.316 v 1.396 c 0,2.931 2.385,5.316 5.316,5.316 h 4.909 c 2.934,0 5.319,-2.385 5.319,-5.316 z m -5.319,8.501 h -4.909 c -3.916,0 -7.105,-3.189 -7.105,-7.105 v -1.396 c 0,-3.916 3.189,-7.105 7.105,-7.105 h 4.909 c 3.919,0 7.108,3.189 7.108,7.105 v 1.396 c 0,3.916 -3.189,7.105 -7.108,7.105"
       id="path47"
       inkscape:connector-curvature="0"
       style="fill:#231f20" />
    <path
       d="m 166.2424,19.7885 v -1.396 c 0,-2.931 -2.385,-5.316 -5.319,-5.316 h -4.909 c -2.931,0 -5.316,2.385 -5.316,5.316 v 1.396 c 0,2.931 2.385,5.316 5.316,5.316 h 4.909 c 2.934,0 5.319,-2.385 5.319,-5.316"
       id="path49"
       inkscape:connector-curvature="0"
       style="fill:#232323" />
    <path
       d="m 200.7518,18.3923 c 0,-2.931 -2.385,-5.316 -5.316,-5.316 h -4.908 c -2.931,0 -5.316,2.385 -5.316,5.316 v 1.396 c 0,2.931 2.385,5.316 5.316,5.316 h 4.908 c 2.931,0 5.316,-2.385 5.316,-5.316 z m -5.316,8.501 h -4.908 c -3.92,0 -7.105,-3.189 -7.105,-7.105 v -1.396 c 0,-3.916 3.185,-7.105 7.105,-7.105 h 4.908 c 3.92,0 7.105,3.189 7.105,7.105 v 1.396 c 0,3.916 -3.185,7.105 -7.105,7.105"
       id="path51"
       inkscape:connector-curvature="0"
       style="fill:#231f20" />
    <path
       d="m 200.7518,19.7885 v -1.396 c 0,-2.931 -2.385,-5.316 -5.316,-5.316 h -4.908 c -2.931,0 -5.316,2.385 -5.316,5.316 v 1.396 c 0,2.931 2.385,5.316 5.316,5.316 h 4.908 c 2.931,0 5.316,-2.385 5.316,-5.316"
       id="path53"
       inkscape:connector-curvature="0"
       style="fill:#232323" />
    <path
       d="m 331.5576,17.316 c 0,-2.887 -2.349,-5.24 -5.24,-5.24 h -5.061 c -2.89,0 -5.239,2.353 -5.239,5.24 v 1.549 c 0,2.887 2.349,5.239 5.239,5.239 h 5.061 c 2.891,0 5.24,-2.352 5.24,-5.239 z m -5.24,8.577 h -5.061 c -3.876,0 -7.028,-3.152 -7.028,-7.028 v -1.549 c 0,-3.876 3.152,-7.028 7.028,-7.028 h 5.061 c 3.876,0 7.029,3.152 7.029,7.028 v 1.549 c 0,3.876 -3.153,7.028 -7.029,7.028"
       id="path55"
       inkscape:connector-curvature="0"
       style="fill:#231f20" />
    <path
       d="m 331.5576,18.865 v -1.549 c 0,-2.887 -2.349,-5.239 -5.24,-5.239 h -5.061 c -2.89,0 -5.239,2.352 -5.239,5.239 v 1.549 c 0,2.887 2.349,5.24 5.239,5.24 h 5.061 c 2.891,0 5.24,-2.353 5.24,-5.24"
       id="path57"
       inkscape:connector-curvature="0"
       style="fill:#232323" />
    <path
       d="m 353.9191,17.4396 c 0,-2.956 -2.403,-5.363 -5.363,-5.363 h -4.814 c -2.96,0 -5.363,2.407 -5.363,5.363 v 1.302 c 0,2.956 2.403,5.363 5.363,5.363 h 4.814 c 2.96,0 5.363,-2.407 5.363,-5.363 z m -5.363,8.454 h -4.814 c -3.945,0 -7.152,-3.207 -7.152,-7.152 v -1.302 c 0,-3.945 3.207,-7.152 7.152,-7.152 h 4.814 c 3.945,0 7.152,3.207 7.152,7.152 v 1.302 c 0,3.945 -3.207,7.152 -7.152,7.152"
       id="path59"
       inkscape:connector-curvature="0"
       style="fill:#231f20" />
    <path
       d="m 353.9191,18.7413 v -1.302 c 0,-2.956 -2.403,-5.363 -5.363,-5.363 h -4.814 c -2.96,0 -5.363,2.407 -5.363,5.363 v 1.302 c 0,2.956 2.403,5.363 5.363,5.363 h 4.814 c 2.96,0 5.363,-2.407 5.363,-5.363"
       id="path61"
       inkscape:connector-curvature="0"
       style="fill:#232323" />
    <path
       d="m 343.7401,24.8262 c -3.355,0 -6.084,-2.729 -6.084,-6.084 v -1.303 c 0,-3.355 2.729,-6.084 6.084,-6.084 h 4.818 c 3.355,0 6.084,2.729 6.084,6.084 v 1.303 c 0,3.355 -2.729,6.084 -6.084,6.084 z m 4.818,-13.817 h -4.818 c -3.545,0 -6.43,2.884 -6.43,6.43 v 1.303 c 0,3.545 2.885,6.429 6.43,6.429 h 4.818 c 3.545,0 6.43,-2.884 6.43,-6.429 v -1.303 c 0,-3.546 -2.885,-6.43 -6.43,-6.43"
       id="path63"
       inkscape:connector-curvature="0"
       style="fill:#231f20" />
    <path
       d="m 161.803,17.909 h -6.954 v 1.636 h 6.954 z m 30.4969,4.1356 v -2.682 h -2.636 v -1.454 h 2.636 v -2.545 h 1.318 v 2.545 h 2.682 v 1.364 h -2.682 v 2.772 z m 134.6072,-4.9322 c 0,-0.84 -0.687,-1.531 -1.531,-1.531 h -2.752 c -0.844,0 -1.535,0.691 -1.535,1.531 v 1.502 c 0,0.84 0.691,1.53 1.535,1.53 h 2.752 c 0.844,0 1.531,-0.69 1.531,-1.53 z m -1.014,3.887 h -3.789 c -1.156,0 -2.105,-0.949 -2.105,-2.105 v -2.062 c 0,-1.156 0.949,-2.105 2.108,-2.105 h 3.786 c 1.159,0 2.105,0.949 2.105,2.105 v 2.062 c 0,1.156 -0.946,2.105 -2.105,2.105"
       id="path65"
       inkscape:connector-curvature="0"
       style="fill:#d0d2d3" />
    <path
       d="m 440.9126,30.8165 h -3.727 c -2.925,0 -5.318,2.393 -5.318,5.318 0,2.924 2.393,5.317 5.318,5.317 h 3.727 c 2.925,0 5.318,-2.393 5.318,-5.317 0,-2.925 -2.393,-5.318 -5.318,-5.318 m -345.1657,0 h -3.727 c -2.925,0 -5.318,2.393 -5.318,5.318 0,2.924 2.393,5.317 5.318,5.317 h 3.727 c 2.925,0 5.318,-2.393 5.318,-5.317 0,-2.925 -2.393,-5.318 -5.318,-5.318"
       id="path67"
       inkscape:connector-curvature="0"
       style="fill:#0f0f12" />
    <path
       d="m 502.225,47.8149 c 0,1.28 1.038,2.318 2.318,2.318 1.28,0 2.318,-1.038 2.318,-2.318 0,-1.28 -1.038,-2.318 -2.318,-2.318 -1.28,0 -2.318,1.038 -2.318,2.318"
       id="path69"
       inkscape:connector-curvature="0"
       style="fill:#ba8d5e" />
    <path
       d="m 510.6333,72.1763 c 0,1.28 1.038,2.318 2.318,2.318 1.28,0 2.318,-1.038 2.318,-2.318 0,-1.28 -1.038,-2.318 -2.318,-2.318 -1.28,0 -2.318,1.038 -2.318,2.318"
       id="path71"
       inkscape:connector-curvature="0"
       style="fill:#55bfa2" />
    <path
       d="m 503.0867,123.3532 c -2.258,0 -4.087,1.833 -4.087,4.091 0,2.257 1.829,4.09 4.087,4.09 2.262,0 4.094,-1.833 4.094,-4.09 0,-2.258 -1.832,-4.091 -4.094,-4.091 m 0,9.635 c -3.062,0 -5.541,-2.483 -5.541,-5.544 0,-3.062 2.479,-5.545 5.541,-5.545 3.065,0 5.549,2.483 5.549,5.545 0,3.061 -2.484,5.544 -5.549,5.544 m -33.3132,32.59 2.803,-4.978 h -5.606 z m 0,2.727 -5.454,-9.184 h 10.683 z M 439.566,124.717 h -5.879 v 5.879 h 5.879 z m -7.305,-1.636 h 8.788 v 9.061 h -8.788 z m 37.5125,-27.513 3.272,3.272 1.091,-1.09 -3.348,-3.349 3.136,-3.136 -0.969,-0.969 -3.137,3.136 -3.181,-3.182 -1.045,1.046 3.215,3.215 -3.242,3.242 1.042,1.042 z"
       id="path73"
       inkscape:connector-curvature="0"
       style="fill:#d0d2d3" />
    <path
       d="m 65.3574,41.1792 c -8.283,0 -14.999,6.716 -14.999,14.999 0,8.282 6.716,14.998 14.999,14.998 8.283,0 14.999,-6.716 14.999,-14.998 0,-8.283 -6.716,-14.999 -14.999,-14.999 m 0,31.633 c -9.188,0 -16.635,-7.446 -16.635,-16.634 0,-9.189 7.447,-16.635 16.635,-16.635 9.188,0 16.635,7.446 16.635,16.635 0,9.188 -7.447,16.634 -16.635,16.634"
       id="path75"
       inkscape:connector-curvature="0"
       style="fill:#0f0f12" />
    <path
       d="m 80.356,56.1778 c 0,-8.283 -6.716,-14.999 -14.999,-14.999 -8.282,0 -14.998,6.716 -14.998,14.999 0,8.283 6.716,14.999 14.998,14.999 8.283,0 14.999,-6.716 14.999,-14.999"
       id="path77"
       inkscape:connector-curvature="0"
       style="fill:#232323" />
    <path
       d="m 25.3158,47.724 c 0,1.431 1.16,2.591 2.591,2.591 1.43,0 2.59,-1.16 2.59,-2.591 0,-1.431 -1.16,-2.591 -2.59,-2.591 -1.431,0 -2.591,1.16 -2.591,2.591"
       id="path79"
       inkscape:connector-curvature="0"
       style="fill:#55bfa2" />
    <path
       d="m 16.9075,72.1763 c 0,1.406 1.14,2.545 2.545,2.545 1.406,0 2.545,-1.139 2.545,-2.545 0,-1.406 -1.139,-2.545 -2.545,-2.545 -1.405,0 -2.545,1.139 -2.545,2.545"
       id="path81"
       inkscape:connector-curvature="0"
       style="fill:#f6921e" />
    <path
       d="m 101.2195,135.9884 v -17.758 c 0,-1.873 -1.52,-3.393 -3.392,-3.393 h -14.054 c -0.585,0 -1.149,0.237 -1.563,0.651 l -9.127,9.225 c -1.33,1.32 -1.334,3.468 -0.014,4.796 l 9.166,9.206 c 0.426,0.425 1,0.665 1.6,0.665 h 13.992 c 1.872,0 3.392,-1.519 3.392,-3.392 m -25.343,-46.836 c 0.658,0.662 1.065,1.575 1.065,2.582 v 15.097 c 0,0.651 -0.258,1.269 -0.716,1.727 l -9.934,9.89 c -1.436,1.425 -3.752,1.422 -5.181,-0.011 l -9.948,-9.854 c -0.451,-0.443 -0.705,-1.054 -0.705,-1.687 v -15.162 c 0,-1.174 0.552,-2.218 1.41,-2.887 -12.471,3.771 -22.343,13.515 -26.295,25.907 0.64,-0.553 1.476,-0.888 2.388,-0.888 h 15.097 c 0.651,0 1.269,0.259 1.727,0.717 l 9.89,9.933 c 1.426,1.437 1.422,3.753 -0.011,5.182 l -9.853,9.948 c -0.444,0.451 -1.055,0.705 -1.687,0.705 h -15.163 c -0.803,0 -1.545,-0.258 -2.148,-0.694 4.021,11.795 13.442,21.092 25.317,24.939 -0.425,-0.596 -0.672,-1.327 -0.672,-2.112 v -15.097 c 0,-0.651 0.258,-1.269 0.716,-1.727 l 9.933,-9.89 c 1.437,-1.425 3.753,-1.422 5.182,0.011 l 9.948,9.853 c 0.451,0.444 0.705,1.055 0.705,1.687 v 15.163 c 0,0.672 -0.182,1.305 -0.501,1.847 11.537,-4.011 20.648,-13.203 24.561,-24.783 -0.629,0.501 -1.425,0.803 -2.291,0.803 h -15.097 c -0.65,0 -1.269,-0.258 -1.727,-0.716 l -9.89,-9.934 c -1.425,-1.436 -1.421,-3.752 0.011,-5.181 l 9.854,-9.948 c 0.443,-0.451 1.054,-0.706 1.687,-0.706 h 15.162 c 0.985,0 1.88,0.39 2.538,1.026 -3.821,-12.134 -13.315,-21.751 -25.372,-25.74 m -3.298,0.073 h -17.758 c -1.873,0 -3.393,1.52 -3.393,3.393 v 14.053 c 0,0.585 0.237,1.149 0.651,1.563 l 9.225,9.127 c 1.32,1.33 3.469,1.334 4.796,0.014 l 9.206,-9.166 c 0.426,-0.426 0.665,-1 0.665,-1.6 v -13.991 c 0,-1.873 -1.519,-3.393 -3.392,-3.393 m -47.126,46.763 c 0,1.873 1.519,3.392 3.392,3.392 h 14.053 c 0.586,0 1.149,-0.236 1.564,-0.65 l 9.126,-9.225 c 1.331,-1.32 1.335,-3.469 0.015,-4.796 l -9.167,-9.206 c -0.425,-0.426 -1,-0.666 -1.6,-0.666 h -13.991 c -1.873,0 -3.392,1.52 -3.392,3.393 z m 25.975,25.612 c 0,1.873 1.52,3.393 3.393,3.393 h 17.758 c 1.873,0 3.392,-1.52 3.392,-3.393 v -14.053 c 0,-0.586 -0.236,-1.149 -0.65,-1.564 l -9.225,-9.126 c -1.32,-1.331 -3.469,-1.334 -4.796,-0.015 l -9.206,9.167 c -0.426,0.425 -0.666,1 -0.666,1.6 z m 11.959,6.203 c -22.623,0 -40.963,-18.34 -40.963,-40.967 0,-22.623 18.34,-40.963 40.963,-40.963 22.627,0 40.967,18.34 40.967,40.963 0,22.627 -18.34,40.967 -40.967,40.967"
       id="path83"
       inkscape:connector-curvature="0"
       style="fill:#0f0f12" />
    <path
       d="m 53.6022,124.7094 -9.166,-9.206 c -0.426,-0.426 -1,-0.666 -1.6,-0.666 h -13.992 c -1.872,0 -3.392,1.52 -3.392,3.393 v 17.758 c 0,1.872 1.52,3.392 3.392,3.392 h 14.054 c 0.585,0 1.149,-0.236 1.563,-0.651 l 9.126,-9.224 c 1.331,-1.32 1.335,-3.469 0.015,-4.796"
       id="path85"
       inkscape:connector-curvature="0"
       style="fill:#232323" />
    <path
       d="m 34.8222,124.5058 -2.342,2.531 2.342,2.338 z m -4.007,2.847 v -0.454 l 5.181,-5.182 v 10.636 z"
       id="path87"
       inkscape:connector-curvature="0"
       style="fill:#d0d2d3" />
    <path
       d="m 101.2195,135.9884 v -17.758 c 0,-1.873 -1.52,-3.393 -3.392,-3.393 h -14.054 c -0.585,0 -1.149,0.237 -1.563,0.651 l -9.127,9.225 c -1.33,1.32 -1.334,3.468 -0.014,4.796 l 9.166,9.206 c 0.426,0.425 1,0.665 1.6,0.665 h 13.992 c 1.872,0 3.392,-1.519 3.392,-3.392"
       id="path89"
       inkscape:connector-curvature="0"
       style="fill:#232323" />
    <path
       d="m 91.8492,129.7126 2.342,-2.531 -2.342,-2.338 z m 4.007,-2.847 v 0.454 l -5.181,5.182 v -10.636 z"
       id="path91"
       inkscape:connector-curvature="0"
       style="fill:#d0d2d3" />
    <path
       d="m 75.9709,161.6004 v -14.053 c 0,-0.586 -0.236,-1.149 -0.651,-1.564 l -9.224,-9.126 c -1.32,-1.331 -3.469,-1.334 -4.796,-0.015 l -9.207,9.167 c -0.425,0.425 -0.665,1 -0.665,1.6 v 13.991 c 0,1.873 1.52,3.392 3.392,3.392 h 17.759 c 1.872,0 3.392,-1.519 3.392,-3.392"
       id="path93"
       inkscape:connector-curvature="0"
       style="fill:#232323" />
    <path
       d="m 61.0959,155.6227 2.531,2.342 2.338,-2.342 z m 2.847,4.007 h -0.454 l -5.182,-5.181 h 10.636 z"
       id="path95"
       inkscape:connector-curvature="0"
       style="fill:#d0d2d3" />
    <path
       d="m 75.9709,106.6093 v -13.991 c 0,-1.873 -1.52,-3.393 -3.392,-3.393 h -17.759 c -1.872,0 -3.392,1.52 -3.392,3.393 v 14.053 c 0,0.585 0.236,1.149 0.651,1.563 l 9.224,9.127 c 1.32,1.33 3.469,1.334 4.796,0.014 l 9.207,-9.166 c 0.425,-0.426 0.665,-1 0.665,-1.6"
       id="path97"
       inkscape:connector-curvature="0"
       style="fill:#232323" />
    <path
       d="m 66.3027,98.5957 -2.531,-2.342 -2.338,2.342 z m -2.847,-4.007 h 0.454 l 5.182,5.181 h -10.636 z"
       id="path99"
       inkscape:connector-curvature="0"
       style="fill:#d0d2d3" />
    <path
       d="m 89.8703,217.4352 c 0,0.837 0.678,1.515 1.515,1.515 0.837,0 1.515,-0.678 1.515,-1.515 0,-0.837 -0.678,-1.515 -1.515,-1.515 -0.837,0 -1.515,0.678 -1.515,1.515 m 3.2724,4.2268 c 0,0.837 0.678,1.515 1.515,1.515 0.837,0 1.515,-0.678 1.515,-1.515 0,-0.837 -0.678,-1.515 -1.515,-1.515 -0.837,0 -1.515,0.678 -1.515,1.515 m 4.9086,0 c 0,0.837 0.678,1.515 1.515,1.515 0.837,0 1.515,-0.678 1.515,-1.515 0,-0.837 -0.678,-1.515 -1.515,-1.515 -0.837,0 -1.515,0.678 -1.515,1.515 m 5.0298,0 c 0,0.837 0.678,1.515 1.515,1.515 0.837,0 1.515,-0.678 1.515,-1.515 0,-0.837 -0.678,-1.515 -1.515,-1.515 -0.837,0 -1.515,0.678 -1.515,1.515 m 4.7571,0 c 0,0.837 0.678,1.515 1.515,1.515 0.837,0 1.515,-0.678 1.515,-1.515 0,-0.837 -0.678,-1.515 -1.515,-1.515 -0.837,0 -1.515,0.678 -1.515,1.515 m 4.7572,0 c 0,0.837 0.678,1.515 1.515,1.515 0.837,0 1.515,-0.678 1.515,-1.515 0,-0.837 -0.678,-1.515 -1.515,-1.515 -0.837,0 -1.515,0.678 -1.515,1.515 m 4.7874,0 c 0,0.837 0.678,1.515 1.515,1.515 0.837,0 1.515,-0.678 1.515,-1.515 0,-0.837 -0.678,-1.515 -1.515,-1.515 -0.837,0 -1.515,0.678 -1.515,1.515 m 4.9086,0 c 0,0.837 0.678,1.515 1.515,1.515 0.837,0 1.515,-0.678 1.515,-1.515 0,-0.837 -0.678,-1.515 -1.515,-1.515 -0.837,0 -1.515,0.678 -1.515,1.515 m 4.545,0 c 0,0.837 0.678,1.515 1.515,1.515 0.837,0 1.515,-0.678 1.515,-1.515 0,-0.837 -0.678,-1.515 -1.515,-1.515 -0.837,0 -1.515,0.678 -1.515,1.515 m 4.9541,0 c 0,0.837 0.678,1.515 1.515,1.515 0.837,0 1.515,-0.678 1.515,-1.515 0,-0.837 -0.678,-1.515 -1.515,-1.515 -0.837,0 -1.515,0.678 -1.515,1.515 m 4.5905,0 c 0,0.837 0.678,1.515 1.515,1.515 0.837,0 1.515,-0.678 1.515,-1.515 0,-0.837 -0.678,-1.515 -1.515,-1.515 -0.837,0 -1.515,0.678 -1.515,1.515 m 4.9995,0 c 0,0.837 0.678,1.515 1.515,1.515 0.837,0 1.515,-0.678 1.515,-1.515 0,-0.837 -0.678,-1.515 -1.515,-1.515 -0.837,0 -1.515,0.678 -1.515,1.515 m 4.9086,0 c 0,0.837 0.678,1.515 1.515,1.515 0.837,0 1.515,-0.678 1.515,-1.515 0,-0.837 -0.678,-1.515 -1.515,-1.515 -0.837,0 -1.515,0.678 -1.515,1.515 m 4.8178,0 c 0,0.837 0.678,1.515 1.515,1.515 0.837,0 1.515,-0.678 1.515,-1.515 0,-0.837 -0.678,-1.515 -1.515,-1.515 -0.837,0 -1.515,0.678 -1.515,1.515 m 4.5904,0 c 0,0.837 0.678,1.515 1.515,1.515 0.837,0 1.515,-0.678 1.515,-1.515 0,-0.837 -0.678,-1.515 -1.515,-1.515 -0.837,0 -1.515,0.678 -1.515,1.515 m 5.0905,0 c 0,0.837 0.678,1.515 1.515,1.515 0.837,0 1.515,-0.678 1.515,-1.515 0,-0.837 -0.678,-1.515 -1.515,-1.515 -0.837,0 -1.515,0.678 -1.515,1.515 m 4.5904,0 c 0,0.837 0.678,1.515 1.515,1.515 0.837,0 1.515,-0.678 1.515,-1.515 0,-0.837 -0.678,-1.515 -1.515,-1.515 -0.837,0 -1.515,0.678 -1.515,1.515 m 4.7874,0 c 0,0.837 0.678,1.515 1.515,1.515 0.837,0 1.515,-0.678 1.515,-1.515 0,-0.837 -0.678,-1.515 -1.515,-1.515 -0.837,0 -1.515,0.678 -1.515,1.515 m 4.9087,0 c 0,0.837 0.678,1.515 1.515,1.515 0.837,0 1.515,-0.678 1.515,-1.515 0,-0.837 -0.678,-1.515 -1.515,-1.515 -0.837,0 -1.515,0.678 -1.515,1.515 m 4.545,0 c 0,0.837 0.678,1.515 1.515,1.515 0.837,0 1.515,-0.678 1.515,-1.515 0,-0.837 -0.678,-1.515 -1.515,-1.515 -0.837,0 -1.515,0.678 -1.515,1.515 m 5.0298,0 c 0,0.837 0.678,1.515 1.515,1.515 0.837,0 1.515,-0.678 1.515,-1.515 0,-0.837 -0.678,-1.515 -1.515,-1.515 -0.837,0 -1.515,0.678 -1.515,1.515 m 4.9692,0 c 0,0.837 0.678,1.515 1.515,1.515 0.837,0 1.515,-0.678 1.515,-1.515 0,-0.837 -0.678,-1.515 -1.515,-1.515 -0.837,0 -1.515,0.678 -1.515,1.515 m 4.5299,0 c 0,0.837 0.678,1.515 1.515,1.515 0.837,0 1.515,-0.678 1.515,-1.515 0,-0.837 -0.678,-1.515 -1.515,-1.515 -0.837,0 -1.515,0.678 -1.515,1.515 m 4.8177,0 c 0,0.837 0.678,1.515 1.515,1.515 0.837,0 1.515,-0.678 1.515,-1.515 0,-0.837 -0.678,-1.515 -1.515,-1.515 -0.837,0 -1.515,0.678 -1.515,1.515 m 4.8632,0 c 0,0.837 0.678,1.515 1.515,1.515 0.837,0 1.515,-0.678 1.515,-1.515 0,-0.837 -0.678,-1.515 -1.515,-1.515 -0.837,0 -1.515,0.678 -1.515,1.515 m 4.6359,0 c 0,0.837 0.678,1.515 1.515,1.515 0.837,0 1.515,-0.678 1.515,-1.515 0,-0.837 -0.678,-1.515 -1.515,-1.515 -0.837,0 -1.515,0.678 -1.515,1.515 m 4.9087,0 c 0,0.837 0.678,1.515 1.515,1.515 0.837,0 1.515,-0.678 1.515,-1.515 0,-0.837 -0.678,-1.515 -1.515,-1.515 -0.837,0 -1.515,0.678 -1.515,1.515 m 4.8177,0 c 0,0.837 0.678,1.515 1.515,1.515 0.837,0 1.515,-0.678 1.515,-1.515 0,-0.837 -0.678,-1.515 -1.515,-1.515 -0.837,0 -1.515,0.678 -1.515,1.515 m 4.8177,0 c 0,0.837 0.678,1.515 1.515,1.515 0.837,0 1.515,-0.678 1.515,-1.515 0,-0.837 -0.678,-1.515 -1.515,-1.515 -0.837,0 -1.515,0.678 -1.515,1.515 m 4.8177,0 c 0,0.837 0.678,1.515 1.515,1.515 0.837,0 1.515,-0.678 1.515,-1.515 0,-0.837 -0.678,-1.515 -1.515,-1.515 -0.837,0 -1.515,0.678 -1.515,1.515 m 4.636,0 c 0,0.837 0.678,1.515 1.515,1.515 0.837,0 1.515,-0.678 1.515,-1.515 0,-0.837 -0.678,-1.515 -1.515,-1.515 -0.837,0 -1.515,0.678 -1.515,1.515 m 4.8631,0 c 0,0.837 0.678,1.515 1.515,1.515 0.837,0 1.515,-0.678 1.515,-1.515 0,-0.837 -0.678,-1.515 -1.515,-1.515 -0.837,0 -1.515,0.678 -1.515,1.515 m 4.9541,0 c 0,0.837 0.678,1.515 1.515,1.515 0.837,0 1.515,-0.678 1.515,-1.515 0,-0.837 -0.678,-1.515 -1.515,-1.515 -0.837,0 -1.515,0.678 -1.515,1.515 m 4.6359,0 c 0,0.837 0.678,1.515 1.515,1.515 0.837,0 1.515,-0.678 1.515,-1.515 0,-0.837 -0.678,-1.515 -1.515,-1.515 -0.837,0 -1.515,0.678 -1.515,1.515 m 4.6814,0 c 0,0.837 0.678,1.515 1.515,1.515 0.837,0 1.515,-0.678 1.515,-1.515 0,-0.837 -0.678,-1.515 -1.515,-1.515 -0.837,0 -1.515,0.678 -1.515,1.515 m 4.9995,0 c 0,0.837 0.678,1.515 1.515,1.515 0.837,0 1.515,-0.678 1.515,-1.515 0,-0.837 -0.678,-1.515 -1.515,-1.515 -0.837,0 -1.515,0.678 -1.515,1.515 m 176.2484,0 c 0,-0.837 -0.678,-1.515 -1.515,-1.515 -0.837,0 -1.515,0.678 -1.515,1.515 0,0.837 0.678,1.515 1.515,1.515 0.837,0 1.515,-0.678 1.515,-1.515 m 4.5072,0 c 0,-0.837 -0.678,-1.515 -1.515,-1.515 -0.837,0 -1.515,0.678 -1.515,1.515 0,0.837 0.678,1.515 1.515,1.515 0.837,0 1.515,-0.678 1.515,-1.515 m -9.4158,0 c 0,-0.837 -0.678,-1.515 -1.515,-1.515 -0.837,0 -1.515,0.678 -1.515,1.515 0,0.837 0.678,1.515 1.515,1.515 0.837,0 1.515,-0.678 1.515,-1.515 m -5.0298,0 c 0,-0.837 -0.678,-1.515 -1.515,-1.515 -0.837,0 -1.515,0.678 -1.515,1.515 0,0.837 0.678,1.515 1.515,1.515 0.837,0 1.515,-0.678 1.515,-1.515 m -4.7571,0 c 0,-0.837 -0.678,-1.515 -1.515,-1.515 -0.837,0 -1.515,0.678 -1.515,1.515 0,0.837 0.678,1.515 1.515,1.515 0.837,0 1.515,-0.678 1.515,-1.515 m -4.7572,0 c 0,-0.837 -0.678,-1.515 -1.515,-1.515 -0.837,0 -1.515,0.678 -1.515,1.515 0,0.837 0.678,1.515 1.515,1.515 0.837,0 1.515,-0.678 1.515,-1.515 m -4.7874,0 c 0,-0.837 -0.678,-1.515 -1.515,-1.515 -0.837,0 -1.515,0.678 -1.515,1.515 0,0.837 0.678,1.515 1.515,1.515 0.837,0 1.515,-0.678 1.515,-1.515 m -4.9086,0 c 0,-0.837 -0.678,-1.515 -1.515,-1.515 -0.837,0 -1.515,0.678 -1.515,1.515 0,0.837 0.678,1.515 1.515,1.515 0.837,0 1.515,-0.678 1.515,-1.515 m -4.545,0 c 0,-0.837 -0.678,-1.515 -1.515,-1.515 -0.837,0 -1.515,0.678 -1.515,1.515 0,0.837 0.678,1.515 1.515,1.515 0.837,0 1.515,-0.678 1.515,-1.515 m -4.9541,0 c 0,-0.837 -0.678,-1.515 -1.515,-1.515 -0.837,0 -1.515,0.678 -1.515,1.515 0,0.837 0.678,1.515 1.515,1.515 0.837,0 1.515,-0.678 1.515,-1.515 m -4.5905,0 c 0,-0.837 -0.678,-1.515 -1.515,-1.515 -0.837,0 -1.515,0.678 -1.515,1.515 0,0.837 0.678,1.515 1.515,1.515 0.837,0 1.515,-0.678 1.515,-1.515 m -4.9995,0 c 0,-0.837 -0.678,-1.515 -1.515,-1.515 -0.837,0 -1.515,0.678 -1.515,1.515 0,0.837 0.678,1.515 1.515,1.515 0.837,0 1.515,-0.678 1.515,-1.515 m -4.9086,0 c 0,-0.837 -0.678,-1.515 -1.515,-1.515 -0.837,0 -1.515,0.678 -1.515,1.515 0,0.837 0.678,1.515 1.515,1.515 0.837,0 1.515,-0.678 1.515,-1.515 m -4.8178,0 c 0,-0.837 -0.678,-1.515 -1.515,-1.515 -0.837,0 -1.515,0.678 -1.515,1.515 0,0.837 0.678,1.515 1.515,1.515 0.837,0 1.515,-0.678 1.515,-1.515 m -4.5904,0 c 0,-0.837 -0.678,-1.515 -1.515,-1.515 -0.837,0 -1.515,0.678 -1.515,1.515 0,0.837 0.678,1.515 1.515,1.515 0.837,0 1.515,-0.678 1.515,-1.515 m -5.0905,0 c 0,-0.837 -0.678,-1.515 -1.515,-1.515 -0.837,0 -1.515,0.678 -1.515,1.515 0,0.837 0.678,1.515 1.515,1.515 0.837,0 1.515,-0.678 1.515,-1.515 m -4.5904,0 c 0,-0.837 -0.678,-1.515 -1.515,-1.515 -0.837,0 -1.515,0.678 -1.515,1.515 0,0.837 0.678,1.515 1.515,1.515 0.837,0 1.515,-0.678 1.515,-1.515 m -4.7875,0 c 0,-0.837 -0.678,-1.515 -1.515,-1.515 -0.837,0 -1.515,0.678 -1.515,1.515 0,0.837 0.678,1.515 1.515,1.515 0.837,0 1.515,-0.678 1.515,-1.515 m -4.9086,0 c 0,-0.837 -0.678,-1.515 -1.515,-1.515 -0.837,0 -1.515,0.678 -1.515,1.515 0,0.837 0.678,1.515 1.515,1.515 0.837,0 1.515,-0.678 1.515,-1.515 m -4.545,0 c 0,-0.837 -0.678,-1.515 -1.515,-1.515 -0.837,0 -1.515,0.678 -1.515,1.515 0,0.837 0.678,1.515 1.515,1.515 0.837,0 1.515,-0.678 1.515,-1.515 m -5.0298,0 c 0,-0.837 -0.678,-1.515 -1.515,-1.515 -0.837,0 -1.515,0.678 -1.515,1.515 0,0.837 0.678,1.515 1.515,1.515 0.837,0 1.515,-0.678 1.515,-1.515 m -4.9693,0 c 0,-0.837 -0.678,-1.515 -1.515,-1.515 -0.837,0 -1.515,0.678 -1.515,1.515 0,0.837 0.678,1.515 1.515,1.515 0.837,0 1.515,-0.678 1.515,-1.515 m -4.5298,0 c 0,-0.837 -0.678,-1.515 -1.515,-1.515 -0.837,0 -1.515,0.678 -1.515,1.515 0,0.837 0.678,1.515 1.515,1.515 0.837,0 1.515,-0.678 1.515,-1.515 m -4.8178,0 c 0,-0.837 -0.678,-1.515 -1.515,-1.515 -0.837,0 -1.515,0.678 -1.515,1.515 0,0.837 0.678,1.515 1.515,1.515 0.837,0 1.515,-0.678 1.515,-1.515 m -4.8631,0 c 0,-0.837 -0.678,-1.515 -1.515,-1.515 -0.837,0 -1.515,0.678 -1.515,1.515 0,0.837 0.678,1.515 1.515,1.515 0.837,0 1.515,-0.678 1.515,-1.515 m -4.6359,0 c 0,-0.837 -0.678,-1.515 -1.515,-1.515 -0.837,0 -1.515,0.678 -1.515,1.515 0,0.837 0.678,1.515 1.515,1.515 0.837,0 1.515,-0.678 1.515,-1.515 m -4.9087,0 c 0,-0.837 -0.678,-1.515 -1.515,-1.515 -0.837,0 -1.515,0.678 -1.515,1.515 0,0.837 0.678,1.515 1.515,1.515 0.837,0 1.515,-0.678 1.515,-1.515 m -4.8177,0 c 0,-0.837 -0.678,-1.515 -1.515,-1.515 -0.837,0 -1.515,0.678 -1.515,1.515 0,0.837 0.678,1.515 1.515,1.515 0.837,0 1.515,-0.678 1.515,-1.515 m -4.8177,0 c 0,-0.837 -0.678,-1.515 -1.515,-1.515 -0.837,0 -1.515,0.678 -1.515,1.515 0,0.837 0.678,1.515 1.515,1.515 0.837,0 1.515,-0.678 1.515,-1.515 m -4.8177,0 c 0,-0.837 -0.678,-1.515 -1.515,-1.515 -0.837,0 -1.515,0.678 -1.515,1.515 0,0.837 0.678,1.515 1.515,1.515 0.837,0 1.515,-0.678 1.515,-1.515 m -4.636,0 c 0,-0.837 -0.678,-1.515 -1.515,-1.515 -0.837,0 -1.515,0.678 -1.515,1.515 0,0.837 0.678,1.515 1.515,1.515 0.837,0 1.515,-0.678 1.515,-1.515 m -4.8631,0 c 0,-0.837 -0.678,-1.515 -1.515,-1.515 -0.837,0 -1.515,0.678 -1.515,1.515 0,0.837 0.678,1.515 1.515,1.515 0.837,0 1.515,-0.678 1.515,-1.515 m -4.9541,0 c 0,-0.837 -0.678,-1.515 -1.515,-1.515 -0.837,0 -1.515,0.678 -1.515,1.515 0,0.837 0.678,1.515 1.515,1.515 0.837,0 1.515,-0.678 1.515,-1.515 m -4.6359,0 c 0,-0.837 -0.678,-1.515 -1.515,-1.515 -0.837,0 -1.515,0.678 -1.515,1.515 0,0.837 0.678,1.515 1.515,1.515 0.837,0 1.515,-0.678 1.515,-1.515 m -4.6814,0 c 0,-0.837 -0.678,-1.515 -1.515,-1.515 -0.837,0 -1.515,0.678 -1.515,1.515 0,0.837 0.678,1.515 1.515,1.515 0.837,0 1.515,-0.678 1.515,-1.515 m -4.9995,0 c 0,-0.837 -0.678,-1.515 -1.515,-1.515 -0.837,0 -1.515,0.678 -1.515,1.515 0,0.837 0.678,1.515 1.515,1.515 0.837,0 1.515,-0.678 1.515,-1.515 m -8.0677,0 c 0,0.837 0.678,1.515 1.515,1.515 0.837,0 1.515,-0.678 1.515,-1.515 0,-0.837 -0.678,-1.515 -1.515,-1.515 -0.837,0 -1.515,0.678 -1.515,1.515 m -18.7858,3.8936 c 0,0.837 0.678,1.515 1.515,1.515 0.837,0 1.515,-0.678 1.515,-1.515 0,-0.837 -0.678,-1.515 -1.515,-1.515 -0.837,0 -1.515,0.678 -1.515,1.515 m 4.6359,0 c 0,0.837 0.678,1.515 1.515,1.515 0.837,0 1.515,-0.678 1.515,-1.515 0,-0.837 -0.678,-1.515 -1.515,-1.515 -0.837,0 -1.515,0.678 -1.515,1.515 m 4.6813,0 c 0,0.837 0.678,1.515 1.515,1.515 0.837,0 1.515,-0.678 1.515,-1.515 0,-0.837 -0.678,-1.515 -1.515,-1.515 -0.837,0 -1.515,0.678 -1.515,1.515 m 4.9996,0 c 0,0.837 0.678,1.515 1.515,1.515 0.837,0 1.515,-0.678 1.515,-1.515 0,-0.837 -0.678,-1.515 -1.515,-1.515 -0.837,0 -1.515,0.678 -1.515,1.515 m 173.7032,0 c 0,-0.837 -0.678,-1.515 -1.515,-1.515 -0.837,0 -1.515,0.678 -1.515,1.515 0,0.837 0.678,1.515 1.515,1.515 0.837,0 1.515,-0.678 1.515,-1.515 m 4.5071,0 c 0,-0.837 -0.678,-1.515 -1.515,-1.515 -0.837,0 -1.515,0.678 -1.515,1.515 0,0.837 0.678,1.515 1.515,1.515 0.837,0 1.515,-0.678 1.515,-1.515 m -9.4158,0 c 0,-0.837 -0.678,-1.515 -1.515,-1.515 -0.837,0 -1.515,0.678 -1.515,1.515 0,0.837 0.678,1.515 1.515,1.515 0.837,0 1.515,-0.678 1.515,-1.515 m -5.0298,0 c 0,-0.837 -0.678,-1.515 -1.515,-1.515 -0.837,0 -1.515,0.678 -1.515,1.515 0,0.837 0.678,1.515 1.515,1.515 0.837,0 1.515,-0.678 1.515,-1.515 m -4.7571,0 c 0,-0.837 -0.678,-1.515 -1.515,-1.515 -0.837,0 -1.515,0.678 -1.515,1.515 0,0.837 0.678,1.515 1.515,1.515 0.837,0 1.515,-0.678 1.515,-1.515 m -4.3935,0 c 0,-0.837 -0.678,-1.515 -1.515,-1.515 -0.837,0 -1.515,0.678 -1.515,1.515 0,0.837 0.678,1.515 1.515,1.515 0.837,0 1.515,-0.678 1.515,-1.515 m -4.7875,0 c 0,-0.837 -0.678,-1.515 -1.515,-1.515 -0.837,0 -1.515,0.678 -1.515,1.515 0,0.837 0.678,1.515 1.515,1.515 0.837,0 1.515,-0.678 1.515,-1.515 m -4.9086,0 c 0,-0.837 -0.678,-1.515 -1.515,-1.515 -0.837,0 -1.515,0.678 -1.515,1.515 0,0.837 0.678,1.515 1.515,1.515 0.837,0 1.515,-0.678 1.515,-1.515 m -4.545,0 c 0,-0.837 -0.678,-1.515 -1.515,-1.515 -0.837,0 -1.515,0.678 -1.515,1.515 0,0.837 0.678,1.515 1.515,1.515 0.837,0 1.515,-0.678 1.515,-1.515 m -4.9541,0 c 0,-0.837 -0.678,-1.515 -1.515,-1.515 -0.837,0 -1.515,0.678 -1.515,1.515 0,0.837 0.678,1.515 1.515,1.515 0.837,0 1.515,-0.678 1.515,-1.515 m -4.5904,0 c 0,-0.837 -0.678,-1.515 -1.515,-1.515 -0.837,0 -1.515,0.678 -1.515,1.515 0,0.837 0.678,1.515 1.515,1.515 0.837,0 1.515,-0.678 1.515,-1.515 m -4.636,0 c 0,-0.837 -0.678,-1.515 -1.515,-1.515 -0.837,0 -1.515,0.678 -1.515,1.515 0,0.837 0.678,1.515 1.515,1.515 0.837,0 1.515,-0.678 1.515,-1.515 m -4.9086,0 c 0,-0.837 -0.678,-1.515 -1.515,-1.515 -0.837,0 -1.515,0.678 -1.515,1.515 0,0.837 0.678,1.515 1.515,1.515 0.837,0 1.515,-0.678 1.515,-1.515 m -4.8177,0 c 0,-0.837 -0.678,-1.515 -1.515,-1.515 -0.837,0 -1.515,0.678 -1.515,1.515 0,0.837 0.678,1.515 1.515,1.515 0.837,0 1.515,-0.678 1.515,-1.515 m -4.5905,0 c 0,-0.837 -0.678,-1.515 -1.515,-1.515 -0.837,0 -1.515,0.678 -1.515,1.515 0,0.837 0.678,1.515 1.515,1.515 0.837,0 1.515,-0.678 1.515,-1.515 m -4.7268,0 c 0,-0.837 -0.678,-1.515 -1.515,-1.515 -0.837,0 -1.515,0.678 -1.515,1.515 0,0.837 0.678,1.515 1.515,1.515 0.837,0 1.515,-0.678 1.515,-1.515 m -4.5905,0 c 0,-0.837 -0.678,-1.515 -1.515,-1.515 -0.837,0 -1.515,0.678 -1.515,1.515 0,0.837 0.678,1.515 1.515,1.515 0.837,0 1.515,-0.678 1.515,-1.515 m -4.7874,0 c 0,-0.837 -0.678,-1.515 -1.515,-1.515 -0.837,0 -1.515,0.678 -1.515,1.515 0,0.837 0.678,1.515 1.515,1.515 0.837,0 1.515,-0.678 1.515,-1.515 m -4.9086,0 c 0,-0.837 -0.678,-1.515 -1.515,-1.515 -0.837,0 -1.515,0.678 -1.515,1.515 0,0.837 0.678,1.515 1.515,1.515 0.837,0 1.515,-0.678 1.515,-1.515 m -4.545,0 c 0,-0.837 -0.678,-1.515 -1.515,-1.515 -0.837,0 -1.515,0.678 -1.515,1.515 0,0.837 0.678,1.515 1.515,1.515 0.837,0 1.515,-0.678 1.515,-1.515 m -4.6663,0 c 0,-0.837 -0.678,-1.515 -1.515,-1.515 -0.837,0 -1.515,0.678 -1.515,1.515 0,0.837 0.678,1.515 1.515,1.515 0.837,0 1.515,-0.678 1.515,-1.515 m -4.9692,0 c 0,-0.837 -0.678,-1.515 -1.515,-1.515 -0.837,0 -1.515,0.678 -1.515,1.515 0,0.837 0.678,1.515 1.515,1.515 0.837,0 1.515,-0.678 1.515,-1.515 m -4.5299,0 c 0,-0.837 -0.678,-1.515 -1.515,-1.515 -0.837,0 -1.515,0.678 -1.515,1.515 0,0.837 0.678,1.515 1.515,1.515 0.837,0 1.515,-0.678 1.515,-1.515 m -4.8177,0 c 0,-0.837 -0.678,-1.515 -1.515,-1.515 -0.837,0 -1.515,0.678 -1.515,1.515 0,0.837 0.678,1.515 1.515,1.515 0.837,0 1.515,-0.678 1.515,-1.515 m -4.8632,0 c 0,-0.837 -0.678,-1.515 -1.515,-1.515 -0.837,0 -1.515,0.678 -1.515,1.515 0,0.837 0.678,1.515 1.515,1.515 0.837,0 1.515,-0.678 1.515,-1.515 m -4.6359,0 c 0,-0.837 -0.678,-1.515 -1.515,-1.515 -0.837,0 -1.515,0.678 -1.515,1.515 0,0.837 0.678,1.515 1.515,1.515 0.837,0 1.515,-0.678 1.515,-1.515 m -4.9086,0 c 0,-0.837 -0.678,-1.515 -1.515,-1.515 -0.837,0 -1.515,0.678 -1.515,1.515 0,0.837 0.678,1.515 1.515,1.515 0.837,0 1.515,-0.678 1.515,-1.515 m -4.4542,0 c 0,-0.837 -0.678,-1.515 -1.515,-1.515 -0.837,0 -1.515,0.678 -1.515,1.515 0,0.837 0.678,1.515 1.515,1.515 0.837,0 1.515,-0.678 1.515,-1.515 m -4.8177,0 c 0,-0.837 -0.678,-1.515 -1.515,-1.515 -0.837,0 -1.515,0.678 -1.515,1.515 0,0.837 0.678,1.515 1.515,1.515 0.837,0 1.515,-0.678 1.515,-1.515 m -4.8177,0 c 0,-0.837 -0.678,-1.515 -1.515,-1.515 -0.837,0 -1.515,0.678 -1.515,1.515 0,0.837 0.678,1.515 1.515,1.515 0.837,0 1.515,-0.678 1.515,-1.515 m -4.6359,0 c 0,-0.837 -0.678,-1.515 -1.515,-1.515 -0.837,0 -1.515,0.678 -1.515,1.515 0,0.837 0.678,1.515 1.515,1.515 0.837,0 1.515,-0.678 1.515,-1.515 m -4.8632,0 c 0,-0.837 -0.678,-1.515 -1.515,-1.515 -0.837,0 -1.515,0.678 -1.515,1.515 0,0.837 0.678,1.515 1.515,1.515 0.837,0 1.515,-0.678 1.515,-1.515 m -4.5905,0 c 0,-0.837 -0.678,-1.515 -1.515,-1.515 -0.837,0 -1.515,0.678 -1.515,1.515 0,0.837 0.678,1.515 1.515,1.515 0.837,0 1.515,-0.678 1.515,-1.515 m -4.9995,0 c 0,-0.837 -0.678,-1.515 -1.515,-1.515 -0.837,0 -1.515,0.678 -1.515,1.515 0,0.837 0.678,1.515 1.515,1.515 0.837,0 1.515,-0.678 1.515,-1.515 m -4.4923,0 c 0,-0.837 -0.678,-1.515 -1.515,-1.515 -0.837,0 -1.515,0.678 -1.515,1.515 0,0.837 0.678,1.515 1.515,1.515 0.837,0 1.515,-0.678 1.515,-1.515 m -4.825,0 c 0,-0.837 -0.678,-1.515 -1.515,-1.515 -0.837,0 -1.515,0.678 -1.515,1.515 0,0.837 0.678,1.515 1.515,1.515 0.837,0 1.515,-0.678 1.515,-1.515 m -7.7041,0 c 0,0.837 0.678,1.515 1.515,1.515 0.837,0 1.515,-0.678 1.515,-1.515 0,-0.837 -0.678,-1.515 -1.515,-1.515 -0.837,0 -1.515,0.678 -1.515,1.515 m -161.1851,0.0606 c 0,0.837 0.678,1.515 1.515,1.515 0.837,0 1.515,-0.678 1.515,-1.515 0,-0.837 -0.678,-1.515 -1.515,-1.515 -0.837,0 -1.515,0.678 -1.515,1.515 m -4.5072,0 c 0,0.837 0.678,1.515 1.515,1.515 0.837,0 1.515,-0.678 1.515,-1.515 0,-0.837 -0.678,-1.515 -1.515,-1.515 -0.837,0 -1.515,0.678 -1.515,1.515 m 9.4158,0 c 0,0.837 0.678,1.515 1.515,1.515 0.837,0 1.515,-0.678 1.515,-1.515 0,-0.837 -0.678,-1.515 -1.515,-1.515 -0.837,0 -1.515,0.678 -1.515,1.515 m 5.0298,0 c 0,0.837 0.678,1.515 1.515,1.515 0.837,0 1.515,-0.678 1.515,-1.515 0,-0.837 -0.678,-1.515 -1.515,-1.515 -0.837,0 -1.515,0.678 -1.515,1.515 m 4.7571,0 c 0,0.837 0.678,1.515 1.515,1.515 0.837,0 1.515,-0.678 1.515,-1.515 0,-0.837 -0.678,-1.515 -1.515,-1.515 -0.837,0 -1.515,0.678 -1.515,1.515 m 4.3936,0 c 0,0.837 0.678,1.515 1.515,1.515 0.837,0 1.515,-0.678 1.515,-1.515 0,-0.837 -0.678,-1.515 -1.515,-1.515 -0.837,0 -1.515,0.678 -1.515,1.515 m 4.7874,0 c 0,0.837 0.678,1.515 1.515,1.515 0.837,0 1.515,-0.678 1.515,-1.515 0,-0.837 -0.678,-1.515 -1.515,-1.515 -0.837,0 -1.515,0.678 -1.515,1.515 m 4.9086,0 c 0,0.837 0.678,1.515 1.515,1.515 0.837,0 1.515,-0.678 1.515,-1.515 0,-0.837 -0.678,-1.515 -1.515,-1.515 -0.837,0 -1.515,0.678 -1.515,1.515 m 4.545,0 c 0,0.837 0.678,1.515 1.515,1.515 0.837,0 1.515,-0.678 1.515,-1.515 0,-0.837 -0.678,-1.515 -1.515,-1.515 -0.837,0 -1.515,0.678 -1.515,1.515 m 4.9541,0 c 0,0.837 0.678,1.515 1.515,1.515 0.837,0 1.515,-0.678 1.515,-1.515 0,-0.837 -0.678,-1.515 -1.515,-1.515 -0.837,0 -1.515,0.678 -1.515,1.515 m 4.5905,0 c 0,0.837 0.678,1.515 1.515,1.515 0.837,0 1.515,-0.678 1.515,-1.515 0,-0.837 -0.678,-1.515 -1.515,-1.515 -0.837,0 -1.515,0.678 -1.515,1.515 m 4.6359,0 c 0,0.837 0.678,1.515 1.515,1.515 0.837,0 1.515,-0.678 1.515,-1.515 0,-0.837 -0.678,-1.515 -1.515,-1.515 -0.837,0 -1.515,0.678 -1.515,1.515 m 4.9086,0 c 0,0.837 0.678,1.515 1.515,1.515 0.837,0 1.515,-0.678 1.515,-1.515 0,-0.837 -0.678,-1.515 -1.515,-1.515 -0.837,0 -1.515,0.678 -1.515,1.515 m 4.8177,0 c 0,0.837 0.678,1.515 1.515,1.515 0.837,0 1.515,-0.678 1.515,-1.515 0,-0.837 -0.678,-1.515 -1.515,-1.515 -0.837,0 -1.515,0.678 -1.515,1.515 m 4.5905,0 c 0,0.837 0.678,1.515 1.515,1.515 0.837,0 1.515,-0.678 1.515,-1.515 0,-0.837 -0.678,-1.515 -1.515,-1.515 -0.837,0 -1.515,0.678 -1.515,1.515 m 4.7268,0 c 0,0.837 0.678,1.515 1.515,1.515 0.837,0 1.515,-0.678 1.515,-1.515 0,-0.837 -0.678,-1.515 -1.515,-1.515 -0.837,0 -1.515,0.678 -1.515,1.515 m 4.5905,0 c 0,0.837 0.678,1.515 1.515,1.515 0.837,0 1.515,-0.678 1.515,-1.515 0,-0.837 -0.678,-1.515 -1.515,-1.515 -0.837,0 -1.515,0.678 -1.515,1.515 m 4.7874,0 c 0,0.837 0.678,1.515 1.515,1.515 0.837,0 1.515,-0.678 1.515,-1.515 0,-0.837 -0.678,-1.515 -1.515,-1.515 -0.837,0 -1.515,0.678 -1.515,1.515 m 4.9087,0 c 0,0.837 0.678,1.515 1.515,1.515 0.837,0 1.515,-0.678 1.515,-1.515 0,-0.837 -0.678,-1.515 -1.515,-1.515 -0.837,0 -1.515,0.678 -1.515,1.515 m 4.545,0 c 0,0.837 0.678,1.515 1.515,1.515 0.837,0 1.515,-0.678 1.515,-1.515 0,-0.837 -0.678,-1.515 -1.515,-1.515 -0.837,0 -1.515,0.678 -1.515,1.515 m 4.6662,0 c 0,0.837 0.678,1.515 1.515,1.515 0.837,0 1.515,-0.678 1.515,-1.515 0,-0.837 -0.678,-1.515 -1.515,-1.515 -0.837,0 -1.515,0.678 -1.515,1.515 m 4.9692,0 c 0,0.837 0.678,1.515 1.515,1.515 0.837,0 1.515,-0.678 1.515,-1.515 0,-0.837 -0.678,-1.515 -1.515,-1.515 -0.837,0 -1.515,0.678 -1.515,1.515 m 4.5299,0 c 0,0.837 0.678,1.515 1.515,1.515 0.837,0 1.515,-0.678 1.515,-1.515 0,-0.837 -0.678,-1.515 -1.515,-1.515 -0.837,0 -1.515,0.678 -1.515,1.515 m 4.8177,0 c 0,0.837 0.678,1.515 1.515,1.515 0.837,0 1.515,-0.678 1.515,-1.515 0,-0.837 -0.678,-1.515 -1.515,-1.515 -0.837,0 -1.515,0.678 -1.515,1.515 m 4.8632,0 c 0,0.837 0.678,1.515 1.515,1.515 0.837,0 1.515,-0.678 1.515,-1.515 0,-0.837 -0.678,-1.515 -1.515,-1.515 -0.837,0 -1.515,0.678 -1.515,1.515 m 4.6359,0 c 0,0.837 0.678,1.515 1.515,1.515 0.837,0 1.515,-0.678 1.515,-1.515 0,-0.837 -0.678,-1.515 -1.515,-1.515 -0.837,0 -1.515,0.678 -1.515,1.515 m 4.9086,0 c 0,0.837 0.678,1.515 1.515,1.515 0.837,0 1.515,-0.678 1.515,-1.515 0,-0.837 -0.678,-1.515 -1.515,-1.515 -0.837,0 -1.515,0.678 -1.515,1.515 m 4.4542,0 c 0,0.837 0.678,1.515 1.515,1.515 0.837,0 1.515,-0.678 1.515,-1.515 0,-0.837 -0.678,-1.515 -1.515,-1.515 -0.837,0 -1.515,0.678 -1.515,1.515 m 4.8177,0 c 0,0.837 0.678,1.515 1.515,1.515 0.837,0 1.515,-0.678 1.515,-1.515 0,-0.837 -0.678,-1.515 -1.515,-1.515 -0.837,0 -1.515,0.678 -1.515,1.515 m 4.8177,0 c 0,0.837 0.678,1.515 1.515,1.515 0.837,0 1.515,-0.678 1.515,-1.515 0,-0.837 -0.678,-1.515 -1.515,-1.515 -0.837,0 -1.515,0.678 -1.515,1.515 m 4.6359,0 c 0,0.837 0.678,1.515 1.515,1.515 0.837,0 1.515,-0.678 1.515,-1.515 0,-0.837 -0.678,-1.515 -1.515,-1.515 -0.837,0 -1.515,0.678 -1.515,1.515 m -143.2401,-8.181 c 0,0.837 0.678,1.515 1.515,1.515 0.837,0 1.515,-0.678 1.515,-1.515 0,-0.837 -0.678,-1.515 -1.515,-1.515 -0.837,0 -1.515,0.678 -1.515,1.515 m 4.9086,0 c 0,0.837 0.678,1.515 1.515,1.515 0.837,0 1.515,-0.678 1.515,-1.515 0,-0.837 -0.678,-1.515 -1.515,-1.515 -0.837,0 -1.515,0.678 -1.515,1.515 m 5.0298,0 c 0,0.837 0.678,1.515 1.515,1.515 0.837,0 1.515,-0.678 1.515,-1.515 0,-0.837 -0.678,-1.515 -1.515,-1.515 -0.837,0 -1.515,0.678 -1.515,1.515 m 4.9693,0 c 0,0.837 0.678,1.515 1.515,1.515 0.837,0 1.515,-0.678 1.515,-1.515 0,-0.837 -0.678,-1.515 -1.515,-1.515 -0.837,0 -1.515,0.678 -1.515,1.515 m 4.7874,0 c 0,0.837 0.678,1.515 1.515,1.515 0.837,0 1.515,-0.678 1.515,-1.515 0,-0.837 -0.678,-1.515 -1.515,-1.515 -0.837,0 -1.515,0.678 -1.515,1.515 m 4.9086,0 c 0,0.837 0.678,1.515 1.515,1.515 0.837,0 1.515,-0.678 1.515,-1.515 0,-0.837 -0.678,-1.515 -1.515,-1.515 -0.837,0 -1.515,0.678 -1.515,1.515 m 5.0298,0 c 0,0.837 0.678,1.515 1.515,1.515 0.837,0 1.515,-0.678 1.515,-1.515 0,-0.837 -0.678,-1.515 -1.515,-1.515 -0.837,0 -1.515,0.678 -1.515,1.515 m 4.7268,0 c 0,0.837 0.678,1.515 1.515,1.515 0.837,0 1.515,-0.678 1.515,-1.515 0,-0.837 -0.678,-1.515 -1.515,-1.515 -0.837,0 -1.515,0.678 -1.515,1.515 m 4.7875,0 c 0,0.837 0.678,1.515 1.515,1.515 0.837,0 1.515,-0.678 1.515,-1.515 0,-0.837 -0.678,-1.515 -1.515,-1.515 -0.837,0 -1.515,0.678 -1.515,1.515 m 4.9086,0 c 0,0.837 0.678,1.515 1.515,1.515 0.837,0 1.515,-0.678 1.515,-1.515 0,-0.837 -0.678,-1.515 -1.515,-1.515 -0.837,0 -1.515,0.678 -1.515,1.515 m 5.0298,0 c 0,0.837 0.678,1.515 1.515,1.515 0.837,0 1.515,-0.678 1.515,-1.515 0,-0.837 -0.678,-1.515 -1.515,-1.515 -0.837,0 -1.515,0.678 -1.515,1.515 m 4.9692,0 c 0,0.837 0.678,1.515 1.515,1.515 0.837,0 1.515,-0.678 1.515,-1.515 0,-0.837 -0.678,-1.515 -1.515,-1.515 -0.837,0 -1.515,0.678 -1.515,1.515 m 4.7875,0 c 0,0.837 0.678,1.515 1.515,1.515 0.837,0 1.515,-0.678 1.515,-1.515 0,-0.837 -0.678,-1.515 -1.515,-1.515 -0.837,0 -1.515,0.678 -1.515,1.515 m 4.9086,0 c 0,0.837 0.678,1.515 1.515,1.515 0.837,0 1.515,-0.678 1.515,-1.515 0,-0.837 -0.678,-1.515 -1.515,-1.515 -0.837,0 -1.515,0.678 -1.515,1.515 m 5.0298,0 c 0,0.837 0.678,1.515 1.515,1.515 0.837,0 1.515,-0.678 1.515,-1.515 0,-0.837 -0.678,-1.515 -1.515,-1.515 -0.837,0 -1.515,0.678 -1.515,1.515 m 4.9692,0 c 0,0.837 0.678,1.515 1.515,1.515 0.837,0 1.515,-0.678 1.515,-1.515 0,-0.837 -0.678,-1.515 -1.515,-1.515 -0.837,0 -1.515,0.678 -1.515,1.515 m 4.7875,0 c 0,0.837 0.678,1.515 1.515,1.515 0.837,0 1.515,-0.678 1.515,-1.515 0,-0.837 -0.678,-1.515 -1.515,-1.515 -0.837,0 -1.515,0.678 -1.515,1.515 m 4.9086,0 c 0,0.837 0.678,1.515 1.515,1.515 0.837,0 1.515,-0.678 1.515,-1.515 0,-0.837 -0.678,-1.515 -1.515,-1.515 -0.837,0 -1.515,0.678 -1.515,1.515 m 5.0298,0 c 0,0.837 0.678,1.515 1.515,1.515 0.837,0 1.515,-0.678 1.515,-1.515 0,-0.837 -0.678,-1.515 -1.515,-1.515 -0.837,0 -1.515,0.678 -1.515,1.515 m 4.9692,0 c 0,0.837 0.678,1.515 1.515,1.515 0.837,0 1.515,-0.678 1.515,-1.515 0,-0.837 -0.678,-1.515 -1.515,-1.515 -0.837,0 -1.515,0.678 -1.515,1.515 m 4.7875,0 c 0,0.837 0.678,1.515 1.515,1.515 0.837,0 1.515,-0.678 1.515,-1.515 0,-0.837 -0.678,-1.515 -1.515,-1.515 -0.837,0 -1.515,0.678 -1.515,1.515 m 4.9086,0 c 0,0.837 0.678,1.515 1.515,1.515 0.837,0 1.515,-0.678 1.515,-1.515 0,-0.837 -0.678,-1.515 -1.515,-1.515 -0.837,0 -1.515,0.678 -1.515,1.515 m 5.0298,0 c 0,0.837 0.678,1.515 1.515,1.515 0.837,0 1.515,-0.678 1.515,-1.515 0,-0.837 -0.678,-1.515 -1.515,-1.515 -0.837,0 -1.515,0.678 -1.515,1.515 m 4.7268,0 c 0,0.837 0.678,1.515 1.515,1.515 0.837,0 1.515,-0.678 1.515,-1.515 0,-0.837 -0.678,-1.515 -1.515,-1.515 -0.837,0 -1.515,0.678 -1.515,1.515 m 4.7874,0 c 0,0.837 0.678,1.515 1.515,1.515 0.837,0 1.515,-0.678 1.515,-1.515 0,-0.837 -0.678,-1.515 -1.515,-1.515 -0.837,0 -1.515,0.678 -1.515,1.515 m 4.9087,0 c 0,0.837 0.678,1.515 1.515,1.515 0.837,0 1.515,-0.678 1.515,-1.515 0,-0.837 -0.678,-1.515 -1.515,-1.515 -0.837,0 -1.515,0.678 -1.515,1.515 m 5.0298,0 c 0,0.837 0.678,1.515 1.515,1.515 0.837,0 1.515,-0.678 1.515,-1.515 0,-0.837 -0.678,-1.515 -1.515,-1.515 -0.837,0 -1.515,0.678 -1.515,1.515 m 4.9692,0 c 0,0.837 0.678,1.515 1.515,1.515 0.837,0 1.515,-0.678 1.515,-1.515 0,-0.837 -0.678,-1.515 -1.515,-1.515 -0.837,0 -1.515,0.678 -1.515,1.515 m 4.7874,0 c 0,0.837 0.678,1.515 1.515,1.515 0.837,0 1.515,-0.678 1.515,-1.515 0,-0.837 -0.678,-1.515 -1.515,-1.515 -0.837,0 -1.515,0.678 -1.515,1.515 m 4.9087,0 c 0,0.837 0.678,1.515 1.515,1.515 0.837,0 1.515,-0.678 1.515,-1.515 0,-0.837 -0.678,-1.515 -1.515,-1.515 -0.837,0 -1.515,0.678 -1.515,1.515 m 5.0298,0 c 0,0.837 0.678,1.515 1.515,1.515 0.837,0 1.515,-0.678 1.515,-1.515 0,-0.837 -0.678,-1.515 -1.515,-1.515 -0.837,0 -1.515,0.678 -1.515,1.515 m 4.6205,0 c 0,0.837 0.678,1.515 1.515,1.515 0.837,0 1.515,-0.678 1.515,-1.515 0,-0.837 -0.678,-1.515 -1.515,-1.515 -0.837,0 -1.515,0.678 -1.515,1.515 m 4.7874,0 c 0,0.837 0.678,1.515 1.515,1.515 0.837,0 1.515,-0.678 1.515,-1.515 0,-0.837 -0.678,-1.515 -1.515,-1.515 -0.837,0 -1.515,0.678 -1.515,1.515 m 4.9086,0 c 0,0.837 0.678,1.515 1.515,1.515 0.837,0 1.515,-0.678 1.515,-1.515 0,-0.837 -0.678,-1.515 -1.515,-1.515 -0.837,0 -1.515,0.678 -1.515,1.515 m 5.0299,0 c 0,0.837 0.678,1.515 1.515,1.515 0.837,0 1.515,-0.678 1.515,-1.515 0,-0.837 -0.678,-1.515 -1.515,-1.515 -0.837,0 -1.515,0.678 -1.515,1.515 m 4.9692,0 c 0,0.837 0.678,1.515 1.515,1.515 0.837,0 1.515,-0.678 1.515,-1.515 0,-0.837 -0.678,-1.515 -1.515,-1.515 -0.837,0 -1.515,0.678 -1.515,1.515 m 4.7874,0 c 0,0.837 0.678,1.515 1.515,1.515 0.837,0 1.515,-0.678 1.515,-1.515 0,-0.837 -0.678,-1.515 -1.515,-1.515 -0.837,0 -1.515,0.678 -1.515,1.515 m 4.9086,0 c 0,0.837 0.678,1.515 1.515,1.515 0.837,0 1.515,-0.678 1.515,-1.515 0,-0.837 -0.678,-1.515 -1.515,-1.515 -0.837,0 -1.515,0.678 -1.515,1.515 m 5.0299,0 c 0,0.837 0.678,1.515 1.515,1.515 0.837,0 1.515,-0.678 1.515,-1.515 0,-0.837 -0.678,-1.515 -1.515,-1.515 -0.837,0 -1.515,0.678 -1.515,1.515 m 4.8331,0 c 0,0.837 0.678,1.515 1.515,1.515 0.837,0 1.515,-0.678 1.515,-1.515 0,-0.837 -0.678,-1.515 -1.515,-1.515 -0.837,0 -1.515,0.678 -1.515,1.515 m 4.7874,0 c 0,0.837 0.678,1.515 1.515,1.515 0.837,0 1.515,-0.678 1.515,-1.515 0,-0.837 -0.678,-1.515 -1.515,-1.515 -0.837,0 -1.515,0.678 -1.515,1.515 m 4.9087,0 c 0,0.837 0.678,1.515 1.515,1.515 0.837,0 1.515,-0.678 1.515,-1.515 0,-0.837 -0.678,-1.515 -1.515,-1.515 -0.837,0 -1.515,0.678 -1.515,1.515 m 5.0298,0 c 0,0.837 0.678,1.515 1.515,1.515 0.837,0 1.515,-0.678 1.515,-1.515 0,-0.837 -0.678,-1.515 -1.515,-1.515 -0.837,0 -1.515,0.678 -1.515,1.515 m 4.9692,0 c 0,0.837 0.678,1.515 1.515,1.515 0.837,0 1.515,-0.678 1.515,-1.515 0,-0.837 -0.678,-1.515 -1.515,-1.515 -0.837,0 -1.515,0.678 -1.515,1.515 m 4.7874,0 c 0,0.837 0.678,1.515 1.515,1.515 0.837,0 1.515,-0.678 1.515,-1.515 0,-0.837 -0.678,-1.515 -1.515,-1.515 -0.837,0 -1.515,0.678 -1.515,1.515 m 4.9087,0 c 0,0.837 0.678,1.515 1.515,1.515 0.837,0 1.515,-0.678 1.515,-1.515 0,-0.837 -0.678,-1.515 -1.515,-1.515 -0.837,0 -1.515,0.678 -1.515,1.515 m 5.0298,0 c 0,0.837 0.678,1.515 1.515,1.515 0.837,0 1.515,-0.678 1.515,-1.515 0,-0.837 -0.678,-1.515 -1.515,-1.515 -0.837,0 -1.515,0.678 -1.515,1.515 m 4.848,0 c 0,0.837 0.678,1.515 1.515,1.515 0.837,0 1.515,-0.678 1.515,-1.515 0,-0.837 -0.678,-1.515 -1.515,-1.515 -0.837,0 -1.515,0.678 -1.515,1.515 m 4.7875,0 c 0,0.837 0.678,1.515 1.515,1.515 0.837,0 1.515,-0.678 1.515,-1.515 0,-0.837 -0.678,-1.515 -1.515,-1.515 -0.837,0 -1.515,0.678 -1.515,1.515 m 4.9086,0 c 0,0.837 0.678,1.515 1.515,1.515 0.837,0 1.515,-0.678 1.515,-1.515 0,-0.837 -0.678,-1.515 -1.515,-1.515 -0.837,0 -1.515,0.678 -1.515,1.515 m 5.0298,0 c 0,0.837 0.678,1.515 1.515,1.515 0.837,0 1.515,-0.678 1.515,-1.515 0,-0.837 -0.678,-1.515 -1.515,-1.515 -0.837,0 -1.515,0.678 -1.515,1.515 m 4.9692,0 c 0,0.837 0.678,1.515 1.515,1.515 0.837,0 1.515,-0.678 1.515,-1.515 0,-0.837 -0.678,-1.515 -1.515,-1.515 -0.837,0 -1.515,0.678 -1.515,1.515 m 4.7874,0 c 0,0.837 0.678,1.515 1.515,1.515 0.837,0 1.515,-0.678 1.515,-1.515 0,-0.837 -0.678,-1.515 -1.515,-1.515 -0.837,0 -1.515,0.678 -1.515,1.515 m 4.9086,0 c 0,0.837 0.678,1.515 1.515,1.515 0.837,0 1.515,-0.678 1.515,-1.515 0,-0.837 -0.678,-1.515 -1.515,-1.515 -0.837,0 -1.515,0.678 -1.515,1.515 m 5.0299,0 c 0,0.837 0.678,1.515 1.515,1.515 0.837,0 1.515,-0.678 1.515,-1.515 0,-0.837 -0.678,-1.515 -1.515,-1.515 -0.837,0 -1.515,0.678 -1.515,1.515 m 4.7874,0 c 0,0.837 0.678,1.515 1.515,1.515 0.837,0 1.515,-0.678 1.515,-1.515 0,-0.837 -0.678,-1.515 -1.515,-1.515 -0.837,0 -1.515,0.678 -1.515,1.515 m 4.7874,0 c 0,0.837 0.678,1.515 1.515,1.515 0.837,0 1.515,-0.678 1.515,-1.515 0,-0.837 -0.678,-1.515 -1.515,-1.515 -0.837,0 -1.515,0.678 -1.515,1.515 m 4.9087,0 c 0,0.837 0.678,1.515 1.515,1.515 0.837,0 1.515,-0.678 1.515,-1.515 0,-0.837 -0.678,-1.515 -1.515,-1.515 -0.837,0 -1.515,0.678 -1.515,1.515 m 5.0298,0 c 0,0.837 0.678,1.515 1.515,1.515 0.837,0 1.515,-0.678 1.515,-1.515 0,-0.837 -0.678,-1.515 -1.515,-1.515 -0.837,0 -1.515,0.678 -1.515,1.515 m 4.9692,0 c 0,0.837 0.678,1.515 1.515,1.515 0.837,0 1.515,-0.678 1.515,-1.515 0,-0.837 -0.678,-1.515 -1.515,-1.515 -0.837,0 -1.515,0.678 -1.515,1.515 m 4.7874,0 c 0,0.837 0.678,1.515 1.515,1.515 0.837,0 1.515,-0.678 1.515,-1.515 0,-0.837 -0.678,-1.515 -1.515,-1.515 -0.837,0 -1.515,0.678 -1.515,1.515 m 4.9087,0 c 0,0.837 0.678,1.515 1.515,1.515 0.837,0 1.515,-0.678 1.515,-1.515 0,-0.837 -0.678,-1.515 -1.515,-1.515 -0.837,0 -1.515,0.678 -1.515,1.515 m 5.0298,0 c 0,0.837 0.678,1.515 1.515,1.515 0.837,0 1.515,-0.678 1.515,-1.515 0,-0.837 -0.678,-1.515 -1.515,-1.515 -0.837,0 -1.515,0.678 -1.515,1.515 m 4.545,0 c 0,0.837 0.678,1.515 1.515,1.515 0.837,0 1.515,-0.678 1.515,-1.515 0,-0.837 -0.678,-1.515 -1.515,-1.515 -0.837,0 -1.515,0.678 -1.515,1.515 m 4.7874,0 c 0,0.837 0.678,1.515 1.515,1.515 0.837,0 1.515,-0.678 1.515,-1.515 0,-0.837 -0.678,-1.515 -1.515,-1.515 -0.837,0 -1.515,0.678 -1.515,1.515 m 4.9087,0 c 0,0.837 0.678,1.515 1.515,1.515 0.837,0 1.515,-0.678 1.515,-1.515 0,-0.837 -0.678,-1.515 -1.515,-1.515 -0.837,0 -1.515,0.678 -1.515,1.515 m 5.0298,0 c 0,0.837 0.678,1.515 1.515,1.515 0.837,0 1.515,-0.678 1.515,-1.515 0,-0.837 -0.678,-1.515 -1.515,-1.515 -0.837,0 -1.515,0.678 -1.515,1.515 m 4.9692,0 c 0,0.837 0.678,1.515 1.515,1.515 0.837,0 1.515,-0.678 1.515,-1.515 0,-0.837 -0.678,-1.515 -1.515,-1.515 -0.837,0 -1.515,0.678 -1.515,1.515 m 4.7874,0 c 0,0.837 0.678,1.515 1.515,1.515 0.837,0 1.515,-0.678 1.515,-1.515 0,-0.837 -0.678,-1.515 -1.515,-1.515 -0.837,0 -1.515,0.678 -1.515,1.515 m 4.9087,0 c 0,0.837 0.678,1.515 1.515,1.515 0.837,0 1.515,-0.678 1.515,-1.515 0,-0.837 -0.678,-1.515 -1.515,-1.515 -0.837,0 -1.515,0.678 -1.515,1.515 m 5.0298,0 c 0,0.837 0.678,1.515 1.515,1.515 0.837,0 1.515,-0.678 1.515,-1.515 0,-0.837 -0.678,-1.515 -1.515,-1.515 -0.837,0 -1.515,0.678 -1.515,1.515"
       id="path101"
       inkscape:connector-curvature="0"
       style="fill:#0f0f12" />
    <path
       d="m 115.4583,17.5529 h -0.863 v 1.555 h -1.582 v -1.555 h -0.86 v 3.819 h 0.86 v -1.523 h 1.582 v 1.523 h 0.863 z m 2.5246,3.1424 c -0.302,0 -0.541,-0.113 -0.719,-0.339 -0.178,-0.227 -0.266,-0.527 -0.266,-0.899 0,-0.379 0.088,-0.678 0.266,-0.898 0.178,-0.22 0.41,-0.33 0.698,-0.33 0.296,0 0.531,0.107 0.705,0.321 0.174,0.214 0.261,0.511 0.261,0.891 0,0.396 -0.084,0.704 -0.253,0.924 -0.168,0.22 -0.399,0.33 -0.692,0.33 m -0.037,-3.209 c -0.547,0 -0.993,0.178 -1.337,0.534 -0.345,0.356 -0.517,0.82 -0.517,1.391 0,0.604 0.175,1.092 0.525,1.465 0.35,0.373 0.813,0.559 1.39,0.559 0.545,0 0.986,-0.178 1.322,-0.535 0.337,-0.357 0.505,-0.827 0.505,-1.411 0,-0.6 -0.175,-1.084 -0.523,-1.452 -0.349,-0.367 -0.804,-0.551 -1.365,-0.551 m 6.8732,0.0666 h -0.85 v 2.285 c 0,0.247 0.011,0.519 0.032,0.818 h -0.021 c -0.044,-0.235 -0.084,-0.404 -0.12,-0.506 l -0.895,-2.597 h -0.703 l -0.91,2.57 c -0.025,0.069 -0.065,0.247 -0.12,0.533 h -0.024 c 0.023,-0.377 0.034,-0.707 0.034,-0.991 v -2.112 h -0.775 v 3.819 h 1.26 l 0.78,-2.264 c 0.063,-0.181 0.108,-0.363 0.136,-0.546 h 0.016 c 0.048,0.212 0.099,0.395 0.152,0.552 l 0.78,2.258 h 1.228 z m 3.1584,0 h -2.29 v 3.819 h 2.202 v -0.701 h -1.342 v -0.849 h 1.249 v -0.698 h -1.249 v -0.873 h 1.43 z m 46.1379,2.6372 -1.316,-3.819 h -0.974 l -1.3,3.819 h 0.927 l 0.796,-2.658 c 0.043,-0.144 0.069,-0.271 0.077,-0.381 h 0.016 c 0.013,0.119 0.04,0.25 0.083,0.392 l 0.791,2.647 z m 2.1091,-0.6765 c -0.302,0 -0.541,-0.113 -0.719,-0.339 -0.178,-0.227 -0.266,-0.527 -0.266,-0.899 0,-0.379 0.088,-0.678 0.266,-0.898 0.178,-0.22 0.41,-0.33 0.698,-0.33 0.296,0 0.531,0.107 0.705,0.321 0.174,0.214 0.261,0.511 0.261,0.891 0,0.396 -0.084,0.704 -0.253,0.924 -0.168,0.22 -0.399,0.33 -0.692,0.33 m -0.037,-3.209 c -0.547,0 -0.993,0.178 -1.337,0.534 -0.345,0.356 -0.517,0.82 -0.517,1.391 0,0.604 0.175,1.092 0.525,1.465 0.35,0.373 0.813,0.559 1.39,0.559 0.545,0 0.986,-0.178 1.322,-0.535 0.337,-0.357 0.505,-0.827 0.505,-1.411 0,-0.6 -0.175,-1.084 -0.523,-1.452 -0.349,-0.367 -0.804,-0.551 -1.365,-0.551 m 4.796,0.0666 h -2.274 v 3.819 h 0.86 v -3.121 h 1.414 z m 189.2294,1.3111 v 0.909 c 0.165,-0.138 0.344,-0.242 0.537,-0.311 0.193,-0.069 0.388,-0.104 0.585,-0.104 0.115,0 0.216,0.011 0.303,0.032 0.086,0.02 0.158,0.049 0.215,0.086 0.058,0.037 0.101,0.081 0.13,0.131 0.028,0.05 0.042,0.104 0.042,0.163 0,0.08 -0.022,0.151 -0.068,0.213 -0.045,0.063 -0.107,0.12 -0.186,0.173 -0.079,0.053 -0.172,0.105 -0.28,0.154 -0.108,0.049 -0.224,0.099 -0.349,0.15 -0.318,0.133 -0.555,0.295 -0.712,0.486 -0.156,0.191 -0.234,0.422 -0.234,0.693 0,0.212 0.043,0.395 0.128,0.547 0.085,0.152 0.201,0.278 0.348,0.377 0.146,0.098 0.316,0.17 0.51,0.217 0.193,0.046 0.397,0.069 0.613,0.069 0.212,0 0.4,-0.012 0.564,-0.038 0.164,-0.025 0.315,-0.065 0.453,-0.118 v -0.849 c -0.068,0.047 -0.142,0.089 -0.223,0.125 -0.08,0.036 -0.163,0.066 -0.248,0.089 -0.086,0.024 -0.17,0.041 -0.255,0.053 -0.084,0.011 -0.164,0.017 -0.24,0.017 -0.104,0 -0.198,-0.01 -0.284,-0.03 -0.085,-0.02 -0.157,-0.048 -0.216,-0.084 -0.058,-0.036 -0.104,-0.079 -0.136,-0.129 -0.032,-0.05 -0.048,-0.106 -0.048,-0.169 0,-0.068 0.018,-0.129 0.054,-0.183 0.036,-0.054 0.087,-0.105 0.153,-0.154 0.066,-0.048 0.147,-0.095 0.242,-0.142 0.094,-0.046 0.201,-0.094 0.321,-0.143 0.162,-0.068 0.309,-0.141 0.438,-0.217 0.13,-0.077 0.241,-0.164 0.334,-0.26 0.093,-0.097 0.164,-0.207 0.213,-0.331 0.049,-0.124 0.074,-0.269 0.074,-0.433 0,-0.228 -0.043,-0.419 -0.129,-0.573 -0.086,-0.154 -0.203,-0.279 -0.351,-0.375 -0.148,-0.096 -0.319,-0.164 -0.515,-0.206 -0.197,-0.041 -0.404,-0.062 -0.621,-0.062 -0.224,0 -0.436,0.019 -0.638,0.057 -0.202,0.037 -0.376,0.094 -0.524,0.17 m 5.8914,-0.1562 h -2.443 v 4.073 h 2.349 v -0.747 h -1.431 v -0.906 h 1.332 v -0.744 h -1.332 v -0.932 h 1.525 z m 3.0793,0 h -2.426 v 4.073 h 0.918 v -3.329 h 1.508 z m 2.9912,0 h -2.443 v 4.073 h 2.349 v -0.747 h -1.431 v -0.906 h 1.332 v -0.744 h -1.332 v -0.932 h 1.525 z m 3.5735,0.1449 c -0.297,-0.144 -0.686,-0.216 -1.165,-0.216 -0.625,0 -1.116,0.184 -1.474,0.551 -0.358,0.368 -0.537,0.857 -0.537,1.469 0,0.651 0.201,1.18 0.604,1.585 0.402,0.405 0.924,0.608 1.566,0.608 0.398,0 0.733,-0.05 1.006,-0.151 v -0.883 c -0.273,0.163 -0.583,0.244 -0.932,0.244 -0.382,0 -0.691,-0.12 -0.926,-0.361 -0.235,-0.24 -0.352,-0.566 -0.352,-0.977 0,-0.394 0.111,-0.708 0.332,-0.942 0.222,-0.234 0.52,-0.35 0.895,-0.35 0.358,0 0.686,0.087 0.983,0.261 z m 3.5707,3.1815 h -1.162 v -3.326 h -0.92 v 3.326 h -1.156 v 0.747 h 3.238 z m 15.7996,-3.1702 v 0.909 c 0.165,-0.138 0.344,-0.242 0.537,-0.311 0.193,-0.069 0.388,-0.104 0.585,-0.104 0.115,0 0.216,0.011 0.303,0.032 0.086,0.02 0.158,0.049 0.215,0.086 0.058,0.037 0.101,0.081 0.13,0.131 0.028,0.05 0.042,0.104 0.042,0.163 0,0.08 -0.022,0.151 -0.068,0.213 -0.045,0.063 -0.107,0.12 -0.186,0.173 -0.079,0.053 -0.172,0.105 -0.28,0.154 -0.108,0.049 -0.224,0.099 -0.349,0.15 -0.318,0.133 -0.555,0.295 -0.712,0.486 -0.156,0.191 -0.234,0.422 -0.234,0.693 0,0.212 0.043,0.395 0.128,0.547 0.085,0.152 0.201,0.278 0.348,0.377 0.146,0.098 0.317,0.17 0.51,0.217 0.193,0.046 0.397,0.069 0.613,0.069 0.212,0 0.4,-0.012 0.564,-0.038 0.164,-0.025 0.315,-0.065 0.453,-0.118 v -0.849 c -0.068,0.047 -0.142,0.089 -0.223,0.125 -0.08,0.036 -0.163,0.066 -0.248,0.089 -0.086,0.024 -0.17,0.041 -0.255,0.053 -0.084,0.011 -0.164,0.017 -0.24,0.017 -0.104,0 -0.198,-0.01 -0.284,-0.03 -0.085,-0.02 -0.157,-0.048 -0.216,-0.084 -0.058,-0.036 -0.104,-0.079 -0.136,-0.129 -0.032,-0.05 -0.048,-0.106 -0.048,-0.169 0,-0.068 0.018,-0.129 0.054,-0.183 0.036,-0.054 0.087,-0.105 0.153,-0.154 0.066,-0.048 0.147,-0.095 0.242,-0.142 0.094,-0.046 0.201,-0.094 0.321,-0.143 0.162,-0.068 0.309,-0.141 0.438,-0.217 0.13,-0.077 0.241,-0.164 0.334,-0.26 0.093,-0.097 0.164,-0.207 0.213,-0.331 0.049,-0.124 0.074,-0.269 0.074,-0.433 0,-0.228 -0.043,-0.419 -0.129,-0.573 -0.086,-0.154 -0.203,-0.279 -0.351,-0.375 -0.148,-0.096 -0.319,-0.164 -0.515,-0.206 -0.196,-0.041 -0.404,-0.062 -0.621,-0.062 -0.224,0 -0.436,0.019 -0.638,0.057 -0.202,0.037 -0.376,0.094 -0.524,0.17 m 6.3091,3.1702 h -1.162 v -3.326 h -0.92 v 3.326 h -1.156 v 0.747 h 3.238 z m 2.6304,-1.7158 -0.437,1.369 c -0.033,0.102 -0.056,0.225 -0.069,0.367 h -0.022 c -0.01,-0.12 -0.034,-0.238 -0.071,-0.355 l -0.444,-1.381 z m 1.5,-1.611 h -1 l -0.29,0.907 h -1.449 l -0.286,-0.907 h -0.995 l 1.483,4.074 h 1.088 z m 1.4259,3.3864 v -1.133 h 0.398 c 0.197,0 0.355,0.056 0.474,0.17 0.121,0.115 0.182,0.259 0.182,0.429 0,0.356 -0.213,0.534 -0.639,0.534 z m 2.5,-3.386 h -1.054 l -0.634,1.048 c -0.047,0.08 -0.092,0.151 -0.136,0.213 -0.044,0.063 -0.088,0.116 -0.132,0.161 -0.045,0.044 -0.091,0.078 -0.139,0.102 -0.048,0.024 -0.101,0.035 -0.158,0.035 h -0.247 v -1.559 h -0.918 v 4.073 h 1.455 c 0.988,0 1.483,-0.369 1.483,-1.107 0,-0.142 -0.022,-0.274 -0.066,-0.394 -0.043,-0.12 -0.105,-0.229 -0.184,-0.325 -0.08,-0.097 -0.176,-0.18 -0.289,-0.25 -0.112,-0.07 -0.238,-0.125 -0.376,-0.165 v -0.011 c 0.061,-0.019 0.119,-0.05 0.176,-0.093 0.057,-0.042 0.112,-0.092 0.165,-0.149 0.053,-0.056 0.104,-0.118 0.152,-0.183 0.048,-0.065 0.092,-0.129 0.132,-0.192 z m 3.2409,3.3264 h -1.162 v -3.326 h -0.92 v 3.326 h -1.156 v 0.747 h 3.238 z m 64.2789,52.7043 v -1.27 h 0.361 c 0.488,0 0.733,0.214 0.733,0.642 0,0.419 -0.245,0.628 -0.733,0.628 z m 0,-1.966 v -1.403 h -0.918 v 4.073 h 1.438 c 1.026,0 1.539,-0.432 1.539,-1.298 0,-0.409 -0.147,-0.74 -0.441,-0.993 -0.295,-0.252 -0.688,-0.379 -1.181,-0.379 z m 4.4172,1.949 c -0.322,0 -0.578,-0.121 -0.767,-0.362 -0.189,-0.242 -0.284,-0.561 -0.284,-0.959 0,-0.403 0.095,-0.722 0.284,-0.957 0.189,-0.235 0.437,-0.352 0.744,-0.352 0.317,0 0.567,0.114 0.753,0.342 0.186,0.228 0.278,0.545 0.278,0.95 0,0.422 -0.089,0.751 -0.269,0.986 -0.18,0.234 -0.427,0.352 -0.739,0.352 m -0.04,-3.423 c -0.583,0 -1.058,0.19 -1.426,0.57 -0.367,0.379 -0.551,0.874 -0.551,1.484 0,0.644 0.187,1.164 0.56,1.562 0.373,0.398 0.867,0.597 1.483,0.597 0.581,0 1.051,-0.191 1.41,-0.571 0.359,-0.381 0.538,-0.883 0.538,-1.506 0,-0.64 -0.186,-1.156 -0.558,-1.548 -0.372,-0.392 -0.857,-0.588 -1.456,-0.588 m 8.0193,4.1445 -1.077,-4.073 h -1.017 l -0.676,2.613 c -0.035,0.136 -0.058,0.289 -0.065,0.457 h -0.011 c -0.017,-0.185 -0.042,-0.338 -0.074,-0.457 l -0.693,-2.613 h -1.06 l -1.071,4.073 h 1.003 l 0.574,-2.713 c 0.024,-0.115 0.042,-0.271 0.054,-0.466 h 0.017 c 0.007,0.146 0.035,0.305 0.082,0.478 l 0.739,2.701 h 0.983 l 0.667,-2.736 c 0.025,-0.1 0.047,-0.246 0.065,-0.437 h 0.012 c 0.007,0.15 0.027,0.301 0.06,0.455 l 0.562,2.718 z m 2.96,-4.0735 h -2.443 v 4.073 h 2.349 v -0.747 h -1.431 v -0.906 h 1.332 v -0.744 h -1.332 v -0.932 h 1.525 z m 1.5709,3.3861 v -1.133 h 0.398 c 0.197,0 0.355,0.056 0.474,0.17 0.121,0.115 0.182,0.259 0.182,0.429 0,0.356 -0.213,0.534 -0.639,0.534 z m 2.5,-3.386 h -1.054 l -0.634,1.048 c -0.047,0.08 -0.092,0.151 -0.136,0.213 -0.044,0.063 -0.088,0.116 -0.132,0.161 -0.044,0.044 -0.091,0.078 -0.139,0.102 -0.048,0.024 -0.101,0.035 -0.158,0.035 h -0.247 v -1.559 h -0.918 v 4.073 h 1.455 c 0.988,0 1.483,-0.369 1.483,-1.107 0,-0.142 -0.022,-0.274 -0.066,-0.394 -0.043,-0.12 -0.105,-0.229 -0.184,-0.325 -0.08,-0.097 -0.176,-0.18 -0.289,-0.25 -0.112,-0.07 -0.238,-0.125 -0.376,-0.165 v -0.011 c 0.061,-0.019 0.119,-0.05 0.176,-0.093 0.057,-0.042 0.112,-0.092 0.165,-0.149 0.053,-0.056 0.104,-0.118 0.152,-0.183 0.048,-0.065 0.092,-0.129 0.132,-0.192 z M 485.3392,46.281 h -0.92 v 1.659 h -1.688 v -1.659 h -0.917 v 4.073 h 0.917 V 48.73 h 1.688 v 1.624 h 0.92 z m 2.6929,3.3519 c -0.322,0 -0.578,-0.121 -0.767,-0.362 -0.189,-0.242 -0.284,-0.561 -0.284,-0.959 0,-0.403 0.095,-0.722 0.284,-0.957 0.189,-0.235 0.437,-0.352 0.744,-0.352 0.317,0 0.567,0.114 0.753,0.342 0.186,0.228 0.278,0.545 0.278,0.95 0,0.422 -0.089,0.751 -0.269,0.986 -0.18,0.234 -0.427,0.352 -0.739,0.352 m -0.04,-3.423 c -0.583,0 -1.058,0.19 -1.426,0.57 -0.367,0.379 -0.551,0.874 -0.551,1.484 0,0.644 0.187,1.164 0.56,1.562 0.373,0.398 0.867,0.597 1.483,0.597 0.581,0 1.051,-0.191 1.41,-0.571 0.359,-0.381 0.538,-0.883 0.538,-1.506 0,-0.64 -0.186,-1.156 -0.558,-1.548 -0.372,-0.392 -0.857,-0.588 -1.456,-0.588 m 5.1162,0.0711 h -2.426 v 4.073 h 0.918 v -3.329 h 1.508 z m 1.4658,3.3264 v -2.582 h 0.454 c 0.398,0 0.71,0.119 0.936,0.358 0.227,0.238 0.34,0.563 0.34,0.974 0,0.388 -0.112,0.694 -0.337,0.916 -0.224,0.223 -0.539,0.334 -0.944,0.334 z m -0.918,-3.326 v 4.073 h 1.444 c 1.446,0 2.17,-0.662 2.17,-1.986 0,-0.634 -0.198,-1.141 -0.593,-1.519 -0.394,-0.379 -0.92,-0.568 -1.577,-0.568 z M 299.9739,24.6385 v 3.633 h -19.197 v 1.038 h 20.649 v -6.099 h -18.849 v -5.038 h -1.804 v 6.466 z m -62.8301,3.5907 v 1.091 h 20.306 c 0.041,-0.94 0.013,-1.949 0.018,-2.954 0.005,-1.02 10e-4,-2.04 10e-4,-3.116 h -18.812 c -0.186,-0.859 -0.07,-1.693 -0.091,-2.514 -0.021,-0.838 -0.004,-1.678 -0.004,-2.574 h -1.368 v 6.434 h 19.094 v 3.633 z m 19.9937,-10.0659 v 1.335 h 9.782 c 0.006,3.288 0,6.522 0.004,9.815 h 11.601 v -0.972 h -9.917 c -0.093,-0.098 -0.142,-0.136 -0.174,-0.186 -0.029,-0.046 -0.054,-0.105 -0.054,-0.158 -0.003,-3.258 -0.003,-6.515 -0.003,-9.834 z M 47.554,187.2486 c -0.917,0.293 -1.814,0.58 -2.723,0.87 v 11.803 c 0.457,-0.105 0.907,-0.189 1.346,-0.313 0.79,-0.223 1.578,-0.453 2.357,-0.711 0.644,-0.213 1.264,-0.483 1.811,-0.904 0.526,-0.404 0.849,-0.93 1.036,-1.553 0.156,-0.517 0.171,-1.053 0.161,-1.583 -0.01,-0.573 -0.102,-1.138 -0.452,-1.625 -0.417,-0.579 -0.965,-0.76 -1.652,-0.651 -0.242,0.039 -0.475,0.126 -0.716,0.177 -0.161,0.035 -0.203,0.12 -0.202,0.279 0.006,1.332 0.005,2.664 0.002,3.996 -10e-4,0.335 -0.134,0.59 -0.457,0.737 -0.211,0.096 -0.416,0.021 -0.508,-0.362 -0.014,-0.059 -0.003,-0.125 -0.003,-0.189 z"
       id="path103"
       inkscape:connector-curvature="0"
       style="fill:#d0d2d3" />
    <path
       d="m 47.9765,189.9628 c 0,0.549 -0.003,1.06 0.005,1.57 0.001,0.046 0.07,0.118 0.118,0.13 0.606,0.146 1.208,0.336 1.823,0.407 0.61,0.071 1.235,0.025 1.853,0.018 0.568,-0.006 1.12,-0.125 1.659,-0.297 0.467,-0.148 0.954,-0.267 1.341,-0.588 0.425,-0.351 0.439,-0.821 -0.118,-1.22 -0.495,-0.353 -1.067,-0.528 -1.628,-0.729 -1.444,-0.518 -2.887,-1.037 -4.33,-1.555 -0.231,-0.083 -0.461,-0.166 -0.723,-0.26 0,0.521 -0.005,1.009 0.007,1.496 0.002,0.056 0.091,0.136 0.156,0.159 1.075,0.386 2.153,0.763 3.229,1.145 0.348,0.123 0.695,0.251 1.039,0.386 0.074,0.029 0.161,0.082 0.191,0.148 0.027,0.056 0.002,0.196 -0.037,0.213 -0.148,0.064 -0.308,0.108 -0.469,0.133 -0.719,0.113 -1.355,-0.194 -2.006,-0.417 -0.692,-0.237 -1.381,-0.483 -2.11,-0.739 m -3.6196,2.8604 c 0,-0.527 0.004,-1.017 -0.006,-1.507 -0.001,-0.051 -0.073,-0.127 -0.128,-0.147 -0.874,-0.315 -1.752,-0.621 -2.627,-0.934 -0.096,-0.034 -0.188,-0.087 -0.268,-0.149 -0.051,-0.04 -0.114,-0.119 -0.105,-0.168 0.01,-0.056 0.086,-0.118 0.148,-0.143 0.383,-0.154 0.786,-0.174 1.176,-0.06 0.562,0.165 1.112,0.369 1.669,0.553 0.037,0.013 0.082,0.002 0.131,0.002 v -1.463 c -0.756,-0.028 -1.506,-0.106 -2.25,-0.067 -0.605,0.031 -1.208,0.179 -1.8,0.323 -0.374,0.092 -0.743,0.24 -1.082,0.423 -0.185,0.099 -0.371,0.3 -0.437,0.495 -0.146,0.437 0.01,0.595 0.37,0.836 0.316,0.21 0.672,0.371 1.028,0.508 0.829,0.319 1.668,0.613 2.505,0.912 0.457,0.164 0.918,0.319 1.377,0.479 0.092,0.031 0.183,0.065 0.299,0.107 m 385.5653,0.2228 c 0.169,1.448 1.209,2.006 2.439,2.305 1.324,0.323 2.669,0.347 4.001,0.019 0.352,-0.086 0.694,-0.23 1.022,-0.388 0.515,-0.247 0.552,-0.24 0.66,0.338 h 1.188 v -2.707 h -1.095 c -0.378,0.936 -1.162,1.402 -2.057,1.709 -1.038,0.357 -2.092,0.375 -3.138,0.02 -0.191,-0.065 -0.382,-0.157 -0.542,-0.278 -0.423,-0.319 -0.402,-0.79 0.083,-0.996 0.46,-0.194 0.958,-0.314 1.451,-0.405 1.268,-0.236 2.548,-0.413 3.812,-0.667 0.399,-0.08 0.79,-0.287 1.141,-0.505 1.184,-0.734 0.898,-2.169 0.307,-2.814 -0.61,-0.665 -1.417,-0.905 -2.262,-1.071 -0.071,-0.014 -0.139,-0.044 -0.209,-0.066 h -2.785 c -0.058,0.022 -0.115,0.047 -0.175,0.065 -0.626,0.188 -1.261,0.35 -1.876,0.569 -0.443,0.158 -0.464,0.174 -0.608,-0.27 -0.025,-0.075 -0.105,-0.184 -0.163,-0.187 -0.371,-0.017 -0.742,-0.008 -1.107,-0.008 v 2.84 c 0.332,0 0.644,0.009 0.955,-0.006 0.076,-0.004 0.182,-0.071 0.216,-0.139 0.457,-0.903 1.24,-1.367 2.173,-1.633 0.851,-0.243 1.723,-0.281 2.592,-0.175 0.408,0.049 0.825,0.173 1.19,0.357 0.176,0.088 0.328,0.393 0.33,0.6 0.001,0.167 -0.22,0.359 -0.381,0.496 -0.105,0.09 -0.274,0.122 -0.42,0.148 -1.09,0.199 -2.184,0.37 -3.269,0.589 -0.776,0.157 -1.55,0.342 -2.304,0.578 -0.485,0.152 -0.847,0.509 -1.03,1.006 -0.058,0.156 -0.093,0.321 -0.139,0.482 z m 20.0283,-1.5061 c -10e-4,0.787 -0.173,1.514 -0.676,2.144 -0.974,1.22 -3.292,1.221 -4.422,0.391 -0.999,-0.734 -1.215,-1.782 -1.1,-2.934 0.104,-1.042 0.548,-1.888 1.558,-2.313 1.043,-0.439 2.111,-0.423 3.137,0.039 1.138,0.511 1.489,1.508 1.503,2.673 m -4.223,-4 c -0.584,0.134 -1.181,0.227 -1.749,0.409 -0.989,0.317 -1.837,0.858 -2.38,1.779 -1.044,1.769 -0.397,4.028 1.455,5.064 1.211,0.677 2.537,0.856 3.899,0.851 1.243,-0.004 2.446,-0.201 3.56,-0.784 1.009,-0.527 1.768,-1.283 2.011,-2.432 0.384,-1.819 -0.466,-3.45 -2.179,-4.236 -0.709,-0.325 -1.458,-0.511 -2.234,-0.59 -0.083,-0.008 -0.164,-0.04 -0.245,-0.061 z m 7.2177,6.7859 v 0.979 h 0.721 c 0.983,0 1.965,-0.008 2.947,0.006 0.237,0.003 0.405,-0.074 0.571,-0.232 1.483,-1.398 2.971,-2.791 4.458,-4.185 0.023,-0.021 0.052,-0.036 0.107,-0.074 0.014,0.084 0.034,0.149 0.034,0.215 0.005,0.895 0.008,1.791 0.009,2.687 0.001,0.407 -0.083,0.524 -0.487,0.579 -0.318,0.043 -0.642,0.035 -0.982,0.051 v 0.927 h 4.411 v -0.954 c -0.257,0 -0.514,0.019 -0.767,-0.004 -0.481,-0.045 -0.589,-0.18 -0.589,-0.664 v -5.993 c -0.571,0 -1.118,-0.006 -1.665,0.007 -0.081,0.002 -0.173,0.077 -0.239,0.139 -1.201,1.132 -2.399,2.267 -3.599,3.401 -0.602,0.569 -1.205,1.137 -1.842,1.736 -0.018,-0.113 -0.039,-0.181 -0.039,-0.249 -0.002,-1.144 -0.003,-2.288 0.002,-3.432 0.002,-0.49 0.142,-0.636 0.632,-0.656 0.301,-0.013 0.603,-0.003 0.928,-0.003 v -0.925 h -4.607 v 0.924 c 0.263,0 0.526,-0.002 0.789,0.001 0.644,0.006 0.768,0.132 0.768,0.779 0.001,1.425 0.001,2.85 0.001,4.275 0,0.483 -0.106,0.617 -0.593,0.66 -0.31,0.027 -0.624,0.005 -0.969,0.005 m 20.9541,-5.655 v -0.942 h -5.545 v 0.944 c 0.309,0 0.618,-0.009 0.926,0.002 0.573,0.019 0.674,0.129 0.675,0.694 0,0.022 -0.004,0.044 0,0.065 0.163,0.919 -0.189,1.609 -0.851,2.247 -0.751,0.724 -1.391,1.561 -2.117,2.313 -0.18,0.187 -0.499,0.259 -0.769,0.334 -0.178,0.049 -0.381,0.009 -0.592,0.009 v 0.98 h 5.019 v -0.977 c -0.186,0 -0.377,0.014 -0.565,-0.003 -0.296,-0.026 -0.369,-0.179 -0.176,-0.398 0.471,-0.533 0.953,-1.057 1.441,-1.575 0.155,-0.165 0.339,-0.175 0.508,0.004 0.494,0.527 0.993,1.049 1.481,1.582 0.064,0.071 0.124,0.212 0.094,0.283 -0.025,0.063 -0.175,0.093 -0.274,0.105 -0.138,0.018 -0.279,0.005 -0.445,0.005 v 0.979 h 3.962 v -0.979 c -0.173,0 -0.352,-0.011 -0.53,0.002 -0.362,0.027 -0.648,-0.107 -0.887,-0.374 -0.755,-0.843 -1.48,-1.716 -2.283,-2.512 -0.513,-0.509 -0.742,-1.028 -0.694,-1.757 0.064,-1.001 0.041,-1.029 1.044,-1.031 h 0.578 M 347.1075,20.5264 v -5.468 c -0.001,-0.109 -0.001,-0.219 -0.013,-0.328 -0.024,-0.239 -0.12,-0.452 -0.258,-0.646 -0.152,-0.214 -0.343,-0.387 -0.557,-0.536 -0.282,-0.196 -0.585,-0.346 -0.92,-0.428 -0.285,-0.07 -0.57,-0.08 -0.854,0.005 -0.143,0.042 -0.274,0.107 -0.387,0.206 -0.175,0.155 -0.265,0.351 -0.275,0.582 -0.017,0.371 0.114,0.691 0.346,0.973 0.23,0.28 0.518,0.486 0.838,0.651 0.206,0.106 0.42,0.189 0.648,0.233 0.287,0.054 0.571,0.054 0.847,-0.052 0.073,-0.028 0.142,-0.07 0.213,-0.106 0.013,-0.007 0.026,-0.016 0.048,-0.029 v 7.366 c 0,0.024 -0.002,0.048 0,0.072 0.005,0.055 0.042,0.091 0.097,0.094 0.042,10e-4 0.084,10e-4 0.126,0 0.062,-0.002 0.097,-0.038 0.101,-0.102 0.003,-0.045 0.004,-0.091 0.006,-0.137 0.013,-0.325 0.088,-0.638 0.199,-0.942 0.123,-0.338 0.286,-0.657 0.47,-0.964 0.204,-0.34 0.414,-0.675 0.619,-1.014 0.193,-0.316 0.373,-0.64 0.514,-0.983 0.115,-0.279 0.201,-0.566 0.241,-0.865 0.024,-0.18 0.031,-0.361 0.024,-0.543 -0.026,-0.64 -0.169,-1.255 -0.4,-1.852 -0.029,-0.073 -0.076,-0.127 -0.152,-0.149 -0.091,-0.026 -0.17,0.004 -0.232,0.072 -0.058,0.065 -0.071,0.14 -0.037,0.222 0.11,0.263 0.201,0.532 0.27,0.809 0.08,0.324 0.124,0.652 0.133,0.986 0.01,0.335 -0.07,0.65 -0.204,0.954 -0.146,0.33 -0.342,0.629 -0.56,0.915 -0.264,0.346 -0.558,0.664 -0.859,0.978 -0.006,0.007 -0.014,0.012 -0.032,0.026 M 33.8136,54.6823 c -0.012,0.343 -0.023,0.683 -0.035,1.022 3.612,0.218 7.625,-2.757 7.534,-7.517 -0.344,0.011 -0.689,0.022 -1.037,0.033 0.036,1.802 -0.56,3.363 -1.835,4.631 -1.271,1.264 -2.832,1.856 -4.627,1.831"
       id="path105"
       inkscape:connector-curvature="0"
       style="fill:#d0d2d3" />
    <path
       d="m 39.2223,48.1777 c -0.345,0.017 -0.683,0.033 -1.029,0.05 0.027,1.222 -0.359,2.283 -1.225,3.148 -0.863,0.862 -1.921,1.25 -3.147,1.221 -0.017,0.343 -0.034,0.684 -0.051,1.024 2.801,0.213 5.613,-2.18 5.452,-5.443"
       id="path107"
       inkscape:connector-curvature="0"
       style="fill:#d0d2d3" />
    <path
       d="m 33.8409,50.5074 c -0.03,0.344 -0.06,0.687 -0.091,1.029 1.929,0.176 3.559,-1.446 3.381,-3.384 -0.339,0.03 -0.679,0.06 -1.027,0.091 0.039,0.643 -0.183,1.187 -0.627,1.632 -0.444,0.445 -0.987,0.67 -1.636,0.632 m 0.9215,-1.3451 c 0.403,-0.407 0.401,-1.067 -0.004,-1.468 -0.406,-0.402 -1.07,-0.4 -1.471,0.003 -0.403,0.407 -0.397,1.071 0.013,1.477 0.4,0.396 1.063,0.39 1.462,-0.012 M 30.7315,74.64 c 3.398,0 7.132,0.216 7.132,0.585 0,0.12 -3.235,0.154 -7.132,0.154 -3.897,0 -7.132,-0.034 -7.132,-0.154 0,-0.369 3.734,-0.585 7.132,-0.585 m 0,-1.165 c 1.627,0 5.313,0.213 5.313,0.504 0,0.088 -2.477,0.109 -5.313,0.109 -2.836,0 -5.313,-0.021 -5.313,-0.109 0,-0.291 3.686,-0.504 5.313,-0.504 m 0,-1.0103 c 1.799,0 3.841,0.199 3.841,0.425 0,0.095 -1.742,0.075 -3.841,0.075 -2.099,0 -3.841,0.02 -3.841,-0.075 0,-0.226 2.042,-0.425 3.841,-0.425 m 0.0025,3.5678 c 0.212,0 0.457,0.006 0.695,0.051 0.268,0.051 0.383,0.169 0.42,0.421 0.034,0.233 -0.087,0.601 -0.149,0.929 -0.089,0.461 0.125,0.68 0.715,0.68 0.708,0 0.868,-0.34 1.189,-1.189 0.193,-0.51 0.395,-0.71 1.131,-0.782 0.66,-0.065 1.491,-0.113 2.514,-0.113 0.843,0 0.93,0.242 -0.333,0.448 -0.8,0.13 -1.276,0.322 -1.555,0.655 -0.309,0.368 -0.38,0.595 -0.584,0.84 -0.23,0.275 -0.531,0.4 -0.908,0.447 -0.919,0.115 -1.975,0.18 -3.135,0.18 -1.16,0 -2.216,-0.065 -3.135,-0.18 -0.378,-0.047 -0.679,-0.172 -0.908,-0.447 -0.204,-0.245 -0.276,-0.472 -0.584,-0.84 -0.28,-0.333 -0.755,-0.525 -1.555,-0.655 -1.263,-0.206 -1.176,-0.448 -0.334,-0.448 1.024,0 1.855,0.048 2.515,0.113 0.736,0.072 0.938,0.272 1.131,0.782 0.321,0.849 0.481,1.189 1.189,1.189 0.589,0 0.804,-0.219 0.715,-0.68 -0.062,-0.328 -0.183,-0.696 -0.149,-0.929 0.037,-0.252 0.152,-0.37 0.42,-0.421 0.238,-0.045 0.483,-0.051 0.695,-0.051"
       id="path109"
       inkscape:connector-curvature="0"
       style="fill:#d0d2d3" />
  </g>
</svg>
