<?xml version="1.0" encoding="UTF-8" standalone="no"?>
<svg
   xmlns:dc="http://purl.org/dc/elements/1.1/"
   xmlns:cc="http://creativecommons.org/ns#"
   xmlns:rdf="http://www.w3.org/1999/02/22-rdf-syntax-ns#"
   xmlns:svg="http://www.w3.org/2000/svg"
   xmlns="http://www.w3.org/2000/svg"
   xmlns:sodipodi="http://sodipodi.sourceforge.net/DTD/sodipodi-0.dtd"
   xmlns:inkscape="http://www.inkscape.org/namespaces/inkscape"
   width="200.01817"
   height="200"
   version="1.1"
   id="svg21"
   sodipodi:docname="game.svg"
   inkscape:version="0.92.4 5da689c313, 2019-01-14">
  <metadata
     id="metadata25">
    <rdf:RDF>
      <cc:Work
         rdf:about="">
        <dc:format>image/svg+xml</dc:format>
        <dc:type
           rdf:resource="http://purl.org/dc/dcmitype/StillImage" />
      </cc:Work>
    </rdf:RDF>
  </metadata>
  <sodipodi:namedview
     pagecolor="#ffffff"
     bordercolor="#666666"
     borderopacity="1"
     objecttolerance="10"
     gridtolerance="10"
     guidetolerance="10"
     inkscape:pageopacity="0"
     inkscape:pageshadow="2"
     inkscape:window-width="471"
     inkscape:window-height="442"
     id="namedview23"
     showgrid="false"
     inkscape:zoom="1.18"
     inkscape:cx="100.00909"
     inkscape:cy="100"
     inkscape:window-x="0"
     inkscape:window-y="0"
     inkscape:window-maximized="0"
     inkscape:current-layer="svg21">
    <inkscape:grid
       type="xygrid"
       id="grid27"
       originx="0"
       originy="0" />
  </sodipodi:namedview>
  <defs
     id="defs5">
    <clipPath
       id="a">
      <path
         d="M 0,319.064 H 319.093 V 0 H 0 Z"
         id="path2"
         inkscape:connector-curvature="0" />
    </clipPath>
  </defs>
  <g
     clip-path="url(#a)"
     transform="matrix(0.62683349,0,0,-0.62683349,0,200)"
     id="g19">
    <path
       d="m 319.0931,50.9899 c 0.004,-4.84 -1.035,-9.427 -2.784,-13.864 -2.347,-5.933 -7.062,-8.92 -12.999,-10.765 -9.959,-3.095 -19.781,-6.622 -29.681,-9.9 -6.976,-2.31 -14.047,-4.284 -21.151,-6.166 -7.865,-2.085 -15.817,-3.759 -23.815,-5.155 -4.678,-0.819 -9.414,-1.413 -14.129,-2.057 -6.237,-0.848 -12.498,-1.504 -18.75,-1.944 -7.034,-0.495 -14.076,-1.122 -21.147,-1.085 -13.428,0.075 -26.864,-0.349 -40.288,0.391 -8.837,0.49 -17.673,1.072 -26.448,2.156 -7.661,0.951 -15.297,2.102 -22.892,3.573 -6.556,1.267 -13.07,2.692 -19.523,4.354 -7.582,1.944 -15.085,4.209 -22.505,6.714 -9.822,3.311 -19.606,6.739 -29.473,9.921 -6.523,2.102 -9.863,6.855 -11.832,13.004 -1.496,4.666 -1.695,9.448 -1.675,14.3 0.067,18.281 0.025,36.561 0.025,54.841 h 0.021 c 0,18.763 0.004,37.529 0,56.296 -0.004,5.467 0.802,10.851 1.454,16.265 0.735,6.095 1.994,12.065 3.461,17.989 1.479,5.983 3.419,11.858 5.692,17.595 4.3,10.869 9.614,21.218 16.161,30.911 7.574,11.209 16.32,21.388 26.457,30.382 9.364,8.31 19.502,15.489 30.528,21.409 8.243,4.429 16.801,8.102 25.696,11.076 6.44,2.153 12.988,3.877 19.61,5.173 4.545,0.893 9.211,1.383 13.835,1.973 8.854,1.126 17.686,0.511 26.527,0.586 4.184,0.033 8.339,-0.818 12.502,-1.342 3.888,-0.494 7.748,-1.134 11.554,-1.94 4.939,-1.051 9.838,-2.385 14.649,-3.93 7.341,-2.356 14.487,-5.231 21.421,-8.634 18.01,-8.841 33.86,-20.606 47.429,-35.364 12.348,-13.436 22.153,-28.546 29.344,-45.356 3.536,-8.272 6.428,-16.751 8.488,-25.476 1.658,-7.013 2.746,-14.142 3.548,-21.338 0.69,-6.165 0.64,-12.298 0.648,-18.442 0.046,-35.385 0,-70.77 0.042,-106.151"
       id="path7"
       inkscape:connector-curvature="0"
       style="fill:#f9f8f7" />
    <path
       d="m 299.9728,159.5322 c 0,-77.554 -62.872,-140.426 -140.426,-140.426 -77.555,0 -140.427,62.872 -140.427,140.426 0,77.554 62.872,140.426 140.427,140.426 77.554,0 140.426,-62.872 140.426,-140.426"
       id="path9"
       inkscape:connector-curvature="0"
       style="fill:#d1dbe0" />
    <path
       d="m 159.5466,19.1059 c -77.554,0 -140.426,62.872 -140.426,140.426 0,77.555 62.872,140.427 140.426,140.427 77.554,0 140.426,-62.872 140.426,-140.427 0,-77.554 -62.872,-140.426 -140.426,-140.426 m 0,285.838 c -80.309,0 -145.412,-65.103 -145.412,-145.412 0,-80.309 65.103,-145.412 145.412,-145.412 80.309,0 145.412,65.103 145.412,145.412 0,80.309 -65.103,145.412 -145.412,145.412"
       id="path11"
       inkscape:connector-curvature="0"
       style="fill:#95a8b9" />
    <path
       d="m 98.4736,159.5322 c 0,33.73 27.343,61.073 61.073,61.073 33.73,0 61.073,-27.343 61.073,-61.073 0,-33.73 -27.343,-61.073 -61.073,-61.073 -33.73,0 -61.073,27.343 -61.073,61.073"
       id="path13"
       inkscape:connector-curvature="0"
       style="fill:#ffffff" />
    <path
       d="m 159.5466,296.6348 18.143,-10.108 h -36.976 z m 0,3.324 -31.16,-16.34 h 62.457 z"
       id="path15"
       inkscape:connector-curvature="0"
       style="fill:#f9f8f7" />
    <path
       d="m 305.9277,40.8627 c -0.024,-0.827 -0.294,-1.563 -0.849,-2.183 -0.374,-0.417 -0.822,-0.739 -1.362,-0.905 -0.497,-0.152 -1.009,-0.176 -1.525,-0.12 -0.336,0.035 -0.665,0.095 -0.978,0.229 -0.317,0.136 -0.565,0.365 -0.788,0.615 -0.371,0.416 -0.651,0.898 -0.968,1.353 -0.445,0.641 -0.857,1.304 -1.268,1.967 -0.046,0.074 -0.067,0.079 -0.131,0.011 -0.733,-0.791 -1.641,-1.121 -2.713,-1.032 -0.467,0.039 -0.919,0.135 -1.333,0.352 -0.676,0.354 -1.208,0.857 -1.521,1.566 -0.044,0.1 -0.102,0.131 -0.209,0.13 -0.885,-0.003 -1.77,-0.003 -2.655,10e-4 -0.11,0.001 -0.168,-0.033 -0.219,-0.133 -0.528,-1.022 -1.384,-1.623 -2.491,-1.851 -1.164,-0.24 -2.156,0.128 -2.992,0.954 -0.043,0.042 -0.087,0.084 -0.123,0.132 -0.046,0.061 -0.074,0.049 -0.111,-0.009 -0.187,-0.29 -0.373,-0.581 -0.565,-0.869 -0.422,-0.633 -0.791,-1.3 -1.222,-1.928 -0.359,-0.522 -0.827,-0.916 -1.399,-1.183 -0.296,-0.138 -0.617,-0.189 -0.941,-0.216 -0.326,-0.026 -0.651,-0.034 -0.976,0.026 -0.541,0.1 -1.011,0.347 -1.429,0.696 -0.597,0.497 -0.996,1.119 -1.147,1.888 -0.086,0.437 -0.07,0.878 -0.002,1.316 0.083,0.533 0.133,1.068 0.185,1.604 0.055,0.574 0.121,1.147 0.181,1.721 0.048,0.45 0.095,0.901 0.137,1.352 0.095,1.02 0.234,2.033 0.409,3.042 0.142,0.818 0.473,1.549 0.968,2.209 0.31,0.413 0.696,0.745 1.117,1.038 0.057,0.04 0.084,0.086 0.096,0.153 0.096,0.515 0.19,1.029 0.296,1.542 0.069,0.327 0.245,0.588 0.546,0.752 0.042,0.022 0.069,0.048 0.074,0.1 0.024,0.248 0.175,0.398 0.399,0.47 0.552,0.177 1.116,0.253 1.697,0.216 0.388,-0.025 0.769,-0.077 1.144,-0.18 0.073,-0.02 0.145,-0.045 0.216,-0.072 0.149,-0.057 0.257,-0.149 0.276,-0.319 0.012,-0.104 0.068,-0.167 0.17,-0.204 0.373,-0.138 0.529,-0.45 0.608,-0.805 0.087,-0.39 0.154,-0.784 0.226,-1.177 0.024,-0.134 0.024,-0.14 0.161,-0.14 h 4.767 c 0.08,0 0.156,-0.002 0.23,-0.043 0.058,-0.033 0.129,-0.031 0.196,-0.031 0.586,-10e-4 1.177,-0.043 1.759,0.009 0.856,0.075 1.709,0.026 2.564,0.04 0.856,0.014 1.712,0.003 2.569,0.004 0.156,0 0.152,0 0.183,0.157 0.072,0.373 0.142,0.747 0.225,1.118 0.088,0.399 0.307,0.699 0.697,0.855 0.048,0.019 0.069,0.052 0.077,0.098 0.049,0.268 0.221,0.401 0.476,0.466 0.491,0.126 0.986,0.214 1.494,0.197 0.494,-0.016 0.98,-0.087 1.445,-0.26 0.19,-0.071 0.338,-0.203 0.347,-0.432 0.002,-0.044 0.021,-0.07 0.058,-0.09 0.364,-0.192 0.558,-0.494 0.624,-0.9 0.078,-0.475 0.182,-0.946 0.271,-1.42 0.014,-0.071 0.049,-0.116 0.107,-0.158 0.954,-0.687 1.605,-1.583 1.928,-2.723 0.164,-0.577 0.242,-1.165 0.321,-1.756 0.081,-0.609 0.136,-1.221 0.173,-1.835 0.037,-0.617 0.111,-1.23 0.181,-1.844 0.061,-0.535 0.098,-1.073 0.141,-1.609 0.036,-0.439 0.084,-0.877 0.139,-1.314 0.026,-0.211 0.04,-0.423 0.039,-0.638 M 55.229,47.4018 v 2.846 H 40.19 v 0.813 h 16.177 v -4.778 H 41.6 v -3.947 h -1.413 v 5.066 z M 6.0084,50.2147 v 0.855 h 15.907 c 0.033,-0.737 0.01,-1.527 0.014,-2.315 0.004,-0.799 10e-4,-1.598 10e-4,-2.44 H 7.1934 c -0.145,-0.674 -0.054,-1.327 -0.071,-1.97 -0.017,-0.657 -0.003,-1.314 -0.003,-2.017 h -1.072 v 5.041 h 14.959 v 2.846 H 6.0084 Z m 15.6629,-7.8856 v 1.046 h 7.663 c 0.005,2.575 0,5.109 0.003,7.689 h 9.089 v -0.762 h -7.769 c -0.073,-0.076 -0.112,-0.106 -0.136,-0.146 -0.023,-0.036 -0.043,-0.081 -0.044,-0.123 -0.001,-2.552 -0.001,-5.104 -0.001,-7.704 z m 117.1953,118.6823 c 0,-7.843 -4.472,-11.764 -13.417,-11.764 -8.567,0 -12.851,3.772 -12.851,11.316 v 17.081 h 4.136 v -16.867 c 0,-5.726 3.053,-8.589 9.158,-8.589 5.892,0 8.838,2.766 8.838,8.297 v 17.159 h 4.136 z m 36.1293,-11.2967 h -3.609 v 18.737 c 0,1.48 0.1,3.292 0.302,5.434 h -0.086 c -0.346,-1.26 -0.656,-2.162 -0.93,-2.707 l -10.59,-21.464 h -1.772 l -10.569,21.308 c -0.303,0.623 -0.613,1.577 -0.929,2.863 h -0.087 c 0.115,-1.117 0.173,-2.941 0.173,-5.473 v -18.698 h -3.501 v 27.93 h 4.798 l 9.51,-19.477 c 0.734,-1.493 1.21,-2.61 1.426,-3.35 h 0.13 c 0.619,1.532 1.116,2.675 1.491,3.428 l 9.704,19.399 h 4.539 z m 10.0043,24.9696 v -22.009 h 4.625 c 4.063,0 7.226,0.98 9.488,2.941 2.262,1.96 3.394,4.739 3.394,8.336 0,7.155 -4.222,10.732 -12.666,10.732 z m -3.631,-24.97 v 27.931 h 8.559 c 10.922,0 16.382,-4.539 16.382,-13.615 0,-4.311 -1.516,-7.774 -4.549,-10.391 -3.033,-2.617 -7.093,-3.925 -12.179,-3.925 z m -65.7101,-10.047 c 0,-1.791 -0.835,-2.687 -2.504,-2.687 -1.62,0 -2.43,0.875 -2.43,2.625 v 3.444 h 1.348 v -3.461 c 0,-0.965 0.377,-1.448 1.132,-1.448 0.74,0 1.11,0.466 1.11,1.398 v 3.511 h 1.344 z m 6.664,-2.5832 h -1.356 l -2.459,3.748 c -0.144,0.219 -0.244,0.384 -0.299,0.495 h -0.017 c 0.023,-0.211 0.034,-0.532 0.034,-0.965 v -3.278 h -1.269 v 5.965 h 1.447 l 2.367,-3.631 c 0.109,-0.164 0.208,-0.326 0.3,-0.487 h 0.017 c -0.023,0.139 -0.034,0.412 -0.034,0.819 v 3.299 h 1.269 z m 3.2072,5.9651 v -1.04 h -0.499 v -3.885 h 0.499 v -1.04 h -2.342 v 1.04 h 0.499 v 3.885 h -0.499 v 1.04 z m 5.8237,0 -2.055,-5.965 h -1.522 l -2.03,5.965 h 1.447 l 1.244,-4.151 c 0.067,-0.225 0.107,-0.423 0.121,-0.595 h 0.025 c 0.019,0.185 0.062,0.389 0.129,0.611 l 1.235,4.135 z m 4.2929,-5.9651 h -3.577 v 5.965 h 3.44 v -1.094 h -2.097 v -1.327 h 1.951 v -1.09 h -1.951 v -1.364 h 2.234 z m 2.3004,4.9584 v -1.66 h 0.582 c 0.289,0 0.52,0.083 0.695,0.25 0.178,0.169 0.266,0.378 0.266,0.628 0,0.521 -0.312,0.782 -0.936,0.782 z m 3.661,-4.958 h -1.544 l -0.927,1.534 c -0.07,0.117 -0.136,0.221 -0.2,0.312 -0.064,0.092 -0.128,0.17 -0.193,0.236 -0.066,0.065 -0.134,0.115 -0.204,0.149 -0.071,0.035 -0.148,0.052 -0.231,0.052 h -0.362 v -2.283 h -1.344 v 5.965 h 2.13 c 1.448,0 2.172,-0.541 2.172,-1.623 0,-0.208 -0.032,-0.4 -0.096,-0.576 -0.064,-0.176 -0.154,-0.335 -0.27,-0.476 -0.117,-0.142 -0.258,-0.264 -0.423,-0.366 -0.165,-0.103 -0.348,-0.183 -0.551,-0.241 v -0.017 c 0.089,-0.028 0.175,-0.073 0.258,-0.135 0.083,-0.063 0.164,-0.135 0.241,-0.219 0.078,-0.083 0.152,-0.172 0.223,-0.268 0.071,-0.096 0.135,-0.189 0.193,-0.281 z m 0.2825,0.2284 v 1.331 c 0.241,-0.202 0.503,-0.354 0.786,-0.455 0.283,-0.102 0.569,-0.152 0.857,-0.152 0.169,0 0.317,0.015 0.443,0.046 0.126,0.03 0.232,0.072 0.316,0.126 0.085,0.055 0.148,0.118 0.19,0.192 0.041,0.073 0.062,0.153 0.062,0.239 0,0.116 -0.033,0.22 -0.1,0.312 -0.066,0.091 -0.157,0.176 -0.272,0.254 -0.115,0.077 -0.252,0.152 -0.41,0.224 -0.158,0.072 -0.329,0.146 -0.512,0.221 -0.466,0.194 -0.813,0.431 -1.042,0.711 -0.229,0.28 -0.343,0.619 -0.343,1.015 0,0.311 0.062,0.578 0.187,0.801 0.125,0.223 0.295,0.407 0.51,0.551 0.215,0.144 0.464,0.25 0.746,0.318 0.283,0.068 0.583,0.102 0.899,0.102 0.311,0 0.586,-0.019 0.826,-0.056 0.24,-0.037 0.461,-0.095 0.663,-0.173 v -1.243 c -0.1,0.069 -0.208,0.13 -0.326,0.183 -0.118,0.052 -0.24,0.096 -0.364,0.131 -0.125,0.034 -0.249,0.06 -0.373,0.077 -0.123,0.016 -0.24,0.025 -0.351,0.025 -0.153,0 -0.291,-0.015 -0.416,-0.044 -0.125,-0.029 -0.23,-0.07 -0.316,-0.123 -0.086,-0.052 -0.153,-0.116 -0.2,-0.189 -0.047,-0.074 -0.071,-0.156 -0.071,-0.248 0,-0.099 0.027,-0.189 0.079,-0.268 0.053,-0.079 0.128,-0.154 0.225,-0.225 0.097,-0.07 0.215,-0.14 0.354,-0.208 0.138,-0.067 0.295,-0.137 0.47,-0.21 0.238,-0.099 0.452,-0.205 0.642,-0.318 0.19,-0.112 0.353,-0.239 0.489,-0.38 0.136,-0.142 0.24,-0.303 0.312,-0.485 0.072,-0.182 0.108,-0.393 0.108,-0.634 0,-0.333 -0.063,-0.613 -0.189,-0.839 -0.126,-0.226 -0.297,-0.409 -0.514,-0.549 -0.216,-0.14 -0.468,-0.24 -0.755,-0.301 -0.287,-0.061 -0.59,-0.092 -0.909,-0.092 -0.327,0 -0.638,0.028 -0.934,0.083 -0.295,0.056 -0.551,0.139 -0.767,0.25 m 8.0991,2.1298 -0.641,2.005 c -0.047,0.15 -0.08,0.329 -0.099,0.537 h -0.034 c -0.014,-0.175 -0.048,-0.348 -0.104,-0.52 l -0.649,-2.022 z m 2.196,-2.359 h -1.464 l -0.424,1.327 h -2.122 l -0.42,-1.327 h -1.456 l 2.172,5.966 h 1.593 z m 4.2974,4e-4 h -3.552 v 5.965 h 1.343 v -4.875 h 2.209 z m 9.9502,0 h -1.327 v 3.569 c 0,0.386 0.017,0.811 0.05,1.277 h -0.033 c -0.07,-0.366 -0.132,-0.629 -0.188,-0.79 l -1.397,-4.056 h -1.098 l -1.423,4.014 c -0.039,0.108 -0.101,0.386 -0.187,0.832 h -0.038 c 0.036,-0.588 0.054,-1.104 0.054,-1.547 v -3.299 h -1.21 v 5.965 h 1.967 l 1.219,-3.536 c 0.097,-0.283 0.168,-0.567 0.212,-0.852 h 0.025 c 0.075,0.33 0.154,0.617 0.238,0.861 l 1.218,3.527 h 1.918 z m 4.9335,0 h -3.577 v 5.965 h 3.44 v -1.094 h -2.097 v -1.327 h 1.951 v -1.09 h -1.951 v -1.364 h 2.234 z m 2.3004,4.8711 v -3.781 h 0.666 c 0.582,0 1.039,0.174 1.37,0.524 0.332,0.349 0.497,0.825 0.497,1.427 0,0.568 -0.164,1.015 -0.493,1.341 -0.328,0.326 -0.789,0.489 -1.383,0.489 z m -1.344,-4.871 v 5.965 h 2.114 c 2.118,0 3.178,-0.969 3.178,-2.908 0,-0.929 -0.289,-1.671 -0.868,-2.225 -0.578,-0.555 -1.348,-0.832 -2.31,-0.832 z m 8.1245,5.965 v -1.04 h -0.499 v -3.885 h 0.499 v -1.04 h -2.342 v 1.04 h 0.499 v 3.885 h -0.499 v 1.04 z m 3.906,-3.6065 -0.641,2.005 c -0.047,0.15 -0.08,0.329 -0.099,0.537 h -0.034 c -0.014,-0.175 -0.048,-0.348 -0.104,-0.52 l -0.649,-2.022 z m 2.196,-2.359 h -1.464 l -0.424,1.327 h -2.122 l -0.42,-1.327 h -1.456 l 2.172,5.966 h 1.593 z m 4.4389,4.8715 v -3.781 h 0.666 c 0.582,0 1.039,0.174 1.37,0.524 0.332,0.349 0.497,0.825 0.497,1.427 0,0.568 -0.164,1.015 -0.493,1.341 -0.328,0.326 -0.789,0.489 -1.383,0.489 z m -1.344,-4.871 v 5.965 h 2.114 c 2.118,0 3.178,-0.969 3.178,-2.908 0,-0.929 -0.289,-1.671 -0.868,-2.225 -0.578,-0.555 -1.348,-0.832 -2.31,-0.832 z m 8.1244,5.965 v -1.04 h -0.499 v -3.885 h 0.499 v -1.04 h -2.342 v 1.04 h 0.499 v 3.885 h -0.499 v 1.04 z m 0.5824,-5.7363 v 1.331 c 0.241,-0.202 0.503,-0.354 0.786,-0.455 0.283,-0.102 0.569,-0.152 0.857,-0.152 0.169,0 0.317,0.015 0.443,0.046 0.126,0.03 0.232,0.072 0.316,0.126 0.085,0.055 0.148,0.118 0.19,0.192 0.041,0.073 0.062,0.153 0.062,0.239 0,0.116 -0.033,0.22 -0.1,0.312 -0.066,0.091 -0.157,0.176 -0.272,0.254 -0.115,0.077 -0.252,0.152 -0.41,0.224 -0.158,0.072 -0.329,0.146 -0.512,0.221 -0.466,0.194 -0.813,0.431 -1.042,0.711 -0.229,0.28 -0.343,0.619 -0.343,1.015 0,0.311 0.062,0.578 0.187,0.801 0.125,0.223 0.295,0.407 0.51,0.551 0.215,0.144 0.464,0.25 0.746,0.318 0.283,0.068 0.583,0.102 0.899,0.102 0.311,0 0.586,-0.019 0.826,-0.056 0.24,-0.037 0.461,-0.095 0.663,-0.173 v -1.243 c -0.1,0.069 -0.208,0.13 -0.326,0.183 -0.118,0.052 -0.24,0.096 -0.364,0.131 -0.125,0.034 -0.249,0.06 -0.373,0.077 -0.123,0.016 -0.24,0.025 -0.351,0.025 -0.153,0 -0.291,-0.015 -0.416,-0.044 -0.125,-0.029 -0.23,-0.07 -0.316,-0.123 -0.086,-0.052 -0.153,-0.116 -0.2,-0.189 -0.047,-0.074 -0.071,-0.156 -0.071,-0.248 0,-0.099 0.027,-0.189 0.079,-0.268 0.053,-0.079 0.128,-0.154 0.225,-0.225 0.097,-0.07 0.215,-0.14 0.354,-0.208 0.138,-0.067 0.295,-0.137 0.47,-0.21 0.238,-0.099 0.452,-0.205 0.642,-0.318 0.19,-0.112 0.353,-0.239 0.489,-0.38 0.136,-0.142 0.24,-0.303 0.312,-0.485 0.072,-0.182 0.108,-0.393 0.108,-0.634 0,-0.333 -0.063,-0.613 -0.189,-0.839 -0.126,-0.226 -0.297,-0.409 -0.514,-0.549 -0.216,-0.14 -0.468,-0.24 -0.755,-0.301 -0.287,-0.061 -0.59,-0.092 -0.909,-0.092 -0.327,0 -0.638,0.028 -0.934,0.083 -0.295,0.056 -0.551,0.139 -0.767,0.25 m 9.3262,-0.0167 c -0.435,-0.211 -1.004,-0.316 -1.706,-0.316 -0.915,0 -1.634,0.269 -2.158,0.807 -0.525,0.538 -0.787,1.255 -0.787,2.15 0,0.954 0.295,1.728 0.884,2.322 0.59,0.593 1.354,0.89 2.294,0.89 0.583,0 1.074,-0.074 1.473,-0.221 v -1.293 c -0.399,0.238 -0.854,0.357 -1.364,0.357 -0.561,0 -1.013,-0.176 -1.357,-0.528 -0.343,-0.352 -0.515,-0.829 -0.515,-1.431 0,-0.577 0.162,-1.036 0.486,-1.379 0.325,-0.342 0.762,-0.514 1.311,-0.514 0.524,0 1.004,0.128 1.439,0.383 z"
       id="path17"
       inkscape:connector-curvature="0"
       style="fill:#29426a" />
  </g>
</svg>
