<?xml version="1.0" encoding="UTF-8" standalone="no"?>
<svg
   xmlns:dc="http://purl.org/dc/elements/1.1/"
   xmlns:cc="http://creativecommons.org/ns#"
   xmlns:rdf="http://www.w3.org/1999/02/22-rdf-syntax-ns#"
   xmlns:svg="http://www.w3.org/2000/svg"
   xmlns="http://www.w3.org/2000/svg"
   xmlns:sodipodi="http://sodipodi.sourceforge.net/DTD/sodipodi-0.dtd"
   xmlns:inkscape="http://www.inkscape.org/namespaces/inkscape"
   viewBox="-290 382 30 30"
   version="1.1"
   id="svg20"
   sodipodi:docname="icon_filled.svg"
   inkscape:version="0.92.4 5da689c313, 2019-01-14">
  <metadata
     id="metadata26">
    <rdf:RDF>
      <cc:Work
         rdf:about="">
        <dc:format>image/svg+xml</dc:format>
        <dc:type
           rdf:resource="http://purl.org/dc/dcmitype/StillImage" />
      </cc:Work>
    </rdf:RDF>
  </metadata>
  <defs
     id="defs24" />
  <sodipodi:namedview
     pagecolor="#ffffff"
     bordercolor="#666666"
     borderopacity="1"
     objecttolerance="10"
     gridtolerance="10"
     guidetolerance="10"
     inkscape:pageopacity="0"
     inkscape:pageshadow="2"
     inkscape:window-width="471"
     inkscape:window-height="442"
     id="namedview22"
     showgrid="false"
     inkscape:zoom="7.8666667"
     inkscape:cx="15"
     inkscape:cy="15"
     inkscape:window-x="0"
     inkscape:window-y="0"
     inkscape:window-maximized="0"
     inkscape:current-layer="svg20">
    <inkscape:grid
       type="xygrid"
       id="grid28" />
  </sodipodi:namedview>
  <path
     fill="#CECCC0"
     d="M-273 404.9l4.1-4.1-14.7-14.7-6.3-2.2 2.2 6.3"
     id="path2" />
  <path
     fill="#2B3347"
     d="M-269.3 402.1l5.7 5.7-2.4 2.4-5.7-5.7 2.4-2.4z"
     id="path4" />
  <path
     fill="#D8D6CE"
     d="M-271 402.8l2-2-14.7-14.7-6.3-2.2 19 18.9z"
     id="path6" />
  <path
     fill="#F4B056"
     d="M-274.9 406.1l7.1-7.1 1.1 1.1-7.1 7.1-1.1-1.1z"
     id="path8" />
  <path
     fill="#A08D8D"
     d="M-263.6 383.8l-2.2 6.3-14.7 14.7-4.1-4.1 14.7-14.7 6.3-2.2z"
     id="path10" />
  <path
     fill="#E8E7E6"
     d="M-263.6 383.8l-2.2 6.3-14.7 14.7-4.1-4.1 14.7-14.7 6.3-2.2z"
     id="path12" />
  <path
     fill="#353D4F"
     d="M-290 407.7l5.7-5.7 2.4 2.4-5.7 5.7-2.4-2.4z"
     id="path14" />
  <path
     fill="#D6D5D4"
     d="M-282.6 402.8l-2-2 14.7-14.7 6.3-2.2-19 18.9z"
     id="path16" />
  <path
     fill="#FFD67B"
     d="M-285.9 398.9l7.1 7.1-1.1 1.1-7.1-7.1 1.1-1.1z"
     id="path18" />
</svg>
