<?xml version="1.0" encoding="UTF-8" standalone="no"?>
<svg
   xmlns:dc="http://purl.org/dc/elements/1.1/"
   xmlns:cc="http://creativecommons.org/ns#"
   xmlns:rdf="http://www.w3.org/1999/02/22-rdf-syntax-ns#"
   xmlns:svg="http://www.w3.org/2000/svg"
   xmlns="http://www.w3.org/2000/svg"
   xmlns:sodipodi="http://sodipodi.sourceforge.net/DTD/sodipodi-0.dtd"
   xmlns:inkscape="http://www.inkscape.org/namespaces/inkscape"
   width="403"
   height="130.56873"
   version="1.1"
   id="svg4"
   sodipodi:docname="logo.svg"
   inkscape:version="0.92.4 5da689c313, 2019-01-14">
  <metadata
     id="metadata10">
    <rdf:RDF>
      <cc:Work
         rdf:about="">
        <dc:format>image/svg+xml</dc:format>
        <dc:type
           rdf:resource="http://purl.org/dc/dcmitype/StillImage" />
      </cc:Work>
    </rdf:RDF>
  </metadata>
  <defs
     id="defs8" />
  <sodipodi:namedview
     pagecolor="#ffffff"
     bordercolor="#666666"
     borderopacity="1"
     objecttolerance="10"
     gridtolerance="10"
     guidetolerance="10"
     inkscape:pageopacity="0"
     inkscape:pageshadow="2"
     inkscape:window-width="471"
     inkscape:window-height="442"
     id="namedview6"
     showgrid="false"
     inkscape:zoom="0.6775"
     inkscape:cx="200"
     inkscape:cy="65.284357"
     inkscape:window-x="0"
     inkscape:window-y="0"
     inkscape:window-maximized="0"
     inkscape:current-layer="svg4">
    <inkscape:grid
       type="xygrid"
       id="grid12"
       originx="0"
       originy="-5.5859375e-06" />
  </sodipodi:namedview>
  <path
     d="m 72.845101,113.53097 c 3.762023,0 6.019095,-0.76694 6.019095,-4.3434 0,-2.64725 -1.641828,-4.0633 -5.403145,-4.0633 h -5.198535 v 8.4067 z m -6.565902,11.04548 v -21.15539 h 7.729363 c 5.471585,0 6.908802,2.73544 6.908802,5.90903 0,4.72652 -4.241096,5.90268 -8.139997,5.90268 h -4.514851 v 9.34297 l -1.983317,7.1e-4 m 17.30446,0 h 1.710267 v -21.15539 h -1.710267 z m 16.07397,-7.99607 c -1.504245,0.61525 -3.077634,0.73872 -4.581879,0.85584 -2.668412,0.20391 -4.308829,1.17546 -4.308829,3.22792 0,1.86055 1.641829,2.73614 3.283657,2.73614 2.803878,0 5.608462,-1.35466 5.608462,-4.43935 l -0.0014,-2.38055 z m -3.009195,-0.87559 c 0.683683,-0.0614 1.778706,-0.23919 2.325512,-0.50659 0.61595,-0.26035 0.683683,-1.05269 0.683683,-1.57904 0,-1.79211 -1.094317,-3.08468 -3.829756,-3.08468 -2.393951,0 -4.103512,0.79304 -4.446413,3.43393 h -1.778706 c 0.273756,-3.58492 2.940757,-5.02779 6.292852,-5.02779 3.077634,0 5.472284,1.21074 5.472284,4.73287 v 8.28393 c 0,1.38077 0.40993,1.70321 1.84644,1.17546 v 1.38218 c -0.20532,0.0889 -0.82056,0.29351 -1.36737,0.29351 -0.27446,0 -0.47907,-0.0268 -0.75212,-0.0882 -1.231189,-0.17075 -1.437211,-1.20368 -1.437211,-2.26484 -1.437217,1.64959 -3.488267,2.53154 -5.676901,2.53154 -2.667706,0 -5.062363,-1.44357 -5.062363,-4.37727 0,-2.55129 1.778706,-4.11057 5.335413,-4.58258 l 2.394656,-0.32244 m 9.096726,13.00974 c 0.47907,0.0889 0.95673,0.18486 1.43651,0.18486 2.05246,0 2.32551,-2.88573 3.0092,-4.20653 l -5.95066,-15.33525 h 1.98402 l 4.92478,13.07818 4.85564,-13.07818 h 1.91558 l -5.67761,15.01352 c -1.43721,3.81635 -2.39395,6.1976 -4.85634,6.1976 -0.61595,0 -1.16275,-0.0882 -1.64183,-0.20461 v -1.64959 m 16.34773,-10.45775 c 0.34219,3.78884 2.80529,5.17031 6.08754,5.17031 3.76202,0 5.33541,-2.05034 5.33541,-4.37726 0,-6.5525 -12.85946,-2.20204 -12.85946,-10.51208 0,-2.94216 2.39395,-5.67125 7.18185,-5.67125 4.71946,0 7.11341,2.87302 7.04497,6.32107 h -1.84643 c 0,-3.23638 -2.53083,-4.61716 -5.19854,-4.61716 -4.10422,0 -5.54073,2.49626 -5.19853,4.67149 0.889,5.45818 12.92789,1.5247 12.92789,9.71903 0,3.8862 -2.87302,6.17079 -7.72936,6.17079 -4.44641,0 -7.72936,-2.28459 -7.72936,-6.87423 l 1.98402,-7.1e-4 m 22.64128,6.3754 c -0.41063,0.0882 -1.16275,0.3556 -2.05246,0.3556 -1.71027,0 -2.6677,-0.76623 -2.6677,-3.02965 v -11.13579 h -2.18934 v -1.46332 h 2.18934 v -4.23404 h 1.7787 v 4.23404 h 2.80459 v 1.46332 H 141.792 v 10.43164 c 0,1.50495 0,2.14701 1.50425,2.14701 0.47907,0 0.95673,-0.0889 1.43721,-0.20461 v 1.4358 m 13.19954,-8.0518 c -1.50424,0.61525 -3.00849,0.73872 -4.51415,0.85584 -2.667,0.20391 -4.30882,1.17546 -4.30882,3.22792 0,1.86055 1.64182,2.73614 3.28436,2.73614 2.80388,0 5.53932,-1.35466 5.53932,-4.43935 v -2.38055 z m -2.94076,-0.87559 c 0.61595,-0.0614 1.71098,-0.23919 2.32622,-0.50659 0.54751,-0.26035 0.61525,-1.05269 0.61525,-1.57904 0,-1.79211 -1.02588,-3.08468 -3.76203,-3.08468 -2.46168,0 -4.10351,0.79304 -4.4457,3.43393 h -1.77871 c 0.27305,-3.58492 2.94076,-5.02779 6.22371,-5.02779 3.07904,0 5.54073,1.21074 5.54073,4.73287 v 8.28393 c 0,1.38077 0.3429,1.70321 1.84785,1.17546 v 1.38218 c -0.27446,0.0889 -0.89041,0.29351 -1.36808,0.29351 -0.27375,0 -0.5468,-0.0268 -0.82126,-0.0882 -1.16276,-0.17075 -1.36808,-1.20368 -1.36808,-2.26484 -1.50565,1.64959 -3.48756,2.53154 -5.6769,2.53154 -2.6677,0 -5.13009,-1.44357 -5.13009,-4.37727 0,-2.55129 1.7787,-4.11057 5.33541,-4.58258 l 2.46168,-0.32244 m 15.11724,8.92739 c -0.40993,0.0882 -1.16346,0.3556 -2.05176,0.3556 -1.70956,0 -2.6677,-0.76623 -2.6677,-3.02965 v -11.13579 h -2.1209 V 109.359 h 2.1209 v -4.23404 h 1.7787 v 4.23404 h 2.80459 v 1.46332 h -2.80459 v 10.43164 c 0,1.50495 0,2.14701 1.50425,2.14701 0.47837,0 0.95814,-0.0889 1.43722,-0.20461 v 1.4358 m 5.26626,-0.0557 h -1.71097 v -15.21814 h 1.71097 z m -1.84785,-18.54413 v -2.61126 h 1.98403 v 2.61126 h -1.98403 m 12.24422,4.50216 c -3.69359,0 -5.1301,3.13901 -5.1301,6.42902 0,3.78954 1.77871,6.43608 5.1301,6.43608 3.69288,0 5.19853,-3.17359 5.19853,-6.43608 0,-3.58422 -1.43651,-6.42902 -5.19853,-6.42902 z m -7.04498,6.42831 c 0,-4.43159 2.39395,-8.02287 7.04498,-8.02287 4.78719,0 7.11341,3.556 7.11341,8.02287 0,4.82389 -2.80458,8.02358 -7.11341,8.02358 -3.83046,-0.0607 -7.04498,-2.70157 -7.04498,-8.02358 m 18.39949,7.61366 h -1.77871 v -15.21814 h 1.77871 v 2.11314 c 1.36736,-1.49789 2.80458,-2.53083 4.85634,-2.53083 1.91487,0 3.5567,0.58773 4.65102,2.17523 0.75142,1.09432 0.82056,2.23591 0.82056,3.49462 v 9.96527 h -1.77871 v -9.9314 c 0,-2.72839 -1.16205,-4.11057 -3.96734,-4.11057 -2.18933,0 -3.69358,1.40899 -4.24039,2.96122 -0.3429,0.97155 -0.3429,1.82739 -0.3429,2.88713 v 8.19433 m 17.23744,-4.94454 c -0.20532,-0.0959 -0.47837,-0.14393 -0.8883,-0.14393 h -0.54821 v 1.40899 h 0.61736 c 0.27234,0 0.5461,-0.0268 0.68297,-0.0804 0.27305,-0.10936 0.41064,-0.31468 0.41064,-0.61595 0,-0.28152 -0.13759,-0.47343 -0.27446,-0.56868 z m -0.75213,-0.623 c 0.47978,0 0.82127,0.0416 1.09432,0.13687 0.41063,0.17145 0.54681,0.49954 0.54681,0.99907 0,0.34854 -0.0692,0.60184 -0.34149,0.76623 -0.13759,0.0889 -0.34149,0.15099 -0.54681,0.19121 0.27305,0.0473 0.47837,0.18485 0.61454,0.39017 0.13758,0.21237 0.20532,0.4184 0.20532,0.61595 v 0.28716 c 0,0.0952 0,0.19826 0.0691,0.29492 v 0.25894 h -0.61595 v -0.0896 l -0.0677,-0.12206 v -0.31539 c 0,-0.46425 -0.13758,-0.76623 -0.3429,-0.90946 -0.13617,-0.0889 -0.40922,-0.12982 -0.75212,-0.12982 h -0.5461 v 1.56633 h -0.6851 v -3.93982 h 1.36878 v -7e-4 z m -2.11949,-0.20462 c -0.61595,0.60184 -0.89041,1.3335 -0.89041,2.18088 0,0.86924 0.27446,1.60161 0.89041,2.20345 0.61525,0.60889 1.29893,0.90946 2.18934,0.90946 0.88971,0 1.57269,-0.30057 2.18864,-0.90946 0.61595,-0.60255 0.89041,-1.3335 0.89041,-2.20345 0,-0.84738 -0.27446,-1.57904 -0.89041,-2.18088 -0.61525,-0.60254 -1.29893,-0.90381 -2.18864,-0.90381 -0.89041,-7.1e-4 -1.57409,0.30056 -2.18934,0.90381 z m 4.71947,4.71806 c -0.68439,0.6985 -1.57269,1.05339 -2.53013,1.05339 -0.95885,0 -1.84785,-0.3556 -2.53082,-1.05339 -0.6851,-0.69709 -1.02659,-1.54517 -1.02659,-2.53789 0,-0.9779 0.34149,-1.82598 1.02659,-2.51672 0.68297,-0.70414 1.57197,-1.04634 2.53082,-1.04634 0.95674,0 1.84574,0.34149 2.53013,1.04634 0.68368,0.68369 1.02658,1.53247 1.02658,2.51672 0,0.99413 -0.34361,1.8415 -1.02658,2.53789 m 13.06336,-9.99138 c 3.76202,0 6.08754,-0.76694 6.08754,-4.3434 0,-2.64725 -1.70957,-4.0633 -5.47159,-4.0633 h -5.19924 v 8.4067 z m -6.56519,11.04548 v -21.15539 h 7.73006 c 5.47159,0 6.90669,2.73544 6.90669,5.90903 0,4.72652 -4.17266,5.90268 -8.13859,5.90268 h -4.51555 v 9.34297 l -1.98261,7.1e-4 m 22.50228,-14.04197 c -3.69287,0 -5.19712,3.13901 -5.19712,6.42902 0,3.78954 1.84573,6.43608 5.19712,6.43608 3.695,0 5.19924,-3.17359 5.19924,-6.43608 -0.0684,-3.58422 -1.43651,-6.42902 -5.19924,-6.42902 z m -7.04426,6.42831 c 0,-4.43159 2.32551,-8.02287 7.04426,-8.02287 4.78861,0 7.04639,3.556 7.04639,8.02287 0,4.82389 -2.80529,8.02358 -7.04639,8.02358 -3.89819,-0.0607 -7.04426,-2.70157 -7.04426,-8.02358 m 18.46792,7.61366 h -1.77871 v -15.21814 h 1.77871 v 2.85257 h 0.0691 c 0.95532,-2.44264 2.39325,-3.26955 4.92478,-3.26955 v 1.91558 c -3.96805,-0.0889 -4.99251,2.84551 -4.99251,6.25193 v 7.46761 m 14.84207,0.0557 c -0.41064,0.0882 -1.16276,0.3556 -1.98473,0.3556 -1.7773,0 -2.73615,-0.76623 -2.73615,-3.02965 v -11.13579 h -2.12019 V 109.359 h 2.12019 v -4.23404 h 1.77871 v 4.23404 h 2.87232 v 1.46332 h -2.87232 v 10.43164 c 0,1.50495 0.0691,2.14701 1.50425,2.14701 0.48118,0 1.02658,-0.0889 1.43721,-0.20461 v 1.4358 m 12.65344,-8.0518 c -1.50495,0.61525 -3.0092,0.73872 -4.51415,0.85584 -2.66841,0.20391 -4.30883,1.17546 -4.30883,3.22792 0,1.86055 1.64183,2.73614 3.28225,2.73614 2.80529,0 5.54143,-1.35466 5.54143,-4.43935 v -2.38055 z m -2.94146,-0.87559 c 0.61454,-0.0614 1.70956,-0.23919 2.32551,-0.50659 0.54822,-0.26035 0.61595,-1.05269 0.61595,-1.57904 0,-1.79211 -1.02658,-3.08468 -3.76202,-3.08468 -2.46169,0 -4.10422,0.79304 -4.44571,3.43393 h -1.77871 c 0.27305,-3.58492 2.94146,-5.02779 6.22442,-5.02779 3.07834,0 5.54072,1.21074 5.54072,4.73287 v 8.28393 c 0,1.38077 0.34149,1.70321 1.84715,1.17546 v 1.38218 c -0.27446,0.0889 -0.89041,0.29351 -1.36737,0.29351 -0.27446,0 -0.54821,-0.0268 -0.82126,-0.0882 -1.16205,-0.17075 -1.36737,-1.20368 -1.36737,-2.26484 -1.50495,1.64959 -3.48827,2.53154 -5.67902,2.53154 -2.66629,0 -5.1301,-1.44357 -5.1301,-4.37727 0,-2.55129 1.77871,-4.11057 5.33542,-4.58258 l 2.46239,-0.32244 m 16.89523,7.69479 c 2.94147,0 5.1301,-2.14701 5.19924,-5.96336 0.13547,-3.81706 -1.57338,-6.90174 -5.19924,-6.90174 -3.21521,0 -5.13009,2.9337 -5.13009,6.36834 -7.1e-4,3.67877 1.7787,6.49676 5.13009,6.49676 z m -5.1308,1.17687 h -1.7787 v -21.15539 h 1.7787 v 8.37142 c 1.09573,-1.84714 3.28295,-2.85256 5.40456,-2.85256 4.64961,0 6.77122,3.79589 6.77122,8.05745 0,4.48662 -1.91488,7.989 -6.83966,7.989 -1.98402,0 -4.24039,-1.08726 -5.334,-3.08469 v 2.67477 m 16.07326,0 h 1.7773 v -21.15539 h -1.7773 z m 17.09915,-8.6727 c 0,-2.96192 -1.64113,-5.36927 -4.7872,-5.36927 -3.14678,0 -4.7886,2.49625 -5.13009,5.36927 z m -9.918,1.47673 c 0,3.28366 1.77871,6.0198 5.1301,6.0198 2.25777,0 4.10351,-1.26576 4.58188,-3.49461 h 1.98402 c -0.889,2.87161 -2.667,5.08211 -6.5659,5.08211 -4.85775,0 -6.97795,-3.4678 -6.97795,-7.96008 0,-4.44006 2.59997,-8.08637 6.97795,-8.08637 4.17265,0 6.70348,2.97603 6.70348,8.43986 l -11.83358,-7.1e-4 M 0,0 H 124.62371 V 36.957009 H 4.9240734 V 68.988531 H 0 V 32.031524 H 119.69894 V 4.924074 H 0 V 0 m 280.30176,36.957009 v 32.031522 h -4.92478 V 32.031524 H 395.07451 V 4.924074 H 275.37698 V 0 H 400 V 36.957009 H 280.30176 M 188.16677,0 v 64.063051 h -63.54306 v 4.92548 H 193.3646 V 4.924074 h 63.54446 V 0 h -68.74229"
     id="path2"
     inkscape:connector-curvature="0" />
</svg>
