<?xml version="1.0" encoding="UTF-8" standalone="no"?>
<svg
   xmlns:dc="http://purl.org/dc/elements/1.1/"
   xmlns:cc="http://creativecommons.org/ns#"
   xmlns:rdf="http://www.w3.org/1999/02/22-rdf-syntax-ns#"
   xmlns:svg="http://www.w3.org/2000/svg"
   xmlns="http://www.w3.org/2000/svg"
   xmlns:sodipodi="http://sodipodi.sourceforge.net/DTD/sodipodi-0.dtd"
   xmlns:inkscape="http://www.inkscape.org/namespaces/inkscape"
   width="400"
   height="248.01981"
   version="1.1"
   id="svg37"
   sodipodi:docname="console.svg"
   inkscape:version="0.92.4 5da689c313, 2019-01-14">
  <metadata
     id="metadata41">
    <rdf:RDF>
      <cc:Work
         rdf:about="">
        <dc:format>image/svg+xml</dc:format>
        <dc:type
           rdf:resource="http://purl.org/dc/dcmitype/StillImage" />
      </cc:Work>
    </rdf:RDF>
  </metadata>
  <sodipodi:namedview
     pagecolor="#ffffff"
     bordercolor="#666666"
     borderopacity="1"
     objecttolerance="10"
     gridtolerance="10"
     guidetolerance="10"
     inkscape:pageopacity="0"
     inkscape:pageshadow="2"
     inkscape:window-width="640"
     inkscape:window-height="480"
     id="namedview39"
     showgrid="false"
     inkscape:zoom="0.6775"
     inkscape:cx="200"
     inkscape:cy="124.0099"
     inkscape:window-x="0"
     inkscape:window-y="0"
     inkscape:window-maximized="0"
     inkscape:current-layer="svg37" />
  <defs
     id="defs5">
    <clipPath
       id="a">
      <path
         d="M 0,465.672 H 751.024 V 0 H 0 Z"
         id="path2"
         inkscape:connector-curvature="0" />
    </clipPath>
  </defs>
  <g
     clip-path="url(#a)"
     transform="matrix(0.53260622,0,0,-0.53260622,0,248.0198)"
     id="g35">
    <path
       d="m 739.5266,0 c 12.421,0 11.481,1.631 11.481,7.078 v 450.933 c 0,5.998 -10.819,7.661 -22.962,7.661 H 22.9776 c -12.142,0 -22.961,-1.711 -22.961,-7.661 V 7.078 C 0.0166,1.631 -0.9234,0 11.4966,0 Z"
       id="path7"
       inkscape:connector-curvature="0"
       style="fill:#3a3742" />
    <path
       d="m 652.3839,6.9732 -10.94,0.073 c 16.251,36.13 89.585,199.165 95.618,212.42 7.578,16.65 11.499,27.903 13.945,45.986 v -24.398 c -2.446,-18.083 -6.367,-29.336 -13.945,-45.986 -5.868,-12.892 -56.04,-124.421 -84.678,-188.095"
       id="path9"
       inkscape:connector-curvature="0"
       style="fill:#f05953" />
    <path
       d="m 663.405,6.8284 -11.017,0.143 c 29.08,64.643 80.334,178.561 84.674,188.097 7.577,16.65 11.498,27.903 13.945,45.985 v -24.647 c -2.447,-18.082 -6.367,-29.336 -13.945,-45.986 -5.17,-11.359 -44.732,-99.287 -73.657,-163.592"
       id="path11"
       inkscape:connector-curvature="0"
       style="fill:#fded0f" />
    <path
       d="m 674.4409,6.7633 -11.198,-0.296 c 28.938,64.336 68.64,152.573 73.819,163.953 7.578,16.651 11.499,27.904 13.945,45.987 l 0.017,-24.478 c -2.446,-18.154 -6.367,-29.42 -13.962,-46.108 -4.536,-9.965 -35.548,-78.876 -62.621,-139.058"
       id="path13"
       inkscape:connector-curvature="0"
       style="fill:#79c043" />
    <path
       d="m 674.4409,6.7633 c 27.073,60.182 58.085,129.093 62.621,139.058 7.595,16.688 11.516,27.954 13.962,46.108 v -24.591 c -2.446,-18.153 -6.367,-29.419 -13.962,-46.107 -3.933,-8.641 -27.774,-61.604 -51.691,-114.764 z"
       id="path15"
       inkscape:connector-curvature="0"
       style="fill:#6cc1ec" />
    <path
       d="m 339.1494,247.8556 h -44.884 c -1.442,0 -2.61,1.169 -2.61,2.61 v 30.229 c 0,1.442 1.168,2.61 2.61,2.61 h 44.884 c 1.442,0 2.61,-1.168 2.61,-2.61 v -30.229 c 0,-1.441 -1.168,-2.61 -2.61,-2.61 m -66.354,0 h -44.884 c -1.442,0 -2.61,1.169 -2.61,2.61 v 30.229 c 0,1.442 1.168,2.61 2.61,2.61 h 44.884 c 1.441,0 2.61,-1.168 2.61,-2.61 v -30.229 c 0,-1.441 -1.169,-2.61 -2.61,-2.61 m -66.354,0 h -44.884 c -1.442,0 -2.61,1.169 -2.61,2.61 v 30.229 c 0,1.442 1.168,2.61 2.61,2.61 h 44.884 c 1.442,0 2.61,-1.168 2.61,-2.61 v -30.229 c 0,-1.441 -1.168,-2.61 -2.61,-2.61 m -66.354,0 h -44.884 c -1.442,0 -2.61,1.169 -2.61,2.61 v 30.229 c 0,1.442 1.168,2.61 2.61,2.61 h 44.884 c 1.441,0 2.61,-1.168 2.61,-2.61 v -30.229 c 0,-1.441 -1.169,-2.61 -2.61,-2.61 m -66.354,0 h -44.884 c -1.442,0 -2.61,1.169 -2.61,2.61 v 30.229 c 0,1.442 1.168,2.61 2.61,2.61 h 44.884 c 1.441,0 2.61,-1.168 2.61,-2.61 v -30.229 c 0,-1.441 -1.169,-2.61 -2.61,-2.61 m 331.7701,0 h -44.884 c -1.442,0 -2.61,1.169 -2.61,2.61 v 30.229 c 0,1.442 1.168,2.61 2.61,2.61 h 44.884 c 1.441,0 2.61,-1.168 2.61,-2.61 v -30.229 c 0,-1.441 -1.169,-2.61 -2.61,-2.61 m 66.354,0 h -44.885 c -1.441,0 -2.609,1.169 -2.609,2.61 v 30.229 c 0,1.442 1.168,2.61 2.609,2.61 h 44.885 c 1.441,0 2.61,-1.168 2.61,-2.61 v -30.229 c 0,-1.441 -1.169,-2.61 -2.61,-2.61 m 66.354,0 h -44.884 c -1.442,0 -2.61,1.169 -2.61,2.61 v 30.229 c 0,1.442 1.168,2.61 2.61,2.61 h 44.884 c 1.441,0 2.61,-1.168 2.61,-2.61 v -30.229 c 0,-1.441 -1.169,-2.61 -2.61,-2.61 m 66.3541,0 h -44.885 c -1.441,0 -2.61,1.169 -2.61,2.61 v 30.229 c 0,1.442 1.169,2.61 2.61,2.61 h 44.885 c 1.441,0 2.61,-1.168 2.61,-2.61 v -30.229 c 0,-1.441 -1.169,-2.61 -2.61,-2.61 m 66.3539,0 h -44.884 c -1.442,0 -2.61,1.169 -2.61,2.61 v 30.229 c 0,1.442 1.168,2.61 2.61,2.61 h 44.884 c 1.442,0 2.61,-1.168 2.61,-2.61 v -30.229 c 0,-1.441 -1.168,-2.61 -2.61,-2.61 M 371.8362,183.633 h -44.884 c -1.442,0 -2.61,1.169 -2.61,2.61 v 30.229 c 0,1.442 1.168,2.61 2.61,2.61 h 44.884 c 1.441,0 2.61,-1.168 2.61,-2.61 v -30.229 c 0,-1.441 -1.169,-2.61 -2.61,-2.61 m -66.3541,0 h -44.884 c -1.442,0 -2.61,1.169 -2.61,2.61 v 30.229 c 0,1.442 1.168,2.61 2.61,2.61 h 44.884 c 1.442,0 2.61,-1.168 2.61,-2.61 v -30.229 c 0,-1.441 -1.168,-2.61 -2.61,-2.61 m -66.3539,0 h -44.884 c -1.442,0 -2.61,1.169 -2.61,2.61 v 30.229 c 0,1.442 1.168,2.61 2.61,2.61 h 44.884 c 1.442,0 2.61,-1.168 2.61,-2.61 v -30.229 c 0,-1.441 -1.168,-2.61 -2.61,-2.61 m -66.354,0 h -44.884 c -1.442,0 -2.61,1.169 -2.61,2.61 v 30.229 c 0,1.442 1.168,2.61 2.61,2.61 h 44.884 c 1.441,0 2.61,-1.168 2.61,-2.61 v -30.229 c 0,-1.441 -1.169,-2.61 -2.61,-2.61 m -66.354,0 h -44.884 c -1.442,0 -2.61,1.169 -2.61,2.61 v 30.229 c 0,1.442 1.168,2.61 2.61,2.61 h 44.884 c 1.441,0 2.61,-1.168 2.61,-2.61 v -30.229 c 0,-1.441 -1.169,-2.61 -2.61,-2.61 m 331.7701,0 h -44.884 c -1.442,0 -2.61,1.169 -2.61,2.61 v 30.229 c 0,1.442 1.168,2.61 2.61,2.61 h 44.884 c 1.441,0 2.61,-1.168 2.61,-2.61 v -30.229 c 0,-1.441 -1.169,-2.61 -2.61,-2.61 m 66.354,0 h -44.884 c -1.442,0 -2.61,1.169 -2.61,2.61 v 30.229 c 0,1.442 1.168,2.61 2.61,2.61 h 44.884 c 1.441,0 2.61,-1.168 2.61,-2.61 v -30.229 c 0,-1.441 -1.169,-2.61 -2.61,-2.61 m 66.354,0 h -44.884 c -1.442,0 -2.61,1.169 -2.61,2.61 v 30.229 c 0,1.442 1.168,2.61 2.61,2.61 h 44.884 c 1.442,0 2.61,-1.168 2.61,-2.61 v -30.229 c 0,-1.441 -1.168,-2.61 -2.61,-2.61 m 66.354,0 h -44.884 c -1.442,0 -2.61,1.169 -2.61,2.61 v 30.229 c 0,1.442 1.168,2.61 2.61,2.61 h 44.884 c 1.441,0 2.61,-1.168 2.61,-2.61 v -30.229 c 0,-1.441 -1.169,-2.61 -2.61,-2.61 m 66.354,0 h -44.884 c -1.442,0 -2.61,1.169 -2.61,2.61 v 30.229 c 0,1.442 1.168,2.61 2.61,2.61 h 44.884 c 1.442,0 2.61,-1.168 2.61,-2.61 v -30.229 c 0,-1.441 -1.168,-2.61 -2.61,-2.61 M 388.4098,118.95 h -44.884 c -1.442,0 -2.61,1.169 -2.61,2.61 v 30.229 c 0,1.442 1.168,2.61 2.61,2.61 h 44.884 c 1.441,0 2.61,-1.168 2.61,-2.61 V 121.56 c 0,-1.441 -1.169,-2.61 -2.61,-2.61 m -66.354,0 h -44.884 c -1.442,0 -2.61,1.169 -2.61,2.61 v 30.229 c 0,1.442 1.168,2.61 2.61,2.61 h 44.884 c 1.441,0 2.61,-1.168 2.61,-2.61 V 121.56 c 0,-1.441 -1.169,-2.61 -2.61,-2.61 m -66.354,0 h -44.884 c -1.442,0 -2.61,1.169 -2.61,2.61 v 30.229 c 0,1.442 1.168,2.61 2.61,2.61 h 44.884 c 1.441,0 2.61,-1.168 2.61,-2.61 V 121.56 c 0,-1.441 -1.169,-2.61 -2.61,-2.61 m -66.354,0 h -44.884 c -1.442,0 -2.61,1.169 -2.61,2.61 v 30.229 c 0,1.442 1.168,2.61 2.61,2.61 h 44.884 c 1.441,0 2.61,-1.168 2.61,-2.61 V 121.56 c 0,-1.441 -1.169,-2.61 -2.61,-2.61 m -66.354,0 h -44.884 c -1.442,0 -2.61,1.169 -2.61,2.61 v 30.229 c 0,1.442 1.168,2.61 2.61,2.61 h 44.884 c 1.441,0 2.61,-1.168 2.61,-2.61 V 121.56 c 0,-1.441 -1.169,-2.61 -2.61,-2.61 m 331.7701,0 h -44.885 c -1.441,0 -2.61,1.169 -2.61,2.61 v 30.229 c 0,1.442 1.169,2.61 2.61,2.61 h 44.885 c 1.441,0 2.61,-1.168 2.61,-2.61 V 121.56 c 0,-1.441 -1.169,-2.61 -2.61,-2.61 m 66.354,0 h -44.884 c -1.442,0 -2.61,1.169 -2.61,2.61 v 30.229 c 0,1.442 1.168,2.61 2.61,2.61 h 44.884 c 1.441,0 2.61,-1.168 2.61,-2.61 V 121.56 c 0,-1.441 -1.169,-2.61 -2.61,-2.61 m 66.354,0 h -44.884 c -1.442,0 -2.61,1.169 -2.61,2.61 v 30.229 c 0,1.442 1.168,2.61 2.61,2.61 h 44.884 c 1.441,0 2.61,-1.168 2.61,-2.61 V 121.56 c 0,-1.441 -1.169,-2.61 -2.61,-2.61 m 66.354,0 h -44.884 c -1.442,0 -2.61,1.169 -2.61,2.61 v 30.229 c 0,1.442 1.168,2.61 2.61,2.61 h 44.884 c 1.441,0 2.61,-1.168 2.61,-2.61 V 121.56 c 0,-1.441 -1.169,-2.61 -2.61,-2.61 m 66.354,0 h -44.884 c -1.442,0 -2.61,1.169 -2.61,2.61 v 30.229 c 0,1.442 1.168,2.61 2.61,2.61 h 44.884 c 1.441,0 2.61,-1.168 2.61,-2.61 V 121.56 c 0,-1.441 -1.169,-2.61 -2.61,-2.61 M 421.5869,54.4972 h -44.884 c -1.442,0 -2.61,1.169 -2.61,2.61 v 30.229 c 0,1.442 1.168,2.61 2.61,2.61 h 44.884 c 1.441,0 2.61,-1.168 2.61,-2.61 v -30.229 c 0,-1.441 -1.169,-2.61 -2.61,-2.61 m -66.3541,0 h -44.884 c -1.442,0 -2.61,1.169 -2.61,2.61 v 30.229 c 0,1.442 1.168,2.61 2.61,2.61 h 44.884 c 1.441,0 2.61,-1.168 2.61,-2.61 v -30.229 c 0,-1.441 -1.169,-2.61 -2.61,-2.61 m -66.354,0 h -44.884 c -1.442,0 -2.61,1.169 -2.61,2.61 v 30.229 c 0,1.442 1.168,2.61 2.61,2.61 h 44.884 c 1.442,0 2.61,-1.168 2.61,-2.61 v -30.229 c 0,-1.441 -1.168,-2.61 -2.61,-2.61 m -66.354,0 h -44.885 c -1.441,0 -2.609,1.169 -2.609,2.61 v 30.229 c 0,1.442 1.168,2.61 2.609,2.61 h 44.885 c 1.441,0 2.61,-1.168 2.61,-2.61 v -30.229 c 0,-1.441 -1.169,-2.61 -2.61,-2.61 m -66.3541,0 h -44.884 c -1.442,0 -2.61,1.169 -2.61,2.61 v 30.229 c 0,1.442 1.168,2.61 2.61,2.61 h 44.884 c 1.441,0 2.61,-1.168 2.61,-2.61 v -30.229 c 0,-1.441 -1.169,-2.61 -2.61,-2.61 m 331.7702,0 h -44.884 c -1.442,0 -2.61,1.169 -2.61,2.61 v 30.229 c 0,1.442 1.168,2.61 2.61,2.61 h 44.884 c 1.441,0 2.61,-1.168 2.61,-2.61 v -30.229 c 0,-1.441 -1.169,-2.61 -2.61,-2.61 m 66.354,0 h -44.884 c -1.442,0 -2.61,1.169 -2.61,2.61 v 30.229 c 0,1.442 1.168,2.61 2.61,2.61 h 44.884 c 1.441,0 2.61,-1.168 2.61,-2.61 v -30.229 c 0,-1.441 -1.169,-2.61 -2.61,-2.61 m 66.354,0 h -44.884 c -1.442,0 -2.61,1.169 -2.61,2.61 v 30.229 c 0,1.442 1.168,2.61 2.61,2.61 h 44.884 c 1.441,0 2.61,-1.168 2.61,-2.61 v -30.229 c 0,-1.441 -1.169,-2.61 -2.61,-2.61 m 99.531,0 h -78.061 c -1.442,0 -2.61,1.169 -2.61,2.61 v 30.229 c 0,1.442 1.168,2.61 2.61,2.61 h 78.061 c 1.441,0 2.61,-1.168 2.61,-2.61 v -30.229 c 0,-1.441 -1.169,-2.61 -2.61,-2.61 m -630.1031,0 h -61.343 c -1.441,0 -2.61,1.169 -2.61,2.61 v 30.229 c 0,1.442 1.169,2.61 2.61,2.61 h 61.343 c 1.441,0 2.61,-1.168 2.61,-2.61 v -30.229 c 0,-1.441 -1.169,-2.61 -2.61,-2.61"
       id="path17"
       inkscape:connector-curvature="0"
       style="fill:#b3bbb9" />
    <path
       d="m 727.01,314.2239 c 10.128,0 20.026,-2.9 24.013,-15.733 v 0.072 c -3.066,16.113 -13.885,18.415 -24.013,18.415 H 24.013 c -10.128,0 -20.947,-2.302 -24.013,-18.415 v -0.072 c 3.987,12.833 13.885,15.733 24.013,15.733 z"
       id="path19"
       inkscape:connector-curvature="0"
       style="fill:#181221" />
    <path
       d="m 727.01,316.4602 c 10.128,0 20.026,-2.9 24.013,-15.733 v 0.072 c -3.066,16.113 -13.885,18.415 -24.013,18.415 H 24.013 c -10.128,0 -20.947,-2.302 -24.013,-18.415 v -0.072 c 3.987,12.833 13.885,15.733 24.013,15.733 z"
       id="path21"
       inkscape:connector-curvature="0"
       style="fill:#3a3742" />
    <path
       d="m 727.01,319.2142 c 10.128,0 20.947,-2.302 24.013,-18.415 0,16.228 -1.224,32.456 -24.013,32.456 H 24.013 C 1.225,333.2552 0,317.0272 0,300.7992 c 3.066,16.113 13.885,18.415 24.013,18.415 z M 11.4969,2.2362 c -12.421,0 -11.481,1.631 -11.481,7.078 0,0 1.746,-1.764 11.682,-1.764 h 727.627 c 9.937,0 11.682,1.764 11.682,1.764 0,-5.447 0.94,-7.078 -11.48,-7.078 z"
       id="path23"
       inkscape:connector-curvature="0"
       style="fill:#181221" />
    <path
       d="m 11.4969,0 c -12.421,0 -11.481,1.631 -11.481,7.078 0,0 1.746,-1.764 11.682,-1.764 h 727.627 c 9.937,0 11.682,1.764 11.682,1.764 0,-5.447 0.94,-7.078 -11.48,-7.078 z"
       id="path25"
       inkscape:connector-curvature="0"
       style="fill:#3a3742" />
    <path
       d="m 56.7343,401.1324 c 0.594,0.174 1.111,0.427 1.553,0.76 0.441,0.332 0.787,0.741 1.037,1.226 0.251,0.484 0.376,1.043 0.376,1.675 0,0.643 -0.117,1.177 -0.351,1.602 -0.234,0.425 -0.545,0.778 -0.932,1.062 -0.386,0.283 -0.833,0.509 -1.34,0.678 -0.506,0.169 -1.032,0.313 -1.577,0.433 -0.479,0.109 -0.902,0.207 -1.267,0.294 -0.365,0.088 -0.672,0.188 -0.923,0.303 -0.251,0.114 -0.441,0.248 -0.572,0.4 -0.131,0.153 -0.196,0.349 -0.196,0.589 0,0.381 0.174,0.686 0.523,0.915 0.348,0.229 0.811,0.343 1.389,0.343 0.61,0 1.095,-0.131 1.455,-0.392 0.359,-0.262 0.577,-0.632 0.653,-1.112 h 2.73 c -0.044,0.6 -0.191,1.125 -0.442,1.578 -0.25,0.452 -0.582,0.83 -0.996,1.136 -0.415,0.304 -0.905,0.533 -1.471,0.686 -0.567,0.152 -1.183,0.229 -1.847,0.229 -0.676,0 -1.302,-0.074 -1.88,-0.221 -0.577,-0.147 -1.078,-0.37 -1.503,-0.67 -0.425,-0.3 -0.758,-0.678 -0.997,-1.136 -0.24,-0.457 -0.36,-1.002 -0.36,-1.634 0,-0.632 0.112,-1.152 0.335,-1.561 0.223,-0.409 0.531,-0.747 0.924,-1.013 0.392,-0.267 0.849,-0.482 1.372,-0.646 0.523,-0.163 1.079,-0.31 1.668,-0.441 0.435,-0.098 0.827,-0.194 1.176,-0.286 0.349,-0.093 0.643,-0.199 0.883,-0.319 0.239,-0.12 0.422,-0.267 0.547,-0.441 0.125,-0.175 0.188,-0.392 0.188,-0.654 0,-0.251 -0.057,-0.466 -0.171,-0.646 -0.115,-0.179 -0.27,-0.326 -0.466,-0.441 -0.196,-0.114 -0.42,-0.199 -0.67,-0.253 -0.251,-0.055 -0.512,-0.082 -0.785,-0.082 -0.784,0 -1.392,0.153 -1.822,0.458 -0.431,0.305 -0.684,0.79 -0.76,1.454 h -2.811 c 0.022,-0.653 0.161,-1.239 0.417,-1.757 0.255,-0.517 0.618,-0.95 1.087,-1.299 0.468,-0.349 1.029,-0.616 1.683,-0.801 0.654,-0.185 1.389,-0.278 2.206,-0.278 0.697,0 1.343,0.088 1.937,0.262 m 7.3789,2.4596 c -0.338,0.474 -0.507,1.087 -0.507,1.839 0,0.37 0.041,0.713 0.123,1.029 0.082,0.316 0.204,0.594 0.368,0.834 0.163,0.239 0.367,0.427 0.613,0.564 0.245,0.136 0.531,0.204 0.858,0.204 0.631,0 1.1,-0.243 1.405,-0.727 0.305,-0.485 0.458,-1.12 0.458,-1.904 0,-0.785 -0.158,-1.406 -0.474,-1.864 -0.316,-0.457 -0.768,-0.686 -1.357,-0.686 -0.654,0 -1.149,0.237 -1.487,0.711 m -2.991,-5.32 h 2.566 v 2.076 c 0,0.468 -0.008,0.86 -0.024,1.177 -0.017,0.315 -0.036,0.555 -0.058,0.719 h 0.033 c 0.251,-0.425 0.597,-0.758 1.038,-0.997 0.441,-0.24 0.95,-0.36 1.528,-0.36 0.577,0 1.103,0.109 1.577,0.327 0.474,0.218 0.877,0.526 1.21,0.923 0.332,0.398 0.588,0.883 0.768,1.455 0.179,0.572 0.269,1.212 0.269,1.92 0,0.665 -0.087,1.278 -0.261,1.839 -0.175,0.561 -0.423,1.046 -0.744,1.455 -0.321,0.408 -0.714,0.727 -1.177,0.956 -0.463,0.229 -0.983,0.343 -1.56,0.343 -1.177,0 -2.06,-0.496 -2.648,-1.487 h -0.049 v 1.242 h -2.468 z m 15.4937,9.5041 c 0.316,-0.343 0.496,-0.82 0.539,-1.43 h -3.71 c 0.087,0.599 0.284,1.073 0.589,1.422 0.305,0.348 0.752,0.523 1.34,0.523 0.512,0 0.926,-0.172 1.242,-0.515 m 0.409,-6.668 c 0.457,0.136 0.858,0.327 1.201,0.572 0.343,0.245 0.632,0.534 0.866,0.866 0.234,0.332 0.406,0.689 0.515,1.071 h -2.484 c -0.142,-0.273 -0.341,-0.483 -0.597,-0.63 -0.256,-0.147 -0.586,-0.22 -0.989,-0.22 -0.621,0 -1.106,0.185 -1.454,0.555 -0.349,0.371 -0.567,0.883 -0.654,1.537 h 6.341 c 0.011,0.86 -0.098,1.645 -0.327,2.353 -0.228,0.708 -0.588,1.302 -1.078,1.782 -0.382,0.348 -0.82,0.621 -1.316,0.817 -0.496,0.196 -1.054,0.294 -1.675,0.294 -0.665,0 -1.27,-0.117 -1.814,-0.351 -0.545,-0.235 -1.014,-0.559 -1.406,-0.973 -0.392,-0.414 -0.697,-0.902 -0.915,-1.463 -0.218,-0.561 -0.327,-1.168 -0.327,-1.822 0,-0.654 0.106,-1.258 0.319,-1.814 0.212,-0.556 0.517,-1.041 0.915,-1.455 0.398,-0.414 0.88,-0.738 1.446,-0.972 0.567,-0.234 1.204,-0.352 1.913,-0.352 0.555,0 1.062,0.069 1.52,0.205 m 9.8465,0.0488 c 0.496,0.18 0.918,0.428 1.267,0.744 0.348,0.316 0.623,0.689 0.825,1.119 0.202,0.43 0.313,0.891 0.335,1.381 h -2.468 c -0.054,-0.501 -0.22,-0.888 -0.498,-1.16 -0.278,-0.273 -0.657,-0.409 -1.136,-0.409 -0.654,0 -1.142,0.245 -1.463,0.736 -0.321,0.49 -0.482,1.133 -0.482,1.928 0,0.817 0.161,1.471 0.482,1.961 0.321,0.491 0.809,0.736 1.463,0.736 0.425,0 0.768,-0.117 1.029,-0.351 0.262,-0.235 0.436,-0.554 0.524,-0.957 h 2.484 c -0.077,0.469 -0.224,0.902 -0.442,1.3 -0.218,0.397 -0.498,0.738 -0.841,1.021 -0.343,0.283 -0.75,0.504 -1.218,0.662 -0.468,0.158 -0.992,0.237 -1.569,0.237 -0.686,0 -1.307,-0.117 -1.863,-0.351 -0.556,-0.235 -1.03,-0.559 -1.422,-0.973 -0.392,-0.414 -0.695,-0.901 -0.907,-1.462 -0.212,-0.562 -0.319,-1.169 -0.319,-1.823 0,-0.654 0.109,-1.261 0.327,-1.822 0.218,-0.561 0.526,-1.049 0.924,-1.463 0.397,-0.414 0.877,-0.738 1.438,-0.972 0.561,-0.234 1.19,-0.352 1.887,-0.352 0.6,0 1.147,0.09 1.643,0.27 m 3.1134,7.0686 h 1.307 v -4.87 c 0,-0.447 0.066,-0.815 0.197,-1.104 0.13,-0.288 0.315,-0.523 0.555,-0.702 0.24,-0.18 0.526,-0.306 0.858,-0.376 0.333,-0.071 0.7,-0.106 1.104,-0.106 0.348,0 0.648,0.016 0.898,0.049 0.251,0.032 0.447,0.059 0.589,0.081 v 1.912 h -0.131 c -0.087,-0.011 -0.185,-0.019 -0.294,-0.024 -0.109,-0.006 -0.207,-0.008 -0.294,-0.008 -0.305,0 -0.542,0.057 -0.711,0.171 -0.169,0.115 -0.254,0.335 -0.254,0.662 v 4.315 h 1.7 v 1.634 h -1.7 v 2.779 h -2.517 v -2.779 h -1.307 z m 9.332,1.6343 h -2.468 v -8.695 h 2.566 v 4.037 c 0,0.85 0.21,1.49 0.629,1.921 0.42,0.43 0.978,0.639 1.676,0.629 0.174,0 0.353,-0.017 0.539,-0.049 h 0.065 v 2.239 c -0.098,0.043 -0.278,0.065 -0.539,0.065 -0.545,0 -1.013,-0.131 -1.406,-0.392 -0.392,-0.262 -0.73,-0.698 -1.013,-1.308 h -0.049 z m 12.3229,-8.6947 v 8.695 h -2.533 v -4.92 c 0,-0.545 -0.147,-0.991 -0.442,-1.34 -0.294,-0.349 -0.702,-0.523 -1.225,-0.523 -0.458,0 -0.804,0.131 -1.038,0.392 -0.235,0.262 -0.351,0.638 -0.351,1.128 v 5.263 h -2.566 v -5.753 c 0,-0.959 0.261,-1.73 0.784,-2.313 0.523,-0.583 1.28,-0.874 2.272,-0.874 0.599,0 1.106,0.12 1.52,0.359 0.414,0.24 0.779,0.616 1.095,1.128 h 0.049 v -1.242 z m 1.6997,0 h 2.566 v 4.952 c 0,0.556 0.136,1.008 0.409,1.357 0.272,0.348 0.637,0.523 1.095,0.523 0.424,0 0.743,-0.134 0.956,-0.401 0.212,-0.267 0.318,-0.64 0.318,-1.119 v -5.312 h 2.566 v 4.952 c 0,0.556 0.134,1.008 0.401,1.357 0.267,0.348 0.629,0.523 1.087,0.523 0.413,0 0.732,-0.134 0.956,-0.401 0.223,-0.267 0.335,-0.64 0.335,-1.119 v -5.312 h 2.549 v 5.737 c 0,0.969 -0.245,1.746 -0.735,2.329 -0.49,0.582 -1.221,0.874 -2.19,0.874 -0.556,0 -1.065,-0.128 -1.528,-0.384 -0.464,-0.256 -0.875,-0.678 -1.234,-1.267 h -0.033 c -0.447,1.101 -1.242,1.651 -2.386,1.651 -0.621,0 -1.142,-0.136 -1.561,-0.409 -0.419,-0.272 -0.771,-0.67 -1.054,-1.193 h -0.049 v 1.357 h -2.468 z m -92.2674,0 h 10.019 v 2.386 h -4.054 c -0.25,0 -0.531,-0.005 -0.841,-0.016 -0.311,-0.011 -0.608,-0.022 -0.891,-0.033 -0.327,-0.022 -0.654,-0.038 -0.981,-0.049 v 0.049 l 0.801,0.801 c 0.229,0.229 0.468,0.479 0.719,0.752 0.251,0.272 0.48,0.533 0.687,0.784 l 4.331,5.296 v 2.19 h -9.349 v -2.354 h 3.498 c 0.239,0 0.506,0.003 0.801,0.008 0.294,0.006 0.572,0.014 0.833,0.025 0.305,0.011 0.616,0.027 0.932,0.049 v -0.049 c -0.251,-0.24 -0.496,-0.485 -0.736,-0.736 -0.207,-0.218 -0.425,-0.449 -0.654,-0.694 -0.228,-0.245 -0.435,-0.477 -0.621,-0.695 l -4.494,-5.459 z m 11.2279,0 h 3.171 l 1.258,2.141 c 0.142,0.24 0.286,0.504 0.433,0.793 0.147,0.288 0.281,0.558 0.401,0.809 0.141,0.294 0.277,0.588 0.408,0.882 h 0.033 c 0.131,-0.294 0.261,-0.588 0.392,-0.882 0.12,-0.251 0.248,-0.521 0.384,-0.809 0.136,-0.289 0.275,-0.553 0.417,-0.793 l 1.226,-2.141 h 3.301 l -4.053,6.374 3.677,5.786 h -3.04 l -0.997,-1.651 c -0.141,-0.24 -0.286,-0.499 -0.433,-0.776 -0.147,-0.278 -0.28,-0.543 -0.4,-0.793 -0.142,-0.284 -0.278,-0.578 -0.409,-0.883 h -0.032 c -0.142,0.305 -0.278,0.599 -0.409,0.883 -0.12,0.25 -0.251,0.515 -0.392,0.793 -0.142,0.277 -0.284,0.536 -0.425,0.776 l -0.981,1.651 h -3.187 l 3.743,-5.802 z"
       id="path27"
       inkscape:connector-curvature="0"
       style="fill:#d3c5c5" />
    <path
       d="m 183.582,461.487 h 9.133 v -34.242 h -9.133 z m 22.826,-25.109 h 22.832 v -2.283 h -22.832 z m -9.127,15.976 v -6.844 h 31.959 v -2.283 h -31.959 v -15.982 h 41.092 v 25.109 z m 45.658,0 h 9.127 v -25.109 h -9.127 z m 0,9.133 h 9.127 v -6.849 h -9.127 z m 13.6939,-9.1329 v -25.109 h 9.133 v 18.265 h 36.525 v 6.844 z m -123.2758,0 v -25.109 h 45.658 v 6.85 h -36.525 v 11.415 h 36.525 v 6.844 z m -50.225,0 v -25.109 h 9.133 v 18.265 h 27.393 v -18.265 h 9.132 v 25.109 z m -13.6991,-1e-4 h 9.133 v -25.109 h -9.133 z m 0,9.133 h 9.133 v -6.849 h -9.133 z m -50.2192,-9.1329 v -15.976 h 36.526 v -2.283 h -36.526 v -6.85 h 45.658 v 15.982 h -36.531 v 2.283 h 36.531 v 6.844 z"
       id="path29"
       inkscape:connector-curvature="0"
       style="fill:#5b585b" />
    <path
       d="m 185.818,459.251 h 9.133 v -34.242 h -9.133 z m 22.826,-25.109 h 22.832 v -2.283 h -22.832 z m -9.127,15.976 v -6.844 h 31.959 v -2.283 h -31.959 v -15.982 h 41.092 v 25.109 z m 45.659,0 h 9.127 v -25.109 h -9.127 z m 0,9.133 h 9.127 v -6.85 h -9.127 z m 13.6931,-9.1331 v -25.109 h 9.133 v 18.265 h 36.525 v 6.844 z m -123.2758,0 v -25.109 h 45.658 v 6.85 h -36.525 v 11.415 h 36.525 v 6.844 z m -50.225,0 v -25.109 h 9.133 v 18.265 h 27.393 v -18.265 h 9.132 v 25.109 z m -13.6993,10e-5 h 9.133 v -25.109 h -9.133 z m 0,9.133 h 9.133 v -6.85 h -9.133 z m -50.2189,-9.1331 v -15.976 h 36.526 v -2.283 h -36.526 v -6.85 h 45.658 v 15.982 h -36.531 v 2.283 h 36.531 v 6.844 z"
       id="path31"
       inkscape:connector-curvature="0"
       style="fill:#181221" />
    <path
       d="m 184.7,460.369 h 9.133 V 426.127 H 184.7 Z m 22.826,-25.109 h 22.832 v -2.283 h -22.832 z m -9.127,15.976 v -6.844 h 31.959 v -2.283 h -31.959 v -15.982 h 41.092 v 25.109 z m 45.658,0 h 9.127 v -25.109 h -9.127 z m 0,9.133 h 9.127 v -6.85 h -9.127 z m 13.6939,-9.133 v -25.109 h 9.133 v 18.265 h 36.525 v 6.844 z m -123.2757,0 v -25.109 h 45.658 v 6.849 h -36.525 v 11.416 h 36.525 v 6.844 z m -50.225,0 v -25.109 h 9.133 v 18.265 h 27.393 v -18.265 h 9.132 v 25.109 z m -13.6992,0 h 9.133 v -25.109 h -9.133 z m 0,9.133 h 9.133 v -6.85 H 70.551 Z M 20.332,451.236 V 435.26 h 36.526 v -2.284 H 20.332 v -6.849 H 65.99 v 15.982 H 29.459 v 2.283 H 65.99 v 6.844 z"
       id="path33"
       inkscape:connector-curvature="0"
       style="fill:#3a3742" />
  </g>
</svg>
