<?xml version="1.0" encoding="UTF-8" standalone="no"?>
<svg
   xmlns:dc="http://purl.org/dc/elements/1.1/"
   xmlns:cc="http://creativecommons.org/ns#"
   xmlns:rdf="http://www.w3.org/1999/02/22-rdf-syntax-ns#"
   xmlns:svg="http://www.w3.org/2000/svg"
   xmlns="http://www.w3.org/2000/svg"
   xmlns:sodipodi="http://sodipodi.sourceforge.net/DTD/sodipodi-0.dtd"
   xmlns:inkscape="http://www.inkscape.org/namespaces/inkscape"
   width="500"
   height="179.90341"
   version="1.1"
   id="svg74"
   sodipodi:docname="consolegame.svg"
   inkscape:version="0.92.4 5da689c313, 2019-01-14">
  <metadata
     id="metadata78">
    <rdf:RDF>
      <cc:Work
         rdf:about="">
        <dc:format>image/svg+xml</dc:format>
        <dc:type
           rdf:resource="http://purl.org/dc/dcmitype/StillImage" />
      </cc:Work>
    </rdf:RDF>
  </metadata>
  <sodipodi:namedview
     pagecolor="#ffffff"
     bordercolor="#666666"
     borderopacity="1"
     objecttolerance="10"
     gridtolerance="10"
     guidetolerance="10"
     inkscape:pageopacity="0"
     inkscape:pageshadow="2"
     inkscape:window-width="640"
     inkscape:window-height="480"
     id="namedview76"
     showgrid="false"
     inkscape:zoom="0.542"
     inkscape:cx="250"
     inkscape:cy="89.951694"
     inkscape:window-x="0"
     inkscape:window-y="0"
     inkscape:window-maximized="0"
     inkscape:current-layer="svg74" />
  <defs
     id="defs8">
    <clipPath
       id="a">
      <path
         d="M 0,465.672 H 751.024 V 0 H 0 Z"
         id="path2"
         inkscape:connector-curvature="0" />
    </clipPath>
    <clipPath
       id="b">
      <path
         d="M 0,261.244 H 765.363 V 0 H 0 Z"
         id="path5"
         inkscape:connector-curvature="0" />
    </clipPath>
  </defs>
  <g
     clip-path="url(#a)"
     transform="matrix(0.38633071,0,0,-0.38633071,0,179.90339)"
     id="g38">
    <path
       d="m 739.5266,0 c 12.421,0 11.481,1.631 11.481,7.078 v 450.933 c 0,5.998 -10.819,7.661 -22.962,7.661 H 22.9776 c -12.142,0 -22.961,-1.711 -22.961,-7.661 V 7.078 C 0.0166,1.631 -0.9234,0 11.4966,0 Z"
       id="path10"
       inkscape:connector-curvature="0"
       style="fill:#3a3742" />
    <path
       d="m 652.3839,6.9732 -10.94,0.073 c 16.251,36.13 89.585,199.165 95.618,212.42 7.578,16.65 11.499,27.903 13.945,45.986 v -24.398 c -2.446,-18.083 -6.367,-29.336 -13.945,-45.986 -5.868,-12.892 -56.04,-124.421 -84.678,-188.095"
       id="path12"
       inkscape:connector-curvature="0"
       style="fill:#f05953" />
    <path
       d="m 663.405,6.8284 -11.017,0.143 c 29.08,64.643 80.334,178.561 84.674,188.097 7.577,16.65 11.498,27.903 13.945,45.985 v -24.647 c -2.447,-18.082 -6.367,-29.336 -13.945,-45.986 -5.17,-11.359 -44.732,-99.287 -73.657,-163.592"
       id="path14"
       inkscape:connector-curvature="0"
       style="fill:#fded0f" />
    <path
       d="m 674.4409,6.7633 -11.198,-0.296 c 28.938,64.336 68.64,152.573 73.819,163.953 7.578,16.651 11.499,27.904 13.945,45.987 l 0.017,-24.478 c -2.446,-18.154 -6.367,-29.42 -13.962,-46.108 -4.536,-9.965 -35.548,-78.876 -62.621,-139.058"
       id="path16"
       inkscape:connector-curvature="0"
       style="fill:#79c043" />
    <path
       d="m 674.4409,6.7633 c 27.073,60.182 58.085,129.093 62.621,139.058 7.595,16.688 11.516,27.954 13.962,46.108 v -24.591 c -2.446,-18.153 -6.367,-29.419 -13.962,-46.107 -3.933,-8.641 -27.774,-61.604 -51.691,-114.764 z"
       id="path18"
       inkscape:connector-curvature="0"
       style="fill:#6cc1ec" />
    <path
       d="m 339.1494,247.8556 h -44.884 c -1.442,0 -2.61,1.169 -2.61,2.61 v 30.229 c 0,1.442 1.168,2.61 2.61,2.61 h 44.884 c 1.442,0 2.61,-1.168 2.61,-2.61 v -30.229 c 0,-1.441 -1.168,-2.61 -2.61,-2.61 m -66.354,0 h -44.884 c -1.442,0 -2.61,1.169 -2.61,2.61 v 30.229 c 0,1.442 1.168,2.61 2.61,2.61 h 44.884 c 1.441,0 2.61,-1.168 2.61,-2.61 v -30.229 c 0,-1.441 -1.169,-2.61 -2.61,-2.61 m -66.354,0 h -44.884 c -1.442,0 -2.61,1.169 -2.61,2.61 v 30.229 c 0,1.442 1.168,2.61 2.61,2.61 h 44.884 c 1.442,0 2.61,-1.168 2.61,-2.61 v -30.229 c 0,-1.441 -1.168,-2.61 -2.61,-2.61 m -66.354,0 h -44.884 c -1.442,0 -2.61,1.169 -2.61,2.61 v 30.229 c 0,1.442 1.168,2.61 2.61,2.61 h 44.884 c 1.441,0 2.61,-1.168 2.61,-2.61 v -30.229 c 0,-1.441 -1.169,-2.61 -2.61,-2.61 m -66.354,0 h -44.884 c -1.442,0 -2.61,1.169 -2.61,2.61 v 30.229 c 0,1.442 1.168,2.61 2.61,2.61 h 44.884 c 1.441,0 2.61,-1.168 2.61,-2.61 v -30.229 c 0,-1.441 -1.169,-2.61 -2.61,-2.61 m 331.7701,0 h -44.884 c -1.442,0 -2.61,1.169 -2.61,2.61 v 30.229 c 0,1.442 1.168,2.61 2.61,2.61 h 44.884 c 1.441,0 2.61,-1.168 2.61,-2.61 v -30.229 c 0,-1.441 -1.169,-2.61 -2.61,-2.61 m 66.354,0 h -44.885 c -1.441,0 -2.609,1.169 -2.609,2.61 v 30.229 c 0,1.442 1.168,2.61 2.609,2.61 h 44.885 c 1.441,0 2.61,-1.168 2.61,-2.61 v -30.229 c 0,-1.441 -1.169,-2.61 -2.61,-2.61 m 66.354,0 h -44.884 c -1.442,0 -2.61,1.169 -2.61,2.61 v 30.229 c 0,1.442 1.168,2.61 2.61,2.61 h 44.884 c 1.441,0 2.61,-1.168 2.61,-2.61 v -30.229 c 0,-1.441 -1.169,-2.61 -2.61,-2.61 m 66.3541,0 h -44.885 c -1.441,0 -2.61,1.169 -2.61,2.61 v 30.229 c 0,1.442 1.169,2.61 2.61,2.61 h 44.885 c 1.441,0 2.61,-1.168 2.61,-2.61 v -30.229 c 0,-1.441 -1.169,-2.61 -2.61,-2.61 m 66.3539,0 h -44.884 c -1.442,0 -2.61,1.169 -2.61,2.61 v 30.229 c 0,1.442 1.168,2.61 2.61,2.61 h 44.884 c 1.442,0 2.61,-1.168 2.61,-2.61 v -30.229 c 0,-1.441 -1.168,-2.61 -2.61,-2.61 M 371.8362,183.633 h -44.884 c -1.442,0 -2.61,1.169 -2.61,2.61 v 30.229 c 0,1.442 1.168,2.61 2.61,2.61 h 44.884 c 1.441,0 2.61,-1.168 2.61,-2.61 v -30.229 c 0,-1.441 -1.169,-2.61 -2.61,-2.61 m -66.3541,0 h -44.884 c -1.442,0 -2.61,1.169 -2.61,2.61 v 30.229 c 0,1.442 1.168,2.61 2.61,2.61 h 44.884 c 1.442,0 2.61,-1.168 2.61,-2.61 v -30.229 c 0,-1.441 -1.168,-2.61 -2.61,-2.61 m -66.3539,0 h -44.884 c -1.442,0 -2.61,1.169 -2.61,2.61 v 30.229 c 0,1.442 1.168,2.61 2.61,2.61 h 44.884 c 1.442,0 2.61,-1.168 2.61,-2.61 v -30.229 c 0,-1.441 -1.168,-2.61 -2.61,-2.61 m -66.354,0 h -44.884 c -1.442,0 -2.61,1.169 -2.61,2.61 v 30.229 c 0,1.442 1.168,2.61 2.61,2.61 h 44.884 c 1.441,0 2.61,-1.168 2.61,-2.61 v -30.229 c 0,-1.441 -1.169,-2.61 -2.61,-2.61 m -66.354,0 h -44.884 c -1.442,0 -2.61,1.169 -2.61,2.61 v 30.229 c 0,1.442 1.168,2.61 2.61,2.61 h 44.884 c 1.441,0 2.61,-1.168 2.61,-2.61 v -30.229 c 0,-1.441 -1.169,-2.61 -2.61,-2.61 m 331.7701,0 h -44.884 c -1.442,0 -2.61,1.169 -2.61,2.61 v 30.229 c 0,1.442 1.168,2.61 2.61,2.61 h 44.884 c 1.441,0 2.61,-1.168 2.61,-2.61 v -30.229 c 0,-1.441 -1.169,-2.61 -2.61,-2.61 m 66.354,0 h -44.884 c -1.442,0 -2.61,1.169 -2.61,2.61 v 30.229 c 0,1.442 1.168,2.61 2.61,2.61 h 44.884 c 1.441,0 2.61,-1.168 2.61,-2.61 v -30.229 c 0,-1.441 -1.169,-2.61 -2.61,-2.61 m 66.354,0 h -44.884 c -1.442,0 -2.61,1.169 -2.61,2.61 v 30.229 c 0,1.442 1.168,2.61 2.61,2.61 h 44.884 c 1.442,0 2.61,-1.168 2.61,-2.61 v -30.229 c 0,-1.441 -1.168,-2.61 -2.61,-2.61 m 66.354,0 h -44.884 c -1.442,0 -2.61,1.169 -2.61,2.61 v 30.229 c 0,1.442 1.168,2.61 2.61,2.61 h 44.884 c 1.441,0 2.61,-1.168 2.61,-2.61 v -30.229 c 0,-1.441 -1.169,-2.61 -2.61,-2.61 m 66.354,0 h -44.884 c -1.442,0 -2.61,1.169 -2.61,2.61 v 30.229 c 0,1.442 1.168,2.61 2.61,2.61 h 44.884 c 1.442,0 2.61,-1.168 2.61,-2.61 v -30.229 c 0,-1.441 -1.168,-2.61 -2.61,-2.61 M 388.4098,118.95 h -44.884 c -1.442,0 -2.61,1.169 -2.61,2.61 v 30.229 c 0,1.442 1.168,2.61 2.61,2.61 h 44.884 c 1.441,0 2.61,-1.168 2.61,-2.61 V 121.56 c 0,-1.441 -1.169,-2.61 -2.61,-2.61 m -66.354,0 h -44.884 c -1.442,0 -2.61,1.169 -2.61,2.61 v 30.229 c 0,1.442 1.168,2.61 2.61,2.61 h 44.884 c 1.441,0 2.61,-1.168 2.61,-2.61 V 121.56 c 0,-1.441 -1.169,-2.61 -2.61,-2.61 m -66.354,0 h -44.884 c -1.442,0 -2.61,1.169 -2.61,2.61 v 30.229 c 0,1.442 1.168,2.61 2.61,2.61 h 44.884 c 1.441,0 2.61,-1.168 2.61,-2.61 V 121.56 c 0,-1.441 -1.169,-2.61 -2.61,-2.61 m -66.354,0 h -44.884 c -1.442,0 -2.61,1.169 -2.61,2.61 v 30.229 c 0,1.442 1.168,2.61 2.61,2.61 h 44.884 c 1.441,0 2.61,-1.168 2.61,-2.61 V 121.56 c 0,-1.441 -1.169,-2.61 -2.61,-2.61 m -66.354,0 h -44.884 c -1.442,0 -2.61,1.169 -2.61,2.61 v 30.229 c 0,1.442 1.168,2.61 2.61,2.61 h 44.884 c 1.441,0 2.61,-1.168 2.61,-2.61 V 121.56 c 0,-1.441 -1.169,-2.61 -2.61,-2.61 m 331.7701,0 h -44.885 c -1.441,0 -2.61,1.169 -2.61,2.61 v 30.229 c 0,1.442 1.169,2.61 2.61,2.61 h 44.885 c 1.441,0 2.61,-1.168 2.61,-2.61 V 121.56 c 0,-1.441 -1.169,-2.61 -2.61,-2.61 m 66.354,0 h -44.884 c -1.442,0 -2.61,1.169 -2.61,2.61 v 30.229 c 0,1.442 1.168,2.61 2.61,2.61 h 44.884 c 1.441,0 2.61,-1.168 2.61,-2.61 V 121.56 c 0,-1.441 -1.169,-2.61 -2.61,-2.61 m 66.354,0 h -44.884 c -1.442,0 -2.61,1.169 -2.61,2.61 v 30.229 c 0,1.442 1.168,2.61 2.61,2.61 h 44.884 c 1.441,0 2.61,-1.168 2.61,-2.61 V 121.56 c 0,-1.441 -1.169,-2.61 -2.61,-2.61 m 66.354,0 h -44.884 c -1.442,0 -2.61,1.169 -2.61,2.61 v 30.229 c 0,1.442 1.168,2.61 2.61,2.61 h 44.884 c 1.441,0 2.61,-1.168 2.61,-2.61 V 121.56 c 0,-1.441 -1.169,-2.61 -2.61,-2.61 m 66.354,0 h -44.884 c -1.442,0 -2.61,1.169 -2.61,2.61 v 30.229 c 0,1.442 1.168,2.61 2.61,2.61 h 44.884 c 1.441,0 2.61,-1.168 2.61,-2.61 V 121.56 c 0,-1.441 -1.169,-2.61 -2.61,-2.61 M 421.5869,54.4972 h -44.884 c -1.442,0 -2.61,1.169 -2.61,2.61 v 30.229 c 0,1.442 1.168,2.61 2.61,2.61 h 44.884 c 1.441,0 2.61,-1.168 2.61,-2.61 v -30.229 c 0,-1.441 -1.169,-2.61 -2.61,-2.61 m -66.3541,0 h -44.884 c -1.442,0 -2.61,1.169 -2.61,2.61 v 30.229 c 0,1.442 1.168,2.61 2.61,2.61 h 44.884 c 1.441,0 2.61,-1.168 2.61,-2.61 v -30.229 c 0,-1.441 -1.169,-2.61 -2.61,-2.61 m -66.354,0 h -44.884 c -1.442,0 -2.61,1.169 -2.61,2.61 v 30.229 c 0,1.442 1.168,2.61 2.61,2.61 h 44.884 c 1.442,0 2.61,-1.168 2.61,-2.61 v -30.229 c 0,-1.441 -1.168,-2.61 -2.61,-2.61 m -66.354,0 h -44.885 c -1.441,0 -2.609,1.169 -2.609,2.61 v 30.229 c 0,1.442 1.168,2.61 2.609,2.61 h 44.885 c 1.441,0 2.61,-1.168 2.61,-2.61 v -30.229 c 0,-1.441 -1.169,-2.61 -2.61,-2.61 m -66.3541,0 h -44.884 c -1.442,0 -2.61,1.169 -2.61,2.61 v 30.229 c 0,1.442 1.168,2.61 2.61,2.61 h 44.884 c 1.441,0 2.61,-1.168 2.61,-2.61 v -30.229 c 0,-1.441 -1.169,-2.61 -2.61,-2.61 m 331.7702,0 h -44.884 c -1.442,0 -2.61,1.169 -2.61,2.61 v 30.229 c 0,1.442 1.168,2.61 2.61,2.61 h 44.884 c 1.441,0 2.61,-1.168 2.61,-2.61 v -30.229 c 0,-1.441 -1.169,-2.61 -2.61,-2.61 m 66.354,0 h -44.884 c -1.442,0 -2.61,1.169 -2.61,2.61 v 30.229 c 0,1.442 1.168,2.61 2.61,2.61 h 44.884 c 1.441,0 2.61,-1.168 2.61,-2.61 v -30.229 c 0,-1.441 -1.169,-2.61 -2.61,-2.61 m 66.354,0 h -44.884 c -1.442,0 -2.61,1.169 -2.61,2.61 v 30.229 c 0,1.442 1.168,2.61 2.61,2.61 h 44.884 c 1.441,0 2.61,-1.168 2.61,-2.61 v -30.229 c 0,-1.441 -1.169,-2.61 -2.61,-2.61 m 99.531,0 h -78.061 c -1.442,0 -2.61,1.169 -2.61,2.61 v 30.229 c 0,1.442 1.168,2.61 2.61,2.61 h 78.061 c 1.441,0 2.61,-1.168 2.61,-2.61 v -30.229 c 0,-1.441 -1.169,-2.61 -2.61,-2.61 m -630.1031,0 h -61.343 c -1.441,0 -2.61,1.169 -2.61,2.61 v 30.229 c 0,1.442 1.169,2.61 2.61,2.61 h 61.343 c 1.441,0 2.61,-1.168 2.61,-2.61 v -30.229 c 0,-1.441 -1.169,-2.61 -2.61,-2.61"
       id="path20"
       inkscape:connector-curvature="0"
       style="fill:#b3bbb9" />
    <path
       d="m 727.01,314.2239 c 10.128,0 20.026,-2.9 24.013,-15.733 v 0.072 c -3.066,16.113 -13.885,18.415 -24.013,18.415 H 24.013 c -10.128,0 -20.947,-2.302 -24.013,-18.415 v -0.072 c 3.987,12.833 13.885,15.733 24.013,15.733 z"
       id="path22"
       inkscape:connector-curvature="0"
       style="fill:#181221" />
    <path
       d="m 727.01,316.4602 c 10.128,0 20.026,-2.9 24.013,-15.733 v 0.072 c -3.066,16.113 -13.885,18.415 -24.013,18.415 H 24.013 c -10.128,0 -20.947,-2.302 -24.013,-18.415 v -0.072 c 3.987,12.833 13.885,15.733 24.013,15.733 z"
       id="path24"
       inkscape:connector-curvature="0"
       style="fill:#3a3742" />
    <path
       d="m 727.01,319.2142 c 10.128,0 20.947,-2.302 24.013,-18.415 0,16.228 -1.224,32.456 -24.013,32.456 H 24.013 C 1.225,333.2552 0,317.0272 0,300.7992 c 3.066,16.113 13.885,18.415 24.013,18.415 z M 11.4969,2.2362 c -12.421,0 -11.481,1.631 -11.481,7.078 0,0 1.746,-1.764 11.682,-1.764 h 727.627 c 9.937,0 11.682,1.764 11.682,1.764 0,-5.447 0.94,-7.078 -11.48,-7.078 z"
       id="path26"
       inkscape:connector-curvature="0"
       style="fill:#181221" />
    <path
       d="m 11.4969,0 c -12.421,0 -11.481,1.631 -11.481,7.078 0,0 1.746,-1.764 11.682,-1.764 h 727.627 c 9.937,0 11.682,1.764 11.682,1.764 0,-5.447 0.94,-7.078 -11.48,-7.078 z"
       id="path28"
       inkscape:connector-curvature="0"
       style="fill:#3a3742" />
    <path
       d="m 56.7343,401.1324 c 0.594,0.174 1.111,0.427 1.553,0.76 0.441,0.332 0.787,0.741 1.037,1.226 0.251,0.484 0.376,1.043 0.376,1.675 0,0.643 -0.117,1.177 -0.351,1.602 -0.234,0.425 -0.545,0.778 -0.932,1.062 -0.386,0.283 -0.833,0.509 -1.34,0.678 -0.506,0.169 -1.032,0.313 -1.577,0.433 -0.479,0.109 -0.902,0.207 -1.267,0.294 -0.365,0.088 -0.672,0.188 -0.923,0.303 -0.251,0.114 -0.441,0.248 -0.572,0.4 -0.131,0.153 -0.196,0.349 -0.196,0.589 0,0.381 0.174,0.686 0.523,0.915 0.348,0.229 0.811,0.343 1.389,0.343 0.61,0 1.095,-0.131 1.455,-0.392 0.359,-0.262 0.577,-0.632 0.653,-1.112 h 2.73 c -0.044,0.6 -0.191,1.125 -0.442,1.578 -0.25,0.452 -0.582,0.83 -0.996,1.136 -0.415,0.304 -0.905,0.533 -1.471,0.686 -0.567,0.152 -1.183,0.229 -1.847,0.229 -0.676,0 -1.302,-0.074 -1.88,-0.221 -0.577,-0.147 -1.078,-0.37 -1.503,-0.67 -0.425,-0.3 -0.758,-0.678 -0.997,-1.136 -0.24,-0.457 -0.36,-1.002 -0.36,-1.634 0,-0.632 0.112,-1.152 0.335,-1.561 0.223,-0.409 0.531,-0.747 0.924,-1.013 0.392,-0.267 0.849,-0.482 1.372,-0.646 0.523,-0.163 1.079,-0.31 1.668,-0.441 0.435,-0.098 0.827,-0.194 1.176,-0.286 0.349,-0.093 0.643,-0.199 0.883,-0.319 0.239,-0.12 0.422,-0.267 0.547,-0.441 0.125,-0.175 0.188,-0.392 0.188,-0.654 0,-0.251 -0.057,-0.466 -0.171,-0.646 -0.115,-0.179 -0.27,-0.326 -0.466,-0.441 -0.196,-0.114 -0.42,-0.199 -0.67,-0.253 -0.251,-0.055 -0.512,-0.082 -0.785,-0.082 -0.784,0 -1.392,0.153 -1.822,0.458 -0.431,0.305 -0.684,0.79 -0.76,1.454 h -2.811 c 0.022,-0.653 0.161,-1.239 0.417,-1.757 0.255,-0.517 0.618,-0.95 1.087,-1.299 0.468,-0.349 1.029,-0.616 1.683,-0.801 0.654,-0.185 1.389,-0.278 2.206,-0.278 0.697,0 1.343,0.088 1.937,0.262 m 7.3789,2.4596 c -0.338,0.474 -0.507,1.087 -0.507,1.839 0,0.37 0.041,0.713 0.123,1.029 0.082,0.316 0.204,0.594 0.368,0.834 0.163,0.239 0.367,0.427 0.613,0.564 0.245,0.136 0.531,0.204 0.858,0.204 0.631,0 1.1,-0.243 1.405,-0.727 0.305,-0.485 0.458,-1.12 0.458,-1.904 0,-0.785 -0.158,-1.406 -0.474,-1.864 -0.316,-0.457 -0.768,-0.686 -1.357,-0.686 -0.654,0 -1.149,0.237 -1.487,0.711 m -2.991,-5.32 h 2.566 v 2.076 c 0,0.468 -0.008,0.86 -0.024,1.177 -0.017,0.315 -0.036,0.555 -0.058,0.719 h 0.033 c 0.251,-0.425 0.597,-0.758 1.038,-0.997 0.441,-0.24 0.95,-0.36 1.528,-0.36 0.577,0 1.103,0.109 1.577,0.327 0.474,0.218 0.877,0.526 1.21,0.923 0.332,0.398 0.588,0.883 0.768,1.455 0.179,0.572 0.269,1.212 0.269,1.92 0,0.665 -0.087,1.278 -0.261,1.839 -0.175,0.561 -0.423,1.046 -0.744,1.455 -0.321,0.408 -0.714,0.727 -1.177,0.956 -0.463,0.229 -0.983,0.343 -1.56,0.343 -1.177,0 -2.06,-0.496 -2.648,-1.487 h -0.049 v 1.242 h -2.468 z m 15.4937,9.5041 c 0.316,-0.343 0.496,-0.82 0.539,-1.43 h -3.71 c 0.087,0.599 0.284,1.073 0.589,1.422 0.305,0.348 0.752,0.523 1.34,0.523 0.512,0 0.926,-0.172 1.242,-0.515 m 0.409,-6.668 c 0.457,0.136 0.858,0.327 1.201,0.572 0.343,0.245 0.632,0.534 0.866,0.866 0.234,0.332 0.406,0.689 0.515,1.071 h -2.484 c -0.142,-0.273 -0.341,-0.483 -0.597,-0.63 -0.256,-0.147 -0.586,-0.22 -0.989,-0.22 -0.621,0 -1.106,0.185 -1.454,0.555 -0.349,0.371 -0.567,0.883 -0.654,1.537 h 6.341 c 0.011,0.86 -0.098,1.645 -0.327,2.353 -0.228,0.708 -0.588,1.302 -1.078,1.782 -0.382,0.348 -0.82,0.621 -1.316,0.817 -0.496,0.196 -1.054,0.294 -1.675,0.294 -0.665,0 -1.27,-0.117 -1.814,-0.351 -0.545,-0.235 -1.014,-0.559 -1.406,-0.973 -0.392,-0.414 -0.697,-0.902 -0.915,-1.463 -0.218,-0.561 -0.327,-1.168 -0.327,-1.822 0,-0.654 0.106,-1.258 0.319,-1.814 0.212,-0.556 0.517,-1.041 0.915,-1.455 0.398,-0.414 0.88,-0.738 1.446,-0.972 0.567,-0.234 1.204,-0.352 1.913,-0.352 0.555,0 1.062,0.069 1.52,0.205 m 9.8465,0.0488 c 0.496,0.18 0.918,0.428 1.267,0.744 0.348,0.316 0.623,0.689 0.825,1.119 0.202,0.43 0.313,0.891 0.335,1.381 h -2.468 c -0.054,-0.501 -0.22,-0.888 -0.498,-1.16 -0.278,-0.273 -0.657,-0.409 -1.136,-0.409 -0.654,0 -1.142,0.245 -1.463,0.736 -0.321,0.49 -0.482,1.133 -0.482,1.928 0,0.817 0.161,1.471 0.482,1.961 0.321,0.491 0.809,0.736 1.463,0.736 0.425,0 0.768,-0.117 1.029,-0.351 0.262,-0.235 0.436,-0.554 0.524,-0.957 h 2.484 c -0.077,0.469 -0.224,0.902 -0.442,1.3 -0.218,0.397 -0.498,0.738 -0.841,1.021 -0.343,0.283 -0.75,0.504 -1.218,0.662 -0.468,0.158 -0.992,0.237 -1.569,0.237 -0.686,0 -1.307,-0.117 -1.863,-0.351 -0.556,-0.235 -1.03,-0.559 -1.422,-0.973 -0.392,-0.414 -0.695,-0.901 -0.907,-1.462 -0.212,-0.562 -0.319,-1.169 -0.319,-1.823 0,-0.654 0.109,-1.261 0.327,-1.822 0.218,-0.561 0.526,-1.049 0.924,-1.463 0.397,-0.414 0.877,-0.738 1.438,-0.972 0.561,-0.234 1.19,-0.352 1.887,-0.352 0.6,0 1.147,0.09 1.643,0.27 m 3.1134,7.0686 h 1.307 v -4.87 c 0,-0.447 0.066,-0.815 0.197,-1.104 0.13,-0.288 0.315,-0.523 0.555,-0.702 0.24,-0.18 0.526,-0.306 0.858,-0.376 0.333,-0.071 0.7,-0.106 1.104,-0.106 0.348,0 0.648,0.016 0.898,0.049 0.251,0.032 0.447,0.059 0.589,0.081 v 1.912 h -0.131 c -0.087,-0.011 -0.185,-0.019 -0.294,-0.024 -0.109,-0.006 -0.207,-0.008 -0.294,-0.008 -0.305,0 -0.542,0.057 -0.711,0.171 -0.169,0.115 -0.254,0.335 -0.254,0.662 v 4.315 h 1.7 v 1.634 h -1.7 v 2.779 h -2.517 v -2.779 h -1.307 z m 9.332,1.6343 h -2.468 v -8.695 h 2.566 v 4.037 c 0,0.85 0.21,1.49 0.629,1.921 0.42,0.43 0.978,0.639 1.676,0.629 0.174,0 0.353,-0.017 0.539,-0.049 h 0.065 v 2.239 c -0.098,0.043 -0.278,0.065 -0.539,0.065 -0.545,0 -1.013,-0.131 -1.406,-0.392 -0.392,-0.262 -0.73,-0.698 -1.013,-1.308 h -0.049 z m 12.3229,-8.6947 v 8.695 h -2.533 v -4.92 c 0,-0.545 -0.147,-0.991 -0.442,-1.34 -0.294,-0.349 -0.702,-0.523 -1.225,-0.523 -0.458,0 -0.804,0.131 -1.038,0.392 -0.235,0.262 -0.351,0.638 -0.351,1.128 v 5.263 h -2.566 v -5.753 c 0,-0.959 0.261,-1.73 0.784,-2.313 0.523,-0.583 1.28,-0.874 2.272,-0.874 0.599,0 1.106,0.12 1.52,0.359 0.414,0.24 0.779,0.616 1.095,1.128 h 0.049 v -1.242 z m 1.6997,0 h 2.566 v 4.952 c 0,0.556 0.136,1.008 0.409,1.357 0.272,0.348 0.637,0.523 1.095,0.523 0.424,0 0.743,-0.134 0.956,-0.401 0.212,-0.267 0.318,-0.64 0.318,-1.119 v -5.312 h 2.566 v 4.952 c 0,0.556 0.134,1.008 0.401,1.357 0.267,0.348 0.629,0.523 1.087,0.523 0.413,0 0.732,-0.134 0.956,-0.401 0.223,-0.267 0.335,-0.64 0.335,-1.119 v -5.312 h 2.549 v 5.737 c 0,0.969 -0.245,1.746 -0.735,2.329 -0.49,0.582 -1.221,0.874 -2.19,0.874 -0.556,0 -1.065,-0.128 -1.528,-0.384 -0.464,-0.256 -0.875,-0.678 -1.234,-1.267 h -0.033 c -0.447,1.101 -1.242,1.651 -2.386,1.651 -0.621,0 -1.142,-0.136 -1.561,-0.409 -0.419,-0.272 -0.771,-0.67 -1.054,-1.193 h -0.049 v 1.357 h -2.468 z m -92.2674,0 h 10.019 v 2.386 h -4.054 c -0.25,0 -0.531,-0.005 -0.841,-0.016 -0.311,-0.011 -0.608,-0.022 -0.891,-0.033 -0.327,-0.022 -0.654,-0.038 -0.981,-0.049 v 0.049 l 0.801,0.801 c 0.229,0.229 0.468,0.479 0.719,0.752 0.251,0.272 0.48,0.533 0.687,0.784 l 4.331,5.296 v 2.19 h -9.349 v -2.354 h 3.498 c 0.239,0 0.506,0.003 0.801,0.008 0.294,0.006 0.572,0.014 0.833,0.025 0.305,0.011 0.616,0.027 0.932,0.049 v -0.049 c -0.251,-0.24 -0.496,-0.485 -0.736,-0.736 -0.207,-0.218 -0.425,-0.449 -0.654,-0.694 -0.228,-0.245 -0.435,-0.477 -0.621,-0.695 l -4.494,-5.459 z m 11.2279,0 h 3.171 l 1.258,2.141 c 0.142,0.24 0.286,0.504 0.433,0.793 0.147,0.288 0.281,0.558 0.401,0.809 0.141,0.294 0.277,0.588 0.408,0.882 h 0.033 c 0.131,-0.294 0.261,-0.588 0.392,-0.882 0.12,-0.251 0.248,-0.521 0.384,-0.809 0.136,-0.289 0.275,-0.553 0.417,-0.793 l 1.226,-2.141 h 3.301 l -4.053,6.374 3.677,5.786 h -3.04 l -0.997,-1.651 c -0.141,-0.24 -0.286,-0.499 -0.433,-0.776 -0.147,-0.278 -0.28,-0.543 -0.4,-0.793 -0.142,-0.284 -0.278,-0.578 -0.409,-0.883 h -0.032 c -0.142,0.305 -0.278,0.599 -0.409,0.883 -0.12,0.25 -0.251,0.515 -0.392,0.793 -0.142,0.277 -0.284,0.536 -0.425,0.776 l -0.981,1.651 h -3.187 l 3.743,-5.802 z"
       id="path30"
       inkscape:connector-curvature="0"
       style="fill:#d3c5c5" />
    <path
       d="m 183.582,461.487 h 9.133 v -34.242 h -9.133 z m 22.826,-25.109 h 22.832 v -2.283 h -22.832 z m -9.127,15.976 v -6.844 h 31.959 v -2.283 h -31.959 v -15.982 h 41.092 v 25.109 z m 45.658,0 h 9.127 v -25.109 h -9.127 z m 0,9.133 h 9.127 v -6.849 h -9.127 z m 13.6939,-9.1329 v -25.109 h 9.133 v 18.265 h 36.525 v 6.844 z m -123.2758,0 v -25.109 h 45.658 v 6.85 h -36.525 v 11.415 h 36.525 v 6.844 z m -50.225,0 v -25.109 h 9.133 v 18.265 h 27.393 v -18.265 h 9.132 v 25.109 z m -13.6991,-1e-4 h 9.133 v -25.109 h -9.133 z m 0,9.133 h 9.133 v -6.849 h -9.133 z m -50.2192,-9.1329 v -15.976 h 36.526 v -2.283 h -36.526 v -6.85 h 45.658 v 15.982 h -36.531 v 2.283 h 36.531 v 6.844 z"
       id="path32"
       inkscape:connector-curvature="0"
       style="fill:#5b585b" />
    <path
       d="m 185.818,459.251 h 9.133 v -34.242 h -9.133 z m 22.826,-25.109 h 22.832 v -2.283 h -22.832 z m -9.127,15.976 v -6.844 h 31.959 v -2.283 h -31.959 v -15.982 h 41.092 v 25.109 z m 45.659,0 h 9.127 v -25.109 h -9.127 z m 0,9.133 h 9.127 v -6.85 h -9.127 z m 13.6931,-9.1331 v -25.109 h 9.133 v 18.265 h 36.525 v 6.844 z m -123.2758,0 v -25.109 h 45.658 v 6.85 h -36.525 v 11.415 h 36.525 v 6.844 z m -50.225,0 v -25.109 h 9.133 v 18.265 h 27.393 v -18.265 h 9.132 v 25.109 z m -13.6993,10e-5 h 9.133 v -25.109 h -9.133 z m 0,9.133 h 9.133 v -6.85 h -9.133 z m -50.2189,-9.1331 v -15.976 h 36.526 v -2.283 h -36.526 v -6.85 h 45.658 v 15.982 h -36.531 v 2.283 h 36.531 v 6.844 z"
       id="path34"
       inkscape:connector-curvature="0"
       style="fill:#181221" />
    <path
       d="m 184.7,460.369 h 9.133 V 426.127 H 184.7 Z m 22.826,-25.109 h 22.832 v -2.283 h -22.832 z m -9.127,15.976 v -6.844 h 31.959 v -2.283 h -31.959 v -15.982 h 41.092 v 25.109 z m 45.658,0 h 9.127 v -25.109 h -9.127 z m 0,9.133 h 9.127 v -6.85 h -9.127 z m 13.6939,-9.133 v -25.109 h 9.133 v 18.265 h 36.525 v 6.844 z m -123.2757,0 v -25.109 h 45.658 v 6.849 h -36.525 v 11.416 h 36.525 v 6.844 z m -50.225,0 v -25.109 h 9.133 v 18.265 h 27.393 v -18.265 h 9.132 v 25.109 z m -13.6992,0 h 9.133 v -25.109 h -9.133 z m 0,9.133 h 9.133 v -6.85 H 70.551 Z M 20.332,451.236 V 435.26 h 36.526 v -2.284 H 20.332 v -6.849 H 65.99 v 15.982 H 29.459 v 2.283 H 65.99 v 6.844 z"
       id="path36"
       inkscape:connector-curvature="0"
       style="fill:#3a3742" />
  </g>
  <g
     clip-path="url(#b)"
     transform="matrix(0.23847674,0,0,-0.23847674,317.47873,179.9034)"
     id="g72">
    <path
       d="m 123.2038,109.4812 c -18.445,0 -33.398,14.953 -33.398,33.398 0,18.445 14.953,33.398 33.398,33.398 18.445,0 33.398,-14.953 33.398,-33.398 0,-18.445 -14.953,-33.398 -33.398,-33.398 m 0,84.897 c -28.442,0 -51.499,-23.057 -51.499,-51.499 0,-28.442 23.057,-51.499 51.499,-51.499 28.442,0 51.499,23.057 51.499,51.499 0,28.442 -23.057,51.499 -51.499,51.499 M 301.2965,109.491 c -18.445,0 -33.398,14.953 -33.398,33.398 0,18.445 14.953,33.398 33.398,33.398 18.445,0 33.398,-14.953 33.398,-33.398 0,-18.445 -14.953,-33.398 -33.398,-33.398 m -10e-4,98.938 c -36.201,0 -65.548,-29.347 -65.548,-65.549 0,-36.201 29.347,-65.548 65.548,-65.548 36.201,0 65.549,29.347 65.549,65.548 0,36.202 -29.348,65.549 -65.549,65.549"
       id="path40"
       inkscape:connector-curvature="0"
       style="fill:#311610" />
    <path
       d="m 302.7566,122.9774 v 4.348 h -2.836 v -4.354 c -6.317,0.43 -11.829,3.793 -15.177,8.744 l 3.774,2.178 -1.419,2.457 -3.771,-2.178 c -1.28,2.634 -1.999,5.59 -1.999,8.715 0,3.149 0.731,6.126 2.029,8.775 l 3.728,-2.153 1.418,2.457 -3.721,2.148 c 3.347,4.914 8.829,8.251 15.112,8.688 v -4.245 h 2.836 v 4.243 c 6.27,-0.446 11.741,-3.781 15.083,-8.687 l -3.68,-2.125 1.418,-2.456 3.686,2.128 c 1.298,-2.648 2.029,-5.625 2.029,-8.773 0,-3.105 -0.709,-6.045 -1.974,-8.667 l -3.728,2.152 -1.418,-2.456 3.734,-2.156 c -3.331,-4.953 -8.823,-8.327 -15.124,-8.783 m -1.459,43.788 c -13.187,0 -23.877,-10.691 -23.877,-23.878 0,-13.187 10.69,-23.877 23.877,-23.877 13.187,0 23.877,10.69 23.877,23.877 0,13.187 -10.69,23.878 -23.877,23.878 M 124.5785,122.9711 v 4.354 h -2.836 v -4.348 c -6.302,0.456 -11.794,3.83 -15.124,8.784 l 3.734,2.155 -1.418,2.456 -3.728,-2.152 c -1.265,2.622 -1.974,5.562 -1.974,8.668 0,3.148 0.731,6.124 2.028,8.773 l 3.687,-2.129 1.418,2.456 -3.68,2.125 c 3.342,4.906 8.812,8.242 15.083,8.687 v -4.243 h 2.836 v 4.245 c 6.283,-0.436 11.765,-3.774 15.112,-8.688 l -3.722,-2.148 1.418,-2.457 3.729,2.153 c 1.298,-2.649 2.029,-5.626 2.029,-8.774 0,-3.125 -0.719,-6.082 -1.999,-8.716 l -3.772,2.178 -1.418,-2.457 3.773,-2.178 c -3.348,-4.95 -8.859,-8.313 -15.176,-8.744 m -1.377,43.794 c -13.187,0 -23.877,-10.691 -23.877,-23.878 0,-13.187 10.69,-23.877 23.877,-23.877 13.187,0 23.877,10.69 23.877,23.877 0,13.187 -10.69,23.878 -23.877,23.878"
       id="path42"
       inkscape:connector-curvature="0"
       style="fill:#e4e4e3" />
    <path
       d="m 419.0161,93.7835 c 3.754,-3.862 4.934,-5.149 4.934,-5.149 0,0 0.644,-0.429 0.537,-2.252 -0.108,-1.824 0,-59.964 0,-61.787 0,-1.824 -0.537,-1.824 -1.073,-2.467 -0.536,-0.644 -4.398,-5.149 -4.398,-5.149 z m -413.5334,0 c -3.754,-3.862 -4.934,-5.149 -4.934,-5.149 0,0 -0.644,-0.429 -0.537,-2.252 0.108,-1.824 0,-59.964 0,-61.787 0,-1.824 0.537,-1.824 1.073,-2.467 0.536,-0.644 4.398,-5.149 4.398,-5.149 z"
       id="path44"
       inkscape:connector-curvature="0"
       style="fill:#181221" />
    <path
       d="m 301.2973,120.2305 c -12.513,0 -22.657,10.144 -22.657,22.657 0,12.513 10.144,22.657 22.657,22.657 12.513,0 22.657,-10.144 22.657,-22.657 0,-12.513 -10.144,-22.657 -22.657,-22.657 m 11.713,-114.667 c -4.984,0 -9.025,4.041 -9.025,9.025 0,4.984 4.041,9.024 9.025,9.024 4.984,0 9.024,-4.04 9.024,-9.024 0,-4.984 -4.04,-9.025 -9.024,-9.025 m -33.986,10.946 c 0,-1.796 -1.47,-3.265 -3.266,-3.265 h -9.981 c -1.797,0 -3.266,1.469 -3.266,3.265 v 9.022 c 0,1.796 1.469,3.266 3.266,3.266 h 9.981 c 1.796,0 3.266,-1.47 3.266,-3.266 z m -18.689,108.05 c 0,-0.522 -0.49,-0.95 -1.089,-0.95 h -94.852 c -0.599,0 -1.089,0.428 -1.089,0.95 v 38.759 c 0,0.522 0.49,0.949 1.089,0.949 h 94.852 c 0.599,0 1.089,-0.427 1.089,-0.949 z m -98.348,-108.05 c 0,-1.796 -1.469,-3.265 -3.265,-3.265 h -9.982 c -1.796,0 -3.266,1.469 -3.266,3.265 v 9.022 c 0,1.796 1.47,3.266 3.266,3.266 h 9.982 c 1.796,0 3.265,-1.47 3.265,-3.266 z m -38.786,103.721 c -12.513,0 -22.657,10.144 -22.657,22.657 0,12.513 10.144,22.657 22.657,22.657 12.513,0 22.657,-10.144 22.657,-22.657 0,-12.513 -10.144,-22.657 -22.657,-22.657 M 111.4893,5.5635 c -4.985,0 -9.025,4.041 -9.025,9.025 0,4.984 4.04,9.024 9.025,9.024 4.984,0 9.024,-4.04 9.024,-9.024 0,-4.984 -4.04,-9.025 -9.024,-9.025 m 301.308,255.252 H 11.5293 c -4.191,0 -7.62,-3.429 -7.62,-7.62 V 7.6205 c 0,-4.191 3.429,-7.62 7.62,-7.62 h 401.268 c 4.191,0 7.62,3.429 7.62,7.62 v 245.575 c 0,4.191 -3.429,7.62 -7.62,7.62"
       id="path46"
       inkscape:connector-curvature="0"
       style="fill:#181221" />
    <path
       d="m 260.3351,124.5599 c 0,-0.522 -0.49,-0.95 -1.089,-0.95 h -94.852 c -0.598,0 -1.088,0.428 -1.088,0.95 v 38.758 c 0,0.523 0.49,0.95 1.088,0.95 h 94.852 c 0.599,0 1.089,-0.427 1.089,-0.95 z m 0.415,41.072 h -97.859 c -0.618,0 -1.123,-0.456 -1.123,-1.014 v -41.358 c 0,-0.557 0.505,-1.013 1.123,-1.013 h 97.859 c 0.618,0 1.123,0.456 1.123,1.013 v 41.358 c 0,0.558 -0.505,1.014 -1.123,1.014"
       id="path48"
       inkscape:connector-curvature="0"
       style="fill:#3e3845" />
    <path
       d="m 358.8794,0 c -2.609,11.873 -11.335,53.495 -12.268,57.599 -0.96,4.224 -2.688,7.68 -8.064,7.68 H 85.9514 c -5.376,0 -7.104,-3.456 -8.064,-7.68 C 76.9544,53.495 68.2284,11.874 65.6194,0 h 3.998 c 3.155,14.544 10.363,48.633 11.551,54.318 1.327,6.353 2.688,7.68 8.064,7.68 h 246.034 c 5.376,0 6.737,-1.327 8.064,-7.68 1.188,-5.684 8.396,-39.773 11.551,-54.317 z"
       id="path50"
       inkscape:connector-curvature="0"
       style="fill:#0f0c12" />
    <path
       d="m 301.2973,115.3197 h -178.096 c -15.225,0 -27.568,12.343 -27.568,27.568 0,15.226 12.343,27.568 27.568,27.568 h 178.096 c 15.225,0 27.568,-12.342 27.568,-27.568 0,-15.225 -12.343,-27.568 -27.568,-27.568 m 92.629,108.958 c -0.356,0.41 -13.203,13.816 -13.755,14.408 -0.386,0.414 -1.014,0.425 -1.014,0.425 H 45.3413 c 0,0 -0.628,-0.011 -1.014,-0.425 -0.552,-0.592 -13.399,-13.998 -13.755,-14.408 -0.552,-0.636 -0.44,-1.038 -0.44,-1.038 V 79.6027 c 0,-0.598 0.49,-1.088 1.089,-1.088 h 362.057 c 0.598,0 1.088,0.49 1.088,1.088 v 143.637 c 0,0 0.112,0.402 -0.44,1.038"
       id="path52"
       inkscape:connector-curvature="0"
       style="fill:#d4d1d1;fill-rule:evenodd" />
    <path
       d="M 375.329,185.39 H 214.49 v 53.721 h 160.839 z"
       id="path54"
       inkscape:connector-curvature="0"
       style="fill:#060809" />
    <path
       d="m 306.671,229.526 h 4.56 v -17.098 h -4.56 z m 11.398,-12.537 h 11.4 v -1.14 h -11.4 z m -4.558,7.977 v -3.417 h 15.958 v -1.14 h -15.958 v -7.981 h 20.518 v 12.538 z m 22.798,0 h 4.557 v -12.537 h -4.557 z m 0,4.56 h 4.557 v -3.42 h -4.557 z m 6.8376,-4.56 v -12.537 h 4.56 v 9.12 h 18.238 v 3.417 z m -61.5536,0 v -12.537 h 22.798 v 3.42 h -18.238 v 5.7 h 18.238 v 3.417 z m -25.0781,0 v -12.537 h 4.56 v 9.12 h 13.678 v -9.12 h 4.56 v 12.537 z m -6.8399,0 h 4.56 v -12.537 h -4.56 z m 0,4.56 h 4.56 v -3.42 h -4.56 z m -25.0755,-4.56 v -7.977 h 18.238 v -1.14 h -18.238 v -3.42 h 22.798 v 7.98 h -18.241 v 1.14 h 18.241 v 3.417 z m 30.9959,-27.5558 c 0.517,0.152 0.967,0.372 1.351,0.661 0.384,0.29 0.685,0.645 0.904,1.067 0.218,0.422 0.327,0.908 0.327,1.458 0,0.56 -0.102,1.025 -0.306,1.394 -0.204,0.37 -0.474,0.678 -0.811,0.925 -0.337,0.247 -0.725,0.443 -1.166,0.59 -0.441,0.147 -0.899,0.273 -1.373,0.377 -0.417,0.095 -0.785,0.18 -1.102,0.257 -0.318,0.075 -0.586,0.163 -0.804,0.263 -0.218,0.099 -0.384,0.215 -0.498,0.348 -0.114,0.133 -0.171,0.304 -0.171,0.512 0,0.332 0.152,0.598 0.456,0.797 0.303,0.199 0.706,0.299 1.209,0.299 0.531,0 0.953,-0.114 1.266,-0.342 0.313,-0.227 0.502,-0.55 0.569,-0.967 h 2.375 c -0.038,0.521 -0.166,0.979 -0.384,1.373 -0.218,0.393 -0.507,0.723 -0.868,0.988 -0.36,0.266 -0.787,0.465 -1.28,0.598 -0.493,0.132 -1.029,0.199 -1.607,0.199 -0.588,0 -1.134,-0.064 -1.636,-0.192 -0.503,-0.128 -0.939,-0.323 -1.309,-0.583 -0.37,-0.261 -0.659,-0.591 -0.868,-0.989 -0.208,-0.398 -0.313,-0.873 -0.313,-1.423 0,-0.55 0.098,-1.002 0.292,-1.358 0.194,-0.356 0.462,-0.65 0.804,-0.882 0.341,-0.233 0.739,-0.42 1.195,-0.562 0.455,-0.142 0.939,-0.27 1.451,-0.384 0.379,-0.085 0.72,-0.168 1.024,-0.249 0.303,-0.081 0.559,-0.173 0.768,-0.277 0.209,-0.105 0.367,-0.233 0.477,-0.384 0.108,-0.152 0.163,-0.342 0.163,-0.569 0,-0.219 -0.05,-0.406 -0.149,-0.562 -0.1,-0.157 -0.235,-0.285 -0.406,-0.384 -0.17,-0.1 -0.365,-0.174 -0.583,-0.221 -0.218,-0.047 -0.446,-0.071 -0.683,-0.071 -0.682,0 -1.211,0.133 -1.586,0.398 -0.374,0.266 -0.595,0.688 -0.661,1.266 h -2.447 c 0.019,-0.569 0.14,-1.079 0.363,-1.529 0.222,-0.45 0.538,-0.827 0.946,-1.131 0.407,-0.303 0.896,-0.536 1.465,-0.697 0.569,-0.161 1.209,-0.242 1.92,-0.242 0.607,0 1.169,0.076 1.686,0.228 m 6.4225,2.1408 c -0.294,0.413 -0.441,0.946 -0.441,1.6 0,0.323 0.036,0.621 0.107,0.897 0.071,0.274 0.178,0.516 0.32,0.725 0.142,0.208 0.32,0.372 0.533,0.491 0.214,0.118 0.463,0.178 0.747,0.178 0.55,0 0.958,-0.212 1.223,-0.633 0.266,-0.423 0.399,-0.975 0.399,-1.658 0,-0.682 -0.138,-1.223 -0.413,-1.621 -0.275,-0.399 -0.668,-0.598 -1.18,-0.598 -0.57,0 -1.001,0.207 -1.295,0.619 m -2.603,-4.63 h 2.233 v 1.806 c 0,0.408 -0.007,0.749 -0.021,1.025 -0.014,0.274 -0.031,0.483 -0.05,0.625 h 0.028 c 0.219,-0.369 0.52,-0.659 0.904,-0.867 0.384,-0.209 0.827,-0.313 1.33,-0.313 0.502,0 0.96,0.095 1.373,0.284 0.412,0.19 0.763,0.458 1.052,0.804 0.289,0.346 0.512,0.768 0.669,1.266 0.156,0.498 0.235,1.055 0.235,1.671 0,0.579 -0.076,1.112 -0.228,1.601 -0.152,0.488 -0.368,0.91 -0.647,1.266 -0.28,0.355 -0.622,0.633 -1.025,0.832 -0.403,0.199 -0.856,0.299 -1.358,0.299 -1.024,0 -1.792,-0.432 -2.305,-1.295 h -0.042 v 1.081 h -2.148 z m 13.4851,8.2716 c 0.275,-0.299 0.431,-0.714 0.469,-1.245 h -3.229 c 0.076,0.522 0.247,0.934 0.512,1.238 0.266,0.303 0.655,0.455 1.167,0.455 0.446,0 0.806,-0.149 1.081,-0.448 m 0.356,-5.804 c 0.398,0.119 0.746,0.285 1.045,0.498 0.299,0.213 0.55,0.465 0.754,0.754 0.204,0.289 0.353,0.6 0.448,0.932 h -2.162 c -0.123,-0.237 -0.297,-0.42 -0.519,-0.548 -0.223,-0.128 -0.51,-0.192 -0.861,-0.192 -0.54,0 -0.962,0.161 -1.266,0.484 -0.304,0.322 -0.493,0.768 -0.569,1.337 h 5.519 c 0.01,0.749 -0.085,1.432 -0.284,2.048 -0.199,0.617 -0.512,1.133 -0.939,1.551 -0.332,0.303 -0.714,0.54 -1.145,0.711 -0.432,0.171 -0.918,0.256 -1.458,0.256 -0.579,0 -1.105,-0.102 -1.579,-0.306 -0.474,-0.204 -0.882,-0.486 -1.223,-0.846 -0.342,-0.361 -0.607,-0.785 -0.797,-1.273 -0.19,-0.489 -0.285,-1.017 -0.285,-1.586 0,-0.569 0.093,-1.096 0.278,-1.579 0.185,-0.484 0.45,-0.906 0.796,-1.266 0.347,-0.361 0.766,-0.643 1.259,-0.847 0.493,-0.204 1.048,-0.306 1.665,-0.306 0.483,0 0.924,0.06 1.323,0.178 m 8.57,0.0429 c 0.431,0.157 0.799,0.372 1.103,0.647 0.303,0.275 0.542,0.6 0.718,0.975 0.175,0.374 0.272,0.775 0.291,1.202 h -2.147 c -0.048,-0.437 -0.193,-0.773 -0.434,-1.01 -0.242,-0.237 -0.572,-0.356 -0.989,-0.356 -0.569,0 -0.994,0.213 -1.273,0.64 -0.28,0.427 -0.42,0.986 -0.42,1.679 0,0.711 0.14,1.28 0.42,1.707 0.279,0.427 0.704,0.64 1.273,0.64 0.37,0 0.669,-0.102 0.896,-0.306 0.228,-0.204 0.379,-0.481 0.455,-0.832 h 2.163 c -0.067,0.407 -0.195,0.784 -0.384,1.131 -0.19,0.346 -0.434,0.642 -0.733,0.889 -0.299,0.246 -0.652,0.438 -1.06,0.576 -0.408,0.137 -0.863,0.206 -1.365,0.206 -0.598,0 -1.138,-0.102 -1.622,-0.306 -0.484,-0.204 -0.896,-0.486 -1.238,-0.846 -0.341,-0.361 -0.604,-0.785 -0.789,-1.273 -0.185,-0.489 -0.278,-1.017 -0.278,-1.586 0,-0.569 0.095,-1.098 0.285,-1.586 0.189,-0.489 0.457,-0.913 0.804,-1.273 0.346,-0.361 0.763,-0.643 1.251,-0.847 0.489,-0.204 1.036,-0.306 1.643,-0.306 0.522,0 0.998,0.078 1.43,0.235 m 2.7099,6.1524 h 1.138 v -4.239 c 0,-0.389 0.057,-0.709 0.171,-0.96 0.114,-0.252 0.275,-0.455 0.483,-0.612 0.209,-0.156 0.458,-0.265 0.747,-0.327 0.289,-0.062 0.609,-0.093 0.96,-0.093 0.304,0 0.564,0.015 0.783,0.043 0.218,0.029 0.389,0.052 0.512,0.071 v 1.665 h -0.114 c -0.076,-0.01 -0.161,-0.017 -0.256,-0.022 -0.095,-0.005 -0.18,-0.007 -0.256,-0.007 -0.266,0 -0.472,0.05 -0.619,0.15 -0.147,0.099 -0.22,0.291 -0.22,0.576 v 3.755 h 1.479 v 1.423 h -1.479 v 2.418 h -2.191 v -2.418 h -1.138 z m 8.1225,1.4225 h -2.148 v -7.568 h 2.233 v 3.514 c 0,0.74 0.183,1.297 0.548,1.671 0.365,0.375 0.851,0.557 1.458,0.548 0.152,0 0.308,-0.014 0.469,-0.043 h 0.057 v 1.949 c -0.085,0.038 -0.241,0.057 -0.469,0.057 -0.474,0 -0.882,-0.114 -1.223,-0.341 -0.342,-0.228 -0.636,-0.607 -0.882,-1.138 h -0.043 z m 10.7255,-7.5678 v 7.568 h -2.205 v -4.282 c 0,-0.474 -0.128,-0.863 -0.384,-1.166 -0.256,-0.304 -0.612,-0.456 -1.067,-0.456 -0.398,0 -0.699,0.114 -0.903,0.342 -0.204,0.227 -0.306,0.555 -0.306,0.981 v 4.581 h -2.233 v -5.007 c 0,-0.835 0.227,-1.506 0.682,-2.013 0.456,-0.508 1.115,-0.761 1.978,-0.761 0.521,0 0.962,0.104 1.323,0.313 0.36,0.208 0.678,0.535 0.953,0.981 h 0.042 v -1.081 z m 1.4793,0 h 2.233 v 4.31 c 0,0.484 0.119,0.877 0.356,1.181 0.237,0.303 0.555,0.455 0.953,0.455 0.37,0 0.647,-0.116 0.832,-0.348 0.185,-0.233 0.278,-0.558 0.278,-0.975 v -4.623 h 2.233 v 4.31 c 0,0.484 0.116,0.877 0.348,1.181 0.233,0.303 0.548,0.455 0.946,0.455 0.361,0 0.638,-0.116 0.833,-0.348 0.194,-0.233 0.291,-0.558 0.291,-0.975 v -4.623 h 2.219 v 4.993 c 0,0.844 -0.213,1.52 -0.64,2.027 -0.427,0.507 -1.062,0.761 -1.906,0.761 -0.484,0 -0.927,-0.111 -1.33,-0.334 -0.403,-0.223 -0.761,-0.59 -1.074,-1.103 h -0.028 c -0.389,0.958 -1.082,1.437 -2.077,1.437 -0.541,0 -0.994,-0.118 -1.359,-0.355 -0.365,-0.238 -0.671,-0.584 -0.917,-1.039 h -0.043 v 1.181 h -2.148 z m -80.3074,0 h 8.72 v 2.077 h -3.528 c -0.218,0 -0.462,-0.005 -0.732,-0.014 -0.271,-0.01 -0.529,-0.019 -0.776,-0.029 -0.284,-0.019 -0.569,-0.033 -0.853,-0.042 v 0.042 l 0.697,0.697 c 0.199,0.199 0.407,0.417 0.626,0.655 0.218,0.237 0.417,0.464 0.597,0.682 l 3.77,4.609 v 1.906 h -8.137 v -2.048 h 3.044 c 0.209,0 0.441,0.002 0.697,0.007 0.256,0.005 0.498,0.012 0.726,0.022 0.265,0.009 0.535,0.023 0.811,0.042 v -0.042 c -0.219,-0.209 -0.432,-0.423 -0.641,-0.641 -0.18,-0.189 -0.369,-0.391 -0.569,-0.604 -0.199,-0.214 -0.379,-0.415 -0.54,-0.605 l -3.912,-4.751 z m 9.7724,0 h 2.76 l 1.095,1.864 c 0.123,0.208 0.249,0.438 0.377,0.689 0.128,0.252 0.244,0.486 0.348,0.705 0.124,0.256 0.242,0.512 0.356,0.768 h 0.029 c 0.113,-0.256 0.227,-0.512 0.341,-0.768 0.104,-0.219 0.216,-0.453 0.334,-0.705 0.119,-0.251 0.24,-0.481 0.363,-0.689 l 1.067,-1.864 h 2.873 l -3.527,5.548 3.2,5.035 h -2.646 l -0.867,-1.436 c -0.124,-0.209 -0.249,-0.434 -0.377,-0.676 -0.128,-0.242 -0.245,-0.472 -0.349,-0.69 -0.123,-0.247 -0.242,-0.503 -0.356,-0.768 h -0.028 c -0.123,0.265 -0.242,0.521 -0.356,0.768 -0.104,0.218 -0.218,0.448 -0.341,0.69 -0.123,0.242 -0.247,0.467 -0.37,0.676 l -0.853,1.436 h -2.774 l 3.257,-5.049 z"
       id="path56"
       inkscape:connector-curvature="0"
       style="fill:#d4d1d1" />
    <path
       d="m 483.7807,5.1469 c -4.619,0 -8.364,3.745 -8.364,8.364 v 48.012 h 268.727 v -48.012 c 0,-4.619 -3.744,-8.364 -8.364,-8.364 z"
       id="path58"
       inkscape:connector-curvature="0"
       style="fill:#f05953;fill-rule:evenodd" />
    <path
       d="m 475.8308,51.7934 c -4.619,0 -8.364,3.745 -8.364,8.364 v 37.322 h 284.627 v -37.322 c 0,-4.619 -3.744,-8.364 -8.364,-8.364 z"
       id="path60"
       inkscape:connector-curvature="0"
       style="fill:#bb4243;fill-rule:evenodd" />
    <path
       d="m 475.8308,54.0238 c -4.619,0 -8.364,3.745 -8.364,8.364 v 37.322 h 284.627 v -37.322 c 0,-4.619 -3.744,-8.364 -8.364,-8.364 z"
       id="path62"
       inkscape:connector-curvature="0"
       style="fill:#f05953;fill-rule:evenodd" />
    <path
       d="m 466.0471,87.1697 c -6.663,0 -11.849,1.254 -11.849,5.774 v 165.513 c 0,1.539 1.248,2.788 2.788,2.788 h 305.589 c 1.539,0 2.788,-1.249 2.788,-2.788 V 92.9437 c 0,-4.52 -5.187,-5.774 -11.849,-5.774 z"
       id="path64"
       inkscape:connector-curvature="0"
       style="fill:#3a3742;fill-rule:evenodd" />
    <path
       d="m 478.4687,149.2099 c -0.616,0 -1.115,0.499 -1.115,1.115 v 85.189 c 0,0.616 0.499,1.116 1.115,1.116 h 262.623 c 0.616,0 1.116,-0.5 1.116,-1.116 v -85.189 c 0,-0.616 -0.5,-1.115 -1.116,-1.115 z"
       id="path66"
       inkscape:connector-curvature="0"
       style="fill:#4a4a51;fill-rule:evenodd" />
    <path
       d="m 459.1467,131.2317 c 5.564,-11.334 15.627,-21.021 30.082,-21.021 h 241.103 c 14.455,0 24.519,9.687 30.082,21.021 z"
       id="path68"
       inkscape:connector-curvature="0"
       style="fill:#71707c;fill-rule:evenodd" />
    <path
       d="m 535.3932,213.2238 c 0.765,0.224 1.431,0.55 1.999,0.979 0.569,0.428 1.014,0.954 1.337,1.578 0.323,0.624 0.484,1.344 0.484,2.157 0,0.828 -0.151,1.516 -0.453,2.063 -0.301,0.547 -0.701,1.003 -1.199,1.368 -0.498,0.365 -1.074,0.656 -1.726,0.874 -0.653,0.217 -1.33,0.403 -2.031,0.557 -0.618,0.14 -1.161,0.267 -1.631,0.379 -0.47,0.112 -0.867,0.242 -1.189,0.389 -0.323,0.148 -0.569,0.319 -0.737,0.516 -0.168,0.197 -0.252,0.449 -0.252,0.758 0,0.491 0.224,0.884 0.673,1.179 0.449,0.294 1.045,0.441 1.789,0.441 0.785,0 1.41,-0.168 1.873,-0.505 0.463,-0.336 0.744,-0.814 0.842,-1.431 h 3.515 c -0.057,0.772 -0.246,1.449 -0.568,2.031 -0.323,0.582 -0.751,1.07 -1.284,1.463 -0.534,0.393 -1.165,0.687 -1.895,0.884 -0.729,0.196 -1.522,0.295 -2.378,0.295 -0.87,0 -1.677,-0.095 -2.42,-0.285 -0.744,-0.189 -1.389,-0.477 -1.937,-0.863 -0.547,-0.386 -0.975,-0.873 -1.283,-1.462 -0.309,-0.59 -0.464,-1.291 -0.464,-2.105 0,-0.814 0.144,-1.484 0.432,-2.01 0.287,-0.526 0.684,-0.961 1.189,-1.305 0.505,-0.344 1.095,-0.621 1.768,-0.831 0.674,-0.211 1.389,-0.4 2.147,-0.568 0.561,-0.127 1.066,-0.25 1.515,-0.369 0.449,-0.119 0.828,-0.256 1.137,-0.41 0.308,-0.155 0.543,-0.344 0.705,-0.568 0.161,-0.225 0.242,-0.505 0.242,-0.842 0,-0.323 -0.074,-0.6 -0.221,-0.832 -0.147,-0.231 -0.347,-0.421 -0.6,-0.568 -0.252,-0.147 -0.54,-0.256 -0.863,-0.326 -0.323,-0.07 -0.659,-0.105 -1.01,-0.105 -1.01,0 -1.793,0.196 -2.347,0.589 -0.554,0.393 -0.88,1.017 -0.979,1.873 h -3.62 c 0.028,-0.842 0.207,-1.596 0.537,-2.262 0.33,-0.667 0.796,-1.225 1.4,-1.674 0.603,-0.449 1.326,-0.793 2.167,-1.031 0.842,-0.238 1.789,-0.358 2.842,-0.358 0.898,0 1.729,0.113 2.494,0.337 m 9.5024,3.1676 c -0.435,0.61 -0.653,1.4 -0.653,2.368 0,0.477 0.053,0.919 0.158,1.326 0.106,0.406 0.263,0.764 0.474,1.073 0.21,0.309 0.473,0.551 0.789,0.726 0.316,0.175 0.684,0.263 1.105,0.263 0.814,0 1.417,-0.312 1.81,-0.936 0.393,-0.625 0.589,-1.442 0.589,-2.452 0,-1.011 -0.203,-1.81 -0.61,-2.4 -0.407,-0.589 -0.989,-0.884 -1.747,-0.884 -0.842,0 -1.48,0.306 -1.915,0.916 m -3.852,-6.851 h 3.305 v 2.673 c 0,0.604 -0.011,1.108 -0.032,1.516 -0.021,0.406 -0.046,0.715 -0.074,0.926 h 0.043 c 0.322,-0.548 0.768,-0.976 1.336,-1.284 0.568,-0.309 1.224,-0.463 1.968,-0.463 0.744,0 1.421,0.14 2.031,0.421 0.61,0.28 1.129,0.676 1.557,1.189 0.428,0.512 0.758,1.136 0.99,1.873 0.231,0.737 0.347,1.561 0.347,2.473 0,0.856 -0.113,1.645 -0.337,2.368 -0.224,0.722 -0.544,1.347 -0.957,1.873 -0.414,0.526 -0.92,0.937 -1.516,1.231 -0.596,0.295 -1.266,0.442 -2.01,0.442 -1.515,0 -2.652,-0.639 -3.409,-1.915 h -0.064 v 1.599 h -3.178 z m 19.9527,12.239 c 0.407,-0.442 0.638,-1.056 0.695,-1.842 h -4.778 c 0.112,0.772 0.365,1.382 0.758,1.831 0.392,0.449 0.968,0.674 1.725,0.674 0.66,0 1.193,-0.221 1.6,-0.663 m 0.526,-8.587 c 0.589,0.175 1.105,0.421 1.547,0.737 0.442,0.315 0.814,0.687 1.116,1.115 0.301,0.428 0.522,0.887 0.663,1.378 h -3.199 c -0.183,-0.35 -0.439,-0.62 -0.769,-0.81 -0.329,-0.189 -0.754,-0.284 -1.273,-0.284 -0.8,0 -1.424,0.239 -1.873,0.716 -0.449,0.477 -0.73,1.136 -0.842,1.978 h 8.166 c 0.014,1.108 -0.126,2.119 -0.421,3.031 -0.295,0.912 -0.758,1.676 -1.389,2.294 -0.491,0.449 -1.056,0.8 -1.694,1.052 -0.639,0.253 -1.358,0.379 -2.158,0.379 -0.856,0 -1.634,-0.151 -2.336,-0.452 -0.702,-0.302 -1.305,-0.72 -1.81,-1.253 -0.505,-0.533 -0.898,-1.161 -1.178,-1.883 -0.281,-0.723 -0.421,-1.505 -0.421,-2.347 0,-0.842 0.136,-1.621 0.41,-2.336 0.274,-0.716 0.666,-1.34 1.179,-1.873 0.512,-0.534 1.133,-0.951 1.862,-1.253 0.73,-0.301 1.551,-0.452 2.463,-0.452 0.715,0 1.368,0.087 1.957,0.263 m 12.6808,0.063 c 0.638,0.231 1.182,0.55 1.631,0.958 0.449,0.407 0.803,0.887 1.063,1.441 0.26,0.554 0.403,1.147 0.432,1.779 h -3.179 c -0.07,-0.646 -0.284,-1.144 -0.641,-1.494 -0.358,-0.351 -0.846,-0.527 -1.463,-0.527 -0.842,0 -1.47,0.316 -1.884,0.947 -0.414,0.632 -0.621,1.46 -0.621,2.484 0,1.052 0.207,1.894 0.621,2.526 0.414,0.631 1.042,0.947 1.884,0.947 0.547,0 0.989,-0.151 1.326,-0.453 0.336,-0.302 0.561,-0.712 0.673,-1.231 h 3.199 c -0.098,0.603 -0.287,1.161 -0.568,1.673 -0.281,0.512 -0.642,0.951 -1.084,1.316 -0.442,0.364 -0.965,0.648 -1.568,0.852 -0.603,0.203 -1.277,0.305 -2.02,0.305 -0.884,0 -1.684,-0.151 -2.4,-0.452 -0.715,-0.302 -1.326,-0.719 -1.831,-1.253 -0.505,-0.533 -0.894,-1.161 -1.168,-1.883 -0.274,-0.723 -0.41,-1.505 -0.41,-2.347 0,-0.842 0.14,-1.624 0.421,-2.347 0.28,-0.723 0.676,-1.35 1.189,-1.883 0.512,-0.534 1.129,-0.951 1.852,-1.253 0.722,-0.301 1.533,-0.452 2.431,-0.452 0.771,0 1.476,0.115 2.115,0.347 m 4.0094,9.1028 h 1.684 v -6.272 c 0,-0.576 0.084,-1.049 0.252,-1.421 0.169,-0.372 0.407,-0.673 0.716,-0.905 0.308,-0.231 0.677,-0.393 1.105,-0.484 0.428,-0.091 0.901,-0.137 1.42,-0.137 0.449,0 0.835,0.021 1.158,0.064 0.323,0.042 0.575,0.076 0.758,0.105 v 2.462 h -0.169 c -0.112,-0.014 -0.238,-0.024 -0.378,-0.031 -0.141,-0.008 -0.267,-0.011 -0.379,-0.011 -0.393,0 -0.698,0.074 -0.916,0.221 -0.217,0.147 -0.326,0.432 -0.326,0.853 v 5.556 h 2.189 v 2.105 h -2.189 v 3.578 h -3.241 v -3.578 h -1.684 z m 12.0176,2.1046 h -3.178 v -11.197 h 3.304 v 5.199 c 0,1.094 0.27,1.918 0.811,2.473 0.54,0.554 1.259,0.824 2.157,0.81 0.224,0 0.456,-0.021 0.694,-0.063 h 0.085 v 2.883 c -0.127,0.056 -0.358,0.084 -0.695,0.084 -0.702,0 -1.305,-0.168 -1.81,-0.505 -0.505,-0.336 -0.94,-0.898 -1.305,-1.683 h -0.063 z m 15.8691,-11.1969 v 11.197 h -3.262 v -6.335 c 0,-0.702 -0.19,-1.277 -0.569,-1.726 -0.378,-0.449 -0.904,-0.674 -1.578,-0.674 -0.589,0 -1.035,0.169 -1.336,0.506 -0.302,0.336 -0.453,0.82 -0.453,1.452 v 6.777 h -3.304 v -7.409 c 0,-1.234 0.336,-2.227 1.01,-2.978 0.673,-0.75 1.648,-1.126 2.925,-1.126 0.772,0 1.424,0.155 1.958,0.463 0.533,0.309 1.003,0.793 1.41,1.453 h 0.063 v -1.6 z m 2.1889,0 h 3.304 v 6.377 c 0,0.716 0.176,1.298 0.527,1.747 0.35,0.449 0.82,0.674 1.41,0.674 0.547,0 0.957,-0.172 1.231,-0.516 0.274,-0.344 0.41,-0.824 0.41,-1.442 v -6.84 h 3.305 v 6.377 c 0,0.716 0.171,1.298 0.515,1.747 0.344,0.449 0.811,0.674 1.4,0.674 0.533,0 0.944,-0.172 1.231,-0.516 0.288,-0.344 0.432,-0.824 0.432,-1.442 v -6.84 h 3.283 v 7.387 c 0,1.249 -0.316,2.249 -0.947,3 -0.631,0.75 -1.572,1.126 -2.82,1.126 -0.716,0 -1.372,-0.165 -1.968,-0.495 -0.597,-0.33 -1.126,-0.873 -1.589,-1.631 h -0.042 c -0.576,1.417 -1.6,2.126 -3.073,2.126 -0.8,0 -1.47,-0.176 -2.01,-0.526 -0.541,-0.351 -0.993,-0.863 -1.358,-1.537 h -0.063 v 1.747 h -3.178 z m -114.6381,0 h 12.902 v 3.073 h -5.22 c -0.323,0 -0.684,-0.007 -1.084,-0.021 -0.4,-0.014 -0.782,-0.029 -1.147,-0.042 -0.421,-0.029 -0.842,-0.05 -1.263,-0.063 v 0.063 l 1.032,1.031 c 0.294,0.295 0.603,0.617 0.926,0.968 0.322,0.351 0.617,0.688 0.884,1.011 l 5.577,6.819 v 2.82 h -12.039 v -3.031 h 4.504 c 0.309,0 0.653,0.004 1.032,0.011 0.378,0.007 0.736,0.017 1.073,0.031 0.393,0.014 0.793,0.035 1.2,0.063 v -0.063 c -0.323,-0.309 -0.639,-0.624 -0.947,-0.947 -0.267,-0.281 -0.548,-0.579 -0.842,-0.894 -0.295,-0.316 -0.562,-0.614 -0.8,-0.895 l -5.788,-7.03 z m 14.459,0 h 4.083 l 1.621,2.757 c 0.182,0.309 0.368,0.649 0.558,1.021 0.189,0.372 0.361,0.719 0.515,1.042 0.182,0.379 0.358,0.757 0.526,1.136 h 0.042 c 0.169,-0.379 0.337,-0.757 0.506,-1.136 0.154,-0.323 0.319,-0.67 0.494,-1.042 0.175,-0.372 0.354,-0.712 0.537,-1.021 l 1.578,-2.757 h 4.252 l -5.22,8.208 4.736,7.451 h -3.915 l -1.284,-2.126 c -0.182,-0.308 -0.368,-0.642 -0.558,-1 -0.189,-0.357 -0.361,-0.698 -0.515,-1.02 -0.183,-0.365 -0.358,-0.744 -0.526,-1.137 h -0.043 c -0.182,0.393 -0.357,0.772 -0.526,1.137 -0.154,0.322 -0.323,0.663 -0.505,1.02 -0.182,0.358 -0.365,0.692 -0.547,1 l -1.263,2.126 h -4.104 l 4.82,-7.472 z"
       id="path70"
       inkscape:connector-curvature="0"
       style="fill:#f05953" />
  </g>
</svg>
