<?xml version="1.0" encoding="UTF-8" standalone="no"?>
<svg
   xmlns:dc="http://purl.org/dc/elements/1.1/"
   xmlns:cc="http://creativecommons.org/ns#"
   xmlns:rdf="http://www.w3.org/1999/02/22-rdf-syntax-ns#"
   xmlns:svg="http://www.w3.org/2000/svg"
   xmlns="http://www.w3.org/2000/svg"
   xmlns:sodipodi="http://sodipodi.sourceforge.net/DTD/sodipodi-0.dtd"
   xmlns:inkscape="http://www.inkscape.org/namespaces/inkscape"
   width="403"
   height="62.064209"
   version="1.1"
   id="svg12"
   sodipodi:docname="logo.svg"
   inkscape:version="0.92.4 5da689c313, 2019-01-14">
  <metadata
     id="metadata18">
    <rdf:RDF>
      <cc:Work
         rdf:about="">
        <dc:format>image/svg+xml</dc:format>
        <dc:type
           rdf:resource="http://purl.org/dc/dcmitype/StillImage" />
      </cc:Work>
    </rdf:RDF>
  </metadata>
  <defs
     id="defs16" />
  <sodipodi:namedview
     pagecolor="#ffffff"
     bordercolor="#666666"
     borderopacity="1"
     objecttolerance="10"
     gridtolerance="10"
     guidetolerance="10"
     inkscape:pageopacity="0"
     inkscape:pageshadow="2"
     inkscape:window-width="640"
     inkscape:window-height="480"
     id="namedview14"
     showgrid="false"
     inkscape:zoom="0.6775"
     inkscape:cx="200"
     inkscape:cy="31.032105"
     inkscape:window-x="0"
     inkscape:window-y="0"
     inkscape:window-maximized="0"
     inkscape:current-layer="svg12" />
  <path
     d="M 0.39934454,36.930903 V 31.47343 H 43.131327 V 25.245489 H 0.39934454 L 0.1305278,8.439152 H 48.679817 v 5.442657 H 5.9471292 l 0.2688167,5.922434 H 48.947223 V 36.932314 H 0.39934454 v -0.0014 z m 52.06366246,0 V 8.546396 h 5.816601 v 28.384507 z m 8.938685,0 V 8.546396 h 48.549288 v 28.384507 h -5.8166 V 13.988348 H 67.217588 V 36.93302 l -5.815896,-0.0021 z m 51.654438,0 V 8.546396 h 48.58457 v 5.442657 h -42.73128 v 17.485082 h 42.73128 v 5.460296 h -48.58457 v -0.0035 z m 52.45525,0 V 0 h 5.81801 v 36.932314 h -5.81801 v -0.0014 z m 60.96777,0 V 8.546396 h 5.85259 v 28.384507 z m 9.36767,0 V 8.546396 h 48.54717 v 5.442657 h -42.73057 v 22.945378 h -5.8166 v -0.0035 z M 174.43313,8.546396 v 5.442657 h 42.73128 v 6.225824 H 174.43313 V 36.932314 H 223.0184 V 8.546396 Z m 42.73128,22.927739 H 180.2843 v -6.22794 h 36.88011 z M 52.463007,5.460296 V 0 h 5.816601 v 5.460296 z m 174.016143,0 V 0 h 5.85259 V 5.460296 Z M 0,56.59968 6.8354238,48.425111 H 0.53622235 V 46.071377 H 10.565697 V 48.284 l -6.8354239,8.174569 h 7.0139299 v 2.355145 H 0 Z m 15.511643,-4.461229 -4.105629,-6.068485 h 3.248378 l 2.499079,4.069646 2.587978,-4.069646 h 3.069873 l -4.086579,6.085418 4.44359,6.657624 h -3.337278 l -2.784829,-4.407606 -2.837745,4.407606 h -3.160184 z m 15.654164,2.446867 c 0,1.694745 1.320095,2.355145 2.819401,2.355145 0.982839,0 2.482851,-0.285044 2.482851,-1.588911 0,-1.373717 -1.90994,-1.605139 -3.783896,-2.105378 -1.891595,-0.500239 -3.801534,-1.231195 -3.801534,-3.62444 0,-2.605617 2.463095,-3.854451 4.765323,-3.854451 2.65924,0 5.104696,1.159228 5.104696,4.104923 h -2.712862 c -0.0889,-1.535289 -1.178278,-1.926167 -2.516011,-1.926167 -0.893234,0 -1.927579,0.37465 -1.927579,1.445684 0,0.982839 0.607484,1.105605 3.80224,1.926872 0.927806,0.232128 3.78319,0.820562 3.78319,3.711929 0,2.337506 -1.837973,4.087284 -5.30084,4.087284 -2.820106,0 -5.461707,-1.392767 -5.425724,-4.53249 z m 9.405764,-4.998156 h 2.410178 v 1.178278 h 0.03669 c 0.605367,-0.981428 1.605139,-1.42734 2.748139,-1.42734 2.892073,0 4.193824,2.337507 4.193824,4.960763 0,2.4638 -1.356078,4.765323 -4.051301,4.765323 -1.107017,0 -2.159706,-0.4826 -2.766484,-1.392061 h -0.03598 v 4.392084 H 40.571576 V 49.587162 Z m 6.854474,4.639734 c 0,-1.463323 -0.589139,-2.980973 -2.214034,-2.980973 -1.660173,0 -2.194279,1.482373 -2.194279,2.980973 0,1.499306 0.570795,2.926645 2.213329,2.926645 1.658761,0 2.194984,-1.426633 2.194984,-2.926645 z m 6.141157,0.588434 c 0.07126,1.60655 0.856544,2.338211 2.266245,2.338211 1.016705,0 1.837972,-0.624417 1.998839,-1.195211 h 2.230262 c -0.714023,2.176639 -2.230262,3.103739 -4.318707,3.103739 -2.909712,0 -4.711701,-1.998133 -4.711701,-4.854929 0,-2.767189 1.910645,-4.872567 4.711701,-4.872567 3.140428,0 4.658784,2.643011 4.480279,5.480051 z m 4.121856,-1.60514 c -0.231422,-1.285522 -0.785283,-1.96215 -2.016478,-1.96215 -1.606551,0 -2.070806,1.248128 -2.106084,1.96215 z m 10.317341,-0.375355 c -0.161572,-1.035051 -0.821266,-1.587501 -1.874661,-1.587501 -1.624189,0 -2.160412,1.641123 -2.160412,2.997201 0,1.321506 0.517173,2.909006 2.106084,2.909006 1.177573,0 1.855612,-0.7493 2.016478,-1.871839 h 2.444045 c -0.321028,2.444045 -2.016478,3.781779 -4.44359,3.781779 -2.784122,0 -4.65949,-1.962151 -4.65949,-4.72934 0,-2.873023 1.71309,-4.998157 4.711702,-4.998157 2.178756,0 4.176889,1.142294 4.337051,3.500262 l -2.477207,-0.0014 z m 7.176208,-3.247673 h 1.855611 v 1.69545 h -1.855611 v 4.569179 c 0,0.85725 0.213783,1.072445 1.070328,1.072445 0.268111,0 0.517878,-0.01764 0.785283,-0.07338 v 1.980495 c -0.427567,0.07338 -0.981428,0.09102 -1.480961,0.09102 -1.552928,0 -2.909007,-0.358422 -2.909007,-2.195689 V 51.284025 H 71.112256 V 49.587869 H 72.64825 V 46.82068 h 2.534357 v 2.766484 z m 3.069873,0 h 2.409472 v 1.7145 h 0.03598 c 0.46355,-1.161345 1.713795,-1.963562 2.945695,-1.963562 0.178505,0 0.392289,0.03528 0.553156,0.09102 v 2.35444 c -0.232834,-0.05292 -0.606073,-0.0889 -0.910167,-0.0889 -1.855612,0 -2.499079,1.337733 -2.499079,2.961217 v 4.159251 h -2.534356 l -7.05e-4,-9.227963 z m 15.599131,9.226552 h -2.410178 v -1.284817 h -0.05362 c -0.642761,1.03505 -1.749072,1.535289 -2.820106,1.535289 -2.695223,0 -3.373967,-1.515534 -3.373967,-3.800829 v -5.676195 h 2.535767 v 5.21194 c 0,1.516239 0.445911,2.26695 1.623484,2.26695 1.375128,0 1.963561,-0.767644 1.963561,-2.6416 v -4.836585 h 2.534356 l 7.06e-4,9.225847 z m 1.999545,-9.226552 h 2.392539 v 1.249539 h 0.03528 c 0.661106,-0.948267 1.624189,-1.500717 2.820105,-1.500717 1.16064,0 2.19498,0.428272 2.69522,1.5367 0.53552,-0.805039 1.49931,-1.5367 2.78413,-1.5367 1.96356,0 3.37396,0.909461 3.37396,3.302706 v 6.175024 h -2.53506 v -5.229579 c 0,-1.229784 -0.10583,-2.248606 -1.55222,-2.248606 -1.42805,0 -1.69616,1.178278 -1.69616,2.337506 v 5.140679 h -2.53435 v -5.175251 c 0,-1.072445 0.0713,-2.302934 -1.536,-2.302934 -0.49953,0 -1.713086,0.321028 -1.713086,2.124428 v 5.353757 h -2.534356 v -9.226552 z"
     id="path2"
     inkscape:connector-curvature="0" />
  <path
     d="m 303.35933,1.533172 -42.40602,42.412366 h 24.13495 L 327.49568,1.533172"
     id="path4"
     inkscape:connector-curvature="0"
     style="fill:#ca2825" />
  <path
     d="m 327.55001,1.533172 -42.40813,42.412366 h 24.13635 L 351.68496,1.533172"
     id="path6"
     inkscape:connector-curvature="0"
     style="fill:#fdc601" />
  <path
     d="m 351.72023,1.533172 -42.40601,42.412366 h 24.13494 L 375.85659,1.533172"
     id="path8"
     inkscape:connector-curvature="0"
     style="fill:#009c37" />
  <path
     d="m 375.86506,1.533172 -42.40743,42.412366 h 24.13635 L 400,1.533172"
     id="path10"
     inkscape:connector-curvature="0"
     style="fill:#02559c" />
</svg>
