<?xml version="1.0" encoding="UTF-8" standalone="no"?>
<svg
   xmlns:dc="http://purl.org/dc/elements/1.1/"
   xmlns:cc="http://creativecommons.org/ns#"
   xmlns:rdf="http://www.w3.org/1999/02/22-rdf-syntax-ns#"
   xmlns:svg="http://www.w3.org/2000/svg"
   xmlns="http://www.w3.org/2000/svg"
   xmlns:sodipodi="http://sodipodi.sourceforge.net/DTD/sodipodi-0.dtd"
   xmlns:inkscape="http://www.inkscape.org/namespaces/inkscape"
   viewBox="0 0 30 30"
   version="1.1"
   id="svg4"
   sodipodi:docname="icon_empty.svg"
   inkscape:version="0.92.4 5da689c313, 2019-01-14">
  <metadata
     id="metadata10">
    <rdf:RDF>
      <cc:Work
         rdf:about="">
        <dc:format>image/svg+xml</dc:format>
        <dc:type
           rdf:resource="http://purl.org/dc/dcmitype/StillImage" />
      </cc:Work>
    </rdf:RDF>
  </metadata>
  <defs
     id="defs8" />
  <sodipodi:namedview
     pagecolor="#ffffff"
     bordercolor="#666666"
     borderopacity="1"
     objecttolerance="10"
     gridtolerance="10"
     guidetolerance="10"
     inkscape:pageopacity="0"
     inkscape:pageshadow="2"
     inkscape:window-width="471"
     inkscape:window-height="442"
     id="namedview6"
     showgrid="false"
     inkscape:zoom="7.8666667"
     inkscape:cx="15"
     inkscape:cy="15"
     inkscape:window-x="0"
     inkscape:window-y="0"
     inkscape:window-maximized="0"
     inkscape:current-layer="svg4">
    <inkscape:grid
       type="xygrid"
       id="grid12" />
  </sodipodi:namedview>
  <path
     d="M14.961 22.771h-1.548l3.686-6.384a4.008 4.008 0 013.466-2.007h7.617l-.774 1.341h-6.843c-.949 0-1.832.512-2.304 1.335l-3.3 5.715zm4.148-5.227a1.68 1.68 0 011.455-.846h6.277l.335-.579h-6.612c-.807 0-1.557.436-1.958 1.136l-3.185 5.516h.67l3.018-5.227zm.587 2.463h5.236l.905-1.568.275-.478.499-.863h-6.048c-.457 0-.882.246-1.109.644l-2.903 5.029H18.1l1.596-2.764zm-11.899 0l-.001.016c-.012.041-.069.16-.266.491-.417.7-.844 1.575-.844 2.756a4 4 0 003.995 3.995h15.213L24.315 30h1.549l1.24-2.148a1.278 1.278 0 00-1.099-1.927H10.682a2.657 2.657 0 01-2.654-2.654c0-.805.262-1.409.655-2.068.366-.614.458-.826.458-1.258 0-.704-.573-1.277-1.277-1.277H3.37l.774 1.341h3.653zm18.208 4.938H10.682a1.678 1.678 0 01-1.676-1.676c0-.511.14-.936.517-1.568.405-.68.596-1.074.596-1.759a2.258 2.258 0 00-2.255-2.255h-6.18l-.219-.377L0 17.972l2.268.728-.25-.433h5.845c.924 0 1.676.752 1.676 1.676 0 .521-.116.794-.514 1.462-.431.723-.599 1.246-.599 1.865a2.259 2.259 0 002.255 2.256h15.323a1.677 1.677 0 011.441 2.532L26.324 30h.67l.952-1.649a2.257 2.257 0 00-1.941-3.406zM12.116 27.7h-1.548L9.239 30h1.548l1.329-2.3zm-.199 2.3l1.328-2.301h-.669L11.248 30h.669zm3.337-2.3h-1.548L12.378 30h1.548l1.328-2.3zm10.751-4.495H10.748c.008-.098.05-.245.27-.613.477-.8.841-1.503.841-2.649a4 4 0 00-3.996-3.995h-.105l-.883.884-.883-.884H1.8l.774 1.341h5.289a2.657 2.657 0 012.654 2.654c0 .811-.246 1.282-.652 1.963-.34.571-.461.928-.461 1.364 0 .704.573 1.277 1.277 1.277h15.323a2.656 2.656 0 012.286 4.004L27.454 30h1.548l.447-.773a4 4 0 00-3.444-6.022zM8.199 15.777l-1.325-1.325-1.324 1.325h.615l.709-.709.709.709h.616z"
     fill="#4c4c4c"
     id="path2" />
</svg>
