<?xml version="1.0" encoding="UTF-8" standalone="no"?>
<svg
   xmlns:dc="http://purl.org/dc/elements/1.1/"
   xmlns:cc="http://creativecommons.org/ns#"
   xmlns:rdf="http://www.w3.org/1999/02/22-rdf-syntax-ns#"
   xmlns:svg="http://www.w3.org/2000/svg"
   xmlns="http://www.w3.org/2000/svg"
   xmlns:sodipodi="http://sodipodi.sourceforge.net/DTD/sodipodi-0.dtd"
   xmlns:inkscape="http://www.inkscape.org/namespaces/inkscape"
   viewBox="0 0 555.253 321.81418"
   version="1.1"
   id="svg156"
   sodipodi:docname="consolegame.svg"
   width="555.25299"
   height="321.81418"
   inkscape:version="0.92.4 5da689c313, 2019-01-14">
  <metadata
     id="metadata162">
    <rdf:RDF>
      <cc:Work
         rdf:about="">
        <dc:format>image/svg+xml</dc:format>
        <dc:type
           rdf:resource="http://purl.org/dc/dcmitype/StillImage" />
      </cc:Work>
    </rdf:RDF>
  </metadata>
  <defs
     id="defs160" />
  <sodipodi:namedview
     pagecolor="#ffffff"
     bordercolor="#666666"
     borderopacity="1"
     objecttolerance="10"
     gridtolerance="10"
     guidetolerance="10"
     inkscape:pageopacity="0"
     inkscape:pageshadow="2"
     inkscape:window-width="640"
     inkscape:window-height="480"
     id="namedview158"
     showgrid="false"
     inkscape:zoom="0.48806581"
     inkscape:cx="277.6265"
     inkscape:cy="160.907"
     inkscape:window-x="0"
     inkscape:window-y="0"
     inkscape:window-maximized="0"
     inkscape:current-layer="svg156">
    <inkscape:grid
       type="xygrid"
       id="grid969"
       originx="0"
       originy="4.6386719e-06" />
  </sodipodi:namedview>
  <path
     d="m 333.711,296.21518 c -4.849,5.064 -23.675,21.674 -27.46,25.004 -0.43,0.392 -0.671,0.595 -0.671,0.595 H 24.915 c 0,0 -20.193,-19.281 -22.257,-20.193 C 1.266,299.72218 0,296.58218 0,288.78418 V 17.741178 C 0,-0.74282249 14.901,0.00417751 14.901,0.00417751 H 30.46 V 1.8141775 H 300.148 V 0.00417751 h 10.9 c 0.506,0 1.013,0.013 1.494,0.025 20.978,0.836 23.345,19.09200049 23.345,19.09200049 V 288.25218 c 10e-4,0 0.343,5.343 -2.176,7.963 z"
     id="path2"
     inkscape:connector-curvature="0"
     style="fill:#4d4d4f" />
  <path
     d="m 306.251,321.21918 a 2.813,2.813 0 0 1 -0.203,0.595 H 24.915 c 0,0 -7.697,-129.628 39.234,-135.996 8.672,-1.025 19.497,1.266 44.045,7.128 24.548,5.862 90.027,5.862 114.575,0 24.548,-5.862 35.322,-7.128 44.045,-7.128 16.268,0 26.308,15.863 32.372,36.765 10.926,37.639 8.913,91.61 7.065,98.636 z"
     id="path4"
     inkscape:connector-curvature="0"
     style="fill:#58595b" />
  <path
     d="M 300.147,1.8191775 V 13.041178 c 0,0 -0.094,1.424 -1.986,1.424 H 165.301 32.441 c -1.899,0 -1.986,-1.424 -1.986,-1.424 V 1.8191775 l 134.846,0.066 z"
     id="path6"
     inkscape:connector-curvature="0"
     style="fill:#30302f" />
  <path
     d="m 165.482,197.86618 c -33.215,0 -39.834,-1.634 -45.49,-2.388 -5.656,-0.754 -3.971,4.4 -3.971,4.4 0,0 2.888,19.107 3.249,26.398 0.361,7.291 8.183,6.285 8.183,6.285 h 76.058 c 0,0 7.822,1.006 8.183,-6.285 0.361,-7.291 3.249,-26.398 3.249,-26.398 0,0 1.685,-5.154 -3.971,-4.4 -5.656,0.753 -12.275,2.388 -45.49,2.388 z"
     stroke-miterlimit="10"
     id="path8"
     inkscape:connector-curvature="0"
     style="fill:#3d3d3d;stroke:#404041;stroke-width:3.7980001;stroke-miterlimit:10" />
  <ellipse
     cx="165.30099"
     cy="99.503174"
     rx="142.789"
     ry="82.021004"
     id="ellipse10"
     style="fill:#30302f" />
  <ellipse
     cx="165.241"
     cy="99.314178"
     rx="141.284"
     ry="80.449997"
     id="ellipse12"
     style="fill:#404041" />
  <ellipse
     cx="165.662"
     cy="97.429176"
     rx="116.072"
     ry="65.239998"
     id="ellipse14"
     style="fill:#4d4c4c" />
  <path
     d="m 165.768,71.031178 c -38.555,0 -80.104,4.902 -80.104,4.902 0,0 -9.778,0.283 -14.562,5.28 -4.784,4.997 -5.235,10.685 -5.235,16.216 0,5.531002 1.251,10.557002 2.347,13.199002 1.564,3.771 5.551,6.034 7.672,6.034 H 255.65 c 2.121,0 6.107,-2.263 7.672,-6.034 1.096,-2.642 2.347,-7.668 2.347,-13.199002 0,-5.531 -0.451,-11.219 -5.235,-16.216 -4.784,-4.997 -14.562,-5.28 -14.562,-5.28 0,0 -41.549,-4.902 -80.104,-4.902 z"
     stroke-miterlimit="10"
     id="path16"
     inkscape:connector-curvature="0"
     style="fill:#5c5c5c;stroke:#4d4d4f;stroke-width:2.53200006;stroke-miterlimit:10" />
  <path
     d="M 87.679,81.213178 H 245.45 v 8.862 h 9.387 c 0,0 0.812,0.503 0.812,3.614 0,3.111 -0.812,3.74 -0.812,3.74 H 79.014 c 0,0 -1.143,-0.88 -1.143,-3.897 0,-3.017 1.143,-4.211 1.143,-4.211 h 8.484 z"
     id="path18"
     inkscape:connector-curvature="0"
     style="fill:#353535" />
  <g
     id="g22"
     style="fill:#f1f1f2"
     transform="translate(0,1.775127e-4)">
    <path
       d="m 64.393,293.935 v -1.802 c 1.808,-0.445 2.987,-1.039 3.539,-1.783 h 1.777 v 7.286 l -0.015,1.603 h -2.369 l -0.02,-1.603 v -5.009 c -1.248,0.632 -2.218,1.068 -2.912,1.308 z m 14.785,-1.244 -2.106,0.475 c -0.199,-0.898 -0.72,-1.347 -1.563,-1.347 -1.226,0 -1.838,0.976 -1.838,2.929 0.495,-0.67 1.277,-1.005 2.344,-1.005 0.975,0 1.772,0.266 2.39,0.798 0.618,0.532 0.927,1.162 0.927,1.889 0,0.774 -0.341,1.458 -1.023,2.052 -0.682,0.594 -1.592,0.891 -2.731,0.891 -1.123,0 -2.011,-0.242 -2.662,-0.725 -0.651,-0.483 -1.093,-1.058 -1.325,-1.725 -0.232,-0.667 -0.349,-1.315 -0.349,-1.943 0,-1.343 0.361,-2.45 1.084,-3.322 0.723,-0.872 1.794,-1.308 3.213,-1.308 1.026,0 1.851,0.226 2.474,0.677 0.624,0.45 1.012,1.005 1.165,1.664 z m -3.814,5.214 c 0.444,0 0.814,-0.125 1.111,-0.374 0.297,-0.249 0.444,-0.603 0.444,-1.059 0,-0.405 -0.16,-0.726 -0.479,-0.963 a 1.754,1.754 0 0 0 -1.069,-0.355 c -0.414,0 -0.78,0.128 -1.099,0.384 -0.319,0.256 -0.479,0.591 -0.479,1.005 0,0.388 0.148,0.712 0.444,0.973 0.296,0.261 0.672,0.389 1.127,0.389 z m 4.649,-3.368 h 3.661 v 1.541 h -3.661 z m 4.902,-4.053 h 4.871 c 0.873,0 1.529,0.09 1.968,0.269 0.439,0.179 0.802,0.436 1.088,0.769 0.286,0.333 0.429,0.74 0.429,1.218 0,0.97 -0.628,1.617 -1.884,1.942 0.725,0.137 1.269,0.409 1.631,0.815 0.363,0.407 0.544,0.849 0.544,1.329 0,0.655 -0.296,1.221 -0.889,1.697 -0.592,0.477 -1.555,0.716 -2.888,0.716 h -4.871 v -8.755 z m 2.443,1.546 v 1.918 h 1.854 c 0.679,0 1.107,-0.112 1.283,-0.337 0.176,-0.225 0.264,-0.439 0.264,-0.645 0,-0.222 -0.073,-0.414 -0.218,-0.574 -0.145,-0.16 -0.305,-0.261 -0.479,-0.301 -0.174,-0.04 -0.516,-0.061 -1.026,-0.061 z m 0,3.476 v 2.11 h 1.88 c 0.642,0 1.095,-0.094 1.361,-0.282 a 0.912,0.912 0 0 0 0.397,-0.789 c 0,-0.282 -0.127,-0.526 -0.382,-0.731 -0.255,-0.205 -0.678,-0.308 -1.269,-0.308 z m 9.238,-5.022 v 8.755 h -2.443 v -8.755 z m 8.275,0 v 1.732 h -2.589 v 7.023 H 99.8 v -7.023 h -2.604 v -1.732 z"
       id="path20"
       inkscape:connector-curvature="0" />
  </g>
  <g
     id="g30"
     style="fill:#eff8fb"
     transform="translate(0,1.775127e-4)">
    <path
       d="m 188.223,222.285 h -7.109 v -1.663 h 4.873 c -0.354,-1.072 -0.648,-1.944 -0.931,-2.819 -0.707,-2.182 -1.367,-4.382 -2.143,-6.536 -0.188,-0.522 -0.696,-1.168 -1.159,-1.275 -0.781,-0.182 -1.034,0.629 -1.251,1.299 -1.081,3.343 -2.193,6.676 -3.239,10.031 -0.246,0.788 -0.604,1.054 -1.398,1.032 -2.181,-0.059 -4.364,-0.005 -6.546,-0.025 -2.211,-0.02 -3.657,-1.466 -3.705,-3.755 -0.043,-2.061 -0.047,-4.125 0.001,-6.186 0.054,-2.325 1.453,-3.739 3.687,-3.771 1.967,-0.028 3.934,-0.006 5.971,-0.006 v 1.75 h -5.052 c -2.371,-10e-4 -2.915,0.572 -2.916,3.072 0,1.556 -0.007,3.112 0.002,4.668 0.01,1.664 0.768,2.475 2.334,2.492 1.271,0.013 2.543,0.003 3.88,0.003 v -5.427 h -3.236 v -1.689 h 5.043 v 7.15 l 0.275,0.032 c 1.067,-3.287 2.135,-6.573 3.199,-9.861 0.608,-1.88 1.728,-2.644 3.534,-2.366 1.005,0.154 1.749,0.741 2.078,1.735 1.306,3.947 2.573,7.909 3.85,11.867 0.018,0.06 -0.023,0.139 -0.042,0.248 z m -44.551,0.036 v -1.731 c 1.897,0 3.756,0.021 5.616,-0.006 1.556,-0.023 2.719,-1.152 2.775,-2.63 0.055,-1.445 -1.096,-2.681 -2.626,-2.789 -0.621,-0.044 -1.251,0.016 -1.869,-0.05 -0.951,-0.103 -1.645,-1 -1.644,-2.036 0.001,-1.051 0.687,-1.99 1.647,-2.018 2.034,-0.059 4.07,-0.018 6.159,-0.018 v 1.712 h -5.979 l -0.006,0.576 c 0.57,0.025 1.14,0.061 1.71,0.074 2.15,0.049 3.702,1.302 4.238,3.429 0.654,2.597 -1.21,5.362 -3.777,5.469 -2.036,0.086 -4.079,0.018 -6.244,0.018 z"
       id="path24"
       inkscape:connector-curvature="0" />
    <path
       d="m 143.655,219.911 v -1.788 h 6 l 0.002,-0.502 c -0.612,-0.025 -1.223,-0.061 -1.835,-0.072 -1.718,-0.03 -2.995,-0.852 -3.749,-2.434 -0.767,-1.611 -0.649,-3.225 0.362,-4.705 0.693,-1.016 1.65,-1.704 2.856,-1.743 2.108,-0.068 4.219,-0.019 6.411,-0.019 v 1.715 c -1.894,0 -3.789,-0.032 -5.682,0.009 -1.88,0.041 -3.101,1.796 -2.533,3.564 0.342,1.064 1.317,1.778 2.567,1.851 0.587,0.035 1.181,-0.009 1.765,0.051 0.947,0.097 1.666,0.99 1.677,2.012 0.011,1.022 -0.706,2.017 -1.632,2.043 -2.035,0.058 -4.072,0.018 -6.209,0.018 z m 21.083,-11.24 v 1.691 h -5.59 c -1.953,0.002 -2.633,0.692 -2.646,2.713 -0.01,1.627 -0.004,3.254 0.008,4.881 0.014,1.878 0.735,2.634 2.506,2.639 1.862,0.005 3.724,0.001 5.656,0.001 v 1.737 c -1.389,0 -2.758,0.003 -4.126,-0.001 -0.865,-0.002 -1.733,0.029 -2.595,-0.032 -1.588,-0.112 -3.032,-1.597 -3.073,-3.257 a 151.078,151.078 0 0 1 -10e-4,-7.156 c 0.035,-1.527 1.324,-3.099 2.784,-3.181 2.337,-0.131 4.684,-0.035 7.077,-0.035 z m 12.791,13.575 c 1.206,-3.726 2.378,-7.371 3.579,-11.005 0.085,-0.257 0.351,-0.531 0.592,-0.618 0.132,-0.048 0.502,0.237 0.572,0.443 0.98,2.914 1.926,5.84 2.907,8.844 h -4.072 l -0.126,-1.201 -0.175,-0.063 c -0.232,0.674 -0.47,1.347 -0.695,2.024 -0.597,1.794 -0.595,1.795 -2.582,1.576 z m 3.481,-4.304 h 1.429 l -0.599,-1.858 -0.246,0.016 z m -9.534,-0.175 -1.201,-0.351 v -1.537 h 2.641 v 4.027 c -1.35,0 -2.693,0.077 -4.018,-0.052 -0.344,-0.033 -0.886,-0.697 -0.902,-1.091 -0.09,-2.167 -0.064,-4.34 -0.038,-6.511 0.009,-0.761 0.454,-1.207 1.189,-1.214 2.006,-0.019 4.013,-0.007 6.108,-0.007 v 1.721 c -1.509,0 -2.99,0.043 -4.467,-0.016 -0.906,-0.036 -1.256,0.295 -1.199,1.251 0.061,1.009 0.004,2.026 0.016,3.039 0.015,1.208 0.574,1.499 1.871,0.741 z"
       id="path26"
       inkscape:connector-curvature="0" />
    <path
       d="m 158.95,218.059 c 1.864,0.348 3.795,-0.016 5.727,0.202 v 1.642 c -2.21,0 -4.378,0.054 -6.538,-0.055 -0.345,-0.017 -0.861,-0.721 -0.939,-1.175 -0.15,-0.871 -0.044,-1.791 -0.044,-2.782 h 6.15 v 1.623 h -4.299 z m 5.788,-7.012 v 1.631 c -1.918,0.273 -3.884,-0.174 -5.768,0.242 l 0.019,0.448 h 4.321 v 1.704 h -6.134 c 0,-0.999 -0.086,-2.043 0.046,-3.055 0.047,-0.362 0.611,-0.914 0.955,-0.927 2.168,-0.085 4.341,-0.043 6.561,-0.043 z"
       id="path28"
       inkscape:connector-curvature="0" />
  </g>
  <path
     d="M 167.059,98.937178 H 80.278 c 0,0 1.453,1.808002 2.2,2.595002 6.975,7.345 14.889,8.152 14.889,8.152 h 7.566 v 0.943 h 123.896 v -0.943 h 7.566 c 0,0 7.914,-0.807 14.889,-8.152 0.748,-0.788 2.2,-2.595002 2.2,-2.595002 z"
     id="path32"
     inkscape:connector-curvature="0"
     style="fill:#353535" />
  <path
     d="m 266.571,260.15118 c 0,12.415 -14.261,14.519 -14.261,14.519 H 165.482 78.654 c -2.527,0 -14.261,-2.104 -14.261,-14.519 0,-12.415 14.261,-14.519 14.261,-14.519 H 252.31 c 0,0.001 14.261,2.105 14.261,14.519 z"
     id="path34"
     inkscape:connector-curvature="0"
     style="fill:#3f4040" />
  <path
     d="M 252.23,271.32018 H 79.095 c -6.1,0 -11.092,-4.991 -11.092,-11.092 0,-6.1 4.991,-11.092 11.092,-11.092 H 252.23 c 6.1,0 11.092,4.991 11.092,11.092 0,6.101 -4.992,11.092 -11.092,11.092 z"
     id="path36"
     inkscape:connector-curvature="0"
     style="fill:#333333" />
  <path
     d="m 161.261,266.56218 h -2.028 a 0.79,0.79 0 0 1 -0.791,-0.791 v -10.412 a 0.79,0.79 0 0 1 0.791,-0.791 h 2.028 a 0.79,0.79 0 0 1 0.791,0.791 v 10.412 a 0.79,0.79 0 0 1 -0.791,0.791 z m 5.235,0 h -2.028 a 0.79,0.79 0 0 1 -0.791,-0.791 v -10.412 a 0.79,0.79 0 0 1 0.791,-0.791 h 2.028 a 0.79,0.79 0 0 1 0.791,0.791 v 10.412 a 0.79,0.79 0 0 1 -0.791,0.791 z m 5.175,0 h -2.028 a 0.79,0.79 0 0 1 -0.791,-0.791 v -10.412 a 0.79,0.79 0 0 1 0.791,-0.791 h 2.028 a 0.79,0.79 0 0 1 0.791,0.791 v 10.412 a 0.79,0.79 0 0 1 -0.791,0.791 z"
     id="path38"
     inkscape:connector-curvature="0"
     style="fill:#5d5e5f" />
  <path
     d="m 250.988,267.88218 h -29.487 c -4.252,0 -7.731,-3.479 -7.731,-7.731 0,-4.252 3.479,-7.731 7.731,-7.731 h 29.487 c 4.252,0 7.731,3.479 7.731,7.731 0,4.252 -3.479,7.731 -7.731,7.731 z"
     id="path40"
     inkscape:connector-curvature="0"
     style="fill:#d4202b" />
  <path
     d="m 245.693,262.79118 h -17.325 a 2.235,2.235 0 0 1 -2.229,-2.229 v -0.822 a 2.235,2.235 0 0 1 2.229,-2.229 h 17.325 a 2.235,2.235 0 0 1 2.229,2.229 v 0.822 a 2.235,2.235 0 0 1 -2.229,2.229 z"
     id="path42"
     inkscape:connector-curvature="0"
     style="fill:#b7202f" />
  <path
     d="M 110.125,267.88218 H 80.638 c -4.252,0 -7.731,-3.479 -7.731,-7.731 0,-4.252 3.479,-7.731 7.731,-7.731 h 29.487 c 4.252,0 7.731,3.479 7.731,7.731 0,4.252 -3.479,7.731 -7.731,7.731 z"
     id="path44"
     inkscape:connector-curvature="0"
     style="fill:#d4202b" />
  <path
     d="M 104.044,262.79118 H 86.719 a 2.235,2.235 0 0 1 -2.229,-2.229 v -0.822 a 2.235,2.235 0 0 1 2.229,-2.229 h 17.325 a 2.235,2.235 0 0 1 2.229,2.229 v 0.822 a 2.237,2.237 0 0 1 -2.229,2.229 z"
     id="path46"
     inkscape:connector-curvature="0"
     style="fill:#b7202f" />
  <g
     id="g50"
     style="fill:#ffffff"
     transform="translate(0,1.775127e-4)">
    <path
       d="m 207.058,295.403 v -1.087 c 0.024,-0.021 0.046,-0.057 0.068,-0.057 1.318,0 2.637,-0.04 3.953,0.02 0.719,0.033 1.277,0.884 1.231,1.681 -0.046,0.82 -0.683,1.491 -1.479,1.504 -1.171,0.02 -2.342,0.007 -3.513,0.007 -0.875,10e-4 -1.75,0.008 -2.625,-0.003 -0.94,-0.011 -1.491,-0.595 -1.494,-1.564 -0.002,-0.709 0,-1.418 0,-2.197 h 2.166 c 0,0.598 -0.002,1.164 0,1.728 0.003,0.71 0.067,0.778 0.73,0.779 h 3.292 c 0.089,0 0.178,0.003 0.267,-0.004 0.255,-0.02 0.468,-0.149 0.401,-0.426 -0.038,-0.153 -0.259,-0.354 -0.406,-0.363 -0.665,-0.04 -1.334,-0.02 -2.001,-0.02 -0.177,0.002 -0.352,0.002 -0.59,0.002 z m 56.254,-0.019 c -0.096,0.625 0.053,0.826 0.58,0.829 1.409,0.007 2.818,0.003 4.227,0.004 h 0.623 v 1.224 c -0.135,0.009 -0.29,0.03 -0.446,0.031 -1.868,0.002 -3.738,0.006 -5.606,-10e-4 -1.114,-0.004 -1.613,-0.547 -1.608,-1.721 0.003,-0.66 0,-1.321 0,-1.989 0.085,-0.02 0.141,-0.047 0.196,-0.047 0.623,-0.003 1.246,-0.002 1.931,-0.002 0.094,0.549 0.514,0.508 0.921,0.507 1.232,-0.003 2.463,-0.002 3.693,0.001 0.189,0 0.378,0.02 0.581,0.033 v 1.131 z m -61.61,-1.166 v 1.169 h -5.1 c -0.077,0.625 0.074,0.823 0.598,0.826 1.425,0.007 2.849,0.002 4.274,0.003 h 0.57 v 1.226 c -0.155,0.009 -0.312,0.029 -0.469,0.029 -1.855,0.002 -3.71,0.005 -5.565,0 -1.124,-0.004 -1.632,-0.542 -1.627,-1.703 0.002,-0.663 0,-1.326 0,-2.024 h 2.132 c 0.113,0.432 0.444,0.482 0.826,0.478 1.247,-0.01 2.494,-0.004 3.741,-0.004 z m 49.974,-0.475 h 2.439 l 1.28,2.024 1.279,-2.034 h 2.44 l -2.376,3.715 h -2.685 a 5711.76,5711.76 0 0 1 -2.377,-3.705 z m -58.553,-0.416 h -11.68 v -1.252 c 0.14,-0.014 0.254,-0.037 0.369,-0.037 3.367,-0.002 6.734,-0.005 10.1,10e-4 0.776,0.001 1.245,0.502 1.211,1.288 z m 26.723,1.521 v -1.109 H 222 v 3.694 h -2.121 l -0.046,-1.074 h -3.85 v -1.512 z m 26.864,2.621 c -0.768,0 -1.536,0.032 -2.3,-0.021 -0.205,-0.015 -0.436,-0.252 -0.58,-0.448 -0.396,-0.544 -0.885,-0.735 -1.536,-0.677 -0.676,0.059 -1.359,0.013 -2.081,0.013 v -1.502 h 2.186 c 0.386,0 0.771,0.002 1.157,-10e-4 0.503,-0.005 0.597,-0.102 0.612,-0.617 0.004,-0.151 0.015,-0.301 0.024,-0.477 h 2.121 c 0.165,0.927 -0.052,1.666 -0.97,2.225 l 1.508,1.294 c -0.049,0.069 -0.095,0.14 -0.141,0.211 z m -17.129,-0.011 v -1.21 c 0.194,-0.011 0.366,-0.029 0.538,-0.03 1.069,-0.003 2.137,0.002 3.205,-0.003 0.496,-0.003 0.607,-0.117 0.612,-0.624 0.006,-0.602 0.002,-1.204 0.002,-1.844 h 2.184 c 0,0.311 0.002,0.627 -0.001,0.943 -0.004,0.434 -0.012,0.868 -0.018,1.301 -0.011,0.785 -0.489,1.434 -1.224,1.452 -1.747,0.045 -3.496,0.015 -5.298,0.015 z m -26.339,-4.142 c -0.078,-0.731 0.395,-1.263 1.145,-1.276 0.86,-0.014 1.722,-0.004 2.582,-0.004 h 5.32 v 1.28 z m 32.827,0.008 H 227.1 c -0.011,-0.169 -0.026,-0.304 -0.029,-0.44 -0.004,-0.26 -0.001,-0.519 -0.001,-0.798 0.146,-0.021 0.245,-0.047 0.344,-0.047 2.492,-0.003 4.983,-0.007 7.475,0.001 0.752,0.002 1.216,0.504 1.18,1.284 z m 10.228,0.005 h -8.723 c -0.059,-0.704 0.382,-1.276 1.05,-1.282 a 347.82,347.82 0 0 1 6.62,0 c 0.68,0.007 1.125,0.579 1.053,1.282 z m -32.888,-0.011 c 0.013,-0.769 0.426,-1.268 1.103,-1.274 a 389.98,389.98 0 0 1 6.399,0.001 c 0.672,0.006 1.118,0.558 1.076,1.273 z m 47.681,0.004 v -1.261 h 7.661 v 1.261 z m -66.695,10e-4 v -1.252 h 7.656 v 1.252 z m -3.427,4.114 v -3.69 h 2.165 v 3.69 z m 46.573,-3.701 h 2.146 v 3.7 h -2.146 z m -56.098,-0.004 h 2.113 v 3.708 h -2.113 z m 31.942,3.706 v -3.695 h 2.145 v 3.695 z m 36.387,0.005 h -2.116 v -3.7 h 2.116 z m -61.445,0.004 h -2.102 v -3.699 h 2.102 z m 38.77,-0.012 v -3.695 h 2.132 v 3.695 z m 25.89,-5.466 0.866,1.353 h -2.447 l -0.856,-1.353 z m 4.812,-0.004 h 2.444 l -0.861,1.359 h -2.436 z m -8.015,0.103 v 1.258 h -2.123 v -1.258 z"
       id="path48"
       inkscape:connector-curvature="0" />
  </g>
  <path
     d="m 277.31,295.81518 v -3.741 h 1.555 v -1.424 h -8.718 v 1.668 h 1.56 v 3.575 h -1.56 v 1.585 h 9.068 v -1.663 z m -2.064,0 h -1.401 v -3.619 h 1.401 z"
     id="path52"
     inkscape:connector-curvature="0"
     style="fill:#ffffff" />
  <g
     id="g56"
     style="fill:#343433"
     transform="translate(0,1.775127e-4)">
    <path
       d="m 141.319,135.994 -1.252,0.093 c -0.017,-0.851 -0.298,-1.277 -0.843,-1.277 -0.624,0 -0.936,0.656 -0.936,1.967 0,0.757 0.085,1.271 0.255,1.54 0.17,0.27 0.407,0.404 0.711,0.404 0.494,0 0.796,-0.38 0.906,-1.14 l 1.158,0.084 c -0.075,0.722 -0.302,1.271 -0.682,1.646 -0.38,0.376 -0.845,0.563 -1.396,0.563 -0.675,0 -1.224,-0.275 -1.646,-0.826 -0.422,-0.551 -0.633,-1.313 -0.633,-2.285 0,-0.91 0.204,-1.656 0.613,-2.236 0.409,-0.58 0.967,-0.871 1.674,-0.871 1.227,0 1.917,0.78 2.071,2.338 z m 2.736,-2.245 1.597,6.032 h -1.284 l -0.314,-1.242 h -1.649 l -0.32,1.242 h -1.048 l 1.635,-6.032 z m -1.364,3.677 h 1.081 l -0.536,-2.117 z m 4.442,-0.035 v 2.391 h -1.203 v -6.032 h 2.242 c 0.414,0 0.745,0.057 0.996,0.17 0.25,0.113 0.458,0.322 0.622,0.625 0.164,0.303 0.247,0.64 0.247,1.011 0,0.724 -0.295,1.244 -0.886,1.559 l 0.942,2.667 h -1.32 l -0.783,-2.391 z m 0,-2.568 v 1.538 h 0.732 c 0.239,0 0.413,-0.02 0.521,-0.06 0.108,-0.04 0.205,-0.128 0.29,-0.265 0.085,-0.137 0.127,-0.294 0.127,-0.471 a 0.818,0.818 0 0 0 -0.127,-0.451 c -0.085,-0.133 -0.177,-0.214 -0.277,-0.245 -0.1,-0.031 -0.286,-0.046 -0.561,-0.046 z m 6.834,-1.074 v 1.193 h -1.263 v 4.839 h -1.211 v -4.839 h -1.271 v -1.193 z m 1.602,3.642 v 2.391 h -1.203 v -6.032 h 2.242 c 0.414,0 0.746,0.057 0.996,0.17 0.25,0.113 0.458,0.322 0.622,0.625 0.164,0.303 0.247,0.64 0.247,1.011 0,0.724 -0.295,1.244 -0.886,1.559 l 0.942,2.667 h -1.32 l -0.783,-2.391 z m 0,-2.568 v 1.538 h 0.732 c 0.239,0 0.413,-0.02 0.521,-0.06 0.108,-0.04 0.205,-0.128 0.29,-0.265 0.085,-0.137 0.127,-0.294 0.127,-0.471 a 0.818,0.818 0 0 0 -0.127,-0.451 c -0.085,-0.133 -0.177,-0.214 -0.277,-0.245 -0.1,-0.031 -0.286,-0.046 -0.561,-0.046 z m 4.432,-1.074 v 6.032 h -1.192 v -6.032 z m 0.37,0 h 1.557 c 0.635,0 1.107,0.104 1.418,0.312 0.311,0.208 0.59,0.536 0.836,0.985 0.246,0.449 0.37,1.017 0.37,1.704 0,0.863 -0.215,1.584 -0.646,2.163 -0.431,0.579 -1.024,0.868 -1.781,0.868 h -1.755 v -6.032 z m 1.173,1.109 v 3.787 h 0.492 c 0.435,0 0.758,-0.192 0.969,-0.577 0.211,-0.384 0.317,-0.836 0.317,-1.354 0,-0.365 -0.06,-0.703 -0.181,-1.014 -0.121,-0.311 -0.27,-0.529 -0.449,-0.654 -0.179,-0.125 -0.394,-0.188 -0.645,-0.188 z m 7.446,1.697 c 0,0 -0.008,1.9 -0.694,2.594 -0.686,0.694 -0.849,0.725 -1.413,0.725 -0.666,0 -1.183,-0.281 -1.554,-0.844 -0.37,-0.563 -0.555,-1.29 -0.555,-2.183 0,-0.96 0.197,-1.732 0.592,-2.316 0.395,-0.583 0.931,-0.875 1.609,-0.875 0.568,0 1.026,0.189 1.375,0.566 0.349,0.377 0.562,0.879 0.639,1.507 l -1.136,0.177 c -0.092,-0.731 -0.385,-1.096 -0.878,-1.096 -0.324,0 -0.569,0.173 -0.734,0.519 -0.166,0.346 -0.249,0.84 -0.249,1.483 0,0.619 0.09,1.092 0.269,1.419 0.179,0.327 0.435,0.491 0.766,0.491 a 0.8,0.8 0 0 0 0.574,-0.247 c 0.168,-0.165 0.252,-0.429 0.252,-0.791 h -0.96 v -1.127 h 2.097 z m 3.908,-1.657 h -2.429 v 1.237 h 1.91 v 1.136 h -1.91 v 1.317 h 2.429 v 1.193 h -3.643 v -6.032 h 3.643 z m 4.748,-1.149 v 6.032 h -1.192 v -6.032 z m 4.18,0 v 6.032 h -1.02 l -1.996,-4.075 0.007,0.203 c 0.01,0.103 0.015,0.19 0.015,0.261 v 3.611 h -0.93 v -6.032 h 1.288 l 1.735,3.557 a 5.122,5.122 0 0 1 -0.022,-0.402 v -3.155 z m 1.449,3.792 v 2.241 h -1.214 v -6.032 h 2.01 c 0.448,0 0.792,0.057 1.03,0.17 0.238,0.113 0.45,0.316 0.637,0.608 0.187,0.292 0.28,0.65 0.28,1.074 0,0.298 -0.05,0.588 -0.149,0.871 -0.1,0.283 -0.24,0.505 -0.422,0.667 -0.182,0.162 -0.358,0.27 -0.529,0.323 -0.171,0.053 -0.438,0.08 -0.802,0.08 h -0.841 z m -0.041,-1.096 h 0.777 c 0.296,0 0.504,-0.081 0.624,-0.243 a 0.911,0.911 0 0 0 0.179,-0.557 c 0,-0.245 -0.067,-0.439 -0.2,-0.583 -0.133,-0.144 -0.336,-0.217 -0.607,-0.217 h -0.774 v 1.6 z m 7.105,-2.696 v 3.756 c 0,0.607 -0.059,1.058 -0.176,1.354 -0.117,0.296 -0.333,0.539 -0.648,0.729 -0.315,0.19 -0.718,0.285 -1.209,0.285 -0.491,0 -0.881,-0.085 -1.172,-0.256 a 1.595,1.595 0 0 1 -0.652,-0.729 c -0.145,-0.315 -0.217,-0.776 -0.217,-1.383 v -3.756 h 1.297 v 3.756 c 0,0.324 0.023,0.563 0.069,0.716 a 0.645,0.645 0 0 0 0.277,0.365 c 0.138,0.09 0.308,0.135 0.51,0.135 0.224,0 0.407,-0.044 0.547,-0.133 a 0.629,0.629 0 0 0 0.28,-0.351 c 0.046,-0.146 0.069,-0.39 0.069,-0.731 v -3.756 h 1.025 z m 4.024,0 v 1.193 H 193.1 v 4.839 h -1.211 v -4.839 h -1.271 v -1.193 z"
       id="path54"
       inkscape:connector-curvature="0" />
  </g>
  <g
     id="g60"
     style="fill:#444546"
     transform="translate(0,1.775127e-4)">
    <path
       d="m 31.591,0.002 h 2.481 v 12.836 h -2.481 z m 3.759,0 h 2.481 V 12.838 H 35.35 Z m 3.822,0 h 2.481 v 12.836 h -2.481 z m 3.759,0 h 2.481 v 12.836 h -2.481 z m 3.696,0 h 2.481 v 12.836 h -2.481 z m 3.759,0 h 2.481 v 12.836 h -2.481 z m 3.822,0 h 2.481 v 12.836 h -2.481 z m 3.759,0 h 2.481 v 12.836 h -2.481 z m 3.854,0 h 2.481 v 12.836 h -2.481 z m 3.759,0 h 2.481 V 12.838 H 65.58 Z m 3.822,0 h 2.481 v 12.836 h -2.481 z m 3.759,0 h 2.481 v 12.836 h -2.481 z m 3.695,0 h 2.481 v 12.836 h -2.481 z m 3.759,0 h 2.481 v 12.836 h -2.481 z m 3.822,0 h 2.481 v 12.836 h -2.481 z m 3.759,0 h 2.481 v 12.836 h -2.481 z m 3.822,0 h 2.481 v 12.836 h -2.481 z m 3.759,0 h 2.481 v 12.836 h -2.481 z m 3.823,0 h 2.481 V 12.838 H 99.6 Z m 3.758,0 h 2.481 v 12.836 h -2.481 z m 3.696,0 h 2.481 v 12.836 h -2.481 z m 3.759,0 h 2.481 v 12.836 h -2.481 z m 3.822,0 h 2.481 v 12.836 h -2.481 z m 3.759,0 h 2.481 v 12.836 h -2.481 z m 3.822,0 h 2.481 v 12.836 h -2.481 z m 3.759,0 h 2.481 v 12.836 h -2.481 z m 3.822,0 h 2.481 v 12.836 h -2.481 z m 3.759,0 h 2.481 v 12.836 h -2.481 z m 3.696,0 h 2.481 v 12.836 h -2.481 z m 3.759,0 h 2.481 v 12.836 h -2.481 z m 3.822,0 h 2.481 v 12.836 h -2.481 z m 3.759,0 h 2.481 v 12.836 h -2.481 z m 4.022,0 h 2.481 v 12.836 h -2.481 z m 3.822,0 h 2.481 v 12.836 h -2.481 z m 3.759,0 h 2.481 v 12.836 h -2.481 z m 3.696,0 h 2.481 v 12.836 h -2.481 z m 3.759,0 h 2.481 v 12.836 h -2.481 z m 3.822,0 h 2.481 v 12.836 h -2.481 z m 3.759,0 h 2.481 v 12.836 h -2.481 z m 3.822,0 h 2.481 v 12.836 h -2.481 z m 3.759,0 h 2.481 v 12.836 h -2.481 z m 3.822,0 h 2.481 v 12.836 h -2.481 z m 3.759,0 h 2.481 v 12.836 h -2.481 z m 3.696,0 h 2.481 v 12.836 h -2.481 z m 3.759,0 h 2.481 v 12.836 h -2.481 z m 3.822,0 h 2.481 v 12.836 h -2.481 z m 3.759,0 h 2.481 v 12.836 h -2.481 z m 4.138,0 h 2.481 v 12.836 h -2.481 z m 3.822,0 h 2.481 v 12.836 h -2.481 z m 3.759,0 h 2.481 v 12.836 h -2.481 z m 3.695,0 h 2.481 v 12.836 h -2.481 z m 3.759,0 h 2.481 v 12.836 h -2.481 z m 3.823,0 h 2.481 v 12.836 h -2.481 z m 3.758,0 h 2.481 v 12.836 h -2.481 z m 3.823,0 h 2.481 v 12.836 h -2.481 z m 3.758,0 h 2.481 v 12.836 h -2.481 z m 3.823,0 h 2.481 v 12.836 h -2.481 z m 3.759,0 h 2.481 v 12.836 h -2.481 z m 3.695,0 h 2.481 v 12.836 h -2.481 z m 3.759,0 h 2.481 V 12.838 H 254.8 Z m 3.822,0 h 2.481 v 12.836 h -2.481 z m 3.759,0 h 2.481 v 12.836 h -2.481 z m 3.98,0 h 2.481 v 12.836 h -2.481 z m 3.822,0 h 2.481 v 12.836 h -2.481 z m 3.759,0 h 2.481 v 12.836 h -2.481 z m 3.696,0 h 2.481 v 12.836 h -2.481 z m 3.759,0 h 2.481 v 12.836 h -2.481 z m 3.822,0 h 2.481 v 12.836 h -2.481 z m 3.759,0 h 2.481 v 12.836 h -2.481 z m 3.822,0 h 2.481 V 12.838 H 292.8 Z m 3.759,0 h 2.481 v 12.836 h -2.481 z"
       id="path58"
       inkscape:connector-curvature="0" />
  </g>
  <path
     d="m 15.996,118.01518 c 0,0 0.008,0.43 0.016,1.195 0,0.255 0.008,0.502 0.008,0.757 m 299.941,5.9 v -0.008"
     id="path62"
     inkscape:connector-curvature="0"
     style="fill:none" />
  <g
     id="g134"
     transform="translate(0,1.775127e-4)">
    <path
       d="m 317.834,126.593 c 0,0.486 -0.175,21.454 -1.354,30.238 -1.195,8.895 1.059,19.646 -16.19,27.076 -17.257,7.438 -43.274,13.928 -80.568,18.189 -37.293,4.253 -83.427,3.846 -119.86,-2.325 -36.425,-6.172 -56.677,-10.918 -67.898,-16.262 -11.993,-5.702 -13.323,-15.792 -13.522,-25.444 -0.104,-4.961 -0.446,-30.134 -0.549,-37.373 0.088,6.53 0.478,11.587 1.123,13.522 l 0.35,1.067 c 2.023,6.092 3.775,11.356 12.431,14.51 3.002,1.091 10.177,3.13 18.491,5.487 14.876,4.229 35.239,10.018 41.689,13.299 10.289,5.248 34.379,15.29 41.036,17.496 l 6.705,2.214 c 0.478,0.183 11.818,4.38 28.303,4.38 16.493,0 27.697,-4.197 28.104,-4.356 l 6.769,-2.238 c 6.658,-2.206 30.74,-12.248 41.028,-17.496 6.45,-3.281 26.821,-9.07 41.689,-13.299 8.314,-2.357 15.497,-4.396 18.499,-5.487 8.656,-3.154 10.4,-8.418 12.423,-14.51 l 0.358,-1.067 c 0.433,-1.297 0.752,-4.005 0.943,-7.621 z"
       id="path64"
       inkscape:connector-curvature="0"
       style="fill:#282827" />
    <path
       d="m 17.869,118.741 c 0,0 0.008,0.43 0.016,1.195 0,0.255 0.008,0.502 0.008,0.757 m 299.941,5.9 v -0.008"
       id="path66"
       inkscape:connector-curvature="0"
       style="fill:none" />
    <path
       d="m 313.048,98.88 h -4.316 a 1.83,1.83 0 0 0 -1.824,1.832 v 0.223 a 1.83,1.83 0 0 0 1.824,1.832 h 4.316 a 1.83,1.83 0 0 0 1.824,-1.832 v -0.223 a 1.83,1.83 0 0 0 -1.824,-1.832 z m -0.366,3.305 h -3.584 c -0.749,0 -1.362,-0.613 -1.362,-1.362 0,-0.749 0.613,-1.362 1.362,-1.362 h 3.584 c 0.749,0 1.362,0.613 1.362,1.362 0,0.749 -0.614,1.362 -1.362,1.362 z"
       id="path68"
       inkscape:connector-curvature="0"
       style="fill:#565151" />
    <path
       d="m 314.043,100.823 c 0,0.749 -0.613,1.362 -1.362,1.362 h -3.584 c -0.749,0 -1.362,-0.613 -1.362,-1.362 0,-0.749 0.613,-1.362 1.362,-1.362 h 3.584 c 0.749,0 1.362,0.614 1.362,1.362 z"
       id="path70"
       inkscape:connector-curvature="0"
       style="fill:#231f20" />
    <path
       d="m 312.212,89.841 h -4.308 c -1.003,0 -1.824,0.82 -1.824,1.824 v 0.231 c 0,1.003 0.82,1.824 1.824,1.824 h 4.308 a 1.83,1.83 0 0 0 1.832,-1.824 v -0.231 a 1.832,1.832 0 0 0 -1.832,-1.824 z m -0.359,3.297 h -3.584 a 1.366,1.366 0 0 1 -1.362,-1.362 c 0,-0.749 0.613,-1.362 1.362,-1.362 h 3.584 c 0.749,0 1.362,0.613 1.362,1.362 0,0.749 -0.613,1.362 -1.362,1.362 z"
       id="path72"
       inkscape:connector-curvature="0"
       style="fill:#565151" />
    <path
       d="m 313.215,91.777 c 0,0.749 -0.613,1.362 -1.362,1.362 h -3.584 a 1.366,1.366 0 0 1 -1.362,-1.362 c 0,-0.749 0.613,-1.362 1.362,-1.362 h 3.584 c 0.749,0 1.362,0.613 1.362,1.362 z"
       id="path74"
       inkscape:connector-curvature="0"
       style="fill:#231f20" />
    <path
       d="m 311.615,80.819 h -4.308 c -1.003,0 -1.824,0.82 -1.824,1.824 v 0.231 c 0,1.003 0.82,1.824 1.824,1.824 h 4.308 a 1.83,1.83 0 0 0 1.832,-1.824 v -0.231 a 1.831,1.831 0 0 0 -1.832,-1.824 z m -0.359,3.297 h -3.584 c -0.749,0 -1.362,-0.613 -1.362,-1.362 0,-0.749 0.613,-1.362 1.362,-1.362 h 3.584 c 0.749,0 1.362,0.613 1.362,1.362 0,0.749 -0.613,1.362 -1.362,1.362 z"
       id="path76"
       inkscape:connector-curvature="0"
       style="fill:#565151" />
    <path
       d="m 312.618,82.754 c 0,0.749 -0.613,1.362 -1.362,1.362 h -3.584 c -0.749,0 -1.362,-0.613 -1.362,-1.362 0,-0.749 0.613,-1.362 1.362,-1.362 h 3.584 c 0.749,0 1.362,0.613 1.362,1.362 z"
       id="path78"
       inkscape:connector-curvature="0"
       style="fill:#231f20" />
    <path
       d="M 27.258,98.88 H 22.95 c -1.003,0 -1.832,0.82 -1.832,1.832 v 0.223 c 0,1.011 0.828,1.832 1.832,1.832 h 4.308 a 1.83,1.83 0 0 0 1.824,-1.832 v -0.223 A 1.83,1.83 0 0 0 27.258,98.88 Z m -0.366,3.305 h -3.584 c -0.749,0 -1.354,-0.613 -1.354,-1.362 0,-0.749 0.605,-1.362 1.354,-1.362 h 3.584 c 0.749,0 1.362,0.613 1.362,1.362 0,0.749 -0.613,1.362 -1.362,1.362 z"
       id="path80"
       inkscape:connector-curvature="0"
       style="fill:#565151" />
    <path
       d="m 28.254,100.823 c 0,0.749 -0.613,1.362 -1.362,1.362 h -3.584 c -0.749,0 -1.354,-0.613 -1.354,-1.362 0,-0.749 0.605,-1.362 1.354,-1.362 h 3.584 c 0.749,0 1.362,0.614 1.362,1.362 z"
       id="path82"
       inkscape:connector-curvature="0"
       style="fill:#231f20" />
    <path
       d="m 28.087,89.841 h -4.308 c -1.003,0 -1.824,0.82 -1.824,1.824 v 0.231 c 0,1.003 0.82,1.824 1.824,1.824 h 4.308 c 1.003,0 1.832,-0.82 1.832,-1.824 v -0.231 a 1.837,1.837 0 0 0 -1.832,-1.824 z m -0.359,3.297 h -3.584 a 1.366,1.366 0 0 1 -1.362,-1.362 c 0,-0.749 0.613,-1.362 1.362,-1.362 h 3.584 a 1.36,1.36 0 0 1 1.354,1.362 1.36,1.36 0 0 1 -1.354,1.362 z"
       id="path84"
       inkscape:connector-curvature="0"
       style="fill:#565151" />
    <path
       d="m 29.082,91.777 a 1.36,1.36 0 0 1 -1.354,1.362 h -3.584 a 1.366,1.366 0 0 1 -1.362,-1.362 c 0,-0.749 0.613,-1.362 1.362,-1.362 h 3.584 a 1.36,1.36 0 0 1 1.354,1.362 z"
       id="path86"
       inkscape:connector-curvature="0"
       style="fill:#231f20" />
    <path
       d="m 28.684,80.819 h -4.308 c -1.003,0 -1.824,0.82 -1.824,1.824 v 0.231 c 0,1.003 0.82,1.824 1.824,1.824 h 4.308 c 1.003,0 1.832,-0.82 1.832,-1.824 v -0.231 a 1.836,1.836 0 0 0 -1.832,-1.824 z m -0.358,3.297 h -3.584 c -0.749,0 -1.362,-0.613 -1.362,-1.362 0,-0.749 0.613,-1.362 1.362,-1.362 h 3.584 c 0.749,0 1.354,0.613 1.354,1.362 0,0.749 -0.606,1.362 -1.354,1.362 z"
       id="path88"
       inkscape:connector-curvature="0"
       style="fill:#565151" />
    <path
       d="m 29.679,82.754 a 1.36,1.36 0 0 1 -1.354,1.362 h -3.584 c -0.749,0 -1.362,-0.613 -1.362,-1.362 0,-0.749 0.613,-1.362 1.362,-1.362 h 3.584 a 1.36,1.36 0 0 1 1.354,1.362 z"
       id="path90"
       inkscape:connector-curvature="0"
       style="fill:#231f20" />
    <path
       d="m 317.834,126.585 v 0.008 c -0.191,3.615 -0.51,6.323 -0.94,7.621 l -0.358,1.067 c -2.023,6.092 -3.767,11.356 -12.423,14.51 -3.002,1.091 -10.185,3.13 -18.499,5.487 -14.868,4.229 -35.239,10.018 -41.689,13.299 -10.289,5.248 -34.371,15.29 -41.028,17.496 l -6.769,2.238 c -0.406,0.159 -11.611,4.356 -28.104,4.356 -16.485,0 -27.825,-4.197 -28.303,-4.38 l -6.705,-2.214 c -6.658,-2.206 -30.747,-12.248 -41.036,-17.496 -6.451,-3.281 -26.813,-9.07 -41.689,-13.299 -8.314,-2.357 -15.489,-4.396 -18.491,-5.487 -8.656,-3.154 -10.408,-8.418 -12.431,-14.51 l -0.35,-1.067 c -0.645,-1.935 -1.035,-6.992 -1.123,-13.522 0,-0.255 -0.008,-0.502 -0.008,-0.757 -0.151,-15.569 1.346,-38.831 4.929,-48.212 8.171,-21.326 22.704,-22.569 41.108,-24.146 2.732,-0.231 5.559,-0.47 8.489,-0.788 16.564,-1.776 33.702,-3.082 51.27,-3.886 l -0.024,1.569 c -21.956,0.995 -39.276,2.548 -51.078,3.791 -22.76,2.389 -39.316,0.478 -48.275,23.357 -4.969,12.678 -5.973,53.587 -3.783,59.958 2.19,6.371 3.408,11.253 11.81,14.239 8.394,2.986 50.203,13.379 60.356,18.436 10.154,5.057 34.044,14.812 40.813,17.002 l 6.769,2.19 c 0,0 11.364,4.181 27.753,4.181 16.389,0 27.61,-4.181 27.61,-4.181 l 6.769,-2.19 c 6.769,-2.19 30.66,-11.945 40.813,-17.002 10.154,-5.057 51.962,-15.449 60.364,-18.436 8.394,-2.986 9.62,-7.868 11.802,-14.239 2.198,-6.371 1.187,-47.28 -3.775,-59.958 -8.967,-22.879 -25.523,-20.968 -48.283,-23.357 -1.521,-0.159 -3.13,-0.327 -4.834,-0.494 -0.366,-0.032 -0.741,-0.072 -1.115,-0.111 -1.593,-0.151 -3.265,-0.311 -5.017,-0.47 -0.741,-0.072 -1.489,-0.135 -2.254,-0.199 a 181.46,181.46 0 0 0 -2.325,-0.207 c -0.788,-0.072 -1.593,-0.135 -2.413,-0.199 a 755.917,755.917 0 0 0 -10.4,-0.796 465.717,465.717 0 0 0 -5.646,-0.382 664.142,664.142 0 0 0 -8.242,-0.486 c -0.772,-0.048 -1.553,-0.088 -2.341,-0.127 -0.526,-0.032 -1.051,-0.056 -1.585,-0.08 -0.98,-0.056 -1.975,-0.104 -2.978,-0.151 l -2.047,-0.096 0.056,-1.561 c 17.576,0.804 34.721,2.102 51.309,3.886 2.931,0.319 5.758,0.557 8.489,0.788 18.404,1.577 32.938,2.819 41.108,24.146 4.155,10.855 5.501,40.256 4.744,54.861 z"
       id="path92"
       inkscape:connector-curvature="0"
       style="fill:#17171b" />
    <path
       d="M 311.607,71.621 C 302.64,48.742 286.084,50.653 263.324,48.264 c -1.521,-0.159 -3.13,-0.327 -4.834,-0.494 -0.366,-0.032 -0.733,-0.072 -1.115,-0.111 -1.593,-0.151 -3.265,-0.311 -5.017,-0.47 -0.733,-0.064 -1.489,-0.135 -2.254,-0.199 -0.765,-0.072 -1.537,-0.135 -2.325,-0.207 -0.796,-0.064 -1.601,-0.135 -2.413,-0.199 a 755.917,755.917 0 0 0 -10.4,-0.796 c -1.832,-0.127 -3.719,-0.255 -5.646,-0.382 -0.661,-0.04 -1.33,-0.08 -2.007,-0.127 a 35.772,35.772 0 0 1 -0.924,-0.056 c -1.051,-0.064 -2.118,-0.127 -3.193,-0.191 -0.382,-0.024 -0.772,-0.04 -1.163,-0.064 l -0.956,-0.048 c -0.772,-0.048 -1.553,-0.088 -2.341,-0.127 -0.526,-0.032 -1.051,-0.056 -1.585,-0.08 -0.98,-0.056 -1.975,-0.104 -2.978,-0.151 l -2.047,-0.096 a 984.444,984.444 0 0 0 -44.142,-0.98 c -16.302,0 -31.13,0.39 -44.294,0.987 h -0.032 c -21.956,0.995 -39.276,2.548 -51.078,3.791 -22.76,2.389 -39.316,0.478 -48.275,23.357 -4.969,12.678 -5.973,53.587 -3.783,59.958 2.19,6.371 3.408,11.253 11.81,14.239 8.394,2.986 50.203,13.379 60.356,18.436 10.154,5.057 34.044,14.812 40.813,17.002 l 6.769,2.19 c 0,0 11.364,4.181 27.753,4.181 16.389,0 27.61,-4.181 27.61,-4.181 l 6.769,-2.19 c 6.769,-2.19 30.66,-11.945 40.813,-17.002 10.154,-5.057 51.962,-15.449 60.364,-18.436 8.394,-2.986 9.62,-7.868 11.802,-14.239 2.198,-6.371 1.187,-47.28 -3.774,-59.958 z M 29.082,100.935 a 1.83,1.83 0 0 1 -1.824,1.832 H 22.95 a 1.838,1.838 0 0 1 -1.832,-1.832 v -0.223 c 0,-1.011 0.828,-1.832 1.832,-1.832 h 4.308 a 1.83,1.83 0 0 1 1.824,1.832 z m 0.836,-9.039 a 1.836,1.836 0 0 1 -1.832,1.824 h -4.308 a 1.829,1.829 0 0 1 -1.824,-1.824 v -0.231 c 0,-1.003 0.82,-1.824 1.824,-1.824 h 4.308 c 1.003,0 1.832,0.82 1.832,1.824 z m 0.598,-9.023 a 1.836,1.836 0 0 1 -1.832,1.824 h -4.308 a 1.829,1.829 0 0 1 -1.824,-1.824 v -0.231 c 0,-1.003 0.82,-1.824 1.824,-1.824 h 4.308 c 1.003,0 1.832,0.82 1.832,1.824 z m 261.811,37.326 c -14.613,12.383 -34.076,29.378 -61.184,41.084 -0.008,0.008 -0.016,0.016 -0.024,0.016 -0.024,0.008 -0.064,0.024 -0.127,0.048 a 147.717,147.717 0 0 1 -5.829,2.389 c -30.262,11.683 -43.911,15.131 -57.394,15.131 -9.27,0 -18.619,-1.633 -33.383,-6.443 C 134.378,172.416 105.94,161.96 103.79,161.02 76.992,149.329 57.713,132.486 43.211,120.199 27.555,106.932 25.428,62.598 55.156,56.761 c 29.736,-5.845 112.613,-6.904 112.613,-6.904 0,0 82.877,1.059 112.613,6.904 29.727,5.837 27.601,50.17 11.945,63.438 z m 13.156,-37.326 v -0.231 c 0,-1.003 0.82,-1.824 1.824,-1.824 h 4.308 a 1.83,1.83 0 0 1 1.832,1.824 v 0.231 a 1.83,1.83 0 0 1 -1.832,1.824 h -4.308 a 1.828,1.828 0 0 1 -1.824,-1.824 z m 0.597,9.023 v -0.231 c 0,-1.003 0.82,-1.824 1.824,-1.824 h 4.308 a 1.83,1.83 0 0 1 1.832,1.824 v 0.231 a 1.83,1.83 0 0 1 -1.832,1.824 h -4.308 a 1.829,1.829 0 0 1 -1.824,-1.824 z m 8.792,9.039 a 1.83,1.83 0 0 1 -1.824,1.832 h -4.316 a 1.83,1.83 0 0 1 -1.824,-1.832 v -0.223 a 1.83,1.83 0 0 1 1.824,-1.832 h 4.316 a 1.83,1.83 0 0 1 1.824,1.832 z"
       id="path94"
       inkscape:connector-curvature="0"
       style="fill:#282827" />
    <path
       d="m 231.142,161.283 c -0.008,0.008 -0.016,0.016 -0.024,0.016 -0.024,0.008 -0.064,0.024 -0.127,0.048 a 147.717,147.717 0 0 1 -5.829,2.389 c -30.262,11.683 -43.911,15.131 -57.394,15.131 -9.27,0 -18.619,-1.633 -33.383,-6.443 -0.008,-0.008 -28.446,-10.464 -30.596,-11.404 0.526,-1.378 1.983,-4.953 4.476,-8.999 0.008,-0.008 0.008,-0.024 0.016,-0.032 3.01,-4.882 7.526,-10.432 13.705,-13.602 a 30,30 0 0 1 1.115,-0.534 c 12.081,-5.439 31.719,-5.041 44.923,-5.041 13.204,0 32.587,-0.398 44.668,5.041 0.374,0.167 0.749,0.35 1.115,0.534 8.25,4.253 13.132,12.885 15.585,18.42 a 55.818,55.818 0 0 1 1.75,4.476 z"
       id="path96"
       inkscape:connector-curvature="0"
       style="fill:#ffffff" />
    <path
       d="m 167.768,177.274 c -9.486,0 -19.015,-1.844 -32.89,-6.364 l 0.051,0.031 c -0.317,-0.131 -0.854,-0.329 -1.834,-0.691 -14.661,-5.405 -23.787,-8.797 -27.231,-10.121 a 54.675,54.675 0 0 1 3.659,-7.116 l 0.135,-0.135 0.066,-0.198 c 2.608,-4.196 6.955,-9.783 12.988,-12.877 0.331,-0.165 0.684,-0.338 1.038,-0.496 10.903,-4.909 29.134,-4.909 38.928,-4.909 l 5.345,0.007 5.333,-0.007 c 13.442,0 28.624,0.379 38.681,4.907 0.359,0.16 0.712,0.334 1.058,0.507 7.52,3.875 12.222,11.732 14.84,17.64 a 53.269,53.269 0 0 1 1.204,2.956 c -1.491,0.633 -3.016,1.25 -4.55,1.841 -29.461,11.374 -43.268,15.025 -56.821,15.025 z"
       id="path98"
       inkscape:connector-curvature="0"
       style="fill:#2f3134" />
    <path
       d="m 280.381,56.761 c -29.736,-5.845 -112.613,-6.904 -112.613,-6.904 0,0 -82.877,1.059 -112.613,6.904 -29.728,5.837 -27.602,50.171 -11.945,63.438 14.502,12.288 33.782,29.131 60.579,40.821 0.526,-1.378 1.983,-4.953 4.476,-8.999 0.008,-0.008 0.008,-0.024 0.016,-0.032 3.01,-4.882 7.526,-10.432 13.705,-13.602 a 30,30 0 0 1 1.115,-0.534 c 12.081,-5.439 31.719,-5.041 44.923,-5.041 13.204,0 32.587,-0.398 44.668,5.041 0.374,0.167 0.749,0.35 1.115,0.534 8.25,4.253 13.132,12.885 15.585,18.42 a 55.512,55.512 0 0 1 1.752,4.476 c 27.108,-11.706 46.571,-28.701 61.184,-41.084 15.655,-13.268 17.781,-57.601 -11.947,-63.438 z m 5.041,40.28 c 0,0 -1.394,20.108 -18.316,23.094 -16.923,2.986 -45.377,3.584 -99.338,3.584 -53.961,0 -82.415,-0.597 -99.338,-3.584 C 51.507,117.149 50.114,97.041 50.114,97.041 v -5.264 c 0,-5.256 4.579,-19.224 18.914,-24.799 14.334,-5.575 82.033,-7.167 98.741,-7.167 16.708,0 84.406,1.593 98.741,7.167 14.334,5.575 18.914,19.543 18.914,24.799 z"
       id="path100"
       inkscape:connector-curvature="0"
       style="fill:#171819" />
    <path
       d="m 266.509,66.978 c -14.334,-5.575 -82.033,-7.167 -98.741,-7.167 -16.708,0 -84.406,1.593 -98.741,7.167 -14.334,5.575 -18.914,19.543 -18.914,24.799 v 5.264 c 0,0 1.394,20.108 18.316,23.094 16.923,2.986 45.377,3.584 99.338,3.584 53.961,0 82.415,-0.597 99.338,-3.584 16.923,-2.986 18.316,-23.094 18.316,-23.094 v -5.264 c 0.001,-5.256 -4.578,-19.225 -18.912,-24.799 z m 4.38,34.012 c -0.693,6.005 -3.783,12.575 -9.556,12.877 -5.774,0.295 -29.067,1.386 -33.646,1.29 -4.579,-0.096 -42.972,0.796 -59.663,0.494 -16.684,0.303 -55.084,-0.597 -59.663,-0.494 -4.579,0.096 -27.873,-0.995 -33.646,-1.298 -5.774,-0.295 -8.856,-6.865 -9.556,-12.869 -0.693,-6.005 -0.796,-6.737 0,-14.669 0.796,-7.932 5.774,-11.38 8.76,-12.575 2.986,-1.195 16.923,-2.389 36.832,-3.783 19.909,-1.394 31.623,-2.126 57.274,-2.126 25.651,0 37.365,0.733 57.274,2.126 19.909,1.393 33.845,2.588 36.832,3.783 2.986,1.195 7.964,4.643 8.76,12.575 0.796,7.932 0.691,8.665 -0.002,14.669 z"
       id="path102"
       inkscape:connector-curvature="0"
       style="fill:#282827" />
    <path
       d="m 270.889,86.322 c -0.796,-7.932 -5.774,-11.38 -8.76,-12.575 -2.986,-1.195 -16.923,-2.389 -36.832,-3.783 -19.909,-1.394 -31.623,-2.126 -57.274,-2.126 -25.651,0 -37.365,0.733 -57.274,2.126 -19.909,1.393 -33.845,2.588 -36.832,3.783 -2.986,1.195 -7.964,4.643 -8.76,12.575 -0.796,7.932 -0.693,8.664 0,14.669 0.701,6.005 3.783,12.575 9.556,12.869 5.774,0.303 29.067,1.394 33.646,1.298 4.579,-0.104 42.98,0.796 59.663,0.494 16.692,0.303 55.084,-0.589 59.663,-0.494 4.579,0.096 27.873,-0.995 33.646,-1.29 5.774,-0.303 8.863,-6.873 9.556,-12.877 0.695,-6.005 0.798,-6.738 0.002,-14.669 z m -13.276,15.234 h -3.783 v 6.172 h -9.755 v -1.465 h -7.693 v 1.465 h -136.36 v -1.593 H 92.21 v 1.593 H 81.952 v -6.737 h -4.03 V 86.322 h 4.03 V 79.585 H 92.21 v 1.593 h 7.812 v -1.593 h 136.361 v 1.465 h 7.693 v -1.465 h 9.755 v 6.172 h 3.783 v 15.799 z"
       id="path104"
       inkscape:connector-curvature="0"
       style="fill:#1d1d1d" />
    <path
       d="m 257.613,94.253 v 7.303 h -3.782 v 6.172 h -9.756 v -1.466 h -7.692 v 1.466 H 100.022 v -1.593 H 92.21 v 1.593 H 81.952 v -6.738 h -4.029 v -6.737 z"
       id="path106"
       inkscape:connector-curvature="0"
       style="fill:#191818" />
    <path
       d="m 77.923,93.059 h 179.691 v 1.195 H 77.923 Z"
       id="path108"
       inkscape:connector-curvature="0" />
    <path
       d="m 257.613,85.756 v 7.303 H 77.923 v -6.737 h 4.029 V 79.584 H 92.21 v 1.593 h 7.812 v -1.593 h 136.361 v 1.466 h 7.692 v -1.466 h 9.756 v 6.172 z"
       id="path110"
       inkscape:connector-curvature="0"
       style="fill:#191818" />
    <path
       d="m 224.501,82.762 v 1.736 c 0,0 -0.661,7.526 -2.652,8.64 l -106.736,-0.08 h -0.096 c -1.895,-1.338 -2.54,-8.561 -2.54,-8.561 v -1.736 h 112.024 z"
       id="path112"
       inkscape:connector-curvature="0"
       style="fill:#505052" />
    <path
       d="m 224.501,84.498 v 8.64 h -2.652 c 1.991,-1.115 2.652,-8.64 2.652,-8.64 z m -109.484,8.561 h -2.54 v -8.561 c 0,0 0.645,7.223 2.54,8.561 z"
       id="path114"
       inkscape:connector-curvature="0"
       style="fill:#323333" />
    <path
       d="m 224.501,104.486 v -1.736 c 0,0 -0.661,-7.526 -2.652,-8.64 l -106.736,0.08 h -0.096 c -1.895,1.338 -2.54,8.561 -2.54,8.561 v 1.736 h 112.024 z"
       id="path116"
       inkscape:connector-curvature="0"
       style="fill:#505052" />
    <path
       d="m 224.501,102.75 v -8.64 h -2.652 c 1.991,1.115 2.652,8.64 2.652,8.64 z M 115.017,94.19 h -2.54 v 8.561 c 0,-0.001 0.645,-7.224 2.54,-8.561 z"
       id="path118"
       inkscape:connector-curvature="0"
       style="fill:#323333" />
    <g
       id="g122"
       style="fill:#ffffff">
      <path
         d="m 140.198,142.694 v -0.772 h 7.203 c 0.343,0 0.514,0.257 0.514,0.772 z m 0,2.315 v -2.058 h 1.286 v 2.058 z m 3.086,0 v -2.058 h 1.286 v 2.058 z m 3.345,0 v -2.058 h 1.286 v 2.058 z m 2.057,-2.315 v -0.772 h 4.887 v 0.772 z m 0,1.544 v -1.286 h 1.286 c 0,0.172 0.086,0.257 0.257,0.257 h 3.087 v 0.772 h -3.344 c 0,0.172 0.086,0.257 0.257,0.257 h 3.344 v 0.772 H 149.2 c -0.342,-0.001 -0.514,-0.258 -0.514,-0.772 z m 5.659,-1.544 c 0,-0.514 0.171,-0.772 0.514,-0.772 h 4.887 v 0.772 z m 0,1.544 v -1.286 h 1.286 v 1.286 h 2.572 c 0.171,0 0.257,-0.043 0.257,-0.129 0,-0.086 -0.086,-0.129 -0.257,-0.129 h -1.286 v -0.772 h 2.315 c 0.514,0 0.772,0.257 0.772,0.772 v 0.257 c 0,0.514 -0.171,0.772 -0.514,0.772 h -4.63 c -0.343,0 -0.515,-0.257 -0.515,-0.771 z m 6.431,-1.544 c 0,-0.514 0.171,-0.772 0.514,-0.772 h 4.373 c 0.343,0 0.514,0.257 0.514,0.772 z m 0,2.315 v -2.058 h 1.286 v 2.058 z m 4.116,0 v -0.514 h -2.572 v -0.772 h 2.572 v -0.772 h 1.286 v 2.058 z m 2.058,-2.315 v -0.772 h 4.887 c 0.343,0 0.514,0.257 0.514,0.772 z m 0,2.315 v -2.058 h 1.286 v 2.058 z m 4.887,0 h -3.344 v -0.772 h 2.572 v -1.286 h 1.286 v 1.286 c 0.001,0.515 -0.171,0.772 -0.514,0.772 z m 1.286,-2.315 c 0,-0.514 0.171,-0.772 0.514,-0.772 h 4.373 c 0.343,0 0.514,0.257 0.514,0.772 z m 0,2.315 v -2.058 h 1.286 v 2.058 z m 1.544,-0.514 v -0.772 h 2.315 c 0.171,0 0.257,-0.085 0.257,-0.257 v -0.514 h 1.286 v 0.772 c 0,0.514 -0.171,0.772 -0.514,0.772 l 0.772,0.514 h -1.286 l -0.772,-0.514 h -2.058 z m 4.887,0.514 v -3.087 h 1.286 v 3.087 z m 2.83,-2.315 -0.514,-0.772 h 1.543 l 0.514,0.772 z m 1.543,2.315 -1.286,-2.058 h 1.543 l 0.772,1.235 0.772,-1.235 h 1.543 l -1.286,2.058 z m 2.021,-2.315 0.514,-0.772 h 1.543 l -0.514,0.772 z m 2.83,0 v -0.772 h 4.887 v 0.772 z m 0,1.544 v -1.286 h 1.286 c 0,0.172 0.086,0.257 0.257,0.257 h 3.087 v 0.772 h -3.344 c 0,0.172 0.086,0.257 0.257,0.257 h 3.344 v 0.772 h -4.373 c -0.343,-0.001 -0.514,-0.258 -0.514,-0.772 z m -48.58,4.16 v -2.508 h 13.152 c 1.515,0 2.273,0.836 2.273,2.508 z m 0,7.524 v -2.508 h 10.554 c 0.541,0 0.812,-0.14 0.812,-0.418 0,-0.278 -0.271,-0.418 -0.812,-0.418 h -7.307 v -2.508 h 7.144 c 0.649,0 0.974,-0.278 0.974,-0.836 h 4.059 v 4.18 c 0,1.672 -0.758,2.508 -2.273,2.508 z m 17.049,-7.524 v -2.508 h 12.99 c 1.624,0 2.436,0.836 2.436,2.508 z m 0,4.18 c 0,-1.672 0.812,-2.508 2.436,-2.508 h 8.119 c 0.541,0 0.812,-0.278 0.812,-0.836 h 4.059 v 0.836 c 0,1.672 -0.812,2.508 -2.436,2.508 h -8.931 c -0.541,0 -0.812,0.278 -0.812,0.836 h 12.178 v 2.508 h -15.426 v -3.344 z m 20.668,-4.18 -3.619,-2.508 h 4.871 l 3.607,2.508 z m 10.833,7.524 -4.767,-3.308 -4.767,3.308 h -4.871 l 7.202,-5.004 -2.424,-1.684 h 9.719 l -2.424,1.684 7.202,5.004 z m 0.046,-10.032 h 4.871 l -3.619,2.508 h -4.86 z"
         id="path120"
         inkscape:connector-curvature="0" />
    </g>
    <g
       id="g126"
       style="fill:#ffffff">
      <path
         d="m 152.728,168.268 c 0,-0.789 0.282,-1.466 0.844,-2.032 0.563,-0.566 1.191,-0.849 1.886,-0.849 h 3.943 v 1.213 h -3.64 c -0.56,0 -1.002,0.165 -1.329,0.495 -0.327,0.331 -0.49,0.721 -0.49,1.173 0,0.458 0.163,0.851 0.49,1.178 0.327,0.327 0.77,0.49 1.329,0.49 h 0.607 c 0.479,0 0.851,0.133 1.117,0.4 0.266,0.266 0.399,0.588 0.399,0.965 0,0.371 -0.133,0.691 -0.399,0.96 -0.266,0.27 -0.638,0.404 -1.117,0.404 h -3.64 v -1.213 h 3.64 c 0.202,0 0.303,-0.051 0.303,-0.152 0,-0.101 -0.101,-0.152 -0.303,-0.152 h -0.91 c -0.694,0 -1.323,-0.282 -1.886,-0.845 a 2.769,2.769 0 0 1 -0.844,-2.035 z m 1.517,0 c 0,-0.371 0.133,-0.691 0.399,-0.96 0.266,-0.27 0.638,-0.404 1.117,-0.404 h 3.64 v 1.213 h -3.64 c -0.202,0 -0.303,0.051 -0.303,0.152 0,0.101 0.101,0.152 0.303,0.152 h 0.91 c 0.694,0 1.323,0.282 1.886,0.845 0.563,0.562 0.844,1.241 0.844,2.037 0,0.789 -0.282,1.466 -0.844,2.032 -0.562,0.566 -1.191,0.849 -1.886,0.849 h -3.943 v -1.213 h 3.64 c 0.56,0 1.002,-0.165 1.329,-0.495 0.327,-0.331 0.49,-0.721 0.49,-1.173 0,-0.458 -0.163,-0.851 -0.49,-1.178 -0.327,-0.327 -0.77,-0.49 -1.329,-0.49 h -0.607 c -0.479,0 -0.851,-0.133 -1.117,-0.4 a 1.323,1.323 0 0 1 -0.399,-0.967 z m 5.762,-0.152 c 0,-1.82 0.91,-2.73 2.73,-2.73 h 3.64 v 1.213 h -3.64 c -1.011,0 -1.517,0.505 -1.517,1.516 v 3.336 c 0,1.011 0.506,1.517 1.517,1.517 h 3.64 v 1.213 h -3.64 c -1.82,0 -2.73,-0.91 -2.73,-2.73 z m 1.517,1.517 v -1.517 c 0,-0.809 0.404,-1.213 1.213,-1.213 h 3.64 v 1.213 h -3.336 c -0.202,0 -0.303,0.101 -0.303,0.303 h 2.73 v 1.213 h -3.944 z m 0,0.303 h 3.943 v 1.213 h -2.73 c 0,0.202 0.101,0.303 0.303,0.303 h 3.336 v 1.213 h -3.64 c -0.809,0 -1.213,-0.404 -1.213,-1.213 v -1.516 z m 5.459,-1.82 c 0,-1.82 0.91,-2.73 2.73,-2.73 h 3.64 v 1.213 h -3.64 c -1.011,0 -1.516,0.505 -1.516,1.516 v 3.336 c 0,1.011 0.505,1.517 1.516,1.517 h 2.426 v -3.336 h -2.123 v -1.213 h 3.336 v 5.763 h -3.64 c -1.82,0 -2.73,-0.91 -2.73,-2.73 v -3.336 z m 1.517,0 c 0,-0.809 0.404,-1.213 1.213,-1.213 h 3.64 v 1.213 h -3.336 c -0.202,0 -0.303,0.101 -0.303,0.303 v 2.73 c 0,0.202 0.101,0.303 0.303,0.303 h 0.607 v -0.303 h -0.607 v -1.213 h 1.82 v 2.73 h -2.123 c -0.809,0 -1.213,-0.404 -1.213,-1.213 v -3.337 z m 9.048,4.853 h 3.589 l -2.426,-6.167 c -0.067,-0.135 -0.202,-0.202 -0.404,-0.202 a 0.482,0.482 0 0 0 -0.404,0.202 l -2.73,7.38 h -1.213 l 2.831,-7.785 c 0.337,-0.674 0.843,-1.011 1.517,-1.011 0.775,0 1.28,0.337 1.517,1.011 l 2.932,7.785 h -5.207 v -1.213 z m 0,-0.303 v -0.657 l -0.859,2.174 h -1.213 l 2.629,-7.077 c 0.034,-0.135 0.101,-0.202 0.202,-0.202 0.101,0 0.168,0.068 0.202,0.202 l 2.123,5.561 h -3.084 z m 0.758,-2.629 -0.556,1.415 h 1.112 z"
         id="path124"
         inkscape:connector-curvature="0" />
    </g>
    <path
       d="m 146.394,174.951 5.508,-10.751 h 29.731 l 5.939,10.751 1.261,-0.398 -6.669,-11.752 h -31.357 l -5.74,11.586 z"
       id="path128"
       inkscape:connector-curvature="0"
       style="fill:#ffffff" />
    <path
       d="m 92.21,79.584 h 7.812 v 1.593 H 92.21 Z m 0,26.551 h 7.812 v 1.593 H 92.21 Z M 236.383,79.584 h 7.693 v 1.465 h -7.693 z m 0,26.678 h 7.693 v 1.465 h -7.693 z"
       id="path130"
       inkscape:connector-curvature="0"
       style="fill:#231f20" />
    <path
       d="m 100.667,91.83 a 0.666,0.666 0 0 1 -0.664,-0.664 V 83.07 c 0,-0.365 0.299,-0.664 0.664,-0.664 0.365,0 0.664,0.299 0.664,0.664 v 8.096 a 0.667,0.667 0 0 1 -0.664,0.664 z m -5.459,0 A 0.666,0.666 0 0 1 94.544,91.166 V 83.07 c 0,-0.365 0.299,-0.664 0.664,-0.664 0.365,0 0.664,0.299 0.664,0.664 v 8.096 a 0.666,0.666 0 0 1 -0.664,0.664 z m 5.459,13.008 a 0.666,0.666 0 0 1 -0.664,-0.664 v -8.096 c 0,-0.365 0.299,-0.664 0.664,-0.664 0.365,0 0.664,0.299 0.664,0.664 v 8.096 a 0.666,0.666 0 0 1 -0.664,0.664 z m -5.459,0 a 0.666,0.666 0 0 1 -0.664,-0.664 v -8.096 c 0,-0.365 0.299,-0.664 0.664,-0.664 0.365,0 0.664,0.299 0.664,0.664 v 8.096 a 0.666,0.666 0 0 1 -0.664,0.664 z M 241.365,91.864 A 0.666,0.666 0 0 1 240.701,91.2 v -8.096 c 0,-0.365 0.299,-0.664 0.664,-0.664 0.365,0 0.664,0.299 0.664,0.664 V 91.2 a 0.666,0.666 0 0 1 -0.664,0.664 z m -5.458,0 A 0.666,0.666 0 0 1 235.243,91.2 v -8.096 c 0,-0.365 0.299,-0.664 0.664,-0.664 0.365,0 0.664,0.299 0.664,0.664 V 91.2 a 0.666,0.666 0 0 1 -0.664,0.664 z m 5.458,13.008 a 0.666,0.666 0 0 1 -0.664,-0.664 v -8.096 c 0,-0.365 0.299,-0.664 0.664,-0.664 0.365,0 0.664,0.299 0.664,0.664 v 8.096 a 0.666,0.666 0 0 1 -0.664,0.664 z m -5.458,0 a 0.666,0.666 0 0 1 -0.664,-0.664 v -8.096 c 0,-0.365 0.299,-0.664 0.664,-0.664 0.365,0 0.664,0.299 0.664,0.664 v 8.096 a 0.666,0.666 0 0 1 -0.664,0.664 z"
       id="path132"
       inkscape:connector-curvature="0"
       style="fill:#505052" />
  </g>
  <g
     id="g154"
     transform="translate(0,1.775127e-4)">
    <path
       d="m 555.253,222.765 v 92.495 l -9.1,-3.736 -3.643,-1.999 c -3.643,-2.005 -2.365,-6.554 -2.365,-6.554 l 0.726,-4.643 c 0,0 9.285,-68.096 10.012,-71.553 0.732,-3.464 4.37,-4.01 4.37,-4.01 z M 399.584,209.296 c 0,0 1.049,0.863 1.185,2.573 l 0.137,1.704 c 0,0 0.273,14.338 1.502,30.178 1.229,15.84 4.233,40.829 4.643,43.97 0.41,3.141 1.639,6.828 5.735,8.193 4.097,1.366 20.21,4.916 33.865,6.281 13.655,1.366 33.455,1.092 43.56,0 10.105,-1.092 22.804,-2.731 32.636,-5.052 9.832,-2.321 10.924,-8.876 10.924,-8.876 0,0 3.96,-27.583 4.916,-40.419 0.956,-12.836 1.846,-32.843 1.846,-32.843 0,0 0.273,-4.184 1.431,-5.708 h -142.38 z m 129.68,72.072 c 0,4.79 -3.883,8.674 -8.668,8.674 H 419.679 c -4.785,0 -8.668,-3.884 -8.668,-8.674 v -56.729 a 3.133,3.133 0 0 1 3.146,-3.135 l 111.836,0.388 a 3.283,3.283 0 0 1 3.272,3.283 v 56.193 z"
       id="path136"
       inkscape:connector-curvature="0"
       style="fill:#282827" />
    <path
       d="m 529.264,225.174 v 56.194 c 0,4.79 -3.883,8.674 -8.668,8.674 H 419.679 c -4.785,0 -8.668,-3.884 -8.668,-8.674 v -56.729 a 3.133,3.133 0 0 1 3.146,-3.135 l 111.836,0.388 a 3.282,3.282 0 0 1 3.271,3.282 z"
       id="path138"
       inkscape:connector-curvature="0"
       style="fill:#2c2c2d" />
    <path
       d="m 540.871,298.327 c 0,0 9.285,-68.096 10.012,-71.553 0.732,-3.463 4.37,-4.009 4.37,-4.009 v -1.18 c 0,-6.789 -5.5,-12.29 -12.29,-12.29 h -1 c -1.158,1.524 -1.431,5.708 -1.431,5.708 0,0 -0.89,20.008 -1.846,32.843 -0.956,12.836 -4.916,40.419 -4.916,40.419 0,0 -1.092,6.554 -10.924,8.876 -9.832,2.322 -22.531,3.96 -32.636,5.052 -10.105,1.092 -29.905,1.366 -43.56,0 -13.655,-1.366 -29.768,-4.916 -33.865,-6.281 -4.097,-1.366 -5.326,-5.052 -5.735,-8.193 -0.41,-3.141 -3.414,-28.13 -4.643,-43.97 -1.229,-15.84 -1.502,-30.178 -1.502,-30.178 l -0.137,-1.704 c -0.137,-1.71 -1.185,-2.573 -1.185,-2.573 h -1 c -6.888,0 -12.47,5.582 -12.47,12.47 v 1 c 0,0 3.638,0.546 4.37,4.009 0.726,3.458 10.012,71.553 10.012,71.553 l 0.726,4.643 c 0,0 1.278,4.55 -2.365,6.554 l -3.643,1.999 -9.1,3.736 v 3.687 a 2.868,2.868 0 0 0 2.868,2.868 H 552.97 a 2.287,2.287 0 0 0 2.283,-2.289 v -4.266 l -9.1,-3.736 -3.643,-1.999 c -3.643,-2.005 -2.365,-6.554 -2.365,-6.554 z M 427.9,317.718 h -1.551 v -7.647 h 1.551 z m 17.615,0 h -1.551 v -7.647 h 1.551 z m 17.019,0 h -1.546 v -7.647 h 1.546 z m 17.119,0 h -1.551 v -7.647 h 1.551 z m 17.385,0 h -1.546 v -7.647 h 1.546 z m 17.113,0 h -1.546 v -7.647 h 1.546 z"
       id="path140"
       inkscape:connector-curvature="0"
       style="fill:#333333" />
    <path
       d="m 512.605,310.071 h 1.546 v 7.647 h -1.546 z m -17.112,0 h 1.546 v 7.647 h -1.546 z m -17.392,0 h 1.551 v 7.647 h -1.551 z m -17.112,0 h 1.546 v 7.647 h -1.546 z m -17.026,0 h 1.551 v 7.647 h -1.551 z m -17.615,0 h 1.551 v 7.647 h -1.551 z"
       id="path142"
       inkscape:connector-curvature="0"
       style="fill:#171819" />
    <path
       d="m 398.858,309.525 -3.643,1.999 -9.1,3.736 v -92.495 c 0,0 3.638,0.546 4.37,4.009 0.726,3.458 10.012,71.553 10.012,71.553 l 0.726,4.643 c 0,0 1.278,4.55 -2.365,6.555 z"
       id="path144"
       inkscape:connector-curvature="0"
       style="fill:#282827" />
    <g
       id="g148"
       style="fill:#ffffff">
      <path
         d="m 437.193,266.56 v -1.034 h 9.651 c 0.46,0 0.689,0.345 0.689,1.034 z m 0,3.103 v -2.758 h 1.723 v 2.758 z m 4.137,0 v -2.758 h 1.723 v 2.758 z m 4.481,0 v -2.758 h 1.723 v 2.758 z m 2.757,-3.103 v -1.034 h 6.549 v 1.034 z m 0,2.068 v -1.723 h 1.723 c 0,0.23 0.115,0.345 0.345,0.345 h 4.136 v 1.034 h -4.481 c 0,0.23 0.115,0.345 0.345,0.345 h 4.481 v 1.034 h -5.86 c -0.459,0 -0.689,-0.345 -0.689,-1.035 z m 7.583,-2.068 c 0,-0.689 0.23,-1.034 0.689,-1.034 h 6.549 v 1.034 z m 0,2.068 v -1.723 h 1.724 v 1.723 h 3.447 c 0.23,0 0.345,-0.058 0.345,-0.172 0,-0.115 -0.115,-0.172 -0.345,-0.172 h -1.723 v -1.034 h 3.102 c 0.689,0 1.034,0.345 1.034,1.034 v 0.345 c 0,0.689 -0.23,1.034 -0.689,1.034 h -6.205 c -0.46,0 -0.69,-0.345 -0.69,-1.035 z m 8.618,-2.068 c 0,-0.689 0.23,-1.034 0.689,-1.034 h 5.86 c 0.46,0 0.689,0.345 0.689,1.034 z m 0,3.103 v -2.758 h 1.723 v 2.758 z m 5.515,0 v -0.689 h -3.447 v -1.034 h 3.447 v -1.034 h 1.723 v 2.758 h -1.723 z m 2.758,-3.103 v -1.034 h 6.549 c 0.46,0 0.689,0.345 0.689,1.034 z m 0,3.103 v -2.758 h 1.723 v 2.758 z m 6.549,0 h -4.481 v -1.034 h 3.447 v -1.723 h 1.723 v 1.723 c 0,0.689 -0.229,1.034 -0.689,1.034 z m 1.723,-3.103 c 0,-0.689 0.23,-1.034 0.689,-1.034 h 5.86 c 0.46,0 0.689,0.345 0.689,1.034 z m 0,3.103 v -2.758 h 1.723 v 2.758 z m 2.069,-0.69 v -1.034 h 3.102 c 0.23,0 0.345,-0.114 0.345,-0.345 v -0.689 h 1.723 v 1.034 c 0,0.689 -0.23,1.034 -0.689,1.034 l 1.034,0.689 h -1.723 l -1.034,-0.689 z m 6.549,0.69 v -4.136 h 1.723 v 4.136 z m 3.791,-3.103 -0.689,-1.034 h 2.068 l 0.689,1.034 z m 2.069,3.103 -1.723,-2.758 h 2.068 l 1.034,1.655 1.034,-1.655 h 2.068 l -1.723,2.758 z m 2.708,-3.103 0.689,-1.034 h 2.068 l -0.689,1.034 z m 3.792,0 v -1.034 h 6.549 v 1.034 z m 0,2.068 v -1.723 h 1.723 c 0,0.23 0.115,0.345 0.345,0.345 h 4.136 v 1.034 h -4.481 c 0,0.23 0.115,0.345 0.345,0.345 h 4.481 v 1.034 h -5.86 c -0.46,0 -0.689,-0.345 -0.689,-1.035 z m -65.099,5.575 v -3.361 h 17.624 c 2.031,0 3.046,1.12 3.046,3.361 z m 0,10.082 v -3.361 h 14.143 c 0.725,0 1.088,-0.187 1.088,-0.56 0,-0.373 -0.363,-0.56 -1.088,-0.56 h -9.791 v -3.361 h 9.574 c 0.87,0 1.305,-0.373 1.305,-1.12 h 5.44 v 5.601 c 0,2.241 -1.016,3.361 -3.046,3.361 z m 22.847,-10.082 v -3.361 h 17.407 c 2.176,0 3.264,1.12 3.264,3.361 z m 0,5.601 c 0,-2.241 1.088,-3.361 3.264,-3.361 h 10.879 c 0.725,0 1.088,-0.373 1.088,-1.12 h 5.44 v 1.12 c 0,2.241 -1.088,3.361 -3.264,3.361 H 465.48 c -0.725,0 -1.088,0.373 -1.088,1.12 h 16.319 v 3.361 H 460.04 Z m 27.695,-5.601 -4.849,-3.361 h 6.528 l 4.833,3.361 z m 14.516,10.082 -6.388,-4.433 -6.388,4.433 h -6.528 l 9.651,-6.706 -3.248,-2.257 h 13.024 l -3.248,2.257 9.651,6.706 z m 0.062,-13.443 h 6.528 l -4.849,3.361 h -6.512 z"
         id="path146"
         inkscape:connector-curvature="0" />
    </g>
    <g
       id="g152"
       style="fill:#ffffff">
      <path
         d="m 432.056,285.33 a 1.909,1.909 0 0 1 -1.394,-0.579 c -0.388,-0.386 -0.582,-0.817 -0.582,-1.293 v -2.704 h 0.832 v 2.496 c 0,0.384 0.113,0.688 0.34,0.912 0.227,0.224 0.494,0.336 0.804,0.336 0.314,0 0.584,-0.112 0.808,-0.336 0.224,-0.224 0.336,-0.528 0.336,-0.912 v -0.416 c 0,-0.328 0.091,-0.584 0.274,-0.766 a 0.9,0.9 0 0 1 0.662,-0.274 c 0.254,0 0.474,0.091 0.659,0.274 0.185,0.183 0.277,0.438 0.277,0.766 v 2.496 h -0.832 v -2.496 c 0,-0.139 -0.035,-0.208 -0.104,-0.208 -0.069,0 -0.104,0.069 -0.104,0.208 v 0.624 c 0,0.476 -0.193,0.907 -0.579,1.293 a 1.901,1.901 0 0 1 -1.397,0.579 z m 0,-1.04 a 0.905,0.905 0 0 1 -0.659,-0.274 c -0.185,-0.183 -0.277,-0.438 -0.277,-0.766 v -2.496 h 0.832 v 2.496 c 0,0.139 0.035,0.208 0.104,0.208 0.069,0 0.104,-0.069 0.104,-0.208 v -0.624 c 0,-0.476 0.193,-0.907 0.579,-1.293 a 1.903,1.903 0 0 1 1.397,-0.579 c 0.541,0 1.005,0.193 1.394,0.579 0.388,0.386 0.582,0.817 0.582,1.293 v 2.704 h -0.832 v -2.496 c 0,-0.384 -0.113,-0.688 -0.34,-0.912 a 1.105,1.105 0 0 0 -0.804,-0.336 c -0.314,0 -0.584,0.112 -0.808,0.336 -0.224,0.224 -0.336,0.528 -0.336,0.912 v 0.416 c 0,0.328 -0.091,0.584 -0.274,0.766 a 0.9,0.9 0 0 1 -0.662,0.274 z m -0.104,-3.952 c -1.248,0 -1.872,-0.624 -1.872,-1.872 v -2.496 h 0.832 v 2.496 c 0,0.693 0.347,1.04 1.04,1.04 h 2.288 c 0.693,0 1.04,-0.347 1.04,-1.04 v -2.496 h 0.832 v 2.496 c 0,1.248 -0.624,1.872 -1.872,1.872 z m 1.04,-1.041 h -1.04 c -0.555,0 -0.832,-0.277 -0.832,-0.832 v -2.496 h 0.832 v 2.288 c 0,0.139 0.069,0.208 0.208,0.208 v -1.872 h 0.832 z m 0.208,0 v -2.704 h 0.832 v 1.872 c 0.139,0 0.208,-0.069 0.208,-0.208 v -2.288 h 0.832 v 2.496 c 0,0.555 -0.277,0.832 -0.832,0.832 z m -1.248,-3.744 c -1.248,0 -1.872,-0.624 -1.872,-1.872 v -2.496 h 0.832 v 2.496 c 0,0.693 0.347,1.04 1.04,1.04 h 2.288 c 0.693,0 1.04,-0.347 1.04,-1.04 v -1.664 h -2.288 v 1.456 h -0.832 v -2.288 h 3.953 v 2.496 c 0,1.248 -0.624,1.872 -1.872,1.872 z m 0,-1.04 c -0.555,0 -0.832,-0.277 -0.832,-0.832 v -2.496 h 0.832 v 2.288 c 0,0.139 0.069,0.208 0.208,0.208 h 1.872 c 0.139,0 0.208,-0.069 0.208,-0.208 v -0.416 h -0.208 v 0.416 H 433.2 v -1.248 h 1.872 v 1.456 c 0,0.555 -0.277,0.832 -0.832,0.832 z m 3.329,-6.206 v -2.462 l -4.23,1.664 c -0.092,0.046 -0.139,0.139 -0.139,0.277 0,0.115 0.046,0.208 0.139,0.277 l 5.062,1.872 v 0.832 l -5.339,-1.942 c -0.462,-0.231 -0.693,-0.578 -0.693,-1.04 0,-0.532 0.231,-0.878 0.693,-1.04 l 5.339,-2.011 v 3.571 h -0.832 z m -0.208,0 h -0.451 l 1.491,0.589 v 0.832 l -4.854,-1.803 c -0.092,-0.023 -0.139,-0.069 -0.139,-0.139 0,-0.07 0.046,-0.115 0.139,-0.139 l 3.814,-1.456 z m -1.803,-0.52 0.971,0.381 v -0.763 z"
         id="path150"
         inkscape:connector-curvature="0" />
    </g>
  </g>
</svg>
