<?xml version="1.0" encoding="UTF-8" standalone="no"?>
<svg
   xmlns:dc="http://purl.org/dc/elements/1.1/"
   xmlns:cc="http://creativecommons.org/ns#"
   xmlns:rdf="http://www.w3.org/1999/02/22-rdf-syntax-ns#"
   xmlns:svg="http://www.w3.org/2000/svg"
   xmlns="http://www.w3.org/2000/svg"
   xmlns:sodipodi="http://sodipodi.sourceforge.net/DTD/sodipodi-0.dtd"
   xmlns:inkscape="http://www.inkscape.org/namespaces/inkscape"
   viewBox="0 0 219.979 146.342"
   version="1.1"
   id="svg20"
   sodipodi:docname="game.svg"
   width="219.979"
   height="146.342"
   inkscape:version="0.92.4 5da689c313, 2019-01-14">
  <metadata
     id="metadata26">
    <rdf:RDF>
      <cc:Work
         rdf:about="">
        <dc:format>image/svg+xml</dc:format>
        <dc:type
           rdf:resource="http://purl.org/dc/dcmitype/StillImage" />
      </cc:Work>
    </rdf:RDF>
  </metadata>
  <defs
     id="defs24" />
  <sodipodi:namedview
     pagecolor="#ffffff"
     bordercolor="#666666"
     borderopacity="1"
     objecttolerance="10"
     gridtolerance="10"
     guidetolerance="10"
     inkscape:pageopacity="0"
     inkscape:pageshadow="2"
     inkscape:window-width="640"
     inkscape:window-height="480"
     id="namedview22"
     showgrid="false"
     inkscape:zoom="1.2319358"
     inkscape:cx="109.9895"
     inkscape:cy="73.170002"
     inkscape:window-x="0"
     inkscape:window-y="0"
     inkscape:window-maximized="0"
     inkscape:current-layer="svg20" />
  <path
     d="m 219.979,17.52 v 120.297 l -11.835,-4.859 -4.738,-2.6 c -4.738,-2.607 -3.076,-8.525 -3.076,-8.525 l 0.945,-6.038 c 0,0 12.077,-88.564 13.021,-93.061 0.952,-4.503 5.683,-5.214 5.683,-5.214 z M 17.518,0.002 c 0,0 1.364,1.122 1.542,3.346 l 0.178,2.216 c 0,0 0.355,18.648 1.954,39.249 1.599,20.601 5.506,53.102 6.038,57.186 0.532,4.084 2.131,8.88 7.459,10.656 5.328,1.776 26.284,6.393 44.044,8.169 17.76,1.776 43.511,1.421 56.653,0 13.142,-1.421 29.659,-3.552 42.446,-6.571 12.787,-3.019 14.208,-11.544 14.208,-11.544 0,0 5.15,-35.875 6.393,-52.569 1.243,-16.694 2.401,-42.716 2.401,-42.716 0,0 0.355,-5.442 1.861,-7.424 H 17.518 Z m 168.66,93.736 c 0,6.23 -5.051,11.281 -11.274,11.281 H 43.653 c -6.223,0 -11.274,-5.051 -11.274,-11.281 V 19.957 a 4.077,4.077 0 0 1 4.092,-4.078 l 145.452,0.504 a 4.27,4.27 0 0 1 4.255,4.269 z"
     id="path2"
     inkscape:connector-curvature="0"
     style="fill:#282827" />
  <path
     d="m 186.178,20.653 v 73.085 c 0,6.23 -5.051,11.281 -11.274,11.281 H 43.653 c -6.223,0 -11.274,-5.051 -11.274,-11.281 V 19.957 a 4.077,4.077 0 0 1 4.092,-4.078 l 145.452,0.504 a 4.271,4.271 0 0 1 4.255,4.27 z"
     id="path4"
     inkscape:connector-curvature="0"
     style="fill:#2c2c2d" />
  <path
     d="m 201.274,115.795 c 0,0 12.077,-88.564 13.021,-93.061 0.952,-4.504 5.683,-5.214 5.683,-5.214 v -1.534 c 0,-8.83 -7.154,-15.984 -15.984,-15.984 h -1.3 c -1.506,1.982 -1.861,7.424 -1.861,7.424 0,0 -1.158,26.022 -2.401,42.716 -1.243,16.694 -6.393,52.569 -6.393,52.569 0,0 -1.421,8.525 -14.208,11.544 -12.787,3.019 -29.304,5.15 -42.446,6.571 -13.142,1.421 -38.894,1.776 -56.653,0 C 60.973,119.05 40.016,114.433 34.688,112.657 29.36,110.881 27.762,106.086 27.229,102.001 26.696,97.916 22.789,65.416 21.191,44.815 19.593,24.214 19.237,5.564 19.237,5.564 L 19.059,3.348 C 18.882,1.124 17.518,0.002 17.518,0.002 h -1.3 C 7.26,0.002 0,7.262 0,16.22 v 1.3 c 0,0 4.731,0.71 5.683,5.214 0.945,4.497 13.021,93.061 13.021,93.061 l 0.945,6.038 c 0,0 1.662,5.918 -3.076,8.525 l -4.738,2.6 L 0,137.817 v 4.795 a 3.73,3.73 0 0 0 3.73,3.73 h 213.28 a 2.974,2.974 0 0 0 2.969,-2.977 v -5.548 l -11.835,-4.859 -4.738,-2.6 c -4.738,-2.607 -3.076,-8.525 -3.076,-8.525 z M 54.345,141.014 h -2.018 v -9.945 h 2.018 z m 22.91,0 h -2.018 v -9.945 h 2.018 z m 22.135,0 h -2.01 v -9.945 h 2.01 z m 22.264,0 h -2.018 v -9.945 h 2.018 z m 22.612,0 h -2.01 v -9.945 h 2.01 z m 22.256,0 h -2.01 v -9.945 h 2.01 z"
     id="path6"
     inkscape:connector-curvature="0"
     style="fill:#333333" />
  <path
     d="m 164.512,131.069 h 2.01 v 9.945 h -2.01 z m -22.257,0 h 2.01 v 9.945 h -2.01 z m -22.619,0 h 2.018 v 9.945 h -2.018 z m -22.256,0 h 2.01 v 9.945 h -2.01 z m -22.143,0 h 2.018 v 9.945 h -2.018 z m -22.91,0 h 2.018 v 9.945 h -2.018 z"
     id="path8"
     inkscape:connector-curvature="0"
     style="fill:#171819" />
  <path
     d="m 16.573,130.358 -4.738,2.6 L 0,137.817 V 17.52 c 0,0 4.731,0.71 5.683,5.214 0.945,4.497 13.021,93.061 13.021,93.061 l 0.945,6.038 c 0,0.001 1.663,5.918 -3.076,8.525 z"
     id="path10"
     inkscape:connector-curvature="0"
     style="fill:#282827" />
  <g
     id="g14"
     style="fill:#ffffff"
     transform="translate(0,0.002)">
    <path
       d="m 66.432,74.478 v -1.345 h 12.553 c 0.598,0 0.897,0.448 0.897,1.345 z m 0,4.034 v -3.586 h 2.242 v 3.586 z m 5.38,0 v -3.586 h 2.242 v 3.586 z m 5.828,0 v -3.586 h 2.242 v 3.586 z m 3.586,-4.034 v -1.345 h 8.518 v 1.345 z m 0,2.689 v -2.242 h 2.242 c 0,0.299 0.15,0.448 0.448,0.448 h 5.38 v 1.345 h -5.828 c 0,0.299 0.15,0.448 0.448,0.448 h 5.828 v 1.345 h -7.621 c -0.598,0.001 -0.897,-0.447 -0.897,-1.344 z m 9.863,-2.689 c 0,-0.897 0.299,-1.345 0.897,-1.345 h 8.518 v 1.345 z m 0,2.689 v -2.242 h 2.242 v 2.242 h 4.483 c 0.299,0 0.448,-0.075 0.448,-0.224 0,-0.149 -0.15,-0.224 -0.448,-0.224 h -2.242 v -1.345 h 4.035 c 0.897,0 1.345,0.448 1.345,1.345 v 0.448 c 0,0.897 -0.299,1.345 -0.897,1.345 h -8.07 c -0.598,0 -0.896,-0.448 -0.896,-1.345 z m 11.207,-2.689 c 0,-0.897 0.299,-1.345 0.897,-1.345 h 7.621 c 0.598,0 0.897,0.448 0.897,1.345 z m 0,4.034 v -3.586 h 2.242 v 3.586 z m 7.173,0 v -0.897 h -4.483 V 76.27 h 4.483 v -1.345 h 2.242 v 3.586 h -2.242 z m 3.587,-4.034 v -1.345 h 8.518 c 0.598,0 0.897,0.448 0.897,1.345 z m 0,4.034 v -3.586 h 2.242 v 3.586 z m 8.518,0 h -5.828 v -1.345 h 4.483 v -2.242 h 2.242 v 2.242 c -0.001,0.897 -0.299,1.345 -0.897,1.345 z m 2.241,-4.034 c 0,-0.897 0.299,-1.345 0.897,-1.345 h 7.621 c 0.598,0 0.897,0.448 0.897,1.345 z m 0,4.034 v -3.586 h 2.242 v 3.586 z m 2.69,-0.896 v -1.345 h 4.035 c 0.299,0 0.448,-0.149 0.448,-0.448 v -0.897 h 2.242 v 1.345 c 0,0.897 -0.299,1.345 -0.897,1.345 l 1.345,0.897 h -2.242 l -1.345,-0.897 z m 8.518,0.896 v -5.38 h 2.242 v 5.38 z m 4.931,-4.034 -0.897,-1.345 h 2.69 l 0.897,1.345 z m 2.69,4.034 -2.242,-3.586 h 2.69 l 1.345,2.152 1.345,-2.152 h 2.69 l -2.242,3.586 z m 3.523,-4.034 0.897,-1.345 h 2.69 l -0.897,1.345 z m 4.931,0 v -1.345 h 8.518 v 1.345 z m 0,2.689 v -2.242 h 2.242 c 0,0.299 0.15,0.448 0.448,0.448 h 5.38 v 1.345 h -5.828 c 0,0.299 0.15,0.448 0.448,0.448 h 5.828 v 1.345 h -7.621 c -0.599,0.001 -0.897,-0.447 -0.897,-1.344 z m -84.666,7.25 v -4.371 h 22.922 c 2.641,0 3.962,1.457 3.962,4.371 z m 0,13.113 v -4.371 h 18.394 c 0.943,0 1.415,-0.243 1.415,-0.729 0,-0.486 -0.472,-0.729 -1.415,-0.729 H 72.092 V 87.33 h 12.451 c 1.132,0 1.698,-0.485 1.698,-1.457 h 7.075 v 7.285 c 0,2.914 -1.321,4.371 -3.962,4.371 H 66.432 Z M 96.146,84.417 v -4.371 h 22.639 c 2.83,0 4.245,1.457 4.245,4.371 z m 0,7.285 c 0,-2.914 1.415,-4.371 4.245,-4.371 h 14.149 c 0.943,0 1.415,-0.485 1.415,-1.457 h 7.075 v 1.457 c 0,2.914 -1.415,4.371 -4.245,4.371 H 103.22 c -0.943,0 -1.415,0.485 -1.415,1.457 h 21.224 V 97.53 H 96.146 Z m 36.02,-7.285 -6.307,-4.371 h 8.49 l 6.286,4.371 z m 18.879,13.113 -8.308,-5.766 -8.308,5.766 h -8.49 l 12.553,-8.721 -4.225,-2.935 h 16.939 l -4.225,2.935 12.553,8.721 z m 0.081,-17.484 h 8.49 l -6.307,4.371 h -8.469 z"
       id="path12"
       inkscape:connector-curvature="0" />
  </g>
  <g
     id="g18"
     style="fill:#ffffff"
     transform="translate(0,0.002)">
    <path
       d="M 59.751,98.89 A 2.482,2.482 0 0 1 57.938,98.137 C 57.433,97.635 57.18,97.074 57.18,96.455 v -3.517 h 1.082 v 3.247 c 0,0.499 0.147,0.894 0.442,1.186 0.295,0.292 0.643,0.437 1.046,0.437 0.409,0 0.759,-0.146 1.051,-0.437 0.291,-0.292 0.437,-0.687 0.437,-1.186 v -0.541 c 0,-0.427 0.119,-0.759 0.357,-0.997 a 1.17,1.17 0 0 1 0.861,-0.356 c 0.331,0 0.616,0.119 0.857,0.356 0.241,0.238 0.361,0.57 0.361,0.997 v 3.247 h -1.082 v -3.247 c 0,-0.18 -0.045,-0.271 -0.135,-0.271 -0.09,0 -0.135,0.09 -0.135,0.271 v 0.812 c 0,0.619 -0.251,1.18 -0.753,1.682 -0.503,0.5 -1.108,0.752 -1.818,0.752 z m 0,-1.353 a 1.18,1.18 0 0 1 -0.857,-0.356 c -0.241,-0.238 -0.361,-0.57 -0.361,-0.997 v -3.247 h 1.082 v 3.247 c 0,0.18 0.045,0.271 0.135,0.271 0.09,0 0.135,-0.09 0.135,-0.271 v -0.812 c 0,-0.619 0.251,-1.18 0.753,-1.682 a 2.475,2.475 0 0 1 1.817,-0.753 c 0.703,0 1.308,0.251 1.813,0.753 0.505,0.502 0.758,1.063 0.758,1.682 v 3.517 h -1.082 v -3.247 c 0,-0.499 -0.147,-0.894 -0.442,-1.186 -0.295,-0.292 -0.643,-0.437 -1.046,-0.437 -0.409,0 -0.759,0.146 -1.051,0.437 -0.291,0.292 -0.437,0.687 -0.437,1.186 v 0.541 c 0,0.427 -0.119,0.759 -0.357,0.997 a 1.168,1.168 0 0 1 -0.86,0.357 z m -0.135,-5.141 c -1.623,0 -2.435,-0.812 -2.435,-2.435 v -3.247 h 1.082 v 3.247 c 0,0.902 0.451,1.353 1.353,1.353 h 2.976 c 0.902,0 1.353,-0.451 1.353,-1.353 v -3.247 h 1.082 v 3.247 c 0,1.623 -0.812,2.435 -2.435,2.435 z m 1.352,-1.353 h -1.353 c -0.721,0 -1.082,-0.361 -1.082,-1.082 v -3.247 h 1.082 v 2.976 c 0,0.18 0.09,0.271 0.271,0.271 v -2.435 h 1.082 z m 0.271,0 v -3.517 h 1.082 v 2.435 c 0.18,0 0.271,-0.09 0.271,-0.271 v -2.976 h 1.082 v 3.247 c 0,0.721 -0.361,1.082 -1.082,1.082 z m -1.623,-4.87 c -1.623,0 -2.435,-0.812 -2.435,-2.435 v -3.247 h 1.082 v 3.247 c 0,0.902 0.451,1.353 1.353,1.353 h 2.976 c 0.902,0 1.353,-0.451 1.353,-1.353 v -2.164 h -2.976 v 1.894 h -1.082 v -2.976 h 5.141 v 3.247 c 0,1.623 -0.812,2.435 -2.435,2.435 h -2.977 z m 0,-1.352 c -0.721,0 -1.082,-0.361 -1.082,-1.082 v -3.247 h 1.082 v 2.976 c 0,0.18 0.09,0.271 0.271,0.271 h 2.435 c 0.18,0 0.271,-0.09 0.271,-0.271 v -0.541 h -0.271 v 0.541 H 61.24 v -1.623 h 2.435 v 1.894 c 0,0.721 -0.361,1.082 -1.082,1.082 z m 4.329,-8.072 v -3.202 l -5.501,2.164 c -0.12,0.06 -0.18,0.18 -0.18,0.361 0,0.15 0.06,0.271 0.18,0.361 l 6.584,2.435 v 1.082 l -6.944,-2.525 c -0.601,-0.301 -0.902,-0.752 -0.902,-1.353 0,-0.691 0.3,-1.142 0.902,-1.353 l 6.944,-2.615 v 4.645 z m -0.271,0 h -0.586 l 1.939,0.767 v 1.082 l -6.313,-2.345 c -0.12,-0.03 -0.18,-0.09 -0.18,-0.18 0,-0.09 0.06,-0.15 0.18,-0.18 l 4.96,-1.894 z m -2.345,-0.676 1.263,0.496 v -0.992 z"
       id="path16"
       inkscape:connector-curvature="0" />
  </g>
</svg>
