<?xml version="1.0" encoding="UTF-8" standalone="no"?>
<svg
   xmlns:dc="http://purl.org/dc/elements/1.1/"
   xmlns:cc="http://creativecommons.org/ns#"
   xmlns:rdf="http://www.w3.org/1999/02/22-rdf-syntax-ns#"
   xmlns:svg="http://www.w3.org/2000/svg"
   xmlns="http://www.w3.org/2000/svg"
   xmlns:sodipodi="http://sodipodi.sourceforge.net/DTD/sodipodi-0.dtd"
   xmlns:inkscape="http://www.inkscape.org/namespaces/inkscape"
   viewBox="0 0 474.451 193.138"
   version="1.1"
   id="svg452"
   sodipodi:docname="game.svg"
   width="474.45099"
   height="193.138"
   inkscape:version="0.92.4 5da689c313, 2019-01-14">
  <metadata
     id="metadata458">
    <rdf:RDF>
      <cc:Work
         rdf:about="">
        <dc:format>image/svg+xml</dc:format>
        <dc:type
           rdf:resource="http://purl.org/dc/dcmitype/StillImage" />
      </cc:Work>
    </rdf:RDF>
  </metadata>
  <defs
     id="defs456" />
  <sodipodi:namedview
     pagecolor="#ffffff"
     bordercolor="#666666"
     borderopacity="1"
     objecttolerance="10"
     gridtolerance="10"
     guidetolerance="10"
     inkscape:pageopacity="0"
     inkscape:pageshadow="2"
     inkscape:window-width="640"
     inkscape:window-height="480"
     id="namedview454"
     showgrid="false"
     inkscape:zoom="0.5711865"
     inkscape:cx="237.22549"
     inkscape:cy="96.569"
     inkscape:window-x="0"
     inkscape:window-y="0"
     inkscape:window-maximized="0"
     inkscape:current-layer="svg452" />
  <radialGradient
     id="a"
     cx="96.569"
     cy="96.569"
     r="93.741997"
     gradientUnits="userSpaceOnUse">
    <stop
       offset="0"
       stop-color="#30241a"
       id="stop2" />
    <stop
       offset="1"
       stop-color="#604832"
       id="stop4" />
  </radialGradient>
  <path
     d="m 190.311,96.569 c 0,51.772 -41.97,93.742 -93.742,93.742 -51.772,0 -93.742,-41.97 -93.742,-93.742 0,-51.772 41.97,-93.742 93.742,-93.742 51.772,0 93.742,41.97 93.742,93.742 z M 112.666,62.433 A 37.518,37.518 0 0 0 96.569,58.826 c -20.812,0 -37.743,16.931 -37.743,37.743 0,20.812 16.931,37.743 37.743,37.743 20.812,0 37.744,-16.931 37.744,-37.743 0,-15.058 -8.863,-28.084 -21.647,-34.136"
     id="path7"
     inkscape:connector-curvature="0"
     style="fill:url(#a)" />
  <path
     d="M 96.569,193.138 C 43.32,193.138 0,149.817 0,96.569 0,43.321 43.32,0 96.569,0 c 53.249,0 96.57,43.32 96.57,96.569 0,53.249 -43.321,96.569 -96.57,96.569 z m 0,-192.973 c -53.157,0 -96.404,43.247 -96.404,96.404 0,53.158 43.247,96.404 96.404,96.404 53.158,0 96.405,-43.246 96.405,-96.404 0,-53.157 -43.248,-96.404 -96.405,-96.404 z"
     id="path9"
     inkscape:connector-curvature="0"
     style="fill:#0f1417" />
  <path
     d="m 96.57,113.301 c -9.226,0 -16.733,-7.507 -16.733,-16.733 0,-9.226 7.507,-16.732 16.733,-16.732 9.226,0 16.732,7.506 16.732,16.732 0,9.226 -7.506,16.733 -16.732,16.733 z m 0,-32.325 c -8.598,0 -15.593,6.995 -15.593,15.592 0,8.598 6.995,15.593 15.593,15.593 8.597,0 15.592,-6.995 15.592,-15.593 0,-8.597 -6.995,-15.592 -15.592,-15.592 z"
     id="path11"
     inkscape:connector-curvature="0"
     style="fill:#a198a0" />
  <path
     d="m 96.57,110.069 c -7.445,0 -13.5,-6.056 -13.5,-13.5 0,-7.444 6.056,-13.5 13.5,-13.5 7.443,0 13.499,6.056 13.499,13.5 0,7.444 -6.056,13.5 -13.499,13.5 z m 0,-25.86 c -6.815,0 -12.36,5.545 -12.36,12.36 0,6.815 5.545,12.36 12.36,12.36 6.814,0 12.359,-5.545 12.359,-12.36 0,-6.815 -5.545,-12.36 -12.359,-12.36 z"
     id="path13"
     inkscape:connector-curvature="0"
     style="fill:#a198a0" />
  <path
     d="m 2.795,96.569 c 0,51.772 41.97,93.742 93.742,93.742 51.772,0 93.742,-41.97 93.742,-93.742 l 0.255,-0.375 h -56.221 c 0,20.812 -16.356,37.743 -37.168,37.743 -20.812,0 -37.743,-16.931 -37.743,-37.743 H 2.605"
     id="path15"
     inkscape:connector-curvature="0"
     style="fill:#1e1c1a" />
  <path
     d="m 84.798,142.182 c -0.035,-0.826 0.629,-1.613 1.441,-1.738 0.663,-0.025 1.327,0.001 1.99,-0.011 0.956,-0.101 1.849,0.801 1.799,1.747 -0.001,0.948 -0.004,1.897 10e-4,2.844 -0.569,0.005 -1.137,0.002 -1.707,0.003 -0.003,-0.964 0.005,-1.927 -0.005,-2.891 -0.634,0.006 -1.267,0.005 -1.901,0.001 -0.008,5.35 -10e-4,10.701 -0.004,16.051 0.653,-0.003 1.306,0.005 1.959,-0.005 -0.01,-2.59 -0.002,-5.179 -0.005,-7.769 h -0.864 v -1.546 c 0.839,-0.002 1.679,0.004 2.52,-0.003 0.005,3.632 0.009,7.263 -0.003,10.894 -1.172,-0.007 -2.344,-10e-4 -3.516,-0.002 -0.682,0.002 -1.358,-0.432 -1.61,-1.07 -0.135,-0.334 -0.089,-0.699 -0.095,-1.049 0.001,-5.152 0.003,-10.304 0,-15.456 z m 9.638,1.504 c 1.114,0.001 2.229,-0.005 3.342,0.003 0.686,-0.008 1.388,0.366 1.681,1 0.12,0.239 0.089,0.513 0.094,0.771 -0.005,1.697 0,3.393 -0.003,5.09 -0.037,0.719 -0.546,1.452 -1.287,1.577 0.55,2.54 1.084,5.085 1.619,7.629 l -1.558,0.001 c -0.578,-2.518 -1.162,-5.033 -1.741,-7.549 l -0.555,0.004 c -0.002,2.523 0.003,5.046 -0.003,7.57 -0.53,-0.003 -1.06,10e-4 -1.589,-0.003 0.003,-5.365 10e-4,-10.729 0,-16.093 z m 1.615,1.568 v 5.228 c 0.621,0.001 1.242,-0.001 1.863,0.001 0.003,-1.743 0.001,-3.486 0.001,-5.229 z m 7.821,-0.075 c 0.004,-0.731 0.612,-1.433 1.356,-1.468 0.73,-0.01 1.46,10e-4 2.19,-0.005 0.373,-0.006 0.76,0.089 1.053,0.33 0.338,0.273 0.516,0.712 0.515,1.143 v 14.577 h -1.568 c -0.001,-2.546 10e-4,-5.093 -0.001,-7.639 -0.651,0.001 -1.302,0.002 -1.952,-10e-4 -0.005,2.547 10e-4,5.094 -0.004,7.64 -0.53,-0.002 -1.059,-0.001 -1.589,-0.001 0,-4.858 -0.003,-9.717 0,-14.576 z m 1.636,0.166 c 0.003,1.721 -0.005,3.442 0.004,5.164 0.62,-0.007 1.24,-0.003 1.86,-0.004 -0.001,-1.72 0.002,-3.441 -0.002,-5.161 -0.621,0.002 -1.241,0 -1.862,0.001 z m 7.478,-0.255 c 0.005,-0.706 0.623,-1.37 1.338,-1.381 0.896,-0.004 1.79,0.001 2.686,-0.001 v 1.432 c -0.802,-0.002 -1.604,0.004 -2.405,-0.004 -0.01,1.798 -0.003,3.594 -0.004,5.392 0.658,-0.002 1.318,-0.001 1.977,-0.001 0,0.53 -0.002,1.06 10e-4,1.59 -0.659,0.002 -1.318,0.001 -1.978,0 -0.003,2.546 0,5.093 -0.001,7.639 h -1.614 z m 8.024,-1.382 h 1.682 c 0.01,1.487 -0.021,2.975 0.015,4.461 0.286,0.476 0.618,0.925 0.917,1.395 0.293,-0.46 0.636,-0.89 0.899,-1.368 0.025,-1.494 0.005,-2.991 0.009,-4.485 0.562,-0.003 1.124,-0.004 1.686,0 -0.005,1.068 -0.001,2.137 -0.002,3.205 -0.006,0.496 0.047,1.009 -0.136,1.484 -0.373,0.994 -0.934,1.902 -1.491,2.8 0.634,1.018 1.321,2.049 1.612,3.226 0.034,1.784 0.009,3.572 0.012,5.356 -0.522,-0.004 -1.043,-0.001 -1.565,-0.002 -0.005,-1.793 0.011,-3.586 -0.007,-5.378 -0.264,-0.543 -0.661,-1.017 -0.977,-1.533 -0.326,0.498 -0.667,0.985 -0.995,1.481 -10e-4,1.811 0.008,3.622 -0.004,5.434 -0.552,-0.008 -1.103,-0.002 -1.654,-0.004 -10e-4,-1.682 0.002,-3.364 -10e-4,-5.046 -0.007,-0.456 0.211,-0.874 0.392,-1.28 0.392,-0.787 0.85,-1.541 1.34,-2.271 -0.656,-1.007 -1.387,-2.012 -1.711,-3.184 -0.048,-1.429 -0.007,-2.862 -0.021,-4.291 z"
     id="path17"
     inkscape:connector-curvature="0"
     style="fill:#604832" />
  <g
     id="g23"
     style="fill:#604832">
    <path
       d="m 142.666,149.264 h -2.615 v 5.029 h 2.615 z"
       id="path19"
       inkscape:connector-curvature="0" />
    <path
       d="m 146.196,154.501 a 8.597,8.597 0 0 0 -0.064,-5.671 8.556,8.556 0 0 0 -2.908,-3.903 c -1.825,-1.38 -4.222,-1.959 -6.477,-1.585 -2.84,0.431 -5.371,2.424 -6.479,5.072 -1.122,2.597 -0.836,5.747 0.757,8.09 1.528,2.319 4.253,3.802 7.037,3.777 1.859,0.036 3.715,-0.591 5.196,-1.71 a 8.51,8.51 0 0 0 2.938,-4.07 z m -13.173,-6.406 3.404,-0.002 c 0.209,0.209 0.395,0.382 0.606,0.593 v 1.382 h -1.006 a 54.003,54.003 0 0 1 0,-0.805 h -2.414 v 5.029 h 2.414 a 54.003,54.003 0 0 1 0,-0.805 h 1.006 v 1.382 c -0.211,0.211 -0.393,0.38 -0.602,0.591 h -3.407 l -0.577,-0.567 -0.004,-6.227 z m 5.217,1.169 v -1.171 h 5.013 l 0.583,0.573 v 6.223 l -0.581,0.573 h -5.028 c -0.002,-0.402 0.011,-0.766 0.013,-1.169 h 0.604 v -5.029 z"
       id="path21"
       inkscape:connector-curvature="0" />
  </g>
  <g
     id="g27">
    <path
       d="m 46.452,143.685 c 0.552,-0.002 1.103,0.004 1.655,-0.004 0.011,4.82 10e-4,9.641 0.005,14.461 h 1.864 c 0.004,-4.821 -0.007,-9.641 0.005,-14.462 0.56,0.01 1.119,0 1.679,0.007 -0.006,4.62 -0.002,9.24 -0.003,13.86 -0.006,0.333 0.029,0.674 -0.054,1 -0.158,0.702 -0.842,1.234 -1.559,1.231 -0.666,0 -1.334,0.003 -2,-0.002 -0.871,-0.016 -1.61,-0.825 -1.588,-1.689 -0.011,-4.8 -0.002,-9.601 -0.004,-14.402 z m 9.41,0 c 1.147,0.006 2.297,-0.013 3.444,0.009 0.813,0.011 1.683,0.626 1.691,1.494 0.003,1.758 0.003,3.518 0,5.276 -0.006,0.761 -0.515,1.554 -1.297,1.695 0.542,2.54 1.075,5.08 1.618,7.619 -0.52,0.002 -1.04,0.001 -1.56,0.001 -0.576,-2.509 -1.159,-5.015 -1.734,-7.523 l -0.571,-0.002 c -0.001,2.509 10e-4,5.017 -0.001,7.525 h -1.59 z m 1.659,1.593 c 0.002,1.75 0,3.5 10e-4,5.25 0.613,0.001 1.226,-0.003 1.839,0.003 0.005,-1.751 0.001,-3.502 0.002,-5.254 -0.615,0.001 -1.228,-10e-4 -1.842,0.001 z m 7.999,-1.589 c 1.203,-0.003 2.406,-0.013 3.608,0.004 0.762,-0.002 1.481,0.629 1.508,1.403 0.005,1.698 0,3.396 0.002,5.095 0.005,0.472 -0.333,0.845 -0.664,1.139 0.32,0.266 0.63,0.613 0.66,1.049 0.049,0.692 0.017,1.387 0.026,2.08 -0.008,1.059 0.02,2.119 -0.023,3.179 -0.015,0.45 0.069,0.932 -0.155,1.347 -0.243,0.501 -0.801,0.79 -1.345,0.795 -1.204,0.003 -2.407,-0.005 -3.611,0.003 -0.01,-5.366 0.005,-10.73 -0.006,-16.094 z m 1.663,1.588 c 0,1.75 -0.001,3.502 10e-4,5.252 0.614,-0.002 1.227,0 1.84,-0.001 0.001,-1.75 -0.002,-3.5 0.002,-5.249 -0.615,-0.004 -1.229,-0.001 -1.843,-0.002 z m 10e-4,6.931 c -0.005,1.993 -10e-4,3.987 -0.002,5.98 0.614,-10e-4 1.228,0.002 1.842,-10e-4 -0.003,-1.993 0,-3.985 -0.001,-5.977 -0.612,-0.001 -1.226,0.001 -1.839,-0.002 z m 8.81,-8.433 c 0.489,-0.141 1.005,-0.076 1.508,-0.09 0.554,0.011 1.152,-0.068 1.658,0.211 0.504,0.267 0.951,0.777 0.935,1.376 -0.002,4.125 -0.001,8.251 0,12.376 -0.006,0.359 0.042,0.74 -0.124,1.074 -0.256,0.536 -0.766,0.995 -1.375,1.054 -0.546,0.013 -1.091,-0.003 -1.636,0.005 -0.319,-0.003 -0.651,0.029 -0.953,-0.095 -0.638,-0.251 -1.164,-0.88 -1.143,-1.588 10e-4,-4.121 0.002,-8.242 0,-12.364 0.004,-0.332 -0.033,-0.682 0.106,-0.994 a 1.78,1.78 0 0 1 1.024,-0.965 z m 0.622,1.524 c -0.001,4.265 0.001,8.531 -0.001,12.797 0.591,0.002 1.183,0.002 1.775,0 -0.002,-4.266 0,-8.531 -0.001,-12.797 z m -37.058,-3.265 h -1.562 v -1.614 h 5.001 v 1.614 h -1.563 v 17.73 h -1.876 z"
       id="path25"
       inkscape:connector-curvature="0"
       style="fill:#604832" />
  </g>
  <g
     id="g31">
    <path
       d="m 153.725,108.412 -5.929,-6.471 -2.694,2.806 1.293,1.076 -1.544,7.788 3.099,-1.239 -1.599,-1.35 0.887,-4.119 6.245,6.559 2.156,-8.943 2.183,-1.204 -2.639,-1.463 z m 5.222,-5.386 c 0.186,0.192 0.421,0.438 0.367,0.7 l -0.729,3.498 c -0.057,0.274 -0.324,0.472 -0.532,0.609 -0.208,0.137 -0.465,0.173 -0.721,0.21 0.221,0.079 0.443,0.158 0.591,0.305 0.15,0.146 0.355,0.355 0.3,0.575 l -0.834,3.407 c -0.078,0.314 -0.43,0.511 -0.679,0.682 -0.25,0.171 -0.535,0.258 -0.82,0.346 h 9.976 l 0.701,-3.409 c -0.383,0.708 -0.768,1.415 -1.421,1.869 -0.655,0.453 -1.551,0.852 -2.501,0.852 h -1.827 l 0.912,-4.217 a 1.486,1.486 0 0 1 1.044,0.057 c 0.339,0.149 0.64,0.438 0.912,0.752 0.269,0.314 0.508,0.653 0.697,1.011 l 0.956,-4.436 c -0.326,0.326 -0.69,0.621 -1.081,0.886 -0.392,0.266 -0.811,0.502 -1.203,0.62 a 1.973,1.973 0 0 1 -1.098,0.027 l 0.945,-4.152 1.471,-0.013 c 0.666,-0.005 1.331,-0.078 1.867,0.322 0.539,0.401 0.951,1.243 1.36,2.084 l 0.728,-3.039 h -10.14 c 0.284,0.128 0.57,0.261 0.759,0.454 z m 11.95,1.064 a 7.044,7.044 0 0 0 -1.867,2.19 5.738,5.738 0 0 0 -0.686,2.584 c -0.01,0.835 0.192,1.595 0.565,2.292 0.374,0.697 0.918,1.331 1.59,1.758 0.674,0.429 1.474,0.654 2.208,0.756 a 7.387,7.387 0 0 0 1.932,0.018 c 0.53,-0.069 0.92,-0.184 1.276,-0.365 l 2.104,-3.985 c -0.545,0.234 -1.099,0.446 -1.674,0.662 -0.575,0.216 -1.171,0.437 -1.803,0.506 -0.632,0.068 -1.3,-0.012 -1.893,-0.333 a 3.207,3.207 0 0 1 -1.38,-1.513 2.88,2.88 0 0 1 -0.1,-1.954 c 0.188,-0.629 0.585,-1.19 1.068,-1.682 a 6.63,6.63 0 0 1 1.576,-1.191 3.657,3.657 0 0 1 1.511,-0.446 l 1.59,2.086 1.829,-0.622 -1.282,-2.859 a 8.666,8.666 0 0 0 -1.155,0.044 c -0.43,0.042 -0.927,0.114 -1.443,0.235 -0.515,0.12 -1.05,0.29 -1.726,0.569 -0.676,0.28 -1.495,0.67 -2.24,1.25 z"
       id="path29"
       inkscape:connector-curvature="0"
       style="clip-rule:evenodd;fill:#604832;fill-rule:evenodd" />
  </g>
  <g
     id="g39">
    <g
       id="g37"
       style="fill:#604832">
      <path
         d="m 44.318,101.521 a 3.123,3.123 0 0 1 -0.009,0.2 c -0.024,0.213 0,0.314 -0.615,0.314 -0.615,0 -0.591,-0.101 -0.615,-0.314 a 15.333,15.333 0 0 1 0,-1.254 c 0.024,-0.213 0,-0.314 0.615,-0.314 0.615,0 0.591,0.101 0.615,0.314 0.004,0.029 0.007,0.113 0.009,0.213 h 0.841 a 5.52,5.52 0 0 0 -0.024,-0.433 c -0.048,-0.427 0.12,-0.835 -1.441,-0.835 -1.561,0 -1.392,0.408 -1.441,0.835 -0.016,0.139 -0.03,0.491 -0.029,0.847 0.001,0.355 0.013,0.708 0.029,0.847 0.048,0.427 -0.12,0.835 1.441,0.835 1.561,0 1.393,-0.408 1.441,-0.835 a 5.46,5.46 0 0 0 0.022,-0.42 z m -9.982,-2.023 -0.821,2.398 -0.822,-2.398 -1.229,-0.007 v 3.219 h 0.822 v -2.398 l 0.821,2.398 h 0.822 l 0.814,-2.398 v 2.398 h 0.822 v -3.219 z m 11.008,-0.007 h 2.361 v 0.821 h -0.769 v 2.398 h -0.823 v -2.398 h -0.769 z m -6.332,3.219 0.942,-3.222 h 1.225 l 0.944,3.222 h -0.821 l -0.194,-0.666 H 40.03 l 0.152,-0.523 h 0.771 l -0.382,-1.312 -0.737,2.501 z m -9.526,-2.557 c 0.615,0 0.591,0.101 0.615,0.314 a 13.668,13.668 0 0 1 0,1.254 c -0.024,0.213 0,0.314 -0.615,0.314 -0.615,0 -0.591,-0.101 -0.615,-0.314 a 13.704,13.704 0 0 1 0,-1.254 c 0.024,-0.213 0,-0.314 0.615,-0.314 l 10e-4,-0.741 c -1.561,0 -1.392,0.409 -1.441,0.835 -0.016,0.139 -0.03,0.491 -0.029,0.847 0.001,0.355 0.013,0.708 0.029,0.847 0.048,0.427 -0.12,0.835 1.441,0.835 1.561,0 1.392,-0.408 1.441,-0.835 0.016,-0.139 0.027,-0.491 0.029,-0.847 a 9.468,9.468 0 0 0 -0.029,-0.847 c -0.049,-0.427 0.12,-0.835 -1.441,-0.835 z m -2.773,1.368 a 3.404,3.404 0 0 1 -0.008,0.2 c -0.024,0.213 0,0.314 -0.615,0.314 -0.615,0 -0.591,-0.101 -0.615,-0.314 a 13.46,13.46 0 0 1 0,-1.254 c 0.024,-0.213 0,-0.314 0.615,-0.314 0.615,0 0.591,0.101 0.615,0.314 0.003,0.029 0.006,0.113 0.008,0.213 h 0.842 a 6.071,6.071 0 0 0 -0.024,-0.433 c -0.049,-0.427 0.119,-0.835 -1.441,-0.835 -1.561,0 -1.392,0.408 -1.441,0.835 -0.016,0.139 -0.03,0.491 -0.029,0.847 10e-4,0.355 0.013,0.708 0.029,0.847 0.049,0.427 -0.119,0.835 1.441,0.835 1.561,0 1.392,-0.408 1.441,-0.835 0.009,-0.081 0.017,-0.235 0.022,-0.42 z m 10.852,0.453 h -0.498 v -0.734 l 0.498,-0.003 c 0.615,0 0.596,-0.101 0.62,-0.314 0.008,-0.069 0.007,-0.012 0.006,-0.19 -0.001,-0.178 0.002,-0.117 -0.006,-0.186 -0.024,-0.213 -0.005,-0.314 -0.62,-0.314 l -0.499,10e-4 10e-4,2.473 h -0.824 v -3.215 h 1.321 c 1.561,0 1.389,0.41 1.446,0.835 0.007,0.05 0.007,0.283 0.007,0.408 0,0.101 0,0.333 -0.007,0.407 -0.038,0.428 0.116,0.832 -1.445,0.832 z M 21.591,114.83 16.45,114.824 a 1.347,1.347 0 0 1 -1.347,-1.346 v -7.821 c 0,-0.743 0.603,-1.346 1.347,-1.346 l 3.218,-0.004 a 0.7,0.7 0 0 0 0.7,-0.699 l 0.009,-3.127 c 0,-0.162 0.131,-0.293 0.293,-0.293 h 1.886 c 0.162,0 0.293,0.131 0.293,0.293 l 0.019,14.056 a 0.293,0.293 0 0 1 -0.293,0.293 h -0.984 l -0.024,0.698 h 1.287 a 0.7,0.7 0 0 0 0.699,-0.699 v -14.645 a 0.7,0.7 0 0 0 -0.699,-0.7 h -2.475 a 0.7,0.7 0 0 0 -0.7,0.699 l 0.003,3.135 a 0.293,0.293 0 0 1 -0.293,0.293 l -2.94,-0.005 a 2.053,2.053 0 0 0 -2.053,2.052 v 7.821 c 0,1.133 0.919,2.052 2.053,2.052 l 5.117,-0.001 z"
         id="path33"
         inkscape:connector-curvature="0" />
      <path
         d="m 19.679,111.951 v -5.059 a 0.768,0.768 0 0 0 -1.536,0 v 5.461 a 0.768,0.768 0 0 0 1.536,0 v -0.402 l 0.698,0.024 v 0.377 a 1.467,1.467 0 0 1 -2.934,0 v -5.461 a 1.467,1.467 0 0 1 2.934,0 v 5.084 z m 6.799,2.879 h -0.963 a 0.294,0.294 0 0 1 -0.293,-0.293 l 0.012,-9.926 c 0,-0.162 0.132,-0.293 0.293,-0.293 h 1.886 c 0.162,0 0.294,0.131 0.294,0.293 l 0.019,9.925 a 0.293,0.293 0 0 1 -0.293,0.293 l -0.955,0.001 v 0.695 l 1.233,10e-4 a 0.7,0.7 0 0 0 0.7,-0.699 v -10.515 a 0.7,0.7 0 0 0 -0.7,-0.699 h -2.475 a 0.7,0.7 0 0 0 -0.699,0.699 l -10e-4,10.512 c 0,0.386 0.31,0.699 0.697,0.699 l 1.246,0.001 z m 8.887,-8.56 -2.072,-0.003 a 1.155,1.155 0 1 0 0,2.308 l 2.84,0.008 c 0.744,0 1.346,0.602 1.346,1.346 l -0.009,3.532 c 0,0.744 -0.604,1.346 -1.347,1.346 l -5.636,0.01 a 0.294,0.294 0 0 1 -0.294,-0.293 v -1.368 c 0,-0.162 0.132,-0.293 0.294,-0.293 l 3.841,-0.013 a 1.155,1.155 0 1 0 0,-2.308 l -2.781,-0.011 a 1.345,1.345 0 0 1 -1.346,-1.346 v -3.529 c 0,-0.743 0.603,-1.346 1.346,-1.346 l 5.225,-0.024 c 0.161,0 0.293,0.131 0.293,0.293 v 1.399 a 0.293,0.293 0 0 1 -0.293,0.293 l -1.407,-0.001 -0.024,0.688 1.718,0.001 c 0.387,0 0.7,-0.311 0.7,-0.697 l 0.002,-1.96 a 0.7,0.7 0 0 0 -0.699,-0.699 l -5.516,0.002 a 2.053,2.053 0 0 0 -2.053,2.052 v 3.529 c 0,1.133 0.919,2.052 2.053,2.052 l 2.781,-0.005 a 0.464,0.464 0 0 1 0,0.928 l -4.14,-0.001 a 0.7,0.7 0 0 0 -0.7,0.699 v 1.956 a 0.7,0.7 0 0 0 0.7,0.699 l 5.935,-10e-4 a 2.052,2.052 0 0 0 2.053,-2.052 l 0.01,-3.532 a 2.053,2.053 0 0 0 -2.053,-2.052 l -2.84,0.008 a 0.464,0.464 0 1 1 0,-0.927 h 2.049 z m 10.444,1.941 h 0.89 a 0.293,0.293 0 0 0 0.293,-0.293 l -0.004,-2.261 c 0,-0.743 -0.603,-1.346 -1.347,-1.346 h -4.453 c -0.744,0 -1.347,0.603 -1.347,1.346 v 7.821 c 0,0.743 0.603,1.346 1.347,1.346 h 4.453 c 0.744,0 1.347,-0.603 1.347,-1.346 l 0.004,-2.149 a 0.293,0.293 0 0 0 -0.293,-0.293 h -1.68 a 0.293,0.293 0 0 0 -0.293,0.293 l 0.009,1.024 c 0,0.81 -0.51,1.466 -1.32,1.466 -0.81,0 -1.32,-0.656 -1.32,-1.466 v -5.461 c 0,-0.809 0.51,-1.465 1.32,-1.465 0.81,0 1.32,0.656 1.32,1.465 l -0.009,1.027 c 0,0.162 0.131,0.293 0.293,0.293 l 0.79,-0.001 -0.024,0.705 h -1.057 a 0.7,0.7 0 0 1 -0.7,-0.699 l 0.008,-1.325 c 0,-0.424 -0.197,-0.768 -0.621,-0.768 -0.424,0 -0.621,0.344 -0.621,0.768 v 5.461 c 0,0.424 0.197,0.768 0.621,0.768 0.424,0 0.621,-0.344 0.621,-0.768 l -0.008,-1.323 a 0.7,0.7 0 0 1 0.7,-0.699 h 2.268 a 0.7,0.7 0 0 1 0.7,0.699 l -10e-4,2.448 c 0,1.133 -0.92,2.052 -2.054,2.052 h -4.453 a 2.053,2.053 0 0 1 -2.054,-2.052 v -7.821 c 0,-1.133 0.92,-2.052 2.054,-2.052 h 4.453 c 1.134,0 2.054,0.919 2.054,2.052 l 10e-4,2.559 a 0.7,0.7 0 0 1 -0.7,0.699 h -1.211 z"
         id="path35"
         inkscape:connector-curvature="0" />
    </g>
  </g>
  <g
     id="g43">
    <path
       d="m 96.569,134.312 c -20.812,0 -37.743,-16.931 -37.743,-37.743 0,-20.812 16.931,-37.743 37.743,-37.743 20.812,0 37.744,16.931 37.744,37.743 0,20.812 -16.932,37.743 -37.744,37.743 z m 0,-74.346 c -20.183,0 -36.603,16.42 -36.603,36.603 0,20.183 16.42,36.603 36.603,36.603 20.183,0 36.604,-16.42 36.604,-36.603 0,-20.184 -16.421,-36.603 -36.604,-36.603 z"
       id="path41"
       inkscape:connector-curvature="0" />
  </g>
  <g
     id="g47">
    <path
       d="m 133.743,96.569 c 0,20.53 -16.643,37.173 -37.174,37.173 -20.531,0 -37.173,-16.643 -37.173,-37.173 0,-20.53 16.643,-37.174 37.173,-37.174 20.53,0 37.174,16.643 37.174,37.174 z M 96.569,64.244 c -17.852,0 -32.325,14.472 -32.325,32.325 0,17.853 14.472,32.325 32.325,32.325 17.853,0 32.325,-14.472 32.325,-32.325 0,-17.853 -14.472,-32.325 -32.325,-32.325 z"
       id="path45"
       inkscape:connector-curvature="0"
       style="fill:#aa9885" />
  </g>
  <g
     id="g167">
    <path
       d="m 333.713,187.298 c 0,3.213 -2.628,5.84 -5.84,5.84 h -88.614 c -3.213,0 -5.84,-2.628 -5.84,-5.84 V 44.206 c 0,-3.213 2.628,-5.84 5.84,-5.84 h 88.614 c 3.212,0 5.84,2.628 5.84,5.84 z"
       id="path49"
       inkscape:connector-curvature="0"
       style="fill:#e6e6e6" />
    <path
       d="m 237.494,92.141 h 92.143 v 87.125 H 237.494 Z M 236.113,41.77 v 40.304 c 0,3.249 2.628,5.909 5.84,5.909 h 83.223 c 3.213,0 5.84,-2.659 5.84,-5.909 V 41.77 Z"
       id="path51"
       inkscape:connector-curvature="0"
       style="fill:#070506" />
    <path
       d="m 236.113,41.77 h 94.904 v 8.055 h -94.904 z"
       id="path53"
       inkscape:connector-curvature="0"
       style="fill:#22211d" />
    <path
       d="m 297.056,186.058 -13.33,-3.993 a 0.559,0.559 0 0 0 -0.324,0 l -13.329,3.993 a 0.563,0.563 0 0 0 -0.402,0.54 v 3.484 c 0,0.311 0.252,0.564 0.564,0.564 h 26.659 a 0.564,0.564 0 0 0 0.564,-0.564 v -3.484 a 0.563,0.563 0 0 0 -0.402,-0.54 z"
       id="path55"
       inkscape:connector-curvature="0"
       style="fill:#d3d3d3" />
    <g
       id="g59"
       style="fill:#d1ad2d">
      <path
         d="m 238.646,43.749 h 1.358 v 5.365 h -1.358 z m 2.392,-0.84 h 1.357 v 6.205 h -1.357 z m 2.391,0 h 1.357 v 6.205 h -1.357 z m 2.392,0 h 1.357 v 6.205 h -1.357 z m 2.391,0 h 1.358 v 6.205 h -1.358 z m 2.391,0 h 1.357 v 6.205 h -1.357 z m 2.392,0 h 1.357 v 6.205 h -1.357 z m 2.391,0 h 1.357 v 6.205 h -1.357 z m 2.391,0 h 1.358 v 6.205 h -1.358 z m 2.392,0 h 1.357 v 6.205 h -1.357 z m 2.391,0 h 1.357 v 6.205 h -1.357 z m 2.391,0 h 1.358 v 6.205 h -1.358 z m 2.392,0 h 1.357 v 6.205 h -1.357 z m 2.391,0 h 1.357 v 6.205 h -1.357 z m 2.391,0 h 1.358 v 6.205 h -1.358 z m 2.392,0 h 1.357 v 6.205 h -1.357 z m 2.391,0 h 1.357 v 6.205 h -1.357 z M 279.3,41.77 h 1.357 v 8.055 H 279.3 Z m 2.39,1.139 h 1.358 v 6.205 h -1.358 z m 2.392,0 h 1.357 v 6.205 h -1.357 z m 2.392,0 h 1.357 v 6.205 h -1.357 z m 2.391,0 h 1.357 v 6.205 h -1.357 z m 2.391,0 h 1.358 v 6.205 h -1.358 z m 2.391,0 h 1.357 v 6.205 h -1.357 z m 2.392,0 h 1.357 v 6.205 h -1.357 z m 2.391,0 h 1.358 v 6.205 h -1.358 z m 2.391,0 h 1.357 v 6.205 h -1.357 z m 2.392,0 h 1.357 v 6.205 h -1.357 z m 2.391,0 h 1.357 v 6.205 h -1.357 z m 2.391,0 h 1.358 v 6.205 h -1.358 z m 2.392,0 h 1.357 v 6.205 h -1.357 z m 2.391,0 h 1.357 v 6.205 h -1.357 z m 2.391,0 h 1.358 v 6.205 h -1.358 z m 2.392,0 h 1.358 v 6.205 h -1.358 z m 2.391,0 h 1.357 v 6.205 h -1.357 z m 2.392,0 h 1.357 v 6.205 h -1.357 z m 2.391,0 h 1.358 v 6.205 h -1.358 z m 2.391,-1.139 h 1.357 v 8.055 h -1.357 z"
         id="path57"
         inkscape:connector-curvature="0" />
    </g>
    <g
       id="g137"
       style="fill:#1f1713">
      <circle
         cx="239.325"
         cy="48.512001"
         r="0.32800001"
         id="circle61" />
      <circle
         cx="241.716"
         cy="48.512001"
         r="0.32800001"
         id="circle63" />
      <circle
         cx="244.108"
         cy="48.512001"
         r="0.32800001"
         id="circle65" />
      <circle
         cx="246.49899"
         cy="48.512001"
         r="0.32800001"
         id="circle67" />
      <circle
         cx="248.89"
         cy="48.512001"
         r="0.32800001"
         id="circle69" />
      <circle
         cx="251.28101"
         cy="48.512001"
         r="0.32800001"
         id="circle71" />
      <circle
         cx="253.673"
         cy="48.512001"
         r="0.32800001"
         id="circle73" />
      <circle
         cx="256.064"
         cy="48.512001"
         r="0.32800001"
         id="circle75" />
      <circle
         cx="258.45499"
         cy="48.512001"
         r="0.32800001"
         id="circle77" />
      <circle
         cx="260.84601"
         cy="48.512001"
         r="0.32800001"
         id="circle79" />
      <circle
         cx="263.23801"
         cy="48.512001"
         r="0.32800001"
         id="circle81" />
      <circle
         cx="265.629"
         cy="48.512001"
         r="0.32800001"
         id="circle83" />
      <circle
         cx="268.01999"
         cy="48.512001"
         r="0.32800001"
         id="circle85" />
      <circle
         cx="270.41101"
         cy="48.512001"
         r="0.32800001"
         id="circle87" />
      <circle
         cx="272.80301"
         cy="48.512001"
         r="0.32800001"
         id="circle89" />
      <circle
         cx="275.194"
         cy="48.512001"
         r="0.32800001"
         id="circle91" />
      <circle
         cx="277.58499"
         cy="48.512001"
         r="0.32800001"
         id="circle93" />
      <circle
         cx="279.97601"
         cy="48.512001"
         r="0.32800001"
         id="circle95" />
      <circle
         cx="282.36801"
         cy="48.512001"
         r="0.32800001"
         id="circle97" />
      <circle
         cx="284.759"
         cy="48.512001"
         r="0.32800001"
         id="circle99" />
      <circle
         cx="287.14999"
         cy="48.512001"
         r="0.32800001"
         id="circle101" />
      <circle
         cx="289.54099"
         cy="48.512001"
         r="0.32800001"
         id="circle103" />
      <circle
         cx="291.93301"
         cy="48.512001"
         r="0.32800001"
         id="circle105" />
      <circle
         cx="294.32401"
         cy="48.512001"
         r="0.32800001"
         id="circle107" />
      <circle
         cx="296.715"
         cy="48.512001"
         r="0.32800001"
         id="circle109" />
      <circle
         cx="299.10599"
         cy="48.512001"
         r="0.32800001"
         id="circle111" />
      <circle
         cx="301.49799"
         cy="48.512001"
         r="0.32800001"
         id="circle113" />
      <circle
         cx="303.88901"
         cy="48.512001"
         r="0.32800001"
         id="circle115" />
      <circle
         cx="306.28"
         cy="48.512001"
         r="0.32800001"
         id="circle117" />
      <circle
         cx="308.67099"
         cy="48.512001"
         r="0.32800001"
         id="circle119" />
      <circle
         cx="311.06299"
         cy="48.512001"
         r="0.32800001"
         id="circle121" />
      <circle
         cx="313.45401"
         cy="48.512001"
         r="0.32800001"
         id="circle123" />
      <circle
         cx="315.845"
         cy="48.512001"
         r="0.32800001"
         id="circle125" />
      <circle
         cx="318.23599"
         cy="48.512001"
         r="0.32800001"
         id="circle127" />
      <circle
         cx="320.62799"
         cy="48.512001"
         r="0.32800001"
         id="circle129" />
      <circle
         cx="323.01901"
         cy="48.512001"
         r="0.32800001"
         id="circle131" />
      <circle
         cx="325.41"
         cy="48.512001"
         r="0.32800001"
         id="circle133" />
      <circle
         cx="327.80099"
         cy="48.512001"
         r="0.32800001"
         id="circle135" />
    </g>
    <path
       d="m 297.458,186.598 a 0.563,0.563 0 0 0 -0.402,-0.54 l -0.695,-0.208 h -25.592 l -0.695,0.208 a 0.563,0.563 0 0 0 -0.402,0.54 z m -3.31,-1.412 h -21.166 l 2.498,-0.748 h 16.231 z m -24.476,2.075 h 27.787 v 0.748 h -27.787 z"
       id="path139"
       inkscape:connector-curvature="0"
       style="fill:#c1c1c1" />
    <g
       id="g143"
       style="fill:#b7b7b7">
      <path
         d="m 297.458,186.598 a 0.563,0.563 0 0 0 -0.402,-0.54 l -0.695,-0.208 h -25.592 l -0.695,0.208 a 0.563,0.563 0 0 0 -0.402,0.54 z m -3.31,-1.412 h -21.166 l 2.498,-0.748 h 16.231 z m -4.711,-1.411 h -11.744 l 2.499,-0.748 h 6.746 z m -19.765,3.486 h 27.787 v 0.709 h -27.787 z m 0,1.337 h 27.787 v 0.709 h -27.787 z m 27.786,1.338 h -27.787 v 0.146 c 0,0.311 0.252,0.564 0.564,0.564 h 26.659 a 0.564,0.564 0 0 0 0.564,-0.564 z"
         id="path141"
         inkscape:connector-curvature="0" />
    </g>
    <path
       d="m 277.693,189.936 h 11.744 v 0.709 h -11.744 z"
       id="path145"
       inkscape:connector-curvature="0"
       style="fill:#d3d3d3" />
    <path
       d="m 302.271,146.649 c 1.447,-4.226 1.375,-8.94 -0.147,-13.133 -1.316,-3.575 -3.67,-6.77 -6.734,-9.037 -4.226,-3.196 -9.776,-4.538 -14.998,-3.67 -6.578,0.998 -12.438,5.614 -15.005,11.745 -2.598,6.014 -1.935,13.31 1.752,18.734 3.54,5.369 9.85,8.806 16.295,8.747 4.306,0.084 8.604,-1.369 12.033,-3.961 3.138,-2.369 5.564,-5.689 6.804,-9.425 z"
       id="path147"
       inkscape:connector-curvature="0"
       style="fill:#f9541c" />
    <g
       id="g151"
       style="fill:#ffffff">
      <path
         d="m 271.718,131.766 7.882,-0.004 c 0.484,0.484 0.914,0.885 1.403,1.374 v 3.201 h -2.329 c -0.005,-0.62 -0.005,-1.244 0,-1.863 h -5.591 v 11.647 h 5.591 c -0.005,-0.62 -0.005,-1.244 0,-1.863 h 2.329 v 3.201 c -0.489,0.489 -0.91,0.881 -1.395,1.37 h -7.891 l -1.337,-1.314 -0.009,-14.419 z m 23.69,-0.004 h -11.61 v 2.711 h 1.398 v 11.647 h -1.398 c -0.005,0.932 -0.033,1.775 -0.029,2.707 h 11.644 l 1.346,-1.328 v -14.41 z m -1.36,14.358 h -6.057 v -11.647 h 6.057 z"
         id="path149"
         inkscape:connector-curvature="0" />
    </g>
    <path
       d="m 285.868,101.381 c -0.03,-0.706 0.538,-1.38 1.233,-1.487 0.567,-0.022 1.135,10e-4 1.703,-0.009 0.818,-0.086 1.582,0.685 1.539,1.494 -0.001,0.811 -0.003,1.623 10e-4,2.433 -0.487,0.005 -0.973,0.002 -1.46,0.002 -0.002,-0.825 0.005,-1.648 -0.004,-2.473 -0.542,0.005 -1.084,0.004 -1.627,0.001 -0.007,4.577 -10e-4,9.156 -0.003,13.733 0.559,-0.002 1.117,0.005 1.676,-0.005 -0.009,-2.216 -0.002,-4.431 -0.004,-6.647 h -0.739 V 107.1 c 0.718,-0.002 1.437,0.003 2.156,-0.002 0.004,3.107 0.008,6.214 -0.002,9.321 -1.003,-0.006 -2.006,-10e-4 -3.008,-0.002 -0.583,0.002 -1.162,-0.37 -1.378,-0.916 -0.115,-0.285 -0.076,-0.598 -0.082,-0.898 0,-4.406 0.002,-8.814 -0.001,-13.222 z m 8.246,1.287 c 0.953,10e-4 1.907,-0.005 2.86,0.002 0.587,-0.007 1.188,0.313 1.438,0.856 0.103,0.205 0.076,0.439 0.08,0.66 -0.004,1.452 0,2.903 -0.002,4.355 -0.032,0.615 -0.468,1.242 -1.102,1.349 0.471,2.174 0.927,4.35 1.386,6.527 l -1.333,0.001 c -0.495,-2.154 -0.994,-4.306 -1.49,-6.459 l -0.475,0.003 c -0.002,2.159 0.002,4.318 -0.002,6.476 -0.454,-0.002 -0.907,10e-4 -1.36,-0.002 0.003,-4.59 0.001,-9.179 0,-13.768 z m 1.382,1.341 v 4.473 c 0.531,0.001 1.063,-0.001 1.594,0.001 0.002,-1.491 0.001,-2.983 0.001,-4.474 z m 6.691,-0.063 c 0.003,-0.625 0.524,-1.226 1.16,-1.256 0.625,-0.009 1.249,0.001 1.874,-0.005 0.319,-0.005 0.65,0.076 0.901,0.282 0.289,0.233 0.441,0.609 0.44,0.978 v 12.472 h -1.342 c -0.001,-2.178 10e-4,-4.357 -0.001,-6.535 -0.557,10e-4 -1.114,0.002 -1.67,-0.001 -0.004,2.179 0.001,4.358 -0.003,6.537 -0.454,-0.002 -0.906,-0.001 -1.36,-0.001 0.001,-4.157 -10e-4,-8.314 0.001,-12.471 z m 1.4,0.141 c 0.002,1.473 -0.005,2.945 0.003,4.418 0.531,-0.006 1.061,-0.002 1.592,-0.003 -0.001,-1.472 0.002,-2.944 -0.002,-4.416 -0.531,0.002 -1.062,0 -1.593,0.001 z m 6.398,-0.218 c 0.005,-0.604 0.533,-1.172 1.144,-1.182 0.766,-0.003 1.532,0.001 2.298,-10e-4 v 1.225 c -0.686,-0.002 -1.372,0.003 -2.058,-0.003 -0.009,1.538 -0.002,3.075 -0.003,4.613 0.563,-0.002 1.127,-0.001 1.691,-0.001 0,0.454 -0.002,0.907 10e-4,1.361 -0.564,0.002 -1.128,0.001 -1.692,0 -0.002,2.178 0,4.357 -10e-4,6.535 h -1.381 c 0.002,-4.181 0.001,-8.364 0.001,-12.547 z m 6.866,-1.182 h 1.439 c 0.009,1.272 -0.018,2.545 0.012,3.817 0.244,0.408 0.529,0.791 0.784,1.193 0.25,-0.394 0.544,-0.762 0.769,-1.171 0.022,-1.278 0.005,-2.559 0.008,-3.838 0.481,-0.002 0.962,-0.003 1.442,0 -0.005,0.914 -0.001,1.828 -0.002,2.742 -0.005,0.425 0.04,0.864 -0.117,1.27 -0.319,0.85 -0.799,1.627 -1.276,2.395 0.542,0.871 1.13,1.753 1.379,2.76 0.029,1.526 0.008,3.056 0.01,4.583 -0.447,-0.003 -0.892,-0.001 -1.339,-0.002 -0.005,-1.534 0.009,-3.068 -0.006,-4.602 -0.226,-0.464 -0.566,-0.871 -0.836,-1.312 -0.279,0.426 -0.571,0.843 -0.851,1.267 -10e-4,1.55 0.007,3.099 -0.003,4.649 -0.472,-0.007 -0.944,-0.002 -1.415,-0.003 -10e-4,-1.439 0.002,-2.878 -10e-4,-4.318 -0.006,-0.391 0.18,-0.748 0.335,-1.095 0.335,-0.674 0.727,-1.319 1.147,-1.943 -0.562,-0.861 -1.186,-1.722 -1.464,-2.724 -0.039,-1.22 -0.004,-2.445 -0.015,-3.668 z"
       id="path153"
       inkscape:connector-curvature="0"
       style="fill:#d8d222" />
    <g
       id="g157">
      <path
         d="m 253.059,102.667 c 0.472,-0.002 0.944,0.003 1.416,-0.003 0.009,4.124 0.001,8.249 0.004,12.372 h 1.595 c 0.003,-4.125 -0.006,-8.249 0.005,-12.373 0.479,0.009 0.958,0 1.437,0.006 -0.005,3.953 -0.002,7.905 -0.002,11.858 -0.005,0.285 0.025,0.576 -0.046,0.856 -0.135,0.601 -0.72,1.056 -1.334,1.053 -0.57,0 -1.141,0.002 -1.711,-0.002 -0.745,-0.014 -1.378,-0.706 -1.358,-1.445 -0.011,-4.107 -0.003,-8.214 -0.006,-12.322 z m 8.052,0 c 0.982,0.005 1.965,-0.011 2.947,0.008 0.695,0.009 1.44,0.536 1.447,1.278 0.002,1.505 0.002,3.01 0,4.514 -0.005,0.651 -0.44,1.33 -1.11,1.45 0.464,2.173 0.92,4.346 1.385,6.518 -0.445,0.002 -0.89,0.001 -1.335,0.001 -0.492,-2.146 -0.992,-4.29 -1.484,-6.437 l -0.489,-0.002 c -10e-4,2.146 0.001,4.293 -10e-4,6.438 h -1.361 z m 1.419,1.363 c 0.002,1.498 0,2.994 0.001,4.492 0.524,10e-4 1.049,-0.002 1.574,0.002 0.004,-1.498 10e-4,-2.997 0.002,-4.495 -0.527,0.001 -1.052,-10e-4 -1.577,0.001 z m 6.844,-1.359 c 1.029,-0.002 2.058,-0.011 3.087,0.003 0.652,-0.002 1.267,0.538 1.291,1.2 0.004,1.452 0,2.906 0.002,4.359 0.004,0.404 -0.285,0.723 -0.568,0.975 0.274,0.228 0.539,0.524 0.565,0.898 0.042,0.592 0.015,1.186 0.023,1.78 -0.007,0.906 0.017,1.813 -0.019,2.72 -0.012,0.385 0.059,0.797 -0.133,1.152 -0.208,0.429 -0.685,0.676 -1.151,0.68 -1.03,0.002 -2.059,-0.004 -3.089,0.002 -0.012,-4.591 10e-4,-9.18 -0.008,-13.769 z m 1.422,1.358 c 0,1.498 -10e-4,2.996 0.001,4.493 0.525,-0.002 1.049,0 1.575,-0.001 10e-4,-1.498 -0.002,-2.994 0.002,-4.491 -0.527,-0.003 -1.052,0 -1.578,-0.001 z m 0.002,5.93 c -0.004,1.705 -10e-4,3.411 -0.002,5.117 0.525,-10e-4 1.051,0.002 1.576,-10e-4 -0.002,-1.705 0,-3.41 -0.001,-5.114 -0.524,-0.001 -1.049,0.001 -1.573,-0.002 z m 7.537,-7.215 c 0.419,-0.121 0.86,-0.065 1.29,-0.077 0.474,0.009 0.986,-0.058 1.419,0.18 0.431,0.229 0.814,0.664 0.8,1.177 -0.002,3.53 -10e-4,7.059 0,10.589 -0.005,0.307 0.036,0.633 -0.106,0.919 -0.219,0.459 -0.656,0.851 -1.176,0.902 -0.467,0.011 -0.934,-0.002 -1.4,0.004 -0.273,-0.002 -0.557,0.025 -0.815,-0.081 -0.546,-0.215 -0.996,-0.753 -0.978,-1.359 10e-4,-3.526 0.002,-7.052 0,-10.578 0.003,-0.284 -0.028,-0.583 0.091,-0.85 a 1.52,1.52 0 0 1 0.875,-0.826 z m 0.533,1.304 c -10e-4,3.649 0.001,7.299 -10e-4,10.949 0.506,0.002 1.012,0.002 1.519,0 -0.002,-3.65 0,-7.299 -0.001,-10.949 z m -31.707,-2.794 h -1.337 v -1.38 h 4.279 v 1.38 h -1.336 v 15.17 h -1.606 z"
         id="path155"
         inkscape:connector-curvature="0"
         style="fill:#d8d222" />
    </g>
    <g
       id="g161">
      <path
         d="m 252.316,172.253 h -0.397 c -0.975,0 -1.083,-0.232 -1.083,-0.835 v -0.852 h 0.866 v 1.119 h 0.771 v -1.102 c 0,-0.757 0.072,-0.766 -0.518,-1.489 l -0.457,-0.56 c -0.711,-0.852 -0.662,-0.74 -0.662,-1.695 v -0.577 c 0,-0.594 0.132,-0.843 1.035,-0.843 h 0.397 c 0.963,0 1.071,0.232 1.071,0.834 v 0.62 h -0.867 v -0.834 h -0.771 v 0.62 c 0,0.766 -0.048,0.783 0.397,1.308 l 0.566,0.654 c 0.746,0.887 0.674,0.775 0.674,1.644 v 1.145 c 0.001,0.594 -0.119,0.843 -1.022,0.843 z m 12.733,0 h -0.397 c -0.975,0 -1.083,-0.232 -1.083,-0.835 v -0.852 h 0.866 v 1.119 h 0.771 v -1.102 c 0,-0.757 0.072,-0.766 -0.518,-1.489 l -0.457,-0.56 c -0.711,-0.852 -0.662,-0.74 -0.662,-1.695 v -0.577 c 0,-0.594 0.132,-0.843 1.035,-0.843 h 0.397 c 0.963,0 1.071,0.232 1.071,0.834 v 0.62 h -0.867 v -0.834 h -0.771 v 0.62 c 0,0.766 -0.048,0.783 0.397,1.308 l 0.566,0.654 c 0.746,0.887 0.674,0.775 0.674,1.644 v 1.145 c 0.002,0.594 -0.118,0.843 -1.022,0.843 z m 7.138,-6.833 v 0.62 h -0.831 v 6.213 h -0.867 v -6.213 h -0.83 v -0.62 z m 5.669,0 v 0.62 h -1.204 v 2.521 h 1.132 v 0.611 h -1.132 v 2.513 h 1.204 v 0.568 h -2.071 v -6.833 z m 4.62,0 1.145,3.692 1.071,-3.692 h 0.866 v 6.833 h -0.866 v -1.626 c 0,-0.62 0.048,-2.72 0.048,-2.72 l -0.854,3.081 h -0.59 l -0.867,-3.098 c 0,0 0.048,2.117 0.048,2.737 v 1.626 h -0.866 v -6.833 z m 13.709,0.62 h -0.71 v 5.646 h 0.71 v -1.102 h 0.915 v 0.826 c 0,0.594 -0.12,0.843 -1.023,0.843 h -0.445 c -0.963,0 -1.083,-0.232 -1.083,-0.835 v -5.155 c 0,-0.594 0.132,-0.843 1.035,-0.843 h 0.445 c 0.963,0 1.071,0.232 1.071,0.834 v 0.568 h -0.915 z m 11.265,-0.62 h 0.987 c 1.288,0 1.517,0.008 1.517,0.921 v 2.048 c 0,0.258 0.012,0.31 -0.205,0.457 0.229,0.12 0.205,0.181 0.205,0.473 v 2.935 h -0.867 v -3.098 h -0.771 v 3.098 h -0.866 z m 0.866,3.132 h 0.771 v -2.513 h -0.771 z m 7.98,-2.297 v 5.155 c 0,0.594 -0.12,0.843 -1.023,0.843 h -1.48 v -6.833 h 1.433 c 0.962,0 1.07,0.232 1.07,0.835 z m -0.867,5.43 v -5.646 h -0.771 v 5.646 z m -14.29,-5.638 c 0.002,-0.311 0.26,-0.61 0.577,-0.625 0.311,-0.004 0.622,0 0.932,-0.002 a 0.68,0.68 0 0 1 0.448,0.141 0.627,0.627 0 0 1 0.219,0.487 v 6.205 h -0.668 v -3.252 h -0.831 c -0.002,1.084 0,2.168 -0.002,3.253 h -0.677 c 0.002,-2.07 10e-4,-4.138 0.002,-6.207 z m 0.697,0.071 c 10e-4,0.733 -0.002,1.465 0.002,2.198 0.264,-0.003 0.528,-0.001 0.792,-0.002 0,-0.732 10e-4,-1.465 -10e-4,-2.197 z m -43.388,2.166 -0.328,-0.262 v -2.155 a 0.447,0.447 0 0 0 -0.12,-0.322 0.415,0.415 0 0 0 -0.313,-0.126 c -0.127,0 -0.231,0.041 -0.312,0.124 -0.081,0.083 -0.121,0.19 -0.121,0.324 v 2.43 l 0.76,0.78 v 2.727 c 0,0.131 0.04,0.238 0.121,0.322 0.08,0.084 0.184,0.126 0.312,0.126 a 0.417,0.417 0 0 0 0.312,-0.124 0.442,0.442 0 0 0 0.121,-0.324 v -2.727 l 0.76,-0.78 v -2.43 c 0,-0.134 -0.041,-0.242 -0.121,-0.324 -0.08,-0.082 -0.185,-0.124 -0.312,-0.124 a 0.417,0.417 0 0 0 -0.313,0.126 0.447,0.447 0 0 0 -0.12,0.322 v 2.155 z"
         id="path159"
         inkscape:connector-curvature="0"
         style="fill:#d8d222" />
    </g>
    <g
       id="g165"
       style="fill:#d8d222">
      <path
         d="m 322.313,114.857 h 1.282 v 0.239 h -0.503 v 1.344 h -0.277 v -1.344 h -0.502 z m 1.462,0 h 0.379 l 0.437,1.239 h 0.005 l 0.426,-1.239 h 0.374 v 1.583 h -0.252 v -1.222 h -0.005 l -0.439,1.222 h -0.228 l -0.44,-1.222 h -0.004 v 1.222 h -0.253 z"
         id="path163"
         inkscape:connector-curvature="0" />
    </g>
  </g>
  <g
     id="g450">
    <path
       d="m 474.451,187.298 c 0,3.213 -2.628,5.84 -5.84,5.84 h -88.614 c -3.213,0 -5.84,-2.628 -5.84,-5.84 V 44.206 c 0,-3.213 2.628,-5.84 5.84,-5.84 h 88.614 c 3.212,0 5.84,2.628 5.84,5.84 z"
       id="path169"
       inkscape:connector-curvature="0"
       style="fill:#e6e6e6" />
    <path
       d="m 376.852,41.77 v 70.542 c 0,3.249 2.628,5.909 5.84,5.909 h 83.223 c 3.213,0 5.84,-2.659 5.84,-5.909 V 41.77 Z"
       id="path171"
       inkscape:connector-curvature="0"
       style="fill:#1c1714" />
    <path
       d="m 376.852,41.77 h 94.904 v 8.055 h -94.904 z"
       id="path173"
       inkscape:connector-curvature="0"
       style="fill:#22211d" />
    <path
       d="m 437.795,186.058 -13.33,-3.993 a 0.559,0.559 0 0 0 -0.324,0 l -13.329,3.993 a 0.563,0.563 0 0 0 -0.402,0.54 v 3.484 c 0,0.311 0.252,0.564 0.564,0.564 h 26.659 a 0.564,0.564 0 0 0 0.564,-0.564 v -3.484 a 0.563,0.563 0 0 0 -0.402,-0.54 z"
       id="path175"
       inkscape:connector-curvature="0"
       style="fill:#d3d3d3" />
    <g
       id="g179"
       style="fill:#d1ad2d">
      <path
         d="m 379.385,43.749 h 1.358 v 5.365 h -1.358 z m 2.392,-0.84 h 1.357 v 6.205 h -1.357 z m 2.391,0 h 1.357 v 6.205 h -1.357 z m 2.392,0 h 1.357 v 6.205 h -1.357 z m 2.391,0 h 1.358 v 6.205 h -1.358 z m 2.391,0 h 1.357 v 6.205 h -1.357 z m 2.392,0 h 1.357 v 6.205 h -1.357 z m 2.391,0 h 1.357 v 6.205 h -1.357 z m 2.391,0 h 1.358 v 6.205 h -1.358 z m 2.392,0 h 1.357 v 6.205 h -1.357 z m 2.391,0 h 1.357 v 6.205 h -1.357 z m 2.391,0 h 1.358 v 6.205 h -1.358 z m 2.391,0 h 1.357 v 6.205 h -1.357 z m 2.392,0 h 1.357 v 6.205 h -1.357 z m 2.391,0 h 1.358 v 6.205 h -1.358 z m 2.391,0 h 1.357 v 6.205 h -1.357 z m 2.392,0 h 1.357 v 6.205 h -1.357 z m 2.391,-1.139 h 1.357 v 8.055 h -1.357 z m 2.391,1.139 h 1.358 v 6.205 h -1.358 z m 2.392,0 h 1.357 v 6.205 h -1.357 z m 2.391,0 h 1.357 v 6.205 h -1.357 z m 2.392,0 h 1.357 v 6.205 h -1.357 z m 2.391,0 h 1.358 v 6.205 h -1.358 z m 2.391,0 h 1.357 v 6.205 h -1.357 z m 2.392,0 h 1.357 v 6.205 h -1.357 z m 2.391,0 h 1.358 v 6.205 h -1.358 z m 2.391,0 h 1.357 v 6.205 h -1.357 z m 2.392,0 h 1.357 v 6.205 h -1.357 z m 2.391,0 h 1.357 v 6.205 h -1.357 z m 2.391,0 h 1.358 v 6.205 h -1.358 z m 2.392,0 h 1.357 v 6.205 h -1.357 z m 2.391,0 h 1.357 v 6.205 h -1.357 z m 2.391,0 h 1.358 v 6.205 h -1.358 z m 2.392,0 h 1.358 v 6.205 H 458.3 Z m 2.391,0 h 1.357 v 6.205 h -1.357 z m 2.392,0 h 1.357 v 6.205 h -1.357 z m 2.391,0 h 1.358 v 6.205 h -1.358 z m 2.391,-1.139 h 1.357 v 8.055 h -1.357 z"
         id="path177"
         inkscape:connector-curvature="0" />
    </g>
    <g
       id="g257"
       style="fill:#1f1713">
      <circle
         cx="380.064"
         cy="48.512001"
         r="0.32800001"
         id="circle181" />
      <circle
         cx="382.45499"
         cy="48.512001"
         r="0.32800001"
         id="circle183" />
      <circle
         cx="384.84698"
         cy="48.512001"
         r="0.32800001"
         id="circle185" />
      <circle
         cx="387.23801"
         cy="48.512001"
         r="0.32800001"
         id="circle187" />
      <circle
         cx="389.629"
         cy="48.512001"
         r="0.32800001"
         id="circle189" />
      <circle
         cx="392.01999"
         cy="48.512001"
         r="0.32800001"
         id="circle191" />
      <circle
         cx="394.41199"
         cy="48.512001"
         r="0.32800001"
         id="circle193" />
      <circle
         cx="396.80301"
         cy="48.512001"
         r="0.32800001"
         id="circle195" />
      <circle
         cx="399.194"
         cy="48.512001"
         r="0.32800001"
         id="circle197" />
      <circle
         cx="401.58499"
         cy="48.512001"
         r="0.32800001"
         id="circle199" />
      <circle
         cx="403.97699"
         cy="48.512001"
         r="0.32800001"
         id="circle201" />
      <circle
         cx="406.36801"
         cy="48.512001"
         r="0.32800001"
         id="circle203" />
      <circle
         cx="408.759"
         cy="48.512001"
         r="0.32800001"
         id="circle205" />
      <circle
         cx="411.14999"
         cy="48.512001"
         r="0.32800001"
         id="circle207" />
      <circle
         cx="413.54199"
         cy="48.512001"
         r="0.32800001"
         id="circle209" />
      <circle
         cx="415.93301"
         cy="48.512001"
         r="0.32800001"
         id="circle211" />
      <circle
         cx="418.32401"
         cy="48.512001"
         r="0.32800001"
         id="circle213" />
      <circle
         cx="420.715"
         cy="48.512001"
         r="0.32800001"
         id="circle215" />
      <circle
         cx="423.10699"
         cy="48.512001"
         r="0.32800001"
         id="circle217" />
      <circle
         cx="425.49799"
         cy="48.512001"
         r="0.32800001"
         id="circle219" />
      <circle
         cx="427.88901"
         cy="48.512001"
         r="0.32800001"
         id="circle221" />
      <circle
         cx="430.28"
         cy="48.512001"
         r="0.32800001"
         id="circle223" />
      <circle
         cx="432.672"
         cy="48.512001"
         r="0.32800001"
         id="circle225" />
      <circle
         cx="435.06299"
         cy="48.512001"
         r="0.32800001"
         id="circle227" />
      <circle
         cx="437.45401"
         cy="48.512001"
         r="0.32800001"
         id="circle229" />
      <circle
         cx="439.845"
         cy="48.512001"
         r="0.32800001"
         id="circle231" />
      <circle
         cx="442.237"
         cy="48.512001"
         r="0.32800001"
         id="circle233" />
      <circle
         cx="444.62799"
         cy="48.512001"
         r="0.32800001"
         id="circle235" />
      <circle
         cx="447.01901"
         cy="48.512001"
         r="0.32800001"
         id="circle237" />
      <circle
         cx="449.41"
         cy="48.512001"
         r="0.32800001"
         id="circle239" />
      <circle
         cx="451.802"
         cy="48.512001"
         r="0.32800001"
         id="circle241" />
      <circle
         cx="454.19299"
         cy="48.512001"
         r="0.32800001"
         id="circle243" />
      <circle
         cx="456.58401"
         cy="48.512001"
         r="0.32800001"
         id="circle245" />
      <circle
         cx="458.97501"
         cy="48.512001"
         r="0.32800001"
         id="circle247" />
      <circle
         cx="461.367"
         cy="48.512001"
         r="0.32800001"
         id="circle249" />
      <circle
         cx="463.758"
         cy="48.512001"
         r="0.32800001"
         id="circle251" />
      <circle
         cx="466.14899"
         cy="48.512001"
         r="0.32800001"
         id="circle253" />
      <circle
         cx="468.54001"
         cy="48.512001"
         r="0.32800001"
         id="circle255" />
    </g>
    <path
       d="m 438.197,186.598 a 0.563,0.563 0 0 0 -0.402,-0.54 L 437.1,185.85 h -25.592 l -0.695,0.208 a 0.563,0.563 0 0 0 -0.402,0.54 z m -3.31,-1.412 h -21.166 l 2.498,-0.748 h 16.231 z m -24.476,2.075 h 27.787 v 0.748 h -27.787 z"
       id="path259"
       inkscape:connector-curvature="0"
       style="fill:#c1c1c1" />
    <path
       d="m 418.432,189.936 h 11.744 v 0.709 h -11.744 z"
       id="path261"
       inkscape:connector-curvature="0"
       style="fill:#d3d3d3" />
    <path
       d="m 457.179,187.274 v 1.032 a 3.107,3.107 0 0 1 -3.107,3.107 h -59.535 a 3.107,3.107 0 0 1 -3.107,-3.107 v -1.032 a 4.008,4.008 0 0 0 -4.008,-4.008 h -3.76 a 3.857,3.857 0 0 1 -3.857,-3.857 V 118.77 a 3.857,3.857 0 0 1 3.857,-3.857 h 81.285 a 3.857,3.857 0 0 1 3.857,3.857 v 60.639 a 3.857,3.857 0 0 1 -3.857,3.857 h -3.76 a 4.01,4.01 0 0 0 -4.008,4.008 z"
       stroke-miterlimit="10"
       id="path263"
       inkscape:connector-curvature="0"
       style="fill:#dddddd;stroke:#999999;stroke-width:0.1;stroke-miterlimit:10" />
    <g
       id="g267"
       style="fill:#b7b7b7">
      <path
         d="m 438.197,186.598 a 0.563,0.563 0 0 0 -0.402,-0.54 L 437.1,185.85 h -25.592 l -0.695,0.208 a 0.563,0.563 0 0 0 -0.402,0.54 z m -3.31,-1.412 h -21.166 l 2.498,-0.748 h 16.231 z m -4.711,-1.411 h -11.744 l 2.498,-0.748 h 6.747 z m -19.765,3.486 h 27.787 v 0.709 h -27.787 z m 0,1.337 h 27.787 v 0.709 h -27.787 z m 27.786,1.338 H 410.41 v 0.146 c 0,0.311 0.252,0.564 0.564,0.564 h 26.659 a 0.564,0.564 0 0 0 0.564,-0.564 z"
         id="path265"
         inkscape:connector-curvature="0" />
    </g>
    <linearGradient
       id="b"
       gradientUnits="userSpaceOnUse"
       x1="384.80399"
       y1="150.09"
       x2="463.80399"
       y2="150.09">
      <stop
         offset="0"
         stop-color="#141118"
         id="stop269" />
      <stop
         offset="1"
         stop-color="#0d0d19"
         id="stop271" />
    </linearGradient>
    <path
       d="m 384.804,120.913 h 79 v 58.354 h -79 z"
       id="path274"
       inkscape:connector-curvature="0"
       style="fill:url(#b)" />
    <g
       id="g294"
       style="fill:#ededed">
      <path
         d="m 391.849,133.07 c 0,0.53 0.104,0.95 0.311,1.259 0.207,0.309 0.486,0.464 0.837,0.464 a 0.935,0.935 0 0 0 0.767,-0.362 c 0.191,-0.241 0.288,-0.562 0.288,-0.961 0,-0.541 -0.342,-0.949 -1.024,-1.226 l -0.317,-0.128 c -0.549,-0.232 -0.91,-0.49 -1.085,-0.772 -0.176,-0.282 -0.264,-0.676 -0.264,-1.182 0,-0.646 0.143,-1.168 0.427,-1.567 0.285,-0.398 0.657,-0.598 1.116,-0.598 0.526,0 0.934,0.205 1.223,0.613 0.289,0.409 0.434,0.986 0.434,1.731 v 0.021 h -0.635 c -0.025,-0.486 -0.124,-0.857 -0.296,-1.116 -0.172,-0.259 -0.406,-0.387 -0.705,-0.387 -0.275,0 -0.495,0.105 -0.66,0.315 -0.165,0.21 -0.248,0.49 -0.248,0.838 0,0.349 0.063,0.605 0.187,0.77 0.124,0.165 0.451,0.338 0.981,0.523 0.616,0.215 1.022,0.472 1.217,0.769 0.194,0.298 0.292,0.727 0.292,1.288 0,0.708 -0.155,1.271 -0.466,1.688 -0.311,0.417 -0.73,0.626 -1.258,0.626 -0.54,0 -0.961,-0.226 -1.265,-0.677 -0.304,-0.451 -0.469,-1.094 -0.493,-1.929 z m 3.349,-0.369 v -4.514 h 0.642 v 4.57 c 0,0.691 0.084,1.203 0.253,1.537 0.168,0.333 0.427,0.5 0.774,0.5 0.344,0 0.6,-0.169 0.769,-0.508 0.168,-0.338 0.252,-0.848 0.252,-1.529 v -4.57 h 0.652 v 4.514 c 0,1.012 -0.137,1.761 -0.409,2.247 -0.273,0.486 -0.694,0.729 -1.264,0.729 -0.564,0 -0.983,-0.243 -1.258,-0.729 -0.275,-0.486 -0.411,-1.235 -0.411,-2.247 z m 4.11,2.775 v -7.289 h 1.68 c 0.482,0 0.848,0.178 1.096,0.533 0.248,0.356 0.372,0.877 0.372,1.564 0,0.366 -0.041,0.691 -0.124,0.975 a 1.963,1.963 0 0 1 -0.371,0.718 1.111,1.111 0 0 1 -0.45,0.326 c -0.169,0.063 -0.449,0.095 -0.844,0.095 h -0.713 v 3.078 z m 1.506,-6.396 h -0.86 v 2.426 h 0.809 c 0.38,0 0.646,-0.094 0.796,-0.282 0.15,-0.188 0.226,-0.501 0.226,-0.939 0,-0.431 -0.074,-0.739 -0.221,-0.926 -0.147,-0.187 -0.398,-0.279 -0.75,-0.279 z m 2.416,6.396 v -7.289 h 3.021 v 0.882 h -2.376 v 2.185 h 2.168 v 0.872 h -2.168 v 2.467 h 2.431 v 0.882 h -3.076 z m 3.827,0 v -7.289 h 1.622 c 0.478,0 0.842,0.177 1.092,0.531 0.251,0.354 0.376,0.87 0.376,1.546 0,0.4 -0.055,0.739 -0.162,1.016 a 1.351,1.351 0 0 1 -0.479,0.636 0.743,0.743 0 0 1 0.382,0.392 c 0.077,0.18 0.126,0.495 0.146,0.946 l 0.052,1.185 c 0.012,0.256 0.033,0.445 0.064,0.564 a 0.54,0.54 0 0 0 0.15,0.271 v 0.2 h -0.733 c -0.032,-0.079 -0.059,-0.197 -0.079,-0.354 -0.02,-0.157 -0.036,-0.369 -0.048,-0.636 l -0.034,-0.944 c -0.018,-0.476 -0.083,-0.785 -0.194,-0.929 -0.111,-0.144 -0.392,-0.215 -0.84,-0.215 h -0.666 v 3.078 h -0.649 z m 1.44,-6.396 h -0.792 v 2.426 h 0.748 c 0.38,0 0.646,-0.094 0.795,-0.282 0.15,-0.188 0.226,-0.501 0.226,-0.939 0,-0.431 -0.074,-0.739 -0.222,-0.926 -0.148,-0.186 -0.399,-0.279 -0.755,-0.279 z m 6.844,3.99 c 0,0.53 0.104,0.95 0.311,1.259 0.207,0.309 0.486,0.464 0.837,0.464 a 0.935,0.935 0 0 0 0.767,-0.362 c 0.191,-0.241 0.288,-0.562 0.288,-0.961 0,-0.541 -0.342,-0.949 -1.024,-1.226 l -0.317,-0.128 c -0.549,-0.232 -0.91,-0.49 -1.085,-0.772 -0.176,-0.282 -0.264,-0.676 -0.264,-1.182 0,-0.646 0.143,-1.168 0.427,-1.567 0.285,-0.398 0.657,-0.598 1.116,-0.598 0.526,0 0.934,0.205 1.223,0.613 0.289,0.409 0.434,0.986 0.434,1.731 v 0.021 h -0.635 c -0.025,-0.486 -0.124,-0.857 -0.296,-1.116 -0.172,-0.259 -0.406,-0.387 -0.705,-0.387 -0.275,0 -0.495,0.105 -0.66,0.315 -0.165,0.21 -0.248,0.49 -0.248,0.838 0,0.349 0.063,0.605 0.187,0.77 0.124,0.165 0.451,0.338 0.981,0.523 0.616,0.215 1.022,0.472 1.217,0.769 0.194,0.298 0.292,0.727 0.292,1.288 0,0.708 -0.155,1.271 -0.466,1.688 -0.311,0.417 -0.73,0.626 -1.258,0.626 -0.54,0 -0.961,-0.226 -1.265,-0.677 -0.304,-0.451 -0.469,-1.094 -0.493,-1.929 z m 5.384,2.406 h -0.651 v -2.888 l -1.663,-4.411 h 0.775 l 1.212,3.452 1.194,-3.452 h 0.728 l -1.595,4.35 z m 2.447,-2.406 c 0,0.53 0.104,0.95 0.311,1.259 0.207,0.309 0.486,0.464 0.837,0.464 a 0.935,0.935 0 0 0 0.767,-0.362 c 0.191,-0.241 0.288,-0.562 0.288,-0.961 0,-0.541 -0.342,-0.949 -1.024,-1.226 l -0.317,-0.128 c -0.549,-0.232 -0.91,-0.49 -1.085,-0.772 -0.176,-0.282 -0.264,-0.676 -0.264,-1.182 0,-0.646 0.143,-1.168 0.427,-1.567 0.285,-0.398 0.657,-0.598 1.116,-0.598 0.526,0 0.934,0.205 1.223,0.613 0.289,0.409 0.434,0.986 0.434,1.731 v 0.021 h -0.635 c -0.025,-0.486 -0.124,-0.857 -0.296,-1.116 -0.172,-0.259 -0.406,-0.387 -0.705,-0.387 -0.275,0 -0.495,0.105 -0.66,0.315 -0.165,0.21 -0.248,0.49 -0.248,0.838 0,0.349 0.063,0.605 0.187,0.77 0.124,0.165 0.451,0.338 0.981,0.523 0.616,0.215 1.022,0.472 1.217,0.769 0.194,0.298 0.292,0.727 0.292,1.288 0,0.708 -0.155,1.271 -0.466,1.688 -0.311,0.417 -0.73,0.626 -1.258,0.626 -0.54,0 -0.961,-0.226 -1.265,-0.677 -0.304,-0.451 -0.469,-1.094 -0.493,-1.929 z m 4.698,2.406 v -6.406 h -1.475 v -0.882 h 3.587 v 0.882 h -1.468 v 6.406 z m 2.768,0 v -7.289 h 3.021 v 0.882 h -2.376 v 2.185 h 2.168 v 0.872 h -2.168 v 2.467 h 2.431 v 0.882 h -3.076 z m 3.636,0 v -7.289 h 0.859 l 0.888,6.427 0.898,-6.427 h 0.85 v 7.289 h -0.543 v -6.617 l -0.901,6.617 h -0.604 l -0.908,-6.617 v 6.617 z m 10.712,-2.708 h 0.672 c -0.061,0.906 -0.246,1.617 -0.556,2.133 -0.31,0.517 -0.705,0.775 -1.185,0.775 -0.561,0 -0.999,-0.341 -1.318,-1.023 -0.318,-0.682 -0.478,-1.624 -0.478,-2.824 0,-1.204 0.159,-2.145 0.478,-2.824 0.319,-0.679 0.758,-1.018 1.318,-1.018 0.437,0 0.804,0.215 1.103,0.644 0.298,0.429 0.484,1.013 0.56,1.752 h -0.662 c -0.073,-0.482 -0.197,-0.856 -0.372,-1.124 -0.176,-0.267 -0.385,-0.4 -0.628,-0.4 -0.349,0 -0.623,0.263 -0.824,0.79 -0.202,0.526 -0.303,1.253 -0.303,2.18 0,0.92 0.102,1.644 0.304,2.172 0.203,0.528 0.477,0.792 0.823,0.792 0.284,0 0.521,-0.179 0.71,-0.536 0.188,-0.357 0.308,-0.853 0.358,-1.489 z m 0.659,2.708 1.769,-7.299 h 0.713 l 1.775,7.299 h -0.655 l -0.512,-2.144 h -1.936 l -0.513,2.144 z m 1.376,-3.037 h 1.498 l -0.751,-3.216 z m 3.105,3.037 v -7.289 h 1.622 c 0.478,0 0.842,0.177 1.092,0.531 0.251,0.354 0.376,0.87 0.376,1.546 0,0.4 -0.055,0.739 -0.162,1.016 a 1.351,1.351 0 0 1 -0.479,0.636 0.743,0.743 0 0 1 0.382,0.392 c 0.077,0.18 0.126,0.495 0.146,0.946 l 0.052,1.185 c 0.012,0.256 0.033,0.445 0.064,0.564 a 0.54,0.54 0 0 0 0.15,0.271 v 0.2 h -0.733 c -0.032,-0.079 -0.059,-0.197 -0.079,-0.354 -0.02,-0.157 -0.036,-0.369 -0.048,-0.636 l -0.034,-0.944 c -0.018,-0.476 -0.083,-0.785 -0.194,-0.929 -0.111,-0.144 -0.392,-0.215 -0.84,-0.215 h -0.666 v 3.078 h -0.649 z m 1.441,-6.396 h -0.792 v 2.426 h 0.748 c 0.38,0 0.646,-0.094 0.795,-0.282 0.15,-0.188 0.226,-0.501 0.226,-0.939 0,-0.431 -0.074,-0.739 -0.222,-0.926 -0.149,-0.186 -0.4,-0.279 -0.755,-0.279 z m 4.024,-0.893 c 0.608,0 1.061,0.301 1.359,0.903 0.298,0.602 0.446,1.515 0.446,2.739 0,1.166 -0.156,2.065 -0.471,2.698 -0.314,0.632 -0.759,0.949 -1.335,0.949 h -1.614 v -7.289 z m -0.048,0.872 h -0.914 v 5.544 h 0.914 c 0.4,0 0.698,-0.227 0.892,-0.682 0.193,-0.455 0.29,-1.152 0.29,-2.093 0,-0.981 -0.093,-1.688 -0.276,-2.121 -0.185,-0.431 -0.487,-0.648 -0.906,-0.648 z"
         id="path276"
         inkscape:connector-curvature="0" />
      <g
         id="g280">
        <path
           d="m 414.21,125.635 0.56,0.115 c -0.118,0.375 -0.328,0.662 -0.633,0.859 -0.305,0.197 -0.678,0.296 -1.117,0.296 -0.456,0 -0.826,-0.076 -1.111,-0.228 -0.285,-0.152 -0.503,-0.371 -0.651,-0.659 a 1.985,1.985 0 0 1 -0.224,-0.926 c 0,-0.36 0.084,-0.674 0.252,-0.941 a 1.59,1.59 0 0 1 0.718,-0.61 2.481,2.481 0 0 1 1.025,-0.208 c 0.423,0 0.778,0.088 1.066,0.264 0.288,0.176 0.489,0.423 0.603,0.742 l -0.551,0.106 c -0.098,-0.251 -0.24,-0.434 -0.427,-0.549 -0.187,-0.115 -0.421,-0.172 -0.703,-0.172 -0.325,0 -0.597,0.063 -0.814,0.191 a 1.053,1.053 0 0 0 -0.46,0.512 1.734,1.734 0 0 0 -0.133,0.664 c 0,0.293 0.053,0.55 0.157,0.769 0.105,0.219 0.268,0.383 0.489,0.492 0.221,0.108 0.46,0.163 0.718,0.163 0.313,0 0.578,-0.074 0.795,-0.222 0.217,-0.149 0.364,-0.368 0.441,-0.658 z m 1.289,1.211 v -3.455 h 1.456 c 0.329,0 0.579,0.017 0.752,0.05 0.242,0.045 0.449,0.128 0.62,0.247 0.223,0.154 0.39,0.351 0.5,0.59 0.11,0.24 0.166,0.514 0.166,0.821 0,0.262 -0.037,0.495 -0.112,0.697 -0.075,0.203 -0.171,0.371 -0.288,0.503 -0.117,0.132 -0.246,0.237 -0.385,0.313 a 1.78,1.78 0 0 1 -0.505,0.173 3.44,3.44 0 0 1 -0.679,0.059 h -1.525 z m 0.559,-0.408 h 0.902 c 0.278,0 0.497,-0.021 0.655,-0.063 0.159,-0.042 0.285,-0.102 0.38,-0.179 0.132,-0.108 0.235,-0.254 0.31,-0.437 0.075,-0.183 0.111,-0.405 0.111,-0.666 0,-0.361 -0.073,-0.639 -0.218,-0.833 a 1.055,1.055 0 0 0 -0.529,-0.39 c -0.149,-0.047 -0.391,-0.071 -0.724,-0.071 h -0.888 v 2.639 z m 3.478,-0.629 v -0.427 h 1.594 v 0.427 z m 2.283,1.037 v -3.455 h 1.874 c 0.377,0 0.663,0.031 0.858,0.093 0.196,0.062 0.354,0.171 0.471,0.329 0.117,0.158 0.176,0.331 0.176,0.521 a 0.793,0.793 0 0 1 -0.291,0.62 c -0.194,0.168 -0.494,0.275 -0.899,0.32 0.147,0.058 0.26,0.116 0.337,0.172 0.163,0.123 0.318,0.276 0.464,0.459 l 0.735,0.94 h -0.703 l -0.56,-0.719 a 6.683,6.683 0 0 0 -0.403,-0.476 c -0.105,-0.11 -0.2,-0.187 -0.284,-0.231 -0.084,-0.044 -0.169,-0.074 -0.255,-0.092 a 2.03,2.03 0 0 0 -0.312,-0.017 h -0.648 v 1.534 h -0.56 z m 0.56,-1.93 h 1.202 c 0.255,0 0.455,-0.022 0.6,-0.065 a 0.629,0.629 0 0 0 0.328,-0.208 0.489,0.489 0 0 0 0.112,-0.31 0.476,0.476 0 0 0 -0.218,-0.403 c -0.145,-0.105 -0.374,-0.158 -0.688,-0.158 h -1.337 v 1.144 z m 3.566,0.247 c 0,-0.573 0.188,-1.022 0.565,-1.347 0.376,-0.324 0.862,-0.486 1.458,-0.486 0.391,0 0.742,0.076 1.056,0.229 0.313,0.152 0.552,0.365 0.716,0.637 0.164,0.273 0.247,0.582 0.247,0.927 0,0.351 -0.087,0.664 -0.26,0.94 -0.173,0.276 -0.418,0.486 -0.735,0.628 a 2.477,2.477 0 0 1 -1.026,0.213 c -0.397,0 -0.753,-0.079 -1.066,-0.236 a 1.679,1.679 0 0 1 -0.955,-1.505 z m 0.577,0.007 c 0,0.416 0.137,0.744 0.41,0.984 0.274,0.239 0.617,0.359 1.03,0.359 0.421,0 0.768,-0.121 1.04,-0.363 0.271,-0.242 0.407,-0.585 0.407,-1.03 0,-0.281 -0.058,-0.526 -0.174,-0.736 a 1.2,1.2 0 0 0 -0.511,-0.488 1.626,1.626 0 0 0 -0.754,-0.173 c -0.396,0 -0.736,0.111 -1.021,0.333 -0.284,0.223 -0.427,0.594 -0.427,1.114 z m 4.21,1.676 v -3.455 h 0.842 l 1,2.446 c 0.092,0.228 0.159,0.398 0.201,0.511 0.049,-0.126 0.123,-0.311 0.226,-0.554 l 1.012,-2.404 h 0.752 v 3.455 h -0.539 v -2.891 l -1.228,2.891 h -0.505 l -1.222,-2.941 v 2.941 h -0.539 z m 4.611,-2.148 a 0.632,0.632 0 0 1 0.168,-0.334 c 0.15,-0.168 0.398,-0.354 0.742,-0.558 0.344,-0.204 0.548,-0.335 0.612,-0.394 0.089,-0.08 0.133,-0.162 0.133,-0.246 a 0.274,0.274 0 0 0 -0.125,-0.231 c -0.084,-0.061 -0.207,-0.091 -0.369,-0.091 -0.158,0 -0.275,0.023 -0.354,0.069 a 0.498,0.498 0 0 0 -0.191,0.265 l -0.541,-0.047 c 0.069,-0.217 0.189,-0.376 0.36,-0.479 0.171,-0.103 0.416,-0.154 0.736,-0.154 0.36,0 0.625,0.058 0.794,0.173 0.168,0.115 0.252,0.256 0.252,0.422 0,0.164 -0.07,0.319 -0.211,0.466 -0.107,0.109 -0.353,0.276 -0.734,0.501 -0.199,0.119 -0.34,0.214 -0.423,0.284 h 1.383 v 0.354 z"
           id="path278"
           inkscape:connector-curvature="0" />
      </g>
      <g
         id="g292">
        <path
           d="m 454.098,172.263 h -3.473 c -0.159,0 -0.225,-0.065 -0.225,-0.222 0,-0.567 -10e-4,-1.134 0.001,-1.701 0,-0.083 -0.019,-0.101 -0.104,-0.082 a 2.137,2.137 0 0 1 -0.382,0.05 14.5,14.5 0 0 0 -0.726,0.047 c -0.625,0.054 -1.25,0.034 -1.875,0.032 a 11.34,11.34 0 0 1 -1.025,-0.06 c -0.276,-0.026 -0.553,-0.043 -0.826,-0.097 -0.066,-0.013 -0.1,0.002 -0.099,0.087 0.004,0.574 0.002,1.148 0.002,1.721 0,0.159 -0.065,0.225 -0.222,0.225 h -2.114 c -0.157,0 -0.221,-0.066 -0.221,-0.226 0,-0.711 -0.003,-1.423 0.003,-2.134 10e-4,-0.115 -0.05,-0.164 -0.141,-0.195 -0.263,-0.091 -0.523,-0.189 -0.796,-0.249 -0.079,-0.017 -0.153,-0.059 -0.226,-0.094 -0.108,-0.052 -0.114,-0.103 -0.033,-0.188 0.278,-0.293 0.599,-0.538 0.963,-0.703 0.197,-0.089 0.239,-0.191 0.234,-0.384 -0.012,-0.5 -0.004,-1 -0.004,-1.5 0,-0.164 0.063,-0.226 0.231,-0.226 h 2.104 c 0.158,0 0.222,0.065 0.222,0.224 0,0.768 0.002,1.537 -0.002,2.305 0,0.09 0.028,0.129 0.112,0.15 0.151,0.036 0.3,0.069 0.456,0.081 0.284,0.022 0.567,0.052 0.85,0.078 0.02,0.002 0.04,0.001 0.06,0.001 0.234,0.007 0.468,0.003 0.7,0.024 0.144,0.013 0.287,0.021 0.429,0.014 0.473,-0.023 0.945,-0.048 1.418,-0.064 a 4.96,4.96 0 0 0 0.856,-0.093 c 0.146,-0.031 0.154,-0.031 0.154,-0.181 v -2.315 c 0,-0.158 0.065,-0.223 0.223,-0.223 h 6.926 c 0.153,0 0.22,0.066 0.22,0.217 v 0.574 c 0,0.15 -0.067,0.216 -0.22,0.216 h -4.439 c -0.134,0 -0.171,0.033 -0.172,0.169 -0.002,0.356 0,0.711 -0.001,1.067 0,0.06 0.012,0.088 0.08,0.064 0.082,-0.029 0.172,-0.023 0.256,-0.027 a 27.857,27.857 0 0 1 1.939,-0.022 c 0.335,0.005 0.671,0.026 1.005,0.061 0.435,0.046 0.875,0.063 1.302,0.177 0.046,0.012 0.104,0.014 0.107,0.067 0.002,0.05 -0.027,0.1 -0.07,0.135 -0.269,0.217 -0.557,0.408 -0.837,0.608 -0.053,0.038 -0.108,0.076 -0.16,0.116 -0.091,0.071 -0.193,0.074 -0.294,0.057 a 0.794,0.794 0 0 0 -0.168,-0.014 4.792,4.792 0 0 1 -0.71,-0.028 c -0.448,-0.049 -0.895,-0.031 -1.342,-0.03 -0.308,0.001 -0.616,0.037 -0.924,0.057 -0.013,0.001 -0.026,0.007 -0.039,0.008 -0.119,0.008 -0.148,0.068 -0.146,0.186 0.009,0.376 0.003,0.752 0.003,1.127 0,0.133 0.056,0.188 0.194,0.188 h 4.429 c 0.16,0 0.209,0.048 0.209,0.206 v 0.534 c 0,0.132 -0.055,0.187 -0.188,0.187 z m -2.709,1.933 h -0.795 c -0.18,0 -0.344,-0.149 -0.378,-0.328 A 1.715,1.715 0 0 1 450.2,173.47 c 0.004,-0.098 -0.028,-0.159 -0.114,-0.198 a 0.194,0.194 0 0 1 -0.042,-0.025 c -0.151,-0.126 -0.145,-0.203 0.026,-0.296 0.071,-0.039 0.1,-0.102 0.126,-0.17 a 0.364,0.364 0 0 1 0.051,-0.095 c 0.041,-0.054 0.095,-0.043 0.147,-0.037 0.048,0.005 0.055,0.052 0.065,0.09 0.052,0.202 0.087,0.23 0.292,0.23 h 1.489 c 0.136,0 0.187,0.031 0.192,0.118 0.007,0.116 -0.045,0.169 -0.181,0.184 -0.023,0.003 -0.047,0.001 -0.07,0.001 -0.48,0 -0.959,0.001 -1.439,-0.001 a 0.389,0.389 0 0 0 -0.163,0.032 c -0.065,0.029 -0.109,0.071 -0.101,0.153 0.006,0.06 10e-4,0.121 10e-4,0.181 0,0.208 0.051,0.259 0.259,0.259 h 1.509 c 0.137,0 0.203,0.073 0.161,0.195 -0.033,0.095 -0.13,0.105 -0.215,0.106 -0.267,0.002 -0.535,-0.001 -0.804,-0.001 z m 3.622,-0.548 c 0,-0.173 -0.008,-0.311 0.002,-0.448 0.01,-0.135 0.091,-0.22 0.242,-0.227 0.268,-0.013 0.537,-0.01 0.804,0 0.14,0.006 0.282,0.083 0.419,0.051 0.337,-0.079 0.676,-0.049 1.015,-0.056 0.248,-0.005 0.342,0.105 0.336,0.332 -0.005,0.218 -0.002,0.436 -0.001,0.654 0,0.047 -0.013,0.091 -0.02,0.136 -0.018,0.118 -0.1,0.117 -0.184,0.104 -0.085,-0.013 -0.078,-0.085 -0.078,-0.148 v -0.553 c -10e-4,-0.138 -0.082,-0.222 -0.219,-0.223 h -0.533 c -0.179,0 -0.268,0.115 -0.258,0.255 0.012,0.17 0.003,0.342 0.003,0.513 0,0.106 -0.042,0.159 -0.121,0.159 -0.079,0 -0.12,-0.053 -0.12,-0.159 -10e-4,-0.171 -0.009,-0.343 0.003,-0.513 0.01,-0.139 -0.076,-0.251 -0.248,-0.254 a 20.388,20.388 0 0 0 -0.553,0 c -0.123,0.001 -0.207,0.088 -0.208,0.213 v 0.573 c 0,0.061 0.001,0.128 -0.079,0.137 -0.077,0.009 -0.157,0.022 -0.183,-0.094 -0.037,-0.162 -0.006,-0.325 -0.019,-0.452 z m -8.938,1.025 c -0.102,0 -0.158,-0.07 -0.114,-0.159 0.042,-0.085 0.092,-0.159 0.146,-0.245 0.032,-0.043 0.045,-0.1 0.01,-0.146 a 5.908,5.908 0 0 0 -0.223,-0.271 c -0.211,-0.215 -0.416,-0.437 -0.626,-0.653 -0.047,-0.049 -0.086,-0.105 -0.05,-0.168 0.042,-0.072 0.122,-0.075 0.197,-0.06 a 0.197,0.197 0 0 1 0.095,0.049 c 0.184,0.185 0.378,0.359 0.542,0.563 0.076,0.094 0.157,0.184 0.239,0.274 0.051,0.056 0.106,0.052 0.153,-0.005 0.085,-0.103 0.168,-0.209 0.251,-0.314 0.145,-0.182 0.286,-0.382 0.455,-0.53 0.089,-0.073 0.173,-0.081 0.233,-0.002 0.033,0.043 0.05,0.064 0.025,0.122 -0.072,0.11 -0.168,0.2 -0.246,0.304 a 12.6,12.6 0 0 1 -0.508,0.644 c -0.15,0.177 -0.287,0.365 -0.456,0.526 -0.039,0.04 -0.07,0.076 -0.123,0.071 z m 7.029,-0.944 c 0.039,-0.019 0.078,-0.016 0.117,-0.016 l 1.388,-0.001 c 0.126,0 0.181,-0.047 0.226,-0.166 0.025,-0.066 0.014,-0.132 0.015,-0.197 0.002,-0.258 -0.046,-0.319 -0.291,-0.376 -0.029,-0.007 -0.06,-0.005 -0.09,-0.005 l -1.338,-10e-4 c -0.083,0 -0.167,0 -0.247,0.022 -0.151,0.042 -0.295,0.109 -0.289,0.354 0.004,0.144 -0.007,0.289 0.003,0.432 0.01,0.146 0.033,0.294 0.201,0.351 0.112,0.038 0.226,0.069 0.346,0.069 h 0.704 c 0.248,0 0.496,0.002 0.744,-0.001 0.083,-10e-4 0.175,-0.013 0.212,-0.098 0.05,-0.115 -0.019,-0.202 -0.152,-0.202 l -1.458,-0.001 c -0.033,0 -0.065,0.005 -0.098,-0.009 -0.049,-0.021 -0.077,-0.056 -0.076,-0.105 10e-4,-0.052 0.053,-0.035 0.083,-0.05 z m -0.141,-0.388 c 0,-0.051 0.041,-0.092 0.092,-0.092 h 1.361 c 0.051,0 0.092,0.041 0.092,0.092 a 0.092,0.092 0 0 1 -0.092,0.092 h -1.361 a 0.092,0.092 0 0 1 -0.092,-0.092 z m -3.73,0.372 h 0.112 a 0.091,0.091 0 0 1 0,0.182 h -0.888 l -0.699,-0.001 -0.029,0.001 a 0.152,0.152 0 0 0 -0.151,0.151 c 0,0.083 0.068,0.151 0.151,0.151 h 0.153 c 0.241,-0.002 0.483,-0.001 0.724,-0.001 0.255,0 0.51,0.003 0.765,-0.001 a 0.432,0.432 0 0 0 0.285,-0.09 c 0.1,-0.086 0.142,-0.356 0.081,-0.491 -0.068,-0.15 -0.197,-0.2 -0.346,-0.202 -0.362,-0.004 -0.724,-0.001 -1.087,-0.002 h -0.207 c -0.051,0 -0.092,-0.032 -0.092,-0.07 0,-0.038 0.041,-0.07 0.092,-0.07 h 1.382 a 0.34,0.34 0 0 0 0.126,-0.02 c 0.104,-0.038 0.134,-0.082 0.109,-0.189 -0.018,-0.08 -0.084,-0.093 -0.155,-0.093 -0.476,0 -0.953,0.001 -1.429,-10e-4 a 1.67,1.67 0 0 0 -0.344,0.037 c -0.119,0.025 -0.182,0.093 -0.2,0.2 a 0.75,0.75 0 0 0 0,0.25 c 0.018,0.101 0.073,0.177 0.187,0.204 0.113,0.027 0.225,0.052 0.34,0.053 0.375,0.004 0.747,0.002 1.12,0.002 m -4.791,0 h 0.112 a 0.091,0.091 0 0 1 0,0.182 h -0.888 l -0.699,-0.001 -0.029,0.001 a 0.152,0.152 0 0 0 -0.151,0.151 c 0,0.083 0.068,0.151 0.151,0.151 h 0.153 c 0.241,-0.002 0.483,-0.001 0.724,-0.001 0.255,0 0.51,0.003 0.765,-0.001 a 0.432,0.432 0 0 0 0.285,-0.09 c 0.1,-0.086 0.142,-0.356 0.081,-0.491 -0.068,-0.15 -0.197,-0.2 -0.346,-0.202 -0.362,-0.004 -0.724,-0.001 -1.087,-0.002 h -0.207 c -0.051,0 -0.092,-0.032 -0.092,-0.07 0,-0.038 0.041,-0.07 0.092,-0.07 h 1.382 a 0.34,0.34 0 0 0 0.126,-0.02 c 0.103,-0.038 0.134,-0.082 0.109,-0.189 -0.018,-0.08 -0.084,-0.093 -0.155,-0.093 -0.476,0 -0.952,0.001 -1.429,-10e-4 a 1.67,1.67 0 0 0 -0.344,0.037 c -0.119,0.025 -0.182,0.093 -0.2,0.2 a 0.75,0.75 0 0 0 0,0.25 c 0.018,0.101 0.073,0.177 0.187,0.204 0.113,0.027 0.225,0.052 0.34,0.053 0.375,0.004 0.747,0.002 1.12,0.002"
           id="path282"
           inkscape:connector-curvature="0" />
        <g
           id="g290">
          <path
             d="m 392.321,174.725 -1.543,-4.295 h 0.57 l 1.035,3.12 c 0.083,0.25 0.153,0.484 0.209,0.703 0.062,-0.234 0.133,-0.469 0.215,-0.703 l 1.075,-3.12 h 0.538 l -1.56,4.295 z m 4.216,-1.002 0.505,0.067 c -0.08,0.318 -0.228,0.565 -0.442,0.741 -0.216,0.176 -0.491,0.264 -0.826,0.264 -0.422,0 -0.757,-0.14 -1.004,-0.42 -0.247,-0.28 -0.37,-0.673 -0.37,-1.179 0,-0.523 0.125,-0.93 0.374,-1.219 0.25,-0.289 0.574,-0.434 0.973,-0.434 0.386,0 0.701,0.142 0.945,0.425 0.244,0.283 0.367,0.682 0.367,1.195 l -0.003,0.141 h -2.151 c 0.018,0.342 0.107,0.604 0.269,0.785 0.162,0.181 0.362,0.272 0.604,0.272 0.179,0 0.332,-0.051 0.459,-0.152 0.127,-0.101 0.226,-0.263 0.3,-0.486 z m -1.605,-0.853 h 1.61 c -0.021,-0.262 -0.083,-0.458 -0.185,-0.589 a 0.729,0.729 0 0 0 -0.605,-0.305 0.745,0.745 0 0 0 -0.566,0.243 c -0.153,0.163 -0.238,0.38 -0.254,0.651 z m 2.758,1.855 v -3.111 h 0.44 v 0.472 c 0.111,-0.221 0.216,-0.366 0.311,-0.437 0.095,-0.071 0.199,-0.105 0.313,-0.105 a 0.91,0.91 0 0 1 0.503,0.17 l -0.169,0.489 a 0.66,0.66 0 0 0 -0.358,-0.114 0.45,0.45 0 0 0 -0.288,0.104 0.566,0.566 0 0 0 -0.182,0.289 2.184,2.184 0 0 0 -0.081,0.615 v 1.629 h -0.489 z m 3.041,-1.134 0.489,-0.07 c 0.056,0.299 0.151,0.514 0.286,0.646 0.135,0.132 0.3,0.198 0.493,0.198 0.23,0 0.424,-0.086 0.583,-0.258 a 0.91,0.91 0 0 0 0.237,-0.639 c 0,-0.242 -0.073,-0.442 -0.22,-0.599 -0.147,-0.157 -0.333,-0.236 -0.56,-0.236 -0.093,0 -0.208,0.02 -0.345,0.059 l 0.054,-0.463 a 0.96,0.96 0 0 0 0.642,-0.17 c 0.166,-0.117 0.25,-0.298 0.25,-0.542 0,-0.193 -0.062,-0.354 -0.183,-0.48 -0.121,-0.126 -0.277,-0.19 -0.47,-0.19 -0.19,0 -0.349,0.064 -0.476,0.193 -0.127,0.129 -0.208,0.322 -0.244,0.58 l -0.489,-0.094 c 0.06,-0.354 0.196,-0.627 0.407,-0.822 0.212,-0.194 0.476,-0.292 0.791,-0.292 0.217,0 0.417,0.05 0.601,0.151 0.183,0.101 0.322,0.238 0.419,0.412 0.097,0.174 0.146,0.358 0.146,0.554 a 0.954,0.954 0 0 1 -0.139,0.507 0.967,0.967 0 0 1 -0.41,0.363 c 0.235,0.059 0.419,0.18 0.549,0.365 0.131,0.185 0.195,0.416 0.195,0.693 0,0.375 -0.126,0.693 -0.38,0.954 -0.254,0.261 -0.574,0.391 -0.962,0.391 -0.35,0 -0.64,-0.112 -0.87,-0.337 -0.23,-0.225 -0.361,-0.516 -0.394,-0.874 z m 5.496,-3.234 c 0.263,0 0.478,0.098 0.643,0.293 0.166,0.195 0.249,0.465 0.249,0.809 0,0.342 -0.084,0.61 -0.25,0.806 a 0.804,0.804 0 0 1 -0.639,0.293 c -0.263,0 -0.477,-0.096 -0.644,-0.287 -0.167,-0.191 -0.25,-0.458 -0.25,-0.8 0,-0.352 0.083,-0.625 0.249,-0.82 a 0.798,0.798 0 0 1 0.642,-0.294 z m 0,0.389 a 0.433,0.433 0 0 0 -0.354,0.167 c -0.089,0.111 -0.134,0.293 -0.134,0.545 0,0.246 0.046,0.426 0.137,0.541 a 0.432,0.432 0 0 0 0.352,0.171 c 0.146,0 0.263,-0.057 0.354,-0.171 0.091,-0.114 0.136,-0.299 0.136,-0.555 0,-0.238 -0.046,-0.414 -0.137,-0.527 a 0.437,0.437 0 0 0 -0.354,-0.171 z"
             id="path284"
             inkscape:connector-curvature="0" />
          <circle
             cx="399.69601"
             cy="174.425"
             r="0.30000001"
             id="circle286" />
          <circle
             cx="404.41101"
             cy="172.61099"
             r="0.30000001"
             id="circle288" />
        </g>
      </g>
    </g>
    <radialGradient
       id="c"
       cx="425.45499"
       cy="158.89101"
       r="16.541"
       gradientTransform="matrix(-0.5,-0.866,1.7321,-1,362.975,686.237)"
       gradientUnits="userSpaceOnUse">
      <stop
         offset="0"
         stop-color="#c9cdd0"
         id="stop296" />
      <stop
         offset=".398"
         stop-color="#82848a"
         id="stop298" />
      <stop
         offset=".808"
         stop-color="#3f3f48"
         id="stop300" />
      <stop
         offset="1"
         stop-color="#24242e"
         id="stop302" />
    </radialGradient>
    <path
       d="m 403.777,167.212 c 0.558,1.454 10.716,-1.092 22.688,-5.688 11.972,-4.596 21.225,-9.5 20.667,-10.954 -0.558,-1.454 -10.716,1.092 -22.688,5.688 -11.972,4.596 -21.225,9.5 -20.667,10.954 z"
       id="path305"
       inkscape:connector-curvature="0"
       style="fill:url(#c)" />
    <radialGradient
       id="d"
       cx="399.242"
       cy="151.58"
       r="6.2360001"
       gradientTransform="matrix(0.4932,-1.3704,-1.0426,-0.7779,417.682,807.793)"
       gradientUnits="userSpaceOnUse">
      <stop
         offset="0"
         stop-color="#e3569b"
         id="stop307" />
      <stop
         offset=".106"
         stop-color="#d95395"
         id="stop309" />
      <stop
         offset=".288"
         stop-color="#bd4c86"
         id="stop311" />
      <stop
         offset=".524"
         stop-color="#91416c"
         id="stop313" />
      <stop
         offset=".801"
         stop-color="#543149"
         id="stop315" />
      <stop
         offset="1"
         stop-color="#24242e"
         id="stop317" />
    </radialGradient>
    <path
       d="m 461.725,144.257 c -0.238,0.831 -2.752,0.839 -5.614,0.018 -2.862,-0.821 -4.99,-2.159 -4.752,-2.99 0.238,-0.831 2.752,-0.839 5.614,-0.018 2.863,0.821 4.99,2.16 4.752,2.99 z"
       id="path320"
       inkscape:connector-curvature="0"
       style="fill:url(#d)" />
    <radialGradient
       id="e"
       cx="444.5"
       cy="138.254"
       r="6.2360001"
       gradientTransform="matrix(-0.522,-0.6888,0.5145,-0.6597,591.455,540.438)"
       gradientUnits="userSpaceOnUse">
      <stop
         offset="0"
         stop-color="#572e8c"
         id="stop322" />
      <stop
         offset=".233"
         stop-color="#3d378f"
         id="stop324" />
      <stop
         offset=".475"
         stop-color="#2b3d91"
         id="stop326" />
      <stop
         offset=".727"
         stop-color="#204193"
         id="stop328" />
      <stop
         offset="1"
         stop-color="#1c4293"
         id="stop330" />
    </radialGradient>
    <path
       d="m 427.629,144.986 c 0.279,0.43 1.821,-0.076 3.444,-1.13 1.623,-1.054 2.713,-2.257 2.434,-2.687 -0.279,-0.43 -1.821,0.076 -3.444,1.13 -1.623,1.054 -2.713,2.257 -2.434,2.687 z"
       id="path333"
       inkscape:connector-curvature="0"
       style="fill:url(#e)" />
    <radialGradient
       id="f"
       cx="414.039"
       cy="146.07001"
       r="6.2360001"
       gradientTransform="matrix(1.1247,-0.9438,-0.3064,-0.4177,-1.415,595.963)"
       gradientUnits="userSpaceOnUse">
      <stop
         offset="0"
         stop-color="#f35fa9"
         id="stop335" />
      <stop
         offset=".069"
         stop-color="#d557a3"
         id="stop337" />
      <stop
         offset=".196"
         stop-color="#a34b99"
         id="stop339" />
      <stop
         offset=".325"
         stop-color="#784090"
         id="stop341" />
      <stop
         offset=".456"
         stop-color="#563789"
         id="stop343" />
      <stop
         offset=".588"
         stop-color="#3b3184"
         id="stop345" />
      <stop
         offset=".721"
         stop-color="#272c80"
         id="stop347" />
      <stop
         offset=".857"
         stop-color="#1c297e"
         id="stop349" />
      <stop
         offset="1"
         stop-color="#18287d"
         id="stop351" />
    </radialGradient>
    <path
       d="m 423.388,148.637 c -0.651,0.566 -2.912,-0.968 -5.049,-3.427 -2.137,-2.459 -3.342,-4.911 -2.691,-5.477 0.651,-0.566 2.912,0.968 5.049,3.427 2.137,2.459 3.342,4.911 2.691,5.477 z"
       id="path354"
       inkscape:connector-curvature="0"
       style="fill:url(#f)" />
    <radialGradient
       id="g"
       cx="399.185"
       cy="167.04601"
       r="3.3570001"
       gradientTransform="matrix(-0.3745,-1.0288,1.7985,-0.6486,265.425,688.235)"
       gradientUnits="userSpaceOnUse">
      <stop
         offset="0"
         stop-color="#f35fa9"
         id="stop356" />
      <stop
         offset=".051"
         stop-color="#dd59a5"
         id="stop358" />
      <stop
         offset=".185"
         stop-color="#a94d9a"
         id="stop360" />
      <stop
         offset=".322"
         stop-color="#7d4191"
         id="stop362" />
      <stop
         offset=".458"
         stop-color="#58388a"
         id="stop364" />
      <stop
         offset=".594"
         stop-color="#3c3184"
         id="stop366" />
      <stop
         offset=".73"
         stop-color="#282c80"
         id="stop368" />
      <stop
         offset=".865"
         stop-color="#1c297e"
         id="stop370" />
      <stop
         offset="1"
         stop-color="#18287d"
         id="stop372" />
    </radialGradient>
    <path
       d="m 411.913,170.907 c 0.124,0.323 2.22,-0.181 4.68,-1.125 2.461,-0.945 4.355,-1.972 4.231,-2.296 -0.124,-0.323 -2.22,0.181 -4.68,1.125 -2.46,0.945 -4.355,1.973 -4.231,2.296 z"
       id="path375"
       inkscape:connector-curvature="0"
       style="fill:url(#g)" />
    <radialGradient
       id="h"
       cx="431.69601"
       cy="173.97501"
       r="5.3660002"
       gradientTransform="matrix(-0.5,0.866,-2.5981,-1.5,1099.545,61.078)"
       gradientUnits="userSpaceOnUse">
      <stop
         offset="0"
         stop-color="#f35fa9"
         id="stop377" />
      <stop
         offset=".109"
         stop-color="#cc55a1"
         id="stop379" />
      <stop
         offset=".28"
         stop-color="#964896"
         id="stop381" />
      <stop
         offset=".447"
         stop-color="#693c8d"
         id="stop383" />
      <stop
         offset=".606"
         stop-color="#463386"
         id="stop385" />
      <stop
         offset=".755"
         stop-color="#2d2d81"
         id="stop387" />
      <stop
         offset=".891"
         stop-color="#1d297e"
         id="stop389" />
      <stop
         offset="1"
         stop-color="#18287d"
         id="stop391" />
    </radialGradient>
    <path
       d="m 437.136,179.267 h -3.441 a 74.584,74.584 0 0 1 -1.63,-1.816 c -3.744,-4.307 -6.308,-8.208 -5.727,-8.713 0.581,-0.505 4.087,2.577 7.831,6.884 a 68.823,68.823 0 0 1 2.967,3.645 z"
       id="path394"
       inkscape:connector-curvature="0"
       style="fill:url(#h)" />
    <radialGradient
       id="i"
       cx="442.65601"
       cy="161.55701"
       r="2.5239999"
       gradientTransform="matrix(-0.5,0.866,-2.5981,-1.5,1083.723,20.542)"
       gradientUnits="userSpaceOnUse">
      <stop
         offset="0"
         stop-color="#f35fa9"
         id="stop396" />
      <stop
         offset=".099"
         stop-color="#ec5da8"
         id="stop398" />
      <stop
         offset=".239"
         stop-color="#da59a4"
         id="stop400" />
      <stop
         offset=".405"
         stop-color="#bb519e"
         id="stop402" />
      <stop
         offset=".589"
         stop-color="#904695"
         id="stop404" />
      <stop
         offset=".79"
         stop-color="#5a388a"
         id="stop406" />
      <stop
         offset="1"
         stop-color="#18287d"
         id="stop408" />
    </radialGradient>
    <path
       d="m 444.668,161.738 c 0.348,0.987 1.409,1.979 0.417,1.979 -0.48,0 -2.338,0.06 -3.5,-0.729 -1.24,-0.842 -1.771,-2.55 -1.771,-3.063 0,-0.992 1.784,-0.281 2.776,-0.281 0.992,0 1.748,1.158 2.078,2.094 z"
       id="path411"
       inkscape:connector-curvature="0"
       style="fill:url(#i)" />
    <radialGradient
       id="j"
       cx="458.34299"
       cy="157.321"
       r="7.7389998"
       gradientTransform="matrix(-0.5,0.866,-2.5981,-1.5,1096.246,-3.635)"
       gradientUnits="userSpaceOnUse">
      <stop
         offset="0"
         stop-color="#f35fa9"
         id="stop413" />
      <stop
         offset=".302"
         stop-color="#a84c9a"
         id="stop415" />
      <stop
         offset=".64"
         stop-color="#5b398a"
         id="stop417" />
      <stop
         offset=".881"
         stop-color="#2b2d81"
         id="stop419" />
      <stop
         offset="1"
         stop-color="#18287d"
         id="stop421" />
    </radialGradient>
    <path
       d="m 456.397,147.352 c -0.363,0.048 -0.443,1.651 -0.438,2.375 0.009,1.146 0.25,2.026 0.5,2.938 0.845,3.084 0.875,3.187 0.875,3.188 0.168,0.572 0.223,0.741 0.125,0.938 -0.346,0.697 -1.87,0.242 -3.188,1.25 -0.118,0.09 -0.504,0.385 -0.438,0.563 0.04,0.108 0.25,0.171 0.875,0.125 1.741,-0.129 2.563,-0.797 3.063,-0.438 0.198,0.142 0.224,0.358 0.313,0.813 0.224,1.146 1.502,5.646 1.625,6 0.269,0.777 0.774,2.232 1.25,2.188 0.079,-0.007 0.251,-0.065 0.438,-0.563 0.92,-2.455 -1.435,-7.342 -1.625,-8.25 -0.136,-0.65 -0.056,-0.866 0,-0.938 0.154,-0.198 0.351,-0.22 1.188,-0.375 1.046,-0.194 1.317,-0.266 1.563,-0.5 0.192,-0.183 0.409,-0.502 0.313,-0.688 -0.105,-0.202 -0.541,-0.162 -0.938,-0.125 a 5.875,5.875 0 0 0 -1.688,0.438 c -0.528,0.235 -0.706,0.168 -0.896,0.083 -0.297,-0.133 -0.364,-1.104 -0.411,-1.393 -0.175,-1.087 -0.386,-1.369 -0.568,-2.378 -0.38,-2.107 -1.411,-5.321 -1.938,-5.251 z"
       id="path424"
       inkscape:connector-curvature="0"
       style="fill:url(#j)" />
    <radialGradient
       id="k"
       cx="409.53201"
       cy="153.09599"
       r="3.8150001"
       gradientTransform="matrix(-0.5,0.866,-2.5981,-1.5,1012.052,28.074)"
       gradientUnits="userSpaceOnUse">
      <stop
         offset="0"
         stop-color="#da2477"
         id="stop426" />
      <stop
         offset=".225"
         stop-color="#a82579"
         id="stop428" />
      <stop
         offset=".6"
         stop-color="#5b277b"
         id="stop430" />
      <stop
         offset=".868"
         stop-color="#2b287c"
         id="stop432" />
      <stop
         offset="1"
         stop-color="#18287d"
         id="stop434" />
    </radialGradient>
    <path
       d="m 405.022,150.383 c -0.219,0.297 0.211,0.942 0.25,1 0.482,0.71 1.024,0.54 1.583,1.292 0.142,0.191 0.261,0.419 0.5,0.875 0.323,0.618 0.277,0.645 0.417,0.833 0.458,0.619 1.273,0.754 1.5,0.792 0.728,0.12 0.761,-0.076 1.5,0.052 0.592,0.102 1.518,0.594 2.5,0.719 0.576,0.073 0.711,-0.126 0.792,-0.229 0.158,-0.202 -0.202,-0.724 -0.25,-0.792 -0.513,-0.732 -1.06,-0.589 -1.708,-1.292 -0.167,-0.181 -0.334,-0.468 -0.667,-1.042 -0.586,-1.01 -0.456,-1.046 -0.667,-1.208 -0.623,-0.478 -1.285,0.205 -2.625,-0.208 a 9.027,9.027 0 0 1 -0.875,-0.333 c -0.612,-0.269 -0.724,-0.395 -1.125,-0.5 -0.235,-0.062 -0.917,-0.24 -1.125,0.041 z"
       id="path437"
       inkscape:connector-curvature="0"
       style="fill:url(#k)" />
    <radialGradient
       id="l"
       cx="395.83099"
       cy="143.37801"
       r="4.1350002"
       gradientTransform="matrix(-0.5,-0.866,1.7321,-1,345.408,629.556)"
       gradientUnits="userSpaceOnUse">
      <stop
         offset="0"
         stop-color="#da2477"
         id="stop439" />
      <stop
         offset=".224"
         stop-color="#ac2578"
         id="stop441" />
      <stop
         offset=".76"
         stop-color="#42277c"
         id="stop443" />
      <stop
         offset="1"
         stop-color="#18287d"
         id="stop445" />
    </radialGradient>
    <path
       d="m 391.147,145.665 c -0.269,-0.173 -0.387,-0.648 -0.25,-1 0.226,-0.58 0.962,-0.357 1.5,-1 0.445,-0.532 0.15,-0.935 0.563,-1.625 0.355,-0.593 0.903,-0.848 1.5,-1.125 0.236,-0.109 2.323,-1.08 3.25,-0.25 0.299,0.268 0.333,0.593 0.75,0.75 0.224,0.084 0.347,0.04 1,0 0.753,-0.046 1.133,-0.066 1.25,0.063 0.26,0.285 0.042,1.048 -0.375,1.5 -0.333,0.36 -0.559,0.269 -0.813,0.625 -0.302,0.425 -0.099,0.722 -0.313,1.188 -0.206,0.449 -0.613,0.645 -1.375,1 -0.955,0.444 -2.12,0.671 -2.75,0.63 -1.244,-0.082 -0.909,-0.921 -2,-0.786 -0.793,0.096 -1.765,0.14 -1.937,0.03 z"
       id="path448"
       inkscape:connector-curvature="0"
       style="fill:url(#l)" />
  </g>
</svg>
