<?xml version="1.0" encoding="UTF-8" standalone="no"?>
<svg
   xmlns:dc="http://purl.org/dc/elements/1.1/"
   xmlns:cc="http://creativecommons.org/ns#"
   xmlns:rdf="http://www.w3.org/1999/02/22-rdf-syntax-ns#"
   xmlns:svg="http://www.w3.org/2000/svg"
   xmlns="http://www.w3.org/2000/svg"
   xmlns:sodipodi="http://sodipodi.sourceforge.net/DTD/sodipodi-0.dtd"
   xmlns:inkscape="http://www.inkscape.org/namespaces/inkscape"
   viewBox="373.5 287.587 694 126.3825"
   version="1.1"
   id="svg14"
   sodipodi:docname="logo.svg"
   width="694"
   height="126.3825"
   inkscape:version="0.92.4 5da689c313, 2019-01-14">
  <metadata
     id="metadata20">
    <rdf:RDF>
      <cc:Work
         rdf:about="">
        <dc:format>image/svg+xml</dc:format>
        <dc:type
           rdf:resource="http://purl.org/dc/dcmitype/StillImage" />
      </cc:Work>
    </rdf:RDF>
  </metadata>
  <defs
     id="defs18" />
  <sodipodi:namedview
     pagecolor="#ffffff"
     bordercolor="#666666"
     borderopacity="1"
     objecttolerance="10"
     gridtolerance="10"
     guidetolerance="10"
     inkscape:pageopacity="0"
     inkscape:pageshadow="2"
     inkscape:window-width="640"
     inkscape:window-height="480"
     id="namedview16"
     showgrid="false"
     inkscape:zoom="0.39200256"
     inkscape:cx="345.66101"
     inkscape:cy="63.191497"
     inkscape:window-x="0"
     inkscape:window-y="0"
     inkscape:window-maximized="0"
     inkscape:current-layer="svg14" />
  <path
     d="m 671.299,298.801 c -0.226,-5.253 4.003,-10.263 9.17,-11.062 4.218,-0.162 8.441,0.006 12.664,-0.069 6.08,-0.642 11.768,5.097 11.444,11.114 -0.006,6.034 -0.023,12.068 0.006,18.097 -3.622,0.035 -7.238,0.012 -10.859,0.017 -0.017,-6.133 0.035,-12.259 -0.029,-18.392 -4.032,0.04 -8.065,0.029 -12.097,0.006 -0.052,34.041 -0.006,68.089 -0.023,102.13 4.154,-0.017 8.308,0.035 12.468,-0.035 -0.064,-16.477 -0.012,-32.954 -0.029,-49.431 h -5.496 v -9.835 c 5.34,-0.012 10.686,0.023 16.031,-0.017 0.029,23.107 0.058,46.214 -0.017,69.315 -7.457,-0.046 -14.915,-0.006 -22.372,-0.012 -4.339,0.012 -8.643,-2.748 -10.246,-6.809 -0.856,-2.123 -0.567,-4.449 -0.607,-6.676 -0.002,-32.78 0.01,-65.561 -0.008,-98.341 z m 61.326,9.569 c 7.087,0.006 14.18,-0.035 21.267,0.017 4.368,-0.052 8.834,2.326 10.697,6.364 0.764,1.522 0.566,3.263 0.596,4.906 -0.029,10.796 0,21.591 -0.017,32.387 -0.237,4.576 -3.477,9.239 -8.192,10.032 3.5,16.165 6.896,32.352 10.304,48.54 -3.309,0.006 -6.613,0.006 -9.916,0.006 -3.68,-16.02 -7.394,-32.022 -11.079,-48.036 -1.18,0.012 -2.355,0.017 -3.529,0.023 -0.012,16.055 0.017,32.109 -0.017,48.164 -3.373,-0.017 -6.746,0.006 -10.112,-0.017 0.015,-34.129 0.004,-68.258 -0.002,-102.386 z m 10.275,9.974 v 33.266 c 3.951,0.006 7.903,-0.006 11.854,0.006 0.017,-11.091 0.006,-22.181 0.006,-33.272 z m 49.761,-0.474 c 0.023,-4.651 3.894,-9.118 8.626,-9.338 4.646,-0.064 9.291,0.006 13.937,-0.035 2.372,-0.04 4.837,0.567 6.7,2.1 2.152,1.736 3.28,4.53 3.275,7.272 -0.006,30.917 0,61.835 0,92.752 h -9.98 c -0.006,-16.199 0.006,-32.404 -0.006,-48.603 -4.142,0.006 -8.285,0.012 -12.421,-0.006 -0.029,16.205 0.006,32.41 -0.023,48.615 -3.373,-0.012 -6.74,-0.006 -10.113,-0.006 0.005,-30.916 -0.013,-61.834 0.005,-92.751 z m 10.408,1.053 c 0.017,10.952 -0.035,21.904 0.023,32.855 3.946,-0.046 7.891,-0.017 11.837,-0.023 -0.006,-10.946 0.012,-21.892 -0.012,-32.838 -3.951,0.012 -7.897,0 -11.848,0.006 z m 47.585,-1.62 c 0.035,-4.49 3.963,-8.719 8.51,-8.788 5.699,-0.023 11.392,0.006 17.09,-0.006 v 9.112 c -5.103,-0.012 -10.206,0.023 -15.302,-0.023 -0.064,11.438 -0.017,22.87 -0.023,34.308 4.189,-0.012 8.383,-0.006 12.578,-0.006 0,3.373 -0.012,6.746 0.006,10.119 -4.194,0.012 -8.389,0.006 -12.583,0 -0.017,16.199 0,32.404 -0.006,48.603 h -10.269 c 0.005,-31.108 -10e-4,-62.217 -10e-4,-93.319 z m 51.056,-8.794 h 10.703 c 0.064,9.459 -0.133,18.93 0.093,28.383 1.817,3.032 3.934,5.884 5.832,8.875 1.863,-2.927 4.044,-5.664 5.722,-8.707 0.162,-9.505 0.035,-19.028 0.058,-28.54 3.575,-0.017 7.151,-0.023 10.726,0 -0.035,6.798 -0.006,13.596 -0.012,20.394 -0.041,3.159 0.301,6.422 -0.868,9.442 -2.372,6.323 -5.942,12.103 -9.488,17.813 4.032,6.48 8.406,13.04 10.258,20.527 0.214,11.351 0.058,22.725 0.075,34.082 -3.321,-0.023 -6.636,-0.006 -9.957,-0.012 -0.035,-11.409 0.069,-22.818 -0.046,-34.221 -1.678,-3.454 -4.206,-6.474 -6.219,-9.754 -2.071,3.17 -4.247,6.266 -6.329,9.424 -0.006,11.525 0.052,23.049 -0.023,34.574 -3.512,-0.052 -7.018,-0.012 -10.524,-0.023 -0.006,-10.703 0.012,-21.406 -0.006,-32.109 -0.046,-2.904 1.342,-5.56 2.494,-8.146 2.494,-5.01 5.409,-9.806 8.528,-14.452 -4.177,-6.404 -8.823,-12.803 -10.888,-20.261 -0.302,-9.082 -0.042,-18.194 -0.129,-27.289 z"
     id="path2"
     inkscape:connector-curvature="0"
     style="fill:#d5e14d" />
  <g
     id="g8"
     style="fill:#f79226">
    <path
       d="m 1039.502,343.858 h -16.641 v 32.002 h 16.641 z"
       id="path4"
       inkscape:connector-curvature="0" />
    <path
       d="m 1061.961,377.182 c 3.975,-11.611 3.778,-24.565 -0.405,-36.084 -3.616,-9.824 -10.084,-18.6 -18.502,-24.831 -11.611,-8.782 -26.862,-12.468 -41.21,-10.084 -18.074,2.742 -34.174,15.424 -41.227,32.271 -7.139,16.523 -5.317,36.57 4.813,51.473 9.725,14.753 27.064,24.195 44.773,24.033 11.831,0.231 23.639,-3.761 33.063,-10.882 8.623,-6.509 15.287,-15.633 18.695,-25.896 z m -83.813,-40.762 21.658,-0.012 c 1.331,1.331 2.51,2.432 3.854,3.776 v 8.794 h -6.4 a 336.087,336.087 0 0 1 0,-5.12 h -15.361 v 32.002 h 15.361 a 336.087,336.087 0 0 1 0,-5.12 h 6.4 v 8.794 c -1.344,1.344 -2.5,2.419 -3.832,3.763 h -21.68 l -3.674,-3.61 -0.025,-39.619 z m 33.192,7.438 v -7.45 h 31.9 l 3.712,3.648 v 39.593 l -3.699,3.648 h -31.992 c -0.012,-2.56 0.067,-4.877 0.08,-7.437 h 3.84 v -32.002 z"
       id="path6"
       inkscape:connector-curvature="0" />
  </g>
  <g
     id="g12">
    <path
       d="m 427.305,308.364 c 3.512,-0.012 7.018,0.023 10.53,-0.023 0.069,30.669 0.006,61.343 0.029,92.012 h 11.86 c 0.023,-30.674 -0.046,-61.343 0.035,-92.017 3.564,0.064 7.122,0 10.686,0.046 -0.04,29.396 -0.012,58.792 -0.017,88.187 -0.04,2.117 0.185,4.287 -0.341,6.364 -1.007,4.466 -5.357,7.851 -9.922,7.833 -4.241,0 -8.487,0.017 -12.728,-0.012 -5.542,-0.104 -10.246,-5.247 -10.101,-10.749 -0.072,-30.546 -0.014,-61.094 -0.031,-91.641 z m 59.879,0 c 7.301,0.04 14.614,-0.081 21.915,0.058 5.172,0.069 10.709,3.986 10.761,9.505 0.017,11.189 0.017,22.384 0,33.573 -0.04,4.842 -3.275,9.887 -8.256,10.784 3.448,16.159 6.838,32.323 10.298,48.476 -3.309,0.012 -6.619,0.006 -9.928,0.006 -3.662,-15.962 -7.376,-31.907 -11.033,-47.869 -1.209,-0.006 -2.424,-0.006 -3.633,-0.012 -0.006,15.962 0.006,31.924 -0.006,47.88 h -10.119 z m 10.552,10.131 c 0.012,11.137 0,22.268 0.006,33.405 3.899,0.006 7.799,-0.017 11.704,0.017 0.029,-11.143 0.006,-22.285 0.012,-33.428 -3.911,0.006 -7.816,-0.006 -11.722,0.006 z m 50.895,-10.107 c 7.654,-0.017 15.308,-0.081 22.957,0.023 4.848,-0.012 9.424,4.004 9.598,8.927 0.029,10.801 0,21.609 0.012,32.416 0.029,3.003 -2.117,5.375 -4.223,7.249 2.036,1.695 4.009,3.899 4.2,6.676 0.312,4.403 0.11,8.823 0.168,13.237 -0.052,6.74 0.127,13.486 -0.145,20.226 -0.093,2.864 0.44,5.93 -0.989,8.568 -1.545,3.188 -5.097,5.028 -8.557,5.056 -7.66,0.017 -15.314,-0.029 -22.974,0.017 -0.07,-34.133 0.022,-68.267 -0.047,-102.395 z m 10.581,10.101 c 0,11.137 -0.006,22.28 0.006,33.417 3.905,-0.012 7.805,0 11.71,-0.006 0.006,-11.137 -0.012,-22.268 0.012,-33.399 -3.911,-0.024 -7.817,-0.006 -11.728,-0.012 z m 0.012,44.102 c -0.029,12.682 -0.006,25.369 -0.012,38.051 3.905,-0.006 7.816,0.012 11.721,-0.006 -0.017,-12.682 0,-25.358 -0.006,-38.033 -3.898,-0.006 -7.804,0.011 -11.703,-0.012 z m 56.055,-53.654 c 3.113,-0.897 6.393,-0.486 9.592,-0.573 3.523,0.069 7.33,-0.434 10.553,1.342 3.205,1.701 6.052,4.941 5.947,8.753 -0.012,26.249 -0.006,52.497 0,78.746 -0.04,2.285 0.266,4.709 -0.787,6.833 -1.631,3.413 -4.877,6.329 -8.748,6.705 -3.471,0.081 -6.943,-0.017 -10.408,0.029 -2.031,-0.017 -4.142,0.185 -6.063,-0.602 -4.061,-1.597 -7.405,-5.6 -7.272,-10.107 0.006,-26.22 0.012,-52.445 0,-78.67 0.023,-2.112 -0.208,-4.339 0.677,-6.323 1.204,-2.812 3.616,-5.109 6.509,-6.133 z m 3.957,9.697 c -0.006,27.139 0.006,54.285 -0.006,81.424 3.761,0.012 7.527,0.012 11.293,0 -0.012,-27.145 0,-54.285 -0.006,-81.424 z M 383.439,297.857 H 373.5 v -10.27 h 31.82 v 10.27 h -9.939 v 112.816 h -11.942 z"
       id="path10"
       inkscape:connector-curvature="0"
       style="fill:#f79226" />
  </g>
</svg>
