<?xml version="1.0" encoding="UTF-8" standalone="no"?>
<!-- Generator: Adobe Illustrator 22.0.0, SVG Export Plug-In . SVG Version: 6.00 Build 0)  -->

<svg
   xmlns:dc="http://purl.org/dc/elements/1.1/"
   xmlns:cc="http://creativecommons.org/ns#"
   xmlns:rdf="http://www.w3.org/1999/02/22-rdf-syntax-ns#"
   xmlns:svg="http://www.w3.org/2000/svg"
   xmlns="http://www.w3.org/2000/svg"
   xmlns:sodipodi="http://sodipodi.sourceforge.net/DTD/sodipodi-0.dtd"
   xmlns:inkscape="http://www.inkscape.org/namespaces/inkscape"
   version="1.1"
   id="Capa_1"
   x="0px"
   y="0px"
   viewBox="0 0 230.507 259.801"
   xml:space="preserve"
   sodipodi:docname="game.svg"
   width="230.507"
   height="259.80099"
   inkscape:version="0.92.4 5da689c313, 2019-01-14"><metadata
   id="metadata39"><rdf:RDF><cc:Work
       rdf:about=""><dc:format>image/svg+xml</dc:format><dc:type
         rdf:resource="http://purl.org/dc/dcmitype/StillImage" /></cc:Work></rdf:RDF></metadata><defs
   id="defs37" /><sodipodi:namedview
   pagecolor="#ffffff"
   bordercolor="#666666"
   borderopacity="1"
   objecttolerance="10"
   gridtolerance="10"
   guidetolerance="10"
   inkscape:pageopacity="0"
   inkscape:pageshadow="2"
   inkscape:window-width="471"
   inkscape:window-height="442"
   id="namedview35"
   showgrid="false"
   inkscape:zoom="0.90838759"
   inkscape:cx="115.2535"
   inkscape:cy="129.9005"
   inkscape:window-x="0"
   inkscape:window-y="0"
   inkscape:window-maximized="0"
   inkscape:current-layer="Capa_1"><inkscape:grid
     type="xygrid"
     id="grid41"
     originx="0"
     originy="5.1269532e-06" /></sodipodi:namedview>
<g
   id="g32">
	<polygon
   style="fill:#bcbcbc"
   points="209.358,3.286 209.358,0 86.166,0 86.166,3.286 35.361,3.286 35.361,0 21.034,0 21.034,3.286 8.395,3.286 8.395,0 0,0 0,212.028 11.977,212.028 11.977,259.801 217.161,259.801 217.161,212.645 230.507,212.645 230.507,0 222.089,0 222.089,3.286 "
   id="polygon2" />
	<path
   style="fill:#a3a3a4"
   d="m 8.394,3.285 h 12.639 v -1.3 H 8.394 Z m 200.964,0 h 12.73 v -1.3 h -12.73 z M 35.361,259.8 H 86.166 V 3.285 H 35.361 Z"
   id="path4"
   inkscape:connector-curvature="0" />
	<path
   style="fill:#858484"
   d="M 86.167,3.286 H 35.361 v 28.836 c 0,1.21 0.98,2.19 2.19,2.19 h 46.424 c 1.211,0 2.191,-0.98 2.191,-2.19 V 3.286 Z"
   id="path6"
   inkscape:connector-curvature="0" />
	<path
   style="fill:#bcbcbc"
   d="m 35.771,259.8 h 49.983 v -24.73 c 0,-1.208 -0.965,-2.189 -2.153,-2.189 H 37.926 c -1.19,0 -2.154,0.981 -2.154,2.189 V 259.8 Z M 85.003,228.316 H 36.41 v -4.654 h 48.593 z m 0,-9.763 H 36.41 v -4.654 h 48.593 z m 0,-9.764 H 36.41 v -4.654 h 48.593 z m 0,-9.764 H 36.41 v -4.654 h 48.593 z m 0,-9.765 H 36.41 v -4.654 h 48.593 z m 0,-9.764 H 36.41 v -4.654 h 48.593 z m 0,-9.765 H 36.41 v -4.654 h 48.593 z m 0,-9.764 H 36.41 v -4.654 h 48.593 z m 0,-9.763 H 36.41 v -4.654 h 48.593 z m 0,-9.764 H 36.41 v -4.655 h 48.593 z m 0,-9.765 H 36.41 v -4.654 h 48.593 z m 0,-9.765 H 36.41 v -4.654 h 48.593 z m 0,-9.764 H 36.41 v -4.654 h 48.593 z m 0,-9.764 H 36.41 v -4.654 h 48.593 z m 0,-9.763 H 36.41 v -4.654 h 48.593 z m 0,-9.765 H 36.41 v -4.655 h 48.593 z m 0,-9.764 H 36.41 v -4.654 h 48.593 z m 0,-9.765 H 36.41 v -4.654 h 48.593 z m 0,-9.765 H 36.41 v -4.654 h 48.593 z m 0,-9.764 H 36.41 v -4.654 h 48.593 z"
   id="path8"
   inkscape:connector-curvature="0" />
	<path
   style="fill:#1a1919"
   d="m 90.888,0 v 174.979 c 0,1.21 0.981,2.19 2.191,2.19 h 106.767 c 1.21,0 2.191,-0.98 2.191,-2.19 V 0 Z"
   id="path10"
   inkscape:connector-curvature="0" />
	<path
   style="fill:#a3a3a4"
   d="m 103.893,192.5 h 20.854 l -10.428,18.069 z M 85.003,33.032 H 36.41 v -4.654 h 48.593 z m 0,-9.763 H 36.41 v -4.654 h 48.593 z m 0,-9.766 H 36.41 V 8.85 h 48.593 z"
   id="path12"
   inkscape:connector-curvature="0" />
	<path
   style="fill:#ffffff"
   d="m 177.952,148.064 c 6.932,0 12.552,3.915 12.552,8.742 0,4.828 -5.62,8.743 -12.552,8.743 -6.933,0 -12.552,-3.915 -12.552,-8.743 0,-4.827 5.62,-8.742 12.552,-8.742 z"
   id="path14"
   inkscape:connector-curvature="0" />
	<path
   style="fill:#a18051"
   d="m 175.251,161.971 h 0.388 v 0.021 c 0,0.121 0.037,0.214 0.113,0.277 0.075,0.063 0.186,0.095 0.33,0.095 0.111,0 0.197,-0.023 0.258,-0.069 l 0.091,-0.196 -0.06,-0.156 c -0.04,-0.034 -0.12,-0.059 -0.24,-0.077 l -0.27,-0.038 c -0.197,-0.029 -0.342,-0.092 -0.435,-0.19 -0.093,-0.098 -0.139,-0.235 -0.139,-0.413 0,-0.211 0.066,-0.383 0.2,-0.515 0.134,-0.132 0.311,-0.199 0.531,-0.199 0.236,0 0.422,0.063 0.555,0.188 0.134,0.125 0.201,0.296 0.201,0.513 v 0.017 h -0.379 c -0.009,-0.107 -0.044,-0.188 -0.106,-0.242 -0.062,-0.053 -0.149,-0.08 -0.265,-0.08 -0.106,0 -0.189,0.021 -0.248,0.065 l -0.088,0.182 0.052,0.138 c 0.034,0.029 0.119,0.054 0.254,0.076 l 0.281,0.042 c 0.195,0.03 0.338,0.096 0.43,0.198 0.092,0.102 0.138,0.246 0.138,0.431 0,0.239 -0.069,0.42 -0.206,0.545 -0.138,0.125 -0.338,0.187 -0.603,0.187 -0.252,0 -0.445,-0.065 -0.581,-0.196 -0.136,-0.131 -0.203,-0.317 -0.203,-0.56 v -0.044 z m 3.11,0.222 c -0.047,0.185 -0.128,0.327 -0.242,0.428 -0.115,0.101 -0.255,0.151 -0.42,0.151 -0.21,0 -0.375,-0.078 -0.497,-0.231 -0.122,-0.154 -0.184,-0.364 -0.184,-0.628 0,-0.264 0.062,-0.473 0.183,-0.626 0.122,-0.153 0.288,-0.229 0.498,-0.229 0.219,0 0.387,0.079 0.505,0.238 0.118,0.159 0.177,0.386 0.177,0.679 v 0.068 h -0.969 c 0.002,0.117 0.028,0.211 0.081,0.28 l 0.205,0.104 0.172,-0.061 0.104,-0.173 z m -0.938,-0.485 0.567,0.001 c -0.006,-0.1 -0.034,-0.178 -0.085,-0.235 l -0.198,-0.085 -0.198,0.086 c -0.051,0.058 -0.079,0.136 -0.086,0.233 z m 2.444,0.749 0.014,0.144 0.041,0.078 v 0.036 h -0.387 l -0.018,-0.175 -0.206,0.175 c -0.076,0.038 -0.165,0.057 -0.266,0.057 -0.156,0 -0.278,-0.048 -0.368,-0.144 -0.09,-0.096 -0.135,-0.226 -0.135,-0.389 0,-0.152 0.041,-0.265 0.121,-0.34 0.081,-0.075 0.22,-0.124 0.416,-0.147 l 0.108,-0.01 c 0.226,-0.022 0.339,-0.084 0.339,-0.186 l -0.065,-0.136 -0.195,-0.045 -0.192,0.064 c -0.041,0.043 -0.063,0.11 -0.063,0.201 l -0.368,0.001 v -0.005 c 0,-0.188 0.056,-0.333 0.166,-0.432 0.109,-0.099 0.269,-0.148 0.478,-0.148 0.103,0 0.193,0.014 0.272,0.043 l 0.198,0.127 0.086,0.165 c 0.017,0.066 0.025,0.167 0.025,0.301 z m -0.342,-0.515 c -0.044,0.034 -0.127,0.059 -0.251,0.077 l -0.033,0.005 c -0.132,0.019 -0.216,0.043 -0.25,0.071 l -0.053,0.131 0.052,0.149 0.138,0.056 c 0.119,0 0.215,-0.04 0.289,-0.121 0.074,-0.081 0.111,-0.185 0.111,-0.314 v -0.035 z m 0.655,0.772 v -2.146 h 0.348 v 2.146 z"
   id="path16"
   inkscape:connector-curvature="0" />
	<path
   style="fill:#a18051"
   d="m 191.999,156.813 1.501,1.607 -2.145,1.288 0.603,2.49 -2.308,0.063 -0.159,2.711 -2.572,-0.708 -0.434,2.559 -2.381,-0.945 -1.241,2.256 -1.859,-1.608 -1.621,2.286 -1.786,-1.94 -1.951,1.812 -1.273,-2.134 -2.301,1.354 -0.795,-2.389 -2.664,1.05 -0.392,-2.355 -2.383,0.149 0.356,-2.398 -2.438,-0.01 0.569,-2.619 -1.89,-1.063 1.505,-1.709 -1.351,-2.376 2.196,-0.695 -0.578,-2.542 2.409,-0.032 0.279,-2.521 2.179,0.723 0.722,-2.458 2.201,1.191 0.911,-2.174 1.906,1.325 1.34,-2.066 1.801,1.8 1.592,-1.646 1.395,2.075 2.18,-1.401 0.864,2.29 2.19,-1.037 0.563,2.389 2.596,-0.462 -0.079,2.338 2.624,0.283 -0.743,2.259 2.285,0.979 z m -1.495,-0.005 c 0,-4.827 -5.62,-8.742 -12.552,-8.742 -6.933,0 -12.552,3.915 -12.552,8.742 0,4.829 5.619,8.743 12.552,8.743 6.932,0 12.552,-3.915 12.552,-8.743 z"
   id="path18"
   inkscape:connector-curvature="0" />
	<path
   style="fill:#a18051"
   d="m 173.796,152.308 c 0,-0.58 0.329,-0.725 0.563,-0.725 0.233,0 0.563,0.145 0.563,0.725 0,0.581 -0.329,0.725 -0.563,0.725 -0.234,0 -0.563,-0.145 -0.563,-0.725 z m -0.432,0 c 0,0.972 0.721,1.09 0.995,1.09 0.274,0 0.995,-0.118 0.995,-1.09 0,-0.972 -0.721,-1.09 -0.995,-1.09 -0.274,0 -0.995,0.118 -0.995,1.09 z m 2.715,1.035 h -0.404 v -1.244 h -0.223 v -0.29 h 0.223 v -0.125 c 0,-0.319 0.173,-0.44 0.45,-0.44 0.118,0 0.173,0.002 0.208,0.005 v 0.326 h -0.113 c -0.138,0 -0.141,0.044 -0.141,0.172 v 0.061 h 0.263 v 0.29 h -0.263 z m 0.902,0 h -0.403 v -1.244 h -0.223 v -0.29 h 0.223 v -0.125 c 0,-0.319 0.173,-0.44 0.45,-0.44 0.118,0 0.173,0.002 0.207,0.005 v 0.326 h -0.112 c -0.139,0 -0.142,0.044 -0.142,0.172 v 0.061 h 0.263 v 0.29 h -0.263 z m 0.852,-1.533 v 1.534 h -0.403 v -1.534 z m 0,-0.185 h -0.403 v -0.374 h 0.403 z m 1.651,1.159 c -0.015,0.158 -0.139,0.599 -0.702,0.599 -0.578,0 -0.711,-0.441 -0.711,-0.763 0,-0.495 0.217,-0.85 0.736,-0.85 0.243,0 0.642,0.11 0.679,0.588 h -0.41 c -0.017,-0.101 -0.081,-0.259 -0.269,-0.248 -0.254,0 -0.32,0.253 -0.32,0.443 0,0.167 0.005,0.497 0.312,0.497 0.205,0 0.274,-0.195 0.274,-0.267 h 0.411 z m 0.64,-0.974 v 1.534 h -0.404 v -1.534 z m 0,-0.185 h -0.404 v -0.374 h 0.404 z m 1.177,1.168 c 0,0.185 -0.182,0.3 -0.36,0.3 -0.078,0 -0.187,-0.043 -0.187,-0.184 0,-0.167 0.123,-0.204 0.273,-0.229 0.167,-0.026 0.232,-0.052 0.273,-0.083 v 0.196 z m 0.394,-0.579 c 0,-0.378 -0.395,-0.444 -0.611,-0.444 -0.313,0 -0.64,0.066 -0.686,0.537 h 0.39 c 0.012,-0.089 0.046,-0.213 0.248,-0.213 0.104,0 0.265,0.009 0.265,0.179 l -0.142,0.121 -0.363,0.055 c -0.256,0.038 -0.446,0.19 -0.446,0.49 0,0.315 0.236,0.445 0.468,0.445 0.272,0 0.402,-0.127 0.495,-0.223 l 0.037,0.184 h 0.436 v -0.06 c -0.049,-0.018 -0.09,-0.058 -0.09,-0.24 v -0.831 z m 0.719,1.129 h -0.403 v -2.071 h 0.403"
   id="path20"
   inkscape:connector-curvature="0" />
	<path
   style="fill:#a18051"
   d="m 177.951,164.826 c 6.486,0 11.762,-3.597 11.762,-8.019 0,-4.422 -5.275,-8.019 -11.762,-8.019 -6.485,0 -11.762,3.597 -11.762,8.019 0,4.422 5.277,8.019 11.762,8.019 z m -11.472,-8.019 c 0,-4.262 5.146,-7.729 11.472,-7.729 6.326,0 11.473,3.467 11.473,7.729 0,4.262 -5.146,7.729 -11.473,7.729 -6.325,0 -11.472,-3.467 -11.472,-7.729 z"
   id="path22"
   inkscape:connector-curvature="0" />
	<path
   style="fill:#a18051"
   d="m 185.349,159.505 c 1.374,0 2.492,-1.118 2.492,-2.492 0,-1.374 -1.118,-2.492 -2.492,-2.492 h -14.92 c -1.374,0 -2.491,1.118 -2.491,2.492 0,1.374 1.117,2.492 2.491,2.492 z m -14.92,-0.647 c -1.017,0 -1.845,-0.828 -1.845,-1.844 0,-1.017 0.828,-1.845 1.845,-1.845 h 14.921 c 1.017,0 1.844,0.828 1.844,1.845 0,1.017 -0.827,1.844 -1.844,1.844 z"
   id="path24"
   inkscape:connector-curvature="0" />
	<path
   style="fill:#a18051"
   d="m 169.79,158.203 v -2.346 h 0.733 l 0.979,1.521 0.004,-1.521 h 0.761 l -0.001,2.346 h -0.76 c -0.066,-0.144 -0.943,-1.513 -0.943,-1.513 v 1.514 z m 4.628,-1.568 0.083,0.077 0.204,-0.116 c 0.578,-0.198 0.879,0.135 0.938,0.189 0.264,0.245 0.184,0.908 0.199,1.418 h -0.769 c 0,0 0.013,-0.956 0.002,-1.085 -0.009,-0.113 -0.171,-0.25 -0.266,-0.254 -0.159,-0.005 -0.355,0.076 -0.364,0.255 -0.018,0.365 0.006,1.083 0.006,1.083 h -0.753 v -1.57 z m 1.788,1.568 0.001,-1.538 h -0.341 v -0.21 h 0.34 v -0.224 h 0.753 l -0.001,0.223 h 0.359 l -0.002,0.21 h -0.356 v 1.537 m 0.297,-0.786 c -0.014,-0.515 0.464,-0.838 0.868,-0.859 0.192,-0.009 0.389,-0.025 0.562,0.056 0.109,0.052 0.235,0.069 0.325,0.154 0.179,0.17 0.295,0.385 0.295,0.661 l -1.287,-0.005 c 0,0.202 -0.112,0.664 0.24,0.671 0.135,0.003 0.211,-0.021 0.261,-0.137 0.036,-0.086 0.037,-0.188 0.029,-0.287 0.13,0.008 0.676,-0.008 0.742,-0.006 -0.147,0.41 -0.593,0.588 -1.021,0.588 -0.178,0 -0.994,-0.081 -1.014,-0.836 z m 0.763,-0.247 0.519,-0.002 -0.01,-0.21 c -0.014,-0.097 -0.091,-0.235 -0.254,-0.228 -0.222,0.009 -0.254,0.135 -0.254,0.272 z m 6.239,0.581 c -0.134,-0.177 -0.154,-0.525 -0.028,-0.784 0.109,-0.226 0.393,-0.392 0.542,-0.44 0.202,-0.065 0.53,-0.083 0.807,-0.017 0.204,0.049 0.459,0.17 0.616,0.457 0.124,0.225 0.102,0.595 -0.037,0.786 -0.09,0.123 -0.288,0.334 -0.51,0.394 -0.192,0.051 -0.59,0.08 -0.799,0.014 -0.23,-0.073 -0.407,-0.167 -0.591,-0.41 z m 0.96,0.27 c 0.213,0.001 0.262,-0.165 0.266,-0.269 0.009,-0.239 -0.005,-0.535 -0.005,-0.786 0,-0.129 -0.072,-0.299 -0.266,-0.299 -0.277,0 -0.268,0.217 -0.271,0.299 -0.006,0.138 -0.006,0.607 -0.004,0.785 0.002,0.06 0.031,0.269 0.28,0.27 z m -1.325,0.184 h -0.677 l -0.016,-0.091 c -0.189,0.147 -0.949,0.22 -1.243,-0.399 -0.026,-0.055 -0.103,-0.457 0.008,-0.704 0.179,-0.401 0.593,-0.489 0.888,-0.472 0.118,0.007 0.345,0.128 0.345,0.128 l 0.002,-0.858 h 0.693 z m -0.706,-0.395 c 0.021,-0.069 0.01,-0.519 0.01,-0.738 l -0.06,-0.176 c -0.058,-0.07 -0.102,-0.107 -0.217,-0.102 -0.147,0.005 -0.232,0.136 -0.239,0.219 -0.018,0.22 -0.03,0.446 0.005,0.728 l 0.1,0.173 c 0.164,0.117 0.358,0.027 0.401,-0.104 z m -9.829,0.395 v -1.586 h -0.776 v 1.586 m 0.776,-1.853 v -0.493 h -0.776 v 0.493 m 7.711,0.273 0.082,0.077 0.205,-0.116 c 0.578,-0.198 0.879,0.135 0.938,0.189 0.264,0.245 0.183,0.908 0.199,1.417 h -0.769 c 0,0 0.012,-0.955 0.002,-1.085 -0.009,-0.113 -0.172,-0.25 -0.266,-0.254 -0.159,-0.007 -0.356,0.076 -0.365,0.256 -0.017,0.365 -0.01,1.095 -0.01,1.095 h -0.729 v -1.582 z m 5.538,-0.255 h -0.051 v -0.237 h 0.089 l 0.098,0.072 -0.058,0.062 0.061,0.104 h -0.06 l -0.055,-0.1 h -0.024 z m 0.045,-0.139 0.036,-0.031 -0.045,-0.026 h -0.036 v 0.057 z m -0.008,0.241 c -0.117,0 -0.222,-0.081 -0.222,-0.22 0,-0.139 0.104,-0.22 0.222,-0.22 0.118,0 0.221,0.081 0.221,0.22 0,0.139 -0.104,0.22 -0.221,0.22 z m 0,-0.389 c -0.087,0 -0.157,0.068 -0.157,0.169 0,0.101 0.07,0.169 0.157,0.169 v 0 c 0.085,0 0.157,-0.068 0.157,-0.169 0,-0.101 -0.072,-0.169 -0.157,-0.169 z"
   id="path26"
   inkscape:connector-curvature="0" />
	<path
   style="fill:#c23435"
   d="m 125.43,161.592 h -24.589 c -2.22,0 -4.026,-1.806 -4.026,-4.026 0,-2.22 1.807,-4.025 4.026,-4.025 h 24.588 c 2.221,0 4.026,1.806 4.026,4.026 0,2.219 -1.806,4.025 -4.025,4.025 z m -24.589,-7.1 c -1.695,0 -3.074,1.379 -3.074,3.074 0,1.695 1.379,3.074 3.074,3.074 h 24.588 c 1.695,0 3.074,-1.379 3.074,-3.074 0,-1.695 -1.379,-3.074 -3.074,-3.074 z"
   id="path28"
   inkscape:connector-curvature="0" />
	<path
   style="fill:#c23435"
   d="m 103.998,159.433 v -3.716 h -1.117 v 2.598 l -1.648,-2.598 h -1.201 v 3.716 h 1.117 v -2.682 l 1.732,2.682 z m 1.816,0 v -2.515 h -1.117 v 2.515 z m 0,-3.046 v -0.67 h -1.117 v 0.67 z m 3.913,3.046 V 157.7 c 0,-0.363 -0.699,-0.866 -1.063,-0.866 h -0.335 c -0.251,0 -0.531,0.224 -0.782,0.335 v -0.251 h -1.118 v 2.515 h 1.118 V 157.7 c 0,-0.167 0.391,-0.363 0.559,-0.363 0.168,0 0.475,0.196 0.475,0.363 v 1.732 h 1.146 z m 9.35,0.086 v -1.732 c 0,-0.363 -0.698,-0.866 -1.063,-0.866 h -0.335 c -0.251,0 -0.53,0.224 -0.782,0.335 v -0.251 h -1.117 v 2.515 h 1.117 v -1.732 c 0,-0.167 0.392,-0.363 0.559,-0.363 0.168,0 0.475,0.196 0.475,0.363 v 1.732 h 1.146 z m -7.535,-0.086 v -2.515 h 0.587 v -0.335 h -0.587 v -0.531 h -1.146 v 0.531 h -0.586 v 0.335 h 0.586 v 2.515 z m 2.151,-2.599 c -0.894,0 -1.648,0.614 -1.648,1.369 0,0.783 0.755,1.397 1.648,1.397 0.782,0 1.425,-0.447 1.593,-1.034 h -1.146 v 0.335 c 0,0.279 -0.195,0.363 -0.446,0.363 -0.252,0 -0.42,-0.084 -0.42,-0.363 v -0.698 h 2.068 c 0,-0.754 -0.726,-1.369 -1.649,-1.369 z m 0,0.252 c 0.252,0 0.447,0.167 0.447,0.447 v 0.251 h -0.866 v -0.251 c 0,-0.28 0.168,-0.447 0.419,-0.447 z m 11.009,-0.252 c -0.922,0 -1.648,0.614 -1.648,1.369 0,0.783 0.727,1.397 1.648,1.397 0.894,0 1.648,-0.614 1.648,-1.397 0.001,-0.754 -0.754,-1.369 -1.648,-1.369 z m 0,0.252 c 0.251,0 0.419,0.167 0.419,0.447 v 1.369 c 0,0.279 -0.168,0.363 -0.419,0.363 -0.279,0 -0.447,-0.084 -0.447,-0.363 v -1.369 c 0,-0.28 0.168,-0.447 0.447,-0.447 z m -3.213,-1.369 v 1.369 c 0,0 -0.336,-0.251 -0.783,-0.251 -0.698,0 -1.285,0.614 -1.285,1.285 0,0.698 0.587,1.397 1.285,1.397 0.447,0 0.783,-0.167 0.783,-0.167 v 0.083 h 1.117 v -3.716 z m -0.42,1.536 c 0.252,0 0.42,0.196 0.42,0.447 v 1.034 c 0,0.251 -0.168,0.335 -0.42,0.335 -0.279,0 -0.446,-0.083 -0.446,-0.335 V 157.7 c 0,-0.251 0.167,-0.447 0.446,-0.447 z m 5.421,-0.374 c -0.317,0 -0.576,-0.258 -0.576,-0.576 0,-0.338 0.253,-0.603 0.576,-0.603 0.312,0 0.575,0.276 0.575,0.603 0,0.307 -0.268,0.576 -0.575,0.576 z m 0,-1.089 c -0.277,0 -0.486,0.221 -0.486,0.514 0,0.268 0.218,0.486 0.486,0.486 0.255,0 0.486,-0.232 0.486,-0.486 0.001,-0.275 -0.227,-0.514 -0.486,-0.514 z m 0.101,0.759 -0.099,-0.173 h -0.125 v 0.151 h -0.089 v -0.52 h 0.24 c 0.112,0 0.17,0.093 0.17,0.184 l -0.101,0.171 0.081,0.143 z m -0.224,-0.262 h 0.151 l 0.059,-0.027 0.021,-0.068 -0.08,-0.095 h -0.151 z m -26.755,8.594 v -1.621 c 0,-0.307 -0.308,-0.615 -0.615,-0.615 H 96.65 v 2.235 h 0.727 v -1.509 c 0,-0.112 0.084,-0.224 0.195,-0.224 h 1.117 c 0.112,0 0.224,0.112 0.224,0.224 v 1.509 h 0.699 z m 19.388,0 v -1.621 c 0,-0.307 -0.308,-0.615 -0.614,-0.615 h -2.348 v 2.235 h 0.727 v -1.509 c 0,-0.112 0.084,-0.224 0.195,-0.224 h 1.118 c 0.112,0 0.224,0.112 0.224,0.224 v 1.509 H 119 Z m 10.612,0 v -1.621 c 0,-0.307 -0.307,-0.615 -0.614,-0.615 h -2.348 v 2.235 h 0.727 v -1.509 c 0,-0.112 0.084,-0.224 0.196,-0.224 h 1.117 c 0.111,0 0.223,0.112 0.223,0.224 v 1.509 h 0.699 z m -6.335,0 v -1.621 c 0,-0.307 -0.308,-0.615 -0.615,-0.615 h -3.157 v 2.235 h 0.727 v -1.509 c 0,-0.112 0.084,-0.224 0.195,-0.224 h 0.419 c 0.084,0 0.196,0.112 0.196,0.224 v 1.509 h 0.727 v -1.509 c 0,-0.112 0.083,-0.224 0.195,-0.224 h 0.419 c 0.084,0 0.195,0.112 0.195,0.224 v 1.509 h 0.699 z m -27.13,0 h -1.844 c -0.308,0 -0.615,-0.196 -0.615,-0.503 v -1.76 h 2.459 v 0.531 h -1.648 c -0.084,0 -0.195,0.084 -0.195,0.196 0,0.112 0.111,0.195 0.195,0.195 h 1.536 v 0.447 h -1.536 l -0.195,0.195 c 0,0.112 0.111,0.224 0.195,0.224 h 1.648 z m 9.082,0.028 h -1.845 c -0.307,0 -0.614,-0.196 -0.614,-0.503 v -1.76 h 2.459 v 0.531 h -1.648 c -0.084,0 -0.196,0.084 -0.196,0.196 0,0.112 0.112,0.196 0.196,0.196 h 1.536 v 0.447 h -1.536 l -0.196,0.196 c 0,0.112 0.112,0.223 0.196,0.223 h 1.648 z m 21.021,-0.028 h -1.844 c -0.308,0 -0.615,-0.196 -0.615,-0.503 v -1.76 h 2.459 v 0.531 h -1.648 c -0.084,0 -0.196,0.084 -0.196,0.196 0,0.112 0.112,0.195 0.196,0.195 h 1.536 v 0.447 h -1.536 l -0.196,0.195 c 0,0.112 0.112,0.224 0.196,0.224 h 1.648 z m -26.331,-2.235 v 0.503 h 0.727 c 0.195,0 0.195,0 0.195,0.224 v 1.509 h 0.699 v -1.509 c 0,-0.224 0,-0.224 0.224,-0.224 h 0.698 v -0.503 z m 8.878,0 v 0.503 h 0.727 c 0.195,0 0.195,0 0.195,0.224 v 1.509 h 0.698 v -1.509 c 0,-0.224 0,-0.224 0.225,-0.224 h 0.698 v -0.503 z m 21.224,0 v 0.503 h 0.727 c 0.196,0 0.196,0 0.196,0.224 v 1.509 h 0.698 v -1.509 c 0,-0.224 0,-0.224 0.223,-0.224 h 0.699 v -0.503 z m -24.291,0 v 2.235 h 0.727 v -0.391 c 0,-0.112 0.084,-0.224 0.195,-0.224 h 0.923 c 0.111,0 0.195,0.112 0.195,0.224 v 0.391 h 0.614 v -0.615 c 0,-0.083 -0.083,-0.195 -0.083,-0.307 0,-0.083 0.195,-0.279 0.195,-0.502 v -0.196 c 0,-0.196 -0.308,-0.615 -0.503,-0.615 z m 0.922,0.502 h 0.923 c 0.111,0 0.195,0.112 0.195,0.224 v 0.196 c 0,0.112 -0.084,0.195 -0.195,0.195 h -0.923 c -0.111,0 -0.195,-0.083 -0.195,-0.195 v -0.196 c 0,-0.111 0.084,-0.224 0.195,-0.224 z m 5.505,-0.502 c -0.196,0 -0.503,0.419 -0.503,0.615 v 1.62 h 0.726 v -0.615 h 1.313 v 0.615 h 0.727 v -1.62 c 0,-0.196 -0.308,-0.615 -0.531,-0.615 z m 0.419,0.502 h 0.922 c 0.083,0 0.195,0.112 0.195,0.224 v 0.391 h -1.313 v -0.391 c 0,-0.111 0.084,-0.224 0.196,-0.224 z m 3.045,1.733 v -2.235 h -0.698 v 2.235 z m 6.738,3.061 v -1.621 c 0,-0.307 -0.308,-0.615 -0.615,-0.615 h -3.157 v 2.235 h 0.727 v -1.509 c 0,-0.112 0.083,-0.224 0.195,-0.224 h 0.419 c 0.084,0 0.196,0.112 0.196,0.224 v 1.509 h 0.726 v -1.509 c 0,-0.112 0.084,-0.224 0.195,-0.224 h 0.419 c 0.084,0 0.196,0.112 0.196,0.224 v 1.509 h 0.699 z m -4.272,0 h -1.845 c -0.307,0 -0.614,-0.196 -0.614,-0.502 v -1.76 h 2.459 v 0.531 h -1.648 c -0.084,0 -0.196,0.084 -0.196,0.195 0,0.112 0.112,0.196 0.196,0.196 h 1.536 v 0.447 h -1.536 l -0.196,0.196 c 0,0.112 0.112,0.223 0.196,0.223 h 1.648 z m -5.311,-2.235 v 0.503 h 0.727 c 0.195,0 0.195,0 0.195,0.224 v 1.508 h 0.698 v -1.508 c 0,-0.224 0,-0.224 0.225,-0.224 h 0.698 v -0.503 z m -8.274,0.012 c -0.196,0 -0.615,0.308 -0.615,0.503 v 0.307 c 0,0.196 0.419,0.503 0.615,0.503 h 1.229 c 0.112,0 0.224,0.112 0.224,0.196 0,0.112 -0.111,0.223 -0.224,0.223 h -1.844 v 0.503 h 2.067 c 0.196,0 0.587,-0.307 0.587,-0.503 v -0.307 c 0,-0.224 -0.391,-0.531 -0.587,-0.531 h -1.229 c -0.111,0 -0.223,-0.084 -0.223,-0.196 0,-0.112 0.111,-0.196 0.223,-0.196 h 1.816 v -0.502 z m 5.918,0 c -0.195,0 -0.614,0.308 -0.614,0.503 v 0.307 c 0,0.196 0.419,0.503 0.614,0.503 h 1.229 c 0.111,0 0.224,0.112 0.224,0.196 0,0.112 -0.112,0.223 -0.224,0.223 h -1.844 v 0.503 h 2.067 c 0.195,0 0.587,-0.307 0.587,-0.503 v -0.307 c 0,-0.224 -0.392,-0.531 -0.587,-0.531 h -1.229 c -0.112,0 -0.224,-0.084 -0.224,-0.196 0,-0.112 0.112,-0.196 0.224,-0.196 h 1.816 v -0.502 z m -3.655,0 v 1.006 c 0,0.195 0.308,0.503 0.503,0.503 h 0.503 v 0.726 h 0.727 v -0.726 H 109 c 0.196,0 0.503,-0.308 0.503,-0.503 v -1.006 h -0.698 v 0.811 c 0,0.084 -0.111,0.196 -0.224,0.196 h -0.894 c -0.112,0 -0.224,-0.112 -0.224,-0.196 v -0.811 z"
   id="path30"
   inkscape:connector-curvature="0" />
</g>
</svg>