<?xml version="1.0" encoding="UTF-8" standalone="no"?>
<svg
   xmlns:dc="http://purl.org/dc/elements/1.1/"
   xmlns:cc="http://creativecommons.org/ns#"
   xmlns:rdf="http://www.w3.org/1999/02/22-rdf-syntax-ns#"
   xmlns:svg="http://www.w3.org/2000/svg"
   xmlns="http://www.w3.org/2000/svg"
   xmlns:sodipodi="http://sodipodi.sourceforge.net/DTD/sodipodi-0.dtd"
   xmlns:inkscape="http://www.inkscape.org/namespaces/inkscape"
   viewBox="0 0 53.202 71.867001"
   version="1.1"
   id="svg84"
   sodipodi:docname="game.svg"
   width="53.202"
   height="71.866997"
   inkscape:version="0.92.4 5da689c313, 2019-01-14">
  <metadata
     id="metadata90">
    <rdf:RDF>
      <cc:Work
         rdf:about="">
        <dc:format>image/svg+xml</dc:format>
        <dc:type
           rdf:resource="http://purl.org/dc/dcmitype/StillImage" />
      </cc:Work>
    </rdf:RDF>
  </metadata>
  <defs
     id="defs88" />
  <sodipodi:namedview
     pagecolor="#ffffff"
     bordercolor="#666666"
     borderopacity="1"
     objecttolerance="10"
     gridtolerance="10"
     guidetolerance="10"
     inkscape:pageopacity="0"
     inkscape:pageshadow="2"
     inkscape:window-width="471"
     inkscape:window-height="442"
     id="namedview86"
     showgrid="false"
     inkscape:zoom="3.2837982"
     inkscape:cx="26.601"
     inkscape:cy="35.934002"
     inkscape:window-x="0"
     inkscape:window-y="0"
     inkscape:window-maximized="0"
     inkscape:current-layer="svg84" />
  <g
     transform="translate(36.153,-380.847)"
     id="g4">
    <path
       stroke-miterlimit="3"
       d="m -35.995,398.797 h 1.867 v 7.093 h -1.867 z"
       id="path2"
       inkscape:connector-curvature="0"
       style="fill:#d7d9e3;fill-opacity:0.85900005;stroke:#c3c6d7;stroke-width:0.31600001;stroke-linecap:round;stroke-linejoin:round;stroke-miterlimit:3" />
  </g>
  <g
     transform="translate(36.153,-274.548)"
     id="g13">
    <radialGradient
       id="a"
       cx="-544.83301"
       cy="1309.623"
       r="0.43900001"
       gradientTransform="matrix(120.47,0,0,-162.99,65652.875,213730.17)"
       gradientUnits="userSpaceOnUse">
      <stop
         offset="0"
         stop-color="#292d84"
         id="stop6" />
      <stop
         offset="1"
         stop-color="#1c1e4e"
         id="stop8" />
    </radialGradient>
    <path
       d="m -35.806,274.828 -0.189,0.373 v 16.923 h 1.866 v 14.935 h -1.866 v 38.764 l 0.123,0.373 0.5,0.061 h 51.868 l 0.334,-0.25 0.061,-0.25 v -44.712 l -1.242,0.04 v -3.982 l 1.242,0.018 v -13.082 l -9.333,-9.333 h -42.991 z"
       stroke-miterlimit="3"
       id="path11"
       inkscape:connector-curvature="0"
       style="fill:url(#a);stroke:#1c2059;stroke-width:0.31600001;stroke-linecap:round;stroke-linejoin:round;stroke-miterlimit:3" />
  </g>
  <path
     d="M 10.113,7.622 H 43.09 a 6.222,6.222 0 0 1 6.222,6.222 V 59.887 A 6.222,6.222 0 0 1 43.09,66.109 H 10.113 A 6.222,6.222 0 0 1 3.891,59.888 V 13.844 a 6.222,6.222 0 0 1 6.222,-6.222 z"
     id="path15"
     inkscape:connector-curvature="0"
     style="fill:#c5c8da" />
  <g
     transform="translate(58.122,-280.693)"
     id="g24">
    <linearGradient
       id="b"
       gradientUnits="userSpaceOnUse"
       x1="-89.796997"
       y1="473.526"
       x2="-89.796997"
       y2="472.79999"
       gradientTransform="matrix(1,0,0,-1,58.122,822.758)">
      <stop
         offset="0"
         stop-color="#2a2166"
         id="stop17" />
      <stop
         offset="1"
         stop-color="#282a83"
         id="stop19" />
    </linearGradient>
    <path
       d="m -47.801,348.766 h 32.252 c 0.286,0 0.518,0.383 0.518,0.857 0,0.473 -0.231,0.856 -0.518,0.856 h -32.252 c -0.286,0 -0.518,-0.383 -0.518,-0.856 0,-0.474 0.232,-0.857 0.518,-0.857 z"
       stroke-miterlimit="3"
       id="path22"
       inkscape:connector-curvature="0"
       style="fill:url(#b);stroke:#0b0b35;stroke-width:0.1;stroke-linecap:round;stroke-linejoin:round;stroke-miterlimit:3" />
  </g>
  <path
     d="M 6.558,24.282 7.225,29.24 9.433,24.282 H 49.312 V 13.844 A 6.222,6.222 0 0 0 43.09,7.622 H 10.113 a 6.222,6.222 0 0 0 -6.222,6.222 v 10.438 z"
     id="path26"
     inkscape:connector-curvature="0"
     style="fill:#162471" />
  <g
     id="g34"
     style="fill:#c5c8da"
     transform="translate(0,-9.9999273e-4)">
    <path
       d="m 22.282,17.531 c 0,0.33 -0.498,0.357 -1.923,0.33 -2.217,-0.036 -4.076,-0.258 -4.076,-0.258 l -0.87,2.398 c 0,0 2.11,0.145 4.362,0.145 3.212,0 5.858,0.127 6.342,-1.995 0.344,-1.497 -0.964,-2.203 -2.52,-2.664 -1.049,-0.312 -2.963,-0.742 -2.963,-1.117 0,-0.48 1.285,-0.466 2.176,-0.493 0.973,-0.027 4.741,-0.032 4.741,-0.032 l 0.48,-1.357 c 0,0 -2.71,-0.072 -5.401,0.059 -3.877,0.195 -4.601,1.054 -4.691,1.877 -0.118,1.068 1.321,1.809 2.194,2.144 0.832,0.316 2.149,0.551 2.149,0.963 m 10.35,-2.543 c -0.018,-0.036 -0.041,-0.072 -0.063,-0.109 l 4.673,-1.176 c 0.742,0.362 1.362,0.828 1.683,1.425 0.29,0.525 0.231,1.068 -0.104,1.597 -2.674,3.32 -9.626,3.298 -12.137,3.411 l 1.09,-3.072 c 0.665,-0.023 1.624,-0.118 2.199,-0.231 0.57,-0.113 1.081,-0.262 1.497,-0.439 0.416,-0.177 0.742,-0.375 0.95,-0.588 0.204,-0.213 0.303,-0.43 0.262,-0.656 a 0.751,0.751 0 0 0 -0.05,-0.162 m 3.619,-1.692 A 8.117,8.117 0 0 0 35.328,12.97 l -3.42,1.38 c 0.1,0.05 0.249,0.163 0.326,0.213 a 0.573,0.573 0 0 0 0.063,0.045 l 3.954,-1.312 m -2.805,-0.642 a 12.854,12.854 0 0 0 -1.312,-0.127 c -1.09,-0.027 -1.52,-0.05 -2.732,-0.045 l -0.484,1.366 c 0.299,0.009 0.434,-0.005 0.936,0.045 0.461,0.045 0.887,0.113 1.262,0.213 l 2.33,-1.452"
       id="path28"
       inkscape:connector-curvature="0" />
    <g
       id="g32">
      <path
         d="m 37.771,19.137 h -0.326 l -0.14,1.013 h -0.163 l 0.145,-1.013 h -0.326 l 0.023,-0.145 h 0.81 l -0.023,0.145 M 38.97,20.15 H 38.816 V 19.272 L 38.35,20.15 38.151,19.263 h -0.005 l -0.285,0.887 h -0.154 l 0.385,-1.158 h 0.131 l 0.176,0.783 0.416,-0.783 h 0.154 v 1.158"
         id="path30"
         inkscape:connector-curvature="0" />
    </g>
  </g>
  <g
     transform="translate(44.657,-287.304)"
     id="g38">
    <path
       d="m -34.544,294.926 h 32.977 a 6.222,6.222 0 0 1 6.222,6.222 v 46.043 a 6.222,6.222 0 0 1 -6.222,6.222 h -32.977 a 6.222,6.222 0 0 1 -6.222,-6.221 v -46.043 a 6.223,6.223 0 0 1 6.222,-6.223 z"
       stroke-miterlimit="3"
       id="path36"
       inkscape:connector-curvature="0"
       style="fill:none;stroke:#1c2059;stroke-width:0.31600001;stroke-linecap:round;stroke-linejoin:round;stroke-miterlimit:3" />
  </g>
  <path
     d="M 49.312,45.588 H 10.746 A 1.81,1.81 0 0 1 8.937,43.779 V 33.196 c 0,-0.999 0.81,-1.809 1.809,-1.809 h 38.566 z"
     stroke-miterlimit="10"
     id="path40"
     inkscape:connector-curvature="0"
     style="fill:none;stroke:#535763;stroke-width:0.5;stroke-miterlimit:10" />
  <g
     id="g44"
     style="fill:#c5c8da"
     transform="translate(0,-9.9999273e-4)">
    <path
       d="m 7.232,17.446 h 1.435 v 0.19 H 7.401 v 0.706 H 7.232 Z M 7.93,18.51 c 0.238,0 0.424,0.064 0.559,0.192 0.135,0.128 0.202,0.293 0.202,0.495 0,0.133 -0.032,0.252 -0.095,0.358 -0.063,0.106 -0.151,0.187 -0.265,0.243 -0.114,0.056 -0.241,0.084 -0.385,0.084 A 0.843,0.843 0 0 1 7.555,19.794 0.605,0.605 0 0 1 7.294,19.545 0.715,0.715 0 0 1 7.205,19.197 0.68,0.68 0 0 1 7.303,18.835 0.631,0.631 0 0 1 7.57,18.593 0.825,0.825 0 0 1 7.93,18.51 Z m -0.002,0.196 a 0.577,0.577 0 0 0 -0.409,0.14 0.456,0.456 0 0 0 -0.149,0.35 c 0,0.143 0.05,0.261 0.151,0.353 0.101,0.092 0.243,0.139 0.428,0.139 0.117,0 0.219,-0.02 0.306,-0.059 A 0.453,0.453 0 0 0 8.53,19.2 0.482,0.482 0 0 0 8.391,18.853 C 8.298,18.754 8.143,18.706 7.928,18.706 Z M 7.735,21.15 7.687,21.34 A 0.638,0.638 0 0 1 7.33,21.125 0.59,0.59 0 0 1 7.207,20.746 c 0,-0.155 0.032,-0.28 0.094,-0.377 0.063,-0.097 0.154,-0.171 0.274,-0.221 0.12,-0.05 0.247,-0.076 0.384,-0.076 0.15,0 0.28,0.029 0.391,0.086 A 0.58,0.58 0 0 1 8.603,20.402 0.708,0.708 0 0 1 8.69,20.75 0.588,0.588 0 0 1 8.58,21.112 0.566,0.566 0 0 1 8.272,21.316 L 8.228,21.129 A 0.447,0.447 0 0 0 8.456,20.984 0.383,0.383 0 0 0 8.527,20.745 0.467,0.467 0 0 0 8.448,20.468 C 8.395,20.394 8.324,20.342 8.235,20.312 8.146,20.282 8.054,20.267 7.959,20.267 A 0.885,0.885 0 0 0 7.64,20.32 0.4,0.4 0 0 0 7.436,20.486 0.485,0.485 0 0 0 7.37,20.73 c 0,0.106 0.031,0.196 0.092,0.27 a 0.467,0.467 0 0 0 0.273,0.15 z m -0.503,0.416 h 1.435 v 0.19 H 7.955 l 0.711,0.712 v 0.257 L 8.085,22.123 7.232,22.751 v -0.25 L 7.958,21.99 7.729,21.755 H 7.232 Z"
       id="path42"
       inkscape:connector-curvature="0" />
  </g>
  <path
     d="m 43.357,13.47 0.913,-3.234 0.913,3.234 z"
     id="path46"
     inkscape:connector-curvature="0"
     style="fill:#c5c8da" />
  <path
     d="M 11.189,55.085 H 10.3 V 51.072 L 9.41,53.78 H 8.813 L 7.91,51.042 v 4.042 H 7.02 v -6.77 h 0.89 l 1.202,3.738 1.188,-3.738 h 0.889 z m 1.545,-2.051 c 0,0.379 0.059,0.651 0.177,0.814 a 0.58,0.58 0 0 0 0.502,0.246 0.518,0.518 0 0 0 0.395,-0.152 c 0.095,-0.102 0.146,-0.244 0.156,-0.427 l 0.007,-0.029 h 0.801 v 0.049 c 0,0.484 -0.124,0.874 -0.373,1.167 -0.249,0.294 -0.589,0.442 -1.019,0.442 -0.453,0 -0.813,-0.188 -1.08,-0.564 -0.267,-0.376 -0.4,-0.957 -0.4,-1.741 v -0.618 c 0,-0.766 0.129,-1.339 0.387,-1.722 0.258,-0.383 0.613,-0.574 1.066,-0.574 0.443,0 0.796,0.193 1.056,0.579 0.261,0.386 0.391,0.958 0.391,1.717 v 0.677 h -2.064 v 0.136 z m 0,-1 v 0.029 h 1.223 v -0.127 c 0,-0.647 -0.202,-0.971 -0.604,-0.971 a 0.513,0.513 0 0 0 -0.458,0.245 c -0.107,0.163 -0.161,0.437 -0.161,0.824 z m 3.562,-2.051 v 0.461 a 1.19,1.19 0 0 1 0.377,-0.383 0.849,0.849 0 0 1 0.458,-0.137 c 0.394,0 0.695,0.212 0.903,0.638 0.271,-0.425 0.604,-0.638 0.998,-0.638 0.376,0 0.669,0.164 0.879,0.49 0.211,0.327 0.316,0.775 0.316,1.344 v 3.326 h -0.843 v -3.179 c 0,-0.294 -0.051,-0.519 -0.152,-0.672 -0.101,-0.153 -0.234,-0.23 -0.397,-0.23 a 0.465,0.465 0 0 0 -0.41,0.24 c -0.103,0.161 -0.153,0.372 -0.153,0.633 v 3.208 H 17.43 v -3.179 c 0,-0.294 -0.051,-0.519 -0.152,-0.672 -0.103,-0.154 -0.234,-0.23 -0.397,-0.23 -0.168,0 -0.304,0.079 -0.407,0.235 -0.104,0.157 -0.156,0.379 -0.156,0.667 v 3.179 h -0.843 v -5.102 h 0.821 z m 4.607,3.022 v -0.952 c 0,-0.726 0.128,-1.262 0.384,-1.609 0.256,-0.347 0.605,-0.52 1.049,-0.52 0.439,0 0.785,0.173 1.039,0.52 0.253,0.347 0.38,0.883 0.38,1.609 v 0.952 c 0,0.732 -0.127,1.272 -0.38,1.619 -0.254,0.347 -0.6,0.52 -1.039,0.52 -0.443,0 -0.793,-0.173 -1.049,-0.52 -0.256,-0.347 -0.384,-0.887 -0.384,-1.619 z m 2.017,-0.932 c 0,-0.713 -0.194,-1.069 -0.584,-1.069 -0.398,0 -0.598,0.356 -0.598,1.069 v 0.922 c 0,0.713 0.199,1.069 0.598,1.069 0.39,0 0.584,-0.356 0.584,-1.069 z m 2.331,-2.09 v 0.53 c 0.086,-0.216 0.201,-0.376 0.346,-0.48 a 0.817,0.817 0 0 1 0.489,-0.157 c 0.104,0 0.199,0.013 0.285,0.04 v 1.138 A 1.039,1.039 0 0 0 25.95,50.946 c -0.204,0 -0.368,0.093 -0.492,0.28 -0.125,0.187 -0.187,0.453 -0.187,0.8 v 3.061 h -0.843 v -5.102 h 0.823 z m 3.118,5.543 c -0.091,0.373 -0.221,0.645 -0.391,0.814 -0.17,0.169 -0.395,0.255 -0.676,0.255 H 27.01 v -1.089 h 0.266 c 0.136,0 0.236,-0.034 0.302,-0.103 0.066,-0.069 0.119,-0.198 0.159,-0.388 l 0.014,-0.068 -1.194,-4.965 h 0.889 l 0.693,3.208 0.706,-3.208 h 0.862 z m 3.297,-4.611 c 0,-1.799 0.572,-2.698 1.718,-2.698 0.512,0 0.919,0.196 1.222,0.589 0.304,0.393 0.455,0.945 0.455,1.658 v 0.068 h -0.89 v -0.059 c 0,-0.347 -0.068,-0.622 -0.207,-0.824 a 0.668,0.668 0 0 0 -0.587,-0.304 0.648,0.648 0 0 0 -0.621,0.383 c -0.129,0.255 -0.194,0.674 -0.194,1.256 v 1.462 c 0,0.549 0.067,0.948 0.201,1.197 a 0.664,0.664 0 0 0 0.628,0.373 c 0.253,0 0.446,-0.098 0.58,-0.294 0.134,-0.196 0.2,-0.464 0.2,-0.805 v -0.078 h 0.876 v 0.068 c 0,0.726 -0.149,1.284 -0.448,1.673 -0.299,0.389 -0.708,0.584 -1.229,0.584 -1.137,0 -1.704,-0.899 -1.704,-2.698 z m 6.671,0.814 v 3.355 h -0.814 v -0.441 a 1.29,1.29 0 0 1 -0.363,0.382 0.869,0.869 0 0 1 -0.473,0.118 c -0.361,0 -0.643,-0.141 -0.842,-0.422 -0.199,-0.282 -0.299,-0.671 -0.299,-1.168 0,-0.458 0.106,-0.819 0.319,-1.084 0.213,-0.265 0.51,-0.397 0.89,-0.397 h 0.747 V 51.67 c 0,-0.542 -0.188,-0.814 -0.563,-0.814 a 0.46,0.46 0 0 0 -0.377,0.171 0.704,0.704 0 0 0 -0.14,0.457 v 0.029 h -0.78 v -0.039 c 0,-0.478 0.117,-0.855 0.353,-1.133 0.235,-0.278 0.553,-0.417 0.951,-0.417 0.448,0 0.792,0.152 1.032,0.456 0.238,0.304 0.359,0.754 0.359,1.349 z M 37.502,53.27 V 52.907 H 36.89 c -0.354,0 -0.529,0.206 -0.529,0.618 0,0.425 0.172,0.638 0.516,0.638 0.222,0 0.382,-0.074 0.479,-0.221 0.097,-0.147 0.146,-0.371 0.146,-0.672 z m 2.391,-3.287 v 0.53 c 0.086,-0.216 0.201,-0.376 0.346,-0.48 a 0.817,0.817 0 0 1 0.489,-0.157 c 0.104,0 0.199,0.013 0.285,0.04 v 1.138 a 1.039,1.039 0 0 0 -0.421,-0.108 c -0.204,0 -0.368,0.093 -0.492,0.28 -0.125,0.187 -0.187,0.453 -0.187,0.8 v 3.061 H 39.07 v -5.102 h 0.823 z m 1.414,3.051 v -1.01 c 0,-0.707 0.107,-1.233 0.322,-1.58 0.215,-0.347 0.495,-0.52 0.839,-0.52 0.353,0 0.627,0.193 0.821,0.579 v -2.188 h 0.835 v 6.77 h -0.821 v -0.471 c -0.194,0.353 -0.471,0.53 -0.828,0.53 -0.34,0 -0.619,-0.175 -0.839,-0.525 -0.219,-0.35 -0.329,-0.878 -0.329,-1.585 z m 1.983,-0.039 v -0.922 c 0,-0.347 -0.051,-0.611 -0.152,-0.794 -0.103,-0.183 -0.243,-0.275 -0.425,-0.275 -0.376,0 -0.563,0.356 -0.563,1.069 v 0.922 c 0,0.713 0.182,1.069 0.543,1.069 0.19,0 0.338,-0.091 0.441,-0.274 0.104,-0.183 0.156,-0.448 0.156,-0.795 z"
     id="path48"
     inkscape:connector-curvature="0" />
  <g
     id="g52"
     style="fill:#43414f"
     transform="translate(0,-9.9999273e-4)">
    <path
       d="m 46,38.456 v 1.179 h -3.682 l 2.484,1.18 v 0.792 L 42.29,42.804 H 46 v 1.18 h -6.212 v -1.18 l 3.431,-1.593 -3.431,-1.576 v -1.179 z m -1.784,-5.463 c 0.564,0 1.003,0.168 1.314,0.504 0.313,0.337 0.47,0.805 0.47,1.404 v 2.494 H 39.788 V 35 c 0,-0.606 0.149,-1.079 0.45,-1.418 0.301,-0.339 0.727,-0.509 1.278,-0.509 0.276,0 0.53,0.069 0.761,0.207 0.231,0.138 0.406,0.33 0.527,0.576 0.125,-0.282 0.309,-0.496 0.549,-0.644 0.24,-0.148 0.528,-0.219 0.863,-0.219 z m -1.889,3.223 v -1.125 c 0,-0.27 -0.065,-0.476 -0.194,-0.616 -0.129,-0.142 -0.311,-0.212 -0.544,-0.212 -0.253,0 -0.444,0.07 -0.576,0.212 -0.132,0.141 -0.198,0.347 -0.198,0.616 v 1.125 z m 1.809,-2.043 c -0.246,0 -0.438,0.07 -0.576,0.211 -0.139,0.142 -0.207,0.353 -0.207,0.635 v 1.197 h 1.62 v -1.197 c 0,-0.282 -0.073,-0.493 -0.221,-0.635 -0.147,-0.141 -0.352,-0.211 -0.616,-0.211 z"
       id="path50"
       inkscape:connector-curvature="0" />
  </g>
  <g
     id="g56"
     style="fill:#16161b"
     transform="translate(0,-9.9999273e-4)">
    <path
       d="m 21.948,37.628 c 0.354,-0.522 0.532,-1.019 0.532,-1.49 v -0.215 c 0,-0.369 -0.091,-0.661 -0.273,-0.876 -0.182,-0.215 -0.428,-0.323 -0.736,-0.323 -0.308,0 -0.551,0.113 -0.729,0.338 -0.178,0.225 -0.267,0.538 -0.267,0.937 v 0.246 h -1.781 v -0.369 c 0,-0.553 0.114,-1.045 0.344,-1.475 0.229,-0.431 0.559,-0.769 0.988,-1.014 0.431,-0.246 0.936,-0.369 1.515,-0.369 0.561,0 1.054,0.128 1.479,0.384 0.426,0.256 0.753,0.599 0.981,1.03 0.229,0.43 0.344,0.906 0.344,1.429 v 0.261 c 0,0.461 -0.075,0.886 -0.225,1.275 -0.15,0.389 -0.369,0.789 -0.659,1.199 l -2.411,3.426 h 3.295 v 1.767 h -5.609 v -1.598 z m 3.731,3.718 v -0.23 h 1.683 v 0.092 c 0,0.328 0.094,0.584 0.28,0.769 0.188,0.184 0.444,0.276 0.771,0.276 0.355,0 0.619,-0.125 0.792,-0.376 0.173,-0.251 0.26,-0.617 0.26,-1.099 v -0.799 c 0,-0.502 -0.087,-0.874 -0.26,-1.114 -0.173,-0.24 -0.441,-0.361 -0.806,-0.361 -0.468,0 -0.8,0.241 -0.996,0.722 H 25.82 v -6.039 h 5.23 v 1.721 h -3.646 v 2.397 c 0.374,-0.328 0.832,-0.492 1.374,-0.492 0.813,0 1.429,0.264 1.845,0.792 0.416,0.527 0.624,1.283 0.624,2.266 v 0.999 c 0,0.973 -0.25,1.731 -0.751,2.274 -0.5,0.543 -1.194,0.814 -2.082,0.814 -0.842,0 -1.508,-0.23 -1.998,-0.691 -0.492,-0.461 -0.737,-1.101 -0.737,-1.921 z m 6.902,-0.522 v -0.477 c 0,-0.42 0.054,-0.819 0.161,-1.199 a 8.94,8.94 0 0 1 0.47,-1.245 l 2.216,-4.717 h 1.936 l -2.006,4.287 c 0.206,-0.102 0.439,-0.153 0.701,-0.153 0.758,0 1.363,0.264 1.816,0.791 0.453,0.528 0.68,1.247 0.68,2.159 v 0.492 c 0,1.004 -0.273,1.788 -0.82,2.351 -0.547,0.563 -1.269,0.845 -2.166,0.845 -0.936,0 -1.667,-0.276 -2.195,-0.83 -0.529,-0.552 -0.793,-1.32 -0.793,-2.304 z m 4.136,0.03 v -0.476 c 0,-0.44 -0.103,-0.781 -0.309,-1.022 -0.205,-0.241 -0.486,-0.361 -0.841,-0.361 -0.355,0 -0.634,0.12 -0.835,0.361 -0.2,0.241 -0.301,0.576 -0.301,1.006 v 0.507 c 0,0.43 0.101,0.768 0.301,1.014 0.201,0.246 0.479,0.369 0.835,0.369 0.354,0 0.636,-0.123 0.841,-0.369 0.207,-0.245 0.309,-0.588 0.309,-1.029 z"
       id="path54"
       inkscape:connector-curvature="0" />
  </g>
  <g
     id="g60"
     transform="translate(0,-9.9999273e-4)">
    <path
       d="m 32.487,58.496 v -0.084 h 0.339 v 0.06 c 0,0.096 0.019,0.168 0.057,0.218 0.038,0.05 0.093,0.074 0.165,0.074 0.069,0 0.123,-0.032 0.163,-0.096 0.04,-0.064 0.06,-0.151 0.06,-0.26 V 58.336 A 0.494,0.494 0 0 0 33.207,58.06 0.208,0.208 0 0 0 33.021,57.964 H 32.923 V 57.52 h 0.095 c 0.07,0 0.125,-0.029 0.164,-0.088 0.039,-0.059 0.059,-0.14 0.059,-0.244 v -0.06 A 0.443,0.443 0 0 0 33.186,56.89 0.168,0.168 0 0 0 33.038,56.804 c -0.064,0 -0.115,0.026 -0.15,0.078 -0.035,0.052 -0.053,0.123 -0.053,0.214 v 0.068 h -0.333 v -0.068 c 0,-0.232 0.049,-0.413 0.146,-0.542 a 0.48,0.48 0 0 1 0.404,-0.194 c 0.169,0 0.301,0.066 0.397,0.198 0.096,0.132 0.145,0.309 0.145,0.53 v 0.06 a 0.84,0.84 0 0 1 -0.059,0.322 0.545,0.545 0 0 1 -0.167,0.226 0.47,0.47 0 0 1 0.19,0.24 c 0.044,0.109 0.065,0.241 0.065,0.396 v 0.076 c 0,0.163 -0.024,0.304 -0.072,0.423 a 0.627,0.627 0 0 1 -0.202,0.278 0.484,0.484 0 0 1 -0.295,0.098 0.505,0.505 0 0 1 -0.418,-0.186 c -0.099,-0.123 -0.149,-0.298 -0.149,-0.525 z m 1.884,0.1 v 0.568 h -0.386 v -0.568 z m 0.351,-0.1 v -0.084 h 0.339 v 0.06 c 0,0.096 0.019,0.168 0.057,0.218 0.038,0.05 0.093,0.074 0.165,0.074 0.069,0 0.123,-0.032 0.163,-0.096 0.04,-0.064 0.06,-0.151 0.06,-0.26 V 58.336 A 0.503,0.503 0 0 0 35.443,58.06 0.211,0.211 0 0 0 35.256,57.964 H 35.158 V 57.52 h 0.095 c 0.07,0 0.125,-0.029 0.164,-0.088 0.039,-0.059 0.059,-0.14 0.059,-0.244 v -0.06 A 0.443,0.443 0 0 0 35.421,56.89 0.168,0.168 0 0 0 35.273,56.804 c -0.064,0 -0.115,0.026 -0.15,0.078 -0.035,0.052 -0.053,0.123 -0.053,0.214 v 0.068 h -0.333 v -0.068 c 0,-0.232 0.049,-0.413 0.146,-0.542 a 0.48,0.48 0 0 1 0.404,-0.194 c 0.169,0 0.301,0.066 0.397,0.198 0.096,0.132 0.145,0.309 0.145,0.53 v 0.06 a 0.84,0.84 0 0 1 -0.059,0.322 0.545,0.545 0 0 1 -0.167,0.226 0.47,0.47 0 0 1 0.19,0.24 c 0.044,0.109 0.065,0.241 0.065,0.396 v 0.076 c 0,0.163 -0.024,0.304 -0.072,0.423 a 0.627,0.627 0 0 1 -0.202,0.278 0.484,0.484 0 0 1 -0.295,0.098 0.505,0.505 0 0 1 -0.418,-0.186 c -0.099,-0.123 -0.149,-0.298 -0.149,-0.525 z m 1.785,-2.09 0.378,1.907 0.377,-1.907 h 0.381 l -0.613,2.758 h -0.292 l -0.611,-2.758 z"
       id="path58"
       inkscape:connector-curvature="0" />
  </g>
  <g
     id="g64"
     transform="translate(0,-9.9999273e-4)">
    <path
       d="M 6.827,62.852 A 0.524,0.524 0 0 1 6.379,62.619 C 6.267,62.464 6.211,62.253 6.211,61.985 V 61.84 c 0,-0.295 0.067,-0.525 0.202,-0.691 A 0.655,0.655 0 0 1 6.948,60.9 c 0.231,0 0.412,0.081 0.542,0.244 0.131,0.163 0.196,0.389 0.196,0.678 v 0.14 c 0,0.121 -0.014,0.237 -0.04,0.35 A 2.734,2.734 0 0 1 7.53,62.68 L 6.983,64.067 H 6.505 L 7,62.806 a 0.327,0.327 0 0 1 -0.173,0.046 z m 0.401,-0.895 v -0.149 c 0,-0.126 -0.024,-0.226 -0.074,-0.298 -0.05,-0.072 -0.118,-0.108 -0.206,-0.108 -0.088,0 -0.157,0.036 -0.208,0.108 -0.051,0.072 -0.076,0.173 -0.076,0.302 v 0.14 c 0,0.129 0.025,0.229 0.076,0.3 0.051,0.071 0.12,0.106 0.208,0.106 0.088,0 0.156,-0.035 0.206,-0.106 0.05,-0.071 0.074,-0.168 0.074,-0.295 z m 2.168,1.613 v 0.497 H 8.943 V 63.57 H 8.028 V 63.05 L 8.711,60.949 H 9.165 L 8.482,63.05 H 8.943 V 62.318 H 9.396 V 63.05 H 9.59 v 0.52 z m 0.505,-1.585 v -0.642 l 0.401,-0.393 h 0.454 v 3.117 h -0.454 v -2.461 z m 1.271,0 v -0.642 l 0.401,-0.393 h 0.454 v 3.117 h -0.454 v -2.461 z m 1.318,1.056 v -1.102 c 0,-0.34 0.061,-0.598 0.183,-0.774 a 0.604,0.604 0 0 1 0.531,-0.264 c 0.242,0 0.422,0.087 0.539,0.262 0.116,0.175 0.175,0.434 0.175,0.777 v 1.102 c 0,0.355 -0.059,0.624 -0.175,0.804 -0.117,0.181 -0.297,0.271 -0.539,0.271 -0.242,0 -0.422,-0.09 -0.539,-0.269 C 12.549,63.668 12.49,63.4 12.49,63.041 Z m 0.974,-0.049 v -0.967 c 0,-0.223 -0.018,-0.379 -0.054,-0.47 -0.036,-0.091 -0.104,-0.136 -0.206,-0.136 -0.102,0 -0.17,0.045 -0.204,0.136 -0.035,0.09 -0.052,0.247 -0.052,0.47 v 0.967 c 0,0.223 0.018,0.38 0.054,0.472 a 0.199,0.199 0 0 0 0.202,0.138 c 0.102,0 0.17,-0.046 0.206,-0.138 0.036,-0.092 0.054,-0.249 0.054,-0.472 z m 1.8,-0.746 v 0.52 h -0.952 v -0.52 z m 0.994,0.606 A 0.524,0.524 0 0 1 15.81,62.619 C 15.698,62.464 15.642,62.253 15.642,61.985 V 61.84 c 0,-0.295 0.067,-0.525 0.202,-0.691 A 0.655,0.655 0 0 1 16.379,60.9 c 0.231,0 0.412,0.081 0.542,0.244 0.131,0.163 0.196,0.389 0.196,0.678 v 0.14 c 0,0.121 -0.014,0.237 -0.04,0.35 a 2.734,2.734 0 0 1 -0.116,0.368 l -0.547,1.387 h -0.479 l 0.495,-1.26 a 0.33,0.33 0 0 1 -0.172,0.045 z m 0.401,-0.895 v -0.149 c 0,-0.126 -0.024,-0.226 -0.074,-0.298 -0.05,-0.072 -0.118,-0.108 -0.206,-0.108 -0.088,0 -0.157,0.036 -0.208,0.108 -0.051,0.072 -0.076,0.173 -0.076,0.302 v 0.14 c 0,0.129 0.025,0.229 0.076,0.3 0.051,0.071 0.12,0.106 0.208,0.106 0.088,0 0.156,-0.035 0.206,-0.106 0.05,-0.071 0.074,-0.168 0.074,-0.295 z m 1.638,0.299 a 0.887,0.887 0 0 0 0.132,-0.438 v -0.063 a 0.435,0.435 0 0 0 -0.067,-0.257 c -0.045,-0.063 -0.105,-0.095 -0.182,-0.095 -0.077,0 -0.137,0.033 -0.181,0.099 a 0.502,0.502 0 0 0 -0.065,0.275 v 0.072 h -0.439 v -0.108 c 0,-0.163 0.028,-0.307 0.085,-0.434 a 0.646,0.646 0 0 1 0.618,-0.406 c 0.138,0 0.26,0.038 0.365,0.113 0.104,0.075 0.186,0.176 0.242,0.303 0.056,0.127 0.085,0.267 0.085,0.42 v 0.077 c 0,0.136 -0.019,0.261 -0.056,0.375 -0.037,0.114 -0.091,0.232 -0.162,0.352 l -0.597,1.007 h 0.814 v 0.52 h -1.386 v -0.47 z m 0.986,1.092 v -0.067 h 0.416 v 0.027 c 0,0.096 0.023,0.171 0.069,0.226 a 0.236,0.236 0 0 0 0.19,0.081 0.21,0.21 0 0 0 0.195,-0.111 0.652,0.652 0 0 0 0.064,-0.323 v -0.235 c 0,-0.147 -0.021,-0.257 -0.064,-0.328 -0.042,-0.071 -0.108,-0.106 -0.199,-0.106 -0.115,0 -0.197,0.071 -0.245,0.212 H 19.317 V 60.95 h 1.292 v 0.506 h -0.9 v 0.705 a 0.449,0.449 0 0 1 0.339,-0.145 c 0.201,0 0.353,0.077 0.456,0.232 0.103,0.155 0.153,0.377 0.153,0.666 v 0.294 c 0,0.286 -0.062,0.509 -0.185,0.668 a 0.614,0.614 0 0 1 -0.515,0.24 0.626,0.626 0 0 1 -0.493,-0.204 C 19.343,63.778 19.283,63.59 19.283,63.348 Z m 2.251,0.114 -0.146,0.605 H 20.91 l 0.849,-3.117 h 0.371 l 0.852,3.117 H 22.5 l -0.146,-0.605 z m 0.408,-1.69 -0.287,1.197 h 0.578 z m 1.291,1.269 v -1.102 c 0,-0.34 0.061,-0.598 0.183,-0.774 a 0.604,0.604 0 0 1 0.531,-0.264 c 0.242,0 0.422,0.087 0.539,0.262 0.116,0.175 0.175,0.434 0.175,0.777 v 1.102 c 0,0.355 -0.059,0.624 -0.175,0.804 -0.117,0.181 -0.297,0.271 -0.539,0.271 -0.242,0 -0.422,-0.09 -0.539,-0.269 -0.116,-0.18 -0.175,-0.448 -0.175,-0.807 z m 0.974,-0.049 v -0.967 c 0,-0.223 -0.018,-0.379 -0.054,-0.47 -0.036,-0.091 -0.104,-0.136 -0.206,-0.136 -0.102,0 -0.17,0.045 -0.204,0.136 -0.035,0.09 -0.052,0.247 -0.052,0.47 v 0.967 c 0,0.223 0.018,0.38 0.054,0.472 a 0.199,0.199 0 0 0 0.202,0.138 c 0.102,0 0.17,-0.046 0.206,-0.138 0.036,-0.092 0.054,-0.249 0.054,-0.472 z m 0.864,0.049 v -1.102 c 0,-0.34 0.061,-0.598 0.183,-0.774 a 0.604,0.604 0 0 1 0.531,-0.264 c 0.242,0 0.422,0.087 0.539,0.262 0.116,0.175 0.175,0.434 0.175,0.777 v 1.102 c 0,0.355 -0.059,0.624 -0.175,0.804 -0.117,0.181 -0.297,0.271 -0.539,0.271 -0.242,0 -0.422,-0.09 -0.539,-0.269 -0.116,-0.18 -0.175,-0.448 -0.175,-0.807 z m 0.974,-0.049 v -0.967 c 0,-0.223 -0.018,-0.379 -0.054,-0.47 -0.036,-0.091 -0.104,-0.136 -0.206,-0.136 -0.102,0 -0.17,0.045 -0.204,0.136 -0.035,0.09 -0.052,0.247 -0.052,0.47 v 0.967 c 0,0.223 0.018,0.38 0.054,0.472 a 0.199,0.199 0 0 0 0.202,0.138 c 0.102,0 0.17,-0.046 0.206,-0.138 0.036,-0.092 0.054,-0.249 0.054,-0.472 z m 1.35,-2.042 v 2.602 h 1.046 v 0.515 h -1.5 V 60.95 Z m 1.852,1.314 h 0.911 v 0.515 h -0.911 v 1.287 H 28.793 V 60.95 h 1.518 v 0.515 h -1.063 v 0.799 z m 3.05,-0.008 a 0.887,0.887 0 0 0 0.132,-0.438 v -0.063 a 0.435,0.435 0 0 0 -0.067,-0.257 c -0.045,-0.063 -0.105,-0.095 -0.182,-0.095 -0.077,0 -0.137,0.033 -0.181,0.099 a 0.502,0.502 0 0 0 -0.065,0.275 v 0.072 h -0.439 v -0.108 c 0,-0.163 0.028,-0.307 0.085,-0.434 a 0.646,0.646 0 0 1 0.618,-0.406 c 0.138,0 0.26,0.038 0.365,0.113 0.104,0.075 0.186,0.176 0.242,0.303 0.056,0.127 0.085,0.267 0.085,0.42 v 0.077 c 0,0.136 -0.019,0.261 -0.056,0.375 -0.037,0.114 -0.091,0.232 -0.162,0.352 l -0.597,1.007 h 0.814 v 0.52 h -1.386 v -0.47 z m 0.986,0.785 v -1.102 c 0,-0.34 0.061,-0.598 0.183,-0.774 a 0.604,0.604 0 0 1 0.531,-0.264 c 0.242,0 0.422,0.087 0.539,0.262 0.116,0.175 0.175,0.434 0.175,0.777 v 1.102 c 0,0.355 -0.059,0.624 -0.175,0.804 -0.117,0.181 -0.297,0.271 -0.539,0.271 -0.242,0 -0.422,-0.09 -0.539,-0.269 -0.117,-0.18 -0.175,-0.448 -0.175,-0.807 z m 0.974,-0.049 v -0.967 c 0,-0.223 -0.018,-0.379 -0.054,-0.47 -0.036,-0.091 -0.104,-0.136 -0.206,-0.136 -0.102,0 -0.17,0.045 -0.204,0.136 -0.035,0.09 -0.052,0.247 -0.052,0.47 v 0.967 c 0,0.223 0.018,0.38 0.054,0.472 a 0.199,0.199 0 0 0 0.202,0.138 c 0.102,0 0.17,-0.046 0.206,-0.138 0.036,-0.092 0.054,-0.249 0.054,-0.472 z m 2.181,0.578 v 0.497 H 35.985 V 63.57 H 35.07 v -0.52 l 0.683,-2.101 h 0.454 l -0.683,2.101 h 0.461 v -0.732 h 0.453 v 0.732 h 0.194 v 0.52 z m 0.553,-0.222 v -0.067 h 0.416 v 0.027 c 0,0.096 0.023,0.171 0.069,0.226 a 0.236,0.236 0 0 0 0.19,0.081 0.21,0.21 0 0 0 0.195,-0.111 0.652,0.652 0 0 0 0.064,-0.323 v -0.235 c 0,-0.147 -0.021,-0.257 -0.064,-0.328 -0.042,-0.071 -0.108,-0.106 -0.199,-0.106 -0.115,0 -0.197,0.071 -0.245,0.212 H 37.025 V 60.95 h 1.292 v 0.506 h -0.9 v 0.705 a 0.449,0.449 0 0 1 0.339,-0.145 c 0.201,0 0.353,0.077 0.456,0.232 0.103,0.155 0.153,0.377 0.153,0.666 v 0.294 c 0,0.286 -0.062,0.509 -0.185,0.668 a 0.614,0.614 0 0 1 -0.515,0.24 0.626,0.626 0 0 1 -0.493,-0.204 C 37.051,63.778 36.991,63.59 36.991,63.348 Z m 1.77,-0.153 v -0.14 c 0,-0.124 0.013,-0.241 0.039,-0.352 0.027,-0.112 0.065,-0.233 0.116,-0.366 l 0.548,-1.387 h 0.478 l -0.495,1.26 a 0.333,0.333 0 0 1 0.173,-0.045 c 0.188,0 0.337,0.078 0.449,0.232 0.111,0.155 0.168,0.367 0.168,0.635 v 0.145 c 0,0.295 -0.068,0.525 -0.203,0.691 a 0.655,0.655 0 0 1 -0.535,0.249 0.66,0.66 0 0 1 -0.542,-0.244 C 38.826,63.71 38.761,63.484 38.761,63.195 Z m 1.022,0.009 v -0.14 c 0,-0.13 -0.025,-0.23 -0.076,-0.301 -0.051,-0.071 -0.12,-0.106 -0.208,-0.106 -0.088,0 -0.156,0.035 -0.206,0.106 -0.05,0.071 -0.074,0.169 -0.074,0.296 v 0.149 c 0,0.126 0.024,0.226 0.074,0.298 0.05,0.072 0.118,0.108 0.206,0.108 0.088,0 0.157,-0.036 0.208,-0.108 0.051,-0.072 0.076,-0.173 0.076,-0.302 z m 0.942,0.483 A 1.147,1.147 0 0 1 40.629,63.208 V 63.104 A 0.98,0.98 0 0 1 40.705,62.713 0.687,0.687 0 0 1 40.92,62.43 0.608,0.608 0 0 1 40.742,62.189 0.898,0.898 0 0 1 40.674,61.83 v -0.08 c 0,-0.154 0.028,-0.295 0.085,-0.425 0.057,-0.13 0.137,-0.232 0.241,-0.309 a 0.6,0.6 0 0 1 0.367,-0.115 c 0.14,0 0.264,0.038 0.369,0.115 0.104,0.077 0.185,0.18 0.24,0.309 0.055,0.129 0.083,0.271 0.083,0.425 v 0.081 a 0.868,0.868 0 0 1 -0.069,0.357 0.613,0.613 0 0 1 -0.177,0.244 0.694,0.694 0 0 1 0.214,0.287 0.992,0.992 0 0 1 0.074,0.382 v 0.104 c 0,0.184 -0.032,0.345 -0.096,0.483 -0.064,0.138 -0.151,0.245 -0.263,0.318 a 0.672,0.672 0 0 1 -0.38,0.111 0.66,0.66 0 0 1 -0.377,-0.111 0.756,0.756 0 0 1 -0.26,-0.319 z M 41.666,63.2 v -0.108 a 0.489,0.489 0 0 0 -0.081,-0.293 0.257,0.257 0 0 0 -0.217,-0.113 c -0.088,0 -0.159,0.038 -0.215,0.113 -0.056,0.075 -0.083,0.173 -0.083,0.293 V 63.2 c 0,0.124 0.026,0.224 0.079,0.3 a 0.252,0.252 0 0 0 0.219,0.115 c 0.09,0 0.162,-0.038 0.217,-0.113 A 0.515,0.515 0 0 0 41.666,63.2 Z M 41.624,61.836 V 61.75 a 0.42,0.42 0 0 0 -0.07,-0.249 c -0.048,-0.066 -0.109,-0.099 -0.186,-0.099 -0.077,0 -0.138,0.033 -0.186,0.099 a 0.419,0.419 0 0 0 -0.071,0.249 v 0.086 c 0,0.108 0.023,0.195 0.069,0.262 0.047,0.066 0.108,0.1 0.188,0.1 a 0.216,0.216 0 0 0 0.187,-0.102 0.455,0.455 0 0 0 0.069,-0.26 z m 2.161,-0.371 -0.728,2.602 h -0.458 l 0.742,-2.602 H 42.408 V 60.95 h 1.376 v 0.515 z m 0.294,0.52 V 61.343 L 44.48,60.95 h 0.454 v 3.117 H 44.48 v -2.461 z"
       id="path62"
       inkscape:connector-curvature="0" />
  </g>
  <ellipse
     cx="12.082"
     cy="43.338001"
     rx="5.2659998"
     ry="3.375"
     id="ellipse66"
     style="fill:#162471" />
  <g
     id="g74"
     style="fill:#c5c8da"
     transform="translate(0,-9.9999273e-4)">
    <path
       d="m 10.799,43.093 h -0.348 v -0.73 H 9.844 v 0.73 H 9.496 v -1.727 h 0.349 v 0.71 h 0.607 v -0.71 H 10.8 v 1.727 z m 0.675,-1.726 v 1.727 h -0.348 v -1.727 z m 0.304,0.663 c 0,-0.459 0.224,-0.688 0.672,-0.688 0.2,0 0.359,0.05 0.478,0.149 0.119,0.1 0.178,0.237 0.178,0.412 v 0.018 h -0.348 v -0.018 a 0.256,0.256 0 0 0 -0.081,-0.195 c -0.054,-0.052 -0.13,-0.078 -0.229,-0.078 -0.111,0 -0.192,0.032 -0.243,0.098 -0.05,0.065 -0.075,0.172 -0.075,0.32 v 0.373 c 0,0.142 0.026,0.244 0.081,0.307 0.054,0.063 0.138,0.094 0.251,0.094 0.105,0 0.184,-0.026 0.232,-0.078 0.048,-0.051 0.072,-0.13 0.072,-0.235 v -0.083 h -0.323 v -0.271 h 0.663 v 0.295 c 0,0.442 -0.22,0.663 -0.661,0.663 -0.444,0 -0.666,-0.229 -0.666,-0.688 V 42.03 Z m 2.891,1.063 h -0.348 v -0.73 h -0.607 v 0.73 h -0.349 v -1.727 h 0.349 v 0.71 h 0.607 v -0.71 h 0.348 z"
       id="path68"
       inkscape:connector-curvature="0" />
    <g
       id="g72">
      <path
         d="m 8.498,44.797 h 0.329 c 0.013,0.095 0.045,0.162 0.097,0.201 a 0.38,0.38 0 0 0 0.232,0.059 c 0.196,0 0.295,-0.076 0.295,-0.228 0,-0.068 -0.02,-0.12 -0.059,-0.156 A 0.35,0.35 0 0 0 9.206,44.599 L 9.033,44.571 C 8.702,44.52 8.537,44.36 8.537,44.091 c 0,-0.16 0.056,-0.287 0.168,-0.38 A 0.674,0.674 0 0 1 9.152,43.57 c 0.181,0 0.324,0.045 0.43,0.135 0.104,0.09 0.165,0.217 0.179,0.38 H 9.427 C 9.421,44.002 9.396,43.941 9.35,43.902 A 0.31,0.31 0 0 0 9.148,43.844 c -0.09,0 -0.158,0.02 -0.204,0.059 a 0.2,0.2 0 0 0 -0.069,0.161 c 0,0.06 0.021,0.108 0.062,0.143 0.04,0.035 0.104,0.06 0.19,0.075 l 0.194,0.033 c 0.314,0.053 0.473,0.215 0.473,0.485 0,0.173 -0.06,0.306 -0.177,0.398 -0.118,0.092 -0.276,0.138 -0.477,0.138 -0.196,0 -0.35,-0.046 -0.459,-0.139 a 0.541,0.541 0 0 1 -0.183,-0.4 z m 2.827,-0.658 c 0,0.16 -0.054,0.288 -0.16,0.384 -0.107,0.096 -0.254,0.144 -0.439,0.144 h -0.337 v 0.656 H 10.04 v -1.727 h 0.686 c 0.186,0 0.332,0.048 0.439,0.145 a 0.51,0.51 0 0 1 0.16,0.398 z m -0.348,0 c 0,-0.083 -0.023,-0.147 -0.07,-0.191 A 0.276,0.276 0 0 0 10.71,43.882 h -0.321 v 0.498 h 0.321 a 0.287,0.287 0 0 0 0.196,-0.063 0.226,0.226 0 0 0 0.071,-0.178 z m 0.914,0.169 h 0.695 v 0.286 h -0.695 v 0.443 h 0.814 v 0.285 h -1.163 v -1.727 h 1.163 v 0.285 h -0.814 z m 1.41,0 h 0.695 v 0.286 h -0.695 v 0.443 h 0.814 v 0.285 h -1.163 v -1.727 h 1.163 v 0.285 h -0.814 z m 1.707,-0.712 c 0.203,0 0.364,0.053 0.482,0.16 0.117,0.106 0.176,0.282 0.176,0.525 v 0.353 c 0,0.243 -0.06,0.419 -0.181,0.526 -0.12,0.108 -0.283,0.162 -0.488,0.162 h -0.635 v -1.727 h 0.646 z m 0.233,1.343 c 0.052,-0.065 0.078,-0.168 0.078,-0.308 v -0.333 c 0,-0.147 -0.025,-0.253 -0.077,-0.319 -0.051,-0.066 -0.13,-0.099 -0.236,-0.099 h -0.294 v 1.156 h 0.294 c 0.104,10e-4 0.182,-0.032 0.235,-0.097 z"
         id="path70"
         inkscape:connector-curvature="0" />
    </g>
  </g>
  <g
     id="g78"
     style="fill:#070308"
     transform="translate(0,-9.9999273e-4)">
    <path
       d="m 41.555,58.748 v 0.409 a 1.382,1.382 0 0 1 -1.516,-1.372 1.381,1.381 0 0 1 1.516,-1.372 v 0.409 a 0.976,0.976 0 0 0 -1.11,0.963 0.975,0.975 0 0 0 1.11,0.963 z m 0.836,-1.174 h 0.797 v 0.421 h -0.797 a 0.977,0.977 0 0 0 1.088,0.752 v 0.409 a 1.381,1.381 0 0 1 -1.516,-1.372 1.381,1.381 0 0 1 1.516,-1.372 v 0.409 a 0.977,0.977 0 0 0 -1.088,0.753 z"
       id="path76"
       inkscape:connector-curvature="0" />
  </g>
  <g
     id="g82"
     style="fill:#0d0f14"
     transform="translate(0,-9.9999273e-4)">
    <path
       d="m 10.961,30.783 1.263,-4 h 3.682 l -0.272,0.864 h -2.698 l -0.217,0.689 h 1.774 l -0.269,0.845 h -1.775 l -0.231,0.737 h 2.74 l -0.272,0.864 h -3.725 z m 4.536,0 1.263,-4 h 0.983 l -0.99,3.136 h 2.566 l -0.272,0.864 z m 4.997,0 h -0.983 l 1.263,-4 h 0.983 z m 4.098,-3.136 -0.99,3.136 h -0.983 l 0.99,-3.136 H 21.96 l 0.271,-0.864 h 4.282 l -0.272,0.864 z m 1.14,3.136 1.263,-4 h 3.682 l -0.272,0.864 h -2.698 l -0.217,0.689 h 1.774 l -0.269,0.845 H 27.22 l -0.231,0.737 h 2.74 l -0.272,0.864 h -3.725 z m 10.969,-2.159 c -0.183,0.594 -0.392,0.857 -1.129,0.857 h -2.087 l -0.409,1.301 h -0.983 l 1.263,-4 h 3.07 c 0.485,0 0.707,0.24 0.63,0.678 -0.01,0.054 -0.032,0.15 -0.044,0.18 z m -0.774,-0.641 a 0.908,0.908 0 0 0 0.046,-0.162 C 35.993,27.708 35.95,27.648 35.8,27.648 h -1.728 l -0.309,0.971 h 1.727 c 0.168,0 0.26,-0.078 0.304,-0.222 z m 5.535,0.485 c -0.182,0.593 -0.391,0.857 -1.129,0.857 h -0.275 l 1.11,1.457 h -1.271 l -1.122,-1.457 h -0.528 l -0.46,1.457 h -0.983 l 1.263,-4 h 3.07 c 0.485,0 0.707,0.24 0.63,0.678 a 2.32,2.32 0 0 1 -0.044,0.18 z m -0.798,-0.575 c 10e-4,-0.006 0.016,-0.054 0.02,-0.078 0.021,-0.114 -0.024,-0.168 -0.174,-0.168 h -1.728 l -0.258,0.815 h 1.728 c 0.168,0 0.261,-0.084 0.304,-0.228 z m 5.488,1.948 c -0.177,0.558 -0.448,0.941 -1.239,0.941 h -2.381 c -0.504,0 -0.77,-0.3 -0.686,-0.773 0.01,-0.054 0.024,-0.102 0.042,-0.168 l 0.667,-2.117 c 0.179,-0.575 0.436,-0.941 1.239,-0.941 h 2.381 c 0.497,0 0.77,0.294 0.685,0.774 a 1.402,1.402 0 0 1 -0.041,0.167 z m -0.291,-2.194 h -2.297 l -0.718,2.272 h 2.296 z"
       id="path80"
       inkscape:connector-curvature="0" />
  </g>
</svg>
