<?xml version="1.0" encoding="UTF-8" standalone="no"?>
<svg
   xmlns:dc="http://purl.org/dc/elements/1.1/"
   xmlns:cc="http://creativecommons.org/ns#"
   xmlns:rdf="http://www.w3.org/1999/02/22-rdf-syntax-ns#"
   xmlns:svg="http://www.w3.org/2000/svg"
   xmlns="http://www.w3.org/2000/svg"
   xmlns:sodipodi="http://sodipodi.sourceforge.net/DTD/sodipodi-0.dtd"
   xmlns:inkscape="http://www.inkscape.org/namespaces/inkscape"
   viewBox="-62 141.1 500.00001 235.63413"
   version="1.1"
   id="svg146"
   sodipodi:docname="consolegame.svg"
   width="500"
   height="235.63412"
   inkscape:version="0.92.4 5da689c313, 2019-01-14">
  <metadata
     id="metadata152">
    <rdf:RDF>
      <cc:Work
         rdf:about="">
        <dc:format>image/svg+xml</dc:format>
        <dc:type
           rdf:resource="http://purl.org/dc/dcmitype/StillImage" />
      </cc:Work>
    </rdf:RDF>
  </metadata>
  <defs
     id="defs150" />
  <sodipodi:namedview
     pagecolor="#ffffff"
     bordercolor="#666666"
     borderopacity="1"
     objecttolerance="10"
     gridtolerance="10"
     guidetolerance="10"
     inkscape:pageopacity="0"
     inkscape:pageshadow="2"
     inkscape:window-width="471"
     inkscape:window-height="442"
     id="namedview148"
     showgrid="false"
     inkscape:zoom="0.54200003"
     inkscape:cx="249.99998"
     inkscape:cy="117.81707"
     inkscape:window-x="0"
     inkscape:window-y="0"
     inkscape:window-maximized="0"
     inkscape:current-layer="svg146">
    <inkscape:grid
       type="xygrid"
       id="grid154"
       originx="0"
       originy="1.0575776e-05" />
  </sodipodi:namedview>
  <path
     d="m 197.51812,297.76841 c 0,-43.5931 35.35821,-78.95131 78.95131,-78.95131 43.5931,0 78.9513,35.35821 78.9513,78.95131 0,43.5931 -35.3582,78.95131 -78.9513,78.95131 -43.5931,0 -78.95131,-35.35821 -78.95131,-78.95131 z m 78.95131,-11.69009 c -6.56488,0 -11.86285,5.24038 -11.86285,11.74768 0,6.50729 5.29797,11.74767 11.86285,11.74767 6.56488,0 11.86285,-5.24038 11.86285,-11.74767 0,-6.5073 -5.29797,-11.74768 -11.86285,-11.74768 z"
     id="path2"
     inkscape:connector-curvature="0"
     style="fill:#cdcdcd" />
  <path
     d="m 199.87917,297.76841 c 0,-42.32619 34.32165,-76.59025 76.59026,-76.59025 42.32619,0 76.59025,34.32164 76.59025,76.59025 0,42.32619 -34.32165,76.59025 -76.59025,76.59025 -42.3262,0 -76.59026,-34.26406 -76.59026,-76.59025 z m 76.35991,-11.63251 c -6.56488,0 -11.86285,5.29798 -11.86285,11.86286 0,6.56488 5.29797,11.86285 11.86285,11.86285 6.56488,0 11.86285,-5.29797 11.86285,-11.86285 0,-6.56488 -5.29797,-11.86286 -11.86285,-11.86286 z"
     id="path4"
     inkscape:connector-curvature="0"
     style="fill:#020202" />
  <path
     d="m 306.52966,297.76841 v 65.5912 c -9.15628,4.20383 -19.34912,6.56488 -30.06023,6.56488 -10.71112,0 -20.90396,-2.36105 -30.06024,-6.56488 v -65.5912 c 0,16.58496 13.47528,30.06023 30.06024,30.06023 16.58495,0 30.06023,-13.47527 30.06023,-30.06023 z"
     id="path6"
     inkscape:connector-curvature="0"
     style="fill:#030303" />
  <path
     d="m 269.04075,350.97848 c 0.28793,-0.11517 0.51828,-0.23035 0.69104,-0.28793 0.17276,-0.0576 0.4031,-0.11518 0.69104,-0.17276 0.28793,-0.0576 0.46069,-0.0576 0.74862,-0.0576 0.28794,0 0.57587,0.11517 0.80622,0.17276 0.17276,0.0576 0.34552,0.28793 0.46069,0.40311 0.11517,0.11517 0.17276,0.23034 0.17276,0.4031 v 0.23035 c 0,0.0576 -0.0576,0.11517 -0.11517,0.17276 -0.0576,0.0576 -0.11518,0.17276 -0.17276,0.23035 -0.0576,0.0576 -0.11518,0.11517 -0.23035,0.17276 -0.11517,0.0576 -0.23035,0.0576 -0.34552,0.11517 -0.11517,0.0576 -0.28793,0 -0.40311,0.0576 -0.51828,0.0576 -0.97897,0.11517 -1.20932,0.17276 -0.23034,0.0576 -0.4031,0.11517 -0.57586,0.23034 -0.17276,0.0576 -0.28794,0.17276 -0.40311,0.28794 -0.17276,0.11517 -0.23035,0.23034 -0.28793,0.34552 -0.0576,0.11517 -0.17276,0.28793 -0.23035,0.4031 0,0.17276 -0.0576,0.34552 -0.0576,0.57587 0,0.34552 0.0576,0.57587 0.23035,0.8638 0.11517,0.28793 0.40311,0.51828 0.69104,0.63345 0.28793,0.11518 0.69104,0.28794 1.20932,0.28794 h 0.51828 c 0.17276,0 0.34552,-0.0576 0.63345,-0.11518 0.11518,-0.11517 0.34552,-0.23034 0.51828,-0.34552 l 0.28794,-0.28793 v 0.69104 h 1.15173 c -0.11517,-0.46069 -0.17276,-0.51828 -0.11517,-0.8638 0,-0.57587 -0.0576,-1.84277 0,-2.5914 v -0.80621 c 0,-0.23035 -0.11518,-0.63346 -0.17276,-0.8638 -0.0576,-0.23035 -0.23035,-0.34552 -0.34552,-0.57587 -0.17276,-0.17276 -0.51828,-0.46069 -0.80622,-0.51828 -0.34552,-0.0576 -0.51828,-0.11517 -0.8638,-0.11517 -0.34552,0 -0.80621,0 -1.15173,0.0576 -0.34552,0.0576 -0.57587,0.11518 -1.03656,0.28794 -0.28793,0.28793 -0.28793,0.63345 -0.28793,0.80621 z m 2.87933,4.26141 c -0.0576,0 -0.23035,0.17276 -0.28793,0.17276 -0.23035,0.0576 -0.34552,0.11518 -0.4607,0.17276 -0.17276,0 -0.34552,0.0576 -0.51828,0.0576 -0.28793,0 -0.46069,-0.0576 -0.63345,-0.17276 -0.17276,-0.11517 -0.17276,-0.0576 -0.34552,-0.23035 -0.11517,-0.17276 -0.28793,-0.4031 -0.28793,-0.63345 v -0.46069 c 0,-0.11518 0.0576,-0.23035 0.17276,-0.34552 l 0.34552,-0.34552 c 0.17276,-0.0576 0.28793,-0.11518 0.57586,-0.23035 0.11518,-0.0576 0.34552,-0.0576 0.63346,-0.11517 0.17276,0 0.46069,0 0.57586,-0.0576 0.11518,0 0.23035,0 0.28794,-0.0576 0.0576,-0.0576 0.17276,-0.0576 0.23034,-0.11517 0.0576,-0.0576 0.11518,-0.0576 0.28794,-0.23035 v 1.26691 c 0,0 0,0.51828 -0.23035,0.80621 -0.11517,0.34552 -0.34552,0.51828 -0.34552,0.51828 z m 18.94601,-4.37658 c 0.28793,-0.11518 0.46069,-0.23035 0.69104,-0.28794 0.17276,-0.0576 0.40311,-0.11517 0.69104,-0.17276 0.28793,-0.0576 0.46069,-0.0576 0.74863,-0.0576 0.28793,0 0.63345,0.11517 0.80621,0.17276 0.23035,0.0576 0.34552,0.28793 0.46069,0.4031 0.11518,0.11518 0.11518,0.28794 0.17276,0.4607 v 0.23034 c 0,0.0576 -0.0576,0.0576 -0.11517,0.11518 -0.0576,0.0576 -0.11517,0.17276 -0.17276,0.23034 -0.0576,0.0576 -0.11517,0.11518 -0.23035,0.17276 -0.0576,0.0576 -0.17276,0.0576 -0.28793,0.11518 -0.11517,0.0576 -0.28793,0 -0.40311,0.0576 -0.57586,0.0576 -0.97897,0.11518 -1.20932,0.17276 -0.23034,0.0576 -0.4031,0.11518 -0.57586,0.23035 -0.17276,0.0576 -0.28794,0.17276 -0.40311,0.28793 -0.17276,0.11518 -0.23035,0.23035 -0.28793,0.34552 -0.0576,0.11518 -0.11518,0.28794 -0.17276,0.4607 -0.0576,0.17276 -0.11518,0.34552 -0.11518,0.57586 0,0.34552 0.0576,0.57587 0.23035,0.8638 0.17276,0.28794 0.40311,0.51828 0.69104,0.63346 0.34552,0.11517 0.69104,0.28793 1.20932,0.28793 h 0.46069 c 0.17276,0 0.34552,-0.0576 0.63346,-0.11517 0.11517,-0.11518 0.34552,-0.23035 0.51828,-0.34552 0.23034,-0.17276 0.34552,-0.28794 0.34552,-0.28794 v 0.69104 h 1.15173 c -0.11517,-0.46069 -0.17276,-0.51828 -0.17276,-0.8638 v -3.34002 c 0,-0.23035 -0.11517,-0.63346 -0.17276,-0.8638 -0.0576,-0.23035 -0.23035,-0.40311 -0.34552,-0.57587 -0.11517,-0.17276 -0.51828,-0.46069 -0.80621,-0.51828 -0.28794,-0.0576 -0.51828,-0.17276 -0.8638,-0.17276 -0.34552,0 -0.80622,0.0576 -1.15174,0.0576 -0.34552,0.0576 -0.57586,0.11517 -1.03656,0.23034 -0.28793,0.34552 -0.28793,0.63346 -0.28793,0.80622 z m 2.87933,4.319 c -0.0576,0 -0.23034,0.17276 -0.28793,0.17276 -0.17276,0.0576 -0.34552,0.11517 -0.46069,0.17276 -0.17276,0 -0.34552,0.0576 -0.51828,0.0576 -0.28794,0 -0.51828,-0.0576 -0.69104,-0.17276 -0.17276,-0.11517 -0.17276,-0.0576 -0.28794,-0.23034 -0.11517,-0.17276 -0.34552,-0.40311 -0.34552,-0.63346 v -0.46069 c 0.0576,-0.11517 0.0576,-0.23035 0.17276,-0.28793 0.11518,-0.11518 0.23035,-0.23035 0.40311,-0.34552 0.11517,-0.0576 0.28793,-0.11518 0.57587,-0.23035 0.11517,-0.0576 0.34552,-0.0576 0.63345,-0.11517 0.11517,0 0.46069,0 0.57587,-0.0576 0.0576,0 0.17276,-0.0576 0.28793,-0.0576 0.11517,-0.0576 0.17276,-0.0576 0.28793,-0.11517 0.0576,-0.0576 0.11518,-0.0576 0.23035,-0.23035 v 1.26691 c 0,0 0,0.51828 -0.23035,0.80621 -0.17276,0.28794 -0.34552,0.4607 -0.34552,0.4607 z m -19.11877,0.97897 0.11518,-0.46069 v -1.26691 l -0.0576,-3.62796 c 0,-0.34552 -0.17276,-0.69104 -0.17276,-0.8638 0.17276,0 0.57587,-0.0576 0.74863,-0.11517 0.11517,-0.0576 0.34552,-0.0576 0.46069,-0.0576 v 0.80621 c 0.11517,-0.23034 0.34552,-0.28793 0.46069,-0.4031 0.0576,-0.11518 0.17276,-0.11518 0.34552,-0.28794 0.17276,-0.11517 0.28794,-0.11517 0.4607,-0.17276 0.28793,0 0.46069,-0.0576 0.69104,-0.0576 0.17276,0 0.34552,0 0.46069,0.0576 0.17276,0 0.34552,0.11518 0.46069,0.17276 0.11518,0.0576 0.28794,0.17276 0.34552,0.23035 0.11518,0.11517 0.23035,0.17276 0.34552,0.34552 0,0.0576 0.28794,-0.28793 0.63346,-0.46069 0.34552,-0.17276 0.74862,-0.34552 1.15173,-0.34552 0.28793,0 0.8638,0 1.15173,0.11517 0.28794,0.11517 0.63346,0.23035 0.80622,0.40311 0.17276,0.17276 0.23034,0.28793 0.34552,0.4031 0.17276,0.17276 0.23034,0.69104 0.23034,0.8638 v 3.85831 c 0,0.28793 0.0576,0.34552 0.11518,0.63345 h -1.20932 c 0.17276,-0.51828 0.11517,-0.34552 0.11517,-0.63345 v -3.57037 c 0,-0.23035 -0.0576,-0.51828 -0.11517,-0.69104 -0.0576,-0.11518 -0.28794,-0.40311 -0.40311,-0.51828 -0.11517,-0.11518 -0.28793,-0.11518 -0.40311,-0.17276 -0.11517,-0.0576 -0.4031,-0.0576 -0.57586,-0.0576 -0.11518,0 -0.34552,0 -0.4607,0.0576 -0.11517,0.0576 -0.23034,0.0576 -0.34552,0.17276 -0.11517,0.0576 -0.23034,0.11517 -0.34552,0.23034 -0.0576,0.11518 -0.17276,0.23035 -0.23034,0.40311 -0.0576,0.11517 -0.0576,0.40311 -0.0576,0.63345 v 3.57038 l 0.17276,0.57586 h -1.32449 c 0,-0.51828 0.0576,-0.0576 0.0576,-0.63345 v -3.62796 c 0,-0.23035 -0.0576,-0.28793 -0.0576,-0.46069 -0.0576,-0.11518 -0.11518,-0.34552 -0.23035,-0.4607 -0.11517,-0.11517 -0.34552,-0.34552 -0.51828,-0.4031 -0.11517,-0.0576 -0.34552,-0.11518 -0.51828,-0.11518 -0.23035,0 -0.34552,0 -0.51828,0.11518 -0.17276,0.0576 -0.34552,0.11517 -0.46069,0.28793 -0.11518,0.11517 -0.23035,0.17276 -0.34552,0.34552 -0.0576,0.23035 -0.17276,0.17276 -0.17276,0.51828 -0.0576,0.34552 -0.0576,1.61243 -0.0576,2.47623 v 1.38208 c 0,0.28793 0.11517,0.34552 0.11517,0.63345 h -0.63345 c 0,0.17276 -0.34552,0.17276 -0.57587,0.17276 z m 15.14529,-1.15173 c 0,0.0576 0,0.23034 -0.0576,0.4031 0,0.17276 -0.0576,0.34552 -0.11518,0.51828 -0.28793,0.0576 -0.57586,0.17276 -0.80621,0.17276 -0.23035,0 -0.92139,0.0576 -1.15173,0.0576 -0.40311,0 -0.8638,-0.0576 -1.20932,-0.17276 -0.34552,-0.11517 -0.80621,-0.40311 -1.09415,-0.69104 -0.28793,-0.28793 -0.57586,-0.57587 -0.74862,-0.97897 -0.11518,-0.40311 -0.23035,-0.80622 -0.23035,-1.26691 0,-0.63345 0.0576,-0.8638 0.23035,-1.43967 0.17276,-0.57586 0.63345,-0.97897 1.03656,-1.32449 0.4031,-0.34552 1.38207,-0.57587 2.1307,-0.57587 0.51828,0 1.15173,0.0576 1.7276,0.23035 0,0.40311 0.0576,0.57587 0.0576,0.80621 -0.34552,-0.11517 -0.74863,-0.28793 -0.92139,-0.34552 -0.23035,0 -0.51828,-0.0576 -0.74863,-0.0576 -0.34552,0 -1.03656,0.17276 -1.32449,0.28793 -0.28793,0.11517 -0.46069,0.34552 -0.69104,0.57587 -0.17276,0.23034 -0.28793,0.57586 -0.34552,0.92138 -0.0576,0.34552 -0.11517,0.34552 -0.0576,0.74863 0,0.46069 0.11517,0.92139 0.23034,1.26691 0.17276,0.34552 0.40311,0.74862 0.74863,0.92138 0.34552,0.23035 0.74862,0.40311 1.15173,0.40311 0.46069,0.0576 1.26691,0.0576 2.18829,-0.46069 z m 6.5073,0.92138 -0.11518,-0.4031 c 0,-0.0576 -0.11517,-0.34552 -0.17276,-0.63346 0.74863,0.40311 1.49726,0.69104 2.01554,0.69104 0.28793,0 0.57586,-0.11517 0.74862,-0.17276 0.17276,-0.0576 0.34552,-0.23034 0.4607,-0.34552 0.0576,-0.11517 0.17276,-0.28793 0.23034,-0.4031 0,-0.0576 0.0576,-0.23035 0,-0.28794 0,-0.0576 -0.0576,-0.34552 -0.11517,-0.4031 l -0.34552,-0.34552 c -0.11517,-0.0576 -0.40311,-0.23035 -0.80621,-0.40311 -0.34552,-0.17276 -0.8638,-0.34552 -1.09415,-0.46069 -0.17276,-0.11518 -0.51828,-0.34552 -0.63345,-0.4607 -0.11518,-0.11517 -0.23035,-0.34552 -0.28794,-0.46069 -0.0576,-0.17276 0,-0.40311 0,-0.57587 0,-0.28793 0.17276,-0.51828 0.34552,-0.74862 0.17276,-0.28794 0.40311,-0.40311 0.74863,-0.51828 0.34552,-0.11518 0.69104,-0.17276 1.09415,-0.17276 0.46069,0 0.92138,0.11517 1.49725,0.23034 0,0.34552 -0.0576,0.57587 0,0.80622 -0.40311,-0.28794 -0.8638,-0.40311 -1.32449,-0.40311 -0.23035,0 -0.4607,0.0576 -0.69104,0.11517 -0.23035,0.0576 -0.40311,0.28794 -0.51828,0.40311 -0.0576,0.11517 -0.11518,0.23035 -0.11518,0.40311 0,0.11517 0,0.28793 0.0576,0.34552 0,0.0576 0.28793,0.34552 0.40311,0.4031 0.17276,0.0576 0.11517,0.0576 0.28793,0.11518 0.17276,0 0.63345,0.28793 1.03656,0.46069 0.46069,0.23035 0.8638,0.46069 0.97897,0.63345 0.11518,0.11518 0.28794,0.34552 0.40311,0.63346 0.0576,0.17276 0.11517,0.34552 0.11517,0.46069 0,0.23035 -0.0576,0.28793 -0.0576,0.40311 0,0.28793 -0.0576,0.4031 -0.23035,0.63345 -0.17276,0.28793 -0.46069,0.51828 -0.80621,0.63345 -0.34552,0.11518 -0.69104,0.23035 -1.09415,0.23035 h -0.80621 c -0.23035,0 -0.4607,-0.11517 -0.63346,-0.11517 -0.23034,-0.23035 -0.34552,-0.23035 -0.57586,-0.28794 z m 7.7742,-0.51828 c -0.0576,0.23035 -0.11518,0.34552 -0.11518,0.69104 -0.28793,0.0576 -0.34552,0.11518 -0.51828,0.11518 h -0.4031 c -0.34552,0 -0.63346,0 -0.80622,-0.11518 -0.23034,-0.11517 -0.34552,-0.23034 -0.46069,-0.46069 -0.11517,-0.23035 -0.23035,-0.74863 -0.23035,-1.09415 v -3.97348 H 300.771 v -0.57586 h 0.74862 v -1.09415 c 0,-0.17276 -0.11517,-0.34552 -0.17276,-0.46069 0.34552,-0.0576 0.92139,-0.23035 1.15174,-0.28794 0,0.63346 0.0576,1.49726 0.0576,1.84278 h 1.61243 v 0.63345 l -0.46069,-0.0576 h -1.15174 v 3.80072 c 0,0.34552 0.0576,0.74863 0.11518,0.8638 0.0576,0.17276 0.17276,0.23035 0.28793,0.28794 0.11517,0.0576 0.28793,0.0576 0.40311,0.0576 h 0.34552 c 0,-0.0576 0.0576,-0.11517 0.34552,-0.17276 z m -40.5986,-3.39761 h 3.34003 v -0.34552 c 0,-0.11517 -0.0576,-0.28793 -0.17276,-0.40311 -0.0576,-0.17276 -0.23035,-0.28793 -0.34552,-0.34552 -0.11518,-0.11517 -0.28793,-0.23034 -0.46069,-0.28793 -0.17276,-0.0576 -0.40311,-0.0576 -0.63346,-0.0576 -0.23034,0 -0.4031,0.0576 -0.57586,0.11518 -0.23035,0.0576 -0.34552,0.17276 -0.51828,0.28793 -0.17276,0.11517 -0.28794,0.23035 -0.34552,0.40311 -0.11518,0.17276 -0.17276,0.34552 -0.23035,0.46069 v 0.0576 c 0,0 0,-0.0576 -0.0576,0.11517 z m 4.20383,3.05209 c 0,0.23035 -0.11518,0.51828 -0.11518,0.92139 -0.34552,0.11517 -0.97897,0.34552 -1.20932,0.34552 h -0.80621 c -0.46069,0 -0.97897,-0.11517 -1.38208,-0.23035 -0.34552,-0.11517 -0.74862,-0.4031 -1.03656,-0.74862 -0.28793,-0.34552 -0.57586,-0.69104 -0.69104,-1.09415 -0.11517,-0.40311 -0.17276,-0.80621 -0.17276,-1.26691 0,-0.63345 0.0576,-0.8638 0.28794,-1.43966 0.23034,-0.51828 0.63345,-0.92139 1.03656,-1.26691 0.4031,-0.34552 0.97897,-0.46069 1.67001,-0.46069 0.34552,0 0.74863,0 1.09414,0.11517 0.34552,0.11517 0.57587,0.23035 0.80622,0.46069 0.23034,0.23035 0.4031,0.4607 0.51828,0.80622 0.11517,0.34552 0.17276,0.34552 0.23034,0.74862 0.0576,0.17276 0.0576,0.4607 0.0576,0.63346 h -4.54934 v 0.46069 c 0,0.46069 0.0576,0.92139 0.28793,1.26691 0.17276,0.34552 0.40311,0.63345 0.74863,0.80621 0.34552,0.17276 0.74862,0.34552 1.20932,0.34552 0.4031,0.17276 1.2669,-0.0576 2.01553,-0.40311 z m -9.32904,1.26691 c 0,-0.11517 0.11517,-0.28793 0.11517,-0.40311 0,-2.01553 0,-3.57037 -0.0576,-4.83728 v -0.57586 l -0.17276,-0.4607 c 0.17276,0 0.46069,-0.0576 0.57586,-0.0576 0.11518,0 0.4607,-0.0576 0.63346,-0.0576 v 1.15173 c 0.11517,-0.28793 0.17276,-0.23034 0.28793,-0.4031 0.0576,-0.11518 0.28793,-0.28794 0.40311,-0.40311 0.11517,-0.0576 0.28793,-0.17276 0.46069,-0.23035 0.17276,-0.0576 0.34552,-0.11517 0.51828,-0.11517 h 0.69104 c 0.34552,0.0576 0.57587,0.11517 0.69104,0.17276 0,0.17276 -0.28793,0.8638 -0.28793,0.8638 0,0 -0.28794,0 -0.51828,-0.11517 -0.23035,-0.0576 -0.40311,-0.0576 -0.57587,-0.0576 -0.23035,0 -0.46069,0.0576 -0.69104,0.11517 -0.17276,0.0576 -0.34552,0.17276 -0.46069,0.34552 -0.11518,0.17276 -0.23035,0.34552 -0.28794,0.57587 -0.0576,0.17276 -0.0576,0 -0.0576,0.34552 v 3.85831 l 0.11517,0.34552 h -0.63345 c -0.23035,-0.11518 -0.51828,-0.0576 -0.74863,-0.0576 z m -7.83179,-0.69104 h 1.38208 c 0.34552,0 0.74863,0 1.15174,-0.0576 0.4031,-0.0576 0.69104,-0.17276 0.97897,-0.28793 0.28793,-0.11517 0.57587,-0.28793 0.8638,-0.51828 0.28793,-0.28793 0.51828,-0.57587 0.69104,-0.92139 0.17276,-0.34552 0.28793,-0.74862 0.34552,-1.15173 0.0576,-0.40311 0.11517,-0.8638 0.11517,-1.26691 0,-0.46069 -0.17276,-0.8638 -0.28793,-1.2669 -0.11517,-0.40311 -0.34552,-0.92139 -0.74863,-1.20932 -0.34552,-0.28794 -0.63345,-0.51828 -1.03656,-0.63346 -0.34552,-0.11517 -0.92138,-0.28793 -1.55484,-0.28793 -0.4031,0 -0.92138,0 -1.15173,0.0576 -0.28793,0 -0.46069,0.0576 -0.80621,0.0576 l 0.0576,7.48627 z m -1.61242,0.69104 0.23034,-0.63345 v -7.60144 c 0,-0.23035 -0.11517,-0.4607 -0.23034,-0.8638 h 3.91589 c 0.69104,0.0576 0.8638,0.0576 1.32449,0.23034 0.34552,0.0576 1.03656,0.4607 1.3245,0.69104 0.28793,0.23035 0.63345,0.4607 0.8638,0.80622 0.23034,0.34552 0.34552,0.46069 0.51828,0.8638 0.23034,0.57586 0.34552,1.15173 0.34552,1.67001 0.0576,0.74863 0,1.32449 -0.23035,2.01553 -0.23035,0.69104 -0.74863,1.20932 -1.15173,1.67002 -0.4607,0.46069 -0.97898,0.74862 -1.55484,0.92138 -0.57587,0.11518 -1.26691,0.28794 -2.01554,0.28794 h -1.7276 l -1.61242,-0.0576 z"
     id="path8"
     inkscape:connector-curvature="0"
     style="fill:#ffffff" />
  <path
     d="m 277.79392,340.67047 c 0,-0.63345 -0.28793,-0.57587 -0.51828,-0.57587 -0.23035,-0.0576 -0.74863,0.0576 -1.20932,-0.0576 -0.57587,-0.11518 -0.8638,-0.8638 -0.74863,-1.26691 0.28794,-1.09415 0.97898,-1.20932 1.43967,-1.20932 0.40311,0 1.09415,0.0576 1.95795,0.80621 0.4031,0.34552 0.63345,1.26691 0.63345,1.78519 0,0.63345 0,1.38208 -0.40311,1.78519 -0.63345,0.63345 -2.18829,1.20932 -3.10968,1.20932 -3.51278,-0.40311 -3.39761,-3.68555 -3.39761,-3.68555 0,0 -0.28793,-1.43967 0.92139,-2.93692 0.11517,-0.11517 0.23034,-0.40311 0.34552,-0.51828 0.11517,-0.11517 0.23034,-0.17276 0.4031,-0.28793 0.11518,-0.11518 0.28794,-0.17276 0.4607,-0.28794 0.4031,-0.23034 0.80621,-0.46069 1.20932,-0.57586 0.63345,-0.17276 1.20932,-0.23035 1.7276,-0.23035 1.43966,0.0576 3.05209,0.8638 3.8583,2.07312 0.11518,0.17276 0.23035,0.28793 0.34552,0.46069 0.11518,0.17276 0.23035,0.4607 0.40311,0.80622 0.17276,0.51828 0.11517,0.28793 0.34552,1.15173 0.11517,0.57587 0.23035,0.92139 0.23035,1.32449 0,0.17276 0.0576,0.34552 0.0576,0.57587 0,0.63345 0.11518,0.80621 -0.0576,1.26691 -0.23035,0.8638 -0.74863,1.67001 -1.20932,2.1307 -0.80622,0.74863 -1.49726,0.97898 -1.90036,1.20932 -0.40311,0.23035 -0.57587,0.23035 -1.15174,0.4607 -0.51828,0.23034 -0.8638,0.23034 -1.78518,0.23034 -0.97898,0 -1.7276,-0.0576 -1.95795,-0.11517 -1.7276,-0.46069 -2.30347,-0.80621 -3.05209,-1.38208 -1.90036,-1.49725 -2.30347,-4.43417 -2.30347,-4.43417 0,0 -0.23035,-1.49726 0.11517,-3.0521 0.17276,-0.80621 1.03656,-2.36105 1.49726,-2.93692 0.4031,-0.51828 1.32449,-1.2669 1.90036,-1.61242 0.57586,-0.34552 1.38208,-0.80622 2.30346,-1.09415 0.4607,-0.17276 0.80622,-0.23035 1.84278,-0.28793 1.20932,-0.0576 2.93692,0.28793 3.97348,0.57586 1.09414,0.34552 2.07312,1.03656 2.53381,1.55484 0.51828,0.57587 1.67001,2.24588 1.84277,2.5914 0.23035,0.34552 0.74863,2.1883 0.80622,2.41864 0.0576,0.23035 0.11517,1.03656 0.97897,1.03656 0.74862,-0.0576 0.51828,-0.92138 0.51828,-1.09414 -0.0576,-0.17276 -0.28794,-1.55484 -0.40311,-1.95795 -0.11517,-0.40311 -0.69104,-1.43967 -0.80621,-1.61243 -0.0576,-0.11517 -0.57587,-0.97897 -1.09415,-1.67001 -0.4031,-0.51828 -0.74862,-0.97897 -1.20932,-1.26691 -0.80621,-0.51828 -1.78518,-0.97897 -1.78518,-0.97897 0,0 -1.7276,-0.57587 -2.64899,-0.69104 -0.80621,-0.11517 -1.61243,-0.28793 -2.99451,-0.17276 -1.38208,0.11517 -2.1307,0.46069 -2.64898,0.69104 -0.51828,0.23035 -1.67002,0.69104 -2.53382,1.43967 -0.8638,0.69104 -0.57586,0.34552 -1.03656,0.8638 -0.46069,0.51828 -0.57586,0.63345 -0.92138,1.09414 -0.28794,0.4607 -0.97898,1.78519 -1.20932,2.64899 -0.11518,0.34552 -0.28794,0.92139 -0.34552,1.43967 -0.0576,0.46069 -0.0576,0.8638 -0.0576,1.2669 0.0576,0.74863 0.0576,0.80622 0.0576,0.80622 0,0 0.34552,1.49725 0.51828,2.07312 0.23034,0.57586 0.46069,1.43966 1.67001,2.76416 1.20932,1.32449 2.30347,1.67001 2.76416,1.84277 0.40311,0.17276 1.84277,0.63345 3.68555,0.69104 2.18829,0.0576 2.70657,-0.4607 3.10968,-0.57587 0.4031,-0.17276 1.7276,-0.74863 2.76416,-1.7276 1.03656,-0.97897 1.38208,-2.07312 1.43966,-2.1307 0.28794,-0.8638 0.40311,-2.1883 0.11518,-3.51279 -0.17276,-0.8638 -0.34552,-1.67001 -0.51828,-2.18829 -0.28794,-0.92139 -0.69104,-1.43967 -0.97898,-1.90036 -0.23034,-0.40311 -1.03656,-0.97898 -1.49725,-1.26691 -0.23035,-0.11517 -0.46069,-0.28793 -0.74863,-0.46069 -0.28793,-0.11518 -0.69104,-0.23035 -1.20932,-0.34552 -0.46069,-0.11518 -1.03656,-0.23035 -1.55484,-0.23035 -0.46069,-0.0576 -0.80621,0 -0.97897,0 -0.23035,0 -0.97897,0.11517 -1.95795,0.63345 -0.57586,0.28794 -1.15173,0.63346 -1.84277,1.3245 -0.23035,0.23034 -0.40311,0.46069 -0.51828,0.69104 -1.49725,2.01553 -0.92139,4.26141 -0.92139,4.26141 0,0 0.28794,3.05209 2.93692,3.91589 0.97898,0.28794 1.78519,0.28794 2.47623,0.23035 1.15173,-0.17276 2.01553,-0.63345 2.5914,-0.92139 0.57587,-0.28793 1.03656,-0.80621 1.26691,-1.38208 0.23034,-0.51828 0.28793,-1.03656 0.28793,-1.43966 0,-0.28794 0,-0.57587 -0.0576,-0.92139 -0.17276,-0.8638 -0.46069,-1.7276 -1.20932,-2.41864 l -0.23034,-0.17276 c -0.11518,-0.11517 -0.28794,-0.17276 -0.34552,-0.23035 -0.63346,-0.34552 -1.26691,-0.46069 -2.1883,-0.51828 -0.34552,0 -0.80621,0.0576 -1.09414,0.23035 -1.03656,0.51828 -1.61243,1.43967 -1.61243,2.70657 0.0576,1.15174 1.15173,1.78519 1.32449,1.95795 -0.11517,-0.23035 2.24588,0.40311 2.30347,-0.69104 z"
     id="path10"
     inkscape:connector-curvature="0"
     style="fill:#ee5507" />
  <path
     d="m 284.81949,370.96105 h -6.73764 c -0.63345,0 -1.03656,-0.17276 -1.38208,-0.51828 v 0.51828 h -2.24588 c -0.80621,0 -1.38208,-0.34552 -1.61242,-0.92139 -0.0576,0.11518 -0.17276,0.28794 -0.28794,0.40311 -0.34552,0.34552 -0.74862,0.51828 -1.20932,0.51828 h -2.36105 v -2.07312 h 0.51828 c -0.34552,-0.34552 -0.51828,-0.80621 -0.51828,-1.26691 0,-0.51828 0.17276,-0.92138 0.51828,-1.2669 0.34552,-0.34552 0.74863,-0.51828 1.20932,-0.51828 h 2.36105 v 0.51828 c 0.28794,-0.34552 0.74863,-0.51828 1.38208,-0.51828 h 2.24588 v 0.51828 c 0.28794,-0.34552 0.74863,-0.51828 1.38208,-0.51828 h 2.24588 v 2.41864 l 0.63346,-1.7276 c 0.28793,-0.57587 0.74862,-0.69104 1.09414,-0.69104 0.51828,0 0.92139,0.28793 1.09415,0.74862 z"
     id="path12"
     inkscape:connector-curvature="0"
     style="fill:#ffffff" />
  <path
     d="m 269.32868,367.56344 c 0,-0.40311 0.17276,-0.74863 0.46069,-1.03656 0.28794,-0.28793 0.63346,-0.46069 0.97898,-0.46069 h 2.01553 v 0.63345 h -1.84277 c -0.28794,0 -0.51828,0.0576 -0.69104,0.23034 -0.17276,0.17276 -0.23035,0.34552 -0.23035,0.57587 0,0.23035 0.0576,0.46069 0.23035,0.57587 0.17276,0.17276 0.4031,0.23034 0.69104,0.23034 h 0.28793 c 0.23035,0 0.46069,0.0576 0.57587,0.23035 0.11517,0.11517 0.23034,0.28793 0.23034,0.51828 0,0.17276 -0.0576,0.34552 -0.23034,0.51828 -0.11518,0.11517 -0.34552,0.23035 -0.57587,0.23035 h -1.84277 v -0.63346 h 1.84277 c 0.11517,0 0.17276,0 0.17276,-0.0576 0,-0.0576 -0.0576,-0.0576 -0.17276,-0.0576 h -0.46069 c -0.34552,0 -0.69104,-0.17276 -0.97898,-0.46069 -0.28793,-0.23035 -0.46069,-0.63346 -0.46069,-1.03656 z m 0.80621,0 c 0,-0.17276 0.0576,-0.34552 0.23035,-0.51828 0.11517,-0.11518 0.34552,-0.23035 0.57587,-0.23035 h 1.84277 v 0.63345 h -1.84277 c -0.11518,0 -0.17276,0 -0.17276,0.0576 0,0.0576 0.0576,0.0576 0.17276,0.0576 h 0.46069 c 0.34552,0 0.69104,0.17276 0.97897,0.46069 0.28794,0.28793 0.4607,0.63345 0.4607,1.03656 0,0.40311 -0.17276,0.74863 -0.4607,1.03656 -0.28793,0.28793 -0.63345,0.46069 -0.97897,0.46069 h -2.01553 v -0.63345 h 1.84277 c 0.28793,0 0.51828,-0.0576 0.69104,-0.23035 0.17276,-0.17276 0.23035,-0.34552 0.23035,-0.57586 0,-0.23035 -0.0576,-0.4607 -0.23035,-0.57587 -0.17276,-0.17276 -0.40311,-0.23035 -0.69104,-0.23035 h -0.28793 c -0.23035,0 -0.4607,-0.0576 -0.57587,-0.23034 -0.17276,-0.11518 -0.23035,-0.28794 -0.23035,-0.51828 z m 2.93692,-0.0576 c 0,-0.92139 0.4607,-1.38208 1.38208,-1.38208 h 1.84278 v 0.63345 h -1.84278 c -0.51828,0 -0.80621,0.28794 -0.80621,0.80622 v 1.7276 c 0,0.51828 0.28793,0.80621 0.80621,0.80621 h 1.84278 v 0.63345 h -1.84278 c -0.92138,0 -1.38208,-0.46069 -1.38208,-1.38208 z m 0.80622,0.80621 v -0.80621 c 0,-0.40311 0.23034,-0.63345 0.63345,-0.63345 h 1.84277 v 0.63345 h -1.7276 c -0.11517,0 -0.17276,0.0576 -0.17276,0.17276 h 1.38208 v 0.63345 z m 0,0.11518 h 2.01553 v 0.63345 h -1.38208 c 0,0.11517 0.0576,0.17276 0.17276,0.17276 h 1.7276 v 0.63345 h -1.84277 c -0.40311,0 -0.63346,-0.23034 -0.63346,-0.63345 v -0.80621 z m 2.76416,-0.92139 c 0,-0.92139 0.46069,-1.38208 1.38208,-1.38208 h 1.84277 v 0.63345 h -1.84277 c -0.51828,0 -0.80622,0.28794 -0.80622,0.80622 v 1.7276 c 0,0.51828 0.28794,0.80621 0.80622,0.80621 h 1.2669 v -1.7276 h -1.09414 v -0.63345 h 1.7276 v 2.93692 h -1.84278 c -0.92138,0 -1.38208,-0.4607 -1.38208,-1.38208 v -1.78519 z m 0.80621,0 c 0,-0.40311 0.23035,-0.63345 0.63345,-0.63345 h 1.84278 v 0.63345 h -1.7276 c -0.11518,0 -0.17276,0.0576 -0.17276,0.17276 v 1.38208 c 0,0.11517 0.0576,0.17276 0.17276,0.17276 h 0.28793 v -0.17276 h -0.28793 v -0.63345 h 0.92138 v 1.38208 h -1.09414 c -0.40311,0 -0.63346,-0.23035 -0.63346,-0.63346 v -1.67001 z"
     id="path14"
     inkscape:connector-curvature="0"
     style="fill:#174b9a" />
  <path
     d="m 281.59464,369.98208 h 1.84277 l -1.2669,-3.16727 c -0.0576,-0.0576 -0.11518,-0.11517 -0.23035,-0.11517 -0.11517,0 -0.17276,0.0576 -0.23035,0.11517 l -1.38208,3.80072 h -0.63345 l 1.43967,-3.97348 c 0.17276,-0.34552 0.46069,-0.51828 0.80621,-0.51828 0.40311,0 0.63345,0.17276 0.80621,0.51828 l 1.49726,3.97348 h -2.64899 z m 0,-0.11518 v -0.34552 l -0.46069,1.09415 h -0.63346 l 1.3245,-3.62796 c 0,-0.0576 0.0576,-0.11517 0.11517,-0.11517 0.0576,0 0.11517,0.0576 0.11517,0.11517 l 1.09415,2.87933 z m 0.40311,-1.38208 -0.28794,0.74863 h 0.57587 z"
     id="path16"
     inkscape:connector-curvature="0"
     style="fill:#174b9a" />
  <path
     d="m 348.62551,297.76841 c 0,29.08126 -17.21841,54.18904 -42.03826,65.5912 v -65.5912 c 0,16.58496 -13.47528,30.06023 -30.06024,30.06023 -16.58495,0 -30.06023,-13.47527 -30.06023,-30.06023 v 65.5912 c -24.81985,-11.40216 -42.03826,-36.45235 -42.03826,-65.5912 0,-39.84997 32.30611,-72.15608 72.15608,-72.15608 39.73479,0 72.04091,32.30611 72.04091,72.15608 z m -72.15608,-11.80527 c -6.56488,0 -11.86285,5.29798 -11.86285,11.80527 0,6.50729 5.29797,11.80526 11.86285,11.80526 6.56488,0 11.86285,-5.29797 11.86285,-11.80526 0,-6.50729 -5.29797,-11.80527 -11.86285,-11.80527 z"
     id="path18"
     inkscape:connector-curvature="0"
     style="fill:#32507c" />
  <path
     d="m 306.52966,297.76841 c 0,16.58496 -13.47528,30.06023 -30.06023,30.06023 -16.58496,0 -30.06024,-13.47527 -30.06024,-30.06023 0,-16.58496 13.47528,-30.06024 30.06024,-30.06024 16.58495,0 30.06023,13.47528 30.06023,30.06024 z m -30.06023,-11.86285 c -6.56488,0 -11.86285,5.35556 -11.86285,11.97802 0,6.62247 5.29797,11.97803 11.86285,11.97803 6.56488,0 11.86285,-5.35556 11.86285,-11.97803 0,-6.62246 -5.29797,-11.97802 -11.86285,-11.97802 z"
     id="path20"
     inkscape:connector-curvature="0"
     style="fill:#9f9f9f" />
  <path
     d="m 249.17335,297.76841 c 0,-15.0877 12.20837,-27.29608 27.29608,-27.29608 15.0877,0 27.29607,12.20838 27.29607,27.29608 0,15.0877 -12.20837,27.29608 -27.29607,27.29608 -15.08771,0 -27.29608,-12.20838 -27.29608,-27.29608 z m 27.29608,11.86285 c 6.56488,0 11.86285,-5.29797 11.86285,-11.86285 0,-6.56488 -5.29797,-11.86285 -11.86285,-11.86285 -6.56488,0 -11.86285,5.29797 -11.86285,11.86285 0,6.56488 5.29797,11.86285 11.86285,11.86285 z"
     id="path22"
     inkscape:connector-curvature="0"
     style="fill:#181818" />
  <g
     transform="matrix(0.57586657,0,0,0.57586657,197.51812,218.8171)"
     id="g106">
    <path
       d="M 316.5,266.9 V 83.2 c 11.9,-5.4 26.4,-8.6 41.9,-8.6 15.6,0 30,3.2 41.9,8.6 V 267 c -11.9,4.6 -26.4,7.2 -42,7.2 -15.4,0 -29.9,-2.7 -41.8,-7.3"
       id="path24"
       inkscape:connector-curvature="0"
       style="fill:#dedfde" />
    <ellipse
       cx="358.39999"
       cy="95"
       ry="12.3"
       rx="13.4"
       id="ellipse26"
       style="fill:#c1c3c2" />
    <path
       d="m 386.3,195.3 h -55.7 c -4.8,0 -8.7,-3.9 -8.7,-8.7 v -43.7 c 0,-4.8 3.9,-8.7 8.7,-8.7 h 55.7 c 4.8,0 8.7,3.9 8.7,8.7 v 43.7 c -0.1,4.8 -4,8.7 -8.7,8.7 z"
       id="path28"
       inkscape:connector-curvature="0"
       style="fill:#56727d" />
    <path
       d="m 331.20001,184 h 7.1 v 10.7 h -7.1 z"
       id="path30"
       inkscape:connector-curvature="0"
       style="fill:#353360" />
    <path
       d="m 330.89999,184 h 6.8 v 10.3 h -6.8 z"
       id="path32"
       inkscape:connector-curvature="0"
       style="fill:#353360" />
    <path
       d="m 331.20001,184.39999 h 6.4 v 9.2 h -6.4 z"
       id="path34"
       inkscape:connector-curvature="0"
       style="fill:#56727d" />
    <path
       d="m 331.60001,192.60001 h 2.1 v 0.3 h -2.1 z m 3.6,0 h 1.8 v 0.3 h -1.8 z m -3.6,-1.10001 h 2.1 v 0.3 h -2.1 z m 3.6,0 h 1.8 v 0.3 h -1.8 z m -3.6,-1 h 5.3 v 0.3 h -5.3 z m 3.6,-1.5 h 1.8 v 0.3 h -1.8 z M 335.5,187.89999 h 1.4 v 0.3 h -1.4 z m 0.70001,-1 h 0.7 v 0.3 h -0.7 z"
       id="path36"
       inkscape:connector-curvature="0"
       style="fill:#353360" />
    <path
       stroke-miterlimit="10"
       d="m 337.4,184.2 h -7 l -2.4,5.3 h 7 z"
       id="path38"
       inkscape:connector-curvature="0"
       style="fill:#56727d;stroke:#353360;stroke-miterlimit:10" />
    <path
       d="m 331.60001,183.3 h 0.7 v 1.8 h -0.7 z m 1.39999,0 h 0.7 v 1.8 H 333 Z m 1.39999,0 h 0.7 v 1.8 h -0.7 z m 1.5,0 h 0.7 v 1.8 h -0.7 z"
       id="path40"
       inkscape:connector-curvature="0"
       style="fill:#353360" />
    <path
       d="m 324.20001,136.89999 h 68.3 v 45.4 h -68.3 z"
       id="path42"
       inkscape:connector-curvature="0"
       style="fill:#4a6787" />
    <g
       id="g58"
       style="fill:#363264">
      <path
         d="m 344.20001,171.10001 h 5.7 v 5.7 h -5.7 z m 5.69998,-5.70002 h 5.7 v 5.7 h -5.7 z"
         id="path44"
         inkscape:connector-curvature="0" />
      <path
         d="m 349.89999,159.7 h 5.7 v 5.7 h -5.7 z"
         id="path46"
         inkscape:connector-curvature="0" />
      <path
         d="m 344.20001,159.7 h 5.7 v 5.7 h -5.7 z m 11.4,0 h 5.7 v 5.7 h -5.7 z m 0,-5.7 h 5.7 v 5.7 h -5.7 z m 0,-5.7 h 5.7 v 5.7 h -5.7 z m -5.70002,0 h 5.7 v 5.7 h -5.7 z"
         id="path48"
         inkscape:connector-curvature="0" />
      <path
         d="m 344.20001,148.3 h 5.7 v 5.7 h -5.7 z"
         id="path50"
         inkscape:connector-curvature="0" />
      <path
         d="m 344.20001,142.60001 h 5.7 v 5.7 h -5.7 z m 0,11.39999 h 5.7 v 5.7 h -5.7 z M 338.5,154 h 5.7 v 5.7 h -5.7 z m -5.70001,5.7 h 5.7 v 5.7 h -5.7 z M 367,171.10001 h 5.7 v 5.7 H 367 Z m -5.70001,-5.70002 h 5.7 v 5.7 h -5.7 z"
         id="path52"
         inkscape:connector-curvature="0" />
      <path
         d="m 361.29999,159.7 h 5.7 v 5.7 h -5.7 z m 5.70001,0 h 5.7 v 5.7 H 367 Z m -5.70001,-11.4 h 5.7 v 5.7 h -5.7 z m 5.70001,0 h 5.7 V 154 H 367 Z"
         id="path54"
         inkscape:connector-curvature="0" />
      <path
         d="m 367,142.60001 h 5.7 v 5.7 H 367 Z M 367,154 h 5.7 v 5.7 H 367 Z m 5.70001,0 h 5.7 v 5.7 h -5.7 z m 5.69998,5.7 h 5.7 v 5.7 h -5.7 z"
         id="path56"
         inkscape:connector-curvature="0" />
    </g>
    <path
       d="m 357.5,204.6 c -0.2,0 -0.4,0 -0.5,-0.1 -0.1,-0.1 -0.3,-0.1 -0.4,-0.2 v -0.7 c 0.1,0.2 0.3,0.3 0.4,0.4 0.2,0.1 0.3,0.1 0.5,0.1 0.2,0 0.4,-0.1 0.5,-0.2 0.1,-0.1 0.2,-0.3 0.2,-0.5 0,-0.2 0,-0.3 -0.1,-0.4 -0.1,-0.1 -0.2,-0.2 -0.3,-0.2 -0.1,0 -0.2,-0.1 -0.3,-0.1 -0.1,0 -0.2,-0.1 -0.3,-0.1 -0.1,0 -0.2,-0.1 -0.3,-0.1 -0.1,-0.1 -0.2,-0.1 -0.2,-0.2 -0.1,-0.1 -0.1,-0.2 -0.1,-0.3 0,-0.1 -0.1,-0.3 -0.1,-0.4 0,-0.3 0.1,-0.6 0.3,-0.8 0.2,-0.2 0.4,-0.3 0.7,-0.3 0.2,0 0.3,0 0.5,0.1 0.1,0 0.3,0.1 0.4,0.2 v 0.7 c -0.1,-0.1 -0.2,-0.2 -0.4,-0.3 -0.2,-0.1 -0.3,-0.1 -0.5,-0.1 -0.2,0 -0.3,0.1 -0.4,0.2 -0.1,0.1 -0.2,0.3 -0.2,0.5 0,0.2 0,0.3 0.1,0.4 0.1,0.1 0.2,0.2 0.3,0.2 0.1,0 0.2,0.1 0.3,0.1 0.1,0 0.2,0.1 0.3,0.1 0.2,0.1 0.4,0.2 0.4,0.4 0.1,0.2 0.1,0.4 0.1,0.7 0,0.2 0,0.3 -0.1,0.5 0,0.2 -0.1,0.3 -0.2,0.4 l -0.3,0.3 c 0.1,-0.3 -0.1,-0.3 -0.3,-0.3 z m 3.2,-0.1 H 359 v -4.1 h 0.4 v 3.7 h 1.3 z m 0.3,0 v -4.1 h 1.8 v 0.5 h -1.5 v 1.1 h 1.4 v 0.5 h -1.4 v 1.5 h 1.5 v 0.5 z m 2.3,0 v -4.1 h 1.8 v 0.5 h -1.5 v 1.1 h 1.4 v 0.5 h -1.4 v 1.5 h 1.5 v 0.5 z m 4.1,-2.9 c 0,0.2 0,0.4 -0.1,0.5 0,0.2 -0.1,0.3 -0.2,0.4 -0.1,0.1 -0.2,0.2 -0.4,0.3 -0.1,0.1 -0.3,0.1 -0.5,0.1 H 366 v 1.5 h -0.4 v -4.1 h 0.7 c 0.2,0 0.3,0 0.4,0.1 0.1,0 0.2,0.1 0.3,0.2 0.1,0.1 0.2,0.2 0.3,0.4 0.1,0.2 0.1,0.4 0.1,0.6 z m -0.4,0 c 0,-0.1 0,-0.3 -0.1,-0.4 -0.1,-0.1 -0.1,-0.2 -0.2,-0.3 -0.1,-0.1 -0.1,-0.1 -0.2,-0.1 H 366 v 1.7 h 0.3 c 0.2,0 0.3,0 0.4,-0.1 0.1,0 0.2,-0.1 0.2,-0.2 0.1,-0.1 0.1,-0.2 0.1,-0.3 z m 11.1,2.9 h -0.4 v -3.6 l -0.8,2.4 h -0.2 l -0.8,-2.4 v 3.6 h -0.4 v -4.1 h 0.5 l 0.7,2.3 0.7,-2.3 h 0.5 v 4.1 z m 2.7,-3.6 c 0.1,0.2 0.2,0.4 0.3,0.7 0.1,0.3 0.1,0.6 0.1,0.9 0,0.3 0,0.6 -0.1,0.9 -0.1,0.3 -0.1,0.5 -0.3,0.7 -0.1,0.2 -0.3,0.3 -0.4,0.4 -0.2,0.1 -0.3,0.1 -0.5,0.1 -0.2,0 -0.4,0 -0.5,-0.1 -0.2,-0.1 -0.3,-0.2 -0.4,-0.4 -0.1,-0.2 -0.2,-0.4 -0.3,-0.7 -0.1,-0.3 -0.1,-0.6 -0.1,-0.9 0,-0.3 0,-0.7 0.1,-0.9 0.1,-0.3 0.1,-0.5 0.3,-0.7 0.1,-0.2 0.3,-0.3 0.4,-0.4 0.2,-0.1 0.3,-0.1 0.5,-0.1 0.2,0 0.4,0 0.5,0.1 0.2,0 0.3,0.2 0.4,0.4 z m 0,1.5 c 0,-0.3 0,-0.5 -0.1,-0.7 0,-0.2 -0.1,-0.4 -0.2,-0.5 -0.1,-0.1 -0.2,-0.3 -0.3,-0.3 -0.1,-0.1 -0.2,-0.1 -0.4,-0.1 -0.1,0 -0.3,0 -0.4,0.1 l -0.3,0.3 c -0.1,0.1 -0.1,0.3 -0.2,0.5 0,0.2 -0.1,0.5 -0.1,0.7 0,0.5 0.1,1 0.2,1.2 0.2,0.3 0.4,0.4 0.7,0.4 0.3,0 0.5,-0.1 0.7,-0.4 0.3,-0.2 0.4,-0.6 0.4,-1.2 z m 3.1,0.1 c 0,0.4 -0.1,0.7 -0.2,1 -0.1,0.3 -0.3,0.5 -0.4,0.7 -0.1,0.1 -0.3,0.2 -0.5,0.3 -0.2,0 -0.4,0.1 -0.6,0.1 h -0.7 v -4.1 h 0.7 c 0.3,0 0.5,0 0.7,0.1 0.2,0.1 0.3,0.1 0.4,0.2 0.2,0.2 0.3,0.4 0.4,0.7 0.2,0.2 0.2,0.5 0.2,1 z m -0.4,-0.1 c 0,-0.3 0,-0.6 -0.1,-0.8 -0.1,-0.2 -0.2,-0.4 -0.3,-0.5 -0.1,-0.1 -0.2,-0.2 -0.3,-0.2 -0.1,0 -0.3,-0.1 -0.4,-0.1 H 382 v 3.2 h 0.3 c 0.2,0 0.3,0 0.5,-0.1 0.1,0 0.3,-0.1 0.4,-0.2 0.1,-0.1 0.2,-0.3 0.3,-0.5 z m 0.9,2.1 v -4.1 h 1.8 v 0.5 h -1.5 v 1.1 h 1.4 v 0.5 h -1.4 v 1.5 h 1.5 v 0.5 z m -16.2,47 1.7,-4.9 h 0.8 l 1.7,4.9 h -0.7 l -0.4,-1.4 h -1.9 l -0.4,1.4 z m 2.8,-2 -0.8,-2.3 -0.8,2.3 z m 24.6,-3.6 c 0,0.2 0,0.5 -0.1,0.6 -0.1,0.2 -0.2,0.3 -0.4,0.5 l -0.6,0.3 c -0.2,0.1 -0.5,0.1 -0.8,0.1 h -1.4 v -4.9 h 2.1 c 0.2,0 0.3,0.1 0.5,0.2 0.2,0.1 0.3,0.2 0.4,0.4 0.1,0.2 0.1,0.3 0.1,0.5 0,0.2 -0.1,0.4 -0.2,0.6 -0.1,0.2 -0.3,0.3 -0.5,0.4 0.3,0.1 0.5,0.2 0.7,0.4 0.2,0.2 0.2,0.6 0.2,0.9 z m -0.9,-2.2 c 0,-0.1 0,-0.2 -0.1,-0.3 0,-0.1 -0.1,-0.2 -0.2,-0.2 -0.1,-0.1 -0.2,-0.1 -0.4,-0.1 h -1.1 v 1.4 h 1.2 c 0.1,0 0.2,-0.1 0.3,-0.1 0.1,-0.1 0.2,-0.1 0.2,-0.3 0,-0.1 0.1,-0.2 0.1,-0.4 z m 0.2,2.3 c 0,-0.2 0,-0.3 -0.1,-0.5 l -0.3,-0.3 c -0.1,-0.1 -0.2,-0.1 -0.3,-0.1 H 393 v 1.8 h 1.2 c 0.2,0 0.3,-0.1 0.4,-0.2 l 0.3,-0.3 z"
       id="path60"
       inkscape:connector-curvature="0"
       style="fill:#2f3338" />
    <path
       d="m 398.3,134.2 h -79.8 c 10.2,-1.3 24.3,-2.1 39.9,-2.1 15.6,0 29.7,0.8 39.9,2.1 z m 0,61.1 h -79.8 c 10.2,1.3 24.3,2.1 39.9,2.1 15.6,0 29.7,-0.8 39.9,-2.1 z"
       id="path62"
       inkscape:connector-curvature="0"
       style="fill:#a7a8a8" />
    <circle
       cx="370.79999"
       cy="234.89999"
       r="8.3999996"
       id="circle64"
       style="fill:#c1c3c2" />
    <circle
       cx="370.79999"
       cy="234.89999"
       r="7.0999999"
       id="circle66"
       style="fill:#646fa4" />
    <circle
       cx="362.39999"
       cy="215.7"
       r="5.3000002"
       id="circle68"
       style="fill:#c1c3c2" />
    <circle
       cx="362.39999"
       cy="215.7"
       r="4.0999999"
       id="circle70"
       style="fill:#646fa4" />
    <path
       d="m 386.8,221 h -7 c -3,0 -5.3,-2.4 -5.3,-5.3 0,-3 2.4,-5.3 5.3,-5.3 h 7"
       id="path72"
       inkscape:connector-curvature="0"
       style="fill:#c1c3c2" />
    <circle
       cx="379.79999"
       cy="215.7"
       r="4.0999999"
       id="circle74"
       style="fill:#646fa4" />
    <path
       d="m 315.10001,84.300003 h 1.5 V 265 h -1.5 z"
       id="path76"
       inkscape:connector-curvature="0"
       style="fill:#a7a8a8" />
    <path
       d="m 400.3,104 v 1.1 h 0.1 C 388.5,99 374,95.2 358.5,95.2 c -15.6,0 -30,3.8 -41.9,9.9 V 104 c 11.9,-6.1 26.4,-9.9 41.9,-9.9 15.5,0 30,3.8 41.8,9.9 m -98.69999,0 h 13.5 v 1.1 h -13.5 z"
       id="path78"
       inkscape:connector-curvature="0"
       style="fill:#a7a8a8" />
    <path
       d="m 301.3,104 h 13.8 V 86.1 c 0,-1.6 -1.3,-2.9 -2.9,-2.9 -6,0 -10.9,4.9 -10.9,10.9 z m 3.5,158 10.2,3.6 V 105.1 h -13.8 v 153.3 c 0.1,1.9 1.6,2.9 3.6,3.6 z"
       id="path80"
       inkscape:connector-curvature="0"
       style="fill:#dedfde" />
    <path
       d="m 301.3,234.9 v 16.9 c -1.1,0 -2,-3.8 -2,-8.5 0,-4.6 0.9,-8.4 2,-8.4 z"
       id="path82"
       inkscape:connector-curvature="0"
       style="fill:#dedfde" />
    <path
       d="m 400.29999,84.300003 h 1.5 V 265 h -1.5 z m 1.5,19.699997 h 13.5 v 1.1 h -13.5 z"
       id="path84"
       inkscape:connector-curvature="0"
       style="fill:#a7a8a8" />
    <path
       d="M 415.6,104 H 401.8 V 86.1 c 0,-1.6 1.3,-2.9 2.9,-2.9 6,0 10.9,4.9 10.9,10.9 z m -3.6,157.9 -10.2,3.6 V 105 h 13.8 v 153.3 c 0,2 -1.6,3 -3.6,3.6 z m 3.6,-27.1 v 16.9 c 1.1,0 2,-3.8 2,-8.5 -0.1,-4.6 -0.9,-8.4 -2,-8.4 z"
       id="path86"
       inkscape:connector-curvature="0"
       style="fill:#dedfde" />
    <circle
       cx="394.70001"
       cy="229.7"
       r="8.3999996"
       id="circle88"
       style="fill:#c1c3c2" />
    <circle
       cx="394.70001"
       cy="229.7"
       r="7.0999999"
       id="circle90"
       style="fill:#646fa4" />
    <path
       d="m 315.7,224.5 c 0,10.3 7.2,18.6 17.3,18.6 10.1,0 19.1,-10.9 19.1,-21.2 0,-10.3 -5.7,-15.9 -15.8,-15.9 -10.1,0 -20.6,8.3 -20.6,18.5 z"
       id="path92"
       inkscape:connector-curvature="0"
       style="fill:#c1c3c2" />
    <circle
       cx="332.10001"
       cy="226.7"
       r="16.4"
       id="circle94"
       style="fill:#a7a8a8" />
    <circle
       cx="331.70001"
       cy="226.7"
       r="15.3"
       id="circle96"
       style="fill:#646fa4" />
    <g
       stroke-miterlimit="10"
       id="g102"
       style="fill:none;stroke:#a7a8a8;stroke-miterlimit:10">
      <circle
         cx="331.70001"
         cy="226.7"
         r="1.2"
         id="circle98" />
      <path
         d="m 326.1,212.5 v 4.9 c 0,1.9 -1.6,3.5 -3.5,3.5 h -5 m -0.1,11.5 h 4.9 c 1.9,0 3.5,1.6 3.5,3.5 v 5 m 11.5,0 V 236 c 0,-1.9 1.6,-3.5 3.5,-3.5 h 5 M 346,221 h -4.9 c -1.9,0 -3.5,-1.6 -3.5,-3.5 v -5"
         id="path100"
         inkscape:connector-curvature="0" />
    </g>
    <path
       d="m 359.5,118.9 c 0.3,-0.1 0.5,-0.2 0.7,-0.3 0.2,-0.1 0.4,-0.1 0.6,-0.2 0.3,-0.1 0.4,-0.1 0.7,-0.1 0.3,0 0.6,0.1 0.8,0.1 0.2,0.1 0.3,0.3 0.4,0.4 0.1,0.1 0.1,0.2 0.1,0.4 v 0.2 c 0,0.1 -0.1,0.1 -0.1,0.2 -0.1,0.1 -0.1,0.2 -0.2,0.2 l -0.2,0.2 c -0.1,0.1 -0.2,0.1 -0.3,0.1 -0.1,0.1 -0.3,0 -0.4,0.1 -0.5,0.1 -0.9,0.1 -1.1,0.2 -0.2,0.1 -0.4,0.1 -0.5,0.2 -0.2,0.1 -0.3,0.2 -0.4,0.3 -0.2,0.1 -0.2,0.2 -0.3,0.4 -0.1,0.1 -0.2,0.3 -0.2,0.4 0,0.2 -0.1,0.4 -0.1,0.5 0,0.3 0,0.6 0.2,0.8 0.1,0.3 0.4,0.5 0.7,0.6 0.3,0.1 0.6,0.3 1.1,0.3 h 0.5 c 0.2,0 0.3,-0.1 0.6,-0.1 0.1,-0.1 0.3,-0.2 0.5,-0.4 l 0.3,-0.3 v 0.6 h 1.1 c -0.1,-0.5 -0.2,-0.5 -0.1,-0.8 0,-0.6 -0.1,-1.8 0,-2.4 v -0.8 c 0,-0.2 -0.1,-0.6 -0.2,-0.8 -0.1,-0.2 -0.2,-0.3 -0.3,-0.6 -0.2,-0.2 -0.5,-0.4 -0.8,-0.5 -0.3,-0.1 -0.5,-0.1 -0.8,-0.1 h -1.1 c -0.3,0.1 -0.6,0.1 -1,0.3 -0.2,0.4 -0.2,0.7 -0.2,0.9 z m 2.8,4 c 0,0 -0.2,0.1 -0.3,0.2 -0.2,0.1 -0.3,0.1 -0.5,0.2 H 361 c -0.3,0 -0.5,-0.1 -0.6,-0.2 -0.2,-0.1 -0.2,-0.1 -0.3,-0.2 -0.1,-0.1 -0.3,-0.4 -0.3,-0.6 v -0.4 c 0,-0.1 0.1,-0.2 0.2,-0.3 0.1,-0.1 0.2,-0.2 0.4,-0.3 0.2,-0.1 0.3,-0.1 0.5,-0.2 0.1,-0.1 0.3,-0.1 0.6,-0.1 0.1,0 0.5,0 0.6,-0.1 0.1,0 0.2,0 0.3,-0.1 0.1,0 0.2,-0.1 0.2,-0.1 0,0 0.1,-0.1 0.3,-0.2 v 1.2 c 0,0 0,0.5 -0.2,0.8 z m 17.8,-4.1 c 0.3,-0.1 0.5,-0.2 0.6,-0.3 0.2,-0.1 0.4,-0.1 0.6,-0.1 0.3,0 0.5,-0.1 0.7,-0.1 0.3,0 0.6,0.1 0.8,0.2 0.2,0.1 0.3,0.3 0.5,0.4 0.1,0.1 0.1,0.2 0.2,0.5 v 0.2 c 0,0.1 -0.1,0.1 -0.1,0.1 -0.1,0.1 -0.1,0.2 -0.2,0.2 -0.1,0 -0.1,0.1 -0.2,0.2 -0.1,0 -0.2,0.1 -0.3,0.1 -0.1,0.1 -0.3,0 -0.4,0.1 -0.5,0.1 -0.9,0.1 -1.1,0.2 -0.2,0.1 -0.4,0.1 -0.6,0.2 -0.2,0.1 -0.3,0.2 -0.4,0.3 -0.2,0.1 -0.2,0.2 -0.3,0.3 -0.1,0.1 -0.1,0.3 -0.2,0.4 0,0.2 -0.1,0.4 -0.1,0.5 0,0.3 0.1,0.6 0.2,0.8 0.1,0.3 0.4,0.5 0.7,0.6 0.3,0.1 0.7,0.3 1.2,0.3 h 0.5 c 0.2,0 0.3,-0.1 0.6,-0.1 0.1,-0.1 0.3,-0.2 0.5,-0.4 l 0.3,-0.3 v 0.6 h 1.1 c -0.1,-0.5 -0.1,-0.5 -0.1,-0.8 v -3.2 c 0,-0.2 -0.1,-0.6 -0.2,-0.8 -0.1,-0.2 -0.2,-0.4 -0.4,-0.6 -0.1,-0.2 -0.5,-0.4 -0.8,-0.5 -0.3,-0.1 -0.5,-0.1 -0.8,-0.1 -0.3,0 -0.8,0 -1.1,0.1 -0.3,0.1 -0.6,0.1 -1,0.2 -0.2,0.4 -0.1,0.6 -0.2,0.8 z m 2.8,4.1 c -0.1,0 -0.2,0.2 -0.3,0.2 -0.2,0 -0.3,0.1 -0.4,0.2 h -0.5 c -0.3,0 -0.5,-0.1 -0.6,-0.2 -0.2,-0.1 -0.2,0 -0.3,-0.2 -0.1,-0.2 -0.3,-0.4 -0.3,-0.6 v -0.4 c 0,-0.1 0.1,-0.2 0.2,-0.3 0.1,-0.1 0.2,-0.2 0.4,-0.3 0.1,-0.1 0.3,-0.1 0.5,-0.2 0.1,0 0.3,-0.1 0.6,-0.1 0.1,0 0.5,0 0.6,-0.1 0.1,0 0.2,0 0.3,-0.1 0.1,0 0.2,-0.1 0.3,-0.1 l 0.2,-0.2 v 1.2 c 0,0 0,0.5 -0.2,0.8 -0.3,0.2 -0.5,0.4 -0.5,0.4 z m -18.1,0.9 0.1,-0.4 v -1.2 l -0.1,-3.4 c 0,-0.3 -0.2,-0.7 -0.2,-0.8 0.2,0 0.6,-0.1 0.7,-0.1 h 0.4 v 0.8 c 0.1,-0.2 0.3,-0.3 0.4,-0.4 0.1,-0.1 0.2,-0.1 0.4,-0.3 0.2,-0.1 0.3,-0.1 0.5,-0.2 h 0.7 c 0.2,0 0.3,0 0.5,0.1 0.2,0 0.3,0.1 0.4,0.2 0.1,0.1 0.3,0.2 0.3,0.2 l 0.3,0.3 c 0,0.1 0.3,-0.3 0.6,-0.5 0.3,-0.2 0.7,-0.3 1.1,-0.3 0.3,0 0.8,0 1.1,0.1 0.3,0.1 0.6,0.2 0.8,0.4 0.2,0.2 0.2,0.3 0.3,0.4 0.2,0.2 0.2,0.6 0.2,0.8 v 3.7 c 0,0.3 0.1,0.3 0.1,0.6 h -1.2 c 0.1,-0.5 0.1,-0.3 0.1,-0.6 v -3.3 c 0,-0.2 -0.1,-0.5 -0.1,-0.6 -0.1,-0.1 -0.3,-0.4 -0.4,-0.5 -0.1,-0.1 -0.3,-0.1 -0.4,-0.2 -0.1,-0.1 -0.4,-0.1 -0.6,-0.1 -0.1,0 -0.3,0 -0.5,0.1 -0.1,0 -0.2,0.1 -0.3,0.1 -0.1,0.1 -0.2,0.1 -0.3,0.2 -0.1,0.1 -0.2,0.2 -0.2,0.4 -0.1,0.1 -0.1,0.4 -0.1,0.6 v 3.4 l 0.2,0.6 h -1.2 c 0,-0.5 0.1,-0.1 0.1,-0.6 v -3.5 c 0,-0.2 0,-0.3 -0.1,-0.4 0,-0.1 -0.1,-0.3 -0.2,-0.4 -0.1,-0.1 -0.3,-0.3 -0.5,-0.4 -0.1,-0.1 -0.3,-0.1 -0.5,-0.1 -0.2,0 -0.3,0 -0.5,0.1 -0.2,0.1 -0.3,0.1 -0.4,0.3 l -0.3,0.3 c -0.1,0.2 -0.2,0.2 -0.2,0.5 -0.1,0.3 -0.1,1.5 -0.1,2.3 v 1.3 c 0,0.3 0.1,0.4 0.1,0.6 h -0.6 c 0.1,-0.1 -0.2,-0.1 -0.4,-0.1 z m 14.3,-1.1 v 0.4 c 0,0.2 -0.1,0.3 -0.1,0.5 -0.3,0.1 -0.5,0.2 -0.8,0.2 h -1.1 c -0.4,0 -0.8,-0.1 -1.2,-0.2 -0.3,-0.1 -0.8,-0.4 -1,-0.6 -0.3,-0.3 -0.6,-0.5 -0.7,-0.9 -0.1,-0.4 -0.2,-0.8 -0.2,-1.2 0,-0.6 0.1,-0.8 0.2,-1.3 0.2,-0.5 0.6,-0.9 1,-1.2 0.4,-0.3 1.3,-0.6 2,-0.6 0.5,0 1.1,0.1 1.6,0.2 0,0.4 0.1,0.6 0.1,0.8 -0.4,-0.1 -0.7,-0.3 -0.9,-0.3 -0.2,0 -0.5,-0.1 -0.7,-0.1 -0.3,0 -1,0.2 -1.2,0.3 -0.3,0.1 -0.5,0.3 -0.6,0.6 -0.2,0.2 -0.3,0.6 -0.4,0.9 -0.1,0.3 -0.1,0.4 -0.1,0.7 0,0.5 0.1,0.9 0.2,1.2 0.1,0.3 0.4,0.7 0.7,0.9 0.3,0.2 0.7,0.4 1.1,0.4 0.5,-0.2 1.3,-0.2 2.1,-0.7 z m 6.2,0.9 -0.1,-0.4 c 0,-0.1 -0.1,-0.3 -0.2,-0.6 0.7,0.4 1.4,0.7 1.9,0.7 0.3,0 0.5,-0.1 0.7,-0.2 0.2,-0.1 0.4,-0.2 0.5,-0.4 0.1,-0.1 0.2,-0.3 0.2,-0.4 V 122 c 0,-0.1 -0.1,-0.3 -0.1,-0.4 l -0.4,-0.4 c -0.1,-0.1 -0.4,-0.2 -0.8,-0.4 -0.4,-0.1 -0.8,-0.3 -1,-0.5 -0.2,-0.1 -0.5,-0.3 -0.6,-0.5 -0.1,-0.2 -0.2,-0.3 -0.3,-0.5 v -0.6 c 0,-0.3 0.2,-0.5 0.3,-0.7 0.1,-0.3 0.4,-0.4 0.7,-0.5 0.3,-0.1 0.7,-0.2 1.1,-0.2 0.5,0 0.9,0.1 1.4,0.2 0,0.3 -0.1,0.5 0,0.8 -0.4,-0.3 -0.8,-0.4 -1.3,-0.4 -0.2,0 -0.5,0 -0.7,0.1 -0.2,0.1 -0.4,0.3 -0.5,0.4 -0.1,0.1 -0.1,0.2 -0.1,0.4 0,0.1 0,0.3 0.1,0.4 0,0.1 0.3,0.3 0.4,0.4 0.2,0.1 0.1,0.1 0.3,0.1 0.2,0 0.6,0.3 1,0.4 0.4,0.2 0.8,0.5 0.9,0.6 0.1,0.1 0.3,0.3 0.4,0.6 0.1,0.2 0.1,0.3 0.1,0.5 0,0.2 -0.1,0.3 -0.1,0.4 0,0.3 0,0.4 -0.2,0.6 -0.1,0.3 -0.4,0.5 -0.8,0.6 -0.3,0.1 -0.7,0.2 -1.1,0.2 h -0.8 c -0.2,0 -0.4,-0.1 -0.6,-0.1 0,0.2 -0.1,0.2 -0.3,0.1 z m 7.3,-0.5 c 0,0.2 -0.1,0.3 -0.1,0.6 -0.3,0.1 -0.4,0.1 -0.5,0.1 h -0.4 c -0.3,0 -0.6,0 -0.8,-0.1 -0.2,-0.1 -0.4,-0.2 -0.5,-0.4 -0.1,-0.2 -0.2,-0.7 -0.2,-1.1 v -3.7 h -0.7 V 118 h 0.7 v -1 c 0,-0.2 -0.1,-0.4 -0.2,-0.5 0.4,-0.1 0.9,-0.2 1.1,-0.3 0,0.6 0.1,1.4 0.1,1.8 h 1.5 v 0.6 l -0.4,-0.1 h -1.1 v 3.6 c 0,0.3 0,0.7 0.1,0.8 0,0.2 0.1,0.2 0.3,0.3 0.1,0.1 0.3,0.1 0.4,0.1 h 0.3 c 0.1,-0.1 0.2,-0.1 0.4,-0.2 z m -38.3,-3.2 h 3.2 v -0.3 c 0,-0.1 -0.1,-0.3 -0.2,-0.4 -0.1,-0.2 -0.2,-0.3 -0.3,-0.4 -0.1,-0.1 -0.3,-0.2 -0.4,-0.3 -0.2,-0.1 -0.4,-0.1 -0.6,-0.1 -0.2,0 -0.4,0.1 -0.6,0.1 -0.2,0.1 -0.4,0.2 -0.5,0.3 -0.2,0.1 -0.3,0.2 -0.4,0.4 -0.1,0.2 -0.2,0.3 -0.2,0.5 z m 3.9,2.9 c 0,0.2 -0.1,0.5 -0.1,0.9 -0.4,0.1 -0.9,0.3 -1.2,0.4 h -0.8 c -0.5,0 -0.9,-0.1 -1.3,-0.2 -0.4,-0.1 -0.7,-0.4 -1,-0.7 -0.3,-0.3 -0.5,-0.6 -0.7,-1 -0.1,-0.4 -0.2,-0.8 -0.2,-1.2 0,-0.6 0.1,-0.8 0.3,-1.4 0.2,-0.5 0.6,-0.9 1,-1.2 0.4,-0.3 0.9,-0.4 1.6,-0.4 0.3,0 0.7,0 1,0.1 0.3,0.1 0.6,0.2 0.8,0.4 0.2,0.2 0.4,0.5 0.5,0.8 0.1,0.3 0.2,0.3 0.2,0.7 v 0.6 H 354 v 0.4 c 0,0.4 0.1,0.9 0.3,1.2 0.2,0.4 0.4,0.6 0.7,0.8 0.3,0.2 0.7,0.4 1.1,0.4 0.6,-0.1 1.4,-0.3 2.1,-0.6 z m -8.8,1.2 c 0,-0.1 0.1,-0.3 0.1,-0.4 0,-1.9 0,-3.4 -0.1,-4.6 v -0.5 l -0.2,-0.4 c 0.2,0 0.4,0 0.6,-0.1 0.1,0 0.5,-0.1 0.6,-0.1 v 1.1 c 0.1,-0.3 0.2,-0.2 0.3,-0.4 l 0.4,-0.4 c 0.1,-0.1 0.3,-0.2 0.4,-0.2 0.2,0 0.3,-0.1 0.5,-0.1 h 0.6 c 0.4,0 0.6,0.1 0.6,0.2 0,0.2 -0.3,0.8 -0.3,0.8 0,0 -0.3,0 -0.5,-0.1 -0.2,-0.1 -0.4,-0.1 -0.6,-0.1 -0.2,0 -0.5,0.1 -0.6,0.1 -0.2,0.1 -0.3,0.2 -0.5,0.3 -0.1,0.2 -0.2,0.3 -0.3,0.6 -0.1,0.2 -0.1,0 -0.1,0.3 v 3.6 l 0.1,0.3 h -0.6 c 0.1,0 -0.2,0.1 -0.4,0.1 z m -7.4,-0.7 h 1.3 c 0.3,0 0.7,0 1.1,-0.1 0.4,-0.1 0.6,-0.2 0.9,-0.3 0.3,-0.1 0.6,-0.3 0.8,-0.5 0.3,-0.3 0.5,-0.6 0.7,-0.9 0.1,-0.3 0.3,-0.7 0.3,-1.1 0.1,-0.4 0.1,-0.8 0.1,-1.2 0,-0.5 -0.2,-0.8 -0.3,-1.2 -0.1,-0.4 -0.4,-0.9 -0.7,-1.2 -0.4,-0.3 -0.6,-0.5 -1,-0.6 -0.4,-0.1 -0.9,-0.3 -1.5,-0.3 -0.4,0 -0.9,0 -1.1,0.1 -0.3,0 -0.5,0.1 -0.8,0.1 z m -1.5,0.7 0.2,-0.6 v -7.2 c 0,-0.2 -0.1,-0.4 -0.2,-0.8 h 3.8 c 0.6,0 0.8,0.1 1.3,0.2 0.3,0.1 1,0.4 1.3,0.6 0.3,0.2 0.6,0.4 0.8,0.8 0.2,0.3 0.3,0.4 0.5,0.8 0.2,0.5 0.3,1.1 0.3,1.6 0.1,0.7 0,1.3 -0.2,1.9 -0.2,0.7 -0.7,1.1 -1.1,1.6 -0.4,0.5 -0.9,0.7 -1.5,0.9 -0.6,0.1 -1.2,0.3 -1.9,0.3 H 342 Z m -8.6,-2.8 c 0,-0.5 -0.2,-0.4 -0.4,-0.5 -0.2,0 -0.6,0.1 -0.9,0 -0.4,-0.1 -0.7,-0.7 -0.6,-1 0.2,-0.8 0.8,-0.9 1.1,-0.9 0.3,0 0.8,0 1.5,0.6 0.3,0.3 0.5,1 0.5,1.4 0,0.5 0,1 -0.3,1.4 -0.5,0.5 -1.7,0.9 -2.4,0.9 -2.7,-0.3 -2.6,-2.9 -2.6,-2.9 0,0 -0.2,-1.1 0.7,-2.3 0.1,-0.1 0.2,-0.3 0.3,-0.4 0.1,-0.1 0.2,-0.1 0.3,-0.2 0.1,-0.1 0.2,-0.1 0.3,-0.2 0.3,-0.2 0.6,-0.3 0.9,-0.4 0.5,-0.1 0.9,-0.2 1.3,-0.2 1.1,0 2.3,0.6 3,1.6 l 0.3,0.3 c 0.1,0.1 0.2,0.4 0.3,0.6 0.1,0.4 0.1,0.2 0.3,0.9 0.1,0.4 0.2,0.7 0.2,1 v 0.4 c 0,0.5 0.1,0.6 0,1 -0.2,0.6 -0.6,1.3 -0.9,1.6 -0.6,0.6 -1.1,0.8 -1.5,0.9 -0.3,0.2 -0.5,0.2 -0.9,0.3 -0.4,0.2 -0.6,0.2 -1.4,0.2 -0.7,0 -1.3,0 -1.5,-0.1 -1.3,-0.4 -1.8,-0.6 -2.3,-1.1 -1.5,-1.1 -1.8,-3.4 -1.8,-3.4 0,0 -0.2,-1.1 0.1,-2.3 0.1,-0.6 0.8,-1.8 1.2,-2.3 0.3,-0.4 1,-1 1.5,-1.2 0.4,-0.3 1,-0.6 1.8,-0.8 0.3,-0.1 0.6,-0.2 1.4,-0.2 0.9,0 2.3,0.2 3,0.4 0.8,0.3 1.6,0.8 2,1.2 0.4,0.4 1.3,1.7 1.4,2 0.2,0.3 0.6,1.7 0.6,1.9 0,0.2 0.1,0.8 0.7,0.8 0.6,0 0.4,-0.7 0.4,-0.8 0,-0.1 -0.2,-1.2 -0.3,-1.5 -0.1,-0.3 -0.5,-1.1 -0.6,-1.2 0,-0.1 -0.5,-0.8 -0.8,-1.3 -0.3,-0.4 -0.6,-0.8 -0.9,-1 -0.6,-0.4 -1.4,-0.7 -1.4,-0.7 0,0 -1.3,-0.5 -2,-0.5 -0.6,-0.1 -1.2,-0.2 -2.3,-0.1 -1.1,0.1 -1.7,0.4 -2,0.5 -0.4,0.2 -1.3,0.6 -1.9,1.1 -0.7,0.5 -0.5,0.3 -0.8,0.7 -0.3,0.4 -0.5,0.5 -0.7,0.8 -0.2,0.3 -0.8,1.4 -0.9,2 -0.1,0.3 -0.2,0.7 -0.3,1.1 0,0.3 -0.1,0.7 0,1 0.1,0.6 0,0.6 0,0.6 0,0 0.3,1.1 0.4,1.6 0.2,0.4 0.4,1.1 1.3,2.1 0.9,1 1.8,1.3 2.1,1.4 0.3,0.1 1.4,0.5 2.9,0.5 1.7,0 2.1,-0.3 2.4,-0.5 0.3,-0.1 1.3,-0.6 2.1,-1.3 0.8,-0.7 1.1,-1.6 1.1,-1.7 0.2,-0.6 0.3,-1.7 0.1,-2.7 -0.1,-0.7 -0.3,-1.3 -0.4,-1.7 -0.2,-0.7 -0.5,-1.1 -0.7,-1.4 -0.2,-0.3 -0.8,-0.8 -1.2,-1 -0.2,-0.1 -0.3,-0.2 -0.6,-0.3 -0.2,-0.1 -0.6,-0.2 -0.9,-0.3 -0.3,-0.1 -0.8,-0.2 -1.2,-0.2 h -0.7 c -0.2,0 -0.7,0.1 -1.5,0.5 -0.4,0.2 -0.9,0.5 -1.4,1 -0.2,0.2 -0.3,0.4 -0.4,0.5 -1.1,1.6 -0.7,3.3 -0.7,3.3 0,0 0.2,2.3 2.3,3 0.7,0.2 1.4,0.2 1.9,0.2 0.9,-0.1 1.6,-0.5 2,-0.7 0.5,-0.2 0.8,-0.6 1,-1 0.2,-0.4 0.2,-0.8 0.2,-1.1 0,-0.2 0,-0.5 -0.1,-0.7 -0.1,-0.7 -0.4,-1.3 -0.9,-1.8 l -0.2,-0.1 c -0.1,-0.1 -0.2,-0.1 -0.3,-0.2 -0.5,-0.3 -1,-0.4 -1.7,-0.4 -0.3,0 -0.6,0.1 -0.8,0.2 -0.8,0.4 -1.3,1.1 -1.2,2.1 0,0.9 0.9,1.4 1,1.5 -0.5,-0.1 1.4,0.4 1.4,-0.5 z"
       id="path104"
       inkscape:connector-curvature="0"
       style="fill:#2f3338" />
  </g>
  <path
     d="m 160.30727,141.25749 -29.19229,61.47444 -0.96847,-1.38352 28.36218,-60.22927 c 0.73788,0 1.3374,0.0461 1.79858,0.13835 m -190.551362,60.08285 -0.968465,1.38352 -29.19229,-61.47444 c 0.461174,-0.0922 1.014582,-0.13835 1.798578,-0.13835 z"
     id="path108"
     inkscape:connector-curvature="0"
     style="fill:#a7a8a8" />
  <path
     d="m 158.49222,141.14612 -28.36217,60.18315 c -17.70907,-25.22619 -47.039711,-41.69009 -80.198094,-41.69009 -33.158383,0 -62.442908,16.4639 -80.198092,41.69009 L -58.674431,141.1 H 156.97035 c 0.59953,0 1.0607,0 1.52187,0.0461"
     id="path110"
     inkscape:connector-curvature="0"
     style="fill:#e4e5e4" />
  <path
     d="m 161.85367,145.96261 v 175.5688 c 0,0 -0.13835,45.61007 -3.08986,49.02275 -1.42964,1.66023 -26.97866,3.9661 -52.98885,5.0268 -27.670416,1.19905 -55.848123,1.15293 -55.848123,1.15293 0,0 -28.177708,0.0461 -55.8481253,-1.15293 C -31.93148,374.47414 -57.480499,372.21439 -58.910137,370.55416 -61.861648,367.09536 -62,321.53141 -62,321.53141 v -175.5688 c 0,-3.27433 0,-4.33503 1.521873,-4.65785 l 29.19229,61.47444 0.968464,-1.38352 c 17.755185,-25.2262 47.039709,-41.69009 80.198092,-41.69009 33.158383,0 62.442911,16.46389 80.198091,41.69009 l 0.96847,1.38352 29.19229,-61.47444 c 1.6141,0.32282 1.6141,1.3374 1.6141,4.65785"
     id="path112"
     inkscape:connector-curvature="0"
     style="fill:#dedfde" />
  <path
     d="m 126.35437,257.76825 c 0,42.24351 -34.219079,76.46259 -76.416465,76.46259 -42.1973861,0 -76.416468,-34.2652 -76.416468,-76.46259 0,-11.85216 2.720924,-23.1048 7.51713,-33.11226 12.3133351,-25.64126 38.554114,-43.35032 68.899338,-43.35032 30.483576,0 56.862705,17.89353 69.083805,43.76537 4.70397,9.91524 7.33266,20.9834 7.33266,32.69721"
     id="path114"
     inkscape:connector-curvature="0"
     style="fill:#e4e5e4" />
  <path
     d="m 147.92475,257.76825 c 0,54.1879 -43.85761,98.09163 -97.999389,98.09163 -54.1417827,0 -97.999394,-43.90373 -97.999394,-98.09163 0,-20.38387 6.225844,-39.33811 16.832837,-55.01801 l 0.968465,-1.38352 0.830113,1.70634 c -10.699228,15.54155 -16.97119,34.35744 -16.97119,54.69519 0,53.26556 43.1658509,96.47752 96.385286,96.47752 53.219432,0 96.339172,-43.16585 96.339172,-96.47752 0,-20.29164 -6.27196,-39.15364 -16.97119,-54.69519 l 0.83011,-1.70634 0.96846,1.38352 c 10.607,15.6799 16.78672,34.63414 16.78672,55.01801"
     id="path116"
     inkscape:connector-curvature="0"
     style="fill:#a7a8a8" />
  <path
     d="m 130.11949,201.34034 -0.83012,1.70634 c -17.38624,-25.22619 -46.440179,-41.78233 -79.367975,-41.78233 -32.927796,0 -61.981734,16.51002 -79.36798,41.73622 l -0.830112,-1.70635 c 17.755184,-25.22619 47.039709,-41.69009 80.198092,-41.69009 33.158383,0 62.489025,16.51001 80.198095,41.73621"
     id="path118"
     inkscape:connector-curvature="0"
     style="fill:#a7a8a8" />
  <path
     d="m 42.049807,355.56676 7.886069,17.01731 7.886068,-17.01731"
     id="path120"
     inkscape:connector-curvature="0"
     style="fill:#d65725" />
  <path
     d="m -47.295249,352.3717 c -4.381149,-11.57546 -3.597154,-16.14107 1.706343,-19.41541 7.839951,-4.84232 20.476108,8.34725 21.951864,15.35708 1.56799,7.65549 -2.44422,14.57309 -8.623947,15.63379 -6.179726,1.10682 -12.497805,-4.88844 -15.03426,-11.57546"
     id="path122"
     inkscape:connector-curvature="0"
     style="fill:#a7a8a8" />
  <path
     d="m -45.778218,353.1426 c -1.291286,-7.05596 2.674807,-13.60462 8.854533,-14.66532 6.179727,-1.0607 12.221101,3.78162 13.512387,10.83758 1.291286,7.05596 -2.720924,13.60462 -8.90065,14.66532 -6.13361,1.0607 -12.174984,-3.78162 -13.46627,-10.83758"
     id="path124"
     inkscape:connector-curvature="0"
     style="fill:#bbbbbb" />
  <path
     d="m -42.518781,352.57965 c -0.922348,-4.98068 1.890812,-9.63853 6.271961,-10.37641 4.381149,-0.73788 8.623946,2.67481 9.546294,7.65548 0.922347,4.98068 -1.936929,9.63853 -6.318079,10.37641 -4.288914,0.78399 -8.577829,-2.67481 -9.500176,-7.65548"
     id="path126"
     inkscape:connector-curvature="0"
     style="fill:#c1c3c2" />
  <path
     d="m 119.01479,225.07911 c -12.2211,-25.91795 -38.600227,-43.81149 -69.083803,-43.81149 -30.345224,0 -56.5860025,17.70907 -68.899338,43.35032 l -10.468641,-21.58292 c 17.386245,-25.2262 46.440183,-41.73622 79.367979,-41.73622 32.927796,0 61.981733,16.55614 79.367983,41.78233 z"
     id="path128"
     inkscape:connector-curvature="0"
     style="fill:#e4e5e4" />
  <path
     d="m 147.17383,352.3717 c 4.38114,-11.57546 3.59715,-16.14107 -1.75246,-19.41541 -7.79384,-4.84232 -20.43,8.34725 -21.90575,15.35708 -1.56799,7.65549 2.44422,14.57309 8.62395,15.63379 6.17972,1.10682 12.4978,-4.88844 15.03426,-11.57546"
     id="path130"
     inkscape:connector-curvature="0"
     style="fill:#a7a8a8" />
  <path
     d="m 145.61068,353.1426 c 1.29128,-7.05596 -2.67481,-13.60462 -8.85454,-14.66532 -6.17972,-1.0607 -12.2211,3.78162 -13.51238,10.83758 -1.29129,7.05596 2.72092,13.60462 8.90065,14.66532 6.17972,1.0607 12.2211,-3.78162 13.46627,-10.83758"
     id="path132"
     inkscape:connector-curvature="0"
     style="fill:#bbbbbb" />
  <path
     d="m 132.82081,360.24181 c -4.38115,-0.73787 -7.19431,-5.39573 -6.31808,-10.3764 0.92235,-4.98068 5.21126,-8.39336 9.5463,-7.65548 4.38115,0.78399 7.1943,5.39573 6.27196,10.3764 -0.87623,4.98068 -5.16515,8.39336 -9.50018,7.65548 M -49.60928,303.30776 c 0,-1.29128 1.0607,-2.30586 2.305869,-2.30586 1.291286,0 2.305868,1.0607 2.305868,2.30586 0,1.29129 -1.0607,2.30587 -2.305868,2.30587 -1.291287,0.0461 -2.305869,-1.01458 -2.305869,-2.30587 m -9.305561,-44.01593 c 0,-1.29128 1.0607,-2.30587 2.305868,-2.30587 1.291286,0 2.305868,1.01459 2.305868,2.30587 0,1.29129 -1.060699,2.30587 -2.305868,2.30587 -1.245168,0.0461 -2.305868,-1.01458 -2.305868,-2.30587 m 2.314031,22.43241 c 0,-1.29129 1.060699,-2.30587 2.305868,-2.30587 1.291286,0 2.305868,1.01458 2.305868,2.30587 0,1.29129 -1.060699,2.30587 -2.305868,2.30587 -1.245169,0 -2.305868,-1.0607 -2.305868,-2.30587 m 6.99153,-66.43086 c 0,1.29129 1.0607,2.30587 2.305869,2.30587 1.291286,0 2.305868,-1.0607 2.305868,-2.30587 0,-1.29129 -1.0607,-2.30587 -2.305868,-2.30587 -1.291287,-0.0461 -2.305869,1.01458 -2.305869,2.30587 m -6.99153,21.61534 c 0,1.29129 1.060699,2.30587 2.305868,2.30587 1.291286,0 2.305868,-1.0607 2.305868,-2.30587 0,-1.29128 -1.060699,-2.30586 -2.305868,-2.30586 -1.245169,0 -2.305868,1.01458 -2.305868,2.30586 m 206.08867,66.39904 c 0,-1.29128 -1.0607,-2.30586 -2.30587,-2.30586 -1.29129,0 -2.30587,1.0607 -2.30587,2.30586 0,1.29129 1.0607,2.30587 2.30587,2.30587 1.29128,0.0461 2.30587,-1.01458 2.30587,-2.30587 m 9.25866,-44.01593 c 0,-1.29128 -1.0607,-2.30587 -2.30587,-2.30587 -1.29129,0 -2.30587,1.01459 -2.30587,2.30587 0,1.29129 1.0607,2.30587 2.30587,2.30587 1.29128,0.0461 2.30587,-1.01458 2.30587,-2.30587 m -2.31565,22.43241 c 0,-1.29129 -1.0607,-2.30587 -2.30587,-2.30587 -1.29128,0 -2.30587,1.01458 -2.30587,2.30587 0,1.29129 1.0607,2.30587 2.30587,2.30587 1.29129,0 2.30587,-1.0607 2.30587,-2.30587 m -6.94301,-66.43086 c 0,1.29129 -1.0607,2.30587 -2.30587,2.30587 -1.29129,0 -2.30587,-1.0607 -2.30587,-2.30587 0,-1.29129 1.0607,-2.30587 2.30587,-2.30587 1.29128,-0.0461 2.30587,1.01458 2.30587,2.30587 m 6.94301,21.61534 c 0,1.29129 -1.0607,2.30587 -2.30587,2.30587 -1.29128,0 -2.30587,-1.0607 -2.30587,-2.30587 0,-1.29128 1.0607,-2.30586 2.30587,-2.30586 1.29129,0 2.30587,1.01458 2.30587,2.30586"
     id="path134"
     inkscape:connector-curvature="0"
     style="fill:#c1c3c2" />
  <path
     d="m 75.469491,237.70296 v 6.59478 c 0,1.47576 -1.199052,2.67481 -2.674807,2.67481 H 29.582716 c -1.475756,0 -2.674807,-1.19905 -2.674807,-2.67481 v -6.59478 c 0,-1.47576 1.199051,-2.67481 2.674807,-2.67481 h 5.257379 c 1.337404,0 2.398103,-1.0607 2.398103,-2.3981 v -6.22585 c 0,-7.79383 5.995257,-14.52696 13.789091,-14.84979 8.301125,-0.36893 15.172612,6.22585 15.172612,14.48086 v 6.6409 c 0,1.3374 1.060699,2.3981 2.398103,2.3981 h 4.19668 c 1.475755,-0.0461 2.674807,1.15293 2.674807,2.62869"
     id="path136"
     inkscape:connector-curvature="0"
     style="fill:#dedfde" />
  <path
     d="m 47.625211,243.15039 c -0.04612,0 -0.138352,0.13835 -0.184469,0.13835 -0.138352,0.0461 -0.276704,0.0922 -0.368939,0.13835 -0.138352,0 -0.276704,0.0461 -0.368939,0.0461 -0.184469,0 -0.368939,-0.0461 -0.461174,-0.13835 -0.138352,-0.0922 -0.138352,-0.0461 -0.230586,-0.18447 -0.09224,-0.13836 -0.230587,-0.32282 -0.230587,-0.46118 v -0.32282 c 0,-0.0922 0.04612,-0.13835 0.138352,-0.23059 0.09224,-0.0922 0.138352,-0.18446 0.276704,-0.2767 0.138352,-0.0461 0.230587,-0.0922 0.415056,-0.13835 0.09223,-0.0461 0.230587,-0.0461 0.461174,-0.0922 0.138352,0 0.368939,0 0.415056,-0.0461 0.09223,0 0.138352,0 0.230587,-0.0461 0.04612,-0.0461 0.138352,-0.0461 0.184469,-0.0922 0.04612,-0.0461 0.09223,-0.0461 0.18447,-0.13835 v 0.92235 c 0,0 0,0.41506 -0.138352,0.59953 -0.18447,0.23058 -0.322822,0.32282 -0.322822,0.32282 m -2.121398,-3.13598 c 0.230586,-0.0922 0.368939,-0.13836 0.507291,-0.23059 0.138352,-0.0461 0.276704,-0.0922 0.507291,-0.13835 0.184469,-0.0461 0.322821,-0.0461 0.553408,-0.0461 0.184469,0 0.415056,0.0922 0.599526,0.13835 0.138352,0.0461 0.276704,0.18447 0.322821,0.32282 0.09224,0.0922 0.138352,0.13836 0.138352,0.32283 v 0.13835 c 0,0.0461 -0.04612,0.0922 -0.09223,0.13835 -0.04612,0.0461 -0.09223,0.13835 -0.138353,0.13835 l -0.138352,0.13835 c -0.09223,0.0461 -0.138352,0.0461 -0.230586,0.0922 -0.09224,0.0461 -0.18447,0 -0.322822,0.0461 -0.415056,0.0461 -0.69176,0.0922 -0.87623,0.13835 -0.184469,0.0461 -0.276704,0.0922 -0.415056,0.13835 -0.138352,0.0461 -0.18447,0.13835 -0.322822,0.23059 -0.138352,0.0922 -0.138352,0.18447 -0.230586,0.2767 -0.04612,0.0922 -0.138353,0.18447 -0.138353,0.32282 0,0.13835 -0.04612,0.27671 -0.04612,0.41506 0,0.23059 0.04612,0.41505 0.138352,0.64564 0.09223,0.18447 0.276704,0.36894 0.507291,0.46118 0.230587,0.0922 0.507291,0.23058 0.87623,0.23058 h 0.368939 c 0.138352,0 0.230587,-0.0461 0.461174,-0.0922 0.09223,-0.0922 0.230586,-0.13835 0.368938,-0.27671 l 0.230587,-0.23058 v 0.50729 h 0.87623 c -0.09224,-0.36894 -0.138352,-0.41506 -0.09224,-0.64565 0,-0.41505 -0.04612,-1.38352 0,-1.89081 v -0.59952 c 0,-0.18447 -0.09223,-0.46118 -0.138352,-0.64565 -0.04612,-0.13835 -0.138352,-0.2767 -0.276704,-0.41505 -0.138352,-0.13835 -0.415056,-0.32282 -0.599526,-0.41506 -0.230586,-0.0461 -0.415056,-0.0922 -0.645643,-0.0922 -0.230586,0 -0.599525,0 -0.830112,0.0461 -0.230587,0.0461 -0.415056,0.0922 -0.783995,0.18447 -0.138352,0.32282 -0.138352,0.50729 -0.138352,0.64565 m 18.183199,3.09143 c -0.04612,0 -0.138352,0.13835 -0.230587,0.13835 -0.138352,0.0461 -0.230587,0.0922 -0.322821,0.13835 -0.138352,0 -0.276704,0.0461 -0.368939,0.0461 -0.18447,0 -0.368939,-0.0461 -0.507291,-0.13835 -0.138352,-0.0922 -0.138352,-0.0461 -0.230587,-0.18447 -0.09224,-0.13835 -0.230587,-0.32282 -0.230587,-0.46118 v -0.32282 c 0.04612,-0.0922 0.04612,-0.13835 0.138352,-0.23058 0.09224,-0.0922 0.138352,-0.18447 0.276705,-0.27671 0.09223,-0.0461 0.230586,-0.0922 0.415056,-0.13835 0.09223,-0.0461 0.230587,-0.0461 0.461173,-0.0922 0.09224,0 0.368939,0 0.415057,-0.0461 0.04612,0 0.138352,-0.0461 0.184469,-0.0461 0.09223,-0.0461 0.138352,-0.0461 0.18447,-0.0922 0.04612,-0.0461 0.09223,-0.0461 0.184469,-0.13836 v 0.92235 c 0,0 0,0.36894 -0.138352,0.59953 -0.09224,0.23058 -0.230587,0.32282 -0.230587,0.32282 m -2.121399,-3.13598 c 0.18447,-0.0922 0.368939,-0.13836 0.507291,-0.23059 0.138353,-0.0461 0.322822,-0.0922 0.507291,-0.13835 0.18447,-0.0461 0.368939,-0.0461 0.553409,-0.0461 0.184469,0 0.461173,0.0922 0.599525,0.13835 0.138353,0.0461 0.276705,0.18447 0.368939,0.32282 0.09224,0.0922 0.09224,0.18447 0.138352,0.36894 v 0.13836 c 0,0.0461 -0.04612,0.0461 -0.09223,0.0922 -0.04612,0.0461 -0.09224,0.13835 -0.138352,0.13835 -0.04612,0.0461 -0.09223,0.0922 -0.18447,0.13835 -0.04612,0.0461 -0.138352,0.0461 -0.230587,0.0922 -0.09223,0.0461 -0.184469,0 -0.322821,0.0461 -0.415056,0.0461 -0.737878,0.0922 -0.87623,0.13835 -0.184469,0.0461 -0.276704,0.0922 -0.415056,0.13835 -0.138352,0.0461 -0.18447,0.13835 -0.322822,0.23059 -0.138352,0.0922 -0.138352,0.13835 -0.230587,0.2767 -0.04612,0.0922 -0.09223,0.23059 -0.138352,0.32282 -0.04612,0.13835 -0.09223,0.27671 -0.09223,0.41506 0,0.23059 0.04612,0.41506 0.138352,0.64564 0.138352,0.18447 0.276704,0.36894 0.507291,0.46118 0.230586,0.0922 0.507291,0.23058 0.922347,0.23058 h 0.368939 c 0.138352,0 0.276704,-0.0461 0.461173,-0.0922 0.09224,-0.0922 0.276705,-0.13835 0.415057,-0.27671 l 0.230586,-0.23058 v 0.50729 h 0.87623 c -0.09223,-0.36894 -0.138352,-0.41506 -0.138352,-0.64565 v -2.49033 c 0,-0.18447 -0.09224,-0.46118 -0.138352,-0.64565 -0.04612,-0.13835 -0.138352,-0.2767 -0.276704,-0.41505 -0.09224,-0.13835 -0.368939,-0.32282 -0.599526,-0.41506 -0.230587,-0.0461 -0.368939,-0.0922 -0.645643,-0.0922 -0.230587,0 -0.599526,0.0461 -0.830112,0.0461 -0.276704,0.0461 -0.415057,0.0922 -0.783995,0.18447 -0.138353,0.27671 -0.138353,0.50729 -0.138353,0.64565 m -11.954542,3.87584 0.09223,-0.32282 v -0.92235 l -0.04612,-2.62869 c 0,-0.23059 -0.138352,-0.50729 -0.138352,-0.64564 0.138352,0 0.415057,-0.0461 0.553409,-0.0922 0.09223,-0.0461 0.230586,-0.0461 0.322821,-0.0461 v 0.59953 c 0.09224,-0.18447 0.276704,-0.18447 0.322822,-0.2767 0.04612,-0.0922 0.138352,-0.0922 0.276704,-0.18447 0.138352,-0.0922 0.184469,-0.0922 0.368939,-0.13836 0.184469,0 0.322821,-0.0461 0.507291,-0.0461 0.138352,0 0.230587,0 0.368939,0.0461 0.138352,0 0.230586,0.0922 0.322821,0.13836 0.09224,0.0461 0.18447,0.13835 0.276704,0.18447 0.09223,0.0922 0.138352,0.13835 0.230587,0.2767 0,0.0461 0.18447,-0.23059 0.461174,-0.36894 0.276704,-0.13835 0.553408,-0.2767 0.87623,-0.2767 0.184469,0 0.645643,0 0.830112,0.0922 0.18447,0.0922 0.461174,0.18447 0.599526,0.32282 0.138352,0.13836 0.138352,0.18447 0.276704,0.32283 0.138352,0.13835 0.184469,0.50729 0.184469,0.64564 v 2.85927 c 0,0.23059 0.04612,0.23059 0.09224,0.46118 h -0.922347 c 0.138352,-0.36894 0.09224,-0.27671 0.09224,-0.46118 v -2.62868 c 0,-0.18447 -0.04612,-0.41506 -0.09224,-0.5073 -0.04612,-0.0922 -0.230587,-0.2767 -0.276704,-0.36893 -0.09223,-0.0922 -0.18447,-0.0922 -0.322822,-0.13836 -0.09224,-0.0461 -0.276704,-0.0461 -0.415056,-0.0461 -0.09224,0 -0.276704,0 -0.368939,0.0461 -0.09223,0.0461 -0.184469,0.0461 -0.276704,0.13836 -0.09224,0.0461 -0.138352,0.0922 -0.230587,0.18446 -0.04612,0.0922 -0.138352,0.18447 -0.184469,0.27671 -0.04612,0.0922 -0.04612,0.2767 -0.04612,0.46117 v 2.67481 l 0.138352,0.41506 h -0.968464 c 0,-0.41506 0.04612,-0.0461 0.04612,-0.46118 v -2.72092 c 0,-0.13835 -0.04612,-0.23059 -0.04612,-0.32282 -0.04612,-0.0922 -0.09223,-0.27671 -0.18447,-0.32283 -0.09223,-0.0922 -0.276704,-0.2767 -0.368939,-0.2767 -0.09223,-0.0461 -0.276704,-0.0922 -0.415056,-0.0922 -0.138352,0 -0.230587,0 -0.368939,0.0922 -0.138352,0.0461 -0.230587,0.0922 -0.322821,0.18447 -0.09224,0.0922 -0.18447,0.13835 -0.276704,0.2767 -0.04612,0.13836 -0.138353,0.13836 -0.138353,0.36894 -0.04612,0.23059 -0.04612,1.19905 -0.04612,1.79858 v 1.01458 c 0,0.18447 0.09224,0.27671 0.09224,0.46118 h -0.461174 c 0,-0.0461 -0.230587,-0.0461 -0.415056,-0.0461 m 11.135636,-0.8457 c 0,0.0461 0,0.13835 -0.04612,0.2767 0,0.13835 -0.04612,0.27671 -0.09223,0.41506 -0.184469,0.0461 -0.415056,0.13835 -0.599525,0.13835 -0.18447,0 -0.691761,0.0461 -0.830113,0.0461 -0.276704,0 -0.645643,-0.0461 -0.922347,-0.13835 -0.276704,-0.0922 -0.599526,-0.27671 -0.783995,-0.5073 -0.18447,-0.18446 -0.415056,-0.41505 -0.553409,-0.73787 -0.09223,-0.32282 -0.184469,-0.59953 -0.184469,-0.92235 0,-0.46117 0.04612,-0.64564 0.184469,-1.0607 0.138353,-0.41506 0.461174,-0.73788 0.783996,-0.96846 0.322821,-0.23059 1.014582,-0.41506 1.56799,-0.41506 0.415056,0 0.87623,0.0461 1.245169,0.18447 0,0.2767 0.04612,0.41506 0.04612,0.59952 -0.276704,-0.0922 -0.553408,-0.23058 -0.69176,-0.2767 -0.18447,0 -0.415057,-0.0461 -0.507291,-0.0461 -0.276705,0 -0.783996,0.13836 -0.968465,0.23059 -0.184469,0.0922 -0.368939,0.23059 -0.507291,0.41506 -0.138352,0.18447 -0.230587,0.41505 -0.276704,0.69176 -0.04612,0.2767 -0.09223,0.2767 -0.04612,0.55341 0,0.36893 0.09223,0.64564 0.184469,0.92234 0.138352,0.27671 0.276704,0.50729 0.553408,0.64565 0.230587,0.13835 0.507291,0.2767 0.830113,0.2767 0.322821,0.0922 0.968464,0.0461 1.614107,-0.32282 m 4.784723,0.6651 -0.09224,-0.32282 c 0,-0.0461 -0.09224,-0.23059 -0.138352,-0.46117 0.507291,0.2767 1.060699,0.50729 1.475756,0.50729 0.184469,0 0.415056,-0.0922 0.553408,-0.13835 0.138352,-0.0461 0.276704,-0.13836 0.368939,-0.27671 0.04612,-0.0922 0.138352,-0.23058 0.138352,-0.32282 0,-0.0461 0.04612,-0.13835 0,-0.23059 0,-0.0461 -0.04612,-0.23058 -0.09224,-0.2767 l -0.276704,-0.2767 c -0.09224,-0.0461 -0.276704,-0.18447 -0.599526,-0.27671 -0.276704,-0.13835 -0.645643,-0.23059 -0.783995,-0.36894 -0.138352,-0.0922 -0.368939,-0.23058 -0.461173,-0.36894 -0.09224,-0.13835 -0.138353,-0.23058 -0.230587,-0.36894 -0.04612,-0.13835 0,-0.2767 0,-0.41505 0,-0.18447 0.138352,-0.41506 0.230587,-0.55341 0.138352,-0.18447 0.322821,-0.2767 0.553408,-0.41506 0.230587,-0.0922 0.507291,-0.13835 0.830112,-0.13835 0.368939,0 0.691761,0.0922 1.106817,0.13835 0,0.23059 -0.04612,0.41506 0,0.59953 -0.276704,-0.18447 -0.645643,-0.32282 -0.968464,-0.32282 -0.18447,0 -0.368939,0.0461 -0.507291,0.0922 -0.138353,0.0461 -0.322822,0.18447 -0.415057,0.27671 -0.04612,0.0922 -0.09223,0.18447 -0.09223,0.2767 0,0.0922 0,0.18447 0.04612,0.27671 0,0.0461 0.184469,0.2767 0.276704,0.2767 0.138352,0.0461 0.09224,0.0461 0.18447,0.0922 0.138352,0 0.461173,0.18447 0.783995,0.32283 0.322821,0.13835 0.645643,0.36893 0.737877,0.46117 0.09224,0.0922 0.230587,0.23059 0.276705,0.46117 0.04612,0.13836 0.09223,0.27671 0.09223,0.36894 0,0.18447 -0.04612,0.18447 -0.04612,0.32282 0,0.23059 -0.04612,0.27671 -0.138352,0.46118 -0.138352,0.18447 -0.322822,0.36894 -0.599526,0.46117 -0.276704,0.0922 -0.507291,0.18447 -0.830112,0.18447 h -0.599526 c -0.184469,0 -0.322822,-0.0922 -0.461174,-0.0922 -0.04612,0.13835 -0.138352,0.13835 -0.322821,0.0461 m 5.739859,-0.3771 c -0.04612,0.13835 -0.09224,0.23059 -0.09224,0.50729 -0.184469,0.0461 -0.276704,0.0922 -0.415056,0.0922 h -0.322822 c -0.276704,0 -0.461173,0 -0.599525,-0.0922 -0.138352,-0.0922 -0.276704,-0.18447 -0.368939,-0.32282 -0.09224,-0.13835 -0.138352,-0.55341 -0.138352,-0.83011 v -2.9054 H 68.78094 v -0.41505 h 0.553409 v -0.784 c 0,-0.13835 -0.09224,-0.2767 -0.138352,-0.36894 0.276704,-0.0461 0.645643,-0.18447 0.830112,-0.23058 0,0.46117 0.04612,1.10681 0.04612,1.38352 h 1.199051 v 0.46117 l -0.322822,-0.0461 h -0.876229 v 2.81316 c 0,0.23059 0.04612,0.50729 0.09223,0.64565 0.04612,0.13835 0.138352,0.13835 0.230587,0.23058 0.09224,0.0461 0.184469,0.0461 0.276704,0.0461 h 0.230587 c 0.09224,-0.0922 0.138352,-0.13835 0.368939,-0.18447 M 44.51252,243.02864 c 0,0.18447 -0.09224,0.36894 -0.09224,0.64564 -0.276704,0.0922 -0.69176,0.23059 -0.922347,0.2767 h -0.599526 c -0.368939,0 -0.69176,-0.0922 -1.014582,-0.18447 -0.276704,-0.0922 -0.553408,-0.2767 -0.783995,-0.50729 -0.230587,-0.23058 -0.415056,-0.50729 -0.507291,-0.78399 -0.09223,-0.32282 -0.138352,-0.59953 -0.138352,-0.92235 0,-0.46117 0.04612,-0.64564 0.18447,-1.0607 0.138352,-0.41505 0.461173,-0.69176 0.783995,-0.92235 0.322821,-0.23058 0.69176,-0.32282 1.199051,-0.32282 0.276704,0 0.553408,0 0.783995,0.0922 0.230587,0.0922 0.415057,0.18447 0.599526,0.32282 0.138352,0.18447 0.276704,0.36894 0.415056,0.59953 0.09224,0.2767 0.138352,0.2767 0.138352,0.5534 0.04612,0.13836 0.04612,0.36894 0.04612,0.46118 h -3.366568 v 0.32282 c 0,0.32282 0.04612,0.64564 0.18447,0.92235 0.138352,0.2767 0.322821,0.46117 0.553408,0.59952 0.276704,0.13835 0.553408,0.27671 0.87623,0.27671 0.461174,0.0461 1.106817,-0.0922 1.660225,-0.36894 m -3.089863,-2.21364 h 2.44422 v -0.2767 c 0,-0.0922 -0.04612,-0.18447 -0.138352,-0.32282 -0.04612,-0.13835 -0.138352,-0.18447 -0.276704,-0.27671 -0.09224,-0.0922 -0.18447,-0.13835 -0.322822,-0.23058 -0.138352,-0.0461 -0.322821,-0.0461 -0.461174,-0.0461 -0.138352,0 -0.276704,0.0461 -0.415056,0.0922 -0.138352,0.0461 -0.276704,0.13836 -0.368939,0.23059 -0.138352,0.0922 -0.184469,0.18447 -0.276704,0.27671 -0.09224,0.13835 -0.138352,0.23058 -0.138352,0.36893 v 0.0461 c -0.04612,0 -0.04612,0 -0.04612,0.13835 m -3.79117,3.16674 c 0,-0.0922 0.09224,-0.23058 0.09224,-0.2767 0,-1.47576 0,-2.62869 -0.04612,-3.55104 v -0.41505 l -0.138352,-0.32282 c 0.138352,0 0.322822,-0.0461 0.415056,-0.0461 0.09224,0 0.368939,-0.0461 0.461174,-0.0461 v 0.83011 c 0.09224,-0.18447 0.138352,-0.18447 0.184469,-0.2767 0.04612,-0.0922 0.18447,-0.23059 0.276705,-0.2767 0.09223,-0.0461 0.184469,-0.13836 0.322821,-0.18447 0.138352,-0.0461 0.230587,-0.0922 0.368939,-0.0922 h 0.507291 c 0.276704,0.0461 0.415056,0.0922 0.507291,0.13835 0,0.13836 -0.18447,0.64565 -0.18447,0.64565 0,0 -0.230586,0 -0.415056,-0.0922 -0.184469,-0.0461 -0.276704,-0.0461 -0.415056,-0.0461 -0.138352,0 -0.368939,0.0461 -0.507291,0.0922 -0.138352,0.0461 -0.276704,0.13835 -0.368939,0.2767 -0.09224,0.13835 -0.138352,0.27671 -0.230587,0.41506 -0.04612,0.13835 -0.04612,0 -0.04612,0.23059 v 2.81316 l 0.09224,0.2767 h -0.461174 c -0.04612,-0.13835 -0.276704,-0.0922 -0.415056,-0.0922 m -6.927105,0.0318 0.138352,-0.46118 v -5.5802 c 0,-0.18447 -0.09223,-0.32282 -0.184469,-0.64564 h 2.951511 c 0.507291,0.0461 0.645643,0.0461 0.968465,0.13835 0.276704,0.0461 0.737878,0.32282 0.968464,0.50729 0.230587,0.13835 0.461174,0.32282 0.645643,0.59953 0.18447,0.2767 0.276705,0.32282 0.368939,0.64564 0.138352,0.41506 0.276704,0.83011 0.276704,1.24517 0.04612,0.55341 0,0.96846 -0.184469,1.47575 -0.184469,0.5073 -0.507291,0.87623 -0.87623,1.19906 -0.322821,0.36893 -0.69176,0.5534 -1.152934,0.64564 -0.415056,0.0922 -0.922347,0.18447 -1.475755,0.18447 h -1.291287 l -1.152934,0.0461 z m 1.152934,-0.55341 h 1.014582 c 0.276705,0 0.553409,0 0.830113,-0.0461 0.276704,-0.0461 0.507291,-0.13835 0.69176,-0.23059 0.230587,-0.0922 0.415057,-0.18447 0.645643,-0.41505 0.230587,-0.18447 0.368939,-0.41506 0.507291,-0.64565 0.138352,-0.2767 0.230587,-0.50729 0.276705,-0.83011 0.04612,-0.32282 0.09223,-0.64564 0.09223,-0.92235 0,-0.36894 -0.138352,-0.64564 -0.230587,-0.92234 -0.09223,-0.32282 -0.276704,-0.69176 -0.507291,-0.92235 -0.276704,-0.23059 -0.461173,-0.36894 -0.783995,-0.46117 -0.276704,-0.0922 -0.69176,-0.18447 -1.152934,-0.18447 -0.276704,0 -0.69176,0 -0.830112,0.0461 -0.18447,0 -0.368939,0.0461 -0.599526,0.0461 l 0.04612,5.48797 z"
     id="path138"
     inkscape:connector-curvature="0" />
  <path
     d="m 51.93308,227.7939 c 0,-0.78399 -0.368939,-0.69176 -0.645643,-0.73787 -0.276704,-0.0461 -0.922347,0.0922 -1.521873,-0.0461 -0.69176,-0.13835 -1.060699,-1.10682 -0.968464,-1.56799 0.368938,-1.3374 1.245168,-1.52187 1.844694,-1.47576 0.461174,0 1.337404,0.0461 2.44422,1.01459 0.507291,0.41505 0.783995,1.56799 0.783995,2.21363 0,0.78399 0,1.70634 -0.507291,2.21363 -0.783995,0.83012 -2.767041,1.52188 -3.919975,1.47576 -4.473384,-0.46118 -4.288915,-4.65786 -4.288915,-4.65786 0,0 -0.368939,-1.79857 1.152934,-3.7355 0.138352,-0.13835 0.322822,-0.50729 0.461174,-0.69176 0.138352,-0.18447 0.276704,-0.23059 0.461173,-0.36894 0.18447,-0.13835 0.368939,-0.23059 0.553409,-0.36894 0.507291,-0.2767 1.014582,-0.55341 1.521873,-0.73788 0.783995,-0.23058 1.521872,-0.2767 2.121398,-0.2767 1.844695,0.0461 3.827741,1.0607 4.842323,2.62869 0.138352,0.23058 0.276704,0.36894 0.415056,0.55341 0.276705,0.18447 0.415057,0.5534 0.599526,1.01458 0.230587,0.64564 0.138352,0.41505 0.415056,1.42964 0.18447,0.73787 0.276705,1.19905 0.276705,1.66022 0,0.23059 0.04612,0.46117 0.04612,0.69176 0,0.784 0.138352,1.01458 -0.04612,1.61411 -0.276705,1.0607 -0.922348,2.1214 -1.475756,2.62869 -0.968465,0.96846 -1.890812,1.24517 -2.398103,1.52187 -0.507291,0.27671 -0.737878,0.32282 -1.429638,0.55341 -0.69176,0.2767 -1.060699,0.2767 -2.259751,0.2767 -1.199051,0 -2.167516,-0.0922 -2.490337,-0.13835 -2.121399,-0.59952 -2.905394,-0.96846 -3.827741,-1.75246 -2.398103,-1.89081 -2.905394,-5.5802 -2.905394,-5.5802 0,0 -0.276704,-1.89081 0.138352,-3.82774 0.230587,-1.0607 1.291286,-2.95151 1.890812,-3.68939 0.507291,-0.64564 1.706342,-1.56799 2.398103,-2.02916 0.69176,-0.46118 1.706342,-1.0607 2.859276,-1.38352 0.553408,-0.18447 1.014582,-0.27671 2.305868,-0.32282 1.475756,-0.0461 3.689389,0.32282 4.980675,0.73787 1.337404,0.41506 2.582572,1.29129 3.228215,1.98305 0.645644,0.69176 2.075282,2.81316 2.305869,3.22822 0.276704,0.41505 0.922347,2.72092 1.014581,3.04374 0.04612,0.27671 0.18447,1.3374 1.199052,1.29129 0.922347,-0.0922 0.645643,-1.15294 0.645643,-1.33741 -0.04612,-0.18447 -0.368939,-1.98304 -0.507291,-2.49033 -0.138352,-0.50729 -0.87623,-1.79858 -1.060699,-2.02917 -0.09224,-0.13835 -0.737878,-1.24517 -1.383521,-2.07528 -0.507291,-0.64564 -0.968465,-1.24517 -1.475756,-1.56799 -1.014582,-0.64564 -2.25975,-1.19905 -2.25975,-1.19905 0,0 -2.167516,-0.73788 -3.320451,-0.87623 -0.968464,-0.13835 -2.029163,-0.32282 -3.781623,-0.23059 -1.75246,0.13835 -2.720924,0.59953 -3.366568,0.83012 -0.645643,0.2767 -2.075281,0.92234 -3.182097,1.79857 -1.0607,0.87623 -0.737878,0.46118 -1.337404,1.10682 -0.553408,0.64564 -0.737878,0.83011 -1.152934,1.38352 -0.415056,0.55341 -1.245169,2.21363 -1.56799,3.32045 -0.138352,0.46117 -0.322822,1.15293 -0.415057,1.79858 -0.09223,0.55341 -0.09223,1.10681 -0.04612,1.56799 0.09224,0.96846 0.04612,0.96846 0.04612,0.96846 0,0 0.461174,1.8447 0.691761,2.62869 0.276704,0.73788 0.599526,1.79858 2.121398,3.50492 1.521873,1.66023 2.905394,2.1214 3.458803,2.35199 0.507291,0.18447 2.305868,0.83011 4.657853,0.87623 2.720924,0.0461 3.458802,-0.55341 3.919976,-0.73788 0.507291,-0.23059 2.167516,-0.92235 3.504919,-2.16752 1.337404,-1.24517 1.75246,-2.62869 1.798577,-2.72092 0.368939,-1.0607 0.507291,-2.76704 0.138353,-4.38115 -0.230587,-1.10682 -0.415057,-2.07528 -0.645644,-2.76704 -0.415056,-1.19905 -0.876229,-1.8447 -1.199051,-2.35199 -0.322821,-0.50729 -1.291286,-1.24517 -1.890812,-1.61411 -0.276704,-0.18447 -0.553408,-0.36893 -0.968464,-0.5534 -0.415057,-0.18447 -0.922348,-0.27671 -1.521873,-0.41506 -0.553409,-0.13835 -1.337404,-0.2767 -1.936929,-0.32282 -0.553409,-0.0461 -1.014582,0 -1.199052,0 -0.276704,0 -1.199051,0.13835 -2.490337,0.83011 -0.691761,0.36894 -1.475756,0.83011 -2.305868,1.66023 -0.276705,0.2767 -0.507291,0.59952 -0.691761,0.87623 -1.844694,2.53645 -1.199051,5.39573 -1.199051,5.39573 0,0 0.322821,3.82774 3.689389,4.93455 1.199051,0.36894 2.25975,0.41506 3.13598,0.27671 1.475756,-0.18447 2.536455,-0.784 3.274333,-1.19905 0.737878,-0.36894 1.291286,-1.01458 1.56799,-1.70635 0.276704,-0.64564 0.368939,-1.29128 0.322822,-1.84469 0,-0.32282 0,-0.73788 -0.09224,-1.19905 -0.09223,-1.19905 -0.461174,-2.25975 -1.429638,-3.08986 l -0.276704,-0.18447 c -0.18447,-0.13836 -0.322822,-0.18447 -0.461174,-0.27671 -0.830113,-0.41505 -1.614108,-0.59952 -2.767042,-0.64564 -0.415056,0 -1.014582,0.0922 -1.337403,0.2767 -1.337404,0.64565 -2.075281,1.8447 -1.983047,3.36657 0.04612,1.42964 1.429638,2.21363 1.660225,2.44422 -0.04612,0 2.951511,0.73788 3.043746,-0.59953"
     id="path140"
     inkscape:connector-curvature="0"
     style="fill:#ee5507" />
  <path
     d="m 40.639584,352.48847 h 18.585297 l 9.684646,-20.93728 c -6.087492,1.56799 -12.405571,2.35198 -18.954236,2.35198 -6.548665,0 -12.912861,-0.83011 -18.954236,-2.35198 l 9.638529,20.93728"
     id="path142"
     inkscape:connector-curvature="0"
     style="fill:#c1c3c2" />
  <path
     d="m -41.497236,351.1293 c 0.09224,0.0461 0.18447,0.0461 0.322822,0.0461 0.507291,0 0.830112,-0.23059 0.830112,-0.69176 0,-0.41506 -0.322821,-0.64565 -0.783995,-0.64565 -0.184469,0 -0.322821,0 -0.415056,0.0461 v 1.24517 z m -0.415056,-1.56799 c 0.18447,-0.0461 0.461174,-0.0461 0.783995,-0.0461 0.415057,0 0.691761,0.0922 0.922348,0.27671 0.184469,0.13835 0.276704,0.36894 0.276704,0.69176 0,0.2767 -0.09223,0.50729 -0.230587,0.69176 -0.230587,0.23058 -0.599526,0.36894 -0.968465,0.36894 -0.138352,0 -0.230587,0 -0.322821,-0.0461 v 1.29129 h -0.461174 v -3.22822 z m 2.787749,1.58316 c 0,0.69176 0.368938,1.29129 1.014581,1.29129 0.645644,0 1.014582,-0.59953 1.014582,-1.3374 0,-0.64565 -0.322821,-1.33741 -1.014582,-1.33741 -0.645643,0.0461 -1.014581,0.69176 -1.014581,1.38352 m 2.536454,-0.0461 c 0,1.10681 -0.69176,1.70634 -1.521873,1.70634 -0.876229,0 -1.475755,-0.64564 -1.475755,-1.66023 0,-1.01458 0.645643,-1.70634 1.521873,-1.70634 0.87623,0.0461 1.475755,0.69176 1.475755,1.66023 m 1.065219,1.67401 -0.830112,-3.22822 h 0.461173 l 0.368939,1.61411 c 0.09223,0.41506 0.18447,0.784 0.230587,1.10682 0.04612,-0.32282 0.138352,-0.69176 0.276704,-1.10682 l 0.415056,-1.61411 h 0.415057 l 0.415056,1.66023 c 0.09223,0.36894 0.184469,0.78399 0.230587,1.10682 0.04612,-0.36894 0.138352,-0.69176 0.276704,-1.10682 l 0.415056,-1.61411 h 0.415056 l -0.922347,3.22822 h -0.415056 l -0.415056,-1.70635 c -0.09224,-0.41505 -0.18447,-0.73787 -0.230587,-1.06069 -0.04612,0.32282 -0.138352,0.64564 -0.230587,1.06069 l -0.461174,1.70635 h -0.415056 z m 5.179764,-1.5542 h -1.245169 v 1.15293 h 1.383521 v 0.36894 h -1.798577 v -3.22821 h 1.75246 v 0.36894 h -1.337404 v 1.01458 h 1.245169 z m 1.113965,-0.16164 h 0.415056 c 0.461174,0 0.737878,-0.23059 0.737878,-0.59953 0,-0.41505 -0.322822,-0.59952 -0.737878,-0.59952 -0.184469,0 -0.322821,0 -0.415056,0.0461 v 1.15294 z m -0.415056,-1.47576 c 0.230586,-0.0461 0.507291,-0.0461 0.783995,-0.0461 0.461173,0 0.737877,0.0922 0.922347,0.27671 0.184469,0.13835 0.276704,0.36894 0.276704,0.59952 0,0.41506 -0.276704,0.69176 -0.599526,0.83012 0.230587,0.0922 0.415057,0.32282 0.461174,0.64564 0.09224,0.46117 0.184469,0.78399 0.230587,0.87623 h -0.415056 c -0.04612,-0.0922 -0.138353,-0.36894 -0.230587,-0.784 -0.09223,-0.46117 -0.276704,-0.59952 -0.645643,-0.64564 h -0.415057 v 1.38352 h -0.415056 l 0.04612,-3.13598 z m 158.816017,1.56218 c 0,0.73788 0.41506,1.42964 1.15293,1.42964 0.73788,0 1.15294,-0.69176 1.15294,-1.47576 0,-0.69176 -0.36894,-1.42963 -1.15294,-1.42963 -0.78399,0 -1.15293,0.69176 -1.15293,1.47575 m 2.76704,-0.0461 c 0,1.24517 -0.73788,1.89082 -1.66022,1.89082 -0.92235,0 -1.61411,-0.73788 -1.61411,-1.79858 0,-1.10682 0.69176,-1.8447 1.66022,-1.8447 0.96847,-0.0461 1.61411,0.69176 1.61411,1.75246 m 1.0209,0.034 c 0.0922,0.0461 0.23059,0.0461 0.36894,0.0461 0.55341,0 0.87623,-0.2767 0.87623,-0.73788 0,-0.46117 -0.32282,-0.69176 -0.83011,-0.69176 -0.18447,0 -0.36894,0 -0.41506,0.0461 v 1.3374 z m -0.41505,-1.70634 c 0.23058,-0.0461 0.50729,-0.0922 0.87623,-0.0922 0.46117,0 0.78399,0.0922 1.01458,0.2767 0.18447,0.18447 0.32282,0.41506 0.32282,0.73788 0,0.32282 -0.0922,0.55341 -0.2767,0.73788 -0.23059,0.2767 -0.64565,0.36893 -1.10682,0.36893 -0.13835,0 -0.27671,0 -0.36894,-0.0461 v 1.42963 h -0.46117 v -3.41268 z m 4.63894,1.83187 h -1.38352 v 1.29129 h 1.52187 v 0.36894 h -1.98304 v -3.55104 h 1.93693 v 0.36894 h -1.47576 v 1.10682 h 1.38352 z m 0.74281,1.66516 v -3.55103 h 0.5073 l 1.15293,1.79857 c 0.2767,0.41506 0.46117,0.784 0.64564,1.15294 -0.0461,-0.46118 -0.0461,-0.92235 -0.0461,-1.47576 v -1.47575 h 0.41506 v 3.55103 h -0.46117 l -1.10682,-1.79857 c -0.23059,-0.41506 -0.50729,-0.784 -0.64564,-1.19906 0.0461,0.46118 0.0461,0.87623 0.0461,1.47576 v 1.52187 z"
     id="path144"
     inkscape:connector-curvature="0"
     style="fill:#8c8c8c" />
</svg>
