<?xml version="1.0" encoding="UTF-8" standalone="no"?>
<svg
   xmlns:dc="http://purl.org/dc/elements/1.1/"
   xmlns:cc="http://creativecommons.org/ns#"
   xmlns:rdf="http://www.w3.org/1999/02/22-rdf-syntax-ns#"
   xmlns:svg="http://www.w3.org/2000/svg"
   xmlns="http://www.w3.org/2000/svg"
   xmlns:sodipodi="http://sodipodi.sourceforge.net/DTD/sodipodi-0.dtd"
   xmlns:inkscape="http://www.inkscape.org/namespaces/inkscape"
   viewBox="-119 220 210.11656 199.99999"
   version="1.1"
   id="svg70"
   sodipodi:docname="controller.svg"
   width="210.11656"
   height="200"
   inkscape:version="0.92.4 5da689c313, 2019-01-14">
  <metadata
     id="metadata76">
    <rdf:RDF>
      <cc:Work
         rdf:about="">
        <dc:format>image/svg+xml</dc:format>
        <dc:type
           rdf:resource="http://purl.org/dc/dcmitype/StillImage" />
      </cc:Work>
    </rdf:RDF>
  </metadata>
  <defs
     id="defs74" />
  <sodipodi:namedview
     pagecolor="#ffffff"
     bordercolor="#666666"
     borderopacity="1"
     objecttolerance="10"
     gridtolerance="10"
     guidetolerance="10"
     inkscape:pageopacity="0"
     inkscape:pageshadow="2"
     inkscape:window-width="471"
     inkscape:window-height="442"
     id="namedview72"
     showgrid="false"
     inkscape:zoom="1.1799999"
     inkscape:cx="105.05828"
     inkscape:cy="99.999989"
     inkscape:window-x="0"
     inkscape:window-y="0"
     inkscape:window-maximized="0"
     inkscape:current-layer="svg70">
    <inkscape:grid
       type="xygrid"
       id="grid78"
       originx="-4.2632564e-14"
       originy="-1.8886511e-05" />
  </sodipodi:namedview>
  <path
     d="m -51.068703,279.83888 c -0.05651,0 -0.226057,-0.11303 -0.508628,-0.28257 -0.282571,-0.16954 -0.734685,-0.3956 -1.299827,-0.67817 -0.3956,-0.16954 -0.7912,-0.3956 -1.243314,-0.67817 -0.169542,-0.0565 -0.339085,-0.16954 -0.508628,-0.28257 -0.621656,-0.33909 -1.299827,-0.67817 -2.091027,-1.07377 -0.169542,-0.0565 -0.282571,-0.16955 -0.452114,-0.22606 -0.05651,-0.0565 -0.169542,-0.0565 -0.226057,-0.11303 -0.282571,-0.16954 -0.621656,-0.28257 -0.904227,-0.45211 -0.226057,-0.11303 -0.452114,-0.22606 -0.734686,-0.33909 -0.339085,-0.16954 -0.734685,-0.33908 -1.130284,-0.56514 -0.113029,-0.0565 -0.282572,-0.11303 -0.3956,-0.16954 -0.621657,-0.33909 -1.299827,-0.62166 -2.034513,-0.96074 -0.282571,-0.11303 -0.565142,-0.28258 -0.847713,-0.3956 h -0.05651 c -0.3956,-0.22606 -0.847714,-0.3956 -1.299828,-0.62166 -0.339085,-0.16954 -0.621657,-0.28257 -0.960742,-0.45211 -1.186799,-0.56515 -2.486627,-1.1868 -3.786454,-1.75195 -0.169543,-0.11302 -0.3956,-0.16954 -0.621657,-0.28257 -0.452114,-0.22605 -0.960742,-0.45211 -1.46937,-0.67817 -0.226057,-0.11303 -0.3956,-0.16954 -0.621657,-0.28257 -0.339085,-0.11303 -0.621656,-0.28257 -0.960742,-0.3956 -0.395599,-0.16954 -0.791199,-0.33908 -1.243313,-0.50863 -0.339085,-0.11303 -0.621656,-0.28257 -0.960742,-0.3956 -2.995255,-1.29982 -6.103538,-2.59965 -9.324849,-3.84297 -0.339086,-0.11302 -0.734685,-0.28257 -1.073771,-0.39559 -0.282571,-0.11303 -0.621657,-0.22606 -0.904228,-0.33909 -0.452114,-0.16954 -0.960742,-0.33909 -1.412856,-0.50863 -0.565142,-0.22606 -1.130285,-0.3956 -1.695427,-0.62165 -0.508628,-0.16955 -1.017256,-0.3956 -1.525884,-0.56515 -0.113029,-0.0565 -0.226057,-0.11303 -0.339086,-0.11303 -1.186799,-0.3956 -2.373598,-0.84771 -3.560397,-1.24331 -0.226057,-0.0565 -0.3956,-0.16954 -0.621657,-0.22606 -7.798969,-2.59965 -15.710969,-4.63416 -23.057819,-5.65142 -0.0565,-0.28257 -0.0565,-0.62166 0,-0.96074 0.56515,-2.3736 2.03452,-4.12554 3.84297,-5.65143 6.3296,-5.14279 13.73296,-8.25107 21.249362,-11.1333 10.059535,-3.84297 20.458155,-6.7252 30.913289,-9.21182 5.764452,-1.35634 11.585419,-2.54314 17.4629,-3.61691 4.125539,-0.73469 8.251079,-1.41286 12.376618,-1.92149 3.447369,-0.3956 6.951252,-0.90423 10.39862,-1.1868 4.690682,-0.3956 9.32485,-0.73468 14.0155317,-0.90422 2.5431407,-0.11303 5.1427957,-0.22606 7.6859365,-0.11303 4.1820537,0.16954 8.3641074,0.3956 12.5461608,0.7912 2.712684,0.22605 5.481882,0.45211 8.194565,0.73468 3.277826,0.33909 6.499138,0.84772 9.720449,1.41286 4.12554,0.73468 8.194565,1.80845 12.094047,3.33434 2.882227,1.13028 5.59491,2.71268 8.138051,4.46462 0.621656,0.45212 0.904228,1.13029 1.130285,1.80846 1.356341,3.84297 2.260569,7.85548 3.221311,11.81147 0.904228,3.72994 1.751942,7.45988 2.599655,11.18982 0.05651,0.33909 0.169543,0.84772 0.169543,1.1868 h -0.05651 c -0.678171,-0.45211 -1.412856,-0.90423 -2.147541,-1.41285 -2.882227,-1.80846 -5.933995,-3.44737 -9.098793,-4.86023 -9.607421,-4.35159 -20.288612,-6.72519 -31.478431,-6.72519 -8.4206218,0 -16.502158,1.35634 -24.075066,3.84297 -0.226057,0.0565 -0.3956,0.11302 -0.621657,0.22605 -11.076791,3.72994 -21.136325,10.00302 -29.33089,18.14107 -4.238568,4.18206 -7.968508,8.81622 -11.076791,13.84599 m 40.51952,140.0745 c -3.72994,-0.0565 -7.403365,-0.3956 -11.133305,-0.7912 -2.93874,-0.28257 -5.877481,-0.56514 -8.816221,-0.96074 -3.164798,-0.3956 -6.273081,-0.84771 -9.381364,-1.35634 -5.029767,-0.84772 -10.059535,-1.69543 -15.089302,-2.7692 -6.329595,-1.35634 -12.602675,-2.82571 -18.819242,-4.52114 -4.295082,-1.1868 -8.53365,-2.43011 -12.772218,-3.84297 -4.860224,-1.63891 -9.60742,-3.33434 -14.298103,-5.48188 -3.89948,-1.80845 -7.79896,-3.61691 -11.35936,-6.10354 -2.43011,-1.69542 -4.7472,-3.56039 -6.16005,-6.27308 -0.28257,-0.56514 -0.56515,-1.1868 -0.50863,-1.86497 -0.0565,-0.11303 -0.0565,-0.16954 -0.11303,-0.28257 0.3956,-0.0565 0.84771,-0.11303 1.24331,-0.16954 0.45212,-0.0565 0.90423,-0.11303 1.35635,-0.22606 0.62165,-0.11303 1.24331,-0.16954 1.80845,-0.28257 h 0.16954 c 0.3956,-0.0565 0.84772,-0.16954 1.24332,-0.22606 0.3956,-0.0565 0.7912,-0.16954 1.1868,-0.22605 26.109574,-5.19931 55.77955,-20.34513 60.300689,-22.71873 l 0.565142,-0.28257 c 7.290337,11.58542 17.575929,21.07981 29.839519,27.40941 4.634167,2.43011 9.60742,4.35159 14.7502161,5.76445 h 0.056514 c 6.49913748,1.80846 13.3938747,2.7692 20.4581549,2.7692 1.46937,0 2.882226,-0.0565 4.295082,-0.11303 h 0.226057 c 2.656169,-0.16954 5.312339,-0.45212 7.911994,-0.90423 11.302847,-1.80845 21.588439,-5.99051 30.517689,-11.98102 -0.113029,0.28257 -0.339086,0.62166 -0.565143,0.84772 -0.282571,2.59965 -1.017256,5.14279 -1.582398,7.74245 -0.960742,4.23856 -2.204056,8.47713 -3.164798,12.7157 -0.678171,2.88223 -2.656169,4.23857 -4.973253,5.59491 -4.916739,2.88223 -10.285591,4.40811 -15.767472,5.5384 -4.351597,0.90422 -8.816222,1.46937 -13.224332,1.92148 -3.164798,0.33909 -6.329595,0.3956 -9.494393,0.73468 -6.2730805,0.62166 -12.4896468,0.3956 -18.706213,0.33909"
     id="path2"
     inkscape:connector-curvature="0"
     style="fill:#dedfde" />
  <path
     d="M 14.878721,357.23027 C 6.7971847,357.06073 -0.4366379,354.40456 -6.7097185,349.31828 -13.095828,344.232 -17.39091,337.67635 -19.25588,329.70784 -21.855535,318.74408 -19.877536,308.515 -13.152342,299.41621 -7.5009178,291.78678 0.12850448,287.0961 9.5663824,285.34416 11.93998,284.89205 14.370093,284.7225 16.800205,284.7225 h 64.087147 c 0,0.0565 0.05651,0.11303 0.05651,0.11303 0.226057,0.45212 0.508628,0.90423 0.734685,1.35634 H 16.517629 c -5.990509,0 -11.6984477,1.24332 -17.01078615,4.12554 -5.99050935,3.22132 -10.62467685,7.85548 -13.95901685,13.78948 -3.447369,6.16005 -4.803711,12.77222 -4.238568,19.77998 0.621656,7.62942 3.503883,14.35462 8.590164,20.06256 5.3123387,5.99051 11.9245047,9.66393 19.7234697,11.1333 1.7519413,0.33909 3.5038833,0.56514 5.2558243,0.50863 3.277826,-0.0565 6.612166,0.11303 9.889992,-0.0565 4.916739,-0.22606 9.833477,0 14.750216,-0.22606 4.803711,-0.22606 9.663935,0 14.467645,-0.22606 4.973254,-0.22606 10.003021,0 14.976274,-0.22606 3.33434,-0.16954 9.155307,-0.0565 12.602675,-0.16954 -0.282571,0.50863 -0.508628,1.01726 -0.791199,1.52589 h -1.86497 c -2.656169,0 -5.312338,-0.11303 -7.968508,0.0565 -5.086281,0.28257 -10.172563,0 -15.20233,0.22606 -4.747196,0.22605 -9.494392,0 -14.241588,0.22605 -4.973253,0.22606 -10.003021,0 -14.976274,0.22606 -3.842968,0.33909 -7.742451,0.33909 -11.641933,0.28257 m -133.771976,28.44385 c 0,0 -0.0565,0 0,0 -0.16954,-0.56515 0,-0.96075 0.67817,-1.35635 3.67342,-2.14754 7.68594,-3.50388 11.75496,-4.80371 5.02977,-1.63891 10.116057,-3.05177 15.258852,-4.01251 1.808456,-0.33908 2.430113,-1.24331 2.882227,-2.82571 1.525884,-6.04702 2.882226,-12.15056 3.842968,-18.31061 0.678171,-4.18206 1.243313,-8.42062 1.582399,-12.65919 0.339085,-3.67343 0.678171,-7.34685 0.904227,-11.02028 0.226057,-3.61691 0.339086,-7.23382 0.339086,-10.85073 0,-4.01251 -0.169543,-8.02503 -0.452114,-12.03754 -0.339085,-4.57765 -0.734685,-9.1553 -1.299828,-13.67644 -0.960742,-7.57291 -2.147541,-15.03279 -4.012511,-22.43616 -0.452113,-1.86497 -1.017256,-3.67342 -1.356341,-5.53839 0,-0.11303 -0.05651,-0.22606 -0.113029,-0.33909 l -4.860224,-1.80845 c -5.707938,-1.29983 -11.415882,-2.7692 -16.954282,-4.69068 -2.3736,-0.84772 -4.74719,-1.80846 -6.89473,-3.10829 -0.67818,-0.3956 -1.13029,-0.90422 -1.24332,-1.52588 7.34685,0.96074 15.25885,3.05177 23.057819,5.65142 0.226057,0.0565 0.3956,0.11303 0.621657,0.22606 1.186799,0.3956 2.373598,0.7912 3.560397,1.24331 0.113028,0.0565 0.226057,0.11303 0.339085,0.11303 0.508628,0.16954 1.017257,0.33909 1.525885,0.56514 0.565142,0.22606 1.130284,0.3956 1.695427,0.62166 0.452114,0.16954 0.960742,0.33909 1.412856,0.50863 0.282571,0.11303 0.621656,0.22606 0.904228,0.33908 0.339085,0.11303 0.734685,0.28258 1.07377,0.3956 3.221312,1.24332 6.386109,2.54314 9.381364,3.84297 0.339085,0.11303 0.621657,0.28257 0.960742,0.3956 0.3956,0.16954 0.791199,0.33909 1.243313,0.50863 0.339086,0.16954 0.621657,0.28257 0.960742,0.3956 0.226057,0.11303 0.452114,0.16954 0.621657,0.28257 0.508628,0.22606 0.960742,0.45211 1.46937,0.67817 0.226057,0.11303 0.3956,0.16954 0.621657,0.28257 0.678171,0.28257 1.299827,0.62166 1.921484,0.90423 0.169543,0.0565 0.339085,0.16954 0.452114,0.22606 0.339085,0.16954 0.621656,0.28257 0.904228,0.45211 0.169542,0.0565 0.282571,0.16954 0.452114,0.22606 0.339085,0.16954 0.67817,0.28257 0.960742,0.45211 0.452114,0.22606 0.847713,0.3956 1.299827,0.62166 h 0.05651 c 0.282572,0.11303 0.565143,0.28257 0.847714,0.3956 0.678171,0.33908 1.356342,0.67817 2.034513,0.96074 0.113028,0.0565 0.282571,0.11303 0.395599,0.16954 0.3956,0.16955 0.734685,0.3956 1.130285,0.56515 0.226057,0.11302 0.508628,0.22605 0.734685,0.33908 0.282571,0.16954 0.621657,0.28257 0.904228,0.45212 0.05651,0.0565 0.169543,0.0565 0.226057,0.11302 0.169543,0.0565 0.282571,0.16955 0.452114,0.22606 0.791199,0.3956 1.46937,0.73469 2.091027,1.07377 0.169542,0.11303 0.339085,0.16954 0.508628,0.28257 0.452114,0.22606 0.904228,0.45212 1.243313,0.67817 0.565143,0.28257 0.960742,0.50863 1.299828,0.67817 0.282571,0.16955 0.452114,0.22606 0.508628,0.28258 -0.282571,0.39559 -0.508628,0.79119 -0.734685,1.24331 -1.130285,-0.62166 -17.632443,-9.21182 -34.078087,-15.03279 0,0 6.725195,28.59621 6.725195,53.63201 l -0.05651,-0.11302 c 0,25.09232 -6.725195,55.21441 -6.725195,55.21441 16.445644,-5.76446 32.947802,-14.01553 34.134601,-14.63719 l 0.847713,1.35634 c -0.169542,0.11303 -0.339085,0.16954 -0.565142,0.28257 -6.103538,3.1648 -35.038828,17.68896 -60.300697,22.77524 -0.3956,0.0565 -0.7912,0.16954 -1.1868,0.22606 -0.3956,0.0565 -0.84772,0.16954 -1.24332,0.22605 h -0.16954 c -0.62166,0.11303 -1.24331,0.22606 -1.80845,0.28258 -0.45212,0.0565 -0.90423,0.11302 -1.35635,0.22605 -0.62165,0.0565 -1.01725,0.11303 -1.41285,0.16955"
     id="path4"
     inkscape:connector-curvature="0"
     style="fill:#a7a8a8" />
  <path
     d="m -79.244894,319.55133 0.05651,0.11302 c -0.05651,-25.0358 -6.725194,-53.63201 -6.725194,-53.63201 16.502158,5.82097 32.947801,14.41113 34.078086,15.03279 -0.169543,0.28257 -0.282571,0.50863 -0.452114,0.7912 -4.690682,7.96851 -7.968508,16.89776 -9.494392,26.39215 l 0.791199,0.33908 0.282571,0.11303 c -0.05651,0.28257 -0.05651,0.56514 -0.113028,0.7912 0,0.16954 -0.05651,0.33909 -0.05651,0.50863 v 0.11303 c -0.05651,0.28257 -0.05651,0.56514 -0.113029,0.84771 -0.05651,0.3956 -0.113028,0.73469 -0.113028,1.13029 -0.05651,0.33908 -0.05651,0.67817 -0.113029,1.01725 v 0.16954 c -0.05651,0.33909 -0.05651,0.67818 -0.113028,1.01726 -0.339086,-0.22606 -0.734685,-0.3956 -1.073771,-0.62166 -2.091027,-1.13028 -4.238568,-2.20405 -6.442623,-3.22131 -1.299828,-0.62165 -1.695427,-0.3956 -1.808456,1.01726 -0.169542,3.05177 -0.508628,6.10354 -0.452114,9.21182 -0.05651,3.10828 0.282572,6.21657 0.452114,9.32485 0.05652,1.35634 0.508628,1.5824 1.751942,1.07377 2.260569,-0.90423 4.40811,-1.978 6.555652,-3.10828 0.339085,-0.22606 0.734685,-0.3956 1.07377,-0.62166 l 0.169543,1.86497 c 0,0.22606 0.05651,0.45211 0.05651,0.67817 0.05651,0.56514 0.169543,1.13029 0.226057,1.69543 0,0.16954 0.05651,0.33908 0.05651,0.56514 0,0.0565 0,0.11303 0.05651,0.22606 l -0.339085,0.16954 -0.734685,0.33909 c 1.525884,9.49439 4.747196,18.36712 9.324849,26.33563 0.226057,0.33909 0.3956,0.73469 0.621657,1.07377 -1.243313,0.62166 -17.745471,8.81622 -34.1346,14.63719 0,-0.16954 6.725194,-30.23512 6.725194,-55.38395"
     id="path6"
     inkscape:connector-curvature="0"
     style="fill:#e4e5e4" />
  <path
     d="m 14.087635,397.47689 c -7.0642803,0 -13.9590175,-0.96074 -20.458155,-2.7692 h -0.056514 c -5.142796,-1.41286 -10.116049,-3.39085 -14.750217,-5.76445 -12.207075,-6.3296 -22.492667,-15.82399 -29.839518,-27.40941 -5.425367,-8.59016 -9.155307,-18.31061 -10.79422,-28.76575 l 0.734685,-0.33908 0.339086,-0.16954 0.508628,3.05177 c 0.05651,0.28257 0.113028,0.62165 0.169543,0.90422 0.05651,0.3956 0.169542,0.73469 0.226057,1.13029 0.05651,0.16954 0.05651,0.33908 0.113028,0.50863 0,0.0565 0.05651,0.11302 0.05651,0.16954 0.05651,0.28257 0.169543,0.62166 0.226057,0.90423 0.05651,0.28257 0.113029,0.50862 0.226057,0.7912 0.05652,0.16954 0.05652,0.28257 0.113029,0.45211 0.05651,0.11303 0.05651,0.28257 0.113028,0.3956 0.113029,0.33908 0.169543,0.67817 0.282571,1.01726 0.05651,0.16954 0.113029,0.3956 0.169543,0.56514 0.05651,0.28257 0.169543,0.50863 0.226057,0.7912 0.05651,0.22605 0.169543,0.45211 0.226057,0.67817 0.113029,0.33908 0.169543,0.62165 0.282571,0.90423 0.05651,0.22605 0.169543,0.45211 0.226057,0.67817 0.169543,0.56514 0.3956,1.07377 0.565143,1.63891 0.113028,0.22606 0.169542,0.50863 0.282571,0.73468 v 0.0565 c 0.113028,0.28257 0.169543,0.50863 0.282571,0.7912 0.113028,0.28257 0.226057,0.56514 0.339085,0.7912 0.05652,0.11303 0.05652,0.16954 0.113029,0.28257 0.05651,0.16954 0.113028,0.28257 0.169543,0.45211 0.113028,0.22606 0.226057,0.50863 0.339085,0.73469 0.113029,0.22606 0.226057,0.45211 0.339086,0.73468 0.226056,0.56515 0.508628,1.13029 0.791199,1.69543 l 0.508628,1.01726 0.508628,1.01725 0.339086,0.67817 0.169542,0.33909 v 0.0565 c 0.05651,0.16955 0.169543,0.28257 0.226057,0.45212 0.7912,1.52588 1.695427,2.99525 2.599655,4.40811 0.05652,0.11303 0.169543,0.22606 0.226057,0.3956 0.169543,0.22605 0.339086,0.50863 0.508628,0.73468 l 0.678171,1.01726 c 0,0.0565 0.05651,0.0565 0.05651,0.11303 0.05651,0.11303 0.169542,0.22605 0.226056,0.33908 0.05651,0.11303 0.169543,0.22606 0.226057,0.33909 0.113029,0.22606 0.282572,0.3956 0.452114,0.62166 l 0.847714,1.18679 c 0.113028,0.16955 0.226057,0.28258 0.339085,0.45212 l 0.05651,0.0565 c 0.05651,0.11303 0.169542,0.22606 0.226057,0.28257 0.113028,0.11303 0.169542,0.22606 0.282571,0.33909 0.282571,0.3956 0.621656,0.7912 0.904228,1.13028 0.282571,0.3956 0.621656,0.73469 0.904227,1.13029 0.169543,0.16954 0.339086,0.3956 0.452114,0.56514 0.169543,0.16954 0.339086,0.3956 0.508628,0.56514 0.169543,0.16955 0.282572,0.33909 0.452114,0.50863 0.282572,0.28257 0.508629,0.56514 0.7912,0.84772 0.169542,0.16954 0.339085,0.39559 0.508628,0.56514 l 0.339085,0.33908 c 0.452114,0.45212 0.904228,0.96075 1.356342,1.41286 l 0.05651,0.0565 c 5.425367,5.42537 11.641934,10.05954 18.480157,13.61993 4.80371,2.54315 9.946506,4.57766 15.2588443,5.99051 6.32959484,1.69543 12.9982751,2.65617 19.8930117,2.65617 0.960742,0 1.921485,0 2.882227,-0.0565 3.786454,-0.16954 7.459879,-0.56514 11.07679,-1.24331 10.737706,-1.978 20.684212,-6.27308 29.274376,-12.26359 8.590165,-5.99051 15.937016,-13.73296 21.418897,-22.71873 0.734685,-1.1868 1.46937,-2.43011 2.147541,-3.72994 0.282571,-0.50863 0.565143,-1.01725 0.7912,-1.52588 5.255824,-10.28559 8.194564,-21.92753 8.194564,-34.24763 0,-12.32011 -2.93874,-23.96204 -8.194564,-34.24763 -0.226057,-0.45211 -0.452114,-0.90423 -0.734686,-1.35634 0,-0.0565 -0.05651,-0.11303 -0.05651,-0.11303 -0.169543,-0.28257 -0.339085,-0.56514 -0.452114,-0.84771 -0.113028,-0.16955 -0.226057,-0.3956 -0.339085,-0.56515 -0.113029,-0.16954 -0.226057,-0.3956 -0.339086,-0.56514 -0.05651,-0.11303 -0.113028,-0.22606 -0.169542,-0.28257 -0.113029,-0.22606 -0.226057,-0.45211 -0.3956,-0.67817 -0.05651,-0.11303 -0.169543,-0.22606 -0.226057,-0.3956 -0.169543,-0.33909 -0.3956,-0.62166 -0.565142,-0.96074 -0.226057,-0.33909 -0.3956,-0.62166 -0.621657,-0.96074 -0.05651,-0.0565 -0.05651,-0.11303 -0.113028,-0.16955 -0.169543,-0.28257 -0.3956,-0.62165 -0.621657,-0.90423 l -0.678157,-1.01721 c -0.226057,-0.33909 -0.452114,-0.67817 -0.734685,-1.01726 -0.05651,-0.0565 -0.05651,-0.11303 -0.113029,-0.16954 -0.113028,-0.16954 -0.282571,-0.3956 -0.395599,-0.56514 l -0.508628,-0.67817 c -0.113029,-0.16955 -0.282572,-0.33909 -0.3956,-0.50863 -0.169543,-0.16954 -0.282571,-0.3956 -0.452114,-0.56514 -0.282571,-0.3956 -0.621657,-0.7912 -0.904228,-1.13029 -0.169543,-0.16954 -0.339085,-0.3956 -0.452114,-0.56514 -0.169542,-0.16954 -0.339085,-0.3956 -0.452114,-0.56514 -0.508628,-0.56515 -0.960742,-1.13029 -1.46937,-1.69543 -0.169543,-0.16954 -0.339085,-0.33909 -0.452114,-0.50863 -0.621656,-0.67817 -1.299827,-1.35634 -1.921484,-2.03451 l -0.621657,-0.62166 c -0.282571,-0.28257 -0.565142,-0.56514 -0.904227,-0.84771 -0.282572,-0.28257 -0.565143,-0.56514 -0.904228,-0.84772 -0.282571,-0.28257 -0.621657,-0.56514 -0.904228,-0.84771 -0.282571,-0.28257 -0.621657,-0.56514 -0.904228,-0.7912 -0.226057,-0.22606 -0.508628,-0.45211 -0.734685,-0.62166 -0.508628,-0.45211 -1.017256,-0.84771 -1.525884,-1.24331 -0.282572,-0.22606 -0.508629,-0.3956 -0.7912,-0.62166 -4.747196,-3.72994 -10.00302,-6.89473 -15.541416,-9.38136 -9.494392,-4.23857 -20.00604,-6.61217 -31.026317,-6.61217 -5.0297672,0 -9.946506,0.50863 -14.75021636,1.41286 -14.52415964,2.88223 -27.52243464,9.88999 -37.80802564,19.72347 -4.747197,4.57765 -8.872736,9.72045 -12.320105,15.37187 -0.565142,0.90423 -1.07377,1.86497 -1.638913,2.82572 -0.05651,0.16954 -0.169542,0.28257 -0.226056,0.45211 -0.05651,0.16954 -0.169543,0.28257 -0.226057,0.45211 -0.169543,0.33909 -0.339086,0.62166 -0.508629,0.96075 -0.169542,0.33908 -0.339085,0.62165 -0.452114,0.96074 -0.113028,0.28257 -0.282571,0.56514 -0.395599,0.7912 -0.05651,0.11303 -0.113029,0.28257 -0.226057,0.3956 -0.113029,0.16954 -0.169543,0.3956 -0.282571,0.56514 -0.05651,0.11303 -0.05651,0.16954 -0.113029,0.28257 -0.113028,0.22606 -0.169543,0.3956 -0.282571,0.62166 -0.339085,0.73468 -0.621657,1.41285 -0.904228,2.14754 -0.05651,0.16954 -0.169543,0.3956 -0.226057,0.56514 -0.05651,0.22606 -0.169543,0.3956 -0.226057,0.62166 -0.169542,0.45211 -0.339085,0.84771 -0.508628,1.29982 -0.05651,0.11303 -0.113028,0.22606 -0.113028,0.3956 -0.282572,0.73469 -0.508629,1.52589 -0.7912,2.26057 l -0.339085,1.01726 c -0.05651,0.16954 -0.113029,0.3956 -0.169543,0.56514 l -0.169543,0.50863 c -0.113028,0.33909 -0.169542,0.62166 -0.282571,0.96074 0,0.0565 -0.05651,0.16955 -0.05651,0.28257 -0.05651,0.16955 -0.113029,0.3956 -0.169543,0.56515 -0.282571,1.07377 -0.565142,2.20405 -0.791199,3.27782 -0.05651,0.22606 -0.113029,0.3956 -0.113029,0.62166 v 0.11303 c 0,0.11303 -0.05651,0.22605 -0.05651,0.33908 -0.05651,0.16955 -0.05651,0.33909 -0.113028,0.50863 -0.05651,0.22606 -0.113029,0.45211 -0.113029,0.67817 0,0.0565 0,0.11303 -0.05651,0.16954 0,0.16955 -0.05651,0.28258 -0.05651,0.45212 -0.05652,0.22606 -0.113029,0.50863 -0.113029,0.73468 -0.05651,0.28257 -0.113028,0.62166 -0.169542,0.90423 l -0.282572,-0.11303 -0.791199,-0.33908 c 1.638913,-10.28559 5.368853,-19.89302 10.681191,-28.37015 3.164798,-5.02977 6.894737,-9.72045 11.076791,-13.84599 8.194565,-8.13805 18.254099,-14.41113 29.443919,-18.19758 0.226057,-0.0565 0.395599,-0.11303 0.6216564,-0.22606 7.5729081,-2.48663 15.6544443,-3.84297 24.0750656,-3.84297 11.246334,0 21.871011,2.43011 31.478432,6.72519 3.164797,1.41286 6.216566,3.05177 9.098792,4.86023 0.734685,0.45211 1.412856,0.96074 2.147541,1.41286 h 0.05651 c 20.571184,13.78947 34.078087,37.24288 34.078087,63.86109 0,26.6182 -13.506903,50.07161 -34.078087,63.86109 -8.929249,5.99051 -19.214841,10.17256 -30.291632,11.98101 -2.599655,0.45212 -5.255824,0.73469 -7.911993,0.90423 h -0.226057 c -1.638913,-0.0565 -3.051769,-0.0565 -4.521139,-0.0565"
     id="path8"
     inkscape:connector-curvature="0"
     style="fill:#a7a8a8" />
  <path
     d="m 14.946595,355.76147 c -1.808456,0 -3.560398,-0.16955 -5.2558247,-0.50863 -7.798965,-1.52588 -14.4676453,-5.1428 -19.7234693,-11.13331 -5.086282,-5.76445 -8.025022,-12.48964 -8.590165,-20.06255 -0.565142,-6.95125 0.7912,-13.61993 4.238568,-19.77998 3.33434,-5.934 7.9685081,-10.51165 13.95901745,-13.78948 C 4.8870599,287.6053 10.594998,286.36198 16.585507,286.36198 h 65.160918 c 5.255825,10.28559 8.194565,21.92753 8.194565,34.24763 0,12.3201 -2.93874,23.96204 -8.194565,34.24763 -3.447368,0.11303 -9.211821,0 -12.602675,0.16954 -4.973253,0.22606 -10.00302,0 -14.976273,0.22606 -4.803711,0.22606 -9.607421,0 -14.467646,0.22606 -4.916738,0.22605 -9.833477,-0.0565 -14.750216,0.22605 -3.390854,0.16955 -6.66868,0 -10.00302,0.0565"
     id="path10"
     inkscape:connector-curvature="0"
     style="fill:#c1c3c2" />
  <path
     d="m 14.087635,396.35638 c -20.9667832,0 -39.955568,-8.53365 -53.688528,-22.26661 -11.076791,-11.07679 -18.706213,-25.60095 -21.192839,-41.82054 -0.282572,-1.63891 -0.452114,-3.27782 -0.621657,-4.97325 2.712683,-1.5824 5.312338,-3.27783 7.855479,-5.19931 1.412856,-1.07377 1.356342,-1.29983 0,-2.43011 -2.486626,-2.03451 -5.142796,-3.78646 -7.855479,-5.36886 0.169543,-1.86496 0.3956,-3.72993 0.678171,-5.5949 1.582399,-9.83348 5.029767,-19.0453 9.946506,-27.23987 3.447369,-5.65142 7.572908,-10.85073 12.320104,-15.37187 10.229077,-9.88999 23.283867,-16.89776 37.80802616,-19.72347 4.74719614,-0.96074 9.66393494,-1.41286 14.75021684,-1.41286 11.076791,0 21.588439,2.3736 31.026317,6.61217 5.59491,2.48663 10.79422,5.65142 15.541416,9.38136 8.251079,6.44263 15.145816,14.58068 20.119069,23.90553 H 16.68729 c -2.430113,0 -4.860225,0.16954 -7.233823,0.62165 -9.38136373,1.75194 -17.0673003,6.38611 -22.718724,14.07205 -6.725195,9.09879 -8.646679,19.27135 -6.103538,30.29163 1.86497,7.96851 6.160052,14.46765 12.5461611,19.61044 6.27308054,5.08628 13.5069032,7.74245 21.5884389,7.912 3.899483,0.0565 7.798965,0.0565 11.754962,-0.11303 4.973253,-0.22606 10.003021,0 14.976274,-0.22606 4.747196,-0.22606 9.494392,0 14.241588,-0.22606 5.086281,-0.22605 10.116049,0.0565 15.20233,-0.22605 2.65617,-0.16955 5.312339,-0.0565 7.968508,-0.0565 h 1.86497 c -0.678171,1.24331 -1.412856,2.48663 -2.147541,3.72994 -13.167818,21.58844 -37.18637,36.1126 -64.539261,36.1126"
     id="path12"
     inkscape:connector-curvature="0"
     style="fill:#dedfde" />
  <path
     d="m -70.715709,320.58469 c 0.113029,2.65617 0.282572,5.25582 0.3956,7.91199 0.05651,1.63891 0.3956,1.86497 1.921484,1.24331 5.142796,-2.03451 9.776964,-4.86022 14.185074,-8.08153 0.847714,-0.62166 0.7912,-0.84772 0,-1.52589 -4.351596,-3.67342 -9.381363,-6.27308 -14.524159,-8.64667 -1.130285,-0.50863 -1.525885,-0.3956 -1.582399,0.90422 -0.113028,2.71269 -0.226057,5.48188 -0.3956,8.19457 m -0.452113,0.0565 c -0.05652,-3.05177 0.282571,-6.16005 0.452113,-9.21182 0.05652,-1.41285 0.508629,-1.63891 1.808456,-1.01726 5.425367,2.54315 10.737706,5.31234 15.428387,9.21183 1.356342,1.13028 1.412856,1.35634 0,2.43011 -4.80371,3.61691 -9.889991,6.66868 -15.484901,8.92925 -1.243313,0.50863 -1.638913,0.28257 -1.751942,-1.07377 -0.169542,-3.05177 -0.508628,-6.16005 -0.452113,-9.26834"
     id="path14"
     inkscape:connector-curvature="0"
     style="fill:#a7a8a8" />
  <path
     d="m -70.715595,320.58395 c 0.169542,-2.71268 0.226056,-5.48188 0.452113,-8.19456 0.113029,-1.29983 0.452114,-1.41286 1.582399,-0.90423 5.142796,2.3736 10.116049,4.97325 14.52416,8.64668 0.791199,0.67817 0.791199,0.90423 0,1.52588 -4.408111,3.22132 -9.042279,6.10354 -14.185074,8.08154 -1.525885,0.62166 -1.808456,0.3956 -1.921485,-1.24331 -0.169542,-2.59966 -0.282571,-5.25583 -0.452113,-7.912"
     id="path16"
     inkscape:connector-curvature="0"
     style="fill:#c1c3c2" />
  <path
     d="m 49.171279,320.855 c 0,-5.934 -0.113029,-11.86799 0.05651,-17.8585 0.05651,-2.48663 -2.091027,-4.57766 -4.521139,-4.57766 -10.568163,0.11303 -21.19284,0.11303 -31.761003,0 -2.712683,0 -4.5211388,2.26057 -4.5211388,4.57766 0.1130285,11.86799 0.1130285,23.79249 0,35.66048 0,2.48663 1.8084558,4.69068 4.6906818,4.69068 10.511649,-0.0565 21.023297,-0.0565 31.534946,0 2.373598,0 4.634167,-1.978 4.577653,-4.57765 -0.113028,-5.99051 -0.05651,-11.9245 -0.05651,-17.91501 M 29.504323,347.02109 H 11.758852 c -2.7691974,0 -4.3515961,-1.24331 -5.0862812,-3.956 -0.5651424,-2.09103 -1.8084556,-12.09405 -1.7519414,-22.04055 0.056514,-10.39862 1.5258845,-20.74073 1.9214841,-22.26661 0.6781709,-2.43011 2.2605696,-3.72994 4.7471965,-3.72994 h 37.581969 c 2.317084,0 5.029767,10.3421 5.029767,25.88352 0,15.37187 -2.882226,26.10958 -5.029767,26.10958 H 29.504323"
     id="path18"
     inkscape:connector-curvature="0"
     style="fill:#a7a8a8" />
  <path
     d="m 9.5153557,320.878 v 16.95427 c 0,2.65617 1.5823983,4.23857 4.2385683,4.23857 h 30.122089 c 2.712684,0 4.238568,-1.5824 4.238568,-4.29509 V 303.8107 c 0,-2.65617 -1.582399,-4.29509 -4.238568,-4.29509 H 13.753924 c -2.599655,0 -4.2385683,1.69543 -4.2385683,4.29509 v 17.0673 m 39.6729963,-0.0565 c 0,5.99051 -0.113029,11.98102 0.05651,17.97153 0.05651,2.59966 -2.204055,4.57765 -4.577653,4.57765 -10.511649,-0.0565 -21.023297,-0.0565 -31.534946,0 -2.882226,0 -4.6906818,-2.20405 -4.6906818,-4.69068 0.1130285,-11.86799 0.1130285,-23.79249 0,-35.66048 0,-2.31709 1.8084558,-4.57766 4.5211388,-4.57766 10.568163,0.11303 21.19284,0.11303 31.761003,0 2.486626,0 4.577653,2.03452 4.521139,4.57766 -0.169543,5.93399 -0.05651,11.86799 -0.05651,17.80198"
     id="path20"
     inkscape:connector-curvature="0"
     style="fill:#c1c3c2" />
  <path
     d="m 9.5153557,320.878 v -16.95427 c 0,-2.59966 1.6389133,-4.29509 4.2385683,-4.29509 h 30.122089 c 2.656169,0 4.238568,1.63892 4.238568,4.29509 v 33.96505 c 0,2.71269 -1.582399,4.29509 -4.238568,4.29509 H 13.753924 c -2.65617,0 -4.2385683,-1.63892 -4.2385683,-4.23857 V 320.878"
     id="path22"
     inkscape:connector-curvature="0"
     style="fill:#4a4a4c" />
  <path
     d="m 21.850888,380.78083 c 4.690682,0 8.53365,3.78645 8.53365,8.53365 0,4.69068 -3.786454,8.53365 -8.53365,8.53365 -4.747196,0 -8.53365,-3.78645 -8.53365,-8.53365 0,-4.69068 3.786454,-8.53365 8.53365,-8.53365"
     id="path24"
     inkscape:connector-curvature="0"
     style="fill:#6d6d6d" />
  <path
     d="m 21.850888,381.41893 c 4.351597,0 7.911994,3.5604 7.911994,7.912 0,4.35159 -3.560397,7.91199 -7.911994,7.91199 -4.351596,0 -7.911993,-3.5604 -7.911993,-7.91199 0,-4.40811 3.503883,-7.912 7.911993,-7.912"
     id="path26"
     inkscape:connector-curvature="0"
     style="fill:#02aa46" />
  <path
     d="m -12.780755,380.78083 c 4.6906819,0 8.5336502,3.78645 8.5336502,8.53365 0,4.69068 -3.7864541,8.53365 -8.5336502,8.53365 -4.747196,0 -8.53365,-3.78645 -8.53365,-8.53365 0.05651,-4.69068 3.842968,-8.53365 8.53365,-8.53365"
     id="path28"
     inkscape:connector-curvature="0"
     style="fill:#6d6d6d" />
  <path
     d="m -12.780755,381.41893 c 4.3515965,0 7.9119935,3.5604 7.9119935,7.912 0,4.35159 -3.560397,7.91199 -7.9119935,7.91199 -4.351596,0 -7.911993,-3.5604 -7.911993,-7.91199 0,-4.40811 3.560397,-7.912 7.911993,-7.912"
     id="path30"
     inkscape:connector-curvature="0"
     style="fill:#e23434" />
  <path
     d="m 4.4706065,362.79687 c 4.6906819,0 8.5336505,3.78645 8.5336505,8.53365 0,4.69068 -3.7864544,8.53365 -8.5336505,8.53365 -4.7471961,0 -8.5336501,-3.78646 -8.5336501,-8.53365 0.056514,-4.7472 3.84296825,-8.53365 8.5336501,-8.53365"
     id="path32"
     inkscape:connector-curvature="0"
     style="fill:#6d6d6d" />
  <path
     d="m 4.4706065,363.36348 c 4.4081107,0 7.9685075,3.5604 7.9685075,7.96851 0,4.40811 -3.5603968,7.96851 -7.9685075,7.96851 -4.40811065,0 -7.9685077,-3.5604 -7.9685077,-7.96851 0.056514,-4.40811 3.6169113,-7.96851 7.9685077,-7.96851"
     id="path34"
     inkscape:connector-curvature="0"
     style="fill:#f2e825" />
  <path
     d="m 4.4706065,398.2413 c 4.6906819,0 8.5336505,3.78645 8.5336505,8.53365 0,4.69068 -3.7864544,8.53365 -8.5336505,8.53365 -4.7471961,0 -8.5336501,-3.78645 -8.5336501,-8.53365 0.056514,-4.7472 3.84296825,-8.53365 8.5336501,-8.53365"
     id="path36"
     inkscape:connector-curvature="0"
     style="fill:#6d6d6d" />
  <path
     d="m 4.4706065,398.98424 c 4.2950822,0 7.7424505,3.44736 7.7424505,7.74245 0,4.29508 -3.4473683,7.74245 -7.7424505,7.74245 -4.29508217,0 -7.7424508,-3.44737 -7.7424508,-7.74245 0,-4.23857 3.50388287,-7.74245 7.7424508,-7.74245"
     id="path38"
     inkscape:connector-curvature="0"
     style="fill:#3f6c9e" />
  <path
     d="m 22.682716,223.7407 c 12.828732,0 23.170838,10.39862 23.170838,23.17084 0,12.77222 -10.39862,23.17084 -23.170838,23.17084 -12.7722184,0 -23.17083838,-10.39862 -23.17083838,-23.17084 0,-12.77222 10.34210578,-23.17084 23.17083838,-23.17084"
     id="path40"
     inkscape:connector-curvature="0"
     style="fill:#e4e5e4" />
  <path
     d="m 22.682716,230.87291 c 8.872735,0 16.050044,7.17731 16.050044,16.05004 0,8.87274 -7.177309,16.05005 -16.050044,16.05005 -8.872736,0 -16.1065585,-7.17731 -16.1065585,-16.05005 0,-8.87273 7.1773085,-16.05004 16.1065585,-16.05004"
     id="path42"
     inkscape:connector-curvature="0"
     style="fill:#a7a8a8" />
  <path
     d="m 22.682716,233.17445 c 7.572908,0 13.73296,6.16006 13.73296,13.73296 0,7.57291 -6.160052,13.73296 -13.73296,13.73296 -7.572908,0 -13.7329604,-6.16005 -13.7329604,-13.73296 0,-7.5729 6.1035374,-13.73296 13.7329604,-13.73296"
     id="path44"
     inkscape:connector-curvature="0"
     style="fill:#c1c3c2" />
  <path
     d="m 67.888343,337.21197 h -4.408111 c -0.960742,0 -1.808456,-0.7912 -1.808456,-1.80846 v -28.9918 c 0,-0.96074 0.7912,-1.80846 1.808456,-1.80846 h 4.408111 c 0.960742,0 1.808455,0.7912 1.808455,1.80846 v 3.5604 c 0,0.90422 0.734685,1.58239 1.582399,1.58239 h 4.182054 c 5.255824,0 9.720449,4.01251 10.00302,9.26834 0.226057,5.59491 -4.182054,10.17256 -9.720449,10.17256 h -4.464625 c -0.904228,0 -1.582399,0.73469 -1.582399,1.5824 v 2.82571 c -0.05651,0.96074 -0.847713,1.80846 -1.808455,1.80846"
     id="path46"
     inkscape:connector-curvature="0"
     style="fill:#dedfde" />
  <path
     d="m 64.215652,318.47885 c 0,0 -0.05651,-0.11302 -0.113029,-0.11302 0,-0.11303 -0.05651,-0.16955 -0.05651,-0.22606 v -0.22606 c 0,-0.11303 0.05651,-0.22605 0.113029,-0.33908 0.05651,-0.11303 0,-0.11303 0.113028,-0.16955 0.05651,-0.0565 0.226057,-0.16954 0.339085,-0.16954 h 0.226057 c 0.05651,0 0.113029,0.0565 0.169543,0.0565 l 0.169543,0.16954 c 0.05651,0.0565 0.05651,0.16954 0.113028,0.28257 0,0.0565 0.05652,0.16954 0.05652,0.28257 0,0.0565 0,0.22606 0.05651,0.28257 0,0.0565 0,0.11303 0.05651,0.16954 0,0.0565 0.05651,0.11303 0.05651,0.11303 l 0.113029,0.11303 h -0.621657 c 0,0 -0.282571,0 -0.3956,-0.11303 -0.339085,0 -0.395599,-0.11303 -0.395599,-0.11303 m 2.091027,-1.41285 c 0.05651,0.16954 0.113028,0.22606 0.169542,0.33908 0,0.11303 0.05652,0.16955 0.05652,0.33909 0,0.11303 0.05651,0.22606 0.05651,0.33908 0,0.11303 -0.05651,0.28258 -0.05651,0.3956 0,0.11303 -0.113029,0.16955 -0.226057,0.22606 -0.05652,0.0565 -0.113029,0.0565 -0.226057,0.0565 h -0.113029 c -0.05651,0 -0.05651,-0.0565 -0.113028,-0.0565 -0.05651,0 -0.05651,-0.0565 -0.113029,-0.11303 0,0 -0.05651,-0.0565 -0.05651,-0.11303 0,-0.0565 -0.05651,-0.11302 -0.05651,-0.16954 0,-0.0565 0,-0.11303 -0.05651,-0.22606 -0.05652,-0.28257 -0.05652,-0.45211 -0.113029,-0.62165 -0.05651,-0.11303 -0.05651,-0.22606 -0.113028,-0.28257 -0.05652,-0.11303 -0.05652,-0.11303 -0.169543,-0.22606 l -0.169543,-0.16954 c -0.05651,-0.0565 -0.113028,-0.0565 -0.226057,-0.11303 -0.05651,0 -0.169543,-0.0565 -0.282571,-0.0565 -0.169543,0 -0.282571,0 -0.452114,0.11303 -0.113028,0.0565 -0.226057,0.22606 -0.339085,0.33909 -0.05652,0.16954 -0.169543,0.33908 -0.169543,0.62166 v 0.22605 c 0,0.0565 0.05651,0.16954 0.05651,0.28257 0.05651,0.0565 0.113029,0.16955 0.169543,0.28257 l 0.169543,0.16955 h -0.226057 v 0.56514 c 0.226057,-0.0565 0.282571,-0.0565 0.452114,-0.0565 h 1.638913 c 0.113028,0 0.339085,-0.0565 0.395599,-0.11303 0.113029,-0.0565 0.169543,-0.11303 0.282571,-0.16955 0.113029,-0.0565 0.226057,-0.28257 0.282572,-0.3956 0.05651,-0.16954 0.05651,-0.28257 0.05651,-0.45211 v -0.56514 c 0,-0.16954 -0.05651,-0.28257 -0.113029,-0.50863 -0.169542,0.11303 -0.339085,0.11303 -0.395599,0.11303 m -2.058978,12.23652 c 0,-0.0565 -0.05651,-0.11303 -0.113028,-0.16954 0,-0.11303 -0.05652,-0.16955 -0.05652,-0.22606 v -0.22606 c 0,-0.11303 0.05652,-0.22606 0.113029,-0.33908 0.05651,-0.0565 0,-0.0565 0.113028,-0.16955 0.05652,-0.0565 0.226057,-0.16954 0.339086,-0.16954 h 0.226057 c 0.05651,0 0.113028,0.0565 0.169542,0.11303 l 0.169543,0.16954 c 0.05651,0.0565 0.05651,0.16954 0.113029,0.28257 0,0.0565 0.05651,0.16955 0.05651,0.28257 0,0.0565 0,0.22606 0.05651,0.28258 0,0.0565 0,0.11302 0.05651,0.11302 0,0.0565 0.05651,0.11303 0.05651,0.11303 l 0.113028,0.11303 h -0.791199 c 0,0 -0.226057,0 -0.3956,-0.11303 -0.169543,0 -0.226057,-0.0565 -0.226057,-0.0565 m 2.091027,-1.46937 0.169543,0.33908 c 0,0.11303 0.05651,0.22606 0.05651,0.33909 0,0.11303 0.05651,0.22606 0.05651,0.33908 0,0.11303 -0.05651,0.28258 -0.05651,0.3956 0,0.11303 -0.113029,0.16955 -0.226057,0.22606 -0.05651,0.0565 -0.113029,0.0565 -0.226057,0.0565 h -0.113029 c -0.05651,0 0,0 -0.05651,-0.0565 -0.05651,0 -0.05651,-0.0565 -0.113028,-0.11303 0,0 -0.05652,-0.0565 -0.05652,-0.11303 0,-0.0565 -0.05651,-0.11302 -0.05651,-0.16954 0,-0.0565 0,-0.11303 -0.05651,-0.22606 -0.05651,-0.28257 -0.05651,-0.50862 -0.113028,-0.62165 -0.05651,-0.11303 -0.05651,-0.22606 -0.113029,-0.28257 -0.05651,-0.0565 -0.05651,-0.11303 -0.169543,-0.22606 l -0.169542,-0.16954 c -0.05652,-0.0565 -0.169543,-0.0565 -0.226057,-0.11303 -0.05652,0 -0.169543,-0.0565 -0.282572,-0.0565 -0.169542,0 -0.282571,0 -0.452113,0.11303 -0.113029,0.0565 -0.226057,0.22606 -0.339086,0.33909 -0.05651,0.16954 -0.169543,0.33908 -0.169543,0.62165 v 0.22606 c 0,0.11303 0.05652,0.16954 0.05652,0.28257 0.05651,0.0565 0.113028,0.16955 0.169542,0.28257 l 0.169543,0.16955 h -0.282571 v 0.56514 c 0.226057,-0.0565 0.282571,-0.0565 0.452114,-0.0565 h 1.638913 c 0.113028,0 0.339085,-0.0565 0.395599,-0.11302 0.113029,-0.0565 0.169543,-0.11303 0.282572,-0.16955 0.113028,-0.0565 0.226057,-0.22605 0.282571,-0.3956 0.05651,-0.16954 0.05651,-0.22605 0.05651,-0.3956 0,-0.16954 0,-0.3956 -0.05651,-0.56514 0,-0.16954 -0.05651,-0.28257 -0.113029,-0.50863 -0.113028,0.0565 -0.226057,0.0565 -0.339085,0.0565 m -2.605256,-8.03548 0.226057,0.0565 h 0.621657 l 1.808456,-0.0565 c 0.169542,0 0.339085,-0.11303 0.395599,-0.11303 0,0.11303 0,0.28257 0.05651,0.3956 v 0.22606 h -0.395599 c 0.113028,0.0565 0.113028,0.16954 0.226057,0.22606 0.05651,0.0565 0.05651,0.11302 0.113028,0.16954 0.05651,0.0565 0.05651,0.11303 0.05651,0.22606 v 0.33908 c 0,0.0565 0,0.16954 -0.05651,0.22606 0,0.0565 -0.05651,0.16954 -0.113028,0.22605 0,0.0565 -0.05651,0.11303 -0.113029,0.16955 -0.05651,0.0565 -0.05651,0.11303 -0.169542,0.16954 0,0 0.169542,0.11303 0.226057,0.28257 0.113028,0.16954 0.169542,0.3956 0.169542,0.56514 0,0.11303 0,0.45212 -0.05651,0.56515 -0.05651,0.11302 -0.113028,0.33908 -0.226057,0.3956 -0.113028,0.0565 -0.113028,0.11302 -0.226057,0.16954 -0.113028,0.11303 -0.339085,0.11303 -0.3956,0.11303 h -1.921484 c -0.169542,0 -0.169542,0.0565 -0.339085,0.0565 v -0.62166 c 0.226057,0.0565 0.169543,0.0565 0.339085,0.0565 h 1.808456 c 0.113028,0 0.282571,-0.0565 0.339085,-0.0565 0.05651,0 0.226057,-0.16954 0.226057,-0.22605 0.05651,-0.0565 0.05651,-0.11303 0.113029,-0.22606 0.05651,-0.0565 0.05651,-0.22606 0.05651,-0.28257 v -0.22606 c 0,-0.0565 -0.05651,-0.11303 -0.05651,-0.16954 -0.05651,-0.0565 -0.05651,-0.11303 -0.113029,-0.16954 -0.05651,-0.0565 -0.113028,-0.0565 -0.169542,-0.11303 -0.05651,0 -0.169543,0 -0.282572,-0.0565 H 64.07255 l -0.282571,0.11303 v -0.62165 c 0.282571,0 0,0.0565 0.282571,0.0565 h 1.808455 c 0.113029,0 0.169543,0 0.226057,-0.0565 0.05651,0 0.169543,-0.0565 0.226057,-0.11303 l 0.226057,-0.22606 c 0.05652,-0.0565 0.05652,-0.16954 0.05652,-0.28257 0,-0.11303 0,-0.16954 -0.05652,-0.22606 -0.05651,-0.0565 -0.05651,-0.16954 -0.113028,-0.22605 -0.05651,-0.0565 -0.05651,-0.11303 -0.169543,-0.16955 -0.113028,-0.0565 -0.05651,-0.0565 -0.226057,-0.11303 -0.169543,0 -0.791199,-0.0565 -1.186799,-0.0565 h -0.678171 c -0.113028,0 -0.169542,0.0565 -0.282571,0.0565 v -0.28257 c -0.169543,0.16955 -0.169543,0 -0.169543,-0.16954 m 0.567008,7.51617 h -0.226057 c -0.113029,0 -0.169543,-0.0565 -0.282571,-0.0565 -0.05651,-0.11302 -0.05651,-0.28257 -0.113029,-0.3956 v -0.56514 c 0,-0.22605 0.05651,-0.45211 0.113029,-0.62165 0.05651,-0.16955 0.169542,-0.3956 0.339085,-0.50863 0.113028,-0.11303 0.282571,-0.28257 0.508628,-0.33909 0.226057,-0.0565 0.3956,-0.11303 0.621657,-0.11303 0.339085,0 0.395599,0.0565 0.678171,0.11303 0.282571,0.11303 0.508628,0.33909 0.621656,0.50863 0.169543,0.22606 0.282571,0.67817 0.282571,1.01726 0,0.28257 -0.05651,0.56514 -0.113028,0.84771 -0.169543,0 -0.282571,0 -0.3956,0.0565 0.05652,-0.16954 0.169543,-0.33908 0.169543,-0.45211 0,-0.11303 0.05651,-0.28257 0.05651,-0.33909 0,-0.16954 -0.05651,-0.50862 -0.169542,-0.62165 -0.05652,-0.11303 -0.169543,-0.22606 -0.282572,-0.33909 -0.113028,-0.0565 -0.282571,-0.16954 -0.452114,-0.16954 -0.169542,-0.0565 -0.169542,-0.0565 -0.395599,-0.0565 -0.226057,0 -0.452114,0.0565 -0.621657,0.11302 -0.169543,0.0565 -0.339085,0.22606 -0.452114,0.3956 -0.113028,0.16955 -0.226057,0.33909 -0.226057,0.56515 0.05651,0.11302 0.113029,0.50862 0.339086,0.96074 m -0.471549,3.20204 0.226056,-0.0565 c 0,0 0.169543,-0.0565 0.282572,-0.0565 -0.169543,0.33909 -0.339086,0.73469 -0.339086,1.01726 0,0.11303 0.05651,0.28257 0.05651,0.3956 0.05652,0.11302 0.113029,0.16954 0.169543,0.22605 0.05651,0.0565 0.169543,0.11303 0.226057,0.11303 h 0.169543 c 0.05651,0 0.169543,0 0.226057,-0.0565 0.05651,0 0.113028,-0.11303 0.169543,-0.16955 0.05651,-0.0565 0.113028,-0.22605 0.169542,-0.39559 0.05651,-0.16955 0.169543,-0.45212 0.226057,-0.50863 0.05651,-0.11303 0.169543,-0.22606 0.226057,-0.33909 0.05651,-0.0565 0.169543,-0.11303 0.226057,-0.16954 h 0.282571 c 0.113029,0 0.282572,0.0565 0.3956,0.16954 0.113028,0.0565 0.169543,0.22606 0.282571,0.3956 0.05651,0.16954 0.113029,0.33909 0.113029,0.56514 0,0.22606 -0.05651,0.45212 -0.113029,0.73469 H 66.42857 c 0.113028,-0.22606 0.226056,-0.45212 0.226056,-0.67817 0,-0.11303 0,-0.22606 -0.05651,-0.33909 -0.05651,-0.11303 -0.113028,-0.22605 -0.169542,-0.28257 -0.05651,-0.0565 -0.113029,-0.0565 -0.226057,-0.0565 -0.05651,0 -0.113029,0 -0.169543,0.0565 -0.05651,0 -0.169543,0.11303 -0.169543,0.22606 -0.05651,0.11303 0,0.0565 -0.05651,0.11303 0,0.11303 -0.113029,0.28257 -0.226057,0.50862 -0.113029,0.22606 -0.226057,0.3956 -0.282571,0.50863 -0.05651,0.0565 -0.169543,0.16955 -0.339086,0.22606 -0.05651,0.0565 -0.169542,0.0565 -0.226057,0.0565 h -0.226057 c -0.169542,0 -0.226057,0 -0.339085,-0.11302 -0.113029,-0.0565 -0.226057,-0.22606 -0.339085,-0.3956 -0.05652,-0.16955 -0.113029,-0.33909 -0.113029,-0.56515 v -0.3956 c 0,-0.11302 0.05651,-0.22605 0.05651,-0.33908 0.05652,-0.22606 0.05652,-0.28257 0.05652,-0.3956 m 0.267815,3.87134 c -0.113029,0 -0.169543,-0.0565 -0.339086,-0.0565 -0.05651,-0.11303 -0.05651,-0.16954 -0.05651,-0.28257 v -0.22606 c 0,-0.16954 0,-0.28257 0.05651,-0.39559 0.05651,-0.11303 0.113029,-0.16955 0.226057,-0.22606 0.113029,-0.0565 0.3956,-0.11303 0.565143,-0.11303 h 1.921484 v -0.3956 h 0.282571 v 0.3956 h 0.565142 c 0.113029,0 0.169543,-0.0565 0.226057,-0.11303 0.05651,0.16954 0.113029,0.45212 0.169543,0.56514 h -0.904228 v 0.7912 h -0.282571 v -0.7912 h -1.921484 c -0.169543,0 -0.339085,0 -0.452114,0.0565 -0.05651,0 -0.113028,0.0565 -0.169543,0.16954 0,0.0565 -0.05651,0.11303 -0.05651,0.22606 v 0.16954 c 0.113029,0 0.169543,0.0565 0.169543,0.22606 m 0.191979,-18.00736 c -0.113029,0 -0.282571,-0.0565 -0.452114,-0.0565 -0.05651,-0.16954 -0.169543,-0.45211 -0.169543,-0.62165 v -0.3956 c 0,-0.22606 0.05651,-0.45212 0.113029,-0.67817 0.05651,-0.16955 0.169542,-0.3956 0.339085,-0.50863 0.169543,-0.16954 0.339085,-0.28257 0.508628,-0.33909 0.226057,-0.0565 0.3956,-0.0565 0.621657,-0.11302 0.339085,0 0.452114,0.0565 0.734685,0.11302 0.282571,0.11303 0.452114,0.28258 0.621657,0.50863 0.169542,0.22606 0.226056,0.45212 0.226056,0.7912 0,0.16954 0,0.3956 -0.05651,0.50863 -0.05651,0.16954 -0.113028,0.28257 -0.226057,0.3956 -0.113028,0.11303 -0.226057,0.22606 -0.395599,0.28257 -0.169543,0.0565 -0.169543,0.0565 -0.3956,0.11303 H 65.41901 v -2.26057 h -0.226056 c -0.226057,0 -0.452114,0.0565 -0.621657,0.11303 -0.169543,0.11303 -0.339086,0.22605 -0.3956,0.3956 -0.113028,0.16954 -0.169542,0.3956 -0.169542,0.62165 0,0.33909 0.113028,0.7912 0.282571,1.13029 m 1.46937,-2.03451 v 1.63891 h 0.169543 c 0.05651,0 0.113028,-0.0565 0.226057,-0.0565 l 0.169542,-0.16955 c 0.05651,-0.0565 0.113029,-0.11303 0.169543,-0.22605 0,-0.0565 0.05651,-0.22606 0.05651,-0.33909 0,-0.11303 0,-0.22606 -0.05651,-0.28257 -0.05651,-0.11303 -0.05651,-0.16954 -0.169543,-0.22606 -0.05651,-0.0565 -0.113028,-0.11303 -0.226057,-0.16954 -0.05651,-0.0565 -0.169542,-0.11303 -0.226057,-0.11303 0,-0.0565 0,-0.0565 -0.113028,-0.0565 m -2.088145,-2.5818 c 0.05652,0 0.169543,0.0565 0.226057,0.0565 h 2.65617 l 0.226056,-0.11302 c 0,0.11302 0,0.22605 0.05652,0.28257 0,0.0565 0.05651,0.22605 0.05651,0.33908 h -0.565142 c 0.113028,0.0565 0.113028,0.0565 0.169542,0.11303 0.05652,0.0565 0.169543,0.11303 0.226057,0.16954 0.05651,0.0565 0.113029,0.11303 0.113029,0.22606 0,0.0565 0.05651,0.16954 0.05651,0.22606 v 0.33908 c 0,0.16955 -0.05651,0.28257 -0.05651,0.33909 -0.05652,0 -0.3956,-0.11303 -0.3956,-0.11303 0,0 0,-0.16954 0.05651,-0.28257 v -0.28257 c 0,-0.11303 0,-0.22606 -0.05651,-0.33909 -0.05651,-0.0565 -0.113028,-0.16954 -0.169543,-0.22605 -0.05651,-0.0565 -0.169542,-0.11303 -0.282571,-0.16955 -0.113028,-0.0565 0,0 -0.169543,-0.0565 h -1.921484 l -0.169542,0.0565 v -0.33908 c -0.05652,0.0565 -0.05652,-0.11303 -0.05652,-0.22606 m -0.0096,-4.6418 0.282571,0.11303 h 3.72994 c 0.113028,0 0.226057,-0.0565 0.3956,-0.11303 v 1.978 c 0,0.33909 -0.05652,0.3956 -0.113029,0.67817 -0.05651,0.16954 -0.226057,0.50863 -0.339085,0.67817 -0.113029,0.16955 -0.226057,0.28257 -0.3956,0.3956 -0.169543,0.11303 -0.226057,0.16955 -0.3956,0.28257 -0.282571,0.11303 -0.565142,0.16955 -0.847713,0.16955 -0.3956,0 -0.678171,0 -1.017257,-0.11303 -0.339085,-0.11303 -0.565142,-0.33909 -0.791199,-0.56514 -0.226057,-0.22606 -0.3956,-0.45212 -0.452114,-0.7912 -0.05651,-0.28257 -0.113028,-0.62166 -0.113028,-0.96075 v -0.84771 l 0.05651,-0.90423 z m 0.339085,0.7912 v 1.24332 c 0,0.16954 0.113029,0.33908 0.169543,0.45211 0.05651,0.16954 0.113029,0.28257 0.282571,0.3956 0.113029,0.16954 0.282571,0.22606 0.452114,0.33908 0.169543,0.0565 0.339086,0.16955 0.565143,0.16955 0.226057,0.0565 0.395599,0.0565 0.621656,0.0565 0.226057,0 0.3956,-0.0565 0.621657,-0.16954 0.226057,-0.0565 0.452114,-0.16954 0.621656,-0.33909 0.169543,-0.16954 0.282572,-0.33908 0.339086,-0.50862 0.05651,-0.16955 0.113028,-0.45212 0.113028,-0.7912 v -0.96075 l -3.786454,0.11303 z"
     id="path48"
     inkscape:connector-curvature="0" />
  <path
     d="m 74.518424,321.37391 c 0.508628,0 0.452114,-0.22606 0.508628,-0.3956 0,-0.16954 -0.05651,-0.62166 0,-1.01726 0.113028,-0.45211 0.734685,-0.73468 1.07377,-0.62165 0.904228,0.22605 1.017257,0.84771 1.017257,1.24331 0,0.33909 -0.05651,0.90423 -0.678171,1.63891 -0.282571,0.33909 -1.073771,0.50863 -1.46937,0.56515 -0.565143,0 -1.130285,0 -1.469371,-0.33909 -0.565142,-0.50863 -1.017256,-1.86497 -1.017256,-2.65617 0.339085,-2.99525 3.108283,-2.88223 3.108283,-2.88223 0,0 1.186799,-0.22605 2.486627,0.7912 0.113028,0.0565 0.339085,0.22606 0.452114,0.33909 0.113028,0.11303 0.169542,0.16954 0.226057,0.33908 0.113028,0.11303 0.169542,0.22606 0.226057,0.3956 0.226057,0.33909 0.395599,0.67818 0.508628,1.01726 0.169542,0.50863 0.169542,1.01726 0.169542,1.41286 -0.05651,1.24331 -0.734685,2.59965 -1.751941,3.27782 -0.169543,0.11303 -0.226057,0.16955 -0.3956,0.28257 -0.169542,0.11303 -0.395599,0.22606 -0.678171,0.33909 -0.452113,0.16954 -0.282571,0.11303 -0.960742,0.28257 -0.508628,0.11303 -0.791199,0.16954 -1.130284,0.22606 -0.169543,0 -0.282572,0 -0.452114,0.0565 -0.565143,0 -0.678171,0.0565 -1.073771,-0.0565 -0.734685,-0.16955 -1.412856,-0.62166 -1.751941,-1.01726 -0.621657,-0.67817 -0.847714,-1.24331 -1.017257,-1.63891 -0.169542,-0.33909 -0.226057,-0.50863 -0.395599,-0.96074 -0.169543,-0.45212 -0.226057,-0.73469 -0.226057,-1.52589 0,-0.7912 0.05651,-1.46937 0.113028,-1.63891 0.3956,-1.41286 0.678171,-1.978 1.186799,-2.54314 1.243314,-1.5824 3.72994,-1.92149 3.72994,-1.92149 0,0 1.243313,-0.16954 2.599655,0.11303 0.678171,0.16954 1.977998,0.84772 2.486627,1.24332 0.452114,0.33908 1.07377,1.13028 1.356341,1.58239 0.282572,0.45212 0.678171,1.13029 0.960742,1.92149 0.113029,0.3956 0.169543,0.67817 0.226057,1.52588 0.05652,1.01726 -0.226057,2.48663 -0.508628,3.33434 -0.282571,0.90423 -0.847713,1.75194 -1.356341,2.14754 -0.452114,0.45212 -1.86497,1.41286 -2.147542,1.5824 -0.282571,0.16955 -1.808455,0.62166 -2.034512,0.67817 -0.169543,0.0565 -0.904228,0.11303 -0.847714,0.7912 0.05651,0.62166 0.7912,0.45212 0.904228,0.45212 0.113029,0 1.356342,-0.22606 1.638913,-0.33909 0.339085,-0.11303 1.186799,-0.56514 1.356342,-0.67817 0.113028,-0.0565 0.847713,-0.50863 1.412856,-0.96074 0.395599,-0.33909 0.847713,-0.62166 1.07377,-1.01726 0.452114,-0.67817 0.7912,-1.52588 0.7912,-1.52588 0,0 0.508628,-1.46937 0.565142,-2.20406 0.05651,-0.67817 0.226057,-1.35634 0.169543,-2.54314 -0.05652,-1.1868 -0.3956,-1.80845 -0.565143,-2.26057 -0.169542,-0.3956 -0.621656,-1.41285 -1.186799,-2.14754 -0.621656,-0.73468 -0.282571,-0.50863 -0.734685,-0.90423 -0.452114,-0.3956 -0.565142,-0.50863 -0.904228,-0.7912 -0.395599,-0.28257 -1.46937,-0.84771 -2.260569,-1.01725 -0.282571,-0.0565 -0.7912,-0.22606 -1.186799,-0.28257 -0.3956,-0.0565 -0.734685,-0.0565 -1.073771,0 -0.621656,0.0565 -0.678171,0.0565 -0.678171,0.0565 0,0 -1.243313,0.28257 -1.751941,0.45211 -0.508628,0.16955 -1.186799,0.3956 -2.373598,1.41286 -1.130285,1.01726 -1.412856,1.978 -1.582399,2.31708 -0.113028,0.33909 -0.565142,1.5824 -0.565142,3.1648 -0.05651,1.80846 0.395599,2.31709 0.508628,2.65617 0.169543,0.33909 0.621657,1.46937 1.46937,2.3736 0.847714,0.90423 1.751942,1.1868 1.808456,1.1868 0.734685,0.22605 1.86497,0.33908 2.93874,0.11303 0.734685,-0.16955 1.412856,-0.28257 1.86497,-0.3956 0.7912,-0.28257 1.243313,-0.56515 1.582399,-0.7912 0.339085,-0.22606 0.847713,-0.84772 1.07377,-1.29983 0.113029,-0.22606 0.282572,-0.3956 0.3956,-0.62166 0.113029,-0.28257 0.169543,-0.62165 0.282571,-1.01725 0.113029,-0.3956 0.169543,-0.90423 0.226057,-1.29983 v -0.7912 c 0,-0.16954 -0.113028,-0.7912 -0.565142,-1.63891 -0.226057,-0.45212 -0.565143,-0.96074 -1.130285,-1.52589 -0.169543,-0.16954 -0.3956,-0.33908 -0.565142,-0.45211 -1.695428,-1.24331 -3.616912,-0.7912 -3.616912,-0.7912 0,0 -2.599655,0.22606 -3.33434,2.48663 -0.226057,0.7912 -0.282571,1.52588 -0.169542,2.09102 0.113028,1.01726 0.565142,1.69543 0.791199,2.20406 0.282571,0.50863 0.678171,0.84771 1.130285,1.07377 0.395599,0.22606 0.847713,0.22606 1.243313,0.22606 0.226057,0 0.508628,0 0.791199,-0.0565 0.734685,-0.11303 1.46937,-0.3956 2.034513,-1.01725 l 0.113028,-0.22606 0.169543,-0.33909 c 0.282571,-0.56514 0.3956,-1.07377 0.452114,-1.86497 0,-0.28257 -0.05651,-0.67817 -0.169543,-0.90423 -0.452114,-0.90422 -1.243313,-1.35634 -2.260569,-1.35634 -0.960742,0.0565 -1.469371,0.96075 -1.638913,1.13029 0.05651,-0.28257 -0.452114,1.69543 0.452114,1.75194"
     id="path50"
     inkscape:connector-curvature="0"
     style="fill:#ee5507" />
  <path
     d="m -19.630908,274.19028 h -8.646679 c -0.508628,0 -0.960742,-0.45211 -0.960742,-0.96074 v -10.17256 h -10.172563 c -0.508628,0 -0.960742,-0.45211 -0.960742,-0.96074 v -8.64668 c 0,-0.50863 0.452114,-0.96074 0.960742,-0.96074 h 10.172563 v -10.17257 c 0,-0.50863 0.452114,-0.96074 0.960742,-0.96074 h 8.646679 c 0.508628,0 0.960742,0.45211 0.960742,0.96074 v 10.17257 h 10.1725631 c 0.5086281,0 0.960742,0.45211 0.960742,0.96074 v 8.64668 c 0,0.50863 -0.4521139,0.96074 -0.960742,0.96074 H -18.670166 v 10.17256 c 0,0.50863 -0.452114,0.96074 -0.960742,0.96074"
     id="path52"
     inkscape:connector-curvature="0"
     style="fill:#a7a8a8" />
  <path
     d="m -20.121729,273.2374 h -7.685936 c -0.452114,0 -0.847714,-0.3956 -0.847714,-0.84772 v -9.9465 h -9.889992 c -0.452114,0 -0.847713,-0.3956 -0.847713,-0.84772 v -7.68593 c 0,-0.45212 0.395599,-0.84772 0.847713,-0.84772 h 9.889992 v -9.88999 c 0,-0.45211 0.3956,-0.84771 0.847714,-0.84771 h 7.685936 c 0.452114,0 0.847714,0.3956 0.847714,0.84771 v 9.94651 h 9.8899919 c 0.4521139,0 0.8477136,0.3956 0.8477136,0.84771 v 7.62942 c 0,0.45212 -0.3955997,0.84772 -0.8477136,0.84772 h -9.8899919 v 9.88999 c 0.05651,0.56514 -0.339085,0.90423 -0.847714,0.90423"
     id="path54"
     inkscape:connector-curvature="0"
     style="fill:#c1c3c2" />
  <path
     d="m -74.332394,314.68155 c -0.113028,0.16954 -0.169542,0.45211 -0.169542,0.73468 0,0.45212 0.226056,0.67818 0.508628,0.67818 0.282571,0 0.452114,-0.16955 0.565142,-0.62166 0.169543,-0.50863 0.3956,-0.84771 0.847714,-0.84771 0.452114,0 0.791199,0.45211 0.791199,1.07377 0,0.33908 -0.05651,0.56514 -0.169543,0.73468 l -0.282571,-0.11303 c 0.05651,-0.11303 0.113029,-0.33908 0.113029,-0.62165 0,-0.45212 -0.226057,-0.62166 -0.452114,-0.62166 -0.282572,0 -0.3956,0.22606 -0.565143,0.67817 -0.169542,0.56514 -0.452114,0.84771 -0.847713,0.84771 -0.452114,0 -0.847714,-0.3956 -0.847714,-1.13028 0,-0.33909 0.05651,-0.67817 0.169543,-0.84771 l 0.339085,0.0565 z m 2.159409,3.12083 v -1.01726 h 0.339086 v 2.43011 h -0.339086 v -1.01725 h -2.599655 v -0.45212 h 2.599655 z m -1.388498,3.04295 0.847714,-0.33908 0.508628,-0.16955 -0.508628,-0.16954 -0.847714,-0.33908 z m -0.282571,-1.07377 -0.904228,-0.33908 v -0.45212 l 2.93874,1.13029 v 0.50862 l -2.93874,1.13029 v -0.45211 l 0.904228,-0.33909 z m 0.608545,2.85267 v 0.45211 c 0,0.45212 0.226057,0.73469 0.565142,0.73469 0.3956,0 0.565143,-0.28257 0.565143,-0.73469 0,-0.22605 0,-0.33908 -0.05651,-0.3956 h -1.073771 z m 1.356342,-0.3956 c 0.05651,0.22606 0.05651,0.50863 0.05651,0.7912 0,0.45211 -0.05651,0.73469 -0.226057,0.96074 -0.113028,0.16954 -0.339085,0.28257 -0.565142,0.28257 -0.3956,0 -0.621657,-0.28257 -0.734685,-0.62165 -0.05652,0.28257 -0.282572,0.3956 -0.565143,0.50862 -0.395599,0.11303 -0.678171,0.16955 -0.791199,0.22606 v -0.45211 c 0.05651,-0.0565 0.339085,-0.11303 0.678171,-0.22606 0.395599,-0.11303 0.565142,-0.28257 0.565142,-0.67817 v -0.3956 h -1.243313 v -0.45211 h 2.825712 z m -0.293818,3.29659 v -1.01726 h 0.339086 v 2.43012 h -0.339086 v -1.01726 h -2.599655 v -0.45211 h 2.599655 z"
     id="path56"
     inkscape:connector-curvature="0"
     style="fill:#7f7f7f" />
  <path
     d="m 33.528872,241.76648 c -0.226057,0.11303 -0.282571,0.33909 -0.226057,0.56514 0.113029,0.22606 0.339085,0.28258 0.565142,0.22606 0.226057,-0.11303 0.282572,-0.33908 0.226057,-0.56514 -0.113028,-0.22606 -0.339085,-0.33909 -0.565142,-0.22606 m -2.317084,0.96074 c -0.226057,0.11303 -0.282571,0.33909 -0.226057,0.56515 0.113029,0.22605 0.339086,0.28257 0.565143,0.22605 0.226057,-0.11302 0.282571,-0.33908 0.226057,-0.56514 -0.113029,-0.22606 -0.339086,-0.28257 -0.565143,-0.22606 m -2.430112,1.07378 c -0.226057,0.11302 -0.282571,0.33908 -0.226057,0.56514 0.113028,0.22605 0.339085,0.28257 0.565142,0.22605 0.226057,-0.11302 0.282572,-0.33908 0.226057,-0.56514 -0.113028,-0.22605 -0.395599,-0.28257 -0.565142,-0.22605 m -1.921484,1.29982 c 0.113028,0.22606 0,0.45212 -0.226057,0.56515 -0.226057,0.11302 -0.452114,0 -0.565143,-0.22606 -0.113028,-0.22606 0,-0.45212 0.226057,-0.56514 0.226057,-0.0565 0.452114,0 0.565143,0.22605 m -15.089302,7.00777 c 0.226057,-0.11303 0.282571,-0.33909 0.226057,-0.56514 -0.05651,-0.22606 -0.339086,-0.28258 -0.565143,-0.22606 -0.226057,0.0565 -0.282571,0.33908 -0.226057,0.56514 0.113029,0.22606 0.339086,0.28257 0.565143,0.22606 m 2.317084,-1.01726 c 0.226057,-0.11303 0.282571,-0.33908 0.226057,-0.56514 -0.113029,-0.22606 -0.339086,-0.28257 -0.565143,-0.22606 -0.226057,0.0565 -0.282571,0.33909 -0.226057,0.56515 0.113029,0.22605 0.339086,0.33908 0.565143,0.22605 m 2.486626,-1.07377 c 0.226057,-0.11303 0.282571,-0.33908 0.226057,-0.56514 -0.113028,-0.22606 -0.339085,-0.28257 -0.565142,-0.22606 -0.226057,0.11303 -0.282571,0.33909 -0.226057,0.56514 0.05651,0.22606 0.339085,0.33909 0.565142,0.22606 m 1.921484,-1.29983 c -0.113028,-0.22605 0,-0.45211 0.226057,-0.56514 0.226057,-0.11303 0.452114,0 0.565143,0.22606 0.113028,0.22606 0,0.45211 -0.226057,0.56514 -0.226057,0.11303 -0.508628,0 -0.565143,-0.22606 m 9.32485,9.0988 c -0.113029,-0.22606 -0.339086,-0.28257 -0.565143,-0.22606 -0.226057,0.11303 -0.282571,0.33909 -0.226057,0.56514 0.113029,0.22606 0.339086,0.28257 0.565143,0.22606 0.226057,-0.0565 0.339085,-0.3956 0.226057,-0.56514 m -0.960742,-2.31709 c -0.113029,-0.22605 -0.339086,-0.28257 -0.565143,-0.22605 -0.226057,0.11302 -0.282571,0.33908 -0.226057,0.56514 0.113029,0.22606 0.339086,0.28257 0.565143,0.22606 0.169543,-0.11303 0.282571,-0.33909 0.226057,-0.56515 m -1.073771,-2.48662 c -0.113028,-0.22606 -0.339085,-0.28257 -0.565142,-0.22606 -0.226057,0.11303 -0.282571,0.33908 -0.226057,0.56514 0.113028,0.22606 0.339085,0.28257 0.565142,0.22606 0.169543,-0.11303 0.282571,-0.33909 0.226057,-0.56514 m -1.299827,-1.92149 c -0.226057,0.11303 -0.452114,0 -0.565143,-0.22605 -0.113028,-0.22606 0,-0.45212 0.226057,-0.56515 0.226057,-0.11303 0.452114,0 0.565143,0.22606 0.05651,0.22606 -0.05652,0.45211 -0.226057,0.56514 m -7.007766,-15.03279 c 0.113029,0.22606 0.339085,0.28258 0.565142,0.22606 0.226057,-0.11303 0.282572,-0.33908 0.226057,-0.56514 -0.113028,-0.22606 -0.339085,-0.28257 -0.565142,-0.22606 -0.226057,0.11303 -0.339085,0.33909 -0.226057,0.56514 m 1.017256,2.26057 c 0.113029,0.22606 0.339086,0.28258 0.565143,0.22606 0.226057,-0.11303 0.282571,-0.33908 0.226057,-0.56514 -0.113029,-0.22606 -0.339086,-0.28257 -0.565143,-0.22606 -0.226057,0.11303 -0.339085,0.3956 -0.226057,0.56514 m 1.073771,2.48663 c 0.113028,0.22606 0.339085,0.28257 0.565142,0.22606 0.226057,-0.11303 0.282571,-0.33909 0.226057,-0.56514 -0.05651,-0.22606 -0.339085,-0.28258 -0.565142,-0.22606 -0.226057,0.11303 -0.339086,0.33908 -0.226057,0.56514 m 1.299827,1.92148 c 0.226057,-0.11302 0.452114,0 0.565143,0.22606 0.113028,0.22606 0,0.45212 -0.226057,0.56514 -0.226057,0.11303 -0.452114,0 -0.565143,-0.22605 -0.113028,-0.22606 0,-0.45212 0.226057,-0.56515 m 10.003021,-4.63416 c -0.169543,0.16954 -0.169543,0.45211 0,0.56514 0.169542,0.16954 0.452114,0.16954 0.565142,0 0.169543,-0.16954 0.169543,-0.45211 0,-0.56514 -0.113028,-0.11303 -0.3956,-0.11303 -0.565142,0 m -1.751942,1.80845 c -0.169542,0.16955 -0.169542,0.45212 0,0.56515 0.169543,0.16954 0.452114,0.16954 0.565143,0 0.169542,-0.16955 0.169542,-0.45212 0,-0.56515 -0.169543,-0.16954 -0.3956,-0.16954 -0.565143,0 m -1.921484,1.86497 c -0.169543,0.16955 -0.169543,0.45212 0,0.56514 0.169543,0.16955 0.452114,0.16955 0.565143,0 0.169542,-0.16954 0.169542,-0.45211 0,-0.56514 -0.113029,-0.11303 -0.3956,-0.11303 -0.565143,0 M 14.427059,255.7255 c 0.169543,-0.16954 0.169543,-0.45211 0,-0.56514 -0.169543,-0.16955 -0.452114,-0.16955 -0.565142,0 -0.169543,0.16954 -0.169543,0.45211 0,0.56514 0.169542,0.16954 0.395599,0.16954 0.565142,0 m 1.808456,-1.75194 c 0.169543,-0.16954 0.169543,-0.45212 0,-0.56514 -0.169543,-0.16955 -0.452114,-0.16955 -0.565143,0 -0.169542,0.16954 -0.169542,0.45211 0,0.56514 0.113029,0.16954 0.3956,0.16954 0.565143,0 m 1.86497,-1.92149 c 0.169542,-0.16954 0.169542,-0.45211 0,-0.56514 -0.169543,-0.16954 -0.452114,-0.16954 -0.565143,0 -0.169542,0.16954 -0.169542,0.45212 0,0.56514 0.169543,0.16955 0.3956,0.16955 0.565143,0 m 13.33736,3.10829 c -0.169543,-0.16955 -0.452114,-0.16955 -0.565142,0 -0.169543,0.16954 -0.169543,0.45211 0,0.56514 0.169542,0.16954 0.452114,0.16954 0.565142,0 0.169543,-0.16954 0.169543,-0.45211 0,-0.56514 m -1.751941,-1.80846 c -0.169543,-0.16954 -0.452114,-0.16954 -0.565143,0 -0.169542,0.16954 -0.169542,0.45212 0,0.56514 0.169543,0.16955 0.452114,0.16955 0.565143,0 0.169542,-0.11302 0.169542,-0.3956 0,-0.56514 m -1.921484,-1.86497 c -0.169543,-0.16954 -0.452114,-0.16954 -0.565143,0 -0.169543,0.16954 -0.169543,0.45212 0,0.56514 0.169543,0.16955 0.452114,0.16955 0.565143,0 0.169542,-0.16954 0.169542,-0.45211 0,-0.56514 M 13.861917,238.71471 c 0.169542,0.16955 0.452114,0.16955 0.565142,0 0.169543,-0.16954 0.169543,-0.45211 0,-0.56514 -0.169543,-0.16954 -0.452114,-0.16954 -0.565142,0 -0.169543,0.11303 -0.169543,0.3956 0,0.56514 m 1.751941,1.75195 c 0.169543,0.16954 0.452114,0.16954 0.565143,0 0.169542,-0.16955 0.169542,-0.45212 0,-0.56515 -0.169543,-0.16954 -0.452114,-0.16954 -0.565143,0 -0.169543,0.16955 -0.169543,0.3956 0,0.56515 m 1.921484,1.92148 c 0.169543,0.16954 0.452114,0.16954 0.565143,0 0.169542,-0.16954 0.169542,-0.45211 0,-0.56514 -0.169543,-0.16955 -0.452114,-0.16955 -0.565143,0 -0.169542,0.11303 -0.169542,0.3956 0,0.56514 m 9.381364,-6.7252 c -0.113028,0.22606 0,0.45212 0.226057,0.56515 0.226057,0.11303 0.452114,0 0.565142,-0.22606 0.113029,-0.22606 0,-0.45211 -0.226057,-0.56514 -0.226057,-0.0565 -0.452114,0 -0.565142,0.22605 m -0.960742,2.31709 c -0.113029,0.22606 0,0.45211 0.226057,0.56514 0.226057,0.11303 0.452114,0 0.565142,-0.22606 0.113029,-0.22605 0,-0.45211 -0.226057,-0.56514 -0.226057,-0.11303 -0.452114,0 -0.565142,0.22606 m -1.017256,2.48663 c -0.113029,0.22605 0,0.45211 0.226057,0.56514 0.226057,0.11303 0.452114,0 0.565142,-0.22606 0.113028,-0.22606 0,-0.45211 -0.226057,-0.56514 -0.226057,-0.11303 -0.508628,0 -0.565142,0.22606 m -0.508629,2.26056 c 0.226057,0.11303 0.339086,0.33909 0.226057,0.56515 -0.113028,0.22605 -0.339085,0.33908 -0.565142,0.22605 -0.226057,-0.11302 -0.339085,-0.33908 -0.226057,-0.56514 0.113029,-0.22606 0.339086,-0.33908 0.565142,-0.22606 m -6.047023,15.42839 c 0.113028,-0.22605 0,-0.45211 -0.226057,-0.56514 -0.226057,-0.11303 -0.452114,0 -0.565142,0.22606 -0.113029,0.22605 0,0.45211 0.226056,0.56514 0.226057,0.11303 0.452114,0 0.565143,-0.22606 m 0.960742,-2.26057 c 0.113028,-0.22605 0,-0.45211 -0.226057,-0.56514 -0.226057,-0.11303 -0.452114,0 -0.565142,0.22606 -0.113029,0.22605 0,0.45211 0.226057,0.56514 0.226057,0.0565 0.452113,-0.0565 0.565142,-0.22606 m 1.07377,-2.48662 c 0.113029,-0.22606 0,-0.45212 -0.226056,-0.56515 -0.226057,-0.11302 -0.452114,0 -0.565143,0.22606 -0.113028,0.22606 0,0.45211 0.226057,0.56514 0.226057,0.0565 0.452114,-0.0565 0.565142,-0.22605 m 0.452114,-2.31709 c -0.226057,-0.11303 -0.339085,-0.33908 -0.226057,-0.56514 0.113029,-0.22606 0.339086,-0.33909 0.565143,-0.22606 0.226057,0.11303 0.339085,0.33909 0.226057,0.56515 -0.113029,0.22605 -0.339086,0.33908 -0.565143,0.22605 m 13.05479,0.11303 c -0.226057,-0.11303 -0.452114,0 -0.565143,0.22606 -0.113028,0.22605 0,0.45211 0.226057,0.56514 0.226057,0.11303 0.452114,0 0.565143,-0.22606 0.05651,-0.22605 0,-0.50863 -0.226057,-0.56514 m -2.317084,-0.96074 c -0.226057,-0.11303 -0.452114,0 -0.565143,0.22606 -0.113028,0.22605 0,0.45211 0.226057,0.56514 0.226057,0.11303 0.452114,0 0.565143,-0.22606 0.05651,-0.22606 0,-0.50863 -0.226057,-0.56514 m -2.486627,-1.07377 c -0.226057,-0.11303 -0.452114,0 -0.565142,0.22605 -0.113029,0.22606 0,0.45212 0.226057,0.56515 0.226057,0.11303 0.452114,0 0.565142,-0.22606 0.113029,-0.22606 0,-0.45211 -0.226057,-0.56514 m -2.260569,-0.50863 c -0.113029,0.22606 -0.339086,0.33909 -0.565143,0.22606 -0.226057,-0.11303 -0.339085,-0.33909 -0.226057,-0.56515 0.113029,-0.22605 0.339086,-0.33908 0.565143,-0.22605 0.226057,0.11303 0.282571,0.3956 0.226057,0.56514 M 11.37529,242.6142 c 0.226057,0.11302 0.452114,0 0.565143,-0.22606 0.113028,-0.22606 0,-0.45211 -0.226057,-0.56514 -0.226057,-0.11303 -0.452114,0 -0.565143,0.22605 -0.05651,0.28257 0.05651,0.50863 0.226057,0.56515 m 2.317084,1.01725 c 0.226057,0.11303 0.452114,0 0.565142,-0.22605 0.113029,-0.22606 0,-0.45212 -0.226057,-0.56515 -0.226057,-0.11303 -0.452113,0 -0.565142,0.22606 -0.05651,0.22606 0.05651,0.45211 0.226057,0.56514 m 2.486627,1.01726 c 0.226057,0.11303 0.452113,0 0.565142,-0.22606 0.113028,-0.22606 0,-0.45211 -0.226057,-0.56514 -0.226057,-0.11303 -0.452114,0 -0.565142,0.22606 -0.05651,0.22605 0,0.50862 0.226057,0.56514 m 2.260569,0.50863 c 0.113029,-0.22606 0.339086,-0.33909 0.565143,-0.22606 0.226056,0.11303 0.339085,0.33909 0.226056,0.56514 -0.113028,0.22606 -0.339085,0.33909 -0.565142,0.22606 -0.169543,-0.11303 -0.282571,-0.33909 -0.226057,-0.56514 m -7.798965,2.20405 c 0.226057,0 0.3956,-0.16954 0.3956,-0.3956 0,-0.22605 -0.169543,-0.3956 -0.3956,-0.3956 -0.226057,0 -0.3956,0.16955 -0.3956,0.3956 0,0.22606 0.169543,0.3956 0.3956,0.3956 m 2.486627,0 c 0.226057,0 0.395599,-0.16954 0.395599,-0.3956 0,-0.22605 -0.169542,-0.3956 -0.395599,-0.3956 -0.226057,0 -0.3956,0.16955 -0.3956,0.3956 0,0.22606 0.169543,0.3956 0.3956,0.3956 m 2.712683,0 c 0.226057,0 0.3956,-0.16954 0.3956,-0.3956 0,-0.22605 -0.169543,-0.3956 -0.3956,-0.3956 -0.226057,0 -0.3956,0.16955 -0.3956,0.3956 0,0.22606 0.169543,0.3956 0.3956,0.3956 m 18.875756,-0.84771 c -0.226057,0 -0.3956,0.16954 -0.3956,0.3956 0,0.22606 0.169543,0.3956 0.3956,0.3956 0.226057,0 0.3956,-0.16954 0.3956,-0.3956 0,-0.22606 -0.169543,-0.3956 -0.3956,-0.3956 m -2.543141,0 c -0.226057,0 -0.395599,0.16954 -0.395599,0.3956 0,0.22606 0.169542,0.3956 0.395599,0.3956 0.226057,0 0.3956,-0.16954 0.3956,-0.3956 0,-0.22606 -0.169543,-0.3956 -0.3956,-0.3956 m -2.656169,0 c -0.226057,0 -0.3956,0.16954 -0.3956,0.3956 0,0.22606 0.169543,0.3956 0.3956,0.3956 0.226057,0 0.3956,-0.16954 0.3956,-0.3956 0,-0.22606 -0.169543,-0.3956 -0.3956,-0.3956 m -7.290337,-11.64193 c 0,0.22605 0.169543,0.3956 0.3956,0.3956 0.226057,0 0.395599,-0.16955 0.395599,-0.3956 0,-0.22606 -0.169542,-0.3956 -0.395599,-0.3956 -0.169543,0 -0.3956,0.16954 -0.3956,0.3956 m 0,2.54314 c 0,0.22605 0.169543,0.3956 0.3956,0.3956 0.226057,0 0.395599,-0.16955 0.395599,-0.3956 0,-0.22606 -0.169542,-0.3956 -0.395599,-0.3956 -0.169543,-0.0565 -0.3956,0.11302 -0.3956,0.3956 m 0,2.65617 c 0,0.22605 0.169543,0.3956 0.3956,0.3956 0.226057,0 0.395599,-0.16955 0.395599,-0.3956 0,-0.22606 -0.169542,-0.3956 -0.395599,-0.3956 -0.169543,0 -0.3956,0.16954 -0.3956,0.3956 m 0.847714,18.87575 c 0,-0.22606 -0.169543,-0.3956 -0.3956,-0.3956 -0.226057,0 -0.3956,0.16954 -0.3956,0.3956 0,0.22606 0.169543,0.3956 0.3956,0.3956 0.226057,0 0.3956,-0.16954 0.3956,-0.3956 m 0,-2.48663 c 0,-0.22605 -0.169543,-0.39559 -0.3956,-0.39559 -0.226057,0 -0.3956,0.16954 -0.3956,0.39559 0,0.22606 0.169543,0.3956 0.3956,0.3956 0.226057,0 0.3956,-0.16954 0.3956,-0.3956 m 0,-2.71268 c 0,-0.22606 -0.169543,-0.3956 -0.3956,-0.3956 -0.226057,0 -0.3956,0.16954 -0.3956,0.3956 0,0.22606 0.169543,0.3956 0.3956,0.3956 0.226057,0 0.3956,-0.16954 0.3956,-0.3956"
     id="path58"
     inkscape:connector-curvature="0"
     style="fill:#b1b2b5" />
  <path
     d="m 0.76293333,373.06093 1.63891297,-0.96074 c 0.6216566,-0.3956 1.0172563,-0.62166 1.4693702,-0.84772 -0.4521139,-0.22605 -0.8477136,-0.3956 -1.4693702,-0.7912 l -1.63891297,-0.90422 v -1.13029 l 3.78645407,2.26057 3.6734255,-2.20405 v 1.13028 l -1.7519414,0.96074 c -0.5086282,0.28257 -0.8477136,0.50863 -1.2433133,0.67817 v 0.0565 c 0.4521139,0.22605 0.7911994,0.3956 1.2433133,0.67817 l 1.7519414,1.01725 v 1.13029 l -3.6169113,-2.26057 -3.84296827,2.31708 v -1.13028 z"
     id="path60"
     inkscape:connector-curvature="0"
     style="fill:#b5aa1d" />
  <path
     d="m 18.19119,388.68265 h 3.164797 l 4.295083,-2.3736 v 1.07377 l -2.034513,1.07377 c -0.565142,0.28258 -1.017256,0.50863 -1.525884,0.73469 0.508628,0.22606 0.960742,0.45211 1.525884,0.73468 l 2.034513,1.07377 v 1.07378 l -4.295083,-2.48663 H 18.19119 Z"
     id="path62"
     inkscape:connector-curvature="0"
     style="fill:#036d2e" />
  <path
     d="m -13.396709,390.39057 2.147541,-0.73469 c 0.508628,-0.16954 0.904228,-0.28257 1.3563415,-0.3956 -0.4521135,-0.11303 -0.9042275,-0.22605 -1.3563415,-0.3956 L -13.396709,388.13 Z m -0.734685,-2.43011 -2.317084,-0.7912 V 386.152 l 7.4598793,2.54314 v 1.13029 l -7.4598793,2.54314 v -1.01726 l 2.317084,-0.7912 z"
     id="path64"
     inkscape:connector-curvature="0"
     style="fill:#a02727" />
  <path
     d="m 1.5179636,405.36848 c -0.056514,0.16954 -0.056514,0.45211 -0.056514,0.7912 0,1.01726 0.3390855,1.92148 1.4693702,1.92148 1.0172564,0 1.412856,-0.84771 1.412856,-1.92148 v -0.7912 z m 3.560397,0 v 0.84771 c 0,1.01726 0.5086282,1.5824 1.2433133,1.5824 0.8477136,0 1.186799,-0.67817 1.186799,-1.63891 0,-0.45211 -0.056514,-0.67817 -0.056514,-0.84771 H 5.0783608 Z m 3.051769,-0.96074 c 0.1130284,0.3956 0.1695427,1.07377 0.1695427,1.75194 0,0.96074 -0.1695427,1.5824 -0.5651424,2.03451 -0.2825712,0.3956 -0.7346851,0.62166 -1.2998275,0.62166 -0.7346851,0 -1.3563418,-0.45212 -1.638913,-1.24331 -0.1695427,0.67817 -0.7346851,1.52588 -1.8649699,1.52588 -0.6216566,0 -1.1302847,-0.28257 -1.4693702,-0.62166 -0.4521139,-0.50862 -0.67817084,-1.35634 -0.67817084,-2.54314 0,-0.67817 0.0565142,-1.1868 0.11302847,-1.46937 H 8.1301296 Z"
     id="path66"
     inkscape:connector-curvature="0"
     style="fill:#264560" />
  <path
     d="m -23.927171,253.20943 c 2.486626,0 4.521139,2.03451 4.521139,4.52114 0,2.48662 -2.034513,4.52114 -4.521139,4.52114 -2.486627,0 -4.52114,-2.03452 -4.52114,-4.52114 -0.05651,-2.48663 1.977999,-4.52114 4.52114,-4.52114"
     id="path68"
     inkscape:connector-curvature="0"
     style="fill:#a7a8a8" />
</svg>
