<?xml version="1.0" encoding="UTF-8" standalone="no"?>
<svg
   xmlns:dc="http://purl.org/dc/elements/1.1/"
   xmlns:cc="http://creativecommons.org/ns#"
   xmlns:rdf="http://www.w3.org/1999/02/22-rdf-syntax-ns#"
   xmlns:svg="http://www.w3.org/2000/svg"
   xmlns="http://www.w3.org/2000/svg"
   xmlns:sodipodi="http://sodipodi.sourceforge.net/DTD/sodipodi-0.dtd"
   xmlns:inkscape="http://www.inkscape.org/namespaces/inkscape"
   viewBox="0 0 500 165.27358"
   version="1.1"
   id="svg156"
   sodipodi:docname="consolegame.svg"
   width="500"
   height="165.27357"
   inkscape:version="0.92.4 5da689c313, 2019-01-14">
  <metadata
     id="metadata162">
    <rdf:RDF>
      <cc:Work
         rdf:about="">
        <dc:format>image/svg+xml</dc:format>
        <dc:type
           rdf:resource="http://purl.org/dc/dcmitype/StillImage" />
      </cc:Work>
    </rdf:RDF>
  </metadata>
  <defs
     id="defs160" />
  <sodipodi:namedview
     pagecolor="#ffffff"
     bordercolor="#666666"
     borderopacity="1"
     objecttolerance="10"
     gridtolerance="10"
     guidetolerance="10"
     inkscape:pageopacity="0"
     inkscape:pageshadow="2"
     inkscape:window-width="640"
     inkscape:window-height="480"
     id="namedview158"
     showgrid="false"
     inkscape:zoom="0.542"
     inkscape:cx="250"
     inkscape:cy="82.636783"
     inkscape:window-x="0"
     inkscape:window-y="0"
     inkscape:window-maximized="0"
     inkscape:current-layer="svg156" />
  <path
     d="m 155.35509,165.27357 145.52803,-1.43963 c 1.06408,0 2.37852,-0.62593 3.12964,-1.69001 l 3.06704,-5.9463 H 3.6303767 l 3.0670425,5.9463 c 0.8137051,1.06408 2.0655591,1.69001 3.1296351,1.69001 l 145.5280357,1.43963"
     id="path2"
     inkscape:connector-curvature="0"
     style="fill:#d5d4cf" />
  <path
     d="m 155.04212,87.470841 h 153.28953 c 1.00149,0 1.7526,0.81371 1.7526,1.7526 l -1.81519,65.158999 c 0,1.00148 -0.81371,1.7526 -1.7526,1.7526 H 3.6303767 c -1.0014832,0 -1.7525956,-0.81371 -1.7525956,-1.7526 L 0,89.223441 c 0,-1.00149 0.81370513,-1.7526 1.7525957,-1.7526 H 155.04212"
     id="path4"
     inkscape:connector-curvature="0"
     style="fill:#e2e4e2" />
  <path
     d="m 266.7701,148.87428 h 0.12518 v 1.43963 l -0.0626,0.12519 c 0,0 -0.0626,0.0626 -0.12519,0.0626 h -2.5663 c -0.0626,0 -0.12518,0 -0.12518,-0.0626 l -0.0626,-0.12519 v -1.43963 h 0.25037 v 1.18926 h 0.87629 v -1.00148 h 0.25038 v 1.00148 h 1.00148 v -1.18926 h 0.43815 z m -0.56334,-1.25185 h 0.31297 c 0.0626,0 0.18777,0.0626 0.25037,0.12518 0.0626,0.0626 0.12518,0.12519 0.12518,0.18778 0.0626,0.0626 0.0626,0.18778 0.0626,0.31296 v 0.25038 l -0.0626,0.0626 -0.0626,0.0626 h -0.31296 v -0.0626 l 0.0626,-0.0626 0.0626,-0.0626 v -0.25037 l -0.0626,-0.0626 c -0.0626,0 -0.0626,-0.0626 -0.12519,-0.0626 h -2.31593 v -0.25037 l 2.06556,-0.18778 z m 0.56334,-2.37852 h 0.12518 v 1.43963 l -0.0626,0.12518 c 0,0 -0.0626,0.0626 -0.12519,0.0626 h -2.5663 c -0.0626,0 -0.12518,0 -0.12518,-0.0626 l -0.0626,-0.12518 v -1.43963 h 0.25037 v 1.18926 h 0.87629 v -1.00149 h 0.25038 v 1.00149 h 1.00148 v -1.18926 h 0.43815 z m -0.25037,-2.50371 h 0.25037 l 0.0626,0.0626 c 0,0.0626 0.0626,0.12519 0.0626,0.18778 0,0.0626 0.0626,0.12518 0.0626,0.25037 v 0.31296 c 0,0.18778 0,0.37556 -0.0626,0.50074 -0.0626,0.12519 -0.12518,0.25037 -0.25037,0.37556 -0.12518,0.12519 -0.25037,0.18778 -0.43815,0.25037 -0.18777,0.0626 -0.37555,0.0626 -0.62592,0.0626 -0.25037,0 -0.43815,0 -0.62593,-0.0626 -0.18778,-0.0626 -0.31296,-0.12518 -0.43815,-0.25037 -0.12519,-0.12519 -0.25037,-0.25037 -0.31296,-0.37556 -0.0626,-0.12518 -0.12519,-0.31296 -0.12519,-0.50074 v -0.25037 c 0,-0.0626 0.0626,-0.12518 0.0626,-0.18778 0,-0.0626 0.0626,-0.12518 0.0626,-0.18777 l 0.0626,-0.12519 0.0626,-0.0626 h 0.31297 l -0.0626,0.0626 c 0,0.0626 -0.0626,0.0626 -0.12518,0.12519 -0.0626,0.0626 -0.0626,0.12518 -0.12519,0.18777 0,0.0626 -0.0626,0.18778 -0.0626,0.31297 0,0.12518 0,0.25037 0.0626,0.31296 0.0626,0.12519 0.12519,0.18778 0.25037,0.25037 0.12519,0.0626 0.18778,0.12519 0.37556,0.18778 0.18778,0.0626 0.31296,0.0626 0.50074,0.0626 0.18778,0 0.31296,0 0.50074,-0.0626 0.18778,-0.0626 0.25037,-0.12519 0.37556,-0.18778 0.12518,-0.0626 0.18778,-0.18778 0.18778,-0.25037 0.0626,-0.12519 0.0626,-0.25037 0.0626,-0.37556 0,-0.12518 0,-0.18777 -0.0626,-0.31296 0,-0.0626 -0.0626,-0.12518 -0.0626,-0.18778 -0.0626,-0.0626 -0.0626,-0.12518 -0.0626,-0.12518 l -0.0626,-0.0626 h 0.0626 l 0.12519,0.0626 z m -2.12816,-2.25334 v 0.8763 h 2.56631 v 0.31296 l -0.0626,0.0626 h -2.50371 v 0.81371 l -0.0626,0.0626 h -0.12518 l -0.0626,-0.0626 h -0.0626 v -2.06556 h 0.31296 M 45.129318,148.8117 c 0.125186,0 0.250371,0 0.375557,0.0626 0.125185,0.0626 0.187778,0.12519 0.312963,0.18778 0.06259,0.0626 0.125186,0.18778 0.187778,0.31296 0.06259,0.12519 0.06259,0.25037 0.06259,0.43815 v 0.31297 h 1.001483 v 0.25037 h -2.628893 c -0.06259,0 -0.125186,0 -0.125186,-0.0626 l -0.06259,-0.12518 v -0.81371 c 0,-0.0626 0,-0.12518 0.06259,-0.18777 0,-0.0626 0.06259,-0.12519 0.125186,-0.25038 l 0.187778,-0.18777 c 0.06259,-0.0626 0.125185,-0.12519 0.250371,-0.12519 0.06259,0.18778 0.125185,0.18778 0.25037,0.18778 z m 0,0.37556 c -0.125185,0 -0.187778,0 -0.312963,0.0626 l -0.187778,0.18778 c -0.06259,0.0626 -0.06259,0.12518 -0.06259,0.18777 v 0.56334 h 1.126669 v -0.31296 c 0,-0.12519 0,-0.18778 -0.06259,-0.31297 0,-0.0626 -0.06259,-0.12518 -0.125185,-0.18778 -0.06259,-0.0626 -0.125186,-0.0626 -0.187778,-0.12518 0,-0.0626 -0.06259,-0.0626 -0.187779,-0.0626 z m 0.563335,-3.38001 c 0.250371,0 0.438149,0 0.625927,0.0626 0.187778,0.0626 0.312963,0.12519 0.500741,0.25037 0.125186,0.12519 0.250371,0.25037 0.312964,0.37556 0.06259,0.18778 0.125185,0.37556 0.125185,0.56333 0,0.18778 -0.06259,0.37556 -0.125185,0.56334 -0.06259,0.12518 -0.125186,0.31296 -0.250371,0.37555 -0.125185,0.12519 -0.250371,0.18778 -0.438149,0.25037 -0.187778,0.0626 -0.375556,0.0626 -0.625927,0.0626 -0.250371,0 -0.438149,0 -0.625927,-0.0626 -0.187778,-0.0626 -0.312963,-0.12518 -0.438149,-0.25037 -0.125185,-0.12518 -0.250371,-0.25037 -0.312963,-0.37555 -0.06259,-0.18778 -0.125186,-0.37556 -0.125186,-0.56334 0,-0.18777 0.06259,-0.37555 0.125186,-0.56333 0.06259,-0.12519 0.125185,-0.31296 0.250371,-0.37556 0.125185,-0.12518 0.25037,-0.18778 0.438148,-0.25037 0.125186,0 0.312964,-0.0626 0.563335,-0.0626 z m 0,0.43815 c -0.187778,0 -0.312964,0 -0.438149,0.0626 -0.125186,0 -0.250371,0.0626 -0.375556,0.12519 -0.125186,0.0626 -0.187778,0.12518 -0.250371,0.25037 -0.06259,0.12518 -0.06259,0.25037 -0.06259,0.43815 0,0.18777 0,0.31296 0.06259,0.43815 0.06259,0.12518 0.125185,0.18777 0.250371,0.25037 0.125185,0.0626 0.25037,0.12518 0.375556,0.12518 0.125185,0 0.250371,0.0626 0.438149,0.0626 0.187778,0 0.312963,0 0.438149,-0.0626 0.125185,-0.0626 0.25037,-0.0626 0.375556,-0.12518 0.125185,-0.0626 0.187778,-0.12519 0.250371,-0.25037 0.06259,-0.12519 0.06259,-0.25038 0.06259,-0.43815 0,-0.18778 0,-0.31297 -0.06259,-0.43815 -0.06259,-0.12519 -0.125186,-0.18778 -0.250371,-0.25037 -0.125186,-0.0626 -0.250371,-0.12519 -0.375556,-0.12519 -0.125186,-0.0626 -0.250371,-0.0626 -0.438149,-0.0626 z m 1.439632,-3.56779 v 0.31297 h -0.06259 v 0.0626 l -2.190744,0.56333 2.190744,0.56334 v 0.0626 h 0.06259 v 0.37556 l -0.06259,0.0626 v 0.0626 l -2.628893,0.75112 h -0.125186 l -0.06259,-0.0626 v -0.25037 l 0.06259,-0.0626 0.06259,-0.0626 2.378523,-0.62593 -2.378523,-0.62593 h -0.06259 l -0.06259,-0.0626 v -0.25037 h 0.06259 v -0.0626 h 0.06259 l 2.378523,-0.68852 -2.378523,-0.62593 h -0.06259 l -0.06259,-0.0626 v -0.25037 l 0.06259,-0.0626 h 0.125186 l 2.628893,0.75112 v 0.0626 l 0.06259,0.0626 m -0.125186,-2.94186 h 0.125186 v 1.43964 l -0.06259,0.12518 c 0,0 -0.06259,0.0626 -0.125185,0.0626 h -2.503708 c -0.06259,0 -0.125186,0 -0.125186,-0.0626 l -0.06259,-0.12518 v -1.43964 h 0.25037 v 1.18927 h 0.876298 v -1.00149 h 0.250371 v 1.00149 h 1.001483 v -1.18927 h 0.375556 z m 0.06259,-2.5663 0.06259,0.12519 v 0.31296 h -0.06259 l -0.68852,0.25037 c -0.06259,0 -0.125185,0.0626 -0.187778,0.12519 -0.06259,0.0626 -0.125185,0.0626 -0.187778,0.12518 -0.06259,0.0626 -0.06259,0.12519 -0.125185,0.18778 0,0.0626 -0.06259,0.12519 -0.06259,0.25037 v 0.25037 h 1.189261 v 0.25037 h -2.5663 c -0.06259,0 -0.125186,0 -0.125186,-0.0626 l -0.06259,-0.12518 v -0.93889 c 0,-0.12519 0.06259,-0.18778 0.06259,-0.31297 0.06259,-0.0626 0.06259,-0.12518 0.125186,-0.18778 0.06259,-0.0626 0.125185,-0.12518 0.187778,-0.12518 0.06259,0 0.187778,-0.0626 0.250371,-0.0626 0.125185,0 0.187778,0 0.25037,0.0626 0.06259,0 0.125186,0.0626 0.187779,0.12518 0.06259,0.0626 0.125185,0.12519 0.125185,0.18778 0.06259,0.0626 0.06259,0.12519 0.125185,0.25037 l 0.06259,-0.12518 0.125185,-0.12519 c 0.06259,-0.0626 0.125186,-0.0626 0.125186,-0.0626 0.06259,0 0.125185,-0.0626 0.187778,-0.0626 l 0.625927,-0.25037 0.375556,-0.0626 z m -2.002966,0.62593 c -0.125186,0 -0.187778,0 -0.312964,0.0626 -0.06259,0.0626 -0.125185,0.12519 -0.187778,0.25037 v 0.62593 h 0.938891 v -0.37555 c 0,-0.12519 0,-0.18778 -0.06259,-0.25038 0,-0.0626 -0.06259,-0.12518 -0.125185,-0.18777 -0.06259,-0.0626 -0.125186,-0.0626 -0.125186,-0.12519 H 45.066726 Z M 300.0068,131.09797 c -0.12518,0.43815 -0.56333,0.8763 -1.00148,1.06408 -0.31296,0.12519 -1.94037,0.56333 -7.6989,2.19075 l -0.8763,0.25037 v -2.19075 c 0,0 1.56482,-0.43815 3.50519,-0.8763 l 3.50519,-0.87629 -1.62741,-0.43815 c -3.81815,-1.00149 -4.44408,-1.18926 -4.69445,-1.31445 -0.37556,-0.18778 -0.62593,-0.43815 -0.68852,-0.81371 -0.0626,-0.18777 -0.0626,-0.62592 0,-0.8137 0.12518,-0.37556 0.37556,-0.68852 0.8137,-0.8763 0.25037,-0.12518 1.06408,-0.31296 4.19372,-1.12667 1.06407,-0.25037 1.94037,-0.50074 1.94037,-0.50074 0,0 -1.25186,-0.37555 -3.4426,-0.93889 l -3.50519,-0.8763 v -2.19074 c 0,0 0.8763,0.25037 1.87778,0.50074 4.81964,1.31445 6.44705,1.81519 6.76001,1.94037 0.50074,0.25037 0.81371,0.62593 0.93889,1.06408 0.0626,0.18778 0.0626,0.56333 0,0.75111 -0.0626,0.25037 -0.12518,0.37556 -0.37555,0.62593 -0.18778,0.18778 -0.25037,0.25037 -0.43815,0.31296 -0.31297,0.12519 -0.81371,0.31297 -4.3189,1.25186 -0.8137,0.25037 -1.50222,0.43815 -1.50222,0.43815 0,0 0.75111,0.25037 1.75259,0.50074 2.19075,0.62592 3.31741,0.93889 3.63038,1.00148 0.68852,0.18778 1.12667,0.62593 1.25185,1.12667 z m -3.38,-11.45446 h -3.31742 v -2.12815 h 6.63483 v 2.12815 z m 0,-4.19371 h -3.31742 v -2.12815 h 6.63483 v 2.12815 z m -4.50668,3.4426 c -0.12518,0.50074 -0.50074,0.8763 -1.00148,0.93889 -0.56334,0.12518 -1.12667,-0.31297 -1.31445,-0.8763 -0.0626,-0.31296 -0.0626,-0.68852 0.12519,-0.93889 0.0626,-0.18778 0.31296,-0.43815 0.43815,-0.50074 0.50074,-0.31297 1.18926,-0.12519 1.50222,0.37555 0.25037,0.31297 0.31296,0.68852 0.25037,1.00149 z m 0,-4.19371 c -0.12518,0.62592 -0.75111,1.06407 -1.31444,0.93889 -0.43815,-0.0626 -0.81371,-0.43815 -0.9389,-0.8763 -0.0626,-0.31296 -0.0626,-0.68852 0.12519,-0.93889 0.0626,-0.18778 0.31296,-0.37556 0.43815,-0.50074 0.50074,-0.31297 1.18926,-0.12519 1.50222,0.37555 0.18778,0.31297 0.25037,0.68852 0.18778,1.00149 z"
     id="path6"
     inkscape:connector-curvature="0"
     style="fill:#bdbbb8" />
  <path
     d="m 152.35064,119.89386 -121.55503,-1.75259 -0.438149,-0.12519 c -3.442599,-1.12667 -5.946307,-4.63186 -5.946307,-8.32483 0,-3.56778 2.253337,-6.50964 5.883714,-7.6989 l 0.438149,-0.12519 122.368733,-2.941849 h 3.75556 l 122.43133,2.941849 0.43815,0.12519 c 3.63037,1.18926 5.88371,4.13112 5.88371,7.6989 0,3.69297 -2.50371,7.19816 -5.88371,8.26224 l -0.43815,0.12518 -123.558,1.7526 -3.38,0.0626 z"
     id="path8"
     inkscape:connector-curvature="0"
     style="fill:#eeefec" />
  <path
     d="M 153.16434,102.05494 31.296351,104.9968 c -5.758528,1.87778 -4.131118,8.63779 0,10.01483 l 121.054289,1.7526 h 3.38 l 123.05726,-1.7526 c 4.13111,-1.37704 5.75853,-8.13705 0,-10.01483 l -121.99318,-2.94186 z"
     id="path10"
     inkscape:connector-curvature="0"
     style="fill:#91b9e3" />
  <path
     d="m 33.048947,105.56013 c -5.695936,1.37704 -4.131118,6.38446 0,7.38594 l 119.301693,1.25185 c 0.8137,0.0626 1.81519,0 2.69148,0 l 121.99318,-1.31444 c 4.13112,-1.00149 5.69594,-6.0089 0,-7.38594 l -121.99318,-2.19075 c -40.62266,0.62593 -81.307917,1.50223 -121.993173,2.25334 z"
     id="path12"
     inkscape:connector-curvature="0" />
  <path
     d="m 72.920498,150.81466 h -3.129635 v -1.12667 c 0,-0.25037 0,-0.43815 0.06259,-0.50074 0.06259,-0.12519 0.125185,-0.18778 0.312963,-0.25038 0.125186,-0.0626 0.312964,-0.12518 0.500742,-0.12518 0.250371,0 0.438149,0.0626 0.563334,0.18778 0.125186,0.12518 0.250371,0.31296 0.250371,0.56333 0.06259,-0.12518 0.125186,-0.18778 0.187778,-0.18778 0.125186,-0.12518 0.250371,-0.18777 0.375556,-0.25037 l 0.876298,-0.43815 v 0.43815 l -0.625927,0.31297 c -0.250371,0.12518 -0.438149,0.25037 -0.500741,0.31296 l -0.187778,0.18778 c 0,0.0626 -0.06259,0.12518 -0.06259,0.25037 v 0.37555 h 1.377039 z m -1.752595,-0.31297 v -0.75111 c 0,-0.18778 0,-0.25037 -0.06259,-0.37556 -0.06259,-0.12518 -0.125185,-0.12518 -0.187778,-0.18777 -0.06259,-0.0626 -0.187778,-0.0626 -0.312964,-0.0626 -0.187778,0 -0.312963,0.0626 -0.375556,0.12519 -0.06259,0.0626 -0.125185,0.25037 -0.125185,0.43815 v 0.8137 h 1.064076 z m -1.001484,-4.13112 v 1.50223 h 0.938891 v -1.43963 h 0.375556 v 1.43963 h 1.064076 v -1.56482 h 0.375556 v 1.94037 h -3.129635 v -1.87778 m 2.128152,-0.43815 -0.06259,-0.31296 c 0.187778,0 0.312964,-0.0626 0.375557,-0.12518 0.125185,-0.0626 0.187778,-0.12519 0.25037,-0.25037 0.06259,-0.12519 0.06259,-0.25038 0.06259,-0.37556 0,-0.18778 -0.06259,-0.37556 -0.125185,-0.50074 -0.125186,-0.12519 -0.250371,-0.18778 -0.375557,-0.18778 -0.06259,0 -0.187778,0 -0.25037,0.0626 l -0.187778,0.18778 c -0.06259,0.0626 -0.125186,0.25037 -0.187779,0.50074 -0.06259,0.25037 -0.125185,0.43815 -0.187778,0.50074 l -0.25037,0.25037 c -0.125186,0.0626 -0.250371,0.0626 -0.375557,0.0626 -0.250371,0 -0.438149,-0.0626 -0.625927,-0.25037 -0.187778,-0.18778 -0.250371,-0.37556 -0.250371,-0.68852 0,-0.18778 0.06259,-0.37556 0.125186,-0.50075 0.06259,-0.12518 0.187778,-0.25037 0.312963,-0.31296 0.125186,-0.0626 0.312964,-0.12518 0.500742,-0.12518 v 0.31296 c -0.187778,0 -0.375556,0.0626 -0.438149,0.18778 -0.125185,0.12518 -0.125185,0.25037 -0.125185,0.43815 0,0.18777 0.06259,0.31296 0.125185,0.43815 0.06259,0.12518 0.187778,0.12518 0.312964,0.12518 0.125185,0 0.25037,-0.0626 0.312963,-0.12518 0.06259,-0.0626 0.125186,-0.25038 0.187778,-0.50075 0.06259,-0.25037 0.125186,-0.43815 0.187778,-0.56333 0.06259,-0.18778 0.187778,-0.25037 0.312964,-0.37556 0.125185,-0.0626 0.312963,-0.12518 0.438149,-0.12518 0.187778,0 0.312963,0.0626 0.500741,0.12518 0.125186,0.0626 0.250371,0.18778 0.312964,0.31297 0.06259,0.12518 0.125185,0.31296 0.125185,0.50074 0,0.31296 -0.125185,0.56333 -0.312963,0.75111 -0.125186,0.50074 -0.375556,0.56333 -0.68852,0.56333 z m -1.752596,-4.38148 v 1.56481 h 0.938891 v -1.43963 h 0.375556 v 1.43963 h 1.064076 v -1.62741 h 0.375556 v 1.94038 h -3.129635 v -1.87778 m 0,-0.31297 v -2.06556 h 0.375556 v 0.8763 h 2.754079 v 0.31296 h -2.754079 v 0.8763"
     id="path14"
     inkscape:connector-curvature="0"
     style="fill:#bdbbb8" />
  <path
     d="m 30.357461,156.19763 -0.68852,-17.08781 c 0,-1.25185 0.93889,-2.25334 2.128152,-2.25334 h 6.071492 c 1.189261,0 2.128152,1.00149 2.128152,2.19075 l 0.68852,17.1504 z"
     id="path16"
     inkscape:connector-curvature="0"
     style="fill:#ffffff" />
  <path
     d="m 34.238208,161.33023 c -1.064076,0 -1.502225,-0.81371 -1.752595,-1.31445 l -0.125186,-0.18778 -2.002966,-3.63037 h 10.327796 l 1.439632,2.50371 c 0.250371,0.50074 0.250371,1.12666 0,1.56481 -0.312964,0.62593 -1.064076,1.00149 -1.815189,1.00149 h -6.071492 z"
     id="path18"
     inkscape:connector-curvature="0"
     style="fill:#edefea" />
  <path
     d="m 31.04598,156.19763 -0.688519,-17.02522 c 0,-0.56333 0.500741,-1.06407 1.064076,-1.06407 h 6.634826 c 0.563334,0 1.064076,0.50074 1.064076,1.06407 l 0.68852,17.02522 z"
     id="path20"
     inkscape:connector-curvature="0"
     style="fill:#ebece7" />
  <path
     d="M 39.808959,156.19763 H 31.04598 l 1.940374,3.38 c 0.312964,0.56334 0.438149,0.93889 0.938891,0.93889 h 6.885197 c 0.500742,0 1.189261,-0.50074 0.93889,-0.93889 z"
     id="path22"
     inkscape:connector-curvature="0"
     style="fill:#e4e4e2" />
  <path
     d="m 31.671906,143.86687 h 3.880748 v 0.56333 h -3.880748 z"
     id="path24"
     inkscape:connector-curvature="0"
     style="fill:#b9bcbf" />
  <path
     d="m 32.485613,142.99057 h 0.688519 c 0.438149,-0.62593 1.126669,-1.06408 1.940374,-1.06408 1.251854,0 2.31593,1.00149 2.31593,2.31593 0,1.25186 -1.001483,2.31593 -2.31593,2.31593 -0.813705,0 -1.502225,-0.43815 -1.940374,-1.06407 v 0.0626 h -0.625927 c 0.500742,0.93889 1.439632,1.56482 2.566301,1.56482 1.62741,0 2.879264,-1.31445 2.879264,-2.87927 0,-1.62741 -1.314446,-2.87926 -2.879264,-2.87926 -1.189261,0 -2.190745,0.68852 -2.628893,1.62741 z"
     id="path26"
     inkscape:connector-curvature="0"
     style="fill:#b9bcbf" />
  <path
     d="m 35.239691,153.50614 c -0.312963,0 -0.625927,-0.12518 -0.876297,-0.37555 -0.250371,-0.25038 -0.375557,-0.56334 -0.375557,-0.8763 0,-0.68852 0.563335,-1.18926 1.189262,-1.18926 0.312963,0 0.625927,0.12518 0.876298,0.37555 0.25037,0.25037 0.375556,0.56334 0.375556,0.8763 0,0.31296 -0.125186,0.62593 -0.375556,0.8763 -0.187779,0.18778 -0.500742,0.31296 -0.813706,0.31296 z"
     id="path28"
     inkscape:connector-curvature="0"
     style="fill:#b2d42e" />
  <path
     d="m 35.239691,151.56577 c -0.438148,0 -0.751112,0.31296 -0.751112,0.75111 0,0.18778 0.06259,0.37556 0.250371,0.56333 0.125185,0.12519 0.312963,0.25038 0.563334,0.25038 0.187778,0 0.375556,-0.0626 0.563334,-0.25038 0.125186,-0.12518 0.250371,-0.31296 0.250371,-0.56333 0,-0.18778 -0.06259,-0.37556 -0.250371,-0.56333 -0.25037,-0.12519 -0.438148,-0.18778 -0.625927,-0.18778 z"
     id="path30"
     inkscape:connector-curvature="0"
     style="fill:#d2eb76" />
  <path
     d="m 57.835657,156.19763 -0.563334,-17.08781 c 0,-1.25185 0.813705,-2.25334 1.877781,-2.25334 h 5.257787 c 1.001483,0 1.877781,1.00149 1.877781,2.19075 l 0.563334,17.1504 z"
     id="path32"
     inkscape:connector-curvature="0"
     style="fill:#ffffff" />
  <path
     d="m 61.215663,161.33023 c -0.938891,0 -1.314447,-0.81371 -1.502225,-1.31445 l -0.06259,-0.18778 -1.752595,-3.63037 h 9.013349 l 1.251854,2.50371 c 0.250371,0.50074 0.250371,1.12666 0,1.56481 -0.312964,0.62593 -0.938891,1.00149 -1.564818,1.00149 h -5.382972 z"
     id="path34"
     inkscape:connector-curvature="0"
     style="fill:#edefea" />
  <path
     d="m 58.398991,156.19763 -0.563334,-17.02522 c 0,-0.56333 0.438149,-1.06407 0.938891,-1.06407 h 5.758528 c 0.500742,0 0.938891,0.50074 0.938891,1.06407 l 0.563334,17.02522 z"
     id="path36"
     inkscape:connector-curvature="0"
     style="fill:#ebece7" />
  <path
     d="m 66.035301,156.19763 h -7.63631 l 1.690003,3.38 c 0.250371,0.56334 0.375557,0.93889 0.813705,0.93889 h 6.0089 c 0.438149,0 1.064076,-0.50074 0.813705,-0.93889 z"
     id="path38"
     inkscape:connector-curvature="0"
     style="fill:#e4e4e2" />
  <path
     d="m 279.53901,156.19763 0.68852,-17.08781 c 0,-1.25185 -1.00148,-2.25334 -2.19075,-2.25334 h -6.25927 c -1.18926,0 -2.19074,1.00149 -2.19074,2.19075 l -0.68852,17.1504 z"
     id="path40"
     inkscape:connector-curvature="0"
     style="fill:#ffffff" />
  <path
     d="m 275.53308,161.33023 c 1.12666,0 1.56481,-0.81371 1.81518,-1.31445 l 0.12519,-0.18778 2.12815,-3.63037 h -10.70335 l -1.50223,2.50371 c -0.31296,0.50074 -0.25037,1.12666 0,1.56481 0.37556,0.62593 1.12667,1.00149 1.87779,1.00149 h 6.25927 z"
     id="path42"
     inkscape:connector-curvature="0"
     style="fill:#edefea" />
  <path
     d="m 278.91308,156.19763 0.68852,-17.02522 c 0,-0.56333 -0.50074,-1.06407 -1.12667,-1.06407 h -6.88519 c -0.62593,0 -1.12667,0.50074 -1.12667,1.06407 l -0.68852,17.02522 z"
     id="path44"
     inkscape:connector-curvature="0"
     style="fill:#ebece7" />
  <path
     d="m 269.77455,156.19763 h 9.07594 l -2.00297,3.38 c -0.31296,0.56334 -0.43815,0.93889 -1.00148,0.93889 h -7.13557 c -0.56333,0 -1.25185,-0.50074 -1.00148,-0.93889 z"
     id="path46"
     inkscape:connector-curvature="0"
     style="fill:#e4e4e2" />
  <path
     d="m 142.46099,136.10537 v 1.00148 h 25.16227 v -1.00148 h -25.16227"
     id="path48"
     inkscape:connector-curvature="0"
     style="fill:#808080" />
  <path
     d="m 215.88223,156.19763 h -0.68852 c 0,1.00148 -0.62593,4.56927 -1.62741,4.56927 H 96.643132 c -1.001483,0 -1.62741,-3.56779 -1.62741,-4.56927 h -0.68852 c 0,1.00148 0.813706,4.88223 1.815189,4.88223 H 214.06704 c 1.00149,0 1.81519,-3.94334 1.81519,-4.88223"
     id="path50"
     inkscape:connector-curvature="0"
     style="fill:#848381" />
  <path
     d="M 212.06408,135.60463 H 98.020172 c -2.31593,0 -3.818155,2.25334 -3.818155,4.69445 v 15.89855 h 0.68852 l -0.187778,-15.71077 c 0,-2.19074 1.251854,-4.19371 3.25482,-4.19371 H 142.3984 v -0.18778 h 25.16226 v 0.18778 h 44.44082 c 2.00297,0 3.25482,2.00297 3.25482,4.19371 l -0.18777,15.71077 h 0.68852 v -15.89855 c 0.12518,-2.44111 -1.37704,-4.69445 -3.69297,-4.69445"
     id="path52"
     inkscape:connector-curvature="0"
     style="fill:#8a8b8a" />
  <path
     d="m 167.62326,136.10537 h -25.16227 v 0.12519 h 25.16227 v -0.12519"
     id="path54"
     inkscape:connector-curvature="0"
     style="fill:#595959" />
  <path
     d="m 272.84159,146.87132 2.81667,-2.25334 v 4.50667 m 0.81371,-4.50668 h 0.75112 v 4.50668 h -0.75112 z"
     id="path56"
     inkscape:connector-curvature="0"
     style="fill:#bdbbb8" />
  <path
     d="m 155.04212,64.248951 h 113.79354 c 0.62592,0 1.31444,0.18778 1.87778,0.50074 l 38.30673,22.90893 H 1.0640759 L 39.37081,64.749691 c 0.563334,-0.31296 1.189261,-0.50074 1.877781,-0.50074 z"
     id="path58"
     inkscape:connector-curvature="0"
     style="fill:#ebeae8" />
  <path
     d="M 292.62088,84.591581 H 17.463364 v -0.0626 l 0.06259,-0.0626 c 0.25037,-0.18778 1.189261,-0.75111 4.506674,-2.75408 L 46.881931,66.877831 H 263.26491 l 24.72411,14.83447 c 3.31742,2.00297 4.25631,2.5663 4.50668,2.75408 l 0.12518,0.0626 z M 17.901513,84.403801 H 292.18273 c -3.00444,-1.81519 -28.10412,-16.83744 -29.04301,-17.40077 H 46.944527 c -0.876298,0.56333 -26.038564,15.64817 -29.043014,17.40077 z"
     id="path60"
     inkscape:connector-curvature="0"
     style="fill:#bdbbb8" />
  <path
     d="M 6.3218629,84.403801 H 17.588549 v 0.18778 H 6.3218629 Z m 286.2364171,0 h 11.26669 v 0.18778 h -11.26669 z"
     id="path62"
     inkscape:connector-curvature="0"
     style="fill:#bdbbb8" />
  <g
     transform="matrix(0.9756409,0,0,0.9756409,334.72643,0)"
     id="g154">
    <path
       d="M 84.7,169.4 C 38,169.4 0,131.4 0,84.7 0,38 38,0 84.7,0 c 46.7,0 84.7,38 84.7,84.7 0,46.7 -38,84.7 -84.7,84.7 z m 0,-169.3 c -46.6,0 -84.6,38 -84.6,84.6 0,46.6 37.9,84.5 84.5,84.5 46.6,0 84.5,-37.9 84.5,-84.5 C 169.2,38.1 131.3,0.1 84.7,0.1 Z"
       id="path64"
       inkscape:connector-curvature="0"
       style="fill:#0f1317" />
    <path
       d="m 166.9,84.7 c 0,45.4 -36.8,82.2 -82.2,82.2 C 39.3,166.9 2.5,130.1 2.5,84.7 2.5,39.3 39.3,2.5 84.7,2.5 c 45.4,0 82.2,36.8 82.2,82.2 z m -82.2,-21 c -11.6,0 -21,9.4 -21,21 0,11.6 9.4,21 21,21 11.6,0 21,-9.4 21,-21 0,-11.6 -9.4,-21 -21,-21 z"
       id="path66"
       inkscape:connector-curvature="0"
       style="fill:#005c9b" />
    <path
       d="M 84.7,99.4 C 76.6,99.4 70,92.8 70,84.7 70,76.6 76.6,70 84.7,70 c 8.1,0 14.7,6.6 14.7,14.7 0,8.1 -6.6,14.7 -14.7,14.7 z M 84.7,71 C 77.1,71 71,77.1 71,84.7 c 0,7.5 6.1,13.7 13.7,13.7 7.5,0 13.7,-6.1 13.7,-13.7 C 98.4,77.1 92.2,71 84.7,71 Z"
       id="path68"
       inkscape:connector-curvature="0"
       style="fill:#a299a1" />
    <path
       d="m 84.7,96.5 c -6.5,0 -11.8,-5.3 -11.8,-11.8 0,-6.5 5.3,-11.8 11.8,-11.8 6.5,0 11.8,5.3 11.8,11.8 0,6.5 -5.3,11.8 -11.8,11.8 z m 0,-22.7 c -6,0 -10.8,4.9 -10.8,10.8 0,6 4.9,10.8 10.8,10.8 6,0 10.8,-4.9 10.8,-10.8 0,-5.9 -4.8,-10.8 -10.8,-10.8 z"
       id="path70"
       inkscape:connector-curvature="0"
       style="fill:#a299a1" />
    <path
       d="M 24.3,91.9 C 23.7,91.7 23.1,91.2 22.8,90.5 22.6,90.1 22,87.8 19.8,79.8 l -0.3,-1.2 h 3 c 0,0 0.6,2.2 1.3,4.9 l 1.2,4.8 0.6,-2.2 c 1.4,-5.3 1.6,-6.2 1.8,-6.5 0.2,-0.5 0.6,-0.9 1.1,-1 0.3,-0.1 0.9,-0.1 1.1,0 0.5,0.1 1,0.5 1.2,1.1 0.1,0.3 0.4,1.5 1.6,5.8 0.4,1.5 0.7,2.7 0.7,2.7 0,0 0.5,-1.8 1.3,-4.8 l 1.2,-4.8 h 3 c 0,0 -0.3,1.2 -0.7,2.6 -1.9,6.7 -2.5,9 -2.7,9.4 -0.3,0.7 -0.8,1.1 -1.5,1.3 -0.3,0.1 -0.8,0.1 -1.1,0 -0.4,-0.1 -0.6,-0.2 -0.9,-0.5 -0.2,-0.2 -0.3,-0.3 -0.4,-0.6 -0.2,-0.4 -0.4,-1.1 -1.7,-6 -0.3,-1.1 -0.6,-2.1 -0.6,-2.1 0,0 -0.3,1.1 -0.7,2.5 -0.8,3 -1.3,4.6 -1.4,5.1 -0.3,0.9 -0.8,1.5 -1.5,1.7 -0.3,0 -0.9,0 -1.1,-0.1 z M 40.1,87.3 V 82.7 H 43 v 9.2 h -2.8 v -4.6 z m 5.8,0 v -4.6 h 2.8 v 9.2 h -2.8 z m 4,4.1 V 91 h -0.2 c -0.2,0 -0.2,0 -0.2,-0.1 v -0.1 h 0.9 v 0.1 c 0,0.1 0,0.1 -0.2,0.1 H 50 v 1 h -0.1 z m 0.6,0 v -0.5 h 0.4 l 0.1,0.3 c 0.1,0.2 0.1,0.4 0.1,0.4 0,0.1 0.1,0 0.2,-0.4 l 0.1,-0.3 h 0.4 v 1 h -0.2 v -0.4 c 0,-0.4 0,-0.4 -0.2,0.1 -0.1,0.3 -0.1,0.3 -0.2,0.3 -0.1,0 -0.1,0 -0.2,-0.4 l -0.1,-0.4 v 0.8 H 50.7 V 91.4 Z M 41.2,81 c -0.7,-0.1 -1.2,-0.7 -1.3,-1.3 -0.1,-0.8 0.4,-1.6 1.2,-1.8 0.4,-0.1 0.9,-0.1 1.3,0.1 0.2,0.1 0.6,0.4 0.7,0.7 0.4,0.7 0.2,1.7 -0.5,2.1 -0.4,0.2 -1,0.3 -1.4,0.2 z m 5.8,0 c -0.8,-0.2 -1.4,-1 -1.3,-1.8 0.1,-0.6 0.6,-1.2 1.2,-1.3 0.4,-0.1 0.9,-0.1 1.3,0.1 0.2,0.1 0.5,0.4 0.7,0.6 0.4,0.7 0.2,1.7 -0.5,2.1 C 48,81 47.4,81.1 47,81 Z M 18.6,77.4"
       id="path72"
       inkscape:connector-curvature="0"
       style="fill:#c1cdcc" />
    <circle
       cx="84.699997"
       cy="84.699997"
       r="21"
       stroke-miterlimit="10"
       id="circle74"
       style="fill:none;stroke:#2b84c6;stroke-miterlimit:10" />
    <g
       id="g82"
       style="fill:#c1cdcc">
      <path
         d="m 74.8,152 c -2.1,0 -3.5,-1.5 -3.5,-3.4 0,-1.9 1.4,-3.4 3.5,-3.4 h 19.8 c 2.1,0 3.5,1.5 3.5,3.4 0,1.9 -1.4,3.4 -3.5,3.4 z m 0,-6 c -1.7,0 -2.7,1.2 -2.7,2.6 0,1.4 1,2.6 2.7,2.6 h 19.8 c 1.7,0 2.7,-1.1 2.7,-2.6 0,-1.4 -1,-2.6 -2.7,-2.6 z"
         id="path76"
         inkscape:connector-curvature="0" />
      <path
         d="m 73.9,146.9 h 1 l 1.3,2.2 v -2.2 h 1 v 3.2 h -1 l -1.3,-2.2 v 2.2 h -1 z m 8.5,0.4 h 0.9 v 0.4 h 0.5 v 0.3 h -0.5 v 2.1 H 82.4 V 148 h -0.5 v -0.3 h 0.5 z m -4.7,0.7 h 0.9 v 2.1 h -0.9 z m 0,-1.1 h 0.9 v 0.7 h -0.9 z m 16.4,1 c -0.8,0 -1.4,0.5 -1.4,1.2 0,0.7 0.6,1.2 1.4,1.2 0.8,0 1.4,-0.5 1.4,-1.2 0,-0.7 -0.6,-1.2 -1.4,-1.2 m 0.4,1.2 v 0.5 c 0,0.3 -0.2,0.5 -0.4,0.5 -0.2,0 -0.4,-0.1 -0.4,-0.5 v -0.9 c 0,-0.3 0.2,-0.5 0.4,-0.5 0.2,0 0.4,0.1 0.4,0.5 z m -2.9,0 v -0.4 c 0,-0.3 -0.2,-0.4 -0.4,-0.4 -0.1,0 -0.4,0.1 -0.4,0.4 v 0.8 c 0,0.3 0.2,0.4 0.4,0.4 0.1,0 0.4,-0.1 0.4,-0.4 z m -0.1,-2.2 h 0.9 v 3.2 H 91.5 V 150 c -0.4,0.2 -0.8,0.2 -1.1,0.1 -0.1,0 -0.6,-0.3 -0.6,-1.1 0,-0.6 0.5,-1.2 1.2,-1.1 0.2,0 0.4,0.1 0.5,0.2 z m -10.6,1 c 0.4,0 1.1,0.2 1.1,1.1 v 1.2 h -1 v -1.4 c 0,-0.2 -0.2,-0.4 -0.4,-0.4 -0.3,0 -0.4,0.2 -0.4,0.4 v 1.4 h -0.9 v -2.1 h 0.9 v 0.2 c 0.1,-0.2 0.4,-0.4 0.7,-0.4 m 7.6,0 c 0.4,0 1.1,0.2 1.1,1.1 v 1.2 h -0.9 v -1.4 c 0,-0.2 -0.2,-0.4 -0.4,-0.4 -0.3,0 -0.4,0.2 -0.4,0.4 v 1.4 H 87 V 148 h 0.9 v 0.2 c 0,-0.1 0.3,-0.3 0.6,-0.3 m -3,1.5 v 0.1 c 0,0.4 -0.2,0.5 -0.4,0.5 -0.1,0 -0.4,-0.1 -0.4,-0.5 v -0.4 h 1.8 c 0,-0.7 -0.6,-1.2 -1.4,-1.2 -0.8,0 -1.4,0.5 -1.4,1.2 0,0.7 0.6,1.2 1.4,1.2 0.6,0 1.2,-0.4 1.3,-0.9 z m -0.8,-0.6 c 0,-0.2 0,-0.3 0.1,-0.4 0.1,-0.1 0.2,-0.2 0.3,-0.2 0.1,0 0.3,0.1 0.3,0.2 0.1,0.1 0.1,0.2 0.1,0.4 z m 11,-1.5 c 0.1,0 0.2,0 0.2,-0.1 0,-0.1 -0.1,-0.1 -0.2,-0.1 h -0.1 v 0.2 z m -0.1,0.4 H 95.5 V 147 h 0.3 c 0.2,0 0.3,0.1 0.3,0.2 0,0.1 -0.1,0.2 -0.2,0.2 l 0.2,0.3 H 96 l -0.2,-0.3 h -0.1 z"
         id="path78"
         inkscape:connector-curvature="0" />
      <path
         d="m 95.7,147.9 c 0.3,0 0.5,-0.2 0.5,-0.5 0,-0.3 -0.2,-0.5 -0.5,-0.5 -0.3,0 -0.5,0.2 -0.5,0.5 0,0.2 0.2,0.5 0.5,0.5 m -0.6,-0.6 c 0,-0.4 0.3,-0.6 0.6,-0.6 0.3,0 0.6,0.3 0.6,0.6 0,0.4 -0.3,0.6 -0.6,0.6 -0.3,0.1 -0.6,-0.2 -0.6,-0.6"
         id="path80"
         inkscape:connector-curvature="0" />
    </g>
    <path
       d="m 125.3,79.3 c 4.2,0 7.7,2.4 7.7,5.3 0,2.9 -3.4,5.3 -7.7,5.3 -4.2,0 -7.7,-2.4 -7.7,-5.3 0.1,-2.9 3.5,-5.3 7.7,-5.3 z"
       id="path84"
       inkscape:connector-curvature="0"
       style="fill:#ffffff" />
    <g
       id="g90"
       style="fill:#a58353">
      <path
         d="m 123.7,87.8 h 0.2 c 0,0.1 0,0.1 0.1,0.2 0,0 0.1,0.1 0.2,0.1 h 0.2 l 0.1,-0.1 v -0.1 h -0.3 c -0.1,0 -0.2,-0.1 -0.3,-0.1 -0.1,-0.1 -0.1,-0.1 -0.1,-0.3 0,-0.1 0,-0.2 0.1,-0.3 0.1,-0.1 0.2,-0.1 0.3,-0.1 0.1,0 0.3,0 0.3,0.1 0.1,0.1 0.1,0.2 0.1,0.3 h -0.2 c 0,-0.1 0,-0.1 -0.1,-0.1 h -0.4 l -0.1,0.1 v 0.1 h 0.4 c 0.1,0 0.2,0.1 0.3,0.1 0.1,0.1 0.1,0.2 0.1,0.3 0,0.1 0,0.3 -0.1,0.3 -0.1,0 -0.2,0.1 -0.4,0.1 -0.2,0 -0.3,0 -0.4,-0.1 z m 1.9,0.1 c 0,0.1 -0.1,0.2 -0.1,0.3 -0.1,0.1 -0.2,0.1 -0.3,0.1 -0.1,0 -0.2,0 -0.3,-0.1 -0.1,-0.1 -0.1,-0.2 -0.1,-0.4 0,-0.2 0,-0.3 0.1,-0.4 0.1,-0.1 0.2,-0.1 0.3,-0.1 0.1,0 0.2,0 0.3,0.1 0.1,0.1 0.1,0.2 0.1,0.4 v 0.1 L 125,87.8 V 88 l 0.1,0.1 h 0.1 L 125.3,88 Z M 125,87.6 h 0.3 c 0,-0.1 0,-0.1 -0.1,-0.1 l -0.1,-0.1 c 0,0 -0.1,0 -0.1,0.1 z m 1.5,0.5 c 0,0 0,0.1 0,0 v 0.1 h -0.2 v -0.1 l -0.1,0.1 H 126 c -0.1,0 -0.2,0 -0.2,-0.1 -0.1,-0.1 -0.1,-0.1 -0.1,-0.2 0,-0.1 0,-0.2 0.1,-0.2 0,0 0.1,-0.1 0.3,-0.1 h 0.1 c 0.1,0 0.2,-0.1 0.2,-0.1 v -0.1 h -0.2 v 0.1 H 126 c 0,-0.1 0,-0.2 0.1,-0.3 0.1,-0.1 0.2,-0.1 0.3,-0.1 h 0.2 c 0,0 0.1,0 0.1,0.1 0,0 0,0.1 0.1,0.1 v 0.2 z m -0.2,-0.3 h -0.4 V 88 h 0.1 c 0.1,0 0.1,0 0.2,-0.1 0.1,0.1 0.1,0 0.1,-0.1 z"
         id="path86"
         inkscape:connector-curvature="0" />
      <path
         d="m 126.7,88.2 v -1.3 h 0.2 v 1.3 z"
         id="path88"
         inkscape:connector-curvature="0" />
    </g>
    <path
       d="m 133.9,84.6 0.9,1 -1.3,0.8 0.4,1.5 h -1.4 l -0.1,1.7 -1.6,-0.4 -0.3,1.6 -1.5,-0.6 -0.8,1.4 -1.1,-1 -1,1.4 -1.1,-1.2 -1.2,1.1 -0.8,-1.3 -1.4,0.8 -0.5,-1.5 -1.6,0.6 -0.2,-1.4 -1.5,0.1 0.2,-1.5 h -1.5 l 0.3,-1.6 -1.2,-0.6 0.9,-1 -0.8,-1.5 1.3,-0.4 -0.4,-1.6 h 1.5 l 0.2,-1.5 1.3,0.4 0.4,-1.5 1.3,0.7 0.6,-1.3 1.2,0.8 0.8,-1.3 1.1,1.1 1,-1 0.9,1.3 1.3,-0.9 0.5,1.4 1.3,-0.6 0.3,1.5 1.6,-0.3 v 1.4 l 1.6,0.2 -0.5,1.4 1.4,0.6 z m -0.9,0 c 0,-2.9 -3.4,-5.3 -7.7,-5.3 -4.2,0 -7.7,2.4 -7.7,5.3 0,2.9 3.4,5.3 7.7,5.3 4.2,0.1 7.7,-2.3 7.7,-5.3 z"
       id="path92"
       inkscape:connector-curvature="0"
       style="fill:#a58353" />
    <path
       d="m 122.8,81.9 c 0,-0.4 0.2,-0.4 0.3,-0.4 0.1,0 0.3,0.1 0.3,0.4 0,0.4 -0.2,0.4 -0.3,0.4 -0.1,0 -0.3,0 -0.3,-0.4 z m -0.3,0 c 0,0.6 0.4,0.7 0.6,0.7 0.2,0 0.6,-0.1 0.6,-0.7 0,-0.6 -0.4,-0.7 -0.6,-0.7 -0.2,0 -0.6,0.1 -0.6,0.7 z m 1.7,0.6 H 124 v -0.8 h -0.1 v -0.2 h 0.1 v -0.1 c 0,-0.2 0.1,-0.3 0.3,-0.3 h 0.1 v 0.2 h -0.1 c -0.1,0 -0.1,0 -0.1,0.1 h 0.2 v 0.2 h -0.2 z m 0.5,0 h -0.2 v -0.8 h -0.1 v -0.2 h 0.1 v -0.1 c 0,-0.2 0.1,-0.3 0.3,-0.3 h 0.1 v 0.2 h -0.1 c -0.1,0 -0.1,0 -0.1,0.1 h 0.2 v 0.2 h -0.2 z m 0.5,-0.9 v 0.9 H 125 v -0.9 z m 0,-0.1 H 125 v -0.2 h 0.2 z m 1,0.7 c 0,0.1 -0.1,0.4 -0.4,0.4 -0.4,0 -0.4,-0.3 -0.4,-0.5 0,-0.3 0.1,-0.5 0.4,-0.5 0.1,0 0.4,0.1 0.4,0.4 H 126 c 0,-0.1 0,-0.2 -0.2,-0.2 -0.2,0 -0.2,0.2 -0.2,0.3 0,0.1 0,0.3 0.2,0.3 0.1,0 0.2,-0.1 0.2,-0.2 z m 0.4,-0.6 v 0.9 h -0.2 v -0.9 z m 0,-0.1 h -0.2 v -0.2 h 0.2 z m 0.8,0.7 c 0,0.1 -0.1,0.2 -0.2,0.2 0,0 -0.1,0 -0.1,-0.1 0,-0.1 0.1,-0.1 0.2,-0.1 0.1,0 0.1,0 0.2,-0.1 v 0.1 z m 0.2,-0.4 c 0,-0.2 -0.2,-0.3 -0.4,-0.3 -0.2,0 -0.4,0 -0.4,0.3 h 0.2 c 0,-0.1 0,-0.1 0.2,-0.1 0.1,0 0.2,0 0.2,0.1 0,0.1 0,0.1 -0.1,0.1 h -0.2 c -0.2,0 -0.3,0.1 -0.3,0.3 0,0.2 0.1,0.3 0.3,0.3 0.2,0 0.2,-0.1 0.3,-0.1 v 0.1 h 0.3 c 0,0 -0.1,0 -0.1,-0.1 z m 0.4,-0.5 v 1.2 h -0.2 v -1.2"
       id="path94"
       inkscape:connector-curvature="0"
       style="fill:#a58353" />
    <path
       d="m 125.3,89.5 c 4,0 7.2,-2.2 7.2,-4.9 0,-2.7 -3.2,-4.9 -7.2,-4.9 -4,0 -7.2,2.2 -7.2,4.9 0,2.7 3.3,4.9 7.2,4.9 z m -7,-4.9 c 0,-2.6 3.1,-4.7 7,-4.7 3.9,0 7,2.1 7,4.7 0,2.6 -3.1,4.7 -7,4.7 -3.8,0.1 -7,-2.1 -7,-4.7 z"
       id="path96"
       inkscape:connector-curvature="0"
       style="fill:#a58353" />
    <g
       id="g106"
       style="fill:#a58353">
      <path
         d="m 129.8,86.3 c 0.8,0 1.5,-0.7 1.5,-1.5 0,-0.8 -0.7,-1.5 -1.5,-1.5 h -9.1 c -0.8,0 -1.5,0.7 -1.5,1.5 0,0.8 0.7,1.5 1.5,1.5 z m -9.1,-0.4 c -0.6,0 -1.1,-0.5 -1.1,-1.1 0,-0.6 0.5,-1.1 1.1,-1.1 h 9.1 c 0.6,0 1.1,0.5 1.1,1.1 0,0.6 -0.5,1.1 -1.1,1.1 z"
         id="path98"
         inkscape:connector-curvature="0" />
      <path
         d="m 120.3,85.5 v -1.4 h 0.4 l 0.6,0.9 v -0.9 h 0.5 v 1.4 h -0.5 c 0,-0.1 -0.6,-0.9 -0.6,-0.9 v 0.9 z m 2.9,-1 c 0,0.1 0,0.1 0,0 h 0.2 c 0.4,-0.1 0.5,0.1 0.6,0.1 0.2,0.1 0.1,0.6 0.1,0.9 h -0.5 v -0.7 c 0,-0.1 -0.1,-0.2 -0.2,-0.2 -0.1,0 -0.2,0 -0.2,0.2 v 0.7 h -0.5 v -1 z"
         id="path100"
         inkscape:connector-curvature="0" />
      <path
         d="m 124.7,85.5 h -0.5 V 84.6 H 124 v -0.2 h 0.2 v -0.1 h 0.5 v 0.1 h 0.2 v 0.2 h -0.2 m 0.2,0.4 c 0,-0.3 0.3,-0.5 0.5,-0.5 h 0.3 c 0.1,0 0.1,0 0.2,0.1 0.1,0.1 0.2,0.2 0.2,0.4 h -0.8 c 0,0.1 -0.1,0.4 0.1,0.4 0.1,0 0.1,0 0.2,-0.1 v -0.2 h 0.5 c -0.1,0.3 -0.4,0.4 -0.6,0.4 -0.1,0 -0.6,0 -0.6,-0.5 z m 0.5,-0.1 h 0.3 v -0.1 c 0,-0.1 -0.1,-0.1 -0.2,-0.1 -0.1,0 -0.2,0.1 -0.2,0.2 0.1,-0.1 0.1,-0.1 0.1,0 z m 3.8,0.3 c -0.1,-0.1 -0.1,-0.3 0,-0.5 l 0.3,-0.3 c 0.1,0 0.3,-0.1 0.5,0 0.1,0 0.3,0.1 0.4,0.3 0.1,0.1 0.1,0.4 0,0.5 -0.1,0.1 -0.2,0.2 -0.3,0.2 h -0.5 c -0.2,0 -0.3,0 -0.4,-0.2 z m 0.5,0.2 c 0.1,0 0.2,-0.1 0.2,-0.2 v -0.5 c 0,-0.1 0,-0.2 -0.2,-0.2 -0.2,0 -0.2,0.1 -0.2,0.2 v 0.5 c 0.1,0.1 0.1,0.2 0.2,0.2 z m -0.8,0.1 h -0.4 v -0.1 c -0.1,0.1 -0.6,0.1 -0.8,-0.2 0,0 -0.1,-0.3 0,-0.4 0.1,-0.2 0.4,-0.3 0.5,-0.3 0.1,0 0.2,0.1 0.2,0.1 v -0.5 h 0.4 c 0.1,-0.1 0.1,1.4 0.1,1.4 z m -0.4,-0.2 v -0.6 l -0.1,-0.1 c -0.1,0 -0.1,0.1 -0.1,0.1 v 0.4 c 0,0 0,0.1 0.1,0.1 0,0.2 0.1,0.1 0.1,0.1 z m -6.5,0.2 h 0.5 v -1 H 122 m 0,-0.1 h 0.5 V 84.1 H 122 m 4.7,0.4 c 0.1,0.1 0.1,0.1 0,0 h 0.2 c 0.4,-0.1 0.5,0.1 0.6,0.1 0.2,0.1 0.1,0.6 0.1,0.9 h -0.5 v -0.7 c 0,-0.1 -0.1,-0.2 -0.2,-0.2 -0.1,0 -0.2,0 -0.2,0.2 v 0.7 h -0.4 v -1 z"
         id="path102"
         inkscape:connector-curvature="0" />
      <path
         d="m 130.1,84.4 v -0.1 h 0.2 c -0.1,0 -0.1,0 -0.2,0.1 z m 0,-0.1 c 0.1,0 0.1,0 0,0 0.1,0 0.1,0 0,0 z m 0,0.1 c -0.1,0 -0.1,0 -0.1,-0.1 0,-0.1 0.1,-0.1 0.1,-0.1 0.1,0 0.1,0 0.1,0.1 0.1,0.1 0,0.1 -0.1,0.1 z m 0,-0.2 c -0.1,0 -0.1,0 -0.1,0.1 0,0.1 0,0.1 0.1,0.1 0.1,0 0.1,0 0.1,-0.1 0,-0.1 0,-0.1 -0.1,-0.1 z"
         id="path104"
         inkscape:connector-curvature="0" />
    </g>
    <path
       d="m 145.7,76.300003 h 11.7 v 16.799999 h -11.7 z"
       id="path108"
       inkscape:connector-curvature="0"
       style="fill:#010101" />
    <path
       d="m 146.3,79.099998 h 10.5 v 10.4 H 146.3 Z M 146.8,90.5 c 0,0.2 -0.1,0.4 -0.3,0.4 -0.3,0 -0.3,-0.2 -0.3,-0.4 v -0.1 c 0,-0.2 0,-0.4 0.3,-0.4 0.2,0 0.3,0.1 0.3,0.2 v 0.1 h -0.2 c 0,-0.1 0,-0.2 -0.1,-0.2 -0.1,0 -0.1,0.2 -0.1,0.2 v 0.3 c 0,0.1 0,0.2 0.1,0.2 0.1,0 0.1,-0.2 0.1,-0.2 h 0.2 z m 0.2,-0.2 c 0,-0.2 0,-0.4 0.3,-0.4 0.3,0 0.3,0.2 0.3,0.4 v 0.1 c 0,0.2 0,0.4 -0.3,0.4 -0.3,0 -0.3,-0.2 -0.3,-0.4 z m 0.1,0.2 c 0,0.1 0,0.2 0.1,0.2 0.1,0 0.1,-0.1 0.1,-0.2 v -0.2 c 0,-0.1 0,-0.2 -0.1,-0.2 -0.1,0 -0.1,0.2 -0.1,0.2 z m 1.1,-0.6 h 0.2 v 0.9 h -0.2 l -0.1,-0.3 c 0,-0.1 -0.1,-0.2 -0.1,-0.4 v 0.8 h -0.2 V 90 h 0.2 l 0.1,0.3 c 0,0.1 0.1,0.2 0.1,0.4 z m 0.7,0.1 v 0.8 h -0.2 V 90 h -0.2 v -0.1 h 0.6 V 90 m 0.6,0.4 h -0.3 v 0.3 h 0.3 v 0.1 h -0.5 v -0.9 h 0.5 V 90 h -0.3 v 0.3 h 0.3 m 0.6,-0.4 h 0.2 v 0.9 h -0.2 l -0.1,-0.3 c 0,-0.1 -0.1,-0.2 -0.1,-0.4 v 0.8 h -0.2 V 90 h 0.2 l 0.1,0.3 c 0,0.1 0.1,0.2 0.1,0.4 z M 151,90 v 0.8 h -0.2 V 90 h -0.2 v -0.1 h 0.6 V 90 m 0.6,0.4 v 0.4 h -0.2 v -0.9 h 0.3 c 0.2,0 0.3,0.1 0.3,0.2 0,0.1 0,0.2 -0.1,0.2 0.1,0 0.1,0.1 0.1,0.2 v 0.3 H 152 v -0.2 c 0,-0.1 0,-0.1 -0.1,-0.2 z m 0,-0.1 h 0.1 c 0.1,0 0.1,0 0.1,-0.1 0,-0.1 0,-0.1 -0.1,-0.1 h -0.1 z m 0.5,0.5 0.2,-0.9 h 0.2 l 0.2,0.9 h -0.2 v -0.2 h -0.2 v 0.2 z m 0.3,-0.3 h 0.2 V 90 90.2 Z m 0.8,-0.5 v 0.8 h -0.2 V 90 H 153 v -0.1 h 0.6 V 90 m 0.6,0.4 h -0.3 v 0.3 h 0.3 v 0.1 h -0.5 v -0.9 h 0.5 V 90 h -0.3 v 0.3 h 0.3 m 0.2,0.5 v -0.9 h 0.4 c 0,0 0.1,0 0.2,0.1 0,0.1 0.1,0.2 0.1,0.3 0,0.2 0,0.4 -0.1,0.5 z m 0.3,-0.1 c 0.2,0 0.2,-0.1 0.2,-0.4 0,-0.2 0,-0.3 -0.1,-0.3 h -0.1 z m 0.8,0.1 v -0.9 h 0.3 c 0.1,0 0.2,0 0.2,0.1 v 0.2 c 0,0.1 0,0.2 -0.1,0.2 0.1,0 0.1,0.1 0.1,0.2 v 0.1 c 0,0.1 -0.1,0.2 -0.2,0.2 z m 0.2,-0.1 h 0.1 l 0.1,-0.1 c 0,-0.1 0,-0.1 -0.1,-0.1 h -0.1 z m 0,-0.4 h 0.1 v -0.1 c 0,-0.1 0,-0.1 -0.1,-0.1 h -0.1 z m 0.7,-0.2 v 0.1 c 0,-0.1 0,-0.1 0.1,-0.2 l 0.1,-0.2 h 0.2 l -0.3,0.5 v 0.4 h -0.2 V 90.3 L 156,89.8 h 0.2 z m -8.4,1.8 h -0.9 v 0.3 h 1.2 v 0.3 h -2 v -1.4 h 1.9 v 0.3 h -1.1 v 0.2 h 0.9 m 2.2,-0.1 -0.1,-0.1 h -0.2 c -0.2,0 -0.2,0 -0.2,0.1 0,0.2 1.4,0.1 1.4,0.6 0,0.3 -0.5,0.5 -1.1,0.5 -0.6,0 -1,-0.2 -1.1,-0.5 h 0.8 l 0.1,0.1 h 0.2 c 0.2,0 0.3,0 0.3,-0.1 0,-0.2 -1.4,-0.1 -1.4,-0.6 0,-0.3 0.4,-0.4 1,-0.4 0.7,0 1,0.2 1,0.4 z m 2.3,0.5 v 0.5 h -0.8 v -1.4 h 1.1 c 0.8,0 1.1,0.1 1.1,0.4 0,0.2 -0.1,0.3 -0.4,0.3 0.3,0.1 0.4,0.1 0.4,0.4 0,0.2 0,0.2 0.1,0.2 h -0.8 v -0.2 c 0,-0.2 -0.1,-0.2 -0.4,-0.2 z m 0,-0.3 h 0.3 c 0.2,0 0.4,0 0.4,-0.1 0,-0.1 -0.1,-0.1 -0.3,-0.1 h -0.4 z m 2.1,0.8 v -1.4 h 1.1 c 0.5,0 1,0.1 1,0.3 0,0.1 -0.2,0.2 -0.3,0.3 0.3,0 0.4,0.2 0.4,0.3 0,0.3 -0.4,0.4 -1,0.4 z m 0.8,-0.6 v 0.3 h 0.3 c 0.2,0 0.3,0 0.3,-0.1 0,-0.1 -0.2,-0.1 -0.4,-0.1 h -0.2 z m 0,-0.5 v 0.2 h 0.3 c 0.2,0 0.3,0 0.3,-0.1 0,-0.1 -0.2,-0.1 -0.3,-0.1 z"
       id="path110"
       inkscape:connector-curvature="0"
       style="fill:#ffffff" />
    <path
       d="m 146.6,80 c 0,-0.3 0.3,-0.5 0.6,-0.5 0.3,0 0.6,0.2 0.6,0.5 0,0.3 -0.3,0.6 -0.6,0.6 -0.3,-0.1 -0.6,-0.3 -0.6,-0.6 m 1.1,0 c 0,-0.2 -0.2,-0.5 -0.5,-0.5 -0.3,0 -0.5,0.2 -0.5,0.5 0,0.3 0.2,0.5 0.5,0.5 0.3,0 0.5,-0.3 0.5,-0.5 m -0.6,0 v 0.3 H 147 v -0.6 h 0.2 c 0.1,0 0.3,0 0.3,0.2 0,0.1 0,0.1 -0.1,0.2 0.1,0 0.1,0.1 0.1,0.1 v 0.2 h -0.1 V 80.2 C 147.2,80 147.2,80 147.1,80 m 0.1,-0.1 c 0.1,0 0.1,0 0.1,-0.1 0,0 0,-0.1 -0.1,-0.1 h -0.1 v 0.2 z"
       id="path112"
       inkscape:connector-curvature="0"
       style="fill:#010101" />
    <path
       d="m 156.8,76.9 h -0.9 v 1.7 h 0.9 v -0.4 h -0.5 v -0.3 h 0.5 v -0.4 h -0.5 v -0.3 h 0.5 m -2,0.4 0.3,1 h 0.5 v -1.7 h -0.5 l 0.1,0.9 -0.3,-0.9 h -0.5 v 1.7 h 0.4 v -1 m -1.2,-0.7 c -0.4,0 -0.6,0.2 -0.6,0.5 V 78 c 0,0.4 0.1,0.6 0.6,0.6 0.4,0 0.6,-0.2 0.6,-0.6 v -0.7 c 0,-0.3 -0.2,-0.4 -0.6,-0.4 m 0.1,1.2 c 0,0.1 0,0.2 -0.1,0.2 -0.1,0 -0.2,-0.1 -0.2,-0.2 v -0.7 c 0,-0.1 0,-0.2 0.2,-0.2 0.1,0 0.1,0.1 0.1,0.2 z m -1.3,-1.2 -0.2,0.5 -0.2,-0.5 h -0.5 l 0.5,1 v 0.7 h 0.4 v -0.7 l 0.4,-1 m -1.4,1.1 c 0,-0.1 -0.1,-0.2 -0.2,-0.2 0.2,-0.1 0.2,-0.2 0.2,-0.4 0,-0.3 -0.2,-0.5 -0.5,-0.5 h -0.6 v 1.7 h 0.4 v -0.7 h 0.1 c 0.1,0 0.1,0.1 0.1,0.2 v 0.5 h 0.5 V 78 m -0.6,-0.4 h -0.1 v -0.4 c 0.2,0 0.3,0 0.3,0.2 0,0.1 -0.1,0.2 -0.2,0.2 M 149,76.9 v 1.7 h 1 v -0.4 h -0.6 v -0.3 h 0.6 v -0.4 h -0.6 v -0.3 h 0.6 v -0.3 m -2.5,0 0.4,1.7 h 0.5 l 0.4,-1.7 h -0.4 l -0.3,1.2 -0.2,-1.2 m -1.6,0 v 1.7 h 1 v -0.4 h -0.6 v -0.3 h 0.6 v -0.4 h -0.6 v -0.3 h 0.6 v -0.3"
       id="path114"
       inkscape:connector-curvature="0"
       style="fill:#ffffff" />
    <path
       d="m 151.6,85.4 0.2,0.9 3.8,-0.9 0.6,2.1 -6.4,1.6 -2.3,-8 6.4,-1.7 0.6,2.1 -3.8,1 0.3,0.8 3.8,-0.9 0.6,2.1"
       id="path116"
       inkscape:connector-curvature="0"
       style="fill:#010101" />
    <path
       d="m 136.5,97.800003 h 20.9 V 105.6 h -20.9 z"
       id="path118"
       inkscape:connector-curvature="0"
       style="fill:none" />
    <path
       d="m 156.7,98.3 -0.8,1.4 -0.7,-1.4 h -0.7 c 0.1,0.2 1,1.9 1,1.9 v 1.1 h 0.7 v -1.1 c 0,0 0.9,-1.7 1.1,-1.9 z"
       id="path120"
       inkscape:connector-curvature="0"
       style="fill:#010101" />
    <path
       d="m 136.5,97.800003 h 20.9 V 105.6 h -20.9 z"
       id="path122"
       inkscape:connector-curvature="0"
       style="fill:none" />
    <path
       d="m 136.5,101.7 h 5.6 v -3.9 h -5.6 z m 1.3,-0.5 h -0.6 v -2.9 h 0.6 c 0.7,0 1.2,0.7 1.2,1.4 0,0.9 -0.5,1.5 -1.2,1.5 m 3.6,0 h -0.6 c -0.7,0 -1.2,-0.6 -1.2,-1.4 0,-0.8 0.6,-1.4 1.2,-1.4 h 0.6 z"
       id="path124"
       inkscape:connector-curvature="0"
       style="fill:#010101" />
    <path
       d="m 136.5,97.800003 h 20.9 V 105.6 h -20.9 z"
       id="path126"
       inkscape:connector-curvature="0"
       style="fill:none" />
    <path
       d="m 148.5,100.2 c 0,0.5 -0.2,0.7 -0.7,0.7 -0.5,0 -0.7,-0.1 -0.7,-0.7 v -0.9 c 0,-0.5 0.2,-0.6 0.7,-0.6 0.5,0 0.7,0.1 0.7,0.6 z m 0.3,-1.8 c -0.2,-0.1 -0.6,-0.2 -1,-0.2 -0.4,0 -0.8,0.1 -1,0.2 -0.3,0.2 -0.4,0.4 -0.4,0.9 v 1 c 0,0.4 0.1,0.7 0.4,0.9 0.2,0.1 0.5,0.2 1,0.2 0.5,0 0.8,-0.1 1,-0.2 0.3,-0.2 0.4,-0.5 0.4,-0.9 v -1 c 0,-0.4 -0.1,-0.7 -0.4,-0.9"
       id="path128"
       inkscape:connector-curvature="0"
       style="fill:#010101" />
    <path
       d="m 136.5,97.800003 h 20.9 V 105.6 h -20.9 z"
       id="path130"
       inkscape:connector-curvature="0"
       style="fill:none" />
    <path
       d="m 145.3,100.2 c 0,0.5 -0.3,0.7 -0.5,0.7 H 144 v -2.1 h 0.8 c 0.2,0 0.5,0.1 0.5,0.6 z m -0.5,-1.9 h -1.5 v 3 h 1.6 c 0.8,0 1.1,-0.3 1.1,-1.2 v -0.7 c 0,-0.8 -0.4,-1.1 -1.2,-1.1"
       id="path132"
       inkscape:connector-curvature="0"
       style="fill:#010101" />
    <path
       d="m 136.5,97.800003 h 20.9 V 105.6 h -20.9 z"
       id="path134"
       inkscape:connector-curvature="0"
       style="fill:none" />
    <path
       d="m 149.7,98.3 v 3 h 2 v -0.5 h -1.3 v -2.5"
       id="path136"
       inkscape:connector-curvature="0"
       style="fill:#010101" />
    <path
       d="m 136.5,97.800003 h 20.9 V 105.6 h -20.9 z"
       id="path138"
       inkscape:connector-curvature="0"
       style="fill:none" />
    <path
       d="m 157.3,101 c 0,0.1 -0.1,0.2 -0.2,0.2 -0.1,0 -0.2,-0.1 -0.2,-0.2 0,-0.1 0.1,-0.2 0.2,-0.2 0.1,0 0.2,0.1 0.2,0.2 m -0.5,0 c 0,0.2 0.1,0.3 0.3,0.3 0.2,0 0.3,-0.1 0.3,-0.3 0,-0.2 -0.1,-0.3 -0.3,-0.3 -0.2,0 -0.3,0.1 -0.3,0.3 m 0.2,-0.1 h 0.1 c 0,0 0,0.1 -0.1,0.1 z m 0,0.1 0.1,0.1 h 0.1 l -0.1,-0.1 c 0,0 0.1,0 0.1,-0.1 0,-0.1 0,-0.1 -0.1,-0.1 H 157 v 0.3 h 0.1 z"
       id="path140"
       inkscape:connector-curvature="0"
       style="fill:#010101" />
    <path
       d="m 136.5,97.800003 h 20.9 V 105.6 h -20.9 z"
       id="path142"
       inkscape:connector-curvature="0"
       style="fill:none" />
    <path
       d="m 153.7,99.7 c 0.5,0 0.7,-0.3 0.7,-0.7 0,-0.3 -0.1,-0.5 -0.3,-0.6 -0.1,-0.1 -0.3,-0.1 -0.6,-0.1 H 152 v 3 h 1.4 c 0.4,0 0.6,-0.1 0.7,-0.1 0.1,-0.1 0.3,-0.3 0.3,-0.7 0.1,-0.4 0,-0.8 -0.7,-0.8 m -0.4,1.2 h -0.6 v -2.1 h 0.7 c 0.2,0 0.4,0.2 0.4,0.4 0,0.4 -0.2,0.4 -0.7,0.4 v 0.4 c 0.5,0 0.8,0 0.8,0.5 0,0.1 -0.2,0.4 -0.6,0.4"
       id="path144"
       inkscape:connector-curvature="0"
       style="fill:#010101" />
    <path
       d="m 136.5,97.800003 h 20.9 V 105.6 h -20.9 z"
       id="path146"
       inkscape:connector-curvature="0"
       style="fill:none" />
    <path
       d="m 136.5,97.800003 h 20.9 V 105.6 h -20.9 z"
       id="path148"
       inkscape:connector-curvature="0"
       style="fill:none" />
    <path
       d="m 141.3,104.3 c 0,0.1 0,0.1 -0.1,0.1 l -0.1,0.1 h -0.8 v 0.6 h -0.4 v -1.9 h 1 c 0.2,0 0.3,0 0.4,0.1 0.1,0.1 0.1,0.2 0.1,0.4 v 0.3 c 0,0.2 -0.1,0.2 -0.1,0.3 m -0.3,-0.6 v -0.1 h -0.6 v 0.7 h 0.6 z m 1.7,1.4 -0.4,-0.6 h -0.2 v 0.6 h -0.4 v -1.8 h 1.2 c 0.1,0 0.1,0.1 0.1,0.1 l 0.1,0.1 v 0.6 c 0,0.1 0,0.1 -0.1,0.1 l -0.1,0.1 h -0.3 l 0.5,0.7 z m 0.1,-1.3 v -0.1 h -0.6 v 0.6 h 0.5 c 0.1,0 0.2,-0.1 0.2,-0.2 v -0.3 z m 2.2,1.1 c 0,0.1 -0.1,0.1 -0.1,0.2 0,0 -0.1,0.1 -0.2,0.1 h -0.9 c -0.1,0 -0.1,0 -0.2,-0.1 0,0 -0.1,-0.1 -0.1,-0.2 v -1.4 c 0,-0.1 0.1,-0.1 0.1,-0.1 0,0 0.1,-0.1 0.2,-0.1 h 0.7 c 0.2,0 0.3,0 0.4,0.1 0.1,0.1 0.1,0.2 0.1,0.4 v 1.1 m -0.4,-1.2 v -0.1 h -0.7 v 1.2 h 0.6 v -0.1 z m 1.4,-0.5 h 0.4 v 1.7 h 0.8 v 0.3 H 146 m 3.1,-0.2 c 0,0.1 -0.1,0.1 -0.1,0.2 0,0 -0.1,0.1 -0.2,0.1 h -0.9 c -0.1,0 -0.1,0 -0.2,-0.1 0,0 -0.1,-0.1 -0.1,-0.2 v -1.4 c 0,-0.1 0.1,-0.1 0.1,-0.1 0,0 0.1,-0.1 0.2,-0.1 h 0.7 c 0.2,0 0.3,0 0.4,0.1 0.1,0.1 0.1,0.2 0.1,0.4 v 1.1 m -0.4,-1.3 v -0.1 H 148 v 1.2 h 0.6 v -0.1 z m 1.9,1.5 v -0.1 0.1 c -0.1,-0.1 -0.2,0 -0.2,0 h -0.7 c -0.1,0 -0.1,0 -0.2,-0.1 0,0 -0.1,-0.1 -0.1,-0.2 v -1.1 c 0,-0.1 0,-0.2 0.1,-0.3 0,-0.1 0.1,-0.1 0.1,-0.1 0.1,0 0.1,0 0.2,-0.1 h 0.9 c 0.1,0 0.1,0 0.2,0.1 v 0.2 h -1 v 1.2 h 0.8 v -0.4 h -0.4 v -0.3 h 0.8 v 1.1 z m 0.7,-1.9 h 0.4 v 1.9 h -0.4 z m 2.1,1.9 h -0.7 c -0.2,0 -0.3,0 -0.4,-0.1 -0.1,-0.1 -0.1,-0.2 -0.1,-0.4 v -1.2 c 0,-0.1 0.1,-0.1 0.1,-0.2 0,0 0.1,-0.1 0.2,-0.1 h 0.8 c 0.1,0 0.1,0 0.2,0.1 v 0.2 h -0.9 v 1.2 h 0.9 l -0.1,0.5 c 0,-0.1 0,0 0,0 m 0.99999,-1.9 h 0.4 v 1.9 h -0.4 z m 0.80001,0 h 0.4 v 1.9 h -0.4 z"
       id="path150"
       inkscape:connector-curvature="0"
       style="fill:#010101" />
    <path
       d="m 157.2,105.1 v -2.5 h -20.6 c 0,0 -0.1,0 -0.1,-0.1 0,0 0,-0.1 0.1,-0.1 h 20.8 v 2.7 c 0,0 -0.1,0.1 -0.2,0 0.1,0.1 0,0 0,0"
       id="path152"
       inkscape:connector-curvature="0"
       style="fill:#010101" />
  </g>
</svg>
