<?xml version="1.0" encoding="UTF-8" standalone="no"?>
<svg
   xmlns:dc="http://purl.org/dc/elements/1.1/"
   xmlns:cc="http://creativecommons.org/ns#"
   xmlns:rdf="http://www.w3.org/1999/02/22-rdf-syntax-ns#"
   xmlns:svg="http://www.w3.org/2000/svg"
   xmlns="http://www.w3.org/2000/svg"
   xmlns:sodipodi="http://sodipodi.sourceforge.net/DTD/sodipodi-0.dtd"
   xmlns:inkscape="http://www.inkscape.org/namespaces/inkscape"
   viewBox="-382.3 255.5 139.9359 200"
   version="1.1"
   id="svg146"
   sodipodi:docname="controller.svg"
   width="139.9359"
   height="200"
   inkscape:version="0.92.4 5da689c313, 2019-01-14">
  <metadata
     id="metadata152">
    <rdf:RDF>
      <cc:Work
         rdf:about="">
        <dc:format>image/svg+xml</dc:format>
        <dc:type
           rdf:resource="http://purl.org/dc/dcmitype/StillImage" />
      </cc:Work>
    </rdf:RDF>
  </metadata>
  <defs
     id="defs150" />
  <sodipodi:namedview
     pagecolor="#ffffff"
     bordercolor="#666666"
     borderopacity="1"
     objecttolerance="10"
     gridtolerance="10"
     guidetolerance="10"
     inkscape:pageopacity="0"
     inkscape:pageshadow="2"
     inkscape:window-width="471"
     inkscape:window-height="442"
     id="namedview148"
     showgrid="false"
     inkscape:zoom="1.18"
     inkscape:cx="69.967939"
     inkscape:cy="100"
     inkscape:window-x="0"
     inkscape:window-y="0"
     inkscape:window-maximized="0"
     inkscape:current-layer="svg146">
    <inkscape:grid
       type="xygrid"
       id="grid154"
       originx="-9.7431045e-06"
       originy="0" />
  </sodipodi:namedview>
  <path
     d="m -292.71872,454.79078 c -3.12056,0 -5.67376,-2.55319 -5.67376,-5.67376 V 261.88298 c 0,-3.12057 2.5532,-5.67376 5.67376,-5.67376 h 43.97163 c 3.12057,0 5.67376,2.55319 5.67376,5.67376 v 187.23404 c 0,3.12057 -2.55319,5.67376 -5.67376,5.67376 h -43.97163 M -248.74709,255.5 h -43.97163 c -3.5461,0 -6.38298,2.83688 -6.38298,6.38298 v 187.23404 c 0,3.5461 2.83688,6.38298 6.38298,6.38298 h 43.97163 c 3.5461,0 6.38298,-2.83688 6.38298,-6.38298 V 261.88298 c 0,-3.5461 -2.83688,-6.38298 -6.38298,-6.38298"
     id="path2"
     inkscape:connector-curvature="0"
     style="fill:#c7c8cb" />
  <path
     d="m -269.31446,353.65603 c -2.76596,0 -4.96454,-2.19858 -4.96454,-4.96454 0,-2.76596 2.19858,-4.96454 4.96454,-4.96454 2.76596,0 4.96454,2.19858 4.96454,4.96454 0,2.76596 -2.19858,4.96454 -4.96454,4.96454 m -11.63121,-60.85107 c -0.9929,0 -1.77305,-0.49645 -1.77305,-1.20567 v -4.60993 c 0,-0.6383 0.78015,-1.20567 1.77305,-1.20567 h 8.15603 v -8.15603 c 0,-0.99291 0.49646,-1.77305 1.20568,-1.77305 h 4.60992 c 0.6383,0 1.20568,0.78014 1.20568,1.77305 v 8.15603 h 8.15603 c 0.9929,0 1.77305,0.49645 1.77305,1.20567 v 4.60993 c 0,0.6383 -0.78015,1.20567 -1.77305,1.20567 h -8.15603 v 8.15603 c 0,0.99291 -0.49646,1.77305 -1.20568,1.77305 h -4.60992 c -0.6383,0 -1.20568,-0.78014 -1.20568,-1.77305 v -8.15603 h -8.15603 m 32.19858,-36.59574 h -43.97163 c -3.12056,0 -5.67376,2.55319 -5.67376,5.67376 v 187.23404 c 0,3.12057 2.5532,5.67376 5.67376,5.67376 h 43.97163 c 3.12057,0 5.67376,-2.55319 5.67376,-5.67376 V 261.88298 c 0,-3.12057 -2.55319,-5.67376 -5.67376,-5.67376"
     id="path4"
     inkscape:connector-curvature="0"
     style="fill:#f1f1f2" />
  <path
     d="m -275.05914,432.5922 h -3.5461 v 3.5461 h 3.5461 v -3.5461 m 24.32624,0 h -3.5461 v 3.5461 h 3.5461 v -3.5461 m -12.12766,0 h -3.5461 v 3.5461 h 3.5461 v -3.5461"
     id="path6"
     inkscape:connector-curvature="0"
     style="fill:#5c5c5c" />
  <path
     d="m -287.1868,432.5922 h -3.5461 v 3.5461 h 3.5461 v -3.5461"
     id="path8"
     inkscape:connector-curvature="0"
     style="fill:#11b3ef" />
  <circle
     cx="-263.9953"
     cy="380.25177"
     r="1.0638298"
     id="circle10" />
  <circle
     cx="-269.31445"
     cy="380.25177"
     r="1.0638298"
     id="circle12" />
  <circle
     cx="-274.63361"
     cy="380.25177"
     r="1.0638298"
     id="circle14" />
  <circle
     cx="-263.9953"
     cy="375.99646"
     r="1.0638298"
     id="circle16" />
  <circle
     cx="-269.31445"
     cy="375.99646"
     r="1.0638298"
     id="circle18" />
  <circle
     cx="-274.63361"
     cy="375.99646"
     r="1.0638298"
     id="circle20" />
  <circle
     cx="-263.9953"
     cy="371.74112"
     r="0.70921987"
     id="circle22" />
  <circle
     cx="-269.31445"
     cy="371.74112"
     r="0.70921987"
     id="circle24" />
  <circle
     cx="-274.63361"
     cy="371.74112"
     r="0.70921987"
     id="circle26" />
  <circle
     cx="-263.9953"
     cy="367.48581"
     r="0.35460994"
     id="circle28" />
  <circle
     cx="-269.31445"
     cy="367.48581"
     r="0.35460994"
     id="circle30" />
  <circle
     cx="-274.63361"
     cy="367.48581"
     r="0.35460994"
     id="circle32" />
  <circle
     cx="-263.9953"
     cy="388.76242"
     r="0.35460994"
     id="circle34" />
  <circle
     cx="-269.31445"
     cy="388.76242"
     r="0.35460994"
     id="circle36" />
  <circle
     cx="-274.63361"
     cy="388.76242"
     r="0.35460994"
     id="circle38" />
  <circle
     cx="-263.9953"
     cy="384.50708"
     r="0.70921987"
     id="circle40" />
  <circle
     cx="-269.31445"
     cy="384.50708"
     r="0.70921987"
     id="circle42" />
  <circle
     cx="-274.63361"
     cy="384.50708"
     r="0.70921987"
     id="circle44" />
  <path
     d="m -280.94567,292.52128 c -0.85106,0 -1.48936,-0.42554 -1.48936,-0.92199 v -4.60993 c 0,-0.49645 0.6383,-0.92198 1.48936,-0.92198 h 8.43972 v -8.43972 c 0,-0.85106 0.42553,-1.48936 0.92199,-1.48936 h 4.60992 c 0.49646,0 0.92199,0.6383 0.92199,1.48936 v 8.43972 h 8.43972 c 0.85106,0 1.48936,0.42553 1.48936,0.92198 v 4.60993 c 0,0.49645 -0.6383,0.92199 -1.48936,0.92199 h -8.43972 v 8.43971 c 0,0.85107 -0.42553,1.48936 -0.92199,1.48936 h -4.60992 c -0.49646,0 -0.92199,-0.63829 -0.92199,-1.48936 v -8.43971 h -8.43972 m 13.97163,-16.66667 h -4.60992 c -0.6383,0 -1.20568,0.78014 -1.20568,1.77305 v 8.15603 h -8.15603 c -0.9929,0 -1.77305,0.49645 -1.77305,1.20567 v 4.60993 c 0,0.6383 0.78015,1.20567 1.77305,1.20567 h 8.15603 v 8.15603 c 0,0.99291 0.49646,1.77305 1.20568,1.77305 h 4.60992 c 0.6383,0 1.20568,-0.78014 1.20568,-1.77305 v -8.15603 h 8.15603 c 0.9929,0 1.77305,-0.49645 1.77305,-1.20567 v -4.60993 c 0,-0.6383 -0.78015,-1.20567 -1.77305,-1.20567 h -8.15603 v -8.15603 c -0.0709,-0.99291 -0.56738,-1.77305 -1.20568,-1.77305"
     id="path46"
     inkscape:connector-curvature="0"
     style="fill:#898a8c" />
  <path
     d="m -266.97404,276.1383 h -4.60992 c -0.49646,0 -0.92199,0.6383 -0.92199,1.48936 v 8.43972 h -8.43972 c -0.85106,0 -1.48936,0.42553 -1.48936,0.92198 v 4.60993 c 0,0.49645 0.6383,0.92199 1.48936,0.92199 h 8.43972 v 8.43971 c 0,0.85107 0.42553,1.48936 0.92199,1.48936 h 4.60992 c 0.49646,0 0.92199,-0.63829 0.92199,-1.48936 v -8.43971 h 8.43972 c 0.85106,0 1.48936,-0.42554 1.48936,-0.92199 v -4.60993 c 0,-0.49645 -0.6383,-0.92198 -1.48936,-0.92198 h -8.43972 v -8.43972 c -0.0709,-0.85106 -0.42553,-1.48936 -0.92199,-1.48936"
     id="path48"
     inkscape:connector-curvature="0"
     style="fill:#dbdcdd" />
  <path
     d="m -280.23645,288.97518 h 4.89362 v 0.70922 h -4.89362 z m 16.95036,0 h 4.89361 v 0.70922 h -4.89361 z m -6.38298,-10.85107 h 0.70922 v 4.89362 h -0.70922 z m 0,17.44681 h 0.70922 v 4.89362 h -0.70922 z"
     id="path50"
     inkscape:connector-curvature="0"
     style="fill:#818285" />
  <path
     d="m -285.48467,272.16667 c -2.76596,0 -4.96454,-2.19858 -4.96454,-4.96454 0,-2.76596 2.19858,-4.96454 4.96454,-4.96454 2.76595,0 4.96454,2.19858 4.96454,4.96454 0,2.76596 -2.19859,4.96454 -4.96454,4.96454 z"
     id="path52"
     inkscape:connector-curvature="0"
     style="fill:#bdbebf" />
  <circle
     cx="-285.48468"
     cy="267.1312"
     r="4.7517729"
     id="circle54"
     style="fill:#e7e8e9" />
  <path
     d="m -285.48467,269.96809 c -1.2766,0 -2.26951,-0.99291 -2.26951,-2.26951 0,-1.27659 0.99291,-2.2695 2.26951,-2.2695 1.27659,0 2.2695,0.99291 2.2695,2.2695 0,1.2766 -0.99291,2.26951 -2.2695,2.26951 z m 0,-3.82979 c -0.85107,0 -1.56029,0.70922 -1.56029,1.56028 0,0.85107 0.70922,1.56029 1.56029,1.56029 0.85106,0 1.56028,-0.70922 1.56028,-1.56029 0,-0.85106 -0.70922,-1.56028 -1.56028,-1.56028 z"
     id="path56"
     inkscape:connector-curvature="0"
     style="fill:#bf1e2e" />
  <path
     d="m -286.26482,264.2234 h 1.56029 v 4.1844 h -1.56029 z"
     id="path58"
     inkscape:connector-curvature="0"
     style="fill:#e7e8e9" />
  <path
     d="m -285.83928,264.50709 h 0.70922 v 3.47518 h -0.70922 z"
     id="path60"
     inkscape:connector-curvature="0"
     style="fill:#bf1e2e" />
  <path
     d="m -269.31446,329.89716 c -5.17731,0 -9.3617,-4.25532 -9.3617,-9.43262 0,-5.17731 4.18439,-9.43263 9.3617,-9.43263 5.1773,0 9.3617,4.25532 9.3617,9.43263 0,5.1773 -4.1844,9.43262 -9.3617,9.43262 z"
     id="path62"
     inkscape:connector-curvature="0"
     style="fill:#bdbebf" />
  <ellipse
     cx="-269.31445"
     cy="320.46454"
     rx="9.1489363"
     ry="9.2198582"
     id="ellipse64"
     style="fill:#d1d1d1" />
  <path
     d="m -266.83219,324.50709 -2.48227,-5.95744 -2.48227,5.95744 -0.99291,-0.42553 2.97873,-7.0922 h 0.9929 l 2.97873,7.0922"
     id="path66"
     inkscape:connector-curvature="0"
     style="fill:#a7a8ac" />
  <path
     d="m -271.15843,321.10284 h 3.68794 v 1.06383 h -3.68794 z"
     id="path68"
     inkscape:connector-curvature="0"
     style="fill:#a7a8ac" />
  <path
     d="m -269.31446,353.65603 c -2.76596,0 -4.96454,-2.19858 -4.96454,-4.96454 0,-2.76596 2.19858,-4.96454 4.96454,-4.96454 2.76596,0 4.96454,2.19858 4.96454,4.96454 0,2.76596 -2.19858,4.96454 -4.96454,4.96454"
     id="path70"
     inkscape:connector-curvature="0"
     style="fill:#bdbebf" />
  <path
     d="m -264.56269,348.69149 c 0,2.62411 -2.12766,4.75177 -4.75177,4.75177 -2.62411,0 -4.75177,-2.12766 -4.75177,-4.75177 0,-2.62411 2.12766,-4.75177 4.75177,-4.75177 2.62411,0 4.75177,2.12766 4.75177,4.75177"
     id="path72"
     inkscape:connector-curvature="0"
     style="fill:#e7e8e9" />
  <path
     d="m -271.30028,351.03191 h 3.82979 v -2.48226 h 0.85106 l -2.69503,-2.19859 -2.69504,2.19859 h 0.70922 v 2.48226"
     id="path74"
     inkscape:connector-curvature="0"
     style="fill:#24a9e2" />
  <path
     d="m -268.53432,349.0461 h -1.56028 v 0.99291 h 1.56028 v -0.99291"
     id="path76"
     inkscape:connector-curvature="0"
     style="fill:#edf7fd" />
  <path
     d="m -283.99531,353.65603 c -2.76596,0 -4.96454,-2.19858 -4.96454,-4.96454 0,-2.76596 2.19858,-4.96454 4.96454,-4.96454 2.76596,0 4.96454,2.19858 4.96454,4.96454 0,2.76596 -2.26951,4.96454 -4.96454,4.96454 z"
     id="path78"
     inkscape:connector-curvature="0"
     style="fill:#bdbebf" />
  <circle
     cx="-283.9953"
     cy="348.6915"
     r="4.7517729"
     id="circle80"
     style="fill:#e7e8e9" />
  <path
     d="m -286.69035,348.69149 h 5.39007 m -5.39007,-0.35461 h 5.39007 v 0.70922 h -5.39007 z"
     id="path82"
     inkscape:connector-curvature="0"
     style="fill:#818185" />
  <path
     d="m -254.63361,353.65603 c -2.76596,0 -4.96454,-2.19858 -4.96454,-4.96454 0,-2.76596 2.19858,-4.96454 4.96454,-4.96454 2.76596,0 4.96454,2.19858 4.96454,4.96454 0,2.76596 -2.19858,4.96454 -4.96454,4.96454 z"
     id="path84"
     inkscape:connector-curvature="0"
     style="fill:#bdbebf" />
  <circle
     cx="-254.63361"
     cy="348.6915"
     r="4.7517729"
     id="circle86"
     style="fill:#e7e8e9" />
  <path
     d="m -257.32865,348.69149 h 5.39008 m -5.39008,-0.35461 h 5.39008 v 0.70922 h -5.39008 z m 2.69504,-2.34043 v 5.39007"
     id="path88"
     inkscape:connector-curvature="0"
     style="fill:#818185" />
  <path
     d="m -254.98822,345.99645 h 0.70922 v 5.39007 h -0.70922 z"
     id="path90"
     inkscape:connector-curvature="0"
     style="fill:#818185" />
  <path
     d="m -269.31446,409.18794 c -3.90071,0 -7.02128,-3.12056 -7.02128,-7.02127 0,-3.90071 3.12057,-7.02128 7.02128,-7.02128 3.90071,0 7.02128,3.12057 7.02128,7.02128 0,3.90071 -3.12057,7.02127 -7.02128,7.02127 z"
     id="path92"
     inkscape:connector-curvature="0"
     style="fill:#bdbebf" />
  <circle
     cx="-269.31445"
     cy="402.23758"
     r="6.8085108"
     id="circle94"
     style="fill:#e7e8e9" />
  <path
     d="m -268.74709,405.00355 h -1.06382 v -4.96454 l -1.20568,0.28369 -0.21276,-1.06383 2.48226,-0.49646"
     id="path96"
     inkscape:connector-curvature="0"
     style="fill:#796e6e" />
  <path
     d="m -271.01659,404.50709 h 3.5461 v 1.06383 h -3.5461 z"
     id="path98"
     inkscape:connector-curvature="0"
     style="fill:#796e6e" />
  <path
     d="m -269.31446,428.4078 c -3.90071,0 -7.02128,-3.12057 -7.02128,-7.02128 0,-3.9007 3.12057,-7.02127 7.02128,-7.02127 3.90071,0 7.02128,3.12057 7.02128,7.02127 0,3.90071 -3.12057,7.02128 -7.02128,7.02128 z"
     id="path100"
     inkscape:connector-curvature="0"
     style="fill:#bdbebf" />
  <circle
     cx="-269.31445"
     cy="421.38654"
     r="6.8085108"
     id="circle102"
     style="fill:#e7e8e9" />
  <path
     d="m -267.47049,424.57801 h -3.5461 c -0.21276,0 -0.42553,-0.14184 -0.49645,-0.35461 -0.0709,-0.21276 -0.0709,-0.42553 0.14184,-0.56737 l 2.55319,-2.62412 c 0.56738,-0.56737 0.56738,-1.13475 0.28369,-1.48936 -0.35461,-0.42553 -1.20567,-0.56737 -2.34042,0.28369 l -0.6383,-0.85106 c 1.6312,-1.20568 3.12056,-0.92199 3.75886,-0.0709 0.56738,0.70922 0.6383,1.98581 -0.42553,2.9078 l -1.6312,1.70212 h 2.2695 v 1.06383 z"
     id="path104"
     inkscape:connector-curvature="0"
     style="fill:#796e6e" />
  <path
     d="m -261.72581,442.66312 h 1.41844 v 6.87943 h -1.41844 z m 0,-2.69503 h 1.41844 v 1.48936 h -1.41844 z m -3.47518,2.69503 h 1.41844 v 6.87943 h -1.41844 z m 0,-2.69503 h 1.41844 v 1.48936 h -1.41844 z m -5.1773,9.64539 -1.98582,-6.87944 -1.98581,6.87944 h -1.34752 l -2.62411,-9.29078 1.34751,-0.42554 1.98582,6.95036 1.98582,-6.95036 h 1.34751 l 1.9149,6.95036 1.98581,-6.95036 1.34752,0.42554 -2.62411,9.29078 m -6.52483,-93.5461 h 0.42554 v 3.12056 h -0.42554 z m 1.98582,0 h 0.42553 v 3.12056 h -0.42553 z"
     id="path106"
     inkscape:connector-curvature="0"
     style="fill:#808184" />
  <path
     d="m -275.34283,357.41489 h 1.98582 v 0.42554 h -1.98582 z m 4.39716,1.84398 c -0.21276,0 -0.49645,-0.0709 -0.70922,-0.21277 -0.49645,-0.28369 -0.70922,-0.78014 -0.70922,-1.41844 0,-0.6383 0.28369,-1.20567 0.70922,-1.48936 0.42554,-0.21277 0.92199,-0.21277 1.34752,0 0.49646,0.28369 0.78014,0.85106 0.78014,1.48936 0,0.6383 -0.28368,1.20567 -0.78014,1.41844 -0.21276,0.14184 -0.42553,0.21277 -0.6383,0.21277 z m 0,-2.83688 c -0.14184,0 -0.35461,0.0709 -0.49645,0.14184 -0.35461,0.21277 -0.56738,0.56738 -0.49645,1.13475 0,0.49646 0.14184,0.85107 0.49645,1.06383 0.28369,0.21277 0.6383,0.21277 0.99291,0 0.35461,-0.21276 0.56737,-0.56737 0.56737,-1.06383 0,-0.49645 -0.21276,-0.92198 -0.56737,-1.13475 -0.21277,-0.14184 -0.35461,-0.14184 -0.49646,-0.14184 z m 4.8227,2.76595 h -0.42553 v -2.19858 l -0.85107,1.56029 h -0.35461 l -0.78014,-1.56029 v 2.19858 h -0.42553 v -3.12056 l 0.35461,-0.0709 1.06383,1.98582 0.99291,-1.98582 0.42553,0.0709 m 2.83688,3.19149 h -1.98582 v -3.26242 h 1.98582 v 0.42554 h -1.56029 v 2.41134 h 1.56029"
     id="path108"
     inkscape:connector-curvature="0"
     style="fill:#808184" />
  <path
     d="m -264.98822,357.34397 h 1.56028 v 0.42553 h -1.56028 z M -289.1017,276.7766 c -0.21276,0 -0.49645,-0.0709 -0.70921,-0.21277 -0.49646,-0.28369 -0.70922,-0.78014 -0.70922,-1.41844 0,-0.6383 0.28368,-1.20567 0.70922,-1.48936 0.42553,-0.21277 0.92198,-0.21277 1.34751,0 0.49646,0.28369 0.78014,0.85106 0.78014,1.48936 0,0.6383 -0.28368,1.20567 -0.78014,1.41844 -0.14184,0.21277 -0.35461,0.21277 -0.6383,0.21277 z m 0,-2.83688 c -0.14184,0 -0.3546,0.0709 -0.49645,0.14184 -0.35461,0.21277 -0.56737,0.56738 -0.49645,1.13475 0,0.49646 0.14184,0.85107 0.49645,1.06383 0.28369,0.21277 0.6383,0.21277 0.99291,0 0.35461,-0.21276 0.56737,-0.56737 0.56737,-1.06383 0,-0.49645 -0.21276,-0.92198 -0.56737,-1.13475 -0.14185,-0.0709 -0.28369,-0.14184 -0.49646,-0.14184 z m 4.96454,2.83688 h -0.42553 l -0.6383,-2.41135 -0.70922,2.41135 h -0.42553 l -0.85106,-3.12057 0.42553,-0.0709 0.6383,2.34042 0.70922,-2.34042 h 0.42553 l 0.6383,2.34042 0.70922,-2.34042 0.35461,0.0709 m 2.48227,3.12057 h -1.98582 v -3.19149 h 1.98582 v 0.42553 h -1.56029 v 2.34042 h 1.56029"
     id="path110"
     inkscape:connector-curvature="0"
     style="fill:#808184" />
  <path
     d="m -282.50595,274.8617 h 1.56028 v 0.42553 h -1.56028 z m -10,1.77305 h -0.42553 v -3.12057 h 0.99291 c 0.70922,0.0709 1.06383,0.49646 1.06383,0.92199 0,0.42553 -0.35461,0.92199 -0.99291,0.99291 h -0.56738 v 1.20567 z m 0,-2.69503 v 1.06383 h 0.56738 c 0.42553,0 0.63829,-0.28369 0.63829,-0.56738 0,-0.21277 -0.14184,-0.49645 -0.63829,-0.49645 z m 12.76596,2.69503 h -0.42553 v -3.12057 h 0.9929 c 0.70922,0.0709 1.06383,0.49646 1.06383,0.92199 0,0.42553 -0.35461,0.92199 -0.99291,0.99291 h -0.56737 v 1.20567 z m 0,-2.69503 v 1.06383 h 0.56737 c 0.42553,0 0.6383,-0.28369 0.6383,-0.56738 0,-0.21277 -0.14184,-0.49645 -0.6383,-0.49645 z"
     id="path112"
     inkscape:connector-curvature="0"
     style="fill:#808184" />
  <path
     d="m -277.96694,276.63475 h -0.42554 c 0,-0.28369 -0.28368,-1.06383 -0.85106,-1.20567 l 0.0709,-0.42553 c 0.78014,0.14184 1.20568,1.13475 1.20568,1.6312 z"
     id="path114"
     inkscape:connector-curvature="0"
     style="fill:#808184" />
  <path
     d="m -288.17971,430.81915 c 0,0.35461 -0.35461,0.6383 -0.78014,0.6383 -0.42553,0 -0.78014,-0.28369 -0.78014,-0.6383 0,-0.35461 0.35461,-0.6383 0.78014,-0.6383 0.42553,0 0.78014,0.28369 0.78014,0.6383 m 33.04965,0 c 0,0.35461 -0.35461,0.6383 -0.78015,0.6383 -0.42553,0 -0.78014,-0.28369 -0.78014,-0.6383 0,-0.35461 0.35461,-0.6383 0.78014,-0.6383 0.42554,0 0.78015,0.28369 0.78015,0.6383 m 2.2695,0 c 0,0.35461 -0.35461,0.6383 -0.78014,0.6383 -0.42553,0 -0.78014,-0.28369 -0.78014,-0.6383 0,-0.35461 0.35461,-0.6383 0.78014,-0.6383 0.42553,0 0.78014,0.28369 0.78014,0.6383 m 2.2695,0 c 0,0.35461 -0.35461,0.6383 -0.78014,0.6383 -0.42553,0 -0.78014,-0.28369 -0.78014,-0.6383 0,-0.35461 0.35461,-0.6383 0.78014,-0.6383 0.42553,0 0.78014,0.28369 0.78014,0.6383 m 2.26951,0 c 0,0.35461 -0.35461,0.6383 -0.78015,0.6383 -0.42553,0 -0.78014,-0.28369 -0.78014,-0.6383 0,-0.35461 0.35461,-0.6383 0.78014,-0.6383 0.42554,0 0.78015,0.28369 0.78015,0.6383 m -17.87234,0 c 0,0.35461 -0.35461,0.6383 -0.78015,0.6383 -0.42553,0 -0.78014,-0.28369 -0.78014,-0.6383 0,-0.35461 0.35461,-0.6383 0.78014,-0.6383 0.49646,0 0.78015,0.28369 0.78015,0.6383 m 2.2695,0 c 0,0.35461 -0.35461,0.6383 -0.78014,0.6383 -0.42553,0 -0.78014,-0.28369 -0.78014,-0.6383 0,-0.35461 0.35461,-0.6383 0.78014,-0.6383 0.42553,0 0.78014,0.28369 0.78014,0.6383 m 2.2695,0 c 0,0.35461 -0.35461,0.6383 -0.78014,0.6383 -0.42553,0 -0.78014,-0.28369 -0.78014,-0.6383 0,-0.35461 0.35461,-0.6383 0.78014,-0.6383 0.42553,0 0.78014,0.28369 0.78014,0.6383 m -15.53191,0 c 0,0.35461 -0.35461,0.6383 -0.78014,0.6383 -0.42554,0 -0.78015,-0.28369 -0.78015,-0.6383 0,-0.35461 0.35461,-0.6383 0.78015,-0.6383 0.42553,0 0.78014,0.28369 0.78014,0.6383 m 2.2695,0 c 0,0.35461 -0.35461,0.6383 -0.78014,0.6383 -0.42553,0 -0.78014,-0.28369 -0.78014,-0.6383 0,-0.35461 0.35461,-0.6383 0.78014,-0.6383 0.42553,0 0.78014,0.28369 0.78014,0.6383"
     id="path116"
     inkscape:connector-curvature="0"
     style="fill:#d3d3d3" />
  <path
     d="m -356.76127,455.5 c -14.11347,0 -18.29787,-37.87234 -22.41135,-74.46809 -0.70922,-6.17021 -1.41844,-12.55319 -2.12766,-18.58156 -3.47517,-28.01418 2.76596,-41.77305 8.65249,-48.36879 4.68085,-5.31915 10.85106,-8.08511 17.87234,-8.08511 7.02127,0 13.19149,2.76596 17.87234,8.08511 5.8156,6.59574 12.05673,20.35461 8.65248,48.36879 -0.70922,6.02837 -1.41844,12.41135 -2.12766,18.58156 -4.04255,36.59575 -8.29787,74.46809 -22.41135,74.46809 z"
     id="path118"
     inkscape:connector-curvature="0"
     style="fill:#bfbfbf" />
  <path
     d="m -352.78964,455.14539 h -3.97163 c -16.17021,0 -19.14894,-52.12766 -24.1844,-92.69504 -5.03546,-40.78014 9.92908,-56.02836 26.17022,-56.02836 16.17021,0 31.13475,15.31914 26.17021,56.02836 -5.03546,40.56738 -8.01419,92.69504 -24.1844,92.69504 z"
     id="path120"
     inkscape:connector-curvature="0"
     style="fill:#f1f1f2" />
  <path
     d="m -365.13006,350.74823 -4.60993,-11.13475 4.60993,-11.20568 11.20567,-4.60993 11.13475,4.60993 4.60993,11.20568 -4.60993,11.13475 -11.13475,4.68085"
     id="path122"
     inkscape:connector-curvature="0"
     style="fill:#e0e1e2" />
  <path
     d="m -363.42794,349.0461 -3.90071,-9.43262 3.90071,-9.50355 9.50355,-3.90071 9.43262,3.90071 3.90071,9.50355 -3.90071,9.43262 -9.43262,3.90071"
     id="path124"
     inkscape:connector-curvature="0"
     style="fill:#727275" />
  <path
     d="m -353.92439,352.5922 -9.21986,-3.82979 -3.75886,-9.14893 3.75886,-9.21986 9.21986,-3.75887 9.14894,3.75887 3.82978,9.21986 -3.82978,9.14893"
     id="path126"
     inkscape:connector-curvature="0"
     style="fill:#e7e8e9" />
  <circle
     cx="-353.92438"
     cy="339.61346"
     r="10.638298"
     id="circle128"
     style="fill:#d6d6d6" />
  <circle
     cx="-353.92438"
     cy="339.61346"
     r="9.5744677"
     id="circle130"
     style="fill:#dddddd" />
  <circle
     cx="-353.92438"
     cy="339.61346"
     r="8.5815601"
     id="circle132"
     style="fill:#e2e2e2" />
  <circle
     cx="-353.92438"
     cy="339.61346"
     r="7.7304964"
     id="circle134"
     style="fill:#e5e5e5" />
  <circle
     cx="-353.92438"
     cy="339.61346"
     r="6.9503546"
     id="circle136"
     style="fill:#e5e5e5" />
  <circle
     cx="-353.92438"
     cy="339.61346"
     r="6.3120565"
     id="circle138"
     style="fill:#e5e5e5" />
  <circle
     cx="-353.92438"
     cy="339.61346"
     r="5.673759"
     id="circle140"
     style="fill:#e5e5e5" />
  <circle
     cx="-353.92438"
     cy="339.61346"
     r="5.1063828"
     id="circle142"
     style="fill:#d6d6d6" />
  <circle
     cx="-353.92438"
     cy="339.61346"
     r="4.6099291"
     id="circle144"
     style="fill:#f1f1f2" />
</svg>
