<?xml version="1.0" encoding="UTF-8" standalone="no"?>
<svg
   xmlns:dc="http://purl.org/dc/elements/1.1/"
   xmlns:cc="http://creativecommons.org/ns#"
   xmlns:rdf="http://www.w3.org/1999/02/22-rdf-syntax-ns#"
   xmlns:svg="http://www.w3.org/2000/svg"
   xmlns="http://www.w3.org/2000/svg"
   xmlns:sodipodi="http://sodipodi.sourceforge.net/DTD/sodipodi-0.dtd"
   xmlns:inkscape="http://www.inkscape.org/namespaces/inkscape"
   viewBox="0 0 199.99999 199.99999"
   version="1.1"
   id="svg92"
   sodipodi:docname="game.svg"
   width="200"
   height="200"
   inkscape:version="0.92.4 5da689c313, 2019-01-14">
  <metadata
     id="metadata98">
    <rdf:RDF>
      <cc:Work
         rdf:about="">
        <dc:format>image/svg+xml</dc:format>
        <dc:type
           rdf:resource="http://purl.org/dc/dcmitype/StillImage" />
      </cc:Work>
    </rdf:RDF>
  </metadata>
  <defs
     id="defs96" />
  <sodipodi:namedview
     pagecolor="#ffffff"
     bordercolor="#666666"
     borderopacity="1"
     objecttolerance="10"
     gridtolerance="10"
     guidetolerance="10"
     inkscape:pageopacity="0"
     inkscape:pageshadow="2"
     inkscape:window-width="640"
     inkscape:window-height="480"
     id="namedview94"
     showgrid="false"
     inkscape:zoom="1.1799999"
     inkscape:cx="100.00001"
     inkscape:cy="99.999992"
     inkscape:window-x="0"
     inkscape:window-y="0"
     inkscape:window-maximized="0"
     inkscape:current-layer="svg92" />
  <path
     d="M 100,200 C 44.864227,200 0,155.13577 0,100 0,44.864227 44.864227,0 100,0 c 55.13577,0 100,44.864227 100,100 0,55.13577 -44.86423,100 -100,100 z M 100,0.118064 C 44.98229,0.118064 0.11806375,44.98229 0.11806375,100 c 0,55.01771 44.74616325,99.76387 99.76387225,99.76387 55.017714,0 99.763874,-44.74616 99.763874,-99.76387 C 199.76387,44.98229 155.01771,0.118064 100,0.118064 Z"
     id="path2"
     inkscape:connector-curvature="0"
     style="fill:#0f1317" />
  <path
     d="m 197.04841,100 c 0,53.60094 -43.44747,97.04841 -97.04841,97.04841 C 46.399055,197.04841 2.9515939,153.60094 2.9515939,100 2.9515939,46.399055 46.399055,2.951594 100,2.951594 c 53.60094,0 97.04841,43.447461 97.04841,97.048406 z M 100,75.206612 c -13.695396,0 -24.793388,11.097992 -24.793388,24.793388 0,13.6954 11.097992,24.79339 24.793388,24.79339 13.6954,0 24.79339,-11.09799 24.79339,-24.79339 0,-13.695396 -11.09799,-24.793388 -24.79339,-24.793388 z"
     id="path4"
     inkscape:connector-curvature="0"
     style="fill:#005c9b" />
  <path
     d="m 100,117.35537 c -9.563164,0 -17.355372,-7.79221 -17.355372,-17.35537 0,-9.563164 7.792208,-17.355372 17.355372,-17.355372 9.56316,0 17.35537,7.792208 17.35537,17.355372 0,9.56316 -7.79221,17.35537 -17.35537,17.35537 z m 0,-33.530104 c -8.972845,0 -16.174734,7.201889 -16.174734,16.174734 0,8.85478 7.201889,16.17473 16.174734,16.17473 8.85478,0 16.17473,-7.20189 16.17473,-16.17473 0,-8.972845 -7.31995,-16.174734 -16.17473,-16.174734 z"
     id="path6"
     inkscape:connector-curvature="0"
     style="fill:#a299a1" />
  <path
     d="m 100,113.93152 c -7.674144,0 -13.931523,-6.25738 -13.931523,-13.93152 0,-7.674144 6.257379,-13.931523 13.931523,-13.931523 7.67414,0 13.93152,6.257379 13.93152,13.931523 0,7.67414 -6.25738,13.93152 -13.93152,13.93152 z m 0,-26.800469 c -7.083825,0 -12.750885,5.785124 -12.750885,12.750885 0,7.083824 5.785123,12.750884 12.750885,12.750884 7.08383,0 12.75089,-5.78512 12.75089,-12.750884 0,-6.965761 -5.66706,-12.750885 -12.75089,-12.750885 z"
     id="path8"
     inkscape:connector-curvature="0"
     style="fill:#a299a1" />
  <path
     d="m 28.689492,108.50059 c -0.708382,-0.23613 -1.416765,-0.82645 -1.770956,-1.65289 -0.236127,-0.47226 -0.94451,-3.18772 -3.541913,-12.632824 l -0.354191,-1.416765 h 3.541913 c 0,0 0.708382,2.597403 1.534829,5.785124 l 1.416765,5.667065 0.708382,-2.59741 c 1.652893,-6.257376 1.88902,-7.31995 2.125148,-7.674141 0.236127,-0.590319 0.708382,-1.062574 1.298701,-1.180638 0.354191,-0.118064 1.062574,-0.118064 1.298701,0 0.590319,0.118064 1.180638,0.590319 1.416765,1.298701 0.118064,0.354192 0.472255,1.770957 1.88902,6.847698 0.472255,1.77096 0.826447,3.18772 0.826447,3.18772 0,0 0.590318,-2.12515 1.534829,-5.667059 l 1.416765,-5.66706 h 3.541912 c 0,0 -0.354191,1.416765 -0.826446,3.069658 -2.243211,7.910271 -2.951594,10.625741 -3.187721,11.097991 -0.354192,0.82645 -0.94451,1.2987 -1.770957,1.53483 -0.354191,0.11806 -0.94451,0.11806 -1.298701,0 -0.472255,-0.11806 -0.708383,-0.23613 -1.062574,-0.59032 -0.236127,-0.23613 -0.354191,-0.35419 -0.472255,-0.70838 -0.236127,-0.47226 -0.472255,-1.2987 -2.007084,-7.08383 -0.354191,-1.298698 -0.708382,-2.479335 -0.708382,-2.479335 0,0 -0.354191,1.298701 -0.826446,2.951595 -0.944511,3.54191 -1.534829,5.43093 -1.652893,6.02125 -0.354191,1.06257 -0.94451,1.77096 -1.770956,2.00708 -0.354192,0 -1.062574,0 -1.298702,-0.11806 z m 18.654074,-5.43093 v -5.430935 h 3.423848 v 10.861865 h -3.305785 v -5.43093 z m 6.847697,0 v -5.430935 h 3.305785 v 10.861865 h -3.305785 z m 4.72255,4.84061 v -0.47225 h -0.236127 c -0.236128,0 -0.236128,0 -0.236128,-0.11807 v -0.11806 h 1.062574 v 0.11806 c 0,0.11807 0,0.11807 -0.236127,0.11807 h -0.236128 v 1.18063 h -0.118064 z m 0.708383,0 v -0.59032 h 0.472255 l 0.118064,0.35419 c 0.118064,0.23613 0.118064,0.47226 0.118064,0.47226 0,0.11806 0.118063,0 0.236127,-0.47226 l 0.118064,-0.35419 h 0.472255 v 1.18064 h -0.236128 v -0.47225 c 0,-0.47226 0,-0.47226 -0.236127,0.11806 -0.118064,0.35419 -0.118064,0.35419 -0.236128,0.35419 -0.118063,0 -0.118063,0 -0.236127,-0.47225 l -0.118064,-0.47226 v 0.94451 h -0.236128 v -0.59032 z M 48.642267,95.631641 c -0.826446,-0.118064 -1.416765,-0.826446 -1.534829,-1.534829 -0.118064,-0.94451 0.472255,-1.88902 1.416765,-2.125147 0.472255,-0.118064 1.062574,-0.118064 1.534829,0.118063 0.236127,0.118064 0.708382,0.472255 0.826446,0.826447 0.472255,0.826446 0.236128,2.007084 -0.590319,2.479339 -0.472255,0.236127 -1.180637,0.354191 -1.652892,0.236127 z m 6.847698,0 c -0.94451,-0.236127 -1.652893,-1.180637 -1.534829,-2.125147 0.118064,-0.708383 0.708382,-1.416766 1.416765,-1.534829 0.472255,-0.118064 1.062574,-0.118064 1.534829,0.118063 0.236127,0.118064 0.590318,0.472255 0.826446,0.708383 0.472255,0.826446 0.236127,2.007084 -0.590319,2.479339 -0.472255,0.354191 -1.180637,0.472255 -1.652892,0.354191 z M 21.959858,91.381346"
     id="path10"
     inkscape:connector-curvature="0"
     style="fill:#c1cdcc" />
  <circle
     cx="100"
     cy="99.999992"
     r="24.793388"
     stroke-miterlimit="10"
     id="circle12"
     style="fill:none;stroke:#2b84c6;stroke-width:1.1806376;stroke-miterlimit:10" />
  <g
     id="g20"
     style="fill:#c1cdcc">
    <path
       d="m 88.311685,179.4569 c -2.479339,0 -4.132231,-1.77096 -4.132231,-4.01417 0,-2.24321 1.652892,-4.01417 4.132231,-4.01417 h 23.376625 c 2.47934,0 4.13223,1.77096 4.13223,4.01417 0,2.24321 -1.65289,4.01417 -4.13223,4.01417 z m 0,-7.08383 c -2.007084,0 -3.187721,1.41677 -3.187721,3.06966 0,1.65289 1.180637,3.06966 3.187721,3.06966 h 23.376625 c 2.00708,0 3.18772,-1.2987 3.18772,-3.06966 0,-1.65289 -1.18064,-3.06966 -3.18772,-3.06966 z"
       id="path14"
       inkscape:connector-curvature="0" />
    <path
       d="m 87.249111,173.43565 h 1.180638 l 1.534829,2.5974 v -2.5974 h 1.180637 v 3.77804 h -1.180637 l -1.534829,-2.5974 v 2.5974 h -1.180638 z m 10.035419,0.47225 h 1.062574 v 0.47226 h 0.590318 v 0.35419 h -0.590318 v 2.47934 H 97.28453 v -2.47934 h -0.590319 v -0.35419 h 0.590319 z m -5.548996,0.82645 h 1.062573 v 2.47934 h -1.062573 z m 0,-1.2987 h 1.062573 v 0.82645 h -1.062573 z m 19.362456,1.18064 c -0.94451,0 -1.65289,0.59031 -1.65289,1.41676 0,0.82645 0.70838,1.41677 1.65289,1.41677 0.94451,0 1.65289,-0.59032 1.65289,-1.41677 0,-0.82645 -0.70838,-1.41676 -1.65289,-1.41676 m 0.47225,1.41676 v 0.59032 c 0,0.35419 -0.23612,0.59032 -0.47225,0.59032 -0.23613,0 -0.47226,-0.11807 -0.47226,-0.59032 v -1.06257 c 0,-0.3542 0.23613,-0.59032 0.47226,-0.59032 0.23613,0 0.47225,0.11806 0.47225,0.59032 z m -3.42384,0 v -0.47225 c 0,-0.3542 -0.23613,-0.47226 -0.47226,-0.47226 -0.11806,0 -0.47225,0.11807 -0.47225,0.47226 v 0.94451 c 0,0.35419 0.23612,0.47225 0.47225,0.47225 0.11806,0 0.47226,-0.11806 0.47226,-0.47225 z m -0.11807,-2.5974 h 1.06258 v 3.77804 h -1.06258 v -0.11807 c -0.47225,0.23613 -0.94451,0.23613 -1.2987,0.11807 -0.11806,0 -0.70838,-0.35419 -0.70838,-1.2987 0,-0.70838 0.59032,-1.41677 1.41676,-1.2987 0.23613,0 0.47226,0.11806 0.59032,0.23612 z m -12.514756,1.18064 c 0.472255,0 1.298701,0.23612 1.298701,1.2987 v 1.41676 h -1.180638 v -1.65289 c 0,-0.23613 -0.236127,-0.47226 -0.472255,-0.47226 -0.354191,0 -0.472255,0.23613 -0.472255,0.47226 v 1.65289 h -1.062573 v -2.47934 h 1.062573 v 0.23613 c 0.118064,-0.23613 0.472255,-0.47225 0.826447,-0.47225 m 8.972846,0 c 0.47225,0 1.2987,0.23612 1.2987,1.2987 v 1.41676 h -1.06257 v -1.65289 c 0,-0.23613 -0.23613,-0.47226 -0.47226,-0.47226 -0.35419,0 -0.47225,0.23613 -0.47225,0.47226 v 1.65289 h -1.06258 v -2.5974 h 1.06258 v 0.23613 c 0,-0.11807 0.35419,-0.35419 0.70838,-0.35419 m -3.54191,1.77095 v 0.11807 c 0,0.47225 -0.23613,0.59031 -0.47226,0.59031 -0.11806,0 -0.472254,-0.11806 -0.472254,-0.59031 v -0.47226 h 2.125144 c 0,-0.82644 -0.70838,-1.41676 -1.65289,-1.41676 -0.944509,0 -1.652891,0.59032 -1.652891,1.41676 0,0.82645 0.708382,1.41677 1.652891,1.41677 0.70838,0 1.41677,-0.47226 1.53483,-1.06258 z m -0.944514,-0.70838 c 0,-0.23613 0,-0.35419 0.118064,-0.47225 0.11806,-0.11807 0.23613,-0.23613 0.35419,-0.23613 0.11806,0 0.35419,0.11806 0.35419,0.23613 0.11807,0.11806 0.11807,0.23612 0.11807,0.47225 z m 12.987014,-1.77096 c 0.11806,0 0.23613,0 0.23613,-0.11806 0,-0.11806 -0.11807,-0.11806 -0.23613,-0.11806 h -0.11807 v 0.23612 z m -0.11807,0.47226 h -0.11806 v -0.82645 h 0.35419 c 0.23613,0 0.35419,0.11807 0.35419,0.23613 0,0.11806 -0.11806,0.23613 -0.23612,0.23613 l 0.23612,0.35419 h -0.11806 l -0.23613,-0.35419 h -0.11806 z"
       id="path16"
       inkscape:connector-curvature="0" />
    <path
       d="m 112.98701,174.61629 c 0.35419,0 0.59032,-0.23613 0.59032,-0.59032 0,-0.35419 -0.23613,-0.59032 -0.59032,-0.59032 -0.35419,0 -0.59032,0.23613 -0.59032,0.59032 0,0.23613 0.23613,0.59032 0.59032,0.59032 m -0.70838,-0.70839 c 0,-0.47225 0.35419,-0.70838 0.70838,-0.70838 0.35419,0 0.70838,0.35419 0.70838,0.70838 0,0.47226 -0.35419,0.70839 -0.70838,0.70839 -0.35419,0.11806 -0.70838,-0.23613 -0.70838,-0.70839"
       id="path18"
       inkscape:connector-curvature="0" />
  </g>
  <path
     d="m 147.93388,93.624557 c 4.95868,0 9.09091,2.83353 9.09091,6.257379 0,3.423854 -4.01416,6.257374 -9.09091,6.257374 -4.95867,0 -9.0909,-2.83352 -9.0909,-6.257374 0.11806,-3.423849 4.13223,-6.257379 9.0909,-6.257379 z"
     id="path22"
     inkscape:connector-curvature="0"
     style="fill:#ffffff" />
  <g
     id="g28"
     style="fill:#a58353">
    <path
       d="m 146.04486,103.65997 h 0.23613 c 0,0.11807 0,0.11807 0.11806,0.23613 0,0 0.11806,0.11806 0.23613,0.11806 h 0.23613 l 0.11806,-0.11806 v -0.11806 h -0.35419 c -0.11807,0 -0.23613,-0.11807 -0.35419,-0.11807 -0.11807,-0.11806 -0.11807,-0.11806 -0.11807,-0.35419 0,-0.11806 0,-0.23613 0.11807,-0.35419 0.11806,-0.11806 0.23612,-0.11806 0.35419,-0.11806 0.11806,0 0.35419,0 0.35419,0.11806 0.11806,0.11806 0.11806,0.23613 0.11806,0.35419 h -0.23612 c 0,-0.11806 0,-0.11806 -0.11807,-0.11806 h -0.47225 l -0.11807,0.11806 v 0.11806 h 0.47226 c 0.11806,0 0.23613,0.11807 0.35419,0.11807 0.11806,0.11806 0.11806,0.23613 0.11806,0.35419 0,0.11806 0,0.35419 -0.11806,0.35419 -0.11806,0 -0.23613,0.11806 -0.47226,0.11806 -0.23612,0 -0.35419,0 -0.47225,-0.11806 z m 2.24321,0.11807 c 0,0.11806 -0.11806,0.23612 -0.11806,0.35419 -0.11807,0.11806 -0.23613,0.11806 -0.3542,0.11806 -0.11806,0 -0.23612,0 -0.35419,-0.11806 -0.11806,-0.11807 -0.11806,-0.23613 -0.11806,-0.47226 0,-0.23613 0,-0.35419 0.11806,-0.47225 0.11807,-0.11807 0.23613,-0.11807 0.35419,-0.11807 0.11807,0 0.23613,0 0.3542,0.11807 0.11806,0.11806 0.11806,0.23612 0.11806,0.47225 v 0.11807 l -0.70838,-0.11807 v 0.23613 l 0.11806,0.11806 h 0.11807 l 0.11806,-0.11806 z m -0.70838,-0.35419 h 0.35419 c 0,-0.11807 0,-0.11807 -0.11806,-0.11807 l -0.11807,-0.11806 c 0,0 -0.11806,0 -0.11806,0.11806 z m 1.77095,0.59031 c 0,0 0,0.11807 0,0 v 0.11807 h -0.23612 v -0.11807 l -0.11807,0.11807 h -0.23613 c -0.11806,0 -0.23612,0 -0.23612,-0.11807 -0.11807,-0.11806 -0.11807,-0.11806 -0.11807,-0.23612 0,-0.11807 0,-0.23613 0.11807,-0.23613 0,0 0.11806,-0.11806 0.35419,-0.11806 h 0.11806 c 0.11807,0 0.23613,-0.11807 0.23613,-0.11807 v -0.11806 h -0.23613 v 0.11806 h -0.23613 c 0,-0.11806 0,-0.23613 0.11807,-0.35419 0.11806,-0.11806 0.23613,-0.11806 0.35419,-0.11806 h 0.23613 c 0,0 0.11806,0 0.11806,0.11806 0,0 0,0.11806 0.11807,0.11806 v 0.23613 z m -0.23612,-0.35419 h -0.47226 v 0.23613 h 0.11807 c 0.11806,0 0.11806,0 0.23612,-0.11806 0.11807,0.11806 0.11807,0 0.11807,-0.11807 z"
       id="path24"
       inkscape:connector-curvature="0" />
    <path
       d="m 149.58677,104.13223 v -1.53483 h 0.23613 v 1.53483 z"
       id="path26"
       inkscape:connector-curvature="0" />
  </g>
  <path
     d="m 158.08737,99.881936 1.06257,1.180634 -1.53483,0.94451 0.47226,1.77096 h -1.6529 l -0.11806,2.00708 -1.88902,-0.47225 -0.35419,1.88902 -1.77096,-0.70838 -0.94451,1.65289 -1.2987,-1.18064 -1.18064,1.65289 -1.2987,-1.41676 -1.41676,1.2987 -0.94451,-1.53483 -1.65289,0.94451 -0.59032,-1.77096 -1.88902,0.70839 -0.23613,-1.6529 -1.77096,0.11807 0.23613,-1.77096 h -1.77096 l 0.3542,-1.88902 -1.41677,-0.70838 1.06257,-1.180638 -0.94451,-1.770956 1.53483,-0.472255 -0.47225,-1.88902 h 1.77095 l 0.23613,-1.770956 1.53483,0.472255 0.47226,-1.770957 1.53482,0.826447 0.70839,-1.534829 1.41676,0.94451 0.94451,-1.534829 1.2987,1.298701 1.18064,-1.180637 1.06257,1.534829 1.53483,-1.062574 0.59032,1.652893 1.53483,-0.708383 0.35419,1.770956 1.88902,-0.354191 v 1.652893 l 1.88902,0.236127 -0.59032,1.652893 1.6529,0.708382 z m -1.06258,0 c 0,-3.423849 -4.01416,-6.257379 -9.09091,-6.257379 -4.95867,0 -9.0909,2.83353 -9.0909,6.257379 0,3.423854 4.01416,6.257374 9.0909,6.257374 4.95868,0.11807 9.09091,-2.71546 9.09091,-6.257374 z"
     id="path30"
     inkscape:connector-curvature="0"
     style="fill:#a58353" />
  <path
     d="m 144.98229,96.694215 c 0,-0.472255 0.23613,-0.472255 0.35419,-0.472255 0.11807,0 0.35419,0.118064 0.35419,0.472255 0,0.472255 -0.23612,0.472255 -0.35419,0.472255 -0.11806,0 -0.35419,0 -0.35419,-0.472255 z m -0.35419,0 c 0,0.708382 0.47225,0.826446 0.70838,0.826446 0.23613,0 0.70838,-0.118064 0.70838,-0.826446 0,-0.708383 -0.47225,-0.826446 -0.70838,-0.826446 -0.23613,0 -0.70838,0.118063 -0.70838,0.826446 z m 2.00708,0.708382 h -0.23612 v -0.94451 h -0.11807 V 96.22196 h 0.11807 v -0.118064 c 0,-0.236127 0.11806,-0.354191 0.35419,-0.354191 h 0.11806 v 0.236127 h -0.11806 c -0.11807,0 -0.11807,0 -0.11807,0.118064 h 0.23613 v 0.236128 h -0.23613 z m 0.59032,0 h -0.23613 v -0.94451 h -0.11806 V 96.22196 h 0.11806 v -0.118064 c 0,-0.236127 0.11807,-0.354191 0.3542,-0.354191 h 0.11806 v 0.236127 h -0.11806 c -0.11807,0 -0.11807,0 -0.11807,0.118064 h 0.23613 v 0.236128 h -0.23613 z m 0.59032,-1.062573 v 1.062573 h -0.23613 v -1.062573 z m 0,-0.118064 h -0.23613 v -0.236128 h 0.23613 z m 1.18064,0.826446 c 0,0.118064 -0.11807,0.472255 -0.47226,0.472255 -0.47225,0 -0.47225,-0.354191 -0.47225,-0.590319 0,-0.354191 0.11806,-0.590318 0.47225,-0.590318 0.11807,0 0.47226,0.118063 0.47226,0.472255 h -0.23613 c 0,-0.118064 0,-0.236128 -0.23613,-0.236128 -0.23612,0 -0.23612,0.236128 -0.23612,0.354191 0,0.118064 0,0.354192 0.23612,0.354192 0.11807,0 0.23613,-0.118064 0.23613,-0.236128 z m 0.47225,-0.708382 v 1.062573 h -0.23612 v -1.062573 z m 0,-0.118064 h -0.23612 v -0.236128 h 0.23612 z m 0.94451,0.826446 c 0,0.118064 -0.11806,0.236128 -0.23612,0.236128 0,0 -0.11807,0 -0.11807,-0.118064 0,-0.118064 0.11807,-0.118064 0.23613,-0.118064 0.11806,0 0.11806,0 0.23613,-0.118064 v 0.118064 z m 0.23613,-0.472255 c 0,-0.236127 -0.23613,-0.354191 -0.47225,-0.354191 -0.23613,0 -0.47226,0 -0.47226,0.354191 h 0.23613 c 0,-0.118064 0,-0.118064 0.23613,-0.118064 0.11806,0 0.23612,0 0.23612,0.118064 0,0.118064 0,0.118064 -0.11806,0.118064 h -0.23613 c -0.23613,0 -0.35419,0.118064 -0.35419,0.354191 0,0.236128 0.11806,0.354191 0.35419,0.354191 0.23613,0 0.23613,-0.118063 0.35419,-0.118063 v 0.118063 h 0.35419 c 0,0 -0.11806,0 -0.11806,-0.118063 z m 0.47226,0.826446 h -0.23613 v -1.416765 h 0.23613"
     id="path32"
     inkscape:connector-curvature="0"
     style="fill:#a58353" />
  <path
     d="m 147.93388,105.66706 c 4.72255,0 8.50059,-2.5974 8.50059,-5.785124 0,-3.187721 -3.77804,-5.785124 -8.50059,-5.785124 -4.72255,0 -8.50059,2.597403 -8.50059,5.785124 0,3.187724 3.89611,5.785124 8.50059,5.785124 z m -8.26446,-5.785124 c 0,-3.069657 3.65998,-5.548996 8.26446,-5.548996 4.60449,0 8.26447,2.479339 8.26447,5.548996 0,3.069654 -3.65998,5.548994 -8.26447,5.548994 -4.48642,0.11807 -8.26446,-2.47934 -8.26446,-5.548994 z"
     id="path34"
     inkscape:connector-curvature="0"
     style="fill:#a58353" />
  <g
     id="g44"
     style="fill:#a58353">
    <path
       d="m 153.24675,101.88902 c 0.94451,0 1.77095,-0.82645 1.77095,-1.77096 0,-0.94451 -0.82644,-1.770956 -1.77095,-1.770956 h -10.7438 c -0.94451,0 -1.77096,0.826446 -1.77096,1.770956 0,0.94451 0.82645,1.77096 1.77096,1.77096 z m -10.7438,-0.47226 c -0.70839,0 -1.2987,-0.59032 -1.2987,-1.2987 0,-0.708383 0.59031,-1.298701 1.2987,-1.298701 h 10.7438 c 0.70838,0 1.2987,0.590318 1.2987,1.298701 0,0.70838 -0.59032,1.2987 -1.2987,1.2987 z"
       id="path36"
       inkscape:connector-curvature="0" />
    <path
       d="m 142.03069,100.94451 v -1.652896 h 0.47226 l 0.70838,1.062576 v -1.062576 h 0.59032 v 1.652896 h -0.59032 c 0,-0.11807 -0.70838,-1.062577 -0.70838,-1.062577 v 1.062577 z m 3.42385,-1.180641 c 0,0.118064 0,0.118064 0,0 h 0.23613 c 0.47225,-0.118064 0.59032,0.118064 0.70838,0.118064 0.23613,0.118063 0.11806,0.708387 0.11806,1.062577 h -0.59032 v -0.82645 c 0,-0.118064 -0.11806,-0.236127 -0.23612,-0.236127 -0.11807,0 -0.23613,0 -0.23613,0.236127 v 0.82645 h -0.59032 v -1.180641 z"
       id="path38"
       inkscape:connector-curvature="0" />
    <path
       d="m 146.63518,99.645805 v -0.118064 h 0.59032 v 0.118064 h 0.23612 v 0.236127 h -0.23612 v 1.062578 h -0.59032 v -1.062577 h -0.23613 v -0.236128 m 1.06257,0.708385 c 0,-0.354194 0.3542,-0.590321 0.59032,-0.590321 h 0.35419 c 0.11807,0 0.11807,0 0.23613,0.118064 0.11807,0.118063 0.23613,0.236127 0.23613,0.472257 h -0.94451 c 0,0.11806 -0.11806,0.47225 0.11806,0.47225 0.11807,0 0.11807,0 0.23613,-0.11806 v -0.23613 h 0.59032 c -0.11806,0.35419 -0.47226,0.47226 -0.70838,0.47226 -0.11807,0 -0.70839,0 -0.70839,-0.59032 z m 0.59032,-0.11807 h 0.35419 v -0.11806 c 0,-0.118064 -0.11806,-0.118064 -0.23612,-0.118064 -0.11807,0 -0.23613,0.118064 -0.23613,0.236124 0.11806,-0.11806 0.11806,-0.11806 0.11806,0 z m 4.48642,0.3542 c -0.11806,-0.11807 -0.11806,-0.3542 0,-0.590324 l 0.3542,-0.354191 c 0.11806,0 0.35419,-0.118064 0.59031,0 0.11807,0 0.3542,0.118064 0.47226,0.354191 0.11806,0.118064 0.11806,0.472254 0,0.590324 -0.11806,0.11806 -0.23613,0.23612 -0.35419,0.23612 h -0.59032 c -0.23613,0 -0.35419,0 -0.47226,-0.23612 z m 0.59032,0.23612 c 0.11807,0 0.23613,-0.11806 0.23613,-0.23612 v -0.590324 c 0,-0.118063 0,-0.236127 -0.23613,-0.236127 -0.23612,0 -0.23612,0.118064 -0.23612,0.236127 v 0.590324 c 0.11806,0.11806 0.11806,0.23612 0.23612,0.23612 z m -0.94451,0.11807 h -0.47225 v -0.11807 c -0.11807,0.11807 -0.70838,0.11807 -0.94451,-0.23612 0,0 -0.11807,-0.3542 0,-0.47226 0.11806,-0.236127 0.47225,-0.354191 0.59032,-0.354191 0.11806,0 0.23612,0.118064 0.23612,0.118064 v -0.590319 h 0.47226 c 0.11806,-0.118064 0.11806,1.652896 0.11806,1.652896 z m -0.47225,-0.23613 v -0.708384 l -0.11807,-0.118063 c -0.11806,0 -0.11806,0.118063 -0.11806,0.118063 v 0.472254 c 0,0 0,0.11807 0.11806,0.11807 0,0.23612 0.11807,0.11806 0.11807,0.11806 z m -7.08383,0.23613 v -1.180641 h -0.59032 v 1.180641 m 0.59032,-1.298705 v -0.354191 h -0.59032 v 0.354191 m 5.549,0.118064 c 0.11806,0.118064 0.11806,0.118064 0,0 h 0.23613 c 0.47225,-0.118064 0.59032,0.118064 0.70838,0.118064 0.23613,0.118063 0.11806,0.708387 0.11806,1.062577 h -0.59031 v -0.82645 c 0,-0.118064 -0.11807,-0.236127 -0.23613,-0.236127 -0.11807,0 -0.23613,0 -0.23613,0.236127 v 0.82645 h -0.47225 v -1.180641 z"
       id="path40"
       inkscape:connector-curvature="0" />
    <path
       d="m 153.60094,99.645805 v -0.118064 h 0.23613 c -0.11807,0 -0.11807,0 -0.23613,0.118064 z m 0,-0.118064 c 0.11806,0 0.11806,0 0,0 0.11806,0 0.11806,0 0,0 z m 0,0.118064 c -0.11807,0 -0.11807,0 -0.11807,-0.118064 0,-0.118064 0.11807,-0.118064 0.11807,-0.118064 0.11806,0 0.11806,0 0.11806,0.118064 0.11807,0.118064 0,0.118064 -0.11806,0.118064 z m 0,-0.236128 c -0.11807,0 -0.11807,0 -0.11807,0.118064 0,0.118064 0,0.118064 0.11807,0.118064 0.11806,0 0.11806,0 0.11806,-0.118064 0,-0.118064 0,-0.118064 -0.11806,-0.118064 z"
       id="path42"
       inkscape:connector-curvature="0" />
  </g>
  <path
     d="m 172.01889,90.082645 h 13.81346 v 19.834705 h -13.81346 z"
     id="path46"
     inkscape:connector-curvature="0"
     style="fill:#010101" />
  <path
     d="m 172.72727,93.38843 h 12.3967 v 12.27863 h -12.3967 z m 0.59032,13.45927 c 0,0.23612 -0.11806,0.47225 -0.35419,0.47225 -0.35419,0 -0.35419,-0.23612 -0.35419,-0.47225 v -0.11807 c 0,-0.23612 0,-0.47225 0.35419,-0.47225 0.23613,0 0.35419,0.11806 0.35419,0.23613 v 0.11806 h -0.23613 c 0,-0.11806 0,-0.23613 -0.11806,-0.23613 -0.11806,0 -0.11806,0.23613 -0.11806,0.23613 v 0.35419 c 0,0.11806 0,0.23613 0.11806,0.23613 0.11806,0 0.11806,-0.23613 0.11806,-0.23613 h 0.23613 z m 0.23613,-0.23613 c 0,-0.23613 0,-0.47226 0.35419,-0.47226 0.35419,0 0.35419,0.23613 0.35419,0.47226 v 0.11806 c 0,0.23613 0,0.47226 -0.35419,0.47226 -0.35419,0 -0.35419,-0.23613 -0.35419,-0.47226 z m 0.11806,0.23613 c 0,0.11806 0,0.23612 0.11807,0.23612 0.11806,0 0.11806,-0.11806 0.11806,-0.23612 v -0.23613 c 0,-0.11806 0,-0.23613 -0.11806,-0.23613 -0.11807,0 -0.11807,0.23613 -0.11807,0.23613 z m 1.2987,-0.70839 h 0.23613 v 1.06258 h -0.23613 l -0.11806,-0.35419 c 0,-0.11807 -0.11806,-0.23613 -0.11806,-0.47226 v 0.94451 h -0.23613 v -1.06257 h 0.23613 l 0.11806,0.35419 c 0,0.11806 0.11806,0.23613 0.11806,0.47225 z m 0.3542,0 h 0.70838 v 0.11807 h -0.23613 v 0.94451 h -0.23613 v -0.94451 h -0.23612 m 0.82644,0.94451 v -1.06258 h 0.59032 v 0.11807 h -0.35419 v 0.35419 h 0.35419 v 0.11806 h -0.35419 v 0.3542 h 0.35419 v 0.11806 m 0.70838,-1.06257 h 0.23613 v 1.06257 h -0.23613 l -0.11806,-0.35419 c 0,-0.11807 -0.11806,-0.23613 -0.11806,-0.47226 v 0.94451 h -0.23613 v -1.06257 h 0.23613 l 0.11806,0.35419 c 0,0.11806 0.11806,0.23613 0.11806,0.47226 z m 0.35419,0 h 0.70839 v 0.11806 h -0.23613 v 0.94451 h -0.23613 v -0.94451 h -0.23613 m 1.41677,0.47225 v 0.47226 h -0.23613 v -1.06257 h 0.35419 c 0.23613,0 0.35419,0.11806 0.35419,0.23612 0,0.11807 0,0.23613 -0.11806,0.23613 0.11806,0 0.11806,0.11806 0.11806,0.23613 v 0.35419 h -0.23612 v -0.23613 c 0,-0.11806 0,-0.11806 -0.11807,-0.23613 z m 0,-0.11806 h 0.11806 c 0.11807,0 0.11807,0 0.11807,-0.11806 0,-0.11807 0,-0.11807 -0.11807,-0.11807 h -0.11806 z m 0.59032,0.59032 0.23613,-1.06257 h 0.23612 l 0.23613,1.06257 h -0.23613 v -0.23613 h -0.23612 v 0.23613 z m 0.35419,-0.35419 h 0.23613 v -0.59032 0.23613 z m 0.47225,-0.70838 h 0.70839 v 0.11806 h -0.23613 v 0.94451 h -0.23613 v -0.94451 h -0.23613 m 0.82645,0.94451 v -1.06257 h 0.59032 v 0.11806 h -0.35419 v 0.35419 h 0.35419 v 0.11806 h -0.35419 v 0.3542 h 0.35419 v 0.11806 m 0.23613,0 v -1.06257 h 0.47225 c 0,0 0.11807,0 0.23613,0.11806 0,0.11806 0.11806,0.23613 0.11806,0.35419 0,0.23613 0,0.47226 -0.11806,0.59032 z m 0.35419,-0.11806 c 0.23613,0 0.23613,-0.11807 0.23613,-0.47226 0,-0.23613 0,-0.35419 -0.11807,-0.35419 h -0.11806 z m 0.94451,0.11806 v -1.06257 h 0.35419 c 0.11806,0 0.23613,0 0.23613,0.11806 v 0.23613 c 0,0.11806 0,0.23612 -0.11807,0.23612 0.11807,0 0.11807,0.11807 0.11807,0.23613 v 0.11807 c 0,0.11806 -0.11807,0.23612 -0.23613,0.23612 z m 0.23613,-0.11806 h 0.11806 l 0.11806,-0.11807 c 0,-0.11806 0,-0.11806 -0.11806,-0.11806 h -0.11806 z m 0,-0.47226 h 0.11806 v -0.11806 c 0,-0.11807 0,-0.11807 -0.11806,-0.11807 h -0.11807 z m 0.82644,-0.23613 v 0.11807 c 0,-0.11807 0,-0.11807 0.11807,-0.23613 l 0.11806,-0.23613 h 0.23613 l -0.35419,0.59032 v 0.47226 h -0.23613 v -0.47226 l -0.35419,-0.59032 h 0.23612 z m -11.92444,2.83353 v -1.65289 h 2.24321 v 0.35419 h -1.2987 v 0.23613 h 1.06258 v 0.35419 h -1.06258 v 0.35419 h 1.41677 v 0.35419 m 2.24321,-1.18063 -0.11806,-0.11807 h -0.23613 c -0.23613,0 -0.23613,0 -0.23613,0.11807 0,0.23612 1.65289,0.11806 1.65289,0.70838 0,0.35419 -0.59032,0.59032 -1.2987,0.59032 -0.70838,0 -1.18064,-0.23613 -1.2987,-0.59032 h 0.94451 l 0.11806,0.11806 h 0.23613 c 0.23613,0 0.35419,0 0.35419,-0.11806 0,-0.23613 -1.65289,-0.11807 -1.65289,-0.70838 0,-0.3542 0.47226,-0.47226 1.18064,-0.47226 0.82644,0 1.18064,0.23613 1.18064,0.47226 z m 2.71547,0.59031 v 0.59032 h -0.94451 v -1.65289 h 1.2987 c 0.94451,0 1.2987,0.11806 1.2987,0.47225 0,0.23613 -0.11807,0.3542 -0.47226,0.3542 0.35419,0.11806 0.47226,0.11806 0.47226,0.47225 0,0.23613 0,0.23613 0.11806,0.23613 h -0.94451 v -0.23613 c 0,-0.23613 -0.11806,-0.23613 -0.47225,-0.23613 z m 0,-0.35419 h 0.35419 c 0.23612,0 0.47225,0 0.47225,-0.11806 0,-0.11807 -0.11806,-0.11807 -0.35419,-0.11807 h -0.47225 z m 2.47933,0.94451 v -1.65289 h 1.29871 c 0.59031,0 1.18063,0.11806 1.18063,0.35419 0,0.11806 -0.23612,0.23613 -0.35419,0.35419 0.35419,0 0.47226,0.23613 0.47226,0.35419 0,0.35419 -0.47226,0.47226 -1.18064,0.47226 z m 0.94451,-0.70838 v 0.35419 h 0.3542 c 0.23612,0 0.35419,0 0.35419,-0.11806 0,-0.11807 -0.23613,-0.11807 -0.47226,-0.11807 h -0.23613 z m 0,-0.59032 v 0.23613 h 0.3542 c 0.23612,0 0.35419,0 0.35419,-0.11807 0,-0.11806 -0.23613,-0.11806 -0.35419,-0.11806 z"
     id="path48"
     inkscape:connector-curvature="0"
     style="fill:#ffffff" />
  <path
     d="m 173.08146,94.451004 c 0,-0.354192 0.3542,-0.590319 0.70839,-0.590319 0.35419,0 0.70838,0.236127 0.70838,0.590319 0,0.354191 -0.35419,0.708382 -0.70838,0.708382 -0.35419,-0.118064 -0.70839,-0.354191 -0.70839,-0.708382 m 1.29871,0 c 0,-0.236128 -0.23613,-0.590319 -0.59032,-0.590319 -0.35419,0 -0.59032,0.236127 -0.59032,0.590319 0,0.354191 0.23613,0.590318 0.59032,0.590318 0.35419,0 0.59032,-0.354191 0.59032,-0.590318 m -0.70839,0 v 0.354191 h -0.11806 v -0.708383 h 0.23613 c 0.11806,0 0.35419,0 0.35419,0.236128 0,0.118064 0,0.118064 -0.11807,0.236127 0.11807,0 0.11807,0.118064 0.11807,0.118064 v 0.236128 h -0.11807 v -0.236128 c -0.23612,-0.236127 -0.23612,-0.236127 -0.35419,-0.236127 m 0.11807,-0.118064 c 0.11806,0 0.11806,0 0.11806,-0.118064 0,0 0,-0.118064 -0.11806,-0.118064 h -0.11807 v 0.236128 z"
     id="path50"
     inkscape:connector-curvature="0"
     style="fill:#010101" />
  <path
     d="m 184.53365,92.325856 v -0.354191 h 0.59032 V 91.49941 h -0.59032 v -0.354192 h 0.59032 v -0.354191 h -1.06258 v 2.007084 h 1.06258 v -0.472255 m -1.88902,-0.472255 -0.35419,-1.062574 h -0.59032 v 2.007084 h 0.47225 v -1.180638 l 0.35419,1.180638 h 0.59032 v -2.007084 h -0.59032 m -1.77095,0 c -0.47226,0 -0.70839,0.236128 -0.70839,0.590319 v 0.708382 c 0,0.472255 0.11807,0.708383 0.70839,0.708383 0.47225,0 0.70838,-0.236128 0.70838,-0.708383 v -0.826446 c 0,-0.354191 -0.23613,-0.472255 -0.70838,-0.472255 m 0.11806,1.416765 c 0,0.118064 0,0.236128 -0.11806,0.236128 -0.11807,0 -0.23613,-0.118064 -0.23613,-0.236128 v -0.826446 c 0,-0.118064 0,-0.236128 0.23613,-0.236128 0.11806,0 0.11806,0.118064 0.11806,0.236128 z m -1.77096,-0.826446 -0.23612,-0.590319 h -0.59032 l 0.59032,1.180638 v 0.826446 h 0.47225 v -0.826446 l 0.47226,-1.180638 h -0.47226 m -1.18064,1.298701 c 0,-0.118063 -0.11806,-0.236127 -0.23612,-0.236127 0.23612,-0.118064 0.23612,-0.236128 0.23612,-0.472255 0,-0.354191 -0.23612,-0.590319 -0.59031,-0.590319 h -0.70839 v 2.007084 h 0.47226 v -0.826446 h 0.11806 c 0.11807,0 0.11807,0.118063 0.11807,0.236127 v 0.590319 h 0.59031 v -0.708383 m -0.70838,-0.472255 h -0.11806 v -0.472255 c 0.23613,0 0.35419,0 0.35419,0.236128 0,0.118064 -0.11806,0.236127 -0.23613,0.236127 m -1.65289,0.354192 h 0.70838 V 91.49941 h -0.70838 v -0.354192 h 0.70838 v -0.354191 h -1.18064 v 2.007084 h 1.18064 v -0.472255 h -0.70838 m -1.53483,-0.118064 -0.23613,-1.416765 h -0.47225 l 0.47225,2.007084 h 0.59032 l 0.47226,-2.007084 h -0.47226 m -2.00708,1.180638 h 0.70838 V 91.49941 h -0.70838 v -0.354192 h 0.70838 v -0.354191 h -1.18064 v 2.007084 h 1.18064 v -0.472255 h -0.70838"
     id="path52"
     inkscape:connector-curvature="0"
     style="fill:#ffffff" />
  <path
     d="m 174.14404,95.749705 7.55608,-2.007084 0.70838,2.479339 -4.48642,1.180637 0.35419,0.94451 4.48642,-1.062573 0.70838,2.479338 -4.48642,1.062578 0.23613,1.06257 4.48642,-1.06257 0.70838,2.47933 -7.55608,1.88902"
     id="path54"
     inkscape:connector-curvature="0"
     style="fill:#010101" />
  <path
     d="m 161.15702,115.46635 h 24.67533 v 9.20898 h -24.67533 z"
     id="path56"
     inkscape:connector-curvature="0"
     style="fill:none" />
  <path
     d="m 185.0059,116.05667 -0.94451,1.65289 -0.82644,-1.65289 h -0.82645 c 0.11806,0.23613 1.18064,2.24321 1.18064,2.24321 v 1.2987 h 0.82644 v -1.2987 c 0,0 1.06258,-2.00708 1.29871,-2.24321 z"
     id="path58"
     inkscape:connector-curvature="0"
     style="fill:#010101" />
  <path
     d="m 161.15702,115.46635 h 24.67533 v 9.20898 h -24.67533 z"
     id="path60"
     inkscape:connector-curvature="0"
     style="fill:none" />
  <path
     d="m 161.15702,120.07084 h 6.61158 v -4.60449 h -6.61158 z m 1.53483,-0.59032 h -0.70838 v -3.42385 h 0.70838 c 0.82645,0 1.41677,0.82645 1.41677,1.65289 0,1.06258 -0.59032,1.77096 -1.41677,1.77096 m 4.2503,0 h -0.70838 c -0.82645,0 -1.41677,-0.70838 -1.41677,-1.65289 0,-0.94451 0.70838,-1.6529 1.41677,-1.6529 h 0.70838 z"
     id="path62"
     inkscape:connector-curvature="0"
     style="fill:#010101" />
  <path
     d="m 161.15702,115.46635 h 24.67533 v 9.20898 h -24.67533 z"
     id="path64"
     inkscape:connector-curvature="0"
     style="fill:none" />
  <path
     d="m 175.32468,118.29988 c 0,0.59032 -0.23613,0.82645 -0.82645,0.82645 -0.59032,0 -0.82645,-0.11807 -0.82645,-0.82645 v -1.06257 c 0,-0.59032 0.23613,-0.70838 0.82645,-0.70838 0.59032,0 0.82645,0.11806 0.82645,0.70838 z m 0.35419,-2.12515 c -0.23613,-0.11806 -0.70839,-0.23612 -1.18064,-0.23612 -0.47226,0 -0.94451,0.11806 -1.18064,0.23612 -0.35419,0.23613 -0.47225,0.47226 -0.47225,1.06258 v 1.18064 c 0,0.47225 0.11806,0.82644 0.47225,1.06257 0.23613,0.11806 0.59032,0.23613 1.18064,0.23613 0.59032,0 0.94451,-0.11807 1.18064,-0.23613 0.35419,-0.23613 0.47225,-0.59032 0.47225,-1.06257 v -1.18064 c 0,-0.47226 -0.11806,-0.82645 -0.47225,-1.06258"
     id="path66"
     inkscape:connector-curvature="0"
     style="fill:#010101" />
  <path
     d="m 161.15702,115.46635 h 24.67533 v 9.20898 h -24.67533 z"
     id="path68"
     inkscape:connector-curvature="0"
     style="fill:none" />
  <path
     d="m 171.54664,118.29988 c 0,0.59032 -0.3542,0.82645 -0.59032,0.82645 h -0.94451 v -2.47934 h 0.94451 c 0.23612,0 0.59032,0.11806 0.59032,0.70838 z m -0.59032,-2.24321 h -1.77096 v 3.54191 h 1.88902 c 0.94451,0 1.2987,-0.35419 1.2987,-1.41676 v -0.82645 c 0,-0.94451 -0.47225,-1.2987 -1.41676,-1.2987"
     id="path70"
     inkscape:connector-curvature="0"
     style="fill:#010101" />
  <path
     d="m 161.15702,115.46635 h 24.67533 v 9.20898 h -24.67533 z"
     id="path72"
     inkscape:connector-curvature="0"
     style="fill:none" />
  <path
     d="m 177.56789,116.05667 h -0.82645 v 3.54191 h 2.36128 v -0.59032 h -1.53483"
     id="path74"
     inkscape:connector-curvature="0"
     style="fill:#010101" />
  <path
     d="m 161.15702,115.46635 h 24.67533 v 9.20898 h -24.67533 z"
     id="path76"
     inkscape:connector-curvature="0"
     style="fill:none" />
  <path
     d="m 185.71429,119.24439 c 0,0.11807 -0.11807,0.23613 -0.23613,0.23613 -0.11807,0 -0.23613,-0.11806 -0.23613,-0.23613 0,-0.11806 0.11806,-0.23613 0.23613,-0.23613 0.11806,0 0.23613,0.11807 0.23613,0.23613 m -0.59032,0 c 0,0.23613 0.11806,0.35419 0.35419,0.35419 0.23613,0 0.35419,-0.11806 0.35419,-0.35419 0,-0.23613 -0.11806,-0.35419 -0.35419,-0.35419 -0.23613,0 -0.35419,0.11806 -0.35419,0.35419 m 0.23612,-0.11806 h 0.11807 c 0,0 0,0.11806 -0.11807,0.11806 z m 0,0.11806 0.11807,0.11807 h 0.11806 l -0.11806,-0.11807 c 0,0 0.11806,0 0.11806,-0.11806 0,-0.11807 0,-0.11807 -0.11806,-0.11807 h -0.11807 v 0.3542 h 0.11807 z"
     id="path78"
     inkscape:connector-curvature="0"
     style="fill:#010101" />
  <path
     d="m 161.15702,115.46635 h 24.67533 v 9.20898 h -24.67533 z"
     id="path80"
     inkscape:connector-curvature="0"
     style="fill:none" />
  <path
     d="m 181.46399,117.70956 c 0.59032,0 0.82645,-0.35419 0.82645,-0.82644 0,-0.35419 -0.11807,-0.59032 -0.35419,-0.70839 -0.11807,-0.11806 -0.3542,-0.11806 -0.70839,-0.11806 h -1.77095 v 3.54191 h 1.65289 c 0.47225,0 0.70838,-0.11806 0.82645,-0.11806 0.11806,-0.11806 0.35419,-0.35419 0.35419,-0.82645 0.11806,-0.47225 0,-0.94451 -0.82645,-0.94451 m -0.47225,1.41677 h -0.70839 v -2.47934 h 0.82645 c 0.23613,0 0.47225,0.23613 0.47225,0.47225 0,0.47226 -0.23612,0.47226 -0.82644,0.47226 v 0.47225 c 0.59032,0 0.94451,0 0.94451,0.59032 0,0.11807 -0.23613,0.47226 -0.70838,0.47226"
     id="path82"
     inkscape:connector-curvature="0"
     style="fill:#010101" />
  <path
     d="m 161.15702,115.46635 h 24.67533 v 9.20898 h -24.67533 z"
     id="path84"
     inkscape:connector-curvature="0"
     style="fill:none" />
  <path
     d="m 161.15702,115.46635 h 24.67533 v 9.20898 h -24.67533 z"
     id="path86"
     inkscape:connector-curvature="0"
     style="fill:none" />
  <path
     d="m 166.82409,123.1405 c 0,0.11806 0,0.11806 -0.11807,0.11806 l -0.11806,0.11806 h -0.94451 v 0.70839 h -0.47226 v -2.24321 h 1.18064 c 0.23613,0 0.35419,0 0.47226,0.11806 0.11806,0.11806 0.11806,0.23613 0.11806,0.47225 v 0.3542 c 0,0.23612 -0.11806,0.23612 -0.11806,0.35419 m -0.3542,-0.70839 v -0.11806 h -0.70838 v 0.82645 h 0.70838 z m 2.00709,1.6529 -0.47226,-0.70839 h -0.23612 v 0.70839 h -0.47226 v -2.12515 h 1.41677 c 0.11806,0 0.11806,0.11806 0.11806,0.11806 l 0.11806,0.11807 v 0.70838 c 0,0 0,0.11806 -0.11806,0.11806 l -0.11806,0.11807 h -0.3542 l 0.59032,0.82644 z m 0.11806,-1.53483 v -0.11807 h -0.70838 v 0.70839 h 0.59032 c 0.11806,0 0.23613,-0.11807 0.23613,-0.23613 v -0.35419 z m 2.5974,1.2987 c 0,0.11806 -0.11806,0.11806 -0.11806,0.23613 0,0 -0.11806,0.11806 -0.23613,0.11806 h -1.06257 c -0.11806,0 -0.11806,0 -0.23613,-0.11806 0,0 -0.11806,-0.11807 -0.11806,-0.23613 v -1.65289 c 0,-0.11807 0.11806,-0.11807 0.11806,-0.11807 0,0 0.11807,-0.11806 0.23613,-0.11806 h 0.82645 c 0.23612,0 0.35419,0 0.47225,0.11806 0.11806,0.11807 0.11806,0.23613 0.11806,0.47226 v 1.2987 m -0.47225,-1.41677 v -0.11806 h -0.82645 v 1.41677 h 0.70839 v -0.11807 z m 1.65289,1.77096 v -2.36127 h 0.47226 v 2.00708 h 0.94451 v 0.35419 m 2.24321,-0.23613 c 0,0.11807 -0.11807,0.11807 -0.11807,0.23613 0,0 -0.11806,0.11806 -0.23612,0.11806 h -1.06258 c -0.11806,0 -0.11806,0 -0.23612,-0.11806 0,0 -0.11807,-0.11806 -0.11807,-0.23613 v -1.65289 c 0,-0.11806 0.11807,-0.11806 0.11807,-0.11806 0,0 0.11806,-0.11807 0.23612,-0.11807 h 0.82645 c 0.23613,0 0.35419,0 0.47225,0.11807 0.11807,0.11806 0.11807,0.23612 0.11807,0.47225 v 1.2987 m -0.47226,-1.53483 v -0.11806 h -0.82644 v 1.41676 h 0.70838 v -0.11806 z m 2.24321,1.77096 v -0.11806 0.11806 c -0.11806,-0.11806 -0.23612,0 -0.23612,0 h -0.82645 c -0.11806,0 -0.11806,0 -0.23613,-0.11806 0,0 -0.11806,-0.11807 -0.11806,-0.23613 v -1.2987 c 0,-0.11807 0,-0.23613 0.11806,-0.35419 0,-0.11807 0.11807,-0.11807 0.11807,-0.11807 0.11806,0 0.11806,0 0.23612,-0.11806 h 1.06258 c 0.11806,0 0.11806,0 0.23613,0.11806 v 0.23613 h -1.18064 v 1.41676 h 0.94451 v -0.47225 h -0.47226 v -0.35419 h 0.94451 v 1.2987 z m 0.82645,-2.24321 h 0.47226 v 2.24321 h -0.47226 z m 2.47934,2.24321 h -0.82645 c -0.23612,0 -0.35419,0 -0.47225,-0.11806 -0.11807,-0.11807 -0.11807,-0.23613 -0.11807,-0.47226 v -1.41676 c 0,-0.11807 0.11807,-0.11807 0.11807,-0.23613 0,0 0.11806,-0.11807 0.23613,-0.11807 h 0.94451 c 0.11806,0 0.11806,0 0.23612,0.11807 v 0.23613 h -1.06257 v 1.41676 h 1.06257 l -0.11806,0.59032 c 0,-0.11806 0,0 0,0 m 1.18064,-2.24321 h 0.47225 v 2.24321 h -0.47225 z m 0.94451,0 h 0.47225 v 2.24321 h -0.47225 z"
     id="path88"
     inkscape:connector-curvature="0"
     style="fill:#010101" />
  <path
     d="m 185.59622,124.08501 v -2.9516 h -24.32113 c 0,0 -0.11807,0 -0.11807,-0.11806 0,0 0,-0.11807 0.11807,-0.11807 h 24.55726 v 3.18773 c 0,0 -0.11806,0.11806 -0.23613,0 0.11807,0.11806 0,0 0,0"
     id="path90"
     inkscape:connector-curvature="0"
     style="fill:#010101" />
</svg>
