<?xml version="1.0" encoding="UTF-8" standalone="no"?>
<svg
   xmlns:dc="http://purl.org/dc/elements/1.1/"
   xmlns:cc="http://creativecommons.org/ns#"
   xmlns:rdf="http://www.w3.org/1999/02/22-rdf-syntax-ns#"
   xmlns:svg="http://www.w3.org/2000/svg"
   xmlns="http://www.w3.org/2000/svg"
   xmlns:sodipodi="http://sodipodi.sourceforge.net/DTD/sodipodi-0.dtd"
   xmlns:inkscape="http://www.inkscape.org/namespaces/inkscape"
   viewBox="9.6 187.5 402 177.31662"
   version="1.1"
   id="svg4"
   sodipodi:docname="logo.svg"
   width="403"
   height="177.31662"
   inkscape:version="0.92.4 5da689c313, 2019-01-14">
  <metadata
     id="metadata10">
    <rdf:RDF>
      <cc:Work
         rdf:about="">
        <dc:format>image/svg+xml</dc:format>
        <dc:type
           rdf:resource="http://purl.org/dc/dcmitype/StillImage" />
      </cc:Work>
    </rdf:RDF>
  </metadata>
  <defs
     id="defs8" />
  <sodipodi:namedview
     pagecolor="#ffffff"
     bordercolor="#666666"
     borderopacity="1"
     objecttolerance="10"
     gridtolerance="10"
     guidetolerance="10"
     inkscape:pageopacity="0"
     inkscape:pageshadow="2"
     inkscape:window-width="640"
     inkscape:window-height="480"
     id="namedview6"
     showgrid="false"
     inkscape:zoom="0.6775"
     inkscape:cx="200"
     inkscape:cy="88.658313"
     inkscape:window-x="0"
     inkscape:window-y="0"
     inkscape:window-maximized="0"
     inkscape:current-layer="svg4">
    <inkscape:grid
       type="xygrid"
       id="grid817"
       originx="-3.9999999e-07"
       originy="2.6269531e-06" />
  </sodipodi:namedview>
  <path
     d="M 78.22544,364.20022 C 70.7465,362.14557 63.47302,355.24193 60.30886,347.1466 58.17202,341.72231 50.44652,314.55979 23.40727,217.29248 l -4.06821,-14.58804 18.28642,-0.12328 c 10.0678,-0.0411 18.4097,0.0411 18.57407,0.20546 0.16437,0.16437 7.02691,26.66941 15.20444,58.92747 l 14.91678,58.59873 7.1091,-27.16252 c 16.84817,-64.51613 19.72468,-74.91268 21.86152,-79.39183 2.87652,-6.04068 7.88987,-10.31436 13.80727,-11.8759 3.12308,-0.82186 10.35546,-0.82186 13.47853,0 6.5749,1.72591 11.67044,6.45162 14.50586,13.39635 1.72591,4.23258 5.42429,17.87549 19.23156,70.88555 4.64352,17.8344 8.58845,32.79228 8.75282,33.16212 0.20547,0.45202 5.9585,-21.45059 15.28663,-58.02343 l 14.99897,-58.7631 h 18.57407 c 14.67023,0 18.53298,0.12328 18.4097,0.49312 -0.0822,0.28765 -4.06822,14.46476 -8.79392,31.55948 -22.64228,81.52867 -30.53215,108.93775 -32.75118,113.74564 -3.78056,8.21861 -10.1089,13.88946 -17.62893,15.86192 -3.16417,0.82187 -9.98562,0.82187 -13.10869,0 -4.35587,-1.1506 -6.82145,-2.62995 -10.56092,-6.36942 -2.91761,-2.91761 -3.82166,-4.1915 -5.42429,-7.39676 -2.58886,-5.301 -5.09554,-13.93055 -21.03965,-72.52928 -3.73947,-13.80727 -6.94473,-25.35442 -7.06801,-25.68317 -0.12328,-0.32874 -3.98603,13.14979 -8.58845,29.95685 -10.1089,36.94268 -15.451,56.05096 -17.09472,61.26978 -3.5751,11.3006 -10.1089,18.49188 -18.65626,20.71091 -3.04089,0.82186 -10.51983,0.82186 -13.39634,0.0411 z M 270.7054,307.49178 v -56.09205 h 34.92912 v 112.1841 H 270.7054 Z m 70.26916,0 v -56.09205 h 34.92912 v 112.1841 h -34.92912 z m 48.0789,50.54448 v -5.54756 h -2.05465 c -1.93138,0 -2.05466,-0.0822 -2.05466,-1.02733 v -1.02733 h 10.6842 v 1.02733 c 0,0.94514 -0.12328,1.02733 -2.05465,1.02733 h -2.05465 v 11.09513 h -2.46559 z m 7.39676,-1.02732 v -6.5749 h 3.69837 l 1.23279,4.06822 c 0.69859,2.21902 1.2328,4.31477 1.2328,4.60242 0,1.27389 0.82186,-0.49311 2.01356,-4.43805 l 1.27388,-4.23259 H 409.6 v 13.14979 h -2.46558 l -0.0411,-4.64352 c -0.0411,-5.01336 0,-5.01336 -1.80809,1.06842 -1.06842,3.61619 -1.06842,3.61619 -2.3834,3.49291 -1.27389,-0.12328 -1.31498,-0.20546 -2.54777,-4.43805 l -1.23279,-4.31477 -0.12328,4.43805 -0.12328,4.43805 h -2.46559 v -6.61598 z M 283.23879,232.04489 c -7.93096,-1.60263 -14.46476,-8.38299 -15.82083,-16.35504 -1.64373,-9.69797 4.84898,-19.47812 14.58804,-22.02589 4.97226,-1.31498 11.34169,-0.6164 15.90302,1.68482 2.71214,1.39716 6.86254,5.3421 8.25971,7.88987 4.76679,8.79391 1.93137,20.25888 -6.32834,25.55989 -4.56133,2.9587 -11.42387,4.31477 -16.6016,3.24635 z m 70.26916,0 c -10.23217,-2.09574 -17.50565,-12.28683 -15.86193,-22.31354 1.27389,-7.6844 7.10911,-14.09492 14.62914,-16.06739 4.97226,-1.31498 11.34169,-0.6164 15.90302,1.68482 2.71214,1.39716 6.57489,5.05444 8.13643,7.76659 4.93117,8.67064 2.13684,20.38216 -6.16396,25.68317 -4.60243,2.9587 -11.46497,4.31477 -16.6427,3.24635 z M 9.6,187.5"
     id="path2"
     inkscape:connector-curvature="0"
     style="fill:#999999" />
</svg>
