<?xml version="1.0" encoding="UTF-8" standalone="no"?>
<svg
   xmlns:dc="http://purl.org/dc/elements/1.1/"
   xmlns:cc="http://creativecommons.org/ns#"
   xmlns:rdf="http://www.w3.org/1999/02/22-rdf-syntax-ns#"
   xmlns:svg="http://www.w3.org/2000/svg"
   xmlns="http://www.w3.org/2000/svg"
   xmlns:sodipodi="http://sodipodi.sourceforge.net/DTD/sodipodi-0.dtd"
   xmlns:inkscape="http://www.inkscape.org/namespaces/inkscape"
   width="345.28958"
   height="200"
   version="1.1"
   id="svg27"
   sodipodi:docname="game.svg"
   inkscape:version="0.92.4 5da689c313, 2019-01-14">
  <metadata
     id="metadata31">
    <rdf:RDF>
      <cc:Work
         rdf:about="">
        <dc:format>image/svg+xml</dc:format>
        <dc:type
           rdf:resource="http://purl.org/dc/dcmitype/StillImage" />
      </cc:Work>
    </rdf:RDF>
  </metadata>
  <sodipodi:namedview
     pagecolor="#ffffff"
     bordercolor="#666666"
     borderopacity="1"
     objecttolerance="10"
     gridtolerance="10"
     guidetolerance="10"
     inkscape:pageopacity="0"
     inkscape:pageshadow="2"
     inkscape:window-width="471"
     inkscape:window-height="442"
     id="namedview29"
     showgrid="false"
     inkscape:zoom="0.78484847"
     inkscape:cx="172.64479"
     inkscape:cy="100"
     inkscape:window-x="0"
     inkscape:window-y="0"
     inkscape:window-maximized="0"
     inkscape:current-layer="svg27">
    <inkscape:grid
       type="xygrid"
       id="grid33"
       originx="0"
       originy="0" />
  </sodipodi:namedview>
  <defs
     id="defs5">
    <clipPath
       id="a">
      <path
         d="M 0,115.181 H 198.854 V 0 H 0 Z"
         id="path2"
         inkscape:connector-curvature="0" />
    </clipPath>
  </defs>
  <g
     clip-path="url(#a)"
     transform="matrix(1.7363975,0,0,-1.7363975,0,200)"
     id="g23">
    <path
       d="m 4.9375,4.166 v 88.507 h 5.475 V 0 H 9.1045 C 6.8035,0 4.9375,1.866 4.9375,4.166 V 92.673 M 193.916,4.166 v 88.507 h -5.474 V 0 h 1.308 c 2.303,0 4.166,1.866 4.166,4.166 v 88.507"
       id="path7"
       inkscape:connector-curvature="0"
       style="fill:#9f9f9e" />
    <path
       d="m 99.4277,0 h 89.015 v 92.673 h 10.412 v 17.165 c 0,2.95 -2.393,5.343 -5.345,5.343 H 5.3437 c -2.951,0 -5.344,-2.393 -5.344,-5.343 V 92.673 h 10.412 V 0 Z"
       id="path9"
       inkscape:connector-curvature="0"
       style="fill:#bbbbb9" />
    <path
       d="m 84.3974,9.4893 h 30.06 l -15.714,-6.641 z m 15.0303,105.6914 h 94.082 c 2.952,0 5.345,-2.393 5.345,-5.343 v -17.165 h -5.445 v 16.527 H 5.4457 V 92.6727 H -3e-4 v 17.165 c 0,2.95 2.393,5.343 5.344,5.343 z m 74.669,-99.4571 c 0,-1.512 -1.226,-2.736 -2.737,-2.736 H 27.4957 c -1.511,0 -2.737,1.224 -2.737,2.736 v 72.387 c 0,1.513 1.226,2.738 2.737,2.738 h 143.864 c 1.511,0 2.737,-1.225 2.737,-2.738 z"
       id="path11"
       inkscape:connector-curvature="0"
       style="fill:#9f9f9e" />
    <path
       d="m 160.3301,99.0449 c -18.02,6.388 -41.191,8.212 -61.491,8.212 -20.302,0 -43.472,-1.824 -61.491,-8.212 0,0 24.214,0.312 61.491,0.312 37.275,0 61.491,-0.312 61.491,-0.312"
       id="path13"
       inkscape:connector-curvature="0"
       style="fill:#9f9f9e" />
    <path
       d="m 86.3906,102.4209 c 1.141,0 1.846,-0.47 2.515,-1.221 0.245,0.219 0.508,0.413 0.791,0.58 0.708,0.416 1.489,0.628 2.27,0.631 l 10.59,0.001 -0.705,-1.043 13.318,0.01 1.211,-1.968 1.097,1.948 8.84,-0.005 2.194,-1.621 v 1.621 h 16.639 v -7.488 h -15.356 l -2.232,1.633 v -1.635 l -12.438,0.002 v -0.004 l -0.845,1.291 c -0.684,-0.722 -1.905,-1.289 -3.909,-1.289 l -12.181,-0.004 -0.174,-1.054 h -4.269 l 0.097,0.582 c -0.043,-0.027 -0.084,-0.055 -0.127,-0.08 -0.984,-0.579 -2.115,-0.77 -3.18,-0.538 -0.818,0.177 -1.525,0.587 -2.078,1.154 -0.715,-0.667 -1.683,-1.105 -2.603,-1.105 l -20.963,-0.013 -0.336,1.803 -0.86,-1.803 h -3.495 c -1.102,-0.176 -2.211,-0.022 -3.196,0.453 -1.367,0.657 -2.267,1.851 -2.41,3.191 -0.236,2.227 0.67,4.006 2.62,5.142 1.874,1.094 3.864,1.308 5.915,0.638 l 0.378,-0.125 0.144,0.307 h 3.916 l 0.297,-1.675 0.578,1.675 17.947,0.009"
       id="path15"
       inkscape:connector-curvature="0"
       style="fill:#9f9f9e" />
    <path
       d="m 110.1445,96.3164 h -1.406 v 2.681 h 1.98 c 1.072,0 1.571,-0.41 1.571,-1.286 0,-1.041 -0.541,-1.395 -2.145,-1.395 m 9.764,3.806 h -1.616 l -0.043,-0.076 -1.851,-3.167 -1.963,3.169 -0.045,0.074 h -1.736 l 0.141,-0.222 0.335,-0.519 c -0.535,0.48 -1.357,0.741 -2.424,0.741 h -3.491 v -4.118 l -2.588,4.042 -0.044,0.07 h -1.336 l -0.044,-0.071 -2.945,-4.671 -0.137,-0.219 h 1.156 v -0.002 h 2.572 v 1.098 h -1.513 l 1.515,2.572 2.14,-3.594 0.044,-0.074 h 1.723 l -0.003,0.005 h 2.647 c 2.281,0 3.443,0.841 3.443,2.497 0,0.287 -0.041,0.553 -0.116,0.795 l 2.07,-3.221 0.046,-0.071 h 1.008 l 0.047,0.073 2.874,4.67 0.134,0.219 m 10.0827,-3e-4 h -0.155 v -2.951 l -3.961,2.92 -0.041,0.031 h -1.037 v -4.121 l -2.592,4.048 -0.047,0.071 h -1.334 l -0.045,-0.072 -2.944,-4.671 -0.138,-0.218 h 1.569 l 0.003,0.004 h 2.16 v 1.098 h -1.512 l 1.512,2.566 2.139,-3.596 0.043,-0.072 h 1.725 l -0.002,0.001 h 0.873 v 2.992 l 3.944,-2.961 0.042,-0.031 h 1.035 v 4.962 z m 6.2295,-0.002 h -3.086 c -1.084,0 -1.449,-0.314 -1.449,-1.252 v -2.459 c 0,-0.931 0.365,-1.248 1.449,-1.248 h 3.086 c 1.087,0 1.453,0.317 1.453,1.248 v 0.698 h -0.154 l -1.215,0.003 h -0.155 v -0.763 h -2.944 v 2.619 h 2.944 v -0.688 h 0.155 l 1.214,-0.008 h 0.155 v 0.598 c 0,0.947 -0.353,1.252 -1.453,1.252 m 7.4805,-3.8037 h -4.009 v 0.87 h 2.392 v 1.094 h -2.392 v 0.717 h 4.107 v 1.123 h -5.63 v -4.96 h 5.688 v 1.156 z m -79.2598,1.2754 0.651,1.374 0.284,-1.374 z m 8.99,3.587 -1.749,-3.877 -0.755,3.877 h -1.528 l -1.973,-5.721 -1.01,5.721 h -1.907 l -2.882,-6.164 0.429,2.577 h -2.865 l -0.22,-1.327 h 1.197 l -0.135,-0.709 c -0.689,-0.258 -1.856,-0.162 -2.352,0.678 -0.315,0.533 -0.608,1.722 0.721,2.813 1.08,0.889 2.949,1.048 4.031,0.581 0,0 0.137,0.744 0.24,1.438 -2.076,0.68 -3.689,0.113 -4.769,-0.517 -1.471,-0.858 -2.18,-2.165 -1.99,-3.942 0.217,-2.064 3.054,-3.362 5.455,-2.053 0.022,0.012 0.039,0.02 0.055,0.03 l -0.225,-0.483 h 1.611 l 1.014,2.117 h 1.783 l 0.395,-2.117 h 2.625 l 1.338,3.959 0.859,-3.959 h 1.029 l 2.009,4.38 0.204,-4.38 h 1.545 l -0.326,7.078 h -1.854 m 2.3,-7.0782 h 4.308 l 0.258,1.52 h -2.696 l 0.213,1.261 h 2.344 l 0.258,1.518 h -2.368 l 0.206,1.261 h 2.693 l 0.258,1.518 h -4.273 z m 21.0362,4.7676 -0.961,2.311 h -1.768 l 1.819,-3.733 -0.559,-3.346 h 1.544 l 0.474,2.957 2.78,4.122 h -1.802 z"
       id="path17"
       inkscape:connector-curvature="0"
       style="fill:#bbbbb9" />
    <path
       d="m 93.1611,96.958 c -0.417,-1.18 -1.417,-1.855 -2.235,-1.51 -0.815,0.346 -1.14,1.578 -0.723,2.756 0.416,1.177 1.416,1.854 2.233,1.508 0.818,-0.343 1.142,-1.576 0.725,-2.754 m -0.605,4.16 c -1.709,0.371 -3.487,-0.911 -3.966,-2.869 -0.48,-1.957 0.519,-3.844 2.231,-4.217 1.71,-0.373 3.488,0.912 3.967,2.868 0.478,1.957 -0.52,3.845 -2.232,4.218"
       id="path19"
       inkscape:connector-curvature="0"
       style="fill:#bbbbb9" />
    <path
       d="m 85.7178,98.332 h -1.073 l 0.238,1.316 h 1.005 c 1.09,0 0.869,-1.316 -0.17,-1.316 m -0.187,-2.854 h -1.363 l 0.239,1.412 h 1.294 c 1.226,0 1.192,-1.412 -0.17,-1.412 m 0.902,5.66 c -0.834,0.014 -2.896,0 -2.896,0 h 0.019 l -1.193,-7.024 h 3.473 c 1.432,0 3.524,1.987 1.619,3.61 1.958,1.908 0.018,3.398 -1.022,3.414"
       id="path21"
       inkscape:connector-curvature="0"
       style="fill:#bbbbb9" />
  </g>
  <path
     d="m 191.30557,164.03454 z m 0,-2.65447 z m 0,-2.61277 z m 0,1.30638 z m 0,5.26726 z m 0,-2.65448 z m 0,-5.22555 z"
     id="path25"
     inkscape:connector-curvature="0"
     style="fill:#d40000" />
</svg>
