<?xml version="1.0" encoding="UTF-8" standalone="no"?>
<svg
   xmlns:dc="http://purl.org/dc/elements/1.1/"
   xmlns:cc="http://creativecommons.org/ns#"
   xmlns:rdf="http://www.w3.org/1999/02/22-rdf-syntax-ns#"
   xmlns:svg="http://www.w3.org/2000/svg"
   xmlns="http://www.w3.org/2000/svg"
   xmlns:sodipodi="http://sodipodi.sourceforge.net/DTD/sodipodi-0.dtd"
   xmlns:inkscape="http://www.inkscape.org/namespaces/inkscape"
   width="400"
   height="421.06912"
   version="1.1"
   id="svg47"
   sodipodi:docname="console.svg"
   inkscape:version="0.92.4 5da689c313, 2019-01-14">
  <metadata
     id="metadata51">
    <rdf:RDF>
      <cc:Work
         rdf:about="">
        <dc:format>image/svg+xml</dc:format>
        <dc:type
           rdf:resource="http://purl.org/dc/dcmitype/StillImage" />
      </cc:Work>
    </rdf:RDF>
  </metadata>
  <sodipodi:namedview
     pagecolor="#ffffff"
     bordercolor="#666666"
     borderopacity="1"
     objecttolerance="10"
     gridtolerance="10"
     guidetolerance="10"
     inkscape:pageopacity="0"
     inkscape:pageshadow="2"
     inkscape:window-width="471"
     inkscape:window-height="442"
     id="namedview49"
     showgrid="false"
     inkscape:zoom="0.56047805"
     inkscape:cx="200"
     inkscape:cy="210.53456"
     inkscape:window-x="0"
     inkscape:window-y="0"
     inkscape:window-maximized="0"
     inkscape:current-layer="svg47">
    <inkscape:grid
       type="xygrid"
       id="grid53"
       originx="0"
       originy="-7.078616e-07" />
  </sodipodi:namedview>
  <defs
     id="defs5">
    <clipPath
       id="a">
      <path
         d="M 0,408.704 H 388.253 V 0 H 0 Z"
         id="path2"
         inkscape:connector-curvature="0" />
    </clipPath>
  </defs>
  <g
     clip-path="url(#a)"
     transform="matrix(1.0302563,0,0,-1.0302563,0,421.06956)"
     id="g45">
    <path
       d="m 385.5997,408.4282 -50.67,-106.629 c -0.551,0.809 -1.12,1.619 -1.689,2.411 l 49.223,104.476 c 1.327,-0.017 2.343,-0.086 3.136,-0.258 M 55.0118,304.2107 c -0.569,-0.792 -1.12,-1.602 -1.671,-2.412 l -50.67,106.63 c 0.775,0.172 1.791,0.241 3.084,0.258 z"
       id="path7"
       inkscape:connector-curvature="0"
       style="fill:#a7a8a8" />
    <path
       d="m 382.464,408.6867 -49.223,-104.476 c -30.753,43.761 -81.596,72.344 -139.106,72.344 -57.51,0 -108.352,-28.583 -139.123,-72.344 L 5.754,408.6867 c 0.776,0.017 1.654,0.017 2.654,0.017 h 371.437 c 0.982,0 1.844,0 2.619,-0.017"
       id="path9"
       inkscape:connector-curvature="0"
       style="fill:#e4e5e4" />
    <path
       d="M 388.2529,400.3307 V 95.8097 c 0,0 -0.207,-79.115 -5.341,-85.076 -2.481,-2.894 -46.828,-6.84 -91.916,-8.752 -48,-2.05 -96.878,-1.981 -96.878,-1.981 0,0 -48.861,-0.069 -96.861,1.981 -45.088,1.912 -89.435,5.858 -91.916,8.752 -5.134,5.961 -5.341,85.076 -5.341,85.076 v 304.521 c 0,5.72 0,7.529 2.671,8.098 l 50.67,-106.63 c 0.551,0.81 1.102,1.62 1.671,2.412 30.771,43.761 81.613,72.344 139.123,72.344 57.51,0 108.353,-28.583 139.106,-72.344 0.569,-0.792 1.137,-1.602 1.689,-2.412 l 50.67,106.63 c 2.653,-0.586 2.653,-2.395 2.653,-8.098"
       id="path11"
       inkscape:connector-curvature="0"
       style="fill:#dedfde" />
    <path
       d="m 326.6769,206.3679 c 0,-73.257 -59.354,-132.662 -132.542,-132.662 -73.205,0 -132.559,59.405 -132.559,132.662 0,20.571 4.686,40.04 13.042,57.424 21.381,44.502 66.883,75.238 119.517,75.238 52.91,0 98.601,-31.046 119.827,-75.945 8.167,-17.194 12.715,-36.421 12.715,-56.717"
       id="path13"
       inkscape:connector-curvature="0"
       style="fill:#e4e5e4" />
    <path
       d="m 364.1497,206.3679 c 0,-94.001 -76.117,-170.187 -170.015,-170.187 -93.897,0 -170.032,76.186 -170.032,170.187 0,35.371 10.786,68.209 29.238,95.431 0.551,0.81 1.103,1.619 1.671,2.412 l 1.413,-2.981 c -18.59,-26.946 -29.462,-59.629 -29.462,-94.862 0,-92.416 74.843,-167.327 167.172,-167.327 92.313,0 167.155,74.911 167.155,167.327 0,35.233 -10.871,67.916 -29.461,94.862 l 1.412,2.981 c 0.569,-0.793 1.138,-1.602 1.689,-2.412 18.435,-27.222 29.22,-60.06 29.22,-95.431"
       id="path15"
       inkscape:connector-curvature="0"
       style="fill:#a7a8a8" />
    <path
       d="m 333.2411,304.2107 -1.413,-2.981 c -30.133,43.779 -80.562,72.465 -137.693,72.465 -57.114,0 -107.543,-28.669 -137.693,-72.43 0,-0.017 -0.017,-0.017 -0.017,-0.035 l -1.413,2.981 c 30.771,43.761 81.613,72.344 139.123,72.344 57.51,0 108.352,-28.583 139.106,-72.344"
       id="path17"
       inkscape:connector-curvature="0"
       style="fill:#a7a8a8" />
    <path
       d="m 180.4725,36.7323 13.663,-29.513 13.645,29.513"
       id="path19"
       inkscape:connector-curvature="0"
       style="fill:#d65725" />
    <path
       d="m 25.4384,42.2042 c -7.631,20.06 -6.27,28.031 2.996,33.717 13.592,8.378 35.524,-14.51 38.045,-26.667 2.726,-13.251 -4.223,-25.273 -14.953,-27.144 -10.694,-1.84 -21.695,8.516 -26.088,20.094"
       id="path21"
       inkscape:connector-curvature="0"
       style="fill:#a7a8a8" />
    <path
       d="m 28.1279,40.8758 c -2.248,12.226 4.666,23.604 15.396,25.473 10.694,1.842 21.183,-6.573 23.431,-18.764 2.214,-12.229 -4.7,-23.604 -15.43,-25.475 -10.692,-1.84 -21.183,6.54 -23.397,18.766"
       id="path23"
       inkscape:connector-curvature="0"
       style="fill:#bbbbbb" />
    <path
       d="m 33.7956,41.8551 c -1.592,8.655 3.303,16.711 10.9,18.034 7.571,1.304 14.996,-4.653 16.588,-13.284 1.568,-8.658 -3.327,-16.711 -10.924,-18.036 -7.57,-1.302 -14.997,4.631 -16.564,13.286"
       id="path25"
       inkscape:connector-curvature="0"
       style="fill:#c1c3c2" />
    <path
       d="m 313.9619,263.0854 c -21.226,44.898 -66.917,75.945 -119.827,75.945 -52.634,0 -98.136,-30.736 -119.517,-75.239 l -18.176,37.473 c 30.15,43.762 80.579,72.43 137.693,72.43 57.131,0 107.56,-28.686 137.693,-72.464 z"
       id="path27"
       inkscape:connector-curvature="0"
       style="fill:#e4e5e4" />
    <path
       d="m 362.8214,42.2042 c 7.629,20.06 6.266,28.031 -3,33.717 -13.588,8.378 -35.52,-14.51 -38.043,-26.667 -2.722,-13.251 4.225,-25.273 14.955,-27.144 10.692,-1.84 21.695,8.516 26.088,20.094"
       id="path29"
       inkscape:connector-curvature="0"
       style="fill:#a7a8a8" />
    <path
       d="m 360.1319,40.8758 c 2.247,12.226 -4.667,23.604 -15.396,25.473 -10.697,1.842 -21.186,-6.573 -23.433,-18.764 -2.215,-12.229 4.7,-23.604 15.429,-25.475 10.694,-1.84 21.184,6.54 23.4,18.766"
       id="path31"
       inkscape:connector-curvature="0"
       style="fill:#bbbbbb" />
    <path
       d="m 337.8986,28.5696 c -7.597,1.325 -12.491,9.377 -10.924,18.035 1.592,8.631 9.018,14.588 16.589,13.285 7.596,-1.324 12.491,-9.379 10.899,-18.034 -1.567,-8.656 -8.994,-14.589 -16.564,-13.286 M 21.4207,127.3149 c 0,2.214 1.804,4.019 4.018,4.019 2.214,0 4.018,-1.805 4.018,-4.019 0,-2.214 -1.804,-4.018 -4.018,-4.018 -2.214,0 -4.018,1.804 -4.018,4.018 m -16.078,76.3567 c 0,2.252 1.804,4.02 4.018,4.02 2.214,0 4.021,-1.768 4.021,-4.02 0,-2.21 -1.807,-4.016 -4.021,-4.016 -2.212,0 -4.018,1.806 -4.018,4.016 m 4.0177,-38.858 c 0,2.247 1.807,4.018 4.021,4.018 2.211,0 4.018,-1.771 4.018,-4.018 0,-2.21 -1.807,-4.018 -4.018,-4.018 -2.214,0 -4.021,1.808 -4.021,4.018 m 12.0603,115.2526 c 0,-2.21 1.804,-4.021 4.018,-4.021 2.214,0 4.018,1.811 4.018,4.021 0,2.214 -1.804,4.02 -4.018,4.02 -2.214,10e-4 -4.018,-1.806 -4.018,-4.02 M 9.3604,242.5365 c 0,-2.214 1.807,-4.021 4.021,-4.021 2.211,0 4.018,1.807 4.018,4.021 0,2.248 -1.807,4.018 -4.018,4.018 -2.214,0 -4.021,-1.77 -4.021,-4.018 M 366.8391,127.3149 c 0,2.214 -1.804,4.019 -4.018,4.019 -2.217,0 -4.021,-1.805 -4.021,-4.019 0,-2.214 1.804,-4.018 4.021,-4.018 2.214,0 4.018,1.804 4.018,4.018 m 16.0763,76.3567 c 0,2.252 -1.807,4.02 -4.021,4.02 -2.212,0 -4.018,-1.768 -4.018,-4.02 0,-2.21 1.806,-4.016 4.018,-4.016 2.214,0 4.021,1.806 4.021,4.016 m -4.0212,-38.858 c 0,2.247 -1.804,4.018 -4.018,4.018 -2.212,0 -4.018,-1.771 -4.018,-4.018 0,-2.21 1.806,-4.018 4.018,-4.018 2.214,0 4.018,1.808 4.018,4.018 m -12.0551,115.2526 c 0,-2.21 -1.804,-4.021 -4.018,-4.021 -2.217,0 -4.021,1.811 -4.021,4.021 0,2.214 1.804,4.02 4.021,4.02 2.214,10e-4 4.018,-1.806 4.018,-4.02 m 12.0551,-37.5297 c 0,-2.214 -1.804,-4.021 -4.018,-4.021 -2.212,0 -4.018,1.807 -4.018,4.021 0,2.248 1.806,4.018 4.018,4.018 2.214,0 4.018,-1.77 4.018,-4.018"
       id="path33"
       inkscape:connector-curvature="0"
       style="fill:#c1c3c2" />
    <path
       d="m 238.4391,241.1587 v -11.406 c 0,-2.549 -2.086,-4.634 -4.635,-4.634 h -74.925 c -2.549,0 -4.635,2.085 -4.635,4.634 v 11.406 c 0,2.549 2.086,4.635 4.635,4.635 h 9.151 c 2.286,0 4.138,1.852 4.138,4.137 v 10.856 c 0,13.531 10.414,25.165 23.932,25.778 14.42,0.654 26.29,-10.836 26.29,-25.093 v -11.541 c 0,-2.285 1.853,-4.137 4.138,-4.137 h 7.276 c 2.549,0 4.635,-2.086 4.635,-4.635"
       id="path35"
       inkscape:connector-curvature="0"
       style="fill:#dedfde" />
    <path
       d="m 190.1621,231.6708 c -0.067,-0.033 -0.27,-0.202 -0.341,-0.238 -0.271,-0.069 -0.441,-0.17 -0.61,-0.203 -0.202,-0.036 -0.443,-0.067 -0.648,-0.067 -0.339,0 -0.61,0.101 -0.816,0.238 -0.24,0.134 -0.24,0.068 -0.411,0.308 -0.134,0.2 -0.372,0.543 -0.372,0.815 -0.036,0.205 -0.036,0.375 0.033,0.58 0.035,0.137 0.105,0.271 0.205,0.409 0.134,0.136 0.274,0.306 0.476,0.443 0.205,0.105 0.375,0.136 0.715,0.27 0.17,0.069 0.41,0.105 0.785,0.138 0.202,0.033 0.61,0.033 0.748,0.1 0.136,0.036 0.274,0.036 0.376,0.107 0.101,0.067 0.237,0.101 0.306,0.136 0.067,0.065 0.171,0.101 0.34,0.27 l -0.035,-1.633 c 0,0 -0.033,-0.682 -0.272,-1.056 -0.24,-0.412 -0.479,-0.617 -0.479,-0.617 m -3.709,5.451 c 0.373,0.169 0.647,0.272 0.883,0.374 0.242,0.069 0.512,0.134 0.852,0.205 0.341,0.069 0.58,0.102 0.921,0.102 0.34,0 0.752,-0.133 1.022,-0.202 0.239,-0.07 0.441,-0.341 0.581,-0.546 0.17,-0.171 0.201,-0.274 0.201,-0.544 v -0.274 c -0.033,-0.102 -0.101,-0.135 -0.17,-0.236 -0.069,-0.104 -0.136,-0.205 -0.238,-0.273 -0.069,-0.069 -0.174,-0.137 -0.274,-0.205 -0.136,-0.069 -0.271,-0.101 -0.41,-0.17 -0.135,-0.069 -0.34,-0.036 -0.541,-0.104 -0.682,-0.103 -1.227,-0.134 -1.533,-0.237 -0.307,-0.102 -0.512,-0.171 -0.717,-0.274 -0.236,-0.102 -0.34,-0.205 -0.545,-0.374 -0.205,-0.171 -0.27,-0.305 -0.372,-0.477 -0.105,-0.169 -0.207,-0.341 -0.274,-0.543 -0.036,-0.205 -0.101,-0.476 -0.101,-0.715 0,-0.41 0.065,-0.751 0.27,-1.123 0.171,-0.34 0.512,-0.646 0.887,-0.82 0.373,-0.171 0.852,-0.373 1.534,-0.373 h 0.646 c 0.205,0.033 0.406,0.102 0.786,0.169 0.17,0.138 0.406,0.272 0.678,0.477 0.24,0.238 0.376,0.374 0.376,0.374 v -0.851 h 1.464 c -0.136,0.614 -0.203,0.682 -0.168,1.124 0,0.751 -0.069,2.386 -0.037,3.27 0,0.887 -0.034,0.646 -0.034,1.021 0,0.307 -0.136,0.819 -0.238,1.089 -0.105,0.274 -0.274,0.445 -0.444,0.751 -0.205,0.24 -0.683,0.581 -1.057,0.683 -0.406,0.105 -0.682,0.17 -1.121,0.17 -0.41,0 -1.022,-0.034 -1.465,-0.065 -0.41,-0.069 -0.751,-0.174 -1.33,-0.343 -10e-4,-0.448 -10e-4,-0.824 -0.032,-1.06 m 31.5371,-5.3476 c -0.102,-0.036 -0.272,-0.205 -0.374,-0.241 -0.239,-0.066 -0.408,-0.171 -0.579,-0.203 -0.241,-0.033 -0.443,-0.068 -0.648,-0.068 -0.339,0 -0.646,0.102 -0.851,0.24 -0.205,0.136 -0.205,0.067 -0.375,0.306 -0.171,0.206 -0.409,0.545 -0.409,0.819 0,0.201 0,0.375 0.035,0.58 0.067,0.135 0.105,0.271 0.238,0.404 0.137,0.137 0.274,0.308 0.479,0.448 0.17,0.101 0.372,0.134 0.711,0.27 0.14,0.066 0.41,0.102 0.786,0.133 0.17,0.036 0.613,0.036 0.751,0.107 0.102,0.032 0.238,0.067 0.339,0.101 0.136,0.067 0.238,0.102 0.338,0.136 0.069,0.069 0.138,0.105 0.31,0.271 v -1.634 c 0,0 -0.036,-0.646 -0.272,-1.056 -0.241,-0.411 -0.479,-0.613 -0.479,-0.613 m -3.713,5.45 c 0.34,0.17 0.614,0.27 0.851,0.375 0.236,0.069 0.545,0.134 0.851,0.202 0.34,0.065 0.614,0.103 0.92,0.103 0.34,0 0.783,-0.134 1.02,-0.203 0.273,-0.071 0.445,-0.341 0.614,-0.546 0.17,-0.171 0.17,-0.336 0.205,-0.61 0,-0.105 0,-0.173 -0.036,-0.273 -0.035,-0.106 -0.069,-0.068 -0.137,-0.172 -0.068,-0.101 -0.137,-0.203 -0.239,-0.272 -0.069,-0.065 -0.171,-0.134 -0.307,-0.205 -0.103,-0.066 -0.239,-0.102 -0.375,-0.171 -0.171,-0.069 -0.34,-0.032 -0.541,-0.101 -0.717,-0.104 -1.261,-0.135 -1.534,-0.238 -0.31,-0.103 -0.511,-0.172 -0.751,-0.272 -0.205,-0.105 -0.341,-0.205 -0.544,-0.379 -0.205,-0.169 -0.274,-0.269 -0.376,-0.44 -0.101,-0.17 -0.172,-0.375 -0.241,-0.58 -0.065,-0.204 -0.134,-0.476 -0.134,-0.715 0.034,-0.407 0.068,-0.751 0.274,-1.124 0.201,-0.339 0.509,-0.646 0.885,-0.816 0.407,-0.171 0.887,-0.376 1.568,-0.376 h 0.61 c 0.241,0.036 0.443,0.102 0.782,0.171 0.172,0.136 0.444,0.274 0.682,0.474 0.274,0.243 0.41,0.377 0.41,0.377 v -0.851 h 1.463 c -0.134,0.611 -0.202,0.682 -0.202,1.125 0.033,0.749 -0.036,2.383 -0.036,3.266 0.036,0.888 0,0.647 0,1.024 -0.032,0.305 -0.132,0.82 -0.237,1.087 -0.104,0.274 -0.271,0.479 -0.476,0.751 -0.171,0.241 -0.646,0.581 -1.056,0.684 -0.374,0.102 -0.646,0.198 -1.087,0.198 -0.41,0 -1.056,-0.065 -1.468,-0.098 -0.441,-0.069 -0.748,-0.171 -1.329,-0.307 -0.029,-0.477 0.006,-0.849 -0.029,-1.088 m -20.709,-6.7457 0.171,0.577 0.036,1.604 -0.104,4.599 c 0,0.41 -0.237,0.883 -0.237,1.088 0.237,0 0.747,0.069 0.983,0.174 0.171,0.066 0.41,0.066 0.581,0.066 v -1.056 c 0.171,0.306 0.441,0.337 0.581,0.511 0.101,0.171 0.239,0.171 0.475,0.34 0.205,0.139 0.34,0.139 0.613,0.205 0.342,0.036 0.578,0.067 0.884,0.067 0.205,0 0.41,-0.033 0.614,-0.102 0.205,-0.032 0.406,-0.136 0.579,-0.237 0.17,-0.069 0.339,-0.205 0.441,-0.309 0.137,-0.139 0.274,-0.205 0.41,-0.442 0.034,-0.069 0.339,0.372 0.782,0.611 0.444,0.24 0.954,0.445 1.5,0.445 0.34,0 1.122,-0.037 1.463,-0.171 0.341,-0.136 0.819,-0.31 1.024,-0.546 0.203,-0.236 0.27,-0.339 0.441,-0.544 0.239,-0.238 0.31,-0.852 0.31,-1.089 0,-0.273 0.033,-0.683 0.033,-1.194 v -3.777 c 0,-0.375 0.103,-0.41 0.172,-0.82 h -1.568 c 0.202,0.646 0.171,0.445 0.171,0.82 l 0.032,3.437 c 0,0.479 0,0.751 -0.032,1.125 0,0.304 -0.102,0.683 -0.171,0.851 -0.069,0.169 -0.376,0.512 -0.512,0.647 -0.138,0.136 -0.339,0.17 -0.544,0.241 -0.171,0.101 -0.512,0.101 -0.748,0.101 -0.172,0 -0.444,-0.032 -0.615,-0.07 -0.134,-0.066 -0.307,-0.102 -0.444,-0.202 -0.135,-0.103 -0.271,-0.138 -0.407,-0.307 -0.103,-0.137 -0.203,-0.304 -0.307,-0.51 -0.069,-0.174 -0.069,-0.478 -0.101,-0.785 0,-0.34 0.032,-0.782 0,-1.258 v -3.339 l 0.237,-0.751 h -1.636 c 0,0.682 0.105,0.069 0.105,0.784 v 4.664 c -0.035,0.274 -0.066,0.375 -0.105,0.58 -0.066,0.171 -0.167,0.443 -0.304,0.578 -0.137,0.174 -0.444,0.444 -0.649,0.515 -0.171,0.101 -0.441,0.17 -0.681,0.17 -0.272,0 -0.41,-0.036 -0.647,-0.139 -0.206,-0.102 -0.407,-0.135 -0.578,-0.34 -0.174,-0.169 -0.308,-0.205 -0.444,-0.472 -0.105,-0.274 -0.205,-0.205 -0.238,-0.653 -0.069,-0.439 -0.103,-2.041 -0.103,-3.13 0.034,-0.648 0.034,-1.225 0.034,-1.77 0,-0.339 0.171,-0.475 0.171,-0.784 h -0.782 c -0.137,-0.003 -0.578,-0.003 -0.886,-0.003 m 19.3463,1.4662 c 0,-0.105 -0.036,-0.274 -0.067,-0.512 -0.036,-0.239 -0.104,-0.444 -0.138,-0.682 -0.339,-0.102 -0.713,-0.203 -1.053,-0.239 -0.31,-0.035 -1.192,-0.066 -1.468,-0.066 -0.51,0 -1.125,0.102 -1.566,0.236 -0.442,0.174 -1.021,0.479 -1.363,0.851 -0.339,0.341 -0.751,0.717 -0.92,1.261 -0.168,0.545 -0.303,1.057 -0.303,1.634 -0.036,0.818 0.102,1.09 0.303,1.804 0.24,0.716 0.821,1.261 1.331,1.671 0.541,0.41 1.771,0.749 2.691,0.749 0.682,0 1.497,-0.101 2.179,-0.306 0.035,-0.479 0.069,-0.748 0.105,-1.057 -0.477,0.174 -0.922,0.379 -1.194,0.445 -0.305,0.036 -0.682,0.102 -0.918,0.102 -0.443,0 -1.328,-0.205 -1.67,-0.373 -0.339,-0.174 -0.609,-0.41 -0.851,-0.751 -0.205,-0.306 -0.375,-0.749 -0.475,-1.192 -0.103,-0.445 -0.135,-0.476 -0.103,-0.953 0.034,-0.613 0.134,-1.158 0.308,-1.635 0.201,-0.443 0.512,-0.918 0.953,-1.158 0.41,-0.272 0.92,-0.511 1.464,-0.511 0.508,0 1.597,0.067 2.755,0.682 m 8.2751,-1.1578 -0.134,0.543 c 0,0.069 -0.136,0.408 -0.204,0.784 0.919,-0.512 1.875,-0.886 2.588,-0.886 0.34,0 0.715,0.134 0.953,0.203 0.239,0.102 0.477,0.274 0.613,0.474 0.105,0.174 0.238,0.377 0.274,0.548 0.033,0.103 0.066,0.271 0.033,0.372 -0.033,0.105 -0.069,0.41 -0.171,0.514 -0.069,0.101 -0.341,0.337 -0.475,0.475 -0.136,0.102 -0.512,0.307 -1.024,0.512 -0.475,0.201 -1.125,0.406 -1.361,0.611 -0.241,0.173 -0.647,0.409 -0.818,0.614 -0.171,0.205 -0.274,0.408 -0.376,0.61 -0.065,0.206 0,0.513 -0.034,0.754 0,0.34 0.203,0.683 0.408,0.986 0.202,0.341 0.545,0.512 0.953,0.682 0.41,0.133 0.887,0.241 1.432,0.241 0.611,0 1.192,-0.139 1.943,-0.274 0.033,-0.41 -0.071,-0.716 -0.036,-1.056 -0.514,0.34 -1.125,0.545 -1.702,0.545 -0.31,0 -0.614,-0.068 -0.888,-0.136 -0.274,-0.104 -0.544,-0.34 -0.682,-0.51 -0.102,-0.171 -0.17,-0.311 -0.17,-0.512 0,-0.136 0.036,-0.34 0.101,-0.476 0.036,-0.105 0.341,-0.442 0.512,-0.511 0.239,-0.104 0.138,-0.069 0.339,-0.135 0.242,-0.036 0.786,-0.341 1.329,-0.58 0.58,-0.271 1.092,-0.612 1.261,-0.786 0.17,-0.171 0.375,-0.405 0.512,-0.817 0.103,-0.205 0.134,-0.442 0.134,-0.611 0,-0.307 -0.069,-0.34 -0.069,-0.545 0.036,-0.375 -0.065,-0.513 -0.27,-0.818 -0.202,-0.339 -0.581,-0.646 -1.022,-0.817 -0.443,-0.17 -0.884,-0.308 -1.43,-0.308 -0.24,0 -0.751,-0.033 -1.055,0 -0.306,0.034 -0.58,0.138 -0.82,0.172 -0.199,0.033 -0.334,0.033 -0.644,0.138 m 9.9462,0.6823 c -0.067,-0.274 -0.136,-0.412 -0.172,-0.851 -0.34,-0.105 -0.476,-0.138 -0.681,-0.138 -0.172,-0.033 -0.375,0.035 -0.546,0.035 -0.441,0 -0.782,0.036 -1.053,0.17 -0.274,0.136 -0.477,0.307 -0.613,0.581 -0.171,0.27 -0.274,0.952 -0.274,1.428 v 0.31 c 0,0.171 -0.033,0.307 0,1.223 l -0.033,3.546 h -0.989 v 0.713 l 0.989,0.036 c 0.033,0.199 0,0.884 0,1.394 0,0.242 -0.138,0.476 -0.239,0.615 0.475,0.102 1.159,0.307 1.463,0.373 0,-0.783 0.07,-1.94 0.07,-2.382 l 2.044,-0.036 c -0.033,-0.341 0,-0.475 0.036,-0.782 l -0.581,0.069 h -1.499 l -0.033,-4.462 v -0.376 c 0.033,-0.41 0.066,-0.918 0.171,-1.123 0.065,-0.205 0.202,-0.274 0.372,-0.376 0.171,-0.069 0.341,-0.103 0.512,-0.103 h 0.444 c 0.136,-0.004 0.238,0.031 0.612,0.136 m -46.4232,0.4376 c -0.033,-0.305 -0.136,-0.679 -0.169,-1.156 -0.475,-0.134 -1.227,-0.408 -1.566,-0.477 -0.339,-0.033 -0.682,-0.033 -1.022,-0.033 -0.611,0 -1.226,0.134 -1.738,0.307 -0.476,0.17 -0.956,0.508 -1.328,0.92 -0.376,0.406 -0.717,0.851 -0.888,1.359 -0.17,0.544 -0.205,1.056 -0.239,1.633 -0.033,0.82 0.105,1.125 0.343,1.84 0.27,0.683 0.782,1.193 1.328,1.603 0.545,0.41 1.227,0.579 2.111,0.579 0.444,0 0.952,-0.033 1.362,-0.169 0.409,-0.138 0.752,-0.309 1.022,-0.581 0.271,-0.307 0.512,-0.612 0.682,-1.022 0.171,-0.442 0.205,-0.442 0.274,-0.952 0.066,-0.242 0.066,-0.615 0.066,-0.82 l -5.822,-0.033 v -0.581 c 0.033,-0.58 0.102,-1.158 0.338,-1.637 0.239,-0.475 0.544,-0.816 0.987,-1.052 0.445,-0.24 0.989,-0.476 1.535,-0.476 0.65,0.004 1.771,0.274 2.724,0.748 m -5.344,3.854 h 4.257 c 0,0.338 0,0.238 -0.035,0.441 -0.032,0.171 -0.101,0.341 -0.203,0.545 -0.102,0.203 -0.272,0.337 -0.444,0.477 -0.171,0.17 -0.34,0.27 -0.578,0.375 -0.206,0.069 -0.547,0.102 -0.82,0.102 -0.272,0 -0.511,-0.071 -0.751,-0.172 -0.27,-0.102 -0.475,-0.204 -0.644,-0.376 -0.207,-0.138 -0.34,-0.305 -0.477,-0.51 -0.137,-0.205 -0.238,-0.41 -0.273,-0.611 l -0.034,-0.068 c 0,0 0.034,0 0.002,-0.203 m -6.5767,-5.4873 c 0,0.174 0.138,0.377 0.138,0.513 0.036,2.586 0,4.563 -0.069,6.198 l -0.033,0.716 -0.239,0.579 c 0.239,0.036 0.58,0.067 0.751,0.102 0.169,0.036 0.612,0.103 0.815,0.103 v -1.468 c 0.174,0.343 0.205,0.31 0.339,0.479 0.105,0.174 0.341,0.372 0.512,0.512 0.174,0.103 0.339,0.24 0.581,0.308 0.203,0.066 0.408,0.169 0.647,0.169 0.204,0 0.374,0.036 0.853,0 0.472,-0.067 0.748,-0.169 0.851,-0.203 0.033,-0.203 -0.341,-1.091 -0.341,-1.091 0,0 -0.375,0.037 -0.682,0.171 -0.307,0.069 -0.508,0.069 -0.75,0.069 -0.27,0 -0.609,-0.069 -0.851,-0.171 -0.203,-0.105 -0.441,-0.243 -0.61,-0.441 -0.172,-0.205 -0.274,-0.446 -0.375,-0.751 -0.105,-0.241 -0.069,-0.036 -0.105,-0.41 -0.033,-0.408 0,-4.054 0.036,-4.905 l 0.134,-0.441 h -0.816 c -0.136,0 -0.512,-0.038 -0.786,-0.038 m -12.0206,-0.031 0.274,0.782 v 9.671 c -0.036,0.31 -0.136,0.579 -0.308,1.092 0.682,-0.036 1.805,0.035 2.281,0.035 0.272,0 0.716,-0.035 1.328,-0.035 0.613,0 1.159,0 1.43,-0.036 0.851,-0.066 1.092,-0.102 1.704,-0.271 0.441,-0.101 1.292,-0.58 1.702,-0.851 0.376,-0.274 0.782,-0.58 1.091,-1.021 0.303,-0.443 0.443,-0.581 0.679,-1.089 0.273,-0.719 0.444,-1.468 0.444,-2.149 0.071,-0.989 -0.034,-1.702 -0.308,-2.587 -0.304,-0.888 -0.919,-1.534 -1.496,-2.114 -0.58,-0.614 -1.226,-0.953 -1.976,-1.158 -0.748,-0.171 -1.599,-0.34 -2.553,-0.34 h -2.214 z m 2.012,0.92 c 0.643,-0.036 1.191,-0.036 1.735,-0.036 0.445,0 0.989,0.036 1.465,0.069 0.51,0.069 0.851,0.239 1.228,0.375 0.374,0.138 0.75,0.338 1.089,0.683 0.376,0.339 0.646,0.751 0.887,1.159 0.202,0.443 0.376,0.918 0.441,1.465 0.102,0.544 0.138,1.09 0.138,1.633 -0.036,0.613 -0.203,1.092 -0.377,1.602 -0.169,0.543 -0.474,1.192 -0.918,1.568 -0.476,0.372 -0.817,0.679 -1.329,0.815 -0.475,0.138 -1.19,0.343 -1.974,0.343 -0.512,0 -1.161,-0.036 -1.468,-0.071 -0.339,-0.034 -0.613,-0.069 -1.056,-0.069 z"
       id="path37"
       inkscape:connector-curvature="0" />
    <path
       d="m 197.6032,258.3721 c 0,1.365 -0.65,1.23 -1.091,1.296 -0.475,0.069 -1.602,-0.171 -2.62,0.069 -1.227,0.237 -1.876,1.939 -1.671,2.758 0.613,2.352 2.146,2.658 3.201,2.588 0.82,-0.035 2.352,-0.102 4.224,-1.737 0.851,-0.75 1.363,-2.726 1.398,-3.847 0.036,-1.396 -0.035,-2.965 -0.852,-3.847 -1.328,-1.432 -4.837,-2.655 -6.81,-2.59 -7.732,0.818 -7.458,8.104 -7.458,8.104 0,0 -0.616,3.134 2.008,6.473 0.205,0.273 0.545,0.92 0.817,1.191 0.272,0.307 0.476,0.375 0.818,0.649 0.307,0.238 0.647,0.407 0.988,0.612 0.851,0.51 1.771,0.984 2.655,1.258 1.33,0.408 2.658,0.51 3.714,0.477 3.2,-0.102 6.675,-1.84 8.413,-4.531 0.271,-0.372 0.476,-0.646 0.713,-0.987 0.24,-0.376 0.545,-1.022 0.851,-1.804 0.41,-1.16 0.271,-0.683 0.715,-2.454 0.307,-1.259 0.447,-2.046 0.512,-2.86 0.036,-0.375 0.067,-0.782 0.105,-1.226 0.033,-1.398 0.202,-1.739 -0.105,-2.828 -0.475,-1.836 -1.637,-3.647 -2.589,-4.596 -1.703,-1.671 -3.267,-2.183 -4.189,-2.657 -0.92,-0.477 -1.294,-0.544 -2.484,-0.954 -1.191,-0.443 -1.84,-0.512 -3.954,-0.512 -2.076,0.033 -3.778,0.136 -4.288,0.27 -3.715,1.024 -5.042,1.704 -6.642,3 -4.156,3.267 -5.007,9.67 -5.007,9.67 0,0 -0.443,3.267 0.271,6.675 0.41,1.806 2.217,5.108 3.273,6.438 0.884,1.122 2.926,2.76 4.152,3.51 1.227,0.782 2.965,1.804 4.974,2.415 0.987,0.336 1.739,0.476 3.984,0.579 2.589,0.102 6.405,-0.579 8.65,-1.259 2.352,-0.717 4.495,-2.25 5.588,-3.439 1.121,-1.228 3.611,-4.871 4.017,-5.622 0.445,-0.749 1.635,-4.734 1.737,-5.279 0.105,-0.51 0.307,-2.315 2.079,-2.214 1.634,0.14 1.157,2.009 1.122,2.352 -0.069,0.341 -0.646,3.439 -0.92,4.29 -0.238,0.851 -1.495,3.1 -1.804,3.542 -0.136,0.274 -1.294,2.147 -2.415,3.611 -0.853,1.091 -1.673,2.183 -2.593,2.728 -1.735,1.12 -3.949,2.11 -3.949,2.11 0,0 -3.78,1.296 -5.758,1.534 -1.702,0.205 -3.539,0.577 -6.571,0.375 -3.031,-0.205 -4.7,-1.023 -5.822,-1.464 -1.092,-0.479 -3.611,-1.57 -5.487,-3.1 -1.875,-1.536 -1.294,-0.785 -2.316,-1.907 -0.987,-1.125 -1.294,-1.432 -1.974,-2.388 -0.682,-0.987 -2.143,-3.847 -2.693,-5.787 -0.202,-0.784 -0.577,-1.976 -0.748,-3.134 -0.136,-0.985 -0.172,-1.942 -0.067,-2.724 0.171,-1.669 0.102,-1.702 0.102,-1.702 0,0 0.782,-3.236 1.192,-4.531 0.441,-1.258 1.022,-3.132 3.644,-6.063 2.655,-2.896 5.074,-3.677 5.994,-4.052 0.92,-0.341 4.018,-1.43 8.106,-1.499 4.734,-0.104 5.961,0.953 6.812,1.294 0.884,0.375 3.78,1.602 6.096,3.78 2.315,2.177 3.065,4.529 3.134,4.7 0.644,1.838 0.851,4.77 0.27,7.63 -0.408,1.94 -0.715,3.613 -1.09,4.804 -0.683,2.041 -1.499,3.201 -2.111,4.119 -0.544,0.851 -2.25,2.147 -3.304,2.795 -0.512,0.303 -0.988,0.68 -1.67,0.954 -0.682,0.307 -1.568,0.509 -2.622,0.75 -0.987,0.237 -2.283,0.475 -3.372,0.544 -0.953,0.067 -1.769,0.033 -2.114,0.033 -0.475,0 -2.11,-0.274 -4.288,-1.428 -1.227,-0.648 -2.522,-1.401 -3.985,-2.86 -0.445,-0.479 -0.851,-1.057 -1.192,-1.534 -3.236,-4.428 -2.044,-9.367 -2.044,-9.367 0,0 0.578,-6.676 6.435,-8.584 2.08,-0.646 3.885,-0.682 5.419,-0.509 2.555,0.339 4.428,1.397 5.687,2.043 1.296,0.679 2.248,1.771 2.76,2.965 0.51,1.089 0.612,2.247 0.577,3.199 -0.032,0.581 -0.032,1.294 -0.169,2.045 -0.339,1.904 -1.021,3.813 -2.692,5.241 l -0.512,0.343 c -0.307,0.205 -0.577,0.341 -0.817,0.476 -1.428,0.751 -2.829,1.023 -4.769,1.125 -0.716,-0.035 -1.769,-0.172 -2.35,-0.477 -2.317,-1.124 -3.575,-3.17 -3.475,-5.857 0.102,-2.52 2.454,-3.848 2.86,-4.222 0.038,-0.036 5.248,-1.363 5.386,1.018"
       id="path39"
       inkscape:connector-curvature="0"
       style="fill:#3e649f" />
    <path
       d="m 178.0146,42.0574 c 0,0 32.229,0 32.229,-0.001 l 16.781,36.284 c -10.526,-2.688 -21.553,-4.118 -32.89,-4.118 -11.353,0 -22.38,1.43 -32.907,4.118 l 16.781,-36.284"
       id="path41"
       inkscape:connector-curvature="0"
       style="fill:#c1c3c2" />
    <path
       d="m 35.5107,44.4102 c 0.158,-0.041 0.358,-0.059 0.599,-0.059 0.873,0 1.406,0.425 1.406,1.199 0,0.74 -0.524,1.098 -1.323,1.098 -0.316,0 -0.558,-0.025 -0.682,-0.057 z m -0.725,2.703 c 0.35,0.059 0.807,0.11 1.391,0.11 0.715,0 1.239,-0.167 1.572,-0.468 0.307,-0.266 0.49,-0.672 0.49,-1.172 0,-0.508 -0.149,-0.907 -0.432,-1.197 -0.383,-0.409 -1.006,-0.616 -1.714,-0.616 -0.216,0 -0.416,0.008 -0.582,0.049 v -2.246 h -0.725 z m 4.8699,-2.7701 c 0,-1.197 0.649,-2.27 1.788,-2.27 1.149,0 1.798,1.057 1.798,2.329 0,1.114 -0.582,2.28 -1.788,2.28 -1.198,0 -1.798,-1.107 -1.798,-2.339 m 4.351,0.091 c 0,-1.93 -1.172,-2.953 -2.603,-2.953 -1.482,0 -2.521,1.149 -2.521,2.846 0,1.78 1.106,2.945 2.603,2.945 1.531,0 2.521,-1.173 2.521,-2.838 m 1.8588,-2.8611 -1.423,5.607 h 0.766 l 0.665,-2.837 c 0.167,-0.699 0.316,-1.398 0.416,-1.939 h 0.017 c 0.091,0.559 0.266,1.224 0.457,1.947 l 0.749,2.829 h 0.757 l 0.682,-2.845 c 0.159,-0.665 0.308,-1.331 0.391,-1.923 h 0.018 c 0.115,0.616 0.274,1.24 0.449,1.939 l 0.74,2.829 h 0.74 l -1.589,-5.607 h -0.757 l -0.707,2.92 c -0.175,0.716 -0.291,1.265 -0.366,1.832 h -0.016 c -0.101,-0.559 -0.225,-1.108 -0.433,-1.832 l -0.799,-2.92 z m 9.0317,2.6299 h -2.18 v -2.022 h 2.429 v -0.608 h -3.153 v 5.607 h 3.029 v -0.607 h -2.305 v -1.772 h 2.18 z m 1.9155,0.3495 h 0.74 c 0.774,0 1.265,0.423 1.265,1.065 0,0.723 -0.524,1.038 -1.29,1.047 -0.349,0 -0.599,-0.033 -0.715,-0.065 z m -0.725,2.553 c 0.367,0.075 0.891,0.117 1.391,0.117 0.773,0 1.272,-0.142 1.621,-0.459 0.284,-0.248 0.441,-0.632 0.441,-1.065 0,-0.74 -0.465,-1.229 -1.056,-1.431 v -0.024 c 0.432,-0.15 0.691,-0.549 0.824,-1.132 0.183,-0.78 0.316,-1.323 0.433,-1.538 h -0.749 c -0.092,0.158 -0.217,0.64 -0.375,1.339 -0.167,0.774 -0.466,1.065 -1.123,1.089 h -0.682 v -2.428 h -0.725 z m 275.4986,-2.7656 c 0,-1.315 0.715,-2.494 1.965,-2.494 1.262,0 1.974,1.161 1.974,2.559 0,1.223 -0.639,2.505 -1.965,2.505 -1.315,0 -1.974,-1.217 -1.974,-2.57 m 4.781,0.1 c 0,-2.121 -1.289,-3.244 -2.861,-3.244 -1.627,0 -2.768,1.262 -2.768,3.126 0,1.956 1.214,3.236 2.858,3.236 1.683,0 2.771,-1.289 2.771,-3.118 m 1.8327,-0.0263 c 0.172,-0.045 0.393,-0.065 0.656,-0.065 0.961,0 1.546,0.467 1.546,1.318 0,0.812 -0.576,1.205 -1.454,1.205 -0.346,0 -0.614,-0.026 -0.748,-0.062 z m -0.797,2.97 c 0.384,0.064 0.886,0.12 1.527,0.12 0.786,0 1.362,-0.183 1.726,-0.513 0.34,-0.293 0.54,-0.739 0.54,-1.289 0,-0.558 -0.165,-0.996 -0.475,-1.315 -0.42,-0.449 -1.105,-0.676 -1.882,-0.676 -0.237,0 -0.458,0.009 -0.639,0.053 v -2.467 h -0.797 z m 8.056,-3.1978 h -2.396 v -2.222 h 2.671 v -0.667 h -3.466 v 6.16 h 3.327 v -0.667 h -2.532 v -1.948 h 2.396 z m 1.3107,-2.8893 v 6.16 h 0.866 l 1.976,-3.117 c 0.458,-0.721 0.813,-1.371 1.106,-2 l 0.018,0.009 c -0.072,0.821 -0.09,1.572 -0.09,2.532 v 2.576 h 0.748 v -6.16 h -0.804 l -1.956,3.126 c -0.431,0.685 -0.841,1.389 -1.152,2.056 l -0.029,-0.008 c 0.047,-0.778 0.067,-1.517 0.067,-2.541 v -2.633 z"
       id="path43"
       inkscape:connector-curvature="0"
       style="fill:#8c8c8c" />
  </g>
</svg>
