<?xml version="1.0" encoding="UTF-8" standalone="no"?>
<svg
   xmlns:dc="http://purl.org/dc/elements/1.1/"
   xmlns:cc="http://creativecommons.org/ns#"
   xmlns:rdf="http://www.w3.org/1999/02/22-rdf-syntax-ns#"
   xmlns:svg="http://www.w3.org/2000/svg"
   xmlns="http://www.w3.org/2000/svg"
   xmlns:sodipodi="http://sodipodi.sourceforge.net/DTD/sodipodi-0.dtd"
   xmlns:inkscape="http://www.inkscape.org/namespaces/inkscape"
   viewBox="0 0 304.6 200.10001"
   version="1.1"
   id="svg90"
   sodipodi:docname="game.svg"
   width="304.60001"
   height="200.10001"
   inkscape:version="0.92.4 5da689c313, 2019-01-14">
  <metadata
     id="metadata96">
    <rdf:RDF>
      <cc:Work
         rdf:about="">
        <dc:format>image/svg+xml</dc:format>
        <dc:type
           rdf:resource="http://purl.org/dc/dcmitype/StillImage" />
      </cc:Work>
    </rdf:RDF>
  </metadata>
  <defs
     id="defs94" />
  <sodipodi:namedview
     pagecolor="#ffffff"
     bordercolor="#666666"
     borderopacity="1"
     objecttolerance="10"
     gridtolerance="10"
     guidetolerance="10"
     inkscape:pageopacity="0"
     inkscape:pageshadow="2"
     inkscape:window-width="471"
     inkscape:window-height="442"
     id="namedview92"
     showgrid="false"
     inkscape:zoom="0.88969138"
     inkscape:cx="152.3"
     inkscape:cy="100.1"
     inkscape:window-x="0"
     inkscape:window-y="0"
     inkscape:window-maximized="0"
     inkscape:current-layer="svg90" />
  <path
     d="M 0,100 C 0,44.8 44.8,0 100,0 155.2,0 200,44.8 200,100 200,155.2 155.2,200 100,200 44.8,200 0,155.2 0,100 Z M 100,85.2 c -8.3,0 -15,6.6 -15,14.9 0,8.3 6.7,14.9 15,14.9 8.3,0 15,-6.6 15,-14.9 0,-8.3 -6.7,-14.9 -15,-14.9 z"
     id="path2"
     inkscape:connector-curvature="0"
     style="fill:#cdcdcd" />
  <path
     d="M 3,100 C 3,46.4 46.5,3 100,3 c 53.6,0 97,43.5 97,97 0,53.6 -43.5,97 -97,97 C 46.4,197 3,153.6 3,100 Z M 99.7,85.3 c -8.3,0 -15,6.7 -15,15 0,8.3 6.7,15 15,15 8.3,0 15,-6.7 15,-15 0,-8.3 -6.7,-15 -15,-15 z"
     id="path4"
     inkscape:connector-curvature="0"
     style="fill:#020202" />
  <path
     d="m 138.1,100 v 83.1 c -11.6,5.3 -24.5,8.3 -38.1,8.3 -13.6,0 -26.5,-3 -38.1,-8.3 V 100 c 0,21 17.1,38.1 38.1,38.1 21,0 38.1,-17.1 38.1,-38.1 z"
     id="path6"
     inkscape:connector-curvature="0"
     style="fill:#030303" />
  <path
     d="m 90.6,167.4 c 0.4,-0.1 0.7,-0.3 0.9,-0.4 0.2,-0.1 0.5,-0.1 0.9,-0.2 0.4,-0.1 0.6,-0.1 0.9,-0.1 0.3,0 0.7,0.1 1,0.2 0.2,0.1 0.4,0.4 0.6,0.5 0.2,0.1 0.2,0.3 0.2,0.5 v 0.3 c 0,0.1 -0.1,0.1 -0.1,0.2 -0.1,0.1 -0.1,0.2 -0.2,0.3 -0.1,0.1 -0.1,0.1 -0.3,0.2 -0.1,0.1 -0.3,0.1 -0.4,0.1 -0.1,0.1 -0.4,0 -0.5,0.1 -0.7,0.1 -1.2,0.1 -1.5,0.2 -0.3,0.1 -0.5,0.1 -0.7,0.3 -0.2,0.1 -0.4,0.2 -0.5,0.4 -0.2,0.1 -0.3,0.3 -0.4,0.4 -0.1,0.1 -0.2,0.4 -0.3,0.5 0,0.2 -0.1,0.4 -0.1,0.7 0,0.4 0.1,0.7 0.3,1.1 0.1,0.4 0.5,0.7 0.9,0.8 0.4,0.1 0.9,0.4 1.5,0.4 h 0.7 c 0.2,0 0.4,-0.1 0.8,-0.1 0.1,-0.1 0.4,-0.3 0.7,-0.4 l 0.4,-0.4 v 0.9 h 1.5 c -0.1,-0.6 -0.2,-0.7 -0.1,-1.1 0,-0.7 -0.1,-2.3 0,-3.3 v -1 c 0,-0.3 -0.1,-0.8 -0.2,-1.1 -0.1,-0.3 -0.3,-0.4 -0.4,-0.7 -0.2,-0.2 -0.7,-0.6 -1,-0.7 -0.4,-0.1 -0.7,-0.1 -1.1,-0.1 -0.4,0 -1,0 -1.5,0.1 -0.5,0.1 -0.7,0.1 -1.3,0.4 -0.7,0.3 -0.7,0.8 -0.7,1 z m 3.6,5.4 c -0.1,0 -0.3,0.2 -0.4,0.2 -0.3,0.1 -0.4,0.1 -0.6,0.2 -0.2,0 -0.4,0.1 -0.7,0.1 -0.4,0 -0.6,-0.1 -0.8,-0.2 -0.2,-0.1 -0.2,-0.1 -0.4,-0.3 -0.1,-0.2 -0.4,-0.5 -0.4,-0.8 v -0.6 c 0,-0.1 0.1,-0.3 0.2,-0.4 l 0.4,-0.4 c 0.2,-0.1 0.4,-0.1 0.7,-0.3 0.1,-0.1 0.4,-0.1 0.8,-0.1 0.2,0 0.6,0 0.7,-0.1 0.1,0 0.3,0 0.4,-0.1 0.1,-0.1 0.2,-0.1 0.3,-0.1 0.1,-0.1 0.1,-0.1 0.4,-0.3 v 1.6 c 0,0 0,0.7 -0.3,1 0,0.4 -0.3,0.6 -0.3,0.6 z m 24,-5.5 c 0.4,-0.1 0.6,-0.3 0.9,-0.4 0.2,-0.1 0.5,-0.1 0.9,-0.2 0.4,-0.1 0.6,-0.1 0.9,-0.1 0.4,0 0.8,0.1 1,0.2 0.3,0.1 0.4,0.4 0.6,0.5 0.1,0.1 0.1,0.4 0.2,0.6 v 0.3 c 0,0.1 -0.1,0.1 -0.1,0.1 -0.1,0.1 -0.1,0.2 -0.2,0.3 -0.1,0.1 -0.1,0.1 -0.3,0.2 -0.1,0.1 -0.2,0.1 -0.4,0.1 -0.1,0.1 -0.4,0 -0.5,0.1 -0.7,0.1 -1.2,0.1 -1.5,0.2 -0.3,0.1 -0.5,0.1 -0.7,0.3 -0.2,0.1 -0.4,0.2 -0.5,0.4 -0.2,0.1 -0.3,0.3 -0.4,0.4 -0.1,0.1 -0.1,0.4 -0.2,0.6 -0.1,0.2 -0.1,0.4 -0.1,0.7 0,0.4 0.1,0.7 0.3,1.1 0.2,0.4 0.5,0.7 0.9,0.8 0.4,0.1 0.9,0.4 1.5,0.4 h 0.6 c 0.2,0 0.4,-0.1 0.8,-0.1 0.1,-0.1 0.4,-0.3 0.7,-0.4 0.3,-0.2 0.4,-0.4 0.4,-0.4 v 0.9 h 1.5 c -0.1,-0.6 -0.2,-0.7 -0.2,-1.1 v -4.2 c 0,-0.3 -0.1,-0.8 -0.2,-1.1 -0.1,-0.3 -0.3,-0.5 -0.4,-0.7 -0.1,-0.2 -0.7,-0.6 -1,-0.7 -0.4,-0.1 -0.7,-0.2 -1.1,-0.2 -0.4,0 -1,0.1 -1.5,0.1 -0.4,0.1 -0.7,0.1 -1.3,0.3 -0.6,0.4 -0.6,0.7 -0.6,1 z m 3.7,5.4 c -0.1,0 -0.3,0.2 -0.4,0.2 -0.2,0.1 -0.4,0.1 -0.6,0.2 -0.2,0 -0.4,0.1 -0.7,0.1 -0.4,0 -0.7,-0.1 -0.9,-0.2 -0.2,-0.1 -0.2,-0.1 -0.4,-0.3 -0.1,-0.2 -0.4,-0.5 -0.4,-0.8 v -0.6 c 0.1,-0.1 0.1,-0.3 0.2,-0.4 0.1,-0.1 0.3,-0.3 0.5,-0.4 0.1,-0.1 0.4,-0.1 0.7,-0.3 0.1,-0.1 0.4,-0.1 0.8,-0.1 0.1,0 0.6,0 0.7,-0.1 0.1,0 0.2,-0.1 0.4,-0.1 0.1,-0.1 0.2,-0.1 0.4,-0.1 l 0.3,-0.3 v 1.6 c 0,0 0,0.7 -0.3,1 -0.1,0.4 -0.3,0.6 -0.3,0.6 z m -24.2,1.3 0.1,-0.6 v -1.6 l -0.1,-4.6 c 0,-0.4 -0.2,-0.9 -0.2,-1.1 0.2,0 0.7,-0.1 0.9,-0.1 0.1,-0.1 0.4,-0.1 0.6,-0.1 v 1 c 0.1,-0.3 0.4,-0.4 0.6,-0.5 0.1,-0.1 0.2,-0.1 0.4,-0.4 0.2,-0.1 0.4,-0.1 0.6,-0.2 0.4,0 0.6,-0.1 0.9,-0.1 0.2,0 0.4,0 0.6,0.1 0.2,0 0.4,0.1 0.6,0.2 0.1,0.1 0.4,0.2 0.4,0.3 0.1,0.1 0.3,0.2 0.4,0.4 0,0.1 0.4,-0.4 0.8,-0.6 0.4,-0.2 0.9,-0.4 1.5,-0.4 0.4,0 1.1,0 1.5,0.1 0.4,0.1 0.8,0.3 1,0.5 0.2,0.2 0.3,0.4 0.4,0.5 0.2,0.2 0.3,0.9 0.3,1.1 v 4.9 c 0,0.4 0.1,0.4 0.1,0.8 h -1.5 c 0.2,-0.7 0.1,-0.4 0.1,-0.8 v -4.5 c 0,-0.3 -0.1,-0.7 -0.1,-0.9 -0.1,-0.1 -0.4,-0.5 -0.5,-0.7 -0.1,-0.1 -0.4,-0.1 -0.5,-0.2 -0.1,-0.1 -0.5,-0.1 -0.7,-0.1 -0.1,0 -0.4,0 -0.6,0.1 -0.2,0.1 -0.3,0.1 -0.4,0.2 -0.1,0.1 -0.3,0.1 -0.4,0.3 -0.1,0.1 -0.2,0.3 -0.3,0.5 -0.1,0.1 -0.1,0.5 -0.1,0.8 v 4.5 l 0.2,0.7 h -1.7 c 0,-0.7 0.1,-0.1 0.1,-0.8 v -4.6 c 0,-0.3 -0.1,-0.4 -0.1,-0.6 -0.1,-0.1 -0.1,-0.4 -0.3,-0.6 -0.1,-0.1 -0.4,-0.4 -0.7,-0.5 -0.1,-0.1 -0.4,-0.1 -0.7,-0.1 -0.3,0 -0.4,0 -0.7,0.1 -0.2,0.1 -0.4,0.1 -0.6,0.4 -0.1,0.1 -0.3,0.2 -0.4,0.4 -0.1,0.3 -0.2,0.2 -0.2,0.7 -0.1,0.4 -0.1,2 -0.1,3.1 v 1.8 c 0,0.4 0.1,0.4 0.1,0.8 H 98.2 C 98.4,174 98,174 97.7,174 Z m 19.1,-1.5 c 0,0.1 0,0.3 -0.1,0.5 0,0.2 -0.1,0.4 -0.1,0.7 -0.4,0.1 -0.7,0.2 -1,0.2 -0.3,0 -1.2,0.1 -1.5,0.1 -0.5,0 -1.1,-0.1 -1.5,-0.2 -0.4,-0.1 -1,-0.5 -1.4,-0.9 -0.4,-0.4 -0.7,-0.7 -0.9,-1.2 -0.1,-0.5 -0.3,-1 -0.3,-1.6 0,-0.8 0.1,-1.1 0.3,-1.8 0.2,-0.7 0.8,-1.2 1.3,-1.7 0.5,-0.4 1.8,-0.7 2.7,-0.7 0.7,0 1.5,0.1 2.2,0.3 0,0.5 0.1,0.7 0.1,1 -0.4,-0.1 -0.9,-0.4 -1.2,-0.4 -0.3,0 -0.7,-0.1 -0.9,-0.1 -0.4,0 -1.3,0.2 -1.7,0.4 -0.4,0.1 -0.6,0.4 -0.9,0.7 -0.2,0.3 -0.4,0.7 -0.4,1.2 -0.1,0.4 -0.1,0.4 -0.1,0.9 0,0.6 0.1,1.2 0.3,1.6 0.2,0.4 0.5,0.9 0.9,1.2 0.4,0.3 0.9,0.5 1.5,0.5 0.6,0 1.6,0 2.7,-0.7 z m 8.3,1.2 -0.1,-0.5 c 0,-0.1 -0.1,-0.4 -0.2,-0.8 0.9,0.5 1.9,0.9 2.6,0.9 0.4,0 0.7,-0.1 0.9,-0.2 0.2,-0.1 0.4,-0.3 0.6,-0.4 0.1,-0.1 0.2,-0.4 0.3,-0.5 0,-0.1 0.1,-0.3 0,-0.4 0,-0.1 -0.1,-0.4 -0.1,-0.5 l -0.4,-0.4 c -0.1,-0.1 -0.5,-0.3 -1,-0.5 -0.4,-0.2 -1.1,-0.4 -1.4,-0.6 -0.2,-0.1 -0.7,-0.4 -0.8,-0.6 -0.1,-0.1 -0.3,-0.4 -0.4,-0.6 -0.1,-0.2 0,-0.5 0,-0.7 0,-0.4 0.2,-0.7 0.4,-0.9 0.2,-0.4 0.5,-0.5 0.9,-0.7 0.4,-0.1 0.9,-0.2 1.4,-0.2 0.6,0 1.2,0.1 1.9,0.3 0,0.4 -0.1,0.7 0,1 -0.5,-0.4 -1.1,-0.5 -1.7,-0.5 -0.3,0 -0.6,0.1 -0.9,0.1 -0.3,0.1 -0.5,0.4 -0.7,0.5 -0.1,0.1 -0.1,0.3 -0.1,0.5 0,0.1 0,0.4 0.1,0.4 0,0.1 0.4,0.4 0.5,0.5 0.2,0.1 0.1,0.1 0.4,0.1 0.2,0 0.8,0.4 1.3,0.6 0.6,0.3 1.1,0.6 1.2,0.8 0.1,0.1 0.4,0.4 0.5,0.8 0.1,0.2 0.1,0.4 0.1,0.6 0,0.3 -0.1,0.4 -0.1,0.5 0,0.4 -0.1,0.5 -0.3,0.8 -0.2,0.4 -0.6,0.7 -1,0.8 -0.4,0.1 -0.9,0.3 -1.4,0.3 h -1 c -0.3,0 -0.6,-0.1 -0.8,-0.1 -0.3,-0.4 -0.4,-0.4 -0.7,-0.4 z m 9.8,-0.7 c -0.1,0.3 -0.1,0.4 -0.1,0.9 -0.4,0.1 -0.4,0.1 -0.7,0.1 h -0.5 c -0.4,0 -0.8,0 -1,-0.1 -0.3,-0.1 -0.4,-0.3 -0.6,-0.6 -0.1,-0.3 -0.3,-0.9 -0.3,-1.4 v -5 h -0.9 v -0.7 h 0.9 v -1.4 c 0,-0.2 -0.1,-0.4 -0.2,-0.6 0.4,-0.1 1.2,-0.3 1.5,-0.4 0,0.8 0.1,1.9 0.1,2.3 h 2 v 0.8 l -0.6,-0.1 H 133 v 4.8 c 0,0.4 0.1,0.9 0.1,1.1 0.1,0.2 0.2,0.3 0.4,0.4 0.1,0.1 0.4,0.1 0.5,0.1 h 0.4 c 0.1,0 0.2,-0.1 0.5,-0.2 z m -51.4,-4.3 h 4.2 v -0.4 c 0,-0.1 -0.1,-0.4 -0.2,-0.5 -0.1,-0.2 -0.3,-0.4 -0.4,-0.4 -0.1,-0.1 -0.4,-0.3 -0.6,-0.4 -0.2,-0.1 -0.5,-0.1 -0.8,-0.1 -0.3,0 -0.5,0.1 -0.7,0.1 -0.3,0.1 -0.4,0.2 -0.7,0.4 -0.3,0.2 -0.4,0.3 -0.4,0.5 l -0.3,0.6 v 0.1 c 0,0 0,-0.1 -0.1,0.1 z m 5.3,3.9 c 0,0.3 -0.1,0.7 -0.1,1.2 -0.4,0.1 -1.2,0.4 -1.5,0.4 h -1 c -0.6,0 -1.2,-0.1 -1.8,-0.3 -0.4,-0.1 -0.9,-0.5 -1.3,-0.9 -0.4,-0.4 -0.7,-0.9 -0.9,-1.4 -0.2,-0.5 -0.2,-1 -0.2,-1.6 0,-0.8 0.1,-1.1 0.4,-1.8 0.3,-0.7 0.8,-1.2 1.3,-1.6 0.5,-0.4 1.2,-0.6 2.1,-0.6 0.4,0 0.9,0 1.4,0.1 0.5,0.1 0.7,0.3 1,0.6 0.3,0.3 0.5,0.6 0.7,1 0.2,0.4 0.2,0.4 0.3,0.9 0.1,0.2 0.1,0.6 0.1,0.8 h -5.8 v 0.6 c 0,0.6 0.1,1.2 0.4,1.6 0.2,0.4 0.5,0.8 0.9,1 0.4,0.2 0.9,0.4 1.5,0.4 0.5,0.3 1.6,0 2.5,-0.4 z M 77,174.2 c 0,-0.1 0.1,-0.4 0.1,-0.5 0,-2.6 0,-4.5 -0.1,-6.1 v -0.7 l -0.2,-0.6 c 0.2,0 0.6,-0.1 0.7,-0.1 0.1,0 0.6,-0.1 0.8,-0.1 v 1.5 c 0.1,-0.4 0.2,-0.3 0.4,-0.5 l 0.5,-0.5 c 0.1,-0.1 0.4,-0.2 0.6,-0.3 0.2,-0.1 0.4,-0.1 0.7,-0.1 h 0.9 c 0.4,0.1 0.7,0.1 0.9,0.2 0,0.2 -0.4,1.1 -0.4,1.1 0,0 -0.4,0 -0.7,-0.1 -0.3,-0.1 -0.5,-0.1 -0.7,-0.1 -0.3,0 -0.6,0.1 -0.9,0.1 -0.2,0.1 -0.4,0.2 -0.6,0.4 -0.1,0.2 -0.3,0.4 -0.4,0.7 -0.1,0.2 -0.1,0 -0.1,0.4 v 4.9 l 0.1,0.4 H 78 c -0.3,-0.1 -0.7,0 -1,0 z m -9.9,-0.9 h 1.8 c 0.4,0 0.9,0 1.5,-0.1 0.5,-0.1 0.9,-0.2 1.2,-0.4 0.4,-0.1 0.7,-0.4 1.1,-0.7 0.4,-0.4 0.7,-0.7 0.9,-1.2 0.2,-0.5 0.4,-0.9 0.4,-1.5 0,-0.6 0.1,-1.1 0.1,-1.6 0,-0.6 -0.2,-1.1 -0.4,-1.6 -0.2,-0.5 -0.4,-1.2 -0.9,-1.5 -0.4,-0.4 -0.8,-0.7 -1.3,-0.8 -0.4,-0.1 -1.2,-0.4 -2,-0.4 -0.5,0 -1.2,0 -1.5,0.1 -0.4,0 -0.6,0.1 -1,0.1 z m -2,0.9 0.3,-0.8 v -9.6 c 0,-0.3 -0.1,-0.6 -0.3,-1.1 h 5 c 0.9,0.1 1.1,0.1 1.7,0.3 0.4,0.1 1.3,0.6 1.7,0.9 0.4,0.3 0.8,0.6 1.1,1 0.3,0.4 0.4,0.6 0.7,1.1 0.3,0.7 0.4,1.5 0.4,2.1 0.1,0.9 0,1.7 -0.3,2.6 -0.3,0.9 -0.9,1.5 -1.5,2.1 -0.6,0.6 -1.2,0.9 -2,1.2 -0.7,0.1 -1.6,0.4 -2.6,0.4 h -2.2 z"
     id="path8"
     inkscape:connector-curvature="0"
     style="fill:#ffffff" />
  <path
     d="m 101.7,154.3 c 0,-0.8 -0.4,-0.7 -0.7,-0.7 -0.3,-0.1 -0.9,0.1 -1.5,-0.1 -0.7,-0.1 -1.1,-1.1 -0.9,-1.6 0.4,-1.4 1.2,-1.5 1.8,-1.5 0.5,0 1.4,0.1 2.5,1 0.5,0.4 0.8,1.6 0.8,2.3 0,0.8 0,1.8 -0.5,2.3 -0.8,0.8 -2.8,1.5 -3.9,1.5 -4.4,-0.5 -4.3,-4.7 -4.3,-4.7 0,0 -0.4,-1.8 1.2,-3.7 0.1,-0.1 0.3,-0.5 0.4,-0.7 0.1,-0.1 0.3,-0.2 0.5,-0.4 0.1,-0.1 0.4,-0.2 0.6,-0.4 0.5,-0.3 1,-0.6 1.5,-0.7 0.8,-0.2 1.5,-0.3 2.2,-0.3 1.8,0.1 3.9,1.1 4.9,2.6 0.1,0.2 0.3,0.4 0.4,0.6 l 0.5,1 c 0.2,0.7 0.1,0.4 0.4,1.5 0.1,0.7 0.3,1.2 0.3,1.7 0,0.2 0.1,0.4 0.1,0.7 0,0.8 0.1,1 -0.1,1.6 -0.3,1.1 -0.9,2.1 -1.5,2.7 -1,0.9 -1.9,1.2 -2.4,1.5 -0.5,0.3 -0.7,0.3 -1.5,0.6 -0.7,0.3 -1.1,0.3 -2.3,0.3 -1.2,0 -2.2,-0.1 -2.5,-0.1 -2.2,-0.6 -2.9,-1 -3.9,-1.8 -2.4,-1.9 -2.9,-5.6 -2.9,-5.6 0,0 -0.3,-1.9 0.1,-3.9 0.2,-1 1.3,-3 1.9,-3.7 0.5,-0.7 1.7,-1.6 2.4,-2 0.7,-0.4 1.8,-1 2.9,-1.4 0.6,-0.2 1,-0.3 2.3,-0.4 1.5,-0.1 3.7,0.4 5,0.7 1.4,0.4 2.6,1.3 3.2,2 0.7,0.7 2.1,2.8 2.3,3.3 0.3,0.4 0.9,2.8 1,3.1 0.1,0.3 0.1,1.3 1.2,1.3 0.9,-0.1 0.7,-1.2 0.7,-1.4 -0.1,-0.2 -0.4,-2 -0.5,-2.5 -0.1,-0.5 -0.9,-1.8 -1,-2 -0.1,-0.1 -0.7,-1.2 -1.4,-2.1 -0.5,-0.7 -0.9,-1.2 -1.5,-1.6 -1,-0.7 -2.3,-1.2 -2.3,-1.2 0,0 -2.2,-0.7 -3.4,-0.9 -1,-0.1 -2,-0.4 -3.8,-0.2 -1.8,0.1 -2.7,0.6 -3.4,0.9 -0.7,0.3 -2.1,0.9 -3.2,1.8 -1.1,0.9 -0.7,0.4 -1.3,1.1 -0.6,0.7 -0.7,0.8 -1.2,1.4 -0.4,0.6 -1.2,2.3 -1.5,3.4 -0.1,0.4 -0.4,1.2 -0.4,1.8 -0.1,0.6 -0.1,1.1 -0.1,1.6 0.1,0.9 0.1,1 0.1,1 0,0 0.4,1.9 0.7,2.6 0.3,0.7 0.6,1.8 2.1,3.5 1.5,1.7 2.9,2.1 3.5,2.3 0.5,0.2 2.3,0.8 4.7,0.9 2.8,0.1 3.4,-0.6 3.9,-0.7 0.5,-0.2 2.2,-0.9 3.5,-2.2 1.3,-1.3 1.8,-2.6 1.8,-2.7 0.4,-1.1 0.5,-2.8 0.1,-4.4 -0.2,-1.1 -0.4,-2.1 -0.7,-2.8 -0.4,-1.2 -0.9,-1.8 -1.2,-2.4 -0.3,-0.5 -1.3,-1.2 -1.9,-1.6 -0.3,-0.1 -0.6,-0.4 -0.9,-0.6 -0.4,-0.1 -0.9,-0.3 -1.5,-0.4 -0.6,-0.1 -1.3,-0.3 -2,-0.3 -0.6,-0.1 -1,0 -1.2,0 -0.3,0 -1.2,0.1 -2.5,0.8 -0.7,0.4 -1.5,0.8 -2.3,1.7 -0.3,0.3 -0.5,0.6 -0.7,0.9 -1.9,2.6 -1.2,5.4 -1.2,5.4 0,0 0.4,3.9 3.7,5 1.2,0.4 2.3,0.4 3.1,0.3 1.5,-0.2 2.6,-0.8 3.3,-1.2 0.7,-0.4 1.3,-1 1.6,-1.8 0.3,-0.7 0.4,-1.3 0.4,-1.8 0,-0.4 0,-0.7 -0.1,-1.2 -0.2,-1.1 -0.6,-2.2 -1.5,-3.1 l -0.3,-0.2 c -0.1,-0.1 -0.4,-0.2 -0.4,-0.3 -0.8,-0.4 -1.6,-0.6 -2.8,-0.7 -0.4,0 -1,0.1 -1.4,0.3 -1.3,0.7 -2,1.8 -2,3.4 0.1,1.5 1.5,2.3 1.7,2.5 0.1,-0.3 3.1,0.5 3.2,-0.9 z"
     id="path10"
     inkscape:connector-curvature="0"
     style="fill:#3e649f" />
  <path
     d="M 110.6,192.7 H 102 c -0.8,0 -1.3,-0.2 -1.8,-0.7 v 0.7 h -2.8 c -1,0 -1.8,-0.4 -2,-1.2 -0.1,0.1 -0.2,0.4 -0.4,0.5 -0.4,0.4 -0.9,0.7 -1.5,0.7 h -3 v -2.6 h 0.7 c -0.4,-0.4 -0.7,-1 -0.7,-1.6 0,-0.7 0.2,-1.2 0.7,-1.6 0.5,-0.4 0.9,-0.7 1.5,-0.7 h 3 v 0.7 c 0.4,-0.4 0.9,-0.7 1.8,-0.7 h 2.8 v 0.7 c 0.4,-0.4 0.9,-0.7 1.8,-0.7 h 2.8 v 3.1 l 0.8,-2.2 c 0.4,-0.7 0.9,-0.9 1.4,-0.9 0.7,0 1.2,0.4 1.4,0.9 z"
     id="path12"
     inkscape:connector-curvature="0"
     style="fill:#ffffff" />
  <path
     d="m 91,188.4 c 0,-0.5 0.2,-0.9 0.6,-1.3 0.4,-0.4 0.8,-0.6 1.2,-0.6 h 2.6 v 0.8 H 93 c -0.4,0 -0.7,0.1 -0.9,0.3 -0.2,0.2 -0.3,0.4 -0.3,0.7 0,0.3 0.1,0.6 0.3,0.7 0.2,0.2 0.5,0.3 0.9,0.3 h 0.4 c 0.3,0 0.6,0.1 0.7,0.3 0.1,0.1 0.3,0.4 0.3,0.7 0,0.2 -0.1,0.4 -0.3,0.7 -0.1,0.1 -0.4,0.3 -0.7,0.3 H 91 v -0.8 h 2.3 c 0.1,0 0.2,0 0.2,-0.1 0,-0.1 -0.1,-0.1 -0.2,-0.1 h -0.6 c -0.4,0 -0.9,-0.2 -1.2,-0.6 -0.3,-0.3 -0.5,-0.8 -0.5,-1.3 z m 1,0 c 0,-0.2 0.1,-0.4 0.3,-0.7 0.1,-0.1 0.4,-0.3 0.7,-0.3 h 2.3 v 0.8 H 93 c -0.1,0 -0.2,0 -0.2,0.1 0,0.1 0.1,0.1 0.2,0.1 h 0.6 c 0.4,0 0.9,0.2 1.2,0.6 0.4,0.4 0.6,0.8 0.6,1.3 0,0.5 -0.2,0.9 -0.6,1.3 -0.4,0.4 -0.8,0.6 -1.2,0.6 H 91 v -0.8 h 2.3 c 0.4,0 0.7,-0.1 0.9,-0.3 0.2,-0.2 0.3,-0.4 0.3,-0.7 0,-0.3 -0.1,-0.6 -0.3,-0.7 -0.2,-0.2 -0.5,-0.3 -0.9,-0.3 H 93 c -0.3,0 -0.6,-0.1 -0.7,-0.3 C 92,188.9 92,188.7 92,188.4 Z m 3.7,-0.1 c 0,-1.2 0.6,-1.8 1.8,-1.8 h 2.3 v 0.8 h -2.3 c -0.7,0 -1,0.4 -1,1 v 2.2 c 0,0.7 0.4,1 1,1 h 2.3 v 0.8 h -2.3 c -1.2,0 -1.8,-0.6 -1.8,-1.8 z m 1,1.1 v -1 c 0,-0.5 0.3,-0.8 0.8,-0.8 h 2.3 v 0.8 h -2.2 c -0.1,0 -0.2,0.1 -0.2,0.2 h 1.8 v 0.8 z m 0,0.1 h 2.6 v 0.8 h -1.8 c 0,0.1 0.1,0.2 0.2,0.2 h 2.2 v 0.8 h -2.3 c -0.5,0 -0.8,-0.3 -0.8,-0.8 z m 3.5,-1.2 c 0,-1.2 0.6,-1.8 1.8,-1.8 h 2.3 v 0.8 H 102 c -0.7,0 -1,0.4 -1,1 v 2.2 c 0,0.7 0.4,1 1,1 h 1.6 v -2.2 h -1.4 v -0.8 h 2.2 v 3.7 H 102 c -1.2,0 -1.8,-0.6 -1.8,-1.8 z m 1,0 c 0,-0.5 0.3,-0.8 0.8,-0.8 h 2.3 v 0.8 h -2.2 c -0.1,0 -0.2,0.1 -0.2,0.2 v 1.8 c 0,0.1 0.1,0.2 0.2,0.2 h 0.4 v -0.2 h -0.4 v -0.8 h 1.2 v 1.8 H 102 c -0.5,0 -0.8,-0.3 -0.8,-0.8 z"
     id="path14"
     inkscape:connector-curvature="0"
     style="fill:#174b9a" />
  <path
     d="m 106.5,191.5 h 2.3 l -1.6,-4 c -0.1,-0.1 -0.1,-0.1 -0.3,-0.1 -0.2,0 -0.2,0.1 -0.3,0.1 l -1.8,4.8 H 104 l 1.8,-5 c 0.2,-0.4 0.6,-0.7 1,-0.7 0.5,0 0.8,0.2 1,0.7 l 1.9,5 h -3.4 c 0.2,0 0.2,-0.8 0.2,-0.8 z m 0,-0.2 v -0.4 l -0.6,1.4 h -0.8 l 1.7,-4.6 c 0,-0.1 0.1,-0.1 0.1,-0.1 0.1,0 0.1,0.1 0.1,0.1 l 1.4,3.6 z m 0.5,-1.7 -0.4,0.9 h 0.7 z"
     id="path16"
     inkscape:connector-curvature="0"
     style="fill:#174b9a" />
  <path
     d="m 191.4,100 c 0,36.8 -21.8,68.6 -53.2,83.1 V 100 c 0,21 -17.1,38.1 -38.1,38.1 C 79.1,138.1 62,121 62,100 v 83.1 C 30.6,168.6 8.8,136.9 8.8,100 8.8,49.5 49.7,8.6 100.2,8.6 c 50.3,0 91.2,40.9 91.2,91.4 z M 100,85 c -8.3,0 -15,6.7 -15,15 0,8.3 6.7,15 15,15 8.3,0 15,-6.7 15,-15 0,-8.3 -6.7,-15 -15,-15 z"
     id="path18"
     inkscape:connector-curvature="0"
     style="fill:#32507c" />
  <path
     d="m 138.1,100 c 0,21 -17.1,38.1 -38.1,38.1 C 79,138.1 61.9,121 61.9,100 61.9,79 79,61.9 100,61.9 c 21,0 38.1,17.1 38.1,38.1 z M 100,85 c -8.3,0 -15,6.8 -15,15.2 0,8.4 6.7,15.2 15,15.2 8.3,0 15,-6.8 15,-15.2 C 115,91.8 108.3,85 100,85 Z"
     id="path20"
     inkscape:connector-curvature="0"
     style="fill:#9f9f9f" />
  <path
     d="m 65.4,100 c 0,-19.1 15.5,-34.6 34.6,-34.6 19.1,0 34.6,15.5 34.6,34.6 0,19.1 -15.5,34.6 -34.6,34.6 -19.1,0 -34.6,-15.5 -34.6,-34.6 z m 34.6,15 c 8.3,0 15,-6.7 15,-15 0,-8.3 -6.7,-15 -15,-15 -8.3,0 -15,6.7 -15,15 0,8.3 6.7,15 15,15 z"
     id="path22"
     inkscape:connector-curvature="0"
     style="fill:#181818" />
  <path
     d="m 230.9,194.7 v -134 c 8.7,-3.9 19.3,-6.3 30.6,-6.3 11.4,0 21.9,2.3 30.6,6.3 v 134.1 c -8.7,3.4 -19.3,5.3 -30.6,5.3 -11.4,-0.1 -22,-2.1 -30.6,-5.4"
     id="path24"
     inkscape:connector-curvature="0"
     style="fill:#dedfde" />
  <ellipse
     cx="261.39999"
     cy="69.300003"
     rx="9.8000002"
     ry="9"
     id="ellipse26"
     style="fill:#c1c3c2" />
  <path
     d="m 281.8,142.5 h -40.6 c -3.5,0 -6.3,-2.8 -6.3,-6.3 v -31.9 c 0,-3.5 2.8,-6.3 6.3,-6.3 h 40.6 c 3.5,0 6.3,2.8 6.3,6.3 v 31.9 c -0.1,3.4 -2.9,6.3 -6.3,6.3 z"
     id="path28"
     inkscape:connector-curvature="0"
     style="fill:#56727d" />
  <path
     d="m 241.6,134.2 h 5.2 v 7.8 h -5.2 z"
     id="path30"
     inkscape:connector-curvature="0"
     style="fill:#353360" />
  <path
     d="m 241.4,134.2 h 5 v 7.5 h -5 z"
     id="path32"
     inkscape:connector-curvature="0"
     style="fill:#353360" />
  <path
     d="m 241.6,134.5 h 4.7 v 6.7 h -4.7 z"
     id="path34"
     inkscape:connector-curvature="0"
     style="fill:#56727d" />
  <path
     d="m 241.9,140.5 h 1.5 v 0.2 h -1.5 z m 2.6,0 h 1.3 v 0.2 h -1.3 z m -2.6,-0.8 h 1.5 v 0.2 h -1.5 z m 2.6,0 h 1.3 v 0.2 h -1.3 z m -2.6,-0.8 h 3.9 v 0.2 h -3.9 z m 2.6,-1 h 1.3 v 0.2 h -1.3 z m 0.2,-0.8 h 1 v 0.2 h -1 z m 0.5,-0.8 h 0.5 v 0.2 h -0.5 z"
     id="path36"
     inkscape:connector-curvature="0"
     style="fill:#353360" />
  <path
     stroke-miterlimit="10"
     d="M 246.1,134.4 H 241 l -1.8,3.9 h 5.1 z"
     id="path38"
     inkscape:connector-curvature="0"
     style="fill:#56727d;stroke:#353360;stroke-width:0.72899997;stroke-miterlimit:10" />
  <path
     d="m 241.9,133.7 h 0.5 v 1.3 h -0.5 z m 1,0 h 0.5 v 1.3 h -0.5 z m 1,0 h 0.5 v 1.3 h -0.5 z m 1.1,0 h 0.5 V 135 H 245 Z"
     id="path40"
     inkscape:connector-curvature="0"
     style="fill:#353360" />
  <path
     d="m 236.5,99.9 h 49.8 V 133 h -49.8 z"
     id="path42"
     inkscape:connector-curvature="0"
     style="fill:#4a6787" />
  <path
     d="m 251.1,124.8 h 4.2 v 4.2 h -4.2 z m 4.1,-4.2 h 4.2 v 4.2 h -4.2 z m 0,-4.1 h 4.2 v 4.2 h -4.2 z m -4.1,0 h 4.2 v 4.2 h -4.2 z m 8.3,0 h 4.2 v 4.2 h -4.2 z m 0,-4.2 h 4.2 v 4.2 h -4.2 z m 0,-4.1 h 4.2 v 4.2 h -4.2 z m -4.2,0 h 4.2 v 4.2 h -4.2 z m -4.1,0 h 4.2 v 4.2 h -4.2 z m 0,-4.2 h 4.2 v 4.2 h -4.2 z m 0,8.3 h 4.2 v 4.2 h -4.2 z m -4.2,0 h 4.2 v 4.2 h -4.2 z m -4.2,4.2 h 4.2 v 4.2 h -4.2 z m 25,8.3 h 4.2 v 4.2 h -4.2 z m -4.2,-4.2 h 4.2 v 4.2 h -4.2 z m 0,-4.1 h 4.2 v 4.2 h -4.2 z m 4.2,0 h 4.2 v 4.2 h -4.2 z m -4.2,-8.3 h 4.2 v 4.2 h -4.2 z m 4.2,0 h 4.2 v 4.2 h -4.2 z m 0,-4.2 h 4.2 v 4.2 h -4.2 z m 0,8.3 h 4.2 v 4.2 h -4.2 z m 4.1,0 h 4.2 v 4.2 h -4.2 z m 4.2,4.2 h 4.2 v 4.2 H 276 Z"
     id="path44"
     inkscape:connector-curvature="0"
     style="fill:#363264" />
  <path
     d="m 260.8,149.2 c -0.1,0 -0.3,0 -0.4,-0.1 -0.1,-0.1 -0.2,-0.1 -0.3,-0.1 v -0.5 l 0.3,0.3 c 0.1,0.1 0.2,0.1 0.4,0.1 0.2,0 0.3,-0.1 0.4,-0.1 0.1,-0.1 0.1,-0.2 0.1,-0.4 0,-0.2 0,-0.2 -0.1,-0.3 -0.1,-0.1 -0.1,-0.1 -0.2,-0.1 -0.1,0 -0.1,-0.1 -0.2,-0.1 -0.1,0 -0.1,-0.1 -0.2,-0.1 -0.1,0 -0.1,-0.1 -0.2,-0.1 l -0.1,-0.1 c -0.1,-0.1 -0.1,-0.1 -0.1,-0.2 0,-0.1 -0.1,-0.2 -0.1,-0.3 0,-0.2 0.1,-0.4 0.2,-0.6 0.1,-0.1 0.3,-0.2 0.5,-0.2 0.1,0 0.2,0 0.4,0.1 0.1,0 0.2,0.1 0.3,0.1 v 0.5 c -0.1,-0.1 -0.1,-0.1 -0.3,-0.2 -0.1,-0.1 -0.2,-0.1 -0.4,-0.1 -0.2,0 -0.2,0.1 -0.3,0.1 -0.1,0.1 -0.1,0.2 -0.1,0.4 0,0.2 0,0.2 0.1,0.3 0.1,0.1 0.1,0.1 0.2,0.1 0.1,0 0.1,0.1 0.2,0.1 0.1,0 0.1,0.1 0.2,0.1 0.1,0.1 0.3,0.1 0.3,0.3 0.1,0.1 0.1,0.3 0.1,0.5 0,0.1 0,0.2 -0.1,0.4 0,0.1 -0.1,0.2 -0.1,0.3 l -0.2,0.2 c 0,-0.3 -0.2,-0.3 -0.3,-0.3 z m 2.3,0 h -1.2 v -3 h 0.3 v 2.7 h 0.9 z m 0.2,0 v -3 h 1.3 v 0.4 h -1.1 v 0.8 h 1 v 0.4 h -1 v 1.1 h 1.1 v 0.4 z m 1.7,0 v -3 h 1.3 v 0.4 h -1.1 v 0.8 h 1 v 0.4 h -1 v 1.1 h 1.1 v 0.4 z m 3,-2.2 c 0,0.1 0,0.3 -0.1,0.4 0,0.1 -0.1,0.2 -0.1,0.3 -0.1,0.1 -0.1,0.1 -0.3,0.2 -0.1,0.1 -0.2,0.1 -0.4,0.1 H 267 v 1.1 h -0.3 v -3 h 0.5 c 0.1,0 0.2,0 0.3,0.1 0.1,0 0.1,0.1 0.2,0.1 0.1,0.1 0.1,0.1 0.2,0.3 0.1,0.2 0.1,0.3 0.1,0.4 z m -0.3,0 c 0,-0.1 0,-0.2 -0.1,-0.3 -0.1,-0.1 -0.1,-0.1 -0.1,-0.2 l -0.1,-0.1 H 267 v 1.2 h 0.2 c 0.1,0 0.2,0 0.3,-0.1 0.1,0 0.1,-0.1 0.1,-0.1 0.1,-0.1 0.1,-0.1 0.1,-0.2 z m 8.1,2.2 h -0.3 v -2.6 l -0.6,1.8 h -0.1 l -0.6,-1.8 v 2.6 h -0.3 v -3 h 0.4 l 0.5,1.7 0.5,-1.7 h 0.4 v 3 z m 2,-2.7 c 0.1,0.1 0.1,0.3 0.2,0.5 0.1,0.2 0.1,0.4 0.1,0.7 0,0.3 0,0.4 -0.1,0.7 -0.1,0.2 -0.1,0.4 -0.2,0.5 l -0.3,0.3 c -0.1,0.1 -0.2,0.1 -0.4,0.1 -0.2,0 -0.3,0 -0.4,-0.1 -0.1,-0.1 -0.2,-0.1 -0.3,-0.3 -0.1,-0.1 -0.1,-0.3 -0.2,-0.5 -0.1,-0.2 -0.1,-0.4 -0.1,-0.7 0,-0.2 0,-0.5 0.1,-0.7 0.1,-0.2 0.1,-0.4 0.2,-0.5 l 0.3,-0.3 c 0.1,-0.1 0.2,-0.1 0.4,-0.1 0.2,0 0.3,0 0.4,0.1 0.1,0 0.2,0.2 0.3,0.3 z m 0,1.1 c 0,-0.2 0,-0.4 -0.1,-0.5 0,-0.1 -0.1,-0.3 -0.1,-0.4 -0.1,-0.1 -0.1,-0.2 -0.2,-0.2 -0.1,-0.1 -0.1,-0.1 -0.3,-0.1 -0.1,0 -0.2,0 -0.3,0.1 l -0.2,0.2 c -0.1,0.1 -0.1,0.2 -0.1,0.4 0,0.1 -0.1,0.4 -0.1,0.5 0,0.4 0.1,0.7 0.1,0.9 0.1,0.2 0.3,0.3 0.5,0.3 0.2,0 0.4,-0.1 0.5,-0.3 0.2,-0.1 0.3,-0.4 0.3,-0.9 z m 2.2,0.1 c 0,0.3 -0.1,0.5 -0.1,0.7 -0.1,0.2 -0.2,0.4 -0.3,0.5 -0.1,0.1 -0.2,0.1 -0.4,0.2 -0.1,0 -0.3,0.1 -0.4,0.1 h -0.5 v -3 h 0.5 c 0.2,0 0.4,0 0.5,0.1 0.1,0.1 0.2,0.1 0.3,0.1 0.1,0.1 0.2,0.3 0.3,0.5 0.1,0.2 0.1,0.4 0.1,0.8 z m -0.3,-0.1 c 0,-0.2 0,-0.4 -0.1,-0.6 -0.1,-0.1 -0.1,-0.3 -0.2,-0.4 -0.1,-0.1 -0.1,-0.1 -0.2,-0.1 -0.1,0 -0.2,-0.1 -0.3,-0.1 h -0.3 v 2.3 h 0.2 c 0.1,0 0.2,0 0.4,-0.1 0.1,0 0.2,-0.1 0.3,-0.1 0.1,-0.1 0.1,-0.2 0.2,-0.4 z m 0.7,1.6 v -3 h 1.3 v 0.4 h -1.1 v 0.8 h 1 v 0.4 h -1 v 1.1 h 1.1 v 0.4 h -1.3 z m -11.8,34.2 1.2,-3.6 h 0.6 l 1.2,3.6 h -0.5 l -0.3,-1 h -1.4 l -0.3,1 z m 2,-1.4 -0.6,-1.7 -0.6,1.7 z m 17.9,-2.6 c 0,0.1 0,0.4 -0.1,0.4 -0.1,0.1 -0.1,0.2 -0.3,0.4 l -0.4,0.2 c -0.1,0.1 -0.4,0.1 -0.6,0.1 h -1 v -3.6 h 1.5 c 0.1,0 0.2,0.1 0.4,0.1 0.1,0.1 0.2,0.1 0.3,0.3 0.1,0.1 0.1,0.2 0.1,0.4 0,0.2 -0.1,0.3 -0.1,0.4 -0.1,0.1 -0.2,0.2 -0.4,0.3 0.2,0.1 0.4,0.1 0.5,0.3 0.1,0.1 0.1,0.4 0.1,0.7 z m -0.6,-1.6 c 0,-0.1 0,-0.1 -0.1,-0.2 0,-0.1 -0.1,-0.1 -0.1,-0.1 -0.1,-0.1 -0.1,-0.1 -0.3,-0.1 h -0.8 v 1 h 0.9 c 0.1,0 0.1,-0.1 0.2,-0.1 0.1,-0.1 0.1,-0.1 0.1,-0.2 0,-0.1 0.1,-0.2 0.1,-0.3 z m 0.1,1.6 c 0,-0.1 0,-0.2 -0.1,-0.4 l -0.2,-0.2 c -0.1,-0.1 -0.1,-0.1 -0.2,-0.1 h -0.9 v 1.3 h 0.9 c 0.1,0 0.2,-0.1 0.3,-0.1 l 0.2,-0.2 z"
     id="path46"
     inkscape:connector-curvature="0"
     style="fill:#2f3338" />
  <path
     d="m 290.5,97.9 h -58.2 c 7.4,-0.9 17.7,-1.5 29.1,-1.5 11.4,0 21.7,0.5 29.1,1.5 z m 0,44.6 h -58.2 c 7.4,0.9 17.7,1.5 29.1,1.5 11.4,0 21.7,-0.6 29.1,-1.5 z"
     id="path48"
     inkscape:connector-curvature="0"
     style="fill:#a7a8a8" />
  <circle
     cx="270.5"
     cy="171.3"
     r="6.0999999"
     id="circle50"
     style="fill:#c1c3c2" />
  <circle
     cx="270.5"
     cy="171.3"
     r="5.1999998"
     id="circle52"
     style="fill:#646fa4" />
  <circle
     cx="264.29999"
     cy="157.3"
     r="3.9000001"
     id="circle54"
     style="fill:#c1c3c2" />
  <circle
     cx="264.29999"
     cy="157.3"
     r="3"
     id="circle56"
     style="fill:#646fa4" />
  <path
     d="M 282.1,161.2 H 277 c -2.2,0 -3.9,-1.8 -3.9,-3.9 0,-2.2 1.8,-3.9 3.9,-3.9 h 5.1"
     id="path58"
     inkscape:connector-curvature="0"
     style="fill:#c1c3c2" />
  <circle
     cx="277"
     cy="157.3"
     r="3"
     id="circle60"
     style="fill:#646fa4" />
  <path
     d="m 229.8,61.5 h 1.1 v 131.8 h -1.1 z M 292,75.9 v 0.8 h 0.1 c -8.7,-4.4 -19.3,-7.2 -30.6,-7.2 -11.4,0 -21.9,2.8 -30.6,7.2 v -0.8 c 8.7,-4.4 19.3,-7.2 30.6,-7.2 11.3,-0.1 21.9,2.7 30.5,7.2 m -72,0 h 9.8 v 0.8 H 220 Z"
     id="path62"
     inkscape:connector-curvature="0"
     style="fill:#a7a8a8" />
  <path
     d="m 219.8,75.9 h 10.1 V 62.8 c 0,-1.2 -0.9,-2.1 -2.1,-2.1 -4.4,0 -8,3.6 -8,8 z m 2.5,115.2 7.4,2.6 v -117 h -10.1 v 111.8 c 0.2,1.4 1.3,2.1 2.7,2.6 z"
     id="path64"
     inkscape:connector-curvature="0"
     style="fill:#dedfde" />
  <path
     d="m 219.8,171.3 v 12.3 c -0.8,0 -1.5,-2.8 -1.5,-6.2 0,-3.3 0.7,-6.1 1.5,-6.1 z"
     id="path66"
     inkscape:connector-curvature="0"
     style="fill:#dedfde" />
  <path
     d="m 292,61.5 h 1.1 V 193.3 H 292 Z m 1.1,14.4 h 9.8 v 0.8 h -9.8 z"
     id="path68"
     inkscape:connector-curvature="0"
     style="fill:#a7a8a8" />
  <path
     d="M 303.1,75.9 H 293 V 62.8 c 0,-1.2 0.9,-2.1 2.1,-2.1 4.4,0 8,3.6 8,8 z m -2.6,115.1 -7.4,2.6 v -117 h 10.1 v 111.8 c -0.1,1.5 -1.2,2.2 -2.7,2.6 z m 2.6,-19.7 v 12.3 c 0.8,0 1.5,-2.8 1.5,-6.2 -0.1,-3.4 -0.7,-6.1 -1.5,-6.1 z"
     id="path70"
     inkscape:connector-curvature="0"
     style="fill:#dedfde" />
  <circle
     cx="287.89999"
     cy="167.5"
     r="6.0999999"
     id="circle72"
     style="fill:#c1c3c2" />
  <circle
     cx="287.89999"
     cy="167.5"
     r="5.1999998"
     id="circle74"
     style="fill:#646fa4" />
  <path
     d="m 230.3,163.7 c 0,7.5 5.3,13.6 12.6,13.6 7.3,0 13.9,-8 13.9,-15.5 0,-7.5 -4.2,-11.6 -11.5,-11.6 -7.4,0.1 -15,6.1 -15,13.5 z"
     id="path76"
     inkscape:connector-curvature="0"
     style="fill:#c1c3c2" />
  <circle
     cx="242.2"
     cy="165.39999"
     r="12"
     id="circle78"
     style="fill:#a7a8a8" />
  <circle
     cx="241.89999"
     cy="165.39999"
     r="11.2"
     id="circle80"
     style="fill:#646fa4" />
  <g
     transform="scale(0.7294)"
     stroke-miterlimit="10"
     id="g86"
     style="fill:none;stroke:#a7a8a8;stroke-miterlimit:10">
    <circle
       cx="331.70001"
       cy="226.7"
       r="1.2"
       id="circle82" />
    <path
       d="m 326.1,212.5 v 4.9 c 0,1.9 -1.6,3.5 -3.5,3.5 h -5 m -0.1,11.5 h 4.9 c 1.9,0 3.5,1.6 3.5,3.5 v 5 m 11.5,0 V 236 c 0,-1.9 1.6,-3.5 3.5,-3.5 h 5 M 346,221 h -4.9 c -1.9,0 -3.5,-1.6 -3.5,-3.5 v -5"
       id="path84"
       inkscape:connector-curvature="0" />
  </g>
  <path
     d="m 262.2,86.7 c 0.2,-0.1 0.4,-0.1 0.5,-0.2 0.1,-0.1 0.3,-0.1 0.4,-0.1 0.2,-0.1 0.3,-0.1 0.5,-0.1 0.2,0 0.4,0.1 0.6,0.1 l 0.3,0.3 c 0.1,0.1 0.1,0.1 0.1,0.3 v 0.1 c 0,0.1 -0.1,0.1 -0.1,0.1 l -0.1,0.1 -0.1,0.1 c -0.1,0.1 -0.1,0.1 -0.2,0.1 -0.1,0.1 -0.2,0 -0.3,0.1 -0.4,0.1 -0.7,0.1 -0.8,0.1 -0.1,0.1 -0.3,0.1 -0.4,0.1 -0.1,0.1 -0.2,0.1 -0.3,0.2 -0.1,0.1 -0.1,0.1 -0.2,0.3 -0.1,0.1 -0.1,0.2 -0.1,0.3 0,0.1 -0.1,0.3 -0.1,0.4 0,0.2 0,0.4 0.1,0.6 0.1,0.2 0.3,0.4 0.5,0.4 0.2,0.1 0.4,0.2 0.8,0.2 h 0.4 c 0.1,0 0.2,-0.1 0.4,-0.1 0.1,-0.1 0.2,-0.1 0.4,-0.3 l 0.2,-0.2 V 90 h 0.8 c -0.1,-0.4 -0.1,-0.4 -0.1,-0.6 0,-0.4 -0.1,-1.3 0,-1.8 V 87 c 0,-0.1 -0.1,-0.4 -0.1,-0.6 -0.1,-0.1 -0.1,-0.2 -0.2,-0.4 -0.1,-0.1 -0.4,-0.3 -0.6,-0.4 -0.2,-0.1 -0.4,-0.1 -0.6,-0.1 h -0.8 c -0.2,0.1 -0.4,0.1 -0.7,0.2 -0.2,0.7 -0.2,0.9 -0.2,1 z m 2.1,2.9 c 0,0 -0.1,0.1 -0.2,0.1 -0.1,0.1 -0.2,0.1 -0.4,0.1 h -0.4 c -0.2,0 -0.4,-0.1 -0.4,-0.1 -0.1,-0.1 -0.1,-0.1 -0.2,-0.1 -0.1,-0.1 -0.2,-0.3 -0.2,-0.4 v -0.3 c 0,-0.1 0.1,-0.1 0.1,-0.2 0.1,-0.1 0.1,-0.1 0.3,-0.2 0.1,-0.1 0.2,-0.1 0.4,-0.1 0.1,-0.1 0.2,-0.1 0.4,-0.1 0.1,0 0.4,0 0.4,-0.1 0.1,0 0.1,0 0.2,-0.1 0.1,0 0.1,-0.1 0.1,-0.1 0,0 0.1,-0.1 0.2,-0.1 v 0.9 c 0,0 0,0.4 -0.1,0.6 z m 12.9,-2.9 c 0.2,-0.1 0.4,-0.1 0.4,-0.2 0.1,-0.1 0.3,-0.1 0.4,-0.1 0.2,0 0.4,-0.1 0.5,-0.1 0.2,0 0.4,0.1 0.6,0.1 0.1,0.1 0.2,0.2 0.4,0.3 0.1,0.1 0.1,0.1 0.1,0.4 v 0.1 c 0,0.1 -0.1,0.1 -0.1,0.1 l -0.1,0.1 c -0.1,0 -0.1,0.1 -0.1,0.1 -0.1,0 -0.1,0.1 -0.2,0.1 -0.1,0.1 -0.2,0 -0.3,0.1 -0.4,0.1 -0.7,0.1 -0.8,0.1 -0.1,0.1 -0.3,0.1 -0.4,0.1 -0.1,0.1 -0.2,0.1 -0.3,0.2 l -0.2,0.2 c -0.1,0.1 -0.1,0.2 -0.1,0.3 0,0.1 -0.1,0.3 -0.1,0.4 0,0.2 0.1,0.4 0.1,0.6 0.1,0.2 0.3,0.4 0.5,0.4 0.2,0.1 0.5,0.2 0.9,0.2 h 0.4 c 0.1,0 0.2,-0.1 0.4,-0.1 0.1,-0.1 0.2,-0.1 0.4,-0.3 l 0.2,-0.2 V 90 h 0.8 c -0.1,-0.4 -0.1,-0.4 -0.1,-0.6 v -2.3 c 0,-0.1 -0.1,-0.4 -0.1,-0.6 -0.1,-0.1 -0.1,-0.3 -0.3,-0.4 -0.1,-0.1 -0.4,-0.3 -0.6,-0.4 -0.2,-0.1 -0.4,-0.1 -0.6,-0.1 -0.2,0 -0.6,0 -0.8,0.1 -0.2,0.1 -0.4,0.1 -0.7,0.1 -0.2,0.6 -0.1,0.7 -0.2,0.9 z m 2.1,2.9 c -0.1,0 -0.1,0.1 -0.2,0.1 -0.1,0 -0.2,0.1 -0.3,0.1 h -0.4 c -0.2,0 -0.4,-0.1 -0.4,-0.1 -0.1,-0.1 -0.1,0 -0.2,-0.1 -0.1,-0.1 -0.2,-0.3 -0.2,-0.4 v -0.3 c 0,-0.1 0.1,-0.1 0.1,-0.2 0.1,-0.1 0.1,-0.1 0.3,-0.2 0.1,-0.1 0.2,-0.1 0.4,-0.1 0.1,0 0.2,-0.1 0.4,-0.1 0.1,0 0.4,0 0.4,-0.1 0.1,0 0.1,0 0.2,-0.1 0.1,0 0.1,-0.1 0.2,-0.1 l 0.1,-0.1 v 0.9 c 0,0 0,0.4 -0.1,0.6 -0.2,0.1 -0.3,0.2 -0.3,0.2 z m -13.2,0.7 0.1,-0.3 v -0.9 l -0.1,-2.5 c 0,-0.2 -0.1,-0.5 -0.1,-0.6 0.1,0 0.4,-0.1 0.5,-0.1 h 0.3 v 0.6 l 0.3,-0.3 c 0.1,-0.1 0.1,-0.1 0.3,-0.2 0.1,-0.1 0.2,-0.1 0.4,-0.1 h 0.5 c 0.1,0 0.2,0 0.4,0.1 0.1,0 0.2,0.1 0.3,0.1 0.1,0.1 0.2,0.1 0.2,0.1 l 0.2,0.2 c 0,0.1 0.2,-0.2 0.4,-0.4 0.2,-0.2 0.5,-0.2 0.8,-0.2 0.2,0 0.6,0 0.8,0.1 0.2,0.1 0.4,0.1 0.6,0.3 0.2,0.2 0.1,0.2 0.2,0.3 0.1,0.1 0.1,0.4 0.1,0.6 v 2.7 c 0,0.2 0.1,0.2 0.1,0.4 h -0.9 c 0.1,-0.4 0.1,-0.2 0.1,-0.4 v -2.4 c 0,-0.1 -0.1,-0.4 -0.1,-0.4 -0.1,-0.1 -0.2,-0.3 -0.3,-0.4 -0.1,-0.1 -0.2,-0.1 -0.3,-0.1 -0.1,-0.1 -0.3,-0.1 -0.4,-0.1 -0.1,0 -0.2,0 -0.4,0.1 -0.1,0 -0.1,0.1 -0.2,0.1 -0.1,0.1 -0.1,0.1 -0.2,0.1 -0.1,0.1 -0.1,0.1 -0.1,0.3 -0.1,0.1 -0.1,0.3 -0.1,0.4 v 2.5 l 0.1,0.4 h -0.9 c 0,-0.4 0.1,-0.1 0.1,-0.4 v -2.6 c 0,-0.1 0,-0.2 -0.1,-0.3 0,-0.1 -0.1,-0.2 -0.1,-0.3 -0.1,-0.1 -0.2,-0.2 -0.4,-0.3 -0.1,-0.1 -0.2,-0.1 -0.4,-0.1 -0.2,0 -0.2,0 -0.4,0.1 -0.2,0.1 -0.2,0.1 -0.3,0.2 l -0.2,0.2 c -0.1,0.1 -0.1,0.1 -0.1,0.4 -0.1,0.2 -0.1,1.1 -0.1,1.7 v 0.9 c 0,0.2 0.1,0.3 0.1,0.4 h -0.4 c 0,0.1 -0.2,0.1 -0.3,0.1 z m 10.4,-0.8 v 0.3 c 0,0.1 -0.1,0.2 -0.1,0.4 -0.2,0.1 -0.4,0.1 -0.6,0.1 H 275 c -0.3,0 -0.6,-0.1 -0.9,-0.1 -0.2,-0.1 -0.6,-0.3 -0.7,-0.4 -0.2,-0.2 -0.4,-0.4 -0.5,-0.7 -0.1,-0.3 -0.1,-0.6 -0.1,-0.9 0,-0.4 0.1,-0.6 0.1,-0.9 0.1,-0.4 0.4,-0.7 0.7,-0.9 0.3,-0.2 0.9,-0.4 1.5,-0.4 0.4,0 0.8,0.1 1.2,0.1 0,0.3 0.1,0.4 0.1,0.6 -0.3,-0.1 -0.5,-0.2 -0.7,-0.2 -0.2,0 -0.4,-0.1 -0.5,-0.1 -0.2,0 -0.7,0.1 -0.9,0.2 -0.2,0.1 -0.4,0.2 -0.4,0.4 -0.1,0.1 -0.2,0.4 -0.3,0.7 -0.1,0.2 -0.1,0.3 -0.1,0.5 0,0.4 0.1,0.7 0.1,0.9 0.1,0.2 0.3,0.5 0.5,0.7 0.2,0.1 0.5,0.3 0.8,0.3 0.4,-0.2 1,-0.2 1.6,-0.6 z m 4.5,0.7 -0.1,-0.3 c 0,-0.1 -0.1,-0.2 -0.1,-0.4 0.5,0.3 1,0.5 1.4,0.5 0.2,0 0.4,-0.1 0.5,-0.1 0.1,-0.1 0.3,-0.1 0.4,-0.3 0.1,-0.1 0.1,-0.2 0.1,-0.3 V 89 c 0,-0.1 -0.1,-0.2 -0.1,-0.3 l -0.3,-0.3 c -0.1,-0.1 -0.3,-0.1 -0.6,-0.3 -0.3,-0.1 -0.6,-0.2 -0.7,-0.4 -0.1,-0.1 -0.4,-0.2 -0.4,-0.4 -0.1,-0.1 -0.1,-0.2 -0.2,-0.4 v -0.4 c 0,-0.2 0.1,-0.4 0.2,-0.5 0.1,-0.2 0.3,-0.3 0.5,-0.4 0.2,-0.1 0.5,-0.1 0.8,-0.1 0.4,0 0.7,0.1 1,0.1 0,0.2 -0.1,0.4 0,0.6 -0.3,-0.2 -0.6,-0.3 -0.9,-0.3 -0.1,0 -0.4,0 -0.5,0.1 -0.1,0.1 -0.3,0.2 -0.4,0.3 -0.1,0.1 -0.1,0.1 -0.1,0.3 0,0.1 0,0.2 0.1,0.3 0,0.1 0.2,0.2 0.3,0.3 0.1,0.1 0.1,0.1 0.2,0.1 0.1,0 0.4,0.2 0.7,0.3 0.3,0.1 0.6,0.4 0.7,0.4 0.1,0.1 0.2,0.2 0.3,0.4 0.1,0.1 0.1,0.2 0.1,0.4 0,0.2 -0.1,0.2 -0.1,0.3 0,0.2 0,0.3 -0.1,0.4 -0.1,0.2 -0.3,0.4 -0.6,0.4 -0.2,0.1 -0.5,0.1 -0.8,0.1 h -0.6 c -0.1,0 -0.3,-0.1 -0.4,-0.1 0,0.3 -0.1,0.3 -0.3,0.3 z m 5.4,-0.4 c 0,0.1 -0.1,0.2 -0.1,0.4 -0.2,0.1 -0.3,0.1 -0.4,0.1 h -0.3 c -0.2,0 -0.4,0 -0.6,-0.1 -0.2,-0.1 -0.3,-0.1 -0.4,-0.3 -0.1,-0.1 -0.1,-0.5 -0.1,-0.8 V 86.4 H 284 V 86 h 0.5 v -0.7 c 0,-0.1 -0.1,-0.3 -0.1,-0.4 0.3,-0.1 0.7,-0.1 0.8,-0.2 0,0.4 0.1,1 0.1,1.3 h 1.1 v 0.4 l -0.3,-0.1 h -0.8 v 2.6 c 0,0.2 0,0.5 0.1,0.6 0,0.1 0.1,0.1 0.2,0.2 0.1,0.1 0.2,0.1 0.3,0.1 h 0.2 c 0,0.1 0.1,0.1 0.3,0 z m -28,-2.3 h 2.3 v -0.2 c 0,-0.1 -0.1,-0.2 -0.1,-0.3 -0.1,-0.1 -0.1,-0.2 -0.2,-0.3 -0.1,-0.1 -0.2,-0.1 -0.3,-0.2 -0.1,-0.1 -0.3,-0.1 -0.4,-0.1 -0.1,0 -0.3,0.1 -0.4,0.1 -0.1,0.1 -0.3,0.1 -0.4,0.2 -0.1,0.1 -0.2,0.1 -0.3,0.3 -0.1,0.1 -0.1,0.2 -0.1,0.4 -0.1,-0.1 -0.1,0.1 -0.1,0.1 z m 2.9,2.1 c 0,0.1 -0.1,0.4 -0.1,0.7 -0.3,0.1 -0.7,0.2 -0.9,0.3 h -0.6 c -0.4,0 -0.7,-0.1 -0.9,-0.1 -0.3,-0.1 -0.5,-0.3 -0.7,-0.5 -0.2,-0.2 -0.4,-0.4 -0.5,-0.7 -0.1,-0.3 -0.1,-0.6 -0.1,-0.9 0,-0.4 0.1,-0.6 0.2,-1 0.1,-0.4 0.4,-0.7 0.7,-0.9 0.3,-0.2 0.7,-0.3 1.2,-0.3 0.2,0 0.5,0 0.7,0.1 0.2,0.1 0.4,0.1 0.6,0.3 0.2,0.2 0.3,0.4 0.4,0.6 0.1,0.2 0.1,0.2 0.1,0.5 V 88 h -3.1 v 0.3 c 0,0.3 0.1,0.7 0.2,0.9 0.1,0.3 0.3,0.4 0.5,0.6 0.2,0.2 0.5,0.3 0.8,0.3 0.4,-0.2 1,-0.3 1.5,-0.5 z m -6.4,0.8 c 0,-0.1 0.1,-0.2 0.1,-0.3 0,-1.4 0,-2.5 -0.1,-3.4 V 86.3 L 254.8,86 c 0.1,0 0.3,0 0.4,-0.1 0.1,0 0.4,-0.1 0.4,-0.1 v 0.8 c 0.1,-0.2 0.1,-0.1 0.2,-0.3 l 0.3,-0.3 c 0.1,-0.1 0.2,-0.1 0.3,-0.1 0.1,0 0.2,-0.1 0.4,-0.1 h 0.4 c 0.3,0 0.4,0.1 0.4,0.1 0,0.1 -0.2,0.6 -0.2,0.6 0,0 -0.2,0 -0.4,-0.1 -0.2,-0.1 -0.3,-0.1 -0.4,-0.1 -0.1,0 -0.4,0.1 -0.4,0.1 -0.1,0.1 -0.2,0.1 -0.4,0.2 -0.1,0.1 -0.1,0.2 -0.2,0.4 -0.1,0.1 -0.1,0 -0.1,0.2 v 2.6 l 0.1,0.2 h -0.4 c 0,0.4 -0.2,0.4 -0.3,0.4 z m -5.4,-0.5 h 0.9 c 0.2,0 0.5,0 0.8,-0.1 0.3,-0.1 0.4,-0.1 0.7,-0.2 0.2,-0.1 0.4,-0.2 0.6,-0.4 0.2,-0.2 0.4,-0.4 0.5,-0.7 0.1,-0.2 0.2,-0.5 0.2,-0.8 0.1,-0.3 0.1,-0.6 0.1,-0.9 0,-0.4 -0.1,-0.6 -0.2,-0.9 -0.1,-0.3 -0.3,-0.7 -0.5,-0.9 -0.3,-0.2 -0.4,-0.4 -0.7,-0.4 -0.3,-0.1 -0.7,-0.2 -1.1,-0.2 -0.3,0 -0.7,0 -0.8,0.1 -0.2,0 -0.4,0.1 -0.6,0.1 z m -1.1,0.5 0.1,-0.4 v -5.3 c 0,-0.1 -0.1,-0.3 -0.1,-0.6 h 2.8 c 0.4,0 0.6,0.1 0.9,0.1 0.2,0.1 0.7,0.3 0.9,0.4 0.2,0.1 0.4,0.3 0.6,0.6 0.1,0.2 0.2,0.3 0.4,0.6 0.1,0.4 0.2,0.8 0.2,1.2 0.1,0.5 0,0.9 -0.1,1.4 -0.1,0.5 -0.5,0.8 -0.8,1.2 -0.3,0.4 -0.7,0.5 -1.1,0.7 -0.4,0.1 -0.9,0.2 -1.4,0.2 h -1.3 z m -6.3,-2 c 0,-0.4 -0.1,-0.3 -0.3,-0.4 -0.1,0 -0.4,0.1 -0.7,0 -0.3,-0.1 -0.5,-0.5 -0.4,-0.7 0.1,-0.6 0.6,-0.7 0.8,-0.7 0.2,0 0.6,0 1.1,0.4 0.2,0.2 0.4,0.7 0.4,1 0,0.4 0,0.7 -0.2,1 -0.4,0.4 -1.2,0.7 -1.8,0.7 -2,-0.2 -1.9,-2.1 -1.9,-2.1 0,0 -0.1,-0.8 0.5,-1.7 0.1,-0.1 0.1,-0.2 0.2,-0.3 0.1,-0.1 0.1,-0.1 0.2,-0.1 0.1,-0.1 0.1,-0.1 0.2,-0.1 0.2,-0.1 0.4,-0.2 0.7,-0.3 0.4,-0.1 0.7,-0.1 0.9,-0.1 0.8,0 1.7,0.4 2.2,1.2 l 0.2,0.2 c 0.1,0.1 0.1,0.3 0.2,0.4 0.1,0.3 0.1,0.1 0.2,0.7 0.1,0.3 0.1,0.5 0.1,0.7 v 0.3 c 0,0.4 0.1,0.4 0,0.7 -0.1,0.4 -0.4,0.9 -0.7,1.2 -0.4,0.4 -0.8,0.6 -1.1,0.7 -0.2,0.1 -0.4,0.1 -0.7,0.2 -0.3,0.1 -0.4,0.1 -1,0.1 -0.5,0 -0.9,0 -1.1,-0.1 -0.9,-0.3 -1.3,-0.4 -1.7,-0.8 -1.1,-0.8 -1.3,-2.5 -1.3,-2.5 0,0 -0.1,-0.8 0.1,-1.7 0.1,-0.4 0.6,-1.3 0.9,-1.7 0.2,-0.3 0.7,-0.7 1.1,-0.9 0.3,-0.2 0.7,-0.4 1.3,-0.6 0.2,-0.1 0.4,-0.1 1,-0.1 0.7,0 1.7,0.1 2.2,0.3 0.6,0.2 1.2,0.6 1.5,0.9 0.3,0.3 0.9,1.2 1,1.5 0.1,0.2 0.4,1.2 0.4,1.4 0,0.1 0.1,0.6 0.5,0.6 0.4,0 0.3,-0.5 0.3,-0.6 0,-0.1 -0.1,-0.9 -0.2,-1.1 -0.1,-0.2 -0.4,-0.8 -0.4,-0.9 0,-0.1 -0.4,-0.6 -0.6,-0.9 -0.2,-0.3 -0.4,-0.6 -0.7,-0.7 -0.4,-0.3 -1,-0.5 -1,-0.5 0,0 -0.9,-0.4 -1.5,-0.4 -0.4,-0.1 -0.9,-0.1 -1.7,-0.1 -0.8,0.1 -1.2,0.3 -1.5,0.4 -0.3,0.1 -0.9,0.4 -1.4,0.8 -0.5,0.4 -0.4,0.2 -0.6,0.5 -0.2,0.3 -0.4,0.4 -0.5,0.6 -0.1,0.2 -0.6,1 -0.7,1.5 -0.1,0.2 -0.1,0.5 -0.2,0.8 0,0.2 -0.1,0.5 0,0.7 0.1,0.4 0,0.4 0,0.4 l 0.3,1.2 c 0.1,0.3 0.3,0.8 0.9,1.5 0.7,0.7 1.3,0.9 1.5,1 0.2,0.1 1,0.4 2.1,0.4 1.2,0 1.5,-0.2 1.8,-0.4 0.2,-0.1 0.9,-0.4 1.5,-0.9 0.6,-0.5 0.8,-1.2 0.8,-1.2 0.1,-0.4 0.2,-1.2 0.1,-2 -0.1,-0.5 -0.2,-0.9 -0.3,-1.2 -0.1,-0.5 -0.4,-0.8 -0.5,-1 -0.1,-0.2 -0.6,-0.6 -0.9,-0.7 -0.1,-0.1 -0.2,-0.1 -0.4,-0.2 -0.1,-0.1 -0.4,-0.1 -0.7,-0.2 -0.2,-0.1 -0.6,-0.1 -0.9,-0.1 h -0.5 c -0.1,0 -0.5,0.1 -1.1,0.4 -0.3,0.1 -0.7,0.4 -1,0.7 -0.1,0.1 -0.2,0.3 -0.3,0.4 -0.8,1.2 -0.5,2.4 -0.5,2.4 0,0 0.1,1.7 1.7,2.2 0.5,0.1 1,0.1 1.4,0.1 0.7,-0.1 1.2,-0.4 1.5,-0.5 0.4,-0.1 0.6,-0.4 0.7,-0.7 0.1,-0.3 0.1,-0.6 0.1,-0.8 0,-0.1 0,-0.4 -0.1,-0.5 -0.1,-0.5 -0.3,-0.9 -0.7,-1.3 l -0.1,-0.1 c -0.1,-0.1 -0.1,-0.1 -0.2,-0.1 -0.4,-0.2 -0.7,-0.3 -1.2,-0.3 -0.2,0 -0.4,0.1 -0.6,0.1 -0.6,0.3 -0.9,0.8 -0.9,1.5 0,0.7 0.7,1 0.7,1.1 0.1,-0.3 1.5,0.1 1.5,-0.6 z"
     id="path88"
     inkscape:connector-curvature="0"
     style="fill:#2f3338" />
</svg>
