<?xml version="1.0" encoding="UTF-8" standalone="no"?>
<svg
   xmlns:dc="http://purl.org/dc/elements/1.1/"
   xmlns:cc="http://creativecommons.org/ns#"
   xmlns:rdf="http://www.w3.org/1999/02/22-rdf-syntax-ns#"
   xmlns:svg="http://www.w3.org/2000/svg"
   xmlns="http://www.w3.org/2000/svg"
   xmlns:sodipodi="http://sodipodi.sourceforge.net/DTD/sodipodi-0.dtd"
   xmlns:inkscape="http://www.inkscape.org/namespaces/inkscape"
   viewBox="-201 259.7 403 193.40157"
   version="1.1"
   id="svg12"
   sodipodi:docname="logo.svg"
   width="403"
   height="193.40157"
   inkscape:version="0.92.4 5da689c313, 2019-01-14">
  <metadata
     id="metadata18">
    <rdf:RDF>
      <cc:Work
         rdf:about="">
        <dc:format>image/svg+xml</dc:format>
        <dc:type
           rdf:resource="http://purl.org/dc/dcmitype/StillImage" />
      </cc:Work>
    </rdf:RDF>
  </metadata>
  <defs
     id="defs16" />
  <sodipodi:namedview
     pagecolor="#ffffff"
     bordercolor="#666666"
     borderopacity="1"
     objecttolerance="10"
     gridtolerance="10"
     guidetolerance="10"
     inkscape:pageopacity="0"
     inkscape:pageshadow="2"
     inkscape:window-width="640"
     inkscape:window-height="480"
     id="namedview14"
     showgrid="false"
     inkscape:zoom="0.6775"
     inkscape:cx="200"
     inkscape:cy="96.700791"
     inkscape:window-x="0"
     inkscape:window-y="0"
     inkscape:window-maximized="0"
     inkscape:current-layer="svg12">
    <inkscape:grid
       type="xygrid"
       id="grid828"
       originx="3.5955425e-06"
       originy="8.6382423e-06" />
  </sodipodi:namedview>
  <path
     d="m -160.12875,401.87992 c -0.28222,0 -0.56443,-0.0706 -0.84664,-0.21166 -26.81023,-12.98179 -40.63867,-28.15074 -40.00369,-43.81356 0.49388,-12.91124 11.00631,-25.11695 30.479,-35.27661 18.41439,-9.59524 44.44854,-17.28554 75.209752,-22.08316 1.058299,-0.14111 1.975491,0.56442 2.116597,1.55217 0.141107,1.05829 -0.564425,1.97549 -1.552171,2.11659 -62.298508,9.87746 -101.526108,30.479 -102.443298,53.83212 -0.56443,13.89899 12.91124,28.22129 37.88708,40.2859 0.9172,0.42332 1.34052,1.55217 0.84664,2.53991 -0.28221,0.70554 -0.98774,1.0583 -1.69327,1.0583 z M 73.473011,305.57476 h -0.28222 c -19.82546,-3.24545 -40.70921,-5.4326 -62.08684,-6.42035 -1.0583,-0.0705 -1.8343909,-0.91719 -1.7638309,-1.97549 0.0705,-1.0583 0.9171909,-1.83438 1.9754909,-1.76383 21.58929,1.0583 42.61415,3.24545 62.51016,6.4909 0.98775,0.14111 1.69328,1.12885 1.55217,2.18715 -0.21166,0.84664 -0.98774,1.48162 -1.90493,1.48162 z m -59.12361,128.33633 h -1.55217 c -1.0583,0 -1.90494,-0.84664 -1.90494,-1.90494 0,-1.0583 0.84664,-1.90493 1.90494,-1.90493 h 1.55217 c 100.538349,0 179.910739,-26.1047 180.898489,-59.68804 0.35276,-11.78239 -9.10137,-23.70589 -27.3041,-34.50053 -18.13218,-10.79465 -44.16633,-19.96657 -75.280299,-26.52802 -0.98775,-0.21166 -1.69328,-1.1994 -1.48162,-2.2577 0.21166,-0.98775 1.1994,-1.69328 2.2577,-1.48162 31.466739,6.70256 57.853649,16.01559 76.409149,26.95134 19.4727,11.57073 29.56181,24.62308 29.13849,37.81653 -0.56443,17.84997 -20.31933,34.14777 -55.5254,45.8596 -34.07721,11.42963 -79.936809,17.63831 -129.112409,17.63831 z"
     id="path2"
     inkscape:connector-curvature="0"
     style="fill:#ff0000" />
  <path
     d="m 48.356061,336.12431 49.59892,-37.81653 -58.27697,23.21201 -16.36835,-17.00333 5.22094,23.63533 -49.59893,37.74598 58.27697,-23.21201 16.36835,17.00333"
     id="path4"
     inkscape:connector-curvature="0"
     style="fill:#ff0000" />
  <g
     id="g10"
     style="fill:#ff0000"
     transform="translate(3.5955425e-6,-1.2200117e-5)">
    <path
       d="m -13.730792,383.32443 c 0.705532,-3.52767 1.97549,-2.96324 5.573705,-3.52767 l 3.316002,-0.49387 -1.0582985,5.50315 -3.316002,0.49388 c -3.5276615,0.49387 -5.1503865,1.48161 -4.5154065,-1.97549 z m -7.19643,-5.07984 -2.539917,13.82844 c -0.705532,3.80987 0.42332,5.00928 4.092088,4.44485 l 21.0248635,-3.316 4.515407,-24.27031 -21.0248635,3.316 c -3.668768,0.56442 -5.362046,2.2577 -6.067578,5.99702 z m 133.627822,-21.80095 -0.21166,1.34052 21.7304,-3.45711 c 1.69328,-0.28222 3.38655,-1.97549 3.73932,-3.88043 0.35277,-1.90494 -0.77608,-3.1749 -2.46936,-2.89268 l -5.57371,0.84663 -8.88971,1.41107 -2.2577,0.35277 c -2.68102,0.42332 -5.5737,3.38655 -6.06758,6.27923 z m -152.324429,62.51017 0.211659,-0.98775 c 0.776086,0.0706 1.763831,0.35277 2.61047,0.21166 l 22.577035,-3.52766 c -0.846639,4.51541 -6.773111,5.64426 -15.874478,7.05533 l -10.300772,1.62272 -5.503152,29.77346 13.546221,-2.11659 c 33.3716795,-3.316 46.141815,-20.53099 50.163349,-41.13254 l 40.709216,-6.4909 6.561451,-35.27661 3.316002,-0.56443 c 3.598215,-0.56442 3.104342,-1.1994 2.39881,2.53992 l -5.997025,32.31338 29.209039,-4.65651 0.423319,-2.1166 c 2.187151,0.98774 4.79762,1.34051 7.478645,0.91719 l 50.51611,-8.04307 4.72707,-25.39916 -3.24545,-2.32826 c 2.82213,-3.38655 5.07983,-7.47864 5.71481,-10.93575 l 0.77609,-4.02153 c 2.53992,-14.95729 -11.28852,-18.90827 -17.56776,-17.92053 l -28.99738,4.58596 c -5.15038,0.84664 -10.79464,4.3743 -14.886728,9.10137 -3.809874,-3.73932 -9.665793,-5.22094 -13.122901,-4.65651 l -32.313381,5.15038 3.598215,7.97252 29.138485,-4.58596 c 4.233194,-0.63498 6.98477,0.98774 7.760856,4.30375 -0.282213,0.84664 -7.760856,40.63866 -7.760856,40.63866 l -10.441878,1.62272 5.573705,-30.05567 c 0.705532,-3.73933 -0.423319,-5.00928 -4.092088,-4.44486 l -20.037118,3.1749 -6.561451,35.27661 -11.500177,1.83439 7.478643,-40.427 -9.454133,-11.14742 -33.9361061,12.41737 16.0861371,-2.53991 0.282213,-0.0706 -10.2302187,55.17263 c -2.6104697,14.0401 -17.5677553,27.37466 -30.8317633,29.49126 l -13.546221,2.11659 2.046044,-11.0063 10.300772,-1.62273 c 9.101367,-1.41106 19.2610329,-10.51243 21.0248638,-20.03712 l 1.12885171,-5.99702 -26.88078251,4.23319 c -5.785365,0.9172 -8.889707,-2.61047 -7.760855,-8.67804 l 4.79762,-25.89304 c 0.846639,-4.58596 3.739321,-8.46639 7.549196,-10.44188 l 0.07055,-0.70553 13.4756677,-10.37133 -7.9019627,1.34051 c -4.16264,0.63498 -11.994049,3.80988 -16.932776,10.08912 -3.739321,-4.44486 -10.230219,-6.20869 -13.96954,-5.64426 l -28.997379,4.58596 4.727067,-25.39917 21.16597,-3.38655 c 11.217964,-1.76383 23.705886,-14.46341 25.893037,-26.31636 l 3.174895,-17.07388 c 2.18715,-11.9235 -6.138131,-21.23652 -17.426649,-19.47269 l -46.212368,7.33753 -9.8069,52.91493 -42.543596,6.77311 c -3.59822,0.56443 -7.12588,4.09209 -7.83141,7.90196 l -15.59226,85.72218 c -0.70554,3.80988 1.62272,6.42035 5.22094,5.85592 l 81.136211,-12.91124 6.561451,-35.27662 3.316002,-0.49387 c 3.668768,-0.56443 3.104342,-1.19941 2.39881,2.53991 l -5.997025,32.31339 z m -60.181909,-19.33159 -27.162992,4.30375 0.98774,-5.50315 21.94206,-3.45711 5.362044,-28.64461 -21.942054,3.45711 0.98774,-5.50316 27.162998,-4.30374 z m -1.693282,8.81916 -2.2577,12.13515 -47.9762,7.61975 14.95729,-80.50124 39.650915,-6.27924 -2.046044,11.00631 -28.150741,4.44485 -4.30375,23.14146 22.9298,-3.66876 -2.04604,11.0063 -22.9298,3.73932 -4.30375,23.14146 z m 55.172633,3.03379 -11.500177,1.83438 5.573706,-30.05568 c 0.705532,-3.73932 -0.42332,-5.00928 -4.092088,-4.44485 l -20.037118,3.17489 -6.561451,35.27662 -11.500177,1.83439 8.607494,-46.35348 0.282213,-0.0706 38.098747,-6.06758 c 5.785365,-0.91719 8.889707,2.61047 7.760855,8.67805 z m 74.574769,-56.79536 11.217964,-1.76383 -8.607495,46.35348 -11.500177,1.83438 8.607495,-46.28292 z m 69.636042,21.87151 3.950976,-21.44819 c 1.26996,-6.77311 8.53695,-13.40511 14.74563,-14.39286 l 26.81023,-4.23319 c 4.51541,-0.70553 7.6903,4.30375 6.77311,9.24247 l -1.34051,6.91422 c -0.91719,4.93873 -5.99703,10.23022 -10.51243,10.93575 l -27.86853,4.44485 -0.42332,2.46937 c -0.56443,2.82213 1.34051,5.07983 3.95098,4.65651 l 31.11398,-4.93873 -2.1166,11.28852 -35.13551,5.57371 c -5.99703,0.91719 -11.147411,-3.73932 -9.948006,-10.51243 z m -166.082313,-60.11136 3.880428,-20.95431 14.604519,-2.32826 c 1.904937,-0.28221 2.892683,0.77609 2.539917,2.82213 l -2.681023,14.32231 c -0.352766,2.04604 -1.834384,3.52766 -3.739322,3.80987 z"
       id="path6"
       inkscape:connector-curvature="0" />
    <path
       d="m 25.214593,326.24686 -3.104343,-12.27626 -1.76383,0.21166 -0.564426,3.03379 c -0.42332,2.11659 -2.046044,3.80987 -4.092088,4.16264 l -11.9940497,1.90493 c -1.9754906,0.28222 -3.10434231,-0.91719 -2.75157611,-3.03379 L 7.0118583,287.72479 c 0.3527661,-2.11659 2.0460438,-3.80987 4.0215347,-4.09208 l 11.994049,-1.90494 c 1.975491,-0.28221 3.104343,0.91719 2.751576,3.03379 l -0.776085,4.16264 24.270312,-3.88043 0.917192,-4.93873 c 2.328257,-12.48792 -6.208684,-22.0126 -18.061628,-20.17822 l -23.2120135,3.66877 c -11.8529433,1.90494 -24.5525255,14.74562 -26.8102285,27.3041 l -6.490898,34.71219 c -2.328257,12.48792 6.208685,22.01261 18.0616279,20.17823 l 7.7608558,-1.19941 z m 17.214989,-7.40809 c 0.634979,-1.69328 1.058298,-2.32826 1.411064,-4.09209 l 0.846639,-4.44485 -9.665793,1.55217 z"
       id="path8"
       inkscape:connector-curvature="0" />
  </g>
</svg>
