<?xml version="1.0" encoding="UTF-8" standalone="no"?>
<svg
   xmlns:dc="http://purl.org/dc/elements/1.1/"
   xmlns:cc="http://creativecommons.org/ns#"
   xmlns:rdf="http://www.w3.org/1999/02/22-rdf-syntax-ns#"
   xmlns:svg="http://www.w3.org/2000/svg"
   xmlns="http://www.w3.org/2000/svg"
   xmlns:sodipodi="http://sodipodi.sourceforge.net/DTD/sodipodi-0.dtd"
   xmlns:inkscape="http://www.inkscape.org/namespaces/inkscape"
   width="500"
   height="192.01225"
   version="1.1"
   id="svg94"
   sodipodi:docname="consolegame.svg"
   inkscape:version="0.92.4 5da689c313, 2019-01-14">
  <metadata
     id="metadata98">
    <rdf:RDF>
      <cc:Work
         rdf:about="">
        <dc:format>image/svg+xml</dc:format>
        <dc:type
           rdf:resource="http://purl.org/dc/dcmitype/StillImage" />
      </cc:Work>
    </rdf:RDF>
  </metadata>
  <sodipodi:namedview
     pagecolor="#ffffff"
     bordercolor="#666666"
     borderopacity="1"
     objecttolerance="10"
     gridtolerance="10"
     guidetolerance="10"
     inkscape:pageopacity="0"
     inkscape:pageshadow="2"
     inkscape:window-width="471"
     inkscape:window-height="442"
     id="namedview96"
     showgrid="false"
     inkscape:zoom="0.542"
     inkscape:cx="250"
     inkscape:cy="96.006124"
     inkscape:window-x="0"
     inkscape:window-y="0"
     inkscape:window-maximized="0"
     inkscape:current-layer="svg94" />
  <defs
     id="defs8">
    <clipPath
       id="a">
      <path
         d="M 0,257.87 H 431.621 V 0 H 0 Z"
         id="path2"
         inkscape:connector-curvature="0" />
    </clipPath>
    <clipPath
       id="b">
      <path
         d="M 0,153.13 H 182.08 V 0 H 0 Z"
         id="path5"
         inkscape:connector-curvature="0" />
    </clipPath>
  </defs>
  <g
     clip-path="url(#a)"
     transform="matrix(0.74460873,0,0,-0.74460873,0,192.01225)"
     id="g58">
    <path
       d="M 431.621,52.35 V 32.08 c 0,0 -1.459,-10.79 -6.585,-15.92 -5.117,-5.12 -18.148,-7.41 -18.148,-7.41 L 354.085,4.41 260.819,0 H 171.551 L 97.103,3.16 28.15,8.33 C 28.15,8.33 0,9.5 0,31.16 v 20.98 c 16.968,-1.87 59.619,-5.83 115.06,-5.7 1.03,-0.29 1.859,-0.28 1.859,-0.28 l 62.287,-1 h 73.289 c 0,0 54.123,1.09 61.867,1.09 1.06,0 1.949,0.14 2.708,0.4 57.311,-0.14 99.461,3.98 114.551,5.7"
       id="path10"
       inkscape:connector-curvature="0"
       style="fill:#39454d" />
    <path
       d="M 431.621,249 V 52.35 c -15.09,-1.72 -57.24,-5.84 -114.551,-5.7 -0.759,-0.26 -1.648,-0.4 -2.708,-0.4 -7.744,0 -61.867,-1.09 -61.867,-1.09 h -73.289 l -62.287,1 c 0,0 -0.829,-0.01 -1.859,0.28 C 59.619,46.31 16.968,50.27 0,52.14 v 197.52 c 0,0 0.33,5 11.822,6.17 11.492,1.17 24.823,2.04 24.823,2.04 h 358.411 c 0,0 25.233,-2.12 29.57,-3.37 4.327,-1.25 6.995,-1.42 6.995,-5.5"
       id="path12"
       inkscape:connector-curvature="0"
       style="fill:#495a67" />
    <path
       d="m 317.1405,46.65 c -0.76,-0.26 -1.65,-0.4 -2.71,-0.4 -7.75,0 -61.91,-1.09 -61.91,-1.09 h -73.34 l -62.33,1 c 0,0 -0.83,-0.01 -1.86,0.28 -1.68,0.47 -3.89,1.73 -3.89,5.14 V 243.5 c 0,0 -0.13,5.52 4.58,5.52 4.71,0 100.17,-0.02 100.17,-0.02 h 100.5 c 0,0 4.83,0.58 4.83,-4.71 V 54 c 0,0 0.75,-5.78 -4.04,-7.35"
       id="path14"
       inkscape:connector-curvature="0"
       style="fill:#16181d" />
    <path
       d="m 126.476,235.22 h 178.5 V 66.892 h -178.5 z"
       id="path16"
       inkscape:connector-curvature="0"
       style="fill:#565e64" />
    <path
       d="m 89.3505,227.41 c 0,-4.32 -3.5,-7.82 -7.81,-7.82 -3.86,0 -7.06,2.79 -7.69,6.47 l -16.52,0.02 c -0.05,-0.57 -0.14,-1.17 -0.25,-1.82 -0.41,-2.42 -2.5,-4.46 -4.26,-4.46 h -26.42 c 0,0 -3.86,-0.28 -5.03,5.04 -0.55,2.52 0.01,5.75 0.01,5.75 0,0 1.16,3.96 5.02,4.43 h 25.4 c 0,0 4.32,0 5.38,-5.53 0.06,-0.26 0.11,-0.51 0.14,-0.78 l 16.51,-0.03 c 0.61,3.71 3.82,6.54 7.71,6.54 4.31,0 7.81,-3.5 7.81,-7.81"
       id="path18"
       inkscape:connector-curvature="0"
       style="fill:#656971" />
    <path
       d="M 28.663,232.4966 H 49.6 c 0,0 3.563,0 4.436,-3.696 0.314,-1.036 0.21,-2.111 -0.081,-3.499 -0.339,-1.615 -2.063,-2.984 -3.511,-2.982 H 28.663 c 0,0 -3.188,-0.186 -4.146,3.373 -0.453,1.684 0.004,3.844 0.004,3.844 0,0 0.954,2.647 4.142,2.96"
       id="path20"
       inkscape:connector-curvature="0"
       style="fill:#404044" />
    <path
       d="m 75.788,227.4072 c 0,3.176 2.574,5.75 5.75,5.75 3.176,0 5.75,-2.574 5.75,-5.75 0,-3.176 -2.574,-5.75 -5.75,-5.75 -3.176,0 -5.75,2.574 -5.75,5.75"
       id="path22"
       inkscape:connector-curvature="0"
       style="fill:#eb223b" />
    <path
       d="m 340.3505,143.33 c 0,9.527 7.723,17.25 17.25,17.25 9.527,0 17.25,-7.723 17.25,-17.25 0,-9.527 -7.723,-17.25 -17.25,-17.25 -9.527,0 -17.25,7.723 -17.25,17.25 m 43.375,31.875 c 0,9.389 7.611,17 17,17 9.389,0 17,-7.611 17,-17 0,-9.389 -7.611,-17 -17,-17 -9.389,0 -17,7.611 -17,17"
       id="path24"
       inkscape:connector-curvature="0"
       style="fill:#263246" />
    <path
       d="m 403.2305,40.45 c -2.08,0 -3.76,-1.67 -3.76,-3.74 0,-2.08 1.68,-3.76 3.76,-3.76 2.07,0 3.74,1.68 3.74,3.76 0,2.07 -1.67,3.74 -3.74,3.74 m -0.005,24.505 c 2.071,0 3.75,1.679 3.75,3.75 0,2.071 -1.679,3.75 -3.75,3.75 -2.071,0 -3.75,-1.679 -3.75,-3.75 0,-2.071 1.679,-3.75 3.75,-3.75 m 0,32.25 c 2.071,0 3.75,1.679 3.75,3.75 0,2.071 -1.679,3.75 -3.75,3.75 -2.071,0 -3.75,-1.679 -3.75,-3.75 0,-2.071 1.679,-3.75 3.75,-3.75 M 375.8505,38.45 c -2.07,0 -3.75,-1.67 -3.75,-3.74 0,-2.08 1.68,-3.76 3.75,-3.76 2.07,0 3.75,1.68 3.75,3.76 0,2.07 -1.68,3.74 -3.75,3.74 m 0,24.505 c 2.071,0 3.75,1.679 3.75,3.75 0,2.071 -1.679,3.75 -3.75,3.75 -2.071,0 -3.75,-1.679 -3.75,-3.75 0,-2.071 1.679,-3.75 3.75,-3.75 m 0,32.25 c 2.071,0 3.75,1.679 3.75,3.75 0,2.071 -1.679,3.75 -3.75,3.75 -2.071,0 -3.75,-1.679 -3.75,-3.75 0,-2.071 1.679,-3.75 3.75,-3.75 m -27.25,-59.495 c -2.07,0 -3.75,-1.68 -3.75,-3.76 0,-2.07 1.68,-3.74 3.75,-3.74 2.07,0 3.75,1.67 3.75,3.74 0,2.08 -1.68,3.76 -3.75,3.76 m 0,24.495 c 2.071,0 3.75,1.679 3.75,3.75 0,2.071 -1.679,3.75 -3.75,3.75 -2.071,0 -3.75,-1.679 -3.75,-3.75 0,-2.071 1.679,-3.75 3.75,-3.75 m -3.75,36 c 0,2.071 1.679,3.75 3.75,3.75 2.071,0 3.75,-1.679 3.75,-3.75 0,-2.071 -1.679,-3.75 -3.75,-3.75 -2.071,0 -3.75,1.679 -3.75,3.75"
       id="path26"
       inkscape:connector-curvature="0"
       style="fill:#666a6e" />
    <path
       d="m 80.663,55.955 c 1.208,0 2.188,0.979 2.188,2.188 0,1.208 -0.98,2.187 -2.188,2.187 -1.208,0 -2.187,-0.979 -2.187,-2.187 0,-1.209 0.979,-2.188 2.187,-2.188 m 0,7.437 c 1.208,0 2.188,0.98 2.188,2.188 0,1.208 -0.98,2.188 -2.188,2.188 -1.208,0 -2.187,-0.98 -2.187,-2.188 0,-1.208 0.979,-2.188 2.187,-2.188 m 0,7.438 c 1.208,0 2.188,0.979 2.188,2.187 0,1.209 -0.98,2.188 -2.188,2.188 -1.208,0 -2.187,-0.979 -2.187,-2.188 0,-1.208 0.979,-2.187 2.187,-2.187 m 0,7.562 c 1.208,0 2.188,0.98 2.188,2.188 0,1.208 -0.98,2.187 -2.188,2.187 -1.208,0 -2.187,-0.979 -2.187,-2.187 0,-1.208 0.979,-2.188 2.187,-2.188 M 72.226,55.955 c 1.208,0 2.187,0.979 2.187,2.188 0,1.208 -0.979,2.187 -2.187,2.187 -1.209,0 -2.188,-0.979 -2.188,-2.187 0,-1.209 0.979,-2.188 2.188,-2.188 m 0,7.437 c 1.208,0 2.187,0.98 2.187,2.188 0,1.208 -0.979,2.188 -2.187,2.188 -1.209,0 -2.188,-0.98 -2.188,-2.188 0,-1.208 0.979,-2.188 2.188,-2.188 m 0,7.438 c 1.208,0 2.187,0.979 2.187,2.187 0,1.209 -0.979,2.188 -2.187,2.188 -1.209,0 -2.188,-0.979 -2.188,-2.188 0,-1.208 0.979,-2.187 2.188,-2.187 m 0,7.562 c 1.208,0 2.187,0.98 2.187,2.188 0,1.208 -0.979,2.187 -2.187,2.187 -1.209,0 -2.188,-0.979 -2.188,-2.187 0,-1.208 0.979,-2.188 2.188,-2.188 m -8.25,-22.437 c 1.208,0 2.187,0.979 2.187,2.188 0,1.208 -0.979,2.187 -2.187,2.187 -1.209,0 -2.188,-0.979 -2.188,-2.187 0,-1.209 0.979,-2.188 2.188,-2.188 m 0,7.437 c 1.208,0 2.187,0.98 2.187,2.188 0,1.208 -0.979,2.188 -2.187,2.188 -1.209,0 -2.188,-0.98 -2.188,-2.188 0,-1.208 0.979,-2.188 2.188,-2.188 m 0,7.438 c 1.208,0 2.187,0.979 2.187,2.187 0,1.209 -0.979,2.188 -2.187,2.188 -1.209,0 -2.188,-0.979 -2.188,-2.188 0,-1.208 0.979,-2.187 2.188,-2.187 m 0,7.562 c 1.208,0 2.187,0.98 2.187,2.188 0,1.208 -0.979,2.187 -2.187,2.187 -1.209,0 -2.188,-0.979 -2.188,-2.187 0,-1.208 0.979,-2.188 2.188,-2.188 m -8.25,-22.437 c 1.208,0 2.187,0.979 2.187,2.188 0,1.208 -0.979,2.187 -2.187,2.187 -1.209,0 -2.188,-0.979 -2.188,-2.187 0,-1.209 0.979,-2.188 2.188,-2.188 m 0,7.437 c 1.208,0 2.187,0.98 2.187,2.188 0,1.208 -0.979,2.188 -2.187,2.188 -1.209,0 -2.188,-0.98 -2.188,-2.188 0,-1.208 0.979,-2.188 2.188,-2.188 m 0,7.438 c 1.208,0 2.187,0.979 2.187,2.187 0,1.209 -0.979,2.188 -2.187,2.188 -1.209,0 -2.188,-0.979 -2.188,-2.188 0,-1.208 0.979,-2.187 2.188,-2.187 m 0,7.562 c 1.208,0 2.187,0.98 2.187,2.188 0,1.208 -0.979,2.187 -2.187,2.187 -1.209,0 -2.188,-0.979 -2.188,-2.187 0,-1.208 0.979,-2.188 2.188,-2.188 M 47.6,55.955 c 1.209,0 2.188,0.979 2.188,2.188 0,1.208 -0.979,2.187 -2.188,2.187 -1.208,0 -2.187,-0.979 -2.187,-2.187 0,-1.209 0.979,-2.188 2.187,-2.188 m 0,7.437 c 1.209,0 2.188,0.98 2.188,2.188 0,1.208 -0.979,2.188 -2.188,2.188 -1.208,0 -2.187,-0.98 -2.187,-2.188 0,-1.208 0.979,-2.188 2.187,-2.188 m 0,7.438 c 1.209,0 2.188,0.979 2.188,2.187 0,1.209 -0.979,2.188 -2.188,2.188 -1.208,0 -2.187,-0.979 -2.187,-2.188 0,-1.208 0.979,-2.187 2.187,-2.187 m -2.187,9.75 c 0,1.208 0.979,2.187 2.187,2.187 1.209,0 2.188,-0.979 2.188,-2.187 0,-1.208 -0.979,-2.188 -2.188,-2.188 -1.208,0 -2.187,0.98 -2.187,2.188"
       id="path28"
       inkscape:connector-curvature="0"
       style="fill:#16181d" />
    <path
       d="m 394.9339,227.2466 c 0,5.201 4.216,9.417 9.417,9.417 5.2,0 9.416,-4.216 9.416,-9.417 0,-5.201 -4.216,-9.417 -9.416,-9.417 -5.201,0 -9.417,4.216 -9.417,9.417"
       id="path30"
       inkscape:connector-curvature="0"
       style="fill:#656971" />
    <path
       d="m 397.7672,227.2466 c 0,3.636 2.947,6.583 6.583,6.583 3.636,0 6.584,-2.947 6.584,-6.583 0,-3.636 -2.948,-6.583 -6.584,-6.583 -3.636,0 -6.583,2.947 -6.583,6.583 M 29.6405,162.33 h -6.9 c -0.09,-1.11 -0.14,-2.24 -0.14,-3.38 0,-1.03 0.04,-2.05 0.11,-3.06 h 6.9 c -0.09,1.01 -0.14,2.03 -0.14,3.06 0,1.14 0.06,2.27 0.17,3.38 m 9.11,-26.98 -4.91,-4.8 c 0.81,-0.86 1.65,-1.68 2.52,-2.46 l 4.8,4.93 c -0.83,0.74 -1.64,1.52 -2.41,2.33 m 25.35,-11.02 c -1.14,0 -2.26,0.05 -3.37,0.16 v -6.9 c 1.11,-0.09 2.23,-0.14 3.37,-0.14 1.03,0 2.05,0.04 3.06,0.12 v 6.89 c -1.01,-0.08 -2.03,-0.13 -3.06,-0.13 m 25.94,11.67 c -0.75,-0.83 -1.52,-1.62 -2.33,-2.39 l 4.79,-4.91 c 0.86,0.8 1.68,1.64 2.47,2.52 z m 15.45,26.02 h -6.9 c 0.09,-1.01 0.14,-2.03 0.14,-3.07 0,-1.14 -0.05,-2.26 -0.16,-3.37 h 6.89 c 0.09,1.11 0.14,2.23 0.14,3.37 0,1.03 -0.04,2.06 -0.11,3.07 m -13.65,27.8 -4.8,-4.93 c 0.83,-0.74 1.64,-1.52 2.41,-2.33 l 4.9,4.79 c -0.8,0.86 -1.64,1.68 -2.51,2.47 m -27.74,10.63 c -1.03,0 -2.05,-0.04 -3.06,-0.11 v -6.89 c 1.01,0.08 2.03,0.13 3.06,0.13 1.14,0 2.26,-0.05 3.37,-0.16 v 6.89 c -1.11,0.09 -2.23,0.14 -3.37,0.14 m -23.61,-16.15 c -0.81,-0.77 -1.58,-1.56 -2.32,-2.4 l -4.94,4.79 c 0.79,0.88 1.62,1.72 2.47,2.52 z"
       id="path32"
       inkscape:connector-curvature="0"
       style="fill:#404044" />
    <path
       d="m 98.5905,162.02 h 6.9 c -0.72,9.78 -4.82,18.61 -11.14,25.33 l -4.9,-4.79 c 5.1,-5.49 8.45,-12.63 9.14,-20.54 m -8.55,-26.02 4.93,-4.78 c 5.9,6.57 9.74,15.02 10.49,24.36 h -6.89 c -0.73,-7.48 -3.83,-14.26 -8.53,-19.58 m -22.88,-11.54 v -6.89 c 9.78,0.71 18.61,4.81 25.34,11.13 l -4.79,4.91 c -5.49,-5.1 -12.64,-8.45 -20.55,-9.15 m 24.68,65.36 c -6.57,5.91 -15.03,9.74 -24.37,10.49 v -6.89 c 7.47,-0.72 14.25,-3.82 19.57,-8.53 z m -30.8,3.63 v 6.89 c -9.77,-0.71 -18.6,-4.81 -25.34,-11.13 l 4.79,-4.91 c 5.49,5.11 12.64,8.46 20.55,9.15 m -24.68,-65.36 c 6.57,-5.91 15.03,-9.75 24.37,-10.5 v 6.9 c -7.47,0.72 -14.25,3.82 -19.57,8.53 z m -6.75,27.8 h -6.9 c 0.72,-9.78 4.82,-18.61 11.13,-25.34 l 4.91,4.8 c -5.1,5.48 -8.45,12.63 -9.14,20.54 m 0.03,6.44 h -6.9 c 0.75,9.34 4.59,17.8 10.49,24.36 l 4.94,-4.79 c -4.71,-5.32 -7.81,-12.1 -8.53,-19.57"
       id="path34"
       inkscape:connector-curvature="0"
       style="fill:#656971" />
    <path
       d="m 97.1906,155.72 c -0.7,-7.19 -3.68,-13.69 -8.19,-18.8 -0.72,-0.8 -1.46,-1.56 -2.24,-2.3 -5.27,-4.89 -12.13,-8.11 -19.72,-8.78 -0.97,-0.08 -1.95,-0.12 -2.94,-0.12 -1.09,0 -2.17,0.04 -3.24,0.15 -7.17,0.69 -13.67,3.67 -18.78,8.19 -0.8,0.71 -1.58,1.46 -2.31,2.24 -4.9,5.26 -8.12,12.12 -8.78,19.71 -0.09,0.97 -0.13,1.95 -0.13,2.94 0,1.09 0.05,2.18 0.16,3.24 0.69,7.18 3.67,13.68 8.19,18.79 0.71,0.81 1.45,1.57 2.23,2.31 5.27,4.9 12.13,8.12 19.72,8.78 0.97,0.08 1.95,0.12 2.94,0.12 1.09,0 2.17,-0.04 3.24,-0.15 7.17,-0.69 13.67,-3.67 18.78,-8.19 0.8,-0.71 1.58,-1.46 2.31,-2.24 4.9,-5.27 8.12,-12.12 8.78,-19.71 0.09,-0.97 0.13,-1.95 0.13,-2.95 0,-1.09 -0.04,-2.17 -0.15,-3.23 m 1.4,6.3 c -0.69,7.91 -4.04,15.05 -9.14,20.54 -0.77,0.81 -1.58,1.59 -2.41,2.33 -5.32,4.71 -12.1,7.81 -19.57,8.53 -1.11,0.11 -2.23,0.16 -3.37,0.16 -1.03,0 -2.05,-0.05 -3.06,-0.13 -7.91,-0.69 -15.06,-4.04 -20.55,-9.15 -0.81,-0.77 -1.58,-1.56 -2.32,-2.4 -4.71,-5.32 -7.81,-12.1 -8.53,-19.57 -0.11,-1.11 -0.17,-2.24 -0.17,-3.38 0,-1.03 0.05,-2.05 0.14,-3.06 0.69,-7.91 4.04,-15.06 9.14,-20.54 0.77,-0.81 1.58,-1.59 2.41,-2.33 5.32,-4.71 12.1,-7.81 19.57,-8.53 1.11,-0.11 2.23,-0.16 3.37,-0.16 1.03,0 2.05,0.05 3.06,0.13 7.91,0.7 15.06,4.05 20.55,9.15 0.81,0.77 1.58,1.56 2.33,2.39 4.7,5.32 7.8,12.1 8.53,19.58 0.11,1.11 0.16,2.23 0.16,3.37 0,1.04 -0.05,2.06 -0.14,3.07"
       id="path36"
       inkscape:connector-curvature="0"
       style="fill:#83898b" />
    <path
       d="m 97.3405,158.95 c 0,-1.09 -0.04,-2.17 -0.15,-3.23 -0.7,-7.19 -3.68,-13.69 -8.19,-18.8 -0.72,-0.8 -1.46,-1.56 -2.24,-2.3 -5.27,-4.89 -12.13,-8.11 -19.72,-8.78 -0.97,-0.08 -1.95,-0.12 -2.94,-0.12 -1.09,0 -2.17,0.04 -3.24,0.15 -7.17,0.69 -13.67,3.67 -18.78,8.19 -0.8,0.71 -1.58,1.46 -2.31,2.24 -4.9,5.26 -8.12,12.12 -8.78,19.71 -0.09,0.97 -0.13,1.95 -0.13,2.94 0,1.09 0.05,2.18 0.16,3.24 0.69,7.18 3.67,13.68 8.19,18.79 0.71,0.81 1.45,1.57 2.23,2.31 5.27,4.9 12.13,8.12 19.72,8.78 0.97,0.08 1.95,0.12 2.94,0.12 1.09,0 2.17,-0.04 3.24,-0.15 7.17,-0.69 13.67,-3.67 18.78,-8.19 0.8,-0.71 1.58,-1.46 2.31,-2.24 4.9,-5.27 8.12,-12.12 8.78,-19.71 0.09,-0.97 0.13,-1.95 0.13,-2.95"
       id="path38"
       inkscape:connector-curvature="0"
       style="fill:#3b4952" />
    <path
       d="m 42.6839,158.955 c 0,11.828 9.589,21.417 21.417,21.417 11.828,0 21.416,-9.589 21.416,-21.417 0,-11.828 -9.588,-21.417 -21.416,-21.417 -11.828,0 -21.417,9.589 -21.417,21.417"
       id="path40"
       inkscape:connector-curvature="0"
       style="fill:#404044" />
    <path
       d="m 46.663,158.955 c 0,9.63 7.807,17.437 17.437,17.437 9.631,0 17.438,-7.807 17.438,-17.437 0,-9.63 -7.807,-17.437 -17.438,-17.437 -9.63,0 -17.437,7.807 -17.437,17.437"
       id="path42"
       inkscape:connector-curvature="0"
       style="fill:#252528" />
    <path
       d="m 72.8505,158.955 c 0,4.832 -3.918,8.75 -8.75,8.75 -4.833,0 -8.75,-3.918 -8.75,-8.75 0,-4.832 3.917,-8.75 8.75,-8.75 4.832,0 8.75,3.918 8.75,8.75"
       id="path44"
       inkscape:connector-curvature="0"
       style="fill:#2a2b2d" />
    <path
       d="m 206.8905,19.62 c -0.83,1.63 -1.46,2.04 -2.16,2.04 h -11.67 c 0,0 -0.51,0.13 -0.81,0.63 -0.18,0.3 -0.15,1.25 0.18,1.66 0.3,0.37 0.8,0.46 1.09,0.46 h 13.58 v 3.48 h -15.71 c -0.51,0 -1.01,-0.17 -1.42,-0.49 -0.59,-0.47 -1.39,-1.24 -1.62,-2.07 -0.38,-1.38 -0.5,-4.31 0,-5.31 0.5,-1 2,-1.75 2.5,-1.75 h 11.25 c 0,0 0.58,-0.06 0.83,-0.56 0.25,-0.5 0.13,-1.38 -0.25,-1.63 -0.37,-0.25 -0.54,-0.21 -1,-0.21 h -13.66 v -3.13 h 16.87 c 0,0 2,0.26 2.21,1.67 0.21,1.42 0.63,3.59 -0.21,5.21 m 15.27,8.27 v -8.81 l -8.78,8.78 h -4.47 V 12.77 h 4 v 9.18 l 9.22,-9.21 h 4.1 v 15.15 z m 23.31,-15.12 h -5.31 l -4.81,4.81 -3.28,-3.28 v -1.53 h -4.41 v 15.12 h 4.57 v -7.68 l 7.4,7.4 h 5.66 l -7.33,-7.33 z"
       id="path46"
       inkscape:connector-curvature="0"
       style="fill:#636875" />
    <path
       d="m 23.6694,243.5096 c 0.212,-0.045 0.479,-0.063 0.803,-0.063 1.171,0 1.885,0.459 1.885,1.296 0,0.802 -0.703,1.189 -1.773,1.189 -0.424,0 -0.748,-0.027 -0.915,-0.063 z m -0.971,2.926 c 0.469,0.063 1.082,0.117 1.863,0.117 0.96,0 1.662,-0.18 2.108,-0.504 0.413,-0.288 0.658,-0.729 0.658,-1.269 0,-0.55 -0.2,-0.982 -0.58,-1.297 -0.513,-0.441 -1.349,-0.666 -2.297,-0.666 -0.29,0 -0.558,0.009 -0.781,0.054 v -2.431 h -0.971 z m 6.5227,-2.9977 c 0,-1.296 0.87,-2.458 2.398,-2.458 1.54,0 2.409,1.144 2.409,2.521 0,1.206 -0.781,2.467 -2.398,2.467 -1.606,0 -2.409,-1.198 -2.409,-2.53 m 5.833,0.099 c 0,-2.089 -1.572,-3.196 -3.491,-3.196 -1.985,0 -3.38,1.243 -3.38,3.079 0,1.926 1.484,3.187 3.492,3.187 2.052,0 3.379,-1.27 3.379,-3.07 m 2.4844,-3.0971 -1.907,6.068 h 1.026 l 0.892,-3.07 c 0.223,-0.756 0.424,-1.513 0.558,-2.098 h 0.022 c 0.123,0.603 0.357,1.324 0.614,2.107 l 1.003,3.061 h 1.016 l 0.914,-3.079 c 0.212,-0.72 0.413,-1.441 0.525,-2.08 h 0.022 c 0.156,0.667 0.368,1.341 0.602,2.098 l 0.993,3.061 h 0.992 l -2.13,-6.068 h -1.015 l -0.948,3.16 c -0.234,0.774 -0.39,1.368 -0.491,1.981 h -0.022 c -0.134,-0.603 -0.301,-1.198 -0.58,-1.981 l -1.071,-3.16 z m 12.0982,2.8447 h -2.922 v -2.188 h 3.256 v -0.657 h -4.227 v 6.068 h 4.06 v -0.657 h -3.089 v -1.918 h 2.922 z m 2.5629,0.3785 h 0.993 c 1.037,0 1.695,0.459 1.695,1.152 0,0.784 -0.703,1.125 -1.729,1.135 -0.468,0 -0.803,-0.037 -0.959,-0.073 z m -0.971,2.764 c 0.491,0.081 1.194,0.126 1.863,0.126 1.037,0 1.707,-0.153 2.175,-0.495 0.379,-0.27 0.591,-0.685 0.591,-1.153 0,-0.801 -0.624,-1.332 -1.416,-1.548 v -0.027 c 0.58,-0.162 0.925,-0.594 1.104,-1.225 0.245,-0.846 0.424,-1.431 0.58,-1.665 h -1.004 c -0.123,0.171 -0.29,0.693 -0.502,1.449 -0.223,0.837 -0.625,1.152 -1.505,1.18 h -0.915 v -2.629 h -0.971 z M 351.373,227.6029 c 0,-1.296 0.87,-2.458 2.398,-2.458 1.54,0 2.41,1.144 2.41,2.521 0,1.206 -0.782,2.467 -2.399,2.467 -1.605,0 -2.409,-1.198 -2.409,-2.53 m 5.834,0.099 c 0,-2.089 -1.573,-3.196 -3.491,-3.196 -1.986,0 -3.38,1.243 -3.38,3.079 0,1.926 1.483,3.187 3.491,3.187 2.053,0 3.38,-1.27 3.38,-3.07 m 2.2275,-0.0272 c 0.212,-0.045 0.479,-0.063 0.803,-0.063 1.171,0 1.885,0.459 1.885,1.296 0,0.802 -0.703,1.189 -1.774,1.189 -0.424,0 -0.747,-0.027 -0.914,-0.063 z m -0.971,2.926 c 0.469,0.063 1.082,0.117 1.863,0.117 0.96,0 1.662,-0.18 2.108,-0.504 0.413,-0.288 0.658,-0.729 0.658,-1.269 0,-0.55 -0.201,-0.982 -0.58,-1.297 -0.513,-0.441 -1.349,-0.666 -2.298,-0.666 -0.29,0 -0.557,0.009 -0.78,0.054 v -2.431 h -0.971 z m 7.3587,-0.594 h -2.286 v 0.666 h 5.565 v -0.666 h -2.298 v -5.402 h -0.981 z m 5.0838,-5.4017 h -0.971 v 6.068 h 0.971 z m 2.2853,2.9979 c 0,-1.296 0.87,-2.458 2.398,-2.458 1.54,0 2.41,1.144 2.41,2.521 0,1.206 -0.782,2.467 -2.399,2.467 -1.605,0 -2.409,-1.198 -2.409,-2.53 m 5.834,0.099 c 0,-2.089 -1.573,-3.196 -3.491,-3.196 -1.986,0 -3.38,1.243 -3.38,3.079 0,1.926 1.483,3.187 3.491,3.187 2.053,0 3.38,-1.27 3.38,-3.07 m 1.2569,-3.097 v 6.068 h 1.06 l 2.409,-3.07 c 0.557,-0.711 0.993,-1.351 1.349,-1.972 l 0.023,0.009 c -0.089,0.811 -0.112,1.549 -0.112,2.494 v 2.539 h 0.915 v -6.068 h -0.982 l -2.387,3.079 c -0.524,0.675 -1.026,1.368 -1.405,2.025 l -0.034,-0.008 c 0.057,-0.766 0.078,-1.495 0.078,-2.503 v -2.593 z m -21.5743,-51.5411 -1.227,2.91 c -0.278,0.66 -0.463,1.26 -0.65,1.845 h -0.037 c -0.186,-0.6 -0.39,-1.215 -0.631,-1.83 l -1.226,-2.925 z m -4.106,-1.02 -1.302,-3.18 h -1.672 l 4.256,10.11 h 1.951 l 4.275,-10.11 h -1.728 l -1.339,3.18 z m 43.4029,28.4976 c 0.315,-0.045 0.78,-0.06 1.356,-0.06 1.673,0 3.216,0.495 3.216,1.965 0,1.38 -1.468,1.95 -3.234,1.95 h -1.338 z m 0,4.845 h 1.468 c 1.71,0 2.714,0.72 2.714,1.695 0,1.185 -1.116,1.65 -2.751,1.65 -0.744,0 -1.171,-0.045 -1.431,-0.09 z m -1.617,4.14 c 0.706,0.12 1.821,0.21 2.955,0.21 1.617,0 2.658,-0.225 3.438,-0.735 0.651,-0.39 1.041,-0.99 1.041,-1.785 0,-0.975 -0.799,-1.83 -2.119,-2.22 v -0.03 c 1.19,-0.24 2.583,-1.035 2.583,-2.535 0,-0.87 -0.427,-1.53 -1.058,-2.025 -0.874,-0.645 -2.286,-0.945 -4.331,-0.945 -1.116,0 -1.97,0.06 -2.509,0.12 z"
       id="path48"
       inkscape:connector-curvature="0"
       style="fill:#231f20" />
    <path
       d="m 243.104,51.2493 c 0,0.732 -0.009,1.465 0.006,2.197 0.004,0.216 -0.067,0.261 -0.265,0.254 -0.403,-0.014 -0.807,0.006 -1.21,-0.008 -0.207,-0.008 -0.178,0.114 -0.185,0.242 -0.007,0.143 0.019,0.215 0.191,0.214 1.151,-0.007 2.302,-0.008 3.452,10e-4 0.195,0.001 0.177,-0.104 0.174,-0.226 -0.002,-0.117 0.033,-0.238 -0.169,-0.231 -0.425,0.014 -0.852,-0.004 -1.277,0.008 -0.172,0.004 -0.212,-0.056 -0.212,-0.219 0.006,-1.495 0.004,-2.989 0.002,-4.484 -10e-4,-0.075 0.046,-0.191 -0.049,-0.22 -0.133,-0.042 -0.284,-0.041 -0.418,0.001 -0.07,0.022 -0.039,0.12 -0.039,0.184 -0.002,0.763 -10e-4,1.525 -10e-4,2.287 m -1.8589,-2.2591 c -0.006,-0.157 -0.018,-0.237 -0.215,-0.236 -1.038,0.011 -2.078,0.01 -3.117,0.001 -0.182,-0.001 -0.224,0.055 -0.222,0.229 0.008,0.822 0.003,1.645 0.003,2.467 0,0.83 0.004,1.66 -0.002,2.489 -0.002,0.151 0.033,0.209 0.197,0.208 1.017,-0.007 2.033,-0.008 3.05,10e-4 0.192,10e-4 0.193,-0.089 0.197,-0.232 0.004,-0.155 -0.022,-0.228 -0.205,-0.225 -0.837,0.009 -1.674,0 -2.511,0.007 -0.173,0.002 -0.235,-0.04 -0.23,-0.224 0.012,-0.5 0.011,-1.001 0,-1.502 -0.004,-0.174 0.059,-0.212 0.22,-0.211 0.763,0.008 1.525,-0.002 2.288,0.009 0.181,0.002 0.227,-0.053 0.224,-0.228 -0.002,-0.166 -0.032,-0.233 -0.22,-0.23 -0.763,0.011 -1.525,-0.001 -2.288,0.008 -0.181,0.003 -0.227,-0.055 -0.224,-0.229 0.011,-0.553 0.011,-1.107 0,-1.66 -0.003,-0.176 0.046,-0.23 0.226,-0.228 0.867,0.009 1.734,0 2.601,0.008 0.172,10e-4 0.236,-0.04 0.228,-0.222 m -3.7713,-0.228 c -0.227,0 -0.41,-0.004 -0.592,10e-4 -0.106,0.003 -0.14,0.104 -0.192,0.173 -0.639,0.838 -1.28,1.674 -1.911,2.518 -0.112,0.151 -0.186,0.171 -0.323,0.032 -0.211,-0.211 -0.437,-0.408 -0.665,-0.6 -0.11,-0.092 -0.144,-0.193 -0.142,-0.331 0.006,-0.538 -0.007,-1.077 0.008,-1.614 0.005,-0.209 -0.114,-0.189 -0.241,-0.18 -0.117,0.008 -0.271,-0.069 -0.27,0.172 0.008,1.682 0.007,3.363 0.001,5.045 -0.001,0.223 0.14,0.164 0.254,0.164 0.112,-0.001 0.258,0.061 0.254,-0.163 -0.009,-0.792 -0.004,-1.585 -0.001,-2.377 0,-0.068 -0.045,-0.165 0.042,-0.199 0.068,-0.026 0.11,0.061 0.157,0.104 0.858,0.79 1.729,1.566 2.562,2.381 0.28,0.274 0.564,0.268 0.955,0.242 -0.503,-0.458 -0.961,-0.874 -1.419,-1.29 -0.277,-0.251 -0.547,-0.51 -0.833,-0.75 -0.139,-0.116 -0.126,-0.194 -0.022,-0.324 0.745,-0.927 1.482,-1.858 2.221,-2.789 0.045,-0.056 0.085,-0.116 0.157,-0.215 m -5.4185,1.4276 c -0.386,-1.012 -1.104,-1.52 -2.146,-1.52 -1.126,10e-4 -1.894,0.533 -2.242,1.61 -0.36,1.113 -0.288,2.177 0.45,3.146 0.828,1.087 3.167,1.26 3.883,-0.568 0.034,-0.086 0.115,-0.205 -0.047,-0.221 -0.133,-0.013 -0.301,-0.229 -0.411,0.041 -0.232,0.569 -0.588,1.014 -1.232,1.121 -0.737,0.123 -1.365,-0.08 -1.822,-0.694 -0.481,-0.646 -0.55,-1.39 -0.467,-2.16 0.052,-0.492 0.197,-0.952 0.553,-1.318 0.887,-0.917 2.348,-0.693 2.916,0.446 0.057,0.113 0.113,0.231 0.143,0.353 0.037,0.15 0.116,0.159 0.245,0.123 0.285,-0.078 0.286,-0.073 0.177,-0.359 m -6.2519,-0.2765 c -0.719,-1.119 -2.356,-1.145 -3.112,-0.05 -0.593,0.859 -0.585,2.358 0.016,3.213 0.74,1.053 2.384,1.019 3.096,-0.064 0.277,-0.421 0.403,-0.911 0.403,-1.561 0.014,-0.552 -0.102,-1.07 -0.403,-1.538 m 0.93,1.779 c -0.095,1.463 -0.86,2.368 -2.191,2.521 -1.327,0.152 -2.344,-0.515 -2.692,-1.802 -0.157,-0.58 -0.168,-1.171 -0.039,-1.755 0.2,-0.908 0.685,-1.606 1.614,-1.867 0.928,-0.26 1.818,-0.164 2.547,0.544 0.592,0.575 0.754,1.321 0.762,2.113 0,0.082 0.005,0.164 -0.001,0.246"
       id="path50"
       inkscape:connector-curvature="0"
       style="fill:#565759" />
    <path
       d="m 223.706,60.3109 c -0.054,0.082 -0.069,0.144 0.025,0.226 0.799,0.699 1.593,1.402 2.384,2.11 0.103,0.092 0.142,0.071 0.206,-0.035 0.235,-0.393 0.476,-0.782 0.721,-1.168 0.056,-0.09 0.05,-0.137 -0.044,-0.187 -0.097,-0.052 -0.186,-0.119 -0.278,-0.179 -0.782,-0.483 -1.565,-0.962 -2.342,-1.451 -0.127,-0.08 -0.182,-0.06 -0.255,0.06 -0.13,0.213 -0.277,0.417 -0.417,0.624 m -2.6605,5.4794 c 0.021,-0.003 0.043,-0.007 0.064,-0.01 0.036,-0.027 0.075,-0.031 0.117,-0.017 0.022,-0.004 0.043,-0.008 0.065,-0.012 0.056,-0.034 0.115,-0.035 0.177,-0.023 0.021,-0.003 0.042,-0.007 0.063,-0.01 0.036,-0.028 0.076,-0.03 0.118,-0.017 l 0.064,-0.012 c 0.046,-0.029 0.096,-0.03 0.147,-0.017 0.021,-0.004 0.043,-0.008 0.065,-0.012 0.06,-0.055 0.021,-0.112 0.001,-0.166 -0.07,-0.194 -0.142,-0.387 -0.213,-0.58 -0.32,-0.867 -0.64,-1.734 -0.959,-2.601 -0.028,-0.077 -0.047,-0.159 -0.161,-0.135 -0.231,0.05 -0.462,0.097 -0.693,0.143 -0.077,0.015 -0.094,0.053 -0.083,0.128 0.105,0.679 0.207,1.359 0.309,2.04 0.05,0.336 0.097,0.674 0.145,1.011 0.004,0.021 0.008,0.043 0.012,0.064 0.027,0.036 0.031,0.075 0.017,0.117 0.004,0.022 0.007,0.043 0.011,0.065 0.02,0.119 0.088,0.146 0.197,0.108 0.035,-0.012 0.076,-0.004 0.115,-0.005 0.021,-0.003 0.042,-0.006 0.064,-0.009 0.036,-0.025 0.075,-0.029 0.116,-0.014 0.032,-0.006 0.063,-0.011 0.095,-0.017 0.046,-0.03 0.095,-0.033 0.147,-0.019 m 1.0323,-4.0606 c -0.026,0.073 0.021,0.126 0.053,0.181 0.549,0.937 1.1,1.873 1.647,2.811 0.054,0.092 0.093,0.12 0.192,0.049 0.339,-0.244 0.684,-0.479 1.03,-0.712 0.081,-0.055 0.1,-0.095 0.028,-0.174 -0.097,-0.108 -0.183,-0.226 -0.274,-0.339 -0.04,-0.044 -0.082,-0.087 -0.121,-0.133 -0.567,-0.678 -1.135,-1.355 -1.699,-2.036 -0.069,-0.083 -0.123,-0.095 -0.213,-0.037 -0.212,0.135 -0.428,0.261 -0.643,0.39 m -5.6276,-6.0586 0.001,-0.01 c 0.01,-0.017 0.02,-0.033 0.029,-0.05 l 0.001,-0.011 c 0.01,-0.016 0.02,-0.033 0.03,-0.049 v -0.011 c 0.001,-0.033 0.009,-0.063 0.039,-0.083 0.007,-0.015 0.015,-0.03 0.022,-0.044 l -0.003,-0.011 0.011,-0.004 c 0.006,-0.013 0.013,-0.026 0.02,-0.039 0.001,-0.047 0.023,-0.084 0.061,-0.111 0.227,-0.459 0.45,-0.919 0.68,-1.376 0.802,-1.599 1.604,-3.197 2.414,-4.792 0.07,-0.139 0.063,-0.205 -0.091,-0.246 -0.057,-0.014 -0.108,-0.05 -0.162,-0.077 -0.015,-0.009 -0.031,-0.019 -0.047,-0.029 -0.013,-0.003 -0.026,-0.007 -0.04,-0.01 -0.222,-0.094 -0.444,-0.187 -0.666,-0.281 -0.186,-0.078 -0.187,-0.079 -0.275,0.102 -1.334,2.718 -2.667,5.436 -4.001,8.153 -0.281,0.573 -0.566,1.144 -0.85,1.716 -0.005,0.019 -0.008,0.039 -0.016,0.057 -0.126,0.264 -0.126,0.264 0.144,0.393 1.221,0.58 2.444,1.157 3.663,1.742 0.371,0.178 0.721,0.398 1.12,0.518 2.171,0.651 4.488,-0.714 4.795,-2.968 0.252,-1.848 -0.71,-3.027 -0.713,-3.063 -0.015,-0.012 -0.034,-0.022 -0.046,-0.038 -0.601,-0.777 -1.393,-1.29 -2.289,-1.664 -0.115,-0.048 -0.192,-0.032 -0.281,0.048 -0.161,0.144 -0.331,0.278 -0.497,0.415 -0.84,0.695 -1.679,1.39 -2.521,2.082 -0.087,0.071 -0.112,0.133 -0.071,0.243 0.129,0.337 0.249,0.679 0.367,1.021 0.129,0.374 0.281,0.741 0.387,1.123 0.005,0.009 0.208,0.55 0.208,0.55 0.011,0.009 0.022,0.018 0.033,0.026 0.592,0 2.335,0.018 2.614,0.015 0.06,-10e-4 0.122,0.011 0.165,-0.046 0,-0.031 0.001,-1.061 0,-1.306 -0.17,-0.006 -0.34,-0.018 -0.51,-0.019 -0.394,-0.003 -0.789,-0.001 -1.184,-0.001 -0.066,0 -0.132,0.008 -0.153,-0.082 -0.037,-0.155 -0.079,-0.309 -0.118,-0.463 -0.02,-0.017 -0.151,-0.524 -0.191,-0.632 -0.036,-0.097 -0.008,-0.156 0.075,-0.214 0.491,-0.342 0.977,-0.69 1.465,-1.034 0.344,-0.243 0.349,-0.247 0.663,0.027 0.31,0.272 0.959,1.195 0.956,1.201 v 10e-4 c 0.02,0.028 0.043,0.054 0.058,0.085 0.423,0.854 0.298,1.668 -0.192,2.449 -0.421,0.673 -1.039,1.003 -1.83,1.001 -0.563,-0.002 -1.093,-0.152 -1.593,-0.406 -0.849,-0.428 -1.697,-0.857 -2.54,-1.295 -0.405,-0.21 -0.352,-0.09 -0.156,-0.512 0.004,-0.009 0.013,-0.014 0.02,-0.022 z"
       id="path52"
       inkscape:connector-curvature="0"
       style="fill:#df2025" />
    <path
       d="m 213.4409,49.7814 c -0.756,-0.985 -2.273,-0.958 -2.996,0.049 -0.625,0.871 -0.598,2.413 0.018,3.29 0.686,0.975 2.602,1.062 3.238,-0.406 0.176,-0.406 0.244,-0.83 0.241,-1.268 0.001,-0.606 -0.125,-1.175 -0.501,-1.665 m 1.019,1.978 c -0.09,1.289 -0.821,2.327 -2.186,2.459 -1.187,0.113 -2.202,-0.379 -2.636,-1.613 -0.13,-0.371 -0.178,-0.756 -0.161,-1.148 0,-0.127 -0.009,-0.255 0.002,-0.381 0.101,-1.196 0.804,-2.252 2.159,-2.389 1.276,-0.128 2.32,0.449 2.697,1.739 0.127,0.437 0.157,0.884 0.125,1.333 m -5.1304,-2.7737 c -0.003,-0.171 -0.039,-0.232 -0.224,-0.23 -1.039,0.009 -2.079,0.008 -3.118,0 -0.17,-10e-4 -0.215,0.046 -0.213,0.213 0.008,0.83 0.003,1.66 0.003,2.491 0,0.822 0.004,1.645 -0.002,2.467 -0.002,0.154 0.021,0.224 0.203,0.223 1.01,-0.01 2.02,-0.01 3.029,0 0.185,10e-4 0.202,-0.073 0.204,-0.224 0.001,-0.162 -0.022,-0.237 -0.216,-0.235 -0.83,0.012 -1.66,10e-4 -2.491,0.009 -0.171,0.002 -0.234,-0.035 -0.229,-0.221 0.014,-0.508 0.01,-1.017 0.002,-1.525 -0.002,-0.148 0.043,-0.192 0.191,-0.191 0.77,0.007 1.54,-0.004 2.31,0.009 0.198,0.003 0.212,-0.081 0.214,-0.238 0.003,-0.158 -0.029,-0.223 -0.208,-0.22 -0.755,0.01 -1.511,-10e-4 -2.266,0.008 -0.178,0.002 -0.248,-0.034 -0.243,-0.23 0.014,-0.553 0.012,-1.107 0.001,-1.66 -0.004,-0.175 0.04,-0.23 0.223,-0.228 0.867,0.01 1.735,0 2.602,0.009 0.179,0.001 0.23,-0.049 0.228,-0.227 m -4.1972,0.6274 c 0,-0.092 -0.004,-0.172 -0.095,-0.233 -0.998,-0.674 -2.076,-0.941 -3.231,-0.517 -0.989,0.364 -1.518,1.124 -1.6,2.179 -0.038,0.495 -0.01,0.989 0.147,1.464 0.433,1.316 1.564,1.834 2.858,1.709 0.851,-0.083 1.483,-0.474 1.784,-1.311 0.034,-0.094 0.076,-0.207 -0.079,-0.214 -0.132,-0.006 -0.295,-0.23 -0.397,0.018 -0.33,0.812 -0.943,1.158 -1.799,1.123 -0.824,-0.035 -1.417,-0.422 -1.768,-1.167 -0.443,-0.94 -0.276,-2.29 0.356,-2.959 0.612,-0.648 1.373,-0.725 2.191,-0.563 0.364,0.072 0.693,0.23 1.003,0.431 0.099,0.063 0.141,0.139 0.138,0.258 -0.007,0.328 -0.009,0.658 0.001,0.986 0.004,0.152 -0.053,0.191 -0.196,0.189 -0.441,-0.007 -0.882,0.007 -1.323,-0.007 -0.189,-0.006 -0.201,0.08 -0.199,0.227 0.002,0.143 0.003,0.241 0.196,0.231 0.306,-0.017 0.613,-0.005 0.92,-0.005 0.299,0 0.598,-0.008 0.896,0.003 0.162,0.006 0.201,-0.052 0.199,-0.205 -0.007,-0.546 -0.003,-1.091 -0.002,-1.637 m -6.4691,0.3433 c -0.739,-1.206 -2.508,-1.212 -3.2,0.02 -0.547,0.973 -0.544,2.006 0.008,2.977 0.668,1.178 2.414,1.196 3.161,0.064 0.311,-0.473 0.417,-1.002 0.408,-1.577 0.013,-0.518 -0.095,-1.024 -0.377,-1.484 m 0.903,1.741 c -0.098,1.456 -0.853,2.353 -2.174,2.513 -1.334,0.162 -2.364,-0.51 -2.71,-1.804 -0.156,-0.581 -0.167,-1.171 -0.037,-1.755 0.202,-0.908 0.689,-1.606 1.618,-1.864 0.928,-0.257 1.818,-0.16 2.545,0.55 0.591,0.575 0.751,1.322 0.768,2.134 -0.002,0.062 -0.004,0.144 -0.01,0.226"
       id="path54"
       inkscape:connector-curvature="0"
       style="fill:#565759" />
    <path
       d="m 194.6482,48.979 c -0.003,-0.177 -0.051,-0.225 -0.228,-0.223 -1.032,0.008 -2.063,0.009 -3.094,-10e-4 -0.197,-0.002 -0.232,0.066 -0.23,0.244 0.008,0.822 0.003,1.644 0.003,2.466 0,0.822 0.005,1.644 -0.003,2.467 -0.002,0.163 0.037,0.218 0.21,0.217 1.009,-0.008 2.019,-0.011 3.027,10e-4 0.207,0.003 0.201,-0.092 0.208,-0.241 0.006,-0.161 -0.032,-0.219 -0.208,-0.217 -0.837,0.009 -1.674,-10e-4 -2.511,0.008 -0.179,0.002 -0.229,-0.052 -0.225,-0.227 0.011,-0.493 0.013,-0.986 -10e-4,-1.479 -0.005,-0.196 0.065,-0.234 0.244,-0.231 0.754,0.008 1.51,-0.004 2.265,0.009 0.193,0.003 0.213,-0.072 0.216,-0.233 0.004,-0.174 -0.042,-0.229 -0.223,-0.226 -0.763,0.011 -1.525,0 -2.287,0.009 -0.17,10e-4 -0.216,-0.05 -0.214,-0.216 0.01,-0.56 0.011,-1.121 -10e-4,-1.681 -0.004,-0.186 0.064,-0.222 0.232,-0.22 0.86,0.007 1.72,-0.002 2.579,0.007 0.184,0.003 0.244,-0.042 0.241,-0.233 m -4.1769,-0.0162 c 0,-0.149 -0.03,-0.203 -0.194,-0.21 -0.238,-0.01 -0.387,0.057 -0.528,0.268 -0.89,1.339 -1.798,2.666 -2.701,3.995 -0.054,0.079 -0.093,0.171 -0.177,0.224 -0.071,-0.03 -0.045,-0.088 -0.044,-0.137 0.009,-1.361 0.015,-2.721 0.033,-4.082 0.002,-0.198 -0.04,-0.266 -0.255,-0.271 -0.235,-0.005 -0.243,0.101 -0.242,0.279 0.004,1.616 10e-4,3.231 0.006,4.846 0,0.089 -0.072,0.249 0.08,0.258 0.161,0.009 0.356,0.1 0.488,-0.102 0.263,-0.4 0.536,-0.794 0.804,-1.19 0.697,-1.027 1.392,-2.055 2.09,-3.081 0.04,-0.058 0.061,-0.138 0.173,-0.163 0,0.385 0.003,0.761 -0.001,1.137 -0.009,1.069 -0.014,2.138 -0.037,3.207 -0.006,0.232 0.12,0.202 0.264,0.206 0.148,0.003 0.245,0.006 0.244,-0.204 -0.01,-1.66 -0.007,-3.32 -0.003,-4.98"
       id="path56"
       inkscape:connector-curvature="0"
       style="fill:#565759" />
  </g>
  <path
     d="m 351.57779,190.87642 2.78178,1.13575 v -26.6985 l -2.78178,-0.77363 z m 144.21934,-25.56267 -0.0165,26.6985 2.78178,-0.83947 v -26.6911 l -2.76532,0.83207 z"
     id="path60"
     inkscape:connector-curvature="0"
     style="fill:#2c2a2a" />
  <path
     d="m 354.3599,165.31375 v 26.6985 h 141.4206 l 0.0165,-26.6985 H 354.35994 Z m 141.41805,-0.77396 H 354.35982 V 83.473126 h 141.41813 z"
     id="path62"
     inkscape:connector-curvature="0"
     style="fill:#565759" />
  <path
     d="m 354.35982,83.473126 v 81.066664 l -2.78178,-0.85593 V 85.119146 Z m 141.42085,0 v 81.066664 l 2.78178,-0.85593 V 85.119146 Z"
     id="path64"
     inkscape:connector-curvature="0"
     style="fill:#2c2a2a" />
  <g
     clip-path="url(#b)"
     transform="matrix(0.82301186,0,0,-0.82301186,350.146,192.01193)"
     id="g86">
    <path
       d="m 79.2034,26.0675 h 25.982 c 0.74,0 1.143,-0.866 0.665,-1.432 L 93.3994,9.8635 c -0.577,-0.685 -1.627,-0.704 -2.228,-0.038 l -12.861,14.232 c -0.699,0.774 -0.15,2.01 0.893,2.01 m -13.9063,0 h -47.739 c -1.105,0 -2.001,-0.896 -2.001,-2 v -12.73 c 0,-1.104 0.896,-2 2.001,-2 h 47.687 c 1.104,0 2,0.896 2,2 v 12.782 c 0,1.076 -0.872,1.948 -1.948,1.948 m 51.9896,-1.3229 v -13.563 c 0,-1.018 0.826,-1.844 1.844,-1.844 h 48.249 c 0.961,0 1.74,0.779 1.74,1.74 v 12.896 c 0,1.157 -0.937,2.094 -2.093,2.094 h -48.417 c -0.731,0 -1.323,-0.592 -1.323,-1.323 M 182.08,135.13 l -1.74,-5.25 h -0.01 l -3.37,2 h -12.67 l 1.26,3.31 16.05,-0.06 z"
       id="path66"
       inkscape:connector-curvature="0"
       style="fill:#39393a" />
    <path
       d="M 165.18,137.82 H 16.53 v 2.12 h 148.65 z m -148.3,5.29 h 147.95 v -2.13 H 16.88 Z m 0.54,2.52 h 146.87 v -1.48 H 17.42 Z m 1.17,2.42 h 144.53 v -1.08 H 18.59 Z m 159.89,2.58 c -0.29,0.74 -1.16,1.33 -2,1.75 -1.04,0.5 -2.16,0.75 -3.3,0.75 H 8.42 c -1.14,0 -2.27,-0.25 -3.3,-0.75 -0.85,-0.42 -1.71,-1.01 -2,-1.75 C 2.49,149 0,135.13 0,135.13 l 13.54,0.05 2.99,0.01 h 149.02 l 16.53,-0.06 c 0,0 -2.97,13.87 -3.6,15.5"
       id="path68"
       inkscape:connector-curvature="0"
       style="fill:#565759" />
    <path
       d="m 17.787,122.213 h 146.5 V 43.046 h -146.5 z"
       id="path70"
       inkscape:connector-curvature="0"
       style="fill:#454547" />
    <path
       d="M 17.79,131.88 H 5.12 l -3.38,-2 -1.74,5.25 13.54,0.05 2.99,0.01 0.02,-0.06 z"
       id="path72"
       inkscape:connector-curvature="0"
       style="fill:#39393a" />
    <path
       d="m 164.287,126.755 h -146.5 v -2.125 h 146.5 z m 0,3.625 h -146.5 v -2.125 h 146.5 z"
       id="path74"
       inkscape:connector-curvature="0"
       style="fill:#696a6c" />
    <path
       d="m 165.55,135.19 -1.26,-3.31 H 17.79 l -1.24,3.25 -0.02,0.06 z"
       id="path76"
       inkscape:connector-curvature="0"
       style="fill:#454547" />
    <path
       d="m 1.74,34.42 v -1.04 l 3.38,-0.94 h 171.853 l 3.36,1.01 v 0.97 l -3.38,-1.04 H 5.12 Z"
       id="path78"
       inkscape:connector-curvature="0"
       style="fill:#161413" />
    <path
       d="M 165.18,137.82 H 16.53 v 2.12 h 148.65 z m -0.35,3.16 H 16.88 v 2.13 h 147.95 z m -0.54,3.17 H 17.42 v 1.48 h 146.87 z m -1.17,2.82 H 18.59 v 1.08 h 144.53 z"
       id="path80"
       inkscape:connector-curvature="0"
       style="fill:#696a6c" />
    <path
       d="m 49.6114,12.5732 h 3.807 v 4.864 l 5.729,-4.864 h 4.53 l -6.175,5.28 6.069,4.979 h -4.529 l -5.624,-4.547 v 4.547 h -3.807 z m -14.9124,0 h 3.807 v 6.133 l 6.893,-6.133 h 3.789 v 10.259 h -3.807 v -6.133 l -6.893,6.133 h -3.789 z m -0.6346,7.4032 v 2.856 h -11.105 c -1.933,0.033 -3.173,-1.468 -3.173,-3.279 0,-1.811 1.189,-3.315 3.173,-3.279 h 7.033 c 0.262,0 0.476,-0.189 0.476,-0.423 0,-0.233 -0.214,-0.423 -0.476,-0.423 h -10.1 v -2.855 h 11.105 c 1.933,-0.034 3.173,1.468 3.173,3.278 0,1.811 -1.189,3.315 -3.173,3.279 h -7.033 c -0.262,0 -0.476,0.189 -0.476,0.423 0,0.234 0.214,0.423 0.476,0.423 h 10.1 M 162.908,13.2206 c 0,0.529 -0.007,1.057 0.004,1.586 0.003,0.156 -0.048,0.189 -0.191,0.184 -0.291,-0.011 -0.583,0.004 -0.874,-0.006 -0.149,-0.006 -0.128,0.082 -0.133,0.175 -0.006,0.103 0.014,0.155 0.138,0.154 0.831,-0.005 1.661,-0.006 2.492,0 0.141,0.002 0.128,-0.074 0.126,-0.163 -0.002,-0.084 0.023,-0.171 -0.122,-0.167 -0.307,0.011 -0.615,-0.002 -0.922,0.006 -0.125,0.004 -0.154,-0.04 -0.153,-0.158 0.004,-1.079 0.003,-2.158 0.001,-3.237 0,-0.054 0.033,-0.138 -0.035,-0.159 -0.096,-0.03 -0.205,-0.029 -0.302,10e-4 -0.051,0.016 -0.028,0.087 -0.028,0.133 -0.001,0.55 -0.001,1.101 -0.001,1.651 m -1.342,-1.631 c -0.005,-0.113 -0.013,-0.171 -0.155,-0.17 -0.75,0.008 -1.5,0.007 -2.25,10e-4 -0.132,-10e-4 -0.162,0.039 -0.161,0.165 0.006,0.593 0.003,1.187 0.003,1.781 0,0.599 0.002,1.198 -0.002,1.797 -0.001,0.108 0.024,0.151 0.142,0.15 0.734,-0.005 1.468,-0.006 2.202,0 0.139,0.002 0.14,-0.064 0.142,-0.167 0.003,-0.112 -0.016,-0.164 -0.147,-0.163 -0.605,0.007 -1.209,0 -1.814,0.006 -0.124,0.001 -0.169,-0.029 -0.166,-0.162 0.009,-0.361 0.009,-0.723 10e-4,-1.084 -0.003,-0.126 0.042,-0.153 0.158,-0.152 0.551,0.005 1.101,-0.002 1.652,0.005 0.131,0.002 0.164,-0.037 0.162,-0.164 -0.002,-0.12 -0.023,-0.168 -0.159,-0.166 -0.551,0.008 -1.101,-0.001 -1.652,0.006 -0.131,0.002 -0.164,-0.04 -0.161,-0.166 0.007,-0.399 0.007,-0.798 0,-1.198 -0.003,-0.127 0.033,-0.166 0.162,-0.164 0.626,0.006 1.252,-10e-4 1.878,0.005 0.125,0.001 0.17,-0.029 0.165,-0.16 m -2.7227,-0.1646 c -0.164,0 -0.296,-0.003 -0.427,10e-4 -0.077,0.002 -0.102,0.075 -0.139,0.124 -0.462,0.605 -0.924,1.21 -1.38,1.819 -0.081,0.108 -0.134,0.123 -0.233,0.023 -0.152,-0.153 -0.315,-0.295 -0.48,-0.434 -0.079,-0.066 -0.104,-0.139 -0.102,-0.239 0.004,-0.388 -0.005,-0.777 0.005,-1.165 0.004,-0.151 -0.082,-0.136 -0.174,-0.13 -0.084,0.006 -0.195,-0.05 -0.195,0.124 0.006,1.214 0.006,2.429 0.001,3.643 -0.001,0.161 0.101,0.118 0.183,0.118 0.081,0 0.186,0.044 0.184,-0.118 -0.007,-0.571 -0.003,-1.144 -0.001,-1.716 0,-0.049 -0.033,-0.119 0.03,-0.143 0.049,-0.019 0.08,0.044 0.114,0.075 0.619,0.57 1.248,1.13 1.849,1.719 0.203,0.198 0.408,0.193 0.69,0.174 -0.363,-0.33 -0.694,-0.631 -1.025,-0.931 -0.199,-0.181 -0.395,-0.368 -0.601,-0.541 -0.1,-0.084 -0.091,-0.141 -0.016,-0.235 0.538,-0.668 1.07,-1.341 1.604,-2.013 0.032,-0.04 0.061,-0.084 0.113,-0.155 m -3.912,1.0306 c -0.279,-0.731 -0.797,-1.098 -1.549,-1.097 -0.813,0 -1.368,0.384 -1.619,1.162 -0.259,0.803 -0.208,1.572 0.325,2.271 0.598,0.785 2.286,0.91 2.803,-0.41 0.025,-0.062 0.083,-0.148 -0.034,-0.16 -0.095,-0.009 -0.217,-0.165 -0.296,0.03 -0.168,0.411 -0.425,0.732 -0.89,0.81 -0.532,0.089 -0.985,-0.058 -1.315,-0.502 -0.348,-0.466 -0.397,-1.003 -0.338,-1.559 0.038,-0.355 0.143,-0.687 0.4,-0.952 0.64,-0.661 1.695,-0.5 2.105,0.322 0.041,0.082 0.081,0.167 0.103,0.255 0.027,0.109 0.084,0.115 0.177,0.09 0.206,-0.057 0.206,-0.054 0.128,-0.26 m -4.5135,-0.1995 c -0.519,-0.808 -1.701,-0.827 -2.247,-0.036 -0.428,0.62 -0.422,1.702 0.012,2.319 0.534,0.761 1.721,0.736 2.235,-0.046 0.2,-0.303 0.291,-0.658 0.291,-1.127 0.01,-0.398 -0.074,-0.772 -0.291,-1.11 m 0.672,1.284 c -0.069,1.057 -0.621,1.71 -1.582,1.82 -0.959,0.11 -1.693,-0.371 -1.944,-1.301 -0.113,-0.419 -0.121,-0.845 -0.028,-1.266 0.145,-0.656 0.495,-1.16 1.165,-1.348 0.67,-0.188 1.313,-0.119 1.839,0.392 0.427,0.415 0.544,0.954 0.55,1.525 0,0.06 0.004,0.119 0,0.178 m -2.3045,6.1783 c -0.043,0.066 -0.055,0.116 0.02,0.182 0.641,0.561 1.279,1.125 1.914,1.693 0.083,0.074 0.114,0.058 0.166,-0.028 0.188,-0.315 0.382,-0.627 0.578,-0.938 0.046,-0.071 0.041,-0.109 -0.035,-0.149 -0.078,-0.042 -0.149,-0.096 -0.223,-0.144 -0.628,-0.388 -1.256,-0.773 -1.881,-1.165 -0.101,-0.064 -0.145,-0.048 -0.204,0.048 -0.105,0.171 -0.223,0.334 -0.335,0.501 m -2.1363,4.3997 c 0.017,-0.003 0.035,-0.005 0.052,-0.008 0.029,-0.021 0.06,-0.025 0.093,-0.014 0.018,-0.003 0.035,-0.006 0.053,-0.009 0.044,-0.027 0.092,-0.028 0.141,-0.019 0.017,-0.002 0.035,-0.005 0.052,-0.008 0.028,-0.022 0.06,-0.024 0.094,-0.014 l 0.051,-0.009 c 0.037,-0.023 0.077,-0.024 0.118,-0.014 0.018,-0.003 0.035,-0.006 0.052,-0.01 0.048,-0.043 0.017,-0.089 0.001,-0.133 -0.056,-0.155 -0.114,-0.31 -0.171,-0.465 -0.257,-0.697 -0.513,-1.393 -0.77,-2.089 -0.022,-0.061 -0.037,-0.128 -0.129,-0.108 -0.185,0.039 -0.371,0.078 -0.557,0.114 -0.061,0.012 -0.075,0.043 -0.066,0.103 0.084,0.546 0.166,1.092 0.248,1.638 0.04,0.27 0.078,0.541 0.117,0.812 0.003,0.017 0.006,0.034 0.009,0.052 0.022,0.028 0.025,0.06 0.014,0.093 0.003,0.018 0.006,0.035 0.009,0.053 0.016,0.095 0.07,0.117 0.158,0.087 0.028,-0.01 0.061,-0.004 0.092,-0.005 0.017,-0.002 0.034,-0.005 0.051,-0.007 0.03,-0.02 0.061,-0.024 0.094,-0.011 0.025,-0.005 0.051,-0.009 0.076,-0.014 0.037,-0.024 0.077,-0.026 0.118,-0.015 m 0.8289,-3.2604 c -0.021,0.059 0.017,0.101 0.043,0.145 0.44,0.753 0.882,1.504 1.322,2.257 0.043,0.075 0.074,0.097 0.154,0.039 0.273,-0.195 0.55,-0.384 0.827,-0.571 0.066,-0.044 0.08,-0.076 0.023,-0.14 -0.078,-0.086 -0.147,-0.181 -0.22,-0.272 -0.032,-0.035 -0.066,-0.07 -0.097,-0.107 -0.456,-0.544 -0.912,-1.087 -1.365,-1.634 -0.055,-0.067 -0.098,-0.076 -0.171,-0.03 -0.17,0.108 -0.344,0.209 -0.516,0.313 m -4.5187,-4.8649 10e-4,-0.008 c 0.008,-0.014 0.015,-0.027 0.023,-0.04 l 10e-4,-0.009 0.024,-0.039 v -0.009 c 0.001,-0.027 0.007,-0.051 0.031,-0.067 0.006,-0.012 0.012,-0.024 0.018,-0.035 l -0.003,-0.009 0.009,-0.003 c 0.006,-0.011 0.011,-0.021 0.016,-0.032 0.001,-0.038 0.019,-0.067 0.05,-0.088 0.181,-0.369 0.361,-0.739 0.545,-1.106 0.645,-1.283 1.289,-2.567 1.939,-3.848 0.056,-0.111 0.05,-0.164 -0.073,-0.197 -0.046,-0.011 -0.087,-0.04 -0.13,-0.062 -0.013,-0.007 -0.025,-0.015 -0.038,-0.023 -0.011,-0.003 -0.021,-0.005 -0.032,-0.008 -0.178,-0.075 -0.357,-0.15 -0.535,-0.225 -0.15,-0.064 -0.15,-0.064 -0.221,0.081 -1.071,2.183 -2.141,4.365 -3.212,6.547 -0.226,0.46 -0.455,0.918 -0.683,1.377 -0.004,0.016 -0.006,0.032 -0.013,0.046 -0.101,0.213 -0.101,0.213 0.116,0.316 0.98,0.466 1.962,0.929 2.941,1.399 0.298,0.143 0.579,0.32 0.899,0.416 1.743,0.523 3.604,-0.574 3.851,-2.383 0.202,-1.484 -0.571,-2.431 -0.573,-2.46 -0.012,-0.01 -0.027,-0.018 -0.037,-0.03 -0.483,-0.624 -1.119,-1.036 -1.838,-1.337 -0.092,-0.038 -0.154,-0.025 -0.225,0.039 -0.13,0.115 -0.266,0.223 -0.4,0.333 -0.674,0.558 -1.348,1.116 -2.024,1.672 -0.069,0.057 -0.09,0.107 -0.056,0.195 0.103,0.271 0.199,0.545 0.294,0.82 0.104,0.3 0.225,0.595 0.311,0.902 0.003,0.007 0.167,0.442 0.167,0.442 0.009,0.006 0.017,0.013 0.026,0.02 0.475,0 1.875,0.014 2.099,0.012 0.049,0 0.098,0.009 0.132,-0.037 0.001,-0.025 0.001,-0.852 0,-1.048 -0.136,-0.006 -0.272,-0.015 -0.409,-0.016 -0.317,-0.002 -0.634,0 -0.951,0 -0.052,0 -0.106,0.006 -0.122,-0.066 -0.03,-0.124 -0.064,-0.248 -0.095,-0.372 -0.016,-0.014 -0.122,-0.421 -0.154,-0.508 -0.029,-0.078 -0.006,-0.124 0.061,-0.171 0.394,-0.275 0.784,-0.554 1.176,-0.831 0.276,-0.195 0.28,-0.198 0.532,0.022 0.249,0.218 0.77,0.959 0.768,0.965 0.016,0.023 0.034,0.044 0.047,0.069 0.339,0.686 0.239,1.339 -0.155,1.966 -0.338,0.541 -0.834,0.805 -1.469,0.803 -0.452,-10e-4 -0.878,-0.122 -1.28,-0.325 -0.681,-0.344 -1.362,-0.688 -2.039,-1.04 -0.325,-0.169 -0.283,-0.072 -0.125,-0.411 0.003,-0.007 0.011,-0.012 0.016,-0.018 z m -1.4667,-3.832 c -0.546,-0.711 -1.641,-0.692 -2.163,0.036 -0.451,0.629 -0.432,1.742 0.013,2.374 0.495,0.704 1.878,0.767 2.338,-0.293 0.127,-0.293 0.176,-0.598 0.174,-0.915 0.001,-0.437 -0.091,-0.848 -0.362,-1.202 m 0.736,1.428 c -0.065,0.93 -0.593,1.68 -1.578,1.775 -0.857,0.082 -1.591,-0.273 -1.903,-1.164 -0.094,-0.268 -0.129,-0.546 -0.116,-0.829 0,-0.092 -0.007,-0.184 0,-0.275 0.074,-0.863 0.581,-1.626 1.559,-1.725 0.922,-0.093 1.675,0.324 1.947,1.256 0.092,0.315 0.113,0.638 0.091,0.962 m -3.7042,-2.0024 c -0.002,-0.123 -0.028,-0.167 -0.162,-0.166 -0.75,0.006 -1.501,0.006 -2.251,0 -0.122,-0.001 -0.155,0.033 -0.154,0.154 0.006,0.599 0.003,1.198 0.003,1.798 0,0.594 0.002,1.188 -0.002,1.781 -0.001,0.112 0.015,0.162 0.147,0.161 0.729,-0.007 1.458,-0.007 2.187,0 0.133,0.001 0.145,-0.052 0.146,-0.162 0.002,-0.116 -0.015,-0.171 -0.155,-0.169 -0.599,0.008 -1.199,0.001 -1.798,0.006 -0.124,10e-4 -0.169,-0.025 -0.166,-0.159 0.01,-0.367 0.007,-0.734 0.002,-1.101 -0.002,-0.107 0.031,-0.139 0.137,-0.138 0.556,0.005 1.113,-0.003 1.668,0.006 0.143,0.002 0.153,-0.058 0.155,-0.171 0.002,-0.115 -0.021,-0.161 -0.15,-0.159 -0.546,0.007 -1.091,-10e-4 -1.636,0.005 -0.129,0.002 -0.179,-0.024 -0.176,-0.166 0.01,-0.399 0.009,-0.799 0.001,-1.198 -0.003,-0.126 0.029,-0.166 0.161,-0.165 0.626,0.008 1.252,0 1.879,0.007 0.128,10e-4 0.166,-0.035 0.164,-0.164 m -3.0302,0.4529 c 0,-0.067 -0.003,-0.124 -0.068,-0.168 -0.721,-0.486 -1.499,-0.68 -2.333,-0.373 -0.714,0.262 -1.096,0.811 -1.155,1.573 -0.028,0.357 -0.008,0.713 0.105,1.056 0.313,0.951 1.13,1.325 2.064,1.234 0.615,-0.059 1.071,-0.342 1.288,-0.946 0.025,-0.068 0.055,-0.149 -0.057,-0.154 -0.095,-0.005 -0.213,-0.167 -0.286,0.013 -0.239,0.586 -0.681,0.835 -1.299,0.81 -0.595,-0.025 -1.024,-0.305 -1.277,-0.843 -0.319,-0.678 -0.199,-1.653 0.257,-2.136 0.442,-0.468 0.991,-0.523 1.582,-0.406 0.263,0.052 0.5,0.166 0.724,0.311 0.071,0.046 0.102,0.1 0.1,0.186 -0.005,0.237 -0.007,0.475 10e-4,0.712 0.002,0.11 -0.039,0.138 -0.142,0.137 -0.318,-0.006 -0.637,0.005 -0.955,-0.006 -0.137,-0.004 -0.145,0.058 -0.144,0.165 0.001,0.103 0.002,0.173 0.142,0.166 0.221,-0.012 0.442,-0.003 0.664,-0.003 0.216,0 0.432,-0.006 0.647,0.002 0.117,0.005 0.145,-0.038 0.144,-0.148 -0.006,-0.394 -0.003,-0.788 -0.002,-1.182 m -4.6704,0.2479 c -0.533,-0.871 -1.81,-0.875 -2.31,0.014 -0.395,0.703 -0.393,1.448 0.005,2.15 0.483,0.85 1.743,0.863 2.283,0.046 0.224,-0.342 0.301,-0.724 0.294,-1.139 0.01,-0.374 -0.069,-0.739 -0.272,-1.071 m 0.652,1.257 c -0.071,1.051 -0.616,1.698 -1.57,1.814 -0.963,0.117 -1.706,-0.368 -1.956,-1.302 -0.113,-0.42 -0.121,-0.846 -0.027,-1.267 0.146,-0.656 0.497,-1.159 1.168,-1.346 0.67,-0.186 1.313,-0.116 1.838,0.397 0.426,0.416 0.542,0.955 0.554,1.541 -0.002,0.045 -0.003,0.104 -0.007,0.163"
       id="path82"
       inkscape:connector-curvature="0"
       style="fill:#565759" />
    <path
       d="m 127.925,11.5815 c -0.002,-0.128 -0.037,-0.163 -0.165,-0.161 -0.744,0.006 -1.489,0.006 -2.234,-0.001 -0.142,-10e-4 -0.167,0.048 -0.166,0.176 0.006,0.594 0.003,1.187 0.003,1.781 0,0.593 0.003,1.187 -0.002,1.781 -0.002,0.117 0.026,0.157 0.152,0.156 0.728,-0.005 1.457,-0.007 2.185,0.001 0.149,0.002 0.145,-0.066 0.15,-0.174 0.004,-0.116 -0.023,-0.158 -0.15,-0.157 -0.605,0.007 -1.209,0 -1.813,0.006 -0.13,0.002 -0.165,-0.038 -0.162,-0.163 0.007,-0.356 0.009,-0.713 -0.001,-1.068 -0.004,-0.142 0.047,-0.169 0.176,-0.167 0.544,0.006 1.09,-0.003 1.635,0.006 0.14,0.002 0.154,-0.052 0.156,-0.168 0.003,-0.126 -0.03,-0.165 -0.161,-0.163 -0.551,0.008 -1.101,0 -1.651,0.006 -0.123,0.002 -0.156,-0.035 -0.154,-0.155 0.006,-0.405 0.007,-0.81 -0.001,-1.214 -0.003,-0.134 0.046,-0.16 0.167,-0.159 0.621,0.005 1.242,-0.001 1.862,0.005 0.133,0.002 0.176,-0.03 0.174,-0.168 m -3.0155,-0.0116 c 0,-0.108 -0.022,-0.146 -0.14,-0.152 -0.172,-0.007 -0.28,0.041 -0.381,0.194 -0.642,0.967 -1.298,1.924 -1.95,2.884 -0.039,0.057 -0.067,0.124 -0.128,0.162 -0.051,-0.022 -0.032,-0.064 -0.032,-0.099 0.006,-0.983 0.011,-1.965 0.024,-2.947 0.001,-0.143 -0.029,-0.192 -0.184,-0.196 -0.17,-0.003 -0.175,0.073 -0.175,0.202 0.003,1.166 0.001,2.332 0.004,3.498 10e-4,0.065 -0.052,0.18 0.058,0.186 0.117,0.007 0.257,0.073 0.353,-0.073 0.19,-0.289 0.386,-0.573 0.58,-0.859 0.503,-0.742 1.005,-1.484 1.509,-2.225 0.028,-0.041 0.044,-0.099 0.125,-0.118 0,0.278 0.002,0.55 -0.001,0.822 -0.007,0.772 -0.01,1.543 -0.027,2.315 -0.004,0.168 0.087,0.146 0.191,0.148 0.107,0.003 0.177,0.005 0.176,-0.147 -0.007,-1.198 -0.005,-2.397 -0.002,-3.595"
       id="path84"
       inkscape:connector-curvature="0"
       style="fill:#565759" />
  </g>
  <path
     d="m 425.46943,152.91537 -0.007,-4.4355 h 0.57424 v 5.31115 h -0.57424 l -3.05708,-4.47145 0.0144,4.47145 h -0.57424 v -5.31115 h 0.60282 l 3.02135,4.4355 z m 1.20841,-4.4355 h 2.81775 v 0.5239 h -2.22932 v 1.8445 h 2.21492 v 0.5239 h -2.21492 v 1.89495 h 2.22932 v 0.5239 h -2.81775 z m 3.08577,2.66992 c 0,-1.63621 1.27038,-2.76324 2.7705,-2.76324 1.55739,0 2.77039,1.19145 2.77039,2.74884 0,1.55761 -1.20575,2.74885 -2.77039,2.74885 -1.5719,0 -2.7705,-1.213 -2.7705,-2.72741 v -0.007 z m 0.59568,-0.0144 c 0,1.24884 0.94017,2.22495 2.18197,2.22495 1.25598,0 2.17471,-1.01174 2.17471,-2.22495 0,-1.213 -0.91863,-2.22495 -2.18186,-2.22495 -1.24883,0 -2.17482,0.99041 -2.17482,2.21759 v 0.007 z m 9.84786,-1.27752 c -0.1651,-0.22963 -0.36615,-0.42343 -0.59578,-0.57413 -0.34449,-0.23689 -0.76077,-0.3733 -1.23443,-0.3733 -1.16277,0 -2.17472,0.88994 -2.17472,2.21759 0,1.34941 1.01921,2.23935 2.18186,2.23935 0.55984,0 1.05504,-0.19358 1.42109,-0.4808 0.37329,-0.29437 0.63161,-0.69615 0.71779,-1.11264 h -2.8908 v -0.48806 h 3.5798 c -0.007,0.30877 -0.0789,0.69615 -0.23688,1.02646 -0.45937,0.99766 -1.52166,1.57894 -2.591,1.57894 -1.55024,0 -2.77753,-1.19135 -2.77753,-2.76325 0,-1.59322 1.24883,-2.7417 2.78468,-2.7417 1.07659,0 2.07425,0.60293 2.49052,1.47132 h -0.6746 z m 1.28947,-1.378 h 2.94264 v 0.5239 h -2.354 v 1.8445 h 2.33971 v 0.5239 h -2.33971 v 1.89495 h 2.354 v 0.5239 h -2.94264 z m 3.17953,2.66992 c 0,-1.63621 1.27038,-2.76324 2.77038,-2.76324 1.5575,0 2.77039,1.19145 2.77039,2.74884 0,1.55761 -1.20574,2.74885 -2.77039,2.74885 -1.57178,0 -2.77038,-1.213 -2.77038,-2.72741 v -0.007 z m 0.59567,-0.0144 c 0,1.24884 0.94017,2.22495 2.18186,2.22495 1.25609,0 2.17472,-1.01174 2.17472,-2.22495 0,-1.213 -0.91863,-2.22495 -2.18187,-2.22495 -1.24883,0 -2.17471,0.99041 -2.17471,2.21759 v 0.007 z m 11.49965,0.0144 c 0,-1.63621 1.27027,-2.76324 2.77049,-2.76324 1.5575,0 2.7705,1.19145 2.7705,2.74884 0,1.55761 -1.20575,2.74885 -2.7705,2.74885 -1.57179,0 -2.77049,-1.213 -2.77049,-2.72741 v -0.007 z m 0.59556,-0.0144 c 0,1.24884 0.94028,2.22495 2.18208,2.22495 1.25608,0 2.17482,-1.01174 2.17482,-2.22495 0,-1.213 -0.91863,-2.22495 -2.18197,-2.22495 -1.24873,0 -2.17493,0.99041 -2.17493,2.21759 v 0.007 z m 10.87369,1.2274 c -0.3444,0.81826 -1.27028,1.52177 -2.44019,1.52177 -1.57168,0 -2.77049,-1.213 -2.77049,-2.74874 0,-1.51452 1.17001,-2.74895 2.76303,-2.74895 1.31325,0 2.13888,0.87564 2.44733,1.55024 h -0.63887 c -0.17961,-0.3157 -0.78222,-1.02635 -1.80846,-1.02635 -1.24169,0 -2.17472,0.98326 -2.17472,2.2177 0,1.25609 0.93996,2.2322 2.17472,2.2322 1.11274,0 1.6793,-0.79672 1.80846,-0.99766 z m 5.828,-3.88292 h 2.94285 v 0.5239 h -2.35411 v 1.8445 h 2.3396 v 0.5239 h -2.3396 v 1.89495 h 2.35411 v 0.5239 h -2.94285 z m 5.92836,0.5239 h -1.7115 v -0.5239 h 4.02583 v 0.5239 h -1.71855 v 4.78725 h -0.59578 z m -7.42901,4.78725 h 0.73934 l -2.7593,-2.66299 2.5366,-2.64827 h -0.6458 l -2.78426,2.8795 v -2.87939 h -0.58852 v 5.31115 h 0.58852 v -1.73081 l 0.54182,-0.56592 z"
     id="path88"
     inkscape:connector-curvature="0"
     style="fill:#1d1d1b" />
  <path
     d="m 454.14005,154.19695 c -1.15594,-2.29886 -2.30867,-4.59154 -3.46216,-6.88592 0.006,-0.004 0.0115,-0.009 0.0174,-0.0117 0.28765,-0.14719 0.5754,-0.29437 0.86295,-0.44135 0.40657,-0.20755 0.81325,-0.41414 1.2194,-0.62276 0.42694,-0.21929 0.87564,-0.35122 1.35997,-0.33554 0.32967,0.0107 0.63193,0.10655 0.89708,0.30877 0.234,0.17854 0.39964,0.41041 0.52656,0.67257 0.12042,0.24872 0.20627,0.50758 0.21107,0.7868 0.007,0.3878 -0.11049,0.73849 -0.31836,1.06411 -0.1393,0.21779 -0.29821,0.4182 -0.48465,0.59557 -0.12841,0.12222 -0.26568,0.23507 -0.39879,0.35185 -0.48731,-0.34567 -0.96427,-0.68366 -1.44316,-1.02315 0.091,-0.33202 0.18057,-0.66105 0.2708,-0.99094 h 1.38013 v -1.04768 c -0.71268,0.007 -1.41746,0.0136 -2.12213,0.0206 -0.25673,0.72536 -0.51227,1.44678 -0.76793,2.16959 0.82499,0.68239 1.6472,1.36243 2.47005,2.04321 0.32701,-0.12468 0.63727,-0.27827 0.92929,-0.4679 0.46534,-0.30237 0.85325,-0.68217 1.13813,-1.16052 0.26461,-0.44465 0.39761,-0.92898 0.40486,-1.44615 0.004,-0.3205 -0.0442,-0.63386 -0.13844,-0.94103 -0.1251,-0.407 -0.31858,-0.77539 -0.6138,-1.08416 -0.55344,-0.57946 -1.2322,-0.89089 -2.0351,-0.91948 -0.47462,-0.0168 -0.92364,0.0903 -1.34728,0.30312 -0.19081,0.096 -0.37767,0.19966 -0.56965,0.29266 -0.42769,0.20681 -0.85751,0.40924 -1.28649,0.61306 -0.3783,0.17982 -0.75672,0.35901 -1.13503,0.53829 -0.12788,0.0607 -0.25587,0.12159 -0.38396,0.18239 1.28478,2.61957 2.56806,5.23606 3.85071,7.85254 0.32519,-0.13993 0.64367,-0.27709 0.96854,-0.41681 z"
     id="path90"
     inkscape:connector-curvature="0"
     style="fill:none" />
  <path
     d="m 454.14005,154.19695 c -0.32498,0.13983 -0.64335,0.27688 -0.96908,0.41681 -1.28253,-2.61616 -2.56603,-5.23286 -3.8507,-7.85244 0.12809,-0.0608 0.25597,-0.12169 0.38396,-0.18238 0.37831,-0.17939 0.75672,-0.35858 1.13503,-0.53829 0.42897,-0.20382 0.8588,-0.40625 1.28649,-0.61306 0.19198,-0.093 0.37884,-0.19667 0.56965,-0.29266 0.42363,-0.21289 0.87265,-0.31997 1.34717,-0.30312 0.80301,0.0286 1.48177,0.34002 2.03521,0.91948 0.29522,0.30877 0.48869,0.67705 0.61369,1.08416 0.0944,0.30706 0.14303,0.62052 0.13855,0.94103 -0.007,0.51717 -0.14004,1.00149 -0.40487,1.44614 -0.28509,0.47825 -0.67278,0.85805 -1.13833,1.16053 -0.29182,0.18942 -0.60208,0.34311 -0.92909,0.46779 -0.82285,-0.68068 -1.64506,-1.36072 -2.47004,-2.0431 0.25565,-0.72281 0.5112,-1.44423 0.76792,-2.1696 0.70468,-0.007 1.40978,-0.0138 2.12214,-0.0206 v 1.04768 h -1.38013 c -0.0902,0.32989 -0.18004,0.65892 -0.2708,0.99094 0.47888,0.33949 0.95574,0.67748 1.44316,1.02315 0.13311,-0.11679 0.27037,-0.22963 0.39879,-0.35186 0.18643,-0.17737 0.34535,-0.37777 0.48453,-0.59556 0.20798,-0.32562 0.32531,-0.67631 0.31848,-1.06411 -0.005,-0.27923 -0.0908,-0.53808 -0.21107,-0.7868 -0.12671,-0.26216 -0.29245,-0.49403 -0.52656,-0.67257 -0.26515,-0.20222 -0.56741,-0.298 -0.89709,-0.30877 -0.48432,-0.0157 -0.93302,0.11614 -1.35997,0.33554 -0.40593,0.20862 -0.81282,0.41521 -1.21939,0.62276 -0.28766,0.14697 -0.57541,0.29416 -0.86296,0.44134 -0.006,0.003 -0.0111,0.007 -0.0174,0.0117 1.15412,2.29427 2.30686,4.58695 3.46269,6.88581 z m 0.81539,-10.07035 c -0.2306,-0.0475 -0.45479,-0.0937 -0.68506,-0.14121 0.13407,-0.89538 0.26814,-1.79054 0.40252,-2.68795 0.41969,0.0612 0.83533,0.12213 1.25758,0.18388 -0.32583,0.88396 -0.64985,1.76292 -0.97504,2.64528 z m 3.74362,-0.73027 c 0.2227,0.3606 0.4423,0.71673 0.66564,1.0785 -0.72729,0.4503 -1.45425,0.90018 -2.18346,1.35144 -0.15295,-0.22824 -0.3029,-0.45233 -0.45628,-0.68164 0.65754,-0.58223 1.31369,-1.1634 1.9741,-1.7483 z m -1.75662,-1.40754 c 0.32178,0.22238 0.63769,0.44091 0.95499,0.6602 -0.57349,0.68388 -1.14527,1.36573 -1.721,2.05195 -0.20136,-0.12425 -0.40092,-0.24733 -0.60612,-0.37404 0.45552,-0.77592 0.9118,-1.55366 1.37213,-2.33811 z"
     id="path92"
     inkscape:connector-curvature="0"
     style="fill:#f10000" />
</svg>
