<?xml version="1.0" encoding="UTF-8" standalone="no"?>
<svg
   xmlns:dc="http://purl.org/dc/elements/1.1/"
   xmlns:cc="http://creativecommons.org/ns#"
   xmlns:rdf="http://www.w3.org/1999/02/22-rdf-syntax-ns#"
   xmlns:svg="http://www.w3.org/2000/svg"
   xmlns="http://www.w3.org/2000/svg"
   xmlns:sodipodi="http://sodipodi.sourceforge.net/DTD/sodipodi-0.dtd"
   xmlns:inkscape="http://www.inkscape.org/namespaces/inkscape"
   width="237.81039"
   height="200"
   version="1.1"
   id="svg41"
   sodipodi:docname="game.svg"
   inkscape:version="0.92.4 5da689c313, 2019-01-14">
  <metadata
     id="metadata45">
    <rdf:RDF>
      <cc:Work
         rdf:about="">
        <dc:format>image/svg+xml</dc:format>
        <dc:type
           rdf:resource="http://purl.org/dc/dcmitype/StillImage" />
      </cc:Work>
    </rdf:RDF>
  </metadata>
  <sodipodi:namedview
     pagecolor="#ffffff"
     bordercolor="#666666"
     borderopacity="1"
     objecttolerance="10"
     gridtolerance="10"
     guidetolerance="10"
     inkscape:pageopacity="0"
     inkscape:pageshadow="2"
     inkscape:window-width="471"
     inkscape:window-height="442"
     id="namedview43"
     showgrid="false"
     inkscape:zoom="1.1395633"
     inkscape:cx="118.9052"
     inkscape:cy="100"
     inkscape:window-x="0"
     inkscape:window-y="0"
     inkscape:window-maximized="0"
     inkscape:current-layer="svg41" />
  <defs
     id="defs5">
    <clipPath
       id="a">
      <path
         d="M 0,153.13 H 182.08 V 0 H 0 Z"
         id="path2"
         inkscape:connector-curvature="0" />
    </clipPath>
  </defs>
  <path
     d="m 2.2721811,198.19748 4.4145382,1.80239 V 157.63075 L 2.2721811,156.40304 Z M 231.14065,157.63088 231.11455,200 l 4.41454,-1.3322 v -42.35736 l -4.38842,1.32044 z"
     id="path7"
     inkscape:connector-curvature="0"
     style="fill:#2c2a2a" />
  <path
     d="M 6.6872417,157.63088 V 200 H 231.11427 l 0.0261,-42.36912 H 6.6872217 Z M 231.11022,156.40265 H 6.6871111 V 27.754121 H 231.11022 Z"
     id="path9"
     inkscape:connector-curvature="0"
     style="fill:#565759" />
  <path
     d="M 6.6871111,27.754121 V 156.40265 L 2.2725729,155.04433 V 30.366274 Z m 224.4274189,0 V 156.40265 l 4.41454,-1.35832 V 30.366274 Z"
     id="path11"
     inkscape:connector-curvature="0"
     style="fill:#2c2a2a" />
  <g
     clip-path="url(#a)"
     transform="matrix(1.3060764,0,0,-1.3060764,0,199.99948)"
     id="g33">
    <path
       d="m 79.2034,26.0675 h 25.982 c 0.74,0 1.143,-0.866 0.665,-1.432 L 93.3994,9.8635 c -0.577,-0.685 -1.627,-0.704 -2.228,-0.038 l -12.861,14.232 c -0.699,0.774 -0.15,2.01 0.893,2.01 m -13.9063,0 h -47.739 c -1.105,0 -2.001,-0.896 -2.001,-2 v -12.73 c 0,-1.104 0.896,-2 2.001,-2 h 47.687 c 1.104,0 2,0.896 2,2 v 12.782 c 0,1.076 -0.872,1.948 -1.948,1.948 m 51.9896,-1.3229 v -13.563 c 0,-1.018 0.826,-1.844 1.844,-1.844 h 48.249 c 0.961,0 1.74,0.779 1.74,1.74 v 12.896 c 0,1.157 -0.937,2.094 -2.093,2.094 h -48.417 c -0.731,0 -1.323,-0.592 -1.323,-1.323 M 182.08,135.13 l -1.74,-5.25 h -0.01 l -3.37,2 h -12.67 l 1.26,3.31 16.05,-0.06 z"
       id="path13"
       inkscape:connector-curvature="0"
       style="fill:#39393a" />
    <path
       d="M 165.18,137.82 H 16.53 v 2.12 h 148.65 z m -148.3,5.29 h 147.95 v -2.13 H 16.88 Z m 0.54,2.52 h 146.87 v -1.48 H 17.42 Z m 1.17,2.42 h 144.53 v -1.08 H 18.59 Z m 159.89,2.58 c -0.29,0.74 -1.16,1.33 -2,1.75 -1.04,0.5 -2.16,0.75 -3.3,0.75 H 8.42 c -1.14,0 -2.27,-0.25 -3.3,-0.75 -0.85,-0.42 -1.71,-1.01 -2,-1.75 C 2.49,149 0,135.13 0,135.13 l 13.54,0.05 2.99,0.01 h 149.02 l 16.53,-0.06 c 0,0 -2.97,13.87 -3.6,15.5"
       id="path15"
       inkscape:connector-curvature="0"
       style="fill:#565759" />
    <path
       d="m 17.787,122.213 h 146.5 V 43.046 h -146.5 z"
       id="path17"
       inkscape:connector-curvature="0"
       style="fill:#454547" />
    <path
       d="M 17.79,131.88 H 5.12 l -3.38,-2 -1.74,5.25 13.54,0.05 2.99,0.01 0.02,-0.06 z"
       id="path19"
       inkscape:connector-curvature="0"
       style="fill:#39393a" />
    <path
       d="m 164.287,126.755 h -146.5 v -2.125 h 146.5 z m 0,3.625 h -146.5 v -2.125 h 146.5 z"
       id="path21"
       inkscape:connector-curvature="0"
       style="fill:#696a6c" />
    <path
       d="m 165.55,135.19 -1.26,-3.31 H 17.79 l -1.24,3.25 -0.02,0.06 z"
       id="path23"
       inkscape:connector-curvature="0"
       style="fill:#454547" />
    <path
       d="m 1.74,34.42 v -1.04 l 3.38,-0.94 h 171.853 l 3.36,1.01 v 0.97 l -3.38,-1.04 H 5.12 Z"
       id="path25"
       inkscape:connector-curvature="0"
       style="fill:#161413" />
    <path
       d="M 165.18,137.82 H 16.53 v 2.12 h 148.65 z m -0.35,3.16 H 16.88 v 2.13 h 147.95 z m -0.54,3.17 H 17.42 v 1.48 h 146.87 z m -1.17,2.82 H 18.59 v 1.08 h 144.53 z"
       id="path27"
       inkscape:connector-curvature="0"
       style="fill:#696a6c" />
    <path
       d="m 49.6114,12.5732 h 3.807 v 4.864 l 5.729,-4.864 h 4.53 l -6.175,5.28 6.069,4.979 h -4.529 l -5.624,-4.547 v 4.547 h -3.807 z m -14.9124,0 h 3.807 v 6.133 l 6.893,-6.133 h 3.789 v 10.259 h -3.807 v -6.133 l -6.893,6.133 h -3.789 z m -0.6346,7.4032 v 2.856 h -11.105 c -1.933,0.033 -3.173,-1.468 -3.173,-3.279 0,-1.811 1.189,-3.315 3.173,-3.279 h 7.033 c 0.262,0 0.476,-0.189 0.476,-0.423 0,-0.233 -0.214,-0.423 -0.476,-0.423 h -10.1 v -2.855 h 11.105 c 1.933,-0.034 3.173,1.468 3.173,3.278 0,1.811 -1.189,3.315 -3.173,3.279 h -7.033 c -0.262,0 -0.476,0.189 -0.476,0.423 0,0.234 0.214,0.423 0.476,0.423 h 10.1 M 162.908,13.2206 c 0,0.529 -0.007,1.057 0.004,1.586 0.003,0.156 -0.048,0.189 -0.191,0.184 -0.291,-0.011 -0.583,0.004 -0.874,-0.006 -0.149,-0.006 -0.128,0.082 -0.133,0.175 -0.006,0.103 0.014,0.155 0.138,0.154 0.831,-0.005 1.661,-0.006 2.492,0 0.141,0.002 0.128,-0.074 0.126,-0.163 -0.002,-0.084 0.023,-0.171 -0.122,-0.167 -0.307,0.011 -0.615,-0.002 -0.922,0.006 -0.125,0.004 -0.154,-0.04 -0.153,-0.158 0.004,-1.079 0.003,-2.158 0.001,-3.237 0,-0.054 0.033,-0.138 -0.035,-0.159 -0.096,-0.03 -0.205,-0.029 -0.302,10e-4 -0.051,0.016 -0.028,0.087 -0.028,0.133 -0.001,0.55 -0.001,1.101 -0.001,1.651 m -1.342,-1.631 c -0.005,-0.113 -0.013,-0.171 -0.155,-0.17 -0.75,0.008 -1.5,0.007 -2.25,10e-4 -0.132,-10e-4 -0.162,0.039 -0.161,0.165 0.006,0.593 0.003,1.187 0.003,1.781 0,0.599 0.002,1.198 -0.002,1.797 -0.001,0.108 0.024,0.151 0.142,0.15 0.734,-0.005 1.468,-0.006 2.202,0 0.139,0.002 0.14,-0.064 0.142,-0.167 0.003,-0.112 -0.016,-0.164 -0.147,-0.163 -0.605,0.007 -1.209,0 -1.814,0.006 -0.124,0.001 -0.169,-0.029 -0.166,-0.162 0.009,-0.361 0.009,-0.723 10e-4,-1.084 -0.003,-0.126 0.042,-0.153 0.158,-0.152 0.551,0.005 1.101,-0.002 1.652,0.005 0.131,0.002 0.164,-0.037 0.162,-0.164 -0.002,-0.12 -0.023,-0.168 -0.159,-0.166 -0.551,0.008 -1.101,-0.001 -1.652,0.006 -0.131,0.002 -0.164,-0.04 -0.161,-0.166 0.007,-0.399 0.007,-0.798 0,-1.198 -0.003,-0.127 0.033,-0.166 0.162,-0.164 0.626,0.006 1.252,-10e-4 1.878,0.005 0.125,0.001 0.17,-0.029 0.165,-0.16 m -2.7227,-0.1646 c -0.164,0 -0.296,-0.003 -0.427,10e-4 -0.077,0.002 -0.102,0.075 -0.139,0.124 -0.462,0.605 -0.924,1.21 -1.38,1.819 -0.081,0.108 -0.134,0.123 -0.233,0.023 -0.152,-0.153 -0.315,-0.295 -0.48,-0.434 -0.079,-0.066 -0.104,-0.139 -0.102,-0.239 0.004,-0.388 -0.005,-0.777 0.005,-1.165 0.004,-0.151 -0.082,-0.136 -0.174,-0.13 -0.084,0.006 -0.195,-0.05 -0.195,0.124 0.006,1.214 0.006,2.429 0.001,3.643 -0.001,0.161 0.101,0.118 0.183,0.118 0.081,0 0.186,0.044 0.184,-0.118 -0.007,-0.571 -0.003,-1.144 -0.001,-1.716 0,-0.049 -0.033,-0.119 0.03,-0.143 0.049,-0.019 0.08,0.044 0.114,0.075 0.619,0.57 1.248,1.13 1.849,1.719 0.203,0.198 0.408,0.193 0.69,0.174 -0.363,-0.33 -0.694,-0.631 -1.025,-0.931 -0.199,-0.181 -0.395,-0.368 -0.601,-0.541 -0.1,-0.084 -0.091,-0.141 -0.016,-0.235 0.538,-0.668 1.07,-1.341 1.604,-2.013 0.032,-0.04 0.061,-0.084 0.113,-0.155 m -3.912,1.0306 c -0.279,-0.731 -0.797,-1.098 -1.549,-1.097 -0.813,0 -1.368,0.384 -1.619,1.162 -0.259,0.803 -0.208,1.572 0.325,2.271 0.598,0.785 2.286,0.91 2.803,-0.41 0.025,-0.062 0.083,-0.148 -0.034,-0.16 -0.095,-0.009 -0.217,-0.165 -0.296,0.03 -0.168,0.411 -0.425,0.732 -0.89,0.81 -0.532,0.089 -0.985,-0.058 -1.315,-0.502 -0.348,-0.466 -0.397,-1.003 -0.338,-1.559 0.038,-0.355 0.143,-0.687 0.4,-0.952 0.64,-0.661 1.695,-0.5 2.105,0.322 0.041,0.082 0.081,0.167 0.103,0.255 0.027,0.109 0.084,0.115 0.177,0.09 0.206,-0.057 0.206,-0.054 0.128,-0.26 m -4.5135,-0.1995 c -0.519,-0.808 -1.701,-0.827 -2.247,-0.036 -0.428,0.62 -0.422,1.702 0.012,2.319 0.534,0.761 1.721,0.736 2.235,-0.046 0.2,-0.303 0.291,-0.658 0.291,-1.127 0.01,-0.398 -0.074,-0.772 -0.291,-1.11 m 0.672,1.284 c -0.069,1.057 -0.621,1.71 -1.582,1.82 -0.959,0.11 -1.693,-0.371 -1.944,-1.301 -0.113,-0.419 -0.121,-0.845 -0.028,-1.266 0.145,-0.656 0.495,-1.16 1.165,-1.348 0.67,-0.188 1.313,-0.119 1.839,0.392 0.427,0.415 0.544,0.954 0.55,1.525 0,0.06 0.004,0.119 0,0.178 m -2.3045,6.1783 c -0.043,0.066 -0.055,0.116 0.02,0.182 0.641,0.561 1.279,1.125 1.914,1.693 0.083,0.074 0.114,0.058 0.166,-0.028 0.188,-0.315 0.382,-0.627 0.578,-0.938 0.046,-0.071 0.041,-0.109 -0.035,-0.149 -0.078,-0.042 -0.149,-0.096 -0.223,-0.144 -0.628,-0.388 -1.256,-0.773 -1.881,-1.165 -0.101,-0.064 -0.145,-0.048 -0.204,0.048 -0.105,0.171 -0.223,0.334 -0.335,0.501 m -2.1363,4.3997 c 0.017,-0.003 0.035,-0.005 0.052,-0.008 0.029,-0.021 0.06,-0.025 0.093,-0.014 0.018,-0.003 0.035,-0.006 0.053,-0.009 0.044,-0.027 0.092,-0.028 0.141,-0.019 0.017,-0.002 0.035,-0.005 0.052,-0.008 0.028,-0.022 0.06,-0.024 0.094,-0.014 l 0.051,-0.009 c 0.037,-0.023 0.077,-0.024 0.118,-0.014 0.018,-0.003 0.035,-0.006 0.052,-0.01 0.048,-0.043 0.017,-0.089 0.001,-0.133 -0.056,-0.155 -0.114,-0.31 -0.171,-0.465 -0.257,-0.697 -0.513,-1.393 -0.77,-2.089 -0.022,-0.061 -0.037,-0.128 -0.129,-0.108 -0.185,0.039 -0.371,0.078 -0.557,0.114 -0.061,0.012 -0.075,0.043 -0.066,0.103 0.084,0.546 0.166,1.092 0.248,1.638 0.04,0.27 0.078,0.541 0.117,0.812 0.003,0.017 0.006,0.034 0.009,0.052 0.022,0.028 0.025,0.06 0.014,0.093 0.003,0.018 0.006,0.035 0.009,0.053 0.016,0.095 0.07,0.117 0.158,0.087 0.028,-0.01 0.061,-0.004 0.092,-0.005 0.017,-0.002 0.034,-0.005 0.051,-0.007 0.03,-0.02 0.061,-0.024 0.094,-0.011 0.025,-0.005 0.051,-0.009 0.076,-0.014 0.037,-0.024 0.077,-0.026 0.118,-0.015 m 0.8289,-3.2604 c -0.021,0.059 0.017,0.101 0.043,0.145 0.44,0.753 0.882,1.504 1.322,2.257 0.043,0.075 0.074,0.097 0.154,0.039 0.273,-0.195 0.55,-0.384 0.827,-0.571 0.066,-0.044 0.08,-0.076 0.023,-0.14 -0.078,-0.086 -0.147,-0.181 -0.22,-0.272 -0.032,-0.035 -0.066,-0.07 -0.097,-0.107 -0.456,-0.544 -0.912,-1.087 -1.365,-1.634 -0.055,-0.067 -0.098,-0.076 -0.171,-0.03 -0.17,0.108 -0.344,0.209 -0.516,0.313 m -4.5187,-4.8649 10e-4,-0.008 c 0.008,-0.014 0.015,-0.027 0.023,-0.04 l 10e-4,-0.009 0.024,-0.039 v -0.009 c 0.001,-0.027 0.007,-0.051 0.031,-0.067 0.006,-0.012 0.012,-0.024 0.018,-0.035 l -0.003,-0.009 0.009,-0.003 c 0.006,-0.011 0.011,-0.021 0.016,-0.032 0.001,-0.038 0.019,-0.067 0.05,-0.088 0.181,-0.369 0.361,-0.739 0.545,-1.106 0.645,-1.283 1.289,-2.567 1.939,-3.848 0.056,-0.111 0.05,-0.164 -0.073,-0.197 -0.046,-0.011 -0.087,-0.04 -0.13,-0.062 -0.013,-0.007 -0.025,-0.015 -0.038,-0.023 -0.011,-0.003 -0.021,-0.005 -0.032,-0.008 -0.178,-0.075 -0.357,-0.15 -0.535,-0.225 -0.15,-0.064 -0.15,-0.064 -0.221,0.081 -1.071,2.183 -2.141,4.365 -3.212,6.547 -0.226,0.46 -0.455,0.918 -0.683,1.377 -0.004,0.016 -0.006,0.032 -0.013,0.046 -0.101,0.213 -0.101,0.213 0.116,0.316 0.98,0.466 1.962,0.929 2.941,1.399 0.298,0.143 0.579,0.32 0.899,0.416 1.743,0.523 3.604,-0.574 3.851,-2.383 0.202,-1.484 -0.571,-2.431 -0.573,-2.46 -0.012,-0.01 -0.027,-0.018 -0.037,-0.03 -0.483,-0.624 -1.119,-1.036 -1.838,-1.337 -0.092,-0.038 -0.154,-0.025 -0.225,0.039 -0.13,0.115 -0.266,0.223 -0.4,0.333 -0.674,0.558 -1.348,1.116 -2.024,1.672 -0.069,0.057 -0.09,0.107 -0.056,0.195 0.103,0.271 0.199,0.545 0.294,0.82 0.104,0.3 0.225,0.595 0.311,0.902 0.003,0.007 0.167,0.442 0.167,0.442 0.009,0.006 0.017,0.013 0.026,0.02 0.475,0 1.875,0.014 2.099,0.012 0.049,0 0.098,0.009 0.132,-0.037 0.001,-0.025 0.001,-0.852 0,-1.048 -0.136,-0.006 -0.272,-0.015 -0.409,-0.016 -0.317,-0.002 -0.634,0 -0.951,0 -0.052,0 -0.106,0.006 -0.122,-0.066 -0.03,-0.124 -0.064,-0.248 -0.095,-0.372 -0.016,-0.014 -0.122,-0.421 -0.154,-0.508 -0.029,-0.078 -0.006,-0.124 0.061,-0.171 0.394,-0.275 0.784,-0.554 1.176,-0.831 0.276,-0.195 0.28,-0.198 0.532,0.022 0.249,0.218 0.77,0.959 0.768,0.965 0.016,0.023 0.034,0.044 0.047,0.069 0.339,0.686 0.239,1.339 -0.155,1.966 -0.338,0.541 -0.834,0.805 -1.469,0.803 -0.452,-10e-4 -0.878,-0.122 -1.28,-0.325 -0.681,-0.344 -1.362,-0.688 -2.039,-1.04 -0.325,-0.169 -0.283,-0.072 -0.125,-0.411 0.003,-0.007 0.011,-0.012 0.016,-0.018 z m -1.4667,-3.832 c -0.546,-0.711 -1.641,-0.692 -2.163,0.036 -0.451,0.629 -0.432,1.742 0.013,2.374 0.495,0.704 1.878,0.767 2.338,-0.293 0.127,-0.293 0.176,-0.598 0.174,-0.915 0.001,-0.437 -0.091,-0.848 -0.362,-1.202 m 0.736,1.428 c -0.065,0.93 -0.593,1.68 -1.578,1.775 -0.857,0.082 -1.591,-0.273 -1.903,-1.164 -0.094,-0.268 -0.129,-0.546 -0.116,-0.829 0,-0.092 -0.007,-0.184 0,-0.275 0.074,-0.863 0.581,-1.626 1.559,-1.725 0.922,-0.093 1.675,0.324 1.947,1.256 0.092,0.315 0.113,0.638 0.091,0.962 m -3.7042,-2.0024 c -0.002,-0.123 -0.028,-0.167 -0.162,-0.166 -0.75,0.006 -1.501,0.006 -2.251,0 -0.122,-0.001 -0.155,0.033 -0.154,0.154 0.006,0.599 0.003,1.198 0.003,1.798 0,0.594 0.002,1.188 -0.002,1.781 -0.001,0.112 0.015,0.162 0.147,0.161 0.729,-0.007 1.458,-0.007 2.187,0 0.133,0.001 0.145,-0.052 0.146,-0.162 0.002,-0.116 -0.015,-0.171 -0.155,-0.169 -0.599,0.008 -1.199,0.001 -1.798,0.006 -0.124,10e-4 -0.169,-0.025 -0.166,-0.159 0.01,-0.367 0.007,-0.734 0.002,-1.101 -0.002,-0.107 0.031,-0.139 0.137,-0.138 0.556,0.005 1.113,-0.003 1.668,0.006 0.143,0.002 0.153,-0.058 0.155,-0.171 0.002,-0.115 -0.021,-0.161 -0.15,-0.159 -0.546,0.007 -1.091,-10e-4 -1.636,0.005 -0.129,0.002 -0.179,-0.024 -0.176,-0.166 0.01,-0.399 0.009,-0.799 0.001,-1.198 -0.003,-0.126 0.029,-0.166 0.161,-0.165 0.626,0.008 1.252,0 1.879,0.007 0.128,10e-4 0.166,-0.035 0.164,-0.164 m -3.0302,0.4529 c 0,-0.067 -0.003,-0.124 -0.068,-0.168 -0.721,-0.486 -1.499,-0.68 -2.333,-0.373 -0.714,0.262 -1.096,0.811 -1.155,1.573 -0.028,0.357 -0.008,0.713 0.105,1.056 0.313,0.951 1.13,1.325 2.064,1.234 0.615,-0.059 1.071,-0.342 1.288,-0.946 0.025,-0.068 0.055,-0.149 -0.057,-0.154 -0.095,-0.005 -0.213,-0.167 -0.286,0.013 -0.239,0.586 -0.681,0.835 -1.299,0.81 -0.595,-0.025 -1.024,-0.305 -1.277,-0.843 -0.319,-0.678 -0.199,-1.653 0.257,-2.136 0.442,-0.468 0.991,-0.523 1.582,-0.406 0.263,0.052 0.5,0.166 0.724,0.311 0.071,0.046 0.102,0.1 0.1,0.186 -0.005,0.237 -0.007,0.475 10e-4,0.712 0.002,0.11 -0.039,0.138 -0.142,0.137 -0.318,-0.006 -0.637,0.005 -0.955,-0.006 -0.137,-0.004 -0.145,0.058 -0.144,0.165 0.001,0.103 0.002,0.173 0.142,0.166 0.221,-0.012 0.442,-0.003 0.664,-0.003 0.216,0 0.432,-0.006 0.647,0.002 0.117,0.005 0.145,-0.038 0.144,-0.148 -0.006,-0.394 -0.003,-0.788 -0.002,-1.182 m -4.6704,0.2479 c -0.533,-0.871 -1.81,-0.875 -2.31,0.014 -0.395,0.703 -0.393,1.448 0.005,2.15 0.483,0.85 1.743,0.863 2.283,0.046 0.224,-0.342 0.301,-0.724 0.294,-1.139 0.01,-0.374 -0.069,-0.739 -0.272,-1.071 m 0.652,1.257 c -0.071,1.051 -0.616,1.698 -1.57,1.814 -0.963,0.117 -1.706,-0.368 -1.956,-1.302 -0.113,-0.42 -0.121,-0.846 -0.027,-1.267 0.146,-0.656 0.497,-1.159 1.168,-1.346 0.67,-0.186 1.313,-0.116 1.838,0.397 0.426,0.416 0.542,0.955 0.554,1.541 -0.002,0.045 -0.003,0.104 -0.007,0.163"
       id="path29"
       inkscape:connector-curvature="0"
       style="fill:#565759" />
    <path
       d="m 127.925,11.5815 c -0.002,-0.128 -0.037,-0.163 -0.165,-0.161 -0.744,0.006 -1.489,0.006 -2.234,-0.001 -0.142,-10e-4 -0.167,0.048 -0.166,0.176 0.006,0.594 0.003,1.187 0.003,1.781 0,0.593 0.003,1.187 -0.002,1.781 -0.002,0.117 0.026,0.157 0.152,0.156 0.728,-0.005 1.457,-0.007 2.185,0.001 0.149,0.002 0.145,-0.066 0.15,-0.174 0.004,-0.116 -0.023,-0.158 -0.15,-0.157 -0.605,0.007 -1.209,0 -1.813,0.006 -0.13,0.002 -0.165,-0.038 -0.162,-0.163 0.007,-0.356 0.009,-0.713 -0.001,-1.068 -0.004,-0.142 0.047,-0.169 0.176,-0.167 0.544,0.006 1.09,-0.003 1.635,0.006 0.14,0.002 0.154,-0.052 0.156,-0.168 0.003,-0.126 -0.03,-0.165 -0.161,-0.163 -0.551,0.008 -1.101,0 -1.651,0.006 -0.123,0.002 -0.156,-0.035 -0.154,-0.155 0.006,-0.405 0.007,-0.81 -0.001,-1.214 -0.003,-0.134 0.046,-0.16 0.167,-0.159 0.621,0.005 1.242,-0.001 1.862,0.005 0.133,0.002 0.176,-0.03 0.174,-0.168 m -3.0155,-0.0116 c 0,-0.108 -0.022,-0.146 -0.14,-0.152 -0.172,-0.007 -0.28,0.041 -0.381,0.194 -0.642,0.967 -1.298,1.924 -1.95,2.884 -0.039,0.057 -0.067,0.124 -0.128,0.162 -0.051,-0.022 -0.032,-0.064 -0.032,-0.099 0.006,-0.983 0.011,-1.965 0.024,-2.947 0.001,-0.143 -0.029,-0.192 -0.184,-0.196 -0.17,-0.003 -0.175,0.073 -0.175,0.202 0.003,1.166 0.001,2.332 0.004,3.498 10e-4,0.065 -0.052,0.18 0.058,0.186 0.117,0.007 0.257,0.073 0.353,-0.073 0.19,-0.289 0.386,-0.573 0.58,-0.859 0.503,-0.742 1.005,-1.484 1.509,-2.225 0.028,-0.041 0.044,-0.099 0.125,-0.118 0,0.278 0.002,0.55 -0.001,0.822 -0.007,0.772 -0.01,1.543 -0.027,2.315 -0.004,0.168 0.087,0.146 0.191,0.148 0.107,0.003 0.177,0.005 0.176,-0.147 -0.007,-1.198 -0.005,-2.397 -0.002,-3.595"
       id="path31"
       inkscape:connector-curvature="0"
       style="fill:#565759" />
  </g>
  <path
     d="m 119.53431,137.95531 -0.0115,-7.0389 h 0.91128 v 8.42851 h -0.91128 l -4.85142,-7.09595 0.0229,7.09595 H 113.783 v -8.42852 h 0.95665 l 4.79472,7.03891 z m 1.91769,-7.0389 h 4.47161 v 0.83139 h -3.53782 v 2.92713 h 3.51497 v 0.8314 h -3.51497 v 3.00719 h 3.53782 v 0.8314 H 121.452 Z m 4.89695,4.23702 c 0,-2.59658 2.01603,-4.38513 4.39663,-4.38513 2.4715,0 4.39646,1.89078 4.39646,4.36228 0,2.47183 -1.91345,4.36227 -4.39646,4.36227 -2.49451,0 -4.39663,-1.92497 -4.39663,-4.32825 v -0.0112 z m 0.9453,-0.0228 c 0,1.98183 1.49201,3.53087 3.46267,3.53087 1.99318,0 3.45116,-1.60557 3.45116,-3.53087 0,-1.92497 -1.45781,-3.53088 -3.4625,-3.53088 -1.98183,0 -3.45132,1.57172 -3.45132,3.5192 v 0.0117 z m 15.62805,-2.02737 c -0.26201,-0.36441 -0.58106,-0.67195 -0.94547,-0.91111 -0.54671,-0.37592 -1.20732,-0.5924 -1.95899,-0.5924 -1.84524,0 -3.45116,1.41228 -3.45116,3.5192 0,2.14144 1.61743,3.55373 3.4625,3.55373 0.88843,0 1.6743,-0.30721 2.25519,-0.76302 0.5924,-0.46715 1.00234,-1.10474 1.1391,-1.76569 h -4.58755 v -0.77452 h 5.68095 c -0.0113,0.49 -0.12525,1.10474 -0.37592,1.62893 -0.72899,1.58324 -2.41479,2.50569 -4.11177,2.50569 -2.46015,0 -4.4078,-1.89061 -4.4078,-4.38512 0,-2.52837 1.98184,-4.35093 4.41914,-4.35093 1.70849,0 3.29172,0.95681 3.95233,2.3349 h -1.07055 z m 2.04632,-2.1868 h 4.66981 v 0.83139 h -3.73568 v 2.92713 h 3.713 v 0.8314 h -3.713 v 3.00719 h 3.73568 v 0.8314 h -4.66981 z m 5.04573,4.23702 c 0,-2.59658 2.01603,-4.38513 4.39646,-4.38513 2.47167,0 4.39646,1.89078 4.39646,4.36228 0,2.47183 -1.91345,4.36227 -4.39646,4.36227 -2.49434,0 -4.39646,-1.92497 -4.39646,-4.32825 v -0.0112 z m 0.9453,-0.0228 c 0,1.98183 1.49201,3.53087 3.4625,3.53087 1.99335,0 3.45116,-1.60557 3.45116,-3.53087 0,-1.92497 -1.45781,-3.53088 -3.4625,-3.53088 -1.98183,0 -3.45116,1.57172 -3.45116,3.5192 v 0.0117 z m 18.24934,0.0228 c 0,-2.59658 2.01585,-4.38513 4.39663,-4.38513 2.47166,0 4.39663,1.89078 4.39663,4.36228 0,2.47183 -1.91346,4.36227 -4.39663,4.36227 -2.49435,0 -4.39663,-1.92497 -4.39663,-4.32825 v -0.0112 z m 0.94513,-0.0228 c 0,1.98183 1.49217,3.53087 3.46284,3.53087 1.99334,0 3.45133,-1.60557 3.45133,-3.53087 0,-1.92497 -1.45782,-3.53088 -3.46267,-3.53088 -1.98167,0 -3.4515,1.57172 -3.4515,3.5192 v 0.0117 z m 17.25596,1.94781 c -0.54653,1.29854 -2.01585,2.41496 -3.87244,2.41496 -2.49418,0 -4.39663,-1.92496 -4.39663,-4.3621 0,-2.40345 1.85675,-4.36244 4.38478,-4.36244 2.08407,0 3.39429,1.38961 3.88378,2.46016 h -1.01385 c -0.28503,-0.501 -1.24133,-1.62877 -2.86993,-1.62877 -1.97049,0 -3.45115,1.56039 -3.45115,3.51937 0,1.99335 1.49166,3.54239 3.45115,3.54239 1.76587,0 2.66496,-1.26435 2.86993,-1.58323 z m 9.24873,-6.16198 h 4.67015 v 0.83139 h -3.73585 v 2.92713 h 3.71283 v 0.8314 h -3.71283 v 3.00719 h 3.73585 v 0.8314 h -4.67015 z m 9.40801,0.83139 h -2.71608 v -0.83139 h 6.38879 v 0.83139 h -2.72724 v 7.59712 h -0.94547 z m -11.78946,7.59712 h 1.17329 l -4.37885,-4.22602 4.02544,-4.20266 h -1.02485 l -4.41846,4.56961 v -4.56945 h -0.93397 v 8.42852 h 0.93397 v -2.74671 l 0.85982,-0.89808 z"
     id="path35"
     inkscape:connector-curvature="0"
     style="fill:#1d1d1b" />
  <path
     d="m 165.03307,139.98911 c -1.83441,-3.64817 -3.66375,-7.28653 -5.49427,-10.9276 0.0102,-0.007 0.0183,-0.014 0.0276,-0.0186 0.45649,-0.23357 0.91315,-0.46715 1.36947,-0.70038 0.6452,-0.32938 1.29058,-0.65723 1.93511,-0.9883 0.67754,-0.34799 1.38961,-0.55736 2.15821,-0.53248 0.52317,0.0169 1.00285,0.16909 1.42362,0.49 0.37135,0.28334 0.63421,0.6513 0.83562,1.06734 0.1911,0.39471 0.32735,0.80549 0.33496,1.24861 0.0107,0.61542 -0.17535,1.17194 -0.50523,1.68868 -0.22105,0.34562 -0.47324,0.66366 -0.76911,0.94513 -0.20378,0.19397 -0.42162,0.37305 -0.63285,0.55838 -0.77334,-0.54856 -1.53025,-1.08494 -2.29022,-1.62368 0.14438,-0.5269 0.28655,-1.04906 0.42974,-1.57257 h 2.19019 v -1.66262 c -1.13097,0.0108 -2.24943,0.0215 -3.36771,0.0327 -0.4074,1.15112 -0.81294,2.29597 -1.21865,3.44303 1.3092,1.08291 2.61401,2.1621 3.91983,3.24247 0.51894,-0.19787 1.01131,-0.4416 1.47474,-0.74254 0.73847,-0.47984 1.35406,-1.08257 1.80614,-1.84169 0.41993,-0.70563 0.631,-1.47423 0.64251,-2.29496 0.007,-0.50862 -0.0701,-1.00589 -0.2197,-1.49336 -0.19854,-0.64588 -0.50557,-1.2305 -0.97408,-1.7205 -0.87827,-0.91957 -1.95543,-1.4138 -3.2296,-1.45916 -0.75319,-0.0267 -1.46577,0.14336 -2.13806,0.48102 -0.3028,0.15234 -0.59934,0.31685 -0.904,0.46445 -0.67872,0.32819 -1.36083,0.64944 -2.04158,0.97289 -0.60036,0.28537 -1.20088,0.56972 -1.80124,0.85424 -0.20294,0.0963 -0.40605,0.19295 -0.60933,0.28943 2.03888,4.15713 4.07538,8.30935 6.11087,12.46158 0.51607,-0.22207 1.02147,-0.43973 1.53703,-0.66146 z"
     id="path37"
     inkscape:connector-curvature="0"
     style="fill:none" />
  <path
     d="m 165.03307,139.98911 c -0.51573,0.2219 -1.02096,0.43939 -1.53787,0.66146 -2.03532,-4.15172 -4.07217,-8.30428 -6.11087,-12.46141 0.20328,-0.0965 0.40621,-0.19312 0.60932,-0.28943 0.60036,-0.28469 1.20089,-0.56904 1.80124,-0.85424 0.68075,-0.32345 1.36286,-0.6447 2.04158,-0.97289 0.30467,-0.1476 0.60121,-0.31211 0.90401,-0.46445 0.67229,-0.33783 1.38486,-0.50777 2.13789,-0.48103 1.27434,0.0454 2.35149,0.5396 3.22977,1.45917 0.4685,0.49 0.77553,1.07445 0.9739,1.7205 0.1498,0.4873 0.22698,0.98474 0.21987,1.49336 -0.0115,0.82073 -0.22224,1.58933 -0.6425,2.29496 -0.45243,0.75895 -1.06768,1.36168 -1.80649,1.84169 -0.46308,0.3006 -0.95545,0.5445 -1.4744,0.74237 -1.30582,-1.0802 -2.61062,-2.15939 -3.91983,-3.2423 0.40571,-1.14706 0.81125,-2.29191 1.21865,-3.44303 1.11829,-0.011 2.23725,-0.0218 3.36772,-0.0327 v 1.66262 h -2.19019 c -0.14319,0.52351 -0.28571,1.04567 -0.42975,1.57257 0.75997,0.53874 1.51672,1.07512 2.29023,1.62368 0.21123,-0.18533 0.42906,-0.36441 0.63285,-0.55838 0.29586,-0.28147 0.54805,-0.59951 0.76894,-0.94513 0.33005,-0.51674 0.51623,-1.07326 0.5054,-1.68868 -0.008,-0.44312 -0.14404,-0.85391 -0.33496,-1.24861 -0.20108,-0.41604 -0.46411,-0.784 -0.83563,-1.06734 -0.42077,-0.32091 -0.90045,-0.47291 -1.42362,-0.49 -0.7686,-0.0249 -1.48066,0.18432 -2.1582,0.53248 -0.64419,0.33107 -1.28991,0.65892 -1.93512,0.9883 -0.45649,0.23323 -0.91314,0.46681 -1.36946,0.70038 -0.009,0.005 -0.0176,0.0117 -0.0276,0.0186 1.83153,3.6409 3.66087,7.27926 5.49511,10.92743 z m 1.29397,-15.98112 c -0.36593,-0.0753 -0.72171,-0.14877 -1.08714,-0.22409 0.21276,-1.42092 0.42551,-2.84149 0.63878,-4.26563 0.66603,0.0972 1.32562,0.1938 1.99571,0.2918 -0.51708,1.40281 -1.03128,2.79766 -1.54735,4.19792 z m 5.94094,-1.1589 c 0.35341,0.57226 0.70191,1.13741 1.05633,1.71153 -1.15416,0.71461 -2.30782,1.42853 -3.46504,2.14466 -0.24271,-0.36221 -0.48069,-0.71782 -0.72408,-1.08172 1.04347,-0.92398 2.08474,-1.84626 3.13279,-2.77447 z m -2.78767,-2.23369 c 0.51065,0.3529 1.01199,0.69971 1.51553,1.0477 -0.9101,1.08528 -1.81749,2.16734 -2.73114,3.25635 -0.31956,-0.19719 -0.63624,-0.39251 -0.96189,-0.59359 0.7229,-1.23135 1.44698,-2.46557 2.1775,-3.71046 z"
     id="path39"
     inkscape:connector-curvature="0"
     style="fill:#f10000" />
</svg>
