<?xml version="1.0" encoding="UTF-8" standalone="no"?>
<svg
   xmlns:dc="http://purl.org/dc/elements/1.1/"
   xmlns:cc="http://creativecommons.org/ns#"
   xmlns:rdf="http://www.w3.org/1999/02/22-rdf-syntax-ns#"
   xmlns:svg="http://www.w3.org/2000/svg"
   xmlns="http://www.w3.org/2000/svg"
   xmlns:sodipodi="http://sodipodi.sourceforge.net/DTD/sodipodi-0.dtd"
   xmlns:inkscape="http://www.inkscape.org/namespaces/inkscape"
   width="30"
   height="30"
   version="1.1"
   id="svg4"
   sodipodi:docname="icon_filled.svg"
   inkscape:version="0.92.4 5da689c313, 2019-01-14">
  <metadata
     id="metadata10">
    <rdf:RDF>
      <cc:Work
         rdf:about="">
        <dc:format>image/svg+xml</dc:format>
        <dc:type
           rdf:resource="http://purl.org/dc/dcmitype/StillImage" />
      </cc:Work>
    </rdf:RDF>
  </metadata>
  <defs
     id="defs8" />
  <sodipodi:namedview
     pagecolor="#ffffff"
     bordercolor="#666666"
     borderopacity="1"
     objecttolerance="10"
     gridtolerance="10"
     guidetolerance="10"
     inkscape:pageopacity="0"
     inkscape:pageshadow="2"
     inkscape:window-width="471"
     inkscape:window-height="442"
     id="namedview6"
     showgrid="false"
     inkscape:zoom="7.8666667"
     inkscape:cx="15"
     inkscape:cy="15"
     inkscape:window-x="0"
     inkscape:window-y="0"
     inkscape:window-maximized="0"
     inkscape:current-layer="svg4">
    <inkscape:grid
       type="xygrid"
       id="grid12" />
  </sodipodi:namedview>
  <path
     fill="red"
     d="M10.251244 9.0301c-.11208.069-6.5894403 3.137-6.5894403 3.137L11.783352 28.737l2.043789-.8908-7.2976671-14.5213 4.5804191-2.341s4.377038-2.3534 5.941628 1.9911c1.08541 3.0146-2.33422 5.3312-2.33422 5.3312l-3.027838-2.1471.579909-2.083h2.920299l-.0214-2.2118-4.471258.04-1.6269691 4.5772 5.2178171 4.3163c4.92283-1.8869 6.12551-6.0534 4.57911-9.3607-1.3112-2.8053-5.22302-4.5115-8.615687-2.4066zm7.0124239-7.905154L14.6110637.7370453l-.85539582 5.67394153 1.4502419.2972606m7.0325687-2.9241997L18.6102747 8.12405257l-1.2852054-.7959437 2.89723506-4.9380997m5.20319768 5.63170778l-4.60542772 2.85565107-.96033044-1.44309466 4.1616485-3.6876559"
     id="path2" />
</svg>
