<?xml version="1.0" encoding="UTF-8" standalone="no"?>
<svg
   xmlns:dc="http://purl.org/dc/elements/1.1/"
   xmlns:cc="http://creativecommons.org/ns#"
   xmlns:rdf="http://www.w3.org/1999/02/22-rdf-syntax-ns#"
   xmlns:svg="http://www.w3.org/2000/svg"
   xmlns="http://www.w3.org/2000/svg"
   xmlns:sodipodi="http://sodipodi.sourceforge.net/DTD/sodipodi-0.dtd"
   xmlns:inkscape="http://www.inkscape.org/namespaces/inkscape"
   viewBox="0 0 178.04153 221.69676"
   version="1.1"
   id="svg153"
   sodipodi:docname="console.svg"
   width="178.04153"
   height="221.69676"
   inkscape:version="0.92.4 5da689c313, 2019-01-14">
  <metadata
     id="metadata159">
    <rdf:RDF>
      <cc:Work
         rdf:about="">
        <dc:format>image/svg+xml</dc:format>
        <dc:type
           rdf:resource="http://purl.org/dc/dcmitype/StillImage" />
      </cc:Work>
    </rdf:RDF>
  </metadata>
  <defs
     id="defs157" />
  <sodipodi:namedview
     pagecolor="#ffffff"
     bordercolor="#666666"
     borderopacity="1"
     objecttolerance="10"
     gridtolerance="10"
     guidetolerance="10"
     inkscape:pageopacity="0"
     inkscape:pageshadow="2"
     inkscape:window-width="640"
     inkscape:window-height="480"
     id="namedview155"
     showgrid="false"
     inkscape:zoom="1.0645208"
     inkscape:cx="89.020923"
     inkscape:cy="110.84858"
     inkscape:window-x="0"
     inkscape:window-y="0"
     inkscape:window-maximized="0"
     inkscape:current-layer="svg153">
    <inkscape:grid
       type="xygrid"
       id="grid966"
       originx="0.00042252107"
       originy="0.00057721643" />
  </sodipodi:namedview>
  <path
     d="m 86.780423,0.01319057 c -23.06,-0.095 -57.556,-0.237 -71.333,21.33300043 -1.861,2.913 -3.064,5.785 -5.333,15 -6.5130005,26.443 -7.7050005,47.864 -8.7390005,68.666999 -2.597,52.272 -2.654,69.75 10.1550005,84.417 0.469,0.538 0.917,1.021 0.917,1.021 7.846,8.32 18.906,9.808 25.833,10.646 19.269,2.331 30.25,3 30.25,3 25.052,1.527 37.392997,3.047 44.999997,4.5 16.307,3.114 18.317,4.365 25.058,8.046 0.593,0.324 8.928,4.317 11.317,4.829 0,0 7.708,1.651 16.625,-4 16.599,-10.519 11.618,-76.774 7.25,-139.624999 -0.082,-1.186 -0.213,-3.06 -0.469,-5.566 -1.032,-10.092 -4.135,-40.444 -17.031,-56.184 C 143.29342,0.24619057 121.14542,0.15519057 86.780423,0.01319057 Z"
     id="path2"
     inkscape:connector-curvature="0"
     style="fill:#8c8c8c" />
  <circle
     cx="90.803421"
     cy="154.46118"
     r="14"
     id="circle4"
     style="fill:#918f8b" />
  <g
     id="g8"
     style="fill:#7b7677"
     transform="translate(4.2252108e-4,1.9057487e-4)">
    <path
       d="m 92.226,147.249 a 7.36,7.36 0 0 1 5.772,5.705 h 2.489 a 9.807,9.807 0 0 0 -8.261,-8.19 z m -2.905,0.011 a 7.36,7.36 0 0 0 -5.714,5.694 h -2.489 a 9.807,9.807 0 0 1 8.261,-8.19 v 2.485 z m 0.058,14.413 a 7.358,7.358 0 0 1 -5.804,-5.872 h -2.481 a 9.807,9.807 0 0 0 8.285,8.357 z m 2.847,0 a 7.358,7.358 0 0 0 5.804,-5.872 h 2.481 a 9.807,9.807 0 0 1 -8.285,8.357 z"
       id="path6"
       inkscape:connector-curvature="0" />
  </g>
  <g
     stroke-miterlimit="10"
     id="g12"
     style="fill:#898784;stroke:#4c4c4c;stroke-width:0.01;stroke-miterlimit:10"
     transform="translate(4.2252108e-4,1.9057487e-4)">
    <path
       d="m 80.332,141.142 v -4.425 h 1.344 c 0.405,0 0.728,0.114 0.968,0.341 0.241,0.228 0.361,0.534 0.361,0.917 0,0.257 -0.062,0.485 -0.185,0.683 a 1.074,1.074 0 0 1 -0.507,0.432 c -0.215,0.09 -0.522,0.134 -0.923,0.134 h -0.449 v 1.917 h -0.609 z m 1.238,-3.861 h -0.628 v 1.382 h 0.665 c 0.247,0 0.437,-0.061 0.571,-0.182 0.133,-0.121 0.2,-0.294 0.2,-0.521 0,-0.453 -0.269,-0.679 -0.808,-0.679 z m 4.044,-0.621 c 0.655,0 1.201,0.216 1.636,0.648 0.435,0.432 0.654,0.974 0.654,1.626 0,0.651 -0.22,1.19 -0.66,1.618 -0.44,0.427 -0.995,0.641 -1.664,0.641 -0.639,0 -1.171,-0.214 -1.597,-0.641 -0.425,-0.427 -0.638,-0.962 -0.638,-1.605 0,-0.66 0.214,-1.206 0.643,-1.638 0.429,-0.432 0.971,-0.649 1.626,-0.649 z m 0.025,0.602 c -0.485,0 -0.884,0.158 -1.196,0.474 -0.313,0.316 -0.469,0.72 -0.469,1.211 0,0.477 0.157,0.873 0.47,1.189 0.313,0.316 0.706,0.475 1.176,0.475 0.473,0 0.868,-0.162 1.184,-0.484 0.316,-0.323 0.475,-0.725 0.475,-1.205 0,-0.468 -0.158,-0.862 -0.475,-1.182 -0.317,-0.32 -0.705,-0.478 -1.165,-0.478 z m 8.164,-0.538 h 0.605 l -1.714,4.438 h -0.133 l -1.386,-3.593 -1.4,3.593 h -0.13 l -1.709,-4.438 h 0.612 l 1.168,3.046 1.176,-3.046 h 0.574 l 1.182,3.046 z m 1.076,0 h 2.404 v 0.563 h -1.797 v 1.347 h 1.736 v 0.566 h -1.736 v 1.373 h 1.854 v 0.563 h -2.461 z m 3.125,4.418 v -4.418 h 1.063 c 0.429,0 0.77,0.11 1.021,0.332 0.252,0.221 0.378,0.521 0.378,0.898 0,0.257 -0.062,0.48 -0.185,0.667 -0.124,0.188 -0.3,0.328 -0.531,0.421 0.136,0.093 0.268,0.219 0.398,0.379 0.129,0.16 0.312,0.44 0.546,0.838 0.148,0.251 0.266,0.439 0.355,0.566 l 0.225,0.316 h -0.723 l -0.185,-0.291 c -0.006,-0.011 -0.019,-0.029 -0.037,-0.054 l -0.118,-0.174 -0.188,-0.323 -0.203,-0.345 a 3.438,3.438 0 0 0 -0.344,-0.434 c -0.104,-0.107 -0.199,-0.185 -0.283,-0.232 -0.084,-0.047 -0.225,-0.071 -0.424,-0.071 h -0.158 v 1.923 h -0.607 z m 0.79,-3.88 h -0.182 v 1.395 h 0.23 c 0.308,0 0.519,-0.027 0.633,-0.082 0.114,-0.055 0.203,-0.138 0.267,-0.248 a 0.753,0.753 0 0 0 0.096,-0.378 c 0,-0.139 -0.036,-0.265 -0.106,-0.378 -0.07,-0.113 -0.17,-0.192 -0.299,-0.239 -0.129,-0.047 -0.342,-0.07 -0.639,-0.07 z"
       id="path10"
       inkscape:connector-curvature="0" />
  </g>
  <circle
     cx="90.803421"
     cy="154.37819"
     r="4.9689999"
     id="circle14"
     style="fill:#837c6f" />
  <circle
     cx="90.803421"
     cy="180.97218"
     r="11.223"
     id="circle16"
     style="fill:#918f8b" />
  <g
     id="g20"
     style="fill:#7b7677"
     transform="translate(4.2252108e-4,1.9057487e-4)">
    <path
       d="m 91.944,175.19 a 5.901,5.901 0 0 1 4.627,4.573 h 1.996 a 7.862,7.862 0 0 0 -6.622,-6.566 z m -2.329,0.009 a 5.902,5.902 0 0 0 -4.581,4.564 h -1.996 a 7.862,7.862 0 0 1 6.622,-6.566 v 1.992 z m 0.046,11.554 a 5.898,5.898 0 0 1 -4.653,-4.707 h -1.989 a 7.86,7.86 0 0 0 6.642,6.699 z m 2.283,0 a 5.898,5.898 0 0 0 4.653,-4.707 h 1.989 a 7.86,7.86 0 0 1 -6.642,6.699 z"
       id="path18"
       inkscape:connector-curvature="0" />
  </g>
  <circle
     cx="90.803421"
     cy="180.90518"
     r="3.983"
     id="circle22"
     style="fill:#5e4c3f" />
  <g
     stroke-miterlimit="10"
     id="g26"
     style="fill:#898784;stroke:#4c4c4c;stroke-width:0.01;stroke-miterlimit:10"
     transform="translate(4.2252108e-4,1.9057487e-4)">
    <path
       d="m 82.813,174.224 v -4.418 h 1.063 c 0.429,0 0.77,0.11 1.021,0.332 0.252,0.221 0.378,0.521 0.378,0.898 0,0.257 -0.062,0.48 -0.185,0.667 -0.124,0.188 -0.3,0.328 -0.531,0.421 0.136,0.093 0.268,0.219 0.398,0.379 0.129,0.16 0.312,0.44 0.546,0.838 0.148,0.251 0.266,0.439 0.355,0.566 l 0.225,0.316 H 85.36 l -0.185,-0.291 c -0.006,-0.011 -0.019,-0.029 -0.037,-0.054 l -0.118,-0.174 -0.188,-0.323 -0.203,-0.345 a 3.438,3.438 0 0 0 -0.344,-0.434 c -0.104,-0.107 -0.199,-0.185 -0.283,-0.232 -0.084,-0.047 -0.225,-0.071 -0.424,-0.071 H 83.42 v 1.923 h -0.607 z m 0.79,-3.88 h -0.182 v 1.395 h 0.23 c 0.308,0 0.519,-0.027 0.633,-0.082 0.114,-0.055 0.203,-0.138 0.267,-0.248 a 0.753,0.753 0 0 0 0.096,-0.378 c 0,-0.139 -0.036,-0.265 -0.106,-0.378 -0.07,-0.113 -0.17,-0.192 -0.299,-0.239 -0.129,-0.047 -0.342,-0.07 -0.639,-0.07 z m 2.946,-0.538 h 2.404 v 0.563 h -1.797 v 1.347 h 1.736 v 0.566 h -1.736 v 1.373 h 1.854 v 0.563 h -2.461 z m 4.158,2.567 -0.461,-0.292 c -0.29,-0.184 -0.495,-0.365 -0.618,-0.543 -0.123,-0.178 -0.184,-0.383 -0.184,-0.615 0,-0.348 0.116,-0.63 0.348,-0.848 0.231,-0.217 0.533,-0.326 0.903,-0.326 0.354,0 0.679,0.104 0.974,0.311 v 0.718 c -0.306,-0.306 -0.634,-0.459 -0.986,-0.459 a 0.793,0.793 0 0 0 -0.489,0.144 0.44,0.44 0 0 0 -0.191,0.367 0.58,0.58 0 0 0 0.141,0.372 c 0.094,0.115 0.245,0.237 0.453,0.364 l 0.463,0.286 c 0.517,0.322 0.776,0.732 0.776,1.229 0,0.354 -0.114,0.642 -0.341,0.863 -0.228,0.222 -0.523,0.333 -0.888,0.333 -0.419,0 -0.8,-0.134 -1.145,-0.403 v -0.803 c 0.328,0.433 0.708,0.649 1.138,0.649 0.19,0 0.349,-0.055 0.475,-0.166 0.126,-0.111 0.189,-0.249 0.189,-0.415 0.001,-0.27 -0.185,-0.524 -0.557,-0.766 z m 1.797,-2.567 h 2.404 v 0.563 h -1.797 v 1.347 h 1.736 v 0.566 h -1.736 v 1.373 h 1.854 v 0.563 h -2.461 z m 2.747,-0.006 h 3.542 v 0.563 h -1.478 v 3.862 h -0.61 v -3.862 h -1.454 z"
       id="path24"
       inkscape:connector-curvature="0" />
  </g>
  <path
     d="m 89.020423,27.013191 a 1.231,1.231 0 0 1 -1.228,-1.228 V 9.0751906 c 0,-0.676 0.553,-1.228 1.228,-1.228 0.676,0 1.228,0.553 1.228,1.228 V 25.785191 a 1.23,1.23 0 0 1 -1.228,1.228 z m -23.596,-12.678 1.08,3.852 a 1.295,1.295 0 0 0 1.592,0.895 1.295,1.295 0 0 0 0.895,-1.592 l -1.078,-3.852 V 9.6381906 c 0,-0.71 -0.581,-1.292 -1.292,-1.292 -0.71,0 -1.292,0.581 -1.292,1.292 z m 47.192997,0 -1.08,3.852 a 1.295,1.295 0 0 1 -1.592,0.895 1.295,1.295 0 0 1 -0.895,-1.592 l 1.078,-3.852 V 9.6381906 c 0,-0.71 0.581,-1.292 1.292,-1.292 0.71,0 1.292,0.581 1.292,1.292 z M 0.61042252,121.37819 H 18.196423 v -3.573 H 0.76642252 M 162.32042,99.305191 h 3.329 v 14.594999 h -3.329 z"
     id="path28"
     inkscape:connector-curvature="0"
     style="fill:#939393" />
  <path
     d="m 175.47842,102.58719 h -13.158 v -3.281999 h 12.939 m 0.558,8.489999 h -13.497 v -3.282 h 13.285 m -17.479,116.538 v -27.72 h -3.103 v 28.239"
     id="path30"
     inkscape:connector-curvature="0"
     style="fill:#939393" />
  <path
     d="m 176.61342,191.78019 h -20.039 v 3.103 h 19.611"
     id="path32"
     inkscape:connector-curvature="0"
     style="fill:#939393" />
  <g
     id="g40"
     style="fill:#91918b"
     transform="translate(4.2252108e-4,1.9057487e-4)">
    <path
       d="m 138.207,127.512 -4.158,4.623 a 3.024,3.024 0 0 0 0.226,4.259 l 5.447,4.899 8.191,-9.108 -5.447,-4.899 a 3.025,3.025 0 0 0 -4.259,0.226 z m 5.736,5.221 -4.096,4.554 -2.724,-2.449 a 1.513,1.513 0 0 1 -0.113,-2.13 l 2.079,-2.312 a 1.513,1.513 0 0 1 2.13,-0.113 z m -8.417,23.671 4.397,4.397 a 3.024,3.024 0 0 0 4.265,0 l 5.18,-5.18 -8.662,-8.662 -5.18,5.18 a 3.024,3.024 0 0 0 0,4.265 z m 5.517,-5.452 4.331,4.331 -2.59,2.59 a 1.514,1.514 0 0 1 -2.133,0 l -2.198,-2.198 a 1.514,1.514 0 0 1 0,-2.133 z"
       id="path34"
       inkscape:connector-curvature="0" />
    <path
       d="m 152.775,158.351 c -8.34,0 -15.125,-6.785 -15.125,-15.124 0,-8.34 6.785,-15.125 15.125,-15.125 8.34,0 15.125,6.785 15.125,15.125 0,8.339 -6.785,15.124 -15.125,15.124 z"
       id="path36"
       inkscape:connector-curvature="0" />
    <path
       d="m 164.236,162.283 4.397,-4.397 a 3.024,3.024 0 0 0 0,-4.265 l -5.18,-5.18 -8.662,8.662 5.18,5.18 a 3.024,3.024 0 0 0 4.265,0 z m -5.451,-5.518 4.331,-4.331 2.59,2.59 a 1.514,1.514 0 0 1 0,2.133 l -2.198,2.198 a 1.514,1.514 0 0 1 -2.133,0 z"
       id="path38"
       inkscape:connector-curvature="0" />
  </g>
  <g
     id="g46"
     style="fill:#84817e"
     transform="translate(4.2252108e-4,1.9057487e-4)">
    <path
       d="m 123.813,145.972 h -6.218 a 3.025,3.025 0 0 0 -3.016,3.016 v 7.326 h 12.25 v -7.326 a 3.025,3.025 0 0 0 -3.016,-3.016 z m -0.046,7.756 h -6.125 v -3.663 c 0,-0.829 0.679,-1.508 1.508,-1.508 h 3.109 c 0.829,0 1.508,0.679 1.508,1.508 z m -18.27,29.361 4.791,3.964 a 3.025,3.025 0 0 0 4.246,-0.401 l 4.67,-5.645 -9.439,-7.809 -4.67,5.645 a 3.025,3.025 0 0 0 0.402,4.246 z m 4.98,-5.947 4.719,3.904 -2.335,2.822 a 1.513,1.513 0 0 1 -2.123,0.201 l -2.395,-1.982 a 1.513,1.513 0 0 1 -0.201,-2.123 z"
       id="path42"
       inkscape:connector-curvature="0" />
    <path
       d="m 121.59,182.304 c -8.34,0 -15.125,-6.785 -15.125,-15.124 0,-8.34 6.785,-15.125 15.125,-15.125 8.34,0 15.125,6.785 15.125,15.125 0,8.339 -6.785,15.124 -15.125,15.124 z"
       id="path44"
       inkscape:connector-curvature="0" />
  </g>
  <circle
     cx="121.59042"
     cy="167.46918"
     r="11.156"
     id="circle48"
     style="fill:#004f8a" />
  <path
     d="m 119.12942,173.01419 h -2.726 v -10.263 h 2.581 c 1.628,0 2.845,0.807 2.845,2.712 0,0.836 -0.381,1.745 -1.202,2.127 0.865,0.308 1.379,1.217 1.379,2.331 -0.002,2.051 -1.176,3.093 -2.877,3.093 z m -0.102,-8.871 h -1.202 v 2.786 h 1.173 c 0.763,0 1.364,-0.44 1.364,-1.423 -0.002,-1.01 -0.558,-1.363 -1.335,-1.363 z m -0.059,4.164 h -1.144 v 3.314 h 1.291 c 0.864,0 1.421,-0.469 1.421,-1.701 0,-1.144 -0.673,-1.613 -1.568,-1.613 z"
     id="path50"
     inkscape:connector-curvature="0"
     style="fill:#014577" />
  <circle
     cx="18.196423"
     cy="119.59219"
     r="6.3379998"
     id="circle52"
     style="fill:#91918f" />
  <circle
     cx="163.98543"
     cy="113.89919"
     r="5.9060001"
     id="circle54"
     style="fill:#91918f" />
  <circle
     cx="156.57443"
     cy="193.33118"
     r="5.5050001"
     id="circle56"
     style="fill:#91918f" />
  <circle
     cx="27.087423"
     cy="187.70119"
     r="5.7919998"
     id="circle58"
     style="fill:#91918f" />
  <circle
     cx="52.446423"
     cy="10.842191"
     r="6.3379998"
     id="circle60"
     style="fill:#91918f" />
  <circle
     cx="125.59442"
     cy="10.81519"
     r="6.3379998"
     id="circle62"
     style="fill:#91918f" />
  <circle
     cx="148.85243"
     cy="21.625191"
     r="4.4720001"
     id="circle64"
     style="fill:#91918f" />
  <circle
     cx="29.188423"
     cy="21.492191"
     r="4.4720001"
     id="circle66"
     style="fill:#91918f" />
  <g
     id="g84"
     transform="translate(4.2252108e-4,1.9057487e-4)">
    <circle
       cx="18.195999"
       cy="119.592"
       r="1.786"
       id="circle68"
       style="fill:#878786" />
    <circle
       cx="163.985"
       cy="113.899"
       r="1.665"
       id="circle70"
       style="fill:#878786" />
    <circle
       cx="156.57401"
       cy="193.33099"
       r="1.552"
       id="circle72"
       style="fill:#878786" />
    <circle
       cx="27.087"
       cy="187.701"
       r="1.632"
       id="circle74"
       style="fill:#878786" />
    <circle
       cx="52.445999"
       cy="10.842"
       r="1.786"
       id="circle76"
       style="fill:#878786" />
    <circle
       cx="125.594"
       cy="10.815"
       r="1.786"
       id="circle78"
       style="fill:#878786" />
    <circle
       cx="148.85201"
       cy="21.625"
       r="1.26"
       id="circle80"
       style="fill:#878786" />
    <circle
       cx="29.188"
       cy="21.492001"
       r="1.26"
       id="circle82"
       style="fill:#878786" />
  </g>
  <g
     id="g90"
     transform="translate(4.2252108e-4,1.9057487e-4)">
    <circle
       cx="152.88499"
       cy="143.164"
       r="11.156"
       id="circle86"
       style="fill:#004f8a" />
    <path
       d="m 152.64,148.79 -0.602,-2.712 h -2.229 l -0.586,2.712 h -1.525 l 2.521,-10.262 h 1.481 l 2.507,10.262 z m -1.275,-5.806 c -0.147,-0.675 -0.367,-1.862 -0.441,-2.243 -0.072,0.381 -0.293,1.554 -0.439,2.243 l -0.381,1.73 h 1.642 z"
       id="path88"
       inkscape:connector-curvature="0"
       style="fill:#014577" />
  </g>
  <g
     id="g108"
     transform="translate(4.2252108e-4,1.9057487e-4)">
    <ellipse
       cx="89.019997"
       cy="75.097"
       rx="67.405998"
       ry="50.5"
       id="ellipse92" />
    <path
       d="m 43.395,74.472 c 0.229,16.312 0.167,22.458 0.542,28.667 0.075,1.237 1.542,1.583 9.583,1.958 6.995,0.326 15.425,0.5 35.501,0.5 20.076,0 28.505,-0.174 35.501,-0.5 8.042,-0.375 9.509,-0.721 9.583,-1.958 0.375,-6.208 0.313,-12.354 0.542,-28.667 -0.229,-16.312 -0.167,-22.458 -0.542,-28.667 -0.075,-1.237 -1.542,-1.583 -9.583,-1.958 -6.995,-0.326 -15.425,-0.5 -35.501,-0.5 -20.076,0 -28.505,0.174 -35.501,0.5 -8.042,0.375 -9.509,0.721 -9.583,1.958 -0.375,6.208 -0.313,12.354 -0.542,28.667 z"
       id="path94"
       inkscape:connector-curvature="0"
       style="fill:#7e7646" />
    <path
       d="m 57.284,109.227 v 6.708 h 1.793 v -2.369 h 1.394 c 0,0 1.803,-0.133 1.803,-1.432 v -1.299 c 0,0 -0.011,-1.609 -1.803,-1.609 -1.773,0.001 -3.179,0.023 -3.187,0.001 z m 1.793,1.299 h 0.956 c 0.491,0.129 0.438,0.574 0.438,0.574 v 0.566 c 0,0.47 -0.438,0.566 -0.438,0.566 h -0.956 z m 5.976,0.309 c -0.496,-10e-4 -2.48,0.139 -2.48,2.537 0,2.74 2.59,2.563 2.59,2.563 0,0 2.53,-0.023 2.53,-2.563 0,-2.54 -2.502,-2.535 -2.53,-2.537 z m 0.11,1.3 c 0,0 0.926,-0.133 0.926,1.237 0,1.269 -0.926,1.131 -0.926,1.131 0,0 -0.966,0.01 -0.966,-1.131 0,-1.375 0.966,-1.222 0.966,-1.237 z m 3.288,-3.301 h 1.622 v 3.88 l 1.255,-1.878 h 1.733 l -1.733,2.249 1.733,2.853 h -1.733 l -1.255,-2.375 v 2.375 h -1.622 z m 7.23,2.001 c -1.913,0 -2.351,1.296 -2.351,2.537 0,1.241 0.846,2.563 2.48,2.563 1.634,0 1.783,-0.292 1.783,-0.292 v -0.857 c -0.012,-0.003 -1.338,0 -2.042,0 -0.704,0 -0.568,-0.84 -0.568,-0.84 h 3.038 v -0.937 c 0.001,0.001 0.002,-2.174 -2.34,-2.174 z m 0.11,1.114 c 0.808,0 0.817,0.283 0.817,0.283 v 0.778 h -1.624 v -0.778 c 0,0 -10e-4,-0.283 0.807,-0.283 z m -1.737,-2.423 0.613,0.769 2.331,-1.237 -0.718,-0.794 -2.197,1.25 z m 4.775,6.412 h 1.434 v -2.933 c 0,0 0.06,-0.771 0.797,-0.771 0.737,0 0.737,0.771 0.737,0.771 v 2.933 h 1.355 v -2.933 c 0,0 0.03,-0.771 0.767,-0.771 0.737,0 0.737,0.771 0.737,0.771 v 2.933 h 1.404 v -3.704 c 0,0 0.1,-1.399 -1.404,-1.399 -1.504,0 -1.504,0.832 -1.504,0.832 0,0 0.179,-0.832 -1.355,-0.832 -1.534,0 -1.534,0.832 -1.534,0.832 0,0 0.219,-0.832 -0.608,-0.832 h -0.827 v 5.103 z m 10.608,-5.1 c -0.496,-10e-4 -2.48,0.139 -2.48,2.537 0,2.74 2.59,2.563 2.59,2.563 0,0 2.53,-0.023 2.53,-2.563 0,-2.54 -2.502,-2.535 -2.53,-2.537 z m 0.109,1.299 c 0,0 0.926,-0.133 0.926,1.237 0,1.269 -0.926,1.131 -0.926,1.131 0,0 -0.966,0.01 -0.966,-1.131 0,-1.374 0.966,-1.221 0.966,-1.237 z m 3.317,3.801 h 1.564 v -2.933 c 0,0 -0.04,-0.771 0.827,-0.771 0.867,0 0.867,0.771 0.867,0.771 v 2.933 h 1.454 v -3.704 c 0,0 0.01,-1.399 -1.454,-1.399 -1.464,0 -1.693,0.832 -1.693,0.832 0,0 0.139,-0.832 -0.438,-0.832 h -1.126 v 5.103 z"
       id="path96"
       inkscape:connector-curvature="0"
       style="fill:#ffffff" />
    <path
       d="m 101.297,110.836 h 6.712 c 0,0 0.648,-0.022 0.648,0.543 v 4.264 c 0,0 0.014,0.295 -0.31,0.295 h -0.972 c 0,0 -0.324,-0.007 -0.324,-0.295 v -2.638 c 0,0 -0.028,-0.337 -0.31,-0.337 h -0.972 c 0,0 -0.324,-0.033 -0.324,0.337 v 2.638 c 0,0 -0.042,0.295 -0.324,0.295 h -0.916 c 0,0 -0.352,0.018 -0.352,-0.295 v -2.638 c 0,0 0.099,-0.337 -0.338,-0.337 h -0.916 c 0,0 -0.324,-0.033 -0.324,0.337 v 2.638 c 0,0 0,0.295 -0.324,0.295 h -0.972 c 0,0 -0.296,-0.02 -0.296,-0.295 v -4.264 c 0,0 0.015,-0.502 0.614,-0.543 z m 9.894,2.54 c 0,0 0.311,-0.021 0.311,0.273 v 1.995 c 0,0 -0.033,0.295 -0.302,0.295 h -0.657 c 0,0 -0.323,-0.008 -0.323,-0.295 v -1.995 c 0,0 0.014,-0.273 0.333,-0.273 0.319,0 0.618,0.01 0.638,0 z m -0.638,-0.857 c 0,0 -0.333,0.005 -0.333,-0.284 v -0.855 c 0,0 -0.001,-0.283 0.338,-0.283 h 0.637 c 0,0 0.307,-0.006 0.307,0.283 v 0.855 c 0,0 0.032,0.284 -0.302,0.284 -0.334,0 -0.637,-0.004 -0.647,0 z m 2.54,3.125 c 0,0 0.01,0.295 0.329,0.295 h 0.936 c 0,0 0.329,-0.016 0.329,-0.295 v -2.638 c 0,0 0.01,-0.337 0.319,-0.337 h 0.956 c 0,0 0.329,-0.033 0.329,0.337 v 2.638 c 0,0 -0.02,0.295 0.319,0.295 h 0.647 c 0,0 0.299,-0.016 0.299,-0.295 v -3.976 c 0,0 -0.01,-0.571 -0.637,-0.571 h -3.177 c 0,0 -0.647,0.005 -0.647,0.571 -0.002,0.567 0.028,4.007 -0.002,3.976 z m 7.351,-2.268 c 0,0 0.311,-0.021 0.311,0.273 v 1.995 c 0,0 -0.033,0.295 -0.302,0.295 h -0.657 c 0,0 -0.323,-0.008 -0.323,-0.295 v -1.995 c 0,0 0.014,-0.273 0.333,-0.273 0.32,0 0.618,0.01 0.638,0 z m -0.637,-0.857 c 0,0 -0.333,0.005 -0.333,-0.284 v -0.855 c 0,0 -0.001,-0.283 0.338,-0.283 h 0.637 c 0,0 0.307,-0.006 0.307,0.283 v 0.855 c 0,0 0.032,0.284 -0.302,0.284 -0.334,0 -0.637,-0.004 -0.647,0 z"
       id="path98"
       inkscape:connector-curvature="0"
       style="fill:#f1d941" />
    <g
       id="g106"
       style="clip-rule:evenodd;fill:#ffffff;fill-rule:evenodd">
      <path
         d="M 102.662,29.745 H 75.379 c -2.887,-0.006 -4.827,2.092 -4.827,4.608 0,2.515 1.935,4.59 4.831,4.59 h 27.273 c 2.896,-10e-4 4.831,-2.075 4.831,-4.59 0.001,-2.516 -1.938,-4.614 -4.825,-4.608 z m -0.014,8.07 H 75.393 c -2.302,0.009 -3.7,-1.553 -3.7,-3.469 0,-1.916 1.408,-3.465 3.7,-3.47 h 27.255 c 2.293,0.004 3.701,1.553 3.701,3.47 0,1.916 -1.4,3.478 -3.701,3.469 z"
         id="path100"
         inkscape:connector-curvature="0" />
      <path
         d="m 77.398,35.191 -1.847,-3.02 h -1.334 l -0.001,4.331 h 1.326 v -3.02 l 1.856,3.02 H 78.72 V 32.171 H 77.397 Z M 87.907,33.627 V 33.2 H 87.209 V 32.617 H 85.92 l 0.001,0.583 h -0.7 v 0.427 h 0.699 v 2.875 h 1.29 l -10e-4,-2.875 z m -8.449,-0.005 h 1.288 v 2.88 h -1.288 z m -0.003,-1.451 h 1.291 v 0.886 h -1.291 z m 22.576,1.255 c -1.04,0 -1.882,0.724 -1.882,1.617 0,0.892 0.842,1.616 1.882,1.616 1.04,0 1.883,-0.724 1.883,-1.616 -0.001,-0.893 -0.843,-1.617 -1.883,-1.617 z m 0.516,2.223 c 0,0.459 -0.268,0.649 -0.526,0.649 -0.258,0 -0.528,-0.19 -0.528,-0.649 l 0.001,-0.621 0.001,-0.6 c 0,-0.457 0.269,-0.645 0.526,-0.645 0.257,0 0.526,0.188 0.526,0.645 l 0.001,0.613 z m -4.089,-1.884 c -0.206,-0.117 -0.423,-0.229 -0.729,-0.257 -0.928,-0.082 -1.638,0.747 -1.638,1.508 0,1.001 0.765,1.373 0.881,1.428 0.434,0.204 0.991,0.205 1.483,-0.108 l 0.001,0.166 h 1.273 v -4.33 h -1.272 c 0.001,-10e-4 0.001,0.927 0.001,1.593 z m 0.009,1.283 v 0.511 c 0,0.445 -0.304,0.561 -0.505,0.561 -0.205,0 -0.505,-0.116 -0.505,-0.561 l 0.001,-0.512 -0.001,-0.514 c 0,-0.445 0.3,-0.558 0.505,-0.558 0.201,0 0.505,0.113 0.505,0.558 z M 83.762,33.489 a 1.542,1.542 0 0 0 -1.027,0.434 V 33.62 l -1.28,0.001 0.001,2.879 h 1.279 l -0.001,-1.891 c 0,-0.251 0.261,-0.53 0.612,-0.53 0.351,0 0.588,0.279 0.588,0.53 V 36.5 h 1.28 v -1.566 c 0.007,-1.14 -0.971,-1.458 -1.452,-1.445 z m 10.468,0 a 1.542,1.542 0 0 0 -1.027,0.434 c -0.002,-0.071 0,-0.303 0,-0.303 l -1.278,0.001 -10e-4,2.879 h 1.279 l -0.002,-1.891 c 0,-0.251 0.262,-0.53 0.612,-0.53 0.351,0 0.588,0.279 0.588,0.53 V 36.5 h 1.28 c 0,0 -10e-4,-1.364 0.001,-1.566 0.007,-1.14 -0.971,-1.458 -1.452,-1.445 z m -2.696,1.586 c 0,-0.893 -0.853,-1.633 -1.9,-1.633 -1.047,0 -1.897,0.724 -1.897,1.616 0,0.893 0.85,1.617 1.897,1.617 0.869,0 1.603,-0.502 1.827,-1.182 l -1.284,10e-4 10e-4,0.175 c 0,0.527 -0.342,0.644 -0.532,0.644 -0.191,0 -0.539,-0.117 -0.539,-0.644 l 0.002,-0.594 z m -2.342,-1.014 a 0.526,0.526 0 0 1 0.453,-0.262 h 0.001 a 0.522,0.522 0 0 1 0.452,0.262 c 0.082,0.145 0.087,0.313 0.085,0.565 h -1.075 c -0.004,-0.252 0.002,-0.421 0.084,-0.565 z m 15.379,-1.565 c 0,-0.194 -0.114,-0.28 -0.344,-0.28 h -0.372 v 0.986 h 0.148 v -0.428 h 0.169 l 0.258,0.428 h 0.165 l -0.277,-0.434 c 0.144,-0.019 0.253,-0.096 0.253,-0.272 z m -0.568,0.151 v -0.305 h 0.202 c 0.102,0 0.212,0.023 0.212,0.145 0,0.152 -0.111,0.161 -0.237,0.161 h -0.177 z"
         id="path102"
         inkscape:connector-curvature="0" />
      <path
         d="m 104.181,31.854 a 0.85,0.85 0 0 0 -0.859,0.853 0.85,0.85 0 0 0 0.859,0.857 0.848,0.848 0 0 0 0.854,-0.857 0.846,0.846 0 0 0 -0.854,-0.853 z m 0,1.567 c -0.386,0 -0.688,-0.303 -0.688,-0.715 0,-0.404 0.302,-0.71 0.688,-0.71 0.383,0 0.684,0.306 0.684,0.71 0.001,0.412 -0.3,0.715 -0.684,0.715 z"
         id="path104"
         inkscape:connector-curvature="0" />
    </g>
  </g>
  <path
     d="m 22.188423,51.891191 3.865,1.029 c 0.687,0.183 1.099,0.894 0.916,1.58 a 1.295,1.295 0 0 1 -1.58,0.916 l -3.865,-1.028 -13.3870005,0.053 a 1.295,1.295 0 0 1 -1.308,-1.275 1.295,1.295 0 0 1 1.275,-1.308 z m -5.717,21.438 3.865,1.029 c 0.687,0.183 1.099,0.894 0.916,1.58 a 1.295,1.295 0 0 1 -1.58,0.916 l -3.865,-1.028 -10.6700005,0.052 a 1.295,1.295 0 0 1 -1.308,-1.275 1.295,1.295 0 0 1 1.275,-1.308 z m 139.133997,-21.378 -3.697,0.984 a 1.232,1.232 0 0 0 -0.88,1.498 1.232,1.232 0 0 0 1.508,0.862 l 3.697,-0.983 12.795,0.013 a 1.24,1.24 0 0 0 1.254,-1.21 1.222,1.222 0 0 0 -1.215,-1.234 z m 5.735,21.432 -3.71,0.988 a 1.233,1.233 0 0 0 -0.885,1.496 1.233,1.233 0 0 0 1.511,0.858 l 3.71,-0.986 10.229,0.004 a 1.246,1.246 0 0 0 1.26,-1.209 1.219,1.219 0 0 0 -1.216,-1.23 z"
     id="path110"
     inkscape:connector-curvature="0"
     style="fill:#939393" />
  <circle
     cx="44.650425"
     cy="159.08018"
     r="31.958"
     id="circle112"
     style="fill:#898888" />
  <circle
     cx="44.650425"
     cy="159.08018"
     r="27.164"
     id="circle114"
     style="fill:#636a75" />
  <path
     d="m 40.994423,185.48119 a 5.71,5.71 0 0 1 -5.703,-5.703 v -11.338 h -11.339 a 5.71,5.71 0 0 1 -5.704,-5.703 v -7.313 a 5.71,5.71 0 0 1 5.704,-5.703 h 11.338 v -11.338 a 5.71,5.71 0 0 1 5.703,-5.703 h 7.313 a 5.71,5.71 0 0 1 5.703,5.703 v 11.338 h 11.338 a 5.71,5.71 0 0 1 5.703,5.703 v 7.313 a 5.71,5.71 0 0 1 -5.703,5.703 h -11.338 v 11.338 a 5.71,5.71 0 0 1 -5.703,5.703 z"
     id="path116"
     inkscape:connector-curvature="0"
     style="fill:#5e717c" />
  <g
     id="g149"
     transform="translate(4.2252108e-4,1.9057487e-4)">
    <path
       d="m 37.275,150.492 v -12.109 a 3.73,3.73 0 0 1 3.719,-3.719 h 7.312 a 3.73,3.73 0 0 1 3.719,3.719 v 12.109 c 0,0.67 0.543,1.214 1.214,1.214 h 12.109 a 3.73,3.73 0 0 1 3.719,3.719 v 7.312 a 3.73,3.73 0 0 1 -3.719,3.719 h -12.11 c -0.67,0 -1.214,0.543 -1.214,1.214 v 12.109 a 3.73,3.73 0 0 1 -3.719,3.719 h -7.312 a 3.73,3.73 0 0 1 -3.719,-3.719 V 167.67 c 0,-0.67 -0.543,-1.214 -1.214,-1.214 H 23.952 a 3.73,3.73 0 0 1 -3.719,-3.719 v -7.312 a 3.73,3.73 0 0 1 3.719,-3.719 h 12.109 a 1.215,1.215 0 0 0 1.214,-1.214 z"
       id="path118"
       inkscape:connector-curvature="0"
       style="fill:#004f8a" />
    <path
       d="m 41.45,146.646 h 6.682 a 0.886,0.886 0 0 0 0.767,-1.329 l -3.341,-5.787 a 0.886,0.886 0 0 0 -1.534,0 l -3.341,5.787 a 0.886,0.886 0 0 0 0.767,1.329 z"
       id="path120"
       inkscape:connector-curvature="0"
       style="fill:#093f72" />
    <path
       d="m 41.309,146.504 h 6.682 a 0.886,0.886 0 0 0 0.767,-1.329 l -3.341,-5.787 a 0.886,0.886 0 0 0 -1.534,0 l -3.341,5.787 a 0.886,0.886 0 0 0 0.767,1.329 z"
       id="path122"
       inkscape:connector-curvature="0"
       style="fill:#014577" />
    <path
       d="m 32.216,162.279 v -6.682 a 0.886,0.886 0 0 0 -1.329,-0.767 l -5.787,3.341 a 0.886,0.886 0 0 0 0,1.534 l 5.787,3.341 a 0.886,0.886 0 0 0 1.329,-0.767 z"
       id="path124"
       inkscape:connector-curvature="0"
       style="fill:#093f72" />
    <path
       d="m 32.074,162.421 v -6.682 a 0.886,0.886 0 0 0 -1.329,-0.767 l -5.787,3.341 a 0.886,0.886 0 0 0 0,1.534 l 5.787,3.341 a 0.886,0.886 0 0 0 1.329,-0.767 z"
       id="path126"
       inkscape:connector-curvature="0"
       style="fill:#014577" />
    <path
       d="m 47.849,171.514 h -6.682 a 0.886,0.886 0 0 0 -0.767,1.329 l 3.341,5.787 a 0.886,0.886 0 0 0 1.534,0 l 3.341,-5.787 a 0.886,0.886 0 0 0 -0.767,-1.329 z"
       id="path128"
       inkscape:connector-curvature="0"
       style="fill:#093f72" />
    <path
       d="m 47.99,171.656 h -6.682 a 0.886,0.886 0 0 0 -0.767,1.329 l 3.341,5.787 a 0.886,0.886 0 0 0 1.534,0 l 3.341,-5.787 a 0.886,0.886 0 0 0 -0.767,-1.329 z"
       id="path130"
       inkscape:connector-curvature="0"
       style="fill:#014577" />
    <g
       id="g136">
      <path
         d="m 57.084,155.881 v 6.682 a 0.886,0.886 0 0 0 1.329,0.767 l 5.787,-3.341 a 0.886,0.886 0 0 0 0,-1.534 l -5.787,-3.341 a 0.886,0.886 0 0 0 -1.329,0.767 z"
         id="path132"
         inkscape:connector-curvature="0"
         style="fill:#093f72" />
      <path
         d="m 57.225,155.739 v 6.682 a 0.886,0.886 0 0 0 1.329,0.767 l 5.787,-3.341 a 0.886,0.886 0 0 0 0,-1.534 l -5.787,-3.341 a 0.886,0.886 0 0 0 -1.329,0.767 z"
         id="path134"
         inkscape:connector-curvature="0"
         style="fill:#014577" />
    </g>
    <linearGradient
       id="a"
       gradientUnits="userSpaceOnUse"
       x1="40.426998"
       y1="161.51801"
       x2="48.872002"
       y2="156.642">
      <stop
         offset="0"
         stop-color="#004c8a"
         id="stop138" />
      <stop
         offset=".628"
         stop-color="#004b88"
         id="stop140" />
      <stop
         offset=".854"
         stop-color="#004981"
         id="stop142" />
      <stop
         offset="1"
         stop-color="#014577"
         id="stop144" />
    </linearGradient>
    <circle
       cx="44.650002"
       cy="159.08"
       r="4.875"
       id="circle147"
       style="fill:url(#a)" />
  </g>
  <path
     d="m 172.55342,65.429191 c 0.128,-16.576 -1.897,-29.011 -3.466,-35.333 -1.068,-4.301 -5.888,-12.673 -8.969,-16.388 -0.867,-1.045 -1.82,-2.12 -3.447,-2.519 -0.262,-0.064 -0.708,-0.152 -2.362,-0.169 -1.694,-0.017 -1.993,0.091 -2.936,0.16 a 34.857,34.857 0 0 1 4.907,4.915 c 10.672,13.027 14.638,36.058 16.273,49.334 z"
     id="path151"
     inkscape:connector-curvature="0"
     style="fill:#065d93" />
</svg>
