<?xml version="1.0" encoding="UTF-8" standalone="no"?>
<svg
   xmlns:dc="http://purl.org/dc/elements/1.1/"
   xmlns:cc="http://creativecommons.org/ns#"
   xmlns:rdf="http://www.w3.org/1999/02/22-rdf-syntax-ns#"
   xmlns:svg="http://www.w3.org/2000/svg"
   xmlns="http://www.w3.org/2000/svg"
   xmlns:xlink="http://www.w3.org/1999/xlink"
   xmlns:sodipodi="http://sodipodi.sourceforge.net/DTD/sodipodi-0.dtd"
   xmlns:inkscape="http://www.inkscape.org/namespaces/inkscape"
   viewBox="-198.6 275.1 472.53149 292.81367"
   version="1.1"
   id="svg253"
   sodipodi:docname="controls.svg"
   width="472.53149"
   height="292.81366"
   inkscape:version="0.92.4 5da689c313, 2019-01-14">
  <metadata
     id="metadata259">
    <rdf:RDF>
      <cc:Work
         rdf:about="">
        <dc:format>image/svg+xml</dc:format>
        <dc:type
           rdf:resource="http://purl.org/dc/dcmitype/StillImage" />
      </cc:Work>
    </rdf:RDF>
  </metadata>
  <defs
     id="defs257" />
  <sodipodi:namedview
     pagecolor="#ffffff"
     bordercolor="#666666"
     borderopacity="1"
     objecttolerance="10"
     gridtolerance="10"
     guidetolerance="10"
     inkscape:pageopacity="0"
     inkscape:pageshadow="2"
     inkscape:window-width="471"
     inkscape:window-height="442"
     id="namedview255"
     showgrid="false"
     inkscape:zoom="0.57354497"
     inkscape:cx="236.2645"
     inkscape:cy="146.40078"
     inkscape:window-x="0"
     inkscape:window-y="0"
     inkscape:window-maximized="0"
     inkscape:current-layer="svg253" />
  <path
     d="m 63.6145,275.11289 c -30.5,-0.1 -76,-0.3 -94.2,28.2 -2.5,3.8 -4,7.6 -7,19.8 -8.6,34.9 -10.2,63.2 -11.5,90.7 -3.4,69 -3.5,92.1 13.4,111.5 0.6,0.7 1.2,1.3 1.2,1.3 10.4,11 25,13 34.1,14.1 25.5,3.1 40,4 40,4 33.1,2 49.4,4 59.4,5.9 21.5,4.1 24.2,5.8 33.1,10.6 0.8,0.4 11.8,5.7 14.9,6.4 0,0 10.2,2.2 22,-5.3 21.9,-13.9 15.3,-101.4 9.6,-184.4 -0.1,-1.6 -0.3,-4 -0.6,-7.4 -1.4,-13.3 -5.5,-53.4 -22.5,-74.2 -17.2,-20.9 -46.5,-21 -91.9,-21.2 z"
     id="path2"
     inkscape:connector-curvature="0"
     style="fill:#8c8c8c" />
  <circle
     cx="68.914505"
     cy="479.11288"
     r="18.5"
     id="circle4"
     style="fill:#918f8b" />
  <path
     d="m 70.8145,469.61289 c 3.8,0.8 6.8,3.7 7.6,7.5 h 3.3 c -0.9,-5.6 -5.3,-10 -10.9,-10.8 z m -3.8,0 c -3.8,0.8 -6.8,3.7 -7.5,7.5 h -3.3 c 0.9,-5.6 5.3,-10 10.9,-10.8 l -0.1,3.3 c 0.1,0 0,0 0,0 z m 0.1,19 c -3.9,-0.8 -6.9,-3.8 -7.7,-7.8 h -3.3 c 0.8,5.7 5.2,10.2 10.9,11 v -3.2 z m 3.7,0 c 3.9,-0.8 6.9,-3.8 7.7,-7.8 h 3.3 c -0.8,5.7 -5.2,10.2 -10.9,11 v -3.2 z"
     id="path6"
     inkscape:connector-curvature="0"
     style="fill:#7b7677" />
  <path
     d="m 55.1145,461.51289 v -5.8 h 1.8 c 0.5,0 1,0.2 1.3,0.5 0.3,0.3 0.5,0.7 0.5,1.2 0,0.3 -0.1,0.6 -0.2,0.9 -0.2,0.3 -0.4,0.5 -0.7,0.6 -0.3,0.1 -0.7,0.2 -1.2,0.2 h -0.6 v 2.5 z m 1.6,-5.1 h -0.8 v 1.8 h 0.9 c 0.3,0 0.6,-0.1 0.8,-0.2 0.2,-0.2 0.3,-0.4 0.3,-0.7 -0.1,-0.6 -0.4,-0.9 -1.2,-0.9 z m 5.4,-0.8 c 0.9,0 1.6,0.3 2.2,0.9 0.6,0.6 0.9,1.3 0.9,2.1 0,0.9 -0.3,1.6 -0.9,2.1 -0.6,0.6 -1.3,0.8 -2.2,0.8 -0.8,0 -1.5,-0.3 -2.1,-0.8 -0.6,-0.6 -0.8,-1.3 -0.8,-2.1 0,-0.9 0.3,-1.6 0.8,-2.2 0.5,-0.5 1.2,-0.8 2.1,-0.8 z m 0,0.8 c -0.6,0 -1.2,0.2 -1.6,0.6 -0.4,0.4 -0.6,1 -0.6,1.6 0,0.6 0.2,1.2 0.6,1.6 0.4,0.4 0.9,0.6 1.6,0.6 0.6,0 1.1,-0.2 1.6,-0.6 0.4,-0.4 0.6,-1 0.6,-1.6 0,-0.6 -0.2,-1.1 -0.6,-1.6 -0.5,-0.4 -1,-0.6 -1.6,-0.6 z m 10.8,-0.7 h 0.8 l -2.3,5.9 h -0.2 l -1.8,-4.7 -1.8,4.7 h -0.2 l -2.3,-5.9 h 0.9 l 1.5,4 1.6,-4 h 0.8 l 1.6,4 z m 1.4,0 h 3.2 v 0.7 h -2.4 v 1.8 h 2.3 v 0.7 h -2.3 v 1.8 h 2.4 v 0.7 h -3.3 v -5.7 z m 4.1,5.8 v -5.8 h 1.4 c 0.6,0 1,0.1 1.3,0.4 0.3,0.3 0.5,0.7 0.5,1.2 0,0.3 -0.1,0.6 -0.2,0.9 -0.2,0.2 -0.4,0.4 -0.7,0.6 0.2,0.1 0.4,0.3 0.5,0.5 0.2,0.2 0.4,0.6 0.7,1.1 0.2,0.3 0.4,0.6 0.5,0.7 l 0.3,0.4 h -1 l -0.2,-0.4 v -0.1 l -0.2,-0.2 -0.2,-0.4 -0.3,-0.5 c -0.1,-0.2 -0.3,-0.4 -0.5,-0.6 -0.1,-0.1 -0.3,-0.2 -0.4,-0.3 -0.1,-0.1 -0.3,-0.1 -0.6,-0.1 h -0.2 v 2.5 z m 1.1,-5.1 h -0.2 v 1.8 h 0.3 c 0.4,0 0.7,0 0.8,-0.1 0.2,-0.1 0.3,-0.2 0.4,-0.3 0.1,-0.2 0.1,-0.3 0.1,-0.5 0,-0.2 0,-0.4 -0.1,-0.5 -0.1,-0.1 -0.2,-0.3 -0.4,-0.3 -0.2,-0.1 -0.5,-0.1 -0.9,-0.1 z"
     stroke-miterlimit="10"
     id="path8"
     inkscape:connector-curvature="0"
     style="fill:#898784;stroke:#4c4c4c;stroke-width:0.01;stroke-miterlimit:10" />
  <circle
     cx="68.914505"
     cy="479.01288"
     r="6.5999999"
     id="circle10"
     style="fill:#837c6f" />
  <circle
     cx="68.914505"
     cy="514.11285"
     r="14.8"
     id="circle12"
     style="fill:#918f8b" />
  <path
     d="m 70.4145,506.51289 c 3.1,0.6 5.5,3 6.1,6 h 2.6 c -0.7,-4.5 -4.2,-8 -8.7,-8.7 z m -3,0 c -3,0.6 -5.4,3 -6.1,6 h -2.6 c 0.7,-4.5 4.2,-8 8.7,-8.7 z m 0,15.2 c -3.1,-0.6 -5.6,-3.1 -6.1,-6.2 h -2.6 c 0.6,4.6 4.2,8.2 8.8,8.8 v -2.6 z m 3,0 c 3.1,-0.6 5.6,-3.1 6.1,-6.2 h 2.6 c -0.6,4.6 -4.2,8.2 -8.8,8.8 v -2.6 z"
     id="path14"
     inkscape:connector-curvature="0"
     style="fill:#7b7677" />
  <circle
     cx="68.914505"
     cy="514.01288"
     r="5.3000002"
     id="circle16"
     style="fill:#5e4c3f" />
  <path
     d="m 58.4145,505.21289 v -5.8 h 1.4 c 0.6,0 1,0.1 1.3,0.4 0.3,0.3 0.5,0.7 0.5,1.2 0,0.3 -0.1,0.6 -0.2,0.9 -0.2,0.2 -0.4,0.4 -0.7,0.6 0.2,0.1 0.4,0.3 0.5,0.5 0.2,0.2 0.4,0.6 0.7,1.1 0.2,0.3 0.4,0.6 0.5,0.7 l 0.3,0.4 h -1 l -0.2,-0.4 v -0.1 l -0.2,-0.2 -0.2,-0.4 -0.3,-0.5 c -0.1,-0.2 -0.3,-0.4 -0.5,-0.6 -0.1,-0.1 -0.3,-0.2 -0.4,-0.3 -0.1,-0.1 -0.3,-0.1 -0.6,-0.1 h -0.2 v 2.5 z m 1,-5.1 h -0.2 v 1.8 h 0.3 c 0.4,0 0.7,0 0.8,-0.1 0.2,-0.1 0.3,-0.2 0.4,-0.3 0.1,-0.2 0.1,-0.3 0.1,-0.5 0,-0.2 0,-0.4 -0.1,-0.5 -0.1,-0.1 -0.2,-0.3 -0.4,-0.3 -0.2,-0.1 -0.5,-0.1 -0.9,-0.1 z m 3.9,-0.7 h 3.2 v 0.7 h -2.4 v 1.8 h 2.3 v 0.7 h -2.3 v 1.8 h 2.4 v 0.7 h -3.3 v -5.7 z m 5.5,3.3 -0.6,-0.4 c -0.4,-0.2 -0.7,-0.5 -0.8,-0.7 -0.1,-0.2 -0.2,-0.5 -0.2,-0.8 0,-0.5 0.2,-0.8 0.5,-1.1 0.3,-0.3 0.7,-0.4 1.2,-0.4 0.5,0 0.9,0.1 1.3,0.4 v 0.9 c -0.4,-0.4 -0.8,-0.6 -1.3,-0.6 -0.2,0 -0.5,0.1 -0.6,0.2 -0.2,0.1 -0.3,0.3 -0.3,0.5 0,0.2 0.1,0.4 0.2,0.5 0.1,0.2 0.3,0.3 0.6,0.5 l 0.6,0.4 c 0.7,0.4 1,1 1,1.6 0,0.5 -0.2,0.8 -0.5,1.1 -0.3,0.3 -0.7,0.4 -1.2,0.4 -0.6,0 -1.1,-0.2 -1.5,-0.5 v -1.1 c 0.4,0.6 0.9,0.9 1.5,0.9 0.3,0 0.5,-0.1 0.6,-0.2 0.2,-0.1 0.2,-0.3 0.2,-0.5 0,-0.4 -0.2,-0.7 -0.7,-1.1 z m 2.4,-3.3 h 3.2 v 0.7 h -2.4 v 1.8 h 2.3 v 0.7 h -2.3 v 1.8 h 2.4 v 0.7 h -3.3 v -5.7 z m 3.6,-0.1 h 4.7 v 0.7 h -2 v 5.1 h -0.8 v -5.1 h -1.9 z"
     stroke-miterlimit="10"
     id="path18"
     inkscape:connector-curvature="0"
     style="fill:#898784;stroke:#4c4c4c;stroke-width:0.01;stroke-miterlimit:10" />
  <path
     d="m 66.6145,310.71289 c -0.9,0 -1.6,-0.7 -1.6,-1.6 v -22.1 c 0,-0.9 0.7,-1.6 1.6,-1.6 0.9,0 1.6,0.7 1.6,1.6 v 22.1 c 0,0.9 -0.7,1.6 -1.6,1.6 z m -31.2,-16.7 1.4,5.1 c 0.3,0.9 1.2,1.4 2.1,1.2 0.9,-0.3 1.4,-1.2 1.2,-2.1 l -1.4,-5.1 v -5.3 c 0,-0.9 -0.8,-1.7 -1.7,-1.7 -0.9,0 -1.7,0.8 -1.7,1.7 z m 62.3,0 -1.4,5.1 c -0.3,0.9 -1.2,1.4 -2.1,1.2 -0.9,-0.3 -1.4,-1.2 -1.2,-2.1 l 1.4,-5.1 v -5.3 c 0,-0.9 0.8,-1.7 1.7,-1.7 0.9,0 1.7,0.8 1.7,1.7 0.1,0 -0.1,6.2 -0.1,6.2 z m -147.9,141.4 h 23.2 v -4.7 h -23 m 213.4,-24.5 h 4.4 v 19.3 h -4.4 z"
     id="path20"
     inkscape:connector-curvature="0"
     style="fill:#939393" />
  <path
     d="m 180.8145,410.61289 h -17.4 v -4.3 h 17.1 m 0.7,11.1 h -17.8 v -4.3 h 17.5 m -23,153.9 v -36.6 h -4.1 v 37.3"
     id="path22"
     inkscape:connector-curvature="0"
     style="fill:#939393" />
  <path
     d="m 182.3145,528.41289 h -26.5 v 4.1 h 25.9"
     id="path24"
     inkscape:connector-curvature="0"
     style="fill:#939393" />
  <g
     id="g32"
     style="fill:#91918b"
     transform="translate(0.0145,0.01289063)">
    <path
       d="m 131.5,443.5 -5.5,6.1 c -1.5,1.6 -1.3,4.2 0.3,5.6 l 7.2,6.5 10.8,-12 -7.2,-6.5 c -1.6,-1.5 -4.1,-1.3 -5.6,0.3 z m 7.6,6.9 -5.4,6 -3.6,-3.2 c -0.8,-0.7 -0.9,-2 -0.1,-2.8 l 2.7,-3.1 c 0.7,-0.8 2,-0.9 2.8,-0.1 z m -11.1,31.3 5.8,5.8 c 1.6,1.5 4.1,1.5 5.6,0 l 6.8,-6.8 -11.4,-11.4 -6.8,6.7 c -1.5,1.6 -1.5,4.1 0,5.7 z m 7.3,-7.3 5.7,5.7 -3.4,3.4 c -0.8,0.8 -2,0.8 -2.8,0 l -2.9,-2.9 c -0.8,-0.8 -0.8,-2 0,-2.8 z"
       id="path26"
       inkscape:connector-curvature="0" />
    <path
       d="m 150.8,484.2 c -11,0 -20,-9 -20,-20 0,-11 9,-20 20,-20 11,0 20,9 20,20 0,11.1 -9,20 -20,20 z"
       id="path28"
       inkscape:connector-curvature="0" />
    <path
       d="m 165.9,489.4 5.8,-5.8 c 1.5,-1.6 1.5,-4.1 0,-5.6 l -6.8,-6.8 -11.4,11.4 6.8,6.8 c 1.6,1.6 4.1,1.6 5.6,0 z m -7.2,-7.3 5.7,-5.7 3.4,3.4 c 0.8,0.8 0.8,2 0,2.8 l -2.9,2.9 c -0.8,0.8 -2,0.8 -2.8,0 z"
       id="path30"
       inkscape:connector-curvature="0" />
  </g>
  <g
     id="g38"
     style="fill:#84817e"
     transform="translate(0.0145,0.01289063)">
    <path
       d="m 112.5,467.9 h -8.2 c -2.2,0 -4,1.8 -4,4 v 9.7 h 16.2 v -9.7 c 0,-2.2 -1.8,-4 -4,-4 z m 0,10.2 h -8.1 v -4.8 c 0,-1.1 0.9,-2 2,-2 h 4.1 c 1.1,0 2,0.9 2,2 z m -24.2,38.8 6.3,5.2 c 1.7,1.4 4.2,1.2 5.6,-0.5 l 6.2,-7.5 -12.4,-10.3 -6.2,7.5 c -1.4,1.7 -1.1,4.2 0.5,5.6 z m 6.6,-7.9 6.2,5.2 -3.1,3.7 c -0.7,0.8 -2,1 -2.8,0.3 L 92,515.6 c -0.8,-0.7 -1,-2 -0.3,-2.8 z"
       id="path34"
       inkscape:connector-curvature="0" />
    <path
       d="m 109.6,515.9 c -11,0 -20,-9 -20,-20 0,-11 9,-20 20,-20 11,0 20,9 20,20 0,11 -9,20 -20,20 z"
       id="path36"
       inkscape:connector-curvature="0" />
  </g>
  <circle
     cx="109.6145"
     cy="496.31287"
     r="14.7"
     id="circle40"
     style="fill:#004f8a" />
  <path
     d="m 106.3145,503.61289 h -3.6 v -13.6 h 3.4 c 2.2,0 3.8,1.1 3.8,3.6 0,1.1 -0.5,2.3 -1.6,2.8 1.1,0.4 1.8,1.6 1.8,3.1 0,2.7 -1.5,4.1 -3.8,4.1 z m -0.1,-11.7 h -1.6 v 3.7 h 1.5 c 1,0 1.8,-0.6 1.8,-1.9 0.1,-1.4 -0.7,-1.8 -1.7,-1.8 z m -0.1,5.5 h -1.5 v 4.4 h 1.7 c 1.1,0 1.9,-0.6 1.9,-2.2 0,-1.6 -0.9,-2.2 -2.1,-2.2 z"
     id="path42"
     inkscape:connector-curvature="0"
     style="fill:#014577" />
  <circle
     cx="-26.9855"
     cy="433.01288"
     r="8.3999996"
     id="circle44"
     style="fill:#91918f" />
  <circle
     cx="165.6145"
     cy="425.51288"
     r="7.8000002"
     id="circle46"
     style="fill:#91918f" />
  <circle
     cx="155.8145"
     cy="530.4129"
     r="7.3000002"
     id="circle48"
     style="fill:#91918f" />
  <circle
     cx="-15.1855"
     cy="523.01288"
     r="7.6999998"
     id="circle50"
     style="fill:#91918f" />
  <circle
     cx="18.314499"
     cy="289.41287"
     r="8.3999996"
     id="circle52"
     style="fill:#91918f" />
  <circle
     cx="114.91451"
     cy="289.41287"
     r="8.3999996"
     id="circle54"
     style="fill:#91918f" />
  <circle
     cx="145.6145"
     cy="303.61288"
     r="5.9000001"
     id="circle56"
     style="fill:#91918f" />
  <circle
     cx="-12.3855"
     cy="303.51288"
     r="5.9000001"
     id="circle58"
     style="fill:#91918f" />
  <g
     id="g76"
     style="fill:#878786"
     transform="translate(0.0145,0.01289063)">
    <circle
       cx="-27"
       cy="433"
       r="2.4000001"
       id="circle60" />
    <circle
       cx="165.60001"
       cy="425.5"
       r="2.2"
       id="circle62" />
    <circle
       cx="155.8"
       cy="530.40002"
       r="2"
       id="circle64" />
    <circle
       cx="-15.2"
       cy="523"
       r="2.2"
       id="circle66" />
    <circle
       cx="18.299999"
       cy="289.39999"
       r="2.4000001"
       id="circle68" />
    <circle
       cx="114.9"
       cy="289.39999"
       r="2.4000001"
       id="circle70" />
    <circle
       cx="145.60001"
       cy="303.60001"
       r="1.7"
       id="circle72" />
    <circle
       cx="-12.4"
       cy="303.5"
       r="1.7"
       id="circle74" />
  </g>
  <circle
     cx="150.91449"
     cy="464.21289"
     r="14.7"
     id="circle78"
     style="fill:#004f8a" />
  <path
     d="m 150.6145,471.61289 -0.8,-3.6 h -2.9 l -0.8,3.6 h -2 l 3.3,-13.6 h 2 l 3.3,13.6 z m -1.7,-7.7 c -0.2,-0.9 -0.5,-2.5 -0.6,-3 -0.1,0.5 -0.4,2.1 -0.6,3 l -0.5,2.3 h 2.2 z"
     id="path80"
     inkscape:connector-curvature="0"
     style="fill:#014577" />
  <ellipse
     cx="66.614502"
     cy="374.31287"
     rx="89"
     ry="66.699997"
     id="ellipse82" />
  <path
     d="m 6.3145,373.41289 c 0.3,21.6 0.2,29.7 0.7,37.9 0.1,1.6 2,2.1 12.7,2.6 9.2,0.4 20.4,0.7 46.9,0.7 26.5,0 37.7,-0.2 46.9,-0.7 10.6,-0.5 12.6,-1 12.7,-2.6 0.5,-8.2 0.4,-16.3 0.7,-37.9 -0.3,-21.5 -0.2,-29.7 -0.7,-37.9 -0.1,-1.6 -2,-2.1 -12.7,-2.6 -9.2,-0.4 -20.4,-0.7 -46.9,-0.7 -26.5,0 -37.7,0.2 -46.9,0.7 -10.6,0.5 -12.6,1 -12.7,2.6 -0.5,8.3 -0.4,16.4 -0.7,37.9 z"
     id="path84"
     inkscape:connector-curvature="0"
     style="fill:#7e7646" />
  <path
     d="m 24.7145,419.31289 v 8.9 h 2.3 v -3.1 h 1.8 c 0,0 2.4,-0.2 2.4,-1.9 v -1.7 c 0,0 0,-2.1 -2.4,-2.1 -2.3,-0.1 -4.1,0 -4.1,-0.1 z m 2.3,1.8 h 1.3 c 0.6,0.2 0.6,0.8 0.6,0.8 v 0.7 c 0,0.6 -0.6,0.7 -0.6,0.7 h -1.3 z m 7.9,0.4 c -0.7,0 -3.3,0.2 -3.3,3.4 0,3.6 3.4,3.4 3.4,3.4 0,0 3.3,0 3.3,-3.4 0,-3.4 -3.3,-3.3 -3.3,-3.4 z m 0.2,1.7 c 0,0 1.2,-0.2 1.2,1.6 0,1.7 -1.2,1.5 -1.2,1.5 0,0 -1.3,0 -1.3,-1.5 0,-1.8 1.3,-1.6 1.3,-1.6 z m 4.3,-4.4 h 2.1 v 5.1 l 1.7,-2.5 h 2.3 l -2.3,3 2.3,3.8 h -2.3 l -1.7,-3.1 v 3.1 h -2.1 z m 9.6,2.7 c -2.5,0 -3.1,1.7 -3.1,3.4 0,1.7 1.1,3.4 3.3,3.4 2.2,0 2.4,-0.4 2.4,-0.4 v -1.1 h -2.7 c -0.9,0 -0.8,-1.1 -0.8,-1.1 h 4 v -1.2 c 0,-0.2 0,-3 -3.1,-3 z m 0.1,1.4 c 1.1,0 1.1,0.4 1.1,0.4 v 1 h -2.2 v -1 c 0,0 0,-0.4 1.1,-0.4 z m -2.3,-3.2 0.8,1 3.1,-1.6 -0.9,-1 z m 6.3,8.5 h 1.9 v -3.9 c 0,0 0.1,-1 1.1,-1 1,0 1,1 1,1 v 3.9 h 1.8 v -3.9 c 0,0 0,-1 1,-1 1,0 1,1 1,1 v 3.9 h 1.9 v -4.9 c 0,0 0.1,-1.8 -1.9,-1.8 -2,0 -2,1.1 -2,1.1 0,0 0.2,-1.1 -1.8,-1.1 -2,0 -2,1.1 -2,1.1 0,0 0.3,-1.1 -0.8,-1.1 h -1.1 z m 14,-6.7 c -0.7,0 -3.3,0.2 -3.3,3.4 0,3.6 3.4,3.4 3.4,3.4 0,0 3.3,0 3.3,-3.4 0,-3.4 -3.3,-3.3 -3.3,-3.4 z m 0.2,1.7 c 0,0 1.2,-0.2 1.2,1.6 0,1.7 -1.2,1.5 -1.2,1.5 0,0 -1.3,0 -1.3,-1.5 0,-1.8 1.3,-1.6 1.3,-1.6 z m 4.4,5 h 2.1 v -3.9 c 0,0 -0.1,-1 1.1,-1 1.1,0 1.1,1 1.1,1 v 3.9 h 1.9 v -4.9 c 0,0 0,-1.8 -1.9,-1.8 -1.9,0 -2.2,1.1 -2.2,1.1 0,0 0.2,-1.1 -0.6,-1.1 h -1.5 z"
     id="path86"
     inkscape:connector-curvature="0"
     style="fill:#ffffff" />
  <path
     d="m 82.8145,421.51289 h 8.9 c 0,0 0.9,0 0.9,0.7 v 5.6 c 0,0 0,0.4 -0.4,0.4 h -1.3 c 0,0 -0.4,0 -0.4,-0.4 v -3.5 c 0,0 0,-0.4 -0.4,-0.4 h -1.3 c 0,0 -0.4,0 -0.4,0.4 v 3.5 c 0,0 -0.1,0.4 -0.4,0.4 h -1.2 c 0,0 -0.5,0 -0.5,-0.4 v -3.5 c 0,0 0.1,-0.4 -0.4,-0.4 h -1.2 c 0,0 -0.4,0 -0.4,0.4 v 3.5 c 0,0 0,0.4 -0.4,0.4 h -1.3 c 0,0 -0.4,0 -0.4,-0.4 v -5.6 c -0.2,0 -0.2,-0.7 0.6,-0.7 z m 13.1,3.3 c 0,0 0.4,0 0.4,0.4 v 2.6 c 0,0 0,0.4 -0.4,0.4 h -0.9 c 0,0 -0.4,0 -0.4,-0.4 v -2.6 c 0,0 0,-0.4 0.4,-0.4 z m -0.9,-1.1 c 0,0 -0.4,0 -0.4,-0.4 v -1.1 c 0,0 0,-0.4 0.4,-0.4 h 0.8 c 0,0 0.4,0 0.4,0.4 v 1.1 c 0,0 0,0.4 -0.4,0.4 z m 3.4,4.1 c 0,0 0,0.4 0.4,0.4 h 1.2 c 0,0 0.4,0 0.4,-0.4 v -3.5 c 0,0 0,-0.4 0.4,-0.4 h 1.3 c 0,0 0.4,0 0.4,0.4 v 3.5 c 0,0 0,0.4 0.4,0.4 h 0.9 c 0,0 0.4,0 0.4,-0.4 v -5.3 c 0,0 0,-0.8 -0.8,-0.8 h -4.2 c 0,0 -0.9,0 -0.9,0.8 0.1,0.8 0.1,5.4 0.1,5.3 z m 9.7,-3 c 0,0 0.4,0 0.4,0.4 v 2.6 c 0,0 0,0.4 -0.4,0.4 h -0.9 c 0,0 -0.4,0 -0.4,-0.4 v -2.6 c 0,0 0,-0.4 0.4,-0.4 z m -0.9,-1.1 c 0,0 -0.4,0 -0.4,-0.4 v -1.1 c 0,0 0,-0.4 0.4,-0.4 h 0.8 c 0,0 0.4,0 0.4,0.4 v 1.1 c 0,0 0,0.4 -0.4,0.4 z"
     id="path88"
     inkscape:connector-curvature="0"
     style="fill:#f1d941" />
  <g
     id="g96"
     style="fill:#ffffff"
     transform="translate(0.0145,0.01289063)">
    <path
       d="m 84.6,314.4 h -36 c -3.8,0 -6.4,2.8 -6.4,6.1 0,3.3 2.6,6.1 6.4,6.1 h 36 c 3.8,0 6.4,-2.7 6.4,-6.1 0,-3.4 -2.6,-6.2 -6.4,-6.1 z m 0,10.6 h -36 c -3,0 -4.9,-2.1 -4.9,-4.6 0,-2.5 1.9,-4.6 4.9,-4.6 h 36 c 3,0 4.9,2.1 4.9,4.6 0,2.6 -1.9,4.6 -4.9,4.6 z"
       id="path90"
       inkscape:connector-curvature="0" />
    <path
       d="m 51.2,321.5 -2.4,-4 H 47 v 5.7 h 1.8 v -4 l 2.5,4 H 53 v -5.7 h -1.7 z m 13.9,-2 v -0.6 h -0.9 v -0.8 h -1.7 v 0.8 h -0.9 v 0.6 h 0.9 v 3.8 h 1.7 v -3.8 z m -11.1,0 h 1.7 v 3.8 H 54 Z m -0.1,-1.9 h 1.7 v 1.2 h -1.7 z m 29.9,1.6 c -1.4,0 -2.5,1 -2.5,2.1 0,1.2 1.1,2.1 2.5,2.1 1.4,0 2.5,-1 2.5,-2.1 0,-1.1 -1.2,-2.1 -2.5,-2.1 z m 0.6,3 c 0,0.6 -0.4,0.9 -0.7,0.9 -0.3,0 -0.7,-0.3 -0.7,-0.9 v -1.6 c 0,-0.6 0.4,-0.9 0.7,-0.9 0.3,0 0.7,0.2 0.7,0.9 z M 79,319.7 c -0.3,-0.2 -0.6,-0.3 -1,-0.3 -1.2,-0.1 -2.2,1 -2.2,2 0,1.3 1,1.8 1.2,1.9 0.6,0.3 1.3,0.3 2,-0.1 v 0.2 h 1.7 v -5.7 H 79 Z m 0.1,1.7 v 0.7 c 0,0.6 -0.4,0.7 -0.7,0.7 -0.3,0 -0.7,-0.2 -0.7,-0.7 v -1.4 c 0,-0.6 0.4,-0.7 0.7,-0.7 0.3,0 0.7,0.1 0.7,0.7 z m -19.5,-2.1 c -0.5,0 -1,0.2 -1.4,0.6 v -0.4 h -1.7 v 3.8 h 1.7 v -2.5 c 0,-0.3 0.3,-0.7 0.8,-0.7 0.5,0 0.8,0.4 0.8,0.7 v 2.5 h 1.7 v -2.1 c 0.1,-1.5 -1.2,-1.9 -1.9,-1.9 z m 13.9,0 c -0.5,0 -1,0.2 -1.4,0.6 v -0.4 h -1.7 v 3.8 h 1.7 v -2.5 c 0,-0.3 0.3,-0.7 0.8,-0.7 0.5,0 0.8,0.4 0.8,0.7 v 2.5 h 1.7 v -2.1 c 0,-1.5 -1.3,-1.9 -1.9,-1.9 z m -3.6,2.1 c 0,-1.2 -1.1,-2.2 -2.5,-2.2 -1.4,0 -2.5,1 -2.5,2.1 0,1.2 1.1,2.1 2.5,2.1 1.1,0 2.1,-0.7 2.4,-1.6 h -1.7 v 0.2 c 0,0.7 -0.5,0.9 -0.7,0.9 -0.3,0 -0.7,-0.2 -0.7,-0.9 v -0.8 c 0,0.2 3.2,0.2 3.2,0.2 z m -3.1,-1.3 c 0.1,-0.2 0.4,-0.3 0.6,-0.3 0.2,0 0.5,0.1 0.6,0.3 0.1,0.2 0.1,0.4 0.1,0.7 h -1.4 c 0,-0.3 0,-0.6 0.1,-0.7 z M 87.1,318 c 0,-0.3 -0.2,-0.4 -0.5,-0.4 h -0.5 v 1.3 h 0.2 v -0.6 h 0.2 l 0.3,0.6 H 87 l -0.4,-0.6 c 0.4,0 0.5,-0.1 0.5,-0.3 z m -0.7,0.2 v -0.4 h 0.3 c 0.1,0 0.3,0 0.3,0.2 0,0.2 -0.1,0.2 -0.3,0.2 z"
       id="path92"
       inkscape:connector-curvature="0" />
    <path
       d="m 86.6,317.1 c -0.6,0 -1.1,0.5 -1.1,1.1 0,0.6 0.5,1.1 1.1,1.1 0.6,0 1.1,-0.5 1.1,-1.1 0,-0.5 -0.5,-1.1 -1.1,-1.1 z m 0,2.1 c -0.5,0 -0.9,-0.4 -0.9,-0.9 0,-0.5 0.4,-0.9 0.9,-0.9 0.5,0 0.9,0.4 0.9,0.9 0,0.5 -0.4,0.9 -0.9,0.9 z"
       id="path94"
       inkscape:connector-curvature="0" />
  </g>
  <path
     d="m -21.6855,343.61289 5.1,1.4 c 0.9,0.2 1.5,1.2 1.2,2.1 -0.2,0.9 -1.2,1.4 -2.1,1.2 l -5.1,-1.4 -17.7,0.1 c -0.9,0 -1.7,-0.7 -1.7,-1.7 0,-0.9 0.7,-1.7 1.7,-1.7 z m -7.5,28.3 5.1,1.4 c 0.9,0.2 1.5,1.2 1.2,2.1 -0.2,0.9 -1.2,1.4 -2.1,1.2 l -5.1,-1.4 -14.1,0.1 c -0.9,0 -1.7,-0.7 -1.7,-1.7 0,-0.9 0.7,-1.7 1.7,-1.7 z m 183.7,-28.2 -4.9,1.3 c -0.9,0.2 -1.4,1.1 -1.2,2 0.2,0.9 1.1,1.4 2,1.1 l 4.9,-1.3 h 16.9 c 0.9,0 1.6,-0.7 1.7,-1.6 0,-0.9 -0.7,-1.6 -1.6,-1.6 z m 7.6,28.3 -4.9,1.3 c -0.9,0.2 -1.4,1.1 -1.2,2 0.2,0.9 1.1,1.4 2,1.1 l 4.9,-1.3 h 13.5 c 0.9,0 1.6,-0.7 1.7,-1.6 0,-0.9 -0.7,-1.6 -1.6,-1.6 z"
     id="path98"
     inkscape:connector-curvature="0"
     style="fill:#939393" />
  <circle
     cx="8.0144997"
     cy="485.21289"
     r="42.200001"
     id="circle100"
     style="fill:#898888" />
  <circle
     cx="8.0144997"
     cy="485.21289"
     r="35.900002"
     id="circle102"
     style="fill:#636a75" />
  <path
     d="m 3.1145,520.11289 c -4.2,0 -7.5,-3.4 -7.5,-7.5 v -15 h -15 c -4.2,0 -7.5,-3.4 -7.5,-7.5 v -9.7 c 0,-4.2 3.4,-7.5 7.5,-7.5 h 15 v -15 c 0,-4.2 3.4,-7.5 7.5,-7.5 h 9.7 c 4.2,0 7.5,3.4 7.5,7.5 v 15 h 15 c 4.2,0 7.5,3.4 7.5,7.5 v 9.7 c 0,4.2 -3.4,7.5 -7.5,7.5 h -15 v 15 c 0,4.2 -3.4,7.5 -7.5,7.5 z"
     id="path104"
     inkscape:connector-curvature="0"
     style="fill:#5e717c" />
  <g
     id="g135"
     transform="translate(0.0145,0.01289063)">
    <path
       d="m -1.8,473.8 v -16 c 0,-2.7 2.2,-4.9 4.9,-4.9 h 9.7 c 2.7,0 4.9,2.2 4.9,4.9 v 16 c 0,0.9 0.7,1.6 1.6,1.6 h 16 c 2.7,0 4.9,2.2 4.9,4.9 v 9.7 c 0,2.7 -2.2,4.9 -4.9,4.9 h -16 c -0.9,0 -1.6,0.7 -1.6,1.6 v 16 c 0,2.7 -2.2,4.9 -4.9,4.9 H 3.1 c -2.7,0 -4.9,-2.2 -4.9,-4.9 v -16 c 0,-0.9 -0.7,-1.6 -1.6,-1.6 h -16 c -2.7,0 -4.9,-2.2 -4.9,-4.9 v -9.7 c 0,-2.7 2.2,-4.9 4.9,-4.9 h 16 c 0.9,0 1.6,-0.7 1.6,-1.6 z"
       id="path106"
       inkscape:connector-curvature="0"
       style="fill:#004f8a" />
    <path
       d="m 3.7,468.8 h 8.8 c 0.6,0 1.2,-0.5 1.2,-1.2 0,-0.2 -0.1,-0.4 -0.2,-0.6 l -4.4,-7.6 c -0.3,-0.6 -1,-0.8 -1.6,-0.4 -0.2,0.1 -0.3,0.2 -0.4,0.4 L 2.7,467 c -0.3,0.6 -0.1,1.3 0.4,1.6 0.2,0.1 0.4,0.2 0.6,0.2 z"
       id="path108"
       inkscape:connector-curvature="0"
       style="fill:#093f72" />
    <path
       d="m 3.6,468.6 h 8.8 c 0.6,0 1.2,-0.5 1.2,-1.2 0,-0.2 -0.1,-0.4 -0.2,-0.6 L 9,459.2 C 8.7,458.6 8,458.4 7.4,458.8 7.2,458.9 7.1,459 7,459.2 l -4.4,7.6 c -0.3,0.6 -0.1,1.3 0.4,1.6 0.2,0.1 0.4,0.2 0.6,0.2 z"
       id="path110"
       inkscape:connector-curvature="0"
       style="fill:#014577" />
    <path
       d="m -8.4,489.4 v -8.8 c 0,-0.6 -0.5,-1.2 -1.2,-1.2 -0.2,0 -0.4,0.1 -0.6,0.2 l -7.6,4.4 c -0.6,0.3 -0.8,1 -0.4,1.6 0.1,0.2 0.2,0.3 0.4,0.4 l 7.6,4.4 c 0.6,0.3 1.3,0.1 1.6,-0.4 0.1,-0.2 0.2,-0.4 0.2,-0.6 z"
       id="path112"
       inkscape:connector-curvature="0"
       style="fill:#093f72" />
    <path
       d="m -8.6,489.6 v -8.8 c 0,-0.6 -0.5,-1.2 -1.2,-1.2 -0.2,0 -0.4,0.1 -0.6,0.2 l -7.6,4.4 c -0.6,0.3 -0.8,1 -0.4,1.6 0.1,0.2 0.2,0.3 0.4,0.4 l 7.6,4.4 c 0.6,0.3 1.3,0.1 1.6,-0.4 0.1,-0.2 0.2,-0.4 0.2,-0.6 z"
       id="path114"
       inkscape:connector-curvature="0"
       style="fill:#014577" />
    <path
       d="M 12.2,501.6 H 3.4 c -0.6,0 -1.2,0.5 -1.2,1.2 0,0.2 0.1,0.4 0.2,0.6 l 4.4,7.6 c 0.3,0.6 1,0.8 1.6,0.4 0.2,-0.1 0.3,-0.2 0.4,-0.4 l 4.4,-7.6 c 0.3,-0.6 0.1,-1.3 -0.4,-1.6 -0.2,-0.1 -0.4,-0.2 -0.6,-0.2 z"
       id="path116"
       inkscape:connector-curvature="0"
       style="fill:#093f72" />
    <path
       d="M 12.4,501.8 H 3.6 c -0.6,0 -1.2,0.5 -1.2,1.2 0,0.2 0.1,0.4 0.2,0.6 l 4.4,7.6 c 0.3,0.6 1,0.8 1.6,0.4 0.2,-0.1 0.3,-0.2 0.4,-0.4 l 4.4,-7.6 c 0.3,-0.6 0.1,-1.3 -0.4,-1.6 -0.2,-0.2 -0.4,-0.2 -0.6,-0.2 z"
       id="path118"
       inkscape:connector-curvature="0"
       style="fill:#014577" />
    <path
       d="m 24.4,481 v 8.8 c 0,0.6 0.5,1.2 1.2,1.2 0.2,0 0.4,-0.1 0.6,-0.2 l 7.6,-4.4 c 0.6,-0.3 0.8,-1 0.4,-1.6 -0.1,-0.2 -0.2,-0.3 -0.4,-0.4 L 26.2,480 c -0.6,-0.3 -1.3,-0.1 -1.6,0.4 -0.1,0.2 -0.2,0.4 -0.2,0.6 z"
       id="path120"
       inkscape:connector-curvature="0"
       style="fill:#093f72" />
    <path
       d="m 24.6,480.8 v 8.8 c 0,0.6 0.5,1.2 1.2,1.2 0.2,0 0.4,-0.1 0.6,-0.2 l 7.6,-4.4 c 0.6,-0.3 0.8,-1 0.4,-1.6 -0.1,-0.2 -0.2,-0.3 -0.4,-0.4 l -7.6,-4.4 c -0.6,-0.3 -1.3,-0.1 -1.6,0.4 -0.2,0.2 -0.2,0.4 -0.2,0.6 z"
       id="path122"
       inkscape:connector-curvature="0"
       style="fill:#014577" />
    <linearGradient
       id="a"
       gradientUnits="userSpaceOnUse"
       x1="2.398"
       y1="355.621"
       x2="13.552"
       y2="362.06201"
       gradientTransform="matrix(1,0,0,-1,0,844.026)">
      <stop
         offset="0"
         stop-color="#004c8a"
         id="stop124" />
      <stop
         offset=".628"
         stop-color="#004b88"
         id="stop126" />
      <stop
         offset=".854"
         stop-color="#004981"
         id="stop128" />
      <stop
         offset="1"
         stop-color="#014577"
         id="stop130" />
    </linearGradient>
    <circle
       cx="8"
       cy="485.20001"
       r="6.4000001"
       id="circle133"
       style="fill:url(#a)" />
  </g>
  <path
     d="m 176.9145,361.51289 c 0.2,-21.9 -2.5,-38.3 -4.6,-46.7 -1.4,-5.7 -7.8,-16.7 -11.8,-21.6 -1.1,-1.4 -2.4,-2.8 -4.6,-3.3 -0.3,-0.1 -0.9,-0.2 -3.1,-0.2 -2.2,0 -2.6,0.1 -3.9,0.2 2.4,1.9 4.5,4.1 6.5,6.5 14.1,17.1 19.4,47.6 21.5,65.1 z"
     id="path137"
     inkscape:connector-curvature="0"
     style="fill:#065d93" />
  <g
     id="g171"
     transform="translate(0.0145,0.01289063)">
    <path
       d="m -181.7,484.4 h 114.4 c 2.1,0 3.8,1.7 3.8,3.8 v 34.5 c 0,2.1 -1.7,3.8 -3.8,3.8 h -114.4 c -2.1,0 -3.8,-1.7 -3.8,-3.8 v -34.5 c 0,-2.1 1.7,-3.8 3.8,-3.8 z"
       id="path139"
       inkscape:connector-curvature="0"
       style="fill:#f1f1f1;fill-opacity:0.8;stroke:#35495e;stroke-width:0.78899997" />
    <path
       d="m -161,524.3 h -7.2 c -2.3,0 -3.2,-1.9 -3.2,-3.2 v -8.8 h -8.8 c -2.3,0 -3.2,-1.9 -3.2,-3.2 V 502 c 0,-2.3 1.9,-3.2 3.2,-3.2 h 8.8 V 490 c 0,-2.3 1.9,-3.2 3.2,-3.2 h 7.2 c 2.3,0 3.2,1.9 3.2,3.2 v 8.8 h 8.8 c 1.2,0 2.2,0.5 2.7,1.5 0.2,0.4 0.5,1.1 0.4,1.7 v 7.2 c 0,2.3 -1.9,3.2 -3.2,3.2 h -8.8 v 8.8 c 0.1,2.3 -1.8,3.1 -3.1,3.1 z m -19.2,-24 c -0.4,0 -1.6,0.1 -1.6,1.6 v 7.2 c 0,0.4 0.1,1.6 1.6,1.6 h 10.4 v 10.4 c 0,0.4 0.1,1.6 1.6,1.6 h 7.2 c 0.4,0 1.6,-0.1 1.6,-1.6 v -10.4 h 10.4 c 0.4,0 1.6,-0.1 1.6,-1.6 V 502 c 0,-0.3 -0.1,-1.6 -1.6,-1.6 h -10.4 V 490 c 0,-0.4 -0.1,-1.6 -1.6,-1.6 h -7.2 c -0.4,0 -1.6,0.1 -1.6,1.6 v 10.4 h -10.4 z"
       id="path141"
       inkscape:connector-curvature="0"
       style="fill:#35495e" />
    <path
       d="m -164.6,509.3 c -2,0 -3.7,-1.7 -3.7,-3.7 0,-2 1.7,-3.7 3.7,-3.7 2,0 3.7,1.7 3.7,3.7 0,2 -1.6,3.7 -3.7,3.7 z m 0,-5.9 c -1.2,0 -2.2,1 -2.2,2.2 0,1.2 1,2.2 2.2,2.2 1.2,0 2.2,-1 2.2,-2.2 0,-1.2 -1,-2.2 -2.2,-2.2 z"
       id="path143"
       inkscape:connector-curvature="0"
       style="fill:#35495e" />
    <g
       id="g149"
       style="fill:#35495e">
      <path
         d="m -164.6,490 -3,4.7 h 6.1 z"
         id="path145"
         inkscape:connector-curvature="0" />
      <path
         d="m -161.5,495.5 h -6.1 c -0.4,0 -0.8,-0.3 -0.8,-0.8 0,-0.1 0,-0.3 0.1,-0.4 l 3,-4.7 c 0.3,-0.4 1,-0.4 1.3,0 l 3,4.7 c 0.2,0.4 0.1,0.8 -0.2,1 -0.1,0.2 -0.2,0.2 -0.3,0.2 z m -4.7,-1.5 h 3.3 l -1.7,-2.6 z"
         id="path147"
         inkscape:connector-curvature="0" />
    </g>
    <g
       id="g155"
       style="fill:#35495e">
      <path
         d="m -180.2,505.6 4.7,3 v -6.1 z"
         id="path151"
         inkscape:connector-curvature="0" />
      <path
         d="m -175.4,509.4 c -0.1,0 -0.3,0 -0.4,-0.1 l -4.7,-3 c -0.4,-0.2 -0.5,-0.7 -0.2,-1 0.1,-0.1 0.1,-0.2 0.2,-0.2 l 4.7,-3 c 0.4,-0.2 0.8,-0.1 1.1,0.2 0.1,0.1 0.1,0.3 0.1,0.4 v 6.1 c -0.1,0.2 -0.4,0.6 -0.8,0.6 z m -3.4,-3.8 2.6,1.7 V 504 c 0,-0.1 -2.6,1.6 -2.6,1.6 z"
         id="path153"
         inkscape:connector-curvature="0" />
    </g>
    <g
       id="g161"
       style="fill:#35495e">
      <path
         d="m -149,505.6 -4.7,-3 v 6.1 z"
         id="path157"
         inkscape:connector-curvature="0" />
      <path
         d="m -153.8,509.4 c -0.4,0 -0.8,-0.3 -0.8,-0.8 v -6.1 c 0,-0.4 0.3,-0.8 0.8,-0.8 0.1,0 0.3,0 0.4,0.1 l 4.7,3 c 0.4,0.2 0.5,0.7 0.2,1.1 -0.1,0.1 -0.1,0.2 -0.2,0.2 l -4.7,3 c -0.1,0.2 -0.2,0.3 -0.4,0.3 z m 0.8,-5.5 v 3.3 l 2.6,-1.7 z"
         id="path159"
         inkscape:connector-curvature="0" />
    </g>
    <g
       id="g167"
       style="fill:#35495e">
      <path
         d="m -164.6,521.1 3,-4.7 h -6.1 z"
         id="path163"
         inkscape:connector-curvature="0" />
      <path
         d="m -164.6,521.9 c -0.3,0 -0.5,-0.1 -0.6,-0.3 l -3,-4.7 c -0.2,-0.4 -0.1,-0.8 0.2,-1.1 0.1,-0.1 0.3,-0.1 0.4,-0.1 h 6.1 c 0.4,0 0.8,0.3 0.8,0.8 0,0.1 0,0.3 -0.1,0.4 l -3,4.7 c -0.3,0.1 -0.5,0.3 -0.8,0.3 z m -1.6,-4.8 1.7,2.6 1.7,-2.6 z"
         id="path165"
         inkscape:connector-curvature="0" />
    </g>
    <path
       d="m -133.5,512.9 v -15.5 h 4.4 c 1.3,0 2.5,0.3 3.6,0.9 1,0.6 1.8,1.4 2.4,2.5 0.6,1.1 0.9,2.4 0.9,3.8 v 1 c 0,1.5 -0.3,2.7 -0.9,3.8 -0.5,1.1 -1.4,2 -2.4,2.5 -1,0.6 -2.3,0.9 -3.7,0.9 z m 2,-13.8 v 12.1 h 2.1 c 1.6,0 2.8,-0.5 3.7,-1.5 0.9,-1 1.3,-2.4 1.3,-4.2 v -0.9 c 0,-1.8 -0.4,-3.1 -1.2,-4.1 -0.8,-1 -2,-1.5 -3.5,-1.5 z m 16.1,8.1 h -5.2 v -1.6 h 5.2 z m 4.2,-0.3 v 6.1 h -2 v -15.5 h 5.7 c 1.7,0 3,0.4 4,1.3 1,0.9 1.4,2 1.4,3.4 0,1.5 -0.5,2.7 -1.4,3.5 -0.9,0.8 -2.3,1.2 -4,1.2 z m 0,-1.7 h 3.7 c 1.1,0 1.9,-0.3 2.5,-0.8 0.6,-0.5 0.9,-1.3 0.9,-2.2 0,-0.9 -0.3,-1.7 -0.9,-2.2 -0.6,-0.6 -1.4,-0.8 -2.4,-0.9 h -3.8 z m 18.8,3.7 h -6.5 l -1.5,4 h -2.1 l 5.9,-15.5 h 1.8 l 5.9,15.5 H -91 Z m -5.8,-1.7 h 5.3 l -2.6,-7.2 z m 11.5,5.7 v -15.5 h 4.4 c 1.3,0 2.5,0.3 3.6,0.9 1,0.6 1.8,1.4 2.4,2.5 0.6,1.1 0.9,2.4 0.9,3.8 v 1 c 0,1.5 -0.3,2.7 -0.9,3.8 -0.5,1.1 -1.4,2 -2.4,2.5 -1,0.6 -2.3,0.9 -3.7,0.9 z m 2,-13.8 v 12.1 h 2.2 c 1.6,0 2.8,-0.5 3.7,-1.5 0.9,-1 1.3,-2.4 1.3,-4.2 v -0.9 c 0,-1.8 -0.4,-3.1 -1.2,-4.1 -0.8,-1 -2,-1.5 -3.5,-1.5 z"
       id="path169"
       inkscape:connector-curvature="0"
       style="fill:#35495e" />
  </g>
  <g
     id="g177"
     transform="translate(0.0145,0.01289063)">
    <path
       d="m -194.4,423.3 h 127.2 c 2.1,0 3.8,1.7 3.8,3.8 v 34.5 c 0,2.1 -1.7,3.8 -3.8,3.8 h -127.2 c -2.1,0 -3.8,-1.7 -3.8,-3.8 V 427 c 0,-2 1.7,-3.7 3.8,-3.7 z"
       id="path173"
       inkscape:connector-curvature="0"
       style="fill:#f1f1f1;fill-opacity:0.8;stroke:#35495e;stroke-width:0.829" />
    <path
       d="m -163.6,444.5 h -28.7 c -2.1,0 -3.8,1.7 -3.8,3.9 0,2.2 1.7,3.9 3.8,3.9 h 28.7 c 2.1,0 3.8,-1.7 3.8,-3.9 0,-2.2 -1.7,-3.9 -3.8,-3.9 z m 0.5,-3.5 h 1.2 v -5.9 h 2.1 V 434 h -5.3 v 1.1 h 2.1 v 5.9 z m -2.8,-4.4 c -0.1,-1.5 -1.1,-2.8 -3,-2.8 -2.2,0 -3.1,1.7 -3.1,3.7 0,2 1,3.7 3,3.7 2.3,0 3,-1.5 3.2,-2.9 h -1.3 c -0.1,0.7 -0.5,1.8 -1.7,1.8 -1.1,0 -1.9,-1 -1.9,-2.5 0,-1.8 0.8,-2.7 1.9,-2.7 1,0 1.7,0.6 1.8,1.7 z m -11.9,4.4 h 4.9 v -1.1 h -3.7 v -2 h 3.5 v -1.1 h -3.5 V 435 h 3.6 v -1 h -4.8 z m -5.6,0 h 4.5 v -1.2 h -3.4 V 434 h -1.2 z m -6.1,0 h 4.9 v -1.1 h -3.7 v -2 h 3.5 v -1.1 h -3.5 V 435 h 3.6 v -1 h -4.8 z m -6.4,-5 c 0,2.9 4.1,1.4 4.1,3.1 0,0.8 -0.7,1 -1.4,1 -1,0 -1.6,-0.4 -1.6,-1.4 h -1.3 c 0,1.5 0.8,2.5 2.8,2.5 1.2,0 2.7,-0.5 2.7,-2.3 0,-3 -4.1,-1.4 -4.1,-3.1 0,-0.7 0.5,-1 1.3,-1 1,0 1.4,0.6 1.4,1.1 h 1.3 c -0.1,-2 -1.9,-2.2 -2.7,-2.2 -1.4,0.1 -2.5,0.7 -2.5,2.3 m 54.2,8.8 c -1.8,-0.5 -3,-1.1 -3.8,-1.9 -0.8,-0.7 -1.2,-1.6 -1.2,-2.7 0,-1.2 0.5,-2.2 1.5,-3 1,-0.8 2.3,-1.2 3.8,-1.2 1.1,0 2,0.2 2.8,0.6 0.8,0.4 1.5,1 1.9,1.7 0.5,0.7 0.7,1.5 0.7,2.4 h -2.1 c 0,-0.9 -0.3,-1.7 -0.9,-2.2 -0.6,-0.5 -1.4,-0.8 -2.5,-0.8 -1,0 -1.8,0.2 -2.4,0.7 -0.6,0.4 -0.8,1.1 -0.8,1.8 0,0.6 0.3,1.2 0.8,1.6 0.5,0.4 1.4,0.8 2.7,1.2 1.3,0.4 2.3,0.8 3,1.2 0.7,0.4 1.3,0.9 1.6,1.5 0.4,0.6 0.5,1.3 0.5,2.1 0,1.3 -0.5,2.3 -1.5,3 -1,0.8 -2.3,1.1 -3.9,1.1 -1,0 -2,-0.2 -3,-0.6 -0.9,-0.4 -1.6,-1 -2.1,-1.7 -0.5,-0.7 -0.7,-1.5 -0.7,-2.4 h 2.1 c 0,0.9 0.3,1.7 1,2.2 0.7,0.5 1.6,0.8 2.8,0.8 1.1,0 1.9,-0.2 2.5,-0.7 0.6,-0.4 0.9,-1 0.9,-1.8 0,-0.8 -0.3,-1.3 -0.8,-1.8 -0.6,-0.2 -1.5,-0.7 -2.9,-1.1 z m 17.1,-0.2 h -6.7 v 5.5 h 7.8 v 1.7 h -9.8 v -15.5 h 9.7 v 1.7 h -7.7 v 5 h 6.7 z m 5.7,5.5 h 7.3 v 1.7 h -9.4 v -15.5 h 2.1 z m 18.4,-5.5 h -6.7 v 5.5 h 7.8 v 1.7 h -9.8 v -15.5 h 9.7 v 1.7 h -7.7 v 5 h 6.7 z m 15.1,2.2 c -0.2,1.6 -0.8,2.9 -1.8,3.8 -1,0.9 -2.4,1.3 -4.1,1.3 -1.8,0 -3.3,-0.7 -4.4,-2 -1.1,-1.3 -1.6,-3.1 -1.6,-5.3 v -1.5 c 0,-1.4 0.3,-2.7 0.8,-3.8 0.5,-1.1 1.2,-1.9 2.2,-2.5 0.9,-0.6 2,-0.9 3.3,-0.9 1.6,0 3,0.5 4,1.4 1,0.9 1.6,2.2 1.7,3.8 h -2.1 c -0.2,-1.2 -0.6,-2.1 -1.2,-2.7 -0.6,-0.6 -1.4,-0.8 -2.5,-0.8 -1.3,0 -2.3,0.5 -3.1,1.4 -0.7,1 -1.1,2.3 -1.1,4.1 v 1.5 c 0,1.7 0.4,3 1.1,4 0.7,1 1.7,1.5 2.9,1.5 1.1,0 2,-0.3 2.6,-0.8 0.6,-0.5 1,-1.4 1.2,-2.7 z m 13.2,-8.9 h -5 v 13.8 h -2 v -13.8 h -5 v -1.7 h 12 z"
       id="path175"
       inkscape:connector-curvature="0"
       style="fill:#35495e" />
  </g>
  <g
     id="g197"
     transform="translate(0.0145,0.01289063)">
    <path
       d="m 198.8,443.7 h 71 c 2.1,0 3.8,1.7 3.8,3.8 v 34.6 c 0,2.1 -1.7,3.8 -3.8,3.8 h -71 c -2.1,0 -3.8,-1.7 -3.8,-3.8 v -34.6 c 0,-2.1 1.7,-3.8 3.8,-3.8 z"
       id="path179"
       inkscape:connector-curvature="0"
       style="fill:#f1f1f1;fill-opacity:0.8;stroke:#35495e;stroke-width:0.634" />
    <path
       d="m 255.6,468.2 h -6.5 l -1.5,4 h -2.1 l 5.9,-15.5 h 1.8 l 5.9,15.5 H 257 Z m -5.9,-1.6 h 5.3 l -2.6,-7.2 z"
       id="path181"
       inkscape:connector-curvature="0"
       style="fill:#35495e" />
    <g
       transform="matrix(0.99188,0,0,-0.99188,557.5,168.996)"
       id="g195">
      <defs
         id="defs184">
        <path
           id="b"
           d="m -362.7,-316.7 h 36.5 v 36.5 h -36.5 z"
           inkscape:connector-curvature="0" />
      </defs>
      <clipPath
         id="c">
        <use
           xlink:href="#b"
           overflow="visible"
           id="use186"
           style="overflow:visible"
           x="0"
           y="0"
           width="100%"
           height="100%" />
      </clipPath>
      <g
         clip-path="url(#c)"
         id="g193"
         style="fill:#35495e">
        <path
           d="m -332.8,-302.9 c -2.8,0 -5.1,2.3 -5.1,5.1 0,2.8 2.3,5.1 5.1,5.1 2.8,0 5.1,-2.3 5.1,-5.1 0,-2.8 -2.2,-5.1 -5.1,-5.1 m -10.7,8.4 c -2.8,0 -5.1,2.3 -5.1,5.1 0,2.8 2.3,5.1 5.1,5.1 2.8,0 5.1,-2.3 5.1,-5.1 0,-2.8 -2.3,-5.1 -5.1,-5.1 m -1.9,-18.3 c -2.8,0 -5.1,2.3 -5.1,5.1 0,2.8 2.3,5.1 5.1,5.1 2.8,0 5.1,-2.3 5.1,-5.1 0,-2.8 -2.2,-5.1 -5.1,-5.1 m -10.6,8.6 c -2.8,0 -5.1,2.3 -5.1,5.1 0,2.8 2.3,5.1 5.1,5.1 2.8,0 5.1,-2.4 5,-5.2 0,-2.7 -2.2,-4.9 -5,-5 m 11.6,24.3 c -10.2,0 -18.5,-8.3 -18.5,-18.5 0,-10.2 8.3,-18.5 18.5,-18.5 10.2,0 18.5,8.3 18.5,18.5 0,10.2 -8.3,18.5 -18.5,18.5"
           id="path189"
           inkscape:connector-curvature="0" />
        <path
           d="m -341.8,-307.7 c 0,-2 -1.6,-3.6 -3.6,-3.6 -2,0 -3.6,1.6 -3.6,3.6 0,2 1.6,3.6 3.6,3.6 2,0 3.6,-1.6 3.6,-3.6 m -10.4,8.7 c 0,-2.1 -1.7,-3.8 -3.8,-3.8 -2.1,0 -3.8,1.7 -3.8,3.8 0,2.1 1.7,3.8 3.8,3.8 2.1,0 3.8,-1.7 3.8,-3.8 m 12.3,9.6 c 0,-2 -1.5,-3.7 -3.5,-3.7 -2,0 -3.7,1.5 -3.7,3.5 v 0.2 c 0,2 1.7,3.6 3.7,3.5 1.9,-0.1 3.4,-1.6 3.5,-3.5"
           id="path191"
           inkscape:connector-curvature="0" />
      </g>
    </g>
  </g>
  <g
     id="g217"
     transform="translate(0.0145,0.01289063)">
    <path
       d="m 198.8,503.3 h 71 c 2.1,0 3.8,1.7 3.8,3.8 v 34.6 c 0,2.1 -1.7,3.8 -3.8,3.8 h -71 c -2.1,0 -3.8,-1.7 -3.8,-3.8 v -34.6 c 0,-2.1 1.7,-3.8 3.8,-3.8 z"
       id="path199"
       inkscape:connector-curvature="0"
       style="fill:#f1f1f1;fill-opacity:0.8;stroke:#35495e;stroke-width:0.634" />
    <path
       d="m 247,531.8 v -15.5 h 5.1 c 1.7,0 2.9,0.3 3.8,1 0.9,0.7 1.3,1.7 1.3,3.1 0,0.7 -0.2,1.4 -0.6,1.9 -0.4,0.6 -1,1 -1.7,1.3 0.8,0.2 1.5,0.7 2,1.3 0.5,0.7 0.7,1.4 0.7,2.3 0,1.4 -0.5,2.5 -1.4,3.3 -0.9,0.8 -2.2,1.2 -3.8,1.2 H 247 Z m 2.1,-7.2 v 5.6 h 3.4 c 1,0 1.7,-0.2 2.2,-0.7 0.6,-0.5 0.8,-1.2 0.8,-2 0,-1.9 -1,-2.8 -3,-2.8 z m 0,-1.6 h 3.1 c 0.9,0 1.6,-0.2 2.1,-0.7 0.5,-0.4 0.8,-1.1 0.8,-1.8 0,-0.9 -0.2,-1.5 -0.7,-1.9 -0.5,-0.4 -1.3,-0.6 -2.3,-0.6 h -3 z"
       id="path201"
       inkscape:connector-curvature="0"
       style="fill:#35495e" />
    <g
       transform="matrix(1.01304,0,0,-1.01304,519.025,242.196)"
       id="g215">
      <defs
         id="defs204">
        <path
           id="d"
           d="m -318.5,-297.7 h 38 v 38 h -38 z"
           inkscape:connector-curvature="0" />
      </defs>
      <clipPath
         id="e">
        <use
           xlink:href="#d"
           overflow="visible"
           id="use206"
           style="overflow:visible"
           x="0"
           y="0"
           width="100%"
           height="100%" />
      </clipPath>
      <g
         clip-path="url(#e)"
         id="g213"
         style="fill:#35495e">
        <path
           d="m -287.8,-283.1 c -2.8,0 -5.1,2.3 -5.1,5.1 0,2.8 2.3,5.1 5.1,5.1 2.8,0 5.1,-2.3 5.1,-5.1 0,-2.8 -2.3,-5.1 -5.1,-5.1 m -10.8,8.4 c -2.8,0 -5.1,2.3 -5.1,5.1 0,2.8 2.3,5.1 5.1,5.1 2.8,0 5.1,-2.3 5.1,-5.1 0,-2.8 -2.3,-5.1 -5.1,-5.1 m -1.8,-18.3 c -2.8,0 -5.1,2.3 -5.1,5.1 0,2.8 2.3,5.1 5.1,5.1 2.8,0 5.1,-2.3 5.1,-5.1 0,-2.8 -2.3,-5.1 -5.1,-5.1 m -10.7,8.6 c -2.8,0 -5.1,2.3 -5.1,5.1 0,2.8 2.3,5.1 5.1,5.1 2.8,0 5.1,-2.4 5,-5.2 0,-2.7 -2.2,-4.9 -5,-5 m 11.6,24.3 c -10.2,0 -18.5,-8.3 -18.5,-18.5 0,-10.2 8.3,-18.5 18.5,-18.5 10.2,0 18.5,8.3 18.5,18.5 0,10.2 -8.2,18.5 -18.5,18.5"
           id="path209"
           inkscape:connector-curvature="0" />
        <path
           d="m -284.2,-277.9 c 0,-2 -1.6,-3.7 -3.7,-3.7 -2,0 -3.7,1.6 -3.7,3.7 0,2 1.6,3.7 3.7,3.7 2.1,-0.1 3.7,-1.7 3.7,-3.7 m -23.1,-1.3 c 0,-2.1 -1.7,-3.8 -3.8,-3.8 -2.1,0 -3.8,1.7 -3.8,3.8 0,2.1 1.7,3.8 3.8,3.8 2.1,0 3.8,-1.7 3.8,-3.8 m 12.3,9.6 c 0,-2 -1.5,-3.7 -3.5,-3.7 -2,0 -3.7,1.5 -3.7,3.5 v 0.2 c 0,2 1.7,3.6 3.7,3.5 1.9,-0.1 3.5,-1.6 3.5,-3.5"
           id="path211"
           inkscape:connector-curvature="0" />
      </g>
    </g>
  </g>
  <g
     id="g225"
     transform="translate(0.0145,0.01289063)">
    <path
       d="m -124.6,278.7 h 73.3 c 2.1,0 3.8,1.7 3.8,3.8 v 34.6 c 0,2.1 -1.7,3.8 -3.8,3.8 h -73.3 c -2.1,0 -3.8,-1.7 -3.8,-3.8 v -34.6 c 0,-2.1 1.7,-3.8 3.8,-3.8 z"
       id="path219"
       inkscape:connector-curvature="0"
       style="fill:#f1f1f1;fill-opacity:0.8;stroke:#35495e;stroke-width:0.64399999" />
    <path
       d="m -74.3,305.6 h 7.3 v 1.7 h -9.4 v -15.5 h 2.1 z m 15.6,1.7 h -2 v -13.1 l -4,1.5 v -1.8 l 5.6,-2.1 h 0.3 z M -97.3,293 c 3.3,0 6,3 6,6.7 0,3.7 -2.7,6.7 -6,6.7 h -20.6 c -3.3,0 -6,-3 -6,-6.7 0,-3.7 2.7,-6.7 6,-6.7 h 20.6 m 0,-1.4 h -20.6 c -4.1,0 -7.4,3.7 -7.4,8.1 0,4.5 3.3,8.1 7.4,8.1 h 20.6 c 4.1,0 7.5,-3.6 7.5,-8.1 0,-4.5 -3.4,-8.1 -7.5,-8.1 z"
       id="path221"
       inkscape:connector-curvature="0"
       style="fill:#35495e" />
    <path
       d="m -110.1,303.2 h 5 v -1.3 h -3.4 v -5.8 h -1.6 z"
       id="path223"
       inkscape:connector-curvature="0"
       style="fill:#35495e" />
  </g>
  <g
     id="g233"
     transform="translate(0.0145,0.01289063)">
    <path
       d="m 186.6,278.7 h 73.3 c 2.1,0 3.8,1.7 3.8,3.8 v 34.6 c 0,2.1 -1.7,3.8 -3.8,3.8 h -73.3 c -2.1,0 -3.8,-1.7 -3.8,-3.8 v -34.6 c 0,-2.1 1.7,-3.8 3.8,-3.8 z"
       id="path227"
       inkscape:connector-curvature="0"
       style="fill:#f1f1f1;fill-opacity:0.8;stroke:#35495e;stroke-width:0.64399999" />
    <path
       d="m 240.3,301.1 h -3.6 v 6.3 h -2.1 v -15.5 h 5.1 c 1.7,0 3.1,0.4 4,1.2 0.9,0.8 1.4,2 1.4,3.5 0,1 -0.3,1.8 -0.8,2.5 -0.5,0.7 -1.2,1.3 -2.2,1.6 l 3.6,6.6 v 0.1 h -2.2 z m -3.6,-1.6 h 3.1 c 1,0 1.8,-0.3 2.4,-0.8 0.6,-0.5 0.9,-1.2 0.9,-2.1 0,-1 -0.3,-1.7 -0.9,-2.2 -0.6,-0.5 -1.4,-0.8 -2.5,-0.8 h -3.1 z m 17.3,7.9 h -2 v -13.1 l -4,1.5 V 294 l 5.6,-2.1 h 0.3 z m -52.1,-10 h 1.7 c 0.7,0 1.1,0.3 1.1,1 0,0.7 -0.4,1 -1.1,1 h -1.7 z m -1.5,5.8 h 1.5 v -2.7 h 1.5 c 0.8,0 1.1,0.3 1.2,1.1 0.1,0.6 0.1,1.2 0.2,1.7 h 1.5 c -0.3,-0.4 -0.3,-1.2 -0.3,-1.7 0,-0.7 -0.3,-1.4 -1,-1.6 0,0 1.1,-0.3 1.1,-1.8 0,-1.1 -0.8,-1.9 -2.1,-1.9 h -3.8 z"
       id="path229"
       inkscape:connector-curvature="0"
       style="fill:#35495e" />
    <path
       d="m 213.6,293 c 3.3,0 6,3 6,6.7 0,3.7 -2.7,6.7 -6,6.7 h -20.4 c -3.3,0 -6,-3 -6,-6.7 0,-3.6 2.7,-6.6 5.9,-6.6 l 20.5,-0.1 m 0,-1.4 h -20.4 c -4.1,0 -7.4,3.6 -7.4,8.1 0,4.4 3.3,8.1 7.4,8.1 h 20.4 c 4.1,0 7.4,-3.6 7.4,-8.1 0,-4.5 -3.3,-8.1 -7.4,-8.1 z"
       id="path231"
       inkscape:connector-curvature="0"
       style="fill:#35495e" />
  </g>
  <ellipse
     cx="7.8145003"
     cy="485.41287"
     rx="2.5"
     ry="2.4000001"
     id="ellipse235"
     style="fill:#1a1a1a;stroke:#1a1a1a" />
  <ellipse
     cx="68.914505"
     cy="479.11288"
     rx="2.5"
     ry="2.4000001"
     id="ellipse237"
     style="fill:#1a1a1a;stroke:#1a1a1a" />
  <ellipse
     cx="116.5145"
     cy="496.81287"
     rx="2.5"
     ry="2.4000001"
     id="ellipse239"
     style="fill:#1a1a1a;stroke:#1a1a1a" />
  <ellipse
     cx="158.71449"
     cy="464.81287"
     rx="2.5"
     ry="2.4000001"
     id="ellipse241"
     style="fill:#1a1a1a;stroke:#1a1a1a" />
  <ellipse
     cx="169.5145"
     cy="314.41287"
     rx="2.5"
     ry="2.4000001"
     id="ellipse243"
     style="fill:#1a1a1a;stroke:#1a1a1a" />
  <path
     d="m 169.4145,299.81289 0.1,14.6 m 25.5,210.7 -79.1,0.1 m 66.9,-225.4 h -14.1"
     id="path245"
     inkscape:connector-curvature="0"
     style="fill:#1a1a1a;stroke:#1a1a1a;stroke-width:1.33800006" />
  <path
     d="m 116.5145,496.81289 v 28.3 m 42.2,-60.3 h 36.3 m -186.6,40.7 h -71.9"
     id="path247"
     inkscape:connector-curvature="0"
     style="fill:none;stroke:#1a1a1a;stroke-width:1.33800006" />
  <path
     d="m 68.7145,479.01289 v -31.2 m 0,0.5 h -132.2"
     id="path249"
     inkscape:connector-curvature="0"
     style="fill:none;stroke:#1a1a1a" />
  <path
     d="m 7.8145,505.51289 v -20"
     id="path251"
     inkscape:connector-curvature="0"
     style="fill:none;stroke:#1a1a1a;stroke-width:1.33800006" />
</svg>
