<?xml version="1.0" encoding="UTF-8" standalone="no"?>
<svg
   xmlns:dc="http://purl.org/dc/elements/1.1/"
   xmlns:cc="http://creativecommons.org/ns#"
   xmlns:rdf="http://www.w3.org/1999/02/22-rdf-syntax-ns#"
   xmlns:svg="http://www.w3.org/2000/svg"
   xmlns="http://www.w3.org/2000/svg"
   xmlns:xlink="http://www.w3.org/1999/xlink"
   xmlns:sodipodi="http://sodipodi.sourceforge.net/DTD/sodipodi-0.dtd"
   xmlns:inkscape="http://www.inkscape.org/namespaces/inkscape"
   viewBox="0 0 93.909794 90.953244"
   version="1.1"
   id="svg185"
   sodipodi:docname="game.svg"
   width="93.909798"
   height="90.953247"
   inkscape:version="0.92.4 5da689c313, 2019-01-14">
  <metadata
     id="metadata191">
    <rdf:RDF>
      <cc:Work
         rdf:about="">
        <dc:format>image/svg+xml</dc:format>
        <dc:type
           rdf:resource="http://purl.org/dc/dcmitype/StillImage" />
      </cc:Work>
    </rdf:RDF>
  </metadata>
  <defs
     id="defs189" />
  <sodipodi:namedview
     pagecolor="#ffffff"
     bordercolor="#666666"
     borderopacity="1"
     objecttolerance="10"
     gridtolerance="10"
     guidetolerance="10"
     inkscape:pageopacity="0"
     inkscape:pageshadow="2"
     inkscape:window-width="471"
     inkscape:window-height="442"
     id="namedview187"
     showgrid="false"
     inkscape:zoom="2.5947467"
     inkscape:cx="46.954901"
     inkscape:cy="45.476499"
     inkscape:window-x="0"
     inkscape:window-y="0"
     inkscape:window-maximized="0"
     inkscape:current-layer="svg185">
    <inkscape:grid
       type="xygrid"
       id="grid193"
       originx="-0.00010117787"
       originy="-2.9296874e-06" />
  </sodipodi:namedview>
  <path
     d="m 92.329899,77.911248 v -55.875 H 1.5798988 v 55.875 c 0,7.203 20.3150002,13.042 45.3750002,13.042 25.06,0 45.375,-5.839 45.375,-13.042 z"
     id="path2"
     inkscape:connector-curvature="0"
     style="fill:#898988" />
  <path
     d="m 14.496899,32.786248 c 3.521,-5.375 14.532,-10.75 32.458,-10.75 17.926,0 28.938,5.375 32.458,10.75 h 11.625 c 2.887,0 2.845,0.333 2.87,-4.06 0.049,-8.857 -0.855,-17.408 -2.06,-23.5440002 -1.26,-6.417 -8.06,-5.06300004 -44.893,-5.06300004 -36.833,0 -43.6340002,-1.35399996 -44.8930002,5.06300004 -1.20399998,6.1360002 -2.10899998,14.6870002 -2.05999998,23.5440002 0.024,4.393 -0.018,4.06 2.86999998,4.06 z"
     id="path4"
     inkscape:connector-curvature="0"
     style="fill:#939393" />
  <path
     d="m 70.131899,32.791248 c -0.26,0 -0.511,-0.169 -0.557,-0.426 -0.689,-3.804 -10.553,-6.821 -22.62,-6.821 -12.067,0 -21.906,3.017 -22.594,6.821 -0.046,0.256 -0.296,0.426 -0.557,0.426 l -9.308,-0.005 c 3.521,-5.375 14.532,-10.75 32.458,-10.75 17.926,0 28.938,5.375 32.458,10.75 z"
     id="path6"
     inkscape:connector-curvature="0"
     style="fill:#999998" />
  <linearGradient
     id="a"
     gradientUnits="userSpaceOnUse"
     x1="45.994999"
     y1="76.536003"
     x2="45.994999"
     y2="34.410999"
     gradientTransform="translate(-1.0117787e-4,2.4776228e-4)">
    <stop
       offset="0"
       stop-color="#ebdb4f"
       id="stop8" />
    <stop
       offset="1"
       stop-color="#e5c201"
       id="stop10" />
  </linearGradient>
  <path
     d="m 81.494899,34.411248 a 4.702,4.702 0 0 1 4.688,4.688 v 26.5 c 0,9.125 -37.609,10.938 -40.188,10.938 -2.579,0 -40.1880002,-1.814 -40.1880002,-10.939 v -26.5 a 4.702,4.702 0 0 1 4.6880002,-4.688 h 71 z"
     id="path13"
     inkscape:connector-curvature="0"
     style="fill:url(#a)" />
  <path
     d="m 74.999899,65.058248 a 5.8460001,5.8460001 0 1 0 -0.002,-11.692 5.8460001,5.8460001 0 0 0 0.002,11.692"
     id="path15"
     inkscape:connector-curvature="0"
     style="fill:#ffffff" />
  <path
     d="m 75.006899,64.368248 a 5.13,5.13 0 0 0 3.648,-1.511 5.123,5.123 0 0 0 1.511,-3.648 5.13,5.13 0 0 0 -1.511,-3.648 5.123,5.123 0 0 0 -3.648,-1.511 c -2.891,0 -5.158,2.265 -5.158,5.155 a 5.13,5.13 0 0 0 1.511,3.648 5.116,5.116 0 0 0 3.647,1.515 m -5.111,-5.158 c 0,-1.386 0.524,-2.673 1.476,-3.625 a 5.097,5.097 0 0 1 3.635,-1.485 c 1.364,0 2.648,0.533 3.616,1.498 0.965,0.965 1.498,2.249 1.498,3.616 0,1.367 -0.53,2.648 -1.498,3.616 -0.965,0.965 -2.249,1.498 -3.616,1.498 -1.367,0 -2.648,-0.53 -3.616,-1.498 a 5.094,5.094 0 0 1 -1.495,-3.62"
     id="path17"
     inkscape:connector-curvature="0"
     style="fill:#a89556" />
  <path
     d="m 77.158899,64.419248 a 5.643,5.643 0 0 1 -7.369,-3.05 5.6412031,5.6412031 0 0 1 10.423,-4.319 5.643,5.643 0 0 1 -3.054,7.369 m 0.598,1.447 0.399,-1.195 1.236,0.249 0.067,-1.246 1.246,-0.08 -0.24,-1.233 1.188,-0.399 -0.559,-1.121 1.044,-0.693 -0.818,-0.942 0.827,-0.945 -1.054,-0.687 0.559,-1.124 -1.185,-0.409 0.236,-1.211 -1.239,-0.102 -0.08,-1.242 -1.22,0.246 -0.399,-1.188 -1.131,0.562 -0.693,-1.044 -0.941,0.817 -0.942,-0.818 -0.693,1.038 -1.121,-0.546 -0.406,1.179 -1.223,-0.233 -0.08,1.239 -1.255,0.083 0.24,1.233 -1.179,0.396 0.559,1.121 -1.044,0.69 0.821,0.952 -0.811,0.929 1.041,0.703 -0.562,1.121 1.182,0.402 -0.243,1.223 1.242,0.089 0.089,1.242 1.22,-0.246 0.402,1.175 1.124,-0.549 0.69,1.035 0.955,-0.811 0.933,0.821 0.693,-1.038 z"
     id="path19"
     inkscape:connector-curvature="0"
     style="fill:#a89556" />
  <path
     d="m 73.086899,61.164248 c 0,0.057 0.026,0.169 0.188,0.169 0.089,0 0.188,-0.026 0.188,-0.137 0,-0.083 -0.067,-0.105 -0.163,-0.131 l -0.096,-0.026 c -0.144,-0.038 -0.284,-0.077 -0.284,-0.31 0,-0.118 0.054,-0.326 0.345,-0.326 0.275,0 0.348,0.211 0.351,0.342 h -0.179 c -0.006,-0.048 -0.019,-0.16 -0.185,-0.16 -0.07,0 -0.157,0.032 -0.157,0.128 0,0.083 0.057,0.099 0.096,0.112 l 0.22,0.064 c 0.121,0.035 0.236,0.093 0.236,0.284 0,0.316 -0.275,0.345 -0.355,0.345 -0.329,0 -0.383,-0.224 -0.383,-0.355 h 0.178 z m 1.297,0.096 c -0.048,0.188 -0.179,0.249 -0.294,0.249 -0.188,0 -0.332,-0.105 -0.332,-0.428 0,-0.093 0.029,-0.396 0.319,-0.396 0.131,0 0.313,0.073 0.313,0.431 v 0.035 h -0.457 c 0.006,0.057 0.016,0.192 0.157,0.192 a 0.112,0.112 0 0 0 0.112,-0.086 z m -0.173,-0.239 c -0.01,-0.128 -0.08,-0.166 -0.134,-0.166 -0.083,0 -0.125,0.061 -0.137,0.166 z m 0.875,0.316 c 0,0.093 0.016,0.112 0.038,0.121 v 0.032 h -0.188 a 0.345,0.345 0 0 1 -0.016,-0.093 c -0.042,0.048 -0.096,0.112 -0.214,0.112 -0.099,0 -0.201,-0.067 -0.201,-0.227 0,-0.153 0.083,-0.23 0.195,-0.249 l 0.157,-0.029 c 0.029,-0.003 0.061,-0.019 0.061,-0.061 0,-0.086 -0.07,-0.093 -0.115,-0.093 -0.086,0 -0.102,0.064 -0.109,0.109 h -0.169 c 0.019,-0.24 0.16,-0.275 0.297,-0.275 0.093,0 0.265,0.035 0.265,0.227 v 0.426 z m -0.172,-0.23 c -0.019,0.016 -0.045,0.029 -0.118,0.042 -0.064,0.013 -0.118,0.032 -0.118,0.118 0,0.073 0.048,0.093 0.08,0.093 a 0.154,0.154 0 0 0 0.157,-0.153 v -0.1 z m 0.374,-0.674 h 0.176 v 1.057 h -0.176 z m 1.019,1.076 c -0.179,0 -0.339,-0.131 -0.339,-0.412 0,-0.281 0.16,-0.412 0.339,-0.412 0.179,0 0.339,0.128 0.339,0.412 -0.001,0.285 -0.161,0.412 -0.339,0.412 m 0,-0.651 c -0.134,0 -0.16,0.137 -0.16,0.24 0,0.102 0.026,0.24 0.16,0.24 0.134,0 0.16,-0.137 0.16,-0.24 -0.001,-0.103 -0.026,-0.24 -0.16,-0.24 m 0.706,0.632 h -0.176 v -0.636 h -0.096 v -0.147 h 0.096 v -0.064 c 0,-0.163 0.073,-0.224 0.195,-0.224 a 0.58,0.58 0 0 1 0.089,0.003 v 0.166 h -0.048 c -0.061,0 -0.061,0.022 -0.061,0.086 v 0.032 h 0.115 v 0.147 h -0.115 v 0.637 z m -3.428,1.584 -0.105,-0.118 a 0.433,0.433 0 0 1 -0.23,0.07 c -0.118,0 -0.431,-0.061 -0.431,-0.556 0,-0.495 0.313,-0.556 0.431,-0.556 0.118,0 0.431,0.061 0.431,0.556 a 0.674,0.674 0 0 1 -0.093,0.377 l 0.099,0.109 z m -0.23,-0.482 0.096,0.105 a 0.524,0.524 0 0 0 0.042,-0.227 c 0,-0.294 -0.144,-0.371 -0.243,-0.371 -0.102,0 -0.243,0.073 -0.243,0.371 0,0.298 0.144,0.371 0.243,0.371 a 0.18,0.18 0 0 0 0.102,-0.029 l -0.089,-0.099 z m 1.102,0.406 h -0.166 v -0.109 h -0.003 a 0.212,0.212 0 0 1 -0.201,0.131 c -0.131,0 -0.227,-0.089 -0.227,-0.287 v -0.514 h 0.176 v 0.485 c 0,0.121 0.061,0.144 0.115,0.144 0.057,0 0.134,-0.038 0.134,-0.179 v -0.45 h 0.176 z m 0.741,-0.153 c 0,0.093 0.016,0.112 0.038,0.121 v 0.032 h -0.188 c -0.01,-0.038 -0.013,-0.048 -0.016,-0.093 a 0.254,0.254 0 0 1 -0.214,0.112 c -0.099,0 -0.201,-0.067 -0.201,-0.227 0,-0.153 0.083,-0.23 0.195,-0.249 l 0.157,-0.029 c 0.029,-0.003 0.061,-0.019 0.061,-0.061 0,-0.086 -0.07,-0.093 -0.115,-0.093 -0.086,0 -0.102,0.064 -0.109,0.109 h -0.169 c 0.019,-0.24 0.16,-0.275 0.297,-0.275 0.093,0 0.265,0.035 0.265,0.227 v 0.426 z m -0.172,-0.227 c -0.019,0.016 -0.048,0.029 -0.118,0.042 -0.064,0.013 -0.118,0.032 -0.118,0.118 0,0.073 0.048,0.096 0.08,0.096 0.077,0 0.157,-0.061 0.157,-0.153 v -0.103 z m 0.374,-0.677 h 0.176 v 1.057 h -0.176 z m 0.562,1.057 h -0.176 v -0.783 h 0.176 z m 0,-0.875 h -0.176 v -0.192 h 0.176 z m 0.405,0.092 h 0.109 v 0.147 h -0.109 v 0.425 c 0,0.045 0,0.064 0.073,0.064 0.013,0 0.022,-0.003 0.035,-0.003 v 0.157 c -0.029,0 -0.054,0.003 -0.083,0.003 h -0.022 c -0.15,0 -0.179,-0.067 -0.179,-0.169 v -0.476 h -0.089 v -0.147 h 0.089 v -0.211 h 0.176 z m 0.623,0.77 c -0.083,0.291 -0.105,0.329 -0.259,0.329 l -0.08,-0.003 v -0.166 c 0.006,0 0.019,0.003 0.035,0.003 0.064,0 0.099,-0.01 0.115,-0.118 l -0.246,-0.814 h 0.195 l 0.144,0.575 h 0.003 l 0.137,-0.575 h 0.185 z m -4.053,-7.346 c 0.131,0 0.476,0.067 0.476,0.613 0,0.546 -0.345,0.613 -0.476,0.613 -0.131,0 -0.476,-0.067 -0.476,-0.613 0,-0.549 0.345,-0.613 0.476,-0.613 m 0,1.019 c 0.112,0 0.268,-0.08 0.268,-0.409 0,-0.326 -0.157,-0.409 -0.268,-0.409 -0.112,0 -0.268,0.08 -0.268,0.409 0,0.329 0.156,0.409 0.268,0.409 m 0.623,-0.687 h 0.185 v 0.15 h 0.003 c 0.038,-0.086 0.083,-0.172 0.201,-0.172 0.013,0 0.026,0 0.038,0.003 v 0.23 c -0.016,-0.003 -0.038,-0.003 -0.054,-0.003 -0.15,0 -0.179,0.112 -0.179,0.208 v 0.45 h -0.192 v -0.866 z m 0.738,0.862 h -0.192 v -0.862 h 0.192 z m 0,-0.964 h -0.192 v -0.211 h 0.192 z m 0.856,0.102 v 0.818 c 0,0.15 -0.01,0.396 -0.371,0.396 -0.15,0 -0.313,-0.077 -0.319,-0.259 h 0.211 c 0.01,0.045 0.022,0.086 0.134,0.086 0.102,0 0.153,-0.057 0.153,-0.198 v -0.102 l -0.003,-0.003 c -0.032,0.067 -0.08,0.131 -0.195,0.131 -0.176,0 -0.316,-0.144 -0.316,-0.447 0,-0.297 0.144,-0.444 0.303,-0.444 0.137,0 0.192,0.093 0.214,0.15 h 0.003 v -0.128 z m -0.355,0.677 c 0.131,0 0.163,-0.131 0.163,-0.249 0,-0.141 -0.057,-0.252 -0.166,-0.252 -0.07,0 -0.15,0.061 -0.15,0.262 0,0.108 0.038,0.239 0.153,0.239 m 0.725,0.185 h -0.192 v -0.862 h 0.192 z m 0,-0.964 h -0.192 v -0.211 h 0.192 z m 0.846,0.964 h -0.192 v -0.524 c 0,-0.064 -0.003,-0.169 -0.125,-0.169 -0.086,0 -0.15,0.067 -0.15,0.198 v 0.495 h -0.192 v -0.862 h 0.185 v 0.128 h 0.003 c 0.026,-0.051 0.08,-0.15 0.22,-0.15 0.144,0 0.256,0.099 0.256,0.287 z m 0.773,-0.169 c 0,0.102 0.019,0.125 0.042,0.134 v 0.035 h -0.208 c -0.013,-0.042 -0.013,-0.054 -0.019,-0.102 -0.045,0.054 -0.105,0.125 -0.236,0.125 -0.112,0 -0.224,-0.073 -0.224,-0.252 0,-0.169 0.089,-0.256 0.214,-0.275 l 0.172,-0.032 c 0.029,-0.006 0.067,-0.019 0.067,-0.067 0,-0.096 -0.077,-0.099 -0.128,-0.099 -0.096,0 -0.112,0.07 -0.118,0.121 h -0.185 c 0.022,-0.265 0.179,-0.303 0.329,-0.303 0.102,0 0.291,0.038 0.291,0.249 z m -0.188,-0.252 c -0.019,0.019 -0.051,0.032 -0.131,0.048 -0.073,0.013 -0.131,0.035 -0.131,0.131 0,0.08 0.051,0.105 0.089,0.105 a 0.169,0.169 0 0 0 0.172,-0.169 v -0.115 z m 0.367,-0.745 h 0.192 v 1.166 h -0.192 z m 2.76,9.049 h -0.134 v -0.536 h -0.198 v -0.115 h 0.53 v 0.115 h -0.198 z m 0.901,0 h -0.128 v -0.543 l -0.121,0.543 h -0.135 l -0.118,-0.543 h -0.003 v 0.543 h -0.125 v -0.651 h 0.199 l 0.118,0.514 0.118,-0.514 h 0.195 z m -2.524,-7.186 h -6.915 a 1.105,1.105 0 0 0 0,2.21 h 6.915 a 1.105,1.105 0 1 0 0,-2.21 m 0,1.954 h -6.915 a 0.85,0.85 0 1 1 0,-1.7 h 6.915 a 0.85,0.85 0 1 1 0,1.7 m -5.854,-1.194 h 0.319 v -0.188 h -0.319 z m -0.508,0.543 -0.454,-0.731 h -0.329 v 1.064 h 0.319 v -0.731 l 0.454,0.731 h 0.329 v -1.064 h -0.319 z m 0.508,0.332 h 0.319 v -0.719 h -0.319 z m 2.149,-0.783 h -0.179 v -0.128 h -0.316 v 0.128 h -0.179 v 0.077 h 0.179 v 0.706 h 0.316 v -0.706 h 0.179 z m 0.435,0.045 c -0.262,0 -0.479,0.15 -0.479,0.38 0,0.227 0.185,0.377 0.479,0.377 0.243,0 0.371,-0.096 0.457,-0.252 h -0.332 v 0.061 c 0,0.073 -0.061,0.134 -0.125,0.134 -0.067,0 -0.125,-0.061 -0.125,-0.134 v -0.179 h 0.604 v -0.01 c -0.003,-0.22 -0.195,-0.377 -0.479,-0.377 m -0.125,0.272 v -0.077 c 0,-0.073 0.061,-0.134 0.125,-0.134 0.067,0 0.125,0.061 0.125,0.134 v 0.077 z m 3.287,-0.272 c -0.262,0 -0.479,0.15 -0.479,0.38 0,0.249 0.214,0.377 0.479,0.377 0.265,0 0.479,-0.128 0.479,-0.377 -0.003,-0.252 -0.217,-0.38 -0.479,-0.38 m 0.124,0.572 v -0.006 c 0,0.073 -0.057,0.134 -0.125,0.134 -0.068,0 -0.125,-0.061 -0.125,-0.134 l -0.003,-0.188 0.003,-0.182 c 0,-0.073 0.057,-0.131 0.125,-0.131 0.068,0 0.125,0.061 0.125,0.134 v -0.006 l 0.003,0.192 a 2.37,2.37 0 0 1 -0.003,0.187 m -1.047,-0.492 a 0.361,0.361 0 0 0 -0.575,0.304 0.361,0.361 0 0 0 0.575,0.304 v 0.051 h 0.319 v -1.06 h -0.319 z m 0.006,0.3 -0.003,0.166 c 0,0.054 -0.054,0.102 -0.115,0.102 -0.061,0 -0.115,-0.045 -0.115,-0.102 l -0.003,-0.166 0.003,-0.166 c 0,-0.054 0.054,-0.102 0.115,-0.102 0.061,0 0.115,0.051 0.115,0.102 l 0.003,0.166 m -3.398,-0.195 a 0.354,0.354 0 0 0 -0.313,-0.195 0.427,0.427 0 0 0 -0.287,0.109 v -0.076 h -0.319 v 0.719 h 0.319 v -0.476 a 0.15,0.15 0 0 1 0.153,-0.147 0.15,0.15 0 0 1 0.153,0.147 v 0.473 h 0.319 v -0.409 c -0.003,-0.01 0.003,-0.084 -0.025,-0.145 m 2.676,0 a 0.354,0.354 0 0 0 -0.313,-0.195 0.427,0.427 0 0 0 -0.287,0.109 v -0.076 h -0.319 v 0.719 h 0.319 v -0.476 a 0.15,0.15 0 0 1 0.153,-0.147 0.15,0.15 0 0 1 0.153,0.147 v 0.473 h 0.319 v -0.409 a 0.283,0.283 0 0 0 -0.025,-0.145"
     id="path21"
     inkscape:connector-curvature="0"
     style="fill:#a89556" />
  <g
     id="g39"
     transform="translate(-1.0117787e-4,2.4776228e-4)">
    <path
       d="m 11.848,44.692 a 0.567,0.567 0 0 1 -0.567,-0.567 v -4.522 a 0.568,0.568 0 0 1 0.645,-0.562 c 0.042,0.001 2.071,-0.005 2.071,-0.005 1.299,0 1.778,0.985 1.783,1.647 v 0.88 c 0,0.963 -0.902,1.469 -1.741,1.53 h -0.415 v 1.031 a 0.567,0.567 0 0 1 -0.567,0.567 h -1.209 z"
       id="path23"
       inkscape:connector-curvature="0"
       style="fill:#ffffff" />
    <path
       d="m 17.097,44.694 c -1.038,0 -2.25,-0.602 -2.25,-2.296 0,-1.681 1.205,-2.277 2.237,-2.277 0.928,0.015 2.349,0.511 2.349,2.277 0,1.668 -1.356,2.287 -2.267,2.295 -0.003,-10e-4 -0.068,0.001 -0.069,0.001 z m 0.115,-2.098 z"
       id="path25"
       inkscape:connector-curvature="0"
       style="fill:#ffffff" />
    <path
       d="m 21.317,44.695 a 0.566,0.566 0 0 1 -0.423,-0.189 0.567,0.567 0 0 1 -0.423,0.189 H 19.377 A 0.567,0.567 0 0 1 18.81,44.128 v -4.79 c 0,-0.313 0.254,-0.567 0.567,-0.567 h 1.094 c 0.313,0 0.567,0.254 0.567,0.567 v 0.856 a 0.562,0.562 0 0 1 0.279,-0.074 h 1.168 a 0.568,0.568 0 0 1 0.449,0.913 l -0.931,1.208 0.966,1.591 a 0.568,0.568 0 0 1 -0.484,0.861 h -1.168 z"
       id="path27"
       inkscape:connector-curvature="0"
       style="fill:#ffffff" />
    <path
       d="m 24.338,44.692 c -1.455,0 -2.239,-1.183 -2.239,-2.295 0,-1.447 0.784,-2.277 2.152,-2.277 0.854,0 1.522,0.366 1.88,1.031 0.257,0.479 0.265,0.95 0.265,1.001 v 0.631 c 0,0.214 -0.118,0.4 -0.293,0.497 a 0.537,0.537 0 0 1 0.004,0.07 v 0.578 c 0,0.09 -0.021,0.178 -0.062,0.258 -0.181,0.355 -0.691,0.506 -1.707,0.506 z"
       id="path29"
       inkscape:connector-curvature="0"
       style="fill:#ffffff" />
    <path
       d="M 23.567,40.889 A 0.568,0.568 0 0 1 23.123,40.675 L 22.71,40.156 a 0.568,0.568 0 0 1 0.217,-0.873 l 1.447,-0.824 a 0.564,0.564 0 0 1 0.7,0.113 l 0.484,0.535 a 0.569,0.569 0 0 1 -0.155,0.882 l -1.572,0.834 a 0.55,0.55 0 0 1 -0.264,0.066 z m 6.735,3.806 a 0.566,0.566 0 0 1 -0.507,-0.313 0.567,0.567 0 0 1 -0.507,0.313 h -0.914 a 0.568,0.568 0 0 1 -0.517,-0.333 0.566,0.566 0 0 1 -0.517,0.333 h -0.967 a 0.567,0.567 0 0 1 -0.567,-0.567 v -3.44 c 0,-0.313 0.254,-0.567 0.567,-0.567 h 0.558 c 0.251,0 0.437,0.067 0.571,0.153 0.218,-0.092 0.502,-0.153 0.872,-0.153 0.392,0 0.713,0.07 0.958,0.208 0.228,-0.122 0.541,-0.208 0.97,-0.208 0.591,0 0.941,0.242 1.13,0.445 0.416,0.447 0.387,1.039 0.382,1.105 l 0.001,2.457 a 0.567,0.567 0 0 1 -0.567,0.567 z"
       id="path31"
       inkscape:connector-curvature="0"
       style="fill:#ffffff" />
    <path
       d="m 33.536,44.696 c -0.209,0 -0.749,-0.032 -1.25,-0.332 -0.456,-0.272 -1,-0.834 -1,-1.965 0,-1.681 1.205,-2.277 2.236,-2.277 l 0.119,10e-4 c 0.813,0.018 2.23,0.519 2.23,2.276 0,1.668 -1.356,2.286 -2.268,2.295 z m 0.115,-2.098 z"
       id="path33"
       inkscape:connector-curvature="0"
       style="fill:#ffffff" />
    <path
       d="m 38.031,44.695 a 0.567,0.567 0 0 1 -0.567,-0.567 v -1.977 l -0.008,1.977 a 0.567,0.567 0 0 1 -0.567,0.567 h -1.054 a 0.567,0.567 0 0 1 -0.567,-0.567 v -3.44 c 0,-0.313 0.254,-0.567 0.567,-0.567 h 0.759 a 0.85,0.85 0 0 1 0.523,0.173 c 0.239,-0.105 0.54,-0.173 0.914,-0.173 0.567,0 0.916,0.231 1.108,0.425 0.431,0.434 0.439,1.023 0.439,1.089 v 2.493 a 0.567,0.567 0 0 1 -0.567,0.567 z"
       id="path35"
       inkscape:connector-curvature="0"
       style="fill:#ffffff" />
    <path
       d="m 11.848,39.603 v 4.523 h 1.209 v -1.597 h 0.94 c 0,0 1.215,-0.09 1.215,-0.965 v -0.876 c 0,0 -0.008,-1.084 -1.215,-1.084 -1.196,-10e-4 -2.144,0.014 -2.149,-10e-4 z m 1.209,0.876 h 0.645 c 0.331,0.087 0.295,0.387 0.295,0.387 v 0.381 c 0,0.317 -0.295,0.381 -0.295,0.381 h -0.645 z m 4.029,0.208 c -0.334,-10e-4 -1.672,0.094 -1.672,1.71 0,1.847 1.746,1.728 1.746,1.728 0,0 1.706,-0.016 1.706,-1.728 0,-1.712 -1.687,-1.709 -1.706,-1.71 z m 0.074,0.876 c 0,0 0.625,-0.089 0.625,0.834 0,0.855 -0.625,0.763 -0.625,0.763 0,0 -0.651,0.007 -0.651,-0.763 -0.001,-0.927 0.651,-0.823 0.651,-0.834 z m 2.217,-2.225 h 1.094 v 2.616 l 0.846,-1.266 h 1.168 l -1.168,1.516 1.168,1.923 h -1.168 l -0.846,-1.601 v 1.601 h -1.094 z m 4.874,1.349 c -1.29,0 -1.585,0.874 -1.585,1.71 0,0.836 0.57,1.728 1.672,1.728 1.102,0 1.202,-0.197 1.202,-0.197 V 43.35 c -0.008,-0.002 -0.902,0 -1.377,0 -0.475,0 -0.383,-0.566 -0.383,-0.566 h 2.048 v -0.632 c 0.001,10e-4 0.002,-1.465 -1.577,-1.465 z m 0.074,0.751 c 0.545,0 0.551,0.191 0.551,0.191 v 0.524 h -1.095 v -0.524 c 0,0 -10e-4,-0.191 0.544,-0.191 z m -1.171,-1.634 0.413,0.518 1.572,-0.834 -0.484,-0.535 -1.482,0.843 z m 3.219,4.324 H 27.34 V 42.15 c 0,0 0.04,-0.52 0.537,-0.52 0.497,0 0.497,0.52 0.497,0.52 v 1.977 h 0.913 V 42.15 c 0,0 0.02,-0.52 0.517,-0.52 0.497,0 0.497,0.52 0.497,0.52 v 1.977 h 0.947 V 41.63 c 0,0 0.067,-0.943 -0.947,-0.943 -1.014,0 -1.014,0.561 -1.014,0.561 0,0 0.121,-0.561 -0.913,-0.561 -1.034,0 -1.034,0.561 -1.034,0.561 0,0 0.148,-0.561 -0.41,-0.561 h -0.557 z m 7.152,-3.439 c -0.334,-10e-4 -1.672,0.094 -1.672,1.71 0,1.847 1.746,1.728 1.746,1.728 0,0 1.706,-0.016 1.706,-1.728 0,-1.712 -1.687,-1.709 -1.706,-1.71 z m 0.074,0.876 c 0,0 0.625,-0.089 0.625,0.834 0,0.855 -0.625,0.763 -0.625,0.763 0,0 -0.651,0.007 -0.651,-0.763 0,-0.927 0.651,-0.823 0.651,-0.834 z m 2.236,2.563 h 1.054 V 42.15 c 0,0 -0.027,-0.52 0.557,-0.52 0.584,0 0.584,0.52 0.584,0.52 v 1.977 h 0.98 V 41.63 c 0,0 0.007,-0.943 -0.98,-0.943 -0.987,0 -1.142,0.561 -1.142,0.561 0,0 0.094,-0.561 -0.295,-0.561 h -0.759 v 3.441 z"
       id="path37"
       inkscape:connector-curvature="0" />
  </g>
  <g
     id="g71"
     transform="translate(-1.0117787e-4,2.4776228e-4)">
    <path
       d="m 43.475,44.695 a 0.884,0.884 0 0 1 -0.38,-0.086 0.733,0.733 0 0 1 -0.384,-0.448 0.765,0.765 0 0 1 -0.749,0.535 H 41.307 C 40.916,44.672 40.54,44.396 40.54,43.93 v -2.875 a 0.967,0.967 0 0 1 0.941,-0.932 l 4.564,-10e-4 c 0.502,0 1.004,0.32 1.004,0.933 v 2.875 a 0.762,0.762 0 0 1 -0.209,0.533 0.773,0.773 0 0 1 -0.567,0.232 h -0.655 c -0.341,-0.007 -0.689,-0.218 -0.769,-0.599 -0.1,0.342 -0.364,0.599 -0.75,0.599 h -0.617 l -0.007,-0.567 z"
       id="path41"
       inkscape:connector-curvature="0"
       style="fill:#ffffff" />
    <path
       d="m 41.521,40.688 h 4.525 c 0,0 0.437,-0.015 0.437,0.366 v 2.875 c 0,0 0.009,0.199 -0.209,0.199 h -0.655 c 0,0 -0.219,-0.005 -0.219,-0.199 v -1.778 c 0,0 -0.019,-0.227 -0.209,-0.227 h -0.655 c 0,0 -0.218,-0.022 -0.218,0.227 v 1.778 c 0,0 -0.028,0.199 -0.218,0.199 h -0.617 c 0,0 -0.237,0.012 -0.237,-0.199 v -1.778 c 0,0 0.066,-0.227 -0.228,-0.227 h -0.617 c 0,0 -0.218,-0.022 -0.218,0.227 v 1.778 c 0,0 0,0.199 -0.218,0.199 H 41.31 c 0,0 -0.199,-0.013 -0.199,-0.199 v -2.875 c 0,0 0.006,-0.339 0.41,-0.366 z"
       id="path43"
       inkscape:connector-curvature="0" />
    <path
       d="M 47.755,44.695 C 47.367,44.686 46.97,44.414 46.97,43.929 v -1.345 c 0.019,-0.379 0.301,-0.751 0.791,-0.751 l 0.36,0.004 0.036,-0.003 c 0.482,0 0.811,0.323 0.811,0.75 v 1.345 c -0.042,0.412 -0.318,0.766 -0.771,0.766 z"
       id="path45"
       inkscape:connector-curvature="0"
       style="fill:#ffffff" />
    <path
       d="m 48.191,42.4 c 0,0 0.21,-0.014 0.21,0.184 v 1.345 c 0,0 -0.022,0.199 -0.203,0.199 h -0.443 c 0,0 -0.218,-0.005 -0.218,-0.199 v -1.345 c 0,0 0.01,-0.184 0.224,-0.184 0.215,0 0.417,0.007 0.43,0 z"
       id="path47"
       inkscape:connector-curvature="0" />
    <path
       d="m 47.827,42.385 c -0.022,0.002 -0.044,0.004 -0.067,0.004 A 0.879,0.879 0 0 1 47.41,42.314 0.74,0.74 0 0 1 46.97,41.63 v -0.577 c 0,-0.071 0.015,-0.324 0.221,-0.531 a 0.782,0.782 0 0 1 0.573,-0.227 h 0.43 c 0.07,0 0.21,0.011 0.357,0.083 a 0.733,0.733 0 0 1 0.417,0.675 v 0.577 a 0.717,0.717 0 0 1 -0.186,0.511 0.77,0.77 0 0 1 -0.584,0.248 z"
       id="path49"
       inkscape:connector-curvature="0"
       style="fill:#ffffff" />
    <path
       d="m 47.761,41.822 c 0,0 -0.224,0.003 -0.224,-0.192 v -0.576 c 0,0 0,-0.191 0.228,-0.191 h 0.43 c 0,0 0.207,-0.004 0.207,0.191 v 0.576 c 0,0 0.022,0.192 -0.203,0.192 -0.226,0 -0.431,-0.002 -0.438,0 z"
       id="path51"
       inkscape:connector-curvature="0" />
    <path
       d="m 51.844,44.695 a 0.747,0.747 0 0 1 -0.756,-0.561 c -0.094,0.346 -0.422,0.544 -0.733,0.56 h -0.66 a 0.769,0.769 0 0 1 -0.784,-0.842 c 0.009,-0.217 10e-4,-1.431 -0.002,-2.023 l -0.003,-0.581 c 0,-0.614 0.515,-0.949 1,-0.952 h 2.146 a 0.96,0.96 0 0 1 0.997,0.942 v 2.69 c 0,0.47 -0.38,0.745 -0.737,0.765 l -0.032,0.001 h -0.436 z"
       id="path53"
       inkscape:connector-curvature="0"
       style="fill:#ffffff" />
    <path
       d="m 49.474,43.929 c 0,0 0.007,0.199 0.222,0.199 h 0.631 c 0,0 0.222,-0.011 0.222,-0.199 v -1.778 c 0,0 0.007,-0.227 0.215,-0.227 h 0.645 c 0,0 0.222,-0.022 0.222,0.227 v 1.778 c 0,0 -0.013,0.199 0.215,0.199 h 0.436 c 0,0 0.201,-0.011 0.201,-0.199 v -2.68 c 0,0 -0.007,-0.385 -0.43,-0.385 h -2.142 c 0,0 -0.436,0.003 -0.436,0.385 -0.001,0.382 0.019,2.701 -0.001,2.68 z"
       id="path55"
       inkscape:connector-curvature="0" />
    <path
       d="M 53.993,44.695 C 53.606,44.686 53.209,44.414 53.209,43.929 V 42.584 C 53.228,42.205 53.51,41.833 54,41.833 l 0.36,0.004 0.036,-0.003 c 0.482,0 0.811,0.323 0.811,0.75 v 1.345 c -0.042,0.412 -0.318,0.766 -0.771,0.766 z"
       id="path57"
       inkscape:connector-curvature="0"
       style="fill:#ffffff" />
    <path
       d="m 54.43,42.4 c 0,0 0.21,-0.014 0.21,0.184 v 1.345 c 0,0 -0.022,0.199 -0.203,0.199 h -0.443 c 0,0 -0.218,-0.005 -0.218,-0.199 v -1.345 c 0,0 0.009,-0.184 0.224,-0.184 0.215,0 0.417,0.007 0.43,0 z"
       id="path59"
       inkscape:connector-curvature="0" />
    <path
       d="m 54.066,42.385 c -0.022,0.002 -0.044,0.004 -0.067,0.004 a 0.879,0.879 0 0 1 -0.35,-0.075 0.74,0.74 0 0 1 -0.44,-0.684 v -0.577 c 0,-0.071 0.015,-0.324 0.221,-0.531 a 0.782,0.782 0 0 1 0.573,-0.227 h 0.43 c 0.07,0 0.21,0.011 0.357,0.083 a 0.733,0.733 0 0 1 0.417,0.675 v 0.577 a 0.717,0.717 0 0 1 -0.186,0.511 0.77,0.77 0 0 1 -0.584,0.248 z"
       id="path61"
       inkscape:connector-curvature="0"
       style="fill:#ffffff" />
    <path
       d="m 54,41.822 c 0,0 -0.224,0.003 -0.224,-0.192 v -0.576 c 0,0 0,-0.191 0.228,-0.191 h 0.43 c 0,0 0.207,-0.004 0.207,0.191 v 0.576 c 0,0 0.022,0.192 -0.203,0.192 -0.226,0 -0.431,-0.002 -0.438,0 z"
       id="path63"
       inkscape:connector-curvature="0" />
    <path
       d="m 55.795,44.696 a 0.567,0.567 0 0 1 -0.567,-0.567 v -0.805 a 0.567,0.567 0 0 1 -0.494,-0.563 v -0.307 c 0,-0.313 0.254,-0.567 0.567,-0.567 h 1.328 c 0.313,0 0.567,0.254 0.567,0.567 v 0.307 a 0.568,0.568 0 0 1 -0.494,0.563 v 0.805 a 0.567,0.567 0 0 1 -0.567,0.567 z"
       id="path65"
       inkscape:connector-curvature="0"
       style="fill:#ffffff" />
    <path
       d="m 57.963,44.696 a 0.568,0.568 0 0 1 -0.394,-0.159 0.563,0.563 0 0 1 -0.394,0.159 h -0.34 a 0.567,0.567 0 0 1 -0.567,-0.567 v -1.674 c 0,-0.313 0.254,-0.567 0.567,-0.567 h 0.295 c 0.171,0 0.332,0.077 0.439,0.208 a 0.566,0.566 0 0 1 0.438,-0.208 h 0.295 c 0.313,0 0.567,0.254 0.567,0.567 v 1.674 a 0.567,0.567 0 0 1 -0.567,0.567 z"
       id="path67"
       inkscape:connector-curvature="0"
       style="fill:#ffffff" />
    <path
       d="m 56.629,42.454 v 0.307 h -0.494 v 1.368 h -0.34 V 42.761 H 55.3 v -0.307 z m 0.94,0.621 0.438,-0.621 h 0.295 v 1.674 h -0.34 v -1.045 l -0.369,0.525 h -0.051 l -0.369,-0.525 v 1.045 h -0.34 v -1.674 h 0.295 z"
       id="path69"
       inkscape:connector-curvature="0" />
  </g>
  <g
     id="g131"
     transform="translate(-1.0117787e-4,2.4776228e-4)">
    <path
       d="m 6.545,50.248 c 2.148,-1.025 4.294,-0.606 6.442,-0.244 1.453,-0.779 3.629,-0.299 4.065,-0.139 a 7.081,7.081 0 0 1 -0.19,-1.79 c 0.987,0.036 1.896,0.136 2.844,0.367 1.29,-0.653 2.645,-1.196 3.936,-1.154 -0.037,0.154 -0.513,0.917 -1.561,1.704 0.699,0.234 2.094,0.592 3.516,1.465 a 85.996,85.996 0 0 0 -2.815,4.018 c -1.215,-0.602 -2.446,-1.161 -3.636,-1.789 0.325,0.789 0.638,1.507 0.927,2.334 a 1.588,1.588 0 0 0 -0.509,0.471 c 0.648,0.296 1.209,0.621 1.745,0.955 0.131,0.085 0.272,0.08 0.418,0.035 -0.028,0.123 0.063,0.167 0.209,0.174 -0.071,0.062 -0.106,0.132 -0.104,0.209 0.031,0.065 0.116,0.124 0.22,0.132 -0.072,0.062 -0.136,0.111 -0.15,0.217 0.048,0.079 0.159,0.145 0.279,0.209 -0.186,0.049 -0.376,0.096 -0.487,0.174 0,0.116 -0.063,0.218 -0.063,0.334 -0.689,0.039 -1.269,0.12 -1.959,0.252 -0.019,0.152 -0.084,0.181 -0.103,0.333 l -0.651,1.029 c 0.164,1.177 1.172,2.843 0.094,3.797 0.612,0.487 0.695,0.869 0.738,1.149 -0.427,0.267 -2.369,-0.761 -1.858,-0.787 a 23.237,23.237 0 0 0 -4.973,-0.014 c -1.571,0.982 -1.885,0.834 -2.365,0.805 -0.272,-0.133 -0.106,-0.455 0.45,-0.944 -0.771,-0.59 -0.915,-2.109 0.129,-5.86 C 10.088,56.302 9.41,54.749 9.362,52.984 9.258,52.88 9.194,52.721 9.089,52.616 L 9.298,52.581 A 0.731,0.731 0 0 0 9.263,52.233 c 0.093,-10e-4 0.202,-0.049 0.313,-0.104 a 0.93,0.93 0 0 0 -0.035,-0.313 0.573,0.573 0 0 0 0.244,0.035 c 0.059,-0.086 0.123,-0.184 0.11,-0.307 0.112,0.116 0.211,0.225 0.377,0.341 l 0.279,-0.104 c 0.171,0.458 0.648,0.792 0.994,1.135 0.029,-0.494 0.207,-1.016 0.364,-1.483 -1.995,0.082 -3.888,-0.07 -5.364,-1.185 z"
       stroke-miterlimit="22.926"
       id="path73"
       inkscape:connector-curvature="0"
       style="clip-rule:evenodd;fill-rule:evenodd;stroke:#1a1a18;stroke-width:0.007;stroke-miterlimit:22.9260006" />
    <path
       d="M 11.507,53.212 11.452,52.92 c -0.007,-0.037 -0.586,-0.577 -0.788,-0.827 -0.018,-0.078 -0.113,-0.181 -0.131,-0.259 -0.078,0.041 -0.181,0.042 -0.259,0.102 -0.12,-0.132 -0.22,-0.16 -0.34,-0.292 l -0.072,0.215 a 0.511,0.511 0 0 1 -0.277,-0.006 0.422,0.422 0 0 1 -0.01,0.294 c -0.054,0.007 -0.23,0.156 -0.284,0.112 0.013,0.108 0.099,0.209 0.078,0.317 -0.084,0.042 -0.161,0.013 -0.245,0.055 l 0.256,0.328 c 0.047,1.937 0.802,3.302 1.749,4.527 l 0.162,-0.377 -0.126,0.682 -0.628,3.177 c -0.109,1.039 -0.09,2.012 0.664,2.62 -0.249,0.177 -0.461,0.372 -0.6,0.604 -0.174,0.29 -0.04,0.184 0.17,0.076 0.197,-0.102 0.395,-0.223 0.592,-0.357 -0.135,0.099 -0.273,0.196 -0.386,0.306 -0.269,0.261 -0.129,0.222 0.147,0.162 0.516,-0.113 1.056,-0.373 1.585,-0.666 -0.244,-0.01 -0.381,-0.019 -0.503,-0.053 1.993,-0.239 3.793,-0.236 5.977,0 l -0.287,0.09 c 0.55,0.343 0.937,0.682 1.765,0.721 -0.115,-0.473 -0.346,-0.754 -0.707,-1.08 0.799,-1.107 0.193,-2.513 -0.125,-3.895 A 8.25,8.25 0 0 1 18.577,57.36 c 0.028,0.123 0.042,0.248 0.07,0.37 0.118,0.522 0.224,0.342 0.758,0.343 0.626,0.002 1.396,-0.182 2.191,-0.216 0.011,-0.073 0.018,-0.1 0.029,-0.173 l 0.028,-0.127 c 0.109,-0.058 0.305,-0.093 0.414,-0.152 -0.063,-0.055 -0.136,-0.139 -0.198,-0.194 a 0.47,0.47 0 0 1 0.124,-0.2 0.413,0.413 0 0 1 -0.188,-0.126 0.205,0.205 0 0 1 0.082,-0.21 C 21.744,56.623 21.671,56.571 21.688,56.507 A 0.313,0.313 0 0 1 21.389,56.51 15.947,15.947 0 0 0 18.89,55.204 c -0.235,0.458 -0.655,0.828 -1.131,1.137 0.718,-0.492 1.338,-1.181 1.119,-2.615 0.088,-0.837 0.187,-2.022 -0.338,-2.672 1.773,-0.445 2.006,-1.031 2.774,-1.568 0.24,-0.612 0.445,-1.223 0.569,-1.835 -1.66,0.32 -3.123,1.388 -4.478,2.389 0.095,0.047 0.23,0.093 0.264,0.176 -1.103,-0.667 -3.277,-0.875 -4.685,-0.169 -2.722,-0.478 -3.883,-0.466 -4.561,-0.312 0.209,0.692 0.573,1.288 1.321,1.62 0.694,0.048 1.655,0.102 2.209,0.022 0.023,-0.095 0.181,-0.322 0.24,-0.43 -0.825,1.84 -0.727,2.812 -0.622,3.777 0.162,0.573 0.622,1.254 1.2,1.772 -0.563,-0.381 -0.951,-1.018 -1.215,-1.635 -0.601,-0.695 -0.3,-1.24 -0.049,-1.649 z"
       id="path75"
       inkscape:connector-curvature="0"
       style="clip-rule:evenodd;fill:#fce200;fill-rule:evenodd" />
    <defs
       id="defs78">
      <path
         id="b"
         d="M 11.507,53.212 11.452,52.92 c -0.007,-0.037 -0.586,-0.577 -0.788,-0.827 -0.018,-0.078 -0.113,-0.181 -0.131,-0.259 -0.078,0.041 -0.181,0.042 -0.259,0.102 -0.12,-0.132 -0.22,-0.16 -0.34,-0.292 l -0.072,0.215 a 0.511,0.511 0 0 1 -0.277,-0.006 0.422,0.422 0 0 1 -0.01,0.294 c -0.054,0.007 -0.23,0.156 -0.284,0.112 0.013,0.108 0.099,0.209 0.078,0.317 -0.084,0.042 -0.161,0.013 -0.245,0.055 l 0.256,0.328 c 0.047,1.937 0.802,3.302 1.749,4.527 l 0.162,-0.377 -0.126,0.682 -0.628,3.177 c -0.109,1.039 -0.09,2.012 0.664,2.62 -0.249,0.177 -0.461,0.372 -0.6,0.604 -0.174,0.29 -0.04,0.184 0.17,0.076 0.197,-0.102 0.395,-0.223 0.592,-0.357 -0.135,0.099 -0.273,0.196 -0.386,0.306 -0.269,0.261 -0.129,0.222 0.147,0.162 0.516,-0.113 1.056,-0.373 1.585,-0.666 -0.244,-0.01 -0.381,-0.019 -0.503,-0.053 1.993,-0.239 3.793,-0.236 5.977,0 l -0.287,0.09 c 0.55,0.343 0.937,0.682 1.765,0.721 -0.115,-0.473 -0.346,-0.754 -0.707,-1.08 0.799,-1.107 0.193,-2.513 -0.125,-3.895 A 8.25,8.25 0 0 1 18.577,57.36 c 0.028,0.123 0.042,0.248 0.07,0.37 0.118,0.522 0.224,0.342 0.758,0.343 0.626,0.002 1.396,-0.182 2.191,-0.216 0.011,-0.073 0.018,-0.1 0.029,-0.173 l 0.028,-0.127 c 0.109,-0.058 0.305,-0.093 0.414,-0.152 -0.063,-0.055 -0.136,-0.139 -0.198,-0.194 a 0.47,0.47 0 0 1 0.124,-0.2 0.413,0.413 0 0 1 -0.188,-0.126 0.205,0.205 0 0 1 0.082,-0.21 C 21.744,56.623 21.671,56.571 21.688,56.507 A 0.313,0.313 0 0 1 21.389,56.51 15.947,15.947 0 0 0 18.89,55.204 c -0.235,0.458 -0.655,0.828 -1.131,1.137 0.718,-0.492 1.338,-1.181 1.119,-2.615 0.088,-0.837 0.187,-2.022 -0.338,-2.672 1.773,-0.445 2.006,-1.031 2.774,-1.568 0.24,-0.612 0.445,-1.223 0.569,-1.835 -1.66,0.32 -3.123,1.388 -4.478,2.389 0.095,0.047 0.23,0.093 0.264,0.176 -1.103,-0.667 -3.277,-0.875 -4.685,-0.169 -2.722,-0.478 -3.883,-0.466 -4.561,-0.312 0.209,0.692 0.573,1.288 1.321,1.62 0.694,0.048 1.655,0.102 2.209,0.022 0.023,-0.095 0.181,-0.322 0.24,-0.43 -0.825,1.84 -0.727,2.812 -0.622,3.777 0.162,0.573 0.622,1.254 1.2,1.772 -0.563,-0.381 -0.951,-1.018 -1.215,-1.635 -0.601,-0.695 -0.3,-1.24 -0.049,-1.649 z"
         inkscape:connector-curvature="0" />
    </defs>
    <clipPath
       id="c">
      <use
         xlink:href="#b"
         overflow="visible"
         id="use80"
         style="overflow:visible"
         x="0"
         y="0"
         width="100%"
         height="100%" />
    </clipPath>
    <g
       clip-path="url(#c)"
       id="g85"
       style="clip-rule:evenodd;fill:#f09614;fill-rule:evenodd">
      <path
         d="m 9.867,55.412 c 0.409,0.722 1.015,1.243 1.596,1.622 l -0.322,0.811 c -0.39,-0.816 -0.884,-1.618 -1.274,-2.433 z m 10.303,2.701 c -0.712,-0.163 -1.152,-0.394 -1.563,-0.691 -0.014,0.169 0.057,0.556 0.127,0.724 0.416,0.027 0.637,-0.002 1.436,-0.033 z M 9.997,61.897 c 1.645,1.971 2.801,0.697 4.713,0.697 1.141,0 2.994,0.652 4.017,0.311 1.66,-0.548 0.089,0.474 -0.504,0.771 -1.912,0.949 -3.127,0.711 -5.247,0.504 -0.815,-0.074 -1.556,-0.282 -2.031,-0.756 -0.237,-0.237 -0.608,-0.43 -0.756,-0.726 z"
         id="path83"
         inkscape:connector-curvature="0" />
    </g>
    <g
       id="g91"
       style="clip-rule:evenodd;fill-rule:evenodd">
      <path
         d="m 13.269,51.405 c 0.319,0 0.54,0.265 0.494,0.592 -0.046,0.327 -0.342,0.592 -0.661,0.592 -0.319,0 -0.54,-0.265 -0.494,-0.592 0.047,-0.327 0.342,-0.592 0.661,-0.592 z"
         id="path87"
         inkscape:connector-curvature="0"
         style="fill:#1a1a18" />
      <path
         d="m 13.428,51.545 c 0.164,0 0.277,0.136 0.253,0.304 a 0.357,0.357 0 0 1 -0.339,0.304 c -0.164,0 -0.277,-0.136 -0.254,-0.304 a 0.358,0.358 0 0 1 0.34,-0.304 z"
         id="path89"
         inkscape:connector-curvature="0"
         style="fill:#ffffff" />
    </g>
    <g
       id="g97"
       style="clip-rule:evenodd;fill-rule:evenodd">
      <path
         d="m 17.566,51.746 c -0.307,-0.085 -0.591,0.111 -0.634,0.439 -0.043,0.327 0.171,0.662 0.478,0.747 0.307,0.085 0.591,-0.111 0.634,-0.439 0.043,-0.328 -0.171,-0.662 -0.478,-0.747 z"
         id="path93"
         inkscape:connector-curvature="0"
         style="fill:#1a1a18" />
      <path
         d="m 17.375,51.839 c -0.158,-0.044 -0.303,0.057 -0.325,0.225 a 0.356,0.356 0 0 0 0.246,0.383 c 0.158,0.044 0.303,-0.057 0.325,-0.225 a 0.357,0.357 0 0 0 -0.246,-0.383 z"
         id="path95"
         inkscape:connector-curvature="0"
         style="fill:#ffffff" />
    </g>
    <path
       d="m 15.289,52.737 c 0.09,0 0.164,-0.029 0.164,-0.064 0,-0.035 -0.074,-0.064 -0.164,-0.064 -0.09,0 -0.164,0.029 -0.164,0.064 10e-4,0.035 0.074,0.064 0.164,0.064 z"
       id="path99"
       inkscape:connector-curvature="0"
       style="clip-rule:evenodd;fill:#1a1a18;fill-rule:evenodd" />
    <g
       id="g105"
       style="clip-rule:evenodd;fill-rule:evenodd">
      <path
         d="m 12.034,54.917 c 0.432,0 0.785,-0.423 0.785,-0.941 0,-0.518 -0.353,-0.941 -0.785,-0.941 -0.432,0 -0.785,0.423 -0.785,0.941 0,0.519 0.353,0.941 0.785,0.941 z"
         id="path101"
         inkscape:connector-curvature="0"
         style="fill:#1a1a18" />
      <path
         d="m 12.034,54.874 c 0.413,0 0.749,-0.403 0.749,-0.898 0,-0.494 -0.337,-0.898 -0.749,-0.898 -0.413,0 -0.749,0.403 -0.749,0.898 0,0.495 0.337,0.898 0.749,0.898 z"
         id="path103"
         inkscape:connector-curvature="0"
         style="fill:#e2000f" />
    </g>
    <g
       id="g111"
       style="clip-rule:evenodd;fill-rule:evenodd">
      <path
         d="m 18.329,53.677 c 0.437,0 0.768,0.424 0.739,0.948 -0.029,0.523 -0.406,0.948 -0.843,0.948 -0.437,0 -0.768,-0.424 -0.739,-0.948 0.029,-0.523 0.407,-0.948 0.843,-0.948 z"
         id="path107"
         inkscape:connector-curvature="0"
         style="fill:#1a1a18" />
      <path
         d="m 18.327,53.721 c 0.417,0 0.733,0.405 0.705,0.905 -0.027,0.5 -0.388,0.905 -0.804,0.905 -0.417,0 -0.733,-0.405 -0.705,-0.905 0.027,-0.5 0.387,-0.905 0.804,-0.905 z"
         id="path109"
         inkscape:connector-curvature="0"
         style="fill:#e2000f" />
    </g>
    <path
       d="m 13.674,53.398 c 0.446,0.404 0.973,0.269 1.515,-0.174 0.514,0.453 1.081,0.705 1.759,0.436 -0.155,0.199 -0.407,0.21 -0.608,0.27 a 2.742,2.742 0 0 1 -1.298,1.927 c -0.466,-0.489 -0.869,-1.091 -1.01,-2.162 a 0.578,0.578 0 0 1 -0.358,-0.297 z"
       stroke-miterlimit="22.926"
       id="path113"
       inkscape:connector-curvature="0"
       style="clip-rule:evenodd;fill:#1a1a18;fill-rule:evenodd;stroke:#1a1a18;stroke-width:0.007;stroke-miterlimit:22.9260006" />
    <path
       d="m 14.185,54.232 c 0.19,0.681 0.492,1.262 0.871,1.54 0.563,-0.303 0.88,-0.857 1.112,-1.492 -0.618,-0.545 -1.309,-0.613 -1.983,-0.048 z"
       id="path115"
       inkscape:connector-curvature="0"
       style="clip-rule:evenodd;fill:#f5b0b4;fill-rule:evenodd" />
    <path
       d="m 14.105,53.696 0.081,0.535 c 0.669,-0.561 1.363,-0.474 1.986,0.043 l 0.091,-0.415 a 2.571,2.571 0 0 1 -1.082,-0.506 c -0.338,0.23 -0.693,0.361 -1.076,0.343 z m 0.081,0.539 0.01,0.037 h -0.005 z"
       id="path117"
       inkscape:connector-curvature="0"
       style="clip-rule:evenodd;fill:#e2000f;fill-rule:evenodd" />
    <path
       d="m 16.907,48.137 c 0.965,-0.029 1.884,0.16 2.744,0.343 -0.43,0.236 -0.885,0.514 -1.199,0.75 -0.47,-0.432 -0.96,-0.842 -1.545,-1.093 z"
       id="path119"
       inkscape:connector-curvature="0"
       style="clip-rule:evenodd;fill:#fce200;fill-rule:evenodd" />
    <path
       d="m 16.913,48.126 c 0.561,0.243 1.084,0.626 1.578,1.086 -0.397,0.289 -0.827,0.533 -1.12,0.797 -0.084,-0.031 -0.161,-0.065 -0.278,-0.115 -0.127,-0.594 -0.208,-1.175 -0.18,-1.768 z m 1.717,2.972 c 0.277,0.317 0.343,0.893 0.39,1.442 l 3.741,1.833 0.192,-0.314 -2.774,-3.52 c -0.48,0.205 -1.025,0.417 -1.549,0.559 z"
       id="path121"
       inkscape:connector-curvature="0"
       style="clip-rule:evenodd;fill:#f09614;fill-rule:evenodd" />
    <path
       d="m 22.001,49.081 c 1.202,0.304 2.36,0.803 3.499,1.392 a 54.049,54.049 0 0 0 -2.627,3.729 c -0.919,-1.21 -1.826,-2.415 -2.745,-3.625 a 16.834,16.834 0 0 0 1.873,-1.496 z"
       id="path123"
       inkscape:connector-curvature="0"
       style="clip-rule:evenodd;fill:#fce200;fill-rule:evenodd" />
    <path
       d="m 18.998,52.684 0.963,2.274 -0.541,0.441 -0.481,-0.23 c 0.238,-0.382 0.222,-0.797 0.032,-1.233 -0.034,-0.355 -0.038,-0.896 0.027,-1.252 z"
       id="path125"
       inkscape:connector-curvature="0"
       style="clip-rule:evenodd;fill:#f09614;fill-rule:evenodd" />
    <path
       d="m 19.502,58.162 0.065,0.123 a 7.454,7.454 0 0 1 -0.659,1.131 l -0.231,-1.133 c 0.005,-0.021 -0.047,-0.313 -0.042,-0.334 0.112,0.349 0.597,0.197 0.867,0.213 z"
       id="path127"
       inkscape:connector-curvature="0"
       style="clip-rule:evenodd;fill:#562a24;fill-rule:evenodd" />
    <path
       d="m 14.397,57.217 c 0.716,0.487 0.748,0.464 1.472,0.072 -0.533,0.03 -0.965,0.062 -1.472,-0.072 z"
       id="path129"
       inkscape:connector-curvature="0"
       style="clip-rule:evenodd;fill:#f09614;fill-rule:evenodd" />
  </g>
  <g
     id="g183"
     transform="translate(-1.0117787e-4,2.4776228e-4)">
    <path
       d="M 23.521,67.693 A 1.752,1.752 0 0 1 21.77,65.944 c 0,-0.964 0.786,-1.748 1.751,-1.748 a 1.73,1.73 0 0 1 1.751,1.748 1.751,1.751 0 0 1 -1.751,1.749 z"
       id="path133"
       inkscape:connector-curvature="0"
       style="fill:#ffffff" />
    <path
       d="m 24.854,67.644 a 0.567,0.567 0 0 1 -0.439,-0.926 l 0.583,-0.716 h -0.114 a 0.566,0.566 0 0 1 -0.563,-0.63 c 0.079,-0.704 0.594,-1.177 1.282,-1.177 0.719,0 1.282,0.547 1.282,1.246 0,0.298 -0.105,0.591 -0.296,0.825 l -0.031,0.038 c 0.193,0.09 0.328,0.287 0.328,0.514 v 0.258 a 0.567,0.567 0 0 1 -0.567,0.567 h -1.465 z"
       id="path135"
       inkscape:connector-curvature="0"
       style="fill:#ffffff" />
    <path
       d="m 27.321,67.693 c -0.891,0 -1.357,-0.879 -1.357,-1.749 0,-0.869 0.466,-1.748 1.357,-1.748 0.891,0 1.357,0.879 1.357,1.748 10e-4,0.869 -0.465,1.749 -1.357,1.749 z"
       id="path137"
       inkscape:connector-curvature="0"
       style="fill:#ffffff" />
    <path
       d="m 29.055,67.693 c -0.891,0 -1.357,-0.879 -1.357,-1.749 0,-0.869 0.466,-1.748 1.357,-1.748 0.891,0 1.357,0.879 1.357,1.748 0.001,0.869 -0.466,1.749 -1.357,1.749 z"
       id="path139"
       inkscape:connector-curvature="0"
       style="fill:#ffffff" />
    <path
       d="M 30.685,67.644 A 0.567,0.567 0 0 1 30.118,67.077 V 65.61 a 0.567,0.567 0 0 1 -0.313,-0.833 l 0.156,-0.259 a 0.568,0.568 0 0 1 0.485,-0.274 h 0.508 c 0.313,0 0.567,0.254 0.567,0.567 v 2.267 a 0.567,0.567 0 0 1 -0.567,0.567 h -0.269 z"
       id="path141"
       inkscape:connector-curvature="0"
       style="fill:#ffffff" />
    <path
       d="M 31.982,68.182 A 0.567,0.567 0 0 1 31.763,68.138 L 31.597,68.069 A 0.568,0.568 0 0 1 31.29,67.335 l 0.331,-0.827 a 0.568,0.568 0 0 1 0.735,-0.316 l 0.234,0.093 a 0.566,0.566 0 0 1 0.298,0.78 l -0.4,0.803 a 0.562,0.562 0 0 1 -0.506,0.314 z"
       id="path143"
       inkscape:connector-curvature="0"
       style="fill:#ffffff" />
    <path
       d="m 33.524,67.644 a 0.567,0.567 0 0 1 -0.439,-0.926 l 0.583,-0.716 h -0.114 a 0.566,0.566 0 0 1 -0.563,-0.63 c 0.079,-0.704 0.594,-1.177 1.282,-1.177 0.719,0 1.282,0.547 1.282,1.246 0,0.298 -0.105,0.591 -0.296,0.825 l -0.031,0.038 c 0.193,0.09 0.328,0.287 0.328,0.514 v 0.258 a 0.567,0.567 0 0 1 -0.567,0.567 h -1.465 z"
       id="path145"
       inkscape:connector-curvature="0"
       style="fill:#ffffff" />
    <path
       d="m 35.991,67.693 c -0.891,0 -1.357,-0.879 -1.357,-1.749 0,-0.869 0.466,-1.748 1.357,-1.748 0.891,0 1.357,0.879 1.357,1.748 10e-4,0.869 -0.466,1.749 -1.357,1.749 z"
       id="path147"
       inkscape:connector-curvature="0"
       style="fill:#ffffff" />
    <path
       d="m 37.725,67.693 c -0.891,0 -1.357,-0.879 -1.357,-1.749 0,-0.869 0.466,-1.748 1.357,-1.748 0.891,0 1.357,0.879 1.357,1.748 10e-4,0.869 -0.466,1.749 -1.357,1.749 z"
       id="path149"
       inkscape:connector-curvature="0"
       style="fill:#ffffff" />
    <path
       d="m 38.726,67.644 a 0.567,0.567 0 0 1 -0.439,-0.926 l 0.583,-0.716 h -0.114 a 0.566,0.566 0 0 1 -0.563,-0.63 c 0.079,-0.704 0.594,-1.177 1.282,-1.177 0.719,0 1.282,0.547 1.282,1.246 0,0.298 -0.105,0.591 -0.296,0.825 l -0.031,0.038 c 0.193,0.09 0.328,0.287 0.328,0.514 v 0.258 a 0.567,0.567 0 0 1 -0.567,0.567 h -1.465 z m 2.682,0 A 0.567,0.567 0 0 1 40.841,67.077 V 64.81 c 0,-0.313 0.254,-0.567 0.567,-0.567 h 0.325 c 1.289,0 1.481,0.766 1.481,1.222 0,0.605 -0.371,1.046 -0.956,1.184 v 0.428 a 0.567,0.567 0 0 1 -0.567,0.567 z"
       id="path151"
       inkscape:connector-curvature="0"
       style="fill:#ffffff" />
    <ellipse
       cx="43.487999"
       cy="66.376999"
       rx="1.318"
       ry="1.3150001"
       id="ellipse153"
       style="fill:#ffffff" />
    <path
       d="M 45.367,67.644 A 0.57,0.57 0 0 1 45.07,67.56 0.56,0.56 0 0 1 44.772,67.644 h -0.271 a 0.567,0.567 0 0 1 -0.567,-0.567 v -2.609 c 0,-0.313 0.254,-0.567 0.567,-0.567 h 0.271 c 0.313,0 0.567,0.254 0.567,0.567 v 0.636 h 0.32 a 0.566,0.566 0 0 1 0.394,0.974 l -0.23,0.224 0.338,0.421 a 0.567,0.567 0 0 1 -0.442,0.922 h -0.352 z"
       id="path155"
       inkscape:connector-curvature="0"
       style="fill:#ffffff" />
    <path
       d="m 46.452,67.693 c -0.717,0 -1.258,-0.562 -1.258,-1.307 0,-0.453 0.174,-0.827 0.465,-1.061 a 0.565,0.565 0 0 1 0.112,-0.297 l 0.376,-0.499 a 0.568,0.568 0 0 1 0.718,-0.16 l 0.25,0.132 a 0.566,0.566 0 0 1 0.162,0.873 c 0.249,0.234 0.395,0.583 0.395,1.001 0,0.063 -0.01,0.125 -0.029,0.185 a 0.561,0.561 0 0 1 -0.04,0.45 c -0.229,0.422 -0.67,0.683 -1.151,0.683 z"
       id="path157"
       inkscape:connector-curvature="0"
       style="fill:#ffffff" />
    <path
       d="m 49.007,67.644 a 0.567,0.567 0 0 1 -0.286,-0.077 0.567,0.567 0 0 1 -0.286,0.077 h -0.271 a 0.567,0.567 0 0 1 -0.286,-0.077 0.567,0.567 0 0 1 -0.286,0.077 H 47.321 A 0.567,0.567 0 0 1 46.754,67.077 V 65.67 c 0,-0.313 0.254,-0.567 0.567,-0.567 h 0.271 a 0.57,0.57 0 0 1 0.083,0.006 1.016,1.016 0 0 1 0.714,0.039 c 0.131,-0.057 0.274,-0.087 0.42,-0.087 0.477,0 1.033,0.308 1.033,1.174 v 0.842 a 0.567,0.567 0 0 1 -0.567,0.567 z"
       id="path159"
       inkscape:connector-curvature="0"
       style="fill:#ffffff" />
    <ellipse
       cx="50.258999"
       cy="66.376999"
       rx="1.318"
       ry="1.3150001"
       id="ellipse161"
       style="fill:#ffffff" />
    <path
       d="m 52.183,67.644 a 0.566,0.566 0 0 1 -0.329,-0.105 0.568,0.568 0 0 1 -0.329,0.105 H 51.254 A 0.567,0.567 0 0 1 50.687,67.077 V 65.67 c 0,-0.313 0.254,-0.567 0.567,-0.567 h 0.271 a 0.64,0.64 0 0 1 0.099,0.008 1.1,1.1 0 0 1 0.331,-0.05 c 0.515,0 1.066,0.309 1.066,1.177 v 0.839 a 0.567,0.567 0 0 1 -0.567,0.567 z m 1.63,0.379 a 0.57,0.57 0 0 1 -0.233,-0.05 l -0.213,-0.096 a 0.568,0.568 0 0 1 -0.288,-0.742 l 1.25,-2.892 a 0.566,0.566 0 0 1 0.75,-0.293 l 0.216,0.096 a 0.567,0.567 0 0 1 0.29,0.744 l -1.253,2.892 a 0.564,0.564 0 0 1 -0.519,0.341 z"
       id="path163"
       inkscape:connector-curvature="0"
       style="fill:#ffffff" />
    <path
       d="m 58.196,67.738 a 0.567,0.567 0 0 1 -0.41,-0.175 l -0.724,-0.759 v 0.274 a 0.567,0.567 0 0 1 -0.567,0.567 h -0.283 a 0.567,0.567 0 0 1 -0.567,-0.567 v -2.375 a 0.566,0.566 0 0 1 0.977,-0.392 l 0.724,0.759 v -0.259 c 0,-0.313 0.254,-0.567 0.567,-0.567 h 0.283 c 0.313,0 0.567,0.254 0.567,0.567 v 2.36 a 0.566,0.566 0 0 1 -0.567,0.567 z"
       id="path165"
       inkscape:connector-curvature="0"
       style="fill:#ffffff" />
    <path
       d="M 58.625,67.644 A 0.567,0.567 0 0 1 58.058,67.077 V 65.67 c 0,-0.091 0.021,-0.177 0.059,-0.252 a 0.755,0.755 0 0 1 0.643,-1.147 0.755,0.755 0 0 1 0.643,1.147 0.563,0.563 0 0 1 0.059,0.252 v 1.407 a 0.567,0.567 0 0 1 -0.567,0.567 z"
       id="path167"
       inkscape:connector-curvature="0"
       style="fill:#ffffff" />
    <path
       d="m 60.255,67.644 a 0.566,0.566 0 0 1 -0.329,-0.105 0.568,0.568 0 0 1 -0.329,0.105 H 59.326 A 0.567,0.567 0 0 1 58.759,67.077 V 65.67 c 0,-0.313 0.254,-0.567 0.567,-0.567 h 0.271 a 0.64,0.64 0 0 1 0.099,0.008 1.1,1.1 0 0 1 0.331,-0.05 c 0.515,0 1.066,0.309 1.066,1.177 v 0.839 a 0.567,0.567 0 0 1 -0.567,0.567 z"
       id="path169"
       inkscape:connector-curvature="0"
       style="fill:#ffffff" />
    <path
       d="m 62.199,67.693 c -0.717,0 -1.258,-0.562 -1.258,-1.307 0,-0.78 0.515,-1.324 1.252,-1.324 0.721,0 1.225,0.541 1.225,1.315 a 0.6,0.6 0 0 1 -0.029,0.184 0.564,0.564 0 0 1 -0.04,0.451 c -0.228,0.42 -0.669,0.681 -1.15,0.681 z"
       id="path171"
       inkscape:connector-curvature="0"
       style="fill:#ffffff" />
    <path
       d="M 64.008,67.644 A 0.566,0.566 0 0 1 63.679,67.539 0.568,0.568 0 0 1 63.35,67.644 H 63.08 A 0.567,0.567 0 0 1 62.513,67.077 V 65.67 c 0,-0.313 0.254,-0.567 0.567,-0.567 h 0.271 a 0.64,0.64 0 0 1 0.099,0.008 1.1,1.1 0 0 1 0.331,-0.05 c 0.515,0 1.066,0.309 1.066,1.177 v 0.839 a 0.567,0.567 0 0 1 -0.567,0.567 z"
       id="path173"
       inkscape:connector-curvature="0"
       style="fill:#ffffff" />
    <path
       d="m 65.213,67.693 c -0.707,0 -1.24,-0.571 -1.24,-1.328 0,-0.706 0.503,-1.264 1.157,-1.301 v -0.596 c 0,-0.313 0.254,-0.567 0.567,-0.567 h 0.271 c 0.313,0 0.567,0.254 0.567,0.567 v 2.609 a 0.567,0.567 0 0 1 -0.567,0.567 h -0.271 a 0.558,0.558 0 0 1 -0.123,-0.013 1.09,1.09 0 0 1 -0.361,0.062 z"
       id="path175"
       inkscape:connector-curvature="0"
       style="fill:#ffffff" />
    <ellipse
       cx="66.942001"
       cy="66.376999"
       rx="1.318"
       ry="1.3150001"
       id="ellipse177"
       style="fill:#ffffff" />
    <path
       d="m 61.205,67.644 c -0.462,0 -0.837,-0.36 -0.837,-0.804 v -0.536 a 0.562,0.562 0 0 1 -0.147,-0.381 v -0.252 c 0,-0.147 0.056,-0.281 0.147,-0.381 v -0.157 c 0,-0.313 0.254,-0.567 0.567,-0.567 h 0.271 c 0.313,0 0.567,0.254 0.567,0.567 v 0.059 c 0.159,0.1 0.265,0.277 0.265,0.479 v 0.252 a 0.567,0.567 0 0 1 -0.247,0.468 c 0.146,0.104 0.252,0.253 0.252,0.416 v 0.271 a 0.567,0.567 0 0 1 -0.567,0.567 h -0.271 z"
       id="path179"
       inkscape:connector-curvature="0"
       style="fill:#ffffff" />
    <path
       d="m 22.337,65.944 c 0,-0.658 0.523,-1.181 1.184,-1.181 0.662,0 1.185,0.523 1.185,1.181 0,0.658 -0.523,1.182 -1.185,1.182 a 1.175,1.175 0 0 1 -1.184,-1.182 z m 0.192,0 c 0,0.556 0.451,0.989 0.992,0.989 a 0.989,0.989 0 1 0 0,-1.978 0.987,0.987 0 0 0 -0.992,0.989 z m 1.41,-0.244 c -0.036,-0.165 -0.177,-0.255 -0.375,-0.255 -0.325,0 -0.46,0.247 -0.46,0.484 0,0.28 0.165,0.493 0.466,0.493 0.198,0 0.328,-0.093 0.37,-0.268 h 0.184 c -0.036,0.286 -0.28,0.46 -0.553,0.46 -0.4,0 -0.658,-0.304 -0.658,-0.679 0,-0.391 0.247,-0.683 0.655,-0.683 a 0.54,0.54 0 0 1 0.556,0.448 z m 2.379,1.119 v 0.258 h -1.464 l 0.992,-1.217 c 0.093,-0.114 0.201,-0.256 0.201,-0.406 a 0.447,0.447 0 0 0 -0.445,-0.433 0.443,0.443 0 0 0 -0.436,0.415 h -0.282 c 0.045,-0.403 0.307,-0.673 0.718,-0.673 0.385,0 0.715,0.286 0.715,0.679 a 0.751,0.751 0 0 1 -0.168,0.466 l -0.745,0.911 z m 0.213,-0.875 c 0,-0.466 0.205,-1.181 0.791,-1.181 0.586,0 0.791,0.715 0.791,1.181 0,0.463 -0.208,1.182 -0.791,1.182 -0.583,0 -0.791,-0.719 -0.791,-1.182 z m 0.27,-0.003 c 0,0.313 0.114,0.932 0.52,0.932 0.406,0 0.52,-0.619 0.52,-0.932 0,-0.313 -0.114,-0.938 -0.52,-0.938 -0.406,0 -0.52,0.626 -0.52,0.938 z m 1.464,0.003 c 0,-0.466 0.205,-1.181 0.791,-1.181 0.586,0 0.791,0.715 0.791,1.181 0,0.463 -0.208,1.182 -0.791,1.182 -0.583,0 -0.791,-0.719 -0.791,-1.182 z m 0.27,-0.003 c 0,0.313 0.114,0.932 0.52,0.932 0.406,0 0.52,-0.619 0.52,-0.932 0,-0.313 -0.114,-0.938 -0.52,-0.938 -0.406,0 -0.52,0.626 -0.52,0.938 z m 1.756,-0.871 0.156,-0.259 h 0.508 v 2.267 H 30.684 V 65.07 Z m 2.091,1.743 -0.4,0.803 -0.166,-0.069 0.331,-0.827 z m 2.606,0.006 v 0.258 h -1.464 l 0.992,-1.217 c 0.093,-0.114 0.201,-0.256 0.201,-0.406 a 0.447,0.447 0 0 0 -0.445,-0.433 0.443,0.443 0 0 0 -0.436,0.415 h -0.282 c 0.045,-0.403 0.307,-0.673 0.718,-0.673 0.385,0 0.715,0.286 0.715,0.679 a 0.751,0.751 0 0 1 -0.168,0.466 l -0.745,0.911 z m 0.213,-0.875 c 0,-0.466 0.205,-1.181 0.791,-1.181 0.586,0 0.791,0.715 0.791,1.181 0,0.463 -0.208,1.182 -0.791,1.182 -0.583,0 -0.791,-0.719 -0.791,-1.182 z m 0.27,-0.003 c 0,0.313 0.114,0.932 0.52,0.932 0.406,0 0.52,-0.619 0.52,-0.932 0,-0.313 -0.114,-0.938 -0.52,-0.938 -0.406,0 -0.52,0.626 -0.52,0.938 z m 1.464,0.003 c 0,-0.466 0.205,-1.181 0.791,-1.181 0.586,0 0.791,0.715 0.791,1.181 0,0.463 -0.208,1.182 -0.791,1.182 -0.583,0 -0.791,-0.719 -0.791,-1.182 z m 0.27,-0.003 c 0,0.313 0.114,0.932 0.52,0.932 0.406,0 0.52,-0.619 0.52,-0.932 0,-0.313 -0.114,-0.938 -0.52,-0.938 -0.406,0 -0.52,0.626 -0.52,0.938 z m 2.985,0.878 v 0.258 h -1.464 l 0.992,-1.217 c 0.093,-0.114 0.201,-0.256 0.201,-0.406 a 0.447,0.447 0 0 0 -0.445,-0.433 0.443,0.443 0 0 0 -0.436,0.415 h -0.282 c 0.045,-0.403 0.307,-0.673 0.718,-0.673 0.385,0 0.715,0.286 0.715,0.679 a 0.751,0.751 0 0 1 -0.168,0.466 l -0.745,0.911 z m 1.501,0.258 H 41.408 V 64.81 h 0.325 c 0.697,0 0.914,0.241 0.914,0.655 0,0.478 -0.364,0.662 -0.794,0.662 h -0.162 z m 0,-1.202 h 0.09 c 0.289,0 0.601,-0.054 0.601,-0.415 0,-0.355 -0.337,-0.397 -0.616,-0.397 h -0.075 z m 2.548,0.502 c 0,0.424 -0.331,0.749 -0.751,0.749 -0.42,0 -0.751,-0.325 -0.751,-0.749 0,-0.424 0.331,-0.749 0.751,-0.749 0.42,0 0.751,0.325 0.751,0.749 z m -1.232,0 c 0,0.264 0.213,0.49 0.481,0.49 0.268,0 0.481,-0.226 0.481,-0.49 0,-0.268 -0.213,-0.49 -0.481,-0.49 -0.268,0 -0.481,0.223 -0.481,0.49 z m 1.765,-0.178 0.529,-0.529 h 0.358 l -0.601,0.583 0.661,0.824 h -0.352 l -0.502,-0.64 -0.093,0.093 v 0.547 h -0.271 v -2.609 h 0.271 z m 1.259,0.22 c 0.003,0.24 0.166,0.466 0.424,0.466 0.208,0 0.319,-0.105 0.421,-0.273 l 0.229,0.129 a 0.733,0.733 0 0 1 -0.652,0.385 c -0.43,0 -0.691,-0.325 -0.691,-0.74 0,-0.433 0.231,-0.757 0.686,-0.757 0.448,0 0.658,0.331 0.658,0.749 v 0.042 h -1.075 z m 0.803,-0.204 c -0.033,-0.21 -0.171,-0.352 -0.388,-0.352 -0.21,0 -0.367,0.15 -0.4,0.352 z m 0.015,-1.212 -0.493,0.448 -0.132,-0.081 0.376,-0.499 z m 0.745,0.845 H 47.6 a 0.459,0.459 0 0 1 0.373,-0.219 c 0.184,0 0.315,0.093 0.406,0.25 a 0.508,0.508 0 0 1 0.433,-0.25 c 0.37,0 0.466,0.289 0.466,0.607 v 0.842 h -0.271 v -0.796 c 0,-0.181 -0.024,-0.412 -0.262,-0.412 -0.289,0 -0.31,0.301 -0.31,0.517 v 0.691 h -0.271 v -0.746 c 0,-0.183 -0.009,-0.463 -0.258,-0.463 -0.289,0 -0.313,0.298 -0.313,0.517 v 0.691 H 47.322 V 65.67 h 0.271 v 0.178 z m 3.416,0.529 c 0,0.424 -0.331,0.749 -0.751,0.749 -0.42,0 -0.751,-0.325 -0.751,-0.749 0,-0.424 0.331,-0.749 0.751,-0.749 0.42,0 0.751,0.325 0.751,0.749 z m -1.232,0 c 0,0.264 0.213,0.49 0.481,0.49 0.268,0 0.481,-0.226 0.481,-0.49 0,-0.268 -0.213,-0.49 -0.481,-0.49 -0.268,0 -0.481,0.223 -0.481,0.49 z m 1.747,-0.517 h 0.006 a 0.48,0.48 0 0 1 0.424,-0.231 c 0.397,0 0.499,0.268 0.499,0.61 v 0.839 h -0.271 v -0.806 c 0,-0.24 -0.033,-0.403 -0.31,-0.403 -0.349,0 -0.349,0.307 -0.349,0.562 v 0.646 H 51.253 V 65.67 h 0.271 v 0.19 z m 3.542,-1.296 -1.253,2.892 -0.214,-0.096 1.25,-2.892 z m 1.146,0.139 1.701,1.782 v -1.674 h 0.283 v 2.36 l -1.701,-1.783 v 1.689 h -0.283 z m 2.733,0.324 c 0,0.103 -0.084,0.184 -0.187,0.184 -0.103,0 -0.187,-0.081 -0.187,-0.184 0,-0.105 0.084,-0.189 0.187,-0.189 0.103,0 0.187,0.084 0.187,0.189 z m -0.051,2.05 H 58.624 V 65.67 h 0.271 z m 0.702,-1.217 h 0.006 a 0.48,0.48 0 0 1 0.424,-0.231 c 0.397,0 0.499,0.268 0.499,0.61 v 0.839 h -0.271 v -0.806 c 0,-0.24 -0.033,-0.403 -0.31,-0.403 -0.349,0 -0.349,0.307 -0.349,0.562 v 0.646 H 59.325 V 65.67 h 0.271 v 0.19 z m 2.181,0.559 c 0.003,0.24 0.166,0.466 0.424,0.466 0.208,0 0.319,-0.105 0.421,-0.273 l 0.229,0.129 A 0.733,0.733 0 0 1 62.2,67.126 c -0.43,0 -0.691,-0.325 -0.691,-0.74 0,-0.433 0.231,-0.757 0.686,-0.757 0.448,0 0.658,0.331 0.658,0.749 v 0.042 h -1.075 z m 0.803,-0.204 c -0.033,-0.21 -0.171,-0.352 -0.388,-0.352 -0.21,0 -0.367,0.15 -0.4,0.352 z M 63.35,65.86 h 0.006 a 0.48,0.48 0 0 1 0.424,-0.231 c 0.397,0 0.499,0.268 0.499,0.61 v 0.839 h -0.271 v -0.806 c 0,-0.24 -0.033,-0.403 -0.31,-0.403 -0.349,0 -0.349,0.307 -0.349,0.562 v 0.646 H 63.08 V 65.67 h 0.271 v 0.19 z m 2.347,0.998 h -0.006 a 0.582,0.582 0 0 1 -0.478,0.268 c -0.433,0 -0.673,-0.358 -0.673,-0.761 0,-0.385 0.255,-0.736 0.661,-0.736 0.21,0 0.379,0.108 0.49,0.276 h 0.006 v -1.437 h 0.271 v 2.609 h -0.271 z m 0.016,-0.484 c 0,-0.273 -0.166,-0.505 -0.457,-0.505 -0.279,0 -0.445,0.244 -0.445,0.505 0,0.265 0.159,0.511 0.445,0.511 0.294,0 0.457,-0.234 0.457,-0.511 z m 1.98,0.003 c 0,0.424 -0.331,0.749 -0.751,0.749 -0.42,0 -0.751,-0.325 -0.751,-0.749 0,-0.424 0.331,-0.749 0.751,-0.749 0.42,0 0.751,0.325 0.751,0.749 z m -1.232,0 c 0,0.264 0.213,0.49 0.481,0.49 0.268,0 0.481,-0.226 0.481,-0.49 0,-0.268 -0.213,-0.49 -0.481,-0.49 -0.268,0 -0.481,0.223 -0.481,0.49 z m -5.256,0.306 c 0,0.131 0.121,0.124 0.271,0.124 v 0.271 h -0.271 c -0.149,0 -0.271,-0.106 -0.271,-0.237 v -0.917 h -0.147 v -0.252 h 0.147 v -0.538 h 0.271 v 0.538 h 0.265 v 0.252 h -0.265 z"
       id="path181"
       inkscape:connector-curvature="0" />
  </g>
</svg>
