<?xml version="1.0" encoding="UTF-8" standalone="no"?>
<svg
   xmlns:dc="http://purl.org/dc/elements/1.1/"
   xmlns:cc="http://creativecommons.org/ns#"
   xmlns:rdf="http://www.w3.org/1999/02/22-rdf-syntax-ns#"
   xmlns:svg="http://www.w3.org/2000/svg"
   xmlns="http://www.w3.org/2000/svg"
   xmlns:sodipodi="http://sodipodi.sourceforge.net/DTD/sodipodi-0.dtd"
   xmlns:inkscape="http://www.inkscape.org/namespaces/inkscape"
   id="Capa_1"
   viewBox="0 0 598.1 445.9"
   version="1.1"
   sodipodi:docname="console.svg"
   width="598.09998"
   height="445.89999"
   inkscape:version="0.92.4 5da689c313, 2019-01-14">
  <metadata
     id="metadata142">
    <rdf:RDF>
      <cc:Work
         rdf:about="">
        <dc:format>image/svg+xml</dc:format>
        <dc:type
           rdf:resource="http://purl.org/dc/dcmitype/StillImage" />
      </cc:Work>
    </rdf:RDF>
  </metadata>
  <defs
     id="defs140" />
  <sodipodi:namedview
     pagecolor="#ffffff"
     bordercolor="#666666"
     borderopacity="1"
     objecttolerance="10"
     gridtolerance="10"
     guidetolerance="10"
     inkscape:pageopacity="0"
     inkscape:pageshadow="2"
     inkscape:window-width="640"
     inkscape:window-height="480"
     id="namedview138"
     showgrid="false"
     inkscape:zoom="0.45310151"
     inkscape:cx="299.04999"
     inkscape:cy="222.95"
     inkscape:window-x="0"
     inkscape:window-y="0"
     inkscape:window-maximized="0"
     inkscape:current-layer="Capa_1">
    <inkscape:grid
       type="xygrid"
       id="grid949"
       originx="0"
       originy="6.1035157e-06" />
  </sodipodi:namedview>
  <style
     id="style2">.st2{fill:#3c3c3c}.st3{fill:#1a1618}.st4{fill:#262627}.st6{fill:#0b0808}.st7{fill:#040404}.st10{fill:#661919}.st12{fill:#11100f}.st13{fill:#afafaf;stroke:#939093;stroke-width:.2864;stroke-miterlimit:10}</style>
  <path
     d="M 597.2,445.9 H 0.8 C 0.3,445.9 0,445.5 0,445.1 V 0.8 C 0,0.4 0.4,0 0.8,0 h 596.4 c 0.5,0 0.8,0.4 0.8,0.8 V 445 c 0.1,0.5 -0.3,0.9 -0.8,0.9 z"
     id="path4"
     inkscape:connector-curvature="0"
     style="fill:#1c1c1c" />
  <path
     d="M 0,188 H 598.1 V 305.3 H 0 Z"
     id="path6"
     inkscape:connector-curvature="0"
     style="fill:#bbbdbd" />
  <path
     class="st2"
     d="m 206.8,167.3 h 184.4 l 5.7,5.7 H 201.2 Z"
     id="path8"
     inkscape:connector-curvature="0"
     style="fill:#3c3c3c" />
  <path
     class="st3"
     d="m 206.8,131.4 h 184.4 l 5.7,-5.6 H 201.2 Z"
     id="path10"
     inkscape:connector-curvature="0"
     style="fill:#1a1618" />
  <path
     class="st4"
     d="m 206.8,131.4 v 35.9 l -5.6,5.7 v -47.2 z m 184.4,35.9 v -35.9 l 5.7,-5.6 V 173 Z"
     id="path12"
     inkscape:connector-curvature="0"
     style="fill:#262627" />
  <path
     d="m 391.215,131.435 v 35.9 h -184.4 v -35.9 z"
     id="path14"
     inkscape:connector-curvature="0"
     style="fill:#060606" />
  <path
     class="st6"
     d="M 598.1,90.7 H 0"
     id="path16"
     inkscape:connector-curvature="0"
     style="fill:#0b0808" />
  <path
     d="m 0,89.7 h 598.1 v 2 H 0 Z"
     id="path18"
     inkscape:connector-curvature="0" />
  <path
     class="st7"
     d="m 10,110.8 h 4.2 v 77.3 H 10 Z m 9.5,0 h 4.2 v 77.3 h -4.2 z m 9.5,0 h 4.2 v 77.3 H 29 Z m 9.5,0 h 4.2 v 77.3 h -4.2 z m 9.5,0 h 4.2 v 77.3 H 48 Z m 9.5,0 h 4.2 v 77.3 h -4.2 z m 9.5,0 h 4.2 v 77.3 H 67 Z m 9.5,0 h 4.2 v 77.3 h -4.2 z m 9.5,0 h 4.2 v 77.3 H 86 Z m 9.5,0 h 4.2 v 77.3 h -4.2 z m 9.5,0 h 4.2 v 77.3 H 105 Z m 9.5,0 h 4.2 v 77.3 h -4.2 z m 9.5,0 h 4.2 v 77.3 H 124 Z m 9.5,0 h 4.2 v 77.3 h -4.2 z m 9.5,0 h 4.2 v 77.3 H 143 Z m 9.5,0 h 4.2 v 77.3 h -4.2 z m 9.5,0 h 4.2 v 77.3 H 162 Z m 9.6,0 h 4.2 v 77.3 h -4.2 z m 9.5,0 h 4.2 v 77.3 h -4.2 z"
     id="path20"
     inkscape:connector-curvature="0"
     style="fill:#040404" />
  <g
     id="g24">
    <path
       class="st7"
       d="m 583.9,110.8 h 4.2 v 77.3 h -4.2 z m -9.5,0 h 4.2 v 77.3 h -4.2 z m -9.5,0 h 4.2 v 77.3 h -4.2 z m -9.5,0 h 4.2 v 77.3 h -4.2 z m -9.5,0 h 4.2 v 77.3 h -4.2 z m -9.5,0 h 4.2 v 77.3 h -4.2 z m -9.5,0 h 4.2 v 77.3 h -4.2 z m -9.5,0 h 4.2 v 77.3 h -4.2 z m -9.5,0 h 4.2 v 77.3 h -4.2 z m -9.5,0 h 4.2 v 77.3 h -4.2 z m -9.5,0 h 4.2 v 77.3 h -4.2 z m -9.5,0 h 4.2 v 77.3 h -4.2 z m -9.5,0 h 4.2 v 77.3 h -4.2 z m -9.5,0 h 4.2 v 77.3 h -4.2 z m -9.5,0 h 4.2 v 77.3 h -4.2 z m -9.5,0 h 4.2 v 77.3 h -4.2 z m -9.5,0 h 4.2 v 77.3 h -4.2 z m -9.7,0 h 4.2 v 77.3 h -4.2 z m -9.5,0 h 4.2 v 77.3 h -4.2 z"
       id="path22"
       inkscape:connector-curvature="0"
       style="fill:#040404" />
  </g>
  <path
     class="st4"
     d="m 529,321.6 v 25.9 l -4.1,4.1 v -34.1 z"
     id="path26"
     inkscape:connector-curvature="0"
     style="fill:#262627" />
  <path
     class="st2"
     d="m 551.6,347.5 h 22.8 l 4.1,4.1 h -53.6 l 4.1,-4.1 z"
     id="path28"
     inkscape:connector-curvature="0"
     style="fill:#3c3c3c" />
  <path
     class="st3"
     d="m 551.7,321.6 h 22.7 l 4.1,-4.1 h -53.6 l 4.1,4.1 z"
     id="path30"
     inkscape:connector-curvature="0"
     style="fill:#1a1618" />
  <path
     class="st4"
     d="m 574.4,321.6 v 25.9 l 4.1,4.1 v -34.1 z"
     id="path32"
     inkscape:connector-curvature="0"
     style="fill:#262627" />
  <path
     d="m 529,321.6 h 45.4 v 26 H 529 Z"
     id="path34"
     inkscape:connector-curvature="0"
     style="fill:#141414" />
  <path
     d="M 546.3,347.5 H 557 v 1.3 h -10.7 z"
     id="path36"
     inkscape:connector-curvature="0"
     style="fill:#650406" />
  <g
     id="g40">
    <path
       class="st10"
       d="m 533.8,326.9 c 0,0.3 -0.1,0.6 -0.3,0.8 -0.2,0.2 -0.4,0.3 -0.7,0.3 h -1 v 1.3 H 531 v -3.6 h 1.7 c 0.4,0 0.6,0.1 0.8,0.3 0.2,0.2 0.3,0.5 0.3,0.9 z m -0.7,-0.1 c 0,-0.1 0,-0.3 -0.1,-0.4 -0.1,-0.1 -0.2,-0.1 -0.3,-0.1 h -0.9 v 1.1 h 0.9 c 0.1,0 0.2,-0.1 0.3,-0.2 0,-0.1 0.1,-0.2 0.1,-0.4 z m 4.8,0.8 c 0,0.6 -0.2,1 -0.5,1.4 -0.3,0.3 -0.7,0.5 -1.3,0.5 -0.6,0 -1,-0.2 -1.3,-0.6 -0.3,-0.3 -0.4,-0.8 -0.4,-1.3 0,-0.5 0.1,-1 0.4,-1.3 0.3,-0.4 0.8,-0.6 1.4,-0.6 0.5,0 1,0.2 1.3,0.6 0.3,0.3 0.4,0.7 0.4,1.3 z m -0.7,0 c 0,-0.4 -0.1,-0.7 -0.3,-0.9 -0.2,-0.2 -0.4,-0.3 -0.8,-0.3 -0.3,0 -0.6,0.1 -0.8,0.3 -0.2,0.2 -0.3,0.5 -0.3,0.9 0,0.4 0.1,0.7 0.3,0.9 0.2,0.2 0.5,0.3 0.8,0.3 0.3,0 0.5,-0.1 0.7,-0.3 0.3,-0.2 0.4,-0.5 0.4,-0.9 z m 5.8,-1.9 -1,3.6 h -0.7 l -0.6,-2.8 -0.6,2.8 h -0.7 l -1,-3.6 h 0.8 l 0.6,2.7 0.5,-2.7 h 0.8 l 0.5,2.8 0.6,-2.8 z m 3.4,3.7 h -2.7 v -3.6 h 2.6 v 0.6 h -1.9 v 0.8 h 1.7 v 0.6 h -1.7 v 0.9 h 2 z m 3.9,0 h -0.8 c -0.1,-0.2 -0.1,-0.3 -0.1,-0.4 v -0.5 c 0,-0.1 0,-0.3 -0.1,-0.3 -0.1,-0.1 -0.2,-0.2 -0.4,-0.2 H 548 v 1.4 h -0.8 v -3.6 h 2 c 0.2,0 0.4,0.1 0.6,0.2 0.2,0.2 0.3,0.4 0.3,0.8 0,0.4 -0.2,0.7 -0.5,0.9 0.3,0.1 0.4,0.3 0.4,0.5 v 0.9 c 0,0.1 0,0.2 0.1,0.3 z m -0.8,-2.6 c 0,-0.3 -0.1,-0.4 -0.4,-0.4 h -1 v 1 h 1 c 0.1,0 0.2,-0.1 0.3,-0.2 0.1,-0.2 0.1,-0.3 0.1,-0.4 z m 6.6,0.8 c 0,0.6 -0.2,1 -0.5,1.4 -0.3,0.3 -0.7,0.5 -1.3,0.5 -0.6,0 -1,-0.2 -1.3,-0.6 -0.3,-0.3 -0.4,-0.8 -0.4,-1.3 0,-0.5 0.1,-1 0.4,-1.3 0.3,-0.4 0.8,-0.6 1.4,-0.6 0.5,0 1,0.2 1.3,0.6 0.2,0.3 0.4,0.7 0.4,1.3 z m -0.7,0 c 0,-0.4 -0.1,-0.7 -0.3,-0.9 -0.2,-0.2 -0.4,-0.3 -0.8,-0.3 -0.3,0 -0.6,0.1 -0.8,0.3 -0.2,0.2 -0.3,0.5 -0.3,0.9 0,0.4 0.1,0.7 0.3,0.9 0.2,0.2 0.5,0.3 0.8,0.3 0.3,0 0.5,-0.1 0.7,-0.3 0.3,-0.2 0.4,-0.5 0.4,-0.9 z m 4.4,1.8 h -0.7 l -1.5,-2.5 v 2.5 h -0.8 v -3.6 h 0.7 l 1.5,2.5 v -2.5 h 0.8 z m 1.9,-3.6 -1.1,3.6 h -0.3 l 1,-3.6 z m 4,1.8 c 0,0.6 -0.2,1 -0.5,1.4 -0.3,0.3 -0.7,0.5 -1.3,0.5 -0.6,0 -1,-0.2 -1.3,-0.6 -0.3,-0.3 -0.4,-0.8 -0.4,-1.3 0,-0.5 0.1,-1 0.4,-1.3 0.3,-0.4 0.8,-0.6 1.4,-0.6 0.5,0 1,0.2 1.3,0.6 0.3,0.3 0.4,0.7 0.4,1.3 z m -0.7,0 c 0,-0.4 -0.1,-0.7 -0.3,-0.9 -0.2,-0.2 -0.4,-0.3 -0.8,-0.3 -0.3,0 -0.6,0.1 -0.8,0.3 -0.2,0.2 -0.3,0.5 -0.3,0.9 0,0.4 0.1,0.7 0.3,0.9 0.2,0.2 0.5,0.3 0.8,0.3 0.3,0 0.5,-0.1 0.7,-0.3 0.3,-0.2 0.4,-0.5 0.4,-0.9 z m 4.1,-1.2 h -1.8 v 0.8 h 1.6 v 0.6 h -1.6 v 1.6 h -0.8 v -3.6 h 2.6 z m 3.3,0 h -1.8 v 0.8 h 1.6 v 0.6 h -1.6 v 1.6 h -0.8 v -3.6 h 2.6 z"
       id="path38"
       inkscape:connector-curvature="0"
       style="fill:#661919" />
  </g>
  <path
     class="st7"
     d="m 0,107.9 h 598.1 v 2.9 H 0 Z"
     id="path42"
     inkscape:connector-curvature="0"
     style="fill:#040404" />
  <path
     d="M 10,374.9 H 588.1"
     id="path44"
     inkscape:connector-curvature="0"
     style="fill:none" />
  <g
     id="g50">
    <path
       class="st6"
       d="M 598.1,362.4 H 0"
       id="path46"
       inkscape:connector-curvature="0"
       style="fill:#0b0808" />
    <path
       d="m 0,361.4 h 598.1 v 2 H 0 Z"
       id="path48"
       inkscape:connector-curvature="0" />
  </g>
  <g
     id="g54">
    <path
       class="st12"
       d="m 9.8,363.4 h 4.6 v 11.3 H 9.8 Z m 9.1,0 h 4.6 v 11.3 h -4.6 z m 9.1,0 h 4.6 v 11.3 H 28 Z m 9.1,0 h 4.6 v 11.3 h -4.6 z m 9.1,0 h 4.6 v 11.3 h -4.6 z m 9.2,0 H 60 v 11.3 h -4.6 z m 9.1,0 h 4.6 v 11.3 h -4.6 z m 9.1,0 h 4.6 v 11.3 h -4.6 z m 9.1,0 h 4.6 v 11.3 h -4.6 z m 9.1,0 h 4.6 v 11.3 h -4.6 z m 9.1,0 h 4.6 v 11.3 h -4.6 z m 9.1,0 h 4.6 v 11.3 H 110 Z m 9.1,0 h 4.6 v 11.3 h -4.6 z m 9.1,0 h 4.6 v 11.3 h -4.6 z m 9.1,0 h 4.6 v 11.3 h -4.6 z m 9.1,0 h 4.6 v 11.3 h -4.6 z m 9.1,0 h 4.6 v 11.3 h -4.6 z m 9.1,0 h 4.6 v 11.3 h -4.6 z m 9.1,0 h 4.6 v 11.3 h -4.6 z m 9.1,0 h 4.6 v 11.3 h -4.6 z m 9.2,0 h 4.6 v 11.3 H 192 Z m 9.1,0 h 4.6 v 11.3 h -4.6 z m 9.1,0 h 4.6 v 11.3 h -4.6 z m 9.1,0 h 4.6 v 11.3 h -4.6 z m 9.1,0 h 4.6 v 11.3 h -4.6 z m 9.1,0 h 4.6 v 11.3 h -4.6 z m 9.1,0 h 4.6 v 11.3 h -4.6 z m 9.1,0 h 4.6 v 11.3 h -4.6 z m 9.1,0 h 4.6 v 11.3 h -4.6 z m 9.1,0 h 4.6 v 11.3 h -4.6 z m 9.1,0 h 4.6 v 11.3 H 283 Z m 9.1,0 h 4.6 v 11.3 h -4.6 z m 9.1,0 h 4.6 v 11.3 h -4.6 z m 9.1,0 h 4.6 v 11.3 h -4.6 z m 9.1,0 h 4.6 v 11.3 h -4.6 z m 9.1,0 h 4.6 v 11.3 h -4.6 z m 9.2,0 h 4.6 v 11.3 h -4.6 z m 9.1,0 h 4.6 v 11.3 h -4.6 z m 9.1,0 h 4.6 v 11.3 h -4.6 z m 9.1,0 h 4.6 v 11.3 H 365 Z m 9.1,0 h 4.6 v 11.3 h -4.6 z m 9.1,0 h 4.6 v 11.3 h -4.6 z m 9.1,0 h 4.6 v 11.3 h -4.6 z m 9.1,0 h 4.6 v 11.3 h -4.6 z m 9.1,0 h 4.6 v 11.3 h -4.6 z m 9.1,0 h 4.6 v 11.3 h -4.6 z m 9.1,0 h 4.6 v 11.3 h -4.6 z m 9.1,0 h 4.6 v 11.3 h -4.6 z m 9.1,0 h 4.6 v 11.3 h -4.6 z m 9.1,0 h 4.6 v 11.3 H 456 Z m 9.1,0 h 4.6 v 11.3 h -4.6 z m 9.1,0 h 4.6 v 11.3 h -4.6 z m 9.2,0 h 4.6 v 11.3 h -4.6 z m 9.1,0 h 4.6 v 11.3 h -4.6 z m 9.1,0 h 4.6 v 11.3 h -4.6 z m 9.1,0 h 4.6 v 11.3 h -4.6 z m 9.1,0 h 4.6 v 11.3 h -4.6 z m 9.1,0 h 4.6 v 11.3 h -4.6 z m 9.1,0 h 4.6 v 11.3 H 538 Z m 9.1,0 h 4.6 v 11.3 h -4.6 z m 9.1,0 h 4.6 v 11.3 h -4.6 z m 9.1,0 h 4.6 v 11.3 h -4.6 z m 9.1,0 h 4.6 v 11.3 h -4.6 z m 9.1,0 h 4.6 v 11.3 h -4.6 z"
       id="path52"
       inkscape:connector-curvature="0"
       style="fill:#11100f" />
  </g>
  <g
     id="g62">
    <path
       class="st13"
       d="m 58.2,269.8 c 0.4,-0.5 1.3,-0.6 1.9,-0.2 0.2,0.2 0.4,0.4 0.4,0.7 1,3.1 2,6.3 2.9,9.4 h -1.7 c -0.3,-0.9 -0.5,-1.7 -0.8,-2.6 h -3.4 c -0.3,0.9 -0.5,1.7 -0.8,2.6 H 55 c 0.9,-3 1.9,-6 2.8,-9 0.2,-0.3 0.2,-0.6 0.4,-0.9 m 1.1,1.9 -1.2,3.9 h 2.4 z m 11.1,-1.8 c 0.3,-0.4 0.9,-0.6 1.4,-0.5 0.5,0.1 0.8,0.5 1,0.9 1,3.1 2,6.3 2.9,9.4 H 74 c -0.3,-0.9 -0.5,-1.7 -0.8,-2.6 h -3.4 c -0.3,0.9 -0.5,1.7 -0.8,2.6 h -1.7 c 0.9,-3 1.9,-6 2.8,-9 0.1,-0.3 0.1,-0.6 0.3,-0.8 m -0.1,5.7 h 2.4 l -1.2,-3.9 z m -8.1,-6.2 h 6.3 v 1.6 h -2.3 v 8.7 H 64.5 V 271 h -2.3 z m 15.4,0.1 c 0.2,-0.1 0.3,-0.1 0.5,-0.1 h 2 c 1.1,0 2.2,0.7 2.7,1.6 0.3,0.6 0.4,1.3 0.3,2 -0.1,0.7 -0.4,1.4 -0.9,1.8 -0.3,0.3 -0.7,0.4 -1,0.6 -0.2,0.1 -0.2,0.4 -0.1,0.5 0.9,1.3 1.8,2.5 2.7,3.7 h -2 c -0.9,-1.2 -1.7,-2.4 -2.6,-3.6 -0.3,-0.3 -0.3,-0.8 -0.2,-1.2 0.1,-0.3 0.4,-0.5 0.7,-0.6 0.6,-0.2 1.2,-0.5 1.5,-1.1 0.3,-0.4 0.2,-0.9 0.1,-1.3 -0.1,-0.6 -0.7,-1 -1.3,-1 h -1.3 c -0.2,0 -0.4,0.2 -0.4,0.3 v 8.4 h -1.7 v -9.1 c 0,-0.3 0.4,-0.8 1,-0.9 z m 6.9,-0.1 h 1.8 v 10.3 h -1.8 z m -48.9,0.3 v 1.5 c 0,1.4 -0.1,2.9 -0.4,4.3 -0.2,1.1 -0.5,2.3 -1,3.3 -0.5,0.9 -1,1.8 -1.8,2.5 -0.7,0.7 -1.6,1.3 -2.5,1.8 -0.8,0.4 -1.7,0.7 -2.6,0.8 v 2.5 c 0.7,-0.1 1.5,-0.3 2.2,-0.5 1.3,-0.4 2.5,-1 3.5,-1.8 1.1,-0.9 2.1,-1.9 2.8,-3.1 0.4,-0.7 0.7,-1.5 0.9,-2.3 0.2,-1.2 0.3,-2.4 0.4,-3.6 0,-0.8 0.1,-1.6 0.1,-2.5 v -3 c -0.7,0.1 -1.1,0.1 -1.6,0.1 m 2,0 v 16.6 h 2.6 v -16.6 h -2.6 m 3.1,0 v 2.7 c 0,1.6 0,3.2 0.2,4.8 0.1,0.7 0.2,1.5 0.4,2.2 0.2,0.7 0.5,1.4 1,2.1 0.5,0.8 1.2,1.6 2,2.2 0.5,0.4 1,0.8 1.5,1.1 0.7,0.4 1.6,0.8 2.4,1 0.7,0.2 1.4,0.4 2.2,0.5 v -2.5 c -0.4,0 -0.7,-0.1 -1.1,-0.2 -1.3,-0.4 -2.5,-1 -3.5,-1.9 -1,-0.9 -1.8,-2 -2.4,-3.2 -0.6,-1.2 -0.8,-2.5 -1,-3.8 -0.2,-1.7 -0.3,-3.4 -0.3,-5.1 -0.4,0.1 -0.9,0.1 -1.4,0.1"
       id="path56"
       inkscape:connector-curvature="0"
       style="fill:#afafaf;stroke:#939093;stroke-width:0.28639999;stroke-miterlimit:10" />
    <g
       id="g60">
      <path
         class="st13"
         d="m 110.8,279 v 1.2 h -6.5 v -1 l 4.4,-4.4 c 0.4,-0.5 0.9,-1.1 0.9,-1.8 0,-1.1 -0.9,-1.9 -2,-1.9 -1,0 -1.9,0.8 -1.9,1.8 h -1.3 c 0.2,-1.8 1.4,-3 3.2,-3 1.7,0 3.2,1.3 3.2,3 0,0.7 -0.3,1.5 -0.7,2.1 l -4,4.1 z m 6.3,-9.1 c -2.9,0 -5.2,2.4 -5.2,5.3 0,2.9 2.4,5.2 5.2,5.2 3,0 5.3,-2.3 5.3,-5.3 0,-3 -2.3,-5.2 -5.3,-5.2 z m 4.1,5.3 c 0,2.3 -1.8,4.1 -4.1,4.1 -2.2,0 -3.9,-1.8 -3.9,-4.1 0,-2.3 1.8,-4.1 3.9,-4.1 2.3,0 4.1,1.7 4.1,4.1 z m 7.5,-5.3 c -2.9,0 -5.2,2.4 -5.2,5.3 0,2.9 2.4,5.2 5.2,5.2 3,0 5.3,-2.3 5.3,-5.3 0,-3 -2.3,-5.2 -5.3,-5.2 z m 4.1,5.3 c 0,2.3 -1.8,4.1 -4.1,4.1 -2.2,0 -3.9,-1.8 -3.9,-4.1 0,-2.3 1.8,-4.1 3.9,-4.1 2.3,0 4.1,1.7 4.1,4.1 z m -37.1,2.9 1,-0.4 c 0.6,1.2 1.5,1.7 2.6,1.7 0.8,0 1.4,-0.3 1.9,-0.8 0.5,-0.5 0.7,-1.2 0.7,-1.9 0,-0.7 -0.2,-1.2 -0.6,-1.6 -0.4,-0.4 -1,-0.7 -1.6,-0.7 -0.9,0 -1.2,0.1 -1.9,0.9 l -1.1,-0.3 0.9,-4.8 h 4.6 l 0.1,1.1 h -3.9 l -0.4,2.3 c 0.7,-0.1 1,-0.1 1.9,-0.1 0.9,0 1.6,0.3 2.3,0.9 0.6,0.6 1,1.4 1,2.3 0,1 -0.3,1.8 -1,2.6 -0.7,0.7 -1.6,1.1 -2.8,1.1 -0.8,0 -1.5,-0.2 -2.2,-0.6 -0.7,-0.4 -1.2,-1 -1.5,-1.7 z"
         id="path58"
         inkscape:connector-curvature="0"
         style="fill:#afafaf;stroke:#939093;stroke-width:0.28639999;stroke-miterlimit:10" />
    </g>
  </g>
  <linearGradient
     id="SVGID_1_"
     gradientUnits="userSpaceOnUse"
     x1="55.042"
     y1="285.20801"
     x2="134.05"
     y2="285.20801">
    <stop
       offset=".016"
       stop-color="#fcdc05"
       id="stop64" />
    <stop
       offset=".025"
       stop-color="#f9bf0d"
       id="stop66" />
    <stop
       offset=".039"
       stop-color="#f59917"
       id="stop68" />
    <stop
       offset=".053"
       stop-color="#f27e1e"
       id="stop70" />
    <stop
       offset=".064"
       stop-color="#f16e22"
       id="stop72" />
    <stop
       offset=".073"
       stop-color="#f06824"
       id="stop74" />
    <stop
       offset=".078"
       stop-color="#ef5f25"
       id="stop76" />
    <stop
       offset=".093"
       stop-color="#ed4926"
       id="stop78" />
    <stop
       offset=".111"
       stop-color="#eb3827"
       id="stop80" />
    <stop
       offset=".134"
       stop-color="#ea2d28"
       id="stop82" />
    <stop
       offset=".165"
       stop-color="#e92629"
       id="stop84" />
    <stop
       offset=".252"
       stop-color="#e92429"
       id="stop86" />
    <stop
       offset=".255"
       stop-color="#e5242b"
       id="stop88" />
    <stop
       offset=".295"
       stop-color="#b42b45"
       id="stop90" />
    <stop
       offset=".336"
       stop-color="#89305c"
       id="stop92" />
    <stop
       offset=".377"
       stop-color="#66346e"
       id="stop94" />
    <stop
       offset=".419"
       stop-color="#4b387d"
       id="stop96" />
    <stop
       offset=".461"
       stop-color="#383a87"
       id="stop98" />
    <stop
       offset=".504"
       stop-color="#2d3c8d"
       id="stop100" />
    <stop
       offset=".55"
       stop-color="#293c8f"
       id="stop102" />
    <stop
       offset=".588"
       stop-color="#294092"
       id="stop104" />
    <stop
       offset=".623"
       stop-color="#294b9a"
       id="stop106" />
    <stop
       offset=".657"
       stop-color="#285ea8"
       id="stop108" />
    <stop
       offset=".69"
       stop-color="#2878bc"
       id="stop110" />
    <stop
       offset=".723"
       stop-color="#279ad5"
       id="stop112" />
    <stop
       offset=".734"
       stop-color="#27a7df"
       id="stop114" />
    <stop
       offset=".736"
       stop-color="#25a7d9"
       id="stop116" />
    <stop
       offset=".748"
       stop-color="#1ba5b3"
       id="stop118" />
    <stop
       offset=".761"
       stop-color="#13a493"
       id="stop120" />
    <stop
       offset=".775"
       stop-color="#0ca379"
       id="stop122" />
    <stop
       offset=".79"
       stop-color="#07a264"
       id="stop124" />
    <stop
       offset=".807"
       stop-color="#03a156"
       id="stop126" />
    <stop
       offset=".828"
       stop-color="#01a14e"
       id="stop128" />
    <stop
       offset=".863"
       stop-color="#00a14b"
       id="stop130" />
    <stop
       offset="1"
       stop-color="#89be6a"
       id="stop132" />
  </linearGradient>
  <path
     d="m 133.6,287.7 h -78 c -0.3,0 -0.5,-0.2 -0.5,-0.5 v -4 c 0,-0.3 0.2,-0.5 0.5,-0.5 h 78 c 0.3,0 0.5,0.2 0.5,0.5 v 4 c 0,0.3 -0.3,0.5 -0.5,0.5 z"
     stroke-miterlimit="10"
     id="path135"
     inkscape:connector-curvature="0"
     style="fill:url(#SVGID_1_);stroke:#939093;stroke-width:0.57300001;stroke-miterlimit:10" />
</svg>
