<?xml version="1.0" encoding="UTF-8" standalone="no"?>
<svg
   xmlns:dc="http://purl.org/dc/elements/1.1/"
   xmlns:cc="http://creativecommons.org/ns#"
   xmlns:rdf="http://www.w3.org/1999/02/22-rdf-syntax-ns#"
   xmlns:svg="http://www.w3.org/2000/svg"
   xmlns="http://www.w3.org/2000/svg"
   xmlns:xlink="http://www.w3.org/1999/xlink"
   xmlns:sodipodi="http://sodipodi.sourceforge.net/DTD/sodipodi-0.dtd"
   xmlns:inkscape="http://www.inkscape.org/namespaces/inkscape"
   id="Capa_1"
   viewBox="0 0 844.2 445.92002"
   version="1.1"
   sodipodi:docname="consolegame.svg"
   width="844.20001"
   height="445.92001"
   inkscape:version="0.92.4 5da689c313, 2019-01-14">
  <metadata
     id="metadata417">
    <rdf:RDF>
      <cc:Work
         rdf:about="">
        <dc:format>image/svg+xml</dc:format>
        <dc:type
           rdf:resource="http://purl.org/dc/dcmitype/StillImage" />
      </cc:Work>
    </rdf:RDF>
  </metadata>
  <defs
     id="defs415" />
  <sodipodi:namedview
     pagecolor="#ffffff"
     bordercolor="#666666"
     borderopacity="1"
     objecttolerance="10"
     gridtolerance="10"
     guidetolerance="10"
     inkscape:pageopacity="0"
     inkscape:pageshadow="2"
     inkscape:window-width="640"
     inkscape:window-height="480"
     id="namedview413"
     showgrid="false"
     inkscape:zoom="0.32101397"
     inkscape:cx="422.10001"
     inkscape:cy="222.97"
     inkscape:window-x="0"
     inkscape:window-y="0"
     inkscape:window-maximized="0"
     inkscape:current-layer="Capa_1">
    <inkscape:grid
       type="xygrid"
       id="grid1224"
       originx="0"
       originy="0.020006104" />
  </sodipodi:namedview>
  <style
     id="style2">.st2{fill:#3c3c3c}.st3{fill:#1a1618}.st4{fill:#262627}.st6{fill:#0b0808}.st7{fill:#040404}.st10{fill:#661919}.st12{fill:#11100f}.st13{fill:#afafaf;stroke:#939093;stroke-width:.2864;stroke-miterlimit:10}.st16{fill:#101615}.st17{fill:#202523}.st18{fill:#161b16}.st20{fill:#373834}.st21{fill:#262b29}.st28{fill:#1b6db7}</style>
  <image
     sodipodi:absref="/data/raid/Development/Themes/EmulationStation/devel/recalbox-backport/atari5200/data/../../atari_5200_console_screen_ver_2_by_tangentg-da0qcwl.png"
     xlink:href="../../atari_5200_console_screen_ver_2_by_tangentg-da0qcwl.png"
     y="0"
     x="0"
     style="overflow:visible"
     id="image4"
     overflow="visible"
     height="445.92001"
     width="598.08002" />
  <path
     d="M 597.2,445.9 H 0.8 C 0.3,445.9 0,445.5 0,445.1 V 0.8 C 0,0.4 0.4,0 0.8,0 h 596.4 c 0.5,0 0.8,0.4 0.8,0.8 V 445 c 0.1,0.5 -0.3,0.9 -0.8,0.9 z"
     id="path6"
     inkscape:connector-curvature="0"
     style="fill:#1c1c1c" />
  <path
     d="M 0,188 H 598.1 V 305.3 H 0 Z"
     id="path8"
     inkscape:connector-curvature="0"
     style="fill:#bbbdbd" />
  <path
     class="st2"
     d="m 206.8,167.3 h 184.4 l 5.7,5.7 H 201.2 Z"
     id="path10"
     inkscape:connector-curvature="0"
     style="fill:#3c3c3c" />
  <path
     class="st3"
     d="m 206.8,131.4 h 184.4 l 5.7,-5.6 H 201.2 Z"
     id="path12"
     inkscape:connector-curvature="0"
     style="fill:#1a1618" />
  <path
     class="st4"
     d="m 206.8,131.4 v 35.9 l -5.6,5.7 v -47.2 z m 184.4,35.9 v -35.9 l 5.7,-5.6 V 173 Z"
     id="path14"
     inkscape:connector-curvature="0"
     style="fill:#262627" />
  <path
     d="m 391.215,131.435 v 35.9 h -184.4 v -35.9 z"
     id="path16"
     inkscape:connector-curvature="0"
     style="fill:#060606" />
  <path
     class="st6"
     d="M 598.1,90.7 H 0"
     id="path18"
     inkscape:connector-curvature="0"
     style="fill:#0b0808" />
  <path
     d="m 0,89.7 h 598.1 v 2 H 0 Z"
     id="path20"
     inkscape:connector-curvature="0" />
  <path
     class="st7"
     d="m 10,110.8 h 4.2 v 77.3 H 10 Z m 9.5,0 h 4.2 v 77.3 h -4.2 z m 9.5,0 h 4.2 v 77.3 H 29 Z m 9.5,0 h 4.2 v 77.3 h -4.2 z m 9.5,0 h 4.2 v 77.3 H 48 Z m 9.5,0 h 4.2 v 77.3 h -4.2 z m 9.5,0 h 4.2 v 77.3 H 67 Z m 9.5,0 h 4.2 v 77.3 h -4.2 z m 9.5,0 h 4.2 v 77.3 H 86 Z m 9.5,0 h 4.2 v 77.3 h -4.2 z m 9.5,0 h 4.2 v 77.3 H 105 Z m 9.5,0 h 4.2 v 77.3 h -4.2 z m 9.5,0 h 4.2 v 77.3 H 124 Z m 9.5,0 h 4.2 v 77.3 h -4.2 z m 9.5,0 h 4.2 v 77.3 H 143 Z m 9.5,0 h 4.2 v 77.3 h -4.2 z m 9.5,0 h 4.2 v 77.3 H 162 Z m 9.6,0 h 4.2 v 77.3 h -4.2 z m 9.5,0 h 4.2 v 77.3 h -4.2 z"
     id="path22"
     inkscape:connector-curvature="0"
     style="fill:#040404" />
  <g
     id="g26">
    <path
       class="st7"
       d="m 583.9,110.8 h 4.2 v 77.3 h -4.2 z m -9.5,0 h 4.2 v 77.3 h -4.2 z m -9.5,0 h 4.2 v 77.3 h -4.2 z m -9.5,0 h 4.2 v 77.3 h -4.2 z m -9.5,0 h 4.2 v 77.3 h -4.2 z m -9.5,0 h 4.2 v 77.3 h -4.2 z m -9.5,0 h 4.2 v 77.3 h -4.2 z m -9.5,0 h 4.2 v 77.3 h -4.2 z m -9.5,0 h 4.2 v 77.3 h -4.2 z m -9.5,0 h 4.2 v 77.3 h -4.2 z m -9.5,0 h 4.2 v 77.3 h -4.2 z m -9.5,0 h 4.2 v 77.3 h -4.2 z m -9.5,0 h 4.2 v 77.3 h -4.2 z m -9.5,0 h 4.2 v 77.3 h -4.2 z m -9.5,0 h 4.2 v 77.3 h -4.2 z m -9.5,0 h 4.2 v 77.3 h -4.2 z m -9.5,0 h 4.2 v 77.3 h -4.2 z m -9.7,0 h 4.2 v 77.3 h -4.2 z m -9.5,0 h 4.2 v 77.3 h -4.2 z"
       id="path24"
       inkscape:connector-curvature="0"
       style="fill:#040404" />
  </g>
  <path
     class="st4"
     d="m 529,321.6 v 25.9 l -4.1,4.1 v -34.1 z"
     id="path28"
     inkscape:connector-curvature="0"
     style="fill:#262627" />
  <path
     class="st2"
     d="m 551.6,347.5 h 22.8 l 4.1,4.1 h -53.6 l 4.1,-4.1 z"
     id="path30"
     inkscape:connector-curvature="0"
     style="fill:#3c3c3c" />
  <path
     class="st3"
     d="m 551.7,321.6 h 22.7 l 4.1,-4.1 h -53.6 l 4.1,4.1 z"
     id="path32"
     inkscape:connector-curvature="0"
     style="fill:#1a1618" />
  <path
     class="st4"
     d="m 574.4,321.6 v 25.9 l 4.1,4.1 v -34.1 z"
     id="path34"
     inkscape:connector-curvature="0"
     style="fill:#262627" />
  <path
     d="m 529,321.6 h 45.4 v 26 H 529 Z"
     id="path36"
     inkscape:connector-curvature="0"
     style="fill:#141414" />
  <path
     d="M 546.3,347.5 H 557 v 1.3 h -10.7 z"
     id="path38"
     inkscape:connector-curvature="0"
     style="fill:#650406" />
  <g
     id="g42">
    <path
       class="st10"
       d="m 533.8,326.9 c 0,0.3 -0.1,0.6 -0.3,0.8 -0.2,0.2 -0.4,0.3 -0.7,0.3 h -1 v 1.3 H 531 v -3.6 h 1.7 c 0.4,0 0.6,0.1 0.8,0.3 0.2,0.2 0.3,0.5 0.3,0.9 z m -0.7,-0.1 c 0,-0.1 0,-0.3 -0.1,-0.4 -0.1,-0.1 -0.2,-0.1 -0.3,-0.1 h -0.9 v 1.1 h 0.9 c 0.1,0 0.2,-0.1 0.3,-0.2 0,-0.1 0.1,-0.2 0.1,-0.4 z m 4.8,0.8 c 0,0.6 -0.2,1 -0.5,1.4 -0.3,0.3 -0.7,0.5 -1.3,0.5 -0.6,0 -1,-0.2 -1.3,-0.6 -0.3,-0.3 -0.4,-0.8 -0.4,-1.3 0,-0.5 0.1,-1 0.4,-1.3 0.3,-0.4 0.8,-0.6 1.4,-0.6 0.5,0 1,0.2 1.3,0.6 0.3,0.3 0.4,0.7 0.4,1.3 z m -0.7,0 c 0,-0.4 -0.1,-0.7 -0.3,-0.9 -0.2,-0.2 -0.4,-0.3 -0.8,-0.3 -0.3,0 -0.6,0.1 -0.8,0.3 -0.2,0.2 -0.3,0.5 -0.3,0.9 0,0.4 0.1,0.7 0.3,0.9 0.2,0.2 0.5,0.3 0.8,0.3 0.3,0 0.5,-0.1 0.7,-0.3 0.3,-0.2 0.4,-0.5 0.4,-0.9 z m 5.8,-1.9 -1,3.6 h -0.7 l -0.6,-2.8 -0.6,2.8 h -0.7 l -1,-3.6 h 0.8 l 0.6,2.7 0.5,-2.7 h 0.8 l 0.5,2.8 0.6,-2.8 z m 3.4,3.7 h -2.7 v -3.6 h 2.6 v 0.6 h -1.9 v 0.8 h 1.7 v 0.6 h -1.7 v 0.9 h 2 z m 3.9,0 h -0.8 c -0.1,-0.2 -0.1,-0.3 -0.1,-0.4 v -0.5 c 0,-0.1 0,-0.3 -0.1,-0.3 -0.1,-0.1 -0.2,-0.2 -0.4,-0.2 H 548 v 1.4 h -0.8 v -3.6 h 2 c 0.2,0 0.4,0.1 0.6,0.2 0.2,0.2 0.3,0.4 0.3,0.8 0,0.4 -0.2,0.7 -0.5,0.9 0.3,0.1 0.4,0.3 0.4,0.5 v 0.9 c 0,0.1 0,0.2 0.1,0.3 z m -0.8,-2.6 c 0,-0.3 -0.1,-0.4 -0.4,-0.4 h -1 v 1 h 1 c 0.1,0 0.2,-0.1 0.3,-0.2 0.1,-0.2 0.1,-0.3 0.1,-0.4 z m 6.6,0.8 c 0,0.6 -0.2,1 -0.5,1.4 -0.3,0.3 -0.7,0.5 -1.3,0.5 -0.6,0 -1,-0.2 -1.3,-0.6 -0.3,-0.3 -0.4,-0.8 -0.4,-1.3 0,-0.5 0.1,-1 0.4,-1.3 0.3,-0.4 0.8,-0.6 1.4,-0.6 0.5,0 1,0.2 1.3,0.6 0.2,0.3 0.4,0.7 0.4,1.3 z m -0.7,0 c 0,-0.4 -0.1,-0.7 -0.3,-0.9 -0.2,-0.2 -0.4,-0.3 -0.8,-0.3 -0.3,0 -0.6,0.1 -0.8,0.3 -0.2,0.2 -0.3,0.5 -0.3,0.9 0,0.4 0.1,0.7 0.3,0.9 0.2,0.2 0.5,0.3 0.8,0.3 0.3,0 0.5,-0.1 0.7,-0.3 0.3,-0.2 0.4,-0.5 0.4,-0.9 z m 4.4,1.8 h -0.7 l -1.5,-2.5 v 2.5 h -0.8 v -3.6 h 0.7 l 1.5,2.5 v -2.5 h 0.8 z m 1.9,-3.6 -1.1,3.6 h -0.3 l 1,-3.6 z m 4,1.8 c 0,0.6 -0.2,1 -0.5,1.4 -0.3,0.3 -0.7,0.5 -1.3,0.5 -0.6,0 -1,-0.2 -1.3,-0.6 -0.3,-0.3 -0.4,-0.8 -0.4,-1.3 0,-0.5 0.1,-1 0.4,-1.3 0.3,-0.4 0.8,-0.6 1.4,-0.6 0.5,0 1,0.2 1.3,0.6 0.3,0.3 0.4,0.7 0.4,1.3 z m -0.7,0 c 0,-0.4 -0.1,-0.7 -0.3,-0.9 -0.2,-0.2 -0.4,-0.3 -0.8,-0.3 -0.3,0 -0.6,0.1 -0.8,0.3 -0.2,0.2 -0.3,0.5 -0.3,0.9 0,0.4 0.1,0.7 0.3,0.9 0.2,0.2 0.5,0.3 0.8,0.3 0.3,0 0.5,-0.1 0.7,-0.3 0.3,-0.2 0.4,-0.5 0.4,-0.9 z m 4.1,-1.2 h -1.8 v 0.8 h 1.6 v 0.6 h -1.6 v 1.6 h -0.8 v -3.6 h 2.6 z m 3.3,0 h -1.8 v 0.8 h 1.6 v 0.6 h -1.6 v 1.6 h -0.8 v -3.6 h 2.6 z"
       id="path40"
       inkscape:connector-curvature="0"
       style="fill:#661919" />
  </g>
  <path
     class="st7"
     d="m 0,107.9 h 598.1 v 2.9 H 0 Z"
     id="path44"
     inkscape:connector-curvature="0"
     style="fill:#040404" />
  <path
     d="M 10,374.9 H 588.1"
     id="path46"
     inkscape:connector-curvature="0"
     style="fill:none" />
  <g
     id="g52">
    <path
       class="st6"
       d="M 598.1,362.4 H 0"
       id="path48"
       inkscape:connector-curvature="0"
       style="fill:#0b0808" />
    <path
       d="m 0,361.4 h 598.1 v 2 H 0 Z"
       id="path50"
       inkscape:connector-curvature="0" />
  </g>
  <g
     id="g56">
    <path
       class="st12"
       d="m 9.8,363.4 h 4.6 v 11.3 H 9.8 Z m 9.1,0 h 4.6 v 11.3 h -4.6 z m 9.1,0 h 4.6 v 11.3 H 28 Z m 9.1,0 h 4.6 v 11.3 h -4.6 z m 9.1,0 h 4.6 v 11.3 h -4.6 z m 9.2,0 H 60 v 11.3 h -4.6 z m 9.1,0 h 4.6 v 11.3 h -4.6 z m 9.1,0 h 4.6 v 11.3 h -4.6 z m 9.1,0 h 4.6 v 11.3 h -4.6 z m 9.1,0 h 4.6 v 11.3 h -4.6 z m 9.1,0 h 4.6 v 11.3 h -4.6 z m 9.1,0 h 4.6 v 11.3 H 110 Z m 9.1,0 h 4.6 v 11.3 h -4.6 z m 9.1,0 h 4.6 v 11.3 h -4.6 z m 9.1,0 h 4.6 v 11.3 h -4.6 z m 9.1,0 h 4.6 v 11.3 h -4.6 z m 9.1,0 h 4.6 v 11.3 h -4.6 z m 9.1,0 h 4.6 v 11.3 h -4.6 z m 9.1,0 h 4.6 v 11.3 h -4.6 z m 9.1,0 h 4.6 v 11.3 h -4.6 z m 9.2,0 h 4.6 v 11.3 H 192 Z m 9.1,0 h 4.6 v 11.3 h -4.6 z m 9.1,0 h 4.6 v 11.3 h -4.6 z m 9.1,0 h 4.6 v 11.3 h -4.6 z m 9.1,0 h 4.6 v 11.3 h -4.6 z m 9.1,0 h 4.6 v 11.3 h -4.6 z m 9.1,0 h 4.6 v 11.3 h -4.6 z m 9.1,0 h 4.6 v 11.3 h -4.6 z m 9.1,0 h 4.6 v 11.3 h -4.6 z m 9.1,0 h 4.6 v 11.3 h -4.6 z m 9.1,0 h 4.6 v 11.3 H 283 Z m 9.1,0 h 4.6 v 11.3 h -4.6 z m 9.1,0 h 4.6 v 11.3 h -4.6 z m 9.1,0 h 4.6 v 11.3 h -4.6 z m 9.1,0 h 4.6 v 11.3 h -4.6 z m 9.1,0 h 4.6 v 11.3 h -4.6 z m 9.2,0 h 4.6 v 11.3 h -4.6 z m 9.1,0 h 4.6 v 11.3 h -4.6 z m 9.1,0 h 4.6 v 11.3 h -4.6 z m 9.1,0 h 4.6 v 11.3 H 365 Z m 9.1,0 h 4.6 v 11.3 h -4.6 z m 9.1,0 h 4.6 v 11.3 h -4.6 z m 9.1,0 h 4.6 v 11.3 h -4.6 z m 9.1,0 h 4.6 v 11.3 h -4.6 z m 9.1,0 h 4.6 v 11.3 h -4.6 z m 9.1,0 h 4.6 v 11.3 h -4.6 z m 9.1,0 h 4.6 v 11.3 h -4.6 z m 9.1,0 h 4.6 v 11.3 h -4.6 z m 9.1,0 h 4.6 v 11.3 h -4.6 z m 9.1,0 h 4.6 v 11.3 H 456 Z m 9.1,0 h 4.6 v 11.3 h -4.6 z m 9.1,0 h 4.6 v 11.3 h -4.6 z m 9.2,0 h 4.6 v 11.3 h -4.6 z m 9.1,0 h 4.6 v 11.3 h -4.6 z m 9.1,0 h 4.6 v 11.3 h -4.6 z m 9.1,0 h 4.6 v 11.3 h -4.6 z m 9.1,0 h 4.6 v 11.3 h -4.6 z m 9.1,0 h 4.6 v 11.3 h -4.6 z m 9.1,0 h 4.6 v 11.3 H 538 Z m 9.1,0 h 4.6 v 11.3 h -4.6 z m 9.1,0 h 4.6 v 11.3 h -4.6 z m 9.1,0 h 4.6 v 11.3 h -4.6 z m 9.1,0 h 4.6 v 11.3 h -4.6 z m 9.1,0 h 4.6 v 11.3 h -4.6 z"
       id="path54"
       inkscape:connector-curvature="0"
       style="fill:#11100f" />
  </g>
  <g
     id="g60">
    <path
       class="st13"
       d="m 58.2,269.8 c 0.4,-0.5 1.3,-0.6 1.9,-0.2 0.2,0.2 0.4,0.4 0.4,0.7 1,3.1 2,6.3 2.9,9.4 h -1.7 c -0.3,-0.9 -0.5,-1.7 -0.8,-2.6 h -3.4 c -0.3,0.9 -0.5,1.7 -0.8,2.6 H 55 c 0.9,-3 1.9,-6 2.8,-9 0.2,-0.3 0.2,-0.6 0.4,-0.9 m 1.1,1.9 -1.2,3.9 h 2.4 z m 11.1,-1.8 c 0.3,-0.4 0.9,-0.6 1.4,-0.5 0.5,0.1 0.8,0.5 1,0.9 1,3.1 2,6.3 2.9,9.4 H 74 c -0.3,-0.9 -0.5,-1.7 -0.8,-2.6 h -3.4 c -0.3,0.9 -0.5,1.7 -0.8,2.6 h -1.7 c 0.9,-3 1.9,-6 2.8,-9 0.1,-0.3 0.1,-0.6 0.3,-0.8 m -0.1,5.7 h 2.4 l -1.2,-3.9 z m -8.1,-6.2 h 6.3 v 1.6 h -2.3 v 8.7 H 64.5 V 271 h -2.3 z m 15.4,0.1 c 0.2,-0.1 0.3,-0.1 0.5,-0.1 h 2 c 1.1,0 2.2,0.7 2.7,1.6 0.3,0.6 0.4,1.3 0.3,2 -0.1,0.7 -0.4,1.4 -0.9,1.8 -0.3,0.3 -0.7,0.4 -1,0.6 -0.2,0.1 -0.2,0.4 -0.1,0.5 0.9,1.3 1.8,2.5 2.7,3.7 h -2 c -0.9,-1.2 -1.7,-2.4 -2.6,-3.6 -0.3,-0.3 -0.3,-0.8 -0.2,-1.2 0.1,-0.3 0.4,-0.5 0.7,-0.6 0.6,-0.2 1.2,-0.5 1.5,-1.1 0.3,-0.4 0.2,-0.9 0.1,-1.3 -0.1,-0.6 -0.7,-1 -1.3,-1 h -1.3 c -0.2,0 -0.4,0.2 -0.4,0.3 v 8.4 h -1.7 v -9.1 c 0,-0.3 0.4,-0.8 1,-0.9 z m 6.9,-0.1 h 1.8 v 10.3 h -1.8 z m -48.9,0.3 v 1.5 c 0,1.4 -0.1,2.9 -0.4,4.3 -0.2,1.1 -0.5,2.3 -1,3.3 -0.5,0.9 -1,1.8 -1.8,2.5 -0.7,0.7 -1.6,1.3 -2.5,1.8 -0.8,0.4 -1.7,0.7 -2.6,0.8 v 2.5 c 0.7,-0.1 1.5,-0.3 2.2,-0.5 1.3,-0.4 2.5,-1 3.5,-1.8 1.1,-0.9 2.1,-1.9 2.8,-3.1 0.4,-0.7 0.7,-1.5 0.9,-2.3 0.2,-1.2 0.3,-2.4 0.4,-3.6 0,-0.8 0.1,-1.6 0.1,-2.5 v -3 c -0.7,0.1 -1.1,0.1 -1.6,0.1 m 2,0 v 16.6 h 2.6 v -16.6 h -2.6 m 3.1,0 v 2.7 c 0,1.6 0,3.2 0.2,4.8 0.1,0.7 0.2,1.5 0.4,2.2 0.2,0.7 0.5,1.4 1,2.1 0.5,0.8 1.2,1.6 2,2.2 0.5,0.4 1,0.8 1.5,1.1 0.7,0.4 1.6,0.8 2.4,1 0.7,0.2 1.4,0.4 2.2,0.5 v -2.5 c -0.4,0 -0.7,-0.1 -1.1,-0.2 -1.3,-0.4 -2.5,-1 -3.5,-1.9 -1,-0.9 -1.8,-2 -2.4,-3.2 -0.6,-1.2 -0.8,-2.5 -1,-3.8 -0.2,-1.7 -0.3,-3.4 -0.3,-5.1 -0.4,0.1 -0.9,0.1 -1.4,0.1 m 70.1,9.3 v 1.2 h -6.5 v -1 l 4.4,-4.4 c 0.4,-0.5 0.9,-1.1 0.9,-1.8 0,-1.1 -0.9,-1.9 -2,-1.9 -1,0 -1.9,0.8 -1.9,1.8 h -1.3 c 0.2,-1.8 1.4,-3 3.2,-3 1.7,0 3.2,1.3 3.2,3 0,0.7 -0.3,1.5 -0.7,2.1 l -4,4.1 z m 6.3,-9.1 c -2.9,0 -5.2,2.4 -5.2,5.3 0,2.9 2.4,5.2 5.2,5.2 3,0 5.3,-2.3 5.3,-5.3 0,-3 -2.3,-5.2 -5.3,-5.2 z m 4.1,5.3 c 0,2.3 -1.8,4.1 -4.1,4.1 -2.2,0 -3.9,-1.8 -3.9,-4.1 0,-2.3 1.8,-4.1 3.9,-4.1 2.3,0 4.1,1.7 4.1,4.1 z m 7.5,-5.3 c -2.9,0 -5.2,2.4 -5.2,5.3 0,2.9 2.4,5.2 5.2,5.2 3,0 5.3,-2.3 5.3,-5.3 0,-3 -2.3,-5.2 -5.3,-5.2 z m 4.1,5.3 c 0,2.3 -1.8,4.1 -4.1,4.1 -2.2,0 -3.9,-1.8 -3.9,-4.1 0,-2.3 1.8,-4.1 3.9,-4.1 2.3,0 4.1,1.7 4.1,4.1 z m -37.1,2.9 1,-0.4 c 0.6,1.2 1.5,1.7 2.6,1.7 0.8,0 1.4,-0.3 1.9,-0.8 0.5,-0.5 0.7,-1.2 0.7,-1.9 0,-0.7 -0.2,-1.2 -0.6,-1.6 -0.4,-0.4 -1,-0.7 -1.6,-0.7 -0.9,0 -1.2,0.1 -1.9,0.9 l -1.1,-0.3 0.9,-4.8 h 4.6 l 0.1,1.1 h -3.9 l -0.4,2.3 c 0.7,-0.1 1,-0.1 1.9,-0.1 0.9,0 1.6,0.3 2.3,0.9 0.6,0.6 1,1.4 1,2.3 0,1 -0.3,1.8 -1,2.6 -0.7,0.7 -1.6,1.1 -2.8,1.1 -0.8,0 -1.5,-0.2 -2.2,-0.6 -0.7,-0.4 -1.2,-1 -1.5,-1.7 z"
       id="path58"
       inkscape:connector-curvature="0"
       style="fill:#afafaf;stroke:#939093;stroke-width:0.28639999;stroke-miterlimit:10" />
  </g>
  <linearGradient
     id="SVGID_1_"
     gradientUnits="userSpaceOnUse"
     x1="55.099998"
     y1="161.367"
     x2="134.10001"
     y2="161.367"
     gradientTransform="matrix(1,0,0,-1,0,446.567)">
    <stop
       offset=".016"
       stop-color="#fcdc05"
       id="stop62" />
    <stop
       offset=".025"
       stop-color="#f9bf0d"
       id="stop64" />
    <stop
       offset=".039"
       stop-color="#f59917"
       id="stop66" />
    <stop
       offset=".053"
       stop-color="#f27e1e"
       id="stop68" />
    <stop
       offset=".064"
       stop-color="#f16e22"
       id="stop70" />
    <stop
       offset=".073"
       stop-color="#f06824"
       id="stop72" />
    <stop
       offset=".078"
       stop-color="#ef5f25"
       id="stop74" />
    <stop
       offset=".093"
       stop-color="#ed4926"
       id="stop76" />
    <stop
       offset=".111"
       stop-color="#eb3827"
       id="stop78" />
    <stop
       offset=".134"
       stop-color="#ea2d28"
       id="stop80" />
    <stop
       offset=".165"
       stop-color="#e92629"
       id="stop82" />
    <stop
       offset=".252"
       stop-color="#e92429"
       id="stop84" />
    <stop
       offset=".255"
       stop-color="#e5242b"
       id="stop86" />
    <stop
       offset=".295"
       stop-color="#b42b45"
       id="stop88" />
    <stop
       offset=".336"
       stop-color="#89305c"
       id="stop90" />
    <stop
       offset=".377"
       stop-color="#66346e"
       id="stop92" />
    <stop
       offset=".419"
       stop-color="#4b387d"
       id="stop94" />
    <stop
       offset=".461"
       stop-color="#383a87"
       id="stop96" />
    <stop
       offset=".504"
       stop-color="#2d3c8d"
       id="stop98" />
    <stop
       offset=".55"
       stop-color="#293c8f"
       id="stop100" />
    <stop
       offset=".588"
       stop-color="#294092"
       id="stop102" />
    <stop
       offset=".623"
       stop-color="#294b9a"
       id="stop104" />
    <stop
       offset=".657"
       stop-color="#285ea8"
       id="stop106" />
    <stop
       offset=".69"
       stop-color="#2878bc"
       id="stop108" />
    <stop
       offset=".723"
       stop-color="#279ad5"
       id="stop110" />
    <stop
       offset=".734"
       stop-color="#27a7df"
       id="stop112" />
    <stop
       offset=".736"
       stop-color="#25a7d9"
       id="stop114" />
    <stop
       offset=".748"
       stop-color="#1ba5b3"
       id="stop116" />
    <stop
       offset=".761"
       stop-color="#13a493"
       id="stop118" />
    <stop
       offset=".775"
       stop-color="#0ca379"
       id="stop120" />
    <stop
       offset=".79"
       stop-color="#07a264"
       id="stop122" />
    <stop
       offset=".807"
       stop-color="#03a156"
       id="stop124" />
    <stop
       offset=".828"
       stop-color="#01a14e"
       id="stop126" />
    <stop
       offset=".863"
       stop-color="#00a14b"
       id="stop128" />
    <stop
       offset="1"
       stop-color="#89be6a"
       id="stop130" />
  </linearGradient>
  <path
     d="m 133.6,287.7 h -78 c -0.3,0 -0.5,-0.2 -0.5,-0.5 v -4 c 0,-0.3 0.2,-0.5 0.5,-0.5 h 78 c 0.3,0 0.5,0.2 0.5,0.5 v 4 c 0,0.3 -0.3,0.5 -0.5,0.5 z"
     stroke-miterlimit="10"
     id="path133"
     inkscape:connector-curvature="0"
     style="fill:url(#SVGID_1_);stroke:#939093;stroke-width:0.57300001;stroke-miterlimit:10" />
  <g
     id="g410">
    <path
       d="M 665.8,279.5 H 841.3 V 441.2 H 665.8 Z"
       id="path135"
       inkscape:connector-curvature="0"
       style="fill:#252523" />
    <path
       class="st16"
       d="m 665.8,284.3 h 1.8 v 4.6 h -1.8 z"
       id="path137"
       inkscape:connector-curvature="0"
       style="fill:#101615" />
    <path
       class="st17"
       d="m 667.6,284.3 h 4.4 v 4.6 h -4.4 z"
       id="path139"
       inkscape:connector-curvature="0"
       style="fill:#202523" />
    <path
       class="st16"
       d="m 665.8,293.5 h 1.8 v 4.6 h -1.8 z"
       id="path141"
       inkscape:connector-curvature="0"
       style="fill:#101615" />
    <path
       class="st17"
       d="m 667.6,293.5 h 4.4 v 4.6 h -4.4 z"
       id="path143"
       inkscape:connector-curvature="0"
       style="fill:#202523" />
    <path
       class="st16"
       d="m 665.8,302.8 h 1.8 v 4.6 h -1.8 z"
       id="path145"
       inkscape:connector-curvature="0"
       style="fill:#101615" />
    <path
       class="st17"
       d="m 667.6,302.8 h 4.4 v 4.6 h -4.4 z"
       id="path147"
       inkscape:connector-curvature="0"
       style="fill:#202523" />
    <path
       class="st16"
       d="m 665.8,312 h 1.8 v 4.6 h -1.8 z"
       id="path149"
       inkscape:connector-curvature="0"
       style="fill:#101615" />
    <path
       class="st17"
       d="m 667.6,312 h 4.4 v 4.6 h -4.4 z"
       id="path151"
       inkscape:connector-curvature="0"
       style="fill:#202523" />
    <path
       class="st16"
       d="m 665.8,321.3 h 1.8 v 4.6 h -1.8 z"
       id="path153"
       inkscape:connector-curvature="0"
       style="fill:#101615" />
    <path
       class="st17"
       d="m 667.6,321.3 h 4.4 v 4.6 h -4.4 z"
       id="path155"
       inkscape:connector-curvature="0"
       style="fill:#202523" />
    <path
       class="st16"
       d="m 665.8,330.5 h 1.8 v 4.6 h -1.8 z"
       id="path157"
       inkscape:connector-curvature="0"
       style="fill:#101615" />
    <path
       class="st17"
       d="m 667.6,330.5 h 4.4 v 4.6 h -4.4 z"
       id="path159"
       inkscape:connector-curvature="0"
       style="fill:#202523" />
    <path
       class="st16"
       d="m 665.8,339.7 h 1.8 v 4.6 h -1.8 z"
       id="path161"
       inkscape:connector-curvature="0"
       style="fill:#101615" />
    <path
       class="st17"
       d="m 667.6,339.7 h 4.4 v 4.6 h -4.4 z"
       id="path163"
       inkscape:connector-curvature="0"
       style="fill:#202523" />
    <path
       class="st16"
       d="m 665.8,349 h 1.8 v 4.6 h -1.8 z"
       id="path165"
       inkscape:connector-curvature="0"
       style="fill:#101615" />
    <path
       class="st17"
       d="m 667.6,349 h 4.4 v 4.6 h -4.4 z"
       id="path167"
       inkscape:connector-curvature="0"
       style="fill:#202523" />
    <path
       class="st16"
       d="m 665.8,358.2 h 1.8 v 4.6 h -1.8 z"
       id="path169"
       inkscape:connector-curvature="0"
       style="fill:#101615" />
    <path
       class="st17"
       d="m 667.6,358.2 h 4.4 v 4.6 h -4.4 z"
       id="path171"
       inkscape:connector-curvature="0"
       style="fill:#202523" />
    <path
       class="st16"
       d="m 665.8,367.5 h 1.8 v 4.6 h -1.8 z"
       id="path173"
       inkscape:connector-curvature="0"
       style="fill:#101615" />
    <path
       class="st17"
       d="m 667.6,367.5 h 4.4 v 4.6 h -4.4 z"
       id="path175"
       inkscape:connector-curvature="0"
       style="fill:#202523" />
    <path
       class="st16"
       d="m 665.8,376.7 h 1.8 v 4.6 h -1.8 z"
       id="path177"
       inkscape:connector-curvature="0"
       style="fill:#101615" />
    <path
       class="st17"
       d="m 667.6,376.7 h 4.4 v 4.6 h -4.4 z"
       id="path179"
       inkscape:connector-curvature="0"
       style="fill:#202523" />
    <path
       class="st16"
       d="m 665.8,385.9 h 1.8 v 4.6 h -1.8 z"
       id="path181"
       inkscape:connector-curvature="0"
       style="fill:#101615" />
    <path
       class="st17"
       d="m 667.6,385.9 h 4.4 v 4.6 h -4.4 z"
       id="path183"
       inkscape:connector-curvature="0"
       style="fill:#202523" />
    <path
       class="st16"
       d="m 665.8,395.2 h 1.8 v 4.6 h -1.8 z"
       id="path185"
       inkscape:connector-curvature="0"
       style="fill:#101615" />
    <path
       class="st17"
       d="m 667.6,395.2 h 4.4 v 4.6 h -4.4 z"
       id="path187"
       inkscape:connector-curvature="0"
       style="fill:#202523" />
    <path
       class="st16"
       d="m 665.8,404.4 h 1.8 v 4.6 h -1.8 z"
       id="path189"
       inkscape:connector-curvature="0"
       style="fill:#101615" />
    <path
       class="st17"
       d="m 667.6,404.4 h 4.4 v 4.6 h -4.4 z"
       id="path191"
       inkscape:connector-curvature="0"
       style="fill:#202523" />
    <path
       class="st16"
       d="m 665.8,413.6 h 1.8 v 4.6 h -1.8 z"
       id="path193"
       inkscape:connector-curvature="0"
       style="fill:#101615" />
    <path
       class="st17"
       d="m 667.6,413.6 h 4.4 v 4.6 h -4.4 z"
       id="path195"
       inkscape:connector-curvature="0"
       style="fill:#202523" />
    <path
       class="st16"
       d="m 665.8,422.9 h 1.8 v 4.6 h -1.8 z"
       id="path197"
       inkscape:connector-curvature="0"
       style="fill:#101615" />
    <path
       class="st17"
       d="m 667.6,422.9 h 4.4 v 4.6 h -4.4 z"
       id="path199"
       inkscape:connector-curvature="0"
       style="fill:#202523" />
    <path
       class="st16"
       d="m 665.8,432.1 h 1.8 v 4.6 h -1.8 z"
       id="path201"
       inkscape:connector-curvature="0"
       style="fill:#101615" />
    <path
       class="st17"
       d="m 667.6,432.1 h 4.4 v 4.6 h -4.4 z"
       id="path203"
       inkscape:connector-curvature="0"
       style="fill:#202523" />
    <path
       class="st16"
       d="m 663,293.5 h 2.8 v -4.6 H 663 c -0.1,0 -0.2,0.1 -0.2,0.2 v 4.2 c 0.1,0.2 0.1,0.2 0.2,0.2 z m 0,9.3 h 2.8 v -4.6 H 663 c -0.1,0 -0.2,0.1 -0.2,0.2 v 4.2 c 0.1,0.1 0.1,0.2 0.2,0.2 z m 0,9.2 h 2.8 v -4.6 H 663 c -0.1,0 -0.2,0.1 -0.2,0.2 v 4.2 c 0.1,0.1 0.1,0.2 0.2,0.2 z m 0,9.3 h 2.8 v -4.6 H 663 c -0.1,0 -0.2,0.1 -0.2,0.2 v 4.2 c 0.1,0.1 0.1,0.2 0.2,0.2 z m 0,9.2 h 2.8 v -4.6 H 663 c -0.1,0 -0.2,0.1 -0.2,0.2 v 4.2 c 0.1,0.1 0.1,0.2 0.2,0.2 z m 0,9.2 h 2.8 v -4.6 H 663 c -0.1,0 -0.2,0.1 -0.2,0.2 v 4.2 c 0.1,0.1 0.1,0.2 0.2,0.2 z m 0,9.3 h 2.8 v -4.6 H 663 c -0.1,0 -0.2,0.1 -0.2,0.2 v 4.2 c 0.1,0.1 0.1,0.2 0.2,0.2 z m 0,9.2 h 2.8 v -4.6 H 663 c -0.1,0 -0.2,0.1 -0.2,0.2 v 4.2 c 0.1,0.1 0.1,0.2 0.2,0.2 z m 0,9.3 h 2.8 v -4.6 H 663 c -0.1,0 -0.2,0.1 -0.2,0.2 v 4.2 c 0.1,0.1 0.1,0.2 0.2,0.2 z m 0,9.2 h 2.8 v -4.6 H 663 c -0.1,0 -0.2,0.1 -0.2,0.2 v 4.2 c 0.1,0.1 0.1,0.2 0.2,0.2 z m 0,9.2 h 2.8 v -4.6 H 663 c -0.1,0 -0.2,0.1 -0.2,0.2 v 4.2 c 0.1,0.1 0.1,0.2 0.2,0.2 z m 0,9.3 h 2.8 v -4.6 H 663 c -0.1,0 -0.2,0.1 -0.2,0.2 v 4.2 c 0.1,0.1 0.1,0.2 0.2,0.2 z m 0,9.2 h 2.8 v -4.6 H 663 c -0.1,0 -0.2,0.1 -0.2,0.2 v 4.2 c 0.1,0.1 0.1,0.2 0.2,0.2 z m 0,9.2 h 2.8 V 409 H 663 c -0.1,0 -0.2,0.1 -0.2,0.2 v 4.2 c 0.1,0.2 0.1,0.2 0.2,0.2 z m 0,9.3 h 2.8 v -4.6 H 663 c -0.1,0 -0.2,0.1 -0.2,0.2 v 4.2 c 0.1,0.1 0.1,0.2 0.2,0.2 z m 0,9.2 h 2.8 v -4.6 H 663 c -0.1,0 -0.2,0.1 -0.2,0.2 v 4.2 c 0.1,0.1 0.1,0.2 0.2,0.2 z m -0.1,9.1 h 3 v -4.4 H 663 c -0.1,0 -0.2,0.1 -0.2,0.2 v 4.2 z M 663,284.3 h 2.8 v -4.8 h -3 v 4.6 c 0.1,0.1 0.1,0.2 0.2,0.2 z"
       id="path205"
       inkscape:connector-curvature="0"
       style="fill:#101615" />
    <path
       class="st18"
       d="m 667.6,274.6 -4.7,4.9 h 4.7 z"
       id="path207"
       inkscape:connector-curvature="0"
       style="fill:#161b16" />
    <path
       class="st16"
       d="m 665.8,445.9 -2.9,-4.7 h 2.9 z"
       id="path209"
       inkscape:connector-curvature="0"
       style="fill:#101615" />
    <path
       d="m 667.6,274.6 h 171.9 v 4.9 H 667.6 Z"
       id="path211"
       inkscape:connector-curvature="0"
       style="fill:#141810" />
    <path
       class="st17"
       d="m 665.8,441.2 h 175.5 v 4.7 H 665.8 Z"
       id="path213"
       inkscape:connector-curvature="0"
       style="fill:#202523" />
    <path
       transform="rotate(-180,840.388,286.61)"
       class="st16"
       d="m 839.5,284.3 h 1.8 v 4.6 h -1.8 z"
       id="path215"
       inkscape:connector-curvature="0"
       style="fill:#101615" />
    <path
       transform="rotate(-180,837.303,286.61)"
       class="st17"
       d="m 835.1,284.3 h 4.4 v 4.6 h -4.4 z"
       id="path217"
       inkscape:connector-curvature="0"
       style="fill:#202523" />
    <path
       transform="rotate(-180,840.388,295.85)"
       class="st16"
       d="m 839.5,293.5 h 1.8 v 4.6 h -1.8 z"
       id="path219"
       inkscape:connector-curvature="0"
       style="fill:#101615" />
    <path
       transform="rotate(-180,837.303,295.85)"
       class="st17"
       d="m 835.1,293.5 h 4.4 v 4.6 h -4.4 z"
       id="path221"
       inkscape:connector-curvature="0"
       style="fill:#202523" />
    <path
       transform="rotate(-180,840.388,305.089)"
       class="st16"
       d="m 839.5,302.8 h 1.8 v 4.6 h -1.8 z"
       id="path223"
       inkscape:connector-curvature="0"
       style="fill:#101615" />
    <path
       transform="rotate(-180,837.303,305.089)"
       class="st17"
       d="m 835.1,302.8 h 4.4 v 4.6 h -4.4 z"
       id="path225"
       inkscape:connector-curvature="0"
       style="fill:#202523" />
    <path
       transform="rotate(-180,840.388,314.327)"
       class="st16"
       d="m 839.5,312 h 1.8 v 4.6 h -1.8 z"
       id="path227"
       inkscape:connector-curvature="0"
       style="fill:#101615" />
    <path
       transform="rotate(-180,837.303,314.327)"
       class="st17"
       d="m 835.1,312 h 4.4 v 4.6 h -4.4 z"
       id="path229"
       inkscape:connector-curvature="0"
       style="fill:#202523" />
    <path
       transform="rotate(-180,840.388,323.566)"
       class="st16"
       d="m 839.5,321.3 h 1.8 v 4.6 h -1.8 z"
       id="path231"
       inkscape:connector-curvature="0"
       style="fill:#101615" />
    <path
       transform="rotate(-180,837.303,323.566)"
       class="st17"
       d="m 835.1,321.3 h 4.4 v 4.6 h -4.4 z"
       id="path233"
       inkscape:connector-curvature="0"
       style="fill:#202523" />
    <path
       transform="rotate(-180,840.388,332.805)"
       class="st16"
       d="m 839.5,330.5 h 1.8 v 4.6 h -1.8 z"
       id="path235"
       inkscape:connector-curvature="0"
       style="fill:#101615" />
    <path
       transform="rotate(-180,837.303,332.805)"
       class="st17"
       d="m 835.1,330.5 h 4.4 v 4.6 h -4.4 z"
       id="path237"
       inkscape:connector-curvature="0"
       style="fill:#202523" />
    <path
       transform="rotate(-180,840.388,342.044)"
       class="st16"
       d="m 839.5,339.7 h 1.8 v 4.6 h -1.8 z"
       id="path239"
       inkscape:connector-curvature="0"
       style="fill:#101615" />
    <path
       transform="rotate(-180,837.303,342.044)"
       class="st17"
       d="m 835.1,339.7 h 4.4 v 4.6 h -4.4 z"
       id="path241"
       inkscape:connector-curvature="0"
       style="fill:#202523" />
    <path
       transform="rotate(-180,840.388,351.283)"
       class="st16"
       d="m 839.5,349 h 1.8 v 4.6 h -1.8 z"
       id="path243"
       inkscape:connector-curvature="0"
       style="fill:#101615" />
    <path
       transform="rotate(-180,837.303,351.283)"
       class="st17"
       d="m 835.1,349 h 4.4 v 4.6 h -4.4 z"
       id="path245"
       inkscape:connector-curvature="0"
       style="fill:#202523" />
    <path
       transform="rotate(-180,840.388,360.522)"
       class="st16"
       d="m 839.5,358.2 h 1.8 v 4.6 h -1.8 z"
       id="path247"
       inkscape:connector-curvature="0"
       style="fill:#101615" />
    <path
       transform="rotate(-180,837.303,360.522)"
       class="st17"
       d="m 835.1,358.2 h 4.4 v 4.6 h -4.4 z"
       id="path249"
       inkscape:connector-curvature="0"
       style="fill:#202523" />
    <path
       transform="rotate(-180,840.388,369.761)"
       class="st16"
       d="m 839.5,367.5 h 1.8 v 4.6 h -1.8 z"
       id="path251"
       inkscape:connector-curvature="0"
       style="fill:#101615" />
    <path
       transform="rotate(-180,837.303,369.761)"
       class="st17"
       d="m 835.1,367.5 h 4.4 v 4.6 h -4.4 z"
       id="path253"
       inkscape:connector-curvature="0"
       style="fill:#202523" />
    <path
       transform="rotate(-180,840.388,379)"
       class="st16"
       d="m 839.5,376.7 h 1.8 v 4.6 h -1.8 z"
       id="path255"
       inkscape:connector-curvature="0"
       style="fill:#101615" />
    <path
       transform="rotate(-180,837.303,379)"
       class="st17"
       d="m 835.1,376.7 h 4.4 v 4.6 h -4.4 z"
       id="path257"
       inkscape:connector-curvature="0"
       style="fill:#202523" />
    <path
       transform="rotate(-180,840.388,388.239)"
       class="st16"
       d="m 839.5,385.9 h 1.8 v 4.6 h -1.8 z"
       id="path259"
       inkscape:connector-curvature="0"
       style="fill:#101615" />
    <path
       transform="rotate(-180,837.303,388.239)"
       class="st17"
       d="m 835.1,385.9 h 4.4 v 4.6 h -4.4 z"
       id="path261"
       inkscape:connector-curvature="0"
       style="fill:#202523" />
    <path
       transform="rotate(-180,840.388,397.478)"
       class="st16"
       d="m 839.5,395.2 h 1.8 v 4.6 h -1.8 z"
       id="path263"
       inkscape:connector-curvature="0"
       style="fill:#101615" />
    <path
       transform="rotate(-180,837.303,397.478)"
       class="st17"
       d="m 835.1,395.2 h 4.4 v 4.6 h -4.4 z"
       id="path265"
       inkscape:connector-curvature="0"
       style="fill:#202523" />
    <path
       transform="rotate(-180,840.388,406.717)"
       class="st16"
       d="m 839.5,404.4 h 1.8 v 4.6 h -1.8 z"
       id="path267"
       inkscape:connector-curvature="0"
       style="fill:#101615" />
    <path
       transform="rotate(-180,837.303,406.717)"
       class="st17"
       d="m 835.1,404.4 h 4.4 v 4.6 h -4.4 z"
       id="path269"
       inkscape:connector-curvature="0"
       style="fill:#202523" />
    <path
       transform="rotate(-180,840.388,415.956)"
       class="st16"
       d="m 839.5,413.6 h 1.8 v 4.6 h -1.8 z"
       id="path271"
       inkscape:connector-curvature="0"
       style="fill:#101615" />
    <path
       transform="rotate(-180,837.303,415.956)"
       class="st17"
       d="m 835.1,413.6 h 4.4 v 4.6 h -4.4 z"
       id="path273"
       inkscape:connector-curvature="0"
       style="fill:#202523" />
    <g
       id="g279">
      <path
         transform="rotate(-180,840.388,425.195)"
         class="st16"
         d="m 839.5,422.9 h 1.8 v 4.6 h -1.8 z"
         id="path275"
         inkscape:connector-curvature="0"
         style="fill:#101615" />
      <path
         transform="rotate(-180,837.303,425.195)"
         class="st17"
         d="m 835.1,422.9 h 4.4 v 4.6 h -4.4 z"
         id="path277"
         inkscape:connector-curvature="0"
         style="fill:#202523" />
    </g>
    <g
       id="g285">
      <path
         transform="rotate(-180,840.388,434.434)"
         class="st16"
         d="m 839.5,432.1 h 1.8 v 4.6 h -1.8 z"
         id="path281"
         inkscape:connector-curvature="0"
         style="fill:#101615" />
      <path
         transform="rotate(-180,837.303,434.434)"
         class="st17"
         d="m 835.1,432.1 h 4.4 v 4.6 h -4.4 z"
         id="path283"
         inkscape:connector-curvature="0"
         style="fill:#202523" />
    </g>
    <path
       class="st16"
       d="m 844,293.5 h -2.8 v -4.6 h 2.8 c 0.1,0 0.2,0.1 0.2,0.2 v 4.2 c 0,0.2 -0.1,0.2 -0.2,0.2 z m 0,9.3 h -2.8 v -4.6 h 2.8 c 0.1,0 0.2,0.1 0.2,0.2 v 4.2 c 0,0.1 -0.1,0.2 -0.2,0.2 z m 0,9.2 h -2.8 v -4.6 h 2.8 c 0.1,0 0.2,0.1 0.2,0.2 v 4.2 c 0,0.1 -0.1,0.2 -0.2,0.2 z m 0,9.3 h -2.8 v -4.6 h 2.8 c 0.1,0 0.2,0.1 0.2,0.2 v 4.2 c 0,0.1 -0.1,0.2 -0.2,0.2 z m 0,9.2 h -2.8 v -4.6 h 2.8 c 0.1,0 0.2,0.1 0.2,0.2 v 4.2 c 0,0.1 -0.1,0.2 -0.2,0.2 z m 0,9.2 h -2.8 v -4.6 h 2.8 c 0.1,0 0.2,0.1 0.2,0.2 v 4.2 c 0,0.1 -0.1,0.2 -0.2,0.2 z m 0,9.3 h -2.8 v -4.6 h 2.8 c 0.1,0 0.2,0.1 0.2,0.2 v 4.2 c 0,0.1 -0.1,0.2 -0.2,0.2 z m 0,9.2 h -2.8 v -4.6 h 2.8 c 0.1,0 0.2,0.1 0.2,0.2 v 4.2 c 0,0.1 -0.1,0.2 -0.2,0.2 z m 0,9.3 h -2.8 v -4.6 h 2.8 c 0.1,0 0.2,0.1 0.2,0.2 v 4.2 c 0,0.1 -0.1,0.2 -0.2,0.2 z m 0,9.2 h -2.8 v -4.6 h 2.8 c 0.1,0 0.2,0.1 0.2,0.2 v 4.2 c 0,0.1 -0.1,0.2 -0.2,0.2 z m 0,9.2 h -2.8 v -4.6 h 2.8 c 0.1,0 0.2,0.1 0.2,0.2 v 4.2 c 0,0.1 -0.1,0.2 -0.2,0.2 z m 0,9.3 h -2.8 v -4.6 h 2.8 c 0.1,0 0.2,0.1 0.2,0.2 v 4.2 c 0,0.1 -0.1,0.2 -0.2,0.2 z m 0,9.2 h -2.8 v -4.6 h 2.8 c 0.1,0 0.2,0.1 0.2,0.2 v 4.2 c 0,0.1 -0.1,0.2 -0.2,0.2 z m 0,9.2 h -2.8 V 409 h 2.8 c 0.1,0 0.2,0.1 0.2,0.2 v 4.2 c 0,0.2 -0.1,0.2 -0.2,0.2 z m 0,9.3 h -2.8 v -4.6 h 2.8 c 0.1,0 0.2,0.1 0.2,0.2 v 4.2 c 0,0.1 -0.1,0.2 -0.2,0.2 z m 0,9.2 h -2.8 v -4.6 h 2.8 c 0.1,0 0.2,0.1 0.2,0.2 v 4.2 c 0,0.1 -0.1,0.2 -0.2,0.2 z m 0.2,9.1 h -3 v -4.4 h 2.8 c 0.1,0 0.2,0.1 0.2,0.2 z M 844,284.3 h -2.8 v -4.8 h 3 v 4.6 c 0,0.1 -0.1,0.2 -0.2,0.2 z"
       id="path287"
       inkscape:connector-curvature="0"
       style="fill:#101615" />
    <path
       class="st18"
       d="m 839.5,274.6 4.7,4.9 h -4.7 z"
       id="path289"
       inkscape:connector-curvature="0"
       style="fill:#161b16" />
    <path
       class="st16"
       d="m 841.3,445.9 2.9,-4.7 h -2.9 z"
       id="path291"
       inkscape:connector-curvature="0"
       style="fill:#101615" />
    <g
       id="g299">
      <path
         class="st20"
         d="m 745.3,432.9 c 0.3,-0.3 0.9,-0.4 1.2,-0.1 0.1,0.1 0.2,0.3 0.3,0.4 0.7,2.1 1.3,4.2 2,6.2 h -1.2 c -0.2,-0.6 -0.4,-1.1 -0.5,-1.7 h -2.2 c -0.2,0.6 -0.4,1.1 -0.5,1.7 h -1.1 c 0.6,-2 1.2,-4 1.9,-6 -0.1,-0.1 -0.1,-0.4 0.1,-0.5 m 0.7,1.2 c -0.3,0.9 -0.5,1.7 -0.8,2.6 h 1.6 c -0.3,-0.8 -0.6,-1.7 -0.8,-2.6 z m 7.4,-1.2 c 0.2,-0.3 0.6,-0.4 0.9,-0.3 0.3,0.1 0.6,0.3 0.6,0.6 0.7,2.1 1.3,4.2 2,6.2 h -1.2 c -0.2,-0.6 -0.4,-1.1 -0.5,-1.7 H 753 c -0.2,0.6 -0.4,1.1 -0.5,1.7 h -1.1 c 0.6,-2 1.2,-4 1.9,-6 -0.1,-0.1 0,-0.3 0.1,-0.5 m -0.1,3.8 h 1.6 c -0.3,-0.9 -0.5,-1.7 -0.8,-2.6 -0.3,0.9 -0.5,1.8 -0.8,2.6 z m -5.4,-4.1 h 4.2 v 1 h -1.5 v 5.8 h -1.1 v -5.8 H 748 c -0.1,-0.3 -0.1,-0.7 -0.1,-1 z m 10.2,0 h 1.6 c 0.7,0 1.4,0.4 1.8,1.1 0.2,0.4 0.2,0.9 0.2,1.3 0,0.5 -0.2,0.9 -0.6,1.2 -0.2,0.2 -0.5,0.3 -0.7,0.4 -0.1,0.1 -0.1,0.2 -0.1,0.4 0.6,0.8 1.2,1.7 1.8,2.5 h -1.3 c -0.6,-0.8 -1.1,-1.6 -1.7,-2.4 -0.2,-0.2 -0.2,-0.5 -0.1,-0.8 0.1,-0.2 0.3,-0.3 0.5,-0.4 0.4,-0.1 0.8,-0.4 1,-0.7 0.2,-0.3 0.2,-0.6 0.1,-0.9 -0.1,-0.4 -0.5,-0.7 -0.9,-0.6 h -0.9 c -0.1,0 -0.2,0.1 -0.2,0.2 v 5.6 h -1.1 v -6 c 0,-0.4 0.3,-0.8 0.6,-0.9 z m 4.6,0 h 1.2 v 6.9 h -1.2 z"
         id="path293"
         inkscape:connector-curvature="0"
         style="fill:#373834" />
      <g
         id="g297">
        <path
           class="st20"
           d="m 750.6,416 v 1.3 c 0,1.3 -0.1,2.6 -0.3,3.9 -0.2,1 -0.4,2 -0.9,3 -0.4,0.8 -0.9,1.6 -1.6,2.2 -0.6,0.6 -1.4,1.2 -2.3,1.6 -0.7,0.3 -1.5,0.6 -2.3,0.7 v 2.2 c 0.7,-0.1 1.3,-0.2 2,-0.4 1.1,-0.3 2.2,-0.9 3.1,-1.6 1,-0.8 1.9,-1.7 2.5,-2.8 0.3,-0.7 0.6,-1.4 0.8,-2.1 0.2,-1.1 0.3,-2.1 0.3,-3.2 0,-0.7 0.1,-1.5 0.1,-2.2 v -2.7 c -0.6,0.1 -1,0.1 -1.4,0.1 m 1.8,0 v 15 h 2.3 v -14.9 c -0.8,-0.1 -1.5,-0.1 -2.3,-0.1 m 2.8,0 v 2.4 c 0,1.4 0,2.9 0.2,4.3 0.1,0.7 0.2,1.3 0.4,2 0.2,0.6 0.5,1.3 0.9,1.9 0.5,0.8 1.1,1.4 1.8,2 0.4,0.4 0.9,0.7 1.4,1 0.7,0.4 1.4,0.7 2.2,0.9 0.6,0.2 1.3,0.3 2,0.4 v -2.2 c -0.3,0 -0.7,-0.1 -1,-0.2 -1.2,-0.3 -2.2,-0.9 -3.1,-1.7 -0.9,-0.8 -1.6,-1.8 -2.1,-2.8 -0.5,-1.1 -0.8,-2.3 -0.9,-3.4 -0.2,-1.5 -0.3,-3 -0.2,-4.6 h -1.6"
           id="path295"
           inkscape:connector-curvature="0"
           style="fill:#373834" />
      </g>
    </g>
    <g
       id="g309">
      <path
         class="st21"
         d="m 682.9,288.4 v 117.4 l -4.9,4.1 V 284.3 Z"
         id="path301"
         inkscape:connector-curvature="0"
         style="fill:#262b29" />
      <path
         d="m 682.9,288.4 h 141.2 l 5,-4.1 H 678 Z"
         id="path303"
         inkscape:connector-curvature="0"
         style="fill:#1c1e15" />
      <path
         class="st21"
         d="m 824.1,288.4 v 117.4 l 5,4.1 V 284.3 Z"
         id="path305"
         inkscape:connector-curvature="0"
         style="fill:#262b29" />
      <path
         d="M 824.1,405.8 H 682.9 l -4.9,4.1 h 151.1 z"
         id="path307"
         inkscape:connector-curvature="0"
         style="fill:#161c18" />
    </g>
    <path
       d="M 682.9,288.4 H 824.1 V 405.8 H 682.9 Z"
       id="path311"
       inkscape:connector-curvature="0"
       style="fill:#27282a" />
    <path
       d="M 819.2,405.8 H 687.9 c -2.4,0 -4.3,-1.9 -4.3,-4.3 V 293.8 c 0,-2.4 1.9,-4.3 4.3,-4.3 h 131.3 c 2.4,0 4.3,1.9 4.3,4.3 v 107.7 c 0,2.3 -1.9,4.3 -4.3,4.3 z"
       id="path313"
       inkscape:connector-curvature="0"
       style="fill:#bfbfbf" />
    <path
       d="m 683.6,322.2 h 139.9 v 13.9 H 683.6 Z"
       id="path315"
       inkscape:connector-curvature="0"
       style="fill:#1c6eb8" />
    <linearGradient
       id="SVGID_2_"
       gradientUnits="userSpaceOnUse"
       x1="683.60199"
       y1="320.621"
       x2="823.48102"
       y2="320.621">
      <stop
         offset=".016"
         stop-color="#fcdc05"
         id="stop317" />
      <stop
         offset=".025"
         stop-color="#f9bf0d"
         id="stop319" />
      <stop
         offset=".039"
         stop-color="#f59917"
         id="stop321" />
      <stop
         offset=".053"
         stop-color="#f27e1e"
         id="stop323" />
      <stop
         offset=".064"
         stop-color="#f16e22"
         id="stop325" />
      <stop
         offset=".073"
         stop-color="#f06824"
         id="stop327" />
      <stop
         offset=".078"
         stop-color="#ef5f25"
         id="stop329" />
      <stop
         offset=".093"
         stop-color="#ed4926"
         id="stop331" />
      <stop
         offset=".111"
         stop-color="#eb3827"
         id="stop333" />
      <stop
         offset=".134"
         stop-color="#ea2d28"
         id="stop335" />
      <stop
         offset=".165"
         stop-color="#e92629"
         id="stop337" />
      <stop
         offset=".252"
         stop-color="#e92429"
         id="stop339" />
      <stop
         offset=".255"
         stop-color="#e5242b"
         id="stop341" />
      <stop
         offset=".295"
         stop-color="#b42b45"
         id="stop343" />
      <stop
         offset=".336"
         stop-color="#89305c"
         id="stop345" />
      <stop
         offset=".377"
         stop-color="#66346e"
         id="stop347" />
      <stop
         offset=".419"
         stop-color="#4b387d"
         id="stop349" />
      <stop
         offset=".461"
         stop-color="#383a87"
         id="stop351" />
      <stop
         offset=".504"
         stop-color="#2d3c8d"
         id="stop353" />
      <stop
         offset=".55"
         stop-color="#293c8f"
         id="stop355" />
      <stop
         offset=".588"
         stop-color="#294092"
         id="stop357" />
      <stop
         offset=".623"
         stop-color="#294b9a"
         id="stop359" />
      <stop
         offset=".657"
         stop-color="#285ea8"
         id="stop361" />
      <stop
         offset=".69"
         stop-color="#2878bc"
         id="stop363" />
      <stop
         offset=".723"
         stop-color="#279ad5"
         id="stop365" />
      <stop
         offset=".734"
         stop-color="#27a7df"
         id="stop367" />
      <stop
         offset=".736"
         stop-color="#25a7d9"
         id="stop369" />
      <stop
         offset=".748"
         stop-color="#1ba5b3"
         id="stop371" />
      <stop
         offset=".761"
         stop-color="#13a493"
         id="stop373" />
      <stop
         offset=".775"
         stop-color="#0ca379"
         id="stop375" />
      <stop
         offset=".79"
         stop-color="#07a264"
         id="stop377" />
      <stop
         offset=".807"
         stop-color="#03a156"
         id="stop379" />
      <stop
         offset=".828"
         stop-color="#01a14e"
         id="stop381" />
      <stop
         offset=".863"
         stop-color="#00a14b"
         id="stop383" />
      <stop
         offset="1"
         stop-color="#89be6a"
         id="stop385" />
    </linearGradient>
    <path
       d="m 683.6,319.1 h 139.9 v 3.1 H 683.6 Z"
       id="path388"
       inkscape:connector-curvature="0"
       style="fill:url(#SVGID_2_)" />
    <g
       id="g402">
      <path
         class="st28"
         d="m 720.9,293.1 c 0.9,-1.1 2.8,-1.3 3.9,-0.4 0.5,0.4 0.8,0.9 0.9,1.4 2,6.9 4.1,13.7 6.1,20.6 h -3.6 c -0.6,-1.9 -1.1,-3.8 -1.7,-5.7 h -7 c -0.6,1.9 -1.1,3.8 -1.7,5.7 h -3.6 c 1.9,-6.6 3.9,-13.1 5.8,-19.7 0.3,-0.6 0.4,-1.4 0.9,-1.9 m 2.1,4.2 c -0.9,2.8 -1.7,5.7 -2.5,8.5 h 5.1 c -0.9,-2.8 -1.7,-5.7 -2.6,-8.5 z m 24.8,-4.1 c 0.6,-0.9 1.8,-1.3 2.9,-1 1,0.2 1.7,1 2,2 2,6.9 4.1,13.7 6.1,20.6 h -3.6 c -0.6,-1.9 -1.1,-3.8 -1.7,-5.7 h -7 c -0.6,1.9 -1.1,3.8 -1.7,5.7 h -3.6 c 1.9,-6.6 3.9,-13.2 5.9,-19.8 0.3,-0.6 0.3,-1.3 0.7,-1.8 m -0.3,12.6 h 5.1 c -0.8,-2.9 -1.7,-5.7 -2.5,-8.6 -0.9,2.9 -1.7,5.8 -2.6,8.6 z m -17.7,-13.7 h 13.1 v 3.4 h -4.8 v 19.2 h -3.4 v -19.2 h -4.8 c -0.1,-1.1 -0.1,-2.2 -0.1,-3.4 z m 32.5,0.2 c 0.3,-0.1 0.7,-0.2 1,-0.1 h 4.1 c 2.3,0 4.5,1.4 5.5,3.5 0.7,1.3 0.8,2.9 0.6,4.3 -0.1,1.5 -0.8,3 -2,4 -0.6,0.5 -1.4,0.9 -2.1,1.4 -0.4,0.3 -0.4,0.8 -0.2,1.2 1.8,2.8 3.7,5.5 5.6,8.2 h -4.1 c -1.8,-2.6 -3.5,-5.3 -5.3,-7.9 -0.5,-0.7 -0.7,-1.7 -0.4,-2.6 0.2,-0.7 0.8,-1.1 1.5,-1.4 1.2,-0.5 2.5,-1.2 3.2,-2.3 0.5,-0.9 0.5,-1.9 0.3,-2.9 -0.3,-1.2 -1.5,-2.2 -2.8,-2.1 h -2.7 c -0.4,0 -0.8,0.3 -0.8,0.7 v 18.5 h -3.5 v -19.9 c 0.1,-1.2 0.9,-2.3 2.1,-2.6 z m 13.8,-0.2 h 3.7 v 22.6 h -3.7 z m 7.9,20.6 1.4,0.4 v -0.5 c 0,-1.3 1.1,-2.1 2.3,-2.1 1.4,0 2.3,1.1 2.3,2.4 0,0.8 -0.4,1.6 -1.2,2 l -0.6,-0.6 c 0.6,-0.2 1,-0.9 1,-1.4 0,-0.9 -0.7,-1.6 -1.6,-1.6 -0.8,0 -1.6,0.7 -1.6,1.5 0,0.5 0.2,0.9 0.6,1.2 v 0.2 l -3.4,-1 v -2.6 h 0.8 z m 5.1,-6.8 h 0.8 v 4.2 l -3.5,-2.8 c -0.3,-0.3 -0.7,-0.6 -1.2,-0.6 -0.7,0 -1.3,0.6 -1.3,1.3 0,0.7 0.5,1.2 1.2,1.2 v 0.8 c -1.2,-0.1 -2,-0.9 -2,-2 0,-1.1 0.8,-2 2,-2 0.5,0 1,0.2 1.4,0.5 l 2.7,2.1 z m -6,-3.6 c 0,1.8 1.6,3.4 3.5,3.4 1.9,0 3.4,-1.5 3.4,-3.4 0,-1.9 -1.5,-3.4 -3.4,-3.4 -1.9,0 -3.5,1.5 -3.5,3.4 z m 3.5,-2.6 c 1.5,0 2.7,1.2 2.7,2.6 0,1.4 -1.2,2.5 -2.7,2.5 -1.5,0 -2.7,-1.1 -2.7,-2.5 0,-1.4 1.1,-2.6 2.7,-2.6 z m -3.5,-4.4 c 0,1.8 1.6,3.4 3.5,3.4 1.9,0 3.4,-1.5 3.4,-3.4 0,-1.9 -1.5,-3.4 -3.4,-3.4 -1.9,0 -3.5,1.5 -3.5,3.4 z m 3.5,-2.6 c 1.5,0 2.7,1.2 2.7,2.6 0,1.4 -1.2,2.5 -2.7,2.5 -1.5,0 -2.7,-1.1 -2.7,-2.5 0,-1.5 1.1,-2.6 2.7,-2.6 z"
         id="path390"
         inkscape:connector-curvature="0"
         style="fill:#1b6db7" />
      <g
         id="g394">
        <path
           class="st28"
           d="m 791.2,292.7 h -0.4 v 1.3 h -0.3 v -1.3 H 790 v -0.3 h 1.2 z m 1.6,1.3 h -0.3 v -1.2 l -0.3,1.2 h -0.3 l -0.3,-1.2 v 1.2 h -0.3 v -1.5 h 0.5 l 0.3,1.2 0.3,-1.2 h 0.5 v 1.5 z"
           id="path392"
           inkscape:connector-curvature="0"
           style="fill:#1b6db7" />
      </g>
      <g
         id="g400">
        <path
           class="st28"
           d="m 782.1,294.3 h -0.3 v -0.4 -0.1 c 0,0 -0.1,-0.1 -0.2,-0.1 h -0.4 v 0.6 h -0.3 v -1.5 h 0.9 c 0.1,0 0.2,0 0.2,0.1 0.1,0.1 0.1,0.2 0.1,0.3 0,0.2 -0.1,0.3 -0.2,0.4 0.1,0.1 0.2,0.1 0.2,0.2 z m -0.3,-1.1 c 0,-0.1 -0.1,-0.2 -0.2,-0.2 h -0.4 v 0.4 h 0.4 c 0,0 0.1,0 0.1,-0.1 0.1,0 0.1,-0.1 0.1,-0.1 z"
           id="path396"
           inkscape:connector-curvature="0"
           style="fill:#1b6db7" />
        <path
           class="st28"
           d="m 781.5,295 c -0.8,0 -1.5,-0.7 -1.5,-1.5 0,-0.8 0.7,-1.5 1.5,-1.5 0.8,0 1.5,0.7 1.5,1.5 0,0.8 -0.7,1.5 -1.5,1.5 z m 0,-2.6 c -0.6,0 -1.2,0.5 -1.2,1.2 0,0.7 0.5,1.2 1.2,1.2 0.6,0 1.2,-0.5 1.2,-1.2 0,-0.7 -0.6,-1.2 -1.2,-1.2 z"
           id="path398"
           inkscape:connector-curvature="0"
           style="fill:#1b6db7" />
      </g>
    </g>
    <g
       id="g406">
      <path
         d="m 718.8,400.6 c 0,0.6 -0.5,1.2 -1.1,1.2 -0.6,0 -1.1,-0.5 -1.1,-1.2 0,-0.6 0.5,-1.2 1.1,-1.2 0.6,0 1.1,0.5 1.1,1.2 z m -2.1,0 c 0,0.6 0.4,1 1,1 0.5,0 0.9,-0.4 0.9,-1 0,-0.6 -0.4,-1 -0.9,-1 -0.6,0 -1,0.4 -1,1 z m 1.4,-0.5 c 0,0 -0.2,-0.1 -0.4,-0.1 -0.4,0 -0.5,0.2 -0.5,0.5 0,0.3 0.2,0.5 0.5,0.5 0.1,0 0.3,0 0.4,-0.1 v 0.1 c -0.1,0.1 -0.3,0.1 -0.5,0.1 -0.4,0 -0.7,-0.3 -0.7,-0.7 0,-0.4 0.3,-0.7 0.7,-0.7 0.2,0 0.4,0.1 0.4,0.1 z m 3,1.7 h -0.4 v -1.4 h -0.5 v -0.3 c 0.2,0 0.3,-0.1 0.4,-0.1 0.1,-0.1 0.2,-0.1 0.2,-0.3 h 0.3 z m 2.1,-1.1 c 0,0.8 -0.3,1.2 -0.8,1.2 -0.2,0 -0.3,-0.1 -0.4,-0.2 -0.1,-0.1 -0.2,-0.2 -0.2,-0.4 h 0.4 c 0,0.1 0,0.1 0.1,0.2 0.1,0 0.1,0.1 0.2,0.1 0.1,0 0.1,0 0.2,-0.1 0.1,-0.1 0.1,-0.2 0.1,-0.4 v -0.2 c -0.1,0.1 -0.1,0.1 -0.2,0.1 h -0.2 c -0.2,0 -0.3,-0.1 -0.5,-0.2 -0.1,-0.1 -0.2,-0.3 -0.2,-0.5 0,-0.2 0.1,-0.4 0.2,-0.5 0.1,-0.1 0.3,-0.2 0.5,-0.2 0.3,0 0.5,0.1 0.6,0.3 0.1,0.3 0.2,0.5 0.2,0.8 z m -0.4,-0.2 c 0,-0.3 -0.1,-0.4 -0.3,-0.4 -0.1,0 -0.2,0 -0.3,0.1 -0.1,0.1 -0.1,0.2 -0.1,0.3 0,0.1 0,0.2 0.1,0.3 0.1,0.1 0.1,0.1 0.2,0.1 0.1,0 0.2,0 0.2,-0.1 0.1,-0.2 0.2,-0.3 0.2,-0.3 z m 2.1,0.7 c 0,0.2 -0.1,0.3 -0.2,0.5 -0.1,0.2 -0.3,0.2 -0.6,0.2 -0.2,0 -0.4,-0.1 -0.5,-0.2 -0.1,-0.1 -0.2,-0.3 -0.2,-0.5 0,-0.1 0,-0.2 0.1,-0.3 0,-0.1 0.1,-0.2 0.3,-0.2 -0.2,-0.1 -0.2,-0.3 -0.2,-0.4 0,-0.2 0.1,-0.3 0.2,-0.4 0.1,-0.1 0.3,-0.2 0.5,-0.2 0.2,0 0.3,0.1 0.5,0.2 0.1,0.1 0.2,0.2 0.2,0.4 0,0.2 -0.1,0.3 -0.3,0.4 0.1,0 0.2,0.1 0.2,0.2 z m -0.4,0 c 0,-0.1 0,-0.2 -0.1,-0.2 -0.1,-0.1 -0.1,-0.1 -0.2,-0.1 -0.1,0 -0.2,0 -0.2,0.1 -0.1,0.1 -0.1,0.1 -0.1,0.3 0,0.1 0,0.2 0.1,0.3 0.1,0.1 0.1,0.1 0.2,0.1 0.1,0 0.2,0 0.2,-0.1 0.1,-0.2 0.1,-0.3 0.1,-0.4 z m 0,-0.9 c 0,-0.1 0,-0.1 -0.1,-0.2 -0.1,0 -0.1,-0.1 -0.2,-0.1 -0.1,0 -0.2,0 -0.2,0.1 -0.1,0 -0.1,0.1 -0.1,0.2 0,0.1 0,0.2 0.1,0.2 0.1,0.1 0.1,0.1 0.2,0.1 0.1,0 0.2,0 0.2,-0.1 0.1,-0.1 0.1,-0.1 0.1,-0.2 z m 2.1,0 v 0.3 c 0,0 -0.1,0.1 -0.1,0.2 l -0.2,0.2 c -0.1,0.1 -0.2,0.1 -0.3,0.2 -0.1,0.1 -0.2,0.1 -0.2,0.2 h 0.9 v 0.4 h -1.4 c 0,-0.3 0.1,-0.5 0.2,-0.6 l 0.5,-0.4 c 0.2,-0.1 0.3,-0.3 0.3,-0.5 0,-0.1 0,-0.2 -0.1,-0.2 -0.1,-0.1 -0.1,-0.1 -0.2,-0.1 -0.2,0 -0.3,0.1 -0.3,0.4 h -0.4 c 0,-0.3 0.1,-0.4 0.2,-0.6 0.1,-0.1 0.3,-0.2 0.5,-0.2 0.2,0 0.4,0.1 0.5,0.2 0.1,0.2 0.1,0.4 0.1,0.5 z m 3.2,1.5 h -0.4 l -0.1,-0.4 h -0.8 l -0.1,0.4 H 728 l 0.7,-2.1 h 0.5 z m -0.7,-0.8 -0.3,-0.8 -0.3,0.8 z m 2.6,-0.9 h -0.6 v 1.8 h -0.4 v -1.8 H 730 v -0.4 h 1.7 z m 2.2,1.7 h -0.4 l -0.1,-0.4 h -0.8 l -0.1,0.4 h -0.4 l 0.7,-2.1 h 0.5 z m -0.7,-0.8 -0.3,-0.8 -0.3,0.8 z m 2.8,0.8 h -0.5 c 0,-0.1 -0.1,-0.2 -0.1,-0.2 v -0.3 -0.2 c 0,-0.1 -0.1,-0.1 -0.2,-0.1 h -0.5 v 0.8 h -0.4 v -2.1 h 1.2 c 0.1,0 0.2,0 0.3,0.1 0.1,0.1 0.2,0.3 0.2,0.5 0,0.2 -0.1,0.4 -0.3,0.5 0.2,0.1 0.2,0.2 0.2,0.3 v 0.5 c 0.1,0.1 0.1,0.1 0.1,0.2 z m -0.4,-1.5 c 0,-0.2 -0.1,-0.3 -0.3,-0.3 h -0.6 v 0.6 h 0.6 c 0.1,0 0.1,0 0.2,-0.1 0.1,0 0.1,-0.1 0.1,-0.2 z m 1.3,1.5 h -0.4 v -2.1 h 0.4 z m 0.9,0.1 c 0,0.1 0,0.2 -0.1,0.3 -0.1,0.1 -0.2,0.1 -0.3,0.2 v -0.2 c 0.1,0 0.1,-0.1 0.2,-0.1 0,-0.1 0.1,-0.1 0.1,-0.2 h -0.2 v -0.4 h 0.4 v 0.4 z m 1.8,-0.1 h -0.4 v -2.1 h 0.4 z m 2.2,0 h -0.4 l -0.9,-1.5 v 1.5 h -0.4 v -2.1 h 0.4 l 0.9,1.5 v -1.5 h 0.4 z m 2.3,-0.7 c 0,0.3 -0.1,0.5 -0.3,0.6 -0.2,0.1 -0.4,0.2 -0.6,0.2 -0.3,0 -0.5,-0.1 -0.7,-0.3 -0.2,-0.2 -0.3,-0.5 -0.3,-0.8 0,-0.3 0.1,-0.6 0.2,-0.8 0.2,-0.2 0.4,-0.3 0.7,-0.3 0.3,0 0.5,0.1 0.6,0.2 0.2,0.1 0.3,0.3 0.3,0.5 h -0.4 c 0,-0.1 -0.1,-0.2 -0.2,-0.3 -0.1,-0.1 -0.2,-0.1 -0.3,-0.1 -0.2,0 -0.3,0.1 -0.4,0.2 -0.1,0.1 -0.2,0.3 -0.2,0.5 0,0.2 0,0.4 0.1,0.5 0.1,0.1 0.2,0.2 0.4,0.2 0.1,0 0.2,0 0.3,-0.1 0.1,-0.1 0.1,-0.2 0.1,-0.3 h 0.7 z m 0.9,0.7 h -0.4 v -0.4 h 0.4 z m 3.2,0 h -0.4 l -0.1,-0.4 h -0.8 l -0.1,0.4 h -0.4 l 0.7,-2.1 h 0.5 z m -0.7,-0.8 -0.3,-0.8 -0.2,0.8 z m 2.6,0.8 h -1.5 v -2.1 h 0.4 v 1.8 h 1 v 0.3 z m 1.8,0 h -1.5 v -2.1 h 0.4 v 1.8 h 1 v 0.3 z m 3.1,0 h -0.5 c 0,-0.1 -0.1,-0.2 -0.1,-0.2 v -0.3 -0.2 c 0,-0.1 -0.1,-0.1 -0.2,-0.1 h -0.5 v 0.8 h -0.4 v -2.1 h 1.2 c 0.1,0 0.2,0 0.3,0.1 0.1,0.1 0.2,0.3 0.2,0.5 0,0.2 -0.1,0.4 -0.3,0.5 0.2,0.1 0.2,0.2 0.2,0.3 v 0.5 c 0,0.1 0.1,0.1 0.1,0.2 z m -0.4,-1.5 c 0,-0.2 -0.1,-0.3 -0.3,-0.3 h -0.6 v 0.6 h 0.6 c 0.1,0 0.1,0 0.2,-0.1 0,0 0.1,-0.1 0.1,-0.2 z m 1.3,1.5 h -0.4 v -2.1 h 0.4 z m 2.3,0 H 758 l -0.1,-0.3 c -0.2,0.2 -0.4,0.3 -0.7,0.3 -0.3,0 -0.5,-0.1 -0.7,-0.3 -0.2,-0.2 -0.3,-0.5 -0.3,-0.8 0,-0.3 0.1,-0.6 0.3,-0.8 0.2,-0.2 0.4,-0.3 0.7,-0.3 0.3,0 0.5,0.1 0.6,0.2 0.2,0.1 0.2,0.3 0.3,0.5 h -0.4 c -0.1,-0.2 -0.3,-0.4 -0.5,-0.4 -0.2,0 -0.3,0.1 -0.4,0.2 -0.1,0.1 -0.2,0.3 -0.2,0.5 0,0.2 0.1,0.4 0.2,0.6 0.1,0.2 0.3,0.2 0.4,0.2 0.1,0 0.3,0 0.4,-0.1 0.1,-0.1 0.2,-0.2 0.2,-0.4 h -0.5 v -0.4 h 0.9 z m 2.3,0 H 760 v -1 h -0.8 v 1 h -0.4 v -2.1 h 0.4 v 0.8 h 0.8 v -0.8 h 0.4 v 2.1 z m 2,-1.7 h -0.6 v 1.8 h -0.4 v -1.8 h -0.6 v -0.4 h 1.7 v 0.4 z m 2,1.1 c 0,0.2 -0.1,0.4 -0.2,0.5 -0.2,0.1 -0.4,0.2 -0.7,0.2 -0.3,0 -0.5,-0.1 -0.6,-0.2 -0.1,-0.1 -0.2,-0.3 -0.3,-0.5 h 0.4 c 0,0.2 0.2,0.3 0.5,0.3 0.1,0 0.2,0 0.3,-0.1 0.1,0 0.1,-0.1 0.1,-0.2 0,-0.2 -0.1,-0.3 -0.3,-0.3 l -0.5,-0.1 c -0.1,0 -0.3,-0.1 -0.3,-0.2 -0.1,-0.1 -0.1,-0.2 -0.1,-0.4 0,-0.2 0.1,-0.4 0.2,-0.5 0.1,-0.1 0.3,-0.2 0.6,-0.2 0.3,0 0.5,0.1 0.6,0.2 0.2,0.1 0.2,0.3 0.2,0.5 H 764 c 0,-0.1 0,-0.2 -0.1,-0.2 -0.1,-0.1 -0.2,-0.1 -0.3,-0.1 -0.3,0 -0.4,0.1 -0.4,0.3 0,0.1 0.1,0.2 0.3,0.2 l 0.5,0.1 c 0.2,0 0.4,0.1 0.4,0.2 0,0.2 0.1,0.3 0.1,0.5 z m 3.1,0.6 h -0.5 c 0,-0.1 -0.1,-0.2 -0.1,-0.2 v -0.3 -0.2 c 0,-0.1 -0.1,-0.1 -0.2,-0.1 h -0.5 v 0.8 h -0.4 v -2.1 h 1.2 c 0.1,0 0.2,0 0.3,0.1 0.1,0.1 0.2,0.3 0.2,0.5 0,0.2 -0.1,0.4 -0.3,0.5 0.2,0.1 0.2,0.2 0.2,0.3 v 0.5 c 0,0.1 0,0.1 0.1,0.2 z m -0.5,-1.5 c 0,-0.2 -0.1,-0.3 -0.3,-0.3 h -0.6 v 0.6 h 0.6 c 0.1,0 0.1,0 0.2,-0.1 0.1,0 0.1,-0.1 0.1,-0.2 z m 2.5,1.5 H 768 v -2.1 h 1.5 v 0.4 h -1.1 v 0.5 h 1 v 0.4 h -1 v 0.6 h 1.2 z m 2.1,-0.6 c 0,0.2 -0.1,0.4 -0.2,0.5 -0.2,0.1 -0.4,0.2 -0.7,0.2 -0.3,0 -0.5,-0.1 -0.6,-0.2 -0.1,-0.1 -0.2,-0.3 -0.3,-0.5 h 0.4 c 0,0.2 0.2,0.3 0.5,0.3 0.1,0 0.2,0 0.3,-0.1 0.1,0 0.1,-0.1 0.1,-0.2 0,-0.2 -0.1,-0.3 -0.3,-0.3 l -0.5,-0.1 c -0.1,0 -0.3,-0.1 -0.3,-0.2 -0.1,-0.1 -0.1,-0.2 -0.1,-0.4 0,-0.2 0.1,-0.4 0.2,-0.5 0.1,-0.1 0.3,-0.2 0.6,-0.2 0.3,0 0.5,0.1 0.6,0.2 0.2,0.1 0.2,0.3 0.2,0.5 h -0.4 c 0,-0.1 0,-0.2 -0.1,-0.2 -0.1,-0.1 -0.2,-0.1 -0.3,-0.1 -0.3,0 -0.4,0.1 -0.4,0.3 0,0.1 0.1,0.2 0.3,0.2 l 0.5,0.1 c 0.2,0 0.4,0.1 0.4,0.2 0,0.2 0.1,0.3 0.1,0.5 z m 2,0.6 h -1.6 v -2.1 h 1.5 v 0.4 h -1.1 v 0.5 h 1 v 0.4 h -1 v 0.6 h 1.2 z m 2.2,0 h -0.5 c 0,-0.1 -0.1,-0.2 -0.1,-0.2 v -0.3 -0.2 c 0,-0.1 -0.1,-0.1 -0.2,-0.1 h -0.5 v 0.8 h -0.4 v -2.1 h 1.2 c 0.1,0 0.2,0 0.3,0.1 0.1,0.1 0.2,0.3 0.2,0.5 0,0.2 -0.1,0.4 -0.3,0.5 0.2,0.1 0.2,0.2 0.2,0.3 v 0.5 c 0.1,0.1 0.1,0.1 0.1,0.2 z m -0.4,-1.5 c 0,-0.2 -0.1,-0.3 -0.3,-0.3 h -0.6 v 0.6 h 0.6 c 0.1,0 0.1,0 0.2,-0.1 0.1,0 0.1,-0.1 0.1,-0.2 z m 2.6,-0.6 -0.7,2.1 H 777 l -0.7,-2.1 h 0.4 l 0.5,1.6 0.5,-1.6 z m 1.9,2.1 h -1.6 v -2.1 h 1.5 v 0.4 h -1.1 v 0.5 h 1 v 0.4 h -1 v 0.6 h 1.2 z m 2.3,-1.1 c 0,0.3 -0.1,0.6 -0.2,0.8 -0.2,0.2 -0.3,0.3 -0.5,0.3 h -1 v -2.1 h 1 c 0.2,0 0.3,0.1 0.5,0.2 0.1,0.2 0.2,0.5 0.2,0.8 z m -0.5,0 c 0,-0.2 0,-0.3 -0.1,-0.5 -0.1,-0.1 -0.2,-0.2 -0.3,-0.2 h -0.5 v 1.4 h 0.4 c 0.1,0 0.3,-0.1 0.3,-0.2 0.2,-0.1 0.2,-0.2 0.2,-0.5 z m 4,0.5 c 0,0.2 -0.1,0.4 -0.2,0.5 -0.1,0.1 -0.3,0.2 -0.5,0.2 -0.2,0 -0.4,-0.1 -0.5,-0.2 -0.1,-0.1 -0.2,-0.3 -0.2,-0.4 h 0.4 c 0,0.1 0,0.2 0.1,0.2 0,0 0.1,0.1 0.2,0.1 0.1,0 0.2,0 0.2,-0.1 0.1,-0.1 0.1,-0.2 0.1,-0.3 0,-0.3 -0.1,-0.4 -0.3,-0.4 -0.1,0 -0.2,0.1 -0.3,0.2 h -0.4 l 0.2,-1.2 h 1.1 v 0.4 h -0.8 l -0.1,0.4 c 0.1,0 0.1,-0.1 0.2,-0.1 h 0.2 c 0.2,0 0.3,0.1 0.4,0.2 0.1,0.1 0.2,0.2 0.2,0.5 z m 1.7,-0.9 v 0.3 c 0,0 -0.1,0.1 -0.1,0.2 l -0.2,0.2 c -0.1,0.1 -0.2,0.1 -0.3,0.2 -0.1,0.1 -0.2,0.1 -0.2,0.2 h 0.9 v 0.4 h -1.4 c 0,-0.3 0.1,-0.5 0.2,-0.6 l 0.5,-0.4 c 0.2,-0.1 0.3,-0.3 0.3,-0.5 0,-0.1 0,-0.2 -0.1,-0.2 -0.1,-0.1 -0.1,-0.1 -0.2,-0.1 -0.2,0 -0.3,0.1 -0.3,0.4 h -0.4 c 0,-0.3 0.1,-0.4 0.2,-0.6 0.1,-0.1 0.3,-0.2 0.5,-0.2 0.2,0 0.4,0.1 0.5,0.2 0,0.2 0.1,0.4 0.1,0.5 z m 1.7,0.5 c 0,0.3 0,0.6 -0.1,0.7 -0.1,0.2 -0.3,0.4 -0.6,0.4 -0.3,0 -0.5,-0.1 -0.6,-0.4 -0.1,-0.2 -0.1,-0.4 -0.1,-0.7 0,-0.3 0,-0.6 0.1,-0.7 0.1,-0.2 0.3,-0.4 0.6,-0.4 0.3,0 0.5,0.1 0.6,0.4 0.1,0.1 0.1,0.4 0.1,0.7 z m -0.4,0 v -0.5 c 0,-0.1 -0.1,-0.2 -0.3,-0.2 -0.1,0 -0.2,0.1 -0.3,0.2 v 1 c 0,0.1 0.1,0.2 0.3,0.2 0.1,0 0.2,-0.1 0.3,-0.2 z m 1.8,1 h -0.4 v -1.4 h -0.5 v -0.3 c 0.2,0 0.3,-0.1 0.4,-0.1 0.1,-0.1 0.2,-0.1 0.2,-0.3 h 0.3 z"
         id="path404"
         inkscape:connector-curvature="0" />
    </g>
    <path
       d="m 711.5,336 h 84 v 61.6 h -84 z"
       id="path408"
       inkscape:connector-curvature="0"
       style="fill:#a2a7aa" />
  </g>
</svg>
