<?xml version="1.0" encoding="UTF-8" standalone="no"?>
<svg
   xmlns:dc="http://purl.org/dc/elements/1.1/"
   xmlns:cc="http://creativecommons.org/ns#"
   xmlns:rdf="http://www.w3.org/1999/02/22-rdf-syntax-ns#"
   xmlns:svg="http://www.w3.org/2000/svg"
   xmlns="http://www.w3.org/2000/svg"
   xmlns:sodipodi="http://sodipodi.sourceforge.net/DTD/sodipodi-0.dtd"
   xmlns:inkscape="http://www.inkscape.org/namespaces/inkscape"
   viewBox="0 0 26.518999 67.813"
   version="1.1"
   id="svg224"
   sodipodi:docname="controller.svg"
   width="26.518999"
   height="67.813004"
   inkscape:version="0.92.4 5da689c313, 2019-01-14">
  <metadata
     id="metadata230">
    <rdf:RDF>
      <cc:Work
         rdf:about="">
        <dc:format>image/svg+xml</dc:format>
        <dc:type
           rdf:resource="http://purl.org/dc/dcmitype/StillImage" />
      </cc:Work>
    </rdf:RDF>
  </metadata>
  <defs
     id="defs228" />
  <sodipodi:namedview
     pagecolor="#ffffff"
     bordercolor="#666666"
     borderopacity="1"
     objecttolerance="10"
     gridtolerance="10"
     guidetolerance="10"
     inkscape:pageopacity="0"
     inkscape:pageshadow="2"
     inkscape:window-width="640"
     inkscape:window-height="480"
     id="namedview226"
     showgrid="false"
     inkscape:zoom="3.4801585"
     inkscape:cx="13.259"
     inkscape:cy="33.906498"
     inkscape:window-x="0"
     inkscape:window-y="0"
     inkscape:window-maximized="0"
     inkscape:current-layer="svg224">
    <inkscape:grid
       type="xygrid"
       id="grid1037"
       originx="0"
       originy="-3.5400389e-06" />
  </sodipodi:namedview>
  <path
     d="m 25.696,34.625 -1,32.978 a 0.209,0.209 0 0 1 -0.209,0.209 H 2.03 A 0.209,0.209 0 0 1 1.821,67.603 l -1,-32.978 V 0.191 C 0.821,0.086 0.906,0 1.012,0 h 24.493 c 0.106,0 0.191,0.086 0.191,0.191 z"
     id="path2"
     inkscape:connector-curvature="0"
     style="fill:#131413" />
  <linearGradient
     id="a"
     gradientUnits="userSpaceOnUse"
     x1="1.153"
     y1="32.563"
     x2="25.382999"
     y2="32.563">
    <stop
       offset="0"
       stop-color="#5d5b69"
       id="stop4" />
    <stop
       offset=".006"
       stop-color="#76757a"
       id="stop6" />
    <stop
       offset=".01"
       stop-color="#818182"
       id="stop8" />
    <stop
       offset=".011"
       stop-color="#7d7c7e"
       id="stop10" />
    <stop
       offset=".023"
       stop-color="#615e61"
       id="stop12" />
    <stop
       offset=".033"
       stop-color="#504c4f"
       id="stop14" />
    <stop
       offset=".04"
       stop-color="#4a4549"
       id="stop16" />
    <stop
       offset=".5"
       stop-color="#514d50"
       id="stop18" />
    <stop
       offset=".96"
       stop-color="#504c4f"
       id="stop20" />
    <stop
       offset=".968"
       stop-color="#585557"
       id="stop22" />
    <stop
       offset=".981"
       stop-color="#6e6c6e"
       id="stop24" />
    <stop
       offset=".99"
       stop-color="#818182"
       id="stop26" />
    <stop
       offset="1"
       stop-color="#5d5b69"
       id="stop28" />
  </linearGradient>
  <path
     d="M 25.198,30.5 H 1.338 a 0.185,0.185 0 0 0 -0.185,0.185 v 3.754 c 0,0.102 0.083,0.185 0.185,0.185 h 23.86 a 0.185,0.185 0 0 0 0.185,-0.185 V 30.685 A 0.185,0.185 0 0 0 25.198,30.5 Z"
     id="path31"
     inkscape:connector-curvature="0"
     style="fill:url(#a)" />
  <path
     d="M 24.452,35.458 H 2.064 l 0.9,30.501 a 0.19,0.19 0 0 0 0.188,0.193 H 5.776 V 65.61 c 0,-0.039 0.03,-0.07 0.067,-0.07 h 1.82 c 0.037,0 0.067,0.031 0.067,0.07 v 0.542 H 18.787 V 65.61 c 0,-0.039 0.03,-0.07 0.067,-0.07 h 1.82 c 0.037,0 0.067,0.031 0.067,0.07 v 0.542 h 2.624 a 0.19,0.19 0 0 0 0.188,-0.193 z"
     id="path33"
     inkscape:connector-curvature="0"
     style="fill:#161413" />
  <path
     d="m 24.472,35.458 -1.089,0.625 h -4.574 v 0.386 H 15.84 v -0.386 h -5.144 v 0.386 H 7.727 V 36.083 H 3.153 L 2.064,35.458 h 22.388 z"
     id="path35"
     inkscape:connector-curvature="0"
     style="fill:#0c0c0c" />
  <linearGradient
     id="b"
     gradientUnits="userSpaceOnUse"
     x1="2.608"
     y1="66.153"
     x2="2.608"
     y2="35.458">
    <stop
       offset="0"
       stop-color="#131413"
       id="stop37" />
    <stop
       offset=".5"
       stop-color="#1f1e1f"
       id="stop39" />
    <stop
       offset="1"
       stop-color="#232223"
       id="stop41" />
  </linearGradient>
  <path
     d="M 3.153,66.153 A 0.19,0.19 0 0 1 2.965,65.96 l -0.9,-30.501 1.088,0.625 z"
     id="path44"
     inkscape:connector-curvature="0"
     style="fill:url(#b)" />
  <linearGradient
     id="c"
     gradientUnits="userSpaceOnUse"
     x1="23.908001"
     y1="66.153"
     x2="23.908001"
     y2="35.458">
    <stop
       offset="0"
       stop-color="#131413"
       id="stop46" />
    <stop
       offset=".5"
       stop-color="#1f1e1f"
       id="stop48" />
    <stop
       offset="1"
       stop-color="#232223"
       id="stop50" />
  </linearGradient>
  <path
     d="m 23.364,66.153 a 0.19,0.19 0 0 0 0.188,-0.193 l 0.9,-30.501 -1.088,0.625 z"
     id="path53"
     inkscape:connector-curvature="0"
     style="fill:url(#c)" />
  <path
     d="M 0.821,9.75 V 3.5 H 0.28 C 0.126,3.5 0,3.595 0,3.712 V 9.538 C 0,9.655 0.126,9.75 0.28,9.75 Z m 24.877,0 V 3.5 h 0.541 c 0.154,0 0.28,0.095 0.28,0.212 v 5.826 c 0,0.116 -0.126,0.212 -0.28,0.212 z"
     id="path55"
     inkscape:connector-curvature="0"
     style="fill:#bd4c46" />
  <path
     d="M 23.364,66.153 H 20.74 v -0.542 c 0,-0.039 -0.03,-0.07 -0.067,-0.07 h -1.82 a 0.068,0.068 0 0 0 -0.067,0.07 v 0.542 H 7.729 v -0.542 c 0,-0.039 -0.03,-0.07 -0.067,-0.07 h -1.82 a 0.068,0.068 0 0 0 -0.067,0.07 v 0.542 H 3.153 l -1.123,1.66 h 22.457 z"
     id="path57"
     inkscape:connector-curvature="0"
     style="fill:#111111" />
  <path
     d="M 16.987,67.813 H 9.008 v -2.68 c 0,-0.395 0.32,-0.716 0.716,-0.716 h 6.548 c 0.395,0 0.716,0.32 0.716,0.716 v 2.68 z"
     id="path59"
     inkscape:connector-curvature="0"
     style="fill:#191819" />
  <g
     stroke-miterlimit="10"
     id="g63"
     style="fill:#514f51;stroke:#727172;stroke-width:0.05;stroke-miterlimit:10">
    <path
       d="m 9.437,31.024 a 0.244,0.244 0 0 1 0.324,-0.03 c 0.038,0.03 0.064,0.07 0.078,0.114 l 0.514,1.641 H 10.05 L 9.909,32.296 H 9.323 L 9.181,32.749 H 8.879 l 0.489,-1.565 c 0.019,-0.054 0.026,-0.115 0.069,-0.16 m 0.178,0.336 -0.213,0.68 h 0.426 z m 1.952,-0.324 a 0.24,0.24 0 0 1 0.244,-0.083 0.23,0.23 0 0 1 0.167,0.157 l 0.514,1.64 H 12.188 L 12.047,32.297 H 11.462 L 11.321,32.75 H 11.02 l 0.491,-1.573 c 0.016,-0.048 0.022,-0.1 0.056,-0.141 m -0.025,1.004 h 0.424 l -0.212,-0.682 z m -1.415,-1.09 h 1.097 v 0.275 H 10.82 v 1.525 h -0.289 v -1.525 h -0.404 z m 2.686,0.011 A 0.254,0.254 0 0 1 12.9,30.95 h 0.346 a 0.54,0.54 0 0 1 0.464,0.277 0.565,0.565 0 0 1 0.05,0.343 0.46,0.46 0 0 1 -0.165,0.322 c -0.053,0.044 -0.119,0.07 -0.175,0.109 -0.031,0.022 -0.033,0.065 -0.017,0.095 0.153,0.219 0.312,0.435 0.468,0.653 h -0.343 l -0.447,-0.627 a 0.215,0.215 0 0 1 -0.029,-0.206 0.203,0.203 0 0 1 0.124,-0.11 0.508,0.508 0 0 0 0.265,-0.186 0.284,0.284 0 0 0 0.022,-0.228 0.237,0.237 0 0 0 -0.233,-0.171 h -0.224 c -0.034,-0.001 -0.066,0.027 -0.065,0.058 v 1.469 H 12.65 v -1.581 c -0.002,-0.091 0.068,-0.178 0.163,-0.206 z m 1.21,-0.011 h 0.307 v 1.8 h -0.307 z"
       id="path61"
       inkscape:connector-curvature="0" />
  </g>
  <path
     stroke-miterlimit="10"
     d="m 5.483,31 v 0.257 a 5.471,5.471 0 0 1 -0.066,0.756 1.994,1.994 0 0 1 -0.176,0.575 1.575,1.575 0 0 1 -0.754,0.745 c -0.14,0.066 -0.291,0.116 -0.448,0.137 v 0.434 c 0.13,-0.016 0.258,-0.046 0.383,-0.084 0.22,-0.068 0.429,-0.168 0.604,-0.306 0.196,-0.149 0.37,-0.326 0.481,-0.535 0.068,-0.13 0.123,-0.266 0.149,-0.408 A 4.82,4.82 0 0 0 5.72,31.949 C 5.727,31.805 5.731,31.661 5.73,31.517 V 30.999 L 5.483,31 m 0.345,0.001 v 1.979 c 10e-4,0.309 -0.001,0.618 10e-4,0.926 H 6.281 V 31.001 H 5.828 M 6.382,31 v 0.476 c -0.002,0.281 0.009,0.561 0.037,0.841 0.015,0.129 0.031,0.259 0.069,0.385 0.041,0.125 0.094,0.248 0.166,0.361 0.092,0.146 0.215,0.275 0.352,0.388 0.083,0.069 0.17,0.134 0.265,0.189 a 2.198,2.198 0 0 0 0.8,0.264 V 33.47 A 1.63,1.63 0 0 1 7.269,33.104 1.624,1.624 0 0 1 6.854,32.554 2.278,2.278 0 0 1 6.675,31.884 6.214,6.214 0 0 1 6.626,31 H 6.382 m 12.236,1.635 v 0.201 H 17.48 V 32.66 l 0.771,-0.77 c 0.072,-0.089 0.156,-0.199 0.156,-0.315 a 0.347,0.347 0 0 0 -0.346,-0.336 0.344,0.344 0 0 0 -0.339,0.322 h -0.22 c 0.035,-0.313 0.238,-0.523 0.558,-0.523 0.299,0 0.556,0.222 0.556,0.528 a 0.58,0.58 0 0 1 -0.131,0.362 l -0.693,0.708 z m 1.095,-1.598 a 0.92,0.92 0 0 0 -0.915,0.922 c 0,0.504 0.41,0.915 0.915,0.915 0.519,0 0.926,-0.403 0.926,-0.918 0,-0.515 -0.407,-0.919 -0.926,-0.919 z m 0.71,0.922 c 0,0.398 -0.317,0.71 -0.721,0.71 a 0.7,0.7 0 0 1 -0.687,-0.71 c 0,-0.395 0.308,-0.717 0.687,-0.717 0.411,0 0.721,0.308 0.721,0.717 z m 1.325,-0.922 a 0.92,0.92 0 0 0 -0.915,0.922 c 0,0.504 0.41,0.915 0.915,0.915 0.519,0 0.926,-0.403 0.926,-0.918 0,-0.515 -0.407,-0.919 -0.926,-0.919 z m 0.709,0.922 c 0,0.398 -0.317,0.71 -0.721,0.71 a 0.7,0.7 0 0 1 -0.687,-0.71 c 0,-0.395 0.308,-0.717 0.687,-0.717 0.412,0 0.721,0.308 0.721,0.717 z m -6.477,0.512 0.168,-0.076 c 0.104,0.201 0.253,0.302 0.45,0.302 0.14,0 0.251,-0.047 0.335,-0.141 a 0.472,0.472 0 0 0 0.125,-0.326 0.403,0.403 0 0 0 -0.111,-0.288 0.373,0.373 0 0 0 -0.283,-0.117 c -0.154,0 -0.202,0.025 -0.335,0.159 l -0.184,-0.056 0.164,-0.829 h 0.797 l 0.016,0.184 h -0.678 l -0.078,0.402 c 0.127,-0.025 0.18,-0.024 0.336,-0.024 0.153,0 0.285,0.053 0.397,0.16 a 0.536,0.536 0 0 1 0.168,0.407 0.642,0.642 0 0 1 -0.668,0.642 c -0.141,0 -0.267,-0.036 -0.377,-0.107 -0.11,-0.071 -0.191,-0.17 -0.242,-0.292 z"
     id="path65"
     inkscape:connector-curvature="0"
     style="fill:#514f51;stroke:#727172;stroke-width:0.05;stroke-miterlimit:10" />
  <linearGradient
     id="d"
     gradientUnits="userSpaceOnUse"
     x1="8.8780003"
     y1="33.709999"
     x2="22.674"
     y2="33.709999">
    <stop
       offset=".016"
       stop-color="#fcdc05"
       id="stop67" />
    <stop
       offset=".025"
       stop-color="#f9bf0d"
       id="stop69" />
    <stop
       offset=".039"
       stop-color="#f59917"
       id="stop71" />
    <stop
       offset=".053"
       stop-color="#f27e1e"
       id="stop73" />
    <stop
       offset=".064"
       stop-color="#f16e22"
       id="stop75" />
    <stop
       offset=".073"
       stop-color="#f06824"
       id="stop77" />
    <stop
       offset=".078"
       stop-color="#ef5f25"
       id="stop79" />
    <stop
       offset=".093"
       stop-color="#ed4926"
       id="stop81" />
    <stop
       offset=".111"
       stop-color="#eb3827"
       id="stop83" />
    <stop
       offset=".134"
       stop-color="#ea2d28"
       id="stop85" />
    <stop
       offset=".165"
       stop-color="#e92629"
       id="stop87" />
    <stop
       offset=".252"
       stop-color="#e92429"
       id="stop89" />
    <stop
       offset=".255"
       stop-color="#e5242b"
       id="stop91" />
    <stop
       offset=".295"
       stop-color="#b42b45"
       id="stop93" />
    <stop
       offset=".336"
       stop-color="#89305c"
       id="stop95" />
    <stop
       offset=".377"
       stop-color="#66346e"
       id="stop97" />
    <stop
       offset=".419"
       stop-color="#4b387d"
       id="stop99" />
    <stop
       offset=".461"
       stop-color="#383a87"
       id="stop101" />
    <stop
       offset=".504"
       stop-color="#2d3c8d"
       id="stop103" />
    <stop
       offset=".55"
       stop-color="#293c8f"
       id="stop105" />
    <stop
       offset=".588"
       stop-color="#294092"
       id="stop107" />
    <stop
       offset=".623"
       stop-color="#294b9a"
       id="stop109" />
    <stop
       offset=".657"
       stop-color="#285ea8"
       id="stop111" />
    <stop
       offset=".69"
       stop-color="#2878bc"
       id="stop113" />
    <stop
       offset=".723"
       stop-color="#279ad5"
       id="stop115" />
    <stop
       offset=".734"
       stop-color="#27a7df"
       id="stop117" />
    <stop
       offset=".736"
       stop-color="#25a7d9"
       id="stop119" />
    <stop
       offset=".748"
       stop-color="#1ba5b3"
       id="stop121" />
    <stop
       offset=".761"
       stop-color="#13a493"
       id="stop123" />
    <stop
       offset=".775"
       stop-color="#0ca379"
       id="stop125" />
    <stop
       offset=".79"
       stop-color="#07a264"
       id="stop127" />
    <stop
       offset=".807"
       stop-color="#03a156"
       id="stop129" />
    <stop
       offset=".828"
       stop-color="#01a14e"
       id="stop131" />
    <stop
       offset=".863"
       stop-color="#00a14b"
       id="stop133" />
    <stop
       offset="1"
       stop-color="#89be6a"
       id="stop135" />
  </linearGradient>
  <path
     stroke-miterlimit="10"
     d="M 22.587,34.15 H 8.965 A 0.087,0.087 0 0 1 8.878,34.063 v -0.706 c 0,-0.048 0.039,-0.087 0.087,-0.087 h 13.622 c 0.048,0 0.087,0.039 0.087,0.087 v 0.706 a 0.087,0.087 0 0 1 -0.087,0.087 z"
     id="path138"
     inkscape:connector-curvature="0"
     style="fill:url(#d);stroke:#727172;stroke-width:0.1;stroke-miterlimit:10" />
  <path
     d="M 24.461,3.936 V 7.001 A 0.071,0.071 0 0 1 24.39,7.072 H 2.125 A 0.071,0.071 0 0 1 2.054,7.001 V 0.852 c 0,-0.039 0.032,-0.071 0.071,-0.071 H 24.39 c 0.039,0 0.071,0.032 0.071,0.071 v 3.074"
     id="path140"
     inkscape:connector-curvature="0"
     style="fill:#181818" />
  <path
     d="M 24.386,0.781 23.513,1.5 H 3.003 L 2.13,0.781 Z M 2.133,7.052 3.006,6.333 h 20.51 l 0.873,0.719 z"
     id="path142"
     inkscape:connector-curvature="0"
     style="fill:#262827" />
  <path
     d="M 2.906,6.245 V 1.607 c 0,-0.054 0.044,-0.098 0.098,-0.098 h 20.51 c 0.054,0 0.098,0.044 0.098,0.098 V 6.245 A 0.098,0.098 0 0 1 23.514,6.343 H 3.003 A 0.097,0.097 0 0 1 2.906,6.245 Z"
     id="path144"
     inkscape:connector-curvature="0"
     style="fill:#111111" />
  <g
     id="g148"
     style="fill:#161615">
    <path
       d="M 9.63,1.51 H 9.984 V 6.343 H 9.63 Z m 6.901,0 h 0.354 v 4.833 h -0.354 z"
       id="path146"
       inkscape:connector-curvature="0" />
  </g>
  <g
     id="g152"
     style="fill:#161615">
    <path
       d="M 9.63,1.51 8.512,2.313 H 4.201 L 3.003,1.51 Z m 0,4.833 L 8.512,5.521 H 4.201 L 3.003,6.343 Z m 7.256,-4.833 1.118,0.803 h 4.311 L 23.512,1.51 Z m 0,4.833 1.118,-0.822 h 4.311 l 1.197,0.822 z M 9.984,1.51 11.102,2.313 h 4.311 L 16.531,1.51 Z m 0,4.833 1.118,-0.822 h 4.311 l 1.118,0.822 z"
       id="path150"
       inkscape:connector-curvature="0" />
  </g>
  <path
     stroke-miterlimit="10"
     d="M 22.315,5.53 H 18.004 A 0.294,0.294 0 0 1 17.711,5.237 V 2.615 c 0,-0.161 0.132,-0.293 0.293,-0.293 h 4.311 c 0.161,0 0.293,0.132 0.293,0.293 V 5.238 A 0.293,0.293 0 0 1 22.315,5.53 Z"
     id="path154"
     inkscape:connector-curvature="0"
     style="fill:#0f0f0f;stroke:#000000;stroke-width:0.15000001;stroke-miterlimit:10" />
  <g
     id="g158"
     style="fill:#973e3a">
    <path
       d="M 18.552,4.425 H 18.311 V 3.776 c 0,-0.108 0.031,-0.193 0.093,-0.255 a 0.35,0.35 0 0 1 0.258,-0.093 0.36,0.36 0 0 1 0.244,0.084 0.268,0.268 0 0 1 0.097,0.21 0.243,0.243 0 0 1 -0.115,0.209 0.18,0.18 0 0 1 0.1,0.074 c 0.02,0.032 0.03,0.08 0.03,0.143 V 4.426 H 18.777 V 4.198 C 18.777,4.145 18.77,4.11 18.757,4.092 18.737,4.065 18.706,4.051 18.662,4.051 h -0.056 v -0.19 h 0.042 c 0.039,0 0.07,-0.01 0.092,-0.029 0.022,-0.019 0.034,-0.046 0.034,-0.079 0,-0.031 -0.011,-0.056 -0.031,-0.077 -0.02,-0.021 -0.046,-0.031 -0.076,-0.031 -0.053,0 -0.088,0.026 -0.106,0.078 A 0.383,0.383 0 0 0 18.552,3.822 Z M 19.78,4.219 V 4.425 H 19.641 A 0.47,0.47 0 0 1 19.265,4.269 0.491,0.491 0 0 1 19.137,3.939 0.484,0.484 0 0 1 19.625,3.447 h 0.155 v 0.206 h -0.093 c -0.153,0 -0.246,0.063 -0.278,0.189 h 0.371 v 0.186 h -0.371 a 0.232,0.232 0 0 0 0.083,0.137 0.291,0.291 0 0 0 0.187,0.054 z m 0.129,0.206 v -0.22 h 0.244 c 0.061,0 0.1,-0.001 0.118,-0.004 0.035,-0.006 0.052,-0.02 0.052,-0.042 0,-0.021 -0.031,-0.053 -0.093,-0.097 L 20.022,3.915 A 0.257,0.257 0 0 1 19.904,3.697 c 0,-0.081 0.029,-0.142 0.088,-0.185 a 0.413,0.413 0 0 1 0.249,-0.065 h 0.278 v 0.219 h -0.208 a 0.48,0.48 0 0 0 -0.119,0.009 c -0.026,0.008 -0.039,0.021 -0.039,0.038 0,0.012 0.004,0.022 0.014,0.03 0.009,0.008 0.033,0.026 0.073,0.054 l 0.229,0.157 a 0.214,0.214 0 0 1 0.102,0.187 0.296,0.296 0 0 1 -0.043,0.155 c -0.029,0.047 -0.068,0.08 -0.116,0.1 -0.048,0.02 -0.115,0.029 -0.199,0.029 z M 21.293,4.219 V 4.425 H 21.154 A 0.47,0.47 0 0 1 20.778,4.269 0.491,0.491 0 0 1 20.65,3.939 0.484,0.484 0 0 1 21.138,3.447 h 0.155 V 3.653 H 21.2 c -0.153,0 -0.246,0.063 -0.278,0.189 h 0.371 v 0.186 h -0.371 a 0.232,0.232 0 0 0 0.083,0.137 0.291,0.291 0 0 0 0.187,0.054 z m 0.518,0.206 H 21.57 V 3.666 H 21.371 V 3.447 h 0.638 v 0.219 h -0.198 z"
       id="path156"
       inkscape:connector-curvature="0" />
  </g>
  <path
     stroke-miterlimit="10"
     d="M 8.512,5.521 H 4.201 A 0.294,0.294 0 0 1 3.908,5.228 V 2.605 c 0,-0.161 0.132,-0.293 0.293,-0.293 h 4.311 c 0.161,0 0.293,0.132 0.293,0.293 V 5.228 A 0.295,0.295 0 0 1 8.512,5.521 Z"
     id="path160"
     inkscape:connector-curvature="0"
     style="fill:#0f0f0f;stroke:#000000;stroke-width:0.15000001;stroke-miterlimit:10" />
  <g
     id="g164"
     style="fill:#1e6547">
    <path
       d="M 4.474,4.415 V 4.196 h 0.244 c 0.061,0 0.1,-10e-4 0.118,-0.004 C 4.871,4.186 4.888,4.172 4.888,4.15 4.888,4.129 4.857,4.097 4.795,4.053 L 4.588,3.905 A 0.257,0.257 0 0 1 4.47,3.687 C 4.47,3.606 4.499,3.545 4.558,3.502 A 0.413,0.413 0 0 1 4.807,3.437 H 5.085 V 3.656 H 4.876 A 0.48,0.48 0 0 0 4.757,3.665 C 4.731,3.673 4.719,3.686 4.719,3.703 c 0,0.012 0.004,0.022 0.014,0.03 A 0.484,0.484 0 0 0 4.806,3.787 L 5.035,3.944 A 0.214,0.214 0 0 1 5.137,4.131 0.296,0.296 0 0 1 5.094,4.286 C 5.065,4.333 5.026,4.366 4.978,4.386 4.93,4.406 4.862,4.415 4.778,4.415 Z m 1.148,0 H 5.381 V 3.656 H 5.182 V 3.437 H 5.82 V 3.656 H 5.622 Z m 1.009,0 H 6.39 V 4.069 H 6.195 V 3.871 H 6.39 V 3.798 C 6.39,3.75 6.383,3.715 6.368,3.695 A 0.11,0.11 0 0 0 6.273,3.646 C 6.226,3.646 6.191,3.663 6.17,3.697 A 0.204,0.204 0 0 0 6.15,3.796 V 4.415 H 5.909 V 3.8 c 0,-0.11 0.029,-0.199 0.086,-0.266 A 0.341,0.341 0 0 1 6.269,3.418 c 0.123,0 0.218,0.045 0.288,0.135 A 0.411,0.411 0 0 1 6.631,3.81 Z m 0.426,0 H 6.816 V 3.767 c 0,-0.108 0.031,-0.193 0.093,-0.255 a 0.35,0.35 0 0 1 0.258,-0.093 0.36,0.36 0 0 1 0.244,0.084 0.268,0.268 0 0 1 0.097,0.21 0.243,0.243 0 0 1 -0.115,0.209 0.18,0.18 0 0 1 0.1,0.074 c 0.02,0.032 0.03,0.08 0.03,0.143 V 4.417 H 7.283 V 4.189 C 7.283,4.136 7.276,4.101 7.263,4.083 7.243,4.056 7.212,4.042 7.168,4.042 H 7.112 v -0.19 h 0.042 c 0.039,0 0.07,-0.01 0.092,-0.029 C 7.268,3.804 7.28,3.777 7.28,3.743 7.28,3.712 7.269,3.687 7.249,3.666 7.229,3.645 7.202,3.636 7.172,3.636 7.119,3.636 7.084,3.662 7.066,3.714 A 0.369,0.369 0 0 0 7.057,3.812 Z m 0.987,0 H 7.803 V 3.656 H 7.604 V 3.437 H 8.242 V 3.656 H 8.044 Z"
       id="path162"
       inkscape:connector-curvature="0" />
  </g>
  <g
     id="g172">
    <path
       stroke-miterlimit="10"
       d="M 15.413,5.521 H 11.102 A 0.294,0.294 0 0 1 10.809,5.228 V 2.605 c 0,-0.161 0.132,-0.293 0.293,-0.293 h 4.311 c 0.161,0 0.293,0.132 0.293,0.293 v 2.623 a 0.294,0.294 0 0 1 -0.293,0.293 z"
       id="path166"
       inkscape:connector-curvature="0"
       style="fill:#0f0f0f;stroke:#000000;stroke-width:0.15000001;stroke-miterlimit:10" />
    <g
       id="g170"
       style="fill:#cfa634">
      <path
         d="M 11.514,4.406 H 11.273 V 3.791 c 0,-0.118 0.03,-0.208 0.089,-0.272 a 0.341,0.341 0 0 1 0.262,-0.11 c 0.102,0 0.187,0.033 0.256,0.099 a 0.333,0.333 0 0 1 0.103,0.248 0.333,0.333 0 0 1 -0.11,0.259 0.333,0.333 0 0 1 -0.231,0.078 H 11.564 V 3.876 h 0.065 c 0.037,0 0.067,-0.011 0.09,-0.033 0.023,-0.022 0.035,-0.051 0.035,-0.087 A 0.117,0.117 0 0 0 11.635,3.637 c -0.081,0 -0.121,0.055 -0.121,0.166 z m 1.297,0 H 12.57 V 4.06 H 12.376 V 3.862 H 12.57 V 3.788 C 12.57,3.74 12.563,3.705 12.548,3.685 A 0.108,0.108 0 0 0 12.454,3.637 c -0.047,0 -0.082,0.017 -0.103,0.051 A 0.19,0.19 0 0 0 12.33,3.787 V 4.406 H 12.089 V 3.791 c 0,-0.11 0.029,-0.199 0.086,-0.266 a 0.341,0.341 0 0 1 0.274,-0.116 c 0.123,0 0.218,0.045 0.288,0.135 a 0.411,0.411 0 0 1 0.074,0.257 z m 0.66,-0.978 h 0.241 V 4.057 A 0.356,0.356 0 0 1 13.616,4.32 0.352,0.352 0 0 1 13.351,4.424 0.353,0.353 0 0 1 13.073,4.305 0.353,0.353 0 0 1 12.992,4.064 V 3.428 h 0.241 V 4.04 c 0,0.105 0.04,0.157 0.119,0.157 A 0.106,0.106 0 0 0 13.452,4.14 0.225,0.225 0 0 0 13.47,4.036 V 3.428 Z m 0.388,0.978 v -0.22 h 0.244 c 0.061,0 0.1,-0.001 0.118,-0.004 0.035,-0.006 0.052,-0.02 0.052,-0.042 0,-0.021 -0.031,-0.053 -0.093,-0.097 L 13.972,3.896 A 0.257,0.257 0 0 1 13.854,3.678 c 0,-0.081 0.029,-0.142 0.088,-0.185 a 0.413,0.413 0 0 1 0.249,-0.065 h 0.278 v 0.219 h -0.208 a 0.48,0.48 0 0 0 -0.119,0.009 c -0.026,0.008 -0.039,0.021 -0.039,0.038 0,0.012 0.004,0.022 0.014,0.03 0.009,0.008 0.033,0.026 0.073,0.054 l 0.229,0.157 a 0.214,0.214 0 0 1 0.102,0.187 0.296,0.296 0 0 1 -0.043,0.155 c -0.029,0.047 -0.068,0.08 -0.116,0.1 -0.048,0.02 -0.115,0.029 -0.199,0.029 z M 15.243,4.2 V 4.406 H 15.104 A 0.47,0.47 0 0 1 14.728,4.25 0.491,0.491 0 0 1 14.6,3.92 0.484,0.484 0 0 1 15.088,3.428 h 0.155 V 3.634 H 15.15 c -0.153,0 -0.246,0.063 -0.278,0.189 h 0.371 v 0.186 h -0.371 a 0.232,0.232 0 0 0 0.083,0.137 0.3,0.3 0 0 0 0.188,0.054 z"
         id="path168"
         inkscape:connector-curvature="0" />
    </g>
  </g>
  <path
     d="M 25.504,0 24.386,0.781 H 2.13 L 1.012,0 Z"
     id="path174"
     inkscape:connector-curvature="0"
     style="fill:#232624" />
  <g
     id="g178"
     style="fill:#181918">
    <path
       d="M 9.994,44.211 H 4.766 A 0.083,0.083 0 0 1 4.683,44.128 V 39.94 c 0,-0.046 0.038,-0.083 0.083,-0.083 h 5.229 c 0.046,0 0.083,0.038 0.083,0.083 v 4.187 a 0.084,0.084 0 0 1 -0.084,0.084 z m 5.888,0 H 10.653 A 0.083,0.083 0 0 1 10.57,44.128 V 39.94 c 0,-0.046 0.038,-0.083 0.083,-0.083 h 5.229 c 0.046,0 0.083,0.038 0.083,0.083 v 4.187 a 0.082,0.082 0 0 1 -0.083,0.084 z m 5.888,0 H 16.541 A 0.083,0.083 0 0 1 16.458,44.128 V 39.94 c 0,-0.046 0.038,-0.083 0.083,-0.083 h 5.229 c 0.046,0 0.083,0.038 0.083,0.083 v 4.187 A 0.082,0.082 0 0 1 21.77,44.211 Z M 9.994,50.164 H 4.766 A 0.083,0.083 0 0 1 4.683,50.081 v -4.187 c 0,-0.046 0.038,-0.083 0.083,-0.083 h 5.229 c 0.046,0 0.083,0.038 0.083,0.083 v 4.187 a 0.084,0.084 0 0 1 -0.084,0.083 z m 5.888,0 H 10.653 A 0.083,0.083 0 0 1 10.57,50.081 v -4.187 c 0,-0.046 0.038,-0.083 0.083,-0.083 h 5.229 c 0.046,0 0.083,0.038 0.083,0.083 v 4.187 a 0.083,0.083 0 0 1 -0.083,0.083 z m 5.888,0 h -5.229 a 0.083,0.083 0 0 1 -0.083,-0.083 v -4.187 c 0,-0.046 0.038,-0.083 0.083,-0.083 h 5.229 c 0.046,0 0.083,0.038 0.083,0.083 v 4.187 A 0.083,0.083 0 0 1 21.77,50.164 Z M 9.994,56.117 H 4.766 A 0.083,0.083 0 0 1 4.683,56.034 v -4.187 c 0,-0.046 0.038,-0.083 0.083,-0.083 h 5.229 c 0.046,0 0.083,0.038 0.083,0.083 v 4.187 a 0.084,0.084 0 0 1 -0.084,0.083 z m 5.888,0 H 10.653 A 0.083,0.083 0 0 1 10.57,56.034 v -4.187 c 0,-0.046 0.038,-0.083 0.083,-0.083 h 5.229 c 0.046,0 0.083,0.038 0.083,0.083 v 4.187 a 0.083,0.083 0 0 1 -0.083,0.083 z m 5.888,0 h -5.229 a 0.083,0.083 0 0 1 -0.083,-0.083 v -4.187 c 0,-0.046 0.038,-0.083 0.083,-0.083 h 5.229 c 0.046,0 0.083,0.038 0.083,0.083 v 4.187 A 0.083,0.083 0 0 1 21.77,56.117 Z M 9.994,62.069 H 4.766 A 0.083,0.083 0 0 1 4.683,61.986 v -4.187 c 0,-0.046 0.038,-0.083 0.083,-0.083 h 5.229 c 0.046,0 0.083,0.038 0.083,0.083 v 4.187 a 0.084,0.084 0 0 1 -0.084,0.083 z m 5.888,0 H 10.653 A 0.083,0.083 0 0 1 10.57,61.986 v -4.187 c 0,-0.046 0.038,-0.083 0.083,-0.083 h 5.229 c 0.046,0 0.083,0.038 0.083,0.083 v 4.187 a 0.082,0.082 0 0 1 -0.083,0.083 z m 5.888,0 h -5.229 a 0.083,0.083 0 0 1 -0.083,-0.083 v -4.187 c 0,-0.046 0.038,-0.083 0.083,-0.083 h 5.229 c 0.046,0 0.083,0.038 0.083,0.083 v 4.187 a 0.082,0.082 0 0 1 -0.083,0.083 z"
       id="path176"
       inkscape:connector-curvature="0" />
  </g>
  <g
     id="g182"
     style="fill:#30302f">
    <path
       d="M 9.221,43.347 H 5.539 A 0.098,0.098 0 0 1 5.442,43.25 v -2.431 c 0,-0.053 0.044,-0.097 0.097,-0.097 H 9.22 c 0.053,0 0.097,0.044 0.097,0.097 v 2.431 a 0.096,0.096 0 0 1 -0.096,0.097 z m 5.888,0 H 11.428 A 0.098,0.098 0 0 1 11.331,43.25 v -2.431 c 0,-0.053 0.044,-0.097 0.097,-0.097 h 3.681 c 0.053,0 0.097,0.044 0.097,0.097 v 2.431 a 0.098,0.098 0 0 1 -0.097,0.097 z m 5.888,0 H 17.316 A 0.098,0.098 0 0 1 17.219,43.25 v -2.431 c 0,-0.053 0.044,-0.097 0.097,-0.097 h 3.681 c 0.053,0 0.097,0.044 0.097,0.097 v 2.431 a 0.098,0.098 0 0 1 -0.097,0.097 z M 9.227,49.299 H 5.545 A 0.098,0.098 0 0 1 5.448,49.202 v -2.431 c 0,-0.053 0.044,-0.097 0.097,-0.097 h 3.681 c 0.053,0 0.097,0.044 0.097,0.097 v 2.431 a 0.096,0.096 0 0 1 -0.096,0.097 z m 5.872,-0.02 h -3.681 a 0.098,0.098 0 0 1 -0.097,-0.097 v -2.431 c 0,-0.053 0.044,-0.097 0.097,-0.097 h 3.681 c 0.053,0 0.097,0.044 0.097,0.097 v 2.431 a 0.098,0.098 0 0 1 -0.097,0.097 z m 5.898,0.02 h -3.681 a 0.098,0.098 0 0 1 -0.097,-0.097 v -2.431 c 0,-0.053 0.044,-0.097 0.097,-0.097 h 3.681 c 0.053,0 0.097,0.044 0.097,0.097 v 2.431 a 0.097,0.097 0 0 1 -0.097,0.097 z M 9.227,55.263 H 5.545 A 0.098,0.098 0 0 1 5.448,55.166 v -2.431 c 0,-0.053 0.044,-0.097 0.097,-0.097 h 3.681 c 0.053,0 0.097,0.044 0.097,0.097 v 2.431 a 0.096,0.096 0 0 1 -0.096,0.097 z m 5.882,0 h -3.681 a 0.098,0.098 0 0 1 -0.097,-0.097 v -2.431 c 0,-0.053 0.044,-0.097 0.097,-0.097 h 3.681 c 0.053,0 0.097,0.044 0.097,0.097 v 2.431 a 0.098,0.098 0 0 1 -0.097,0.097 z m 5.874,-0.011 h -3.681 a 0.098,0.098 0 0 1 -0.097,-0.097 v -2.431 c 0,-0.053 0.044,-0.097 0.097,-0.097 h 3.681 c 0.053,0 0.097,0.044 0.097,0.097 v 2.431 a 0.097,0.097 0 0 1 -0.097,0.097 z M 9.227,61.205 H 5.545 A 0.098,0.098 0 0 1 5.448,61.108 v -2.431 c 0,-0.053 0.044,-0.097 0.097,-0.097 h 3.681 c 0.053,0 0.097,0.044 0.097,0.097 v 2.431 a 0.096,0.096 0 0 1 -0.096,0.097 z m 5.882,0 h -3.681 a 0.098,0.098 0 0 1 -0.097,-0.097 v -2.431 c 0,-0.053 0.044,-0.097 0.097,-0.097 h 3.681 c 0.053,0 0.097,0.044 0.097,0.097 v 2.431 a 0.098,0.098 0 0 1 -0.097,0.097 z m 5.888,0.001 h -3.681 a 0.098,0.098 0 0 1 -0.097,-0.097 v -2.431 c 0,-0.053 0.044,-0.097 0.097,-0.097 h 3.681 c 0.053,0 0.097,0.044 0.097,0.097 v 2.431 a 0.098,0.098 0 0 1 -0.097,0.097 z"
       id="path180"
       inkscape:connector-curvature="0" />
  </g>
  <g
     id="g186">
    <path
       d="M 7.466,42.882 V 41.684 H 7.073 v -0.172 c 0.145,-0.002 0.252,-0.029 0.322,-0.08 0.07,-0.051 0.112,-0.133 0.126,-0.246 h 0.165 v 1.695 h -0.22 z m 5.224,0 v -0.007 c 0,-0.167 0.039,-0.306 0.116,-0.417 0.078,-0.112 0.217,-0.223 0.419,-0.332 l 0.143,-0.079 c 0.086,-0.046 0.149,-0.099 0.188,-0.157 0.039,-0.058 0.059,-0.126 0.059,-0.204 a 0.277,0.277 0 0 0 -0.092,-0.216 0.353,0.353 0 0 0 -0.246,-0.082 0.3,0.3 0 0 0 -0.241,0.104 0.428,0.428 0 0 0 -0.088,0.287 v 0.02 h -0.22 v -0.034 c 0,-0.178 0.05,-0.318 0.151,-0.422 a 0.546,0.546 0 0 1 0.411,-0.155 c 0.166,0 0.299,0.046 0.402,0.138 a 0.468,0.468 0 0 1 0.153,0.364 c 0,0.116 -0.03,0.218 -0.09,0.305 a 0.74,0.74 0 0 1 -0.275,0.227 l -0.142,0.072 c -0.135,0.07 -0.232,0.134 -0.291,0.191 a 0.413,0.413 0 0 0 -0.117,0.19 h 0.914 v 0.208 H 12.69 Z m 5.877,-0.552 h 0.224 a 0.39,0.39 0 0 0 0.098,0.275 c 0.063,0.065 0.15,0.098 0.263,0.098 a 0.363,0.363 0 0 0 0.261,-0.089 0.318,0.318 0 0 0 0.095,-0.244 0.271,0.271 0 0 0 -0.094,-0.22 0.404,0.404 0 0 0 -0.264,-0.079 l -0.05,0.001 -0.069,0.004 v -0.191 l 0.05,0.002 h 0.044 c 0.109,0 0.189,-0.021 0.242,-0.064 0.053,-0.043 0.079,-0.109 0.079,-0.197 0,-0.085 -0.025,-0.151 -0.077,-0.196 -0.051,-0.046 -0.124,-0.069 -0.219,-0.069 -0.107,0 -0.189,0.03 -0.245,0.091 -0.056,0.061 -0.083,0.15 -0.083,0.268 h -0.215 v -0.017 c 0,-0.165 0.048,-0.296 0.144,-0.395 a 0.517,0.517 0 0 1 0.388,-0.146 c 0.172,0 0.306,0.04 0.4,0.119 0.095,0.08 0.142,0.191 0.142,0.334 a 0.381,0.381 0 0 1 -0.054,0.208 0.328,0.328 0 0 1 -0.16,0.131 c 0.091,0.033 0.16,0.085 0.207,0.155 0.047,0.07 0.07,0.157 0.07,0.259 a 0.494,0.494 0 0 1 -0.166,0.39 0.637,0.637 0 0 1 -0.44,0.146 0.572,0.572 0 0 1 -0.416,-0.152 0.545,0.545 0 0 1 -0.155,-0.408 z M 7.527,48.81 V 48.393 H 6.787 V 48.18 l 0.738,-1.017 h 0.22 v 1.036 h 0.24 v 0.194 H 7.745 V 48.81 Z M 6.99,48.199 h 0.537 v -0.754 z m 5.681,0.127 h 0.225 c 0.014,0.088 0.05,0.156 0.109,0.206 0.059,0.05 0.136,0.074 0.228,0.074 a 0.369,0.369 0 0 0 0.272,-0.103 0.37,0.37 0 0 0 0.103,-0.271 c 0,-0.114 -0.034,-0.206 -0.102,-0.273 -0.068,-0.067 -0.159,-0.102 -0.273,-0.102 a 0.392,0.392 0 0 0 -0.321,0.155 H 12.72 l 0.132,-0.893 h 0.9 v 0.199 h -0.737 l -0.068,0.454 a 0.403,0.403 0 0 1 0.143,-0.081 0.542,0.542 0 0 1 0.179,-0.028 0.57,0.57 0 0 1 0.417,0.154 0.54,0.54 0 0 1 0.158,0.404 c 0,0.177 -0.056,0.32 -0.167,0.43 a 0.595,0.595 0 0 1 -0.436,0.165 0.582,0.582 0 0 1 -0.395,-0.134 0.517,0.517 0 0 1 -0.175,-0.356 z m 7.062,-0.745 H 19.51 C 19.501,47.494 19.471,47.427 19.419,47.38 19.367,47.333 19.295,47.311 19.205,47.311 a 0.32,0.32 0 0 0 -0.283,0.151 c -0.065,0.101 -0.104,0.254 -0.115,0.459 a 0.453,0.453 0 0 1 0.173,-0.138 0.533,0.533 0 0 1 0.229,-0.047 c 0.159,0 0.289,0.051 0.388,0.153 0.1,0.102 0.149,0.237 0.149,0.404 0,0.167 -0.053,0.303 -0.158,0.408 -0.105,0.105 -0.243,0.157 -0.414,0.157 -0.198,0 -0.349,-0.068 -0.454,-0.205 -0.105,-0.137 -0.158,-0.333 -0.158,-0.591 0,-0.302 0.056,-0.535 0.168,-0.7 a 0.532,0.532 0 0 1 0.469,-0.248 c 0.16,0 0.287,0.041 0.379,0.122 a 0.464,0.464 0 0 1 0.155,0.345 z m -0.22,0.716 c 0,-0.11 -0.031,-0.198 -0.091,-0.263 -0.06,-0.065 -0.141,-0.098 -0.239,-0.098 a 0.345,0.345 0 0 0 -0.26,0.097 0.363,0.363 0 0 0 -0.094,0.266 c 0,0.113 0.031,0.203 0.093,0.269 0.062,0.066 0.146,0.1 0.251,0.1 a 0.317,0.317 0 0 0 0.246,-0.103 0.386,0.386 0 0 0 0.094,-0.268 z M 7.04,54.774 A 2.491,2.491 0 0 1 7.73,53.348 H 6.809 v -0.221 h 1.154 v 0.201 a 2.533,2.533 0 0 0 -0.678,1.446 z m 5.927,-0.907 A 0.38,0.38 0 0 1 12.8,53.728 0.395,0.395 0 0 1 12.744,53.513 c 0,-0.129 0.048,-0.233 0.145,-0.314 0.097,-0.081 0.223,-0.121 0.378,-0.121 0.156,0 0.282,0.04 0.378,0.121 a 0.39,0.39 0 0 1 0.144,0.314 0.402,0.402 0 0 1 -0.054,0.216 0.367,0.367 0 0 1 -0.167,0.138 0.417,0.417 0 0 1 0.209,0.16 c 0.047,0.072 0.07,0.16 0.07,0.264 a 0.498,0.498 0 0 1 -0.157,0.387 0.603,0.603 0 0 1 -0.423,0.144 0.6,0.6 0 0 1 -0.423,-0.144 0.504,0.504 0 0 1 -0.156,-0.387 c 0,-0.104 0.023,-0.192 0.07,-0.264 0.047,-0.072 0.117,-0.125 0.209,-0.16 z m -0.045,0.419 c 0,0.103 0.031,0.184 0.093,0.243 0.062,0.059 0.146,0.089 0.253,0.089 0.107,0 0.192,-0.03 0.254,-0.089 0.062,-0.059 0.093,-0.141 0.093,-0.243 0,-0.096 -0.031,-0.171 -0.092,-0.227 -0.061,-0.056 -0.146,-0.083 -0.254,-0.083 -0.107,0 -0.192,0.028 -0.253,0.083 -0.061,0.055 -0.094,0.131 -0.094,0.227 z m 0.053,-0.754 c 0,0.081 0.026,0.146 0.08,0.194 a 0.304,0.304 0 0 0 0.213,0.073 c 0.089,0 0.16,-0.024 0.213,-0.073 0.054,-0.049 0.08,-0.114 0.08,-0.194 0,-0.08 -0.026,-0.144 -0.078,-0.19 a 0.314,0.314 0 0 0 -0.215,-0.069 0.311,0.311 0 0 0 -0.214,0.069 0.238,0.238 0 0 0 -0.079,0.19 z m 5.591,0.814 h 0.223 c 0.004,0.084 0.033,0.15 0.086,0.198 0.053,0.048 0.125,0.071 0.217,0.071 0.123,0 0.217,-0.05 0.283,-0.151 0.066,-0.101 0.104,-0.254 0.115,-0.46 a 0.459,0.459 0 0 1 -0.173,0.14 0.542,0.542 0 0 1 -0.227,0.047 0.516,0.516 0 0 1 -0.388,-0.153 0.554,0.554 0 0 1 -0.149,-0.404 c 0,-0.168 0.053,-0.305 0.158,-0.409 0.105,-0.104 0.243,-0.157 0.414,-0.157 0.197,0 0.347,0.068 0.452,0.205 0.105,0.137 0.157,0.333 0.157,0.591 0,0.304 -0.056,0.538 -0.167,0.702 -0.111,0.164 -0.27,0.246 -0.476,0.246 -0.16,0 -0.287,-0.042 -0.381,-0.126 -0.094,-0.084 -0.144,-0.198 -0.144,-0.34 z m 0.22,-0.715 c 0,0.109 0.03,0.196 0.091,0.261 0.06,0.065 0.14,0.098 0.24,0.098 0.11,0 0.197,-0.032 0.26,-0.097 a 0.36,0.36 0 0 0 0.094,-0.265 0.382,0.382 0 0 0 -0.094,-0.27 0.334,0.334 0 0 0 -0.253,-0.1 0.314,0.314 0 0 0 -0.245,0.103 0.393,0.393 0 0 0 -0.093,0.27 z M 8.04,60.101 c 0.018,0.008 0.027,0.023 0.025,0.046 -0.002,0.023 -0.017,0.06 -0.047,0.11 -0.03,0.052 -0.054,0.084 -0.073,0.096 -0.019,0.012 -0.036,0.012 -0.052,0 L 7.477,60.05 7.532,60.562 c 0.004,0.02 -0.004,0.035 -0.025,0.045 -0.021,0.01 -0.061,0.016 -0.121,0.016 -0.06,0 -0.1,-0.005 -0.121,-0.016 C 7.244,60.596 7.236,60.582 7.24,60.562 L 7.295,60.05 6.881,60.353 c -0.016,0.012 -0.033,0.012 -0.053,0 C 6.808,60.341 6.784,60.31 6.754,60.257 6.724,60.206 6.709,60.17 6.708,60.147 6.707,60.124 6.716,60.109 6.734,60.101 L 7.205,59.892 6.734,59.685 C 6.716,59.676 6.707,59.66 6.708,59.637 c 10e-4,-0.023 0.016,-0.06 0.046,-0.11 0.03,-0.05 0.055,-0.082 0.074,-0.094 0.019,-0.012 0.037,-0.012 0.053,0 l 0.414,0.301 -0.055,-0.51 c -0.004,-0.021 0.004,-0.037 0.025,-0.047 0.021,-0.01 0.061,-0.016 0.121,-0.016 0.06,0 0.1,0.005 0.121,0.016 0.021,0.011 0.029,0.026 0.025,0.047 l -0.055,0.51 0.416,-0.301 c 0.016,-0.012 0.033,-0.012 0.052,0 0.019,0.012 0.043,0.043 0.073,0.096 0.03,0.049 0.045,0.085 0.047,0.108 0.002,0.023 -0.007,0.039 -0.025,0.048 l -0.471,0.207 z m 4.645,-0.207 c 0,-0.285 0.05,-0.502 0.149,-0.65 a 0.489,0.489 0 0 1 0.435,-0.223 c 0.192,0 0.337,0.074 0.435,0.221 0.098,0.147 0.147,0.365 0.147,0.652 0,0.287 -0.049,0.503 -0.147,0.65 a 0.489,0.489 0 0 1 -0.435,0.22 0.494,0.494 0 0 1 -0.435,-0.221 c -0.099,-0.147 -0.149,-0.364 -0.149,-0.649 z m 0.232,0 c 0,0.232 0.028,0.402 0.085,0.51 a 0.283,0.283 0 0 0 0.267,0.162 0.28,0.28 0 0 0 0.266,-0.16 c 0.056,-0.107 0.083,-0.277 0.083,-0.512 0,-0.235 -0.028,-0.406 -0.083,-0.513 -0.055,-0.107 -0.144,-0.16 -0.266,-0.16 a 0.283,0.283 0 0 0 -0.267,0.162 c -0.056,0.108 -0.085,0.278 -0.085,0.511 z m 6.075,-0.866 h 0.17 l -0.117,0.537 h 0.337 l 0.121,-0.537 h 0.17 l -0.115,0.537 h 0.201 v 0.173 h -0.241 l -0.066,0.311 h 0.208 v 0.174 h -0.244 l -0.115,0.537 h -0.169 l 0.114,-0.537 h -0.338 l -0.12,0.537 h -0.165 l 0.113,-0.537 h -0.185 v -0.174 h 0.219 l 0.067,-0.311 h -0.192 v -0.173 h 0.226 z m 0.02,0.71 -0.071,0.313 h 0.342 l 0.065,-0.313 z"
       id="path184"
       inkscape:connector-curvature="0"
       style="fill:#ad9a3b" />
  </g>
  <ellipse
     cx="13.258"
     cy="18.875"
     rx="10.177"
     ry="9.8129997"
     id="ellipse188"
     style="fill:#0f0f0f" />
  <ellipse
     cx="13.258"
     cy="18.240999"
     rx="8.6029997"
     ry="8.1969995"
     id="ellipse190"
     style="fill:#0a0a0a" />
  <circle
     cx="13.258"
     cy="18.469999"
     r="7.197"
     id="circle192"
     style="fill:#0f0f0f" />
  <circle
     stroke-miterlimit="10"
     cx="13.258"
     cy="13.542"
     r="2.178"
     id="circle194"
     style="fill:none;stroke:#000000;stroke-width:0.14399999;stroke-miterlimit:10" />
  <ellipse
     cx="13.268"
     cy="18.271999"
     rx="6.5139999"
     ry="5.7189999"
     id="ellipse196"
     style="fill:#080808" />
  <path
     d="m 8.204,13.778 c 0,-2.604 2.263,-4.716 5.054,-4.716 2.791,0 5.054,2.111 5.054,4.716 l 0.553,4.716 c 0,2.918 -2.51,5.284 -5.607,5.284 -3.097,0 -5.607,-2.366 -5.607,-5.284 z"
     id="path198"
     inkscape:connector-curvature="0"
     style="fill:#0c0c0c" />
  <path
     d="m 8.213,13.746 c 0,2.604 2.263,4.716 5.054,4.716 2.791,0 5.054,-2.111 5.054,-4.716 v 0.032 c 0,-2.604 -2.263,-4.716 -5.054,-4.716 -2.791,0 -5.054,2.111 -5.054,4.716"
     id="path200"
     inkscape:connector-curvature="0"
     style="fill:#161616" />
  <g
     id="g218">
    <ellipse
       stroke-miterlimit="10"
       cx="13.258"
       cy="13.626"
       rx="3.848"
       ry="3.582"
       id="ellipse202"
       style="fill:none;stroke:#0f0c0d;stroke-width:0.491;stroke-miterlimit:10" />
    <ellipse
       stroke-miterlimit="10"
       cx="13.258"
       cy="13.542"
       rx="2.652"
       ry="2.563"
       id="ellipse204"
       style="fill:none;stroke:#0f0c0d;stroke-width:0.17200001;stroke-miterlimit:10" />
    <circle
       stroke-miterlimit="10"
       cx="13.258"
       cy="13.542"
       r="1.851"
       id="circle206"
       style="fill:none;stroke:#0f0c0d;stroke-width:0.122;stroke-miterlimit:10" />
    <circle
       stroke-miterlimit="10"
       cx="13.258"
       cy="13.542"
       r="1.574"
       id="circle208"
       style="fill:none;stroke:#0f0c0d;stroke-width:0.104;stroke-miterlimit:10" />
    <path
       stroke-miterlimit="10"
       d="m 13.258,14.411 a 0.87,0.87 0 0 1 0,-1.738 0.87,0.87 0 0 1 0,1.738 z"
       id="path210"
       inkscape:connector-curvature="0"
       style="fill:none;stroke:#0f0c0d;stroke-width:0.057;stroke-miterlimit:10" />
    <g
       id="g216"
       style="fill:#0f0c0d">
      <ellipse
         cx="12.864"
         cy="13.582"
         rx="0.097999997"
         ry="0.197"
         id="ellipse212" />
      <ellipse
         cx="13.652"
         cy="13.582"
         rx="0.097999997"
         ry="0.197"
         id="ellipse214" />
    </g>
  </g>
  <g
     id="g222"
     style="fill:#0a0a0a">
    <path
       d="m 15.56,23.313 -0.443,-5.164 -0.056,-0.155 c -0.036,-0.113 -0.127,-0.191 -0.237,-0.191 -0.11,0 -0.191,0.099 -0.182,0.21 l 0.089,0.264 0.445,5.183 m 2.269,-1.452 -0.844,-4.709 -0.106,-0.126 C 16.401,17.055 16.238,17.075 16.182,17.13 a 0.197,0.197 0 0 0 -0.021,0.267 l 0.12,0.143 0.827,4.793 m 1.628,-2.706 -1.012,-3.654 -0.094,-0.059 c -0.132,-0.072 -0.294,-0.016 -0.334,0.058 -0.051,0.092 0.005,0.22 0.07,0.257 l 0.139,0.085 1.033,3.96 m -5.072,3.5 V 18.24 A 0.2,0.2 0 0 0 13.268,18.038 0.2,0.2 0 0 0 13.07,18.24 v 5.535 a 5.91,5.91 0 0 0 0.396,-10e-4 z m 5.091,-7.906 -0.124,-1.055 -0.155,-0.505 -0.109,-0.019 c -0.158,-0.031 -0.279,0.045 -0.299,0.134 -0.023,0.102 0.103,0.211 0.169,0.249 l 0.172,0.03 z m -7.597,7.445 0.443,-5.164 0.056,-0.155 c 0.036,-0.113 0.127,-0.191 0.237,-0.191 0.11,0 0.191,0.099 0.182,0.21 l -0.089,0.264 -0.445,5.183 m -2.273,-1.452 0.844,-4.709 0.106,-0.126 c 0.094,-0.118 0.257,-0.099 0.313,-0.043 a 0.197,0.197 0 0 1 0.021,0.267 l -0.12,0.143 -0.827,4.793 M 7.787,19.627 8.799,15.973 8.893,15.914 c 0.132,-0.072 0.294,-0.016 0.334,0.058 0.051,0.092 -0.005,0.22 -0.07,0.257 l -0.139,0.085 -1.033,3.96 M 7.963,15.868 8.087,14.813 8.242,14.308 8.351,14.289 c 0.158,-0.031 0.279,0.045 0.299,0.134 0.023,0.102 -0.103,0.211 -0.169,0.249 l -0.172,0.03 z m 8.331,-5.86 -0.132,0.151 a 0.195,0.195 0 0 0 0.021,0.267 c 0.056,0.056 0.219,0.075 0.313,-0.043 0,0 0.11,-0.155 0.107,-0.141 a 5.109,5.109 0 0 0 -0.309,-0.234 z m 1.23,1.235 -0.157,0.085 c -0.066,0.038 -0.121,0.166 -0.07,0.257 0.04,0.073 0.201,0.129 0.334,0.058 l 0.101,-0.062 A 5.274,5.274 0 0 0 17.524,11.243 M 13.07,9.066 V 9.3 A 0.2,0.2 0 0 0 13.268,9.502 0.2,0.2 0 0 0 13.466,9.3 V 9.066 A 4.81,4.81 0 0 0 13.067,9.065 m 5.157,3.789 -0.184,0.03 c -0.088,0.044 -0.192,0.147 -0.169,0.249 0.02,0.088 0.141,0.164 0.299,0.134 l 0.119,-0.024 A 4.64,4.64 0 0 0 18.224,12.854 Z M 14.752,9.272 c 0.131,0.037 0.245,0.076 0.372,0.122 l -0.055,0.16 c -0.036,0.113 -0.127,0.191 -0.237,0.191 -0.11,0 -0.191,-0.099 -0.182,-0.21 l 0.102,-0.263 m -4.512,0.736 0.132,0.151 a 0.195,0.195 0 0 1 -0.021,0.267 c -0.056,0.056 -0.219,0.075 -0.313,-0.043 0,0 -0.11,-0.155 -0.107,-0.141 0.102,-0.083 0.199,-0.158 0.309,-0.234 z m -1.23,1.235 0.157,0.085 c 0.066,0.038 0.121,0.166 0.07,0.257 -0.04,0.073 -0.201,0.129 -0.334,0.058 L 8.802,11.581 C 8.87,11.464 8.934,11.354 9.01,11.243 m -0.7,1.611 0.184,0.03 c 0.088,0.044 0.192,0.147 0.169,0.249 -0.02,0.088 -0.141,0.164 -0.299,0.134 L 8.245,13.243 C 8.261,13.111 8.282,12.984 8.31,12.854 Z M 11.782,9.272 A 5.216,5.216 0 0 0 11.41,9.394 l 0.055,0.16 c 0.036,0.113 0.127,0.191 0.237,0.191 0.11,0 0.191,-0.099 0.182,-0.21 L 11.782,9.272"
       id="path220"
       inkscape:connector-curvature="0" />
  </g>
</svg>
