<?xml version="1.0" encoding="UTF-8" standalone="no"?>
<svg
   xmlns:dc="http://purl.org/dc/elements/1.1/"
   xmlns:cc="http://creativecommons.org/ns#"
   xmlns:rdf="http://www.w3.org/1999/02/22-rdf-syntax-ns#"
   xmlns:svg="http://www.w3.org/2000/svg"
   xmlns="http://www.w3.org/2000/svg"
   xmlns:sodipodi="http://sodipodi.sourceforge.net/DTD/sodipodi-0.dtd"
   xmlns:inkscape="http://www.inkscape.org/namespaces/inkscape"
   id="Capa_1"
   viewBox="0 0 87.223007 82.406"
   version="1.1"
   sodipodi:docname="game.svg"
   width="87.223007"
   height="82.405998"
   inkscape:version="0.92.4 5da689c313, 2019-01-14">
  <metadata
     id="metadata284">
    <rdf:RDF>
      <cc:Work
         rdf:about="">
        <dc:format>image/svg+xml</dc:format>
        <dc:type
           rdf:resource="http://purl.org/dc/dcmitype/StillImage" />
      </cc:Work>
    </rdf:RDF>
  </metadata>
  <defs
     id="defs282" />
  <sodipodi:namedview
     pagecolor="#ffffff"
     bordercolor="#666666"
     borderopacity="1"
     objecttolerance="10"
     gridtolerance="10"
     guidetolerance="10"
     inkscape:pageopacity="0"
     inkscape:pageshadow="2"
     inkscape:window-width="640"
     inkscape:window-height="480"
     id="namedview280"
     showgrid="false"
     inkscape:zoom="2.8638692"
     inkscape:cx="43.611006"
     inkscape:cy="41.203001"
     inkscape:window-x="0"
     inkscape:window-y="0"
     inkscape:window-maximized="0"
     inkscape:current-layer="Capa_1" />
  <style
     id="style2">.st1{fill:#101615}.st2{fill:#202523}.st3{fill:#161b16}.st5{fill:#373834}.st6{fill:#262b29}.st13{fill:#1b6db7}</style>
  <path
     d="M 1.4240057,2.375 H 85.799006 v 77.75 H 1.4240057 Z"
     id="path4"
     inkscape:connector-curvature="0"
     style="fill:#252523" />
  <path
     class="st1"
     d="m 1.4240057,4.688 h 0.85 v 2.221 h -0.85 z"
     id="path6"
     inkscape:connector-curvature="0"
     style="fill:#101615" />
  <path
     class="st2"
     d="m 2.2740057,4.688 h 2.117 v 2.221 h -2.117 z"
     id="path8"
     inkscape:connector-curvature="0"
     style="fill:#202523" />
  <path
     class="st1"
     d="m 1.4240057,9.13 h 0.85 v 2.221 h -0.85 z"
     id="path10"
     inkscape:connector-curvature="0"
     style="fill:#101615" />
  <path
     class="st2"
     d="m 2.2740057,9.13 h 2.117 v 2.221 h -2.117 z"
     id="path12"
     inkscape:connector-curvature="0"
     style="fill:#202523" />
  <path
     class="st1"
     d="m 1.4240057,13.573 h 0.85 v 2.221 h -0.85 z"
     id="path14"
     inkscape:connector-curvature="0"
     style="fill:#101615" />
  <path
     class="st2"
     d="m 2.2740057,13.573 h 2.117 v 2.221 h -2.117 z"
     id="path16"
     inkscape:connector-curvature="0"
     style="fill:#202523" />
  <path
     class="st1"
     d="m 1.4240057,18.016 h 0.85 v 2.221 h -0.85 z"
     id="path18"
     inkscape:connector-curvature="0"
     style="fill:#101615" />
  <path
     class="st2"
     d="m 2.2740057,18.016 h 2.117 v 2.221 h -2.117 z"
     id="path20"
     inkscape:connector-curvature="0"
     style="fill:#202523" />
  <path
     class="st1"
     d="m 1.4240057,22.459 h 0.85 v 2.221 h -0.85 z"
     id="path22"
     inkscape:connector-curvature="0"
     style="fill:#101615" />
  <path
     class="st2"
     d="m 2.2740057,22.459 h 2.117 v 2.221 h -2.117 z"
     id="path24"
     inkscape:connector-curvature="0"
     style="fill:#202523" />
  <path
     class="st1"
     d="m 1.4240057,26.901 h 0.85 v 2.221 h -0.85 z"
     id="path26"
     inkscape:connector-curvature="0"
     style="fill:#101615" />
  <path
     class="st2"
     d="m 2.2740057,26.901 h 2.117 v 2.221 h -2.117 z"
     id="path28"
     inkscape:connector-curvature="0"
     style="fill:#202523" />
  <path
     class="st1"
     d="m 1.4240057,31.344 h 0.85 v 2.221 h -0.85 z"
     id="path30"
     inkscape:connector-curvature="0"
     style="fill:#101615" />
  <path
     class="st2"
     d="m 2.2740057,31.344 h 2.117 v 2.221 h -2.117 z"
     id="path32"
     inkscape:connector-curvature="0"
     style="fill:#202523" />
  <path
     class="st1"
     d="m 1.4240057,35.787 h 0.85 v 2.221 h -0.85 z"
     id="path34"
     inkscape:connector-curvature="0"
     style="fill:#101615" />
  <path
     class="st2"
     d="m 2.2740057,35.787 h 2.117 v 2.221 h -2.117 z"
     id="path36"
     inkscape:connector-curvature="0"
     style="fill:#202523" />
  <path
     class="st1"
     d="m 1.4240057,40.23 h 0.85 v 2.221 h -0.85 z"
     id="path38"
     inkscape:connector-curvature="0"
     style="fill:#101615" />
  <path
     class="st2"
     d="m 2.2740057,40.23 h 2.117 v 2.221 h -2.117 z"
     id="path40"
     inkscape:connector-curvature="0"
     style="fill:#202523" />
  <path
     class="st1"
     d="m 1.4240057,44.673 h 0.85 v 2.221 h -0.85 z"
     id="path42"
     inkscape:connector-curvature="0"
     style="fill:#101615" />
  <path
     class="st2"
     d="m 2.2740057,44.673 h 2.117 v 2.221 h -2.117 z"
     id="path44"
     inkscape:connector-curvature="0"
     style="fill:#202523" />
  <path
     class="st1"
     d="m 1.4240057,49.115 h 0.85 v 2.221 h -0.85 z"
     id="path46"
     inkscape:connector-curvature="0"
     style="fill:#101615" />
  <path
     class="st2"
     d="m 2.2740057,49.115 h 2.117 v 2.221 h -2.117 z"
     id="path48"
     inkscape:connector-curvature="0"
     style="fill:#202523" />
  <path
     class="st1"
     d="m 1.4240057,53.558 h 0.85 v 2.221 h -0.85 z"
     id="path50"
     inkscape:connector-curvature="0"
     style="fill:#101615" />
  <path
     class="st2"
     d="m 2.2740057,53.558 h 2.117 v 2.221 h -2.117 z"
     id="path52"
     inkscape:connector-curvature="0"
     style="fill:#202523" />
  <path
     class="st1"
     d="m 1.4240057,58.001 h 0.85 v 2.221 h -0.85 z"
     id="path54"
     inkscape:connector-curvature="0"
     style="fill:#101615" />
  <path
     class="st2"
     d="m 2.2740057,58.001 h 2.117 v 2.221 h -2.117 z"
     id="path56"
     inkscape:connector-curvature="0"
     style="fill:#202523" />
  <path
     class="st1"
     d="m 1.4240057,62.444 h 0.85 v 2.221 h -0.85 z"
     id="path58"
     inkscape:connector-curvature="0"
     style="fill:#101615" />
  <path
     class="st2"
     d="m 2.2740057,62.444 h 2.117 v 2.221 h -2.117 z"
     id="path60"
     inkscape:connector-curvature="0"
     style="fill:#202523" />
  <path
     class="st1"
     d="m 1.4240057,66.886 h 0.85 v 2.221 h -0.85 z"
     id="path62"
     inkscape:connector-curvature="0"
     style="fill:#101615" />
  <path
     class="st2"
     d="m 2.2740057,66.886 h 2.117 v 2.221 h -2.117 z"
     id="path64"
     inkscape:connector-curvature="0"
     style="fill:#202523" />
  <path
     class="st1"
     d="m 1.4240057,71.329 h 0.85 v 2.221 h -0.85 z"
     id="path66"
     inkscape:connector-curvature="0"
     style="fill:#101615" />
  <path
     class="st2"
     d="m 2.2740057,71.329 h 2.117 v 2.221 h -2.117 z"
     id="path68"
     inkscape:connector-curvature="0"
     style="fill:#202523" />
  <path
     class="st1"
     d="m 1.4240057,75.772 h 0.85 v 2.221 h -0.85 z"
     id="path70"
     inkscape:connector-curvature="0"
     style="fill:#101615" />
  <path
     class="st2"
     d="m 2.2740057,75.772 h 2.117 v 2.221 h -2.117 z"
     id="path72"
     inkscape:connector-curvature="0"
     style="fill:#202523" />
  <path
     class="st1"
     d="M 0.09400568,9.13 H 1.4240057 V 6.909 H 0.09400568 A 0.094,0.094 0 0 0 5.675222e-6,7.003 v 2.034 c 0,0.051 0.042000004778,0.093 0.094000004778,0.093 z m 0,4.443 H 1.4240057 V 11.352 H 0.09400568 A 0.094,0.094 0 0 0 5.675222e-6,11.445 v 2.034 c 0,0.052 0.042000004778,0.094 0.094000004778,0.094 z m 0,4.443 H 1.4240057 V 15.795 H 0.09400568 A 0.092,0.092 0 0 0 5.675222e-6,15.888 v 2.034 c 0,0.052 0.042000004778,0.094 0.094000004778,0.094 z m 0,4.443 H 1.4240057 V 20.238 H 0.09400568 A 0.092,0.092 0 0 0 5.675222e-6,20.331 v 2.034 c 0,0.052 0.042000004778,0.094 0.094000004778,0.094 z m 0,4.442 H 1.4240057 V 24.68 H 0.09400568 A 0.094,0.094 0 0 0 5.675222e-6,24.774 v 2.034 c 0,0.051 0.042000004778,0.093 0.094000004778,0.093 z m 0,4.443 H 1.4240057 V 29.123 H 0.09400568 A 0.094,0.094 0 0 0 5.675222e-6,29.217 v 2.034 c 0,0.051 0.042000004778,0.093 0.094000004778,0.093 z m 0,4.443 H 1.4240057 V 33.566 H 0.09400568 A 0.094,0.094 0 0 0 5.675222e-6,33.659 v 2.034 c 0,0.052 0.042000004778,0.094 0.094000004778,0.094 z m 0,4.443 H 1.4240057 V 38.009 H 0.09400568 A 0.092,0.092 0 0 0 5.675222e-6,38.102 v 2.034 c 0,0.052 0.042000004778,0.094 0.094000004778,0.094 z m 0,4.443 H 1.4240057 V 42.452 H 0.09400568 A 0.092,0.092 0 0 0 5.675222e-6,42.545 v 2.034 c 0,0.052 0.042000004778,0.094 0.094000004778,0.094 z m 0,4.442 H 1.4240057 V 46.894 H 0.09400568 A 0.094,0.094 0 0 0 5.675222e-6,46.988 v 2.034 c 0,0.051 0.042000004778,0.093 0.094000004778,0.093 z m 0,4.443 H 1.4240057 V 51.337 H 0.09400568 A 0.094,0.094 0 0 0 5.675222e-6,51.431 v 2.034 c 0,0.051 0.042000004778,0.093 0.094000004778,0.093 z m 0,4.443 H 1.4240057 V 55.78 H 0.09400568 A 0.092,0.092 0 0 0 5.675222e-6,55.873 v 2.034 c 0,0.052 0.042000004778,0.094 0.094000004778,0.094 z m 0,4.443 H 1.4240057 V 60.223 H 0.09400568 A 0.092,0.092 0 0 0 5.675222e-6,60.316 v 2.034 c 0,0.052 0.042000004778,0.094 0.094000004778,0.094 z m 0,4.442 H 1.4240057 V 64.665 H 0.09400568 A 0.094,0.094 0 0 0 5.675222e-6,64.759 v 2.034 c 0,0.051 0.042000004778,0.093 0.094000004778,0.093 z m 0,4.443 H 1.4240057 V 69.108 H 0.09400568 A 0.094,0.094 0 0 0 5.675222e-6,69.202 v 2.034 c 0,0.051 0.042000004778,0.093 0.094000004778,0.093 z m 0,4.443 H 1.4240057 V 73.551 H 0.09400568 A 0.094,0.094 0 0 0 5.675222e-6,73.644 v 2.034 c 0,0.052 0.042000004778,0.094 0.094000004778,0.094 z M 5.675222e-6,80.125 H 1.4240057 V 77.993 H 0.09200568 A 0.092,0.092 0 0 0 5.675222e-6,78.085 Z M 0.09600568,4.688 H 1.4240057 V 2.375 H 5.675222e-6 v 2.217 c 0,0.053 0.043000004778,0.096 0.096000004778,0.096 z"
     id="path74"
     inkscape:connector-curvature="0"
     style="fill:#101615" />
  <path
     class="st3"
     d="M 2.2740057,0 5.675222e-6,2.375 H 2.2740057 Z"
     id="path76"
     inkscape:connector-curvature="0"
     style="fill:#161b16" />
  <path
     class="st1"
     d="M 1.4240057,82.406 5.675222e-6,80.125 H 1.4240057 Z"
     id="path78"
     inkscape:connector-curvature="0"
     style="fill:#101615" />
  <path
     d="M 2.2740057,0 H 84.948006 V 2.375 H 2.2740057 Z"
     id="path80"
     inkscape:connector-curvature="0"
     style="fill:#141810" />
  <path
     class="st2"
     d="M 1.4240057,80.125 H 85.799006 v 2.281 H 1.4240057 Z"
     id="path82"
     inkscape:connector-curvature="0"
     style="fill:#202523" />
  <path
     class="st1"
     d="m 85.800006,6.908 h -0.85 V 4.687 h 0.85 z"
     id="path84"
     inkscape:connector-curvature="0"
     style="fill:#101615" />
  <path
     class="st2"
     d="m 84.948006,6.908 -2.117,0 V 4.687 l 2.117,0 z"
     id="path86"
     inkscape:connector-curvature="0"
     style="fill:#202523" />
  <path
     class="st1"
     d="m 85.800006,11.352 h -0.85 V 9.131 h 0.85 z"
     id="path88"
     inkscape:connector-curvature="0"
     style="fill:#101615" />
  <path
     class="st2"
     d="m 84.948006,11.352 h -2.117 V 9.131 h 2.117 z"
     id="path90"
     inkscape:connector-curvature="0"
     style="fill:#202523" />
  <path
     class="st1"
     d="m 85.800006,15.795 h -0.85 v -2.221 h 0.85 z"
     id="path92"
     inkscape:connector-curvature="0"
     style="fill:#101615" />
  <path
     class="st2"
     d="m 84.948006,15.795 h -2.117 v -2.221 h 2.117 z"
     id="path94"
     inkscape:connector-curvature="0"
     style="fill:#202523" />
  <path
     class="st1"
     d="m 85.800006,20.238 h -0.85 v -2.221 h 0.85 z"
     id="path96"
     inkscape:connector-curvature="0"
     style="fill:#101615" />
  <path
     class="st2"
     d="m 84.948006,20.238 h -2.117 v -2.221 h 2.117 z"
     id="path98"
     inkscape:connector-curvature="0"
     style="fill:#202523" />
  <path
     class="st1"
     d="m 85.800006,24.681 h -0.85 V 22.46 h 0.85 z"
     id="path100"
     inkscape:connector-curvature="0"
     style="fill:#101615" />
  <path
     class="st2"
     d="m 84.948006,24.681 h -2.117 V 22.46 h 2.117 z"
     id="path102"
     inkscape:connector-curvature="0"
     style="fill:#202523" />
  <path
     class="st1"
     d="m 85.800006,29.123 h -0.85 v -2.221 h 0.85 z"
     id="path104"
     inkscape:connector-curvature="0"
     style="fill:#101615" />
  <path
     class="st2"
     d="m 84.948006,29.123 h -2.117 v -2.221 h 2.117 z"
     id="path106"
     inkscape:connector-curvature="0"
     style="fill:#202523" />
  <path
     class="st1"
     d="m 85.800006,33.566 h -0.85 v -2.221 h 0.85 z"
     id="path108"
     inkscape:connector-curvature="0"
     style="fill:#101615" />
  <path
     class="st2"
     d="m 84.948006,33.566 h -2.117 v -2.221 h 2.117 z"
     id="path110"
     inkscape:connector-curvature="0"
     style="fill:#202523" />
  <path
     class="st1"
     d="m 85.800006,38.009 h -0.85 v -2.221 h 0.85 z"
     id="path112"
     inkscape:connector-curvature="0"
     style="fill:#101615" />
  <path
     class="st2"
     d="m 84.948006,38.009 h -2.117 v -2.221 h 2.117 z"
     id="path114"
     inkscape:connector-curvature="0"
     style="fill:#202523" />
  <path
     class="st1"
     d="m 85.800006,42.45 h -0.85 v -2.221 h 0.85 z"
     id="path116"
     inkscape:connector-curvature="0"
     style="fill:#101615" />
  <path
     class="st2"
     d="m 84.948006,42.45 h -2.117 v -2.221 h 2.117 z"
     id="path118"
     inkscape:connector-curvature="0"
     style="fill:#202523" />
  <path
     class="st1"
     d="m 85.800006,46.893 h -0.85 v -2.221 h 0.85 z"
     id="path120"
     inkscape:connector-curvature="0"
     style="fill:#101615" />
  <path
     class="st2"
     d="m 84.948006,46.893 h -2.117 v -2.221 h 2.117 z"
     id="path122"
     inkscape:connector-curvature="0"
     style="fill:#202523" />
  <path
     class="st1"
     d="m 85.800006,51.337 h -0.85 v -2.221 h 0.85 z"
     id="path124"
     inkscape:connector-curvature="0"
     style="fill:#101615" />
  <path
     class="st2"
     d="m 84.948006,51.337 h -2.117 v -2.221 h 2.117 z"
     id="path126"
     inkscape:connector-curvature="0"
     style="fill:#202523" />
  <path
     class="st1"
     d="m 85.800006,55.78 h -0.85 v -2.221 h 0.85 z"
     id="path128"
     inkscape:connector-curvature="0"
     style="fill:#101615" />
  <path
     class="st2"
     d="m 84.948006,55.78 h -2.117 v -2.221 h 2.117 z"
     id="path130"
     inkscape:connector-curvature="0"
     style="fill:#202523" />
  <path
     class="st1"
     d="m 85.800006,60.223 h -0.85 l 0,-2.221 h 0.85 z"
     id="path132"
     inkscape:connector-curvature="0"
     style="fill:#101615" />
  <path
     class="st2"
     d="m 84.948006,60.223 h -2.117 l 0,-2.221 h 2.117 z"
     id="path134"
     inkscape:connector-curvature="0"
     style="fill:#202523" />
  <path
     class="st1"
     d="m 85.800006,64.664 h -0.85 v -2.221 h 0.85 z"
     id="path136"
     inkscape:connector-curvature="0"
     style="fill:#101615" />
  <path
     class="st2"
     d="m 84.948006,64.664 h -2.117 v -2.221 h 2.117 z"
     id="path138"
     inkscape:connector-curvature="0"
     style="fill:#202523" />
  <path
     class="st1"
     d="m 85.800006,69.108 h -0.85 v -2.221 h 0.85 z"
     id="path140"
     inkscape:connector-curvature="0"
     style="fill:#101615" />
  <path
     class="st2"
     d="m 84.948006,69.108 h -2.117 v -2.221 h 2.117 z"
     id="path142"
     inkscape:connector-curvature="0"
     style="fill:#202523" />
  <g
     id="g148"
     transform="translate(5.675222e-6)">
    <path
       transform="rotate(-180,85.374,72.44)"
       class="st1"
       d="m 84.948,71.329 h 0.85 v 2.221 h -0.85 z"
       id="path144"
       inkscape:connector-curvature="0"
       style="fill:#101615" />
    <path
       transform="rotate(-180,83.89,72.44)"
       class="st2"
       d="m 82.832,71.329 h 2.117 v 2.221 h -2.117 z"
       id="path146"
       inkscape:connector-curvature="0"
       style="fill:#202523" />
  </g>
  <g
     id="g154"
     transform="translate(5.675222e-6)">
    <path
       transform="rotate(-180,85.374,76.883)"
       class="st1"
       d="m 84.948,75.772 h 0.85 v 2.221 h -0.85 z"
       id="path150"
       inkscape:connector-curvature="0"
       style="fill:#101615" />
    <path
       transform="rotate(-180,83.89,76.883)"
       class="st2"
       d="m 82.832,75.772 h 2.117 v 2.221 h -2.117 z"
       id="path152"
       inkscape:connector-curvature="0"
       style="fill:#202523" />
  </g>
  <path
     class="st1"
     d="m 87.129006,9.13 h -1.33 V 6.909 h 1.33 c 0.052,0 0.094,0.042 0.094,0.094 v 2.034 a 0.095,0.095 0 0 1 -0.094,0.093 z m 0,4.443 h -1.33 v -2.221 h 1.33 c 0.052,0 0.094,0.042 0.094,0.094 v 2.034 a 0.095,0.095 0 0 1 -0.094,0.093 z m 0,4.443 h -1.33 v -2.221 h 1.33 c 0.052,0 0.094,0.042 0.094,0.094 v 2.034 a 0.095,0.095 0 0 1 -0.094,0.093 z m 0,4.443 h -1.33 v -2.221 h 1.33 c 0.052,0 0.094,0.042 0.094,0.094 v 2.034 a 0.095,0.095 0 0 1 -0.094,0.093 z m 0,4.442 h -1.33 V 24.68 h 1.33 c 0.052,0 0.094,0.042 0.094,0.094 v 2.034 a 0.095,0.095 0 0 1 -0.094,0.093 z m 0,4.443 h -1.33 v -2.221 h 1.33 c 0.052,0 0.094,0.042 0.094,0.094 v 2.034 a 0.095,0.095 0 0 1 -0.094,0.093 z m 0,4.443 h -1.33 v -2.221 h 1.33 c 0.052,0 0.094,0.042 0.094,0.094 v 2.034 a 0.095,0.095 0 0 1 -0.094,0.093 z m 0,4.443 h -1.33 v -2.221 h 1.33 c 0.052,0 0.094,0.042 0.094,0.094 v 2.034 a 0.095,0.095 0 0 1 -0.094,0.093 z m 0,4.443 h -1.33 v -2.221 h 1.33 c 0.052,0 0.094,0.042 0.094,0.094 v 2.034 a 0.095,0.095 0 0 1 -0.094,0.093 z m 0,4.442 h -1.33 v -2.221 h 1.33 c 0.052,0 0.094,0.042 0.094,0.094 v 2.034 a 0.095,0.095 0 0 1 -0.094,0.093 z m 0,4.443 h -1.33 v -2.221 h 1.33 c 0.052,0 0.094,0.042 0.094,0.094 v 2.034 a 0.095,0.095 0 0 1 -0.094,0.093 z m 0,4.443 h -1.33 V 55.78 h 1.33 c 0.052,0 0.094,0.042 0.094,0.094 v 2.034 a 0.095,0.095 0 0 1 -0.094,0.093 z m 0,4.443 h -1.33 v -2.221 h 1.33 c 0.052,0 0.094,0.042 0.094,0.094 v 2.034 a 0.095,0.095 0 0 1 -0.094,0.093 z m 0,4.442 h -1.33 v -2.221 h 1.33 c 0.052,0 0.094,0.042 0.094,0.094 v 2.034 a 0.095,0.095 0 0 1 -0.094,0.093 z m 0,4.443 h -1.33 v -2.221 h 1.33 c 0.052,0 0.094,0.042 0.094,0.094 v 2.034 a 0.095,0.095 0 0 1 -0.094,0.093 z m 0,4.443 h -1.33 v -2.221 h 1.33 c 0.052,0 0.094,0.042 0.094,0.094 v 2.034 a 0.095,0.095 0 0 1 -0.094,0.093 z m 0.093,4.353 h -1.424 v -2.132 h 1.332 c 0.051,0 0.092,0.041 0.092,0.092 z m -0.095,-75.437 h -1.328 V 2.375 h 1.424 v 2.217 a 0.097,0.097 0 0 1 -0.096,0.096 z"
     id="path156"
     inkscape:connector-curvature="0"
     style="fill:#101615" />
  <path
     class="st3"
     d="m 84.948006,0 2.274,2.375 h -2.274 z"
     id="path158"
     inkscape:connector-curvature="0"
     style="fill:#161b16" />
  <path
     class="st1"
     d="m 85.799006,82.406 1.423,-2.281 h -1.423 z"
     id="path160"
     inkscape:connector-curvature="0"
     style="fill:#101615" />
  <g
     id="g168"
     transform="translate(5.675222e-6)">
    <path
       class="st5"
       d="m 39.645,76.124 a 0.446,0.446 0 0 1 0.593,-0.054 0.429,0.429 0 0 1 0.143,0.209 l 0.941,3.003 h -0.555 l -0.259,-0.829 h -1.073 c -0.088,0.276 -0.174,0.553 -0.26,0.829 h -0.552 l 0.895,-2.865 c 0.036,-0.1 0.05,-0.212 0.127,-0.293 m 0.327,0.613 -0.39,1.245 h 0.78 c -0.131,-0.414 -0.26,-0.829 -0.39,-1.245 z m 3.571,-0.592 a 0.441,0.441 0 0 1 0.447,-0.153 c 0.15,0.032 0.265,0.152 0.305,0.288 l 0.941,3.001 -0.556,10e-4 c -0.086,-0.276 -0.171,-0.553 -0.258,-0.829 h -1.071 c -0.085,0.276 -0.173,0.552 -0.259,0.829 h -0.551 c 0.298,-0.96 0.599,-1.92 0.899,-2.879 0.03,-0.087 0.042,-0.183 0.103,-0.258 m -0.045,1.838 h 0.777 c -0.129,-0.416 -0.26,-0.832 -0.388,-1.248 -0.13,0.416 -0.261,0.832 -0.389,1.248 z m -2.59,-1.995 h 2.008 v 0.503 h -0.739 v 2.791 h -0.53 v -2.791 h -0.739 z m 4.916,0.02 a 0.5,0.5 0 0 1 0.159,-0.021 h 0.633 a 0.988,0.988 0 0 1 0.848,0.508 c 0.106,0.193 0.117,0.417 0.091,0.628 a 0.848,0.848 0 0 1 -0.302,0.59 c -0.097,0.08 -0.217,0.129 -0.321,0.2 -0.057,0.04 -0.06,0.118 -0.03,0.174 0.28,0.401 0.571,0.796 0.857,1.194 h -0.627 c -0.274,-0.382 -0.545,-0.765 -0.817,-1.147 a 0.4,0.4 0 0 1 -0.054,-0.377 0.373,0.373 0 0 1 0.227,-0.201 c 0.191,-0.068 0.379,-0.174 0.484,-0.341 0.08,-0.125 0.076,-0.28 0.04,-0.418 a 0.432,0.432 0 0 0 -0.427,-0.312 c -0.137,0.001 -0.273,-0.001 -0.41,0.001 -0.062,-0.001 -0.12,0.049 -0.119,0.107 v 2.688 h -0.533 v -2.894 c -0.002,-0.168 0.128,-0.328 0.301,-0.379 z m 2.214,-0.02 h 0.561 v 3.294 h -0.561 z"
       id="path162"
       inkscape:connector-curvature="0"
       style="fill:#373834" />
    <g
       id="g166">
      <path
         class="st5"
         d="m 42.197,67.998 c -0.001,0.212 10e-4,0.424 -0.001,0.636 -0.016,0.626 -0.06,1.252 -0.164,1.871 -0.083,0.487 -0.206,0.974 -0.435,1.424 a 4.04,4.04 0 0 1 -0.773,1.079 c -0.311,0.309 -0.682,0.57 -1.093,0.765 -0.347,0.163 -0.72,0.286 -1.108,0.338 v 1.075 c 0.322,-0.041 0.639,-0.114 0.947,-0.209 a 4.613,4.613 0 0 0 1.494,-0.758 c 0.484,-0.368 0.915,-0.806 1.189,-1.323 0.168,-0.321 0.303,-0.659 0.369,-1.01 0.095,-0.509 0.131,-1.024 0.158,-1.539 0.016,-0.356 0.028,-0.713 0.026,-1.069 v -1.282 c -0.203,0.002 -0.406,0.001 -0.609,0.002 m 0.853,0 0.001,4.897 c 10e-4,0.764 -0.003,1.528 0.002,2.292 0.373,-0.003 0.746,-10e-4 1.118,-10e-4 v -7.189 c -0.373,0.001 -0.747,-0.001 -1.121,0.001 m 1.371,-0.001 v 1.178 c -0.005,0.694 0.021,1.389 0.091,2.081 0.036,0.32 0.076,0.642 0.17,0.953 0.102,0.31 0.232,0.613 0.411,0.894 0.228,0.361 0.532,0.68 0.872,0.96 0.206,0.17 0.421,0.332 0.656,0.468 a 5.515,5.515 0 0 0 1.978,0.654 v -1.074 a 3.249,3.249 0 0 1 -0.48,-0.101 4.046,4.046 0 0 1 -1.505,-0.805 4.028,4.028 0 0 1 -1.027,-1.361 c -0.251,-0.525 -0.363,-1.093 -0.443,-1.657 a 15.548,15.548 0 0 1 -0.119,-2.188 c -0.201,-0.002 -0.402,-0.002 -0.604,-0.002"
         id="path164"
         inkscape:connector-curvature="0"
         style="fill:#373834" />
    </g>
  </g>
  <g
     id="g178"
     transform="translate(5.675222e-6)">
    <path
       class="st6"
       d="M 9.659,6.65 V 63.1 l -2.36,1.963 V 4.688 Z"
       id="path170"
       inkscape:connector-curvature="0"
       style="fill:#262b29" />
    <path
       d="M 9.659,6.65 H 77.563 L 79.924,4.688 H 7.299 Z"
       id="path172"
       inkscape:connector-curvature="0"
       style="fill:#1c1e15" />
    <path
       class="st6"
       d="M 77.563,6.65 V 63.1 l 2.361,1.963 V 4.688 Z"
       id="path174"
       inkscape:connector-curvature="0"
       style="fill:#262b29" />
    <path
       d="M 77.563,63.1 H 9.659 l -2.36,1.963 h 72.625 z"
       id="path176"
       inkscape:connector-curvature="0"
       style="fill:#161c18" />
  </g>
  <path
     d="M 9.6590057,6.65 H 77.563006 V 63.101 H 9.6590057 Z"
     id="path180"
     inkscape:connector-curvature="0"
     style="fill:#27282a" />
  <path
     d="m 75.181006,63.1 h -63.14 A 2.07,2.07 0 0 1 9.9780057,61.037 V 9.25 c 0,-1.134 0.9280003,-2.062 2.0630003,-2.062 h 63.14 c 1.134,0 2.063,0.928 2.063,2.062 v 51.788 a 2.069,2.069 0 0 1 -2.063,2.062 z"
     id="path182"
     inkscape:connector-curvature="0"
     style="fill:#bfbfbf" />
  <path
     d="M 9.9790057,22.896 H 77.244006 v 6.667 H 9.9790057 Z"
     id="path184"
     inkscape:connector-curvature="0"
     style="fill:#1c6eb8" />
  <linearGradient
     id="SVGID_1_"
     gradientUnits="userSpaceOnUse"
     x1="9.9790001"
     y1="22.153"
     x2="77.244003"
     y2="22.153"
     gradientTransform="translate(5.675222e-6)">
    <stop
       offset=".016"
       stop-color="#fcdc05"
       id="stop186" />
    <stop
       offset=".025"
       stop-color="#f9bf0d"
       id="stop188" />
    <stop
       offset=".039"
       stop-color="#f59917"
       id="stop190" />
    <stop
       offset=".053"
       stop-color="#f27e1e"
       id="stop192" />
    <stop
       offset=".064"
       stop-color="#f16e22"
       id="stop194" />
    <stop
       offset=".073"
       stop-color="#f06824"
       id="stop196" />
    <stop
       offset=".078"
       stop-color="#ef5f25"
       id="stop198" />
    <stop
       offset=".093"
       stop-color="#ed4926"
       id="stop200" />
    <stop
       offset=".111"
       stop-color="#eb3827"
       id="stop202" />
    <stop
       offset=".134"
       stop-color="#ea2d28"
       id="stop204" />
    <stop
       offset=".165"
       stop-color="#e92629"
       id="stop206" />
    <stop
       offset=".252"
       stop-color="#e92429"
       id="stop208" />
    <stop
       offset=".255"
       stop-color="#e5242b"
       id="stop210" />
    <stop
       offset=".295"
       stop-color="#b42b45"
       id="stop212" />
    <stop
       offset=".336"
       stop-color="#89305c"
       id="stop214" />
    <stop
       offset=".377"
       stop-color="#66346e"
       id="stop216" />
    <stop
       offset=".419"
       stop-color="#4b387d"
       id="stop218" />
    <stop
       offset=".461"
       stop-color="#383a87"
       id="stop220" />
    <stop
       offset=".504"
       stop-color="#2d3c8d"
       id="stop222" />
    <stop
       offset=".55"
       stop-color="#293c8f"
       id="stop224" />
    <stop
       offset=".588"
       stop-color="#294092"
       id="stop226" />
    <stop
       offset=".623"
       stop-color="#294b9a"
       id="stop228" />
    <stop
       offset=".657"
       stop-color="#285ea8"
       id="stop230" />
    <stop
       offset=".69"
       stop-color="#2878bc"
       id="stop232" />
    <stop
       offset=".723"
       stop-color="#279ad5"
       id="stop234" />
    <stop
       offset=".734"
       stop-color="#27a7df"
       id="stop236" />
    <stop
       offset=".736"
       stop-color="#25a7d9"
       id="stop238" />
    <stop
       offset=".748"
       stop-color="#1ba5b3"
       id="stop240" />
    <stop
       offset=".761"
       stop-color="#13a493"
       id="stop242" />
    <stop
       offset=".775"
       stop-color="#0ca379"
       id="stop244" />
    <stop
       offset=".79"
       stop-color="#07a264"
       id="stop246" />
    <stop
       offset=".807"
       stop-color="#03a156"
       id="stop248" />
    <stop
       offset=".828"
       stop-color="#01a14e"
       id="stop250" />
    <stop
       offset=".863"
       stop-color="#00a14b"
       id="stop252" />
    <stop
       offset="1"
       stop-color="#89be6a"
       id="stop254" />
  </linearGradient>
  <path
     d="M 9.9790057,21.41 H 77.244006 v 1.485 H 9.9790057 Z"
     id="path257"
     inkscape:connector-curvature="0"
     style="fill:url(#SVGID_1_)" />
  <g
     id="g271"
     transform="translate(5.675222e-6)">
    <path
       class="st13"
       d="m 27.913,8.903 c 0.432,-0.541 1.327,-0.633 1.857,-0.18 0.217,0.179 0.369,0.425 0.446,0.691 0.982,3.305 1.968,6.608 2.948,9.914 -0.579,0.001 -1.159,-10e-4 -1.738,0.001 -0.273,-0.911 -0.54,-1.824 -0.81,-2.736 -1.12,-0.002 -2.24,-0.001 -3.36,-0.001 -0.274,0.912 -0.545,1.824 -0.814,2.738 -0.576,-0.002 -1.152,0 -1.729,-10e-4 A 7872.9,7872.9 0 0 1 27.516,9.872 C 27.628,9.541 27.67,9.173 27.913,8.903 m 1.023,2.026 c -0.411,1.369 -0.813,2.741 -1.222,4.111 0.814,0.004 1.628,0.001 2.442,0.001 z M 40.864,8.976 c 0.302,-0.429 0.886,-0.636 1.399,-0.504 0.471,0.106 0.83,0.503 0.955,0.949 0.981,3.303 1.965,6.604 2.945,9.906 -0.58,0.004 -1.16,0 -1.74,0.002 -0.27,-0.912 -0.537,-1.825 -0.808,-2.737 -1.118,0.001 -2.237,-0.002 -3.355,0.001 -0.267,0.913 -0.543,1.823 -0.81,2.736 -0.576,10e-4 -1.151,-0.001 -1.727,10e-4 0.932,-3.17 1.875,-6.337 2.815,-9.505 0.098,-0.286 0.136,-0.602 0.326,-0.849 m -0.142,6.066 2.432,10e-4 c -0.403,-1.374 -0.813,-2.745 -1.215,-4.119 -0.405,1.373 -0.814,2.745 -1.217,4.118 z M 32.18,8.444 h 6.287 v 1.659 c -0.772,10e-4 -1.543,-10e-4 -2.314,10e-4 v 9.215 H 34.495 V 10.104 L 32.18,10.103 Z M 47.8,8.512 a 1.44,1.44 0 0 1 0.497,-0.068 c 0.661,0.002 1.322,10e-4 1.982,10e-4 1.113,0.02 2.175,0.696 2.656,1.676 0.333,0.636 0.368,1.376 0.284,2.075 -0.058,0.731 -0.371,1.462 -0.945,1.946 -0.303,0.264 -0.681,0.425 -1.006,0.66 -0.178,0.133 -0.187,0.391 -0.095,0.575 0.877,1.325 1.789,2.629 2.684,3.942 -0.655,0.001 -1.31,-10e-4 -1.965,0.001 -0.857,-1.26 -1.706,-2.526 -2.559,-3.788 a 1.376,1.376 0 0 1 -0.169,-1.244 c 0.117,-0.314 0.398,-0.544 0.711,-0.663 0.597,-0.223 1.186,-0.573 1.516,-1.124 0.252,-0.414 0.239,-0.925 0.125,-1.379 a 1.368,1.368 0 0 0 -1.338,-1.031 c -0.428,0.003 -0.856,-0.002 -1.284,0.002 -0.194,-0.004 -0.376,0.16 -0.373,0.352 -0.002,2.958 10e-4,5.917 -10e-4,8.875 L 46.85,19.319 C 46.849,16.134 46.851,12.95 46.849,9.765 46.854,9.206 47.259,8.681 47.8,8.512 Z m 6.663,-0.068 h 1.758 c -10e-4,3.625 0.001,7.25 -10e-4,10.875 -0.585,-0.002 -1.171,0 -1.756,-10e-4 z m 3.793,9.91 0.653,0.194 -0.013,-0.218 c 0,-0.601 0.526,-0.997 1.111,-0.997 0.669,0 1.128,0.511 1.128,1.149 0,0.383 -0.206,0.766 -0.556,0.947 L 60.301,19.14 c 0.269,-0.095 0.472,-0.412 0.472,-0.688 0,-0.42 -0.354,-0.75 -0.779,-0.75 a 0.759,0.759 0 0 0 -0.753,0.741 0.75,0.75 0 0 0 0.282,0.581 v 0.074 L 57.894,18.62 v -1.244 h 0.362 z m 2.45,-3.28 h 0.362 v 2.006 l -1.705,-1.359 c -0.16,-0.128 -0.358,-0.276 -0.568,-0.276 a 0.619,0.619 0 0 0 -0.606,0.61 c 0,0.317 0.261,0.577 0.581,0.597 v 0.387 c -0.564,-0.062 -0.943,-0.42 -0.943,-0.985 0,-0.527 0.4,-0.98 0.951,-0.98 0.236,0 0.471,0.087 0.653,0.23 l 1.275,1.022 z m -2.88,-1.721 c 0,0.889 0.745,1.613 1.662,1.613 0.909,0 1.648,-0.723 1.648,-1.613 0,-0.915 -0.727,-1.632 -1.655,-1.632 -0.928,0 -1.655,0.717 -1.655,1.632 z m 1.662,-1.251 c 0.717,0 1.279,0.558 1.279,1.271 0,0.668 -0.574,1.212 -1.279,1.212 -0.712,0 -1.292,-0.544 -1.292,-1.212 0,-0.724 0.555,-1.271 1.292,-1.271 z M 57.826,9.966 c 0,0.889 0.745,1.613 1.662,1.613 0.909,0 1.648,-0.723 1.648,-1.613 0,-0.915 -0.727,-1.632 -1.655,-1.632 -0.928,0 -1.655,0.717 -1.655,1.632 z m 1.662,-1.251 c 0.717,0 1.279,0.558 1.279,1.271 0,0.668 -0.574,1.212 -1.279,1.212 -0.712,0 -1.292,-0.544 -1.292,-1.212 0,-0.725 0.555,-1.271 1.292,-1.271 z"
       id="path259"
       inkscape:connector-curvature="0"
       style="fill:#1b6db7" />
    <g
       id="g263">
      <path
         class="st13"
         d="m 61.72,8.738 h -0.213 v 0.604 h -0.15 V 8.738 H 61.136 V 8.613 h 0.584 z m 0.789,0.604 h -0.15 V 8.75 l -0.13,0.592 h -0.15 l -0.13,-0.589 v 0.589 h -0.15 V 8.613 h 0.22 l 0.135,0.558 0.137,-0.558 h 0.218 z"
         id="path261"
         inkscape:connector-curvature="0"
         style="fill:#1b6db7" />
    </g>
    <g
       id="g269">
      <path
         class="st13"
         d="m 57.353,9.477 h -0.162 a 0.236,0.236 0 0 1 -0.02,-0.084 v -0.11 c 0,-0.029 -0.004,-0.051 -0.013,-0.064 -0.013,-0.02 -0.037,-0.03 -0.074,-0.03 h -0.178 v 0.288 h -0.15 V 8.748 h 0.41 c 0.045,0 0.084,0.015 0.118,0.046 a 0.2,0.2 0 0 1 0.061,0.156 0.19,0.19 0 0 1 -0.107,0.176 c 0.052,0.028 0.079,0.06 0.08,0.094 l 0.008,0.178 c 10e-4,0.022 0.01,0.039 0.027,0.051 z M 57.202,8.959 c 0,-0.057 -0.028,-0.086 -0.086,-0.086 h -0.21 v 0.191 h 0.207 c 0.022,0 0.043,-0.011 0.062,-0.033 a 0.111,0.111 0 0 0 0.027,-0.072 z"
         id="path265"
         inkscape:connector-curvature="0"
         style="fill:#1b6db7" />
      <path
         class="st13"
         d="m 57.038,9.851 a 0.705,0.705 0 0 1 0,-1.408 0.705,0.705 0 0 1 0,1.408 z m 0,-1.258 a 0.554,0.554 0 1 0 0,1.108 0.554,0.554 0 0 0 0,-1.108 z"
         id="path267"
         inkscape:connector-curvature="0"
         style="fill:#1b6db7" />
    </g>
  </g>
  <g
     id="g275"
     transform="translate(5.675222e-6)">
    <path
       d="m 26.897,60.596 c 0,0.31 -0.238,0.558 -0.542,0.558 a 0.55,0.55 0 0 1 -0.547,-0.558 c 0,-0.306 0.241,-0.555 0.547,-0.555 0.304,0 0.542,0.249 0.542,0.555 z m -1,0.005 c 0,0.269 0.198,0.479 0.458,0.479 0.254,0 0.452,-0.21 0.452,-0.484 0,-0.268 -0.198,-0.48 -0.452,-0.48 -0.259,-10e-4 -0.458,0.212 -0.458,0.485 z m 0.678,-0.21 A 0.381,0.381 0 0 0 26.4,60.349 c -0.169,0 -0.252,0.108 -0.252,0.252 0,0.141 0.088,0.254 0.254,0.254 0.072,0 0.14,-0.02 0.182,-0.047 l 0.021,0.069 a 0.414,0.414 0 0 1 -0.221,0.056 0.311,0.311 0 0 1 -0.33,-0.326 c 0,-0.205 0.162,-0.335 0.344,-0.335 0.094,0 0.175,0.027 0.198,0.049 z m 1.415,0.817 h -0.197 v -0.691 h -0.24 v -0.128 a 0.594,0.594 0 0 0 0.203,-0.045 0.246,0.246 0 0 0 0.108,-0.135 h 0.125 v 0.999 z m 1.024,-0.527 c 0,0.372 -0.125,0.559 -0.374,0.559 a 0.308,0.308 0 0 1 -0.214,-0.076 0.25,0.25 0 0 1 -0.088,-0.189 h 0.191 a 0.095,0.095 0 0 0 0.036,0.077 0.125,0.125 0 0 0 0.089,0.036 c 0.037,0 0.07,-0.015 0.101,-0.045 0.042,-0.04 0.063,-0.097 0.063,-0.173 a 0.464,0.464 0 0 0 -0.005,-0.073 0.3,0.3 0 0 1 -0.081,0.066 0.25,0.25 0 0 1 -0.111,0.021 0.264,0.264 0 0 1 -0.217,-0.099 0.37,0.37 0 0 1 -0.079,-0.243 c 0,-0.106 0.031,-0.192 0.093,-0.257 0.062,-0.065 0.142,-0.098 0.24,-0.098 0.125,0 0.218,0.051 0.279,0.152 a 0.652,0.652 0 0 1 0.077,0.342 z m -0.195,-0.14 c 0,-0.126 -0.051,-0.189 -0.153,-0.189 a 0.152,0.152 0 0 0 -0.121,0.049 c -0.029,0.032 -0.043,0.077 -0.043,0.135 0,0.051 0.015,0.094 0.044,0.128 0.03,0.034 0.067,0.051 0.111,0.051 a 0.152,0.152 0 0 0 0.115,-0.051 0.172,0.172 0 0 0 0.047,-0.123 z m 1.037,0.354 a 0.332,0.332 0 0 1 -0.092,0.231 0.344,0.344 0 0 1 -0.269,0.114 0.36,0.36 0 0 1 -0.25,-0.088 0.289,0.289 0 0 1 -0.099,-0.225 c 0,-0.06 0.011,-0.11 0.033,-0.149 a 0.308,0.308 0 0 1 0.123,-0.116 c -0.08,-0.055 -0.12,-0.121 -0.12,-0.196 0,-0.082 0.031,-0.149 0.094,-0.204 0.063,-0.055 0.143,-0.08 0.238,-0.077 a 0.336,0.336 0 0 1 0.222,0.084 c 0.059,0.053 0.088,0.12 0.088,0.2 0,0.091 -0.045,0.155 -0.135,0.193 a 0.217,0.217 0 0 1 0.12,0.087 0.247,0.247 0 0 1 0.047,0.146 z m -0.212,0.007 a 0.165,0.165 0 0 0 -0.041,-0.115 0.134,0.134 0 0 0 -0.104,-0.045 0.135,0.135 0 0 0 -0.108,0.045 0.182,0.182 0 0 0 -0.04,0.123 c 0,0.05 0.014,0.09 0.041,0.122 0.027,0.031 0.06,0.047 0.099,0.047 a 0.138,0.138 0 0 0 0.113,-0.051 0.196,0.196 0 0 0 0.04,-0.126 z m 0.012,-0.444 a 0.103,0.103 0 0 0 -0.041,-0.087 0.177,0.177 0 0 0 -0.108,-0.03 0.16,0.16 0 0 0 -0.106,0.036 0.11,0.11 0 0 0 -0.044,0.089 c 0,0.041 0.014,0.074 0.041,0.101 a 0.157,0.157 0 0 0 0.213,-0.004 0.146,0.146 0 0 0 0.045,-0.105 z m 1.013,0.028 a 0.4,0.4 0 0 1 -0.017,0.138 0.398,0.398 0 0 1 -0.065,0.093 0.73,0.73 0 0 1 -0.119,0.108 l -0.133,0.101 a 0.288,0.288 0 0 0 -0.09,0.105 h 0.424 v 0.176 h -0.682 c 0.008,-0.15 0.048,-0.253 0.119,-0.308 l 0.222,-0.17 c 0.093,-0.071 0.139,-0.146 0.139,-0.226 a 0.163,0.163 0 0 0 -0.039,-0.112 0.13,0.13 0 0 0 -0.1,-0.044 c -0.097,0 -0.142,0.068 -0.136,0.206 h -0.19 c -0.003,-0.121 0.024,-0.214 0.085,-0.278 a 0.314,0.314 0 0 1 0.239,-0.09 c 0.102,0 0.184,0.028 0.248,0.084 a 0.277,0.277 0 0 1 0.095,0.217 z m 1.532,0.722 h -0.216 l -0.072,-0.206 h -0.381 l -0.07,0.206 h -0.215 l 0.358,-1.028 h 0.244 z m -0.339,-0.382 -0.136,-0.4 -0.126,0.4 z m 1.254,-0.47 h -0.3 v 0.852 H 32.605 V 60.356 H 32.293 V 60.18 h 0.824 v 0.176 z m 1.054,0.852 h -0.216 l -0.072,-0.206 h -0.381 l -0.07,0.206 h -0.215 l 0.358,-1.028 h 0.244 z m -0.338,-0.382 -0.136,-0.4 -0.126,0.4 z m 1.365,0.382 H 34.968 A 0.343,0.343 0 0 1 34.94,61.089 v -0.155 a 0.171,0.171 0 0 0 -0.018,-0.09 c -0.018,-0.028 -0.053,-0.042 -0.104,-0.042 h -0.251 v 0.406 H 34.356 V 60.18 h 0.578 c 0.064,0 0.119,0.021 0.167,0.065 a 0.283,0.283 0 0 1 0.086,0.22 c 0,0.11 -0.05,0.193 -0.151,0.248 0.073,0.04 0.111,0.084 0.113,0.133 l 0.011,0.251 a 0.087,0.087 0 0 0 0.038,0.072 v 0.039 z m -0.213,-0.73 c 0,-0.081 -0.041,-0.121 -0.121,-0.121 h -0.296 v 0.269 h 0.292 c 0.032,0 0.061,-0.015 0.087,-0.046 a 0.164,0.164 0 0 0 0.038,-0.102 z m 0.623,0.73 H 35.396 V 60.18 h 0.211 z m 0.437,0.011 c 0,0.068 -0.016,0.12 -0.049,0.157 -0.032,0.037 -0.086,0.063 -0.163,0.079 v -0.079 a 0.144,0.144 0 0 0 0.09,-0.06 0.138,0.138 0 0 0 0.031,-0.086 0.073,0.073 0 0 0 -0.003,-0.022 h -0.118 v -0.206 h 0.211 v 0.217 z m 0.874,-0.011 H 36.707 V 60.18 h 0.211 z m 1.068,0 H 37.777 L 37.362,60.49 v 0.718 H 37.15 V 60.18 h 0.209 l 0.416,0.705 V 60.18 h 0.211 z m 1.098,-0.351 a 0.404,0.404 0 0 1 -0.146,0.292 0.492,0.492 0 0 1 -0.308,0.09 0.406,0.406 0 0 1 -0.33,-0.147 0.603,0.603 0 0 1 -0.121,-0.397 c 0,-0.155 0.04,-0.281 0.12,-0.378 a 0.427,0.427 0 0 1 0.351,-0.154 c 0.125,0 0.228,0.034 0.309,0.101 a 0.335,0.335 0 0 1 0.125,0.264 h -0.202 a 0.197,0.197 0 0 0 -0.073,-0.135 0.23,0.23 0 0 0 -0.154,-0.054 0.237,0.237 0 0 0 -0.198,0.097 0.435,0.435 0 0 0 -0.072,0.264 c 0,0.11 0.024,0.197 0.072,0.262 0.048,0.065 0.112,0.097 0.192,0.097 a 0.245,0.245 0 0 0 0.161,-0.056 0.195,0.195 0 0 0 0.07,-0.146 z m 0.397,0.351 H 39.27 v -0.206 h 0.211 z m 1.564,0 h -0.216 l -0.072,-0.206 h -0.381 l -0.07,0.206 h -0.215 l 0.358,-1.028 h 0.244 z m -0.338,-0.382 -0.136,-0.4 -0.126,0.4 z m 1.226,0.382 H 41.23 V 60.18 h 0.211 v 0.852 h 0.492 z m 0.907,0 H 42.136 V 60.18 h 0.211 v 0.852 h 0.492 v 0.176 z m 1.482,0 h -0.229 a 0.343,0.343 0 0 1 -0.028,-0.119 v -0.155 a 0.171,0.171 0 0 0 -0.018,-0.09 c -0.018,-0.028 -0.053,-0.042 -0.104,-0.042 h -0.251 v 0.406 H 43.48 V 60.18 h 0.578 c 0.064,0 0.119,0.021 0.167,0.065 a 0.283,0.283 0 0 1 0.086,0.22 c 0,0.11 -0.05,0.193 -0.151,0.248 0.073,0.04 0.111,0.084 0.113,0.133 l 0.011,0.251 a 0.087,0.087 0 0 0 0.038,0.072 z m -0.213,-0.73 c 0,-0.081 -0.041,-0.121 -0.121,-0.121 h -0.296 v 0.269 h 0.292 c 0.032,0 0.061,-0.015 0.087,-0.046 a 0.164,0.164 0 0 0 0.038,-0.102 z m 0.623,0.73 H 44.521 V 60.18 h 0.211 z m 1.141,0.004 H 45.745 L 45.72,61.085 a 0.383,0.383 0 0 1 -0.326,0.154 0.427,0.427 0 0 1 -0.323,-0.141 0.544,0.544 0 0 1 -0.143,-0.389 c 0,-0.166 0.045,-0.298 0.136,-0.397 0.091,-0.099 0.211,-0.149 0.36,-0.149 0.129,0 0.233,0.032 0.312,0.095 a 0.39,0.39 0 0 1 0.137,0.248 H 45.68 c -0.039,-0.113 -0.124,-0.169 -0.254,-0.169 a 0.266,0.266 0 0 0 -0.215,0.097 0.387,0.387 0 0 0 -0.081,0.258 c 0,0.109 0.028,0.199 0.085,0.27 0.057,0.071 0.128,0.107 0.215,0.107 a 0.26,0.26 0 0 0 0.179,-0.067 0.255,0.255 0 0 0 0.088,-0.171 H 45.46 v -0.175 h 0.413 z m 1.063,-0.004 h -0.211 v -0.465 h -0.407 v 0.465 H 46.106 V 60.18 h 0.212 v 0.386 h 0.407 V 60.18 h 0.211 z m 0.98,-0.852 h -0.3 v 0.852 H 47.405 V 60.356 H 47.093 V 60.18 h 0.824 v 0.176 z m 0.957,0.549 c 0,0.107 -0.038,0.19 -0.114,0.248 a 0.507,0.507 0 0 1 -0.318,0.087 0.441,0.441 0 0 1 -0.292,-0.089 0.357,0.357 0 0 1 -0.124,-0.248 h 0.205 c 0.015,0.111 0.092,0.167 0.23,0.167 a 0.284,0.284 0 0 0 0.153,-0.036 0.111,0.111 0 0 0 0.057,-0.098 c 0,-0.076 -0.048,-0.123 -0.144,-0.141 l -0.251,-0.048 a 0.283,0.283 0 0 1 -0.167,-0.092 0.245,0.245 0 0 1 -0.065,-0.169 c 0,-0.101 0.035,-0.179 0.104,-0.237 a 0.434,0.434 0 0 1 0.284,-0.086 c 0.13,0 0.23,0.029 0.302,0.086 a 0.291,0.291 0 0 1 0.106,0.244 h -0.197 a 0.153,0.153 0 0 0 -0.064,-0.119 0.26,0.26 0 0 0 -0.156,-0.043 c -0.121,0 -0.181,0.044 -0.181,0.132 0,0.058 0.041,0.095 0.123,0.111 l 0.217,0.045 a 0.498,0.498 0 0 1 0.211,0.084 c 0.055,0.047 0.081,0.113 0.081,0.202 z m 1.484,0.303 H 50.128 A 0.368,0.368 0 0 1 50.1,61.089 v -0.155 a 0.171,0.171 0 0 0 -0.018,-0.09 c -0.018,-0.028 -0.053,-0.042 -0.104,-0.042 h -0.251 v 0.406 H 49.516 V 60.18 h 0.578 c 0.064,0 0.119,0.021 0.167,0.065 a 0.283,0.283 0 0 1 0.086,0.22 c 0,0.11 -0.05,0.193 -0.151,0.248 0.073,0.04 0.111,0.084 0.113,0.133 l 0.011,0.251 a 0.087,0.087 0 0 0 0.038,0.072 v 0.039 z m -0.213,-0.73 c 0,-0.081 -0.041,-0.121 -0.121,-0.121 h -0.296 v 0.269 h 0.292 c 0.032,0 0.061,-0.015 0.087,-0.046 a 0.164,0.164 0 0 0 0.038,-0.102 z m 1.201,0.73 H 50.576 V 60.18 h 0.745 v 0.176 h -0.533 v 0.234 h 0.492 v 0.176 h -0.492 v 0.265 h 0.557 z m 1,-0.303 c 0,0.107 -0.038,0.19 -0.114,0.248 a 0.507,0.507 0 0 1 -0.318,0.087 0.441,0.441 0 0 1 -0.292,-0.089 0.357,0.357 0 0 1 -0.124,-0.248 h 0.205 c 0.015,0.111 0.092,0.167 0.23,0.167 a 0.284,0.284 0 0 0 0.153,-0.036 0.111,0.111 0 0 0 0.057,-0.098 c 0,-0.076 -0.048,-0.123 -0.144,-0.141 L 51.747,60.747 A 0.283,0.283 0 0 1 51.58,60.655 0.245,0.245 0 0 1 51.515,60.486 c 0,-0.101 0.035,-0.179 0.104,-0.237 a 0.434,0.434 0 0 1 0.284,-0.086 c 0.13,0 0.23,0.029 0.302,0.086 a 0.291,0.291 0 0 1 0.106,0.244 H 52.114 A 0.153,0.153 0 0 0 52.05,60.374 0.26,0.26 0 0 0 51.894,60.331 c -0.121,0 -0.181,0.044 -0.181,0.132 0,0.058 0.041,0.095 0.123,0.111 l 0.217,0.045 a 0.498,0.498 0 0 1 0.211,0.084 c 0.054,0.047 0.081,0.113 0.081,0.202 z m 0.971,0.303 H 52.547 V 60.18 h 0.745 v 0.176 h -0.533 v 0.234 h 0.492 v 0.176 h -0.492 v 0.265 h 0.557 z m 1.06,0 h -0.229 a 0.343,0.343 0 0 1 -0.028,-0.119 v -0.155 a 0.171,0.171 0 0 0 -0.018,-0.09 c -0.018,-0.028 -0.053,-0.042 -0.104,-0.042 h -0.251 v 0.406 H 53.535 V 60.18 h 0.578 c 0.064,0 0.119,0.021 0.167,0.065 a 0.283,0.283 0 0 1 0.086,0.22 c 0,0.11 -0.05,0.193 -0.151,0.248 0.073,0.04 0.111,0.084 0.113,0.133 l 0.011,0.251 a 0.087,0.087 0 0 0 0.038,0.072 v 0.039 z m -0.213,-0.73 c 0,-0.081 -0.041,-0.121 -0.121,-0.121 h -0.296 v 0.269 h 0.292 c 0.032,0 0.061,-0.015 0.087,-0.046 a 0.164,0.164 0 0 0 0.038,-0.102 z m 1.235,-0.298 -0.35,1.028 H 54.866 L 54.517,60.18 h 0.213 l 0.227,0.774 0.226,-0.774 z m 0.952,1.028 H 55.581 V 60.18 h 0.745 v 0.176 h -0.533 v 0.234 h 0.492 v 0.176 h -0.492 v 0.265 h 0.557 z m 1.066,-0.55 A 0.66,0.66 0 0 1 57.3,61.051 c -0.073,0.104 -0.159,0.157 -0.257,0.157 H 56.564 V 60.18 h 0.495 c 0.082,0 0.158,0.039 0.23,0.117 a 0.515,0.515 0 0 1 0.127,0.361 z m -0.213,0.017 a 0.437,0.437 0 0 0 -0.052,-0.218 c -0.037,-0.066 -0.083,-0.099 -0.138,-0.099 h -0.237 v 0.674 h 0.194 a 0.196,0.196 0 0 0 0.168,-0.095 0.456,0.456 0 0 0 0.065,-0.262 z m 1.922,0.203 a 0.357,0.357 0 0 1 -0.103,0.262 0.347,0.347 0 0 1 -0.257,0.104 0.358,0.358 0 0 1 -0.242,-0.087 C 58.455,61.099 58.425,61.03 58.434,60.951 h 0.192 c 0.006,0.046 0.02,0.078 0.04,0.097 0.021,0.019 0.053,0.028 0.097,0.028 0.051,0 0.09,-0.017 0.118,-0.05 a 0.204,0.204 0 0 0 0.042,-0.137 c 0,-0.132 -0.051,-0.199 -0.154,-0.199 -0.058,0 -0.1,0.025 -0.126,0.075 h -0.181 l 0.09,-0.557 h 0.532 v 0.176 H 58.675 L 58.64,60.59 a 0.421,0.421 0 0 1 0.092,-0.045 0.326,0.326 0 0 1 0.098,-0.011 c 0.084,0 0.155,0.033 0.21,0.099 0.055,0.066 0.085,0.147 0.085,0.245 z m 0.824,-0.392 a 0.4,0.4 0 0 1 -0.017,0.138 0.398,0.398 0 0 1 -0.065,0.093 0.73,0.73 0 0 1 -0.119,0.108 l -0.133,0.101 a 0.288,0.288 0 0 0 -0.09,0.105 h 0.424 v 0.176 h -0.682 c 0.008,-0.15 0.048,-0.253 0.119,-0.308 l 0.222,-0.17 c 0.093,-0.071 0.139,-0.146 0.139,-0.226 a 0.163,0.163 0 0 0 -0.039,-0.112 0.13,0.13 0 0 0 -0.1,-0.044 c -0.097,0 -0.142,0.068 -0.136,0.206 h -0.19 c -0.003,-0.121 0.024,-0.214 0.085,-0.278 a 0.314,0.314 0 0 1 0.239,-0.09 c 0.102,0 0.184,0.028 0.248,0.084 a 0.28,0.28 0 0 1 0.095,0.217 z m 0.833,0.227 c 0,0.161 -0.018,0.28 -0.054,0.358 -0.053,0.113 -0.148,0.169 -0.288,0.169 -0.14,0 -0.235,-0.056 -0.289,-0.169 a 0.849,0.849 0 0 1 -0.058,-0.358 c 0,-0.159 0.019,-0.278 0.058,-0.358 0.054,-0.113 0.15,-0.169 0.289,-0.169 0.139,0 0.235,0.057 0.288,0.169 a 0.897,0.897 0 0 1 0.054,0.358 z m -0.197,0 c 0,-0.133 -0.006,-0.22 -0.019,-0.261 -0.019,-0.057 -0.061,-0.086 -0.125,-0.086 -0.066,0 -0.108,0.029 -0.128,0.086 a 1.014,1.014 0 0 0 -0.021,0.261 c 0,0.132 0.007,0.219 0.022,0.261 0.019,0.057 0.061,0.086 0.127,0.086 0.065,0 0.106,-0.029 0.125,-0.086 0.012,-0.04 0.019,-0.127 0.019,-0.261 z m 0.83,0.495 h -0.197 v -0.691 h -0.24 v -0.128 a 0.594,0.594 0 0 0 0.203,-0.045 0.246,0.246 0 0 0 0.108,-0.135 h 0.125 v 0.999 z"
       id="path273"
       inkscape:connector-curvature="0" />
  </g>
  <path
     d="m 23.403006,29.563 h 40.417 v 29.612 h -40.417 z"
     id="path277"
     inkscape:connector-curvature="0"
     style="fill:#a2a7aa" />
</svg>
