<?xml version="1.0" encoding="UTF-8" standalone="no"?>
<svg
   xmlns:dc="http://purl.org/dc/elements/1.1/"
   xmlns:cc="http://creativecommons.org/ns#"
   xmlns:rdf="http://www.w3.org/1999/02/22-rdf-syntax-ns#"
   xmlns:svg="http://www.w3.org/2000/svg"
   xmlns="http://www.w3.org/2000/svg"
   xmlns:sodipodi="http://sodipodi.sourceforge.net/DTD/sodipodi-0.dtd"
   xmlns:inkscape="http://www.inkscape.org/namespaces/inkscape"
   viewBox="0 0 335 97.679"
   version="1.1"
   id="svg16"
   sodipodi:docname="logo.svg"
   width="335"
   height="97.679001"
   inkscape:version="0.92.4 5da689c313, 2019-01-14">
  <metadata
     id="metadata22">
    <rdf:RDF>
      <cc:Work
         rdf:about="">
        <dc:format>image/svg+xml</dc:format>
        <dc:type
           rdf:resource="http://purl.org/dc/dcmitype/StillImage" />
      </cc:Work>
    </rdf:RDF>
  </metadata>
  <defs
     id="defs20" />
  <sodipodi:namedview
     pagecolor="#ffffff"
     bordercolor="#666666"
     borderopacity="1"
     objecttolerance="10"
     gridtolerance="10"
     guidetolerance="10"
     inkscape:pageopacity="0"
     inkscape:pageshadow="2"
     inkscape:window-width="471"
     inkscape:window-height="442"
     id="namedview18"
     showgrid="false"
     inkscape:zoom="0.81445706"
     inkscape:cx="166.3685"
     inkscape:cy="48.8395"
     inkscape:window-x="0"
     inkscape:window-y="0"
     inkscape:window-maximized="0"
     inkscape:current-layer="svg16" />
  <path
     d="m 28.17,5.016 c 3.805,-4.762 11.679,-5.576 16.347,-1.581 1.909,1.573 3.247,3.743 3.93,6.08 C 57.089,38.611 65.77,67.692 74.4,96.791 69.3,96.796 64.198,96.782 59.098,96.796 56.692,88.773 54.344,80.738 51.969,72.708 42.106,72.688 32.249,72.703 22.387,72.699 A 4445.395,4445.395 0 0 0 15.218,96.8 C 10.146,96.782 5.073,96.795 0,96.791 8.21,69.034 16.43,41.28 24.68,13.533 c 0.981,-2.9 1.351,-6.145 3.49,-8.517 m 9.004,17.83 C 33.558,34.9 30.015,46.976 26.419,59.036 33.587,59.07 40.752,59.049 47.917,59.049 44.33,46.981 40.761,34.914 37.174,22.846 Z M 142.179,5.655 c 2.658,-3.772 7.796,-5.602 12.318,-4.438 4.142,0.933 7.31,4.425 8.403,8.357 8.633,29.074 17.297,58.138 25.93,87.212 -5.108,0.039 -10.212,0 -15.319,0.02 -2.375,-8.029 -4.724,-16.066 -7.116,-24.096 -9.846,0.005 -19.689,-0.017 -29.534,0.008 -2.353,8.034 -4.781,16.051 -7.133,24.086 -5.068,0.005 -10.132,-0.005 -15.2,0.005 8.205,-27.909 16.507,-55.793 24.78,-83.682 0.867,-2.519 1.202,-5.295 2.871,-7.472 m -1.243,53.406 c 7.138,0.009 14.272,0.005 21.411,0.005 -3.552,-12.094 -7.161,-24.17 -10.7,-36.262 -3.564,12.087 -7.162,24.164 -10.711,36.257 z M 65.733,0.973 h 55.346 v 14.605 c -6.795,0.005 -13.584,-0.008 -20.374,0.005 0,27.041 0.005,54.083 -0.003,81.122 H 86.106 c 0,-27.039 -0.004,-54.081 0.004,-81.122 -6.794,-0.013 -13.584,0 -20.377,-0.005 0,-4.868 -0.004,-9.733 0,-14.605 z m 137.514,0.596 c 1.401,-0.474 2.898,-0.636 4.378,-0.602 5.817,0.02 11.635,0.005 17.451,0.008 9.797,0.177 19.147,6.124 23.386,14.752 2.936,5.602 3.238,12.118 2.498,18.264 -0.511,6.434 -3.269,12.868 -8.323,17.133 -2.669,2.327 -5.995,3.739 -8.853,5.812 -1.57,1.168 -1.649,3.44 -0.837,5.066 7.721,11.663 15.746,23.143 23.629,34.706 -5.765,0.009 -11.53,-0.013 -17.296,0.009 -7.546,-11.091 -15.015,-22.239 -22.531,-33.346 -2.21,-3.162 -2.811,-7.348 -1.487,-10.956 1.032,-2.768 3.503,-4.791 6.256,-5.836 5.255,-1.962 10.437,-5.044 13.347,-9.897 2.215,-3.646 2.1,-8.145 1.104,-12.136 -1.169,-5.181 -6.326,-9.257 -11.779,-9.079 -3.771,0.024 -7.538,-0.017 -11.302,0.017 -1.705,-0.039 -3.308,1.411 -3.286,3.1 -0.019,26.043 0.008,52.088 -0.008,78.13 -4.903,-0.009 -9.8,0 -14.703,-0.005 -0.01,-28.036 0.01,-56.074 -0.01,-84.111 0.034,-4.914 3.605,-9.538 8.366,-11.029 z m 58.654,-0.598 h 15.472 c -0.005,31.914 0.01,63.823 -0.01,95.736 -5.151,-0.014 -10.307,0 -15.463,-0.005 z"
     id="path2"
     inkscape:connector-curvature="0"
     style="fill:#1b6db7" />
  <g
     id="g6"
     style="fill:#1b6db7">
    <path
       d="m 295.294,88.214 5.745,1.704 -0.112,-1.922 c 0,-5.293 4.633,-8.775 9.782,-8.775 5.894,0 9.932,4.496 9.932,10.117 0,3.374 -1.815,6.747 -4.892,8.341 l -2.446,-2.54 c 2.372,-0.833 4.151,-3.625 4.151,-6.054 0,-3.698 -3.113,-6.6 -6.857,-6.6 -3.594,0 -6.633,3.007 -6.633,6.524 0,1.922 0.926,3.917 2.484,5.113 v 0.654 L 292.105,90.569 V 79.62 h 3.187 v 8.595 z m 21.57,-28.877 h 3.185 v 17.659 l -15.01,-11.968 c -1.406,-1.124 -3.149,-2.429 -5.002,-2.429 -2.928,0 -5.336,2.538 -5.336,5.366 0,2.794 2.299,5.078 5.114,5.26 v 3.408 c -4.966,-0.543 -8.303,-3.698 -8.303,-8.667 0,-4.641 3.52,-8.629 8.376,-8.629 2.075,0 4.149,0.762 5.745,2.028 l 11.228,8.993 V 59.337 Z M 291.515,44.192 c 0,7.83 6.562,14.199 14.628,14.199 8.002,0 14.512,-6.369 14.512,-14.199 0,-8.058 -6.399,-14.37 -14.57,-14.37 -8.172,0.001 -14.57,6.312 -14.57,14.37 z m 14.627,-11.013 c 6.313,0 11.257,4.913 11.257,11.187 0,5.883 -5.05,10.668 -11.257,10.668 -6.272,0 -11.375,-4.785 -11.375,-10.668 10e-4,-6.377 4.891,-11.187 11.375,-11.187 z M 291.515,14.37 c 0,7.83 6.562,14.199 14.628,14.199 8.002,0 14.512,-6.369 14.512,-14.199 0,-8.057 -6.4,-14.37 -14.57,-14.37 -8.17,0 -14.57,6.312 -14.57,14.37 z M 306.142,3.357 c 6.313,0 11.257,4.913 11.257,11.187 0,5.883 -5.05,10.67 -11.257,10.67 -6.272,0 -11.375,-4.787 -11.375,-10.67 10e-4,-6.379 4.891,-11.187 11.375,-11.187 z"
       id="path4"
       inkscape:connector-curvature="0" />
  </g>
  <g
     id="g10"
     style="fill:#1b6db7">
    <path
       d="m 325.795,3.561 h -1.879 v 5.317 h -1.32 V 3.561 h -1.943 v -1.1 h 5.141 v 1.1 z m 6.942,5.317 h -1.32 v -5.21 l -1.143,5.21 h -1.32 l -1.148,-5.184 v 5.184 h -1.32 V 2.46 h 1.934 l 1.191,4.913 1.204,-4.913 h 1.922 z"
       id="path8"
       inkscape:connector-curvature="0" />
  </g>
  <path
     d="m 287.346,10.067 h -1.423 c -0.12,-0.305 -0.176,-0.55 -0.176,-0.739 V 8.36 c 0,-0.258 -0.039,-0.447 -0.116,-0.563 -0.112,-0.176 -0.327,-0.267 -0.649,-0.267 h -1.569 v 2.536 h -1.32 V 3.649 h 3.611 c 0.395,0 0.744,0.133 1.036,0.404 0.357,0.322 0.537,0.782 0.537,1.376 0,0.683 -0.314,1.204 -0.941,1.548 0.456,0.245 0.692,0.524 0.705,0.83 l 0.069,1.565 a 0.555,0.555 0 0 0 0.236,0.451 z m -1.328,-4.561 c 0,-0.503 -0.249,-0.757 -0.757,-0.757 h -1.848 V 6.43 h 1.823 c 0.198,0 0.378,-0.095 0.542,-0.288 a 0.991,0.991 0 0 0 0.24,-0.636 z"
     id="path12"
     inkscape:connector-curvature="0"
     style="fill:#1b6db7" />
  <path
     d="m 284.569,13.36 c -3.417,0 -6.199,-2.781 -6.199,-6.199 0,-3.418 2.781,-6.199 6.199,-6.199 3.418,0 6.199,2.781 6.199,6.199 0,3.418 -2.781,6.199 -6.199,6.199 z m 0,-11.074 c -2.691,0 -4.875,2.184 -4.875,4.875 0,2.691 2.184,4.875 4.875,4.875 2.691,0 4.875,-2.184 4.875,-4.875 0,-2.691 -2.184,-4.875 -4.875,-4.875 z"
     id="path14"
     inkscape:connector-curvature="0"
     style="fill:#1b6db7" />
</svg>
