<?xml version="1.0" encoding="UTF-8" standalone="no"?>
<svg
   xmlns:dc="http://purl.org/dc/elements/1.1/"
   xmlns:cc="http://creativecommons.org/ns#"
   xmlns:rdf="http://www.w3.org/1999/02/22-rdf-syntax-ns#"
   xmlns:svg="http://www.w3.org/2000/svg"
   xmlns="http://www.w3.org/2000/svg"
   xmlns:sodipodi="http://sodipodi.sourceforge.net/DTD/sodipodi-0.dtd"
   xmlns:inkscape="http://www.inkscape.org/namespaces/inkscape"
   viewBox="0 0 98.181 191.54"
   version="1.1"
   id="svg191"
   sodipodi:docname="controller.svg"
   width="98.181"
   height="191.53999"
   inkscape:version="0.92.4 5da689c313, 2019-01-14">
  <metadata
     id="metadata197">
    <rdf:RDF>
      <cc:Work
         rdf:about="">
        <dc:format>image/svg+xml</dc:format>
        <dc:type
           rdf:resource="http://purl.org/dc/dcmitype/StillImage" />
      </cc:Work>
    </rdf:RDF>
  </metadata>
  <defs
     id="defs195" />
  <sodipodi:namedview
     pagecolor="#ffffff"
     bordercolor="#666666"
     borderopacity="1"
     objecttolerance="10"
     gridtolerance="10"
     guidetolerance="10"
     inkscape:pageopacity="0"
     inkscape:pageshadow="2"
     inkscape:window-width="640"
     inkscape:window-height="480"
     id="namedview193"
     showgrid="false"
     inkscape:zoom="1.2321187"
     inkscape:cx="49.0905"
     inkscape:cy="95.770004"
     inkscape:window-x="0"
     inkscape:window-y="0"
     inkscape:window-maximized="0"
     inkscape:current-layer="svg191" />
  <linearGradient
     id="a"
     gradientUnits="userSpaceOnUse"
     x1="4.243"
     y1="189.64999"
     x2="93.938004"
     y2="189.64999">
    <stop
       offset="0"
       stop-color="#282b24"
       id="stop2" />
    <stop
       offset=".053"
       stop-color="#242520"
       id="stop4" />
    <stop
       offset=".16"
       stop-color="#1d1c1a"
       id="stop6" />
    <stop
       offset=".294"
       stop-color="#191515"
       id="stop8" />
    <stop
       offset=".481"
       stop-color="#151012"
       id="stop10" />
    <stop
       offset="1"
       stop-color="#140f11"
       id="stop12" />
  </linearGradient>
  <path
     d="M 93.937,187.759 H 4.243 l 4.322,3.617 a 0.7,0.7 0 0 0 0.451,0.164 h 80.149 a 0.703,0.703 0 0 0 0.451,-0.164 z"
     id="path15"
     inkscape:connector-curvature="0"
     style="fill:url(#a)" />
  <linearGradient
     id="b"
     gradientUnits="userSpaceOnUse"
     x1="3.9909999"
     y1="178.91901"
     x2="94.189003"
     y2="178.91901">
    <stop
       offset="0"
       stop-color="#040006"
       id="stop17" />
    <stop
       offset=".026"
       stop-color="#100f11"
       id="stop19" />
    <stop
       offset=".079"
       stop-color="#16171a"
       id="stop21" />
    <stop
       offset=".146"
       stop-color="#1a1c20"
       id="stop23" />
    <stop
       offset=".24"
       stop-color="#1b1e23"
       id="stop25" />
    <stop
       offset=".5"
       stop-color="#1c1e23"
       id="stop27" />
    <stop
       offset=".76"
       stop-color="#1b1e23"
       id="stop29" />
    <stop
       offset=".854"
       stop-color="#1a1c20"
       id="stop31" />
    <stop
       offset=".921"
       stop-color="#16171a"
       id="stop33" />
    <stop
       offset=".974"
       stop-color="#100f11"
       id="stop35" />
    <stop
       offset="1"
       stop-color="#040006"
       id="stop37" />
  </linearGradient>
  <path
     d="M 93.937,187.759 H 4.243 A 0.704,0.704 0 0 1 3.991,187.22 v -17.141 h 90.198 v 17.141 a 0.701,0.701 0 0 1 -0.252,0.539 z"
     id="path40"
     inkscape:connector-curvature="0"
     style="fill:url(#b)" />
  <linearGradient
     id="c"
     gradientUnits="userSpaceOnUse"
     x1="5.7540002"
     y1="44.113998"
     x2="5.7540002"
     y2="17.677">
    <stop
       offset="0"
       stop-color="#821a1f"
       id="stop42" />
    <stop
       offset=".016"
       stop-color="#8a2022"
       id="stop44" />
    <stop
       offset=".059"
       stop-color="#9b2a28"
       id="stop46" />
    <stop
       offset=".109"
       stop-color="#a9312e"
       id="stop48" />
    <stop
       offset=".171"
       stop-color="#b23531"
       id="stop50" />
    <stop
       offset=".258"
       stop-color="#b63834"
       id="stop52" />
    <stop
       offset=".5"
       stop-color="#b83934"
       id="stop54" />
    <stop
       offset=".742"
       stop-color="#b63834"
       id="stop56" />
    <stop
       offset=".829"
       stop-color="#b23531"
       id="stop58" />
    <stop
       offset=".891"
       stop-color="#a9312e"
       id="stop60" />
    <stop
       offset=".941"
       stop-color="#9b2a28"
       id="stop62" />
    <stop
       offset=".984"
       stop-color="#8a2022"
       id="stop64" />
    <stop
       offset="1"
       stop-color="#821a1f"
       id="stop66" />
  </linearGradient>
  <path
     d="M 11.508,41.652 V 20.139 c 0,-0.69 -0.254,-1.547 -0.664,-2.462 H 2.462 A 2.462,2.462 0 0 0 0,20.139 v 21.513 a 2.462,2.462 0 0 0 2.462,2.462 h 8.382 l 0.016,-0.036 c 0.401,-0.902 0.648,-1.746 0.648,-2.426 z"
     id="path69"
     inkscape:connector-curvature="0"
     style="fill:url(#c)" />
  <linearGradient
     id="d"
     gradientUnits="userSpaceOnUse"
     x1="1059.976"
     y1="44.113998"
     x2="1059.976"
     y2="17.677"
     gradientTransform="matrix(-1,0,0,1,1152.403,0)">
    <stop
       offset="0"
       stop-color="#821a1f"
       id="stop71" />
    <stop
       offset=".016"
       stop-color="#8a2022"
       id="stop73" />
    <stop
       offset=".059"
       stop-color="#9b2a28"
       id="stop75" />
    <stop
       offset=".109"
       stop-color="#a9312e"
       id="stop77" />
    <stop
       offset=".171"
       stop-color="#b23531"
       id="stop79" />
    <stop
       offset=".258"
       stop-color="#b63834"
       id="stop81" />
    <stop
       offset=".5"
       stop-color="#b83934"
       id="stop83" />
    <stop
       offset=".742"
       stop-color="#b63834"
       id="stop85" />
    <stop
       offset=".829"
       stop-color="#b23531"
       id="stop87" />
    <stop
       offset=".891"
       stop-color="#a9312e"
       id="stop89" />
    <stop
       offset=".941"
       stop-color="#9b2a28"
       id="stop91" />
    <stop
       offset=".984"
       stop-color="#8a2022"
       id="stop93" />
    <stop
       offset="1"
       stop-color="#821a1f"
       id="stop95" />
  </linearGradient>
  <path
     d="M 86.673,41.652 V 20.139 c 0,-0.69 0.254,-1.547 0.664,-2.462 h 8.382 a 2.462,2.462 0 0 1 2.462,2.462 v 21.513 a 2.462,2.462 0 0 1 -2.462,2.462 H 87.337 L 87.321,44.078 C 86.92,43.176 86.673,42.332 86.673,41.652 Z"
     id="path98"
     inkscape:connector-curvature="0"
     style="fill:url(#d)" />
  <linearGradient
     id="e"
     gradientUnits="userSpaceOnUse"
     x1="3.9909999"
     y1="86.490997"
     x2="94.189003"
     y2="86.490997">
    <stop
       offset="0"
       stop-color="#040006"
       id="stop100" />
    <stop
       offset=".026"
       stop-color="#100f11"
       id="stop102" />
    <stop
       offset=".079"
       stop-color="#16171a"
       id="stop104" />
    <stop
       offset=".146"
       stop-color="#1a1c20"
       id="stop106" />
    <stop
       offset=".24"
       stop-color="#1b1e23"
       id="stop108" />
    <stop
       offset=".5"
       stop-color="#1c1e23"
       id="stop110" />
    <stop
       offset=".76"
       stop-color="#1b1e23"
       id="stop112" />
    <stop
       offset=".854"
       stop-color="#1a1c20"
       id="stop114" />
    <stop
       offset=".921"
       stop-color="#16171a"
       id="stop116" />
    <stop
       offset=".974"
       stop-color="#100f11"
       id="stop118" />
    <stop
       offset="1"
       stop-color="#040006"
       id="stop120" />
  </linearGradient>
  <path
     d="M 89.55,2.903 H 8.631 L 4.268,5.17 A 0.514,0.514 0 0 0 3.991,5.626 v 3.257 c 0,0.153 0.064,0.29 0.182,0.387 0.871,0.715 1.915,1.796 2.825,2.757 1.978,2.089 4.51,5.934 4.51,8.113 v 21.513 c 0,2.179 -2.532,6.024 -4.51,8.113 -0.909,0.96 -1.952,2.04 -2.823,2.755 A 0.495,0.495 0 0 0 3.991,52.913 V 170.081 H 94.189 V 52.915 A 0.5,0.5 0 0 0 94.003,52.52 c -0.871,-0.715 -1.912,-1.794 -2.821,-2.754 -1.978,-2.089 -4.51,-5.934 -4.51,-8.113 V 20.139 c 0,-2.179 2.532,-6.024 4.51,-8.113 0.908,-0.959 1.949,-2.037 2.819,-2.752 a 0.507,0.507 0 0 0 0.188,-0.399 v -3.24 a 0.53,0.53 0 0 0 -0.285,-0.47 z"
     id="path123"
     inkscape:connector-curvature="0"
     style="fill:url(#e)" />
  <linearGradient
     id="f"
     gradientUnits="userSpaceOnUse"
     x1="8.6309996"
     y1="1.452"
     x2="89.549004"
     y2="1.452">
    <stop
       offset="0"
       stop-color="#282b24"
       id="stop125" />
    <stop
       offset=".053"
       stop-color="#242520"
       id="stop127" />
    <stop
       offset=".16"
       stop-color="#1d1c1a"
       id="stop129" />
    <stop
       offset=".294"
       stop-color="#191515"
       id="stop131" />
    <stop
       offset=".481"
       stop-color="#151012"
       id="stop133" />
    <stop
       offset="1"
       stop-color="#140f11"
       id="stop135" />
  </linearGradient>
  <path
     d="m 83.786,0 c 0.116,0 0.23,0.028 0.333,0.081 L 89.55,2.902 H 8.631 L 14.062,0.081 A 0.728,0.728 0 0 1 14.395,0 Z"
     id="path138"
     inkscape:connector-curvature="0"
     style="fill:url(#f)" />
  <path
     d="M 73.042,37.945 H 25.138 A 0.515,0.515 0 0 1 24.623,37.43 V 24.36 c 0,-0.285 0.231,-0.515 0.515,-0.515 h 47.904 c 0.285,0 0.515,0.231 0.515,0.515 v 13.07 a 0.514,0.514 0 0 1 -0.515,0.515 z"
     id="path140"
     inkscape:connector-curvature="0"
     style="fill:#dbd9d8" />
  <g
     id="g144"
     style="fill:#bcbcbc">
    <path
       d="m 32.904,29.197 c 0,1.738 -0.345,3.146 -1.035,4.224 -0.87,1.348 -2.208,2.014 -4.014,2.001 v -1.344 c 2.879,0.02 4.318,-2.045 4.318,-6.194 0,-0.424 -0.011,-0.93 -0.034,-1.516 h 0.765 z m 0.248,-2.829 H 34.4 v 9.054 h -1.248 z m 6.544,9.054 h -0.09 c -1.702,0 -2.995,-0.691 -3.88,-2.072 -0.705,-1.118 -1.057,-2.503 -1.057,-4.153 v -2.829 h 0.753 c 0,2.27 0.165,3.917 0.495,4.941 0.63,1.96 1.889,2.883 3.778,2.769 v 1.344 z m 10.173,-0.015 h -1.837 l -0.457,-1.709 h -2.483 l -0.477,1.709 h -1.847 l 2.294,-7.935 a 1.76,1.76 0 0 1 0.457,-0.787 c 0.209,-0.218 0.467,-0.332 0.765,-0.332 0.328,0 0.616,0.114 0.864,0.352 0.248,0.238 0.417,0.528 0.516,0.87 z M 47.079,32.04 46.344,28.166 45.53,32.04 Z m 7.517,-3.854 h -1.609 v 7.221 H 51.18 v -7.221 h -1.629 v -1.699 h 5.044 v 1.699 z m 6.792,7.221 h -1.837 l -0.457,-1.709 h -2.483 l -0.477,1.709 h -1.847 l 2.294,-7.935 a 1.76,1.76 0 0 1 0.457,-0.787 c 0.209,-0.218 0.467,-0.332 0.765,-0.332 0.328,0 0.616,0.114 0.864,0.352 0.248,0.238 0.417,0.528 0.516,0.87 z m -2.79,-3.367 -0.735,-3.874 -0.814,3.874 z m 9.235,3.367 H 65.748 L 63.99,31.895 a 4.64,4.64 0 0 1 -0.199,-0.466 1.064,1.064 0 0 1 -0.079,-0.321 c 0,-0.394 0.288,-0.715 0.884,-0.963 0.586,-0.249 0.884,-0.57 0.884,-0.943 0,-0.228 -0.079,-0.456 -0.248,-0.684 -0.169,-0.218 -0.348,-0.332 -0.546,-0.332 h -1.033 v 7.221 h -1.748 v -7.708 c 0,-0.269 0.119,-0.539 0.357,-0.798 0.238,-0.259 0.477,-0.383 0.715,-0.383 h 1.738 c 0.675,0 1.271,0.259 1.777,0.767 0.506,0.518 0.765,1.108 0.765,1.782 0,0.539 -0.149,0.995 -0.437,1.367 -0.288,0.373 -0.695,0.684 -1.202,0.932 z m 2.492,0.031 h -1.817 v -8.92 h 1.817 z"
       id="path142"
       inkscape:connector-curvature="0" />
  </g>
  <radialGradient
     id="g"
     cx="49.09"
     cy="78.482002"
     r="24.570999"
     gradientUnits="userSpaceOnUse">
    <stop
       offset="0"
       stop-color="#1c1f24"
       id="stop146" />
    <stop
       offset=".592"
       stop-color="#1c1f23"
       id="stop148" />
    <stop
       offset=".805"
       stop-color="#1b1d20"
       id="stop150" />
    <stop
       offset=".956"
       stop-color="#19191a"
       id="stop152" />
    <stop
       offset="1"
       stop-color="#181718"
       id="stop154" />
  </radialGradient>
  <circle
     cx="49.09"
     cy="78.482002"
     r="24.570999"
     stroke-miterlimit="10"
     id="circle157"
     style="fill:url(#g);stroke:#181618;stroke-width:0.373;stroke-miterlimit:10" />
  <radialGradient
     id="h"
     cx="49.09"
     cy="78.482002"
     r="10.201"
     gradientUnits="userSpaceOnUse">
    <stop
       offset="0"
       stop-color="#1d2124"
       id="stop159" />
    <stop
       offset=".571"
       stop-color="#1d2123"
       id="stop161" />
    <stop
       offset=".776"
       stop-color="#1c1f20"
       id="stop163" />
    <stop
       offset=".922"
       stop-color="#1a1b1c"
       id="stop165" />
    <stop
       offset="1"
       stop-color="#181718"
       id="stop167" />
  </radialGradient>
  <circle
     cx="49.09"
     cy="78.482002"
     r="10.201"
     stroke-miterlimit="10"
     id="circle170"
     style="fill:url(#h);stroke:#181618;stroke-width:0.373;stroke-miterlimit:10" />
  <radialGradient
     id="i"
     cx="49.09"
     cy="78.482002"
     r="1.659"
     gradientUnits="userSpaceOnUse">
    <stop
       offset="0"
       stop-color="#191c21"
       id="stop172" />
    <stop
       offset=".633"
       stop-color="#191b20"
       id="stop174" />
    <stop
       offset=".86"
       stop-color="#18191c"
       id="stop176" />
    <stop
       offset="1"
       stop-color="#171617"
       id="stop178" />
  </radialGradient>
  <circle
     cx="49.09"
     cy="78.482002"
     r="1.659"
     id="circle181"
     style="fill:url(#i)" />
  <g
     id="g185"
     style="fill:#1a181b">
    <path
       d="m 50.568,59.959 a 18.553,18.553 0 0 0 -2.956,0 l 0.246,3.087 a 15.68,15.68 0 0 1 2.464,0 z m -3.883,0.098 a 18.422,18.422 0 0 0 -2.891,0.614 l 0.883,2.968 a 15.467,15.467 0 0 1 2.41,-0.512 c -0.001,10e-4 -0.402,-3.069 -0.402,-3.07 z m -3.779,0.902 a 18.978,18.978 0 0 0 -2.7,1.202 l 1.481,2.72 a 15.865,15.865 0 0 1 2.25,-1.002 z m -3.508,1.669 a 18.536,18.536 0 0 0 -2.391,1.738 l 2.014,2.353 a 15.467,15.467 0 0 1 1.993,-1.448 z m -3.084,2.362 a 19.142,19.142 0 0 0 -1.978,2.196 l 2.459,1.883 a 15.89,15.89 0 0 1 1.648,-1.831 z m -2.526,2.951 a 18.83,18.83 0 0 0 -1.478,2.56 l 2.797,1.33 a 15.588,15.588 0 0 1 1.232,-2.133 z m -1.857,3.412 a 19.091,19.091 0 0 0 -0.913,2.812 l 3.012,0.72 a 15.67,15.67 0 0 1 0.761,-2.342 c -10e-4,-0.002 -2.86,-1.19 -2.86,-1.19 z m -1.108,3.723 a 18.892,18.892 0 0 0 -0.309,2.94 l 3.096,0.078 a 15.542,15.542 0 0 1 0.258,-2.45 z m -0.309,3.873 a 18.94,18.94 0 0 0 0.309,2.94 l 3.045,-0.568 a 15.71,15.71 0 0 1 -0.258,-2.45 z m 0.503,3.852 a 19.028,19.028 0 0 0 0.913,2.812 l 2.86,-1.188 a 15.749,15.749 0 0 1 -0.761,-2.342 c 0,-0.002 -3.011,0.717 -3.012,0.718 z m 1.293,3.663 a 18.888,18.888 0 0 0 1.478,2.56 l 2.55,-1.757 a 15.548,15.548 0 0 1 -1.232,-2.133 z m 2.026,3.314 a 18.678,18.678 0 0 0 1.978,2.196 l 2.129,-2.249 a 15.284,15.284 0 0 1 -1.648,-1.831 c 0,0.002 -2.458,1.884 -2.459,1.884 z m 2.671,2.821 a 19.086,19.086 0 0 0 2.391,1.738 l 1.615,-2.642 A 15.36,15.36 0 0 1 39.02,90.247 Z m 3.199,2.204 a 18.541,18.541 0 0 0 2.7,1.202 l 1.031,-2.92 a 15.593,15.593 0 0 1 -2.25,-1.002 z m 3.588,1.49 a 18.654,18.654 0 0 0 2.891,0.614 l 0.401,-3.071 C 46.682,93.783 46.277,93.714 45.871,93.627 45.465,93.54 45.067,93.439 44.676,93.324 Z m 3.818,0.712 a 18.553,18.553 0 0 0 2.956,0 l -0.246,-3.087 a 15.679,15.679 0 0 1 -2.464,0 z m 3.884,-0.097 a 19.151,19.151 0 0 0 2.892,-0.614 l -0.883,-2.968 a 15.467,15.467 0 0 1 -2.41,0.512 z m 3.778,-0.903 a 18.978,18.978 0 0 0 2.7,-1.202 l -1.481,-2.72 a 15.593,15.593 0 0 1 -2.25,1.002 z m 3.508,-1.669 a 18.536,18.536 0 0 0 2.391,-1.738 l -2.014,-2.353 a 15.467,15.467 0 0 1 -1.993,1.448 z m 3.085,-2.361 a 19.142,19.142 0 0 0 1.978,-2.196 l -2.459,-1.883 a 15.89,15.89 0 0 1 -1.648,1.831 z m 2.526,-2.951 a 18.83,18.83 0 0 0 1.478,-2.56 l -2.797,-1.33 a 15.588,15.588 0 0 1 -1.232,2.133 z M 66.25,85.612 A 19.091,19.091 0 0 0 67.163,82.8 l -3.012,-0.72 a 15.67,15.67 0 0 1 -0.761,2.342 z m 1.107,-3.724 a 18.892,18.892 0 0 0 0.309,-2.94 L 64.57,78.87 a 15.511,15.511 0 0 1 -0.258,2.45 z m 0.309,-3.872 a 18.94,18.94 0 0 0 -0.309,-2.94 l -3.045,0.568 a 15.71,15.71 0 0 1 0.258,2.45 z M 67.163,74.164 A 19.028,19.028 0 0 0 66.25,71.352 l -2.86,1.188 a 15.749,15.749 0 0 1 0.761,2.342 c 0,0.002 3.011,-0.718 3.012,-0.718 z m -1.292,-3.663 a 18.888,18.888 0 0 0 -1.478,-2.56 l -2.55,1.757 a 15.548,15.548 0 0 1 1.232,2.133 z M 63.844,67.186 A 18.678,18.678 0 0 0 61.866,64.99 l -2.129,2.249 a 15.284,15.284 0 0 1 1.648,1.831 z m -2.671,-2.821 a 19.086,19.086 0 0 0 -2.391,-1.738 l -1.615,2.642 a 15.36,15.36 0 0 1 1.993,1.448 z m -3.199,-2.203 a 18.541,18.541 0 0 0 -2.7,-1.202 l -1.031,2.92 a 15.593,15.593 0 0 1 2.25,1.002 z m -3.587,-1.491 a 18.654,18.654 0 0 0 -2.891,-0.614 l -0.401,3.071 a 16.062,16.062 0 0 1 2.41,0.512 z"
       id="path183"
       inkscape:connector-curvature="0" />
  </g>
  <g
     id="g189"
     style="fill:#141518">
    <path
       d="m 3.991,151.677 h 90.198 v 0.881 H 3.991 Z m 0,4.51 h 90.198 v 0.881 H 3.991 Z m 0,4.51 h 90.198 v 0.881 H 3.991 Z m 0,4.51 h 90.198 v 0.881 H 3.991 Z"
       id="path187"
       inkscape:connector-curvature="0" />
  </g>
</svg>
