<?xml version="1.0" encoding="UTF-8" standalone="no"?>
<svg
   xmlns:dc="http://purl.org/dc/elements/1.1/"
   xmlns:cc="http://creativecommons.org/ns#"
   xmlns:rdf="http://www.w3.org/1999/02/22-rdf-syntax-ns#"
   xmlns:svg="http://www.w3.org/2000/svg"
   xmlns="http://www.w3.org/2000/svg"
   xmlns:sodipodi="http://sodipodi.sourceforge.net/DTD/sodipodi-0.dtd"
   xmlns:inkscape="http://www.inkscape.org/namespaces/inkscape"
   viewBox="0 0 96.938001 117.958"
   version="1.1"
   id="svg37"
   sodipodi:docname="game.svg"
   width="96.938004"
   height="117.958"
   inkscape:version="0.92.4 5da689c313, 2019-01-14">
  <metadata
     id="metadata43">
    <rdf:RDF>
      <cc:Work
         rdf:about="">
        <dc:format>image/svg+xml</dc:format>
        <dc:type
           rdf:resource="http://purl.org/dc/dcmitype/StillImage" />
      </cc:Work>
    </rdf:RDF>
  </metadata>
  <defs
     id="defs41" />
  <sodipodi:namedview
     pagecolor="#ffffff"
     bordercolor="#666666"
     borderopacity="1"
     objecttolerance="10"
     gridtolerance="10"
     guidetolerance="10"
     inkscape:pageopacity="0"
     inkscape:pageshadow="2"
     inkscape:window-width="640"
     inkscape:window-height="480"
     id="namedview39"
     showgrid="false"
     inkscape:zoom="2.0007121"
     inkscape:cx="48.469501"
     inkscape:cy="58.979"
     inkscape:window-x="0"
     inkscape:window-y="0"
     inkscape:window-maximized="0"
     inkscape:current-layer="svg37" />
  <path
     d="M 95.068,117.958 H 1.87 A 1.875,1.875 0 0 1 0,116.088 V 1.87 C 0,0.842 0.842,0 1.87,0 h 93.198 c 1.029,0 1.87,0.842 1.87,1.87 v 114.218 a 1.874,1.874 0 0 1 -1.87,1.87 z"
     id="path2"
     inkscape:connector-curvature="0"
     style="fill:#21272b" />
  <path
     d="M 90.409,112.06 H 6.53 A 1.687,1.687 0 0 1 4.847,110.377 V 7.581 c 0,-0.926 0.757,-1.683 1.683,-1.683 h 83.878 c 0.926,0 1.683,0.757 1.683,1.683 v 102.796 a 1.687,1.687 0 0 1 -1.682,1.683 z"
     id="path4"
     inkscape:connector-curvature="0"
     style="fill:#1a181b" />
  <linearGradient
     id="a"
     gradientUnits="userSpaceOnUse"
     x1="48.469002"
     y1="92.859001"
     x2="48.469002"
     y2="29.799999">
    <stop
       offset="0"
       stop-color="#b6b9a6"
       id="stop6" />
    <stop
       offset=".5"
       stop-color="#b5b7a5"
       id="stop8" />
    <stop
       offset=".6"
       stop-color="#507a36"
       id="stop10" />
    <stop
       offset=".7"
       stop-color="#a17440"
       id="stop12" />
    <stop
       offset=".706"
       stop-color="#906a3f"
       id="stop14" />
    <stop
       offset=".722"
       stop-color="#6f553b"
       id="stop16" />
    <stop
       offset=".739"
       stop-color="#574534"
       id="stop18" />
    <stop
       offset=".758"
       stop-color="#44382e"
       id="stop20" />
    <stop
       offset=".779"
       stop-color="#362d28"
       id="stop22" />
    <stop
       offset=".804"
       stop-color="#2a2422"
       id="stop24" />
    <stop
       offset=".836"
       stop-color="#211e1e"
       id="stop26" />
    <stop
       offset=".879"
       stop-color="#1b1a1b"
       id="stop28" />
    <stop
       offset="1"
       stop-color="#1a181b"
       id="stop30" />
  </linearGradient>
  <path
     d="m 13.333,29.8 h 70.273 c 0.667,0 1.212,0.546 1.212,1.212 v 60.634 c 0,0.667 -0.546,1.212 -1.212,1.212 H 13.333 A 1.216,1.216 0 0 1 12.121,91.646 V 31.012 c 0,-0.666 0.545,-1.212 1.212,-1.212 z"
     id="path33"
     inkscape:connector-curvature="0"
     style="fill:url(#a)" />
  <path
     d="m 17.448,91.393 h -0.696 l -0.287,-1.038 h -1.281 l -0.298,1.038 H 14.19 l 1.149,-4.086 c 0.088,-0.316 0.246,-0.475 0.475,-0.475 0.25,0 0.42,0.159 0.508,0.475 z M 19.425,79.41 c 0,1.9 -0.339,3.439 -1.016,4.616 -0.854,1.473 -2.169,2.202 -3.943,2.187 v -1.469 c 2.827,0.022 4.241,-2.234 4.241,-6.77 0,-0.449 -0.011,-1.001 -0.033,-1.657 h 0.751 z m -3.169,10.271 -0.442,-1.59 -0.442,1.59 z m 3.081,-2.175 h -0.906 v 3.887 H 17.735 V 87.506 H 16.83 v -0.674 h 2.507 z m 2.65,3.887 H 21.27 l -0.276,-1.038 h -1.281 l -0.287,1.038 h -0.718 l 1.149,-4.086 c 0.088,-0.316 0.254,-0.475 0.497,-0.475 0.235,0 0.39,0.159 0.464,0.475 z m -1.093,-5.18 h -1.226 v -9.895 h 1.226 z m -0.11,3.468 -0.431,-1.59 -0.453,1.59 z m 5.312,-3.468 h -0.088 c -1.672,0 -2.942,-0.754 -3.81,-2.264 C 21.506,82.727 21.16,81.214 21.16,79.41 v -3.092 h 0.74 c 0,2.481 0.162,4.282 0.486,5.4 0.618,2.143 1.855,3.152 3.711,3.026 v 1.469 z m -1.204,5.18 H 24.086 A 10.01,10.01 0 0 1 23.722,90.94 23.452,23.452 0 0 1 23.369,90.465 c -0.28,-0.405 -0.42,-0.747 -0.42,-1.027 0,-0.235 0.188,-0.46 0.563,-0.674 0.383,-0.206 0.574,-0.431 0.574,-0.674 0,-0.39 -0.188,-0.585 -0.563,-0.585 h -0.685 v 3.887 h -0.674 v -4.086 c 0,-0.316 0.151,-0.475 0.453,-0.475 h 0.906 c 0.324,0 0.614,0.121 0.872,0.364 0.258,0.236 0.387,0.516 0.387,0.839 0,0.692 -0.38,1.16 -1.138,1.403 z m 0.928,0 h -0.685 v -4.561 h 0.685 z m 2.165,-5.578 c 0.196,0 0.382,0.027 0.557,0.08 0.175,0.054 0.326,0.138 0.455,0.255 0.129,0.117 0.221,0.25 0.276,0.4 0.055,0.15 0.084,0.313 0.084,0.489 0,0.187 -0.031,0.366 -0.093,0.537 a 1.113,1.113 0 0 1 -0.279,0.435 1.223,1.223 0 0 1 -0.473,0.271 2.02,2.02 0 0 1 -1.156,0.015 1.297,1.297 0 0 1 -0.462,-0.237 0.947,0.947 0 0 1 -0.288,-0.397 1.37,1.37 0 0 1 -0.094,-0.505 c 0,-0.19 0.035,-0.374 0.103,-0.55 0.07,-0.176 0.17,-0.324 0.301,-0.443 0.131,-0.119 0.291,-0.207 0.479,-0.263 0.189,-0.059 0.386,-0.087 0.59,-0.087 z M 27.98,86.09 c -0.163,0 -0.318,0.022 -0.466,0.066 a 0.94,0.94 0 0 0 -0.62,0.574 1.204,1.204 0 0 0 -0.076,0.427 c 0,0.143 0.028,0.277 0.082,0.401 a 0.833,0.833 0 0 0 0.231,0.309 c 0.099,0.082 0.218,0.141 0.355,0.177 a 1.713,1.713 0 0 0 0.895,-0.009 0.896,0.896 0 0 0 0.598,-0.549 1.231,1.231 0 0 0 0.006,-0.819 0.792,0.792 0 0 0 -0.212,-0.322 0.864,0.864 0 0 0 -0.353,-0.195 1.575,1.575 0 0 0 -0.44,-0.06 z m -0.686,1.673 c 0.025,-0.232 0.043,-0.46 0.051,-0.684 0.008,-0.224 0.012,-0.45 0.012,-0.677 l 0.218,0.003 c 0.045,0 0.107,-0.001 0.187,-0.004 a 6.09,6.09 0 0 1 0.228,-0.005 c 0.153,0 0.262,0.008 0.329,0.024 0.067,0.017 0.122,0.041 0.165,0.074 0.043,0.033 0.075,0.072 0.095,0.117 a 0.412,0.412 0 0 1 -0.003,0.324 0.349,0.349 0 0 1 -0.109,0.138 0.55,0.55 0 0 1 -0.172,0.093 c 0.033,0.085 0.078,0.186 0.136,0.304 0.058,0.117 0.103,0.214 0.136,0.291 -0.099,-0.002 -0.181,-0.002 -0.244,-0.002 L 28.077,87.761 28.01,87.547 27.981,87.46 27.798,86.982 a 0.826,0.826 0 0 0 0.131,0.012 0.396,0.396 0 0 0 0.126,-0.02 0.165,0.165 0 0 0 0.087,-0.062 0.152,0.152 0 0 0 0.028,-0.087 0.113,0.113 0 0 0 -0.023,-0.07 0.128,0.128 0 0 0 -0.073,-0.043 0.664,0.664 0 0 0 -0.157,-0.013 2.67,2.67 0 0 0 -0.134,0.004 c -0.009,0.112 -0.017,0.287 -0.023,0.527 -0.007,0.24 -0.011,0.416 -0.011,0.53 a 7.582,7.582 0 0 0 -0.231,-0.004 z"
     id="path35"
     inkscape:connector-curvature="0" />
</svg>
