<?xml version="1.0" encoding="UTF-8" standalone="no"?>
<svg
   xmlns:dc="http://purl.org/dc/elements/1.1/"
   xmlns:cc="http://creativecommons.org/ns#"
   xmlns:rdf="http://www.w3.org/1999/02/22-rdf-syntax-ns#"
   xmlns:svg="http://www.w3.org/2000/svg"
   xmlns="http://www.w3.org/2000/svg"
   xmlns:sodipodi="http://sodipodi.sourceforge.net/DTD/sodipodi-0.dtd"
   xmlns:inkscape="http://www.inkscape.org/namespaces/inkscape"
   viewBox="0 0 354 223"
   version="1.1"
   id="svg496"
   sodipodi:docname="console.svg"
   width="354"
   height="223"
   inkscape:version="0.92.4 5da689c313, 2019-01-14">
  <metadata
     id="metadata502">
    <rdf:RDF>
      <cc:Work
         rdf:about="">
        <dc:format>image/svg+xml</dc:format>
        <dc:type
           rdf:resource="http://purl.org/dc/dcmitype/StillImage" />
      </cc:Work>
    </rdf:RDF>
  </metadata>
  <defs
     id="defs500" />
  <sodipodi:namedview
     pagecolor="#ffffff"
     bordercolor="#666666"
     borderopacity="1"
     objecttolerance="10"
     gridtolerance="10"
     guidetolerance="10"
     inkscape:pageopacity="0"
     inkscape:pageshadow="2"
     inkscape:window-width="640"
     inkscape:window-height="480"
     id="namedview498"
     showgrid="false"
     inkscape:zoom="0.76553672"
     inkscape:cx="177"
     inkscape:cy="111.5"
     inkscape:window-x="0"
     inkscape:window-y="0"
     inkscape:window-maximized="0"
     inkscape:current-layer="svg496">
    <inkscape:grid
       type="xygrid"
       id="grid1309"
       originx="0"
       originy="0" />
  </sodipodi:namedview>
  <path
     d="M 0,0 H 354 V 223 H 0 Z"
     id="path2"
     inkscape:connector-curvature="0"
     style="fill:#a9a79b" />
  <path
     d="M 348.417,220.333 H 5.583 A 3.008,3.008 0 0 1 2.584,217.334 V 5.666 c 0,-1.65 1.35,-2.999 2.999,-2.999 h 342.835 c 1.65,0 2.999,1.35 2.999,2.999 v 211.668 c 0,1.65 -1.35,2.999 -3,2.999 z"
     id="path4"
     inkscape:connector-curvature="0"
     style="fill:#bfb8a8" />
  <path
     d="m 5.167,48 h 343.667 v 2.938 H 5.167 Z m 0,6 h 343.667 v 2.938 H 5.167 Z"
     id="path6"
     inkscape:connector-curvature="0"
     style="fill:#207ea4" />
  <path
     d="M 2.583,66 H 351.416 V 199.333 H 2.583 Z"
     id="path8"
     inkscape:connector-curvature="0" />
  <path
     d="M 38.484,82.015 V 93.921 H 19.515 V 82.015 Z"
     id="path10"
     inkscape:connector-curvature="0"
     style="fill:#b3afa4" />
  <path
     d="m 36.925,83.574 v 8.788 h -15.85 v -8.788 z"
     id="path12"
     inkscape:connector-curvature="0"
     style="fill:#2b2a28" />
  <path
     d="m 21.499,84 h 15 v 7.938 h -15 z"
     id="path14"
     inkscape:connector-curvature="0"
     style="fill:#bfb6a5" />
  <path
     d="M 62.484,82.015 V 93.921 H 43.515 V 82.015 Z"
     id="path16"
     inkscape:connector-curvature="0"
     style="fill:#b3afa4" />
  <path
     d="m 60.925,83.574 v 8.788 h -15.85 v -8.788 z"
     id="path18"
     inkscape:connector-curvature="0"
     style="fill:#2b2a28" />
  <path
     d="m 45.499,84 h 15 v 7.938 h -15 z"
     id="path20"
     inkscape:connector-curvature="0"
     style="fill:#bfb6a5" />
  <path
     d="M 86.484,82.015 V 93.921 H 67.515 V 82.015 Z"
     id="path22"
     inkscape:connector-curvature="0"
     style="fill:#b3afa4" />
  <path
     d="m 84.925,83.575 v 8.788 h -15.85 v -8.788 z"
     id="path24"
     inkscape:connector-curvature="0"
     style="fill:#2b2a28" />
  <path
     d="m 69.5,84 h 15 v 7.938 h -15 z"
     id="path26"
     inkscape:connector-curvature="0"
     style="fill:#bfb6a5" />
  <path
     d="M 110.484,82.016 V 93.922 H 91.515 V 82.016 Z"
     id="path28"
     inkscape:connector-curvature="0"
     style="fill:#b3afa4" />
  <path
     d="m 108.925,83.575 v 8.788 h -15.85 v -8.788 z"
     id="path30"
     inkscape:connector-curvature="0"
     style="fill:#2b2a28" />
  <path
     d="m 93.5,84 h 15 v 7.938 h -15 z"
     id="path32"
     inkscape:connector-curvature="0"
     style="fill:#bfb6a5" />
  <path
     d="M 134.484,82.016 V 93.922 H 115.515 V 82.016 Z"
     id="path34"
     inkscape:connector-curvature="0"
     style="fill:#b3afa4" />
  <path
     d="m 132.925,83.575 v 8.788 h -15.85 v -8.788 z"
     id="path36"
     inkscape:connector-curvature="0"
     style="fill:#2b2a28" />
  <path
     d="m 117.5,84 h 15 v 7.938 h -15 z"
     id="path38"
     inkscape:connector-curvature="0"
     style="fill:#bfb6a5" />
  <g
     id="g46">
    <path
       d="m 158.485,82.016 v 11.906 h -18.97 V 82.016 Z"
       id="path40"
       inkscape:connector-curvature="0"
       style="fill:#b3afa4" />
    <path
       d="m 156.926,83.575 v 8.788 h -15.851 v -8.788 z"
       id="path42"
       inkscape:connector-curvature="0"
       style="fill:#2b2a28" />
    <path
       d="m 141.5,84 h 15 v 7.938 h -15 z"
       id="path44"
       inkscape:connector-curvature="0"
       style="fill:#bfb6a5" />
  </g>
  <g
     id="g54">
    <path
       d="m 182.485,82.016 v 11.906 h -18.97 V 82.016 Z"
       id="path48"
       inkscape:connector-curvature="0"
       style="fill:#b3afa4" />
    <path
       d="m 180.926,83.575 v 8.788 h -15.851 v -8.788 z"
       id="path50"
       inkscape:connector-curvature="0"
       style="fill:#2b2a28" />
    <path
       d="m 165.5,84 h 15 v 7.938 h -15 z"
       id="path52"
       inkscape:connector-curvature="0"
       style="fill:#bfb6a5" />
  </g>
  <g
     id="g62">
    <path
       d="m 206.485,82.016 v 11.906 h -18.97 V 82.016 Z"
       id="path56"
       inkscape:connector-curvature="0"
       style="fill:#b3afa4" />
    <path
       d="m 204.926,83.575 v 8.788 h -15.851 v -8.788 z"
       id="path58"
       inkscape:connector-curvature="0"
       style="fill:#2b2a28" />
    <path
       d="m 189.5,84 h 15 v 7.938 h -15 z"
       id="path60"
       inkscape:connector-curvature="0"
       style="fill:#bfb6a5" />
  </g>
  <g
     id="g70">
    <path
       d="m 230.485,82.016 v 11.906 h -18.97 V 82.016 Z"
       id="path64"
       inkscape:connector-curvature="0"
       style="fill:#b3afa4" />
    <path
       d="m 228.926,83.575 v 8.788 h -15.851 v -8.788 z"
       id="path66"
       inkscape:connector-curvature="0"
       style="fill:#2b2a28" />
    <path
       d="m 213.5,84 h 15 v 7.938 h -15 z"
       id="path68"
       inkscape:connector-curvature="0"
       style="fill:#bfb6a5" />
  </g>
  <g
     id="g78">
    <path
       d="M 254.485,82.015 V 93.921 H 235.516 V 82.015 Z"
       id="path72"
       inkscape:connector-curvature="0"
       style="fill:#b3afa4" />
    <path
       d="m 252.926,83.574 v 8.788 h -15.851 v -8.788 z"
       id="path74"
       inkscape:connector-curvature="0"
       style="fill:#2b2a28" />
    <path
       d="m 237.5,84 h 15 v 7.938 h -15 z"
       id="path76"
       inkscape:connector-curvature="0"
       style="fill:#bfb6a5" />
  </g>
  <g
     id="g86">
    <path
       d="M 278.485,82.015 V 93.921 H 259.516 V 82.015 Z"
       id="path80"
       inkscape:connector-curvature="0"
       style="fill:#b3afa4" />
    <path
       d="m 276.926,83.574 v 8.788 h -15.85 v -8.788 z"
       id="path82"
       inkscape:connector-curvature="0"
       style="fill:#2b2a28" />
    <path
       d="m 261.5,84 h 15 v 7.938 h -15 z"
       id="path84"
       inkscape:connector-curvature="0"
       style="fill:#bfb6a5" />
  </g>
  <g
     id="g94">
    <path
       d="M 302.485,82.015 V 93.921 H 283.516 V 82.015 Z"
       id="path88"
       inkscape:connector-curvature="0"
       style="fill:#b3afa4" />
    <path
       d="m 300.926,83.574 v 8.788 h -15.85 v -8.788 z"
       id="path90"
       inkscape:connector-curvature="0"
       style="fill:#2b2a28" />
    <path
       d="m 285.5,84 h 15 v 7.938 h -15 z"
       id="path92"
       inkscape:connector-curvature="0"
       style="fill:#bfb6a5" />
  </g>
  <g
     id="g102">
    <path
       d="M 326.485,82.015 V 93.921 H 307.516 V 82.015 Z"
       id="path96"
       inkscape:connector-curvature="0"
       style="fill:#b3afa4" />
    <path
       d="m 324.926,83.574 v 8.788 h -15.85 v -8.788 z"
       id="path98"
       inkscape:connector-curvature="0"
       style="fill:#2b2a28" />
    <path
       d="m 309.501,84 h 15 v 7.938 h -15 z"
       id="path100"
       inkscape:connector-curvature="0"
       style="fill:#bfb6a5" />
  </g>
  <g
     id="g206">
    <path
       d="m 27.484,106.046 v 11.906 H 8.514 v -11.906 z"
       id="path104"
       inkscape:connector-curvature="0"
       style="fill:#b3afa4" />
    <path
       d="m 25.925,107.605 v 8.788 H 10.074 v -8.788 z"
       id="path106"
       inkscape:connector-curvature="0"
       style="fill:#2b2a28" />
    <path
       d="m 10.499,108.031 h 15 v 7.938 h -15 z"
       id="path108"
       inkscape:connector-curvature="0"
       style="fill:#bfb6a5" />
    <path
       d="m 51.484,106.046 v 11.906 h -18.97 v -11.906 z"
       id="path110"
       inkscape:connector-curvature="0"
       style="fill:#b3afa4" />
    <path
       d="m 49.925,107.605 v 8.788 H 34.074 v -8.788 z"
       id="path112"
       inkscape:connector-curvature="0"
       style="fill:#2b2a28" />
    <path
       d="m 34.499,108.031 h 15 v 7.938 h -15 z"
       id="path114"
       inkscape:connector-curvature="0"
       style="fill:#bfb6a5" />
    <path
       d="m 75.484,106.046 v 11.906 h -18.97 v -11.906 z"
       id="path116"
       inkscape:connector-curvature="0"
       style="fill:#b3afa4" />
    <path
       d="m 73.925,107.606 v 8.788 H 58.074 v -8.788 z"
       id="path118"
       inkscape:connector-curvature="0"
       style="fill:#2b2a28" />
    <path
       d="m 58.5,108.031 h 15 v 7.938 h -15 z"
       id="path120"
       inkscape:connector-curvature="0"
       style="fill:#bfb6a5" />
    <path
       d="m 99.484,106.047 v 11.906 h -18.97 v -11.906 z"
       id="path122"
       inkscape:connector-curvature="0"
       style="fill:#b3afa4" />
    <path
       d="m 97.925,107.606 v 8.788 H 82.074 v -8.788 z"
       id="path124"
       inkscape:connector-curvature="0"
       style="fill:#2b2a28" />
    <path
       d="m 82.5,108.031 h 15 v 7.938 h -15 z"
       id="path126"
       inkscape:connector-curvature="0"
       style="fill:#bfb6a5" />
    <path
       d="m 123.484,106.047 v 11.906 h -18.97 v -11.906 z"
       id="path128"
       inkscape:connector-curvature="0"
       style="fill:#b3afa4" />
    <path
       d="m 121.925,107.606 v 8.788 h -15.851 v -8.788 z"
       id="path130"
       inkscape:connector-curvature="0"
       style="fill:#2b2a28" />
    <path
       d="m 106.5,108.031 h 15 v 7.938 h -15 z"
       id="path132"
       inkscape:connector-curvature="0"
       style="fill:#bfb6a5" />
    <g
       id="g140">
      <path
         d="m 147.484,106.047 v 11.906 h -18.97 v -11.906 z"
         id="path134"
         inkscape:connector-curvature="0"
         style="fill:#b3afa4" />
      <path
         d="m 145.925,107.606 v 8.788 h -15.851 v -8.788 z"
         id="path136"
         inkscape:connector-curvature="0"
         style="fill:#2b2a28" />
      <path
         d="m 130.5,108.031 h 15 v 7.938 h -15 z"
         id="path138"
         inkscape:connector-curvature="0"
         style="fill:#bfb6a5" />
    </g>
    <g
       id="g148">
      <path
         d="m 171.484,106.047 v 11.906 h -18.97 v -11.906 z"
         id="path142"
         inkscape:connector-curvature="0"
         style="fill:#b3afa4" />
      <path
         d="m 169.925,107.606 v 8.788 h -15.851 v -8.788 z"
         id="path144"
         inkscape:connector-curvature="0"
         style="fill:#2b2a28" />
      <path
         d="m 154.5,108.031 h 15 v 7.938 h -15 z"
         id="path146"
         inkscape:connector-curvature="0"
         style="fill:#bfb6a5" />
    </g>
    <g
       id="g156">
      <path
         d="m 195.484,106.047 v 11.906 h -18.969 v -11.906 z"
         id="path150"
         inkscape:connector-curvature="0"
         style="fill:#b3afa4" />
      <path
         d="m 193.925,107.606 v 8.788 h -15.85 v -8.788 z"
         id="path152"
         inkscape:connector-curvature="0"
         style="fill:#2b2a28" />
      <path
         d="m 178.5,108.031 h 15 v 7.938 h -15 z"
         id="path154"
         inkscape:connector-curvature="0"
         style="fill:#bfb6a5" />
    </g>
    <g
       id="g164">
      <path
         d="m 219.484,106.047 v 11.906 h -18.969 v -11.906 z"
         id="path158"
         inkscape:connector-curvature="0"
         style="fill:#b3afa4" />
      <path
         d="m 217.925,107.606 v 8.788 h -15.85 v -8.788 z"
         id="path160"
         inkscape:connector-curvature="0"
         style="fill:#2b2a28" />
      <path
         d="m 202.5,108.031 h 15 v 7.938 h -15 z"
         id="path162"
         inkscape:connector-curvature="0"
         style="fill:#bfb6a5" />
    </g>
    <g
       id="g172">
      <path
         d="m 243.484,106.047 v 11.906 h -18.969 v -11.906 z"
         id="path166"
         inkscape:connector-curvature="0"
         style="fill:#b3afa4" />
      <path
         d="m 241.925,107.606 v 8.788 h -15.85 v -8.788 z"
         id="path168"
         inkscape:connector-curvature="0"
         style="fill:#2b2a28" />
      <path
         d="m 226.5,108.031 h 15 v 7.938 h -15 z"
         id="path170"
         inkscape:connector-curvature="0"
         style="fill:#bfb6a5" />
    </g>
    <g
       id="g180">
      <path
         d="m 267.484,106.047 v 11.906 h -18.969 v -11.906 z"
         id="path174"
         inkscape:connector-curvature="0"
         style="fill:#b3afa4" />
      <path
         d="m 265.925,107.606 v 8.788 h -15.85 v -8.788 z"
         id="path176"
         inkscape:connector-curvature="0"
         style="fill:#2b2a28" />
      <path
         d="m 250.5,108.031 h 15 v 7.938 h -15 z"
         id="path178"
         inkscape:connector-curvature="0"
         style="fill:#bfb6a5" />
    </g>
    <g
       id="g188">
      <path
         d="m 291.484,106.047 v 11.906 h -18.969 v -11.906 z"
         id="path182"
         inkscape:connector-curvature="0"
         style="fill:#b3afa4" />
      <path
         d="m 289.925,107.606 v 8.788 h -15.85 v -8.788 z"
         id="path184"
         inkscape:connector-curvature="0"
         style="fill:#2b2a28" />
      <path
         d="m 274.5,108.031 h 15 v 7.938 h -15 z"
         id="path186"
         inkscape:connector-curvature="0"
         style="fill:#bfb6a5" />
    </g>
    <g
       id="g196">
      <path
         d="m 315.484,106.047 v 11.906 h -18.969 v -11.906 z"
         id="path190"
         inkscape:connector-curvature="0"
         style="fill:#b3afa4" />
      <path
         d="m 313.925,107.606 v 8.788 h -15.85 v -8.788 z"
         id="path192"
         inkscape:connector-curvature="0"
         style="fill:#2b2a28" />
      <path
         d="m 298.501,108.031 h 15 v 7.938 h -15 z"
         id="path194"
         inkscape:connector-curvature="0"
         style="fill:#bfb6a5" />
    </g>
    <g
       id="g204">
      <path
         d="m 339.485,106.046 v 11.906 h -18.97 v -11.906 z"
         id="path198"
         inkscape:connector-curvature="0"
         style="fill:#b3afa4" />
      <path
         d="m 337.926,107.606 v 8.788 h -15.851 v -8.788 z"
         id="path200"
         inkscape:connector-curvature="0"
         style="fill:#2b2a28" />
      <path
         d="m 322.501,108.031 h 15 v 7.938 h -15 z"
         id="path202"
         inkscape:connector-curvature="0"
         style="fill:#bfb6a5" />
    </g>
  </g>
  <g
     id="g300">
    <path
       d="m 33.984,130.078 v 11.906 h -18.97 v -11.906 z"
       id="path208"
       inkscape:connector-curvature="0"
       style="fill:#b3afa4" />
    <path
       d="m 32.425,131.637 v 8.788 H 16.574 v -8.788 z"
       id="path210"
       inkscape:connector-curvature="0"
       style="fill:#2b2a28" />
    <path
       d="m 16.999,132.063 h 15 V 140 h -15 z"
       id="path212"
       inkscape:connector-curvature="0"
       style="fill:#bfb6a5" />
    <path
       d="m 57.984,130.078 v 11.906 h -18.97 v -11.906 z"
       id="path214"
       inkscape:connector-curvature="0"
       style="fill:#b3afa4" />
    <path
       d="m 56.425,131.637 v 8.788 H 40.574 v -8.788 z"
       id="path216"
       inkscape:connector-curvature="0"
       style="fill:#2b2a28" />
    <path
       d="m 40.999,132.063 h 15 V 140 h -15 z"
       id="path218"
       inkscape:connector-curvature="0"
       style="fill:#bfb6a5" />
    <path
       d="m 81.984,130.078 v 11.906 h -18.97 v -11.906 z"
       id="path220"
       inkscape:connector-curvature="0"
       style="fill:#b3afa4" />
    <path
       d="m 80.425,131.638 v 8.788 H 64.574 v -8.788 z"
       id="path222"
       inkscape:connector-curvature="0"
       style="fill:#2b2a28" />
    <path
       d="M 65,132.063 H 80 V 140 H 65 Z"
       id="path224"
       inkscape:connector-curvature="0"
       style="fill:#bfb6a5" />
    <path
       d="m 105.984,130.079 v 11.906 h -18.97 v -11.906 z"
       id="path226"
       inkscape:connector-curvature="0"
       style="fill:#b3afa4" />
    <path
       d="m 104.425,131.638 v 8.788 H 88.574 v -8.788 z"
       id="path228"
       inkscape:connector-curvature="0"
       style="fill:#2b2a28" />
    <path
       d="m 89,132.063 h 15 V 140 H 89 Z"
       id="path230"
       inkscape:connector-curvature="0"
       style="fill:#bfb6a5" />
    <path
       d="m 129.984,130.078 v 11.906 h -18.969 v -11.906 z"
       id="path232"
       inkscape:connector-curvature="0"
       style="fill:#b3afa4" />
    <path
       d="m 128.425,131.637 v 8.788 h -15.851 v -8.788 z"
       id="path234"
       inkscape:connector-curvature="0"
       style="fill:#2b2a28" />
    <path
       d="m 113,132.063 h 15 V 140 h -15 z"
       id="path236"
       inkscape:connector-curvature="0"
       style="fill:#bfb6a5" />
    <g
       id="g244">
      <path
         d="m 153.984,130.078 v 11.906 h -18.969 v -11.906 z"
         id="path238"
         inkscape:connector-curvature="0"
         style="fill:#b3afa4" />
      <path
         d="m 152.425,131.637 v 8.788 h -15.85 v -8.788 z"
         id="path240"
         inkscape:connector-curvature="0"
         style="fill:#2b2a28" />
      <path
         d="m 137,132.063 h 15 V 140 h -15 z"
         id="path242"
         inkscape:connector-curvature="0"
         style="fill:#bfb6a5" />
    </g>
    <g
       id="g252">
      <path
         d="m 177.984,130.078 v 11.906 h -18.969 v -11.906 z"
         id="path246"
         inkscape:connector-curvature="0"
         style="fill:#b3afa4" />
      <path
         d="m 176.425,131.637 v 8.788 h -15.85 v -8.788 z"
         id="path248"
         inkscape:connector-curvature="0"
         style="fill:#2b2a28" />
      <path
         d="m 161,132.063 h 15 V 140 h -15 z"
         id="path250"
         inkscape:connector-curvature="0"
         style="fill:#bfb6a5" />
    </g>
    <g
       id="g260">
      <path
         d="m 201.984,130.078 v 11.906 h -18.969 v -11.906 z"
         id="path254"
         inkscape:connector-curvature="0"
         style="fill:#b3afa4" />
      <path
         d="m 200.425,131.637 v 8.788 h -15.85 v -8.788 z"
         id="path256"
         inkscape:connector-curvature="0"
         style="fill:#2b2a28" />
      <path
         d="m 185,132.063 h 15 V 140 h -15 z"
         id="path258"
         inkscape:connector-curvature="0"
         style="fill:#bfb6a5" />
    </g>
    <g
       id="g268">
      <path
         d="m 225.984,130.078 v 11.906 h -18.969 v -11.906 z"
         id="path262"
         inkscape:connector-curvature="0"
         style="fill:#b3afa4" />
      <path
         d="m 224.425,131.637 v 8.788 h -15.85 v -8.788 z"
         id="path264"
         inkscape:connector-curvature="0"
         style="fill:#2b2a28" />
      <path
         d="m 209,132.063 h 15 V 140 h -15 z"
         id="path266"
         inkscape:connector-curvature="0"
         style="fill:#bfb6a5" />
    </g>
    <g
       id="g276">
      <path
         d="m 249.984,130.078 v 11.906 h -18.969 v -11.906 z"
         id="path270"
         inkscape:connector-curvature="0"
         style="fill:#b3afa4" />
      <path
         d="m 248.425,131.637 v 8.788 h -15.85 v -8.788 z"
         id="path272"
         inkscape:connector-curvature="0"
         style="fill:#2b2a28" />
      <path
         d="m 233,132.063 h 15 V 140 h -15 z"
         id="path274"
         inkscape:connector-curvature="0"
         style="fill:#bfb6a5" />
    </g>
    <g
       id="g284">
      <path
         d="m 273.985,130.078 v 11.906 h -18.97 v -11.906 z"
         id="path278"
         inkscape:connector-curvature="0"
         style="fill:#b3afa4" />
      <path
         d="m 272.426,131.637 v 8.788 h -15.851 v -8.788 z"
         id="path280"
         inkscape:connector-curvature="0"
         style="fill:#2b2a28" />
      <path
         d="m 257,132.063 h 15 V 140 h -15 z"
         id="path282"
         inkscape:connector-curvature="0"
         style="fill:#bfb6a5" />
    </g>
    <g
       id="g292">
      <path
         d="m 297.985,130.078 v 11.906 h -18.97 v -11.906 z"
         id="path286"
         inkscape:connector-curvature="0"
         style="fill:#b3afa4" />
      <path
         d="m 296.426,131.637 v 8.788 h -15.851 v -8.788 z"
         id="path288"
         inkscape:connector-curvature="0"
         style="fill:#2b2a28" />
      <path
         d="m 281,132.063 h 15 V 140 h -15 z"
         id="path290"
         inkscape:connector-curvature="0"
         style="fill:#bfb6a5" />
    </g>
    <path
       d="m 343.967,130.078 v 11.906 h -40.951 v -11.906 z"
       id="path294"
       inkscape:connector-curvature="0"
       style="fill:#b3afa4" />
    <path
       d="m 342.408,131.638 v 8.787 h -37.832 v -8.787 z"
       id="path296"
       inkscape:connector-curvature="0"
       style="fill:#2b2a28" />
    <path
       d="m 305.001,132.063 h 36.982 V 140 h -36.982 z"
       id="path298"
       inkscape:connector-curvature="0"
       style="fill:#bfb6a5" />
  </g>
  <g
     id="g390">
    <path
       d="m 44.484,154.109 v 11.906 H 25.515 v -11.906 z"
       id="path302"
       inkscape:connector-curvature="0"
       style="fill:#b3afa4" />
    <path
       d="m 42.925,155.668 v 8.788 H 27.074 v -8.788 z"
       id="path304"
       inkscape:connector-curvature="0"
       style="fill:#2b2a28" />
    <path
       d="m 27.499,156.094 h 15 v 7.938 h -15 z"
       id="path306"
       inkscape:connector-curvature="0"
       style="fill:#bfb6a5" />
    <path
       d="m 68.484,154.109 v 11.906 H 49.515 v -11.906 z"
       id="path308"
       inkscape:connector-curvature="0"
       style="fill:#b3afa4" />
    <path
       d="m 66.925,155.668 v 8.788 H 51.074 v -8.788 z"
       id="path310"
       inkscape:connector-curvature="0"
       style="fill:#2b2a28" />
    <path
       d="m 51.499,156.094 h 15 v 7.938 h -15 z"
       id="path312"
       inkscape:connector-curvature="0"
       style="fill:#bfb6a5" />
    <path
       d="m 92.484,154.109 v 11.906 H 73.515 v -11.906 z"
       id="path314"
       inkscape:connector-curvature="0"
       style="fill:#b3afa4" />
    <path
       d="m 90.925,155.669 v 8.788 h -15.85 v -8.788 z"
       id="path316"
       inkscape:connector-curvature="0"
       style="fill:#2b2a28" />
    <path
       d="m 75.5,156.094 h 15 v 7.938 h -15 z"
       id="path318"
       inkscape:connector-curvature="0"
       style="fill:#bfb6a5" />
    <path
       d="m 116.484,154.11 v 11.906 H 97.515 V 154.11 Z"
       id="path320"
       inkscape:connector-curvature="0"
       style="fill:#b3afa4" />
    <path
       d="m 114.925,155.669 v 8.788 h -15.85 v -8.788 z"
       id="path322"
       inkscape:connector-curvature="0"
       style="fill:#2b2a28" />
    <path
       d="m 99.5,156.094 h 15 v 7.938 h -15 z"
       id="path324"
       inkscape:connector-curvature="0"
       style="fill:#bfb6a5" />
    <g
       id="g332">
      <path
         d="m 140.484,154.11 v 11.906 H 121.515 V 154.11 Z"
         id="path326"
         inkscape:connector-curvature="0"
         style="fill:#b3afa4" />
      <path
         d="m 138.925,155.669 v 8.788 h -15.85 v -8.788 z"
         id="path328"
         inkscape:connector-curvature="0"
         style="fill:#2b2a28" />
      <path
         d="m 123.5,156.094 h 15 v 7.938 h -15 z"
         id="path330"
         inkscape:connector-curvature="0"
         style="fill:#bfb6a5" />
    </g>
    <g
       id="g340">
      <path
         d="m 164.484,154.11 v 11.906 H 145.515 V 154.11 Z"
         id="path334"
         inkscape:connector-curvature="0"
         style="fill:#b3afa4" />
      <path
         d="m 162.925,155.669 v 8.788 h -15.85 v -8.788 z"
         id="path336"
         inkscape:connector-curvature="0"
         style="fill:#2b2a28" />
      <path
         d="m 147.5,156.094 h 15 v 7.938 h -15 z"
         id="path338"
         inkscape:connector-curvature="0"
         style="fill:#bfb6a5" />
    </g>
    <g
       id="g348">
      <path
         d="m 188.484,154.11 v 11.905 H 169.515 V 154.11 Z"
         id="path342"
         inkscape:connector-curvature="0"
         style="fill:#b3afa4" />
      <path
         d="m 186.925,155.668 v 8.788 h -15.85 v -8.788 z"
         id="path344"
         inkscape:connector-curvature="0"
         style="fill:#2b2a28" />
      <path
         d="m 171.5,156.094 h 15 v 7.938 h -15 z"
         id="path346"
         inkscape:connector-curvature="0"
         style="fill:#bfb6a5" />
    </g>
    <g
       id="g356">
      <path
         d="m 212.485,154.11 v 11.905 h -18.97 V 154.11 Z"
         id="path350"
         inkscape:connector-curvature="0"
         style="fill:#b3afa4" />
      <path
         d="m 210.926,155.668 v 8.788 h -15.851 v -8.788 z"
         id="path352"
         inkscape:connector-curvature="0"
         style="fill:#2b2a28" />
      <path
         d="m 195.5,156.094 h 15 v 7.938 h -15 z"
         id="path354"
         inkscape:connector-curvature="0"
         style="fill:#bfb6a5" />
    </g>
    <g
       id="g364">
      <path
         d="m 236.485,154.11 v 11.905 h -18.97 V 154.11 Z"
         id="path358"
         inkscape:connector-curvature="0"
         style="fill:#b3afa4" />
      <path
         d="m 234.926,155.668 v 8.788 h -15.851 v -8.788 z"
         id="path360"
         inkscape:connector-curvature="0"
         style="fill:#2b2a28" />
      <path
         d="m 219.5,156.094 h 15 v 7.938 h -15 z"
         id="path362"
         inkscape:connector-curvature="0"
         style="fill:#bfb6a5" />
    </g>
    <g
       id="g372">
      <path
         d="m 260.485,154.11 v 11.905 h -18.97 V 154.11 Z"
         id="path366"
         inkscape:connector-curvature="0"
         style="fill:#b3afa4" />
      <path
         d="m 258.926,155.668 v 8.788 h -15.851 v -8.788 z"
         id="path368"
         inkscape:connector-curvature="0"
         style="fill:#2b2a28" />
      <path
         d="m 243.5,156.094 h 15 v 7.938 h -15 z"
         id="path370"
         inkscape:connector-curvature="0"
         style="fill:#bfb6a5" />
    </g>
    <g
       id="g380">
      <path
         d="m 284.485,154.11 v 11.905 h -18.97 V 154.11 Z"
         id="path374"
         inkscape:connector-curvature="0"
         style="fill:#b3afa4" />
      <path
         d="m 282.926,155.668 v 8.788 h -15.851 v -8.788 z"
         id="path376"
         inkscape:connector-curvature="0"
         style="fill:#2b2a28" />
      <path
         d="m 267.5,156.094 h 15 v 7.938 h -15 z"
         id="path378"
         inkscape:connector-curvature="0"
         style="fill:#bfb6a5" />
    </g>
    <g
       id="g388">
      <path
         d="m 308.485,154.11 v 11.905 h -18.97 V 154.11 Z"
         id="path382"
         inkscape:connector-curvature="0"
         style="fill:#b3afa4" />
      <path
         d="m 306.926,155.668 v 8.788 h -15.851 v -8.788 z"
         id="path384"
         inkscape:connector-curvature="0"
         style="fill:#2b2a28" />
      <path
         d="m 291.5,156.094 h 15 v 7.938 h -15 z"
         id="path386"
         inkscape:connector-curvature="0"
         style="fill:#bfb6a5" />
    </g>
  </g>
  <g
     id="g428">
    <path
       d="m 93.484,178.14 v 11.906 H 74.515 V 178.14 Z"
       id="path392"
       inkscape:connector-curvature="0"
       style="fill:#b3afa4" />
    <path
       d="m 91.925,179.7 v 8.788 H 76.075 V 179.7 Z"
       id="path394"
       inkscape:connector-curvature="0"
       style="fill:#2b2a28" />
    <path
       d="m 76.5,180.125 h 15 v 7.938 h -15 z"
       id="path396"
       inkscape:connector-curvature="0"
       style="fill:#bfb6a5" />
    <path
       d="m 117.484,178.141 v 11.906 H 98.515 v -11.906 z"
       id="path398"
       inkscape:connector-curvature="0"
       style="fill:#b3afa4" />
    <path
       d="m 115.925,179.7 v 8.788 h -15.85 V 179.7 Z"
       id="path400"
       inkscape:connector-curvature="0"
       style="fill:#2b2a28" />
    <path
       d="m 100.5,180.125 h 15 v 7.938 h -15 z"
       id="path402"
       inkscape:connector-curvature="0"
       style="fill:#bfb6a5" />
    <g
       id="g410">
      <path
         d="m 237.485,178.14 v 11.907 H 122.515 V 178.14 Z"
         id="path404"
         inkscape:connector-curvature="0"
         style="fill:#b3afa4" />
      <path
         d="m 235.925,179.7 v 8.787 H 124.075 V 179.7 Z"
         id="path406"
         inkscape:connector-curvature="0"
         style="fill:#2b2a28" />
      <path
         d="m 124.5,180.125 h 111 v 7.938 h -111 z"
         id="path408"
         inkscape:connector-curvature="0"
         style="fill:#bfb6a5" />
    </g>
    <g
       id="g418">
      <path
         d="m 261.485,178.14 v 11.906 H 242.516 V 178.14 Z"
         id="path412"
         inkscape:connector-curvature="0"
         style="fill:#b3afa4" />
      <path
         d="m 259.926,179.7 v 8.787 H 244.075 V 179.7 Z"
         id="path414"
         inkscape:connector-curvature="0"
         style="fill:#2b2a28" />
      <path
         d="m 244.5,180.125 h 15 v 7.938 h -15 z"
         id="path416"
         inkscape:connector-curvature="0"
         style="fill:#bfb6a5" />
    </g>
    <g
       id="g426">
      <path
         d="m 285.485,178.14 v 11.906 H 266.516 V 178.14 Z"
         id="path420"
         inkscape:connector-curvature="0"
         style="fill:#b3afa4" />
      <path
         d="m 283.926,179.7 v 8.787 h -15.85 V 179.7 Z"
         id="path422"
         inkscape:connector-curvature="0"
         style="fill:#2b2a28" />
      <path
         d="m 268.5,180.125 h 15 v 7.938 h -15 z"
         id="path424"
         inkscape:connector-curvature="0"
         style="fill:#bfb6a5" />
    </g>
  </g>
  <path
     d="M 327.441,26.667 H 277.358 A 2.465,2.465 0 0 1 274.9,24.209 V 12.792 a 2.465,2.465 0 0 1 2.458,-2.458 h 50.083 a 2.465,2.465 0 0 1 2.458,2.458 v 11.417 a 2.466,2.466 0 0 1 -2.458,2.458 z"
     id="path430"
     inkscape:connector-curvature="0"
     style="fill:#0c0a0b" />
  <g
     id="g434"
     style="fill:#bab7b2">
    <path
       d="m 282.771,18.506 c 0,-1.256 0.448,-2.278 1.343,-3.068 0.896,-0.79 1.954,-1.185 3.178,-1.185 1.19,0 2.229,0.393 3.116,1.179 0.887,0.786 1.331,1.794 1.331,3.025 0,1.272 -0.438,2.305 -1.313,3.098 -0.875,0.794 -1.932,1.191 -3.172,1.191 -1.247,0 -2.307,-0.381 -3.177,-1.142 -0.871,-0.761 -1.307,-1.79 -1.307,-3.086 v -0.012 z m 2.102,0 c 0,0.753 0.192,1.438 0.577,2.053 0.385,0.615 0.994,0.923 1.828,0.923 0.745,0 1.311,-0.279 1.695,-0.838 0.384,-0.559 0.602,-1.174 0.65,-1.847 a 0.899,0.899 0 0 0 0.012,-0.146 v -0.146 c 0,-0.057 -0.002,-0.114 -0.006,-0.17 -0.004,-0.056 -0.006,-0.113 -0.006,-0.17 -0.058,-0.656 -0.273,-1.26 -0.65,-1.811 -0.377,-0.551 -0.938,-0.826 -1.683,-0.826 -0.843,0 -1.456,0.31 -1.841,0.93 -0.385,0.62 -0.577,1.306 -0.577,2.059 v -0.011 z m 10.316,2.807 c 0,0.203 0.034,0.358 0.103,0.468 0.069,0.109 0.205,0.172 0.407,0.188 v 0.571 h -3.062 v -0.583 c 0.187,-0.008 0.317,-0.069 0.395,-0.183 a 0.785,0.785 0 0 0 0.115,-0.449 v -5.65 c 0,-0.211 -0.034,-0.363 -0.103,-0.456 -0.069,-0.093 -0.205,-0.156 -0.407,-0.188 v -0.596 h 4.338 c 0.016,0.008 0.03,0.012 0.042,0.012 h 0.03 c 0.673,0.008 1.29,0.181 1.854,0.517 0.563,0.336 0.864,0.885 0.905,1.646 0,0.559 -0.164,1.035 -0.492,1.427 -0.328,0.393 -0.756,0.67 -1.282,0.833 l 1.458,2.43 c 0.024,0.048 0.047,0.089 0.066,0.122 0.021,0.032 0.043,0.065 0.067,0.097 0.073,0.105 0.151,0.194 0.237,0.267 0.085,0.073 0.204,0.134 0.358,0.182 v 0.571 h -2.309 l -2.054,-3.463 h -0.668 v 2.237 z m 0.996,-3.39 c 0.381,0.008 0.729,-0.067 1.045,-0.225 0.315,-0.158 0.474,-0.464 0.474,-0.917 0,-0.453 -0.142,-0.766 -0.425,-0.936 -0.284,-0.17 -0.628,-0.255 -1.033,-0.255 h -1.057 v 2.333 z m 7.667,-3.487 v 0.583 l -0.146,0.024 c -0.129,0.024 -0.219,0.085 -0.267,0.182 a 1.04,1.04 0 0 0 -0.098,0.316 v 5.772 c 0,0.203 0.034,0.358 0.104,0.468 0.068,0.109 0.204,0.172 0.407,0.188 v 0.571 h -3.063 v -0.583 c 0.187,-0.008 0.318,-0.069 0.396,-0.183 a 0.793,0.793 0 0 0 0.115,-0.449 v -5.65 c 0,-0.211 -0.034,-0.363 -0.104,-0.456 -0.068,-0.093 -0.204,-0.156 -0.407,-0.188 v -0.596 h 3.063 z m 8.541,8.104 c -0.187,0.049 -0.374,0.087 -0.564,0.115 -0.19,0.028 -0.383,0.051 -0.577,0.067 a 12.04,12.04 0 0 1 -0.766,0.025 h -0.268 a 2.98,2.98 0 0 1 -0.267,-0.012 8.768,8.768 0 0 1 -1.914,-0.31 4.665,4.665 0 0 1 -1.707,-0.881 4.316,4.316 0 0 1 -1.16,-1.47 4.112,4.112 0 0 1 -0.42,-1.823 c 0,-1.223 0.458,-2.195 1.373,-2.916 0.916,-0.721 1.944,-1.082 3.087,-1.082 0.696,0 1.336,0.127 1.919,0.383 0.584,0.255 1.094,0.658 1.531,1.209 l -1.519,1.592 -0.547,-0.34 a 0.828,0.828 0 0 0 0.159,-0.4 c 0,-0.413 -0.154,-0.721 -0.462,-0.923 -0.308,-0.202 -0.652,-0.304 -1.033,-0.304 -0.777,0 -1.347,0.253 -1.707,0.759 -0.36,0.506 -0.54,1.12 -0.54,1.841 0,0.858 0.279,1.638 0.838,2.339 0.559,0.701 1.292,1.051 2.199,1.051 a 3.821,3.821 0 0 0 0.426,-0.024 c 0.274,-0.033 0.532,-0.114 0.771,-0.243 0.238,-0.129 0.402,-0.336 0.491,-0.62 l 0.656,-0.012 v 1.979 z m 4.527,-4.817 v 1.519 h -3.859 v -1.519 z m 0.479,-1.246 v -0.851 c 0.445,-0.082 0.839,-0.211 1.179,-0.387 0.34,-0.176 0.651,-0.444 0.936,-0.804 l 1.409,-0.012 v 6.45 c 0,0.422 0.092,0.696 0.273,0.822 0.183,0.126 0.46,0.188 0.832,0.188 v 0.656 h -4.203 v -0.656 a 0.107,0.107 0 0 0 0.048,0.012 h 0.049 c 0.259,-0.024 0.496,-0.085 0.711,-0.183 0.215,-0.097 0.322,-0.304 0.322,-0.621 v -4.98 a 3.02,3.02 0 0 1 -1.326,0.365 0.584,0.584 0 0 1 -0.115,0.012 h -0.115 z"
       id="path432"
       inkscape:connector-curvature="0" />
  </g>
  <g
     id="g448">
    <g
       id="g438"
       style="fill:#78786e">
      <path
         d="m 320.922,19.831 h -1.968 v 1.243 c 0,0.317 -0.107,0.524 -0.322,0.621 a 2.214,2.214 0 0 1 -0.711,0.183 h -0.049 a 0.107,0.107 0 0 1 -0.048,-0.012 v 0.656 h 4.203 v -0.656 c -0.372,0 -0.649,-0.063 -0.832,-0.188 -0.182,-0.125 -0.273,-0.399 -0.273,-0.822 z m -22.303,0 h -2.304 l 1.596,2.691 h 2.309 v -0.571 a 1.005,1.005 0 0 1 -0.358,-0.182 1.376,1.376 0 0 1 -0.237,-0.267 1.408,1.408 0 0 1 -0.133,-0.219 z m -3.43,0 h -2.042 v 1.476 a 0.785,0.785 0 0 1 -0.115,0.449 c -0.077,0.114 -0.208,0.174 -0.395,0.183 v 0.583 h 3.062 v -0.571 c -0.202,-0.016 -0.338,-0.079 -0.407,-0.188 -0.068,-0.109 -0.103,-0.265 -0.103,-0.468 z m -10.086,0 c 0.09,0.246 0.205,0.483 0.348,0.71 0.385,0.616 0.994,0.923 1.828,0.923 0.745,0 1.311,-0.279 1.695,-0.838 a 3.84,3.84 0 0 0 0.42,-0.795 l 2.142,-0.003 a 3.854,3.854 0 0 1 -1.11,1.71 c -0.875,0.794 -1.932,1.191 -3.172,1.191 -1.247,0 -2.307,-0.381 -3.177,-1.142 a 3.654,3.654 0 0 1 -1.126,-1.752 z M 301.3,19.827 h 2.041 v 1.468 c 0,0.203 0.034,0.358 0.104,0.468 0.068,0.109 0.204,0.172 0.407,0.188 v 0.571 h -3.063 v -0.583 c 0.187,-0.008 0.318,-0.069 0.396,-0.183 a 0.793,0.793 0 0 0 0.115,-0.449 z m 6.17,10e-4 h -2.403 a 4.316,4.316 0 0 0 1.263,1.698 c 0.51,0.413 1.079,0.707 1.707,0.881 a 8.828,8.828 0 0 0 1.914,0.31 c 0.089,0.008 0.178,0.012 0.267,0.012 h 0.268 a 12.04,12.04 0 0 0 0.766,-0.025 c 0.194,-0.016 0.387,-0.039 0.577,-0.067 0.19,-0.028 0.378,-0.066 0.564,-0.115 v -1.98 l -0.656,0.012 a 1.02,1.02 0 0 1 -0.491,0.62 c -0.239,0.129 -0.497,0.21 -0.771,0.243 a 4.038,4.038 0 0 1 -0.426,0.024 c -0.907,0 -1.641,-0.35 -2.199,-1.051 a 4.143,4.143 0 0 1 -0.38,-0.562 z"
         id="path436"
         inkscape:connector-curvature="0" />
    </g>
    <g
       id="g442"
       style="fill:#bab7b2">
      <path
         d="m 320.922,17.133 h -1.968 v -1.039 a 3.02,3.02 0 0 1 -1.326,0.365 0.584,0.584 0 0 1 -0.115,0.012 h -0.115 v -0.863 c 0.445,-0.082 0.839,-0.211 1.179,-0.387 0.34,-0.176 0.651,-0.444 0.936,-0.804 l 1.409,-0.012 z m -35.811,0 c 0.088,-0.239 0.202,-0.47 0.34,-0.692 0.385,-0.62 0.998,-0.93 1.841,-0.93 0.745,0 1.306,0.275 1.683,0.826 0.174,0.254 0.313,0.519 0.419,0.796 h 2.153 a 3.807,3.807 0 0 0 -1.139,-1.719 4.55,4.55 0 0 0 -3.116,-1.179 c -1.224,0 -2.282,0.395 -3.178,1.185 a 3.832,3.832 0 0 0 -1.141,1.713 z m 18.23,0 H 301.3 v -1.476 c 0,-0.211 -0.034,-0.363 -0.104,-0.456 -0.068,-0.093 -0.204,-0.156 -0.407,-0.188 v -0.596 h 3.063 V 15 l -0.146,0.024 c -0.129,0.024 -0.219,0.085 -0.267,0.182 a 1.04,1.04 0 0 0 -0.098,0.316 z m 3.805,-0.083 c 0.09,-0.307 0.225,-0.587 0.405,-0.84 0.36,-0.506 0.93,-0.759 1.707,-0.759 0.381,0 0.726,0.101 1.033,0.304 0.307,0.203 0.462,0.51 0.462,0.923 a 0.874,0.874 0 0 1 -0.159,0.4 l 0.087,0.054 h 0.733 l 1.246,-1.306 c -0.438,-0.551 -0.947,-0.954 -1.531,-1.209 a 4.738,4.738 0 0 0 -1.919,-0.383 c -1.143,0 -2.171,0.361 -3.087,1.082 -0.621,0.49 -1.032,1.095 -1.231,1.816 h 2.231 z m -11.957,0.083 v -1.561 h 1.057 c 0.405,0 0.749,0.085 1.033,0.255 0.283,0.17 0.425,0.482 0.425,0.936 0,0.137 -0.014,0.261 -0.043,0.371 h 2.089 c 0.038,-0.171 0.057,-0.351 0.057,-0.54 -0.041,-0.761 -0.343,-1.311 -0.905,-1.646 a 3.649,3.649 0 0 0 -1.854,-0.517 h -0.03 a 0.097,0.097 0 0 1 -0.042,-0.012 h -4.338 v 0.596 c 0.202,0.032 0.338,0.095 0.407,0.188 0.068,0.093 0.103,0.245 0.103,0.456 v 1.476 z"
         id="path440"
         inkscape:connector-curvature="0" />
    </g>
    <g
       id="g446"
       style="fill:#a09e91">
      <path
         d="m 316.92,17.723 v 1.519 h -3.859 v -1.519 z m -5.505,-0.59 h -0.733 l 0.46,0.286 z m -26.312,2.702 h -2.152 A 4.715,4.715 0 0 1 282.77,18.5 v -0.012 c 0,-0.487 0.067,-0.939 0.202,-1.355 h 2.138 a 3.918,3.918 0 0 0 -0.238,1.367 v -0.012 c 10e-4,0.475 0.231,1.347 0.231,1.347 z m 4.291,-0.004 c 0.127,-0.333 0.204,-0.684 0.231,-1.051 a 0.899,0.899 0 0 0 0.012,-0.146 v -0.146 c 0,-0.057 -0.002,-0.114 -0.006,-0.17 -0.004,-0.056 -0.006,-0.113 -0.006,-0.17 a 3.758,3.758 0 0 0 -0.231,-1.015 h 2.153 c 0.128,0.403 0.192,0.839 0.192,1.307 0,0.5 -0.068,0.963 -0.203,1.388 z M 301.3,17.133 h 2.041 v 2.695 H 301.3 Z m 17.654,0 h 1.968 v 2.698 h -1.968 z m -11.831,0 h -2.231 a 4.127,4.127 0 0 0 -0.142,1.1 c 0,0.556 0.105,1.088 0.317,1.595 v 0.004 h 2.403 v -0.004 a 3.59,3.59 0 0 1 -0.459,-1.777 c 0,-0.329 0.037,-0.635 0.112,-0.918 z m -7.375,0 a 2.046,2.046 0 0 1 -0.435,0.887 c -0.328,0.393 -0.756,0.67 -1.282,0.833 l 0.587,0.979 h -2.304 l -0.458,-0.772 h -0.668 v 0.772 h -2.042 v -2.698 h 2.042 v 0.772 h 0.996 c 0.381,0.008 0.729,-0.067 1.045,-0.225 a 0.807,0.807 0 0 0 0.43,-0.547 z"
         id="path444"
         inkscape:connector-curvature="0" />
    </g>
  </g>
  <g
     id="g494">
    <path
       d="m 39.319,101.381 c 0,-0.841 0.242,-1.543 0.727,-2.108 0.234,-0.271 0.521,-0.486 0.859,-0.647 0.338,-0.161 0.722,-0.241 1.148,-0.238 0.831,0 1.495,0.289 1.992,0.866 0.497,0.578 0.746,1.286 0.746,2.124 0,0.653 -0.147,1.229 -0.441,1.729 a 2.11,2.11 0 0 1 -0.367,0.461 l 0.734,0.644 -0.488,0.543 -0.832,-0.728 a 2.554,2.554 0 0 1 -1.285,0.342 c -0.466,0 -0.868,-0.078 -1.207,-0.234 -0.675,-0.315 -1.141,-0.847 -1.398,-1.595 a 3.543,3.543 0 0 1 -0.188,-1.159 z m 3.977,1.585 c 0.331,-0.396 0.496,-0.907 0.496,-1.534 0,-0.627 -0.145,-1.155 -0.434,-1.585 -0.289,-0.429 -0.723,-0.644 -1.301,-0.644 -0.581,0 -1.017,0.216 -1.309,0.647 -0.292,0.433 -0.437,0.943 -0.434,1.534 0.003,0.591 0.147,1.1 0.434,1.526 0.287,0.426 0.722,0.64 1.305,0.64 0.239,0 0.453,-0.046 0.641,-0.137 l -0.574,-0.503 0.48,-0.551 z"
       id="path450"
       inkscape:connector-curvature="0"
       style="fill:#c3c1c4" />
    <g
       id="g454"
       style="fill:#c3c1c4">
      <path
         d="m 13.61,101.165 h 2.568 v 0.54 h -1.943 v 0.935 h 1.799 v 0.511 h -1.799 v 1.045 h 1.98 v 0.539 H 13.61 Z m 3.561,2.38 c 0,0.261 0.084,0.453 0.252,0.576 0.167,0.126 0.381,0.188 0.641,0.188 0.26,0 0.452,-0.052 0.575,-0.154 a 0.476,0.476 0 0 0 0.188,-0.374 c 10e-4,-0.146 -0.029,-0.25 -0.091,-0.315 a 0.519,0.519 0 0 0 -0.246,-0.143 33.75,33.75 0 0 1 -0.403,-0.112 l -0.551,-0.151 a 1.636,1.636 0 0 1 -0.45,-0.183 0.851,0.851 0 0 1 -0.407,-0.758 c 0,-0.328 0.129,-0.584 0.388,-0.766 0.26,-0.183 0.573,-0.273 0.941,-0.273 0.369,0 0.686,0.1 0.951,0.3 0.264,0.2 0.396,0.48 0.396,0.84 H 18.73 c -0.029,-0.42 -0.286,-0.63 -0.771,-0.63 -0.279,0 -0.477,0.081 -0.593,0.242 -0.042,0.063 -0.063,0.148 -0.063,0.257 0,0.109 0.039,0.199 0.117,0.271 a 0.752,0.752 0 0 0 0.304,0.166 c 0.391,0.098 0.734,0.188 1.031,0.272 a 0.973,0.973 0 0 1 0.515,0.353 c 0.119,0.163 0.18,0.347 0.182,0.549 0.003,0.372 -0.146,0.659 -0.444,0.859 -0.261,0.174 -0.597,0.261 -1.008,0.261 -0.411,0 -0.747,-0.103 -1.01,-0.306 -0.289,-0.223 -0.438,-0.546 -0.444,-0.97 h 0.625 z m 4.31,0.765 c 0.293,0 0.517,-0.087 0.671,-0.261 0.154,-0.175 0.247,-0.399 0.276,-0.674 h 0.625 c -0.027,0.434 -0.181,0.781 -0.462,1.042 -0.281,0.269 -0.639,0.403 -1.074,0.403 -0.52,0 -0.935,-0.18 -1.245,-0.537 -0.31,-0.358 -0.464,-0.801 -0.464,-1.328 0,-0.527 0.152,-0.968 0.456,-1.321 a 1.62,1.62 0 0 1 1.212,-0.553 c 0.447,0 0.812,0.108 1.091,0.326 0.28,0.219 0.44,0.517 0.48,0.895 h -0.639 c -0.087,-0.338 -0.27,-0.557 -0.547,-0.66 a 1.247,1.247 0 0 0 -0.389,-0.051 0.896,0.896 0 0 0 -0.449,0.115 0.983,0.983 0 0 0 -0.337,0.307 c -0.174,0.256 -0.259,0.568 -0.254,0.938 0,0.17 0.021,0.337 0.062,0.501 0.089,0.352 0.266,0.6 0.529,0.745 0.14,0.074 0.293,0.113 0.458,0.113 z"
         id="path452"
         inkscape:connector-curvature="0" />
    </g>
    <path
       d="m 63.062,98.523 h 1.016 l 1.035,4.367 h 0.016 l 1.152,-4.367 h 1.026 l 1.117,4.366 h 0.02 l 1.063,-4.366 h 1.016 l -1.574,5.711 h -1.022 l -1.142,-4.367 -0.032,-0.005 -1.17,4.372 h -1.016 z m 25.063,0 h 4.109 v 0.863 h -3.109 v 1.496 h 2.879 v 0.816 h -2.879 v 1.672 h 3.168 v 0.863 h -4.168 z m 28.575,4.207 c 0,0.773 0.104,1.274 0.313,1.504 h -1.071 c -0.075,-0.122 -0.119,-0.258 -0.132,-0.406 -0.013,-0.148 -0.02,-0.323 -0.02,-0.523 0,-0.489 -0.079,-0.851 -0.238,-1.082 -0.159,-0.231 -0.458,-0.345 -0.898,-0.34 h -1.469 v 2.352 h -1 v -5.711 h 2.72 c 0.629,0 1.1,0.136 1.414,0.406 0.314,0.27 0.472,0.645 0.472,1.121 0,0.476 -0.133,0.852 -0.397,1.125 -0.105,0.109 -0.21,0.188 -0.313,0.234 -0.103,0.046 -0.178,0.079 -0.224,0.098 v 0.016 c 0.365,0.044 0.618,0.261 0.758,0.648 0.057,0.148 0.085,0.335 0.085,0.558 z m -1.879,-1.609 c 0.651,0 0.977,-0.304 0.977,-0.91 0,-0.489 -0.206,-0.77 -0.617,-0.84 a 2.173,2.173 0 0 0 -0.375,-0.031 h -1.621 v 1.781 z m 20.816,-2.598 h 4.625 v 0.863 h -1.816 v 4.848 h -1 v -4.848 h -1.809 z m 27.202,5.711 h -1 v -2.238 l -2.145,-3.473 h 1.16 l 1.512,2.559 1.488,-2.559 h 1.117 l -2.133,3.473 v 2.238 z m 21.112,-5.711 h 1 v 3.328 c 0,0.192 0.009,0.388 0.027,0.586 0.039,0.419 0.227,0.726 0.563,0.918 0.183,0.102 0.435,0.152 0.758,0.152 0.573,0 0.957,-0.181 1.152,-0.543 0.089,-0.156 0.142,-0.333 0.16,-0.531 0.018,-0.198 0.027,-0.392 0.027,-0.582 v -3.328 h 1 v 3.656 c 0,0.703 -0.214,1.251 -0.641,1.645 -0.406,0.364 -0.972,0.547 -1.695,0.547 -0.727,0 -1.301,-0.188 -1.723,-0.563 -0.422,-0.375 -0.632,-0.918 -0.629,-1.629 v -3.656 z m 25.583,0 h 1 v 5.711 h -1 z m 24.521,-0.136 c 0.831,0 1.495,0.289 1.992,0.867 0.497,0.578 0.746,1.288 0.746,2.129 0,0.844 -0.247,1.552 -0.742,2.125 -0.495,0.57 -1.159,0.856 -1.992,0.859 -0.833,0.003 -1.499,-0.282 -1.996,-0.855 -0.495,-0.573 -0.742,-1.281 -0.742,-2.125 0,-0.844 0.242,-1.548 0.727,-2.113 0.234,-0.271 0.521,-0.487 0.859,-0.648 0.338,-0.161 0.721,-0.242 1.148,-0.239 z m -1.305,4.527 c 0.286,0.427 0.722,0.641 1.305,0.641 0.583,0 1.019,-0.215 1.305,-0.645 0.289,-0.43 0.434,-0.94 0.434,-1.531 0,-0.591 -0.145,-1.102 -0.434,-1.531 -0.289,-0.429 -0.723,-0.645 -1.301,-0.645 -0.581,0 -1.017,0.216 -1.309,0.648 -0.292,0.432 -0.437,0.944 -0.434,1.535 0.003,0.591 0.148,1.101 0.434,1.528 z m 22.458,-4.391 h 2.52 c 0.731,0 1.259,0.204 1.582,0.613 0.239,0.308 0.359,0.692 0.359,1.156 0,0.464 -0.12,0.844 -0.359,1.141 -0.317,0.406 -0.845,0.609 -1.582,0.609 h -1.52 v 2.191 h -1 z m 1,2.704 h 1.461 c 0.435,0 0.738,-0.164 0.91,-0.492 0.06,-0.12 0.09,-0.272 0.09,-0.457 -0.003,-0.344 -0.091,-0.586 -0.266,-0.727 -0.175,-0.141 -0.413,-0.211 -0.715,-0.211 h -1.48 z M 54.75,79.813 h -3.822 c 0.01,-0.858 0.42,-1.565 1.23,-2.12 0.182,-0.132 0.372,-0.261 0.57,-0.386 0.732,-0.464 1.106,-0.947 1.119,-1.452 0,-0.266 -0.047,-0.463 -0.141,-0.593 -0.097,-0.131 -0.205,-0.229 -0.325,-0.297 -0.12,-0.068 -0.275,-0.102 -0.466,-0.102 -0.191,0 -0.346,0.036 -0.466,0.109 -0.321,0.194 -0.49,0.624 -0.509,1.289 h -0.91 c 0,-0.638 0.169,-1.157 0.506,-1.559 0.337,-0.402 0.812,-0.602 1.422,-0.602 0.61,0 1.082,0.197 1.414,0.591 0.257,0.315 0.385,0.692 0.385,1.131 0,0.575 -0.262,1.084 -0.784,1.526 -0.244,0.21 -0.503,0.401 -0.775,0.573 -0.271,0.172 -0.476,0.309 -0.611,0.41 -0.311,0.231 -0.499,0.452 -0.567,0.663 h 2.73 z M 27.256,75.637 c 0.656,0 1.132,-0.165 1.426,-0.494 a 0.865,0.865 0 0 0 0.203,-0.432 h 0.746 v 5.602 h -1 V 76.36 H 27.256 Z M 78.59,75.581 c 0,0.607 -0.264,1.004 -0.789,1.189 v 0.017 c 0.318,0.065 0.568,0.226 0.747,0.48 0.179,0.258 0.269,0.544 0.269,0.858 -0.003,0.57 -0.197,1.013 -0.585,1.327 -0.388,0.315 -0.854,0.473 -1.401,0.473 -0.934,0 -1.544,-0.384 -1.83,-1.152 a 2.483,2.483 0 0 1 -0.137,-0.801 h 0.91 c -0.008,0.341 0.077,0.625 0.254,0.852 0.178,0.227 0.433,0.34 0.764,0.34 0.331,0 0.601,-0.086 0.807,-0.258 0.205,-0.172 0.309,-0.419 0.309,-0.742 0,-0.391 -0.155,-0.661 -0.466,-0.813 -0.219,-0.106 -0.553,-0.153 -1.002,-0.141 v -0.723 c 0.556,0.019 0.935,-0.126 1.136,-0.433 0.07,-0.114 0.105,-0.271 0.105,-0.471 0,-0.2 -0.081,-0.37 -0.243,-0.509 a 0.817,0.817 0 0 0 -0.556,-0.213 c -0.509,-0.003 -0.827,0.238 -0.955,0.724 a 1.421,1.421 0 0 0 -0.047,0.417 h -0.91 c 0.021,-0.544 0.195,-0.997 0.522,-1.359 0.328,-0.362 0.771,-0.543 1.331,-0.543 0.463,0 0.874,0.128 1.233,0.383 0.356,0.258 0.534,0.624 0.534,1.098 z m 23.703,2.903 h -0.672 v 1.328 h -0.91 v -1.328 h -2.355 v -0.902 l 2.355,-3.371 h 0.91 v 3.551 h 0.672 z m -1.582,-0.722 v -2.465 h -0.02 l -1.68,2.465 z m 22.875,-1.293 c 0.249,-0.284 0.609,-0.426 1.083,-0.426 a 1.7,1.7 0 0 1 0.676,0.141 c 0.43,0.185 0.727,0.515 0.891,0.988 0.078,0.229 0.117,0.466 0.117,0.711 0,0.536 -0.151,0.995 -0.453,1.375 -0.356,0.445 -0.832,0.668 -1.426,0.668 -0.594,0 -1.073,-0.147 -1.438,-0.441 -0.365,-0.294 -0.558,-0.716 -0.578,-1.266 h 0.91 c 0.026,0.308 0.13,0.542 0.313,0.703 0.183,0.161 0.422,0.242 0.719,0.242 0.683,0 1.03,-0.41 1.043,-1.23 0,-0.526 -0.196,-0.884 -0.59,-1.074 a 1.051,1.051 0 0 0 -0.477,-0.094 c -0.477,0 -0.777,0.171 -0.902,0.512 h -0.914 l 0.602,-3.066 h 2.895 v 0.816 h -2.215 l -0.27,1.43 z m 25.016,-0.34 c 0.528,0 0.952,0.178 1.27,0.532 0.32,0.355 0.48,0.808 0.48,1.358 0,0.547 -0.172,1.001 -0.516,1.363 -0.344,0.362 -0.793,0.543 -1.348,0.543 -1.102,0 -1.753,-0.594 -1.953,-1.781 -0.128,-0.758 -0.116,-1.495 0.035,-2.211 0.151,-0.716 0.481,-1.239 0.992,-1.57 0.269,-0.175 0.614,-0.262 1.039,-0.262 0.425,0 0.8,0.144 1.125,0.43 0.328,0.286 0.501,0.652 0.52,1.098 h -0.91 a 0.873,0.873 0 0 0 -0.246,-0.552 0.697,0.697 0 0 0 -0.516,-0.214 c -0.477,-0.003 -0.806,0.225 -0.988,0.683 a 2.994,2.994 0 0 0 -0.176,0.705 c -0.023,0.229 -0.04,0.405 -0.051,0.53 l 0.016,0.016 c 0.122,-0.226 0.292,-0.393 0.508,-0.503 0.216,-0.11 0.456,-0.165 0.719,-0.165 z m 0.571,2.703 c 0.172,-0.222 0.262,-0.5 0.27,-0.836 0,-0.508 -0.185,-0.856 -0.555,-1.047 a 0.904,0.904 0 0 0 -0.43,-0.098 c -0.31,0 -0.556,0.108 -0.738,0.324 -0.18,0.216 -0.27,0.488 -0.27,0.816 0,0.328 0.089,0.605 0.266,0.832 0.177,0.227 0.422,0.34 0.734,0.34 0.309,0.001 0.551,-0.109 0.723,-0.331 z m 21.451,-4.621 h 3.832 v 0.762 c -0.933,1.047 -1.555,2.185 -1.867,3.414 a 8.152,8.152 0 0 0 -0.223,1.426 h -1 c 0.091,-1.281 0.542,-2.526 1.352,-3.734 0.25,-0.372 0.52,-0.723 0.809,-1.051 h -2.902 v -0.817 z m 23.632,3.953 c 0,-0.357 0.092,-0.658 0.275,-0.902 0.183,-0.244 0.432,-0.407 0.744,-0.489 v -0.017 a 1.273,1.273 0 0 1 -0.622,-0.442 1.174,1.174 0 0 1 -0.214,-0.703 c 0,-0.471 0.159,-0.84 0.477,-1.107 0.32,-0.268 0.76,-0.401 1.318,-0.401 0.558,0 0.996,0.133 1.313,0.397 0.317,0.264 0.475,0.636 0.475,1.111 0,0.27 -0.071,0.504 -0.213,0.703 a 1.245,1.245 0 0 1 -0.619,0.442 v 0.017 c 0.313,0.081 0.561,0.243 0.744,0.484 0.184,0.239 0.275,0.516 0.275,0.831 -0.003,0.585 -0.188,1.037 -0.558,1.357 -0.37,0.32 -0.844,0.48 -1.421,0.48 -0.575,0 -1.049,-0.157 -1.421,-0.473 -0.368,-0.316 -0.553,-0.746 -0.553,-1.288 z m 1.211,0.766 c 0.204,0.183 0.458,0.273 0.764,0.273 0.306,0 0.56,-0.091 0.764,-0.273 0.203,-0.183 0.305,-0.433 0.305,-0.75 0,-0.323 -0.102,-0.57 -0.305,-0.742 -0.204,-0.172 -0.458,-0.258 -0.764,-0.258 -0.306,0 -0.56,0.087 -0.764,0.262 -0.203,0.175 -0.304,0.421 -0.301,0.738 -0.003,0.317 0.098,0.567 0.301,0.75 z m 0.764,-4.106 a 0.945,0.945 0 0 0 -0.622,0.213 c -0.173,0.142 -0.259,0.344 -0.259,0.607 0,0.263 0.084,0.466 0.251,0.607 a 0.96,0.96 0 0 0 0.63,0.205 0.966,0.966 0 0 0 0.634,-0.205 c 0.165,-0.137 0.247,-0.337 0.247,-0.6 0,-0.264 -0.085,-0.469 -0.255,-0.615 a 0.962,0.962 0 0 0 -0.626,-0.212 z m 22.823,4.129 c 0.141,0.141 0.333,0.211 0.578,0.211 0.245,0 0.438,-0.065 0.582,-0.195 0.146,-0.13 0.259,-0.293 0.34,-0.488 0.081,-0.195 0.136,-0.403 0.164,-0.625 0.028,-0.221 0.052,-0.424 0.07,-0.609 l -0.02,-0.02 c -0.122,0.221 -0.29,0.388 -0.504,0.503 -0.214,0.115 -0.45,0.173 -0.711,0.173 -0.521,0.003 -0.944,-0.17 -1.271,-0.516 -0.327,-0.348 -0.489,-0.802 -0.486,-1.365 0.003,-0.563 0.173,-1.023 0.512,-1.38 0.339,-0.36 0.812,-0.54 1.418,-0.54 1.06,0 1.69,0.594 1.891,1.781 0.128,0.766 0.116,1.504 -0.035,2.215 -0.151,0.711 -0.483,1.231 -0.996,1.563 -0.269,0.177 -0.612,0.266 -1.031,0.266 -0.419,0 -0.794,-0.145 -1.125,-0.434 -0.331,-0.289 -0.507,-0.653 -0.527,-1.094 h 0.91 c 0.019,0.229 0.1,0.414 0.241,0.554 z m -0.344,-2.947 c 0,0.512 0.181,0.871 0.543,1.076 a 0.923,0.923 0 0 0 0.438,0.098 c 0.328,-0.003 0.579,-0.117 0.754,-0.343 0.172,-0.227 0.258,-0.501 0.258,-0.823 0,-0.319 -0.089,-0.592 -0.266,-0.815 -0.177,-0.223 -0.426,-0.335 -0.746,-0.335 -0.32,0 -0.563,0.11 -0.73,0.331 -0.168,0.221 -0.251,0.492 -0.251,0.811 z m 27.036,-1.065 c 0.433,0.563 0.648,1.251 0.648,2.066 0,0.815 -0.247,1.508 -0.742,2.078 -0.495,0.57 -1.16,0.858 -1.996,0.863 -0.706,0 -1.297,-0.219 -1.773,-0.656 l -0.609,0.68 -0.336,-0.289 0.633,-0.719 c -0.433,-0.552 -0.648,-1.234 -0.648,-2.047 0,-0.813 0.242,-1.501 0.727,-2.066 0.234,-0.271 0.521,-0.487 0.859,-0.648 0.338,-0.161 0.722,-0.241 1.148,-0.238 0.708,0 1.301,0.216 1.777,0.648 l 0.598,-0.672 0.348,0.285 z m -0.906,0.344 c -0.292,-0.336 -0.687,-0.504 -1.184,-0.504 -0.578,0 -1.013,0.216 -1.305,0.648 -0.292,0.432 -0.437,0.923 -0.434,1.473 0.003,0.55 0.101,0.997 0.293,1.344 z m -1.184,3.848 c 0.583,0 1.019,-0.215 1.305,-0.645 0.289,-0.43 0.434,-0.921 0.434,-1.473 0,-0.552 -0.099,-1.001 -0.297,-1.348 l -2.625,2.961 c 0.312,0.337 0.707,0.505 1.183,0.505 z m 24.935,-1.926 h 2.328 v 0.863 h -2.328 z m 27.292,-0.153 h -4.031 v -0.816 h 4.031 z m 0,1.617 h -4.031 v -0.816 h 4.031 z m 21.035,0.945 h -0.871 l -2.297,-5.984 h 0.871 z M 46.922,122.222 h 1.063 l 2.199,5.711 h -1.07 l -0.535,-1.512 h -2.281 l -0.535,1.512 h -1.031 z m -0.351,3.437 h 1.742 l -0.855,-2.453 h -0.023 z"
       id="path456"
       inkscape:connector-curvature="0"
       style="fill:#c3c1c4" />
    <g
       id="g460"
       style="fill:#c3c1c4">
      <path
         d="m 18.863,128.008 c 0.293,0 0.517,-0.087 0.671,-0.261 0.154,-0.175 0.247,-0.399 0.276,-0.674 h 0.625 c -0.027,0.434 -0.181,0.781 -0.462,1.042 -0.281,0.269 -0.639,0.403 -1.074,0.403 -0.52,0 -0.935,-0.18 -1.245,-0.537 -0.31,-0.358 -0.464,-0.801 -0.464,-1.328 0,-0.527 0.152,-0.968 0.456,-1.321 a 1.62,1.62 0 0 1 1.212,-0.553 c 0.447,0 0.812,0.108 1.091,0.326 0.28,0.219 0.44,0.517 0.48,0.895 H 19.79 c -0.087,-0.338 -0.27,-0.557 -0.547,-0.66 a 1.247,1.247 0 0 0 -0.389,-0.051 0.896,0.896 0 0 0 -0.449,0.115 0.983,0.983 0 0 0 -0.337,0.307 c -0.174,0.256 -0.259,0.568 -0.254,0.938 0,0.17 0.021,0.337 0.062,0.501 0.089,0.352 0.266,0.6 0.529,0.745 a 0.959,0.959 0 0 0 0.458,0.113 z m 1.784,-3.145 h 2.891 v 0.54 h -1.135 v 3.029 h -0.625 v -3.029 h -1.131 z m 6.128,2.63 c 0,0.482 0.065,0.796 0.195,0.939 h -0.669 c -0.048,-0.076 -0.075,-0.161 -0.083,-0.254 -0.008,-0.093 -0.012,-0.202 -0.012,-0.327 0,-0.306 -0.05,-0.531 -0.149,-0.677 -0.1,-0.145 -0.286,-0.215 -0.562,-0.212 h -0.918 v 1.47 h -0.625 v -3.569 h 1.7 c 0.393,0 0.688,0.085 0.884,0.254 0.196,0.169 0.295,0.403 0.295,0.7 0,0.299 -0.083,0.533 -0.249,0.703 -0.065,0.068 -0.131,0.117 -0.195,0.146 l -0.14,0.062 v 0.01 c 0.229,0.027 0.387,0.163 0.474,0.405 0.036,0.093 0.054,0.21 0.054,0.35 z m -1.174,-1.006 c 0.406,0 0.609,-0.19 0.609,-0.569 0,-0.306 -0.128,-0.481 -0.385,-0.524 a 1.274,1.274 0 0 0 -0.234,-0.02 h -1.014 v 1.113 z m 1.869,-1.624 h 0.625 v 3.03 h 1.814 v 0.539 H 27.47 Z"
         id="path458"
         inkscape:connector-curvature="0" />
    </g>
    <path
       d="m 70.056,126.03 c 0,0.417 0.134,0.724 0.402,0.922 0.268,0.2 0.609,0.301 1.025,0.301 0.416,0 0.723,-0.082 0.92,-0.246 a 0.767,0.767 0 0 0 0.301,-0.6 c 0.003,-0.231 -0.046,-0.4 -0.145,-0.504 a 0.811,0.811 0 0 0 -0.395,-0.229 247.123,247.123 0 0 1 -1.526,-0.422 c -0.319,-0.088 -0.56,-0.186 -0.721,-0.292 -0.435,-0.281 -0.652,-0.685 -0.652,-1.211 0,-0.526 0.207,-0.935 0.622,-1.227 0.414,-0.292 0.916,-0.438 1.505,-0.438 0.591,0 1.098,0.16 1.522,0.48 0.421,0.32 0.632,0.769 0.632,1.344 h -1 c -0.047,-0.672 -0.458,-1.008 -1.232,-1.008 -0.447,0 -0.763,0.129 -0.947,0.388 -0.067,0.1 -0.102,0.237 -0.102,0.411 0,0.174 0.063,0.318 0.189,0.435 0.123,0.116 0.285,0.204 0.485,0.265 0.625,0.156 1.175,0.302 1.648,0.437 0.358,0.114 0.633,0.302 0.824,0.563 0.19,0.262 0.287,0.555 0.29,0.878 0.005,0.597 -0.231,1.055 -0.711,1.376 -0.416,0.277 -0.953,0.416 -1.611,0.416 -0.658,0 -1.196,-0.163 -1.615,-0.488 -0.464,-0.356 -0.7,-0.874 -0.711,-1.551 z m 23.84,-3.808 h 2.367 c 0.849,0 1.488,0.278 1.918,0.836 0.401,0.508 0.602,1.181 0.602,2.02 0,0.839 -0.2,1.512 -0.602,2.02 -0.44,0.558 -1.079,0.836 -1.918,0.836 h -2.367 z m 1,4.894 h 0.984 c 0.719,0 1.231,-0.195 1.539,-0.586 0.242,-0.317 0.363,-0.804 0.363,-1.457 0,-0.653 -0.121,-1.137 -0.363,-1.449 -0.297,-0.391 -0.81,-0.586 -1.539,-0.586 h -0.984 z m 23.059,-4.894 h 3.941 v 0.863 h -2.941 v 1.496 h 2.582 v 0.816 h -2.582 v 2.535 h -1 z m 28.98,5.711 h -0.641 l -0.15,-0.672 c -0.268,0.305 -0.535,0.516 -0.8,0.633 -0.266,0.117 -0.593,0.176 -0.98,0.176 a 2.624,2.624 0 0 1 -1.09,-0.238 c -0.677,-0.317 -1.143,-0.849 -1.397,-1.594 a 3.516,3.516 0 0 1 -0.188,-1.156 c 0,-0.841 0.242,-1.544 0.726,-2.109 0.234,-0.271 0.521,-0.487 0.859,-0.648 a 2.395,2.395 0 0 1 1.062,-0.238 c 1.074,0 1.829,0.368 2.264,1.105 0.144,0.245 0.233,0.527 0.27,0.848 h -1 c -0.049,-0.356 -0.211,-0.636 -0.484,-0.836 -0.273,-0.2 -0.581,-0.301 -0.922,-0.301 -0.611,0 -1.06,0.215 -1.344,0.645 -0.286,0.43 -0.43,0.94 -0.43,1.531 0,0.591 0.145,1.102 0.434,1.531 0.289,0.429 0.723,0.645 1.301,0.645 0.503,0.011 0.892,-0.122 1.168,-0.398 0.276,-0.276 0.421,-0.665 0.434,-1.168 h -1.523 v -0.762 h 2.434 v 3.006 z m 19.163,-5.711 h 1 v 2.273 h 2.598 v -2.273 h 1 v 5.711 h -1 v -2.574 h -2.598 v 2.574 h -1 z m 26.768,3.871 c 0,0.602 -0.108,1.055 -0.324,1.359 -0.286,0.411 -0.805,0.617 -1.555,0.617 -0.57,0 -0.999,-0.167 -1.285,-0.5 -0.284,-0.333 -0.423,-0.777 -0.418,-1.332 v -0.305 h 1 v 0.297 c 0,0.328 0.055,0.581 0.164,0.758 0.109,0.177 0.315,0.266 0.617,0.266 0.45,0 0.707,-0.211 0.77,-0.633 a 3.18,3.18 0 0 0 0.031,-0.473 v -3.926 h 1 z m 21.356,-3.871 h 1 v 2.598 l 2.543,-2.598 h 1.23 l -2.277,2.277 2.438,3.434 h -1.246 l -1.871,-2.727 -0.816,0.805 v 1.922 h -1 v -5.711 z m 23.174,0 h 1 v 4.848 h 2.902 v 0.863 h -3.902 z m 23.524,1.664 h 1.113 v 1.078 h -1.113 z m 0,2.968 h 1.113 v 1.078 c -0.005,0.331 -0.106,0.608 -0.305,0.832 -0.199,0.224 -0.456,0.368 -0.773,0.434 v -0.488 c 0.177,-0.044 0.31,-0.142 0.398,-0.293 0.088,-0.151 0.129,-0.313 0.121,-0.484 h -0.555 v -1.079 z M 58.043,146.602 h 4.344 v 0.758 l -3.328,4.09 h 3.406 v 0.863 h -4.68 v -0.816 l 3.328,-4.031 h -3.07 z"
       id="path462"
       inkscape:connector-curvature="0"
       style="fill:#c3c1c4" />
    <g
       id="g466"
       style="fill:#c3c1c4">
      <path
         d="m 29.608,151.623 c 0,0.261 0.084,0.453 0.252,0.576 0.167,0.126 0.381,0.188 0.641,0.188 0.26,0 0.452,-0.052 0.575,-0.154 a 0.476,0.476 0 0 0 0.188,-0.374 c 0.001,-0.146 -0.029,-0.25 -0.091,-0.315 a 0.519,0.519 0 0 0 -0.246,-0.143 33.75,33.75 0 0 1 -0.403,-0.112 l -0.551,-0.151 a 1.636,1.636 0 0 1 -0.45,-0.183 0.851,0.851 0 0 1 -0.407,-0.758 c 0,-0.328 0.129,-0.584 0.388,-0.766 0.26,-0.183 0.573,-0.273 0.941,-0.273 0.369,0 0.686,0.1 0.951,0.3 0.264,0.2 0.396,0.48 0.396,0.84 h -0.625 c -0.029,-0.42 -0.286,-0.63 -0.771,-0.63 -0.279,0 -0.477,0.081 -0.593,0.242 -0.042,0.063 -0.063,0.148 -0.063,0.257 0,0.109 0.039,0.199 0.117,0.271 a 0.752,0.752 0 0 0 0.304,0.166 c 0.391,0.098 0.734,0.188 1.031,0.272 a 0.973,0.973 0 0 1 0.515,0.353 c 0.119,0.163 0.18,0.347 0.182,0.549 0.003,0.372 -0.146,0.659 -0.444,0.859 -0.261,0.174 -0.597,0.261 -1.008,0.261 -0.411,0 -0.747,-0.103 -1.01,-0.306 -0.289,-0.223 -0.438,-0.546 -0.444,-0.97 h 0.625 z m 2.814,-2.38 h 0.625 v 1.421 h 1.624 v -1.421 h 0.625 v 3.569 h -0.625 v -1.609 h -1.624 v 1.609 h -0.625 z m 3.622,0 h 0.625 v 3.569 h -0.625 z m 1.389,0 h 2.463 v 0.54 h -1.838 v 0.935 h 1.613 v 0.511 h -1.613 v 1.584 h -0.625 z m 2.622,0 h 2.891 v 0.54 h -1.135 v 3.029 h -0.625 v -3.029 h -1.131 z"
         id="path464"
         inkscape:connector-curvature="0" />
    </g>
    <path
       d="m 81.715,146.602 h 1.191 l 1.297,2.016 1.352,-2.016 h 1.117 l -1.887,2.75 2.023,2.961 h -1.215 l -1.426,-2.184 -1.445,2.184 h -1.145 l 2.023,-2.961 z m 27.367,5.031 c 0.469,0 0.827,-0.14 1.074,-0.418 0.247,-0.278 0.395,-0.638 0.441,-1.078 h 1 c -0.043,0.695 -0.289,1.251 -0.738,1.668 -0.449,0.43 -1.022,0.645 -1.719,0.645 -0.831,0 -1.495,-0.286 -1.992,-0.859 -0.495,-0.573 -0.742,-1.281 -0.742,-2.125 0,-0.844 0.243,-1.548 0.729,-2.113 0.235,-0.271 0.523,-0.487 0.863,-0.648 a 2.441,2.441 0 0 1 1.075,-0.238 c 0.717,0 1.299,0.175 1.746,0.523 0.447,0.348 0.704,0.825 0.77,1.43 h -1.023 c -0.138,-0.539 -0.43,-0.891 -0.875,-1.055 a 1.915,1.915 0 0 0 -0.621,-0.082 c -0.261,0 -0.5,0.062 -0.719,0.184 -0.219,0.122 -0.398,0.286 -0.539,0.492 -0.278,0.409 -0.414,0.909 -0.406,1.5 0,0.271 0.032,0.538 0.098,0.801 0.144,0.563 0.426,0.96 0.848,1.191 0.223,0.12 0.467,0.182 0.73,0.182 z m 21.04,-5.031 h 1.037 l 1.436,4.52 0.021,0.002 1.456,-4.521 h 0.907 l -1.841,5.711 h -1.202 z m 28.375,4.117 c 0,0.737 -0.384,1.227 -1.152,1.469 a 3.215,3.215 0 0 1 -0.953,0.125 h -2.621 v -5.711 h 2.773 c 0.513,0 0.925,0.117 1.234,0.352 0.31,0.233 0.464,0.588 0.461,1.062 0,0.58 -0.271,0.985 -0.813,1.217 v 0.016 c 0.349,0.076 0.614,0.243 0.797,0.501 0.183,0.257 0.274,0.58 0.274,0.969 z m -3.727,-1.731 h 1.629 c 0.239,0 0.44,-0.067 0.602,-0.203 0.159,-0.135 0.238,-0.339 0.238,-0.611 0,-0.272 -0.071,-0.466 -0.215,-0.58 -0.144,-0.114 -0.352,-0.173 -0.625,-0.176 h -1.629 z m 0,2.508 h 1.766 c 0.305,0 0.542,-0.078 0.711,-0.234 0.167,-0.156 0.25,-0.378 0.25,-0.664 0,-0.286 -0.083,-0.505 -0.25,-0.656 -0.169,-0.151 -0.406,-0.228 -0.711,-0.23 h -1.766 z m 23.124,-4.894 h 1.016 l 2.609,4.207 h 0.016 v -4.207 h 0.91 v 5.711 h -1.012 l -2.605,-4.199 h -0.023 v 4.199 h -0.91 v -5.711 z m 23.694,0 h 1.367 l 1.576,4.473 h 0.02 l 1.537,-4.473 h 1.348 v 5.711 h -0.91 v -4.406 h -0.016 l -1.584,4.406 h -0.824 l -1.588,-4.406 h -0.016 v 4.406 h -0.91 z m 25.474,4.632 h 1.113 v 1.078 c -0.005,0.331 -0.106,0.608 -0.305,0.832 -0.199,0.224 -0.456,0.368 -0.773,0.434 v -0.488 c 0.177,-0.044 0.31,-0.142 0.398,-0.293 0.088,-0.151 0.129,-0.313 0.121,-0.484 h -0.555 v -1.079 z m 23.09,0 h 1.113 v 1.078 h -1.113 z m 28.154,-4.769 h 0.871 l -2.297,5.984 h -0.871 z"
       id="path468"
       inkscape:connector-curvature="0"
       style="fill:#c3c1c4" />
    <g
       id="g472"
       style="fill:#c3c1c4">
      <path
         d="m 293.045,151.123 c 0,0.261 0.084,0.453 0.252,0.576 0.168,0.126 0.381,0.188 0.641,0.188 0.26,0 0.453,-0.052 0.576,-0.154 0.123,-0.102 0.186,-0.228 0.188,-0.374 0.002,-0.146 -0.029,-0.25 -0.09,-0.315 a 0.529,0.529 0 0 0 -0.246,-0.143 33.103,33.103 0 0 1 -0.404,-0.112 l -0.551,-0.151 a 1.614,1.614 0 0 1 -0.449,-0.183 0.852,0.852 0 0 1 -0.408,-0.758 c 0,-0.328 0.129,-0.584 0.389,-0.766 0.26,-0.183 0.572,-0.273 0.941,-0.273 0.369,0 0.686,0.1 0.951,0.3 0.264,0.2 0.395,0.48 0.395,0.84 h -0.625 c -0.029,-0.42 -0.285,-0.63 -0.77,-0.63 -0.279,0 -0.477,0.081 -0.594,0.242 -0.041,0.063 -0.063,0.148 -0.063,0.257 0,0.109 0.039,0.199 0.117,0.271 0.078,0.073 0.18,0.128 0.305,0.166 0.391,0.098 0.734,0.188 1.031,0.272 a 0.975,0.975 0 0 1 0.514,0.353 c 0.119,0.163 0.18,0.347 0.182,0.549 0.004,0.372 -0.145,0.659 -0.443,0.859 -0.262,0.174 -0.598,0.261 -1.008,0.261 -0.412,0 -0.748,-0.103 -1.01,-0.306 -0.289,-0.223 -0.438,-0.546 -0.445,-0.97 h 0.624 z m 2.814,-2.38 h 0.625 v 1.421 h 1.623 v -1.421 h 0.625 v 3.569 h -0.625 v -1.609 h -1.623 v 1.609 h -0.625 z m 3.622,0 h 0.625 v 3.569 h -0.625 z m 1.39,0 h 2.463 v 0.54 h -1.838 v 0.935 h 1.613 v 0.511 h -1.613 v 1.584 h -0.625 z m 2.621,0 h 2.891 v 0.54 h -1.135 v 3.029 h -0.625 v -3.029 h -1.131 z"
         id="path470"
         inkscape:connector-curvature="0" />
    </g>
    <path
       d="m 57.607,70.717 c 0.309,0 0.536,0.146 0.684,0.436 l 0.097,-0.345 0.419,-0.001 -0.435,1.579 a 0.979,0.979 0 0 0 -0.053,0.291 c 0,0.082 0.042,0.123 0.127,0.123 a 0.465,0.465 0 0 0 0.267,-0.1 c 0.198,-0.141 0.342,-0.368 0.433,-0.683 0.047,-0.158 0.07,-0.339 0.07,-0.542 A 1.337,1.337 0 0 0 58.744,70.45 c -0.303,-0.258 -0.693,-0.387 -1.172,-0.387 -0.477,0 -0.876,0.173 -1.198,0.519 -0.322,0.346 -0.483,0.79 -0.483,1.333 0,0.545 0.167,0.99 0.501,1.336 0.334,0.348 0.759,0.521 1.274,0.521 0.264,0 0.514,-0.053 0.75,-0.158 0.236,-0.105 0.437,-0.251 0.601,-0.437 h 0.422 c -0.193,0.313 -0.448,0.555 -0.765,0.727 -0.317,0.172 -0.645,0.258 -0.984,0.258 a 2.401,2.401 0 0 1 -0.917,-0.173 2.14,2.14 0 0 1 -1.187,-1.207 2.385,2.385 0 0 1 -0.176,-0.914 2.078,2.078 0 0 1 0.656,-1.564 c 0.199,-0.195 0.432,-0.35 0.697,-0.463 0.265,-0.113 0.541,-0.169 0.826,-0.167 0.285,0 0.548,0.043 0.788,0.129 0.494,0.176 0.854,0.482 1.081,0.92 0.109,0.217 0.164,0.464 0.164,0.741 0,0.277 -0.051,0.529 -0.152,0.756 -0.102,0.223 -0.226,0.408 -0.372,0.557 -0.146,0.149 -0.302,0.26 -0.466,0.334 -0.164,0.074 -0.299,0.11 -0.404,0.108 -0.105,0.002 -0.192,-0.026 -0.261,-0.085 -0.069,-0.059 -0.106,-0.146 -0.114,-0.264 h -0.012 c -0.078,0.092 -0.178,0.172 -0.299,0.24 -0.121,0.068 -0.244,0.103 -0.369,0.103 -0.248,0 -0.457,-0.092 -0.627,-0.275 -0.17,-0.183 -0.255,-0.389 -0.255,-0.615 0,-0.225 0.032,-0.429 0.097,-0.612 0.139,-0.398 0.366,-0.685 0.683,-0.858 0.162,-0.091 0.341,-0.136 0.536,-0.136 z m -0.346,2.048 c 0.238,0 0.441,-0.123 0.609,-0.369 a 1.346,1.346 0 0 0 0.234,-0.73 0.499,0.499 0 0 0 -0.138,-0.343 c -0.092,-0.104 -0.202,-0.155 -0.331,-0.155 -0.129,0 -0.244,0.034 -0.346,0.103 -0.102,0.069 -0.188,0.153 -0.261,0.255 -0.073,0.102 -0.128,0.214 -0.167,0.337 -0.039,0.123 -0.059,0.253 -0.059,0.39 0,0.139 0.042,0.259 0.126,0.36 0.09,0.101 0.201,0.152 0.333,0.152 z m -25.5,1.045 h 0.806 v 0.75 h -0.806 z m 0.033,-3.533 h 0.75 v 1.236 l -0.199,1.852 H 31.99 L 31.794,71.513 Z M 83.086,72.8 h -0.573 l -0.176,1.26 h -0.479 l 0.176,-1.26 h -0.666 l -0.176,1.26 h -0.479 l 0.176,-1.26 h -0.563 v -0.451 h 0.626 L 81.06,71.57 h -0.565 v -0.451 h 0.629 l 0.176,-1.26 h 0.479 l -0.176,1.26 h 0.666 l 0.176,-1.26 h 0.479 l -0.176,1.26 h 0.516 v 0.451 h -0.579 l -0.108,0.779 h 0.51 V 72.8 Z m -1.547,-1.23 -0.108,0.779 h 0.666 l 0.109,-0.779 z m 23.631,-1.896 v -0.466 h 0.258 v 0.466 c 0.6,0 1.003,0.218 1.21,0.653 0.07,0.148 0.105,0.32 0.105,0.516 h -0.683 c -0.008,-0.202 -0.061,-0.356 -0.158,-0.464 -0.098,-0.106 -0.256,-0.161 -0.475,-0.163 v 1.265 c 0.452,0.123 0.779,0.262 0.982,0.416 0.292,0.218 0.438,0.533 0.438,0.945 0,0.41 -0.133,0.728 -0.397,0.954 -0.266,0.229 -0.606,0.351 -1.023,0.366 v 0.469 h -0.258 v -0.469 c -0.437,-0.008 -0.79,-0.134 -1.058,-0.378 -0.27,-0.244 -0.4,-0.586 -0.393,-1.025 h 0.683 c -0.008,0.563 0.248,0.85 0.768,0.861 v -1.449 c -0.412,-0.113 -0.721,-0.246 -0.926,-0.398 -0.293,-0.219 -0.438,-0.521 -0.437,-0.905 0.002,-0.386 0.137,-0.681 0.404,-0.886 0.267,-0.205 0.589,-0.308 0.96,-0.308 z m 0,0.542 c -0.217,0 -0.384,0.045 -0.501,0.135 -0.117,0.09 -0.176,0.231 -0.176,0.425 0,0.192 0.071,0.342 0.214,0.447 0.096,0.074 0.25,0.139 0.463,0.193 z m 0.258,3.405 c 0.217,-0.016 0.395,-0.078 0.533,-0.188 0.138,-0.11 0.207,-0.284 0.205,-0.523 0,-0.289 -0.155,-0.489 -0.466,-0.601 a 3.751,3.751 0 0 0 -0.272,-0.085 z m 22.743,-1.456 c -0.344,0 -0.602,-0.118 -0.773,-0.354 -0.152,-0.205 -0.229,-0.485 -0.229,-0.841 0,-0.539 0.183,-0.905 0.548,-1.099 a 1.01,1.01 0 0 1 0.454,-0.094 c 0.338,0.002 0.593,0.12 0.765,0.354 0.158,0.207 0.237,0.486 0.237,0.838 0,0.551 -0.18,0.917 -0.539,1.099 a 1.034,1.034 0 0 1 -0.463,0.097 z m -0.463,-1.196 c 0,0.381 0.081,0.628 0.243,0.741 0.059,0.043 0.13,0.064 0.214,0.064 0.303,0 0.459,-0.269 0.469,-0.806 0,-0.367 -0.08,-0.612 -0.24,-0.735 a 0.35,0.35 0 0 0 -0.229,-0.067 c -0.305,0.001 -0.457,0.268 -0.457,0.803 z m 2.862,-1.254 h 0.457 l -2.323,4.488 h -0.469 z m 0.612,4.43 c -0.344,0 -0.602,-0.118 -0.773,-0.354 -0.152,-0.205 -0.229,-0.485 -0.229,-0.841 0,-0.545 0.183,-0.911 0.548,-1.099 a 1.01,1.01 0 0 1 0.454,-0.094 c 0.336,0.002 0.587,0.112 0.753,0.331 0.166,0.221 0.249,0.508 0.249,0.861 0,0.551 -0.18,0.917 -0.539,1.099 a 1.018,1.018 0 0 1 -0.463,0.097 z m -0.463,-1.195 c 0,0.381 0.081,0.628 0.243,0.741 0.059,0.043 0.13,0.064 0.214,0.064 0.23,0 0.378,-0.163 0.442,-0.489 0.018,-0.098 0.026,-0.233 0.026,-0.407 0,-0.174 -0.025,-0.313 -0.076,-0.419 a 0.65,0.65 0 0 0 -0.164,-0.226 0.35,0.35 0 0 0 -0.229,-0.067 c -0.303,0 -0.456,0.268 -0.456,0.803 z m 44.868,-2.223 c 0,-0.307 0.102,-0.563 0.305,-0.767 a 1.01,1.01 0 0 1 0.744,-0.286 c 0.471,0 0.797,0.197 0.979,0.593 0.061,0.132 0.091,0.285 0.091,0.46 0,0.439 -0.258,0.798 -0.773,1.077 l 0.665,0.795 c 0.066,-0.193 0.11,-0.383 0.132,-0.569 h 0.601 c -0.043,0.406 -0.155,0.753 -0.337,1.039 l 0.823,0.991 h -0.841 l -0.39,-0.48 a 1.48,1.48 0 0 1 -1.201,0.565 c -0.396,0 -0.722,-0.113 -0.976,-0.34 -0.252,-0.228 -0.376,-0.535 -0.372,-0.925 0,-0.491 0.327,-0.9 0.981,-1.23 a 2.99,2.99 0 0 1 -0.325,-0.481 0.94,0.94 0 0 1 -0.106,-0.442 z m 0.132,2.165 c 0,0.23 0.065,0.406 0.196,0.528 0.131,0.122 0.296,0.183 0.495,0.183 0.301,0 0.533,-0.108 0.697,-0.325 l 0.111,-0.147 -0.841,-1.036 a 6.487,6.487 0 0 1 -0.211,0.116 c -0.3,0.158 -0.449,0.385 -0.447,0.681 z m 1.254,-2.536 c -0.08,-0.093 -0.186,-0.14 -0.316,-0.14 -0.13,0 -0.239,0.043 -0.325,0.128 -0.086,0.085 -0.13,0.204 -0.132,0.356 0,0.153 0.087,0.33 0.261,0.531 0.047,0.057 0.09,0.109 0.129,0.16 0.16,-0.11 0.271,-0.199 0.331,-0.265 a 0.597,0.597 0 0 0 0.173,-0.409 0.54,0.54 0 0 0 -0.121,-0.361 z m 23.894,0.279 h 0.615 v 1.077 l 0.98,-0.387 0.215,0.588 -1.027,0.339 0.633,0.849 -0.479,0.352 -0.638,-0.884 -0.61,0.884 -0.505,-0.352 0.628,-0.849 -0.997,-0.339 0.197,-0.588 0.988,0.387 z m 22.452,1.805 c 0,-0.957 0.287,-1.879 0.861,-2.766 h 0.56 c -0.496,0.891 -0.743,1.828 -0.741,2.813 0.002,0.985 0.249,1.891 0.741,2.719 h -0.56 c -0.272,-0.439 -0.463,-0.813 -0.569,-1.119 -0.109,-0.307 -0.185,-0.585 -0.228,-0.835 -0.043,-0.25 -0.064,-0.521 -0.064,-0.812 z m 25.49,-0.023 c 0,-0.982 -0.246,-1.896 -0.738,-2.742 h 0.557 c 0.27,0.432 0.458,0.804 0.565,1.116 0.107,0.312 0.185,0.595 0.231,0.847 0.046,0.252 0.069,0.521 0.067,0.809 0,0.965 -0.288,1.885 -0.864,2.76 h -0.557 a 5.612,5.612 0 0 0 0.739,-2.79 z m 22.215,1.411 a 1.348,1.348 0 0 1 -0.886,0.335 c -0.145,0 -0.271,-0.011 -0.378,-0.032 l -0.29,-0.059 c -0.256,-0.078 -0.451,-0.117 -0.584,-0.117 -0.27,0 -0.486,0.067 -0.652,0.202 l -0.316,-0.485 a 1.55,1.55 0 0 0 0.586,-0.695 1.034,1.034 0 0 0 -0.064,-0.829 h -0.554 v -0.39 h 0.381 c -0.189,-0.23 -0.284,-0.522 -0.284,-0.877 0,-0.164 0.04,-0.324 0.12,-0.479 0.157,-0.301 0.413,-0.515 0.766,-0.64 0.168,-0.059 0.34,-0.088 0.515,-0.088 0.461,0 0.826,0.123 1.096,0.369 0.27,0.246 0.407,0.617 0.413,1.113 h -0.683 c -0.037,-0.607 -0.307,-0.911 -0.809,-0.911 a 0.66,0.66 0 0 0 -0.472,0.179 c -0.131,0.12 -0.196,0.295 -0.196,0.523 0,0.142 0.03,0.283 0.09,0.424 0.061,0.14 0.122,0.269 0.184,0.386 h 0.887 v 0.39 h -0.74 a 0.795,0.795 0 0 1 0.093,0.372 1.004,1.004 0 0 1 -0.154,0.563 c -0.104,0.15 -0.252,0.301 -0.446,0.451 l 0.012,0.012 c 0.092,-0.035 0.181,-0.071 0.269,-0.106 a 0.867,0.867 0 0 1 0.31,-0.056 c 0.118,0 0.245,0.006 0.381,0.017 l 0.438,0.143 c 0.1,0.032 0.127,0.049 0.082,0.049 a 0.85,0.85 0 0 0 0.581,-0.229 z m 22.507,-3.22 h 0.612 v 1.21 h 1.204 v 0.612 h -1.204 v 1.213 h -0.612 V 72.43 h -1.207 v -0.612 h 1.207 z m -139.859,3.361 -1.024,-2.532 -1.024,2.532 -0.927,-0.375 1.604,-3.969 h 0.675 l 0.144,0.313 1.478,3.656 z m 164.311,-5.052 h 0.958 v 2.25 h -0.958 z m 0,3.062 h 0.958 v 2.25 h -0.958 z m -87.93,77.246 -5.083,-2.246 v -0.723 l 5.083,-2.251 v 1.021 l -3.74,1.592 3.74,1.587 z m 18.587,-1.022 3.74,-1.587 -3.74,-1.592 v -1.021 l 5.083,2.251 v 0.723 l -5.083,2.246 z m 25.079,-2.813 c 0,-0.443 0.127,-0.798 0.382,-1.063 0.254,-0.268 0.581,-0.401 0.981,-0.401 0.399,0 0.723,0.108 0.969,0.325 0.248,0.217 0.371,0.506 0.369,0.868 -0.002,0.361 -0.114,0.643 -0.337,0.844 -0.064,0.059 -0.132,0.118 -0.202,0.179 -0.07,0.061 -0.138,0.12 -0.202,0.179 a 0.917,0.917 0 0 0 -0.17,0.202 c -0.098,0.152 -0.146,0.361 -0.146,0.626 h -0.683 c 0,-0.341 0.037,-0.592 0.11,-0.752 0.073,-0.162 0.199,-0.317 0.377,-0.465 0.067,-0.057 0.15,-0.123 0.249,-0.199 a 0.67,0.67 0 0 0 0.251,-0.551 c 0,-0.231 -0.062,-0.402 -0.184,-0.512 -0.122,-0.11 -0.25,-0.167 -0.382,-0.173 -0.24,0 -0.418,0.081 -0.53,0.242 -0.113,0.162 -0.17,0.379 -0.17,0.651 z m 0.955,2.171 h 0.75 v 0.75 h -0.75 z"
       id="path474"
       inkscape:connector-curvature="0"
       style="fill:#c3c1c4" />
    <g
       id="g478"
       style="fill:#c3c1c4">
      <path
         d="m 324.882,101.165 h 1.479 c 0.53,0 0.931,0.174 1.198,0.522 0.251,0.317 0.377,0.738 0.377,1.262 0,0.524 -0.126,0.945 -0.377,1.263 -0.274,0.349 -0.674,0.522 -1.198,0.522 h -1.479 z m 0.625,3.06 h 0.615 c 0.449,0 0.77,-0.123 0.962,-0.367 0.151,-0.198 0.228,-0.502 0.228,-0.91 0,-0.408 -0.076,-0.711 -0.228,-0.906 -0.186,-0.244 -0.506,-0.365 -0.962,-0.365 h -0.615 z m 2.983,-3.06 h 2.568 v 0.54 h -1.943 v 0.935 h 1.799 v 0.511 h -1.799 v 1.045 h 1.98 v 0.539 h -2.605 z m 3.15,0 h 0.625 v 3.03 h 1.814 v 0.539 h -2.439 z"
         id="path476"
         inkscape:connector-curvature="0" />
    </g>
    <g
       id="g482"
       style="fill:#c3c1c4">
      <path
         d="m 316.703,127.493 c 0,0.482 0.065,0.796 0.195,0.939 h -0.669 c -0.048,-0.076 -0.075,-0.161 -0.083,-0.254 -0.008,-0.093 -0.012,-0.202 -0.012,-0.327 0,-0.306 -0.05,-0.531 -0.149,-0.677 -0.1,-0.145 -0.286,-0.215 -0.562,-0.212 h -0.918 v 1.47 h -0.625 v -3.569 h 1.7 c 0.393,0 0.688,0.085 0.884,0.254 0.196,0.169 0.295,0.403 0.295,0.7 0,0.299 -0.083,0.533 -0.249,0.703 -0.065,0.068 -0.131,0.117 -0.195,0.146 l -0.14,0.062 v 0.01 c 0.229,0.027 0.387,0.163 0.474,0.405 0.037,0.093 0.054,0.21 0.054,0.35 z m -1.174,-1.006 c 0.406,0 0.609,-0.19 0.609,-0.569 0,-0.306 -0.128,-0.481 -0.385,-0.524 a 1.274,1.274 0 0 0 -0.234,-0.02 h -1.014 v 1.113 z m 1.87,-1.624 h 2.568 v 0.54 h -1.943 v 0.935 h 1.799 v 0.511 h -1.799 v 1.045 h 1.98 v 0.539 h -2.605 z m 2.808,0 h 2.891 v 0.54 h -1.135 v 3.029 h -0.625 v -3.029 h -1.131 z m 3.264,0 h 0.625 v 2.08 c 0,0.12 0.005,0.242 0.017,0.366 0.024,0.262 0.142,0.453 0.352,0.574 0.114,0.063 0.271,0.095 0.474,0.095 0.358,0 0.598,-0.113 0.721,-0.339 a 0.837,0.837 0 0 0 0.1,-0.332 c 0.012,-0.124 0.018,-0.245 0.018,-0.364 v -2.08 h 0.625 v 2.285 c 0,0.439 -0.134,0.782 -0.4,1.028 -0.254,0.228 -0.607,0.342 -1.061,0.342 -0.454,0 -0.813,-0.117 -1.076,-0.352 -0.263,-0.235 -0.395,-0.574 -0.393,-1.019 v -2.284 z m 6.472,2.63 c 0,0.482 0.065,0.796 0.195,0.939 h -0.669 c -0.048,-0.076 -0.075,-0.161 -0.083,-0.254 -0.008,-0.093 -0.012,-0.202 -0.012,-0.327 0,-0.306 -0.05,-0.531 -0.149,-0.677 -0.1,-0.145 -0.286,-0.215 -0.562,-0.212 h -0.918 v 1.47 h -0.625 v -3.569 h 1.7 c 0.393,0 0.688,0.085 0.884,0.254 0.196,0.169 0.295,0.403 0.295,0.7 0,0.299 -0.083,0.533 -0.249,0.703 -0.065,0.068 -0.131,0.117 -0.195,0.146 l -0.14,0.062 v 0.01 c 0.229,0.027 0.387,0.163 0.474,0.405 0.037,0.093 0.054,0.21 0.054,0.35 z m -1.173,-1.006 c 0.406,0 0.609,-0.19 0.609,-0.569 0,-0.306 -0.128,-0.481 -0.385,-0.524 a 1.274,1.274 0 0 0 -0.234,-0.02 h -1.014 v 1.113 z m 1.841,-1.624 h 0.636 l 1.63,2.63 h 0.01 v -2.63 h 0.569 v 3.569 h -0.633 l -1.628,-2.625 h -0.015 v 2.625 h -0.569 z"
         id="path480"
         inkscape:connector-curvature="0" />
    </g>
    <path
       d="m 266.363,122.025 h 0.835 v 0.809 h -0.835 z m 0,2.227 h 0.835 v 0.809 h -0.835 z M 284.078,123 h 1.185 v 3.25 h -1.185 z m 3.83,-3.719 h 1.185 v 3.25 h -1.185 z m 1.795,0 h 1.185 v 3.25 h -1.185 z m -11.03,-21.894 h 1.785 v 0.723 h -0.875 v 5.93 h 0.875 v 0.723 h -1.785 z m 4.104,1.245 c 0.275,0 0.483,-0.099 0.626,-0.297 a 0.443,0.443 0 0 0 0.081,-0.288 V 96.4 c 0,-0.329 0.116,-0.594 0.348,-0.795 0.232,-0.201 0.457,-0.302 0.676,-0.302 h 0.73 v 0.723 h -0.42 c -0.171,0.003 -0.284,0.056 -0.338,0.16 a 0.816,0.816 0 0 0 -0.086,0.401 v 1.557 a 0.75,0.75 0 0 1 -0.34,0.653 1.12,1.12 0 0 1 -0.533,0.188 v 0.016 c 0.366,0.029 0.623,0.172 0.771,0.43 a 0.894,0.894 0 0 1 0.103,0.457 v 1.508 c 0,0.262 0.065,0.432 0.197,0.51 a 0.439,0.439 0 0 0 0.227,0.051 h 0.42 v 0.723 h -0.73 c -0.222,0 -0.446,-0.1 -0.676,-0.298 -0.231,-0.198 -0.348,-0.465 -0.348,-0.799 v -1.581 c 0,-0.229 -0.081,-0.394 -0.243,-0.494 a 0.872,0.872 0 0 0 -0.464,-0.152 v -0.724 z m 21.5,6.13 h -1.785 v -0.723 h 0.875 v -5.93 h -0.875 v -0.723 h 1.785 z m 2.082,-2.806 c 0.284,0 0.426,-0.187 0.426,-0.561 V 99.84 c 0,-0.281 0.114,-0.498 0.342,-0.652 0.138,-0.091 0.315,-0.153 0.535,-0.188 v -0.016 c -0.223,-0.016 -0.391,-0.063 -0.506,-0.141 -0.253,-0.172 -0.376,-0.421 -0.371,-0.747 v -1.51 c 0.003,-0.169 -0.016,-0.288 -0.056,-0.358 -0.074,-0.133 -0.197,-0.2 -0.37,-0.203 h -0.418 v -0.723 h 0.73 c 0.224,0 0.45,0.098 0.68,0.294 0.23,0.196 0.344,0.464 0.344,0.803 v 1.584 c 0,0.234 0.079,0.4 0.238,0.499 a 0.873,0.873 0 0 0 0.465,0.148 v 0.723 a 0.719,0.719 0 0 0 -0.389,0.09 c -0.215,0.124 -0.319,0.289 -0.314,0.494 v 1.644 c 0,0.332 -0.114,0.598 -0.344,0.799 -0.229,0.198 -0.456,0.298 -0.68,0.298 h -0.73 v -0.723 h 0.418 z m -222.724,73.216 -6.521,-1.986 6.521,-1.986 z m 0,-2.93 h 7.25 v 1.888 h -7.25 z m 26.439,-2.532 -1.986,6.52 -1.986,-6.52 z m -2.93,0 v -2.47 h 1.888 v 2.47 z"
       id="path484"
       inkscape:connector-curvature="0"
       style="fill:#c3c1c4" />
    <g
       id="g488">
      <path
         d="m 275.91,175.089 6.52,-1.986 -6.52,-1.986 z m 0,-1.042 h -7.25 v -1.888 h 7.25 z"
         id="path486"
         inkscape:connector-curvature="0"
         style="fill:#c3c1c4" />
    </g>
    <g
       id="g492">
      <path
         d="m 249.471,173.677 1.986,-6.521 1.986,6.521 z m 2.929,0 v 2.47 h -1.887 v -2.47 z"
         id="path490"
         inkscape:connector-curvature="0"
         style="fill:#c3c1c4" />
    </g>
  </g>
</svg>
