<?xml version="1.0" encoding="UTF-8" standalone="no"?>
<!-- Generator: Adobe Illustrator 22.0.0, SVG Export Plug-In . SVG Version: 6.00 Build 0)  -->

<svg
   xmlns:dc="http://purl.org/dc/elements/1.1/"
   xmlns:cc="http://creativecommons.org/ns#"
   xmlns:rdf="http://www.w3.org/1999/02/22-rdf-syntax-ns#"
   xmlns:svg="http://www.w3.org/2000/svg"
   xmlns="http://www.w3.org/2000/svg"
   xmlns:sodipodi="http://sodipodi.sourceforge.net/DTD/sodipodi-0.dtd"
   xmlns:inkscape="http://www.inkscape.org/namespaces/inkscape"
   version="1.1"
   id="Capa_1"
   x="0px"
   y="0px"
   viewBox="0 0 87.001 86"
   style="enable-background:new 0 0 87.001 86;"
   xml:space="preserve"
   sodipodi:docname="icon_empty.svg"
   inkscape:version="0.92.4 5da689c313, 2019-01-14"><metadata
   id="metadata59"><rdf:RDF><cc:Work
       rdf:about=""><dc:format>image/svg+xml</dc:format><dc:type
         rdf:resource="http://purl.org/dc/dcmitype/StillImage" /></cc:Work></rdf:RDF></metadata><defs
   id="defs57" /><sodipodi:namedview
   pagecolor="#ffffff"
   bordercolor="#666666"
   borderopacity="1"
   objecttolerance="10"
   gridtolerance="10"
   guidetolerance="10"
   inkscape:pageopacity="0"
   inkscape:pageshadow="2"
   inkscape:window-width="640"
   inkscape:window-height="480"
   id="namedview55"
   showgrid="false"
   inkscape:zoom="2.744186"
   inkscape:cx="43.5005"
   inkscape:cy="43"
   inkscape:window-x="0"
   inkscape:window-y="0"
   inkscape:window-maximized="0"
   inkscape:current-layer="Capa_1"><inkscape:grid
     type="xygrid"
     id="grid866" /></sodipodi:namedview>
<g
   id="g52">
	<g
   id="g16">
		<circle
   style="fill:#D5D5D5;"
   cx="13.299"
   cy="35.331"
   r="13.297"
   id="circle2" />
		<circle
   style="fill:#D5D5D5;"
   cx="21.545"
   cy="22.027"
   r="13.297"
   id="circle4" />
		<circle
   style="fill:#D5D5D5;"
   cx="70.79"
   cy="35.331"
   r="13.297"
   id="circle6" />
		<circle
   style="fill:#D5D5D5;"
   cx="62.551"
   cy="22.027"
   r="13.297"
   id="circle8" />
		<circle
   style="fill:#D5D5D5;"
   cx="42.033"
   cy="18.716"
   r="18.714"
   id="circle10" />
		<path
   style="fill:#D5D5D5;"
   d="M19.693,45.275l10.186,20.468l-0.676-2.741l0.676,2.741l-1.684-20.468l7.054,21.728l4.127,2.989    l2.978-26.566l2.816,26.566l4.078-3.318l8.25-20.609l-3.22,19.986l1.154-2.643l-1.154,2.643l9.868-20.649l-6.648-18.001H23.316    L19.693,45.275z"
   id="path12" />
		<path
   style="fill:#D5D5D5;"
   d="M75.793,23.008c0.025-0.325,0.049-0.65,0.049-0.981c0-7.345-5.953-13.297-13.297-13.297    c-1.496,0-2.929,0.258-4.27,0.714C55.05,3.807,48.989,0,42.031,0c-6.956,0-13.013,3.803-16.238,9.435    c-1.337-0.451-2.761-0.705-4.248-0.705c-7.343,0-13.299,5.953-13.299,13.297c0,0.331,0.026,0.656,0.051,0.981    C3.433,24.985,0,29.751,0,35.324c0,7.343,5.953,13.297,13.297,13.297s13.297-5.953,13.297-13.297c0-0.331-0.026-0.656-0.048-0.981    c1.078-0.439,2.083-1.02,2.999-1.713c3.315,2.976,7.682,4.803,12.488,4.803c4.81,0,9.182-1.831,12.498-4.812    c0.92,0.698,1.929,1.283,3.014,1.724c-0.025,0.325-0.049,0.65-0.049,0.981c0,7.343,5.953,13.297,13.297,13.297    c7.345,0,13.299-5.953,13.299-13.297c-0.001-5.575-3.434-10.34-8.298-12.318"
   id="path14" />
	</g>
	<g
   id="g22">
		<path
   style="fill:#C4C4C4;"
   d="M70.79,44.917c-5.288,0-9.592-4.302-9.592-9.592c0-0.211,0.019-0.419,0.033-0.627l0.196-2.687    l-2.495-1.098c-0.76-0.309-1.491-0.728-2.173-1.248l-2.441-1.85l-2.278,2.048c-2.767,2.495-6.327,3.863-10.019,3.863    c-3.688,0-7.243-1.369-10.01-3.854l-2.274-2.042l-2.437,1.843c-0.681,0.514-1.407,0.93-2.162,1.235l-2.495,1.014l0.195,2.685    c0.022,0.293,0.038,0.502,0.038,0.714c0,5.289-4.301,9.592-9.592,9.592c-5.288,0-9.592-4.302-9.592-9.592    c0-3.918,2.349-7.406,5.986-8.884l2.495-1.014l-0.193-2.687c-0.022-0.293-0.041-0.5-0.041-0.713c0-5.289,4.304-9.592,9.593-9.592    c1.028,0,2.058,0.172,3.063,0.511l2.886,0.973L29,11.275c2.676-4.67,7.665-7.571,13.023-7.571c5.36,0,10.351,2.904,13.026,7.578    l1.517,2.65l2.89-0.981c1.01-0.342,2.048-0.516,3.081-0.516c5.288,0,9.592,4.302,9.592,9.592c0,0.211-0.019,0.42-0.033,0.627    l-0.196,2.688l2.495,1.098c3.635,1.477,5.986,4.966,5.986,8.884c0.001,5.286-4.301,9.589-9.592,9.589"
   id="path18" />
		<path
   style="fill:#C4C4C4;"
   d="M20.207,38.065l7.824,20.884l-1.435-26.15l9.669,31.398l5.781-39.886l5.336,39.886L62.514,30.23    l-6.386,29.233l9.684-21.398l-1.665-12.464L41.33,17.673l-19.788,6.139L20.207,38.065z"
   id="path20" />
	</g>
	<path
   style="fill:#747474;"
   d="M15.833,85.964h-3.26l10.826-4.316l-7.566-14.46l15.08,8.355l-2.43-8.54l13.341,8.004l13.279-8.004   l-1.853,7.794l16.367-7.794l-7.103,13.971l7.56,4.99L15.833,85.964z"
   id="path24" />
	<path
   style="fill:#989898;"
   d="M15.833,85.964h50.953l-6.757-4.316l6.757-12.414l-16.058,8.589l2.47-8.17l-11.273,7.436   l-11.272-7.436l2.162,8.17l-12.969-6.688l6.947,11.278L15.833,85.964z"
   id="path26" />
	<path
   style="fill:#C2C2C2;"
   d="M25.354,85.964l4.323-2.211l-4.323-7.51l9.981,5.151l-1.643-6.905l7.634,5.04l8.733-5.657   l-2.167,7.004l13.926-7.004l-5.793,8.745l6.485,3.347H25.354z"
   id="path28" />
	<path
   style="fill:#D5D5D5;"
   d="M35.129,85.964l-4.627-4.99l7.925,2.989l-1.749-4.632l4.652,3.323l5.331-3.323l-1.44,4.521   l9.882-3.286l-4.838,5.398H35.129z"
   id="path30" />
	<g
   id="g50">
		<circle
   style="fill:#E7E7E7;"
   cx="42.033"
   cy="17.915"
   r="9.185"
   id="circle32" />
		<circle
   style="fill:#E7E7E7;"
   cx="62.514"
   cy="22.51"
   r="7.514"
   id="circle34" />
		<circle
   style="fill:#E7E7E7;"
   cx="70.79"
   cy="35.331"
   r="7.448"
   id="circle36" />
		<circle
   style="fill:#E7E7E7;"
   cx="22.233"
   cy="22.51"
   r="7.514"
   id="circle38" />
		<circle
   style="fill:#E7E7E7;"
   cx="13.957"
   cy="35.331"
   r="7.448"
   id="circle40" />
		<path
   style="fill:#E7E7E7;"
   d="M26.596,26.031l9.052,28.066V20.758l-2.793-3.091l1.248,16.781l-4.67-14.092l-1.913,3.45"
   id="path42" />
		<path
   style="fill:#E7E7E7;"
   d="M22.233,28.896l3.743,19.727L21.55,36.134l-5.713-8.011v-2.092l5.713,2.55"
   id="path44" />
		<path
   style="fill:#E7E7E7;"
   d="M59.263,26.031l-10.014,27.73L47.794,22.51l3.418-4.595l0.544,16.534l3.459-13.686l3.125,3.047"
   id="path46" />
		<path
   style="fill:#E7E7E7;"
   d="M63.626,28.896l-3.743,19.727l4.434-12.488l5.707-8.011l-1.643-2.092l-4.064,2.55"
   id="path48" />
	</g>
</g>
</svg>