<?xml version="1.0" encoding="UTF-8" standalone="no"?>
<svg
   xmlns:dc="http://purl.org/dc/elements/1.1/"
   xmlns:cc="http://creativecommons.org/ns#"
   xmlns:rdf="http://www.w3.org/1999/02/22-rdf-syntax-ns#"
   xmlns:svg="http://www.w3.org/2000/svg"
   xmlns="http://www.w3.org/2000/svg"
   xmlns:sodipodi="http://sodipodi.sourceforge.net/DTD/sodipodi-0.dtd"
   xmlns:inkscape="http://www.inkscape.org/namespaces/inkscape"
   viewBox="0 0 99.599998 99.5"
   version="1.1"
   id="svg44"
   sodipodi:docname="controller.svg"
   width="99.599998"
   height="99.5"
   inkscape:version="0.92.4 5da689c313, 2019-01-14">
  <metadata
     id="metadata50">
    <rdf:RDF>
      <cc:Work
         rdf:about="">
        <dc:format>image/svg+xml</dc:format>
        <dc:type
           rdf:resource="http://purl.org/dc/dcmitype/StillImage" />
      </cc:Work>
    </rdf:RDF>
  </metadata>
  <defs
     id="defs48" />
  <sodipodi:namedview
     pagecolor="#ffffff"
     bordercolor="#666666"
     borderopacity="1"
     objecttolerance="10"
     gridtolerance="10"
     guidetolerance="10"
     inkscape:pageopacity="0"
     inkscape:pageshadow="2"
     inkscape:window-width="640"
     inkscape:window-height="480"
     id="namedview46"
     showgrid="false"
     inkscape:zoom="2.3718593"
     inkscape:cx="49.75"
     inkscape:cy="49.75"
     inkscape:window-x="0"
     inkscape:window-y="0"
     inkscape:window-maximized="0"
     inkscape:current-layer="svg44" />
  <path
     d="M 90.5,99.5 H 9.1 C 4.1,99.5 0,95.4 0,90.4 V 9.1 C 0,4.1 4.1,0 9.1,0 h 81.4 c 5,0 9.1,4.1 9.1,9.1 v 81.4 c -0.1,5 -4.1,9 -9.1,9 z"
     id="path2"
     inkscape:connector-curvature="0"
     style="fill:#1b1b1b" />
  <path
     d="m 96.7,11 v 77.5 c 0,4.7 -3.8,8.5 -8.5,8.5 H 11.3 C 6.6,97 2.8,93.2 2.8,88.5 V 11 c 0,-4.7 3.8,-8.5 8.5,-8.5 h 76.9 c 4.7,0 8.5,3.8 8.5,8.5 z"
     id="path4"
     inkscape:connector-curvature="0"
     style="fill:#0d0c0d" />
  <path
     d="m 88.3,55.4 c 0,21.3 -17.2,38.5 -38.5,38.5 -21.3,0 -38.5,-17.2 -38.5,-38.5 0,-7.6 2.2,-14.6 6,-20.6 L 8,25.3 C 6.4,23.1 5.4,20.4 5.4,17.5 c 0,-7.2 5.8,-13 13,-13 3.9,0 7.4,1.7 9.8,4.5 l 9,9.9 c 3.9,-1.3 8.1,-2.1 12.5,-2.1 21.3,0.1 38.6,17.3 38.6,38.6 z"
     id="path6"
     inkscape:connector-curvature="0"
     style="fill:#070208" />
  <path
     d="M 79.1,54.9 C 79.1,71.1 65.9,84.3 49.7,84.3 33.5,84.3 20.3,71.2 20.3,54.9 20.3,38.7 33.5,25.5 49.7,25.5 66,25.5 79.1,38.7 79.1,54.9 Z"
     id="path8"
     inkscape:connector-curvature="0"
     style="fill:#131212" />
  <path
     d="m 49.8,34.3 c -11.4,0 -20.6,9.2 -20.6,20.6 0,11.4 9.2,20.6 20.6,20.6 11.4,0 20.6,-9.2 20.6,-20.6 C 70.3,43.5 61.1,34.3 49.8,34.3 Z m 0,35.1 c -8,0 -14.5,-6.5 -14.5,-14.5 0,-8 6.5,-14.5 14.5,-14.5 8,0 14.5,6.5 14.5,14.5 0,8 -6.5,14.5 -14.5,14.5 z"
     id="path10"
     inkscape:connector-curvature="0"
     style="fill:#131212" />
  <path
     d="M 49.8,29.4 C 35.7,29.4 24.3,40.8 24.3,54.9 24.3,69 35.7,80.4 49.8,80.4 63.9,80.4 75.3,69 75.3,54.9 75.2,40.8 63.8,29.4 49.8,29.4 Z m 0,46 c -11.4,0 -20.6,-9.2 -20.6,-20.6 0,-11.4 9.2,-20.6 20.6,-20.6 11.4,0 20.6,9.2 20.6,20.6 -0.1,11.4 -9.3,20.6 -20.6,20.6 z"
     id="path12"
     inkscape:connector-curvature="0"
     style="fill:#070208" />
  <path
     d="m 49.8,24.6 c -16.7,0 -30.3,13.6 -30.3,30.3 0,16.7 13.6,30.3 30.3,30.3 16.7,0 30.3,-13.6 30.3,-30.3 0,-16.7 -13.6,-30.3 -30.3,-30.3 z m 0,59.7 C 33.6,84.3 20.4,71.2 20.4,54.9 20.4,38.7 33.6,25.5 49.8,25.5 66,25.5 79.2,38.6 79.2,54.9 79.1,71.1 66,84.3 49.8,84.3 Z"
     id="path14"
     inkscape:connector-curvature="0"
     style="fill:#5d5d5d" />
  <path
     d="m 18.3,8.4 c -5,0 -9.1,4.1 -9.1,9.1 0,5 4.1,9.1 9.1,9.1 5,0 9.1,-4.1 9.1,-9.1 0,-5 -4.1,-9.1 -9.1,-9.1 z"
     id="path16"
     inkscape:connector-curvature="0"
     style="fill:#891d22" />
  <path
     d="m 26.7,17.5 c 0,4.7 -3.8,8.4 -8.4,8.4 -4.7,0 -8.4,-3.8 -8.4,-8.4 0,-4.6 3.7,-8.5 8.4,-8.5 4.7,0 8.4,3.8 8.4,8.5 z"
     id="path18"
     inkscape:connector-curvature="0"
     style="fill:#af2728" />
  <g
     id="g22"
     style="fill:#ce6e32">
    <path
       d="m 61.5,21 -0.7,1.9 c -1.2,-0.4 -2.3,-0.7 -3.6,-1 l 0.3,-2.1 c 1.3,0.4 2.7,0.7 4,1.2 z m 5.8,2.6 -1,1.8 C 65.2,24.8 64.1,24.3 63,23.8 l 0.7,-1.9 c 1.2,0.4 2.4,1 3.6,1.7 z m 5.4,3.7 -1.5,1.5 C 70.3,28 69.3,27.3 68.3,26.7 L 69.5,25 c 1.1,0.6 2.2,1.4 3.2,2.3 z m 4.5,4.4 -1.6,1.3 c -0.7,-0.9 -1.5,-1.7 -2.4,-2.5 l 1.5,-1.4 c 0.8,0.8 1.7,1.7 2.5,2.6 z m 3.3,4.7 -1.9,0.9 c -0.5,-0.9 -1.1,-1.7 -1.7,-2.5 l 1.6,-1.3 c 0.8,0.9 1.4,1.9 2,2.9 z m 2.7,5.4 -2,0.7 c -0.4,-1 -0.8,-2 -1.3,-2.9 l 1.8,-1 c 0.6,1.1 1.1,2.1 1.5,3.2 z m 1.6,5.4 -2,0.4 C 82.6,46.7 82.4,45.8 82.1,44.9 L 84,44.2 c 0.3,1 0.6,2 0.8,3 z m 0,14.9 c -0.2,1.1 -0.5,2.1 -0.8,3.1 l -2,-0.7 c 0.3,-0.9 0.5,-1.8 0.7,-2.8 z m -1.7,5.4 c -0.4,1.1 -0.9,2.2 -1.4,3.2 l -1.8,-1.1 c 0.5,-0.9 0.9,-1.9 1.3,-2.9 z m -2.6,5.4 c -0.6,1 -1.2,1.9 -1.9,2.8 L 77,74.4 c 0.6,-0.8 1.1,-1.6 1.7,-2.5 z m -3.4,4.7 c -0.8,1 -1.7,1.9 -2.6,2.8 l -1.4,-1.6 c 0.8,-0.8 1.6,-1.6 2.3,-2.4 z m -4.4,4.3 c -1.1,0.9 -2.2,1.7 -3.4,2.5 l -0.9,-1.9 c 1,-0.7 2,-1.4 2.9,-2.2 z m -5.4,3.7 c -1.1,0.6 -2.3,1.2 -3.6,1.7 L 63,85.4 c 1.1,-0.5 2.2,-1 3.2,-1.6 z m -5.8,2.6 C 60.3,88.6 59,89 57.7,89.3 l -0.4,-2 c 1.2,-0.3 2.3,-0.6 3.4,-1 z m -18.6,-0.9 -0.4,2 C 41.2,89 39.9,88.7 38.7,88.2 l 0.7,-1.9 c 1.2,0.4 2.3,0.7 3.5,1 z m -5.8,-1.9 -0.7,1.9 C 35.2,86.8 34,86.2 32.8,85.6 l 1.1,-1.8 c 1.1,0.7 2.1,1.2 3.2,1.6 z m -5.3,-2.8 -1.1,1.8 c -1.2,-0.8 -2.3,-1.6 -3.3,-2.5 l 1.4,-1.5 c 1,0.8 2,1.6 3,2.2 z m -4.7,-3.7 -1.4,1.5 c -0.9,-0.9 -1.8,-1.8 -2.6,-2.7 l 1.6,-1.3 c 0.7,0.8 1.5,1.7 2.4,2.5 z m -4,-4.5 -1.7,1.2 c -0.7,-0.9 -1.3,-1.8 -1.8,-2.7 l 1.8,-1 c 0.6,0.9 1.1,1.7 1.7,2.5 z m -2.8,-4.6 -1.8,1.1 C 18,69.9 17.5,68.8 17,67.7 L 18.9,67 c 0.4,0.9 0.9,1.8 1.4,2.8 z m -2.2,-5.4 -1.9,0.8 c -0.3,-1 -0.6,-2.1 -0.8,-3.1 l 2,-0.3 c 0.2,0.8 0.4,1.7 0.7,2.6 z m 0,-19.6 c -0.3,0.9 -0.5,1.8 -0.7,2.8 l -2,-0.4 c 0.2,-1 0.5,-2 0.8,-3 z m 2.1,-5.2 c -0.5,0.9 -0.9,1.9 -1.3,2.9 l -2,-0.7 c 0.4,-1.1 0.9,-2.1 1.4,-3.1 z m 2.9,-4.7 c -0.6,0.8 -1.1,1.6 -1.6,2.4 l -1.8,-1 c 0.6,-0.9 1.2,-1.9 1.8,-2.7 z m 4,-4.5 c -0.8,0.8 -1.6,1.6 -2.4,2.5 l -1.6,-1.3 c 0.8,-1 1.7,-1.9 2.6,-2.7 z m 4.7,-3.8 c -1,0.7 -2,1.4 -2.9,2.1 l -1.4,-1.6 c 1,-0.8 2.1,-1.6 3.2,-2.3 z m 5.4,-2.9 c -1.1,0.5 -2.2,1 -3.2,1.5 l -1,-1.7 c 1.1,-0.6 2.2,-1.1 3.4,-1.6 z m 5.7,-1.8 c -1.2,0.3 -2.3,0.6 -3.4,0.9 L 38.6,21 c 1.2,-0.4 2.5,-0.8 3.8,-1.1 z"
       id="path20"
       inkscape:connector-curvature="0" />
  </g>
  <g
     id="g26"
     style="fill:#cd6c30">
    <path
       d="m 48.1,19.9 h -1.2 v 1.8 H 46.4 V 19.9 H 45.2 V 19.7 H 48 v 0.2 z m 2.1,-0.3 c 0.5,0 0.9,0.1 1.2,0.3 0.3,0.2 0.5,0.5 0.5,0.8 0,0.3 -0.2,0.6 -0.5,0.8 -0.3,0.2 -0.7,0.3 -1.2,0.3 -0.5,0 -0.9,-0.1 -1.2,-0.3 -0.3,-0.2 -0.5,-0.5 -0.5,-0.8 0,-0.3 0.2,-0.6 0.5,-0.8 0.3,-0.2 0.7,-0.3 1.2,-0.3 z m 0,2 c 0.4,0 0.7,-0.1 0.9,-0.2 0.2,-0.1 0.3,-0.4 0.3,-0.6 0,-0.3 -0.1,-0.5 -0.3,-0.6 -0.2,-0.1 -0.5,-0.2 -0.9,-0.2 -0.4,0 -0.7,0.1 -0.9,0.2 -0.2,0.1 -0.3,0.4 -0.3,0.6 0,0.3 0.1,0.5 0.3,0.6 0.2,0.1 0.5,0.2 0.9,0.2 z m 2.3,-1.9 h 2 c 0.2,0 0.4,0.1 0.5,0.2 0.1,0.1 0.2,0.2 0.2,0.4 0,0.2 -0.1,0.4 -0.3,0.5 -0.2,0.1 -0.6,0.2 -1,0.2 H 53 v 0.8 h -0.5 z m 0.5,1 h 0.9 c 0.3,0 0.5,0 0.6,-0.1 0.1,-0.1 0.2,-0.2 0.2,-0.3 0,-0.1 0,-0.2 -0.1,-0.2 C 54.5,20 54.4,20 54.3,20 H 53 Z"
       id="path24"
       inkscape:connector-curvature="0" />
  </g>
  <g
     id="g30"
     style="fill:#cd6c30">
    <path
       d="m 15.4,49.8 1.5,0.2 -0.2,3.4 h -4.8 v -0.5 l 3.3,-1.2 z m 0,9.7 1.5,-0.2 -0.2,-3.4 h -4.8 v 0.5 l 3.3,1.2 z"
       id="path28"
       inkscape:connector-curvature="0" />
  </g>
  <g
     id="g34"
     style="fill:#cd6c30">
    <path
       d="m 84.6,59.5 -1.5,-0.2 0.2,-3.4 h 4.8 v 0.5 l -3.3,1.2 z m 0,-9.7 -1.5,0.2 0.2,3.4 h 4.8 v -0.5 l -3.3,-1.2 z"
       id="path32"
       inkscape:connector-curvature="0" />
  </g>
  <path
     d="m 64.3,55.1 c 0,8 -6.5,14.5 -14.5,14.5 -8,0 -14.5,-6.5 -14.5,-14.5 0,-8 6.5,-14.5 14.5,-14.5 8,0 14.5,6.5 14.5,14.5 z"
     id="path36"
     inkscape:connector-curvature="0"
     style="fill:#070208" />
  <path
     d="m 39.7,49.2 v 11.7 l 10.1,5.9 10.1,-5.9 V 49.2 L 49.8,43.4 Z"
     id="path38"
     inkscape:connector-curvature="0"
     style="fill:#161717" />
  <path
     d="M 40.8,60.3 V 49.9 l 9,-5.2 9,5.2 v 10.4 l -9,5.2 z"
     id="path40"
     inkscape:connector-curvature="0"
     style="fill:#2f2e2e" />
  <circle
     cx="49.799999"
     cy="55.099998"
     r="3.4000001"
     id="circle42"
     style="fill:#161717" />
</svg>
