<?xml version="1.0" encoding="UTF-8" standalone="no"?>
<svg
   xmlns:dc="http://purl.org/dc/elements/1.1/"
   xmlns:cc="http://creativecommons.org/ns#"
   xmlns:rdf="http://www.w3.org/1999/02/22-rdf-syntax-ns#"
   xmlns:svg="http://www.w3.org/2000/svg"
   xmlns="http://www.w3.org/2000/svg"
   xmlns:sodipodi="http://sodipodi.sourceforge.net/DTD/sodipodi-0.dtd"
   xmlns:inkscape="http://www.inkscape.org/namespaces/inkscape"
   viewBox="0 0 411 109.564"
   version="1.1"
   id="svg4"
   sodipodi:docname="logo.svg"
   width="411"
   height="109.564"
   inkscape:version="0.92.4 5da689c313, 2019-01-14">
  <metadata
     id="metadata10">
    <rdf:RDF>
      <cc:Work
         rdf:about="">
        <dc:format>image/svg+xml</dc:format>
        <dc:type
           rdf:resource="http://purl.org/dc/dcmitype/StillImage" />
      </cc:Work>
    </rdf:RDF>
  </metadata>
  <defs
     id="defs8" />
  <sodipodi:namedview
     pagecolor="#ffffff"
     bordercolor="#666666"
     borderopacity="1"
     objecttolerance="10"
     gridtolerance="10"
     guidetolerance="10"
     inkscape:pageopacity="0"
     inkscape:pageshadow="2"
     inkscape:window-width="640"
     inkscape:window-height="480"
     id="namedview6"
     showgrid="false"
     inkscape:zoom="0.66373576"
     inkscape:cx="204.14751"
     inkscape:cy="54.781999"
     inkscape:window-x="0"
     inkscape:window-y="0"
     inkscape:window-maximized="0"
     inkscape:current-layer="svg4" />
  <path
     d="M 88.517,109.192 H 65.614 L 59.92,88.765 H 28.97 l -5.942,20.427 H 0 L 28.598,14.361 c 1.114,-3.714 2.971,-6.809 5.695,-9.409 2.6,-2.6 5.819,-3.962 9.533,-3.962 4.085,0 7.676,1.362 10.771,4.209 3.095,2.847 5.2,6.314 6.438,10.399 z M 53.729,68.957 44.568,22.656 34.417,68.957 Z m 93.718,-46.054 h -20.056 v 86.289 H 104.859 V 22.903 H 84.556 V 2.6 h 62.891 z m 84.679,86.289 h -22.903 l -5.695,-20.427 h -30.95 l -5.942,20.427 h -23.027 l 28.598,-94.831 c 1.114,-3.714 2.971,-6.809 5.695,-9.409 2.6,-2.6 5.819,-3.962 9.533,-3.962 4.085,0 7.676,1.362 10.771,4.209 3.095,2.847 5.2,6.314 6.438,10.399 z M 197.338,68.957 188.177,22.656 178.025,68.957 Z m 115.135,40.235 H 286.475 L 264.562,67.224 c -0.99,-1.981 -1.857,-3.838 -2.476,-5.571 -0.619,-1.609 -0.99,-2.971 -0.99,-3.838 0,-4.704 3.59,-8.542 11.018,-11.513 7.304,-2.971 11.018,-6.809 11.018,-11.266 0,-2.724 -0.99,-5.447 -3.095,-8.171 -2.105,-2.6 -4.333,-3.962 -6.809,-3.962 h -12.875 v 86.289 H 238.564 V 17.084 c 0,-3.219 1.486,-6.438 4.457,-9.533 2.971,-3.095 5.942,-4.581 8.914,-4.581 H 273.6 c 8.418,0 15.846,3.095 22.16,9.161 6.314,6.19 9.533,13.247 9.533,21.294 0,6.438 -1.857,11.885 -5.447,16.342 -3.59,4.457 -8.666,8.171 -14.98,11.142 z m 31.074,0.372 H 320.891 V 2.971 h 22.656 z m 51.13,-18.323 v 15.351 c 0,0.619 -0.371,1.238 -1.238,1.857 -0.867,0.619 -1.733,0.867 -2.6,0.867 -1.362,0 -3.095,-0.99 -5.323,-2.971 -2.105,-1.981 -4.333,-3.962 -6.438,-6.066 -2.105,-1.981 -3.838,-3.095 -5.076,-3.095 -0.619,0 -1.238,0.248 -1.857,0.867 -0.619,0.495 -0.867,1.238 -0.867,2.105 0,0.867 0.248,1.609 0.867,2.228 0.619,0.619 1.362,0.867 2.352,0.867 v 5.942 c -2.476,0 -4.581,-0.867 -6.438,-2.724 -1.733,-1.857 -2.724,-3.962 -2.724,-6.438 0,-2.476 0.867,-4.581 2.724,-6.314 1.733,-1.733 3.838,-2.6 6.314,-2.6 2.476,0 5.076,1.238 7.428,3.59 2.476,2.352 4.828,4.581 7.057,6.809 l 0.124,-10.399 h 5.695 z M 392.201,70.69 c -1.981,-2.105 -4.333,-3.095 -7.18,-3.095 -2.6,0 -4.828,0.99 -6.438,2.724 -1.733,1.857 -2.6,4.209 -2.6,7.057 L 365.336,72.3 v 6.809 c 0,0 1.486,0.743 4.333,2.228 2.847,1.486 5.819,2.847 8.79,4.209 2.971,1.362 4.952,1.981 6.066,1.981 2.724,0 5.2,-0.99 7.304,-2.724 2.105,-1.733 3.219,-3.962 3.219,-6.685 0,-2.847 -0.867,-5.323 -2.847,-7.428 z m -4.21,9.657 c -0.743,0.619 -1.609,0.99 -2.847,0.99 -0.99,0 -1.857,-0.371 -2.724,-1.114 -0.867,-0.743 -1.238,-1.733 -1.238,-2.724 0,-0.991 0.495,-1.981 1.238,-2.724 0.743,-0.743 1.733,-1.114 2.847,-1.114 0.99,0 1.857,0.371 2.6,0.99 0.743,0.743 1.114,1.609 1.114,2.847 0.001,1.239 -0.371,2.106 -0.99,2.849 z M 394.8,49.892 c 0,-4.333 -1.486,-7.799 -4.457,-10.399 -3.095,-2.724 -6.561,-4.085 -10.399,-4.085 -3.838,0 -7.304,1.486 -10.275,4.457 -2.971,2.971 -4.457,6.438 -4.457,10.399 0,3.961 1.486,7.552 4.457,10.523 2.847,2.971 6.561,4.457 10.771,4.457 4.333,0 7.799,-1.486 10.399,-4.581 2.6,-2.972 3.961,-6.686 3.961,-10.771 z m -8.17,6.437 c -1.609,1.857 -3.714,2.724 -6.19,2.724 -2.352,0 -4.457,-0.867 -6.314,-2.6 -1.857,-1.733 -2.724,-3.838 -2.724,-6.438 0,-2.228 0.867,-4.209 2.6,-5.942 1.733,-1.733 3.714,-2.6 5.942,-2.6 2.724,0 4.828,0.867 6.561,2.352 1.609,1.733 2.476,3.714 2.476,6.066 0.001,2.477 -0.742,4.705 -2.351,6.438 z m 8.17,-38.873 c 0,-4.333 -1.486,-7.799 -4.457,-10.399 -3.095,-2.724 -6.561,-4.085 -10.399,-4.085 -3.838,0 -7.304,1.486 -10.275,4.457 -2.971,2.971 -4.457,6.438 -4.457,10.399 0,3.961 1.486,7.552 4.457,10.523 2.847,2.971 6.561,4.457 10.771,4.457 4.333,0 7.799,-1.486 10.399,-4.581 2.6,-2.972 3.961,-6.686 3.961,-10.771 z m -8.17,6.437 c -1.609,1.857 -3.714,2.724 -6.19,2.724 -2.352,0 -4.457,-0.867 -6.314,-2.6 -1.857,-1.733 -2.724,-3.838 -2.724,-6.438 0,-2.228 0.867,-4.209 2.6,-5.942 1.733,-1.733 3.714,-2.6 5.942,-2.6 2.724,0 4.828,0.867 6.561,2.352 1.609,1.733 2.476,3.714 2.476,6.066 0.001,2.477 -0.742,4.705 -2.351,6.438 z M 354.07,0 c 0.743,0 1.486,0.248 2.228,0.619 0.743,0.371 1.238,0.99 1.733,1.609 0.371,0.743 0.619,1.486 0.619,2.228 0,0.742 -0.248,1.486 -0.619,2.228 -0.371,0.743 -0.99,1.238 -1.609,1.733 -0.743,0.371 -1.486,0.619 -2.228,0.619 -0.742,0 -1.486,-0.248 -2.228,-0.619 -0.743,-0.371 -1.238,-0.99 -1.733,-1.733 -0.371,-0.743 -0.619,-1.486 -0.619,-2.228 0,-0.742 0.248,-1.486 0.619,-2.228 0.371,-0.743 0.99,-1.238 1.733,-1.609 C 352.584,0.248 353.327,0 354.07,0 Z m 0,0.743 c -0.619,0 -1.238,0.124 -1.857,0.495 -0.619,0.371 -1.114,0.743 -1.362,1.362 -0.371,0.619 -0.495,1.238 -0.495,1.857 0,0.619 0.124,1.238 0.495,1.857 0.371,0.619 0.743,1.114 1.362,1.362 0.619,0.371 1.238,0.495 1.857,0.495 0.619,0 1.238,-0.124 1.857,-0.495 0.619,-0.371 1.114,-0.743 1.362,-1.362 0.371,-0.619 0.495,-1.238 0.495,-1.857 0,-0.619 -0.124,-1.238 -0.495,-1.857 -0.371,-0.619 -0.867,-1.114 -1.362,-1.362 -0.495,-0.248 -1.238,-0.495 -1.857,-0.495 z m -1.981,6.314 V 2.105 h 1.609 c 0.619,0 0.99,0 1.238,0.124 0.248,0.124 0.495,0.248 0.619,0.495 0.124,0.247 0.248,0.495 0.248,0.743 0,0.371 -0.124,0.619 -0.371,0.867 -0.248,0.248 -0.619,0.371 -0.99,0.495 0.124,0.124 0.248,0.124 0.371,0.248 0.248,0.248 0.495,0.495 0.743,0.99 l 0.619,0.99 h -0.867 L 354.813,6.19 C 354.442,5.571 354.194,5.2 353.946,5.076 353.822,4.952 353.698,4.952 353.327,4.952 h -0.495 v 2.105 z m 0.867,-2.724 h 0.99 c 0.495,0 0.743,-0.124 0.99,-0.248 0.124,-0.124 0.248,-0.371 0.248,-0.495 0,-0.124 0,-0.248 -0.124,-0.371 -0.124,-0.124 -0.248,-0.248 -0.371,-0.248 -0.123,0 -0.371,-0.124 -0.743,-0.124 h -0.867 V 4.333 Z M 399.01,7.428 V 2.476 h -1.857 V 1.609 h 4.828 v 0.867 h -2.105 v 4.952 z m 3.466,0 V 1.609 h 1.486 l 1.486,4.704 1.486,-4.704 h 1.362 v 5.819 h -0.867 V 2.476 l -1.486,4.952 h -0.867 l -1.609,-4.952 v 4.952 z"
     id="path2"
     inkscape:connector-curvature="0"
     style="fill:#ed1c24" />
</svg>
