<?xml version="1.0" encoding="UTF-8" standalone="no"?>
<svg
   xmlns:dc="http://purl.org/dc/elements/1.1/"
   xmlns:cc="http://creativecommons.org/ns#"
   xmlns:rdf="http://www.w3.org/1999/02/22-rdf-syntax-ns#"
   xmlns:svg="http://www.w3.org/2000/svg"
   xmlns="http://www.w3.org/2000/svg"
   xmlns:sodipodi="http://sodipodi.sourceforge.net/DTD/sodipodi-0.dtd"
   xmlns:inkscape="http://www.inkscape.org/namespaces/inkscape"
   viewBox="0 0 357.27498 238.41299"
   version="1.1"
   id="svg56"
   sodipodi:docname="console.svg"
   width="357.27499"
   height="238.41299"
   inkscape:version="0.92.4 5da689c313, 2019-01-14">
  <metadata
     id="metadata62">
    <rdf:RDF>
      <cc:Work
         rdf:about="">
        <dc:format>image/svg+xml</dc:format>
        <dc:type
           rdf:resource="http://purl.org/dc/dcmitype/StillImage" />
      </cc:Work>
    </rdf:RDF>
  </metadata>
  <defs
     id="defs60" />
  <sodipodi:namedview
     pagecolor="#ffffff"
     bordercolor="#666666"
     borderopacity="1"
     objecttolerance="10"
     gridtolerance="10"
     guidetolerance="10"
     inkscape:pageopacity="0"
     inkscape:pageshadow="2"
     inkscape:window-width="640"
     inkscape:window-height="480"
     id="namedview58"
     showgrid="false"
     inkscape:zoom="0.75852357"
     inkscape:cx="178.63651"
     inkscape:cy="119.207"
     inkscape:window-x="0"
     inkscape:window-y="0"
     inkscape:window-maximized="0"
     inkscape:current-layer="svg56" />
  <path
     d="m 281.279,103.853 c -0.253,-0.168 -6.181,-4.192 -6.181,-10.354 V 73.164 h 0.56 c 0.782,0 1.417,-0.635 1.417,-1.416 v -3.279 a 1.42,1.42 0 0 0 -0.857,1.302 v 2.538 h -5.075 v -2.538 a 4.521,4.521 0 0 1 4.515,-4.516 h 3.395 v -5.616 a 4.527,4.527 0 0 1 -1.977,-3.708 4.522,4.522 0 0 1 4.515,-4.519 4.521,4.521 0 0 1 4.515,4.516 4.532,4.532 0 0 1 -1.977,3.711 v 5.616 h 3.395 a 4.521,4.521 0 0 1 4.515,4.516 v 2.538 h -5.075 v -2.538 c 0,-0.582 -0.353,-1.083 -0.857,-1.302 v 3.279 c 0,0.781 0.635,1.416 1.417,1.416 h 0.56 v 20.335 c 0,6.161 -5.928,10.186 -6.181,10.354 l -0.311,0.208 z M 278.195,93.5 c 0.22,2.53 1.45,4.936 3.395,6.628 a 10.023,10.023 0 0 0 3.397,-6.676 l -0.002,-17.973 a 4.527,4.527 0 0 1 -1.977,-3.73 v -3.395 h -2.835 v 3.394 a 4.532,4.532 0 0 1 -1.977,3.731 V 93.5 Z m 3.395,-38.988 c -0.782,0 -1.417,0.635 -1.417,1.416 a 1.418,1.418 0 0 0 2.834,0 c 0,-0.781 -0.635,-1.416 -1.417,-1.416 z M 117.462,155.361 a 4.521,4.521 0 0 1 -4.516,-4.515 V 75.703 a 4.521,4.521 0 0 1 4.516,-4.516 h 122.602 a 4.521,4.521 0 0 1 4.515,4.516 v 75.143 a 4.52,4.52 0 0 1 -4.515,4.515 H 117.462 Z m 122.602,-3.098 c 0.782,0 1.417,-0.635 1.417,-1.417 v -60.74 h -65.257 v -7.91 h -28.54 v 70.067 z m -124.019,-1.417 c 0,0.782 0.635,1.417 1.416,1.417 h 27.123 V 82.196 h -28.54 v 68.65 z M 241.481,87.007 v -4.81 h -62.157 v 4.81 z m 0,-7.91 v -3.394 c 0,-0.781 -0.635,-1.416 -1.417,-1.416 H 117.462 c -0.781,0 -1.416,0.635 -1.416,1.416 v 3.394 z m -116.109,64.399 a 2.54,2.54 0 0 1 -2.538,-2.537 v -9.327 h -3.955 v -3.097 h 18.919 v 3.097 h -11.865 v 2.835 h 15.82 v 3.097 h -15.82 v 2.835 h 15.82 v 3.097 z m 0,-21.752 a 2.54,2.54 0 0 1 -2.538,-2.537 v -3.394 h -3.955 v -3.099 h 18.919 v 3.099 h -11.865 v 2.833 h 15.82 v 3.098 z m 0,-15.818 a 2.541,2.541 0 0 1 -2.538,-2.538 V 88.129 h -3.955 v -3.1 h 18.919 v 3.099 h -11.865 v 2.833 h 15.82 v 3.099 h -15.82 v 2.833 h 15.82 v 3.099 h -15.82 v 2.833 h 15.82 v 3.099 H 125.372 Z M 148.54,86.151 v -3.099 h 26.829 v 3.099 z m 88.557,-7.415 c -0.95,0 -1.75,-0.651 -1.977,-1.529 a 2.047,2.047 0 0 1 -1.977,1.529 c -0.95,0 -1.75,-0.651 -1.977,-1.529 a 2.047,2.047 0 0 1 -1.977,1.529 2.045,2.045 0 0 1 0,-4.088 2.057,2.057 0 0 1 1.976,1.533 2.048,2.048 0 0 1 1.979,-1.533 2.057,2.057 0 0 1 1.976,1.533 2.048,2.048 0 0 1 1.979,-1.533 2.054,2.054 0 0 1 2.043,2.036 2.05,2.05 0 0 1 -2.045,2.052 z M 164.36,78.241 v -3.099 h 28.805 v 3.099 z"
     id="path2"
     inkscape:connector-curvature="0"
     style="fill:#070308" />
  <path
     d="M 240.064,71.748 H 117.462 a 3.955,3.955 0 0 0 -3.955,3.955 v 75.143 a 3.955,3.955 0 0 0 3.955,3.955 h 122.602 a 3.955,3.955 0 0 0 3.955,-3.955 V 75.703 a 3.956,3.956 0 0 0 -3.955,-3.955 z m -122.602,81.075 a 1.977,1.977 0 0 1 -1.977,-1.977 V 81.635 h 29.662 v 71.188 z m 124.579,-1.977 a 1.977,1.977 0 0 1 -1.977,1.977 h -92.94 V 81.635 h 29.662 v 7.91 h 65.256 v 61.301 z m 0,-63.278 h -63.278 v -5.932 h 63.278 z m 0,-7.91 H 115.484 v -3.955 c 0,-1.092 0.885,-1.977 1.977,-1.977 h 122.602 c 1.092,0 1.977,0.885 1.977,1.977 v 3.955 z m -11.37,-2.966 a 1.483,1.483 0 1 1 -1.483,-1.483 c 0.814,0.01 1.472,0.668 1.483,1.483 z m 3.955,0 a 1.483,1.483 0 1 1 -1.483,-1.483 c 0.814,0.01 1.472,0.668 1.483,1.483 z m 3.954,0 a 1.483,1.483 0 1 1 -1.483,-1.483 c 0.815,0.01 1.473,0.668 1.483,1.483 z m -73.659,-0.989 h 27.684 v 1.977 h -27.684 z m -15.82,7.91 h 25.707 v 1.977 h -25.707 z m -23.729,11.864 v 1.977 h 15.82 v 1.977 h -15.82 v 3.955 h 15.82 v 1.977 h -15.82 a 1.977,1.977 0 0 1 -1.977,-1.977 v -15.82 h -3.955 v -1.977 h 17.797 v 1.977 h -11.865 v 3.955 h 15.82 v 1.977 h -15.82 z m 0,23.73 h 15.82 v 1.977 h -15.82 a 1.977,1.977 0 0 1 -1.977,-1.977 v -3.955 h -3.955 v -1.977 h 17.797 v 1.977 h -11.865 z m 0,15.819 h 15.82 v 1.977 h -15.82 v 3.955 h 15.82 v 1.977 h -15.82 a 1.977,1.977 0 0 1 -1.977,-1.977 v -9.887 h -3.955 v -1.977 h 17.797 v 1.977 h -11.865 z"
     id="path4"
     inkscape:connector-curvature="0"
     style="fill:#ffffff" />
  <path
     d="M 194.582,99.017 H 172.83 v 24.975 c 0,17.797 21.752,23.017 21.752,23.017 0,0 21.752,-5.201 21.752,-23.017 V 99.017 Z"
     id="path6"
     inkscape:connector-curvature="0"
     style="fill:#d37d2d" />
  <path
     d="M 194.582,95.477 H 172.83 v 24.975 c 0,17.797 21.752,22.998 21.752,22.998 0,0 21.752,-5.181 21.752,-22.998 V 95.477 Z"
     id="path8"
     inkscape:connector-curvature="0"
     style="fill:#e5b131" />
  <path
     d="m 202.492,111.297 c -1.74,0.475 -7.396,5.398 -10.678,8.681 -6.15,6.15 -6.526,9.63 -5.932,10.144 0.593,0.514 3.955,0.138 10.144,-5.932 3.283,-3.283 8.206,-8.938 8.681,-10.678 z m 0.495,-0.547 0.713,-0.713 2.14,2.138 -0.714,0.714 z m 3.322,0.982 c 0,0 2.234,0.831 3.737,-2.155 1.503,-2.986 2.67,-2.946 2.986,-2.729 -0.692,-0.613 -4.785,-1.977 -6.684,-0.613 a 5.656,5.656 0 0 0 -2.195,3.342 z m -10.956,-6.545 -1.76,-1.799 0.138,0.138 a 2.611,2.611 0 0 0 -3.678,0 l -0.653,0.653 a 2.294,2.294 0 0 1 -3.243,0 l -0.554,-0.554 -6.229,6.288 0.554,0.534 a 2.333,2.333 0 0 1 0,3.263 l -1.622,-1.622 -2.492,2.472 5.082,5.082 2.492,-2.412 -1.641,-1.622 a 2.333,2.333 0 0 1 3.263,0 l 0.534,0.554 1.167,-1.167 3.955,-3.955 1.147,-1.167 -0.573,-0.554 a 1.978,1.978 0 0 1 -0.475,-2.749 1.502,1.502 0 0 1 2.214,0 l 0.514,0.534 z"
     id="path10"
     inkscape:connector-curvature="0"
     style="fill:#d37d2d" />
  <path
     d="m 205.221,126.029 -5.319,-5.339 c -3.342,-3.461 -4.172,-2.828 -8.503,-7.178 l -2.175,2.195 c 4.331,4.331 3.718,5.042 7.158,8.483 l 5.339,5.339 a 2.492,2.492 0 0 0 3.52,-3.52 z m -18.034,-10.632 3.916,-3.915 0.712,0.712 -3.915,3.916 z m 23.215,-9.578 0.91,0.811 h 1.522 l 0.218,0.158 v -1.384 c -0.198,-0.138 -0.455,-0.257 -1.463,0 z m -5.478,2.195 -0.771,0.198 v 1.562 l 1.028,0.949 0.712,-0.356 -0.237,-1.641 z m -3.025,5.043 2.669,0.395 v -1.384 h -2.551 z"
     id="path12"
     inkscape:connector-curvature="0"
     style="fill:#d37d2d" />
  <path
     d="m 203.817,112.325 2.017,-0.138 v -1.384 l -2.393,-1.345 -0.455,-0.079 v 2.017 z m -17.837,-0.059 1.187,1.74 v 1.384 l 2.056,-1.068 v 1.385 l 2.393,-0.534 0.178,-2.986 v -1.384 l -0.732,-0.416 0.396,-0.534 h 0.316 v -1.384 l -5.141,3.006 z m -6.604,-3.738 v 1.385 l 2.254,0.138 -1.364,-1.997 z m 6.209,21.04 v -1.463 l 1.265,-0.257 -0.929,2.096 z m -9.769,-16.373 v 1.365 l 7.574,2.59 v -1.364 z m 16.789,1.424 0.316,6.13 1.661,-3.816 v -1.977 z m -1.978,-10.836 1.286,0.039 v 1.365 l -1.859,-0.495 z"
     id="path14"
     inkscape:connector-curvature="0"
     style="fill:#d37d2d" />
  <path
     d="m 202.492,109.932 c -1.74,0.475 -7.396,5.398 -10.678,8.681 -6.15,6.15 -6.526,9.63 -5.932,10.144 0.593,0.514 3.955,0.138 10.144,-5.932 3.283,-3.283 8.206,-8.938 8.681,-10.678 z m 0.499,-0.562 0.714,-0.713 2.138,2.139 -0.713,0.713 z m 3.318,0.978 c 0,0 2.234,0.831 3.737,-2.155 1.503,-2.986 2.67,-2.946 2.986,-2.729 -0.692,-0.613 -4.785,-1.977 -6.684,-0.593 a 5.615,5.615 0 0 0 -2.195,3.342 z m -10.956,-6.526 -1.76,-1.76 0.138,0.138 a 2.611,2.611 0 0 0 -3.678,0 l -0.653,0.653 a 2.294,2.294 0 0 1 -3.243,0 l -0.554,-0.554 -6.229,6.229 0.554,0.554 a 2.294,2.294 0 0 1 0,3.243 l -1.622,-1.622 -2.492,2.571 5.082,5.062 2.492,-2.472 -1.641,-1.641 a 2.333,2.333 0 0 1 3.263,0 l 0.534,0.554 1.167,-1.147 3.955,-3.955 1.147,-1.167 -0.534,-0.514 a 2.095,2.095 0 0 1 -0.475,-2.768 1.502,1.502 0 0 1 2.214,0 l 0.514,0.534 z m -8.175,10.181 3.915,-3.915 0.713,0.712 -3.916,3.916 z m 7.404,0.952 a 38.053,38.053 0 0 1 -3.105,-2.808 l -2.175,2.175 a 36.822,36.822 0 0 1 2.729,3.006 c 0.574,-0.732 1.523,-1.542 2.551,-2.373 z"
     id="path16"
     inkscape:connector-curvature="0"
     style="fill:#ffffff" />
  <path
     d="m 195.116,115.43 c -0.949,0.85 -1.859,1.72 -2.689,2.511 a 37.558,37.558 0 0 0 3.678,4.588 105.783,105.783 0 0 0 3.381,-3.619 34.533,34.533 0 0 0 -4.37,-3.48 z m 10.164,9.254 -5.181,-5.201 a 101.85,101.85 0 0 1 -3.381,3.638 l 5.062,5.062 a 2.492,2.492 0 0 0 3.52,-3.52 z"
     id="path18"
     inkscape:connector-curvature="0"
     style="fill:#ffffff" />
  <path
     d="m 199.537,224.571 a 9.442,9.442 0 0 1 -7.701,-3.955 h -4.395 a 9.442,9.442 0 0 1 -7.691,3.955 9.39,9.39 0 0 1 -6.693,-2.773 9.394,9.394 0 0 1 -2.768,-6.689 c 0.002,-5.214 4.245,-9.455 9.459,-9.455 h 19.778 a 9.437,9.437 0 0 1 7.867,4.204 9.4,9.4 0 0 1 1.414,7.101 9.383,9.383 0 0 1 -4.022,6.017 9.403,9.403 0 0 1 -5.248,1.595 z m -19.791,-15.819 a 6.353,6.353 0 0 0 -5.295,2.835 6.367,6.367 0 0 0 1.769,8.819 6.353,6.353 0 0 0 8.819,-1.767 l 0.763,-1.12 h 7.674 l 0.759,1.116 a 6.315,6.315 0 0 0 5.274,2.839 c 3.524,0 6.378,-2.854 6.378,-6.361 a 6.369,6.369 0 0 0 -6.361,-6.361 z m 19.78,9.887 a 1.55,1.55 0 0 1 -1.46,-2.067 1.55,1.55 0 0 1 -2.067,-1.46 1.55,1.55 0 0 1 2.067,-1.46 1.55,1.55 0 0 1 1.46,-2.067 1.55,1.55 0 0 1 1.46,2.067 1.55,1.55 0 0 1 2.067,1.46 1.55,1.55 0 0 1 -2.067,1.46 1.552,1.552 0 0 1 -1.46,2.067 z m 0,-3.098 c 0.182,0 0.355,0.031 0.518,0.089 a 1.532,1.532 0 0 1 0,-1.036 1.532,1.532 0 0 1 -1.036,0 1.532,1.532 0 0 1 0,1.036 c 0.163,-0.058 0.336,-0.089 0.518,-0.089 z m -21.324,3.098 v -1.977 h -1.977 v -3.097 h 1.977 v -1.977 h 3.098 v 1.977 h 1.977 v 3.097 H 181.3 v 1.977 z m 9.044,-2.103 c -0.274,0 -0.535,-0.104 -0.732,-0.295 a 1.06,1.06 0 0 1 -0.336,-0.753 c -0.004,-0.282 0.1,-0.55 0.297,-0.751 l 1.985,-2.103 a 1.06,1.06 0 0 1 0.763,-0.328 c 0.274,0 0.535,0.104 0.732,0.295 0.336,0.326 0.45,0.589 0.456,0.871 a 1.05,1.05 0 0 1 -0.299,0.753 l -2.126,2.008 a 1.05,1.05 0 0 1 -0.74,0.303 z m 4.034,0 c -0.274,0 -0.535,-0.104 -0.732,-0.295 a 1.06,1.06 0 0 1 -0.336,-0.753 c -0.004,-0.282 0.1,-0.55 0.297,-0.751 l 1.985,-2.103 a 1.06,1.06 0 0 1 0.763,-0.328 c 0.274,0 0.535,0.104 0.732,0.295 0.336,0.326 0.45,0.589 0.456,0.871 a 1.05,1.05 0 0 1 -0.299,0.753 l -2.126,2.008 a 1.05,1.05 0 0 1 -0.74,0.303 z"
     id="path20"
     inkscape:connector-curvature="0"
     style="fill:#070308" />
  <path
     d="m 199.526,206.214 h -19.774 a 8.899,8.899 0 1 0 7.395,13.842 h 4.983 a 8.898,8.898 0 0 0 12.343,2.455 8.898,8.898 0 0 0 -4.947,-16.297 z m 0,15.82 a 6.88,6.88 0 0 1 -5.754,-3.085 l -0.593,-0.87 H 186.1 l -0.593,0.87 a 6.921,6.921 0 1 1 -5.754,-10.758 h 19.774 a 6.9215,6.9215 0 1 1 -10e-4,13.843 z m -18.786,-7.91 h 1.977 v 1.977 h -1.977 v 1.977 h -1.977 v -1.977 h -1.977 v -1.977 h 1.977 v -1.977 h 1.977 z m 17.797,0.989 a 0.99,0.99 0 1 1 -1.979,0 0.99,0.99 0 0 1 1.979,0 z m 0,-1.978 a 0.99,0.99 0 1 1 1.979,0 0.99,0.99 0 0 1 -1.979,0 z m 1.978,3.955 a 0.99,0.99 0 1 1 -1.979,0 0.99,0.99 0 0 1 1.979,0 z m 1.977,-1.977 a 0.99,0.99 0 1 1 -1.979,0 0.99,0.99 0 0 1 1.979,0 z m -12.794,-1.978 a 0.494,0.494 0 0 1 0.013,0.699 l -0.013,0.013 -2.096,1.977 a 0.494,0.494 0 0 1 -0.699,0.013 l -0.013,-0.013 a 0.494,0.494 0 0 1 -0.013,-0.699 l 0.013,-0.013 1.977,-2.096 a 0.494,0.494 0 0 1 0.699,-0.013 l 0.013,0.013 z m 4.034,0 a 0.494,0.494 0 0 1 0.013,0.699 l -0.013,0.013 -2.096,1.977 a 0.494,0.494 0 0 1 -0.699,0.013 l -0.013,-0.013 a 0.494,0.494 0 0 1 -0.013,-0.699 l 0.013,-0.013 1.977,-2.096 a 0.494,0.494 0 0 1 0.699,-0.013 l 0.013,0.013 z"
     id="path22"
     inkscape:connector-curvature="0"
     style="fill:#ffffff" />
  <path
     d="m 226.221,238.413 a 2.538,2.538 0 0 1 -2.537,-2.537 v -13.842 c 0,-1.4 1.137,-2.537 2.537,-2.537 h 33.617 c 1.4,0 2.537,1.137 2.537,2.537 v 13.842 c 0,1.4 -1.137,2.537 -2.537,2.537 z m 33.057,-3.097 v -12.722 h -32.497 v 12.722 z m -3.955,-0.858 v -3.097 h 3.097 v 3.097 z m -3.955,0 v -3.097 h 3.097 v 3.097 z m -15.819,0 v -3.097 h 14.962 v 3.097 z m -3.955,0 v -3.097 h 3.097 v 3.097 z m -3.955,0 v -3.097 h 3.097 v 3.097 z m 25.707,-3.954 v -3.955 h -1.977 v -3.097 h 7.052 v 7.052 z m -3.955,0 v -3.097 h 3.097 v 3.097 z m -3.955,0 v -3.097 h 3.097 v 3.097 z m -3.955,0 v -3.097 h 3.097 v 3.097 z m -3.955,0 v -3.097 h 3.097 v 3.097 z m -3.955,0 v -3.097 h 3.097 v 3.097 z m -5.932,0 v -3.097 h 5.075 v 3.097 z m 19.774,-3.955 v -3.097 h 3.097 v 3.097 z m -3.955,0 v -3.097 h 3.097 v 3.097 z m -3.955,0 v -3.097 h 3.097 v 3.097 z m -3.954,0 v -3.097 h 3.097 v 3.097 z m -3.955,0 v -3.097 h 3.097 v 3.097 z m -3.955,0 v -3.097 h 3.097 v 3.097 z"
     id="path24"
     inkscape:connector-curvature="0"
     style="fill:#070308" />
  <path
     d="m 259.838,220.056 h -33.617 a 1.977,1.977 0 0 0 -1.977,1.977 v 13.842 c 0,1.092 0.885,1.977 1.977,1.977 h 33.617 a 1.977,1.977 0 0 0 1.977,-1.977 v -13.842 a 1.977,1.977 0 0 0 -1.977,-1.977 z m 0,15.82 h -33.617 v -13.842 h 33.617 z m -13.842,-9.887 h -1.977 v -1.977 h 1.977 z m 0,1.977 h 1.977 v 1.977 h -1.977 z m 3.955,-1.977 h -1.977 v -1.977 h 1.977 z m 7.91,-1.978 v 5.932 h -3.955 v -3.955 h -1.977 v -1.977 z m -5.933,5.933 h -1.977 v -1.977 h 1.977 z m -15.819,1.977 h 13.842 v 1.977 h -13.842 z m -3.955,0 h 1.977 v 1.977 h -1.977 z m 19.774,0 h 1.977 v 1.977 h -1.977 z m 3.955,0 h 1.977 v 1.977 h -1.977 z m -25.707,-5.932 h -1.977 v -1.977 h 1.977 z m 11.865,1.977 h 1.977 v 1.977 h -1.977 z m -13.842,3.955 h 1.977 v 1.977 h -1.977 z m 5.932,-5.932 h -1.977 v -1.977 h 1.977 z m -1.977,3.955 h -3.955 v -1.977 h 3.955 z m 5.932,-1.978 h 1.977 v 1.977 h -1.977 z m -1.977,1.978 h -1.977 v -1.977 h 1.977 z m 5.932,-3.955 h -1.977 v -1.977 h 1.977 z m -3.955,0 h -1.977 v -1.977 h 1.977 z"
     id="path26"
     inkscape:connector-curvature="0"
     style="fill:#ffffff" />
  <path
     d="m 31.713,123.722 1.777,-7.104 a 2.529,2.529 0 0 1 2.374,-1.926 l 0.91,-12.721 h -0.387 a 2.541,2.541 0 0 1 -2.538,-2.538 l 1.055,-8.471 h 5.999 v 3.955 h 0.855 v -3.955 h 7.054 v 3.955 h 0.855 v -3.955 h 5.999 l 1.051,8.401 c 0.005,1.469 -1.135,2.608 -2.534,2.608 h -0.387 l 0.91,12.722 c 1.189,0.036 2.161,0.818 2.435,1.927 l 1.709,7.102 z m 23.177,-3.099 -0.708,-2.833 h -2.36 L 50.478,98.871 h 3.071 l -0.593,-4.81 h -0.189 v 3.955 h -7.054 v -3.955 h -0.855 v 3.955 h -7.054 v -3.955 h -0.171 l -0.609,4.81 h 3.05 l -1.345,18.919 h -2.34 l -0.708,2.833 z m -11.154,-8.765 v -5.932 h -1.977 v -3.099 h 1.977 v -1.977 h 3.099 v 1.977 h 1.977 v 3.099 h -1.977 v 5.932 z"
     id="path28"
     inkscape:connector-curvature="0"
     style="fill:#070308" />
  <path
     d="m 46.274,103.387 h 1.977 v 1.977 h -1.977 v 5.932 h -1.977 v -5.932 H 42.32 v -1.977 h 1.977 v -1.977 h 1.977 z m 11.865,19.775 H 32.432 l 1.602,-6.407 a 1.978,1.978 0 0 1 1.977,-1.503 h 0.376 L 37.376,101.41 H 36.387 A 1.977,1.977 0 0 1 34.41,99.433 l 0.989,-7.91 h 4.944 v 3.955 h 1.977 v -3.955 h 5.932 v 3.955 h 1.977 v -3.955 h 4.944 l 0.989,7.91 a 1.977,1.977 0 0 1 -1.977,1.977 h -0.989 l 0.989,13.842 h 0.435 a 1.977,1.977 0 0 1 1.977,1.503 z m -2.532,-1.978 -0.989,-3.955 H 52.344 L 51.078,99.432 h 3.105 L 53.451,93.5 h -1.246 v 3.955 H 46.273 V 93.5 h -1.977 v 3.955 H 38.364 V 93.5 h -1.226 l -0.751,5.932 h 3.085 l -1.266,17.797 h -2.254 l -0.989,3.955 z"
     id="path30"
     inkscape:connector-curvature="0"
     style="fill:#ffffff" />
  <path
     d="m 0,157.371 3.146,-3.144 1.386,-1.369 2.745,-2.763 5.946,-5.927 a 6.488,6.488 0 0 1 0.265,-7.166 6.514,6.514 0 0 1 5.283,-2.711 c 1.361,0 2.668,0.421 3.777,1.217 a 6.503,6.503 0 0 1 1.495,9.061 6.513,6.513 0 0 1 -5.282,2.709 6.419,6.419 0 0 1 -3.379,-0.952 l -5.531,5.548 4.113,4.136 -3.54,3.538 -4.131,-4.129 -0.577,0.585 4.138,4.138 -3.567,3.538 z m 18.784,-19.906 c -0.929,0 -1.795,0.367 -2.441,1.035 a 3.382,3.382 0 0 0 0,4.718 c 0.718,0.697 1.556,1.035 2.441,1.035 0.929,0 1.795,-0.367 2.441,-1.035 0.63,-0.651 0.968,-1.51 0.953,-2.416 a 3.368,3.368 0 0 0 -1.035,-2.383 3.377,3.377 0 0 0 -2.359,-0.954 z"
     id="path32"
     inkscape:connector-curvature="0"
     style="fill:#070308" />
  <path
     d="m 10.423,158.756 2.749,-2.749 -4.113,-4.133 6.249,-6.268 a 5.933,5.933 0 1 0 -1.364,-1.365 l -6.268,6.249 -2.749,2.768 -1.384,1.364 -2.749,2.749 1.384,1.384 4.113,4.133 2.768,-2.749 -4.133,-4.133 1.364,-1.384 z m 5.517,-20.645 a 3.9550592,3.9550592 0 1 1 5.687,5.498 3.9550592,3.9550592 0 0 1 -5.687,-5.498 z"
     id="path34"
     inkscape:connector-curvature="0"
     style="fill:#ffffff" />
  <path
     d="m 100.16,203.779 a 39.976,39.976 0 0 0 -10.412,-1.948 44.238,44.238 0 0 0 -7.325,0.975 c -2.467,0.423 -4.818,0.827 -7.198,1 l -2.256,0.002 c -3.271,-0.433 -5.505,-2.288 -5.505,-4.515 v -23.729 c 0,-2.489 2.913,-4.515 6.493,-4.515 3.58,0 6.493,2.026 6.493,4.515 v 0.813 l 2.642,-0.475 a 35.403,35.403 0 0 1 6.667,-0.838 c 3.891,0.139 7.709,0.813 11.383,2.004 l 1.06,0.577 v 26.815 z m -26.202,-5.982 c -2.191,0 -3.394,1.064 -3.394,1.417 0,0.363 1.061,1.311 3.028,1.417 h 1.374 c 1.528,-0.239 2.386,-0.977 2.386,-1.417 0,-0.365 -1.166,-1.417 -3.394,-1.417 z m 15.84,0.898 c 3.145,0.116 6.272,0.599 9.306,1.437 v -20.454 a 38.276,38.276 0 0 0 -9.35,-1.576 c -2.045,0.06 -4.132,0.321 -6.16,0.778 -1.026,0.21 -2.09,0.407 -3.24,0.587 v 19.788 a 3.29,3.29 0 0 1 -0.069,0.628 l 1.49,-0.251 a 47.87,47.87 0 0 1 7.985,-0.937 z m -15.84,-24.549 c -2.228,0 -3.394,1.052 -3.394,1.417 v 19.867 a 8.705,8.705 0 0 1 3.394,-0.691 c 1.166,0 2.324,0.238 3.394,0.691 v -19.867 c 0,-0.364 -1.166,-1.417 -3.394,-1.417 z m 15.82,14.487 -3.501,3.482 -2.175,-2.174 3.482,-3.501 -3.482,-3.501 2.176,-2.174 3.501,3.499 3.5,-3.48 2.176,2.176 -3.482,3.482 3.481,3.499 -2.175,2.174 z"
     id="path36"
     inkscape:connector-curvature="0"
     style="fill:#070308" />
  <path
     d="m 100.97,177.601 a 41.086,41.086 0 0 0 -11.192,-1.977 35.022,35.022 0 0 0 -6.585,0.831 l -3.302,0.593 v -1.483 c 0,-2.175 -2.65,-3.955 -5.932,-3.955 -3.283,0 -5.932,1.78 -5.932,3.955 v 23.729 c 0,1.977 2.136,3.579 4.944,3.955 h 2.215 c 2.412,-0.178 4.805,-0.593 7.119,-0.989 2.459,-0.54 4.96,-0.871 7.475,-0.989 3.592,0.188 7.143,0.853 10.56,1.977 l 1.305,0.435 v -25.707 z m -26.003,23.591 h -1.404 c -2.175,-0.119 -3.559,-1.206 -3.559,-1.977 0,-0.771 1.542,-1.977 3.955,-1.977 2.412,0 3.955,1.167 3.955,1.977 0,0.81 -1.128,1.7 -2.947,1.977 z m 2.946,-4.865 a 8.125,8.125 0 0 0 -7.91,0 v -20.763 c 0,-0.811 1.542,-1.977 3.955,-1.977 2.412,0 3.955,1.167 3.955,1.977 z m 21.752,4.548 a 40.041,40.041 0 0 0 -9.887,-1.621 47.382,47.382 0 0 0 -7.91,0.929 l -2.452,0.415 a 2.71,2.71 0 0 0 0.376,-1.345 v -20.269 a 65.915,65.915 0 0 0 3.678,-0.653 33,33 0 0 1 6.308,-0.791 38.8,38.8 0 0 1 9.887,1.72 z m -9.887,-15.819 3.5,-3.48 1.384,1.384 -3.48,3.48 3.48,3.5 -1.384,1.384 -3.5,-3.48 -3.5,3.48 -1.384,-1.384 3.48,-3.5 -3.48,-3.5 1.384,-1.384 z"
     id="path38"
     inkscape:connector-curvature="0"
     style="fill:#ffffff" />
  <path
     d="m 118.075,34.738 c -1.826,0 -3.152,-1.068 -3.152,-2.538 0.425,-2.704 2.649,-4.632 5.298,-4.673 h 0.011 c 0.141,0 0.374,0 0.624,0.03 V 16.941 h -10.743 v 13.083 c 0,2.538 -3.234,4.714 -5.88,4.714 -1.826,0 -3.152,-1.068 -3.152,-2.538 0.425,-2.704 2.649,-4.632 5.298,-4.673 h 0.011 c 0.141,0 0.374,0 0.624,0.03 V 11.864 h 16.942 v 18.16 c -0.001,2.538 -3.234,4.714 -5.881,4.714 z"
     id="path40"
     inkscape:connector-curvature="0"
     style="fill:#070308" />
  <path
     d="m 123.394,12.425 v 17.599 c 0,2.175 -2.927,4.153 -5.319,4.153 -1.444,0 -2.59,-0.771 -2.59,-1.977 a 4.884,4.884 0 0 1 4.746,-4.113 c 1.107,0 1.186,0.257 1.186,0.257 V 16.38 h -11.865 v 13.644 c 0,2.175 -2.927,4.153 -5.319,4.153 -1.444,0 -2.59,-0.771 -2.59,-1.977 a 4.884,4.884 0 0 1 4.746,-4.113 c 1.107,0 1.186,0.257 1.186,0.257 V 12.425 Z"
     id="path42"
     inkscape:connector-curvature="0"
     style="fill:#ffffff" />
  <path
     d="m 234.131,48.58 a 6.5,6.5 0 0 1 -6.492,-6.493 6.372,6.372 0 0 1 1.344,-3.964 c 0.301,-0.415 0.5,-0.897 0.585,-1.408 h -5.324 a 2.54,2.54 0 0 1 -2.537,-2.538 v -8.409 l 0.494,-0.058 a 5.105,5.105 0 0 1 3.999,1.266 3.72,3.72 0 0 0 2.026,0.709 c 1.844,-10e-4 3.368,-1.524 3.368,-3.395 a 3.4,3.4 0 0 0 -3.395,-3.394 3.949,3.949 0 0 0 -2.045,0.743 5.245,5.245 0 0 1 -3.943,1.231 l -0.504,-0.05 v -8.418 a 2.54,2.54 0 0 1 2.537,-2.538 h 5.336 A 3.468,3.468 0 0 0 229.003,10.39 6.503,6.503 0 0 1 227.64,6.502 C 227.64,2.913 230.552,0 234.132,0 a 6.5,6.5 0 0 1 6.492,6.493 6.372,6.372 0 0 1 -1.344,3.964 c -0.301,0.415 -0.5,0.897 -0.585,1.408 h 5.324 a 2.54,2.54 0 0 1 2.537,2.538 v 5.333 a 3.458,3.458 0 0 0 1.477,-0.575 6.485,6.485 0 0 1 3.887,-1.363 c 3.588,-10e-4 6.5,2.912 6.5,6.492 0,3.58 -2.912,6.493 -6.492,6.493 h -0.002 a 6.426,6.426 0 0 1 -3.963,-1.345 3.365,3.365 0 0 0 -1.408,-0.585 v 5.324 a 2.54,2.54 0 0 1 -2.537,2.538 h -5.336 c 0.075,0.527 0.272,1.029 0.577,1.474 a 6.503,6.503 0 0 1 1.363,3.888 c 0.002,3.59 -2.911,6.503 -6.491,6.503 z m -1.417,-14.964 v 2.538 a 6.937,6.937 0 0 1 -0.299,1.982 l -0.884,1.823 c -0.519,0.678 -0.778,1.402 -0.794,2.139 a 3.396,3.396 0 0 0 3.395,3.382 3.4,3.4 0 0 0 3.395,-3.394 3.411,3.411 0 0 0 -0.73,-2.026 l -0.915,-1.841 a 6.68,6.68 0 0 1 -0.332,-2.065 v -2.538 h 7.91 v -7.91 h 2.537 c 0.674,0.005 1.34,0.106 1.983,0.302 l 1.821,0.882 c 0.68,0.52 1.404,0.779 2.14,0.795 a 3.398,3.398 0 0 0 3.383,-3.395 3.4,3.4 0 0 0 -3.395,-3.394 3.403,3.403 0 0 0 -2.026,0.73 l -1.842,0.913 a 6.684,6.684 0 0 1 -2.064,0.334 h -2.537 v -7.91 h -7.91 v -2.538 a 6.937,6.937 0 0 1 0.299,-1.982 l 0.884,-1.823 c 0.519,-0.678 0.778,-1.402 0.794,-2.139 a 3.396,3.396 0 0 0 -3.395,-3.382 3.4,3.4 0 0 0 -3.395,3.394 c 0.015,0.725 0.274,1.449 0.73,2.026 l 0.915,1.841 a 6.68,6.68 0 0 1 0.332,2.065 v 2.538 h -7.91 v 3.845 a 6.519,6.519 0 0 1 3.478,-1.012 c 1.446,0 2.872,0.492 4.009,1.386 a 6.502,6.502 0 0 1 1.099,9.116 6.455,6.455 0 0 1 -5.112,2.485 6.419,6.419 0 0 1 -3.474,-1.01 v 3.843 z"
     id="path44"
     inkscape:connector-curvature="0"
     style="fill:#070308" />
  <path
     d="m 234.131,2.537 a 3.955,3.955 0 0 1 3.955,3.955 3.958,3.958 0 0 1 -0.85,2.373 l -0.85,1.74 a 6.376,6.376 0 0 0 -0.277,1.819 v 1.977 h 7.91 v 7.91 h 1.977 a 6.163,6.163 0 0 0 1.819,-0.277 l 1.74,-0.85 a 3.951,3.951 0 0 1 2.373,-0.85 3.955,3.955 0 0 1 0,7.91 3.958,3.958 0 0 1 -2.373,-0.85 l -1.74,-0.85 a 6.376,6.376 0 0 0 -1.819,-0.277 h -1.977 v 7.91 h -7.91 v 1.977 c 0.001,0.617 0.094,1.23 0.277,1.819 l 0.85,1.74 c 0.535,0.677 0.833,1.51 0.85,2.373 a 3.955,3.955 0 0 1 -7.91,0 3.958,3.958 0 0 1 0.85,-2.373 l 0.85,-1.74 c 0.18,-0.59 0.273,-1.203 0.277,-1.819 v -1.977 h -7.91 v -5.498 l 0.376,0.277 a 5.932,5.932 0 1 0 0,-9.333 l -0.376,0.297 v -5.517 h 7.91 v -1.977 a 6.163,6.163 0 0 0 -0.277,-1.819 l -0.85,-1.74 a 3.951,3.951 0 0 1 -0.85,-2.373 3.956,3.956 0 0 1 3.955,-3.957 m 0,-1.977 a 5.932,5.932 0 0 0 -5.932,5.932 5.927,5.927 0 0 0 1.266,3.579 c 0.475,0.692 0.724,1.514 0.712,2.353 h -5.932 a 1.977,1.977 0 0 0 -1.977,1.977 v 7.91 a 4.724,4.724 0 0 0 3.559,-1.127 4.53,4.53 0 0 1 2.373,-0.85 3.955,3.955 0 0 1 0,7.91 4.318,4.318 0 0 1 -2.373,-0.85 4.546,4.546 0 0 0 -3.559,-1.127 v 7.91 c 0,1.092 0.885,1.977 1.977,1.977 h 5.932 a 3.959,3.959 0 0 1 -0.751,2.314 5.797,5.797 0 0 0 -1.226,3.619 5.932,5.932 0 0 0 11.864,0 5.927,5.927 0 0 0 -1.266,-3.579 4.055,4.055 0 0 1 -0.712,-2.353 h 5.932 a 1.977,1.977 0 0 0 1.977,-1.977 v -5.932 a 3.956,3.956 0 0 1 2.314,0.751 5.797,5.797 0 0 0 3.619,1.226 5.932,5.932 0 0 0 0,-11.864 5.927,5.927 0 0 0 -3.579,1.266 4.055,4.055 0 0 1 -2.353,0.712 v -5.932 a 1.977,1.977 0 0 0 -1.977,-1.977 h -5.932 a 3.956,3.956 0 0 1 0.751,-2.314 5.797,5.797 0 0 0 1.226,-3.619 5.933,5.933 0 0 0 -5.933,-5.935 z m 53.391,65.256 h -3.955 V 59.33 a 3.954,3.954 0 0 0 1.977,-3.401 3.955,3.955 0 0 0 -7.91,0 3.954,3.954 0 0 0 1.977,3.401 v 6.486 h -3.955 a 3.955,3.955 0 0 0 -3.955,3.955 v 1.977 h 3.955 v -1.977 c 0,-1.092 0.885,-1.977 1.977,-1.977 v 3.955 a 1.977,1.977 0 0 1 -1.977,1.977 V 93.5 c 0,5.932 5.932,9.887 5.932,9.887 0,0 5.932,-3.955 5.932,-9.887 V 73.725 a 1.977,1.977 0 0 1 -1.977,-1.977 v -3.955 c 1.092,0 1.977,0.885 1.977,1.977 v 1.977 h 3.955 V 69.77 a 3.952,3.952 0 0 0 -3.953,-3.954 z M 281.59,53.951 a 1.977,1.977 0 1 1 0,3.954 1.977,1.977 0 0 1 0,-3.954 z m 3.955,21.218 V 93.5 a 10.54,10.54 0 0 1 -3.955,7.356 10.54,10.54 0 0 1 -3.955,-7.356 V 75.169 a 3.954,3.954 0 0 0 1.977,-3.421 v -3.955 h 3.955 v 3.955 a 3.956,3.956 0 0 0 1.978,3.421 z"
     id="path46"
     inkscape:connector-curvature="0"
     style="fill:#ffffff" />
  <path
     d="m 330.447,147.549 v -7.052 h 2.306 l 1.977,-1.977 h 1.132 l -0.452,-0.647 v -1.383 c 0,-4.063 2.57,-6.257 4.637,-8.02 0.786,-0.672 1.529,-1.305 2.022,-1.95 a 6.71,6.71 0 0 0 0.263,-0.359 c -1.161,1.097 -2.731,1.371 -3.899,1.574 -0.49,0.085 -0.954,0.166 -1.188,0.282 -0.541,0.265 -1.412,1.607 -1.879,2.327 -0.309,0.477 -0.465,0.713 -0.601,0.848 a 2.283,2.283 0 0 1 -1.582,0.637 h -0.297 c -0.527,-0.081 -1.006,-0.411 -1.468,-0.732 -0.205,-0.139 -0.512,-0.353 -0.616,-0.384 -0.545,-0.081 -0.846,-0.49 -1.085,-0.821 l -0.124,-0.166 a 7.976,7.976 0 0 1 -0.743,-1.361 2.929,2.929 0 0 1 -0.317,-1.823 4.883,4.883 0 0 1 1.275,-2.084 c 0.429,-0.442 3.992,-6.095 6.261,-9.749 l -2.615,-4.506 h 4.513 c 3.827,0.038 10.862,0.964 15.047,6.738 5.502,7.178 3.331,11.115 1.417,14.588 -0.888,1.611 -1.726,3.13 -1.726,4.864 v 1.433 l -0.579,0.597 h 1.219 l -0.019,1.977 h 3.949 v 7.151 h -26.828 z m 23.764,-3.196 0.027,-0.857 H 350.3 v -1.977 h -1.977 v -3.574 l 1.344,-1.387 v -0.166 a 15.395,15.395 0 0 1 2.464,-7.228 c 1.647,-3.049 1.898,-5.629 -1.566,-10.399 -3.121,-4.296 -8.236,-5.289 -11.56,-5.441 l 0.823,1.404 -0.813,1.298 c -2.512,4.072 -6.205,9.83 -6.772,10.489 a 3.433,3.433 0 0 0 -0.44,0.525 l 0.041,0.216 c 0.058,0.133 0.182,0.363 0.323,0.579 l 0.012,0.014 c 0.294,0.139 0.579,0.301 0.85,0.489 a 9.216,9.216 0 0 1 2.889,-3.09 7.015,7.015 0 0 1 2.084,-0.585 4.089,4.089 0 0 0 2.379,-0.925 6.492,6.492 0 0 0 1.219,-2.42 c -0.017,-1.256 1.12,-2.395 2.52,-2.395 a 2.54,2.54 0 0 1 2.537,2.537 9.794,9.794 0 0 1 -2.097,6.834 17.794,17.794 0 0 1 -2.501,2.462 c -1.9,1.624 -3.53,3.018 -3.53,5.635 v 0.398 l 0.969,1.406 v 3.323 h -1.977 v 1.977 h -3.955 v 0.857 h 20.645 z"
     id="path48"
     inkscape:connector-curvature="0"
     style="fill:#070308" />
  <path
     d="M 352.778,138.981 H 350.8 l 1.345,-1.384 v -1.206 c 0,-5.754 8.266,-8.879 0.415,-19.122 -3.955,-5.458 -10.56,-6.466 -14.594,-6.506 h -3.54 l 2.294,3.955 c 0,0 -5.932,9.571 -6.526,10.144 a 4.283,4.283 0 0 0 -1.107,1.76 c -0.077,0.524 0.02,1.059 0.277,1.523 0.189,0.443 0.421,0.867 0.692,1.266 0.257,0.336 0.455,0.692 0.85,0.751 0.395,0.059 1.404,1.008 1.977,1.107 h 0.277 c 0.449,0.005 0.881,-0.165 1.206,-0.475 0.336,-0.336 1.661,-2.808 2.63,-3.283 0.969,-0.475 3.638,-0.277 5.161,-1.977 a 8.321,8.321 0 0 0 1.819,-3.619 7.021,7.021 0 0 1 -1.463,4.944 c -1.859,2.432 -6.545,4.311 -6.545,9.63 v 1.206 l 0.969,1.384 h -1.977 l -1.977,1.977 h -1.977 v 5.932 h 25.707 v -6.031 h -3.955 z m 1.977,5.932 h -21.752 v -1.977 h 3.955 v -1.977 h 1.977 v -2.59 l -0.356,-0.514 -0.613,-0.89 v -0.573 c 0,-2.887 1.819,-4.429 3.737,-6.071 a 17.127,17.127 0 0 0 2.413,-2.373 9.292,9.292 0 0 0 1.977,-6.486 1.977,1.977 0 1 0 -3.954,0 6.968,6.968 0 0 1 -1.404,2.709 4.586,4.586 0 0 1 -2.67,1.048 6.625,6.625 0 0 0 -1.839,0.494 8.66,8.66 0 0 0 -2.887,3.223 l -0.138,0.218 -0.277,-0.198 a 5.291,5.291 0 0 0 -1.107,-0.653 l -0.119,-0.158 a 5.157,5.157 0 0 1 -0.415,-0.771 v -0.119 a 1.19,1.19 0 0 1 -0.099,-0.277 c 0.171,-0.305 0.384,-0.585 0.633,-0.831 0.494,-0.573 3.955,-5.932 6.723,-10.421 l 0.633,-1.008 -0.613,-1.048 -0.554,-0.929 c 4.074,0 9.65,1.068 13.012,5.695 3.362,4.627 3.52,7.455 1.582,11.034 a 14.795,14.795 0 0 0 -2.373,6.921 v 0.395 l -0.791,0.811 -0.554,0.573 v 2.788 h 1.977 v 1.977 h 3.955 z"
     id="path50"
     inkscape:connector-curvature="0"
     style="fill:#ffffff" />
  <g
     id="g54"
     style="fill:#d0ced0"
     transform="translate(0,-0.001)">
    <path
       d="m 157.011,162.711 v -2.966 a 0.99,0.99 0 0 1 1.978,0 v 2.966 a 0.99,0.99 0 0 1 -1.978,0 z m 2.808,19.775 a 0.97,0.97 0 0 1 -0.831,-0.989 v -2.59 a 0.99,0.99 0 0 0 -1.978,0 v 2.59 a 2.927,2.927 0 0 0 2.511,2.966 h 0.158 a 0.9909754,0.9909754 0 0 0 0.14,-1.977 z m 21.435,0 h -5.398 a 0.99,0.99 0 0 0 0,1.978 h 5.398 a 0.99,0.99 0 0 0 0,-1.978 z m -10.777,0 h -5.398 a 0.99,0.99 0 0 0 0,1.978 h 5.398 a 0.99,0.99 0 0 0 0,-1.978 z M 158,174.576 a 0.99,0.99 0 0 0 0.989,-0.989 v -5.478 a 0.99,0.99 0 0 0 -1.978,0 v 5.398 a 0.989,0.989 0 0 0 0.989,1.069 z m 34.605,7.91 h -5.932 a 0.99,0.99 0 0 0 0,1.978 h 1.977 v 1.977 a 0.99,0.99 0 0 0 1.978,0 v -1.977 h 1.977 a 0.99,0.99 0 0 0 0,-1.978 z m 40.537,0 h -1.602 a 0.99,0.99 0 0 0 0,1.978 h 1.602 a 0.99,0.99 0 0 1 0.989,0.989 v 0.85 a 0.99,0.99 0 0 0 1.978,0 v -0.85 a 2.967,2.967 0 0 0 -2.967,-2.967 z m -29.404,0 h -5.576 a 0.99,0.99 0 0 0 0,1.978 h 5.576 a 0.99,0.99 0 0 0 0,-1.978 z m 31.382,8.384 a 0.99,0.99 0 0 0 -0.989,0.989 v 5.557 a 0.99,0.99 0 0 0 1.978,0 v -5.557 a 0.99,0.99 0 0 0 -0.989,-0.989 z m 0,11.133 a 0.99,0.99 0 0 0 -0.989,0.989 v 5.557 a 0.99,0.99 0 0 0 1.978,0 v -5.557 a 0.99,0.99 0 0 0 -0.989,-0.989 z m -20.269,-19.517 h -5.557 a 0.99,0.99 0 0 0 0,1.978 h 5.557 a 0.99,0.99 0 0 0 0,-1.978 z m 11.133,0 h -5.576 a 0.99,0.99 0 0 0 0,1.978 h 5.576 a 0.99,0.99 0 0 0 0,-1.978 z m 9.136,30.65 a 0.99,0.99 0 0 0 -0.989,0.989 v 2.966 a 0.99,0.99 0 0 0 1.978,0 v -2.966 a 0.99,0.99 0 0 0 -0.989,-0.989 z M 58.139,108.332 a 0.99,0.99 0 0 1 0.989,-0.989 h 2.966 a 0.99,0.99 0 0 1 0,1.978 h -2.966 a 0.99,0.99 0 0 1 -0.989,-0.989 z m 22.74,0.988 a 0.99,0.99 0 0 1 0.989,0.989 v 2.65 a 0.99,0.99 0 0 0 1.978,0 v -2.65 a 2.966,2.966 0 0 0 -2.966,-2.966 h -0.376 a 0.99,0.99 0 0 0 0,1.978 h 0.375 z m 18.549,23.73 h -6.13 a 0.99,0.99 0 0 0 0,1.978 h 6.13 a 0.99,0.99 0 0 0 0,-1.978 z m -12.261,0 h -2.333 a 0.99,0.99 0 0 1 -0.989,-0.989 v -0.692 a 0.99,0.99 0 0 0 -1.978,0 v 0.692 c 0.003,0.805 0.331,1.576 0.91,2.136 a 0.969,0.969 0 0 0 -0.91,0.969 v 5.932 a 0.99,0.99 0 0 0 1.978,0 v -5.932 a 0.66,0.66 0 0 0 0,-0.336 c 0.342,0.126 0.703,0.193 1.068,0.198 h 2.333 a 0.99,0.99 0 0 0 0,-1.978 z M 74.373,109.32 a 0.99,0.99 0 0 0 0,-1.978 h -6.15 a 0.99,0.99 0 0 0 0,1.978 z m 8.484,8.78 a 0.99,0.99 0 0 0 -0.989,0.989 v 6.051 a 0.99,0.99 0 0 0 1.978,0 v -6.13 a 0.99,0.99 0 0 0 -0.989,-0.91 z m 25.706,14.95 h -2.966 a 0.99,0.99 0 0 0 0,1.978 h 2.966 a 0.99,0.99 0 0 0 0,-1.978 z m -69.21,17.797 h -5.932 a 0.99,0.99 0 0 0 0,1.978 h 5.932 a 0.99,0.99 0 0 0 0,-1.978 z m 23.729,0 H 57.15 a 0.99,0.99 0 0 0 0,1.978 h 5.932 a 0.99,0.99 0 0 0 0,-1.978 z m -11.864,0 h -5.932 a 0.99,0.99 0 0 0 0,1.978 h 5.932 a 0.99,0.99 0 0 0 0,-1.978 z m -23.73,0 h -5.932 a 0.99,0.99 0 0 0 0,1.978 h 5.932 a 0.99,0.99 0 0 0 0,-1.978 z m 47.459,0 h -5.932 a 0.99,0.99 0 0 0 0,1.978 h 5.932 a 0.99,0.99 0 0 0 0,-1.978 z m 7.91,-4.805 a 0.99,0.99 0 0 0 -0.989,0.989 v 2.828 c 0,0.546 -0.443,0.989 -0.989,0.989 a 0.99,0.99 0 0 0 0,1.978 2.966,2.966 0 0 0 2.966,-2.966 v -2.828 a 0.988,0.988 0 0 0 -0.988,-0.99 z m 0,6.782 a 0.99,0.99 0 0 0 -0.989,0.989 v 5.932 a 0.99,0.99 0 0 0 1.978,0 v -5.932 a 0.99,0.99 0 0 0 -0.989,-0.989 z m 0,11.865 a 0.99,0.99 0 0 0 -0.989,0.989 v 5.932 a 0.99,0.99 0 0 0 1.978,0 v -5.932 a 0.99,0.99 0 0 0 -0.989,-0.989 z M 162.943,56.918 v 1.701 a 0.99,0.99 0 0 1 -1.978,0 v -1.701 a 0.99,0.99 0 0 0 -0.989,-0.989 h -1.127 a 0.99,0.99 0 0 1 0,-1.978 h 1.127 a 2.968,2.968 0 0 1 2.967,2.967 z m -10.025,-2.966 h -5.932 a 0.99,0.99 0 0 0 0,1.978 h 5.932 a 0.99,0.99 0 0 0 0,-1.978 z m 9.036,9.61 a 0.99,0.99 0 0 0 -0.989,0.989 v 2.254 a 0.99,0.99 0 0 0 1.978,0 v -2.254 a 0.989,0.989 0 0 0 -0.989,-0.989 z m -20.901,-9.61 h -5.932 a 0.99,0.99 0 0 0 0,1.978 h 5.932 a 0.99,0.99 0 0 0 0,-1.978 z m -26.557,-7.91 a 0.99,0.99 0 0 0 0.989,-0.989 v -5.932 a 0.99,0.99 0 0 0 -1.978,0 v 5.932 c 0,0.547 0.443,0.989 0.989,0.989 z m 2.828,7.91 h -0.85 a 0.99,0.99 0 0 1 -0.989,-0.989 v -1.977 a 0.99,0.99 0 0 0 -1.978,0 v 1.977 a 2.966,2.966 0 0 0 2.966,2.966 h 0.85 a 0.99,0.99 0 0 0 0.001,-1.977 z m 11.864,0 h -5.932 a 0.99,0.99 0 0 0 0,1.978 h 5.932 a 0.99,0.99 0 0 0 0,-1.978 z M 193.594,24.29 a 2.966,2.966 0 0 0 -2.966,2.966 v 2.828 a 0.99,0.99 0 0 0 1.978,0 v -2.828 a 0.99,0.99 0 0 1 0.989,-0.989 0.99,0.99 0 1 0 -0.001,-1.977 z m -1.978,10.738 a 0.99,0.99 0 0 0 -0.989,0.989 v 5.932 a 0.99,0.99 0 0 0 1.978,0 v -5.932 a 0.99,0.99 0 0 0 -0.989,-0.989 z M 205.458,24.29 h -5.932 a 0.99,0.99 0 0 0 0,1.978 h 5.932 a 0.99,0.99 0 0 0 0,-1.978 z m 11.865,0 h -5.932 a 0.99,0.99 0 0 0 0,1.978 h 5.932 a 0.99,0.99 0 0 0 0,-1.978 z m -31.362,29.662 h -5.932 a 0.99,0.99 0 0 0 0,1.978 h 5.932 a 0.99,0.99 0 0 0 0,-1.978 z m 5.655,-7.059 a 0.99,0.99 0 0 0 -0.989,0.989 v 5.082 c 0.028,0.137 0.028,0.278 0,0.415 a 0.969,0.969 0 0 0 0.451,1.294 l 0.024,0.011 c 0.13,0.061 0.272,0.094 0.415,0.099 a 1.01,1.01 0 0 0 0.91,-0.593 c 0.149,-0.391 0.209,-0.809 0.178,-1.226 v -5.082 a 0.989,0.989 0 0 0 -0.989,-0.989 z m -17.52,7.059 h -5.932 a 0.99,0.99 0 0 0 0,1.978 h 5.932 a 0.99,0.99 0 0 0 0,-1.978 z m 78.821,64.267 a 0.99,0.99 0 0 1 -0.989,0.989 h -2.966 a 0.99,0.99 0 0 1 0,-1.978 h 2.966 a 0.99,0.99 0 0 1 0.989,0.989 z m 7.91,-24.738 a 0.99,0.99 0 0 0 -0.989,0.989 v 5.3 a 0.99,0.99 0 0 0 1.978,0 v -5.3 a 0.99,0.99 0 0 0 -0.989,-0.969 z m 1.404,-9.887 a 2.966,2.966 0 0 0 -2.393,2.986 v 2.571 a 0.99,0.99 0 0 0 1.978,0 V 86.58 a 0.969,0.969 0 0 1 0.791,-0.969 c 0.537,-0.11 0.888,-0.628 0.791,-1.167 -0.078,-0.54 -0.627,-0.928 -1.167,-0.85 -0.016,0.002 0,0 0,0 z m -1.404,31.006 a 0.99,0.99 0 0 0 -0.989,0.989 v 0.573 a 0.99,0.99 0 0 1 -0.989,0.989 h -1.621 a 0.99,0.99 0 0 0 0,1.978 h 1.621 a 2.966,2.966 0 0 0 2.966,-2.966 v -0.573 c -0.041,-0.516 -0.472,-0.991 -0.988,-0.99 z m 0,-10.599 a 0.99,0.99 0 0 0 -0.989,0.989 v 5.3 a 0.99,0.99 0 0 0 1.978,0 v -5.22 c -10e-4,-0.547 -0.443,-1.069 -0.989,-1.069 z m 9.887,-20.466 h -2.966 a 0.99,0.99 0 0 0 0,1.978 h 2.966 a 0.99,0.99 0 0 0 0,-1.978 z m 24.718,0.079 h -2.966 a 0.99,0.99 0 0 0 0,1.978 h 2.966 a 0.99,0.99 0 0 0 0,-1.978 z m 7.91,23.927 a 0.99,0.99 0 0 0 -1.978,0 v 5.735 a 0.99,0.99 0 0 0 1.978,0 z m 13.96,25.509 h -5.814 a 0.99,0.99 0 0 0 0,1.978 h 5.814 a 0.99,0.99 0 0 0 0,-1.978 z m -11.607,0 h -1.364 a 0.99,0.99 0 0 1 -0.989,-0.989 v -1.325 a 0.99,0.99 0 0 0 -1.978,0 v 1.325 a 2.966,2.966 0 0 0 2.966,2.966 h 1.364 a 0.99,0.99 0 0 0 10e-4,-1.977 z m -3.342,-14.91 a 0.99,0.99 0 0 0 -0.989,0.989 v 5.794 a 0.99,0.99 0 0 0 1.978,0 v -5.715 a 0.989,0.989 0 0 0 -0.989,-1.068 z m -0.989,-28.001 a 0.99,0.99 0 0 0 1.978,0 V 86.58 a 2.965,2.965 0 0 0 -1.72,-2.689 0.969,0.969 0 0 0 -1.294,0.451 l -0.011,0.024 a 0.988,0.988 0 0 0 0.475,1.324 0.967,0.967 0 0 1 0.573,0.89 v 3.559 z m 1.978,5.794 a 0.99,0.99 0 0 0 -1.978,0 v 5.794 a 0.99,0.99 0 0 0 1.978,0 z m 22.74,37.117 h -2.966 a 0.99,0.99 0 0 0 0,1.978 h 2.966 a 0.99,0.99 0 0 0 0,-1.978 z m -136.443,63.693 a 0.992,0.992 0 0 1 -0.989,-0.989 v -4.706 c 0,-0.544 0.445,-0.989 0.989,-0.989 0.544,0 0.989,0.445 0.989,0.989 v 4.706 a 0.993,0.993 0 0 1 -0.989,0.989 z m 0,7.694 a 0.992,0.992 0 0 1 -0.989,-0.989 v -3.278 c 0,-0.544 0.445,-0.989 0.989,-0.989 0.544,0 0.989,0.445 0.989,0.989 v 3.278 a 0.993,0.993 0 0 1 -0.989,0.989 z"
       id="path52"
       inkscape:connector-curvature="0"
       style="opacity:0.5" />
  </g>
</svg>
