<svg xmlns="http://www.w3.org/2000/svg" viewBox="0 0 30 30"><g fill="gray"><path d="M21.79 8.316h2.737v2.737H21.79V8.316z"/><path d="M28.316 19.158h-1.158v-2.737h-2.632v-2.737h-2.737v-2.737h-2.737v2.737h-8.105v-2.737H8.211v2.737H5.474v2.737H2.737v2.632L0 19.158v8.105h2.737v-5.368h2.737v5.474h2.737v-2.737H21.79v2.737h2.737v-5.474h2.737v5.368H30v-8.105h-1.684z"/><path d="M16.316 27.263V30h5.474v-2.737h-5.474zM5.579 8.316h2.737v2.737H5.579V8.316zm5.368 18.947H8.211V30h5.474v-2.737h-2.738"/></g><path d="M19.053 16.421h2.737v2.737h-2.737v-2.737zm-10.842 0h2.737v2.737H8.211v-2.737z" fill="#4d4d4d"/></svg>