<?xml version="1.0" encoding="UTF-8" standalone="no"?>
<svg
   xmlns:dc="http://purl.org/dc/elements/1.1/"
   xmlns:cc="http://creativecommons.org/ns#"
   xmlns:rdf="http://www.w3.org/1999/02/22-rdf-syntax-ns#"
   xmlns:svg="http://www.w3.org/2000/svg"
   xmlns="http://www.w3.org/2000/svg"
   xmlns:sodipodi="http://sodipodi.sourceforge.net/DTD/sodipodi-0.dtd"
   xmlns:inkscape="http://www.inkscape.org/namespaces/inkscape"
   viewBox="0 0 30 30"
   version="1.1"
   id="svg12"
   sodipodi:docname="icon_empty.svg"
   inkscape:version="0.92.4 5da689c313, 2019-01-14">
  <metadata
     id="metadata18">
    <rdf:RDF>
      <cc:Work
         rdf:about="">
        <dc:format>image/svg+xml</dc:format>
        <dc:type
           rdf:resource="http://purl.org/dc/dcmitype/StillImage" />
      </cc:Work>
    </rdf:RDF>
  </metadata>
  <defs
     id="defs16" />
  <sodipodi:namedview
     pagecolor="#ffffff"
     bordercolor="#666666"
     borderopacity="1"
     objecttolerance="10"
     gridtolerance="10"
     guidetolerance="10"
     inkscape:pageopacity="0"
     inkscape:pageshadow="2"
     inkscape:window-width="640"
     inkscape:window-height="480"
     id="namedview14"
     showgrid="false"
     inkscape:zoom="7.8666667"
     inkscape:cx="15"
     inkscape:cy="15"
     inkscape:window-x="0"
     inkscape:window-y="0"
     inkscape:window-maximized="0"
     inkscape:current-layer="svg12">
    <inkscape:grid
       type="xygrid"
       id="grid828" />
  </sodipodi:namedview>
  <g
     fill="gray"
     id="g8">
    <path
       d="M21.79 8.316h2.737v2.737H21.79V8.316z"
       id="path2" />
    <path
       d="M28.316 19.158h-1.158v-2.737h-2.632v-2.737h-2.737v-2.737h-2.737v2.737h-8.105v-2.737H8.211v2.737H5.474v2.737H2.737v2.632L0 19.158v8.105h2.737v-5.368h2.737v5.474h2.737v-2.737H21.79v2.737h2.737v-5.474h2.737v5.368H30v-8.105h-1.684z"
       id="path4" />
    <path
       d="M16.316 27.263V30h5.474v-2.737h-5.474zM5.579 8.316h2.737v2.737H5.579V8.316zm5.368 18.947H8.211V30h5.474v-2.737h-2.738"
       id="path6" />
  </g>
  <path
     d="M19.053 16.421h2.737v2.737h-2.737v-2.737zm-10.842 0h2.737v2.737H8.211v-2.737z"
     fill="#4d4d4d"
     id="path10" />
</svg>
