<?xml version="1.0" encoding="UTF-8" standalone="no"?>
<svg
   xmlns:dc="http://purl.org/dc/elements/1.1/"
   xmlns:cc="http://creativecommons.org/ns#"
   xmlns:rdf="http://www.w3.org/1999/02/22-rdf-syntax-ns#"
   xmlns:svg="http://www.w3.org/2000/svg"
   xmlns="http://www.w3.org/2000/svg"
   xmlns:sodipodi="http://sodipodi.sourceforge.net/DTD/sodipodi-0.dtd"
   xmlns:inkscape="http://www.inkscape.org/namespaces/inkscape"
   viewBox="0 0 437 60.644"
   version="1.1"
   id="svg16"
   sodipodi:docname="logo.svg"
   width="437"
   height="60.644001"
   inkscape:version="0.92.4 5da689c313, 2019-01-14">
  <metadata
     id="metadata22">
    <rdf:RDF>
      <cc:Work
         rdf:about="">
        <dc:format>image/svg+xml</dc:format>
        <dc:type
           rdf:resource="http://purl.org/dc/dcmitype/StillImage" />
      </cc:Work>
    </rdf:RDF>
  </metadata>
  <defs
     id="defs20" />
  <sodipodi:namedview
     pagecolor="#ffffff"
     bordercolor="#666666"
     borderopacity="1"
     objecttolerance="10"
     gridtolerance="10"
     guidetolerance="10"
     inkscape:pageopacity="0"
     inkscape:pageshadow="2"
     inkscape:window-width="640"
     inkscape:window-height="480"
     id="namedview18"
     showgrid="false"
     inkscape:zoom="0.62405299"
     inkscape:cx="217.129"
     inkscape:cy="30.321999"
     inkscape:window-x="0"
     inkscape:window-y="0"
     inkscape:window-maximized="0"
     inkscape:current-layer="svg16">
    <inkscape:grid
       type="xygrid"
       id="grid829"
       originx="0"
       originy="-1.0070801e-06" />
  </sodipodi:namedview>
  <path
     d="m 20.258,15.735 h 15.735 c 0.765,0 1.148,-1.125 1.148,-3.376 0,-2.251 -0.383,-3.376 -1.148,-3.376 H 20.258 c -0.72,0 -1.081,1.125 -1.081,3.376 0,2.251 0.36,3.376 1.081,3.376 m 26.945,0 h 15.735 c 0.766,0 1.148,-1.125 1.148,-3.376 0,-2.251 -0.383,-3.376 -1.148,-3.376 H 47.203 c -0.72,0 -1.081,1.125 -1.081,3.376 0,2.251 0.361,3.376 1.081,3.376 m 35.903,0 h 15.735 c 0.766,0 1.148,-1.125 1.148,-3.376 0,-2.251 -0.382,-3.376 -1.148,-3.376 H 83.106 c -0.72,0 -1.081,1.125 -1.081,3.376 0,2.251 0.361,3.376 1.081,3.376 m 44.909,0 h 15.735 c 0.766,0 1.148,-1.125 1.148,-3.376 0,-2.251 -0.383,-3.376 -1.148,-3.376 h -15.735 c -0.72,0 -1.081,1.125 -1.081,3.376 0,2.251 0.361,3.376 1.081,3.376 m 35.903,0 h 15.735 c 0.765,0 1.148,-1.125 1.148,-3.376 0,-2.251 -0.383,-3.376 -1.148,-3.376 h -15.735 c -0.72,0 -1.081,1.125 -1.081,3.376 0,2.251 0.361,3.376 1.081,3.376 m 35.927,0 h 15.735 c 0.765,0 1.147,-1.125 1.147,-3.376 0,-2.251 -0.383,-3.376 -1.147,-3.376 h -15.735 c -0.72,0 -1.081,1.125 -1.081,3.376 0,2.251 0.361,3.376 1.081,3.376 m 35.903,0 h 15.735 c 0.765,0 1.147,-1.125 1.147,-3.376 0,-2.251 -0.383,-3.376 -1.147,-3.376 h -15.735 c -0.721,0 -1.08,1.125 -1.08,3.376 0,2.251 0.36,3.376 1.08,3.376 m 26.946,0 h 15.735 c 0.765,0 1.147,-1.125 1.147,-3.376 0,-2.251 -0.383,-3.376 -1.147,-3.376 h -15.735 c -0.721,0 -1.08,1.125 -1.08,3.376 0,2.251 0.359,3.376 1.08,3.376 m 35.903,0 h 15.734 c 0.766,0 1.148,-1.125 1.148,-3.376 0,-2.251 -0.383,-3.376 -1.148,-3.376 h -15.734 c -0.721,0 -1.081,1.125 -1.081,3.376 0,2.251 0.36,3.376 1.081,3.376 m 35.927,0 h 15.735 c 0.765,0 1.147,-1.125 1.147,-3.376 0,-2.251 -0.383,-3.376 -1.147,-3.376 h -15.735 c -0.721,0 -1.08,1.125 -1.08,3.376 0,2.251 0.359,3.376 1.08,3.376 m 35.903,0 h 15.735 c 0.765,0 1.147,-1.125 1.147,-3.376 0,-2.251 -0.383,-3.376 -1.147,-3.376 h -15.735 c -0.721,0 -1.08,1.125 -1.08,3.376 0,2.251 0.359,3.376 1.08,3.376"
     id="path2"
     inkscape:connector-curvature="0"
     style="fill:#e7be36" />
  <path
     d="m 31.279,6.753 h 24.717 c 0.765,0 1.148,-1.125 1.148,-3.377 C 57.143,1.125 56.76,0 55.995,0 H 31.279 c -0.72,0 -1.081,1.125 -1.081,3.376 0,2.252 0.36,3.377 1.081,3.377 m 53.866,0 h 51.662 c 0.765,0 1.148,-1.125 1.148,-3.377 C 137.955,1.125 137.572,0 136.807,0 H 85.145 c -0.72,0 -1.081,1.125 -1.081,3.376 0.001,2.252 0.361,3.377 1.081,3.377 m 89.794,0 h 33.698 c 0.765,0 1.148,-1.125 1.148,-3.377 C 209.785,1.125 209.402,0 208.637,0 h -33.698 c -0.721,0 -1.081,1.125 -1.081,3.376 0.001,2.252 0.36,3.377 1.081,3.377 m 71.83,0 h 24.717 c 0.766,0 1.148,-1.125 1.148,-3.377 C 272.634,1.125 272.251,0 271.486,0 h -24.717 c -0.72,0 -1.08,1.125 -1.08,3.376 0,2.252 0.36,3.377 1.08,3.377 m 53.867,0 h 42.68 c 0.766,0 1.148,-1.125 1.148,-3.377 C 344.464,1.125 344.081,0 343.316,0 h -42.68 c -0.721,0 -1.081,1.125 -1.081,3.376 0,2.252 0.36,3.377 1.081,3.377 m 71.83,0 h 60.644 c 0.766,0 1.148,-1.125 1.148,-3.377 C 434.258,1.125 433.875,0 433.11,0 h -60.644 c -0.721,0 -1.08,1.125 -1.08,3.376 0,2.252 0.359,3.377 1.08,3.377"
     id="path4"
     inkscape:connector-curvature="0"
     style="fill:#eacd39" />
  <path
     d="m 7.198,33.698 h 15.735 c 0.765,0 1.148,-1.125 1.148,-3.376 0,-2.251 -0.383,-3.376 -1.148,-3.376 H 7.198 c -0.721,0 -1.081,1.125 -1.081,3.376 0,2.251 0.36,3.376 1.081,3.376 m 44.909,0 h 15.735 c 0.765,0 1.148,-1.125 1.148,-3.376 0,-2.251 -0.383,-3.376 -1.148,-3.376 H 52.107 c -0.721,0 -1.081,1.125 -1.081,3.376 0,2.251 0.36,3.376 1.081,3.376 m 26.921,0 h 15.735 c 0.765,0 1.148,-1.125 1.148,-3.376 0,-2.251 -0.383,-3.376 -1.148,-3.376 H 79.028 c -0.72,0 -1.081,1.125 -1.081,3.376 0,2.251 0.361,3.376 1.081,3.376 m 35.927,0 h 24.717 c 0.766,0 1.148,-1.125 1.148,-3.376 0,-2.251 -0.382,-3.376 -1.148,-3.376 h -24.717 c -0.72,0 -1.081,1.125 -1.08,3.376 -0.001,2.251 0.36,3.376 1.08,3.376 m 35.903,0 h 15.735 c 0.766,0 1.148,-1.125 1.148,-3.376 0,-2.251 -0.382,-3.376 -1.148,-3.376 h -15.735 c -0.72,0 -1.081,1.125 -1.081,3.376 0,2.251 0.361,3.376 1.081,3.376 m 71.831,0 h 15.734 c 0.766,0 1.148,-1.125 1.148,-3.376 0,-2.251 -0.383,-3.376 -1.148,-3.376 h -15.734 c -0.721,0 -1.081,1.125 -1.081,3.376 0,2.251 0.36,3.376 1.081,3.376 m 44.908,0 h 15.735 c 0.766,0 1.147,-1.125 1.147,-3.376 0,-2.251 -0.382,-3.376 -1.147,-3.376 h -15.735 c -0.72,0 -1.08,1.125 -1.08,3.376 0,2.251 0.36,3.376 1.08,3.376 m 26.922,0 h 15.734 c 0.766,0 1.148,-1.125 1.148,-3.376 0,-2.251 -0.383,-3.376 -1.148,-3.376 h -15.734 c -0.721,0 -1.081,1.125 -1.081,3.376 0,2.251 0.36,3.376 1.081,3.376 m 44.908,0 h 15.735 c 0.766,0 1.147,-1.125 1.148,-3.376 -10e-4,-2.251 -0.383,-3.376 -1.148,-3.376 h -15.735 c -0.72,0 -1.08,1.125 -1.08,3.376 0,2.251 0.36,3.376 1.08,3.376 m 26.922,0 h 51.662 c 0.765,0 1.147,-1.125 1.147,-3.376 0,-2.251 -0.383,-3.376 -1.147,-3.376 h -51.662 c -0.721,0 -1.081,1.125 -1.081,3.376 0,2.251 0.36,3.376 1.081,3.376"
     id="path6"
     inkscape:connector-curvature="0"
     style="fill:#dd9c30" />
  <path
     d="m 3.119,51.662 h 15.735 c 0.765,0 1.148,-1.125 1.148,-3.377 0,-2.251 -0.383,-3.376 -1.148,-3.376 H 3.119 c -0.72,0 -1.08,1.125 -1.08,3.376 0,2.252 0.36,3.377 1.08,3.377 m 44.91,0 h 15.735 c 0.765,0 1.148,-1.125 1.148,-3.377 0,-2.251 -0.383,-3.376 -1.148,-3.376 H 48.029 c -0.721,0 -1.081,1.125 -1.081,3.376 0,2.252 0.36,3.377 1.081,3.377 m 26.921,0 h 15.735 c 0.765,0 1.148,-1.125 1.148,-3.377 0,-2.251 -0.383,-3.376 -1.148,-3.376 H 74.95 c -0.721,0 -1.081,1.125 -1.081,3.376 0,2.252 0.36,3.377 1.081,3.377 m 26.945,0 h 24.716 c 0.766,0 1.148,-1.125 1.148,-3.377 0,-2.251 -0.383,-3.376 -1.148,-3.376 h -24.716 c -0.721,0 -1.081,1.125 -1.081,3.376 0.001,2.252 0.361,3.377 1.081,3.377 m 53.867,0 h 15.735 c 0.765,0 1.148,-1.125 1.148,-3.377 0,-2.251 -0.383,-3.376 -1.148,-3.376 h -15.735 c -0.721,0 -1.081,1.125 -1.081,3.376 0,2.252 0.36,3.377 1.081,3.377 m 35.927,0 h 15.735 c 0.766,0 1.148,-1.125 1.148,-3.377 0,-2.251 -0.383,-3.376 -1.148,-3.376 h -15.735 c -0.72,0 -1.081,1.125 -1.081,3.376 0,2.252 0.36,3.377 1.081,3.377 m 26.922,0 h 15.734 c 0.766,0 1.148,-1.125 1.148,-3.377 0,-2.251 -0.383,-3.376 -1.148,-3.376 h -15.734 c -0.721,0 -1.081,1.125 -1.081,3.376 0,2.252 0.36,3.377 1.081,3.377 m 44.908,0 h 15.735 c 0.765,0 1.147,-1.125 1.147,-3.377 0,-2.251 -0.383,-3.376 -1.147,-3.376 h -15.735 c -0.72,0 -1.08,1.125 -1.08,3.376 0,2.252 0.36,3.377 1.08,3.377 m 26.922,0 h 15.734 c 0.766,0 1.148,-1.125 1.148,-3.377 0,-2.251 -0.383,-3.376 -1.148,-3.376 h -15.734 c -0.721,0 -1.081,1.125 -1.081,3.376 0,2.252 0.36,3.377 1.081,3.377 m 35.926,0 h 15.735 c 0.765,0 1.147,-1.125 1.147,-3.377 0,-2.251 -0.383,-3.376 -1.147,-3.376 h -15.735 c -0.721,0 -1.081,1.125 -1.08,3.376 -10e-4,2.252 0.36,3.377 1.08,3.377 m 35.904,0 h 15.734 c 0.766,0 1.148,-1.125 1.148,-3.377 0,-2.251 -0.383,-3.376 -1.148,-3.376 h -15.734 c -0.721,0 -1.081,1.125 -1.081,3.376 0,2.252 0.36,3.377 1.081,3.377"
     id="path8"
     inkscape:connector-curvature="0"
     style="fill:#cd6929" />
  <path
     d="m 1.08,60.644 h 15.735 c 0.765,0 1.148,-1.125 1.148,-3.376 0,-2.251 -0.383,-3.376 -1.148,-3.376 H 1.08 c -0.72,0 -1.08,1.125 -1.08,3.376 0,2.251 0.36,3.376 1.08,3.376 m 44.909,0 h 15.735 c 0.765,0 1.148,-1.125 1.148,-3.376 0,-2.251 -0.383,-3.376 -1.148,-3.376 H 45.989 c -0.721,0 -1.081,1.125 -1.081,3.376 0,2.251 0.361,3.376 1.081,3.376 m 26.922,0 h 15.735 c 0.765,0 1.148,-1.125 1.148,-3.376 0,-2.251 -0.383,-3.376 -1.148,-3.376 H 72.911 c -0.721,0 -1.081,1.125 -1.081,3.376 0,2.251 0.36,3.376 1.081,3.376 m 35.927,0 h 24.717 c 0.765,0 1.148,-1.125 1.148,-3.376 0,-2.251 -0.383,-3.376 -1.148,-3.376 h -24.717 c -0.72,0 -1.081,1.125 -1.081,3.376 0,2.251 0.36,3.376 1.081,3.376 m 53.866,0 h 33.699 c 0.765,0 1.148,-1.125 1.148,-3.376 0,-2.251 -0.383,-3.376 -1.148,-3.376 h -33.699 c -0.72,0 -1.081,1.125 -1.081,3.376 0,2.251 0.361,3.376 1.081,3.376 m 53.868,0 h 15.734 c 0.766,0 1.148,-1.125 1.148,-3.376 0,-2.251 -0.383,-3.376 -1.148,-3.376 h -15.734 c -0.721,0 -1.081,1.125 -1.081,3.376 0,2.251 0.36,3.376 1.081,3.376 m 44.908,0 h 15.735 c 0.765,0 1.147,-1.125 1.147,-3.376 0,-2.251 -0.383,-3.376 -1.147,-3.376 H 261.48 c -0.721,0 -1.08,1.125 -1.08,3.376 0,2.251 0.359,3.376 1.08,3.376 m 26.922,0 h 42.68 c 0.766,0 1.148,-1.125 1.148,-3.376 0,-2.251 -0.383,-3.376 -1.148,-3.376 h -42.68 c -0.721,0 -1.081,1.125 -1.081,3.376 0,2.251 0.36,3.376 1.081,3.376 m 71.83,0 h 60.644 c 0.766,0 1.148,-1.125 1.148,-3.376 0,-2.251 -0.383,-3.376 -1.148,-3.376 h -60.644 c -0.721,0 -1.081,1.125 -1.081,3.376 0,2.251 0.36,3.376 1.081,3.376"
     id="path10"
     inkscape:connector-curvature="0"
     style="fill:#c64b26" />
  <path
     d="m 9.237,24.717 h 15.735 c 0.765,0 1.148,-1.125 1.148,-3.377 0,-2.251 -0.383,-3.376 -1.148,-3.376 H 9.237 c -0.721,0 -1.081,1.125 -1.081,3.376 0,2.251 0.36,3.377 1.081,3.377 m 44.909,0 h 15.735 c 0.765,0 1.148,-1.125 1.148,-3.377 0,-2.251 -0.383,-3.376 -1.148,-3.376 H 54.146 c -0.721,0 -1.081,1.125 -1.081,3.376 0,2.251 0.36,3.377 1.081,3.377 m 26.921,0 h 15.735 c 0.766,0 1.148,-1.125 1.148,-3.377 0,-2.251 -0.383,-3.376 -1.148,-3.376 H 81.067 c -0.72,0 -1.081,1.125 -1.081,3.376 10e-4,2.251 0.361,3.377 1.081,3.377 m 44.909,0 h 15.735 c 0.766,0 1.148,-1.125 1.148,-3.377 0,-2.251 -0.382,-3.376 -1.148,-3.376 h -15.735 c -0.72,0 -1.081,1.125 -1.081,3.376 0,2.251 0.361,3.377 1.081,3.377 m 26.921,0 h 15.735 c 0.766,0 1.148,-1.125 1.148,-3.377 0,-2.251 -0.382,-3.376 -1.148,-3.376 h -15.735 c -0.72,0 -1.081,1.125 -1.081,3.376 0.001,2.251 0.361,3.377 1.081,3.377 m 71.831,0 h 15.734 c 0.766,0 1.148,-1.125 1.148,-3.377 0,-2.251 -0.383,-3.376 -1.148,-3.376 h -15.734 c -0.721,0 -1.081,1.125 -1.081,3.376 0,2.251 0.36,3.377 1.081,3.377 m 44.908,0 h 15.735 c 0.766,0 1.147,-1.125 1.147,-3.377 0,-2.251 -0.382,-3.376 -1.147,-3.376 h -15.735 c -0.72,0 -1.08,1.125 -1.08,3.376 0,2.251 0.36,3.377 1.08,3.377 m 26.922,0 h 15.734 c 0.766,0 1.148,-1.125 1.148,-3.377 0,-2.251 -0.383,-3.376 -1.148,-3.376 h -15.734 c -0.721,0 -1.081,1.125 -1.081,3.376 0,2.251 0.36,3.377 1.081,3.377 m 44.908,0 h 15.735 c 0.766,0 1.148,-1.125 1.148,-3.377 0,-2.251 -0.383,-3.376 -1.148,-3.376 h -15.735 c -0.72,0 -1.08,1.125 -1.08,3.376 0,2.251 0.36,3.377 1.08,3.377 m 26.922,0 h 15.735 c 0.765,0 1.147,-1.125 1.147,-3.377 0,-2.251 -0.383,-3.376 -1.147,-3.376 h -15.735 c -0.721,0 -1.081,1.125 -1.081,3.376 0,2.251 0.36,3.377 1.081,3.377"
     id="path12"
     inkscape:connector-curvature="0"
     style="fill:#e4ae32" />
  <path
     d="m 5.159,42.68 h 60.644 c 0.765,0 1.148,-1.125 1.148,-3.376 0,-2.251 -0.383,-3.376 -1.148,-3.376 H 5.159 c -0.721,0 -1.081,1.125 -1.081,3.376 0,2.251 0.36,3.376 1.081,3.376 m 71.83,0 h 42.68 c 0.765,0 1.148,-1.125 1.148,-3.376 0,-2.251 -0.383,-3.376 -1.148,-3.376 h -42.68 c -0.721,0 -1.081,1.125 -1.081,3.376 0,2.251 0.36,3.376 1.081,3.376 m 71.83,0 h 15.735 c 0.766,0 1.148,-1.125 1.148,-3.376 0,-2.251 -0.382,-3.376 -1.148,-3.376 h -15.735 c -0.72,0 -1.081,1.125 -1.081,3.376 0,2.251 0.361,3.376 1.081,3.376 m 71.831,0 h 60.644 c 0.765,0 1.147,-1.125 1.147,-3.376 0,-2.251 -0.383,-3.376 -1.147,-3.376 H 220.65 c -0.721,0 -1.081,1.125 -1.081,3.376 0,2.251 0.36,3.376 1.081,3.376 m 71.83,0 h 15.734 c 0.766,0 1.148,-1.125 1.148,-3.376 0,-2.251 -0.383,-3.376 -1.148,-3.376 H 292.48 c -0.721,0 -1.081,1.125 -1.081,3.376 0,2.251 0.36,3.376 1.081,3.376 m 44.908,0 h 15.735 c 0.766,0 1.147,-1.125 1.148,-3.376 -0.001,-2.251 -0.383,-3.376 -1.148,-3.376 h -15.735 c -0.72,0 -1.08,1.125 -1.08,3.376 0,2.251 0.36,3.376 1.08,3.376 m 26.922,0 h 15.734 c 0.766,0 1.148,-1.125 1.148,-3.376 0,-2.251 -0.383,-3.376 -1.148,-3.376 H 364.31 c -0.721,0 -1.081,1.125 -1.081,3.376 0,2.251 0.36,3.376 1.081,3.376"
     id="path14"
     inkscape:connector-curvature="0"
     style="fill:#d27a2c" />
</svg>
