<svg xmlns="http://www.w3.org/2000/svg" xmlns:xlink="http://www.w3.org/1999/xlink" viewBox="0 0 511.703 343.912"><path d="M511.622 300.247a1.97 1.97 0 00-.152-1.032l-6.578-30.009V15.134l4.18-12.542c.202-.599.1-1.259-.27-1.773A1.967 1.967 0 00507.205 0h-52.671c-.822 0-1.558.511-1.844 1.281l-26.178 18.437-7.189-18.463A1.966 1.966 0 00417.49 0h-56.022c-.508 0-.987.196-1.344.531l-7.497 4.288L348.53.577A1.97 1.97 0 00347.137 0h-79.112c-.557 0-1.088.239-1.461.65l-18.21 18.592h-.44L228.475.607A1.965 1.965 0 00227.054 0h-79.111c-.559 0-1.089.239-1.461.65l-16.515 18.311-3.74-2.369a2.116 2.116 0 00-.395-.316L99.424.285A1.979 1.979 0 0098.404 0H1.968A1.97 1.97 0 00.416 3.182l10.453 13.374v254.75l-7.73 18.542-.057.089a1.895 1.895 0 00-.295 1.038c-.036.638.264 1.265.799 1.677.113.085.232.158.357.215l14.93 11.468a1.966 1.966 0 002.425-.019l120.978-96.145 45.335 36.206a1.971 1.971 0 002.316.104l57.976-38.396 50.727 38.325c.693.525 1.65.531 2.346.021l50.709-36.986 47.593 35.029a1.971 1.971 0 002.447-.088l12.213-10.443 7.516 14.719c.26.509.729.881 1.282 1.017a1.986 1.986 0 001.609-.306l19.009-13.456v27.169l-5.505 7.949a1.968 1.968 0 00.439 2.697l23.403 17.554 31.587 24.08a1.964 1.964 0 002.344.032l15.264-10.993c.688-.496.97-1.367.736-2.158z" fill="#d37112"/><g fill="#cf5517"><path d="M21.171 304.447l120.978-96.145 45.335 36.206a1.971 1.971 0 002.316.104l57.976-38.396 50.727 38.325c.693.525 1.65.531 2.346.021l50.709-36.986 47.593 35.029a1.971 1.971 0 002.447-.088l8.619-7.393-53.438-39.17-57.33 41.128-51.673-40.925-58.996 41.683-51.984-40.474L10.208 297.613c-.708.565 8.538 6.853 8.538 6.853l2.33.044c.032-.022.065-.039.095-.063zM504.723 306.843l-61.369-46.528v.77l-5.631 8.08a1.968 1.968 0 00.439 2.697s54.012 40.684 55.115 41.504c.661.491 1.465.872 3.157-.524l8.289-5.999z"/></g><g fill="#b26216"><path d="M377.631 110.363l-1.434-54.969-.24-15.646h41.421l19.955 56.239 21.906-56.239h41.862V211l-124.437-95.839zM200.723 167.173l-4.254-118.912-21.165-.988-1.17 99.534-38.852-29.76.059-4.147V57.508l15.645-17.76h74.844l16.491 17.76.422 124.961-9.925 6.552zM295.571 167.173l.456-119.238 21.165-.988 2.688 99.86 41.132-29.76-.059-4.147V57.508l-15.645-17.76h-74.844l-16.491 17.76-.423 124.961 8.284 7.67zM124.347 108.672l-42.53 32.721-3.244-94.25-21.347.423-2.214 114.451-38.49 29.613 2.114-141.734-1.55-9.918 81.468-.23 23.679 14.8 1.268 47.781z"/></g><g fill="#8f5014"><path d="M377.631 86.384l-1.434-54.97.621-15.645h40.56l19.955 56.238 21.906-56.238h41.862v171.252l-124.437-95.84zM243.589 176.027l-42.866-32.834-3.684-95.882-21.165-.988-1.74 76.504-38.852-29.759.059-4.147V33.528l15.645-17.759h74.844l16.491 17.759.422 138.27zM252.705 176.027l42.866-32.834-.494-97.021 21.166-.988 3.637 77.643 41.132-29.759-.059-4.147V33.528l-15.645-17.759h-74.844l-16.491 17.759-.423 138.27zM124.347 84.692l-42.53 32.722-4.004-72.862-21.346.423-1.455 93.063-38.49 29.613 2.114-141.734.837-10.296 79.081.148 23.679 14.8 1.268 47.781z"/></g><g fill="#306692"><path d="M377.631 75.618l-1.434-54.97-5.755-15.645h46.936l19.955 56.238 21.906-56.238h41.862v171.252l-124.437-95.84zM243.589 165.261l-42.866-32.833-2.355-83.729-21.165-.988-3.069 64.351-38.852-29.76.059-4.147V22.763l15.645-17.76h74.844l16.491 17.76.422 138.269zM252.705 165.261l42.866-32.833 2.355-83.729 21.165-.988.789 64.351 41.132-29.76-.059-4.147V22.763l-15.645-17.76h-74.844l-16.491 17.76-.423 138.269zM124.347 73.927l-42.53 32.721-3.434-59.189-21.347.423-2.024 79.39-38.49 29.613 2.114-141.734-8.034-10.148h87.952l23.679 14.8 1.268 47.781z"/></g><defs><path id="a" d="M14.509 137.882l112.464-83.678 119.157 95.728 121.166-93.317 132.546 98.003 1.339 21.421-485.333-8.033z"/></defs><clipPath id="b"><use xlink:href="#a" overflow="visible"/></clipPath><g clip-path="url(#b)" fill="#3d80b8"><path d="M377.631 75.618l-1.434-54.97-5.755-15.645h46.936l19.955 56.238 21.906-56.238h41.862v171.252l-124.437-95.84zM243.589 165.261l-42.866-32.833-2.355-83.729-21.165-.988-3.069 64.351-38.852-29.76.059-4.147V22.763l15.645-17.76h74.844l16.491 17.76.422 138.269zM252.705 165.261l42.866-32.833 2.355-83.729 21.165-.988.789 64.351 41.132-29.76-.059-4.147V22.763l-15.645-17.76h-74.844l-16.491 17.76-.423 138.269zM124.347 73.927l-42.53 32.721-3.434-59.189-21.347.423-2.024 79.39-38.49 29.613 2.114-141.734-8.034-10.148h87.952l23.679 14.8 1.268 47.781z"/></g><defs><path id="c" d="M14.509 113.937l112.464-83.679 119.157 95.728 121.166-92.38 132.546 97.066 1.339 40.801-485.333-8.034z"/></defs><clipPath id="d"><use xlink:href="#c" overflow="visible"/></clipPath><g clip-path="url(#d)" fill="#33709f"><path d="M377.631 58.993l-1.434-54.969 61.136 40.593 63.768 40.563v74.45L376.664 63.791zM243.589 148.636l-42.866-32.833-2.355-83.729-21.165-.988-3.069 64.351-38.852-29.76.059-4.147V25.838l107.04-.002.362 118.572zM252.705 148.636l42.866-32.833 2.355-83.729 21.165-.988.789 64.351 41.132-29.76-.059-4.147V24.354l-107.041 1.98-.362 118.074zM124.347 57.302l-42.53 32.722-3.434-59.19-21.347.423-2.024 79.39-38.49 29.613 1.773-118.87 104.5 2.955.706 26.614z"/></g><g fill="#f7c657"><path d="M82.634 43.496H51.599v146.722l31.035-23.779V43.496zM59.056 175.24V50.953h16.12v112.126l-16.12 12.161z"/><path d="M2.022 1.969l10.87 13.911V271.7l-8.095 19.417 120.067-96.202V17.961L98.458 1.969H2.022zm94.279 7.457l21.107 12.863v169.329l-97.059 77.785V13.119l-2.871-3.693h78.823zM147.997 1.969l-17.281 19.16v166.396l52.587 42.003 61.849-45.114V20.803L227.108 1.969h-79.111zm76.069 7.457l13.627 14.417v156.464l-54.29 40.04-45.231-36.121V24.042l12.991-14.616h72.903z"/><path d="M202.219 43.848h-31.035v115.133l31.035 26.603V43.848zm-23.578 111.905V51.305h16.12v118.022l-16.12-13.574zM322.302 43.848h-31.035v141.736l31.035-26.603V43.848zm-23.578 125.479V51.305h16.12v104.448l-16.12 13.574z"/><path d="M268.079 1.969l-17.281 19.16v163.639l52.587 44.76 61.849-45.114v-164.4L347.191 1.969h-79.112zm76.07 7.457l13.629 13.629v157.252l-54.29 40.04-45.232-38.878V24.042l12.99-14.616h72.903z"/><path d="M502.976 269.418V14.814l4.283-12.845h-52.671L436.56 50.821 417.543 1.969h-56.022l9.775 14.876v172.307l-4.764 3.808 47.766 35.925v-79.772l22.43 87.507 22.195-68.631v78.858l-7.065 10.201 26.868 20.151 30.956 22.81-6.706-30.591zM466.38 249.49V125.966l-28.828 86.589L406.84 88.537v125.435L378.378 192.7l.375-.374V15.002l-3.392-5.575h37.027l24.263 62.343 23.142-62.343h37.073l-1.347 4.049v256.861l2.716 11.833-15.048-10.944-21-15.748 4.193-5.988z"/></g><path d="M51.599 190.218l31.035-23.779V43.496H51.599v146.722zm7.457-139.265h16.12v112.126l-16.12 12.161V50.953zM2.022 1.969l10.87 13.911V271.7l-8.095 19.416 120.067-96.202V17.961L98.458 1.969H2.022zm115.386 189.649l-97.059 77.785V13.119l-2.871-3.693h78.824l21.107 12.863v169.329zM147.997 1.969l-17.281 19.16v166.396l52.587 42.003 61.849-45.114V20.803L227.108 1.969h-79.111zm89.696 178.338l-54.29 40.04-45.231-36.121V24.042l12.991-14.615h72.903l13.627 14.417v156.463zm-66.509-21.326l31.035 26.602V43.848h-31.035v115.133zm7.457-107.676h16.12v118.022l-16.12-13.574V51.305zm112.626 134.279l31.035-26.602V43.848h-31.035v141.736zm7.457-134.279h16.12v104.448l-16.12 13.574V51.305zM268.079 1.969l-17.281 19.16v163.639l52.587 44.76 61.849-45.114v-164.4L347.191 1.969h-79.112zm89.698 178.338l-54.29 40.04-45.232-38.878V24.042l12.99-14.615h72.904l13.629 13.629v157.251zm145.199 89.111V14.814l4.283-12.845h-52.671L436.56 50.821 417.543 1.969h-56.022l9.775 14.876v172.307l-4.764 3.808 47.766 35.924v-79.772l22.43 87.507 22.195-68.631v78.857l-7.065 10.201 26.868 20.151 30.956 22.81-6.706-30.589zm-19.789 1.806l-21-15.748 4.193-5.986V125.966l-28.828 86.589L406.84 88.537v125.435L378.378 192.7l.375-.374V15.002l-3.392-5.575h37.027l24.263 62.343 23.142-62.343h37.073l-1.347 4.049v256.86l2.716 11.833-15.048-10.945z" fill="none"/><path fill="#8f5014" d="M55.151 48.009l23.652 20.696-.42-21.246zM174.596 48.009l23.652 20.696-.421-21.246zM318.718 48.009l-23.653 20.696.421-21.246z"/><g fill="#cf5517"><path d="M365.234 50.205v-30.16l-7.658 2.809.201.201v32.419zM361.566 2.038l9.73 14.807v32.468l7.457 5.7V15.002l-3.392-5.576h.067zM496.866 9.426l-1.347 4.049v130.777l7.457 5.699V14.814l4.283-12.845h-.053l-10.633 7.457zM258.255 125.8V24.149l-7.456-3.021-.001.001V131.07zM291.267 43.848v58.625l7.457-5.269V51.305h16.12v34.507l7.458-5.27V43.848zM138.172 54.664V24.069l-7.428-2.971-.029.031v28.129zM124.864 17.961l-7.456 4.328v31.286l7.456-5.122zM51.599 43.496V98.77l7.457-5.121V50.953h16.121v31.624l7.457-5.121v-33.96zM245.151 20.749l-7.458 3.094v102.959l7.458 5.406zM171.184 43.848v34.744l7.457 5.406V51.305h16.12v44.377l7.458 5.406v-57.24zM20.348 120.232V13.119l-2.869-3.69-15.403-7.46h-.054l10.87 13.911v109.473z"/></g><g fill="#ec8b32"><path d="M365.234 46.033l-7.457 5.486V89.06l7.457-5.625zM250.798 169.766l7.457-5.626v-39.402l-7.457 5.487zM495.519 138.789v39.572l7.457 5.625v-39.589zM378.753 50.975l-7.457-5.608V84.66l7.457 5.624zM178.641 116.998V81.131l-7.457-5.515v35.467zM298.724 133.61V94.965l-7.457 5.486v38.784zM314.844 83.105v38.344l7.458-5.626V77.618zM194.761 93.052v36.732l7.458 5.916V98.568zM20.348 157.57v-37.942l-7.456 5.267v38.32zM130.715 78.983l7.457 5.915V51.202l-7.457-5.515zM124.864 45.793l-7.456 5.267v33.034l7.456-5.645zM75.177 80.894v35.17l7.457-5.645V75.626zM59.056 128.267V92.283l-7.457 5.268v36.362zM245.151 130.318l-7.458-5.515v39.036l7.458 5.915z"/></g><g fill="#5a9bd2"><path d="M365.234 20.313v-.298L347.191 1.969h-79.112l-17.281 19.16 7.457 2.913 12.99-14.616h72.904l13.628 13.629v.155zM2.022 1.969l15.455 7.457h78.824l21.107 12.863v.03l7.456-4.358L98.458 1.969zM436.56 50.821L417.543 1.969h-56.022l13.84 7.457h37.027l24.263 62.344 23.142-62.344h37.073l10.393-7.457h-52.671zM147.997 1.969l-17.282 19.16 7.457 2.913 12.992-14.616h72.902l13.627 14.417 7.458-3.04-18.043-18.834z"/></g><path d="M262.14 343.912c-.389 0-.812-.008-1.274-.025-4.424-.159-6.192-1.978-7.319-3.76-1.803-1.133-4.195-3.168-6.251-5.647-.926 1.976-2.35 3.865-4.102 5.385-2.577 2.233-3.613 2.705-6.085 3.271l-.243.056c-.949.218-1.891.414-3.01.414-1.36 0-2.648-.282-4.457-.713a10.74 10.74 0 01-5.065-2.794 42.84 42.84 0 01-6.11.442c-3.682 0-5.155-.256-7.198-1.858-.301-.236-.561-.44-1.115-.745-1.168-.642-2.419-1.07-3.743-1.522-1.458-.498-2.966-1.014-4.447-1.847-1.972-1.109-8.666-5.02-12.066-8.777a16.437 16.437 0 01-2.306-3.248 27.078 27.078 0 01-4.342.553c-2.91 4.028-6.551 7.802-11.54 8.682l-5.091.898-.253-5.164c-.007-.131-.052-1.182.04-2.996-.09-.197-.188-.408-.268-.579-.846-1.818-1.312-2.82-1.213-4.204.14-1.956.32-4.018.526-6.052-.824-1.225-1.442-2.533-1.936-3.793-.519.025-1.03.038-1.531.038-11.289 0-16.71-6.291-20.171-11.771-1.522-2.409-3.176-7.329 1.669-14.248a13.662 13.662 0 01.204-3.444l.045-.243c.457-2.506.457-2.506-.898-4.707-2.157-3.506-2.883-7.534-3.586-11.43-.234-1.295-.475-2.635-.767-3.948-.582-2.621-1.507-4.041-2.578-5.684-.668-1.026-1.426-2.188-2.072-3.611-1.497-3.292-1.192-8.178-.898-12.903.102-1.637.198-3.182.198-4.416 0-5.567 2.031-13.554 2.813-16.161.339-1.131.821-2.252 1.331-3.439.969-2.256 1.971-4.588 1.971-6.899 0-.971-.043-1.605-.081-2.165-.192-2.827.024-3.811 2.097-9.571 2.175-6.04 4.48-9.042 6.709-11.944.736-.958 1.497-1.949 2.268-3.072 1.078-1.568 1.948-2.626 2.724-3.425a578.503 578.503 0 01-4.329-3.722c-17.905-15.495-16.581-19.049-15.869-20.959.93-2.497 3.709-3.778 6.503-2.763 2.428.883 19.401 8.228 25.395 10.903 1.542-1.077 3.488-1.683 5.558-2.211-12.065-15.384-18.679-33.477-19.942-45.679-.686-6.629.941-8.432 1.553-9.111a4.963 4.963 0 013.672-1.649c4.078 0 5.669 4.401 6.718 7.346 5.328 13.904 15.991 23.351 27.091 30.62-.686-8.603.665-18.442 3.109-24.604 2.394-6.036 7.77-12.551 12.28-12.551 1.741 0 3.316.865 4.211 2.315.569.921 1.324 2.864-.013 5.537-1.045 2.09-3.557 9.896-1.464 18.077.684 2.676 2.77 6.11 5.934 9.803.349-.01.705-.014 1.071-.014 1.961 0 3.866.143 5.547.27 1.378.104 2.68.201 3.755.201 1.349 0 1.803-.161 1.88-.193.606-.252 1.625-.775 2.805-1.38 4.77-2.446 12.754-6.542 20.206-6.542s15.436 4.095 20.206 6.542c1.18.605 2.199 1.128 2.805 1.38.077.032.528.192 1.869.192 1.076 0 2.38-.099 3.76-.203 1.685-.128 3.596-.272 5.564-.272.197 0 .39.001.582.004 3.156-3.686 5.237-7.115 5.921-9.787 2.092-8.181-.419-15.987-1.464-18.076-1.337-2.673-.582-4.617-.013-5.537.895-1.449 2.47-2.315 4.211-2.315 4.51 0 9.886 6.514 12.28 12.55 2.414 6.088 3.775 15.985 3.095 24.618 11.073-7.24 21.754-16.671 27.104-30.633 1.049-2.946 2.64-7.346 6.718-7.346 1.388 0 2.726.601 3.672 1.649.612.679 2.239 2.483 1.553 9.112-1.257 12.161-7.846 30.212-19.861 45.575 2.136.531 4.161 1.118 5.774 2.182 6.234-2.775 22.709-9.901 25.098-10.77 2.797-1.016 5.573.265 6.503 2.762.712 1.91 2.036 5.464-15.869 20.959-1.394 1.206-2.75 2.38-4.061 3.497.833.823 1.766 1.929 2.949 3.65.771 1.123 1.533 2.114 2.268 3.072 2.229 2.902 4.535 5.904 6.709 11.944 2.073 5.761 2.289 6.745 2.098 9.572a28.7 28.7 0 00-.081 2.164c0 2.311 1.002 4.643 1.971 6.898.51 1.187.992 2.309 1.331 3.441.783 2.607 2.813 10.594 2.813 16.16 0 1.233.096 2.779.198 4.416.294 4.725.599 9.61-.897 12.903-.647 1.423-1.404 2.585-2.073 3.61-1.071 1.645-1.996 3.064-2.578 5.685-.292 1.312-.533 2.651-.767 3.946-.702 3.896-1.429 7.925-3.586 11.43-1.355 2.202-1.355 2.202-.898 4.706l.045.244c.029.157.054.315.078.475 6.046 7.581 4.314 12.979 2.667 15.587-3.461 5.48-8.882 11.771-20.169 11.771h-.001c-.59 0-1.194-.018-1.81-.053a33.641 33.641 0 01-.789 2.126c.64 6.712 1.177 15.163 1.2 15.541l.365 5.782-5.706-1.007c-4.503-.795-8.57-4.043-11.585-7.213l-1.168 1.321-2.103.024c-.922 0-3.986-.516-5.89-.963a8.12 8.12 0 00-.387.224 24.677 24.677 0 01-5.229 5.485c-2.422 1.845-4.331 2.379-5.865 2.808-.958.268-1.784.499-2.949 1.104-2.067 1.075-3.018 1.956-3.268 2.21l-.691 1.139-1.088.263c-.973.435-5.943 2.639-8.18 3.279-.693.198-1.476.294-2.394.294-1.929 0-4.566-.458-6.495-.855-.441.384-.95.806-1.524 1.248l-.208.16c-2.111 1.629-3.81 2.698-8.01 2.698zm-15.449-21.123c1.511 0 3.615.539 5.56 2.907.032-.278.062-.561.083-.849.015-.208.028-.418.028-.631v-8.206l4.257 2.65a11.798 11.798 0 01-.802-2.257c-.813-2.095-.313-3.661.291-4.639a4.738 4.738 0 014.061-2.247c3.2 0 6.095 3.414 6.642 4.098.705.881 3.501 2.882 5.477 3.305 2.698.579 4.584 1.665 5.644 3.242a14.345 14.345 0 011.893-1.44c2.46-1.55 4.867-2.162 7.026-1.808.355-1.96 1.322-6.494 5.855-6.851.415-.033.793-.048 1.135-.048 3.512 0 5.161 1.615 5.926 2.97 1.668 2.951-.032 5.773-.672 6.835l-.048.079c-1.326 2.209-4.491 3.728-6.796 3.868a8.19 8.19 0 01-.059.481 27.471 27.471 0 012.338-.74c1.211-.339 1.764-.493 2.797-1.28 2.237-1.705 3.48-3.761 3.492-3.782l.438-.734.692-.553c1.014-.789 3.67-2.623 6.422-2.623.323 0 .642.025.955.072l-.109-.879 5.341.19c.946.033 1.938.02 3.093.007.521-.006 1.073-.012 1.667-.016l2.138-.012 1.376 1.637a32.176 32.176 0 002.007 2.184c-.2-2.575-.433-5.344-.674-7.736l-.13-1.287.566-1.164c.536-1.102.953-2.419 1.321-3.581.217-.685.423-1.333.649-1.937.094-.248.171-.5.249-.763l3.202-10.788 1.659 3.18c1.68-3.713 5.462-8.399 11.917-8.399.566 0 1.145.038 1.728.111l-.78-.887-.056-1.629a5.428 5.428 0 00-.082-.831l-.044-.241c-.693-3.795-.936-6.183 2.102-11.119 1.255-2.04 1.776-4.927 2.378-8.271.25-1.383.508-2.814.839-4.306.941-4.233 2.548-6.701 3.84-8.683.564-.865 1.05-1.611 1.412-2.407.553-1.252.257-6.008.098-8.564-.111-1.782-.216-3.466-.216-4.983 0-3.716-1.449-10.278-2.429-13.541-.19-.633-.571-1.521-.975-2.462-1.144-2.663-2.711-6.311-2.711-10.496 0-1.28.059-2.147.102-2.78.075-1.103.085-1.245-1.58-5.868-1.693-4.703-3.311-6.81-5.361-9.479-.808-1.052-1.643-2.139-2.551-3.46-1.447-2.105-2.037-2.551-2.785-3.116-.771-.583-1.723-1.303-2.972-2.826l-3.438-3.438 3.989-3.179c2.36-1.882 5.034-4.195 7.865-6.645.308-.267.61-.53.906-.79-4.109 1.788-7.627 3.337-8.795 3.885-.347.162-.696.332-1.047.509l-4.413 2.219-1.811-4.462c-.74-.311-2.308-.692-3.604-1.006-1.041-.253-2.221-.539-3.49-.891a68.829 68.829 0 01-2.814-.833l-6.747-2.193 4.799-5.225c8.158-8.88 13.62-18.57 17.108-27.094-8.12 9.561-18.423 16.386-28.152 21.995l-3.216 1.854-2.466-2.774a60.015 60.015 0 01-.653-.746l-1.766-2.049.952-2.531c1.504-3.998 1.819-10.143 1.329-15.954-.04.169-.082.337-.125.506-1.18 4.613-4.357 9.751-9.44 15.272l-1.517 1.647-2.231-.194a24.594 24.594 0 00-2.145-.086c-1.623 0-3.276.125-4.875.246-1.557.118-3.027.229-4.448.229-2.205 0-3.914-.284-5.376-.893-.939-.391-2.051-.961-3.459-1.684-4.038-2.071-10.795-5.537-16.046-5.537-5.251 0-12.008 3.466-16.046 5.537-1.408.722-2.52 1.292-3.459 1.684-1.463.61-3.174.894-5.385.894-1.418 0-2.886-.11-4.439-.227-1.595-.12-3.245-.244-4.863-.244-.923 0-1.747.04-2.518.121l-2.277.241-1.553-1.683c-5.112-5.541-8.304-10.697-9.488-15.324a25.468 25.468 0 01-.113-.458c-.494 5.991-.139 12.307 1.43 16.196l1.05 2.603-2.318 2.633-2.464 2.749-3.2-1.839c-9.859-5.667-20.299-12.561-28.495-22.213 3.503 8.567 9.001 18.316 17.226 27.236l4.88 5.292-6.871 2.148c-.672.21-1.443.435-2.384.696-1.27.353-2.45.639-3.491.891-1.296.314-2.863.694-3.604 1.006l-.049.12-1.893 4.574-4.402-2.262a42.907 42.907 0 00-1.417-.697c-1.168-.548-4.687-2.098-8.797-3.886.296.26.598.523.906.79 2.937 2.541 5.711 4.941 8.149 6.87l3.66 2.897-2.983 3.59c-1.204 1.448-2.133 2.153-2.881 2.72-.751.569-1.344 1.019-2.794 3.127-.908 1.32-1.743 2.408-2.551 3.459-2.05 2.669-3.669 4.777-5.362 9.48-1.664 4.623-1.655 4.764-1.58 5.868.043.633.102 1.501.102 2.781 0 4.186-1.567 7.833-2.711 10.496-.404.941-.786 1.828-.975 2.461-.98 3.265-2.429 9.826-2.429 13.542 0 1.517-.105 3.2-.216 4.983-.159 2.555-.455 7.311.099 8.565.362.795.848 1.542 1.411 2.406 1.291 1.983 2.898 4.449 3.839 8.683.332 1.492.59 2.923.84 4.308.603 3.343 1.123 6.23 2.379 8.27 3.037 4.937 2.794 7.324 2.101 11.119l-.043.237c-.12.657-.122 1.21-.008 1.559l.782 2.38-.86 1.047a13.813 13.813 0 011.766-.116c6.456 0 10.238 4.687 11.918 8.401l1.277-2.446 3.61 11.119c.539 1.702 1.277 4.035 2.329 5.133l1.472 1.538-.234 2.116a200.67 200.67 0 00-.619 6.591l.172.374c1.239-1.421 2.265-2.963 2.775-3.73l1.36-2.044 2.784.012c2.157 0 3.605-.113 6.003-.752.516-.137 1.01-.31 1.51-.529l5.931-2.593.441 6.458c.004.056.13 1.452 1.592 3.068.178.197.379.401.601.613-1.04-1.497-1.426-2.849-1.649-4.407-.348-2.44 1.01-4.757 3.549-6.078a5.638 5.638 0 012.716-.685c1.445 0 4.171.556 6.185 4.273a10.433 10.433 0 011.217 3.831c2.032-.266 4.1-.067 5.913.539l5.33-.41c.595-.046 1.673-.122 2.205-.122l.282.004c.121.002.284.005.472.005.389 0 .671-.014.865-.03.231-.218.53-.513.79-.768.94-.927 2.228-2.195 3.982-3.635 2.369-1.947 4.528-2.892 6.6-2.892 1.411 0 2.409.447 2.998.822l2.408 1.532-.327 2.835c-.258 2.236-1.189 3.981-2.189 5.348.106-.004.213-.007.322-.007l.218.004c.486.014.937.068 1.377.165l2.609.573.751 2.48a6.147 6.147 0 013.015-.791zm44.496-3.659c.605 1.068 7.141-2.253 4.64-4.078-4.047-2.953-5.261 2.982-4.64 4.078zm-12.463 4.471c-2.398 3.546-2.651 7.564-.565 8.975 2.086 1.411 5.721-.32 8.119-3.866 2.398-3.546 2.651-7.564.565-8.975-2.086-1.411-5.721.32-8.119 3.866zm-9.568-6.932c-4.642-3.159-9.554-4.032-10.971-1.951-1.417 2.082 1.198 6.33 5.84 9.489 4.642 3.159 9.554 4.032 10.971 1.951 1.417-2.081-1.197-6.33-5.84-9.489zm-15.012 8.47c-1.194 1.765.294 4.857 3.323 6.906 3.029 2.049 6.453 2.278 7.646.513 1.194-1.765-.294-4.857-3.323-6.906-3.029-2.049-6.452-2.278-7.646-.513zm84.227-34.669c-3.022 2.217-4.469 5.38-3.233 7.064 1.236 1.684 4.687 1.252 7.709-.965s4.469-5.38 3.233-7.064c-1.236-1.685-4.687-1.253-7.709.965zM232.53 334.669c1.545 1.112 4.418-.24 6.418-3.019s2.368-5.933.823-7.044-4.418.24-6.418 3.019-2.368 5.933-.823 7.044zm-28.157-14.559c1.014-.585.966-2.566-.106-4.424s-2.764-2.889-3.778-2.304-.966 2.566.106 4.424 2.764 2.89 3.778 2.304zm14.721 8.796c1.008-1.656-.661-4.511-3.728-6.377-3.067-1.866-6.369-2.036-7.377-.38-1.008 1.656.661 4.511 3.728 6.377 3.066 1.866 6.369 2.036 7.377.38zm-56.541-30.134c.909-1.435-.775-4.131-3.761-6.022s-6.143-2.261-7.052-.826c-.909 1.435.775 4.131 3.761 6.022 2.986 1.892 6.144 2.261 7.052.826zm73.554 15.348c-.941-.941-6.603 3.296-10.192 6.885-.824.824-5.324-.455-5.375.574-.146 2.926 3.394 5.349 4.417 5.417 1.396.093 2.767-1.086 6.356-4.674 3.588-3.589 5.735-7.261 4.794-8.202z"/><g><path d="M217.045 148.413s-11.91-9.92-14.226-18.974c-2.316-9.054.118-17.875 1.803-21.244 1.685-3.369-4.922.24-8.165 8.417-3.083 7.775-4.31 23.397-.889 31.591 4.78 11.453 23.793 11.792 21.477.21z" fill="#c1c0b9"/><path d="M313.194 313.333c-.874-2.184-10.774-3.203-12.376-3.494-1.601-.291-10.337 2.184-17.035 1.893-6.698-.291-16.598-.874-22.713-2.184-6.115-1.31-13.25-.146-20.966 0-7.717.146-13.686.582-20.529.874-6.843.291-16.889-1.456-19.947-.146s-7.28 2.766-9.318 6.406c0 0 0 2.912 2.766 5.97 2.766 3.057 8.59 6.552 10.92 7.862 2.329 1.31 5.242 1.747 8.154 3.349s1.456 2.038 6.115 2.038c4.659 0 8.008-.874 8.008-.874s1.165 2.621 4.222 3.349c3.058.728 3.494.728 5.387.291 1.893-.437 2.184-.437 4.368-2.33s3.349-4.222 3.64-5.97c.291-1.747 1.747-2.621 1.747-2.621s1.602-1.602 3.64 1.602c2.038 3.203 5.242 5.97 6.989 6.989 1.747 1.019.728 2.766 4.805 2.912 4.077.146 4.659-.437 6.552-1.893 1.893-1.456 2.912-2.621 2.912-2.621s6.989 1.747 9.027 1.165c2.038-.582 7.571-3.057 7.571-3.057s1.165-1.602 4.805-3.495c3.64-1.893 5.096-1.165 8.154-3.494 3.058-2.33 4.659-5.096 4.659-5.096s2.621-2.038 4.077-1.602c1.456.437 5.096 1.019 5.533 1.019.434.001-.294-4.658-1.167-6.842zm-109.018 6.734s-1.42-.218-2.621-1.529c-1.201-1.31-1.451-2.079-1.638-3.385-.109-.764 1.201-1.42 1.201-1.42s1.31-.874 2.73 1.747.328 4.587.328 4.587zm8.955 8.736c-2.293-.983-3.385-2.075-4.368-3.276-.983-1.201-.328-3.603-.328-3.603 2.075-.655 5.787-.546 7.862 1.856s2.402 5.242 2.402 5.242-3.275.764-5.568-.219zm14.305-3.385c-.764.874-2.293.764-2.948.546-.655-.218-1.529-.546-2.075-1.201-.546-.655-1.747-2.949-1.747-2.949s1.419-.109 1.856-.109 2.73.109 3.713-.437c.983-.546 2.512-2.512 5.569-5.023 3.058-2.512 4.259-1.747 4.259-1.747-.328 2.839-2.73 4.586-3.822 6.115s-4.041 3.931-4.805 4.805zm12.23 3.167c-.218 1.747-.655 2.839-1.092 3.167-.437.328-1.638 2.621-6.77.655 0 0 .437-2.402 2.075-4.259 1.638-1.857 3.494-3.604 5.46-3.167-.001 0 .545 1.856.327 3.604zm19.219 4.149c-3.604-2.075-1.966-5.023-1.966-8.518 0 0 5.788 3.604 7.535 8.081 0 0-1.965 2.512-5.569.437zm12.449-7.207c-2.075 0-3.494-.328-7.207-4.15-3.713-3.822-3.931-6.334-3.931-6.334-1.092-2.184 1.747-.218 3.057 1.42s5.023 4.259 8.081 4.914c3.058.655 3.058 1.638 3.058 2.402s-.983 1.748-3.058 1.748zm14.086 1.747c-1.31.655-4.586 2.184-8.627 1.529 0 0 2.512-4.368 5.46-6.224 2.948-1.857 4.805-1.31 5.351-.109.546 1.201-.873 4.149-2.184 4.804zm9.719-9.719c-.655 1.092-4.259 2.621-3.931.874.328-1.747.541-3.718 1.856-3.822 4.15-.328 2.73 1.856 2.075 2.948z" fill="#79230f"/><path d="M150.414 282.534s-8.445 7.571-4.95 13.104c3.494 5.533 8.445 11.065 20.675 9.318l3.494-6.697s-6.698-14.851-19.219-15.725zm9.067 16.286c-1.716-.156-2.653-.468-3.511-1.092-.858-.624-2.341-1.717-3.043-3.043s-.312-3.121-.312-3.121c7.646-1.248 9.831 7.1 9.831 7.1s-1.248.312-2.965.156zM328.101 296.628l3.495 6.698c12.23 1.747 17.18-3.786 20.675-9.318 3.494-5.533-4.95-13.104-4.95-13.104-12.523.873-19.22 15.724-19.22 15.724zm7.186.405s2.185-8.348 9.831-7.1c0 0 .39 1.795-.312 3.121s-2.185 2.419-3.043 3.043c-.858.624-1.794.936-3.511 1.092-1.716.156-2.965-.156-2.965-.156z" fill="#a63417"/><path d="M279.326 148.413s11.91-9.92 14.226-18.974c2.316-9.054-.118-17.875-1.803-21.244-1.684-3.369 4.922.24 8.165 8.417 3.083 7.775 4.31 23.397.889 31.591-4.78 11.453-23.793 11.792-21.477.21z" fill="#c1c0b9"/><path d="M248.431 318.468s-4.077-2.33-6.406-4.95c-2.33-2.621-5.533-1.747-7.28-1.165-1.747.582-2.912 2.912-6.989 6.406-4.077 3.494-5.242 2.038-7.571 2.329-2.33.291-8.736-.291-10.774-1.165-2.038-.874-2.33-3.785-4.95-6.115-2.621-2.33-7.571 0-8.736 0-1.165 0-3.203 2.621-7.571 3.785-4.368 1.165-6.406.874-11.357.874-4.95 0-3.786-3.494-6.406-5.824-2.621-2.329-3.494-6.697-4.368-9.027-.874-2.33-1.165-5.533-3.786-9.318-2.621-3.786-8.736-4.659-11.357-6.115-2.621-1.456-3.494-3.786-2.912-6.989.582-3.203.873-4.368-1.456-8.154-2.33-3.786-2.621-8.736-3.786-13.978s-3.494-6.989-4.95-10.192c-1.456-3.203-.291-10.774-.291-15.434 0-4.659 1.747-11.939 2.621-14.851.874-2.912 3.494-6.989 3.494-11.648s-.874-2.912 1.747-10.192 5.242-9.318 8.445-13.977c3.203-4.659 3.786-3.494 6.115-6.406 2.33-2.912 5.242-8.736 6.115-11.066.874-2.33 4.659-2.621 9.901-4.077s5.242-1.747 9.609-4.659c4.368-2.912 7.28-5.242 11.357-10.192 4.077-4.95 7.28-2.621 13.686-3.494s13.104 1.165 16.598-.291c3.494-1.456 13.104-7.571 21.257-7.571 8.153 0 17.763 6.115 21.257 7.571 3.494 1.456 10.192-.582 16.598.291 6.406.874 9.61-1.456 13.686 3.494 4.077 4.95 6.989 7.28 11.357 10.192 4.368 2.912 4.368 3.203 9.61 4.659 5.242 1.456 9.027 1.747 9.901 4.077.874 2.33 3.786 8.154 6.115 11.066 2.33 2.912 2.912 1.747 6.115 6.406 3.203 4.659 5.824 6.697 8.445 13.977 2.621 7.28 1.747 5.533 1.747 10.192s2.621 8.736 3.494 11.648c.874 2.912 2.621 10.192 2.621 14.851 0 4.659 1.165 12.23-.291 15.434-1.456 3.203-3.786 4.95-4.95 10.192-1.165 5.242-1.456 10.192-3.786 13.978-2.33 3.785-2.038 4.95-1.456 8.154.582 3.203-.291 5.533-2.912 6.989-2.621 1.456-8.736 2.33-11.357 6.115-2.621 3.786-2.912 6.989-3.786 9.318-.874 2.33-1.747 6.698-4.368 9.027-2.621 2.33-1.456 5.824-6.406 5.824-4.95 0-6.989.291-11.357-.874s-6.406-3.785-7.571-3.785-6.115-2.33-8.736 0c-2.621 2.329-2.912 5.241-4.95 6.115-2.038.874-8.445 1.456-10.774 1.165-2.33-.291-3.494 1.165-7.571-2.329s-5.242-5.824-6.989-6.406c-1.747-.583-4.95-1.456-7.28 1.165-2.328 2.62-6.405 4.95-6.405 4.95" fill="#a63417"/><path d="M341.114 235.041c-3.262-7.611-6.759-13.847-6.759-16.837s1.903-2.447 0-2.99-4.699-1.301-6.291.709c-1.57 1.982-7.668 3.865-12.007 8.348l11.309-3.062s2.64 2.976 3.194 6.238c.554 3.262.262 9.786-1.369 11.689-1.631 1.903-2.99 3.806-2.99 3.806s-2.99 9.514-5.437 10.873-2.311 2.175-3.534 2.99c-1.223.815-3.262 0-4.621.544-1.359.544-1.087 4.078-2.446 5.709-1.359 1.631-4.621.544-5.708 1.903-1.087 1.359-6.252 5.708-8.698 5.98-2.447.272-3.534 2.446-6.252 5.98-2.718 3.534-3.262 4.893-5.708 7.339-2.446 2.446-4.077 2.718-8.97 3.262-4.893.544-5.437 3.534-6.524 4.621-1.087 1.087-3.262 2.447-5.708 2.447s-3.806 1.087-8.155 1.903c-4.349.816-4.893.544-5.98.544s-2.718 0-6.524-1.359-1.903-.272-7.37-1.961c-5.467-1.689-2.688-.214-4.318.873-1.631 1.087-1.903 1.087-7.068.815-5.165-.272-5.437-3.534-7.611-6.252l-4.349-5.437c-2.175-2.718-1.903-2.175-5.436-4.621-3.534-2.446-2.447-3.262-9.514-7.611-7.068-4.349-3.262-1.087-6.524-2.718s-3.806-3.262-6.524-5.98-2.569-1.914-5.165-2.99c-2.596-1.076 2.718-1.087-1.631-4.349-4.349-3.262-3.806-8.699-5.708-8.97-1.903-.272-3.262.544-4.349-3.262-1.087-3.806-1.087-2.718-.815-4.349.272-1.631-1.727-1.409-1.087-3.262 3.272-9.481 1.698-5.269 3.364-6.524 2.875-2.166 6.694-5.165 6.694-5.165.08-.062.17-.117.269-.168a77.142 77.142 0 00-2.716-.919c-5.98-1.903-5.165-3.262-8.427-.272 0 0-1.087 5.708-1.631 10.058-.544 4.349-5.751 9.948-5.48 13.482s-1.938 8.427.237 12.233c2.175 3.806 1.783-.632 4.502 2.358.681.75 2.637-1.66 3.215 1.929.315 1.954 1.654 7.228 1.929 8.146 1.234 4.122 2.24 1.812 4.073 3.644 2.99 2.99 1.125.471 4.93 1.286 3.805.816 1.883 3.723 5.144 9.432 1.059 1.852 6.792.904 8.146 4.287.822 2.056 1.706 1.578 2.572 3.43 1.004 2.145 5.438 6.043 6.431 7.074 1.086 1.129 3.524 4.127 4.502 2.787 1.732-2.376 4.93 1.715 6.431 1.715 1.727 0 3.526-3.02 4.716-2.358 1.023.569 1.685 2.623 2.572 3.001 3.213 1.37 5.548 3.84 9.432 2.143 3.496-1.527 2.449-4.885 7.886-3.254 2.201.66 3.142 2.118 5.078 2.524 1.558.327 3.357.275 4.985.068a23.397 23.397 0 003.457-.705c3.262-.951 4.018-1.569 5.056-1.049 1.681.841 2.864 1.618 3.977 1.56 1.022-.053 3.336-.105 4.501-.429 1.22-.339 1.867-2.397 3.001-2.787 1.32-.453 1.95 1.438 2.787 1.286 2.037-.37 2.794 2.107 4.716 3.215.9.519 3.544 1.893 4.93 1.286 1.307-.572 3.681-1.426 4.716-1.715 1.035-.289.376-1.525 1.927-2.1.508-.189.795-1.086 1.432-1.302 1.945-.66 7.171-1.3 9.246-2.474 1.986-1.124 5.638-.936 6.12-2.995.371-1.584 5.331-3.8 5.86-5.339.812-2.36-.717-5.48 1.566-7.654.945-.9 3.909-.9 4.501-1.5 1.919-1.946-.36-4.426.445-5.873a52.974 52.974 0 012.081-3.463c.725-1.116 3.898 4.144 4.818 2.865.809-1.124 3.558.629 4.427-.521.623-.825 9.931-3.631 10.548-4.428 2.312-2.985-1.186-9.359 0-10.808 1.025-1.253 4.549-.126 5.599-2.214.283-.562 1.924-3.194 2.214-3.777 1.201-2.42-1.4-5.907 0-7.943 2.989-4.354 3.13-5.025-.132-12.636z" fill="#79230f"/><path d="M174.792 223.912s-3.819 2.998-6.694 5.165c-1.666 1.255-.092-2.957-3.364 6.524-.64 1.853 1.359 1.631 1.087 3.262s-.272.544.815 4.349c1.087 3.806 2.446 2.99 4.349 3.262 1.903.272 1.359 5.708 5.708 8.97 4.349 3.262-.965 3.273 1.631 4.349s2.447.272 5.165 2.99 3.262 4.349 6.524 5.98c3.262 1.631-.544-1.631 6.524 2.718s5.98 5.165 9.514 7.611c3.534 2.446 3.262 1.903 5.436 4.621l4.349 5.437c2.175 2.718 2.446 5.98 7.611 6.252 5.165.272 5.436.272 7.067-.815 1.631-1.087-1.149-2.562 4.318-.873 5.467 1.689 3.565.601 7.37 1.961 3.806 1.359 5.437 1.359 6.524 1.359 1.087 0 1.631.272 5.98-.544 4.349-.815 5.708-1.903 8.155-1.903s4.621-1.359 5.708-2.447c1.087-1.087 1.631-4.077 6.524-4.621 4.893-.544 6.524-.815 8.97-3.262 2.446-2.446 2.99-3.806 5.708-7.339 2.718-3.534 3.806-5.708 6.252-5.98 2.447-.272 7.611-4.621 8.698-5.98 1.087-1.359 4.349-.272 5.708-1.903s1.087-5.165 2.446-5.709c1.359-.544 3.398.272 4.621-.544 1.223-.816 1.087-1.631 3.534-2.99 2.446-1.359 5.436-10.873 5.436-10.873s1.359-1.903 2.99-3.806c1.631-1.903 1.923-8.427 1.369-11.689-.554-3.262-3.194-6.238-3.194-6.238l-18.019 4.879s-52.735 20.115-60.618 19.572c-7.883-.544-59.802-20.115-59.802-20.115s-11.954-3.533-14.4-1.63z" fill="#313966"/><path d="M249.001 245.658c-4.456-.307-22.979-6.693-38.245-12.189-10.296 7.293-16.708 17.563-16.708 28.942 0 2.833.4 5.596 1.156 8.263.396.235.835.5 1.334.807 7.068 4.349 5.98 5.165 9.514 7.611 3.534 2.446 3.262 1.903 5.436 4.621l4.349 5.437c2.175 2.718 2.446 5.98 7.611 6.252 5.165.272 5.436.272 7.067-.815 1.631-1.087-1.149-2.562 4.318-.873 5.467 1.689 3.565.601 7.37 1.961 3.806 1.359 5.437 1.359 6.524 1.359 1.087 0 1.631.272 5.98-.544 4.349-.815 5.708-1.903 8.155-1.903s4.621-1.359 5.708-2.447c1.087-1.087 1.631-4.077 6.524-4.621 4.893-.544 6.524-.815 8.97-3.262 2.446-2.446 2.99-3.806 5.708-7.339 2.718-3.534 3.806-5.708 6.252-5.98 1.462-.163 3.892-1.782 5.846-3.348.296-1.695.449-3.423.449-5.178 0-10.888-5.873-20.76-15.399-27.98-15.327 5.457-33.541 11.528-37.919 11.226z" fill="#2d5280"/><path d="M258.795 243.702c-4.609 1.296-8.163 2.069-9.794 1.956-1.641-.113-5.194-1.053-9.786-2.467-11.922 4.044-20.55 15.813-20.55 29.709 0 8.914 3.555 16.948 9.246 22.635 1.191-.066 1.681-.332 2.606-.949 1.631-1.087-1.149-2.562 4.318-.873 5.467 1.689 3.565.601 7.37 1.961 3.806 1.359 5.437 1.359 6.524 1.359 1.087 0 1.631.272 5.98-.544 4.349-.815 5.708-1.903 8.155-1.903s4.621-1.359 5.708-2.447c1.038-1.038 1.59-3.803 5.89-4.526 2.23-4.384 3.498-9.392 3.498-14.714.001-13.35-7.965-24.739-19.165-29.197z" fill="#076e99"/><path d="M284.947 248.261l.291 6.261 3.203-.437 1.456.437 2.621-1.019 2.184-2.33s.874-6.406-.291-9.755c-1.165-3.349-3.494-5.97-3.494-5.97l-8.882.728 2.912 12.085z" fill="#dfded1"/><path d="M295.926 254.743l2.33.291 1.602-1.747 1.31-.291 2.33-3.349s2.33-5.242 1.747-8.736c-.582-3.494-4.659-8.882-4.659-8.882l-6.115 3.495-.291 5.969 1.746 13.25z" fill="#dfded1"/><path d="M305.108 250.987l1.019-1.893 1.456 1.31h1.456l1.165 2.038 2.33 2.039 2.184-1.165.728.437s2.184-3.931 3.058-8.59c.873-4.659-.291-10.046-1.456-12.376-1.165-2.329-5.533-2.475-5.533-2.475l-6.989 4.95.582 15.725z" fill="#dfded1"/><path d="M319.047 246.251l2.766-5.678.874-3.931s-.874-5.824-1.165-7.28c-.291-1.456-2.184-2.766-2.184-2.766l-2.33 2.912-1.31 4.514 3.349 12.229z" fill="#dfded1"/><path d="M322.833 237.369l1.747 1.165 1.747-.874 1.456.146s2.621-6.115 1.747-10.192c-.874-4.077-1.893-6.406-1.893-6.406l-2.038-1.019-4.805.291-3.786 3.64 5.825 13.249z" fill="#dfded1"/><path d="M328.045 230.38l1.019-1.019 1.602.582s0-8.154-1.165-10.192c-1.165-2.038-4.659-2.184-4.659-2.184l-1.165 1.602 1.31 7.426 3.058 3.785zM333.966 257.559s-1.165-7.134-1.456-7.717c-.291-.582-.291-1.747-.291-1.747l1.31 1.31 1.456-2.184 1.602.582 1.31-.291 1.31 1.893s1.165 2.475 1.165 4.659c0 2.184-.582 3.64-1.456 3.931-.873.292-3.93.583-4.95-.436zM332.142 266.509c-.835-2.589-2.912-4.659-2.912-4.659l-1.747 1.747h-2.766l-.874 2.33.437 2.475s1.019 2.33.728 4.077c0 0-.138.945 1.602.728 2.329-.292 6.988-2.184 5.532-6.698z" fill="#dfded1"/><path d="M324.279 272.77s-2.038 2.766-2.766 2.912c-.728.146-6.406.582-7.862-4.222l-.291-2.621 1.31-2.912s1.31-.291 2.039-1.747c.728-1.456 1.602-2.766 1.602-2.766l2.766 1.165 2.038.437s1.165.437 2.038 3.64c.874 3.202-.291 4.658-.874 6.114zM265.546 300.044s.291 1.602 3.349 4.222c3.058 2.621 4.514 2.912 7.571 1.456 3.058-1.456 5.824-2.621 6.406-5.678.582-3.057.291-14.414-.874-18.054l-1.165-2.766-1.165 2.184-1.456.582-2.845.999s-.795 4.388-2.105 4.243c-1.311-.146-2.425 2.281-2.425 2.281s-2.088 7.911-5.291 10.531zM263.865 254.887s.874 3.203 1.019 4.077c.146.874 4.01 7.508 4.485 9.525.475 2.017 2.373-1.305 2.373-1.305s7.265-7.929 6.828-16.665l-1.747-8.008-12.667 1.747-.291 10.629zM286.17 301.922c.728 0 1.31 1.165 3.057-.291 1.747-1.456-.437-1.456 3.494-1.747 3.931-.291 3.931-1.456 5.387-2.475 1.456-1.019 2.038-1.31 3.057-2.038 1.019-.728 2.475-2.621 2.475-2.621s-.291-3.64-.291-4.222c0-.582-1.456 1.31-1.456 1.31s-1.602.146-1.747.582c-.146.437-.437 2.038-.437 2.038l-1.165 1.31-2.766-.874-.874 1.165-.437 1.019-2.766 1.602-2.038.728-.874-3.203-3.058.728s.583 3.494.583 4.368-.144 2.621-.144 2.621zM250.695 302.449s2.329 2.038 3.786 2.33c1.456.291 3.349-.146 4.514-.291 1.165-.146 2.621-1.456 2.621-1.456s1.165-5.678.728-9.464c0 0-.495-2.633-1.116-3.697-.621-1.064-1.018-.234-1.018-.234s-.223.234-.755 1.298c-.533 1.064-3.636 7.536-8.76 11.514zM214.071 249.056l-.291 6.261-3.203-.437-1.456.437-2.621-1.019-2.184-2.33s-.874-6.406.291-9.755c1.165-3.349 3.494-5.97 3.494-5.97l8.882.728-2.912 12.085z" fill="#dfded1"/><path d="M203.47 254.628l-2.329.291-1.602-1.747-1.31-.291-2.33-3.349s-2.33-5.242-1.747-8.736c.583-3.494 4.659-8.882 4.659-8.882l6.115 3.494.291 5.97-1.747 13.25z" fill="#dfded1"/><path d="M196.333 250.59l-1.019-1.893-1.456 1.31h-1.456l-1.165 2.038-2.33 2.038-2.184-1.165-.728.437s-2.184-3.931-3.058-8.59c-.874-4.659.291-10.046 1.456-12.376s5.533-2.475 5.533-2.475l6.989 4.95-.582 15.726z" fill="#dfded1"/><path d="M180.728 246.251l-2.766-5.678-.874-3.931s.874-5.824 1.165-7.28c.291-1.456 2.184-2.766 2.184-2.766l2.33 2.912 1.31 4.514-3.349 12.229z" fill="#dfded1"/><path d="M176.942 237.369l-1.747 1.165-1.747-.874-1.456.146s-2.621-6.115-1.747-10.192c.874-4.077 1.893-6.406 1.893-6.406l2.038-1.019 4.805.291 3.786 3.64-5.825 13.249z" fill="#dfded1"/><path d="M170.099 230.38l-1.019-1.019-1.602.582s0-8.154 1.165-10.192c1.165-2.038 4.659-2.184 4.659-2.184l1.165 1.602-1.31 7.426-3.058 3.785zM163.634 257.559s1.165-7.134 1.456-7.717c.291-.582.291-1.747.291-1.747l-1.31 1.31-1.456-2.184-1.602.582-1.31-.291-1.31 1.893s-1.165 2.475-1.165 4.659c0 2.184.582 3.64 1.456 3.931.873.292 3.931.583 4.95-.436zM167.09 265.965c.835-2.589 2.912-4.659 2.912-4.659l1.747 1.747h2.766l.874 2.33-.437 2.475s-1.019 2.33-.728 4.077c0 0 .138.945-1.602.728-2.329-.291-6.988-2.184-5.532-6.698z" fill="#dfded1"/><path d="M174.952 272.226s2.038 2.766 2.766 2.912 6.406.582 7.862-4.222l.291-2.621-1.31-2.912s-1.31-.291-2.038-1.747c-.728-1.456-1.602-2.766-1.602-2.766l-2.766 1.165-2.038.437s-1.165.437-2.038 3.64c-.874 3.202.29 4.658.873 6.114zM231.346 298.397s-.291 1.602-3.349 4.222c-3.058 2.621-4.514 2.912-7.571 1.456-3.057-1.456-5.824-2.621-6.406-5.678-.583-3.057-.291-14.414.873-18.054l1.165-2.766 1.165 2.184 1.456.582 2.33 3.058s1.31 2.329 2.621 2.184c1.31-.146 2.912.437 2.912.437s1.601 9.755 4.804 12.375zM233.735 255.43s-2.814 3.684-3.645 9.38c-.831 5.696-2.136 4.035-2.136 4.035s-9.362-9.047-8.925-17.783l1.747-8.008 12.667 1.747.292 10.629zM211.166 302.334c-.728 0-1.31 1.165-3.058-.291-1.747-1.456.437-1.456-3.494-1.747-3.931-.291-3.931-1.456-5.387-2.475-1.456-1.019-2.038-1.31-3.058-2.038s-2.475-2.621-2.475-2.621.291-3.64.291-4.222 1.456 1.31 1.456 1.31 1.602.146 1.747.582c.146.437.437 2.038.437 2.038l1.165 1.31 2.766-.874.874 1.165.437 1.019 2.767 1.601 2.038.728.464-1.602 2.175.906s.71 1.715.71 2.589c0 .875.145 2.622.145 2.622zM248.256 250.18l-4.222.146-5.97 1.747-2.184 2.766-.146 2.766s.437 4.368.291 4.805c-.146.437 1.31 1.602 1.31 1.602l1.602 1.31h3.203l.583 1.602 1.602-.874 2.184.874 1.747 1.456 1.747-1.456 2.184-.874 1.602.874.582-1.602h3.203l1.602-1.31s1.456-1.165 1.31-1.602c-.146-.437.291-4.805.291-4.805l-.146-2.766-2.184-2.766-5.97-1.747-4.221-.146zM246.483 302.595s-2.33 2.038-3.786 2.329c-1.456.291-3.349-.145-4.514-.291s-2.621-1.456-2.621-1.456-1.165-5.678-.728-9.464l.582-2.184 1.161-2.723 1.153 1.33 1.064-.621c.001.001.799 6.296 7.689 13.08z" fill="#dfded1"/><path d="M330.414 220.922c.408-.408-1.859-2.315-1.859-2.315 2.184-.62.437-1.859-.218-2.685s-1.966-5.37-2.621-7.023c-.655-1.652-2.402-2.066-4.805-3.305-2.402-1.239-5.242-3.098-8.299-5.37-3.058-2.272-3.931-4.131-4.805-7.849-.874-3.718-2.839-4.544-3.931-5.783-1.092-1.239-5.46-.207-8.299-.413-2.839-.207-4.368.826-7.207 2.479-2.839 1.652-8.299 2.272-10.046 3.924-1.747 1.652-4.149 5.577-4.586 3.718-.437-1.859-1.019-2.065-1.019-2.065s.449 2.275-1.589 3.195c-.563.254-1.555.224-2.281.57-.7.334-1.427 1.093-2.281 1.521-.941.471.526 3.335-.57 3.612-1.097.277-5.886-4.014-7.021-3.883-3.697.429-7.283.217-8.726.217-.975 0-1.559-.462-1.884-.584-.325.123-.91.584-1.884.584-1.707 0-5.611 1.251-9.95.434-1.055-.199-7.431 5.228-8.395 4.877-.482-.175-1.911-2.299-2.352-2.52-1.322-.662.282-3.926-.672-4.368-.451-.209.539-2.859.168-3.024-1.779-.792-1.268-.632-1.268-.632s-.582.206-1.019 2.065-2.839-2.065-4.586-3.718c-1.747-1.652-7.207-2.272-10.046-3.924-2.839-1.652-4.368-2.685-7.207-2.479-2.839.207-7.207-.826-8.299.413-1.092 1.239-3.058 2.066-3.931 5.783-.874 3.718-1.747 5.577-4.805 7.849-3.057 2.272-5.897 4.131-8.299 5.37-2.402 1.239-4.15 1.652-4.805 3.305-.655 1.652-1.966 6.196-2.621 7.023-.655.826-1.904 1.164-.218 2.685.908.82-1.417 2.451-1.274 4.625.069 1.046.133 4.213.133 4.213l1.064 1.631s.532-5.029 1.196-6.252c.665-1.223 1.596 1.087 1.596 1.087.133-.68 2.127-.544 2.659-.408.532.136.931 5.301.931 5.301s2.127.544 2.526-.136 4.121-.408 4.387 3.534c0 0 1.329.272 1.329-.544 0-.815.758 2.677 1.994 3.942.399.408 2.393-1.087 2.792.951.399 2.039.798 3.262.798 3.262l1.861-.951s1.064.272 1.861.951c.798.679 2.925.815 2.925.815s5.85-3.67 6.913 2.039c1.064 5.708 1.462 4.757 1.462 4.757s-.266-3.398 1.33-3.942c1.595-.544 4.52.272 4.919 1.087.399.816 1.462 1.087 2.127 3.262.665 2.175 1.596 2.718 1.596 2.718s1.197-.544 3.59-.408c2.393.136 4.254.815 4.254.815l2.127-.544s3.324-9.922 10.769 3.806c0 0 1.596 0 1.994.136.399.136 2.393-.68 2.393-.68s2.925-4.213 6.515-.272c0 0 .931.68 1.994.815 1.064.136 1.994.544 1.994.544s.931-.408 1.994-.544c1.064-.136 1.994-.815 1.994-.815 3.59-3.942 6.515.272 6.515.272s1.994.815 2.393.68c.399-.136 1.994-.136 1.994-.136 7.445-13.727 10.769-3.806 10.769-3.806l2.127.544s1.861-.679 4.255-.815c2.393-.136 3.59.408 3.59.408s.931-.544 1.595-2.718c.665-2.175 1.728-2.446 2.127-3.262.399-.815 3.324-1.631 4.919-1.087 1.595.544 1.329 3.942 1.329 3.942s.399.951 1.462-4.757c1.064-5.708 6.913-2.039 6.913-2.039s2.127-.136 2.925-.815c.798-.68 1.861-.951 1.861-.951l1.861.951s.399-1.223.798-3.262c.399-2.039 2.393-.544 2.792-.951 1.237-1.264 1.994-4.757 1.994-3.942 0 .816 1.329.544 1.329.544.266-3.941 3.989-4.213 4.388-3.534.399.68 2.526.136 2.526.136s.399-5.165.931-5.301c.532-.136 2.526-.272 2.659.408 0 0 .931-2.311 1.595-1.087.665 1.223 1.197 6.252 1.197 6.252l1.063-1.631s.931-3.534.133-4.213" fill="#946e59"/><path d="M341.76 111.863c-1.457 14.083-11.884 42.925-36.991 60.499-12.312 8.618-25.546-9.541-15.697-16.621 9.849-7.079 39.089-17.852 49.554-45.245 2.989-8.389 3.571-2.856 3.134 1.367zM332.151 165.115c3.117-1.461 24.162-10.587 26.711-11.514 2.549-.927-1.854 5.562-13.906 15.991-12.051 10.429-18.734 16.163-23.871 10.197-4.55-5.282 4.077-11.398 11.066-14.674zM154.61 111.863c1.457 14.083 11.885 42.925 36.991 60.499 12.312 8.618 25.546-9.541 15.697-16.621-9.849-7.079-39.089-17.852-49.554-45.245-2.988-8.389-3.57-2.856-3.134 1.367zM164.22 165.115c-3.117-1.461-24.162-10.587-26.712-11.514-2.549-.927 1.854 5.562 13.906 15.991 12.051 10.429 18.734 16.163 23.871 10.197 4.55-5.282-4.076-11.398-11.065-14.674zM330.005 326.113s-1.048-16.624-1.947-21.716c-.899-5.092-6.889-5.092-9.585-2.696-2.696 2.396-4.493 8.986-1.797 13.18 2.696 4.192 8.237 10.333 13.329 11.232zM170.714 327.207s-.06-1.235.096-3.471c.026-.367-1.572-3.357-1.543-3.76.381-5.322 1.04-11.19 1.624-14.502.899-5.092 6.889-5.092 9.585-2.696 2.696 2.396 4.493 8.986 1.797 13.18-2.694 4.192-6.467 10.35-11.559 11.249z" fill="#dfded1"/><path d="M247.844 221.941c-2.293 0-9.17-.723-11.463-1.806-2.293-1.084-4.585-5.291-5.799-6.917s-3.776-1.934-3.776-1.934c5.664-10.658 12.947-10.116 21.038-10.116 8.092 0 15.374-.542 21.038 10.116 0 0-2.562.309-3.776 1.934-1.214 1.626-3.506 5.833-5.799 6.917-2.293 1.083-9.171 1.806-11.463 1.806z" fill="#68b230"/><path d="M247.844 201.841c7.053 0 15.305 1.902 19.693 8.996-.928.375-2.913.486-3.648 1.471-.308.413-.707 2.535-1.108 3.145-1.115 1.694-2.747 2.657-4.123 3.308-1.887.892-8.41 1.661-10.814 1.661s-9.138-.153-11.025-1.045c-1.376-.65-3.182-2.762-4.296-4.455-.401-.61-.415-2.201-.724-2.613-.735-.985-3.064-1.097-3.992-1.471 4.388-7.095 14.001-8.997 20.037-8.997m2.219-.679c-.732 0-1.473.005-2.219.005-.747 0-1.487-.005-2.22-.005-7.202 0-13.677.447-18.818 10.12 0 0 2.562.309 3.776 1.934s3.506 5.833 5.799 6.917c2.293 1.084 9.17 1.806 11.463 1.806s9.17-.723 11.463-1.806c2.293-1.084 4.585-5.291 5.799-6.917 1.214-1.626 3.776-1.934 3.776-1.934-5.142-9.673-11.616-10.12-18.819-10.12z" fill="#4a7b32"/><path d="M258.219 211.357c0 3.945-4.559 7.143-10.182 7.143s-10.182-3.198-10.182-7.143 4.559-7.143 10.182-7.143c5.624 0 10.182 3.198 10.182 7.143z" fill="#e0dc01"/><path d="M252.328 211.357c0 3.337-1.921 6.042-4.29 6.042-2.369 0-4.29-2.705-4.29-6.042 0-3.337 1.921-6.042 4.29-6.042 2.369-.001 4.29 2.705 4.29 6.042z" fill="#b3b111"/><path d="M246.694 206.599a3.474 3.474 0 11-6.948 0 3.474 3.474 0 016.948 0z" fill="#d3d094"/><path d="M243.219 203.124a3.474 3.474 0 00-3.474 3.474c0 .195.027.383.057.57 1.445-1.395 3.585-2.411 6.07-2.789a3.453 3.453 0 00-2.653-1.255z" fill="#99ad87"/><path d="M243.87 210.003a3.47 3.47 0 002.835-3.41c0-.316-.056-.617-.135-.908-1.347.698-2.375 2.316-2.7 4.318z" fill="#adaa68"/><path d="M257.165 249.254c4.856-.879-.084-.41 3.823-.821s3.701-2.467 5.963-3.701 5.346-1.439 7.196-.617c1.851.822.617 1.645 4.729 2.056 4.112.411 4.935-.206 6.991-2.262s3.495-3.084 6.58-3.495c3.084-.411 4.318-3.495 7.608-4.935 3.29-1.439 2.879-1.234 5.346-1.645 2.467-.411 3.701-.411 6.991-3.907 3.29-3.495 6.374-2.056 7.608-4.729s3.039-5.274 3.678-6.029c.64-.756 2.901-1.989 2.49-5.279-.411-3.29-3.907-5.346-7.813-7.196-3.907-1.85-6.785-2.878-8.636-5.346-1.85-2.467-3.495-3.907-3.907-6.374-.411-2.467-2.614-1.533-3.642-2.15s-2.437-3.64-7.166-1.378c-4.729 2.262-8.417 3.036-10.473 3.858-2.056.822-4.278 3.452-5.512 4.685-1.234 1.234-2.492.488-5.577.899-3.084.411-1.154 1.69-1.359 2.718s-2.321 3.189-1.087 3.806c1.234.617.61 3.387.816 4.621.206 1.234-2.91 1.14-4.349 2.99-1.439 1.851-.511 2.979-1.951 5.035-1.439 2.056-6.374 4.318-7.813 4.523s-5.14-1.234-7.196 1.234c-2.056 2.467-.451 2.466-.245 6.167.206 3.701 2.714 6.497 2.714 8.142s.987 8.636.987 8.636.464.99 3.206.494zM238.907 248.02c-2.994-.006-3.209-.41-6.499-1.849-3.29-1.439-5.551-1.85-7.608-1.645-2.056.206-1.234 2.879-3.701 3.29-2.467.411-5.963-.822-7.196-1.85-1.234-1.028-2.056-3.701-6.374-4.318-4.318-.617-2.262-2.056-3.495-3.907-1.234-1.851-2.262.206-6.374.617-4.112.411-4.318-2.262-7.402-3.907-3.084-1.645-4.523-3.701-5.14-4.935-.617-1.234-3.907-2.262-6.785-3.29s-2.467-2.879-3.907-5.346c-1.439-2.467-4.523-.823-4.523-.823l-.206-.411 1.234-3.495c1.234-3.495 1.645-2.879 1.645-6.168 0-3.29 4.935-2.467 10.28-5.14 5.346-2.673 6.374-3.084 7.402-6.374 1.028-3.29.305-1.196 2.772-6.748 2.467-5.551 7.717.827 7.717.827s3.876 1.037 7.166 1.654c3.29.617 4.073-.612 5.512.827 1.439 1.439 5.618 2.618 7.263 4.263 1.645 1.645 2.262 3.29 1.234 7.813s-.613 5.13 2.06 5.541c2.673.411 3.273.732 4.918 3.405s4.536 5.035 5.153 5.447c.617.411 4.318.411 6.785.411 2.467 0 4.935 2.056 4.935 2.056s-.822 5.346-.617 8.43c.206 3.084-2.302 7.894-2.302 8.717 0 .822-2.221 3.331-2.221 5.181.001 0-.25 1.73-1.726 1.727z" fill="#bc8a72"/><path d="M190.258 198.469s1.908 3.235 4.626 5.409c2.718 2.175 5.437 4.349 7.067 4.893 1.631.544 6.524 5.98 10.329 7.611 3.806 1.631 8.155 1.087 10.873 4.349 2.718 3.262 0 4.893 5.98 5.437 5.98.544 8.155 0 10.873.544s8.155 0 8.155 0-.846-.242-1.422-1.539 1.729-.288-.864-2.161-1.585-.865-6.195-1.873c-4.611-1.008-3.746-.288-6.339-2.305-2.593-2.017-4.034-2.593-5.907-2.593-1.873 0-2.017.144-5.331-1.008-3.314-1.153-3.89-.721-5.331-3.17-1.441-2.449.144-2.593-4.611-4.755-4.755-2.161-6.051-1.873-8.789-3.602-2.738-1.729-.865-1.297-5.331-3.89-4.467-2.594-4.467-1.297-5.619-3.458-1.153-2.161-2.305-3.746-2.305-3.746s-2.017 2.161-2.017 3.314c-.001 1.151 2.158 2.543 2.158 2.543zM249.045 226.038c.604.949 3.458-1.585 4.899-1.008 1.441.576 4.034 1.729 5.907.72 1.873-1.009 1.585-1.297 4.178-1.729 2.594-.432 4.899-.432 6.916-1.297 2.017-.864 2.305-1.729 4.899-2.882s4.899-3.17 7.78-4.467c2.882-1.297 4.755-1.441 7.78-2.161s5.187-1.153 7.06-3.746c1.873-2.593 2.449-3.602 4.034-4.611s2.593-2.449 3.746-3.026c1.153-.576 2.449-3.17 2.449-3.17s0-1.297-.72-2.594-1.153-2.449-1.153-2.449-1.153 1.441-1.153 2.017c0 .576.72 2.305-1.297 3.458s-2.305 2.161-3.746 3.026c-1.441.865-2.017.576-3.17 2.161s-3.314 1.297-4.466 2.882c-1.153 1.585-.432 2.449-3.458 3.314-3.026.864-4.322-.288-5.907 1.153s-1.008 2.305-2.737 2.594c-1.729.288-3.458-1.729-6.195.144-2.738 1.873-3.314 2.017-5.331 3.602-2.017 1.585-3.458 1.873-5.043 2.305-1.585.432-4.466.864-4.466.864l-9.941 2.305c0 .001-1.873 1.01-.865 2.595z" fill="#946e59"/><path d="M246.774 239.049s-1.041 2.291-1.041 3.54-.833 3.957-.416 4.998c.416 1.041 2.132 2.27 2.94 2.593.808.322 1.225.531 1.849-.927.625-1.458 1.874-3.957-.208-5.623-2.082-1.666-1.249-4.79-1.874-6.456-.626-1.666-1.25 1.875-1.25 1.875z" fill="#bc8a72"/><path d="M306.604 283.454s1.071.268 1.785.268 1.963.268 2.142-.714c.178-.982.357-1.874.268-2.856-.089-.982-.803-3.748-.892-4.016-.089-.268-1.249-2.32-2.588-3.48l-.446 1.785.892 1.785s-.803 1.16-1.071 1.785c-.268.625.446 3.748.446 3.748s-.804.803-.536 1.695zM185.642 285.356c.252.146-1.148.208-2.585-.608-.681-.387-1.292-1.216-1.216-2.053.076-.836.836-1.673 1.064-2.585.228-.912 2.661-3.725 2.965-3.953.304-.228.836-.38.836-.38s.456.836.456 1.064c0 .228-.836.836-.608 1.749.228.912-.532 2.357-.304 2.965.228.608.76.912.76 1.977.001 1.063-1.368 1.824-1.368 1.824z" fill="#dfded1"/><path d="M238.777 173.874c-.692.15-1.402.389-1.879.911-.747.819-.702 2.13-.199 3.118.503.988 1.371 1.73 2.206 2.459 2.164 1.889 4.269 3.887 5.893 6.257 1.624 2.37 2.752 5.153 2.776 8.025-.182-2.46.805-4.981 2.609-6.663 1.035-.965 2.302-1.652 3.343-2.609 2.976-2.738 3.608-7.123 4.062-11.141.027-.242.044-.519-.122-.697-.3-.321-.827-.025-1.144.28a25.224 25.224 0 00-2.843 3.239c-.284.386-.584.801-1.032.97-.946.358-1.876-.542-2.428-1.39-.552-.848-1.229-1.858-2.241-1.833-.321.008-.63.128-.951.147-.552.033-1.071-.23-1.579-.448a10.765 10.765 0 00-6.471-.625zM224.012 167.722c.341-.239.741-.381 1.144-.489 1.269-.338 2.611-.357 3.866-.745s2.489-1.294 2.69-2.592c.169-1.092-.425-2.142-.996-3.088l-3.666-6.071 1.255 5.143c.166.68.317 1.455-.074 2.036-.728 1.079-2.43.461-3.418-.385-.988-.847-2.223-1.91-3.411-1.38.9 5.749-2.478 11.637-7.417 14.714s-11.129 3.645-16.864 2.663c.958.794 1.948 1.606 3.133 1.984 2.771.885 6.363-.624 8.389 1.463.596-2.026 3.1-2.663 5.191-2.961l6.948-.993a18.499 18.499 0 012.041-7.751c.301-.584.651-1.17 1.189-1.548zM241.627 160.401c1.998 2.707 3.126 6.055 5.528 8.411.366.359.871.714 1.35.533.329-.124.519-.462.681-.775l5.259-10.144c1.153-2.225 2.34-4.611 2.095-7.105-.914.837-1.362 2.053-2.036 3.093-1.307 2.016-3.566 3.385-5.958 3.61-2.392.225-4.867-.699-6.526-2.436-.437-.029-.827.45-.708.872a40.855 40.855 0 01-4.917-4.97c-.037 1.762.802 3.434 1.854 4.847 1.053 1.413 2.332 2.646 3.378 4.064zM232.924 146.306c.341.245.731.417 1.136.527a4.314 4.314 0 003.915-.909 4.311 4.311 0 001.393-3.77c-.076 1.552-1.803 2.615-3.352 2.496-1.55-.118-2.897-1.085-4.059-2.117-.608 1.272-.178 2.951.967 3.773zM264.189 141.635l-.746.028c-.386.63-1.125.974-1.858 1.074-2.125.293-4.308-1.462-4.479-3.6-.773 1.138-1.573 2.574-.964 3.807.388.784 1.25 1.218 2.094 1.446 2.361.639 5.417-.369 5.953-2.755zM284.172 180.502c3.254.785 6.544 1.575 9.891 1.578 5.588.005 11.144-2.296 15.091-6.252-5.485 2.832-11.991 2.539-18.153 2.178-1.134-.066-2.292-.138-3.341-.574-1.422-.591-2.491-1.781-3.707-2.726-1.294-1.005-2.781-1.747-4.044-2.791-3.545-2.93-4.829-8.288-2.999-12.507-1.075 1.924-3.332 2.915-5.521 3.17-1.138.133-2.377.077-3.304-.597-.927-.674-1.333-2.141-.572-2.998-1.29.896-1.965 2.595-1.641 4.132.324 1.537 1.627 2.819 3.169 3.119.715.139 1.493.092 2.12.463.402.238.693.622.973.996l2.887 3.858c.249.333.509.695.516 1.111.009.47-.304.874-.528 1.288a3.742 3.742 0 00-.173 3.146l4.343-1.01c-.387 2.425 2.605 3.84 4.993 4.416zM175.931 185.396c.485-.252.786.528 1.065.998.362.607 1.118.829 1.803 1.001l3.293.824c1.43.357 3.076.678 4.269-.187.884-.641 1.266-1.893.893-2.918-.821-2.251-4.299-2.476-5.26-4.671-.354-.808-.285-1.729-.209-2.607l.432-5.016a53.027 53.027 0 009.441 10.164c-1.114.134-2.1 1.014-2.358 2.107-.219.925.043 1.939-.311 2.822-.418 1.042-1.658 1.996-1.16 3.002a32.452 32.452 0 00-9.279.101c-.716.112-1.489.239-2.133-.092-1.239-.637-1.22-2.481-2.212-3.459-1.316-1.299-4.133-.859-4.65-2.634l4.26 1.1c.609.157 1.357.278 1.782-.186.109-.121.19-.275.334-.349zM148.477 204.514c.662-.531 1.682-.226 2.31.343.629.57 1.03 1.35 1.63 1.949 1.098 1.098 2.704 1.462 4.175 1.96 1.471.498 3.026 1.33 3.493 2.811.151.48.178 1.005.429 1.441.894 1.554 3.929 1.036 4.342 2.78l3.096-7.466c.538-1.298 1.087-2.7.783-4.072-.251-1.129-1.058-2.092-1.209-3.239-.088-.665.053-1.337.071-2.008.087-3.365-2.905-6.32-2.527-9.665a70.282 70.282 0 01-7.679 6.206l5.653-.931c.813-.134 1.762-.228 2.349.35.299.294.439.709.563 1.109a39.766 39.766 0 011.746 10.421c.013.408 0 .868-.294 1.151-.206.198-.505.261-.787.305-1.03.163-2.101.198-3.098-.103-1.741-.525-3.052-2.027-3.786-3.69-.734-1.664-.974-3.496-1.206-5.3.634.928.155 2.322-.809 2.901s-2.22.467-3.24-.007c-1.02-.475-1.853-1.264-2.667-2.04-1.259-1.2-2.571-2.484-3.043-4.159-1.826 3.541-2.013 7.886-.499 11.57a23.88 23.88 0 00.204-2.617zM149.131 227.491a10.011 10.011 0 002.211-3.795 10.289 10.289 0 01-3.158 3.255c-1.313.855-2.864 1.447-3.817 2.691-.393.512-.66 1.108-1.006 1.653a6.675 6.675 0 01-4.441 2.956c.183 1.326.786 2.592.764 3.93-.01.579-.137 1.15-.264 1.715l-1.288 5.732c1.122.739 2.635-.034 3.575-.994.94-.96 1.765-2.179 3.061-2.534.653.697 1.333 1.414 2.213 1.786.88.372 2.021.304 2.648-.417.379-.436.516-1.036.858-1.502.451-.616 1.196-.925 1.852-1.315 2.345-1.394 3.697-3.953 4.934-6.384-.722 1.367-2.169 2.234-3.669 2.61-1.499.377-3.069.328-4.614.276-1.411-.047-2.99-.169-3.928-1.225-1.157-1.302-.722-3.416.322-4.81 1.044-1.393 2.56-2.354 3.747-3.628zM307.739 185.543a8.518 8.518 0 014.004-3.522l-1.408 1.757c-.736.918-1.516 2.076-1.107 3.179.284.766 1.095 1.237 1.905 1.344.81.107 1.626-.088 2.415-.299 1.374-.368 2.733-.79 4.091-1.213l2.122-.661 7.715-2.401c-1.402 1.459-4.131 1.136-5.259 2.816-.525.782-.566 1.847-1.212 2.532-1.144 1.212-3.158.421-4.806.665-1.343.199-2.527 1.138-3.884 1.15-1.971.018-3.371-1.843-4.428-3.508-.221-.347-.45-.728-.415-1.138.02-.252.139-.483.267-.701zM335.817 196.85c-.341-.97-.98-1.815-1.729-2.519-1.25-1.175-2.936-2.184-3.209-3.877-1.293 1.392-1.865 3.287-2.398 5.111-.726 2.487-1.459 5.022-1.405 7.612.055 2.59 1.022 5.293 3.11 6.827.876.644 1.909 1.057 2.764 1.729 3.028 2.377 3.018 7.18 5.796 9.844.82.787 1.939 1.984 1.155 2.808a11.614 11.614 0 015.4-3.147c-2.025-.107-3.959-1.303-4.959-3.067s-1.035-4.037-.089-5.83c1.618-3.066 5.494-4.238 7.572-7.013 1.555-2.078 1.904-4.997.883-7.383-.919 3.361-4.045 5.566-6.973 7.454-1.897 1.224-3.874 2.463-6.104 2.812-2.23.35-4.798-.425-5.88-2.406-.702-1.285-.678-2.84-.482-4.291.228-1.684.722-3.441 1.978-4.586 1.257-1.142 3.462-1.367 4.57-.078zM348.225 235.994c-.619.472-1.403.759-1.858 1.39-.267.37-.394.826-.668 1.19-.273.364-.8.62-1.183.374a24.843 24.843 0 011.568 4.943l3.407-.409c1.666-.2 3.403-.393 4.984.171 1.58.564 2.938 2.134 2.671 3.791.5-1.515.066-3.156-.208-4.728-.73-4.191-.288-8.488.155-12.719-.171 1.666-2.319 2.764-3.77 1.926-.394-.227-.718-.556-1.037-.881l-3.241-3.299c.44 1.41.885 2.848.881 4.325-.003 1.479-.526 3.03-1.701 3.926zM329.554 282c1.044.207 2.148.357 3.154.009.707-.245 1.309-.717 1.895-1.182l5.99-4.743c1.451-1.149 2.912-2.307 4.12-3.709 2.412-2.799 3.667-6.385 4.871-9.879.12-.348.241-.719.154-1.076-.089-.366-.379-.643-.639-.915-3.244-3.404-3.035-9.484.435-12.657-3.793 2.665-5.613 7.842-4.323 12.294.627 2.163 1.749 4.899.007 6.328-.463.38-1.054.565-1.556.891-1.965 1.276-1.995 4.163-3.406 6.033-.781 1.035-1.945 1.7-3.075 2.337-4.036 2.273-8.279 4.606-12.909 4.744a32.116 32.116 0 005.282 1.525zM181.284 292.315c-1.588-.325-3.393-.264-4.595-1.352-1.053-.953-1.29-2.481-1.747-3.825-1.293-3.798-4.95-6.674-8.946-7.037 3.792.961 6.551 4.408 7.771 8.124 1.221 3.716 1.163 7.714 1.094 11.624.337-1.384.756-2.797 1.662-3.897.906-1.099 2.418-1.815 3.779-1.396 1.42.437 2.235 1.892 2.844 3.247a49.91 49.91 0 012.865 8.225c2.942 2.003 7.15-1.013 10.426.375 2.107.893 3.897 3.543 6.013 2.67-.76.984.464 2.378 1.686 2.605 1.223.227 2.565-.071 3.669.501 2.205 1.141 2.006 4.905 4.303 5.847l-.01-6.575c-4.007-.083-6.725-3.943-10.103-6.1-2.414-1.541-5.282-2.24-7.735-3.718-4.612-2.778-7.7-8.24-12.976-9.318zM326.178 296.871c-3.84-1.486-8.698.886-9.889 4.828-.161.533-.287 1.125-.717 1.479-.828.683-2.238.067-3.063.753-.46.383-.565 1.037-.847 1.566-.767 1.435-2.736 1.735-4.325 1.383-1.589-.352-3.068-1.17-4.687-1.332-3.139-.315-5.928 1.842-8.341 3.874l-6.149 5.18c.156-3.634 2.477-6.975 5.582-8.869 3.105-1.894 6.893-2.456 10.514-2.117.532.05 1.086.115 1.588-.069 1.101-.405 1.445-1.749 1.793-2.869.349-1.12 1.207-2.392 2.357-2.165-.082.884.911 1.561 1.797 1.498.885-.063 1.647-.62 2.354-1.157l7.4-5.612c.917-.696 1.878-1.447 2.292-2.521.942-2.44-1.341-4.973-1.332-7.589 3.98 3.157 5.547 9.018 3.673 13.739zM152.873 282.66c1.108-3.34 3.703-6.156 6.942-7.532-1.349.816-3.052-.551-3.596-2.031-.545-1.479-.539-3.181-1.43-4.481-.506-.738-1.252-1.27-1.9-1.886-2.129-2.026-3.188-5.118-2.749-8.025.265-1.755 1.032-3.395 1.43-5.125.398-1.73.362-3.719-.789-5.071.845 2.646-1.749 4.981-3.163 7.372-1.724 2.915-1.687 6.786.092 9.668 1.445 2.342 4.022 4.358 3.839 7.104-.094 1.416-.945 2.668-1.261 4.051-.518 2.258.582 4.792 2.585 5.956z" fill="#79230f"/><path d="M220.192 329.885a51.918 51.918 0 00-1.759-2.079c.209.731.267 1.215.267 1.215s-3.276.764-5.569-.219-3.385-2.075-4.368-3.276c-.983-1.201-.328-3.604-.328-3.604a7.052 7.052 0 011.007-.231 11.674 11.674 0 00-1.733-.321c-.097-.01-.206-.015-.279.05a.343.343 0 00-.074.116c-.499 1.104-.458 2.395-.105 3.553.353 1.159.996 2.206 1.679 3.206.518.758 1.07 1.505 1.769 2.102 1.387 1.186 3.257 1.687 5.081 1.738 1.824.051 3.632-.31 5.422-.67-.22-.586-.615-1.09-1.01-1.58zM241.952 324.9c-.178-1.547-.812-3-1.438-4.426l-.809-1.843c.331 2.124.004 4.34-.899 6.289.177.005.354.021.533.061 0 0 .546 1.856.328 3.604-.218 1.747-.655 2.839-1.092 3.167-.437.328-1.638 2.621-6.77.655 0 0 .027-.149.093-.401a2.62 2.62 0 00-.203 1.322c.061.538.299 1.068.716 1.413.289.24.648.381 1.011.474 1.669.428 3.49-.121 4.845-1.185 1.355-1.064 2.284-2.59 2.913-4.194.612-1.566.965-3.265.772-4.936zM264.004 332.726c-.769.612-2.513 1.509-5.119.008-3.268-1.882-2.228-4.484-2.006-7.557-2.332-1.581-5.388.309-8.448-6.353-.116 3.26 1.678 5.817 2.777 7.931 1.466 2.821.334 2.257 2.633 4.454 1.16 1.109 2.495 2.016 3.822 2.918 1.149.78 2.382 1.59 3.771 1.626 1.388.037 2.897-1.067 2.74-2.447a1.957 1.957 0 00-.17-.58zM290.201 322.283c-.475-.542-1.276-.634-1.996-.616-.395.01-.789.051-1.18.106.259.185.455.422.579.697.546 1.201-.874 4.15-2.184 4.805-1.227.613-4.179 1.993-7.867 1.628l-2.749 3.568c2.035.35 4.104.627 6.161.444 2.057-.182 4.12-.858 5.674-2.218 1.625-1.423 2.561-3.454 3.438-5.428.428-.965.82-2.192.124-2.986z" fill="#a63417"/></g></svg>