<?xml version="1.0" encoding="UTF-8" standalone="no"?>
<!-- Generator: Adobe Illustrator 22.0.0, SVG Export Plug-In . SVG Version: 6.00 Build 0)  -->

<svg
   xmlns:dc="http://purl.org/dc/elements/1.1/"
   xmlns:cc="http://creativecommons.org/ns#"
   xmlns:rdf="http://www.w3.org/1999/02/22-rdf-syntax-ns#"
   xmlns:svg="http://www.w3.org/2000/svg"
   xmlns="http://www.w3.org/2000/svg"
   xmlns:xlink="http://www.w3.org/1999/xlink"
   xmlns:sodipodi="http://sodipodi.sourceforge.net/DTD/sodipodi-0.dtd"
   xmlns:inkscape="http://www.inkscape.org/namespaces/inkscape"
   version="1.1"
   id="_x3C_Capa_x3E_"
   x="0px"
   y="0px"
   viewBox="0 0 511.70248 343.912"
   xml:space="preserve"
   sodipodi:docname="consolegame.svg"
   width="511.70248"
   height="343.91199"
   inkscape:version="0.92.4 5da689c313, 2019-01-14"><metadata
   id="metadata357"><rdf:RDF><cc:Work
       rdf:about=""><dc:format>image/svg+xml</dc:format><dc:type
         rdf:resource="http://purl.org/dc/dcmitype/StillImage" /></cc:Work></rdf:RDF></metadata><defs
   id="defs355" /><sodipodi:namedview
   pagecolor="#ffffff"
   bordercolor="#666666"
   borderopacity="1"
   objecttolerance="10"
   gridtolerance="10"
   guidetolerance="10"
   inkscape:pageopacity="0"
   inkscape:pageshadow="2"
   inkscape:window-width="640"
   inkscape:window-height="480"
   id="namedview353"
   showgrid="false"
   inkscape:zoom="0.52960408"
   inkscape:cx="255.85112"
   inkscape:cy="171.95601"
   inkscape:window-x="0"
   inkscape:window-y="0"
   inkscape:window-maximized="0"
   inkscape:current-layer="_x3C_Capa_x3E_" />
<g
   id="g190"
   transform="translate(-3.7696628e-4)">
	<polygon
   style="fill:#ec8b32"
   points="258.254,124.738 250.797,130.225 250.797,169.766 258.254,164.14 "
   id="polygon2" />
	<polygon
   style="fill:#ec8b32"
   points="502.975,183.985 502.975,144.397 495.518,138.789 495.518,178.36 "
   id="polygon4" />
	<polygon
   style="fill:#ec8b32"
   points="291.266,100.451 291.266,139.235 298.722,133.61 298.722,94.965 "
   id="polygon6" />
	<polygon
   style="fill:#ec8b32"
   points="202.218,135.7 202.218,98.568 194.761,93.052 194.761,129.784 "
   id="polygon8" />
	<polygon
   style="fill:#ec8b32"
   points="12.892,124.896 12.892,163.215 20.348,157.57 20.348,119.628 "
   id="polygon10" />
	<polygon
   style="fill:#ec8b32"
   points="51.599,97.55 51.599,133.913 59.056,128.267 59.056,92.283 "
   id="polygon12" />
	<polygon
   style="fill:#ec8b32"
   points="237.692,163.839 245.15,169.755 245.15,130.318 237.692,124.803 "
   id="polygon14" />
	<path
   style="fill:#d37112"
   d="m 511.622,300.247 0.014,-0.238 c 0,-0.282 -0.058,-0.549 -0.165,-0.794 l -6.578,-30.01 V 15.134 L 509.074,2.592 C 509.276,1.993 509.175,1.333 508.803,0.819 508.431,0.304 507.836,0 507.205,0 h -52.671 c -0.822,0 -1.56,0.511 -1.844,1.281 L 426.511,19.718 419.323,1.256 C 419.031,0.5 418.301,0 417.49,0 h -56.022 c -0.508,0 -0.985,0.196 -1.344,0.531 l -7.498,4.288 -4.097,-4.242 C 348.16,0.208 347.661,0 347.137,0 h -79.111 c -0.558,0 -1.089,0.239 -1.461,0.65 l -18.211,18.591 h -0.44 L 228.475,0.607 C 228.104,0.219 227.59,0 227.054,0 h -79.111 c -0.559,0 -1.088,0.239 -1.461,0.65 l -16.515,18.311 -3.741,-2.37 c -0.117,-0.119 -0.247,-0.224 -0.395,-0.315 L 99.423,0.285 C 99.116,0.1 98.764,0 98.403,0 H 1.969 C 1.214,0 0.527,0.431 0.2,1.108 -0.13,1.786 -0.046,2.589 0.416,3.183 l 10.453,13.374 v 254.75 l -7.73,18.541 -0.058,0.09 c -0.203,0.318 -0.297,0.679 -0.295,1.038 -0.036,0.639 0.264,1.266 0.799,1.678 0.113,0.084 0.231,0.156 0.356,0.215 l 14.93,11.468 c 0.715,0.551 1.717,0.547 2.425,-0.019 l 120.978,-96.146 45.334,36.206 c 0.667,0.535 1.604,0.573 2.316,0.104 l 57.976,-38.396 50.726,38.325 c 0.693,0.523 1.65,0.53 2.347,0.021 l 50.709,-36.985 47.595,35.028 c 0.734,0.542 1.752,0.506 2.445,-0.088 l 12.213,-10.441 7.518,14.719 c 0.261,0.509 0.729,0.881 1.282,1.017 0.555,0.133 1.143,0.024 1.608,-0.307 l 19.011,-13.456 v 27.17 l -5.507,7.949 c -0.603,0.871 -0.409,2.062 0.438,2.697 l 23.403,17.554 31.587,24.08 c 0.352,0.27 0.771,0.402 1.193,0.402 0.404,0 0.807,-0.121 1.149,-0.37 l 15.265,-10.993 c 0.692,-0.499 0.974,-1.371 0.74,-2.161 z"
   id="path16"
   inkscape:connector-curvature="0" />
	<path
   style="fill:#cf5517"
   d="m 21.17,304.447 120.978,-96.146 45.335,36.206 c 0.667,0.535 1.604,0.573 2.316,0.104 l 57.976,-38.396 50.727,38.325 c 0.692,0.525 1.649,0.531 2.346,0.021 l 50.71,-36.985 47.594,35.028 c 0.734,0.542 1.753,0.507 2.445,-0.088 l 8.62,-7.394 -53.438,-39.17 -57.33,41.128 -51.673,-40.925 -58.996,41.683 -51.985,-40.474 -126.587,100.249 c -0.708,0.563 8.538,6.853 8.538,6.853 l 2.331,0.045 z"
   id="path18"
   inkscape:connector-curvature="0" />
	<path
   style="fill:#cf5517"
   d="m 504.722,306.844 -61.369,-46.527 v 0.771 l -5.631,8.08 c -0.603,0.871 -0.41,2.062 0.438,2.696 0,0 54.012,40.685 55.115,41.504 0.66,0.492 1.465,0.872 3.156,-0.523 z"
   id="path20"
   inkscape:connector-curvature="0" />
	<polygon
   style="fill:#b26216"
   points="375.957,39.748 417.377,39.748 437.333,95.986 459.239,39.748 501.1,39.748 501.1,211 376.664,115.161 377.63,110.363 376.197,55.394 "
   id="polygon22" />
	<polygon
   style="fill:#b26216"
   points="175.304,47.273 174.134,146.807 135.282,117.047 135.34,112.901 135.34,57.508 150.985,39.748 225.829,39.748 242.32,57.508 242.743,182.47 232.818,189.022 200.723,167.172 196.468,48.26 "
   id="polygon24" />
	<polygon
   style="fill:#b26216"
   points="317.192,46.947 319.88,146.807 361.012,117.047 360.953,112.901 360.953,57.508 345.306,39.748 270.464,39.748 253.973,57.508 253.55,182.47 261.833,190.139 295.57,167.172 296.027,47.935 "
   id="polygon26" />
	<polygon
   style="fill:#b26216"
   points="78.573,47.143 57.226,47.566 55.012,162.017 16.521,191.63 18.636,49.897 17.085,39.978 98.553,39.748 122.232,54.548 123.5,102.329 124.347,108.672 81.816,141.394 "
   id="polygon28" />
	<polygon
   style="fill:#8f5014"
   points="376.818,15.769 417.377,15.769 437.333,72.007 459.239,15.769 501.1,15.769 501.1,187.021 376.664,91.181 377.63,86.384 376.197,31.414 "
   id="polygon30" />
	<polygon
   style="fill:#8f5014"
   points="197.038,47.311 175.873,46.323 174.134,122.827 135.282,93.068 135.34,88.921 135.34,33.528 150.985,15.769 225.829,15.769 242.32,33.528 242.743,171.798 243.588,176.026 200.723,143.193 "
   id="polygon32" />
	<polygon
   style="fill:#8f5014"
   points="295.077,46.172 316.243,45.184 319.88,122.827 361.012,93.068 360.953,88.921 360.953,33.528 345.306,15.769 270.464,15.769 253.973,33.528 253.55,171.798 252.705,176.026 295.57,143.193 "
   id="polygon34" />
	<polygon
   style="fill:#8f5014"
   points="77.812,44.552 56.466,44.975 55.012,138.038 16.521,167.651 18.636,25.917 19.473,15.621 98.553,15.769 122.232,30.568 123.5,78.35 124.347,84.693 81.816,117.414 "
   id="polygon36" />
	<polygon
   style="fill:#306692"
   points="370.442,5.003 417.377,5.003 437.333,61.241 459.239,5.003 501.1,5.003 501.1,176.255 376.664,80.415 377.63,75.618 376.197,20.648 "
   id="polygon38" />
	<polygon
   style="fill:#306692"
   points="198.368,48.698 177.203,47.711 174.134,112.062 135.282,82.302 135.34,78.155 135.34,22.762 150.985,5.003 225.829,5.003 242.32,22.762 242.743,161.032 243.588,165.261 200.723,132.427 "
   id="polygon40" />
	<polygon
   style="fill:#306692"
   points="297.925,48.698 319.09,47.711 319.88,112.062 361.012,82.302 360.953,78.155 360.953,22.762 345.306,5.003 270.464,5.003 253.973,22.762 253.55,161.032 252.705,165.261 295.57,132.427 "
   id="polygon42" />
	<polygon
   style="fill:#306692"
   points="78.382,47.459 57.036,47.881 55.012,127.272 16.521,156.885 18.636,15.151 10.602,5.003 98.553,5.003 122.232,19.802 123.5,67.584 124.347,73.926 81.816,106.648 "
   id="polygon44" />
	<g
   id="g54">
		<defs
   id="defs47">
			<polygon
   id="SVGID_1_"
   points="246.13,149.932 367.296,56.615 499.842,154.618 501.18,176.039 15.848,168.006 14.509,137.882 126.973,54.204 " />
		</defs>
		<clipPath
   id="SVGID_2_">
			<use
   xlink:href="#SVGID_1_"
   style="overflow:visible"
   id="use49"
   x="0"
   y="0"
   width="100%"
   height="100%" />
		</clipPath>
		<polygon
   style="fill:#3d80b8"
   points="370.442,5.003 417.377,5.003 437.333,61.241 459.239,5.003 501.1,5.003 501.1,176.255 376.664,80.415 377.63,75.618 376.197,20.648 "
   clip-path="url(#SVGID_2_)"
   id="polygon52" />
	</g>
	<g
   id="g64">
		<defs
   id="defs57">
			<polygon
   id="SVGID_3_"
   points="246.13,149.932 367.296,56.615 499.842,154.618 501.18,176.039 15.848,168.006 14.509,137.882 126.973,54.204 " />
		</defs>
		<clipPath
   id="SVGID_4_">
			<use
   xlink:href="#SVGID_3_"
   style="overflow:visible"
   id="use59"
   x="0"
   y="0"
   width="100%"
   height="100%" />
		</clipPath>
		<polygon
   style="fill:#3d80b8"
   points="198.368,48.698 177.203,47.711 174.134,112.062 135.282,82.302 135.34,78.155 135.34,22.762 150.985,5.003 225.829,5.003 242.32,22.762 242.743,161.032 243.588,165.261 200.723,132.427 "
   clip-path="url(#SVGID_4_)"
   id="polygon62" />
	</g>
	<g
   id="g74">
		<defs
   id="defs67">
			<polygon
   id="SVGID_5_"
   points="246.13,149.932 367.296,56.615 499.842,154.618 501.18,176.039 15.848,168.006 14.509,137.882 126.973,54.204 " />
		</defs>
		<clipPath
   id="SVGID_6_">
			<use
   xlink:href="#SVGID_5_"
   style="overflow:visible"
   id="use69"
   x="0"
   y="0"
   width="100%"
   height="100%" />
		</clipPath>
		<polygon
   style="fill:#3d80b8"
   points="297.925,48.698 319.09,47.711 319.88,112.062 361.012,82.302 360.953,78.155 360.953,22.762 345.306,5.003 270.464,5.003 253.973,22.762 253.55,161.032 252.705,165.261 295.57,132.427 "
   clip-path="url(#SVGID_6_)"
   id="polygon72" />
	</g>
	<g
   id="g84">
		<defs
   id="defs77">
			<polygon
   id="SVGID_7_"
   points="246.13,149.932 367.296,56.615 499.842,154.618 501.18,176.039 15.848,168.006 14.509,137.882 126.973,54.204 " />
		</defs>
		<clipPath
   id="SVGID_8_">
			<use
   xlink:href="#SVGID_7_"
   style="overflow:visible"
   id="use79"
   x="0"
   y="0"
   width="100%"
   height="100%" />
		</clipPath>
		<polygon
   style="fill:#3d80b8"
   points="78.382,47.459 57.036,47.881 55.012,127.272 16.521,156.885 18.636,15.151 10.602,5.003 98.553,5.003 122.232,19.802 123.5,67.584 124.347,73.926 81.816,106.648 "
   clip-path="url(#SVGID_8_)"
   id="polygon82" />
	</g>
	<g
   id="g94">
		<defs
   id="defs87">
			<polygon
   id="SVGID_9_"
   points="246.13,125.986 367.296,33.606 499.842,130.672 501.18,171.473 15.848,163.44 14.509,113.937 126.973,30.258 " />
		</defs>
		<clipPath
   id="SVGID_10_">
			<use
   xlink:href="#SVGID_9_"
   style="overflow:visible"
   id="use89"
   x="0"
   y="0"
   width="100%"
   height="100%" />
		</clipPath>
		<polygon
   style="fill:#33709f"
   points="437.333,44.617 501.1,85.18 501.1,159.63 376.664,63.791 377.63,58.993 376.197,4.024 "
   clip-path="url(#SVGID_10_)"
   id="polygon92" />
	</g>
	<g
   id="g104">
		<defs
   id="defs97">
			<polygon
   id="SVGID_11_"
   points="246.13,125.986 367.296,33.606 499.842,130.672 501.18,171.473 15.848,163.44 14.509,113.937 126.973,30.258 " />
		</defs>
		<clipPath
   id="SVGID_12_">
			<use
   xlink:href="#SVGID_11_"
   style="overflow:visible"
   id="use99"
   x="0"
   y="0"
   width="100%"
   height="100%" />
		</clipPath>
		<polygon
   style="fill:#33709f"
   points="198.368,32.074 177.203,31.086 174.134,95.437 135.282,65.677 135.34,61.53 135.34,25.838 242.38,25.836 242.743,144.408 243.588,148.636 200.723,115.803 "
   clip-path="url(#SVGID_12_)"
   id="polygon102" />
	</g>
	<g
   id="g114">
		<defs
   id="defs107">
			<polygon
   id="SVGID_13_"
   points="246.13,125.986 367.296,33.606 499.842,130.672 501.18,171.473 15.848,163.44 14.509,113.937 126.973,30.258 " />
		</defs>
		<clipPath
   id="SVGID_14_">
			<use
   xlink:href="#SVGID_13_"
   style="overflow:visible"
   id="use109"
   x="0"
   y="0"
   width="100%"
   height="100%" />
		</clipPath>
		<polygon
   style="fill:#33709f"
   points="297.925,32.074 319.09,31.086 319.88,95.437 361.012,65.677 360.953,61.53 360.953,24.354 253.911,26.334 253.55,144.408 252.705,148.636 295.57,115.803 "
   clip-path="url(#SVGID_14_)"
   id="polygon112" />
	</g>
	<g
   id="g124">
		<defs
   id="defs117">
			<polygon
   id="SVGID_15_"
   points="246.13,125.986 367.296,33.606 499.842,130.672 501.18,171.473 15.848,163.44 14.509,113.937 126.973,30.258 " />
		</defs>
		<clipPath
   id="SVGID_16_">
			<use
   xlink:href="#SVGID_15_"
   style="overflow:visible"
   id="use119"
   x="0"
   y="0"
   width="100%"
   height="100%" />
		</clipPath>
		<polygon
   style="fill:#33709f"
   points="78.382,30.834 57.036,31.257 55.012,110.647 16.521,140.26 18.294,21.39 122.794,24.345 123.5,50.96 124.347,57.302 81.816,90.024 "
   clip-path="url(#SVGID_16_)"
   id="polygon122" />
	</g>
	<path
   style="fill:#f7c657"
   d="M 82.633,43.496 H 51.599 V 190.218 L 82.634,166.439 V 43.496 Z M 59.056,175.239 V 50.953 h 16.121 v 112.126 z"
   id="path126"
   inkscape:connector-curvature="0" />
	<path
   style="fill:#f7c657"
   d="M 2.021,1.969 12.891,15.88 V 271.701 L 4.796,291.117 124.863,194.916 V 17.961 L 98.458,1.969 Z M 96.3,9.426 117.407,22.289 V 191.618 L 20.348,269.403 V 13.119 L 17.476,9.426 Z"
   id="path128"
   inkscape:connector-curvature="0" />
	<path
   style="fill:#f7c657"
   d="m 147.996,1.969 -17.281,19.16 v 166.396 l 52.587,42.003 61.849,-45.113 V 20.803 L 227.107,1.969 Z m 76.069,7.457 13.627,14.417 v 156.464 l -54.29,40.04 -45.231,-36.121 V 24.042 L 151.162,9.426 Z"
   id="path130"
   inkscape:connector-curvature="0" />
	<path
   style="fill:#f7c657"
   d="m 202.218,43.848 h -31.035 v 115.133 l 31.035,26.603 z M 178.641,155.753 V 51.305 h 16.12 v 118.022 z"
   id="path132"
   inkscape:connector-curvature="0" />
	<path
   style="fill:#f7c657"
   d="m 322.302,43.848 h -31.035 v 141.736 l 31.035,-26.603 z m -23.58,125.479 V 51.305 h 16.12 v 104.448 z"
   id="path134"
   inkscape:connector-curvature="0" />
	<path
   style="fill:#f7c657"
   d="m 268.079,1.969 -17.281,19.16 v 163.639 l 52.587,44.761 61.851,-45.113 V 20.016 L 347.191,1.969 Z m 76.069,7.457 13.629,13.629 v 157.25 l -54.29,40.04 -45.232,-38.878 V 24.042 l 12.99,-14.616 z"
   id="path136"
   inkscape:connector-curvature="0" />
	<path
   style="fill:#f7c657"
   d="M 502.975,269.418 V 14.814 L 507.258,1.969 H 454.586 L 436.558,50.821 417.543,1.969 h -56.021 l 9.773,14.875 v 172.308 l -4.764,3.808 47.766,35.925 v -79.771 l 22.43,87.507 22.195,-68.631 v 78.858 l -7.064,10.201 26.867,20.15 30.955,22.811 z M 466.38,249.49 V 125.966 L 437.552,212.556 406.84,88.537 v 125.435 l -28.462,-21.272 0.374,-0.374 V 15.002 L 375.36,9.427 h 37.026 L 436.65,71.77 459.792,9.427 h 37.074 l -1.349,4.049 v 256.861 l 2.717,11.832 -15.048,-10.943 -21,-15.748 z"
   id="path138"
   inkscape:connector-curvature="0" />
	<polygon
   style="fill:#8f5014"
   points="78.382,47.459 55.15,48.009 78.803,68.705 "
   id="polygon140" />
	<polygon
   style="fill:#8f5014"
   points="197.827,47.459 174.595,48.009 198.248,68.705 "
   id="polygon142" />
	<polygon
   style="fill:#8f5014"
   points="295.486,47.459 318.717,48.009 295.065,68.705 "
   id="polygon144" />
	<polygon
   style="fill:#cf5517"
   points="357.576,22.854 357.777,23.055 357.777,55.474 365.234,50.205 365.234,20.045 "
   id="polygon146" />
	<polygon
   style="fill:#cf5517"
   points="371.295,49.314 378.752,55.013 378.752,15.002 375.361,9.426 375.427,9.426 361.566,2.038 371.295,16.845 "
   id="polygon148" />
	<polygon
   style="fill:#cf5517"
   points="495.518,144.252 502.975,149.951 502.975,14.814 507.259,1.969 507.206,1.969 496.573,9.426 496.866,9.426 495.518,13.475 "
   id="polygon150" />
	<polygon
   style="fill:#cf5517"
   points="250.798,21.129 250.797,21.13 250.797,131.07 258.254,125.8 258.254,24.149 "
   id="polygon152" />
	<polygon
   style="fill:#cf5517"
   points="298.722,97.204 298.722,51.305 314.843,51.305 314.843,85.812 322.301,80.542 322.301,43.848 291.266,43.848 291.266,102.473 "
   id="polygon154" />
	<polygon
   style="fill:#cf5517"
   points="130.744,21.098 130.714,21.13 130.714,49.258 138.172,54.664 138.172,24.069 "
   id="polygon156" />
	<polygon
   style="fill:#cf5517"
   points="117.407,53.574 124.863,48.454 124.863,17.961 117.407,22.289 "
   id="polygon158" />
	<polygon
   style="fill:#cf5517"
   points="59.056,93.649 59.056,50.953 75.176,50.953 75.176,82.577 82.633,77.456 82.633,43.496 51.599,43.496 51.599,98.77 "
   id="polygon160" />
	<polygon
   style="fill:#cf5517"
   points="237.692,126.802 245.15,132.208 245.15,20.749 237.692,23.843 "
   id="polygon162" />
	<polygon
   style="fill:#cf5517"
   points="178.641,83.998 178.641,51.305 194.761,51.305 194.761,95.682 202.218,101.088 202.218,43.848 171.184,43.848 171.184,78.592 "
   id="polygon164" />
	<polygon
   style="fill:#cf5517"
   points="17.479,9.429 2.076,1.969 2.021,1.969 12.892,15.88 12.892,125.354 20.348,120.233 20.348,13.119 "
   id="polygon166" />
	<polygon
   style="fill:#ec8b32"
   points="357.777,89.06 365.234,83.435 365.234,46.033 357.777,51.519 "
   id="polygon168" />
	<polygon
   style="fill:#ec8b32"
   points="371.295,84.659 378.752,90.284 378.752,50.975 371.295,45.367 "
   id="polygon170" />
	<polygon
   style="fill:#ec8b32"
   points="171.184,75.616 171.184,111.083 178.641,116.998 178.641,81.13 "
   id="polygon172" />
	<polygon
   style="fill:#ec8b32"
   points="322.301,115.822 322.301,77.618 314.843,83.105 314.843,121.449 "
   id="polygon174" />
	<polygon
   style="fill:#ec8b32"
   points="138.172,51.202 130.714,45.687 130.714,78.983 138.172,84.898 "
   id="polygon176" />
	<polygon
   style="fill:#ec8b32"
   points="117.407,84.094 124.863,78.449 124.863,45.793 117.407,51.06 "
   id="polygon178" />
	<polygon
   style="fill:#ec8b32"
   points="82.633,110.419 82.633,75.626 75.176,80.894 75.176,116.064 "
   id="polygon180" />
	<polygon
   style="fill:#5a9bd2"
   points="347.191,1.969 268.079,1.969 250.797,21.13 258.254,24.042 271.245,9.426 344.148,9.426 357.777,23.055 357.777,23.21 365.234,20.314 365.234,20.015 "
   id="polygon182" />
	<polygon
   style="fill:#5a9bd2"
   points="96.3,9.426 117.407,22.289 117.407,22.318 124.863,17.961 98.458,1.969 2.021,1.969 17.477,9.426 "
   id="polygon184" />
	<polygon
   style="fill:#5a9bd2"
   points="361.521,1.969 375.361,9.426 412.387,9.426 436.651,71.77 459.792,9.426 496.866,9.426 507.259,1.969 454.587,1.969 436.558,50.821 417.543,1.969 "
   id="polygon186" />
	<polygon
   style="fill:#5a9bd2"
   points="138.172,24.042 151.163,9.426 224.065,9.426 237.692,23.843 245.15,20.803 227.107,1.969 147.996,1.969 130.714,21.13 "
   id="polygon188" />
</g>
<path
   d="m 262.13762,343.912 c -0.389,0 -0.813,-0.008 -1.273,-0.024 -4.424,-0.159 -6.192,-1.978 -7.319,-3.761 -1.803,-1.133 -4.195,-3.168 -6.251,-5.646 -0.926,1.976 -2.35,3.864 -4.103,5.385 -2.577,2.232 -3.613,2.704 -6.085,3.271 l -0.243,0.057 c -0.949,0.219 -1.891,0.414 -3.01,0.414 -1.36,0 -2.648,-0.282 -4.458,-0.714 -2.253,-0.535 -3.905,-1.661 -5.065,-2.793 -1.588,0.23 -3.701,0.441 -6.11,0.441 -3.682,0 -5.155,-0.256 -7.198,-1.857 -0.301,-0.235 -0.561,-0.439 -1.115,-0.744 -1.168,-0.644 -2.419,-1.069 -3.743,-1.522 -1.458,-0.498 -2.966,-1.014 -4.447,-1.847 -1.972,-1.109 -8.667,-5.021 -12.065,-8.777 -1.001,-1.104 -1.748,-2.21 -2.306,-3.248 -1.579,0.328 -2.945,0.485 -4.342,0.553 -2.91,4.028 -6.551,7.803 -11.541,8.683 l -5.091,0.897 -0.252,-5.164 c -0.007,-0.132 -0.052,-1.183 0.04,-2.995 -0.09,-0.197 -0.188,-0.408 -0.268,-0.579 -0.846,-1.818 -1.312,-2.82 -1.213,-4.205 0.141,-1.956 0.32,-4.019 0.526,-6.053 -0.824,-1.225 -1.442,-2.532 -1.936,-3.792 -0.519,0.024 -1.03,0.037 -1.531,0.037 -11.289,0 -16.709,-6.29 -20.171,-11.771 -1.522,-2.409 -3.176,-7.329 1.669,-14.248 -0.082,-1.096 -0.014,-2.246 0.204,-3.444 l 0.044,-0.243 c 0.457,-2.506 0.457,-2.506 -0.898,-4.707 -2.157,-3.506 -2.883,-7.533 -3.586,-11.43 -0.233,-1.295 -0.475,-2.635 -0.767,-3.947 -0.583,-2.62 -1.507,-4.041 -2.579,-5.685 -0.668,-1.026 -1.426,-2.188 -2.072,-3.611 -1.497,-3.292 -1.192,-8.179 -0.898,-12.901 0.102,-1.639 0.198,-3.184 0.198,-4.416 0,-5.567 2.031,-13.556 2.813,-16.162 0.339,-1.131 0.821,-2.252 1.331,-3.438 0.969,-2.256 1.971,-4.588 1.971,-6.897 0,-0.973 -0.043,-1.605 -0.081,-2.165 -0.191,-2.827 0.024,-3.813 2.098,-9.571 2.174,-6.04 4.479,-9.042 6.709,-11.944 0.736,-0.958 1.497,-1.948 2.269,-3.07 1.078,-1.568 1.948,-2.626 2.724,-3.426 -1.396,-1.185 -2.842,-2.436 -4.329,-3.723 -17.905,-15.495 -16.581,-19.049 -15.869,-20.958 0.93,-2.497 3.709,-3.778 6.503,-2.763 2.428,0.884 19.401,8.228 25.395,10.903 1.542,-1.077 3.488,-1.683 5.558,-2.21 -12.065,-15.383 -18.68,-33.477 -19.942,-45.679 -0.686,-6.628 0.941,-8.432 1.553,-9.111 0.945,-1.048 2.284,-1.649 3.671,-1.649 4.078,0 5.669,4.4 6.718,7.346 5.328,13.904 15.991,23.351 27.091,30.62 -0.686,-8.603 0.665,-18.442 3.108,-24.604 2.394,-6.036 7.77,-12.551 12.28,-12.551 1.741,0 3.315,0.865 4.211,2.315 0.569,0.92 1.324,2.864 -0.013,5.537 -1.044,2.09 -3.556,9.896 -1.464,18.077 0.685,2.676 2.77,6.11 5.934,9.803 0.349,-0.01 0.705,-0.014 1.071,-0.014 1.961,0 3.866,0.143 5.547,0.27 1.378,0.104 2.68,0.201 3.755,0.201 1.349,0 1.803,-0.161 1.88,-0.193 0.606,-0.252 1.625,-0.775 2.805,-1.38 4.77,-2.447 12.754,-6.542 20.206,-6.542 7.453,0 15.437,4.095 20.206,6.542 1.181,0.605 2.198,1.128 2.806,1.38 0.076,0.032 0.527,0.192 1.868,0.192 1.076,0 2.382,-0.099 3.761,-0.203 1.686,-0.128 3.597,-0.272 5.563,-0.272 0.197,0 0.392,10e-4 0.582,0.004 3.156,-3.686 5.237,-7.115 5.921,-9.787 2.093,-8.181 -0.419,-15.987 -1.464,-18.076 -1.336,-2.673 -0.582,-4.617 -0.013,-5.537 0.896,-1.449 2.47,-2.315 4.211,-2.315 4.51,0 9.886,6.515 12.279,12.55 2.413,6.088 3.774,15.985 3.096,24.618 11.073,-7.24 21.755,-16.671 27.104,-30.633 1.049,-2.945 2.641,-7.346 6.719,-7.346 1.388,0 2.726,0.601 3.672,1.649 0.611,0.679 2.237,2.483 1.553,9.112 -1.258,12.161 -7.846,30.212 -19.861,45.575 2.138,0.532 4.162,1.118 5.774,2.182 6.233,-2.775 22.709,-9.901 25.098,-10.77 2.797,-1.016 5.573,0.265 6.504,2.762 0.712,1.91 2.036,5.464 -15.869,20.959 -1.395,1.206 -2.751,2.38 -4.062,3.497 0.833,0.822 1.766,1.929 2.949,3.65 0.771,1.123 1.531,2.112 2.269,3.071 2.229,2.901 4.534,5.904 6.709,11.943 2.073,5.761 2.289,6.744 2.099,9.572 -0.038,0.56 -0.081,1.191 -0.081,2.164 0,2.311 1.002,4.643 1.971,6.896 0.51,1.188 0.992,2.31 1.331,3.441 0.782,2.605 2.813,10.594 2.813,16.16 0,1.232 0.098,2.778 0.198,4.416 0.295,4.725 0.599,9.608 -0.896,12.901 -0.647,1.423 -1.404,2.585 -2.072,3.61 -1.071,1.645 -1.997,3.064 -2.579,5.686 -0.291,1.313 -0.533,2.65 -0.767,3.946 -0.703,3.896 -1.43,7.924 -3.586,11.43 -1.355,2.202 -1.355,2.202 -0.898,4.706 l 0.044,0.244 c 0.029,0.157 0.055,0.315 0.078,0.477 6.047,7.581 4.313,12.979 2.667,15.587 -3.461,5.479 -8.882,11.771 -20.169,11.771 h -10e-4 c -0.591,0 -1.194,-0.018 -1.812,-0.053 -0.228,0.677 -0.485,1.396 -0.789,2.126 0.642,6.713 1.178,15.163 1.2,15.541 l 0.365,5.781 -5.706,-1.006 c -4.503,-0.796 -8.57,-4.043 -11.585,-7.214 l -1.167,1.32 -2.105,0.024 c -0.922,0 -3.985,-0.517 -5.89,-0.963 -0.12,0.063 -0.254,0.143 -0.387,0.225 -0.863,1.251 -2.608,3.487 -5.229,5.484 -2.422,1.845 -4.33,2.379 -5.863,2.809 -0.958,0.268 -1.784,0.499 -2.948,1.104 -2.067,1.074 -3.02,1.955 -3.27,2.21 l -0.689,1.14 -1.089,0.263 c -0.974,0.436 -5.942,2.64 -8.181,3.278 -0.691,0.198 -1.476,0.294 -2.394,0.294 -1.93,0 -4.566,-0.458 -6.495,-0.855 -0.441,0.386 -0.949,0.808 -1.523,1.248 l -0.208,0.16 c -2.109,1.625 -3.808,2.694 -8.01,2.694 z m -15.448,-21.123 c 1.511,0 3.615,0.539 5.56,2.907 0.032,-0.278 0.062,-0.562 0.083,-0.85 0.015,-0.208 0.028,-0.418 0.028,-0.631 v -8.207 l 4.257,2.65 c -0.425,-0.916 -0.666,-1.681 -0.802,-2.257 -0.813,-2.096 -0.313,-3.662 0.292,-4.641 0.87,-1.405 2.387,-2.247 4.061,-2.247 3.2,0 6.095,3.415 6.642,4.1 0.705,0.882 3.503,2.882 5.478,3.305 2.698,0.579 4.585,1.665 5.645,3.242 0.599,-0.531 1.23,-1.023 1.895,-1.44 2.459,-1.549 4.866,-2.162 7.024,-1.808 0.355,-1.96 1.321,-6.493 5.855,-6.853 0.416,-0.031 0.793,-0.047 1.135,-0.047 3.513,0 5.161,1.615 5.927,2.971 1.667,2.95 -0.031,5.771 -0.672,6.835 l -0.048,0.079 c -1.325,2.21 -4.491,3.729 -6.796,3.868 -0.016,0.158 -0.034,0.318 -0.059,0.48 0.896,-0.336 1.663,-0.551 2.338,-0.739 1.211,-0.339 1.764,-0.493 2.797,-1.28 2.236,-1.704 3.479,-3.761 3.492,-3.781 l 0.438,-0.733 0.692,-0.554 c 1.014,-0.788 3.67,-2.623 6.423,-2.623 0.323,0 0.643,0.023 0.954,0.072 l -0.108,-0.88 5.342,0.189 c 0.944,0.033 1.938,0.021 3.092,0.008 0.521,-0.006 1.072,-0.012 1.667,-0.016 l 2.139,-0.012 1.376,1.637 c 0.663,0.79 1.337,1.521 2.007,2.185 -0.2,-2.575 -0.434,-5.345 -0.674,-7.735 l -0.13,-1.287 0.564,-1.164 c 0.536,-1.103 0.953,-2.419 1.321,-3.581 0.218,-0.686 0.423,-1.333 0.649,-1.938 0.093,-0.248 0.171,-0.5 0.249,-0.763 l 3.202,-10.788 1.658,3.181 c 1.682,-3.713 5.464,-8.397 11.917,-8.397 0.566,0 1.146,0.037 1.729,0.111 l -0.779,-0.889 -0.056,-1.629 c -0.012,-0.327 -0.036,-0.584 -0.082,-0.831 l -0.043,-0.241 c -0.693,-3.795 -0.938,-6.183 2.102,-11.118 1.256,-2.04 1.776,-4.928 2.379,-8.271 0.249,-1.384 0.509,-2.813 0.84,-4.307 0.939,-4.233 2.548,-6.7 3.839,-8.684 0.563,-0.864 1.05,-1.61 1.411,-2.406 0.554,-1.252 0.258,-6.009 0.099,-8.563 -0.111,-1.782 -0.216,-3.466 -0.216,-4.983 0,-3.716 -1.449,-10.276 -2.43,-13.541 -0.188,-0.634 -0.57,-1.521 -0.976,-2.462 -1.145,-2.663 -2.71,-6.311 -2.71,-10.496 0,-1.278 0.059,-2.146 0.102,-2.779 0.074,-1.104 0.084,-1.245 -1.58,-5.868 -1.692,-4.703 -3.312,-6.812 -5.36,-9.479 -0.809,-1.052 -1.644,-2.139 -2.551,-3.459 -1.446,-2.104 -2.037,-2.552 -2.785,-3.115 -0.771,-0.583 -1.724,-1.304 -2.973,-2.826 l -3.438,-3.438 3.988,-3.179 c 2.359,-1.882 5.033,-4.196 7.863,-6.646 0.31,-0.267 0.61,-0.53 0.907,-0.79 -4.108,1.788 -7.628,3.337 -8.795,3.885 -0.348,0.163 -0.696,0.333 -1.048,0.509 l -4.413,2.219 -1.811,-4.462 c -0.74,-0.312 -2.309,-0.692 -3.604,-1.006 -1.04,-0.252 -2.221,-0.539 -3.49,-0.891 -1.196,-0.333 -2.063,-0.589 -2.813,-0.833 l -6.748,-2.193 4.8,-5.225 c 8.158,-8.88 13.62,-18.57 17.107,-27.093 -8.119,9.561 -18.424,16.386 -28.152,21.995 l -3.216,1.854 -2.466,-2.774 c -0.217,-0.241 -0.435,-0.491 -0.653,-0.746 l -1.767,-2.049 0.952,-2.531 c 1.504,-3.999 1.819,-10.143 1.328,-15.954 -0.04,0.169 -0.081,0.337 -0.125,0.506 -1.18,4.613 -4.355,9.751 -9.439,15.272 l -1.518,1.647 -2.229,-0.194 c -0.666,-0.058 -1.368,-0.086 -2.146,-0.086 -1.623,0 -3.274,0.125 -4.875,0.247 -1.557,0.118 -3.026,0.229 -4.447,0.229 -2.205,0 -3.913,-0.284 -5.376,-0.893 -0.938,-0.392 -2.052,-0.961 -3.459,-1.684 -4.037,-2.071 -10.794,-5.537 -16.045,-5.537 -5.251,0 -12.008,3.466 -16.046,5.537 -1.408,0.722 -2.52,1.292 -3.458,1.684 -1.463,0.61 -3.175,0.894 -5.386,0.894 -1.418,0 -2.885,-0.11 -4.439,-0.227 -1.595,-0.121 -3.245,-0.244 -4.863,-0.244 -0.923,0 -1.747,0.04 -2.518,0.121 l -2.277,0.241 -1.552,-1.683 c -5.112,-5.541 -8.305,-10.697 -9.488,-15.324 -0.039,-0.153 -0.077,-0.305 -0.114,-0.458 -0.494,5.991 -0.139,12.307 1.43,16.196 l 1.05,2.603 -2.318,2.633 -2.464,2.749 -3.2,-1.839 c -9.86,-5.667 -20.299,-12.561 -28.496,-22.213 3.503,8.567 9.001,18.316 17.227,27.236 l 4.879,5.292 -6.871,2.147 c -0.671,0.21 -1.443,0.435 -2.384,0.696 -1.27,0.353 -2.45,0.639 -3.491,0.891 -1.296,0.314 -2.863,0.694 -3.604,1.006 l -0.049,0.12 -1.893,4.574 -4.402,-2.263 c -0.477,-0.245 -0.951,-0.479 -1.417,-0.697 -1.168,-0.548 -4.688,-2.098 -8.797,-3.886 0.296,0.26 0.598,0.523 0.906,0.79 2.937,2.542 5.711,4.941 8.149,6.871 l 3.66,2.896 -2.983,3.59 c -1.204,1.448 -2.133,2.153 -2.881,2.72 -0.751,0.569 -1.344,1.021 -2.793,3.128 -0.908,1.32 -1.743,2.407 -2.551,3.459 -2.05,2.669 -3.669,4.776 -5.362,9.479 -1.664,4.623 -1.654,4.765 -1.58,5.868 0.042,0.633 0.102,1.501 0.102,2.779 0,4.188 -1.567,7.834 -2.711,10.497 -0.404,0.94 -0.785,1.828 -0.975,2.46 -0.979,3.266 -2.428,9.826 -2.428,13.542 0,1.519 -0.105,3.2 -0.216,4.983 -0.159,2.555 -0.456,7.311 0.099,8.563 0.361,0.796 0.848,1.542 1.411,2.406 1.291,1.983 2.898,4.449 3.839,8.684 0.332,1.491 0.589,2.924 0.839,4.308 0.603,3.344 1.124,6.23 2.379,8.271 3.038,4.937 2.794,7.323 2.102,11.118 l -0.043,0.237 c -0.12,0.657 -0.122,1.21 -0.008,1.559 l 0.782,2.381 -0.86,1.048 c 0.596,-0.077 1.188,-0.116 1.766,-0.116 6.456,0 10.238,4.688 11.918,8.4 l 1.277,-2.445 3.61,11.119 c 0.539,1.702 1.276,4.034 2.329,5.133 l 1.472,1.538 -0.233,2.115 c -0.241,2.176 -0.453,4.435 -0.619,6.591 0.056,0.123 0.115,0.252 0.171,0.374 1.239,-1.421 2.265,-2.963 2.775,-3.729 l 1.36,-2.045 2.784,0.012 c 2.157,0 3.605,-0.111 6.003,-0.752 0.516,-0.137 1.01,-0.31 1.51,-0.527 l 5.932,-2.595 0.441,6.458 c 0.004,0.058 0.13,1.452 1.592,3.068 0.178,0.196 0.379,0.401 0.601,0.612 -1.04,-1.497 -1.426,-2.85 -1.649,-4.407 -0.348,-2.439 1.01,-4.757 3.55,-6.078 0.582,-0.319 1.513,-0.686 2.715,-0.686 1.446,0 4.171,0.556 6.186,4.273 0.709,1.312 1.082,2.613 1.216,3.831 2.032,-0.267 4.1,-0.066 5.914,0.538 l 5.33,-0.409 c 0.595,-0.046 1.673,-0.122 2.206,-0.122 l 0.282,0.003 c 0.121,0.003 0.284,0.006 0.472,0.006 0.39,0 0.67,-0.015 0.865,-0.029 0.231,-0.219 0.53,-0.514 0.79,-0.77 0.94,-0.926 2.228,-2.193 3.981,-3.635 2.369,-1.946 4.528,-2.892 6.6,-2.892 1.411,0 2.41,0.445 2.999,0.82 l 2.407,1.532 -0.327,2.835 c -0.257,2.236 -1.189,3.981 -2.189,5.349 0.106,-0.006 0.213,-0.008 0.321,-0.008 l 0.218,0.004 c 0.486,0.015 0.937,0.068 1.376,0.165 l 2.609,0.573 0.751,2.479 c 0.734,-0.407 1.752,-0.786 3.01,-0.786 z m 44.497,-3.659 c 0.605,1.068 7.141,-2.253 4.64,-4.078 -4.047,-2.953 -5.261,2.981 -4.64,4.078 z m -12.464,4.471 c -2.397,3.547 -2.65,7.564 -0.564,8.976 2.086,1.412 5.721,-0.32 8.119,-3.866 2.396,-3.546 2.65,-7.563 0.564,-8.975 -2.085,-1.412 -5.719,0.319 -8.119,3.865 z m -9.567,-6.932 c -4.643,-3.159 -9.555,-4.032 -10.971,-1.95 -1.417,2.082 1.197,6.33 5.841,9.489 4.643,3.159 9.554,4.032 10.971,1.95 1.417,-2.081 -1.199,-6.33 -5.841,-9.489 z m -15.012,8.47 c -1.194,1.767 0.294,4.857 3.324,6.905 3.028,2.049 6.452,2.278 7.646,0.514 1.192,-1.766 -0.294,-4.856 -3.323,-6.905 -3.029,-2.049 -6.454,-2.28 -7.647,-0.514 z m 84.227,-34.669 c -3.021,2.218 -4.469,5.38 -3.233,7.063 1.236,1.685 4.688,1.252 7.709,-0.965 3.021,-2.219 4.47,-5.381 3.233,-7.064 -1.237,-1.683 -4.689,-1.252 -7.709,0.966 z m -105.842,44.199 c 1.545,1.111 4.418,-0.24 6.418,-3.019 1.999,-2.779 2.367,-5.935 0.822,-7.045 -1.545,-1.111 -4.418,0.239 -6.417,3.02 -1.999,2.778 -2.368,5.933 -0.823,7.044 z m -28.156,-14.559 c 1.014,-0.586 0.966,-2.566 -0.106,-4.425 -1.072,-1.857 -2.764,-2.89 -3.778,-2.305 -1.014,0.586 -0.967,2.566 0.106,4.424 1.072,1.86 2.763,2.891 3.778,2.306 z m 14.72,8.796 c 1.008,-1.656 -0.661,-4.513 -3.728,-6.377 -3.067,-1.866 -6.37,-2.036 -7.377,-0.381 -1.008,1.655 0.661,4.512 3.728,6.378 3.067,1.866 6.369,2.037 7.377,0.38 z m -56.54,-30.133 c 0.909,-1.436 -0.775,-4.132 -3.761,-6.022 -2.986,-1.89 -6.143,-2.261 -7.052,-0.825 -0.909,1.436 0.775,4.131 3.761,6.021 2.986,1.891 6.144,2.26 7.052,0.826 z m 73.553,15.347 c -0.94,-0.94 -6.603,3.296 -10.192,6.885 -0.824,0.824 -5.324,-0.455 -5.375,0.574 -0.146,2.926 3.394,5.349 4.417,5.417 1.396,0.092 2.767,-1.086 6.355,-4.675 3.59,-3.588 5.736,-7.26 4.795,-8.201 z"
   id="path192"
   inkscape:connector-curvature="0" />
<g
   id="g350"
   transform="translate(-3.7696628e-4)">
	<path
   style="fill:#c1c0b9"
   d="m 217.044,148.414 c 0,0 -11.91,-9.92 -14.226,-18.974 -2.316,-9.054 0.118,-17.875 1.803,-21.244 1.685,-3.369 -4.922,0.24 -8.165,8.417 -3.083,7.775 -4.31,23.397 -0.89,31.591 4.782,11.452 23.794,11.791 21.478,0.21 z"
   id="path194"
   inkscape:connector-curvature="0" />
	<path
   style="fill:#79230f"
   d="m 313.193,313.333 c -0.873,-2.185 -10.774,-3.203 -12.376,-3.494 -1.602,-0.292 -10.337,2.185 -17.034,1.894 -6.698,-0.291 -16.6,-0.874 -22.714,-2.186 -6.115,-1.311 -13.251,-0.146 -20.966,0 -7.717,0.146 -13.687,0.583 -20.529,0.874 -6.843,0.291 -16.89,-1.456 -19.947,-0.146 -3.057,1.31 -7.28,2.766 -9.318,6.405 0,0 0,2.912 2.767,5.971 2.766,3.058 8.59,6.552 10.92,7.861 2.329,1.312 5.242,1.747 8.153,3.35 2.912,1.602 1.456,2.038 6.115,2.038 4.659,0 8.008,-0.873 8.008,-0.873 0,0 1.165,2.62 4.223,3.349 3.058,0.729 3.494,0.729 5.387,0.291 1.893,-0.437 2.184,-0.437 4.368,-2.329 2.184,-1.894 3.349,-4.223 3.64,-5.97 0.291,-1.747 1.747,-2.621 1.747,-2.621 0,0 1.602,-1.603 3.64,1.602 2.038,3.203 5.241,5.971 6.989,6.989 1.747,1.02 0.728,2.766 4.805,2.911 4.077,0.145 4.659,-0.437 6.552,-1.893 1.893,-1.456 2.912,-2.621 2.912,-2.621 0,0 6.988,1.748 9.026,1.165 2.038,-0.582 7.571,-3.059 7.571,-3.059 0,0 1.164,-1.602 4.805,-3.494 3.641,-1.893 5.097,-1.165 8.153,-3.493 3.059,-2.33 4.659,-5.098 4.659,-5.098 0,0 2.621,-2.038 4.077,-1.601 1.455,0.437 5.096,1.019 5.532,1.019 0.436,0.001 -0.291,-4.657 -1.165,-6.841 z m -109.018,6.734 c 0,0 -1.419,-0.219 -2.621,-1.528 -1.202,-1.311 -1.452,-2.079 -1.638,-3.386 -0.109,-0.765 1.201,-1.419 1.201,-1.419 0,0 1.31,-0.874 2.729,1.747 1.422,2.621 0.329,4.586 0.329,4.586 z m 8.955,8.736 c -2.293,-0.981 -3.385,-2.075 -4.368,-3.275 -0.983,-1.201 -0.328,-3.604 -0.328,-3.604 2.075,-0.655 5.788,-0.546 7.862,1.856 2.075,2.401 2.402,5.242 2.402,5.242 0,0 -3.275,0.763 -5.568,-0.219 z m 14.306,-3.385 c -0.765,0.873 -2.293,0.764 -2.949,0.546 -0.655,-0.219 -1.529,-0.546 -2.075,-1.201 -0.546,-0.654 -1.747,-2.948 -1.747,-2.948 0,0 1.419,-0.108 1.856,-0.108 0.437,0 2.73,0.108 3.713,-0.438 0.982,-0.546 2.511,-2.511 5.569,-5.021 3.058,-2.511 4.259,-1.747 4.259,-1.747 -0.328,2.839 -2.73,4.586 -3.822,6.114 -1.092,1.527 -4.04,3.929 -4.804,4.803 z m 12.23,3.166 c -0.218,1.747 -0.655,2.84 -1.092,3.167 -0.437,0.328 -1.638,2.621 -6.771,0.655 0,0 0.437,-2.402 2.075,-4.259 1.638,-1.856 3.495,-3.604 5.46,-3.167 0,10e-4 0.546,1.857 0.328,3.604 z m 19.219,4.15 c -3.604,-2.074 -1.966,-5.022 -1.966,-8.519 0,0 5.787,3.604 7.534,8.081 0.001,0.001 -1.964,2.513 -5.568,0.438 z m 12.448,-7.208 c -2.075,0 -3.494,-0.327 -7.207,-4.149 -3.713,-3.821 -3.932,-6.333 -3.932,-6.333 -1.093,-2.185 1.747,-0.219 3.058,1.419 1.312,1.639 5.023,4.259 8.081,4.914 3.058,0.655 3.058,1.639 3.058,2.402 -0.001,0.765 -0.982,1.747 -3.058,1.747 z m 14.087,1.749 c -1.311,0.653 -4.587,2.184 -8.627,1.527 0,0 2.512,-4.368 5.46,-6.225 2.948,-1.857 4.805,-1.312 5.352,-0.109 0.546,1.203 -0.874,4.151 -2.185,4.807 z m 9.718,-9.719 c -0.654,1.093 -4.259,2.62 -3.932,0.873 0.328,-1.747 0.541,-3.718 1.855,-3.821 4.152,-0.329 2.733,1.855 2.077,2.948 z"
   id="path196"
   inkscape:connector-curvature="0" />
	<path
   style="fill:#a63417"
   d="m 150.414,282.534 c 0,0 -8.445,7.571 -4.95,13.104 3.494,5.533 8.444,11.065 20.675,9.318 l 3.494,-6.697 c -0.001,0 -6.698,-14.852 -19.219,-15.725 z m 9.066,16.285 c -1.717,-0.155 -2.653,-0.469 -3.511,-1.093 -0.858,-0.624 -2.34,-1.717 -3.042,-3.043 -0.703,-1.325 -0.312,-3.121 -0.312,-3.121 7.646,-1.247 9.83,7.102 9.83,7.102 0,0 -1.247,0.312 -2.965,0.155 z"
   id="path198"
   inkscape:connector-curvature="0" />
	<path
   style="fill:#a63417"
   d="m 328.099,296.628 3.495,6.697 c 12.229,1.747 17.181,-3.785 20.675,-9.318 3.494,-5.533 -4.95,-13.104 -4.95,-13.104 -12.522,0.873 -19.22,15.725 -19.22,15.725 z m 7.189,0.404 c 0,0 2.185,-8.349 9.83,-7.101 0,0 0.391,1.795 -0.313,3.121 -0.702,1.326 -2.184,2.419 -3.042,3.043 -0.857,0.624 -1.795,0.937 -3.512,1.093 -1.715,0.157 -2.963,-0.156 -2.963,-0.156 z"
   id="path200"
   inkscape:connector-curvature="0" />
	<path
   style="fill:#c1c0b9"
   d="m 279.326,148.414 c 0,0 11.91,-9.92 14.227,-18.974 2.315,-9.054 -0.118,-17.875 -1.803,-21.244 -1.685,-3.369 4.922,0.24 8.165,8.417 3.083,7.775 4.31,23.397 0.889,31.591 -4.782,11.452 -23.795,11.791 -21.478,0.21 z"
   id="path202"
   inkscape:connector-curvature="0" />
	<path
   style="fill:#a63417"
   d="m 248.431,318.468 c 0,0 -4.077,-2.33 -6.406,-4.951 -2.33,-2.619 -5.533,-1.747 -7.28,-1.164 -1.748,0.582 -2.912,2.912 -6.989,6.406 -4.077,3.494 -5.241,2.038 -7.571,2.329 -2.33,0.292 -8.736,-0.291 -10.774,-1.164 -2.039,-0.874 -2.33,-3.786 -4.95,-6.115 -2.621,-2.329 -7.571,0 -8.736,0 -1.165,0 -3.203,2.62 -7.571,3.785 -4.368,1.165 -6.406,0.874 -11.357,0.874 -4.95,0 -3.786,-3.495 -6.406,-5.824 -2.62,-2.328 -3.495,-6.696 -4.368,-9.026 -0.874,-2.329 -1.165,-5.532 -3.786,-9.318 -2.621,-3.785 -8.736,-4.659 -11.356,-6.115 -2.62,-1.455 -3.495,-3.784 -2.912,-6.987 0.583,-3.203 0.874,-4.368 -1.456,-8.153 -2.33,-3.786 -2.621,-8.736 -3.786,-13.978 -1.165,-5.242 -3.494,-6.989 -4.95,-10.192 -1.456,-3.203 -0.291,-10.774 -0.291,-15.434 0,-4.66 1.747,-11.939 2.621,-14.852 0.874,-2.913 3.494,-6.989 3.494,-11.647 0,-4.659 -0.874,-2.912 1.748,-10.191 2.621,-7.28 5.241,-9.318 8.445,-13.978 3.203,-4.659 3.785,-3.495 6.115,-6.406 2.33,-2.912 5.242,-8.736 6.115,-11.066 0.873,-2.33 4.659,-2.621 9.901,-4.077 5.242,-1.456 5.242,-1.748 9.609,-4.659 4.368,-2.912 7.28,-5.242 11.357,-10.192 4.077,-4.951 7.28,-2.621 13.686,-3.495 6.407,-0.874 13.104,1.165 16.599,-0.291 3.494,-1.456 13.104,-7.571 21.257,-7.571 8.153,0 17.763,6.115 21.258,7.571 3.493,1.456 10.19,-0.583 16.598,0.291 6.406,0.874 9.609,-1.456 13.687,3.495 4.077,4.95 6.989,7.28 11.356,10.192 4.368,2.912 4.368,3.203 9.609,4.659 5.241,1.456 9.026,1.747 9.9,4.077 0.873,2.33 3.785,8.154 6.115,11.066 2.329,2.911 2.912,1.747 6.115,6.406 3.203,4.658 5.822,6.696 8.443,13.978 2.621,7.279 1.747,5.532 1.747,10.191 0,4.658 2.621,8.735 3.494,11.647 0.874,2.911 2.621,10.191 2.621,14.852 0,4.659 1.165,12.229 -0.291,15.434 -1.456,3.205 -3.785,4.95 -4.95,10.192 -1.165,5.24 -1.456,10.19 -3.786,13.978 -2.328,3.785 -2.037,4.95 -1.456,8.153 0.584,3.203 -0.29,5.532 -2.91,6.987 -2.621,1.456 -8.736,2.33 -11.357,6.115 -2.62,3.786 -2.912,6.989 -3.785,9.318 -0.874,2.33 -1.747,6.698 -4.368,9.027 -2.621,2.328 -1.456,5.823 -6.405,5.823 -4.95,0 -6.989,0.291 -11.356,-0.874 -4.368,-1.165 -6.406,-3.785 -7.571,-3.785 -1.165,0 -6.114,-2.329 -8.735,0 -2.621,2.329 -2.912,5.241 -4.95,6.115 -2.038,0.873 -8.444,1.456 -10.774,1.164 -2.329,-0.291 -3.493,1.165 -7.57,-2.329 -4.076,-3.494 -5.241,-5.824 -6.988,-6.405 -1.747,-0.584 -4.95,-1.456 -7.28,1.163 -2.337,2.621 -6.413,4.951 -6.413,4.951"
   id="path204"
   inkscape:connector-curvature="0" />
	<path
   style="fill:#79230f"
   d="m 341.114,235.041 c -3.263,-7.611 -6.759,-13.848 -6.759,-16.838 0,-2.99 1.901,-2.446 0,-2.99 -1.903,-0.544 -4.699,-1.301 -6.291,0.709 -1.57,1.981 -7.668,3.864 -12.009,8.348 l 11.31,-3.063 c 0,0 2.641,2.977 3.193,6.238 0.554,3.261 0.263,9.786 -1.368,11.688 -1.632,1.903 -2.99,3.807 -2.99,3.807 0,0 -2.99,9.515 -5.438,10.872 -2.445,1.359 -2.311,2.176 -3.532,2.99 -1.225,0.815 -3.264,0 -4.621,0.544 -1.359,0.544 -1.088,4.077 -2.447,5.708 -1.358,1.631 -4.621,0.544 -5.708,1.903 -1.087,1.358 -6.252,5.708 -8.698,5.979 -2.446,0.272 -3.534,2.447 -6.252,5.98 -2.719,3.534 -3.263,4.895 -5.709,7.34 -2.446,2.446 -4.077,2.718 -8.97,3.262 -4.895,0.545 -5.438,3.534 -6.524,4.621 -1.086,1.087 -3.262,2.446 -5.708,2.446 -2.445,0 -3.806,1.088 -8.155,1.903 -4.349,0.814 -4.893,0.543 -5.98,0.543 -1.087,0 -2.718,0 -6.524,-1.358 -3.806,-1.358 -1.903,-0.271 -7.37,-1.961 -5.468,-1.688 -2.688,-0.214 -4.318,0.873 -1.631,1.088 -1.903,1.088 -7.068,0.815 -5.165,-0.271 -5.437,-3.533 -7.611,-6.252 -2.174,-2.719 -2.174,-2.719 -4.349,-5.438 -2.175,-2.718 -1.903,-2.175 -5.437,-4.621 -3.534,-2.446 -2.446,-3.262 -9.514,-7.61 -7.067,-4.35 -3.262,-1.088 -6.524,-2.719 -3.262,-1.631 -3.805,-3.263 -6.523,-5.979 -2.719,-2.719 -2.569,-1.914 -5.165,-2.99 -2.596,-1.076 2.718,-1.087 -1.631,-4.35 -4.349,-3.263 -3.806,-8.698 -5.708,-8.971 -1.903,-0.271 -3.262,0.543 -4.349,-3.263 -1.087,-3.805 -1.087,-2.718 -0.815,-4.349 0.271,-1.631 -1.727,-1.409 -1.087,-3.263 3.271,-9.479 1.698,-5.27 3.364,-6.523 2.875,-2.166 6.694,-5.165 6.694,-5.165 0.08,-0.063 0.17,-0.117 0.27,-0.168 -0.896,-0.32 -1.787,-0.623 -2.716,-0.919 -5.98,-1.902 -5.165,-3.263 -8.427,-0.271 0,0 -1.087,5.708 -1.631,10.059 -0.544,4.349 -5.751,9.947 -5.48,13.481 0.272,3.533 -1.938,8.427 0.237,12.232 2.175,3.805 1.783,-0.632 4.501,2.357 0.682,0.749 2.638,-1.659 3.215,1.93 0.315,1.955 1.654,7.228 1.929,8.146 1.235,4.122 2.241,1.813 4.073,3.646 2.99,2.989 1.125,0.471 4.931,1.285 3.805,0.815 1.882,3.725 5.145,9.433 1.059,1.853 6.792,0.904 8.146,4.287 0.823,2.056 1.706,1.578 2.572,3.43 1.004,2.146 5.438,6.044 6.431,7.074 1.086,1.129 3.524,4.127 4.502,2.786 1.732,-2.375 4.93,1.715 6.431,1.715 1.727,0 3.526,-3.021 4.716,-2.357 1.023,0.569 1.686,2.623 2.572,3.001 3.213,1.37 5.548,3.841 9.432,2.145 3.497,-1.527 2.45,-4.885 7.886,-3.254 2.201,0.66 3.142,2.118 5.079,2.523 1.558,0.326 3.356,0.274 4.984,0.067 1.348,-0.172 2.578,-0.449 3.457,-0.706 3.262,-0.951 4.018,-1.568 5.057,-1.049 1.681,0.841 2.864,1.617 3.976,1.56 1.022,-0.053 3.336,-0.104 4.502,-0.429 1.22,-0.339 1.866,-2.397 3.001,-2.787 1.319,-0.453 1.948,1.438 2.785,1.286 2.037,-0.37 2.795,2.106 4.717,3.216 0.899,0.52 3.544,1.894 4.931,1.286 1.307,-0.571 3.681,-1.426 4.716,-1.715 1.035,-0.289 0.376,-1.524 1.927,-2.101 0.51,-0.188 0.797,-1.086 1.434,-1.303 1.945,-0.66 7.172,-1.3 9.246,-2.474 1.985,-1.125 5.638,-0.938 6.12,-2.995 0.371,-1.585 5.33,-3.8 5.859,-5.34 0.813,-2.359 -0.718,-5.479 1.566,-7.653 0.945,-0.9 3.908,-0.9 4.501,-1.501 1.919,-1.945 -0.359,-4.426 0.445,-5.873 0.446,-0.805 1.027,-1.844 2.081,-3.464 0.726,-1.116 3.897,4.145 4.817,2.865 0.811,-1.124 3.56,0.629 4.428,-0.521 0.623,-0.825 9.932,-3.631 10.549,-4.428 2.312,-2.985 -1.188,-9.358 0,-10.809 1.024,-1.254 4.549,-0.125 5.6,-2.215 0.282,-0.562 1.925,-3.192 2.214,-3.775 1.201,-2.42 -1.399,-5.906 0,-7.943 2.985,-4.345 3.126,-5.016 -0.136,-12.626 z"
   id="path206"
   inkscape:connector-curvature="0" />
	<path
   style="fill:#313966"
   d="m 174.791,223.911 c 0,0 -3.819,2.999 -6.694,5.165 -1.666,1.255 -0.092,-2.956 -3.364,6.523 -0.64,1.854 1.359,1.632 1.087,3.263 -0.271,1.631 -0.271,0.544 0.816,4.349 1.087,3.806 2.446,2.99 4.349,3.263 1.903,0.271 1.359,5.708 5.708,8.971 4.349,3.263 -0.965,3.272 1.631,4.35 2.596,1.076 2.446,0.271 5.165,2.99 2.718,2.718 3.262,4.35 6.524,5.979 3.262,1.631 -0.543,-1.631 6.524,2.719 7.068,4.35 5.98,5.164 9.514,7.61 3.534,2.446 3.262,1.903 5.437,4.621 2.174,2.719 2.174,2.719 4.349,5.438 2.175,2.719 2.447,5.979 7.611,6.252 5.165,0.271 5.437,0.271 7.067,-0.815 1.631,-1.087 -1.149,-2.562 4.318,-0.873 5.468,1.688 3.565,0.603 7.371,1.961 3.805,1.358 5.437,1.358 6.524,1.358 1.087,0 1.631,0.271 5.98,-0.543 4.349,-0.815 5.708,-1.903 8.155,-1.903 2.446,0 4.621,-1.359 5.708,-2.446 1.088,-1.087 1.632,-4.076 6.523,-4.621 4.893,-0.544 6.523,-0.814 8.972,-3.262 2.445,-2.446 2.988,-3.806 5.708,-7.34 2.718,-3.533 3.806,-5.708 6.252,-5.979 2.445,-0.271 7.61,-4.621 8.697,-5.979 1.089,-1.359 4.351,-0.272 5.709,-1.903 1.359,-1.631 1.088,-5.164 2.446,-5.708 1.359,-0.544 3.398,0.271 4.621,-0.544 1.223,-0.814 1.087,-1.631 3.534,-2.99 2.446,-1.357 5.437,-10.872 5.437,-10.872 0,0 1.358,-1.902 2.99,-3.807 1.631,-1.901 1.923,-8.427 1.368,-11.688 -0.554,-3.263 -3.193,-6.238 -3.193,-6.238 l -18.019,4.879 c 0,0 -52.735,20.115 -60.618,19.572 -7.883,-0.544 -59.802,-20.115 -59.802,-20.115 0,0 -11.959,-3.539 -14.405,-1.637 z"
   id="path208"
   inkscape:connector-curvature="0" />
	<path
   style="fill:#2d5280"
   d="m 249,245.658 c -4.456,-0.309 -22.979,-6.693 -38.245,-12.188 -10.295,7.292 -16.708,17.563 -16.708,28.941 0,2.833 0.4,5.597 1.156,8.264 0.396,0.235 0.835,0.5 1.333,0.808 7.068,4.35 5.98,5.165 9.514,7.61 3.534,2.446 3.262,1.903 5.437,4.621 2.174,2.719 2.174,2.719 4.349,5.438 2.175,2.719 2.447,5.979 7.611,6.252 5.165,0.271 5.437,0.271 7.067,-0.815 1.631,-1.087 -1.149,-2.562 4.318,-0.873 5.468,1.688 3.565,0.603 7.371,1.961 3.805,1.358 5.437,1.358 6.524,1.358 1.087,0 1.631,0.271 5.98,-0.543 4.349,-0.815 5.708,-1.903 8.155,-1.903 2.446,0 4.621,-1.358 5.708,-2.446 1.088,-1.087 1.632,-4.076 6.523,-4.62 4.893,-0.545 6.523,-0.815 8.972,-3.263 2.445,-2.445 2.988,-3.806 5.708,-7.34 2.718,-3.533 3.806,-5.708 6.252,-5.979 1.463,-0.162 3.893,-1.781 5.846,-3.349 0.296,-1.694 0.449,-3.424 0.449,-5.179 0,-10.888 -5.873,-20.76 -15.399,-27.98 -15.329,5.456 -33.543,11.527 -37.921,11.225 z"
   id="path210"
   inkscape:connector-curvature="0" />
	<path
   style="fill:#076e99"
   d="m 258.795,243.701 c -4.609,1.296 -8.163,2.068 -9.795,1.957 -1.641,-0.113 -5.194,-1.053 -9.786,-2.467 -11.922,4.044 -20.55,15.813 -20.55,29.709 0,8.914 3.555,16.947 9.246,22.636 1.191,-0.066 1.681,-0.332 2.605,-0.949 1.631,-1.087 -1.149,-2.562 4.318,-0.873 5.468,1.688 3.565,0.603 7.371,1.961 3.805,1.358 5.437,1.358 6.524,1.358 1.087,0 1.631,0.271 5.98,-0.543 4.349,-0.815 5.708,-1.903 8.155,-1.903 2.446,0 4.621,-1.359 5.708,-2.446 1.038,-1.038 1.59,-3.803 5.891,-4.525 2.229,-4.385 3.498,-9.394 3.498,-14.714 0,-13.353 -7.965,-24.742 -19.165,-29.201 z"
   id="path212"
   inkscape:connector-curvature="0" />
	<path
   style="fill:#dfded1"
   d="m 284.947,248.261 0.291,6.262 3.204,-0.438 1.454,0.438 2.621,-1.021 2.186,-2.329 c 0,0 0.873,-6.406 -0.292,-9.755 -1.164,-3.35 -3.494,-5.97 -3.494,-5.97 l -8.882,0.728 z"
   id="path214"
   inkscape:connector-curvature="0" />
	<path
   style="fill:#dfded1"
   d="m 295.925,254.742 2.33,0.291 1.603,-1.747 1.31,-0.291 2.33,-3.349 c 0,0 2.329,-5.241 1.747,-8.736 -0.582,-3.494 -4.659,-8.881 -4.659,-8.881 l -6.115,3.494 -0.291,5.97 z"
   id="path216"
   inkscape:connector-curvature="0" />
	<path
   style="fill:#dfded1"
   d="m 305.108,250.987 1.02,-1.895 1.456,1.312 h 1.455 l 1.165,2.039 2.33,2.038 2.184,-1.165 0.729,0.437 c 0,0 2.184,-3.931 3.058,-8.59 0.873,-4.659 -0.292,-10.047 -1.456,-12.376 -1.165,-2.33 -5.533,-2.477 -5.533,-2.477 l -6.987,4.95 z"
   id="path218"
   inkscape:connector-curvature="0" />
	<path
   style="fill:#dfded1"
   d="m 319.046,246.25 2.768,-5.678 0.873,-3.933 c 0,0 -0.873,-5.823 -1.164,-7.278 -0.291,-1.457 -2.186,-2.768 -2.186,-2.768 l -2.329,2.912 -1.311,4.514 z"
   id="path220"
   inkscape:connector-curvature="0" />
	<path
   style="fill:#dfded1"
   d="m 322.833,237.369 1.747,1.164 1.747,-0.873 1.456,0.146 c 0,0 2.621,-6.114 1.747,-10.191 -0.874,-4.076 -1.894,-6.406 -1.894,-6.406 l -2.039,-1.019 -4.805,0.291 -3.785,3.64 z"
   id="path222"
   inkscape:connector-curvature="0" />
	<path
   style="fill:#dfded1"
   d="m 328.044,230.38 1.021,-1.019 1.601,0.582 c 0,0 0,-8.153 -1.164,-10.192 -1.165,-2.038 -4.659,-2.184 -4.659,-2.184 l -1.165,1.602 1.312,7.426 z"
   id="path224"
   inkscape:connector-curvature="0" />
	<path
   style="fill:#dfded1"
   d="m 333.966,257.56 c 0,0 -1.165,-7.135 -1.456,-7.717 -0.292,-0.583 -0.292,-1.747 -0.292,-1.747 l 1.312,1.311 1.456,-2.185 1.602,0.582 1.312,-0.291 1.311,1.894 c 0,0 1.165,2.476 1.165,4.659 0,2.185 -0.583,3.641 -1.456,3.932 -0.878,0.289 -3.935,0.58 -4.954,-0.438 z"
   id="path226"
   inkscape:connector-curvature="0" />
	<path
   style="fill:#dfded1"
   d="m 332.14,266.509 c -0.835,-2.589 -2.912,-4.659 -2.912,-4.659 l -1.746,1.747 h -2.767 l -0.874,2.33 0.438,2.476 c 0,0 1.02,2.33 0.729,4.076 0,0 -0.139,0.945 1.603,0.729 2.326,-0.293 6.985,-2.185 5.529,-6.699 z"
   id="path228"
   inkscape:connector-curvature="0" />
	<path
   style="fill:#dfded1"
   d="m 324.279,272.77 c 0,0 -2.038,2.768 -2.768,2.912 -0.728,0.146 -6.405,0.582 -7.861,-4.223 l -0.291,-2.62 1.311,-2.912 c 0,0 1.312,-0.291 2.038,-1.747 0.729,-1.456 1.602,-2.767 1.602,-2.767 l 2.768,1.165 2.038,0.437 c 0,0 1.165,0.438 2.039,3.641 0.871,3.202 -0.293,4.658 -0.876,6.114 z"
   id="path230"
   inkscape:connector-curvature="0" />
	<path
   style="fill:#dfded1"
   d="m 265.545,300.044 c 0,0 0.292,1.604 3.351,4.223 3.058,2.621 4.514,2.912 7.57,1.456 3.058,-1.456 5.823,-2.62 6.406,-5.679 0.582,-3.057 0.291,-14.414 -0.874,-18.054 l -1.165,-2.768 -1.164,2.186 -1.456,0.582 -2.846,0.999 c 0,0 -0.795,4.388 -2.104,4.242 -1.311,-0.146 -2.426,2.28 -2.426,2.28 0,0 -2.087,7.913 -5.292,10.533 z"
   id="path232"
   inkscape:connector-curvature="0" />
	<path
   style="fill:#dfded1"
   d="m 263.865,254.887 c 0,0 0.873,3.203 1.019,4.077 0.146,0.873 4.011,7.508 4.485,9.525 0.474,2.017 2.373,-1.307 2.373,-1.307 0,0 7.266,-7.929 6.828,-16.665 l -1.747,-8.008 -12.667,1.747 z"
   id="path234"
   inkscape:connector-curvature="0" />
	<path
   style="fill:#dfded1"
   d="m 286.169,301.922 c 0.729,0 1.312,1.165 3.059,-0.291 1.746,-1.456 -0.438,-1.456 3.493,-1.747 3.931,-0.291 3.932,-1.456 5.388,-2.476 1.456,-1.02 2.039,-1.312 3.058,-2.038 1.02,-0.729 2.476,-2.621 2.476,-2.621 0,0 -0.291,-3.64 -0.291,-4.222 0,-0.583 -1.455,1.31 -1.455,1.31 0,0 -1.603,0.146 -1.747,0.583 -0.146,0.438 -0.438,2.038 -0.438,2.038 l -1.164,1.311 -2.767,-0.874 -0.874,1.165 -0.438,1.021 -2.767,1.602 -2.038,0.729 -0.874,-3.203 -3.058,0.729 c 0,0 0.583,3.494 0.583,4.368 0,0.869 -0.146,2.616 -0.146,2.616 z"
   id="path236"
   inkscape:connector-curvature="0" />
	<path
   style="fill:#dfded1"
   d="m 250.694,302.449 c 0,0 2.33,2.038 3.786,2.329 1.456,0.292 3.349,-0.146 4.513,-0.291 1.165,-0.146 2.621,-1.456 2.621,-1.456 0,0 1.165,-5.678 0.728,-9.464 0,0 -0.494,-2.634 -1.115,-3.697 -0.62,-1.063 -1.018,-0.234 -1.018,-0.234 0,0 -0.224,0.234 -0.756,1.3 -0.532,1.062 -3.635,7.535 -8.759,11.513 z"
   id="path238"
   inkscape:connector-curvature="0" />
	<path
   style="fill:#dfded1"
   d="m 214.07,249.056 -0.291,6.262 -3.203,-0.438 -1.456,0.438 -2.621,-1.021 -2.184,-2.329 c 0,0 -0.874,-6.406 0.291,-9.755 1.165,-3.349 3.495,-5.97 3.495,-5.97 l 8.881,0.728 z"
   id="path240"
   inkscape:connector-curvature="0" />
	<path
   style="fill:#dfded1"
   d="m 203.47,254.628 -2.33,0.292 -1.602,-1.748 -1.311,-0.291 -2.33,-3.349 c 0,0 -2.329,-5.241 -1.747,-8.736 0.583,-3.494 4.659,-8.881 4.659,-8.881 l 6.115,3.494 0.291,5.97 z"
   id="path242"
   inkscape:connector-curvature="0" />
	<path
   style="fill:#dfded1"
   d="m 196.333,250.59 -1.019,-1.893 -1.456,1.311 h -1.456 l -1.165,2.038 -2.33,2.038 -2.184,-1.164 -0.728,0.438 c 0,0 -2.184,-3.933 -3.058,-8.592 -0.874,-4.658 0.291,-10.046 1.456,-12.376 1.165,-2.329 5.533,-2.475 5.533,-2.475 l 6.989,4.95 z"
   id="path244"
   inkscape:connector-curvature="0" />
	<path
   style="fill:#dfded1"
   d="m 180.728,246.25 -2.766,-5.678 -0.874,-3.933 c 0,0 0.874,-5.823 1.165,-7.278 0.291,-1.457 2.184,-2.768 2.184,-2.768 l 2.33,2.912 1.311,4.514 z"
   id="path246"
   inkscape:connector-curvature="0" />
	<path
   style="fill:#dfded1"
   d="m 176.941,237.369 -1.747,1.164 -1.747,-0.873 -1.456,0.146 c 0,0 -2.621,-6.114 -1.747,-10.191 0.874,-4.076 1.893,-6.406 1.893,-6.406 l 2.039,-1.019 4.805,0.291 3.786,3.64 z"
   id="path248"
   inkscape:connector-curvature="0" />
	<path
   style="fill:#dfded1"
   d="m 170.099,230.38 -1.02,-1.019 -1.602,0.582 c 0,0 0,-8.153 1.165,-10.192 1.165,-2.038 4.659,-2.184 4.659,-2.184 l 1.165,1.602 -1.31,7.426 z"
   id="path250"
   inkscape:connector-curvature="0" />
	<path
   style="fill:#dfded1"
   d="m 163.633,257.56 c 0,0 1.165,-7.135 1.456,-7.717 0.292,-0.583 0.292,-1.747 0.292,-1.747 l -1.311,1.311 -1.456,-2.185 -1.602,0.582 -1.31,-0.291 -1.311,1.894 c 0,0 -1.165,2.476 -1.165,4.659 0,2.185 0.583,3.641 1.456,3.932 0.873,0.291 3.933,0.58 4.951,-0.438 z"
   id="path252"
   inkscape:connector-curvature="0" />
	<path
   style="fill:#dfded1"
   d="m 167.089,265.965 c 0.835,-2.588 2.912,-4.659 2.912,-4.659 l 1.747,1.747 h 2.766 l 0.874,2.33 -0.437,2.477 c 0,0 -1.02,2.329 -0.728,4.075 0,0 0.138,0.945 -1.602,0.729 -2.329,-0.292 -6.988,-2.185 -5.532,-6.699 z"
   id="path254"
   inkscape:connector-curvature="0" />
	<path
   style="fill:#dfded1"
   d="m 174.952,272.226 c 0,0 2.038,2.768 2.766,2.912 0.728,0.146 6.407,0.583 7.863,-4.222 l 0.291,-2.621 -1.311,-2.912 c 0,0 -1.31,-0.291 -2.039,-1.747 -0.728,-1.456 -1.602,-2.767 -1.602,-2.767 l -2.766,1.165 -2.039,0.437 c 0,0 -1.165,0.438 -2.038,3.642 -0.873,3.202 0.292,4.657 0.875,6.113 z"
   id="path256"
   inkscape:connector-curvature="0" />
	<path
   style="fill:#dfded1"
   d="m 231.346,298.398 c 0,0 -0.292,1.602 -3.349,4.223 -3.058,2.62 -4.514,2.912 -7.571,1.456 -3.058,-1.456 -5.824,-2.621 -6.407,-5.679 -0.583,-3.059 -0.291,-14.414 0.874,-18.056 l 1.165,-2.766 1.165,2.184 1.456,0.582 2.33,3.059 c 0,0 1.311,2.33 2.621,2.185 1.31,-0.145 2.912,0.438 2.912,0.438 0,0 1.601,9.752 4.804,12.374 z"
   id="path258"
   inkscape:connector-curvature="0" />
	<path
   style="fill:#dfded1"
   d="m 233.734,255.431 c 0,0 -2.814,3.685 -3.645,9.38 -0.831,5.696 -2.136,4.034 -2.136,4.034 0,0 -9.361,-9.046 -8.925,-17.781 l 1.748,-8.009 12.667,1.747 z"
   id="path260"
   inkscape:connector-curvature="0" />
	<path
   style="fill:#dfded1"
   d="m 211.166,302.334 c -0.728,0 -1.311,1.165 -3.058,-0.291 -1.747,-1.456 0.437,-1.456 -3.494,-1.748 -3.931,-0.291 -3.931,-1.455 -5.387,-2.475 -1.456,-1.021 -2.039,-1.312 -3.058,-2.038 -1.02,-0.729 -2.475,-2.621 -2.475,-2.621 0,0 0.291,-3.64 0.291,-4.223 0,-0.582 1.456,1.311 1.456,1.311 0,0 1.602,0.146 1.747,0.582 0.146,0.438 0.437,2.039 0.437,2.039 l 1.165,1.311 2.767,-0.874 0.874,1.165 0.437,1.02 2.767,1.602 2.039,0.729 0.464,-1.604 2.175,0.906 c 0,0 0.71,1.716 0.71,2.589 -0.003,0.873 0.143,2.62 0.143,2.62 z"
   id="path262"
   inkscape:connector-curvature="0" />
	<path
   style="fill:#dfded1"
   d="m 248.255,250.18 -4.222,0.146 -5.97,1.747 -2.184,2.767 -0.146,2.768 c 0,0 0.437,4.367 0.292,4.805 -0.145,0.437 1.31,1.602 1.31,1.602 l 1.602,1.312 h 3.203 l 0.583,1.602 1.602,-0.874 2.184,0.874 1.747,1.456 1.748,-1.456 2.184,-0.874 1.602,0.874 0.582,-1.602 h 3.204 l 1.602,-1.312 c 0,0 1.456,-1.165 1.312,-1.602 -0.146,-0.438 0.291,-4.805 0.291,-4.805 l -0.146,-2.768 -2.185,-2.767 -5.969,-1.747 z"
   id="path264"
   inkscape:connector-curvature="0" />
	<path
   style="fill:#dfded1"
   d="m 246.482,302.596 c 0,0 -2.33,2.038 -3.786,2.329 -1.456,0.291 -3.349,-0.146 -4.514,-0.291 -1.165,-0.145 -2.621,-1.456 -2.621,-1.456 0,0 -1.165,-5.679 -0.728,-9.464 l 0.583,-2.185 1.161,-2.724 1.153,1.33 1.064,-0.621 c 0,0.002 0.798,6.297 7.688,13.082 z"
   id="path266"
   inkscape:connector-curvature="0" />
	<path
   style="fill:#946e59"
   d="m 330.414,220.922 c 0.407,-0.408 -1.859,-2.314 -1.859,-2.314 2.185,-0.619 0.438,-1.858 -0.219,-2.686 -0.657,-0.828 -1.966,-5.37 -2.621,-7.021 -0.655,-1.652 -2.402,-2.065 -4.805,-3.306 -2.403,-1.239 -5.241,-3.099 -8.299,-5.37 -3.059,-2.271 -3.933,-4.132 -4.806,-7.85 -0.874,-3.718 -2.839,-4.544 -3.932,-5.783 -1.092,-1.239 -5.46,-0.206 -8.299,-0.413 -2.839,-0.206 -4.368,0.826 -7.207,2.479 -2.839,1.651 -8.299,2.271 -10.047,3.925 -1.747,1.652 -4.149,5.576 -4.586,3.718 -0.438,-1.858 -1.021,-2.064 -1.021,-2.064 0,0 0.449,2.274 -1.589,3.194 -0.563,0.254 -1.555,0.225 -2.281,0.57 -0.698,0.333 -1.426,1.093 -2.279,1.521 -0.941,0.471 0.525,3.335 -0.57,3.61 -1.097,0.277 -5.887,-4.014 -7.021,-3.883 -3.696,0.43 -7.282,0.218 -8.726,0.218 -0.975,0 -1.559,-0.462 -1.884,-0.584 -0.325,0.122 -0.909,0.584 -1.884,0.584 -1.707,0 -5.611,1.251 -9.95,0.435 -1.055,-0.198 -7.431,5.228 -8.395,4.878 -0.482,-0.176 -1.911,-2.3 -2.352,-2.521 -1.322,-0.662 0.282,-3.926 -0.672,-4.368 -0.451,-0.209 0.538,-2.857 0.168,-3.022 -1.779,-0.793 -1.268,-0.632 -1.268,-0.632 0,0 -0.583,0.206 -1.02,2.064 -0.437,1.858 -2.839,-2.064 -4.586,-3.718 -1.747,-1.652 -7.207,-2.271 -10.046,-3.925 -2.839,-1.652 -4.368,-2.686 -7.208,-2.479 -2.839,0.207 -7.207,-0.825 -8.299,0.413 -1.092,1.239 -3.058,2.065 -3.931,5.783 -0.874,3.718 -1.748,5.577 -4.805,7.85 -3.057,2.271 -5.896,4.132 -8.299,5.37 -2.403,1.239 -4.15,1.652 -4.805,3.306 -0.655,1.651 -1.966,6.195 -2.621,7.021 -0.655,0.826 -1.903,1.164 -0.218,2.686 0.908,0.819 -1.417,2.45 -1.273,4.626 0.068,1.045 0.133,4.213 0.133,4.213 l 1.063,1.631 c 0,0 0.532,-5.028 1.196,-6.252 0.665,-1.225 1.596,1.087 1.596,1.087 0.133,-0.679 2.127,-0.543 2.659,-0.407 0.532,0.136 0.931,5.301 0.931,5.301 0,0 2.127,0.544 2.526,-0.136 0.399,-0.68 4.122,-0.408 4.388,3.533 0,0 1.329,0.271 1.329,-0.544 0,-0.815 0.758,2.678 1.995,3.941 0.399,0.407 2.393,-1.088 2.792,0.951 0.398,2.039 0.797,3.263 0.797,3.263 l 1.861,-0.951 c 0,0 1.064,0.271 1.861,0.951 0.798,0.68 2.925,0.814 2.925,0.814 0,0 5.85,-3.67 6.914,2.039 1.063,5.708 1.462,4.757 1.462,4.757 0,0 -0.266,-3.396 1.33,-3.94 1.595,-0.544 4.52,0.271 4.919,1.087 0.399,0.815 1.462,1.088 2.127,3.262 0.665,2.175 1.595,2.719 1.595,2.719 0,0 1.197,-0.544 3.59,-0.406 2.393,0.136 4.254,0.813 4.254,0.813 l 2.127,-0.543 c 0,0 3.324,-9.922 10.769,3.806 0,0 1.595,0 1.994,0.137 0.399,0.136 2.393,-0.681 2.393,-0.681 0,0 2.925,-4.213 6.515,-0.271 0,0 0.931,0.68 1.995,0.814 1.063,0.137 1.994,0.544 1.994,0.544 0,0 0.931,-0.407 1.994,-0.544 1.064,-0.136 1.994,-0.814 1.994,-0.814 3.59,-3.941 6.515,0.271 6.515,0.271 0,0 1.994,0.815 2.394,0.681 0.398,-0.137 1.994,-0.137 1.994,-0.137 7.444,-13.728 10.77,-3.806 10.77,-3.806 l 2.127,0.543 c 0,0 1.861,-0.679 4.255,-0.813 2.395,-0.138 3.59,0.406 3.59,0.406 0,0 0.932,-0.544 1.597,-2.719 0.664,-2.174 1.728,-2.446 2.127,-3.262 0.397,-0.815 3.323,-1.631 4.919,-1.087 1.596,0.544 1.33,3.94 1.33,3.94 0,0 0.397,0.951 1.462,-4.757 1.063,-5.709 6.913,-2.039 6.913,-2.039 0,0 2.128,-0.136 2.926,-0.814 0.797,-0.681 1.861,-0.951 1.861,-0.951 l 1.86,0.951 c 0,0 0.398,-1.224 0.797,-3.263 0.399,-2.039 2.395,-0.544 2.792,-0.951 1.237,-1.265 1.995,-4.758 1.995,-3.941 0,0.815 1.329,0.544 1.329,0.544 0.267,-3.941 3.988,-4.213 4.389,-3.533 0.397,0.68 2.525,0.136 2.525,0.136 0,0 0.398,-5.165 0.932,-5.301 0.53,-0.136 2.524,-0.271 2.657,0.407 0,0 0.932,-2.312 1.597,-1.087 0.665,1.224 1.195,6.252 1.195,6.252 l 1.063,-1.631 c 0,0 0.932,-3.534 0.134,-4.213"
   id="path268"
   inkscape:connector-curvature="0" />
	<path
   style="fill:#dfded1"
   d="m 341.76,111.862 c -1.457,14.083 -11.885,42.925 -36.991,60.499 -12.312,8.618 -25.546,-9.541 -15.696,-16.62 9.85,-7.079 39.09,-17.852 49.554,-45.245 2.988,-8.388 3.57,-2.856 3.133,1.366 z"
   id="path270"
   inkscape:connector-curvature="0" />
	<path
   style="fill:#dfded1"
   d="m 332.151,165.115 c 3.115,-1.461 24.161,-10.586 26.711,-11.514 2.55,-0.927 -1.854,5.563 -13.905,15.992 -12.051,10.43 -18.734,16.164 -23.871,10.198 -4.551,-5.284 4.076,-11.399 11.065,-14.676 z"
   id="path272"
   inkscape:connector-curvature="0" />
	<path
   style="fill:#dfded1"
   d="m 154.61,111.862 c 1.457,14.083 11.884,42.925 36.991,60.499 12.312,8.618 25.546,-9.541 15.697,-16.62 -9.849,-7.079 -39.089,-17.852 -49.554,-45.245 -2.989,-8.388 -3.571,-2.856 -3.134,1.366 z"
   id="path274"
   inkscape:connector-curvature="0" />
	<path
   style="fill:#dfded1"
   d="m 164.22,165.115 c -3.117,-1.461 -24.162,-10.586 -26.711,-11.514 -2.549,-0.927 1.854,5.563 13.906,15.992 12.051,10.43 18.734,16.164 23.871,10.198 4.548,-5.284 -4.078,-11.399 -11.066,-14.676 z"
   id="path276"
   inkscape:connector-curvature="0" />
	<path
   style="fill:#dfded1"
   d="m 330.005,326.112 c 0,0 -1.049,-16.624 -1.947,-21.716 -0.897,-5.094 -6.89,-5.094 -9.585,-2.696 -2.695,2.396 -4.492,8.985 -1.798,13.18 2.697,4.193 8.238,10.334 13.33,11.232 z"
   id="path278"
   inkscape:connector-curvature="0" />
	<path
   style="fill:#dfded1"
   d="m 170.713,327.207 c 0,0 -0.06,-1.236 0.097,-3.472 0.025,-0.367 -1.572,-3.356 -1.543,-3.761 0.381,-5.321 1.04,-11.189 1.625,-14.503 0.899,-5.092 6.89,-5.092 9.585,-2.694 2.696,2.396 4.493,8.984 1.797,13.18 -2.695,4.194 -6.468,10.351 -11.561,11.25 z"
   id="path280"
   inkscape:connector-curvature="0" />
	<path
   style="fill:#68b230"
   d="m 247.843,221.941 c -2.293,0 -9.17,-0.724 -11.463,-1.807 -2.292,-1.084 -4.585,-5.292 -5.799,-6.918 -1.213,-1.626 -3.776,-1.934 -3.776,-1.934 5.664,-10.658 12.946,-10.116 21.038,-10.116 8.091,0 15.374,-0.542 21.038,10.116 0,0 -2.563,0.308 -3.775,1.934 -1.214,1.626 -3.507,5.834 -5.8,6.918 -2.293,1.084 -9.169,1.807 -11.463,1.807 z"
   id="path282"
   inkscape:connector-curvature="0" />
	<path
   style="fill:#4a7b32"
   d="m 247.843,201.841 c 7.052,0 15.306,1.902 19.693,8.996 -0.928,0.375 -2.913,0.486 -3.648,1.472 -0.309,0.412 -0.707,2.535 -1.107,3.146 -1.114,1.693 -2.747,2.657 -4.123,3.308 -1.887,0.894 -8.409,1.661 -10.813,1.661 -2.404,0 -9.138,-0.153 -11.025,-1.045 -1.375,-0.65 -3.181,-2.762 -4.296,-4.455 -0.401,-0.609 -0.415,-2.201 -0.724,-2.613 -0.735,-0.984 -3.064,-1.097 -3.992,-1.472 4.386,-7.096 14,-8.998 20.035,-8.998 m 2.219,-0.679 c -0.732,0 -1.473,0.005 -2.219,0.005 -0.748,0 -1.487,-0.005 -2.22,-0.005 -7.203,0 -13.677,0.447 -18.818,10.12 0,0 2.563,0.309 3.776,1.935 1.214,1.626 3.506,5.834 5.799,6.918 2.293,1.083 9.17,1.807 11.463,1.807 2.292,0 9.17,-0.724 11.462,-1.807 2.293,-1.084 4.586,-5.292 5.8,-6.918 1.214,-1.626 3.775,-1.935 3.775,-1.935 -5.14,-9.673 -11.615,-10.12 -18.818,-10.12 z"
   id="path284"
   inkscape:connector-curvature="0" />
	<path
   style="fill:#e0dc01"
   d="m 258.219,211.357 c 0,3.944 -4.559,7.143 -10.182,7.143 -5.624,0 -10.182,-3.197 -10.182,-7.143 0,-3.944 4.559,-7.144 10.182,-7.144 5.623,0 10.182,3.199 10.182,7.144 z"
   id="path286"
   inkscape:connector-curvature="0" />
	<ellipse
   style="fill:#b3b111"
   cx="248.037"
   cy="211.35699"
   rx="4.29"
   ry="6.0419998"
   id="ellipse288" />
	<path
   style="fill:#d3d094"
   d="m 243.22,203.124 c 1.919,0 3.475,1.556 3.475,3.475 0,1.92 -1.556,3.476 -3.475,3.476 -1.919,0 -3.475,-1.556 -3.475,-3.476 0,-1.919 1.555,-3.475 3.475,-3.475 z"
   id="path290"
   inkscape:connector-curvature="0" />
	<path
   style="fill:#99ad87"
   d="m 243.22,203.124 c -1.919,0 -3.475,1.556 -3.475,3.475 0,0.195 0.027,0.384 0.058,0.569 1.444,-1.395 3.585,-2.41 6.07,-2.788 -0.639,-0.762 -1.583,-1.256 -2.653,-1.256 z"
   id="path292"
   inkscape:connector-curvature="0" />
	<path
   style="fill:#adaa68"
   d="m 243.87,210.003 c 1.613,-0.301 2.835,-1.711 2.835,-3.41 0,-0.315 -0.056,-0.617 -0.135,-0.908 -1.347,0.698 -2.376,2.316 -2.7,4.318 z"
   id="path294"
   inkscape:connector-curvature="0" />
	<path
   style="fill:#bc8a72"
   d="m 257.165,249.254 c 4.854,-0.88 -0.084,-0.41 3.823,-0.821 3.905,-0.41 3.701,-2.468 5.963,-3.7 2.262,-1.233 5.346,-1.439 7.196,-0.617 1.85,0.822 0.615,1.646 4.729,2.057 4.114,0.411 4.935,-0.206 6.991,-2.262 2.056,-2.058 3.495,-3.084 6.579,-3.495 3.085,-0.411 4.317,-3.496 7.607,-4.935 3.289,-1.439 2.878,-1.234 5.347,-1.646 2.467,-0.411 3.7,-0.411 6.989,-3.906 3.29,-3.496 6.374,-2.057 7.608,-4.729 1.233,-2.673 3.038,-5.273 3.678,-6.029 0.641,-0.756 2.901,-1.989 2.49,-5.279 -0.411,-3.29 -3.906,-5.346 -7.813,-7.195 -3.906,-1.852 -6.785,-2.879 -8.637,-5.347 -1.851,-2.468 -3.495,-3.906 -3.905,-6.374 -0.411,-2.468 -2.614,-1.532 -3.643,-2.149 -1.028,-0.616 -2.437,-3.641 -7.166,-1.378 -4.729,2.262 -8.417,3.036 -10.473,3.857 -2.058,0.822 -4.278,3.452 -5.513,4.687 -1.233,1.232 -2.492,0.486 -5.576,0.897 -3.084,0.411 -1.153,1.69 -1.359,2.72 -0.205,1.027 -2.321,3.188 -1.087,3.806 1.233,0.616 0.609,3.387 0.815,4.621 0.204,1.232 -2.91,1.14 -4.351,2.99 -1.439,1.85 -0.511,2.979 -1.95,5.033 -1.438,2.058 -6.374,4.318 -7.813,4.524 -1.439,0.205 -5.14,-1.234 -7.196,1.233 -2.056,2.467 -0.451,2.466 -0.245,6.167 0.206,3.699 2.714,6.497 2.714,8.142 0,1.646 0.987,8.636 0.987,8.636 0,0 0.468,0.988 3.211,0.492 z"
   id="path296"
   inkscape:connector-curvature="0" />
	<path
   style="fill:#bc8a72"
   d="m 238.907,248.02 c -2.994,-0.006 -3.209,-0.408 -6.499,-1.849 -3.29,-1.438 -5.552,-1.851 -7.608,-1.645 -2.056,0.205 -1.233,2.878 -3.701,3.289 -2.468,0.41 -5.963,-0.822 -7.196,-1.852 -1.234,-1.026 -2.056,-3.7 -6.374,-4.316 -4.318,-0.617 -2.262,-2.058 -3.496,-3.906 -1.234,-1.852 -2.262,0.205 -6.374,0.616 -4.112,0.41 -4.318,-2.263 -7.402,-3.906 -3.084,-1.646 -4.523,-3.701 -5.141,-4.936 -0.617,-1.233 -3.906,-2.262 -6.785,-3.29 -2.878,-1.027 -2.467,-2.879 -3.906,-5.346 -1.439,-2.468 -4.523,-0.823 -4.523,-0.823 l -0.206,-0.409 c 0,0 0,0 1.233,-3.496 1.234,-3.495 1.645,-2.879 1.645,-6.168 0,-3.29 4.935,-2.469 10.281,-5.142 5.346,-2.673 6.374,-3.084 7.402,-6.374 1.028,-3.29 0.305,-1.195 2.772,-6.748 2.467,-5.551 7.717,0.827 7.717,0.827 0,0 3.876,1.037 7.166,1.653 3.29,0.617 4.073,-0.612 5.512,0.827 1.439,1.438 5.619,2.617 7.264,4.263 1.645,1.646 2.262,3.29 1.233,7.813 -1.028,4.523 -0.613,5.131 2.06,5.541 2.673,0.412 3.273,0.732 4.918,3.405 1.645,2.673 4.536,5.035 5.153,5.446 0.617,0.411 4.318,0.411 6.785,0.411 2.467,0 4.935,2.057 4.935,2.057 0,0 -0.823,5.346 -0.617,8.43 0.205,3.085 -2.302,7.896 -2.302,8.718 0,0.821 -2.221,3.331 -2.221,5.182 0.001,0.001 -0.25,1.731 -1.725,1.728 z"
   id="path298"
   inkscape:connector-curvature="0" />
	<path
   style="fill:#946e59"
   d="m 190.257,198.469 c 0,0 1.908,3.234 4.626,5.409 2.718,2.175 5.437,4.35 7.067,4.895 1.631,0.543 6.524,5.979 10.33,7.609 3.806,1.631 8.155,1.088 10.873,4.351 2.718,3.262 0,4.893 5.98,5.437 5.98,0.544 8.155,0 10.873,0.544 2.718,0.544 8.155,0 8.155,0 0,0 -0.846,-0.242 -1.422,-1.539 -0.576,-1.297 1.729,-0.288 -0.864,-2.161 -2.594,-1.873 -1.585,-0.863 -6.196,-1.873 -4.61,-1.009 -3.746,-0.288 -6.339,-2.306 -2.593,-2.017 -4.034,-2.593 -5.907,-2.593 -1.873,0 -2.017,0.144 -5.331,-1.009 -3.313,-1.152 -3.89,-0.722 -5.331,-3.171 -1.44,-2.448 0.144,-2.594 -4.61,-4.755 -4.755,-2.16 -6.051,-1.873 -8.789,-3.602 -2.737,-1.729 -0.864,-1.297 -5.331,-3.891 -4.466,-2.594 -4.466,-1.297 -5.619,-3.458 -1.152,-2.161 -2.305,-3.745 -2.305,-3.745 0,0 -2.017,2.161 -2.017,3.313 0.001,1.152 2.157,2.545 2.157,2.545 z"
   id="path300"
   inkscape:connector-curvature="0" />
	<path
   style="fill:#946e59"
   d="m 249.044,226.037 c 0.604,0.949 3.458,-1.585 4.899,-1.008 1.441,0.576 4.034,1.729 5.907,0.72 1.873,-1.009 1.585,-1.297 4.18,-1.729 2.593,-0.433 4.897,-0.433 6.915,-1.297 2.018,-0.863 2.306,-1.729 4.898,-2.882 2.593,-1.151 4.898,-3.17 7.78,-4.467 2.881,-1.296 4.755,-1.44 7.78,-2.161 3.024,-0.72 5.187,-1.152 7.06,-3.746 1.873,-2.593 2.449,-3.602 4.034,-4.609 1.585,-1.009 2.594,-2.449 3.746,-3.025 1.152,-0.576 2.449,-3.17 2.449,-3.17 0,0 0,-1.297 -0.721,-2.594 -0.721,-1.296 -1.152,-2.449 -1.152,-2.449 0,0 -1.152,1.44 -1.152,2.018 0,0.578 0.721,2.306 -1.297,3.458 -2.018,1.152 -2.305,2.161 -3.746,3.025 -1.44,0.864 -2.017,0.576 -3.17,2.161 -1.152,1.585 -3.313,1.297 -4.466,2.882 -1.153,1.585 -0.434,2.449 -3.458,3.313 -3.026,0.864 -4.322,-0.287 -5.907,1.152 -1.585,1.441 -1.009,2.306 -2.737,2.594 -1.728,0.288 -3.458,-1.729 -6.195,0.146 -2.737,1.873 -3.313,2.017 -5.331,3.602 -2.018,1.585 -3.457,1.873 -5.042,2.307 -1.585,0.432 -4.468,0.863 -4.468,0.863 l -9.94,2.307 c 0,-0.004 -1.873,1.004 -0.866,2.589 z"
   id="path302"
   inkscape:connector-curvature="0" />
	<path
   style="fill:#bc8a72"
   d="m 246.773,239.049 c 0,0 -1.041,2.29 -1.041,3.54 0,1.249 -0.833,3.956 -0.417,4.998 0.417,1.041 2.132,2.271 2.94,2.593 0.809,0.322 1.225,0.531 1.85,-0.927 0.625,-1.458 1.875,-3.957 -0.208,-5.623 -2.083,-1.666 -1.25,-4.79 -1.875,-6.456 -0.625,-1.666 -1.249,1.875 -1.249,1.875 z"
   id="path304"
   inkscape:connector-curvature="0" />
	<path
   style="fill:#dfded1"
   d="m 306.602,283.454 c 0,0 1.071,0.268 1.785,0.268 0.714,0 1.963,0.269 2.143,-0.714 0.179,-0.981 0.356,-1.874 0.268,-2.854 -0.089,-0.981 -0.803,-3.748 -0.893,-4.017 -0.089,-0.269 -1.249,-2.319 -2.588,-3.479 l -0.446,1.784 0.893,1.784 c 0,0 -0.803,1.16 -1.069,1.785 -0.269,0.624 0.445,3.748 0.445,3.748 0,0 -0.805,0.804 -0.538,1.695 z"
   id="path306"
   inkscape:connector-curvature="0" />
	<path
   style="fill:#dfded1"
   d="m 185.642,285.356 c 0.252,0.146 -1.148,0.208 -2.584,-0.608 -0.681,-0.387 -1.292,-1.216 -1.217,-2.053 0.076,-0.836 0.836,-1.672 1.064,-2.585 0.228,-0.912 2.661,-3.726 2.965,-3.953 0.304,-0.229 0.836,-0.38 0.836,-0.38 0,0 0.456,0.836 0.456,1.063 0,0.229 -0.836,0.836 -0.608,1.748 0.228,0.913 -0.532,2.357 -0.304,2.965 0.228,0.608 0.76,0.913 0.76,1.979 0.001,1.063 -1.368,1.824 -1.368,1.824 z"
   id="path308"
   inkscape:connector-curvature="0" />
	<path
   style="fill:#79230f"
   d="m 238.776,173.874 c -0.691,0.149 -1.402,0.389 -1.879,0.911 -0.748,0.818 -0.702,2.131 -0.199,3.118 0.503,0.987 1.371,1.729 2.206,2.459 2.165,1.889 4.269,3.887 5.893,6.257 1.624,2.369 2.752,5.151 2.776,8.024 -0.183,-2.46 0.805,-4.98 2.608,-6.662 1.035,-0.966 2.302,-1.651 3.343,-2.609 2.975,-2.738 3.608,-7.123 4.061,-11.142 0.027,-0.242 0.045,-0.52 -0.122,-0.697 -0.3,-0.321 -0.827,-0.024 -1.145,0.279 -1.038,0.995 -1.99,2.08 -2.843,3.238 -0.284,0.386 -0.583,0.801 -1.032,0.972 -0.946,0.357 -1.876,-0.542 -2.429,-1.392 -0.552,-0.848 -1.229,-1.857 -2.241,-1.833 -0.321,0.008 -0.63,0.128 -0.951,0.146 -0.552,0.032 -1.071,-0.229 -1.579,-0.447 -2.02,-0.866 -4.315,-1.087 -6.467,-0.622 z"
   id="path310"
   inkscape:connector-curvature="0" />
	<path
   style="fill:#79230f"
   d="m 224.012,167.722 c 0.341,-0.239 0.741,-0.381 1.144,-0.489 1.269,-0.338 2.611,-0.357 3.866,-0.745 1.255,-0.388 2.489,-1.294 2.69,-2.592 0.169,-1.092 -0.425,-2.142 -0.996,-3.088 -1.222,-2.023 -2.444,-4.047 -3.667,-6.071 0.418,1.714 0.837,3.429 1.255,5.143 0.167,0.681 0.317,1.456 -0.074,2.036 -0.728,1.079 -2.43,0.461 -3.418,-0.385 -0.988,-0.847 -2.223,-1.91 -3.411,-1.38 0.9,5.749 -2.479,11.638 -7.417,14.714 -4.939,3.077 -11.128,3.646 -16.864,2.664 0.958,0.794 1.948,1.604 3.133,1.983 2.771,0.886 6.363,-0.624 8.389,1.463 0.596,-2.025 3.1,-2.662 5.191,-2.961 2.316,-0.331 4.632,-0.662 6.948,-0.992 0.103,-2.691 0.805,-5.358 2.042,-7.751 0.301,-0.585 0.651,-1.171 1.189,-1.549 z"
   id="path312"
   inkscape:connector-curvature="0" />
	<path
   style="fill:#79230f"
   d="m 241.626,160.401 c 1.998,2.707 3.126,6.055 5.528,8.411 0.366,0.359 0.871,0.714 1.35,0.533 0.33,-0.125 0.519,-0.462 0.681,-0.774 1.753,-3.382 3.506,-6.763 5.259,-10.145 1.153,-2.225 2.34,-4.611 2.094,-7.105 -0.914,0.837 -1.362,2.053 -2.036,3.093 -1.307,2.016 -3.566,3.385 -5.958,3.61 -2.392,0.225 -4.867,-0.699 -6.526,-2.436 -0.437,-0.029 -0.827,0.45 -0.708,0.872 -1.777,-1.512 -3.424,-3.177 -4.917,-4.97 -0.038,1.762 0.801,3.434 1.854,4.847 1.054,1.413 2.334,2.646 3.379,4.064 z"
   id="path314"
   inkscape:connector-curvature="0" />
	<path
   style="fill:#79230f"
   d="m 232.923,146.306 c 0.341,0.245 0.731,0.417 1.136,0.527 1.347,0.367 2.868,0.014 3.915,-0.909 1.047,-0.923 1.588,-2.388 1.394,-3.77 -0.077,1.552 -1.803,2.614 -3.353,2.496 -1.55,-0.119 -2.897,-1.085 -4.059,-2.117 -0.607,1.272 -0.178,2.951 0.967,3.773 z"
   id="path316"
   inkscape:connector-curvature="0" />
	<path
   style="fill:#79230f"
   d="m 264.187,141.635 c -0.247,0.009 -0.496,0.019 -0.745,0.027 -0.387,0.63 -1.125,0.974 -1.857,1.075 -2.125,0.292 -4.308,-1.462 -4.479,-3.6 -0.772,1.138 -1.573,2.573 -0.964,3.807 0.388,0.784 1.25,1.218 2.094,1.447 2.359,0.638 5.417,-0.37 5.951,-2.756 z"
   id="path318"
   inkscape:connector-curvature="0" />
	<path
   style="fill:#79230f"
   d="m 284.171,180.502 c 3.254,0.785 6.544,1.574 9.893,1.577 5.588,0.006 11.144,-2.296 15.091,-6.252 -5.485,2.832 -11.991,2.539 -18.153,2.179 -1.134,-0.066 -2.292,-0.139 -3.341,-0.574 -1.423,-0.591 -2.491,-1.78 -3.708,-2.727 -1.294,-1.005 -2.781,-1.746 -4.044,-2.79 -3.545,-2.93 -4.829,-8.288 -2.998,-12.507 -1.075,1.924 -3.332,2.915 -5.521,3.17 -1.139,0.133 -2.377,0.077 -3.304,-0.597 -0.927,-0.675 -1.333,-2.141 -0.572,-2.998 -1.29,0.896 -1.966,2.595 -1.642,4.132 0.323,1.537 1.627,2.82 3.169,3.119 0.715,0.139 1.492,0.092 2.119,0.463 0.402,0.238 0.693,0.622 0.974,0.996 0.962,1.286 1.925,2.572 2.888,3.858 0.248,0.333 0.509,0.695 0.517,1.111 0.009,0.47 -0.304,0.874 -0.527,1.287 -0.517,0.954 -0.582,2.141 -0.173,3.146 1.447,-0.336 2.896,-0.673 4.343,-1.01 -0.39,2.426 2.602,3.841 4.989,4.417 z"
   id="path320"
   inkscape:connector-curvature="0" />
	<path
   style="fill:#79230f"
   d="m 175.93,185.396 c 0.485,-0.252 0.786,0.527 1.065,0.997 0.362,0.607 1.118,0.829 1.803,1.001 1.098,0.274 2.195,0.55 3.292,0.823 1.43,0.357 3.076,0.679 4.269,-0.188 0.884,-0.642 1.267,-1.894 0.893,-2.918 -0.821,-2.251 -4.299,-2.478 -5.26,-4.671 -0.354,-0.809 -0.284,-1.729 -0.208,-2.607 0.144,-1.672 0.288,-3.344 0.432,-5.016 2.684,3.781 5.867,7.209 9.441,10.165 -1.114,0.135 -2.1,1.015 -2.358,2.105 -0.219,0.926 0.042,1.939 -0.312,2.822 -0.418,1.042 -1.658,1.995 -1.16,3.002 -3.076,-0.411 -6.212,-0.377 -9.279,0.101 -0.716,0.111 -1.489,0.239 -2.133,-0.093 -1.239,-0.637 -1.22,-2.479 -2.212,-3.459 -1.316,-1.299 -4.133,-0.858 -4.649,-2.634 1.42,0.367 2.84,0.732 4.26,1.101 0.609,0.157 1.357,0.277 1.783,-0.187 0.109,-0.117 0.19,-0.27 0.333,-0.344 z"
   id="path322"
   inkscape:connector-curvature="0" />
	<path
   style="fill:#79230f"
   d="m 148.476,204.514 c 0.662,-0.53 1.682,-0.227 2.311,0.344 0.628,0.569 1.03,1.35 1.63,1.949 1.099,1.099 2.704,1.462 4.175,1.96 1.471,0.498 3.026,1.33 3.494,2.812 0.151,0.479 0.178,1.005 0.429,1.439 0.895,1.555 3.929,1.036 4.342,2.78 1.032,-2.488 2.064,-4.978 3.096,-7.466 0.539,-1.298 1.088,-2.7 0.783,-4.072 -0.251,-1.129 -1.058,-2.092 -1.209,-3.238 -0.088,-0.665 0.053,-1.338 0.071,-2.008 0.086,-3.364 -2.905,-6.319 -2.527,-9.666 -2.41,2.246 -4.978,4.321 -7.679,6.206 1.884,-0.31 3.769,-0.62 5.653,-0.931 0.813,-0.134 1.762,-0.229 2.349,0.35 0.299,0.293 0.438,0.709 0.563,1.109 1.042,3.375 1.631,6.89 1.746,10.42 0.013,0.408 0,0.868 -0.294,1.15 -0.207,0.197 -0.505,0.261 -0.787,0.306 -1.029,0.162 -2.101,0.198 -3.098,-0.103 -1.741,-0.525 -3.052,-2.027 -3.786,-3.69 -0.734,-1.664 -0.974,-3.496 -1.207,-5.3 0.634,0.929 0.155,2.32 -0.809,2.9 -0.964,0.579 -2.22,0.468 -3.24,-0.008 -1.02,-0.475 -1.853,-1.264 -2.667,-2.039 -1.259,-1.2 -2.571,-2.483 -3.043,-4.159 -1.826,3.541 -2.013,7.887 -0.499,11.57 0.116,-0.865 0.184,-1.74 0.203,-2.615 z"
   id="path324"
   inkscape:connector-curvature="0" />
	<path
   style="fill:#79230f"
   d="m 149.13,227.49 c 1.006,-1.08 1.767,-2.388 2.211,-3.795 -0.793,1.302 -1.881,2.423 -3.158,3.255 -1.313,0.854 -2.864,1.447 -3.817,2.69 -0.393,0.513 -0.659,1.107 -1.006,1.652 -0.983,1.545 -2.637,2.646 -4.441,2.956 0.183,1.326 0.786,2.593 0.764,3.931 -0.01,0.579 -0.137,1.149 -0.264,1.715 -0.43,1.911 -0.859,3.821 -1.289,5.732 1.123,0.739 2.635,-0.033 3.575,-0.993 0.94,-0.96 1.765,-2.179 3.061,-2.534 0.653,0.697 1.333,1.414 2.213,1.786 0.88,0.372 2.021,0.306 2.648,-0.416 0.379,-0.437 0.516,-1.036 0.858,-1.503 0.452,-0.615 1.196,-0.925 1.853,-1.314 2.345,-1.395 3.697,-3.952 4.934,-6.385 -0.722,1.367 -2.169,2.233 -3.669,2.61 -1.5,0.377 -3.068,0.327 -4.614,0.275 -1.412,-0.047 -2.99,-0.169 -3.928,-1.226 -1.156,-1.302 -0.722,-3.416 0.322,-4.811 1.045,-1.389 2.56,-2.349 3.747,-3.625 z"
   id="path326"
   inkscape:connector-curvature="0" />
	<path
   style="fill:#79230f"
   d="m 307.738,185.543 c 0.912,-1.563 2.339,-2.818 4.005,-3.521 -0.47,0.586 -0.938,1.171 -1.408,1.757 -0.735,0.918 -1.517,2.075 -1.106,3.179 0.283,0.767 1.095,1.237 1.904,1.345 0.811,0.106 1.626,-0.088 2.415,-0.299 1.374,-0.368 2.732,-0.791 4.091,-1.213 0.707,-0.221 1.415,-0.44 2.122,-0.661 2.572,-0.8 5.145,-1.601 7.715,-2.401 -1.4,1.46 -4.131,1.138 -5.259,2.816 -0.523,0.781 -0.564,1.847 -1.212,2.531 -1.145,1.212 -3.158,0.421 -4.807,0.665 -1.343,0.199 -2.527,1.138 -3.884,1.149 -1.973,0.019 -3.371,-1.844 -4.43,-3.508 -0.221,-0.348 -0.45,-0.729 -0.415,-1.139 0.023,-0.251 0.142,-0.482 0.269,-0.7 z"
   id="path328"
   inkscape:connector-curvature="0" />
	<path
   style="fill:#79230f"
   d="m 335.817,196.851 c -0.342,-0.971 -0.979,-1.814 -1.729,-2.52 -1.25,-1.175 -2.937,-2.184 -3.209,-3.877 -1.293,1.393 -1.865,3.287 -2.396,5.111 -0.728,2.486 -1.459,5.021 -1.404,7.611 0.055,2.59 1.021,5.293 3.108,6.827 0.878,0.646 1.909,1.058 2.766,1.729 3.026,2.377 3.018,7.18 5.796,9.845 0.82,0.786 1.938,1.983 1.155,2.808 1.467,-1.516 3.356,-2.617 5.398,-3.146 -2.023,-0.107 -3.958,-1.305 -4.959,-3.066 -1,-1.764 -1.035,-4.037 -0.089,-5.83 1.618,-3.065 5.494,-4.237 7.571,-7.014 1.556,-2.078 1.903,-4.997 0.883,-7.383 -0.919,3.359 -4.045,5.564 -6.973,7.454 -1.897,1.224 -3.874,2.463 -6.104,2.813 -2.229,0.351 -4.797,-0.426 -5.88,-2.406 -0.702,-1.284 -0.678,-2.84 -0.481,-4.291 0.229,-1.685 0.723,-3.44 1.979,-4.586 1.254,-1.144 3.459,-1.369 4.568,-0.079 z"
   id="path330"
   inkscape:connector-curvature="0" />
	<path
   style="fill:#79230f"
   d="m 348.224,235.994 c -0.618,0.472 -1.402,0.759 -1.857,1.39 -0.268,0.369 -0.396,0.826 -0.668,1.19 -0.273,0.364 -0.8,0.62 -1.184,0.374 0.693,1.587 1.221,3.247 1.568,4.942 1.136,-0.137 2.271,-0.272 3.406,-0.408 1.667,-0.2 3.402,-0.395 4.983,0.171 1.58,0.563 2.938,2.135 2.671,3.791 0.499,-1.516 0.065,-3.155 -0.208,-4.729 -0.729,-4.19 -0.287,-8.488 0.155,-12.719 -0.171,1.665 -2.318,2.764 -3.77,1.926 -0.395,-0.228 -0.719,-0.556 -1.036,-0.881 -1.081,-1.1 -2.161,-2.199 -3.241,-3.299 0.44,1.41 0.885,2.848 0.881,4.325 -0.003,1.478 -0.525,3.031 -1.7,3.927 z"
   id="path332"
   inkscape:connector-curvature="0" />
	<path
   style="fill:#79230f"
   d="m 329.553,282 c 1.044,0.206 2.148,0.356 3.154,0.009 0.707,-0.244 1.309,-0.718 1.896,-1.182 1.997,-1.581 3.993,-3.162 5.99,-4.743 1.451,-1.149 2.911,-2.307 4.119,-3.709 2.412,-2.8 3.668,-6.386 4.871,-9.879 0.12,-0.348 0.241,-0.719 0.154,-1.075 -0.09,-0.366 -0.379,-0.643 -0.64,-0.916 -3.245,-3.403 -3.036,-9.483 0.436,-12.656 -3.793,2.665 -5.613,7.843 -4.322,12.294 0.627,2.163 1.748,4.899 0.007,6.327 -0.463,0.38 -1.054,0.565 -1.557,0.893 -1.965,1.274 -1.994,4.163 -3.405,6.032 -0.781,1.035 -1.945,1.7 -3.075,2.336 -4.036,2.273 -8.278,4.606 -12.909,4.744 1.713,0.658 3.481,1.169 5.281,1.525 z"
   id="path334"
   inkscape:connector-curvature="0" />
	<path
   style="fill:#79230f"
   d="m 181.284,292.315 c -1.588,-0.324 -3.394,-0.266 -4.596,-1.354 -1.053,-0.953 -1.29,-2.479 -1.747,-3.824 -1.293,-3.798 -4.95,-6.675 -8.946,-7.037 3.792,0.962 6.551,4.408 7.771,8.124 1.22,3.718 1.163,7.715 1.094,11.625 0.337,-1.385 0.756,-2.798 1.662,-3.896 0.906,-1.1 2.418,-1.814 3.779,-1.396 1.42,0.438 2.235,1.893 2.844,3.247 1.192,2.65 2.152,5.406 2.865,8.226 2.941,2.002 7.15,-1.015 10.426,0.375 2.107,0.894 3.897,3.543 6.013,2.671 -0.76,0.982 0.464,2.377 1.687,2.604 1.222,0.229 2.564,-0.069 3.669,0.501 2.205,1.143 2.005,4.905 4.302,5.849 -0.003,-2.192 -0.006,-4.385 -0.01,-6.575 -4.007,-0.083 -6.725,-3.943 -10.103,-6.101 -2.414,-1.542 -5.282,-2.239 -7.735,-3.719 -4.612,-2.78 -7.699,-8.242 -12.975,-9.32 z"
   id="path336"
   inkscape:connector-curvature="0" />
	<path
   style="fill:#79230f"
   d="m 326.178,296.87 c -3.841,-1.485 -8.697,0.887 -9.89,4.828 -0.16,0.533 -0.287,1.125 -0.717,1.479 -0.828,0.684 -2.238,0.066 -3.063,0.753 -0.46,0.383 -0.563,1.037 -0.847,1.565 -0.769,1.436 -2.736,1.735 -4.325,1.383 -1.589,-0.352 -3.068,-1.169 -4.688,-1.332 -3.14,-0.313 -5.93,1.842 -8.342,3.874 -2.05,1.729 -4.1,3.454 -6.147,5.181 0.155,-3.635 2.477,-6.976 5.582,-8.868 3.104,-1.894 6.893,-2.456 10.514,-2.117 0.533,0.05 1.087,0.115 1.588,-0.069 1.102,-0.405 1.445,-1.749 1.794,-2.869 0.35,-1.119 1.206,-2.392 2.356,-2.164 -0.082,0.885 0.912,1.562 1.797,1.498 0.886,-0.063 1.646,-0.621 2.354,-1.157 2.468,-1.869 4.935,-3.74 7.4,-5.61 0.917,-0.695 1.877,-1.447 2.292,-2.521 0.941,-2.439 -1.341,-4.973 -1.332,-7.588 3.981,3.153 5.547,9.015 3.674,13.734 z"
   id="path338"
   inkscape:connector-curvature="0" />
	<path
   style="fill:#79230f"
   d="m 152.873,282.66 c 1.108,-3.34 3.703,-6.155 6.941,-7.532 -1.349,0.816 -3.052,-0.551 -3.596,-2.03 -0.544,-1.479 -0.539,-3.181 -1.43,-4.48 -0.506,-0.738 -1.252,-1.271 -1.9,-1.886 -2.129,-2.027 -3.188,-5.119 -2.749,-8.025 0.265,-1.755 1.032,-3.396 1.43,-5.125 0.398,-1.729 0.362,-3.719 -0.789,-5.07 0.845,2.646 -1.749,4.98 -3.163,7.372 -1.724,2.915 -1.687,6.785 0.092,9.667 1.446,2.342 4.022,4.357 3.839,7.104 -0.094,1.416 -0.945,2.668 -1.261,4.052 -0.517,2.255 0.583,4.789 2.586,5.953 z"
   id="path340"
   inkscape:connector-curvature="0" />
	<path
   style="fill:#a63417"
   d="m 220.191,329.885 c -0.569,-0.705 -1.153,-1.401 -1.759,-2.078 0.209,0.73 0.267,1.216 0.267,1.216 0,0 -3.276,0.764 -5.569,-0.22 -2.293,-0.981 -3.385,-2.075 -4.368,-3.275 -0.983,-1.201 -0.328,-3.604 -0.328,-3.604 0.303,-0.096 0.644,-0.172 1.007,-0.229 -0.568,-0.147 -1.146,-0.262 -1.733,-0.321 -0.097,-0.01 -0.207,-0.015 -0.279,0.051 l -0.074,0.116 c -0.499,1.104 -0.458,2.396 -0.104,3.554 0.353,1.159 0.996,2.206 1.679,3.206 0.518,0.759 1.07,1.506 1.769,2.104 1.387,1.187 3.256,1.688 5.081,1.737 1.824,0.053 3.632,-0.311 5.422,-0.67 -0.221,-0.593 -0.616,-1.097 -1.011,-1.587 z"
   id="path342"
   inkscape:connector-curvature="0" />
	<path
   style="fill:#a63417"
   d="m 241.952,324.9 c -0.178,-1.548 -0.812,-3 -1.438,-4.427 -0.27,-0.613 -0.539,-1.229 -0.809,-1.843 0.332,2.124 0.004,4.34 -0.899,6.289 0.176,0.005 0.354,0.021 0.533,0.062 0,0 0.546,1.855 0.327,3.604 -0.218,1.747 -0.655,2.84 -1.092,3.167 -0.437,0.328 -1.638,2.621 -6.771,0.655 0,0 0.027,-0.149 0.093,-0.401 -0.177,0.416 -0.255,0.872 -0.204,1.322 0.062,0.538 0.3,1.066 0.716,1.413 0.289,0.24 0.648,0.382 1.012,0.475 1.668,0.428 3.49,-0.121 4.845,-1.186 1.354,-1.063 2.284,-2.59 2.913,-4.193 0.613,-1.567 0.967,-3.266 0.774,-4.937 z"
   id="path344"
   inkscape:connector-curvature="0" />
	<path
   style="fill:#a63417"
   d="m 264.003,332.726 c -0.769,0.612 -2.513,1.51 -5.119,0.009 -3.268,-1.882 -2.228,-4.483 -2.005,-7.558 -2.332,-1.581 -5.388,0.31 -8.448,-6.354 -0.116,3.26 1.678,5.815 2.777,7.932 1.466,2.821 0.334,2.257 2.633,4.453 1.16,1.109 2.495,2.017 3.823,2.919 1.148,0.78 2.382,1.589 3.771,1.626 1.389,0.037 2.897,-1.067 2.739,-2.447 -0.024,-0.209 -0.09,-0.399 -0.171,-0.58 z"
   id="path346"
   inkscape:connector-curvature="0" />
	<path
   style="fill:#a63417"
   d="m 290.201,322.283 c -0.476,-0.542 -1.276,-0.635 -1.996,-0.616 -0.396,0.01 -0.788,0.051 -1.18,0.105 0.259,0.186 0.453,0.423 0.578,0.695 0.547,1.201 -0.872,4.15 -2.184,4.807 -1.228,0.612 -4.179,1.992 -7.868,1.627 -0.916,1.188 -1.832,2.379 -2.748,3.567 2.034,0.352 4.104,0.627 6.16,0.444 2.056,-0.183 4.12,-0.857 5.674,-2.218 1.625,-1.423 2.563,-3.454 3.438,-5.429 0.429,-0.961 0.822,-2.189 0.126,-2.982 z"
   id="path348"
   inkscape:connector-curvature="0" />
</g>
</svg>