<svg xmlns="http://www.w3.org/2000/svg" viewBox="0 0 123.717 529.862"><path d="M109.641 412.266c-.964 5.785-30.152-.344-36.521-2.264-1.955-.589-11.182 4.001-16.757 6.955-10.113 5.358-19.763 11.607-29.972 16.759-9.704 4.898-26.524-6.233-26.39-17.102.026-2.095.41-5.169 1.777-6.096 6.037-4.091 12.169-8.347 18.859-11.112 19.889-8.219 19.998-7.956 19.998-30.938 0-3.769.565-7.64-.1-11.288-2.633-14.453 3.045-23.442 17.042-27.457 9.856-2.827 12.611-9.701 12.604-19.514-.015-20.914-.471-40.702-.471-61.027 0-15.383 1.948-32.754-7.971-42.673-.632-.632-.397-1.636-.115-1.734 1.835-.635 6.658-.06 9.292-.349.507-.056.893-.484.893-.995v-44.7c0-.535-.42-.978-.955-1.002-9.285-.412-18.69-.161-18.713-12.968-.073-39.947-.257-79.899.341-119.837.059-3.974 4.465-10.225 8.098-11.332 8.091-2.464 16.91-2.539 26.358-3.596.473-.053.85-.435.893-.909l.753-8.181c.049-.512.481-.906.998-.906h19.689c.528 0 .966.411.999.938l.937 14.842c.031.497.438.896.901.933l8.196.657c.52.042.91.475.91.997v271.205c0 .478-.323.886-.856.992l-6.619 1.317a1.02 1.02 0 00-.819.989c-.001 17.878-.019 38.278.03 55.702m-45.234 20.899a1 1 0 00-.197-1.765l-10.045-3.88c-.748-.289-.879-1.311-.212-1.756 4.835-3.227 10.002-5.506 11.78-9.351 1.666-3.604-.948-9.664-2.876-14.113-.477-1.101-6.532-1.369-8.458.072-3.901 2.919-8.906 6.929-9.559 11.099-1.415 9.041-.471 18.45-.446 27.716-.332 4.498 2.918 3.75 4.48 2.397l15.533-10.419z"/><path d="M71.083 213.222v194.105c0 1.365.952 2.544 2.287 2.832l18.623 4.014c6.623.984 11.184-3.145 11.184-9.03v-191.92c0-1.6-1.297-2.897-2.897-2.897h-26.3a2.895 2.895 0 00-2.897 2.896z" fill="#212121"/><path d="M11.624 414.205c-3.4 2.117-6.037 4.205-2.373 8.294 3.281 3.662 6.638 7.917 12.192 5.892 4.384-1.599 9.402-3.594 12.205-7.003 9.513-11.569 22.541-14.422 36.128-16.509 7.051-8.819 6.453-14.793-2.262-22.594" fill="#292828"/><path d="M101.507 414.205h9.234c1.188 0 2.15-1.256 2.15-2.806V206.525c0-1.549-.963-2.806-2.15-2.806h-9.234" fill="#3b3b3b"/><path d="M89.109 455.444c-5.964 18.218-10.011 36.773-14.106 55.389-1.651 7.504 1.829 14.138 8.7 12.324 12.949-3.418 21.724-5.349 37.459-8.929.127-23.666.255-47.905.376-71.571.006-1.127.406-2.589-.142-3.331-10.587-14.353-2.937-28.317.168-42.843 2.364-11.061 2.435-21.349 1.84-32.126-8.023.054-8.095 6.768-9.401 11.871" fill="#6e4428"/><path d="M121.162 514.229c-11.04 2.068-22.074 4.172-33.122 6.192-8.155 1.492-11.905-.174-9.763-10.027 5.667-26.072 12.102-51.828 23.274-76.186.623-1.359 1.917-3.366 1.427-4.136-7.248-11.394 3.531-17.918 6.806-26.494 3.331-8.72 7.452-17.158 7.839-26.921.164-4.144 1.335-9.074 5.78-11.726-.147-6.455.426-11.635-3.608-15.813-1.633-1.692-4.292-2.197-6.309-.987-3.38 2.027-3.54 6.351-3.852 9.897-.444 5.053-.444 9.43-.558 14.157-.499 8.939-2.544 17.688-3.491 26.58-.516 7.184-1.957 13.611-11.187 13.658-4.078 1.34-7.047 3.295-3.351 7.814 4.454 5.447 3.4 11.282 1.259 17.026-3.604 9.67-5.211 19.98-9.588 29.386-6.609 16.57-8.872 34.276-13.042 51.462-2.926 12.061-.381 13.399 12.123 10.372 11.354-2.749 22.761-5.539 34.307-7.115 5.589-.762 6.008-2.886 5.056-7.139z" fill="#4f2f1b"/><path d="M82.717 466.651c8.453-10.358 8.925-24.187 15.411-35.464 2.343-4.073-.335-8.014-3.722-10.734-3.55-2.85-3.137-5.35-.009-8.028l-9.349.236c9.254 14.887 3.042 29.696-.713 44.303-.841 3.272-.701 6.536-1.618 9.687z" fill="#361e10"/><path d="M61.345 205.616v-.498c0-.769.629-1.398 1.398-1.398h39.035c.769 0 1.398.629 1.398 1.398v.498c0 .769-.629 1.398-1.398 1.398H62.743a1.402 1.402 0 01-1.398-1.398z" fill="#212121"/><path d="M99.013 278.514v118.347l2.494-4.528V273.987zM79.208 210.325v131.996l2.493-4.527V210.325z"/><path fill="#383838" d="M73.679 210.325v146.851l4.644-5.074V210.325z"/><path d="M85.214 220.578v41.564a4.538 4.538 0 004.525 4.525h12.734a4.538 4.538 0 004.525-4.525v-41.564a4.538 4.538 0 00-4.525-4.525H89.739a4.538 4.538 0 00-4.525 4.525z"/><path d="M101.622 218.048H90.654a4.1 4.1 0 00-4.088 4.088v38.827a4.1 4.1 0 004.088 4.088h10.968" fill="#3d3d3d"/><path d="M101.622 265.051a4.1 4.1 0 004.088-4.088v-38.827a4.1 4.1 0 00-4.088-4.088" fill="#6c6c6c"/><path d="M94.656 247.874v-29.827h1.903v29.827z"/><path d="M71.868 200.793h6.997a4.538 4.538 0 004.525-4.525v-39.53a4.538 4.538 0 00-4.525-4.525h-6.997" fill="#3e3e3e"/><path d="M112.891 24.822v171.446a4.538 4.538 0 01-4.525 4.525H91.655a4.538 4.538 0 01-4.525-4.525V24.822a4.538 4.538 0 014.525-4.525h16.711a4.539 4.539 0 014.525 4.525z" fill="#252525"/><path fill="#6c6c6c" d="M101.622 200.793V20.297h6.743v180.496z"/><path fill="#3d3d3d" d="M96.559 200.793V20.297h5.064v180.496z"/><path d="M96.528 25.291v129.606c0 4.978-4.073 9.05-9.05 9.05H61.467c-4.978 0-9.05-4.073-9.05-9.05V25.291c0-4.978 4.073-9.05 9.05-9.05h26.011c4.978 0 9.05 4.072 9.05 9.05z" fill="#5f3a22"/><path d="M57.047 146.831h25.341a3.421 3.421 0 003.411-3.411 3.421 3.421 0 00-3.411-3.411H57.047M57.047 128.774h25.341a3.421 3.421 0 003.411-3.411 3.421 3.421 0 00-3.411-3.411H57.047M57.047 110.665h25.341a3.421 3.421 0 003.411-3.411 3.421 3.421 0 00-3.411-3.411H57.047M57.047 90.12h25.341a3.421 3.421 0 003.411-3.411 3.421 3.421 0 00-3.411-3.411H57.047M57.047 72.063h25.341a3.421 3.421 0 003.411-3.411 3.421 3.421 0 00-3.411-3.411H57.047M57.047 53.953h25.341a3.421 3.421 0 003.411-3.411 3.421 3.421 0 00-3.411-3.411H57.047M54.732 154.81a2.322 2.322 0 002.315-2.315V25.251a2.322 2.322 0 00-2.315-2.315 2.322 2.322 0 00-2.315 2.315v127.244a2.322 2.322 0 002.315 2.315zM57.047 36.274h25.341a3.421 3.421 0 003.411-3.411 3.421 3.421 0 00-3.411-3.411H57.047" fill="#361e10"/><path d="M58.349 143.42c0 .423.346.769.769.769h22.016a.771.771 0 00.769-.769.771.771 0 00-.769-.769H59.118a.771.771 0 00-.769.769zM58.349 125.363c0 .423.346.769.769.769h22.016a.771.771 0 00.769-.769.771.771 0 00-.769-.769H59.118a.771.771 0 00-.769.769zM58.349 107.254c0 .423.346.769.769.769h22.016a.771.771 0 00.769-.769.771.771 0 00-.769-.769H59.118a.771.771 0 00-.769.769zM58.349 86.734c0 .423.346.769.769.769h22.016a.771.771 0 00.769-.769.771.771 0 00-.769-.769H59.118a.771.771 0 00-.769.769zM58.349 68.677c0 .423.346.769.769.769h22.016a.771.771 0 00.769-.769.771.771 0 00-.769-.769H59.118a.771.771 0 00-.769.769zM58.349 50.568c0 .423.346.769.769.769h22.016a.771.771 0 00.769-.769.771.771 0 00-.769-.769H59.118a.771.771 0 00-.769.769zM58.349 32.863c0 .423.346.769.769.769h22.016a.771.771 0 00.769-.769.771.771 0 00-.769-.769H59.118a.771.771 0 00-.769.769z"/></svg>