<?xml version="1.0" encoding="UTF-8" standalone="no"?>
<!-- Generator: Adobe Illustrator 22.0.0, SVG Export Plug-In . SVG Version: 6.00 Build 0)  -->

<svg
   xmlns:dc="http://purl.org/dc/elements/1.1/"
   xmlns:cc="http://creativecommons.org/ns#"
   xmlns:rdf="http://www.w3.org/1999/02/22-rdf-syntax-ns#"
   xmlns:svg="http://www.w3.org/2000/svg"
   xmlns="http://www.w3.org/2000/svg"
   xmlns:sodipodi="http://sodipodi.sourceforge.net/DTD/sodipodi-0.dtd"
   xmlns:inkscape="http://www.inkscape.org/namespaces/inkscape"
   version="1.1"
   x="0px"
   y="0px"
   viewBox="0 0 123.71708 529.86035"
   xml:space="preserve"
   id="svg78"
   sodipodi:docname="controller.svg"
   width="123.71709"
   height="529.86035"
   inkscape:version="0.92.4 5da689c313, 2019-01-14"><metadata
   id="metadata84"><rdf:RDF><cc:Work
       rdf:about=""><dc:format>image/svg+xml</dc:format><dc:type
         rdf:resource="http://purl.org/dc/dcmitype/StillImage" /></cc:Work></rdf:RDF></metadata><defs
   id="defs82" /><sodipodi:namedview
   pagecolor="#ffffff"
   bordercolor="#666666"
   borderopacity="1"
   objecttolerance="10"
   gridtolerance="10"
   guidetolerance="10"
   inkscape:pageopacity="0"
   inkscape:pageshadow="2"
   inkscape:window-width="640"
   inkscape:window-height="480"
   id="namedview80"
   showgrid="false"
   inkscape:zoom="0.44539899"
   inkscape:cx="61.858297"
   inkscape:cy="264.92932"
   inkscape:window-x="0"
   inkscape:window-y="0"
   inkscape:window-maximized="0"
   inkscape:current-layer="svg78"><inkscape:grid
     type="xygrid"
     id="grid891"
     originx="-0.00020418234"
     originy="-0.001676477" /></sodipodi:namedview>
<g
   id="g76"
   transform="translate(-2.0418235e-4)">
	<g
   id="g4">
		<path
   d="m 109.641,412.266 c -0.964,5.785 -30.152,-0.344 -36.521,-2.264 -1.955,-0.589 -11.182,4.001 -16.757,6.955 -10.113,5.358 -19.763,11.607 -29.972,16.759 -9.704,4.898 -26.524,-6.233 -26.39,-17.102 0.026,-2.095 0.41,-5.169 1.777,-6.096 6.037,-4.091 12.169,-8.347 18.859,-11.112 19.889,-8.219 19.998,-7.956 19.998,-30.938 0,-3.769 0.565,-7.64 -0.1,-11.288 -2.633,-14.453 3.045,-23.442 17.042,-27.457 9.856,-2.827 12.611,-9.701 12.604,-19.514 -0.015,-20.914 -0.471,-40.702 -0.471,-61.027 0,-15.383 1.948,-32.754 -7.971,-42.673 -0.632,-0.632 -0.397,-1.636 -0.115,-1.734 1.835,-0.635 6.658,-0.06 9.292,-0.349 0.507,-0.056 0.893,-0.484 0.893,-0.995 v -44.7 c 0,-0.535 -0.42,-0.978 -0.955,-1.002 -9.285,-0.412 -18.69,-0.161 -18.713,-12.968 C 52.068,104.814 51.884,64.862 52.482,24.924 52.541,20.95 56.947,14.699 60.58,13.592 68.671,11.128 77.49,11.053 86.938,9.996 87.411,9.943 87.788,9.561 87.831,9.087 L 88.584,0.906 C 88.633,0.394 89.065,0 89.582,0 h 19.689 c 0.528,0 0.966,0.411 0.999,0.938 l 0.937,14.842 c 0.031,0.497 0.438,0.896 0.901,0.933 l 8.196,0.657 c 0.52,0.042 0.91,0.475 0.91,0.997 v 271.205 c 0,0.478 -0.323,0.886 -0.856,0.992 l -6.619,1.317 c -0.468,0.093 -0.819,0.511 -0.819,0.989 -0.001,17.878 -0.019,38.278 0.03,55.702 m -45.234,20.899 c 0.673,-0.451 0.559,-1.473 -0.197,-1.765 l -10.045,-3.88 c -0.748,-0.289 -0.879,-1.311 -0.212,-1.756 4.835,-3.227 10.002,-5.506 11.78,-9.351 1.666,-3.604 -0.948,-9.664 -2.876,-14.113 -0.477,-1.101 -6.532,-1.369 -8.458,0.072 -3.901,2.919 -8.906,6.929 -9.559,11.099 -1.415,9.041 -0.471,18.45 -0.446,27.716 -0.332,4.498 2.918,3.75 4.48,2.397 z"
   id="path2"
   inkscape:connector-curvature="0" />
	</g>
	<path
   style="fill:#212121"
   d="m 71.083,213.222 v 194.105 c 0,1.365 0.952,2.544 2.287,2.832 l 18.623,4.014 c 6.623,0.984 11.184,-3.145 11.184,-9.03 v -191.92 c 0,-1.6 -1.297,-2.897 -2.897,-2.897 h -26.3 c -1.6,-0.001 -2.897,1.296 -2.897,2.896 z"
   id="path6"
   inkscape:connector-curvature="0" />
	<path
   style="fill:#292828"
   d="m 11.624,414.205 c -3.4,2.117 -6.037,4.205 -2.373,8.294 3.281,3.662 6.638,7.917 12.192,5.892 4.384,-1.599 9.402,-3.594 12.205,-7.003 9.513,-11.569 22.541,-14.422 36.128,-16.509 7.051,-8.819 6.453,-14.793 -2.262,-22.594 z"
   id="path8"
   inkscape:connector-curvature="0" />
	<path
   style="fill:#3b3b3b"
   d="m 101.507,414.205 h 9.234 c 1.188,0 2.15,-1.256 2.15,-2.806 V 206.525 c 0,-1.549 -0.963,-2.806 -2.15,-2.806 h -9.234"
   id="path10"
   inkscape:connector-curvature="0" />
	<g
   id="g18">
		<path
   style="fill:#6e4428"
   d="m 89.109,455.444 c -5.964,18.218 -10.011,36.773 -14.106,55.389 -1.651,7.504 1.829,14.138 8.7,12.324 12.949,-3.418 21.724,-5.349 37.459,-8.929 0.127,-23.666 0.255,-47.905 0.376,-71.571 0.006,-1.127 0.406,-2.589 -0.142,-3.331 -10.587,-14.353 -2.937,-28.317 0.168,-42.843 2.364,-11.061 2.435,-21.349 1.84,-32.126 -8.023,0.054 -8.095,6.768 -9.401,11.871"
   id="path12"
   inkscape:connector-curvature="0" />
		<path
   style="fill:#4f2f1b"
   d="m 121.162,514.229 c -11.04,2.068 -22.074,4.172 -33.122,6.192 -8.155,1.492 -11.905,-0.174 -9.763,-10.027 5.667,-26.072 12.102,-51.828 23.274,-76.186 0.623,-1.359 1.917,-3.366 1.427,-4.136 -7.248,-11.394 3.531,-17.918 6.806,-26.494 3.331,-8.72 7.452,-17.158 7.839,-26.921 0.164,-4.144 1.335,-9.074 5.78,-11.726 -0.147,-6.455 0.426,-11.635 -3.608,-15.813 -1.633,-1.692 -4.292,-2.197 -6.309,-0.987 -3.38,2.027 -3.54,6.351 -3.852,9.897 -0.444,5.053 -0.444,9.43 -0.558,14.157 -0.499,8.939 -2.544,17.688 -3.491,26.58 -0.516,7.184 -1.957,13.611 -11.187,13.658 -4.078,1.34 -7.047,3.295 -3.351,7.814 4.454,5.447 3.4,11.282 1.259,17.026 -3.604,9.67 -5.211,19.98 -9.588,29.386 -6.609,16.57 -8.872,34.276 -13.042,51.462 -2.926,12.061 -0.381,13.399 12.123,10.372 11.354,-2.749 22.761,-5.539 34.307,-7.115 5.589,-0.762 6.008,-2.886 5.056,-7.139 z"
   id="path14"
   inkscape:connector-curvature="0" />
		<path
   style="fill:#361e10"
   d="m 82.717,466.651 c 8.453,-10.358 8.925,-24.187 15.411,-35.464 2.343,-4.073 -0.335,-8.014 -3.722,-10.734 -3.55,-2.85 -3.137,-5.35 -0.009,-8.028 -3.117,0.078 -6.233,0.157 -9.349,0.236 9.254,14.887 3.042,29.696 -0.713,44.303 -0.841,3.272 -0.701,6.536 -1.618,9.687 z"
   id="path16"
   inkscape:connector-curvature="0" />
	</g>
	<path
   style="fill:#212121"
   d="m 61.345,205.616 v -0.498 c 0,-0.769 0.629,-1.398 1.398,-1.398 h 39.035 c 0.769,0 1.398,0.629 1.398,1.398 v 0.498 c 0,0.769 -0.629,1.398 -1.398,1.398 H 62.743 c -0.769,0 -1.398,-0.629 -1.398,-1.398 z"
   id="path20"
   inkscape:connector-curvature="0" />
	<polygon
   points="101.507,392.333 101.507,273.987 99.013,278.514 99.013,396.861 "
   id="polygon22" />
	<polygon
   points="81.701,337.794 81.701,210.325 79.208,210.325 79.208,342.321 "
   id="polygon24" />
	<polygon
   style="fill:#383838"
   points="78.323,352.102 78.323,210.325 73.679,210.325 73.679,357.176 "
   id="polygon26" />
	<path
   d="m 85.214,220.578 v 41.564 c 0,2.489 2.036,4.525 4.525,4.525 h 12.734 c 2.489,0 4.525,-2.036 4.525,-4.525 v -41.564 c 0,-2.489 -2.036,-4.525 -4.525,-4.525 H 89.739 c -2.489,0 -4.525,2.036 -4.525,4.525 z"
   id="path28"
   inkscape:connector-curvature="0" />
	<path
   style="fill:#3d3d3d"
   d="M 101.622,218.048 H 90.654 c -2.248,0 -4.088,1.84 -4.088,4.088 v 38.827 c 0,2.248 1.84,4.088 4.088,4.088 h 10.968"
   id="path30"
   inkscape:connector-curvature="0" />
	<path
   style="fill:#6c6c6c"
   d="m 101.622,265.051 c 2.248,0 4.088,-1.84 4.088,-4.088 v -38.827 c 0,-2.248 -1.84,-4.088 -4.088,-4.088"
   id="path32"
   inkscape:connector-curvature="0" />
	
		<rect
   x="80.694"
   y="232.00999"
   transform="rotate(-90,95.6072,232.961)"
   width="29.827"
   height="1.903"
   id="rect34" />
	<path
   style="fill:#3e3e3e"
   d="m 71.868,200.793 h 6.997 c 2.489,0 4.525,-2.036 4.525,-4.525 v -39.53 c 0,-2.489 -2.036,-4.525 -4.525,-4.525 h -6.997"
   id="path36"
   inkscape:connector-curvature="0" />
	<path
   style="fill:#252525"
   d="m 112.891,24.822 v 171.446 c 0,2.489 -2.036,4.525 -4.525,4.525 H 91.655 c -2.489,0 -4.525,-2.036 -4.525,-4.525 V 24.822 c 0,-2.489 2.036,-4.525 4.525,-4.525 h 16.711 c 2.488,0 4.525,2.036 4.525,4.525 z"
   id="path38"
   inkscape:connector-curvature="0" />
	
		<rect
   x="14.746"
   y="107.173"
   transform="rotate(-90,104.994,110.5447)"
   style="fill:#6c6c6c"
   width="180.496"
   height="6.743"
   id="rect40" />
	
		<rect
   x="8.842"
   y="108.013"
   transform="rotate(-90,99.0904,110.5447)"
   style="fill:#3d3d3d"
   width="180.496"
   height="5.0640001"
   id="rect42" />
	<path
   style="fill:#5f3a22"
   d="m 96.528,25.291 v 129.606 c 0,4.978 -4.073,9.05 -9.05,9.05 H 61.467 c -4.978,0 -9.05,-4.073 -9.05,-9.05 V 25.291 c 0,-4.978 4.073,-9.05 9.05,-9.05 h 26.011 c 4.978,0 9.05,4.072 9.05,9.05 z"
   id="path44"
   inkscape:connector-curvature="0" />
	<path
   style="fill:#361e10"
   d="m 57.047,146.831 h 25.341 c 1.876,0 3.411,-1.535 3.411,-3.411 v 0 c 0,-1.876 -1.535,-3.411 -3.411,-3.411 H 57.047"
   id="path46"
   inkscape:connector-curvature="0" />
	<path
   style="fill:#361e10"
   d="m 57.047,128.774 h 25.341 c 1.876,0 3.411,-1.535 3.411,-3.411 v 0 c 0,-1.876 -1.535,-3.411 -3.411,-3.411 H 57.047"
   id="path48"
   inkscape:connector-curvature="0" />
	<path
   style="fill:#361e10"
   d="m 57.047,110.665 h 25.341 c 1.876,0 3.411,-1.535 3.411,-3.411 v 0 c 0,-1.876 -1.535,-3.411 -3.411,-3.411 H 57.047"
   id="path50"
   inkscape:connector-curvature="0" />
	<path
   style="fill:#361e10"
   d="m 57.047,90.12 h 25.341 c 1.876,0 3.411,-1.535 3.411,-3.411 v 0 c 0,-1.876 -1.535,-3.411 -3.411,-3.411 H 57.047"
   id="path52"
   inkscape:connector-curvature="0" />
	<path
   style="fill:#361e10"
   d="m 57.047,72.063 h 25.341 c 1.876,0 3.411,-1.535 3.411,-3.411 v 0 c 0,-1.876 -1.535,-3.411 -3.411,-3.411 H 57.047"
   id="path54"
   inkscape:connector-curvature="0" />
	<path
   style="fill:#361e10"
   d="m 57.047,53.953 h 25.341 c 1.876,0 3.411,-1.535 3.411,-3.411 v 0 c 0,-1.876 -1.535,-3.411 -3.411,-3.411 H 57.047"
   id="path56"
   inkscape:connector-curvature="0" />
	<path
   style="fill:#361e10"
   d="m 54.732,154.81 v 0 c 1.273,0 2.315,-1.042 2.315,-2.315 V 25.251 c 0,-1.273 -1.042,-2.315 -2.315,-2.315 v 0 c -1.273,0 -2.315,1.042 -2.315,2.315 v 127.244 c 0,1.273 1.042,2.315 2.315,2.315 z"
   id="path58"
   inkscape:connector-curvature="0" />
	<path
   style="fill:#361e10"
   d="m 57.047,36.274 h 25.341 c 1.876,0 3.411,-1.535 3.411,-3.411 v 0 c 0,-1.876 -1.535,-3.411 -3.411,-3.411 H 57.047"
   id="path60"
   inkscape:connector-curvature="0" />
	<path
   d="m 58.349,143.42 v 0 c 0,0.423 0.346,0.769 0.769,0.769 h 22.016 c 0.423,0 0.769,-0.346 0.769,-0.769 v 0 c 0,-0.423 -0.346,-0.769 -0.769,-0.769 H 59.118 c -0.423,0 -0.769,0.346 -0.769,0.769 z"
   id="path62"
   inkscape:connector-curvature="0" />
	<path
   d="m 58.349,125.363 v 0 c 0,0.423 0.346,0.769 0.769,0.769 h 22.016 c 0.423,0 0.769,-0.346 0.769,-0.769 v 0 c 0,-0.423 -0.346,-0.769 -0.769,-0.769 H 59.118 c -0.423,0 -0.769,0.346 -0.769,0.769 z"
   id="path64"
   inkscape:connector-curvature="0" />
	<path
   d="m 58.349,107.254 v 0 c 0,0.423 0.346,0.769 0.769,0.769 h 22.016 c 0.423,0 0.769,-0.346 0.769,-0.769 v 0 c 0,-0.423 -0.346,-0.769 -0.769,-0.769 H 59.118 c -0.423,0 -0.769,0.346 -0.769,0.769 z"
   id="path66"
   inkscape:connector-curvature="0" />
	<path
   d="m 58.349,86.734 v 0 c 0,0.423 0.346,0.769 0.769,0.769 h 22.016 c 0.423,0 0.769,-0.346 0.769,-0.769 v 0 c 0,-0.423 -0.346,-0.769 -0.769,-0.769 H 59.118 c -0.423,0 -0.769,0.346 -0.769,0.769 z"
   id="path68"
   inkscape:connector-curvature="0" />
	<path
   d="m 58.349,68.677 v 0 c 0,0.423 0.346,0.769 0.769,0.769 h 22.016 c 0.423,0 0.769,-0.346 0.769,-0.769 v 0 c 0,-0.423 -0.346,-0.769 -0.769,-0.769 H 59.118 c -0.423,0 -0.769,0.346 -0.769,0.769 z"
   id="path70"
   inkscape:connector-curvature="0" />
	<path
   d="m 58.349,50.568 v 0 c 0,0.423 0.346,0.769 0.769,0.769 h 22.016 c 0.423,0 0.769,-0.346 0.769,-0.769 v 0 c 0,-0.423 -0.346,-0.769 -0.769,-0.769 H 59.118 c -0.423,0 -0.769,0.346 -0.769,0.769 z"
   id="path72"
   inkscape:connector-curvature="0" />
	<path
   d="m 58.349,32.863 v 0 c 0,0.423 0.346,0.769 0.769,0.769 h 22.016 c 0.423,0 0.769,-0.346 0.769,-0.769 v 0 c 0,-0.423 -0.346,-0.769 -0.769,-0.769 H 59.118 c -0.423,0 -0.769,0.346 -0.769,0.769 z"
   id="path74"
   inkscape:connector-curvature="0" />
</g>
</svg>