<?xml version="1.0" encoding="UTF-8" standalone="no"?>
<svg
   xmlns:dc="http://purl.org/dc/elements/1.1/"
   xmlns:cc="http://creativecommons.org/ns#"
   xmlns:rdf="http://www.w3.org/1999/02/22-rdf-syntax-ns#"
   xmlns:svg="http://www.w3.org/2000/svg"
   xmlns="http://www.w3.org/2000/svg"
   xmlns:sodipodi="http://sodipodi.sourceforge.net/DTD/sodipodi-0.dtd"
   xmlns:inkscape="http://www.inkscape.org/namespaces/inkscape"
   viewBox="0 0 152.75999 142.494"
   version="1.1"
   id="svg65"
   sodipodi:docname="game.svg"
   width="152.75999"
   height="142.494"
   inkscape:version="0.92.4 5da689c313, 2019-01-14">
  <metadata
     id="metadata71">
    <rdf:RDF>
      <cc:Work
         rdf:about="">
        <dc:format>image/svg+xml</dc:format>
        <dc:type
           rdf:resource="http://purl.org/dc/dcmitype/StillImage" />
      </cc:Work>
    </rdf:RDF>
  </metadata>
  <defs
     id="defs69" />
  <sodipodi:namedview
     pagecolor="#ffffff"
     bordercolor="#666666"
     borderopacity="1"
     objecttolerance="10"
     gridtolerance="10"
     guidetolerance="10"
     inkscape:pageopacity="0"
     inkscape:pageshadow="2"
     inkscape:window-width="640"
     inkscape:window-height="480"
     id="namedview67"
     showgrid="false"
     inkscape:zoom="1.65621"
     inkscape:cx="76.380501"
     inkscape:cy="71.246998"
     inkscape:window-x="0"
     inkscape:window-y="0"
     inkscape:window-maximized="0"
     inkscape:current-layer="svg65">
    <inkscape:grid
       type="xygrid"
       id="grid878"
       originx="0"
       originy="-3.2958984e-06" />
  </sodipodi:namedview>
  <path
     d="m 87.512,142.494 c 1.045,0 2.701,-1.367 2.701,-3.721 h 34.323 c 0,2.353 1.656,3.721 2.701,3.721 h 19.327 c 3.408,0 6.196,-2.788 6.196,-6.196 V 6.196 C 152.76,2.788 149.972,0 146.564,0 h -19.327 c -1.045,0 -2.701,1.367 -2.701,3.721 H 90.214 C 90.214,1.367 88.558,0 87.512,0 H 6.196 C 2.788,0 0,2.788 0,6.196 v 130.101 c 0,3.408 2.788,6.196 6.196,6.196 z"
     id="path2"
     inkscape:connector-curvature="0"
     style="fill:#9f0e12" />
  <path
     d="m 127.237,141.643 c -0.554,0 -1.851,-0.977 -1.851,-2.87 l -0.03,-0.851 H 89.363 v 0.851 c 0,1.894 -1.297,2.87 -1.851,2.87 H 6.196 A 5.352,5.352 0 0 1 0.85,136.297 V 6.197 A 5.352,5.352 0 0 1 6.196,0.851 h 81.316 c 0.554,0 1.851,0.977 1.851,2.87 v 0.851 h 35.993 l 0.03,-0.851 c 0,-1.894 1.297,-2.87 1.851,-2.87 h 19.327 a 5.352,5.352 0 0 1 5.346,5.346 v 130.101 a 5.352,5.352 0 0 1 -5.346,5.346 z"
     stroke-miterlimit="10"
     id="path4"
     inkscape:connector-curvature="0"
     style="fill:#ad1722;stroke:#9f0e12;stroke-miterlimit:10" />
  <path
     d="M 143.906,136.794 H 8.855 A 2.753,2.753 0 0 1 6.11,134.049 V 8.444 A 2.753,2.753 0 0 1 8.855,5.7 h 135.051 a 2.753,2.753 0 0 1 2.745,2.745 V 134.05 a 2.753,2.753 0 0 1 -2.745,2.744 z"
     id="path6"
     inkscape:connector-curvature="0"
     style="fill:#c11127" />
  <path
     d="M 138.027,132.694 H 14.734 a 4.24,4.24 0 0 1 -4.228,-4.228 V 14.028 A 4.24,4.24 0 0 1 14.734,9.8 h 123.293 a 4.24,4.24 0 0 1 4.228,4.228 v 114.438 a 4.24,4.24 0 0 1 -4.228,4.228 z"
     id="path8"
     inkscape:connector-curvature="0"
     style="fill:#ffffff" />
  <path
     d="M 142.255,94.304 H 10.507 v 34.162 a 4.24,4.24 0 0 0 4.228,4.228 h 123.293 a 4.24,4.24 0 0 0 4.228,-4.228 V 94.304 Z"
     id="path10"
     inkscape:connector-curvature="0" />
  <path
     d="m 10.507,108.429 h 64.999 v 10.5 H 10.507 Z"
     id="path12"
     inkscape:connector-curvature="0"
     style="fill:#ffffff" />
  <path
     d="m 20.704,15.636 a 3.64,3.64 0 0 0 -1.263,-0.232 c -0.611,0 -1.137,0.126 -1.579,0.379 -0.442,0.274 -0.674,0.568 -0.674,0.926 v 0.043 c 0.021,0.463 0.358,0.82 1.011,1.073 L 19.42,16.751 A 1.38,1.38 0 0 1 18.809,16.625 C 18.64,16.541 18.556,16.436 18.556,16.288 l 0.084,-0.189 c 0.148,-0.169 0.421,-0.253 0.779,-0.253 0.358,0 0.611,0.084 0.758,0.253 l 0.527,-0.463"
     id="path14"
     inkscape:connector-curvature="0"
     style="fill:#70ff03" />
  <path
     d="m 21.673,16.794 a 3.255,3.255 0 0 0 -1.495,-0.695 l -0.758,0.653 c 0.316,0.021 0.611,0.105 0.842,0.274 a 0.844,0.844 0 0 1 0.337,0.674 l -0.021,0.147 a 0.983,0.983 0 0 1 -0.4,0.569 1.4,1.4 0 0 1 -0.779,0.211 c -0.316,0 -0.568,-0.084 -0.8,-0.232 a 0.827,0.827 0 0 1 -0.4,-0.568 l -2.085,1.811 c 0.169,0.695 0.568,1.263 1.179,1.706 0.611,0.443 1.327,0.674 2.127,0.674 0.926,0 1.727,-0.295 2.379,-0.863 0.653,-0.59 0.99,-1.305 0.99,-2.127 0,-0.886 -0.379,-1.623 -1.116,-2.234"
     id="path16"
     inkscape:connector-curvature="0"
     style="fill:#2bd60d" />
  <path
     d="m 25.463,16.015 c 1.158,0 1.727,0.59 1.727,1.79 h -1.179 c 0,-0.526 -0.147,-0.779 -0.463,-0.779 -0.274,0 -0.4,0.147 -0.4,0.442 0,0.211 0.147,0.4 0.442,0.59 l 0.527,0.337 c 0.358,0.232 0.632,0.463 0.779,0.653 0.189,0.274 0.295,0.611 0.295,0.969 0,0.611 -0.105,1.032 -0.316,1.305 -0.232,0.274 -0.653,0.421 -1.263,0.421 -0.653,0 -1.137,-0.169 -1.411,-0.526 -0.253,-0.316 -0.379,-0.779 -0.379,-1.432 h 1.221 c -0.063,0.611 0.126,0.905 0.568,0.905 0.232,0 0.358,-0.126 0.358,-0.4 A 0.764,0.764 0 0 0 25.8,19.785 L 25.421,19.49 24.895,19.174 c -0.653,-0.4 -0.969,-0.905 -0.969,-1.537 0,-0.442 0.105,-0.8 0.295,-1.074 0.274,-0.358 0.674,-0.548 1.242,-0.548 m 8.023,1.39 c 0.421,0 0.716,0.148 0.884,0.463 0.211,-0.316 0.505,-0.484 0.884,-0.484 0.189,0 0.4,0.063 0.59,0.189 0.274,0.147 0.4,0.4 0.4,0.737 v 3.285 h -1.179 v -2.674 l -0.042,-0.358 c -0.021,-0.105 -0.105,-0.169 -0.253,-0.169 -0.148,0 -0.253,0.063 -0.295,0.169 l -0.021,0.358 v 2.674 h -1.179 v -2.653 l -0.021,-0.379 c -0.042,-0.105 -0.126,-0.147 -0.274,-0.147 -0.148,0 -0.232,0.063 -0.253,0.168 l -0.021,0.337 v 2.674 h -1.2 V 17.51 h 1.137 v 0.358 l 0.105,-0.105 c 0.211,-0.232 0.464,-0.358 0.738,-0.358 m 11.686,0.084 -0.926,4.169 c -0.147,0.611 -0.379,1.011 -0.695,1.2 -0.169,0.105 -0.421,0.147 -0.737,0.126 l -0.421,-0.042 v -0.884 l 0.358,0.021 c 0.169,-0.021 0.211,-0.232 0.105,-0.611 l -0.884,-3.98 h 1.242 l 0.337,2.506 0.4,-2.506 h 1.221 m -6.317,-0.062 c 0.421,0 0.716,0.147 0.863,0.442 a 1.08,1.08 0 0 1 0.906,-0.463 c 0.189,0 0.4,0.063 0.59,0.169 0.274,0.169 0.4,0.421 0.4,0.737 v 3.285 h -1.2 v -2.653 l -0.021,-0.358 c -0.021,-0.105 -0.105,-0.168 -0.253,-0.168 -0.147,0 -0.253,0.063 -0.295,0.168 l -0.021,0.358 v 2.653 h -1.179 v -2.632 l -0.021,-0.379 c -0.021,-0.105 -0.126,-0.168 -0.274,-0.168 -0.148,0 -0.232,0.063 -0.253,0.189 l -0.021,0.337 v 2.674 h -1.2 v -4.085 h 1.137 v 0.358 l 0.105,-0.126 a 0.964,0.964 0 0 1 0.737,-0.338 m -8.064,1.116 v 2.253 l 0.021,0.526 c 0.021,0.147 0.042,0.253 0.105,0.337 h -1.179 l -0.147,-0.295 -0.253,0.168 c -0.189,0.147 -0.379,0.232 -0.568,0.232 -0.4,0 -0.695,-0.105 -0.906,-0.295 -0.232,-0.189 -0.337,-0.442 -0.337,-0.8 0,-0.4 0.084,-0.695 0.232,-0.926 0.126,-0.211 0.358,-0.379 0.716,-0.484 l 0.568,-0.211 c 0.316,-0.105 0.484,-0.232 0.505,-0.358 0.021,-0.147 0,-0.274 -0.084,-0.379 A 0.254,0.254 0 0 0 29.19,18.184 c -0.168,0 -0.274,0.084 -0.337,0.232 l -0.063,0.379 h -1.242 c 0.021,-0.611 0.232,-1.011 0.632,-1.242 0.253,-0.148 0.611,-0.211 1.074,-0.211 0.4,0 0.716,0.042 0.905,0.126 0.421,0.169 0.632,0.527 0.632,1.074 m -1.201,1.116 -0.463,0.21 c -0.274,0.147 -0.4,0.337 -0.379,0.568 0,0.19 0.084,0.337 0.274,0.4 a 0.4,0.4 0 0 0 0.379,-0.063 c 0.105,-0.105 0.168,-0.253 0.189,-0.484 v -0.631"
     id="path18"
     inkscape:connector-curvature="0" />
  <g
     id="g63">
    <linearGradient
       id="a"
       gradientUnits="userSpaceOnUse"
       x1="129.153"
       y1="111.265"
       x2="129.153"
       y2="100.617">
      <stop
         offset="0"
         stop-color="#eb6101"
         id="stop20" />
      <stop
         offset="1"
         stop-color="#9a4400"
         id="stop22" />
    </linearGradient>
    <path
       d="m 130.363,111.265 h -5.207 l 2.787,-10.648 h 5.207 z"
       id="path25"
       inkscape:connector-curvature="0"
       style="fill:url(#a)" />
    <linearGradient
       id="b"
       gradientUnits="userSpaceOnUse"
       x1="122.552"
       y1="113.171"
       x2="122.552"
       y2="98.637001">
      <stop
         offset="0"
         stop-color="#eb6101"
         id="stop27" />
      <stop
         offset="1"
         stop-color="#9a4400"
         id="stop29" />
    </linearGradient>
    <path
       d="m 123.254,113.171 h -5.207 l 3.804,-14.534 h 5.207 z"
       id="path32"
       inkscape:connector-curvature="0"
       style="fill:url(#b)" />
    <linearGradient
       id="c"
       gradientUnits="userSpaceOnUse"
       x1="113.73"
       y1="116.557"
       x2="113.73"
       y2="96.664001">
      <stop
         offset="0"
         stop-color="#eb6101"
         id="stop34" />
      <stop
         offset="1"
         stop-color="#9a4400"
         id="stop36" />
    </linearGradient>
    <path
       d="m 113.73,116.557 h -5.207 l 5.207,-19.893 h 5.207 z"
       id="path39"
       inkscape:connector-curvature="0"
       style="fill:url(#c)" />
    <linearGradient
       id="d"
       gradientUnits="userSpaceOnUse"
       x1="126.107"
       y1="111.265"
       x2="126.107"
       y2="98.637001">
      <stop
         offset="0"
         stop-color="#029205"
         id="stop41" />
      <stop
         offset="1"
         stop-color="#d6edd9"
         id="stop43" />
    </linearGradient>
    <path
       d="m 127.058,98.637 h -5.207 l 3.306,12.628 h 5.207 z"
       id="path46"
       inkscape:connector-curvature="0"
       style="fill:url(#d)" />
    <linearGradient
       id="e"
       gradientUnits="userSpaceOnUse"
       x1="118.494"
       y1="113.171"
       x2="118.494"
       y2="96.664001">
      <stop
         offset="0"
         stop-color="#029205"
         id="stop48" />
      <stop
         offset="1"
         stop-color="#d6edd9"
         id="stop50" />
    </linearGradient>
    <path
       d="m 123.258,113.171 -4.321,-16.507 h -5.207 l 4.321,16.507 z"
       id="path53"
       inkscape:connector-curvature="0"
       style="fill:url(#e)" />
    <g
       id="g61"
       style="fill:#ffffff">
      <path
         d="m 117.967,118.571 c -0.207,-0.091 -0.257,0.009 -0.294,0.138 -0.146,0.519 -0.302,1.036 -0.438,1.557 -0.046,0.176 -0.138,0.238 -0.332,0.226 -0.223,-0.013 -0.448,-0.003 -0.734,-0.003 l 0.596,-1.916 c -0.221,-0.11 -0.284,-0.005 -0.324,0.147 -0.136,0.513 -0.28,1.024 -0.406,1.538 -0.042,0.173 -0.128,0.247 -0.326,0.233 -0.168,-0.012 -0.339,-0.006 -0.508,-0.002 -0.187,0.005 -0.226,-0.07 -0.178,-0.223 0.202,-0.646 0.392,-1.296 0.604,-1.94 0.025,-0.076 0.161,-0.173 0.247,-0.174 a 125.2,125.2 0 0 1 2.741,-0.011 c 0.284,10e-4 0.403,0.129 0.338,0.38 a 47.38,47.38 0 0 1 -0.517,1.829 c -0.018,0.061 -0.143,0.125 -0.226,0.134 -0.186,0.02 -0.376,0.001 -0.564,0.007 -0.198,0.006 -0.247,-0.068 -0.193,-0.235 0.154,-0.473 0.299,-0.948 0.447,-1.423 0.026,-0.087 0.045,-0.176 0.067,-0.262 z m 6.105,-0.422 -0.582,1.885 c 0.227,0.107 0.289,-0.005 0.331,-0.153 0.143,-0.502 0.295,-1.002 0.43,-1.506 0.046,-0.171 0.131,-0.243 0.329,-0.231 0.213,0.014 0.429,0.003 0.706,0.003 l -0.567,1.889 c 0.211,0.093 0.275,0.011 0.316,-0.141 0.139,-0.512 0.293,-1.02 0.428,-1.533 0.043,-0.161 0.123,-0.228 0.308,-0.218 0.223,0.012 0.448,0.003 0.706,0.003 -0.022,0.107 -0.031,0.179 -0.051,0.248 -0.186,0.624 -0.38,1.246 -0.558,1.872 -0.045,0.159 -0.122,0.221 -0.307,0.22 -0.885,-0.007 -1.77,0 -2.656,-0.004 -0.335,-0.002 -0.452,-0.124 -0.372,-0.422 0.157,-0.586 0.334,-1.169 0.514,-1.75 0.02,-0.064 0.113,-0.149 0.178,-0.154 0.262,-0.018 0.524,-0.008 0.847,-0.008 z m -10.36,2.34 c -0.292,0 -0.584,0.007 -0.876,-0.002 -0.298,-0.009 -0.432,-0.16 -0.355,-0.423 0.173,-0.592 0.356,-1.181 0.549,-1.768 0.021,-0.065 0.137,-0.148 0.211,-0.149 0.602,-0.01 1.205,-0.004 1.808,10e-4 0.245,0.002 0.352,0.133 0.299,0.335 a 51.905,51.905 0 0 1 -0.53,1.878 c -0.018,0.058 -0.149,0.12 -0.23,0.125 -0.291,0.015 -0.584,0.006 -0.875,0.006 z m -0.214,-0.439 c -0.016,0.059 0.137,0.034 0.21,0.031 0.268,-0.009 0.251,-0.011 0.299,-0.244 0.051,-0.249 0.313,-1.122 0.353,-1.273 -0.023,-0.025 -0.419,-0.045 -0.449,0.036 -0.15,0.414 -0.295,1.021 -0.413,1.45 z m 18.232,-1.903 c -0.129,0.445 -0.241,0.837 -0.356,1.229 -0.086,0.296 -0.185,0.589 -0.258,0.887 -0.05,0.201 -0.17,0.204 -0.44,0.204 -0.398,0 -0.672,0.004 -1.097,0.004 -0.295,0 -0.448,-0.076 -0.472,-0.302 -0.064,-0.609 -0.095,-1.225 -0.151,-1.835 -0.003,-0.034 0.024,-0.15 0.1,-0.152 0.297,-0.006 0.496,-0.001 0.744,-0.007 0.065,-0.002 0.062,0.094 0.071,0.163 0.068,0.497 0.115,1.187 0.174,1.685 0.014,0.133 0.202,0.1 0.219,0.041 0.147,-0.492 0.317,-1.211 0.446,-1.707 0.039,-0.149 0.108,-0.22 0.284,-0.212 0.222,0.009 0.447,0.002 0.736,0.002 z m -10.491,0.843 h 0.888 c 0.359,0.001 0.469,0.117 0.392,0.423 -0.075,0.298 -0.155,0.596 -0.252,0.889 -0.024,0.071 -0.125,0.172 -0.192,0.173 -0.732,0.012 -1.464,0.008 -2.193,0.008 -0.036,-0.378 0.026,-0.444 0.383,-0.444 0.283,0 0.566,-0.01 0.847,0.006 0.221,0.013 0.331,-0.06 0.364,-0.257 0.021,-0.124 0.072,-0.243 0.128,-0.427 h -0.898 c -0.426,-0.002 -0.521,-0.111 -0.418,-0.484 0.2,-0.728 0.2,-0.729 1.041,-0.728 0.452,0 0.904,0.003 1.356,0.006 0.026,0 0.051,0.017 0.075,0.026 -0.009,0.361 -0.03,0.38 -0.408,0.381 h -0.65 c -0.403,-10e-4 -0.403,-10e-4 -0.463,0.428 z m -10.178,-0.376 c -0.287,-0.171 -0.855,0.198 -0.853,-0.44 h 2.742 c -0.016,0.346 -0.06,0.386 -0.412,0.389 -0.6,0.005 -0.468,-0.056 -0.608,0.416 -0.126,0.426 -0.24,0.855 -0.363,1.282 -0.066,0.23 -0.303,0.303 -0.688,0.216 -0.219,-0.049 -0.317,-0.215 -0.249,-0.438 0.133,-0.433 0.272,-0.865 0.407,-1.298 0.014,-0.039 0.016,-0.081 0.024,-0.127 z m 9.178,-0.466 c -0.029,0.128 -0.044,0.21 -0.067,0.291 -0.173,0.6 -0.353,1.198 -0.518,1.8 -0.048,0.175 -0.125,0.275 -0.341,0.246 -0.083,-0.011 -0.169,0.001 -0.254,-0.003 -0.309,-0.011 -0.418,-0.145 -0.336,-0.419 0.172,-0.574 0.352,-1.146 0.518,-1.722 0.04,-0.14 0.108,-0.201 0.27,-0.196 0.231,0.009 0.463,0.003 0.728,0.003 z m -11.022,0.379 h -0.216 l -0.276,0.983 h 0.567 z m 1.073,1.609 0.042,0.356 c -0.085,-0.003 -0.88,0 -0.965,0 l -0.045,-0.593 -0.706,-0.001 -0.166,0.592 -0.99,0.001 c 0.061,-0.184 0.112,-0.351 0.156,-0.495 0.165,-0.541 0.335,-1.08 0.488,-1.624 0.044,-0.156 0.109,-0.233 0.298,-0.23 0.452,0.007 0.904,0.001 1.355,-0.003 0.204,-0.002 0.324,0.088 0.347,0.266 0.083,0.633 0.105,1.098 0.186,1.731 z m 17.516,-1.61 h -0.216 l -0.276,0.983 h 0.567 z m 1.072,1.609 0.042,0.356 c -0.085,-0.003 -0.88,0 -0.965,0 l -0.045,-0.593 -0.706,-10e-4 -0.166,0.592 -0.99,10e-4 c 0.061,-0.184 0.112,-0.351 0.156,-0.495 0.165,-0.541 0.336,-1.08 0.488,-1.624 0.044,-0.156 0.109,-0.233 0.298,-0.23 0.452,0.007 0.904,10e-4 1.355,-0.003 0.204,-0.002 0.324,0.088 0.347,0.266 0.084,0.633 0.106,1.098 0.186,1.731 z m 4.785,0.288 0.052,-0.267 c 0.014,-0.038 -0.017,-0.078 -0.062,-0.078 h -1.249 c 0.044,-0.162 0.086,-0.274 0.102,-0.389 0.027,-0.191 0.136,-0.241 0.345,-0.243 0.186,-0.002 0.63,0.002 0.864,0.003 0.043,0 0.079,-0.029 0.085,-0.067 l 0.052,-0.345 c 0.004,-0.029 -0.021,-0.055 -0.053,-0.055 h -1.047 c 0.021,-0.374 0.035,-0.388 0.378,-0.389 h 0.951 c 0.034,0 0.063,-0.02 0.072,-0.049 l 0.082,-0.331 c 0.01,-0.031 -0.015,-0.061 -0.05,-0.061 -0.68,0 -1.39,-0.003 -2.069,0.008 -0.058,0.001 -0.144,0.1 -0.165,0.167 -0.18,0.572 -0.354,1.146 -0.519,1.722 -0.082,0.287 0.037,0.422 0.363,0.425 0.507,0.004 1.264,0.003 1.79,0.002 a 0.087,0.087 0 0 0 0.078,-0.053 z"
         id="path55"
         inkscape:connector-curvature="0" />
      <g
         id="g59">
        <path
           d="m 134.597,120.512 h -0.084 v -0.604 h -0.215 v -0.075 h 0.515 v 0.075 h -0.216 z m 0.992,0 h -0.084 v -0.571 l -0.23,0.571 h -0.035 l -0.231,-0.571 v 0.571 h -0.084 v -0.679 h 0.121 l 0.212,0.523 0.211,-0.523 h 0.121 v 0.679 z"
           id="path57"
           inkscape:connector-curvature="0" />
      </g>
    </g>
  </g>
</svg>
