<?xml version="1.0" encoding="UTF-8" standalone="no"?>
<svg
   xmlns:dc="http://purl.org/dc/elements/1.1/"
   xmlns:cc="http://creativecommons.org/ns#"
   xmlns:rdf="http://www.w3.org/1999/02/22-rdf-syntax-ns#"
   xmlns:svg="http://www.w3.org/2000/svg"
   xmlns="http://www.w3.org/2000/svg"
   xmlns:sodipodi="http://sodipodi.sourceforge.net/DTD/sodipodi-0.dtd"
   xmlns:inkscape="http://www.inkscape.org/namespaces/inkscape"
   viewBox="0 0 100.113 89.911"
   version="1.1"
   id="svg174"
   sodipodi:docname="console.svg"
   width="100.113"
   height="89.911003"
   inkscape:version="0.92.4 5da689c313, 2019-01-14">
  <metadata
     id="metadata180">
    <rdf:RDF>
      <cc:Work
         rdf:about="">
        <dc:format>image/svg+xml</dc:format>
        <dc:type
           rdf:resource="http://purl.org/dc/dcmitype/StillImage" />
      </cc:Work>
    </rdf:RDF>
  </metadata>
  <defs
     id="defs178" />
  <sodipodi:namedview
     pagecolor="#ffffff"
     bordercolor="#666666"
     borderopacity="1"
     objecttolerance="10"
     gridtolerance="10"
     guidetolerance="10"
     inkscape:pageopacity="0"
     inkscape:pageshadow="2"
     inkscape:window-width="640"
     inkscape:window-height="480"
     id="namedview176"
     showgrid="false"
     inkscape:zoom="2.6248178"
     inkscape:cx="50.0555"
     inkscape:cy="44.955498"
     inkscape:window-x="0"
     inkscape:window-y="0"
     inkscape:window-maximized="0"
     inkscape:current-layer="svg174">
    <inkscape:grid
       type="xygrid"
       id="grid987"
       originx="0"
       originy="-3.1127929e-06" />
  </sodipodi:namedview>
  <path
     d="M 16.115,88.641 3.807,88.11 C 1.912,88.151 0,85.938 0,84.459 L 0.016,2.818 A 2.696,2.696 0 0 1 2.704,0.13 h 94.705 a 2.695,2.695 0 0 1 2.688,2.688 l 0.016,81.641 c 0,1.479 -1.911,3.692 -3.808,3.651 L 83.997,88.64 70.179,89.236 50.057,89.411 29.934,89.236 Z"
     id="path2"
     inkscape:connector-curvature="0"
     style="fill:#353535" />
  <path
     d="M 50.06,89.911 29.93,89.736 16.094,89.14 c -3.057,0 -3.655,-4.387 -3.943,-6.495 L 12.146,0.135 h 1 v 82.443 c 0.353,2.554 1.014,5.563 2.969,5.563 l 13.84,0.596 20.104,0.175 20.114,-0.175 13.8,-0.596 c 1.978,0 2.639,-3.009 2.997,-5.63 L 86.966,0.135 h 1 v 82.443 c -0.292,2.176 -0.891,6.563 -3.97,6.563 l -2.138,0.093 -11.659,0.503 z M 0,50.381 h 12.148 v 1 H 0 Z m 87.966,0 h 12.146 v 1 H 87.966 Z"
     id="path4"
     inkscape:connector-curvature="0"
     style="fill:#201b1d" />
  <path
     d="M 47.765,33.895 A 8.322,8.322 0 0 0 47.196,34.2 c -0.391,0.233 -0.71,0.478 -0.924,0.766 -0.213,0.289 -0.307,0.688 -0.13,1.021 0.15,0.284 0.473,0.38 0.762,0.382 0.289,0.003 0.607,-0.063 0.964,-0.165 0.714,-0.202 1.576,-0.554 2.424,-0.894 0.848,-0.34 1.687,-0.666 2.298,-0.813 0.305,-0.073 0.556,-0.096 0.686,-0.077 l 0.101,0.031 0.01,0.021 c 0.03,0.125 0.016,0.205 -0.063,0.327 -0.079,0.122 -0.237,0.271 -0.48,0.426 a 3.8,3.8 0 0 1 -0.262,0.153 2.72,2.72 0 0 1 -0.27,0.871 c 0.339,-0.15 0.637,-0.303 0.888,-0.463 0.292,-0.186 0.526,-0.383 0.684,-0.628 0.157,-0.245 0.22,-0.55 0.149,-0.841 a 0.713,0.713 0 0 0 -0.254,-0.394 0.876,0.876 0 0 0 -0.409,-0.16 c -0.284,-0.041 -0.589,0.006 -0.935,0.089 -0.691,0.166 -1.538,0.501 -2.389,0.842 -0.852,0.34 -1.707,0.687 -2.359,0.871 -0.326,0.092 -0.604,0.141 -0.777,0.14 -0.174,-0.002 -0.181,-0.029 -0.181,-0.03 -0.05,-0.094 -0.047,-0.147 0.077,-0.314 0.119,-0.161 0.363,-0.366 0.69,-0.566 0.085,-0.489 0.148,-0.654 0.269,-0.9 z"
     id="path6"
     inkscape:connector-curvature="0"
     style="fill:#abb0ab" />
  <path
     d="m 50.044,32.5 -0.087,0.004 c 0.17,0.155 0.326,0.297 0.39,0.363 0.122,0.126 0.599,0.563 0.751,0.721 0.103,0.104 0.412,0.405 0.556,0.54 0.125,0.118 0.082,0.025 0.245,0.187 0.267,0.264 0.465,0.485 0.706,0.719 l -0.012,-0.22 C 52.492,34.626 52.28,34.505 52.13,34.377 52.036,34.297 51.953,34.261 51.886,34.189 l -0.227,-0.234 c -0.022,-0.031 -0.867,-0.878 -1.425,-1.448 z m -0.273,0.016 -0.253,0.04 c 0.232,0.216 0.493,0.447 0.58,0.538 0.121,0.126 0.604,0.533 0.755,0.691 0.103,0.104 0.351,0.341 0.494,0.476 0.126,0.118 0.14,0.119 0.303,0.281 0.317,0.315 0.54,0.594 0.852,0.88 l 0.068,0.065 c 0.016,-0.09 0.025,-0.181 0.031,-0.272 -0.252,-0.219 -0.541,-0.47 -0.791,-0.683 -0.094,-0.08 -0.177,-0.117 -0.244,-0.188 L 51.339,34.11 c -0.026,-0.034 -1.028,-1.04 -1.568,-1.594 z m 0.756,0.032 c 0.201,0.199 0.791,0.759 0.929,0.902 0.102,0.104 0.46,0.436 0.604,0.571 0.125,0.118 -0.004,-0.023 0.159,0.139 0.116,0.116 0.219,0.222 0.318,0.326 L 52.471,34.249 52.432,34.217 C 52.338,34.137 52.255,34.1 52.188,34.029 L 52.161,33.97 C 52.14,33.943 51.409,33.217 50.813,32.62 a 2.782,2.782 0 0 0 -0.286,-0.072 z m -1.166,0.048 -0.205,0.066 c 0.253,0.241 0.586,0.534 0.687,0.638 0.121,0.126 0.603,0.533 0.755,0.691 0.103,0.104 0.298,0.275 0.441,0.41 0.125,0.118 0.088,0.137 0.251,0.299 0.318,0.315 0.645,0.641 0.955,0.928 l 0.231,0.225 0.067,-0.25 a 73.055,73.055 0 0 0 -0.994,-0.867 c -0.094,-0.08 -0.139,-0.154 -0.207,-0.225 l -0.259,-0.188 c -0.027,-0.035 -1.227,-1.219 -1.722,-1.727 z m -0.342,0.119 -0.229,0.113 c 0.256,0.251 0.658,0.586 0.771,0.705 0.122,0.126 0.615,0.56 0.767,0.718 0.103,0.104 0.146,0.112 0.29,0.247 0.125,0.118 0.248,0.226 0.411,0.388 0.318,0.315 0.636,0.715 0.946,1.002 0.127,0.117 0.244,0.249 0.336,0.361 0.046,-0.089 0.088,-0.18 0.124,-0.273 a 52.431,52.431 0 0 0 -1.163,-1.031 c -0.094,-0.08 -0.117,-0.155 -0.186,-0.226 l -0.334,-0.204 c -0.027,-0.037 -1.321,-1.361 -1.733,-1.8 z m 2.252,0.102 c 0.206,0.198 0.412,0.397 0.486,0.474 0.073,0.075 0.279,0.252 0.445,0.398 a 2.539,2.539 0 0 0 -0.931,-0.872 z m -2.577,0.071 -0.186,0.127 c 0.255,0.253 0.573,0.528 0.688,0.649 0.122,0.126 0.666,0.56 0.817,0.718 0.103,0.104 0.104,0.098 0.248,0.232 0.125,0.118 0.29,0.241 0.453,0.402 0.318,0.315 0.636,0.715 0.946,1.002 0.227,0.208 0.42,0.404 0.497,0.483 l 0.104,-0.168 A 68.522,68.522 0 0 1 50.68,34.78 L 50.396,34.623 C 50.368,34.584 49.02,33.238 48.694,32.888 Z m -0.259,0.183 -0.174,0.154 0.053,0.126 c 0.25,0.232 0.608,0.528 0.724,0.649 0.122,0.126 0.665,0.56 0.817,0.718 0.102,0.104 0.104,0.097 0.248,0.232 0.369,0.347 0.956,0.952 1.382,1.399 0.188,0.197 0.361,0.354 0.452,0.434 l 0.16,-0.195 c -0.08,-0.069 -1.428,-1.242 -1.901,-1.739 l -0.281,-0.254 c -0.028,-0.037 -1.082,-1.103 -1.48,-1.524 z m -0.254,0.234 -0.163,0.191 c 0.246,0.232 0.661,0.602 0.785,0.731 0.121,0.126 0.413,0.355 0.565,0.513 0.102,0.104 0.294,0.298 0.438,0.433 0.369,0.347 0.964,0.973 1.391,1.419 0.234,0.247 0.399,0.415 0.449,0.466 l 0.219,-0.195 C 51.713,36.718 50.323,35.396 49.862,34.912 L 49.74,34.859 c -0.032,-0.041 -1.279,-1.251 -1.559,-1.554 z m -0.209,0.255 -0.148,0.229 c 0.224,0.192 0.71,0.649 0.84,0.784 0.108,0.113 0.173,0.165 0.258,0.254 l 0.207,0.206 c 0.102,0.104 0.036,0.016 0.179,0.151 0.57,0.536 1.931,1.881 2.097,2.045 l 0.214,-0.15 c -0.18,-0.171 -1.536,-1.462 -1.992,-1.94 l -0.27,-0.16 C 49.326,34.939 48.285,33.897 47.972,33.56 Z M 47.8,33.83 a 2.478,2.478 0 0 0 -0.146,0.308 c 0.206,0.181 0.721,0.68 0.873,0.802 0.135,0.108 0.155,0.134 0.24,0.223 0.074,0.104 0.23,0.174 0.285,0.225 0.571,0.537 1.875,1.858 2.029,2.015 0.096,-0.042 0.188,-0.091 0.276,-0.145 -0.214,-0.192 -1.766,-1.592 -2.221,-2.069 L 48.765,34.813 C 48.734,34.771 48.045,34.101 47.8,33.83 Z m -0.16,0.35 a 2.613,2.613 0 0 0 -0.086,0.29 c 0.181,0.16 0.733,0.739 0.895,0.86 0.156,0.118 0.042,0.052 0.127,0.141 l -0.024,-0.13 c 0.102,0.104 0.246,0.273 0.389,0.408 0.558,0.524 1.652,1.595 1.829,1.769 l 0.229,-0.081 C 50.796,37.243 49.253,35.77 48.797,35.292 L 48.652,35.199 C 48.651,35.167 47.87,34.437 47.64,34.18 Z m -0.095,0.33 a 2.499,2.499 0 0 0 -0.063,0.552 2.563,2.563 0 0 0 2.198,2.534 C 49.206,37.149 48.408,36.39 48.087,36.037 l -0.275,0.009 c -0.009,-0.298 -0.058,-0.434 -0.039,-0.433 0.015,10e-4 0.072,0.084 0.222,0.239 0.253,0.262 1.262,1.252 1.775,1.754 0.091,0.011 0.183,0.017 0.274,0.018 l 0.184,-0.009 a 90.513,90.513 0 0 1 -1.743,-1.723 l -0.482,-0.331 -0.454,-0.537 c 0.069,0.033 0.335,0.295 0.521,0.436 0.156,0.117 0.244,0.161 0.329,0.25 l 0.157,0.157 c 0.102,0.104 0.233,0.256 0.38,0.387 0.485,0.436 1.13,1.078 1.402,1.352 0.114,-0.014 0.227,-0.035 0.338,-0.064 -0.257,-0.239 -1.759,-1.642 -2.207,-2.111 l -0.151,-0.064 c -10e-4,-0.033 -0.537,-0.589 -0.759,-0.841 z"
     id="path8"
     inkscape:connector-curvature="0"
     style="fill:#abb0ab" />
  <path
     d="m 48.538,36.734 c -0.881,0.144 -1.423,0.119 -1.423,0.119 a 0.33231649,0.33231649 0 1 0 -0.029,0.664 c 0,0 0.757,0.032 1.922,-0.194 -0.097,-0.162 -0.296,-0.353 -0.47,-0.589 z m 3.711,-3.998 a 8.647,8.647 0 0 0 -0.984,0.075 c 0.321,0.184 0.429,0.35 0.685,0.599 0.655,-0.039 1.061,0.021 1.061,0.021 a 0.333,0.333 0 1 0 0.096,-0.658 c -0.002,0 -0.325,-0.046 -0.858,-0.037 z m 0.555,4.009 h -0.192 l -0.002,0.38 h -0.134 l -0.002,-0.386 h -0.2 l 0.002,-0.138 h 0.526 z m 0.708,0.38 h -0.135 v -0.426 l -0.117,0.426 h -0.135 l -0.117,-0.423 v 0.423 h -0.135 v -0.524 h 0.197 l 0.122,0.401 0.123,-0.401 h 0.197 z"
     id="path10"
     inkscape:connector-curvature="0"
     style="fill:#abb0ab" />
  <circle
     cx="2.3280001"
     cy="3.0999999"
     r="0.38499999"
     id="circle12"
     style="fill:#3d3b3b" />
  <path
     d="m 2.328,3.535 a 0.435,0.435 0 1 1 0,-0.87 0.435,0.435 0 0 1 0,0.87 z m 0,-0.771 a 0.335,0.335 0 1 0 0,0.67 0.335,0.335 0 0 0 0,-0.67 z"
     id="path14"
     inkscape:connector-curvature="0"
     style="fill:#282828" />
  <path
     d="M 6.752,3.199 A 0.385,0.385 0 1 1 6.367,2.814 c 0.213,0 0.385,0.172 0.385,0.385 z"
     id="path16"
     inkscape:connector-curvature="0"
     style="fill:#3d3b3b" />
  <path
     d="m 6.367,3.634 a 0.435,0.435 0 1 1 0,-0.87 0.435,0.435 0 0 1 0,0.87 z m 0,-0.77 a 0.335,0.335 0 1 0 0,0.67 0.335,0.335 0 0 0 0,-0.67 z"
     id="path18"
     inkscape:connector-curvature="0"
     style="fill:#282828" />
  <path
     d="m 10.791,3.299 a 0.385,0.385 0 1 1 -0.77,0 0.385,0.385 0 0 1 0.77,0 z"
     id="path20"
     inkscape:connector-curvature="0"
     style="fill:#3d3b3b" />
  <path
     d="m 10.405,3.734 a 0.435,0.435 0 1 1 0,-0.87 0.435,0.435 0 0 1 0,0.87 z m 0,-0.771 a 0.335,0.335 0 1 0 0,0.67 0.335,0.335 0 0 0 0,-0.67 z"
     id="path22"
     inkscape:connector-curvature="0"
     style="fill:#282828" />
  <circle
     cx="2.3280001"
     cy="9.7189999"
     r="0.38499999"
     id="circle24"
     style="fill:#3d3b3b" />
  <path
     d="m 2.328,10.154 a 0.435,0.435 0 1 1 0,-0.87 0.435,0.435 0 0 1 0,0.87 z m 0,-0.771 a 0.335,0.335 0 1 0 0,0.67 0.335,0.335 0 0 0 0,-0.67 z"
     id="path26"
     inkscape:connector-curvature="0"
     style="fill:#282828" />
  <path
     d="M 6.752,9.818 A 0.385,0.385 0 1 1 6.367,9.433 c 0.213,0 0.385,0.172 0.385,0.385 z"
     id="path28"
     inkscape:connector-curvature="0"
     style="fill:#3d3b3b" />
  <path
     d="m 6.367,10.253 a 0.435,0.435 0 1 1 0,-0.87 0.435,0.435 0 0 1 0,0.87 z m 0,-0.77 a 0.335,0.335 0 1 0 0,0.67 0.335,0.335 0 0 0 0,-0.67 z"
     id="path30"
     inkscape:connector-curvature="0"
     style="fill:#282828" />
  <path
     d="m 10.791,9.918 a 0.385,0.385 0 1 1 -0.77,0 0.385,0.385 0 0 1 0.77,0 z"
     id="path32"
     inkscape:connector-curvature="0"
     style="fill:#3d3b3b" />
  <path
     d="m 10.405,10.353 a 0.435,0.435 0 1 1 0,-0.87 0.435,0.435 0 0 1 0,0.87 z m 0,-0.77 a 0.335,0.335 0 1 0 0,0.67 0.335,0.335 0 0 0 0,-0.67 z"
     id="path34"
     inkscape:connector-curvature="0"
     style="fill:#282828" />
  <path
     d="m 2.713,16.338 a 0.385,0.385 0 1 1 -0.77,0 0.385,0.385 0 1 1 0.77,0 z"
     id="path36"
     inkscape:connector-curvature="0"
     style="fill:#3d3b3b" />
  <path
     d="m 2.328,16.773 a 0.435,0.435 0 1 1 0,-0.87 0.435,0.435 0 0 1 0,0.87 z m 0,-0.771 a 0.335,0.335 0 1 0 0,0.67 0.335,0.335 0 0 0 0,-0.67 z"
     id="path38"
     inkscape:connector-curvature="0"
     style="fill:#282828" />
  <path
     d="M 6.752,16.438 A 0.385,0.385 0 1 1 6.367,16.052 c 0.213,0 0.385,0.173 0.385,0.386 z"
     id="path40"
     inkscape:connector-curvature="0"
     style="fill:#3d3b3b" />
  <path
     d="m 6.367,16.873 a 0.435,0.435 0 1 1 0,-0.87 0.435,0.435 0 0 1 0,0.87 z m 0,-0.771 a 0.335,0.335 0 1 0 0,0.67 0.335,0.335 0 0 0 0,-0.67 z"
     id="path42"
     inkscape:connector-curvature="0"
     style="fill:#282828" />
  <path
     d="m 10.791,16.537 a 0.385,0.385 0 1 1 -0.77,0 0.385,0.385 0 0 1 0.77,0 z"
     id="path44"
     inkscape:connector-curvature="0"
     style="fill:#3d3b3b" />
  <path
     d="m 10.405,16.972 a 0.435,0.435 0 1 1 0,-0.87 0.435,0.435 0 0 1 0,0.87 z m 0,-0.77 a 0.335,0.335 0 1 0 0,0.67 0.335,0.335 0 0 0 0,-0.67 z"
     id="path46"
     inkscape:connector-curvature="0"
     style="fill:#282828" />
  <path
     d="m 2.713,22.957 a 0.385,0.385 0 1 1 -0.77,0 0.385,0.385 0 1 1 0.77,0 z"
     id="path48"
     inkscape:connector-curvature="0"
     style="fill:#3d3b3b" />
  <path
     d="m 2.328,23.392 a 0.435,0.435 0 1 1 0,-0.87 0.435,0.435 0 0 1 0,0.87 z m 0,-0.77 a 0.335,0.335 0 1 0 0,0.67 0.335,0.335 0 0 0 0,-0.67 z"
     id="path50"
     inkscape:connector-curvature="0"
     style="fill:#282828" />
  <path
     d="M 6.752,23.057 A 0.385,0.385 0 1 1 6.367,22.671 c 0.213,0 0.385,0.173 0.385,0.386 z"
     id="path52"
     inkscape:connector-curvature="0"
     style="fill:#3d3b3b" />
  <path
     d="m 6.367,23.492 a 0.435,0.435 0 1 1 0,-0.87 0.435,0.435 0 0 1 0,0.87 z m 0,-0.771 a 0.335,0.335 0 1 0 0,0.67 0.335,0.335 0 0 0 0,-0.67 z"
     id="path54"
     inkscape:connector-curvature="0"
     style="fill:#282828" />
  <circle
     cx="2.3280001"
     cy="29.625"
     r="0.38499999"
     id="circle56"
     style="fill:#3d3b3b" />
  <path
     d="m 2.328,30.061 a 0.435,0.435 0 1 1 0,-0.87 0.435,0.435 0 0 1 0,0.87 z m 0,-0.771 a 0.335,0.335 0 1 0 0,0.67 0.335,0.335 0 0 0 0,-0.67 z"
     id="path58"
     inkscape:connector-curvature="0"
     style="fill:#282828" />
  <circle
     cx="97.782997"
     cy="3.098"
     r="0.38499999"
     id="circle60"
     style="fill:#3d3b3b" />
  <path
     d="m 97.348,3.098 a 0.436,0.436 0 1 1 0.871,0.001 0.436,0.436 0 0 1 -0.871,-0.001 z m 0.099,0 a 0.335,0.335 0 1 0 0.67,0 0.335,0.335 0 0 0 -0.67,0 z"
     id="path62"
     inkscape:connector-curvature="0"
     style="fill:#282828" />
  <path
     d="m 93.359,3.197 a 0.385,0.385 0 1 0 0.77,0 0.385,0.385 0 0 0 -0.77,0 z"
     id="path64"
     inkscape:connector-curvature="0"
     style="fill:#3d3b3b" />
  <path
     d="M 93.31,3.197 A 0.436,0.436 0 1 1 94.181,3.198 0.436,0.436 0 0 1 93.31,3.197 Z m 0.099,0 a 0.335,0.335 0 1 0 0.67,0 0.335,0.335 0 0 0 -0.67,0 z"
     id="path66"
     inkscape:connector-curvature="0"
     style="fill:#282828" />
  <path
     d="M 89.321,3.297 A 0.385,0.385 0 1 0 89.706,2.912 0.385,0.385 0 0 0 89.321,3.297 Z"
     id="path68"
     inkscape:connector-curvature="0"
     style="fill:#3d3b3b" />
  <path
     d="m 89.271,3.297 a 0.435,0.435 0 1 1 0.87,0 0.435,0.435 0 0 1 -0.87,0 z m 0.1,0 a 0.335,0.335 0 1 0 0.67,0 0.335,0.335 0 0 0 -0.67,0 z"
     id="path70"
     inkscape:connector-curvature="0"
     style="fill:#282828" />
  <path
     d="m 97.397,9.717 a 0.385,0.385 0 1 0 0.77,0 0.385,0.385 0 0 0 -0.77,0 z"
     id="path72"
     inkscape:connector-curvature="0"
     style="fill:#3d3b3b" />
  <path
     d="m 97.348,9.717 a 0.436,0.436 0 1 1 0.871,10e-4 0.436,0.436 0 0 1 -0.871,-10e-4 z m 0.099,0 a 0.335,0.335 0 1 0 0.67,0 0.335,0.335 0 0 0 -0.67,0 z"
     id="path74"
     inkscape:connector-curvature="0"
     style="fill:#282828" />
  <path
     d="m 93.359,9.816 a 0.385,0.385 0 1 0 0.77,0 0.385,0.385 0 0 0 -0.77,0 z"
     id="path76"
     inkscape:connector-curvature="0"
     style="fill:#3d3b3b" />
  <path
     d="M 93.31,9.816 A 0.436,0.436 0 1 1 94.181,9.817 0.436,0.436 0 0 1 93.31,9.816 Z m 0.099,0 a 0.335,0.335 0 1 0 0.67,0 0.335,0.335 0 0 0 -0.67,0 z"
     id="path78"
     inkscape:connector-curvature="0"
     style="fill:#282828" />
  <path
     d="M 89.321,9.916 A 0.385,0.385 0 1 0 89.706,9.53 0.385,0.385 0 0 0 89.321,9.916 Z"
     id="path80"
     inkscape:connector-curvature="0"
     style="fill:#3d3b3b" />
  <path
     d="m 89.271,9.916 a 0.435,0.435 0 1 1 0.87,0 0.435,0.435 0 0 1 -0.87,0 z m 0.1,0 a 0.335,0.335 0 1 0 0.67,0 0.335,0.335 0 0 0 -0.67,0 z"
     id="path82"
     inkscape:connector-curvature="0"
     style="fill:#282828" />
  <path
     d="m 97.397,16.336 a 0.385,0.385 0 1 0 0.77,0 0.385,0.385 0 0 0 -0.77,0 z"
     id="path84"
     inkscape:connector-curvature="0"
     style="fill:#3d3b3b" />
  <path
     d="m 97.348,16.336 a 0.436,0.436 0 1 1 0.871,0.001 0.436,0.436 0 0 1 -0.871,-0.001 z m 0.099,0 a 0.335,0.335 0 1 0 0.67,0 0.335,0.335 0 0 0 -0.67,0 z"
     id="path86"
     inkscape:connector-curvature="0"
     style="fill:#282828" />
  <path
     d="m 93.359,16.436 a 0.385,0.385 0 1 0 0.77,0 0.385,0.385 0 0 0 -0.77,0 z"
     id="path88"
     inkscape:connector-curvature="0"
     style="fill:#3d3b3b" />
  <path
     d="m 93.31,16.436 a 0.436,0.436 0 1 1 0.871,0.001 0.436,0.436 0 0 1 -0.871,-0.001 z m 0.099,0 a 0.335,0.335 0 1 0 0.67,0 0.335,0.335 0 0 0 -0.67,0 z"
     id="path90"
     inkscape:connector-curvature="0"
     style="fill:#282828" />
  <path
     d="m 89.321,16.535 a 0.385,0.385 0 1 0 0.385,-0.386 0.385,0.385 0 0 0 -0.385,0.386 z"
     id="path92"
     inkscape:connector-curvature="0"
     style="fill:#3d3b3b" />
  <path
     d="m 89.271,16.535 a 0.435,0.435 0 1 1 0.87,0 0.435,0.435 0 0 1 -0.87,0 z m 0.1,0 a 0.335,0.335 0 1 0 0.67,0 0.335,0.335 0 0 0 -0.67,0 z"
     id="path94"
     inkscape:connector-curvature="0"
     style="fill:#282828" />
  <path
     d="m 97.397,22.955 a 0.386,0.386 0 1 0 0.772,0 0.386,0.386 0 0 0 -0.772,0 z"
     id="path96"
     inkscape:connector-curvature="0"
     style="fill:#3d3b3b" />
  <path
     d="m 97.348,22.955 a 0.436,0.436 0 1 1 0.871,0.001 0.436,0.436 0 0 1 -0.871,-0.001 z m 0.099,0 a 0.335,0.335 0 1 0 0.67,0 0.335,0.335 0 0 0 -0.67,0 z"
     id="path98"
     inkscape:connector-curvature="0"
     style="fill:#282828" />
  <path
     d="m 93.359,23.054 a 0.386,0.386 0 1 0 0.772,0 0.386,0.386 0 0 0 -0.772,0 z"
     id="path100"
     inkscape:connector-curvature="0"
     style="fill:#3d3b3b" />
  <path
     d="m 93.31,23.054 a 0.436,0.436 0 1 1 0.871,0.001 0.436,0.436 0 0 1 -0.871,-0.001 z m 0.099,0 a 0.335,0.335 0 1 0 0.67,0 0.335,0.335 0 0 0 -0.67,0 z"
     id="path102"
     inkscape:connector-curvature="0"
     style="fill:#282828" />
  <circle
     cx="97.782997"
     cy="29.624001"
     r="0.38499999"
     id="circle104"
     style="fill:#3d3b3b" />
  <path
     d="m 97.348,29.624 a 0.436,0.436 0 1 1 0.871,0.001 0.436,0.436 0 0 1 -0.871,-0.001 z m 0.099,0 a 0.335,0.335 0 1 0 0.67,0 0.335,0.335 0 0 0 -0.67,0 z"
     id="path106"
     inkscape:connector-curvature="0"
     style="fill:#282828" />
  <path
     d="m 50.019,78.932 h -3.467 c -1.13,0 -2.235,-0.104 -3.285,-0.309 C 32.023,76.425 21.017,72.86 20.663,55.904 l -0.956,-13.82 c -0.572,-16.925 2.338,-18.547 7.984,-19.355 0.523,-0.075 9.982,-2.083 19.387,-2.083 0.982,0 1.934,-0.045 2.94,-0.036 1.012,-0.005 2.032,0.036 3.015,0.036 9.404,0 18.864,2.008 19.388,2.083 5.646,0.808 8.556,2.43 7.984,19.355 l -0.956,13.82 C 79.095,72.86 68.088,76.425 56.845,78.623 55.795,78.828 54.69,78.932 53.56,78.932 H 50.093 M 29.547,24.001 c -5.839,1.067 -9.334,-0.51 -8.709,18.004 l 0.958,13.875 c 0.32,15.345 9.164,19.181 21.688,21.629 1.01,0.197 2.039,0.288 3.067,0.288 h 6.934 a 16.02,16.02 0 0 0 3.067,-0.288 C 69.076,75.061 77.919,71.225 78.24,55.88 l 0.958,-13.875 c 0.625,-18.514 -2.87,-16.937 -8.709,-18.004 0,0 -9.759,-1.11 -20.472,-1.354 -10.074,-0.046 -20.47,1.354 -20.47,1.354 z"
     id="path108"
     inkscape:connector-curvature="0"
     style="fill:#191517" />
  <path
     d="m 50.054,81.631 c -15.45,0 -26.631,-4.254 -36.91,-8.675 v -0.817 c 10.208,4.391 21.603,8.742 36.91,8.742 15.307,0 26.706,-4.352 36.914,-8.742 v 0.816 c -10.28,4.421 -21.465,8.676 -36.914,8.676 z"
     id="path110"
     inkscape:connector-curvature="0"
     style="fill:#201b1d" />
  <path
     d="m 13.143,72.961 c 10.279,4.421 21.46,8.675 36.911,8.675 15.449,0 26.634,-4.256 36.914,-8.677 v 9.553 c -0.358,2.621 -1.02,5.63 -2.997,5.63 l -13.8,0.596 -20.114,0.175 -20.104,-0.175 -13.84,-0.596 c -1.955,0 -2.616,-3.009 -2.969,-5.563 v -9.618 z"
     id="path112"
     inkscape:connector-curvature="0"
     style="fill:#232323" />
  <path
     d="m 34.534,86.631 h -2.247 l -0.064,-0.064 v -0.914 l 0.064,-0.064 h 2.247 l 0.064,0.064 v 0.914 z"
     id="path114"
     inkscape:connector-curvature="0"
     style="fill:#7cba1c" />
  <path
     d="m 67.824,86.631 h -2.247 l -0.064,-0.064 v -0.914 l 0.064,-0.064 h 2.247 l 0.064,0.064 v 0.914 z"
     id="path116"
     inkscape:connector-curvature="0"
     style="fill:#f98b38" />
  <path
     d="M 6.629,83.885 A 0.327,0.327 0 0 1 6.302,83.558 V 82.52 c 0,-0.18 0.146,-0.326 0.326,-0.326 H 7.702 V 81.867 H 6.626 A 0.653,0.653 0 0 0 5.973,82.52 v 1.038 c 0,0.361 0.295,0.653 0.656,0.653 l 1.074,0.001 V 82.674 H 6.779 V 83 h 0.597 v 0.885 H 6.629 m -4.501,0.329 1.04,-0.001 a 0.77,0.77 0 0 0 0,-1.54 L 2.898,82.674 2.859,82.635 2.898,82.596 H 3.935 V 82.271 H 2.897 a 0.3635,0.3635 0 1 0 0,0.727 l 0.271,0.003 a 0.4405,0.4405 0 1 1 0,0.881 h -1.04 v 0.332"
     id="path118"
     inkscape:connector-curvature="0"
     style="fill:#abb0ab" />
  <path
     d="m 2.128,83.807 h 1.04 a 0.364,0.364 0 1 0 0,-0.727 L 2.897,83.077 a 0.4405,0.4405 0 1 1 0,-0.881 H 3.935 V 81.868 H 2.897 a 0.77,0.77 0 0 0 0,1.54 h 0.269 l 0.038,0.038 -0.038,0.034 -1.038,10e-4 v 0.326 m 2.615,0.079 A 0.328,0.328 0 0 1 4.415,83.558 v -1.041 c 0,-0.177 0.147,-0.323 0.328,-0.323 H 5.852 V 81.867 H 4.743 A 0.653,0.653 0 0 0 4.09,82.52 v 1.038 c 0,0.361 0.292,0.653 0.653,0.653 l 1.104,0.001 v -0.327 l -1.104,10e-4"
     id="path120"
     inkscape:connector-curvature="0"
     style="fill:#abb0ab" />
  <path
     d="m 4.494,82.52 c 0,-0.138 0.111,-0.249 0.249,-0.249 h 1.109 v 0.326 H 4.896 L 4.819,82.674 H 5.616 V 83 H 4.494 v -0.48 m 0.249,1.287 A 0.249,0.249 0 0 1 4.494,83.558 v -0.48 h 1.122 v 0.327 H 4.819 l 0.077,0.076 h 0.951 v 0.326 H 4.743 m 1.636,-0.249 a 0.25,0.25 0 0 0 0.249,0.251 H 7.299 V 83.077 H 6.78 v 0.328 h 0.192 l 10e-4,0.076 H 6.782 L 6.705,83.405 6.704,82.674 6.781,82.597 H 7.703 V 82.27 L 6.629,82.271 A 0.248,0.248 0 0 0 6.38,82.52 v 1.038 m 2.332,-1.293 0.101,-0.072 0.1,0.073 0.521,1.545 H 8.671 V 83.447 H 8.927 L 8.812,83.104 8.438,84.211 H 8.052 l 0.66,-1.946"
     id="path122"
     inkscape:connector-curvature="0"
     style="fill:#abb0ab" />
  <path
     d="M 9.54,83.885 H 8.672 v 0.326 h 1.32 L 9.305,82.173 A 0.509,0.509 0 0 0 8.811,81.829 0.508,0.508 0 0 0 8.318,82.173 L 7.625,84.211 H 7.971 L 8.643,82.23 8.811,82.119 8.978,82.23 9.54,83.885 m 0.779,-1.81 H 10.17 l -10e-4,0.381 H 10.064 L 10.063,82.069 H 9.908 L 9.91,81.932 h 0.407 z m 0.55,0.381 h -0.105 v -0.427 l -0.091,0.427 h -0.105 l -0.09,-0.424 v 0.424 h -0.105 v -0.524 h 0.153 l 0.095,0.401 0.095,-0.401 h 0.153 z m 28.995,-22.351 0.146,-0.074 0.063,-0.178 -0.042,-0.132 c -0.028,-0.063 -0.098,-0.095 -0.208,-0.095 h -0.584 c -0.236,0 -0.406,-0.067 -0.511,-0.203 a 0.82,0.82 0 0 1 -0.156,-0.515 c 0,-0.206 0.059,-0.369 0.177,-0.491 A 0.696,0.696 0 0 1 39.14,58.2 c 0.143,-0.023 0.252,-0.035 0.329,-0.035 h 0.193 l 0.198,0.02 c 0.08,0.012 0.204,0.046 0.373,0.101 l 0.136,0.118 0.036,0.19 -0.086,0.162 c -0.048,0.041 -0.123,0.045 -0.222,0.013 a 1.807,1.807 0 0 0 -0.784,-0.074 0.596,0.596 0 0 0 -0.24,0.05 l -0.083,0.151 c 0,0.137 0.022,0.214 0.068,0.231 0.045,0.018 0.12,0.024 0.224,0.021 h 0.62 a 0.497,0.497 0 0 1 0.422,0.208 0.789,0.789 0 0 1 0.167,0.497 0.79,0.79 0 0 1 -0.177,0.524 0.575,0.575 0 0 1 -0.406,0.229 v 0.003 c -0.16,0.017 -0.268,0.025 -0.323,0.025 l -0.172,-0.007 c -0.059,-0.004 -0.139,-0.013 -0.24,-0.024 a 3.214,3.214 0 0 1 -0.352,-0.069 l -0.135,-0.11 -0.029,-0.192 0.091,-0.159 0.159,-0.036 c 0.167,0.047 0.316,0.073 0.448,0.082 0.132,0.009 0.3,0.003 0.509,-0.014 z m 1.042,0.504 c -0.167,0 -0.25,-0.101 -0.25,-0.303 v -1.813 c 0,-0.201 0.083,-0.302 0.25,-0.302 h 1.126 l 0.146,0.075 0.063,0.177 -0.063,0.178 -0.146,0.074 h -0.959 v 0.402 h 0.625 l 0.146,0.076 0.063,0.176 -0.063,0.179 -0.146,0.073 h -0.625 v 0.504 h 0.959 l 0.146,0.076 0.063,0.176 -0.063,0.178 -0.146,0.074 z m 1.502,-1.183 c 0,-0.38 0.103,-0.685 0.308,-0.915 a 1,1 0 0 1 0.777,-0.345 c 0.311,0 0.548,0.051 0.712,0.151 0.164,0.1 0.252,0.216 0.262,0.347 0.01,0.13 -0.04,0.212 -0.151,0.245 -0.097,0.013 -0.191,-0.028 -0.281,-0.123 -0.09,-0.094 -0.271,-0.133 -0.542,-0.116 -0.198,0 -0.359,0.065 -0.482,0.195 -0.123,0.13 -0.185,0.316 -0.185,0.561 0,0.212 0.062,0.383 0.185,0.512 0.123,0.129 0.284,0.193 0.482,0.193 0.196,0 0.348,-0.031 0.455,-0.095 0.106,-0.063 0.169,-0.134 0.187,-0.214 0.018,-0.08 -0.03,-0.12 -0.141,-0.12 h -0.375 l -0.147,-0.073 -0.061,-0.178 0.061,-0.177 0.147,-0.075 h 0.709 c 0.167,0 0.25,0.101 0.25,0.302 v 0.303 a 0.703,0.703 0 0 1 -0.083,0.299 1.077,1.077 0 0 1 -0.309,0.353 c -0.15,0.12 -0.38,0.18 -0.691,0.18 a 0.995,0.995 0 0 1 -0.777,-0.344 c -0.208,-0.229 -0.31,-0.518 -0.31,-0.866 z m 2.854,-0.731 c 0.056,-0.143 0.126,-0.263 0.211,-0.359 0.085,-0.096 0.199,-0.145 0.342,-0.145 0.125,-0.004 0.239,0.042 0.341,0.139 0.102,0.097 0.176,0.218 0.222,0.365 0.181,0.433 0.313,0.819 0.397,1.16 0.084,0.341 0.115,0.542 0.091,0.604 l -0.116,0.127 -0.155,-0.008 c -0.053,-0.03 -0.094,-0.098 -0.123,-0.203 a 10.93,10.93 0 0 0 -0.11,-0.371 h -1.079 a 7.345,7.345 0 0 0 -0.114,0.375 c -0.026,0.103 -0.067,0.169 -0.12,0.199 l -0.155,0.008 -0.116,-0.127 c -0.023,-0.063 0.014,-0.264 0.112,-0.604 0.099,-0.34 0.222,-0.727 0.372,-1.16 z m 0.552,-0.025 c -0.122,0.004 -0.248,0.281 -0.378,0.831 h 0.771 C 46.092,58.947 45.96,58.67 45.814,58.67 Z m 3.021,1.433 0.137,-0.074 0.059,-0.178 -0.039,-0.132 C 48.966,59.656 48.901,59.624 48.797,59.624 H 48.25 c -0.221,0 -0.381,-0.067 -0.479,-0.203 a 0.855,0.855 0 0 1 -0.146,-0.515 c 0,-0.206 0.055,-0.369 0.166,-0.491 0.111,-0.122 0.233,-0.194 0.366,-0.217 0.133,-0.023 0.236,-0.035 0.308,-0.035 h 0.181 l 0.186,0.02 c 0.075,0.012 0.191,0.046 0.349,0.101 l 0.127,0.118 0.034,0.19 -0.081,0.162 c -0.045,0.041 -0.115,0.045 -0.208,0.013 -0.093,-0.033 -0.185,-0.056 -0.276,-0.068 -0.091,-0.012 -0.163,-0.019 -0.215,-0.019 -0.052,0 -0.133,0.004 -0.244,0.013 a 0.53,0.53 0 0 0 -0.225,0.05 l -0.078,0.151 c 0,0.137 0.021,0.214 0.063,0.231 0.042,0.017 0.112,0.024 0.21,0.021 h 0.581 c 0.16,-0.004 0.292,0.065 0.396,0.208 0.104,0.143 0.156,0.309 0.156,0.497 0,0.208 -0.055,0.383 -0.166,0.524 -0.111,0.141 -0.238,0.218 -0.381,0.229 v 0.003 c -0.15,0.017 -0.25,0.025 -0.303,0.025 L 48.41,60.625 c -0.055,-0.004 -0.13,-0.013 -0.225,-0.024 a 2.893,2.893 0 0 1 -0.33,-0.069 l -0.126,-0.11 -0.028,-0.192 0.085,-0.159 0.149,-0.036 c 0.156,0.047 0.296,0.073 0.42,0.082 0.124,0.009 0.285,0.002 0.48,-0.014 z m 1.384,-1.408 c 0.053,-0.143 0.118,-0.263 0.197,-0.359 a 0.395,0.395 0 0 1 0.32,-0.145 c 0.117,-0.004 0.225,0.042 0.32,0.139 0.095,0.097 0.164,0.218 0.207,0.365 0.17,0.433 0.293,0.819 0.373,1.16 0.078,0.341 0.107,0.542 0.084,0.604 l -0.107,0.127 -0.146,-0.008 c -0.049,-0.03 -0.088,-0.098 -0.113,-0.203 a 12.056,12.056 0 0 0 -0.105,-0.371 h -1.01 a 6.423,6.423 0 0 0 -0.106,0.375 c -0.024,0.103 -0.063,0.169 -0.112,0.199 l -0.145,0.008 -0.109,-0.127 c -0.022,-0.063 0.013,-0.264 0.105,-0.604 0.091,-0.34 0.207,-0.727 0.347,-1.16 z m 0.517,-0.025 c -0.113,0.004 -0.232,0.281 -0.354,0.831 h 0.723 C 50.996,58.947 50.873,58.67 50.736,58.67 Z m 2.323,-0.449 0.136,0.075 0.059,0.177 -0.059,0.177 -0.136,0.075 H 52.59 v 1.662 l -0.059,0.177 -0.136,0.075 -0.138,-0.075 -0.058,-0.177 V 58.725 H 51.73 l -0.136,-0.075 -0.059,-0.177 0.059,-0.177 0.136,-0.075 z m 0.539,0.222 0.058,-0.177 0.138,-0.075 0.137,0.075 0.059,0.177 v 1.328 a 0.468,0.468 0 0 0 0.153,0.236 c 0.077,0.065 0.208,0.098 0.394,0.098 0.184,0 0.314,-0.032 0.392,-0.098 a 0.469,0.469 0 0 0 0.155,-0.239 v -1.325 l 0.058,-0.177 0.138,-0.075 0.137,0.075 0.059,0.177 v 1.36 c -0.01,0.113 -0.032,0.216 -0.067,0.309 a 0.931,0.931 0 0 1 -0.243,0.317 c -0.127,0.12 -0.336,0.18 -0.627,0.18 -0.293,0 -0.501,-0.06 -0.623,-0.18 a 1.063,1.063 0 0 1 -0.241,-0.316 1,1 0 0 1 -0.073,-0.31 v -1.36 z m 2.941,1.159 c -0.003,-0.108 0.022,-0.168 0.078,-0.176 0.056,-0.009 0.129,-0.017 0.22,-0.025 0.091,-0.008 0.19,-0.038 0.298,-0.088 0.11,-0.034 0.166,-0.109 0.166,-0.227 l -0.086,-0.164 -0.202,-0.075 -0.254,-0.041 a 2.183,2.183 0 0 0 -0.396,0.003 c -0.104,0 -0.156,0.067 -0.156,0.201 v 1.348 l -0.059,0.178 -0.137,0.074 -0.138,-0.074 -0.058,-0.178 v -1.826 c 0,-0.168 0.065,-0.252 0.195,-0.252 0.056,-0.017 0.157,-0.026 0.305,-0.028 0.148,-0.002 0.354,0.021 0.618,0.066 0.264,0.045 0.456,0.136 0.576,0.268 0.12,0.132 0.181,0.295 0.181,0.488 0,0.22 -0.061,0.379 -0.181,0.477 -0.12,0.098 -0.239,0.152 -0.356,0.165 l 0.451,0.435 0.076,0.167 -0.037,0.183 -0.132,0.096 -0.142,-0.048 -0.69,-0.693 z m 1.309,-1.058 0.057,-0.176 0.138,-0.076 0.195,0.101 1.016,1.411 v -1.26 l 0.058,-0.176 0.137,-0.076 0.137,0.076 0.059,0.176 v 1.813 l -0.059,0.178 -0.137,0.074 -0.195,-0.1 -1.016,-1.411 v 1.259 l -0.058,0.178 -0.137,0.074 -0.138,-0.074 -0.057,-0.178 z m 2.837,-0.136 h -0.231 l -0.003,0.577 h -0.162 l -0.003,-0.586 h -0.24 l 0.002,-0.208 h 0.635 z m 0.855,0.577 H 61.377 V 58.34 l -0.142,0.645 h -0.162 l -0.141,-0.641 v 0.641 h -0.163 v -0.794 h 0.238 l 0.147,0.608 0.149,-0.608 h 0.237 z"
     id="path124"
     inkscape:connector-curvature="0"
     style="fill:#abb0ab" />
  <path
     d="m 50.035,82.798 h 7.219 v 1.535 c 0,1.149 -0.891,1.774 -2.04,1.774 l -5.179,0.315 h 0.04 l -5.177,-0.315 c -1.149,0 -2.041,-0.625 -2.041,-1.774 v -1.535 h 7.218"
     id="path126"
     inkscape:connector-curvature="0"
     style="fill:#303030" />
  <path
     d="m 50.075,86.673 v -0.002 l -0.015,0.002 -0.005,-0.001 -0.005,0.001 v -0.001 l -5.168,-0.314 h -10e-4 c -1.355,0 -2.275,-0.813 -2.275,-2.024 v -1.785 h 14.897 v 1.785 c 0,1.211 -0.921,2.024 -2.291,2.024 z m -6.968,-3.625 v 1.285 c 0,1.124 0.925,1.524 1.791,1.524 l 5.158,0.313 5.142,-0.313 c 0.882,0 1.807,-0.4 1.807,-1.524 v -1.285 z"
     id="path128"
     inkscape:connector-curvature="0"
     style="fill:#110d0e" />
  <path
     d="m 48.85,84.422 c 0,0.395 -0.188,0.713 -0.611,0.713 -0.408,0 -0.593,-0.317 -0.593,-0.715 0,-0.346 0.186,-0.696 0.611,-0.696 0.403,0 0.593,0.319 0.593,0.698 z M 47.897,84.42 c 0,0.29 0.117,0.52 0.353,0.52 0.254,0 0.352,-0.218 0.352,-0.518 0,-0.273 -0.098,-0.503 -0.354,-0.503 -0.246,0 -0.351,0.223 -0.351,0.501 z m 1.209,-0.678 h 0.49 c 0.257,0 0.471,0.133 0.471,0.4 0,0.279 -0.203,0.422 -0.494,0.422 h -0.224 v 0.551 h -0.243 z m 0.243,0.629 h 0.21 c 0.159,0 0.262,-0.058 0.262,-0.224 0,-0.147 -0.104,-0.211 -0.255,-0.211 H 49.35 v 0.435 z M 51.123,84.5 H 50.52 v 0.415 h 0.666 l -0.031,0.2 h -0.873 v -1.373 h 0.867 v 0.202 H 50.52 v 0.353 h 0.603 z m 0.272,0.615 v -1.373 h 0.313 c 0.455,0.884 0.524,1.018 0.546,1.082 h 0.004 a 8.231,8.231 0 0 1 -0.016,-0.617 v -0.465 h 0.224 v 1.373 h -0.297 a 39.284,39.284 0 0 1 -0.56,-1.122 h -0.002 c 0.011,0.175 0.011,0.41 0.011,0.656 v 0.466 z"
     id="path130"
     inkscape:connector-curvature="0"
     style="fill:#191718" />
  <path
     d="m 22.648,85.709 a 1.938,1.938 0 0 0 3.05,-2.234 c 0.229,-0.249 0.432,-0.5 0.602,-0.75 0.864,-1.268 0.606,-2.042 0.375,-2.392 -0.205,-0.311 -0.638,-0.68 -1.537,-0.68 -1.07,0 -2.52,0.536 -3.878,1.435 -2.045,1.351 -3.67,3.394 -2.819,4.684 0.205,0.311 0.638,0.68 1.536,0.68 0.755,-0.001 1.701,-0.268 2.671,-0.743 z"
     id="path132"
     inkscape:connector-curvature="0"
     style="fill:#191517" />
  <path
     d="m 19.977,86.576 c -0.954,0 -1.419,-0.4 -1.641,-0.735 -0.897,-1.359 0.757,-3.473 2.854,-4.857 1.378,-0.911 2.854,-1.455 3.947,-1.455 0.955,0 1.419,0.4 1.641,0.735 0.248,0.376 0.528,1.204 -0.376,2.531 a 6.791,6.791 0 0 1 -0.56,0.705 2.065,2.065 0 0 1 -3.214,2.357 c -0.967,0.464 -1.906,0.719 -2.651,0.719 z m 5.161,-6.798 c -1.046,0 -2.47,0.528 -3.81,1.414 -1.994,1.316 -3.59,3.288 -2.783,4.51 0.188,0.285 0.588,0.624 1.432,0.624 0.726,0 1.655,-0.259 2.616,-0.729 l 0.075,-0.036 0.063,0.055 a 1.812,1.812 0 0 0 3.003,-1.368 c 0,-0.252 -0.051,-0.495 -0.15,-0.724 L 25.55,83.45 25.605,83.389 c 0.227,-0.246 0.426,-0.494 0.59,-0.735 0.823,-1.206 0.588,-1.929 0.375,-2.253 -0.187,-0.284 -0.589,-0.623 -1.432,-0.623 z"
     id="path134"
     inkscape:connector-curvature="0"
     style="fill:#110d0e" />
  <g
     id="g138"
     style="fill:#abb0ab">
    <path
       d="m 30.272,84.067 c 0,0.077 -0.055,0.116 -0.165,0.116 h -0.436 v 0.453 h -0.27 v -1.25 h 0.706 c 0.11,0 0.165,0.038 0.165,0.114 z M 30,84.023 v -0.477 h -0.329 v 0.477 z m 1.857,0.499 c 0,0.076 -0.054,0.114 -0.163,0.114 h -0.585 c -0.107,0 -0.16,-0.038 -0.16,-0.114 v -1.021 c 0,-0.076 0.053,-0.114 0.16,-0.114 h 0.585 c 0.109,0 0.163,0.038 0.163,0.114 z m -0.269,-0.045 v -0.93 h -0.37 v 0.93 z m 2.302,-1.09 -0.264,1.252 H 33.362 L 33.2,83.93 a 2.18,2.18 0 0 0 -0.009,-0.114 c 0,0.025 -0.003,0.063 -0.009,0.114 l -0.16,0.709 h -0.265 l -0.264,-1.252 h 0.273 l 0.14,0.741 0.009,0.114 c 10e-4,-0.025 0.004,-0.063 0.011,-0.114 l 0.155,-0.741 h 0.221 l 0.155,0.741 0.01,0.114 a 2.18,2.18 0 0 1 0.009,-0.114 l 0.14,-0.741 z m 1.383,1.25 h -0.747 v -1.25 h 0.74 v 0.165 h -0.471 v 0.365 H 35.2 v 0.162 h -0.405 v 0.393 h 0.478 z m 1.593,0 h -0.281 l -0.297,-0.581 v -0.112 h 0.265 v -0.396 h -0.339 v 1.09 h -0.27 v -1.25 h 0.715 c 0.108,0 0.163,0.038 0.163,0.114 v 0.455 c 0,0.053 -0.026,0.087 -0.077,0.103 a 0.79,0.79 0 0 1 -0.175,0.012 z"
       id="path136"
       inkscape:connector-curvature="0" />
  </g>
  <g
     id="g142"
     style="fill:#abb0ab">
    <path
       d="M 63.752,84.637 H 63.484 L 63.43,84.4 h -0.338 l -0.054,0.237 h -0.266 v -0.003 l 0.349,-1.249 h 0.283 z m -0.359,-0.398 -0.131,-0.564 -0.133,0.564 z m 1.883,0.283 c 0,0.076 -0.055,0.114 -0.165,0.114 H 64.55 c -0.107,0 -0.16,-0.038 -0.16,-0.114 v -1.021 c 0,-0.076 0.053,-0.114 0.16,-0.114 h 0.562 c 0.11,0 0.165,0.038 0.165,0.114 v 0.293 h -0.269 v -0.247 h -0.349 v 0.93 h 0.349 v -0.264 h 0.269 v 0.309 z m 1.585,0 c 0,0.076 -0.055,0.114 -0.165,0.114 h -0.562 c -0.107,0 -0.16,-0.038 -0.16,-0.114 v -1.021 c 0,-0.076 0.053,-0.114 0.16,-0.114 h 0.562 c 0.11,0 0.165,0.038 0.165,0.114 v 0.293 h -0.269 v -0.247 h -0.349 v 0.93 h 0.349 v -0.264 h 0.269 z m 1.446,0.115 H 67.56 v -1.25 h 0.74 v 0.165 h -0.471 v 0.365 h 0.405 v 0.162 h -0.405 v 0.393 h 0.478 z m 1.534,-0.115 c 0,0.076 -0.055,0.114 -0.163,0.114 h -0.543 c -0.107,0 -0.162,-0.038 -0.162,-0.114 v -0.298 h 0.27 v 0.255 h 0.329 v -0.245 l -0.54,-0.355 c -0.039,-0.025 -0.059,-0.059 -0.059,-0.1 v -0.278 c 0,-0.076 0.055,-0.114 0.162,-0.114 h 0.543 c 0.108,0 0.163,0.037 0.163,0.113 v 0.279 h -0.27 v -0.235 h -0.329 v 0.226 l 0.54,0.354 c 0.039,0.025 0.059,0.06 0.059,0.102 z m 1.564,0 c 0,0.076 -0.055,0.114 -0.163,0.114 h -0.543 c -0.107,0 -0.162,-0.038 -0.162,-0.114 v -0.298 h 0.27 v 0.255 h 0.329 v -0.245 l -0.54,-0.355 c -0.039,-0.025 -0.059,-0.059 -0.059,-0.1 v -0.278 c 0,-0.076 0.055,-0.114 0.162,-0.114 h 0.543 c 0.108,0 0.163,0.037 0.163,0.113 v 0.279 h -0.27 v -0.235 h -0.329 v 0.226 l 0.54,0.354 c 0.039,0.025 0.059,0.06 0.059,0.102 z"
       id="path140"
       inkscape:connector-curvature="0" />
  </g>
  <path
     d="m 77.648,85.705 a 1.94,1.94 0 0 0 3.049,-2.234 c 0.229,-0.249 0.432,-0.501 0.603,-0.75 0.864,-1.268 0.605,-2.043 0.375,-2.393 -0.205,-0.311 -0.638,-0.68 -1.536,-0.68 -1.07,0 -2.52,0.537 -3.879,1.436 -2.045,1.35 -3.67,3.393 -2.818,4.684 0.205,0.311 0.638,0.68 1.536,0.68 0.754,-10e-4 1.701,-0.269 2.67,-0.743 z"
     id="path144"
     inkscape:connector-curvature="0"
     style="fill:#191517" />
  <path
     d="m 74.977,86.572 c -0.953,0 -1.418,-0.4 -1.64,-0.735 -0.896,-1.36 0.757,-3.474 2.854,-4.857 1.38,-0.912 2.855,-1.456 3.948,-1.456 0.954,0 1.419,0.4 1.641,0.735 0.248,0.377 0.528,1.206 -0.377,2.532 -0.16,0.234 -0.348,0.471 -0.56,0.705 a 2.065,2.065 0 0 1 -3.213,2.357 c -0.971,0.464 -1.91,0.719 -2.653,0.719 z m 5.162,-6.799 c -1.045,0 -2.47,0.529 -3.81,1.415 -1.994,1.315 -3.59,3.287 -2.783,4.511 0.188,0.284 0.589,0.623 1.431,0.623 0.725,0 1.654,-0.259 2.617,-0.729 l 0.074,-0.036 0.063,0.055 a 1.815,1.815 0 0 0 2.853,-2.092 l -0.033,-0.074 0.056,-0.061 c 0.226,-0.244 0.424,-0.492 0.59,-0.735 0.823,-1.206 0.589,-1.93 0.375,-2.254 -0.189,-0.284 -0.591,-0.623 -1.433,-0.623 z"
     id="path146"
     inkscape:connector-curvature="0"
     style="fill:#110d0e" />
  <path
     d="m 23.543,84.544 c -2.012,1.329 -4.085,1.739 -4.629,0.915 -0.544,-0.824 0.646,-2.569 2.658,-3.898 2.013,-1.33 4.085,-1.739 4.629,-0.915 0.545,0.823 -0.645,2.569 -2.658,3.898 z"
     id="path148"
     inkscape:connector-curvature="0"
     style="fill:#303030" />
  <path
     d="m 21.039,83.941 0.095,0.248 -0.079,0.19 -0.214,0.167 0.241,0.309 -0.154,0.12 -0.675,-0.865 0.352,-0.274 0.222,-0.055 z m -0.158,0.106 -0.091,-0.067 -0.093,0.021 -0.175,0.137 0.203,0.259 0.179,-0.14 0.027,-0.096 z m 1.081,-0.563 a 0.643,0.643 0 0 1 0.156,0.405 0.404,0.404 0 0 1 -0.164,0.326 0.397,0.397 0 0 1 -0.373,0.076 0.67,0.67 0 0 1 -0.341,-0.249 0.668,0.668 0 0 1 -0.157,-0.378 0.408,0.408 0 0 1 0.17,-0.359 0.39,0.39 0 0 1 0.368,-0.071 c 0.126,0.037 0.24,0.12 0.341,0.25 z M 21.815,83.6 a 0.472,0.472 0 0 0 -0.229,-0.176 l -0.22,0.045 -0.093,0.198 a 0.466,0.466 0 0 0 0.111,0.26 0.472,0.472 0 0 0 0.232,0.176 l 0.226,-0.046 0.084,-0.198 z m 0.795,-1.329 0.466,1.028 -0.138,0.107 -0.637,-0.561 0.39,0.754 -0.138,0.108 -0.885,-0.702 0.163,-0.127 0.621,0.558 -0.394,-0.735 0.163,-0.127 0.622,0.567 -0.396,-0.744 z m 1.327,0.356 -0.559,0.436 -0.675,-0.866 0.541,-0.423 0.116,0.149 -0.387,0.303 0.153,0.197 0.358,-0.279 0.116,0.147 -0.358,0.279 0.175,0.224 0.404,-0.315 z m 0.738,-0.576 -0.166,0.129 -0.099,-0.084 -0.102,-0.13 -0.073,-0.066 -0.103,0.024 -0.183,0.143 0.267,0.342 -0.154,0.12 -0.675,-0.865 0.42,-0.328 0.164,-0.04 0.208,0.137 c 0.072,0.092 0.09,0.189 0.053,0.294 l 0.169,0.048 0.172,0.204 0.075,0.04 z m -0.635,-0.495 -0.167,-0.032 -0.215,0.168 0.177,0.227 0.212,-0.166 0.032,-0.089 z"
     id="path150"
     inkscape:connector-curvature="0"
     style="fill:#191718" />
  <path
     d="m 78.543,84.539 c -2.012,1.33 -4.084,1.739 -4.629,0.915 -0.544,-0.823 0.646,-2.569 2.658,-3.898 2.013,-1.329 4.085,-1.738 4.629,-0.915 0.545,0.824 -0.645,2.569 -2.658,3.898 z"
     id="path152"
     inkscape:connector-curvature="0"
     style="fill:#303030" />
  <path
     d="m 76.897,84.22 -0.166,0.13 -0.099,-0.085 -0.102,-0.13 -0.073,-0.065 -0.103,0.023 -0.183,0.143 0.267,0.342 -0.153,0.12 -0.676,-0.865 0.42,-0.328 0.164,-0.039 0.207,0.137 a 0.29,0.29 0 0 1 0.053,0.293 l 0.17,0.049 0.173,0.203 0.075,0.04 z m -0.634,-0.494 -0.168,-0.033 -0.215,0.167 0.177,0.227 0.212,-0.165 0.032,-0.09 z m 1.32,-0.041 -0.559,0.435 -0.674,-0.865 0.541,-0.422 0.115,0.148 -0.387,0.303 0.153,0.197 0.358,-0.279 0.116,0.148 -0.357,0.279 0.174,0.224 0.405,-0.317 z m 0.495,-0.797 c 0.07,0.09 0.097,0.181 0.08,0.272 a 0.424,0.424 0 0 1 -0.174,0.254 0.376,0.376 0 0 1 -0.271,0.092 0.407,0.407 0 0 1 -0.253,-0.139 l 0.148,-0.116 c 0.084,0.085 0.177,0.088 0.277,0.01 l 0.088,-0.117 -0.023,-0.115 -0.197,-0.038 -0.214,0.103 -0.182,0.018 -0.159,-0.105 -0.079,-0.257 0.15,-0.234 a 0.394,0.394 0 0 1 0.275,-0.099 l 0.237,0.144 -0.144,0.112 -0.124,-0.063 -0.142,0.052 -0.045,0.214 0.163,0.023 0.188,-0.085 0.209,-0.049 z m 0.872,-0.271 -0.558,0.437 -0.676,-0.866 0.541,-0.422 0.116,0.148 -0.388,0.303 0.155,0.197 0.357,-0.279 0.116,0.147 -0.358,0.28 0.175,0.223 0.404,-0.316 z m 0.097,-1.229 -0.218,0.171 0.56,0.716 -0.154,0.121 -0.559,-0.717 -0.227,0.176 -0.116,-0.148 0.599,-0.468 z"
     id="path154"
     inkscape:connector-curvature="0"
     style="fill:#191718" />
  <path
     d="M 50.074,4.506 H 32.256 v 1.25 h -4.74 v 4.512 c 0,0.646 0.529,1.175 1.175,1.175 H 71.42 c 0.646,0 1.175,-0.529 1.175,-1.175 V 5.756 H 67.856 V 4.506 H 50.037"
     id="path156"
     inkscape:connector-curvature="0"
     style="fill:#232323" />
  <path
     d="M 71.42,11.693 H 28.691 A 1.426,1.426 0 0 1 27.266,10.268 V 5.506 h 4.739 v -1.25 h 36.1 v 1.25 h 4.739 v 4.762 A 1.425,1.425 0 0 1 71.42,11.693 Z M 27.767,6.006 v 4.262 c 0,0.51 0.415,0.925 0.925,0.925 H 71.42 c 0.51,0 0.925,-0.415 0.925,-0.925 V 6.006 h -4.739 v -1.25 h -35.1 v 1.25 z"
     id="path158"
     inkscape:connector-curvature="0"
     style="fill:#191517" />
  <path
     d="m 32.506,4.756 h 35.1 v 6.438 h -35.1 z"
     id="path160"
     inkscape:connector-curvature="0"
     style="fill:#2d2d2d" />
  <path
     d="M 62.599,9.483 H 37.513 c -0.853,0 -1.551,-0.698 -1.551,-1.551 0,-0.853 0.698,-1.551 1.551,-1.551 h 25.086 c 0.853,0 1.551,0.698 1.551,1.551 0,0.853 -0.699,1.551 -1.551,1.551 z"
     id="path162"
     inkscape:connector-curvature="0"
     style="fill:#282627" />
  <path
     d="M 42.963,8.062 A 0.511,0.511 0 0 1 42.775,8.435 0.623,0.623 0 0 1 42.383,8.55 0.519,0.519 0 0 1 41.962,8.363 C 41.859,8.238 41.807,8.069 41.807,7.855 c 0,-0.198 0.051,-0.359 0.153,-0.482 a 0.548,0.548 0 0 1 0.448,-0.196 c 0.16,0 0.291,0.043 0.395,0.129 a 0.435,0.435 0 0 1 0.16,0.337 H 42.706 L 42.613,7.47 42.416,7.402 A 0.299,0.299 0 0 0 42.163,7.527 0.549,0.549 0 0 0 42.07,7.863 c 0,0.14 0.031,0.251 0.092,0.334 a 0.292,0.292 0 0 0 0.245,0.123 l 0.205,-0.071 0.09,-0.187 z M 44.294,8.51 H 44.018 L 43.926,8.247 H 43.44 L 43.35,8.51 h -0.274 l 0.457,-1.312 h 0.312 z M 43.862,8.022 43.689,7.511 43.527,8.022 Z M 45.546,8.51 H 45.254 L 45.218,8.359 V 8.161 L 45.195,8.046 45.062,7.992 h -0.32 V 8.51 h -0.27 V 7.198 h 0.738 l 0.212,0.083 a 0.36,0.36 0 0 1 0.11,0.281 0.341,0.341 0 0 1 -0.192,0.317 c 0.093,0.05 0.142,0.107 0.144,0.169 l 0.014,0.32 0.049,0.092 V 8.51 Z M 45.274,7.578 c 0,-0.103 -0.052,-0.155 -0.155,-0.155 h -0.378 v 0.344 h 0.373 l 0.111,-0.06 z M 46.703,7.423 H 46.32 V 8.51 H 46.05 V 7.423 H 45.652 V 7.198 h 1.051 z M 47.946,8.51 H 47.654 L 47.618,8.359 V 8.161 L 47.595,8.046 47.462,7.992 h -0.32 V 8.51 h -0.27 V 7.198 h 0.738 l 0.212,0.083 a 0.36,0.36 0 0 1 0.11,0.281 0.341,0.341 0 0 1 -0.192,0.317 c 0.093,0.05 0.142,0.107 0.144,0.169 l 0.014,0.32 0.049,0.092 V 8.51 Z M 47.674,7.578 c 0,-0.103 -0.052,-0.155 -0.155,-0.155 h -0.378 v 0.344 h 0.373 l 0.111,-0.06 z m 0.468,-0.38 h 0.27 V 8.51 h -0.27 z m 1.61,0.61 A 0.844,0.844 0 0 1 49.605,8.31 c -0.094,0.133 -0.203,0.2 -0.328,0.2 H 48.665 V 7.198 h 0.632 c 0.104,0 0.202,0.05 0.293,0.149 a 0.656,0.656 0 0 1 0.162,0.461 z M 49.481,7.83 c 0,-0.107 -0.022,-0.2 -0.067,-0.279 L 49.238,7.425 h -0.302 v 0.86 h 0.249 L 49.399,8.163 A 0.59,0.59 0 0 0 49.481,7.83 Z m 1.628,0.686 H 50.946 L 50.914,8.354 A 0.49,0.49 0 0 1 50.498,8.55 c -0.162,0 -0.3,-0.06 -0.412,-0.18 A 0.695,0.695 0 0 1 49.904,7.873 c 0,-0.211 0.058,-0.38 0.173,-0.507 a 0.597,0.597 0 0 1 0.46,-0.19 c 0.166,0 0.299,0.041 0.398,0.121 a 0.495,0.495 0 0 1 0.174,0.317 H 50.862 C 50.813,7.47 50.705,7.398 50.538,7.398 a 0.34,0.34 0 0 0 -0.274,0.123 0.501,0.501 0 0 0 -0.103,0.33 c 0,0.139 0.036,0.254 0.108,0.345 a 0.335,0.335 0 0 0 0.274,0.137 L 50.772,8.247 50.884,8.029 H 50.581 V 7.805 h 0.527 V 8.516 Z M 52.35,8.51 H 51.369 V 7.198 h 0.95 v 0.225 h -0.68 v 0.299 h 0.629 v 0.225 h -0.629 v 0.338 h 0.711 z m 0.693,-1.312 h 0.27 V 8.51 h -0.27 z M 54.618,8.51 H 54.351 L 53.82,7.594 V 8.51 H 53.551 V 7.198 h 0.265 l 0.532,0.9 v -0.9 h 0.27 z M 55.867,7.618 A 0.44,0.44 0 0 1 55.759,7.921 0.322,0.322 0 0 1 55.511,8.043 H 55.135 V 8.51 H 54.864 V 7.198 h 0.618 c 0.127,0 0.223,0.037 0.287,0.111 a 0.451,0.451 0 0 1 0.098,0.309 z M 55.606,7.601 55.562,7.472 55.442,7.423 h -0.308 v 0.395 h 0.314 l 0.112,-0.07 z m 1.499,0.539 a 0.366,0.366 0 0 1 -0.124,0.275 c -0.1,0.091 -0.238,0.137 -0.416,0.137 A 0.508,0.508 0 0 1 56.211,8.421 0.394,0.394 0 0 1 56.065,8.122 V 7.198 h 0.271 v 0.927 l 0.067,0.136 0.168,0.055 c 0.177,0 0.265,-0.063 0.265,-0.191 V 7.198 h 0.271 V 8.14 Z M 58.304,7.423 H 57.921 V 8.51 H 57.65 V 7.423 H 57.253 V 7.198 h 1.051 z"
     id="path164"
     inkscape:connector-curvature="0"
     style="fill:#191718" />
  <path
     d="m 50.056,15.193 c 8.906,0 17.187,0.666 23.409,2.013 a 0.41,0.41 0 0 0 0.461,-0.224 c 0.762,-1.61 1.147,-3.52 1.469,-5.577 C 76.208,6.2 77.795,1.927 79.007,0 c -1.185,1.883 -2.316,6.348 -3.118,11.482 -0.339,2.17 -0.713,4.26 -1.561,5.968 a 0.678,0.678 0 0 1 -0.609,0.376 l -0.15,-0.017 c -6.207,-1.365 -14.558,-2.116 -23.513,-2.116 -8.956,0 -17.306,0.751 -23.513,2.116 l -0.15,0.017 A 0.677,0.677 0 0 1 25.784,17.45 C 24.936,15.742 24.562,13.652 24.223,11.482 23.42,6.348 22.289,1.883 21.104,0 c 1.212,1.927 2.799,6.2 3.612,11.405 0.321,2.058 0.708,3.967 1.469,5.577 a 0.41,0.41 0 0 0 0.461,0.224 c 6.223,-1.347 14.504,-2.013 23.41,-2.013 z"
     id="path166"
     inkscape:connector-curvature="0"
     style="fill:#191919" />
  <ellipse
     cx="50.056"
     cy="47.646"
     rx="25.875"
     ry="3.234"
     id="ellipse168"
     style="fill:#232323" />
  <path
     d="m 48.261,50.873 c 0.765,-0.494 7.897,-6.371 15.492,-5.968 7.293,0.572 12.141,1.586 12.141,2.742 0,1.786 -11.585,3.234 -25.875,3.234 -0.591,0 -1.177,-0.003 -1.758,-0.008 z"
     id="path170"
     inkscape:connector-curvature="0"
     style="fill:#1c1c1c" />
  <path
     d="m 47.388,74.352 c -0.676,0.776 -1.375,1.275 -1.562,1.112 -0.187,-0.162 0.209,-0.924 0.885,-1.701 0.675,-0.776 1.375,-1.275 1.562,-1.112 0.186,0.162 -0.21,0.923 -0.885,1.701 z m 3,0 c -0.676,0.776 -1.375,1.275 -1.562,1.112 -0.187,-0.162 0.209,-0.924 0.885,-1.701 0.676,-0.776 1.375,-1.275 1.562,-1.112 0.186,0.162 -0.21,0.923 -0.885,1.701 z m 3.012,0 c -0.676,0.776 -1.375,1.275 -1.562,1.112 -0.187,-0.162 0.209,-0.924 0.885,-1.701 0.676,-0.776 1.375,-1.275 1.562,-1.112 0.187,0.162 -0.209,0.923 -0.885,1.701 z"
     id="path172"
     inkscape:connector-curvature="0"
     style="fill:#191718" />
</svg>
