<?xml version="1.0" encoding="UTF-8" standalone="no"?>
<svg
   xmlns:dc="http://purl.org/dc/elements/1.1/"
   xmlns:cc="http://creativecommons.org/ns#"
   xmlns:rdf="http://www.w3.org/1999/02/22-rdf-syntax-ns#"
   xmlns:svg="http://www.w3.org/2000/svg"
   xmlns="http://www.w3.org/2000/svg"
   xmlns:sodipodi="http://sodipodi.sourceforge.net/DTD/sodipodi-0.dtd"
   xmlns:inkscape="http://www.inkscape.org/namespaces/inkscape"
   viewBox="0 0 200 200"
   version="1.1"
   id="svg38"
   sodipodi:docname="game.svg"
   width="200"
   height="200"
   inkscape:version="0.92.4 5da689c313, 2019-01-14">
  <metadata
     id="metadata44">
    <rdf:RDF>
      <cc:Work
         rdf:about="">
        <dc:format>image/svg+xml</dc:format>
        <dc:type
           rdf:resource="http://purl.org/dc/dcmitype/StillImage" />
      </cc:Work>
    </rdf:RDF>
  </metadata>
  <defs
     id="defs42" />
  <sodipodi:namedview
     pagecolor="#ffffff"
     bordercolor="#666666"
     borderopacity="1"
     objecttolerance="10"
     gridtolerance="10"
     guidetolerance="10"
     inkscape:pageopacity="0"
     inkscape:pageshadow="2"
     inkscape:window-width="640"
     inkscape:window-height="480"
     id="namedview40"
     showgrid="false"
     inkscape:zoom="1.18"
     inkscape:cx="100"
     inkscape:cy="100"
     inkscape:window-x="0"
     inkscape:window-y="0"
     inkscape:window-maximized="0"
     inkscape:current-layer="svg38">
    <inkscape:grid
       type="xygrid"
       id="grid851"
       originx="0"
       originy="0" />
  </sodipodi:namedview>
  <path
     d="M 100,200 C 44.8,200 0,155.2 0,100 0,44.8 44.8,0 100,0 c 55.2,0 100,44.8 100,100 0,55.2 -44.8,100 -100,100 z m 14.7,-100 c 0,-8.1 -6.6,-14.7 -14.7,-14.7 -8.1,0 -14.7,6.7 -14.7,14.7 0,8.1 6.5,14.7 14.7,14.7 8.2,0 14.7,-6.6 14.7,-14.7 z"
     id="path2"
     inkscape:connector-curvature="0"
     style="fill:#08060a" />
  <path
     d="M 188.566,53.559 C 171.825,21.73 138.425,0 100,0 44.817,0 0,44.817 0,100 c 0,55.183 44.817,100 100,100 55.183,0 100,-44.817 100,-100 0,-16.224 -3.874,-31.551 -10.746,-45.107 m 0,0 c -0.227,-0.446 -0.456,-0.891 -0.688,-1.333 m -12.651,104.57 c -17.479,22.765 -44.919,37.5 -75.915,37.5 -30.996,0 -58.333,-14.634 -75.915,-37.5 C 11.687,142.073 4.37,121.85 4.37,100 4.37,47.154 47.154,4.37 100,4.37 c 52.845,0 95.63,42.785 95.63,95.63 0,21.85 -7.317,42.073 -19.715,58.13 z"
     id="path4"
     inkscape:connector-curvature="0"
     style="fill:#0e0f0f" />
  <path
     d="M 176.64,157.178 H 23.36 M 10.924,134.89 h 178.153"
     id="path6"
     inkscape:connector-curvature="0"
     style="fill:#030306" />
  <path
     d="m 102.275,180.942 c -0.876,0 -1.591,-0.791 -1.591,-1.768 v -5.608 c 0,-0.971 0.71,-1.762 1.586,-1.762 h 5.224 v -1.768 h -5.235 c -1.754,0 -3.177,1.577 -3.177,3.529 v 5.608 c 0,1.953 1.434,3.53 3.188,3.53 l 5.224,0.005 v -8.31 h -4.49 v 1.762 h 2.901 v 4.78 h -3.63 m -21.888,1.781 5.055,-0.005 c 2.065,0 3.742,-1.862 3.742,-4.158 0,-2.3 -1.676,-4.157 -3.742,-4.157 l -1.313,0.005 -0.188,-0.211 0.188,-0.211 h 5.043 l 0.002,-1.757 h -5.045 c -0.979,0 -1.771,0.876 -1.771,1.963 0,1.087 0.793,1.968 1.771,1.968 l 1.317,0.016 c 1.185,0 2.144,1.066 2.144,2.385 0,1.314 -0.959,2.38 -2.144,2.38 h -5.057 l -0.002,1.782"
     id="path8"
     inkscape:connector-curvature="0"
     style="fill:#7a7a62" />
  <path
     d="m 80.389,180.521 h 5.057 c 0.979,0 1.771,-0.881 1.771,-1.963 0,-1.087 -0.793,-1.968 -1.771,-1.968 l -1.317,-0.016 c -1.185,0 -2.144,-1.066 -2.144,-2.385 0,-1.314 0.959,-2.38 2.144,-2.38 h 5.045 l -0.002,-1.772 h -5.043 c -2.066,0 -3.742,1.862 -3.742,4.157 0,2.295 1.676,4.158 3.742,4.158 h 1.306 l 0.183,0.205 -0.183,0.201 -5.048,0.005 0.002,1.758 m 12.712,0.427 c -0.876,0 -1.593,-0.781 -1.593,-1.773 v -5.624 c 0,-0.955 0.717,-1.746 1.593,-1.746 h 5.395 v -1.768 h -5.395 c -1.754,0 -3.177,1.577 -3.177,3.529 v 5.608 c 0,1.953 1.422,3.53 3.177,3.53 l 5.371,0.005 v -1.768 l -5.371,0.007"
     id="path10"
     inkscape:connector-curvature="0"
     style="fill:#7a7a62" />
  <path
     d="m 91.893,173.566 c 0,-0.744 0.539,-1.346 1.208,-1.346 h 5.395 v 1.763 h -4.649 l -0.375,0.417 h 3.875 v 1.762 H 91.89 l 0.003,-2.596 m 1.208,6.955 c -0.667,0 -1.208,-0.602 -1.208,-1.346 l -0.002,-2.596 h 5.456 v 1.768 h -3.875 l 0.375,0.412 h 4.625 v 1.762 h -5.371 m 7.959,-1.346 c 0,0.744 0.541,1.356 1.21,1.356 h 3.263 v -3.957 h -2.524 v 1.772 h 0.935 l 0.005,0.412 h -0.933 l -0.373,-0.412 -0.005,-3.952 0.375,-0.416 h 4.485 l -0.005,-1.763 -5.224,0.005 c -0.669,0 -1.21,0.602 -1.21,1.346 v 5.609 m 11.343,-6.986 0.489,-0.384 0.489,0.389 2.534,8.348 h -3.711 l 0.002,-1.963 h 1.242 l -0.561,-1.851 -1.816,5.977 h -1.876 l 3.208,-10.516"
     id="path12"
     inkscape:connector-curvature="0"
     style="fill:#7a7a62" />
  <path
     d="m 116.426,180.942 h -4.219 v 1.763 h 6.42 l -3.339,-11.012 c -0.294,-1.071 -1.256,-1.857 -2.4,-1.857 -1.142,0 -2.105,0.786 -2.397,1.857 l -3.369,11.012 h 1.681 L 112.07,172 l 0.816,-0.602 0.814,0.602 2.726,8.942 m 1.246,-9.988 h -0.526 l -0.006,1.496 h -0.369 l -0.005,-1.519 h -0.547 l 0.005,-0.54 h 1.442 z m 1.942,1.496 h -0.369 v -1.677 l -0.322,1.677 h -0.371 l -0.321,-1.665 v 1.665 h -0.369 v -2.059 h 0.54 l 0.337,1.576 0.337,-1.576 h 0.538 z m 58.114,-77.638 -0.008,0.167 c -0.02,0.178 0,0.262 -0.512,0.262 -0.512,0 -0.492,-0.084 -0.512,-0.262 a 8.88,8.88 0 0 1 -0.012,-0.522 c 0,-0.147 0.005,-0.464 0.012,-0.521 0.02,-0.178 0,-0.262 0.512,-0.262 0.512,0 0.492,0.084 0.512,0.262 l 0.008,0.177 h 0.7 a 5.082,5.082 0 0 0 -0.021,-0.36 c -0.04,-0.355 0.1,-0.695 -1.198,-0.695 -1.299,0 -1.158,0.34 -1.199,0.695 a 7.665,7.665 0 0 0 -0.023,0.705 c 0.001,0.296 0.011,0.589 0.023,0.705 0.041,0.355 -0.1,0.695 1.199,0.695 1.298,0 1.158,-0.34 1.198,-0.695 0.008,-0.067 0.015,-0.196 0.019,-0.35 h -0.698 z m -8.304,-1.685 -0.683,1.997 -0.684,-1.997 -1.021,-0.005 v 2.679 h 0.682 v -1.996 l 0.684,1.996 h 0.683 l 0.678,-1.996 v 1.996 h 0.684 v -2.679 z m 9.158,-0.005 h 1.963 v 0.683 h -0.64 v 1.996 h -0.684 v -1.996 h -0.639 z m -5.268,2.679 0.784,-2.682 h 1.019 l 0.785,2.682 h -0.684 l -0.161,-0.554 h -0.896 l 0.127,-0.435 h 0.64 l -0.317,-1.093 -0.613,2.082 z m -7.924,-2.128 c 0.512,0 0.491,0.084 0.512,0.262 a 11.067,11.067 0 0 1 0,1.043 c -0.021,0.178 0,0.262 -0.512,0.262 -0.513,0 -0.492,-0.084 -0.513,-0.262 a 12.59,12.59 0 0 1 0,-1.043 c 0.021,-0.178 0,-0.262 0.513,-0.262 v -0.617 c -1.298,0 -1.158,0.34 -1.198,0.695 a 7.574,7.574 0 0 0 -0.024,0.705 c 0.002,0.296 0.011,0.589 0.024,0.705 0.04,0.355 -0.1,0.695 1.198,0.695 1.299,0 1.159,-0.34 1.199,-0.695 a 9.34,9.34 0 0 0 0.024,-0.705 8.383,8.383 0 0 0 -0.024,-0.705 c -0.04,-0.355 0.1,-0.695 -1.199,-0.695 z m -2.307,1.139 -0.007,0.167 c -0.021,0.178 0,0.262 -0.512,0.262 -0.513,0 -0.492,-0.084 -0.513,-0.262 a 12.59,12.59 0 0 1 0,-1.043 c 0.021,-0.178 0,-0.262 0.513,-0.262 0.512,0 0.491,0.084 0.512,0.262 l 0.007,0.177 h 0.7 a 4.656,4.656 0 0 0 -0.02,-0.36 c -0.041,-0.355 0.1,-0.695 -1.199,-0.695 -1.298,0 -1.158,0.34 -1.198,0.695 a 7.574,7.574 0 0 0 -0.024,0.705 c 0.002,0.296 0.011,0.589 0.024,0.705 0.04,0.355 -0.1,0.695 1.198,0.695 1.299,0 1.158,-0.34 1.199,-0.695 a 5.13,5.13 0 0 0 0.019,-0.35 h -0.699 z m 9.027,0.376 h -0.414 v -0.611 l 0.414,-0.002 c 0.512,0 0.496,-0.084 0.517,-0.262 0.006,-0.058 0.005,-0.01 0.004,-0.158 0,-0.148 0.002,-0.097 -0.004,-0.155 -0.021,-0.177 -0.005,-0.261 -0.517,-0.261 l -0.415,10e-4 0.001,2.059 h -0.685 v -2.677 h 1.099 c 1.299,0 1.156,0.341 1.204,0.695 0.006,0.042 0.006,0.236 0.006,0.34 l -0.006,0.339 c -0.033,0.356 0.095,0.692 -1.204,0.692 z m -13.288,10.703 -4.276,-0.005 a 1.121,1.121 0 0 1 -1.121,-1.121 v -6.51 c 0,-0.619 0.502,-1.121 1.121,-1.121 l 2.677,-0.003 a 0.583,0.583 0 0 0 0.582,-0.582 l 0.008,-2.603 c 0,-0.135 0.109,-0.244 0.244,-0.244 h 1.568 c 0.135,0 0.244,0.109 0.244,0.244 l 0.017,11.701 a 0.244,0.244 0 0 1 -0.244,0.244 h -0.82 l -0.02,0.581 h 1.07 a 0.583,0.583 0 0 0 0.582,-0.582 V 93.698 a 0.582,0.582 0 0 0 -0.582,-0.582 h -2.059 a 0.581,0.581 0 0 0 -0.582,0.582 l 0.003,2.609 a 0.244,0.244 0 0 1 -0.244,0.244 l -2.445,-0.004 a 1.71,1.71 0 0 0 -1.709,1.708 v 6.51 a 1.71,1.71 0 0 0 1.709,1.708 l 4.257,-0.001 z"
     id="path14"
     inkscape:connector-curvature="0"
     style="fill:#7a7a62" />
  <path
     d="m 157.231,103.494 v -4.212 a 0.639,0.639 0 1 0 -1.278,0 v 4.547 a 0.639,0.639 0 1 0 1.278,0 v -0.335 l 0.581,0.02 v 0.315 a 1.22,1.22 0 1 1 -2.44,0 v -4.547 a 1.22,1.22 0 1 1 2.44,0 v 4.231 z m 5.656,2.397 h -0.801 a 0.244,0.244 0 0 1 -0.244,-0.244 l 0.01,-8.263 c 0,-0.135 0.109,-0.244 0.244,-0.244 h 1.569 c 0.135,0 0.244,0.109 0.244,0.244 l 0.016,8.263 a 0.243,0.243 0 0 1 -0.243,0.244 h -0.795 v 0.579 l 1.025,0.001 a 0.583,0.583 0 0 0 0.583,-0.582 v -8.754 a 0.583,0.583 0 0 0 -0.583,-0.582 h -2.059 a 0.583,0.583 0 0 0 -0.582,0.582 l -10e-4,8.751 a 0.58,0.58 0 0 0 0.58,0.582 l 1.036,0.002 v -0.579 z m 7.393,-7.126 -1.724,-0.002 a 0.961,0.961 0 0 0 0,1.921 l 2.361,0.006 c 0.619,0 1.121,0.502 1.121,1.121 l -0.008,2.94 a 1.12,1.12 0 0 1 -1.121,1.12 l -4.688,0.009 a 0.244,0.244 0 0 1 -0.244,-0.244 v -1.139 c 0,-0.135 0.109,-0.244 0.244,-0.244 l 3.195,-0.011 a 0.961,0.961 0 0 0 0,-1.921 l -2.313,-0.01 a 1.12,1.12 0 0 1 -1.12,-1.12 v -2.938 a 1.12,1.12 0 0 1 1.12,-1.121 l 4.347,-0.021 c 0.135,0 0.244,0.109 0.244,0.244 v 1.165 a 0.244,0.244 0 0 1 -0.244,0.244 l -1.17,0.001 -0.02,0.573 h 1.429 a 0.581,0.581 0 0 0 0.583,-0.58 l 0.002,-1.631 a 0.583,0.583 0 0 0 -0.582,-0.583 l -4.589,0.002 c -0.943,0 -1.708,0.765 -1.708,1.708 v 2.938 c 0,0.943 0.765,1.708 1.708,1.708 l 2.313,-0.004 a 0.3865,0.3865 0 1 1 0,0.773 l -3.444,-10e-4 a 0.583,0.583 0 0 0 -0.582,0.582 v 1.629 c 0,0.321 0.261,0.582 0.582,0.582 l 4.938,-0.001 c 0.943,0 1.708,-0.765 1.708,-1.708 l 0.008,-2.94 c 0,-0.944 -0.765,-1.708 -1.708,-1.708 l -2.361,0.007 a 0.386,0.386 0 1 1 0,-0.772 h 1.704 z m 8.688,1.616 h 0.74 a 0.244,0.244 0 0 0 0.244,-0.244 l -0.003,-1.882 c 0,-0.619 -0.502,-1.121 -1.121,-1.121 h -3.704 a 1.12,1.12 0 0 0 -1.12,1.121 v 6.51 a 1.12,1.12 0 0 0 1.12,1.121 h 3.704 c 0.619,0 1.121,-0.502 1.121,-1.121 l 0.003,-1.789 a 0.244,0.244 0 0 0 -0.244,-0.244 h -1.397 a 0.244,0.244 0 0 0 -0.244,0.244 l 0.008,0.854 c 0,0.674 -0.424,1.22 -1.098,1.22 -0.674,0 -1.099,-0.546 -1.099,-1.22 v -4.547 c 0,-0.674 0.425,-1.22 1.099,-1.22 0.674,0 1.098,0.546 1.098,1.22 l -0.008,0.854 c 0,0.135 0.109,0.244 0.244,0.244 h 0.657 l -0.021,0.587 h -0.879 a 0.583,0.583 0 0 1 -0.582,-0.583 l 0.007,-1.103 c 0,-0.353 -0.164,-0.639 -0.517,-0.639 -0.354,0 -0.518,0.286 -0.518,0.639 v 4.547 c 0,0.353 0.164,0.639 0.518,0.639 0.353,0 0.517,-0.286 0.517,-0.639 l -0.007,-1.103 c 0,-0.321 0.261,-0.582 0.582,-0.582 h 1.887 c 0.322,0 0.582,0.261 0.582,0.582 l -0.001,2.038 c 0,0.943 -0.765,1.708 -1.708,1.708 h -3.704 a 1.708,1.708 0 0 1 -1.708,-1.708 v -6.51 c 0,-0.943 0.765,-1.708 1.708,-1.708 h 3.704 c 0.943,0 1.708,0.765 1.708,1.708 l 0.001,2.13 c 0,0.321 -0.26,0.583 -0.582,0.583 h -1.008 z"
     id="path16"
     inkscape:connector-curvature="0"
     style="fill:#7a7a62" />
  <path
     d="m 100,73.7 c -14.5,0 -26.3,11.7 -26.3,26.3 0,14.6 11.7,26.3 26.3,26.3 14.6,0 26.3,-11.7 26.3,-26.3 0,-14.6 -11.8,-26.3 -26.3,-26.3 z m 0,41 c -8.1,0 -14.7,-6.5 -14.7,-14.7 0,-8.2 6.5,-14.7 14.7,-14.7 8.2,0 14.7,6.6 14.7,14.7 0,8.2 -6.6,14.7 -14.7,14.7 z"
     id="path18"
     inkscape:connector-curvature="0"
     style="fill:#d6d7d8" />
  <path
     d="M 100,73.7 V 72.55 A 27.385,27.385 0 0 0 80.601,80.561 27.346,27.346 0 0 0 72.551,100 c -0.001,7.61 3.053,14.482 8.012,19.438 4.956,4.958 11.828,8.013 19.438,8.012 7.61,10e-4 14.482,-3.054 19.438,-8.012 4.958,-4.956 8.013,-11.828 8.012,-19.438 a 27.35,27.35 0 0 0 -8.05,-19.439 27.39,27.39 0 0 0 -19.4,-8.011 v 2.299 C 113.87,74.85 125.151,86.035 125.152,100 A 25.053,25.053 0 0 1 100.001,125.15 25.052,25.052 0 0 1 74.851,100 c 0,-13.965 11.282,-25.15 25.15,-25.151 V 73.7 Z m 0,41 v -1.15 A 13.508,13.508 0 0 1 86.45,99.999 c 10e-4,-3.794 1.498,-7.17 3.938,-9.612 2.442,-2.44 5.818,-3.937 9.612,-3.938 A 13.508,13.508 0 0 1 113.55,100 13.51,13.51 0 0 1 100,113.551 v 2.298 c 4.36,10e-4 8.33,-1.753 11.198,-4.61 a 15.784,15.784 0 0 0 4.651,-11.24 15.826,15.826 0 0 0 -4.61,-11.199 15.784,15.784 0 0 0 -11.24,-4.651 c -4.406,-0.001 -8.38,1.752 -11.238,4.612 -2.86,2.858 -4.613,6.832 -4.612,11.238 a 15.784,15.784 0 0 0 4.651,11.24 15.828,15.828 0 0 0 11.198,4.61 V 114.7 Z"
     id="path20"
     inkscape:connector-curvature="0"
     style="fill:#3b3a3c" />
  <path
     d="m 100,69.8 c -16.7,0 -30.2,13.6 -30.2,30.2 0,16.6 13.5,30.2 30.2,30.2 16.7,0 30.2,-13.601 30.2,-30.2 0,-16.6 -13.5,-30.2 -30.2,-30.2 z m 0,58.2 c -15.5,0 -28,-12.601 -28,-28 0,-15.4 12.6,-28 28,-28 15.4,0 28,12.6 28,28 0,15.399 -12.5,28 -28,28 z"
     id="path22"
     inkscape:connector-curvature="0"
     style="fill:#bbbdbf" />
  <path
     d="M 0.82,113.14 H 0.857"
     id="path24"
     inkscape:connector-curvature="0"
     style="fill:#030408" />
  <path
     d="m 68.213,150.591 a 0.985,0.985 0 0 0 -0.561,-0.392 c -4.258,-1.042 -7.004,-0.893 -8.22,0.474 -0.437,0.447 -0.702,0.88 -0.78,1.326 -0.094,0.446 -0.032,0.866 0.202,1.272 h -0.016 c 0.172,0.311 0.438,0.595 0.781,0.853 h 0.016 c 0.281,0.202 0.577,0.365 0.92,0.501 0.233,0.107 0.78,0.175 1.653,0.188 0.172,0.014 0.5,0.014 0.999,0.014 0.437,0.014 0.78,0.014 1.029,0.027 h 0.016 c 0.78,0.014 1.572,0.08 1.826,0.148 0.252,0.068 0.697,0.471 0.732,0.65 0.036,0.179 0,0 0,0 0.047,0.107 0.094,0.137 0.05,0.411 -0.046,0.273 -0.142,0.225 -0.268,0.36 v -0.015 c -0.141,0.108 -0.375,0.189 -0.702,0.271 a 9.518,9.518 0 0 1 -1.685,0.176 c -0.655,0.014 -1.311,0 -1.981,-0.067 a 11.725,11.725 0 0 1 -1.669,-0.285 0.974,0.974 0 0 0 -0.702,0.055 0.79,0.79 0 0 0 -0.467,0.474 c -0.078,0.203 -0.047,0.419 0.061,0.622 a 0.969,0.969 0 0 0 0.547,0.393 c 0.562,0.162 1.232,0.27 2.012,0.352 0.765,0.067 1.513,0.095 2.262,0.081 a 12.234,12.234 0 0 0 2.091,-0.229 c 0.811,-0.177 1.373,-0.447 1.669,-0.799 h 0.016 c 0.249,-0.271 0.436,-0.516 0.545,-0.731 v -0.015 c 0.125,-0.27 0.188,-0.541 0.188,-0.824 v -0.027 c -0.016,-0.203 0.004,-0.5 -0.121,-0.784 -0.047,-0.148 -0.093,-0.23 -0.344,-0.703 -0.251,-0.471 -0.831,-0.772 -1.845,-0.962 h -0.016 c -0.499,-0.081 -1.216,-0.149 -2.137,-0.176 -0.265,-0.014 -0.624,-0.014 -1.092,-0.027 -0.467,0 -0.795,0 -0.967,-0.014 -0.499,-0.013 -0.826,-0.027 -0.951,-0.054 a 1.921,1.921 0 0 1 -0.453,-0.244 1.201,1.201 0 0 1 -0.312,-0.324 v -0.014 a 0.28,0.28 0 0 1 -0.047,-0.271 1.1,1.1 0 0 1 0.359,-0.54 c 0.936,-0.785 3.026,-0.785 6.286,0.027 0.25,0.053 0.484,0.04 0.702,-0.081 0.235,-0.108 0.39,-0.271 0.453,-0.487 0.078,-0.203 0.046,-0.406 -0.079,-0.61 z m 9.179,-0.686 a 1.041,1.041 0 0 0 -0.671,-0.23 h -6.24 c -0.249,0 -0.483,0.082 -0.655,0.23 a 0.74,0.74 0 0 0 -0.28,0.582 v 6.767 c 0,0.216 0.094,0.42 0.28,0.568 a 0.94,0.94 0 0 0 0.655,0.244 h 6.24 a 0.98,0.98 0 0 0 0.671,-0.244 0.749,0.749 0 0 0 0.265,-0.568 0.778,0.778 0 0 0 -0.265,-0.583 1.047,1.047 0 0 0 -0.671,-0.23 h -5.303 v -1.758 h 3.899 a 0.98,0.98 0 0 0 0.671,-0.244 0.749,0.749 0 0 0 0.265,-0.568 0.78,0.78 0 0 0 -0.265,-0.582 1.036,1.036 0 0 0 -0.671,-0.23 H 71.418 V 151.3 h 5.303 a 0.985,0.985 0 0 0 0.671,-0.244 0.728,0.728 0 0 0 0.265,-0.568 0.782,0.782 0 0 0 -0.265,-0.583 z m 10.772,0.958 a 0.86,0.86 0 0 0 -0.388,-0.558 c -1.712,-1.073 -3.589,-1.276 -5.403,-0.999 -0.715,0.146 -0.947,0.132 -1.729,0.47 -0.78,0.337 -1.324,0.963 -1.324,0.963 -0.374,0.353 -0.576,0.783 -0.825,1.354 -0.249,0.571 -0.249,0.855 -0.279,1.56 a 4.87,4.87 0 0 0 0.31,1.969 4.267,4.267 0 0 0 1.075,1.617 v -0.016 a 4.495,4.495 0 0 0 1.712,1.072 c 0.669,0.25 1.401,0.382 2.195,0.382 1.868,0 3.224,-0.368 4.064,-1.102 0.981,-0.749 1.385,-1.88 1.23,-3.393 -0.016,-0.234 -0.124,-0.412 -0.296,-0.573 a 0.99,0.99 0 0 0 -0.639,-0.221 H 83.82 a 0.955,0.955 0 0 0 -0.655,0.25 0.828,0.828 0 0 0 -0.28,0.631 0.8,0.8 0 0 0 0.28,0.617 0.907,0.907 0 0 0 0.655,0.264 h 3.115 c -0.063,0.44 -0.266,0.81 -0.577,1.087 -0.607,0.455 -1.556,0.676 -2.849,0.676 a 4.486,4.486 0 0 1 -1.51,-0.25 l -0.016,-0.014 a 2.796,2.796 0 0 1 -1.044,-0.647 2.639,2.639 0 0 1 -0.654,-0.983 3.265,3.265 0 0 1 -0.202,-1.307 c 0.015,-0.499 0.078,-0.771 0.186,-1.107 0.079,-0.251 0.203,-0.455 0.374,-0.617 0,0 0.278,-0.377 0.748,-0.581 0.47,-0.205 0.81,-0.265 1.386,-0.396 h 0.016 c 1.371,-0.294 2.678,-0.044 3.94,0.763 a 0.973,0.973 0 0 0 0.699,0.133 c 0.25,-0.059 0.452,-0.177 0.592,-0.382 a 0.823,0.823 0 0 0 0.14,-0.662 z m 11.788,7.138 a 0.748,0.748 0 0 0 0.187,-0.609 c -0.982,-5.643 -2.745,-8.404 -5.303,-8.269 -2.557,-0.136 -4.336,2.531 -5.289,7.998 a 0.706,0.706 0 0 0 0.172,0.596 0.885,0.885 0 0 0 0.608,0.325 c 0.25,0.039 0.483,-0.015 0.702,-0.15 a 0.829,0.829 0 0 0 0.375,-0.528 c 0.117,-0.679 0.246,-1.307 0.384,-1.881 h 6.056 c 0.157,0.65 0.304,1.367 0.438,2.15 a 0.78,0.78 0 0 0 0.374,0.529 0.937,0.937 0 0 0 0.687,0.147 0.907,0.907 0 0 0 0.609,-0.308 z m -7.7,-4.141 c 0.683,-2.003 1.546,-3.04 2.583,-3.112 1.005,0.071 1.859,1.109 2.542,3.112 z"
     id="path26"
     inkscape:connector-curvature="0"
     style="fill:#7a7a62" />
  <path
     d="m 63.886,158.68 c -0.631,0 -1.254,-0.027 -1.905,-0.085 -0.871,-0.092 -1.524,-0.206 -2.06,-0.36 a 1.187,1.187 0 0 1 -0.671,-0.481 c -0.148,-0.275 -0.173,-0.54 -0.08,-0.782 a 0.999,0.999 0 0 1 0.586,-0.589 c 0.24,-0.12 0.566,-0.149 0.867,-0.063 a 11.6,11.6 0 0 0 1.626,0.276 c 0.599,0.061 1.259,0.08 1.948,0.066 a 9.182,9.182 0 0 0 1.639,-0.172 c 0.314,-0.078 0.504,-0.149 0.604,-0.227 l 0.041,-0.025 0.081,-0.059 c 0.042,-0.028 0.054,-0.035 0.071,-0.144 a 0.66,0.66 0 0 0 0.014,-0.18 l -0.014,-0.018 v -0.002 l -0.031,-0.069 -0.015,-0.075 -0.001,-0.006 c -0.028,-0.104 -0.393,-0.445 -0.578,-0.496 -0.206,-0.056 -0.938,-0.125 -1.763,-0.14 -0.161,-0.008 -0.326,-0.011 -0.52,-0.015 a 43.89,43.89 0 0 1 -0.528,-0.013 c -0.494,0.001 -0.829,0 -1.011,-0.015 -0.886,-0.013 -1.459,-0.082 -1.738,-0.211 a 4.311,4.311 0 0 1 -0.921,-0.497 l -0.056,-0.028 c -0.374,-0.279 -0.655,-0.588 -0.836,-0.915 l -0.021,-0.067 a 1.886,1.886 0 0 1 -0.183,-1.325 c 0.081,-0.465 0.353,-0.931 0.831,-1.418 0.72,-0.811 1.965,-1.225 3.692,-1.225 1.291,0 2.893,0.232 4.76,0.688 0.308,0.089 0.531,0.245 0.693,0.48 0.165,0.266 0.196,0.523 0.098,0.772 -0.071,0.251 -0.268,0.463 -0.561,0.598 -0.152,0.086 -0.34,0.134 -0.542,0.134 -0.101,0 -0.208,-0.013 -0.319,-0.036 -3.14,-0.781 -5.21,-0.804 -6.077,-0.076 a 0.913,0.913 0 0 0 -0.296,0.443 l 0.014,0.117 0.032,0.063 c 0.049,0.071 0.13,0.151 0.243,0.238 0.096,0.072 0.223,0.142 0.375,0.203 0.158,0.026 0.665,0.039 0.886,0.045 0.176,0.014 0.505,0.014 0.961,0.014 0.206,0.006 0.385,0.009 0.545,0.012 0.22,0.005 0.406,0.008 0.561,0.017 0.842,0.023 1.587,0.085 2.148,0.176 l 0.037,0.004 c 1.084,0.202 1.721,0.542 2.002,1.07 l 0.048,0.091 c 0.215,0.405 0.26,0.489 0.309,0.644 0.105,0.237 0.114,0.488 0.122,0.689 l 0.006,0.133 v 0.041 c 0,0.3 -0.063,0.586 -0.193,0.873 l -0.014,0.045 c -0.113,0.222 -0.301,0.476 -0.576,0.774 l -0.052,0.041 c -0.338,0.368 -0.927,0.646 -1.754,0.825 -0.61,0.13 -1.328,0.209 -2.136,0.236 -0.131,0.005 -0.26,0.006 -0.388,0.006 z m -3.618,-2.02 a 0.69,0.69 0 0 0 -0.305,0.07 0.594,0.594 0 0 0 -0.364,0.361 0.57,0.57 0 0 0 0.051,0.48 0.732,0.732 0 0 0 0.415,0.29 c 0.505,0.146 1.131,0.255 1.967,0.343 0.758,0.067 1.489,0.094 2.23,0.08 a 11.925,11.925 0 0 0 2.042,-0.225 c 0.756,-0.165 1.275,-0.408 1.541,-0.724 l 0.06,-0.05 c 0.218,-0.241 0.37,-0.445 0.463,-0.62 l 0.011,-0.034 a 1.75,1.75 0 0 0 0.171,-0.75 v -0.028 l -0.007,-0.134 c -0.006,-0.181 -0.014,-0.387 -0.099,-0.58 -0.044,-0.137 -0.081,-0.206 -0.29,-0.601 l -0.047,-0.09 c -0.216,-0.405 -0.747,-0.675 -1.67,-0.849 l -0.029,-0.003 c -0.377,-0.062 -1.049,-0.143 -2.102,-0.173 a 17.663,17.663 0 0 0 -0.549,-0.016 c -0.162,-0.003 -0.343,-0.006 -0.543,-0.012 -0.475,10e-4 -0.797,0 -0.979,-0.015 -0.592,-0.015 -0.853,-0.03 -0.985,-0.059 l -0.04,-0.012 a 2.143,2.143 0 0 1 -0.507,-0.274 1.418,1.418 0 0 1 -0.365,-0.383 l -0.017,-0.037 a 0.455,0.455 0 0 1 -0.046,-0.392 c 0.059,-0.224 0.201,-0.438 0.416,-0.625 1.012,-0.849 3.18,-0.851 6.507,-0.022 0.189,0.04 0.369,0.026 0.519,-0.058 0.199,-0.092 0.31,-0.21 0.356,-0.37 0.062,-0.159 0.041,-0.308 -0.057,-0.467 a 0.759,0.759 0 0 0 -0.434,-0.3 c -1.818,-0.444 -3.378,-0.671 -4.628,-0.671 -1.581,0 -2.706,0.363 -3.343,1.079 -0.428,0.438 -0.667,0.84 -0.735,1.235 -0.088,0.416 -0.028,0.792 0.18,1.155 l 0.023,0.065 c 0.149,0.246 0.368,0.479 0.652,0.698 l 0.049,0.025 c 0.271,0.195 0.547,0.346 0.869,0.473 0.132,0.061 0.491,0.155 1.564,0.172 0.179,0.014 0.503,0.014 0.995,0.014 0.2,0.006 0.375,0.01 0.53,0.013 0.201,0.004 0.372,0.007 0.514,0.015 0.803,0.014 1.615,0.081 1.894,0.157 0.296,0.081 0.802,0.503 0.881,0.779 l 0.013,0.026 c 0.055,0.111 0.087,0.204 0.044,0.471 -0.041,0.246 -0.135,0.326 -0.244,0.398 l -0.071,0.058 -0.104,0.063 c -0.154,0.096 -0.37,0.174 -0.711,0.26 a 9.696,9.696 0 0 1 -1.741,0.183 16.73,16.73 0 0 1 -0.448,0.005 c -0.562,0 -1.073,-0.023 -1.564,-0.073 -0.657,-0.07 -1.23,-0.168 -1.708,-0.291 z m 16.452,1.602 h -6.24 c -0.321,0 -0.612,-0.108 -0.821,-0.307 a 0.89,0.89 0 0 1 -0.34,-0.701 v -6.767 c 0,-0.279 0.117,-0.521 0.347,-0.721 0.214,-0.186 0.503,-0.287 0.813,-0.287 h 6.24 c 0.31,0 0.586,0.095 0.822,0.281 0.229,0.216 0.339,0.455 0.339,0.726 a 0.906,0.906 0 0 1 -0.331,0.707 c -0.232,0.2 -0.511,0.302 -0.83,0.302 H 71.64 v 1.366 h 3.674 c 0.312,0 0.588,0.095 0.823,0.282 0.229,0.217 0.338,0.457 0.338,0.727 0,0.27 -0.118,0.521 -0.331,0.707 -0.231,0.2 -0.51,0.302 -0.831,0.302 h -3.674 v 1.366 h 5.079 c 0.309,0 0.585,0.094 0.822,0.28 0.23,0.219 0.339,0.46 0.339,0.729 a 0.93,0.93 0 0 1 -0.332,0.708 c -0.227,0.199 -0.506,0.3 -0.827,0.3 z m -6.24,-8.391 a 0.757,0.757 0 0 0 -0.497,0.174 0.554,0.554 0 0 0 -0.214,0.442 v 6.767 c 0,0.167 0.074,0.317 0.207,0.424 a 0.71,0.71 0 0 0 0.504,0.192 h 6.24 a 0.74,0.74 0 0 0 0.512,-0.187 0.565,0.565 0 0 0 0.199,-0.43 0.592,0.592 0 0 0 -0.206,-0.45 0.793,0.793 0 0 0 -0.505,-0.167 h -5.303 c -0.125,0 -0.225,-0.088 -0.225,-0.196 v -1.758 c 0,-0.108 0.101,-0.196 0.225,-0.196 h 3.899 a 0.736,0.736 0 0 0 0.512,-0.187 0.567,0.567 0 0 0 0.199,-0.43 0.59,0.59 0 0 0 -0.206,-0.449 0.784,0.784 0 0 0 -0.505,-0.168 h -3.899 c -0.125,0 -0.225,-0.088 -0.225,-0.195 v -1.759 c 0,-0.108 0.101,-0.196 0.225,-0.196 h 5.303 c 0.202,0 0.365,-0.06 0.513,-0.188 a 0.54,0.54 0 0 0 0.199,-0.429 0.593,0.593 0 0 0 -0.206,-0.448 0.792,0.792 0 0 0 -0.506,-0.167 h -6.24 z m 13.028,9.003 a 6.526,6.526 0 0 1 -2.283,-0.398 4.708,4.708 0 0 1 -1.739,-1.069 l -0.05,-0.034 a 4.489,4.489 0 0 1 -1.123,-1.688 4.991,4.991 0 0 1 -0.321,-2.037 l 0.005,-0.115 c 0.026,-0.624 0.04,-0.938 0.289,-1.507 0.259,-0.594 0.473,-1.044 0.87,-1.419 0.01,-0.012 0.571,-0.651 1.389,-1.005 0.632,-0.273 0.922,-0.325 1.363,-0.405 0.122,-0.022 0.256,-0.047 0.415,-0.079 A 9.695,9.695 0 0 1 83.804,149 c 1.508,0 2.889,0.387 4.104,1.147 0.26,0.17 0.425,0.406 0.479,0.685 a 0.99,0.99 0 0 1 -0.173,0.8 c -0.159,0.232 -0.403,0.391 -0.724,0.465 l -0.241,0.023 c -0.228,0 -0.444,-0.062 -0.645,-0.185 -1.202,-0.77 -2.454,-1.013 -3.757,-0.733 l -0.039,0.006 -0.212,0.048 c -0.436,0.098 -0.724,0.162 -1.104,0.328 -0.41,0.178 -0.658,0.509 -0.66,0.512 l -0.024,0.027 a 1.214,1.214 0 0 0 -0.322,0.535 c -0.107,0.334 -0.164,0.59 -0.178,1.062 -0.016,0.46 0.048,0.877 0.189,1.238 0.136,0.354 0.339,0.661 0.607,0.914 0.268,0.265 0.582,0.459 0.965,0.599 l 0.054,0.027 c 0.419,0.146 0.897,0.222 1.386,0.222 1.237,0 2.146,-0.212 2.702,-0.628 0.22,-0.196 0.375,-0.447 0.456,-0.743 h -2.846 c -0.322,0 -0.615,-0.117 -0.826,-0.332 a 0.975,0.975 0 0 1 -0.334,-0.744 c 0,-0.299 0.111,-0.549 0.34,-0.765 0.215,-0.201 0.506,-0.312 0.82,-0.312 h 4.047 c 0.3,0 0.558,0.088 0.79,0.271 0.239,0.222 0.352,0.442 0.37,0.707 0.161,1.568 -0.278,2.766 -1.306,3.551 -0.872,0.758 -2.293,1.149 -4.214,1.149 z m -3.796,-1.819 0.059,0.04 c 0.451,0.455 0.999,0.798 1.626,1.019 a 6.002,6.002 0 0 0 2.111,0.368 c 1.797,0 3.111,-0.352 3.905,-1.044 0.938,-0.717 1.315,-1.772 1.165,-3.236 -0.012,-0.176 -0.084,-0.315 -0.236,-0.456 a 0.734,0.734 0 0 0 -0.475,-0.159 H 83.82 a 0.711,0.711 0 0 0 -0.491,0.187 0.651,0.651 0 0 0 -0.22,0.498 c 0,0.189 0.076,0.358 0.213,0.478 a 0.68,0.68 0 0 0 0.497,0.207 h 3.115 l 0.168,0.066 0.055,0.153 a 1.953,1.953 0 0 1 -0.64,1.2 c -0.663,0.498 -1.642,0.734 -3.009,0.734 -0.57,0 -1.107,-0.089 -1.596,-0.264 l -0.057,-0.029 a 3.02,3.02 0 0 1 -1.086,-0.684 2.819,2.819 0 0 1 -0.699,-1.051 3.458,3.458 0 0 1 -0.213,-1.376 c 0.015,-0.509 0.08,-0.798 0.194,-1.154 0.086,-0.272 0.225,-0.503 0.413,-0.685 0.062,-0.079 0.356,-0.432 0.825,-0.636 0.423,-0.185 0.746,-0.257 1.192,-0.357 l 0.236,-0.053 0.045,-0.007 c 1.424,-0.299 2.804,-0.029 4.101,0.802 0.121,0.073 0.248,0.11 0.383,0.11 l 0.139,-0.013 a 0.706,0.706 0 0 0 0.444,-0.29 0.644,0.644 0 0 0 0.111,-0.529 0.67,0.67 0 0 0 -0.301,-0.433 c -1.495,-0.936 -3.268,-1.263 -5.229,-0.962 -0.15,0.031 -0.288,0.057 -0.413,0.079 -0.42,0.076 -0.674,0.122 -1.254,0.373 -0.721,0.312 -1.24,0.899 -1.245,0.905 -0.356,0.339 -0.545,0.736 -0.793,1.307 -0.223,0.509 -0.234,0.765 -0.26,1.382 l -0.005,0.115 a 4.66,4.66 0 0 0 0.299,1.899 c 0.217,0.574 0.544,1.077 0.973,1.496 z m 19.468,1.465 c -0.235,0 -0.463,-0.07 -0.661,-0.202 a 0.972,0.972 0 0 1 -0.458,-0.647 33.587,33.587 0 0 0 -0.4,-1.991 h -5.69 a 29.94,29.94 0 0 0 -0.345,1.714 1.024,1.024 0 0 1 -0.46,0.654 c -0.28,0.175 -0.571,0.236 -0.879,0.188 a 1.102,1.102 0 0 1 -0.75,-0.403 0.875,0.875 0 0 1 -0.213,-0.735 c 0.968,-5.562 2.821,-8.31 5.525,-8.168 l 0.165,-0.005 c 2.609,0 4.358,2.761 5.347,8.439 a 0.923,0.923 0 0 1 -0.226,0.753 1.15,1.15 0 0 1 -0.767,0.39 z m -7.392,-3.234 h 6.056 c 0.106,0 0.198,0.065 0.22,0.155 0.16,0.658 0.308,1.386 0.441,2.162 a 0.588,0.588 0 0 0 0.282,0.398 0.686,0.686 0 0 0 0.515,0.115 0.693,0.693 0 0 0 0.472,-0.236 0.562,0.562 0 0 0 0.141,-0.466 c -0.958,-5.5 -2.667,-8.228 -5.066,-8.096 l -0.198,-0.005 c -2.334,0 -3.977,2.637 -4.882,7.836 a 0.526,0.526 0 0 0 0.128,0.447 0.665,0.665 0 0 0 0.458,0.25 l 0.13,0.011 a 0.767,0.767 0 0 0 0.414,-0.127 0.63,0.63 0 0 0 0.284,-0.404 c 0.115,-0.665 0.245,-1.302 0.385,-1.885 0.022,-0.089 0.114,-0.155 0.22,-0.155 z m 5.589,-1.229 h -5.125 l -0.18,-0.079 -0.036,-0.173 c 0.718,-2.107 1.627,-3.171 2.78,-3.252 h 0.036 c 1.124,0.08 2.021,1.144 2.741,3.252 l -0.036,0.173 z m -4.821,-0.393 h 4.518 c -0.623,-1.709 -1.395,-2.646 -2.239,-2.72 -0.883,0.075 -1.649,0.989 -2.279,2.72 z m 22.268,-3.145 a 0.99,0.99 0 0 0 -0.565,-0.395 c -4.294,-1.051 -7.063,-0.901 -8.29,0.478 -0.441,0.45 -0.708,0.887 -0.787,1.337 a 1.75,1.75 0 0 0 0.204,1.283 h -0.016 c 0.174,0.313 0.441,0.6 0.787,0.858 h 0.016 c 0.283,0.205 0.582,0.369 0.928,0.506 0.235,0.109 0.787,0.178 1.667,0.19 0.174,0.014 0.504,0.014 1.006,0.014 0.441,0.014 0.787,0.014 1.039,0.028 h 0.016 c 0.786,0.014 1.585,0.08 1.841,0.148 0.255,0.071 0.704,0.476 0.738,0.657 0.036,0.181 0,0 0,0 0.047,0.108 0.096,0.138 0.05,0.413 -0.046,0.278 -0.144,0.228 -0.27,0.364 v -0.014 c -0.143,0.108 -0.378,0.189 -0.708,0.273 a 9.576,9.576 0 0 1 -1.699,0.177 c -0.661,0.015 -1.321,0 -1.998,-0.067 a 11.646,11.646 0 0 1 -1.683,-0.287 0.98,0.98 0 0 0 -0.708,0.055 0.793,0.793 0 0 0 -0.471,0.477 c -0.079,0.205 -0.047,0.423 0.062,0.628 a 0.98,0.98 0 0 0 0.552,0.396 c 0.565,0.164 1.242,0.273 2.03,0.355 0.771,0.067 1.524,0.096 2.28,0.082 0.818,-0.027 1.526,-0.11 2.108,-0.232 0.816,-0.179 1.385,-0.45 1.684,-0.806 h 0.016 c 0.251,-0.272 0.439,-0.52 0.551,-0.737 v -0.014 c 0.126,-0.273 0.188,-0.546 0.188,-0.832 v -0.027 c -0.016,-0.204 0.005,-0.503 -0.121,-0.791 -0.048,-0.149 -0.094,-0.232 -0.347,-0.708 -0.254,-0.477 -0.839,-0.78 -1.861,-0.971 h -0.016 c -0.503,-0.083 -1.227,-0.15 -2.154,-0.177 -0.268,-0.014 -0.629,-0.014 -1.101,-0.028 -0.472,0 -0.802,0 -0.976,-0.014 -0.503,-0.013 -0.833,-0.027 -0.959,-0.054 a 2.014,2.014 0 0 1 -0.457,-0.246 1.233,1.233 0 0 1 -0.314,-0.327 v -0.014 a 0.285,0.285 0 0 1 -0.047,-0.273 1.11,1.11 0 0 1 0.362,-0.545 c 0.944,-0.792 3.052,-0.792 6.339,0.027 0.253,0.054 0.488,0.041 0.708,-0.082 0.236,-0.108 0.394,-0.273 0.457,-0.491 0.077,-0.204 0.046,-0.409 -0.081,-0.614 z m 2.556,7.965 a 0.844,0.844 0 0 0 0.378,-0.532 c 0.119,-0.685 0.248,-1.317 0.387,-1.896 h 6.109 c 0.159,0.656 0.306,1.379 0.441,2.169 a 0.78,0.78 0 0 0 0.377,0.532 c 0.205,0.137 0.44,0.191 0.692,0.15 a 0.93,0.93 0 0 0 0.613,-0.313 c 0.156,-0.191 0.22,-0.383 0.188,-0.614 -0.99,-5.69 -2.769,-8.474 -5.349,-8.337 -2.579,-0.137 -4.357,2.552 -5.333,8.064 a 0.67,0.67 0 0 0 0.173,0.601 0.885,0.885 0 0 0 0.614,0.327 0.98,0.98 0 0 0 0.71,-0.151 z m 1.234,-4.066 c 0.689,-2.02 1.561,-3.064 2.605,-3.138 1.023,0.071 1.882,1.118 2.567,3.138 z m 16.023,-4.135 a 1.048,1.048 0 0 0 -0.677,-0.232 h -8.179 c -0.253,0 -0.488,0.082 -0.662,0.232 a 0.747,0.747 0 0 0 -0.283,0.587 c 0,0.218 0.096,0.422 0.283,0.573 a 0.946,0.946 0 0 0 0.662,0.246 h 3.145 v 6.276 c 0,0.219 0.095,0.424 0.283,0.574 a 0.95,0.95 0 0 0 0.661,0.245 0.986,0.986 0 0 0 0.676,-0.245 0.752,0.752 0 0 0 0.269,-0.574 v -6.277 h 3.146 a 0.985,0.985 0 0 0 0.676,-0.245 0.752,0.752 0 0 0 0.268,-0.573 0.786,0.786 0 0 0 -0.268,-0.587 z m 11.022,-0.163 a 0.987,0.987 0 0 0 -0.677,-0.246 0.946,0.946 0 0 0 -0.66,0.246 0.717,0.717 0 0 0 -0.284,0.572 v 4.053 c 0,0.314 -0.063,0.614 -0.203,0.888 -0.126,0.286 -0.33,0.519 -0.567,0.736 a 2.618,2.618 0 0 1 -0.849,0.491 c -0.313,0.123 -0.66,0.177 -1.022,0.177 h -1.4 c -0.361,0 -0.691,-0.053 -1.021,-0.177 -0.331,-0.108 -0.598,-0.286 -0.85,-0.491 a 2.595,2.595 0 0 1 -0.566,-0.724 v -0.013 a 2.132,2.132 0 0 1 -0.203,-0.888 v -4.053 a 0.75,0.75 0 0 0 -0.269,-0.572 0.981,0.981 0 0 0 -0.676,-0.246 0.946,0.946 0 0 0 -0.661,0.246 0.715,0.715 0 0 0 -0.283,0.572 v 4.053 c 0,0.533 0.126,1.037 0.347,1.528 h 0.016 c 0.22,0.479 0.551,0.887 0.96,1.256 0.424,0.354 0.896,0.641 1.445,0.847 0.552,0.204 1.134,0.3 1.764,0.3 h 1.399 a 5.15,5.15 0 0 0 1.777,-0.3 h -0.016 a 4.94,4.94 0 0 0 1.448,-0.847 c 0.408,-0.369 0.738,-0.777 0.976,-1.256 v 0.015 a 3.5,3.5 0 0 0 0.347,-1.543 v -4.053 a 0.773,0.773 0 0 0 -0.272,-0.571 z m 1.267,0.008 c -0.167,0.149 -0.268,0.325 -0.268,0.541 v 7.049 a 0.73,0.73 0 0 0 0.284,0.568 c 0.201,0.162 0.452,0.244 0.72,0.244 0.284,0 0.519,-0.082 0.702,-0.244 a 0.697,0.697 0 0 0 0.302,-0.568 v -6.29 c 2.158,-0.107 3.813,-0.013 4.967,0.271 0.87,0.23 1.339,0.61 1.388,1.139 0.018,0.42 -0.183,0.719 -0.602,0.896 -0.67,0.244 -1.656,0.312 -2.96,0.189 a 1.136,1.136 0 0 0 -0.637,0.121 0.838,0.838 0 0 0 -0.418,0.407 0.68,0.68 0 0 0 -0.033,0.515 c 0.066,0.177 0.201,0.312 0.386,0.42 l 5.019,2.981 c 0.218,0.134 0.468,0.189 0.736,0.148 a 0.97,0.97 0 0 0 0.669,-0.326 0.73,0.73 0 0 0 0.185,-0.596 0.837,0.837 0 0 0 -0.402,-0.542 l -2.659,-1.572 a 5.466,5.466 0 0 0 1.004,-0.298 c 1.138,-0.462 1.707,-1.247 1.725,-2.345 0.066,-1.301 -0.871,-2.195 -2.776,-2.684 -1.489,-0.406 -3.715,-0.502 -6.676,-0.298 a 1.07,1.07 0 0 0 -0.656,0.274 z m 11.62,0.141 a 0.724,0.724 0 0 0 -0.173,0.464 v 7.097 c 0,0.219 0.094,0.424 0.283,0.573 a 0.945,0.945 0 0 0 0.66,0.245 0.985,0.985 0 0 0 0.676,-0.245 0.748,0.748 0 0 0 0.269,-0.573 v -5.062 l 6.244,5.621 c 0.142,0.123 0.298,0.205 0.488,0.245 0.188,0.027 0.361,0.014 0.55,-0.04 a 0.94,0.94 0 0 0 0.426,-0.313 0.695,0.695 0 0 0 0.157,-0.451 v -7.097 a 0.78,0.78 0 0 0 -0.269,-0.586 1.049,1.049 0 0 0 -0.676,-0.232 c -0.251,0 -0.486,0.083 -0.66,0.232 -0.188,0.164 -0.283,0.354 -0.283,0.586 v 5.063 l -6.229,-5.636 a 1.239,1.239 0 0 0 -0.489,-0.232 1.079,1.079 0 0 0 -0.55,0.056 0.795,0.795 0 0 0 -0.424,0.285 z"
     id="path28"
     inkscape:connector-curvature="0"
     style="fill:#7a7a62" />
  <path
     d="m 110.465,158.676 c -0.635,0 -1.264,-0.028 -1.924,-0.086 -0.875,-0.092 -1.534,-0.207 -2.078,-0.363 a 1.196,1.196 0 0 1 -0.676,-0.486 c -0.149,-0.277 -0.174,-0.545 -0.081,-0.788 0.095,-0.269 0.3,-0.475 0.59,-0.594 0.247,-0.12 0.574,-0.15 0.875,-0.063 0.447,0.115 1,0.21 1.639,0.278 0.613,0.061 1.276,0.08 1.964,0.065 a 9.221,9.221 0 0 0 1.654,-0.172 c 0.21,-0.053 0.48,-0.13 0.609,-0.229 l 0.039,-0.024 0.084,-0.061 c 0.042,-0.028 0.054,-0.035 0.072,-0.145 0.015,-0.093 0.018,-0.145 0.015,-0.182 l -0.047,-0.09 -0.016,-0.076 -10e-4,-0.006 c -0.029,-0.104 -0.396,-0.449 -0.583,-0.501 -0.207,-0.055 -0.946,-0.125 -1.777,-0.14 a 19.08,19.08 0 0 0 -0.536,-0.016 c -0.156,-0.003 -0.33,-0.007 -0.522,-0.013 -0.499,0.001 -0.835,0.001 -1.019,-0.014 -0.895,-0.014 -1.474,-0.083 -1.754,-0.213 a 4.41,4.41 0 0 1 -0.929,-0.502 l -0.056,-0.028 c -0.377,-0.283 -0.661,-0.594 -0.843,-0.924 l -0.022,-0.067 a 1.906,1.906 0 0 1 -0.185,-1.336 c 0.082,-0.469 0.356,-0.938 0.837,-1.431 0.726,-0.816 1.981,-1.234 3.723,-1.234 1.302,0 2.917,0.234 4.8,0.694 0.311,0.09 0.536,0.248 0.699,0.484 0.165,0.268 0.197,0.526 0.1,0.779 -0.073,0.254 -0.271,0.468 -0.566,0.604 a 1.111,1.111 0 0 1 -0.547,0.135 c -0.103,0 -0.207,-0.012 -0.32,-0.035 -3.166,-0.789 -5.254,-0.812 -6.128,-0.078 a 0.908,0.908 0 0 0 -0.298,0.448 l 0.015,0.117 0.032,0.063 c 0.05,0.072 0.132,0.152 0.245,0.24 0.097,0.072 0.225,0.142 0.379,0.205 0.165,0.026 0.69,0.039 0.894,0.044 0.177,0.015 0.509,0.015 0.969,0.015 0.221,0.007 0.412,0.01 0.581,0.014 0.208,0.004 0.385,0.007 0.533,0.015 0.853,0.025 1.604,0.086 2.167,0.178 l 0.038,0.004 c 1.092,0.203 1.734,0.546 2.019,1.08 l 0.05,0.094 c 0.216,0.406 0.261,0.49 0.31,0.646 0.106,0.239 0.116,0.493 0.123,0.696 l 0.006,0.134 0.001,0.04 c 0,0.303 -0.064,0.591 -0.194,0.882 l -0.015,0.044 c -0.114,0.226 -0.305,0.481 -0.581,0.782 l -0.052,0.041 c -0.341,0.371 -0.936,0.65 -1.769,0.832 -0.62,0.131 -1.345,0.211 -2.155,0.238 -0.132,0.005 -0.26,0.006 -0.388,0.006 z m -3.652,-2.036 a 0.696,0.696 0 0 0 -0.309,0.07 0.597,0.597 0 0 0 -0.366,0.364 0.58,0.58 0 0 0 0.051,0.484 0.745,0.745 0 0 0 0.418,0.292 c 0.513,0.148 1.145,0.258 1.984,0.347 0.77,0.067 1.505,0.093 2.249,0.08 a 12.142,12.142 0 0 0 2.061,-0.227 c 0.763,-0.167 1.286,-0.412 1.554,-0.73 l 0.061,-0.05 c 0.22,-0.242 0.373,-0.447 0.467,-0.625 l 0.012,-0.033 c 0.116,-0.252 0.173,-0.499 0.173,-0.758 l -0.007,-0.162 c -0.007,-0.184 -0.015,-0.39 -0.101,-0.586 -0.045,-0.138 -0.08,-0.207 -0.29,-0.602 l -0.05,-0.094 c -0.218,-0.409 -0.754,-0.682 -1.685,-0.856 l -0.028,-0.003 c -0.379,-0.063 -1.055,-0.143 -2.12,-0.174 -0.149,-0.008 -0.321,-0.011 -0.522,-0.015 a 38.077,38.077 0 0 1 -0.58,-0.014 c -0.479,0 -0.804,0 -0.988,-0.015 -0.584,-0.014 -0.857,-0.03 -0.992,-0.059 l -0.041,-0.012 a 2.235,2.235 0 0 1 -0.511,-0.276 1.407,1.407 0 0 1 -0.369,-0.388 l -0.016,-0.037 a 0.452,0.452 0 0 1 -0.046,-0.394 c 0.059,-0.223 0.205,-0.444 0.419,-0.631 1.02,-0.856 3.208,-0.859 6.562,-0.022 0.19,0.041 0.371,0.026 0.523,-0.059 0.2,-0.093 0.313,-0.212 0.359,-0.373 0.062,-0.161 0.041,-0.312 -0.059,-0.473 a 0.766,0.766 0 0 0 -0.438,-0.301 c -1.833,-0.449 -3.407,-0.678 -4.667,-0.678 -1.594,0 -2.729,0.366 -3.371,1.089 -0.432,0.441 -0.672,0.847 -0.742,1.245 -0.088,0.42 -0.028,0.798 0.182,1.165 l 0.023,0.065 c 0.149,0.247 0.371,0.483 0.658,0.704 l 0.049,0.025 c 0.273,0.198 0.552,0.35 0.876,0.478 0.133,0.062 0.495,0.157 1.578,0.174 0.179,0.013 0.506,0.013 1.002,0.013 0.199,0.007 0.37,0.01 0.525,0.013 0.207,0.004 0.383,0.008 0.528,0.016 0.266,0.005 1.778,0.123 1.909,0.157 0.3,0.084 0.81,0.509 0.89,0.788 l 0.013,0.026 c 0.055,0.112 0.088,0.205 0.044,0.474 -0.041,0.249 -0.137,0.33 -0.246,0.403 l -0.071,0.057 -0.104,0.063 c -0.154,0.096 -0.373,0.174 -0.719,0.261 a 9.83,9.83 0 0 1 -1.757,0.186 17.542,17.542 0 0 1 -2.029,-0.069 c -0.665,-0.07 -1.244,-0.17 -1.722,-0.294 z m 18.79,2.479 c -0.24,0 -0.465,-0.069 -0.668,-0.205 a 0.977,0.977 0 0 1 -0.463,-0.652 34.066,34.066 0 0 0 -0.401,-2.008 h -5.74 a 32.241,32.241 0 0 0 -0.349,1.728 1.032,1.032 0 0 1 -0.464,0.66 1.242,1.242 0 0 1 -0.676,0.204 l -0.208,-0.017 a 1.102,1.102 0 0 1 -0.76,-0.406 0.84,0.84 0 0 1 -0.211,-0.752 c 1.004,-5.676 2.829,-8.371 5.569,-8.226 l 0.166,-0.005 c 2.631,0 4.396,2.783 5.393,8.51 0.039,0.283 -0.034,0.522 -0.229,0.759 -0.205,0.23 -0.462,0.361 -0.769,0.395 z m -7.458,-3.261 h 6.109 c 0.107,0 0.199,0.065 0.223,0.157 0.157,0.649 0.306,1.384 0.442,2.181 a 0.59,0.59 0 0 0 0.284,0.4 c 0.166,0.11 0.336,0.146 0.521,0.117 a 0.708,0.708 0 0 0 0.475,-0.241 0.567,0.567 0 0 0 0.143,-0.47 c -0.966,-5.545 -2.678,-8.295 -5.109,-8.163 l -0.199,-0.004 c -2.339,0 -3.995,2.658 -4.923,7.901 a 0.495,0.495 0 0 0 0.128,0.45 0.662,0.662 0 0 0 0.461,0.251 l 0.143,0.013 c 0.141,0 0.267,-0.04 0.407,-0.127 a 0.64,0.64 0 0 0 0.286,-0.407 c 0.117,-0.674 0.248,-1.315 0.389,-1.9 0.021,-0.092 0.113,-0.158 0.22,-0.158 z m 5.641,-1.243 h -5.172 l -0.182,-0.079 -0.035,-0.175 c 0.725,-2.124 1.642,-3.196 2.804,-3.278 h 0.036 c 1.14,0.079 2.045,1.152 2.767,3.279 l -0.035,0.174 z m -4.866,-0.394 h 4.56 c -0.632,-1.748 -1.393,-2.67 -2.261,-2.742 -0.89,0.074 -1.663,0.996 -2.299,2.742 z"
     id="path30"
     inkscape:connector-curvature="0"
     style="fill:#7a7a62" />
  <path
     d="m 129.871,158.983 c -0.322,0 -0.617,-0.11 -0.828,-0.31 a 0.9,0.9 0 0 1 -0.343,-0.708 v -6.079 h -2.919 a 1.19,1.19 0 0 1 -0.828,-0.31 0.896,0.896 0 0 1 -0.343,-0.707 c 0,-0.28 0.117,-0.525 0.35,-0.727 0.217,-0.188 0.509,-0.29 0.822,-0.29 h 8.179 c 0.314,0 0.593,0.096 0.829,0.283 0.231,0.218 0.342,0.461 0.341,0.733 a 0.935,0.935 0 0 1 -0.334,0.713 c -0.23,0.201 -0.512,0.304 -0.836,0.304 h -2.919 v 6.079 a 0.934,0.934 0 0 1 -0.336,0.714 1.227,1.227 0 0 1 -0.835,0.305 z m -4.09,-8.734 a 0.77,0.77 0 0 0 -0.502,0.175 0.564,0.564 0 0 0 -0.215,0.446 c 0,0.17 0.072,0.317 0.209,0.428 0.139,0.131 0.31,0.194 0.508,0.194 h 3.146 c 0.126,0 0.228,0.088 0.228,0.197 v 6.276 c 0,0.171 0.072,0.318 0.209,0.429 0.139,0.131 0.31,0.193 0.508,0.193 0.204,0 0.369,-0.06 0.516,-0.188 a 0.571,0.571 0 0 0 0.202,-0.435 v -6.277 c 0,-0.108 0.102,-0.197 0.227,-0.197 h 3.146 c 0.205,0 0.369,-0.06 0.516,-0.188 a 0.568,0.568 0 0 0 0.201,-0.434 0.594,0.594 0 0 0 -0.207,-0.453 0.8,0.8 0 0 0 -0.51,-0.168 h -8.182 z m 15.616,8.624 h -1.399 a 5.254,5.254 0 0 1 -1.852,-0.315 5.11,5.11 0 0 1 -1.515,-0.886 c -0.447,-0.403 -0.769,-0.817 -0.986,-1.269 l -0.043,-0.058 a 3.845,3.845 0 0 1 -0.362,-1.601 v -4.053 c 0,-0.282 0.127,-0.538 0.358,-0.72 0.195,-0.187 0.489,-0.296 0.813,-0.296 0.327,0 0.601,0.099 0.836,0.303 a 0.933,0.933 0 0 1 0.335,0.713 v 4.053 c 0,0.269 0.063,0.542 0.188,0.814 l 0.011,0.034 c 0.124,0.229 0.287,0.434 0.51,0.64 0.275,0.223 0.507,0.357 0.765,0.442 0.303,0.112 0.6,0.164 0.942,0.164 h 1.399 c 0.346,0 0.659,-0.054 0.93,-0.16 0.268,-0.088 0.507,-0.228 0.787,-0.455 0.251,-0.232 0.412,-0.439 0.511,-0.663 0.126,-0.246 0.188,-0.518 0.188,-0.816 v -4.053 c 0,-0.281 0.128,-0.536 0.358,-0.719 0.196,-0.188 0.49,-0.297 0.813,-0.297 0.324,0 0.605,0.102 0.837,0.304 a 0.94,0.94 0 0 1 0.337,0.71 v 4.055 c 0,0.578 -0.119,1.107 -0.364,1.619 l -0.029,0.044 a 4.426,4.426 0 0 1 -0.991,1.259 c -0.457,0.38 -0.933,0.662 -1.46,0.867 l -0.049,0.024 a 5.39,5.39 0 0 1 -1.868,0.316 z m -5.397,-2.727 0.039,0.054 c 0.195,0.425 0.493,0.814 0.911,1.192 0.42,0.35 0.871,0.613 1.373,0.802 0.516,0.19 1.063,0.284 1.674,0.284 h 1.399 c 0.584,0 1.119,-0.087 1.632,-0.265 l 0.041,-0.02 a 4.704,4.704 0 0 0 1.381,-0.808 c 0.405,-0.367 0.709,-0.759 0.923,-1.191 l 0.024,-0.037 c 0.204,-0.445 0.305,-0.909 0.305,-1.413 v -4.053 a 0.573,0.573 0 0 0 -0.203,-0.432 0.746,0.746 0 0 0 -0.518,-0.189 0.7,0.7 0 0 0 -0.494,0.183 0.552,0.552 0 0 0 -0.223,0.438 v 4.053 c 0,0.354 -0.075,0.681 -0.224,0.969 -0.116,0.264 -0.306,0.511 -0.609,0.791 a 2.92,2.92 0 0 1 -0.933,0.541 3.051,3.051 0 0 1 -1.104,0.189 h -1.4 c -0.4,0 -0.764,-0.063 -1.111,-0.193 -0.391,-0.128 -0.694,-0.35 -0.913,-0.528 a 2.843,2.843 0 0 1 -0.62,-0.786 l -0.018,-0.052 a 2.293,2.293 0 0 1 -0.206,-0.931 v -4.053 a 0.569,0.569 0 0 0 -0.2,-0.433 0.75,0.75 0 0 0 -0.517,-0.188 0.712,0.712 0 0 0 -0.494,0.182 0.54,0.54 0 0 0 -0.223,0.439 v 4.053 a 3.5,3.5 0 0 0 0.308,1.402 z m 11.663,2.582 c -0.33,0 -0.633,-0.103 -0.873,-0.296 a 0.913,0.913 0 0 1 -0.356,-0.715 v -7.048 c 0,-0.254 0.111,-0.482 0.331,-0.68 0.229,-0.202 0.499,-0.313 0.801,-0.332 2.987,-0.205 5.255,-0.104 6.759,0.307 2.019,0.518 3.007,1.486 2.936,2.881 -0.019,1.175 -0.643,2.022 -1.855,2.516 a 4.543,4.543 0 0 1 -0.566,0.194 l 2.254,1.332 c 0.271,0.17 0.437,0.395 0.497,0.669 a 0.909,0.909 0 0 1 -0.226,0.752 1.213,1.213 0 0 1 -0.825,0.404 l -0.196,0.014 c -0.248,0 -0.482,-0.066 -0.696,-0.197 l -5.016,-2.979 c -0.239,-0.141 -0.394,-0.312 -0.474,-0.521 -0.071,-0.25 -0.056,-0.466 0.042,-0.657 0.104,-0.217 0.278,-0.388 0.518,-0.5 0.216,-0.116 0.464,-0.162 0.76,-0.146 1.27,0.119 2.221,0.059 2.857,-0.174 0.326,-0.138 0.477,-0.364 0.462,-0.706 -0.04,-0.433 -0.441,-0.748 -1.227,-0.956 -1.092,-0.27 -2.669,-0.363 -4.675,-0.272 v 6.101 a 0.892,0.892 0 0 1 -0.381,0.721 c -0.216,0.186 -0.506,0.288 -0.851,0.288 z m 2.67,-8.779 c -0.821,0 -1.742,0.034 -2.734,0.103 a 0.828,0.828 0 0 0 -0.512,0.215 c -0.137,0.123 -0.202,0.251 -0.202,0.402 v 7.049 c 0,0.162 0.076,0.313 0.213,0.425 0.154,0.124 0.35,0.189 0.564,0.189 a 0.789,0.789 0 0 0 0.542,-0.185 c 0.158,-0.119 0.235,-0.264 0.235,-0.43 v -6.29 c 0,-0.104 0.094,-0.191 0.214,-0.197 2.154,-0.107 3.855,-0.013 5.041,0.278 0.975,0.258 1.495,0.699 1.553,1.313 0.021,0.506 -0.231,0.88 -0.729,1.09 -0.729,0.266 -1.759,0.333 -3.083,0.208 l -0.083,-0.003 a 0.827,0.827 0 0 0 -0.411,0.096 0.636,0.636 0 0 0 -0.327,0.314 0.502,0.502 0 0 0 -0.022,0.391 c 0.042,0.112 0.137,0.213 0.291,0.305 l 5.021,2.982 a 0.831,0.831 0 0 0 0.57,0.117 c 0.233,-0.023 0.396,-0.103 0.526,-0.252 a 0.548,0.548 0 0 0 0.141,-0.45 0.63,0.63 0 0 0 -0.31,-0.407 l -2.655,-1.569 -0.095,-0.199 0.17,-0.157 c 0.384,-0.08 0.697,-0.173 0.957,-0.282 1.06,-0.431 1.581,-1.14 1.597,-2.17 0.063,-1.212 -0.793,-2.024 -2.613,-2.491 -0.958,-0.263 -2.256,-0.395 -3.859,-0.395 z m 16.845,8.897 -0.222,-0.017 a 1.307,1.307 0 0 1 -0.61,-0.299 l -5.858,-5.274 v 4.573 a 0.933,0.933 0 0 1 -0.336,0.714 c -0.23,0.2 -0.512,0.303 -0.835,0.303 -0.323,0 -0.617,-0.11 -0.827,-0.31 a 0.89,0.89 0 0 1 -0.343,-0.707 v -7.097 c 0,-0.211 0.07,-0.399 0.215,-0.577 0.106,-0.154 0.299,-0.285 0.533,-0.358 a 1.34,1.34 0 0 1 0.662,-0.064 c 0.23,0.051 0.421,0.141 0.603,0.279 l 5.853,5.294 v -4.573 c 0,-0.279 0.117,-0.524 0.35,-0.726 0.218,-0.188 0.509,-0.291 0.82,-0.291 0.311,0 0.59,0.096 0.828,0.284 0.232,0.218 0.344,0.46 0.344,0.732 v 7.097 a 0.88,0.88 0 0 1 -0.199,0.565 1.14,1.14 0 0 1 -0.517,0.38 1.604,1.604 0 0 1 -0.461,0.072 z m -6.917,-6.277 0.163,0.061 6.244,5.622 c 0.114,0.099 0.236,0.16 0.379,0.19 0.101,0.014 0.267,0.009 0.427,-0.036 a 0.701,0.701 0 0 0 0.305,-0.233 0.517,0.517 0 0 0 0.121,-0.344 v -7.097 a 0.595,0.595 0 0 0 -0.208,-0.452 0.801,0.801 0 0 0 -0.51,-0.169 0.768,0.768 0 0 0 -0.501,0.176 0.562,0.562 0 0 0 -0.216,0.446 v 5.063 l -0.142,0.184 -0.248,-0.046 -6.229,-5.636 a 0.974,0.974 0 0 0 -0.381,-0.178 l -0.122,-0.007 a 0.752,0.752 0 0 0 -0.278,0.05 c -0.155,0.05 -0.265,0.121 -0.325,0.209 a 0.546,0.546 0 0 0 -0.14,0.361 v 7.096 c 0,0.172 0.071,0.319 0.208,0.427 0.14,0.132 0.311,0.194 0.509,0.194 0.204,0 0.367,-0.06 0.516,-0.188 a 0.562,0.562 0 0 0 0.201,-0.433 v -5.062 l 0.141,-0.184 z m 11.076,-2.72 h -0.655 l -0.007,1.633 h -0.459 l -0.007,-1.658 h -0.68 l 0.007,-0.591 h 1.793 z m 2.415,1.633 h -0.459 v -1.83 l -0.399,1.83 h -0.462 l -0.399,-1.817 v 1.817 h -0.459 v -2.249 h 0.672 l 0.419,1.722 0.418,-1.722 h 0.669 z m -121.99,6.621 h -0.679 l -0.007,1.632 h -0.477 l -0.007,-1.658 h -0.707 l 0.007,-0.591 h 1.861 z m 2.508,1.632 h -0.477 v -1.83 l -0.415,1.83 h -0.479 l -0.415,-1.817 v 1.817 h -0.477 v -2.249 h 0.698 l 0.435,1.722 0.435,-1.722 h 0.695 z m -19.802,-9.784 c -0.643,0.279 -1.251,0.569 -1.811,0.865 -1.243,0.662 -2.261,1.354 -2.94,2.171 -0.679,0.818 -0.976,1.949 -0.414,2.896 0.479,0.805 1.506,1.077 2.426,1.084 0.92,0.009 1.932,-0.18 3.068,-0.467 2.273,-0.571 5.015,-1.571 7.716,-2.533 2.701,-0.963 5.368,-1.889 7.313,-2.304 0.97,-0.208 1.769,-0.271 2.182,-0.219 l 0.32,0.088 0.031,0.059 c 0.096,0.355 0.049,0.581 -0.199,0.926 -0.248,0.345 -0.755,0.769 -1.529,1.208 -0.251,0.144 -0.531,0.288 -0.833,0.433 -0.134,1.127 -0.678,2.144 -0.858,2.471 1.079,-0.426 2.026,-0.86 2.825,-1.313 0.929,-0.526 1.675,-1.086 2.176,-1.781 0.5,-0.693 0.699,-1.56 0.476,-2.385 a 2.013,2.013 0 0 0 -0.808,-1.117 c -0.395,-0.268 -0.849,-0.396 -1.303,-0.453 -0.904,-0.116 -1.874,0.017 -2.974,0.252 -2.201,0.471 -4.896,1.421 -7.603,2.387 -2.71,0.965 -5.431,1.947 -7.508,2.47 -1.038,0.262 -1.92,0.4 -2.474,0.396 -0.553,-0.006 -0.575,-0.083 -0.575,-0.085 -0.159,-0.266 -0.151,-0.416 0.244,-0.892 0.379,-0.456 1.154,-1.038 2.197,-1.605 0.269,-1.388 0.47,-1.856 0.855,-2.552 z"
     id="path32"
     inkscape:connector-curvature="0"
     style="fill:#7a7a62" />
  <path
     d="m 41.721,145.995 -0.277,0.013 c 0.541,0.44 1.038,0.842 1.24,1.029 0.389,0.358 1.905,1.595 2.39,2.045 a 98.2,98.2 0 0 0 1.769,1.531 c 0.398,0.333 0.261,0.07 0.78,0.528 0.849,0.749 1.479,1.376 2.247,2.04 l -0.037,-0.625 c -0.32,-0.534 -0.995,-0.876 -1.474,-1.239 -0.298,-0.226 -0.563,-0.329 -0.777,-0.531 l -0.721,-0.663 c -0.071,-0.088 -2.76,-2.491 -4.535,-4.105 z m -0.868,0.045 -0.805,0.112 c 0.74,0.613 1.568,1.268 1.845,1.524 0.385,0.356 1.921,1.51 2.402,1.96 0.327,0.296 1.116,0.967 1.573,1.349 0.401,0.334 0.445,0.336 0.964,0.796 1.01,0.894 1.719,1.684 2.71,2.496 l 0.218,0.185 c 0.05,-0.255 0.081,-0.513 0.1,-0.771 a 316.867,316.867 0 0 0 -2.518,-1.936 c -0.299,-0.226 -0.563,-0.331 -0.777,-0.531 l -0.721,-0.663 c -0.082,-0.096 -3.274,-2.949 -4.991,-4.521 z m 2.407,0.093 c 0.64,0.563 2.518,2.151 2.956,2.559 0.323,0.296 1.464,1.236 1.921,1.62 0.398,0.333 -0.012,-0.065 0.507,0.393 0.37,0.328 0.696,0.629 1.013,0.924 l -0.211,-0.672 -0.125,-0.09 c -0.298,-0.226 -0.563,-0.331 -0.777,-0.531 l -0.087,-0.168 c -0.065,-0.077 -2.394,-2.135 -4.29,-3.828 a 8.959,8.959 0 0 0 -0.907,-0.207 z m -3.713,0.134 -0.652,0.188 c 0.806,0.683 1.866,1.514 2.187,1.81 0.385,0.358 1.917,1.512 2.402,1.961 0.326,0.296 0.948,0.78 1.405,1.163 0.398,0.333 0.28,0.387 0.799,0.847 1.013,0.894 2.051,1.818 3.04,2.632 l 0.736,0.639 0.214,-0.708 a 205.298,205.298 0 0 0 -3.164,-2.457 c -0.298,-0.226 -0.441,-0.438 -0.659,-0.639 l -0.824,-0.532 c -0.09,-0.106 -3.908,-3.463 -5.484,-4.904 z m -1.088,0.339 -0.727,0.321 c 0.816,0.713 2.093,1.662 2.456,1.999 0.387,0.358 1.957,1.587 2.441,2.036 0.326,0.297 0.466,0.318 0.923,0.701 0.398,0.333 0.79,0.64 1.309,1.099 1.013,0.894 2.023,2.028 3.012,2.842 0.404,0.33 0.777,0.706 1.069,1.024 0.146,-0.252 0.28,-0.511 0.395,-0.775 -0.957,-0.774 -2.505,-2.021 -3.702,-2.923 -0.298,-0.226 -0.373,-0.439 -0.59,-0.64 l -1.063,-0.579 c -0.094,-0.108 -4.213,-3.861 -5.523,-5.105 z m 7.169,0.289 a 78.694,78.694 0 0 1 1.548,1.344 c 0.233,0.212 0.889,0.716 1.417,1.129 a 7.816,7.816 0 0 0 -2.965,-2.473 z m -8.202,0.2 -0.592,0.361 0.002,0.002 c 0.813,0.717 1.823,1.496 2.191,1.84 0.387,0.356 2.118,1.586 2.602,2.035 0.326,0.296 0.333,0.276 0.79,0.659 0.398,0.333 0.923,0.683 1.442,1.141 1.013,0.893 2.023,2.028 3.012,2.843 a 41.789,41.789 0 0 1 1.582,1.369 l 0.333,-0.477 C 47.654,155.9 44.975,153.6 43.756,152.466 l -0.904,-0.445 c -0.099,-0.117 -4.39,-3.932 -5.426,-4.926 z m -0.825,0.519 -0.553,0.438 0.168,0.357 c 0.794,0.657 1.935,1.496 2.305,1.84 0.387,0.356 2.116,1.586 2.601,2.036 0.325,0.297 0.333,0.275 0.79,0.658 1.175,0.982 3.043,2.699 4.398,3.966 0.6,0.56 1.15,1.004 1.439,1.231 l 0.51,-0.553 c -0.255,-0.196 -4.544,-3.522 -6.051,-4.93 l -0.894,-0.722 c -0.093,-0.105 -3.445,-3.126 -4.713,-4.321 z m -0.809,0.663 -0.519,0.541 c 0.783,0.658 2.103,1.706 2.499,2.073 0.385,0.356 1.314,1.006 1.798,1.455 0.325,0.296 0.936,0.844 1.393,1.228 1.175,0.983 3.067,2.758 4.426,4.025 0.746,0.698 1.271,1.175 1.43,1.32 l 0.696,-0.553 c -0.485,-0.409 -4.908,-4.159 -6.376,-5.531 l -0.387,-0.149 c -0.1,-0.119 -4.069,-3.547 -4.96,-4.409 z m -0.665,0.724 -0.473,0.651 c 0.712,0.545 2.261,1.84 2.673,2.222 0.344,0.32 0.55,0.468 0.821,0.72 l 0.657,0.585 c 0.325,0.296 0.114,0.045 0.57,0.428 1.813,1.519 6.146,5.334 6.675,5.8 l 0.681,-0.426 c -0.572,-0.484 -4.889,-4.146 -6.34,-5.502 l -0.859,-0.452 c -0.097,-0.116 -3.408,-3.07 -4.405,-4.026 z m -0.547,0.766 a 6.83,6.83 0 0 0 -0.464,0.873 c 0.656,0.512 2.293,1.927 2.777,2.272 0.429,0.308 0.493,0.381 0.765,0.633 0.235,0.297 0.732,0.493 0.906,0.638 1.816,1.521 5.967,5.268 6.458,5.714 0.305,-0.121 0.597,-0.258 0.879,-0.41 -0.681,-0.546 -5.621,-4.514 -7.069,-5.866 l -1.181,-1.066 c -0.099,-0.12 -2.291,-2.021 -3.071,-2.788 z m -0.509,0.993 a 6.894,6.894 0 0 0 -0.275,0.822 c 0.575,0.453 2.334,2.095 2.847,2.438 0.496,0.333 0.134,0.146 0.406,0.398 l -0.078,-0.37 c 0.325,0.297 0.782,0.774 1.239,1.158 1.776,1.486 5.259,4.522 5.821,5.016 l 0.73,-0.229 c -0.646,-0.551 -5.557,-4.726 -7.009,-6.082 l -0.46,-0.265 c -0.003,-0.089 -2.491,-2.158 -3.221,-2.886 z m -0.303,0.934 a 6.528,6.528 0 0 0 -0.202,1.565 c 0.005,3.611 2.984,6.671 6.995,7.185 -1.509,-1.267 -4.048,-3.42 -5.069,-4.421 l -0.875,0.025 c -0.028,-0.845 -0.185,-1.229 -0.123,-1.227 0.048,0.002 0.229,0.239 0.706,0.678 0.805,0.742 4.017,3.55 5.649,4.975 0.289,0.03 0.582,0.047 0.874,0.05 l 0.584,-0.026 c -1.217,-1.049 -4.302,-3.723 -5.546,-4.885 l -1.536,-0.938 -1.445,-1.522 c 0.221,0.093 1.068,0.837 1.66,1.234 0.496,0.333 0.775,0.457 1.047,0.709 l 0.499,0.446 c 0.325,0.296 0.743,0.726 1.209,1.098 1.543,1.236 3.596,3.056 4.463,3.832 0.364,-0.038 0.721,-0.1 1.075,-0.181 -0.817,-0.678 -5.599,-4.655 -7.022,-5.985 l -0.48,-0.182 c -0.003,-0.093 -1.708,-1.67 -2.417,-2.384 z"
     id="path34"
     inkscape:connector-curvature="0"
     style="fill:#7a7a62" />
  <path
     d="m 36.929,158.001 c -2.804,0.407 -4.529,0.336 -4.529,0.336 -0.587,-0.03 -1.091,0.374 -1.117,0.898 -0.026,0.525 0.435,0.968 1.024,0.983 0,0 2.411,0.091 6.118,-0.551 -0.309,-0.455 -0.943,-0.998 -1.496,-1.666 z m 11.81,-11.335 a 31.27,31.27 0 0 0 -3.133,0.211 c 1.022,0.522 1.364,0.993 2.179,1.699 2.085,-0.109 3.375,0.06 3.375,0.06 0.581,0.085 1.128,-0.272 1.215,-0.793 0.084,-0.521 -0.326,-1.004 -0.911,-1.072 0.001,0 -1.028,-0.131 -2.725,-0.105 z m 44.083,39.382 -0.525,2.469 h -0.325 l 0.424,-1.991 -1.097,1.991 h -0.325 l -0.248,-2.004 -0.426,2.004 h -0.325 l 0.525,-2.469 h 0.449 l 0.263,2.106 1.161,-2.106 z m 1.93,2.469 h -0.355 l -0.095,-0.738 h -0.945 l -0.417,0.738 H 92.6 l 1.422,-2.469 h 0.389 z m -0.486,-0.999 -0.133,-1.086 -0.633,1.086 z m 3.06,-0.257 a 1.822,1.822 0 0 1 -0.494,0.931 c -0.221,0.217 -0.439,0.325 -0.654,0.325 h -1.077 l 0.525,-2.469 h 1.002 c 0.189,0 0.353,0.064 0.491,0.193 0.165,0.155 0.248,0.375 0.248,0.657 0,0.113 -0.014,0.234 -0.041,0.363 z m -0.319,0 c 0.025,-0.12 0.038,-0.23 0.038,-0.332 0,-0.194 -0.046,-0.343 -0.139,-0.445 -0.093,-0.102 -0.223,-0.154 -0.39,-0.154 h -0.634 l -0.402,1.906 h 0.718 c 0.19,0 0.358,-0.091 0.505,-0.274 0.14,-0.177 0.241,-0.41 0.304,-0.701 z m 2.781,-1.213 -0.061,0.281 H 98.33 l -0.166,0.779 h 1.342 l -0.057,0.281 h -1.342 l -0.179,0.846 h 1.453 l -0.061,0.282 h -1.771 l 0.525,-2.469 z m 1.838,0 -0.525,2.469 h -0.318 l 0.525,-2.469 z m 2.472,0 -0.525,2.469 h -0.362 l -0.83,-1.972 -0.42,1.972 h -0.318 l 0.525,-2.469 h 0.378 l 0.81,1.993 0.424,-1.993 z m 3.217,0 -0.061,0.281 h -1.397 l -0.166,0.779 h 1.343 l -0.057,0.281 h -1.342 l -0.18,0.846 h 1.454 l -0.061,0.282 h -1.771 l 0.525,-2.469 z m 2.424,0 -0.386,1.809 a 0.86,0.86 0 0 1 -0.308,0.474 1.203,1.203 0 0 1 -0.789,0.261 c -0.28,0 -0.492,-0.068 -0.636,-0.206 a 0.537,0.537 0 0 1 -0.176,-0.41 l 0.014,-0.118 0.386,-1.809 h 0.319 l -0.384,1.798 -0.006,0.072 c 0,0.111 0.05,0.208 0.15,0.29 a 0.6,0.6 0 0 0 0.39,0.122 0.832,0.832 0 0 0 0.468,-0.143 0.583,0.583 0 0 0 0.262,-0.365 l 0.378,-1.774 h 0.318 z m 45.633,-72.422 h -0.982 v 0.496 h 0.864 v 0.373 h -0.864 v 0.936 h -0.406 v -2.178 h 1.388 z m 2.079,0.734 c 0,0.344 -0.089,0.617 -0.265,0.824 -0.176,0.207 -0.405,0.311 -0.688,0.311 -0.302,0 -0.538,-0.111 -0.71,-0.336 -0.16,-0.207 -0.241,-0.475 -0.241,-0.805 0,-0.316 0.076,-0.578 0.228,-0.785 0.176,-0.234 0.422,-0.352 0.74,-0.352 0.295,0 0.526,0.113 0.696,0.338 0.16,0.212 0.24,0.479 0.24,0.805 z m -0.388,0 c 0,-0.234 -0.051,-0.418 -0.151,-0.551 a 0.491,0.491 0 0 0 -0.418,-0.201 0.48,0.48 0 0 0 -0.408,0.199 c -0.101,0.133 -0.15,0.313 -0.15,0.541 0,0.238 0.052,0.424 0.155,0.559 a 0.508,0.508 0 0 0 0.431,0.203 0.46,0.46 0 0 0 0.392,-0.207 c 0.099,-0.138 0.149,-0.318 0.149,-0.543 z m 2.319,1.071 h -0.438 a 0.822,0.822 0 0 1 -0.055,-0.252 v -0.328 l -0.035,-0.191 c -0.034,-0.059 -0.102,-0.09 -0.2,-0.09 h -0.482 v 0.861 h -0.407 v -2.178 h 1.111 c 0.123,0 0.229,0.047 0.32,0.139 0.11,0.109 0.165,0.264 0.165,0.465 a 0.576,0.576 0 0 1 -0.29,0.525 c 0.141,0.084 0.213,0.178 0.217,0.281 l 0.021,0.531 0.073,0.152 z m -0.409,-1.547 c 0,-0.172 -0.077,-0.258 -0.233,-0.258 h -0.568 v 0.57 h 0.561 l 0.167,-0.098 z m 3.058,0.931 c 0,0.178 -0.063,0.33 -0.188,0.457 -0.149,0.15 -0.358,0.227 -0.626,0.227 a 0.72,0.72 0 0 1 -0.533,-0.219 0.682,0.682 0 0 1 -0.22,-0.494 v -1.533 h 0.406 v 1.539 l 0.102,0.225 a 0.364,0.364 0 0 0 0.254,0.092 c 0.266,0 0.398,-0.105 0.398,-0.316 v -1.539 h 0.406 v 1.561 z m 1.902,-0.027 c 0,0.227 -0.072,0.402 -0.218,0.525 -0.146,0.123 -0.35,0.186 -0.611,0.186 -0.236,0 -0.424,-0.063 -0.561,-0.188 -0.138,-0.127 -0.217,-0.301 -0.239,-0.525 h 0.395 c 0.028,0.234 0.176,0.352 0.442,0.352 a 0.508,0.508 0 0 0 0.295,-0.076 l 0.11,-0.209 c 0,-0.16 -0.093,-0.26 -0.276,-0.299 l -0.482,-0.102 c -0.133,-0.027 -0.24,-0.092 -0.323,-0.193 -0.083,-0.101 -0.125,-0.221 -0.125,-0.357 0,-0.213 0.066,-0.381 0.199,-0.502 0.133,-0.121 0.315,-0.182 0.547,-0.182 0.249,0 0.442,0.061 0.581,0.182 0.139,0.121 0.206,0.295 0.205,0.518 h -0.38 a 0.337,0.337 0 0 0 -0.123,-0.252 0.469,0.469 0 0 0 -0.3,-0.092 c -0.231,0 -0.347,0.094 -0.347,0.281 0,0.121 0.078,0.199 0.235,0.234 l 0.418,0.096 c 0.189,0.045 0.325,0.104 0.406,0.18 0.102,0.095 0.152,0.236 0.152,0.423 z m 1.781,0.643 h -1.477 v -2.178 h 1.43 v 0.373 h -1.024 v 0.496 h 0.946 v 0.373 h -0.946 v 0.563 h 1.071 z m 3.397,-2.178 -0.554,2.178 h -0.365 l -0.327,-1.657 -0.325,1.657 h -0.367 l -0.553,-2.178 h 0.43 l 0.304,1.631 0.296,-1.631 h 0.431 l 0.294,1.648 0.304,-1.648 z m 0.205,0 h 0.407 v 2.178 h -0.407 z m 2.201,0.373 h -0.577 v 1.805 h -0.407 v -1.805 h -0.599 v -0.373 h 1.583 z m 1.816,1.805 h -0.407 v -0.987 h -0.783 v 0.987 h -0.406 v -2.178 h 0.406 v 0.818 h 0.783 v -0.818 h 0.407 z m 2.646,-1.483 c 0,0.201 -0.055,0.369 -0.163,0.504 -0.108,0.135 -0.233,0.201 -0.374,0.201 h -0.566 v 0.777 h -0.406 v -2.178 h 0.93 c 0.191,0 0.336,0.063 0.434,0.186 0.098,0.123 0.145,0.293 0.145,0.51 z m -0.394,-0.025 -0.064,-0.215 -0.182,-0.082 h -0.464 v 0.654 h 0.475 l 0.168,-0.115 z m 2.391,1.508 h -0.415 l -0.139,-0.436 h -0.733 l -0.135,0.436 h -0.413 l 0.688,-2.178 h 0.469 z m -0.65,-0.811 -0.261,-0.846 -0.243,0.846 z m 2.271,0.811 h -1.352 v -2.178 h 0.406 v 1.805 h 0.946 z m -25.187,3.582 h -0.415 l -0.139,-0.436 h -0.732 l -0.135,0.436 h -0.414 l 0.688,-2.176 h 0.47 z m -0.65,-0.809 -0.261,-0.848 -0.244,0.848 z m 2.493,0.809 h -0.402 l -0.799,-1.52 v 1.52 h -0.406 v -2.176 h 0.401 l 0.8,1.492 v -1.492 h 0.406 z m 2.011,-1.164 c 0,0.326 -0.074,0.604 -0.222,0.834 -0.142,0.221 -0.306,0.33 -0.493,0.33 h -0.922 v -2.176 h 0.951 c 0.157,0 0.305,0.082 0.442,0.248 0.163,0.197 0.244,0.451 0.244,0.764 z m -0.409,0.035 c 0,-0.176 -0.033,-0.33 -0.1,-0.463 -0.071,-0.139 -0.159,-0.209 -0.266,-0.209 h -0.456 v 1.428 h 0.374 c 0.132,0 0.239,-0.066 0.323,-0.201 0.084,-0.135 0.125,-0.319 0.125,-0.555 z m 2.862,-0.674 h -0.981 v 0.496 h 0.864 v 0.373 h -0.864 v 0.934 h -0.406 v -2.176 h 1.387 z m 1.903,1.803 h -0.438 a 0.824,0.824 0 0 1 -0.055,-0.25 v -0.328 l -0.035,-0.191 c -0.034,-0.061 -0.102,-0.09 -0.2,-0.09 h -0.482 v 0.859 h -0.407 v -2.176 h 1.111 c 0.123,0 0.229,0.045 0.32,0.137 0.11,0.109 0.165,0.266 0.165,0.467 a 0.576,0.576 0 0 1 -0.29,0.525 c 0.141,0.082 0.213,0.176 0.217,0.279 l 0.021,0.531 0.073,0.152 z m -0.41,-1.547 c 0,-0.17 -0.077,-0.256 -0.233,-0.256 h -0.568 v 0.57 h 0.561 l 0.167,-0.1 z m 2.223,1.547 h -1.476 v -2.176 h 1.43 v 0.373 h -1.024 v 0.496 h 0.945 v 0.373 h -0.945 v 0.561 h 1.07 z m 1.908,0 h -0.402 l -0.799,-1.52 v 1.52 h -0.406 v -2.176 h 0.401 l 0.8,1.492 v -1.492 h 0.406 z m 2.025,-0.742 c -0.025,0.271 -0.119,0.479 -0.281,0.617 -0.15,0.127 -0.348,0.191 -0.591,0.191 -0.268,0 -0.479,-0.104 -0.635,-0.311 -0.156,-0.207 -0.233,-0.488 -0.233,-0.842 0,-0.328 0.077,-0.596 0.23,-0.801 a 0.798,0.798 0 0 1 0.675,-0.326 c 0.24,0 0.438,0.072 0.594,0.215 0.156,0.143 0.236,0.328 0.241,0.559 h -0.388 a 0.422,0.422 0 0 0 -0.14,-0.285 0.42,0.42 0 0 0 -0.297,-0.113 0.436,0.436 0 0 0 -0.38,0.205 c -0.094,0.137 -0.14,0.324 -0.14,0.559 0,0.232 0.046,0.418 0.138,0.553 a 0.425,0.425 0 0 0 0.369,0.205 0.43,0.43 0 0 0 0.445,-0.426 z m 1.879,0.742 h -0.408 v -0.985 h -0.783 v 0.985 h -0.406 v -2.176 h 0.406 v 0.818 h 0.783 v -0.818 h 0.408 z m 2.647,-0.641 c 0,0.227 -0.072,0.4 -0.218,0.525 -0.146,0.123 -0.35,0.184 -0.611,0.184 -0.236,0 -0.424,-0.063 -0.561,-0.188 -0.138,-0.125 -0.217,-0.301 -0.239,-0.525 h 0.395 c 0.028,0.234 0.176,0.352 0.442,0.352 a 0.508,0.508 0 0 0 0.295,-0.076 l 0.11,-0.207 c 0,-0.162 -0.093,-0.262 -0.276,-0.299 l -0.482,-0.102 a 0.549,0.549 0 0 1 -0.448,-0.552 c 0,-0.213 0.066,-0.379 0.199,-0.5 0.133,-0.123 0.315,-0.184 0.547,-0.184 0.249,0 0.442,0.063 0.581,0.184 0.139,0.121 0.206,0.293 0.205,0.516 h -0.38 a 0.33,0.33 0 0 0 -0.123,-0.25 0.458,0.458 0 0 0 -0.3,-0.094 c -0.231,0 -0.347,0.094 -0.347,0.281 0,0.121 0.078,0.199 0.235,0.236 l 0.418,0.096 c 0.189,0.043 0.325,0.104 0.406,0.178 0.102,0.095 0.152,0.238 0.152,0.425 z m 1.781,0.641 h -1.477 v -2.176 h 1.43 v 0.373 h -1.024 v 0.496 h 0.946 v 0.373 h -0.946 v 0.561 h 1.071 z m 1.976,-0.742 c -0.025,0.271 -0.119,0.479 -0.281,0.617 -0.15,0.127 -0.348,0.191 -0.591,0.191 -0.268,0 -0.479,-0.104 -0.635,-0.311 -0.156,-0.207 -0.233,-0.488 -0.233,-0.842 0,-0.328 0.077,-0.596 0.23,-0.801 a 0.798,0.798 0 0 1 0.675,-0.326 c 0.24,0 0.438,0.072 0.594,0.215 0.156,0.143 0.236,0.328 0.241,0.559 h -0.388 a 0.422,0.422 0 0 0 -0.14,-0.285 0.42,0.42 0 0 0 -0.297,-0.113 0.436,0.436 0 0 0 -0.38,0.205 c -0.094,0.137 -0.14,0.324 -0.14,0.559 0,0.232 0.046,0.418 0.138,0.553 a 0.425,0.425 0 0 0 0.369,0.205 0.43,0.43 0 0 0 0.445,-0.426 z m 2.003,0.742 h -0.415 l -0.139,-0.436 h -0.733 l -0.135,0.436 h -0.413 l 0.688,-2.176 h 0.469 z m -0.651,-0.809 -0.261,-0.848 -0.243,0.848 z m 2.806,0.809 H 180.4 v -1.768 l -0.353,1.768 h -0.406 l -0.352,-1.758 v 1.758 h -0.407 v -2.176 h 0.595 l 0.367,1.666 0.371,-1.666 h 0.592 z m -22.219,2.941 c 0,0.227 -0.073,0.402 -0.219,0.525 -0.145,0.123 -0.349,0.186 -0.61,0.186 -0.237,0 -0.424,-0.063 -0.562,-0.188 a 0.781,0.781 0 0 1 -0.238,-0.525 h 0.394 c 0.029,0.234 0.177,0.352 0.443,0.352 a 0.505,0.505 0 0 0 0.294,-0.076 l 0.11,-0.209 c 0,-0.16 -0.092,-0.26 -0.276,-0.299 l -0.482,-0.102 a 0.546,0.546 0 0 1 -0.322,-0.193 0.544,0.544 0 0 1 -0.125,-0.357 c 0,-0.213 0.066,-0.381 0.199,-0.502 0.133,-0.121 0.314,-0.182 0.546,-0.182 0.25,0 0.443,0.061 0.582,0.182 0.138,0.121 0.206,0.295 0.204,0.518 h -0.379 a 0.335,0.335 0 0 0 -0.124,-0.252 0.466,0.466 0 0 0 -0.299,-0.092 c -0.231,0 -0.348,0.094 -0.348,0.281 0,0.121 0.079,0.199 0.236,0.234 l 0.417,0.096 c 0.189,0.045 0.325,0.104 0.406,0.18 0.103,0.095 0.153,0.236 0.153,0.423 z m 1.781,0.643 h -1.477 v -2.178 h 1.431 v 0.373 h -1.025 v 0.496 h 0.946 v 0.373 h -0.946 v 0.563 h 1.071 z m 2.049,0.007 h -0.247 l -0.049,-0.268 a 0.712,0.712 0 0 1 -0.626,0.324 0.792,0.792 0 0 1 -0.621,-0.297 c -0.182,-0.215 -0.273,-0.488 -0.273,-0.824 0,-0.352 0.087,-0.631 0.262,-0.842 a 0.856,0.856 0 0 1 0.692,-0.314 c 0.249,0 0.449,0.066 0.599,0.199 a 0.851,0.851 0 0 1 0.264,0.525 h -0.372 c -0.074,-0.238 -0.237,-0.357 -0.489,-0.357 a 0.491,0.491 0 0 0 -0.412,0.203 c -0.104,0.137 -0.155,0.318 -0.155,0.547 0,0.23 0.055,0.422 0.163,0.572 a 0.488,0.488 0 0 0 0.758,0.084 0.563,0.563 0 0 0 0.169,-0.361 h -0.456 v -0.371 h 0.795 v 1.18 z m 2.082,-0.007 h -0.415 l -0.139,-0.436 h -0.732 l -0.135,0.436 h -0.414 l 0.688,-2.178 h 0.47 z m -0.65,-0.811 -0.261,-0.846 -0.244,0.846 z m 3.173,0.168 c 0,0.227 -0.072,0.402 -0.218,0.525 -0.146,0.123 -0.35,0.186 -0.611,0.186 -0.236,0 -0.424,-0.063 -0.561,-0.188 -0.138,-0.127 -0.217,-0.301 -0.239,-0.525 h 0.395 c 0.028,0.234 0.176,0.352 0.442,0.352 a 0.508,0.508 0 0 0 0.295,-0.076 l 0.11,-0.209 c 0,-0.16 -0.093,-0.26 -0.276,-0.299 l -0.482,-0.102 c -0.133,-0.027 -0.24,-0.092 -0.323,-0.193 -0.083,-0.101 -0.125,-0.221 -0.125,-0.357 0,-0.213 0.066,-0.381 0.199,-0.502 0.133,-0.121 0.315,-0.182 0.547,-0.182 0.249,0 0.442,0.061 0.581,0.182 0.139,0.121 0.206,0.295 0.205,0.518 h -0.38 a 0.337,0.337 0 0 0 -0.123,-0.252 0.469,0.469 0 0 0 -0.3,-0.092 c -0.231,0 -0.347,0.094 -0.347,0.281 0,0.121 0.078,0.199 0.235,0.234 l 0.418,0.096 c 0.189,0.045 0.325,0.104 0.406,0.18 0.102,0.095 0.152,0.236 0.152,0.423 z m 1.995,0.643 h -0.415 l -0.139,-0.436 h -0.733 l -0.135,0.436 h -0.413 l 0.688,-2.178 h 0.469 z m -0.65,-0.811 -0.261,-0.846 -0.243,0.846 z m 2.323,-0.994 h -0.578 v 1.805 h -0.406 v -1.805 h -0.599 v -0.373 h 1.583 z m 1.807,1.189 c 0,0.178 -0.062,0.33 -0.187,0.457 -0.15,0.15 -0.358,0.227 -0.626,0.227 a 0.723,0.723 0 0 1 -0.534,-0.219 0.682,0.682 0 0 1 -0.22,-0.494 v -1.533 h 0.407 v 1.539 l 0.102,0.225 a 0.361,0.361 0 0 0 0.253,0.092 c 0.266,0 0.398,-0.105 0.398,-0.316 v -1.539 h 0.406 v 1.561 z m 2.019,0.616 h -0.438 a 0.822,0.822 0 0 1 -0.055,-0.252 v -0.328 l -0.035,-0.191 c -0.034,-0.059 -0.102,-0.09 -0.2,-0.09 h -0.482 v 0.861 H 172.9 v -2.178 h 1.111 c 0.123,0 0.229,0.047 0.32,0.139 0.11,0.109 0.165,0.264 0.165,0.465 a 0.576,0.576 0 0 1 -0.29,0.525 c 0.141,0.084 0.213,0.178 0.217,0.281 l 0.021,0.531 0.073,0.152 z m -0.409,-1.547 c 0,-0.172 -0.077,-0.258 -0.233,-0.258 h -0.568 v 0.57 h 0.561 l 0.167,-0.098 z m 2.323,1.547 h -0.402 l -0.799,-1.522 v 1.522 h -0.406 v -2.178 h 0.401 l 0.8,1.494 v -1.494 h 0.406 z m -14.456,2.941 c 0,0.227 -0.073,0.4 -0.219,0.525 -0.145,0.123 -0.349,0.184 -0.61,0.184 -0.237,0 -0.424,-0.063 -0.562,-0.188 -0.138,-0.125 -0.217,-0.301 -0.238,-0.525 h 0.394 c 0.029,0.234 0.177,0.352 0.443,0.352 a 0.505,0.505 0 0 0 0.294,-0.076 l 0.11,-0.207 c 0,-0.162 -0.092,-0.262 -0.276,-0.299 l -0.482,-0.102 a 0.546,0.546 0 0 1 -0.322,-0.193 0.545,0.545 0 0 1 -0.125,-0.359 c 0,-0.213 0.066,-0.379 0.199,-0.5 0.133,-0.123 0.314,-0.184 0.546,-0.184 0.25,0 0.443,0.063 0.582,0.184 0.138,0.121 0.206,0.293 0.204,0.516 h -0.379 a 0.328,0.328 0 0 0 -0.124,-0.25 0.456,0.456 0 0 0 -0.299,-0.094 c -0.231,0 -0.348,0.094 -0.348,0.281 0,0.121 0.079,0.199 0.236,0.236 l 0.417,0.096 c 0.189,0.043 0.325,0.104 0.406,0.178 0.102,0.095 0.153,0.238 0.153,0.425 z m 1.851,-1.535 -0.631,1.367 v 0.809 h -0.407 v -0.809 l -0.651,-1.367 h 0.453 l 0.401,0.934 0.38,-0.934 z m 1.764,1.535 c 0,0.227 -0.072,0.4 -0.218,0.525 -0.146,0.123 -0.35,0.184 -0.611,0.184 -0.236,0 -0.424,-0.063 -0.561,-0.188 -0.138,-0.125 -0.217,-0.301 -0.239,-0.525 h 0.395 c 0.028,0.234 0.176,0.352 0.442,0.352 a 0.508,0.508 0 0 0 0.295,-0.076 l 0.11,-0.207 c 0,-0.162 -0.093,-0.262 -0.276,-0.299 l -0.482,-0.102 a 0.549,0.549 0 0 1 -0.448,-0.552 c 0,-0.213 0.066,-0.379 0.199,-0.5 0.133,-0.123 0.315,-0.184 0.547,-0.184 0.249,0 0.442,0.063 0.581,0.184 0.139,0.121 0.206,0.293 0.205,0.516 h -0.38 a 0.33,0.33 0 0 0 -0.123,-0.25 0.458,0.458 0 0 0 -0.3,-0.094 c -0.231,0 -0.347,0.094 -0.347,0.281 0,0.121 0.078,0.199 0.235,0.236 l 0.418,0.096 c 0.189,0.043 0.325,0.104 0.406,0.178 0.103,0.095 0.152,0.238 0.152,0.425 z m 1.711,-1.162 h -0.578 v 1.803 h -0.406 v -1.803 h -0.599 v -0.373 h 1.583 z m 1.727,1.803 h -1.478 v -2.176 h 1.431 v 0.373 h -1.024 v 0.496 h 0.946 v 0.373 h -0.946 v 0.561 h 1.071 z m 2.22,0 h -0.407 v -1.768 l -0.352,1.768 h -0.406 l -0.353,-1.758 v 1.758 h -0.407 v -2.176 h 0.595 l 0.368,1.666 0.37,-1.666 h 0.592 z m 1.872,-0.641 c 0,0.227 -0.072,0.4 -0.218,0.525 -0.146,0.123 -0.35,0.184 -0.611,0.184 -0.236,0 -0.424,-0.063 -0.561,-0.188 -0.138,-0.125 -0.217,-0.301 -0.239,-0.525 h 0.395 c 0.028,0.234 0.176,0.352 0.442,0.352 a 0.508,0.508 0 0 0 0.295,-0.076 l 0.11,-0.207 c 0,-0.162 -0.093,-0.262 -0.276,-0.299 l -0.482,-0.102 a 0.549,0.549 0 0 1 -0.448,-0.552 c 0,-0.213 0.066,-0.379 0.199,-0.5 0.133,-0.123 0.315,-0.184 0.547,-0.184 0.249,0 0.442,0.063 0.581,0.184 0.139,0.121 0.206,0.293 0.205,0.516 h -0.38 a 0.33,0.33 0 0 0 -0.123,-0.25 0.458,0.458 0 0 0 -0.3,-0.094 c -0.231,0 -0.347,0.094 -0.347,0.281 0,0.121 0.078,0.199 0.235,0.236 l 0.418,0.096 c 0.189,0.043 0.325,0.104 0.406,0.178 0.102,0.095 0.152,0.238 0.152,0.425 z m 4.309,-5.168 h -0.213 v 0.604 h -0.15 v -0.604 h -0.221 v -0.125 h 0.584 z m 0.789,0.604 h -0.15 v -0.592 l -0.13,0.592 h -0.149 l -0.131,-0.59 v 0.59 h -0.15 v -0.729 h 0.22 l 0.135,0.557 0.137,-0.557 h 0.218 z"
     id="path36"
     inkscape:connector-curvature="0"
     style="fill:#7a7a62" />
</svg>
