<?xml version="1.0" encoding="UTF-8" standalone="no"?>
<!-- Generator: Adobe Illustrator 16.0.0, SVG Export Plug-In . SVG Version: 6.00 Build 0)  -->

<svg
   xmlns:dc="http://purl.org/dc/elements/1.1/"
   xmlns:cc="http://creativecommons.org/ns#"
   xmlns:rdf="http://www.w3.org/1999/02/22-rdf-syntax-ns#"
   xmlns:svg="http://www.w3.org/2000/svg"
   xmlns="http://www.w3.org/2000/svg"
   xmlns:sodipodi="http://sodipodi.sourceforge.net/DTD/sodipodi-0.dtd"
   xmlns:inkscape="http://www.inkscape.org/namespaces/inkscape"
   version="1.1"
   id="svg4511"
   sodipodi:docname="controls.svg"
   inkscape:version="0.92.4 5da689c313, 2019-01-14"
   x="0px"
   y="0px"
   width="422.23694"
   height="486.38434"
   viewBox="0 0 422.23694 486.38433"
   enable-background="new 0 0 422.289 486.385"
   xml:space="preserve"><metadata
   id="metadata15"><rdf:RDF><cc:Work
       rdf:about=""><dc:format>image/svg+xml</dc:format><dc:type
         rdf:resource="http://purl.org/dc/dcmitype/StillImage" /></cc:Work></rdf:RDF></metadata><defs
   id="defs13" />
<sodipodi:namedview
   id="base"
   inkscape:cy="195.03294"
   inkscape:cx="-357.09731"
   inkscape:zoom="0.35"
   fit-margin-left="0"
   borderopacity="1.0"
   fit-margin-top="0"
   bordercolor="#666666"
   pagecolor="#ffffff"
   showgrid="false"
   inkscape:window-maximized="1"
   inkscape:window-y="0"
   inkscape:window-x="1920"
   inkscape:window-height="1015"
   inkscape:window-width="1920"
   fit-margin-bottom="0"
   fit-margin-right="0"
   inkscape:current-layer="layer1"
   inkscape:document-units="mm"
   inkscape:pageshadow="2"
   inkscape:pageopacity="0.0">
	</sodipodi:namedview>
<g
   id="layer1"
   transform="translate(-28.752584,-28.850675)"
   inkscape:label="Calque 1"
   inkscape:groupmode="layer">
	
		<g
   id="g5106"
   transform="matrix(2.2376732,0,0,2.2376732,-35.521598,-35.707211)"
   inkscape:export-ydpi="96"
   inkscape:export-xdpi="96">
		<path
   id="path67"
   inkscape:connector-curvature="0"
   d="m 96.965,113.462 c -10.425,0 -18.975,-8.475 -18.975,-18.975 0,-10.5 8.475,-18.975 18.975,-18.975 10.5,0 18.975,8.475 18.975,18.975 0.001,10.5 -8.474,18.975 -18.975,18.975 z m 0,-30.15 c -6.15,0 -11.175,5.025 -11.175,11.175 0,6.15 5.025,11.175 11.175,11.175 6.15,0 11.175,-5.025 11.175,-11.175 0,-6.15 -5.025,-11.175 -11.175,-11.175 z"
   style="fill:#ff0000" />
		<path
   id="path69"
   inkscape:connector-curvature="0"
   d="m 160.416,114.662 c -0.15,0 -0.375,0 -0.525,0 l -28.8,-3.75 c -1.05,-0.15 -1.95,-0.675 -2.55,-1.5 -0.6,-0.825 -0.9,-1.875 -0.75,-2.85 l 3.75,-28.8 c 0.3,-2.1 2.25,-3.675 4.35,-3.375 l 28.8,3.75 c 1.05,0.15 1.95,0.675 2.55,1.5 0.6,0.825 0.9,1.875 0.75,2.85 l -3.75,28.8 c -0.225,1.95 -1.876,3.375 -3.825,3.375 z m -24.375,-11.025 21,2.775 2.775,-21 -21,-2.775 z"
   style="fill:#ff5ddc" />
		<path
   id="path73"
   inkscape:connector-curvature="0"
   d="m 97.49,66.062 c -0.225,0 -0.525,0 -0.825,-0.075 -2.1,-0.45 -3.45,-2.475 -3,-4.575 l 6.15,-29.475 c 0.45,-2.1 2.475,-3.45 4.575,-3 2.1,0.45 3.45,2.475 3,4.575 l -6.15,29.475 c -0.3,1.8 -1.949,3.075 -3.75,3.075 z"
   style="fill:#027fe1" />
		<path
   id="path75"
   inkscape:connector-curvature="0"
   d="m 115.34,54.362 c -0.225,0 -0.525,0 -0.825,-0.075 L 85.04,48.137 c -2.1,-0.45 -3.45,-2.475 -3,-4.575 0.45,-2.1 2.475,-3.45 4.575,-3 l 29.475,6.15 c 2.1,0.45 3.45,2.475 3,4.575 -0.374,1.8 -1.949,3.075 -3.75,3.075 z"
   style="fill:#027fe1" />
		<path
   id="path77"
   inkscape:connector-curvature="0"
   d="m 135.591,63.962 c -0.975,0 -1.875,-0.375 -2.55,-0.975 -1.05,-0.9 -1.5,-2.325 -1.2,-3.675 l 5.325,-25.35 c 0.3,-1.35 1.275,-2.475 2.55,-2.85 1.35,-0.45 2.775,-0.15 3.825,0.75 l 19.425,17.1 c 1.05,0.9 1.5,2.325 1.2,3.675 -0.3,1.35 -1.275,2.475 -2.55,2.925 l -24.75,8.175 c -0.45,0.15 -0.9,0.225 -1.275,0.225 z m 7.724,-21.9 -2.55,12.225 11.925,-3.975 z"
   style="fill:#8aee49" />
	</g>
	<path
   d="m 450.645,409.688 c -0.667,-31.383 -1.511,-41.283 -4.362,-53.36 -9.901,-41.285 -26.51,-73.002 -51.517,-97.838 -33.394,-33.222 -73.162,-36.236 -120.815,-9.061 l -13.262,7.554 c 0,0 -9.46,0 -20.819,0 -11.354,0 -20.819,0 -20.819,0 l -13.259,-7.554 c -47.653,-27.183 -87.427,-24.161 -120.819,9.061 -25.002,24.836 -41.615,56.553 -51.515,97.838 -2.859,12.077 -3.691,21.979 -4.361,53.36 -1.18,45.979 0.501,61.922 7.717,76.681 8.222,17.124 25.168,28.866 41.11,28.866 19.296,0 53.194,-26.015 77.187,-59.23 l 10.239,-14.103 h 74.513 74.517 l 10.243,14.103 c 23.994,33.217 57.89,59.23 77.188,59.23 15.942,0 32.889,-11.742 41.116,-28.866 7.214,-14.759 8.899,-30.705 7.718,-76.681 z M 184.344,349.61 h -22.662 v 22.65 c 0,7.054 -5.871,12.918 -12.914,12.918 -7.05,0 -12.928,-5.864 -12.928,-12.918 v -22.65 h -22.65 c -7.046,0 -12.917,-5.878 -12.917,-12.924 0,-7.046 5.871,-12.924 12.917,-12.924 h 22.651 v -22.649 c 0,-7.049 5.875,-12.924 12.928,-12.924 7.043,0 12.914,5.875 12.914,12.924 v 22.649 h 22.662 c 7.042,0 12.921,5.871 12.921,12.924 -0.173,7.215 -5.879,12.924 -12.922,12.924 z m 166.797,-70.813 c 10.907,0 19.803,8.896 19.803,19.803 0,10.905 -8.896,19.798 -19.803,19.798 -10.913,0 -19.802,-8.886 -19.802,-19.798 0.169,-10.908 8.888,-19.803 19.802,-19.803 z M 286.87,317.06 c 0,-10.91 8.893,-19.804 19.804,-19.804 10.908,0 19.794,8.894 19.794,19.804 0,10.911 -8.886,19.799 -19.794,19.799 -10.911,0 -19.804,-8.887 -19.804,-19.799 z m 41.106,66.951 c -10.906,0 -19.791,-8.896 -19.791,-19.799 0,-10.905 8.885,-19.799 19.791,-19.799 10.914,0 19.806,8.891 19.806,19.799 -10e-4,10.903 -8.894,19.799 -19.806,19.799 z m 41.616,-19.799 c -10.905,0 -19.799,-8.896 -19.799,-19.799 0,-10.91 8.894,-19.805 19.799,-19.805 10.913,0 19.805,8.895 19.805,19.805 -10e-4,11.069 -8.895,19.799 -19.805,19.799 z"
   id="path9"
   inkscape:connector-curvature="0"
   style="fill:#808080" />
</g>
</svg>