<?xml version="1.0" encoding="UTF-8" standalone="no"?>
<svg
   xmlns:dc="http://purl.org/dc/elements/1.1/"
   xmlns:cc="http://creativecommons.org/ns#"
   xmlns:rdf="http://www.w3.org/1999/02/22-rdf-syntax-ns#"
   xmlns:svg="http://www.w3.org/2000/svg"
   xmlns="http://www.w3.org/2000/svg"
   xmlns:sodipodi="http://sodipodi.sourceforge.net/DTD/sodipodi-0.dtd"
   xmlns:inkscape="http://www.inkscape.org/namespaces/inkscape"
   viewBox="0 0 136.118 56.811999"
   version="1.1"
   id="svg171"
   sodipodi:docname="game.svg"
   width="136.118"
   height="56.812"
   inkscape:version="0.92.4 5da689c313, 2019-01-14">
  <metadata
     id="metadata177">
    <rdf:RDF>
      <cc:Work
         rdf:about="">
        <dc:format>image/svg+xml</dc:format>
        <dc:type
           rdf:resource="http://purl.org/dc/dcmitype/StillImage" />
      </cc:Work>
    </rdf:RDF>
  </metadata>
  <defs
     id="defs175" />
  <sodipodi:namedview
     pagecolor="#ffffff"
     bordercolor="#666666"
     borderopacity="1"
     objecttolerance="10"
     gridtolerance="10"
     guidetolerance="10"
     inkscape:pageopacity="0"
     inkscape:pageshadow="2"
     inkscape:window-width="640"
     inkscape:window-height="480"
     id="namedview173"
     showgrid="false"
     inkscape:zoom="1.9909197"
     inkscape:cx="68.059989"
     inkscape:cy="28.4065"
     inkscape:window-x="0"
     inkscape:window-y="0"
     inkscape:window-maximized="0"
     inkscape:current-layer="svg171" />
  <path
     d="M 134.46099,50.429 H 90.403991 v 6.382 h -1.456 a 0.201,0.201 0 0 1 -0.202,-0.202 V 3.822 A 3.833,3.833 0 0 1 92.567991,0 h 39.727999 a 3.833,3.833 0 0 1 3.822,3.822 V 56.61 c 0,0.112 -0.09,0.202 -0.202,0.202 h -1.456 v -6.383 z"
     id="path2"
     inkscape:connector-curvature="0"
     style="fill:#23231f" />
  <path
     d="M 134.46099,50.429 H 90.403991 V 3.686 A 3.697,3.697 0 0 1 94.089991,0 h 36.684999 a 3.697,3.697 0 0 1 3.686,3.686 z"
     id="path4"
     inkscape:connector-curvature="0"
     style="fill:#282823" />
  <path
     d="M 134.00699,43.373 H 90.856991 a 0.455,0.455 0 0 1 -0.453,-0.453 v -0.082 c 0,-0.249 0.204,-0.453 0.453,-0.453 h 43.149999 c 0.249,0 0.453,0.204 0.453,0.453 v 0.082 a 0.453,0.453 0 0 1 -0.453,0.453 z"
     id="path6"
     inkscape:connector-curvature="0"
     style="fill:#1c1812" />
  <path
     d="M 134.00699,43.642 H 90.856991 a 0.455,0.455 0 0 1 -0.453,-0.453 v -0.082 c 0,-0.249 0.204,-0.453 0.453,-0.453 h 43.149999 c 0.249,0 0.453,0.204 0.453,0.453 v 0.082 a 0.453,0.453 0 0 1 -0.453,0.453 z"
     id="path8"
     inkscape:connector-curvature="0"
     style="fill:#23231f" />
  <path
     d="M 134.00699,46.44 H 90.856991 a 0.455,0.455 0 0 1 -0.453,-0.453 v -0.082 c 0,-0.249 0.204,-0.453 0.453,-0.453 h 43.149999 c 0.249,0 0.453,0.204 0.453,0.453 v 0.082 a 0.453,0.453 0 0 1 -0.453,0.453 z"
     id="path10"
     inkscape:connector-curvature="0"
     style="fill:#1c1812" />
  <path
     d="M 134.00699,46.71 H 90.856991 a 0.455,0.455 0 0 1 -0.453,-0.453 v -0.082 c 0,-0.249 0.204,-0.453 0.453,-0.453 h 43.149999 c 0.249,0 0.453,0.204 0.453,0.453 v 0.082 a 0.453,0.453 0 0 1 -0.453,0.453 z"
     id="path12"
     inkscape:connector-curvature="0"
     style="fill:#23231f" />
  <path
     d="M 134.00699,49.508 H 90.856991 a 0.455,0.455 0 0 1 -0.453,-0.453 v -0.082 c 0,-0.249 0.204,-0.453 0.453,-0.453 h 43.149999 c 0.249,0 0.453,0.204 0.453,0.453 v 0.082 a 0.453,0.453 0 0 1 -0.453,0.453 z"
     id="path14"
     inkscape:connector-curvature="0"
     style="fill:#1c1812" />
  <path
     d="M 134.00699,49.777 H 90.856991 a 0.455,0.455 0 0 1 -0.453,-0.453 v -0.082 c 0,-0.249 0.204,-0.453 0.453,-0.453 h 43.149999 c 0.249,0 0.453,0.204 0.453,0.453 v 0.082 a 0.453,0.453 0 0 1 -0.453,0.453 z"
     id="path16"
     inkscape:connector-curvature="0"
     style="fill:#23231f" />
  <path
     d="m 90.403991,50.429 h 44.056999 v 6.382 H 90.403991 Z"
     id="path18"
     inkscape:connector-curvature="0"
     style="fill:#191612" />
  <linearGradient
     id="a"
     gradientUnits="userSpaceOnUse"
     x1="111.678"
     y1="53.216"
     x2="111.678"
     y2="50.429001"
     gradientTransform="translate(9.9053739e-4)">
    <stop
       offset="0"
       stop-color="#a9a28f"
       id="stop20" />
    <stop
       offset="1"
       stop-color="#362a1c"
       id="stop22" />
  </linearGradient>
  <path
     d="M 124.96099,53.216 H 98.397991 c -0.575,0 -1.045,-0.47 -1.045,-1.045 v -1.742 h 28.652999 v 1.742 c 0,0.574 -0.47,1.045 -1.045,1.045 z"
     id="path25"
     inkscape:connector-curvature="0"
     style="fill:url(#a)" />
  <g
     id="g29"
     style="fill:#7c7257"
     transform="translate(9.9053739e-4)">
    <path
       d="M 99.298,52.957 H 98.71 a 0.212,0.212 0 0 1 -0.212,-0.212 v -2.316 h 1.011 v 2.316 a 0.21,0.21 0 0 1 -0.211,0.212 z m 1.803,0 h -0.588 a 0.212,0.212 0 0 1 -0.212,-0.212 v -2.316 h 1.011 v 2.316 a 0.21,0.21 0 0 1 -0.211,0.212 z m 1.804,0 h -0.588 a 0.212,0.212 0 0 1 -0.212,-0.212 v -2.316 h 1.011 v 2.316 a 0.21,0.21 0 0 1 -0.211,0.212 z m 1.803,0 h -0.588 a 0.212,0.212 0 0 1 -0.212,-0.212 v -2.316 h 1.011 v 2.316 a 0.21,0.21 0 0 1 -0.211,0.212 z m 1.803,0 h -0.588 a 0.212,0.212 0 0 1 -0.212,-0.212 v -2.316 h 1.011 v 2.316 a 0.21,0.21 0 0 1 -0.211,0.212 z m 1.804,0 h -0.588 a 0.212,0.212 0 0 1 -0.212,-0.212 v -2.316 h 1.011 v 2.316 a 0.21,0.21 0 0 1 -0.211,0.212 z m 1.803,0 h -0.588 a 0.212,0.212 0 0 1 -0.212,-0.212 v -2.316 h 1.011 v 2.316 a 0.21,0.21 0 0 1 -0.211,0.212 z m 1.804,0 h -0.588 a 0.212,0.212 0 0 1 -0.212,-0.212 v -2.316 h 1.011 v 2.316 a 0.21,0.21 0 0 1 -0.211,0.212 z m 1.803,0 h -0.588 a 0.212,0.212 0 0 1 -0.212,-0.212 v -2.316 h 1.011 v 2.316 a 0.21,0.21 0 0 1 -0.211,0.212 z m 1.804,0 h -0.588 a 0.212,0.212 0 0 1 -0.212,-0.212 v -2.316 h 1.011 v 2.316 a 0.21,0.21 0 0 1 -0.211,0.212 z m 1.803,0 h -0.588 a 0.212,0.212 0 0 1 -0.212,-0.212 v -2.316 h 1.011 v 2.316 a 0.21,0.21 0 0 1 -0.211,0.212 z m 1.804,0 h -0.588 a 0.212,0.212 0 0 1 -0.212,-0.212 v -2.316 h 1.011 v 2.316 a 0.21,0.21 0 0 1 -0.211,0.212 z m 1.803,0 h -0.588 a 0.212,0.212 0 0 1 -0.212,-0.212 v -2.316 h 1.011 v 2.316 a 0.21,0.21 0 0 1 -0.211,0.212 z m 1.804,0 h -0.588 a 0.212,0.212 0 0 1 -0.212,-0.212 v -2.316 h 1.011 v 2.316 a 0.211,0.211 0 0 1 -0.211,0.212 z m 1.803,0 h -0.588 a 0.212,0.212 0 0 1 -0.212,-0.212 v -2.316 h 1.011 v 2.316 a 0.21,0.21 0 0 1 -0.211,0.212 z"
       id="path27"
       inkscape:connector-curvature="0" />
  </g>
  <path
     d="m 118.94899,11.753 h -13.707 a 0.97,0.97 0 0 1 -0.967,-0.967 V 3.889 a 0.97,0.97 0 0 1 0.967,-0.967 h 13.707 a 0.97,0.97 0 0 1 0.967,0.967 v 6.897 a 0.97,0.97 0 0 1 -0.967,0.967 z"
     id="path31"
     inkscape:connector-curvature="0"
     style="fill:#15110e" />
  <path
     d="m 119.00199,11.753 h -13.813 a 0.916,0.916 0 0 1 -0.914,-0.914 v -6.06 c 0,-0.503 0.411,-0.914 0.914,-0.914 h 13.813 c 0.503,0 0.914,0.411 0.914,0.914 v 6.06 a 0.917,0.917 0 0 1 -0.914,0.914 z"
     id="path33"
     inkscape:connector-curvature="0"
     style="fill:#2d2d29" />
  <g
     stroke-miterlimit="10"
     id="g37"
     style="fill:none;stroke:#23231f;stroke-width:0.35100001;stroke-miterlimit:10"
     transform="translate(9.9053739e-4)">
    <path
       d="m 105.161,4.967 h 13.866 m -13.866,1.55 h 13.866 m -13.866,1.551 h 13.866"
       id="path35"
       inkscape:connector-curvature="0" />
  </g>
  <g
     id="g43"
     style="fill:#23231f"
     transform="translate(9.9053739e-4)">
    <path
       d="m 107.337,10.32 -0.151,-0.249 c -0.119,-0.175 -0.24,-0.252 -0.443,-0.252 h -0.476 L 106.1,9.596 h 0.775 l -0.133,-0.251 c 0,0 -0.561,-0.009 -0.83,0 a 0.172,0.172 0 0 0 -0.162,0.249 l 0.235,0.325 c 0.104,0.114 0.177,0.145 0.419,0.152 h 0.463 l 0.162,0.251 h -0.755 l 0.253,0.303 0.653,-0.003 c 0.194,-10e-4 0.2,-0.231 0.157,-0.302 z m -0.42,-0.976 0.727,1.277 h 0.294 l -0.294,-0.551 c 0,0 0.246,0.004 0.37,-0.005 0.214,0.005 0.293,-0.058 0.23,-0.245 l -0.1,-0.225 C 108.05,9.407 108.009,9.358 107.726,9.344 Z m 0.478,0.252 h 0.421 l 0.099,0.223 h -0.417 z m 2.124,1.025 -0.09,-0.298 c 0,0 -0.352,-0.006 -0.529,-0.002 a 17.477,17.477 0 0 1 -0.101,-0.251 h 0.529 l -0.069,-0.249 h -0.549 l -0.101,-0.226 h 0.568 l -0.068,-0.253 -0.621,0.002 c -0.154,0 -0.244,0.157 -0.215,0.253 l 0.317,0.728 c 0.099,0.189 0.193,0.267 0.374,0.29 0.204,0.025 0.555,0.006 0.555,0.006 z m 0.411,-1.277 c 0,0 -0.245,-0.003 -0.405,0.003 -0.155,0.003 -0.26,0.118 -0.235,0.25 l 0.209,0.721 c 0.066,0.161 0.2,0.303 0.386,0.301 l 0.33,0.002 -0.056,-0.3 h -0.35 l -0.213,-0.726 h 0.383 z m 0.112,0.252 h 0.241 l 0.206,1.025 h 0.246 l -0.167,-1.025 h 0.188 l -0.032,-0.25 -0.731,-0.002 z m 1.659,0.474 c 0.114,0 0.249,-0.133 0.247,-0.239 -0.006,-0.078 -0.005,-0.161 -0.014,-0.236 -0.025,-0.161 -0.196,-0.248 -0.324,-0.251 -0.263,0.006 -0.792,0 -0.792,0 l 0.166,1.277 h 0.275 l -0.106,-1.026 h 0.477 l 0.002,0.223 h -0.12 c -0.171,0 -0.186,0.127 -0.112,0.249 0.129,0.2 0.404,0.556 0.404,0.556 h 0.338 c 0,0.001 -0.251,-0.302 -0.441,-0.553 z"
       id="path39"
       inkscape:connector-curvature="0" />
    <path
       d="m 112.145,9.321 -0.055,1.301 0.281,0.003 -10e-4,-0.303 h 0.386 l -0.013,0.304 h 0.256 c 0,0 0.096,-0.489 0.094,-0.803 0.007,-0.276 -0.195,-0.477 -0.477,-0.498 -0.157,-0.006 -0.471,-0.004 -0.471,-0.004 z m 0.642,0.498 0.005,0.224 -0.393,-0.002 -0.008,-0.445 c 0.28,0 0.387,0.061 0.396,0.223 z m 0.806,0.781 c 0.159,-0.037 0.259,-0.16 0.366,-0.387 0.271,-0.572 0.407,-0.869 0.407,-0.869 h -0.304 l -0.424,0.895 c -0.038,0.063 -0.106,0.087 -0.176,0.082 0.054,-0.342 0.175,-0.977 0.175,-0.977 h -0.301 c 0,0 -0.201,1.214 -0.201,1.28 0,0.002 0.329,0.006 0.458,-0.024 z m 1.213,-1.256 -0.346,0.002 -0.369,1.278 0.326,-0.002 z m 0.177,0.002 -0.405,1.279 h 0.679 c 0.201,0 0.442,-0.307 0.442,-0.307 l 0.35,-0.727 c 0.08,-0.18 -0.046,-0.245 -0.242,-0.242 -0.28,-0.005 -0.824,-0.003 -0.824,-0.003 z m 0.709,0.25 -0.283,0.726 c 0,0 -0.266,-0.003 -0.399,0 l 0.228,-0.726 z m 1.03,0.725 h -0.553 l 0.121,-0.251 h 0.597 l 0.121,-0.251 h -0.589 l 0.118,-0.223 h 0.632 l 0.128,-0.252 c 0,0 -0.447,-0.009 -0.705,0.008 -0.205,0.019 -0.347,0.129 -0.398,0.246 l -0.338,0.725 c -0.094,0.194 0.03,0.292 0.138,0.295 0.199,0.006 0.577,0.004 0.577,0.004 z m 1.026,-0.97 a 0.534,0.534 0 0 0 -0.447,0.241 10.82,10.82 0 0 0 -0.453,0.733 c -0.128,0.248 0.054,0.288 0.198,0.295 l 0.363,0.001 c 0.162,-0.004 0.196,-0.016 0.274,-0.062 a 1.45,1.45 0 0 0 0.228,-0.239 l 0.526,-0.724 c 0.072,-0.099 -0.064,-0.252 -0.202,-0.248 z m -0.107,0.245 h 0.477 l -0.514,0.726 h -0.439 z"
       id="path41"
       inkscape:connector-curvature="0" />
  </g>
  <path
     d="m 102.31999,6.877 h -6.642999 a 2.264,2.264 0 0 0 -2.257,2.257 v 26.544 a 2.264,2.264 0 0 0 2.257,2.257 h 33.510999 a 2.264,2.264 0 0 0 2.257,-2.257 V 9.133 a 2.264,2.264 0 0 0 -2.257,-2.257 h -7.317 v 5.529 c 0,0.628 -0.514,1.143 -1.143,1.143 h -17.266 a 1.147,1.147 0 0 1 -1.143,-1.143 V 6.877 Z"
     id="path45"
     inkscape:connector-curvature="0"
     style="fill:#c57435" />
  <path
     d="m 121.87099,8.248 h 6.8 c 0.697,0 1.268,0.561 1.268,1.247 v 24.842 c 0,1.124 -0.935,2.044 -2.078,2.044 H 97.003991 c -1.143,0 -2.078,-0.92 -2.078,-2.044 V 9.495 c 0,-0.686 0.571,-1.247 1.268,-1.247 h 6.125999 v 4.158 c 0,0.628 0.514,1.143 1.143,1.143 h 17.266 c 0.628,0 1.143,-0.514 1.143,-1.143 V 8.248 Z"
     id="path47"
     inkscape:connector-curvature="0"
     style="fill:#dcd640" />
  <path
     d="m 102.31999,8.738 h -5.284999 a 1.36,1.36 0 0 0 -1.356,1.356 v 24.237 c 0,0.746 0.61,1.356 1.356,1.356 h 30.795999 a 1.36,1.36 0 0 0 1.356,-1.356 V 10.094 a 1.36,1.36 0 0 0 -1.356,-1.356 h -5.959 v 3.667 c 0,0.628 -0.514,1.143 -1.143,1.143 h -17.266 a 1.147,1.147 0 0 1 -1.143,-1.143 V 8.764"
     id="path49"
     inkscape:connector-curvature="0"
     style="fill:#14141c" />
  <path
     d="m 124.11999,33.106 h -22.635 l 0.334,0.4 21.936,0.003 z"
     id="path51"
     inkscape:connector-curvature="0"
     style="fill:#dcd640" />
  <path
     d="m 124.64699,32.474 -11.848,0.002 -11.84,-0.002 0.387,0.464 11.447,-0.003 11.467,0.003 z"
     id="path53"
     inkscape:connector-curvature="0"
     style="fill:#c57435" />
  <path
     d="m 125.16999,31.846 h -24.735 l 0.383,0.46 11.98,-0.002 11.989,0.002 z"
     id="path55"
     inkscape:connector-curvature="0"
     style="fill:#b53535" />
  <path
     d="m 101.86199,30.635 -0.345,-0.571 c -0.273,-0.401 -0.55,-0.578 -1.016,-0.578 h -1.091999 l -0.381,-0.512 h 1.776999 l -0.306,-0.576 c 0,0 -1.285999,-0.02 -1.901999,0 a 0.395,0.395 0 0 0 -0.372,0.572 l 0.539,0.744 c 0.239,0.261 0.406,0.333 0.961,0.348 h 1.059999 l 0.372,0.576 h -1.729999 l 0.578999,0.694 1.497,-0.006 c 0.446,-0.001 0.457,-0.528 0.359,-0.691 z m -0.962,-2.237 1.667,2.928 h 0.675 l -0.675,-1.264 c 0,0 0.565,0.008 0.849,-0.01 0.491,0.01 0.671,-0.132 0.528,-0.562 l -0.23,-0.516 c -0.215,-0.43 -0.309,-0.544 -0.957,-0.575 h -1.857 z m 1.097,0.576 h 0.965 l 0.227,0.512 h -0.956 z m 4.869,2.352 -0.206,-0.683 c 0,0 -0.806,-0.013 -1.213,-0.005 -0.06,-0.14 -0.231,-0.576 -0.231,-0.576 h 1.213 l -0.158,-0.57 h -1.259 l -0.233,-0.518 h 1.303 l -0.156,-0.581 -1.423,0.005 c -0.353,0 -0.559,0.36 -0.492,0.58 l 0.727,1.669 c 0.228,0.434 0.443,0.613 0.858,0.664 0.465,0.057 1.27,0.015 1.27,0.015 z m 0.94,-2.928 c 0,0 -0.562,-0.007 -0.928,0.007 -0.355,0.006 -0.596,0.271 -0.539,0.573 l 0.479,1.652 c 0.151,0.368 0.458,0.695 0.885,0.69 l 0.757,0.005 -0.128,-0.688 h -0.801 l -0.489,-1.664 h 0.878 z m 0.258,0.576 h 0.553 l 0.471,2.352 h 0.565 l -0.383,-2.352 h 0.432 l -0.073,-0.573 -1.677,-0.003 z m 3.803,1.088 c 0.262,0 0.57,-0.304 0.565,-0.547 -0.013,-0.179 -0.012,-0.37 -0.032,-0.542 -0.057,-0.37 -0.449,-0.568 -0.744,-0.575 -0.603,0.013 -1.815,0 -1.815,0 l 0.381,2.928 h 0.63 l -0.244,-2.352 h 1.094 l 0.006,0.512 h -0.276 c -0.392,0 -0.427,0.291 -0.256,0.571 0.295,0.457 0.925,1.275 0.925,1.275 h 0.776 c 10e-4,0 -0.575,-0.694 -1.01,-1.27 z"
     id="path57"
     inkscape:connector-curvature="0"
     style="fill:#ffffff" />
  <path
     d="m 112.88499,28.344 -0.127,2.983 0.644,0.006 -0.002,-0.695 h 0.884 l -0.031,0.696 0.586,-0.001 c 0,0 0.219,-1.122 0.215,-1.84 0.017,-0.633 -0.447,-1.095 -1.093,-1.142 -0.356,-0.012 -1.076,-0.007 -1.076,-0.007 z m 1.472,1.142 0.011,0.514 -0.9,-0.005 -0.019,-1.021 c 0.643,0 0.888,0.14 0.908,0.512 z m 1.847,1.79 c 0.365,-0.085 0.594,-0.368 0.839,-0.886 0.622,-1.31 0.934,-1.992 0.934,-1.992 h -0.697 l -0.971,2.052 c -0.088,0.146 -0.242,0.2 -0.404,0.188 0.124,-0.785 0.401,-2.24 0.401,-2.24 h -0.69 c 0,0 -0.462,2.784 -0.462,2.934 0,0.004 0.755,0.013 1.05,-0.056 z m 2.782,-2.878 -0.794,0.003 -0.846,2.931 0.747,-0.004 z m 0.406,0.003 -0.928,2.931 h 1.557 c 0.461,0 1.014,-0.704 1.014,-0.704 l 0.802,-1.667 c 0.182,-0.413 -0.106,-0.563 -0.554,-0.555 -0.644,-0.008 -1.891,-0.005 -1.891,-0.005 z m 1.625,0.573 -0.648,1.664 c 0,0 -0.609,-0.006 -0.914,0 l 0.522,-1.664 z m 2.36,1.664 h -1.269 l 0.278,-0.576 h 1.369 l 0.278,-0.576 h -1.35 l 0.271,-0.512 1.449,0.001 0.293,-0.577 c 0,0 -1.025,-0.021 -1.615,0.018 -0.47,0.044 -0.796,0.295 -0.911,0.563 l -0.774,1.663 c -0.214,0.444 0.069,0.669 0.317,0.677 0.456,0.015 1.323,0.009 1.323,0.009 z m 2.353,-2.225 c -0.5,0.023 -0.772,0.218 -1.024,0.553 -0.333,0.443 -1.04,1.682 -1.04,1.682 -0.294,0.569 0.123,0.661 0.454,0.676 l 0.831,0.003 c 0.372,-0.008 0.45,-0.038 0.628,-0.143 0.093,-0.055 0.291,-0.268 0.523,-0.547 l 1.206,-1.659 c 0.166,-0.227 -0.148,-0.579 -0.463,-0.569 z m -0.246,0.561 h 1.094 l -1.177,1.664 h -1.006 z m 0.7,1.827 v 0.077 h 0.148 v 0.391 h 0.086 v -0.391 h 0.15 v -0.077 z m 0.542,0 -0.04,0.468 h 0.08 l 0.04,-0.305 0.114,0.305 h 0.063 l 0.11,-0.301 0.04,0.301 h 0.082 l -0.04,-0.468 h -0.1 l -0.123,0.337 -0.124,-0.337 z"
     id="path59"
     inkscape:connector-curvature="0"
     style="fill:#ffffff" />
  <g
     id="g65"
     transform="translate(9.9053739e-4)">
    <g
       id="g63"
       style="fill:#c2c1b9">
      <path
         d="m 96.868,34.458 a 0.528,0.528 0 0 1 0.3,-0.279 0.602,0.602 0 0 1 0.422,0 0.524,0.524 0 0 1 0.346,0.504 0.52,0.52 0 0 1 -0.168,0.394 0.547,0.547 0 0 1 -0.178,0.109 0.598,0.598 0 0 1 -0.6,-0.109 0.518,0.518 0 0 1 -0.168,-0.394 0.561,0.561 0 0 1 0.046,-0.225 z m 0.134,0.396 a 0.388,0.388 0 0 0 0.217,0.223 0.408,0.408 0 0 0 0.537,-0.223 0.434,0.434 0 0 0 0.033,-0.171 0.434,0.434 0 0 0 -0.121,-0.306 0.407,0.407 0 0 0 -0.666,0.135 0.481,0.481 0 0 0 0,0.342 z m 0.629,0.015 a 0.248,0.248 0 0 1 -0.14,0.117 0.311,0.311 0 0 1 -0.318,-0.078 0.313,0.313 0 0 1 -0.063,-0.102 0.388,0.388 0 0 1 -0.001,-0.256 0.279,0.279 0 0 1 0.158,-0.171 0.331,0.331 0 0 1 0.225,-0.011 0.242,0.242 0 0 1 0.167,0.21 h -0.113 a 0.133,0.133 0 0 0 -0.052,-0.08 0.166,0.166 0 0 0 -0.097,-0.029 0.149,0.149 0 0 0 -0.126,0.057 0.238,0.238 0 0 0 -0.043,0.148 c 0,0.028 0.004,0.055 0.012,0.08 0.008,0.026 0.02,0.048 0.035,0.067 a 0.167,0.167 0 0 0 0.054,0.045 0.152,0.152 0 0 0 0.071,0.017 c 0.041,0 0.074,-0.01 0.1,-0.03 a 0.118,0.118 0 0 0 0.046,-0.083 h 0.117 a 0.32,0.32 0 0 1 -0.032,0.099 z m 1.093,0.331 v -0.658 h -0.255 v -0.155 a 0.51,0.51 0 0 0 0.104,-0.008 0.27,0.27 0 0 0 0.09,-0.033 0.212,0.212 0 0 0 0.103,-0.16 H 98.93 V 35.2 Z m 0.732,-0.173 a 0.12,0.12 0 0 0 0.09,0.038 0.132,0.132 0 0 0 0.093,-0.033 0.25,0.25 0 0 0 0.058,-0.08 0.41,0.41 0 0 0 0.031,-0.101 c 0.006,-0.036 0.01,-0.068 0.012,-0.096 l -0.003,-0.003 a 0.243,0.243 0 0 1 -0.098,0.087 0.314,0.314 0 0 1 -0.257,-0.002 0.3,0.3 0 0 1 -0.166,-0.182 0.41,0.41 0 0 1 0.006,-0.266 0.349,0.349 0 0 1 0.184,-0.196 0.357,0.357 0 0 1 0.145,-0.029 c 0.077,0 0.141,0.015 0.191,0.046 0.05,0.03 0.09,0.071 0.119,0.12 0.03,0.05 0.051,0.106 0.062,0.169 0.011,0.063 0.017,0.126 0.017,0.19 a 0.798,0.798 0 0 1 -0.022,0.188 0.535,0.535 0 0 1 -0.07,0.17 0.345,0.345 0 0 1 -0.307,0.17 0.404,0.404 0 0 1 -0.122,-0.018 0.293,0.293 0 0 1 -0.207,-0.261 h 0.195 c 0.01,0.035 0.025,0.064 0.049,0.089 z m 0.174,-0.331 a 0.157,0.157 0 0 0 0.081,-0.101 0.246,0.246 0 0 0 -0.001,-0.141 0.187,0.187 0 0 0 -0.032,-0.061 c -0.014,-0.018 -0.031,-0.032 -0.052,-0.043 -0.021,-0.011 -0.043,-0.016 -0.07,-0.016 a 0.128,0.128 0 0 0 -0.065,0.016 0.175,0.175 0 0 0 -0.08,0.101 0.269,0.269 0 0 0 -0.001,0.138 0.2,0.2 0 0 0 0.028,0.061 0.142,0.142 0 0 0 0.117,0.06 0.133,0.133 0 0 0 0.075,-0.014 z m 0.435,-0.374 c 0.02,-0.035 0.047,-0.064 0.079,-0.087 0.032,-0.023 0.069,-0.041 0.109,-0.052 a 0.435,0.435 0 0 1 0.123,-0.017 c 0.063,0 0.116,0.01 0.159,0.029 a 0.344,0.344 0 0 1 0.105,0.07 0.246,0.246 0 0 1 0.057,0.088 0.237,0.237 0 0 1 -0.02,0.217 0.203,0.203 0 0 1 -0.111,0.081 v 0.003 a 0.228,0.228 0 0 1 0.14,0.086 c 0.033,0.044 0.05,0.098 0.05,0.162 a 0.281,0.281 0 0 1 -0.119,0.238 0.384,0.384 0 0 1 -0.122,0.059 0.502,0.502 0 0 1 -0.282,0.002 0.365,0.365 0 0 1 -0.123,-0.057 0.303,0.303 0 0 1 -0.087,-0.098 0.29,0.29 0 0 1 -0.033,-0.142 c 0,-0.065 0.017,-0.119 0.05,-0.162 a 0.244,0.244 0 0 1 0.141,-0.087 v -0.003 a 0.184,0.184 0 0 1 -0.111,-0.077 0.235,0.235 0 0 1 -0.038,-0.132 0.275,0.275 0 0 1 0.033,-0.121 z m 0.148,0.642 a 0.165,0.165 0 0 0 0.095,0.089 0.206,0.206 0 0 0 0.139,0 0.167,0.167 0 0 0 0.092,-0.089 0.178,0.178 0 0 0 -0.001,-0.136 0.162,0.162 0 0 0 -0.093,-0.084 0.185,0.185 0 0 0 -0.067,-0.012 0.2,0.2 0 0 0 -0.127,0.041 c -0.035,0.028 -0.052,0.067 -0.052,0.12 a 0.153,0.153 0 0 0 0.014,0.071 z m 0.055,-0.404 a 0.177,0.177 0 0 0 0.109,0.034 c 0.043,0 0.08,-0.011 0.108,-0.034 0.029,-0.023 0.043,-0.056 0.043,-0.099 a 0.178,0.178 0 0 0 -0.006,-0.044 0.13,0.13 0 0 0 -0.022,-0.046 c -0.011,-0.014 -0.027,-0.027 -0.046,-0.036 -0.019,-0.009 -0.046,-0.014 -0.077,-0.014 -0.02,0 -0.04,0.003 -0.059,0.009 a 0.142,0.142 0 0 0 -0.084,0.07 0.144,0.144 0 0 0 -0.012,0.061 0.113,0.113 0 0 0 0.046,0.099 z m 0.911,0.036 a 0.232,0.232 0 0 0 0.07,-0.017 0.127,0.127 0 0 0 0.053,-0.04 0.108,0.108 0 0 0 0.021,-0.07 c 0,-0.043 -0.014,-0.077 -0.043,-0.1 -0.029,-0.023 -0.062,-0.035 -0.1,-0.035 -0.052,0 -0.091,0.017 -0.118,0.051 a 0.197,0.197 0 0 0 -0.038,0.13 h -0.195 a 0.433,0.433 0 0 1 0.028,-0.143 0.318,0.318 0 0 1 0.181,-0.183 0.43,0.43 0 0 1 0.264,-0.007 c 0.041,0.012 0.077,0.03 0.109,0.054 0.032,0.024 0.059,0.054 0.079,0.088 0.02,0.034 0.03,0.075 0.03,0.12 a 0.243,0.243 0 0 1 -0.035,0.13 0.179,0.179 0 0 1 -0.107,0.077 v 0.003 c 0.056,0.013 0.1,0.04 0.132,0.081 a 0.237,0.237 0 0 1 0.048,0.149 0.313,0.313 0 0 1 -0.114,0.246 0.384,0.384 0 0 1 -0.12,0.064 0.48,0.48 0 0 1 -0.298,-0.003 0.316,0.316 0 0 1 -0.196,-0.187 0.403,0.403 0 0 1 -0.025,-0.156 h 0.196 c 10e-4,0.027 0.005,0.053 0.013,0.077 0.008,0.024 0.019,0.046 0.033,0.064 a 0.154,0.154 0 0 0 0.054,0.043 0.171,0.171 0 0 0 0.077,0.016 0.166,0.166 0 0 0 0.117,-0.043 0.147,0.147 0 0 0 0.048,-0.117 c 0,-0.039 -0.007,-0.068 -0.022,-0.088 a 0.13,0.13 0 0 0 -0.057,-0.044 0.256,0.256 0 0 0 -0.076,-0.016 l -0.079,-0.002 v -0.145 a 0.23,0.23 0 0 0 0.07,0.003 z m 1.081,0.349 a 0.16,0.16 0 0 0 0.05,0.059 0.212,0.212 0 0 0 0.073,0.033 0.358,0.358 0 0 0 0.217,-0.013 0.142,0.142 0 0 0 0.051,-0.04 0.102,0.102 0 0 0 0.02,-0.064 0.09,0.09 0 0 0 -0.027,-0.068 0.227,0.227 0 0 0 -0.07,-0.044 0.596,0.596 0 0 0 -0.098,-0.03 c -0.037,-0.009 -0.074,-0.018 -0.111,-0.029 a 1.058,1.058 0 0 1 -0.113,-0.035 0.37,0.37 0 0 1 -0.098,-0.054 c -0.029,-0.022 -0.052,-0.05 -0.07,-0.083 -0.018,-0.033 -0.027,-0.074 -0.027,-0.121 0,-0.053 0.011,-0.099 0.034,-0.138 a 0.31,0.31 0 0 1 0.089,-0.098 0.398,0.398 0 0 1 0.125,-0.058 0.512,0.512 0 0 1 0.139,-0.019 c 0.054,0 0.106,0.006 0.156,0.018 0.05,0.012 0.094,0.032 0.132,0.059 a 0.28,0.28 0 0 1 0.092,0.104 0.315,0.315 0 0 1 0.034,0.153 h -0.22 a 0.19,0.19 0 0 0 -0.019,-0.077 0.136,0.136 0 0 0 -0.044,-0.048 0.185,0.185 0 0 0 -0.063,-0.025 0.384,0.384 0 0 0 -0.133,-10e-4 0.169,0.169 0 0 0 -0.05,0.02 c -0.015,0.01 -0.027,0.022 -0.037,0.036 -0.01,0.014 -0.014,0.033 -0.014,0.055 0,0.02 0.004,0.037 0.012,0.049 a 0.104,0.104 0 0 0 0.046,0.035 0.592,0.592 0 0 0 0.094,0.032 l 0.157,0.041 c 0.019,0.004 0.046,0.011 0.08,0.021 0.034,0.01 0.068,0.026 0.102,0.048 a 0.26,0.26 0 0 1 0.125,0.232 0.325,0.325 0 0 1 -0.027,0.132 0.278,0.278 0 0 1 -0.082,0.105 0.408,0.408 0 0 1 -0.135,0.069 0.649,0.649 0 0 1 -0.352,0.004 0.421,0.421 0 0 1 -0.142,-0.066 0.338,0.338 0 0 1 -0.098,-0.114 0.34,0.34 0 0 1 -0.035,-0.165 h 0.22 a 0.159,0.159 0 0 0 0.017,0.085 z m 1.233,-0.779 c 0.065,0 0.12,0.009 0.165,0.028 0.045,0.019 0.082,0.044 0.111,0.075 0.029,0.031 0.049,0.066 0.062,0.106 a 0.396,0.396 0 0 1 0,0.245 0.283,0.283 0 0 1 -0.173,0.181 0.425,0.425 0 0 1 -0.165,0.028 h -0.239 V 35.2 h -0.227 v -1.034 z m -0.063,0.486 a 0.456,0.456 0 0 0 0.075,-0.006 0.18,0.18 0 0 0 0.064,-0.022 0.125,0.125 0 0 0 0.044,-0.047 0.167,0.167 0 0 0 0.017,-0.08 0.17,0.17 0 0 0 -0.017,-0.08 0.125,0.125 0 0 0 -0.044,-0.047 0.157,0.157 0 0 0 -0.064,-0.022 0.456,0.456 0 0 0 -0.075,-0.006 h -0.177 v 0.31 z m 1.336,-0.486 v 0.191 h -0.546 v 0.222 h 0.501 v 0.177 h -0.501 v 0.254 h 0.558 v 0.19 h -0.785 v -1.034 z m 0.829,0.276 a 0.23,0.23 0 0 0 -0.12,-0.095 0.26,0.26 0 0 0 -0.21,0.016 0.24,0.24 0 0 0 -0.087,0.08 0.367,0.367 0 0 0 -0.049,0.114 0.58,0.58 0 0 0 0,0.259 c 0.01,0.041 0.026,0.078 0.049,0.111 a 0.245,0.245 0 0 0 0.217,0.109 c 0.07,0 0.124,-0.021 0.163,-0.064 a 0.298,0.298 0 0 0 0.072,-0.168 h 0.22 a 0.53,0.53 0 0 1 -0.045,0.175 0.406,0.406 0 0 1 -0.235,0.217 0.544,0.544 0 0 1 -0.389,-0.012 0.463,0.463 0 0 1 -0.26,-0.284 0.65,0.65 0 0 1 0,-0.426 0.52,0.52 0 0 1 0.1,-0.173 0.458,0.458 0 0 1 0.16,-0.116 0.524,0.524 0 0 1 0.214,-0.042 0.498,0.498 0 0 1 0.297,0.097 c 0.04,0.031 0.073,0.07 0.099,0.117 a 0.418,0.418 0 0 1 0.049,0.159 h -0.22 a 0.171,0.171 0 0 0 -0.025,-0.074 z m 0.329,-0.085 v -0.191 h 0.847 v 0.191 h -0.31 V 35.2 h -0.227 v -0.843 z m 1.523,-0.191 a 0.3,0.3 0 0 1 0.221,0.084 0.261,0.261 0 0 1 0.061,0.09 0.289,0.289 0 0 1 0.021,0.111 0.316,0.316 0 0 1 -0.038,0.158 0.238,0.238 0 0 1 -0.125,0.101 v 0.003 c 0.028,0.008 0.051,0.02 0.07,0.036 a 0.222,0.222 0 0 1 0.07,0.128 0.697,0.697 0 0 1 0.014,0.136 l 0.005,0.068 a 0.35,0.35 0 0 0 0.012,0.066 0.143,0.143 0 0 0 0.024,0.053 h -0.228 a 0.392,0.392 0 0 1 -0.023,-0.117 1.682,1.682 0 0 0 -0.013,-0.13 0.209,0.209 0 0 0 -0.049,-0.119 c -0.025,-0.025 -0.066,-0.038 -0.123,-0.038 h -0.228 V 35.2 h -0.227 v -1.034 z m -0.081,0.467 c 0.052,0 0.091,-0.012 0.117,-0.035 0.026,-0.023 0.039,-0.061 0.039,-0.113 0,-0.05 -0.013,-0.087 -0.039,-0.109 -0.026,-0.023 -0.065,-0.034 -0.117,-0.034 h -0.249 v 0.291 z m 1.086,-0.467 0.387,1.034 h -0.236 l -0.078,-0.23 h -0.387 l -0.081,0.23 h -0.229 l 0.391,-1.034 z m 0.012,0.634 -0.13,-0.379 h -0.003 l -0.135,0.379 z m 0.622,0.4 -0.335,-1.034 h 0.233 l 0.23,0.727 h 0.003 l 0.233,-0.727 h 0.235 l -0.343,1.034 z m 0.915,-1.034 V 35.2 h -0.227 v -1.034 z m 0.647,0 c 0.067,0 0.129,0.011 0.186,0.032 a 0.398,0.398 0 0 1 0.149,0.096 0.44,0.44 0 0 1 0.098,0.159 0.733,0.733 0 0 1 0.007,0.434 0.437,0.437 0 0 1 -0.088,0.165 0.409,0.409 0 0 1 -0.146,0.109 0.485,0.485 0 0 1 -0.206,0.04 h -0.446 v -1.034 h 0.446 z m -0.016,0.843 a 0.285,0.285 0 0 0 0.096,-0.016 c 0.031,-0.011 0.058,-0.028 0.083,-0.053 0.025,-0.025 0.043,-0.057 0.058,-0.096 a 0.438,0.438 0 0 0 0.022,-0.145 0.61,0.61 0 0 0 -0.015,-0.141 0.283,0.283 0 0 0 -0.05,-0.108 0.222,0.222 0 0 0 -0.092,-0.069 0.364,0.364 0 0 0 -0.141,-0.024 h -0.162 v 0.652 z m 1.416,-0.843 v 0.191 h -0.546 v 0.222 h 0.501 v 0.177 h -0.501 v 0.254 h 0.558 v 0.19 h -0.785 v -1.034 z m 0.156,0.306 a 0.52,0.52 0 0 1 0.1,-0.173 0.458,0.458 0 0 1 0.16,-0.116 0.524,0.524 0 0 1 0.214,-0.042 c 0.08,0 0.152,0.014 0.214,0.042 a 0.454,0.454 0 0 1 0.159,0.116 0.52,0.52 0 0 1 0.1,0.173 0.65,0.65 0 0 1 0,0.426 0.472,0.472 0 0 1 -0.473,0.325 0.544,0.544 0 0 1 -0.214,-0.041 0.463,0.463 0 0 1 -0.26,-0.284 0.627,0.627 0 0 1 -0.035,-0.211 c 0,-0.077 0.011,-0.149 0.035,-0.215 z m 0.207,0.342 c 0.01,0.041 0.026,0.078 0.049,0.111 a 0.245,0.245 0 0 0 0.217,0.109 0.245,0.245 0 0 0 0.217,-0.109 0.346,0.346 0 0 0 0.048,-0.111 0.532,0.532 0 0 0 -0.048,-0.373 0.248,0.248 0 0 0 -0.217,-0.11 0.26,0.26 0 0 0 -0.13,0.03 0.24,0.24 0 0 0 -0.087,0.08 0.367,0.367 0 0 0 -0.049,0.114 0.58,0.58 0 0 0 0,0.259 z m 1.56,-0.648 V 35.2 h -0.227 v -1.034 z m 0.426,0 0.432,0.694 h 0.003 v -0.694 h 0.213 V 35.2 h -0.228 l -0.43,-0.692 h -0.003 V 35.2 h -0.213 v -1.034 z m 0.766,0.191 v -0.191 h 0.847 v 0.191 H 115.7 V 35.2 h -0.227 v -0.843 z m 1.74,-0.191 v 0.191 h -0.546 v 0.222 h 0.501 v 0.177 h -0.501 v 0.254 h 0.558 v 0.19 h -0.785 v -1.034 z m 0.723,0 a 0.3,0.3 0 0 1 0.221,0.084 0.261,0.261 0 0 1 0.061,0.09 0.289,0.289 0 0 1 0.021,0.111 0.316,0.316 0 0 1 -0.038,0.158 0.238,0.238 0 0 1 -0.125,0.101 v 0.003 c 0.028,0.008 0.051,0.02 0.07,0.036 a 0.222,0.222 0 0 1 0.07,0.128 0.697,0.697 0 0 1 0.014,0.136 l 0.005,0.068 a 0.35,0.35 0 0 0 0.012,0.066 0.143,0.143 0 0 0 0.024,0.053 h -0.228 a 0.392,0.392 0 0 1 -0.023,-0.117 1.682,1.682 0 0 0 -0.013,-0.13 0.209,0.209 0 0 0 -0.049,-0.119 c -0.025,-0.025 -0.066,-0.038 -0.123,-0.038 h -0.228 V 35.2 h -0.227 v -1.034 z m -0.081,0.467 c 0.052,0 0.091,-0.012 0.117,-0.035 0.026,-0.023 0.039,-0.061 0.039,-0.113 0,-0.05 -0.013,-0.087 -0.039,-0.109 -0.026,-0.023 -0.065,-0.034 -0.117,-0.034 h -0.249 v 0.291 z m 0.795,-0.467 0.432,0.694 h 0.003 v -0.694 h 0.213 V 35.2 h -0.228 l -0.43,-0.692 h -0.003 V 35.2 h -0.213 v -1.034 z m 1.363,0 0.387,1.034 h -0.236 l -0.078,-0.23 h -0.387 l -0.081,0.23 h -0.229 l 0.391,-1.034 z m 0.013,0.634 -0.13,-0.379 h -0.003 l -0.135,0.379 z m 0.25,-0.443 v -0.191 h 0.847 v 0.191 h -0.31 V 35.2 h -0.227 v -0.843 z m 1.193,-0.191 V 35.2 h -0.227 v -1.034 z m 0.19,0.306 a 0.52,0.52 0 0 1 0.1,-0.173 0.458,0.458 0 0 1 0.16,-0.116 0.524,0.524 0 0 1 0.214,-0.042 c 0.08,0 0.152,0.014 0.214,0.042 a 0.454,0.454 0 0 1 0.159,0.116 0.52,0.52 0 0 1 0.1,0.173 0.65,0.65 0 0 1 0,0.426 0.472,0.472 0 0 1 -0.473,0.325 0.544,0.544 0 0 1 -0.214,-0.041 0.463,0.463 0 0 1 -0.26,-0.284 0.65,0.65 0 0 1 0,-0.426 z m 0.208,0.342 c 0.01,0.041 0.026,0.078 0.049,0.111 a 0.245,0.245 0 0 0 0.217,0.109 0.245,0.245 0 0 0 0.217,-0.109 0.346,0.346 0 0 0 0.048,-0.111 0.532,0.532 0 0 0 -0.048,-0.373 0.248,0.248 0 0 0 -0.217,-0.11 0.26,0.26 0 0 0 -0.13,0.03 0.24,0.24 0 0 0 -0.087,0.08 0.367,0.367 0 0 0 -0.049,0.114 0.58,0.58 0 0 0 0,0.259 z m 1.155,-0.648 0.432,0.694 h 0.003 v -0.694 h 0.213 V 35.2 h -0.228 l -0.43,-0.692 h -0.003 V 35.2 h -0.213 v -1.034 z m 1.364,0 0.387,1.034 h -0.236 l -0.078,-0.23 h -0.387 l -0.081,0.23 h -0.229 l 0.391,-1.034 z m 0.012,0.634 -0.13,-0.379 h -0.003 L 123.82,34.8 Z m 0.691,-0.634 v 0.843 h 0.504 V 35.2 h -0.732 v -1.034 z m 1.262,0 v 0.843 h 0.504 V 35.2 h -0.732 v -1.034 z m 0.418,0.191 v -0.191 h 0.847 v 0.191 h -0.31 V 35.2 h -0.227 v -0.843 z m 1.412,-0.191 c 0.067,0 0.129,0.011 0.186,0.032 a 0.398,0.398 0 0 1 0.149,0.096 0.44,0.44 0 0 1 0.098,0.159 0.733,0.733 0 0 1 0.007,0.434 0.437,0.437 0 0 1 -0.088,0.165 0.409,0.409 0 0 1 -0.146,0.109 0.485,0.485 0 0 1 -0.206,0.04 h -0.446 v -1.034 h 0.446 z m -0.016,0.843 a 0.285,0.285 0 0 0 0.096,-0.016 c 0.031,-0.011 0.058,-0.028 0.083,-0.053 0.025,-0.025 0.043,-0.057 0.058,-0.096 a 0.438,0.438 0 0 0 0.022,-0.145 0.61,0.61 0 0 0 -0.015,-0.141 0.283,0.283 0 0 0 -0.05,-0.108 0.222,0.222 0 0 0 -0.092,-0.069 0.364,0.364 0 0 0 -0.141,-0.024 h -0.162 v 0.652 z m 0.858,-0.032 V 35.2 h -0.228 v -0.223 z"
         id="path61"
         inkscape:connector-curvature="0" />
    </g>
  </g>
  <g
     id="g69"
     style="fill:#c2c1b9"
     transform="translate(9.9053739e-4)">
    <path
       d="m 97.813,10.301 a 0.12,0.12 0 0 0 0.037,0.043 c 0.015,0.011 0.033,0.019 0.054,0.025 0.021,0.006 0.042,0.008 0.065,0.008 a 0.274,0.274 0 0 0 0.096,-0.018 0.098,0.098 0 0 0 0.037,-0.03 0.074,0.074 0 0 0 0.015,-0.048 0.07,0.07 0 0 0 -0.02,-0.051 0.148,0.148 0 0 0 -0.052,-0.032 0.572,0.572 0 0 0 -0.073,-0.023 L 97.889,10.154 A 0.746,0.746 0 0 1 97.805,10.128 0.285,0.285 0 0 1 97.732,10.088 0.175,0.175 0 0 1 97.68,10.026 0.193,0.193 0 0 1 97.66,9.936 0.2,0.2 0 0 1 97.685,9.833 0.242,0.242 0 0 1 97.751,9.76 0.288,0.288 0 0 1 97.843,9.717 0.491,0.491 0 0 1 98.062,9.716 c 0.037,0.009 0.07,0.023 0.098,0.043 A 0.22,0.22 0 0 1 98.253,9.95 H 98.09 A 0.132,0.132 0 0 0 98.075,9.893 0.086,0.086 0 0 0 98.042,9.858 0.121,0.121 0 0 0 97.995,9.84 0.257,0.257 0 0 0 97.897,9.839 0.11,0.11 0 0 0 97.86,9.854 0.087,0.087 0 0 0 97.833,9.881 0.073,0.073 0 0 0 97.822,9.922 c 0,0.015 0.003,0.027 0.008,0.036 a 0.081,0.081 0 0 0 0.034,0.026 c 0.017,0.008 0.04,0.016 0.07,0.024 a 8.051,8.051 0 0 0 0.177,0.046 c 0.026,0.008 0.051,0.02 0.076,0.036 0.025,0.016 0.047,0.038 0.065,0.066 a 0.192,0.192 0 0 1 0.027,0.106 0.218,0.218 0 0 1 -0.081,0.176 0.286,0.286 0 0 1 -0.1,0.051 0.481,0.481 0 0 1 -0.261,0.002 0.318,0.318 0 0 1 -0.105,-0.049 0.24,0.24 0 0 1 -0.099,-0.208 h 0.164 a 0.174,0.174 0 0 0 0.016,0.067 z m 0.901,-0.578 c 0.049,0 0.095,0.008 0.138,0.024 a 0.307,0.307 0 0 1 0.184,0.189 0.492,0.492 0 0 1 0.026,0.167 0.514,0.514 0 0 1 -0.022,0.155 0.314,0.314 0 0 1 -0.173,0.204 0.363,0.363 0 0 1 -0.153,0.03 H 98.383 V 9.723 Z m -0.012,0.626 a 0.216,0.216 0 0 0 0.071,-0.012 0.16,0.16 0 0 0 0.061,-0.039 0.198,0.198 0 0 0 0.043,-0.071 0.308,0.308 0 0 0 0.016,-0.108 0.477,0.477 0 0 0 -0.011,-0.105 0.219,0.219 0 0 0 -0.037,-0.08 0.168,0.168 0 0 0 -0.068,-0.051 0.267,0.267 0 0 0 -0.105,-0.018 h -0.12 v 0.484 z"
       id="path67"
       inkscape:connector-curvature="0" />
  </g>
  <g
     id="g169"
     transform="translate(9.9053739e-4)">
    <path
       d="m 21.09,23.538 a 8.815,8.815 0 1 0 0,17.63 8.815,8.815 0 1 0 0,-17.63 z m 0,14.533 A 5.718,5.718 0 1 1 21.091,26.636 5.718,5.718 0 0 1 21.09,38.071 Z M 51.575,21.133 c -6.197,0 -11.22,5.024 -11.22,11.22 0,6.197 5.024,11.22 11.22,11.22 6.197,0 11.22,-5.024 11.22,-11.22 0,-6.196 -5.023,-11.22 -11.22,-11.22 z m 0,16.936 a 5.718,5.718 0 1 1 10e-4,-11.435 5.718,5.718 0 0 1 -10e-4,11.435 z"
       id="path71"
       inkscape:connector-curvature="0"
       style="fill:#281e1c" />
    <path
       d="m 51.575,28.265 a 4.087,4.087 0 1 0 0,8.174 4.087,4.087 0 0 0 0,-8.174 z m 0.25,7.495 v -0.744 h -0.486 v 0.745 a 3.415,3.415 0 0 1 -2.598,-1.497 l 0.646,-0.373 -0.243,-0.42 -0.646,0.373 a 3.406,3.406 0 0 1 -0.342,-1.492 c 0,-0.539 0.125,-1.049 0.347,-1.502 l 0.638,0.368 0.243,-0.42 -0.637,-0.368 a 3.415,3.415 0 0 1 2.587,-1.487 v 0.727 h 0.485 v -0.726 a 3.415,3.415 0 0 1 2.582,1.487 l -0.63,0.364 0.243,0.42 0.631,-0.364 c 0.222,0.453 0.347,0.963 0.347,1.502 a 3.4,3.4 0 0 1 -0.338,1.484 l -0.638,-0.368 -0.243,0.42 0.639,0.369 A 3.406,3.406 0 0 1 51.825,35.76 Z M 21.089,28.265 a 4.087,4.087 0 1 0 0,8.174 4.087,4.087 0 0 0 0,-8.174 z m 0.236,7.497 v -0.745 h -0.486 v 0.744 A 3.417,3.417 0 0 1 18.25,34.258 l 0.639,-0.369 -0.243,-0.42 -0.638,0.368 A 3.4,3.4 0 0 1 17.67,32.353 c 0,-0.539 0.125,-1.048 0.347,-1.502 l 0.631,0.364 0.243,-0.42 -0.63,-0.364 a 3.413,3.413 0 0 1 2.582,-1.487 v 0.726 h 0.485 v -0.727 a 3.417,3.417 0 0 1 2.587,1.487 l -0.637,0.368 0.243,0.42 0.638,-0.368 c 0.222,0.453 0.347,0.963 0.347,1.502 0,0.535 -0.123,1.041 -0.342,1.492 l -0.646,-0.373 -0.243,0.42 0.646,0.373 a 3.41,3.41 0 0 1 -2.596,1.498 z"
       id="path73"
       inkscape:connector-curvature="0"
       style="fill:#e2e2df" />
    <path
       d="m 71.726,40.758 c 0.643,0.661 0.845,0.881 0.845,0.881 0,0 0.11,0.073 0.092,0.386 -0.018,0.312 0,10.264 0,10.576 0,0.312 -0.092,0.312 -0.184,0.422 -0.092,0.11 -0.753,0.881 -0.753,0.881 z m -70.788,0 c -0.643,0.661 -0.845,0.881 -0.845,0.881 0,0 -0.11,0.073 -0.092,0.386 0.018,0.312 0,10.264 0,10.576 0,0.312 0.092,0.312 0.184,0.422 0.092,0.11 0.753,0.881 0.753,0.881 z"
       id="path75"
       inkscape:connector-curvature="0"
       style="fill:#959479" />
    <path
       d="M 70.661,12.166 H 1.974 c -0.717,0 -1.304,0.587 -1.304,1.304 v 42.037 c 0,0.717 0.587,1.304 1.304,1.304 h 68.688 c 0.717,0 1.304,-0.587 1.304,-1.304 V 13.47 c 0,-0.717 -0.587,-1.304 -1.305,-1.304 z M 19.084,55.859 a 1.545,1.545 0 1 1 0,-3.09 1.545,1.545 0 0 1 0,3.09 z m 2.005,-19.628 a 3.878,3.878 0 1 1 0,-7.755 3.878,3.878 0 0 1 0,7.755 z m 6.64,17.754 a 0.561,0.561 0 0 1 -0.559,0.559 h -1.709 a 0.561,0.561 0 0 1 -0.559,-0.559 v -1.544 c 0,-0.307 0.252,-0.559 0.559,-0.559 h 1.709 c 0.307,0 0.559,0.252 0.559,0.559 z M 44.563,35.49 c 0,0.089 -0.084,0.163 -0.186,0.163 H 28.141 c -0.103,0 -0.186,-0.073 -0.186,-0.163 v -6.635 c 0,-0.089 0.084,-0.163 0.186,-0.163 h 16.236 c 0.103,0 0.186,0.073 0.186,0.163 z m 3.199,18.495 a 0.561,0.561 0 0 1 -0.559,0.559 h -1.709 a 0.561,0.561 0 0 1 -0.559,-0.559 v -1.544 c 0,-0.307 0.252,-0.559 0.559,-0.559 h 1.709 a 0.56,0.56 0 0 1 0.559,0.559 z m 5.818,1.874 a 1.545,1.545 0 1 1 0,-3.09 1.545,1.545 0 0 1 0,3.09 z M 51.575,36.231 a 3.878,3.878 0 1 1 0,-7.755 3.878,3.878 0 0 1 0,7.755 z"
       id="path77"
       inkscape:connector-curvature="0"
       style="fill:#afae99" />
    <path
       d="M 44.634,28.459 H 27.883 c -0.106,0 -0.192,0.078 -0.192,0.174 v 7.08 c 0,0.095 0.087,0.174 0.192,0.174 h 16.751 c 0.106,0 0.192,-0.078 0.192,-0.174 v -7.08 c 10e-4,-0.096 -0.086,-0.174 -0.192,-0.174 z m -0.071,7.031 c 0,0.089 -0.084,0.163 -0.186,0.163 H 28.141 c -0.103,0 -0.186,-0.073 -0.186,-0.163 v -6.635 c 0,-0.089 0.084,-0.163 0.186,-0.163 h 16.236 c 0.103,0 0.186,0.073 0.186,0.163 z m 16.869,21.321 c -0.447,-2.032 -1.94,-9.157 -2.1,-9.86 -0.164,-0.723 -0.46,-1.315 -1.38,-1.315 H 14.713 c -0.92,0 -1.216,0.592 -1.38,1.315 -0.16,0.703 -1.653,7.827 -2.1,9.86 h 0.684 c 0.54,-2.49 1.774,-8.325 1.977,-9.298 0.227,-1.088 0.46,-1.315 1.38,-1.315 h 42.115 c 0.92,0 1.153,0.227 1.38,1.315 0.203,0.973 1.437,6.808 1.977,9.298 z"
       id="path79"
       inkscape:connector-curvature="0"
       style="fill:#959479" />
    <path
       d="M 67.431,18.42 C 67.37,18.35 65.171,16.055 65.076,15.954 65.01,15.883 64.902,15.881 64.902,15.881 H 7.761 c 0,0 -0.107,0.002 -0.174,0.073 -0.094,0.101 -2.294,2.396 -2.354,2.466 -0.095,0.109 -0.075,0.178 -0.075,0.178 v 24.587 c 0,0.103 0.084,0.186 0.186,0.186 H 67.32 a 0.187,0.187 0 0 0 0.186,-0.186 V 18.598 c 0,0 0.02,-0.069 -0.075,-0.178 z M 56.294,35.987 c 0,0.596 -0.488,1.084 -1.084,1.084 H 17.454 A 1.087,1.087 0 0 1 16.37,35.987 v -7.27 c 0,-0.596 0.488,-1.084 1.084,-1.084 H 55.21 c 0.596,0 1.084,0.488 1.084,1.084 z"
       id="path81"
       inkscape:connector-curvature="0"
       style="clip-rule:evenodd;fill:#15110f;fill-rule:evenodd" />
    <path
       d="M 51.575,27.633 H 21.089 a 4.72,4.72 0 0 0 0,9.438 h 30.486 a 4.72,4.72 0 0 0 0,-9.438 z m -30.493,8.598 a 3.886,3.886 0 1 1 0,-7.772 3.886,3.886 0 0 1 0,7.772 z m 23.745,-0.519 c 0,0.095 -0.087,0.174 -0.192,0.174 H 27.883 c -0.106,0 -0.192,-0.078 -0.192,-0.174 v -7.08 c 0,-0.095 0.087,-0.174 0.192,-0.174 h 16.751 c 0.106,0 0.192,0.078 0.192,0.174 v 7.08 z m 6.748,0.519 a 3.886,3.886 0 1 1 0,-7.772 3.886,3.886 0 0 1 0,7.772 z"
       id="path83"
       inkscape:connector-curvature="0"
       style="clip-rule:evenodd;fill:#a5a492;fill-rule:evenodd" />
    <path
       d="m 56.294,30.781 h 11.212 v 3.146 H 56.294 Z"
       id="path85"
       inkscape:connector-curvature="0"
       style="fill:#d1792c" />
    <path
       d="m 56.294,33.927 v 2.061 c 0,0.596 -0.488,1.084 -1.084,1.084 H 67.506 V 33.929 H 56.294"
       id="path87"
       inkscape:connector-curvature="0"
       style="fill:#d4ca23" />
    <path
       d="m 56.294,30.779 v -2.062 c 0,-0.596 -0.488,-1.084 -1.084,-1.084 h 12.296 v 3.146 z"
       id="path89"
       inkscape:connector-curvature="0"
       style="fill:#c34d70" />
    <path
       d="M 16.369,33.926 H 5.157 V 30.78 h 11.212 z"
       id="path91"
       inkscape:connector-curvature="0"
       style="fill:#d1792c" />
    <path
       d="m 16.369,33.927 v 2.061 c 0,0.596 0.488,1.084 1.084,1.084 H 5.156 v -3.143 h 11.212"
       id="path93"
       inkscape:connector-curvature="0"
       style="fill:#d4ca23" />
    <path
       d="m 16.369,30.779 v -2.062 c 0,-0.596 0.488,-1.084 1.084,-1.084 H 5.156 v 3.146 z"
       id="path95"
       inkscape:connector-curvature="0"
       style="fill:#c34d70" />
    <path
       d="m 7.321,18.315 h 6.884 v 6.884 H 7.321 Z"
       id="path97"
       inkscape:connector-curvature="0"
       style="fill:#d7d7cb" />
    <path
       d="M 11.278,19.514 12.955,24 h -1.024 l -0.34,-0.999 H 9.914 L 9.563,24 H 8.57 l 1.697,-4.486 z m 0.056,2.752 -0.565,-1.646 h -0.013 l -0.584,1.646 z"
       id="path99"
       inkscape:connector-curvature="0"
       style="fill:#15110f" />
    <path
       d="M 43.675,41.631 H 29.033 l 0.216,0.259 14.19,0.002 z"
       id="path101"
       inkscape:connector-curvature="0"
       style="fill:#dcd640" />
    <path
       d="m 44.016,41.223 -7.665,10e-4 -7.658,-10e-4 0.25,0.3 7.405,-0.002 7.418,0.002 z"
       id="path103"
       inkscape:connector-curvature="0"
       style="fill:#c57435" />
    <path
       d="m 44.354,40.816 h -16 l 0.248,0.298 7.749,-10e-4 7.755,10e-4 z"
       id="path105"
       inkscape:connector-curvature="0"
       style="fill:#b53535" />
    <path
       d="m 29.277,40.033 -0.223,-0.37 c -0.177,-0.26 -0.356,-0.374 -0.657,-0.374 H 27.69 l -0.247,-0.331 h 1.15 l -0.198,-0.373 c 0,0 -0.832,-0.013 -1.23,0 a 0.256,0.256 0 0 0 -0.241,0.37 l 0.349,0.482 c 0.154,0.169 0.262,0.216 0.622,0.225 h 0.686 l 0.241,0.373 h -1.119 l 0.375,0.449 0.969,-0.004 c 0.286,-10e-4 0.294,-0.342 0.23,-0.447 z m -0.623,-1.447 1.078,1.894 h 0.436 l -0.436,-0.818 c 0,0 0.365,0.005 0.549,-0.007 0.318,0.007 0.434,-0.086 0.341,-0.364 l -0.149,-0.334 c -0.139,-0.278 -0.2,-0.352 -0.619,-0.372 h -1.2 z m 0.71,0.373 h 0.624 l 0.147,0.331 h -0.619 z m 3.15,1.521 -0.133,-0.442 c 0,0 -0.521,-0.008 -0.784,-0.003 -0.039,-0.091 -0.15,-0.373 -0.15,-0.373 h 0.785 L 32.13,39.293 h -0.814 l -0.15,-0.335 h 0.843 l -0.101,-0.376 -0.92,0.003 c -0.228,0 -0.361,0.233 -0.318,0.375 l 0.47,1.079 c 0.147,0.28 0.287,0.397 0.555,0.43 0.298,0.038 0.819,0.011 0.819,0.011 z m 0.608,-1.894 c 0,0 -0.364,-0.005 -0.6,0.005 -0.23,0.004 -0.385,0.176 -0.349,0.371 l 0.31,1.069 c 0.098,0.238 0.296,0.45 0.572,0.446 l 0.49,0.003 -0.083,-0.445 h -0.518 l -0.317,-1.076 h 0.568 z m 0.167,0.373 h 0.357 l 0.305,1.521 h 0.366 l -0.248,-1.521 h 0.279 l -0.047,-0.371 -1.084,-0.002 z m 2.46,0.703 c 0.17,0 0.369,-0.197 0.366,-0.354 -0.009,-0.116 -0.008,-0.239 -0.021,-0.35 -0.037,-0.239 -0.291,-0.368 -0.481,-0.372 -0.39,0.008 -1.174,0 -1.174,0 l 0.247,1.894 h 0.408 l -0.158,-1.521 h 0.708 l 0.004,0.331 h -0.179 c -0.254,0 -0.276,0.188 -0.166,0.369 0.191,0.296 0.599,0.825 0.599,0.825 h 0.502 c -0.001,0 -0.373,-0.449 -0.655,-0.822 z"
       id="path107"
       inkscape:connector-curvature="0"
       style="fill:#ffffff" />
    <path
       d="m 36.408,38.551 -0.082,1.929 0.416,0.004 -10e-4,-0.449 h 0.572 l -0.02,0.45 0.379,-10e-4 c 0,0 0.142,-0.726 0.139,-1.19 0.011,-0.41 -0.289,-0.708 -0.707,-0.738 -0.231,-0.008 -0.696,-0.005 -0.696,-0.005 z m 0.952,0.739 0.007,0.333 -0.582,-0.003 -0.012,-0.661 c 0.415,0 0.574,0.09 0.587,0.331 z m 1.194,1.158 c 0.236,-0.055 0.384,-0.238 0.543,-0.573 0.402,-0.848 0.604,-1.289 0.604,-1.289 H 39.25 l -0.628,1.328 c -0.057,0.094 -0.157,0.13 -0.261,0.121 0.08,-0.508 0.26,-1.449 0.26,-1.449 h -0.446 c 0,0 -0.299,1.801 -0.299,1.898 -10e-4,0.003 0.488,0.008 0.678,-0.036 z m 1.8,-1.862 -0.514,0.002 -0.547,1.896 0.483,-0.002 z m 0.263,0.002 -0.6,1.896 h 1.007 c 0.298,0 0.656,-0.456 0.656,-0.456 l 0.519,-1.078 c 0.118,-0.267 -0.068,-0.364 -0.358,-0.359 -0.418,-0.005 -1.224,-0.003 -1.224,-0.003 z m 1.051,0.371 -0.419,1.076 c 0,0 -0.394,-0.004 -0.591,0 l 0.338,-1.076 z m 1.526,1.076 h -0.821 l 0.18,-0.372 h 0.886 l 0.18,-0.373 h -0.873 l 0.175,-0.331 0.937,10e-4 0.19,-0.373 c 0,0 -0.663,-0.014 -1.045,0.012 -0.304,0.028 -0.515,0.191 -0.59,0.365 l -0.501,1.076 c -0.139,0.287 0.045,0.433 0.205,0.438 0.295,0.009 0.856,0.006 0.856,0.006 z m 1.522,-1.44 c -0.324,0.015 -0.5,0.141 -0.663,0.358 -0.215,0.286 -0.672,1.088 -0.672,1.088 -0.19,0.368 0.08,0.428 0.294,0.437 l 0.538,0.002 c 0.241,-0.005 0.291,-0.024 0.406,-0.092 0.06,-0.035 0.188,-0.174 0.338,-0.354 l 0.78,-1.073 c 0.107,-0.147 -0.096,-0.374 -0.299,-0.368 z m -0.159,0.364 h 0.708 l -0.762,1.076 h -0.651 z m 0.453,1.182 v 0.049 h 0.096 v 0.253 h 0.055 V 40.19 h 0.097 v -0.049 z m 0.351,0 -0.026,0.302 h 0.052 l 0.026,-0.197 0.073,0.197 h 0.041 l 0.071,-0.195 0.026,0.195 h 0.053 l -0.026,-0.302 h -0.064 l -0.08,0.218 -0.08,-0.218 z"
       id="path109"
       inkscape:connector-curvature="0"
       style="fill:#ffffff" />
    <g
       id="g113"
       style="fill:#c2c1b9">
      <path
         d="m 6.706,39.167 a 0.503,0.503 0 0 1 0.289,-0.269 0.562,0.562 0 0 1 0.406,0 0.503,0.503 0 0 1 0.333,0.486 0.516,0.516 0 0 1 -0.162,0.38 0.516,0.516 0 0 1 -0.171,0.105 0.575,0.575 0 0 1 -0.577,-0.105 0.518,0.518 0 0 1 -0.162,-0.38 c 0,-0.08 0.015,-0.152 0.044,-0.217 z m 0.129,0.382 a 0.393,0.393 0 0 0 0.209,0.215 0.396,0.396 0 0 0 0.432,-0.085 0.416,0.416 0 0 0 0.115,-0.295 0.425,0.425 0 0 0 -0.115,-0.295 0.395,0.395 0 0 0 -0.557,0 0.405,0.405 0 0 0 -0.084,0.13 0.444,0.444 0 0 0 0,0.33 z m 0.606,0.014 A 0.245,0.245 0 0 1 7.218,39.691 0.308,0.308 0 0 1 7.094,39.668 0.3,0.3 0 0 1 7,39.602 0.318,0.318 0 0 1 6.917,39.382 c 0,-0.045 0.007,-0.087 0.02,-0.125 a 0.265,0.265 0 0 1 0.152,-0.164 0.31,0.31 0 0 1 0.216,-0.01 0.235,0.235 0 0 1 0.161,0.202 H 7.359 A 0.121,0.121 0 0 0 7.309,39.209 0.157,0.157 0 0 0 7.215,39.18 c -0.053,0 -0.094,0.018 -0.122,0.055 -0.028,0.037 -0.042,0.085 -0.042,0.143 a 0.248,0.248 0 0 0 0.045,0.142 0.178,0.178 0 0 0 0.052,0.043 0.14,0.14 0 0 0 0.069,0.016 c 0.039,0 0.071,-0.01 0.096,-0.029 a 0.12,0.12 0 0 0 0.045,-0.08 h 0.113 a 0.248,0.248 0 0 1 -0.03,0.093 z m 1.053,0.32 V 39.249 H 8.248 V 39.1 A 0.472,0.472 0 0 0 8.348,39.093 0.222,0.222 0 0 0 8.5,39 0.22,0.22 0 0 0 8.535,38.906 h 0.158 v 0.978 H 8.494 Z m 0.707,-0.167 a 0.113,0.113 0 0 0 0.087,0.037 0.128,0.128 0 0 0 0.089,-0.032 0.215,0.215 0 0 0 0.056,-0.076 0.404,0.404 0 0 0 0.03,-0.097 0.935,0.935 0 0 0 0.012,-0.092 L 9.472,39.453 A 0.235,0.235 0 0 1 9.377,39.537 0.29,0.29 0 0 1 9.252,39.562 0.297,0.297 0 0 1 9.129,39.535 0.285,0.285 0 0 1 8.969,39.359 0.385,0.385 0 0 1 9.046,38.99 0.335,0.335 0 0 1 9.294,38.886 c 0.074,0 0.135,0.014 0.183,0.044 0.048,0.03 0.086,0.068 0.115,0.116 0.029,0.048 0.049,0.102 0.06,0.163 0.011,0.061 0.017,0.121 0.017,0.183 A 0.792,0.792 0 0 1 9.648,39.573 0.52,0.52 0 0 1 9.581,39.737 0.366,0.366 0 0 1 9.462,39.856 0.328,0.328 0 0 1 9.285,39.902 0.368,0.368 0 0 1 9.168,39.884 0.269,0.269 0 0 1 9.004,39.747 0.337,0.337 0 0 1 8.969,39.632 h 0.189 c 0.005,0.032 0.02,0.06 0.043,0.084 z M 9.368,39.397 A 0.135,0.135 0 0 0 9.417,39.357 0.162,0.162 0 0 0 9.446,39.3 0.261,0.261 0 0 0 9.456,39.231 0.196,0.196 0 0 0 9.445,39.164 0.185,0.185 0 0 0 9.414,39.105 0.147,0.147 0 0 0 9.298,39.048 a 0.123,0.123 0 0 0 -0.063,0.016 0.168,0.168 0 0 0 -0.048,0.04 0.17,0.17 0 0 0 -0.029,0.057 0.25,0.25 0 0 0 -10e-4,0.133 0.188,0.188 0 0 0 0.027,0.059 0.147,0.147 0 0 0 0.047,0.042 0.13,0.13 0 0 0 0.066,0.016 0.141,0.141 0 0 0 0.071,-0.014 z m 0.419,-0.361 a 0.277,0.277 0 0 1 0.076,-0.084 0.334,0.334 0 0 1 0.106,-0.05 0.432,0.432 0 0 1 0.272,0.012 c 0.042,0.018 0.076,0.041 0.101,0.067 a 0.248,0.248 0 0 1 0.072,0.167 0.233,0.233 0 0 1 -0.035,0.127 0.193,0.193 0 0 1 -0.107,0.078 v 0.003 c 0.059,0.013 0.104,0.041 0.136,0.083 0.032,0.042 0.047,0.094 0.047,0.155 a 0.293,0.293 0 0 1 -0.031,0.136 0.293,0.293 0 0 1 -0.083,0.095 c -0.034,0.025 -0.074,0.044 -0.117,0.057 -0.043,0.013 -0.088,0.019 -0.134,0.019 A 0.533,0.533 0 0 1 9.952,39.883 0.37,0.37 0 0 1 9.833,39.828 0.284,0.284 0 0 1 9.749,39.733 0.28,0.28 0 0 1 9.717,39.596 c 0,-0.062 0.016,-0.115 0.048,-0.156 A 0.23,0.23 0 0 1 9.901,39.356 V 39.353 A 0.178,0.178 0 0 1 9.794,39.279 0.223,0.223 0 0 1 9.758,39.152 c 0,-0.043 0.01,-0.082 0.029,-0.116 z m 0.143,0.619 a 0.15,0.15 0 0 0 0.037,0.052 0.19,0.19 0 0 0 0.188,0.033 0.153,0.153 0 0 0 0.089,-0.085 0.181,0.181 0 0 0 -10e-4,-0.13 0.15,0.15 0 0 0 -0.089,-0.082 0.197,0.197 0 0 0 -0.188,0.028 0.14,0.14 0 0 0 -0.05,0.115 c 0,0.026 0.004,0.048 0.014,0.069 z m 0.053,-0.389 a 0.17,0.17 0 0 0 0.105,0.033 c 0.042,0 0.077,-0.011 0.105,-0.033 0.028,-0.022 0.042,-0.054 0.042,-0.095 A 0.17,0.17 0 0 0 10.229,39.128 0.119,0.119 0 0 0 10.208,39.084 0.124,0.124 0 0 0 10.163,39.049 0.176,0.176 0 0 0 10.088,39.035 0.18,0.18 0 0 0 10.031,39.044 0.159,0.159 0 0 0 9.983,39.07 0.114,0.114 0 0 0 9.95,39.112 0.132,0.132 0 0 0 9.938,39.171 c 0,0.041 0.015,0.073 0.045,0.095 z m 0.878,0.034 a 0.206,0.206 0 0 0 0.067,-0.016 0.133,0.133 0 0 0 0.052,-0.038 0.105,0.105 0 0 0 0.02,-0.067 0.118,0.118 0 0 0 -0.042,-0.097 0.151,0.151 0 0 0 -0.096,-0.033 0.137,0.137 0 0 0 -0.114,0.05 0.19,0.19 0 0 0 -0.037,0.125 h -0.189 a 0.422,0.422 0 0 1 0.027,-0.137 0.3,0.3 0 0 1 0.174,-0.176 0.395,0.395 0 0 1 0.359,0.044 0.28,0.28 0 0 1 0.076,0.085 0.23,0.23 0 0 1 0.029,0.116 0.225,0.225 0 0 1 -0.034,0.125 0.169,0.169 0 0 1 -0.103,0.074 v 0.003 a 0.213,0.213 0 0 1 0.127,0.078 c 0.031,0.04 0.046,0.088 0.046,0.144 a 0.296,0.296 0 0 1 -0.11,0.237 0.347,0.347 0 0 1 -0.116,0.061 0.446,0.446 0 0 1 -0.137,0.021 0.445,0.445 0 0 1 -0.15,-0.024 0.304,0.304 0 0 1 -0.188,-0.18 0.396,0.396 0 0 1 -0.024,-0.151 h 0.189 a 0.262,0.262 0 0 0 0.013,0.075 0.169,0.169 0 0 0 0.084,0.103 c 0.021,0.01 0.046,0.015 0.075,0.015 a 0.165,0.165 0 0 0 0.113,-0.041 0.143,0.143 0 0 0 0.046,-0.112 c 0,-0.037 -0.007,-0.065 -0.021,-0.085 -0.014,-0.02 -0.033,-0.034 -0.055,-0.043 A 0.216,0.216 0 0 0 10.869,39.441 L 10.793,39.439 V 39.3 a 0.386,0.386 0 0 0 0.068,0 z m 1.042,0.337 a 0.154,0.154 0 0 0 0.048,0.056 c 0.02,0.015 0.044,0.025 0.071,0.033 a 0.333,0.333 0 0 0 0.147,0.005 0.23,0.23 0 0 0 0.063,-0.019 0.14,0.14 0 0 0 0.049,-0.038 0.096,0.096 0 0 0 0.019,-0.062 0.09,0.09 0 0 0 -0.026,-0.066 0.213,0.213 0 0 0 -0.068,-0.042 0.669,0.669 0 0 0 -0.095,-0.029 c -0.035,-0.008 -0.071,-0.018 -0.107,-0.028 -0.037,-0.01 -0.074,-0.02 -0.109,-0.034 a 0.413,0.413 0 0 1 -0.095,-0.052 0.252,0.252 0 0 1 -0.068,-0.08 0.247,0.247 0 0 1 -0.026,-0.117 0.26,0.26 0 0 1 0.033,-0.133 0.29,0.29 0 0 1 0.086,-0.095 0.347,0.347 0 0 1 0.12,-0.055 0.57,0.57 0 0 1 0.284,0 c 0.048,0.012 0.09,0.03 0.127,0.056 a 0.295,0.295 0 0 1 0.089,0.1 c 0.022,0.04 0.033,0.089 0.033,0.147 H 12.266 A 0.17,0.17 0 0 0 12.247,39.11 0.127,0.127 0 0 0 12.204,39.064 C 12.186,39.052 12.166,39.045 12.143,39.04 a 0.354,0.354 0 0 0 -0.128,-0.002 0.114,0.114 0 0 0 -0.048,0.02 0.1,0.1 0 0 0 -0.036,0.035 0.095,0.095 0 0 0 -0.014,0.053 c 0,0.019 0.004,0.035 0.011,0.047 0.007,0.012 0.022,0.023 0.044,0.033 0.022,0.01 0.052,0.02 0.091,0.031 a 6.383,6.383 0 0 0 0.229,0.06 0.316,0.316 0 0 1 0.184,0.132 0.244,0.244 0 0 1 0.035,0.138 0.298,0.298 0 0 1 -0.027,0.127 0.279,0.279 0 0 1 -0.079,0.102 0.388,0.388 0 0 1 -0.13,0.066 0.655,0.655 0 0 1 -0.34,0.004 0.44,0.44 0 0 1 -0.137,-0.063 0.304,0.304 0 0 1 -0.094,-0.11 0.328,0.328 0 0 1 -0.034,-0.159 h 0.212 a 0.236,0.236 0 0 0 0.021,0.083 z m 1.188,-0.751 a 0.42,0.42 0 0 1 0.159,0.027 0.297,0.297 0 0 1 0.107,0.072 c 0.027,0.03 0.047,0.064 0.06,0.102 a 0.366,0.366 0 0 1 0,0.237 0.284,0.284 0 0 1 -0.167,0.174 0.42,0.42 0 0 1 -0.159,0.027 h -0.23 v 0.357 h -0.219 v -0.997 h 0.449 z m -0.06,0.469 a 0.584,0.584 0 0 0 0.073,-0.005 0.17,0.17 0 0 0 0.062,-0.022 0.127,0.127 0 0 0 0.043,-0.046 0.153,0.153 0 0 0 0.016,-0.076 0.157,0.157 0 0 0 -0.016,-0.077 0.11,0.11 0 0 0 -0.043,-0.045 0.17,0.17 0 0 0 -0.062,-0.022 0.426,0.426 0 0 0 -0.073,-0.005 h -0.17 v 0.299 h 0.17 z m 1.287,-0.469 v 0.184 h -0.526 v 0.213 h 0.483 v 0.17 h -0.483 v 0.245 h 0.538 v 0.184 h -0.757 v -0.997 h 0.745 z m 0.799,0.266 a 0.225,0.225 0 0 0 -0.193,-0.106 0.254,0.254 0 0 0 -0.125,0.029 0.248,0.248 0 0 0 -0.084,0.077 0.352,0.352 0 0 0 -0.047,0.11 0.532,0.532 0 0 0 0,0.249 c 0.01,0.04 0.025,0.075 0.047,0.107 a 0.237,0.237 0 0 0 0.209,0.105 c 0.067,0 0.12,-0.02 0.157,-0.061 A 0.28,0.28 0 0 0 15.15,39.5 h 0.212 a 0.5,0.5 0 0 1 -0.043,0.169 0.388,0.388 0 0 1 -0.226,0.209 0.522,0.522 0 0 1 -0.375,-0.012 0.453,0.453 0 0 1 -0.25,-0.273 0.609,0.609 0 0 1 -0.033,-0.203 c 0,-0.074 0.011,-0.144 0.033,-0.207 a 0.447,0.447 0 0 1 0.25,-0.279 0.505,0.505 0 0 1 0.206,-0.04 0.5,0.5 0 0 1 0.156,0.024 c 0.049,0.016 0.093,0.039 0.131,0.069 a 0.373,0.373 0 0 1 0.143,0.265 h -0.212 a 0.177,0.177 0 0 0 -0.025,-0.07 z m 0.317,-0.082 v -0.184 h 0.817 v 0.184 h -0.299 v 0.813 H 15.733 V 39.07 Z m 1.469,-0.184 a 0.293,0.293 0 0 1 0.213,0.081 0.258,0.258 0 0 1 0.079,0.193 c 0,0.059 -0.013,0.11 -0.037,0.152 a 0.232,0.232 0 0 1 -0.121,0.098 v 0.003 a 0.17,0.17 0 0 1 0.11,0.089 0.297,0.297 0 0 1 0.025,0.069 0.632,0.632 0 0 1 0.014,0.132 c 0.001,0.021 0.002,0.043 0.005,0.065 a 0.393,0.393 0 0 0 0.011,0.063 0.15,0.15 0 0 0 0.023,0.051 H 17.006 A 0.366,0.366 0 0 1 16.984,39.769 1.55,1.55 0 0 0 16.971,39.644 0.198,0.198 0 0 0 16.924,39.529 C 16.9,39.504 16.86,39.493 16.805,39.493 h -0.219 v 0.389 h -0.219 v -0.997 h 0.536 z m -0.079,0.45 c 0.05,0 0.088,-0.011 0.113,-0.033 0.025,-0.022 0.038,-0.059 0.038,-0.109 0,-0.048 -0.013,-0.083 -0.038,-0.105 -0.025,-0.022 -0.063,-0.033 -0.113,-0.033 h -0.24 v 0.28 z m 1.046,-0.45 0.373,0.997 H 18.016 L 17.94,39.66 h -0.373 l -0.078,0.222 h -0.221 l 0.377,-0.997 h 0.225 z m 0.013,0.611 -0.126,-0.366 h -0.003 l -0.13,0.366 z m 0.599,0.386 -0.323,-0.997 h 0.225 l 0.222,0.701 h 0.003 l 0.225,-0.701 h 0.226 l -0.331,0.997 z m 0.882,-0.997 v 0.997 h -0.219 v -0.997 z m 0.623,0 c 0.064,0 0.124,0.01 0.18,0.031 a 0.39,0.39 0 0 1 0.239,0.245 0.618,0.618 0 0 1 0.034,0.217 0.683,0.683 0 0 1 -0.028,0.201 0.404,0.404 0 0 1 -0.225,0.265 0.487,0.487 0 0 1 -0.199,0.038 h -0.43 v -0.997 z m -0.015,0.812 a 0.262,0.262 0 0 0 0.092,-0.016 0.196,0.196 0 0 0 0.08,-0.051 0.256,0.256 0 0 0 0.056,-0.093 0.572,0.572 0 0 0 0.006,-0.276 0.27,0.27 0 0 0 -0.048,-0.104 0.206,0.206 0 0 0 -0.089,-0.066 0.342,0.342 0 0 0 -0.136,-0.023 h -0.156 v 0.629 z m 1.365,-0.812 v 0.184 h -0.526 v 0.213 h 0.483 v 0.17 h -0.483 v 0.245 h 0.538 v 0.184 h -0.757 v -0.997 h 0.745 z m 0.15,0.295 a 0.447,0.447 0 0 1 0.25,-0.279 0.505,0.505 0 0 1 0.206,-0.04 0.453,0.453 0 0 1 0.456,0.319 0.628,0.628 0 0 1 0.033,0.207 c 0,0.073 -0.011,0.14 -0.033,0.203 a 0.459,0.459 0 0 1 -0.456,0.313 0.522,0.522 0 0 1 -0.206,-0.04 0.453,0.453 0 0 1 -0.25,-0.273 0.609,0.609 0 0 1 -0.033,-0.203 0.58,0.58 0 0 1 0.033,-0.207 z m 0.2,0.329 c 0.01,0.04 0.025,0.075 0.047,0.107 a 0.237,0.237 0 0 0 0.209,0.105 0.26,0.26 0 0 0 0.126,-0.029 0.236,0.236 0 0 0 0.084,-0.076 C 22.174,39.585 22.19,39.55 22.2,39.51 a 0.497,0.497 0 0 0 -0.047,-0.359 0.23,0.23 0 0 0 -0.084,-0.077 0.255,0.255 0 0 0 -0.126,-0.029 0.254,0.254 0 0 0 -0.125,0.029 0.248,0.248 0 0 0 -0.084,0.077 0.352,0.352 0 0 0 -0.047,0.11 0.532,0.532 0 0 0 0,0.249 z M 6.956,40.562 v 0.997 h -0.22 v -0.997 z m 0.41,0 0.416,0.669 H 7.785 V 40.562 H 7.99 v 0.997 H 7.77 L 7.355,40.892 H 7.353 v 0.667 H 7.148 v -0.997 z m 0.738,0.184 v -0.184 h 0.817 v 0.184 H 8.623 v 0.813 h -0.22 v -0.813 z m 1.678,-0.184 v 0.184 H 9.255 v 0.213 h 0.483 v 0.17 H 9.255 v 0.245 h 0.538 v 0.184 H 9.036 v -0.997 h 0.746 z m 0.696,0 a 0.293,0.293 0 0 1 0.213,0.081 0.258,0.258 0 0 1 0.079,0.193 c 0,0.059 -0.013,0.11 -0.037,0.152 a 0.232,0.232 0 0 1 -0.121,0.098 v 0.003 a 0.17,0.17 0 0 1 0.11,0.089 0.297,0.297 0 0 1 0.025,0.069 0.632,0.632 0 0 1 0.014,0.132 c 0.001,0.021 0.002,0.043 0.005,0.065 a 0.393,0.393 0 0 0 0.011,0.063 0.15,0.15 0 0 0 0.023,0.051 H 10.58 A 0.366,0.366 0 0 1 10.558,41.445 1.55,1.55 0 0 0 10.545,41.32 0.198,0.198 0 0 0 10.498,41.205 C 10.474,41.18 10.434,41.169 10.379,41.169 H 10.16 v 0.389 H 9.941 v -0.997 h 0.537 z m -0.078,0.45 c 0.05,0 0.088,-0.011 0.113,-0.033 0.025,-0.022 0.038,-0.059 0.038,-0.109 0,-0.048 -0.013,-0.083 -0.038,-0.105 C 10.488,40.743 10.45,40.732 10.4,40.732 h -0.24 v 0.28 z m 0.767,-0.45 0.416,0.669 h 0.003 v -0.669 h 0.206 v 0.997 h -0.22 l -0.415,-0.667 h -0.003 v 0.667 h -0.205 v -0.997 z m 1.314,0 0.373,0.997 H 12.627 L 12.552,41.337 H 12.179 L 12.1,41.558 h -0.221 l 0.377,-0.997 h 0.225 z m 0.012,0.611 -0.126,-0.366 h -0.003 l -0.13,0.366 z m 0.24,-0.427 v -0.184 h 0.817 v 0.184 h -0.299 v 0.813 h -0.219 v -0.813 z m 1.151,-0.184 v 0.997 h -0.219 v -0.997 z m 0.183,0.295 a 0.447,0.447 0 0 1 0.25,-0.279 0.505,0.505 0 0 1 0.206,-0.04 0.453,0.453 0 0 1 0.456,0.319 0.628,0.628 0 0 1 0.033,0.207 c 0,0.073 -0.011,0.14 -0.033,0.203 a 0.459,0.459 0 0 1 -0.456,0.313 0.522,0.522 0 0 1 -0.206,-0.04 0.453,0.453 0 0 1 -0.25,-0.273 0.609,0.609 0 0 1 -0.033,-0.203 0.58,0.58 0 0 1 0.033,-0.207 z m 0.2,0.329 c 0.01,0.04 0.025,0.075 0.047,0.107 a 0.237,0.237 0 0 0 0.209,0.105 0.26,0.26 0 0 0 0.126,-0.029 0.236,0.236 0 0 0 0.084,-0.076 0.345,0.345 0 0 0 0.047,-0.107 0.497,0.497 0 0 0 -0.047,-0.359 0.23,0.23 0 0 0 -0.084,-0.077 0.255,0.255 0 0 0 -0.126,-0.029 0.254,0.254 0 0 0 -0.125,0.029 0.248,0.248 0 0 0 -0.084,0.077 0.352,0.352 0 0 0 -0.047,0.11 0.532,0.532 0 0 0 0,0.249 z m 1.114,-0.624 0.416,0.669 H 15.8 v -0.669 h 0.206 v 0.997 h -0.22 l -0.415,-0.667 h -0.003 v 0.667 h -0.205 v -0.997 z m 1.314,0 0.373,0.997 H 16.84 l -0.075,-0.222 h -0.373 l -0.078,0.222 h -0.221 l 0.377,-0.997 z m 0.012,0.611 -0.126,-0.366 h -0.003 l -0.13,0.366 z m 0.666,-0.611 v 0.813 h 0.486 v 0.184 h -0.705 v -0.997 z m 1.217,0 v 0.813 h 0.486 v 0.184 H 18.37 v -0.997 z m 0.402,0.184 v -0.184 h 0.817 v 0.184 H 19.51 v 0.813 h -0.22 v -0.813 z m 1.361,-0.184 c 0.064,0 0.124,0.01 0.18,0.031 a 0.39,0.39 0 0 1 0.239,0.245 0.618,0.618 0 0 1 0.034,0.217 0.683,0.683 0 0 1 -0.028,0.201 0.404,0.404 0 0 1 -0.225,0.265 0.487,0.487 0 0 1 -0.199,0.038 h -0.43 v -0.997 z m -0.016,0.812 a 0.262,0.262 0 0 0 0.092,-0.016 0.196,0.196 0 0 0 0.08,-0.051 c 0.023,-0.023 0.042,-0.055 0.056,-0.093 0.014,-0.038 0.021,-0.085 0.021,-0.14 a 0.572,0.572 0 0 0 -0.015,-0.136 0.27,0.27 0 0 0 -0.048,-0.104 0.206,0.206 0 0 0 -0.089,-0.066 0.342,0.342 0 0 0 -0.136,-0.023 h -0.156 v 0.629 z m 0.827,-0.03 v 0.215 h -0.219 v -0.215 z"
         id="path111"
         inkscape:connector-curvature="0" />
    </g>
    <g
       id="g117"
       style="fill:#c2c1b9">
      <path
         d="m 66.417,26.131 a 0.239,0.239 0 0 0 0.085,-0.072 0.333,0.333 0 0 0 0.048,-0.106 0.473,0.473 0 0 0 0.016,-0.126 0.632,0.632 0 0 0 -0.007,-0.094 0.347,0.347 0 0 0 -0.028,-0.095 0.207,0.207 0 0 0 -0.058,-0.073 0.146,0.146 0 0 0 -0.093,-0.029 0.129,0.129 0 0 0 -0.098,0.039 0.323,0.323 0 0 0 -0.063,0.101 c -0.016,0.042 -0.031,0.09 -0.044,0.143 a 5.484,5.484 0 0 1 -0.042,0.161 1.47,1.47 0 0 1 -0.051,0.163 0.536,0.536 0 0 1 -0.079,0.143 0.37,0.37 0 0 1 -0.12,0.102 0.365,0.365 0 0 1 -0.175,0.039 0.388,0.388 0 0 1 -0.2,-0.049 0.439,0.439 0 0 1 -0.142,-0.129 0.573,0.573 0 0 1 -0.084,-0.18 0.772,0.772 0 0 1 -0.027,-0.201 c 0,-0.078 0.009,-0.153 0.026,-0.225 a 0.557,0.557 0 0 1 0.085,-0.192 0.427,0.427 0 0 1 0.371,-0.182 v 0.318 a 0.265,0.265 0 0 0 -0.111,0.029 0.178,0.178 0 0 0 -0.069,0.064 0.262,0.262 0 0 0 -0.035,0.091 0.56,0.56 0 0 0 -0.011,0.112 0.37,0.37 0 0 0 0.009,0.08 c 0.005,0.026 0.015,0.05 0.029,0.072 a 0.202,0.202 0 0 0 0.052,0.053 0.142,0.142 0 0 0 0.08,0.021 c 0.03,0 0.053,-0.005 0.071,-0.017 a 0.146,0.146 0 0 0 0.05,-0.066 0.813,0.813 0 0 0 0.046,-0.136 l 0.059,-0.227 c 0.005,-0.028 0.016,-0.067 0.03,-0.116 a 0.578,0.578 0 0 1 0.07,-0.147 0.447,0.447 0 0 1 0.129,-0.127 0.37,0.37 0 0 1 0.206,-0.053 0.47,0.47 0 0 1 0.191,0.04 c 0.059,0.027 0.11,0.066 0.152,0.118 a 0.56,0.56 0 0 1 0.1,0.195 0.914,0.914 0 0 1 0.035,0.269 c 0,0.082 -0.01,0.162 -0.031,0.24 a 0.595,0.595 0 0 1 -0.095,0.205 0.463,0.463 0 0 1 -0.404,0.192 v -0.318 a 0.32,0.32 0 0 0 0.127,-0.03 z M 65.29,24.378 c 0,-0.096 0.015,-0.186 0.046,-0.269 a 0.597,0.597 0 0 1 0.368,-0.358 0.936,0.936 0 0 1 0.325,-0.051 c 0.109,0 0.209,0.014 0.302,0.042 a 0.66,0.66 0 0 1 0.239,0.127 c 0.067,0.056 0.12,0.127 0.158,0.211 0.038,0.084 0.058,0.184 0.058,0.298 v 0.645 H 65.29 Z m 1.219,0.023 a 0.425,0.425 0 0 0 -0.023,-0.138 0.303,0.303 0 0 0 -0.076,-0.119 0.384,0.384 0 0 0 -0.14,-0.084 0.608,0.608 0 0 0 -0.209,-0.032 0.85,0.85 0 0 0 -0.204,0.022 0.423,0.423 0 0 0 -0.156,0.072 0.326,0.326 0 0 0 -0.099,0.133 0.53,0.53 0 0 0 -0.034,0.204 v 0.235 h 0.943 v -0.293 z"
         id="path115"
         inkscape:connector-curvature="0" />
    </g>
    <g
       id="g127">
      <circle
         cx="3.0829999"
         cy="14.597"
         r="1.284"
         id="circle119"
         style="fill:#989381" />
      <g
         id="g125"
         style="fill:#6c6756">
        <path
           d="M 3.186,15.571 H 2.979 A 0.118,0.118 0 0 1 2.861,15.453 V 13.74 c 0,-0.065 0.053,-0.118 0.118,-0.118 h 0.207 c 0.065,0 0.118,0.053 0.118,0.118 v 1.713 a 0.118,0.118 0 0 1 -0.118,0.118 z"
           id="path121"
           inkscape:connector-curvature="0" />
        <path
           d="M 4.057,14.493 V 14.7 A 0.118,0.118 0 0 1 3.939,14.818 H 2.226 A 0.118,0.118 0 0 1 2.108,14.7 v -0.207 c 0,-0.065 0.053,-0.118 0.118,-0.118 h 1.713 c 0.065,0 0.118,0.053 0.118,0.118 z"
           id="path123"
           inkscape:connector-curvature="0" />
      </g>
    </g>
    <g
       id="g137">
      <circle
         cx="3.0829999"
         cy="54.380001"
         r="1.284"
         id="circle129"
         style="fill:#989381" />
      <g
         id="g135"
         style="fill:#6c6756">
        <path
           d="M 3.186,53.406 H 2.979 a 0.118,0.118 0 0 0 -0.118,0.118 v 1.713 c 0,0.065 0.053,0.118 0.118,0.118 H 3.186 A 0.118,0.118 0 0 0 3.304,55.237 V 53.524 A 0.118,0.118 0 0 0 3.186,53.406 Z"
           id="path131"
           inkscape:connector-curvature="0" />
        <path
           d="M 4.057,54.484 V 54.277 A 0.118,0.118 0 0 0 3.939,54.159 H 2.226 a 0.118,0.118 0 0 0 -0.118,0.118 v 0.207 c 0,0.065 0.053,0.118 0.118,0.118 h 1.713 a 0.118,0.118 0 0 0 0.118,-0.118 z"
           id="path133"
           inkscape:connector-curvature="0" />
      </g>
    </g>
    <g
       id="g147">
      <circle
         cx="69.535004"
         cy="54.380001"
         r="1.284"
         id="circle139"
         style="fill:#989381" />
      <g
         id="g145"
         style="fill:#6c6756">
        <path
           d="m 69.432,53.406 h 0.207 c 0.065,0 0.118,0.053 0.118,0.118 v 1.713 a 0.118,0.118 0 0 1 -0.118,0.118 h -0.207 a 0.118,0.118 0 0 1 -0.118,-0.118 v -1.713 a 0.118,0.118 0 0 1 0.118,-0.118 z"
           id="path141"
           inkscape:connector-curvature="0" />
        <path
           d="m 68.56,54.484 v -0.207 c 0,-0.065 0.053,-0.118 0.118,-0.118 h 1.713 c 0.065,0 0.118,0.053 0.118,0.118 v 0.207 a 0.118,0.118 0 0 1 -0.118,0.118 H 68.678 A 0.119,0.119 0 0 1 68.56,54.484 Z"
           id="path143"
           inkscape:connector-curvature="0" />
      </g>
    </g>
    <g
       id="g157">
      <circle
         cx="69.535004"
         cy="14.597"
         r="1.284"
         id="circle149"
         style="fill:#989381" />
      <g
         id="g155"
         style="fill:#6c6756">
        <path
           d="m 69.432,15.571 h 0.207 a 0.118,0.118 0 0 0 0.118,-0.118 V 13.74 a 0.118,0.118 0 0 0 -0.118,-0.118 h -0.207 a 0.118,0.118 0 0 0 -0.118,0.118 v 1.713 a 0.118,0.118 0 0 0 0.118,0.118 z"
           id="path151"
           inkscape:connector-curvature="0" />
        <path
           d="M 68.56,14.493 V 14.7 c 0,0.065 0.053,0.118 0.118,0.118 h 1.713 A 0.118,0.118 0 0 0 70.509,14.7 v -0.207 a 0.118,0.118 0 0 0 -0.118,-0.118 h -1.713 a 0.119,0.119 0 0 0 -0.118,0.118 z"
           id="path153"
           inkscape:connector-curvature="0" />
      </g>
    </g>
    <g
       id="g167">
      <circle
         cx="36.332001"
         cy="49.101002"
         r="1.284"
         id="circle159"
         style="fill:#989381" />
      <g
         id="g165"
         style="fill:#6c6756">
        <path
           d="m 36.229,48.126 h 0.207 c 0.065,0 0.118,0.053 0.118,0.118 v 1.713 a 0.118,0.118 0 0 1 -0.118,0.118 h -0.207 a 0.118,0.118 0 0 1 -0.118,-0.118 v -1.713 c 0,-0.065 0.053,-0.118 0.118,-0.118 z"
           id="path161"
           inkscape:connector-curvature="0" />
        <path
           d="m 35.358,49.204 v -0.207 c 0,-0.065 0.053,-0.118 0.118,-0.118 h 1.713 c 0.065,0 0.118,0.053 0.118,0.118 v 0.207 a 0.118,0.118 0 0 1 -0.118,0.118 h -1.713 a 0.118,0.118 0 0 1 -0.118,-0.118 z"
           id="path163"
           inkscape:connector-curvature="0" />
      </g>
    </g>
  </g>
</svg>
