<?xml version="1.0" encoding="UTF-8" standalone="no"?>
<svg
   xmlns:dc="http://purl.org/dc/elements/1.1/"
   xmlns:cc="http://creativecommons.org/ns#"
   xmlns:rdf="http://www.w3.org/1999/02/22-rdf-syntax-ns#"
   xmlns:svg="http://www.w3.org/2000/svg"
   xmlns="http://www.w3.org/2000/svg"
   xmlns:sodipodi="http://sodipodi.sourceforge.net/DTD/sodipodi-0.dtd"
   xmlns:inkscape="http://www.inkscape.org/namespaces/inkscape"
   viewBox="0 0 30 30"
   version="1.1"
   id="svg10"
   sodipodi:docname="icon_filled.svg"
   inkscape:version="0.92.4 5da689c313, 2019-01-14">
  <metadata
     id="metadata16">
    <rdf:RDF>
      <cc:Work
         rdf:about="">
        <dc:format>image/svg+xml</dc:format>
        <dc:type
           rdf:resource="http://purl.org/dc/dcmitype/StillImage" />
      </cc:Work>
    </rdf:RDF>
  </metadata>
  <defs
     id="defs14" />
  <sodipodi:namedview
     pagecolor="#ffffff"
     bordercolor="#666666"
     borderopacity="1"
     objecttolerance="10"
     gridtolerance="10"
     guidetolerance="10"
     inkscape:pageopacity="0"
     inkscape:pageshadow="2"
     inkscape:window-width="640"
     inkscape:window-height="480"
     id="namedview12"
     showgrid="false"
     inkscape:zoom="7.8666667"
     inkscape:cx="15"
     inkscape:cy="15"
     inkscape:window-x="0"
     inkscape:window-y="0"
     inkscape:window-maximized="0"
     inkscape:current-layer="svg10">
    <inkscape:grid
       type="xygrid"
       id="grid823" />
  </sodipodi:namedview>
  <path
     d="M13.799 27.826h-2v-4.844a.565.565 0 1 0-1.132 0v5.176l-.352.352a.573.573 0 0 0 0 .8c.22.221.577.222.798.002l.002-.002.372-.376.888.896c.22.221.577.222.798.002l.002-.002a.573.573 0 0 0 0-.8l-.068-.068h.692a.567.567 0 1 0 0-1.136zM19.251 27.826h-2v-4.844a.565.565 0 1 0-1.132 0v5.176l-.352.356a.568.568 0 1 0 .8.804l.372-.376.86.892c.22.221.577.222.798.002l.002-.002a.573.573 0 0 0 0-.8l-.068-.068h.7a.567.567 0 1 0 0-1.136l.02-.004z"
     fill="#87613e"
     id="path2" />
  <path
     d="M8.852 9.694c4.483-13.891 20.215-11.963 19.271.132C24.543 29.402 1.956 23.766 0 15.61c.42-.796 7.308-.584 8.852-5.916z"
     fill="#ffd900"
     id="path4" />
  <path
     d="M16.051 12.902l.092.16S7.467 22.318 2.38 8.778c11.959-1.748 13.671 4.124 13.671 4.124zM29.799 4.703s-2.904 1.632-3.2 2.096a.933.933 0 0 0 .048 1.256c.716.708 3.364 1.484 3.364 1.484L28.939 7.31l.86-2.607z"
     fill="#ffa400"
     id="path6" />
  <ellipse
     cx="22.419"
     cy="6.875"
     rx="1.008"
     ry="1.012"
     fill="#444"
     id="ellipse8" />
</svg>
