<?xml version="1.0" encoding="UTF-8" standalone="no"?>
<svg
   xmlns:dc="http://purl.org/dc/elements/1.1/"
   xmlns:cc="http://creativecommons.org/ns#"
   xmlns:rdf="http://www.w3.org/1999/02/22-rdf-syntax-ns#"
   xmlns:svg="http://www.w3.org/2000/svg"
   xmlns="http://www.w3.org/2000/svg"
   xmlns:sodipodi="http://sodipodi.sourceforge.net/DTD/sodipodi-0.dtd"
   xmlns:inkscape="http://www.inkscape.org/namespaces/inkscape"
   viewBox="0 0 167.104 280.15573"
   version="1.1"
   id="svg168"
   sodipodi:docname="controller.svg"
   width="167.104"
   height="280.15573"
   inkscape:version="0.92.4 5da689c313, 2019-01-14">
  <metadata
     id="metadata174">
    <rdf:RDF>
      <cc:Work
         rdf:about="">
        <dc:format>image/svg+xml</dc:format>
        <dc:type
           rdf:resource="http://purl.org/dc/dcmitype/StillImage" />
      </cc:Work>
    </rdf:RDF>
  </metadata>
  <defs
     id="defs172" />
  <sodipodi:namedview
     pagecolor="#ffffff"
     bordercolor="#666666"
     borderopacity="1"
     objecttolerance="10"
     gridtolerance="10"
     guidetolerance="10"
     inkscape:pageopacity="0"
     inkscape:pageshadow="2"
     inkscape:window-width="640"
     inkscape:window-height="480"
     id="namedview170"
     showgrid="false"
     inkscape:zoom="0.84238779"
     inkscape:cx="83.552002"
     inkscape:cy="140.07786"
     inkscape:window-x="0"
     inkscape:window-y="0"
     inkscape:window-maximized="0"
     inkscape:current-layer="svg168">
    <inkscape:grid
       type="xygrid"
       id="grid981"
       originx="0"
       originy="-0.0001381888" />
  </sodipodi:namedview>
  <path
     d="m 125.26,140.07787 c 0,0 14.875,1.664 19.707,-13.46 5.025,-15.726 8.126,-22.204 22.137,-22.204"
     stroke-miterlimit="10"
     id="path2"
     inkscape:connector-curvature="0"
     style="fill:none;stroke:#b2b3b9;stroke-width:8.09899998;stroke-miterlimit:10" />
  <path
     d="m 52.372,279.66987 c 19.707,-1.912 39.954,-10.381 49.402,-15.025 9.449,-4.644 12.148,-13.659 12.148,-13.659 0,0 4.319,-13.386 8.639,-45.62 4.32,-32.234 4.319,-65.289 4.319,-65.289 0,0 0,-33.054 -4.319,-65.289002 -4.319,-32.235 -8.639,-45.62 -8.639,-45.62 0,0 -2.7,-9.015 -12.148,-13.659 C 92.326,10.864868 72.079,2.3978677 52.372,0.48586767 32.665,-1.4261323 24.566,2.3978677 15.388,10.319868 c -9.178,7.922 -10.529,19.122 -11.339,24.859 -0.81,5.737 -4.049,51.903 -4.049,51.903 0,0 0.27,4.371 2.97,6.556 2.7,2.185 8.099,8.468002 10.258,14.478002 2.159,6.01 2.97,31.961 2.97,31.961 0,0 -0.81,25.952 -2.97,31.961 -2.16,6.01 -7.559,12.293 -10.258,14.478 -2.699,2.185 -2.97,6.558 -2.97,6.558 0,0 3.239,46.166 4.049,51.903 0.81,5.737 2.16,16.937 11.338,24.859 9.178,7.922 17.278,11.746 36.985,9.834 z"
     id="path4"
     inkscape:connector-curvature="0"
     style="fill:#bcbcc0" />
  <path
     d="m 54.274,279.66987 c 19.204,-1.912 38.934,-10.381 48.141,-15.025 9.207,-4.644 11.838,-13.659 11.838,-13.659 0,0 4.209,-13.386 8.418,-45.62 4.209,-32.235 4.209,-65.289 4.209,-65.289 0,0 0,-33.054 -4.209,-65.289002 -4.209,-32.235 -8.418,-45.62 -8.418,-45.62 0,0 -2.631,-9.015 -11.838,-13.659 C 93.208,10.864868 73.478,2.3978677 54.274,0.48586767 35.07,-1.4261323 27.178,2.3978677 18.234,10.319868 c -8.944,7.922 -10.259,19.122 -11.049,24.859 -0.79,5.737 -3.946,51.903 -3.946,51.903 0,0 0.263,4.371 2.894,6.556 2.631,2.185 7.892,8.468002 9.996,14.478002 2.104,6.01 2.894,31.961 2.894,31.961 0,0 -0.789,25.952 -2.894,31.961 -2.105,6.01 -7.366,12.293 -9.996,14.478 -2.63,2.185 -2.894,6.556 -2.894,6.556 0,0 3.157,46.166 3.946,51.903 0.789,5.737 2.105,16.937 11.049,24.859 8.944,7.922 16.836,11.748 36.04,9.836 z"
     id="path6"
     inkscape:connector-curvature="0"
     style="fill:#bcbcc0" />
  <path
     d="m 54.42,277.78687 c 18.945,-1.886 38.408,-10.241 47.491,-14.822 9.083,-4.581 11.678,-13.474 11.678,-13.474 0,0 4.152,-13.205 8.305,-45.005 4.153,-31.8 4.152,-64.408 4.152,-64.408 0,0 0,-32.608 -4.152,-64.408002 -4.152,-31.8 -8.305,-45.005 -8.305,-45.005 0,0 -2.595,-8.893 -11.678,-13.474 -9.083,-4.581 -28.547,-12.9360003 -47.491,-14.8220003 -18.944,-1.88600003 -26.73,1.886 -35.554,9.7020003 -8.824,7.816 -10.121,18.864 -10.9,24.523 -0.779,5.659 -3.893,51.203 -3.893,51.203 0,0 0.26,4.312 2.855,6.468 2.595,2.156 7.785,8.354002 9.862,14.283002 2.076,5.929 2.855,31.53 2.855,31.53 0,0 -0.779,25.601 -2.855,31.53 -2.076,5.929 -7.266,12.127 -9.862,14.283 -2.595,2.156 -2.855,6.468 -2.855,6.468 0,0 3.114,45.544 3.893,51.203 0.779,5.659 2.076,16.708 10.9,24.524 8.824,7.816 16.609,11.587 35.554,9.701 z"
     id="path8"
     inkscape:connector-curvature="0"
     style="fill:#d0cfd0" />
  <path
     d="m 103.626,249.32887 c -0.214,5.137 -2.936,9.583 -7.594,11.232 -10.028,3.55 -31.289,10.454 -44.441,10.236 -17.68,-0.292 -25.114,-6.186 -29.59,-11.743 -4.476,-5.557 -5.433,-13.994 -5.433,-13.994 0,0 -2.129,-23.377 -2.858,-32.446 a 9.81,9.81 0 0 1 1.56,-6.166 c 2.047,-3.119 5.702,-6.755 13.905,-13.581 13.707,-11.406 32.12,-14.083 41.587,-12.328 9.467,1.755 13.822,5.152 18.966,11.878 5.144,6.727 9.379,21.349 12.736,42.114 1.053,6.511 1.308,11.296 1.162,14.798 z"
     id="path10"
     inkscape:connector-curvature="0"
     style="fill:#bcbcc0" />
  <path
     d="m 101.005,249.42787 c -0.206,4.675 -3.354,8.723 -7.85,10.224 -9.678,3.232 -30.196,9.515 -42.889,9.317 -17.062,-0.266 -22.461,-6.123 -26.781,-11.18 -4.32,-5.057 -5.939,-12.245 -5.939,-12.245 0,0 -2.055,-20.08 -2.758,-28.452 -0.169,-2.016 -0.719,-4.023 0.426,-5.692 1.975,-2.879 6.024,-7.73 13.941,-14.031 13.228,-10.528 27.351,-13.498 36.487,-11.878 9.136,1.62 15.944,6.749 20.909,12.958 4.965,6.209 10.094,19.707 13.333,38.874 1.016,6.008 1.262,8.918 1.121,12.105 z"
     id="path12"
     inkscape:connector-curvature="0"
     style="fill:#d0cfd0" />
  <circle
     cx="67.003998"
     cy="196.95386"
     r="9.7729998"
     stroke-miterlimit="10"
     id="circle14"
     style="fill:#acacac;stroke:#4d4c4e;stroke-width:0.54000002;stroke-miterlimit:10" />
  <ellipse
     cx="67.003998"
     cy="198.45287"
     rx="9.217"
     ry="8.2749996"
     id="ellipse16"
     style="fill:#b8b9be" />
  <circle
     cx="76.778"
     cy="220.71086"
     r="9.7729998"
     stroke-miterlimit="10"
     id="circle18"
     style="fill:#acacac;stroke:#4d4c4e;stroke-width:0.54000002;stroke-miterlimit:10" />
  <ellipse
     cx="76.778"
     cy="222.20886"
     rx="9.217"
     ry="8.2749996"
     id="ellipse20"
     style="fill:#b8b9be" />
  <circle
     cx="85.146004"
     cy="245.55687"
     r="9.7729998"
     stroke-miterlimit="10"
     id="circle22"
     style="fill:#acacac;stroke:#4d4c4e;stroke-width:0.54000002;stroke-miterlimit:10" />
  <ellipse
     cx="85.146004"
     cy="247.05586"
     rx="9.217"
     ry="8.2749996"
     id="ellipse24"
     style="fill:#b8b9be" />
  <circle
     cx="60.040001"
     cy="255.33086"
     r="9.7729998"
     stroke-miterlimit="10"
     id="circle26"
     style="fill:#acacac;stroke:#4d4c4e;stroke-width:0.54000002;stroke-miterlimit:10" />
  <ellipse
     cx="60.040001"
     cy="256.57986"
     rx="9.217"
     ry="8.2749996"
     id="ellipse28"
     style="fill:#b8b9be" />
  <circle
     cx="52.480999"
     cy="230.48386"
     r="9.7729998"
     stroke-miterlimit="10"
     id="circle30"
     style="fill:#acacac;stroke:#4d4c4e;stroke-width:0.54000002;stroke-miterlimit:10" />
  <ellipse
     cx="52.480999"
     cy="231.58487"
     rx="9.217"
     ry="8.2749996"
     id="ellipse32"
     style="fill:#b8b9be" />
  <circle
     cx="41.412998"
     cy="206.72786"
     r="9.7729998"
     stroke-miterlimit="10"
     id="circle34"
     style="fill:#acacac;stroke:#4d4c4e;stroke-width:0.54000002;stroke-miterlimit:10" />
  <ellipse
     cx="41.412998"
     cy="207.88887"
     rx="9.217"
     ry="8.2749996"
     id="ellipse36"
     style="fill:#b8b9be" />
  <path
     d="m 103.626,29.507868 c -0.214,-5.137 -2.936,-9.583 -7.594,-11.232 -10.028,-3.551 -31.289,-10.4540003 -44.441,-10.2370003 -17.68,0.292 -25.114,6.1860003 -29.59,11.7430003 -4.476,5.557 -5.433,13.994 -5.433,13.994 0,0 -2.129,23.377 -2.858,32.446 a 9.81,9.81 0 0 0 1.56,6.166 c 2.047,3.119 5.702,6.755 13.905,13.581 13.707,11.406 32.12,14.083002 41.587,12.328 9.467,-1.755 13.822,-5.152 18.966,-11.878 5.144,-6.726 9.379,-21.349 12.736,-42.114 1.053,-6.51 1.308,-11.295 1.162,-14.797 z"
     id="path38"
     inkscape:connector-curvature="0"
     style="fill:#bcbcc0" />
  <path
     d="m 101.005,29.408868 c -0.206,-4.675 -3.354,-8.723 -7.85,-10.224 C 83.477,15.952868 62.959,9.6698677 50.266,9.8678677 33.204,10.133868 27.805,15.990868 23.485,21.047868 c -4.32,5.057 -5.939,12.245 -5.939,12.245 0,0 -2.055,20.08 -2.758,28.452 -0.169,2.016 -0.719,4.023 0.426,5.692 1.975,2.879 6.024,7.73 13.941,14.031 13.228,10.528 27.351,13.498 36.487,11.878 9.136,-1.62 15.944,-6.749 20.909,-12.958 4.965,-6.209 10.094,-19.707 13.333,-38.874 1.016,-6.009 1.262,-8.918 1.121,-12.105 z"
     id="path40"
     inkscape:connector-curvature="0"
     style="fill:#d0cfd0" />
  <path
     d="m 30.791,133.81387 v -10.998 a 3.272,3.272 0 0 1 3.262,-3.262 3.272,3.272 0 0 1 3.262,3.262 v 10.998 a 3.272,3.272 0 0 1 -3.262,3.262 3.272,3.272 0 0 1 -3.262,-3.262 z"
     id="path42"
     inkscape:connector-curvature="0"
     style="fill:#151517" />
  <path
     d="m 31.666,133.94187 v -11.254 a 2.394,2.394 0 0 1 2.387,-2.387 2.394,2.394 0 0 1 2.387,2.387 v 11.254 a 2.394,2.394 0 0 1 -2.387,2.387 2.395,2.395 0 0 1 -2.387,-2.387 z"
     id="path44"
     inkscape:connector-curvature="0"
     style="fill:#c2c3c5" />
  <path
     d="m 30.791,157.20787 v -10.998 a 3.272,3.272 0 0 1 3.262,-3.262 3.272,3.272 0 0 1 3.262,3.262 v 10.998 a 3.272,3.272 0 0 1 -3.262,3.262 3.272,3.272 0 0 1 -3.262,-3.262 z"
     id="path46"
     inkscape:connector-curvature="0"
     style="fill:#151517" />
  <path
     d="m 31.666,157.33587 v -11.254 a 2.394,2.394 0 0 1 2.387,-2.387 2.394,2.394 0 0 1 2.387,2.387 v 11.254 a 2.394,2.394 0 0 1 -2.387,2.387 2.395,2.395 0 0 1 -2.387,-2.387 z"
     id="path48"
     inkscape:connector-curvature="0"
     style="fill:#c2c3c5" />
  <g
     id="g52"
     style="fill:#a8a8b2"
     transform="translate(0,-1.3232943e-4)">
    <path
       d="m 84.52,134.647 c 0.025,-0.006 0.095,-0.016 0.209,-0.028 l 0.236,-0.031 a 1.698,1.698 0 0 1 -0.451,-0.15 l -1.739,-0.854 1.774,-0.854 c 0.073,-0.035 0.144,-0.066 0.212,-0.093 a 2.83,2.83 0 0 1 0.203,-0.067 2.089,2.089 0 0 1 -0.45,-0.061 l -1.607,-0.35 v -0.488 l 3.402,0.771 -2.06,0.963 c -0.033,0.015 -0.087,0.037 -0.163,0.068 l -0.281,0.11 c 0.094,0.031 0.212,0.08 0.356,0.146 l 0.089,0.04 2.058,0.941 -3.402,0.789 v -0.493 z m 0.013,4.533 a 1.675,1.675 0 0 1 -1.21,-0.511 1.745,1.745 0 0 1 -0.501,-1.232 c 0,-0.235 0.043,-0.459 0.13,-0.673 0.087,-0.213 0.21,-0.401 0.371,-0.564 a 1.653,1.653 0 0 1 1.211,-0.509 1.682,1.682 0 0 1 1.215,0.509 c 0.162,0.166 0.285,0.354 0.37,0.565 0.084,0.212 0.127,0.436 0.127,0.672 0,0.234 -0.042,0.457 -0.127,0.667 a 1.724,1.724 0 0 1 -0.929,0.945 1.682,1.682 0 0 1 -0.657,0.131 z m 0,-0.553 a 1.23,1.23 0 0 0 1.131,-0.733 c 0.062,-0.146 0.093,-0.298 0.093,-0.458 a 1.166,1.166 0 0 0 -0.357,-0.846 1.18,1.18 0 0 0 -0.395,-0.258 1.248,1.248 0 0 0 -0.473,-0.09 1.226,1.226 0 0 0 -1.128,0.734 1.173,1.173 0 0 0 -0.091,0.46 c 0,0.158 0.03,0.31 0.091,0.453 a 1.21,1.21 0 0 0 0.661,0.647 c 0.149,0.061 0.305,0.091 0.468,0.091 z m -1.625,1.069 h 3.264 v 0.716 c 0,0.465 -0.023,0.793 -0.07,0.982 a 1.333,1.333 0 0 1 -0.79,0.927 1.927,1.927 0 0 1 -0.773,0.146 c -0.29,0 -0.547,-0.049 -0.771,-0.146 a 1.38,1.38 0 0 1 -0.554,-0.429 c -0.11,-0.143 -0.188,-0.306 -0.235,-0.487 -0.047,-0.181 -0.07,-0.466 -0.07,-0.851 v -0.858 z m 0.48,0.532 v 0.445 c 0,0.245 0.016,0.43 0.049,0.552 a 0.813,0.813 0 0 0 0.165,0.32 c 0.105,0.123 0.237,0.216 0.394,0.277 0.157,0.061 0.339,0.093 0.547,0.093 0.208,0 0.39,-0.031 0.547,-0.093 a 0.98,0.98 0 0 0 0.393,-0.277 0.826,0.826 0 0 0 0.165,-0.331 c 0.033,-0.129 0.049,-0.33 0.049,-0.604 v -0.382 z m -0.48,2.757 h 3.264 v 1.821 h -0.45 v -1.291 h -0.818 v 1.291 h -0.466 v -1.291 h -1.055 v 1.291 h -0.475 z m 0,4.457 h 2.813 v -0.675 l 0.419,0.205 v 0.954 h -3.232 z"
       id="path50"
       inkscape:connector-curvature="0" />
  </g>
  <g
     id="g56"
     style="fill:#a8a8b2"
     transform="translate(0,-1.3232943e-4)">
    <path
       d="m 65.053,134.647 c 0.025,-0.006 0.095,-0.016 0.209,-0.028 l 0.236,-0.031 a 1.698,1.698 0 0 1 -0.451,-0.15 l -1.739,-0.854 1.774,-0.854 c 0.073,-0.035 0.144,-0.066 0.212,-0.093 a 2.83,2.83 0 0 1 0.203,-0.067 2.089,2.089 0 0 1 -0.45,-0.061 l -1.607,-0.35 v -0.488 l 3.402,0.771 -2.06,0.963 c -0.033,0.015 -0.087,0.037 -0.163,0.068 l -0.281,0.11 c 0.094,0.031 0.212,0.08 0.356,0.146 l 0.089,0.04 2.058,0.941 -3.402,0.789 v -0.493 z m 0.013,4.533 a 1.675,1.675 0 0 1 -1.21,-0.511 1.745,1.745 0 0 1 -0.501,-1.232 c 0,-0.235 0.043,-0.459 0.13,-0.673 0.087,-0.213 0.21,-0.401 0.371,-0.564 a 1.653,1.653 0 0 1 1.211,-0.509 1.682,1.682 0 0 1 1.215,0.509 c 0.162,0.166 0.285,0.354 0.37,0.565 0.084,0.212 0.127,0.436 0.127,0.672 0,0.234 -0.042,0.457 -0.127,0.667 a 1.724,1.724 0 0 1 -0.929,0.945 1.686,1.686 0 0 1 -0.657,0.131 z m 0,-0.553 a 1.23,1.23 0 0 0 1.131,-0.733 c 0.062,-0.146 0.093,-0.298 0.093,-0.458 a 1.166,1.166 0 0 0 -0.357,-0.846 1.18,1.18 0 0 0 -0.395,-0.258 1.248,1.248 0 0 0 -0.473,-0.09 1.226,1.226 0 0 0 -1.128,0.734 1.173,1.173 0 0 0 -0.091,0.46 c 0,0.158 0.03,0.31 0.091,0.453 a 1.21,1.21 0 0 0 0.661,0.647 c 0.149,0.061 0.305,0.091 0.468,0.091 z m -1.625,1.069 h 3.264 v 0.716 c 0,0.465 -0.023,0.793 -0.07,0.982 a 1.333,1.333 0 0 1 -0.79,0.927 1.927,1.927 0 0 1 -0.773,0.146 c -0.29,0 -0.547,-0.049 -0.771,-0.146 a 1.38,1.38 0 0 1 -0.554,-0.429 c -0.11,-0.143 -0.188,-0.306 -0.235,-0.487 -0.047,-0.181 -0.07,-0.466 -0.07,-0.851 v -0.858 z m 0.479,0.532 v 0.445 c 0,0.245 0.016,0.43 0.049,0.552 a 0.813,0.813 0 0 0 0.165,0.32 c 0.105,0.123 0.237,0.216 0.394,0.277 0.157,0.061 0.339,0.093 0.547,0.093 0.208,0 0.39,-0.031 0.547,-0.093 a 0.98,0.98 0 0 0 0.393,-0.277 0.826,0.826 0 0 0 0.165,-0.331 c 0.033,-0.129 0.049,-0.33 0.049,-0.604 v -0.382 z m -0.479,2.757 h 3.264 v 1.821 h -0.45 v -1.291 h -0.818 v 1.291 H 64.97 v -1.291 h -1.055 v 1.291 H 63.44 v -1.821 z m 0.423,5.534 h -0.423 v -2.188 l 1.46,1.22 c 0.183,0.151 0.343,0.263 0.481,0.332 0.138,0.07 0.264,0.105 0.376,0.105 0.162,0 0.29,-0.049 0.382,-0.145 a 0.542,0.542 0 0 0 0.14,-0.394 0.503,0.503 0 0 0 -0.14,-0.367 0.547,0.547 0 0 0 -0.367,-0.163 v -0.511 c 0.293,0 0.526,0.099 0.701,0.295 0.175,0.196 0.262,0.46 0.262,0.791 0,0.315 -0.081,0.563 -0.243,0.746 -0.162,0.182 -0.383,0.272 -0.662,0.272 -0.199,0 -0.4,-0.052 -0.603,-0.157 -0.203,-0.104 -0.498,-0.326 -0.884,-0.665 l -0.482,-0.415 v 1.244 z"
       id="path54"
       inkscape:connector-curvature="0" />
  </g>
  <g
     id="g60"
     style="fill:#a8a8b2"
     transform="translate(0,-1.3232943e-4)">
    <path
       d="m 40.909,121.149 0.196,0.423 c -0.146,0.04 -0.257,0.114 -0.333,0.221 -0.076,0.107 -0.115,0.244 -0.115,0.41 0,0.158 0.044,0.283 0.131,0.375 0.088,0.093 0.205,0.14 0.353,0.14 0.191,0 0.362,-0.159 0.513,-0.477 0.022,-0.045 0.039,-0.079 0.049,-0.103 0.175,-0.36 0.334,-0.6 0.476,-0.719 0.142,-0.119 0.315,-0.179 0.521,-0.179 0.266,0 0.481,0.09 0.646,0.271 0.165,0.181 0.248,0.417 0.248,0.71 0,0.241 -0.046,0.442 -0.14,0.604 a 0.731,0.731 0 0 1 -0.4,0.336 l -0.214,-0.415 a 0.686,0.686 0 0 0 0.225,-0.215 0.512,0.512 0 0 0 0.071,-0.269 0.495,0.495 0 0 0 -0.111,-0.34 0.38,0.38 0 0 0 -0.299,-0.126 c -0.196,0 -0.379,0.185 -0.548,0.553 l -0.031,0.067 c -0.149,0.323 -0.294,0.544 -0.436,0.665 -0.142,0.121 -0.319,0.181 -0.532,0.181 -0.309,0 -0.555,-0.098 -0.737,-0.292 -0.182,-0.195 -0.273,-0.458 -0.273,-0.79 0,-0.278 0.064,-0.505 0.192,-0.683 a 0.886,0.886 0 0 1 0.548,-0.348 z m -0.654,2.601 h 3.264 v 1.821 h -0.45 v -1.291 h -0.818 v 1.291 H 41.785 V 124.28 H 40.73 v 1.291 h -0.475 z m 0,2.338 h 3.264 v 0.531 H 40.73 v 1.186 h -0.475 z m 0,2.056 h 3.264 v 1.821 h -0.45 v -1.29 h -0.818 v 1.29 h -0.466 v -1.29 H 40.73 v 1.29 h -0.475 z m 2.471,4.959 c 0.128,-0.15 0.224,-0.31 0.288,-0.477 0.064,-0.167 0.096,-0.343 0.096,-0.527 0,-0.356 -0.114,-0.646 -0.343,-0.87 -0.229,-0.224 -0.525,-0.336 -0.89,-0.336 -0.352,0 -0.643,0.109 -0.872,0.327 -0.229,0.218 -0.343,0.492 -0.343,0.823 0,0.193 0.034,0.377 0.103,0.552 0.069,0.175 0.172,0.343 0.31,0.503 h -0.6 a 1.545,1.545 0 0 1 -0.229,-0.466 1.906,1.906 0 0 1 -0.076,-0.546 c 0,-0.25 0.041,-0.48 0.123,-0.692 a 1.616,1.616 0 0 1 0.913,-0.926 c 0.211,-0.085 0.437,-0.128 0.676,-0.128 0.239,0 0.464,0.043 0.674,0.128 0.21,0.086 0.395,0.21 0.554,0.372 0.161,0.161 0.282,0.348 0.365,0.557 0.082,0.21 0.124,0.437 0.124,0.68 a 1.811,1.811 0 0 1 -0.336,1.055 z m 0.343,1.62 h -2.813 v -0.53 h 2.813 v -0.867 h 0.45 v 2.261 h -0.45 z"
       id="path58"
       inkscape:connector-curvature="0" />
  </g>
  <g
     id="g64"
     style="fill:#a8a8b2"
     transform="translate(0,-1.3232943e-4)">
    <path
       d="m 41.716,147.86 h -1.46 v -0.497 h 3.264 v 0.74 c 0,0.217 -0.014,0.385 -0.042,0.505 a 0.802,0.802 0 0 1 -0.14,0.307 0.768,0.768 0 0 1 -0.306,0.233 0.989,0.989 0 0 1 -0.41,0.083 c -0.262,0 -0.466,-0.063 -0.614,-0.189 -0.148,-0.127 -0.236,-0.313 -0.266,-0.56 l -1.485,1.123 v -0.6 l 1.46,-1.086 v -0.059 z m 0.412,0.034 v 0.096 c 0,0.281 0.033,0.468 0.098,0.56 0.065,0.093 0.181,0.139 0.348,0.139 0.18,0 0.307,-0.05 0.38,-0.148 0.073,-0.099 0.11,-0.282 0.11,-0.55 v -0.096 h -0.936 z m 1.391,1.922 v 0.524 h -1.982 c -0.294,0 -0.515,0.067 -0.663,0.203 -0.148,0.137 -0.222,0.34 -0.222,0.61 0,0.269 0.074,0.472 0.222,0.607 0.148,0.135 0.369,0.204 0.663,0.204 h 1.982 v 0.53 h -2.031 c -0.441,0 -0.772,-0.111 -0.991,-0.334 -0.219,-0.224 -0.329,-0.56 -0.329,-1.008 0,-0.449 0.109,-0.784 0.328,-1.006 0.219,-0.222 0.549,-0.332 0.992,-0.332 h 2.031 z m -3.264,3.319 h 3.393 l -1.995,2.073 a 5.072,5.072 0 0 1 -0.397,0.355 h 2.263 v 0.491 h -3.391 l 2.031,-2.116 a 2.714,2.714 0 0 1 0.366,-0.314 h -2.27 z"
       id="path62"
       inkscape:connector-curvature="0" />
  </g>
  <path
     d="m 73.583,143.26487 v -7.694 a 3.272,3.272 0 0 1 3.262,-3.262 3.272,3.272 0 0 1 3.262,3.262 v 7.694 a 3.272,3.272 0 0 1 -3.262,3.262 3.272,3.272 0 0 1 -3.262,-3.262 z"
     id="path66"
     inkscape:connector-curvature="0"
     style="fill:#131315" />
  <path
     d="m 74.255,139.97787 v -3.616 a 2.598,2.598 0 0 1 2.59,-2.59 2.598,2.598 0 0 1 2.59,2.59 v 3.616 a 2.598,2.598 0 0 1 -2.59,2.59 2.598,2.598 0 0 1 -2.59,-2.59 z"
     id="path68"
     inkscape:connector-curvature="0"
     style="fill:#a8a9ad" />
  <circle
     cx="76.845001"
     cy="136.69086"
     r="2.4170001"
     id="circle70"
     style="fill:#d8d8dc" />
  <path
     d="m 75.147,119.99487 0.84,-0.37 v -1.293 l -0.84,-0.379 v -0.558 l 3.393,1.581 -3.393,1.578 z m 1.282,-1.467 v 0.91 l 0.745,-0.334 a 3.77,3.77 0 0 1 0.37,-0.123 3.282,3.282 0 0 1 -0.37,-0.118 z m -1.282,41.148 h 3.264 v 0.823 c 0,0.234 -0.013,0.408 -0.038,0.521 a 0.728,0.728 0 0 1 -0.417,0.521 0.935,0.935 0 0 1 -0.399,0.083 c -0.174,0 -0.319,-0.04 -0.436,-0.12 -0.117,-0.08 -0.198,-0.196 -0.244,-0.35 -0.03,0.19 -0.116,0.34 -0.26,0.449 -0.144,0.109 -0.324,0.164 -0.543,0.164 -0.132,0 -0.258,-0.023 -0.376,-0.069 a 0.84,0.84 0 0 1 -0.303,-0.196 0.73,0.73 0 0 1 -0.192,-0.332 c -0.037,-0.133 -0.056,-0.354 -0.056,-0.667 z m 1.886,0.519 v 0.203 c 0,0.253 0.034,0.432 0.104,0.536 0.069,0.104 0.186,0.157 0.349,0.157 0.179,0 0.304,-0.049 0.376,-0.146 0.072,-0.096 0.108,-0.279 0.108,-0.548 v -0.203 h -0.937 z m -1.442,0 v 0.183 c 0,0.187 0.007,0.325 0.022,0.417 a 0.535,0.535 0 0 0 0.078,0.219 0.426,0.426 0 0 0 0.174,0.151 0.536,0.536 0 0 0 0.241,0.054 c 0.104,0 0.195,-0.021 0.272,-0.064 0.077,-0.043 0.138,-0.105 0.181,-0.186 a 0.64,0.64 0 0 0 0.056,-0.173 c 0.012,-0.064 0.018,-0.15 0.018,-0.257 v -0.344 z"
     id="path72"
     inkscape:connector-curvature="0"
     style="fill:#a8a8b2" />
  <path
     d="m 81.122,126.61787 c 0,0 -0.337,8.256 -0.337,12.8 0,4.544 0.337,13.048 0.337,13.048 l -1.016,-13.048 z m -8.555,0 c 0,0 0.337,8.256 0.337,12.8 0,4.544 -0.337,13.048 -0.337,13.048 l 1.016,-13.048 z"
     id="path74"
     inkscape:connector-curvature="0"
     style="fill:#a7a8b1" />
  <path
     d="m 53.606,143.26487 v -7.694 a 3.272,3.272 0 0 1 3.262,-3.262 3.272,3.272 0 0 1 3.262,3.262 v 7.694 a 3.272,3.272 0 0 1 -3.262,3.262 3.272,3.272 0 0 1 -3.262,-3.262 z"
     id="path76"
     inkscape:connector-curvature="0"
     style="fill:#131315" />
  <path
     d="m 54.278,139.97787 v -3.616 a 2.598,2.598 0 0 1 2.59,-2.59 2.598,2.598 0 0 1 2.59,2.59 v 3.616 a 2.598,2.598 0 0 1 -2.59,2.59 2.598,2.598 0 0 1 -2.59,-2.59 z"
     id="path78"
     inkscape:connector-curvature="0"
     style="fill:#a8a9ad" />
  <circle
     cx="56.868"
     cy="136.69086"
     r="2.4170001"
     id="circle80"
     style="fill:#d8d8dc" />
  <path
     d="m 55.171,119.99487 0.84,-0.37 v -1.293 l -0.84,-0.379 v -0.558 l 3.393,1.581 -3.393,1.578 z m 1.282,-1.467 v 0.91 l 0.745,-0.334 a 3.77,3.77 0 0 1 0.37,-0.123 3.282,3.282 0 0 1 -0.37,-0.118 z m -1.282,41.148 h 3.264 v 0.823 c 0,0.234 -0.013,0.408 -0.038,0.521 a 0.728,0.728 0 0 1 -0.417,0.521 0.935,0.935 0 0 1 -0.399,0.083 c -0.174,0 -0.319,-0.04 -0.436,-0.12 -0.117,-0.08 -0.198,-0.196 -0.244,-0.35 -0.03,0.19 -0.116,0.34 -0.26,0.449 -0.144,0.109 -0.324,0.164 -0.543,0.164 -0.132,0 -0.258,-0.023 -0.376,-0.069 a 0.84,0.84 0 0 1 -0.303,-0.196 0.73,0.73 0 0 1 -0.192,-0.332 c -0.037,-0.133 -0.056,-0.354 -0.056,-0.667 z m 1.886,0.519 v 0.203 c 0,0.253 0.034,0.432 0.104,0.536 0.069,0.104 0.186,0.157 0.349,0.157 0.179,0 0.304,-0.049 0.376,-0.146 0.072,-0.096 0.108,-0.279 0.108,-0.548 v -0.203 h -0.937 z m -1.442,0 v 0.183 c 0,0.187 0.007,0.325 0.022,0.417 a 0.535,0.535 0 0 0 0.078,0.219 0.426,0.426 0 0 0 0.174,0.151 0.536,0.536 0 0 0 0.241,0.054 c 0.104,0 0.195,-0.021 0.272,-0.064 0.077,-0.043 0.138,-0.105 0.181,-0.186 a 0.64,0.64 0 0 0 0.056,-0.173 c 0.012,-0.064 0.018,-0.15 0.018,-0.257 v -0.344 z"
     id="path82"
     inkscape:connector-curvature="0"
     style="fill:#a8a8b2" />
  <path
     d="m 61.145,126.61787 c 0,0 -0.337,8.256 -0.337,12.8 0,4.544 0.337,13.048 0.337,13.048 l -1.016,-13.048 z m -8.555,0 c 0,0 0.337,8.256 0.337,12.8 0,4.544 -0.337,13.048 -0.337,13.048 l 1.016,-13.048 z"
     id="path84"
     inkscape:connector-curvature="0"
     style="fill:#a7a8b1" />
  <path
     d="m 63.99,256.54187 c -0.007,-0.036 -0.052,-0.037 -0.099,-0.037 h -0.008 c -0.146,0 -0.304,-0.009 -0.435,-0.019 l 0.022,-0.989 -0.002,-0.065 -0.118,-0.026 -7.314,-0.04 -0.102,1.147 c -0.175,0 -0.384,-0.001 -0.561,-0.013 l 0.069,-0.669 c 0.003,-0.288 0.007,-0.587 0.007,-0.865 l -0.013,-1.602 c 0.131,0.067 0.357,0.067 0.555,0.081 l -0.023,0.896 0.002,0.064 0.119,0.053 h 7.313 l 0.107,-1.119 c 0.131,0.065 0.343,0.065 0.542,0.078 l -0.063,1.588 v 1.537 z"
     id="path86"
     inkscape:connector-curvature="0"
     style="fill:#a1a1a3" />
  <path
     d="m 63.573,253.47187 c 0.115,0 0.233,0.002 0.349,0.006 v 2.959 h -0.04 c -0.102,0 -0.209,-0.005 -0.309,-0.011 l -0.035,-0.928 c 0,-0.017 -0.005,-0.162 -0.188,-0.162 l -7.314,-0.04 -0.131,-0.001 -0.005,0.131 -0.036,1.017 c -0.116,0 -0.242,-0.002 -0.361,-0.006 l 0.006,-0.607 c 0.003,-0.288 0.007,-0.588 0.007,-0.866 0,-0.266 -0.003,-0.553 -0.007,-0.834 a 73.143,73.143 0 0 1 -0.006,-0.632 c 0.119,0 0.243,0.002 0.362,0.006 l 0.035,0.833 c 0,0.107 0.081,0.188 0.189,0.188 h 7.444 l 0.005,-0.13 0.035,-0.923 m -0.129,-0.135 -0.04,1.054 H 56.09 c -0.04,0 -0.054,-0.027 -0.054,-0.054 l -0.04,-0.961 c -0.2,-0.013 -0.427,-0.013 -0.627,-0.013 0,0.48 0.013,1.081 0.013,1.602 0,0.534 -0.013,1.148 -0.013,1.602 0.2,0.013 0.44,0.013 0.627,0.013 l 0.04,-1.148 7.314,0.04 c 0.026,0 0.053,0 0.053,0.027 l 0.04,1.054 c 0.132,0.01 0.291,0.019 0.439,0.019 0.061,0 0.12,-0.002 0.175,-0.005 v -1.561 -1.655 c -0.2,-0.014 -0.414,-0.014 -0.613,-0.014 z"
     id="path88"
     inkscape:connector-curvature="0"
     style="fill:#7c7b7f" />
  <path
     d="m 56.901,233.49687 c -0.007,-0.037 -0.052,-0.038 -0.099,-0.038 h -0.008 c -0.146,0 -0.303,-0.009 -0.434,-0.019 l 0.022,-0.989 -0.002,-0.065 -0.119,-0.027 -7.313,-0.04 -0.102,1.148 c -0.175,0 -0.384,-0.001 -0.561,-0.013 l 0.069,-0.669 c 0.003,-0.287 0.007,-0.587 0.007,-0.865 l -0.006,-0.788 H 48.28 l 0.07,-0.345 -0.003,-0.468 0.013,-0.721 -0.013,-1.602 c 0.131,0.067 0.357,0.067 0.555,0.081 l -0.023,0.896 0.002,0.064 0.119,0.054 h 7.314 l 0.107,-1.12 c 0.131,0.065 0.343,0.065 0.542,0.079 l -0.063,1.587 v 3.86 z m -8.045,-2.766 0.026,0.629 0.119,0.053 h 7.314 l 0.09,-0.672 -0.025,-0.677 -0.119,-0.027 -7.379,-0.04 z"
     id="path90"
     inkscape:connector-curvature="0"
     style="fill:#a1a1a3" />
  <path
     d="m 56.484,228.10387 c 0.115,0 0.233,0.002 0.349,0.006 v 5.282 h -0.04 c -0.102,0 -0.209,-0.005 -0.309,-0.011 l -0.035,-0.928 c 0,-0.017 -0.005,-0.162 -0.188,-0.162 l -7.314,-0.04 -0.131,-0.001 -0.005,0.131 -0.036,1.017 c -0.116,0 -0.242,-0.002 -0.361,-0.006 l 0.006,-0.607 c 0.003,-0.288 0.007,-0.588 0.007,-0.866 0,-0.231 -0.003,-0.477 -0.006,-0.722 l -0.007,-0.101 0.003,-0.332 -0.003,-0.311 h 0.006 l 0.002,-0.133 a 59.45,59.45 0 0 0 -0.002,-1.557 73.143,73.143 0 0 1 -0.006,-0.632 c 0.119,0 0.243,0.002 0.362,0.006 l 0.035,0.833 c 0,0.107 0.081,0.189 0.189,0.189 h 7.444 l 0.005,-0.13 0.035,-0.925 m -7.483,3.377 h 7.444 l 0.005,-0.13 0.023,-0.618 -0.023,-0.602 c 0,-0.017 -0.005,-0.162 -0.188,-0.162 l -7.314,-0.04 -0.131,-10e-4 -0.005,0.131 -0.023,0.679 0.023,0.554 c 0,0.108 0.081,0.189 0.189,0.189 m 7.354,-3.512 -0.04,1.055 h -7.314 c -0.04,0 -0.054,-0.027 -0.054,-0.054 l -0.04,-0.961 c -0.2,-0.013 -0.427,-0.013 -0.627,-0.013 0,0.48 0.013,1.081 0.013,1.602 0,0.232 -0.003,0.479 -0.005,0.721 H 48.28 l 0.003,0.447 -0.003,0.434 h 0.008 c 0.003,0.244 0.006,0.49 0.006,0.721 0,0.534 -0.013,1.148 -0.013,1.602 0.2,0.013 0.44,0.013 0.627,0.013 l 0.04,-1.148 7.314,0.04 c 0.026,0 0.053,0 0.053,0.027 l 0.04,1.054 c 0.132,0.01 0.291,0.019 0.439,0.019 0.061,0 0.12,-0.002 0.175,-0.005 v -1.561 -0.761 -0.894 -0.668 -1.655 c -0.201,-0.015 -0.415,-0.015 -0.614,-0.015 z m -7.354,3.377 c -0.04,0 -0.054,-0.027 -0.054,-0.054 l -0.023,-0.56 0.023,-0.668 7.314,0.04 c 0.026,0 0.053,0 0.053,0.027 l 0.023,0.607 -0.023,0.607 h -7.313 z"
     id="path92"
     inkscape:connector-curvature="0"
     style="fill:#7c7b7f" />
  <path
     d="m 45.587,210.67987 c -0.007,-0.036 -0.052,-0.037 -0.099,-0.037 H 45.48 c -0.146,0 -0.304,-0.009 -0.435,-0.019 l 0.022,-0.989 -0.002,-0.065 -0.118,-0.027 -7.313,-0.04 -0.103,1.148 c -0.175,0 -0.384,-0.001 -0.561,-0.013 l 0.069,-0.669 c 0.003,-0.287 0.007,-0.587 0.007,-0.865 l -0.006,-0.788 h -0.074 l 0.07,-0.366 -0.002,-0.447 0.013,-0.721 -0.006,-0.789 h -0.074 l 0.07,-0.366 -0.002,-0.447 0.013,-0.721 -0.013,-1.602 c 0.131,0.067 0.356,0.067 0.555,0.081 l -0.022,0.896 0.002,0.064 0.119,0.054 H 45 l 0.107,-1.12 c 0.131,0.065 0.343,0.065 0.542,0.078 l -0.063,1.588 v 6.182 z m -8.045,-2.766 0.026,0.629 0.119,0.053 H 45 l 0.09,-0.672 -0.025,-0.677 -0.118,-0.027 -7.379,-0.041 z m 0,-2.323 0.026,0.63 0.119,0.053 H 45 l 0.09,-0.672 -0.025,-0.677 -0.118,-0.026 -7.379,-0.041 z"
     id="path94"
     inkscape:connector-curvature="0"
     style="fill:#a1a1a3" />
  <path
     d="m 45.17,202.96487 c 0.115,0 0.233,0.002 0.349,0.006 v 7.604 h -0.04 c -0.102,0 -0.209,-0.005 -0.309,-0.011 l -0.035,-0.928 c 0,-0.017 -0.005,-0.162 -0.188,-0.162 l -7.314,-0.04 -0.131,-0.001 -0.005,0.131 -0.036,1.017 c -0.116,0 -0.242,-0.002 -0.361,-0.006 l 0.006,-0.607 c 0.003,-0.288 0.007,-0.588 0.007,-0.866 0,-0.231 -0.003,-0.477 -0.006,-0.722 l -0.007,-0.101 0.003,-0.333 -0.003,-0.311 h 0.006 l 0.002,-0.133 a 59.427,59.427 0 0 0 -10e-4,-1.444 l -0.007,-0.101 0.003,-0.332 -0.003,-0.311 h 0.006 l 0.002,-0.133 a 59.45,59.45 0 0 0 -0.002,-1.557 73.143,73.143 0 0 1 -0.006,-0.632 c 0.119,0 0.243,0.002 0.362,0.006 l 0.035,0.833 c 0,0.107 0.081,0.188 0.189,0.188 h 7.444 l 0.005,-0.13 0.035,-0.924 m -7.483,3.377 h 7.443 l 0.005,-0.13 0.023,-0.618 -0.023,-0.602 c 0,-0.017 -0.005,-0.162 -0.188,-0.162 l -7.314,-0.04 -0.131,-0.001 -0.005,0.131 -0.023,0.679 0.023,0.554 a 0.186,0.186 0 0 0 0.19,0.189 m 0,2.322 h 7.443 l 0.005,-0.13 0.023,-0.618 -0.023,-0.602 c 0,-0.017 -0.005,-0.162 -0.188,-0.162 l -7.314,-0.04 -0.131,-0.001 -0.005,0.131 -0.023,0.679 0.023,0.554 a 0.186,0.186 0 0 0 0.19,0.189 m 7.353,-5.834 -0.04,1.054 h -7.314 c -0.04,0 -0.054,-0.027 -0.054,-0.054 l -0.04,-0.961 c -0.2,-0.013 -0.427,-0.013 -0.627,-0.013 0,0.48 0.013,1.081 0.013,1.602 0,0.232 -0.003,0.479 -0.005,0.721 h -0.008 l 0.003,0.447 -0.003,0.434 h 0.008 c 0.003,0.244 0.006,0.49 0.006,0.721 0,0.232 -0.003,0.478 -0.005,0.721 h -0.008 l 0.003,0.447 -0.003,0.434 h 0.008 c 0.003,0.244 0.006,0.49 0.006,0.721 0,0.534 -0.013,1.148 -0.013,1.602 0.2,0.013 0.44,0.013 0.627,0.013 l 0.04,-1.148 7.314,0.04 c 0.026,0 0.053,0 0.053,0.027 l 0.04,1.054 c 0.132,0.01 0.291,0.019 0.439,0.019 0.061,0 0.12,-0.002 0.175,-0.005 v -1.561 -0.761 -0.894 -0.667 -0.761 -0.894 -0.668 -1.655 c -0.201,-0.015 -0.415,-0.015 -0.615,-0.015 z m -7.353,3.377 c -0.04,0 -0.054,-0.027 -0.054,-0.054 l -0.023,-0.56 0.023,-0.668 7.314,0.04 c 0.026,0 0.053,0 0.053,0.027 l 0.023,0.607 -0.023,0.608 z m 0,2.322 c -0.04,0 -0.054,-0.027 -0.054,-0.054 l -0.023,-0.56 0.023,-0.668 7.314,0.04 c 0.026,0 0.053,0 0.053,0.027 l 0.023,0.607 -0.023,0.608 z"
     id="path96"
     inkscape:connector-curvature="0"
     style="fill:#7c7b7f" />
  <g
     id="g102"
     transform="translate(0,-1.3232943e-4)">
    <path
       d="m 71.403,202.351 c -0.171,0 -0.367,-0.001 -0.542,-0.013 l 0.023,-0.684 c -1.165,-0.473 -2.525,-1.007 -3.7,-1.474 L 66.3,199.835 c -1.171,-0.455 -2.498,-0.97 -3.598,-1.456 0.026,-0.053 0.027,-0.396 0.027,-0.699 1.411,-0.498 3.159,-1.125 4.586,-1.631 0.735,-0.254 1.528,-0.519 2.3,-0.777 l 1.229,-0.413 0.04,-0.128 0.009,-0.164 -0.011,-0.303 -0.118,-0.027 -7.314,-0.04 -0.108,1.212 c -0.118,-0.065 -0.357,-0.065 -0.555,-0.078 l 0.069,-0.668 c 0.003,-0.288 0.007,-0.587 0.007,-0.866 l -0.013,-1.602 c 0.131,0.067 0.357,0.067 0.555,0.081 l -0.023,0.896 0.002,0.064 0.119,0.054 h 7.314 l 0.107,-1.12 c 0.131,0.065 0.343,0.065 0.542,0.079 l -0.063,1.587 v 3.486 c -0.007,-0.037 -0.052,-0.038 -0.099,-0.038 h -0.008 c -0.147,0 -0.308,-0.009 -0.448,-0.019 l 0.023,-1.242 -0.002,-0.086 -0.083,0.023 c -0.55,0.151 -2.373,0.71 -3.047,0.935 l -0.565,0.184 c -1.027,0.333 -2.112,0.686 -3.159,1.058 l -0.045,0.016 v 0.115 c 1.205,0.517 2.446,0.971 3.488,1.345 0.831,0.293 2.559,0.903 3.275,1.096 l 0.085,0.023 0.054,-0.128 0.04,-1.159 c 0.002,0.058 0.066,0.059 0.133,0.059 l 0.427,0.006 -0.067,1.681 v 1.16 z"
       id="path98"
       inkscape:connector-curvature="0"
       style="fill:#a1a1a3" />
    <path
       d="m 70.986,192.304 c 0.115,0 0.233,0.002 0.349,0.006 v 4.908 h -0.041 c -0.104,0 -0.215,-0.005 -0.321,-0.011 l -0.036,-1.185 -0.005,-0.172 -0.166,0.046 c -0.554,0.152 -2.379,0.713 -3.049,0.936 l -0.551,0.179 c -1.044,0.339 -2.123,0.689 -3.176,1.063 l -0.09,0.032 v 0.254 l 0.086,0.034 c 0.954,0.373 2.082,0.792 3.448,1.283 0.766,0.27 2.559,0.903 3.279,1.097 l 0.017,0.005 h 0.018 c 0.108,0 0.189,-0.075 0.189,-0.17 l 0.035,-1.036 0.08,-0.001 c 0.074,0 0.149,0.002 0.221,0.003 l 0.061,0.001 v 2.708 c -0.113,0 -0.234,-0.002 -0.35,-0.006 l -0.034,-0.626 -0.005,-0.089 -0.083,-0.031 c -0.931,-0.344 -2.126,-0.806 -3.655,-1.414 l -0.882,-0.344 c -1.144,-0.444 -2.438,-0.947 -3.523,-1.423 a 15.565,15.565 0 0 1 -0.007,-0.577 c 1.45,-0.557 3.184,-1.178 4.54,-1.66 0.738,-0.255 1.535,-0.521 2.308,-0.78 l 1.162,-0.39 c 0.074,-0.015 0.144,-0.082 0.144,-0.205 l 0.009,-0.18 -0.009,-0.227 c 0,-0.017 -0.005,-0.162 -0.188,-0.162 l -7.314,-0.04 -0.131,-0.001 -0.005,0.131 -0.036,1.017 c -0.116,0 -0.242,-0.002 -0.361,-0.006 l 0.006,-0.607 c 0.003,-0.288 0.007,-0.588 0.007,-0.866 0,-0.266 -0.003,-0.553 -0.007,-0.834 a 73.143,73.143 0 0 1 -0.006,-0.632 c 0.119,0 0.243,0.002 0.362,0.006 l 0.035,0.833 c 0,0.107 0.081,0.188 0.189,0.188 h 7.444 l 0.005,-0.13 0.037,-0.925 m -0.13,-0.135 -0.04,1.055 h -7.314 c -0.04,0 -0.054,-0.027 -0.054,-0.054 l -0.04,-0.961 c -0.2,-0.013 -0.427,-0.013 -0.627,-0.013 0,0.48 0.013,1.081 0.013,1.602 0,0.534 -0.013,1.148 -0.013,1.602 0.2,0.013 0.44,0.013 0.627,0.013 l 0.04,-1.148 7.314,0.04 c 0.026,0 0.053,0 0.053,0.027 l 0.009,0.232 -0.009,0.168 c 0,0.04 -0.013,0.08 -0.04,0.08 -1.108,0.374 -2.362,0.787 -3.484,1.174 a 195.665,195.665 0 0 0 -4.631,1.695 c 0,0.307 0,0.654 0.013,0.761 1.388,0.614 3.123,1.268 4.484,1.802 1.175,0.467 2.536,1.001 3.657,1.415 l 0.04,0.747 c 0.2,0.013 0.427,0.013 0.614,0.013 v -1.228 -1.748 c -0.124,0 -0.273,-0.006 -0.417,-0.006 -0.072,0 -0.143,10e-4 -0.21,0.006 l -0.04,1.161 c 0,0.027 -0.027,0.04 -0.054,0.04 -0.694,-0.187 -2.362,-0.774 -3.27,-1.094 a 139.622,139.622 0 0 1 -3.444,-1.281 v -0.067 c 1.241,-0.441 2.536,-0.854 3.724,-1.241 a 101.14,101.14 0 0 1 3.043,-0.934 l 0.04,1.308 c 0.142,0.01 0.303,0.019 0.452,0.019 0.062,0 0.121,-0.002 0.176,-0.006 v -1.949 -0.054 -1.361 -0.147 -1.655 c -0.199,-0.013 -0.412,-0.013 -0.612,-0.013 z"
       id="path100"
       inkscape:connector-curvature="0"
       style="fill:#7c7b7f" />
  </g>
  <g
     id="g108"
     transform="translate(0,-1.3232943e-4)">
    <path
       d="m 81.714,224.9 c -0.171,0 -0.366,-0.001 -0.541,-0.013 l 0.022,-0.684 c -1.165,-0.474 -2.525,-1.007 -3.699,-1.474 l -0.904,-0.353 c -1.164,-0.452 -2.483,-0.965 -3.578,-1.449 0.027,-0.052 0.027,-0.396 0.027,-0.699 1.41,-0.498 3.159,-1.125 4.586,-1.632 0.744,-0.256 1.547,-0.525 2.327,-0.786 l 1.201,-0.403 0.04,-0.128 0.04,-0.75 c -0.001,0.05 0.05,0.052 0.103,0.052 h 0.01 c 0.144,0 0.289,0.009 0.429,0.019 l -0.063,1.294 v 1.978 c -0.008,-0.037 -0.052,-0.038 -0.1,-0.038 h -0.009 c -0.146,0 -0.307,-0.009 -0.446,-0.019 l 0.022,-1.243 -0.003,-0.086 -0.082,0.023 c -0.56,0.154 -2.382,0.713 -3.047,0.936 l -0.548,0.178 c -1.032,0.335 -2.124,0.69 -3.177,1.064 l -0.045,0.016 v 0.114 c 1.204,0.517 2.446,0.971 3.488,1.345 0.834,0.294 2.568,0.906 3.274,1.096 l 0.085,0.023 0.054,-0.128 0.04,-1.159 c 0.002,0.058 0.066,0.059 0.133,0.059 l 0.427,0.006 -0.067,1.681 v 1.16 z"
       id="path104"
       inkscape:connector-curvature="0"
       style="fill:#a1a1a3" />
    <path
       d="m 81.347,216.649 c 0.1,0 0.201,0.005 0.3,0.01 v 3.107 h -0.04 c -0.104,0 -0.215,-0.005 -0.321,-0.011 l -0.036,-1.185 -0.005,-0.172 -0.166,0.046 c -0.554,0.152 -2.379,0.712 -3.049,0.936 l -0.551,0.179 c -1.043,0.339 -2.122,0.689 -3.176,1.063 l -0.09,0.032 v 0.254 l 0.086,0.034 c 0.965,0.377 2.093,0.797 3.448,1.283 0.832,0.294 2.563,0.905 3.279,1.097 l 0.017,0.005 h 0.018 c 0.108,0 0.189,-0.075 0.189,-0.17 l 0.035,-1.036 0.08,-0.001 c 0.074,0 0.149,0.002 0.221,0.003 l 0.061,0.001 v 2.708 c -0.113,0 -0.234,-0.002 -0.35,-0.006 l -0.034,-0.626 -0.005,-0.089 -0.083,-0.031 c -0.925,-0.342 -2.121,-0.804 -3.655,-1.414 l -0.904,-0.352 c -1.137,-0.442 -2.423,-0.941 -3.501,-1.415 a 15.565,15.565 0 0 1 -0.007,-0.577 c 1.45,-0.557 3.184,-1.179 4.54,-1.66 0.738,-0.255 1.534,-0.521 2.308,-0.78 l 1.163,-0.39 c 0.074,-0.015 0.144,-0.082 0.144,-0.205 l 0.034,-0.638 h 0.05 m 0,-0.135 c -0.06,0 -0.12,0.002 -0.179,0.006 l -0.04,0.761 c 0,0.04 -0.013,0.08 -0.04,0.08 -1.108,0.374 -2.362,0.787 -3.484,1.174 a 195.665,195.665 0 0 0 -4.631,1.695 c 0,0.307 0,0.654 0.013,0.761 1.388,0.614 3.123,1.268 4.484,1.802 1.175,0.467 2.536,1.001 3.657,1.415 l 0.04,0.747 c 0.2,0.013 0.427,0.013 0.614,0.013 v -1.228 -1.748 c -0.124,0 -0.273,-0.006 -0.417,-0.006 -0.072,0 -0.143,0.001 -0.21,0.006 l -0.04,1.161 c 0,0.027 -0.027,0.04 -0.054,0.04 -0.694,-0.187 -2.362,-0.774 -3.27,-1.094 a 139.622,139.622 0 0 1 -3.444,-1.281 v -0.067 c 1.241,-0.441 2.536,-0.854 3.724,-1.241 a 101.14,101.14 0 0 1 3.043,-0.934 l 0.04,1.308 c 0.142,0.01 0.304,0.019 0.452,0.019 0.061,0 0.121,-0.002 0.175,-0.005 v -2.002 -1.361 a 5.125,5.125 0 0 0 -0.433,-0.021 z"
       id="path106"
       inkscape:connector-curvature="0"
       style="fill:#7c7b7f" />
  </g>
  <g
     id="g114"
     transform="translate(0,-1.3232943e-4)">
    <path
       d="m 89.762,250.351 c -0.008,-0.036 -0.052,-0.037 -0.099,-0.037 h -0.009 c -0.146,0 -0.303,-0.009 -0.434,-0.019 l 0.022,-0.989 -0.002,-0.065 -0.119,-0.027 -7.314,-0.04 -0.102,1.147 c -0.175,0 -0.384,-0.001 -0.561,-0.013 l 0.069,-0.669 c 0.003,-0.287 0.007,-0.587 0.007,-0.865 0,-0.266 -0.014,-1.602 -0.014,-1.602 0.132,0.067 0.357,0.067 0.555,0.081 l -0.022,0.896 0.003,0.064 0.119,0.054 h 7.313 l 0.074,-0.245 -0.007,-0.134 c -1.165,-0.473 -2.525,-1.007 -3.699,-1.474 l -0.887,-0.346 c -1.17,-0.454 -2.496,-0.969 -3.596,-1.455 0.026,-0.053 0.026,-0.396 0.026,-0.699 1.411,-0.498 3.159,-1.125 4.586,-1.631 0.74,-0.255 1.538,-0.522 2.314,-0.782 l 1.215,-0.408 0.04,-0.128 0.04,-0.75 c -0.001,0.05 0.049,0.051 0.103,0.051 h 0.009 c 0.144,0 0.29,0.009 0.43,0.019 l -0.063,1.294 v 1.977 c -0.008,-0.036 -0.052,-0.037 -0.099,-0.037 H 89.651 A 6.46,6.46 0 0 1 89.204,243.5 l 0.022,-1.242 -0.003,-0.086 -0.082,0.023 c -0.55,0.15 -2.371,0.71 -3.047,0.935 l -0.548,0.178 c -1.032,0.335 -2.124,0.689 -3.177,1.063 l -0.045,0.016 v 0.115 c 1.204,0.517 2.446,0.971 3.488,1.345 0.764,0.27 2.551,0.901 3.274,1.096 l 0.085,0.023 0.054,-0.128 0.04,-1.159 c 0.002,0.058 0.066,0.059 0.133,0.059 l 0.427,0.006 -0.067,1.415 v 3.192 z"
       id="path110"
       inkscape:connector-curvature="0"
       style="fill:#a1a1a3" />
    <path
       d="m 89.395,240.334 c 0.1,0 0.201,0.005 0.3,0.01 v 3.107 h -0.041 c -0.104,0 -0.215,-0.005 -0.321,-0.011 l -0.036,-1.185 -0.005,-0.172 -0.166,0.046 c -0.554,0.152 -2.379,0.713 -3.049,0.936 l -0.551,0.179 c -1.044,0.339 -2.123,0.689 -3.176,1.063 l -0.09,0.032 v 0.254 l 0.086,0.034 c 0.954,0.373 2.082,0.792 3.448,1.283 0.766,0.27 2.559,0.903 3.279,1.097 l 0.017,0.005 h 0.018 c 0.108,0 0.189,-0.075 0.189,-0.17 l 0.035,-1.036 0.08,-0.001 c 0.074,0 0.149,0.002 0.221,0.003 l 0.061,0.001 v 4.436 h -0.04 c -0.102,0 -0.209,-0.005 -0.309,-0.011 l -0.035,-0.928 c 0,-0.017 -0.005,-0.162 -0.188,-0.162 l -7.314,-0.04 -0.131,-0.001 -0.005,0.131 -0.036,1.017 c -0.116,0 -0.242,-0.002 -0.361,-0.006 l 0.006,-0.607 c 0.003,-0.288 0.007,-0.588 0.007,-0.866 0,-0.266 -0.003,-0.553 -0.007,-0.834 a 73.143,73.143 0 0 1 -0.006,-0.632 c 0.119,0 0.243,0.002 0.362,0.006 l 0.035,0.833 c 0,0.107 0.081,0.189 0.189,0.189 h 7.444 l 0.005,-0.13 0.007,-0.192 -0.007,-0.128 -0.005,-0.089 -0.083,-0.031 c -0.931,-0.344 -2.126,-0.806 -3.655,-1.414 l -0.881,-0.343 c -1.145,-0.444 -2.439,-0.947 -3.524,-1.424 a 15.565,15.565 0 0 1 -0.007,-0.577 202.245,202.245 0 0 1 4.54,-1.66 c 0.738,-0.255 1.535,-0.521 2.308,-0.78 l 1.162,-0.39 c 0.074,-0.015 0.144,-0.082 0.144,-0.205 l 0.034,-0.638 a 0.92,0.92 0 0 0 0.052,0.001 m 0,-0.135 c -0.06,0 -0.12,0.002 -0.179,0.006 l -0.04,0.761 c 0,0.04 -0.013,0.08 -0.04,0.08 -1.108,0.374 -2.362,0.787 -3.484,1.174 a 195.665,195.665 0 0 0 -4.631,1.695 c 0,0.307 0,0.654 0.013,0.761 1.388,0.614 3.123,1.268 4.484,1.802 1.175,0.467 2.536,1.001 3.657,1.415 l 0.007,0.128 -0.007,0.18 h -7.314 c -0.04,0 -0.054,-0.027 -0.054,-0.054 l -0.04,-0.961 c -0.2,-0.013 -0.427,-0.013 -0.627,-0.013 0,0.48 0.013,1.081 0.013,1.602 0,0.534 -0.013,1.148 -0.013,1.602 0.2,0.013 0.44,0.013 0.627,0.013 l 0.04,-1.148 7.314,0.04 c 0.026,0 0.053,0 0.053,0.027 l 0.04,1.054 c 0.132,0.01 0.291,0.019 0.439,0.019 0.061,0 0.12,-0.002 0.175,-0.005 v -1.561 -0.161 -1.228 -0.266 -1.482 c -0.124,0 -0.273,-0.006 -0.417,-0.006 -0.072,0 -0.143,0.001 -0.21,0.006 l -0.04,1.161 c 0,0.027 -0.027,0.04 -0.054,0.04 -0.694,-0.187 -2.362,-0.774 -3.27,-1.094 a 139.622,139.622 0 0 1 -3.444,-1.281 v -0.067 c 1.241,-0.441 2.536,-0.854 3.724,-1.241 a 101.14,101.14 0 0 1 3.043,-0.934 l 0.04,1.308 c 0.142,0.01 0.303,0.019 0.452,0.019 0.062,0 0.121,-0.002 0.176,-0.006 v -2.002 -1.361 a 5.122,5.122 0 0 0 -0.433,-0.022 z"
       id="path112"
       inkscape:connector-curvature="0"
       style="fill:#7c7b7f" />
  </g>
  <g
     stroke-miterlimit="10"
     id="g122"
     style="fill:#dcdde2;stroke:#b2b2b2;stroke-width:0.13500001;stroke-miterlimit:10"
     transform="translate(0,-1.3232943e-4)">
    <path
       d="m 119.944,142.84 c -0.475,1.295 -1.195,2.627 -2.434,3.33 -1.215,0.599 -2.685,-0.027 -3.564,-0.94 l -0.031,-0.031 c 0.56,-0.346 1.125,-0.713 1.519,-1.252 1.052,-1.388 1.429,-3.16 1.531,-4.864 0.003,-1.639 -0.21,-3.357 -1.067,-4.788 -0.451,-0.742 -1.212,-1.471 -2.152,-1.344 -0.959,0.032 -1.694,0.738 -2.21,1.482 -0.855,-0.058 -1.597,0.416 -2.081,1.086 -0.237,0.001 -0.364,-0.023 -0.774,0.154 -1.354,0.925 -1.454,2.795 -1.317,4.28 0.281,0.881 -0.345,-0.18 -0.592,-0.124 -0.458,0.159 -0.185,0.687 -0.113,0.93 0.367,0.64 0.774,1.273 1.484,1.67 0.658,0.218 0.308,0.123 0.864,0.636 0.485,0.47 1.244,0.509 1.67,1.059 0.53,0.589 1.281,0.852 1.981,1.166 0.981,1.059 2.271,2.03 3.786,1.992 1.147,0.058 2.169,-0.652 2.873,-1.499 1.139,-1.395 1.721,-3.168 1.991,-4.928 0.151,-0.409 -0.333,-0.815 -0.699,-0.533 -0.331,0.807 -0.32,1.712 -0.665,2.518 z m -9.592,-6.92 c 0.2,-0.345 0.526,-0.517 0.747,-0.602 -0.098,0.406 -0.186,0.771 -0.239,1.201 -0.008,0.179 -0.018,0.271 -0.023,0.331 -0.044,-0.124 -0.13,-0.254 -0.179,-0.375 -0.098,-0.186 -0.209,-0.409 -0.306,-0.555 z m 1.084,4.191 c 0,0 -0.035,-0.561 -0.027,-0.756 0.008,-0.195 0.135,-2.422 0.45,-3.325 0.115,-0.402 0.171,-0.097 0.229,-0.002 0.524,0.928 0.635,2.03 0.631,3.079 -0.056,0.959 -0.205,1.95 -0.723,2.778 -0.084,0.109 -0.136,0.235 -0.235,-0.09 -0.087,-0.241 -0.238,-1.063 -0.325,-1.684 z m -1.656,0.76 c -0.161,-0.95 -0.182,-1.925 -0.119,-2.88 0.063,-0.307 0.053,-0.7 0.223,-0.986 0.353,0.937 0.487,2.056 0.254,3.028 -0.083,0.292 -0.083,0.652 -0.358,0.838 z m -1.56,-1.851 c 0.041,-0.852 0.114,-1.835 0.776,-2.457 a 9.865,9.865 0 0 0 0.085,5.18 c -0.653,-0.736 -0.838,-1.771 -0.861,-2.723 z m 2.006,3.039 c 0.283,-0.228 0.432,-0.536 0.521,-0.859 0.136,0.509 0.273,1.02 0.423,1.526 -0.526,0.285 -0.818,-0.216 -0.944,-0.667 z m 2.307,1.429 c -0.059,-0.216 -0.336,-0.47 -0.098,-0.677 0.82,-1.061 1.118,-2.417 1.202,-3.73 0.008,-1.465 -0.266,-3.011 -1.219,-4.175 0.27,-0.872 1.651,-1.497 2.328,-0.652 1.106,1.332 1.329,3.169 1.291,4.844 -0.025,1.621 -0.409,3.353 -1.534,4.579 -0.345,0.404 -0.838,0.614 -1.339,0.748 -0.22,-0.306 -0.429,-0.62 -0.631,-0.937 z"
       id="path116"
       inkscape:connector-curvature="0" />
    <circle
       cx="121.039"
       cy="139.108"
       r="0.685"
       id="circle118" />
    <path
       d="m 105.326,139.108 4.577,-8.041 h 5.574 l 4.142,7.684 0.475,-0.256 -4.295,-7.967 h -9.943 l -4.892,8.58 4.838,8.499 h 4.362 z m 0.79,7.959 -4.223,-7.419 h 3.119 l 4.223,7.419 z"
       id="path120"
       inkscape:connector-curvature="0" />
  </g>
  <g
     id="g126"
     transform="translate(0,-1.3232943e-4)">
    <path
       d="m 93.93,131.625 v 1.322 c 0,0.302 -0.282,0.659 -0.437,0.817 l -2.57,2.318 h 3.004 v 0.787 h -4.1 v -1.376 c 0.007,-0.244 0.058,-0.485 0.333,-0.767 l 2.573,-2.314 h -2.906 v -0.783 h 4.104 z m -4.126,16.405 a 13.23,13.23 0 0 1 -0.062,-2.853 c 0.05,-0.558 0.163,-1.108 0.426,-1.608 0.33,-0.636 1.066,-0.837 1.737,-0.825 0.616,0.007 1.279,0.19 1.635,0.74 0.237,0.36 0.314,0.748 0.388,1.159 0.197,1.12 0.15,2.24 0.035,3.332 h -0.586 c 0.252,-1.286 0.186,-2.646 -0.403,-3.108 -0.368,-0.29 -0.732,-0.33 -1.042,-0.33 -0.554,0 -1.4,0.19 -1.562,1.319 -0.109,0.736 -0.027,1.465 0.105,2.178 h -0.67 z m 0.636,-8.066 c 0,0.112 -0.007,1.887 0,2.496 h -0.611 a 45.752,45.752 0 0 1 -0.016,-3.647 c 0.043,-1.05 0.574,-1.233 1.081,-1.252 h 3.039 v 4.84 h -0.585 v -3.131 h -1.043 v 2.852 h -0.57 v -2.852 c -0.31,0 -0.659,0.012 -0.72,0.012 -0.4,0.019 -0.547,0.201 -0.574,0.682"
       id="path124"
       inkscape:connector-curvature="0"
       style="fill:#a6a6ae" />
  </g>
  <g
     id="g166"
     transform="translate(0,-1.3232943e-4)">
    <circle
       cx="59.217999"
       cy="52.59"
       r="27.995001"
       id="circle128"
       style="fill:#5e5f64" />
    <circle
       cx="58.138"
       cy="52.59"
       r="25.927999"
       id="circle130"
       style="fill:#808086" />
    <circle
       cx="60.298"
       cy="52.59"
       r="25.927999"
       id="circle132"
       style="fill:#bcbcc0" />
    <circle
       cx="59.217999"
       cy="52.59"
       r="25.927999"
       id="circle134"
       style="fill:#a9a9b0" />
    <path
       d="m 81.961,62.916 c 1.364,0.317 3.188,-4.589 3.273,-9.643 0.09,-5.351 -1.637,-10.869 -3.071,-10.536 L 71.142,44.263 A 2.672,2.672 0 0 1 68.075,42.189 L 68.047,42.057 A 2.671,2.671 0 0 1 68.01,41.152 l 1.6,-11.238 c 0.317,-1.364 -4.589,-3.188 -9.643,-3.273 -5.351,-0.09 -10.869,1.637 -10.536,3.071 l 1.526,11.021 A 2.672,2.672 0 0 1 48.883,43.8 l -0.132,0.028 a 2.671,2.671 0 0 1 -0.905,0.037 l -11.238,-1.6 c -1.364,-0.317 -3.188,4.589 -3.273,9.643 -0.09,5.351 1.638,10.869 3.071,10.536 l 11.021,-1.526 a 2.672,2.672 0 0 1 3.067,2.074 l 0.028,0.132 c 0.064,0.297 0.076,0.603 0.037,0.905 l -1.6,11.238 c -0.317,1.364 4.589,3.188 9.643,3.273 5.351,0.09 10.869,-1.637 10.536,-3.071 L 67.612,64.448 a 2.672,2.672 0 0 1 2.074,-3.067 l 0.132,-0.028 c 0.297,-0.064 0.603,-0.076 0.905,-0.037 z"
       id="path136"
       inkscape:connector-curvature="0"
       style="fill:#96969e" />
    <path
       d="m 60.684,76.987 a 12.929,12.929 0 0 1 -4.228,0 L 55.268,76.798 C 52.941,76.35 51.397,73.04 51.796,70.702 l 1.031,-6.036 a 4.368,4.368 0 0 0 -0.07,-1.814 l -0.281,-1.096 a 4.373,4.373 0 0 0 -3.148,-3.142 4.328,4.328 0 0 0 -2.052,-0.022 l -6.155,1.42 c -2.446,0.562 -5.944,-1.053 -6.355,-3.531 L 34.42,54.105 a 10.625,10.625 0 0 1 -0.022,-2.894 l 0.329,-2.43 c 0.432,-2.457 3.914,-4.044 6.344,-3.482 l 6.204,1.431 c 0.319,0.07 0.648,0.108 0.977,0.108 a 4.36,4.36 0 0 0 4.222,-3.277 l 0.281,-1.096 a 4.368,4.368 0 0 0 0.07,-1.814 l -1.031,-6.036 c -0.4,-2.338 1.145,-5.642 3.472,-6.09 l 1.112,-0.184 a 13.548,13.548 0 0 1 4.384,0 l 1.107,0.184 c 2.332,0.448 3.871,3.752 3.472,6.09 l -1.031,6.036 a 4.353,4.353 0 0 0 0.076,1.814 l 0.281,1.096 c 0.2,0.772 0.599,1.458 1.139,2.003 a 4.319,4.319 0 0 0 2.003,1.139 4.415,4.415 0 0 0 2.057,0.027 l 6.198,-1.431 c 2.43,-0.562 5.917,1.026 6.349,3.482 l 0.184,1.382 a 17.743,17.743 0 0 1 -0.027,4.989 l -0.194,1.328 c -0.416,2.478 -3.909,4.093 -6.36,3.531 l -6.15,-1.42 a 4.309,4.309 0 0 0 -2.057,0.022 4.352,4.352 0 0 0 -3.142,3.142 l -0.281,1.096 a 4.386,4.386 0 0 0 -0.076,1.814 l 1.031,6.036 c 0.4,2.338 -1.139,5.647 -3.472,6.096 z"
       id="path138"
       inkscape:connector-curvature="0"
       style="fill:#7d7d7f" />
    <path
       d="m 61.764,76.987 a 12.929,12.929 0 0 1 -4.228,0 L 56.348,76.798 C 54.021,76.35 52.477,73.04 52.876,70.702 l 1.031,-6.036 a 4.368,4.368 0 0 0 -0.07,-1.814 l -0.281,-1.096 a 4.373,4.373 0 0 0 -3.148,-3.142 4.328,4.328 0 0 0 -2.052,-0.022 l -6.155,1.42 c -2.446,0.562 -5.944,-1.053 -6.355,-3.531 L 35.5,54.105 a 10.625,10.625 0 0 1 -0.022,-2.894 l 0.329,-2.43 c 0.432,-2.457 3.914,-4.044 6.344,-3.482 l 6.204,1.431 c 0.319,0.07 0.648,0.108 0.977,0.108 a 4.36,4.36 0 0 0 4.222,-3.277 l 0.281,-1.096 a 4.368,4.368 0 0 0 0.07,-1.814 l -1.031,-6.036 c -0.4,-2.338 1.145,-5.642 3.472,-6.09 l 1.112,-0.184 a 13.548,13.548 0 0 1 4.384,0 l 1.107,0.184 c 2.332,0.448 3.871,3.752 3.472,6.09 l -1.031,6.036 a 4.353,4.353 0 0 0 0.076,1.814 l 0.281,1.096 c 0.2,0.772 0.599,1.458 1.139,2.003 a 4.319,4.319 0 0 0 2.003,1.139 4.415,4.415 0 0 0 2.057,0.027 l 6.198,-1.431 c 2.43,-0.562 5.917,1.026 6.349,3.482 l 0.184,1.382 a 17.743,17.743 0 0 1 -0.027,4.989 l -0.194,1.328 c -0.416,2.478 -3.909,4.093 -6.36,3.531 l -6.15,-1.42 a 4.309,4.309 0 0 0 -2.057,0.022 4.352,4.352 0 0 0 -3.142,3.142 l -0.281,1.096 a 4.386,4.386 0 0 0 -0.076,1.814 l 1.031,6.036 c 0.4,2.338 -1.139,5.647 -3.472,6.096 z"
       id="path140"
       inkscape:connector-curvature="0"
       style="fill:#c1c0c3" />
    <path
       d="m 61.224,76.987 a 12.929,12.929 0 0 1 -4.228,0 L 55.808,76.798 C 53.481,76.35 51.937,73.04 52.336,70.702 l 1.031,-6.036 a 4.368,4.368 0 0 0 -0.07,-1.814 l -0.281,-1.096 a 4.373,4.373 0 0 0 -3.148,-3.142 4.328,4.328 0 0 0 -2.052,-0.022 l -6.155,1.42 c -2.446,0.562 -5.944,-1.053 -6.355,-3.531 L 34.96,54.105 a 10.625,10.625 0 0 1 -0.022,-2.894 l 0.329,-2.43 c 0.432,-2.457 3.914,-4.044 6.344,-3.482 l 6.204,1.431 c 0.319,0.07 0.648,0.108 0.977,0.108 a 4.36,4.36 0 0 0 4.222,-3.277 l 0.281,-1.096 a 4.368,4.368 0 0 0 0.07,-1.814 l -1.031,-6.036 c -0.4,-2.338 1.145,-5.642 3.472,-6.09 l 1.112,-0.184 a 13.548,13.548 0 0 1 4.384,0 l 1.107,0.184 c 2.332,0.448 3.871,3.752 3.472,6.09 l -1.031,6.036 a 4.353,4.353 0 0 0 0.076,1.814 l 0.281,1.096 c 0.2,0.772 0.599,1.458 1.139,2.003 a 4.319,4.319 0 0 0 2.003,1.139 4.415,4.415 0 0 0 2.057,0.027 l 6.198,-1.431 c 2.43,-0.562 5.917,1.026 6.349,3.482 l 0.184,1.382 a 17.743,17.743 0 0 1 -0.027,4.989 l -0.194,1.328 c -0.416,2.478 -3.909,4.093 -6.36,3.531 l -6.15,-1.42 a 4.309,4.309 0 0 0 -2.057,0.022 4.352,4.352 0 0 0 -3.142,3.142 l -0.281,1.096 a 4.386,4.386 0 0 0 -0.076,1.814 l 1.031,6.036 c 0.4,2.338 -1.139,5.647 -3.472,6.096 z"
       id="path142"
       inkscape:connector-curvature="0"
       style="fill:#a4a4ac" />
    <circle
       cx="78.501999"
       cy="52.403999"
       r="1.164"
       id="circle144"
       style="fill:#9899a0" />
    <path
       d="m 77.148,52.404 c 0,-0.747 0.608,-1.355 1.354,-1.355 0.746,0 1.354,0.608 1.354,1.355 0,0.747 -0.608,1.354 -1.354,1.354 -0.746,0 -1.354,-0.607 -1.354,-1.354 z m 2.328,0 a 0.975,0.975 0 0 0 -1.948,0 0.975,0.975 0 0 0 1.948,0 z"
       id="path146"
       inkscape:connector-curvature="0"
       style="fill:#7c7c84" />
    <g
       id="g152">
      <circle
         cx="59.285"
         cy="33.237"
         r="1.164"
         id="circle148"
         style="fill:#9899a0" />
      <path
         d="m 57.93,33.237 a 1.356,1.356 0 0 1 2.709,0 1.355,1.355 0 0 1 -2.709,0 z m 2.329,0 a 0.975,0.975 0 0 0 -1.949,0 0.975,0.975 0 0 0 1.949,0 z"
         id="path150"
         inkscape:connector-curvature="0"
         style="fill:#7c7c84" />
    </g>
    <g
       id="g158">
      <circle
         cx="59.285"
         cy="71.638"
         r="1.164"
         id="circle154"
         style="fill:#9899a0" />
      <path
         d="m 57.93,71.638 a 1.356,1.356 0 0 1 2.709,0 c 0,0.747 -0.608,1.355 -1.355,1.355 A 1.357,1.357 0 0 1 57.93,71.638 Z m 2.329,0 a 0.975,0.975 0 0 0 -1.949,0 0.975,0.975 0 0 0 1.949,0 z"
         id="path156"
         inkscape:connector-curvature="0"
         style="fill:#7c7c84" />
    </g>
    <g
       id="g164">
      <circle
         cx="40.118"
         cy="52.403999"
         r="1.164"
         id="circle160"
         style="fill:#9899a0" />
      <path
         d="m 38.764,52.404 c 0,-0.747 0.608,-1.355 1.354,-1.355 a 1.356,1.356 0 0 1 0,2.709 1.354,1.354 0 0 1 -1.354,-1.354 z m 2.328,0 a 0.975,0.975 0 0 0 -1.948,0 0.975,0.975 0 0 0 1.948,0 z"
         id="path162"
         inkscape:connector-curvature="0"
         style="fill:#7c7c84" />
    </g>
  </g>
</svg>
