<?xml version="1.0" encoding="UTF-8" standalone="no"?>
<svg
   xmlns:dc="http://purl.org/dc/elements/1.1/"
   xmlns:cc="http://creativecommons.org/ns#"
   xmlns:rdf="http://www.w3.org/1999/02/22-rdf-syntax-ns#"
   xmlns:svg="http://www.w3.org/2000/svg"
   xmlns="http://www.w3.org/2000/svg"
   xmlns:sodipodi="http://sodipodi.sourceforge.net/DTD/sodipodi-0.dtd"
   xmlns:inkscape="http://www.inkscape.org/namespaces/inkscape"
   viewBox="0 0 252.27999 252.27999"
   version="1.1"
   id="svg62"
   sodipodi:docname="game.svg"
   width="252.28"
   height="252.28"
   inkscape:version="0.92.4 5da689c313, 2019-01-14">
  <metadata
     id="metadata68">
    <rdf:RDF>
      <cc:Work
         rdf:about="">
        <dc:format>image/svg+xml</dc:format>
        <dc:type
           rdf:resource="http://purl.org/dc/dcmitype/StillImage" />
      </cc:Work>
    </rdf:RDF>
  </metadata>
  <defs
     id="defs66" />
  <sodipodi:namedview
     pagecolor="#ffffff"
     bordercolor="#666666"
     borderopacity="1"
     objecttolerance="10"
     gridtolerance="10"
     guidetolerance="10"
     inkscape:pageopacity="0"
     inkscape:pageshadow="2"
     inkscape:window-width="471"
     inkscape:window-height="442"
     id="namedview64"
     showgrid="false"
     inkscape:zoom="0.9354648"
     inkscape:cx="126.1405"
     inkscape:cy="126.1395"
     inkscape:window-x="0"
     inkscape:window-y="0"
     inkscape:window-maximized="0"
     inkscape:current-layer="svg62" />
  <path
     d="m 126.14,77.627 c -26.793,0 -48.513,21.72 -48.513,48.513 0,26.793 21.72,48.513 48.513,48.513 26.793,0 48.513,-21.72 48.513,-48.513 0,-26.793 -21.72,-48.513 -48.513,-48.513 z m 0,63.998 c -8.552,0 -15.484,-6.932 -15.484,-15.484 0,-8.552 6.932,-15.484 15.484,-15.484 8.552,0 15.484,6.932 15.484,15.484 0,8.552 -6.932,15.484 -15.484,15.484 z"
     id="path2"
     inkscape:connector-curvature="0"
     style="fill:#b6b6b5" />
  <path
     d="M 126.14,0 C 56.475,0 0,56.475 0,126.14 c 0,69.665 56.475,126.14 126.14,126.14 69.665,0 126.14,-56.475 126.14,-126.14 C 252.28,56.475 195.806,0 126.14,0 Z m 0,174.653 c -26.793,0 -48.513,-21.72 -48.513,-48.513 0,-26.793 21.72,-48.513 48.513,-48.513 26.793,0 48.513,21.72 48.513,48.513 0,26.793 -21.72,48.513 -48.513,48.513 z"
     id="path4"
     inkscape:connector-curvature="0"
     style="fill:#fcc00d" />
  <path
     d="m 206.386,130.842 c 0.575,0 1.147,-0.035 1.686,-0.241 1.444,-0.497 2.4,-2.023 2.352,-3.529 a 3.793,3.793 0 0 0 -0.738,-2.06 c -0.664,-0.939 -1.822,-1.472 -2.963,-1.444 l -2.568,-0.001 v 2.17 l -0.007,0.03 0.007,-10e-4 v 7.929 h 1.045 v -2.853 m -0.01,-6.339 c 0.588,-0.001 1.177,-0.014 1.764,0.014 0.875,0.058 1.724,0.546 2.152,1.321 0.536,0.917 0.475,2.157 -0.186,2.994 a 2.567,2.567 0 0 1 -1.988,1.031 c -0.577,0.008 -1.142,0.004 -1.732,0.004 z"
     id="path6"
     inkscape:connector-curvature="0"
     style="fill:#927d4c" />
  <g
     id="g12"
     style="fill:#927d4c">
    <path
       d="m 221.783,129.393 v -1.968 h -1.537 a 4.29,4.29 0 0 1 0.087,1.968 z"
       id="path8"
       inkscape:connector-curvature="0" />
    <path
       d="m 219.956,130.513 a 4.31,4.31 0 1 1 -0.207,-4.208 h 1.084 a 5.261,5.261 0 1 0 0.161,4.209 h -1.038 z"
       id="path10"
       inkscape:connector-curvature="0" />
  </g>
  <path
     stroke-miterlimit="10"
     d="m 189.794,118.504 -8.223,4.432 v 10.162"
     id="path14"
     inkscape:connector-curvature="0"
     style="fill:none;stroke:#927d4c;stroke-width:0.523;stroke-miterlimit:10" />
  <path
     d="m 191.58,117.712 c -0.296,-0.385 0.13,-0.893 0.56,-0.735 1.849,0.284 3.713,0.895 5.178,2.092 0.89,0.74 1.635,1.814 1.575,3.019 0.039,1.592 -0.981,2.948 -2.094,3.978 -0.33,0.735 -0.606,1.525 -1.225,2.081 -0.578,0.448 -0.619,1.245 -1.113,1.755 -0.54,0.584 -0.439,0.216 -0.669,0.908 -0.417,0.746 -1.082,1.175 -1.754,1.56 -0.256,0.075 -0.81,0.363 -0.978,-0.119 -0.059,-0.26 1.056,-0.917 0.13,-0.622 -1.56,0.144 -3.525,0.039 -4.497,-1.384 -0.187,-0.431 -0.161,-0.565 -0.162,-0.813 -0.704,-0.508 -1.202,-1.287 -1.141,-2.186 -0.781,-0.542 -1.523,-1.314 -1.557,-2.322 -0.134,-0.988 0.633,-1.787 1.412,-2.261 1.503,-0.901 3.308,-1.125 5.03,-1.122 1.79,0.107 3.652,0.503 5.111,1.608 0.567,0.414 0.952,1.008 1.316,1.596 l 0.032,-0.032 c 0.959,-0.924 1.617,-2.468 0.988,-3.745 -0.738,-1.302 -2.138,-2.058 -3.499,-2.557 -0.845,-0.362 -1.796,-0.351 -2.643,-0.699 z m -6.377,6.161 c -0.888,0.712 -0.232,2.163 0.685,2.447 1.223,-1 2.848,-1.289 4.387,-1.28 1.38,0.087 2.805,0.401 3.92,1.263 0.218,0.25 0.485,-0.041 0.712,-0.103 0.333,-0.212 0.663,-0.432 0.984,-0.663 -0.141,-0.526 -0.362,-1.045 -0.786,-1.407 -1.287,-1.182 -3.108,-1.585 -4.811,-1.612 -1.761,-0.041 -3.691,0.193 -5.091,1.355 z m 6.155,3.478 c 0.653,-0.091 1.516,-0.25 1.77,-0.342 0.342,-0.104 0.21,-0.159 0.095,-0.247 -0.87,-0.544 -1.912,-0.701 -2.919,-0.76 -1.102,-0.004 -2.259,0.112 -3.235,0.663 -0.1,0.061 -0.42,0.12 0.002,0.241 0.948,0.331 3.289,0.464 3.493,0.473 0.204,0.009 0.794,-0.028 0.794,-0.028 z m -5.037,0.355 c 0.089,0.231 0.27,0.574 0.633,0.785 0.153,-0.102 0.387,-0.218 0.584,-0.322 0.127,-0.052 0.263,-0.142 0.394,-0.188 -0.064,-0.004 -0.16,-0.016 -0.348,-0.024 a 10.852,10.852 0 0 1 -1.263,-0.251 z m 6.181,0.369 c 0.339,0.094 0.662,0.25 0.902,0.547 0.473,-0.132 1,-0.439 0.701,-0.991 -0.531,0.157 -1.068,0.301 -1.603,0.444 z m -4.408,0.907 c 0.301,0.178 0.714,0.168 1.036,0.234 1.003,0.066 2.028,0.045 3.026,-0.125 -0.196,-0.289 -0.574,-0.289 -0.881,-0.376 -1.022,-0.244 -2.197,-0.104 -3.181,0.267 z m -0.466,0.933 c 0.654,0.695 1.687,0.772 2.582,0.815 1,-0.023 2.088,-0.218 2.86,-0.904 a 10.36,10.36 0 0 1 -5.442,0.089 z"
     id="path16"
     inkscape:connector-curvature="0"
     style="fill:#927d4c" />
  <circle
     cx="190.30299"
     cy="117.261"
     r="0.72000003"
     id="circle18"
     style="fill:#927d4c" />
  <path
     d="m 190.303,138.354 -8.93,-5.083 v -4.583 l 8.93,5.083 z"
     id="path20"
     inkscape:connector-curvature="0"
     style="fill:#927d4c" />
  <path
     d="m 198.711,129.586 v 3.381 l -7.886,4.488 v -3.381 l 7.886,-4.488 m 0.523,-0.898 -8.93,5.083 v 4.583 l 8.93,-5.083 z"
     id="path22"
     inkscape:connector-curvature="0"
     style="fill:#937d4c" />
  <path
     d="m 227.673,125.576 v -2.008 h -5.067 v 10.131 h 1.924 v -4.306 h 2.998 v -1.968 h -2.998 v -1.849 z"
     id="path24"
     inkscape:connector-curvature="0"
     style="fill:#927d4c" />
  <path
     d="m 235.741,133.699 -3.01,-5.264 2.783,-4.867 h -2.316 l -1.625,2.842 -1.625,-2.842 h -2.316 l 2.783,4.867 -3.01,5.264 h 2.316 l 1.852,-3.239 1.852,3.239 z"
     id="path26"
     inkscape:connector-curvature="0"
     style="fill:#927d4c" />
  <g
     id="g30">
    <path
       d="m 126.14,4.073 c 32.605,0 63.259,12.697 86.315,35.753 23.056,23.056 35.753,53.709 35.753,86.315 0,32.606 -12.697,63.259 -35.753,86.315 -23.056,23.056 -53.709,35.753 -86.315,35.753 -32.606,0 -63.259,-12.697 -86.315,-35.753 C 16.77,189.4 4.073,158.746 4.073,126.14 4.073,93.534 16.77,62.881 39.825,39.825 62.881,16.77 93.535,4.073 126.14,4.073 M 126.14,0 C 56.475,0 0,56.475 0,126.14 c 0,69.665 56.475,126.14 126.14,126.14 69.665,0 126.14,-56.475 126.14,-126.14 C 252.28,56.475 195.806,0 126.14,0 Z"
       id="path28"
       inkscape:connector-curvature="0"
       style="fill:#020203" />
  </g>
  <g
     id="g34">
    <path
       d="m 126.14,82.379 c 24.13,0 43.762,19.631 43.762,43.762 0,24.131 -19.631,43.762 -43.762,43.762 -24.131,0 -43.762,-19.631 -43.762,-43.762 0,-24.131 19.632,-43.762 43.762,-43.762 m 0,-4.752 c -26.793,0 -48.513,21.72 -48.513,48.513 0,26.793 21.72,48.513 48.513,48.513 26.793,0 48.513,-21.72 48.513,-48.513 0,-26.793 -21.72,-48.513 -48.513,-48.513 z"
       id="path32"
       inkscape:connector-curvature="0"
       style="fill:#020203" />
  </g>
  <g
     id="g38">
    <path
       d="m 126.14,87.198 c 21.473,0 38.942,17.469 38.942,38.942 0,21.473 -17.469,38.942 -38.942,38.942 -21.473,0 -38.942,-17.469 -38.942,-38.942 0,-21.473 17.47,-38.942 38.942,-38.942 m 0,-0.136 c -21.582,0 -39.078,17.496 -39.078,39.078 0,21.582 17.496,39.078 39.078,39.078 21.582,0 39.078,-17.496 39.078,-39.078 0,-21.582 -17.495,-39.078 -39.078,-39.078 z"
       id="path36"
       inkscape:connector-curvature="0"
       style="fill:#020203" />
  </g>
  <g
     id="g42">
    <path
       d="m 126.14,110.71 c 8.508,0 15.43,6.922 15.43,15.43 0,8.508 -6.922,15.43 -15.43,15.43 -8.508,0 -15.43,-6.922 -15.43,-15.43 0,-8.508 6.922,-15.43 15.43,-15.43 m 0,-0.054 c -8.552,0 -15.484,6.933 -15.484,15.484 0,8.551 6.933,15.484 15.484,15.484 8.551,0 15.484,-6.933 15.484,-15.484 0,-8.551 -6.932,-15.484 -15.484,-15.484 z"
       id="path40"
       inkscape:connector-curvature="0"
       style="fill:#020203" />
  </g>
  <g
     id="g46">
    <path
       d="m 91.412,184.057 h 5.507 c 1.26,0 2.744,1.178 3.406,1.825 l 9.666,10.716 v -12.537 h 3.282 v 17.106 h -5.747 c -1.023,-0.035 -2.03,-0.244 -3.201,-1.395 l -9.646,-10.735 v 12.13 h -3.267 z m 68.438,17.226 c -3.934,0.535 -7.91,0.59 -11.894,0.256 -2.333,-0.206 -4.62,-0.686 -6.712,-1.779 -2.643,-1.372 -3.488,-4.45 -3.453,-7.243 0.03,-2.578 0.794,-5.33 3.096,-6.829 1.508,-0.988 3.116,-1.314 4.83,-1.624 4.67,-0.821 9.347,-0.635 13.904,-0.14 v 2.442 c -5.371,-1.042 -11.049,-0.783 -12.975,1.686 -1.205,1.535 -1.376,3.062 -1.376,4.348 0,2.318 0.795,5.837 5.504,6.519 3.073,0.45 6.115,0.109 9.08,-0.43 v 2.794 z m -33.646,-2.663 c 0.465,0.003 7.871,0.038 10.414,0 v 2.557 c -5.12,0.198 -10.038,0.283 -15.212,0.07 -4.387,-0.182 -5.146,-2.387 -5.228,-4.507 v -12.68 h 20.195 v 2.437 H 123.31 v 4.356 h 11.91 v 2.376 h -11.91 c 0,1.286 0.043,2.744 0.054,3.007 0.066,1.655 0.837,2.267 2.841,2.383"
       id="path44"
       inkscape:connector-curvature="0"
       style="fill:#2068b1" />
  </g>
  <g
     id="g52"
     style="fill:#927d4c">
    <path
       d="m 55.605,109.24 a 5.15,5.15 0 0 1 -0.01,0.234 c -0.028,0.249 0,0.367 -0.718,0.367 -0.718,0 -0.69,-0.118 -0.718,-0.367 a 16.09,16.09 0 0 1 0,-1.464 c 0.028,-0.249 0,-0.367 0.718,-0.367 0.718,0 0.69,0.118 0.718,0.367 0.004,0.034 0.007,0.132 0.01,0.249 h 0.982 a 6.845,6.845 0 0 0 -0.028,-0.505 c -0.057,-0.498 0.14,-0.975 -1.681,-0.975 -1.821,0 -1.624,0.477 -1.681,0.975 -0.018,0.162 -0.035,0.574 -0.034,0.988 0.002,0.415 0.015,0.826 0.034,0.988 0.057,0.498 -0.14,0.975 1.681,0.975 1.821,0 1.624,-0.477 1.681,-0.975 0.011,-0.095 0.02,-0.275 0.026,-0.49 z m -11.645,-2.362 -0.958,2.8 -0.959,-2.8 -1.433,-0.007 v 3.757 h 0.958 v -2.799 l 0.958,2.799 h 0.958 l 0.951,-2.799 v 2.799 h 0.958 v -3.757 z m 12.842,-0.007 h 2.754 v 0.958 h -0.898 v 2.799 H 57.7 v -2.799 h -0.898 z m -7.387,3.757 1.099,-3.761 h 1.428 l 1.102,3.761 h -0.958 l -0.226,-0.777 h -1.258 l 0.178,-0.611 h 0.899 l -0.446,-1.532 -0.86,2.92 z m -11.113,-2.984 c 0.718,0 0.69,0.118 0.718,0.367 a 16.052,16.052 0 0 1 0,1.464 c -0.028,0.249 0,0.367 -0.718,0.367 -0.718,0 -0.69,-0.118 -0.718,-0.367 a 16.09,16.09 0 0 1 0,-1.464 c 0.028,-0.25 0,-0.367 0.718,-0.367 l 10e-4,-0.865 c -1.821,0 -1.624,0.477 -1.681,0.975 -0.018,0.162 -0.036,0.574 -0.034,0.988 0.002,0.415 0.015,0.826 0.034,0.988 0.057,0.498 -0.14,0.975 1.681,0.975 1.821,0 1.624,-0.477 1.681,-0.975 0.018,-0.162 0.032,-0.574 0.034,-0.988 0.002,-0.415 -0.015,-0.826 -0.034,-0.988 -0.057,-0.498 0.14,-0.975 -1.681,-0.975 z m -3.235,1.596 a 3.962,3.962 0 0 1 -0.01,0.234 c -0.028,0.249 0,0.367 -0.718,0.367 -0.718,0 -0.69,-0.118 -0.718,-0.367 a 16.052,16.052 0 0 1 0,-1.464 c 0.028,-0.249 0,-0.367 0.718,-0.367 0.718,0 0.69,0.118 0.718,0.367 0.004,0.034 0.007,0.132 0.01,0.249 h 0.982 a 6.845,6.845 0 0 0 -0.028,-0.505 c -0.057,-0.498 0.14,-0.975 -1.681,-0.975 -1.821,0 -1.624,0.477 -1.681,0.975 -0.018,0.162 -0.036,0.574 -0.034,0.988 0.002,0.415 0.015,0.826 0.034,0.988 0.057,0.498 -0.14,0.975 1.681,0.975 1.821,0 1.624,-0.477 1.681,-0.975 0.011,-0.095 0.02,-0.275 0.026,-0.49 z m 12.659,0.529 h -0.581 v -0.857 l 0.581,-0.003 c 0.718,0 0.696,-0.118 0.724,-0.367 0.009,-0.081 0.007,-0.014 0.006,-0.222 -0.001,-0.207 0.003,-0.136 -0.006,-0.217 -0.028,-0.249 -0.006,-0.367 -0.724,-0.367 l -0.582,10e-4 0.001,2.888 h -0.96 v -3.754 h 1.541 c 1.821,0 1.621,0.478 1.688,0.975 0.008,0.059 0.008,0.33 0.008,0.477 0,0.118 0,0.389 -0.008,0.475 -0.045,0.499 0.133,0.971 -1.688,0.971 z m -18.635,15.008 -5.998,-0.007 a 1.571,1.571 0 0 1 -1.571,-1.571 v -9.13 a 1.57,1.57 0 0 1 1.571,-1.571 l 3.754,-0.004 a 0.816,0.816 0 0 0 0.816,-0.816 l 0.011,-3.65 c 0,-0.189 0.153,-0.342 0.342,-0.342 h 2.201 c 0.189,0 0.342,0.153 0.342,0.342 l 0.023,16.409 a 0.342,0.342 0 0 1 -0.342,0.342 l -1.149,-0.002 -0.028,0.815 h 1.501 a 0.816,0.816 0 0 0 0.816,-0.816 v -17.097 a 0.816,0.816 0 0 0 -0.816,-0.816 h -2.887 a 0.816,0.816 0 0 0 -0.816,0.816 l 0.004,3.659 a 0.342,0.342 0 0 1 -0.342,0.342 l -3.429,-0.006 a 2.395,2.395 0 0 0 -2.395,2.395 v 9.13 a 2.395,2.395 0 0 0 2.395,2.395 l 5.97,-0.002 z"
       id="path48"
       inkscape:connector-curvature="0" />
    <path
       d="m 26.861,121.417 v -5.906 a 0.896,0.896 0 1 0 -1.792,0 v 6.376 a 0.896,0.896 0 1 0 1.792,0 v -0.47 l 0.815,0.028 v 0.441 a 1.711,1.711 0 1 1 -3.422,0 v -6.376 a 1.711,1.711 0 1 1 3.422,0 v 5.934 z m 7.931,3.36 h -1.123 a 0.342,0.342 0 0 1 -0.342,-0.342 l 0.014,-11.588 c 0,-0.189 0.153,-0.342 0.342,-0.342 h 2.201 c 0.189,0 0.342,0.153 0.342,0.342 l 0.023,11.587 a 0.342,0.342 0 0 1 -0.342,0.342 l -1.115,0.001 v 0.812 l 1.439,0.001 a 0.816,0.816 0 0 0 0.816,-0.816 v -12.276 a 0.816,0.816 0 0 0 -0.816,-0.816 h -2.887 a 0.816,0.816 0 0 0 -0.816,0.816 l -0.002,12.273 c 0,0.451 0.363,0.816 0.813,0.816 l 1.453,10e-4 z m 10.368,-9.992 -2.418,-0.003 a 1.347,1.347 0 1 0 0,2.694 l 3.312,0.009 c 0.868,0 1.571,0.704 1.571,1.571 l -0.011,4.124 c 0,0.868 -0.704,1.571 -1.571,1.571 l -6.575,0.012 a 0.342,0.342 0 0 1 -0.342,-0.342 v -1.597 c 0,-0.189 0.153,-0.342 0.342,-0.342 l 4.481,-0.015 a 1.347,1.347 0 1 0 0,-2.694 l -3.244,-0.013 a 1.571,1.571 0 0 1 -1.571,-1.571 v -4.12 c 0,-0.868 0.704,-1.571 1.571,-1.571 l 6.095,-0.029 c 0.189,0 0.342,0.153 0.342,0.342 v 1.633 a 0.342,0.342 0 0 1 -0.342,0.342 l -1.64,-0.001 -0.028,0.803 2.005,0.001 a 0.814,0.814 0 0 0 0.816,-0.813 l 0.003,-2.288 a 0.816,0.816 0 0 0 -0.816,-0.816 l -6.435,0.003 a 2.395,2.395 0 0 0 -2.395,2.395 v 4.12 a 2.395,2.395 0 0 0 2.395,2.395 l 3.244,-0.006 a 0.542,0.542 0 1 1 0,1.083 l -4.83,-0.001 a 0.816,0.816 0 0 0 -0.816,0.816 v 2.284 c 0,0.451 0.365,0.816 0.816,0.816 l 6.924,-0.001 a 2.395,2.395 0 0 0 2.395,-2.395 l 0.011,-4.124 a 2.395,2.395 0 0 0 -2.395,-2.395 l -3.312,0.009 a 0.5415,0.5415 0 1 1 0,-1.083 l 2.39,0.001 z m 12.184,2.265 h 1.038 a 0.342,0.342 0 0 0 0.342,-0.342 l -0.004,-2.639 a 1.57,1.57 0 0 0 -1.571,-1.571 h -5.195 a 1.57,1.57 0 0 0 -1.571,1.571 v 9.13 c 0,0.868 0.704,1.571 1.571,1.571 h 5.195 c 0.868,0 1.571,-0.704 1.571,-1.571 l 0.004,-2.509 a 0.342,0.342 0 0 0 -0.342,-0.342 h -1.96 a 0.342,0.342 0 0 0 -0.342,0.342 l 0.011,1.196 c 0,0.945 -0.595,1.711 -1.54,1.711 -0.945,0 -1.54,-0.766 -1.54,-1.711 v -6.376 c 0,-0.945 0.595,-1.711 1.54,-1.711 0.945,0 1.54,0.766 1.54,1.711 l -0.011,1.198 c 0,0.189 0.153,0.342 0.342,0.342 h 0.922 l -0.028,0.823 h -1.233 a 0.816,0.816 0 0 1 -0.816,-0.816 l 0.01,-1.547 c 0,-0.495 -0.23,-0.896 -0.725,-0.896 -0.495,0 -0.725,0.401 -0.725,0.896 v 6.376 c 0,0.495 0.23,0.896 0.725,0.896 0.495,0 0.725,-0.401 0.725,-0.896 l -0.01,-1.545 c 0,-0.451 0.366,-0.816 0.816,-0.816 h 2.646 c 0.451,0 0.816,0.366 0.816,0.816 l -0.001,2.858 a 2.395,2.395 0 0 1 -2.395,2.395 h -5.195 a 2.396,2.396 0 0 1 -2.396,-2.395 v -9.13 a 2.395,2.395 0 0 1 2.396,-2.395 h 5.195 a 2.395,2.395 0 0 1 2.395,2.395 l 0.001,2.988 a 0.816,0.816 0 0 1 -0.816,0.816 h -1.413 z"
       id="path50"
       inkscape:connector-curvature="0" />
  </g>
  <g
     id="g56"
     style="fill:#2068b1">
    <path
       d="m 82.174,226.457 c 0.604,0 1.122,0.216 1.556,0.649 0.434,0.433 0.65,0.953 0.65,1.56 0,0.607 -0.216,1.128 -0.647,1.562 -0.431,0.434 -0.951,0.65 -1.559,0.65 -0.609,0 -1.131,-0.216 -1.564,-0.649 -0.433,-0.433 -0.65,-0.954 -0.65,-1.563 0,-0.609 0.217,-1.13 0.652,-1.562 0.435,-0.432 0.955,-0.647 1.562,-0.647 z m -0.006,4.058 c 0.506,0 0.94,-0.181 1.302,-0.543 0.362,-0.362 0.543,-0.797 0.543,-1.305 0,-0.508 -0.181,-0.942 -0.542,-1.302 -0.361,-0.36 -0.796,-0.541 -1.304,-0.541 -0.508,0 -0.942,0.18 -1.302,0.541 -0.36,0.361 -0.541,0.794 -0.541,1.302 0,0.508 0.18,0.943 0.541,1.305 0.361,0.362 0.796,0.543 1.303,0.543 z m 1.055,-1.383 c -0.133,0.537 -0.48,0.806 -1.043,0.806 -0.35,0 -0.631,-0.114 -0.845,-0.343 -0.214,-0.229 -0.321,-0.536 -0.321,-0.923 0,-0.383 0.106,-0.686 0.318,-0.908 0.212,-0.222 0.5,-0.334 0.866,-0.334 0.262,0 0.484,0.065 0.667,0.195 0.183,0.13 0.294,0.311 0.335,0.543 h -0.407 c -0.059,-0.277 -0.261,-0.416 -0.606,-0.416 -0.242,0 -0.431,0.084 -0.565,0.252 -0.134,0.168 -0.202,0.395 -0.202,0.68 0,0.273 0.07,0.493 0.209,0.658 0.139,0.165 0.322,0.248 0.546,0.248 0.359,0 0.573,-0.152 0.642,-0.457 h 0.406 z m 3.407,1.693 h -0.55 v -3.378 c -0.223,0.148 -0.567,0.223 -1.034,0.223 v -0.434 c 0.674,0 1.061,-0.26 1.16,-0.779 h 0.425 v 4.368 z m 3.595,-1.98 c -0.283,0.313 -0.609,0.469 -0.979,0.469 -0.357,0 -0.66,-0.13 -0.907,-0.391 -0.247,-0.261 -0.371,-0.592 -0.371,-0.995 0,-0.408 0.123,-0.755 0.368,-1.042 0.245,-0.287 0.571,-0.429 0.977,-0.429 0.465,0 0.826,0.179 1.084,0.536 0.258,0.357 0.387,0.873 0.387,1.547 0,1.572 -0.507,2.358 -1.521,2.358 -0.32,0 -0.592,-0.09 -0.816,-0.27 -0.224,-0.18 -0.359,-0.446 -0.406,-0.8 h 0.568 c 0.047,0.424 0.275,0.636 0.686,0.636 0.264,0 0.477,-0.139 0.639,-0.417 0.162,-0.278 0.26,-0.679 0.291,-1.202 z m 0.006,-0.425 c -0.008,-0.494 -0.093,-0.873 -0.255,-1.135 -0.162,-0.262 -0.379,-0.394 -0.65,-0.394 -0.238,0 -0.429,0.096 -0.571,0.287 -0.142,0.191 -0.214,0.43 -0.214,0.715 0,0.289 0.073,0.526 0.218,0.71 0.145,0.184 0.34,0.277 0.584,0.277 0.303,0 0.599,-0.154 0.888,-0.46 z m 3.331,0.425 c -0.283,0.313 -0.609,0.469 -0.979,0.469 -0.357,0 -0.66,-0.13 -0.907,-0.391 -0.247,-0.261 -0.371,-0.592 -0.371,-0.995 0,-0.408 0.123,-0.755 0.368,-1.042 0.245,-0.287 0.571,-0.429 0.977,-0.429 0.465,0 0.826,0.179 1.084,0.536 0.258,0.357 0.387,0.873 0.387,1.547 0,1.572 -0.507,2.358 -1.521,2.358 -0.32,0 -0.592,-0.09 -0.816,-0.27 -0.224,-0.18 -0.359,-0.446 -0.406,-0.8 h 0.568 c 0.047,0.424 0.275,0.636 0.686,0.636 0.264,0 0.477,-0.139 0.639,-0.417 0.162,-0.278 0.26,-0.679 0.291,-1.202 z m 0.006,-0.425 c -0.008,-0.494 -0.093,-0.873 -0.255,-1.135 -0.162,-0.262 -0.379,-0.394 -0.65,-0.394 -0.238,0 -0.429,0.096 -0.571,0.287 -0.142,0.191 -0.214,0.43 -0.214,0.715 0,0.289 0.073,0.526 0.218,0.71 0.145,0.184 0.34,0.277 0.584,0.277 0.303,0 0.599,-0.154 0.888,-0.46 z m 1.652,0.088 c 0.283,-0.311 0.608,-0.466 0.976,-0.466 0.359,0 0.663,0.13 0.91,0.391 0.247,0.261 0.371,0.592 0.371,0.995 0,0.408 -0.123,0.755 -0.368,1.042 -0.245,0.287 -0.571,0.429 -0.977,0.429 -0.465,0 -0.826,-0.179 -1.084,-0.538 -0.258,-0.359 -0.387,-0.874 -0.387,-1.545 0,-1.572 0.506,-2.358 1.518,-2.358 0.322,0 0.595,0.09 0.817,0.27 0.222,0.18 0.358,0.446 0.407,0.8 h -0.568 c -0.049,-0.424 -0.277,-0.636 -0.686,-0.636 -0.264,0 -0.477,0.139 -0.64,0.417 -0.163,0.278 -0.259,0.677 -0.289,1.199 z m -0.006,0.427 c 0.008,0.492 0.093,0.87 0.255,1.134 0.162,0.264 0.379,0.396 0.65,0.396 0.238,0 0.429,-0.096 0.571,-0.287 0.142,-0.191 0.214,-0.43 0.214,-0.715 0,-0.289 -0.073,-0.526 -0.218,-0.712 -0.145,-0.186 -0.34,-0.278 -0.584,-0.278 -0.303,0 -0.599,0.154 -0.888,0.462 z m 7.96,1.89 h -0.583 l -2.25,-3.39 v 3.39 h -0.539 v -4.295 h 0.58 l 2.25,3.39 v -3.39 h 0.542 z m 4.163,0 h -3.202 v -4.295 h 3.103 v 0.51 h -2.534 v 1.313 h 2.37 v 0.51 h -2.37 v 1.453 h 2.634 v 0.509 z m 2.599,0.073 c -0.607,0 -1.092,-0.2 -1.455,-0.599 -0.363,-0.399 -0.543,-0.94 -0.543,-1.622 0,-0.682 0.181,-1.222 0.543,-1.622 0.362,-0.4 0.847,-0.599 1.455,-0.599 0.467,0 0.864,0.126 1.192,0.378 0.328,0.252 0.513,0.584 0.554,0.996 h -0.586 c -0.023,-0.271 -0.141,-0.487 -0.353,-0.647 -0.212,-0.16 -0.479,-0.24 -0.801,-0.24 -0.436,0 -0.78,0.15 -1.034,0.45 -0.254,0.3 -0.381,0.728 -0.381,1.285 0,0.555 0.126,0.982 0.378,1.283 0.252,0.301 0.594,0.451 1.025,0.451 0.336,0 0.607,-0.082 0.814,-0.246 0.207,-0.164 0.324,-0.398 0.352,-0.703 h 0.586 c -0.041,0.457 -0.221,0.811 -0.539,1.061 -0.318,0.25 -0.721,0.374 -1.207,0.374 z m 7.5,-0.073 h -0.571 v -2.021 h -2.232 v 2.021 h -0.568 v -4.295 h 0.568 v 1.764 h 2.232 v -1.764 h 0.571 z m 2.148,-3.179 c 0.443,0 0.797,0.142 1.062,0.425 0.265,0.283 0.397,0.684 0.397,1.201 0,0.516 -0.132,0.916 -0.397,1.2 -0.265,0.284 -0.619,0.426 -1.062,0.426 -0.441,0 -0.794,-0.142 -1.059,-0.426 -0.265,-0.284 -0.397,-0.684 -0.397,-1.2 0,-0.518 0.132,-0.918 0.397,-1.201 0.265,-0.283 0.617,-0.425 1.059,-0.425 z m 0,2.819 c 0.264,0 0.478,-0.1 0.642,-0.3 0.164,-0.2 0.246,-0.498 0.246,-0.892 0,-0.396 -0.082,-0.695 -0.246,-0.895 -0.164,-0.2 -0.378,-0.3 -0.642,-0.3 -0.264,0 -0.478,0.1 -0.642,0.3 -0.164,0.2 -0.246,0.499 -0.246,0.895 0,0.395 0.082,0.692 0.246,0.892 0.164,0.2 0.378,0.3 0.642,0.3 z m 6.278,0.36 h -0.554 v -2.01 c 0,-0.258 -0.037,-0.441 -0.111,-0.551 -0.074,-0.11 -0.198,-0.164 -0.372,-0.164 -0.268,0 -0.53,0.166 -0.788,0.498 v 2.227 h -0.551 v -2.01 c 0,-0.258 -0.037,-0.441 -0.111,-0.551 -0.074,-0.11 -0.199,-0.164 -0.375,-0.164 -0.268,0 -0.529,0.166 -0.785,0.498 v 2.227 h -0.554 v -3.108 h 0.554 v 0.396 c 0.262,-0.311 0.552,-0.466 0.87,-0.466 0.455,0 0.745,0.188 0.87,0.563 0.207,-0.244 0.383,-0.399 0.527,-0.464 0.144,-0.065 0.286,-0.098 0.425,-0.098 0.637,0 0.955,0.382 0.955,1.146 z m 2.118,0.073 c -0.457,0 -0.824,-0.143 -1.102,-0.429 -0.278,-0.286 -0.416,-0.685 -0.416,-1.197 0,-0.508 0.134,-0.906 0.403,-1.194 0.269,-0.288 0.62,-0.432 1.053,-0.432 0.443,0 0.797,0.142 1.062,0.425 0.265,0.283 0.397,0.684 0.397,1.201 v 0.132 h -2.341 c 0.023,0.359 0.123,0.626 0.297,0.8 0.174,0.174 0.39,0.261 0.646,0.261 0.193,0 0.368,-0.049 0.523,-0.148 0.155,-0.099 0.237,-0.239 0.245,-0.42 h 0.571 c -0.043,0.32 -0.188,0.567 -0.435,0.741 -0.247,0.174 -0.548,0.26 -0.903,0.26 z m 0.814,-1.927 c -0.045,-0.299 -0.146,-0.522 -0.302,-0.671 -0.156,-0.149 -0.348,-0.223 -0.574,-0.223 -0.221,0 -0.41,0.074 -0.568,0.221 -0.158,0.147 -0.259,0.372 -0.302,0.672 h 1.746 z m 4.477,1.854 h -3.202 v -4.295 h 3.103 v 0.51 h -2.534 v 1.313 h 2.37 v 0.51 h -2.37 v 1.453 h 2.634 v 0.509 z m 1.28,0 h -0.554 v -4.295 h 0.554 z m 2.136,0.073 c -0.457,0 -0.824,-0.143 -1.102,-0.429 -0.278,-0.286 -0.416,-0.685 -0.416,-1.197 0,-0.508 0.134,-0.906 0.403,-1.194 0.269,-0.288 0.62,-0.432 1.053,-0.432 0.443,0 0.797,0.142 1.062,0.425 0.265,0.283 0.397,0.684 0.397,1.201 v 0.132 h -2.341 c 0.023,0.359 0.123,0.626 0.297,0.8 0.174,0.174 0.39,0.261 0.646,0.261 0.193,0 0.368,-0.049 0.523,-0.148 0.155,-0.099 0.237,-0.239 0.245,-0.42 h 0.571 c -0.043,0.32 -0.188,0.567 -0.435,0.741 -0.247,0.174 -0.547,0.26 -0.903,0.26 z m 0.814,-1.927 c -0.045,-0.299 -0.146,-0.522 -0.302,-0.671 -0.156,-0.149 -0.348,-0.223 -0.574,-0.223 -0.221,0 -0.41,0.074 -0.568,0.221 -0.158,0.147 -0.259,0.372 -0.302,0.672 h 1.746 z m 2.461,1.927 c -0.441,0 -0.794,-0.142 -1.059,-0.426 -0.265,-0.284 -0.397,-0.684 -0.397,-1.2 0,-0.518 0.132,-0.918 0.397,-1.201 0.265,-0.283 0.618,-0.425 1.059,-0.425 0.34,0 0.624,0.086 0.851,0.258 0.227,0.172 0.362,0.42 0.403,0.744 h -0.568 c -0.008,-0.186 -0.078,-0.327 -0.209,-0.425 -0.131,-0.098 -0.291,-0.146 -0.476,-0.146 -0.264,0 -0.478,0.1 -0.642,0.3 -0.164,0.2 -0.246,0.499 -0.246,0.895 0,0.395 0.082,0.692 0.246,0.892 0.164,0.2 0.378,0.3 0.642,0.3 0.186,0 0.344,-0.049 0.476,-0.146 0.132,-0.097 0.202,-0.238 0.209,-0.422 h 0.568 c -0.041,0.324 -0.175,0.572 -0.403,0.744 -0.228,0.172 -0.511,0.258 -0.851,0.258 z m 2.948,-0.067 a 2.122,2.122 0 0 1 -0.396,0.035 c -0.227,0 -0.393,-0.041 -0.498,-0.122 -0.105,-0.081 -0.171,-0.185 -0.196,-0.312 -0.025,-0.127 -0.038,-0.3 -0.038,-0.519 v -1.764 h -0.384 v -0.434 h 0.384 v -0.773 h 0.551 v 0.773 h 0.504 v 0.434 h -0.504 v 1.793 c 0,0.213 0.027,0.348 0.081,0.406 0.054,0.058 0.127,0.086 0.221,0.086 0.096,0 0.188,-0.008 0.275,-0.023 z m 2.074,-2.61 a 1.254,1.254 0 0 0 -0.337,-0.035 c -0.281,0 -0.522,0.147 -0.724,0.442 v 2.197 h -0.554 v -3.108 h 0.554 v 0.434 c 0.232,-0.336 0.502,-0.504 0.809,-0.504 0.078,0 0.162,0.008 0.252,0.023 z m 1.643,-0.575 c 0.443,0 0.797,0.142 1.062,0.425 0.265,0.283 0.397,0.684 0.397,1.201 0,0.516 -0.132,0.916 -0.397,1.2 -0.265,0.284 -0.619,0.426 -1.062,0.426 -0.441,0 -0.794,-0.142 -1.059,-0.426 -0.265,-0.284 -0.397,-0.684 -0.397,-1.2 0,-0.518 0.132,-0.918 0.397,-1.201 0.265,-0.283 0.618,-0.425 1.059,-0.425 z m 0,2.819 c 0.264,0 0.478,-0.1 0.642,-0.3 0.164,-0.2 0.246,-0.498 0.246,-0.892 0,-0.396 -0.082,-0.695 -0.246,-0.895 -0.164,-0.2 -0.378,-0.3 -0.642,-0.3 -0.264,0 -0.478,0.1 -0.642,0.3 -0.164,0.2 -0.246,0.499 -0.246,0.895 0,0.395 0.082,0.692 0.246,0.892 0.164,0.2 0.379,0.3 0.642,0.3 z m 2.631,-2.353 c 0.275,-0.311 0.585,-0.466 0.929,-0.466 0.701,0 1.052,0.382 1.052,1.146 v 2.033 h -0.554 v -2.01 c 0,-0.254 -0.045,-0.437 -0.136,-0.548 -0.091,-0.111 -0.24,-0.167 -0.447,-0.167 -0.281,0 -0.563,0.166 -0.844,0.498 v 2.227 h -0.554 v -3.108 h 0.554 z m 3.337,-0.984 h -0.554 v -0.598 h 0.554 z m 0,3.697 h -0.554 v -3.108 h 0.554 z m 2.074,0.073 c -0.441,0 -0.794,-0.142 -1.059,-0.426 -0.265,-0.284 -0.397,-0.684 -0.397,-1.2 0,-0.518 0.132,-0.918 0.397,-1.201 0.265,-0.283 0.618,-0.425 1.059,-0.425 0.34,0 0.624,0.086 0.851,0.258 0.227,0.172 0.362,0.42 0.403,0.744 h -0.568 c -0.008,-0.186 -0.078,-0.327 -0.209,-0.425 -0.131,-0.098 -0.291,-0.146 -0.476,-0.146 -0.264,0 -0.478,0.1 -0.642,0.3 -0.164,0.2 -0.246,0.499 -0.246,0.895 0,0.395 0.082,0.692 0.246,0.892 0.164,0.2 0.378,0.3 0.642,0.3 0.186,0 0.344,-0.049 0.476,-0.146 0.132,-0.097 0.202,-0.238 0.209,-0.422 h 0.568 c -0.041,0.324 -0.175,0.572 -0.403,0.744 -0.228,0.172 -0.511,0.258 -0.851,0.258 z m 2.851,0 c -0.85,0 -1.294,-0.334 -1.333,-1.002 h 0.554 c 0.004,0.379 0.262,0.568 0.773,0.568 0.229,0 0.403,-0.047 0.523,-0.142 0.12,-0.095 0.18,-0.213 0.18,-0.356 0,-0.141 -0.059,-0.24 -0.176,-0.297 -0.117,-0.057 -0.359,-0.132 -0.725,-0.224 -0.366,-0.092 -0.634,-0.194 -0.803,-0.308 -0.169,-0.114 -0.253,-0.313 -0.253,-0.598 0,-0.258 0.105,-0.471 0.315,-0.64 0.21,-0.169 0.491,-0.253 0.842,-0.253 0.814,0 1.23,0.29 1.248,0.87 h -0.551 c -0.02,-0.293 -0.239,-0.439 -0.659,-0.439 -0.186,0 -0.339,0.035 -0.461,0.105 -0.122,0.07 -0.183,0.173 -0.183,0.308 0,0.121 0.047,0.208 0.141,0.262 0.094,0.054 0.329,0.126 0.705,0.217 0.376,0.091 0.655,0.197 0.838,0.318 0.183,0.121 0.274,0.33 0.274,0.627 0,0.283 -0.113,0.518 -0.338,0.705 -0.225,0.187 -0.53,0.279 -0.911,0.279 z m 2.616,-0.073 c 0,0.256 -0.051,0.461 -0.152,0.615 -0.101,0.154 -0.251,0.231 -0.448,0.231 v -0.281 c 0.197,0 0.296,-0.188 0.296,-0.565 h -0.296 v -0.601 h 0.601 v 0.601 z m 5.265,0 h -2.657 v -4.295 h 0.568 v 3.785 h 2.089 z m 1.813,0.006 a 2.122,2.122 0 0 1 -0.396,0.035 c -0.227,0 -0.393,-0.041 -0.498,-0.122 -0.105,-0.081 -0.171,-0.185 -0.196,-0.312 -0.025,-0.127 -0.038,-0.3 -0.038,-0.519 v -1.764 h -0.384 v -0.434 h 0.384 v -0.773 h 0.551 v 0.773 h 0.504 v 0.434 h -0.504 v 1.793 c 0,0.213 0.027,0.348 0.081,0.406 0.054,0.058 0.127,0.086 0.221,0.086 0.096,0 0.188,-0.008 0.275,-0.023 z m 2.429,-0.378 c -0.246,0.297 -0.542,0.445 -0.888,0.445 -0.406,0 -0.721,-0.145 -0.943,-0.434 -0.222,-0.289 -0.334,-0.679 -0.334,-1.169 0,-0.508 0.125,-0.91 0.374,-1.206 0.249,-0.296 0.562,-0.444 0.939,-0.444 0.336,0 0.62,0.104 0.853,0.311 v -1.427 h 0.551 v 4.295 h -0.551 v -0.371 z m 0,-0.521 v -1.477 c -0.238,-0.252 -0.511,-0.378 -0.817,-0.378 -0.236,0 -0.425,0.102 -0.567,0.306 -0.142,0.204 -0.212,0.508 -0.212,0.913 0,0.383 0.067,0.673 0.201,0.872 0.134,0.199 0.319,0.297 0.555,0.297 0.308,0 0.588,-0.178 0.84,-0.533 z m 2.095,0.893 h -0.601 v -0.601 h 0.601 z"
       id="path54"
       inkscape:connector-curvature="0" />
  </g>
  <g
     id="g60"
     style="fill:#927d4c">
    <path
       d="m 13.176,132.668 0.027,0.629 c -0.419,0.073 -0.884,0.1 -1.395,0.082 h -1.012 c -1.094,0.018 -1.65,-0.374 -1.668,-1.176 0,-0.383 0.1,-0.747 0.301,-1.094 l 0.492,0.273 a 1.48,1.48 0 0 0 -0.219,0.793 c 0,0.255 0.091,0.419 0.273,0.492 0.164,0.091 0.438,0.128 0.82,0.109 h 1.012 c 0.384,10e-4 0.84,-0.035 1.369,-0.108 z m -0.356,-4.211 v 0.602 H 9.484 v -0.602 z m 5.784,0.547 c 0.383,0.456 0.574,1.003 0.574,1.641 0,0.583 -0.119,1.085 -0.355,1.504 -0.31,0.529 -0.83,0.966 -1.559,1.313 l -0.438,-0.574 c 1.094,-0.383 1.659,-1.057 1.695,-2.023 0.055,-0.766 -0.109,-1.313 -0.492,-1.641 -0.31,-0.273 -0.748,-0.41 -1.313,-0.41 a 1.825,1.825 0 0 0 -1.367,0.656 c -0.383,0.456 -0.583,1.012 -0.602,1.668 0,0.438 0.055,0.775 0.164,1.012 0.109,0.201 0.237,0.301 0.383,0.301 0.292,0 0.538,-0.282 0.738,-0.848 0.2,-0.528 0.383,-1.395 0.547,-2.598 l 0.602,0.055 c -0.201,1.659 -0.501,2.798 -0.902,3.418 -0.255,0.419 -0.593,0.629 -1.012,0.629 -0.255,0 -0.483,-0.146 -0.684,-0.438 -0.328,-0.456 -0.465,-1.039 -0.41,-1.75 a 3.25,3.25 0 0 1 0.656,-1.695 c 0.528,-0.656 1.185,-0.984 1.969,-0.984 0.767,0.017 1.368,0.272 1.806,0.764 z m 5.332,2.536 0.663,0.167 c -0.139,0.544 -0.389,0.96 -0.75,1.246 -0.361,0.286 -0.803,0.429 -1.325,0.429 -0.54,0 -0.979,-0.11 -1.318,-0.33 -0.338,-0.22 -0.596,-0.539 -0.772,-0.956 a 3.42,3.42 0 0 1 -0.265,-1.343 c 0,-0.522 0.1,-0.977 0.299,-1.365 0.2,-0.389 0.483,-0.684 0.852,-0.886 a 2.493,2.493 0 0 1 1.215,-0.302 c 0.501,0 0.923,0.127 1.265,0.383 0.342,0.256 0.58,0.614 0.714,1.077 l -0.653,0.154 c -0.116,-0.365 -0.285,-0.63 -0.506,-0.796 -0.221,-0.166 -0.499,-0.25 -0.834,-0.25 -0.385,0 -0.707,0.092 -0.966,0.277 -0.258,0.185 -0.44,0.433 -0.545,0.743 a 2.993,2.993 0 0 0 -0.157,0.962 c 0,0.426 0.062,0.798 0.187,1.116 0.124,0.318 0.317,0.556 0.579,0.713 0.262,0.157 0.546,0.236 0.851,0.236 0.372,0 0.686,-0.107 0.943,-0.321 0.257,-0.214 0.432,-0.533 0.523,-0.954 z m 1.795,1.757 v -5.011 h 1.726 c 0.39,0 0.687,0.024 0.892,0.072 a 1.7,1.7 0 0 1 0.735,0.359 c 0.264,0.223 0.462,0.509 0.593,0.856 0.131,0.347 0.196,0.744 0.196,1.191 0,0.38 -0.044,0.718 -0.133,1.012 -0.089,0.294 -0.203,0.537 -0.342,0.73 a 1.803,1.803 0 0 1 -0.457,0.454 1.843,1.843 0 0 1 -0.598,0.251 3.417,3.417 0 0 1 -0.805,0.085 h -1.807 z m 0.663,-0.591 h 1.07 c 0.331,0 0.589,-0.031 0.778,-0.092 0.188,-0.062 0.337,-0.148 0.449,-0.26 0.157,-0.157 0.28,-0.369 0.367,-0.634 0.088,-0.266 0.132,-0.587 0.132,-0.966 0,-0.524 -0.086,-0.927 -0.258,-1.208 -0.172,-0.282 -0.381,-0.47 -0.627,-0.566 -0.178,-0.068 -0.464,-0.103 -0.858,-0.103 h -1.053 z m 5.234,-2.143 a 15.1,15.1 0 0 0 0.328,2.762 l -0.574,0.219 c -0.201,-0.82 -0.31,-1.741 -0.328,-2.762 -0.019,-0.802 0.091,-1.768 0.328,-2.898 l 0.547,0.219 a 10.068,10.068 0 0 0 -0.301,2.46 z m 3.308,1.203 c 0.401,0.201 0.793,0.492 1.176,0.875 l -0.328,0.492 a 3.58,3.58 0 0 0 -0.875,-0.766 c -0.091,0.729 -0.456,1.112 -1.094,1.148 -0.474,0.036 -0.83,-0.073 -1.066,-0.328 a 1.006,1.006 0 0 1 -0.246,-0.738 c 0.018,-0.219 0.1,-0.419 0.246,-0.602 0.219,-0.255 0.51,-0.383 0.875,-0.383 0.255,0 0.51,0.037 0.766,0.109 v -1.914 h -1.832 v -0.52 h 1.832 v -1.34 h 0.547 v 1.34 h 1.039 v 0.52 h -1.039 v 2.107 z m -1.257,1.257 c 0.438,0 0.674,-0.31 0.711,-0.93 a 2.478,2.478 0 0 0 -0.684,-0.164 0.669,0.669 0 0 0 -0.52,0.164 c -0.128,0.109 -0.191,0.246 -0.191,0.41 0,0.164 0.063,0.292 0.191,0.383 0.128,0.11 0.292,0.156 0.493,0.137 z m 5.377,0.623 -0.461,0.465 a 5.857,5.857 0 0 0 -1.176,-1.06 l 0.461,-0.461 c 0.401,0.27 0.793,0.622 1.176,1.056 z m 11.687,-3.876 v 0.52 h -6.207 v -0.52 h 1.941 l -0.438,-1.012 h -0.875 v -0.52 h 2.215 v -0.656 h 0.52 c 0.146,0.019 0.155,0.073 0.027,0.164 v 0.492 h 2.242 v 0.52 h -0.875 l -0.465,1.012 z m -1.149,3.992 h -0.547 v -0.219 h -2.762 v 0.355 h -0.547 v -3.145 h 3.855 v 3.009 z m -0.547,-1.914 v -0.574 h -2.762 v 0.574 z m 0,1.175 v -0.656 h -2.762 v 0.656 z m -2.023,-3.253 h 1.285 l 0.355,-1.012 h -2.023 z m 7.971,-1.395 h 1.148 v 2.57 h -0.465 v -0.109 h -0.41 v 0.52 h 2.68 v 0.52 h -2.379 a 5.058,5.058 0 0 0 2.543,1.094 l -0.164,0.629 c -1.222,-0.292 -2.115,-0.766 -2.68,-1.422 v 1.695 h -0.547 v -1.531 c -0.638,0.583 -1.495,1.039 -2.57,1.367 l -0.246,-0.602 c 1.021,-0.219 1.896,-0.629 2.625,-1.23 h -2.488 v -0.52 h 2.68 v -0.52 h -0.41 V 131 h -0.465 v -2.625 h 0.711 l 0.164,-0.738 0.602,0.109 c 0.073,0.019 0.045,0.073 -0.082,0.164 z m -2.625,2.598 -0.328,-0.547 a 5.843,5.843 0 0 0 1.313,-0.902 l 0.301,0.465 c -0.255,0.255 -0.638,0.565 -1.148,0.93 -0.02,0.108 -0.065,0.127 -0.138,0.054 z m 0.848,-1.668 a 13.54,13.54 0 0 0 -0.93,-0.602 l 0.328,-0.492 c 0.383,0.183 0.702,0.355 0.957,0.52 z m 1.093,-0.492 v 0.574 h 1.367 v -0.574 z m 0,1.585 h 1.367 v -0.574 h -1.367 z m 2.434,-1.121 -0.438,-0.383 c 0.383,-0.328 0.702,-0.629 0.957,-0.902 l 0.492,0.438 c 0.018,0.091 -0.027,0.119 -0.137,0.082 -0.218,0.2 -0.51,0.456 -0.874,0.765 z m 0.793,1.532 a 7.711,7.711 0 0 0 -1.23,-0.875 l 0.355,-0.465 c 0.364,0.164 0.793,0.438 1.285,0.82 z m 6.932,0.793 h -1.777 v 2.078 h -0.547 v -2.078 h -1.641 c -0.037,0.948 -0.319,1.704 -0.848,2.27 l -0.438,-0.438 a 2.772,2.772 0 0 0 0.738,-1.914 v -3.5 h 5.059 v 5.223 c 0,0.292 -0.146,0.438 -0.438,0.438 h -0.766 l -0.137,-0.602 h 0.684 c 0.073,0 0.109,-0.036 0.109,-0.109 v -1.368 z m -3.965,-3.063 v 1.012 h 1.641 v -1.012 z m 0,1.531 v 1.012 h 1.641 v -1.012 z m 2.188,-1.531 v 1.012 h 1.777 v -1.012 z m 0,1.531 v 1.012 h 1.777 v -1.012 z m 4.252,3.528 a 10.563,10.563 0 0 1 -0.328,-2.68 c 0,-1.002 0.118,-2.005 0.355,-3.008 l 0.52,0.219 a 11.82,11.82 0 0 0 -0.301,2.707 c 0,0.93 0.1,1.769 0.301,2.516 z m 1.613,-2.489 0.41,0.328 c -0.128,0.164 -0.21,0.355 -0.246,0.574 -0.073,0.419 0.155,0.629 0.684,0.629 h 1.941 v 0.602 h -1.613 c -0.547,0 -0.939,-0.082 -1.176,-0.246 -0.273,-0.2 -0.401,-0.51 -0.383,-0.93 0.019,-0.309 0.146,-0.628 0.383,-0.957 z m -0.136,-1.914 v -0.602 h 2.734 v 0.602 z m -58.09,8.865 v 4.266 H 9.785 v -3.5 a 3.566,3.566 0 0 1 -0.547,0.82 l -0.355,-0.574 c 0.638,-0.656 1.066,-1.649 1.285,-2.98 l 0.602,0.164 c 0.164,0.055 0.146,0.119 -0.055,0.191 -0.109,0.511 -0.246,0.994 -0.41,1.449 0.182,0.019 0.191,0.073 0.027,0.164 z m 2.789,-2.023 c 0.146,0.019 0.155,0.073 0.027,0.164 v 0.684 h 1.941 v 0.52 h -1.941 v 0.602 h 1.559 v 2.078 H 14.16 v -0.219 h -1.012 c 0,0.365 -0.073,0.72 -0.219,1.066 0.456,0.31 1.221,0.556 2.297,0.738 l -0.191,0.602 c -0.966,-0.128 -1.759,-0.419 -2.379,-0.875 -0.456,0.474 -1.103,0.793 -1.941,0.957 l -0.191,-0.52 c 0.766,-0.128 1.34,-0.383 1.723,-0.766 -0.365,-0.328 -0.62,-0.656 -0.766,-0.984 l 0.328,-0.219 h -0.766 v -1.859 h 1.559 v -0.602 h -1.859 v -0.52 h 1.859 v -0.848 h 0.519 z m -0.52,3.39 v -0.984 H 11.59 v 0.984 z m 0,0.438 h -0.684 c 0.146,0.255 0.337,0.501 0.574,0.738 0.074,-0.219 0.11,-0.465 0.11,-0.738 z m 1.559,-0.438 v -0.984 h -1.012 v 0.984 z m 7.452,0.574 h -1.777 v 2.078 h -0.547 v -2.078 h -1.641 c -0.037,0.948 -0.319,1.704 -0.848,2.27 l -0.438,-0.438 a 2.772,2.772 0 0 0 0.738,-1.914 v -3.5 h 5.059 v 5.223 c 0,0.292 -0.146,0.438 -0.438,0.438 h -0.766 l -0.137,-0.602 h 0.684 c 0.073,0 0.109,-0.036 0.109,-0.109 v -1.368 z m -3.965,-3.062 v 1.012 h 1.641 v -1.012 z m 0,1.531 v 1.012 h 1.641 v -1.012 z m 2.187,-1.531 v 1.012 h 1.777 v -1.012 z m 0,1.531 v 1.012 h 1.777 v -1.012 z m 7.589,0.957 0.602,0.273 c -0.237,1.495 -0.957,2.242 -2.16,2.242 -0.583,0.018 -0.994,-0.119 -1.23,-0.41 -0.219,-0.273 -0.337,-0.738 -0.355,-1.395 v -3.773 h 0.547 v 3.773 c 0,0.456 0.082,0.775 0.246,0.957 0.164,0.164 0.501,0.237 1.012,0.219 0.401,-0.018 0.711,-0.2 0.93,-0.547 0.198,-0.29 0.334,-0.737 0.408,-1.339 z m 1.654,-1.722 v -0.602 h 1.176 c 0.055,-0.346 0.109,-0.711 0.164,-1.094 l 0.574,0.109 -0.164,0.984 h 1.121 v 0.602 h -1.23 a 14.533,14.533 0 0 1 -1.176,3.719 l -0.52,-0.328 c 0.492,-0.948 0.866,-2.078 1.121,-3.391 h -1.066 z m 3.555,0.929 h 0.547 v 1.75 c 0.292,0.164 0.583,0.347 0.875,0.547 l -0.328,0.52 a 6.766,6.766 0 0 0 -0.574,-0.41 c -0.037,0.383 -0.191,0.674 -0.465,0.875 -0.219,0.164 -0.52,0.246 -0.902,0.246 -0.382,0 -0.693,-0.091 -0.93,-0.273 -0.237,-0.183 -0.355,-0.456 -0.355,-0.82 0,-0.346 0.127,-0.629 0.383,-0.848 0.2,-0.164 0.483,-0.246 0.848,-0.246 0.292,0 0.592,0.055 0.902,0.164 v -1.505 z m -0.847,1.86 c -0.492,0 -0.738,0.191 -0.738,0.574 0,0.365 0.255,0.547 0.766,0.547 a 0.82,0.82 0 0 0 0.602,-0.246 c 0.146,-0.146 0.219,-0.355 0.219,-0.629 a 1.546,1.546 0 0 0 -0.849,-0.246 z m 0.519,-3.172 a 7.575,7.575 0 0 1 1.723,0.547 l -0.191,0.574 a 6.898,6.898 0 0 0 -1.695,-0.574 z m 4.991,2.871 0.492,0.383 c -0.146,0.511 -0.337,0.884 -0.574,1.121 a 0.717,0.717 0 0 1 -0.684,0.273 c -0.602,-0.073 -0.912,-0.902 -0.93,-2.488 0,-0.893 0.045,-1.795 0.137,-2.707 l 0.629,0.082 a 17.936,17.936 0 0 0 -0.191,2.652 c 0.018,1.112 0.155,1.695 0.41,1.75 0.255,0.055 0.492,-0.3 0.711,-1.066 z m 2.734,-1.504 c 0.219,0.583 0.355,1.185 0.41,1.805 l -0.629,0.191 a 8.026,8.026 0 0 0 -0.383,-1.723 c -0.219,-0.638 -0.465,-1.139 -0.738,-1.504 l 0.52,-0.328 c 0.328,0.438 0.601,0.957 0.82,1.559 z m 6.03,-1.969 v 0.547 c -0.857,0.019 -1.55,0.255 -2.078,0.711 -0.492,0.438 -0.738,0.966 -0.738,1.586 0,0.602 0.191,1.058 0.574,1.367 0.364,0.292 0.92,0.438 1.668,0.438 l -0.164,0.602 c -0.857,0 -1.522,-0.228 -1.996,-0.684 -0.419,-0.401 -0.638,-0.948 -0.656,-1.641 0,-0.401 0.118,-0.82 0.355,-1.258 a 2.947,2.947 0 0 1 1.121,-1.148 h -2.871 v -0.52 z m -0.328,1.149 v 1.066 h -0.465 v -1.066 z m 0.739,0 v 1.066 h -0.465 v -1.066 z m 2.748,2.707 c 0.419,0.456 0.738,0.83 0.957,1.121 l -0.52,0.492 a 16.447,16.447 0 0 0 -1.805,-2.16 c -0.328,-0.328 -0.492,-0.61 -0.492,-0.848 0,-0.164 0.137,-0.392 0.41,-0.684 a 11.524,11.524 0 0 0 1.805,-2.324 l 0.492,0.41 c -0.748,1.021 -1.376,1.769 -1.887,2.242 -0.164,0.164 -0.246,0.292 -0.246,0.383 0,0.073 0.055,0.155 0.164,0.246 0.311,0.293 0.685,0.666 1.122,1.122 z m 5.428,-3.418 v 0.52 h -1.805 c -0.273,1.404 -0.684,2.652 -1.23,3.746 l -0.492,-0.355 c 0.528,-0.984 0.911,-2.114 1.148,-3.391 h -1.094 v -0.52 h 1.176 c 0.073,-0.383 0.118,-0.766 0.137,-1.148 l 0.602,0.109 c -0.037,0.347 -0.082,0.693 -0.137,1.039 z m 1.34,4.265 v 0.602 h -1.777 c -0.383,0 -0.693,-0.091 -0.93,-0.273 a 0.903,0.903 0 0 1 -0.355,-0.848 c 0.036,-0.292 0.164,-0.583 0.383,-0.875 l 0.41,0.301 c -0.183,0.255 -0.265,0.492 -0.246,0.711 0.036,0.255 0.301,0.383 0.793,0.383 h 1.722 z m -0.164,-2.925 v 0.52 h -2.379 v -0.52 z m -0.437,-2.489 v 1.066 H 54.92 v -1.066 z m 0.738,0 v 1.066 h -0.465 v -1.066 z m 4.936,1.039 0.082,0.52 c -0.31,0.073 -0.766,0.146 -1.367,0.219 a 6.418,6.418 0 0 0 1.313,1.832 l -0.41,0.52 c -0.419,-0.346 -0.976,-0.538 -1.668,-0.574 -0.419,0 -0.72,0.101 -0.902,0.301 a 0.786,0.786 0 0 0 -0.246,0.574 c 0,0.347 0.137,0.593 0.41,0.738 0.383,0.219 1.094,0.328 2.133,0.328 l -0.109,0.602 c -1.203,0 -2.042,-0.183 -2.516,-0.547 -0.31,-0.219 -0.474,-0.556 -0.492,-1.012 -0.019,-0.419 0.137,-0.774 0.465,-1.066 a 1.42,1.42 0 0 1 1.039,-0.438 c 0.51,0.019 0.911,0.082 1.203,0.191 -0.255,-0.383 -0.52,-0.838 -0.793,-1.367 -0.802,0.128 -1.468,0.201 -1.996,0.219 l -0.055,-0.574 c 0.51,-0.036 1.121,-0.1 1.832,-0.191 a 76.14,76.14 0 0 1 -0.383,-1.121 l 0.547,-0.164 c 0.127,0.456 0.255,0.857 0.383,1.203 a 17.43,17.43 0 0 0 1.53,-0.193 z m 3.104,3.145 0.492,0.383 c -0.146,0.511 -0.337,0.884 -0.574,1.121 a 0.717,0.717 0 0 1 -0.684,0.273 c -0.602,-0.073 -0.912,-0.902 -0.93,-2.488 0,-0.893 0.045,-1.795 0.137,-2.707 l 0.629,0.082 a 17.936,17.936 0 0 0 -0.191,2.652 c 0.018,1.112 0.155,1.695 0.41,1.75 0.255,0.055 0.492,-0.3 0.711,-1.066 z m 2.734,-1.504 c 0.219,0.583 0.355,1.185 0.41,1.805 l -0.629,0.191 a 8.026,8.026 0 0 0 -0.383,-1.723 c -0.219,-0.638 -0.465,-1.139 -0.738,-1.504 l 0.52,-0.328 c 0.328,0.438 0.602,0.957 0.82,1.559 z m 2.315,2.225 c 0.216,0 0.4,0.077 0.552,0.231 a 0.75,0.75 0 0 1 0.227,0.545 c 0,0.223 -0.08,0.411 -0.239,0.563 a 0.775,0.775 0 0 1 -0.547,0.227 0.772,0.772 0 0 1 -0.542,-0.227 0.742,0.742 0 0 1 -0.241,-0.563 0.778,0.778 0 0 1 0.79,-0.776 z m 0.024,1.196 a 0.337,0.337 0 0 0 0.269,-0.13 0.423,0.423 0 0 0 0,-0.564 0.373,0.373 0 0 0 -0.299,-0.126 0.37,0.37 0 0 0 -0.286,0.123 c -0.074,0.082 -0.111,0.177 -0.111,0.284 a 0.413,0.413 0 0 0 0.427,0.413 z"
       id="path58"
       inkscape:connector-curvature="0" />
  </g>
</svg>
