<?xml version="1.0" encoding="UTF-8" standalone="no"?>
<svg
   xmlns:dc="http://purl.org/dc/elements/1.1/"
   xmlns:cc="http://creativecommons.org/ns#"
   xmlns:rdf="http://www.w3.org/1999/02/22-rdf-syntax-ns#"
   xmlns:svg="http://www.w3.org/2000/svg"
   xmlns="http://www.w3.org/2000/svg"
   xmlns:sodipodi="http://sodipodi.sourceforge.net/DTD/sodipodi-0.dtd"
   xmlns:inkscape="http://www.inkscape.org/namespaces/inkscape"
   viewBox="0 0 192 62.000002"
   version="1.1"
   id="svg46"
   sodipodi:docname="logo.svg"
   width="192"
   height="62"
   inkscape:version="0.92.4 5da689c313, 2019-01-14">
  <metadata
     id="metadata52">
    <rdf:RDF>
      <cc:Work
         rdf:about="">
        <dc:format>image/svg+xml</dc:format>
        <dc:type
           rdf:resource="http://purl.org/dc/dcmitype/StillImage" />
      </cc:Work>
    </rdf:RDF>
  </metadata>
  <defs
     id="defs50" />
  <sodipodi:namedview
     pagecolor="#ffffff"
     bordercolor="#666666"
     borderopacity="1"
     objecttolerance="10"
     gridtolerance="10"
     guidetolerance="10"
     inkscape:pageopacity="0"
     inkscape:pageshadow="2"
     inkscape:window-width="471"
     inkscape:window-height="442"
     id="namedview48"
     showgrid="false"
     inkscape:zoom="1.4300792"
     inkscape:cx="94.75"
     inkscape:cy="30.950001"
     inkscape:window-x="0"
     inkscape:window-y="0"
     inkscape:window-maximized="0"
     inkscape:current-layer="svg46">
    <inkscape:grid
       type="xygrid"
       id="grid54"
       originx="0"
       originy="-0.099998477" />
  </sodipodi:namedview>
  <g
     id="g6"
     style="fill:#6f706a">
    <circle
       cx="24.1"
       cy="4.5999999"
       r="1.9"
       id="circle2" />
    <path
       d="m 24.1,49.7 -13.4,-7.6 3.6,-2 v 0.1 c 2.6,3.8 7.9,4.1 12.1,3.7 2.5,-0.8 -0.5,1 -0.4,1.7 0.5,1.3 1.9,0.5 2.6,0.3 1.8,-1 3.6,-2.2 4.7,-4.2 0.6,-1.9 0.3,-0.9 1.8,-2.5 1.3,-1.4 1.4,-3.5 3,-4.7 1.7,-1.5 2.4,-3.6 3.3,-5.6 3,-2.8 5.8,-6.4 5.7,-10.7 0.2,-3.3 -1.8,-6.2 -4.3,-8.2 -4,-3.2 -9,-4.9 -14,-5.6 -1.2,-0.4 -2.3,0.9 -1.5,2 2.3,0.9 4.9,0.9 7.1,1.9 3.7,1.3 7.5,3.4 9.4,6.9 1.7,3.4 -0.1,7.6 -2.7,10.1 L 41,25.4 c -1,-1.6 -2,-3.2 -3.6,-4.3 -3.9,-3 -8.9,-4 -13.8,-4.3 V 7.4 L 0,20.4 V 48.3 L 24.1,62 48.2,48.3 V 36 Z m 0,-21 c 2.7,0.2 5.6,0.6 7.9,2.1 0.3,0.2 0.7,0.4 -0.3,0.7 -0.7,0.2 -3,0.7 -4.8,0.9 0,0 -1.6,0.1 -2.1,0.1 h -0.7 z m -1.7,7.1 c 1.5,-0.1 3,-0.1 4.4,0.3 0.8,0.2 1.8,0.2 2.4,1 -2.7,0.5 -5.5,0.5 -8.2,0.3 -0.4,-0.1 -0.8,-0.1 -1.2,-0.2 z m 1.5,5.7 c -2.4,-0.1 -5.2,-0.3 -7,-2.2 4.8,1.2 9.9,1.2 14.7,-0.2 -2.1,1.8 -5,2.3 -7.7,2.4 z m 8.6,-5.7 C 31.9,35 31,34.6 30.1,34.3 c 1.4,-0.4 2.9,-0.8 4.3,-1.2 0.8,1.5 -0.6,2.3 -1.9,2.7 z m 4.6,-12.1 c 1.1,1 1.7,2.4 2.1,3.8 l -2.7,1.8 c -0.6,0.2 -1.3,1 -1.9,0.3 -3,-2.3 -6.8,-3.2 -10.5,-3.4 v -6.8 c 4.6,0 9.5,1.1 13,4.3 z"
       id="path4"
       inkscape:connector-curvature="0" />
  </g>
  <path
     d="M 189.5,60.1 H 53.2 v -5.8 h 136.3 z"
     id="path8"
     inkscape:connector-curvature="0"
     style="fill:#020203" />
  <path
     d="m 29.5,3.6 c -0.8,-1 0.4,-2.4 1.5,-2 5,0.8 10,2.4 14,5.6 2.4,2 4.4,4.9 4.3,8.2 0.1,4.3 -2.6,8 -5.7,10.7 -0.9,2 -1.6,4.1 -3.3,5.6 -1.6,1.2 -1.7,3.4 -3,4.7 -1.5,1.6 -1.2,0.6 -1.8,2.5 -1.1,2 -2.9,3.2 -4.7,4.2 -0.7,0.2 -2.2,1 -2.6,-0.3 -0.2,-0.7 2.9,-2.5 0.4,-1.7 -4.2,0.4 -9.5,0.1 -12.1,-3.7 C 16,36.2 16.1,35.9 16.1,35.2 14.2,33.8 12.9,31.7 13,29.3 10.9,27.8 8.9,25.8 8.8,23 c -0.4,-2.7 1.7,-4.8 3.8,-6.1 4.1,-2.4 8.9,-3 13.6,-3 4.8,0.3 9.9,1.4 13.8,4.3 1.5,1.1 2.6,2.7 3.6,4.3 l 0.1,-0.1 C 46.3,19.9 48.1,15.7 46.4,12.3 44.4,8.8 40.6,6.7 37,5.4 34.4,4.5 31.8,4.5 29.5,3.6 Z M 12.3,20.2 c -2.4,1.9 -0.6,5.8 1.8,6.6 3.3,-2.7 7.7,-3.5 11.8,-3.5 3.7,0.2 7.6,1.1 10.6,3.4 0.6,0.7 1.3,-0.1 1.9,-0.3 l 2.7,-1.8 c -0.4,-1.4 -1,-2.8 -2.1,-3.8 -3.5,-3.2 -8.4,-4.3 -13,-4.4 -4.7,0 -9.9,0.7 -13.7,3.8 z m 16.6,9.4 c 1.8,-0.2 4.1,-0.7 4.8,-0.9 0.9,-0.3 0.6,-0.4 0.3,-0.7 -2.3,-1.5 -5.2,-1.9 -7.9,-2.1 -3,0 -6.1,0.3 -8.7,1.8 -0.3,0.2 -1.1,0.3 0,0.6 2.6,0.9 8.9,1.3 9.4,1.3 0.5,0.1 2.1,0 2.1,0 z m -13.6,1 c 0.2,0.6 0.7,1.6 1.7,2.1 0.4,-0.3 1,-0.6 1.6,-0.9 0.3,-0.1 0.7,-0.4 1.1,-0.5 -0.2,0 -0.4,0 -0.9,-0.1 -1.3,-0.1 -2.3,-0.4 -3.5,-0.6 z M 32,31.5 c 0.9,0.3 1.8,0.7 2.4,1.5 1.3,-0.4 2.7,-1.2 1.9,-2.7 -1.4,0.5 -2.8,0.9 -4.3,1.2 z M 20.1,34 c 0.8,0.5 1.9,0.5 2.8,0.6 2.7,0.2 5.5,0.1 8.2,-0.3 -0.5,-0.8 -1.6,-0.8 -2.4,-1 C 25.9,32.6 22.8,33 20.1,34 Z m -1.2,2.5 c 1.8,1.9 4.6,2.1 7,2.2 2.7,-0.1 5.6,-0.6 7.7,-2.4 -4.8,1.4 -9.9,1.4 -14.7,0.2 z"
     id="path10"
     inkscape:connector-curvature="0"
     style="fill:#21254e" />
  <path
     d="m 62.9,31.8 c 2.4,0 4.9,-0.1 7.1,-1 6.1,-2.1 10.2,-8.6 10,-15 C 79.8,12.7 78.8,9.6 76.9,7.1 74.1,3.1 69.2,0.9 64.3,1 H 53.4 v 42.9 h 4.4 V 31.8 M 57.8,5 c 2.5,0 5,-0.1 7.5,0.1 3.7,0.2 7.3,2.3 9.1,5.6 2.3,3.9 2,9.1 -0.8,12.7 -2,2.6 -5.1,4.3 -8.4,4.4 h -7.3 z"
     id="path12"
     inkscape:connector-curvature="0"
     style="fill:#020203" />
  <circle
     cx="26.1"
     cy="2.4000001"
     r="1.9"
     id="circle14"
     style="fill:#21254e" />
  <path
     d="M 26.1,59.3 2,45.6 V 33.2 l 24.1,13.7 z"
     id="path16"
     inkscape:connector-curvature="0"
     style="fill:#21254e" />
  <path
     d="M 26.1,59.3 50.2,45.6 V 33.2 L 26.1,46.9 Z"
     id="path18"
     inkscape:connector-curvature="0"
     style="fill:#e51929" />
  <g
     id="g24"
     style="fill:#020203">
    <path
       d="m 128.2,25.7 v -8.3 h -6.5 c 0.4,1.6 0.7,3.2 0.7,5 0,1.2 -0.1,2.3 -0.3,3.4 z"
       id="path20"
       inkscape:connector-curvature="0" />
    <path
       d="m 120.4,30.4 c -3,6 -9.2,10.1 -16.4,10.1 C 93.9,40.5 85.7,32.3 85.7,22.2 85.7,12.1 94,4 104.1,4 c 6.5,0 12.2,3.4 15.5,8.6 h 4.6 C 120.5,5.1 112.9,0 104.1,0 91.7,0 81.8,10 81.8,22.3 c 0,12.3 10,22.3 22.3,22.3 9.4,0 17.5,-5.9 20.8,-14.2 z"
       id="path22"
       inkscape:connector-curvature="0" />
  </g>
  <path
     d="m 2,45.6 24.1,-13 V 5.1 L 2,18.1 Z"
     id="path26"
     inkscape:connector-curvature="0"
     style="fill:#c1942e" />
  <path
     d="m 29.5,3.6 c -0.8,-1 0.4,-2.4 1.5,-2 5,0.8 10,2.4 14,5.6 2.4,2 4.4,4.9 4.3,8.2 0.1,4.3 -2.6,8 -5.7,10.7 -0.9,2 -1.6,4.1 -3.3,5.6 -1.6,1.2 -1.7,3.4 -3,4.7 -1.5,1.6 -1.2,0.6 -1.8,2.5 -1.1,2 -2.9,3.2 -4.7,4.2 -0.7,0.2 -2.2,1 -2.6,-0.3 -0.2,-0.7 2.9,-2.5 0.4,-1.7 -4.2,0.4 -9.5,0.1 -12.1,-3.7 C 16,36.2 16.1,35.9 16.1,35.2 14.2,33.8 12.9,31.7 13,29.3 10.9,27.8 8.9,25.8 8.8,23 c -0.4,-2.7 1.7,-4.8 3.8,-6.1 4.1,-2.4 8.9,-3 13.6,-3 4.8,0.3 9.9,1.4 13.8,4.3 1.5,1.1 2.6,2.7 3.6,4.3 l 0.1,-0.1 C 46.3,19.9 48.1,15.7 46.4,12.3 44.4,8.8 40.6,6.7 37,5.4 34.4,4.5 31.8,4.5 29.5,3.6 Z M 12.3,20.2 c -2.4,1.9 -0.6,5.8 1.8,6.6 3.3,-2.7 7.7,-3.5 11.8,-3.5 3.7,0.2 7.6,1.1 10.6,3.4 0.6,0.7 1.3,-0.1 1.9,-0.3 l 2.7,-1.8 c -0.4,-1.4 -1,-2.8 -2.1,-3.8 -3.5,-3.2 -8.4,-4.3 -13,-4.4 -4.7,0 -9.9,0.7 -13.7,3.8 z m 16.6,9.4 c 1.8,-0.2 4.1,-0.7 4.8,-0.9 0.9,-0.3 0.6,-0.4 0.3,-0.7 -2.3,-1.5 -5.2,-1.9 -7.9,-2.1 -3,0 -6.1,0.3 -8.7,1.8 -0.3,0.2 -1.1,0.3 0,0.6 2.6,0.9 8.9,1.3 9.4,1.3 0.5,0.1 2.1,0 2.1,0 z m -13.6,1 c 0.2,0.6 0.7,1.6 1.7,2.1 0.4,-0.3 1,-0.6 1.6,-0.9 0.3,-0.1 0.7,-0.4 1.1,-0.5 -0.2,0 -0.4,0 -0.9,-0.1 -1.3,-0.1 -2.3,-0.4 -3.5,-0.6 z M 32,31.5 c 0.9,0.3 1.8,0.7 2.4,1.5 1.3,-0.4 2.7,-1.2 1.9,-2.7 -1.4,0.5 -2.8,0.9 -4.3,1.2 z M 20.1,34 c 0.8,0.5 1.9,0.5 2.8,0.6 2.7,0.2 5.5,0.1 8.2,-0.3 -0.5,-0.8 -1.6,-0.8 -2.4,-1 C 25.9,32.6 22.8,33 20.1,34 Z m -1.2,2.5 c 1.8,1.9 4.6,2.1 7,2.2 2.7,-0.1 5.6,-0.6 7.7,-2.4 -4.8,1.4 -9.9,1.4 -14.7,0.2 z"
     id="path28"
     inkscape:connector-curvature="0"
     style="fill:#271e47" />
  <circle
     cx="26.1"
     cy="2.4000001"
     r="1.9"
     id="circle30"
     style="fill:#21254e" />
  <path
     d="M 26.1,59.3 2,45.6 V 33.2 l 24.1,13.7 z"
     id="path32"
     inkscape:connector-curvature="0"
     style="fill:#342257" />
  <path
     d="M 26.1,59.3 50.2,45.6 V 33.2 L 26.1,46.9 Z"
     id="path34"
     inkscape:connector-curvature="0"
     style="fill:#a4284c" />
  <path
     d="M 153.1,9.5 V 1 h -21.4 v 42.9 h 8.1 V 25.7 h 12.7 V 17.3 H 139.8 V 9.5 Z"
     id="path36"
     inkscape:connector-curvature="0"
     style="fill:#020203" />
  <path
     d="M 187.3,43.9 174.6,21.6 186.4,1 h -9.9 L 169.7,13 162.8,1 H 153 L 164.8,21.6 152,43.9 h 9.8 l 7.9,-13.7 7.8,13.7 z"
     id="path38"
     inkscape:connector-curvature="0"
     style="fill:#020203" />
  <g
     id="g42"
     style="fill:#020203">
    <path
       d="M 57.9,52.4 V 48 L 56,52.4 H 55.6 L 53.8,48 v 4.4 h -0.5 v -5 H 54 l 1.8,4.2 1.8,-4.2 h 0.8 v 5 z m 3.2,0.1 c -1,0 -1.7,-0.6 -1.7,-2 v -3.1 h 0.5 v 3.1 c 0,1 0.4,1.5 1.2,1.5 0.8,0 1.2,-0.5 1.2,-1.5 v -3.1 h 0.5 v 3.1 c 0,1.4 -0.7,2 -1.7,2 z m 2.7,-0.1 v -5 h 0.5 V 52 h 2.1 v 0.5 h -2.6 z m 3.9,-4.5 v 4.5 h -0.5 v -4.5 h -1.1 v -0.5 h 2.8 v 0.5 z m 1.7,4.5 v -5 h 0.5 v 5 z m 6.2,0 V 48 l -1.9,4.4 H 73.3 L 71.4,48 v 4.4 h -0.5 v -5 h 0.8 l 1.8,4.2 1.8,-4.2 h 0.8 v 5 z m 1.4,0 v -5 h 2.7 v 0.5 h -2.2 v 1.8 h 2.2 v 0.5 H 77.5 V 52 h 2.2 v 0.5 H 77 Z m 5,0 h -1.3 v -5 h 1.2 c 0.9,0 1.4,0.1 1.9,0.4 0.7,0.4 1.1,1.2 1.1,2.1 -0.1,1.5 -1,2.5 -2.9,2.5 z m 1.4,-4.2 C 83,48 82.6,47.9 81.8,47.9 H 81.1 V 52 h 0.7 c 0.9,0 1.4,-0.1 1.8,-0.4 0.5,-0.4 0.7,-0.9 0.7,-1.6 0,-0.8 -0.3,-1.4 -0.9,-1.8 z m 2.2,4.2 v -5 h 0.5 v 5 z m 5.3,0 -0.7,-1.7 h -2.3 l -0.7,1.7 h -0.5 l 2.1,-5 h 0.6 l 2.1,5 z M 89,48 88,50.3 h 2 z m 4.8,4.4 v -5 h 2.7 v 0.5 h -2.2 v 1.8 h 2.2 v 0.5 H 94.3 V 52 h 2.2 v 0.5 h -2.7 z m 7.1,0 -3,-4.4 v 4.4 h -0.5 v -5 h 0.7 l 2.8,4.1 v -4.1 h 0.5 v 5 z m 2.6,-4.5 v 4.5 H 103 v -4.5 h -1.1 v -0.5 h 2.8 v 0.5 z m 1.7,4.5 v -5 h 2.7 v 0.5 h -2.2 v 1.8 h 2.2 v 0.5 h -2.2 V 52 h 2.2 v 0.5 h -2.7 z m 5.5,-1.8 1.4,1.9 h -0.6 l -1.7,-2.3 c 1.4,0 1.9,-0.2 1.9,-1.1 0,-0.8 -0.5,-1.1 -1.7,-1.1 h -0.7 v 4.5 h -0.5 v -5 h 1.2 c 1.6,0 2.1,0.6 2.1,1.6 0,0.8 -0.5,1.4 -1.4,1.5 z m 3.3,-2.7 v 4.5 h -0.5 v -4.5 h -1.1 v -0.5 h 2.8 v 0.5 z m 5.2,4.5 -0.7,-1.7 h -2.3 l -0.7,1.7 H 115 l 2.1,-5 h 0.6 l 2.1,5 z m -1.9,-4.4 -1,2.3 h 1.9 z m 3,4.4 v -5 h 0.5 v 5 z m 4.9,0 -3,-4.4 v 4.4 h -0.5 v -5 h 0.7 l 2.8,4.1 v -4.1 h 0.5 v 5 z m 6.2,0 V 48 l -1.9,4.4 h -0.4 L 127.2,48 v 4.4 h -0.5 v -5 h 0.8 l 1.8,4.2 1.8,-4.2 h 0.8 v 5 z m 1.4,0 v -5 h 2.7 v 0.5 h -2.2 v 1.8 h 2.2 v 0.5 h -2.2 V 52 h 2.2 v 0.5 h -2.7 z m 7.1,0 -3,-4.4 v 4.4 h -0.5 v -5 h 0.7 l 2.8,4.1 v -4.1 h 0.5 v 5 z m 2.6,-4.5 v 4.5 H 142 v -4.5 h -1.1 v -0.5 h 2.8 v 0.5 z m 5,2.5 h -1 v 2 H 146 v -5 h 1.4 c 1.4,0 1.9,0.5 1.9,1.5 0,1 -0.5,1.5 -1.8,1.5 z m -0.3,-2.5 h -0.7 V 50 h 0.9 c 1,0 1.4,-0.3 1.4,-1 0,-1 -0.6,-1.1 -1.6,-1.1 z m 2.8,4.5 v -5 h 0.5 V 52 h 2.1 v 0.5 H 150 Z m 7.1,0 -0.7,-1.7 h -2.3 l -0.7,1.7 h -0.5 l 2.1,-5 h 0.6 l 2.1,5 z m -1.8,-4.4 -1,2.3 h 1.9 z m 4.1,2.8 v 1.7 h -0.5 v -1.7 l -1.7,-3.3 h 0.6 l 1.4,2.8 1.5,-2.8 h 0.5 z m 2.3,1.6 v -5 h 2.7 v 0.5 h -2.2 v 1.8 h 2.2 v 0.5 h -2.2 V 52 h 2.2 v 0.5 h -2.7 z m 5.5,-1.8 1.4,1.9 H 168 l -1.7,-2.3 c 1.4,0 1.9,-0.2 1.9,-1.1 0,-0.8 -0.5,-1.1 -1.7,-1.1 h -0.7 v 4.5 h -0.5 v -5 h 1.2 c 1.6,0 2.1,0.6 2.1,1.6 0,0.8 -0.5,1.4 -1.4,1.5 z m 5.4,-0.2 h -1 v 2 h -0.5 v -5 h 1.4 c 1.4,0 1.9,0.5 1.9,1.5 0,1 -0.5,1.5 -1.8,1.5 z m -0.3,-2.5 h -0.7 V 50 h 0.9 c 1,0 1.4,-0.3 1.4,-1 0,-1 -0.6,-1.1 -1.6,-1.1 z m 5.2,4.6 c -1.5,0 -2.6,-1.1 -2.6,-2.6 0,-1.5 1.1,-2.6 2.6,-2.6 1,0 1.9,0.5 2.3,1.4 h -0.6 c -0.4,-0.7 -1,-0.9 -1.7,-0.9 -1.2,0 -2.1,0.9 -2.1,2.1 0,1.2 1,2.1 2.1,2.1 0.7,0 1.2,-0.3 1.7,-0.9 h 0.6 c -0.5,1 -1.3,1.4 -2.3,1.4 z m 5.3,-4.6 v 1.8 h 2 v 0.5 h -2 v 2.3 h -0.5 v -5 h 2.5 V 48 Z m 5.7,4.5 -1.4,-2.1 -1.4,2.1 h -0.6 l 1.7,-2.5 -1.6,-2.4 h 0.6 l 1.3,2 1.3,-2 h 0.6 l -1.6,2.4 1.7,2.5 z"
       id="path40"
       inkscape:connector-curvature="0" />
  </g>
  <path
     d="m 180.9,50.4 c -0.2,0 -0.4,-0.2 -0.4,-0.4 0,-0.2 0.2,-0.4 0.4,-0.4 0.2,0 0.4,0.2 0.4,0.4 -0.1,0.2 -0.2,0.4 -0.4,0.4 z"
     id="path44"
     inkscape:connector-curvature="0"
     style="fill:#020203" />
</svg>
