<?xml version="1.0" encoding="UTF-8" standalone="no"?>
<svg
   xmlns:dc="http://purl.org/dc/elements/1.1/"
   xmlns:cc="http://creativecommons.org/ns#"
   xmlns:rdf="http://www.w3.org/1999/02/22-rdf-syntax-ns#"
   xmlns:svg="http://www.w3.org/2000/svg"
   xmlns="http://www.w3.org/2000/svg"
   xmlns:sodipodi="http://sodipodi.sourceforge.net/DTD/sodipodi-0.dtd"
   xmlns:inkscape="http://www.inkscape.org/namespaces/inkscape"
   viewBox="-328.653 902.925 98.806 61.891001"
   version="1.1"
   id="svg26"
   sodipodi:docname="game.svg"
   width="98.806"
   height="61.890999"
   inkscape:version="0.92.4 5da689c313, 2019-01-14">
  <metadata
     id="metadata32">
    <rdf:RDF>
      <cc:Work
         rdf:about="">
        <dc:format>image/svg+xml</dc:format>
        <dc:type
           rdf:resource="http://purl.org/dc/dcmitype/StillImage" />
      </cc:Work>
    </rdf:RDF>
  </metadata>
  <defs
     id="defs30" />
  <sodipodi:namedview
     pagecolor="#ffffff"
     bordercolor="#666666"
     borderopacity="1"
     objecttolerance="10"
     gridtolerance="10"
     guidetolerance="10"
     inkscape:pageopacity="0"
     inkscape:pageshadow="2"
     inkscape:window-width="471"
     inkscape:window-height="442"
     id="namedview28"
     showgrid="false"
     inkscape:zoom="2.7427484"
     inkscape:cx="49.401"
     inkscape:cy="30.945001"
     inkscape:window-x="0"
     inkscape:window-y="0"
     inkscape:window-maximized="0"
     inkscape:current-layer="svg26">
    <inkscape:grid
       type="xygrid"
       id="grid34"
       originx="-0.002"
       originy="-0.00099829105" />
  </sodipodi:namedview>
  <path
     d="m -229.849,904.312 c 0,-0.769 -0.618,-1.387 -1.387,-1.387 h -96.02 c -0.769,0 -1.387,0.618 -1.387,1.387 v 4.204 c 0,0.768 0.618,1.387 1.387,1.387 h 4.75 c 0.769,0 1.387,0.619 1.387,1.387 v 18.703 h -6.147 c -0.769,0 -1.387,0.618 -1.387,1.387 v 32.049 c 0,0.768 0.618,1.387 1.387,1.387 h 96.032 c 0.769,0 1.387,-0.618 1.387,-1.387 l -0.002,-59.117"
     id="path2"
     inkscape:connector-curvature="0"
     style="fill:#2c2c2c" />
  <path
     d="m -238.971,960.81 h -70.54 c -2.849,0 -5.18,-2.331 -5.18,-5.18 v -47.525 c 0,-2.849 2.331,-5.18 5.18,-5.18 h 70.54 c 2.849,0 5.18,2.331 5.18,5.18 v 47.525 c 0,2.849 -2.331,5.18 -5.18,5.18 z"
     id="path4"
     inkscape:connector-curvature="0"
     style="fill:#a9a9a9" />
  <circle
     cx="-321.31601"
     cy="948.93201"
     r="3.306"
     id="circle6"
     style="fill:#e0e0e0" />
  <path
     d="m -327.257,929.994 v -20.09 h 4.75 c 0.769,0 1.387,0.619 1.387,1.387 v 18.703 h -6.147"
     id="path8"
     inkscape:connector-curvature="0"
     style="fill:#1d1c16" />
  <path
     d="m -320.34,913.747 h -8.081 a 0.223,0.223 0 0 1 -0.223,-0.223 v -1.506 c 0,-0.123 0.1,-0.223 0.223,-0.223 h 8.081 c 0.123,0 0.223,0.1 0.223,0.223 v 1.506 a 0.225,0.225 0 0 1 -0.223,0.223 z m 0,3.495 h -8.081 a 0.223,0.223 0 0 1 -0.223,-0.223 v -1.506 c 0,-0.123 0.1,-0.223 0.223,-0.223 h 8.081 c 0.123,0 0.223,0.1 0.223,0.223 v 1.506 a 0.225,0.225 0 0 1 -0.223,0.223 z m 0,3.495 h -8.081 a 0.223,0.223 0 0 1 -0.223,-0.223 v -1.506 c 0,-0.123 0.1,-0.223 0.223,-0.223 h 8.081 c 0.123,0 0.223,0.1 0.223,0.223 v 1.506 a 0.225,0.225 0 0 1 -0.223,0.223 z m 0,3.4 h -8.081 a 0.223,0.223 0 0 1 -0.223,-0.223 v -1.506 c 0,-0.123 0.1,-0.223 0.223,-0.223 h 8.081 c 0.123,0 0.223,0.1 0.223,0.223 v 1.506 a 0.224,0.224 0 0 1 -0.223,0.223 z m 0,3.401 h -8.081 a 0.223,0.223 0 0 1 -0.223,-0.223 v -1.506 c 0,-0.123 0.1,-0.223 0.223,-0.223 h 8.081 c 0.123,0 0.223,0.1 0.223,0.223 v 1.506 a 0.225,0.225 0 0 1 -0.223,0.223 z"
     id="path10"
     inkscape:connector-curvature="0"
     style="fill:#333333" />
  <text
     font-size=".092"
     id="text12"
     style="font-size:0.092px;font-family:ArialMT;fill:#c23435"
     x="-241.196"
     y="953.22699">I don’t like bugs!</text>
  <path
     d="m -250.306,952.465 h 12.015 v 4.582 h -12.015 z"
     id="path14"
     inkscape:connector-curvature="0"
     style="fill:#25231d" />
  <path
     d="m -238.662,954.762 v -1.906 h -4.267 v 3.811 h 4.267 z"
     id="path16"
     inkscape:connector-curvature="0"
     style="fill:#ffffff" />
  <path
     d="m -242.001,954.793 v -1.566 h 1.587 l 0.721,0.541 v 0.757 h -0.606 l 0.77,0.567 0.001,0.634 0.001,0.633 h -0.721 l -0.005,-0.613 -0.005,-0.613 -1.041,-0.011 v 1.237 H -242 Z m 1.566,-0.618 v -0.288 h -0.866 v 0.577 h 0.866 z"
     id="path18"
     inkscape:connector-curvature="0"
     style="fill:#25231d" />
  <g
     id="g22"
     style="fill:#ffffff"
     transform="translate(-0.002)">
    <path
       d="m -248.47,956.297 v -0.082 l -0.34,-0.012 -0.006,-0.211 -0.006,-0.211 h 0.352 v -0.165 h -0.35 v -0.269 l -0.361,0.012 -0.006,0.129 -0.006,0.129 h -0.245 v 0.165 h 0.247 v 0.221 c 0,0.122 0.006,0.243 0.013,0.27 0.022,0.082 0.113,0.104 0.424,0.105 l 0.283,10e-4 v -0.082 z m 1.174,-0.299 v -0.381 h -0.371 v 0.577 h -0.227 v -0.577 h -0.35 v 0.337 c 0,0.295 0.004,0.341 0.036,0.368 0.059,0.052 0.081,0.054 0.505,0.056 l 0.407,0.002 z m 0.635,0.077 0.006,-0.294 h 0.349 v -0.165 h -0.232 c -0.281,10e-4 -0.382,0.022 -0.443,0.092 -0.043,0.05 -0.046,0.073 -0.046,0.348 0,0.162 0.007,0.301 0.014,0.309 a 0.635,0.635 0 0 0 0.18,0.009 l 0.166,-0.006 z m 1.398,0.247 c 0.074,-0.06 0.093,-0.124 0.093,-0.315 0,-0.347 -0.044,-0.395 -0.379,-0.407 l -0.222,-0.008 v -0.244 l -0.361,0.012 -0.011,0.999 h 0.418 c 0.365,-0.002 0.424,-0.006 0.462,-0.037 z m -0.508,-0.335 v -0.206 h 0.227 v 0.412 h -0.227 z m 1.677,0.329 c 0.065,-0.051 0.096,-0.154 0.096,-0.318 0,-0.17 -0.031,-0.266 -0.105,-0.328 -0.061,-0.052 -0.071,-0.053 -0.366,-0.053 -0.338,0 -0.376,0.012 -0.428,0.136 -0.035,0.083 -0.039,0.424 -0.006,0.489 0.055,0.107 0.088,0.116 0.433,0.117 0.294,-0.001 0.327,-0.004 0.376,-0.043 z m -0.481,-0.329 v -0.206 h 0.227 v 0.412 h -0.227 z"
       id="path20"
       inkscape:connector-curvature="0" />
  </g>
  <path
     d="m -248.796,954.731 c 0.056,-0.187 0.108,-0.347 0.116,-0.356 0.008,-0.009 0.04,0.07 0.072,0.175 l 0.108,0.362 0.052,0.171 0.396,-0.012 0.057,-0.175 0.117,-0.37 0.06,-0.195 0.124,0.37 0.124,0.37 0.667,0.005 c 0.776,0.006 0.818,0 0.985,-0.15 0.134,-0.12 0.179,-0.234 0.178,-0.442 -0.002,-0.238 -0.105,-0.427 -0.285,-0.52 -0.071,-0.037 -0.137,-0.046 -0.404,-0.059 a 3.003,3.003 0 0 1 -0.356,-0.029 c -0.05,-0.021 -0.048,-0.126 0.004,-0.154 0.025,-0.013 0.261,-0.021 0.623,-0.021 h 0.584 l 0.165,0.209 c 0.091,0.115 0.163,0.217 0.16,0.226 -0.003,0.009 -0.14,0.213 -0.306,0.453 -0.166,0.24 -0.305,0.448 -0.311,0.464 -0.009,0.023 0.038,0.028 0.254,0.028 h 0.265 l 0.196,-0.258 c 0.108,-0.142 0.201,-0.258 0.207,-0.258 0.006,0 0.094,0.116 0.195,0.258 l 0.184,0.258 h 0.274 c 0.15,0 0.274,-0.004 0.274,-0.009 0,-0.005 -0.144,-0.214 -0.319,-0.466 -0.175,-0.252 -0.319,-0.47 -0.319,-0.486 0,-0.016 0.13,-0.214 0.289,-0.44 0.159,-0.226 0.289,-0.42 0.289,-0.432 0,-0.014 -0.097,-0.021 -0.266,-0.021 h -0.267 l -0.11,0.154 -0.166,0.237 c -0.031,0.046 -0.064,0.083 -0.072,0.083 -0.008,0 -0.075,-0.083 -0.147,-0.184 -0.217,-0.303 -0.096,-0.272 -1.025,-0.265 -0.784,0.006 -0.803,0.007 -0.888,0.052 -0.169,0.091 -0.26,0.266 -0.259,0.5 10e-4,0.192 0.029,0.299 0.108,0.408 0.101,0.139 0.15,0.154 0.536,0.168 0.355,0.013 0.433,0.031 0.433,0.103 0,0.092 -0.062,0.103 -0.547,0.103 h -0.455 l -0.39,-1.329 -0.433,-0.012 -0.101,0.33 c -0.055,0.182 -0.107,0.33 -0.114,0.33 a 0.923,0.923 0 0 1 -0.07,-0.191 l -0.099,-0.33 -0.042,-0.14 -0.438,0.012 -0.068,0.247 a 57.056,57.056 0 0 0 -0.396,1.553 c 0,0.018 0.061,0.023 0.231,0.019 l 0.231,-0.006 z"
     id="path24"
     inkscape:connector-curvature="0"
     style="fill:#ffffff" />
</svg>
