<?xml version="1.0" encoding="UTF-8" standalone="no"?>
<svg
   xmlns:dc="http://purl.org/dc/elements/1.1/"
   xmlns:cc="http://creativecommons.org/ns#"
   xmlns:rdf="http://www.w3.org/1999/02/22-rdf-syntax-ns#"
   xmlns:svg="http://www.w3.org/2000/svg"
   xmlns="http://www.w3.org/2000/svg"
   xmlns:sodipodi="http://sodipodi.sourceforge.net/DTD/sodipodi-0.dtd"
   xmlns:inkscape="http://www.inkscape.org/namespaces/inkscape"
   viewBox="0 0 459 168.73114"
   version="1.1"
   id="svg16"
   sodipodi:docname="logo.svg"
   width="459"
   height="168.73114"
   inkscape:version="0.92.4 5da689c313, 2019-01-14">
  <metadata
     id="metadata22">
    <rdf:RDF>
      <cc:Work
         rdf:about="">
        <dc:format>image/svg+xml</dc:format>
        <dc:type
           rdf:resource="http://purl.org/dc/dcmitype/StillImage" />
      </cc:Work>
    </rdf:RDF>
  </metadata>
  <defs
     id="defs20" />
  <sodipodi:namedview
     pagecolor="#ffffff"
     bordercolor="#666666"
     borderopacity="1"
     objecttolerance="10"
     gridtolerance="10"
     guidetolerance="10"
     inkscape:pageopacity="0"
     inkscape:pageshadow="2"
     inkscape:window-width="640"
     inkscape:window-height="480"
     id="namedview18"
     showgrid="false"
     inkscape:zoom="0.59351079"
     inkscape:cx="228.30238"
     inkscape:cy="84.365395"
     inkscape:window-x="0"
     inkscape:window-y="0"
     inkscape:window-maximized="0"
     inkscape:current-layer="svg16" />
  <g
     id="g6"
     style="fill:#00007f"
     transform="translate(-1.2702701e-4,2.5066731e-4)">
    <path
       d="M 53.227,168.73 C 24.127,168.899 0.166,145.14 0.001,115.951 -0.165,86.564 23.364,62.764 52.855,62.486 c 29.098,-0.273 53.217,23.506 53.376,52.625 0.163,29.622 -23.389,53.447 -53.004,53.619 z m 21.972,-59.545 c 8.758,-0.029 15.777,-7.073 15.681,-15.737 -0.097,-8.715 -7.126,-15.554 -15.924,-15.492 -8.578,0.061 -15.444,6.966 -15.495,15.585 -0.051,8.672 6.992,15.673 15.738,15.644 z m -6.228,16.157 c 1.9,-0.524 4.022,-0.533 4.336,-1.291 1.706,-4.128 5.039,-3.38 8.152,-3.044 2.037,0.22 3.315,1.503 3.226,3.817 -0.086,2.24 -1.659,2.569 -3.354,2.883 -2.934,0.543 -5.951,0.85 -8.766,1.769 -3.376,1.102 -4.808,3.732 -4.615,7.226 0.183,3.322 2.149,5.601 5.56,6.578 4.16,1.191 7.656,-0.352 9.896,-1.951 2.78,0.936 4.718,1.681 6.717,2.182 0.398,0.1 1.363,-0.666 1.473,-1.163 0.153,-0.694 -0.133,-2.121 -0.437,-2.18 -2.642,-0.518 -2.002,-2.517 -2.023,-4.166 -0.047,-3.718 -0.008,-7.436 -0.016,-11.154 -0.01,-4.85 -1.67,-6.9 -6.211,-7.697 -6.672,-1.171 -12.023,0.755 -13.395,4.867 -0.254,0.751 -0.27,1.581 -0.543,3.324 z m -25.778,-7.569 c 0,6.755 -0.107,13.334 0.051,19.907 0.066,2.736 1.864,4.535 4.436,5.378 4.532,1.485 8.506,0.371 12.272,-3.366 -0.191,3.682 1.78,2.848 3.547,2.67 V 117.843 H 59.26 c 0,4.536 0.108,8.858 -0.052,13.171 -0.067,1.805 -0.412,3.72 -1.145,5.355 -1.217,2.713 -4.182,3.889 -6.995,3.247 -3.121,-0.713 -3.512,-3.025 -3.489,-5.692 0.046,-5.336 0.014,-10.672 0.014,-16.151 z m -4.28,20.785 H 21.481 v -30.692 h -4.212 v 34.658 H 38.912 Z M 90.868,62.305 c 0.026,-8.699 6.794,-15.358 15.573,-15.323 8.647,0.035 15.481,6.937 15.417,15.573 -0.063,8.525 -7.117,15.454 -15.676,15.4 C 97.554,77.9 90.842,71.041 90.868,62.305 Z"
       id="path2"
       inkscape:connector-curvature="0" />
    <path
       d="m 84.39,130.461 c 0.882,6.759 -2.713,10.603 -8.58,9.065 -1.308,-0.343 -3.138,-1.962 -3.175,-3.048 -0.046,-1.33 1.256,-3.469 2.476,-3.93 2.934,-1.106 6.16,-1.439 9.279,-2.087 z"
       id="path4"
       inkscape:connector-curvature="0" />
  </g>
  <g
     id="g10"
     style="fill:#00007f"
     transform="translate(-1.2702701e-4,2.5066731e-4)">
    <path
       d="m 113.317,130.397 c 0.472,-8.475 4.649,-13.004 12.532,-13.586 8.025,0.395 12.395,3.93 13.108,10.605 l -8.613,-0.033 c -0.494,-3.184 -1.328,-5.286 -2.503,-6.307 -1.175,-1.043 -2.371,-0.867 -3.59,0.527 -1.208,1.394 -1.844,4.254 -1.91,8.58 -0.121,5.72 0.472,8.958 1.779,9.716 1.306,0.747 2.624,0.653 3.952,-0.28 1.328,-0.933 2.042,-2.882 2.141,-5.846 l -4.496,-0.016 -0.049,-3.623 h 13.24 c -0.637,7.454 -3.145,11.736 -7.526,12.845 -4.38,1.109 -8.382,0.801 -12.005,-0.922 -3.623,-1.725 -5.643,-5.611 -6.06,-11.66 z m 41.927,-5.237 7.723,0.016 v 18.509 h -7.74 l -0.016,-0.626 c -0.604,0.472 -2.443,0.653 -5.517,0.543 -3.14,-0.066 -5.445,-1.065 -6.916,-2.997 -1.471,-1.943 -2.113,-4.051 -1.927,-6.324 0.033,-2.086 0.62,-3.98 1.762,-5.681 1.142,-1.702 3.326,-2.959 6.554,-3.771 3.063,-0.209 5.089,0.104 6.077,0.939 z m -2.882,1.746 c -2.064,0.088 -3.134,1.685 -3.211,4.792 v 4.973 c 0.165,3.052 1.257,4.649 3.277,4.792 1.976,-0.209 2.948,-1.092 2.915,-2.651 v -8.679 c 0.154,-1.965 -0.84,-3.041 -2.981,-3.227 z m 23.994,-2.174 c 3.93,-0.626 6.4,0.593 7.41,3.656 0.527,-1.383 2.267,-2.684 5.22,-3.903 5.16,-0.758 7.937,1.153 8.333,5.731 v 13.355 l -6.472,-0.033 0.049,-11 c 0.066,-2.514 -0.972,-3.716 -3.112,-3.606 -1.855,-0.274 -3.195,0.609 -4.018,2.651 v 12.071 h -6.653 1.334 -1.334 v -12.631 c 0,-1.669 -0.977,-2.591 -2.931,-2.767 -1.372,-0.121 -2.404,0.538 -3.096,1.976 v 13.421 h -6.768 V 125.49 h 6.11 -1.334 2.026 l -0.016,2.207 c 1.481,-1.713 3.232,-2.702 5.252,-2.965 z m 32.754,0.165 c 6.488,0.198 9.886,3.299 10.194,9.304 H 206.26 c -0.099,3.985 0.384,6.241 1.449,6.768 1.065,0.516 2.119,0.45 3.162,-0.198 1.065,-0.648 1.488,-2.124 1.268,-4.43 h 7 -1.433 1.433 c -0.977,3.941 -3.03,6.247 -6.159,6.916 -3.129,0.67 -6.066,0.472 -8.81,-0.593 -2.734,-1.076 -4.512,-3.535 -5.336,-7.378 l -0.016,-1.285 c 0.812,-5.794 4.243,-8.83 10.292,-9.104 z m 0.099,2.009 c -1.91,0.099 -2.893,1.575 -2.948,4.43 h 5.715 c -0.022,-2.723 -0.944,-4.2 -2.767,-4.43 z m 17.719,-9.634 H 248.6 v 5.22 l -14.212,-0.016 v 5.945 h 11.28 v 4.035 h -11.28 v 11.149 h -7.46 z m 35.093,8.119 c 5.105,-0.428 7.652,1.449 7.641,5.632 h -5.928 c 0.044,-1.888 -1.125,-2.794 -3.508,-2.717 -1.295,0.285 -1.949,0.928 -1.96,1.927 v 13.421 h -8.02 V 125.49 h 7.229 -1.564 2.388 l -0.016,2.207 c 0.834,-1.186 2.081,-1.955 3.738,-2.306 z m 23.286,-0.231 7.723,0.016 v 18.509 h -7.74 l -0.016,-0.626 c -0.604,0.472 -2.443,0.653 -5.517,0.543 -3.14,-0.066 -5.445,-1.065 -6.916,-2.997 -1.471,-1.943 -2.113,-4.051 -1.927,-6.324 0.033,-2.086 0.62,-3.98 1.762,-5.681 1.142,-1.702 3.327,-2.959 6.554,-3.771 3.063,-0.209 5.089,0.104 6.077,0.939 z m -2.882,1.746 c -2.064,0.088 -3.134,1.685 -3.211,4.792 v 4.973 c 0.165,3.052 1.257,4.649 3.277,4.792 1.976,-0.209 2.948,-1.092 2.915,-2.651 v -8.679 c 0.153,-1.965 -0.84,-3.041 -2.981,-3.227 z m 23.993,-2.174 c 3.93,-0.626 6.4,0.593 7.41,3.656 0.527,-1.383 2.267,-2.684 5.22,-3.903 5.16,-0.758 7.937,1.153 8.333,5.731 v 13.355 l -6.472,-0.033 0.049,-11 c 0.066,-2.514 -0.972,-3.716 -3.112,-3.606 -1.855,-0.274 -3.195,0.609 -4.018,2.651 v 12.071 h -6.653 1.334 -1.334 v -12.631 c 0,-1.669 -0.977,-2.591 -2.931,-2.767 -1.372,-0.121 -2.404,0.538 -3.096,1.976 v 13.421 h -6.769 V 125.49 h 6.11 -1.334 2.026 l -0.016,2.207 c 1.482,-1.713 3.233,-2.702 5.253,-2.965 z m 32.755,0.165 c 6.488,0.198 9.886,3.299 10.194,9.304 h -13.043 c -0.099,3.985 0.384,6.241 1.449,6.768 1.065,0.516 2.119,0.45 3.162,-0.198 1.065,-0.648 1.488,-2.124 1.268,-4.43 h 7 -1.433 1.433 c -0.977,3.941 -3.03,6.247 -6.159,6.916 -3.129,0.669 -6.066,0.472 -8.81,-0.593 -2.734,-1.076 -4.512,-3.535 -5.336,-7.378 l -0.016,-1.285 c 0.811,-5.794 4.242,-8.83 10.291,-9.104 z m 0.099,2.009 c -1.91,0.099 -2.893,1.575 -2.948,4.43 h 5.715 c -0.023,-2.723 -0.945,-4.2 -2.767,-4.43 z m 11.412,-2.372 h 7.509 l 3.261,12.005 4.1,-12.005 h 6.999 l 4.265,12.005 3.261,-12.005 h 7.443 l -7.443,19.07 h -6.9 l -4.1,-11.478 -3.952,11.478 h -6.933 z m 38.287,9.058 c 0.285,-3.283 1.411,-5.577 3.376,-6.884 1.965,-1.306 4.326,-1.916 7.081,-1.828 h 1.219 c 3.008,0.154 5.358,0.952 7.048,2.396 1.691,1.444 2.651,3.532 2.882,6.266 0.077,3.392 -0.867,5.852 -2.832,7.378 -1.954,1.504 -4.337,2.399 -7.147,2.684 h -1.268 c -3.612,-0.274 -6.219,-1.219 -7.822,-2.832 -1.592,-1.592 -2.438,-3.986 -2.537,-7.18 z m 10.82,-6.423 c -2.185,0.066 -3.305,1.493 -3.359,4.282 v 5.5 c 0.154,2.723 1.295,4.155 3.425,4.298 2.108,-0.198 3.14,-1.663 3.096,-4.397 v -5.336 c -0.055,-2.876 -1.109,-4.325 -3.162,-4.347 z m 24.076,-1.778 c 5.105,-0.428 7.652,1.449 7.641,5.632 h -5.928 c 0.044,-1.888 -1.125,-2.794 -3.508,-2.717 -1.295,0.285 -1.949,0.928 -1.96,1.927 v 13.421 h -8.02 V 125.49 h 7.229 -1.564 2.388 l -0.016,2.207 c 0.834,-1.186 2.08,-1.955 3.738,-2.306 z m 16.945,18.262 h -8.02 V 125.49 l 0.033,-8.152 h 8.003 l -0.016,11.116 6.867,-8.629 h 4.15 l -5.303,7.048 10.078,16.83 h -8.711 l -6.406,-10.259 -0.576,0.692 z"
       id="path8"
       inkscape:connector-curvature="0" />
  </g>
  <g
     id="g14"
     style="fill:#7a7777"
     transform="translate(-1.2702701e-4,2.5066731e-4)">
    <path
       d="m 263.183,0.683 c -1.922,0.838 -3.45,2.564 -4.437,4.832 -0.592,1.528 -0.74,4.19 -0.74,14.692 v 12.82 h -3.796 c -5.127,0 -7.543,1.182 -9.515,4.634 -1.923,3.254 -1.923,5.719 -0.099,9.22 1.874,3.648 4.339,4.88 9.516,4.88 h 3.845 l 0.148,21.3 c 0.197,20.41 0.247,21.495 1.282,24.601 2.07,6.163 7.1,12.277 12.276,14.89 5.522,2.81 14.594,3.845 21.004,2.416 5.226,-1.233 7.987,-4.881 7.642,-10.206 -0.247,-3.747 -1.726,-6.015 -5.079,-7.642 -2.415,-1.183 -3.993,-1.183 -9.269,-0.05 -3.056,0.691 -6.902,-0.542 -8.43,-2.563 -0.987,-1.38 -1.036,-2.021 -1.184,-22.088 l -0.148,-20.658 h 6.804 c 9.27,-0.049 11.192,-0.887 13.51,-6.113 0.739,-1.676 0.985,-3.008 0.788,-4.29 -0.345,-2.76 -2.662,-5.916 -5.275,-7.247 -1.923,-0.986 -2.91,-1.085 -8.974,-1.085 h -6.754 L 276.15,19.32 276.002,5.565 274.572,3.74 C 272.058,0.437 266.881,-0.944 263.183,0.683 Z M 137.954,2.409 c -2.367,1.085 -3.402,2.17 -4.438,4.634 -0.64,1.578 -0.74,7.889 -0.74,51.473 0,46.345 0.05,49.796 0.888,51.373 3.057,6.114 11.98,6.656 15.728,0.987 l 1.38,-2.12 V 58.96 c 0,-27.413 -0.147,-50.437 -0.345,-51.177 -0.936,-3.205 -5.176,-6.31 -8.628,-6.31 -1.035,0 -2.76,0.443 -3.845,0.936 z m 198.691,30.814 c -11.586,2.712 -19.919,9.22 -23.764,18.637 -2.81,6.951 -3.106,9.91 -3.106,33.87 0,21.398 0,21.99 1.035,24.11 2.17,4.437 7.79,6.31 12.276,4.043 2.318,-1.183 3.747,-3.106 4.388,-5.966 0.296,-1.282 0.543,-10.846 0.543,-23.419 0,-20.066 0.049,-21.348 1.035,-24.207 1.233,-3.698 3.698,-6.656 6.459,-7.79 2.81,-1.134 8.825,-1.48 12.375,-0.74 3.352,0.69 5.817,2.564 7.346,5.62 2.07,4.191 4.88,6.213 8.53,6.213 2.958,0 5.078,-0.937 7,-3.106 3.5,-3.994 3.304,-7.938 -0.64,-13.756 -6.065,-8.973 -14.397,-13.558 -25.293,-14.002 -3.402,-0.098 -6.261,0.05 -8.184,0.493 z m -164.179,0.641 c -2.268,1.183 -3.254,2.219 -4.24,4.339 -0.838,1.824 -0.937,3.698 -0.937,24.306 0,18.538 0.148,22.975 0.789,26.13 1.43,6.953 3.895,11.587 9.022,17.06 3.6,3.796 7.691,6.41 12.572,8.036 3.5,1.134 4.783,1.282 10.65,1.331 5.916,0 7.1,-0.148 10.6,-1.33 10.994,-3.65 18.34,-11.587 21.545,-23.272 1.036,-3.747 1.085,-5.078 1.282,-26.377 0.197,-23.912 0.099,-24.898 -2.218,-27.61 -4.586,-5.472 -12.869,-4.092 -15.679,2.564 -0.64,1.578 -0.74,5.078 -0.74,23.764 0,20.658 -0.049,22.088 -1.035,25.145 -2.021,6.655 -6.804,9.564 -14.988,9.071 -6.163,-0.394 -9.318,-2.514 -11.783,-7.79 -0.986,-2.12 -1.036,-3.204 -1.282,-26.18 l -0.247,-23.96 -1.33,-1.973 c -2.416,-3.648 -8.284,-5.226 -11.981,-3.254 z m 242.176,-0.049 c -11.142,2.465 -20.51,10.65 -24.356,21.25 -2.268,6.31 -2.81,9.712 -2.81,18.882 -0.05,12.622 1.775,19.968 6.804,27.56 4.19,6.262 10.255,10.552 18.045,12.672 4.437,1.232 14.347,1.232 18.735,0.049 9.318,-2.564 16.763,-8.628 20.904,-17.108 2.761,-5.769 4.142,-11.537 4.536,-19.524 1.233,-22.088 -8.53,-38.85 -25.194,-43.288 -4.338,-1.183 -12.572,-1.43 -16.664,-0.493 z m 14.347,18.932 c 2.81,1.184 5.424,3.797 7.001,6.853 3.747,7.346 3.254,23.863 -0.887,30.618 -2.663,4.338 -7.692,6.902 -13.41,6.902 -8.284,0 -13.658,-4.536 -15.58,-13.213 -1.085,-4.832 -0.79,-17.404 0.493,-21.053 1.922,-5.472 4.831,-8.578 9.959,-10.649 3.205,-1.282 8.776,-1.035 12.424,0.542 z"
       id="path12"
       inkscape:connector-curvature="0" />
  </g>
</svg>
