<?xml version="1.0" encoding="UTF-8" standalone="no"?>
<svg
   xmlns:dc="http://purl.org/dc/elements/1.1/"
   xmlns:cc="http://creativecommons.org/ns#"
   xmlns:rdf="http://www.w3.org/1999/02/22-rdf-syntax-ns#"
   xmlns:svg="http://www.w3.org/2000/svg"
   xmlns="http://www.w3.org/2000/svg"
   xmlns:sodipodi="http://sodipodi.sourceforge.net/DTD/sodipodi-0.dtd"
   xmlns:inkscape="http://www.inkscape.org/namespaces/inkscape"
   width="187.41615"
   height="200"
   version="1.1"
   id="svg27"
   sodipodi:docname="game.svg"
   inkscape:version="0.92.4 5da689c313, 2019-01-14">
  <metadata
     id="metadata31">
    <rdf:RDF>
      <cc:Work
         rdf:about="">
        <dc:format>image/svg+xml</dc:format>
        <dc:type
           rdf:resource="http://purl.org/dc/dcmitype/StillImage" />
      </cc:Work>
    </rdf:RDF>
  </metadata>
  <sodipodi:namedview
     pagecolor="#ffffff"
     bordercolor="#666666"
     borderopacity="1"
     objecttolerance="10"
     gridtolerance="10"
     guidetolerance="10"
     inkscape:pageopacity="0"
     inkscape:pageshadow="2"
     inkscape:window-width="640"
     inkscape:window-height="480"
     id="namedview29"
     showgrid="false"
     inkscape:zoom="1.18"
     inkscape:cx="93.708076"
     inkscape:cy="100"
     inkscape:window-x="0"
     inkscape:window-y="0"
     inkscape:window-maximized="0"
     inkscape:current-layer="svg27">
    <inkscape:grid
       type="xygrid"
       id="grid838"
       originx="0"
       originy="3.3142e-06" />
  </sodipodi:namedview>
  <defs
     id="defs5">
    <clipPath
       id="a">
      <path
         d="M 0,178.208 H 166.995 V 0 H 0 Z"
         id="path2"
         inkscape:connector-curvature="0" />
    </clipPath>
  </defs>
  <g
     clip-path="url(#a)"
     transform="matrix(1.122286,0,0,-1.122286,0,200.00034)"
     id="g17">
    <path
       d="M 166.9951,177.7173 V 7.3693 c 0,-4.053 -3.316,-7.369 -7.369,-7.369 H 7.3691 c -4.053,0 -7.369,3.316 -7.369,7.369 v 170.348 z"
       id="path7"
       inkscape:connector-curvature="0"
       style="fill:#4f4c4d" />
    <path
       d="m 164.8496,24.3179 v 110.277 c 0,1.013 -0.828,1.842 -1.842,1.842 H 3.9866 c -1.013,0 -1.842,-0.829 -1.842,-1.842 V 24.3179 Z"
       id="path9"
       inkscape:connector-curvature="0"
       style="fill:#393536" />
    <path
       d="m 0,164.9268 v 6.035 c 0,1.04 0.851,1.891 1.891,1.891 h 163.213 c 1.041,0 1.89,-0.851 1.89,-1.891 v -6.035 13.282 H 0 Z"
       id="path11"
       inkscape:connector-curvature="0"
       style="fill:#444141" />
    <path
       d="M 2.145,7.532 H 164.85 V 24.318 H 2.145 Z"
       id="path13"
       inkscape:connector-curvature="0"
       style="fill:#706d6e" />
    <path
       d="M 9.685,8.469 H 6.725 V 24.38 h 2.96 z m 4.563,0 h -2.96 V 24.38 h 2.96 z m 4.563,0 h -2.96 V 24.38 h 2.96 z m 4.563,2.432 h -2.96 V 24.38 h 2.96 z m 4.563,0 h -2.96 V 24.38 h 2.96 z m 4.564,0 H 29.54 V 24.38 h 2.961 z m 4.563,0 h -2.96 V 24.38 h 2.96 z m 4.563,0 h -2.96 V 24.38 h 2.96 z m 4.563,0 H 43.23 V 24.38 h 2.96 z m 4.564,0 H 47.793 V 24.38 h 2.961 z m 4.562,0 h -2.96 V 24.38 h 2.96 z m 4.564,0 H 56.92 V 24.38 h 2.96 z m 4.563,0 H 61.482 V 24.38 h 2.961 z m 4.563,0 h -2.96 V 24.38 h 2.96 z m 4.563,0 h -2.96 V 24.38 h 2.96 z m 4.564,0 H 75.172 V 24.38 h 2.961 z m 4.562,0 h -2.96 V 24.38 h 2.96 z m 4.564,0 h -2.96 V 24.38 h 2.96 z m 4.563,0 h -2.96 V 24.38 h 2.96 z m 4.563,0 h -2.96 V 24.38 h 2.96 z m 4.563,0 h -2.96 V 24.38 h 2.96 z m 4.564,0 h -2.96 V 24.38 h 2.96 z m 4.563,0 h -2.961 V 24.38 h 2.961 z m 4.563,0 h -2.96 V 24.38 h 2.96 z m 4.563,0 h -2.96 V 24.38 h 2.96 z m 4.564,0 h -2.96 V 24.38 h 2.96 z m 4.563,0 h -2.961 V 24.38 h 2.961 z m 4.563,0 h -2.96 V 24.38 h 2.96 z m 4.563,0 h -2.96 V 24.38 h 2.96 z m 4.564,0 h -2.961 V 24.38 h 2.961 z m 4.562,0 h -2.96 V 24.38 h 2.96 z m 4.564,0 h -2.96 V 24.38 h 2.96 z m 4.563,0 h -2.961 V 24.38 h 2.961 z m 4.563,-2.432 h -2.96 V 24.38 h 2.96 z"
       id="path15"
       inkscape:connector-curvature="0"
       style="fill:#f57a14" />
  </g>
  <path
     d="m 185.01094,74.271707 c 0,3.543079 -2.89888,6.441969 -6.44196,6.441969 H 8.8460445 c -3.5430813,0 -6.4419659,-2.89889 -6.4419659,-6.441969 V 53.493146 c 0,-3.543081 2.8988846,-6.441966 6.4419659,-6.441966 H 178.56898 c 3.54308,0 6.44196,2.898885 6.44196,6.441966 z"
     id="path19"
     inkscape:connector-curvature="0" />
  <path
     d="m 141.74767,69.262435 -15.61597,5.66281 h 15.7155 l 5.97621,-3.299253 m 22.59262,-6.183965 h -9.68614 l -6.81045,-3.130796 -4.19887,1.70841 -22.55623,-11.099508 h 18.55158"
     id="path21"
     inkscape:connector-curvature="0"
     style="fill:#ff0000" />
  <path
     d="m 161.71486,58.656704 15.61791,-5.660233 h -15.71486 l -5.97589,3.296676 m -22.59326,6.183965 h 9.68582 l 6.81109,3.131117 4.19855,-1.708731 22.55622,11.099507 H 157.74919 M 10.081936,52.768103 H 22.378038 V 67.793989 H 10.081936 Z m 0,16.865389 h 31.508943 v 4.599886 H 10.081936 Z M 30.062659,52.768103 h 14.603937 l 9.990523,8.431567 -7.221444,5.298195 M 48.50794,74.2337 H 60.036161 V 67.332744 L 82.324719,52.768103 H 71.564381 L 49.277755,67.332744 H 48.507941 M 83.862416,55.066596 96.158518,62.732858 V 74.2337 H 83.862416 m 33.046964,0 h 6.91674 V 52.765848 h -5.99457 V 67.862917 L 95.390636,52.768103 h -9.992455"
     id="path23"
     inkscape:connector-curvature="0"
     style="fill:#ffcc00" />
  <path
     d="m 107.33585,165.8523 z m 0,-1.82894 z m 0,-1.80025 z m 0,0.90013 z m 0,3.62918 z m 0,-1.82896 z m 0,-3.60045 z"
     id="path25"
     inkscape:connector-curvature="0"
     style="fill:#d40000" />
</svg>
