<?xml version="1.0" encoding="UTF-8" standalone="no"?>
<svg
   xmlns:dc="http://purl.org/dc/elements/1.1/"
   xmlns:cc="http://creativecommons.org/ns#"
   xmlns:rdf="http://www.w3.org/1999/02/22-rdf-syntax-ns#"
   xmlns:svg="http://www.w3.org/2000/svg"
   xmlns="http://www.w3.org/2000/svg"
   xmlns:xlink="http://www.w3.org/1999/xlink"
   xmlns:sodipodi="http://sodipodi.sourceforge.net/DTD/sodipodi-0.dtd"
   xmlns:inkscape="http://www.inkscape.org/namespaces/inkscape"
   viewBox="0 0 472.50093 446.72237"
   version="1.1"
   id="svg258"
   sodipodi:docname="controls.svg"
   width="472.50095"
   height="446.72238"
   inkscape:version="0.92.4 5da689c313, 2019-01-14">
  <metadata
     id="metadata264">
    <rdf:RDF>
      <cc:Work
         rdf:about="">
        <dc:format>image/svg+xml</dc:format>
        <dc:type
           rdf:resource="http://purl.org/dc/dcmitype/StillImage" />
      </cc:Work>
    </rdf:RDF>
  </metadata>
  <defs
     id="defs262" />
  <sodipodi:namedview
     pagecolor="#ffffff"
     bordercolor="#666666"
     borderopacity="1"
     objecttolerance="10"
     gridtolerance="10"
     guidetolerance="10"
     inkscape:pageopacity="0"
     inkscape:pageshadow="2"
     inkscape:window-width="471"
     inkscape:window-height="442"
     id="namedview260"
     showgrid="false"
     inkscape:zoom="0.57354253"
     inkscape:cx="236.24975"
     inkscape:cy="148.49687"
     inkscape:window-x="0"
     inkscape:window-y="0"
     inkscape:window-maximized="0"
     inkscape:current-layer="svg258" />
  <path
     d="m 247.05075,390.02851 h 16.544 v 6.47 h -16.544 z"
     id="path2"
     inkscape:connector-curvature="0"
     style="fill:#c9c9c9" />
  <path
     d="m 247.75175,396.70951 c 0.147,0 0.266,-0.227 0.266,-0.506 v -6.175 h 15.024 v 6.17 c 0,0.282 0.12,0.511 0.269,0.511 h 61.296 c 0,0 19.301,0.981 36.573,-14.305 17.272,-15.286 17.272,-39.798 17.272,-39.798 V 21.571515 h -234.172 V 386.54851 c 0,5.611 4.548,10.161 10.16,10.161 z"
     id="path4"
     inkscape:connector-curvature="0"
     style="fill:#d6d6d6" />
  <path
     d="m 193.15775,3.6515149 a 5.473,5.473 0 0 0 -10.322,0 z"
     id="path6"
     inkscape:connector-curvature="0"
     style="fill:#bdbec0" />
  <path
     d="m 361.43475,1.9805149 h -200.138 l -16.001,16.1480001 v 4.968 h 232.14 v -4.968 z"
     id="path8"
     inkscape:connector-curvature="0"
     style="fill:#aeadab" />
  <path
     d="m 161.29675,1.8245149 h -6.857 c -5.612,0 -10.16,4.548 -10.16,10.1600001 v 7.366 h 17.017 z m 206.995,0 h -6.857 V 19.349515 h 17.016 v -7.366 c 0,-5.6110001 -4.548,-10.1590001 -10.159,-10.1590001 z"
     id="path10"
     inkscape:connector-curvature="0"
     style="fill:#d9d9d9" />
  <linearGradient
     id="a"
     gradientUnits="userSpaceOnUse"
     x1="-71.919998"
     y1="54.028999"
     x2="-69.066002"
     y2="58.971001"
     gradientTransform="translate(404.79875,308.74951)">
    <stop
       offset="0"
       stop-color="#c9c9c9"
       id="stop12" />
    <stop
       offset="1"
       stop-color="#a8a8a8"
       id="stop14" />
  </linearGradient>
  <path
     d="m 363.47675,345.37651 -61.121,34.933 z"
     id="path17"
     inkscape:connector-curvature="0"
     style="fill:url(#a)" />
  <path
     d="m 361.17975,382.40451 c 17.272,-15.286 17.272,-39.798 17.272,-39.798 v -5.679 l -104.527,59.782 h 50.681 c 10e-4,0 19.302,0.981 36.574,-14.305 z"
     id="path19"
     inkscape:connector-curvature="0"
     style="fill:#c6c6c6" />
  <path
     d="m 240.12875,338.69751 z m -5.338,2.712 z m -5.465,2.782 v -0.002 z m -5.339,2.712 z"
     id="path21"
     inkscape:connector-curvature="0"
     style="fill:#39509c" />
  <path
     d="m 191.48575,233.06451 c 20.573,0 37.253,16.679 37.253,37.251 0,20.574 -16.68,37.251 -37.253,37.251 -20.573,0 -37.251,-16.677 -37.251,-37.251 0,-20.572 16.678,-37.251 37.251,-37.251 z"
     id="path23"
     inkscape:connector-curvature="0"
     style="fill:#c9c9c9" />
  <g
     id="g27"
     style="fill:#d9d9d9"
     transform="translate(-0.00125499,149.72951)">
    <path
       d="m 156.92,120.798 3.608,2.293 v -4.502 z m 69.135,0 -3.608,2.293 v -4.502 z m -34.609,35.118 2.292,-3.609 h -4.5 z m 0,-70.66 2.292,3.609 h -4.5 z"
       id="path25"
       inkscape:connector-curvature="0" />
  </g>
  <path
     d="m 218.07975,259.47851 h -15.504 v -16.518 a 2.798,2.798 0 0 0 -2.798,-2.799 h -15.567 a 2.799,2.799 0 0 0 -2.799,2.799 v 16.518 h -16.519 a 2.799,2.799 0 0 0 -2.799,2.799 v 15.568 a 2.8,2.8 0 0 0 2.799,2.798 h 16.519 v 17.028 a 2.798,2.798 0 0 0 2.799,2.798 h 15.567 a 2.798,2.798 0 0 0 2.798,-2.798 v -17.028 h 15.504 a 2.8,2.8 0 0 0 2.799,-2.798 v -15.568 a 2.8,2.8 0 0 0 -2.799,-2.799 z"
     id="path29"
     inkscape:connector-curvature="0"
     style="fill:#3d3d3d" />
  <linearGradient
     id="b"
     gradientUnits="userSpaceOnUse"
     x1="-190.23599"
     y1="-298.22699"
     x2="-101.409"
     y2="-107.737"
     gradientTransform="translate(404.79875,308.74951)">
    <stop
       offset="0"
       stop-color="#7c7f81"
       id="stop31" />
    <stop
       offset=".015"
       stop-color="#7c7e81"
       id="stop33" />
    <stop
       offset=".625"
       stop-color="#676b7c"
       id="stop35" />
    <stop
       offset="1"
       stop-color="#60657a"
       id="stop37" />
  </linearGradient>
  <path
     d="m 350.68275,177.09651 c 8.5,-8.5 9.313,-19.401 9.313,-23.536 V 39.775515 a 7.111,7.111 0 0 0 -7.112,-7.112 h -184.222 a 7.112,7.112 0 0 0 -7.111,7.112 V 179.46551 a 7.113,7.113 0 0 0 7.111,7.112 h 158.485 c 2.096,0 15.037,-0.981 23.536,-9.481 z"
     id="path40"
     inkscape:connector-curvature="0"
     style="fill:url(#b)" />
  <path
     d="m 196.59975,50.272515 h 127.499 V 168.62951 h -127.499 z"
     id="path42"
     inkscape:connector-curvature="0"
     style="fill:#c2aa33" />
  <linearGradient
     id="c"
     gradientUnits="userSpaceOnUse"
     x1="-230.724"
     y1="-218.88901"
     x2="-228.004"
     y2="-213.056"
     gradientTransform="translate(404.79875,308.74951)">
    <stop
       offset="0"
       stop-color="#ef4237"
       id="stop44" />
    <stop
       offset="1"
       stop-color="#cd3634"
       id="stop46" />
  </linearGradient>
  <path
     d="m 175.43475,89.559515 a 3.217,3.217 0 1 1 0,6.433 3.217,3.217 0 0 1 0,-6.433 z"
     id="path49"
     inkscape:connector-curvature="0"
     style="fill:url(#c)" />
  <path
     d="m 352.88375,33.932515 h -184.222 a 5.849,5.849 0 0 0 -5.842,5.842 V 179.46551 a 5.848,5.848 0 0 0 5.842,5.842 h 158.485 c 0.137,0 13.84,-0.312 22.638,-9.111 8.07,-8.07 8.94,-18.519 8.94,-22.637 V 39.774515 a 5.847,5.847 0 0 0 -5.841,-5.842 z"
     id="path51"
     inkscape:connector-curvature="0"
     style="fill:none" />
  <path
     d="m 262.02475,387.22751 c -0.016,-0.065 -0.033,-0.13 -0.044,-0.213 l -0.275,0.055 c 0.087,0.08 0.192,0.135 0.319,0.158 z"
     id="path53"
     inkscape:connector-curvature="0"
     style="fill:#c7c7c7" />
  <g
     id="g57"
     style="fill:#aaabaf"
     transform="translate(-0.00125499,149.72951)">
    <path
       d="m 308.863,240.377 a 2.033,2.033 0 0 1 -1.789,-1.067 l -16.932,-31.326 a 2.033,2.033 0 0 1 3.575,-1.934 l 16.932,31.326 a 2.03,2.03 0 0 1 -0.821,2.754 2.029,2.029 0 0 1 -0.965,0.247 z m 11.515,-6.606 a 2.029,2.029 0 0 1 -1.789,-1.065 L 301.657,201.38 a 2.0323005,2.0323005 0 1 1 3.575,-1.934 l 16.932,31.326 a 2.032,2.032 0 0 1 -1.786,2.999 z m 11.513,-6.603 a 2.031,2.031 0 0 1 -1.788,-1.067 l -16.932,-31.324 a 2.032,2.032 0 0 1 3.574,-1.934 l 16.932,31.323 a 2.03,2.03 0 0 1 -0.821,2.754 c -0.307,0.17 -0.638,0.248 -0.965,0.248 z m 11.515,-6.606 a 2.025,2.025 0 0 1 -1.788,-1.065 l -16.932,-31.323 a 2.033,2.033 0 0 1 3.575,-1.934 l 16.932,31.324 a 2.033,2.033 0 0 1 -1.787,2.998 z m 11.514,-6.603 a 2.03,2.03 0 0 1 -1.789,-1.064 l -16.932,-31.324 a 2.034,2.034 0 0 1 0.82,-2.756 2.034,2.034 0 0 1 2.754,0.82 l 16.933,31.326 a 2.032,2.032 0 0 1 -1.786,2.998 z m 11.514,-6.603 a 2.027,2.027 0 0 1 -1.788,-1.064 l -16.933,-31.326 a 2.033,2.033 0 0 1 3.575,-1.933 l 16.932,31.325 a 2.032,2.032 0 0 1 -1.786,2.998 z"
       id="path55"
       inkscape:connector-curvature="0" />
  </g>
  <g
     id="g61"
     style="fill:#34308e"
     transform="translate(-0.00125499,149.72951)">
    <path
       d="m 226.302,54.291 -0.605,4.245 c -1.28,0.688 -2.552,1.033 -3.816,1.033 -1.517,0 -2.724,-0.497 -3.622,-1.493 -0.897,-0.996 -1.345,-2.229 -1.345,-3.701 0,-1.873 0.703,-3.495 2.111,-4.868 1.407,-1.373 3.404,-2.06 5.993,-2.06 0.508,0 1.19,0.052 2.047,0.154 l -0.195,1.421 c -0.93,-0.102 -1.63,-0.154 -2.098,-0.154 -1.934,0 -3.449,0.547 -4.542,1.637 -1.094,1.092 -1.641,2.365 -1.641,3.819 0,1.128 0.319,2.047 0.956,2.758 0.637,0.711 1.458,1.066 2.462,1.066 0.75,0 1.506,-0.189 2.267,-0.566 l 0.279,-2.048 h -1.683 l 0.178,-1.243 z m 6.575,-6.758 2.291,11.884 h -1.456 l -0.698,-3.705 h -3.716 l -1.559,3.705 h -1.58 l 5.231,-11.884 z m -3.051,6.927 h 2.953 l -0.914,-4.848 z m 18.843,-6.859 v 11.816 h -1.565 l -0.008,-9 -4.767,9 -2.085,-9.042 -2.907,9.042 h -1.559 l 3.897,-11.816 h 1.353 l 1.845,8.005 4.24,-8.005 z m 9.837,0 -0.195,1.403 h -4.73 l -0.514,3.706 h 4.17 l -0.186,1.403 h -4.203 l -0.56,3.9 h 6.217 l -0.211,1.404 h -7.757 l 1.717,-11.816 z m 7.334,0 h 1.734 c 1.212,0 2.14,0.267 2.783,0.802 0.643,0.536 0.964,1.269 0.964,2.198 0,1.025 -0.544,1.804 -1.633,2.333 1.63,0.563 2.445,1.621 2.445,3.174 0,0.981 -0.395,1.779 -1.184,2.391 -0.789,0.613 -1.816,0.919 -3.079,0.919 h -3.671 z m 0.71,6.047 -0.622,4.449 h 1.787 c 0.909,0 1.606,-0.177 2.092,-0.534 0.485,-0.354 0.728,-0.861 0.728,-1.523 0,-0.67 -0.279,-1.238 -0.837,-1.7 -0.558,-0.462 -1.224,-0.694 -1.997,-0.694 h -1.151 z m 0.656,-4.694 -0.472,3.374 h 0.848 c 0.651,0 1.17,-0.163 1.558,-0.487 0.388,-0.324 0.582,-0.751 0.582,-1.282 0,-1.088 -0.675,-1.632 -2.025,-1.632 a 5.126,5.126 0 0 0 -0.491,0.027 z m 11.762,-1.507 c 1.246,0 2.254,0.455 3.024,1.366 0.769,0.911 1.154,2.108 1.154,3.592 0,2.052 -0.561,3.76 -1.683,5.121 -1.122,1.363 -2.462,2.043 -4.018,2.043 -1.229,0 -2.239,-0.465 -3.028,-1.396 -0.789,-0.929 -1.184,-2.125 -1.184,-3.587 a 8.16,8.16 0 0 1 1.611,-4.935 c 1.075,-1.469 2.449,-2.204 4.124,-2.204 z m -1.489,10.701 c 1.094,0 2.046,-0.588 2.855,-1.763 0.809,-1.176 1.214,-2.596 1.214,-4.259 0,-1.015 -0.234,-1.811 -0.702,-2.389 -0.468,-0.578 -1.1,-0.868 -1.895,-0.868 -1.218,0 -2.209,0.608 -2.974,1.823 -0.764,1.215 -1.146,2.587 -1.146,4.116 0,1.031 0.239,1.847 0.719,2.444 0.48,0.597 1.123,0.896 1.929,0.896 z m 14.329,-10.547 -4.148,5.937 -0.828,5.88 h -1.554 l 0.829,-5.887 -2.774,-5.929 h 1.653 l 2.005,4.324 3.021,-4.324 h 1.796 z m 2.252,8.177 v 0.666 h -1.317 v 2.97 h -0.906 v -2.97 h -1.317 v -0.666 z m 2.507,1.349 1.169,-1.348 h 0.787 v 3.636 h -0.906 v -2.27 l -0.983,1.14 H 296.5 l -0.983,-1.14 v 2.27 h -0.906 v -3.636 h 0.786 z"
       id="path59"
       inkscape:connector-curvature="0" />
  </g>
  <g
     id="g65"
     style="fill:#34308e"
     transform="translate(-0.00125499,149.72951)">
    <path
       d="m 160.706,51.413 h 2.375 l 3.284,5.47 -0.001,-5.47 h 2.354 v 7.844 h -2.352 l -3.301,-5.47 v 5.47 h -2.36 z m 20.818,0.807 h 2.294 v 1.056 h 1.24 v 0.776 h -1.24 l 0.002,5.206 h -2.296 l 0.001,-5.206 h -1.245 v -0.773 l 1.245,-0.002 z m -11.493,1.821 h 2.291 v 5.218 h -2.291 z m -0.006,-2.631 h 2.297 v 1.605 h -2.297 z m 40.156,2.276 c -1.849,0 -3.348,1.309 -3.348,2.927 0,1.617 1.499,2.928 3.348,2.928 1.85,0 3.347,-1.312 3.347,-2.928 0.001,-1.618 -1.496,-2.927 -3.347,-2.927 m 0.921,2.92 -0.002,1.105 c 0,0.831 -0.476,1.173 -0.937,1.173 -0.46,0 -0.939,-0.342 -0.939,-1.173 l 0.001,-1.125 0.001,-1.086 c 0,-0.829 0.482,-1.169 0.937,-1.169 0.457,0 0.937,0.34 0.937,1.169 0,0.316 -0.001,0.901 0.002,1.109 z m -7.261,0.017 V 55.69 c 0,-0.807 -0.541,-1.011 -0.897,-1.011 -0.365,0 -0.898,0.204 -0.898,1.011 v 1.856 c 0,0.808 0.533,1.016 0.898,1.016 0.356,0 0.897,-0.208 0.897,-1.016 z m -0.015,-5.21 h 2.26 v 7.843 h -2.265 l -0.001,-0.3 c -0.876,0.565 -1.866,0.565 -2.638,0.197 a 2.785,2.785 0 0 1 -1.566,-2.588 c 0,-1.376 1.26,-2.88 2.912,-2.73 0.544,0.049 0.93,0.253 1.297,0.467 z m -26.14,2.387 c 0.858,-0.025 2.594,0.551 2.582,2.616 -0.002,0.369 -0.001,2.839 -0.001,2.839 h -2.275 V 55.83 c 0,-0.455 -0.422,-0.96 -1.048,-0.96 -0.624,0 -1.087,0.504 -1.087,0.96 l 0.002,3.425 h -2.274 l -0.002,-5.215 2.276,-0.002 c 0,0 -0.002,0.419 0,0.549 a 2.723,2.723 0 0 1 1.827,-0.787 m 18.618,0 c 0.856,-0.025 2.595,0.551 2.583,2.616 -0.002,0.369 0,2.839 0,2.839 H 196.61 V 55.83 c 0,-0.455 -0.422,-0.96 -1.048,-0.96 -0.624,0 -1.086,0.504 -1.086,0.96 l 0.002,3.425 h -2.274 V 54.04 l 2.274,-0.002 c 0,0 -0.002,0.419 0,0.549 a 2.719,2.719 0 0 1 1.826,-0.787 m -7.208,3.631 0.001,0.317 c 0,0.954 -0.609,1.166 -0.947,1.166 -0.337,0 -0.959,-0.213 -0.959,-1.166 l 0.002,-1.076 c 0,0 4.316,0.002 4.316,-0.002 0,-1.617 -1.517,-2.956 -3.38,-2.956 -1.863,0 -3.373,1.309 -3.373,2.928 0,1.619 1.51,2.927 3.373,2.927 1.546,0 2.853,-0.908 3.25,-2.14 z m -1.903,-1.573 c -0.005,-0.456 0.005,-0.761 0.15,-1.022 a 0.934,0.934 0 0 1 0.806,-0.477 0.926,0.926 0 0 1 0.804,0.477 c 0.146,0.261 0.154,0.566 0.151,1.022 z"
       id="path63"
       inkscape:connector-curvature="0" />
  </g>
  <path
     d="m 170.57475,43.294515 h 51.427"
     stroke-miterlimit="10"
     id="path67"
     inkscape:connector-curvature="0"
     style="fill:none;stroke:#04004d;stroke-width:1.33299994;stroke-miterlimit:10" />
  <path
     d="m 170.57475,38.835515 h 51.427"
     stroke-miterlimit="10"
     id="path69"
     inkscape:connector-curvature="0"
     style="fill:none;stroke:#760d50;stroke-width:1.33299994;stroke-miterlimit:10" />
  <path
     d="m 328.12475,43.294515 h 21.7"
     stroke-miterlimit="10"
     id="path71"
     inkscape:connector-curvature="0"
     style="fill:none;stroke:#04004d;stroke-width:1.33299994;stroke-miterlimit:10" />
  <path
     d="m 328.12475,38.835515 h 21.7"
     stroke-miterlimit="10"
     id="path73"
     inkscape:connector-curvature="0"
     style="fill:none;stroke:#760d50;stroke-width:1.33299994;stroke-miterlimit:10" />
  <g
     id="g77"
     style="fill:#eeeeec"
     transform="translate(-0.00125499,149.72951)">
    <path
       d="m 227.448,-106.451 v -4.16 h 1.39 c 0.313,0 0.553,0.02 0.717,0.06 0.232,0.055 0.429,0.154 0.592,0.298 0.213,0.185 0.372,0.422 0.478,0.71 0.105,0.289 0.158,0.619 0.158,0.99 0,0.315 -0.035,0.596 -0.107,0.84 -0.072,0.243 -0.163,0.445 -0.275,0.606 -0.112,0.161 -0.234,0.285 -0.367,0.378 a 1.467,1.467 0 0 1 -0.482,0.208 2.645,2.645 0 0 1 -0.647,0.07 z m 0.534,-0.49 h 0.862 c 0.265,0 0.474,-0.026 0.626,-0.077 a 0.883,0.883 0 0 0 0.361,-0.215 1.31,1.31 0 0 0 0.296,-0.526 c 0.07,-0.22 0.106,-0.488 0.106,-0.801 0,-0.435 -0.07,-0.77 -0.208,-1.004 -0.139,-0.233 -0.307,-0.39 -0.505,-0.47 -0.143,-0.056 -0.373,-0.084 -0.69,-0.084 h -0.848 v 3.176 z m 3.375,-1.536 c 0,-0.69 0.18,-1.231 0.54,-1.622 0.36,-0.391 0.823,-0.586 1.392,-0.586 0.372,0 0.708,0.091 1.008,0.275 0.299,0.184 0.526,0.44 0.683,0.768 0.156,0.328 0.235,0.7 0.235,1.116 0,0.422 -0.082,0.8 -0.247,1.132 a 1.727,1.727 0 0 1 -0.701,0.757 c -0.302,0.172 -0.63,0.257 -0.98,0.257 -0.38,0 -0.719,-0.094 -1.018,-0.283 -0.299,-0.189 -0.526,-0.448 -0.68,-0.775 a 2.402,2.402 0 0 1 -0.232,-1.04 z m 0.55,0.009 c 0,0.502 0.132,0.896 0.393,1.184 0.26,0.289 0.588,0.433 0.983,0.433 0.402,0 0.733,-0.145 0.992,-0.437 0.26,-0.291 0.389,-0.705 0.389,-1.24 0,-0.338 -0.055,-0.634 -0.167,-0.887 a 1.31,1.31 0 0 0 -0.487,-0.587 1.29,1.29 0 0 0 -0.72,-0.208 c -0.378,0 -0.703,0.134 -0.975,0.401 -0.27,0.267 -0.407,0.714 -0.407,1.34 z m 5.019,2.017 v -3.67 h -1.33 v -0.49 h 3.197 v 0.49 h -1.334 v 3.67 z m 3.964,0 v -4.16 h 0.804 l 0.955,2.945 c 0.088,0.274 0.153,0.48 0.193,0.616 0.047,-0.152 0.118,-0.374 0.215,-0.668 l 0.966,-2.894 h 0.718 v 4.16 h -0.514 v -3.482 l -1.172,3.482 h -0.481 l -1.167,-3.541 v 3.54 h -0.516 z m 4.273,0 1.55,-4.16 h 0.574 l 1.65,4.16 h -0.607 l -0.47,-1.26 h -1.687 l -0.444,1.26 z m 1.164,-1.708 h 1.368 l -0.42,-1.152 a 12.37,12.37 0 0 1 -0.287,-0.862 5.401,5.401 0 0 1 -0.218,0.794 z m 4.069,1.708 v -3.67 h -1.33 v -0.49 h 3.198 v 0.49 h -1.335 v 3.67 z m 2.426,0 v -4.16 h 1.788 c 0.36,0 0.633,0.038 0.82,0.112 0.187,0.074 0.337,0.206 0.448,0.396 0.113,0.189 0.168,0.398 0.168,0.626 0,0.296 -0.093,0.545 -0.278,0.747 -0.185,0.202 -0.472,0.331 -0.859,0.386 0.141,0.07 0.249,0.139 0.322,0.207 0.156,0.147 0.304,0.332 0.443,0.554 l 0.702,1.132 h -0.672 l -0.534,-0.865 a 7.805,7.805 0 0 0 -0.385,-0.573 1.227,1.227 0 0 0 -0.27,-0.278 0.802,0.802 0 0 0 -0.244,-0.111 c -0.06,-0.013 -0.16,-0.02 -0.297,-0.02 h -0.62 v 1.847 z m 0.534,-2.324 h 1.147 c 0.244,0 0.434,-0.026 0.572,-0.078 a 0.61,0.61 0 0 0 0.314,-0.25 0.688,0.688 0 0 0 0.107,-0.373 0.628,0.628 0 0 0 -0.208,-0.485 c -0.138,-0.127 -0.357,-0.19 -0.655,-0.19 h -1.276 v 1.376 z m 3.62,2.324 v -4.16 h 0.534 v 4.16 z m 1.063,0 1.56,-2.168 -1.376,-1.992 h 0.635 l 0.731,1.067 c 0.153,0.222 0.26,0.392 0.325,0.511 0.09,-0.151 0.196,-0.31 0.32,-0.474 l 0.81,-1.104 h 0.582 l -1.417,1.961 1.527,2.199 h -0.66 l -1.016,-1.484 a 7.49,7.49 0 0 1 -0.176,-0.278 c -0.09,0.151 -0.154,0.255 -0.193,0.312 l -1.012,1.45 z m 6.439,0 -1.07,-4.16 h 0.547 l 0.614,2.727 c 0.066,0.285 0.123,0.57 0.17,0.851 0.103,-0.445 0.164,-0.7 0.181,-0.769 l 0.768,-2.809 h 0.644 l 0.578,2.105 c 0.145,0.522 0.25,1.013 0.315,1.473 0.05,-0.263 0.118,-0.565 0.2,-0.905 l 0.634,-2.673 h 0.536 l -1.106,4.16 h -0.514 l -0.85,-3.17 a 15.757,15.757 0 0 1 -0.126,-0.488 c -0.043,0.19 -0.082,0.353 -0.119,0.488 l -0.855,3.17 z m 4.702,0 v -4.16 h 0.534 v 4.16 z m 2.498,0 v -3.67 h -1.328 v -0.49 h 3.197 v 0.49 h -1.334 v 3.67 z m 2.435,0 v -4.16 h 0.534 v 1.708 h 2.096 v -1.708 h 0.534 v 4.16 h -0.534 v -1.961 h -2.096 v 1.96 h -0.534 z m 5.437,-1.337 0.503,-0.045 c 0.023,0.208 0.08,0.378 0.166,0.512 0.087,0.133 0.223,0.24 0.406,0.324 0.183,0.082 0.39,0.123 0.62,0.123 0.203,0 0.382,-0.031 0.539,-0.093 a 0.746,0.746 0 0 0 0.347,-0.257 0.61,0.61 0 0 0 0.114,-0.356 0.55,0.55 0 0 0 -0.11,-0.343 c -0.073,-0.097 -0.194,-0.178 -0.363,-0.245 -0.108,-0.044 -0.348,-0.111 -0.718,-0.204 -0.37,-0.093 -0.63,-0.178 -0.779,-0.26 a 1.102,1.102 0 0 1 -0.43,-0.387 0.972,0.972 0 0 1 -0.142,-0.517 1.075,1.075 0 0 1 0.68,-1.004 c 0.221,-0.095 0.468,-0.143 0.74,-0.143 0.3,0 0.562,0.05 0.79,0.15 0.23,0.099 0.404,0.245 0.527,0.438 0.124,0.193 0.19,0.411 0.198,0.655 l -0.512,0.04 c -0.027,-0.263 -0.12,-0.461 -0.28,-0.597 -0.158,-0.134 -0.392,-0.2 -0.702,-0.2 -0.323,0 -0.559,0.06 -0.706,0.182 a 0.554,0.554 0 0 0 -0.222,0.441 c 0,0.15 0.052,0.272 0.157,0.369 0.102,0.096 0.37,0.195 0.804,0.296 0.434,0.102 0.732,0.19 0.893,0.265 0.235,0.112 0.408,0.253 0.52,0.425 0.112,0.171 0.168,0.368 0.168,0.592 0,0.221 -0.062,0.43 -0.185,0.625 -0.123,0.196 -0.299,0.349 -0.53,0.457 a 1.8,1.8 0 0 1 -0.776,0.164 c -0.366,0 -0.67,-0.055 -0.918,-0.165 a 1.297,1.297 0 0 1 -0.58,-0.495 1.444,1.444 0 0 1 -0.22,-0.747 z m 4.971,1.337 v -3.67 h -1.328 v -0.49 h 3.197 v 0.49 h -1.334 v 3.67 z m 2.429,0 v -4.16 h 2.917 v 0.49 h -2.383 v 1.275 h 2.231 v 0.489 h -2.231 v 1.415 h 2.476 v 0.49 h -3.01 z m 3.76,0 v -4.16 h 1.789 c 0.36,0 0.633,0.038 0.82,0.112 a 0.9,0.9 0 0 1 0.448,0.396 c 0.112,0.189 0.167,0.398 0.167,0.626 0,0.296 -0.092,0.545 -0.277,0.747 -0.185,0.202 -0.472,0.331 -0.859,0.386 0.14,0.07 0.248,0.139 0.322,0.207 0.156,0.147 0.303,0.332 0.443,0.554 l 0.701,1.132 h -0.671 l -0.534,-0.865 c -0.156,-0.25 -0.285,-0.441 -0.385,-0.573 -0.1,-0.132 -0.191,-0.226 -0.27,-0.278 -0.079,-0.052 -0.161,-0.09 -0.244,-0.111 -0.06,-0.013 -0.16,-0.02 -0.297,-0.02 h -0.62 v 1.847 h -0.532 z m 0.534,-2.324 h 1.147 c 0.245,0 0.435,-0.026 0.572,-0.078 a 0.61,0.61 0 0 0 0.315,-0.25 0.688,0.688 0 0 0 0.107,-0.373 0.628,0.628 0 0 0 -0.208,-0.485 c -0.139,-0.127 -0.357,-0.19 -0.656,-0.19 h -1.276 v 1.376 z m 3.541,2.324 v -4.16 h 2.917 v 0.49 h -2.383 v 1.275 h 2.231 v 0.489 h -2.231 v 1.415 h 2.476 v 0.49 h -3.01 z m 3.59,-2.026 c 0,-0.69 0.18,-1.231 0.54,-1.622 0.36,-0.391 0.823,-0.586 1.392,-0.586 0.372,0 0.708,0.091 1.007,0.275 0.3,0.184 0.527,0.44 0.684,0.768 0.156,0.328 0.235,0.7 0.235,1.116 0,0.422 -0.083,0.8 -0.247,1.132 -0.166,0.334 -0.399,0.585 -0.701,0.757 -0.302,0.172 -0.63,0.257 -0.98,0.257 -0.38,0 -0.719,-0.094 -1.018,-0.283 -0.299,-0.189 -0.526,-0.448 -0.68,-0.775 a 2.402,2.402 0 0 1 -0.232,-1.04 z m 0.55,0.009 c 0,0.502 0.132,0.896 0.392,1.184 0.261,0.289 0.59,0.433 0.984,0.433 0.402,0 0.733,-0.145 0.992,-0.437 0.26,-0.291 0.389,-0.705 0.389,-1.24 0,-0.338 -0.055,-0.634 -0.167,-0.887 a 1.31,1.31 0 0 0 -0.487,-0.587 1.29,1.29 0 0 0 -0.72,-0.208 c -0.378,0 -0.703,0.134 -0.975,0.401 -0.272,0.267 -0.407,0.714 -0.407,1.34 z m 5.374,0.68 0.503,-0.045 c 0.024,0.208 0.08,0.378 0.166,0.512 0.087,0.133 0.223,0.24 0.406,0.324 0.183,0.082 0.39,0.123 0.62,0.123 0.203,0 0.383,-0.031 0.54,-0.093 a 0.746,0.746 0 0 0 0.347,-0.257 0.61,0.61 0 0 0 0.114,-0.356 0.55,0.55 0 0 0 -0.11,-0.343 c -0.073,-0.097 -0.194,-0.178 -0.364,-0.245 a 7.065,7.065 0 0 0 -0.718,-0.204 c -0.37,-0.091 -0.63,-0.178 -0.778,-0.26 a 1.102,1.102 0 0 1 -0.43,-0.387 0.972,0.972 0 0 1 -0.143,-0.517 1.075,1.075 0 0 1 0.68,-1.004 c 0.221,-0.095 0.469,-0.143 0.74,-0.143 0.3,0 0.563,0.05 0.791,0.15 0.228,0.099 0.404,0.245 0.527,0.438 0.123,0.193 0.189,0.411 0.198,0.655 l -0.512,0.04 c -0.028,-0.263 -0.12,-0.461 -0.28,-0.597 -0.158,-0.134 -0.393,-0.2 -0.703,-0.2 -0.323,0 -0.558,0.06 -0.706,0.182 a 0.554,0.554 0 0 0 -0.222,0.441 c 0,0.15 0.053,0.272 0.157,0.369 0.102,0.096 0.371,0.195 0.805,0.296 0.433,0.102 0.731,0.19 0.893,0.265 0.234,0.112 0.407,0.253 0.52,0.425 0.112,0.171 0.167,0.368 0.167,0.592 0,0.221 -0.061,0.43 -0.184,0.625 -0.123,0.196 -0.3,0.349 -0.53,0.457 a 1.8,1.8 0 0 1 -0.777,0.164 c -0.365,0 -0.67,-0.055 -0.918,-0.165 a 1.297,1.297 0 0 1 -0.58,-0.495 1.444,1.444 0 0 1 -0.22,-0.747 z m 3.783,-0.689 c 0,-0.69 0.18,-1.231 0.54,-1.622 0.359,-0.391 0.823,-0.586 1.392,-0.586 0.372,0 0.708,0.091 1.007,0.275 0.3,0.184 0.527,0.44 0.683,0.768 0.157,0.328 0.236,0.7 0.236,1.116 0,0.422 -0.083,0.8 -0.247,1.132 -0.166,0.334 -0.4,0.585 -0.701,0.757 -0.301,0.172 -0.63,0.257 -0.98,0.257 -0.38,0 -0.719,-0.094 -1.018,-0.283 -0.299,-0.189 -0.526,-0.448 -0.68,-0.775 a 2.388,2.388 0 0 1 -0.232,-1.04 z m 0.55,0.009 c 0,0.502 0.13,0.896 0.391,1.184 0.261,0.289 0.59,0.433 0.984,0.433 0.402,0 0.733,-0.145 0.991,-0.437 0.26,-0.291 0.39,-0.705 0.39,-1.24 0,-0.338 -0.056,-0.634 -0.167,-0.887 a 1.31,1.31 0 0 0 -0.487,-0.587 1.29,1.29 0 0 0 -0.72,-0.208 c -0.378,0 -0.703,0.134 -0.975,0.401 -0.27,0.267 -0.408,0.714 -0.408,1.34 z m 6.638,-2.142 h 0.534 v 2.403 c 0,0.418 -0.047,0.75 -0.138,0.996 a 1.207,1.207 0 0 1 -0.496,0.6 c -0.24,0.155 -0.554,0.232 -0.943,0.232 -0.378,0 -0.687,-0.067 -0.927,-0.201 -0.24,-0.134 -0.412,-0.33 -0.514,-0.583 -0.102,-0.253 -0.154,-0.602 -0.154,-1.043 v -2.404 h 0.534 v 2.4 c 0,0.362 0.032,0.629 0.097,0.8 a 0.756,0.756 0 0 0 0.336,0.396 c 0.159,0.093 0.352,0.14 0.582,0.14 0.393,0 0.672,-0.092 0.839,-0.276 0.166,-0.184 0.25,-0.536 0.25,-1.058 v -2.403 z m 1.42,4.159 v -4.16 h 0.547 l 2.118,3.266 v -3.266 h 0.512 v 4.16 h -0.547 l -2.118,-3.27 v 3.27 z m 4.077,0 v -4.16 h 1.39 c 0.314,0 0.553,0.02 0.717,0.06 0.232,0.055 0.429,0.154 0.592,0.298 0.213,0.185 0.372,0.422 0.478,0.71 0.105,0.289 0.158,0.619 0.158,0.99 0,0.315 -0.035,0.596 -0.107,0.84 a 2.106,2.106 0 0 1 -0.275,0.606 c -0.112,0.16 -0.234,0.285 -0.367,0.378 -0.133,0.093 -0.293,0.161 -0.481,0.208 -0.188,0.047 -0.404,0.07 -0.648,0.07 z m 0.534,-0.49 h 0.862 c 0.265,0 0.474,-0.026 0.626,-0.077 a 0.883,0.883 0 0 0 0.361,-0.215 1.31,1.31 0 0 0 0.296,-0.526 c 0.07,-0.22 0.106,-0.488 0.106,-0.801 0,-0.435 -0.069,-0.77 -0.208,-1.004 -0.139,-0.233 -0.307,-0.39 -0.505,-0.47 -0.143,-0.056 -0.373,-0.084 -0.69,-0.084 h -0.848 v 3.176 z"
       id="path75"
       inkscape:connector-curvature="0" />
  </g>
  <g
     id="g81"
     style="fill:#eeeeec"
     transform="translate(-0.00125499,149.72951)">
    <path
       d="m 167.623,-43.293 v -3.719 h 1.321 c 0.269,0 0.485,0.038 0.648,0.113 a 0.85,0.85 0 0 1 0.382,0.348 c 0.092,0.156 0.138,0.32 0.138,0.49 a 0.878,0.878 0 0 1 -0.492,0.79 0.921,0.921 0 0 1 0.491,0.337 c 0.115,0.16 0.173,0.346 0.173,0.563 0,0.175 -0.036,0.336 -0.105,0.486 -0.069,0.15 -0.155,0.265 -0.258,0.346 -0.102,0.081 -0.23,0.143 -0.385,0.184 a 2.243,2.243 0 0 1 -0.568,0.062 z m 0.466,-2.156 h 0.762 c 0.206,0 0.355,-0.014 0.445,-0.043 a 0.488,0.488 0 0 0 0.267,-0.185 0.552,0.552 0 0 0 0.09,-0.325 0.627,0.627 0 0 0 -0.083,-0.325 0.434,0.434 0 0 0 -0.24,-0.193 c -0.104,-0.035 -0.283,-0.053 -0.537,-0.053 h -0.703 z m 0,1.717 h 0.877 c 0.15,0 0.256,-0.006 0.317,-0.017 a 0.74,0.74 0 0 0 0.269,-0.102 c 0.072,-0.047 0.131,-0.116 0.178,-0.207 0.047,-0.091 0.07,-0.195 0.07,-0.313 a 0.646,0.646 0 0 0 -0.101,-0.362 0.53,0.53 0 0 0 -0.28,-0.215 1.664,1.664 0 0 0 -0.517,-0.062 h -0.814 v 1.278 z m 2.556,0.439 1.352,-3.719 h 0.503 l 1.441,3.719 h -0.531 l -0.411,-1.126 h -1.473 l -0.386,1.126 z m 1.016,-1.527 h 1.194 l -0.368,-1.03 c -0.112,-0.312 -0.196,-0.57 -0.25,-0.77 a 4.935,4.935 0 0 1 -0.19,0.71 z m 3.655,1.527 v -3.28 h -1.16 v -0.439 h 2.792 v 0.44 h -1.165 v 3.279 z m 3.162,0 v -3.28 h -1.16 v -0.439 h 2.793 v 0.44 h -1.165 v 3.279 z m 1.968,0 v -3.719 h 2.547 v 0.44 h -2.08 v 1.138 h 1.948 v 0.436 h -1.948 v 1.266 h 2.162 v 0.439 z m 3.08,0 v -3.719 h 1.562 c 0.314,0 0.553,0.034 0.716,0.101 a 0.795,0.795 0 0 1 0.392,0.354 c 0.097,0.17 0.147,0.355 0.147,0.56 0,0.265 -0.081,0.487 -0.243,0.667 -0.161,0.181 -0.412,0.296 -0.75,0.346 0.124,0.062 0.218,0.124 0.282,0.185 0.136,0.131 0.265,0.297 0.386,0.494 l 0.614,1.012 h -0.586 l -0.467,-0.774 a 7.194,7.194 0 0 0 -0.336,-0.513 1.114,1.114 0 0 0 -0.237,-0.248 0.682,0.682 0 0 0 -0.212,-0.099 1.294,1.294 0 0 0 -0.26,-0.017 h -0.54 v 1.65 h -0.468 z m 0.466,-2.078 h 1.002 c 0.213,0 0.38,-0.023 0.499,-0.07 a 0.538,0.538 0 0 0 0.273,-0.223 0.632,0.632 0 0 0 0.094,-0.333 c 0,-0.176 -0.06,-0.321 -0.181,-0.434 -0.12,-0.113 -0.313,-0.17 -0.574,-0.17 h -1.114 z m 3.819,2.078 v -1.575 l -1.358,-2.144 h 0.568 l 0.694,1.121 c 0.128,0.21 0.247,0.42 0.358,0.63 0.106,-0.195 0.234,-0.414 0.384,-0.657 l 0.683,-1.094 h 0.543 l -1.406,2.144 v 1.575 z"
       id="path79"
       inkscape:connector-curvature="0" />
  </g>
  <g
     id="g85"
     style="fill:#34308e"
     transform="translate(-0.00125499,149.72951)">
    <path
       d="m 221.88,193.016 c 0.183,-0.096 0.385,-0.065 0.457,0.072 0.066,0.128 -0.016,0.323 -0.198,0.419 l -3.009,1.594 c -0.246,0.13 -0.366,0.373 -0.271,0.552 l 0.269,0.509 c 0.092,0.174 0.366,0.217 0.612,0.087 l 2.258,-1.196 c 0.593,-0.314 1.27,-0.208 1.51,0.243 l 0.267,0.504 c 0.237,0.448 -0.057,1.066 -0.649,1.381 l -3.022,1.599 c -0.182,0.096 -0.379,0.062 -0.452,-0.074 -0.07,-0.131 0.012,-0.315 0.195,-0.411 l 3.021,-1.599 c 0.234,-0.124 0.352,-0.373 0.257,-0.552 l -0.267,-0.504 c -0.095,-0.18 -0.368,-0.221 -0.601,-0.098 l -2.258,1.196 c -0.6,0.316 -1.277,0.212 -1.514,-0.236 l -0.269,-0.509 c -0.237,-0.448 0.057,-1.067 0.656,-1.385 z m 7.465,0.249 c 0.17,-0.09 0.388,-0.059 0.455,0.066 0.073,0.138 -0.029,0.329 -0.198,0.419 l -2.87,1.52 c -0.599,0.316 -1.277,0.212 -1.513,-0.236 l -1.137,-2.147 c -0.237,-0.448 0.057,-1.067 0.656,-1.383 l 2.87,-1.52 c 0.177,-0.094 0.379,-0.062 0.452,0.074 0.066,0.128 -0.016,0.323 -0.193,0.416 l -2.87,1.52 c -0.233,0.124 -0.351,0.372 -0.259,0.545 l 0.421,0.796 3.223,-1.706 c 0.183,-0.098 0.381,-0.059 0.449,0.07 0.069,0.13 -0.009,0.318 -0.192,0.415 l -3.223,1.706 0.459,0.865 c 0.092,0.174 0.368,0.221 0.601,0.098 z m 0.115,-3.948 c -0.072,-0.137 0.01,-0.319 0.192,-0.415 0.177,-0.094 0.385,-0.065 0.458,0.072 l 1.435,2.712 c 0.092,0.174 0.368,0.22 0.607,0.094 l 2.959,-1.567 c 0.176,-0.094 0.388,-0.059 0.455,0.068 0.073,0.137 -0.021,0.324 -0.198,0.418 l -2.959,1.567 c -0.599,0.318 -1.277,0.212 -1.513,-0.236 z m 10.994,-1.934 c 0.17,-0.09 0.388,-0.059 0.454,0.068 0.073,0.137 -0.027,0.328 -0.198,0.418 l -2.869,1.52 c -0.6,0.318 -1.277,0.212 -1.514,-0.236 l -1.137,-2.147 c -0.237,-0.448 0.057,-1.066 0.656,-1.383 l 2.871,-1.52 c 0.176,-0.094 0.379,-0.062 0.451,0.075 0.067,0.128 -0.016,0.323 -0.192,0.415 l -2.871,1.52 c -0.233,0.124 -0.351,0.373 -0.259,0.545 l 0.422,0.796 3.223,-1.706 c 0.183,-0.096 0.382,-0.059 0.45,0.07 0.069,0.13 -0.009,0.319 -0.193,0.415 l -3.223,1.707 0.459,0.864 c 0.091,0.174 0.367,0.221 0.6,0.098 z m 3.938,-6.29 c 0.189,-0.102 0.385,-0.066 0.457,0.07 0.068,0.126 -0.008,0.318 -0.198,0.419 l -2.869,1.519 c -0.239,0.128 -0.358,0.376 -0.266,0.55 l 1.137,2.147 c 0.092,0.173 0.367,0.221 0.606,0.094 l 2.871,-1.52 c 0.189,-0.099 0.388,-0.06 0.454,0.068 0.073,0.137 -0.008,0.318 -0.198,0.419 l -2.869,1.519 c -0.6,0.318 -1.277,0.212 -1.513,-0.236 l -1.137,-2.147 c -0.237,-0.448 0.057,-1.066 0.656,-1.383 z m 6.031,-3.193 c 0.189,-0.1 0.385,-0.065 0.457,0.072 0.068,0.126 -0.008,0.318 -0.198,0.418 l -1.735,0.919 1.605,3.032 c 0.073,0.137 -0.014,0.321 -0.191,0.415 -0.183,0.096 -0.385,0.065 -0.458,-0.072 l -1.605,-3.032 -1.741,0.921 c -0.183,0.098 -0.385,0.052 -0.452,-0.074 -0.072,-0.137 0.009,-0.318 0.193,-0.415 z"
       id="path83"
       inkscape:connector-curvature="0" />
  </g>
  <g
     id="g89"
     style="fill:#34308e"
     transform="translate(-0.00125499,149.72951)">
    <path
       d="m 263.142,193.016 c 0.184,-0.096 0.385,-0.065 0.458,0.072 0.066,0.126 -0.016,0.323 -0.199,0.419 l -3.009,1.593 c -0.246,0.13 -0.366,0.375 -0.271,0.553 l 0.269,0.509 c 0.092,0.174 0.366,0.216 0.611,0.086 l 2.258,-1.196 c 0.593,-0.314 1.27,-0.207 1.51,0.245 l 0.267,0.504 c 0.237,0.448 -0.056,1.066 -0.649,1.379 l -3.022,1.601 c -0.182,0.096 -0.379,0.062 -0.452,-0.075 -0.07,-0.13 0.012,-0.314 0.195,-0.41 l 3.022,-1.601 c 0.233,-0.124 0.351,-0.372 0.256,-0.55 l -0.267,-0.504 c -0.095,-0.18 -0.368,-0.223 -0.601,-0.099 l -2.258,1.196 c -0.599,0.318 -1.277,0.213 -1.513,-0.234 l -0.269,-0.51 c -0.237,-0.448 0.057,-1.066 0.656,-1.383 z m 5.794,-3.075 c 0.19,-0.099 0.385,-0.064 0.458,0.073 0.066,0.126 -0.009,0.318 -0.198,0.419 l -1.735,0.917 1.605,3.032 c 0.073,0.137 -0.016,0.321 -0.191,0.415 -0.183,0.096 -0.385,0.065 -0.458,-0.07 l -1.605,-3.032 -1.741,0.921 c -0.184,0.096 -0.385,0.052 -0.452,-0.074 -0.073,-0.137 0.009,-0.32 0.191,-0.416 z m 5.004,-2.648 c 0.599,-0.318 1.277,-0.211 1.513,0.237 l 1.435,2.712 c 0.073,0.137 -0.027,0.328 -0.198,0.418 -0.171,0.091 -0.385,0.065 -0.458,-0.07 l -0.757,-1.431 -3.217,1.702 0.757,1.431 c 0.073,0.137 -0.021,0.325 -0.198,0.419 -0.17,0.09 -0.379,0.062 -0.452,-0.074 l -1.435,-2.712 c -0.237,-0.448 0.056,-1.068 0.656,-1.386 z m -1.936,3.087 3.217,-1.703 -0.423,-0.799 c -0.095,-0.18 -0.364,-0.217 -0.599,-0.094 l -2.353,1.245 c -0.239,0.128 -0.36,0.371 -0.265,0.55 z m 9.537,-6.073 0.406,0.766 c 0.237,0.448 -0.053,1.059 -0.649,1.381 0.281,0.195 0.777,0.524 1.12,0.746 a 0.167,0.167 0 0 1 0.072,0.072 c 0.052,0.099 0.013,0.239 -0.086,0.341 a 0.373,0.373 0 0 1 -0.111,0.082 c -0.126,0.066 -0.282,0.078 -0.383,0.009 l -1.301,-0.885 -2.245,1.188 0.601,1.136 c 0.073,0.137 -0.029,0.328 -0.199,0.418 -0.182,0.098 -0.385,0.066 -0.458,-0.07 l -1.435,-2.712 c -0.237,-0.448 0.057,-1.068 0.662,-1.389 l 2.492,-1.32 c 0.601,-0.318 1.278,-0.211 1.514,0.237 z m -0.643,0.34 c -0.092,-0.174 -0.371,-0.213 -0.612,-0.087 l -2.491,1.32 c -0.239,0.126 -0.358,0.376 -0.265,0.55 l 0.578,1.092 2.927,-1.55 c 0.239,-0.126 0.364,-0.379 0.269,-0.558 z m 5.975,-4.2 c 0.189,-0.1 0.385,-0.065 0.457,0.072 0.068,0.126 -0.008,0.319 -0.198,0.418 l -1.735,0.919 1.605,3.032 c 0.073,0.137 -0.014,0.321 -0.191,0.415 -0.182,0.098 -0.385,0.066 -0.458,-0.07 l -1.605,-3.032 -1.741,0.921 c -0.182,0.096 -0.384,0.052 -0.452,-0.074 -0.072,-0.137 0.009,-0.32 0.193,-0.416 z"
       id="path87"
       inkscape:connector-curvature="0" />
  </g>
  <path
     d="m 320.76675,298.89851 c 0.725,-0.384 1.761,-0.661 2.185,0.141 l 0.359,0.678 c 0.147,0.277 0.131,0.609 -0.009,0.919 0.319,0.065 0.616,0.247 0.754,0.506 l 0.311,0.59 c 0.297,0.56 -0.069,1.335 -0.82,1.732 l -3.832,2.03 c -0.221,0.116 -0.488,0.07 -0.574,-0.09 l -1.772,-3.348 c -0.315,-0.595 0.03,-1.373 0.796,-1.779 z m 1.403,1.943 c 0.299,-0.159 0.455,-0.475 0.336,-0.698 l -0.359,-0.679 c -0.115,-0.217 -0.466,-0.272 -0.767,-0.113 l -2.894,1.533 c -0.308,0.163 -0.444,0.476 -0.305,0.74 l 0.549,1.038 z m 1.053,2.009 c 0.301,-0.159 0.449,-0.471 0.332,-0.69 l -0.311,-0.59 c -0.118,-0.224 -0.461,-0.277 -0.761,-0.118 l -3.43,1.817 0.74,1.398 z m 32.727,-22.605 c 0.75,-0.397 1.597,-0.264 1.893,0.294 l 1.797,3.397 c 0.091,0.17 -0.034,0.41 -0.247,0.523 -0.213,0.112 -0.482,0.081 -0.573,-0.09 l -0.949,-1.792 -4.022,2.13 0.947,1.792 c 0.091,0.172 -0.026,0.406 -0.247,0.523 -0.213,0.113 -0.475,0.078 -0.565,-0.092 l -1.798,-3.395 c -0.295,-0.56 0.07,-1.335 0.821,-1.732 z m -2.419,3.863 4.024,-2.132 -0.531,-1.002 c -0.118,-0.224 -0.458,-0.271 -0.75,-0.116 l -2.942,1.558 c -0.301,0.159 -0.45,0.466 -0.332,0.688 z"
     id="path91"
     inkscape:connector-curvature="0"
     style="fill:#34308e" />
  <path
     d="m 241.01875,327.57051 -19.569,10.361 a 4.142,4.142 0 0 1 -5.582,-1.717 l -0.473,-0.892 a 4.142,4.142 0 0 1 1.717,-5.582 l 19.569,-10.361 a 4.142,4.142 0 0 1 5.582,1.717 l 0.473,0.892 a 4.142,4.142 0 0 1 -1.717,5.582 z m 39.553,0 -19.569,10.361 a 4.142,4.142 0 0 1 -5.582,-1.717 l -0.473,-0.892 a 4.142,4.142 0 0 1 1.717,-5.582 l 19.569,-10.361 a 4.142,4.142 0 0 1 5.582,1.717 l 0.473,0.892 a 4.141,4.141 0 0 1 -1.717,5.582 z"
     id="path93"
     inkscape:connector-curvature="0"
     style="fill:#939598" />
  <path
     d="m 354.07975,273.44951 -38.166,20.208 c -8.369,4.431 -18.842,1.209 -23.273,-7.16 l -1.504,-2.84 c -4.431,-8.369 -1.209,-18.842 7.16,-23.273 l 38.166,-20.208 c 8.369,-4.431 18.842,-1.209 23.273,7.16 l 1.504,2.84 c 4.431,8.369 1.209,18.842 -7.16,23.273 z"
     id="path95"
     inkscape:connector-curvature="0"
     style="fill:#c9c9c9" />
  <g
     id="g99"
     style="fill:#9b2063"
     transform="translate(-0.00125499,149.72951)">
    <path
       d="m 302.097,113.66 c -7.013,3.713 -9.7,12.439 -5.986,19.454 3.713,7.013 12.441,9.697 19.454,5.984 7.014,-3.714 9.699,-12.441 5.986,-19.454 -3.714,-7.015 -12.44,-9.698 -19.454,-5.984 z m 34.716,-18.382 c -7.013,3.713 -9.698,12.439 -5.985,19.453 3.713,7.013 12.44,9.698 19.453,5.985 7.014,-3.714 9.699,-12.44 5.986,-19.454 -3.713,-7.014 -12.439,-9.698 -19.454,-5.984 z"
       id="path97"
       inkscape:connector-curvature="0" />
  </g>
  <path
     d="m 166.51575,1.9805149 h 49.842 V 15.577515 h -49.842 z"
     id="path101"
     inkscape:connector-curvature="0"
     style="fill:#c9c9c9" />
  <path
     d="m 174.21375,2.0905149 v 2.986 c 0,0.146 0.118,0.264 0.264,0.264 h 2.128 a 0.266,0.266 0 0 0 0.266,-0.266 v -2.986 a 0.263,0.263 0 0 0 -0.263,-0.263 h -2.13 a 0.264,0.264 0 0 0 -0.265,0.265 z m 5.893,-10e-4 v 2.982 c 0,0.149 0.12,0.269 0.269,0.269 h 2.124 a 0.266,0.266 0 0 0 0.266,-0.266 v -2.985 a 0.265,0.265 0 0 0 -0.265,-0.265 h -2.128 a 0.266,0.266 0 0 0 -0.266,0.265 z"
     id="path103"
     inkscape:connector-curvature="0"
     style="fill:#d9d9d9" />
  <g
     id="g111"
     style="fill:#d9d9d9"
     transform="translate(-0.00125499,149.72951)">
    <path
       d="m 180.065,-142.038 c 0.793,0 1.453,0.264 1.981,0.792 0.528,0.528 0.791,1.19 0.791,1.986 0,0.796 -0.266,1.454 -0.799,1.977 -0.532,0.521 -1.204,0.782 -2.014,0.782 -0.774,0 -1.418,-0.261 -1.934,-0.782 -0.515,-0.522 -0.773,-1.175 -0.773,-1.961 0,-0.806 0.259,-1.474 0.778,-2.001 0.52,-0.529 1.176,-0.793 1.97,-0.793 z m 0.029,0.734 c -0.588,0 -1.071,0.193 -1.448,0.58 -0.378,0.386 -0.567,0.879 -0.567,1.48 0,0.582 0.19,1.066 0.569,1.453 0.379,0.386 0.855,0.58 1.425,0.58 0.572,0 1.05,-0.197 1.433,-0.591 0.383,-0.394 0.575,-0.885 0.575,-1.472 0,-0.572 -0.192,-1.052 -0.575,-1.443 a 1.898,1.898 0 0 0 -1.412,-0.587 z m 3.654,-0.657 h 2.737 v 0.688 h -2.003 v 1.507 h 2.003 v 0.688 h -2.003 v 2.515 h -0.735 v -5.398 z m 3.531,0 h 2.737 v 0.688 h -2.003 v 1.507 h 2.003 v 0.688 h -2.003 v 2.515 h -0.735 v -5.398 z m 5.619,2.388 c 0,0.451 -0.347,0.816 -0.776,0.816 -0.429,0 -0.776,-0.365 -0.776,-0.816 0,-0.451 0.347,-0.816 0.776,-0.816 0.445,0 0.776,0.38 0.776,0.816 z m 4.187,-2.465 c 0.793,0 1.453,0.264 1.981,0.792 0.528,0.528 0.791,1.19 0.791,1.986 0,0.796 -0.266,1.454 -0.799,1.977 -0.532,0.521 -1.204,0.782 -2.014,0.782 -0.774,0 -1.418,-0.261 -1.934,-0.782 -0.515,-0.522 -0.773,-1.175 -0.773,-1.961 0,-0.806 0.259,-1.474 0.778,-2.001 0.52,-0.529 1.176,-0.793 1.97,-0.793 z m 0.029,0.734 c -0.588,0 -1.071,0.193 -1.448,0.58 -0.378,0.386 -0.567,0.879 -0.567,1.48 0,0.582 0.19,1.066 0.569,1.453 0.379,0.386 0.855,0.58 1.425,0.58 0.572,0 1.05,-0.197 1.433,-0.591 0.383,-0.394 0.575,-0.885 0.575,-1.472 0,-0.572 -0.192,-1.052 -0.575,-1.443 a 1.897,1.897 0 0 0 -1.412,-0.587 z m 7.726,-0.657 h 0.698 v 5.397 h -0.632 l -3.432,-4.157 v 4.157 h -0.691 v -5.397 h 0.595 l 3.461,4.192 v -4.192 z"
       id="path105"
       inkscape:connector-curvature="0" />
    <g
       id="g109">
      <path
         d="m 175.377,-142.534 v 6.528 l -5.017,-3.264 z m 32.296,0 v 6.528 l 5.017,-3.264 z"
         id="path107"
         inkscape:connector-curvature="0" />
    </g>
  </g>
  <path
     d="m 185.97075,2.0905149 v 3.25 h 25.269 c 2.815,0 5.119,2.303 5.119,5.1190001 0,2.815 -2.303,5.119 -5.119,5.119 h -39.619 c -2.815,0 -5.119,-2.303 -5.119,-5.119 0,-2.5880001 1.946,-4.7430001 4.448,-5.0750001 v -3.297 a 0.263,0.263 0 0 0 -0.263,-0.263 h -5.835 V 19.349515 h 193.028 V 1.8245149 h -171.643 a 0.266,0.266 0 0 0 -0.266,0.266 z m 65.285,388.4429951 v 5.685 c 0,0.278 0.118,0.504 0.264,0.504 h 2.128 c 0.147,0 0.266,-0.227 0.266,-0.507 v -5.686 c 0,-0.277 -0.118,-0.502 -0.263,-0.502 h -2.13 c -0.146,10e-4 -0.265,0.227 -0.265,0.506 z m 5.893,-10e-4 v 5.677 c 0,0.283 0.121,0.512 0.269,0.512 h 2.124 c 0.147,0 0.266,-0.226 0.266,-0.505 v -5.683 c 0,-0.279 -0.119,-0.505 -0.265,-0.505 h -2.128 c -0.147,0 -0.266,0.225 -0.266,0.504 z"
     id="path113"
     inkscape:connector-curvature="0"
     style="fill:#d9d9d9" />
  <path
     d="m 263.42775,390.02851 h -28.101 a 4.425,4.425 0 0 1 -4.412,-4.412 v -0.543 a 4.425,4.425 0 0 1 4.412,-4.412 h 28.101 a 4.425,4.425 0 0 1 4.412,4.412 v 0.543 a 4.425,4.425 0 0 1 -4.412,4.412 z"
     id="path115"
     inkscape:connector-curvature="0"
     style="fill:#c9c9c9" />
  <g
     id="g125"
     style="fill:#d9d9d9"
     transform="translate(-0.00125499,149.72951)">
    <path
       d="m 240.935,237.928 v -4.415 h 1.398 c 0.421,0 0.756,0.115 1.007,0.341 0.251,0.228 0.375,0.532 0.375,0.916 0,0.256 -0.064,0.483 -0.192,0.681 a 1.105,1.105 0 0 1 -0.527,0.431 c -0.223,0.09 -0.543,0.134 -0.96,0.134 h -0.467 v 1.913 h -0.634 z m 1.287,-3.853 h -0.653 v 1.379 h 0.692 c 0.256,0 0.454,-0.061 0.593,-0.182 0.139,-0.121 0.208,-0.294 0.208,-0.519 0,-0.452 -0.28,-0.678 -0.84,-0.678 z m 5.15,-0.556 h 0.631 v 4.409 h -0.631 v -1.918 h -2.477 v 1.918 h -0.631 v -4.409 h 0.631 v 1.906 h 2.477 z m 3.767,-0.063 c 0.681,0 1.248,0.216 1.701,0.647 0.454,0.431 0.68,0.972 0.68,1.621 0,0.651 -0.228,1.188 -0.686,1.615 -0.457,0.426 -1.034,0.639 -1.73,0.639 -0.664,0 -1.217,-0.213 -1.661,-0.639 -0.442,-0.427 -0.664,-0.96 -0.664,-1.602 0,-0.658 0.223,-1.204 0.669,-1.634 0.446,-0.431 1.01,-0.647 1.691,-0.647 z m 0.025,0.6 c -0.504,0 -0.919,0.157 -1.243,0.472 -0.325,0.316 -0.487,0.718 -0.487,1.209 0,0.475 0.163,0.871 0.489,1.187 0.326,0.315 0.734,0.474 1.223,0.474 0.492,0 0.902,-0.161 1.231,-0.483 0.329,-0.323 0.494,-0.724 0.494,-1.202 0,-0.467 -0.165,-0.86 -0.494,-1.179 a 1.678,1.678 0 0 0 -1.213,-0.478 z m 6.635,-0.537 h 0.6 v 4.409 h -0.543 l -2.948,-3.395 v 3.395 h -0.593 v -4.409 h 0.511 l 2.972,3.425 v -3.425 z m 1.543,0 h 2.499 v 0.562 h -1.868 v 1.344 h 1.805 v 0.565 h -1.805 v 1.37 h 1.928 v 0.561 h -2.559 z m 4.323,2.562 -0.48,-0.291 c -0.301,-0.185 -0.515,-0.364 -0.642,-0.543 a 1.025,1.025 0 0 1 -0.191,-0.614 c 0,-0.346 0.12,-0.629 0.362,-0.846 0.241,-0.216 0.554,-0.324 0.939,-0.324 0.368,0 0.705,0.103 1.012,0.31 v 0.716 c -0.318,-0.305 -0.659,-0.458 -1.025,-0.458 a 0.852,0.852 0 0 0 -0.508,0.143 0.433,0.433 0 0 0 -0.198,0.366 c 0,0.133 0.049,0.256 0.146,0.371 0.098,0.116 0.254,0.237 0.471,0.363 l 0.482,0.286 c 0.537,0.32 0.806,0.73 0.806,1.226 0,0.354 -0.118,0.64 -0.355,0.861 -0.237,0.221 -0.545,0.332 -0.923,0.332 a 1.94,1.94 0 0 1 -1.19,-0.402 v -0.802 c 0.341,0.432 0.736,0.648 1.184,0.648 a 0.744,0.744 0 0 0 0.494,-0.165 0.516,0.516 0 0 0 0.197,-0.414 c 0,-0.268 -0.194,-0.522 -0.581,-0.763 z"
       id="path117"
       inkscape:connector-curvature="0" />
    <g
       id="g123">
      <path
         d="m 236.661,232.97 a 2.745,2.745 0 0 1 2.596,3.624 0.181,0.181 0 0 1 -0.155,0.099 c -0.091,0 -0.16,-0.115 -0.16,-0.206 a 2.412,2.412 0 0 0 -2.281,-3.185 2.412,2.412 0 0 0 -2.281,3.185 c 0,0.091 -0.069,0.206 -0.16,0.206 a 0.181,0.181 0 0 1 -0.155,-0.099 2.745,2.745 0 0 1 2.596,-3.624 z"
         id="path119"
         inkscape:connector-curvature="0" />
      <path
         d="m 234.944,238.261 v -1.721 a 0.86,0.86 0 0 0 -0.858,0.861 c 0,0.475 0.384,0.86 0.858,0.86 z m 3.434,0 v -1.721 a 0.86,0.86 0 0 1 0.858,0.861 c 0,0.475 -0.384,0.86 -0.858,0.86 z"
         id="path121"
         inkscape:connector-curvature="0" />
    </g>
  </g>
  <g
     id="g135"
     transform="translate(-0.00125499,149.72951)">
    <path
       d="m 198.133,148.567 h -12.478 a 2.498,2.498 0 0 1 -2.497,-2.496 V 129.12 h -16.543 a 2.5,2.5 0 0 1 -2.497,-2.497 v -12.477 a 2.498,2.498 0 0 1 2.497,-2.497 h 16.543 V 95.104 a 2.5,2.5 0 0 1 2.497,-2.499 h 12.478 a 2.5,2.5 0 0 1 2.497,2.499 v 16.543 h 15.729 a 2.499,2.499 0 0 1 2.497,2.497 v 12.477 a 2.499,2.499 0 0 1 -2.497,2.496 H 200.63 v 16.951 a 2.499,2.499 0 0 1 -2.497,2.499 z"
       id="path127"
       inkscape:connector-curvature="0"
       style="fill:#212121" />
    <circle
       cx="191.48801"
       cy="120.586"
       r="7.2740002"
       id="circle129"
       style="fill:#191919" />
    <g
       id="g133"
       style="fill:#191919">
      <path
         d="m 203.124,127.86 h -1.196 a 1.35,1.35 0 0 1 -1.346,-1.346 v -11.856 c 0,-0.74 0.606,-1.346 1.346,-1.346 h 1.196 c 0.74,0 1.346,0.606 1.346,1.346 v 11.856 a 1.35,1.35 0 0 1 -1.346,1.346 z m 5.525,0 h -1.196 a 1.35,1.35 0 0 1 -1.346,-1.346 v -11.856 c 0,-0.74 0.606,-1.346 1.346,-1.346 h 1.196 c 0.74,0 1.346,0.606 1.346,1.346 v 11.856 a 1.351,1.351 0 0 1 -1.346,1.346 z m 5.525,0 h -1.196 a 1.35,1.35 0 0 1 -1.346,-1.346 v -11.856 c 0,-0.74 0.605,-1.346 1.346,-1.346 h 1.196 c 0.74,0 1.346,0.606 1.346,1.346 v 11.856 a 1.351,1.351 0 0 1 -1.346,1.346 z m -15.413,-18.91 v 1.196 a 1.35,1.35 0 0 1 -1.346,1.346 h -11.856 a 1.35,1.35 0 0 1 -1.346,-1.346 v -1.196 c 0,-0.74 0.606,-1.346 1.346,-1.346 h 11.856 a 1.35,1.35 0 0 1 1.346,1.346 z m 0,-5.525 v 1.196 a 1.35,1.35 0 0 1 -1.346,1.346 h -11.856 a 1.35,1.35 0 0 1 -1.346,-1.346 v -1.196 c 0,-0.74 0.606,-1.346 1.346,-1.346 h 11.856 a 1.35,1.35 0 0 1 1.346,1.346 z m 0,-5.525 v 1.196 a 1.35,1.35 0 0 1 -1.346,1.346 h -11.856 a 1.35,1.35 0 0 1 -1.346,-1.346 V 97.9 c 0,-0.74 0.606,-1.346 1.346,-1.346 h 11.856 a 1.35,1.35 0 0 1 1.346,1.346 z m -14.547,34.323 v -1.196 c 0,-0.74 0.606,-1.346 1.346,-1.346 h 11.856 c 0.74,0 1.346,0.605 1.346,1.346 v 1.196 a 1.35,1.35 0 0 1 -1.346,1.346 H 185.56 a 1.35,1.35 0 0 1 -1.346,-1.346 z m 0,5.525 v -1.196 c 0,-0.74 0.606,-1.346 1.346,-1.346 h 11.856 c 0.74,0 1.346,0.606 1.346,1.346 v 1.196 a 1.35,1.35 0 0 1 -1.346,1.346 H 185.56 a 1.35,1.35 0 0 1 -1.346,-1.346 z m 0,5.524 v -1.196 c 0,-0.74 0.606,-1.346 1.346,-1.346 h 11.856 c 0.74,0 1.346,0.606 1.346,1.346 v 1.196 a 1.35,1.35 0 0 1 -1.346,1.346 H 185.56 a 1.35,1.35 0 0 1 -1.346,-1.346 z m -4.363,-29.959 h 1.196 c 0.74,0 1.346,0.606 1.346,1.346 v 11.856 a 1.35,1.35 0 0 1 -1.346,1.346 h -1.196 a 1.35,1.35 0 0 1 -1.346,-1.346 v -11.856 a 1.35,1.35 0 0 1 1.346,-1.346 z m -5.525,0 h 1.196 c 0.74,0 1.346,0.606 1.346,1.346 v 11.856 a 1.35,1.35 0 0 1 -1.346,1.346 h -1.196 a 1.35,1.35 0 0 1 -1.346,-1.346 v -11.856 a 1.35,1.35 0 0 1 1.346,-1.346 z m -5.524,0 h 1.196 c 0.74,0 1.346,0.606 1.346,1.346 v 11.856 a 1.35,1.35 0 0 1 -1.346,1.346 h -1.196 a 1.35,1.35 0 0 1 -1.346,-1.346 v -11.856 a 1.35,1.35 0 0 1 1.346,-1.346 z"
         id="path131"
         inkscape:connector-curvature="0" />
    </g>
  </g>
  <linearGradient
     id="d"
     gradientUnits="userSpaceOnUse"
     x1="-25.652"
     y1="533.87598"
     x2="-24.652"
     y2="533.87598"
     gradientTransform="matrix(2.8653,4.9628452,4.9628452,-2.8653,-2243.3224,2019.6516)">
    <stop
       offset="0"
       stop-color="#c9c9c9"
       id="stop137" />
    <stop
       offset="1"
       stop-color="#a8a8a8"
       id="stop139" />
  </linearGradient>
  <path
     d="m 302.06075,380.24351 61.367,-35.075 z"
     id="path142"
     inkscape:connector-curvature="0"
     style="fill:url(#d)" />
  <g
     id="g162"
     transform="translate(-0.00125499,149.72951)">
    <path
       d="m 397.444,73.154 h 70.962 a 3.778,3.778 0 0 1 3.779,3.778 v 34.63 a 3.778,3.778 0 0 1 -3.779,3.78 h -70.962 a 3.778,3.778 0 0 1 -3.779,-3.78 v -34.63 a 3.778,3.778 0 0 1 3.779,-3.778 z"
       id="path144"
       inkscape:connector-curvature="0"
       style="fill:#f1f1f1;fill-opacity:0.8;stroke:#35495e;stroke-width:0.63438869" />
    <path
       d="m 454.232,97.678 h -6.492 l -1.459,4.045 h -2.107 l 5.918,-15.497 h 1.788 l 5.928,15.497 h -2.097 z m -5.875,-1.681 h 5.268 l -2.64,-7.248 z"
       id="path146"
       inkscape:connector-curvature="0"
       style="fill:#35495e" />
    <g
       transform="matrix(0.99188,0,0,-0.99188,396.124,112.827)"
       id="g160">
      <defs
         id="defs149">
        <path
           id="e"
           d="M 0.15,0.15 H 36.91 V 36.91 H 0.15 Z"
           inkscape:connector-curvature="0" />
      </defs>
      <clipPath
         id="f">
        <use
           xlink:href="#e"
           overflow="visible"
           id="use151"
           style="overflow:visible"
           x="0"
           y="0"
           width="100%"
           height="100%" />
      </clipPath>
      <g
         clip-path="url(#f)"
         id="g158">
        <path
           d="M 30.23,14.114 A 5.1190001,5.1190001 0 1 0 30.232,24.352 5.1190001,5.1190001 0 0 0 30.23,14.114 M 19.46,22.51 a 5.118,5.118 0 1 0 10e-4,10.236 5.118,5.118 0 0 0 0,-10.236 M 17.615,4.197 a 5.118,5.118 0 1 0 0,10.236 5.118,5.118 0 0 0 0,-10.236 m -10.639,8.61 a 5.118,5.118 0 1 0 0,10.236 5.118,5.118 0 0 0 0,-10.235 M 18.6,37.06 C 8.384,37.06 0.102,28.78 0.102,18.563 0.102,8.347 8.384,0.065 18.6,0.065 c 10.216,0 18.498,8.282 18.498,18.498 0,10.217 -8.282,18.498 -18.498,18.498"
           id="path154"
           inkscape:connector-curvature="0"
           style="fill:#35495e" />
        <path
           d="m 21.235,9.315 a 3.6200001,3.6200001 0 1 0 -7.24,0.002 3.6200001,3.6200001 0 0 0 7.24,-0.002 M 10.79,17.926 a 3.813,3.813 0 1 0 -3.812,3.812 3.812,3.812 0 0 0 3.811,-3.812 m 12.284,9.6 a 3.62,3.62 0 1 0 -7.238,0 3.62,3.62 0 0 0 7.238,0"
           id="path156"
           inkscape:connector-curvature="0"
           style="fill:#35495e" />
      </g>
    </g>
  </g>
  <g
     id="g182"
     transform="translate(-0.00125499,149.72951)">
    <path
       d="m 397.444,122.018 h 70.963 a 3.778,3.778 0 0 1 3.778,3.779 v 34.63 a 3.778,3.778 0 0 1 -3.778,3.779 h -70.963 a 3.778,3.778 0 0 1 -3.778,-3.778 v -34.631 a 3.778,3.778 0 0 1 3.778,-3.779 z"
       id="path164"
       inkscape:connector-curvature="0"
       style="fill:#f1f1f1;fill-opacity:0.8;stroke:#35495e;stroke-width:0.63438869" />
    <path
       d="m 445.675,150.587 v -15.496 h 5.066 c 1.682,0 2.944,0.348 3.789,1.043 0.851,0.695 1.277,1.724 1.277,3.086 a 3.17,3.17 0 0 1 -0.617,1.927 c -0.412,0.553 -0.972,0.983 -1.682,1.288 0.837,0.234 1.497,0.68 1.98,1.34 0.49,0.653 0.734,1.434 0.734,2.342 0,1.39 -0.45,2.483 -1.352,3.278 -0.9,0.795 -2.174,1.192 -3.82,1.192 z m 2.043,-7.248 v 5.577 h 3.374 c 0.95,0 1.7,-0.244 2.246,-0.734 0.553,-0.497 0.83,-1.178 0.83,-2.044 0,-1.866 -1.014,-2.799 -3.044,-2.799 z m 0,-1.639 h 3.087 c 0.894,0 1.607,-0.223 2.14,-0.67 0.539,-0.447 0.808,-1.054 0.808,-1.82 0,-0.852 -0.248,-1.47 -0.745,-1.852 -0.497,-0.39 -1.252,-0.586 -2.267,-0.586 h -3.023 z"
       id="path166"
       inkscape:connector-curvature="0"
       style="fill:#35495e" />
    <g
       transform="matrix(1.01304,0,0,-1.01304,395.485,161.99)"
       id="g180">
      <defs
         id="defs169">
        <path
           id="g"
           d="M -0.241,-0.242 H 37.303 V 37.302 H -0.241 Z"
           inkscape:connector-curvature="0" />
      </defs>
      <clipPath
         id="h">
        <use
           xlink:href="#g"
           overflow="visible"
           id="use171"
           style="overflow:visible"
           x="0"
           y="0"
           width="100%"
           height="100%" />
      </clipPath>
      <g
         clip-path="url(#h)"
         id="g178">
        <path
           d="M 30.23,14.114 A 5.1190001,5.1190001 0 1 0 30.232,24.352 5.1190001,5.1190001 0 0 0 30.23,14.114 M 19.46,22.51 a 5.118,5.118 0 1 0 10e-4,10.236 5.118,5.118 0 0 0 0,-10.236 M 17.615,4.197 a 5.118,5.118 0 1 0 0,10.236 5.118,5.118 0 0 0 0,-10.236 m -10.639,8.61 a 5.118,5.118 0 1 0 0,10.236 5.118,5.118 0 0 0 0,-10.235 M 18.6,37.06 C 8.384,37.06 0.102,28.78 0.102,18.563 0.102,8.347 8.384,0.065 18.6,0.065 c 10.216,0 18.498,8.282 18.498,18.498 0,10.217 -8.282,18.498 -18.498,18.498"
           id="path174"
           inkscape:connector-curvature="0"
           style="fill:#35495e" />
        <path
           d="m 33.885,19.232 a 3.6545,3.6545 0 1 0 -7.309,-10e-4 3.6545,3.6545 0 0 0 7.309,10e-4 M 10.79,17.926 a 3.813,3.813 0 1 0 -3.812,3.812 3.812,3.812 0 0 0 3.811,-3.812 m 12.284,9.6 a 3.62,3.62 0 1 0 -7.238,0 3.62,3.62 0 0 0 7.238,0"
           id="path176"
           inkscape:connector-curvature="0"
           style="fill:#35495e" />
      </g>
    </g>
  </g>
  <g
     id="g192"
     transform="translate(-0.00125499,149.72951)">
    <path
       d="m 114.178,254.585 h 127.183 a 3.761,3.761 0 0 1 3.76,3.761 v 34.471 a 3.761,3.761 0 0 1 -3.76,3.761 H 114.178 a 3.761,3.761 0 0 1 -3.76,-3.76 v -34.472 a 3.761,3.761 0 0 1 3.76,-3.76 z"
       id="path184"
       inkscape:connector-curvature="0"
       style="fill:#f1f1f1;fill-opacity:0.8;stroke:#35495e;stroke-width:0.82921845" />
    <path
       d="m 145.01,275.827 h -28.7 c -2.074,0 -3.756,1.732 -3.756,3.867 0,2.135 1.682,3.866 3.757,3.866 h 28.699 c 2.074,0 3.756,-1.73 3.756,-3.866 0,-2.136 -1.682,-3.867 -3.756,-3.867 z m 0.527,-3.487 h 1.16 v -5.936 h 2.075 v -1.103 h -5.309 v 1.102 h 2.074 z m -2.835,-4.438 c -0.123,-1.518 -1.115,-2.798 -3.016,-2.798 -2.174,0 -3.09,1.732 -3.09,3.718 0,1.98 0.957,3.716 2.952,3.716 2.275,0 2.993,-1.486 3.155,-2.89 h -1.25 c -0.097,0.74 -0.5,1.787 -1.704,1.787 -1.148,0 -1.942,-1.018 -1.942,-2.487 0,-1.834 0.794,-2.744 1.864,-2.744 0.976,0 1.665,0.631 1.781,1.697 z m -11.917,4.438 h 4.86 v -1.103 h -3.7 v -1.952 h 3.491 v -1.103 h -3.49 v -1.778 h 3.635 v -1.103 h -4.795 v 7.04 z m -5.55,0 h 4.52 v -1.16 h -3.359 v -5.88 h -1.16 v 7.04 z m -6.12,0 h 4.86 v -1.103 h -3.7 v -1.952 h 3.49 v -1.103 h -3.49 v -1.778 h 3.64 v -1.103 h -4.8 v 7.04 z m -6.415,-5.058 c 0,2.887 4.071,1.366 4.071,3.113 0,0.774 -0.658,1.04 -1.363,1.04 -0.954,0 -1.555,-0.446 -1.587,-1.375 h -1.252 c 0.014,1.48 0.812,2.476 2.8,2.476 1.178,0 2.655,-0.472 2.655,-2.289 0,-3.006 -4.117,-1.422 -4.117,-3.074 0,-0.661 0.511,-0.968 1.283,-0.968 0.967,0 1.356,0.591 1.395,1.136 h 1.255 c -0.149,-2.043 -1.853,-2.237 -2.704,-2.237 -1.345,0 -2.436,0.61 -2.436,2.178"
       id="path186"
       inkscape:connector-curvature="0"
       style="fill:#35495e" />
    <g
       id="g190"
       style="fill:#35495e">
      <path
         d="m 166.895,276.15 c -1.752,-0.504 -3.03,-1.121 -3.831,-1.852 -0.795,-0.738 -1.192,-1.646 -1.192,-2.725 0,-1.22 0.486,-2.228 1.458,-3.023 0.98,-0.802 2.25,-1.202 3.81,-1.202 1.065,0 2.012,0.205 2.842,0.617 0.837,0.411 1.483,0.98 1.937,1.703 a 4.33,4.33 0 0 1 0.692,2.373 h -2.054 c 0,-0.937 -0.299,-1.67 -0.895,-2.203 -0.595,-0.54 -1.436,-0.81 -2.522,-0.81 -1.007,0 -1.795,0.224 -2.363,0.672 -0.56,0.44 -0.84,1.053 -0.84,1.84 0,0.632 0.266,1.168 0.798,1.608 0.54,0.433 1.45,0.83 2.735,1.192 1.291,0.362 2.299,0.762 3.023,1.202 0.73,0.433 1.27,0.94 1.617,1.522 0.355,0.582 0.533,1.267 0.533,2.054 0,1.256 -0.49,2.264 -1.47,3.023 -0.978,0.752 -2.288,1.128 -3.926,1.128 a 7.335,7.335 0 0 1 -2.98,-0.607 c -0.923,-0.411 -1.636,-0.972 -2.14,-1.681 -0.496,-0.71 -0.745,-1.515 -0.745,-2.416 h 2.054 c 0,0.937 0.345,1.678 1.033,2.224 0.695,0.54 1.621,0.81 2.778,0.81 1.078,0 1.905,-0.22 2.48,-0.66 0.574,-0.44 0.861,-1.04 0.861,-1.8 0,-0.76 -0.266,-1.344 -0.798,-1.755 -0.532,-0.418 -1.497,-0.83 -2.895,-1.234 z m 17.135,-0.256 h -6.716 v 5.492 h 7.802 v 1.67 h -9.845 v -15.495 h 9.738 v 1.681 h -7.695 v 4.981 h 6.716 z m 5.684,5.492 h 7.343 v 1.67 h -9.398 v -15.495 h 2.055 z m 18.455,-5.492 h -6.716 v 5.492 h 7.801 v 1.67 h -9.845 v -15.495 h 9.739 v 1.681 h -7.695 v 4.981 h 6.716 z m 15.027,2.246 c -0.191,1.639 -0.798,2.906 -1.82,3.8 -1.014,0.886 -2.366,1.33 -4.054,1.33 -1.831,0 -3.3,-0.657 -4.406,-1.97 -1.1,-1.312 -1.65,-3.068 -1.65,-5.268 v -1.49 c 0,-1.44 0.255,-2.706 0.766,-3.799 0.518,-1.093 1.249,-1.93 2.193,-2.512 0.943,-0.589 2.036,-0.883 3.278,-0.883 1.646,0 2.965,0.461 3.959,1.383 0.993,0.916 1.572,2.186 1.735,3.81 h -2.054 c -0.178,-1.234 -0.565,-2.128 -1.16,-2.681 -0.59,-0.554 -1.416,-0.83 -2.48,-0.83 -1.306,0 -2.33,0.482 -3.076,1.447 -0.738,0.965 -1.107,2.338 -1.107,4.119 v 1.5 c 0,1.682 0.351,3.02 1.054,4.013 0.703,0.993 1.685,1.49 2.948,1.49 1.135,0 2.005,-0.256 2.607,-0.766 0.61,-0.518 1.015,-1.416 1.214,-2.693 z m 13.187,-8.898 h -4.981 v 13.815 h -2.033 v -13.815 h -4.97 v -1.681 h 11.984 z"
         id="path188"
         inkscape:connector-curvature="0" />
    </g>
  </g>
  <g
     id="g202"
     transform="translate(-0.00125499,149.72951)">
    <path
       d="m 257.629,254.57 h 117.06 a 3.764,3.764 0 0 1 3.764,3.764 v 34.496 a 3.764,3.764 0 0 1 -3.764,3.764 h -117.06 a 3.764,3.764 0 0 1 -3.764,-3.764 v -34.496 a 3.764,3.764 0 0 1 3.764,-3.764 z"
       id="path194"
       inkscape:connector-curvature="0"
       style="fill:#f1f1f1;fill-opacity:0.8;stroke:#35495e;stroke-width:0.79775327" />
    <path
       d="m 289.233,272.34 h 1.435 v -6.064 h 2.557 v -1.128 h -6.548 v 1.128 h 2.557 l -10e-4,6.063 z m -8.694,-3.967 v -2.097 h 2.476 c 0.753,0 1.223,0.291 1.223,1.037 0,0.806 -0.43,1.06 -1.223,1.06 z m -1.431,3.966 h 1.43 v -2.84 h 2.438 c 1.05,0 1.185,0.726 1.185,1.752 0,0.524 0.068,0.888 0.174,1.088 h 1.548 c -0.28,-0.394 -0.289,-1.196 -0.289,-1.542 0,-1.017 -0.18,-1.762 -0.992,-1.941 v -0.02 c 0.642,-0.211 1.126,-0.796 1.126,-1.734 0,-1.116 -0.562,-1.95 -2.3,-1.95 h -4.317 z m -8.865,0 h 1.548 l 0.706,-1.782 h 3.21 l 0.716,1.782 h 1.6 l -3.039,-7.19 h -1.7 l -3.04,7.19 z m 2.685,-2.91 1.184,-3.034 1.166,3.035 h -2.35 z m -6.716,2.91 h 1.431 v -6.063 h 2.561 v -1.128 h -6.553 v 1.128 h 2.561 z m -9.782,-5.168 c 0,2.95 5.024,1.397 5.024,3.18 0,0.79 -0.81,1.062 -1.68,1.062 -1.176,0 -1.919,-0.455 -1.958,-1.404 h -1.547 c 0.021,1.513 1.003,2.533 3.461,2.533 1.452,0 3.273,-0.485 3.273,-2.34 0,-3.072 -5.082,-1.45 -5.082,-3.14 0,-0.675 0.63,-0.987 1.586,-0.987 1.193,0 1.672,0.603 1.722,1.159 h 1.547 c -0.184,-2.089 -2.285,-2.287 -3.337,-2.287 -1.663,0 -3.01,0.622 -3.01,2.224 m 32.955,8.729 H 260.08 c -2.118,0 -3.836,1.769 -3.836,3.949 0,2.18 1.718,3.948 3.836,3.948 h 29.305 c 2.119,0 3.836,-1.767 3.836,-3.948 0,-2.181 -1.717,-3.948 -3.836,-3.948 z"
       id="path196"
       inkscape:connector-curvature="0"
       style="fill:#35495e" />
    <g
       id="g200"
       style="fill:#35495e">
      <path
         d="m 310.358,276.15 c -1.752,-0.504 -3.03,-1.121 -3.831,-1.852 -0.795,-0.738 -1.192,-1.646 -1.192,-2.725 0,-1.22 0.486,-2.228 1.458,-3.023 0.98,-0.802 2.25,-1.202 3.81,-1.202 1.065,0 2.012,0.205 2.842,0.617 0.837,0.411 1.483,0.98 1.937,1.703 a 4.33,4.33 0 0 1 0.692,2.373 h -2.054 c 0,-0.937 -0.298,-1.67 -0.894,-2.203 -0.596,-0.54 -1.437,-0.81 -2.522,-0.81 -1.008,0 -1.796,0.224 -2.363,0.672 -0.56,0.44 -0.84,1.053 -0.84,1.84 0,0.632 0.265,1.168 0.797,1.608 0.54,0.433 1.451,0.83 2.735,1.192 1.292,0.362 2.3,0.762 3.023,1.202 0.73,0.433 1.27,0.94 1.618,1.522 0.354,0.582 0.532,1.267 0.532,2.055 0,1.255 -0.49,2.263 -1.469,3.022 -0.98,0.752 -2.288,1.128 -3.927,1.128 a 7.335,7.335 0 0 1 -2.98,-0.607 c -0.922,-0.411 -1.636,-0.972 -2.14,-1.681 -0.496,-0.71 -0.744,-1.515 -0.744,-2.416 h 2.054 c 0,0.937 0.344,1.678 1.032,2.224 0.696,0.54 1.621,0.81 2.778,0.81 1.078,0 1.905,-0.22 2.48,-0.66 0.574,-0.44 0.862,-1.04 0.862,-1.8 0,-0.76 -0.266,-1.344 -0.798,-1.755 -0.533,-0.418 -1.498,-0.83 -2.896,-1.234 z m 19.083,-6.908 h -4.98 v 13.815 h -2.033 v -13.815 h -4.97 v -1.681 h 11.983 z m 10.026,9.77 h -6.492 l -1.458,4.045 h -2.108 l 5.918,-15.496 h 1.788 l 5.928,15.496 h -2.097 z m -5.875,-1.68 h 5.268 l -2.64,-7.249 -2.628,7.248 z m 17.221,-0.544 h -3.64 v 6.269 h -2.054 V 267.56 h 5.13 c 1.745,0 3.086,0.397 4.023,1.191 0.943,0.795 1.415,1.952 1.415,3.47 0,0.965 -0.262,1.806 -0.787,2.523 -0.518,0.716 -1.242,1.252 -2.171,1.606 l 3.64,6.578 v 0.128 h -2.193 l -3.363,-6.269 z m -3.64,-1.671 h 3.14 c 1.014,0 1.82,-0.263 2.415,-0.788 0.603,-0.525 0.905,-1.227 0.905,-2.107 0,-0.958 -0.288,-1.692 -0.862,-2.203 -0.568,-0.51 -1.391,-0.77 -2.47,-0.777 h -3.129 v 5.875 z m 21.222,-5.875 h -4.98 v 13.815 h -2.034 v -13.815 h -4.97 v -1.681 h 11.984 z"
         id="path198"
         inkscape:connector-curvature="0" />
    </g>
  </g>
  <g
     id="g238"
     transform="translate(-0.00125499,149.72951)">
    <path
       d="m 4.16,99.291 h 114.435 a 3.764,3.764 0 0 1 3.765,3.764 v 34.504 a 3.764,3.764 0 0 1 -3.765,3.765 H 4.16 A 3.764,3.764 0 0 1 0.396,137.559 V 103.055 A 3.765,3.765 0 0 1 4.16,99.291 Z"
       id="path204"
       inkscape:connector-curvature="0"
       style="fill:#f1f1f1;fill-opacity:0.8;stroke:#35495e;stroke-width:0.78948975" />
    <path
       d="m 24.878,139.188 h -7.2 c -2.318,0 -3.159,-1.89 -3.159,-3.16 v -8.843 H 5.675 c -2.319,0 -3.16,-1.89 -3.16,-3.16 v -7.2 c 0,-2.317 1.89,-3.159 3.16,-3.159 h 8.844 v -8.843 c 0,-2.319 1.889,-3.16 3.158,-3.16 h 7.201 c 2.319,0 3.16,1.89 3.16,3.16 v 8.843 h 8.841 c 1.217,0 2.182,0.532 2.718,1.499 0.21,0.38 0.462,1.126 0.435,1.66 h 0.008 v 7.2 c 0,2.318 -1.89,3.16 -3.16,3.16 h -8.842 v 8.841 c 0,2.32 -1.89,3.162 -3.16,3.162 z M 5.675,115.184 c -0.38,0.006 -1.641,0.14 -1.641,1.64 v 7.2 c 0.006,0.38 0.14,1.642 1.641,1.642 h 10.362 v 10.36 c 0.005,0.381 0.14,1.642 1.64,1.642 h 7.197 c 0.389,-0.006 1.645,-0.144 1.645,-1.642 v -10.36 h 10.36 c 0.38,-0.006 1.64,-0.141 1.64,-1.64 v -7.212 c -0.004,-0.29 -0.113,-1.629 -1.64,-1.629 H 26.521 v -10.362 c -0.007,-0.38 -0.141,-1.641 -1.642,-1.641 h -7.2 c -0.381,0.006 -1.64,0.14 -1.64,1.641 v 10.361 H 5.675 Z"
       id="path206"
       inkscape:connector-curvature="0"
       style="fill:#35495e" />
    <path
       d="m 21.28,124.123 c -2.038,0 -3.696,-1.658 -3.696,-3.697 0,-2.039 1.658,-3.696 3.695,-3.696 a 3.7,3.7 0 0 1 3.696,3.696 3.7,3.7 0 0 1 -3.696,3.697 z m 0,-5.874 a 2.18,2.18 0 0 0 -2.177,2.177 c 0,1.202 0.976,2.178 2.176,2.178 1.201,0 2.177,-0.977 2.177,-2.178 0,-1.201 -0.977,-2.177 -2.177,-2.177 z"
       id="path208"
       inkscape:connector-curvature="0"
       style="fill:#35495e" />
    <g
       id="g214"
       style="fill:#35495e">
      <path
         d="m 21.278,104.886 -3.043,4.743 h 6.088 z"
         id="path210"
         inkscape:connector-curvature="0" />
      <path
         d="m 24.322,110.388 h -6.088 a 0.761,0.761 0 0 1 -0.639,-1.17 l 3.043,-4.742 c 0.28,-0.437 1,-0.436 1.278,0 l 3.045,4.743 a 0.76,0.76 0 0 1 -0.639,1.17 z m -4.697,-1.519 h 3.308 l -1.655,-2.577 z"
         id="path212"
         inkscape:connector-curvature="0" />
    </g>
    <g
       id="g220"
       style="fill:#35495e">
      <path
         d="m 5.68,120.426 4.742,3.042 v -6.086 l -4.743,3.044 z"
         id="path216"
         inkscape:connector-curvature="0" />
      <path
         d="m 10.422,124.228 a 0.759,0.759 0 0 1 -0.41,-0.12 l -4.743,-3.043 a 0.757,0.757 0 0 1 0,-1.278 l 4.743,-3.044 a 0.761,0.761 0 0 1 1.17,0.64 v 6.085 a 0.76,0.76 0 0 1 -0.76,0.76 z m -3.336,-3.802 2.577,1.653 v -3.306 z"
         id="path218"
         inkscape:connector-curvature="0" />
    </g>
    <g
       id="g226"
       style="fill:#35495e">
      <path
         d="m 36.82,120.425 -4.743,-3.043 v 6.086 l 4.744,-3.043 z"
         id="path222"
         inkscape:connector-curvature="0" />
      <path
         d="m 32.078,124.228 a 0.76,0.76 0 0 1 -0.76,-0.76 v -6.086 a 0.758,0.758 0 0 1 1.17,-0.639 l 4.745,3.043 a 0.76,0.76 0 0 1 0,1.278 l -4.745,3.043 a 0.762,0.762 0 0 1 -0.41,0.12 z m 0.76,-5.456 v 3.307 l 2.577,-1.654 -2.578,-1.653 z"
         id="path224"
         inkscape:connector-curvature="0" />
    </g>
    <g
       id="g232"
       style="fill:#35495e">
      <path
         d="m 21.278,135.966 3.045,-4.743 h -6.088 z"
         id="path228"
         inkscape:connector-curvature="0" />
      <path
         d="m 21.278,136.725 a 0.76,0.76 0 0 1 -0.639,-0.35 l -3.043,-4.742 a 0.761,0.761 0 0 1 0.64,-1.17 h 6.087 a 0.758,0.758 0 0 1 0.64,1.17 l -3.046,4.743 a 0.76,0.76 0 0 1 -0.639,0.35 z m -1.653,-4.743 1.653,2.577 1.655,-2.577 z"
         id="path230"
         inkscape:connector-curvature="0" />
    </g>
    <g
       id="g236"
       style="fill:#35495e">
      <path
         d="M 52.327,127.782 V 112.286 H 56.7 c 1.348,0 2.54,0.298 3.576,0.894 1.036,0.596 1.834,1.444 2.395,2.544 0.567,1.1 0.855,2.363 0.862,3.789 v 0.99 c 0,1.461 -0.284,2.742 -0.852,3.842 a 5.912,5.912 0 0 1 -2.416,2.533 c -1.043,0.589 -2.26,0.89 -3.65,0.904 h -4.29 z m 2.044,-13.814 v 12.143 h 2.15 c 1.575,0 2.798,-0.49 3.671,-1.468 0.88,-0.98 1.32,-2.374 1.32,-4.183 v -0.905 c 0,-1.76 -0.415,-3.125 -1.245,-4.097 -0.824,-0.98 -1.994,-1.476 -3.512,-1.49 H 54.37 Z m 16.049,8.035 h -5.194 v -1.607 h 5.194 z m 4.257,-0.287 v 6.066 h -2.043 v -15.496 h 5.715 c 1.696,0 3.023,0.433 3.98,1.299 0.966,0.865 1.448,2.011 1.448,3.437 0,1.505 -0.472,2.665 -1.416,3.48 -0.936,0.81 -2.28,1.214 -4.033,1.214 h -3.65 z m 0,-1.671 h 3.672 c 1.093,0 1.93,-0.256 2.512,-0.766 0.582,-0.518 0.873,-1.263 0.873,-2.235 0,-0.923 -0.291,-1.66 -0.873,-2.214 -0.582,-0.553 -1.38,-0.84 -2.395,-0.862 h -3.788 v 6.077 z m 18.817,3.693 h -6.492 l -1.459,4.045 h -2.107 l 5.917,-15.497 h 1.789 l 5.928,15.497 h -2.097 l -1.48,-4.045 z m -5.875,-1.682 h 5.268 l -2.64,-7.247 z m 11.537,5.726 v -15.496 h 4.374 c 1.349,0 2.54,0.298 3.576,0.894 1.036,0.596 1.835,1.444 2.395,2.544 0.568,1.1 0.855,2.363 0.862,3.789 v 0.99 c 0,1.461 -0.284,2.742 -0.852,3.842 a 5.912,5.912 0 0 1 -2.415,2.533 c -1.044,0.589 -2.26,0.89 -3.651,0.904 z m 2.043,-13.814 v 12.143 h 2.15 c 1.575,0 2.8,-0.49 3.672,-1.468 0.88,-0.98 1.32,-2.374 1.32,-4.183 v -0.905 c 0,-1.76 -0.415,-3.125 -1.245,-4.097 -0.824,-0.98 -1.994,-1.476 -3.512,-1.49 z"
         id="path234"
         inkscape:connector-curvature="0" />
    </g>
  </g>
  <ellipse
     cx="190.88075"
     cy="269.5405"
     rx="2.4530001"
     ry="2.4000001"
     id="ellipse240"
     style="fill:#434547" />
  <ellipse
     cx="309.28775"
     cy="276.12653"
     rx="2.4530001"
     ry="2.4000001"
     id="ellipse242"
     style="fill:#434547" />
  <ellipse
     cx="342.97574"
     cy="257.55753"
     rx="2.4530001"
     ry="2.4000001"
     id="ellipse244"
     style="fill:#434547" />
  <ellipse
     cx="268.69376"
     cy="328.79852"
     rx="2.4530001"
     ry="2.4000001"
     id="ellipse246"
     style="fill:#434547" />
  <ellipse
     cx="229.14075"
     cy="328.79852"
     rx="2.4530001"
     ry="2.4000001"
     id="ellipse248"
     style="fill:#434547" />
  <path
     d="m 393.43375,257.55751 -50.458,0.068"
     id="path250"
     inkscape:connector-curvature="0"
     style="fill:#434547;stroke:#434547;stroke-width:0.91799998" />
  <path
     d="m 393.37475,276.05951 -84.086,0.068"
     id="path252"
     inkscape:connector-curvature="0"
     style="fill:#434547;stroke:#434547;stroke-width:1.18499994" />
  <path
     d="m 189.69875,269.47551 -66.973,0.068"
     id="path254"
     inkscape:connector-curvature="0"
     style="fill:#434547;stroke:#434547;stroke-width:1.05799997" />
  <path
     d="m 268.58475,328.65551 0.068,75.377 m -39.546,-75.234 0.068,75.234"
     id="path256"
     inkscape:connector-curvature="0"
     style="fill:#434547;stroke:#434547;stroke-width:1.12100005" />
</svg>
