<?xml version="1.0" encoding="UTF-8" standalone="no"?>
<!-- Generator: Adobe Illustrator 22.0.0, SVG Export Plug-In . SVG Version: 6.00 Build 0)  -->

<svg
   xmlns:dc="http://purl.org/dc/elements/1.1/"
   xmlns:cc="http://creativecommons.org/ns#"
   xmlns:rdf="http://www.w3.org/1999/02/22-rdf-syntax-ns#"
   xmlns:svg="http://www.w3.org/2000/svg"
   xmlns="http://www.w3.org/2000/svg"
   xmlns:sodipodi="http://sodipodi.sourceforge.net/DTD/sodipodi-0.dtd"
   xmlns:inkscape="http://www.inkscape.org/namespaces/inkscape"
   version="1.1"
   id="Capa_1"
   x="0px"
   y="0px"
   viewBox="0 0 194.55892 323.89001"
   xml:space="preserve"
   sodipodi:docname="consolegame.svg"
   width="194.55893"
   height="323.89001"
   inkscape:version="0.92.4 5da689c313, 2019-01-14"><metadata
   id="metadata63"><rdf:RDF><cc:Work
       rdf:about=""><dc:format>image/svg+xml</dc:format><dc:type
         rdf:resource="http://purl.org/dc/dcmitype/StillImage" /></cc:Work></rdf:RDF></metadata><defs
   id="defs61" /><sodipodi:namedview
   pagecolor="#ffffff"
   bordercolor="#666666"
   borderopacity="1"
   objecttolerance="10"
   gridtolerance="10"
   guidetolerance="10"
   inkscape:pageopacity="0"
   inkscape:pageshadow="2"
   inkscape:window-width="471"
   inkscape:window-height="442"
   id="namedview59"
   showgrid="false"
   inkscape:zoom="0.72863568"
   inkscape:cx="97.279277"
   inkscape:cy="161.9435"
   inkscape:window-x="0"
   inkscape:window-y="0"
   inkscape:window-maximized="0"
   inkscape:current-layer="Capa_1"><inkscape:grid
     type="xygrid"
     id="grid65"
     originx="-0.00022612692"
     originy="-0.0030053711" /></sodipodi:namedview>
<g
   id="g56"
   transform="translate(-2.2612693e-4)">
	<path
   style="fill:#71553c"
   d="m 111.036,256.805 c 0,7.599 -6.161,13.757 -13.756,13.757 -7.596,0 -13.754,-6.158 -13.754,-13.757 0,-7.597 6.158,-13.754 13.754,-13.754 7.595,0 13.756,6.157 13.756,13.754 z"
   id="path2"
   inkscape:connector-curvature="0" />
	<path
   style="fill:#553d27"
   d="m 93.175,256.805 c 0,-5.896 3.714,-10.928 8.93,-12.882 -1.502,-0.563 -3.128,-0.872 -4.826,-0.872 -7.596,0 -13.754,6.157 -13.754,13.756 0,7.597 6.158,13.755 13.754,13.755 1.697,0 3.323,-0.31 4.826,-0.873 -5.216,-1.955 -8.93,-6.986 -8.93,-12.884 z"
   id="path4"
   inkscape:connector-curvature="0" />
	<path
   style="fill:#3678a6"
   d="m 62.259,296.535 c 0,1.739 -1.423,3.163 -3.163,3.163 H 47.428 c -1.74,0 -3.163,-1.424 -3.163,-3.163 v -34.974 c 0,-1.74 1.423,-3.163 3.163,-3.163 h 11.668 c 1.74,0 3.163,1.423 3.163,3.163 z"
   id="path6"
   inkscape:connector-curvature="0" />
	<path
   style="fill:#335f9f"
   d="m 53.978,296.535 v -34.974 c 0,-1.74 1.423,-3.163 3.163,-3.163 h -9.714 c -1.74,0 -3.163,1.423 -3.163,3.163 v 34.974 c 0,1.739 1.423,3.163 3.163,3.163 h 9.714 c -1.739,0 -3.163,-1.424 -3.163,-3.163 z"
   id="path8"
   inkscape:connector-curvature="0" />
	<path
   style="fill:#3678a6"
   d="m 150.294,315.984 c 0,1.74 -1.423,3.163 -3.163,3.163 h -11.668 c -1.74,0 -3.163,-1.423 -3.163,-3.163 v -34.971 c 0,-1.739 1.423,-3.163 3.163,-3.163 h 11.668 c 1.74,0 3.163,1.424 3.163,3.163 z"
   id="path10"
   inkscape:connector-curvature="0" />
	<path
   style="fill:#335f9f"
   d="m 141.91,315.984 v -34.971 c 0,-1.739 1.423,-3.163 3.163,-3.163 h -9.61 c -1.74,0 -3.163,1.424 -3.163,3.163 v 34.971 c 0,1.74 1.423,3.163 3.163,3.163 h 9.61 c -1.74,0 -3.163,-1.422 -3.163,-3.163 z"
   id="path12"
   inkscape:connector-curvature="0" />
	<path
   style="fill:#af774d"
   d="M 162.544,186.01 V 74.565 L 99.755,24.746 c -1.361,-1.082 -3.593,-1.082 -4.954,0 L 32.018,74.565 V 186.01 Z"
   id="path14"
   inkscape:connector-curvature="0" />
	<path
   style="fill:#96562b"
   d="m 97.28,38.905 c 0.857,0 1.7,0.062 2.528,0.173 l 9.007,-7.146 -9.059,-7.186 c -1.361,-1.082 -3.593,-1.082 -4.954,0 L 32.018,74.565 V 185.377 H 49.654 V 78.875 L 78.465,56.016 C 79.369,46.43 87.459,38.905 97.28,38.905 Z"
   id="path16"
   inkscape:connector-curvature="0" />
	<path
   style="fill:#fcf8f2"
   d="m 139.031,130.949 c 0,23.058 -18.691,41.751 -41.751,41.751 -23.058,0 -41.752,-18.693 -41.752,-41.751 0,-23.059 18.694,-41.752 41.752,-41.752 23.06,0 41.751,18.694 41.751,41.752 z"
   id="path18"
   inkscape:connector-curvature="0" />
	<path
   style="fill:#c7c8ca"
   d="m 75.139,130.949 c 0,-19.68 13.621,-36.172 31.946,-40.583 -3.146,-0.759 -6.427,-1.169 -9.805,-1.169 -23.061,0 -41.752,18.693 -41.752,41.752 0,23.058 18.691,41.751 41.752,41.751 3.378,0 6.659,-0.412 9.805,-1.168 -18.326,-4.414 -31.946,-20.903 -31.946,-40.583 z"
   id="path20"
   inkscape:connector-curvature="0" />
	<path
   style="fill:#c0223d"
   d="m 183.721,87.334 c -1.083,1.361 -3.082,1.594 -4.443,0.512 l -79.522,-63.1 c -1.361,-1.082 -3.593,-1.082 -4.954,0 l -79.52,63.1 c -1.362,1.082 -3.361,0.85 -4.443,-0.512 l -5.412,-6.82 c -1.08,-1.361 -0.85,-3.36 0.512,-4.443 L 94.801,5.556 c 1.361,-1.08 3.593,-1.08 4.954,0 l 88.863,70.515 c 1.364,1.083 1.597,3.082 0.514,4.443 z"
   id="path22"
   inkscape:connector-curvature="0" />
	<path
   style="fill:#d8a567"
   d="M 111.439,74.754 V 57.81 c 0,-7.818 -6.338,-14.159 -14.159,-14.159 -7.819,0 -14.16,6.341 -14.16,14.159 v 16.944 z"
   id="path24"
   inkscape:connector-curvature="0" />
	<path
   style="fill:#e4bc90"
   d="M 83.12,57.81 V 74.754 H 97.28 V 43.65 c -7.819,0 -14.16,6.341 -14.16,14.16 z"
   id="path26"
   inkscape:connector-curvature="0" />
	<path
   style="fill:#c0223d"
   d="m 169.475,194.842 c 0,1.739 -1.423,3.163 -3.163,3.163 H 28.247 c -1.74,0 -3.163,-1.424 -3.163,-3.163 v -6.302 c 0,-1.739 1.423,-3.163 3.163,-3.163 h 138.065 c 1.74,0 3.163,1.424 3.163,3.163 z"
   id="path28"
   inkscape:connector-curvature="0" />
	<path
   style="fill:#a52025"
   d="m 54.263,194.842 v -6.302 c 0,-1.739 1.423,-3.163 3.163,-3.163 H 28.247 c -1.74,0 -3.163,1.424 -3.163,3.163 v 6.302 c 0,1.739 1.423,3.163 3.163,3.163 h 29.179 c -1.74,0 -3.163,-1.424 -3.163,-3.163 z"
   id="path30"
   inkscape:connector-curvature="0" />
	<path
   style="fill:#070308"
   d="m 50.783,130.949 c 0,25.638 20.859,46.496 46.497,46.496 25.637,0 46.496,-20.858 46.496,-46.496 0,-25.638 -20.859,-46.496 -46.496,-46.496 -25.638,0 -46.497,20.859 -46.497,46.496 z M 97.28,93.941 c 20.406,0 37.007,16.602 37.007,37.008 0,20.406 -16.601,37.007 -37.007,37.007 -20.407,0 -37.007,-16.601 -37.007,-37.007 0,-20.406 16.6,-37.008 37.007,-37.008 z"
   id="path32"
   inkscape:connector-curvature="0" />
	<path
   style="fill:#070308"
   d="m 94.005,134.381 c 0.882,0.846 2.056,1.313 3.274,1.313 l 0.113,-0.002 c 1.258,-0.03 2.454,-0.559 3.321,-1.471 l 12.652,-13.285 c 1.809,-1.897 1.735,-4.899 -0.163,-6.709 -1.895,-1.806 -4.9,-1.731 -6.707,0.166 l -9.377,9.845 -6.475,-6.175 c -1.895,-1.81 -4.9,-1.74 -6.709,0.158 -1.809,1.895 -1.737,4.897 0.158,6.706 z"
   id="path34"
   inkscape:connector-curvature="0" />
	<path
   style="fill:#070308"
   d="M 191.569,72.354 102.706,1.839 C 101.211,0.652 99.284,0 97.28,0 95.273,0 93.346,0.652 91.851,1.839 L 2.99,72.354 c -3.415,2.711 -3.991,7.692 -1.28,11.109 l 5.412,6.818 c 1.507,1.9 3.766,2.99 6.2,2.99 1.777,0 3.521,-0.608 4.91,-1.71 l 9.042,-7.174 V 180.7 c -3.902,0.481 -6.934,3.811 -6.934,7.841 v 6.299 c 0,4.361 3.548,7.907 7.908,7.907 h 20.271 v 50.907 h -1.09 c -4.362,0 -7.908,3.546 -7.908,7.907 v 34.972 c 0,4.361 3.546,7.907 7.908,7.907 H 59.1 c 4.359,0 7.908,-3.546 7.908,-7.907 v -5.538 c 0,-2.619 -2.125,-4.744 -4.745,-4.744 -2.622,0 -4.745,2.125 -4.745,4.744 v 3.956 H 49.01 V 263.14 h 8.508 v 5.081 c 0,2.619 2.123,4.744 4.745,4.744 2.619,0 4.745,-2.125 4.745,-4.744 v -6.66 c 0,-4.361 -3.549,-7.907 -7.908,-7.907 h -1.092 v -50.907 h 34.529 v 36.177 c -7.908,2.101 -13.754,9.318 -13.754,17.879 0,10.2 8.298,18.501 18.499,18.501 10.201,0 18.501,-8.301 18.501,-18.501 0,-8.561 -5.847,-15.778 -13.757,-17.879 v -36.177 h 34.529 v 70.357 h -1.09 c -4.361,0 -7.907,3.546 -7.907,7.907 v 34.971 c 0,4.362 3.546,7.908 7.907,7.908 h 11.668 c 4.362,0 7.908,-3.546 7.908,-7.908 v -34.971 c 0,-4.361 -3.546,-7.907 -7.908,-7.907 h -1.09 v -70.357 h 20.271 c 4.359,0 7.908,-3.546 7.908,-7.907 v -6.302 c 0,-4.027 -3.032,-7.356 -6.934,-7.841 V 136.01 c 0,-2.619 -2.123,-4.744 -4.744,-4.744 -2.62,0 -4.745,2.125 -4.745,4.744 v 44.623 h -78.23 c -2.62,0 -4.745,2.125 -4.745,4.744 0,2.622 2.125,4.745 4.745,4.745 h 85.164 v 3.138 H 29.828 v -3.138 h 26.964 c 2.622,0 4.745,-2.123 4.745,-4.745 0,-2.619 -2.123,-4.744 -4.745,-4.744 H 36.762 V 76.856 L 97.28,28.836 157.8,76.859 v 36.377 c 0,2.619 2.123,4.744 4.745,4.744 2.619,0 4.744,-2.125 4.744,-4.744 V 84.389 l 9.04,7.174 c 1.391,1.102 3.133,1.71 4.91,1.71 2.434,0 4.692,-1.09 6.2,-2.988 l 5.412,-6.82 c 2.709,-3.418 2.133,-8.4 -1.282,-11.111 z m -54.525,210.242 h 8.505 v 31.808 h -8.505 z m -30.753,-25.791 c 0,4.969 -4.045,9.012 -9.012,9.012 -4.97,0 -9.01,-4.043 -9.01,-9.012 0,-4.967 4.04,-9.01 9.01,-9.01 4.967,0 9.012,4.043 9.012,9.01 z M 180.988,83.146 102.706,21.03 c -1.495,-1.186 -3.422,-1.838 -5.426,-1.838 -2.007,0 -3.934,0.652 -5.429,1.838 L 13.571,83.146 10.126,78.804 97.28,9.646 184.433,78.804 Z"
   id="path36"
   inkscape:connector-curvature="0" />
	<path
   style="fill:#070308"
   d="m 111.439,79.498 c 2.622,0 4.745,-2.122 4.745,-4.744 V 57.81 c 0,-10.423 -8.481,-18.904 -18.904,-18.904 -10.423,0 -18.904,8.481 -18.904,18.904 v 16.944 c 0,2.622 2.123,4.744 4.745,4.744 z m -9.415,-29.807 c 2.79,1.637 4.67,4.658 4.67,8.118 v 12.199 h -4.67 z M 87.865,57.81 c 0,-3.46 1.883,-6.481 4.67,-8.118 v 20.317 h -4.67 z"
   id="path38"
   inkscape:connector-curvature="0" />
	<path
   style="fill:#070308"
   d="m 102.024,100.471 c 0,2.619 -2.123,4.744 -4.744,4.744 -2.62,0 -4.745,-2.125 -4.745,-4.744 0,-2.62 2.125,-4.745 4.745,-4.745 2.621,0 4.744,2.125 4.744,4.745 z"
   id="path40"
   inkscape:connector-curvature="0" />
	<path
   style="fill:#070308"
   d="m 102.024,160.377 c 0,2.622 -2.123,4.745 -4.744,4.745 -2.62,0 -4.745,-2.123 -4.745,-4.745 0,-2.619 2.125,-4.744 4.745,-4.744 2.621,0 4.744,2.125 4.744,4.744 z"
   id="path42"
   inkscape:connector-curvature="0" />
	<path
   style="fill:#070308"
   d="m 122.835,110.39 c 0,2.619 -2.125,4.744 -4.744,4.744 -2.62,0 -4.745,-2.125 -4.745,-4.744 0,-2.62 2.125,-4.745 4.745,-4.745 2.619,0 4.744,2.125 4.744,4.745 z"
   id="path44"
   inkscape:connector-curvature="0" />
	<path
   style="fill:#070308"
   d="m 81.21,110.39 c 0,2.619 -2.123,4.744 -4.745,4.744 -2.619,0 -4.744,-2.125 -4.744,-4.744 0,-2.62 2.125,-4.745 4.744,-4.745 2.622,0 4.745,2.125 4.745,4.745 z"
   id="path46"
   inkscape:connector-curvature="0" />
	<path
   style="fill:#070308"
   d="m 131.452,130.949 c 0,2.619 -2.125,4.744 -4.744,4.744 -2.62,0 -4.745,-2.125 -4.745,-4.744 0,-2.62 2.125,-4.745 4.745,-4.745 2.619,0 4.744,2.125 4.744,4.745 z"
   id="path48"
   inkscape:connector-curvature="0" />
	<path
   style="fill:#070308"
   d="m 72.593,130.949 c 0,2.619 -2.123,4.744 -4.745,4.744 -2.619,0 -4.744,-2.125 -4.744,-4.744 0,-2.62 2.125,-4.745 4.744,-4.745 2.623,0 4.745,2.125 4.745,4.745 z"
   id="path50"
   inkscape:connector-curvature="0" />
	<path
   style="fill:#070308"
   d="m 122.835,152.141 c 0,2.62 -2.125,4.745 -4.744,4.745 -2.62,0 -4.745,-2.125 -4.745,-4.745 0,-2.619 2.125,-4.744 4.745,-4.744 2.619,-0.001 4.744,2.124 4.744,4.744 z"
   id="path52"
   inkscape:connector-curvature="0" />
	<path
   style="fill:#070308"
   d="m 81.217,151.756 c 0,2.619 -2.125,4.744 -4.745,4.744 -2.619,0 -4.744,-2.125 -4.744,-4.744 0,-2.622 2.125,-4.745 4.744,-4.745 2.62,0 4.745,2.123 4.745,4.745 z"
   id="path54"
   inkscape:connector-curvature="0" />
</g>
</svg>