<?xml version="1.0" encoding="UTF-8" standalone="no"?>
<svg
   xmlns:dc="http://purl.org/dc/elements/1.1/"
   xmlns:cc="http://creativecommons.org/ns#"
   xmlns:rdf="http://www.w3.org/1999/02/22-rdf-syntax-ns#"
   xmlns:svg="http://www.w3.org/2000/svg"
   xmlns="http://www.w3.org/2000/svg"
   xmlns:sodipodi="http://sodipodi.sourceforge.net/DTD/sodipodi-0.dtd"
   xmlns:inkscape="http://www.inkscape.org/namespaces/inkscape"
   width="566.929"
   height="98.437"
   version="1.1"
   id="svg48"
   sodipodi:docname="logo_recent.svg"
   inkscape:version="0.92.4 5da689c313, 2019-01-14">
  <metadata
     id="metadata54">
    <rdf:RDF>
      <cc:Work
         rdf:about="">
        <dc:format>image/svg+xml</dc:format>
        <dc:type
           rdf:resource="http://purl.org/dc/dcmitype/StillImage" />
        <dc:title></dc:title>
      </cc:Work>
    </rdf:RDF>
  </metadata>
  <defs
     id="defs52" />
  <sodipodi:namedview
     pagecolor="#ffffff"
     bordercolor="#666666"
     borderopacity="1"
     objecttolerance="10"
     gridtolerance="10"
     guidetolerance="10"
     inkscape:pageopacity="0"
     inkscape:pageshadow="2"
     inkscape:window-width="1920"
     inkscape:window-height="1015"
     id="namedview50"
     showgrid="false"
     inkscape:zoom="1.3520277"
     inkscape:cx="252.88653"
     inkscape:cy="93.495238"
     inkscape:window-x="0"
     inkscape:window-y="0"
     inkscape:window-maximized="1"
     inkscape:current-layer="svg48" />
  <g
     fill-rule="evenodd"
     id="g46">
    <path
       d="M172.79476738 60.80198748h10.35525008v5.40671633h5.13180372v-5.223431h15.67032378v5.1317885h4.7652485v15.8536243h-4.7652485v5.49835896h-5.0401611v5.1318037h-5.13180373v5.0401611h-10.4468927v-5.0401611h-4.94851847V87.257967l-5.4067316.0323912v-5.0447754h-5.13180373V66.02541856h5.0401611z"
       id="path4" />
    <path
       fill="red"
       d="M172.89785388 66.0368777h10.25787787v5.34945115h5.24063508V66.1858008h15.55577813v15.73906337h-5.22344635v5.45253764h-5.4525376v5.0859825h-10.0345162v-5.1318038h-4.8568758v-5.3150737h-5.4067316z"
       id="path6" />
    <path
       fill="maroon"
       d="M183.23020094 87.3428563h10.0276254v5.119107h-10.0195276zm15.65886462.08036682h-5.62436374v-5.5098181l5.622515.0122231zm5.0675561-5.49744222l-5.06323218-.00305577.00763943-15.7578411 5.0674798.00305577z"
       id="path8" />
    <path
       fill="#f9f9f9"
       d="M172.8846071 66.03599153h5.48975695v10.8547467h-5.42824424z"
       id="path10" />
    <path
       d="M220.38610788 60.99540748h10.35525008v5.40671633h5.13180372v-5.223431h15.67032378v5.1317885h4.7652485v15.8536243h-4.7652485v5.49835896h-5.0401611v5.1318037h-5.13180373v5.0401611h-10.4468927v-5.0401611h-4.94851847V87.451387l-5.4067316.0323912v-5.0447754h-5.13180373V66.21883856h5.0401611z"
       id="path12" />
    <path
       fill="red"
       d="M220.48919438 66.2302977h10.25787787v5.34945115h5.24063508V66.3792208h15.55577813v15.73906337h-5.22344635v5.45253764h-5.4525376v5.0859825h-10.0345162v-5.1318038h-4.8568758v-5.3150737h-5.4067316z"
       id="path14" />
    <path
       fill="maroon"
       d="M230.82154144 87.5362763h10.0276254v5.119107h-10.0195276zm15.65886462.08036682h-5.62436374v-5.5098181l5.622515.0122231zm5.0675561-5.49744222l-5.06323218-.00305577.00763943-15.7578411 5.0674798.00305577z"
       id="path16" />
    <path
       fill="#f9f9f9"
       d="M220.4759476 66.22941153h5.48975695v10.8547467h-5.42824424z"
       id="path18" />
    <path
       d="M267.97746438 61.76748548h10.35525008v5.40671633h5.13180372v-5.223431h15.67032378v5.1317885h4.7652485v15.8536243h-4.7652485v5.49835896h-5.0401611v5.1318037h-5.13180373v5.0401611h-10.4468927v-5.0401611h-4.94851847V88.223465l-5.4067316.0323912v-5.0447754h-5.13180373V66.99091656h5.0401611z"
       id="path20" />
    <path
       fill="red"
       d="M268.08055088 67.0023757h10.25787787v5.34945115h5.24063508V67.1512988h15.55577813v15.73906337h-5.22344635v5.45253764h-5.4525376v5.0859825h-10.0345162v-5.1318038h-4.8568758v-5.3150737h-5.4067316z"
       id="path22" />
    <path
       fill="maroon"
       d="M278.41289794 88.3083543h10.0276254v5.119107h-10.0195276zm15.65886462.08036682h-5.62436374v-5.5098181l5.622515.0122231zm5.0675561-5.49744222l-5.06323218-.00305577.00763943-15.7578411 5.0674798.00305577z"
       id="path24" />
    <path
       fill="#f9f9f9"
       d="M268.0673041 67.00148953h5.48975695v10.8547467h-5.42824424z"
       id="path26" />
    <path
       d="M315.56881838 61.26748548h10.35525008v5.40671633h5.13180372v-5.223431h15.67032378v5.1317885h4.7652485v15.8536243h-4.7652485v5.49835896h-5.0401611v5.1318037h-5.13180373v5.0401611h-10.4468927v-5.0401611h-4.94851847V87.723465l-5.4067316.0323912v-5.0447754h-5.13180373V66.49091656h5.0401611z"
       id="path28" />
    <path
       fill="red"
       d="M315.67190488 66.5023757h10.25787787v5.34945115h5.24063508V66.6512988h15.55577813v15.73906337h-5.22344635v5.45253764h-5.4525376v5.0859825h-10.0345162v-5.1318038H321.15882v-5.3150737h-5.4067316z"
       id="path30" />
    <path
       fill="maroon"
       d="M326.00425194 87.8083543h10.0276254v5.119107h-10.0195276zm15.65886462.08036682h-5.62436374v-5.5098181l5.622515.0122231zm5.0675561-5.49744222l-5.06323218-.00305577.00763943-15.7578411 5.0674798.00305577z"
       id="path32" />
    <path
       fill="#f9f9f9"
       d="M315.6586581 66.50148953h5.48975695v10.8547467h-5.42824424z"
       id="path34" />
    <path
       d="M363.16015738 61.51748548h10.35525008v5.40671633h5.13180372v-5.223431h15.67032378v5.1317885h4.7652485v15.8536243h-4.7652485v5.49835896h-5.0401611v5.1318037h-5.13180373v5.0401611h-10.4468927v-5.0401611h-4.94851847V87.973465l-5.4067316.0323912v-5.0447754h-5.13180373V66.74091656h5.0401611z"
       id="path36" />
    <path
       fill="red"
       d="M363.26324388 66.7523757h10.25787787v5.34945115h5.24063508V66.9012988h15.55577813v15.73906337h-5.22344635v5.45253764h-5.4525376v5.0859825h-10.0345162v-5.1318038h-4.8568758v-5.3150737h-5.4067316z"
       id="path38" />
    <path
       fill="maroon"
       d="M373.59559094 88.0583543l5.0627738.01954167.00003057 5.1034813-5.0546913-.0039725z"
       id="path40" />
    <path
       fill="#f9f9f9"
       d="M363.2499971 66.75148953h5.48975695v10.8547467h-5.42824424z"
       id="path42" />
    <path
       fill="#f9f9f9"
       stroke-width=".65449893"
       d="M378.65567567 66.90183966h15.64900976v15.7136424h-5.22656324v5.4621389h-5.4531183v5.09375017h-4.9693283z"
       id="path44" />
  </g>
  <g
     aria-label="RECENT"
     style="font-style:normal;font-variant:normal;font-weight:normal;font-stretch:normal;font-size:60px;line-height:1.25;font-family:'04b';-inkscape-font-specification:'04b';letter-spacing:0px;word-spacing:0px;fill:#4c504e;fill-opacity:1;stroke:none"
     id="text58"
     transform="translate(-1.9433594e-6)">
    <path
       d="m 163.43004,7.5768756 h -3.52941 V 4.0474638 H 121.0771 v 3.5294118 h 7.05883 v 3.5294114 h -3.52942 v 3.529412 H 121.0771 V 7.5768756 h -3.52941 V 49.929817 h 3.52941 v 3.529412 h 17.64706 v -3.529412 h 3.52941 V 39.341581 h 3.52942 v 3.529412 h 3.52941 v 3.529412 h 3.52941 v 3.529412 h 3.52941 v 3.529412 h 7.05882 v -3.529412 h 3.52942 V 35.81217 h -3.52942 v -3.529412 h -3.52941 v -3.529412 h 3.52941 v -3.529412 h 3.52942 V 11.106287 h -3.52942 z M 152.84181,21.694523 h -10.58824 v -7.058824 h 10.58824 z"
       id="path843"
       inkscape:connector-curvature="0" />
    <path
       d="m 219.91442,4.0474638 h -42.35294 v 3.5294118 h 7.05882 v 3.5294114 h -3.52941 v 3.529412 h -3.52941 V 7.5768756 h -3.52941 V 49.929817 h 3.52941 v 3.529412 h 42.35294 v -3.529412 h 3.52941 v -7.058824 h -3.52941 v -3.529412 h -21.17647 v -7.058823 h 21.17647 v -3.529412 h 3.52941 v -3.529412 h -3.52941 v -3.529411 h -21.17647 v -7.058824 h 21.17647 v -3.529412 h 3.52941 V 7.5768756 h -3.52941 z"
       id="path845"
       inkscape:connector-curvature="0" />
    <path
       d="m 276.39879,4.0474638 h -38.82353 v 3.5294118 h 3.52942 v 3.5294114 h -3.52942 v 3.529412 h -3.52941 v -3.529412 h -3.52941 v 35.294118 h 3.52941 v 3.529412 h 3.52941 v 3.529412 h 38.82353 v -3.529412 h 3.52942 v -7.058824 h -3.52942 V 39.341581 H 255.22232 V 14.635699 h 21.17647 v -3.529412 h 3.52942 V 7.5768756 h -3.52942 z"
       id="path847"
       inkscape:connector-curvature="0" />
    <path
       d="m 332.88317,4.0474638 h -42.35294 v 3.5294118 h 7.05882 v 3.5294114 h -3.52941 v 3.529412 h -3.52941 V 7.5768756 h -3.52941 V 49.929817 h 3.52941 v 3.529412 h 42.35294 v -3.529412 h 3.52941 v -7.058824 h -3.52941 V 39.341581 H 311.7067 v -7.058823 h 21.17647 v -3.529412 h 3.52941 v -3.529412 h -3.52941 V 21.694523 H 311.7067 v -7.058824 h 21.17647 v -3.529412 h 3.52941 V 7.5768756 h -3.52941 z"
       id="path849"
       inkscape:connector-curvature="0" />
    <path
       d="M 389.36754,4.0474638 H 378.77931 V 7.5768756 H 375.2499 V 25.223934 h -3.52941 v -3.529411 h -3.52942 V 7.5768756 h -3.52941 V 4.0474638 H 347.0146 v 3.5294118 h 7.05883 v 3.5294114 h -3.52942 v 3.529412 H 347.0146 V 7.5768756 h -3.52941 V 49.929817 h 3.52941 v 3.529412 h 17.64706 v -3.529412 h 3.52941 V 35.81217 h 3.52942 v 3.529411 h 3.52941 v 10.588236 h 3.52941 v 3.529412 h 10.58823 v -3.529412 h 3.52942 V 7.5768756 h -3.52942 z"
       id="path851"
       inkscape:connector-curvature="0" />
    <path
       d="m 445.85192,4.0474638 h -42.35294 v 3.5294118 h 7.05882 v 3.5294114 h -3.52941 v 3.529412 h -3.52941 v 3.529412 h 10.58823 v 31.764706 h 3.52942 v 3.529412 h 14.11764 v -3.529412 h 3.52941 V 18.165111 h 10.58824 v -3.529412 h 3.52941 V 7.5768756 h -3.52941 z m -42.35294,3.5294118 h -3.52941 v 7.0588234 h 3.52941 z"
       id="path853"
       inkscape:connector-curvature="0" />
  </g>
</svg>
