<?xml version="1.0" encoding="UTF-8" standalone="no"?>
<svg
   xmlns:dc="http://purl.org/dc/elements/1.1/"
   xmlns:cc="http://creativecommons.org/ns#"
   xmlns:rdf="http://www.w3.org/1999/02/22-rdf-syntax-ns#"
   xmlns:svg="http://www.w3.org/2000/svg"
   xmlns="http://www.w3.org/2000/svg"
   xmlns:sodipodi="http://sodipodi.sourceforge.net/DTD/sodipodi-0.dtd"
   xmlns:inkscape="http://www.inkscape.org/namespaces/inkscape"
   viewBox="0 0 151.72889 257.87672"
   version="1.1"
   id="svg90"
   sodipodi:docname="controller.svg"
   width="151.72888"
   height="257.87671"
   inkscape:version="0.92.4 5da689c313, 2019-01-14">
  <metadata
     id="metadata96">
    <rdf:RDF>
      <cc:Work
         rdf:about="">
        <dc:format>image/svg+xml</dc:format>
        <dc:type
           rdf:resource="http://purl.org/dc/dcmitype/StillImage" />
      </cc:Work>
    </rdf:RDF>
  </metadata>
  <defs
     id="defs94" />
  <sodipodi:namedview
     pagecolor="#ffffff"
     bordercolor="#666666"
     borderopacity="1"
     objecttolerance="10"
     gridtolerance="10"
     guidetolerance="10"
     inkscape:pageopacity="0"
     inkscape:pageshadow="2"
     inkscape:window-width="471"
     inkscape:window-height="442"
     id="namedview92"
     showgrid="false"
     inkscape:zoom="0.91517565"
     inkscape:cx="75.864387"
     inkscape:cy="128.93985"
     inkscape:window-x="0"
     inkscape:window-y="0"
     inkscape:window-maximized="0"
     inkscape:current-layer="svg90" />
  <path
     d="m 43.364389,130.93385 a 45.084,45.084 0 0 0 0,-3.994 c 0,0 -0.421,-7.81 -1.276,-12.76 -1.346,-7.816 -3.565,-15.480003 -6.999,-22.671003 -4.427,-9.283 -12.056,-15.142 -21.375,-18.939 -3.9430001,-1.609 -7.5330001,-3.535 -9.8980001,-7.246 -4.74500004,-7.458 -4.982,-15.148 -1.175,-23.019 3.242,-6.711 8.0830001,-12.208 13.4990001,-17.195 13.201,-12.168 28.525,-20.3509999 46.199,-23.7449999 13.675,-2.627 27.022,-1.68900004 39.654001,4.811 8.572,4.4069999 14.85,11.2039999 20.049,19.1259999 8.96,13.66 15.213,28.565 20.145,44.061 4.069,12.778 6.959,25.832 8.421,39.160003 0.671,6.132 0.731,12.334 1.099,18.501 l 0.017,0.296 c 0.006,0.89 0.006,2.347 0,3.237 l -0.017,0.296 c -0.368,6.167 -0.429,12.369 -1.099,18.501 -1.462,13.327 -4.352,26.382 -8.421,39.16 -4.932,15.495 -11.184,30.401 -20.145,44.061 -5.199,7.922 -11.477,14.719 -20.049,19.126 -12.631001,6.5 -25.979001,7.438 -39.654001,4.811 -17.674,-3.394 -32.998,-11.577 -46.199,-23.745 -5.416,-4.987 -10.2560001,-10.483 -13.4990001,-17.195 -3.807,-7.871 -3.57000004,-15.561 1.175,-23.019 2.365,-3.711 5.955,-5.637 9.8980001,-7.246 9.318,-3.797 16.948,-9.656 21.375,-18.939 3.434,-7.191 5.653,-14.855 6.999,-22.671 0.856,-4.953 1.276,-12.763 1.276,-12.763 z"
     id="path2"
     inkscape:connector-curvature="0"
     style="fill:#20211d" />
  <path
     d="m 112.26439,228.66985 c 0.761,-4.851 0.333,-9.636 -0.338,-14.447 -3.015,-21.617 -13.267001,-39.538 -28.207001,-55.013 -6.006,-6.222 -13.221,-9.041 -22.066,-7.665 -11.714,1.815 -20.008,12.767 -17.739,24.38 0.63,3.227 2.143,6.338 3.595,9.339 2.214,4.594 5.012,8.925 7.054,13.589 4.821,11.013 9.434,22.121 13.947,33.26 3.999,9.858 10.811,14.714 21.476,14.915 11.487001,0.219 20.534001,-7.269 22.278001,-18.358 z m -41.988001,5.335 a 13.053,13.053 0 0 1 -0.731,-1.563 c -2.521,-6.404 -4.785,-12.914 -7.609,-19.176 -4.049,-8.996 -8.466,-17.825 -12.878,-26.654 -2.259,-4.518 -4.705,-8.865 -4.664,-14.174 0.086,-10.675 7.977,-19.076 18.622,-20.24 9.263,-1.014 16.171,2.92 21.99,9.445 9.091,10.191 16.882001,21.229 21.531001,34.243 2.309,6.48 5.365,18.783 5.214,27.159 0.313,5.91 -1.583,11.109 -5.733,16.338 -3.373,4.251 -9.893001,6.132 -14.835001,6.631 -0.368,0.035 -0.736,0.05 -1.104,0.05 -5.488,-0.028 -13.51,-0.759 -19.803,-12.059 z"
     id="path4"
     inkscape:connector-curvature="0"
     style="fill:#1a1b13" />
  <path
     d="m 90.077389,246.06185 c -5.486,-0.025 -13.509,-0.756 -19.802,-12.056 a 13.053,13.053 0 0 1 -0.731,-1.563 c -2.521,-6.404 -4.785,-12.914 -7.609,-19.176 -4.049,-8.996 -8.466,-17.825 -12.878,-26.654 -2.259,-4.518 -4.705,-8.865 -4.664,-14.174 0.086,-10.675 7.977,-19.076 18.622,-20.24 9.263,-1.014 16.171,2.92 21.99,9.445 9.091,10.191 16.882001,21.229 21.531001,34.243 2.309,6.48 5.365,18.783 5.214,27.159 0.313,5.91 -1.583,11.109 -5.733,16.338 -3.373,4.251 -9.893001,6.132 -14.835001,6.631 -0.368,0.031 -0.736,0.047 -1.105,0.047 z"
     id="path6"
     inkscape:connector-curvature="0"
     style="fill:#1e1f1a" />
  <path
     d="m 114.13539,194.48785 c -2.657,-5.718 -5.169,-11.507 -7.685,-17.291 -0.338,-0.777 -0.363,-1.689 -0.434,-2.027 0.035,-3.807 2.163,-6.364 5.456,-7.09 3.232,-0.711 5.794,0.514 7.216,3.651 2.441,5.375 4.861,10.766 7.16,16.206 2.083,4.926 -0.081,9.258 -4.836,9.999 -2.863,0.449 -5.652,-0.801 -6.877,-3.448 z"
     id="path8"
     inkscape:connector-curvature="0"
     style="fill:#1e1e18" />
  <path
     d="m 121.59039,193.73085 c -1.544,0.835 -3.372,0.457 -4.389,-1.892 -2.428,-5.075 -4.786,-10.185 -7.153,-15.29 -0.223,-0.482 -0.419,-0.997 -0.506,-1.517 -0.25,-1.496 0.65,-3.079 2.031,-3.547 1.472,-0.499 2.623,0.07 3.506,1.253 0.277,0.371 5.064,11.155 7.236,16.127 1.324,2.77 0.319,4.301 -0.725,4.866 z"
     id="path10"
     inkscape:connector-curvature="0"
     style="fill:#005fa6" />
  <g
     id="g14"
     style="fill:#acaaa8"
     transform="translate(3.8885729e-4,-1.5293964e-4)">
    <path
       d="m 122.017,175.175 a 1.501,1.501 0 0 1 -0.124,-0.48 0.956,0.956 0 0 1 0.052,-0.402 0.84,0.84 0 0 1 0.203,-0.32 c 0.092,-0.092 0.204,-0.168 0.337,-0.229 l 0.185,0.436 a 0.619,0.619 0 0 0 -0.197,0.156 0.605,0.605 0 0 0 -0.101,0.197 0.609,0.609 0 0 0 -0.015,0.222 c 0.01,0.076 0.032,0.153 0.064,0.229 a 0.882,0.882 0 0 0 0.106,0.191 0.652,0.652 0 0 0 0.128,0.129 0.36,0.36 0 0 0 0.142,0.057 0.29,0.29 0 0 0 0.147,-0.021 c 0.05,-0.021 0.087,-0.051 0.112,-0.088 0.025,-0.037 0.041,-0.088 0.046,-0.15 a 0.938,0.938 0 0 0 -0.009,-0.231 4.679,4.679 0 0 0 -0.059,-0.335 2.41,2.41 0 0 1 -0.043,-0.4 0.957,0.957 0 0 1 0.04,-0.307 0.573,0.573 0 0 1 0.132,-0.223 0.66,0.66 0 0 1 0.23,-0.152 0.652,0.652 0 0 1 0.306,-0.056 0.695,0.695 0 0 1 0.298,0.086 0.978,0.978 0 0 1 0.263,0.217 c 0.081,0.093 0.148,0.206 0.205,0.339 0.058,0.137 0.094,0.271 0.104,0.4 a 0.945,0.945 0 0 1 -0.036,0.363 0.823,0.823 0 0 1 -0.176,0.303 0.933,0.933 0 0 1 -0.316,0.224 l -0.183,-0.432 c 0.261,-0.147 0.328,-0.372 0.201,-0.671 -0.062,-0.146 -0.135,-0.247 -0.216,-0.304 -0.081,-0.057 -0.166,-0.066 -0.252,-0.03 a 0.183,0.183 0 0 0 -0.08,0.064 0.259,0.259 0 0 0 -0.036,0.111 0.67,0.67 0 0 0 0,0.168 c 0.007,0.065 0.019,0.144 0.038,0.232 0.016,0.079 0.029,0.16 0.044,0.242 0.015,0.084 0.024,0.167 0.03,0.25 0.005,0.084 0.003,0.166 -0.006,0.244 a 0.789,0.789 0 0 1 -0.062,0.226 0.618,0.618 0 0 1 -0.134,0.192 0.705,0.705 0 0 1 -0.229,0.146 0.761,0.761 0 0 1 -0.333,0.063 0.8,0.8 0 0 1 -0.318,-0.09 0.98,0.98 0 0 1 -0.278,-0.223 1.346,1.346 0 0 1 -0.21,-0.343 z m 3.367,2.283 -0.318,-0.748 -1.993,0.846 -0.191,-0.451 1.993,-0.846 -0.316,-0.746 0.415,-0.176 0.826,1.945 z m -0.969,3.26 -0.213,-0.501 0.577,-0.557 -0.358,-0.842 -0.795,0.041 -0.202,-0.476 2.801,-0.097 0.182,0.428 z m 0.687,-1.358 0.64,-0.616 -0.881,0.048 z m 0.309,3.705 -0.205,-0.484 0.558,-0.508 a 0.526,0.526 0 0 0 0.155,-0.258 0.487,0.487 0 0 0 -0.023,-0.299 l -0.205,-0.482 -0.968,0.411 -0.191,-0.449 2.408,-1.022 0.458,1.079 c 0.027,0.064 0.053,0.126 0.074,0.186 a 0.868,0.868 0 0 1 0.066,0.351 0.648,0.648 0 0 1 -0.1,0.33 0.676,0.676 0 0 1 -0.101,0.13 0.9,0.9 0 0 1 -0.27,0.185 0.71,0.71 0 0 1 -0.79,-0.136 0.896,0.896 0 0 1 -0.264,0.408 z m 0.694,-2.208 0.253,0.598 c 0.034,0.081 0.068,0.147 0.104,0.2 a 0.382,0.382 0 0 0 0.115,0.118 0.251,0.251 0 0 0 0.134,0.038 0.454,0.454 0 0 0 0.161,-0.039 c 0.107,-0.045 0.172,-0.111 0.194,-0.2 0.021,-0.088 0.003,-0.201 -0.056,-0.339 l -0.273,-0.645 z m 2.227,3.548 -0.317,-0.749 -1.993,0.847 -0.191,-0.451 1.993,-0.846 -0.316,-0.746 0.415,-0.176 0.825,1.945 z"
       id="path12"
       inkscape:connector-curvature="0" />
  </g>
  <path
     d="m 81.609389,97.436847 c -21.988,0 -39.813,-17.795 -39.813,-39.746 0,-21.951 17.825,-39.746 39.813,-39.746 21.988001,0 39.813001,17.795 39.813001,39.746 0,21.951 -17.825,39.746 -39.813001,39.746 z m 32.263001,-39.747 c 0,-17.79 -14.451001,-32.211 -32.278001,-32.211 -17.827,0 -32.277,14.422 -32.277,32.211 0,17.789 14.451,32.211 32.278,32.211 17.827,0 32.277001,-14.421 32.277001,-32.211 z"
     id="path16"
     inkscape:connector-curvature="0"
     style="fill:#1e1e18" />
  <g
     id="g30"
     style="fill:#aaa7a6"
     transform="translate(3.8885729e-4,-1.5293964e-4)">
    <path
       d="m 120.797,57.69 -6.193,-2.846 v 5.693 z"
       id="path18"
       inkscape:connector-curvature="0" />
    <circle
       cx="106.058"
       cy="31.572001"
       r="1.3329999"
       id="circle20" />
    <circle
       cx="106.058"
       cy="83.808998"
       r="1.3329999"
       id="circle22" />
    <circle
       cx="57.160999"
       cy="83.808998"
       r="1.3329999"
       id="circle24" />
    <circle
       cx="57.160999"
       cy="31.572001"
       r="1.3329999"
       id="circle26" />
    <path
       d="m 81.609,18.503 -2.846,6.193 h 5.693 z m -39.187,39.187 6.193,2.847 v -5.693 z m 39.367,39.188 2.846,-6.193 h -5.692 z"
       id="path28"
       inkscape:connector-curvature="0" />
  </g>
  <path
     d="m 74.416389,231.45385 c -3.187,-7.982 -6.066,-16.101 -9.581,-23.931 -3.736,-8.325 -7.992,-16.423 -12.162,-24.547 -3.187,-6.308 -3.041,-8.391 -2.204,-13.221 0.61,-3.51 4.009,-9.021 8.618,-11.204 2.541,-1.205 5.36,-1.745 8.159,-1.477 6.369,0.615 10.095,3.913 12.818,8.073 10.009,15.284 17.25,31.868 23.473001,48.952 1.074,2.95 2.284,5.95 2.718,9.026 1.422,10.06 -5.718,18.294 -15.909001,18.712 -7.832,0.317 -12.996,-3.026 -15.93,-10.383 z"
     id="path32"
     inkscape:connector-curvature="0"
     style="fill:#1a1b15" />
  <circle
     cx="79.164391"
     cy="200.26184"
     r="11.48"
     id="circle34"
     style="fill:#181811" />
  <circle
     cx="79.164391"
     cy="200.26184"
     r="9.9499998"
     id="circle36"
     style="fill:#2c2b25" />
  <path
     d="m 80.334389,202.61485 c 0.225,0.24 0.563,0.274 1.011,0.113 l 0.387,-0.173 c 0.754,-0.356 0.92,-0.974 0.507,-1.849 l -1.866,-3.953 -0.745,0.342 -3.011,1.422 -0.75,0.364 1.866,3.953 c 0.413,0.875 1,1.137 1.75,0.783 l 0.379,-0.189 c 0.331,-0.207 0.489,-0.475 0.472,-0.813 z m -1.828,-0.075 -0.242,-0.512 -1.292,-2.757 1.129,-0.533 1.316,2.786 0.218,0.483 c 0.157,0.333 0.049,0.588 -0.322,0.763 -0.379,0.18 -0.649,0.104 -0.807,-0.23 z m 1.891,-0.892 -1.542,-3.265 1.129,-0.533 1.542,3.265 c 0.157,0.333 0.044,0.59 -0.335,0.769 -0.374,0.177 -0.636,0.097 -0.794,-0.236 z"
     id="path38"
     inkscape:connector-curvature="0"
     style="fill:#c43c0d" />
  <circle
     cx="73.862389"
     cy="202.86485"
     r="1.063"
     id="circle40"
     style="fill:#1e1e18" />
  <circle
     cx="66.129387"
     cy="174.02885"
     r="11.48"
     id="circle42"
     style="fill:#181811" />
  <circle
     cx="66.129387"
     cy="174.02885"
     r="9.9499998"
     id="circle44"
     style="fill:#2c2b25" />
  <path
     d="m 66.599389,178.20685 -0.408,-0.855 0.896,-1.378 -1.547,-3.242 -1.617,-0.133 -0.426,-0.892 5.667,0.488 0.601,1.259 z m 1.029,-2.906 1.272,-1.879 -0.263,-0.552 -2.223,-0.114 z"
     id="path46"
     inkscape:connector-curvature="0"
     style="fill:#c43c0d" />
  <circle
     cx="90.010391"
     cy="226.39384"
     r="11.48"
     id="circle48"
     style="fill:#181811" />
  <circle
     cx="90.010391"
     cy="226.39384"
     r="9.9499998"
     id="circle50"
     style="fill:#2c2b25" />
  <path
     d="m 91.791389,227.63885 -0.791,-1.919 c -0.524,-1.287 -0.992,-0.964 -2.018,-0.543 -1.026,0.421 -1.585,0.515 -1.059,1.799 l 1.391,3.395 -0.77,0.315 -1.393,-3.39 c -0.737,-1.793 -0.029,-2.249 1.511,-2.879 1.54,-0.631 2.37,-0.813 3.104,0.966 l 1.397,3.411 -0.764,0.313 z"
     id="path52"
     inkscape:connector-curvature="0"
     style="fill:#c43c0d" />
  <g
     id="g56"
     style="fill:#acaaa8"
     transform="translate(3.8885729e-4,-1.5293964e-4)">
    <path
       d="m 96.664,183.864 -0.431,-0.934 -2.486,1.146 -0.26,-0.563 2.487,-1.146 -0.428,-0.93 0.516,-0.238 1.118,2.427 z m -1.084,4.191 -0.278,-0.604 0.686,-0.662 a 0.665,0.665 0 0 0 0.196,-0.52 0.536,0.536 0 0 0 -0.05,-0.189 l -0.277,-0.602 -1.208,0.556 -0.258,-0.56 3.004,-1.384 0.619,1.346 c 0.037,0.08 0.071,0.157 0.101,0.232 a 1.245,1.245 0 0 1 0.097,0.441 0.761,0.761 0 0 1 -0.031,0.227 0.938,0.938 0 0 1 -0.205,0.362 c -0.047,0.05 -0.099,0.096 -0.156,0.138 a 0.997,0.997 0 0 1 -0.178,0.104 0.904,0.904 0 0 1 -0.533,0.086 0.937,0.937 0 0 1 -0.47,-0.228 c -0.038,0.173 -0.146,0.349 -0.319,0.526 z m 0.792,-2.814 0.344,0.745 c 0.047,0.101 0.092,0.184 0.14,0.249 0.047,0.065 0.097,0.113 0.149,0.145 0.052,0.032 0.109,0.045 0.171,0.042 a 0.545,0.545 0 0 0 0.202,-0.054 c 0.133,-0.063 0.212,-0.148 0.236,-0.261 0.023,-0.112 -0.003,-0.255 -0.082,-0.428 l -0.37,-0.803 z m -0.278,3.932 -0.257,-0.557 3.003,-1.384 0.258,0.558 z m 0.877,2.03 a 1.71,1.71 0 0 1 -0.163,-0.647 1.436,1.436 0 0 1 0.104,-0.604 c 0.077,-0.19 0.193,-0.364 0.352,-0.522 0.159,-0.158 0.354,-0.291 0.587,-0.398 0.238,-0.109 0.468,-0.174 0.691,-0.19 0.223,-0.016 0.432,0.007 0.624,0.073 0.191,0.064 0.365,0.17 0.52,0.313 0.153,0.145 0.28,0.323 0.378,0.537 a 1.7,1.7 0 0 1 0.154,0.538 c 0.021,0.18 0.011,0.349 -0.028,0.51 a 1.224,1.224 0 0 1 -0.596,0.782 l -0.266,-0.575 c 0.089,-0.051 0.161,-0.11 0.216,-0.182 0.055,-0.072 0.091,-0.15 0.111,-0.238 0.02,-0.088 0.023,-0.182 0.009,-0.282 a 1.124,1.124 0 0 0 -0.098,-0.316 c -0.06,-0.13 -0.138,-0.239 -0.233,-0.325 -0.095,-0.086 -0.205,-0.147 -0.331,-0.184 a 1.045,1.045 0 0 0 -0.411,-0.029 1.569,1.569 0 0 0 -0.476,0.143 1.535,1.535 0 0 0 -0.412,0.267 c -0.11,0.103 -0.193,0.214 -0.248,0.333 -0.055,0.119 -0.081,0.243 -0.079,0.373 0.002,0.13 0.033,0.261 0.093,0.392 0.087,0.187 0.187,0.334 0.303,0.442 0.116,0.106 0.253,0.18 0.411,0.217 l 0.314,-0.145 -0.343,-0.744 0.517,-0.238 0.598,1.298 -1.621,0.746 -0.198,-0.431 0.183,-0.17 a 1.159,1.159 0 0 1 -0.367,-0.28 1.894,1.894 0 0 1 -0.295,-0.464 z m 1.545,3.354 c -0.101,-0.218 -0.154,-0.434 -0.162,-0.647 -0.008,-0.213 0.026,-0.415 0.103,-0.604 0.077,-0.19 0.194,-0.363 0.353,-0.522 a 1.97,1.97 0 0 1 0.587,-0.398 c 0.237,-0.109 0.468,-0.173 0.69,-0.19 a 1.458,1.458 0 0 1 1.145,0.386 c 0.153,0.145 0.279,0.323 0.378,0.537 0.082,0.179 0.134,0.358 0.154,0.538 0.021,0.179 0.011,0.35 -0.029,0.511 -0.04,0.162 -0.11,0.31 -0.209,0.444 -0.1,0.134 -0.229,0.247 -0.387,0.337 l -0.265,-0.575 a 0.715,0.715 0 0 0 0.215,-0.182 c 0.055,-0.07 0.091,-0.149 0.111,-0.237 0.02,-0.088 0.023,-0.183 0.009,-0.283 a 1.164,1.164 0 0 0 -0.097,-0.316 c -0.061,-0.13 -0.139,-0.239 -0.234,-0.325 -0.095,-0.086 -0.205,-0.147 -0.33,-0.184 -0.125,-0.037 -0.263,-0.046 -0.412,-0.028 a 1.556,1.556 0 0 0 -0.475,0.141 1.529,1.529 0 0 0 -0.412,0.268 1.064,1.064 0 0 0 -0.248,0.333 c -0.055,0.118 -0.082,0.243 -0.08,0.373 0.002,0.13 0.033,0.261 0.094,0.392 0.086,0.188 0.186,0.334 0.302,0.442 a 0.918,0.918 0 0 0 0.411,0.217 l 0.314,-0.145 -0.342,-0.744 0.516,-0.238 0.598,1.298 -1.621,0.746 -0.198,-0.432 0.184,-0.17 a 1.159,1.159 0 0 1 -0.368,-0.279 1.857,1.857 0 0 1 -0.295,-0.464 z m 2.036,4.294 -1.058,-2.295 3.004,-1.384 1.027,2.23 -0.517,0.238 -0.769,-1.67 -0.68,0.313 0.721,1.563 -0.513,0.235 -0.72,-1.563 -0.779,0.359 0.799,1.735 z m 1.466,3.182 -0.278,-0.604 0.685,-0.662 a 0.685,0.685 0 0 0 0.186,-0.332 0.623,0.623 0 0 0 -0.04,-0.378 l -0.277,-0.601 -1.207,0.556 -0.258,-0.56 3.004,-1.383 0.619,1.344 c 0.037,0.081 0.07,0.158 0.101,0.232 a 1.255,1.255 0 0 1 0.097,0.442 0.759,0.759 0 0 1 -0.031,0.226 1.034,1.034 0 0 1 -0.081,0.193 0.993,0.993 0 0 1 -0.279,0.308 1.041,1.041 0 0 1 -0.179,0.104 0.911,0.911 0 0 1 -0.533,0.085 0.943,0.943 0 0 1 -0.47,-0.227 c -0.039,0.173 -0.146,0.348 -0.319,0.525 z m 0.792,-2.815 0.344,0.746 c 0.046,0.101 0.092,0.184 0.14,0.248 a 0.518,0.518 0 0 0 0.148,0.145 c 0.054,0.031 0.11,0.045 0.172,0.043 a 0.525,0.525 0 0 0 0.201,-0.055 c 0.135,-0.062 0.213,-0.148 0.237,-0.261 0.023,-0.111 -0.003,-0.254 -0.083,-0.427 l -0.369,-0.803 z"
       id="path54"
       inkscape:connector-curvature="0" />
  </g>
  <ellipse
     cx="81.60939"
     cy="57.689846"
     rx="32.278"
     ry="32.210999"
     id="ellipse58"
     style="fill:#20211d" />
  <path
     d="m 81.724389,32.586847 c 13.954,0.017 25.032001,11.18 25.002001,25.194 -0.029,13.743 -11.350001,25.041 -25.065001,25.013 -13.858,-0.028 -25.189,-11.363 -25.168,-25.177 0.021,-13.878 11.279,-25.048 25.231,-25.03 z m 23.638001,25.125 c 0.013,-13.322 -10.287001,-23.708 -23.563001,-23.759 -13.363,-0.051 -23.908,10.37 -23.931,23.648 -0.022,13.283 10.505,23.811 23.815,23.819 13.153,0.008 23.666001,-10.517 23.679001,-23.708 z"
     id="path60"
     inkscape:connector-curvature="0"
     style="fill:#0a0a0a" />
  <path
     d="m 105.35639,57.715847 c 0.013,-13.322 -10.287001,-23.708 -23.563001,-23.759 -13.363,-0.051 -23.908,10.37 -23.931,23.648 -0.022,13.283 10.505,23.811 23.815,23.819 13.153,0.008 23.666001,-10.518 23.679001,-23.708 z"
     id="path62"
     inkscape:connector-curvature="0"
     style="fill:#373735" />
  <g
     id="g66"
     style="fill:#292b27"
     transform="translate(3.8885729e-4,-1.5293964e-4)">
    <path
       d="m 96.614,42.661 -3.682,1.763 1.919,1.919 z m -29.876,0 1.764,3.682 1.919,-1.919 z m -0.134,29.791 3.683,-1.764 -1.919,-1.919 z m 29.838,0.268 -1.764,-3.683 -1.919,1.919 z"
       id="path64"
       inkscape:connector-curvature="0" />
  </g>
  <path
     d="m 81.609389,79.804847 a 104.175,104.175 0 0 1 -3.214,-0.04 c -1.624,-0.05 -2.355,-0.892 -2.476,-2.541 -0.156,-2.133 -0.358,-4.286 -0.832,-6.364 -0.817,-3.6 -3.167,-5.89 -6.762,-6.691 -1.956,-0.439 -3.973,-0.64 -5.97,-0.812 -2.173,-0.187 -2.788,-0.645 -2.859,-2.763 a 87.736,87.736 0 0 1 -0.052,-2.903 c 10e-4,-0.969 0.018,-1.937 0.052,-2.903 0.071,-2.118 0.686,-2.577 2.859,-2.763 1.997,-0.171 4.014,-0.373 5.97,-0.812 3.595,-0.802 5.945,-3.091 6.762,-6.691 0.474,-2.077 0.676,-4.231 0.832,-6.364 0.121,-1.649 0.852,-2.491 2.476,-2.541 1.067,-0.034 2.141,-0.039 3.214,-0.04 1.072,10e-4 2.147,0.006 3.214,0.04 1.624,0.05 2.355,0.892 2.476,2.541 0.156,2.133 0.358,4.286 0.832,6.364 0.817,3.6 3.167,5.89 6.762,6.691 1.956,0.439 3.973,0.64 5.970001,0.812 2.173,0.187 2.788,0.645 2.859,2.763 0.034,0.966 0.05,1.935 0.052,2.903 a 85.034,85.034 0 0 1 -0.052,2.903 c -0.071,2.118 -0.686,2.577 -2.859,2.763 -1.997001,0.171 -4.014001,0.373 -5.970001,0.812 -3.595,0.802 -5.945,3.091 -6.762,6.691 -0.474,2.077 -0.676,4.231 -0.832,6.364 -0.121,1.649 -0.852,2.491 -2.476,2.541 -1.067,0.034 -2.141,0.039 -3.214,0.04 z"
     id="path68"
     inkscape:connector-curvature="0"
     style="fill:#1d1d17" />
  <g
     id="g74"
     style="fill:#26261f"
     transform="translate(3.8885729e-4,-1.5293964e-4)">
    <path
       d="M 86.284,36.716 V 78.664 H 76.85 V 36.716 Z"
       id="path70"
       inkscape:connector-curvature="0" />
    <path
       d="m 60.635,52.973 h 41.948 v 9.434 H 60.635 Z"
       id="path72"
       inkscape:connector-curvature="0" />
  </g>
  <path
     d="m 81.612389,62.336847 a 4.6465,4.6465 0 1 1 0,-9.293 4.646,4.646 0 0 1 4.644,4.649 4.642,4.642 0 0 1 -4.644,4.644 z"
     id="path76"
     inkscape:connector-curvature="0"
     style="fill:#1a1b15" />
  <g
     id="g84"
     style="fill:#acaaa8"
     transform="translate(3.8885729e-4,-1.5293964e-4)">
    <path
       d="m 83.422,143.941 v -4.783 h 1.119 v 3.278 c 0.721,-0.238 1.308,-0.436 1.897,-0.626 1.468,-0.475 2.948,-0.92 4.398,-1.442 0.351,-0.127 0.786,-0.468 0.858,-0.78 0.122,-0.525 -0.423,-0.696 -0.874,-0.842 -2.249,-0.727 -4.492,-1.475 -6.749,-2.179 -0.53,-0.165 -0.709,-0.407 -0.695,-0.94 0.04,-1.467 0.004,-2.936 0.017,-4.404 0.013,-1.487 0.987,-2.46 2.526,-2.493 a 94.669,94.669 0 0 1 4.162,0 c 1.564,0.036 2.515,0.978 2.537,2.48 0.019,1.323 0.004,2.647 0.004,4.017 h -1.178 v -3.399 c 0,-1.595 -0.385,-1.962 -2.067,-1.962 -1.047,0 -2.094,-0.005 -3.14,10e-4 -1.12,0.006 -1.665,0.516 -1.677,1.57 -0.009,0.855 -0.002,1.711 -0.002,2.611 h 3.651 v -2.177 h 1.136 v 3.393 h -4.81 l -0.022,0.185 c 2.211,0.718 4.423,1.437 6.635,2.152 1.265,0.409 1.779,1.163 1.592,2.378 -0.104,0.676 -0.498,1.177 -1.168,1.398 -2.656,0.879 -5.321,1.731 -7.984,2.59 -0.039,0.014 -0.093,-0.013 -0.166,-0.026 z m -0.024,-29.974 h 1.164 c 0,1.276 -0.014,2.527 0.004,3.778 0.015,1.047 0.775,1.83 1.769,1.867 0.972,0.037 1.804,-0.738 1.876,-1.767 0.029,-0.418 -0.011,-0.842 0.034,-1.257 0.069,-0.64 0.673,-1.107 1.37,-1.106 0.707,0.001 1.339,0.462 1.357,1.108 0.04,1.368 0.012,2.738 0.012,4.144 h -1.152 v -2.082 -1.941 l -0.387,-0.004 c -0.017,0.384 -0.041,0.767 -0.05,1.151 -0.033,1.446 -0.876,2.491 -2.307,2.851 -1.748,0.44 -3.607,-0.814 -3.679,-2.541 -0.056,-1.37 -0.011,-2.744 -0.011,-4.201 z"
       id="path78"
       inkscape:connector-curvature="0" />
    <path
       d="m 85.019,113.956 h 1.203 v 4.037 l 0.338,0.001 c 0.017,-0.412 0.041,-0.823 0.048,-1.235 0.02,-1.156 0.573,-2.015 1.638,-2.522 1.084,-0.516 2.17,-0.437 3.166,0.243 0.683,0.466 1.147,1.11 1.173,1.922 0.046,1.418 0.013,2.839 0.013,4.314 h -1.154 c 0,-1.274 0.021,-2.549 -0.006,-3.823 -0.027,-1.265 -1.208,-2.086 -2.398,-1.704 -0.716,0.23 -1.196,0.886 -1.246,1.727 -0.023,0.395 0.006,0.794 -0.034,1.187 -0.065,0.637 -0.666,1.121 -1.354,1.128 -0.688,0.007 -1.357,-0.475 -1.375,-1.098 -0.038,-1.369 -0.012,-2.74 -0.012,-4.177 z m 7.563,14.184 h -1.138 v -3.761 c -0.001,-1.314 -0.466,-1.772 -1.826,-1.78 a 239.687,239.687 0 0 0 -3.284,0.005 c -1.264,0.009 -1.772,0.495 -1.776,1.686 -0.003,1.253 -0.001,2.505 -0.001,3.805 h -1.169 c 0,-0.935 -0.002,-1.855 10e-4,-2.776 0.002,-0.582 -0.019,-1.166 0.022,-1.746 0.075,-1.068 1.074,-2.04 2.192,-2.067 a 101.7,101.7 0 0 1 4.815,-0.001 c 1.027,0.023 2.085,0.891 2.14,1.873 0.088,1.573 0.024,3.153 0.024,4.762 z m -9.133,8.606 c 2.507,0.811 4.959,1.6 7.404,2.408 a 0.743,0.743 0 0 1 0.416,0.398 c 0.032,0.089 -0.159,0.338 -0.298,0.384 -1.96,0.659 -3.929,1.296 -5.951,1.956 v -2.74 l 0.808,-0.085 0.043,-0.118 c -0.454,-0.156 -0.906,-0.316 -1.362,-0.468 -1.207,-0.399 -1.208,-0.398 -1.06,-1.735 z m 2.895,2.342 v 0.961 l 1.25,-0.403 -0.01,-0.166 z m 0.118,-6.414 0.236,-0.808 h 1.034 v 1.777 h -2.709 c 0,-0.908 -0.052,-1.812 0.035,-2.703 0.023,-0.232 0.469,-0.596 0.734,-0.607 1.458,-0.061 2.92,-0.043 4.38,-0.026 0.512,0.006 0.812,0.306 0.817,0.8 0.013,1.35 0.004,2.7 0.004,4.11 h -1.158 c 0,-1.015 -0.029,-2.012 0.011,-3.006 0.024,-0.61 -0.199,-0.845 -0.842,-0.806 -0.679,0.041 -1.363,0.003 -2.044,0.011 -0.812,0.009 -1.008,0.385 -0.498,1.258 z"
       id="path80"
       inkscape:connector-curvature="0" />
    <path
       d="m 86.266,124.246 c -0.234,1.254 0.011,2.553 -0.136,3.853 h -1.105 c 0,-1.487 -0.036,-2.945 0.037,-4.398 0.012,-0.232 0.485,-0.579 0.791,-0.632 0.586,-0.101 1.205,-0.029 1.872,-0.029 v 4.138 h -1.092 v -2.893 z m 4.717,3.895 h -1.097 c -0.183,-1.29 0.117,-2.613 -0.163,-3.881 l -0.302,0.013 v 2.907 h -1.146 v -4.127 c 0.672,0 1.374,-0.058 2.055,0.031 0.244,0.032 0.615,0.411 0.624,0.643 0.058,1.458 0.029,2.92 0.029,4.414 z"
       id="path82"
       inkscape:connector-curvature="0" />
  </g>
  <g
     id="g88"
     style="fill:#acaaa8"
     transform="translate(3.8885729e-4,-1.5293964e-4)">
    <path
       d="m 138.317,88.427 a 0.606,0.606 0 0 0 0.364,-0.299 0.63,0.63 0 0 0 0.065,-0.232 0.812,0.812 0 0 0 -0.02,-0.262 c -0.03,-0.128 -0.078,-0.237 -0.146,-0.329 -0.068,-0.092 -0.153,-0.163 -0.255,-0.215 -0.103,-0.052 -0.221,-0.082 -0.356,-0.091 -0.135,-0.009 -0.283,0.006 -0.445,0.045 a 1.518,1.518 0 0 0 -0.418,0.16 0.951,0.951 0 0 0 -0.278,0.238 0.722,0.722 0 0 0 -0.136,0.301 0.822,0.822 0 0 0 0.011,0.351 c 0.022,0.094 0.055,0.177 0.099,0.249 0.044,0.072 0.098,0.131 0.163,0.178 0.065,0.047 0.138,0.078 0.22,0.096 0.082,0.018 0.173,0.02 0.273,0.007 l 0.127,0.561 a 1.312,1.312 0 0 1 -0.488,-0.02 1.078,1.078 0 0 1 -0.398,-0.185 1.175,1.175 0 0 1 -0.296,-0.326 c -0.08,-0.13 -0.14,-0.279 -0.179,-0.444 a 1.53,1.53 0 0 1 -0.028,-0.594 c 0.031,-0.186 0.096,-0.353 0.197,-0.503 0.101,-0.15 0.235,-0.279 0.404,-0.387 0.169,-0.108 0.366,-0.19 0.592,-0.245 0.227,-0.054 0.439,-0.071 0.639,-0.049 0.2,0.022 0.379,0.078 0.537,0.168 0.159,0.09 0.293,0.213 0.404,0.368 0.111,0.155 0.191,0.339 0.24,0.551 0.037,0.161 0.047,0.318 0.03,0.472 -0.017,0.154 -0.059,0.297 -0.126,0.428 a 1.155,1.155 0 0 1 -0.67,0.574 41.342,41.342 0 0 0 -0.126,-0.566 z m 1.586,2.231 c 0.044,0.208 0.049,0.408 0.015,0.599 a 1.335,1.335 0 0 1 -0.619,0.912 c -0.17,0.109 -0.367,0.187 -0.591,0.233 a 1.752,1.752 0 0 1 -0.63,0.021 1.42,1.42 0 0 1 -0.534,-0.195 1.345,1.345 0 0 1 -0.401,-0.384 1.51,1.51 0 0 1 -0.231,-0.548 c -0.044,-0.207 -0.049,-0.406 -0.014,-0.594 a 1.357,1.357 0 0 1 0.616,-0.91 c 0.168,-0.11 0.364,-0.19 0.586,-0.239 0.225,-0.05 0.437,-0.06 0.637,-0.029 a 1.35,1.35 0 0 1 0.938,0.583 c 0.108,0.159 0.184,0.344 0.228,0.551 z m -2.51,0.533 a 0.877,0.877 0 0 0 0.143,0.331 0.802,0.802 0 0 0 0.258,0.23 0.966,0.966 0 0 0 0.356,0.11 c 0.135,0.016 0.281,0.007 0.441,-0.026 0.161,-0.033 0.299,-0.085 0.416,-0.154 0.117,-0.069 0.21,-0.151 0.28,-0.246 0.07,-0.095 0.116,-0.199 0.139,-0.314 0.023,-0.115 0.021,-0.234 -0.005,-0.357 a 0.893,0.893 0 0 0 -0.143,-0.333 0.811,0.811 0 0 0 -0.258,-0.233 c -0.103,-0.059 -0.222,-0.096 -0.357,-0.112 -0.135,-0.016 -0.281,-0.006 -0.439,0.028 a 1.372,1.372 0 0 0 -0.413,0.157 c -0.116,0.07 -0.209,0.152 -0.28,0.247 -0.071,0.095 -0.118,0.199 -0.142,0.313 a 0.87,0.87 0 0 0 0.004,0.359 z m 0.52,4.885 -0.1,-0.534 1.866,-0.351 c -0.795,-0.116 -1.192,-0.173 -1.986,-0.283 l -0.089,-0.462 c 0.696,-0.397 1.044,-0.597 1.738,-1 l -1.862,0.37 -0.106,-0.531 2.906,-0.586 0.145,0.725 c -0.775,0.44 -1.163,0.659 -1.94,1.093 0.883,0.115 1.325,0.174 2.208,0.295 l 0.136,0.724 z m 3.049,0.193 c 0.083,0.46 0.124,0.69 0.204,1.15 0.018,0.103 0.03,0.204 0.036,0.304 0.006,0.1 0.003,0.196 -0.009,0.289 -0.012,0.093 -0.033,0.179 -0.065,0.259 a 0.701,0.701 0 0 1 -0.346,0.38 1.013,1.013 0 0 1 -0.305,0.097 c -0.311,0.052 -0.56,-0.005 -0.749,-0.17 -0.189,-0.165 -0.315,-0.437 -0.381,-0.815 l -0.108,-0.611 -1.098,0.195 -0.099,-0.55 z m -1.22,0.794 0.11,0.622 c 0.018,0.102 0.042,0.187 0.073,0.256 a 0.47,0.47 0 0 0 0.112,0.162 0.325,0.325 0 0 0 0.15,0.076 0.494,0.494 0 0 0 0.188,0 0.39,0.39 0 0 0 0.194,-0.082 0.34,0.34 0 0 0 0.099,-0.148 0.549,0.549 0 0 0 0.026,-0.195 1.799,1.799 0 0 0 -0.024,-0.224 l -0.108,-0.613 z m -1.061,3.771 a 1.866,1.866 0 0 1 -0.021,-0.484 c 0.016,-0.137 0.048,-0.255 0.096,-0.353 0.048,-0.098 0.111,-0.179 0.188,-0.244 0.077,-0.065 0.16,-0.118 0.252,-0.16 a 1.49,1.49 0 0 1 0.289,-0.098 c 0.101,-0.023 0.201,-0.043 0.3,-0.059 l 1.677,-0.276 0.091,0.56 -1.672,0.27 a 1.633,1.633 0 0 0 -0.399,0.108 0.58,0.58 0 0 0 -0.225,0.163 0.42,0.42 0 0 0 -0.088,0.219 c -0.009,0.082 -0.005,0.174 0.011,0.276 0.016,0.103 0.042,0.192 0.076,0.268 0.034,0.076 0.085,0.136 0.152,0.18 a 0.592,0.592 0 0 0 0.263,0.083 c 0.108,0.011 0.246,0.004 0.412,-0.021 l 1.674,-0.258 0.086,0.565 -1.68,0.254 c -0.203,0.031 -0.389,0.04 -0.555,0.029 a 0.985,0.985 0 0 1 -0.437,-0.127 0.855,0.855 0 0 1 -0.311,-0.325 1.71,1.71 0 0 1 -0.179,-0.57 z m 3.072,3.717 c -0.05,-0.374 -0.076,-0.561 -0.128,-0.935 l -2.432,0.34 -0.078,-0.555 2.43,-0.348 -0.135,-0.93 0.504,-0.075 c 0.144,0.973 0.213,1.459 0.344,2.433 z m -2.088,3.051 c -0.108,-0.908 -0.165,-1.362 -0.285,-2.269 l 2.939,-0.388 c 0.118,0.896 0.174,1.344 0.282,2.24 l -0.506,0.06 c -0.08,-0.67 -0.122,-1.004 -0.208,-1.673 l -0.664,0.086 c 0.08,0.624 0.119,0.936 0.194,1.561 l -0.502,0.06 c -0.075,-0.623 -0.113,-0.934 -0.194,-1.556 l -0.763,0.098 c 0.089,0.688 0.131,1.032 0.213,1.72 z m 0.347,3.149 -0.062,-0.598 0.772,-0.369 a 0.64,0.64 0 0 0 0.145,-0.099 0.568,0.568 0 0 0 0.171,-0.291 0.533,0.533 0 0 0 0.01,-0.179 l -0.066,-0.599 -1.184,0.133 -0.063,-0.554 2.945,-0.341 c 0.063,0.541 0.093,0.812 0.152,1.353 0.009,0.081 0.016,0.158 0.02,0.231 0.004,0.074 0.004,0.144 -0.003,0.213 -0.007,0.069 -0.02,0.135 -0.04,0.199 a 0.74,0.74 0 0 1 -0.217,0.332 0.94,0.94 0 0 1 -0.507,0.221 0.808,0.808 0 0 1 -0.477,-0.085 0.847,0.847 0 0 1 -0.334,-0.335 c -0.082,0.138 -0.223,0.257 -0.422,0.359 z m 1.476,-2.192 c 0.034,0.298 0.05,0.447 0.082,0.745 0.011,0.1 0.027,0.186 0.048,0.256 0.021,0.07 0.05,0.127 0.086,0.169 0.036,0.042 0.08,0.071 0.133,0.087 0.053,0.016 0.116,0.02 0.188,0.012 0.131,-0.014 0.222,-0.066 0.275,-0.155 0.053,-0.089 0.07,-0.222 0.051,-0.395 l -0.089,-0.806 z m 1.855,6.158 c -1.219,-0.38 -1.829,-0.566 -3.05,-0.93 l -0.044,-0.512 c 1.141,-0.566 1.711,-0.853 2.847,-1.434 l 0.056,0.606 c -0.852,0.411 -1.278,0.615 -2.132,1.018 0.91,0.255 1.365,0.384 2.275,0.647 0.02,0.242 0.03,0.363 0.048,0.605 z m -2.884,1.178 -0.041,-0.554 2.956,-0.223 0.042,0.563 a 2739.3,2739.3 0 0 0 -2.957,0.214 z m 1.698,3.094 c -0.997,0.055 -1.521,-0.426 -1.586,-1.441 -0.025,-0.393 -0.038,-0.589 -0.065,-0.982 l 2.958,-0.203 c 0.027,0.399 0.041,0.599 0.066,0.998 0.065,1.032 -0.397,1.575 -1.373,1.628 z m -0.033,-0.572 a 1.65,1.65 0 0 0 0.399,-0.068 0.687,0.687 0 0 0 0.291,-0.174 0.7,0.7 0 0 0 0.17,-0.31 c 0.036,-0.128 0.048,-0.286 0.036,-0.476 l -0.028,-0.428 -1.941,0.127 0.027,0.423 c 0.012,0.187 0.044,0.34 0.096,0.461 a 0.693,0.693 0 0 0 0.212,0.284 0.727,0.727 0 0 0 0.319,0.138 c 0.125,0.024 0.265,0.031 0.419,0.023 z m -1.329,3.524 c -0.035,-0.912 -0.056,-1.368 -0.103,-2.28 l 2.961,-0.152 c 0.046,0.901 0.067,1.351 0.102,2.252 l -0.509,0.02 c -0.026,-0.673 -0.041,-1.009 -0.074,-1.682 l -0.669,0.032 c 0.03,0.627 0.044,0.941 0.069,1.568 l -0.505,0.02 a 162.12,162.12 0 0 0 -0.069,-1.564 l -0.769,0.037 c 0.033,0.691 0.049,1.037 0.075,1.729 z m 3.074,1.82 c 0.006,0.212 -0.025,0.408 -0.094,0.589 a 1.33,1.33 0 0 1 -0.775,0.781 1.72,1.72 0 0 1 -0.624,0.121 1.734,1.734 0 0 1 -0.623,-0.093 1.355,1.355 0 0 1 -0.815,-0.734 c -0.079,-0.173 -0.122,-0.366 -0.128,-0.577 -0.006,-0.211 0.025,-0.406 0.094,-0.584 0.069,-0.178 0.168,-0.333 0.297,-0.465 0.13,-0.132 0.287,-0.236 0.473,-0.314 0.185,-0.077 0.392,-0.12 0.62,-0.128 0.23,-0.008 0.441,0.02 0.631,0.086 0.19,0.066 0.355,0.161 0.493,0.286 0.138,0.125 0.246,0.276 0.323,0.452 0.08,0.176 0.122,0.37 0.128,0.58 z m -2.565,0.071 a 0.873,0.873 0 0 0 0.081,0.35 c 0.05,0.106 0.121,0.196 0.212,0.271 a 0.958,0.958 0 0 0 0.33,0.172 c 0.129,0.04 0.275,0.058 0.438,0.054 0.164,-0.004 0.309,-0.029 0.437,-0.076 0.128,-0.047 0.234,-0.11 0.32,-0.19 0.086,-0.08 0.15,-0.174 0.194,-0.282 0.044,-0.108 0.063,-0.225 0.06,-0.35 -0.004,-0.128 -0.03,-0.245 -0.081,-0.352 -0.051,-0.107 -0.121,-0.198 -0.212,-0.275 a 0.94,0.94 0 0 0 -0.331,-0.174 1.31,1.31 0 0 0 -0.436,-0.051 1.336,1.336 0 0 0 -0.434,0.08 0.973,0.973 0 0 0 -0.32,0.191 0.787,0.787 0 0 0 -0.197,0.281 0.849,0.849 0 0 0 -0.061,0.351 z m -0.421,4.535 a 1.557,1.557 0 0 1 0.107,-0.593 1.332,1.332 0 0 1 0.786,-0.761 c 0.187,-0.073 0.396,-0.11 0.627,-0.113 0.234,-0.003 0.446,0.03 0.635,0.099 0.189,0.069 0.35,0.167 0.483,0.294 0.133,0.127 0.236,0.28 0.309,0.459 0.073,0.179 0.11,0.376 0.11,0.592 0.001,0.181 -0.025,0.351 -0.075,0.508 a 1.336,1.336 0 0 1 -0.216,0.414 1.101,1.101 0 0 1 -0.78,0.419 l 0.001,-0.579 c 0.091,-0.008 0.172,-0.031 0.243,-0.068 0.071,-0.037 0.131,-0.089 0.181,-0.154 a 0.717,0.717 0 0 0 0.113,-0.232 c 0.026,-0.09 0.039,-0.19 0.038,-0.3 0,-0.132 -0.024,-0.252 -0.07,-0.36 -0.046,-0.108 -0.113,-0.201 -0.202,-0.278 a 0.923,0.923 0 0 0 -0.326,-0.179 1.391,1.391 0 0 0 -0.441,-0.061 1.362,1.362 0 0 0 -0.436,0.068 0.974,0.974 0 0 0 -0.325,0.182 c -0.089,0.078 -0.157,0.17 -0.203,0.279 -0.046,0.109 -0.07,0.227 -0.07,0.357 10e-4,0.187 0.028,0.346 0.082,0.478 0.054,0.132 0.138,0.244 0.253,0.335 h 0.311 l -0.001,-0.744 0.51,-0.001 c 0.001,0.521 0.001,0.781 -10e-4,1.302 l -1.6,-0.007 0.001,-0.429 0.213,-0.07 a 1.05,1.05 0 0 1 -0.194,-0.369 1.794,1.794 0 0 1 -0.063,-0.488 z m 0.004,4.546 0.013,-0.622 0.853,-0.312 0.015,-1.049 -0.844,-0.32 0.005,-0.59 c 1.183,0.466 1.774,0.703 2.954,1.184 l -0.007,0.54 a 245.79,245.79 0 0 1 -2.989,1.169 z m 1.339,-1.1 c 0.378,-0.14 0.567,-0.21 0.945,-0.352 l -0.935,-0.358 z m -1.438,4.276 0.021,-0.541 1.897,0.07 c -0.749,-0.288 -1.124,-0.43 -1.875,-0.713 l 0.015,-0.468 c 0.767,-0.232 1.15,-0.35 1.916,-0.588 l -1.898,-0.051 0.014,-0.539 2.964,0.071 -0.019,0.736 c -0.853,0.257 -1.279,0.384 -2.133,0.634 0.836,0.306 1.254,0.461 2.088,0.773 -0.01,0.293 -0.016,0.44 -0.028,0.733 z m -0.144,3.009 c 0.051,-0.912 0.074,-1.368 0.114,-2.28 l 2.962,0.13 c -0.039,0.901 -0.062,1.351 -0.112,2.251 l -0.509,-0.029 c 0.038,-0.672 0.055,-1.009 0.087,-1.681 l -0.669,-0.031 c -0.029,0.627 -0.045,0.941 -0.08,1.568 l -0.505,-0.028 c 0.035,-0.625 0.051,-0.938 0.08,-1.564 l -0.769,-0.036 c -0.032,0.691 -0.05,1.037 -0.089,1.728 a 41.28,41.28 0 0 1 -0.51,-0.028 z m 1.69,3.854 a 0.588,0.588 0 0 0 0.567,-0.377 0.813,0.813 0 0 0 0.059,-0.255 c 0.01,-0.13 -0.004,-0.249 -0.042,-0.355 -0.038,-0.106 -0.097,-0.2 -0.18,-0.28 a 0.894,0.894 0 0 0 -0.313,-0.191 1.477,1.477 0 0 0 -0.438,-0.089 1.511,1.511 0 0 0 -0.446,0.029 0.952,0.952 0 0 0 -0.336,0.144 0.709,0.709 0 0 0 -0.219,0.246 0.826,0.826 0 0 0 -0.094,0.337 0.855,0.855 0 0 0 0.02,0.266 0.605,0.605 0 0 0 0.103,0.217 0.603,0.603 0 0 0 0.182,0.157 c 0.073,0.041 0.16,0.07 0.259,0.087 l -0.045,0.571 a 1.334,1.334 0 0 1 -0.46,-0.163 1.122,1.122 0 0 1 -0.326,-0.293 1.169,1.169 0 0 1 -0.186,-0.397 1.477,1.477 0 0 1 -0.039,-0.475 c 0.016,-0.215 0.066,-0.406 0.15,-0.572 0.084,-0.168 0.197,-0.307 0.337,-0.419 0.141,-0.113 0.307,-0.196 0.5,-0.249 0.193,-0.054 0.406,-0.072 0.638,-0.057 0.232,0.015 0.441,0.062 0.625,0.142 0.184,0.079 0.339,0.185 0.463,0.318 0.125,0.133 0.217,0.288 0.277,0.469 0.06,0.18 0.082,0.378 0.066,0.594 a 1.38,1.38 0 0 1 -0.111,0.457 1.174,1.174 0 0 1 -0.607,0.619 1.151,1.151 0 0 1 -0.45,0.097 z m 0.855,2.588 a 1.536,1.536 0 0 1 -0.163,0.574 1.331,1.331 0 0 1 -0.861,0.684 1.734,1.734 0 0 1 -0.634,0.046 1.744,1.744 0 0 1 -0.608,-0.167 1.368,1.368 0 0 1 -0.722,-0.826 1.487,1.487 0 0 1 -0.058,-0.589 c 0.019,-0.211 0.073,-0.401 0.163,-0.569 0.089,-0.169 0.206,-0.311 0.351,-0.427 0.145,-0.116 0.313,-0.201 0.507,-0.256 0.193,-0.055 0.403,-0.073 0.631,-0.054 0.23,0.019 0.436,0.072 0.617,0.16 a 1.337,1.337 0 0 1 0.723,0.831 c 0.054,0.185 0.073,0.382 0.054,0.593 z m -2.556,-0.235 a 0.868,0.868 0 0 0 0.039,0.358 0.792,0.792 0 0 0 0.178,0.295 0.964,0.964 0 0 0 0.308,0.21 c 0.124,0.055 0.267,0.09 0.428,0.106 0.163,0.016 0.311,0.008 0.443,-0.024 a 0.935,0.935 0 0 0 0.34,-0.151 0.774,0.774 0 0 0 0.226,-0.257 0.863,0.863 0 0 0 0.101,-0.341 0.87,0.87 0 0 0 -0.038,-0.359 0.783,0.783 0 0 0 -0.178,-0.298 c -0.081,-0.087 -0.184,-0.157 -0.308,-0.212 -0.124,-0.055 -0.266,-0.089 -0.427,-0.103 a 1.34,1.34 0 0 0 -0.441,0.028 c -0.132,0.032 -0.245,0.083 -0.341,0.152 -0.096,0.069 -0.172,0.154 -0.228,0.256 a 0.829,0.829 0 0 0 -0.102,0.34 z m -0.898,4.362 0.06,-0.523 c 0.848,-0.441 1.271,-0.664 2.116,-1.117 l -1.972,-0.208 0.056,-0.535 2.95,0.302 -0.055,0.534 c -0.847,0.453 -1.271,0.677 -2.12,1.118 l 1.974,0.222 -0.063,0.547 z m 2.078,3.19 c 0.049,-0.374 0.074,-0.561 0.121,-0.935 l -2.436,-0.309 0.07,-0.555 2.437,0.301 c 0.046,-0.373 0.069,-0.559 0.113,-0.932 l 0.506,0.06 c -0.116,0.975 -0.177,1.463 -0.305,2.437 z m -2.857,2.687 0.088,-0.595 0.839,-0.168 a 0.575,0.575 0 0 0 0.403,-0.301 0.535,0.535 0 0 0 0.054,-0.171 l 0.083,-0.598 -1.18,-0.163 0.075,-0.553 2.938,0.396 c -0.073,0.54 -0.11,0.81 -0.187,1.35 -0.011,0.08 -0.024,0.158 -0.038,0.23 a 1.445,1.445 0 0 1 -0.055,0.206 c -0.023,0.065 -0.052,0.126 -0.088,0.184 -0.036,0.058 -0.08,0.111 -0.135,0.159 -0.048,0.043 -0.101,0.079 -0.157,0.108 a 0.869,0.869 0 0 1 -0.36,0.097 0.874,0.874 0 0 1 -0.185,-0.008 0.812,0.812 0 0 1 -0.441,-0.2 0.852,0.852 0 0 1 -0.241,-0.407 c -0.114,0.113 -0.28,0.195 -0.498,0.244 z m 1.972,-1.763 -0.104,0.743 c -0.014,0.1 -0.02,0.186 -0.016,0.26 0.004,0.074 0.017,0.135 0.041,0.185 0.024,0.05 0.06,0.089 0.107,0.117 a 0.477,0.477 0 0 0 0.179,0.058 c 0.13,0.019 0.232,-0.009 0.305,-0.083 0.073,-0.074 0.122,-0.198 0.147,-0.371 l 0.113,-0.804 z m 0.72,4.066 c -0.034,0.21 -0.101,0.397 -0.202,0.563 a 1.347,1.347 0 0 1 -0.38,0.407 c -0.153,0.106 -0.328,0.179 -0.526,0.22 -0.198,0.041 -0.41,0.042 -0.635,0.004 a 1.776,1.776 0 0 1 -0.595,-0.207 1.436,1.436 0 0 1 -0.428,-0.373 1.345,1.345 0 0 1 -0.236,-0.501 c -0.045,-0.186 -0.052,-0.383 -0.018,-0.593 0.034,-0.21 0.1,-0.395 0.201,-0.558 a 1.353,1.353 0 0 1 0.902,-0.624 1.76,1.76 0 0 1 0.633,-0.011 c 0.228,0.035 0.43,0.101 0.605,0.202 0.175,0.101 0.319,0.224 0.431,0.373 0.112,0.149 0.19,0.317 0.234,0.506 0.042,0.185 0.047,0.383 0.014,0.592 z m -2.534,-0.406 a 0.884,0.884 0 0 0 0.014,0.36 c 0.03,0.114 0.082,0.216 0.158,0.307 0.076,0.091 0.173,0.168 0.293,0.231 0.12,0.063 0.26,0.108 0.42,0.135 0.162,0.027 0.31,0.029 0.443,0.006 a 0.92,0.92 0 0 0 0.349,-0.128 0.79,0.79 0 0 0 0.243,-0.242 0.866,0.866 0 0 0 0.124,-0.334 0.877,0.877 0 0 0 -0.014,-0.362 0.792,0.792 0 0 0 -0.157,-0.31 0.927,0.927 0 0 0 -0.293,-0.232 1.348,1.348 0 0 0 -0.419,-0.132 c -0.161,-0.025 -0.308,-0.025 -0.441,-0.002 -0.133,0.023 -0.25,0.067 -0.35,0.129 -0.1,0.062 -0.182,0.143 -0.245,0.24 a 0.855,0.855 0 0 0 -0.125,0.334 z m -1.107,3.831 c 0.139,-0.761 0.206,-1.142 0.337,-1.904 l 2.922,0.5 -0.097,0.56 -2.419,-0.422 c -0.095,0.543 -0.143,0.814 -0.242,1.357 z m 2.605,2.2 c -0.088,0.459 -0.133,0.689 -0.224,1.148 -0.02,0.102 -0.046,0.202 -0.076,0.297 -0.031,0.095 -0.068,0.184 -0.112,0.266 -0.044,0.082 -0.096,0.155 -0.154,0.219 -0.058,0.064 -0.126,0.116 -0.202,0.154 -0.076,0.038 -0.162,0.064 -0.258,0.075 a 1.015,1.015 0 0 1 -0.319,-0.019 c -0.309,-0.063 -0.521,-0.207 -0.637,-0.429 -0.116,-0.222 -0.136,-0.521 -0.061,-0.899 l 0.12,-0.609 -1.095,-0.213 0.106,-0.549 z m -1.425,0.301 -0.122,0.62 c -0.02,0.102 -0.028,0.191 -0.024,0.266 a 0.467,0.467 0 0 0 0.046,0.191 0.322,0.322 0 0 0 0.112,0.125 0.51,0.51 0 0 0 0.176,0.068 0.334,0.334 0 0 0 0.356,-0.11 c 0.039,-0.047 0.071,-0.105 0.094,-0.173 0.023,-0.068 0.043,-0.141 0.058,-0.218 l 0.12,-0.611 c -0.326,-0.062 -0.489,-0.094 -0.816,-0.158 z m -2.592,4.465 c 0.055,-0.244 0.082,-0.366 0.135,-0.611 l 0.898,-0.141 c 0.09,-0.413 0.134,-0.619 0.222,-1.032 l -0.765,-0.481 0.121,-0.581 c 1.068,0.691 1.601,1.041 2.663,1.746 l -0.114,0.531 c -1.264,0.236 -1.896,0.35 -3.16,0.569 z m 1.531,-0.822 0.996,-0.161 -0.846,-0.536 z m -0.722,3.967 c -0.971,-0.233 -1.335,-0.847 -1.105,-1.844 l 0.22,-0.965 2.892,0.652 c -0.088,0.393 -0.133,0.589 -0.224,0.981 -0.233,1.013 -0.832,1.404 -1.783,1.176 z m 0.134,-0.562 c 0.146,0.035 0.28,0.051 0.402,0.049 0.122,-0.002 0.232,-0.03 0.329,-0.084 0.097,-0.054 0.181,-0.138 0.252,-0.25 0.071,-0.112 0.128,-0.262 0.171,-0.448 l 0.097,-0.421 -1.897,-0.433 -0.096,0.416 c -0.042,0.183 -0.056,0.341 -0.04,0.472 0.016,0.131 0.056,0.243 0.121,0.335 0.065,0.092 0.154,0.166 0.266,0.224 0.112,0.058 0.244,0.105 0.395,0.14 z"
       id="path86"
       inkscape:connector-curvature="0" />
  </g>
</svg>
