<?xml version="1.0" encoding="UTF-8" standalone="no"?>
<svg
   xmlns:dc="http://purl.org/dc/elements/1.1/"
   xmlns:cc="http://creativecommons.org/ns#"
   xmlns:rdf="http://www.w3.org/1999/02/22-rdf-syntax-ns#"
   xmlns:svg="http://www.w3.org/2000/svg"
   xmlns="http://www.w3.org/2000/svg"
   xmlns:sodipodi="http://sodipodi.sourceforge.net/DTD/sodipodi-0.dtd"
   xmlns:inkscape="http://www.inkscape.org/namespaces/inkscape"
   viewBox="0 0 178.85 124.321"
   version="1.1"
   id="svg75"
   sodipodi:docname="game.svg"
   width="178.85001"
   height="124.321"
   inkscape:version="0.92.4 5da689c313, 2019-01-14">
  <metadata
     id="metadata81">
    <rdf:RDF>
      <cc:Work
         rdf:about="">
        <dc:format>image/svg+xml</dc:format>
        <dc:type
           rdf:resource="http://purl.org/dc/dcmitype/StillImage" />
      </cc:Work>
    </rdf:RDF>
  </metadata>
  <defs
     id="defs79" />
  <sodipodi:namedview
     pagecolor="#ffffff"
     bordercolor="#666666"
     borderopacity="1"
     objecttolerance="10"
     gridtolerance="10"
     guidetolerance="10"
     inkscape:pageopacity="0"
     inkscape:pageshadow="2"
     inkscape:window-width="471"
     inkscape:window-height="442"
     id="namedview77"
     showgrid="false"
     inkscape:zoom="1.5152362"
     inkscape:cx="89.425003"
     inkscape:cy="62.1605"
     inkscape:window-x="0"
     inkscape:window-y="0"
     inkscape:window-maximized="0"
     inkscape:current-layer="svg75" />
  <linearGradient
     id="a"
     gradientUnits="userSpaceOnUse"
     y1="58.188999"
     x2="178.85001"
     y2="58.188999">
    <stop
       offset="0"
       stop-color="#292b2a"
       id="stop2" />
    <stop
       offset=".07"
       stop-color="#131519"
       id="stop4" />
    <stop
       offset=".5"
       stop-color="#151513"
       id="stop6" />
    <stop
       offset=".93"
       stop-color="#131519"
       id="stop8" />
    <stop
       offset="1"
       stop-color="#292b2a"
       id="stop10" />
  </linearGradient>
  <path
     d="m 0,85.868 v 22.361 c 0,4.482 3.667,8.149 8.149,8.149 h 162.552 c 4.482,0 8.149,-3.667 8.149,-8.149 V 8.149 C 178.85,3.667 175.183,0 170.701,0 H 8.149 C 3.667,0 0,3.667 0,8.149 v 68.309 l 5.948,-0.001 c 0.987,0 1.794,0.74 1.794,1.644 v 6.122 c 0,0.904 -0.807,1.644 -1.794,1.644 H 0 Z"
     id="path13"
     inkscape:connector-curvature="0"
     style="fill:url(#a)" />
  <g
     id="g17"
     style="fill:#0a080b">
    <path
       d="m 0,19.522 h 7.742 v 2.369 H 0 Z m 0,3.566 h 7.742 v 2.369 H 0 Z m 0,3.565 h 7.742 v 2.369 H 0 Z m 0,3.566 h 7.742 v 2.369 H 0 Z m 0,3.565 h 7.742 v 2.369 H 0 Z m 0,3.566 h 7.742 v 2.369 H 0 Z m 0,3.565 h 7.742 v 2.369 H 0 Z m 0,3.566 H 7.742 V 46.85 H 0 Z m 0,3.565 h 7.742 v 2.369 H 0 Z m 0,3.566 h 7.742 v 2.369 H 0 Z m 0,3.565 h 7.742 v 2.369 H 0 Z m 0,3.566 h 7.742 v 2.369 H 0 Z m 0,3.565 h 7.742 v 2.369 H 0 Z m 0,3.566 h 7.742 v 2.369 H 0 Z m 0,3.565 h 7.742 v 2.369 H 0 Z m 0,3.566 h 7.742 v 2.369 H 0 Z m 0,14.262 h 7.742 v 2.369 H 0 Z m 0,3.565 h 7.742 v 2.369 H 0 Z m 0,3.566 h 7.742 v 2.369 H 0 Z m 0,3.565 h 7.742 v 2.369 H 0 Z m 0,3.566 h 7.742 v 2.369 H 0 Z"
       id="path15"
       inkscape:connector-curvature="0" />
  </g>
  <g
     id="g21"
     style="fill:#0a080b">
    <path
       d="m 171.107,20.041 h 7.742 v 2.369 h -7.742 z m 0,3.566 h 7.742 v 2.369 h -7.742 z m 0,3.565 h 7.742 v 2.369 h -7.742 z m 0,3.566 h 7.742 v 2.369 h -7.742 z m 0,3.565 h 7.742 v 2.369 h -7.742 z m 0,3.566 h 7.742 v 2.369 h -7.742 z m 0,3.565 h 7.742 v 2.369 h -7.742 z m 0,3.566 h 7.742 v 2.369 h -7.742 z m 0,3.565 h 7.742 v 2.369 h -7.742 z m 0,3.566 h 7.742 V 54.5 h -7.742 z m 0,3.565 h 7.742 v 2.369 h -7.742 z m 0,3.566 h 7.742 v 2.369 h -7.742 z m 0,3.565 h 7.742 v 2.369 h -7.742 z m 0,3.566 h 7.742 v 2.369 h -7.742 z m 0,3.565 h 7.742 v 2.369 h -7.742 z m 0,3.566 h 7.742 v 2.369 h -7.742 z m 0,3.565 h 7.742 v 2.369 h -7.742 z m 0,3.566 h 7.742 v 2.369 h -7.742 z m 0,7.131 h 7.742 v 2.369 h -7.742 z m 0,3.565 h 7.742 v 2.369 h -7.742 z m 0,3.566 h 7.742 v 2.369 h -7.742 z m 0,3.565 h 7.742 v 2.369 h -7.742 z m 0,3.566 h 7.742 v 2.369 h -7.742 z m 0,-17.828 h 7.742 v 2.369 h -7.742 z"
       id="path19"
       inkscape:connector-curvature="0" />
  </g>
  <path
     d="m 156.718,4.244 v 104.405 c 0,2.241 -1.283,4.201 -3.165,5.208 a 6.133,6.133 0 0 1 -2.873,0.716 H 28.169 a 6.112,6.112 0 0 1 -2.873,-0.716 c -1.882,-1.007 -3.165,-2.967 -3.165,-5.208 V 4.244 c 0,-1.397 0.498,-2.685 1.333,-3.702 h 131.92 a 5.81,5.81 0 0 1 1.334,3.702 z"
     id="path23"
     inkscape:connector-curvature="0"
     style="fill:#f8f8f7" />
  <path
     d="M 167.361,124.321 H 11.489 V 0 h 1.083 V 123.238 H 166.277 V 0 h 1.084 z"
     id="path25"
     inkscape:connector-curvature="0"
     style="fill:#09070a" />
  <path
     d="m 12.572,114.572 h 153.706 v 9.207 H 12.572 Z"
     id="path27"
     inkscape:connector-curvature="0"
     style="fill:#141413" />
  <path
     d="M 34.203,9.014 H 58.016 V 20.296 H 34.203 Z m 0,11.614 h 23.813 v 4.044 H 34.203 Z"
     id="path29"
     inkscape:connector-curvature="0"
     style="fill:#0a080b" />
  <path
     d="m 35.011,23.541 1.112,-1.847 c 0.053,-0.106 0.106,-0.158 0.159,-0.158 h 0.794 v 0.245 l 0.053,-0.087 c 0.053,-0.106 0.106,-0.158 0.159,-0.158 h 0.953 v 2.006 h -0.635 v -1.583 l -0.953,1.583 h -0.635 l 0.953,-1.583 h -0.318 c -0.035,0 -0.071,0.018 -0.106,0.053 l -0.9,1.531 z m 4.077,-0.791 v 0.369 h 1.483 v 0.422 h -2.118 v -1.319 c 0,-0.035 0.009,-0.07 0.026,-0.106 l 0.291,-0.528 c 0.018,-0.035 0.053,-0.053 0.106,-0.053 h 1.695 v 0.422 H 39.3 c -0.035,0 -0.062,0.018 -0.079,0.053 l -0.132,0.317 h 1.483 l -0.212,0.422 h -1.272 z m 2.33,0.369 h 1.059 V 22.75 h -0.424 l 0.212,-0.422 h 0.847 v 1.108 c 0,0.07 -0.035,0.106 -0.106,0.106 h -2.118 c -0.071,0 -0.106,-0.035 -0.106,-0.106 v -1.214 c 0,-0.035 0.009,-0.07 0.026,-0.106 l 0.291,-0.528 c 0.018,-0.035 0.053,-0.053 0.106,-0.053 h 1.8 v 0.422 H 41.63 c -0.035,0 -0.062,0.018 -0.079,0.053 l -0.132,0.317 z m 4.554,0.422 H 45.231 L 44.94,23.119 H 44.172 L 43.96,22.736 v 0.805 h -0.635 v -2.006 h 1.218 c 0.053,0 0.106,0.053 0.159,0.158 z M 44.646,22.697 44.172,22.011 C 44.137,21.976 44.101,21.958 44.066,21.958 H 43.96 v 0.739 z m 2.467,0.446 h 0.769 a 0.088,0.088 0 0 0 0.082,-0.05 l 0.233,-0.501 0.014,-0.055 -0.014,-0.055 -0.233,-0.496 c -0.018,-0.037 -0.046,-0.055 -0.082,-0.055 h -0.769 z m -0.659,-1.652 h 1.839 c 0.055,0 0.101,0.037 0.137,0.11 l 0.426,0.881 0.014,0.055 -0.014,0.055 -0.426,0.881 c -0.037,0.073 -0.082,0.11 -0.137,0.11 h -1.839 z m 2.636,0 h 1.757 c 0.055,0 0.101,0.037 0.137,0.11 l 0.288,0.606 0.014,0.055 -0.014,0.055 -0.426,0.496 0.439,0.771 h -0.659 l -0.631,-1.047 h 0.329 c 0.037,0 0.064,-0.009 0.082,-0.028 l 0.22,-0.248 -0.11,-0.275 C 50.498,21.949 50.47,21.931 50.434,21.931 h -0.686 v 1.653 H 49.09 Z m 3.074,2.093 h -0.659 v -2.093 h 0.659 z m 0.879,-1.405 0.659,0.964 0.659,-0.964 V 21.49 h 0.659 v 0.771 a 0.388,0.388 0 0 1 -0.027,0.165 l -0.741,1.157 H 53.154 L 52.413,22.426 A 0.391,0.391 0 0 1 52.386,22.261 V 21.49 h 0.659 z m 2.855,0.579 v 0.386 h 1.537 v 0.441 h -2.196 v -1.377 c 0,-0.037 0.009,-0.073 0.027,-0.11 l 0.302,-0.551 c 0.018,-0.037 0.055,-0.055 0.11,-0.055 h 1.757 v 0.441 h -1.318 c -0.037,0 -0.064,0.018 -0.082,0.055 l -0.137,0.331 h 1.537 l -0.22,0.441 z"
     id="path31"
     inkscape:connector-curvature="0"
     style="fill:#ffffff" />
  <path
     d="m 41.233,10.147 -5.88,8.745 h 5.88 z"
     id="path33"
     inkscape:connector-curvature="0"
     style="fill:#b32818" />
  <path
     d="m 46.153,10.152 -5.88,8.745 h 5.88 z"
     id="path35"
     inkscape:connector-curvature="0"
     style="fill:#b32818" />
  <path
     d="m 47.461,10.321 h 2.84 v 8.645 h -2.84 z m 4.065,0.121 -0.582,2.892 c -0.05,-0.005 -0.1,-0.008 -0.151,-0.008 V 10.38 c 0.249,0 0.495,0.021 0.733,0.062 m -0.409,2.923 0.85,-2.823 c 0.229,0.065 0.451,0.148 0.663,0.248 l -1.288,2.652 a 1.244,1.244 0 0 0 -0.225,-0.077 m 0.513,0.247 1.982,-2.185 a 4.329,4.329 0 0 0 -0.541,-0.398 l -1.572,2.492 c 0.045,0.029 0.089,0.059 0.131,0.091 m 0.25,0.251 2.548,-1.494 A 4.336,4.336 0 0 0 53.95,11.753 l -2.195,1.968 c 0.045,0.045 0.087,0.092 0.125,0.142 m 0.147,0.239 2.888,-0.686 a 4.264,4.264 0 0 0 -0.304,-0.734 l -2.644,1.308 c 0.022,0.037 0.042,0.074 0.06,0.112 m 3.081,0.423 h -2.957 a 1.35,1.35 0 0 0 -0.067,-0.284 l 10e-4,0.003 2.932,-0.432 c 0.048,0.231 0.078,0.47 0.087,0.713 m -2.945,0.259 a 1.37,1.37 0 0 1 -1.367,1.281 v 2.946 a 4.315,4.315 0 0 0 4.315,-4.227 h -2.956"
     id="path37"
     inkscape:connector-curvature="0"
     style="fill:#5f973d" />
  <path
     d="m 55.917,17.847 h -0.336 v 0.914 h -0.232 v -0.914 h -0.335 v -0.196 h 0.903 z m 0.669,0.679 -0.204,-0.875 h -0.338 v 1.11 h 0.216 l 0.003,-0.928 0.203,0.928 h 0.227 l 0.21,-0.928 v 0.928 h 0.217 v -1.11 h -0.336 l -0.198,0.892"
     id="path39"
     inkscape:connector-curvature="0"
     style="fill:#ffffff" />
  <path
     d="M 156.718,91.029 H 22.132 v 17.62 c 0,2.241 1.283,4.201 3.165,5.208 a 6.133,6.133 0 0 0 2.873,0.716 h 122.511 a 6.112,6.112 0 0 0 2.873,-0.716 c 1.882,-1.007 3.165,-2.967 3.165,-5.208 v -17.62 z"
     id="path41"
     inkscape:connector-curvature="0"
     style="fill:#4f6199" />
  <path
     d="m 22.132,47.369 48.451,43.66 H 22.132 Z"
     id="path43"
     inkscape:connector-curvature="0"
     style="fill:#308e62" />
  <path
     d="M 156.718,4.244 65.199,91.029 h 91.519 z"
     id="path45"
     inkscape:connector-curvature="0"
     style="fill:#b8413a" />
  <g
     id="g59"
     style="fill:#4f6199">
    <path
       d="m 24.823,87.763 -2.691,3.266 h 5.383 z m 5.384,0 -2.692,3.266 h 5.383 z m 5.383,0 -2.692,3.266 h 5.384 z"
       id="path47"
       inkscape:connector-curvature="0" />
    <path
       d="m 40.974,87.763 -2.692,3.266 h 5.383 z m 5.383,0 -2.692,3.266 h 5.384 z m 5.383,0 -2.691,3.266 h 5.383 z m 5.384,0 -2.692,3.266 h 5.384 z"
       id="path49"
       inkscape:connector-curvature="0" />
    <path
       d="m 62.507,87.763 -2.691,3.266 h 5.383 z m 5.384,0 -2.692,3.266 h 5.384 z"
       id="path51"
       inkscape:connector-curvature="0" />
    <path
       d="m 73.274,87.763 -2.691,3.266 h 5.383 z m 5.384,0 -2.692,3.266 h 5.383 z m 5.383,0 -2.691,3.266 h 5.383 z m 5.384,0 -2.692,3.266 h 5.383 z m 5.383,0 -2.691,3.266 H 97.5 Z m 5.384,0 -2.692,3.266 h 5.383 z m 5.383,0 -2.692,3.266 h 5.384 z"
       id="path53"
       inkscape:connector-curvature="0" />
    <path
       d="m 110.959,87.763 -2.692,3.266 h 5.383 z m 5.383,0 -2.692,3.266 h 5.384 z"
       id="path55"
       inkscape:connector-curvature="0" />
    <path
       d="m 121.726,87.763 -2.692,3.266 h 5.383 z m 5.383,0 -2.692,3.266 h 5.384 z m 5.383,0 -2.691,3.266 h 5.383 z m 5.384,0 -2.692,3.266 h 5.384 z m 5.383,0 -2.691,3.266 h 5.383 z m 5.384,0 -2.692,3.266 h 5.384 z m 5.383,0 -2.691,3.266 h 5.383 z"
       id="path57"
       inkscape:connector-curvature="0" />
  </g>
  <g
     id="g73">
    <path
       d="m 135.492,109.713 a 2.402,2.402 0 0 0 1.679,0.684 l 10.316,10e-4 -2.228,-6.659 c -0.304,-0.707 -1.018,-1.202 -1.875,-1.202 -0.854,0 -1.579,0.512 -1.872,1.216 l -0.743,2.169 -0.003,-3.273 -3.602,-0.002 a 2.37,2.37 0 0 0 -1.668,0.675 l 0.001,-0.672 h -3.689 a 2.41,2.41 0 0 0 -1.749,0.755 v -0.758 l -3.477,0.003 a 2.708,2.708 0 0 0 -2.734,2.727 c 0,0.72 0.314,1.372 0.777,1.855 l -0.784,-0.001 v 3.166 l 3.503,-0.001 c 0.984,-0.001 1.96,-0.596 2.298,-1.309 l 0.01,-0.029 a 2.404,2.404 0 0 0 2.155,1.339 l 3.683,-0.001 v -0.683 z"
       id="path61"
       inkscape:connector-curvature="0"
       style="fill:#ffffff" />
    <path
       d="m 124.385,109.855 2.953,-0.003 a 2.186,2.186 0 1 0 0,-4.37 l -0.767,0.004 a 0.11,0.11 0 0 1 -0.11,-0.111 0.11,0.11 0 0 1 0.11,-0.111 l 2.948,0.001 0.001,-0.926 h -2.949 a 1.034,1.034 0 0 0 0,2.067 l 0.77,0.01 a 1.252,1.252 0 1 1 0,2.501 h -2.956 z"
       id="path63"
       inkscape:connector-curvature="0"
       style="fill:#6da5c0" />
    <path
       d="m 124.386,108.7 h 2.956 a 1.034,1.034 0 1 0 0,-2.067 l -0.77,-0.008 a 1.251,1.251 0 1 1 0,-2.502 l 2.949,-0.001 -10e-4,-0.93 h -2.948 a 2.186,2.186 0 0 0 -2.188,2.184 c 0,1.206 0.98,2.184 2.188,2.184 l 0.763,0.001 a 0.1065,0.1065 0 1 1 0,0.213 l -2.949,0.003 z m 7.43,0.224 a 0.928,0.928 0 0 1 -0.932,-0.931 v -2.957 c 0,-0.502 0.42,-0.916 0.932,-0.916 l 3.153,10e-4 v -0.929 h -3.153 c -1.026,0 -1.857,0.83 -1.857,1.854 v 2.947 c 0,1.024 0.831,1.855 1.857,1.855 l 3.14,0.001 -10e-4,-0.927 z"
       id="path65"
       inkscape:connector-curvature="0"
       style="fill:#6da5c0" />
    <path
       d="m 131.11,105.046 c 0,-0.392 0.315,-0.709 0.706,-0.709 h 3.153 v 0.929 h -2.716 c -0.218,0 -0.221,0.217 -0.221,0.217 h 2.266 v 0.925 h -3.189 z m 0.706,3.652 a 0.707,0.707 0 0 1 -0.707,-0.706 v -1.364 h 3.189 v 0.927 h -2.266 c 0.003,0.218 0.221,0.219 0.221,0.219 h 2.703 l -10e-4,0.922 z m 5.362,0.223 a 0.93,0.93 0 0 1 -0.928,-0.929 v -2.947 c 0,-0.512 0.414,-0.926 0.926,-0.926 h 3.053 v -0.928 h -3.061 c -1.025,0 -1.856,0.83 -1.856,1.854 v 2.947 c 0,1.024 0.838,1.855 1.864,1.855 l 3.053,0.001 v -4.365 h -2.624 v 0.925 h 1.697 v 2.513 z"
       id="path67"
       inkscape:connector-curvature="0"
       style="fill:#6da5c0" />
    <path
       d="m 136.468,107.993 a 0.71,0.71 0 0 0 0.708,0.711 h 1.907 v -2.076 h -1.476 v 0.928 h 0.548 l 0.002,0.218 h -0.546 a 0.219,0.219 0 0 1 -0.217,-0.218 l -0.004,-2.073 c 0,0 -10e-4,-0.216 0.219,-0.221 h 2.621 l -10e-4,-0.925 -3.053,10e-4 a 0.708,0.708 0 0 0 -0.708,0.709 z m 8.982,0.928 h -2.466 v 0.927 h 3.753 l -1.951,-5.785 c -0.172,-0.564 -0.735,-0.979 -1.402,-0.979 -0.668,0 -1.231,0.414 -1.402,0.976 l -1.97,5.788 h 0.982 l 1.912,-5.626 a 0.516,0.516 0 0 1 0.952,-10e-4 z"
       id="path69"
       inkscape:connector-curvature="0"
       style="fill:#6da5c0" />
    <path
       d="m 141.224,109.848 1.874,-5.525 a 0.302,0.302 0 0 1 0.57,0 l 1.482,4.387 h -2.17 l 0.002,-0.824 -0.664,1.962 z m 1.758,-1.962 z m 0.726,-0.207 -0.326,-0.973 -0.329,0.973 z"
       id="path71"
       inkscape:connector-curvature="0"
       style="fill:#6da5c0" />
  </g>
</svg>
