<?xml version="1.0" encoding="UTF-8" standalone="no"?>
<svg
   xmlns:dc="http://purl.org/dc/elements/1.1/"
   xmlns:cc="http://creativecommons.org/ns#"
   xmlns:rdf="http://www.w3.org/1999/02/22-rdf-syntax-ns#"
   xmlns:svg="http://www.w3.org/2000/svg"
   xmlns="http://www.w3.org/2000/svg"
   xmlns:sodipodi="http://sodipodi.sourceforge.net/DTD/sodipodi-0.dtd"
   xmlns:inkscape="http://www.inkscape.org/namespaces/inkscape"
   viewBox="0 0 400.00101 385.044"
   version="1.1"
   id="svg247"
   sodipodi:docname="console.svg"
   width="400.00101"
   height="385.04401"
   inkscape:version="0.92.4 5da689c313, 2019-01-14">
  <metadata
     id="metadata253">
    <rdf:RDF>
      <cc:Work
         rdf:about="">
        <dc:format>image/svg+xml</dc:format>
        <dc:type
           rdf:resource="http://purl.org/dc/dcmitype/StillImage" />
      </cc:Work>
    </rdf:RDF>
  </metadata>
  <defs
     id="defs251" />
  <sodipodi:namedview
     pagecolor="#ffffff"
     bordercolor="#666666"
     borderopacity="1"
     objecttolerance="10"
     gridtolerance="10"
     guidetolerance="10"
     inkscape:pageopacity="0"
     inkscape:pageshadow="2"
     inkscape:window-width="640"
     inkscape:window-height="480"
     id="namedview249"
     showgrid="false"
     inkscape:zoom="0.61291696"
     inkscape:cx="200.001"
     inkscape:cy="192.522"
     inkscape:window-x="0"
     inkscape:window-y="0"
     inkscape:window-maximized="0"
     inkscape:current-layer="svg247">
    <inkscape:grid
       type="xygrid"
       id="grid1060"
       originx="0.001"
       originy="-6.3476562e-06" />
  </sodipodi:namedview>
  <path
     d="M 7.783,71.37 C 4.625,65.686 17.232,8.843 17.232,8.843 c 0,0 3.76,-7.579 23.052,-7.579 C 50.498,1.263 135.029,0 215.111,0 c 71.152,0 138.795,1.263 147.682,1.263 18.892,0 22.05,12.632 22.05,12.632 0,0 10.105,47.18 8.842,54.948 -1.263,7.768 -382.744,8.211 -385.902,2.527"
     id="path2"
     inkscape:connector-curvature="0"
     style="fill:#1d1d1b" />
  <linearGradient
     id="a"
     gradientUnits="userSpaceOnUse"
     x1="-57.897999"
     y1="51.595001"
     x2="-57.897999"
     y2="385.04401"
     gradientTransform="matrix(-1,0,0,1,142.103,0)">
    <stop
       offset="0"
       stop-color="#b5b1ad"
       id="stop4" />
    <stop
       offset=".029"
       stop-color="#b0aba7"
       id="stop6" />
    <stop
       offset=".139"
       stop-color="#a19c96"
       id="stop8" />
    <stop
       offset=".275"
       stop-color="#97908b"
       id="stop10" />
    <stop
       offset=".467"
       stop-color="#918a84"
       id="stop12" />
    <stop
       offset="1"
       stop-color="#8f8882"
       id="stop14" />
  </linearGradient>
  <path
     d="m 200.001,385.044 c 74.773,0 182.057,-4.195 191.835,-4.195 9.778,0 7.968,-8.842 7.968,-8.842 0,0 0.197,-113.686 0.197,-153.688 0,-40.002 -3.875,-97.054 -3.875,-97.054 l -2.452,-60.001 c 0,0 -1.839,-6.947 -12.258,-6.947 -10.419,0 -89.482,-2.722 -181.416,-2.722 -91.934,0 -170.996,2.722 -181.415,2.722 -10.419,0 -12.258,6.947 -12.258,6.947 l -2.452,60.001 c 0,0 -3.875,57.053 -3.875,97.054 0,40.001 0.197,153.687 0.197,153.687 0,0 -1.81,8.842 7.968,8.842 9.778,0 117.063,4.196 191.836,4.196 z"
     id="path17"
     inkscape:connector-curvature="0"
     style="fill:url(#a)" />
  <path
     d="M 364.632,113.686 H 93.048 c -5.558,0 -10.105,-4.547 -10.105,-10.105 V 70.107 c 0,-5.558 4.547,-10.105 10.105,-10.105 h 271.584 c 5.558,0 10.105,4.547 10.105,10.105 v 33.474 c 10e-4,5.558 -4.547,10.105 -10.105,10.105 m 0,248.847 H 93.048 c -5.558,0 -10.105,-4.547 -10.105,-10.105 V 163.582 c 0,-5.558 4.547,-10.105 10.105,-10.105 h 271.584 c 5.558,0 10.105,4.547 10.105,10.105 v 188.846 c 10e-4,5.558 -4.547,10.105 -10.105,10.105"
     id="path19"
     inkscape:connector-curvature="0"
     style="fill:#1d1d1b" />
  <path
     d="M 246.841,101.686 H 154.933 A 2.534,2.534 0 0 1 152.407,99.16 V 72.822 a 2.533,2.533 0 0 1 2.526,-2.526 h 91.908 a 2.533,2.533 0 0 1 2.526,2.526 V 99.16 a 2.534,2.534 0 0 1 -2.526,2.526 z"
     stroke-miterlimit="10"
     id="path21"
     inkscape:connector-curvature="0"
     style="fill:#111111;stroke:#ffffff;stroke-width:0.25;stroke-miterlimit:10" />
  <g
     id="g25"
     style="fill:#1d1d1b"
     transform="translate(0.001)">
    <path
       d="m 18.982,83.85 -1.192,2.185 -4.469,-8.204 h 2.385 z m -0.89,-2.738 1.79,-3.281 h 2.384 l -2.982,5.466 z M 22.96,77.83 h 2.09 v 8.205 h -2.09 v -8.204 z m 3.143,0 h 2.09 v 8.205 h -2.09 v -8.204 z m 2.687,2.048 v -2.047 h 0.891 c 1.156,0 2.14,0.399 2.953,1.199 0.814,0.8 1.22,1.767 1.22,2.902 0,1.13 -0.406,2.098 -1.22,2.902 -0.814,0.8 -1.798,1.2 -2.953,1.2 H 28.79 v -2.055 h 0.891 c 0.576,0 1.066,-0.2 1.474,-0.6 0.411,-0.4 0.618,-0.882 0.618,-1.448 0,-0.566 -0.207,-1.048 -0.618,-1.448 a 2.014,2.014 0 0 0 -1.474,-0.607 c 0,0.002 -0.891,0.002 -0.891,0.002 z m 6.124,-2.048 h 2.09 v 8.205 h -2.09 v -8.204 z m 2.687,0 h 3.277 v 2.048 H 37.6 v -2.047 z m 0,6.15 h 3.277 v 2.055 H 37.6 v -2.054 z m 0,-3.074 h 3.277 V 82.96 H 37.6 v -2.054 z m 10.572,1.316 h 2.097 c -0.06,1.012 -0.465,1.883 -1.213,2.613 -0.814,0.8 -1.799,1.2 -2.953,1.2 -1.15,0 -2.135,-0.4 -2.953,-1.2 -0.744,-0.731 -1.147,-1.602 -1.207,-2.613 h 2.097 c 0.06,0.446 0.258,0.832 0.59,1.158 0.406,0.4 0.897,0.6 1.473,0.6 0.575,0 1.068,-0.2 1.48,-0.6 0.332,-0.326 0.529,-0.712 0.59,-1.158 z m -4.132,-0.585 h -2.097 c 0.06,-1.007 0.463,-1.875 1.207,-2.606 0.818,-0.8 1.802,-1.2 2.953,-1.2 1.155,0 2.139,0.4 2.953,1.2 0.748,0.73 1.153,1.6 1.213,2.606 h -2.097 a 1.985,1.985 0 0 0 -0.589,-1.158 2.05,2.05 0 0 0 -1.48,-0.6 c -0.576,0 -1.067,0.2 -1.474,0.6 a 1.98,1.98 0 0 0 -0.589,1.158 z M 51.33,77.83 h 2.09 v 8.205 h -2.09 v -8.204 z m 2.687,2.048 v -2.047 h 0.968 c 0.72,0 1.335,0.25 1.845,0.751 0.51,0.502 0.765,1.104 0.765,1.807 0,0.712 -0.255,1.319 -0.765,1.82 a 2.537,2.537 0 0 1 -1.845,0.752 h -0.968 v -2.055 h 0.968 a 0.497,0.497 0 0 0 0.364,-0.144 0.501,0.501 0 0 0 0.154,-0.373 0.485,0.485 0 0 0 -0.154,-0.358 0.489,0.489 0 0 0 -0.364,-0.151 h -0.968 z m 8.46,2.875 -1.789,3.282 h -2.385 l 2.982,-5.467 z m 0.87,0.496 -1.768,-3.233 1.192,-2.185 4.476,8.204 h -2.385 l -0.4,-0.731 h -2.785 l 1.115,-2.055 z m 8.474,0.718 v 2.054 a 4.007,4.007 0 0 1 -2.658,-1.186 c -0.814,-0.805 -1.22,-1.772 -1.22,-2.902 0,-1.136 0.406,-2.103 1.22,-2.902 a 4.01,4.01 0 0 1 2.658,-1.186 v 2.054 c -0.453,0.06 -0.846,0.253 -1.178,0.579 a 1.98,1.98 0 0 0 -0.61,1.455 c 0,0.566 0.204,1.048 0.61,1.448 0.332,0.33 0.725,0.526 1.178,0.586 z m 2.035,-3.179 a 2.106,2.106 0 0 0 -0.259,-0.31 2.04,2.04 0 0 0 -1.178,-0.579 v -2.054 c 1.024,0.06 1.908,0.454 2.652,1.186 0.196,0.197 0.372,0.404 0.526,0.62 l -1.74,1.137 z m 1.74,3.427 c -0.154,0.216 -0.33,0.422 -0.526,0.62 -0.744,0.731 -1.628,1.126 -2.652,1.186 v -2.054 c 0.449,-0.06 0.842,-0.255 1.178,-0.587 0.099,-0.097 0.185,-0.198 0.26,-0.303 z"
       id="path23"
       inkscape:connector-curvature="0" />
  </g>
  <g
     id="g29"
     style="fill:#1d1d1b"
     transform="translate(0.001)">
    <path
       d="m 17.338,96.408 v 2.172 c -1.02,-0.063 -1.9,-0.481 -2.637,-1.254 -0.807,-0.85 -1.21,-1.873 -1.21,-3.068 0,-1.2 0.403,-2.223 1.21,-3.068 0.738,-0.772 1.617,-1.19 2.637,-1.253 v 2.171 c -0.45,0.063 -0.84,0.267 -1.169,0.613 -0.403,0.427 -0.605,0.94 -0.605,1.537 0,0.597 0.202,1.108 0.605,1.53 0.33,0.35 0.72,0.557 1.17,0.62 z m 2.019,-3.36 a 2.115,2.115 0 0 0 -0.258,-0.327 1.986,1.986 0 0 0 -1.17,-0.613 v -2.171 c 1.017,0.063 1.894,0.48 2.632,1.253 0.194,0.209 0.368,0.428 0.522,0.656 z m 1.726,3.622 a 5.248,5.248 0 0 1 -0.522,0.656 c -0.738,0.773 -1.615,1.19 -2.631,1.254 v -2.172 c 0.445,-0.063 0.835,-0.27 1.169,-0.62 0.097,-0.101 0.183,-0.208 0.258,-0.32 z m 7.369,-2.106 h 2.081 a 4.208,4.208 0 0 1 -1.204,2.762 c -0.807,0.846 -1.784,1.268 -2.93,1.268 -1.14,0 -2.118,-0.423 -2.93,-1.268 a 4.224,4.224 0 0 1 -1.196,-2.762 h 2.08 c 0.06,0.472 0.256,0.88 0.585,1.225 0.404,0.422 0.89,0.634 1.462,0.634 0.572,0 1.06,-0.212 1.468,-0.634 0.33,-0.345 0.524,-0.753 0.584,-1.225 z m -4.099,-0.619 h -2.08 a 4.216,4.216 0 0 1 1.196,-2.755 c 0.812,-0.845 1.79,-1.268 2.93,-1.268 1.146,0 2.123,0.423 2.93,1.268 a 4.2,4.2 0 0 1 1.204,2.755 h -2.08 a 2.146,2.146 0 0 0 -0.585,-1.224 c -0.409,-0.423 -0.898,-0.634 -1.469,-0.634 -0.571,0 -1.058,0.211 -1.461,0.634 -0.33,0.35 -0.524,0.758 -0.585,1.224 z M 31.584,92.4 v -2.478 l 4.44,3.097 4.433,-3.097 v 0.008 l 0.007,-0.008 -0.007,8.672 H 38.39 v -4.606 l -2.366,1.815 z m 2.074,2.208 v 3.987 H 31.584 V 93.02 Z m 7.836,-4.686 h 2.073 v 8.672 h -2.073 z m 2.665,2.165 v -2.165 h 0.96 c 0.715,0 1.325,0.265 1.83,0.794 0.506,0.53 0.76,1.166 0.76,1.91 0,0.753 -0.254,1.394 -0.76,1.924 -0.505,0.529 -1.115,0.794 -1.83,0.794 h -0.96 v -2.172 h 0.96 a 0.481,0.481 0 0 0 0.362,-0.153 0.549,0.549 0 0 0 0.154,-0.393 0.53,0.53 0 0 0 -0.154,-0.38 0.47,0.47 0 0 0 -0.362,-0.16 h -0.96 z M 52.9,89.922 h 2.073 v 5.422 c 0,0.899 -0.303,1.664 -0.911,2.295 -0.538,0.564 -1.172,0.877 -1.9,0.94 v -2.193 c 0.162,-0.053 0.308,-0.146 0.438,-0.277 0.2,-0.209 0.3,-0.464 0.3,-0.765 z m -1.33,6.464 v 2.194 c -0.732,-0.063 -1.366,-0.376 -1.9,-0.94 -0.607,-0.632 -0.91,-1.397 -0.91,-2.296 v -5.422 h 2.073 v 5.422 c 0,0.301 0.1,0.557 0.3,0.766 0.13,0.135 0.275,0.228 0.438,0.276 z m 5.937,-3.68 h 2.074 l -0.008,5.888 h -2.067 v -5.888 z m -1.482,-2.784 h 5.031 v 2.165 h -5.031 z m 6.068,0 h 2.074 v 8.672 h -2.074 z m 2.665,0 h 3.25 v 2.165 h -3.25 z m 0,6.5 h 3.25 v 2.172 h -3.25 v -2.171 z m 0,-3.25 h 3.25 v 2.172 h -3.25 z m 4.294,-3.25 h 2.074 v 8.672 h -2.074 z m 2.665,2.165 v -2.165 h 0.96 c 0.715,0 1.325,0.265 1.831,0.794 0.506,0.53 0.759,1.166 0.759,1.91 0,0.753 -0.253,1.394 -0.759,1.924 -0.506,0.529 -1.116,0.794 -1.83,0.794 h -0.96 v -2.172 h 0.96 a 0.481,0.481 0 0 0 0.362,-0.153 0.549,0.549 0 0 0 0.153,-0.393 0.53,0.53 0 0 0 -0.153,-0.38 0.47,0.47 0 0 0 -0.362,-0.16 h -0.96 z m 1.183,3.716 c 0.381,0 0.736,-0.068 1.065,-0.204 l 1.301,2.995 h -2.073 l -1.211,-2.79 H 72.9 Z"
       id="path27"
       inkscape:connector-curvature="0" />
  </g>
  <g
     id="g33"
     style="fill:#e20613"
     transform="translate(0.001)">
    <path
       d="m 306.107,68.76 h 6.612 v 3.37 h -6.612 z m 6.339,4.332 a 6.694,6.694 0 0 1 -1.427,2.118 c -1.29,1.315 -2.85,1.973 -4.676,1.973 -1.826,0 -3.384,-0.658 -4.675,-1.973 -1.291,-1.315 -1.937,-2.904 -1.937,-4.765 0,-1.861 0.646,-3.45 1.937,-4.765 1.291,-1.315 2.85,-1.973 4.675,-1.973 1.825,0 3.385,0.658 4.676,1.973 0.315,0.321 0.592,0.661 0.832,1.02 l -2.75,1.878 a 3.946,3.946 0 0 0 -0.415,-0.52 c -0.648,-0.655 -1.43,-0.982 -2.343,-0.982 -0.913,0 -1.694,0.33 -2.342,0.992 -0.643,0.654 -0.964,1.447 -0.964,2.377 0,0.93 0.321,1.726 0.964,2.387 0.648,0.655 1.43,0.982 2.342,0.982 a 3.13,3.13 0 0 0 2.05,-0.722 z m 10.993,-5.053 -2.56,9.144 h -3.542 l 2.56,-9.144 z m -7.765,-0.963 v -3.369 h 8.983 l -0.944,3.37 h -8.039 z m 20.29,3.85 h 3.325 c -0.1,1.655 -0.743,3.084 -1.926,4.283 -1.291,1.316 -2.85,1.973 -4.676,1.973 -1.826,0 -3.385,-0.657 -4.676,-1.973 -1.178,-1.2 -1.817,-2.628 -1.918,-4.283 h 3.325 c 0.095,0.725 0.407,1.357 0.936,1.896 0.642,0.661 1.42,0.992 2.333,0.992 0.913,0 1.694,-0.33 2.342,-0.992 0.53,-0.539 0.841,-1.17 0.935,-1.896 z m -6.546,-0.962 h -3.325 c 0.1,-1.656 0.74,-3.084 1.918,-4.284 1.29,-1.315 2.85,-1.973 4.676,-1.973 1.826,0 3.385,0.658 4.676,1.973 1.183,1.2 1.826,2.628 1.926,4.284 h -3.325 a 3.288,3.288 0 0 0 -0.935,-1.906 c -0.649,-0.655 -1.43,-0.982 -2.343,-0.982 -0.913,0 -1.69,0.327 -2.333,0.982 a 3.29,3.29 0 0 0 -0.935,1.906 z m 21.206,0.962 h 3.325 c -0.1,1.655 -0.743,3.084 -1.927,4.283 -1.29,1.316 -2.85,1.973 -4.675,1.973 -1.825,0 -3.385,-0.657 -4.676,-1.973 -1.178,-1.2 -1.817,-2.628 -1.918,-4.283 h 3.325 c 0.095,0.725 0.407,1.357 0.936,1.896 0.642,0.661 1.42,0.992 2.333,0.992 0.913,0 1.694,-0.33 2.342,-0.992 0.53,-0.539 0.841,-1.17 0.935,-1.896 z m -6.546,-0.962 h -3.325 c 0.1,-1.656 0.74,-3.084 1.918,-4.284 1.29,-1.315 2.85,-1.973 4.676,-1.973 1.826,0 3.385,0.658 4.675,1.973 1.184,1.2 1.827,2.628 1.927,4.284 h -3.325 a 3.288,3.288 0 0 0 -0.935,-1.906 c -0.649,-0.655 -1.43,-0.982 -2.343,-0.982 -0.913,0 -1.69,0.327 -2.333,0.982 a 3.293,3.293 0 0 0 -0.935,1.906 z m 21.207,0.962 h 3.325 c -0.1,1.655 -0.743,3.084 -1.927,4.283 -1.29,1.316 -2.85,1.973 -4.676,1.973 -1.826,0 -3.385,-0.657 -4.676,-1.973 -1.177,-1.2 -1.817,-2.628 -1.917,-4.283 h 3.325 c 0.094,0.725 0.406,1.357 0.935,1.896 0.642,0.661 1.42,0.992 2.333,0.992 0.913,0 1.694,-0.33 2.343,-0.992 0.529,-0.539 0.84,-1.17 0.935,-1.896 z m -6.546,-0.962 h -3.325 c 0.1,-1.656 0.74,-3.084 1.917,-4.284 1.291,-1.315 2.85,-1.973 4.676,-1.973 1.826,0 3.385,0.658 4.676,1.973 1.184,1.2 1.826,2.628 1.927,4.284 h -3.325 a 3.288,3.288 0 0 0 -0.936,-1.906 c -0.648,-0.655 -1.43,-0.982 -2.342,-0.982 -0.912,0 -1.691,0.327 -2.333,0.982 a 3.29,3.29 0 0 0 -0.935,1.906 z"
       id="path31"
       inkscape:connector-curvature="0" />
  </g>
  <g
     id="g37"
     style="fill:#f2f2f2"
     transform="translate(0.001)">
    <path
       d="m 329.174,102.523 h 2.72 c 0.808,0 1.428,0.18 1.859,0.542 0.434,0.358 0.651,0.87 0.651,1.534 0,0.668 -0.216,1.182 -0.651,1.544 -0.432,0.358 -1.051,0.537 -1.86,0.537 h -1.08 v 2.208 h -1.639 z m 1.639,1.19 v 1.777 h 0.906 c 0.318,0 0.563,-0.077 0.736,-0.23 0.173,-0.156 0.26,-0.376 0.26,-0.66 0,-0.285 -0.087,-0.504 -0.26,-0.657 -0.173,-0.153 -0.418,-0.23 -0.736,-0.23 z m 4.744,-1.19 h 1.639 v 2.426 h 2.417 v -2.426 h 1.638 v 6.365 h -1.638 v -2.698 h -2.417 v 2.698 h -1.639 z m 7.302,0 h 1.638 v 6.365 h -1.638 z m 3.251,0 h 1.638 v 5.125 h 2.876 v 1.24 h -4.514 z m 5.548,0 h 1.639 v 6.365 h -1.639 z m 3.252,0 h 2.719 c 0.808,0 1.428,0.18 1.86,0.542 0.433,0.358 0.65,0.87 0.65,1.534 0,0.668 -0.216,1.182 -0.65,1.544 -0.433,0.358 -1.052,0.537 -1.86,0.537 h -1.081 v 2.208 h -1.639 v -6.365 z m 1.638,1.19 v 1.777 h 0.906 c 0.318,0 0.563,-0.077 0.736,-0.23 0.173,-0.156 0.26,-0.376 0.26,-0.66 0,-0.285 -0.087,-0.504 -0.26,-0.657 -0.173,-0.153 -0.418,-0.23 -0.736,-0.23 z m 9.165,-0.989 v 1.347 a 5.88,5.88 0 0 0 -1.02,-0.354 4.01,4.01 0 0 0 -0.94,-0.12 c -0.393,0 -0.681,0.054 -0.87,0.163 -0.189,0.109 -0.28,0.275 -0.28,0.503 0,0.17 0.062,0.304 0.187,0.4 0.128,0.095 0.358,0.176 0.69,0.244 l 0.697,0.14 c 0.706,0.143 1.209,0.36 1.506,0.648 0.297,0.288 0.447,0.702 0.447,1.237 0,0.701 -0.209,1.225 -0.626,1.568 -0.414,0.341 -1.048,0.511 -1.902,0.511 -0.402,0 -0.807,-0.038 -1.213,-0.115 a 7.478,7.478 0 0 1 -1.216,-0.341 v -1.385 c 0.405,0.216 0.797,0.38 1.174,0.49 0.38,0.108 0.747,0.162 1.098,0.162 0.358,0 0.632,-0.06 0.822,-0.179 a 0.57,0.57 0 0 0 0.284,-0.511 c 0,-0.2 -0.065,-0.353 -0.195,-0.46 -0.128,-0.109 -0.385,-0.205 -0.77,-0.291 l -0.635,-0.141 c -0.636,-0.136 -1.101,-0.354 -1.396,-0.653 -0.292,-0.298 -0.438,-0.7 -0.438,-1.206 0,-0.633 0.203,-1.12 0.612,-1.462 0.409,-0.342 0.996,-0.512 1.761,-0.512 0.349,0 0.708,0.027 1.077,0.081 0.371,0.052 0.753,0.13 1.146,0.236 z"
       id="path35"
       inkscape:connector-curvature="0" />
  </g>
  <path
     d="m 99.977,90.897 h -14.28 v 10.174 c 0,3.137 0.145,4.519 1.527,6.253 1.445,1.795 3.487,2.724 5.654,2.724 2.043,0 4.21,-0.929 5.654,-2.765 1.341,-1.692 1.445,-2.992 1.445,-6.211 z m -13.888,0.412 h 13.517 v 9.864 c 0,2.848 -0.083,4.189 -1.465,5.923 -1.218,1.527 -3.137,2.497 -5.283,2.497 -2.126,0 -4.148,-1.011 -5.386,-2.6 -1.341,-1.733 -1.383,-2.93 -1.383,-6.129 z m 13.187,11.557 c 0,-3.508 -2.848,-6.376 -6.418,-6.376 -3.57,0 -6.438,2.868 -6.438,6.376 0,3.57 2.868,6.439 6.397,6.439 3.57,-0.001 6.459,-2.89 6.459,-6.439 z M 88.524,93.641 c 0,-0.949 -0.867,-0.949 -1.919,-0.949 v 2.414 h 0.66 V 94.57 c 0.826,0 1.259,-0.33 1.259,-0.929 z m 0.908,-0.949 h -0.599 v 2.414 h 0.599 v -0.908 h 0.64 v 0.908 h 0.64 v -2.414 h -0.64 v 0.887 h -0.64 z m 2.477,0 h -0.598 v 2.414 h 0.598 z m 1.238,0 h -0.619 v 2.414 h 1.259 V 94.57 h -0.64 z m 1.589,0 h -0.619 v 2.414 h 0.619 z m 2.538,0.949 c 0,-0.949 -0.97,-0.949 -1.898,-0.949 v 2.414 h 0.619 V 94.57 c 0.701,0 1.279,-0.227 1.279,-0.929 z m 0.248,0.929 v 0.578 c 0.207,0.021 0.33,0.041 0.475,0.041 0.743,0 1.094,-0.351 1.094,-0.867 0,-0.784 -0.887,-0.537 -0.887,-0.867 0,-0.103 0.144,-0.165 0.413,-0.165 h 0.227 v -0.599 c -0.887,0 -1.403,0.124 -1.403,0.743 0,0.846 0.949,0.681 0.949,0.949 0,0.103 -0.206,0.186 -0.495,0.186 h -0.373 z m -10.628,7.78 c 0.578,-0.248 0.97,-0.351 1.424,-0.351 1.279,0 1.672,0.825 3.075,0.825 1.052,0 1.898,-0.825 3.116,-0.825 1.032,0 2.043,0.805 2.848,0.805 0.764,0 1.259,-0.268 1.465,-0.392 l 0.021,0.248 c -0.392,0.289 -0.764,0.454 -1.403,0.454 -1.135,0 -1.816,-0.825 -2.951,-0.825 -1.218,0 -1.96,0.846 -3.095,0.846 -1.259,0 -1.878,-0.805 -3.033,-0.805 -0.475,0 -1.094,0.145 -1.465,0.289 v -0.269 z m 3.013,-4.643 c 0.66,-0.351 0.846,-0.413 1.341,-0.557 l -0.165,1.032 -1.073,0.186 z m 0,4.292 0.248,-1.775 1.981,-0.33 -0.702,-0.124 0.165,-1.114 1.156,-0.248 -1.156,-0.227 -0.165,-1.094 c 0.578,-0.124 0.867,-0.165 1.362,-0.165 3.24,0 5.365,2.249 5.985,5.035 -0.309,0.227 -0.722,0.413 -1.383,0.413 -1.176,0 -1.713,-0.825 -3.013,-0.825 -1.28,0 -1.837,0.867 -3.054,0.867 -0.661,0 -1.073,-0.165 -1.424,-0.413 z m 0.103,-3.508 1.073,0.165 0.124,1.052 -1.052,-0.144 z m -3.137,4.622 c 0.949,-0.31 1.073,-0.351 1.445,-0.351 1.3,0 1.795,0.825 3.054,0.825 1.011,0 1.94,-0.867 3.095,-0.867 1.073,0 1.672,0.825 2.951,0.825 0.433,0 0.825,-0.103 1.424,-0.33 v 0.227 c -0.516,0.31 -0.867,0.413 -1.486,0.413 -1.28,0 -1.816,-0.805 -2.91,-0.805 -1.3,0 -1.878,0.825 -3.096,0.825 -1.176,0 -1.878,-0.805 -3.095,-0.805 -0.31,0 -0.702,0.083 -1.362,0.289 z m 0.062,0.681 c 0.557,-0.206 0.908,-0.289 1.341,-0.289 1.238,0 1.837,0.846 3.054,0.846 1.156,0 1.878,-0.846 3.095,-0.846 0.578,0 0.991,0.144 1.362,0.392 l -0.206,1.651 -2.002,0.371 0.702,0.165 -0.124,1.073 -1.218,0.248 1.218,0.309 0.186,0.97 a 5.38,5.38 0 0 1 -1.383,0.165 c -3.136,10e-4 -5.571,-2.186 -6.025,-5.055 z m 0,-1.919 c 0.165,-0.867 0.289,-1.197 0.66,-1.878 l 1.898,0.227 0.186,1.672 c -0.66,-0.268 -0.991,-0.351 -1.321,-0.351 -0.494,0 -1.031,0.165 -1.423,0.33 z m 7.574,4.251 1.073,0.124 0.103,1.011 -1.052,-0.103 z m 0.062,2.477 0.062,-0.887 1.073,-0.206 0.103,0.557 c -0.433,0.267 -0.619,0.35 -1.238,0.536 z M 87.265,93.291 c 0.371,0 0.516,0.062 0.516,0.33 0,0.31 -0.144,0.392 -0.516,0.392 z m 8.73,0 c 0.371,0 0.537,0.021 0.537,0.371 0,0.289 -0.227,0.351 -0.537,0.351 z m 0.041,10.73 c 0.516,0.165 0.949,0.268 1.444,0.268 0.433,0 0.681,-0.062 1.28,-0.33 a 4.91,4.91 0 0 1 -0.619,1.775 l -1.96,-0.186 z m 0.041,3.921 0.103,-1.692 1.775,-0.248 c -0.516,0.888 -0.887,1.3 -1.878,1.94 z M 87.72,99.791 c 0.516,-0.805 0.97,-1.362 1.981,-1.981 l -0.206,1.754 z"
     id="path39"
     inkscape:connector-curvature="0"
     style="fill:#f5f5f5" />
  <path
     d="M 360.64,189.453 H 100.835 c -3.471,0 -6.311,-2.84 -6.311,-6.311 v -11.658 c 0,-3.471 2.84,-6.311 6.311,-6.311 H 360.64 c 3.471,0 6.311,2.84 6.311,6.311 v 11.658 c 0,3.471 -2.84,6.311 -6.311,6.311 z"
     stroke-miterlimit="10"
     id="path41"
     inkscape:connector-curvature="0"
     style="fill:none;stroke:#ffffff;stroke-width:1.26699996;stroke-miterlimit:10" />
  <path
     d="m 98.144,182.528 v -7.905 a 3.526,3.526 0 0 1 3.526,-3.526 h 17.466 a 3.526,3.526 0 0 1 3.526,3.526 v 7.905 a 3.526,3.526 0 0 1 -3.526,3.526 H 101.67 a 3.526,3.526 0 0 1 -3.526,-3.526 z"
     stroke-miterlimit="10"
     id="path43"
     inkscape:connector-curvature="0"
     style="fill:none;stroke:#ffffff;stroke-width:0.94400001;stroke-miterlimit:10" />
  <path
     d="m 119.138,185.044 h -17.471 a 2.525,2.525 0 0 1 -2.518,-2.518 v -7.901 a 2.525,2.525 0 0 1 2.518,-2.518 h 17.471 a 2.525,2.525 0 0 1 2.518,2.518 v 7.901 a 2.525,2.525 0 0 1 -2.518,2.518 z"
     id="path45"
     inkscape:connector-curvature="0"
     style="fill:#ffffff" />
  <path
     d="m 124.939,182.528 v -7.905 a 3.526,3.526 0 0 1 3.526,-3.526 h 17.466 a 3.526,3.526 0 0 1 3.526,3.526 v 7.905 a 3.526,3.526 0 0 1 -3.526,3.526 h -17.466 a 3.526,3.526 0 0 1 -3.526,-3.526 z"
     stroke-miterlimit="10"
     id="path47"
     inkscape:connector-curvature="0"
     style="fill:none;stroke:#ffffff;stroke-width:0.94400001;stroke-miterlimit:10" />
  <path
     d="m 145.932,185.044 h -17.471 a 2.525,2.525 0 0 1 -2.518,-2.518 v -7.901 a 2.525,2.525 0 0 1 2.518,-2.518 h 17.471 a 2.525,2.525 0 0 1 2.518,2.518 v 7.901 a 2.525,2.525 0 0 1 -2.518,2.518 z"
     id="path49"
     inkscape:connector-curvature="0"
     style="fill:#ffffff" />
  <path
     d="m 151.732,182.528 v -7.905 a 3.526,3.526 0 0 1 3.526,-3.526 h 17.466 a 3.526,3.526 0 0 1 3.526,3.526 v 7.905 a 3.526,3.526 0 0 1 -3.526,3.526 h -17.466 a 3.526,3.526 0 0 1 -3.526,-3.526 z"
     stroke-miterlimit="10"
     id="path51"
     inkscape:connector-curvature="0"
     style="fill:none;stroke:#ffffff;stroke-width:0.94400001;stroke-miterlimit:10" />
  <path
     d="m 172.726,185.044 h -17.471 a 2.525,2.525 0 0 1 -2.518,-2.518 v -7.901 a 2.525,2.525 0 0 1 2.518,-2.518 h 17.471 a 2.525,2.525 0 0 1 2.518,2.518 v 7.901 a 2.525,2.525 0 0 1 -2.518,2.518 z"
     id="path53"
     inkscape:connector-curvature="0"
     style="fill:#ffffff" />
  <path
     d="m 178.526,182.528 v -7.905 a 3.526,3.526 0 0 1 3.526,-3.526 h 17.466 a 3.526,3.526 0 0 1 3.526,3.526 v 7.905 a 3.526,3.526 0 0 1 -3.526,3.526 h -17.466 a 3.526,3.526 0 0 1 -3.526,-3.526 z"
     stroke-miterlimit="10"
     id="path55"
     inkscape:connector-curvature="0"
     style="fill:none;stroke:#ffffff;stroke-width:0.94400001;stroke-miterlimit:10" />
  <path
     d="m 199.52,185.044 h -17.471 a 2.525,2.525 0 0 1 -2.518,-2.518 v -7.901 a 2.525,2.525 0 0 1 2.518,-2.518 h 17.471 a 2.525,2.525 0 0 1 2.518,2.518 v 7.901 a 2.525,2.525 0 0 1 -2.518,2.518 z"
     id="path57"
     inkscape:connector-curvature="0"
     style="fill:#ffffff" />
  <path
     d="m 205.32,182.528 v -7.905 a 3.526,3.526 0 0 1 3.526,-3.526 h 17.466 a 3.526,3.526 0 0 1 3.526,3.526 v 7.905 a 3.526,3.526 0 0 1 -3.526,3.526 h -17.466 a 3.526,3.526 0 0 1 -3.526,-3.526 z"
     stroke-miterlimit="10"
     id="path59"
     inkscape:connector-curvature="0"
     style="fill:none;stroke:#ffffff;stroke-width:0.94400001;stroke-miterlimit:10" />
  <path
     d="m 226.314,185.044 h -17.471 a 2.525,2.525 0 0 1 -2.518,-2.518 v -7.901 a 2.525,2.525 0 0 1 2.518,-2.518 h 17.471 a 2.525,2.525 0 0 1 2.518,2.518 v 7.901 a 2.525,2.525 0 0 1 -2.518,2.518 z"
     id="path61"
     inkscape:connector-curvature="0"
     style="fill:#ffffff" />
  <path
     d="m 232.114,182.528 v -7.905 a 3.526,3.526 0 0 1 3.526,-3.526 h 17.465 a 3.526,3.526 0 0 1 3.526,3.526 v 7.905 a 3.526,3.526 0 0 1 -3.526,3.526 H 235.64 a 3.526,3.526 0 0 1 -3.526,-3.526 z"
     stroke-miterlimit="10"
     id="path63"
     inkscape:connector-curvature="0"
     style="fill:none;stroke:#ffffff;stroke-width:0.94400001;stroke-miterlimit:10" />
  <path
     d="m 253.107,185.044 h -17.471 a 2.525,2.525 0 0 1 -2.518,-2.518 v -7.901 a 2.525,2.525 0 0 1 2.518,-2.518 h 17.471 a 2.525,2.525 0 0 1 2.518,2.518 v 7.901 a 2.524,2.524 0 0 1 -2.518,2.518 z"
     id="path65"
     inkscape:connector-curvature="0"
     style="fill:#ffffff" />
  <path
     d="m 258.907,182.528 v -7.905 a 3.526,3.526 0 0 1 3.526,-3.526 h 17.466 a 3.526,3.526 0 0 1 3.526,3.526 v 7.905 a 3.526,3.526 0 0 1 -3.526,3.526 h -17.466 a 3.526,3.526 0 0 1 -3.526,-3.526 z"
     stroke-miterlimit="10"
     id="path67"
     inkscape:connector-curvature="0"
     style="fill:none;stroke:#ffffff;stroke-width:0.94400001;stroke-miterlimit:10" />
  <path
     d="m 279.901,185.044 h -17.47 a 2.525,2.525 0 0 1 -2.518,-2.518 v -7.901 a 2.525,2.525 0 0 1 2.518,-2.518 h 17.47 a 2.525,2.525 0 0 1 2.518,2.518 v 7.901 a 2.525,2.525 0 0 1 -2.518,2.518 z"
     id="path69"
     inkscape:connector-curvature="0"
     style="fill:#ffffff" />
  <path
     d="m 285.701,182.528 v -7.905 a 3.526,3.526 0 0 1 3.526,-3.526 h 17.466 a 3.526,3.526 0 0 1 3.526,3.526 v 7.905 a 3.526,3.526 0 0 1 -3.526,3.526 h -17.466 a 3.526,3.526 0 0 1 -3.526,-3.526 z"
     stroke-miterlimit="10"
     id="path71"
     inkscape:connector-curvature="0"
     style="fill:none;stroke:#ffffff;stroke-width:0.94400001;stroke-miterlimit:10" />
  <path
     d="m 306.695,185.044 h -17.471 a 2.525,2.525 0 0 1 -2.518,-2.518 v -7.901 a 2.525,2.525 0 0 1 2.518,-2.518 h 17.471 a 2.525,2.525 0 0 1 2.518,2.518 v 7.901 a 2.525,2.525 0 0 1 -2.518,2.518 z"
     id="path73"
     inkscape:connector-curvature="0"
     style="fill:#ffffff" />
  <path
     d="m 312.495,182.528 v -7.905 a 3.526,3.526 0 0 1 3.526,-3.526 h 17.466 a 3.526,3.526 0 0 1 3.526,3.526 v 7.905 a 3.526,3.526 0 0 1 -3.526,3.526 h -17.466 a 3.526,3.526 0 0 1 -3.526,-3.526 z"
     stroke-miterlimit="10"
     id="path75"
     inkscape:connector-curvature="0"
     style="fill:none;stroke:#ffffff;stroke-width:0.94400001;stroke-miterlimit:10" />
  <path
     d="m 333.489,185.044 h -17.471 a 2.525,2.525 0 0 1 -2.518,-2.518 v -7.901 a 2.525,2.525 0 0 1 2.518,-2.518 h 17.471 a 2.525,2.525 0 0 1 2.518,2.518 v 7.901 a 2.525,2.525 0 0 1 -2.518,2.518 z"
     id="path77"
     inkscape:connector-curvature="0"
     style="fill:#ffffff" />
  <path
     d="m 339.289,182.528 v -7.905 a 3.526,3.526 0 0 1 3.526,-3.526 h 17.465 a 3.526,3.526 0 0 1 3.526,3.526 v 7.905 a 3.526,3.526 0 0 1 -3.526,3.526 h -17.465 a 3.526,3.526 0 0 1 -3.526,-3.526 z"
     stroke-miterlimit="10"
     id="path79"
     inkscape:connector-curvature="0"
     style="fill:none;stroke:#ffffff;stroke-width:0.94400001;stroke-miterlimit:10" />
  <path
     d="m 360.283,185.044 h -17.471 a 2.525,2.525 0 0 1 -2.518,-2.518 v -7.901 a 2.525,2.525 0 0 1 2.518,-2.518 h 17.471 a 2.525,2.525 0 0 1 2.518,2.518 v 7.901 a 2.525,2.525 0 0 1 -2.518,2.518 z"
     id="path81"
     inkscape:connector-curvature="0"
     style="fill:#ffffff" />
  <g
     id="g125"
     transform="translate(0.001)">
    <path
       d="M 360.639,221.639 H 100.834 c -3.471,0 -6.311,-2.84 -6.311,-6.311 V 203.67 c 0,-3.471 2.84,-6.311 6.311,-6.311 h 259.805 c 3.471,0 6.311,2.84 6.311,6.311 v 11.658 c 0,3.471 -2.84,6.311 -6.311,6.311 z"
       stroke-miterlimit="10"
       id="path83"
       inkscape:connector-curvature="0"
       style="fill:none;stroke:#ffffff;stroke-width:1.26199996;stroke-miterlimit:10" />
    <path
       d="m 101.677,217.389 a 3.538,3.538 0 0 1 -3.534,-3.534 v -6.627 a 3.538,3.538 0 0 1 3.534,-3.534 h 17.566 a 3.538,3.538 0 0 1 3.534,3.534 v 6.627 a 3.538,3.538 0 0 1 -3.534,3.534 z"
       id="path85"
       inkscape:connector-curvature="0"
       style="fill:#8f5240" />
    <path
       d="m 119.243,216.38 h -17.566 a 2.532,2.532 0 0 1 -2.524,-2.524 v -6.627 a 2.532,2.532 0 0 1 2.524,-2.524 h 17.566 a 2.532,2.532 0 0 1 2.524,2.524 v 6.627 a 2.532,2.532 0 0 1 -2.524,2.524 z"
       id="path87"
       inkscape:connector-curvature="0"
       style="fill:#ffffff" />
    <path
       d="m 128.458,217.389 a 3.538,3.538 0 0 1 -3.534,-3.534 v -6.627 a 3.538,3.538 0 0 1 3.534,-3.534 h 17.565 a 3.538,3.538 0 0 1 3.534,3.534 v 6.627 a 3.538,3.538 0 0 1 -3.534,3.534 z"
       id="path89"
       inkscape:connector-curvature="0"
       style="fill:#8f5240" />
    <path
       d="m 146.024,216.38 h -17.566 a 2.532,2.532 0 0 1 -2.524,-2.524 v -6.627 a 2.532,2.532 0 0 1 2.524,-2.524 h 17.566 a 2.532,2.532 0 0 1 2.524,2.524 v 6.627 a 2.532,2.532 0 0 1 -2.524,2.524 z"
       id="path91"
       inkscape:connector-curvature="0"
       style="fill:#ffffff" />
    <path
       d="m 155.239,217.389 a 3.538,3.538 0 0 1 -3.534,-3.534 v -6.627 a 3.538,3.538 0 0 1 3.534,-3.534 h 17.565 a 3.538,3.538 0 0 1 3.534,3.534 v 6.627 a 3.538,3.538 0 0 1 -3.534,3.534 z"
       id="path93"
       inkscape:connector-curvature="0"
       style="fill:#8f5240" />
    <path
       d="m 172.805,216.38 h -17.566 a 2.532,2.532 0 0 1 -2.524,-2.524 v -6.627 a 2.532,2.532 0 0 1 2.524,-2.524 h 17.566 a 2.532,2.532 0 0 1 2.524,2.524 v 6.627 a 2.532,2.532 0 0 1 -2.524,2.524 z"
       id="path95"
       inkscape:connector-curvature="0"
       style="fill:#ffffff" />
    <path
       d="m 182.02,217.389 a 3.538,3.538 0 0 1 -3.534,-3.534 v -6.627 a 3.538,3.538 0 0 1 3.534,-3.534 h 17.565 a 3.538,3.538 0 0 1 3.535,3.534 v 6.627 a 3.538,3.538 0 0 1 -3.535,3.534 z"
       id="path97"
       inkscape:connector-curvature="0"
       style="fill:#8f5240" />
    <path
       d="M 199.586,216.38 H 182.02 a 2.532,2.532 0 0 1 -2.524,-2.524 v -6.627 a 2.532,2.532 0 0 1 2.524,-2.524 h 17.566 a 2.532,2.532 0 0 1 2.524,2.524 v 6.627 a 2.532,2.532 0 0 1 -2.524,2.524 z"
       id="path99"
       inkscape:connector-curvature="0"
       style="fill:#ffffff" />
    <path
       d="m 208.801,217.389 a 3.538,3.538 0 0 1 -3.534,-3.534 v -6.627 a 3.538,3.538 0 0 1 3.534,-3.534 h 17.566 a 3.538,3.538 0 0 1 3.534,3.534 v 6.627 a 3.538,3.538 0 0 1 -3.534,3.534 z"
       id="path101"
       inkscape:connector-curvature="0"
       style="fill:#8f5240" />
    <path
       d="m 226.367,216.38 h -17.566 a 2.532,2.532 0 0 1 -2.524,-2.524 v -6.627 a 2.532,2.532 0 0 1 2.524,-2.524 h 17.566 a 2.532,2.532 0 0 1 2.524,2.524 v 6.627 a 2.532,2.532 0 0 1 -2.524,2.524 z"
       id="path103"
       inkscape:connector-curvature="0"
       style="fill:#ffffff" />
    <path
       d="m 235.582,217.389 a 3.538,3.538 0 0 1 -3.534,-3.534 v -6.627 a 3.538,3.538 0 0 1 3.534,-3.534 h 17.566 a 3.538,3.538 0 0 1 3.534,3.534 v 6.627 a 3.538,3.538 0 0 1 -3.534,3.534 z"
       id="path105"
       inkscape:connector-curvature="0"
       style="fill:#8f5240" />
    <path
       d="m 253.147,216.38 h -17.566 a 2.532,2.532 0 0 1 -2.524,-2.524 v -6.627 a 2.532,2.532 0 0 1 2.524,-2.524 h 17.566 a 2.532,2.532 0 0 1 2.524,2.524 v 6.627 a 2.53,2.53 0 0 1 -2.524,2.524 z"
       id="path107"
       inkscape:connector-curvature="0"
       style="fill:#ffffff" />
    <path
       d="m 262.363,217.389 a 3.538,3.538 0 0 1 -3.534,-3.534 v -6.627 a 3.538,3.538 0 0 1 3.534,-3.534 h 17.566 a 3.538,3.538 0 0 1 3.534,3.534 v 6.627 a 3.538,3.538 0 0 1 -3.534,3.534 z"
       id="path109"
       inkscape:connector-curvature="0"
       style="fill:#8f5240" />
    <path
       d="m 279.928,216.38 h -17.566 a 2.532,2.532 0 0 1 -2.524,-2.524 v -6.627 a 2.532,2.532 0 0 1 2.524,-2.524 h 17.566 a 2.532,2.532 0 0 1 2.524,2.524 v 6.627 a 2.53,2.53 0 0 1 -2.524,2.524 z"
       id="path111"
       inkscape:connector-curvature="0"
       style="fill:#ffffff" />
    <path
       d="m 289.144,217.389 a 3.538,3.538 0 0 1 -3.534,-3.534 v -6.627 a 3.538,3.538 0 0 1 3.534,-3.534 h 17.565 a 3.538,3.538 0 0 1 3.534,3.534 v 6.627 a 3.538,3.538 0 0 1 -3.534,3.534 z"
       id="path113"
       inkscape:connector-curvature="0"
       style="fill:#8f5240" />
    <path
       d="m 306.709,216.38 h -17.566 a 2.532,2.532 0 0 1 -2.524,-2.524 v -6.627 a 2.532,2.532 0 0 1 2.524,-2.524 h 17.566 a 2.532,2.532 0 0 1 2.524,2.524 v 6.627 a 2.53,2.53 0 0 1 -2.524,2.524 z"
       id="path115"
       inkscape:connector-curvature="0"
       style="fill:#ffffff" />
    <path
       d="m 315.925,217.389 a 3.538,3.538 0 0 1 -3.534,-3.534 v -6.627 a 3.538,3.538 0 0 1 3.534,-3.534 h 17.565 a 3.538,3.538 0 0 1 3.534,3.534 v 6.627 a 3.538,3.538 0 0 1 -3.534,3.534 z"
       id="path117"
       inkscape:connector-curvature="0"
       style="fill:#8f5240" />
    <path
       d="m 333.49,216.38 h -17.566 a 2.532,2.532 0 0 1 -2.524,-2.524 v -6.627 a 2.532,2.532 0 0 1 2.524,-2.524 h 17.566 a 2.532,2.532 0 0 1 2.524,2.524 v 6.627 a 2.53,2.53 0 0 1 -2.524,2.524 z"
       id="path119"
       inkscape:connector-curvature="0"
       style="fill:#ffffff" />
    <path
       d="m 342.706,217.389 a 3.538,3.538 0 0 1 -3.534,-3.534 v -6.627 a 3.538,3.538 0 0 1 3.534,-3.534 h 17.565 a 3.538,3.538 0 0 1 3.534,3.534 v 6.627 a 3.538,3.538 0 0 1 -3.534,3.534 z"
       stroke-miterlimit="10"
       id="path121"
       inkscape:connector-curvature="0"
       style="fill:none;stroke:#ffffff;stroke-width:0.94700003;stroke-miterlimit:10" />
    <path
       d="m 360.271,216.38 h -17.566 a 2.532,2.532 0 0 1 -2.524,-2.524 v -6.627 a 2.532,2.532 0 0 1 2.524,-2.524 h 17.566 a 2.532,2.532 0 0 1 2.524,2.524 v 6.627 a 2.53,2.53 0 0 1 -2.524,2.524 z"
       id="path123"
       inkscape:connector-curvature="0"
       style="fill:#e20613" />
  </g>
  <g
     id="g245"
     transform="translate(0.001)">
    <path
       d="M 360.639,349.752 H 100.834 c -3.471,0 -6.311,-2.84 -6.311,-6.311 v -97.487 c 0,-3.471 2.84,-6.311 6.311,-6.311 h 259.805 c 3.471,0 6.311,2.84 6.311,6.311 v 97.487 c 0,3.471 -2.84,6.311 -6.311,6.311 z"
       stroke-miterlimit="10"
       id="path127"
       inkscape:connector-curvature="0"
       style="fill:none;stroke:#ffffff;stroke-width:1.26199996;stroke-miterlimit:10" />
    <path
       d="m 101.255,260.725 a 3.538,3.538 0 0 1 -3.534,-3.534 v -7.889 a 3.538,3.538 0 0 1 3.534,-3.534 h 17.565 a 3.538,3.538 0 0 1 3.534,3.534 v 7.889 a 3.538,3.538 0 0 1 -3.534,3.534 z"
       stroke-miterlimit="10"
       id="path129"
       inkscape:connector-curvature="0"
       style="fill:none;stroke:#ffffff;stroke-width:0.94700003;stroke-miterlimit:10" />
    <path
       d="m 118.821,259.715 h -17.566 a 2.532,2.532 0 0 1 -2.524,-2.524 v -7.889 a 2.532,2.532 0 0 1 2.524,-2.524 h 17.566 a 2.532,2.532 0 0 1 2.524,2.524 v 7.889 a 2.532,2.532 0 0 1 -2.524,2.524 z"
       id="path131"
       inkscape:connector-curvature="0"
       style="fill:#ffffff" />
    <path
       d="m 128.176,260.725 a 3.538,3.538 0 0 1 -3.534,-3.534 v -7.889 a 3.538,3.538 0 0 1 3.534,-3.534 h 17.566 a 3.538,3.538 0 0 1 3.534,3.534 v 7.889 a 3.538,3.538 0 0 1 -3.534,3.534 z"
       stroke-miterlimit="10"
       id="path133"
       inkscape:connector-curvature="0"
       style="fill:none;stroke:#ffffff;stroke-width:0.94700003;stroke-miterlimit:10" />
    <path
       d="m 145.742,259.715 h -17.566 a 2.532,2.532 0 0 1 -2.524,-2.524 v -7.889 a 2.532,2.532 0 0 1 2.524,-2.524 h 17.566 a 2.532,2.532 0 0 1 2.524,2.524 v 7.889 a 2.532,2.532 0 0 1 -2.524,2.524 z"
       id="path135"
       inkscape:connector-curvature="0"
       style="fill:#ffffff" />
    <path
       d="m 155.098,260.725 a 3.538,3.538 0 0 1 -3.534,-3.534 v -7.889 a 3.538,3.538 0 0 1 3.534,-3.534 h 17.565 a 3.538,3.538 0 0 1 3.534,3.534 v 7.889 a 3.538,3.538 0 0 1 -3.534,3.534 z"
       stroke-miterlimit="10"
       id="path137"
       inkscape:connector-curvature="0"
       style="fill:none;stroke:#ffffff;stroke-width:0.94700003;stroke-miterlimit:10" />
    <path
       d="m 172.663,259.715 h -17.566 a 2.532,2.532 0 0 1 -2.524,-2.524 v -7.889 a 2.532,2.532 0 0 1 2.524,-2.524 h 17.566 a 2.532,2.532 0 0 1 2.524,2.524 v 7.889 a 2.532,2.532 0 0 1 -2.524,2.524 z"
       id="path139"
       inkscape:connector-curvature="0"
       style="fill:#ffffff" />
    <path
       d="m 182.018,260.725 a 3.538,3.538 0 0 1 -3.534,-3.534 v -7.889 a 3.538,3.538 0 0 1 3.534,-3.534 h 17.566 a 3.537,3.537 0 0 1 3.533,3.534 v 7.889 a 3.537,3.537 0 0 1 -3.533,3.534 z"
       stroke-miterlimit="10"
       id="path141"
       inkscape:connector-curvature="0"
       style="fill:none;stroke:#ffffff;stroke-width:0.94700003;stroke-miterlimit:10" />
    <path
       d="m 199.584,259.715 h -17.566 a 2.532,2.532 0 0 1 -2.524,-2.524 v -7.889 a 2.532,2.532 0 0 1 2.524,-2.524 h 17.566 a 2.532,2.532 0 0 1 2.524,2.524 v 7.889 a 2.531,2.531 0 0 1 -2.524,2.524 z"
       id="path143"
       inkscape:connector-curvature="0"
       style="fill:#ffffff" />
    <path
       d="m 208.939,260.725 a 3.538,3.538 0 0 1 -3.534,-3.534 v -7.889 a 3.538,3.538 0 0 1 3.534,-3.534 h 17.566 a 3.538,3.538 0 0 1 3.534,3.534 v 7.889 a 3.538,3.538 0 0 1 -3.534,3.534 z"
       stroke-miterlimit="10"
       id="path145"
       inkscape:connector-curvature="0"
       style="fill:none;stroke:#ffffff;stroke-width:0.94700003;stroke-miterlimit:10" />
    <path
       d="M 226.505,259.715 H 208.94 a 2.532,2.532 0 0 1 -2.524,-2.524 v -7.889 a 2.532,2.532 0 0 1 2.524,-2.524 h 17.566 a 2.532,2.532 0 0 1 2.524,2.524 v 7.889 a 2.532,2.532 0 0 1 -2.525,2.524 z"
       id="path147"
       inkscape:connector-curvature="0"
       style="fill:#ffffff" />
    <path
       d="m 235.861,260.725 a 3.538,3.538 0 0 1 -3.534,-3.534 v -7.889 a 3.538,3.538 0 0 1 3.534,-3.534 h 17.566 a 3.538,3.538 0 0 1 3.534,3.534 v 7.889 a 3.538,3.538 0 0 1 -3.534,3.534 z"
       stroke-miterlimit="10"
       id="path149"
       inkscape:connector-curvature="0"
       style="fill:none;stroke:#ffffff;stroke-width:0.94700003;stroke-miterlimit:10" />
    <path
       d="M 253.426,259.715 H 235.86 a 2.532,2.532 0 0 1 -2.524,-2.524 v -7.889 a 2.532,2.532 0 0 1 2.524,-2.524 h 17.566 a 2.532,2.532 0 0 1 2.524,2.524 v 7.889 a 2.53,2.53 0 0 1 -2.524,2.524 z"
       id="path151"
       inkscape:connector-curvature="0"
       style="fill:#ffffff" />
    <path
       d="m 262.782,260.725 a 3.538,3.538 0 0 1 -3.534,-3.534 v -7.889 a 3.538,3.538 0 0 1 3.534,-3.534 h 17.566 a 3.538,3.538 0 0 1 3.534,3.534 v 7.889 a 3.538,3.538 0 0 1 -3.534,3.534 z"
       stroke-miterlimit="10"
       id="path153"
       inkscape:connector-curvature="0"
       style="fill:none;stroke:#ffffff;stroke-width:0.94700003;stroke-miterlimit:10" />
    <path
       d="m 280.347,259.715 h -17.566 a 2.532,2.532 0 0 1 -2.524,-2.524 v -7.889 a 2.532,2.532 0 0 1 2.524,-2.524 h 17.566 a 2.532,2.532 0 0 1 2.524,2.524 v 7.889 a 2.53,2.53 0 0 1 -2.524,2.524 z"
       id="path155"
       inkscape:connector-curvature="0"
       style="fill:#ffffff" />
    <path
       d="m 289.704,260.725 a 3.538,3.538 0 0 1 -3.534,-3.534 v -7.889 a 3.538,3.538 0 0 1 3.534,-3.534 h 17.565 a 3.538,3.538 0 0 1 3.534,3.534 v 7.889 a 3.538,3.538 0 0 1 -3.534,3.534 z"
       stroke-miterlimit="10"
       id="path157"
       inkscape:connector-curvature="0"
       style="fill:none;stroke:#ffffff;stroke-width:0.94700003;stroke-miterlimit:10" />
    <path
       d="m 307.269,259.715 h -17.566 a 2.532,2.532 0 0 1 -2.524,-2.524 v -7.889 a 2.532,2.532 0 0 1 2.524,-2.524 h 17.566 a 2.532,2.532 0 0 1 2.524,2.524 v 7.889 a 2.532,2.532 0 0 1 -2.524,2.524 z"
       id="path159"
       inkscape:connector-curvature="0"
       style="fill:#ffffff" />
    <path
       d="m 316.624,260.725 a 3.538,3.538 0 0 1 -3.534,-3.534 v -7.889 a 3.538,3.538 0 0 1 3.534,-3.534 h 17.566 a 3.538,3.538 0 0 1 3.534,3.534 v 7.889 a 3.538,3.538 0 0 1 -3.534,3.534 z"
       stroke-miterlimit="10"
       id="path161"
       inkscape:connector-curvature="0"
       style="fill:none;stroke:#ffffff;stroke-width:0.94700003;stroke-miterlimit:10" />
    <path
       d="m 334.19,259.715 h -17.566 a 2.532,2.532 0 0 1 -2.524,-2.524 v -7.889 a 2.532,2.532 0 0 1 2.524,-2.524 h 17.566 a 2.532,2.532 0 0 1 2.524,2.524 v 7.889 a 2.532,2.532 0 0 1 -2.524,2.524 z"
       id="path163"
       inkscape:connector-curvature="0"
       style="fill:#ffffff" />
    <path
       d="m 114.693,286.81 a 3.538,3.538 0 0 1 -3.534,-3.534 v -7.889 a 3.538,3.538 0 0 1 3.534,-3.534 h 17.565 a 3.538,3.538 0 0 1 3.534,3.534 v 7.889 a 3.538,3.538 0 0 1 -3.534,3.534 z"
       stroke-miterlimit="10"
       id="path165"
       inkscape:connector-curvature="0"
       style="fill:none;stroke:#ffffff;stroke-width:0.94700003;stroke-miterlimit:10" />
    <path
       d="m 132.259,285.801 h -17.566 a 2.532,2.532 0 0 1 -2.524,-2.524 v -7.889 a 2.532,2.532 0 0 1 2.524,-2.524 h 17.566 a 2.532,2.532 0 0 1 2.524,2.524 v 7.889 a 2.532,2.532 0 0 1 -2.524,2.524 z"
       id="path167"
       inkscape:connector-curvature="0"
       style="fill:#ffffff" />
    <path
       d="m 141.509,286.81 a 3.538,3.538 0 0 1 -3.534,-3.534 v -7.889 a 3.538,3.538 0 0 1 3.534,-3.534 h 17.565 a 3.538,3.538 0 0 1 3.534,3.534 v 7.889 a 3.538,3.538 0 0 1 -3.534,3.534 z"
       stroke-miterlimit="10"
       id="path169"
       inkscape:connector-curvature="0"
       style="fill:none;stroke:#ffffff;stroke-width:0.94700003;stroke-miterlimit:10" />
    <path
       d="m 159.074,285.801 h -17.566 a 2.532,2.532 0 0 1 -2.524,-2.524 v -7.889 a 2.532,2.532 0 0 1 2.524,-2.524 h 17.566 a 2.532,2.532 0 0 1 2.524,2.524 v 7.889 a 2.532,2.532 0 0 1 -2.524,2.524 z"
       id="path171"
       inkscape:connector-curvature="0"
       style="fill:#ffffff" />
    <path
       d="m 168.323,286.81 a 3.538,3.538 0 0 1 -3.534,-3.534 v -7.889 a 3.538,3.538 0 0 1 3.534,-3.534 h 17.565 a 3.538,3.538 0 0 1 3.534,3.534 v 7.889 a 3.538,3.538 0 0 1 -3.534,3.534 z"
       stroke-miterlimit="10"
       id="path173"
       inkscape:connector-curvature="0"
       style="fill:none;stroke:#ffffff;stroke-width:0.94700003;stroke-miterlimit:10" />
    <path
       d="m 185.889,285.801 h -17.566 a 2.532,2.532 0 0 1 -2.524,-2.524 v -7.889 a 2.532,2.532 0 0 1 2.524,-2.524 h 17.566 a 2.532,2.532 0 0 1 2.524,2.524 v 7.889 a 2.532,2.532 0 0 1 -2.524,2.524 z"
       id="path175"
       inkscape:connector-curvature="0"
       style="fill:#ffffff" />
    <path
       d="m 195.139,286.81 a 3.538,3.538 0 0 1 -3.534,-3.534 v -7.889 a 3.538,3.538 0 0 1 3.534,-3.534 h 17.566 a 3.538,3.538 0 0 1 3.534,3.534 v 7.889 a 3.538,3.538 0 0 1 -3.534,3.534 z"
       stroke-miterlimit="10"
       id="path177"
       inkscape:connector-curvature="0"
       style="fill:none;stroke:#ffffff;stroke-width:0.94700003;stroke-miterlimit:10" />
    <path
       d="m 212.704,285.801 h -17.566 a 2.532,2.532 0 0 1 -2.524,-2.524 v -7.889 a 2.532,2.532 0 0 1 2.524,-2.524 h 17.566 a 2.532,2.532 0 0 1 2.524,2.524 v 7.889 a 2.53,2.53 0 0 1 -2.524,2.524 z"
       id="path179"
       inkscape:connector-curvature="0"
       style="fill:#ffffff" />
    <path
       d="m 221.954,286.81 a 3.538,3.538 0 0 1 -3.534,-3.534 v -7.889 a 3.538,3.538 0 0 1 3.534,-3.534 h 17.565 a 3.538,3.538 0 0 1 3.534,3.534 v 7.889 a 3.538,3.538 0 0 1 -3.534,3.534 z"
       stroke-miterlimit="10"
       id="path181"
       inkscape:connector-curvature="0"
       style="fill:none;stroke:#ffffff;stroke-width:0.94700003;stroke-miterlimit:10" />
    <path
       d="m 239.52,285.801 h -17.566 a 2.532,2.532 0 0 1 -2.524,-2.524 v -7.889 a 2.532,2.532 0 0 1 2.524,-2.524 h 17.566 a 2.532,2.532 0 0 1 2.524,2.524 v 7.889 a 2.532,2.532 0 0 1 -2.524,2.524 z"
       id="path183"
       inkscape:connector-curvature="0"
       style="fill:#ffffff" />
    <path
       d="m 248.77,286.81 a 3.538,3.538 0 0 1 -3.534,-3.534 v -7.889 a 3.538,3.538 0 0 1 3.534,-3.534 h 17.565 a 3.538,3.538 0 0 1 3.534,3.534 v 7.889 a 3.538,3.538 0 0 1 -3.534,3.534 z"
       stroke-miterlimit="10"
       id="path185"
       inkscape:connector-curvature="0"
       style="fill:none;stroke:#ffffff;stroke-width:0.94700003;stroke-miterlimit:10" />
    <path
       d="m 266.335,285.801 h -17.566 a 2.532,2.532 0 0 1 -2.524,-2.524 v -7.889 a 2.532,2.532 0 0 1 2.524,-2.524 h 17.566 a 2.532,2.532 0 0 1 2.524,2.524 v 7.889 a 2.532,2.532 0 0 1 -2.524,2.524 z"
       id="path187"
       inkscape:connector-curvature="0"
       style="fill:#ffffff" />
    <path
       d="m 275.584,286.81 a 3.538,3.538 0 0 1 -3.534,-3.534 v -7.889 a 3.538,3.538 0 0 1 3.534,-3.534 h 17.566 a 3.538,3.538 0 0 1 3.534,3.534 v 7.889 a 3.538,3.538 0 0 1 -3.534,3.534 z"
       stroke-miterlimit="10"
       id="path189"
       inkscape:connector-curvature="0"
       style="fill:none;stroke:#ffffff;stroke-width:0.94700003;stroke-miterlimit:10" />
    <path
       d="m 293.15,285.801 h -17.566 a 2.532,2.532 0 0 1 -2.524,-2.524 v -7.889 a 2.532,2.532 0 0 1 2.524,-2.524 h 17.566 a 2.532,2.532 0 0 1 2.524,2.524 v 7.889 a 2.532,2.532 0 0 1 -2.524,2.524 z"
       id="path191"
       inkscape:connector-curvature="0"
       style="fill:#ffffff" />
    <path
       d="m 302.399,286.81 a 3.538,3.538 0 0 1 -3.534,-3.534 v -7.889 a 3.538,3.538 0 0 1 3.534,-3.534 h 17.566 a 3.538,3.538 0 0 1 3.534,3.534 v 7.889 a 3.538,3.538 0 0 1 -3.534,3.534 z"
       stroke-miterlimit="10"
       id="path193"
       inkscape:connector-curvature="0"
       style="fill:none;stroke:#ffffff;stroke-width:0.94700003;stroke-miterlimit:10" />
    <path
       d="M 319.965,285.801 H 302.4 a 2.532,2.532 0 0 1 -2.524,-2.524 v -7.889 a 2.532,2.532 0 0 1 2.524,-2.524 h 17.566 a 2.532,2.532 0 0 1 2.524,2.524 v 7.889 a 2.532,2.532 0 0 1 -2.525,2.524 z"
       id="path195"
       inkscape:connector-curvature="0"
       style="fill:#ffffff" />
    <path
       d="m 329.215,286.81 a 3.538,3.538 0 0 1 -3.534,-3.534 v -7.889 a 3.538,3.538 0 0 1 3.534,-3.534 h 17.566 a 3.538,3.538 0 0 1 3.534,3.534 v 7.889 a 3.538,3.538 0 0 1 -3.534,3.534 z"
       stroke-miterlimit="10"
       id="path197"
       inkscape:connector-curvature="0"
       style="fill:none;stroke:#ffffff;stroke-width:0.94700003;stroke-miterlimit:10" />
    <path
       d="m 346.781,285.801 h -17.566 a 2.532,2.532 0 0 1 -2.524,-2.524 v -7.889 a 2.532,2.532 0 0 1 2.524,-2.524 h 17.566 a 2.532,2.532 0 0 1 2.524,2.524 v 7.889 a 2.532,2.532 0 0 1 -2.524,2.524 z"
       id="path199"
       inkscape:connector-curvature="0"
       style="fill:#ffffff" />
    <path
       d="m 128.577,312.475 a 3.538,3.538 0 0 1 -3.534,-3.534 v -7.889 a 3.538,3.538 0 0 1 3.534,-3.534 h 17.565 a 3.538,3.538 0 0 1 3.534,3.534 v 7.889 a 3.538,3.538 0 0 1 -3.534,3.534 z"
       stroke-miterlimit="10"
       id="path201"
       inkscape:connector-curvature="0"
       style="fill:none;stroke:#ffffff;stroke-width:0.94700003;stroke-miterlimit:10" />
    <path
       d="m 146.143,311.465 h -17.566 a 2.532,2.532 0 0 1 -2.524,-2.524 v -7.889 a 2.532,2.532 0 0 1 2.524,-2.524 h 17.566 a 2.532,2.532 0 0 1 2.524,2.524 v 7.889 a 2.532,2.532 0 0 1 -2.524,2.524 z"
       id="path203"
       inkscape:connector-curvature="0"
       style="fill:#ffffff" />
    <path
       d="m 155.393,312.475 a 3.538,3.538 0 0 1 -3.534,-3.534 v -7.889 a 3.538,3.538 0 0 1 3.534,-3.534 h 17.565 a 3.538,3.538 0 0 1 3.534,3.534 v 7.889 a 3.538,3.538 0 0 1 -3.534,3.534 z"
       stroke-miterlimit="10"
       id="path205"
       inkscape:connector-curvature="0"
       style="fill:none;stroke:#ffffff;stroke-width:0.94700003;stroke-miterlimit:10" />
    <path
       d="m 172.958,311.465 h -17.566 a 2.532,2.532 0 0 1 -2.524,-2.524 v -7.889 a 2.532,2.532 0 0 1 2.524,-2.524 h 17.566 a 2.532,2.532 0 0 1 2.524,2.524 v 7.889 a 2.532,2.532 0 0 1 -2.524,2.524 z"
       id="path207"
       inkscape:connector-curvature="0"
       style="fill:#ffffff" />
    <path
       d="m 182.208,312.475 a 3.538,3.538 0 0 1 -3.534,-3.534 v -7.889 a 3.538,3.538 0 0 1 3.534,-3.534 h 17.565 a 3.538,3.538 0 0 1 3.535,3.534 v 7.889 a 3.538,3.538 0 0 1 -3.535,3.534 z"
       stroke-miterlimit="10"
       id="path209"
       inkscape:connector-curvature="0"
       style="fill:none;stroke:#ffffff;stroke-width:0.94700003;stroke-miterlimit:10" />
    <path
       d="m 199.773,311.465 h -17.566 a 2.532,2.532 0 0 1 -2.524,-2.524 v -7.889 a 2.532,2.532 0 0 1 2.524,-2.524 h 17.566 a 2.532,2.532 0 0 1 2.524,2.524 v 7.889 a 2.53,2.53 0 0 1 -2.524,2.524 z"
       id="path211"
       inkscape:connector-curvature="0"
       style="fill:#ffffff" />
    <path
       d="m 209.023,312.475 a 3.538,3.538 0 0 1 -3.534,-3.534 v -7.889 a 3.538,3.538 0 0 1 3.534,-3.534 h 17.566 a 3.538,3.538 0 0 1 3.534,3.534 v 7.889 a 3.538,3.538 0 0 1 -3.534,3.534 z"
       stroke-miterlimit="10"
       id="path213"
       inkscape:connector-curvature="0"
       style="fill:none;stroke:#ffffff;stroke-width:0.94700003;stroke-miterlimit:10" />
    <path
       d="m 226.589,311.465 h -17.566 a 2.532,2.532 0 0 1 -2.524,-2.524 v -7.889 a 2.532,2.532 0 0 1 2.524,-2.524 h 17.566 a 2.532,2.532 0 0 1 2.524,2.524 v 7.889 a 2.532,2.532 0 0 1 -2.524,2.524 z"
       id="path215"
       inkscape:connector-curvature="0"
       style="fill:#ffffff" />
    <path
       d="m 235.838,312.475 a 3.538,3.538 0 0 1 -3.534,-3.534 v -7.889 a 3.538,3.538 0 0 1 3.534,-3.534 h 17.565 a 3.538,3.538 0 0 1 3.534,3.534 v 7.889 a 3.538,3.538 0 0 1 -3.534,3.534 z"
       stroke-miterlimit="10"
       id="path217"
       inkscape:connector-curvature="0"
       style="fill:none;stroke:#ffffff;stroke-width:0.94700003;stroke-miterlimit:10" />
    <path
       d="m 253.404,311.465 h -17.566 a 2.532,2.532 0 0 1 -2.524,-2.524 v -7.889 a 2.532,2.532 0 0 1 2.524,-2.524 h 17.566 a 2.532,2.532 0 0 1 2.524,2.524 v 7.889 a 2.532,2.532 0 0 1 -2.524,2.524 z"
       id="path219"
       inkscape:connector-curvature="0"
       style="fill:#ffffff" />
    <path
       d="m 195.053,340.191 a 3.538,3.538 0 0 1 -3.534,-3.534 v -7.889 a 3.538,3.538 0 0 1 3.534,-3.534 h 70.578 a 3.538,3.538 0 0 1 3.534,3.534 v 7.889 a 3.538,3.538 0 0 1 -3.534,3.534 z"
       stroke-miterlimit="10"
       id="path221"
       inkscape:connector-curvature="0"
       style="fill:none;stroke:#824c40;stroke-width:0.94700003;stroke-miterlimit:10" />
    <path
       d="m 265.63,339.181 h -70.578 a 2.532,2.532 0 0 1 -2.524,-2.524 v -7.889 a 2.532,2.532 0 0 1 2.524,-2.524 h 70.578 a 2.532,2.532 0 0 1 2.524,2.524 v 7.889 a 2.53,2.53 0 0 1 -2.524,2.524 z"
       id="path223"
       inkscape:connector-curvature="0"
       style="fill:#ffffff" />
    <path
       d="m 262.654,312.475 a 3.538,3.538 0 0 1 -3.534,-3.534 v -7.889 a 3.538,3.538 0 0 1 3.534,-3.534 h 17.565 a 3.538,3.538 0 0 1 3.534,3.534 v 7.889 a 3.538,3.538 0 0 1 -3.534,3.534 z"
       stroke-miterlimit="10"
       id="path225"
       inkscape:connector-curvature="0"
       style="fill:none;stroke:#ffffff;stroke-width:0.94700003;stroke-miterlimit:10" />
    <path
       d="m 280.219,311.465 h -17.566 a 2.532,2.532 0 0 1 -2.524,-2.524 v -7.889 a 2.532,2.532 0 0 1 2.524,-2.524 h 17.566 a 2.532,2.532 0 0 1 2.524,2.524 v 7.889 a 2.532,2.532 0 0 1 -2.524,2.524 z"
       id="path227"
       inkscape:connector-curvature="0"
       style="fill:#ffffff" />
    <path
       d="m 289.468,312.475 a 3.538,3.538 0 0 1 -3.534,-3.534 v -7.889 a 3.538,3.538 0 0 1 3.534,-3.534 h 17.566 a 3.538,3.538 0 0 1 3.534,3.534 v 7.889 a 3.538,3.538 0 0 1 -3.534,3.534 z"
       stroke-miterlimit="10"
       id="path229"
       inkscape:connector-curvature="0"
       style="fill:none;stroke:#ffffff;stroke-width:0.94700003;stroke-miterlimit:10" />
    <path
       d="m 307.034,311.465 h -17.566 a 2.532,2.532 0 0 1 -2.524,-2.524 v -7.889 a 2.532,2.532 0 0 1 2.524,-2.524 h 17.566 a 2.532,2.532 0 0 1 2.524,2.524 v 7.889 a 2.53,2.53 0 0 1 -2.524,2.524 z"
       id="path231"
       inkscape:connector-curvature="0"
       style="fill:#ffffff" />
    <path
       d="m 316.284,312.475 a 3.538,3.538 0 0 1 -3.534,-3.534 v -7.889 a 3.538,3.538 0 0 1 3.534,-3.534 h 17.566 a 3.538,3.538 0 0 1 3.534,3.534 v 7.889 a 3.538,3.538 0 0 1 -3.534,3.534 z"
       stroke-miterlimit="10"
       id="path233"
       inkscape:connector-curvature="0"
       style="fill:none;stroke:#ffffff;stroke-width:0.94700003;stroke-miterlimit:10" />
    <path
       d="m 333.849,311.465 h -17.566 a 2.532,2.532 0 0 1 -2.524,-2.524 v -7.889 a 2.532,2.532 0 0 1 2.524,-2.524 h 17.566 a 2.532,2.532 0 0 1 2.524,2.524 v 7.889 a 2.53,2.53 0 0 1 -2.524,2.524 z"
       id="path235"
       inkscape:connector-curvature="0"
       style="fill:#ffffff" />
    <path
       d="m 343.099,312.475 a 3.538,3.538 0 0 1 -3.534,-3.534 v -7.889 a 3.538,3.538 0 0 1 3.534,-3.534 h 17.566 a 3.538,3.538 0 0 1 3.534,3.534 v 7.889 a 3.538,3.538 0 0 1 -3.534,3.534 z"
       stroke-miterlimit="10"
       id="path237"
       inkscape:connector-curvature="0"
       style="fill:none;stroke:#ffffff;stroke-width:0.94700003;stroke-miterlimit:10" />
    <path
       d="m 360.665,311.465 h -17.566 a 2.532,2.532 0 0 1 -2.524,-2.524 v -7.889 a 2.532,2.532 0 0 1 2.524,-2.524 h 17.566 a 2.532,2.532 0 0 1 2.524,2.524 v 7.889 a 2.532,2.532 0 0 1 -2.524,2.524 z"
       id="path239"
       inkscape:connector-curvature="0"
       style="fill:#ffffff" />
    <path
       d="m 343.545,260.725 a 3.538,3.538 0 0 1 -3.534,-3.534 v -7.889 a 3.538,3.538 0 0 1 3.534,-3.534 h 17.566 a 3.538,3.538 0 0 1 3.534,3.534 v 7.889 a 3.538,3.538 0 0 1 -3.534,3.534 z"
       stroke-miterlimit="10"
       id="path241"
       inkscape:connector-curvature="0"
       style="fill:none;stroke:#ffffff;stroke-width:0.94700003;stroke-miterlimit:10" />
    <path
       d="m 361.111,259.715 h -17.566 a 2.532,2.532 0 0 1 -2.524,-2.524 v -7.889 a 2.532,2.532 0 0 1 2.524,-2.524 h 17.566 a 2.532,2.532 0 0 1 2.524,2.524 v 7.889 a 2.532,2.532 0 0 1 -2.524,2.524 z M 94.523,327.243 h 94.612 v 10.939 H 94.523 Z m 177.446,0 h 94.612 v 10.939 h -94.612 z"
       id="path243"
       inkscape:connector-curvature="0"
       style="fill:#ffffff" />
  </g>
</svg>
