<?xml version="1.0" encoding="UTF-8" standalone="no"?>
<svg
   xmlns:dc="http://purl.org/dc/elements/1.1/"
   xmlns:cc="http://creativecommons.org/ns#"
   xmlns:rdf="http://www.w3.org/1999/02/22-rdf-syntax-ns#"
   xmlns:svg="http://www.w3.org/2000/svg"
   xmlns="http://www.w3.org/2000/svg"
   xmlns:sodipodi="http://sodipodi.sourceforge.net/DTD/sodipodi-0.dtd"
   xmlns:inkscape="http://www.inkscape.org/namespaces/inkscape"
   viewBox="0 0 181.63201 294.83402"
   version="1.1"
   id="svg20"
   sodipodi:docname="game.svg"
   width="181.632"
   height="294.83401"
   inkscape:version="0.92.4 5da689c313, 2019-01-14">
  <metadata
     id="metadata26">
    <rdf:RDF>
      <cc:Work
         rdf:about="">
        <dc:format>image/svg+xml</dc:format>
        <dc:type
           rdf:resource="http://purl.org/dc/dcmitype/StillImage" />
      </cc:Work>
    </rdf:RDF>
  </metadata>
  <defs
     id="defs24" />
  <sodipodi:namedview
     pagecolor="#ffffff"
     bordercolor="#666666"
     borderopacity="1"
     objecttolerance="10"
     gridtolerance="10"
     guidetolerance="10"
     inkscape:pageopacity="0"
     inkscape:pageshadow="2"
     inkscape:window-width="640"
     inkscape:window-height="480"
     id="namedview22"
     showgrid="false"
     inkscape:zoom="0.80044773"
     inkscape:cx="90.815498"
     inkscape:cy="147.4165"
     inkscape:window-x="0"
     inkscape:window-y="0"
     inkscape:window-maximized="0"
     inkscape:current-layer="svg20">
    <inkscape:grid
       type="xygrid"
       id="grid833"
       originx="-0.001"
       originy="-0.0009914551" />
  </sodipodi:namedview>
  <path
     d="M 148.121,80.678 H 33.509 a 2.825,2.825 0 0 1 -2.816,-2.816 l 0.564,-50.969 a 2.825,2.825 0 0 1 2.816,-2.816 h 113.484 a 2.824,2.824 0 0 1 2.816,2.816 l 0.564,50.97 a 2.825,2.825 0 0 1 -2.816,2.815 m 33.51,-3.337 -4.536,-60.996 C 176.311,5.646 171.055,0 165.329,0 H 16.304 C 10.579,0 5.32,5.646 4.536,16.345 L 0,77.341 c 0,0.134 0.01,0.225 0.028,0.286 A 2.932,2.932 0 0 0 0,78.003 v 214.015 a 2.823,2.823 0 0 0 2.816,2.816 h 175.998 a 2.823,2.823 0 0 0 2.816,-2.816 V 78.003 c 0,-0.127 -0.01,-0.252 -0.028,-0.376 0.02,-0.06 0.03,-0.152 0.03,-0.286"
     id="path2"
     inkscape:connector-curvature="0"
     style="fill:#333333" />
  <path
     d="M 73.708,294.77 H 51.743 v -28.658 h 21.965 z m 94.306,-43.863 H 13.616 A 3.914,3.914 0 0 1 9.714,247.005 V 92.607 a 3.914,3.914 0 0 1 3.902,-3.902 h 154.398 a 3.914,3.914 0 0 1 3.902,3.902 v 154.398 a 3.913,3.913 0 0 1 -3.902,3.902 z"
     id="path4"
     inkscape:connector-curvature="0"
     style="fill:#1d1d1b" />
  <g
     id="g10"
     style="fill:#cccccc"
     transform="translate(-0.001)">
    <path
       d="m 29.469,119.57 -2.109,3.883 -7.906,-14.575 h 4.217 z m -1.582,-4.862 3.163,-5.83 h 4.217 l -5.271,9.713 z m 8.455,-5.83 h 3.7 l -0.01,14.575 h -3.69 z m 5.271,0 h 3.7 l -0.01,14.575 h -3.69 z m 4.744,3.644 v -3.644 h 1.581 c 2.038,0 3.778,0.711 5.219,2.134 1.44,1.423 2.16,3.14 2.16,5.154 0,2.012 -0.72,3.73 -2.16,5.153 -1.441,1.423 -3.18,2.134 -5.219,2.134 h -1.581 v -3.644 h 1.581 c 1.02,0 1.889,-0.355 2.61,-1.067 0.72,-0.711 1.08,-1.57 1.08,-2.576 0,-1.006 -0.36,-1.866 -1.08,-2.577 -0.721,-0.711 -1.59,-1.067 -2.61,-1.067 z m 10.563,-3.644 h 3.7 l -0.01,14.575 h -3.69 z m 4.744,0 h 5.798 v 3.644 h -5.798 z m 0,10.932 h 5.798 v 3.643 h -5.798 v -3.644 z m 0,-5.466 h 5.798 v 3.643 h -5.798 z m 18.438,2.342 h 3.711 c -0.112,1.79 -0.83,3.335 -2.15,4.633 -1.441,1.423 -3.18,2.134 -5.219,2.134 -2.038,0 -3.778,-0.711 -5.218,-2.134 -1.315,-1.298 -2.028,-2.842 -2.14,-4.633 h 3.71 c 0.106,0.784 0.454,1.468 1.044,2.051 0.717,0.715 1.585,1.072 2.604,1.072 1.019,0 1.89,-0.357 2.615,-1.072 0.59,-0.583 0.938,-1.267 1.043,-2.05 z m -7.305,-1.041 h -3.711 c 0.112,-1.79 0.826,-3.335 2.14,-4.633 1.44,-1.423 3.18,-2.134 5.218,-2.134 2.039,0 3.778,0.711 5.219,2.134 1.321,1.298 2.038,2.842 2.15,4.633 h -3.71 c -0.106,-0.784 -0.454,-1.471 -1.044,-2.061 -0.724,-0.708 -1.596,-1.062 -2.615,-1.062 -1.019,0 -1.887,0.354 -2.604,1.062 -0.59,0.59 -0.938,1.277 -1.043,2.061 z m 12.629,-6.767 h 3.69 v 14.575 h -3.69 z m 4.744,3.644 v -3.644 h 1.982 c 1.272,0 2.358,0.444 3.257,1.333 0.9,0.888 1.35,1.96 1.35,3.216 0,1.263 -0.45,2.34 -1.35,3.228 -0.9,0.888 -1.985,1.332 -3.257,1.332 H 90.17 v -3.644 h 1.982 c 0.253,0 0.47,-0.088 0.648,-0.265 a 0.879,0.879 0 0 0 0.269,-0.65 c 0,-0.25 -0.09,-0.464 -0.269,-0.641 a 0.89,0.89 0 0 0 -0.648,-0.266 H 90.17 Z m 14.759,5.101 -3.163,5.83 H 97.55 l 5.272,-9.713 2.108,3.883 z"
       id="path6"
       inkscape:connector-curvature="0" />
    <path
       d="m 106.468,118.508 -3.12,-5.747 2.108,-3.883 7.907,14.575 h -4.217 l -0.706,-1.301 h -4.913 l 1.972,-3.644 h 0.97 z m 14.822,1.27 v 3.654 c -1.813,-0.11 -3.377,-0.815 -4.69,-2.113 -1.442,-1.423 -2.162,-3.14 -2.162,-5.153 0,-2.013 0.72,-3.73 2.161,-5.153 1.314,-1.298 2.878,-2.003 4.692,-2.114 v 3.654 a 3.545,3.545 0 0 0 -2.077,1.03 c -0.724,0.716 -1.086,1.576 -1.086,2.583 0,1.006 0.362,1.863 1.086,2.571 0.59,0.59 1.282,0.937 2.077,1.041 z m 3.606,-5.642 a 3.79,3.79 0 0 0 -0.464,-0.552 c -0.597,-0.583 -1.293,-0.927 -2.087,-1.03 v -3.655 c 1.813,0.111 3.377,0.816 4.69,2.113 0.352,0.347 0.662,0.715 0.929,1.104 z m 3.068,6.079 a 7.61,7.61 0 0 1 -0.928,1.104 c -1.314,1.298 -2.878,2.002 -4.692,2.113 v -3.654 c 0.795,-0.104 1.49,-0.451 2.088,-1.041 a 4.12,4.12 0 0 0 0.464,-0.541 l 3.068,2.02 z"
       id="path8"
       inkscape:connector-curvature="0" />
  </g>
  <path
     d="m 165.217,228.46 h -12.495 v 8.902 c 0,2.745 0.126,3.954 1.336,5.471 1.264,1.571 3.051,2.383 4.947,2.383 a 6.347,6.347 0 0 0 4.947,-2.42 c 1.174,-1.481 1.264,-2.618 1.264,-5.435 v -8.901 z m -12.152,0.361 h 11.827 v 8.631 c 0,2.492 -0.072,3.666 -1.282,5.182 -1.065,1.336 -2.745,2.185 -4.622,2.185 -1.86,0 -3.629,-0.885 -4.713,-2.275 -1.174,-1.517 -1.21,-2.564 -1.21,-5.363 z m 11.538,10.111 c 0,-3.07 -2.492,-5.579 -5.616,-5.579 -3.124,0 -5.634,2.51 -5.634,5.579 0,3.124 2.51,5.634 5.598,5.634 3.124,0 5.652,-2.528 5.652,-5.634 z m -9.407,-8.071 c 0,-0.831 -0.758,-0.831 -1.679,-0.831 v 2.113 h 0.578 v -0.469 c 0.722,0 1.101,-0.289 1.101,-0.813 z m 0.794,-0.83 h -0.524 v 2.113 h 0.524 v -0.794 h 0.56 v 0.794 h 0.56 v -2.113 h -0.56 v 0.776 h -0.56 z m 2.167,0 h -0.524 v 2.113 h 0.524 z m 1.084,0 h -0.542 v 2.113 h 1.101 v -0.469 h -0.56 v -1.644 z m 1.39,0 h -0.542 v 2.113 h 0.542 z m 2.221,0.83 c 0,-0.831 -0.849,-0.831 -1.661,-0.831 v 2.113 h 0.542 v -0.469 c 0.613,0 1.119,-0.199 1.119,-0.813 z m 0.217,0.813 v 0.506 c 0.181,0.018 0.289,0.036 0.415,0.036 0.65,0 0.957,-0.307 0.957,-0.758 0,-0.686 -0.776,-0.469 -0.776,-0.758 0,-0.09 0.126,-0.144 0.361,-0.144 h 0.199 v -0.524 c -0.777,0 -1.228,0.108 -1.228,0.65 0,0.74 0.831,0.596 0.831,0.831 0,0.09 -0.181,0.162 -0.434,0.162 h -0.325 z m -9.299,6.807 c 0.506,-0.217 0.849,-0.307 1.246,-0.307 1.119,0 1.463,0.722 2.69,0.722 0.921,0 1.661,-0.722 2.726,-0.722 0.903,0 1.788,0.704 2.492,0.704 a 2.44,2.44 0 0 0 1.282,-0.343 l 0.018,0.217 c -0.343,0.253 -0.668,0.397 -1.228,0.397 -0.993,0 -1.589,-0.722 -2.582,-0.722 -1.065,0 -1.715,0.74 -2.708,0.74 -1.101,0 -1.643,-0.704 -2.654,-0.704 -0.415,0 -0.957,0.126 -1.282,0.253 z m 2.636,-4.063 c 0.578,-0.307 0.74,-0.361 1.174,-0.488 l -0.144,0.903 -0.939,0.162 z m 0,3.756 0.217,-1.553 1.733,-0.289 -0.614,-0.108 0.144,-0.975 1.011,-0.217 -1.011,-0.199 -0.144,-0.957 c 0.506,-0.108 0.758,-0.144 1.192,-0.144 2.835,0 4.695,1.968 5.236,4.406 -0.271,0.199 -0.632,0.361 -1.21,0.361 -1.029,0 -1.499,-0.722 -2.636,-0.722 -1.12,0 -1.607,0.758 -2.672,0.758 -0.578,0 -0.939,-0.144 -1.246,-0.361 z m 0.09,-3.07 0.939,0.144 0.108,0.921 -0.921,-0.126 z m -2.745,4.045 c 0.831,-0.271 0.939,-0.307 1.264,-0.307 1.138,0 1.571,0.722 2.672,0.722 0.885,0 1.697,-0.758 2.708,-0.758 0.939,0 1.463,0.722 2.582,0.722 0.379,0 0.722,-0.09 1.246,-0.289 v 0.199 c -0.451,0.271 -0.759,0.361 -1.3,0.361 -1.12,0 -1.589,-0.704 -2.546,-0.704 -1.138,0 -1.643,0.722 -2.709,0.722 -1.029,0 -1.643,-0.704 -2.708,-0.704 -0.271,0 -0.614,0.072 -1.192,0.253 z m 0.055,0.596 c 0.488,-0.181 0.794,-0.253 1.174,-0.253 1.083,0 1.607,0.74 2.672,0.74 1.011,0 1.643,-0.74 2.708,-0.74 0.506,0 0.867,0.126 1.192,0.343 l -0.181,1.445 -1.752,0.325 0.614,0.144 -0.108,0.939 -1.065,0.217 1.065,0.271 0.162,0.849 a 4.727,4.727 0 0 1 -1.21,0.144 c -2.743,0 -4.874,-1.914 -5.271,-4.424 z m 0,-1.679 c 0.144,-0.758 0.253,-1.047 0.578,-1.643 l 1.661,0.199 0.162,1.463 c -0.578,-0.235 -0.867,-0.307 -1.156,-0.307 -0.433,-0.001 -0.902,0.143 -1.245,0.288 z m 6.626,3.719 0.939,0.108 0.09,0.885 -0.921,-0.09 z m 0.054,2.167 0.054,-0.776 0.939,-0.181 0.09,0.488 c -0.378,0.234 -0.541,0.307 -1.083,0.469 z m -6.392,-13.398 c 0.325,0 0.451,0.054 0.451,0.289 0,0.271 -0.126,0.343 -0.451,0.343 z m 7.638,0 c 0.325,0 0.47,0.018 0.47,0.325 0,0.253 -0.199,0.307 -0.47,0.307 z m 0.037,9.39 c 0.451,0.144 0.831,0.235 1.264,0.235 0.379,0 0.596,-0.054 1.12,-0.289 a 4.283,4.283 0 0 1 -0.542,1.553 l -1.715,-0.162 z m 0.036,3.43 0.09,-1.481 1.553,-0.217 c -0.452,0.777 -0.777,1.138 -1.643,1.698 z m -7.313,-7.132 c 0.451,-0.704 0.849,-1.192 1.733,-1.733 l -0.181,1.535 z"
     id="path12"
     inkscape:connector-curvature="0"
     style="fill:#f5f5f5" />
  <g
     id="g16"
     style="fill:#f2f2f2"
     transform="translate(-0.001)">
    <path
       d="m 19.672,227.748 h 2.72 c 0.807,0 1.428,0.18 1.858,0.541 0.434,0.359 0.652,0.87 0.652,1.535 0,0.668 -0.217,1.182 -0.652,1.543 -0.431,0.359 -1.05,0.538 -1.859,0.538 h -1.08 v 2.208 h -1.64 v -6.365 z m 1.638,1.19 v 1.777 h 0.906 c 0.318,0 0.564,-0.077 0.737,-0.23 0.172,-0.157 0.26,-0.377 0.26,-0.661 0,-0.284 -0.088,-0.504 -0.26,-0.657 -0.173,-0.153 -0.419,-0.23 -0.737,-0.23 H 21.31 Z m 4.745,-1.19 h 1.638 v 2.425 h 2.417 v -2.425 h 1.638 v 6.365 H 30.11 v -2.699 h -2.417 v 2.699 h -1.638 z m 7.301,0 h 1.638 v 6.365 h -1.638 z m 3.251,0 h 1.638 v 5.125 h 2.877 v 1.24 h -4.515 z m 5.549,0 h 1.638 v 6.365 h -1.638 z m 3.251,0 h 2.72 c 0.807,0 1.428,0.18 1.858,0.541 0.434,0.359 0.652,0.87 0.652,1.535 0,0.668 -0.217,1.182 -0.652,1.543 -0.431,0.359 -1.05,0.538 -1.859,0.538 h -1.08 v 2.208 h -1.64 v -6.365 z m 1.638,1.19 v 1.777 h 0.906 c 0.318,0 0.564,-0.077 0.737,-0.23 0.172,-0.157 0.26,-0.377 0.26,-0.661 0,-0.284 -0.088,-0.504 -0.26,-0.657 -0.173,-0.153 -0.419,-0.23 -0.737,-0.23 h -0.906 z m 9.165,-0.99 v 1.347 c -0.348,-0.156 -0.689,-0.274 -1.02,-0.354 -0.331,-0.08 -0.646,-0.119 -0.94,-0.119 -0.392,0 -0.68,0.054 -0.869,0.162 a 0.541,0.541 0 0 0 -0.28,0.504 c 0,0.17 0.061,0.304 0.186,0.4 0.128,0.094 0.358,0.175 0.69,0.243 l 0.697,0.141 c 0.706,0.142 1.209,0.359 1.507,0.648 0.297,0.29 0.446,0.702 0.446,1.236 0,0.702 -0.209,1.225 -0.625,1.569 -0.415,0.34 -1.048,0.511 -1.902,0.511 -0.403,0 -0.808,-0.038 -1.213,-0.115 A 7.478,7.478 0 0 1 51.67,233.78 v -1.386 c 0.405,0.217 0.797,0.38 1.175,0.49 0.38,0.109 0.746,0.163 1.098,0.163 0.357,0 0.631,-0.06 0.821,-0.18 a 0.57,0.57 0 0 0 0.285,-0.51 c 0,-0.2 -0.065,-0.353 -0.196,-0.461 -0.128,-0.108 -0.385,-0.204 -0.77,-0.29 l -0.635,-0.142 c -0.635,-0.136 -1.1,-0.354 -1.395,-0.652 -0.292,-0.298 -0.44,-0.7 -0.44,-1.206 0,-0.634 0.205,-1.121 0.613,-1.463 0.408,-0.342 0.996,-0.511 1.762,-0.511 0.348,0 0.707,0.027 1.077,0.081 0.37,0.052 0.752,0.13 1.146,0.235 z"
       id="path14"
       inkscape:connector-curvature="0" />
  </g>
  <path
     d="m 88.953,135.275 h 3.722 v 92.357 h -3.722 z m 21.173,92.357 -19.309,21.383 -19.314,-21.267 z"
     id="path18"
     inkscape:connector-curvature="0"
     style="fill:#cccccc" />
</svg>
