<?xml version="1.0" encoding="UTF-8" standalone="no"?>
<svg
   xmlns:dc="http://purl.org/dc/elements/1.1/"
   xmlns:cc="http://creativecommons.org/ns#"
   xmlns:rdf="http://www.w3.org/1999/02/22-rdf-syntax-ns#"
   xmlns:svg="http://www.w3.org/2000/svg"
   xmlns="http://www.w3.org/2000/svg"
   xmlns:sodipodi="http://sodipodi.sourceforge.net/DTD/sodipodi-0.dtd"
   xmlns:inkscape="http://www.inkscape.org/namespaces/inkscape"
   viewBox="0 0 46.756389 100.22589"
   version="1.1"
   id="svg27"
   sodipodi:docname="controller.svg"
   width="46.75639"
   height="100.22589"
   inkscape:version="0.92.4 5da689c313, 2019-01-14">
  <metadata
     id="metadata33">
    <rdf:RDF>
      <cc:Work
         rdf:about="">
        <dc:format>image/svg+xml</dc:format>
        <dc:type
           rdf:resource="http://purl.org/dc/dcmitype/StillImage" />
      </cc:Work>
    </rdf:RDF>
  </metadata>
  <defs
     id="defs31" />
  <sodipodi:namedview
     pagecolor="#ffffff"
     bordercolor="#666666"
     borderopacity="1"
     objecttolerance="10"
     gridtolerance="10"
     guidetolerance="10"
     inkscape:pageopacity="0"
     inkscape:pageshadow="2"
     inkscape:window-width="471"
     inkscape:window-height="442"
     id="namedview29"
     showgrid="false"
     inkscape:zoom="2.3546785"
     inkscape:cx="23.378"
     inkscape:cy="50.113001"
     inkscape:window-x="0"
     inkscape:window-y="0"
     inkscape:window-maximized="0"
     inkscape:current-layer="svg27">
    <inkscape:grid
       type="xygrid"
       id="grid35"
       originx="0"
       originy="2.0751953e-06" />
  </sodipodi:namedview>
  <path
     d="m 44.986,0.06889111 c -1.898,0.632 -3.816,1.11799999 -5.723,1.59099999 -2.86,0.712 -5.697,1.387 -8.38,2.531 -1.341,0.572 -2.642,1.264 -3.873,2.139 a 17.523,17.523 0 0 0 -3.441,3.218 c -0.668,0.8169999 -1.416,2.0209999 -1.996,3.6719999 -0.58,1.65 -0.989,3.744 -0.989,6.326 0,1.456 0.13,3.067 0.43,4.844 a 1.345,1.345 0 0 0 2.652,-0.448 26.389,26.389 0 0 1 -0.392,-4.396 c 0,-2.299 0.362,-4.08 0.837,-5.434 0.475,-1.353 1.068,-2.282 1.54,-2.86 a 14.995,14.995 0 0 1 3.99,-3.4269999 c 2.193,-1.31 4.712,-2.123 7.459,-2.844 2.744,-0.723 5.706,-1.352 8.736,-2.359 a 1.3453911,1.3453911 0 1 0 -0.85,-2.55299999 z"
     id="path2"
     inkscape:connector-curvature="0"
     style="fill:#9fa5a3" />
  <linearGradient
     id="a"
     gradientUnits="userSpaceOnUse"
     x1="22.049"
     y1="100.226"
     x2="22.049"
     y2="20.954"
     gradientTransform="translate(0,-1.0888586e-4)">
    <stop
       offset="0"
       stop-color="#e8e6e1"
       id="stop4" />
    <stop
       offset=".228"
       stop-color="#e8e6e1"
       id="stop6" />
    <stop
       offset=".266"
       stop-color="#e8e6e1"
       id="stop8" />
    <stop
       offset=".324"
       stop-color="#e6e3e2"
       id="stop10" />
    <stop
       offset="1"
       stop-color="#e6e3e2"
       id="stop12" />
  </linearGradient>
  <path
     d="M 40.432,100.22589 H 3.666 A 3.677,3.677 0 0 1 0,96.559891 v -71.941 a 3.677,3.677 0 0 1 3.666,-3.666 h 36.766 a 3.677,3.677 0 0 1 3.666,3.666 v 71.941 a 3.677,3.677 0 0 1 -3.666,3.665999 z"
     id="path15"
     inkscape:connector-curvature="0"
     style="clip-rule:evenodd;fill:url(#a);fill-rule:evenodd" />
  <path
     d="M 34.763,49.920891 H 9.334 a 1.71,1.71 0 0 1 -1.704,-1.704 v -19.783 a 1.71,1.71 0 0 1 1.704,-1.704 h 25.429 a 1.71,1.71 0 0 1 1.704,1.704 v 19.782 a 1.708,1.708 0 0 1 -1.704,1.705 z"
     stroke-miterlimit="10"
     id="path17"
     inkscape:connector-curvature="0"
     style="clip-rule:evenodd;fill:#e6e3e2;fill-rule:evenodd;stroke:#585858;stroke-width:0.259;stroke-miterlimit:10" />
  <g
     stroke-miterlimit="10"
     id="g23"
     style="fill:#e2e0dd;stroke:#666564;stroke-width:0.039;stroke-miterlimit:10"
     transform="translate(0,-1.0888586e-4)">
    <path
       d="m 10.939,92.906 a 3.558,3.558 0 0 1 -0.349,0.628 c -0.184,0.262 -0.334,0.443 -0.45,0.544 -0.18,0.165 -0.372,0.25 -0.578,0.255 A 1.44,1.44 0 0 1 9.028,94.205 1.531,1.531 0 0 0 8.453,94.078 c -0.184,0 -0.381,0.042 -0.591,0.127 A 1.627,1.627 0 0 1 7.35,94.339 C 7.152,94.347 6.955,94.26 6.759,94.078 6.633,93.969 6.477,93.781 6.288,93.515 A 3.892,3.892 0 0 1 5.79,92.527 3.623,3.623 0 0 1 5.581,91.349 c 0,-0.435 0.094,-0.811 0.282,-1.125 A 1.648,1.648 0 0 1 7.255,89.4 c 0.157,0 0.363,0.049 0.619,0.144 0.255,0.096 0.419,0.144 0.491,0.144 0.054,0 0.236,-0.057 0.544,-0.17 0.292,-0.105 0.538,-0.148 0.74,-0.131 0.547,0.044 0.957,0.26 1.23,0.648 -0.489,0.296 -0.731,0.711 -0.726,1.243 0.004,0.414 0.155,0.759 0.45,1.033 0.134,0.127 0.283,0.225 0.45,0.295 a 5.515,5.515 0 0 1 -0.114,0.3 z"
       id="path19"
       inkscape:connector-curvature="0" />
    <path
       d="m 9.685,87.974 c 0,0.325 -0.119,0.628 -0.355,0.909 -0.285,0.334 -0.631,0.527 -1.005,0.496 A 0.965,0.965 0 0 1 8.317,89.256 c 0,-0.312 0.136,-0.646 0.377,-0.919 a 1.45,1.45 0 0 1 0.459,-0.345 c 0.185,-0.09 0.36,-0.14 0.525,-0.149 0.005,0.044 0.007,0.087 0.007,0.131 z"
       id="path21"
       inkscape:connector-curvature="0" />
  </g>
  <path
     d="m 24.916,15.490891 h -4.905 a 0.18,0.18 0 0 1 -0.18,-0.18 v -0.898 a 0.48,0.48 0 0 1 0.479,-0.479 h 4.308 a 0.48,0.48 0 0 1 0.479,0.479 v 0.898 a 0.182,0.182 0 0 1 -0.181,0.18 z m 0.005,1.923 h -4.916 a 0.176,0.176 0 0 1 -0.175,-0.175 v -1.099 a 0.19,0.19 0 0 1 0.189,-0.189 h 4.887 a 0.19,0.19 0 0 1 0.189,0.189 v 1.099 a 0.174,0.174 0 0 1 -0.174,0.175 z m 0,1.77 h -4.916 a 0.176,0.176 0 0 1 -0.175,-0.175 v -1.1 a 0.19,0.19 0 0 1 0.188,-0.188 h 4.89 a 0.19,0.19 0 0 1 0.188,0.188 v 1.1 a 0.176,0.176 0 0 1 -0.175,0.175 z m 0,1.77 h -4.916 a 0.176,0.176 0 0 1 -0.175,-0.175 v -1.099 a 0.19,0.19 0 0 1 0.189,-0.189 h 4.888 a 0.19,0.19 0 0 1 0.189,0.189 v 1.099 a 0.176,0.176 0 0 1 -0.175,0.175 z"
     id="path25"
     inkscape:connector-curvature="0"
     style="clip-rule:evenodd;fill:#9fa5a3;fill-rule:evenodd" />
</svg>
