<?xml version="1.0" encoding="UTF-8" standalone="no"?>
<svg
   xmlns:dc="http://purl.org/dc/elements/1.1/"
   xmlns:cc="http://creativecommons.org/ns#"
   xmlns:rdf="http://www.w3.org/1999/02/22-rdf-syntax-ns#"
   xmlns:svg="http://www.w3.org/2000/svg"
   xmlns="http://www.w3.org/2000/svg"
   xmlns:sodipodi="http://sodipodi.sourceforge.net/DTD/sodipodi-0.dtd"
   xmlns:inkscape="http://www.inkscape.org/namespaces/inkscape"
   viewBox="0 0 153.533 157.62399"
   version="1.1"
   id="svg24"
   sodipodi:docname="game.svg"
   width="153.533"
   height="157.62399"
   inkscape:version="0.92.4 5da689c313, 2019-01-14">
  <metadata
     id="metadata30">
    <rdf:RDF>
      <cc:Work
         rdf:about="">
        <dc:format>image/svg+xml</dc:format>
        <dc:type
           rdf:resource="http://purl.org/dc/dcmitype/StillImage" />
      </cc:Work>
    </rdf:RDF>
  </metadata>
  <defs
     id="defs28" />
  <sodipodi:namedview
     pagecolor="#ffffff"
     bordercolor="#666666"
     borderopacity="1"
     objecttolerance="10"
     gridtolerance="10"
     guidetolerance="10"
     inkscape:pageopacity="0"
     inkscape:pageshadow="2"
     inkscape:window-width="471"
     inkscape:window-height="442"
     id="namedview26"
     showgrid="false"
     inkscape:zoom="1.4972244"
     inkscape:cx="76.766502"
     inkscape:cy="78.8115"
     inkscape:window-x="0"
     inkscape:window-y="0"
     inkscape:window-maximized="0"
     inkscape:current-layer="svg24" />
  <path
     d="M 153.533,12.487 V 10.043 L 141.659,0.11 h -3.186 V 0.613 H 125.65 L 125.048,1.059 124.015,1.8 V 1.814 H 19.99 V 0.11 H 1.787 L 1.788,0.113 C 0.798,0.113 0,0.911 0,1.901 v 153.935 c 0,0.99 0.798,1.788 1.788,1.788 h 149.957 c 0.991,0 1.788,-0.798 1.788,-1.788 V 18.397 h -1.467 v -5.91 z M 13.832,146.97 H 4.835 v -6.412 h 8.997 z"
     id="path2"
     inkscape:connector-curvature="0"
     style="fill:#174090" />
  <path
     d="m 9.199,23.39 v -3.464 h 1.858 L 7.341,11.101 3.625,19.926 h 1.858 v 3.464 h 3.754"
     id="path4"
     inkscape:connector-curvature="0"
     style="fill:#143795" />
  <path
     d="m 19.99,1.814 v 49.199 c 0,1.436 1.196,2.592 2.682,2.592 h 96.845 c 1.486,0 2.682,-1.156 2.682,-2.592 V 1.814"
     id="path6"
     inkscape:connector-curvature="0"
     style="fill:#163e7f" />
  <path
     d="m 39.076,0 v 50.923 a 2.677,2.677 0 0 0 2.683,2.683 h 77.759 a 2.677,2.677 0 0 0 2.683,-2.683 V 0 Z m 48.143,7.726 h 22.715 V 49.957 H 87.219 Z"
     id="path8"
     inkscape:connector-curvature="0"
     style="fill:#8a8e8c" />
  <path
     d="m 22.992,64.522 h 96.206 a 3.002,3.002 0 0 1 3.002,3.002 v 60.496 a 3.002,3.002 0 0 1 -3.002,3.002 H 22.992 A 3.002,3.002 0 0 1 19.99,128.02 V 67.524 a 3.002,3.002 0 0 1 3.002,-3.002 z"
     id="path10"
     inkscape:connector-curvature="0"
     style="fill:#163e7f" />
  <path
     d="m 33.47,130.022 h 75.25 a 4.375,4.375 0 0 0 4.375,-4.375 V 69.897 A 4.375,4.375 0 0 0 108.72,65.522 H 33.47 a 4.375,4.375 0 0 0 -4.375,4.375 v 55.75 a 4.375,4.375 0 0 0 4.375,4.375 z"
     id="path12"
     inkscape:connector-curvature="0"
     style="fill:#357bb7" />
  <path
     d="m 29.095,72.397 h 84 v 38.5 h -84 z"
     id="path14"
     inkscape:connector-curvature="0"
     style="fill:#ffffff" />
  <path
     stroke-miterlimit="10"
     d="m 111.096,74.397 v 34.5 h -80 v -34.5 z"
     id="path16"
     inkscape:connector-curvature="0"
     style="fill:none;stroke:#357bb7;stroke-miterlimit:10" />
  <path
     d="m 84.232,97.859 h 2.28 l 0.668,-1.271 h 0.983 l -2.788,5.136 -2.787,-5.136 h 0.99 z m 0.331,0.671 0.588,1.127 c 0.064,0.131 0.138,0.311 0.218,0.56 0.072,-0.249 0.145,-0.429 0.209,-0.56 L 86.167,98.53 Z M 80.27,96.587 h 0.935 v 4.258 h 1.53 v 0.685 h -3.987 v -0.685 h 1.522 z m -5.164,1.272 h 2.279 l 0.669,-1.271 h 0.983 l -2.788,5.136 -2.787,-5.136 h 0.991 z m 0.331,0.671 0.588,1.127 c 0.064,0.131 0.137,0.311 0.218,0.56 0.072,-0.249 0.146,-0.429 0.21,-0.56 l 0.588,-1.127 z m -3.762,-1.943 h 0.879 v 4.942 h -1.306 c -0.62,0 -1.079,-0.042 -1.435,-0.276 a 1.28,1.28 0 0 1 -0.556,-1.086 c 0,-0.795 0.451,-1.244 1.321,-1.334 l -1.981,-2.246 h 1.056 l 1.917,2.212 h 0.104 v -2.212 z m -0.226,2.834 c -0.821,0 -1.232,0.083 -1.232,0.678 0,0.608 0.395,0.739 1.232,0.739 h 0.169 v -1.417 z m -3.793,2.109 h -0.935 v -4.942 h 0.935 z m -5.872,-3.657 c -0.137,-0.442 -0.523,-0.678 -1.111,-0.678 -0.564,0 -0.91,0.29 -0.91,0.732 0,0.484 0.427,0.602 1.023,0.851 1.022,0.429 1.587,0.76 1.587,1.507 0,0.795 -0.685,1.354 -1.732,1.354 -0.854,0 -1.442,-0.297 -1.659,-0.815 l 0.732,-0.325 c 0.226,0.305 0.492,0.449 0.854,0.449 0.507,0 0.821,-0.249 0.821,-0.622 0,-0.477 -0.451,-0.622 -1.096,-0.878 -1.015,-0.4 -1.49,-0.753 -1.49,-1.465 0,-0.92 0.717,-1.527 1.909,-1.527 0.983,0 1.628,0.4 1.821,1.119 z M 55.55,96.587 h 0.935 v 4.258 h 1.53 v 0.685 h -3.988 v -0.685 h 1.523 z"
     id="path18"
     inkscape:connector-curvature="0" />
  <g
     id="g22">
    <path
       d="m 101.613,91.29 h -0.677 v -3.578 h 0.677 z m -1.787,0.141 -2.646,-2.188 a 4.73,4.73 0 0 1 -0.455,-0.436 v 2.482 H 96.102 V 87.57 l 2.698,2.228 c 0.151,0.125 0.286,0.261 0.402,0.4 v -2.487 h 0.624 z m -5.119,-2.788 c -0.099,-0.32 -0.379,-0.49 -0.804,-0.49 -0.408,0 -0.659,0.21 -0.659,0.53 0,0.351 0.309,0.436 0.74,0.616 0.74,0.31 1.148,0.55 1.148,1.091 0,0.575 -0.495,0.98 -1.253,0.98 -0.618,0 -1.044,-0.215 -1.201,-0.59 l 0.53,-0.235 c 0.163,0.22 0.355,0.325 0.618,0.325 0.367,0 0.595,-0.181 0.595,-0.45 0,-0.346 -0.327,-0.451 -0.793,-0.636 -0.734,-0.291 -1.078,-0.546 -1.078,-1.062 0,-0.665 0.519,-1.105 1.381,-1.105 0.712,0 1.178,0.29 1.317,0.811 z m -3.034,2.647 h -2.326 v -0.495 h 1.649 V 89.9 h -1.649 v -0.511 h 1.649 v -1.156 h -1.649 v -0.521 h 2.326 z M 87.8,87.712 h 0.636 v 3.578 h -0.944 c -0.449,0 -0.781,-0.029 -1.038,-0.2 a 0.926,0.926 0 0 1 -0.402,-0.785 c 0,-0.576 0.327,-0.901 0.956,-0.966 l -1.434,-1.627 h 0.764 l 1.387,1.602 H 87.8 Z m -0.163,2.052 c -0.595,0 -0.892,0.061 -0.892,0.491 0,0.439 0.285,0.535 0.892,0.535 h 0.122 v -1.026 z m -3.948,-2.052 h 0.676 v 3.083 h 1.107 v 0.495 h -2.885 v -0.495 h 1.102 z m -3.654,3.578 h -0.916 c -0.78,0 -1.381,0 -1.888,-0.335 -0.479,-0.315 -0.734,-0.815 -0.734,-1.456 0,-0.641 0.256,-1.137 0.734,-1.452 0.483,-0.32 1.031,-0.335 1.707,-0.335 h 1.097 z m -1.248,-3.052 c -0.46,0 -0.815,0.021 -1.113,0.235 -0.314,0.23 -0.472,0.575 -0.472,1.031 0,0.455 0.157,0.801 0.472,1.03 0.31,0.221 0.694,0.235 1.195,0.235 h 0.489 v -2.532 h -0.571 z m -3.212,3.052 h -0.677 v -3.578 h 0.677 z m -2.092,-2.647 c -0.099,-0.32 -0.379,-0.49 -0.805,-0.49 -0.407,0 -0.658,0.21 -0.658,0.53 0,0.351 0.309,0.436 0.74,0.616 0.74,0.31 1.148,0.55 1.148,1.091 0,0.575 -0.495,0.98 -1.253,0.98 -0.618,0 -1.044,-0.215 -1.201,-0.59 l 0.53,-0.235 c 0.163,0.22 0.355,0.325 0.618,0.325 0.367,0 0.595,-0.181 0.595,-0.45 0,-0.346 -0.327,-0.451 -0.793,-0.636 -0.734,-0.291 -1.078,-0.546 -1.078,-1.062 0,-0.665 0.519,-1.105 1.381,-1.105 0.712,0 1.178,0.29 1.317,0.811 z m -3.032,2.647 h -0.677 v -1.481 l -1.498,1.481 h -0.827 l 1.649,-1.591 -1.848,-1.987 h 0.874 l 1.649,1.827 v -1.827 h 0.677 v 3.578 z m -5.659,0 h -0.677 v -3.578 h 0.677 z m -1.789,0.141 -2.646,-2.188 a 4.73,4.73 0 0 1 -0.455,-0.436 v 2.482 H 59.279 V 87.57 l 2.698,2.228 c 0.151,0.125 0.286,0.261 0.402,0.4 v -2.487 h 0.624 z M 56.291,91.29 h -0.916 c -0.78,0 -1.381,0 -1.888,-0.335 -0.479,-0.315 -0.734,-0.815 -0.734,-1.456 0,-0.641 0.256,-1.137 0.734,-1.452 0.483,-0.32 1.031,-0.335 1.707,-0.335 h 1.097 z m -1.248,-3.052 c -0.46,0 -0.815,0.021 -1.113,0.235 -0.314,0.23 -0.472,0.575 -0.472,1.031 0,0.455 0.157,0.801 0.472,1.03 0.31,0.221 0.694,0.235 1.195,0.235 h 0.489 v -2.532 h -0.571 z m -3.836,-0.526 h 0.636 v 3.578 h -0.944 c -0.449,0 -0.781,-0.029 -1.038,-0.2 a 0.926,0.926 0 0 1 -0.402,-0.785 c 0,-0.576 0.327,-0.901 0.956,-0.966 l -1.434,-1.627 h 0.764 l 1.387,1.602 h 0.076 v -1.602 z m -0.163,2.052 c -0.595,0 -0.892,0.061 -0.892,0.491 0,0.439 0.285,0.535 0.892,0.535 h 0.122 V 89.764 Z M 48.43,91.29 h -0.677 v -3.578 h 0.677 z m -1.252,0 H 46.472 L 45.539,89.384 A 2.77,2.77 0 0 1 45.318,88.808 3.403,3.403 0 0 1 45.09,89.384 L 44.157,91.29 H 43.46 l 1.859,-3.719 z m -4.274,0 h -2.326 v -0.495 h 1.649 V 89.9 h -1.649 v -0.511 h 1.649 v -1.156 h -1.649 v -0.521 h 2.326 z m 48.158,-8.657 h 1.649 l 0.483,-0.921 h 0.712 l -2.018,3.719 -2.017,-3.719 h 0.717 z m 0.239,0.486 0.425,0.816 c 0.047,0.095 0.1,0.225 0.157,0.405 0.053,-0.181 0.105,-0.311 0.152,-0.405 l 0.425,-0.816 z m -1.954,2.312 -2.646,-2.188 a 4.73,4.73 0 0 1 -0.455,-0.436 v 2.482 H 85.623 V 81.57 l 2.698,2.228 c 0.151,0.125 0.286,0.261 0.402,0.4 v -2.487 h 0.624 z M 84.532,85.29 h -0.916 c -0.78,0 -1.381,0 -1.888,-0.335 -0.479,-0.315 -0.734,-0.815 -0.734,-1.456 0,-0.641 0.256,-1.137 0.734,-1.452 0.483,-0.32 1.031,-0.335 1.707,-0.335 h 1.097 z m -1.248,-3.052 c -0.46,0 -0.815,0.021 -1.113,0.235 -0.314,0.23 -0.472,0.575 -0.472,1.031 0,0.455 0.157,0.801 0.472,1.03 0.31,0.221 0.693,0.235 1.195,0.235 h 0.489 v -2.532 h -0.571 z m -5.403,0.405 c -0.099,-0.32 -0.379,-0.49 -0.805,-0.49 -0.407,0 -0.658,0.21 -0.658,0.53 0,0.351 0.309,0.436 0.74,0.616 0.74,0.31 1.148,0.55 1.148,1.091 0,0.575 -0.495,0.98 -1.253,0.98 -0.618,0 -1.044,-0.215 -1.201,-0.59 l 0.53,-0.235 c 0.163,0.22 0.355,0.325 0.618,0.325 0.367,0 0.595,-0.181 0.595,-0.45 0,-0.346 -0.327,-0.451 -0.793,-0.636 -0.734,-0.291 -1.078,-0.546 -1.078,-1.062 0,-0.665 0.519,-1.105 1.381,-1.105 0.712,0 1.178,0.29 1.317,0.811 z m -3.207,2.647 -0.787,-1.807 a 7.59,7.59 0 0 1 -0.222,-0.565 c -0.122,0.346 -0.204,0.541 -0.228,0.601 l -0.839,1.912 -0.881,-1.947 a 6.506,6.506 0 0 1 -0.221,-0.57 c -0.047,0.17 -0.117,0.351 -0.204,0.556 l -0.781,1.821 h -0.677 l 1.615,-3.719 0.95,2.043 c 0.081,0.175 0.151,0.345 0.204,0.5 0.058,-0.175 0.122,-0.346 0.198,-0.511 l 0.933,-2.032 1.608,3.719 h -0.668 z m -5.444,0 h -0.677 v -3.578 h 0.677 z m -3.134,-3.578 h 0.676 v 3.083 h 1.107 v 0.495 h -2.885 v -0.495 h 1.102 z M 64.339,85.29 H 63.662 V 83.969 H 61.61 v 1.321 h -0.676 v -3.578 h 0.676 v 1.736 h 2.052 v -1.736 h 0.677 z M 54.326,82.167 c 0.426,-0.355 0.979,-0.55 1.574,-0.55 0.594,0 1.159,0.194 1.579,0.55 0.426,0.355 0.647,0.816 0.647,1.326 0,0.511 -0.222,0.972 -0.647,1.332 -0.426,0.355 -0.979,0.545 -1.579,0.545 -0.601,0 -1.148,-0.189 -1.574,-0.545 -0.426,-0.36 -0.653,-0.826 -0.653,-1.332 -0.001,-0.509 0.227,-0.97 0.653,-1.326 z m 0.501,2.278 c 0.286,0.256 0.671,0.391 1.073,0.391 a 1.63,1.63 0 0 0 1.078,-0.391 1.236,1.236 0 0 0 0,-1.896 1.618,1.618 0 0 0 -1.078,-0.391 c -0.408,0 -0.781,0.135 -1.073,0.391 a 1.243,1.243 0 0 0 -0.448,0.945 c -10e-4,0.361 0.157,0.696 0.448,0.951 z m -2.063,0.986 -2.646,-2.188 a 4.73,4.73 0 0 1 -0.455,-0.436 v 2.482 H 49.04 V 81.57 l 2.698,2.228 c 0.151,0.125 0.286,0.261 0.402,0.4 v -2.487 h 0.624 z"
       id="path20"
       inkscape:connector-curvature="0" />
  </g>
</svg>
