<?xml version="1.0" encoding="UTF-8" standalone="no"?>
<svg
   xmlns:dc="http://purl.org/dc/elements/1.1/"
   xmlns:cc="http://creativecommons.org/ns#"
   xmlns:rdf="http://www.w3.org/1999/02/22-rdf-syntax-ns#"
   xmlns:svg="http://www.w3.org/2000/svg"
   xmlns="http://www.w3.org/2000/svg"
   xmlns:sodipodi="http://sodipodi.sourceforge.net/DTD/sodipodi-0.dtd"
   xmlns:inkscape="http://www.inkscape.org/namespaces/inkscape"
   viewBox="0 0 85 85"
   version="1.1"
   id="svg30"
   sodipodi:docname="icon_empty.svg"
   inkscape:version="0.92.4 5da689c313, 2019-01-14">
  <metadata
     id="metadata36">
    <rdf:RDF>
      <cc:Work
         rdf:about="">
        <dc:format>image/svg+xml</dc:format>
        <dc:type
           rdf:resource="http://purl.org/dc/dcmitype/StillImage" />
      </cc:Work>
    </rdf:RDF>
  </metadata>
  <defs
     id="defs34" />
  <sodipodi:namedview
     pagecolor="#ffffff"
     bordercolor="#666666"
     borderopacity="1"
     objecttolerance="10"
     gridtolerance="10"
     guidetolerance="10"
     inkscape:pageopacity="0"
     inkscape:pageshadow="2"
     inkscape:window-width="640"
     inkscape:window-height="480"
     id="namedview32"
     showgrid="false"
     inkscape:zoom="2.7764706"
     inkscape:cx="42.5"
     inkscape:cy="42.5"
     inkscape:window-x="0"
     inkscape:window-y="0"
     inkscape:window-maximized="0"
     inkscape:current-layer="svg30">
    <inkscape:grid
       type="xygrid"
       id="grid843" />
  </sodipodi:namedview>
  <path
     fill="#D5D5D5"
     d="M31 66.6h23v11.5H31z"
     id="path2" />
  <path
     fill="#A8A8A8"
     d="M45.5 64.3H25.3v5.9c0 9.2 10.1 14.7 10.1 14.7s4.1-2.2 7.1-6.2c3 4 7.1 6.2 7.1 6.2s10.1-5.5 10.1-14.7v-5.9H45.5zM35.4 76.4c-1.4-1.4-2.8-3.2-3.2-5.2h6.3c-.3 2-1.7 3.8-3.1 5.2zm14.2 0c-1.4-1.4-2.8-3.2-3.2-5.2h6.3c-.3 2-1.7 3.8-3.1 5.2z"
     id="path4" />
  <path
     fill="gray"
     d="M45.5 64.3h-3v14.4c3 4 7.1 6.2 7.1 6.2s10.1-5.5 10.1-14.7v-5.9H45.5zm4.1 12.1c-1.4-1.4-2.8-3.2-3.2-5.2h6.3c-.3 2-1.7 3.8-3.1 5.2z"
     id="path6" />
  <path
     fill="#565656"
     d="M11.5 37.2v14.2l-6.9 6.9v12.9h27.6V23.4z"
     id="path8" />
  <path
     fill="#2B2B2B"
     d="M73.5 51.4V37.2L52.8 23.4v47.8h27.6V58.3z"
     id="path10" />
  <path
     fill="#E2E2E2"
     d="M59.7 71.2V25.1C59.7 9.4 42.5 0 42.5 0S25.3 9.4 25.3 25.1v46.2l34.4-.1z"
     id="path12" />
  <path
     fill="#BCBCBC"
     d="M59.7 71.2V25.1C59.7 9.4 42.5 0 42.5 0v71.2h17.2z"
     id="path14" />
  <g
     fill="#565656"
     id="g20">
    <path
       d="M49.4 20.7c0-3.8-3.1-6.9-6.9-6.9-3.8 0-6.9 3.1-6.9 6.9h13.8z"
       id="path16" />
    <ellipse
       cx="42.5"
       cy="45.9"
       rx="6.9"
       ry="9.2"
       id="ellipse18" />
  </g>
  <g
     fill="#2B2B2B"
     id="g24">
    <path
       d="M49.4 20.7c0-3.8-3.1-6.9-6.9-6.9v6.9h6.9zM42.5 36.8c3.8 0 6.9 4.1 6.9 9.2s-3.1 9.2-6.9 9.2"
       id="path22" />
  </g>
  <path
     fill="#ABABAB"
     d="M25.3 64.3h34.5v6.9H25.3z"
     id="path26" />
  <path
     fill="gray"
     d="M42.5 64.3h17.2v6.9H42.5z"
     id="path28" />
</svg>
