<?xml version="1.0" encoding="UTF-8" standalone="no"?>
<svg
   xmlns:dc="http://purl.org/dc/elements/1.1/"
   xmlns:cc="http://creativecommons.org/ns#"
   xmlns:rdf="http://www.w3.org/1999/02/22-rdf-syntax-ns#"
   xmlns:svg="http://www.w3.org/2000/svg"
   xmlns="http://www.w3.org/2000/svg"
   xmlns:sodipodi="http://sodipodi.sourceforge.net/DTD/sodipodi-0.dtd"
   xmlns:inkscape="http://www.inkscape.org/namespaces/inkscape"
   viewBox="0 0 143 19.7"
   version="1.1"
   id="svg22"
   sodipodi:docname="logo.svg"
   width="143"
   height="19.700001"
   inkscape:version="0.92.4 5da689c313, 2019-01-14">
  <metadata
     id="metadata28">
    <rdf:RDF>
      <cc:Work
         rdf:about="">
        <dc:format>image/svg+xml</dc:format>
        <dc:type
           rdf:resource="http://purl.org/dc/dcmitype/StillImage" />
      </cc:Work>
    </rdf:RDF>
  </metadata>
  <defs
     id="defs26" />
  <sodipodi:namedview
     pagecolor="#ffffff"
     bordercolor="#666666"
     borderopacity="1"
     objecttolerance="10"
     gridtolerance="10"
     guidetolerance="10"
     inkscape:pageopacity="0"
     inkscape:pageshadow="2"
     inkscape:window-width="640"
     inkscape:window-height="480"
     id="namedview24"
     showgrid="false"
     inkscape:zoom="1.9260839"
     inkscape:cx="70.349998"
     inkscape:cy="9.8499996"
     inkscape:window-x="0"
     inkscape:window-y="0"
     inkscape:window-maximized="0"
     inkscape:current-layer="svg22">
    <inkscape:grid
       type="xygrid"
       id="grid835"
       originx="0"
       originy="-7.6293942e-07" />
  </sodipodi:namedview>
  <path
     d="m 30.6,0.9 c 0.8,-1 2.3,-1.1 3.3,-0.3 0.4,0.3 0.7,0.8 0.8,1.2 1.7,6 3.5,11.9 5.2,17.9 h -3.1 c -0.5,-1.6 -1,-3.3 -1.4,-4.9 h -5.9 c -0.5,1.6 -1,3.3 -1.4,4.9 H 25 C 26.6,14 28.3,8.3 29.9,2.6 30.1,2 30.2,1.3 30.6,0.9 m 1.8,3.6 C 31.7,7 31,9.5 30.3,11.9 h 4.3 C 33.9,9.5 33.2,7 32.4,4.5 Z M 52.2,1 c 0.5,-0.8 1.6,-1.1 2.5,-0.9 0.8,0.2 1.5,0.9 1.7,1.7 1.7,6 3.5,11.9 5.2,17.9 H 58.5 C 58,18 57.5,16.4 57,14.7 h -5.9 c -0.5,1.6 -1,3.3 -1.4,4.9 h -3 C 48.3,13.9 50,8.2 51.7,2.5 51.8,2 51.8,1.4 52.2,1 m -0.3,10.9 h 4.3 C 55.5,9.4 54.8,6.9 54.1,4.5 53.4,7 52.6,9.4 51.9,11.9 Z M 37.6,0 H 48.7 V 3 H 44.6 V 19.6 H 41.7 V 3 H 37.6 Z M 64.8,0.2 C 65.1,0.1 65.4,0 65.7,0 h 3.5 c 2,0 3.8,1.3 4.7,3 0.6,1.1 0.6,2.5 0.5,3.7 -0.1,1.3 -0.7,2.6 -1.7,3.5 -0.5,0.5 -1.2,0.8 -1.8,1.2 -0.3,0.2 -0.3,0.7 -0.2,1 1.5,2.4 3.2,4.7 4.7,7.1 h -3.5 c -1.5,-2.3 -3,-4.6 -4.5,-6.8 -0.4,-0.6 -0.6,-1.5 -0.3,-2.2 0.2,-0.6 0.7,-1 1.3,-1.2 1.1,-0.4 2.1,-1 2.7,-2 C 71.5,6.6 71.5,5.6 71.3,4.8 71.1,3.8 70.1,3 69,3 H 66.7 C 66.4,3 66,3.3 66,3.6 v 16 H 63.1 V 2.4 c 0,-1 0.7,-1.9 1.7,-2.2 z M 77,0 h 3.1 V 19.6 H 77 Z"
     id="path2"
     inkscape:connector-curvature="0" />
  <path
     d="m 130.9,19.7 c -5.4,0 -9.8,-4.4 -9.8,-9.8 0,-5.4 4.4,-9.8 9.8,-9.8 5.4,0 9.8,4.4 9.8,9.8 0,5.3 -4.4,9.8 -9.8,9.8 z m 0,-19 c -5,0 -9.1,4.1 -9.1,9.1 0,5 4.1,9.1 9.1,9.1 5,0 9.1,-4.1 9.1,-9.1 0,-5 -4.1,-9.1 -9.1,-9.1 z m 0,15.8 a 6.7,6.7 0 1 1 0,-13.4 6.7,6.7 0 0 1 0,13.4 z m 0,-12.6 c -3.3,0 -6,2.7 -6,6 0,3.3 2.7,6 6,6 3.3,0 6,-2.7 6,-6 0,-3.4 -2.7,-6 -6,-6 z"
     id="path4"
     inkscape:connector-curvature="0"
     style="fill:#5d3615" />
  <g
     id="g8">
    <path
       d="m 110.8,19.7 c -5.4,0 -9.8,-4.4 -9.8,-9.8 0,-5.4 4.4,-9.8 9.8,-9.8 5.4,0 9.8,4.4 9.8,9.8 0,5.3 -4.4,9.8 -9.8,9.8 z m 0,-19 c -5,0 -9.1,4.1 -9.1,9.1 0,5 4.1,9.1 9.1,9.1 5,0 9.1,-4.1 9.1,-9.1 0,-5 -4.1,-9.1 -9.1,-9.1 z m 0,15.8 a 6.7,6.7 0 1 1 0,-13.4 6.7,6.7 0 0 1 0,13.4 z m 0,-12.6 c -3.3,0 -6,2.7 -6,6 0,3.3 2.7,6 6,6 3.3,0 6,-2.7 6,-6 -0.1,-3.4 -2.7,-6 -6,-6 z"
       id="path6"
       inkscape:connector-curvature="0"
       style="fill:#5d3615" />
  </g>
  <g
     id="g12">
    <path
       d="M 93.9,19.7 C 90.1,19.7 87,16.6 87,12.8 87,10.5 88.2,8.4 90,7.1 89.5,6.4 89.3,5.5 89.3,4.6 89.3,2.1 91.4,0 93.9,0 c 2.5,0 4.6,2.1 4.6,4.6 0,0.9 -0.3,1.7 -0.7,2.5 1.9,1.3 3,3.4 3,5.7 0,3.8 -3.1,6.9 -6.9,6.9 z m 0,-19 C 91.8,0.7 90,2.4 90,4.6 90,5.5 90.3,6.3 90.8,7 L 91,7.3 90.7,7.5 c -1.9,1.1 -3,3.1 -3,5.3 0,3.4 2.8,6.2 6.2,6.2 3.4,0 6.2,-2.8 6.2,-6.2 0,-2.2 -1.2,-4.2 -3,-5.3 L 96.8,7.3 97,7 c 0.5,-0.7 0.8,-1.5 0.8,-2.4 0,-2.1 -1.7,-3.9 -3.9,-3.9 z m 0,16.1 c -2.2,0 -4,-1.8 -4,-4 0,-2.2 1.8,-4 4,-4 2.2,0 4,1.8 4,4 0,2.2 -1.8,4 -4,4 z m 0,-7.3 c -1.8,0 -3.3,1.5 -3.3,3.3 0,1.8 1.5,3.3 3.3,3.3 1.8,0 3.3,-1.5 3.3,-3.3 0,-1.8 -1.5,-3.3 -3.3,-3.3 z m 0,-2.9 c -1.1,0 -2,-0.9 -2,-2 0,-1.1 0.9,-2 2,-2 1.1,0 2,0.9 2,2 0,1.1 -0.9,2 -2,2 z m 0,-3.3 c -0.7,0 -1.3,0.6 -1.3,1.3 0,0.7 0.6,1.3 1.3,1.3 0.7,0 1.3,-0.6 1.3,-1.3 0,-0.7 -0.6,-1.3 -1.3,-1.3 z"
       id="path10"
       inkscape:connector-curvature="0"
       style="fill:#5d3615" />
  </g>
  <path
     d="m 0,17.5 c 0,1.2 1,2.2 2.2,2.2 h 15.3 c 1.2,0 2.2,-1 2.2,-2.2 V 2.2 C 19.7,1 18.7,0 17.5,0 H 2.2 C 1,0 0,1 0,2.2 Z"
     id="path14"
     inkscape:connector-curvature="0"
     style="fill:#3d3832" />
  <g
     id="g20"
     style="fill:#a1978e">
    <path
       d="m 7.6,3.7 h 1 v 4.2 c 0,0.9 -0.1,1.8 -0.3,2.7 -0.1,0.6 -0.3,1.2 -0.6,1.8 -0.4,0.9 -1.1,1.7 -1.9,2.4 -0.7,0.6 -1.5,1.1 -2.4,1.3 -0.5,0.2 -1,0.3 -1.5,0.4 V 14.6 C 2.5,14.5 3.1,14.3 3.7,14 4.4,13.7 4.9,13.2 5.4,12.6 5.9,12 6.3,11.4 6.6,10.7 7,9.9 7.2,9.1 7.3,8.2 7.5,7.1 7.5,6 7.6,4.9 Z m 1.3,0 h 1.8 V 16.5 H 8.9 v -4.1 z m 2.2,0 h 1 c 0,1.3 0,2.6 0.2,3.9 0.1,1 0.3,2 0.7,3 0.4,0.9 0.9,1.7 1.6,2.4 0.7,0.6 1.5,1.1 2.4,1.4 0.2,0.1 0.5,0.1 0.8,0.2 v 1.9 c -0.5,-0.1 -1,-0.2 -1.5,-0.4 -0.6,-0.2 -1.1,-0.5 -1.7,-0.8 -0.4,-0.2 -0.7,-0.5 -1,-0.8 -0.5,-0.5 -1,-1.1 -1.4,-1.7 -0.3,-0.5 -0.5,-1 -0.7,-1.6 C 11.4,10.6 11.3,10.1 11.2,9.5 11.1,8.3 11,7 11.1,5.8 Z"
       id="path16"
       inkscape:connector-curvature="0" />
    <path
       d="m 8.9,3.7 v 12.8 h 1.8 V 3.7 H 8.9 m 2.2,0 v 2.1 c 0,1.2 0,2.5 0.1,3.7 0.1,0.6 0.1,1.1 0.3,1.7 0.2,0.6 0.4,1.1 0.7,1.6 0.4,0.6 0.8,1.2 1.4,1.7 0.3,0.3 0.7,0.6 1,0.8 0.5,0.3 1.1,0.6 1.7,0.8 0.5,0.2 1,0.3 1.5,0.4 V 14.6 C 17.5,14.6 17.3,14.5 17,14.4 16.1,14.1 15.3,13.6 14.6,13 13.9,12.3 13.3,11.5 13,10.6 12.6,9.7 12.4,8.7 12.3,7.6 12.1,6.3 12.1,5 12.1,3.7 h -1"
       id="path18"
       inkscape:connector-curvature="0" />
  </g>
</svg>
