<?xml version="1.0" encoding="UTF-8" standalone="no"?>
<svg
   xmlns:dc="http://purl.org/dc/elements/1.1/"
   xmlns:cc="http://creativecommons.org/ns#"
   xmlns:rdf="http://www.w3.org/1999/02/22-rdf-syntax-ns#"
   xmlns:svg="http://www.w3.org/2000/svg"
   xmlns="http://www.w3.org/2000/svg"
   xmlns:sodipodi="http://sodipodi.sourceforge.net/DTD/sodipodi-0.dtd"
   xmlns:inkscape="http://www.inkscape.org/namespaces/inkscape"
   viewBox="0 0 177.26624 398.85975"
   version="1.1"
   id="svg52"
   sodipodi:docname="controller.svg"
   width="177.26624"
   height="398.85974"
   inkscape:version="0.92.4 5da689c313, 2019-01-14">
  <metadata
     id="metadata58">
    <rdf:RDF>
      <cc:Work
         rdf:about="">
        <dc:format>image/svg+xml</dc:format>
        <dc:type
           rdf:resource="http://purl.org/dc/dcmitype/StillImage" />
      </cc:Work>
    </rdf:RDF>
  </metadata>
  <defs
     id="defs56" />
  <sodipodi:namedview
     pagecolor="#ffffff"
     bordercolor="#666666"
     borderopacity="1"
     objecttolerance="10"
     gridtolerance="10"
     guidetolerance="10"
     inkscape:pageopacity="0"
     inkscape:pageshadow="2"
     inkscape:window-width="471"
     inkscape:window-height="442"
     id="namedview54"
     showgrid="false"
     inkscape:zoom="0.59168483"
     inkscape:cx="88.633499"
     inkscape:cy="199.42924"
     inkscape:window-x="0"
     inkscape:window-y="0"
     inkscape:window-maximized="0"
     inkscape:current-layer="svg52">
    <inkscape:grid
       type="xygrid"
       id="grid60"
       originx="0"
       originy="-0.0012526935" />
  </sodipodi:namedview>
  <path
     d="m 65.739,336.042 c 5.204,-10e-4 10.409,-0.007 15.613,0.002 1.673,0.003 1.813,0.23 1.058,1.718 -2.722,5.365 -4.712,11.008 -5.843,16.895 a 66.276,66.276 0 0 0 -0.792,20.01 c 0.893,7.95 3.178,15.426 6.759,22.542 0.586,1.165 0.347,1.574 -1.004,1.576 -10.272,0.012 -20.548,0.19 -30.814,-0.05 -11.864,-0.277 -21.823,-8.552 -24.573,-20.029 -0.434,-1.81 -0.734,-3.656 -0.701,-5.553 0.064,-3.697 0.014,-7.395 0.019,-11.093 0.015,-11.608 7.501,-21.654 18.615,-24.947 2.326,-0.689 4.707,-1.077 7.145,-1.073 4.84,0.01 9.679,0.004 14.518,0.002 z"
     id="path2"
     inkscape:connector-curvature="0"
     style="fill:#717174" />
  <path
     d="m 97.409,362.339 c -2.419,0 -4.841,0.074 -7.257,-0.021 -2.247,-0.089 -3.796,0.918 -4.746,2.82 -0.513,1.026 -1.187,1.376 -2.262,1.333 a 47.35,47.35 0 0 0 -3.97,0 c -1.237,0.054 -1.707,-0.449 -1.689,-1.692 0.074,-5.241 1.053,-10.33 2.466,-15.349 1.192,-4.236 2.984,-8.229 5.014,-12.122 0.356,-0.682 0.765,-1.242 1.63,-1.254 4.381,-0.058 8.781,-0.242 12.995,1.289 9.032,3.281 14.81,9.589 17.231,18.878 0.69,2.649 0.853,5.409 0.672,8.156 -0.07,1.067 0.33,1.484 1.388,1.467 1.642,-0.027 3.287,0.079 4.927,0.032 4.083,-0.117 7.516,1.398 10.32,4.253 2.333,2.376 5.135,3.375 8.365,3.426 1.734,0.027 3.47,0.04 5.203,-0.002 1.107,-0.027 1.407,0.515 1.399,1.519 -0.007,0.963 -0.206,1.602 -1.352,1.56 -2.597,-0.095 -5.204,0.196 -7.793,-0.171 -3.095,-0.438 -5.717,-1.863 -7.87,-4.085 -2.299,-2.373 -5.059,-3.482 -8.334,-3.427 -1.506,0.025 -3.016,0.068 -4.518,-0.015 -1.303,-0.072 -1.808,0.396 -1.738,1.722 0.219,4.159 -0.332,8.231 -2.051,12.036 -4.039,8.942 -10.867,14.316 -20.645,15.83 -2.638,0.408 -5.282,0.213 -7.925,0.277 -0.887,0.022 -1.397,-0.387 -1.811,-1.168 -3.69,-6.957 -6.249,-14.26 -7.099,-22.137 -0.201,-1.859 -0.479,-3.7 -0.473,-5.579 0.004,-1.115 0.456,-1.572 1.558,-1.543 1.505,0.04 3.013,0.031 4.519,10e-4 0.821,-0.017 1.376,0.256 1.728,1.041 0.989,2.21 2.741,3.133 5.141,3.107 4.701,-0.049 9.403,-0.045 14.104,-0.002 2.303,0.021 3.961,-0.896 4.907,-3.005 0.367,-0.818 0.955,-1.151 1.831,-1.137 1.46,0.023 2.921,0.004 4.382,-0.002 0.619,-0.003 1.225,-0.028 1.261,-0.881 0.038,-0.907 -0.547,-1.035 -1.256,-1.034 -1.461,0.002 -2.922,-0.024 -4.382,0.002 -0.829,0.015 -1.349,-0.316 -1.725,-1.066 -1.058,-2.105 -2.696,-3.203 -5.161,-3.082 -2.323,0.114 -4.656,0.025 -6.984,0.025 z"
     id="path4"
     inkscape:connector-curvature="0"
     style="fill:#dfded8" />
  <path
     d="m 100.368,370.563 c -1.32,0.001 -2.642,0.035 -3.961,-0.007 -1.967,-0.062 -3.492,-1.509 -3.434,-3.197 0.06,-1.737 1.552,-3.071 3.515,-3.087 2.641,-0.021 5.282,-0.026 7.923,0.002 2.116,0.023 3.413,1.203 3.465,3.074 0.047,1.691 -1.454,3.134 -3.41,3.205 -1.365,0.049 -2.733,0.009 -4.098,0.01 z"
     stroke-miterlimit="10"
     id="path6"
     inkscape:connector-curvature="0"
     style="fill:#717174;stroke:#5b5b5f;stroke-width:0.5;stroke-miterlimit:10" />
  <g
     id="g50">
    <path
       d="m 108.413,0 h 23.256 c 7.795,0 14.173,6.378 14.173,14.173 V 297.08 c 0,7.795 -6.378,14.173 -14.173,14.173 h -23.256"
       id="path8"
       inkscape:connector-curvature="0"
       style="fill:#dfded8" />
    <path
       d="M 37.429,311.253 H 14.173 C 6.378,311.253 0,304.875 0,297.08 V 14.173 C 0,6.378 6.378,0 14.173,0 h 23.256"
       id="path10"
       inkscape:connector-curvature="0"
       style="fill:#d1ccc3" />
    <path
       d="M 11.157,297.08 V 14.173 C 11.157,6.378 17.535,0 25.331,0 h 95.555 c 7.795,0 14.173,6.378 14.173,14.173 V 297.08 c 0,7.795 -6.378,14.173 -14.173,14.173 H 25.331 c -7.796,0 -14.174,-6.378 -14.174,-14.173 z"
       id="path12"
       inkscape:connector-curvature="0"
       style="fill:#f4f3ec" />
    <path
       d="m 123.537,19.904 v 15.299 h -9.956 v -15.3 z m 0,20.947 V 56.15 h -9.956 V 40.851 Z"
       id="path14"
       inkscape:connector-curvature="0"
       style="fill:#c8c2ae" />
    <path
       d="M 123.537,61.352 V 76.65 h -9.956 v -15.3 z m 0,21.112 v 15.3 h -9.956 v -15.3 z m 0,21.113 v 15.299 h -9.956 v -15.3 z m 0,20.755 v 15.299 h -9.956 v -15.3 z"
       id="path16"
       inkscape:connector-curvature="0"
       style="fill:#717174" />
    <path
       d="m 123.537,145.138 v 15.3 h -9.956 v -15.3 z m 0,21.112 v 15.3 h -9.956 v -15.3 z m 10e-4,20.807 v 15.3 h -9.956 v -15.3 z"
       id="path18"
       inkscape:connector-curvature="0"
       style="fill:#c8c2ae" />
    <path
       d="M 102.566,19.904 V 35.203 H 87.267 v -15.3 z m -21.171,0 V 35.203 H 66.096 v -15.3 z"
       id="path20"
       inkscape:connector-curvature="0"
       style="fill:#d1ccc3" />
    <path
       d="m 102.565,40.85 v 15.3 H 87.266 v -15.3 z m 0.001,20.501 v 15.3 H 87.267 v -15.3 z m 0,21.113 v 15.299 h -15.3 V 82.464 Z m 0,21.112 v 15.3 H 87.267 v -15.3 z m 0,20.755 v 15.3 H 87.267 v -15.3 z m 0,20.807 v 15.3 h -15.3 v -15.3 z m 0,21.112 v 15.3 H 87.267 v -15.3 z M 81.394,40.851 V 56.15 H 66.095 V 40.851 Z m 10e-4,20.501 V 76.65 h -15.3 v -15.3 z m -10e-4,21.112 v 15.3 H 66.095 v -15.3 z m 10e-4,21.113 v 15.299 h -15.3 v -15.3 z m 0,20.755 v 15.299 h -15.3 v -15.3 z m -10e-4,20.806 v 15.3 H 66.095 v -15.3 z M 60.647,61.352 V 76.65 h -15.3 v -15.3 z m -10e-4,21.112 v 15.3 H 45.347 v -15.3 z m 10e-4,21.113 v 15.299 H 45.348 v -15.3 z m 0,20.755 v 15.299 H 45.348 v -15.3 z m 0,20.806 v 15.3 h -15.3 v -15.3 z M 39.476,19.904 v 15.299 h -15.3 v -15.3 z m 0,146.346 v 15.3 h -15.3 v -15.3 z m -10e-4,20.807 v 15.3 H 24.176 v -15.3 z m 10e-4,23.723 v 15.299 h -15.3 v -15.3 z m -10e-4,21.112 v 15.3 H 24.176 v -15.3 z m 21.171,0 v 15.299 H 45.347 v -15.299 z"
       id="path22"
       inkscape:connector-curvature="0"
       style="fill:#c8c2ae" />
    <path
       d="m 60.646,273.505 v 15.3 H 45.347 v -15.3 z"
       id="path24"
       inkscape:connector-curvature="0"
       style="fill:#d1ccc3" />
    <path
       d="m 39.476,253.005 v 15.299 h -15.3 v -15.3 z"
       id="path26"
       inkscape:connector-curvature="0"
       style="fill:#c8c2ae" />
    <path
       d="m 39.475,273.505 v 15.3 H 24.176 v -15.3 z m 41.919,0 v 15.3 H 66.095 v -15.3 z"
       id="path28"
       inkscape:connector-curvature="0"
       style="fill:#d1ccc3" />
    <path
       d="m 102.565,273.505 v 15.299 H 87.267 v -15.299 z m 0.001,-20.501 v 15.3 h -15.3 v -15.3 z m -0.001,-21.112 v 15.299 H 87.266 v -15.3 z m 0.001,-21.112 v 15.298 h -15.3 V 210.78 Z"
       id="path30"
       inkscape:connector-curvature="0"
       style="fill:#717174" />
    <path
       d="M 60.647,19.903 V 56.15 h -15.3 V 19.903 Z m 0,146.347 v 36.246 h -15.3 V 166.25 Z"
       id="path32"
       inkscape:connector-curvature="0"
       style="fill:#d1ccc3" />
    <g
       id="g38"
       style="fill:#717174">
      <path
         d="m 81.395,166.25 v 36.246 h -15.3 V 166.25 Z"
         id="path34"
         inkscape:connector-curvature="0" />
      <path
         d="M 102.565,202.496 H 66.32 v -15.299 h 36.246 z"
         id="path36"
         inkscape:connector-curvature="0" />
    </g>
    <path
       d="m 39.476,40.85 v 119.587 h -15.3 V 40.85 Z"
       id="path40"
       inkscape:connector-curvature="0"
       style="fill:#717174" />
    <circle
       cx="118.582"
       cy="249.692"
       r="7.7189999"
       id="circle42"
       style="fill:#717174" />
    <circle
       cx="118.605"
       cy="270.44"
       r="7.7189999"
       id="circle44"
       style="fill:#54923c" />
    <g
       id="g48">
      <path
         d="m 145.842,143.494 c 7.046,-0.201 7.603,1.91 12.442,6.837 4.027,4.1 8.861,5.824 14.434,5.912 2.992,0.047 -0.857,0.102 2.134,0.029 1.911,-0.047 2.427,0.888 2.414,2.621 -0.013,1.662 -0.355,2.764 -2.333,2.692 -4.481,-0.163 -2.136,0.306 -6.602,-0.327 -5.341,-0.756 -9.866,-3.214 -13.581,-7.049 -3.967,-4.095 -3.257,-5.01 -8.908,-4.915"
         id="path46"
         inkscape:connector-curvature="0"
         style="fill:#dfded8" />
    </g>
  </g>
</svg>
