<?xml version="1.0" encoding="UTF-8" standalone="no"?>
<svg
   xmlns:dc="http://purl.org/dc/elements/1.1/"
   xmlns:cc="http://creativecommons.org/ns#"
   xmlns:rdf="http://www.w3.org/1999/02/22-rdf-syntax-ns#"
   xmlns:svg="http://www.w3.org/2000/svg"
   xmlns="http://www.w3.org/2000/svg"
   xmlns:sodipodi="http://sodipodi.sourceforge.net/DTD/sodipodi-0.dtd"
   xmlns:inkscape="http://www.inkscape.org/namespaces/inkscape"
   width="403"
   height="118.15842"
   version="1.1"
   id="svg20"
   sodipodi:docname="logo.svg"
   inkscape:version="0.92.4 5da689c313, 2019-01-14">
  <metadata
     id="metadata26">
    <rdf:RDF>
      <cc:Work
         rdf:about="">
        <dc:format>image/svg+xml</dc:format>
        <dc:type
           rdf:resource="http://purl.org/dc/dcmitype/StillImage" />
      </cc:Work>
    </rdf:RDF>
  </metadata>
  <defs
     id="defs24" />
  <sodipodi:namedview
     pagecolor="#ffffff"
     bordercolor="#666666"
     borderopacity="1"
     objecttolerance="10"
     gridtolerance="10"
     guidetolerance="10"
     inkscape:pageopacity="0"
     inkscape:pageshadow="2"
     inkscape:window-width="640"
     inkscape:window-height="480"
     id="namedview22"
     showgrid="false"
     inkscape:zoom="0.6775"
     inkscape:cx="200"
     inkscape:cy="59.079212"
     inkscape:window-x="0"
     inkscape:window-y="0"
     inkscape:window-maximized="0"
     inkscape:current-layer="svg20">
    <inkscape:grid
       type="xygrid"
       id="grid833"
       originx="0"
       originy="3.2519531e-06" />
  </sodipodi:namedview>
  <path
     d="M 23.97487,76.855753 23.92689,47.513702 h 3.798725 V 82.648383 H 23.92689 l -20.2234146,-29.57982 0.09525,29.57982 H 0 V 47.513702 h 3.987815 l 19.987053,29.342051 z m 7.993975,-29.342051 h 18.640142 v 3.465701 H 35.861409 v 12.20192 h 14.652328 v 3.46571 H 35.861409 v 12.53565 h 14.747578 v 3.4657 H 31.968845 Z m 20.41321,17.662241 c 0,-10.82397 8.403904,-18.279605 18.32758,-18.279605 10.302561,0 18.326874,7.881795 18.326874,18.184355 0,10.30397 -7.976335,18.18435 -18.326874,18.18435 -10.398517,0 -18.32758,-8.02431 -18.32758,-18.04254 v -0.0466 z m 3.940542,-0.0952 c 0,8.26138 6.219496,14.71865 14.43431,14.71865 8.308654,0 14.386332,-6.69293 14.386332,-14.71865 0,-8.02432 -6.076973,-14.718653 -14.433604,-14.718653 -8.261381,0 -14.387038,6.551813 -14.387038,14.669963 v 0.0487 z m 65.146303,-8.45118 c -1.0922,-1.51907 -2.42218,-2.80107 -3.94125,-3.79802 -2.27895,-1.56704 -5.03274,-2.469453 -8.16613,-2.469453 -7.69199,0 -14.386327,5.887173 -14.386327,14.669963 0,8.92673 6.742317,14.8139 14.433607,14.8139 3.70347,0 6.97938,-1.28058 9.40085,-3.18065 2.46946,-1.94734 4.17832,-4.60518 4.74841,-7.36039 h -19.12345 v -3.22863 h 23.68136 c -0.0473,2.04259 -0.52212,4.60518 -1.56705,6.79029 -3.03884,6.59979 -10.0662,10.44509 -17.14012,10.44509 -10.255291,0 -18.37415,-7.88109 -18.37415,-18.27961 0,-10.53963 8.261381,-18.137076 18.42142,-18.137076 7.1219,0 13.72169,3.988516 16.47549,9.733176 h -4.46266 v 0.001 z m 8.5302,-9.115811 h 19.46635 v 3.465701 h -15.57237 v 12.20192 h 15.47783 v 3.46571 h -15.47783 v 12.53565 h 15.57237 v 3.4657 H 129.9991 Z m 21.0334,17.662241 c 0,-10.82397 8.4039,-18.279605 18.32687,-18.279605 10.30327,0 18.32688,7.881795 18.32688,18.184355 0,10.30397 -7.97634,18.18435 -18.32688,18.18435 -10.39781,0 -18.32687,-8.02431 -18.32687,-18.04254 v -0.0466 z m 3.94054,-0.0952 c 0,8.26138 6.21949,14.71865 14.4336,14.71865 8.30936,0 14.38634,-6.69293 14.38634,-14.71865 0,-8.02432 -6.07698,-14.718653 -14.43361,-14.718653 -8.26138,0 -14.38633,6.551813 -14.38633,14.669963 v 0.0487 z m 76.07329,0.0952 c 0,-10.82397 8.40319,-18.279605 18.32758,-18.279605 10.30326,0 18.32758,7.881795 18.32758,18.184355 0,10.30397 -7.97634,18.18435 -18.32758,18.18435 -10.39782,0 -18.32758,-8.02431 -18.32758,-18.04254 v -0.0466 z m 3.93983,-0.0952 c 0,8.26138 6.2202,14.71865 14.43502,14.71865 8.30936,0 14.38704,-6.69293 14.38704,-14.71865 0,-8.02432 -6.07698,-14.718653 -14.43431,-14.718653 -8.26068,0 -14.38775,6.551813 -14.38775,14.669963 v 0.0487 z m 71.93237,8.11956 c -2.27825,5.41304 -8.4032,10.06691 -16.14247,10.06691 -10.3971,0 -18.32758,-8.02432 -18.32758,-18.18365 0,-10.01893 7.73997,-18.185058 18.27819,-18.185058 8.68754,0 14.14927,5.792628 16.18974,10.255288 h -4.22629 c -1.18816,-2.08845 -5.17457,-6.789586 -11.96345,-6.789586 -8.21411,0 -14.38633,6.504536 -14.38633,14.670676 0,8.30935 6.21808,14.76662 14.38633,14.76662 7.36109,0 11.10902,-5.27052 11.96345,-6.59979 l 4.22841,-0.001 z m 38.55381,-25.686551 h 19.46777 v 3.465701 h -15.57308 v 12.20192 h 15.47712 v 3.46571 h -15.47712 v 12.53565 h 15.57308 v 3.4657 h -19.46777 z m 39.21775,3.465701 H 373.368 V 47.513802 H 400 v 3.465701 h -11.36866 v 31.66898 h -3.94125 z"
     id="path2"
     inkscape:connector-curvature="0"
     style="fill:#1d1d1b" />
  <path
     d="m 151.16232,109.72206 c -1.44851,4.92621 -6.08544,8.43636 -11.65653,8.43636 -7.27713,0 -12.49332,-5.76441 -12.49332,-12.39595 0,-6.342967 4.92621,-12.332447 12.46157,-12.332447 6.85873,0.0332 10.75483,5.08778 11.68828,8.566877 h -5.05533 c -0.74013,-1.64254 -2.86527,-4.314477 -6.6654,-4.347647 -4.63693,0 -7.63132,3.895387 -7.63132,8.113917 0,4.34765 3.1235,8.18025 7.66377,8.18025 4.25028,0 6.18281,-3.34858 6.63295,-4.21854 l 5.05533,-0.003 z m 12.84751,-3.73593 c 0,-7.629197 5.86036,-12.558227 12.49402,-12.558227 7.21292,0 12.52578,5.60213 12.52578,12.364197 0,6.76207 -5.28111,12.3635 -12.55823,12.3635 -7.30959,0 -12.46157,-5.763 -12.46157,-12.13772 v -0.0317 z m 4.79779,-0.19262 c 0,4.34765 3.12351,8.14708 7.76114,8.14708 4.83026,0 7.66378,-4.18678 7.66378,-8.11392 0,-3.99204 -2.83352,-8.180237 -7.69623,-8.180237 -4.76534,0 -7.72869,3.927837 -7.72869,8.115327 v 0.0318 z m 34.39032,-11.912637 h 4.79709 v 19.609577 h 7.82464 v 4.21853 h -12.62173 z m 24.41937,12.105257 c 0,-7.629197 5.86037,-12.558227 12.49332,-12.558227 7.21363,0 12.52648,5.60213 12.52648,12.364197 0,6.76207 -5.2811,12.3635 -12.55823,12.3635 -7.30817,0 -12.46157,-5.763 -12.46157,-12.13772 v -0.0317 z m 4.7978,-0.19262 c 0,4.34765 3.12421,8.14708 7.75973,8.14708 4.83025,0 7.66377,-4.18678 7.66377,-8.11392 0,-3.99204 -2.83423,-8.180237 -7.69552,-8.180237 -4.76534,0 -7.72798,3.927837 -7.72798,8.115327 v 0.0318 z"
     id="path4"
     inkscape:connector-curvature="0"
     style="fill:#f10000" />
  <path
     d="m 335.54514,82.648383 h 4.89093 l -18.2535,-17.61638 16.78029,-17.519007 h -4.27215 l -18.4186,19.048657 V 47.513702 h -3.89327 v 35.134681 h 3.89327 v -11.4498 l 3.58424,-3.74369 z"
     id="path6"
     inkscape:connector-curvature="0"
     style="fill:#1d1d1b" />
  <path
     d="m 272.21,93.880873 c 2.68042,0.0677 5.04898,0.20531 7.17976,1.99038 0.54893,0.44873 1.0654,1.03082 1.44287,1.61502 1.09996,1.68487 1.20227,3.572237 1.20227,4.226287 0,0.58209 -0.0684,2.19711 -0.96097,3.67526 -0.2413,0.37535 -0.54963,0.89182 -1.27142,1.54376 -0.79022,0.68862 -1.61431,1.06539 -1.92476,1.20227 -0.5842,0.24059 -1.16699,0.41275 -2.43841,0.68721 l 7.00831,9.30843 h -5.39399 l -6.73314,-9.17084 v 9.17084 h -4.84295 V 93.878753 l 6.73243,0.002 z m -1.88948,11.507647 h 2.40454 c 0.27587,0 0.51435,0 0.79093,-0.0346 0.51435,0 2.23239,-0.0692 3.36622,-1.44287 0.27376,-0.34431 0.75565,-1.06539 0.75565,-2.23379 0,-0.37748 -0.0346,-1.30599 -0.65335,-2.161827 -1.06609,-1.44428 -2.71498,-1.58046 -4.36458,-1.61644 h -2.30153 v 7.489497 h 0.002 z"
     id="path8"
     inkscape:connector-curvature="0"
     style="fill:#f10000" />
  <path
     d="m 213.63879,85.333743 c -7.64684,-15.20761 -15.27251,-30.37429 -22.90312,-45.552254 0.0423,-0.02963 0.0762,-0.05856 0.115,-0.07761 1.90289,-0.973671 3.80649,-1.947341 5.70868,-2.9196 2.68958,-1.373016 5.37988,-2.739683 8.06664,-4.119755 2.82435,-1.450627 5.79264,-2.323403 8.99658,-2.219686 2.18088,0.07056 4.18043,0.704853 5.93445,2.042591 1.54799,1.181105 2.64372,2.714988 3.48334,4.44925 0.79657,1.645362 1.36455,3.357752 1.3963,5.204903 0.0445,2.56541 -0.73096,4.885285 -2.1061,7.039355 -0.92145,1.440749 -1.97274,2.766496 -3.20605,3.939836 -0.84949,0.80857 -1.75755,1.55505 -2.63808,2.32764 -3.2237,-2.28672 -6.37896,-4.52263 -9.54691,-6.768423 0.60184,-2.196402 1.19451,-4.37305 1.79141,-6.555341 h 9.12992 v -6.930698 c -4.71454,0.04515 -9.37687,0.08961 -14.03849,0.136172 -1.69828,4.798502 -3.38879,9.570897 -5.08002,14.352465 5.4575,4.514165 10.89664,9.012805 16.34003,13.516375 2.16324,-0.82479 4.21571,-1.8408 6.14752,-3.09528 3.07835,-2.00026 5.64447,-4.51275 7.52902,-7.67718 1.75049,-2.941471 2.63032,-6.145411 2.67829,-9.566662 0.0296,-2.120203 -0.2921,-4.193133 -0.91581,-6.225141 -0.82762,-2.69241 -2.1075,-5.129408 -4.06049,-7.171999 -3.66114,-3.833297 -8.15131,-5.893527 -13.46275,-6.082617 -3.13974,-0.111478 -6.11014,0.597608 -8.91262,2.005196 -1.26224,0.635003 -2.49838,1.320805 -3.76838,1.936052 -2.82929,1.368077 -5.67269,2.707227 -8.51044,4.055549 -2.50262,1.189571 -5.00594,2.374909 -7.50856,3.560952 -0.84596,0.401463 -1.69263,0.804336 -2.54,1.206505 8.49915,17.329215 16.98843,34.637965 25.47347,51.946725 2.15125,-0.9257 4.25804,-1.83304 6.40717,-2.75732 z"
     id="path10"
     inkscape:connector-curvature="0"
     style="fill:none" />
  <path
     d="m 213.63879,85.333743 c -2.14983,0.92498 -4.25592,1.83162 -6.4107,2.75732 -8.48434,-17.30664 -16.97502,-34.61681 -25.47347,-51.946021 0.84737,-0.402168 1.69334,-0.805042 2.54001,-1.206504 2.50261,-1.186749 5.00593,-2.372087 7.50855,-3.560953 2.83775,-1.348321 5.68115,-2.687471 8.51044,-4.055548 1.27001,-0.615247 2.50614,-1.30105 3.76839,-1.936052 2.80247,-1.408294 5.77287,-2.116675 8.9119,-2.005197 5.31215,0.18909 9.80232,2.24932 13.46346,6.082618 1.95299,2.042591 3.23287,4.478883 4.05979,7.171999 0.62442,2.031302 0.94615,4.104938 0.91652,6.22514 -0.048,3.421252 -0.9264,6.625192 -2.6783,9.566668 -1.88596,3.16372 -4.45066,5.67621 -7.53043,7.67717 -1.9304,1.25308 -3.98287,2.26979 -6.14611,3.09458 -5.44338,-4.50287 -10.88253,-9.00151 -16.34003,-13.51567 1.69123,-4.781568 3.38175,-9.553964 5.08002,-14.352465 4.66163,-0.04586 9.32607,-0.09102 14.0385,-0.136173 v 6.930698 h -9.12993 c -0.5969,2.182292 -1.19098,4.358939 -1.79141,6.555342 3.16796,2.245788 6.32251,4.481708 9.54691,6.768418 0.88053,-0.77258 1.78859,-1.51907 2.63808,-2.32763 1.23332,-1.17335 2.2846,-2.499092 3.20535,-3.939842 1.37584,-2.154069 2.15195,-4.473944 2.1068,-7.039354 -0.0339,-1.847152 -0.60043,-3.559541 -1.3963,-5.204903 -0.8382,-1.734262 -1.93464,-3.268146 -3.48334,-4.44925 -1.75402,-1.337738 -3.75357,-1.97133 -5.93445,-2.042591 -3.20394,-0.103717 -6.17223,0.768353 -8.99658,2.219686 -2.68535,1.380072 -5.37705,2.746738 -8.06664,4.119754 -1.90289,0.97226 -3.80649,1.94593 -5.70867,2.9196 -0.0388,0.01976 -0.0734,0.04868 -0.11501,0.07761 7.63485,15.17726 15.26052,30.34394 22.90665,45.55155 z m 5.394,-66.618105 c -1.52542,-0.313974 -3.0085,-0.620186 -4.5318,-0.934159 C 215.38787,11.858317 216.27476,5.936567 217.16376,0 c 2.77637,0.404991 5.52593,0.807865 8.31924,1.216383 -2.15548,5.847666 -4.29897,11.662172 -6.45021,17.499255 z"
     id="path12"
     inkscape:connector-curvature="0"
     style="fill:#f10000" />
  <path
     d="m 243.79788,13.884681 c 1.4732,2.385492 2.92595,4.741351 4.40339,7.134604 -4.8112,2.978867 -9.62029,5.954911 -14.44419,8.940128 -1.01177,-1.509894 -2.00379,-2.992272 -3.01838,-4.509222 4.34977,-3.851643 8.69036,-7.696229 13.05918,-11.56551 z"
     id="path14"
     inkscape:connector-curvature="0"
     style="fill:#07b8f9" />
  <path
     d="m 232.17734,4.573429 c 2.12866,1.471089 4.21853,2.916777 6.31756,4.367405 -3.79378,4.524039 -7.57628,9.034673 -11.38488,13.574235 -1.3321,-0.821976 -2.6522,-1.63619 -4.00969,-2.474393 3.01344,-5.132936 6.03182,-10.277867 9.07701,-15.467247 z"
     id="path16"
     inkscape:connector-curvature="0"
     style="fill:#069211" />
  <path
     d="m 290.74219,111.79076 h -1.397 v -1.14371 h 4.08589 v 1.14371 h -1.38784 v 5.31638 h -1.30105 z m 3.37046,5.31708 v -6.46009 h 1.75401 l 1.66089,4.63552 1.63195,-4.63552 h 1.7639 v 6.46009 h -1.2058 l 0.036,-5.17738 -1.80834,5.17738 h -0.85584 l -1.81611,-5.17738 0.036,5.17738 h -1.19662 z"
     id="path18"
     inkscape:connector-curvature="0" />
</svg>
