<?xml version="1.0" encoding="UTF-8" standalone="no"?>
<svg
   xmlns:dc="http://purl.org/dc/elements/1.1/"
   xmlns:cc="http://creativecommons.org/ns#"
   xmlns:rdf="http://www.w3.org/1999/02/22-rdf-syntax-ns#"
   xmlns:svg="http://www.w3.org/2000/svg"
   xmlns="http://www.w3.org/2000/svg"
   xmlns:sodipodi="http://sodipodi.sourceforge.net/DTD/sodipodi-0.dtd"
   xmlns:inkscape="http://www.inkscape.org/namespaces/inkscape"
   width="399.99933"
   height="172.60402"
   version="1.1"
   id="svg117"
   sodipodi:docname="console.svg"
   inkscape:version="0.92.4 5da689c313, 2019-01-14">
  <metadata
     id="metadata121">
    <rdf:RDF>
      <cc:Work
         rdf:about="">
        <dc:format>image/svg+xml</dc:format>
        <dc:type
           rdf:resource="http://purl.org/dc/dcmitype/StillImage" />
      </cc:Work>
    </rdf:RDF>
  </metadata>
  <sodipodi:namedview
     pagecolor="#ffffff"
     bordercolor="#666666"
     borderopacity="1"
     objecttolerance="10"
     gridtolerance="10"
     guidetolerance="10"
     inkscape:pageopacity="0"
     inkscape:pageshadow="2"
     inkscape:window-width="640"
     inkscape:window-height="480"
     id="namedview119"
     showgrid="false"
     inkscape:zoom="0.67750114"
     inkscape:cx="199.99966"
     inkscape:cy="86.30201"
     inkscape:window-x="0"
     inkscape:window-y="0"
     inkscape:window-maximized="0"
     inkscape:current-layer="svg117" />
  <defs
     id="defs5">
    <clipPath
       id="a">
      <path
         d="M 0,1674.879 H 3881.437 V 0 H 0 Z"
         id="path2"
         inkscape:connector-curvature="0" />
    </clipPath>
  </defs>
  <g
     clip-path="url(#a)"
     transform="matrix(0.10305462,0,0,-0.10305462,-1.6372708e-6,172.60402)"
     id="g115">
    <path
       d="m 1940.538,1258.802 v 268.932 h -590.077 c -428.626,0 -776.096,-58.338 -776.096,-130.302 0,-71.964 347.47,-130.302 776.096,-130.302 v -8.328 z"
       id="path7"
       inkscape:connector-curvature="0"
       style="fill:#d3192a" />
    <path
       d="m 1310.475,1527.564 v -134.296 h 31.127 v 134.456 c -10.425,-0.02 -20.803,-0.072 -31.127,-0.16"
       id="path9"
       inkscape:connector-curvature="0"
       style="fill:#af1f24" />
    <path
       d="m 1940.8981,1258.802 v 268.932 h 590.078 c 428.625,0 776.096,-58.338 776.096,-130.302 0,-71.964 -347.471,-130.303 -776.096,-130.303 h -10e-4 v -8.328 h -590.077 z"
       id="path11"
       inkscape:connector-curvature="0"
       style="fill:#d3192a" />
    <path
       d="m 2570.96,1527.564 v -134.296 h -31.127 v 134.456 c 10.426,-0.02 20.805,-0.072 31.127,-0.16"
       id="path13"
       inkscape:connector-curvature="0"
       style="fill:#af1f24" />
    <path
       d="m 2209.687,1646.879 c -6.008,19.25 -19.716,28 -35.39,28 H 1707.14 c -15.675,0 -29.382,-8.75 -35.39,-28 l -25.621,-106 c 0,-15.656 45.336,-25 61.011,-25 h 467.157 c 15.674,0 61.011,9.344 61.011,25 z"
       id="path15"
       inkscape:connector-curvature="0"
       style="fill:#232323" />
    <path
       d="m 1940.538,1572.158 h -558.055 v -209.834 h 1116.47 v 209.834 z"
       id="path17"
       inkscape:connector-curvature="0"
       style="fill:#af1f24" />
    <path
       d="m 2327.531,1615.879 h -773.64 c -7.828,0 -14.173,-6.346 -14.173,-14.173 v -171.653 c 0,-7.828 6.346,-14.173 14.173,-14.173 h 773.64 c 7.835,0 14.187,6.346 14.187,14.173 v 171.653 c 0,7.828 -6.352,14.173 -14.187,14.173"
       id="path19"
       inkscape:connector-curvature="0"
       style="fill:#363636" />
    <path
       d="m 1988.384,1495.215 c -7.916,0 -14.333,6.417 -14.333,14.333 v 115.321 c 0,15.655 -12.691,28.346 -28.347,28.346 h -9.618 c -15.67,0 -28.373,-12.691 -28.373,-28.346 v -115.32 c 0,-7.916 -6.423,-14.333 -14.346,-14.333 h -353.649 v -19.974 h 802 v 19.974 h -353.334 z"
       id="path21"
       inkscape:connector-curvature="0"
       style="fill:#555555" />
    <path
       d="m 1694.837,1502.73 c 0,8.879 -12.553,18.149 -20.172,18.149 h -150.878 c -7.619,0 -20.172,-9.27 -20.172,-18.149 l -13.897,-41.774 c 0,-8.879 6.177,-16.077 13.796,-16.077 h 191.422 c 7.62,0 13.797,7.198 13.797,16.077 z m 491.7621,0 c 0,8.879 12.553,18.149 20.172,18.149 h 150.878 c 7.619,0 20.172,-9.27 20.172,-18.149 l 13.897,-41.774 c 0,-8.879 -6.177,-16.077 -13.797,-16.077 h -191.422 c -7.62,0 -13.797,7.198 -13.797,16.077 z m -781.763,-111.418 c 0,-7.828 -6.346,-14.173 -14.173,-14.173 h -34.887 c -7.828,0 -14.173,6.346 -14.173,14.173 v 184.675 c 0,7.828 6.345,14.173 14.173,14.173 h 34.887 c 7.828,0 14.173,-6.346 14.173,-14.173 z m 1071.765,0 c 0,-7.828 6.346,-14.173 14.173,-14.173 h 34.887 c 7.827,0 14.173,6.346 14.173,14.173 v 184.675 c 0,7.828 -6.346,14.173 -14.173,14.173 h -34.887 c -7.827,0 -14.173,-6.346 -14.173,-14.173 z"
       id="path23"
       inkscape:connector-curvature="0"
       style="fill:#d3192a" />
    <path
       d="m 1942.1791,1475.241 h -565.96 c -8.009,0 -14.501,-6.345 -14.501,-14.173 l -22,-59.8 c 0,-7.828 5.292,-16.129 13.301,-16.129 h 589.16 z"
       id="path25"
       inkscape:connector-curvature="0"
       style="fill:#af1f24" />
    <path
       d="m 1940.8981,1475.241 h 564.419 c 7.987,0 14.462,-6.345 14.462,-14.173 l 21.939,-59.8 c 0,-7.828 -5.277,-16.129 -13.266,-16.129 h -587.554 z"
       id="path27"
       inkscape:connector-curvature="0"
       style="fill:#af1f24" />
    <path
       d="m 2508.2041,1453.068 c 0,7.828 -6.35,14.173 -14.182,14.173 h -1106.532 c -7.849,0 -14.212,-6.345 -14.212,-14.173 l -21.561,-59.8 c 0,-7.828 5.187,-16.129 13.036,-16.129 h 1151.956 c 7.833,0 13.008,8.302 13.008,16.129 z"
       id="path29"
       inkscape:connector-curvature="0"
       style="fill:#d3192a" />
    <path
       d="m 1940.718,387.879 v 394 h -1521 v -22 h -157 v -362 l 13.073,-10 z m 0,0 v 394 h 1521 v -22 h 157 v -362 l -13.072,-10 z"
       id="path31"
       inkscape:connector-curvature="0"
       style="fill:#232323" />
    <path
       d="M 1940.718,387.879 H 275.791 L 424.315,274.267 c 7.603,-6.734 23.843,-11.388 42.653,-11.388 h 2947.5 c 18.811,0 35.051,4.653 42.653,11.388 l 148.524,113.612 z"
       id="path33"
       inkscape:connector-curvature="0"
       style="fill:#191919" />
    <path
       d="m 3461.718,758.651 v 23.228 h -3042 v -23.228 h -157 V 376.438 l 13.073,-10.559 h 3329.855 l 13.072,10.559 v 382.213 z"
       id="path35"
       inkscape:connector-curvature="0"
       style="fill:#232323" />
    <path
       d="M 1940.718,293.599 H 986.443 L 1013.311,26.747 C 1017.961,10.93 1027.893,0 1039.397,0 h 1802.641 c 11.505,0 21.438,10.93 26.087,26.747 l 26.868,266.852 z"
       id="path37"
       inkscape:connector-curvature="0"
       style="fill:#191919" />
    <path
       d="M 1940.718,1399.879 H 398.051 v -618 h 3085.333 v 618 z"
       id="path39"
       inkscape:connector-curvature="0"
       style="fill:#af1f24" />
    <path
       d="m 3248.624,1009.879 c -4.148,0 -7.8,2.12 -9.938,5.333 h -0.111 c -0.043,0.134 -0.088,0.267 -0.131,0.4 -0.93,1.522 -1.531,3.263 -1.695,5.133 -71.945,214.235 -274.365,368.572 -512.836,368.572 h -1566.39 c -238.471,0 -440.891,-154.337 -512.835,-368.572 -0.165,-1.871 -0.767,-3.611 -1.695,-5.133 -0.043,-0.134 -0.088,-0.267 -0.132,-0.4 h -0.111 c -2.137,-3.213 -5.788,-5.333 -9.937,-5.333 -4.149,0 -34.761,5.333 -34.761,5.333 V 781.879 h 2685.332 v 233.334 c 0,0 -30.611,-5.334 -34.76,-5.334"
       id="path41"
       inkscape:connector-curvature="0"
       style="fill:#ed1c24" />
    <path
       d="M 598.051,781.879 V 570.125 c 0,0 30.612,5.334 34.761,5.334 4.148,0 7.799,-2.121 9.937,-5.334 h 0.111 c 0.043,-0.134 0.088,-0.267 0.132,-0.4 0.929,-1.521 1.53,-3.263 1.695,-5.133 C 716.631,350.358 919.051,196.02 1157.522,196.02 h 783.196 v 585.859 z"
       id="path43"
       inkscape:connector-curvature="0"
       style="fill:#232323" />
    <path
       d="M 3283.384,781.879 V 570.125 c 0,0 -30.611,5.334 -34.76,5.334 -4.149,0 -7.8,-2.121 -9.938,-5.334 h -0.111 c -0.043,-0.134 -0.088,-0.267 -0.131,-0.4 -0.93,-1.521 -1.531,-3.263 -1.695,-5.133 C 3164.804,350.358 2962.384,196.02 2723.913,196.02 h -783.195 v 585.859 z"
       id="path45"
       inkscape:connector-curvature="0"
       style="fill:#232323" />
    <path
       d="m 2724.2571,1358.802 h -1567.078 c -278.606,0 -504.461,-225.855 -504.461,-504.462 V 727.689 c 0,-278.606 225.855,-504.461 504.461,-504.461 h 1567.078 c 278.605,0 504.461,225.854 504.461,504.461 V 854.34 c 0,278.607 -225.855,504.462 -504.461,504.462"
       id="path47"
       inkscape:connector-curvature="0"
       style="fill:#100f0f" />
    <path
       d="M 2985.0029,1206.906 H 896.5359 l -72.11,-109.545 V 293.599 h 2232.583 v 803.762 z"
       id="path49"
       inkscape:connector-curvature="0"
       style="fill:#363636" />
    <path
       d="m 1983.7571,804.879 h -86.079 c -14.44,0 -26.147,-12.691 -26.147,-28.347 V 517.296 c 0,-15.655 11.707,-28.347 26.147,-28.347 h 86.079 c 14.441,0 26.147,12.691 26.147,28.347 v 259.236 c 10e-4,15.656 -11.706,28.347 -26.147,28.347"
       id="path51"
       inkscape:connector-curvature="0"
       style="fill:#191919" />
    <path
       d="m 2202.6101,315.566 -8.521,54.777 -13.292,85.452 h -0.307 c -46.637,55.676 -136.469,93.473 -239.771,93.814 -103.303,-0.342 -193.135,-38.139 -239.771,-93.814 h -0.307 l -13.292,-85.452 -8.521,-54.777 -9.685,-62.26 25.366,-199.49 c 0,-6.884 4.13,-13.248 11.121,-18.443 2.416,-2.997 8.304,-5.862 17.143,-8.531 2.939,-0.967 103.279,-18.358 217.447,-18.358 0.167,0 0.333,10e-4 0.499,10e-4 0.166,0 0.332,-10e-4 0.499,-10e-4 114.168,0 214.508,17.392 217.447,18.358 8.839,2.669 14.727,5.534 17.143,8.531 6.991,5.195 11.121,11.56 11.121,18.443 l 25.366,199.49 z"
       id="path53"
       inkscape:connector-curvature="0"
       style="fill:#232323" />
    <path
       d="m 1404.8361,1342.098 c -2,-2 -110.995,0 -223.489,-0.347 -104.076,-0.321 -238.629,-25.872 -342.629,-127.872 -104,-102 -144.847,-182.611 -167.059,-333 -22.528,-152.525 6.324,-225.983 22.17,-335.983 16.333,-113.372 98.167,-297.104 126.273,-335.924 28.106,-38.82 106.616,132.907 106.616,132.907 0,0 -124,180 -126,278 -2,98 -18.267,170.359 52,313 100,203 220,265 260,285 40,20 214,-2 224,-2 10,0 68.118,126.219 68.118,126.219 m 1071.765,0 c 2,-2 110.994,0 223.488,-0.347 104.076,-0.321 238.629,-25.872 342.629,-127.872 104,-102 144.847,-182.611 167.059,-333 22.528,-152.525 -6.323,-225.983 -22.17,-335.983 -16.332,-113.372 -98.168,-297.104 -126.273,-335.924 -28.105,-38.82 -106.616,132.907 -106.616,132.907 0,0 124,180 126,278 2,98 18.267,170.359 -52,313 -100,203 -220,265 -260,285 -40,20 -214,-2 -224,-2 -10,0 -68.117,126.219 -68.117,126.219"
       id="path55"
       inkscape:connector-curvature="0"
       style="fill:#191919" />
    <path
       d="m 2922.718,1207.879 c -110,118 -370,140 -494,150 -124,10 -323.666,6 -323.666,6 l -163.517,-1.55 -165.151,1.55 c 0,0 -199.667,4 -323.667,-6 -124,-10 -384,-32 -494,-150 -110,-118 -222,-346 -216,-580 6,-234 12,-352 100,-446 88,-94 214,-82 238,-100 24,-18 536,10 536,10 0,0 44.966,3.063 48,52 9.281,149.72 16.75,197.728 -8,223 -12,11 -21.793,7.961 -60,8.683 -182.363,3.444 -296,-13.683 -456,14.317 -141.913,24.835 -187.351,55.01 -228,90 -60.06,51.699 -57.869,40.85 -72,78 -17.857,46.946 2,160 2,160 0,0 24,198 104,318 76.105,114.158 124.645,162.357 206,166 268,12 670.667,0.334 670.667,0.334 3.019,-0.593 114,-10e-4 117.333,-1.001 3.333,1 114.314,0.408 117.334,1.001 0,0 402.666,11.666 670.666,-0.334 81.355,-3.643 129.895,-51.842 206,-166 80,-120 104,-318 104,-318 0,0 19.857,-113.054 2,-160 -14.131,-37.15 -11.939,-26.301 -72,-78 -40.648,-34.99 -86.088,-65.165 -228,-90 -160,-28 -273.637,-10.873 -456,-14.317 -38.207,-0.722 -48,2.317 -60,-8.683 -24.75,-25.272 -17.281,-73.28 -8,-223 3.033,-48.937 48,-52 48,-52 0,0 512,-28 536,-10 24,18 150,6 238,100 88,94 94,212 100,446 6,234 -105.999,462 -215.999,580"
       id="path57"
       inkscape:connector-curvature="0"
       style="fill:#232323" />
    <path
       d="m 1853.53,650.267 c 0,-23.483 -19.037,-42.52 -42.52,-42.52 h -614.031 c -23.483,0 -42.52,19.037 -42.52,42.52 v 324.316 c 0,23.483 19.037,42.52 42.52,42.52 h 614.031 c 23.483,0 42.52,-19.037 42.52,-42.52 z m 174.376,0 c 0,-23.483 19.036,-42.52 42.52,-42.52 h 614.03 c 23.483,0 42.52,19.037 42.52,42.52 v 324.316 c 0,23.483 -19.036,42.52 -42.52,42.52 h -614.03 c -23.483,0 -42.52,-19.037 -42.52,-42.52 z"
       id="path59"
       inkscape:connector-curvature="0"
       style="fill:#5e3d38" />
    <path
       d="m 99.838,827.596 0.008,0.071 -0.01,10e-4 c -0.103,8.939 -6.831,16.617 -15.944,17.657 -3.576,0.408 -7.02,-0.273 -10.02,-1.762 l -0.001,0.009 -0.065,-0.04 C 72.963,843.109 23.141,812.748 23.141,812.748 l -0.003,-0.021 C 18.991,810.259 15.994,805.966 15.405,800.8 L 0.104,666.67 c -0.589,-5.166 1.364,-10.023 4.849,-13.362 l -0.002,-0.021 c 0,0 41.704,-40.803 42.43,-41.404 l 0.055,-0.053 0.003,0.008 c 2.588,-2.126 5.79,-3.565 9.365,-3.974 9.114,-1.039 17.398,4.927 19.512,13.613 l 0.01,-10e-4 0.008,0.071 c 0.168,0.707 23.509,205.323 23.504,206.049 m 3681.7611,0 -0.01,0.071 0.01,10e-4 c 0.104,8.939 6.83,16.617 15.943,17.657 3.576,0.408 7.021,-0.273 10.021,-1.762 v 0.009 l 0.066,-0.04 c 0.843,-0.423 50.664,-30.784 50.664,-30.784 v -0.021 c 4.146,-2.468 7.143,-6.761 7.732,-11.927 l 15.301,-134.13 c 0.59,-5.166 -1.363,-10.023 -4.848,-13.362 v -0.021 c 0,0 -41.704,-40.803 -42.431,-41.404 l -0.056,-0.053 v 0.008 c -2.588,-2.126 -5.79,-3.565 -9.365,-3.974 -9.114,-1.039 -17.397,4.927 -19.512,13.613 l -0.011,-10e-4 -0.01,0.071 c -0.166,0.707 -23.508,205.323 -23.502,206.049"
       id="path61"
       inkscape:connector-curvature="0"
       style="fill:#232323" />
    <path
       d="m 112.79,864.767 c -12.524,1.429 -23.835,-7.565 -25.264,-20.09 L 60.144,604.641 c -1.428,-12.524 7.566,-23.834 20.09,-25.264 12.525,-1.428 23.835,7.566 25.265,20.09 l 27.382,240.035 c 1.429,12.526 -7.566,23.836 -20.091,25.265 m 3655.856,0 c 12.525,1.429 23.836,-7.565 25.265,-20.09 l 27.382,-240.036 c 1.428,-12.524 -7.566,-23.834 -20.09,-25.264 -12.525,-1.428 -23.836,7.566 -25.266,20.09 l -27.381,240.035 c -1.43,12.526 7.565,23.836 20.09,25.265"
       id="path63"
       inkscape:connector-curvature="0"
       style="fill:#191919" />
    <path
       d="m 200.304,1164.193 410.136,-46.469 -29.722,240.155 c 0,23.196 -18.804,42 -42,42 H 309.051 c -44.522,0 -81.535,-32.149 -89.09,-74.5 v -10e-4 c -0.572,-3.207 -0.969,-6.475 -1.194,-9.79 z m 3480.8281,0 -410.137,-46.469 29.723,240.155 c 0,23.196 18.805,42 42,42 h 229.666 c 44.522,0 81.535,-32.149 89.09,-74.5 v -10e-4 c 0.572,-3.207 0.97,-6.475 1.194,-9.79 z"
       id="path65"
       inkscape:connector-curvature="0"
       style="fill:#d3192a" />
    <path
       d="m 649.718,794.879 -545.667,-13 -30.667,-280 10.667,-76 c 0,-41.974 34.026,-76 76,-76 h 380.667 c 28.493,0 51.945,21.537 54.99,49.22 l 0.006,0.002 z"
       id="path67"
       inkscape:connector-curvature="0"
       style="fill:#232323" />
    <path
       d="m 644.262,794.879 -51.548,-377.778 -0.006,-0.002 c -3.044,-27.683 -26.497,-49.22 -54.99,-49.22 H 157.051 c -34.526,0 -63.656,23.03 -72.913,54.562 1.799,-40.377 35.093,-72.562 75.913,-72.562 h 380.667 c 28.493,0 51.945,21.537 54.99,49.22 l 0.006,0.002 54.004,395.778 z"
       id="path69"
       inkscape:connector-curvature="0"
       style="fill:#191919" />
    <path
       d="m 3231.718,794.879 545.666,-13 30.667,-280 -10.667,-76 c 0,-41.974 -34.026,-76 -76,-76 h -380.666 c -28.492,0 -51.945,21.537 -54.99,49.22 l -0.01,0.002 -54.004,395.778 z"
       id="path71"
       inkscape:connector-curvature="0"
       style="fill:#232323" />
    <path
       d="m 3237.1741,794.879 51.548,-377.778 0.01,-0.002 c 3.045,-27.683 26.498,-49.22 54.99,-49.22 h 380.666 c 34.526,0 63.656,23.03 72.913,54.562 -1.799,-40.377 -35.093,-72.562 -75.913,-72.562 h -380.666 c -28.492,0 -51.945,21.537 -54.99,49.22 l -0.01,0.002 -54.004,395.778 z"
       id="path73"
       inkscape:connector-curvature="0"
       style="fill:#191919" />
    <path
       d="m 649.35,797.903 -40.632,333.976 c 0,21.539 -17.461,39 -39,39 h -185 l 13.333,-389 h 238.667 c 7.18,0 13,5.82 13,13 0,1.043 -0.136,2.052 -0.368,3.024"
       id="path75"
       inkscape:connector-curvature="0"
       style="fill:#d3192a" />
    <path
       d="m 649.35,797.903 -40.632,333.976 c 0,21.539 -17.461,39 -39,39 h -185 l 0.994,-29 h 178.006 c 21.539,0 39,-17.461 39,-39 l 38.935,-320.024 c 4.731,1.944 8.065,6.593 8.065,12.024 0,1.043 -0.136,2.052 -0.368,3.024"
       id="path77"
       inkscape:connector-curvature="0"
       style="fill:#af1f24" />
    <path
       d="m 3232.085,797.903 40.633,333.976 c 0,21.539 17.461,39 39,39 h 185 l -13.334,-389 h -238.666 c -7.18,0 -13,5.82 -13,13 0,1.043 0.136,2.052 0.367,3.024"
       id="path79"
       inkscape:connector-curvature="0"
       style="fill:#d3192a" />
    <path
       d="m 3232.085,797.903 40.633,333.976 c 0,21.539 17.461,39 39,39 h 185 l -0.994,-29 h -178.006 c -21.539,0 -39,-17.461 -39,-39 l -38.936,-320.024 c -4.73,1.944 -8.064,6.593 -8.064,12.024 0,1.043 0.136,2.052 0.367,3.024"
       id="path81"
       inkscape:connector-curvature="0"
       style="fill:#af1f24" />
    <path
       d="m 384.718,1170.879 -193,-6.998 c -24.117,0 -43.667,-19.55 -43.667,-43.667 l -44,-338.335 h 294 z"
       id="path83"
       inkscape:connector-curvature="0"
       style="fill:#2b2c2c" />
    <path
       d="m 148.051,1092.214 c 0,24.117 19.55,43.667 43.667,43.667 l 193,6.998 12.374,-361 h 0.959 l -13.333,389 -193,-6.998 c -24.117,0 -43.667,-19.55 -43.667,-43.667 l -44,-338.335 h 3.641 z"
       id="path85"
       inkscape:connector-curvature="0"
       style="fill:#232323" />
    <path
       d="m 3496.718,1170.879 193,-6.998 c 24.117,0 43.667,-19.55 43.667,-43.667 l 43.999,-338.335 h -294 z"
       id="path87"
       inkscape:connector-curvature="0"
       style="fill:#2b2c2c" />
    <path
       d="m 3733.385,1092.214 c 0,24.117 -19.55,43.667 -43.667,43.667 l -193,6.998 -12.374,-361 h -0.96 l 13.334,389 193,-6.998 c 24.117,0 43.667,-19.55 43.667,-43.667 l 43.999,-338.335 h -3.641 z"
       id="path89"
       inkscape:connector-curvature="0"
       style="fill:#232323" />
    <path
       d="M 371.796,1170.411 383.849,782.602 345.312,494.052 H 74.484 l 1.989,-14.173 h 281.245 l 40.333,302 -12.09,389 h -1.243 z m 3137.8441,0 -12.053,-387.809 38.537,-288.55 h 270.828 l -1.989,-14.173 h -281.245 l -40.334,302 12.091,389 h 1.243 z"
       id="path91"
       inkscape:connector-curvature="0"
       style="fill:#191919" />
    <path
       d="M 284.718,956.879 H 126.81 l -4.162,-32 h 162.07 c 8.836,0 16,7.164 16,16 0,8.836 -7.164,16 -16,16 m 0,-59 H 119.137 l -4.162,-32 h 169.743 c 8.836,0 16,7.164 16,16 0,8.836 -7.164,16 -16,16 m 0,-61 H 111.204 l -4.162,-32 h 177.676 c 8.836,0 16,7.164 16,16 0,8.836 -7.164,16 -16,16 m 0,-61 H 103.394 l -3.504,-32 h 184.828 c 8.836,0 16,7.164 16,16 0,8.836 -7.164,16 -16,16 m 0,-58 H 97.042 l -3.505,-32 h 191.181 c 8.836,0 16,7.164 16,16 0,8.836 -7.164,16 -16,16 m 0,-58 H 90.69 l -3.505,-32 h 197.533 c 8.836,0 16,7.164 16,16 0,8.836 -7.164,16 -16,16 m 3312,297 h 157.908 l 4.162,-32 h -162.07 c -8.836,0 -16,7.164 -16,16 0,8.836 7.164,16 16,16 m 0,-59 h 165.581 l 4.161,-32 h -169.742 c -8.836,0 -16,7.164 -16,16 0,8.836 7.164,16 16,16 m 0,-61 h 173.514 l 4.162,-32 h -177.676 c -8.836,0 -16,7.164 -16,16 0,8.836 7.164,16 16,16 m 0,-61 h 181.324 l 3.504,-32 h -184.828 c -8.836,0 -16,7.164 -16,16 0,8.836 7.164,16 16,16 m 0,-58 h 187.676 l 3.505,-32 h -191.181 c -8.836,0 -16,7.164 -16,16 0,8.836 7.164,16 16,16 m 0,-58 h 194.028 l 3.505,-32 h -197.533 c -8.836,0 -16,7.164 -16,16 0,8.836 7.164,16 16,16"
       id="path93"
       inkscape:connector-curvature="0"
       style="fill:#191919" />
    <path
       d="m 2127.97,434.213 c 0,46.575 -83.78,84.333 -187.129,84.333 -103.349,0 -187.129,-37.758 -187.129,-84.333 l -60.216,-372.436 1.012,-7.962 c 0,-6.884 4.13,-13.248 11.121,-18.443 2.416,-2.997 8.304,-5.862 17.143,-8.531 2.939,-0.967 103.279,-18.358 217.447,-18.358 0.167,0 0.333,10e-4 0.499,10e-4 0.166,0 0.332,-10e-4 0.499,-10e-4 114.168,0 214.508,17.392 217.447,18.358 8.839,2.669 14.727,5.534 17.143,8.531 6.931,5.15 11.043,11.449 11.114,18.264 z"
       id="path95"
       inkscape:connector-curvature="0"
       style="fill:#363636" />
    <path
       d="m 1784.0601,1161.751 c -25.991,0 -54.928,-22.453 -54.928,-52.743 0,-30.29 26.354,-52.742 54.928,-52.742 h 318.729 c 30.288,-2.187 54.931,22.452 54.931,52.742 0,30.29 -25.402,52.743 -54.931,52.743 z"
       id="path97"
       inkscape:connector-curvature="0"
       style="fill:#232323" />
    <path
       d="m 1784.0601,1148.626 c -20.335,1.087 -41.803,-16.53 -41.803,-39.619 0,-23.089 17.552,-39.489 41.803,-39.618 h 318.729 c 24.575,-0.334 41.806,16.529 41.806,39.618 0,23.088 -20.688,41.396 -41.806,39.619 z"
       id="path99"
       inkscape:connector-curvature="0"
       style="fill:#363636" />
    <path
       d="m 1831.655,1116.487 h 15.134 v -33.298 h -15.134 z m 49.075,1.513 c 0,0 -6.282,-0.313 -11.024,-5.055 v 3.542 h -15.137 v -33.298 h 15.137 v 21.62 c 1.729,6.055 6.702,5.84 6.702,5.84 7.997,0 7.567,-7.786 7.567,-7.786 v -19.674 h 14.486 v 20.111 c 0,0 -0.865,14.7 -17.731,14.7 m 122.1601,0 c 0,0 -6.281,-0.313 -11.023,-5.055 v 3.542 h -15.138 v -33.298 h 15.138 v 21.62 c 1.729,6.055 6.698,5.84 6.698,5.84 8.001,0 7.57,-7.786 7.57,-7.786 v -19.674 h 14.486 v 20.111 c 0,0 -0.864,14.7 -17.731,14.7 m -171.2351,14.593 h 15.134 v -10.052 h -15.134 z m 97.9411,-12.6479 h -7.567 v 7.785 h -15.137 v -7.785 h -6.268 v -4.323 h 6.268 v -32.433 h 15.137 v 32.433 h 7.567 z m 165.7259,-2.0511 c 11.702,0 21.188,-8.228 21.188,-18.378 0,-10.15 -9.486,-18.378 -21.188,-18.378 -11.702,0 -21.188,8.228 -21.188,18.378 0,10.15 9.486,18.378 21.188,18.378"
       id="path101"
       inkscape:connector-curvature="0"
       style="fill:#232323" />
    <path
       d="m 2095.322,1113.998 c -3.209,0 -5.837,-2.95 -5.837,-6.563 v -15.845 c 0,-3.61 2.628,-6.563 5.837,-6.563 3.213,0 5.838,2.952 5.838,6.563 v 15.845 c 0,3.613 -2.625,6.563 -5.838,6.563"
       id="path103"
       inkscape:connector-curvature="0"
       style="fill:#363636" />
    <path
       d="m 2053.698,1132.489 v -17 c -2.174,1.186 -4.525,1.86 -6.811,1.86 -11.354,0 -20.555,-7.985 -20.555,-17.834 0,-9.849 9.201,-17.833 20.555,-17.833 2.146,0 4.539,0.852 6.811,2.32 v -0.812 h 15.137 v 49.3 h -15.137 z"
       id="path105"
       inkscape:connector-curvature="0"
       style="fill:#232323" />
    <path
       d="m 2047.7781,1112.595 c -3.112,0 -5.664,-2.688 -5.664,-5.978 v -14.427 c 0,-3.286 2.552,-5.974 5.664,-5.974 3.114,0 5.666,2.688 5.666,5.974 v 14.432 c 0,3.285 -2.552,5.973 -5.666,5.973"
       id="path107"
       inkscape:connector-curvature="0"
       style="fill:#363636" />
    <path
       d="m 1957.175,1092.918 c 0,-5.404 -2.751,-7.89 -6.121,-7.89 -3.367,0 -6.122,2.952 -6.122,6.563 v 7.383 h 28.308 c 0,0.18 -1.268,18.92 -22.186,18.92 -12.271,0 -22.214,-8.228 -22.214,-18.38 0,-10.151 9.944,-18.376 22.214,-18.376 9.453,0 17.51,4.893 20.719,11.781 h -14.598 z"
       id="path109"
       inkscape:connector-curvature="0"
       style="fill:#232323" />
    <path
       d="m 1957.175,1104.162 v 3.274 c 0,3.612 -2.751,6.563 -6.121,6.563 -3.367,0 -6.122,-2.95 -6.122,-6.563 v -3.274 z"
       id="path111"
       inkscape:connector-curvature="0"
       style="fill:#363636" />
    <path
       d="m 1771.5441,1132.593 v -49.187 h 13.621 v 34.38 l 21.84,-34.597 h 15.567 v 49.404 h -15.137 v -34.484 l -21.622,34.484 z"
       id="path113"
       inkscape:connector-curvature="0"
       style="fill:#232323" />
  </g>
</svg>
