<?xml version="1.0" encoding="UTF-8" standalone="no"?>
<svg
   xmlns:dc="http://purl.org/dc/elements/1.1/"
   xmlns:cc="http://creativecommons.org/ns#"
   xmlns:rdf="http://www.w3.org/1999/02/22-rdf-syntax-ns#"
   xmlns:svg="http://www.w3.org/2000/svg"
   xmlns="http://www.w3.org/2000/svg"
   xmlns:sodipodi="http://sodipodi.sourceforge.net/DTD/sodipodi-0.dtd"
   xmlns:inkscape="http://www.inkscape.org/namespaces/inkscape"
   width="160.662"
   height="200"
   version="1.1"
   id="svg77"
   sodipodi:docname="controller.svg"
   inkscape:version="0.92.4 5da689c313, 2019-01-14">
  <metadata
     id="metadata81">
    <rdf:RDF>
      <cc:Work
         rdf:about="">
        <dc:format>image/svg+xml</dc:format>
        <dc:type
           rdf:resource="http://purl.org/dc/dcmitype/StillImage" />
      </cc:Work>
    </rdf:RDF>
  </metadata>
  <sodipodi:namedview
     pagecolor="#ffffff"
     bordercolor="#666666"
     borderopacity="1"
     objecttolerance="10"
     gridtolerance="10"
     guidetolerance="10"
     inkscape:pageopacity="0"
     inkscape:pageshadow="2"
     inkscape:window-width="471"
     inkscape:window-height="442"
     id="namedview79"
     showgrid="false"
     inkscape:zoom="1.18"
     inkscape:cx="80.331001"
     inkscape:cy="100"
     inkscape:window-x="0"
     inkscape:window-y="0"
     inkscape:window-maximized="0"
     inkscape:current-layer="svg77">
    <inkscape:grid
       type="xygrid"
       id="grid83"
       originx="-4.1002674e-14"
       originy="0" />
  </sodipodi:namedview>
  <defs
     id="defs5">
    <clipPath
       id="a">
      <path
         d="M 0,547.28 H 439.635 V 0 H 0 Z"
         id="path2"
         inkscape:connector-curvature="0" />
    </clipPath>
  </defs>
  <g
     clip-path="url(#a)"
     transform="matrix(0.36544407,0,0,-0.36544407,-1.6779703e-6,200)"
     id="g75">
    <path
       d="m 175.1079,265.8635 v 15.526 l -1.494,90.365 -28.137,-4.687 v -0.093 c -1.386,-0.351 -2.422,-1.723 -2.422,-3.369 v -179.935 c 0,-1.645 1.036,-3.017 2.422,-3.367 v -0.093 l 28.137,-4.685 z"
       id="path7"
       inkscape:connector-curvature="0"
       style="fill:#1b1c1c" />
    <path
       d="m 122.6385,2.3488 c 46.369,5.537 55.366,8.997 98.08,21.454 42.714,12.457 41.718,29.067 65.94,21.454 24.223,-7.612 18.686,-7.612 35.296,-14.533 16.609,-6.921 33.911,-6.921 33.911,-6.921 l 33.219,38.064 v 423.546 l -33.219,38.064 c 0,0 -17.302,0 -33.911,-6.921 -16.61,-6.921 -11.073,-6.921 -35.296,-14.533 -24.222,-7.613 -23.226,8.997 -65.94,21.454 -42.714,12.457 -51.711,15.917 -98.08,21.454 -46.369,5.536 -57.442,0 -89.969,-3.46 -32.527,-3.461 -51.575,-67.603 -4.152,-78.204 47.047,-10.518 53.567,-10.762 89.277,-15.226 44.292,-5.536 76.748,-6.92 114.191,-17.301 14.987,-4.156 12.457,-13.842 12.457,-13.842 0,0 -8.305,-62.286 -9.689,-133.569 -0.066,-3.417 -0.126,-6.641 -0.18,-9.689 0.054,-3.048 0.114,-6.272 0.18,-9.689 1.384,-71.283 9.689,-133.569 9.689,-133.569 0,0 2.53,-9.687 -12.457,-13.842 -37.443,-10.381 -69.899,-11.765 -114.191,-17.301 -35.71,-4.464 -42.23,-4.708 -89.277,-15.226 -47.423,-10.601 -28.375,-74.743 4.152,-78.204 32.527,-3.46 43.6,-8.997 89.969,-3.46"
       id="path9"
       inkscape:connector-curvature="0"
       style="fill:#1b1c1c" />
    <path
       d="m 388.3929,183.6708 v 179.931 c 0,4.59 -3.718,8.312 -8.305,8.312 h -204.852 c -4.587,0 -8.305,-3.722 -8.305,-8.312 v -179.931 c 0,-4.586 3.718,-8.305 8.305,-8.305 h 204.852 c 4.587,0 8.305,3.719 8.305,8.305"
       id="path11"
       inkscape:connector-curvature="0"
       style="fill:#232323" />
    <path
       d="m 380.088,191.9756 v 163.328 c 0,4.587 -3.718,8.305 -8.305,8.305 H 222.296 c -4.586,0 -8.304,-3.718 -8.304,-8.305 v -163.328 c 0,-4.586 3.718,-8.305 8.304,-8.305 h 149.487 c 4.587,0 8.305,3.719 8.305,8.305"
       id="path13"
       inkscape:connector-curvature="0"
       style="fill:#2b2b2b" />
    <path
       d="m 426.4567,400.9804 -59.518,-92.045 c 0,0 -19.378,-27.683 -54.673,-18.686 -35.296,8.997 -45.52,52.374 -37.372,85.124 7.613,30.6 26.991,107.271 26.991,107.271 0,0 22.34,58.826 89.969,35.296 67.628,-23.531 47.573,-98.966 34.603,-116.96 m 0,-254.6813 -59.518,92.045 c 0,0 -19.378,27.683 -54.673,18.686 -35.296,-8.997 -45.52,-52.374 -37.372,-85.124 7.613,-30.6 26.991,-107.271 26.991,-107.271 0,0 22.34,-58.826 89.969,-35.296 67.628,23.531 47.573,98.966 34.603,116.96"
       id="path15"
       inkscape:connector-curvature="0"
       style="fill:#232323" />
    <path
       stroke-miterlimit="10"
       d="m 368.5824,68.8739 c -15.862,0 -28.721,12.859 -28.721,28.721 0,15.862 12.859,28.721 28.721,28.721 15.862,0 28.721,-12.859 28.721,-28.721 0,-15.862 -12.859,-28.721 -28.721,-28.721 z m 0,406.8499 c -15.862,0 -28.721,-12.859 -28.721,-28.721 0,-15.862 12.859,-28.721 28.721,-28.721 15.862,0 28.721,12.859 28.721,28.721 0,15.862 -12.859,28.721 -28.721,28.721 z"
       id="path17"
       inkscape:connector-curvature="0"
       style="fill:none;stroke:#1b1c1c;stroke-width:1.56900001;stroke-miterlimit:10" />
    <path
       d="m 381.0396,67.9534 v 17.184 h 17.184 c 2.168,0 3.924,1.757 3.924,3.923 v 17.068 c 0,2.167 -1.756,3.924 -3.924,3.924 h -17.184 v 17.184 c 0,2.167 -1.757,3.924 -3.923,3.924 h -17.068 c -2.167,0 -3.923,-1.757 -3.923,-3.924 v -17.184 h -17.185 c -2.167,0 -3.924,-1.757 -3.924,-3.924 v -17.068 c 0,-2.166 1.757,-3.923 3.924,-3.923 h 17.185 v -17.184 c 0,-2.167 1.756,-3.924 3.923,-3.924 h 17.068 c 2.166,0 3.923,1.757 3.923,3.924"
       id="path19"
       inkscape:connector-curvature="0"
       style="fill:#1b1c1c" />
    <path
       stroke-miterlimit="10"
       d="m 381.0396,67.9534 v 17.184 h 17.184 c 2.168,0 3.924,1.757 3.924,3.923 v 17.068 c 0,2.167 -1.756,3.924 -3.924,3.924 h -17.184 v 17.184 c 0,2.167 -1.757,3.924 -3.923,3.924 h -17.068 c -2.167,0 -3.923,-1.757 -3.923,-3.924 v -17.184 h -17.185 c -2.167,0 -3.924,-1.757 -3.924,-3.924 v -17.068 c 0,-2.166 1.757,-3.923 3.924,-3.923 h 17.185 v -17.184 c 0,-2.167 1.756,-3.924 3.923,-3.924 h 17.068 c 2.166,0 3.923,1.757 3.923,3.924 z"
       id="path21"
       inkscape:connector-curvature="0"
       style="fill:none;stroke:#191818;stroke-width:1.96200001;stroke-miterlimit:10" />
    <path
       d="m 381.0396,417.3616 v 17.184 h 17.184 c 2.168,0 3.924,1.757 3.924,3.923 v 17.068 c 0,2.167 -1.756,3.924 -3.924,3.924 h -17.184 v 17.184 c 0,2.167 -1.757,3.924 -3.923,3.924 h -17.068 c -2.167,0 -3.923,-1.757 -3.923,-3.924 v -17.184 h -17.185 c -2.167,0 -3.924,-1.757 -3.924,-3.924 v -17.068 c 0,-2.166 1.757,-3.923 3.924,-3.923 h 17.185 v -17.184 c 0,-2.167 1.756,-3.924 3.923,-3.924 h 17.068 c 2.166,0 3.923,1.757 3.923,3.924"
       id="path23"
       inkscape:connector-curvature="0"
       style="fill:#1b1c1c" />
    <path
       stroke-miterlimit="10"
       d="m 381.0396,417.3616 v 17.184 h 17.184 c 2.168,0 3.924,1.757 3.924,3.923 v 17.068 c 0,2.167 -1.756,3.924 -3.924,3.924 h -17.184 v 17.184 c 0,2.167 -1.757,3.924 -3.923,3.924 h -17.068 c -2.167,0 -3.923,-1.757 -3.923,-3.924 v -17.184 h -17.185 c -2.167,0 -3.924,-1.757 -3.924,-3.924 v -17.068 c 0,-2.166 1.757,-3.923 3.924,-3.923 h 17.185 v -17.184 c 0,-2.167 1.756,-3.924 3.923,-3.924 h 17.068 c 2.166,0 3.923,1.757 3.923,3.924 z"
       id="path25"
       inkscape:connector-curvature="0"
       style="fill:none;stroke:#191818;stroke-width:1.96200001;stroke-miterlimit:10" />
    <path
       d="m 368.5824,91.3661 c -3.44,0 -6.229,2.789 -6.229,6.229 0,3.44 2.789,6.228 6.229,6.228 3.44,0 6.229,-2.788 6.229,-6.228 0,-3.44 -2.789,-6.229 -6.229,-6.229 m 0,361.8655 c -3.44,0 -6.229,-2.789 -6.229,-6.229 0,-3.44 2.789,-6.228 6.229,-6.228 3.44,0 6.229,2.788 6.229,6.228 0,3.44 -2.789,6.229 -6.229,6.229"
       id="path27"
       inkscape:connector-curvature="0"
       style="fill:#151515" />
    <path
       d="m 339.8615,147.6832 c -8.982,0 -16.264,7.282 -16.264,16.264 0,8.982 7.282,16.263 16.264,16.263 8.982,0 16.264,-7.281 16.264,-16.263 0,-8.982 -7.282,-16.264 -16.264,-16.264"
       id="path29"
       inkscape:connector-curvature="0"
       style="fill:#ea122c" />
    <path
       stroke-miterlimit="10"
       d="m 339.8615,147.6832 c -8.982,0 -16.264,7.282 -16.264,16.264 0,8.982 7.282,16.263 16.264,16.263 8.982,0 16.264,-7.281 16.264,-16.263 0,-8.982 -7.282,-16.264 -16.264,-16.264 z"
       id="path31"
       inkscape:connector-curvature="0"
       style="fill:none;stroke:#191818;stroke-width:1.96200001;stroke-miterlimit:10" />
    <path
       d="m 322.9059,189.2074 c -8.982,0 -16.264,7.282 -16.264,16.264 0,8.982 7.282,16.263 16.264,16.263 8.982,0 16.264,-7.281 16.264,-16.263 0,-8.982 -7.282,-16.264 -16.264,-16.264"
       id="path33"
       inkscape:connector-curvature="0"
       style="fill:#ea122c" />
    <path
       stroke-miterlimit="10"
       d="m 322.9059,189.2074 c -8.982,0 -16.264,7.282 -16.264,16.264 0,8.982 7.282,16.263 16.264,16.263 8.982,0 16.264,-7.281 16.264,-16.263 0,-8.982 -7.282,-16.264 -16.264,-16.264 z"
       id="path35"
       inkscape:connector-curvature="0"
       style="fill:none;stroke:#191818;stroke-width:1.96200001;stroke-miterlimit:10" />
    <path
       d="m 339.8615,396.9145 c -8.982,0 -16.264,-7.282 -16.264,-16.264 0,-8.982 7.282,-16.263 16.264,-16.263 8.982,0 16.264,7.281 16.264,16.263 0,8.982 -7.282,16.264 -16.264,16.264"
       id="path37"
       inkscape:connector-curvature="0"
       style="fill:#6d6e70" />
    <path
       stroke-miterlimit="10"
       d="m 339.8615,396.9145 c -8.982,0 -16.264,-7.282 -16.264,-16.264 0,-8.982 7.282,-16.263 16.264,-16.263 8.982,0 16.264,7.281 16.264,16.263 0,8.982 -7.282,16.264 -16.264,16.264 z"
       id="path39"
       inkscape:connector-curvature="0"
       style="fill:none;stroke:#191818;stroke-width:1.96200001;stroke-miterlimit:10" />
    <path
       d="m 322.9059,355.3904 c -8.982,0 -16.264,-7.282 -16.264,-16.264 0,-8.982 7.282,-16.263 16.264,-16.263 8.982,0 16.264,7.281 16.264,16.263 0,8.982 -7.282,16.264 -16.264,16.264"
       id="path41"
       inkscape:connector-curvature="0"
       style="fill:#808184" />
    <path
       stroke-miterlimit="10"
       d="m 322.9059,355.3904 c -8.982,0 -16.264,-7.282 -16.264,-16.264 0,-8.982 7.282,-16.263 16.264,-16.263 8.982,0 16.264,7.281 16.264,16.263 0,8.982 -7.282,16.264 -16.264,16.264 z"
       id="path43"
       inkscape:connector-curvature="0"
       style="fill:none;stroke:#191818;stroke-width:1.96200001;stroke-miterlimit:10" />
    <path
       d="m 376.1952,240.8044 c 0,-1.72 -1.394,-3.114 -3.114,-3.114 -1.184,0 -2.202,0.668 -2.728,1.641 l -0.003,-0.025 -9.871,16.186 v 14.687 h 15.716 z"
       id="path45"
       inkscape:connector-curvature="0"
       style="fill:#6d6e70" />
    <path
       d="m 373.0808,248.0711 c 1.72,0 3.114,1.394 3.114,3.114 v 51.868 c 0,1.72 -1.394,3.114 -3.114,3.114 -1.184,0 -2.202,-0.668 -2.728,-1.642 l -0.003,0.026 -9.871,-16.186 v -22.492 l 9.871,-16.185 0.003,0.025 c 0.526,-0.974 1.544,-1.642 2.728,-1.642"
       id="path47"
       inkscape:connector-curvature="0"
       style="fill:#929496" />
    <path
       d="m 361.1721,282.4825 c -0.542,0 -0.981,0.439 -0.981,0.981 v 2.537 c 0,0.541 0.439,0.98 0.981,0.98 h 14.648 c 0.541,0 0.981,-0.439 0.981,-0.98 v -2.537 c 0,-0.542 -0.44,-0.981 -0.981,-0.981 z m 0,-7.7857 c -0.542,0 -0.981,0.439 -0.981,0.981 v 2.536 c 0,0.542 0.439,0.981 0.981,0.981 h 14.648 c 0.541,0 0.981,-0.439 0.981,-0.981 v -2.536 c 0,-0.542 -0.44,-0.981 -0.981,-0.981 z m 0,-7.4398 c -0.542,0 -0.981,0.439 -0.981,0.981 v 2.536 c 0,0.542 0.439,0.981 0.981,0.981 h 14.648 c 0.541,0 0.981,-0.439 0.981,-0.981 v -2.536 c 0,-0.542 -0.44,-0.981 -0.981,-0.981 z"
       id="path49"
       inkscape:connector-curvature="0"
       style="fill:#808184" />
    <path
       d="m 370.4863,381.2409 1.407,3.229 c 0.064,0.146 0.055,0.288 -0.027,0.425 -0.082,0.136 -0.203,0.239 -0.363,0.308 -0.158,0.069 -0.31,0.087 -0.458,0.055 -0.148,-0.034 -0.255,-0.126 -0.321,-0.279 l -0.829,-1.9 c -0.223,-0.513 -0.608,-0.828 -1.153,-0.944 -0.495,-0.108 -1.013,-0.043 -1.555,0.193 -0.544,0.237 -0.945,0.571 -1.202,1.003 -0.285,0.479 -0.316,0.976 -0.091,1.492 l 1.508,3.46 1.392,-0.606 -1.413,-3.241 c -0.06,-0.137 -0.044,-0.277 0.047,-0.421 0.083,-0.127 0.206,-0.227 0.37,-0.298 0.158,-0.069 0.311,-0.09 0.459,-0.063 0.148,0.028 0.254,0.115 0.318,0.261 l 0.83,1.905 c 0.225,0.516 0.609,0.835 1.152,0.956 0.492,0.112 1.008,0.051 1.545,-0.184 0.537,-0.233 0.932,-0.567 1.184,-0.999 0.282,-0.485 0.311,-0.986 0.086,-1.502 l -1.504,-3.452 z m -7.6959,-3.6334 1.504,3.452 c 0.225,0.517 0.61,0.836 1.155,0.961 0.493,0.112 1.009,0.05 1.547,-0.184 0.235,-0.103 0.449,-0.231 0.641,-0.384 0.192,-0.153 0.353,-0.326 0.483,-0.521 0.218,0.036 0.453,0.035 0.705,-0.002 0.252,-0.037 0.491,-0.104 0.716,-0.202 0.537,-0.234 0.932,-0.57 1.186,-1.007 0.283,-0.485 0.311,-0.985 0.086,-1.501 l -1.504,-3.453 -1.382,0.603 1.407,3.228 c 0.064,0.147 0.055,0.289 -0.027,0.425 -0.082,0.137 -0.203,0.24 -0.363,0.31 -0.158,0.068 -0.31,0.086 -0.458,0.053 -0.148,-0.033 -0.255,-0.126 -0.321,-0.278 l -1.407,-3.229 -1.378,0.6 -0.039,0.017 1.487,3.413 c -0.005,0.111 -0.046,0.216 -0.126,0.311 -0.079,0.094 -0.182,0.169 -0.307,0.224 -0.158,0.069 -0.311,0.086 -0.46,0.053 -0.148,-0.032 -0.256,-0.125 -0.322,-0.277 l -1.407,-3.229 z m -2.5926,-5.8569 1.054,2.42 c 0.333,0.763 0.807,1.28 1.423,1.551 0.478,0.21 1.03,0.265 1.654,0.168 0.408,-0.064 0.83,-0.192 1.264,-0.381 0.081,-0.035 0.145,-0.064 0.192,-0.089 0.047,-0.024 0.087,-0.046 0.119,-0.068 l 3.076,-1.34 -0.586,-1.346 -3.076,1.34 c -0.553,0.242 -1.067,0.337 -1.54,0.288 -0.545,-0.057 -0.914,-0.305 -1.105,-0.742 l -1.054,-2.42 z m -2.5249,-5.8866 1.504,3.452 c 0.225,0.517 0.61,0.836 1.155,0.961 0.493,0.112 1.009,0.05 1.547,-0.184 0.235,-0.103 0.449,-0.231 0.641,-0.383 0.192,-0.154 0.353,-0.327 0.483,-0.522 0.218,0.036 0.453,0.035 0.705,-10e-4 0.252,-0.038 0.49,-0.105 0.715,-0.203 0.538,-0.234 0.933,-0.57 1.187,-1.007 0.283,-0.485 0.311,-0.985 0.086,-1.501 l -1.504,-3.453 -1.382,0.603 1.407,3.228 c 0.064,0.147 0.054,0.289 -0.027,0.425 -0.082,0.137 -0.203,0.24 -0.363,0.31 -0.158,0.068 -0.31,0.086 -0.458,0.053 -0.148,-0.033 -0.255,-0.126 -0.322,-0.278 l -1.406,-3.229 -1.378,0.6 -0.039,0.017 1.487,3.413 c -0.004,0.111 -0.046,0.216 -0.126,0.31 -0.079,0.095 -0.182,0.17 -0.307,0.225 -0.158,0.069 -0.311,0.086 -0.46,0.053 -0.148,-0.032 -0.256,-0.125 -0.322,-0.278 l -1.407,-3.228 z m -2.5926,-5.8569 1.294,2.97 c 0.31,0.713 0.89,1.128 1.739,1.249 0.76,0.108 1.58,-0.029 2.458,-0.413 0.899,-0.391 1.579,-0.911 2.043,-1.56 0.514,-0.721 0.618,-1.432 0.313,-2.132 l -1.294,-2.969 -1.382,0.602 1.196,2.746 c 0.143,0.327 0.066,0.669 -0.232,1.022 -0.267,0.319 -0.65,0.586 -1.149,0.804 -0.515,0.224 -0.992,0.329 -1.43,0.314 -0.486,-0.015 -0.799,-0.184 -0.938,-0.506 l -1.197,-2.746 z m 3.1555,-6.8767 0.598,1.373 -5.17,2.253 0.576,1.324 5.171,-2.253 0.596,1.368 1.382,-0.602 -1.771,-4.065 z m -6.2046,-17.1044 1.407,3.229 c 0.064,0.146 0.055,0.287 -0.027,0.424 -0.082,0.136 -0.203,0.239 -0.363,0.309 -0.158,0.069 -0.31,0.087 -0.458,0.054 -0.148,-0.033 -0.255,-0.125 -0.321,-0.278 l -0.829,-1.9 c -0.223,-0.513 -0.608,-0.828 -1.153,-0.945 -0.495,-0.107 -1.013,-0.042 -1.555,0.194 -0.544,0.237 -0.945,0.571 -1.202,1.003 -0.285,0.479 -0.316,0.976 -0.091,1.492 l 1.508,3.46 1.392,-0.607 -1.413,-3.241 c -0.06,-0.137 -0.044,-0.276 0.047,-0.42 0.083,-0.127 0.206,-0.227 0.37,-0.299 0.158,-0.068 0.311,-0.089 0.459,-0.062 0.148,0.028 0.254,0.115 0.318,0.261 l 0.83,1.905 c 0.225,0.516 0.609,0.835 1.152,0.956 0.492,0.112 1.008,0.05 1.545,-0.184 0.537,-0.234 0.932,-0.568 1.184,-1 0.282,-0.485 0.311,-0.985 0.086,-1.501 l -1.504,-3.452 z m -2.0153,-4.6242 0.599,1.373 -5.171,2.254 0.576,1.323 5.171,-2.253 0.596,1.368 1.382,-0.602 -1.771,-4.065 z m -7.8014,-3.7834 0.625,1.435 5.735,-0.616 c 0.056,-0.013 0.096,0.01 0.122,0.069 0.028,0.064 0.02,0.116 -0.022,0.16 l -4.369,3.75 0.633,1.454 c 0.363,-0.294 0.906,-0.741 1.629,-1.344 0.8,-0.671 1.56,-1.319 2.282,-1.942 0.786,-0.683 1.221,-1.082 1.302,-1.195 0.13,-0.202 0.193,-0.439 0.191,-0.709 -0.003,-0.27 -0.062,-0.538 -0.179,-0.807 -0.116,-0.266 -0.272,-0.492 -0.469,-0.679 -0.196,-0.188 -0.412,-0.299 -0.647,-0.336 -0.138,-0.028 -0.725,0.015 -1.76,0.129 -0.729,0.079 -1.719,0.198 -2.972,0.359 -0.7,0.092 -1.4,0.182 -2.101,0.272 m -2.6216,-5.6108 3.441,3.045 -1.628,0.71 0.577,1.323 2.169,-0.945 c 0.522,-0.228 0.893,-0.533 1.113,-0.917 0.253,-0.44 0.262,-0.929 0.027,-1.468 l -0.717,-1.646 c -0.066,-0.153 -0.059,-0.298 0.022,-0.436 0.072,-0.124 0.187,-0.219 0.344,-0.288 0.161,-0.069 0.314,-0.091 0.46,-0.062 0.162,0.032 0.277,0.124 0.344,0.276 l 1.408,3.233 1.382,-0.602 -1.506,-3.456 c -0.225,-0.517 -0.609,-0.836 -1.152,-0.957 -0.493,-0.112 -1.008,-0.05 -1.545,0.183 -0.541,0.236 -0.937,0.571 -1.188,1.003 -0.281,0.481 -0.308,0.981 -0.083,1.499 l 0.365,0.836 -2.283,-2.006 z m 3.3704,-6.7896 0.598,1.373 -5.17,2.254 0.576,1.323 5.171,-2.253 0.596,1.368 1.383,-0.602 -1.772,-4.065 z"
       id="path51"
       inkscape:connector-curvature="0"
       style="fill:#929496" />
    <path
       d="m 343.5301,217.9465 0.67,-1.396 c 0.227,-0.472 0.47,-0.763 0.731,-0.877 0.26,-0.113 0.531,-0.102 0.813,0.034 0.262,0.126 0.426,0.322 0.493,0.59 0.068,0.268 -0.014,0.642 -0.244,1.121 l -0.667,1.39 z m 3.482,1.672 0.572,-1.191 c 0.205,-0.427 0.421,-0.688 0.649,-0.785 0.227,-0.097 0.48,-0.079 0.758,0.055 0.257,0.124 0.418,0.304 0.484,0.541 0.064,0.237 -0.003,0.563 -0.202,0.979 l -0.581,1.208 z m 2.149,4.432 2.461,-5.126 c 0.41,-0.854 0.514,-1.612 0.31,-2.273 -0.203,-0.66 -0.617,-1.141 -1.241,-1.44 -0.525,-0.252 -1.052,-0.304 -1.584,-0.158 -0.354,0.098 -0.704,0.321 -1.051,0.671 0.153,-0.711 0.114,-1.305 -0.113,-1.784 -0.229,-0.48 -0.626,-0.855 -1.19,-1.125 -0.459,-0.221 -0.924,-0.313 -1.393,-0.276 -0.469,0.038 -0.899,0.191 -1.291,0.459 -0.243,0.166 -0.507,0.466 -0.789,0.9 -0.377,0.578 -0.614,0.968 -0.71,1.169 l -2.27,4.727 z m 14.1599,-48.0046 2.716,2.508 -3.65,-0.562 z m -1.643,-1.488 -1.493,3.109 -1.67,-0.271 -1.343,2.796 10.46,0.925 1.435,-2.987 -7.263,-7.585 -1.376,2.867 z"
       id="path53"
       inkscape:connector-curvature="0"
       style="fill:#a6a8ab" />
    <path
       d="m 250.0322,334.2343 -28.058,-6.441 28.058,-6.408 v 3.468 l -15.769,2.94 15.769,2.972 z m -2e-4,-17.7373 h -28.058 v 3.468 h 28.058 z m -2.853,-10.042 h -9.751 v 3.469 h 9.751 z m 2.857,6.939 h -28.063 v -3.47 h 14.499 L 221.973,305.1 v -3.199 l 13.268,3.86 c 1.169,-2.144 2.699,-2.775 2.699,-2.775 h 8.914 c 2.866,1.42 3.182,3.87 3.182,3.87 z m -0.004,-11.497 v -10.372 h -2.851 v 3.469 h -25.207 v 3.468 h 25.207 v 3.435 z m -12.0923,-29.5616 -9.663,-1.583 v 3.426 z m 12.096,0 -28.033,6.7 h -0.03 v -3.436 l 3.783,-0.727 v -4.846 l -3.783,-0.694 v -3.469 z m -0.004,-7.8621 v -3.468 h -25.207 v -5.188 h -2.851 v 8.656 z m 0,-37.0947 v -3.17 l -12.093,-3.237 12.093,-2.941 v -3.501 l -16.505,4.855 h -11.553 v 3.469 h 11.553 z m -3.1782,4.4944 h -22.025 v 3.471 h 22.025 z m 3.178,1.73 c 0,3.942 -3.178,5.208 -3.178,5.208 -0.045,-0.031 -21.099,0 -21.699,0 -3.411,-0.521 -3.181,-5.208 -3.181,-5.208 0,-5.2 3.181,-5.199 3.181,-5.199 h 21.699 c 3.336,1.345 3.178,5.199 3.178,5.199 m 2e-4,56.568 v -3.502 h -24.877 v -3.501 h 24.877 v -3.435 h -24.877 c 0,0 -3.181,1.123 -3.181,5.054 0,3.93 3.181,5.384 3.181,5.384 z m -15.4512,-45.157 h -9.751 v 3.502 h 9.751 z m 12.253,0 h -9.407 v 3.491 h 9.407 z m 3.202,6.971 h -28.063 v -6.971 c 0.765,-3.236 2.856,-3.438 2.856,-3.438 0,0 7.496,0.006 9.434,0.006 1.223,0.244 1.264,1.35 1.264,1.35 0,0 0.341,0.004 0.61,0 0.085,-1.223 1.291,-1.356 1.291,-1.356 0,0 7.488,0.006 9.426,0 2.289,0.53 3.182,3.438 3.182,3.438 z m -25.211,-34.6982 v -2.411 h -0.326 v 1.025 h -2.525 v 0.347 h 2.525 v 1.039 z m -2.851,-2.7574 h 2.851 v -0.347 l -2.543,-1.238 2.543,-1.189 v -0.364 h -2.851 v 0.364 h 2.207 l -2.207,1.026 v 0.35 l 2.207,1.051 h -2.207 z"
       id="path55"
       inkscape:connector-curvature="0"
       style="fill:#6d6e70" />
    <path
       d="m 203.941,303.8989 c 0,5.019 -4.336,10.607 -10.185,10.607 -5.849,0 -10.184,-5.089 -10.184,-10.607 v -61.548 c -0.423,-5.849 4.335,-10.608 10.184,-10.608 5.849,0 10.185,4.906 10.185,10.608 z"
       id="path57"
       inkscape:connector-curvature="0"
       style="fill:#1b1c1c" />
    <path
       d="m 201.4065,303.8989 c 0.21,3.927 -3.191,8.072 -7.651,8.072 -4.458,0 -7.624,-3.389 -7.65,-8.072 v -61.548 c -0.064,-4.746 3.192,-8.073 7.65,-8.073 4.46,0 7.994,3.995 7.651,8.073 z"
       id="path59"
       inkscape:connector-curvature="0"
       style="fill:#232323" />
    <path
       d="m 195.201,294.708 h -6.43 v -2.922 h 6.43 z m 0.2919,-9.4768 c 0,0 -0.061,1.213 -0.976,2.129 h 0.684 v 2.923 h -6.43 v -2.923 h 4.175 c 1.169,-0.334 1.128,-1.294 1.128,-1.294 0,-1.545 -1.504,-1.462 -1.504,-1.462 h -3.799 v -2.797 h 3.883 c 0,0 2.839,0.167 2.839,3.424 m 0,-23.5898 c 0,0 -0.061,1.213 -0.976,2.129 h 0.684 v 2.923 h -6.43 v -2.923 h 4.175 c 1.169,-0.334 1.128,-1.294 1.128,-1.294 0,-1.545 -1.504,-1.462 -1.504,-1.462 h -3.799 v -2.797 h 3.883 c 0,0 2.839,0.167 2.839,3.424 m 0.8771,30.1446 h 1.941 v 2.922 h -1.941 z m -0.5013,-15.9909 v 1.461 h 1.503 v 2.923 h -1.503 v 1.211 h -0.835 v -1.211 h -6.263 v -2.923 h 6.263 v -1.461 z m -0.3961,-32.0028 c 0,2.26 -1.59,4.092 -3.55,4.092 -1.959,0 -3.548,-1.832 -3.548,-4.092 0,-2.259 1.589,-4.092 3.548,-4.092 1.96,0 3.55,1.833 3.55,4.092"
       id="path61"
       inkscape:connector-curvature="0"
       style="fill:#1b1c1c" />
    <path
       d="m 194.7197,243.7923 c 0,0.62 -0.569,1.127 -1.267,1.127 h -3.06 c -0.697,0 -1.267,-0.507 -1.267,-1.127 0,-0.62 0.57,-1.127 1.267,-1.127 h 3.06 c 0.698,0 1.267,0.507 1.267,1.127"
       id="path63"
       inkscape:connector-curvature="0"
       style="fill:#232323" />
    <path
       d="m 198.2909,251.8301 h -3.283 c 0.229,0.42 0.359,0.874 0.359,1.315 0,2.193 -1.542,3.97 -3.444,3.97 -1.902,0 -3.444,-1.777 -3.444,-3.97 0,-0.414 0.165,-0.876 0.449,-1.315 h -0.157 v -2.923 h 9.52 z"
       id="path65"
       inkscape:connector-curvature="0"
       style="fill:#1b1c1c" />
    <path
       d="m 194.4494,252.9737 c 0,0.601 -0.519,1.093 -1.154,1.093 h -2.786 c -0.635,0 -1.155,-0.492 -1.155,-1.093 0,-0.602 0.52,-1.094 1.155,-1.094 h 2.786 c 0.635,0 1.154,0.492 1.154,1.094"
       id="path67"
       inkscape:connector-curvature="0"
       style="fill:#232323" />
    <path
       d="m 190.6498,270.4693 c -1.044,0 -1.524,0.531 -1.524,1.182 0,0.65 0.57,1.182 1.267,1.182 h 1.426 v -5.466 c 0.035,-10e-4 3.654,0.245 3.654,4.284 0,2.37 -1.59,4.29 -3.55,4.29 -1.96,0 -3.548,-1.92 -3.548,-4.29 0,-1.825 0.945,-3.381 2.275,-4.001 z"
       id="path69"
       inkscape:connector-curvature="0"
       style="fill:#1b1c1c" />
    <path
       d="m 192.8206,270.4693 h 0.633 c 0.697,0 1.266,0.531 1.266,1.182 0,0.65 -0.569,1.182 -1.266,1.182 h -0.633 z"
       id="path71"
       inkscape:connector-curvature="0"
       style="fill:#232323" />
    <path
       d="m 198.3112,306.3157 h -9.498 v -2.63 h 6.638 l -6.68,-4.218 v -3.006 h 9.54 v 2.923 h -6.66 l 6.66,4.176 z"
       id="path73"
       inkscape:connector-curvature="0"
       style="fill:#1b1c1c" />
  </g>
</svg>
