<?xml version="1.0" encoding="UTF-8" standalone="no"?>
<svg
   xmlns:dc="http://purl.org/dc/elements/1.1/"
   xmlns:cc="http://creativecommons.org/ns#"
   xmlns:rdf="http://www.w3.org/1999/02/22-rdf-syntax-ns#"
   xmlns:svg="http://www.w3.org/2000/svg"
   xmlns="http://www.w3.org/2000/svg"
   xmlns:sodipodi="http://sodipodi.sourceforge.net/DTD/sodipodi-0.dtd"
   xmlns:inkscape="http://www.inkscape.org/namespaces/inkscape"
   width="203.78474"
   height="200"
   version="1"
   id="svg18"
   sodipodi:docname="game.svg"
   inkscape:version="0.92.4 5da689c313, 2019-01-14">
  <metadata
     id="metadata24">
    <rdf:RDF>
      <cc:Work
         rdf:about="">
        <dc:format>image/svg+xml</dc:format>
        <dc:type
           rdf:resource="http://purl.org/dc/dcmitype/StillImage" />
      </cc:Work>
    </rdf:RDF>
  </metadata>
  <defs
     id="defs22" />
  <sodipodi:namedview
     pagecolor="#ffffff"
     bordercolor="#666666"
     borderopacity="1"
     objecttolerance="10"
     gridtolerance="10"
     guidetolerance="10"
     inkscape:pageopacity="0"
     inkscape:pageshadow="2"
     inkscape:window-width="640"
     inkscape:window-height="480"
     id="namedview20"
     showgrid="false"
     inkscape:zoom="1.18"
     inkscape:cx="101.89237"
     inkscape:cy="100"
     inkscape:window-x="0"
     inkscape:window-y="0"
     inkscape:window-maximized="0"
     inkscape:current-layer="svg18" />
  <path
     d="M 190.68413,0 H 13.100437 C 5.8652111,0 0,5.8652 0,13.1004 V 168.8501 H 203.78457 V 13.1004 C 203.78457,5.8652 197.91921,0 190.68413,0 Z"
     id="path2"
     inkscape:connector-curvature="0"
     style="fill:#808285" />
  <path
     d="m 0,168.8501 v 15.1383 c 0,7.235 5.8652111,13.1004 13.100437,13.1004 h 0.61179 C 27.58952,198.7933 62.008588,200 102.27191,200 c 40.27962,0 74.71004,-1.2077 88.57627,-2.9134 1.22198,-0.015 2.40349,-0.1971 3.523,-0.5246 1.9639,-0.3672 3.00888,-0.7522 3.00888,-1.1492 0,-0.046 -0.0156,-0.092 -0.0435,-0.1374 3.85909,-2.2793 6.44818,-6.4805 6.44818,-11.287 V 168.8501 H 2e-5 Z"
     id="path4"
     inkscape:connector-curvature="0"
     style="fill:#414042" />
  <path
     d="m 6.6017467,183.9884 c 0,3.5832 2.9152839,6.4986 6.4986903,6.4986 h 1.01572 l 0.400874,0.049 c 13.936826,1.712 49.202765,2.8621 87.754729,2.8621 38.57205,0 73.84425,-1.1508 87.77016,-2.8639 l 0.36128,-0.045 h 0.36419 c 0.59738,-0.01 1.18589,-0.095 1.74935,-0.2595 l 0.31645,-0.093 0.32402,-0.061 h 0.009 l 0.81251,-0.4799 c 2.00612,-1.185 3.20379,-3.2793 3.20379,-5.6027 V 168.8548 H 6.6015767 v 15.1383 z"
     id="path6"
     inkscape:connector-curvature="0"
     style="fill:#4d4d4f" />
  <path
     d="M 190.68399,6.6017 H 13.100437 c -3.5834064,0 -6.4986903,2.9153 -6.4986903,6.4987 V 168.8501 H 197.18282 V 13.1004 c 0,-3.5834 -2.91557,-6.4987 -6.49883,-6.4987 z"
     id="path8"
     inkscape:connector-curvature="0"
     style="fill:#8a8c8e" />
  <path
     d="m 25.327511,168.6438 c 0,0.1138 -0.09243,0.2063 -0.206259,0.2063 H 20.00262 c -0.113974,0 -0.206259,-0.093 -0.206259,-0.2063 V 5.4464 c 0,-0.1139 0.09243,-0.2062 0.206259,-0.2062 h 5.118632 c 0.113974,0 0.206259,0.092 0.206259,0.2062 z m 158.660849,0 c 0,0.1138 -0.0924,0.2063 -0.20641,0.2063 h -5.11849 c -0.11397,0 -0.2064,-0.093 -0.2064,-0.2063 V 5.4464 c 0,-0.1139 0.0924,-0.2062 0.2064,-0.2062 h 5.11849 c 0.11397,0 0.20641,0.092 0.20641,0.2062 z m -9.46143,-35.0445 c 0,1.1393 -0.92373,2.063 -2.06303,2.063 H 31.32067 c -1.139447,0 -2.063028,-0.9237 -2.063028,-2.063 V 18.6569 c 0,-1.1394 0.923726,-2.063 2.063028,-2.063 H 172.4639 c 1.1393,0 2.06303,0.9237 2.06303,2.063 z m -67.43086,17.5783 H 96.688501 c -1.045124,0 -1.892286,0.8471 -1.892286,1.8923 0,0.5227 0.211791,0.9957 0.55444,1.3383 l 5.203495,5.2034 c 0.3425,0.3425 0.81557,0.5543 1.33799,0.5543 0.52314,0 0.99665,-0.2123 1.33901,-0.5553 l 5.20015,-5.2001 c 0.34395,-0.3427 0.55691,-0.8166 0.55691,-1.3406 1.5e-4,-1.0452 -0.84702,-1.8923 -1.89214,-1.8923 z"
     id="path10"
     inkscape:connector-curvature="0"
     style="fill:#797a7d" />
  <path
     d="m 172.7802,125.8341 c 0,3.418 -2.77103,6.1892 -6.18922,6.1892 H 37.193595 c -3.418195,0 -6.189228,-2.771 -6.189228,-6.1892 V 25.5488 c 0,-3.4182 2.771033,-6.1893 6.189228,-6.1893 H 166.59112 c 3.41805,0 6.18923,2.7711 6.18923,6.1893 v 100.2853 z"
     id="path12"
     inkscape:connector-curvature="0"
     style="fill:#2e2e2f" />
  <path
     stroke-miterlimit="10"
     d="M 127.07424,33.0422 H 74.96361 L 54.585153,19.3595 h 94.032027 z"
     id="path14"
     inkscape:connector-curvature="0"
     style="fill:#0d0d0d;stroke:#ed1c24;stroke-width:0.41260552;stroke-miterlimit:10" />
  <path
     d="m 79.864047,21.3985 2.210625,9.3556 2.199273,-9.3556 h -1.190248 l -1.009025,5.2581 -1.020378,-5.2581 h -1.190247 m 4.897379,0 h 1.190394 v 9.3556 h -1.190394 v -9.3556 m 2.255459,0 v 9.357 h 1.19083 V 25.921 l 1.655895,4.8345 h 1.097671 l -1.3246,-4.424 c 0.735954,-0.3896 0.952402,-0.8998 0.952402,-0.8998 v -2.9724 c -0.487482,-0.9554 -1.328384,-1.0608 -1.328384,-1.0608 z m 1.190684,0.9525 h 1.190684 v 3.2514 h -1.190684 z m 2.755168,-0.9514 h 3.559679 v 0.9506 h -1.190393 v 8.405 h -1.190247 v -8.405 h -1.179039 v -0.9506 m 10.146143,0 -2.29971,9.3471 v 0.01 h 1.179622 l 0.249198,-1.2612 h 1.66361 l 0.23814,1.2612 h 1.19083 l -2.22169,-9.357 z m 0,4.0332 0.54323,3.2219 h -1.17613 z m 2.69854,-4.0321 h 1.19025 v 8.405 h 1.78006 v 0.9506 h -2.97031 v -9.3556 m 12.7313,0 h 1.08806 l 1.11121,4.0325 1.00903,-4.0325 h 1.20174 l -1.66652,5.5034 v 3.8522 h -1.19039 v -3.8522 l -1.55313,-5.5034 m -2.1361,0 c -1.35313,0 -1.78806,1.0597 -1.78806,1.0597 0.0114,0.015 0,7.0352 0,7.2354 0.17947,1.1373 1.78806,1.0605 1.78806,1.0605 1.78472,0 1.78413,-1.0605 1.78413,-1.0605 v -7.2354 c -0.46157,-1.1123 -1.78413,-1.0597 -1.78413,-1.0597 z m -0.59723,1.0597 h 1.19083 v 7.3437 h -1.19083 z M 94.987336,21.4007 h 1.201601 v 8.2951 h 1.201747 v -8.2951 h 1.179039 v 8.2951 c 0,0 -0.385444,1.0607 -1.734497,1.0607 -1.349054,0 -1.84789,-1.0607 -1.84789,-1.0607 z m 13.106114,0 v 9.357 h 2.39272 c 1.11048,-0.2551 1.17962,-0.9525 1.17962,-0.9525 0,0 -0.002,-2.4991 -0.002,-3.1453 -0.0834,-0.4077 -0.46318,-0.4214 -0.46318,-0.4214 0,0 -0.002,-0.1138 0,-0.2036 0.41994,-0.028 0.46507,-0.4301 0.46507,-0.4301 0,0 -0.002,-2.4968 0,-3.1431 -0.18166,-0.7633 -1.17962,-1.0609 -1.17962,-1.0609 h -2.39258 z m 1.19447,1.0674 h 1.19825 v 3.1365 h -1.19825 z m -0.004,4.0857 h 1.20189 v 3.2514 h -1.20189 z m 10.7179,3.253 h 0.82751 v 0.1087 h -0.35138 v 0.8419 h -0.11907 v -0.8419 h -0.35706 v -0.1087 m 0.94658,0.9506 v -0.9506 h 0.11907 l 0.42518,0.848 0.40801,-0.848 h 0.12474 v 0.9506 h -0.12474 v -0.7356 l -0.35211,0.7356 h -0.12009 l -0.36099,-0.7356 v 0.7356 h -0.11907 m 51.83144,70.1188 v -1.053 L 162.3222,91.5366 h 10.45764 v -0.8251 h -11.49898 l -7.40859,-5.8706 h 11.23377 l 7.67395,4.773 v -0.9717 l -6.11135,-3.8013 h 6.1112 v -0.8252 h -7.43813 l -7.09811,-4.415 h 7.5984 l 6.9377,3.4803 v -0.9233 l -5.09724,-2.557 h 5.09738 v -0.8252 h -6.74206 L 159.5583,75.525 h 8.35983 l 4.86171,2.138 v -0.9013 l -2.81193,-1.2367 h 2.81193 V 74.6998 H 31.004007 v 0.8252 h 3.568122 l -3.568122,1.5691 v 0.9015 l 5.618049,-2.4706 h 8.359971 l -6.479476,3.2505 h -7.498544 v 0.8252 h 5.853566 l -5.853566,2.9365 v 0.9232 l 7.693886,-3.8597 h 5.560699 l -7.098108,4.415 h -6.156477 v 0.8252 h 4.82984 l -4.82984,3.0042 v 0.9719 l 6.392285,-3.976 H 50.667908 L 43.25932,90.7116 H 31.004007 v 0.8252 h 11.213974 l -11.213974,8.8859 v 1.0527 l 12.542649,-9.9388 h 14.303493 l -19.577292,23.0468 h -7.26885 v 0.8253 h 6.567685 l -6.567685,7.7316 v 1.2745 l 7.650364,-9.0061 h 43.529403 l -3.446288,16.6179 h 0.842794 l 3.446434,-16.6179 h 38.486756 l 3.44643,16.6179 h 0.8428 l -3.44644,-16.6179 h 43.52955 l 6.89403,8.1159 V 122.25 l -5.8115,-6.8413 h 5.8115 v -0.8253 h -6.51251 l -19.5773,-23.0468 h 14.3035 z m -9.00058,-16.8604 h -10.94847 l -5.57162,-4.415 h 9.42198 z m -48.77642,0 H 89.537195 l 0.91572,-4.415 h 23.634355 z m -0.0729,-4.4151 h 20.53828 l 3.75051,4.415 H 115.84551 Z M 88.69442,84.0158 H 65.321494 l 3.750364,-4.415 H 89.61014 Z m -24.455604,0 H 53.037942 l 5.571762,-4.415 h 9.379476 z m 0.381659,0.8251 h 23.902766 l -1.217467,5.8706 H 59.633721 Z m 24.745561,0 H 115.1739 l 1.21746,5.8706 H 88.148568 Z m 26.650654,0 h 23.90291 l 4.9869,5.8706 h -27.67234 z m 20.53421,-5.2402 h 9.37947 l 5.57162,4.415 h -11.20073 z m 21.16681,-4.0757 6.47962,3.2505 h -7.28035 l -5.22605,-3.2505 z m -7.58923,0 5.22591,3.2505 h -9.13668 l -4.10218,-3.2505 z m -9.34163,0 4.10218,3.2505 h -9.03915 l -2.76114,-3.2505 z m -8.78079,0 2.76129,3.2505 H 114.7589 l -0.67423,-3.2505 z m -40.707856,0 h 21.943816 l 0.67409,3.2505 H 90.623969 Z m -0.842794,0 -0.674091,3.2505 H 69.772877 l 2.761135,-3.2505 z m -19.00393,0 -2.761281,3.2505 h -9.039156 l 4.102183,-3.2505 z m -9.026929,0 -4.102184,3.2505 H 47.147695 l 5.22591,-3.2505 z m -22.081805,3.2506 6.479476,-3.2505 h 3.988937 l -5.225909,3.2505 z m -1.619796,5.2402 7.098107,-4.415 h 11.459826 l -5.571616,4.415 z m 5.865065,6.6958 7.408588,-5.8706 h 11.541339 l -4.986899,5.8706 z m 37.766958,23.8718 H 39.355555 L 58.932702,91.5366 H 87.13474 Z m 0.842795,0 4.779621,-23.0468 h 28.585151 l 4.77977,23.0468 z m 81.986902,0 H 122.1851 l -4.77976,-23.0468 h 28.20203 z m -19.19564,-23.8718 -4.9869,-5.8706 h 11.5412 l 7.40859,5.8706 z"
     id="path16"
     inkscape:connector-curvature="0"
     style="fill:#ed1c24" />
</svg>
