<?xml version="1.0" encoding="UTF-8" standalone="no"?>
<svg
   xmlns:dc="http://purl.org/dc/elements/1.1/"
   xmlns:cc="http://creativecommons.org/ns#"
   xmlns:rdf="http://www.w3.org/1999/02/22-rdf-syntax-ns#"
   xmlns:svg="http://www.w3.org/2000/svg"
   xmlns="http://www.w3.org/2000/svg"
   xmlns:sodipodi="http://sodipodi.sourceforge.net/DTD/sodipodi-0.dtd"
   xmlns:inkscape="http://www.inkscape.org/namespaces/inkscape"
   viewBox="57.1 352 403 100.79096"
   version="1.1"
   id="svg4"
   sodipodi:docname="logo.svg"
   width="403"
   height="100.79096"
   inkscape:version="0.92.4 5da689c313, 2019-01-14">
  <metadata
     id="metadata10">
    <rdf:RDF>
      <cc:Work
         rdf:about="">
        <dc:format>image/svg+xml</dc:format>
        <dc:type
           rdf:resource="http://purl.org/dc/dcmitype/StillImage" />
      </cc:Work>
    </rdf:RDF>
  </metadata>
  <defs
     id="defs8" />
  <sodipodi:namedview
     pagecolor="#ffffff"
     bordercolor="#666666"
     borderopacity="1"
     objecttolerance="10"
     gridtolerance="10"
     guidetolerance="10"
     inkscape:pageopacity="0"
     inkscape:pageshadow="2"
     inkscape:window-width="471"
     inkscape:window-height="442"
     id="namedview6"
     showgrid="false"
     inkscape:zoom="0.6775"
     inkscape:cx="200"
     inkscape:cy="50.395479"
     inkscape:window-x="0"
     inkscape:window-y="0"
     inkscape:window-maximized="0"
     inkscape:current-layer="svg4">
    <inkscape:grid
       type="xygrid"
       id="grid12"
       originx="1.65e-06"
       originy="-2.3692382e-06" />
  </sodipodi:namedview>
  <path
     d="M 57.1,352.11299 78.116949,452.67797 99.020904,352.11299 H 87.721469 l -9.60452,56.49718 -9.717514,-56.49718 z m 46.44068,0 h 11.29943 v 100.56498 h -11.29943 z m 21.46892,0 v 100.56498 h 11.29944 v -51.97741 l 15.70621,51.97741 h 10.39548 l -12.54237,-47.57063 c 7.00565,-4.18079 9.03955,-9.71751 9.03955,-9.71751 v -31.9774 C 154.27514,353.12994 146.25254,352 146.25254,352 Z m 11.29944,10.1695 h 11.29943 v 34.91525 h -11.29943 z m 26.10169,-10.1695 h 33.78531 v 10.1695 h -11.29943 v 90.39548 h -11.29944 v -90.39548 h -11.18644 z m 96.27119,0 -21.80791,100.45198 v 0.113 h 11.18644 l 2.37288,-13.55933 h 15.81921 l 2.25989,13.55933 h 11.29943 z m 0,43.27684 5.19774,34.68927 h -11.18644 z m 25.64972,-43.27684 h 11.29943 v 90.39548 h 16.83616 v 10.1695 h -28.13559 z m 120.79096,0 h 10.28248 l 10.50848,43.38983 9.60452,-43.38983 h 11.41243 l -15.81921,59.20904 v 41.46893 h -11.29944 v -41.46893 z m -20.22599,0 c -12.88136,0 -16.94915,11.41243 -16.94915,11.41243 0.11299,0.113 0,75.59322 0,77.74012 1.69491,12.20339 16.94915,11.41243 16.94915,11.41243 16.94915,0 16.94915,-11.41243 16.94915,-11.41243 v -77.74012 c -4.40678,-11.9774 -16.94915,-11.41243 -16.94915,-11.41243 z m -5.76271,11.41243 h 11.29943 v 78.98305 H 379.1339 Z M 200.60282,352.11299 h 11.41243 v 89.15255 h 11.41243 v -89.15255 h 11.18644 v 89.15255 c 0,0 -3.61582,11.41243 -16.49717,11.41243 -12.88136,0 -17.51413,-11.41243 -17.51413,-11.41243 z m 124.40678,0 v 100.56498 h 22.71187 c 10.50847,-2.71187 11.18644,-10.28249 11.18644,-10.28249 v -33.78531 c -0.79096,-4.40678 -4.40678,-4.51978 -4.40678,-4.51978 v -2.14689 c 3.9548,-0.33898 4.40678,-4.63277 4.40678,-4.63277 v -33.78531 c -1.69492,-8.24858 -11.18644,-11.41243 -11.18644,-11.41243 z m 11.29944,11.41243 h 11.41243 v 33.67232 h -11.41243 z m 0,43.95481 h 11.41243 v 34.91525 h -11.41243 z m 101.69491,34.91525 h 7.90961 v 1.12994 h -3.38983 v 9.03955 h -1.12995 v -9.03955 h -3.38983 z m 8.92656,10.28249 v -10.1695 h 1.12994 l 4.0678,9.15255 3.8418,-9.15255 H 457.1 v 10.1695 h -1.12995 v -7.90961 l -3.38983,7.90961 h -1.12994 l -3.38983,-7.90961 v 7.90961 z"
     id="path2"
     inkscape:connector-curvature="0"
     style="fill:#fe0016" />
</svg>
