<?xml version="1.0" encoding="UTF-8" standalone="no"?>
<svg
   xmlns:dc="http://purl.org/dc/elements/1.1/"
   xmlns:cc="http://creativecommons.org/ns#"
   xmlns:rdf="http://www.w3.org/1999/02/22-rdf-syntax-ns#"
   xmlns:svg="http://www.w3.org/2000/svg"
   xmlns="http://www.w3.org/2000/svg"
   xmlns:sodipodi="http://sodipodi.sourceforge.net/DTD/sodipodi-0.dtd"
   xmlns:inkscape="http://www.inkscape.org/namespaces/inkscape"
   viewBox="0 0 515.467 317.18301"
   version="1.1"
   id="svg296"
   sodipodi:docname="consolegame.svg"
   width="515.46698"
   height="317.18301"
   inkscape:version="0.92.4 5da689c313, 2019-01-14">
  <metadata
     id="metadata302">
    <rdf:RDF>
      <cc:Work
         rdf:about="">
        <dc:format>image/svg+xml</dc:format>
        <dc:type
           rdf:resource="http://purl.org/dc/dcmitype/StillImage" />
      </cc:Work>
    </rdf:RDF>
  </metadata>
  <defs
     id="defs300" />
  <sodipodi:namedview
     pagecolor="#ffffff"
     bordercolor="#666666"
     borderopacity="1"
     objecttolerance="10"
     gridtolerance="10"
     guidetolerance="10"
     inkscape:pageopacity="0"
     inkscape:pageshadow="2"
     inkscape:window-width="640"
     inkscape:window-height="480"
     id="namedview298"
     showgrid="false"
     inkscape:zoom="0.52573688"
     inkscape:cx="257.73349"
     inkscape:cy="158.592"
     inkscape:window-x="0"
     inkscape:window-y="0"
     inkscape:window-maximized="0"
     inkscape:current-layer="svg296" />
  <path
     d="m 441.233,217.033 h 63.037 c 6.158,0 11.197,5.039 11.197,11.197 v 81.014 c 0,4.366 -3.572,7.939 -7.939,7.939 h -132.59 c -4.366,0 -7.939,-3.572 -7.939,-7.939 V 228.23 c 0,-6.158 5.039,-11.197 11.197,-11.197 h 63.037"
     id="path2"
     inkscape:connector-curvature="0"
     style="fill:#2c2c2d" />
  <g
     id="g6"
     style="fill:#121115">
    <path
       d="m 366.999,227.807 v 83.218 c 0,0.397 0.35,0.71 0.744,0.663 a 40.017,40.017 0 0 0 11.039,-2.979 7.186,7.186 0 0 0 3.058,-2.482 7.126,7.126 0 0 0 1.203,-5.128 l -8.875,-65.766 c -0.284,-1.9 -1.897,-4.034 -3.457,-5.157 l -3.712,-2.369 m 148.468,0 v 83.218 c 0,0.397 -0.35,0.71 -0.744,0.663 a 40.017,40.017 0 0 1 -11.039,-2.979 7.186,7.186 0 0 1 -3.058,-2.482 7.126,7.126 0 0 1 -1.203,-5.128 l 8.875,-65.766 c 0.284,-1.9 1.897,-4.034 3.457,-5.157 l 3.712,-2.369"
       id="path4"
       inkscape:connector-curvature="0" />
  </g>
  <path
     d="m 441.233,302.108 c 11.568,0.122 36.41,-3.287 36.41,-3.287 17.476,-2.352 18.623,-8.84 19.473,-23.574 l 2.94,-50.054 c 0,-4.488 -3.672,-8.16 -8.16,-8.16 H 390.57 c -4.488,0 -8.16,3.672 -8.16,8.16 l 2.94,50.054 c 0.85,14.734 1.998,21.223 19.473,23.574 0,0 24.842,3.408 36.41,3.287 z"
     id="path8"
     inkscape:connector-curvature="0"
     style="fill:#121115" />
  <path
     d="m 441.205,229.118 h 46.129 a 3.58,3.58 0 0 1 3.57,3.57 v 48.764 c 0,4.597 -3.761,8.359 -8.359,8.359 h -41.34 0.057 -41.34 c -4.597,0 -8.359,-3.761 -8.359,-8.359 v -48.764 a 3.58,3.58 0 0 1 3.57,-3.57 h 46.129"
     id="path10"
     inkscape:connector-curvature="0"
     style="fill:#232122" />
  <path
     d="m 404.823,229.62 v 60.523 -0.17 h -4.902 c -4.597,0 -8.359,-3.761 -8.359,-8.359 V 232.85 a 3.58,3.58 0 0 1 3.57,-3.57 h 9.69"
     id="path12"
     inkscape:connector-curvature="0"
     style="fill:#fbe627" />
  <g
     id="g16"
     style="fill:#121115">
    <path
       d="m 405.058,317.182 h -0.084 a 1.024,1.024 0 0 1 -1.021,-1.021 v -7.139 c 0,-0.561 0.459,-1.021 1.021,-1.021 h 0.084 c 0.561,0 1.021,0.459 1.021,1.021 v 7.139 a 1.025,1.025 0 0 1 -1.021,1.021 z m 14.45,0 h -0.084 a 1.024,1.024 0 0 1 -1.021,-1.021 v -7.139 c 0,-0.561 0.459,-1.021 1.021,-1.021 h 0.084 c 0.561,0 1.021,0.459 1.021,1.021 v 7.139 c 0,0.561 -0.459,1.021 -1.021,1.021 z m 14.632,0 h -0.084 a 1.024,1.024 0 0 1 -1.021,-1.021 v -7.139 c 0,-0.561 0.459,-1.021 1.021,-1.021 h 0.084 c 0.561,0 1.021,0.459 1.021,1.021 v 7.139 c 0,0.561 -0.459,1.021 -1.021,1.021 z m 14.451,0 h -0.084 a 1.024,1.024 0 0 1 -1.021,-1.021 v -7.139 c 0,-0.561 0.459,-1.021 1.021,-1.021 h 0.084 c 0.561,0 1.021,0.459 1.021,1.021 v 7.139 a 1.025,1.025 0 0 1 -1.021,1.021 z m 14.45,0 h -0.084 a 1.024,1.024 0 0 1 -1.021,-1.021 v -7.139 c 0,-0.561 0.459,-1.021 1.021,-1.021 h 0.084 c 0.561,0 1.021,0.459 1.021,1.021 v 7.139 c 0,0.561 -0.459,1.021 -1.021,1.021 z m 14.451,0 h -0.084 a 1.024,1.024 0 0 1 -1.021,-1.021 v -7.139 c 0,-0.561 0.459,-1.021 1.021,-1.021 h 0.084 c 0.561,0 1.021,0.459 1.021,1.021 v 7.139 c 0,0.561 -0.46,1.021 -1.021,1.021 z"
       id="path14"
       inkscape:connector-curvature="0" />
  </g>
  <path
     d="m 398.947,278.037 4.431,-4.607 v -33.502 h -2.832 l -1.599,1.869 z m -5.939,-6.153 h 1.2 c 0.227,0 0.391,0.151 0.49,0.454 0.1,0.303 0.149,0.697 0.149,1.182 0,0.512 -0.048,0.923 -0.143,1.233 -0.096,0.31 -0.251,0.466 -0.467,0.466 h -1.229 v -1.267 h 1.164 c 0.087,0 0.15,-0.041 0.19,-0.123 0.04,-0.082 0.06,-0.213 0.06,-0.393 0,-0.15 -0.014,-0.273 -0.043,-0.369 -0.029,-0.096 -0.061,-0.153 -0.098,-0.172 a 0.523,0.523 0 0 0 -0.212,-0.028 h -1.061 z m 1.153,-1.661 h 0.658 v 1.126 h -1.812 v -1.544 c 0,-0.385 0.022,-0.678 0.066,-0.878 0.044,-0.2 0.112,-0.359 0.203,-0.477 0.091,-0.117 0.193,-0.176 0.306,-0.176 0.173,0 0.312,0.12 0.418,0.36 0.106,0.24 0.159,0.561 0.159,0.961 v 0.628 z m -0.389,0.016 v -0.371 c 0,-0.327 -0.06,-0.49 -0.181,-0.49 -0.113,0 -0.17,0.151 -0.17,0.453 v 0.408 z m 0.615,-4.972 h 0.433 v 2.72 h -1.812 v -2.72 h 0.418 v 1.632 h 0.263 v -1.319 h 0.402 v 1.319 h 0.296 z m 0.432,-3.356 v 1.206 l -0.693,0.518 v 0.343 h 0.693 v 1.088 h -1.812 v -1.852 c 0,-0.409 0.049,-0.726 0.147,-0.952 0.098,-0.226 0.227,-0.339 0.387,-0.339 0.104,0 0.197,0.042 0.277,0.125 0.08,0.083 0.151,0.251 0.212,0.504 z m -1.08,2.067 v -0.465 c 0,-0.137 -0.015,-0.247 -0.044,-0.33 -0.029,-0.083 -0.072,-0.125 -0.129,-0.125 -0.116,0 -0.174,0.139 -0.174,0.418 v 0.501 h 0.347 z m 1.111,13.224 c 0,0.284 -0.017,0.533 -0.05,0.745 -0.033,0.212 -0.08,0.39 -0.139,0.533 a 0.904,0.904 0 0 1 -0.213,0.326 0.45,0.45 0 0 1 -0.272,0.122 v -0.72 a 0.278,0.278 0 0 0 0.165,-0.103 0.711,0.711 0 0 0 0.116,-0.216 c 0.03,-0.087 0.053,-0.187 0.068,-0.3 a 2.72,2.72 0 0 0 0.022,-0.36 c 0,-0.12 -0.005,-0.23 -0.017,-0.33 a 1.57,1.57 0 0 0 -0.046,-0.255 0.483,0.483 0 0 0 -0.074,-0.164 c -0.029,-0.038 -0.062,-0.058 -0.098,-0.058 -0.037,0 -0.068,0.019 -0.094,0.056 a 0.566,0.566 0 0 0 -0.069,0.182 c -0.02,0.084 -0.039,0.194 -0.056,0.33 a 15.41,15.41 0 0 0 -0.052,0.503 7.547,7.547 0 0 1 -0.079,0.586 c -0.03,0.164 -0.066,0.299 -0.107,0.404 a 0.635,0.635 0 0 1 -0.142,0.234 0.26,0.26 0 0 1 -0.185,0.076 c -0.075,0 -0.145,-0.035 -0.208,-0.105 a 0.876,0.876 0 0 1 -0.163,-0.297 2.391,2.391 0 0 1 -0.108,-0.459 4.13,4.13 0 0 1 -0.039,-0.594 c 0,-0.227 0.014,-0.434 0.042,-0.622 0.028,-0.188 0.068,-0.349 0.12,-0.485 0.052,-0.136 0.116,-0.243 0.192,-0.321 a 0.382,0.382 0 0 1 0.257,-0.124 v 0.712 c -0.203,0.052 -0.305,0.325 -0.305,0.819 0,0.241 0.018,0.425 0.055,0.552 0.036,0.127 0.087,0.191 0.15,0.191 0.026,0 0.048,-0.014 0.068,-0.042 0.02,-0.028 0.037,-0.072 0.053,-0.134 0.016,-0.061 0.031,-0.139 0.044,-0.235 a 9.11,9.11 0 0 0 0.039,-0.348 l 0.036,-0.365 a 6.75,6.75 0 0 1 0.048,-0.366 c 0.019,-0.12 0.042,-0.232 0.069,-0.338 0.027,-0.106 0.06,-0.198 0.098,-0.279 a 0.599,0.599 0 0 1 0.136,-0.19 0.267,0.267 0 0 1 0.183,-0.069 c 0.082,0 0.158,0.038 0.226,0.112 a 0.946,0.946 0 0 1 0.176,0.313 c 0.049,0.133 0.087,0.293 0.115,0.478 0.024,0.186 0.038,0.387 0.038,0.605 z m 2.95,-34.237 v 0.326 h 0.812 v 0.197 H 397.8 v 0.325 h -0.169 v -0.848 z m 0.812,-1.159 v 0.19 h -0.628 l 0.628,0.226 v 0.165 l -0.628,0.225 h 0.628 v 0.19 h -0.981 v -0.255 l 0.699,-0.243 -0.699,-0.244 v -0.254 z"
     id="path18"
     inkscape:connector-curvature="0" />
  <path
     d="m 402.628,268.736 h -1.379 l -0.07,-0.189 c -0.768,-2.069 -2.622,-5.415 -3.207,-5.567 -0.091,-0.023 -0.184,10e-4 -0.276,0.071 -0.18,0.139 -0.305,0.418 -0.305,0.678 0,0.352 0.221,0.657 0.524,0.726 l 0.215,0.016 0.002,0.265 v 4.083 l -0.362,-0.095 c -1.598,-0.419 -2.631,-2.427 -2.631,-5.116 0,-3.018 1.08,-5.126 2.626,-5.126 1.107,0 2.001,1.113 2.722,3.397 v -3.216 h 2.142 v 10.073 z"
     id="path20"
     inkscape:connector-curvature="0" />
  <path
     d="m 398.044,262.744 c -0.504,-0.13 -0.943,0.461 -0.943,1.03 0,0.496 0.322,0.911 0.749,1.008 h -0.009 v 3.709 c -1.379,-0.361 -2.415,-2.165 -2.415,-4.837 0,-2.671 0.93,-4.837 2.337,-4.837 1.245,0 2.08,1.773 2.671,3.963 h 0.341 v -3.783 h 1.563 v 9.492 h -0.889 c -0.624,-1.682 -2.566,-5.528 -3.405,-5.745 z"
     id="path22"
     inkscape:connector-curvature="0"
     style="fill:#ffffff" />
  <path
     d="m 402.954,274.209 c 0,1.312 -0.161,3.672 -1.238,4.745 -0.362,0.36 -0.79,0.542 -1.275,0.54 h -0.286 v -4.221 l 0.235,-0.064 c 0.228,-0.042 0.475,-0.417 0.475,-0.949 0,-0.617 -0.274,-1.078 -0.519,-1.078 -0.245,0 -0.519,0.461 -0.519,1.078 v 0.042 c 0,0.054 -10e-4,0.101 0.006,0.155 l 0.043,0.327 h -1.924 l 0.06,-0.42 c 0.002,-0.034 0.004,-0.069 0.004,-0.104 0,-0.486 -0.238,-0.849 -0.452,-0.849 -0.213,0 -0.452,0.363 -0.452,0.849 0,0.46 0.215,0.809 0.415,0.846 l 0.234,0.061 10e-4,0.256 v 3.658 h -0.289 c -0.598,0 -1.274,-0.583 -1.683,-1.451 -0.397,-0.843 -0.598,-2.03 -0.598,-3.528 0,-2.432 0.686,-4.895 1.996,-4.895 0.548,0 1.1,0.48 1.485,1.239 0.392,-1.105 1.147,-1.521 1.769,-1.521 1.409,-0.002 2.512,2.32 2.512,5.284 z"
     id="path24"
     inkscape:connector-curvature="0" />
  <path
     d="m 400.445,279.205 v -3.703 l -0.002,-0.009 c 0.401,-0.074 0.711,-0.598 0.711,-1.233 0,-0.755 -0.362,-1.367 -0.808,-1.367 -0.446,0 -0.808,0.612 -0.808,1.367 0,0.086 -0.003,0.154 0.008,0.235 h -1.262 l 0.005,-0.005 c 0.01,-0.074 0.015,-0.151 0.015,-0.229 0,-0.629 -0.332,-1.138 -0.741,-1.138 -0.409,0 -0.741,0.51 -0.741,1.138 0,0.583 0.285,1.063 0.652,1.13 l -10e-4,0.008 v 3.393 c -0.454,0 -1.047,-0.491 -1.421,-1.285 -0.403,-0.855 -0.571,-2.062 -0.571,-3.405 0,-2.59 0.764,-4.606 1.707,-4.606 0.58,0 1.093,0.764 1.401,1.955 h 0.305 c 0.181,-1.51 0.775,-2.238 1.548,-2.238 1.227,0 2.223,2.237 2.223,4.996 0,2.759 -0.675,5.002 -2.223,4.996"
     id="path26"
     inkscape:connector-curvature="0"
     style="fill:#ffffff" />
  <path
     d="m 402.991,240.543 v 11.104 l -9.983,10.291 v -11.104 h 0.015 l 9.983,-10.291"
     id="path28"
     inkscape:connector-curvature="0"
     style="fill:#1d46a5" />
  <g
     id="g34">
    <path
       d="m 402.628,248.908 -1.505,1.659 1.505,1.598 v 6.227 l -4.387,-4.676 -4.296,4.689 v -6.266 l 1.388,-1.534 -1.388,-1.466 v -6.219 l 4.269,4.535 4.414,-4.821 z"
       id="path30"
       inkscape:connector-curvature="0" />
    <path
       d="m 398.239,253.291 -4.004,4.37 v -5.411 l 1.492,-1.65 -1.492,-1.576 v -5.375 l 3.983,4.231 4.121,-4.502 v 5.419 l -1.609,1.774 1.609,1.708 v 5.382 z"
       id="path32"
       inkscape:connector-curvature="0"
       style="fill:#ffffff" />
  </g>
  <g
     id="g108">
    <path
       d="m 22.879,0 h 9.366 v 1.794 h 265.732 v -1.79 l 8.005,0.001 c 0.499,0 0.833,0.012 1.308,0.025 20.67,0.823 22.838,18.811 22.838,18.811 v 265.18 c 0,0 0.563,5.31 -1.919,7.892 -4.777,4.99 -21.453,21.538 -25.184,25.269 H 24.175 c 0,0 -19.709,-19.044 -21.743,-19.942 C 1.06,295.368 0,292.229 0,284.545 V 18.815 C 0,18.815 2.209,0.925 22.879,0 Z"
       id="path36"
       inkscape:connector-curvature="0"
       style="fill:#312f2f" />
    <path
       d="m 303.226,316.505 a 2.887,2.887 0 0 1 -0.2,0.586 H 26.021 c 0,0 -7.584,-127.725 38.658,-133.999 8.545,-1.011 19.21,1.247 43.398,7.022 24.188,5.776 88.705,5.776 112.893,0 24.188,-5.775 34.803,-7.022 43.398,-7.022 16.029,0 25.921,15.63 31.896,36.226 10.766,37.085 8.783,90.263 6.962,97.187 z"
       id="path38"
       inkscape:connector-curvature="0"
       style="fill:#3f3f3f" />
    <path
       d="m 165.111,198.907 c -32.728,0 -39.25,-1.61 -44.822,-2.354 -5.573,-0.743 -3.913,4.335 -3.913,4.335 0,0 2.846,18.827 3.201,26.011 0.356,7.184 8.063,6.192 8.063,6.192 h 74.941 c 0,0 7.708,0.991 8.063,-6.192 0.355,-7.184 3.202,-26.011 3.202,-26.011 0,0 1.66,-5.078 -3.913,-4.335 -5.573,0.744 -12.095,2.354 -44.822,2.354 z"
       id="path40"
       inkscape:connector-curvature="0"
       style="fill:#181515" />
    <ellipse
       cx="165.11099"
       cy="98.042999"
       rx="140.692"
       ry="80.817001"
       id="ellipse42"
       style="fill:#30302f" />
    <ellipse
       cx="165.11099"
       cy="97.858002"
       rx="139.21001"
       ry="79.268997"
       id="ellipse44"
       style="fill:#181515" />
    <ellipse
       cx="165.11099"
       cy="96"
       rx="114.368"
       ry="64.281998"
       id="ellipse46"
       style="fill:#2c2929" />
    <path
       d="m 165.007,122.382 -7.085,7.4 H 172.3 Z"
       id="path48"
       inkscape:connector-curvature="0"
       style="fill:#241c1e" />
    <path
       d="m 187.084,220.995 h -7.004 v -1.638 h 4.801 c -0.349,-1.057 -0.638,-1.915 -0.917,-2.778 -0.696,-2.149 -1.347,-4.317 -2.112,-6.44 -0.186,-0.514 -0.686,-1.15 -1.142,-1.257 -0.77,-0.179 -1.019,0.62 -1.233,1.28 -1.065,3.295 -2.16,6.578 -3.191,9.884 -0.242,0.777 -0.596,1.039 -1.377,1.018 -2.149,-0.059 -4.3,-0.005 -6.45,-0.024 -2.179,-0.02 -3.603,-1.445 -3.651,-3.7 -0.042,-2.03 -0.046,-4.064 0.001,-6.095 0.053,-2.291 1.432,-3.684 3.632,-3.715 1.938,-0.028 3.876,-0.006 5.883,-0.006 v 1.725 h -4.978 c -2.336,-0.001 -2.873,0.563 -2.873,3.026 0,1.533 -0.007,3.066 0.002,4.6 0.009,1.64 0.756,2.438 2.3,2.455 1.253,0.014 2.506,0.003 3.823,0.003 v -5.348 h -3.188 v -1.663 h 4.969 v 7.044 l 0.271,0.032 c 1.051,-3.239 2.104,-6.477 3.152,-9.717 0.599,-1.852 1.703,-2.604 3.482,-2.331 0.991,0.152 1.724,0.729 2.048,1.71 1.287,3.89 2.535,7.793 3.793,11.692 0.019,0.058 -0.021,0.137 -0.041,0.243 z m -43.896,0.036 v -1.705 c 1.869,0 3.701,0.021 5.533,-0.007 1.534,-0.022 2.679,-1.135 2.734,-2.591 0.054,-1.424 -1.081,-2.642 -2.587,-2.748 -0.612,-0.043 -1.233,0.017 -1.842,-0.05 -0.937,-0.101 -1.621,-0.984 -1.62,-2.006 0.001,-1.035 0.677,-1.96 1.623,-1.987 2.004,-0.059 4.01,-0.018 6.069,-0.018 v 1.687 h -5.891 l -0.006,0.567 c 0.562,0.025 1.124,0.061 1.686,0.073 2.118,0.049 3.648,1.283 4.176,3.379 0.645,2.56 -1.192,5.283 -3.722,5.389 -2.008,0.084 -4.02,0.017 -6.153,0.017 z"
       id="path50"
       inkscape:connector-curvature="0"
       style="fill:#929397" />
    <path
       d="m 143.171,218.657 v -1.762 h 5.912 l 0.002,-0.495 c -0.603,-0.024 -1.206,-0.061 -1.809,-0.071 -1.692,-0.029 -2.951,-0.839 -3.693,-2.397 -0.756,-1.587 -0.64,-3.178 0.356,-4.637 0.683,-1.001 1.626,-1.679 2.814,-1.717 2.077,-0.067 4.157,-0.019 6.317,-0.019 v 1.689 c -1.866,0 -3.733,-0.032 -5.599,0.009 -1.853,0.04 -3.056,1.77 -2.496,3.512 0.336,1.049 1.297,1.752 2.529,1.824 0.579,0.034 1.163,-0.009 1.739,0.05 0.934,0.096 1.642,0.976 1.652,1.982 0.011,1.007 -0.695,1.987 -1.607,2.014 -2.004,0.057 -4.012,0.018 -6.117,0.018 z m 20.773,-11.076 v 1.667 c -1.848,0 -3.678,-0.002 -5.508,0 -1.924,0.002 -2.595,0.682 -2.607,2.674 -0.01,1.603 -0.004,3.206 0.008,4.809 0.014,1.851 0.724,2.596 2.469,2.601 1.834,0.005 3.669,0.001 5.573,0.001 v 1.711 c -1.369,0 -2.717,0.003 -4.065,-0.001 -0.853,-0.002 -1.708,0.028 -2.557,-0.031 -1.564,-0.11 -2.987,-1.573 -3.028,-3.21 a 147.987,147.987 0 0 1 0,-7.051 c 0.034,-1.505 1.305,-3.054 2.744,-3.135 2.301,-0.13 4.614,-0.035 6.971,-0.035 z m 12.604,13.376 c 1.188,-3.671 2.344,-7.263 3.527,-10.844 0.084,-0.254 0.346,-0.523 0.583,-0.609 0.13,-0.047 0.495,0.233 0.563,0.437 0.965,2.87 1.897,5.753 2.864,8.714 h -4.013 l -0.124,-1.184 -0.172,-0.063 c -0.229,0.665 -0.463,1.327 -0.685,1.994 -0.588,1.771 -0.585,1.771 -2.543,1.555 z m 3.43,-4.241 h 1.408 l -0.591,-1.83 -0.243,0.015 z m -9.395,-0.172 -1.184,-0.347 v -1.515 h 2.602 v 3.968 c -1.33,0 -2.653,0.076 -3.958,-0.051 -0.339,-0.033 -0.873,-0.688 -0.889,-1.075 -0.089,-2.136 -0.063,-4.276 -0.038,-6.415 0.009,-0.75 0.448,-1.189 1.172,-1.196 1.977,-0.02 3.954,-0.007 6.019,-0.007 v 1.695 c -1.487,0 -2.946,0.042 -4.402,-0.015 -0.893,-0.035 -1.238,0.291 -1.181,1.232 0.06,0.994 0.004,1.995 0.016,2.994 0.015,1.192 0.565,1.479 1.843,0.732 z"
       id="path52"
       inkscape:connector-curvature="0"
       style="fill:#929397" />
    <path
       d="m 158.242,216.831 c 1.836,0.343 3.739,-0.016 5.643,0.199 v 1.618 c -2.178,0 -4.313,0.053 -6.441,-0.055 -0.34,-0.017 -0.849,-0.71 -0.926,-1.157 -0.148,-0.858 -0.043,-1.765 -0.043,-2.742 h 6.059 v 1.6 h -4.236 z m 5.703,-6.909 v 1.607 c -1.89,0.269 -3.828,-0.172 -5.684,0.238 l 0.019,0.442 h 4.257 v 1.679 h -6.044 c 0,-0.985 -0.084,-2.013 0.045,-3.01 0.046,-0.357 0.602,-0.9 0.941,-0.914 2.137,-0.083 4.278,-0.042 6.466,-0.042 z"
       id="path54"
       inkscape:connector-curvature="0"
       style="fill:#929397" />
    <path
       d="m 141.125,133.999 -1.233,0.091 c -0.018,-0.839 -0.294,-1.258 -0.831,-1.258 -0.615,0 -0.922,0.646 -0.922,1.938 0,0.746 0.083,1.251 0.251,1.517 0.168,0.266 0.401,0.398 0.701,0.398 0.487,0 0.784,-0.375 0.893,-1.123 l 1.142,0.083 c -0.074,0.711 -0.298,1.252 -0.672,1.622 -0.375,0.37 -0.833,0.555 -1.375,0.555 -0.665,0 -1.206,-0.271 -1.622,-0.814 -0.416,-0.542 -0.624,-1.293 -0.624,-2.251 0,-0.897 0.201,-1.631 0.604,-2.204 0.402,-0.572 0.952,-0.857 1.649,-0.857 1.207,0 1.887,0.767 2.039,2.303 z m 2.696,-2.212 1.573,5.944 h -1.266 l -0.31,-1.224 h -1.625 l -0.315,1.224 h -1.032 l 1.611,-5.944 z m -1.344,3.623 h 1.065 l -0.528,-2.086 z m 4.377,-0.035 v 2.356 h -1.186 v -5.944 h 2.209 c 0.407,0 0.734,0.056 0.981,0.167 0.247,0.111 0.451,0.317 0.613,0.616 0.162,0.299 0.243,0.631 0.243,0.997 0,0.714 -0.291,1.226 -0.873,1.536 l 0.928,2.628 h -1.301 l -0.771,-2.356 z m 0,-2.53 v 1.515 h 0.722 c 0.236,0 0.407,-0.02 0.514,-0.059 0.107,-0.039 0.202,-0.126 0.286,-0.261 a 0.869,0.869 0 0 0 0.125,-0.464 0.81,0.81 0 0 0 -0.125,-0.444 c -0.083,-0.131 -0.174,-0.211 -0.272,-0.242 -0.099,-0.031 -0.283,-0.046 -0.553,-0.046 h -0.697 z m 6.733,-1.058 v 1.176 h -1.244 v 4.768 h -1.194 v -4.768 h -1.251 v -1.176 z m 1.579,3.588 v 2.356 h -1.186 v -5.944 h 2.209 c 0.408,0 0.735,0.056 0.981,0.167 0.246,0.111 0.451,0.317 0.613,0.616 0.162,0.299 0.243,0.631 0.243,0.997 0,0.714 -0.291,1.226 -0.873,1.536 l 0.928,2.628 h -1.301 l -0.772,-2.356 z m 0,-2.53 v 1.515 h 0.722 c 0.236,0 0.407,-0.02 0.514,-0.059 0.107,-0.039 0.202,-0.126 0.285,-0.261 a 0.869,0.869 0 0 0 0.125,-0.464 0.81,0.81 0 0 0 -0.125,-0.444 c -0.083,-0.131 -0.174,-0.211 -0.272,-0.242 -0.098,-0.031 -0.282,-0.046 -0.552,-0.046 h -0.697 z m 3.192,-1.058 h 1.174 v 5.944 h -1.174 z m 1.539,0 h 1.534 c 0.625,0 1.091,0.103 1.397,0.307 0.307,0.205 0.582,0.528 0.824,0.971 0.243,0.443 0.364,1.002 0.364,1.679 0,0.851 -0.212,1.561 -0.636,2.131 -0.424,0.571 -1.009,0.856 -1.755,0.856 h -1.729 v -5.944 z m 1.156,1.093 v 3.732 h 0.485 c 0.429,0 0.748,-0.189 0.956,-0.568 0.208,-0.379 0.312,-0.824 0.312,-1.334 0,-0.36 -0.06,-0.693 -0.178,-1 -0.118,-0.307 -0.266,-0.521 -0.443,-0.645 a 1.081,1.081 0 0 0 -0.635,-0.185 z m 7.337,1.672 c 0,0 -0.008,1.872 -0.684,2.556 -0.676,0.684 -0.837,0.714 -1.392,0.714 -0.656,0 -1.166,-0.277 -1.531,-0.832 -0.365,-0.555 -0.547,-1.271 -0.547,-2.151 0,-0.946 0.194,-1.707 0.583,-2.282 0.389,-0.575 0.917,-0.862 1.585,-0.862 0.56,0 1.011,0.186 1.355,0.557 0.344,0.371 0.554,0.867 0.63,1.485 l -1.12,0.174 c -0.091,-0.72 -0.379,-1.08 -0.865,-1.08 -0.319,0 -0.56,0.17 -0.724,0.512 -0.163,0.341 -0.245,0.828 -0.245,1.461 0,0.609 0.088,1.076 0.265,1.398 0.177,0.322 0.428,0.483 0.755,0.483 a 0.785,0.785 0 0 0 0.565,-0.244 c 0.166,-0.163 0.249,-0.422 0.249,-0.779 h -0.946 v -1.11 z m 3.85,-1.633 h -2.393 v 1.22 h 1.882 v 1.118 h -1.882 v 1.298 h 2.393 v 1.176 h -3.59 v -5.944 h 3.59 z m 3.504,-1.132 h 1.174 v 5.944 h -1.174 z m 5.294,0 v 5.944 h -1.004 l -1.967,-4.015 c 0.002,0.102 0.005,0.168 0.007,0.2 0.01,0.102 0.015,0.187 0.015,0.257 v 3.558 h -0.917 v -5.944 h 1.269 l 1.71,3.505 a 4.954,4.954 0 0 1 -0.022,-0.396 v -3.109 z m 1.427,3.736 v 2.208 h -1.196 v -5.944 h 1.981 c 0.442,0 0.78,0.056 1.014,0.167 0.234,0.111 0.444,0.312 0.628,0.599 0.184,0.288 0.276,0.64 0.276,1.058 0,0.293 -0.049,0.58 -0.147,0.858 -0.098,0.279 -0.237,0.498 -0.416,0.658 -0.179,0.16 -0.353,0.266 -0.521,0.318 -0.168,0.052 -0.432,0.078 -0.79,0.078 z m -0.04,-1.08 h 0.766 c 0.292,0 0.497,-0.08 0.615,-0.24 a 0.898,0.898 0 0 0 0.177,-0.548 c 0,-0.241 -0.065,-0.433 -0.197,-0.575 -0.131,-0.143 -0.331,-0.213 -0.599,-0.213 h -0.762 z m 7.001,-2.656 v 3.701 c 0,0.598 -0.058,1.043 -0.173,1.334 -0.115,0.292 -0.328,0.531 -0.639,0.719 -0.311,0.187 -0.708,0.281 -1.191,0.281 -0.483,0 -0.868,-0.084 -1.154,-0.252 a 1.574,1.574 0 0 1 -0.643,-0.719 c -0.142,-0.311 -0.213,-0.765 -0.213,-1.363 v -3.701 h 1.278 v 3.701 c 0,0.319 0.022,0.555 0.068,0.706 0.046,0.151 0.136,0.271 0.272,0.359 a 0.9,0.9 0 0 0 0.503,0.133 c 0.221,0 0.4,-0.043 0.539,-0.13 0.139,-0.087 0.231,-0.203 0.276,-0.346 0.045,-0.143 0.068,-0.384 0.068,-0.721 v -3.701 h 1.009 z m 3.964,0 v 1.176 h -1.244 v 4.768 h -1.193 v -4.768 h -1.252 v -1.176 z"
       id="path56"
       inkscape:connector-curvature="0"
       style="fill:#241c1e" />
    <path
       d="M 250.614,113.084 H 79.608 c -10.206,0 -18.556,-8.35 -18.556,-18.556 0,-10.206 8.35,-18.555 18.556,-18.555 h 171.005 c 10.206,0 18.555,8.35 18.555,18.555 0,10.205 -8.349,18.556 -18.554,18.556 z"
       id="path58"
       inkscape:connector-curvature="0"
       style="fill:#181515" />
    <path
       d="m 73.357,82.027 h 183.508 v 26.097 H 73.357 Z"
       id="path60"
       inkscape:connector-curvature="0" />
    <path
       d="M 74.282,82.952 H 255.94 v 24.247 H 74.282 Z"
       id="path62"
       inkscape:connector-curvature="0"
       style="fill:#732a46" />
    <path
       d="m 73.357,94.635 h 183.508 v 0.88 H 73.357 Z"
       id="path64"
       inkscape:connector-curvature="0"
       style="fill:#010102" />
    <path
       d="m 40.261,203.71 c 5.69,-11.286 14.814,-17.014 25.464,-18.459 8.545,-1.011 21.019,3.595 45.207,9.37 12.16,2.903 31.375,4.302 53.673,4.286 22.297,0.016 41.513,-1.383 53.673,-4.286 24.188,-5.775 36.662,-10.381 45.207,-9.37 10.65,1.445 20.785,6.815 26.476,18.102 -6.005,-12.188 -14.354,-20.261 -25.875,-20.261 -8.595,0 -19.21,1.247 -43.398,7.022 -12.028,2.872 -34.028,4.316 -56.083,4.332 -22.297,0.016 -44.65,-1.428 -56.811,-4.332 -24.188,-5.775 -34.853,-8.033 -43.398,-7.022 -10.649,1.445 -18.444,9.332 -24.135,20.618 z"
       id="path66"
       inkscape:connector-curvature="0"
       style="fill:#181515" />
    <path
       d="m 264.716,256.333 c 0,12.232 -14.051,14.306 -14.051,14.306 H 165.112 79.558 c -2.491,0 -14.052,-2.073 -14.052,-14.306 0,-12.231 14.052,-14.305 14.052,-14.305 h 171.107 c 0,0 14.051,2.074 14.051,14.305 z"
       id="path68"
       inkscape:connector-curvature="0"
       style="fill:#3f4040" />
    <path
       d="M 252.753,267.338 H 77.825 c -4.819,0 -8.761,-3.942 -8.761,-8.761 v -4.336 c 0,-4.818 3.942,-8.761 8.761,-8.761 h 174.929 c 4.819,0 8.761,3.942 8.761,8.761 v 4.336 c 0,4.819 -3.943,8.761 -8.762,8.761 z"
       id="path70"
       inkscape:connector-curvature="0"
       style="fill:#333333" />
    <path
       d="m 249.362,263.95 h -29.054 c -4.189,0 -7.617,-3.428 -7.617,-7.617 0,-4.189 3.428,-7.617 7.617,-7.617 h 29.054 c 4.189,0 7.617,3.428 7.617,7.617 0,4.189 -3.428,7.617 -7.617,7.617 z"
       id="path72"
       inkscape:connector-curvature="0"
       style="fill:#212020" />
    <path
       d="m 249.382,260.969 h -29.133 a 4.57,4.57 0 0 1 -4.557,-4.557 v -0.157 a 4.57,4.57 0 0 1 4.557,-4.557 h 29.133 a 4.57,4.57 0 0 1 4.557,4.557 v 0.157 a 4.571,4.571 0 0 1 -4.557,4.557 z"
       id="path74"
       inkscape:connector-curvature="0"
       style="fill:#6177b3" />
    <circle
       cx="222.067"
       cy="256.409"
       r="0.92500001"
       id="circle76"
       style="fill:#45537c" />
    <path
       d="m 229.366,256.409 a 0.925,0.925 0 1 1 -1.85,0 0.925,0.925 0 0 1 1.85,0 z m 6.374,0 a 0.925,0.925 0 1 1 -1.85,0 0.925,0.925 0 0 1 1.85,0 z"
       id="path78"
       inkscape:connector-curvature="0"
       style="fill:#45537c" />
    <circle
       cx="241.19"
       cy="256.409"
       r="0.92500001"
       id="circle80"
       style="fill:#45537c" />
    <circle
       cx="247.564"
       cy="256.409"
       r="0.92500001"
       id="circle82"
       style="fill:#45537c" />
    <path
       d="M 110.034,263.95 H 80.979 c -4.189,0 -7.617,-3.428 -7.617,-7.617 0,-4.189 3.428,-7.617 7.617,-7.617 h 29.054 c 4.189,0 7.617,3.428 7.617,7.617 0,4.189 -3.427,7.617 -7.616,7.617 z"
       id="path84"
       inkscape:connector-curvature="0"
       style="fill:#212020" />
    <path
       d="M 110.054,260.969 H 80.921 a 4.57,4.57 0 0 1 -4.557,-4.557 v -0.157 a 4.57,4.57 0 0 1 4.557,-4.557 h 29.133 a 4.57,4.57 0 0 1 4.557,4.557 v 0.157 a 4.57,4.57 0 0 1 -4.557,4.557 z"
       id="path86"
       inkscape:connector-curvature="0"
       style="fill:#cbcfd8" />
    <path
       d="m 98.127,251.698 c -1.805,0 -3.268,2.075 -3.268,4.635 0,2.561 1.463,4.636 3.268,4.636 H 87.544 c 1.804,0 3.267,-2.075 3.267,-4.636 0,-2.56 -1.463,-4.635 -3.267,-4.635 z"
       id="path88"
       inkscape:connector-curvature="0"
       style="fill:#7d8189" />
    <path
       d="m 92.247,251.698 h 0.977 v 9.271 h -0.977 z"
       id="path90"
       inkscape:connector-curvature="0"
       style="fill:#6b6d72" />
    <path
       d="m 87.544,251.698 h -7.433 c -1.805,0 -3.267,2.075 -3.267,4.635 0,2.561 1.462,4.636 3.267,4.636 h 7.433 c 1.804,0 3.267,-2.075 3.267,-4.636 10e-4,-2.56 -1.462,-4.635 -3.267,-4.635 z m 17.956,0 h -7.433 c -1.804,0 -3.267,2.075 -3.267,4.635 0,2.561 1.463,4.636 3.267,4.636 h 7.433 c 1.804,0 3.267,-2.075 3.267,-4.636 0,-2.56 -1.463,-4.635 -3.267,-4.635 z"
       id="path92"
       inkscape:connector-curvature="0"
       style="fill:#929397" />
    <path
       d="m 297.978,1.794 v 11.057 c 0,0 -0.093,1.403 -1.957,1.403 H 165.112 34.202 c -1.871,0 -1.957,-1.403 -1.957,-1.403 V 1.794 l 132.866,0.065 z"
       id="path94"
       inkscape:connector-curvature="0"
       style="fill:#444546" />
    <path
       d="m 33.35,0.004 h 2.444 V 12.651 H 33.35 Z m 3.704,0 h 2.445 v 12.647 h -2.445 z m 3.766,0 h 2.444 V 12.651 H 40.82 Z m 3.703,0 h 2.445 v 12.647 h -2.445 z m 3.642,0 h 2.445 v 12.647 h -2.445 z m 3.704,0 h 2.445 v 12.647 h -2.445 z m 3.766,0 h 2.445 v 12.647 h -2.445 z m 3.703,0 h 2.445 v 12.647 h -2.445 z m 3.798,0 h 2.444 v 12.647 h -2.444 z m 3.703,0 h 2.445 v 12.647 h -2.445 z m 3.766,0 h 2.444 v 12.647 h -2.444 z m 3.704,0 h 2.445 v 12.647 h -2.445 z m 3.642,0 h 2.444 v 12.647 h -2.444 z m 3.703,0 h 2.445 v 12.647 h -2.445 z m 3.766,0 h 2.444 V 12.651 H 85.42 Z m 3.704,0 h 2.445 v 12.647 h -2.445 z m 3.766,0 h 2.444 V 12.651 H 92.89 Z m 3.704,0 h 2.445 v 12.647 h -2.445 z m 3.766,0 h 2.444 v 12.647 h -2.444 z m 3.703,0 h 2.445 v 12.647 h -2.445 z m 3.642,0 h 2.444 v 12.647 h -2.444 z m 3.704,0 h 2.445 v 12.647 h -2.445 z m 3.766,0 h 2.444 v 12.647 h -2.444 z m 3.703,0 h 2.445 v 12.647 h -2.445 z m 3.767,0 h 2.444 v 12.647 h -2.444 z m 3.703,0 h 2.445 v 12.647 h -2.445 z m 3.766,0 h 2.444 v 12.647 h -2.444 z m 3.704,0 h 2.445 v 12.647 h -2.445 z m 3.641,0 h 2.444 v 12.647 h -2.444 z m 3.704,0 h 2.445 v 12.647 h -2.445 z m 3.766,0 h 2.444 v 12.647 h -2.444 z m 3.704,0 h 2.445 v 12.647 h -2.445 z m 3.963,0 h 2.444 v 12.647 h -2.444 z m 3.766,0 h 2.444 v 12.647 h -2.444 z m 3.704,0 h 2.444 v 12.647 h -2.444 z m 3.642,0 h 2.444 v 12.647 h -2.444 z m 3.703,0 h 2.444 v 12.647 h -2.444 z m 3.766,0 h 2.444 v 12.647 h -2.444 z m 3.704,0 h 2.444 v 12.647 h -2.444 z m 3.766,0 h 2.444 v 12.647 h -2.444 z m 3.704,0 h 2.444 v 12.647 h -2.444 z m 3.766,0 h 2.444 v 12.647 h -2.444 z m 3.703,0 h 2.444 v 12.647 h -2.444 z m 3.642,0 h 2.444 v 12.647 h -2.444 z m 3.704,0 h 2.444 v 12.647 h -2.444 z m 3.766,0 h 2.444 v 12.647 h -2.444 z m 3.703,0 h 2.444 v 12.647 h -2.444 z m 4.077,0 h 2.445 v 12.647 h -2.445 z m 3.767,0 h 2.444 v 12.647 h -2.444 z m 3.703,0 h 2.445 v 12.647 h -2.445 z m 3.642,0 h 2.444 v 12.647 h -2.444 z m 3.703,0 h 2.445 v 12.647 h -2.445 z m 3.766,0 h 2.444 v 12.647 h -2.444 z m 3.704,0 h 2.445 v 12.647 h -2.445 z m 3.766,0 h 2.444 v 12.647 h -2.444 z m 3.704,0 h 2.445 v 12.647 h -2.445 z m 3.766,0 h 2.444 v 12.647 h -2.444 z m 3.704,0 h 2.445 v 12.647 h -2.445 z m 3.641,0 h 2.444 v 12.647 h -2.444 z m 3.704,0 h 2.445 v 12.647 h -2.445 z m 3.766,0 h 2.444 v 12.647 h -2.444 z m 3.703,0 h 2.445 v 12.647 h -2.445 z m 3.922,0 h 2.445 v 12.647 h -2.445 z m 3.766,0 h 2.444 v 12.647 h -2.444 z m 3.704,0 h 2.445 v 12.647 h -2.445 z m 3.641,0 h 2.444 v 12.647 h -2.444 z m 3.704,0 h 2.444 v 12.647 h -2.444 z m 3.766,0 h 2.444 v 12.647 h -2.444 z m 3.704,0 h 2.444 v 12.647 h -2.444 z m 3.766,0 h 2.444 v 12.647 h -2.444 z m 3.704,0 h 2.444 v 12.647 h -2.444 z"
       id="path96"
       inkscape:connector-curvature="0"
       style="fill:#282424" />
    <path
       d="m 229.673,276.72 h -0.688 l -0.328,-0.932 -0.095,-0.179 -0.136,-0.14 -0.173,-0.094 -0.201,-0.033 h -0.687 v 1.377 h -0.639 v -3.427 h 1.535 c 0.092,0 0.179,0.002 0.262,0.006 l 0.238,0.029 0.219,0.069 0.2,0.128 0.146,0.161 0.105,0.188 0.063,0.207 0.021,0.213 c 0,0.21 -0.051,0.389 -0.151,0.539 a 0.978,0.978 0 0 1 -0.417,0.344 c 0.146,0.112 0.265,0.288 0.356,0.529 z m -2.308,-1.967 h 0.852 c 0.114,0 0.212,-0.007 0.294,-0.023 l 0.201,-0.077 0.114,-0.143 0.036,-0.215 c 0,-0.151 -0.047,-0.264 -0.142,-0.335 -0.095,-0.071 -0.241,-0.107 -0.438,-0.107 h -0.917 z m 5.536,1.967 h -2.619 v -3.427 h 2.545 v 0.59 h -1.906 v 0.773 h 1.784 v 0.585 h -1.784 v 0.89 h 1.98 z m 2.003,0.054 c -0.245,0 -0.459,-0.032 -0.643,-0.096 a 1.28,1.28 0 0 1 -0.459,-0.268 1.125,1.125 0 0 1 -0.281,-0.41 1.516,1.516 0 0 1 -0.104,-0.522 h 0.621 a 0.808,0.808 0 0 0 0.089,0.316 l 0.187,0.223 c 0.076,0.06 0.162,0.102 0.259,0.13 a 1.248,1.248 0 0 0 0.595,0.011 l 0.22,-0.089 0.142,-0.143 0.05,-0.187 -0.048,-0.181 -0.157,-0.133 a 1.297,1.297 0 0 0 -0.285,-0.107 7.81,7.81 0 0 0 -0.433,-0.101 3.28,3.28 0 0 1 -0.506,-0.152 1.224,1.224 0 0 1 -0.349,-0.206 0.734,0.734 0 0 1 -0.202,-0.272 0.9,0.9 0 0 1 -0.065,-0.355 0.881,0.881 0 0 1 0.346,-0.712 1.24,1.24 0 0 1 0.396,-0.206 c 0.153,-0.051 0.324,-0.075 0.512,-0.075 0.196,0 0.375,0.027 0.536,0.081 0.162,0.053 0.302,0.13 0.419,0.23 0.118,0.1 0.209,0.222 0.276,0.367 0.067,0.146 0.103,0.31 0.107,0.493 h -0.614 c -0.045,-0.39 -0.281,-0.584 -0.707,-0.584 -0.208,0 -0.367,0.035 -0.476,0.104 a 0.325,0.325 0 0 0 -0.165,0.288 l 0.036,0.13 0.115,0.102 0.203,0.084 c 0.083,0.025 0.183,0.051 0.3,0.074 0.103,0.021 0.208,0.046 0.315,0.07 0.108,0.025 0.213,0.057 0.316,0.093 0.104,0.036 0.201,0.08 0.292,0.133 a 0.984,0.984 0 0 1 0.24,0.188 c 0.069,0.073 0.124,0.16 0.164,0.26 a 0.95,0.95 0 0 1 0.06,0.352 0.977,0.977 0 0 1 -0.367,0.772 1.256,1.256 0 0 1 -0.412,0.219 1.662,1.662 0 0 1 -0.523,0.079 z m 4.594,-0.054 h -2.619 v -3.427 h 2.544 v 0.59 h -1.905 v 0.773 h 1.784 v 0.585 h -1.784 v 0.89 h 1.98 z m 3.181,-2.837 h -1.066 v 2.837 h -0.641 v -2.837 h -1.061 v -0.59 h 2.768 z M 84.972,273.079 h 1.402 c 0.125,0 0.248,0.007 0.367,0.021 0.12,0.013 0.233,0.037 0.339,0.07 0.107,0.034 0.205,0.078 0.293,0.134 l 0.23,0.205 c 0.064,0.083 0.115,0.18 0.15,0.293 0.037,0.112 0.054,0.242 0.054,0.39 0,0.388 -0.118,0.68 -0.353,0.876 -0.235,0.194 -0.585,0.291 -1.051,0.291 h -0.751 v 1.376 H 84.97 v -3.656 z m 0.681,1.653 h 0.763 c 0.125,0 0.232,-0.012 0.32,-0.034 l 0.216,-0.103 0.122,-0.165 0.039,-0.229 a 0.496,0.496 0 0 0 -0.058,-0.253 l -0.155,-0.15 -0.227,-0.072 a 1.957,1.957 0 0 0 -0.271,-0.018 h -0.749 z m 4.446,-1.711 c 0.255,0 0.49,0.045 0.706,0.135 0.215,0.089 0.401,0.217 0.556,0.381 0.156,0.165 0.277,0.363 0.365,0.596 0.088,0.233 0.131,0.489 0.131,0.771 0,0.279 -0.043,0.534 -0.128,0.766 a 1.666,1.666 0 0 1 -0.919,0.984 c -0.215,0.093 -0.452,0.139 -0.71,0.139 -0.258,0 -0.495,-0.046 -0.71,-0.137 a 1.675,1.675 0 0 1 -0.556,-0.385 1.752,1.752 0 0 1 -0.363,-0.597 2.221,2.221 0 0 1 -0.128,-0.77 c 0,-0.284 0.044,-0.542 0.131,-0.774 0.087,-0.232 0.209,-0.43 0.366,-0.595 0.156,-0.164 0.342,-0.292 0.557,-0.38 0.214,-0.09 0.448,-0.134 0.702,-0.134 z m -0.003,3.165 c 0.156,0 0.299,-0.029 0.43,-0.088 a 0.954,0.954 0 0 0 0.337,-0.253 c 0.095,-0.11 0.167,-0.244 0.22,-0.402 0.053,-0.158 0.078,-0.338 0.078,-0.538 0,-0.202 -0.026,-0.383 -0.08,-0.54 a 1.167,1.167 0 0 0 -0.22,-0.4 0.948,0.948 0 0 0 -0.335,-0.248 1.027,1.027 0 0 0 -0.42,-0.085 c -0.154,0 -0.297,0.029 -0.428,0.087 a 0.968,0.968 0 0 0 -0.339,0.25 c -0.096,0.109 -0.17,0.243 -0.223,0.4 -0.053,0.158 -0.08,0.337 -0.08,0.536 0,0.2 0.026,0.38 0.08,0.538 0.053,0.158 0.126,0.292 0.22,0.402 a 0.975,0.975 0 0 0 0.76,0.341 z m 6.865,-3.107 -1.016,3.655 h -0.607 l -0.744,-2.677 -0.737,2.677 h -0.608 l -1.015,-3.655 h 0.718 l 0.605,2.459 0.679,-2.459 h 0.724 l 0.677,2.456 0.607,-2.456 z m 3.338,3.655 h -2.793 v -3.655 h 2.714 v 0.629 h -2.032 v 0.825 h 1.902 v 0.623 h -1.902 v 0.95 h 2.111 z m 3.872,0 h -0.734 l -0.35,-0.994 -0.101,-0.19 -0.146,-0.149 -0.184,-0.1 -0.214,-0.035 h -0.732 v 1.469 h -0.682 v -3.655 h 1.637 c 0.098,0 0.191,0.002 0.279,0.006 l 0.254,0.031 0.234,0.074 0.213,0.136 0.156,0.173 0.112,0.201 0.067,0.221 0.022,0.228 c 0,0.223 -0.054,0.414 -0.161,0.573 -0.107,0.16 -0.256,0.282 -0.445,0.367 0.155,0.12 0.283,0.308 0.38,0.564 z m -2.461,-2.097 h 0.908 c 0.122,0 0.227,-0.008 0.314,-0.025 l 0.214,-0.083 0.122,-0.152 0.039,-0.228 c 0,-0.162 -0.05,-0.281 -0.151,-0.357 -0.102,-0.076 -0.257,-0.115 -0.467,-0.115 h -0.978 v 0.96 z"
       id="path98"
       inkscape:connector-curvature="0"
       style="fill:#82888b" />
    <path
       d="m 71.373,294.975 v -1.784 c 1.79,-0.44 2.957,-1.029 3.503,-1.766 h 1.759 v 7.213 l -0.015,1.587 h -2.346 l -0.02,-1.587 v -4.959 c -1.233,0.627 -2.194,1.058 -2.881,1.296 z m 25.762,-3.416 h 2.419 v 8.666 h -2.419 z m 10.612,0 v 1.713 h -2.563 v 6.953 h -2.457 v -6.953 h -2.579 v -1.713 z m -19.756,0.949 a 0.95,0.95 0 0 1 0.949,-0.949 h 3.873 c 0.865,0 1.514,0.089 1.949,0.267 0.435,0.177 0.793,0.431 1.077,0.761 0.284,0.33 0.424,0.732 0.424,1.206 0,0.959 -0.622,1.601 -1.865,1.922 0.718,0.136 1.256,0.404 1.615,0.807 0.359,0.403 0.539,0.841 0.539,1.315 0,0.648 -0.293,1.209 -0.88,1.681 -0.586,0.473 -1.539,0.708 -2.859,0.708 H 88.94 a 0.95,0.95 0 0 1 -0.949,-0.949 z m 2.419,1.298 c 0,0.188 0.425,0.342 0.949,0.342 h 0.886 c 0.672,0 1.096,-0.04 1.27,-0.12 0.174,-0.08 0.262,-0.156 0.262,-0.229 0,-0.079 -0.072,-0.147 -0.216,-0.205 -0.144,-0.057 -0.302,-0.093 -0.474,-0.107 -0.172,-0.014 -0.511,-0.021 -1.016,-0.021 H 91.36 c -0.526,-0.002 -0.95,0.151 -0.95,0.34 z m 0.565,3.411 -0.007,-10e-4 c 0.119,0.019 0.251,0.028 0.391,0.028 h 0.912 c 0.635,0 1.084,-0.031 1.347,-0.095 0.262,-0.064 0.393,-0.153 0.393,-0.268 0,-0.096 -0.126,-0.179 -0.378,-0.248 -0.252,-0.069 -0.671,-0.104 -1.256,-0.104 h -1.018 c -0.524,0 -0.949,0.146 -0.949,0.325 v 3.37 h 0.565 z m -10.471,-3.411 h 6.148 v -2.381 h -7.025 a 1.833,1.833 0 0 0 -1.828,1.828 v 5.277 c 0,1.006 0.822,1.828 1.828,1.828 h 5.197 a 1.833,1.833 0 0 0 1.828,-1.828 v -2.161 c 0,-0.91 -0.738,-1.648 -1.648,-1.898 h -3.852 v 2.059 h 2.887 v 0.722 h -3.535 z m 128.597,4.867 3.965,-5.979 c 0.189,-0.341 0.377,-0.512 0.566,-0.512 h 2.833 v 0.794 l 0.188,-0.282 c 0.189,-0.341 0.378,-0.512 0.567,-0.512 h 3.398 v 6.491 h -2.266 v -5.125 l -3.399,5.125 h -2.266 l 3.399,-5.125 h -1.133 c -0.126,0 -0.252,0.057 -0.377,0.171 l -3.21,4.954 z m 14.54,-2.563 v 1.196 h 5.287 v 1.366 h -7.553 v -4.271 c 0,-0.114 0.032,-0.228 0.095,-0.342 l 1.038,-1.708 c 0.063,-0.114 0.189,-0.171 0.378,-0.171 h 6.042 v 1.366 h -4.532 a 0.303,0.303 0 0 0 -0.283,0.171 l -0.472,1.025 h 5.287 l -0.755,1.366 h -4.532 z m 8.308,1.197 h 3.776 v -1.196 h -1.51 l 0.755,-1.366 h 3.021 v 3.587 c 0,0.229 -0.126,0.342 -0.378,0.342 h -7.553 c -0.252,0 -0.377,-0.113 -0.377,-0.342 v -3.929 a 0.7,0.7 0 0 1 0.094,-0.342 l 1.039,-1.708 c 0.063,-0.114 0.189,-0.171 0.377,-0.171 h 6.42 v 1.366 h -4.909 a 0.304,0.304 0 0 0 -0.283,0.171 l -0.472,1.025 z m 16.239,1.366 h -2.644 l -1.039,-1.366 h -2.738 l -0.755,-1.239 v 2.605 h -2.266 v -6.491 h 4.343 c 0.189,0 0.378,0.171 0.566,0.512 z m -4.73,-2.734 -1.69,-2.221 c -0.126,-0.114 -0.252,-0.171 -0.377,-0.171 h -0.378 v 2.392 z m 36.643,-5.513 h -9.4 c 2.074,-1.153 5.029,-2.722 6.301,-4.347 2.452,-3.134 -1.597,-5.366 -4.888,-4.271 -4.601,1.529 -6.608,3.787 -9.236,6.061 h -5.466 c 3.905,-7.467 8.768,-11.482 16.205,-13.505 7.962,-2.166 11.676,3.016 10.167,9.122 -0.844,3.409 -1.185,3.907 -3.683,6.94 z m -12.494,12.196 c 0.021,-0.234 0.15,-0.561 0.326,-0.922 0.213,-0.437 0.51,-0.738 0.685,-0.922 h -9.459 c -0.71,1.312 -1.409,1.978 -1.869,4.388 -0.503,2.632 0.998,3.822 1.869,3.822 h 22.726 l 3.332,-6.366 z"
       id="path100"
       inkscape:connector-curvature="0"
       style="fill:#929397" />
    <path
       d="m 251.937,297.474 h 2.442 a 0.283,0.283 0 0 0 0.262,-0.157 l 0.741,-1.593 0.043,-0.175 -0.043,-0.175 -0.741,-1.575 c -0.059,-0.117 -0.146,-0.176 -0.262,-0.176 h -2.442 z m -2.094,-5.25 h 5.844 c 0.174,0 0.32,0.116 0.436,0.35 l 1.352,2.801 0.043,0.175 -0.043,0.175 -1.352,2.801 c -0.116,0.233 -0.262,0.35 -0.436,0.35 h -5.844 z m 8.373,0 h 5.583 c 0.175,0 0.319,0.116 0.437,0.35 l 0.915,1.926 0.044,0.175 -0.044,0.175 -1.352,1.575 1.396,2.45 h -2.094 l -2.006,-3.325 h 1.047 c 0.116,0 0.203,-0.029 0.262,-0.088 l 0.697,-0.787 -0.349,-0.875 c -0.058,-0.117 -0.146,-0.176 -0.262,-0.176 h -2.18 v 5.251 h -2.094 z m 9.769,6.65 h -2.093 v -6.65 h 2.093 z m 2.791,-4.463 2.094,3.063 2.093,-3.063 v -2.188 h 2.094 v 2.45 c 0,0.233 -0.029,0.408 -0.087,0.524 l -2.355,3.676 h -3.489 l -2.354,-3.676 c -0.059,-0.116 -0.087,-0.291 -0.087,-0.524 v -2.45 h 2.093 v 2.188 z m 9.072,1.838 v 1.225 h 4.885 v 1.4 h -6.979 v -4.375 c 0,-0.117 0.029,-0.233 0.088,-0.351 l 0.959,-1.75 c 0.059,-0.117 0.175,-0.175 0.35,-0.175 h 5.582 v 1.399 h -4.187 c -0.117,0 -0.204,0.059 -0.262,0.176 l -0.437,1.05 h 4.885 l -0.698,1.4 h -4.186 z"
       id="path102"
       inkscape:connector-curvature="0"
       style="fill:#8c8e92" />
    <path
       d="m 72.52,274.933 c 0,-0.405 0.061,-0.744 0.181,-1.02 a 1.86,1.86 0 0 1 0.37,-0.544 c 0.156,-0.161 0.327,-0.28 0.513,-0.357 0.248,-0.105 0.533,-0.157 0.856,-0.157 0.585,0 1.054,0.182 1.405,0.544 0.352,0.363 0.527,0.868 0.527,1.515 0,0.642 -0.174,1.144 -0.522,1.506 -0.349,0.361 -0.815,0.543 -1.398,0.543 -0.591,0 -1.061,-0.181 -1.409,-0.541 -0.349,-0.361 -0.523,-0.858 -0.523,-1.489 z m 0.826,-0.028 c 0,0.449 0.104,0.791 0.312,1.022 0.208,0.232 0.471,0.349 0.791,0.349 0.32,0 0.582,-0.116 0.787,-0.346 0.205,-0.23 0.308,-0.576 0.308,-1.036 0,-0.455 -0.1,-0.795 -0.299,-1.019 -0.2,-0.225 -0.465,-0.336 -0.795,-0.336 -0.33,0 -0.597,0.113 -0.799,0.339 -0.204,0.228 -0.305,0.57 -0.305,1.027 z m 3.66,1.989 v -3.972 h 0.78 l 1.626,2.652 v -2.652 h 0.745 v 3.972 h -0.805 l -1.601,-2.59 v 2.59 z m 32.24,-1.98 c 0,-0.405 0.061,-0.744 0.181,-1.019 0.09,-0.203 0.214,-0.384 0.37,-0.545 0.156,-0.161 0.327,-0.28 0.513,-0.357 0.248,-0.105 0.533,-0.157 0.856,-0.157 0.585,0 1.054,0.182 1.405,0.544 0.352,0.363 0.527,0.868 0.527,1.515 0,0.642 -0.174,1.144 -0.522,1.506 -0.349,0.362 -0.815,0.542 -1.398,0.542 -0.591,0 -1.061,-0.18 -1.409,-0.54 -0.349,-0.36 -0.523,-0.857 -0.523,-1.489 z m 0.826,-0.027 c 0,0.449 0.104,0.791 0.312,1.022 0.208,0.232 0.471,0.349 0.791,0.349 0.32,0 0.582,-0.116 0.787,-0.346 0.205,-0.23 0.308,-0.576 0.308,-1.036 0,-0.455 -0.1,-0.795 -0.299,-1.019 -0.2,-0.225 -0.465,-0.336 -0.795,-0.336 -0.33,0 -0.597,0.113 -0.799,0.339 -0.204,0.228 -0.305,0.57 -0.305,1.027 z m 3.657,1.988 v -3.972 h 2.723 v 0.672 h -1.92 v 0.941 h 1.657 v 0.672 h -1.657 v 1.687 z m 3.39,0 v -3.972 h 2.722 v 0.672 h -1.92 v 0.941 h 1.658 v 0.672 h -1.658 v 1.687 z"
       id="path104"
       inkscape:connector-curvature="0"
       style="fill:#929397" />
    <path
       d="m 78.931,279.107 h -4.895 a 3.761,3.761 0 0 1 -3.757,-3.757 v -0.885 a 3.761,3.761 0 0 1 3.757,-3.757 h 4.895 a 3.761,3.761 0 0 1 3.757,3.757 v 0.885 a 3.76,3.76 0 0 1 -3.757,3.757 z m -4.895,-7.473 a 2.835,2.835 0 0 0 -2.832,2.832 v 0.885 a 2.836,2.836 0 0 0 2.832,2.832 h 4.895 a 2.835,2.835 0 0 0 2.832,-2.832 v -0.885 a 2.835,2.835 0 0 0 -2.832,-2.832 z m 44.001,7.454 h -6.987 a 3.76,3.76 0 0 1 -3.757,-3.757 v -0.884 a 3.761,3.761 0 0 1 3.757,-3.757 h 6.987 a 3.761,3.761 0 0 1 3.757,3.757 v 0.884 a 3.76,3.76 0 0 1 -3.757,3.757 z m -6.987,-7.473 a 2.835,2.835 0 0 0 -2.832,2.832 v 0.884 a 2.835,2.835 0 0 0 2.832,2.832 h 6.987 a 2.835,2.835 0 0 0 2.832,-2.832 v -0.884 a 2.835,2.835 0 0 0 -2.832,-2.832 z"
       id="path106"
       inkscape:connector-curvature="0"
       style="fill:#929397" />
  </g>
  <g
     id="g294">
    <path
       d="m 165.131,44.902 c 16.302,0 31.13,0.39 44.294,0.987 h 0.031 c 21.956,0.996 39.276,2.548 51.079,3.791 22.76,2.389 39.315,0.478 48.274,23.357 4.97,12.678 5.973,53.587 3.783,59.958 -2.19,6.371 -3.408,11.252 -11.811,14.239 -8.394,2.987 -50.202,13.379 -60.355,18.436 -10.153,5.058 -34.044,14.813 -40.813,17.003 l -6.769,2.189 c 0,0 -11.364,4.182 -27.753,4.182 -16.39,0 -27.754,-4.182 -27.754,-4.182 l -6.769,-2.189 C 123.798,180.483 99.908,170.728 89.755,165.67 79.602,160.613 37.793,150.221 29.4,147.234 20.998,144.248 19.78,139.366 17.589,132.995 15.4,126.624 16.402,85.715 21.372,73.037 30.331,50.158 46.887,52.069 69.646,49.68 81.449,48.437 98.769,46.885 120.725,45.889 h 0.031 a 978.713,978.713 0 0 1 44.294,-0.987"
       id="path110"
       inkscape:connector-curvature="0"
       style="fill:#171819" />
    <path
       d="m 165.153,56.895 c 44.426,-0.482 107.863,2.625 116.426,9 16.25,9.063 15.881,22.428 16.75,32.625 -0.341,5.169 -1.765,14.672 -8.375,23.625 -2.045,2.769 -5.594,5.989 -7.625,7.75 -24.834,17.5 -61,47.667 -117.176,50.75 l -0.124,0.016 c -56.176,-3.083 -92.342,-33.25 -117.176,-50.75 -2.031,-1.761 -5.58,-4.981 -7.625,-7.75 -6.61,-8.953 -8.034,-18.456 -8.375,-23.625 0.869,-10.197 0.5,-23.563 16.75,-32.625 8.563,-6.375 72,-9.482 116.426,-9"
       id="path112"
       inkscape:connector-curvature="0"
       style="fill:#171819" />
    <path
       d="m 165.442,126.66 h -0.35 l 89.529,-1.918 c 9.312,-0.641 16.269,-1.237 22.757,-9.991 2.754,-3.716 4.139,-8.273 4.139,-12.898 v -3.335 c 0,-18.474 -9.429,-25.511 -25.125,-28.482 0,0 -37.382,-4.125 -91.3,-4.125 -53.919,0 -91.301,4.125 -91.301,4.125 -15.696,2.971 -25.125,10.008 -25.125,28.482 v 3.335 c 0,4.625 1.385,9.183 4.139,12.898 6.488,8.754 13.445,9.35 22.757,9.991 l 89.529,1.918 h -0.35"
       id="path114"
       inkscape:connector-curvature="0"
       style="fill:#282827" />
    <path
       d="m 164.936,71.154 c 47.875,0 80.375,4.006 80.375,4.006 13.938,2.25 23,6.697 23,20.688 v 6.813 c 0,7.975 -6.524,14.5 -14.5,14.5 h -88.875 0.312 -88.876 c -7.976,0 -14.5,-6.525 -14.5,-14.5 v -6.813 c 0,-13.991 9.063,-18.438 23,-20.688 0,0 32.5,-4.006 80.375,-4.006"
       id="path116"
       inkscape:connector-curvature="0"
       style="fill:#1d1d1d" />
    <path
       d="m 73.285,83.437 h 183.612 v 30.196 H 73.285 Z"
       id="path118"
       inkscape:connector-curvature="0"
       style="fill:#1b1c1c" />
    <path
       d="m 73.544,83.66 h 183.063 v 29.75 H 73.544 Z"
       id="path120"
       inkscape:connector-curvature="0"
       style="fill:#414446" />
    <path
       d="m 164.877,113.41 h 63.131 c 13.225,0 24.6,-8.676 28.6,-12 V 83.66 h -91.73 0.397 -91.73 v 17.75 c 4,3.324 15.375,12 28.6,12 h 63.131"
       id="path122"
       inkscape:connector-curvature="0"
       style="fill:#1b1d1e" />
    <path
       d="m 73.544,90.16 h 12.354 a 0.816,0.816 0 0 0 0.813,-0.813 V 83.66 H 73.544 Z m 183.064,0 h -12.354 a 0.816,0.816 0 0 1 -0.813,-0.813 V 83.66 h 13.166 v 6.5 z"
       id="path124"
       inkscape:connector-curvature="0"
       style="fill:#46494b" />
    <path
       d="m 164.877,85.878 h 74.677 v 0.001 c 0.447,0 0.813,0.366 0.813,0.813 v 4.49 c 0,0.447 0.339,0.813 0.752,0.813 h 11.489 v 9.417 c -7.313,6 -15.588,10.583 -28.996,10.583 H 106.146 c -13.408,0 -21.684,-4.583 -28.996,-10.583 v -9.417 h 11.489 c 0.413,0 0.752,-0.366 0.752,-0.813 v -4.49 c 0,-0.447 0.365,-0.813 0.813,-0.813 v -0.001 z"
       id="path126"
       inkscape:connector-curvature="0"
       style="fill:#45494a" />
    <path
       d="m 73.544,98.535 h 183.063 v 0.594 H 73.544 Z"
       id="path128"
       inkscape:connector-curvature="0" />
    <path
       d="m 113.779,99.129 h 102.195 v 1.2 H 113.779 Z"
       id="path130"
       inkscape:connector-curvature="0"
       style="fill:#1c1e1f" />
    <path
       d="m 113.779,100.329 h 102.195 v 1.2 H 113.779 Z"
       id="path132"
       inkscape:connector-curvature="0"
       style="fill:#202223" />
    <path
       d="m 113.779,101.532 h 102.195 v 1.2 H 113.779 Z"
       id="path134"
       inkscape:connector-curvature="0"
       style="fill:#242627" />
    <path
       d="m 113.779,102.732 h 102.195 v 1.2 H 113.779 Z"
       id="path136"
       inkscape:connector-curvature="0"
       style="fill:#292c2d" />
    <path
       d="m 113.779,103.932 h 102.195 v 1.2 H 113.779 Z"
       id="path138"
       inkscape:connector-curvature="0"
       style="fill:#2f3133" />
    <path
       d="m 113.779,105.132 h 102.195 v 1.2 H 113.779 Z"
       id="path140"
       inkscape:connector-curvature="0"
       style="fill:#333637" />
    <path
       d="m 113.779,106.335 h 102.195 v 1.2 H 113.779 Z"
       id="path142"
       inkscape:connector-curvature="0"
       style="fill:#373a3c" />
    <path
       d="m 113.779,107.535 h 102.195 v 1.2 H 113.779 Z"
       id="path144"
       inkscape:connector-curvature="0"
       style="fill:#3b3e3f" />
    <path
       d="m 113.779,108.735 h 102.195 v 1.2 H 113.779 Z"
       id="path146"
       inkscape:connector-curvature="0"
       style="fill:#3f4244" />
    <path
       d="m 116.919,99.129 h -3.14 v 10.806 c 0,0 0.797,-9.118 3.14,-10.806 z m 95.916,0 h 3.14 v 10.806 c 0,0 -0.797,-9.118 -3.14,-10.806 z"
       id="path148"
       inkscape:connector-curvature="0"
       style="fill:#1b1d1e" />
    <path
       d="m 113.779,97.335 h 102.195 v 1.2 H 113.779 Z"
       id="path150"
       inkscape:connector-curvature="0"
       style="fill:#1c1e1f" />
    <path
       d="m 113.779,96.135 h 102.195 v 1.2 H 113.779 Z"
       id="path152"
       inkscape:connector-curvature="0"
       style="fill:#202223" />
    <path
       d="m 113.779,94.932 h 102.195 v 1.2 H 113.779 Z"
       id="path154"
       inkscape:connector-curvature="0"
       style="fill:#242627" />
    <path
       d="m 113.779,93.732 h 102.195 v 1.2 H 113.779 Z"
       id="path156"
       inkscape:connector-curvature="0"
       style="fill:#292c2d" />
    <path
       d="m 113.779,92.532 h 102.195 v 1.2 H 113.779 Z"
       id="path158"
       inkscape:connector-curvature="0"
       style="fill:#2f3133" />
    <path
       d="m 113.779,91.332 h 102.195 v 1.2 H 113.779 Z"
       id="path160"
       inkscape:connector-curvature="0"
       style="fill:#333637" />
    <path
       d="m 113.779,90.129 h 102.195 v 1.2 H 113.779 Z"
       id="path162"
       inkscape:connector-curvature="0"
       style="fill:#373a3c" />
    <path
       d="m 113.779,88.929 h 102.195 v 1.2 H 113.779 Z"
       id="path164"
       inkscape:connector-curvature="0"
       style="fill:#3b3e3f" />
    <path
       d="m 113.779,87.729 h 102.195 v 1.2 H 113.779 Z"
       id="path166"
       inkscape:connector-curvature="0"
       style="fill:#3f4244" />
    <path
       d="m 116.919,98.535 h -3.14 v -11.21 c 0,0 0.797,9.458 3.14,11.21 z m 95.916,0 h 3.14 v -11.21 c 0,0 -0.797,9.458 -3.14,11.21 z"
       id="path168"
       inkscape:connector-curvature="0"
       style="fill:#1b1d1e" />
    <path
       d="m 92.473,96.959 h 0.612 c 0,0.248 -0.138,0.451 -0.306,0.451 -0.169,0 -0.306,-0.202 -0.306,-0.451 z"
       id="path170"
       inkscape:connector-curvature="0"
       style="fill:#0e1214" />
    <path
       d="m 92.473,87.776 h 0.612 c 0,-0.248 -0.138,-0.451 -0.306,-0.451 -0.169,0 -0.306,0.203 -0.306,0.451 z"
       id="path172"
       inkscape:connector-curvature="0"
       style="fill:#5e5e60" />
    <path
       d="m 92.473,87.776 h 0.612 v 9.184 h -0.612 z"
       id="path174"
       inkscape:connector-curvature="0"
       style="fill:#393d3f" />
    <path
       d="m 97.985,96.959 h 0.612 c 0,0.248 -0.138,0.451 -0.307,0.451 -0.167,0 -0.305,-0.202 -0.305,-0.451 z"
       id="path176"
       inkscape:connector-curvature="0"
       style="fill:#0e1214" />
    <path
       d="m 97.985,87.776 h 0.612 c 0,-0.248 -0.138,-0.451 -0.307,-0.451 -0.167,0 -0.305,0.203 -0.305,0.451 z"
       id="path178"
       inkscape:connector-curvature="0"
       style="fill:#5e5e60" />
    <path
       d="m 97.985,87.776 h 0.612 v 9.184 h -0.612 z"
       id="path180"
       inkscape:connector-curvature="0"
       style="fill:#393d3f" />
    <path
       d="m 97.985,109.935 h 0.612 c 0,0.248 -0.138,0.451 -0.307,0.451 -0.167,0 -0.305,-0.203 -0.305,-0.451 z"
       id="path182"
       inkscape:connector-curvature="0"
       style="fill:#0e1214" />
    <path
       d="m 97.985,100.751 h 0.612 c 0,-0.248 -0.138,-0.451 -0.307,-0.451 -0.167,0 -0.305,0.203 -0.305,0.451 z"
       id="path184"
       inkscape:connector-curvature="0"
       style="fill:#5e5e60" />
    <path
       d="m 97.985,100.751 h 0.612 v 9.183 h -0.612 z"
       id="path186"
       inkscape:connector-curvature="0"
       style="fill:#393d3f" />
    <path
       d="m 92.473,108.202 h 0.612 c 0,0.248 -0.138,0.451 -0.306,0.451 -0.169,0 -0.306,-0.203 -0.306,-0.451 z"
       id="path188"
       inkscape:connector-curvature="0"
       style="fill:#0e1214" />
    <path
       d="m 92.473,100.751 h 0.612 c 0,-0.248 -0.138,-0.451 -0.306,-0.451 -0.169,0 -0.306,0.203 -0.306,0.451 z"
       id="path190"
       inkscape:connector-curvature="0"
       style="fill:#5e5e60" />
    <path
       d="m 92.473,100.751 h 0.612 v 7.45 h -0.612 z"
       id="path192"
       inkscape:connector-curvature="0"
       style="fill:#393d3f" />
    <path
       d="m 237.281,96.959 h -0.612 c 0,0.248 0.138,0.451 0.306,0.451 0.169,0 0.306,-0.202 0.306,-0.451 z"
       id="path194"
       inkscape:connector-curvature="0"
       style="fill:#0e1214" />
    <path
       d="m 237.281,87.776 h -0.612 c 0,-0.248 0.138,-0.451 0.306,-0.451 0.169,0 0.306,0.203 0.306,0.451 z"
       id="path196"
       inkscape:connector-curvature="0"
       style="fill:#5e5e60" />
    <path
       d="m 236.669,87.776 h 0.612 v 9.184 h -0.612 z"
       id="path198"
       inkscape:connector-curvature="0"
       style="fill:#393d3f" />
    <path
       d="m 231.77,96.959 h -0.613 c 0,0.248 0.138,0.451 0.307,0.451 0.167,0 0.306,-0.202 0.306,-0.451 z"
       id="path200"
       inkscape:connector-curvature="0"
       style="fill:#0e1214" />
    <path
       d="m 231.77,87.776 h -0.613 c 0,-0.248 0.138,-0.451 0.307,-0.451 0.167,0 0.306,0.203 0.306,0.451 z"
       id="path202"
       inkscape:connector-curvature="0"
       style="fill:#5e5e60" />
    <path
       d="m 231.156,87.776 h 0.613 v 9.184 h -0.613 z"
       id="path204"
       inkscape:connector-curvature="0"
       style="fill:#393d3f" />
    <path
       d="m 231.77,109.935 h -0.613 c 0,0.248 0.138,0.451 0.307,0.451 0.167,0 0.306,-0.203 0.306,-0.451 z"
       id="path206"
       inkscape:connector-curvature="0"
       style="fill:#0e1214" />
    <path
       d="m 231.77,100.751 h -0.613 c 0,-0.248 0.138,-0.451 0.307,-0.451 0.167,0 0.306,0.203 0.306,0.451 z"
       id="path208"
       inkscape:connector-curvature="0"
       style="fill:#5e5e60" />
    <path
       d="m 231.156,100.751 h 0.613 v 9.183 h -0.613 z"
       id="path210"
       inkscape:connector-curvature="0"
       style="fill:#393d3f" />
    <path
       d="m 237.281,108.202 h -0.612 c 0,0.248 0.138,0.451 0.306,0.451 0.169,0 0.306,-0.203 0.306,-0.451 z"
       id="path212"
       inkscape:connector-curvature="0"
       style="fill:#0e1214" />
    <path
       d="m 237.281,100.751 h -0.612 c 0,-0.248 0.138,-0.451 0.306,-0.451 0.169,0 0.306,0.203 0.306,0.451 z"
       id="path214"
       inkscape:connector-curvature="0"
       style="fill:#5e5e60" />
    <path
       d="m 236.669,100.751 h 0.612 v 7.45 h -0.612 z"
       id="path216"
       inkscape:connector-curvature="0"
       style="fill:#393d3f" />
    <path
       d="m 90.491,83.437 h 7.125 v 2.236 h -7.125 z m 0.157,27.914 -0.006,-1.931 a 39.825,39.825 0 0 0 6.912,1.854 l -0.011,1.796 A 37.637,37.637 0 0 1 90.65,111.352 M 232.535,83.437 h 7.125 v 2.236 h -7.125 z m 6.969,27.914 0.006,-1.931 a 39.801,39.801 0 0 1 -6.912,1.854 l 0.012,1.796 a 37.647,37.647 0 0 0 6.892,-1.718"
       id="path218"
       inkscape:connector-curvature="0" />
    <path
       d="M 253.812,116.885 H 76.372 c -8.078,0 -14.65,-6.572 -14.65,-14.65 v -6.813 c 0,-14.194 9.245,-18.595 23.127,-20.835 0.329,-0.041 32.919,-3.991 80.088,-4.008 h 0.311 c 47.169,0.017 79.759,3.967 80.083,4.007 13.887,2.242 23.132,6.643 23.132,20.836 v 6.813 c -0.001,8.078 -6.573,14.65 -14.651,14.65 z m -88.565,-0.3 h 88.564 c 7.913,0 14.35,-6.438 14.35,-14.35 v -6.813 c 0,-13.982 -9.144,-18.323 -22.873,-20.54 -0.319,-0.039 -32.964,-3.995 -80.196,-4.004 -47.232,0.009 -79.877,3.965 -80.201,4.005 -13.725,2.217 -22.868,6.558 -22.868,20.54 v 6.813 c 0,7.913 6.437,14.35 14.35,14.35 h 88.874 z"
       id="path220"
       inkscape:connector-curvature="0"
       style="fill:#2a2c2e" />
    <path
       d="m 165.443,126.81 -0.7,-0.007 -89.184,-1.911 c -9.084,-0.625 -16.253,-1.119 -22.873,-10.051 -2.688,-3.625 -4.169,-8.238 -4.169,-12.988 v -3.335 c 0,-8.918 2.198,-15.512 6.719,-20.159 4.037,-4.15 9.925,-6.842 18.528,-8.47 0.386,-0.043 38.018,-4.127 91.328,-4.127 53.31,0 90.942,4.084 91.316,4.126 8.615,1.63 14.503,4.321 18.54,8.472 4.521,4.647 6.719,11.241 6.719,20.159 v 3.335 c 0,4.75 -1.48,9.362 -4.168,12.988 -6.621,8.933 -13.79,9.426 -22.866,10.051 z m -0.351,-60.75 c -53.294,0 -90.909,4.083 -91.283,4.124 C 56.295,73.5 48.818,81.974 48.818,98.517 v 3.335 c 0,4.686 1.459,9.235 4.108,12.809 6.539,8.821 13.646,9.311 22.646,9.931 l 89.52,1.918 89.527,-1.918 c 8.992,-0.619 16.1,-1.109 22.64,-9.93 2.648,-3.575 4.107,-8.124 4.107,-12.809 v -3.335 c 0,-16.543 -7.478,-25.017 -25.003,-28.334 -0.362,-0.041 -37.978,-4.124 -91.271,-4.124 z"
       id="path222"
       inkscape:connector-curvature="0"
       style="fill:#3f3f3f" />
    <path
       d="M 165.048,180.775 C 114.272,177.99 80.217,153.393 55.351,135.433 a 816.628,816.628 0 0 0 -7.582,-5.435 c -2.432,-2.107 -5.722,-5.158 -7.66,-7.784 -6.21,-8.41 -7.998,-17.532 -8.403,-23.704 0.069,-0.837 0.131,-1.672 0.193,-2.523 0.718,-9.742 1.611,-21.865 16.633,-30.242 8.759,-6.522 74.456,-9.479 116.5,-9.019 l -0.004,0.3 C 123.025,56.576 57.418,59.503 48.695,65.996 33.798,74.306 32.91,86.34 32.198,96.01 c -0.063,0.853 -0.125,1.688 -0.194,2.504 0.403,6.109 2.179,15.171 8.347,23.523 1.921,2.603 5.194,5.638 7.603,7.726 2.406,1.695 4.916,3.508 7.573,5.427 24.836,17.938 58.85,42.505 109.511,45.287 l 0.099,-0.015 c 50.672,-2.781 84.686,-27.349 109.521,-45.288 a 821.433,821.433 0 0 1 7.586,-5.436 c 2.394,-2.077 5.666,-5.111 7.59,-7.716 6.166,-8.35 7.942,-17.414 8.347,-23.546 -0.069,-0.793 -0.131,-1.629 -0.194,-2.482 -0.712,-9.669 -1.6,-21.704 -16.479,-30.002 -8.739,-6.505 -74.344,-9.432 -116.35,-8.981 l -0.004,-0.3 c 42.056,-0.459 107.742,2.497 116.517,9.03 15.005,8.366 15.898,20.49 16.616,30.231 0.063,0.851 0.124,1.686 0.193,2.501 -0.407,6.195 -2.195,15.318 -8.403,23.727 -1.94,2.628 -5.23,5.678 -7.647,7.774 -2.43,1.713 -4.938,3.525 -7.595,5.444 -24.866,17.96 -58.921,42.558 -109.671,45.343 z"
       id="path224"
       inkscape:connector-curvature="0"
       style="fill:#2a2c2e" />
    <path
       d="m 310.278,105.652 c 0,1.417 -1.003,2.578 -2.243,2.578 h -5.938 c -1.241,0 -2.257,-1.161 -2.257,-2.578 0,-1.417 1.016,-2.578 2.257,-2.578 h 5.938 c 1.241,0 2.243,1.161 2.243,2.578 z"
       id="path226"
       inkscape:connector-curvature="0"
       style="fill:#1b1d1e" />
    <path
       d="m 308.7,105.652 c 0,0.945 -0.699,1.719 -1.564,1.719 h -4.143 c -0.865,0 -1.574,-0.774 -1.574,-1.719 0,-0.945 0.709,-1.719 1.574,-1.719 h 4.143 c 0.865,10e-4 1.564,0.775 1.564,1.719 z"
       id="path228"
       inkscape:connector-curvature="0"
       style="fill:#2e3233" />
    <path
       d="m 302.993,103.074 h 4.121 v 0.859 h -4.121 z m 0,4.297 h 4.121 v 0.859 h -4.121 z"
       id="path230"
       inkscape:connector-curvature="0" />
    <path
       d="m 310.278,97.527 c 0,1.417 -1.003,2.578 -2.243,2.578 h -5.938 c -1.241,0 -2.257,-1.161 -2.257,-2.578 0,-1.417 1.016,-2.578 2.257,-2.578 h 5.938 c 1.241,0 2.243,1.161 2.243,2.578 z"
       id="path232"
       inkscape:connector-curvature="0"
       style="fill:#1b1d1e" />
    <path
       d="m 308.7,97.527 c 0,0.945 -0.699,1.719 -1.564,1.719 h -4.143 c -0.865,0 -1.574,-0.774 -1.574,-1.719 0,-0.945 0.709,-1.719 1.574,-1.719 h 4.143 c 0.865,10e-4 1.564,0.775 1.564,1.719 z"
       id="path234"
       inkscape:connector-curvature="0"
       style="fill:#2e3233" />
    <path
       d="m 302.993,94.949 h 4.121 v 0.859 h -4.121 z m 0,4.297 h 4.121 v 0.859 h -4.121 z"
       id="path236"
       inkscape:connector-curvature="0" />
    <path
       d="m 310.278,89.402 c 0,1.417 -1.003,2.578 -2.243,2.578 h -5.938 c -1.241,0 -2.257,-1.161 -2.257,-2.578 0,-1.417 1.016,-2.578 2.257,-2.578 h 5.938 c 1.241,0 2.243,1.161 2.243,2.578 z"
       id="path238"
       inkscape:connector-curvature="0"
       style="fill:#1b1d1e" />
    <path
       d="m 308.7,89.402 c 0,0.945 -0.699,1.719 -1.564,1.719 h -4.143 c -0.865,0 -1.574,-0.774 -1.574,-1.719 0,-0.945 0.709,-1.719 1.574,-1.719 h 4.143 c 0.865,10e-4 1.564,0.775 1.564,1.719 z"
       id="path240"
       inkscape:connector-curvature="0"
       style="fill:#2e3233" />
    <path
       d="m 302.993,86.824 h 4.121 v 0.859 h -4.121 z m 0,4.297 h 4.121 v 0.859 h -4.121 z"
       id="path242"
       inkscape:connector-curvature="0" />
    <path
       d="m 19.904,105.601 c 0,1.417 1.003,2.578 2.243,2.578 h 5.938 c 1.241,0 2.257,-1.161 2.257,-2.578 0,-1.417 -1.016,-2.578 -2.257,-2.578 h -5.938 c -1.24,-10e-4 -2.243,1.161 -2.243,2.578 z"
       id="path244"
       inkscape:connector-curvature="0"
       style="fill:#1b1d1e" />
    <path
       d="m 21.483,105.601 c 0,0.945 0.699,1.719 1.564,1.719 h 4.143 c 0.865,0 1.574,-0.774 1.574,-1.719 0,-0.945 -0.709,-1.719 -1.574,-1.719 h -4.143 c -0.865,0 -1.564,0.774 -1.564,1.719 z"
       id="path246"
       inkscape:connector-curvature="0"
       style="fill:#2e3233" />
    <path
       d="m 23.068,103.022 h 4.121 v 0.859 h -4.121 z m 0,4.297 h 4.121 v 0.859 h -4.121 z"
       id="path248"
       inkscape:connector-curvature="0" />
    <path
       d="m 19.904,97.476 c 0,1.417 1.003,2.578 2.243,2.578 h 5.938 c 1.241,0 2.257,-1.161 2.257,-2.578 0,-1.417 -1.016,-2.578 -2.257,-2.578 h -5.938 c -1.24,-10e-4 -2.243,1.161 -2.243,2.578 z"
       id="path250"
       inkscape:connector-curvature="0"
       style="fill:#1b1d1e" />
    <path
       d="m 21.483,97.476 c 0,0.945 0.699,1.719 1.564,1.719 h 4.143 c 0.865,0 1.574,-0.774 1.574,-1.719 0,-0.945 -0.709,-1.719 -1.574,-1.719 h -4.143 c -0.865,0 -1.564,0.774 -1.564,1.719 z"
       id="path252"
       inkscape:connector-curvature="0"
       style="fill:#2e3233" />
    <path
       d="m 23.068,94.897 h 4.121 v 0.859 h -4.121 z m 0,4.297 h 4.121 v 0.859 h -4.121 z"
       id="path254"
       inkscape:connector-curvature="0" />
    <path
       d="m 19.904,89.351 c 0,1.417 1.003,2.578 2.243,2.578 h 5.938 c 1.241,0 2.257,-1.161 2.257,-2.578 0,-1.417 -1.016,-2.578 -2.257,-2.578 h -5.938 c -1.24,-10e-4 -2.243,1.161 -2.243,2.578 z"
       id="path256"
       inkscape:connector-curvature="0"
       style="fill:#1b1d1e" />
    <path
       d="m 21.483,89.351 c 0,0.945 0.699,1.719 1.564,1.719 h 4.143 c 0.865,0 1.574,-0.774 1.574,-1.719 0,-0.945 -0.709,-1.719 -1.574,-1.719 h -4.143 c -0.865,0 -1.564,0.774 -1.564,1.719 z"
       id="path258"
       inkscape:connector-curvature="0"
       style="fill:#2e3233" />
    <path
       d="m 23.068,86.772 h 4.121 v 0.859 h -4.121 z m 0,4.297 h 4.121 v 0.859 h -4.121 z"
       id="path260"
       inkscape:connector-curvature="0" />
    <path
       d="m 315.062,126.994 c 0,0.486 -0.175,21.454 -1.354,30.238 -1.194,8.896 1.06,19.646 -16.19,27.076 -17.257,7.438 -43.273,13.929 -80.567,18.188 -37.293,4.253 -83.427,3.847 -119.86,-2.325 -36.425,-6.172 -56.677,-10.918 -67.897,-16.262 -11.993,-5.702 -13.323,-15.792 -13.522,-25.443 -0.104,-4.962 -0.445,-30.134 -0.549,-37.373 0.087,6.53 0.478,11.587 1.123,13.522 l 0.35,1.067 c 2.023,6.092 3.775,11.356 12.432,14.51 3.002,1.091 10.178,3.13 18.491,5.487 14.876,4.229 35.239,10.018 41.689,13.299 10.289,5.248 34.379,15.29 41.036,17.496 l 6.706,2.214 c 0.478,0.184 11.817,4.38 28.303,4.38 16.492,0 27.697,-4.196 28.104,-4.355 l 6.769,-2.238 c 6.658,-2.206 30.739,-12.248 41.028,-17.496 6.451,-3.281 26.821,-9.07 41.689,-13.299 8.314,-2.357 15.497,-4.396 18.5,-5.487 8.656,-3.153 10.4,-8.417 12.423,-14.51 l 0.358,-1.067 c 0.428,-1.299 0.747,-4.007 0.938,-7.622 z"
       id="path262"
       inkscape:connector-curvature="0"
       style="fill:#171819" />
    <path
       d="m 120.543,45.992 c -21.955,0.995 -39.094,2.509 -50.896,3.75 -22.76,2.388 -39.316,0.478 -48.275,23.34 -4.969,12.668 -5.973,53.547 -3.782,59.914 2.189,6.366 3.408,11.244 11.81,14.229 8.394,2.984 50.203,13.369 60.356,18.422 10.153,5.053 34.044,14.801 40.813,16.989 l 6.769,2.188 c 0,0 11.364,4.178 27.754,4.178 16.389,0 27.753,-4.178 27.753,-4.178 l 6.769,-2.188 c 6.77,-2.188 30.66,-11.937 40.813,-16.989 10.153,-5.054 51.963,-15.438 60.356,-18.422 8.401,-2.984 9.62,-7.862 11.81,-14.229 2.19,-6.366 1.187,-47.245 -3.782,-59.914 -8.959,-22.863 -25.516,-20.953 -48.275,-23.34 -11.802,-1.241 -29.124,-2.756 -51.08,-3.75 a 988.541,988.541 0 0 0 -44.539,-0.988 h -0.079 c -16.303,0 -31.131,0.391 -44.295,0.988 m -0.005,-1.595 A 987.493,987.493 0 0 1 165.042,43.4 h 0.079 c 16.302,0 31.13,0.39 44.294,0.987 h 0.018 c 17.567,0.804 34.705,2.109 51.27,3.883 2.931,0.318 5.758,0.557 8.489,0.788 18.404,1.576 32.938,2.817 41.108,24.128 3.583,9.374 5.08,32.619 4.93,48.176 0,0.255 -0.009,0.501 -0.009,0.756 -0.087,6.525 -0.478,11.579 -1.122,13.513 l -0.351,1.066 c -2.023,6.088 -3.775,11.348 -12.432,14.499 -3.002,1.09 -10.177,3.127 -18.491,5.483 -14.876,4.226 -35.239,10.011 -41.689,13.289 -10.289,5.244 -34.379,15.279 -41.036,17.483 l -6.706,2.213 c -0.478,0.183 -11.817,4.376 -28.302,4.376 -16.485,0 -27.825,-4.193 -28.303,-4.376 l -6.706,-2.213 c -6.657,-2.204 -30.747,-12.239 -41.036,-17.483 -6.45,-3.278 -26.813,-9.063 -41.689,-13.289 -8.313,-2.355 -15.489,-4.393 -18.491,-5.483 -8.656,-3.151 -10.408,-8.411 -12.432,-14.499 l -0.351,-1.066 c -0.645,-1.934 -1.035,-6.987 -1.122,-13.513 0,-0.254 -0.009,-0.501 -0.009,-0.756 -0.15,-15.557 1.347,-38.802 4.93,-48.176 8.171,-21.311 22.704,-22.552 41.108,-24.128 2.731,-0.231 5.559,-0.47 8.489,-0.788 16.565,-1.774 33.491,-3.069 51.058,-3.873"
       id="path264"
       inkscape:connector-curvature="0"
       style="fill:#0b0c0d" />
    <path
       d="m 228.769,163.362 -0.024,0.016 -0.127,0.048 a 149.308,149.308 0 0 1 -5.83,2.389 c -30.261,11.683 -43.911,15.131 -57.394,15.131 -9.27,0 -18.618,-1.632 -33.383,-6.442 -0.008,-0.008 -28.446,-10.464 -30.597,-11.403 0.526,-1.378 1.983,-4.954 4.476,-8.999 l 0.017,-0.032 c 3.01,-4.881 7.525,-10.432 13.705,-13.602 0.366,-0.183 0.74,-0.367 1.115,-0.534 12.08,-5.439 31.719,-5.041 44.922,-5.041 13.204,0 32.587,-0.398 44.668,5.041 0.374,0.167 0.749,0.351 1.115,0.534 8.25,4.252 13.132,12.885 15.585,18.42 a 55.796,55.796 0 0 1 1.752,4.474 z"
       id="path266"
       inkscape:connector-curvature="0"
       style="fill:#c5baba" />
    <path
       d="m 164.609,179.095 c -29.103,0 -51.413,-14.14 -51.413,-25.837 0,-11.697 22.311,-16.521 51.413,-16.521 29.102,0 51.412,4.824 51.412,16.521 0.001,11.697 -22.31,25.837 -51.412,25.837 z"
       id="path268"
       inkscape:connector-curvature="0"
       style="fill:#2f3134" />
    <path
       d="m 194.524,173.672 c -0.075,-4.382 -5.236,-8.137 -11.502,-8.137 h -36.825 c -6.265,0 -11.449,3.745 -11.525,8.127 l -0.968,-0.391 c 0.086,-4.923 5.687,-8.736 12.493,-8.736 h 36.825 c 6.808,0 12.41,3.857 12.495,8.781 z"
       id="path270"
       inkscape:connector-curvature="0"
       style="fill:#c5baba" />
    <path
       d="m 150.354,170.348 c 0,-0.789 0.282,-1.467 0.845,-2.032 0.563,-0.566 1.191,-0.85 1.886,-0.85 h 3.942 v 1.213 h -3.64 c -0.56,0 -1.002,0.165 -1.329,0.496 a 1.61,1.61 0 0 0 -0.49,1.173 c 0,0.458 0.163,0.851 0.49,1.178 0.327,0.326 0.77,0.49 1.329,0.49 h 0.606 c 0.479,0 0.852,0.133 1.117,0.399 0.267,0.266 0.399,0.588 0.399,0.965 0,0.371 -0.133,0.69 -0.399,0.961 -0.266,0.27 -0.639,0.404 -1.117,0.404 h -3.64 v -1.213 h 3.64 c 0.202,0 0.304,-0.051 0.304,-0.152 0,-0.101 -0.102,-0.151 -0.304,-0.151 h -0.909 c -0.694,0 -1.323,-0.281 -1.886,-0.845 a 2.777,2.777 0 0 1 -0.844,-2.036 z m 1.516,0 c 0,-0.371 0.133,-0.691 0.399,-0.961 0.266,-0.27 0.639,-0.404 1.117,-0.404 h 3.64 v 1.213 h -3.64 c -0.202,0 -0.303,0.051 -0.303,0.152 0,0.101 0.101,0.151 0.303,0.151 h 0.91 c 0.694,0 1.323,0.281 1.886,0.845 0.563,0.562 0.844,1.241 0.844,2.036 0,0.789 -0.281,1.466 -0.844,2.032 -0.563,0.566 -1.191,0.85 -1.886,0.85 h -3.943 v -1.213 h 3.64 c 0.56,0 1.003,-0.165 1.33,-0.496 0.327,-0.33 0.49,-0.721 0.49,-1.173 0,-0.458 -0.163,-0.851 -0.49,-1.178 -0.327,-0.327 -0.771,-0.49 -1.33,-0.49 h -0.606 c -0.479,0 -0.851,-0.133 -1.117,-0.399 -0.266,-0.266 -0.4,-0.588 -0.4,-0.965 z m 5.763,-0.153 c 0,-1.819 0.91,-2.729 2.73,-2.729 h 3.639 v 1.213 h -3.639 c -1.012,0 -1.517,0.506 -1.517,1.517 v 3.337 c 0,1.011 0.505,1.517 1.517,1.517 h 3.639 v 1.213 h -3.639 c -1.82,0 -2.73,-0.91 -2.73,-2.729 z m 1.517,1.517 v -1.517 c 0,-0.809 0.404,-1.213 1.214,-1.213 h 3.639 v 1.213 h -3.336 c -0.202,0 -0.303,0.102 -0.303,0.304 h 2.729 v 1.213 z m 0,0.304 h 3.943 v 1.213 h -2.729 c 0,0.202 0.101,0.304 0.303,0.304 h 3.336 v 1.213 h -3.639 c -0.81,0 -1.214,-0.404 -1.214,-1.213 z m 5.459,-1.821 c 0,-1.819 0.909,-2.729 2.729,-2.729 h 3.64 v 1.213 h -3.64 c -1.011,0 -1.517,0.506 -1.517,1.517 v 3.337 c 0,1.011 0.506,1.517 1.517,1.517 h 2.427 v -3.337 h -2.124 V 170.5 h 3.337 v 5.763 h -3.64 c -1.82,0 -2.729,-0.91 -2.729,-2.729 z m 1.517,0 c 0,-0.809 0.404,-1.213 1.213,-1.213 h 3.64 v 1.213 h -3.337 c -0.202,0 -0.303,0.102 -0.303,0.304 v 2.729 c 0,0.202 0.101,0.304 0.303,0.304 h 0.607 v -0.304 h -0.607 v -1.213 h 1.82 v 2.729 h -2.123 c -0.809,0 -1.213,-0.404 -1.213,-1.213 z m 9.048,4.854 h 3.589 l -2.426,-6.168 c -0.067,-0.134 -0.202,-0.202 -0.404,-0.202 a 0.48,0.48 0 0 0 -0.404,0.202 l -2.73,7.381 h -1.213 l 2.831,-7.785 c 0.337,-0.674 0.843,-1.011 1.517,-1.011 0.774,0 1.28,0.337 1.517,1.011 l 2.932,7.785 h -5.207 v -1.213 z m 0,-0.304 v -0.657 l -0.859,2.174 h -1.213 l 2.629,-7.077 c 0.033,-0.135 0.101,-0.202 0.202,-0.202 0.101,0 0.168,0.067 0.202,0.202 l 2.123,5.561 h -3.084 z m 0.759,-2.629 -0.557,1.416 h 1.112 z"
       id="path272"
       inkscape:connector-curvature="0"
       style="fill:#c5baba" />
    <path
       d="m 135.308,152.925 7.487,7.202 h 54.448 v -4.603 l -3.037,-2.599 z m 10,-9.653 v 1.95 c 0,0.37 -0.246,0.635 -0.737,0.797 -0.491,0.162 -1.132,0.243 -1.921,0.243 -0.832,0 -1.5,-0.078 -2.004,-0.233 -0.505,-0.155 -0.757,-0.408 -0.757,-0.759 v -1.998 h 2.06 v 1.892 c 0,0.141 0.066,0.244 0.2,0.309 0.133,0.064 0.346,0.097 0.639,0.097 0.244,0 0.444,-0.023 0.6,-0.07 0.156,-0.046 0.249,-0.1 0.28,-0.159 0.03,-0.059 0.046,-0.174 0.046,-0.345 v -1.724 z m 2.699,1.875 v 1.07 h -1.829 v -2.944 h 2.51 c 0.625,0 1.102,0.036 1.427,0.108 0.325,0.072 0.584,0.182 0.774,0.33 0.191,0.148 0.287,0.314 0.287,0.498 0,0.28 -0.196,0.507 -0.586,0.68 -0.391,0.172 -0.911,0.259 -1.563,0.259 h -1.02 z m -0.025,-0.632 h 0.603 c 0.531,0 0.796,-0.098 0.796,-0.293 0,-0.184 -0.245,-0.276 -0.735,-0.276 h -0.663 v 0.569 z m 8.079,0.999 v 0.703 h -4.42 v -2.945 h 4.42 v 0.68 h -2.652 v 0.427 h 2.144 v 0.654 h -2.144 v 0.481 z m 5.456,0.703 h -1.961 l -0.842,-1.126 h -0.558 v 1.126 h -1.769 v -2.944 h 3.01 c 0.664,0 1.18,0.08 1.547,0.238 0.367,0.159 0.551,0.369 0.551,0.629 0,0.169 -0.067,0.32 -0.202,0.45 -0.136,0.13 -0.408,0.245 -0.819,0.344 z m -3.361,-1.756 h 0.756 c 0.223,0 0.4,-0.023 0.536,-0.071 0.135,-0.047 0.202,-0.117 0.202,-0.209 0,-0.188 -0.227,-0.283 -0.68,-0.283 h -0.814 z m -21.493,1.805 c -0.462,0 -0.865,-0.027 -1.21,-0.081 -0.345,-0.054 -0.633,-0.13 -0.865,-0.227 a 1.452,1.452 0 0 1 -0.53,-0.347 0.729,0.729 0 0 1 -0.197,-0.442 h 1.17 c 0.02,0.103 0.075,0.193 0.168,0.269 0.092,0.076 0.209,0.139 0.351,0.188 0.142,0.049 0.305,0.086 0.487,0.11 0.182,0.024 0.378,0.035 0.585,0.035 0.195,0 0.374,-0.009 0.536,-0.027 0.161,-0.018 0.3,-0.043 0.414,-0.075 a 0.814,0.814 0 0 0 0.267,-0.12 l 0.094,-0.159 -0.092,-0.153 c -0.062,-0.042 -0.16,-0.08 -0.296,-0.113 -0.136,-0.033 -0.314,-0.063 -0.536,-0.091 a 25.93,25.93 0 0 0 -0.816,-0.085 c -0.369,-0.037 -0.687,-0.08 -0.953,-0.129 -0.267,-0.049 -0.485,-0.107 -0.657,-0.174 -0.172,-0.067 -0.298,-0.144 -0.381,-0.231 a 0.427,0.427 0 0 1 -0.123,-0.301 c 0,-0.123 0.057,-0.235 0.17,-0.337 0.113,-0.102 0.274,-0.191 0.483,-0.266 0.208,-0.075 0.457,-0.133 0.746,-0.175 0.289,-0.042 0.611,-0.063 0.966,-0.063 0.368,0 0.705,0.022 1.01,0.068 0.306,0.045 0.568,0.11 0.789,0.195 0.222,0.085 0.396,0.189 0.521,0.312 a 0.624,0.624 0 0 1 0.202,0.418 h -1.157 c -0.085,-0.33 -0.528,-0.495 -1.331,-0.495 -0.392,0 -0.69,0.03 -0.897,0.089 -0.207,0.059 -0.311,0.141 -0.311,0.244 l 0.067,0.11 c 0.046,0.031 0.118,0.06 0.218,0.086 0.099,0.026 0.227,0.05 0.382,0.071 0.156,0.022 0.345,0.043 0.566,0.063 0.192,0.018 0.391,0.038 0.594,0.059 0.202,0.021 0.401,0.048 0.595,0.078 0.194,0.031 0.378,0.068 0.549,0.112 0.172,0.044 0.323,0.098 0.453,0.16 a 0.97,0.97 0 0 1 0.309,0.221 0.433,0.433 0 0 1 0.112,0.297 c 0,0.134 -0.061,0.256 -0.183,0.367 -0.122,0.111 -0.291,0.207 -0.508,0.286 -0.218,0.08 -0.477,0.142 -0.776,0.186 a 6.7,6.7 0 0 1 -0.985,0.067 z"
       id="path274"
       inkscape:connector-curvature="0"
       style="fill:#f2ba5c" />
    <path
       d="m 150.423,158.907 v -2.241 l 0.307,-0.113 c 3.362,-1.249 8.802,-4.262 9.048,-5.213 0.038,-0.148 -0.001,-0.299 -0.116,-0.448 -0.227,-0.292 -0.68,-0.497 -1.103,-0.497 -0.571,0 -1.068,0.358 -1.181,0.853 l -0.026,0.349 -0.431,0.002 h -6.637 l 0.154,-0.589 c 0.681,-2.598 3.944,-4.276 8.315,-4.276 4.904,0 8.33,1.755 8.33,4.268 0,1.799 -1.809,3.252 -5.521,4.425 h 5.228 v 3.48 z"
       id="path276"
       inkscape:connector-curvature="0"
       style="fill:#f2ba5c" />
    <path
       d="m 160.162,151.457 c 0.212,-0.819 -0.749,-1.532 -1.673,-1.532 -0.807,0 -1.48,0.522 -1.639,1.218 v -0.014 h -6.027 c 0.588,-2.242 3.52,-3.926 7.861,-3.926 4.341,0 7.86,1.511 7.86,3.798 0,2.023 -2.882,3.38 -6.441,4.341 v 0.554 h 6.147 v 2.541 h -15.428 v -1.444 c 2.738,-1.015 8.988,-4.173 9.34,-5.536 z"
       id="path278"
       inkscape:connector-curvature="0"
       style="fill:#2f3134" />
    <path
       d="m 141.529,159.438 c -2.132,0 -5.969,-0.262 -7.713,-2.013 -0.585,-0.588 -0.881,-1.284 -0.877,-2.071 v -0.465 h 6.862 l 0.104,0.383 c 0.068,0.371 0.677,0.771 1.542,0.771 1.003,0 1.752,-0.446 1.752,-0.845 0,-0.399 -0.749,-0.844 -1.752,-0.844 h -0.069 l -0.251,0.009 -0.532,0.071 v -3.128 l 0.683,0.098 0.17,0.006 c 0.789,0 1.38,-0.388 1.38,-0.734 0,-0.346 -0.591,-0.734 -1.38,-0.734 -0.749,0 -1.315,0.349 -1.375,0.674 l -0.1,0.381 -0.417,0.003 h -5.945 v -0.47 c 0,-0.972 0.948,-2.071 2.359,-2.735 1.369,-0.646 3.298,-0.973 5.733,-0.973 3.954,0 7.956,1.114 7.956,3.244 0,0.891 -0.779,1.787 -2.013,2.414 1.796,0.637 2.473,1.864 2.473,2.876 0,2.29 -3.773,4.082 -8.59,4.082 z"
       id="path280"
       inkscape:connector-curvature="0"
       style="fill:#f2ba5c" />
    <path
       d="m 133.409,155.359 h 6.019 l 0.014,-0.002 c 0.12,0.651 0.972,1.156 2.005,1.156 1.228,0 2.222,-0.589 2.222,-1.314 0,-0.725 -0.994,-1.313 -2.222,-1.313 -0.14,0 -0.251,-0.004 -0.382,0.013 v -2.05 l 0.009,0.008 c 0.12,0.016 0.245,0.024 0.373,0.024 1.021,0 1.85,-0.539 1.85,-1.204 0,-0.665 -0.828,-1.204 -1.85,-1.204 -0.947,0 -1.728,0.463 -1.837,1.06 l -0.014,-0.002 h -5.515 c 0,-0.738 0.797,-1.702 2.089,-2.31 1.39,-0.655 3.352,-0.927 5.533,-0.927 4.21,0 7.486,1.242 7.486,2.774 0,0.943 -1.242,1.776 -3.179,2.277 v 0.496 c 2.454,0.294 3.639,1.259 3.639,2.517 0,1.994 -3.636,3.611 -8.12,3.611 -4.484,0 -8.131,-1.096 -8.12,-3.611"
       id="path282"
       inkscape:connector-curvature="0"
       style="fill:#2f3134" />
    <path
       d="m 196.245,159.733 h -18.142 l -0.068,-0.066 -17.143,-16.629 h 18.701 l 16.815,16.317 -0.164,0.168 v 0.21 z m -17.951,-0.469 h 17.347 l -16.242,-15.756 h -17.347 z"
       id="path284"
       inkscape:connector-curvature="0"
       style="fill:#f2ba5c" />
    <path
       d="m 196.245,159.498 h -18.047 l -16.725,-16.226 h 18.046 v 0.025 l 16.726,16.225"
       id="path286"
       inkscape:connector-curvature="0"
       style="fill:#f2ba5c" />
    <path
       d="m 196.245,159.498 h -18.047 l -16.725,-16.226 h 18.022 l 16.75,16.25"
       id="path288"
       inkscape:connector-curvature="0"
       style="fill:#2f3134" />
    <path
       d="m 182.649,158.907 -2.697,-2.445 -2.595,2.445 h -10.122 l 7.599,-7.129 -7.619,-6.982 h 10.184 l 2.493,2.255 2.382,-2.255 h 10.107 l -7.37,6.938 7.836,7.173 z"
       id="path290"
       inkscape:connector-curvature="0"
       style="fill:#f2ba5c" />
    <path
       d="m 175.526,151.774 -7.103,-6.508 h 8.795 l 2.681,2.425 2.562,-2.425 h 8.735 l -6.876,6.473 7.317,6.699 h -8.807 l -2.884,-2.616 -2.776,2.616 h -8.747 z"
       id="path292"
       inkscape:connector-curvature="0"
       style="fill:#2f3134" />
  </g>
</svg>
