<?xml version="1.0" encoding="UTF-8" standalone="no"?>
<svg
   xmlns:dc="http://purl.org/dc/elements/1.1/"
   xmlns:cc="http://creativecommons.org/ns#"
   xmlns:rdf="http://www.w3.org/1999/02/22-rdf-syntax-ns#"
   xmlns:svg="http://www.w3.org/2000/svg"
   xmlns="http://www.w3.org/2000/svg"
   xmlns:sodipodi="http://sodipodi.sourceforge.net/DTD/sodipodi-0.dtd"
   xmlns:inkscape="http://www.inkscape.org/namespaces/inkscape"
   viewBox="0 0 218.326 147.272"
   version="1.1"
   id="svg36"
   sodipodi:docname="game.svg"
   width="218.326"
   height="147.272"
   inkscape:version="0.92.4 5da689c313, 2019-01-14">
  <metadata
     id="metadata42">
    <rdf:RDF>
      <cc:Work
         rdf:about="">
        <dc:format>image/svg+xml</dc:format>
        <dc:type
           rdf:resource="http://purl.org/dc/dcmitype/StillImage" />
      </cc:Work>
    </rdf:RDF>
  </metadata>
  <defs
     id="defs40" />
  <sodipodi:namedview
     pagecolor="#ffffff"
     bordercolor="#666666"
     borderopacity="1"
     objecttolerance="10"
     gridtolerance="10"
     guidetolerance="10"
     inkscape:pageopacity="0"
     inkscape:pageshadow="2"
     inkscape:window-width="471"
     inkscape:window-height="442"
     id="namedview38"
     showgrid="false"
     inkscape:zoom="1.241263"
     inkscape:cx="109.163"
     inkscape:cy="73.635998"
     inkscape:window-x="0"
     inkscape:window-y="0"
     inkscape:window-maximized="0"
     inkscape:current-layer="svg36">
    <inkscape:grid
       type="xygrid"
       id="grid44"
       originx="0"
       originy="-3.1738281e-06" />
  </sodipodi:namedview>
  <path
     d="m 109.164,0 h 92.697 c 9.056,0 16.465,7.409 16.465,16.465 v 119.133 c 0,6.421 -5.253,11.674 -11.674,11.674 H 11.674 C 5.253,147.272 0,142.018 0,135.598 V 16.465 C 0,7.409 7.409,0 16.465,0 h 92.697"
     id="path2"
     inkscape:connector-curvature="0"
     style="fill:#2c2c2d" />
  <g
     id="g6"
     style="fill:#121115">
    <path
       d="m 0,15.845 v 122.374 a 0.984,0.984 0 0 0 1.095,0.975 58.851,58.851 0 0 0 16.234,-4.381 10.564,10.564 0 0 0 4.496,-3.65 10.48,10.48 0 0 0 1.769,-7.541 L 10.543,26.911 C 10.125,24.116 7.753,20.979 5.46,19.328 L 0,15.845 m 218.326,0 v 122.374 a 0.984,0.984 0 0 1 -1.095,0.975 58.851,58.851 0 0 1 -16.234,-4.381 10.564,10.564 0 0 1 -4.496,-3.65 10.48,10.48 0 0 1 -1.769,-7.541 l 13.051,-96.711 c 0.418,-2.795 2.79,-5.932 5.083,-7.583 l 5.46,-3.483"
       id="path4"
       inkscape:connector-curvature="0" />
  </g>
  <path
     d="m 109.163,125.105 c 17.011,0.179 53.541,-4.833 53.541,-4.833 25.699,-3.458 27.386,-13 28.636,-34.667 L 195.664,12 c 0,-6.6 -5.4,-12 -12,-12 h -149 c -6.6,0 -12,5.4 -12,12 l 4.323,73.605 c 1.25,21.667 2.937,31.208 28.636,34.667 -10e-4,0 36.529,5.012 53.54,4.833 z"
     id="path8"
     inkscape:connector-curvature="0"
     style="fill:#121115" />
  <path
     d="m 109.121,17.772 h 67.833 c 2.887,0 5.25,2.362 5.25,5.25 V 94.73 c 0,6.76 -5.531,12.292 -12.292,12.292 h -60.792 0.083 -60.79 c -6.76,0 -12.292,-5.531 -12.292,-12.292 V 23.022 c 0,-2.888 2.362,-5.25 5.25,-5.25 h 67.833"
     id="path10"
     inkscape:connector-curvature="0"
     style="fill:#232122" />
  <path
     d="m 55.621,18.51 v 89 -0.25 h -7.209 c -6.76,0 -12.292,-5.531 -12.292,-12.292 V 23.26 c 0,-2.887 2.363,-5.25 5.25,-5.25 h 14.25"
     id="path12"
     inkscape:connector-curvature="0"
     style="fill:#fbe627" />
  <g
     id="g16"
     style="fill:#121115">
    <path
       d="m 55.905,147.272 a 1.568,1.568 0 0 1 -1.563,-1.563 v -10.375 c 0,-0.859 0.703,-1.563 1.563,-1.563 0.859,0 1.563,0.703 1.563,1.563 v 10.375 a 1.568,1.568 0 0 1 -1.563,1.563 z m 21.25,0 a 1.568,1.568 0 0 1 -1.563,-1.563 v -10.375 c 0,-0.859 0.703,-1.563 1.563,-1.563 0.859,0 1.563,0.703 1.563,1.563 v 10.375 a 1.568,1.568 0 0 1 -1.563,1.563 z m 21.516,0 a 1.568,1.568 0 0 1 -1.563,-1.563 v -10.375 c 0,-0.859 0.703,-1.563 1.563,-1.563 0.859,0 1.563,0.703 1.563,1.563 v 10.375 c 0,0.86 -0.703,1.563 -1.563,1.563 z m 21.25,0 a 1.568,1.568 0 0 1 -1.563,-1.563 v -10.375 c 0,-0.859 0.703,-1.563 1.563,-1.563 0.859,0 1.563,0.703 1.563,1.563 v 10.375 c 0,0.86 -0.703,1.563 -1.563,1.563 z m 21.25,0 a 1.568,1.568 0 0 1 -1.563,-1.563 v -10.375 c 0,-0.859 0.703,-1.563 1.563,-1.563 0.859,0 1.562,0.703 1.562,1.563 v 10.375 a 1.566,1.566 0 0 1 -1.562,1.563 z m 21.25,0 a 1.568,1.568 0 0 1 -1.563,-1.563 v -10.375 c 0,-0.859 0.703,-1.563 1.563,-1.563 0.859,0 1.562,0.703 1.562,1.563 v 10.375 a 1.566,1.566 0 0 1 -1.562,1.563 z"
       id="path14"
       inkscape:connector-curvature="0" />
  </g>
  <path
     d="m 46.981,89.708 6.515,-6.775 V 33.669 h -4.164 l -2.351,2.748 z M 38.247,80.66 h 1.764 c 0.334,0 0.575,0.223 0.721,0.667 0.146,0.445 0.22,1.024 0.22,1.739 0,0.752 -0.07,1.357 -0.211,1.813 -0.141,0.456 -0.369,0.685 -0.687,0.685 H 38.247 V 83.7 h 1.712 c 0.127,0 0.22,-0.06 0.279,-0.181 0.058,-0.121 0.088,-0.313 0.088,-0.578 0,-0.221 -0.021,-0.402 -0.063,-0.543 -0.042,-0.141 -0.09,-0.225 -0.143,-0.253 -0.053,-0.028 -0.157,-0.042 -0.312,-0.042 H 38.249 V 80.66 Z m 1.696,-2.442 h 0.968 v 1.655 h -2.664 v -2.271 c 0,-0.566 0.032,-0.996 0.098,-1.291 0.065,-0.295 0.165,-0.529 0.299,-0.701 0.134,-0.172 0.284,-0.259 0.451,-0.259 0.254,0 0.459,0.177 0.615,0.53 0.156,0.353 0.234,0.825 0.234,1.414 v 0.923 z m -0.572,0.023 v -0.545 c 0,-0.48 -0.088,-0.72 -0.265,-0.72 -0.166,0 -0.25,0.222 -0.25,0.666 v 0.6 h 0.515 z m 0.903,-7.31 h 0.636 v 4 h -2.664 v -4 h 0.615 v 2.399 h 0.386 v -1.94 h 0.591 v 1.94 h 0.435 v -2.399 z m 0.637,-4.936 v 1.774 l -1.019,0.761 v 0.505 h 1.019 v 1.6 h -2.664 v -2.723 c 0,-0.601 0.072,-1.068 0.216,-1.4 0.144,-0.332 0.334,-0.498 0.569,-0.498 0.153,0 0.289,0.061 0.407,0.183 0.118,0.122 0.221,0.369 0.311,0.741 z m -1.589,3.04 v -0.684 c 0,-0.201 -0.021,-0.363 -0.065,-0.485 -0.043,-0.122 -0.106,-0.183 -0.189,-0.183 -0.171,0 -0.256,0.205 -0.256,0.615 v 0.737 z m 1.633,19.446 c 0,0.418 -0.024,0.783 -0.073,1.095 -0.049,0.312 -0.117,0.573 -0.205,0.783 -0.088,0.21 -0.192,0.37 -0.314,0.479 a 0.66,0.66 0 0 1 -0.4,0.179 v -1.058 a 0.416,0.416 0 0 0 0.243,-0.152 c 0.069,-0.083 0.125,-0.189 0.17,-0.318 0.045,-0.128 0.078,-0.275 0.099,-0.441 0.021,-0.166 0.032,-0.342 0.032,-0.529 0,-0.177 -0.008,-0.339 -0.024,-0.485 a 2.355,2.355 0 0 0 -0.068,-0.375 0.725,0.725 0 0 0 -0.108,-0.241 c -0.043,-0.056 -0.091,-0.085 -0.143,-0.085 -0.054,0 -0.1,0.028 -0.138,0.083 a 0.842,0.842 0 0 0 -0.102,0.267 c -0.03,0.123 -0.057,0.285 -0.082,0.485 -0.025,0.2 -0.05,0.447 -0.077,0.739 a 10.28,10.28 0 0 1 -0.117,0.862 3.373,3.373 0 0 1 -0.157,0.595 0.926,0.926 0 0 1 -0.209,0.344 0.384,0.384 0 0 1 -0.272,0.112 c -0.111,0 -0.213,-0.051 -0.305,-0.154 A 1.292,1.292 0 0 1 38.465,90.229 3.561,3.561 0 0 1 38.307,89.554 6.117,6.117 0 0 1 38.25,88.68 c 0,-0.333 0.021,-0.638 0.061,-0.914 0.041,-0.276 0.1,-0.514 0.176,-0.714 0.076,-0.2 0.171,-0.357 0.282,-0.472 a 0.562,0.562 0 0 1 0.378,-0.183 v 1.047 c -0.299,0.077 -0.448,0.478 -0.448,1.205 0,0.354 0.027,0.625 0.08,0.812 0.054,0.187 0.127,0.281 0.221,0.281 0.038,0 0.071,-0.021 0.099,-0.062 a 0.667,0.667 0 0 0 0.078,-0.196 c 0.024,-0.09 0.045,-0.205 0.065,-0.346 0.02,-0.141 0.039,-0.312 0.057,-0.512 0.016,-0.175 0.034,-0.354 0.054,-0.537 0.02,-0.183 0.043,-0.363 0.071,-0.539 0.028,-0.176 0.061,-0.341 0.101,-0.497 a 2.3,2.3 0 0 1 0.144,-0.41 0.856,0.856 0 0 1 0.2,-0.279 0.393,0.393 0 0 1 0.269,-0.102 c 0.121,0 0.232,0.055 0.332,0.165 0.1,0.11 0.187,0.264 0.259,0.46 0.072,0.196 0.128,0.43 0.169,0.702 0.037,0.275 0.057,0.572 0.057,0.892 z m 4.339,-50.347 v 0.48 h 1.194 v 0.289 h -1.194 v 0.478 h -0.248 v -1.247 z m 1.194,-1.705 v 0.28 h -0.923 l 0.923,0.333 v 0.242 l -0.923,0.33 h 0.923 v 0.279 h -1.442 v -0.374 l 1.028,-0.357 -1.028,-0.359 V 36.43 h 1.442 z"
     id="path18"
     inkscape:connector-curvature="0" />
  <path
     d="m 52.393,76.032 h -2.028 l -0.103,-0.277 c -1.129,-3.042 -3.856,-7.964 -4.717,-8.186 -0.134,-0.034 -0.271,10e-4 -0.405,0.105 -0.264,0.205 -0.449,0.615 -0.449,0.997 0,0.517 0.324,0.967 0.771,1.068 l 0.316,0.024 0.002,0.39 v 6.005 l -0.533,-0.139 c -2.351,-0.616 -3.869,-3.569 -3.869,-7.524 0,-4.438 1.588,-7.538 3.862,-7.538 1.628,0 2.942,1.637 4.003,4.995 v -4.73 h 3.149 v 14.81 z"
     id="path20"
     inkscape:connector-curvature="0" />
  <path
     d="m 45.652,67.22 c -0.741,-0.192 -1.386,0.678 -1.386,1.514 0,0.73 0.473,1.339 1.102,1.482 h -0.013 v 5.454 c -2.028,-0.531 -3.552,-3.184 -3.552,-7.112 0,-3.928 1.367,-7.112 3.437,-7.112 1.831,0 3.058,2.607 3.928,5.828 h 0.501 V 61.71 h 2.299 V 75.669 H 50.661 C 49.742,73.194 46.886,67.538 45.652,67.22 Z"
     id="path22"
     inkscape:connector-curvature="0"
     style="fill:#ffffff" />
  <path
     d="m 52.873,84.079 c 0,1.929 -0.236,5.4 -1.821,6.978 -0.532,0.53 -1.162,0.797 -1.874,0.794 h -0.421 v -6.208 l 0.346,-0.094 c 0.336,-0.062 0.698,-0.613 0.698,-1.396 0,-0.907 -0.403,-1.585 -0.764,-1.585 -0.361,0 -0.764,0.678 -0.764,1.585 v 0.062 c 0,0.079 -0.002,0.148 0.009,0.228 l 0.064,0.481 h -2.83 l 0.088,-0.618 c 0.004,-0.05 0.005,-0.101 0.005,-0.153 0,-0.715 -0.351,-1.249 -0.664,-1.249 -0.313,0 -0.664,0.534 -0.664,1.249 0,0.677 0.316,1.19 0.61,1.244 l 0.344,0.09 0.002,0.377 v 5.379 h -0.425 c -0.879,0 -1.873,-0.858 -2.475,-2.134 -0.584,-1.239 -0.88,-2.985 -0.88,-5.188 0,-3.577 1.008,-7.198 2.935,-7.198 0.806,0 1.617,0.705 2.184,1.821 0.576,-1.625 1.687,-2.237 2.602,-2.237 2.073,0 3.695,3.414 3.695,7.772 z"
     id="path24"
     inkscape:connector-curvature="0" />
  <path
     d="M 49.183,91.426 V 85.98 l -0.002,-0.013 c 0.589,-0.108 1.046,-0.879 1.046,-1.814 0,-1.11 -0.532,-2.01 -1.189,-2.01 -0.657,0 -1.189,0.9 -1.189,2.01 0,0.126 -0.004,0.227 0.012,0.346 h -1.856 l 0.008,-0.008 c 0.015,-0.109 0.022,-0.222 0.022,-0.337 0,-0.925 -0.488,-1.674 -1.089,-1.674 -0.602,0 -1.089,0.749 -1.089,1.674 0,0.857 0.419,1.563 0.959,1.662 l -0.002,0.012 v 4.99 c -0.668,0 -1.54,-0.722 -2.09,-1.89 -0.592,-1.257 -0.839,-3.033 -0.839,-5.007 0,-3.809 1.124,-6.773 2.51,-6.773 0.853,0 1.607,1.123 2.061,2.875 h 0.449 c 0.266,-2.22 1.139,-3.292 2.277,-3.292 1.805,0 3.268,3.289 3.268,7.347 0,4.058 -0.992,7.356 -3.268,7.347"
     id="path26"
     inkscape:connector-curvature="0"
     style="fill:#ffffff" />
  <path
     d="M 52.928,34.572 V 50.901 L 38.247,66.035 V 49.706 h 0.022 L 52.95,34.572"
     id="path28"
     inkscape:connector-curvature="0"
     style="fill:#1d46a5" />
  <g
     id="g34">
    <path
       d="m 52.393,46.874 -2.213,2.44 2.213,2.349 v 9.157 l -6.45,-6.876 -6.318,6.895 v -9.215 l 2.041,-2.255 -2.041,-2.155 v -9.146 l 6.278,6.669 6.49,-7.09 z"
       id="path30"
       inkscape:connector-curvature="0" />
    <path
       d="m 45.939,53.319 -5.888,6.427 v -7.958 l 2.194,-2.426 -2.194,-2.318 V 39.14 l 5.857,6.221 6.06,-6.62 v 7.969 l -2.366,2.609 2.366,2.512 v 7.915 z"
       id="path32"
       inkscape:connector-curvature="0"
       style="fill:#ffffff" />
  </g>
</svg>
