<?xml version="1.0" encoding="UTF-8" standalone="no"?>
<svg
   xmlns:dc="http://purl.org/dc/elements/1.1/"
   xmlns:cc="http://creativecommons.org/ns#"
   xmlns:rdf="http://www.w3.org/1999/02/22-rdf-syntax-ns#"
   xmlns:svg="http://www.w3.org/2000/svg"
   xmlns="http://www.w3.org/2000/svg"
   xmlns:sodipodi="http://sodipodi.sourceforge.net/DTD/sodipodi-0.dtd"
   xmlns:inkscape="http://www.inkscape.org/namespaces/inkscape"
   viewBox="0 0 402 104.89408"
   version="1.1"
   id="svg18"
   sodipodi:docname="logo.svg"
   width="403"
   height="104.89408"
   inkscape:version="0.92.4 5da689c313, 2019-01-14">
  <metadata
     id="metadata24">
    <rdf:RDF>
      <cc:Work
         rdf:about="">
        <dc:format>image/svg+xml</dc:format>
        <dc:type
           rdf:resource="http://purl.org/dc/dcmitype/StillImage" />
      </cc:Work>
    </rdf:RDF>
  </metadata>
  <defs
     id="defs22" />
  <sodipodi:namedview
     pagecolor="#ffffff"
     bordercolor="#666666"
     borderopacity="1"
     objecttolerance="10"
     gridtolerance="10"
     guidetolerance="10"
     inkscape:pageopacity="0"
     inkscape:pageshadow="2"
     inkscape:window-width="471"
     inkscape:window-height="442"
     id="namedview20"
     showgrid="false"
     inkscape:zoom="0.6775"
     inkscape:cx="200"
     inkscape:cy="52.447039"
     inkscape:window-x="0"
     inkscape:window-y="0"
     inkscape:window-maximized="0"
     inkscape:current-layer="svg18">
    <inkscape:grid
       type="xygrid"
       id="grid26"
       originx="0"
       originy="-1.1157226e-06" />
  </sodipodi:namedview>
  <path
     d="M 14.609204,59.897735 61.358656,104.89408 H 400 V 76.260044 L 381.00804,59.897735 M 76.84441,0 v 11.979547 c 0,2.337472 -1.460918,4.090577 -4.674943,4.967129 -2.921841,0.876552 -7.012418,1.460921 -11.979547,1.460921 -5.259314,0 -9.349891,-0.584369 -12.563916,-1.460921 -2.92184,-0.876552 -4.382761,-2.337472 -4.382761,-4.382761 V 0 h 12.8561 v 11.687363 c 0,0.876552 0.292184,1.46092 1.168736,2.045288 0.876552,0.292184 2.045288,0.584368 4.090577,0.584368 1.46092,0 2.629657,0 3.798393,-0.292184 0.876552,-0.584368 1.46092,-0.876552 1.46092,-1.168736 0.292184,-0.292184 0.292184,-1.168736 0.292184,-2.045288 V 0 Z m 16.94668,11.687363 v 6.720234 H 82.39591 V 0 h 15.48576 c 3.79839,0 6.72023,0.292184 8.76552,0.584368 2.04529,0.584368 3.50621,1.168736 4.67494,2.045288 1.16874,0.876553 2.04529,2.045289 2.04529,3.214025 0,1.753105 -1.16873,3.214025 -3.50621,4.090577 -2.62965,1.168737 -5.84368,1.753105 -9.93426,1.753105 z M 93.4989,7.596786 h 3.7984 c 3.21402,0 4.96713,-0.584368 4.96713,-1.753105 0,-1.168736 -1.46092,-1.753104 -4.67495,-1.753104 H 93.4989 Z m 50.25567,6.428049 v 4.382762 H 116.28926 V 0 h 27.46531 v 4.090577 h -16.36231 v 2.629656 h 13.44046 v 4.090578 h -13.44046 v 2.92184 h 16.36231 z m 33.89335,4.382762 h -12.27173 l -5.25932,-7.012418 h -3.50621 v 7.012418 H 145.50767 V 0 h 18.69978 c 4.09058,0 7.3046,0.584368 9.64208,1.46092 2.62965,0.876552 3.79839,2.337473 3.79839,3.798393 0,1.168736 -0.29219,2.045289 -1.16874,2.921841 -0.87655,0.876552 -2.62965,1.46092 -4.96713,2.045288 z M 156.90285,7.304602 h 4.67494 c 1.46092,0 2.62966,-0.292184 3.21403,-0.584369 0.87655,0 1.16874,-0.584368 1.16874,-1.168736 0,-1.168736 -1.46093,-1.753104 -4.09058,-1.753104 h -4.96713 z M 23.082542,18.699781 c -2.921841,0 -5.259313,-0.292184 -7.596786,-0.584369 C 13.148283,17.823228 11.687363,17.23886 10.226443,16.654492 8.765522,16.070124 7.596786,15.193572 7.012418,14.609204 6.135866,13.732651 5.843682,12.856099 5.843682,11.979547 h 7.304601 c 0,0.584368 0.584369,1.168736 1.168737,1.753104 0.584368,0.584368 1.168736,0.876553 2.045288,1.168737 0.876552,0.292184 1.753105,0.584368 2.921841,0.584368 1.168736,0 2.337473,0.292184 3.506209,0.292184 1.168736,0 2.337473,0 3.214025,-0.292184 0.876552,0 1.753104,-0.292184 2.629656,-0.584368 l 1.753105,-0.876553 c 0.292184,-0.292184 0.584368,-0.584368 0.584368,-0.876552 0,-0.292184 -0.292184,-0.584368 -0.584368,-0.876552 C 30.09496,11.979547 29.510592,11.687363 28.634039,11.395179 27.757487,11.102995 26.588751,11.102995 25.420015,10.810811 23.959094,10.518626 22.20599,10.518626 20.452885,10.226442 18.115413,9.934258 16.070124,9.642074 14.609204,9.34989 12.856099,9.057706 11.687363,8.765522 10.518627,8.181154 9.34989,7.88897 8.765522,7.304602 8.181154,6.720233 7.596786,6.135865 7.304602,5.551497 7.304602,4.967129 7.304602,4.090577 7.596786,3.506209 8.473338,2.92184 9.057706,2.337472 10.226443,1.753104 11.395179,1.168736 12.563915,0.584368 14.31702,0.292184 16.070124,0 h 5.843682 c 2.337472,0 4.382761,0 6.135865,0.292184 1.753105,0.292184 3.506209,0.584368 4.96713,1.168736 1.46092,0.584368 2.337472,1.168736 3.214024,2.045289 0.876553,0.876552 1.168737,1.753104 1.168737,2.629656 H 30.09496 C 29.510592,4.090577 26.880935,2.92184 21.913806,2.92184 c -2.337473,0 -4.382761,0.292185 -5.551498,0.584369 -1.168736,0.292184 -2.045288,0.876552 -2.045288,1.46092 0,0.292184 0,0.584368 0.292184,0.584368 0.292184,0 0.876552,0.292184 1.46092,0.584368 0.584368,0.292184 1.460921,0.292184 2.337473,0.584368 0.876552,0 2.045288,0.292185 3.506209,0.292185 1.168736,0 2.337472,0.292184 3.798393,0.292184 1.168736,0 2.629656,0.292184 3.798393,0.584368 1.168736,0.292184 2.337472,0.292184 3.506209,0.584368 1.168736,0.292184 2.045288,0.584368 2.92184,0.876552 0.876553,0.292184 1.460921,0.876552 2.045289,1.460921 0.584368,0.584368 0.584368,1.168736 0.584368,1.753104 0,0.876552 -0.292184,1.46092 -1.168736,2.337473 -0.876553,0.584368 -1.753105,1.168736 -3.214025,1.753104 -1.46092,0.584368 -2.921841,0.876552 -4.967129,1.168736 -1.753105,0.584369 -3.798393,0.876553 -6.135866,0.876553 z M 369.02849,48.502556 h -3.21403 v 8.181154 h -2.04529 v -8.181154 h -3.21402 v -1.753104 h 8.47334 z m 11.97955,8.181154 h -2.04529 v -6.428049 l -2.33748,6.428049 h -1.7531 l -2.33747,-6.428049 v 6.428049 h -2.04529 v -9.934258 h 2.62966 l 2.33747,7.012418 2.33747,-7.012418 h 2.62966 v 9.934258 z"
     id="path2"
     inkscape:connector-curvature="0" />
  <path
     d="M 108.69248,97.297297 V 83.272461 l 2.04528,-0.584368 c 21.03726,-7.88897 54.63843,-26.588751 56.39153,-32.432432 0.29219,-0.876552 0,-1.753105 -0.58437,-2.921841 -1.46092,-1.753104 -4.09057,-3.214025 -6.72023,-3.214025 -3.50621,0 -6.72023,2.337473 -7.3046,5.259314 l -0.29219,2.045288 h -44.41198 l 0.87656,-3.798393 c 4.09057,-16.070124 24.54346,-26.588751 51.71658,-26.588751 30.38714,0 51.71658,10.810811 51.71658,26.588751 0,11.102995 -11.39518,20.160701 -34.47772,27.465303 h 32.43243 V 96.712929 H 108.69248 Z"
     id="path4"
     inkscape:connector-curvature="0" />
  <path
     d="m 169.17458,50.840029 c 1.46092,-4.967129 -4.67495,-9.642075 -10.51863,-9.642075 -4.96713,0 -9.0577,3.214025 -10.22644,7.596786 h -37.10738 c 3.50621,-13.732651 21.91381,-24.251278 48.79474,-24.251278 26.88094,0 48.79474,9.349891 48.79474,23.66691 0,12.563915 -17.82322,21.037254 -40.02921,26.880935 v 3.506209 h 38.27611 v 15.77794 H 111.32213 V 85.31775 c 16.94668,-6.42805 55.80716,-26.004383 57.85245,-34.477721 z"
     id="path6"
     inkscape:connector-curvature="0"
     style="fill:#ffffff" />
  <path
     d="m 53.469686,100.51132 c -13.148284,0 -37.107378,-1.753103 -47.918189,-12.563913 C 2.045289,84.149014 0,80.058437 0,75.091307 v -2.921841 h 42.658875 l 0.584368,2.337473 c 0.292184,2.337473 4.090577,4.674945 9.642075,4.674945 6.135865,0 10.810811,-2.629656 10.810811,-5.259313 0,-2.629657 -4.674946,-5.259313 -10.810811,-5.259313 h -1.753105 l -3.214025,0.584368 V 49.671293 l 4.382762,0.584368 h 1.168736 c 4.967129,0 8.473338,-2.337473 8.473338,-4.674945 0,-2.337473 -3.798393,-4.674946 -8.473338,-4.674946 -4.674945,0 -8.181154,2.045289 -8.473338,4.090577 L 44.41198,47.33382 H 4.090577 v -2.921841 c 0,-6.135865 5.843682,-12.856099 14.609204,-16.946676 8.473338,-4.090577 20.452885,-6.135866 35.646457,-6.135866 24.543462,0 49.379112,7.012418 49.379112,20.160702 0,5.551497 -4.96713,11.102994 -12.56392,14.901387 11.103,4.090577 15.48576,11.687363 15.48576,17.823229 0.29218,15.193572 -23.37473,26.296565 -53.177504,26.296565 z"
     id="path8"
     inkscape:connector-curvature="0" />
  <path
     d="m 2.921841,75.091307 h 37.399561 c 0.876553,4.090577 6.135866,7.304602 12.563916,7.304602 7.596786,0 13.732651,-3.798393 13.732651,-8.181154 0,-4.382761 -6.135865,-8.181154 -13.732651,-8.181154 H 50.547845 V 53.177502 c 0.876552,0 1.460921,0.292184 2.337473,0.292184 6.428049,0 11.395179,-3.214025 11.395179,-7.596786 0,-4.090577 -5.259314,-7.596786 -11.395179,-7.596786 -5.843682,0 -10.810811,2.92184 -11.395179,6.720233 H 7.012418 c 0,-4.674945 4.967129,-10.518626 12.856099,-14.317019 8.765522,-4.090577 20.74507,-5.843682 34.477721,-5.843682 26.296562,0 46.457272,7.596786 46.457272,17.238861 0,5.843681 -7.59679,11.102995 -19.86852,14.024835 v 3.214025 c 15.19357,1.753105 22.49817,7.88897 22.49817,15.77794 0,12.271731 -22.49817,22.498174 -50.547842,22.498174 -28.049672,0 -49.963477,-6.720234 -49.963477,-22.498174"
     id="path10"
     inkscape:connector-curvature="0"
     style="fill:#ffffff" />
  <path
     d="M 393.57195,100.80351 H 281.37327 L 177.35573,0 H 289.55442 V 0.292184 L 393.57195,101.09569"
     id="path12"
     inkscape:connector-curvature="0"
     style="fill:#1d46a5" />
  <path
     d="M 309.13075,97.297297 292.47626,82.103725 276.11395,97.297297 H 213.29438 L 260.6282,52.885317 213.00219,9.34989 h 63.40395 L 291.89189,23.374726 306.79328,9.34989 h 62.81958 l -45.8729,43.243243 48.79474,44.704164"
     id="path14"
     inkscape:connector-curvature="0" />
  <path
     d="M 264.71877,52.885317 220.59898,12.271731 h 54.63842 l 16.65449,15.193572 16.07013,-15.193572 h 54.34623 L 319.3572,52.593133 364.93791,94.375456 H 310.29949 L 292.47626,78.013148 275.2374,94.375456 h -54.63842 z"
     id="path16"
     inkscape:connector-curvature="0"
     style="fill:#ffffff" />
</svg>
