<?xml version="1.0" encoding="UTF-8" standalone="no"?>
<svg
   xmlns:dc="http://purl.org/dc/elements/1.1/"
   xmlns:cc="http://creativecommons.org/ns#"
   xmlns:rdf="http://www.w3.org/1999/02/22-rdf-syntax-ns#"
   xmlns:svg="http://www.w3.org/2000/svg"
   xmlns="http://www.w3.org/2000/svg"
   xmlns:sodipodi="http://sodipodi.sourceforge.net/DTD/sodipodi-0.dtd"
   xmlns:inkscape="http://www.inkscape.org/namespaces/inkscape"
   viewBox="0 0 288.93927 355.159"
   version="1.1"
   id="svg95"
   sodipodi:docname="console.svg"
   width="288.93927"
   height="355.159"
   inkscape:version="0.92.4 5da689c313, 2019-01-14">
  <metadata
     id="metadata101">
    <rdf:RDF>
      <cc:Work
         rdf:about="">
        <dc:format>image/svg+xml</dc:format>
        <dc:type
           rdf:resource="http://purl.org/dc/dcmitype/StillImage" />
      </cc:Work>
    </rdf:RDF>
  </metadata>
  <defs
     id="defs99" />
  <sodipodi:namedview
     pagecolor="#ffffff"
     bordercolor="#666666"
     borderopacity="1"
     objecttolerance="10"
     gridtolerance="10"
     guidetolerance="10"
     inkscape:pageopacity="0"
     inkscape:pageshadow="2"
     inkscape:window-width="640"
     inkscape:window-height="480"
     id="namedview97"
     showgrid="false"
     inkscape:zoom="0.66449112"
     inkscape:cx="144.46924"
     inkscape:cy="177.5795"
     inkscape:window-x="0"
     inkscape:window-y="0"
     inkscape:window-maximized="0"
     inkscape:current-layer="svg95" />
  <path
     d="m 287.09274,24.208 c 0,-18.692 -11.338,-24.208 -20.531,-24.208 -2.422,0 -10.812,0.021 -22.176,0.053 v 4.312 h -4.434 v -4.3 l -4.871,0.014 v 4.286 h -4.434 V 0.091 l -4.871,0.014 v 4.26 h -4.434 V 0.117 l -4.871,0.014 v 4.233 h -4.434 v -4.22 l -4.871,0.014 v 4.207 h -4.434 V 0.17 l -4.871,0.014 v 4.181 h -4.434 V 0.196 l -4.871,0.013 v 4.155 h -4.434 V 0.221 l -4.871,0.013 v 4.13 h -4.434 V 0.246 l -4.871,0.012 v 4.107 h -4.434 V 0.269 l -4.871,0.011 v 4.084 h -4.434 V 0.29 l -4.871,0.009 v 4.066 h -4.434 v -4.06 l -2.435,0.001 -2.436,-0.001 v 4.06 h -4.431 V 0.299 l -4.871,-0.009 v 4.075 h -4.434 V 0.28 l -4.871,-0.011 v 4.096 h -4.434 V 0.258 l -4.871,-0.012 v 4.119 h -4.434 v -4.13 l -4.871,-0.013 v 4.143 h -4.434 V 0.209 L 95.508742,0.196 v 4.169 h -4.434 V 0.184 l -4.871,-0.014 v 4.195 h -4.434 V 0.158 l -4.871,-0.014 v 4.221 h -4.434 V 0.131 l -4.871,-0.014 v 4.247 h -4.434 v -4.26 l -4.871,-0.014 v 4.274 h -4.434 V 0.079 l -4.871,-0.014 v 4.3 h -4.434 V 0.053 C 33.188742,0.021 24.798742,0 22.376742,0 13.183742,0 1.8457419,5.516 1.8457419,24.208 c 0,18.693 -3.411,288.662 -0.95900002,304.904 2.45100002,18.999 11.64400012,26.047 27.88600012,26.047 16.242,0 115.697998,-0.667 115.697998,-0.667 0,0 99.456,0.667 115.697,0.667 16.241,0 25.434,-7.048 27.886,-26.047 2.45,-16.241 -0.961,-286.211 -0.961,-304.904 z"
     id="path2"
     inkscape:connector-curvature="0"
     style="fill:#d9d9d9" />
  <path
     d="M 267.92674,348.159 H 22.052742 c -8.301,0 -15.0920001,-6.792 -15.0920001,-15.092 V 21.164 c 0,-8.301 6.7920001,-15.092 15.0920001,-15.092 H 267.92674 c 8.301,0 15.092,6.791 15.092,15.092 v 311.902 c 0,8.301 -6.791,15.093 -15.092,15.093 z"
     id="path4"
     inkscape:connector-curvature="0"
     style="fill:#4c4c4c" />
  <path
     d="M 266.91174,347.158 H 22.856742 C 14.601742,347.517 7.3417419,340.3 7.8587419,332.16 V 21.859 C 7.3417419,13.524 15.039742,6.35 22.856742,6.861 H 266.91174 c 8.246,-0.467 15.551,6.575 14.998,14.998 v 310.302 c 0.596,8.008 -6.796,15.444 -14.998,14.997 z"
     id="path6"
     inkscape:connector-curvature="0"
     style="fill:#c3c2c7" />
  <path
     d="M 254.94174,289.469 H 33.999742 c -7.19,0 -13.072,-5.883 -13.072,-13.072 V 53.476 c 0,-7.19 5.883,-13.072 13.072,-13.072 H 254.94174 c 7.19,0 13.072,5.883 13.072,13.072 v 222.921 c 0.001,7.19 -5.882,13.072 -13.072,13.072 z"
     id="path8"
     inkscape:connector-curvature="0"
     style="fill:#6e7270" />
  <path
     stroke-miterlimit="10"
     d="m 179.51874,270.126 h -70.88 c -3.268,0 -5.942,-2.674 -5.942,-5.942 v -31.898 c 0,-3.268 2.674,-5.942 5.942,-5.942 h 70.88 c 3.268,0 5.942,2.674 5.942,5.942 v 31.898 c 0,3.269 -2.674,5.942 -5.942,5.942 z"
     id="path10"
     inkscape:connector-curvature="0"
     style="fill:#505656;stroke:#272828;stroke-miterlimit:10" />
  <path
     d="m 144.46774,164.937 c 13.34,0 71.377,-2.497 81.42,-3.324 10.043,-0.827 14.002,-3.935 16.187,-7.207 2.367,-3.545 2.599,-10.279 2.127,-14.888 -0.473,-4.608 -5.908,-5.317 -7.916,-5.317 h -91.818 0.003 -91.817998 c -2.009,0 -7.444,0.709 -7.916,5.317 -0.473,4.608 -0.24,11.343 2.127,14.888 2.185,3.272 6.144,6.38 16.187,7.207 10.043,0.827 68.079998,3.324 81.419998,3.324"
     id="path12"
     inkscape:connector-curvature="0"
     style="fill:#464749" />
  <path
     d="m 200.97274,265.595 v -31.857 a 8.32,8.32 0 0 1 8.319,-8.319 h 25.139 a 8.319,8.319 0 0 1 8.319,8.319 v 31.857 a 8.319,8.319 0 0 1 -8.319,8.319 h -25.139 a 8.319,8.319 0 0 1 -8.319,-8.319 z"
     id="path14"
     inkscape:connector-curvature="0"
     style="fill:#bfc0c5" />
  <path
     d="m 234.34574,271.453 h -24.969 c -3.268,0 -5.942,-2.674 -5.942,-5.942 v -31.688 c 0,-3.268 2.674,-5.942 5.942,-5.942 h 24.969 c 3.268,0 5.942,2.674 5.942,5.942 v 31.688 c 0,3.268 -2.674,5.942 -5.942,5.942 z"
     id="path16"
     inkscape:connector-curvature="0"
     style="fill:#505656" />
  <path
     d="m 45.798742,265.534 v -31.857 a 8.32,8.32 0 0 1 8.319,-8.319 h 25.138 a 8.319,8.319 0 0 1 8.319,8.319 v 31.857 a 8.319,8.319 0 0 1 -8.319,8.319 h -25.138 a 8.319,8.319 0 0 1 -8.319,-8.319 z"
     id="path18"
     inkscape:connector-curvature="0"
     style="fill:#bfc0c5" />
  <path
     d="m 79.170742,271.391 h -24.969 c -3.268,0 -5.942,-2.674 -5.942,-5.942 v -31.687 c 0,-3.268 2.674,-5.942 5.942,-5.942 h 24.969 c 3.268,0 5.942,2.674 5.942,5.942 v 31.687 c 0,3.268 -2.674,5.942 -5.942,5.942 z"
     id="path20"
     inkscape:connector-curvature="0"
     style="fill:#6e7270" />
  <path
     d="m 63.182742,158.538 h -0.7 a 1.191,1.191 0 0 1 -1.188,-1.188 v -19.327 c 0,-0.654 0.535,-1.188 1.188,-1.188 h 0.7 c 0.654,0 1.189,0.535 1.189,1.188 v 19.327 c 0,0.653 -0.535,1.188 -1.189,1.188 z m 162.572998,0 h 0.701 c 0.654,0 1.188,-0.535 1.188,-1.188 v -19.327 c 0,-0.654 -0.535,-1.188 -1.188,-1.188 h -0.701 c -0.654,0 -1.188,0.535 -1.188,1.188 v 19.327 c 0,0.653 0.534,1.188 1.188,1.188 z m -78.331,0.054 a 4.137,4.137 0 0 1 -5.908,0 l -5.908,-6.016 c -1.625,-1.654 -0.296,-3.008 2.954,-3.008 h 11.817 c 3.25,0 4.579,1.354 2.954,3.008 z"
     id="path22"
     inkscape:connector-curvature="0"
     style="fill:#444343" />
  <circle
     transform="rotate(-80.729)"
     cx="-37.530735"
     cy="241.46873"
     id="ellipse24"
     r="18.909"
     style="fill:#4c4c4c" />
  <circle
     transform="rotate(-45.001)"
     cx="110.54015"
     cy="217.93401"
     id="ellipse26"
     r="18.249001"
     style="fill:#6f7271" />
  <path
     d="m 230.27974,78.166 c 0,1.776 -3.22,3.215 -7.191,3.215 -3.972,0 -7.191,-1.44 -7.191,-3.215 0,-1.776 3.22,-3.215 7.191,-3.215 3.972,0 7.191,1.439 7.191,3.215 z"
     id="path28"
     inkscape:connector-curvature="0"
     style="fill:#52c64b" />
  <path
     d="m 243.15374,83.491 c 0,1.776 -3.22,3.215 -7.191,3.215 -3.971,0 -7.191,-1.44 -7.191,-3.215 0,-1.776 3.22,-3.215 7.191,-3.215 3.971,0 7.191,1.44 7.191,3.215 z"
     id="path30"
     inkscape:connector-curvature="0"
     style="fill:#f9ec2b" />
  <path
     d="m 244.01874,81.381 c -0.866,-3.601 -4.004,-7.58 -8.057,-5.85 3.3,-7.612 9.527,-6.401 11.69,-3.806 1.684,2.021 1.644,8.933 -3.633,9.656 z"
     id="path32"
     inkscape:connector-curvature="0"
     style="fill:#eb2d2f" />
  <path
     d="m 231.34474,75.559 c -0.866,-3.601 -4.004,-7.58 -8.057,-5.85 3.3,-7.612 9.527,-6.401 11.69,-3.806 1.684,2.021 1.644,8.933 -3.633,9.656 z"
     id="path34"
     inkscape:connector-curvature="0"
     style="fill:#323b98" />
  <path
     d="m 40.445742,6.648 h 0.616 v 33.756 h -0.616 z m 207.430998,0 h 0.616 v 33.756 h -0.616 z m 4.276,282.818 h 0.616 v 57.705 h -0.616 z m -215.985998,0.003 h 0.616 v 57.702 h -0.616 z"
     id="path36"
     inkscape:connector-curvature="0"
     style="fill:#4c4c4c" />
  <g
     id="g40"
     style="fill:#dcdbe1"
     transform="translate(-2.581203e-4)">
    <path
       d="m 134.555,260.16 c -0.191,0.203 -0.299,0.491 -0.322,0.865 l 2.926,-0.008 v 0.875 h -2.933 c 0,0.178 0.02,0.348 0.06,0.512 0.04,0.163 0.12,0.313 0.241,0.447 0.107,0.126 0.235,0.205 0.382,0.235 0.147,0.03 0.297,0.045 0.451,0.045 h 0.063 l 1.736,-0.007 V 264 h -1.785 c -0.285,0 -0.559,-0.025 -0.823,-0.077 a 1.705,1.705 0 0 1 -0.745,-0.356 1.825,1.825 0 0 1 -0.588,-0.837 3.428,3.428 0 0 1 -0.182,-1.012 1.974,1.974 0 0 1 -0.003,-0.217 c 0.002,-0.07 0.005,-0.14 0.01,-0.21 0.051,-0.793 0.267,-1.377 0.647,-1.75 0.38,-0.373 0.951,-0.56 1.711,-0.56 l 1.757,-0.008 v 0.875 h -1.736 c -0.387,0.006 -0.677,0.109 -0.867,0.312 z m 4.227,3.007 c 0.527,0.005 0.851,-0.119 0.97,-0.371 0.119,-0.252 0.179,-0.604 0.179,-1.057 v -2.766 h 1.099 v 2.989 c 0,0.056 -0.001,0.108 -0.003,0.157 -0.002,0.05 -0.003,0.1 -0.003,0.151 -0.014,0.219 -0.054,0.434 -0.119,0.644 -0.065,0.21 -0.172,0.399 -0.322,0.567 a 1.3,1.3 0 0 1 -0.731,0.438 4.48,4.48 0 0 1 -0.857,0.08 h -1.45 v -0.833 h 1.237 z m 4.411,-3.007 c -0.191,0.203 -0.299,0.491 -0.322,0.865 l 2.926,-0.008 v 0.875 h -2.933 c 0,0.178 0.02,0.348 0.06,0.512 0.04,0.163 0.12,0.313 0.241,0.447 0.107,0.126 0.235,0.205 0.382,0.235 0.147,0.03 0.297,0.045 0.451,0.045 h 0.063 l 1.736,-0.007 V 264 h -1.785 c -0.285,0 -0.559,-0.025 -0.823,-0.077 a 1.705,1.705 0 0 1 -0.745,-0.356 1.825,1.825 0 0 1 -0.588,-0.837 3.428,3.428 0 0 1 -0.182,-1.012 1.974,1.974 0 0 1 -0.003,-0.217 c 0.002,-0.07 0.005,-0.14 0.01,-0.21 0.051,-0.793 0.267,-1.377 0.647,-1.75 0.38,-0.373 0.951,-0.56 1.711,-0.56 l 1.757,-0.008 v 0.875 h -1.736 c -0.387,0.006 -0.676,0.109 -0.867,0.312 z m 4.612,0.179 c -0.148,0.331 -0.23,0.717 -0.244,1.155 v 0.228 a 2.356,2.356 0 0 0 0.098,0.713 c 0.047,0.156 0.123,0.295 0.23,0.416 a 0.705,0.705 0 0 0 0.389,0.235 c 0.147,0.03 0.298,0.045 0.451,0.045 h 0.063 l 1.736,-0.007 V 264 h -1.785 c -0.284,0 -0.56,-0.025 -0.823,-0.077 a 1.697,1.697 0 0 1 -0.744,-0.356 c -0.281,-0.229 -0.477,-0.508 -0.589,-0.837 -0.112,-0.329 -0.173,-0.666 -0.182,-1.012 a 1.974,1.974 0 0 1 -0.003,-0.217 c 0.002,-0.07 0.005,-0.14 0.01,-0.21 0.051,-0.793 0.268,-1.377 0.647,-1.75 0.379,-0.373 0.95,-0.56 1.712,-0.56 l 1.757,-0.008 v 0.861 h -1.736 c -0.508,0.006 -0.837,0.174 -0.987,0.505 z m 2.982,-0.483 v -0.875 h 4.34 v 0.875 h -1.631 V 264 h -1.092 v -4.144 z"
       id="path38"
       inkscape:connector-curvature="0" />
  </g>
  <g
     id="g44"
     style="fill:#dcdbe1"
     transform="translate(-2.581203e-4)">
    <path
       d="m 212.555,258.912 c 0.052,0.005 0.102,0.008 0.15,0.008 0.048,0 0.099,0.002 0.15,0.007 0.191,0.009 0.38,0.039 0.563,0.091 0.185,0.052 0.347,0.146 0.486,0.287 0.127,0.121 0.221,0.264 0.283,0.427 0.063,0.163 0.102,0.331 0.116,0.504 0,0.033 0.001,0.065 0.003,0.098 0.003,0.033 0.004,0.065 0.004,0.099 0.005,0.35 -0.076,0.652 -0.241,0.906 -0.166,0.255 -0.424,0.424 -0.774,0.508 l 1.254,2.093 h -1.19 l -1.106,-1.974 h -1.245 v 1.974 h -1.058 v -5.026 h 2.605 z m -0.252,0.897 h -1.295 v 1.267 h 1.295 a 0.058,0.058 0 0 0 0.028,0.007 h 0.027 c 0.225,0 0.428,-0.033 0.613,-0.101 0.184,-0.068 0.273,-0.246 0.27,-0.536 0,-0.299 -0.098,-0.479 -0.291,-0.539 -0.193,-0.06 -0.41,-0.091 -0.647,-0.091 z m 4.102,0.29 c -0.191,0.203 -0.299,0.491 -0.322,0.865 l 2.926,-0.008 v 0.875 h -2.934 c 0,0.178 0.02,0.348 0.061,0.512 0.039,0.163 0.119,0.313 0.24,0.447 a 0.67,0.67 0 0 0 0.383,0.235 c 0.146,0.03 0.297,0.045 0.451,0.045 h 0.062 l 1.736,-0.007 v 0.875 h -1.785 a 4.23,4.23 0 0 1 -0.822,-0.077 1.833,1.833 0 0 1 -1.334,-1.193 3.46,3.46 0 0 1 -0.182,-1.012 c -0.005,-0.074 -0.006,-0.146 -0.004,-0.217 0.002,-0.071 0.006,-0.14 0.011,-0.21 0.052,-0.793 0.267,-1.377 0.647,-1.75 0.38,-0.373 0.951,-0.56 1.711,-0.56 l 1.758,-0.008 v 0.875 h -1.736 c -0.386,0.006 -0.676,0.11 -0.867,0.313 z m 5.165,-0.29 c -0.229,0.005 -0.421,0.053 -0.577,0.144 -0.156,0.091 -0.234,0.265 -0.234,0.521 0,0.196 0.066,0.336 0.199,0.42 0.133,0.084 0.288,0.126 0.465,0.126 l 1.4,-0.007 c 0.052,0.005 0.105,0.007 0.161,0.007 0.056,0 0.112,0.002 0.168,0.007 0.163,0.01 0.325,0.036 0.483,0.081 a 0.972,0.972 0 0 1 0.42,0.241 c 0.111,0.103 0.195,0.227 0.252,0.371 0.057,0.144 0.091,0.294 0.105,0.447 0.004,0.047 0.008,0.093 0.01,0.137 0.002,0.045 0.004,0.09 0.004,0.137 -0.01,0.583 -0.17,0.979 -0.483,1.187 -0.313,0.208 -0.737,0.312 -1.274,0.312 h -2.813 v -0.896 h 2.646 a 1.35,1.35 0 0 0 0.605,-0.111 c 0.171,-0.079 0.24,-0.259 0.207,-0.539 -0.023,-0.22 -0.105,-0.354 -0.245,-0.406 a 1.576,1.576 0 0 0 -0.497,-0.084 l -1.246,-0.007 c -0.518,0.005 -0.928,-0.1 -1.229,-0.312 -0.301,-0.212 -0.449,-0.596 -0.444,-1.151 0.009,-0.583 0.172,-0.981 0.487,-1.193 0.314,-0.213 0.74,-0.318 1.277,-0.318 l 2.765,-0.008 v 0.896 h -2.612 z m 4.852,0.29 c -0.191,0.203 -0.299,0.491 -0.322,0.865 l 2.927,-0.008 v 0.875 h -2.934 c 0,0.178 0.02,0.348 0.06,0.512 0.04,0.163 0.12,0.313 0.241,0.447 0.107,0.126 0.234,0.205 0.382,0.235 0.148,0.03 0.298,0.045 0.451,0.045 h 0.063 l 1.736,-0.007 v 0.875 h -1.785 a 4.24,4.24 0 0 1 -0.823,-0.077 1.7,1.7 0 0 1 -0.745,-0.356 1.818,1.818 0 0 1 -0.588,-0.837 3.396,3.396 0 0 1 -0.182,-1.012 c -0.006,-0.074 -0.006,-0.146 -0.004,-0.217 0.002,-0.071 0.006,-0.14 0.01,-0.21 0.052,-0.793 0.268,-1.377 0.648,-1.75 0.38,-0.373 0.95,-0.56 1.711,-0.56 l 1.758,-0.008 v 0.875 h -1.736 c -0.388,0.006 -0.678,0.11 -0.868,0.313 z m 3.01,-0.304 v -0.875 h 4.34 v 0.875 h -1.631 v 4.144 h -1.092 v -4.144 z"
       id="path42"
       inkscape:connector-curvature="0" />
  </g>
  <path
     d="m 51.721742,328.336 c 0,0 -0.214,-0.086 -0.514,-0.086 h -3.125 c 0,0 -0.428,-0.214 -0.428,-0.813 0,0 0.171,-0.557 0.771,-0.557 h 4.281 v -1.199 h -5.522 c 0,0 -1.284,0.043 -1.627,1.541 0,0 -0.342,2.14 1.841,2.226 h 2.783 c 0,0 0.899,0.086 0.813,0.813 0,0 -0.128,0.642 -0.685,0.599 h -4.367 v 1.284 h 5.009 c 0,0 1.884,0.214 2.183,-1.67 0,0.002 0.214,-1.839 -1.413,-2.138 z m 7.235,2.483 h -2.312 c 0,0 -0.942,-0.128 -0.942,-0.856 v -4.281 h -1.883 v 4.752 c 0,0 0.514,1.712 1.969,1.712 h 5.052 v -6.507 h -1.884 z m 8.348,-5.223 h -5.351 v 6.55 h 1.841 v -2.226 h 3.211 c 2.183,-0.257 2.098,-2.183 2.098,-2.183 -0.172,-1.97 -1.799,-2.141 -1.799,-2.141 z m -1.113,3.039 h -2.355 v -1.755 h 2.483 c 0.685,0 0.813,0.813 0.813,0.813 -0.213,1.156 -0.941,0.942 -0.941,0.942 z m 3.553,0.3 c 0,0 -0.342,2.74 2.697,3.211 h 3.896 v -1.327 h -3.382 c 0,0 -1.027,0 -1.199,-1.37 h 4.623 v -1.241 h -4.58 c 0,0 0.086,-1.113 1.284,-1.327 h 3.296 v -1.327 h -4.024 c 0,-10e-4 -2.611,0.256 -2.611,3.381 z m 15.112,-1.242 c 0,-1.884 -1.969,-2.098 -1.969,-2.098 h -5.48 v 6.55 h 1.926 v -2.44 h 1.884 l 1.627,2.397 h 2.183 l -1.884,-2.483 c 1.798,-0.342 1.713,-1.926 1.713,-1.926 z m -3.382,0.857 h -2.141 v -1.67 h 2.226 c 0,0 1.199,-0.128 1.199,0.856 0,0 0.129,0.814 -1.284,0.814 z m 7.791,-0.514 v 4.153 h 1.884 v -2.569 h 4.709 v -1.37 h -4.623 v -0.342 c 0.128,-0.728 1.284,-1.027 1.284,-1.027 h 3.425 v -1.199 h -4.025 c -2.311,-0.001 -2.654,2.354 -2.654,2.354 z m 12.028998,-2.355 h -4.323998 v 1.241 h 3.424998 c 1.284,0 1.413,1.284 1.413,1.284 h -3.210998 c -2.183,0.086 -2.141,2.012 -2.141,2.012 0,2.055 2.269,2.012 2.269,2.012 h 5.051998 v -3.682 c 0,-2.61 -2.483,-2.867 -2.483,-2.867 z m 0.557,5.266 h -2.610998 c 0,0 -0.685,-0.043 -0.685,-0.771 0,0 0.086,-0.728 0.771,-0.728 l 2.525998,0.043 v 1.456 z m 10.488,-5.266 h -7.492 v 6.507 l 1.969,0.043 v -5.223 h 1.712 v 5.266 h 1.926 v -5.223 h 0.828 c 1.027,0.029 1.184,0.813 1.184,0.813 v 4.367 h 1.841 v -4.238 c 0.002,-2.098 -1.968,-2.312 -1.968,-2.312 z m 3.125,6.507 h 2.055 v -6.464 h -2.055 z m 2.954,-3.296 c 0,3.211 2.697,3.382 2.697,3.382 h 3.81 v -1.284 h -3.253 c -1.456,-0.257 -1.284,-1.969 -1.284,-1.969 0,-2.14 1.37,-1.969 1.37,-1.969 h 3.211 v -1.327 h -3.981 c -2.57,0.342 -2.57,3.167 -2.57,3.167 z m 11.088,-3.253 c 0,0 -3.51,-0.214 -3.981,2.74 0,0 -0.385,2.44 1.327,3.425 0,0 2.44,1.584 5.266,0.043 0,0 1.884,-0.942 1.413,-3.767 -0.001,-10e-4 -0.558,-2.57 -4.025,-2.441 z m 0.085,5.565 c 0,0 -2.44,0.257 -2.226,-2.183 0,0 -0.214,-2.226 2.098,-2.226 0,0 2.269,-0.257 2.269,2.226 0,-0.001 0.214,2.183 -2.141,2.183 z m 12.415,-5.394 h -7.492 v 6.507 l 1.969,0.043 v -5.223 h 1.712 v 5.266 h 1.926 v -5.223 h 0.828 c 1.027,0.029 1.184,0.813 1.184,0.813 v 4.367 h 1.841 v -4.238 c 0.001,-2.098 -1.968,-2.312 -1.968,-2.312 z"
     id="path46"
     inkscape:connector-curvature="0"
     style="fill:#4c4c4c" />
  <g
     id="g50"
     style="fill:#4c4c4c"
     transform="translate(-2.581203e-4)">
    <path
       d="m 45.722,312.084 h 2.876 l 3.976,6.622 -10e-4,-6.622 h 2.85 v 9.496 h -2.848 l -3.996,-6.622 v 6.622 h -2.857 z m 25.203,0.977 h 2.777 v 1.278 h 1.501 v 0.939 h -1.501 l 0.003,6.302 h -2.78 l 0.001,-6.302 h -1.507 v -0.936 l 1.507,-0.003 z m -13.914,2.205 h 2.774 v 6.316 h -2.774 z m -0.008,-3.185 h 2.781 v 1.943 h -2.781 z m 48.615,2.756 c -2.239,0 -4.054,1.585 -4.054,3.544 0,1.957 1.815,3.545 4.054,3.545 2.24,0 4.052,-1.588 4.052,-3.545 0,-1.959 -1.812,-3.544 -4.052,-3.544 m 1.114,3.535 -0.003,1.338 c 0,1.006 -0.576,1.421 -1.134,1.421 -0.557,0 -1.137,-0.414 -1.137,-1.421 l 0.001,-1.362 0.002,-1.314 c 0,-1.003 0.583,-1.415 1.134,-1.415 0.554,0 1.134,0.411 1.134,1.415 0,0.382 -0.001,1.091 0.003,1.342 z m -8.79,0.02 v -1.13 c 0,-0.977 -0.655,-1.224 -1.086,-1.224 -0.442,0 -1.088,0.247 -1.088,1.224 v 2.248 c 0,0.979 0.646,1.23 1.088,1.23 0.431,0 1.086,-0.252 1.086,-1.23 z m -0.018,-6.308 h 2.736 v 9.495 h -2.742 l -0.001,-0.364 c -1.061,0.683 -2.259,0.683 -3.194,0.238 a 3.373,3.373 0 0 1 -1.896,-3.133 c 0,-1.666 1.525,-3.487 3.526,-3.305 0.658,0.06 1.126,0.307 1.571,0.566 z m -31.646,2.891 c 1.038,-0.031 3.14,0.667 3.126,3.167 -0.003,0.446 -10e-4,3.437 -10e-4,3.437 h -2.754 v -4.147 c 0,-0.551 -0.511,-1.162 -1.268,-1.162 -0.756,0 -1.316,0.611 -1.316,1.162 l 0.003,4.147 h -2.753 l -0.003,-6.314 2.756,-0.003 c 0,0 -0.003,0.507 0,0.664 a 3.291,3.291 0 0 1 2.21,-0.951 m 22.54,0 c 1.037,-0.031 3.141,0.667 3.127,3.167 -0.003,0.446 0,3.437 0,3.437 h -2.757 v -4.147 c 0,-0.551 -0.511,-1.162 -1.268,-1.162 -0.756,0 -1.315,0.611 -1.315,1.162 l 0.003,4.147 h -2.753 v -6.314 l 2.753,-0.003 c 0,0 -0.003,0.507 0,0.664 a 3.289,3.289 0 0 1 2.21,-0.951 m -8.726,4.396 0.001,0.384 c 0,1.155 -0.737,1.412 -1.147,1.412 -0.408,0 -1.161,-0.257 -1.161,-1.412 l 0.003,-1.303 c 0,0 5.225,0.003 5.225,-0.003 0,-1.957 -1.836,-3.578 -4.092,-3.578 -2.256,0 -4.083,1.585 -4.083,3.545 0,1.96 1.828,3.544 4.083,3.544 1.872,0 3.453,-1.099 3.935,-2.591 z m -2.304,-1.905 c -0.006,-0.553 0.006,-0.922 0.182,-1.237 0.216,-0.39 0.614,-0.574 0.976,-0.577 0.36,0.003 0.758,0.188 0.973,0.577 0.177,0.316 0.186,0.685 0.182,1.237 z"
       id="path48"
       inkscape:connector-curvature="0" />
  </g>
  <path
     d="m 216.27274,332.904 a 3.128,3.128 0 0 1 -3.125,-3.124 3.129,3.129 0 0 1 3.125,-3.125 h 8.903 a 3.128,3.128 0 0 1 3.124,3.125 3.128,3.128 0 0 1 -3.124,3.124 z"
     id="path52"
     inkscape:connector-curvature="0"
     style="fill:#c95b5b" />
  <linearGradient
     id="a"
     gradientUnits="userSpaceOnUse"
     x1="220.724"
     y1="332.061"
     x2="220.724"
     y2="327.496"
     gradientTransform="translate(-2.581203e-4)">
    <stop
       offset="0"
       id="stop54" />
    <stop
       offset="1"
       stop-color="#fff"
       id="stop56" />
  </linearGradient>
  <path
     d="m 225.25374,332.061 h -9.059 a 2.21,2.21 0 0 1 -2.204,-2.204 V 329.7 a 2.21,2.21 0 0 1 2.204,-2.204 h 9.059 a 2.21,2.21 0 0 1 2.204,2.204 v 0.157 a 2.21,2.21 0 0 1 -2.204,2.204 z"
     id="path59"
     inkscape:connector-curvature="0"
     style="fill:url(#a)" />
  <path
     d="m 225.25374,332.061 h -9.059 a 2.21,2.21 0 0 1 -2.204,-2.204 V 329.7 a 2.21,2.21 0 0 1 2.204,-2.204 h 9.059 a 2.21,2.21 0 0 1 2.204,2.204 v 0.157 a 2.21,2.21 0 0 1 -2.204,2.204 z"
     id="path61"
     inkscape:connector-curvature="0"
     style="fill:#c11b25" />
  <g
     id="g65"
     style="fill:#707175"
     transform="translate(-2.581203e-4)">
    <path
       d="m 214.238,319.677 c 0.003,0.003 0.006,0.004 0.01,0.004 h 0.162 c 0.05,0 0.102,0.003 0.152,0.008 0.09,0.006 0.181,0.019 0.27,0.038 0.09,0.021 0.173,0.053 0.25,0.099 a 0.688,0.688 0 0 1 0.302,0.34 c 0.061,0.144 0.092,0.295 0.095,0.452 0.002,0.144 -0.022,0.282 -0.074,0.416 a 0.745,0.745 0 0 1 -0.258,0.332 0.863,0.863 0 0 1 -0.33,0.142 2.555,2.555 0 0 1 -0.362,0.042 h -0.193 l -0.731,-0.004 v 1.004 h -0.604 v -2.872 h 1.311 z m -0.008,0.511 h -0.7 v 0.849 h 0.736 a 0.801,0.801 0 0 0 0.38,-0.086 c 0.106,-0.058 0.159,-0.169 0.159,-0.334 0.006,-0.185 -0.051,-0.301 -0.17,-0.351 a 1.052,1.052 0 0 0 -0.405,-0.074 z m 1.56,0.289 c 0.069,-0.21 0.171,-0.382 0.306,-0.514 0.135,-0.132 0.312,-0.226 0.53,-0.282 a 2.37,2.37 0 0 1 0.78,-0.048 c 0.093,0.011 0.183,0.028 0.268,0.052 0.214,0.054 0.388,0.146 0.524,0.28 0.136,0.134 0.235,0.306 0.3,0.516 a 2.49,2.49 0 0 1 0.084,0.624 c 0,0.115 -0.007,0.227 -0.021,0.336 a 1.927,1.927 0 0 1 -0.063,0.313 c -0.064,0.216 -0.165,0.39 -0.304,0.521 a 1.114,1.114 0 0 1 -0.536,0.274 1.904,1.904 0 0 1 -0.265,0.046 2.52,2.52 0 0 1 -0.275,0.014 c -0.083,0 -0.166,-0.005 -0.248,-0.016 a 2.44,2.44 0 0 1 -0.244,-0.044 1.127,1.127 0 0 1 -0.532,-0.274 1.156,1.156 0 0 1 -0.304,-0.521 2.292,2.292 0 0 1 -0.084,-0.636 c 0,-0.112 0.007,-0.224 0.02,-0.334 a 1.7,1.7 0 0 1 0.064,-0.303 z m 0.624,0.204 a 1.49,1.49 0 0 0 -0.04,0.218 2.023,2.023 0 0 0 0.002,0.441 c 0.009,0.073 0.021,0.145 0.038,0.214 a 0.854,0.854 0 0 0 0.146,0.32 0.59,0.59 0 0 0 0.286,0.2 0.83,0.83 0 0 0 0.145,0.035 0.856,0.856 0 0 0 0.303,0 0.892,0.892 0 0 0 0.144,-0.035 c 0.123,-0.043 0.219,-0.109 0.288,-0.2 0.069,-0.091 0.117,-0.197 0.145,-0.32 a 1.813,1.813 0 0 0 0,-0.869 0.812,0.812 0 0 0 -0.145,-0.321 0.562,0.562 0 0 0 -0.288,-0.198 0.983,0.983 0 0 0 -0.447,-0.036 0.831,0.831 0 0 0 -0.145,0.036 0.573,0.573 0 0 0 -0.284,0.2 0.936,0.936 0 0 0 -0.147,0.319 v -0.004 z m 2.897,-1.004 0.664,2.208 0.56,-2.208 h 0.712 l 0.645,2.208 0.619,-2.208 h 0.62 l -0.888,2.872 h -0.74 l -0.611,-2.144 -0.536,2.144 h -0.736 l -0.952,-2.872 z m 4.787,0.677 c -0.109,0.116 -0.17,0.281 -0.184,0.494 l 1.672,-0.004 v 0.5 h -1.676 c 0,0.102 0.011,0.199 0.034,0.292 a 0.57,0.57 0 0 0 0.138,0.256 0.385,0.385 0 0 0 0.218,0.134 c 0.084,0.018 0.17,0.026 0.258,0.026 h 0.037 l 0.992,-0.004 v 0.5 h -1.02 a 2.5,2.5 0 0 1 -0.471,-0.044 1.05,1.05 0 0 1 -0.762,-0.682 1.938,1.938 0 0 1 -0.104,-0.578 c -0.003,-0.043 -0.004,-0.084 -0.003,-0.124 l 0.007,-0.12 c 0.029,-0.453 0.152,-0.787 0.37,-1 0.217,-0.214 0.543,-0.32 0.978,-0.32 l 1.004,-0.004 v 0.5 h -0.992 c -0.221,0.004 -0.387,0.063 -0.496,0.178 z m 3.504,-0.677 a 0.838,0.838 0 0 0 0.086,0.004 c 0.027,0 0.057,0.002 0.086,0.004 0.109,0.006 0.217,0.022 0.321,0.053 a 0.631,0.631 0 0 1 0.278,0.163 0.669,0.669 0 0 1 0.162,0.244 1.03,1.03 0 0 1 0.068,0.345 l 0.002,0.056 a 0.907,0.907 0 0 1 -0.139,0.518 0.69,0.69 0 0 1 -0.441,0.29 l 0.716,1.196 h -0.68 l -0.633,-1.128 h -0.712 v 1.128 h -0.604 v -2.872 h 1.49 z m -0.144,0.511 h -0.74 v 0.725 h 0.74 c 0.006,0.002 0.011,0.004 0.016,0.004 h 0.017 c 0.128,0 0.244,-0.02 0.35,-0.059 0.105,-0.038 0.157,-0.141 0.154,-0.306 0,-0.171 -0.056,-0.273 -0.166,-0.308 a 1.22,1.22 0 0 0 -0.37,-0.053 v -0.003 z"
       id="path63"
       inkscape:connector-curvature="0" />
  </g>
  <path
     d="m 79.730742,265.391 h -25.924 c -3.006,0 -5.465,-2.459 -5.465,-5.465 v -25.924 c 0,-3.006 2.459,-5.465 5.465,-5.465 h 25.924 c 3.006,0 5.465,2.459 5.465,5.465 v 25.924 c -10e-4,3.006 -2.46,5.465 -5.465,5.465 z"
     id="path67"
     inkscape:connector-curvature="0"
     style="fill:#505656" />
  <g
     id="g71"
     style="fill:#505656"
     transform="translate(-2.581203e-4)">
    <path
       d="m 24.37,242.681 c 0.104,-0.315 0.257,-0.572 0.459,-0.771 0.202,-0.199 0.467,-0.339 0.795,-0.423 0.12,-0.028 0.244,-0.05 0.372,-0.066 0.128,-0.016 0.256,-0.023 0.384,-0.023 a 2.887,2.887 0 0 1 0.816,0.096 c 0.32,0.08 0.582,0.22 0.786,0.42 0.204,0.2 0.354,0.458 0.45,0.774 a 3.66,3.66 0 0 1 0.096,1.439 c -0.021,0.164 -0.052,0.32 -0.096,0.468 -0.097,0.324 -0.248,0.585 -0.456,0.783 -0.208,0.198 -0.477,0.335 -0.805,0.411 -0.128,0.032 -0.26,0.055 -0.396,0.069 a 4.04,4.04 0 0 1 -0.414,0.021 3.096,3.096 0 0 1 -0.738,-0.089 c -0.324,-0.076 -0.59,-0.213 -0.798,-0.411 -0.208,-0.198 -0.36,-0.459 -0.456,-0.783 a 3.22,3.22 0 0 1 -0.093,-0.456 c -0.022,-0.164 -0.033,-0.33 -0.033,-0.498 0,-0.168 0.01,-0.335 0.03,-0.501 0.02,-0.165 0.052,-0.316 0.096,-0.452 v -0.008 z m 0.937,0.306 a 2.269,2.269 0 0 0 -0.061,0.327 2.995,2.995 0 0 0 -0.018,0.326 c 0,0.112 0.007,0.224 0.021,0.333 0.015,0.11 0.033,0.218 0.058,0.321 0.044,0.185 0.116,0.344 0.219,0.48 a 0.887,0.887 0 0 0 0.429,0.3 1.338,1.338 0 0 0 0.445,0.073 1.461,1.461 0 0 0 0.444,-0.073 0.902,0.902 0 0 0 0.433,-0.3 c 0.104,-0.137 0.176,-0.296 0.216,-0.48 0.024,-0.104 0.043,-0.211 0.057,-0.321 a 2.45,2.45 0 0 0 0,-0.659 2.941,2.941 0 0 0 -0.057,-0.321 1.223,1.223 0 0 0 -0.216,-0.483 0.86,0.86 0 0 0 -0.433,-0.297 1.451,1.451 0 0 0 -0.673,-0.054 c -0.075,0.012 -0.147,0.03 -0.216,0.054 a 0.863,0.863 0 0 0 -0.426,0.3 c -0.1,0.137 -0.174,0.297 -0.222,0.48 z m 5.004,-1.506 1.764,3.096 -0.042,-3.096 h 0.924 v 4.308 h -1.05 l -1.854,-3.258 0.042,3.258 h -0.931 v -4.308 z"
       id="path69"
       inkscape:connector-curvature="0" />
  </g>
  <g
     id="g75"
     style="fill:#505656"
     transform="translate(-2.581203e-4)">
    <path
       d="m 24.37,254.681 c 0.104,-0.315 0.257,-0.572 0.459,-0.771 0.202,-0.199 0.467,-0.339 0.795,-0.423 0.12,-0.028 0.244,-0.05 0.372,-0.066 0.128,-0.016 0.256,-0.023 0.384,-0.023 a 2.887,2.887 0 0 1 0.816,0.096 c 0.32,0.08 0.582,0.22 0.786,0.42 0.204,0.2 0.354,0.458 0.45,0.774 a 3.66,3.66 0 0 1 0.096,1.439 c -0.021,0.164 -0.052,0.32 -0.096,0.468 -0.097,0.324 -0.248,0.585 -0.456,0.783 -0.208,0.198 -0.477,0.335 -0.805,0.411 -0.128,0.032 -0.26,0.055 -0.396,0.069 a 4.04,4.04 0 0 1 -0.414,0.021 3.096,3.096 0 0 1 -0.738,-0.089 c -0.324,-0.076 -0.59,-0.213 -0.798,-0.411 -0.208,-0.198 -0.36,-0.459 -0.456,-0.783 a 3.22,3.22 0 0 1 -0.093,-0.456 c -0.022,-0.164 -0.033,-0.33 -0.033,-0.498 0,-0.168 0.01,-0.335 0.03,-0.501 0.02,-0.165 0.052,-0.316 0.096,-0.452 v -0.008 z m 0.937,0.306 a 2.269,2.269 0 0 0 -0.061,0.327 2.995,2.995 0 0 0 -0.018,0.326 c 0,0.112 0.007,0.224 0.021,0.333 0.015,0.11 0.033,0.218 0.058,0.321 0.044,0.185 0.116,0.344 0.219,0.48 a 0.887,0.887 0 0 0 0.429,0.3 1.338,1.338 0 0 0 0.445,0.073 1.461,1.461 0 0 0 0.444,-0.073 0.902,0.902 0 0 0 0.433,-0.3 c 0.104,-0.137 0.176,-0.296 0.216,-0.48 0.024,-0.104 0.043,-0.211 0.057,-0.321 a 2.45,2.45 0 0 0 0,-0.659 2.941,2.941 0 0 0 -0.057,-0.321 1.223,1.223 0 0 0 -0.216,-0.483 0.86,0.86 0 0 0 -0.433,-0.297 1.451,1.451 0 0 0 -0.673,-0.054 c -0.075,0.012 -0.147,0.03 -0.216,0.054 a 0.863,0.863 0 0 0 -0.426,0.3 c -0.1,0.137 -0.174,0.297 -0.222,0.48 z m 4.22,-0.96 c 0.262,-0.36 0.837,-0.54 1.726,-0.54 l 1.38,-0.006 v 0.75 h -1.458 c -0.381,0.008 -0.659,0.09 -0.837,0.246 -0.179,0.155 -0.277,0.426 -0.298,0.81 l 2.593,-0.006 v 0.744 H 30.04 v 1.764 h -0.905 v -1.98 c 0,-0.828 0.131,-1.422 0.392,-1.782 z m 4.069,0 c 0.262,-0.36 0.837,-0.54 1.725,-0.54 l 1.38,-0.006 v 0.75 h -1.458 c -0.38,0.008 -0.659,0.09 -0.837,0.246 -0.178,0.155 -0.277,0.426 -0.297,0.81 l 2.592,-0.006 v 0.744 h -2.592 v 1.764 h -0.906 v -1.98 c -0.001,-0.828 0.13,-1.422 0.393,-1.782 z"
       id="path73"
       inkscape:connector-curvature="0" />
  </g>
  <path
     d="m 83.956742,245.83 h -34.541 a 1.16,1.16 0 0 1 -1.156,-1.156 v -2.137 c 0,-0.636 0.52,-1.156 1.156,-1.156 h 34.541 c 0.636,0 1.156,0.52 1.156,1.156 v 2.137 a 1.16,1.16 0 0 1 -1.156,1.156 z"
     id="path77"
     inkscape:connector-curvature="0"
     style="fill:#494747" />
  <path
     d="m 49.424742,241.381 c -0.601,0 -1.083,0.493 -1.142,1.112 0.059,0.619 0.541,1.112 1.142,1.112 h 34.524 c 0.601,0 1.083,-0.493 1.142,-1.112 -0.059,-0.619 -0.541,-1.112 -1.142,-1.112 z"
     id="path79"
     inkscape:connector-curvature="0"
     style="fill:#666666" />
  <g
     id="g83"
     style="fill:#dcdbe1"
     transform="translate(-2.581203e-4)">
    <path
       d="m 55.144,256.132 c 0.005,0.005 0.011,0.008 0.018,0.008 h 0.285 c 0.088,0 0.177,0.004 0.266,0.014 0.158,0.01 0.316,0.031 0.473,0.066 0.157,0.035 0.302,0.092 0.438,0.172 0.247,0.145 0.423,0.343 0.528,0.595 0.104,0.252 0.16,0.516 0.164,0.791 0.005,0.252 -0.038,0.494 -0.129,0.728 -0.091,0.234 -0.242,0.428 -0.452,0.581 a 1.46,1.46 0 0 1 -0.577,0.249 4.59,4.59 0 0 1 -0.634,0.073 h -0.336 l -1.28,-0.007 v 1.757 H 52.85 v -5.026 h 2.294 z m -0.014,0.896 h -1.225 v 1.483 h 1.287 c 0.257,0 0.479,-0.05 0.665,-0.15 0.187,-0.1 0.28,-0.295 0.28,-0.584 0.01,-0.322 -0.09,-0.526 -0.297,-0.612 a 1.828,1.828 0 0 0 -0.711,-0.13 v -0.007 z m 2.73,0.504 c 0.122,-0.368 0.3,-0.669 0.536,-0.899 0.235,-0.231 0.545,-0.396 0.927,-0.493 a 3.984,3.984 0 0 1 0.883,-0.105 3.27,3.27 0 0 1 0.951,0.112 c 0.374,0.093 0.68,0.257 0.917,0.489 0.238,0.233 0.413,0.535 0.525,0.903 a 4.205,4.205 0 0 1 0.147,1.092 c 0,0.201 -0.012,0.397 -0.035,0.588 a 3.353,3.353 0 0 1 -0.112,0.547 c -0.112,0.378 -0.289,0.682 -0.532,0.913 -0.242,0.231 -0.555,0.391 -0.938,0.479 a 3.3,3.3 0 0 1 -0.462,0.08 4.54,4.54 0 0 1 -0.483,0.025 c -0.145,0 -0.289,-0.01 -0.434,-0.028 a 4.61,4.61 0 0 1 -0.428,-0.077 c -0.378,-0.089 -0.688,-0.248 -0.931,-0.479 -0.243,-0.231 -0.42,-0.535 -0.532,-0.913 -0.047,-0.164 -0.083,-0.341 -0.108,-0.532 -0.025,-0.191 -0.038,-0.385 -0.038,-0.581 0,-0.196 0.012,-0.391 0.035,-0.585 0.022,-0.193 0.061,-0.369 0.111,-0.528 v -0.008 z m 1.092,0.358 a 2.5,2.5 0 0 0 -0.07,0.381 3.357,3.357 0 0 0 0.07,1.145 c 0.051,0.215 0.136,0.401 0.255,0.561 0.119,0.158 0.286,0.275 0.501,0.35 0.079,0.028 0.163,0.049 0.252,0.063 a 1.694,1.694 0 0 0 0.785,-0.063 c 0.214,-0.074 0.382,-0.191 0.504,-0.35 a 1.41,1.41 0 0 0 0.252,-0.561 c 0.027,-0.121 0.05,-0.246 0.066,-0.374 a 3.15,3.15 0 0 0 -0.066,-1.145 1.431,1.431 0 0 0 -0.252,-0.563 1.011,1.011 0 0 0 -0.504,-0.347 1.694,1.694 0 0 0 -0.785,-0.063 1.498,1.498 0 0 0 -0.252,0.063 0.996,0.996 0 0 0 -0.497,0.35 1.627,1.627 0 0 0 -0.259,0.561 z m 5.068,-1.758 1.162,3.864 0.98,-3.864 h 1.246 l 1.127,3.864 1.085,-3.864 h 1.085 l -1.555,5.026 h -1.295 l -1.07,-3.752 -0.938,3.752 h -1.288 l -1.666,-5.026 z m 8.379,1.186 c -0.191,0.203 -0.299,0.491 -0.322,0.865 l 2.927,-0.008 v 0.875 H 72.07 c 0,0.178 0.02,0.348 0.06,0.512 0.04,0.163 0.12,0.313 0.241,0.447 a 0.672,0.672 0 0 0 0.382,0.235 c 0.147,0.03 0.298,0.045 0.451,0.045 h 0.063 l 1.736,-0.007 v 0.875 h -1.785 a 4.24,4.24 0 0 1 -0.823,-0.077 1.705,1.705 0 0 1 -0.745,-0.356 c -0.28,-0.229 -0.476,-0.508 -0.588,-0.837 -0.112,-0.329 -0.173,-0.666 -0.182,-1.012 -0.005,-0.074 -0.006,-0.146 -0.004,-0.217 0.002,-0.071 0.006,-0.14 0.011,-0.21 0.051,-0.793 0.267,-1.377 0.647,-1.75 0.38,-0.373 0.95,-0.56 1.711,-0.56 l 1.758,-0.008 v 0.875 h -1.736 c -0.388,0.007 -0.677,0.11 -0.868,0.313 z m 6.131,-1.186 c 0.052,0.005 0.102,0.008 0.15,0.008 0.048,0 0.1,0.002 0.15,0.007 0.191,0.009 0.38,0.039 0.563,0.091 0.185,0.052 0.347,0.146 0.487,0.287 0.126,0.121 0.22,0.264 0.283,0.427 a 1.757,1.757 0 0 1 0.119,0.602 c 0.002,0.033 0.003,0.065 0.003,0.099 0.005,0.35 -0.075,0.652 -0.241,0.906 -0.166,0.255 -0.424,0.424 -0.773,0.508 l 1.253,2.093 h -1.19 l -1.105,-1.974 h -1.246 v 1.974 h -1.057 v -5.026 h 2.604 z m -0.252,0.896 h -1.295 v 1.267 h 1.295 a 0.06,0.06 0 0 0 0.028,0.007 h 0.027 c 0.225,0 0.429,-0.033 0.613,-0.101 0.184,-0.068 0.273,-0.246 0.27,-0.536 0,-0.299 -0.098,-0.479 -0.291,-0.539 -0.193,-0.06 -0.409,-0.091 -0.647,-0.091 z"
       id="path81"
       inkscape:connector-curvature="0" />
  </g>
  <circle
     cx="42.07674"
     cy="243.644"
     r="1.327"
     id="circle85"
     style="fill:#505656" />
  <circle
     cx="42.07674"
     cy="255.644"
     r="1.327"
     id="circle87"
     style="fill:#505656" />
  <g
     id="g93"
     style="fill:#85898a"
     transform="translate(-2.581203e-4)">
    <path
       d="m 77.164,140.996 c 0,0.303 0.054,0.53 0.16,0.68 0.106,0.15 0.323,0.225 0.65,0.225 0.326,0 0.542,-0.075 0.647,-0.225 0.104,-0.15 0.157,-0.375 0.157,-0.675 v -2.155 h 0.755 v 2.3 c 0,0.044 -0.001,0.085 -0.005,0.125 -0.003,0.127 -0.02,0.251 -0.047,0.373 a 0.95,0.95 0 0 1 -0.158,0.342 0.947,0.947 0 0 1 -0.412,0.325 c -0.169,0.07 -0.343,0.115 -0.522,0.135 a 2.16,2.16 0 0 1 -0.21,0.02 4.83,4.83 0 0 1 -0.402,0 2.149,2.149 0 0 1 -0.208,-0.02 1.821,1.821 0 0 1 -0.53,-0.13 0.97,0.97 0 0 1 -0.42,-0.33 0.916,0.916 0 0 1 -0.154,-0.342 1.93,1.93 0 0 1 -0.045,-0.373 c -0.004,-0.04 -0.006,-0.082 -0.006,-0.125 v -2.3 h 0.75 z m 4.271,-1.51 a 0.84,0.84 0 0 0 -0.413,0.103 c -0.111,0.065 -0.167,0.189 -0.167,0.373 0,0.14 0.047,0.24 0.143,0.3 0.095,0.06 0.205,0.09 0.332,0.09 l 1,-0.005 c 0.037,0.003 0.075,0.005 0.115,0.005 0.04,0 0.08,0.001 0.12,0.005 0.116,0.007 0.231,0.026 0.345,0.058 0.114,0.032 0.214,0.089 0.3,0.172 0.08,0.073 0.141,0.162 0.181,0.265 0.04,0.103 0.064,0.21 0.074,0.32 a 1.76,1.76 0 0 1 0.011,0.196 c -0.007,0.417 -0.122,0.699 -0.346,0.847 -0.223,0.148 -0.526,0.223 -0.909,0.223 H 80.21 v -0.64 h 1.89 a 0.974,0.974 0 0 0 0.433,-0.08 c 0.121,-0.057 0.17,-0.185 0.147,-0.385 -0.018,-0.157 -0.075,-0.253 -0.176,-0.29 a 1.09,1.09 0 0 0 -0.354,-0.06 l -0.89,-0.005 c -0.37,0.003 -0.663,-0.071 -0.878,-0.223 -0.215,-0.151 -0.321,-0.426 -0.317,-0.822 0.007,-0.417 0.122,-0.701 0.348,-0.853 0.225,-0.152 0.529,-0.228 0.912,-0.228 l 1.975,-0.005 v 0.64 h -1.865 z m 3.464,0.207 c -0.137,0.145 -0.214,0.351 -0.23,0.618 l 2.09,-0.005 v 0.625 h -2.095 c 0,0.126 0.015,0.248 0.043,0.365 0.028,0.117 0.085,0.224 0.172,0.32 0.077,0.09 0.168,0.146 0.272,0.167 0.105,0.021 0.213,0.032 0.323,0.032 h 0.044 l 1.239,-0.005 v 0.625 h -1.274 c -0.203,0 -0.399,-0.018 -0.588,-0.055 a 1.23,1.23 0 0 1 -0.532,-0.255 c -0.2,-0.163 -0.34,-0.362 -0.42,-0.598 a 2.445,2.445 0 0 1 -0.13,-0.722 1.35,1.35 0 0 1 -0.003,-0.155 c 0.002,-0.05 0.004,-0.1 0.008,-0.15 0.036,-0.566 0.19,-0.983 0.462,-1.25 0.272,-0.267 0.68,-0.4 1.223,-0.4 l 1.255,-0.005 v 0.625 h -1.239 c -0.277,0.005 -0.483,0.078 -0.62,0.223 z m 5.23,0.128 a 2.177,2.177 0 0 0 -0.175,0.825 v 0.163 a 1.708,1.708 0 0 0 0.07,0.509 0.774,0.774 0 0 0 0.165,0.298 c 0.08,0.09 0.172,0.146 0.277,0.167 0.104,0.021 0.212,0.032 0.322,0.032 h 0.044 l 1.24,-0.005 v 0.625 h -1.275 c -0.203,0 -0.398,-0.018 -0.587,-0.055 a 1.304,1.304 0 0 1 -0.953,-0.853 2.445,2.445 0 0 1 -0.13,-0.722 1.615,1.615 0 0 1 -0.002,-0.155 c 0.001,-0.05 0.004,-0.1 0.007,-0.15 0.037,-0.566 0.191,-0.983 0.463,-1.25 0.272,-0.267 0.679,-0.4 1.223,-0.4 l 1.255,-0.005 v 0.615 h -1.24 c -0.362,0.004 -0.598,0.124 -0.704,0.361 z m 4.331,-0.975 1.529,3.59 h -0.84 l -0.33,-0.855 h -1.56 l -0.32,0.855 h -0.795 l 1.515,-3.59 z m -0.955,2.095 h 1.069 l -0.545,-1.38 z m 3.904,-1.455 a 0.837,0.837 0 0 0 -0.412,0.103 c -0.112,0.065 -0.168,0.189 -0.168,0.373 0,0.14 0.048,0.24 0.143,0.3 a 0.61,0.61 0 0 0 0.333,0.09 l 1,-0.005 c 0.036,0.003 0.074,0.005 0.114,0.005 0.04,0 0.08,0.001 0.12,0.005 0.117,0.007 0.232,0.026 0.346,0.058 0.114,0.032 0.213,0.089 0.3,0.172 0.08,0.073 0.14,0.162 0.18,0.265 0.04,0.103 0.065,0.21 0.075,0.32 l 0.008,0.098 0.002,0.098 c -0.007,0.417 -0.121,0.699 -0.345,0.847 -0.224,0.148 -0.526,0.223 -0.91,0.223 h -2.01 v -0.64 h 1.89 a 0.972,0.972 0 0 0 0.433,-0.08 c 0.122,-0.057 0.171,-0.185 0.147,-0.385 -0.017,-0.157 -0.075,-0.253 -0.175,-0.29 a 1.101,1.101 0 0 0 -0.355,-0.06 l -0.89,-0.005 c -0.37,0.003 -0.662,-0.071 -0.878,-0.223 -0.215,-0.151 -0.32,-0.426 -0.317,-0.822 0.007,-0.417 0.123,-0.701 0.348,-0.853 0.226,-0.152 0.529,-0.228 0.913,-0.228 l 1.975,-0.005 v 0.64 h -1.867 z m 3.776,0 a 0.84,0.84 0 0 0 -0.413,0.103 c -0.111,0.065 -0.167,0.189 -0.167,0.373 0,0.14 0.047,0.24 0.143,0.3 0.095,0.06 0.205,0.09 0.332,0.09 l 1,-0.005 c 0.037,0.003 0.075,0.005 0.115,0.005 0.04,0 0.08,0.001 0.12,0.005 0.116,0.007 0.231,0.026 0.345,0.058 0.114,0.032 0.214,0.089 0.3,0.172 0.08,0.073 0.141,0.162 0.181,0.265 0.04,0.103 0.064,0.21 0.074,0.32 a 1.76,1.76 0 0 1 0.011,0.196 c -0.007,0.417 -0.122,0.699 -0.346,0.847 -0.223,0.148 -0.526,0.223 -0.909,0.223 H 99.96 v -0.64 h 1.891 a 0.974,0.974 0 0 0 0.433,-0.08 c 0.121,-0.057 0.17,-0.185 0.147,-0.385 -0.018,-0.157 -0.075,-0.253 -0.176,-0.29 a 1.09,1.09 0 0 0 -0.354,-0.06 l -0.89,-0.005 c -0.37,0.003 -0.663,-0.071 -0.878,-0.223 -0.215,-0.151 -0.321,-0.426 -0.317,-0.822 0.007,-0.417 0.122,-0.701 0.348,-0.853 0.225,-0.152 0.529,-0.228 0.912,-0.228 l 1.975,-0.005 v 0.64 h -1.866 z m 3.464,0.207 c -0.137,0.145 -0.214,0.351 -0.23,0.618 l 2.09,-0.005 v 0.625 h -2.095 c 0,0.126 0.015,0.248 0.043,0.365 0.028,0.117 0.085,0.224 0.172,0.32 0.077,0.09 0.168,0.146 0.272,0.167 0.105,0.021 0.213,0.032 0.323,0.032 h 0.044 l 1.239,-0.005 v 0.625 h -1.274 c -0.203,0 -0.399,-0.018 -0.588,-0.055 a 1.23,1.23 0 0 1 -0.532,-0.255 c -0.2,-0.163 -0.34,-0.362 -0.42,-0.598 a 2.445,2.445 0 0 1 -0.13,-0.722 1.35,1.35 0 0 1 -0.003,-0.155 c 0.002,-0.05 0.004,-0.1 0.008,-0.15 0.036,-0.566 0.19,-0.983 0.462,-1.25 0.272,-0.267 0.68,-0.4 1.223,-0.4 l 1.255,-0.005 v 0.625 h -1.239 c -0.277,0.005 -0.483,0.078 -0.62,0.223 z m 2.15,-0.217 v -0.625 h 3.101 v 0.625 h -1.165 v 2.96 h -0.78 v -2.96 z"
       id="path89"
       inkscape:connector-curvature="0" />
    <path
       d="m 109.894,139.476 v -0.625 h 3.101 v 0.625 h -1.165 v 2.96 h -0.78 v -2.96 z m 4.325,0.217 c -0.137,0.145 -0.213,0.351 -0.229,0.618 l 2.09,-0.005 v 0.625 h -2.095 c 0,0.126 0.014,0.248 0.042,0.365 0.028,0.117 0.086,0.224 0.173,0.32 0.076,0.09 0.167,0.146 0.272,0.167 0.104,0.021 0.212,0.032 0.322,0.032 h 0.044 l 1.24,-0.005 v 0.625 h -1.275 c -0.203,0 -0.398,-0.018 -0.587,-0.055 a 1.304,1.304 0 0 1 -0.953,-0.853 2.445,2.445 0 0 1 -0.13,-0.722 1.615,1.615 0 0 1 -0.002,-0.155 c 0.001,-0.05 0.004,-0.1 0.007,-0.15 0.037,-0.566 0.191,-0.983 0.463,-1.25 0.272,-0.267 0.679,-0.4 1.223,-0.4 l 1.255,-0.005 v 0.625 h -1.24 c -0.277,0.005 -0.484,0.078 -0.62,0.223 z m 4.86,-0.847 0.83,2.76 0.7,-2.76 h 0.89 l 0.805,2.76 0.775,-2.76 h 0.774 l -1.109,3.59 h -0.925 l -0.766,-2.68 -0.67,2.68 h -0.92 l -1.189,-3.59 z m 5.13,3.59 v -3.59 h 0.79 v 3.59 z m 1.165,-2.96 v -0.625 h 3.1 v 0.625 h -1.165 v 2.96 h -0.78 v -2.96 z m 4.22,0.825 h 1.385 v -1.455 h 0.756 v 3.59 h -0.756 v -1.5 h -1.385 v 1.5 h -0.755 v -3.59 h 0.755 z m 5.985,-0.815 a 0.84,0.84 0 0 0 -0.413,0.103 c -0.111,0.065 -0.167,0.189 -0.167,0.373 0,0.14 0.047,0.24 0.143,0.3 0.095,0.06 0.205,0.09 0.332,0.09 l 1,-0.005 c 0.037,0.003 0.075,0.005 0.115,0.005 0.04,0 0.08,0.001 0.12,0.005 0.116,0.007 0.231,0.026 0.345,0.058 0.114,0.032 0.214,0.089 0.3,0.172 0.08,0.073 0.141,0.162 0.181,0.265 0.04,0.103 0.064,0.21 0.074,0.32 a 1.76,1.76 0 0 1 0.011,0.196 c -0.007,0.417 -0.122,0.699 -0.346,0.847 -0.223,0.148 -0.526,0.223 -0.909,0.223 h -2.011 v -0.64 h 1.891 a 0.974,0.974 0 0 0 0.433,-0.08 c 0.121,-0.057 0.17,-0.185 0.147,-0.385 -0.018,-0.157 -0.075,-0.253 -0.176,-0.29 a 1.09,1.09 0 0 0 -0.354,-0.06 l -0.89,-0.005 c -0.37,0.003 -0.663,-0.071 -0.878,-0.223 -0.215,-0.151 -0.321,-0.426 -0.317,-0.822 0.007,-0.417 0.122,-0.701 0.348,-0.853 0.225,-0.152 0.529,-0.228 0.912,-0.228 l 1.975,-0.005 v 0.64 h -1.866 z m 3.345,1.51 c 0,0.303 0.053,0.53 0.16,0.68 0.106,0.15 0.323,0.225 0.649,0.225 0.327,0 0.543,-0.075 0.647,-0.225 0.105,-0.15 0.158,-0.375 0.158,-0.675 v -2.155 h 0.755 v 2.3 c 0,0.044 -0.002,0.085 -0.005,0.125 -0.004,0.127 -0.02,0.251 -0.048,0.373 -0.028,0.122 -0.081,0.236 -0.157,0.342 a 0.95,0.95 0 0 1 -0.413,0.325 c -0.168,0.07 -0.342,0.115 -0.522,0.135 -0.069,0.01 -0.14,0.017 -0.21,0.02 a 4.751,4.751 0 0 1 -0.402,0 2.1,2.1 0 0 1 -0.207,-0.02 1.821,1.821 0 0 1 -0.53,-0.13 0.964,0.964 0 0 1 -0.575,-0.672 2.002,2.002 0 0 1 -0.045,-0.373 c -0.003,-0.04 -0.005,-0.082 -0.005,-0.125 v -2.3 h 0.75 z m 4.739,-2.15 c 0.004,0.003 0.008,0.005 0.013,0.005 h 0.203 c 0.063,0 0.126,0.003 0.189,0.01 0.113,0.007 0.226,0.022 0.338,0.048 0.111,0.025 0.216,0.066 0.313,0.123 a 0.863,0.863 0 0 1 0.377,0.425 c 0.075,0.18 0.114,0.368 0.118,0.565 0.003,0.18 -0.027,0.354 -0.093,0.52 -0.066,0.166 -0.173,0.305 -0.322,0.415 -0.127,0.09 -0.265,0.149 -0.413,0.177 a 3.082,3.082 0 0 1 -0.452,0.053 h -0.24 l -0.915,-0.005 v 1.255 h -0.755 v -3.59 h 1.639 z m -0.01,0.64 h -0.875 v 1.06 h 0.92 c 0.184,0 0.342,-0.036 0.476,-0.107 0.133,-0.072 0.2,-0.211 0.2,-0.417 0.006,-0.23 -0.064,-0.376 -0.213,-0.438 -0.149,-0.062 -0.317,-0.092 -0.508,-0.092 z m 2.941,0.207 c -0.137,0.145 -0.214,0.351 -0.23,0.618 l 2.09,-0.005 v 0.625 h -2.095 c 0,0.126 0.015,0.248 0.043,0.365 0.028,0.117 0.085,0.224 0.172,0.32 0.077,0.09 0.168,0.146 0.272,0.167 0.105,0.021 0.213,0.032 0.323,0.032 h 0.044 l 1.239,-0.005 v 0.625 h -1.274 c -0.203,0 -0.399,-0.018 -0.588,-0.055 a 1.23,1.23 0 0 1 -0.532,-0.255 c -0.2,-0.163 -0.34,-0.362 -0.42,-0.598 a 2.445,2.445 0 0 1 -0.13,-0.722 1.35,1.35 0 0 1 -0.003,-0.155 c 0.002,-0.05 0.004,-0.1 0.008,-0.15 0.036,-0.566 0.19,-0.983 0.462,-1.25 0.272,-0.267 0.68,-0.4 1.223,-0.4 l 1.255,-0.005 v 0.625 h -1.239 c -0.278,0.005 -0.484,0.078 -0.62,0.223 z m 4.38,-0.847 c 0.036,0.003 0.072,0.005 0.107,0.005 0.035,0 0.07,0.001 0.107,0.005 0.137,0.007 0.271,0.028 0.402,0.065 0.131,0.037 0.248,0.105 0.348,0.205 0.09,0.087 0.157,0.188 0.202,0.305 a 1.29,1.29 0 0 1 0.088,0.5 c 0.003,0.25 -0.055,0.466 -0.173,0.647 -0.118,0.181 -0.303,0.302 -0.553,0.362 l 0.896,1.495 h -0.85 l -0.79,-1.41 h -0.891 v 1.41 h -0.755 v -3.59 h 1.862 z m -0.181,0.64 h -0.925 v 0.905 h 0.925 c 0.007,0.003 0.014,0.005 0.021,0.005 h 0.02 c 0.16,0 0.307,-0.024 0.438,-0.072 0.132,-0.048 0.196,-0.176 0.193,-0.383 0,-0.213 -0.069,-0.341 -0.208,-0.385 -0.139,-0.044 -0.292,-0.065 -0.463,-0.065 v -0.005 z m 4.308,-0.185 c 0.219,-0.3 0.698,-0.45 1.438,-0.45 l 1.15,-0.005 v 0.625 h -1.215 c -0.316,0.006 -0.55,0.075 -0.697,0.205 -0.148,0.13 -0.231,0.355 -0.248,0.675 l 2.16,-0.005 v 0.62 h -2.16 v 1.47 h -0.755 v -1.65 c -0.001,-0.69 0.109,-1.185 0.327,-1.485 z m 4.918,-0.455 1.53,3.59 h -0.84 l -0.33,-0.855 h -1.561 l -0.319,0.855 h -0.796 l 1.516,-3.59 z m -0.956,2.095 h 1.07 l -0.545,-1.38 z m 3.845,-2.095 0.915,2.755 0.915,-2.755 h 1.105 v 3.59 h -0.74 l 0.06,-2.795 -0.92,2.795 h -0.8 l -0.95,-2.825 0.075,2.825 h -0.77 v -3.59 z m 3.68,3.59 v -3.59 h 0.79 v 3.59 z m 2.31,-2.615 a 2.158,2.158 0 0 0 -0.175,0.825 v 0.163 a 1.706,1.706 0 0 0 0.069,0.509 0.787,0.787 0 0 0 0.165,0.298 0.5,0.5 0 0 0 0.277,0.167 c 0.105,0.021 0.213,0.032 0.323,0.032 h 0.044 l 1.239,-0.005 v 0.625 h -1.274 c -0.203,0 -0.399,-0.018 -0.588,-0.055 a 1.23,1.23 0 0 1 -0.532,-0.255 c -0.2,-0.163 -0.34,-0.362 -0.42,-0.598 a 2.445,2.445 0 0 1 -0.13,-0.722 1.35,1.35 0 0 1 -0.003,-0.155 c 0.002,-0.05 0.004,-0.1 0.008,-0.15 0.036,-0.566 0.19,-0.983 0.462,-1.25 0.272,-0.267 0.68,-0.4 1.223,-0.4 l 1.255,-0.005 v 0.615 h -1.239 c -0.362,0.004 -0.597,0.124 -0.704,0.361 z m 2.371,0.025 a 1.56,1.56 0 0 1 0.382,-0.643 c 0.169,-0.165 0.39,-0.283 0.663,-0.353 a 2.987,2.987 0 0 1 0.975,-0.06 c 0.116,0.013 0.229,0.035 0.335,0.065 0.267,0.067 0.485,0.184 0.655,0.35 0.17,0.166 0.295,0.382 0.375,0.645 a 2.902,2.902 0 0 1 0.104,0.78 c 0,0.144 -0.008,0.284 -0.024,0.42 -0.016,0.136 -0.044,0.267 -0.08,0.39 a 1.45,1.45 0 0 1 -0.38,0.653 1.412,1.412 0 0 1 -0.67,0.342 c -0.107,0.027 -0.217,0.046 -0.33,0.058 -0.113,0.012 -0.229,0.018 -0.346,0.018 -0.103,0 -0.206,-0.007 -0.31,-0.02 a 3.348,3.348 0 0 1 -0.305,-0.055 1.407,1.407 0 0 1 -0.665,-0.342 1.433,1.433 0 0 1 -0.38,-0.653 c -0.034,-0.117 -0.06,-0.243 -0.078,-0.38 -0.018,-0.137 -0.027,-0.275 -0.027,-0.415 0,-0.14 0.008,-0.279 0.025,-0.417 0.017,-0.138 0.043,-0.264 0.08,-0.377 v -0.006 z m 0.779,0.255 c -0.023,0.09 -0.04,0.181 -0.05,0.272 -0.01,0.091 -0.015,0.183 -0.015,0.272 0,0.093 0.006,0.186 0.018,0.277 0.012,0.092 0.027,0.181 0.047,0.268 0.037,0.153 0.098,0.287 0.183,0.4 a 0.727,0.727 0 0 0 0.357,0.25 1.204,1.204 0 0 0 0.74,0 0.745,0.745 0 0 0 0.36,-0.25 c 0.086,-0.113 0.146,-0.247 0.18,-0.4 a 2.315,2.315 0 0 0 0,-1.085 1.017,1.017 0 0 0 -0.18,-0.402 0.717,0.717 0 0 0 -0.36,-0.248 1.216,1.216 0 0 0 -0.74,0 0.716,0.716 0 0 0 -0.354,0.25 1.152,1.152 0 0 0 -0.186,0.4 z m 4.325,-1.255 0.915,2.755 0.915,-2.755 h 1.105 v 3.59 h -0.74 l 0.06,-2.795 -0.92,2.795 h -0.8 l -0.95,-2.825 0.075,2.825 h -0.77 v -3.59 z m 6.72,0 0.915,2.755 0.915,-2.755 h 1.105 v 3.59 h -0.74 l 0.06,-2.795 -0.92,2.795 h -0.8 l -0.95,-2.825 0.075,2.825 h -0.77 v -3.59 z m 5.506,0 1.529,3.59 h -0.84 l -0.33,-0.855 h -1.56 l -0.32,0.855 h -0.795 l 1.515,-3.59 z m -0.955,2.095 h 1.069 l -0.545,-1.38 z m 4.594,-2.095 c 0.036,0.003 0.072,0.005 0.107,0.005 0.035,0 0.07,0.001 0.107,0.005 0.137,0.007 0.271,0.028 0.402,0.065 0.131,0.037 0.248,0.105 0.348,0.205 0.09,0.087 0.157,0.188 0.202,0.305 a 1.29,1.29 0 0 1 0.088,0.5 c 0.003,0.25 -0.055,0.466 -0.173,0.647 -0.118,0.181 -0.303,0.302 -0.553,0.362 l 0.896,1.495 h -0.85 l -0.79,-1.41 h -0.891 v 1.41 h -0.755 v -3.59 h 1.862 z m -0.18,0.64 h -0.925 v 0.905 h 0.925 c 0.007,0.003 0.014,0.005 0.021,0.005 h 0.02 c 0.16,0 0.307,-0.024 0.438,-0.072 0.132,-0.048 0.196,-0.176 0.193,-0.383 0,-0.213 -0.069,-0.341 -0.208,-0.385 -0.139,-0.044 -0.292,-0.065 -0.463,-0.065 v -0.005 z m 2.825,-0.64 v 1.725 l 1.415,-1.725 h 0.905 l -1.44,1.755 1.455,1.835 h -0.965 l -1.37,-1.785 v 1.785 h -0.755 v -3.59 z m 4.405,1 c 0.087,-0.264 0.214,-0.478 0.383,-0.643 a 1.43,1.43 0 0 1 0.662,-0.353 2.96,2.96 0 0 1 0.975,-0.06 c 0.117,0.013 0.229,0.035 0.336,0.065 0.267,0.067 0.484,0.184 0.654,0.35 0.17,0.166 0.295,0.382 0.375,0.645 a 2.9,2.9 0 0 1 0.105,0.78 c 0,0.144 -0.009,0.284 -0.025,0.42 -0.016,0.136 -0.043,0.267 -0.08,0.39 -0.08,0.27 -0.206,0.488 -0.38,0.653 a 1.402,1.402 0 0 1 -0.67,0.342 c -0.106,0.027 -0.217,0.046 -0.33,0.058 -0.113,0.012 -0.229,0.018 -0.345,0.018 -0.104,0 -0.207,-0.007 -0.311,-0.02 a 3.412,3.412 0 0 1 -0.305,-0.055 1.417,1.417 0 0 1 -0.665,-0.342 1.45,1.45 0 0 1 -0.38,-0.653 3.014,3.014 0 0 1 -0.105,-0.795 c 0,-0.14 0.009,-0.279 0.025,-0.417 0.016,-0.138 0.043,-0.264 0.08,-0.377 v -0.006 z m 0.78,0.255 a 2.292,2.292 0 0 0 0,1.089 c 0.036,0.153 0.098,0.287 0.183,0.4 a 0.727,0.727 0 0 0 0.357,0.25 1.216,1.216 0 0 0 0.559,0.045 1.03,1.03 0 0 0 0.18,-0.045 0.745,0.745 0 0 0 0.36,-0.25 c 0.087,-0.113 0.146,-0.247 0.18,-0.4 a 2.493,2.493 0 0 0 0.066,-0.545 2.585,2.585 0 0 0 -0.066,-0.54 1.003,1.003 0 0 0 -0.18,-0.402 0.717,0.717 0 0 0 -0.36,-0.248 1.213,1.213 0 0 0 -0.739,0 c -0.153,0.053 -0.272,0.137 -0.355,0.25 -0.083,0.113 -0.145,0.247 -0.185,0.4 z m 4.17,-1.255 1.47,2.58 -0.035,-2.58 h 0.77 v 3.59 h -0.875 l -1.545,-2.715 0.035,2.715 h -0.774 v -3.59 z m 3.723,3.537 a 0.991,0.991 0 0 1 -0.548,-0.317 1.008,1.008 0 0 1 -0.271,-0.505 3.03,3.03 0 0 1 -0.055,-0.575 v -2.14 h 0.755 v 1.97 c -0.003,0.333 0.033,0.588 0.11,0.765 0.076,0.177 0.313,0.265 0.71,0.265 l 0.89,-0.005 v 0.595 h -0.955 c -0.226,0 -0.438,-0.018 -0.636,-0.053 z m 2.266,-3.537 0.885,1.37 0.9,-1.37 h 0.875 l -1.385,2.005 v 1.585 h -0.755 v -1.585 l -1.365,-2.005 z"
       id="path91"
       inkscape:connector-curvature="0" />
  </g>
</svg>
