<?xml version="1.0" encoding="UTF-8" standalone="no"?>
<svg
   xmlns:dc="http://purl.org/dc/elements/1.1/"
   xmlns:cc="http://creativecommons.org/ns#"
   xmlns:rdf="http://www.w3.org/1999/02/22-rdf-syntax-ns#"
   xmlns:svg="http://www.w3.org/2000/svg"
   xmlns="http://www.w3.org/2000/svg"
   xmlns:sodipodi="http://sodipodi.sourceforge.net/DTD/sodipodi-0.dtd"
   xmlns:inkscape="http://www.inkscape.org/namespaces/inkscape"
   viewBox="0 0 285.71429 199.99999"
   version="1.1"
   id="svg42"
   sodipodi:docname="game.svg"
   width="285.71429"
   height="200"
   inkscape:version="0.92.4 5da689c313, 2019-01-14">
  <metadata
     id="metadata48">
    <rdf:RDF>
      <cc:Work
         rdf:about="">
        <dc:format>image/svg+xml</dc:format>
        <dc:type
           rdf:resource="http://purl.org/dc/dcmitype/StillImage" />
      </cc:Work>
    </rdf:RDF>
  </metadata>
  <defs
     id="defs46" />
  <sodipodi:namedview
     pagecolor="#ffffff"
     bordercolor="#666666"
     borderopacity="1"
     objecttolerance="10"
     gridtolerance="10"
     guidetolerance="10"
     inkscape:pageopacity="0"
     inkscape:pageshadow="2"
     inkscape:window-width="640"
     inkscape:window-height="480"
     id="namedview44"
     showgrid="false"
     inkscape:zoom="0.94849997"
     inkscape:cx="142.85715"
     inkscape:cy="99.999992"
     inkscape:window-x="0"
     inkscape:window-y="0"
     inkscape:window-maximized="0"
     inkscape:current-layer="svg42">
    <inkscape:grid
       type="xygrid"
       id="grid858"
       originx="0"
       originy="-1.5258788e-05" />
  </sodipodi:namedview>
  <path
     d="m 142.85714,200 c 18.08144,0 127.26018,-1.38026 129.74465,-1.38026 11.87026,0 13.1125,-8.4196 13.1125,-12.00828 0,-3.58869 -0.96619,-164.389238 -1.24224,-173.775021 C 284.196,3.312629 277.29469,2.346446 271.63561,2.070393 265.97654,1.794341 159.97239,0 142.85714,0 125.74189,0 19.599724,1.656315 14.078675,1.932367 8.5576259,2.20842 1.6563147,3.174603 1.242236,12.698413 0.96618357,22.222222 0,183.02277 0,186.61146 c 0,3.58868 1.242236,12.00828 13.112491,12.00828 2.484472,0 111.663219,1.38026 129.744649,1.38026 z"
     id="path2"
     inkscape:connector-curvature="0"
     style="fill:#cccccc" />
  <path
     d="m 243.20221,1.380262 h 0.69013 V 198.89579 h -0.69013 z m -201.380264,0 h 0.690131 V 198.89579 h -0.690131 z"
     id="path4"
     inkscape:connector-curvature="0"
     style="fill:#666666" />
  <path
     d="M 246.37681,95.928226 H 34.230504 c -7.31539,0 -13.250518,-5.935127 -13.250518,-13.250517 V 25.120773 c 0,-7.31539 5.935128,-13.250518 13.250518,-13.250518 H 246.37681 c 7.31539,0 13.25052,5.935128 13.25052,13.250518 v 57.694962 c -0.13803,7.177364 -6.07315,13.112491 -13.25052,13.112491 z"
     id="path6"
     inkscape:connector-curvature="0"
     style="fill:#fee145" />
  <circle
     cx="12.146308"
     cy="185.50725"
     r="5.2449965"
     id="circle8"
     style="fill:#666666" />
  <circle
     cx="273.70599"
     cy="185.50725"
     r="5.2449965"
     id="circle10"
     style="fill:#666666" />
  <path
     d="M 220.42788,139.13043 H 65.286404 c -3.450655,0 -6.349206,-2.89855 -6.349206,-6.3492 v -2.48447 c 0,-3.45066 2.898551,-6.34921 6.349206,-6.34921 H 220.42788 c 3.45066,0 6.34921,2.89855 6.34921,6.34921 v 2.48447 c 0,3.45065 -2.89855,6.3492 -6.34921,6.3492 z"
     id="path12"
     inkscape:connector-curvature="0"
     style="fill:#b2b2b2" />
  <path
     d="m 115.804,126.294 h 53.83023 v 10.48999 H 115.804 Z"
     id="path14"
     inkscape:connector-curvature="0"
     style="fill:#999999" />
  <path
     d="M 59.075224,133.47136 H 226.63906 v -0.27605 H 59.075224 Z m 0.552105,1.65631 H 226.22498 c 0,-0.13802 0.13803,-0.27605 0.13803,-0.27605 H 59.489303 c 0,0.13803 0.138026,0.13803 0.138026,0.27605 z m 1.10421,1.79434 H 224.98275 c 0.13802,-0.13802 0.13802,-0.27605 0.27605,-0.27605 H 60.455487 c 0.138026,0 0.138026,0.13803 0.276052,0.27605 z m -1.656315,-5.52104 v 0.27605 H 226.77709 v -0.27605 z m 165.907526,-5.245 H 60.731539 c -0.138026,0.13803 -0.138026,0.27605 -0.276052,0.27605 H 225.2588 Z m 1.65631,3.45065 H 59.075224 v 0.27606 H 226.77709 c -0.13803,0 -0.13803,-0.13803 -0.13803,-0.27606 z m -0.41408,-1.65631 H 59.627329 c 0,0.13803 -0.138026,0.27605 -0.138026,0.27605 H 226.36301 c -0.13803,0 -0.13803,-0.13802 -0.13803,-0.27605 z"
     id="path16"
     inkscape:connector-curvature="0"
     style="fill:#666666" />
  <g
     id="g28"
     style="fill-rule:evenodd">
    <path
       d="m 31.331952,87.784676 c -2.484472,0 -4.140787,-1.794341 -4.140787,-3.864734 0,-2.20842 1.656315,-4.002761 4.140787,-3.864734 h 23.464457 c 2.484472,0 4.140787,1.79434 4.140787,3.864734 0,2.208419 -1.656315,3.864734 -4.140787,3.864734 z"
       id="path18"
       inkscape:connector-curvature="0"
       style="fill:#b2b2b2" />
    <path
       d="m 31.331952,80.883365 c -1.932367,0 -3.174603,1.380262 -3.174603,2.898551 0,1.656314 1.242236,2.89855 3.174603,2.89855 h 23.464457 c 1.932367,0 3.174603,-1.380262 3.174603,-2.89855 0,-1.656315 -1.242236,-2.898551 -3.174603,-2.898551 z"
       id="path20"
       inkscape:connector-curvature="0"
       style="fill:#ffffff" />
    <g
       id="g26"
       style="fill:#b2b2b2">
      <path
         d="m 30.365768,81.987575 h 1.10421 l 1.656315,2.622498 v -2.622498 h 1.10421 v 3.726708 h -1.10421 l -1.656315,-2.622499 v 2.622499 h -1.10421 v -3.726708 m 10.075914,0.414078 h 1.10421 v 0.414079 h 0.552105 v 0.414079 h -0.552105 v 2.484472 h -1.10421 v -2.484472 h -0.552104 v -0.414079 h 0.552104 v -0.414079 m -5.521048,0.828158 h 1.104209 v 2.484472 h -1.104209 v -2.484472 m 0,-1.242236 h 1.104209 v 0.690131 h -1.104209 v -0.690131 m 19.875775,2.484472 v 0.552105 c 0,0.414078 -0.276052,0.552104 -0.414078,0.552104 -0.276053,0 -0.414079,-0.138026 -0.414079,-0.552104 v -1.10421 c 0,-0.414079 0.276052,-0.552105 0.414079,-0.552105 0.138026,0 0.414078,0.138026 0.414078,0.552105 z m -0.414078,-1.380263 c -0.828158,0 -1.656315,0.552105 -1.656315,1.380263 0,0.828157 0.690131,1.380262 1.656315,1.380262 0.828157,0 1.656314,-0.552105 1.656314,-1.380262 -0.138026,-0.828158 -0.828157,-1.380263 -1.656314,-1.380263 z m -3.174603,-1.104209 h 1.104209 v 3.726708 h -1.104209 v -0.138027 c -0.414079,0.276053 -0.966184,0.276053 -1.242236,0.138027 -0.138027,0 -0.828158,-0.414079 -0.828158,-1.242236 0,-0.690131 0.552105,-1.380263 1.380263,-1.242236 0.276052,0 0.414078,0.138026 0.690131,0.276052 z m 0,2.484472 v -0.414079 c 0,-0.414079 -0.276053,-0.414079 -0.414079,-0.414079 -0.138026,0 -0.414079,0.138027 -0.414079,0.414079 v 0.828157 c 0,0.414079 0.276053,0.414079 0.414079,0.414079 0.138026,0 0.414079,-0.138026 0.414079,-0.414079 z M 38.647342,83.091784 c 0.414078,0 1.242236,0.276053 1.242236,1.242236 v 1.380263 h -1.10421 v -1.656315 c 0,-0.276052 -0.138026,-0.414079 -0.552105,-0.414079 -0.276053,0 -0.552105,0.276053 -0.552105,0.414079 v 1.656315 h -1.10421 v -2.484472 h 1.10421 v 0.276052 c 0.276053,-0.276052 0.552105,-0.414079 0.966184,-0.414079 z m 8.971704,0 c 0.414079,0 1.242236,0.276053 1.242236,1.242236 v 1.380263 h -1.10421 v -1.656315 c 0,-0.276052 -0.138026,-0.414079 -0.552105,-0.414079 -0.276052,0 -0.552105,0.276053 -0.552105,0.414079 v 1.656315 h -1.104209 v -2.484472 h 1.104209 v 0.276052 c 0.276053,-0.276052 0.552105,-0.414079 0.966184,-0.414079 z m -4.416839,0.966184 c 0,-0.276052 0,-0.414079 0.138026,-0.414079 0.138026,-0.138026 0.276053,-0.276052 0.414079,-0.276052 0.138026,0 0.276052,0.138026 0.414078,0.276052 0.138027,0.138027 0.138027,0.276053 0.138027,0.414079 z m 0.966183,0.690131 v 0.138026 c 0,0.414079 -0.276052,0.552105 -0.414078,0.552105 -0.138026,0 -0.414079,-0.138026 -0.414079,-0.552105 V 84.33402 h 2.070393 c 0,-0.828157 -0.690131,-1.380262 -1.656314,-1.380262 -0.966184,0 -1.656315,0.552105 -1.656315,1.380262 0,0.828158 0.690131,1.380263 1.656315,1.380263 0.690131,0 1.380262,-0.414079 1.518288,-0.966184 z m 11.870255,-1.932367 -0.138026,-0.828157 h 0.276053 c 0.138026,0 0.276052,0.138026 0.276052,0.276052 0,0.138026 -0.138026,0.276053 -0.276052,0.276053 l 0.414078,0.276052 h -0.138026 l -0.276052,-0.414079 h -0.138027 z m 0.138027,-0.414079 c 0.138026,0 0.138026,0 0.138026,-0.138026 0,-0.138026 -0.138026,-0.138026 -0.138026,-0.138026 h -0.138027 v 0.276052 z"
         id="path22"
         inkscape:connector-curvature="0" />
      <path
         d="m 55.48654,82.401653 c 0,-0.414078 0.276053,-0.690131 0.690132,-0.690131 0.414078,0 0.690131,0.276053 0.690131,0.690131 0,0.414079 -0.276053,0.690131 -0.690131,0.690131 -0.414079,0.138027 -0.690132,-0.276052 -0.690132,-0.690131 z m 0.690132,0.690131 c 0.276052,0 0.552104,-0.276052 0.552104,-0.552104 0,-0.276053 -0.276052,-0.552105 -0.552104,-0.552105 -0.276053,0 -0.552105,0.276052 -0.552105,0.552105 0,0.276052 0.276052,0.552104 0.552105,0.552104 z"
         id="path24"
         inkscape:connector-curvature="0" />
    </g>
  </g>
  <path
     d="m 47.204969,50.379572 h -0.690131 v -2.20842 h 2.484472 c 0.414079,0 0.690131,0.276053 0.828157,0.690132 v 1.518288 H 49.137336 V 48.99931 c 0,-0.276053 -0.138026,-0.414079 -0.276052,-0.414079 h -0.414079 v 1.794341 h -0.690131 v -1.794341 h -0.552105 z m 10.075914,0 h -0.690131 v -2.20842 h 2.484472 c 0.414079,0 0.690131,0.276053 0.828158,0.690132 v 1.518288 H 59.213251 V 48.99931 c 0,-0.276053 -0.138027,-0.414079 -0.276053,-0.414079 h -0.414079 v 1.794341 H 57.832988 V 48.585231 H 57.280883 Z M 39.199448,49.413388 c 0.276052,0.276053 0.414079,0.552105 0.690131,0.828158 h -0.690131 l -0.552105,-0.828158 h -0.690131 v 0.828158 h -0.690131 v -2.20842 h 1.794341 c 0.414078,0 0.828157,0.414079 0.690131,0.828158 0,0.414078 -0.276053,0.552104 -0.552105,0.552104 z m -1.380262,-0.276052 h 0.966183 c 0.138026,0 0.138026,-0.138026 0.138026,-0.276052 0,-0.138027 0,-0.276053 -0.138026,-0.276053 h -0.966183 z m 8.419599,1.242236 h -2.070393 c -0.276052,-0.138026 -0.414079,-0.276052 -0.414079,-0.690131 0,-0.276053 0.276053,-0.552105 0.552105,-0.690131 h 1.242236 c 0,-0.276053 -0.138026,-0.414079 -0.414078,-0.414079 h -1.10421 v -0.414079 h 1.380262 c 0.552105,0 0.966184,0.414079 0.966184,0.966184 v 1.242236 z m -0.690131,-0.966184 h -0.828157 c -0.138026,0 -0.276053,0.138027 -0.276053,0.276053 0,0.138026 0.138027,0.276052 0.276053,0.276052 h 0.828157 z m -19.047619,0.966184 v -0.414079 h 1.518289 c 0.138026,0 0.276052,0 0.276052,-0.138026 0,-0.138026 0,-0.138026 -0.138026,-0.276052 h -1.10421 c -0.414079,0 -0.552105,-0.276053 -0.552105,-0.552105 0,-0.276053 0.138026,-0.690131 0.552105,-0.690131 h 1.932367 v 0.414078 h -1.518288 c -0.138026,0 -0.138026,0.138027 -0.138026,0.138027 0,0.138026 0,0.138026 0.138026,0.276052 h 1.10421 c 0.276052,0 0.414078,0.138026 0.552104,0.276052 0.276053,0.414079 0,0.966184 -0.552104,0.966184 z m 28.433403,-2.346446 c 0.276052,0 0.552104,0 0.690131,0.138026 0.276052,0.138027 0.552105,0.414079 0.690131,0.690132 0.138026,0.414078 0,0.828157 -0.276053,1.104209 -0.138026,0.138027 -0.414078,0.276053 -0.690131,0.276053 -0.414078,0.138026 -0.828157,0 -1.10421,-0.138026 -0.276052,-0.138027 -0.552104,-0.414079 -0.552104,-0.828158 v -0.552105 c 0.138026,-0.414078 0.414078,-0.690131 0.828157,-0.690131 z m 0.690131,1.242236 c 0,-0.138026 0,-0.138026 0,0 0,-0.414078 -0.138027,-0.690131 -0.552105,-0.690131 h -0.552105 c -0.276053,0 -0.414079,0.138026 -0.414079,0.414079 v 0.552105 c 0,0.276052 0.138026,0.414078 0.414079,0.414078 h 0.414079 c 0.552104,0 0.690131,-0.276052 0.690131,-0.690131 z M 36.853002,48.99931 v 0.414078 h -1.518288 c 0,0.276053 0.138026,0.414079 0.414078,0.414079 h 1.10421 v 0.414079 h -1.242236 c -0.690131,0 -0.966184,-0.414079 -0.966184,-1.10421 0,-0.138026 0,-0.414079 0.138027,-0.552105 0.138026,-0.414079 0.552105,-0.690131 0.966183,-0.690131 h 1.242236 v 0.414079 h -1.10421 c -0.276052,0 -0.414078,0.138026 -0.552104,0.414078 0.552104,0.276053 0.966183,0.276053 1.518288,0.276053 z m -5.935128,0.828157 v -1.794341 h 0.690132 v 2.20842 h -1.656315 c -0.276053,0 -0.414079,-0.138026 -0.552105,-0.276053 C 29.26156,49.827467 29.26156,49.689441 29.26156,49.413388 V 47.8951 h 0.690131 v 1.380262 c 0,0.276053 0.138026,0.276053 0.276052,0.414079 h 0.690131 z m 1.656315,-0.276052 v 0.690131 h -0.690131 v -2.20842 h 1.656315 c 0.276052,0 0.552105,0.276053 0.690131,0.552105 0.138026,0.552105 -0.276053,0.966184 -0.690131,0.966184 h -0.966184 c 0.138026,0 0,0 0,0 z m 0,-0.414079 h 0.966184 c 0.138026,0 0.138026,-0.276052 0.138026,-0.276052 0,-0.138027 -0.138026,-0.276053 -0.276053,-0.276053 h -0.828157 z m 10.904072,-1.10421 v 0.414079 h -1.10421 c -0.138026,0 -0.276052,0.138026 -0.414079,0.276052 v 0.276053 h 1.518289 v 0.414078 h -1.656315 v 0.828158 h -0.690131 v -1.380262 c 0,-0.414079 0.414079,-0.966184 0.828157,-0.966184 z m 9.937888,1.794341 v 0.414079 h -1.242236 c -0.552105,0 -0.828157,-0.276053 -0.966184,-0.828158 -0.138026,-0.414078 0,-0.690131 0.138027,-1.104209 0.138026,-0.276053 0.414078,-0.414079 0.690131,-0.414079 h 1.242236 v 0.414079 h -1.10421 c -0.276052,0 -0.414079,0.138026 -0.414079,0.276052 -0.138026,0.276053 -0.138026,0.552105 0,0.690131 0.138027,0.276053 0.276053,0.276053 0.414079,0.276053 z M 50.10352,48.033126 h 0.690131 v 2.20842 H 50.10352 Z m 9.661835,-2.484472 H 26.501035 V 20.013803 H 59.903382 V 45.548654 Z M 27.191166,44.858523 H 59.213251 V 20.703934 H 27.191166 Z"
     id="path30"
     inkscape:connector-curvature="0"
     style="fill:#ffffff" />
  <path
     d="M 27.191166,20.703934 H 59.213251 V 44.858523 H 27.191166 Z"
     id="path32"
     inkscape:connector-curvature="0" />
  <ellipse
     cx="35.196686"
     cy="35.196686"
     rx="6.2111802"
     ry="2.7605245"
     id="ellipse34"
     style="fill:#01954b" />
  <ellipse
     cx="46.238785"
     cy="39.751553"
     rx="6.2111802"
     ry="2.7605245"
     id="ellipse36"
     style="fill:#f9ec2b" />
  <path
     d="m 53.278123,37.957212 c -0.690131,-3.036577 -3.450656,-6.487233 -6.901311,-4.968944 2.89855,-6.487233 8.143547,-5.521049 10.075914,-3.31263 1.380262,1.656315 1.242236,7.591443 -3.174603,8.281574 z"
     id="path38"
     inkscape:connector-curvature="0"
     style="fill:#eb2d2f" />
  <path
     d="m 42.374051,32.988268 c -0.690131,-3.036577 -3.450656,-6.487233 -6.901311,-4.968944 2.898551,-6.487233 8.143547,-5.521049 10.075914,-3.31263 1.380262,1.656315 1.242236,7.591443 -3.174603,8.281574 z"
     id="path40"
     inkscape:connector-curvature="0"
     style="fill:#323b98" />
</svg>
