<?xml version="1.0" encoding="UTF-8" standalone="no"?>
<svg
   xmlns:dc="http://purl.org/dc/elements/1.1/"
   xmlns:cc="http://creativecommons.org/ns#"
   xmlns:rdf="http://www.w3.org/1999/02/22-rdf-syntax-ns#"
   xmlns:svg="http://www.w3.org/2000/svg"
   xmlns="http://www.w3.org/2000/svg"
   xmlns:sodipodi="http://sodipodi.sourceforge.net/DTD/sodipodi-0.dtd"
   xmlns:inkscape="http://www.inkscape.org/namespaces/inkscape"
   viewBox="-22.8 345 403 74.087181"
   version="1.1"
   id="svg20"
   sodipodi:docname="logo.svg"
   width="403"
   height="74.087181"
   inkscape:version="0.92.4 5da689c313, 2019-01-14">
  <metadata
     id="metadata26">
    <rdf:RDF>
      <cc:Work
         rdf:about="">
        <dc:format>image/svg+xml</dc:format>
        <dc:type
           rdf:resource="http://purl.org/dc/dcmitype/StillImage" />
      </cc:Work>
    </rdf:RDF>
  </metadata>
  <defs
     id="defs24" />
  <sodipodi:namedview
     pagecolor="#ffffff"
     bordercolor="#666666"
     borderopacity="1"
     objecttolerance="10"
     gridtolerance="10"
     guidetolerance="10"
     inkscape:pageopacity="0"
     inkscape:pageshadow="2"
     inkscape:window-width="640"
     inkscape:window-height="480"
     id="namedview22"
     showgrid="false"
     inkscape:zoom="0.67750005"
     inkscape:cx="199.99998"
     inkscape:cy="37.043589"
     inkscape:window-x="0"
     inkscape:window-y="0"
     inkscape:window-maximized="0"
     inkscape:current-layer="svg20" />
  <path
     d="m 264.94034,388.39394 h -5.57417 v -18.76875 h 20.46216 c 3.52796,0 6.27977,2.54013 6.42089,6.06809 v 12.77122 h -5.22138 v -11.71283 c 0,-1.76398 -0.98783,-2.96348 -2.75181,-3.1046 -0.91727,-0.0706 -1.9051,0 -2.89293,0 v 14.81743 h -5.50362 v -14.88799 h -4.86858 c -0.0706,4.86858 -0.0706,14.81743 -0.0706,14.81743 z m 84.45934,0 h -5.57417 v -18.76875 h 20.46216 c 3.52796,0 6.27977,2.54013 6.42089,6.06809 v 12.77122 h -5.22138 v -11.71283 c 0,-1.76398 -0.98783,-2.96348 -2.75181,-3.1046 -0.91727,-0.0706 -1.9051,0 -2.89293,0 v 14.81743 h -5.50361 v -14.88799 h -4.86859 c -0.0706,4.86858 -0.0706,14.81743 -0.0706,14.81743 z m -151.70224,-7.12648 c 1.76398,2.32845 3.59852,4.79802 5.43306,7.19704 h -6.20921 l -4.79802,-6.98536 h -5.29194 v 6.98536 h -5.50362 v -18.76875 h 15.09967 c 3.88075,0 6.70312,3.52796 5.92697,7.33816 -0.42336,2.11677 -1.76398,3.38684 -3.73964,4.02187 -0.28224,0 -0.56447,0.0706 -0.91727,0.21168 z m -10.86611,-3.17516 h 7.19703 c 0.3528,0 0.77616,-0.14112 1.12895,-0.3528 0.77615,-0.3528 1.34063,-0.84671 1.34063,-1.83454 0,-0.98783 -0.3528,-1.76398 -1.34063,-2.18733 -0.56447,-0.21168 -1.12895,-0.3528 -1.69342,-0.3528 h -6.63256 z m 69.43023,10.30164 h -13.97072 c -1.05838,0 -2.11677,-0.21168 -3.1046,-0.49392 -2.54013,-0.77615 -3.95131,-2.82237 -3.73964,-5.43306 0.14112,-2.68124 1.83454,-4.72746 4.37467,-5.29193 0.56448,-0.14112 1.19951,-0.21168 1.83454,-0.21168 h 8.89046 c 0.21168,0 -0.21168,0 0,0 0,-2.04622 -1.69342,-3.73964 -3.88076,-3.73964 h -9.73716 v -3.59852 h 11.36003 c 4.37466,0 7.76151,3.24573 7.90262,7.6204 v 11.14835 h 0.0706 z m -5.50361,-7.90263 h -6.84424 c -1.41119,0 -2.39902,0.84671 -2.46958,2.18733 0,1.27007 0.91727,2.11678 2.39902,2.11678 h 6.9148 z m -158.969839,7.90263 v -3.66908 h 12.277299 c 1.12895,0 1.83454,-0.56447 2.04621,-1.69342 0.21168,-0.84671 -0.35279,-1.69342 -1.34062,-2.04622 -0.42335,-0.14112 -0.91727,-0.28223 -1.41118,-0.28223 h -7.549836 c -3.104604,-0.0706 -4.868583,-1.9051 -5.15082,-5.15082 -0.211678,-2.54014 1.69342,-5.43306 4.233551,-5.92698 h 16.158055 v 3.8102 H 99.479062 c -0.352796,0 -0.705592,0 -0.987829,0.0706 -0.84671,0.14112 -1.481743,0.70559 -1.622861,1.48174 -0.141119,0.77615 0.211677,1.5523 0.84671,2.04622 0.211678,0.14112 0.564473,0.21168 0.84671,0.21168 h 8.184868 c 2.04621,0.0705 3.95131,0.56447 4.93914,2.54013 1.76398,3.4574 0.42336,8.4671 -4.86858,8.53766 l -15.029109,0.0706 z m 237.854999,-19.1921 c 2.11678,0.0706 4.16299,0.28224 6.06809,1.1995 2.68125,1.19951 4.65691,3.17517 5.22138,6.06809 0.70559,3.66908 0.0706,7.12648 -2.89293,9.73717 -1.69342,1.48174 -3.81019,2.11678 -5.92697,2.54013 -3.38684,0.56448 -6.562,0 -9.59605,-1.48174 -2.82236,-1.41118 -4.02187,-3.95132 -4.37466,-6.9148 -0.14112,-1.48174 -0.14112,-3.03405 0.35279,-4.51579 1.12895,-3.4574 3.73964,-5.22138 7.05592,-5.99753 1.34062,-0.42335 2.11677,-0.63503 4.09243,-0.63503 z m 6.13865,9.80772 c 0,-0.35279 0,-0.70559 -0.0706,-1.05838 -0.14112,-2.54013 -1.69342,-4.51579 -4.02187,-5.15082 -1.41119,-0.3528 -2.75181,-0.3528 -4.16299,0 -1.97566,0.42335 -3.31629,1.62286 -3.88076,3.59852 -0.42335,1.5523 -0.42335,3.17516 -0.21168,4.72746 0.28224,1.83454 1.41119,3.1046 3.17517,3.59852 1.05838,0.28224 2.18733,0.42335 3.31628,0.35279 3.88075,-0.0706 5.92697,-2.32845 5.85641,-6.06809 z m -157.41753,-1.83453 v 3.59851 h -13.05345 c 0,2.2579 1.62286,3.88076 3.81019,3.88076 h 9.1727 v 3.8102 h -10.51332 c -5.22138,-0.21168 -8.39654,-3.95132 -8.25542,-8.8199 0.0705,-1.62286 0.14111,-3.17517 0.77615,-4.65691 1.27006,-3.24572 4.23355,-5.29194 7.76151,-5.29194 h 10.3722 v 3.8102 h -8.8199 c -2.11678,0 -3.8102,1.5523 -4.09243,3.73964 4.23355,-0.0706 8.4671,-0.0706 12.84177,-0.0706 z m -49.60311,7.40871 v -14.95855 h 5.3625 v 18.76875 h -14.11184 c -1.76398,0 -3.17516,-0.63504 -4.23355,-1.97566 -1.05839,-1.27007 -1.69342,-2.61069 -1.62286,-4.37467 0.0706,-3.73964 0,-12.41842 0,-12.41842 h 5.3625 v 11.99506 c -0.0706,1.76398 0.91727,2.82237 2.54013,2.96349 z m 13.8296,-2.54013 v 6.35033 h -5.22138 v -18.76875 h 14.25296 c 2.54013,-0.0706 5.08026,1.83454 5.78585,4.58635 1.12895,4.09243 -1.76398,7.83207 -5.99753,7.83207 z m 0.14112,-3.66908 h 7.19704 c 0.28223,0 0.63503,-0.21168 0.84671,-0.35279 0.77615,-0.56448 1.34062,-1.97566 1.05838,-2.75181 -0.42335,-1.27007 -1.1995,-1.83454 -2.46957,-1.83454 h -6.70312 v 4.93914 h 0.0706 z m 91.23302,-8.74934 v 3.59852 h -9.17269 c -1.5523,0.0706 -2.89293,0.77615 -3.8102,2.04622 -0.28223,0.42335 -0.49391,0.98783 -0.56447,1.76398 h 13.26512 v 3.95131 h -13.33568 v 7.40872 h -5.43306 v -11.0778 c 0,-4.02187 3.03405,-7.54983 7.05592,-7.69095 z m 82.48368,15.09967 v 3.66908 h -9.87828 c -4.09243,0 -7.19704,-2.39902 -8.25542,-6.42089 -0.77616,-3.1046 -0.42336,-6.27977 1.34062,-8.96102 1.48174,-2.25789 3.59852,-3.38684 6.35033,-3.38684 h 10.58387 v 3.73964 h -8.96101 c -1.76398,0 -2.89293,0.84671 -3.4574,2.46957 -0.70559,1.9051 -0.77615,4.09243 -0.14112,6.06809 0.56447,1.83454 1.97566,2.82237 3.95131,2.82237 z m -118.96278,20.81496 v -3.38684 h 13.05345 v -5.57418 h -12.84177 v -3.24572 h 15.66414 v 12.2773 c -5.29194,-0.0706 -10.58388,-0.0706 -15.87582,-0.0706 z M 91.082519,396.43768 v -3.31628 h 13.053451 c 0.35279,2.39901 0.14112,4.65691 -0.63504,6.9148 -0.0705,0.21168 -0.21167,0.56447 -0.21167,0.56447 0,0 2.39901,3.38685 3.52796,4.93915 h -3.66908 c 0,0 -1.27007,-1.69342 -1.76398,-2.39902 -0.28224,0.21168 -0.49391,0.3528 -0.70559,0.56448 -1.552304,1.1995 -3.175166,1.9051 -5.221382,1.83454 h -4.868583 v -3.38684 h 3.4574 c 1.481742,0 2.892926,-0.14112 4.23355,-0.63504 2.116775,-0.84671 3.386845,-2.7518 3.245725,-5.08026 z M 289.5655,369.62519 h 5.78585 v 18.76875 h -5.78585 z m -138.78991,35.91463 v -3.38684 h 6.77368 c 2.75181,0.14111 4.86858,-1.62286 4.79802,-5.00971 0,-0.21167 0,-0.42335 -0.0706,-0.70559 h -12.34785 v -3.17516 h 14.88798 v 6.06809 c 0,0.56447 -0.21167,1.19951 -0.42335,1.69342 -0.98783,2.68125 -3.03405,4.30411 -5.85641,4.51579 h -7.76151 z m 15.31134,-6.56201 v -2.89292 h 13.12401 v 4.30411 c 0,1.69342 -1.19951,2.46957 -6.06809,2.46957 0,0 -0.0706,0.77615 -0.21168,0.98783 -0.49391,1.27006 -1.48174,1.76398 -2.96349,1.76398 h -3.1046 v -2.96349 h 3.1046 c 0,0 1.34063,-0.21168 1.48175,-1.27006 0.0706,-0.28224 0.0706,-0.63504 0.14112,-0.98783 h 4.02187 c 0.91727,0 1.1995,-0.28224 1.1995,-1.34063 -3.52795,-0.0706 -7.12647,-0.0706 -10.72499,-0.0706 z m 64.56165,-5.57417 v 6.9148 c -0.56447,3.88075 -4.02187,5.29194 -6.562,5.22138 H 215.055 v -3.38684 h 9.24325 c 1.9051,0.0706 3.8102,-1.69342 3.8102,-3.88076 v -4.79802 c 0.91727,-0.0706 1.76398,-0.0706 2.54013,-0.0706 z M 126.15043,393.1214 h 2.82237 v 4.79803 c -0.21168,3.17516 2.04622,4.09243 4.09243,4.09243 h 0.84671 v 3.38684 c -4.58634,0.28224 -7.62039,-1.76398 -7.76151,-6.27977 -0.0706,-1.76398 0,-3.52796 0,-5.29194 z m 69.85359,8.53766 -15.3819,-1.97565 v -2.96349 l 15.3819,1.83454 m 0,-0.98783 -15.3819,-1.9051 v -2.96348 l 15.3819,1.83453 m 0,8.18487 v 3.1046 c -5.15082,-0.63503 -10.30164,-1.27006 -15.45246,-1.97565 v -3.03405 c 5.15082,0.56448 10.30164,1.34063 15.45246,1.9051 z m -78.88516,2.68125 v -3.38684 c 0.70559,-0.0706 1.34062,-0.0706 1.97565,-0.14112 1.9051,-0.28224 2.96349,-1.62286 2.96349,-3.52796 v -5.15082 h 2.89293 v 4.16299 c 0,0.91727 0,1.9051 -0.14112,2.75181 -0.63503,3.17516 -2.61069,4.79802 -5.92697,5.08026 -0.56448,0.21168 -1.12895,0.21168 -1.76398,0.21168 z"
     id="path2"
     inkscape:connector-curvature="0"
     style="fill:#030303" />
  <path
     d="m 117.40109,397.77831 v 3.1046 h -11.78338 v -3.1046 z m 16.65197,-0.14112 h 11.78338 v 3.1046 h -11.78338 z m 90.31575,-4.37467 v 3.24572 H 215.055 v -3.24572 z m -90.17463,1.97566 c 0,1.27006 -1.05839,2.25789 -2.25789,2.25789 -1.19951,0 -2.2579,-0.98783 -2.2579,-2.25789 0,-1.27007 0.98783,-2.32846 2.2579,-2.32846 1.27006,0.0706 2.25789,1.05839 2.25789,2.32846 z m -1.41118,0 c 0,-0.49392 -0.49392,-0.98783 -0.98783,-0.98783 -0.49392,0 -0.98783,0.49391 -0.91727,1.05839 0.0706,0.56447 0.42335,0.91727 0.98783,0.91727 0.63503,-0.0706 0.91727,-0.49392 0.91727,-0.98783 z"
     id="path4"
     inkscape:connector-curvature="0"
     style="fill:#030303" />
  <path
     d="m 233.04759,395.44985 v -2.96348 h 1.34063 c 0.28223,0 0.49391,0 0.63503,0.0706 0.14112,0.0706 0.28224,0.14112 0.3528,0.28223 0.0705,0.14112 0.14111,0.28224 0.14111,0.42336 0,0.21168 -0.0706,0.42335 -0.21167,0.56447 -0.14112,0.14112 -0.3528,0.21168 -0.63504,0.28224 0.0706,0.0706 0.21168,0.0706 0.21168,0.14112 0.14112,0.0706 0.21168,0.21168 0.3528,0.42335 l 0.49391,0.84671 h -0.49391 l -0.42336,-0.63503 c -0.14112,-0.21168 -0.21168,-0.28224 -0.28224,-0.42335 l -0.21167,-0.21168 c -0.0706,-0.0706 -0.14112,-0.0706 -0.21168,-0.0706 h -0.63503 v 1.34062 h -0.42336 v -0.0706 z m 0.42336,-1.69342 h 0.84671 c 0.21167,0 0.35279,0 0.42335,-0.0706 0.0706,-0.0705 0.21168,-0.0705 0.21168,-0.21167 0.0706,-0.0706 0.0706,-0.14112 0.0706,-0.28224 0,-0.14112 -0.0706,-0.28224 -0.14112,-0.3528 -0.0706,-0.0706 -0.28224,-0.14111 -0.49391,-0.14111 h -0.91727 v 1.05838 z"
     id="path6"
     inkscape:connector-curvature="0" />
  <path
     d="m 234.2471,396.71992 c -1.5523,0 -2.75181,-1.27007 -2.75181,-2.75181 0,-1.5523 1.27007,-2.75181 2.75181,-2.75181 1.5523,0 2.75181,1.27007 2.75181,2.75181 0,1.5523 -1.19951,2.75181 -2.75181,2.75181 z m 0,-5.0097 c -1.27007,0 -2.2579,0.98783 -2.2579,2.25789 0,1.27007 0.98783,2.2579 2.2579,2.2579 1.27006,0 2.25789,-0.98783 2.25789,-2.2579 0,-1.27006 -0.98783,-2.25789 -2.25789,-2.25789 z m 139.07215,-20.60328 v -2.96349 h 1.34062 c 0.28224,0 0.49391,0 0.63503,0.0706 0.14112,0.0706 0.28224,0.14112 0.3528,0.28224 0.0706,0.14112 0.14112,0.28223 0.14112,0.42335 0,0.21168 -0.0706,0.42336 -0.21168,0.56448 -0.14112,0.14111 -0.3528,0.21167 -0.63503,0.28223 0.0706,0.0706 0.21167,0.0706 0.21167,0.14112 0.14112,0.0706 0.21168,0.21168 0.3528,0.42336 l 0.49391,0.84671 h -0.49391 l -0.42336,-0.63504 c -0.14111,-0.21167 -0.21167,-0.28223 -0.28223,-0.42335 l -0.21168,-0.21168 c -0.0706,-0.0706 -0.14112,-0.0706 -0.21168,-0.0706 h -0.63503 v 1.34063 l -0.42335,-0.0706 z m 0.35279,-1.69342 h 0.84671 c 0.21168,0 0.3528,0 0.42336,-0.0706 0.0706,-0.0706 0.21167,-0.0706 0.21167,-0.21168 0.0706,-0.0706 0.0706,-0.14112 0.0706,-0.28224 0,-0.14112 -0.0706,-0.28223 -0.14112,-0.35279 -0.0705,-0.0706 -0.28223,-0.14112 -0.49391,-0.14112 h -0.91727 v 1.05839 z"
     id="path8"
     inkscape:connector-curvature="0" />
  <path
     d="m 374.44819,372.377 c -1.5523,0 -2.75181,-1.27006 -2.75181,-2.75181 0,-1.48174 1.27007,-2.7518 2.75181,-2.7518 1.5523,0 2.75181,1.27006 2.75181,2.7518 0,1.48175 -1.19951,2.75181 -2.75181,2.75181 z m 0,-5.0097 c -1.27006,0 -2.25789,0.98783 -2.25789,2.25789 0,1.27007 0.98783,2.2579 2.25789,2.2579 1.27007,0 2.2579,-0.98783 2.2579,-2.2579 0,-1.27006 -0.98783,-2.25789 -2.2579,-2.25789 z"
     id="path10"
     inkscape:connector-curvature="0" />
  <path
     d="m 22.075639,390.15792 c 0,6.2092 -10.019403,11.21891 -22.43781952,11.21891 C -12.780596,401.37683 -22.8,396.36712 -22.8,390.15792 c 0,-6.20921 10.019404,-11.21891 22.43781948,-11.21891 12.41841652,0 22.43781952,5.0097 22.43781952,11.21891 z"
     id="path12"
     inkscape:connector-curvature="0"
     style="fill:#01954b" />
  <path
     d="m 60.742071,407.86827 c 0,6.20921 -10.019404,11.21891 -22.43782,11.21891 -12.418416,0 -22.43782,-5.0097 -22.43782,-11.21891 0,-6.20921 10.019404,-11.21891 22.43782,-11.21891 12.418416,0 22.43782,5.0097 22.43782,11.21891 z"
     id="path14"
     inkscape:connector-curvature="0"
     style="fill:#f9ec2b" />
  <path
     d="m 22.92235,345.00004 c -11.289469,0 -20.5327224,9.03157 -20.7443999,20.32104 0.4939142,0 0.9172693,-0.0706 1.4111836,-0.0706 11.5011463,0 20.8149583,9.31382 20.8149583,20.81496 v 0.49392 c 10.795555,-0.70559 19.333216,-9.73717 19.333216,-20.7444 C 43.737308,354.31381 34.423496,345 22.92235,345 Z"
     id="path16"
     inkscape:connector-curvature="0"
     style="fill:#323b98" />
  <path
     d="m 62.294373,363.20431 c -11.501147,0 -20.744399,9.31381 -20.744399,20.81496 v 0.77615 h 0.84671 c 11.21891,0 20.391603,8.89045 20.744399,20.03881 11.077792,-0.42336 19.968248,-9.52549 19.968248,-20.7444 -0.07056,-11.57171 -9.384371,-20.88552 -20.814958,-20.88552 z"
     id="path18"
     inkscape:connector-curvature="0"
     style="fill:#eb2d2f" />
</svg>
