<?xml version="1.0" encoding="UTF-8" standalone="no"?>
<svg
   xmlns:dc="http://purl.org/dc/elements/1.1/"
   xmlns:cc="http://creativecommons.org/ns#"
   xmlns:rdf="http://www.w3.org/1999/02/22-rdf-syntax-ns#"
   xmlns:svg="http://www.w3.org/2000/svg"
   xmlns="http://www.w3.org/2000/svg"
   xmlns:sodipodi="http://sodipodi.sourceforge.net/DTD/sodipodi-0.dtd"
   xmlns:inkscape="http://www.inkscape.org/namespaces/inkscape"
   viewBox="-290 382 30 30"
   version="1.1"
   id="svg70"
   sodipodi:docname="icon_empty.svg"
   inkscape:version="0.92.4 5da689c313, 2019-01-14">
  <metadata
     id="metadata76">
    <rdf:RDF>
      <cc:Work
         rdf:about="">
        <dc:format>image/svg+xml</dc:format>
        <dc:type
           rdf:resource="http://purl.org/dc/dcmitype/StillImage" />
      </cc:Work>
    </rdf:RDF>
  </metadata>
  <defs
     id="defs74" />
  <sodipodi:namedview
     pagecolor="#ffffff"
     bordercolor="#666666"
     borderopacity="1"
     objecttolerance="10"
     gridtolerance="10"
     guidetolerance="10"
     inkscape:pageopacity="0"
     inkscape:pageshadow="2"
     inkscape:window-width="471"
     inkscape:window-height="442"
     id="namedview72"
     showgrid="false"
     inkscape:zoom="7.8666667"
     inkscape:cx="15"
     inkscape:cy="15"
     inkscape:window-x="0"
     inkscape:window-y="0"
     inkscape:window-maximized="0"
     inkscape:current-layer="svg70">
    <inkscape:grid
       type="xygrid"
       id="grid78" />
  </sodipodi:namedview>
  <path
     fill="#646464"
     d="M-281.5 401s.4 2.7.6 3.5c.3.8.7 1.9.7 1.9l.3 3.6s-2.1-1.1-3.6-4.6c-1.6-3.5-2-7-2-7l4 2.6z"
     id="path2" />
  <path
     d="M-279.8 410.1s-2.1-1.2-3.7-4.7-2-6.9-2-7h.1l4 2.6s.4 2.7.6 3.5c.2.8.7 1.9.7 1.9l.3 3.7c.1-.1.1-.1 0 0zm-5.6-11.6c.1.6.6 3.7 2 6.8 1.4 3 3.1 4.3 3.5 4.6l-.3-3.5c0-.1-.5-1.1-.7-1.9-.2-.8-.6-3.2-.6-3.5l-3.9-2.5z"
     id="path4" />
  <path
     fill="#646464"
     d="M-270.6 401s-.4 2.7-.6 3.5c-.3.8-.7 1.9-.7 1.9l-.3 3.6s2.1-1.1 3.6-4.6c1.6-3.5 2-7 2-7l-4 2.6z"
     id="path6" />
  <path
     d="M-272.3 410.1c0-.1 0-.1 0 0l.3-3.6s.5-1 .7-1.9c.2-.8.6-3.5.6-3.5l4-2.6h.1s-.5 3.5-2 7c-1.6 3.4-3.6 4.5-3.7 4.6zm.4-3.7l-.3 3.5c.4-.3 2.2-1.5 3.5-4.6 1.4-3.1 1.9-6.2 2-6.8l-3.9 2.5c0 .3-.4 2.7-.6 3.5-.2.9-.7 1.8-.7 1.9z"
     id="path8" />
  <path
     fill="#646464"
     d="M-284.1 397.6l16.2-.1 1.8 5s0 1.7.1 2.7c0 1-.2 2.2-.2 2.2l2.3 2.9s1.3-3 1.6-5.7c.3-2.7.5-5.7.1-8.2-.4-2.4-2.1-6.7-4.7-9.6-1.4-1.5-3-2.7-4.2-2.9-1.2-.3-8.6-.4-10.5.3-1.8.7-3.3 2-5.5 5.2-2.2 3.3-2.5 5.9-2.7 7.6-.3 1.7-.2 6.1.5 8.9.6 2.8 1.3 4.1 1.3 4.1l2.1-1.3s-.2-2.1-.2-3.6c0-1.6.2-2.5.2-2.5l1.8-5z"
     id="path10" />
  <path
     d="M-263.9 410.4c-.1 0-.1 0 0 0l-2.3-2.9s.3-1.2.2-2.2c0-1-.1-2.6-.1-2.7l-1.8-5-16.1.1-1.9 4.9s-.2 1-.2 2.5.2 3.6.2 3.6l-2.1 1.3s-.7-1.3-1.3-4.1c-.6-2.9-.7-7.3-.5-8.9v-.2c.2-1.7.6-4.2 2.7-7.4 2.1-3.1 3.6-4.5 5.5-5.3 1.8-.7 9.3-.6 10.5-.3 1.2.3 2.8 1.4 4.2 3 2.8 3.1 4.3 7.5 4.7 9.6.3 2 .3 4.7-.1 8.2-.3 2.7-1.6 5.7-1.6 5.8zm-2.3-3l2.2 2.8c.2-.5 1.3-3.2 1.6-5.6.4-3.5.4-6.1.1-8.2-.4-2.2-1.9-6.5-4.7-9.6-1.3-1.5-3-2.7-4.1-2.9-1.2-.3-8.7-.4-10.4.3-2 .8-3.5 2.2-5.5 5.2-2.1 3.1-2.4 5.6-2.7 7.3v.2c-.2 1.6-.2 6 .5 8.9.5 2.5 1.2 3.8 1.3 4l2-1.3c0-.3-.2-2.1-.2-3.6s.2-2.5.2-2.5l1.9-5 16.2-.1 1.8 5s0 1.7.1 2.7c0 1.1-.2 2.2-.3 2.4z"
     id="path12" />
  <path
     fill="#EAEAEA"
     d="M-283.1 396.9c-.6.1-1.1.5-1.2 1.1-.1.7-.1 1.8 1.4 2.9 1.7 1.3 3.9 2.4 6.8 2.3 2.9-.1 5.3-.9 7-2.4 1.7-1.5 1.8-3.2.9-3.7s-2.1-.2-2.5.1c-.4.3-.8.5-.8.5l-4.6-.7-4.4.7s-.7-.4-1-.6c-.5-.3-1-.3-1.6-.2z"
     id="path14" />
  <path
     d="M-276.3 403.3c-2.4 0-4.5-.8-6.6-2.4-1.2-.9-1.6-1.9-1.5-3 .1-.5.6-1 1.2-1.1.6-.1 1.1 0 1.5.2.3.2.9.5 1 .6l4.4-.7 4.6.7c.1-.1.4-.3.8-.5.4-.3 1.6-.6 2.5-.1.3.2.5.6.6 1 .1.9-.5 1.9-1.4 2.8-1.7 1.5-4.1 2.3-7 2.4.1.1 0 .1-.1.1zm-6.2-6.4h-.5c-.6.1-1.1.5-1.2 1-.2 1.1.3 2 1.4 2.9 2.1 1.6 4.2 2.3 6.6 2.3h.3c2.9-.1 5.3-.9 6.9-2.4 1-.8 1.5-1.8 1.4-2.7 0-.4-.2-.8-.5-1-.9-.5-2-.2-2.4.1-.4.3-.8.5-.8.5l-4.6-.7-4.4.7s-.7-.4-1-.6c-.6-.1-.9-.1-1.2-.1z"
     id="path16" />
  <g
     fill="#EFEFEF"
     id="g22">
    <path
       d="M-276.9 397.3s-.5.8-2.1.8-3.1-1.1-3.7-2c-.4-.6-.7-2.7-.5-3.2.1-.4.9-.3.9-.3s1.2.3 1.9.8c.8.4 2.6 2.3 2.8 2.8.2.5.7 1.1.7 1.1z"
       id="path18" />
    <path
       d="M-279 398.2c-1.7 0-3.2-1.1-3.8-2-.4-.6-.7-2.7-.5-3.2.2-.5.9-.4.9-.4s1.2.3 1.9.8c.8.5 2.6 2.3 2.9 2.9.3.5.7 1.1.7 1.1v.1c0-.1-.5.7-2.1.7zm-3.5-5.6c-.2 0-.6 0-.7.3-.1.4.2 2.5.5 3.1.6.9 2.1 1.9 3.7 2h.1c1.3 0 1.9-.6 2-.7-.1-.1-.5-.6-.7-1.1-.3-.5-2.1-2.4-2.8-2.8-.7-.4-1.9-.7-1.9-.7-.1-.1-.2-.1-.2-.1z"
       id="path20" />
  </g>
  <g
     fill="#EFEFEF"
     id="g28">
    <path
       d="M-275.1 397.3s.8.8 2.3.8c1.5 0 2.3-.6 3-1.2.8-.6 1.1-1.2 1.3-2.5.1-1 .4-2.1-.5-2-.5.1-2.2.6-3.1 1.3-.9.8-2.2 2.4-2.5 2.9-.4.6-.5.7-.5.7z"
       id="path24" />
    <path
       d="M-272.9 398.2c-1.5 0-2.3-.8-2.3-.8s.2-.1.5-.6 1.6-2.1 2.5-2.9c1-.8 2.7-1.3 3.1-1.3.2 0 .4 0 .5.1.3.3.2.9.1 1.6v.3c-.2 1.3-.6 1.9-1.3 2.5-.7.5-1.6 1.1-3.1 1.1zm-2.2-.9c.2.2.9.8 2.2.8 1.5 0 2.3-.6 3-1.2.7-.6 1.1-1.1 1.3-2.4v-.3c.1-.6.2-1.3 0-1.5-.1-.1-.2-.1-.4-.1-.4.1-2.1.5-3.1 1.3-.9.7-2.1 2.3-2.5 2.9-.2.3-.4.5-.5.5z"
       id="path26" />
  </g>
  <path
     d="M-276 399.1c-.7 0-1 .2-1 .5s.5.7 1.1.7c.5 0 1.1-.5 1.1-.8-.1-.3-.5-.5-1.2-.4z"
     id="path30" />
  <path
     d="M-276 400.4c-.6 0-1.1-.4-1.1-.8 0-.1 0-.3.3-.4.2-.1.4-.1.8-.2.7 0 1.2.2 1.2.5 0 .1-.1.3-.2.4-.3.3-.6.5-1 .5zm0-1.3c-.3 0-.6.1-.8.1-.2.1-.2.2-.2.3 0 .3.5.7 1 .7.3 0 .6-.1.8-.4.1-.1.2-.3.2-.4 0-.3-.4-.4-1-.4.1.1 0 .1 0 .1z"
     id="path32" />
  <path
     fill="#FFF"
     d="M-275.5 399.5c0 .1-.2.2-.5.2s-.5-.1-.5-.2.2-.2.5-.2c.3-.1.5 0 .5.2z"
     id="path34" />
  <path
     d="M-273.2 401.5c0-.1 1.6-.6 2-1.1.2-.3.4-.9.4-.9h.1v.1s-.1.6-.4.9c-.4.5-2 1-2.1 1z"
     id="path36" />
  <path
     d="M-270.3 400.3s-.3-.6-.5-.7c-.2-.1-.8-.1-.8-.1h-.1v-.1s.6-.1.8.1c.4.2.6.7.6.8 0-.1 0 0 0 0zm-7.7-4.3c0 1-.2 1.7-.5 1.7s-.5-.8-.5-1.7c0-1 .2-1.7.5-1.7.2-.1.5.7.5 1.7z"
     id="path38" />
  <path
     d="M-278.6 397.8c-.4 0-.6-.9-.6-1.8s.2-1.8.6-1.8c.4 0 .6.9.6 1.8s-.2 1.8-.6 1.8zm0-3.5c-.2 0-.5.7-.5 1.7s.3 1.7.5 1.7.5-.7.5-1.7-.2-1.7-.5-1.7zm5.8 1.7c0 1-.2 1.7-.5 1.7s-.5-.8-.5-1.7c0-1 .2-1.7.5-1.7.2-.1.5.7.5 1.7z"
     id="path40" />
  <path
     d="M-273.4 397.8c-.4 0-.6-.9-.6-1.8s.2-1.8.6-1.8.6.9.6 1.8-.2 1.8-.6 1.8zm0-3.5c-.2 0-.5.7-.5 1.7s.3 1.7.5 1.7.5-.7.5-1.7-.3-1.7-.5-1.7z"
     id="path42" />
  <path
     fill="#EFEFEF"
     d="M-278.6 396c0 .4-.1.7-.2.7s-.2-.3-.2-.7c0-.4.1-.7.2-.7.2 0 .2.3.2.7zm5.3 0c0 .4-.1.7-.2.7s-.2-.3-.2-.7c0-.4.1-.7.2-.7s.2.3.2.7z"
     id="path44" />
  <path
     fill="#646464"
     d="M-283.6 392.4s2 .3 2.9.8c.9.5 2.4 2 2.9 2.8.5.8.8 1.3.9 1.4.2.2.4.2.5.2.1 0 .3-.2.3-.2s.3.1.5.1.5-.1.6-.3c.2-.2.4-.7.7-1.1.4-.7 1.9-2.3 2.6-2.8.9-.7 3.4-1.2 3.4-1.2"
     id="path46" />
  <path
     d="M-276.4 397.8c-.2 0-.4-.1-.5-.2-.1-.1-.2-.3-.4-.6-.1-.2-.3-.5-.5-.8-.5-.7-1.9-2.3-2.8-2.8-.9-.5-2.9-.8-2.9-.8v-.1s0-.1.1 0c.1 0 2 .3 3 .8.9.5 2.4 2.1 2.9 2.8.2.3.4.6.5.8.2.3.3.5.4.6.1.2.4.2.5.2.1 0 .3-.1.3-.1h.1s.2.1.4.1.4-.1.6-.3c.2-.2.4-.6.7-1.1.4-.7 1.9-2.3 2.6-2.8.9-.7 3.3-1.2 3.4-1.2h.1v.1s-2.5.5-3.4 1.2c-.7.5-2.1 2.1-2.5 2.8-.2.4-.6.9-.7 1.1-.2.2-.5.3-.7.3-.2 0-.4-.1-.5-.1-.4-.1-.5 0-.7.1z"
     id="path48" />
  <path
     fill="#FFF"
     d="M-276 397.5v-.6"
     id="path50" />
  <path
     d="M-276 397.6c-.1 0-.1-.1 0 0l-.1-.7v-.1l.1.8c0-.1 0 0 0 0z"
     id="path52" />
  <path
     fill="#EAEAEA"
     d="M-284.2 399.5s-.4-.8-.2-1.5c.1-.6.6-1.1 1.2-1.2.7-.1 1.2 0 1.8.3.6.3 1.3 1.1 1.3 1.1"
     id="path54" />
  <path
     d="M-284.2 399.5c-.1-.1-.4-.9-.3-1.5.1-.7.6-1.1 1.3-1.3.6-.1 1.2 0 1.8.3.6.3 1.3 1.1 1.4 1.1v.1h-.1s-.8-.8-1.3-1.1c-.6-.3-1.2-.4-1.8-.3-.6.1-1.1.6-1.2 1.2-.1.6.3 1.5.2 1.5.1 0 .1 0 0 0z"
     id="path56" />
  <path
     fill="#EAEAEA"
     d="M-267.6 398.8s.1-.9-.1-1.4c-.3-.4-.9-.8-1.5-.8-.7 0-1.2.3-1.7.6-.7.5-1.2 1.1-1.2 1.1"
     id="path58" />
  <path
     d="M-267.6 398.9c-.1 0-.1-.1 0 0 0-.1.1-1-.1-1.4-.2-.4-.9-.7-1.4-.7-.7 0-1.2.3-1.6.6-.7.5-1.1 1.1-1.1 1.1h-.1v-.1s.5-.6 1.2-1.1c.4-.3 1-.6 1.7-.6.6 0 1.3.3 1.5.8.1.4-.1 1.3-.1 1.4 0-.1 0 0 0 0z"
     id="path60" />
  <path
     fill="#646464"
     d="M-284.1 394.2s-.2 2.4-.1 4.2c.1 1.8 1.1 6.4 1.5 7.8.5 1.4 1.1 3.1-.3 1.6-1.5-1.5-3-4-3.9-6.9-1.3-4.1-.6-8.2-.6-8.2"
     id="path62" />
  <path
     d="M-282.2 408.5c-.1 0-.3-.1-.8-.6-1.6-1.6-3.1-4.2-4-7-1.2-4-.6-8.2-.6-8.2h.1v.1s-.6 4.2.6 8.2c.8 2.7 2.3 5.3 3.9 6.9.6.6.7.6.8.5.2-.1-.1-1-.4-1.7 0-.1-.1-.3-.1-.4-.5-1.4-1.4-6-1.5-7.8-.1-1.8.1-4.2.1-4.2v.1s-.2 2.5-.1 4.2c.1 1.8 1.1 6.4 1.5 7.8 0 .1.1.3.1.4.5.9.7 1.6.4 1.7z"
     id="path64" />
  <path
     fill="#646464"
     d="M-268 394.2s.2 2.4.1 4.2c-.1 1.8-1.1 6.4-1.5 7.8-.5 1.4-1.1 3.1.3 1.6 1.5-1.5 3-4 3.9-6.9 1.3-4.1.6-8.2.6-8.2"
     id="path66" />
  <path
     d="M-269.9 408.5c-.3-.2-.1-.8.2-1.9 0-.1.1-.3.1-.4.5-1.4 1.4-6 1.5-7.8.1-1.8-.1-4.2-.1-4.2v-.1h.1s.2 2.5.1 4.2c-.1 1.8-1.1 6.4-1.5 7.8 0 .1-.1.3-.1.4-.2.7-.5 1.6-.4 1.7 0 0 .2 0 .8-.5 1.6-1.6 3.1-4.2 3.9-6.9 1.2-4 .6-8.1.6-8.2v-.1s.6 4.2-.6 8.2c-.8 2.7-2.3 5.3-4 7-.2.7-.5.8-.6.8z"
     id="path68" />
</svg>
