<?xml version="1.0" encoding="UTF-8" standalone="no"?>
<svg
   xmlns:dc="http://purl.org/dc/elements/1.1/"
   xmlns:cc="http://creativecommons.org/ns#"
   xmlns:rdf="http://www.w3.org/1999/02/22-rdf-syntax-ns#"
   xmlns:svg="http://www.w3.org/2000/svg"
   xmlns="http://www.w3.org/2000/svg"
   xmlns:sodipodi="http://sodipodi.sourceforge.net/DTD/sodipodi-0.dtd"
   xmlns:inkscape="http://www.inkscape.org/namespaces/inkscape"
   viewBox="0 0 89.849 91.198999"
   version="1.1"
   id="svg260"
   sodipodi:docname="game.svg"
   width="89.848999"
   height="91.198997"
   inkscape:version="0.92.4 5da689c313, 2019-01-14">
  <metadata
     id="metadata266">
    <rdf:RDF>
      <cc:Work
         rdf:about="">
        <dc:format>image/svg+xml</dc:format>
        <dc:type
           rdf:resource="http://purl.org/dc/dcmitype/StillImage" />
      </cc:Work>
    </rdf:RDF>
  </metadata>
  <defs
     id="defs264" />
  <sodipodi:namedview
     pagecolor="#ffffff"
     bordercolor="#666666"
     borderopacity="1"
     objecttolerance="10"
     gridtolerance="10"
     guidetolerance="10"
     inkscape:pageopacity="0"
     inkscape:pageshadow="2"
     inkscape:window-width="640"
     inkscape:window-height="480"
     id="namedview262"
     showgrid="false"
     inkscape:zoom="2.5877761"
     inkscape:cx="44.9245"
     inkscape:cy="45.600001"
     inkscape:window-x="0"
     inkscape:window-y="0"
     inkscape:window-maximized="0"
     inkscape:current-layer="svg260" />
  <path
     d="M 61.577,0.602 H 57.864 V 0 H 57.28 v 1.562 h 4.297 z"
     id="path2"
     inkscape:connector-curvature="0"
     style="fill:#676a6f" />
  <path
     d="M 89.849,80.16 V 3.092 A 2.579,2.579 0 0 0 87.278,0.521 H 86.35 v 1.04 H 52.864 l -0.96,-1.04 H 2.571 A 2.579,2.579 0 0 0 0,3.092 V 85.14 c 0,2.18 0.827,3.989 3.009,4.629 13.735,0.978 27.583,1.43 41.915,1.43 14.332,0 28.18,-0.452 41.915,-1.43 2.183,-0.64 3.009,-2.449 3.009,-4.629 v -4.98 z"
     id="path4"
     inkscape:connector-curvature="0"
     style="fill:#b3b7bf" />
  <path
     d="M 58.277,89.616 C 65.805,89.55 73.232,89.407 80.692,89.12 V 1.562 H 52.864 l -0.96,-1.04 H 9.156 v 88.599 c 7.461,0.287 14.888,0.429 22.416,0.496 V 77.679 c 0,-7.374 5.978,-13.353 13.353,-13.353 7.374,0 13.353,5.978 13.353,13.353 v 11.937 z"
     id="path6"
     inkscape:connector-curvature="0"
     style="fill:#afb1b6" />
  <linearGradient
     id="a"
     gradientUnits="userSpaceOnUse"
     x1="44.924"
     y1="89.652"
     x2="44.924"
     y2="64.325996">
    <stop
       offset="0"
       stop-color="#b1b5bd"
       id="stop8" />
    <stop
       offset=".495"
       stop-color="#afb3bb"
       id="stop10" />
    <stop
       offset=".673"
       stop-color="#a9acb4"
       id="stop12" />
    <stop
       offset=".8"
       stop-color="#9fa1a8"
       id="stop14" />
    <stop
       offset=".902"
       stop-color="#929299"
       id="stop16" />
    <stop
       offset=".989"
       stop-color="#818088"
       id="stop18" />
    <stop
       offset="1"
       stop-color="#7e7e86"
       id="stop20" />
  </linearGradient>
  <path
     d="M 52.865,89.652 V 77.81 a 7.94,7.94 0 0 0 -15.88,0 v 11.841 c -1.811,-0.008 -3.614,-0.02 -5.412,-0.035 V 77.678 c 0,-7.374 5.978,-13.353 13.353,-13.353 7.374,0 13.353,5.978 13.353,13.353 v 11.938 c -1.8,0.016 -3.603,0.028 -5.414,0.036 z"
     id="path23"
     inkscape:connector-curvature="0"
     style="fill:url(#a)" />
  <path
     d="m 44.924,31.942 c 8.096,0.151 20.065,1.586 23.851,2.634 1.813,0.502 1.813,2.121 1.813,3.371 v 22.429 a 2.28,2.28 0 0 1 -2.273,2.273 H 21.533 A 2.28,2.28 0 0 1 19.26,60.376 V 37.948 c 0,-1.25 0,-2.87 1.813,-3.371 3.787,-1.048 15.755,-2.484 23.851,-2.635 z"
     id="path25"
     inkscape:connector-curvature="0"
     style="fill:#a4a3a8" />
  <path
     d="m 44.924,32.403 c 7.853,0.146 19.463,1.539 23.136,2.555 1.759,0.487 1.759,2.058 1.759,3.27 v 21.756 a 2.21,2.21 0 0 1 -2.204,2.204 H 22.235 A 2.21,2.21 0 0 1 20.031,59.984 V 38.228 c 0,-1.212 0,-2.784 1.759,-3.27 3.672,-1.016 15.281,-2.409 23.134,-2.555 z"
     id="path27"
     inkscape:connector-curvature="0"
     style="fill:#f2f0ec" />
  <path
     d="m 58.623,57.23 h 8.074 v 2.266 h -8.074 z"
     id="path29"
     inkscape:connector-curvature="0"
     style="fill:#606060" />
  <path
     d="m 59.94,58.078 a 0.678,0.678 0 0 0 -0.377,0.098 0.456,0.456 0 0 1 0.223,-0.223 c 0.184,-0.092 0.461,-0.076 0.461,-0.076 v -0.361 c 0,0 -0.537,-0.027 -0.839,0.219 -0.303,0.246 -0.372,0.501 -0.372,0.759 0,0.184 0.048,0.719 0.685,0.719 0.637,0 0.679,-0.475 0.679,-0.611 0,-0.136 -0.056,-0.524 -0.46,-0.524 z m -0.196,0.8 c -0.123,0 -0.204,-0.104 -0.204,-0.269 0,-0.164 0.095,-0.211 0.182,-0.211 0.131,0 0.19,0.096 0.19,0.224 0,0.128 -0.045,0.256 -0.168,0.256 z m 2.633,-0.412 H 62.012 V 57.539 H 61.45 l -0.566,0.927 v 0.349 h 0.675 v 0.37 h 0.453 v -0.37 h 0.365 z m -1.085,0 0.267,-0.46 v 0.46 z m 2.301,-0.927 h -0.614 v 1.646 h 0.614 c 0.453,0 0.823,-0.37 0.823,-0.823 a 0.825,0.825 0 0 0 -0.823,-0.823 z m 0.289,0.823 c 0,0.272 -0.168,0.494 -0.372,0.494 h -0.102 v -0.988 h 0.102 c 0.204,0 0.372,0.222 0.372,0.494 z m 1.579,-0.823 h -0.614 v 1.646 h 0.614 c 0.453,0 0.823,-0.37 0.823,-0.823 a 0.824,0.824 0 0 0 -0.823,-0.823 z m 0.289,0.823 c 0,0.272 -0.168,0.494 -0.372,0.494 h -0.102 v -0.988 h 0.102 c 0.204,0 0.372,0.222 0.372,0.494 z"
     id="path31"
     inkscape:connector-curvature="0"
     style="fill:#ffffff" />
  <path
     d="m 63.225,53.019 0.149,-0.17 v -1.148 l -0.713,0.275 -0.591,1.053 0.591,-0.228 z"
     id="path33"
     inkscape:connector-curvature="0"
     style="fill:#253488" />
  <path
     d="m 64.492,54.619 v -1.936 l 0.723,-0.279 v 3.047 l -0.723,0.306 -1.063,-1.389 v 1.838 l -0.768,0.323 V 53.39 l 0.768,-0.292 z"
     id="path35"
     inkscape:connector-curvature="0"
     style="fill:#253287" />
  <path
     d="m 61.51,55.454 -0.679,-1.318 v 1.62 z"
     id="path37"
     inkscape:connector-curvature="0"
     style="fill:#253488" />
  <path
     d="m 61.554,52.404 0.34,0.693 0.177,-0.068 0.591,-1.053 -0.713,-0.279 z m 1.671,0.615 0.543,-0.615 0.724,0.279 v 1.936 l -1.063,-1.522 z"
     id="path39"
     inkscape:connector-curvature="0"
     style="fill:#238b41" />
  <path
     d="m 62.661,56.528 v -3.139 l -0.768,-0.292 v 1.593 l -1.067,-2.007 -0.723,-0.279 v 3.047 l 0.723,0.306 v -1.62 l 1.067,2.069 z"
     id="path41"
     inkscape:connector-curvature="0"
     style="fill:#238b41" />
  <path
     d="m 60.831,52.683 0.723,-0.279 0.34,0.693 v 1.593 z m 2.598,2.442 0.217,0.306 0.846,0.326 -1.063,-1.389 z"
     id="path43"
     inkscape:connector-curvature="0"
     style="fill:#c33937" />
  <path
     d="m 61.897,53.097 0.768,-0.292 0.768,0.292 -0.768,0.292 z m 2.595,-0.971 0.723,0.279 -0.723,0.279 -0.724,-0.279 z m -3.661,0 0.723,0.279 -0.723,0.279 -0.723,-0.279 z m 1.83,-0.703 -0.713,0.275 0.713,0.279 0.713,-0.275 z"
     id="path45"
     inkscape:connector-curvature="0"
     style="fill:#e6b531" />
  <g
     id="g51"
     style="fill:#233387">
    <path
       d="m 65.384,50.658 a 0.1,0.1 0 0 0 -0.097,0.097 0.1,0.1 0 0 0 0.097,0.097 0.1,0.1 0 0 0 0.097,-0.097 0.098,0.098 0 0 0 -0.097,-0.097 z m 0,0.176 a 0.08,0.08 0 0 1 0,-0.158 0.08,0.08 0 0 1 0.079,0.079 0.08,0.08 0 0 1 -0.079,0.079 z"
       id="path47"
       inkscape:connector-curvature="0" />
    <path
       d="m 65.369,50.807 h -0.022 v -0.105 h 0.045 c 0.019,0 0.037,0.007 0.037,0.026 0,0.015 -0.007,0.022 -0.022,0.026 0.019,0.004 0.019,0.011 0.019,0.026 0,0.007 0.004,0.019 0.007,0.026 h -0.026 c -0.004,-0.011 -0.004,-0.019 -0.004,-0.03 0,-0.007 -0.004,-0.015 -0.011,-0.015 H 65.37 v 0.046 z m 0,-0.059 h 0.019 c 0.011,0 0.015,-0.004 0.015,-0.015 0,-0.011 -0.007,-0.015 -0.015,-0.015 h -0.019 z"
       id="path49"
       inkscape:connector-curvature="0" />
  </g>
  <path
     d="m 63.593,50.015 h 0.363 c 0.31,0 0.408,0.176 0.408,0.415 0,0.247 -0.153,0.4 -0.389,0.4 h -0.381 v -0.815 z m 0.299,0.632 h 0.03 c 0.049,0 0.082,-0.015 0.101,-0.049 a 0.42,0.42 0 0 0 0.022,-0.176 0.438,0.438 0 0 0 -0.022,-0.176 c -0.019,-0.034 -0.052,-0.049 -0.101,-0.049 h -0.03 z m 0.95,-0.655 c 0.266,0 0.4,0.176 0.4,0.43 0,0.254 -0.131,0.43 -0.4,0.43 -0.266,0 -0.4,-0.176 -0.4,-0.43 0,-0.254 0.131,-0.43 0.4,-0.43 z m 0,0.651 c 0.049,0 0.082,-0.022 0.082,-0.224 0,-0.194 -0.034,-0.224 -0.082,-0.224 -0.049,0 -0.082,0.026 -0.082,0.224 0,0.198 0.033,0.224 0.082,0.224 z m -5.397,-0.628 v 0.467 h -0.004 l -0.165,-0.467 h -0.367 v 0.815 h 0.247 v -0.471 h 0.004 l 0.165,0.471 h 0.366 v -0.815 z m 1.384,0 v 0.467 H 60.825 L 60.66,50.015 h -0.367 v 0.815 h 0.247 v -0.471 h 0.004 l 0.165,0.471 h 0.367 v -0.815 z m 2.382,0 v 0.467 h -0.004 l -0.165,-0.467 h -0.367 v 0.815 h 0.247 v -0.471 h 0.004 l 0.165,0.471 h 0.367 v -0.815 z m -3.063,0 v 0.815 h -0.307 v -0.815 z m 1.212,0.815 v -0.595 h -0.194 v -0.221 h 0.696 v 0.221 h -0.194 v 0.595 z m 0.894,-0.599 v 0.086 h 0.28 v 0.209 h -0.28 v 0.09 h 0.314 v 0.213 h -0.613 v -0.815 h 0.606 v 0.217 z"
     id="path53"
     inkscape:connector-curvature="0"
     style="fill:#233387" />
  <path
     d="m 65.792,49.906 h -0.056 c -0.131,0.007 -0.18,0.06 -0.198,0.123 h 0.004 a 0.17,0.17 0 0 1 0.123,-0.041 c 0.101,0 0.194,0.075 0.194,0.213 A 0.233,0.233 0 0 1 65.62,50.44 c -0.183,0 -0.262,-0.138 -0.262,-0.288 0,-0.12 0.041,-0.224 0.112,-0.288 a 0.377,0.377 0 0 1 0.258,-0.097 h 0.06 v 0.138 h 0.004 z M 65.62,50.31 c 0.041,0 0.067,-0.041 0.067,-0.097 0,-0.045 -0.022,-0.097 -0.079,-0.097 a 0.077,0.077 0 0 0 -0.071,0.049 c -0.004,0.007 -0.004,0.019 -0.004,0.037 0.005,0.052 0.031,0.108 0.087,0.108 z m 0.561,0.12 v -0.146 h -0.273 v -0.116 l 0.217,-0.389 h 0.217 v 0.374 h 0.067 v 0.135 h -0.067 v 0.146 h -0.165 z m 0,-0.281 v -0.112 c 0,-0.041 0.004,-0.086 0.004,-0.131 h -0.004 a 1.903,1.903 0 0 1 -0.06,0.131 l -0.052,0.108 v 0.004 z"
     id="path55"
     inkscape:connector-curvature="0"
     style="fill:#c33d3a" />
  <path
     stroke-miterlimit="10"
     d="M 58.319,49.503 H 67 v 10.261 h -8.681 z"
     id="path57"
     inkscape:connector-curvature="0"
     style="fill:none;stroke:#79797a;stroke-width:0.113;stroke-miterlimit:10" />
  <g
     id="g67">
    <g
       id="g65"
       style="fill:#545459">
      <path
         d="m 23.573,40.336 c -1.033,0 -1.723,-0.753 -1.723,-1.667 0,-0.913 0.692,-1.676 1.721,-1.673 H 33.3 c 1.029,-0.003 1.721,0.759 1.721,1.673 0,0.914 -0.69,1.667 -1.723,1.667 z m 0.003,-2.929 c -0.818,0.001 -1.319,0.564 -1.319,1.26 0,0.696 0.499,1.263 1.319,1.26 h 9.719 c 0.821,0.003 1.32,-0.564 1.32,-1.26 0,-0.696 -0.502,-1.259 -1.32,-1.26 z"
         id="path59"
         inkscape:connector-curvature="0" />
      <path
         d="m 23.157,37.877 h 0.476 l 0.658,1.097 v -1.097 h 0.472 v 1.573 h -0.472 l -0.662,-1.097 v 1.097 h -0.473 z m 4.174,0.162 h 0.46 v 0.212 h 0.249 v 0.156 h -0.249 v 1.044 h -0.46 v -1.044 h -0.25 v -0.155 h 0.25 z m -2.305,0.365 h 0.459 v 1.046 h -0.459 z m -0.001,-0.528 h 0.461 v 0.322 h -0.461 z m 8.051,0.457 c -0.371,0 -0.671,0.262 -0.671,0.587 0,0.324 0.301,0.587 0.671,0.587 0.371,0 0.671,-0.263 0.671,-0.587 0,-0.325 -0.3,-0.587 -0.671,-0.587 m 0.185,0.585 v 0.222 c 0,0.167 -0.095,0.235 -0.188,0.235 -0.092,0 -0.188,-0.069 -0.188,-0.235 v -0.226 -0.218 c 0,-0.166 0.097,-0.234 0.188,-0.234 0.092,0 0.188,0.068 0.188,0.234 a 8.165,8.165 0 0 0 0,0.222 z m -1.456,0.003 v -0.187 c 0,-0.162 -0.109,-0.203 -0.18,-0.203 -0.073,0 -0.18,0.041 -0.18,0.203 v 0.372 c 0,0.162 0.107,0.204 0.18,0.204 0.071,0 0.18,-0.042 0.18,-0.204 z m -0.003,-1.044 h 0.453 v 1.572 h -0.454 v -0.06 a 0.54,0.54 0 0 1 -0.529,0.039 0.56,0.56 0 0 1 -0.314,-0.519 c 0,-0.276 0.253,-0.577 0.584,-0.547 a 0.6,0.6 0 0 1 0.26,0.094 z m -5.241,0.479 c 0.172,-0.005 0.52,0.111 0.518,0.524 v 0.569 h -0.456 v -0.687 c 0,-0.091 -0.085,-0.192 -0.21,-0.192 -0.125,0 -0.218,0.101 -0.218,0.192 v 0.687 h -0.456 v -1.046 h 0.456 v 0.11 a 0.543,0.543 0 0 1 0.366,-0.157 m 3.733,0 c 0.172,-0.005 0.52,0.111 0.518,0.524 v 0.569 h -0.457 v -0.687 c 0,-0.091 -0.085,-0.192 -0.21,-0.192 -0.125,0 -0.218,0.101 -0.218,0.192 v 0.687 h -0.456 v -1.046 h 0.456 v 0.11 a 0.548,0.548 0 0 1 0.367,-0.157 m -1.445,0.727 v 0.064 c 0,0.191 -0.122,0.234 -0.19,0.234 -0.068,0 -0.192,-0.043 -0.192,-0.234 v -0.216 h 0.865 c 0,-0.324 -0.304,-0.593 -0.678,-0.593 -0.374,0 -0.676,0.262 -0.676,0.587 0,0.325 0.303,0.587 0.676,0.587 0.31,0 0.572,-0.182 0.652,-0.429 z m -0.382,-0.315 c -10e-4,-0.092 0.001,-0.153 0.03,-0.205 a 0.183,0.183 0 1 1 0.323,0 c 0.029,0.052 0.031,0.113 0.03,0.205 z m 5.375,-0.719 c 0.045,0 0.085,-0.003 0.085,-0.058 0,-0.044 -0.039,-0.052 -0.076,-0.052 h -0.072 v 0.111 h 0.063 z m -0.063,0.202 h -0.053 v -0.358 h 0.132 c 0.082,0 0.123,0.031 0.123,0.102 0,0.064 -0.039,0.092 -0.09,0.098 l 0.099,0.157 h -0.059 l -0.092,-0.155 h -0.06 z"
         id="path61"
         inkscape:connector-curvature="0" />
      <path
         d="m 33.843,38.331 c 0.137,0 0.244,-0.11 0.244,-0.26 0,-0.147 -0.108,-0.258 -0.244,-0.258 -0.138,0 -0.246,0.111 -0.246,0.258 0,0.15 0.108,0.26 0.246,0.26 m -0.306,-0.26 a 0.3055,0.3055 0 1 1 0.611,0 0.3055,0.3055 0 1 1 -0.611,0"
         id="path63"
         inkscape:connector-curvature="0" />
    </g>
  </g>
  <g
     id="g71"
     style="fill:#464648">
    <path
       d="M 23.097,60.115 H 22.975 V 59.29 l -0.276,0.825 H 22.584 L 22.308,59.29 v 0.825 h -0.122 v -0.97 h 0.193 l 0.263,0.808 0.264,-0.808 h 0.192 v 0.97 z m 1.052,0 H 24.004 L 23.892,59.82 h -0.406 l -0.107,0.295 h -0.136 l 0.372,-0.97 h 0.138 z m -0.295,-0.397 -0.171,-0.45 -0.163,0.45 z m 0.442,-0.572 h 0.308 c 0.33,0 0.494,0.16 0.494,0.48 0,0.327 -0.165,0.49 -0.494,0.49 H 24.296 Z M 24.424,60 h 0.177 c 0.141,0 0.237,-0.033 0.288,-0.098 A 0.443,0.443 0 0 0 24.966,59.625 0.418,0.418 0 0 0 24.89,59.356 C 24.839,59.293 24.743,59.261 24.602,59.261 H 24.425 V 60 Z m 1.612,0.115 h -0.723 v -0.97 h 0.701 v 0.115 h -0.572 v 0.296 h 0.535 v 0.115 H 25.442 V 60 h 0.595 v 0.115 z m 0.764,0 h -0.129 v -0.97 H 26.8 Z m 1.033,0 H 27.701 L 27.193,59.35 v 0.765 h -0.122 v -0.97 h 0.131 l 0.508,0.765 v -0.765 h 0.122 v 0.97 z m 1.115,-0.31 c 0,0.119 -0.023,0.203 -0.069,0.252 -0.046,0.05 -0.114,0.074 -0.203,0.074 a 0.252,0.252 0 0 1 -0.191,-0.073 0.267,0.267 0 0 1 -0.07,-0.194 v -0.026 h 0.129 c 0,0.118 0.044,0.177 0.132,0.177 0.046,0 0.082,-0.013 0.107,-0.039 0.025,-0.026 0.037,-0.081 0.037,-0.166 v -0.666 h 0.128 z m 1.053,0.31 H 29.856 L 29.744,59.82 h -0.406 l -0.107,0.295 h -0.136 l 0.372,-0.97 h 0.138 z m -0.295,-0.397 -0.171,-0.45 -0.163,0.45 z m 0.441,-0.572 h 0.362 a 0.75,0.75 0 0 1 0.199,0.022 0.214,0.214 0 0 1 0.127,0.096 0.303,0.303 0 0 1 0.047,0.165 c 0,0.098 -0.031,0.172 -0.093,0.223 -0.062,0.051 -0.152,0.076 -0.27,0.076 h -0.244 v 0.388 h -0.128 z m 0.129,0.467 h 0.245 c 0.082,0 0.141,-0.015 0.176,-0.046 0.035,-0.031 0.053,-0.075 0.053,-0.134 A 0.188,0.188 0 0 0 30.721,59.33 0.128,0.128 0 0 0 30.647,59.273 0.53,0.53 0 0 0 30.518,59.261 h -0.243 v 0.352 z m 1.611,0.502 H 31.742 L 31.63,59.82 h -0.406 l -0.107,0.295 H 30.98 l 0.372,-0.97 h 0.138 z m -0.295,-0.397 -0.171,-0.45 -0.163,0.45 z m 1.203,0.397 H 32.663 L 32.155,59.35 v 0.765 h -0.122 v -0.97 h 0.131 l 0.508,0.765 v -0.765 h 0.122 v 0.97 z"
       id="path69"
       inkscape:connector-curvature="0" />
  </g>
  <g
     id="g75"
     style="fill:#464648">
    <path
       d="m 22.577,57.323 a 0.48,0.48 0 0 1 0.351,0.147 c 0.098,0.098 0.147,0.215 0.147,0.352 0,0.137 -0.049,0.255 -0.146,0.352 a 0.478,0.478 0 0 1 -0.352,0.147 0.48,0.48 0 0 1 -0.353,-0.147 0.48,0.48 0 0 1 -0.147,-0.353 0.48,0.48 0 0 1 0.147,-0.353 0.484,0.484 0 0 1 0.353,-0.145 z m -0.001,0.916 a 0.401,0.401 0 0 0 0.294,-0.123 0.402,0.402 0 0 0 0.123,-0.295 0.4,0.4 0 0 0 -0.122,-0.294 c -0.082,-0.081 -0.18,-0.122 -0.294,-0.122 -0.114,0 -0.213,0.041 -0.294,0.122 a 0.4,0.4 0 0 0 -0.122,0.294 c 0,0.115 0.041,0.213 0.122,0.295 0.08,0.082 0.178,0.123 0.293,0.123 z m 0.238,-0.312 c -0.03,0.121 -0.108,0.182 -0.235,0.182 a 0.25,0.25 0 0 1 -0.191,-0.077 0.294,0.294 0 0 1 -0.072,-0.208 c 0,-0.086 0.024,-0.155 0.072,-0.205 a 0.259,0.259 0 0 1 0.196,-0.076 c 0.059,0 0.109,0.015 0.151,0.044 0.041,0.029 0.066,0.07 0.076,0.123 H 22.719 C 22.706,57.648 22.66,57.616 22.582,57.616 a 0.155,0.155 0 0 0 -0.128,0.057 0.235,0.235 0 0 0 -0.046,0.153 c 0,0.062 0.016,0.111 0.047,0.149 a 0.154,0.154 0 0 0 0.123,0.056 c 0.081,0 0.129,-0.034 0.145,-0.103 h 0.091 z m 1.023,0.382 h -0.681 c 0,-0.059 0.019,-0.116 0.058,-0.169 0.039,-0.054 0.11,-0.12 0.213,-0.199 0.104,-0.079 0.175,-0.142 0.213,-0.189 a 0.247,0.247 0 0 0 0.057,-0.16 0.164,0.164 0 0 0 -0.049,-0.126 0.193,0.193 0 0 0 -0.138,-0.046 0.204,0.204 0 0 0 -0.132,0.046 0.192,0.192 0 0 0 -0.062,0.136 H 23.18 a 0.29,0.29 0 0 1 0.1,-0.204 0.344,0.344 0 0 1 0.233,-0.076 c 0.103,0 0.181,0.026 0.237,0.078 a 0.258,0.258 0 0 1 0.083,0.195 0.3,0.3 0 0 1 -0.062,0.187 1.49,1.49 0 0 1 -0.245,0.225 c -0.122,0.096 -0.184,0.158 -0.187,0.187 h 0.496 v 0.115 z m 0.514,-0.986 c 0.223,0 0.335,0.168 0.335,0.503 0,0.333 -0.112,0.5 -0.335,0.5 -0.223,0 -0.334,-0.167 -0.334,-0.5 0,-0.336 0.111,-0.503 0.334,-0.503 z m 0,0.905 a 0.16,0.16 0 0 0 0.148,-0.088 c 0.034,-0.059 0.05,-0.164 0.05,-0.314 0,-0.15 -0.017,-0.255 -0.05,-0.315 a 0.161,0.161 0 0 0 -0.148,-0.09 c -0.065,0 -0.113,0.03 -0.147,0.09 -0.034,0.06 -0.05,0.165 -0.05,0.315 0,0.15 0.017,0.255 0.05,0.314 a 0.16,0.16 0 0 0 0.147,0.088 z m 0.84,-0.905 c 0.223,0 0.335,0.168 0.335,0.503 0,0.333 -0.112,0.5 -0.335,0.5 -0.223,0 -0.334,-0.167 -0.334,-0.5 0,-0.336 0.111,-0.503 0.334,-0.503 z m 0,0.905 a 0.16,0.16 0 0 0 0.148,-0.088 c 0.034,-0.059 0.05,-0.164 0.05,-0.314 0,-0.15 -0.017,-0.255 -0.05,-0.315 a 0.161,0.161 0 0 0 -0.148,-0.09 c -0.065,0 -0.113,0.03 -0.147,0.09 -0.034,0.06 -0.05,0.165 -0.05,0.315 0,0.15 0.017,0.255 0.05,0.314 a 0.162,0.162 0 0 0 0.147,0.088 z m 0.84,-0.905 c 0.223,0 0.335,0.168 0.335,0.503 0,0.333 -0.112,0.5 -0.335,0.5 -0.223,0 -0.334,-0.167 -0.334,-0.5 0,-0.336 0.112,-0.503 0.334,-0.503 z m 0,0.905 a 0.16,0.16 0 0 0 0.148,-0.088 c 0.034,-0.059 0.05,-0.164 0.05,-0.314 0,-0.15 -0.017,-0.255 -0.05,-0.315 a 0.161,0.161 0 0 0 -0.148,-0.09 c -0.065,0 -0.113,0.03 -0.147,0.09 -0.034,0.06 -0.05,0.165 -0.05,0.315 0,0.15 0.017,0.255 0.05,0.314 a 0.162,0.162 0 0 0 0.147,0.088 z m 1.523,0.081 h -0.132 l -0.508,-0.765 v 0.765 h -0.122 v -0.97 h 0.131 l 0.508,0.765 v -0.765 h 0.122 v 0.97 z m 0.365,-0.835 h -0.125 v -0.135 h 0.125 z m 0,0.835 h -0.125 v -0.702 h 0.125 z m 0.348,-0.613 a 0.276,0.276 0 0 1 0.21,-0.105 c 0.158,0 0.238,0.086 0.238,0.259 v 0.459 H 28.59 v -0.454 c 0,-0.057 -0.01,-0.099 -0.031,-0.124 -0.02,-0.025 -0.054,-0.038 -0.101,-0.038 -0.064,0 -0.127,0.037 -0.191,0.112 v 0.503 h -0.125 v -0.702 h 0.125 z m 0.94,0.614 a 0.49,0.49 0 0 1 -0.089,0.008 c -0.051,0 -0.089,-0.009 -0.112,-0.027 a 0.11,0.11 0 0 1 -0.044,-0.07 0.603,0.603 0 0 1 -0.009,-0.117 v -0.398 h -0.087 v -0.098 h 0.087 v -0.175 h 0.124 v 0.175 h 0.114 v 0.098 h -0.114 v 0.405 c 0,0.048 0.006,0.078 0.018,0.092 0.012,0.013 0.029,0.02 0.05,0.02 a 0.41,0.41 0 0 0 0.062,-0.005 z m 0.442,0.015 a 0.33,0.33 0 0 1 -0.249,-0.097 0.371,0.371 0 0 1 -0.094,-0.27 0.38,0.38 0 0 1 0.091,-0.27 0.31,0.31 0 0 1 0.238,-0.097 c 0.1,0 0.18,0.032 0.24,0.096 a 0.38,0.38 0 0 1 0.09,0.271 v 0.03 h -0.529 a 0.275,0.275 0 0 0 0.067,0.181 0.2,0.2 0 0 0 0.146,0.059 0.216,0.216 0 0 0 0.118,-0.033 0.11,0.11 0 0 0 0.055,-0.095 h 0.129 a 0.232,0.232 0 0 1 -0.098,0.167 0.348,0.348 0 0 1 -0.204,0.058 z m 0.184,-0.435 a 0.257,0.257 0 0 0 -0.068,-0.152 0.178,0.178 0 0 0 -0.13,-0.05 0.18,0.18 0 0 0 -0.128,0.05 0.243,0.243 0 0 0 -0.068,0.152 z m 0.435,-0.194 a 0.276,0.276 0 0 1 0.21,-0.105 c 0.158,0 0.238,0.086 0.238,0.259 v 0.459 H 30.59 v -0.454 c 0,-0.057 -0.01,-0.099 -0.031,-0.124 -0.02,-0.025 -0.054,-0.038 -0.101,-0.038 -0.064,0 -0.127,0.037 -0.191,0.112 v 0.503 h -0.125 v -0.702 h 0.125 v 0.09 z m 1.112,0.529 a 0.253,0.253 0 0 1 -0.201,0.101 0.25,0.25 0 0 1 -0.213,-0.098 0.422,0.422 0 0 1 -0.075,-0.264 0.41,0.41 0 0 1 0.084,-0.272 0.265,0.265 0 0 1 0.212,-0.1 0.28,0.28 0 0 1 0.193,0.07 V 57.34 h 0.124 v 0.97 H 31.38 Z m 0,-0.118 v -0.333 a 0.247,0.247 0 0 0 -0.185,-0.085 0.15,0.15 0 0 0 -0.128,0.069 0.362,0.362 0 0 0 -0.048,0.206 c 0,0.086 0.015,0.152 0.045,0.197 0.03,0.045 0.072,0.067 0.125,0.067 0.071,0 0.134,-0.04 0.191,-0.121 z m 0.633,-0.516 c 0.1,0 0.18,0.032 0.24,0.096 a 0.38,0.38 0 0 1 0.09,0.271 c 0,0.116 -0.03,0.207 -0.09,0.271 a 0.313,0.313 0 0 1 -0.24,0.096 0.311,0.311 0 0 1 -0.239,-0.096 0.38,0.38 0 0 1 -0.09,-0.271 0.38,0.38 0 0 1 0.09,-0.271 0.31,0.31 0 0 1 0.239,-0.096 z m 0,0.637 c 0.06,0 0.108,-0.022 0.145,-0.068 0.037,-0.045 0.056,-0.112 0.056,-0.201 0,-0.09 -0.019,-0.157 -0.056,-0.202 a 0.179,0.179 0 0 0 -0.145,-0.068 0.18,0.18 0 0 0 -0.145,0.068 c -0.037,0.045 -0.056,0.113 -0.056,0.202 0,0.089 0.019,0.156 0.056,0.201 a 0.179,0.179 0 0 0 0.145,0.068 z"
       id="path73"
       inkscape:connector-curvature="0" />
  </g>
  <g
     id="g147">
    <linearGradient
       id="b"
       gradientUnits="userSpaceOnUse"
       x1="40.370998"
       y1="84.963997"
       x2="40.370998"
       y2="83.271004">
      <stop
         offset="0"
         stop-color="#717178"
         id="stop77" />
      <stop
         offset=".3"
         stop-color="#8c8990"
         id="stop79" />
      <stop
         offset=".301"
         stop-color="#8c8990"
         id="stop81" />
      <stop
         offset=".444"
         stop-color="#a5a3ab"
         id="stop83" />
      <stop
         offset=".586"
         stop-color="#b8b7c0"
         id="stop85" />
      <stop
         offset=".727"
         stop-color="#c4c6cf"
         id="stop87" />
      <stop
         offset=".866"
         stop-color="#cbced8"
         id="stop89" />
      <stop
         offset="1"
         stop-color="#cdd1da"
         id="stop91" />
    </linearGradient>
    <circle
       cx="40.370998"
       cy="84.116997"
       r="0.847"
       id="circle94"
       style="fill:url(#b)" />
    <linearGradient
       id="c"
       gradientUnits="userSpaceOnUse"
       x1="43.407001"
       y1="84.963997"
       x2="43.407001"
       y2="83.271004">
      <stop
         offset="0"
         stop-color="#717178"
         id="stop96" />
      <stop
         offset=".3"
         stop-color="#8c8990"
         id="stop98" />
      <stop
         offset=".326"
         stop-color="#908d94"
         id="stop100" />
      <stop
         offset=".498"
         stop-color="#a9a8b0"
         id="stop102" />
      <stop
         offset=".669"
         stop-color="#bcbdc6"
         id="stop104" />
      <stop
         offset=".837"
         stop-color="#c8cbd4"
         id="stop106" />
      <stop
         offset="1"
         stop-color="#ccd0d8"
         id="stop108" />
    </linearGradient>
    <circle
       cx="43.407001"
       cy="84.116997"
       r="0.847"
       id="circle111"
       style="fill:url(#c)" />
    <linearGradient
       id="d"
       gradientUnits="userSpaceOnUse"
       x1="46.442001"
       y1="84.963997"
       x2="46.442001"
       y2="83.271004">
      <stop
         offset="0"
         stop-color="#717178"
         id="stop113" />
      <stop
         offset=".3"
         stop-color="#8c8990"
         id="stop115" />
      <stop
         offset=".326"
         stop-color="#908d94"
         id="stop117" />
      <stop
         offset=".498"
         stop-color="#a9a8b0"
         id="stop119" />
      <stop
         offset=".669"
         stop-color="#bcbdc6"
         id="stop121" />
      <stop
         offset=".837"
         stop-color="#c8cbd4"
         id="stop123" />
      <stop
         offset="1"
         stop-color="#ccd0d8"
         id="stop125" />
    </linearGradient>
    <circle
       cx="46.442001"
       cy="84.116997"
       r="0.847"
       id="circle128"
       style="fill:url(#d)" />
    <linearGradient
       id="e"
       gradientUnits="userSpaceOnUse"
       x1="49.478001"
       y1="84.963997"
       x2="49.478001"
       y2="83.271004">
      <stop
         offset="0"
         stop-color="#717178"
         id="stop130" />
      <stop
         offset=".3"
         stop-color="#8c8990"
         id="stop132" />
      <stop
         offset=".326"
         stop-color="#908d94"
         id="stop134" />
      <stop
         offset=".498"
         stop-color="#a9a8b0"
         id="stop136" />
      <stop
         offset=".669"
         stop-color="#bcbdc6"
         id="stop138" />
      <stop
         offset=".837"
         stop-color="#c8cbd4"
         id="stop140" />
      <stop
         offset="1"
         stop-color="#ccd0d8"
         id="stop142" />
    </linearGradient>
    <circle
       cx="49.478001"
       cy="84.116997"
       r="0.847"
       id="circle145"
       style="fill:url(#e)" />
  </g>
  <linearGradient
     id="f"
     gradientUnits="userSpaceOnUse"
     x1="44.924"
     y1="30.437"
     x2="44.924"
     y2="0.52100003">
    <stop
       offset="0"
       stop-color="#dcd6dc"
       id="stop149" />
    <stop
       offset=".007"
       stop-color="#dbd4da"
       id="stop151" />
    <stop
       offset=".094"
       stop-color="#c8c4ca"
       id="stop153" />
    <stop
       offset=".197"
       stop-color="#bab7bd"
       id="stop155" />
    <stop
       offset=".324"
       stop-color="#b0aeb4"
       id="stop157" />
    <stop
       offset=".503"
       stop-color="#abaaaf"
       id="stop159" />
    <stop
       offset="1"
       stop-color="#a9a8ae"
       id="stop161" />
  </linearGradient>
  <path
     d="m 52.865,1.562 -0.96,-1.04 H 31.572 v 16.563 c 0,7.374 5.978,13.353 13.353,13.353 7.374,0 13.353,-5.978 13.353,-13.353 V 1.562 Z"
     id="path164"
     inkscape:connector-curvature="0"
     style="fill:url(#f)" />
  <path
     d="m 44.924,24.893 a 7.94,7.94 0 0 1 -7.94,-7.94 V 0.521 h 14.921 l 0.96,1.04 v 15.391 a 7.94,7.94 0 0 1 -7.941,7.941 z"
     id="path166"
     inkscape:connector-curvature="0"
     style="fill:#b3b7bf" />
  <path
     d="M 39.502,8.752 H 50.604 L 45.053,5.516 Z"
     id="path168"
     inkscape:connector-curvature="0"
     style="fill:#cbccd2" />
  <path
     d="M 39.245,8.752 H 50.346 L 44.796,5.516 Z"
     id="path170"
     inkscape:connector-curvature="0"
     style="fill:#828488" />
  <path
     d="M 39.374,8.787 H 50.475 L 44.924,5.551 Z"
     id="path172"
     inkscape:connector-curvature="0"
     style="fill:#b0b3ba" />
  <linearGradient
     id="g"
     gradientUnits="userSpaceOnUse"
     x1="23.068001"
     y1="89.504997"
     x2="23.115999"
     y2="86.740997">
    <stop
       offset="0"
       stop-color="#3b3a42"
       id="stop174" />
    <stop
       offset=".029"
       stop-color="#48474e"
       id="stop176" />
    <stop
       offset=".087"
       stop-color="#5f5d64"
       id="stop178" />
    <stop
       offset=".154"
       stop-color="#75737a"
       id="stop180" />
    <stop
       offset=".229"
       stop-color="#8a878d"
       id="stop182" />
    <stop
       offset=".317"
       stop-color="#9b999f"
       id="stop184" />
    <stop
       offset=".425"
       stop-color="#a7a7ad"
       id="stop186" />
    <stop
       offset=".578"
       stop-color="#aeafb4"
       id="stop188" />
    <stop
       offset="1"
       stop-color="#afb1b6"
       id="stop190" />
  </linearGradient>
  <path
     d="m 9.156,89.121 c 2.911,-2.026 4.416,-2.363 14.316,-2.363 7.035,0 12.077,1.016 13.512,2.894 C 35.173,89.644 33.37,89.632 31.572,89.617 24.044,89.55 16.617,89.407 9.156,89.121 Z"
     id="path193"
     inkscape:connector-curvature="0"
     style="fill:url(#g)" />
  <linearGradient
     id="h"
     gradientUnits="userSpaceOnUse"
     x1="318.56201"
     y1="89.504997"
     x2="318.60999"
     y2="86.740997"
     gradientTransform="matrix(-1,0,0,1,385.342,0)">
    <stop
       offset="0"
       stop-color="#3b3a42"
       id="stop195" />
    <stop
       offset=".029"
       stop-color="#48474e"
       id="stop197" />
    <stop
       offset=".087"
       stop-color="#5f5d64"
       id="stop199" />
    <stop
       offset=".154"
       stop-color="#75737a"
       id="stop201" />
    <stop
       offset=".229"
       stop-color="#8a878d"
       id="stop203" />
    <stop
       offset=".317"
       stop-color="#9b999f"
       id="stop205" />
    <stop
       offset=".425"
       stop-color="#a7a7ad"
       id="stop207" />
    <stop
       offset=".578"
       stop-color="#aeafb4"
       id="stop209" />
    <stop
       offset="1"
       stop-color="#afb1b6"
       id="stop211" />
  </linearGradient>
  <path
     d="m 80.693,89.121 c -2.911,-2.026 -4.416,-2.363 -14.316,-2.363 -7.035,0 -12.077,1.016 -13.512,2.894 1.811,-0.008 3.614,-0.02 5.412,-0.035 7.528,-0.067 14.955,-0.21 22.416,-0.496 z"
     id="path214"
     inkscape:connector-curvature="0"
     style="fill:url(#h)" />
  <path
     d="m 31.572,87.354 v 2.262"
     id="path216"
     inkscape:connector-curvature="0"
     style="fill:none" />
  <linearGradient
     id="i"
     gradientUnits="userSpaceOnUse"
     x1="34.257999"
     y1="89.663002"
     x2="34.297001"
     y2="87.402">
    <stop
       offset="0"
       stop-color="#3b3a42"
       id="stop218" />
    <stop
       offset=".033"
       stop-color="#4a4950"
       id="stop220" />
    <stop
       offset=".092"
       stop-color="#615f67"
       id="stop222" />
    <stop
       offset=".158"
       stop-color="#77757d"
       id="stop224" />
    <stop
       offset=".233"
       stop-color="#8b8a91"
       id="stop226" />
    <stop
       offset=".32"
       stop-color="#9c9ca4"
       id="stop228" />
    <stop
       offset=".428"
       stop-color="#a8aab2"
       id="stop230" />
    <stop
       offset=".58"
       stop-color="#aeb2ba"
       id="stop232" />
    <stop
       offset="1"
       stop-color="#b0b4bc"
       id="stop234" />
  </linearGradient>
  <path
     d="m 31.572,89.616 v -2.262 c 2.724,0.485 4.619,1.26 5.413,2.298 -1.812,-0.008 -3.615,-0.02 -5.413,-0.036"
     id="path237"
     inkscape:connector-curvature="0"
     style="fill:url(#i)" />
  <linearGradient
     id="j"
     gradientUnits="userSpaceOnUse"
     x1="79.001999"
     y1="89.663002"
     x2="79.042"
     y2="87.402"
     gradientTransform="matrix(-1,0,0,1,134.593,0)">
    <stop
       offset="0"
       stop-color="#3b3a42"
       id="stop239" />
    <stop
       offset=".033"
       stop-color="#4a4950"
       id="stop241" />
    <stop
       offset=".092"
       stop-color="#615f67"
       id="stop243" />
    <stop
       offset=".158"
       stop-color="#77757d"
       id="stop245" />
    <stop
       offset=".233"
       stop-color="#8b8a91"
       id="stop247" />
    <stop
       offset=".32"
       stop-color="#9c9ca4"
       id="stop249" />
    <stop
       offset=".428"
       stop-color="#a8aab2"
       id="stop251" />
    <stop
       offset=".58"
       stop-color="#aeb2ba"
       id="stop253" />
    <stop
       offset="1"
       stop-color="#b0b4bc"
       id="stop255" />
  </linearGradient>
  <path
     d="m 58.277,89.616 v -2.262 c -2.724,0.485 -4.619,1.26 -5.413,2.298 1.812,-0.008 3.615,-0.02 5.413,-0.036"
     id="path258"
     inkscape:connector-curvature="0"
     style="fill:url(#j)" />
</svg>
