<?xml version="1.0" encoding="UTF-8" standalone="no"?>
<svg
   xmlns:dc="http://purl.org/dc/elements/1.1/"
   xmlns:cc="http://creativecommons.org/ns#"
   xmlns:rdf="http://www.w3.org/1999/02/22-rdf-syntax-ns#"
   xmlns:svg="http://www.w3.org/2000/svg"
   xmlns="http://www.w3.org/2000/svg"
   xmlns:sodipodi="http://sodipodi.sourceforge.net/DTD/sodipodi-0.dtd"
   xmlns:inkscape="http://www.inkscape.org/namespaces/inkscape"
   viewBox="0 0 255 110.437"
   version="1.1"
   id="svg30"
   sodipodi:docname="logo.svg"
   width="255"
   height="110.437"
   inkscape:version="0.92.4 5da689c313, 2019-01-14">
  <metadata
     id="metadata36">
    <rdf:RDF>
      <cc:Work
         rdf:about="">
        <dc:format>image/svg+xml</dc:format>
        <dc:type
           rdf:resource="http://purl.org/dc/dcmitype/StillImage" />
      </cc:Work>
    </rdf:RDF>
  </metadata>
  <defs
     id="defs34" />
  <sodipodi:namedview
     pagecolor="#ffffff"
     bordercolor="#666666"
     borderopacity="1"
     objecttolerance="10"
     gridtolerance="10"
     guidetolerance="10"
     inkscape:pageopacity="0"
     inkscape:pageshadow="2"
     inkscape:window-width="640"
     inkscape:window-height="480"
     id="namedview32"
     showgrid="false"
     inkscape:zoom="1.0719979"
     inkscape:cx="126.3995"
     inkscape:cy="55.218502"
     inkscape:window-x="0"
     inkscape:window-y="0"
     inkscape:window-maximized="0"
     inkscape:current-layer="svg30">
    <inkscape:grid
       type="xygrid"
       id="grid843"
       originx="0"
       originy="3.5400392e-06" />
  </sodipodi:namedview>
  <text
     font-size="2"
     id="text2"
     style="font-size:2px;font-family:ArialMT;fill:#c23435"
     x="93.822998"
     y="98.972">I don’t like bugs!</text>
  <path
     d="m 0,20.578 h 252.799 v 89.859 H 0 Z"
     id="path4"
     inkscape:connector-curvature="0"
     style="fill:#070308" />
  <g
     id="g14"
     style="fill:#ffffff">
    <path
       d="m 50.729,53.49 c -6.743,0 -11.386,1.939 -14.482,4.13 1.332,-3.913 4.891,-7.377 8.553,-9.386 7.069,-3.877 17.711,-3.193 17.711,-3.193 V 29.838 c 0,0 -20.599,-1.14 -32.229,9.198 -11.63,10.338 -14.29,21.055 -14.29,31.925 0,7.753 1.824,30.253 26.3,30.253 24.476,0 26.072,-19.991 26.072,-25.692 0,-5.701 -2.128,-22.032 -17.635,-22.032 z m -7.525,33.647 c -4.713,0 -7.829,-4.394 -7.829,-11.311 0,-6.917 3.649,-8.893 6.993,-8.893 5.017,0 7.297,4.029 7.297,9.426 0,5.396 -1.748,10.778 -6.461,10.778 z"
       id="path6"
       inkscape:connector-curvature="0" />
    <path
       d="M 123.929,69.821 H 109.411 V 30.827 H 87.063 l -22.53,38.994 v 14.67 h 26.863 v 15.583 h 18.015 V 84.491 h 14.518 z m -43.143,0 10.61,-19.33 v 19.33 z"
       id="path8"
       inkscape:connector-curvature="0" />
    <path
       d="M 145.175,30.827 H 119.33 v 69.247 h 25.844 c 19.043,0 34.624,-15.581 34.624,-34.624 0,-19.043 -15.58,-34.623 -34.623,-34.623 z m 12.139,34.623 c 0,11.426 -7.048,20.774 -15.662,20.774 h -4.306 V 44.676 h 4.306 c 8.614,0 15.662,9.348 15.662,20.774 z"
       id="path10"
       inkscape:connector-curvature="0" />
    <path
       d="M 202.184,30.827 H 176.34 v 69.247 h 25.844 c 19.043,0 34.624,-15.581 34.624,-34.624 0,-19.043 -15.581,-34.623 -34.624,-34.623 z m 12.139,34.623 c 0,11.426 -7.048,20.774 -15.662,20.774 h -4.306 V 44.676 h 4.306 c 8.614,0 15.662,9.348 15.662,20.774 z"
       id="path12"
       inkscape:connector-curvature="0" />
  </g>
  <path
     d="m 235.593,97.471 v 3.743 h -0.858 v -3.743 h -1.144 V 96.73 h 3.146 v 0.741 z m 5.556,3.743 h -0.851 v -2.658 l -0.852,1.794 h -0.572 l -0.864,-1.813 v 2.678 h -0.852 V 96.73 h 0.852 l 1.15,2.476 1.138,-2.476 h 0.851 z"
     id="path16"
     inkscape:connector-curvature="0"
     style="fill:#ffffff" />
  <g
     id="g22"
     style="fill:#233387">
    <path
       d="m 80.837,10.381 c 0,-3.536 -1.437,-6.134 -6.023,-6.134 h -5.36 v 12.046 h 5.636 c 3.482,0 5.747,-2.265 5.747,-5.912 z m -6.962,3.205 V 6.955 h 0.442 c 0.718,0 1.216,0.221 1.492,0.718 0.276,0.497 0.331,1.437 0.331,2.597 0,1.16 -0.055,2.1 -0.332,2.597 -0.276,0.497 -0.774,0.718 -1.492,0.718 h -0.441 z m 14.035,3.039 c 3.979,0 5.913,-2.597 5.913,-6.355 0,-3.758 -1.989,-6.355 -5.913,-6.355 -3.979,0 -5.913,2.597 -5.913,6.355 0.001,3.758 1.99,6.355 5.913,6.355 z m 0,-9.726 c 0.718,0 1.216,0.442 1.216,3.316 0,2.984 -0.497,3.315 -1.216,3.315 -0.718,0 -1.216,-0.387 -1.216,-3.315 10e-4,-2.929 0.498,-3.316 1.216,-3.316 z M 11.819,4.247 H 8.172 v 6.907 H 8.117 L 5.686,4.247 H 0.27 V 16.293 H 3.917 V 9.331 h 0.056 l 2.431,6.962 h 5.415 z m 12.544,5.084 h 0.055 l 2.432,6.962 h 5.415 V 4.247 h -3.647 v 6.907 H 28.563 L 26.131,4.247 h -5.415 v 12.046 h 3.647 z m 35.2,0 h 0.055 l 2.431,6.962 h 5.416 V 4.247 h -3.648 v 6.907 H 63.762 L 61.331,4.247 h -5.415 v 12.046 h 3.647 z M 14.03,4.247 h 4.531 V 16.293 H 14.03 Z m 22.435,12.046 h 4.531 V 7.507 h 2.873 V 4.247 H 33.591 v 3.26 h 2.874 z m 17.848,-3.149 h -4.642 v -1.327 h 4.145 V 8.723 H 49.671 V 7.452 h 4.532 V 4.247 h -8.952 v 12.046 h 9.062 z"
       id="path18"
       inkscape:connector-curvature="0" />
    <path
       d="m 69.454,4.247 h 5.36 c 4.586,0 6.023,2.597 6.023,6.134 0,3.647 -2.266,5.913 -5.747,5.913 h -5.636 z m 4.421,9.339 h 0.442 c 0.718,0 1.216,-0.221 1.492,-0.718 0.276,-0.497 0.332,-1.437 0.332,-2.597 0,-1.16 -0.055,-2.1 -0.332,-2.597 C 75.533,7.177 75.035,6.956 74.317,6.956 H 73.875 Z M 87.91,3.915 c 3.923,0 5.913,2.597 5.913,6.355 0,3.758 -1.934,6.355 -5.913,6.355 -3.923,0 -5.913,-2.597 -5.913,-6.355 0.001,-3.757 1.935,-6.355 5.913,-6.355 z m 0,9.615 c 0.718,0 1.216,-0.332 1.216,-3.315 0,-2.873 -0.497,-3.316 -1.216,-3.316 -0.718,0 -1.216,0.387 -1.216,3.316 10e-4,2.929 0.498,3.315 1.216,3.315 z M 8.172,4.247 v 6.907 H 8.117 L 5.686,4.247 H 0.27 V 16.293 H 3.917 V 9.331 h 0.055 l 2.431,6.963 h 5.415 V 4.247 Z m 20.446,0 v 6.907 H 28.563 L 26.132,4.247 h -5.415 v 12.046 h 3.647 V 9.331 h 0.055 l 2.431,6.963 h 5.415 V 4.247 Z m 35.199,0 v 6.907 H 63.762 L 61.331,4.247 h -5.415 v 12.046 h 3.647 V 9.331 h 0.055 l 2.431,6.963 h 5.415 V 4.247 Z m -45.256,0 V 16.293 H 14.03 V 4.247 Z M 36.465,16.293 V 7.507 H 33.592 V 4.247 H 43.87 v 3.26 h -2.873 v 8.786 z M 49.671,7.452 v 1.271 h 4.144 v 3.094 h -4.144 v 1.326 h 4.642 v 3.15 H 45.251 V 4.247 h 8.952 v 3.205 z"
       id="path20"
       inkscape:connector-curvature="0" />
  </g>
  <g
     id="g28"
     style="fill:#c33d3a">
    <path
       d="m 100.067,3.26 c -0.774,0 -1.326,0.166 -1.824,0.608 h -0.055 c 0.276,-0.939 0.995,-1.713 2.929,-1.823 h 0.774 V 0 h -0.884 c -1.547,0.055 -2.818,0.497 -3.813,1.437 -1.05,0.939 -1.658,2.487 -1.658,4.255 0,2.21 1.16,4.255 3.868,4.255 2.044,0 3.537,-1.547 3.537,-3.537 0,-2.045 -1.382,-3.15 -2.874,-3.15 z m -0.663,4.753 c -0.829,0 -1.216,-0.829 -1.271,-1.603 0,-0.276 0,-0.442 0.055,-0.553 0.166,-0.387 0.553,-0.718 1.05,-0.718 0.829,0 1.161,0.774 1.161,1.437 0,0.829 -0.387,1.437 -0.995,1.437 z M 110.069,5.692 V 0.166 h -3.205 l -3.205,5.747 v 1.713 h 4.034 v 2.155 l -0.055,0.055 h 2.431 V 7.681 h 0.995 V 5.692 Z m -2.376,-1.713 v 1.658 h -1.658 V 5.581 l 0.774,-1.602 c 0.332,-0.663 0.608,-1.271 0.884,-1.934 h 0.055 c 0,0.663 -0.055,1.326 -0.055,1.934 z"
       id="path24"
       inkscape:connector-curvature="0" />
    <path
       d="m 101.946,2.045 h -0.829 c -1.934,0.11 -2.652,0.884 -2.929,1.823 h 0.055 c 0.497,-0.442 1.05,-0.608 1.824,-0.608 1.492,0 2.873,1.105 2.873,3.15 0,1.989 -1.492,3.537 -3.537,3.537 -2.708,0 -3.868,-2.045 -3.868,-4.255 0,-1.768 0.608,-3.315 1.658,-4.255 C 98.188,0.498 99.459,0.055 101.006,0 h 0.884 v 2.045 z m -2.542,5.968 c 0.608,0 0.995,-0.608 0.995,-1.437 0,-0.663 -0.332,-1.437 -1.161,-1.437 -0.497,0 -0.884,0.332 -1.05,0.718 -0.055,0.111 -0.055,0.276 -0.055,0.553 0.055,0.774 0.442,1.603 1.271,1.603 z m 8.289,1.768 V 7.626 h -4.034 V 5.913 l 3.205,-5.747 h 3.205 v 5.526 h 0.995 v 1.989 h -0.995 v 2.155 h -2.431 z m 0,-4.145 V 3.979 c 0,-0.608 0.055,-1.271 0.055,-1.934 h -0.055 a 29.602,29.602 0 0 1 -0.884,1.934 l -0.774,1.602 v 0.055 z"
       id="path26"
       inkscape:connector-curvature="0" />
  </g>
</svg>
