<?xml version="1.0" encoding="UTF-8" standalone="no"?>
<svg
   xmlns:dc="http://purl.org/dc/elements/1.1/"
   xmlns:cc="http://creativecommons.org/ns#"
   xmlns:rdf="http://www.w3.org/1999/02/22-rdf-syntax-ns#"
   xmlns:svg="http://www.w3.org/2000/svg"
   xmlns="http://www.w3.org/2000/svg"
   xmlns:sodipodi="http://sodipodi.sourceforge.net/DTD/sodipodi-0.dtd"
   xmlns:inkscape="http://www.inkscape.org/namespaces/inkscape"
   viewBox="0 0 413.3 309.50001"
   version="1.1"
   id="svg950"
   sodipodi:docname="consolegame.svg"
   width="413.29999"
   height="309.5"
   inkscape:version="0.92.4 5da689c313, 2019-01-14">
  <metadata
     id="metadata956">
    <rdf:RDF>
      <cc:Work
         rdf:about="">
        <dc:format>image/svg+xml</dc:format>
        <dc:type
           rdf:resource="http://purl.org/dc/dcmitype/StillImage" />
      </cc:Work>
    </rdf:RDF>
  </metadata>
  <defs
     id="defs954" />
  <sodipodi:namedview
     pagecolor="#ffffff"
     bordercolor="#666666"
     borderopacity="1"
     objecttolerance="10"
     gridtolerance="10"
     guidetolerance="10"
     inkscape:pageopacity="0"
     inkscape:pageshadow="2"
     inkscape:window-width="471"
     inkscape:window-height="442"
     id="namedview952"
     showgrid="false"
     inkscape:zoom="0.65569806"
     inkscape:cx="206.64999"
     inkscape:cy="154.8"
     inkscape:window-x="0"
     inkscape:window-y="0"
     inkscape:window-maximized="0"
     inkscape:current-layer="svg950">
    <inkscape:grid
       type="xygrid"
       id="grid958"
       originx="0"
       originy="0.10000611" />
  </sodipodi:namedview>
  <path
     d="m 381.1,268.4 v 0.3 l -0.2,0.5 -0.4,0.4 -0.5,0.2 h -0.5 l -0.5,-0.2 -0.3,-0.4 -0.2,-0.5 -0.1,-0.3 0.1,-0.2 0.2,-0.5 0.3,-0.4 0.5,-0.2 h 0.5 l 0.5,0.2 0.4,0.4 0.2,0.5 z m -14.6,9.9 h 0.5 l 0.9,0.2 1.2,0.6 1.2,1.2 0.5,1.1 0.2,0.9 v 18.8 l -0.2,0.8 -0.5,1.2 -1.2,1.2 -1.2,0.6 -0.9,0.1 -0.5,0.1 -0.4,-0.1 -0.9,-0.1 -1.2,-0.6 -1.2,-1.2 -0.5,-1.2 -0.2,-0.8 v -18.8 l 0.2,-0.9 0.5,-1.1 1.2,-1.2 1.2,-0.6 0.9,-0.2 z"
     id="path2"
     inkscape:connector-curvature="0"
     style="fill:#3c3c3c" />
  <path
     d="m 319.8,216 h 93.5 v 22.1 h -2.2 v 4.5 h 2.2 v 66.9 h -36.5 v -0.3 l -0.2,-0.5 -0.3,-0.4 -0.5,-0.2 h -0.6 l -0.5,0.2 -0.3,0.4 -0.2,0.5 v 0.3 H 359 v -0.3 l -0.2,-0.5 -0.4,-0.4 -0.5,-0.2 h -0.6 l -0.5,0.2 -0.4,0.4 -0.2,0.5 v 0.3 H 319.7 V 216 Z m 55.7,46.7 v -0.9 l -0.4,-1.7 -0.7,-1.6 -1,-1.4 -1.2,-1.2 -1.4,-1 -1.6,-0.7 -1.7,-0.3 h -1.8 l -1.7,0.3 -1.6,0.7 -1.4,1 -1.2,1.2 -1,1.4 -0.7,1.6 -0.3,1.7 v 1.8 l 0.3,1.7 0.7,1.6 1,1.4 1.2,1.2 1.4,1 1.6,0.7 1.7,0.4 h 1.8 l 1.7,-0.4 1.6,-0.7 1.4,-1 1.2,-1.2 1,-1.4 0.7,-1.6 0.4,-1.7 z"
     id="path4"
     inkscape:connector-curvature="0" />
  <path
     d="m 375.5,262.7 v 0.9 l -0.4,1.7 -0.7,1.6 -1,1.4 -1.2,1.2 -1.4,1 -1.6,0.7 -1.7,0.4 h -1.8 l -1.7,-0.4 -1.6,-0.7 -1.4,-1 -1.2,-1.2 -1,-1.4 -0.7,-1.6 -0.3,-1.7 v -1.8 l 0.3,-1.7 0.7,-1.6 1,-1.4 1.2,-1.2 1.4,-1 1.6,-0.7 1.7,-0.3 h 1.8 l 1.7,0.3 1.6,0.7 1.4,1 1.2,1.2 1,1.4 0.7,1.6 0.4,1.7 z m 2.2,0 v 1.2 l -0.5,2.2 -0.8,2 -1.2,1.8 -1.5,1.5 -1.8,1.2 -2,0.8 -2.2,0.4 -1.2,0.1 -1.1,-0.1 -2.2,-0.4 -2,-0.8 -1.8,-1.2 -1.5,-1.5 -1.2,-1.8 -0.9,-2 -0.4,-2.2 v -2.3 l 0.4,-2.2 0.9,-2 1.2,-1.8 1.5,-1.5 1.8,-1.2 2,-0.9 2.2,-0.4 h 2.3 l 2.2,0.4 2,0.9 1.8,1.2 1.5,1.5 1.2,1.8 0.8,2 0.5,2.2 z"
     id="path6"
     inkscape:connector-curvature="0"
     style="fill:#3c3c3c;fill-rule:evenodd" />
  <path
     stroke-miterlimit="10"
     d="m 375.5,262.7 -0.1,1 -0.3,1.7 -0.7,1.6 -1,1.4 -1.2,1.2 -1.4,1 -1.6,0.7 -1.7,0.3 -1,0.1 -0.9,-0.1 -1.7,-0.3 -1.6,-0.7 -1.4,-1 -1.2,-1.2 -1,-1.4 -0.7,-1.6 -0.3,-1.7 v -1.9 l 0.3,-1.7 0.7,-1.6 1,-1.4 1.2,-1.2 1.4,-1 1.6,-0.7 1.7,-0.3 h 1.9 l 1.7,0.3 1.6,0.7 1.4,1 1.2,1.2 1,1.4 0.7,1.6 0.3,1.7 z"
     id="path8"
     inkscape:connector-curvature="0"
     style="fill:none;stroke:#1a1a1a;stroke-width:0.55599999;stroke-miterlimit:10" />
  <path
     d="m 351,218.1 h 55.3 v 3.7 H 351 Z"
     id="path10"
     inkscape:connector-curvature="0"
     style="fill:#3e3bc4" />
  <path
     d="m 351,221.8 h 55.3 v 3.7 H 351 Z"
     id="path12"
     inkscape:connector-curvature="0"
     style="fill:#ffffff" />
  <path
     d="m 351,225.4 h 55.3 v 3.7 H 351 Z m 0,3.7 h 55.3 v 3.7 H 351 Z"
     id="path14"
     inkscape:connector-curvature="0"
     style="fill:#ffffff" />
  <path
     d="m 351,232.7 h 55.3 V 237 H 351 Z"
     id="path16"
     inkscape:connector-curvature="0"
     style="fill:#ffffff" />
  <g
     stroke-miterlimit="10"
     id="g20"
     style="fill:none;stroke:#231f20;stroke-width:0.18000001;stroke-miterlimit:10">
    <path
       d="m 351,221.8 h 55.3 m -55.3,3.6 h 55.3 m -55.3,3.7 h 55.3 m -55.3,3.6 h 55.3"
       id="path18"
       inkscape:connector-curvature="0" />
  </g>
  <g
     id="g948">
    <path
       d="M 274.5,190.3 H 10.5 L 26,139.6 c 0.5,-1.7 2.1,-2.9 4,-2.9 h 223.6 c 1.8,0 3.4,1.1 3.9,2.8 z"
       id="path22"
       inkscape:connector-curvature="0"
       style="fill:#bcb5ac" />
    <path
       d="M 277.2,200.9 H 8.9 l 1.6,-10.6 h 264 z"
       id="path24"
       inkscape:connector-curvature="0"
       style="fill:#aaa297" />
    <path
       d="M 276.2,253.9 H 9.9 c -0.6,0 -1,-0.4 -1,-1 v -52 h 268.3 v 52 c 0,0.6 -0.5,1 -1,1 z"
       id="path26"
       inkscape:connector-curvature="0"
       style="fill:#898075" />
    <path
       d="M 276.2,227.4 H 9.9 c -0.6,0 -1,-0.4 -1,-1 v -25.5 h 268.3 v 25.5 c 0,0.6 -0.5,1 -1,1 z"
       id="path28"
       inkscape:connector-curvature="0"
       style="fill:#958b7c" />
    <path
       d="m 232.5,206.6 h 39.2 v 4 h -39.2 z m 0,0 v 3.9 L 222,222.4 v -3.9 z M 13.9,218.5 H 222 v 4 H 13.9 Z"
       id="path30"
       inkscape:connector-curvature="0"
       style="fill:#090909" />
    <path
       d="M 271.8,210.5 H 232.5 L 222,222.4 h 49.8 z"
       id="path32"
       inkscape:connector-curvature="0"
       style="fill:#1c1714" />
    <g
       id="g36"
       style="fill:#ffffff">
      <path
         d="m 237.5,215.1 h 0.4 c 0.2,0 0.4,0.1 0.5,0.1 0.1,0.1 0.1,0.2 0.1,0.4 0,0.2 0,0.3 -0.1,0.4 -0.1,0.1 -0.3,0.2 -0.5,0.2 h -0.2 v 0.7 h -0.2 z m 0.2,0.8 h 0.2 c 0.3,0 0.4,-0.1 0.4,-0.4 0,-0.2 -0.2,-0.3 -0.4,-0.3 h -0.2 z m 2.6,0 c 0,0.6 -0.4,0.9 -0.8,0.9 -0.4,0 -0.8,-0.3 -0.8,-0.9 0,-0.5 0.3,-0.9 0.8,-0.9 0.5,0.1 0.8,0.4 0.8,0.9 z m -1.3,0 c 0,0.4 0.2,0.7 0.5,0.7 0.3,0 0.5,-0.3 0.5,-0.7 0,-0.3 -0.2,-0.7 -0.5,-0.7 -0.3,0 -0.5,0.4 -0.5,0.7 z m 1.8,0.9 -0.4,-1.7 h 0.2 l 0.2,0.9 c 0,0.2 0.1,0.4 0.1,0.6 0,-0.2 0.1,-0.4 0.1,-0.6 l 0.2,-0.9 h 0.2 l 0.2,0.9 c 0,0.2 0.1,0.4 0.1,0.6 0,-0.2 0.1,-0.4 0.1,-0.6 l 0.2,-0.9 h 0.2 l -0.5,1.7 h -0.2 l -0.2,-0.9 c -0.1,-0.2 -0.1,-0.4 -0.1,-0.6 0,0.2 -0.1,0.3 -0.1,0.6 l -0.2,0.9 z m 2.8,-0.8 h -0.7 v 0.6 h 0.7 v 0.2 h -0.9 v -1.7 h 0.9 v 0.2 h -0.7 v 0.5 h 0.7 z m 0.3,-0.9 h 0.4 c 0.2,0 0.4,0 0.5,0.1 0.1,0.1 0.1,0.2 0.1,0.3 0,0.2 -0.1,0.4 -0.3,0.4 0.1,0 0.2,0.2 0.2,0.3 0.1,0.2 0.1,0.4 0.1,0.5 h -0.2 c 0,0 -0.1,-0.2 -0.1,-0.4 0,-0.2 -0.1,-0.3 -0.3,-0.3 h -0.2 v 0.7 h -0.2 z m 0.2,0.8 h 0.2 c 0.2,0 0.4,-0.1 0.4,-0.3 0,-0.2 -0.2,-0.3 -0.4,-0.3 h -0.2 z"
         id="path34"
         inkscape:connector-curvature="0" />
    </g>
    <circle
       cx="248.5"
       cy="215.89999"
       r="1.5"
       id="circle38"
       style="fill:#c2cd82" />
    <path
       d="m 255.9,217 -0.2,-2.2 h 7.9 l 0.2,2.2 z"
       id="path40"
       inkscape:connector-curvature="0"
       style="fill:#030000" />
    <path
       d="m 263.5,216.7 h -7.4 l -0.1,-1.6 h 7.3 z"
       id="path42"
       inkscape:connector-curvature="0"
       style="fill:#110e0c" />
    <g
       id="g46"
       style="fill:#201914">
      <path
         d="M 33.2,182.1 H 16.9 l -0.4,1.3 h 16.3 z m 0.9,-2.7 H 17.8 l -0.4,1.3 h 16.3 z m 0.8,-2.9 H 18.6 l -0.4,1.4 h 16.3 z m 0.9,-2.8 H 19.5 l -0.4,1.4 h 16.3 z m 0.8,-2.8 H 20.3 l -0.4,1.4 h 16.3 z m 0.9,-2.7 H 21.2 l -0.5,1.4 h 16.4 z m 0.8,-2.8 H 22 l -0.4,1.4 h 16.3 z m 0.9,-2.8 H 22.8 L 22.4,164 H 38.7 Z M 40,159.8 H 23.7 l -0.4,1.4 h 16.3 z m 0.9,-2.7 H 24.5 l -0.4,1.3 h 16.3 z m 0.8,-2.8 H 25.4 l -0.4,1.4 h 16.3 z m 0.8,-2.8 H 26.2 l -0.5,1.4 h 16.4 z m 0.9,-2.8 H 27.1 l -0.5,1.4 H 43 Z m 0.8,-2.8 H 27.9 l -0.4,1.4 h 16.3 z m 0.9,-2.7 H 28.7 l -0.4,1.3 h 16.3 z m 0.5,-1.8 H 29.3 l -0.1,0.4 h 16.3 z"
         id="path44"
         inkscape:connector-curvature="0" />
    </g>
    <g
       id="g50"
       style="fill:#201914">
      <path
         d="M 54.7,182.3 H 38.4 l -0.4,1.3 h 16.3 z m 0.9,-2.7 H 39.3 l -0.5,1.3 h 16.4 z m 0.8,-2.9 H 40 l -0.4,1.4 h 16.3 z m 0.9,-2.8 H 40.9 l -0.4,1.4 h 16.4 z m 0.8,-2.8 H 41.8 l -0.4,1.4 H 57.7 Z M 59,168.4 H 42.6 l -0.4,1.4 h 16.3 z m 0.8,-2.8 H 43.5 l -0.4,1.4 h 16.3 z m 0.8,-2.8 H 44.3 l -0.4,1.4 H 60.2 Z M 61.5,160 H 45.2 l -0.5,1.4 h 16.4 z m 0.8,-2.7 H 46 l -0.4,1.3 h 16.3 z m 0.9,-2.8 H 46.9 l -0.5,1.4 H 62.8 Z M 64,151.7 H 47.6 l -0.4,1.4 h 16.3 z m 0.9,-2.8 H 48.5 l -0.4,1.4 h 16.3 z m 0.8,-2.8 H 49.4 l -0.4,1.4 h 16.3 z m 0.8,-2.7 H 50.2 l -0.4,1.4 h 16.3 z m 0.6,-1.8 H 50.8 L 50.6,142 H 67 Z"
         id="path48"
         inkscape:connector-curvature="0" />
    </g>
    <g
       id="g54"
       style="fill:#201914">
      <path
         d="M 252.7,183.1 H 269 l 0.4,1.3 h -16.3 z m -0.9,-2.7 h 16.3 l 0.5,1.4 h -16.4 z m -0.8,-2.9 h 16.4 l 0.4,1.4 h -16.4 z m -0.9,-2.8 h 16.3 l 0.5,1.4 h -16.4 z m -0.8,-2.8 h 16.3 l 0.4,1.4 h -16.3 z m -0.9,-2.7 h 16.4 l 0.4,1.4 h -16.3 z m -0.8,-2.8 h 16.3 l 0.4,1.4 H 248 Z m -0.8,-2.8 h 16.3 l 0.4,1.4 h -16.3 z m -0.9,-2.8 h 16.3 l 0.5,1.4 h -16.4 z m -0.8,-2.7 h 16.3 l 0.4,1.3 h -16.3 z m -0.9,-2.8 h 16.3 l 0.4,1.4 h -16.3 z m -0.8,-2.8 h 16.4 l 0.4,1.4 h -16.4 z m -0.9,-2.8 h 16.4 l 0.4,1.4 h -16.4 z m -0.8,-2.8 H 258 l 0.4,1.4 h -16.3 z m -0.8,-2.7 h 16.3 l 0.4,1.4 h -16.3 z m -0.6,-1.8 h 16.3 l 0.1,0.4 h -16.3 z"
         id="path52"
         inkscape:connector-curvature="0" />
    </g>
    <g
       id="g58"
       style="fill:#201914">
      <path
         d="m 231.2,183.3 h 16.3 l 0.5,1.3 h -16.4 z m -0.9,-2.7 h 16.4 l 0.4,1.4 h -16.3 z m -0.7,-2.9 h 16.3 l 0.4,1.4 H 230 Z m -1,-2.8 H 245 l 0.4,1.4 h -16.3 z m -0.8,-2.8 h 16.3 l 0.5,1.4 h -16.4 z m -0.8,-2.7 h 16.3 l 0.4,1.4 h -16.3 z m -0.9,-2.8 h 16.3 l 0.5,1.4 h -16.4 z m -0.8,-2.8 h 16.3 l 0.4,1.4 h -16.3 z m -0.9,-2.8 h 16.4 l 0.4,1.4 h -16.3 z m -0.8,-2.7 h 16.3 l 0.4,1.3 H 224 Z m -0.9,-2.8 h 16.4 l 0.4,1.4 h -16.4 z m -0.7,-2.8 h 16.3 l 0.4,1.4 h -16.3 z m -0.9,-2.8 h 16.3 l 0.4,1.4 h -16.3 z m -0.9,-2.8 h 16.3 l 0.5,1.4 h -16.4 z m -0.8,-2.7 h 16.3 l 0.5,1.4 h -16.4 z m -0.6,-1.8 h 16.4 l 0.1,0.4 h -16.4 z"
         id="path56"
         inkscape:connector-curvature="0" />
    </g>
    <path
       d="M 230.7,162.2 H 53.4 l 3.4,20.2 c 0.1,0.5 0.5,0.8 1,0.8 h 168.6 c 0.5,0 0.9,-0.3 1,-0.8 z"
       id="path60"
       inkscape:connector-curvature="0"
       style="fill:#a59481" />
    <path
       d="M 236.9,0 H 48.2 C 41.6,0 36.3,5.3 36.3,11.9 v 2.5 H 248.7 V 11.9 C 248.8,5.3 243.4,0 236.9,0 Z"
       id="path62"
       inkscape:connector-curvature="0"
       style="fill:#e2e6e2" />
    <path
       d="m 45.4,162.2 c -5,0 -9.1,-4.1 -9.1,-9.1 V 14.4 c 0,-5 4.1,-9.1 9.1,-9.1 h 194.3 c 5,0 9.1,4.1 9.1,9.1 v 138.8 c 0,5 -4.1,9.1 -9.1,9.1 H 45.4 Z"
       id="path64"
       inkscape:connector-curvature="0"
       style="fill:#b19c7f" />
    <path
       d="m 46,157.3 c -3,0 -5.4,-2.4 -5.4,-5.4 V 13.6 c 0,-3 2.4,-5.4 5.4,-5.4 h 193.2 c 3,0 5.4,2.4 5.4,5.4 v 138.3 c 0,3 -2.4,5.4 -5.4,5.4 z"
       id="path66"
       inkscape:connector-curvature="0"
       style="fill:#0e1213" />
    <path
       d="M 239.1,154.5 H 46 c -1.4,0 -2.6,-1.2 -2.6,-2.6 V 13.6 C 43.4,12.2 44.6,11 46,11 h 193.2 c 1.4,0 2.6,1.2 2.6,2.6 v 138.3 c -0.1,1.4 -1.3,2.6 -2.7,2.6 z"
       id="path68"
       inkscape:connector-curvature="0"
       style="fill:#131313" />
    <path
       d="m 69.1,143.7 c -6.7,0 -12.8,-4.5 -14.9,-12 -0.1,-0.3 -0.1,-0.5 -0.1,-0.8 V 19.4 c 0,-1 0.8,-1.8 1.8,-1.8 H 212 c 1,0 1.8,0.8 1.8,1.8 v 109.1 c 0,8.4 -6.8,15.2 -15.1,15.2 l -64.7,1 z"
       id="path70"
       inkscape:connector-curvature="0"
       style="fill:#131315" />
    <path
       d="m 69.1,139.5 c -6,0 -10.9,-4.9 -10.9,-11 V 32.9 c 0,-6 4.9,-11 11,-11 h 129.2 c 6,0 11,4.9 11,11 v 95.6 c 0,6 -4.9,11 -11,11 l -64.6,1.8 z"
       id="path72"
       inkscape:connector-curvature="0"
       style="fill:#161618" />
    <path
       d="m 198.4,136.6 -64.6,1.8 -64.6,-1.8 c -4.5,0 -8.1,-3.7 -8.1,-8.1 V 32.9 c 0,-4.5 3.7,-8.1 8.1,-8.1 h 129.2 c 4.5,0 8.1,3.7 8.1,8.1 v 95.6 c 0.1,4.5 -3.6,8.1 -8.1,8.1 z"
       id="path74"
       inkscape:connector-curvature="0"
       style="fill:#3b3431" />
    <path
       d="m 237.5,150.3 h -15.7 c -1.3,0 -2.3,-1 -2.3,-2.3 V 20 c 0,-1.3 1,-2.3 2.3,-2.3 h 15.7 c 1.3,0 2.3,1 2.3,2.3 v 128 c 0,1.3 -1.1,2.3 -2.3,2.3 z"
       id="path76"
       inkscape:connector-curvature="0"
       style="fill:#0a0a0c" />
    <circle
       cx="229.60001"
       cy="45.900002"
       r="2.4000001"
       id="circle78"
       style="fill:#c11100" />
    <circle
       cx="229.60001"
       cy="62.700001"
       r="5.1999998"
       id="circle80"
       style="fill:#060608" />
    <circle
       cx="229.60001"
       cy="62.700001"
       r="4.3000002"
       id="circle82"
       style="fill:#161618" />
    <circle
       cx="229.60001"
       cy="62.700001"
       r="1.2"
       id="circle84"
       style="fill:#110d09" />
    <circle
       cx="229.60001"
       cy="80.099998"
       r="5.1999998"
       id="circle86"
       style="fill:#060608" />
    <circle
       cx="229.60001"
       cy="80.099998"
       r="4.3000002"
       id="circle88"
       style="fill:#161618" />
    <circle
       cx="229.60001"
       cy="80.099998"
       r="1.2"
       id="circle90"
       style="fill:#110d09" />
    <g
       id="g100"
       style="fill:#4f4948">
      <path
         d="m 224,27.4 0.5,-2.9 -0.4,-0.4 0.9,-1 1.9,2.3 0.5,-2.3 0.9,0.5 -0.7,0.4 -0.7,3.3 -2.2,-2.4 -0.2,1.5 0.5,0.5 z m 6,-3.8 h 0.4 c 0.3,0 0.5,0 0.6,0.1 0.2,0.1 0.2,0.1 0.3,0.3 0.1,0.1 0.2,0.3 0.2,0.6 l 0.3,-1.2 h -3.3 v 0.1 h 0.1 c 0.1,0 0.1,0 0.2,0.1 0,0 0.1,0.1 0.1,0.2 0,0 0,0.1 -0.1,0.3 l -0.2,1.1 c 0,0.1 -0.1,0.1 -0.2,0.1 -0.1,0.1 -0.2,0.1 -0.2,0.1 0,0 0.1,0 0.2,0.1 l 0.1,0.1 -0.2,1 c 0,0.2 -0.1,0.3 -0.1,0.4 0,0.1 -0.1,0.1 -0.1,0.1 -0.1,0 -0.2,0.1 -0.2,0.1 v 0.1 h 3.2 l 0.2,-1.2 c -0.2,0.3 -0.2,0.5 -0.5,0.7 -0.3,0.2 -0.5,0.3 -0.9,0.3 h -0.4 L 229.4,27 c 0,0 0,-0.2 0.1,-0.4 l 0.2,-1 c 0.2,0 0.3,0 0.4,0.1 0.1,0 0.1,0.1 0.2,0.2 0.1,0.1 0.2,0.2 0.2,0.4 l 0.3,-1.6 c -0.1,0.3 -0.3,0.3 -0.5,0.4 -0.2,0.1 -0.3,0.1 -0.6,0.1 h -0.1 z m 4.4,3.6 0.7,-1.4 c 0,0 -0.7,0.5 -1.3,0.4 -0.6,0 -1.1,-0.6 -1,-1.1 0.1,-1.2 1.4,-1.5 1.4,-1.5 l 0.5,0.7 0.6,-0.2 -0.4,-1.1 c 0,0 -0.8,0 -1.5,0.5 -0.8,0.4 -1.6,1.2 -1.5,2.1 0.2,2 1.8,1.7 2,1.7 0.1,0.1 0.5,-0.1 0.5,-0.1 z"
         id="path92"
         inkscape:connector-curvature="0" />
      <g
         id="g98">
        <path
           d="m 223.4,29.4 c -0.1,0 -0.2,0.1 -0.4,0.1 -0.4,0 -0.7,-0.2 -0.7,-0.7 0,-0.4 0.3,-0.7 0.7,-0.7 0.2,0 0.3,0 0.3,0.1 v 0.1 c -0.1,0 -0.2,-0.1 -0.3,-0.1 -0.3,0 -0.5,0.2 -0.5,0.6 0,0.3 0.2,0.5 0.5,0.5 0.1,0 0.2,0 0.3,-0.1 z m 0.2,-1.4 h 0.2 v 0.6 c 0,-0.1 0.1,-0.1 0.1,-0.1 h 0.2 c 0.1,0 0.3,0.1 0.3,0.4 v 0.6 h -0.2 v -0.6 c 0,-0.2 -0.1,-0.3 -0.2,-0.3 -0.1,0 -0.2,0.1 -0.2,0.2 v 0.7 h -0.2 z m 1.7,1.5 v -0.1 c -0.1,0.1 -0.2,0.1 -0.3,0.1 -0.2,0 -0.3,-0.1 -0.3,-0.3 0,-0.2 0.2,-0.4 0.6,-0.4 0,-0.1 0,-0.2 -0.2,-0.2 -0.1,0 -0.2,0 -0.3,0.1 v -0.1 c 0.1,-0.1 0.2,-0.1 0.3,-0.1 0.3,0 0.4,0.2 0.4,0.4 v 0.6 z M 225.2,29 c -0.2,0 -0.4,0 -0.4,0.2 0,0.1 0.1,0.2 0.2,0.2 0.1,0 0.2,-0.1 0.2,-0.2 z m 0.5,-0.2 v -0.3 h 0.2 v 0.2 c 0,-0.1 0.2,-0.2 0.3,-0.2 v 0.2 h -0.1 c -0.1,0 -0.2,0.1 -0.2,0.2 v 0.6 h -0.2 z m 1.2,0.7 v -0.1 c -0.1,0.1 -0.2,0.1 -0.3,0.1 -0.2,0 -0.3,-0.1 -0.3,-0.3 0,-0.2 0.2,-0.4 0.6,-0.4 0,-0.1 0,-0.2 -0.2,-0.2 -0.1,0 -0.2,0 -0.3,0.1 v -0.1 c 0.1,-0.1 0.2,-0.1 0.3,-0.1 0.3,0 0.4,0.2 0.4,0.4 v 0.6 z M 226.8,29 c -0.2,0 -0.4,0 -0.4,0.2 0,0.1 0.1,0.2 0.2,0.2 0.1,0 0.2,-0.1 0.2,-0.2 z m 1.2,0.4 c 0,0 -0.1,0.1 -0.3,0.1 -0.3,0 -0.5,-0.2 -0.5,-0.5 0,-0.3 0.2,-0.5 0.5,-0.5 h 0.2 v 0.1 h -0.2 c -0.2,0 -0.3,0.2 -0.3,0.4 0,0.2 0.1,0.4 0.3,0.4 z m 0.4,-1.2 v 0.3 h 0.3 v 0.1 h -0.3 v 0.5 c 0,0.1 0,0.2 0.1,0.2 h 0.1 v 0.1 h -0.2 c -0.1,0 -0.1,0 -0.2,-0.1 0,-0.1 -0.1,-0.1 -0.1,-0.3 V 28.5 H 228 v -0.1 h 0.1 V 28.2 Z M 229,29 c 0,0.2 0.2,0.3 0.3,0.3 0.1,0 0.2,0 0.3,-0.1 v 0.1 c -0.1,0 -0.2,0.1 -0.3,0.1 -0.3,0 -0.5,-0.2 -0.5,-0.5 0,-0.3 0.2,-0.5 0.5,-0.5 0.3,0 0.4,0.3 0.4,0.5 V 29 Z m 0.5,-0.1 c 0,-0.1 0,-0.3 -0.2,-0.3 -0.2,0 -0.3,0.2 -0.3,0.3 z m 0.4,-0.1 v -0.3 h 0.2 v 0.2 c 0,-0.1 0.1,-0.2 0.3,-0.2 v 0.2 h -0.1 c -0.1,0 -0.2,0.1 -0.2,0.2 v 0.6 h -0.2 z m 1.1,-0.7 h 0.4 c 0.2,0 0.4,0.1 0.5,0.2 0.1,0.1 0.2,0.3 0.2,0.5 0,0.2 -0.1,0.4 -0.2,0.5 -0.1,0.1 -0.3,0.2 -0.6,0.2 H 231 Z m 0.1,1.2 h 0.2 c 0.4,0 0.6,-0.2 0.6,-0.6 0,-0.3 -0.2,-0.5 -0.5,-0.5 h -0.2 v 1.1 z m 1.4,-1.1 c 0,0.1 0,0.1 -0.1,0.1 -0.1,0 -0.1,0 -0.1,-0.1 0,-0.1 0,-0.1 0.1,-0.1 z m -0.2,1.3 v -1 h 0.2 v 1 z"
           id="path94"
           inkscape:connector-curvature="0" />
        <path
           d="m 232.7,29.3 c 0.1,0 0.1,0.1 0.2,0.1 0.1,0 0.2,-0.1 0.2,-0.1 0,-0.1 0,-0.1 -0.2,-0.2 -0.2,-0.1 -0.3,-0.2 -0.3,-0.3 0,-0.2 0.1,-0.3 0.3,-0.3 0.1,0 0.2,0 0.2,0.1 v 0.1 c 0,0 -0.1,-0.1 -0.2,-0.1 -0.1,0 -0.2,0.1 -0.2,0.1 0,0.1 0.1,0.1 0.2,0.2 0.2,0.1 0.3,0.1 0.3,0.3 0,0.2 -0.1,0.3 -0.4,0.3 -0.1,0 -0.2,0 -0.3,-0.1 z m 0.8,-0.5 v -0.3 h 0.2 v 0.2 c 0.1,-0.1 0.2,-0.2 0.3,-0.2 0.2,0 0.4,0.2 0.4,0.5 0,0.3 -0.2,0.5 -0.4,0.5 -0.1,0 -0.2,-0.1 -0.3,-0.2 v 0.5 h -0.2 z m 0.2,0.3 c 0,0.2 0.1,0.3 0.3,0.3 0.2,0 0.3,-0.2 0.3,-0.4 0,-0.2 -0.1,-0.4 -0.3,-0.4 -0.1,0 -0.2,0.1 -0.3,0.2 z m 1,-1.1 h 0.2 v 1.4 h -0.2 z m 1,1.5 v -0.1 c -0.1,0.1 -0.2,0.1 -0.3,0.1 -0.2,0 -0.3,-0.1 -0.3,-0.3 0,-0.2 0.2,-0.4 0.6,-0.4 0,-0.1 0,-0.2 -0.2,-0.2 -0.1,0 -0.2,0 -0.3,0.1 v -0.1 c 0.1,-0.1 0.2,-0.1 0.3,-0.1 0.3,0 0.4,0.2 0.4,0.4 v 0.6 z m 0,-0.5 c -0.2,0 -0.4,0 -0.4,0.2 0,0.1 0.1,0.2 0.2,0.2 0.1,0 0.2,-0.1 0.2,-0.2 z m 0.5,-0.5 0.2,0.6 c 0,0.1 0,0.1 0.1,0.2 0,-0.1 0,-0.1 0.1,-0.2 l 0.2,-0.6 h 0.2 l -0.3,0.7 c -0.1,0.3 -0.2,0.5 -0.3,0.6 -0.1,0.1 -0.2,0.1 -0.2,0.1 v -0.1 c 0,0 0.1,0 0.2,-0.1 0,0 0.1,-0.1 0.1,-0.2 l -0.4,-0.9 h 0.1 z"
           id="path96"
           inkscape:connector-curvature="0" />
      </g>
    </g>
    <path
       d="m 222.6,30.6 h 4.6 v 2 h -4.6 z"
       id="path102"
       inkscape:connector-curvature="0"
       style="fill:#951610" />
    <path
       d="m 227.3,30.6 h 4.6 v 2 h -4.6 z"
       id="path104"
       inkscape:connector-curvature="0"
       style="fill:#16643c" />
    <path
       d="m 232.1,30.6 h 4.6 v 2 h -4.6 z"
       id="path106"
       inkscape:connector-curvature="0"
       style="fill:#00499a" />
    <g
       id="g110"
       style="fill:#464145">
      <path
         d="m 224.1,55.2 h 0.3 c 0.2,0 0.3,0 0.4,0.1 0.1,0.1 0.1,0.2 0.1,0.3 0,0.1 0,0.2 -0.1,0.3 -0.1,0.1 -0.2,0.1 -0.4,0.1 h -0.1 v 0.5 h -0.2 z m 0.2,0.7 h 0.1 c 0.2,0 0.3,-0.1 0.3,-0.3 0,-0.2 -0.1,-0.3 -0.3,-0.3 h -0.2 v 0.6 z m 1,-0.7 V 56 c 0,0.3 0.1,0.4 0.3,0.4 0.2,0 0.3,-0.1 0.3,-0.4 v -0.8 h 0.2 V 56 c 0,0.4 -0.2,0.6 -0.5,0.6 -0.3,0 -0.5,-0.2 -0.5,-0.6 v -0.8 z m 1.1,0 h 0.2 v 1.2 h 0.6 v 0.1 h -0.7 v -1.3 z m 1,0 h 0.2 v 1.2 h 0.6 v 0.1 h -0.7 v -1.3 z m 1.2,0.8 v 0.1 h -0.5 V 56 Z m 1.4,-0.1 c 0,0.5 -0.3,0.7 -0.6,0.7 -0.4,0 -0.6,-0.3 -0.6,-0.7 0,-0.4 0.3,-0.7 0.6,-0.7 0.4,0 0.6,0.3 0.6,0.7 z m -1,0 c 0,0.3 0.2,0.5 0.4,0.5 0.3,0 0.4,-0.3 0.4,-0.6 0,-0.3 -0.1,-0.5 -0.4,-0.5 -0.3,0.1 -0.4,0.3 -0.4,0.6 z m 1.3,0.7 v -1.3 h 0.2 l 0.4,0.7 c 0.1,0.2 0.2,0.3 0.2,0.4 v -1.2 h 0.2 v 1.3 h -0.2 l -0.4,-0.7 c -0.1,-0.1 -0.2,-0.3 -0.3,-0.4 v 1.2 z m 1.9,0 -0.4,-1.3 h 0.2 l 0.2,0.7 c 0.1,0.2 0.1,0.3 0.1,0.5 0,-0.2 0.1,-0.3 0.2,-0.5 l 0.2,-0.7 h 0.2 l -0.5,1.3 z m 2,-0.7 c 0,0.5 -0.3,0.7 -0.6,0.7 -0.4,0 -0.6,-0.3 -0.6,-0.7 0,-0.4 0.3,-0.7 0.6,-0.7 0.4,0 0.6,0.3 0.6,0.7 z m -1,0 c 0,0.3 0.2,0.5 0.4,0.5 0.3,0 0.4,-0.3 0.4,-0.6 0,-0.3 -0.1,-0.5 -0.4,-0.5 -0.3,0.1 -0.4,0.3 -0.4,0.6 z m 1.2,-0.7 h 0.2 v 1.2 h 0.6 v 0.1 h -0.7 v -1.3 z"
         id="path108"
         inkscape:connector-curvature="0" />
    </g>
    <g
       id="g116"
       style="fill:#464145">
      <path
         d="m 226.6,72.7 h 0.3 c 0.2,0 0.3,0 0.4,0.1 0.1,0.1 0.1,0.1 0.1,0.2 0,0.1 -0.1,0.2 -0.2,0.3 0.1,0 0.3,0.1 0.3,0.3 0,0.1 0,0.2 -0.1,0.3 -0.1,0.1 -0.2,0.1 -0.5,0.1 h -0.3 z m 0.2,0.6 h 0.2 c 0.2,0 0.3,-0.1 0.3,-0.2 0,-0.2 -0.1,-0.2 -0.3,-0.2 h -0.2 z m 0,0.6 h 0.1 c 0.2,0 0.3,-0.1 0.3,-0.3 0,-0.2 -0.2,-0.3 -0.3,-0.3 h -0.1 z"
         id="path112"
         inkscape:connector-curvature="0" />
      <path
         d="m 227.7,72.7 h 0.3 c 0.2,0 0.3,0 0.4,0.1 0.1,0.1 0.1,0.2 0.1,0.3 0,0.2 -0.1,0.3 -0.3,0.3 0.1,0 0.2,0.1 0.2,0.3 0,0.2 0.1,0.3 0.1,0.4 h -0.2 c 0,0 -0.1,-0.2 -0.1,-0.3 0,-0.2 -0.1,-0.3 -0.3,-0.3 h -0.2 V 74 h -0.2 v -1.3 z m 0.2,0.6 h 0.2 c 0.2,0 0.3,-0.1 0.3,-0.3 0,-0.2 -0.1,-0.2 -0.3,-0.3 h -0.2 z m 1,-0.6 V 74 h -0.2 v -1.3 z m 1.4,1.3 c -0.1,0 -0.2,0.1 -0.4,0.1 -0.2,0 -0.4,-0.1 -0.5,-0.2 -0.1,-0.1 -0.2,-0.3 -0.2,-0.5 0,-0.4 0.3,-0.7 0.7,-0.7 0.2,0 0.3,0 0.3,0.1 v 0.1 c -0.1,0 -0.2,-0.1 -0.3,-0.1 -0.3,0 -0.5,0.2 -0.5,0.5 0,0.3 0.2,0.5 0.5,0.5 h 0.2 v -0.4 h -0.3 v -0.1 h 0.4 V 74 Z m 0.4,-1.3 v 0.6 h 0.7 v -0.6 h 0.2 V 74 h -0.2 v -0.6 h -0.7 V 74 h -0.2 v -1.3 z m 1.4,0.1 h -0.4 v -0.1 h 1 v 0.1 h -0.4 V 74 h -0.2 z"
         id="path114"
         inkscape:connector-curvature="0" />
    </g>
    <g
       id="g120"
       style="fill:#1b1610">
      <path
         d="m 14.8,212.3 0.4,-2.7 -0.4,-0.4 0.9,-1 1.8,2.2 0.4,-2.2 0.9,0.5 -0.7,0.4 -0.6,3.1 -2,-2.3 -0.3,1.4 0.5,0.5 z m 5.6,-3.6 h 1 c 0.2,0.1 0.2,0.1 0.3,0.3 0.1,0.1 0.2,0.3 0.2,0.6 l 0.3,-1.1 H 19 v 0.1 h 0.1 c 0.1,0 0.1,0 0.2,0.1 l 0.1,0.1 c 0,0 0,0.1 -0.1,0.3 l -0.2,1 c 0,0.1 -0.1,0.1 -0.1,0.1 -0.1,0.1 -0.2,0.1 -0.2,0.1 0,0 0.1,0 0.1,0.1 l 0.1,0.1 -0.2,1 c 0,0.2 -0.1,0.3 -0.1,0.3 0,0.1 -0.1,0.1 -0.1,0.1 -0.1,0 -0.2,0.1 -0.2,0.1 v 0.1 h 3 l 0.2,-1.1 c -0.2,0.3 -0.2,0.5 -0.4,0.6 -0.2,0.2 -0.5,0.2 -0.8,0.2 h -0.6 l -0.1,-0.1 c 0,0 0,-0.2 0.1,-0.4 l 0.2,-0.9 c 0.2,0 0.3,0 0.4,0.1 0.1,0 0.1,0.1 0.2,0.2 0.1,0.1 0.2,0.2 0.2,0.4 l 0.3,-1.5 c -0.1,0.3 -0.3,0.3 -0.4,0.4 -0.2,0.1 -0.3,0.1 -0.5,0.1 H 20 Z m 4.1,3.4 0.6,-1.3 c 0,0 -0.7,0.4 -1.2,0.4 -0.5,0 -1,-0.5 -0.9,-1.1 0.1,-1.1 1.3,-1.4 1.3,-1.4 l 0.5,0.7 0.5,-0.2 -0.4,-1 c 0,0 -0.7,0 -1.4,0.4 -0.7,0.4 -1.4,1.2 -1.4,2 0.2,1.9 1.7,1.6 1.9,1.6 0.1,0.1 0.5,-0.1 0.5,-0.1 z"
         id="path118"
         inkscape:connector-curvature="0" />
    </g>
    <path
       d="m 26.2,208.2 h 0.6 v 7.6 h -0.6 z"
       id="path122"
       inkscape:connector-curvature="0"
       style="fill:#1b1610" />
    <path
       d="m 27.7,208.6 c 0.3,0 0.7,-0.1 1.2,-0.1 0.6,0 1,0.1 1.3,0.4 0.3,0.2 0.4,0.6 0.4,1 0,0.4 -0.1,0.8 -0.4,1 -0.3,0.3 -0.8,0.5 -1.4,0.5 h -0.5 v 1.9 h -0.6 z m 0.6,2.2 h 0.5 c 0.7,0 1.2,-0.4 1.2,-1 0,-0.6 -0.4,-0.9 -1.1,-0.9 h -0.6 z m 6.4,2.3 c -0.2,0.1 -0.7,0.2 -1.2,0.2 -1.3,0 -2.3,-0.8 -2.3,-2.4 0,-1.5 1,-2.5 2.5,-2.5 0.6,0 1,0.1 1.1,0.2 l -0.1,0.5 c -0.2,-0.1 -0.6,-0.2 -1,-0.2 -1.1,0 -1.8,0.7 -1.8,1.9 0,1.2 0.7,1.9 1.8,1.9 0.4,0 0.7,-0.1 1,-0.2 z m 2.2,-2 v 0.5 h -1.7 v -0.5 z m 0.8,1.7 h 0.5 c 0.4,0 0.7,-0.2 1,-0.4 0.3,-0.3 0.5,-0.7 0.6,-1.2 -0.3,0.3 -0.6,0.5 -1.1,0.5 -0.8,0 -1.3,-0.6 -1.3,-1.4 0,-0.9 0.6,-1.6 1.6,-1.6 0.9,0 1.5,0.8 1.5,1.9 0,1 -0.3,1.7 -0.8,2.1 -0.3,0.3 -0.8,0.6 -1.3,0.6 h -0.6 v -0.5 z m 0.3,-2.6 c 0,0.6 0.3,1 0.9,1 0.4,0 0.7,-0.2 0.9,-0.5 0,-0.1 0.1,-0.1 0.1,-0.2 0,-0.8 -0.3,-1.4 -0.9,-1.4 -0.7,0 -1,0.4 -1,1.1 z m 2.9,1.9 c 0,-0.6 0.3,-1 0.9,-1.2 -0.5,-0.2 -0.7,-0.6 -0.7,-1 0,-0.7 0.6,-1.2 1.4,-1.2 0.9,0 1.3,0.6 1.3,1.1 0,0.4 -0.2,0.8 -0.7,1.1 0.6,0.2 0.9,0.6 0.9,1.2 0,0.8 -0.7,1.3 -1.5,1.3 -1,-0.1 -1.6,-0.7 -1.6,-1.3 z m 2.5,-0.1 c 0,-0.6 -0.4,-0.8 -1,-1 -0.5,0.2 -0.8,0.5 -0.8,0.9 0,0.5 0.3,0.9 0.9,0.9 0.5,0.1 0.9,-0.3 0.9,-0.8 z m -1.7,-2.2 c 0,0.5 0.3,0.7 0.9,0.8 0.4,-0.1 0.7,-0.4 0.7,-0.8 0,-0.4 -0.2,-0.7 -0.8,-0.7 -0.5,-0.1 -0.8,0.3 -0.8,0.7 z m 5.9,1.1 c 0,1.5 -0.6,2.4 -1.6,2.4 -0.9,0 -1.5,-0.8 -1.5,-2.3 0,-1.5 0.7,-2.4 1.6,-2.4 0.9,0 1.5,0.8 1.5,2.3 z m -2.5,0.1 c 0,1.2 0.4,1.9 0.9,1.9 0.6,0 0.9,-0.7 0.9,-1.9 0,-1.1 -0.3,-1.9 -0.9,-1.9 -0.5,0 -0.9,0.6 -0.9,1.9 z m 4.4,-1.8 -0.8,0.4 -0.1,-0.5 1,-0.5 h 0.5 v 4.6 H 49.5 Z M 27.7,214 h 0.4 c 0.2,0 0.4,0 0.5,0.1 0.1,0.1 0.1,0.2 0.1,0.4 0,0.2 0,0.3 -0.1,0.4 -0.1,0.1 -0.3,0.2 -0.5,0.2 h -0.2 v 0.7 h -0.2 z m 0.2,0.9 h 0.2 c 0.3,0 0.4,-0.1 0.4,-0.4 0,-0.2 -0.2,-0.3 -0.4,-0.3 h -0.2 z m 1.9,0 h -0.6 v 0.6 h 0.7 v 0.2 H 29 V 214 h 0.9 v 0.2 h -0.7 v 0.5 h 0.6 z m 0.3,-0.9 h 0.4 c 0.2,0 0.4,0 0.5,0.1 0.1,0.1 0.1,0.2 0.1,0.3 0,0.2 -0.1,0.4 -0.3,0.4 0.1,0 0.2,0.2 0.2,0.3 0.1,0.2 0.1,0.4 0.1,0.5 H 31 c 0,0 -0.1,-0.2 -0.1,-0.4 0,-0.2 -0.1,-0.3 -0.3,-0.3 h -0.2 v 0.7 H 30.2 V 214 Z m 0.2,0.8 h 0.2 c 0.2,0 0.4,-0.1 0.4,-0.3 0,-0.2 -0.2,-0.3 -0.4,-0.3 h -0.2 z m 1.1,0.6 c 0.1,0.1 0.2,0.1 0.4,0.1 0.2,0 0.3,-0.1 0.3,-0.3 0,-0.2 -0.1,-0.2 -0.3,-0.3 -0.3,-0.1 -0.4,-0.2 -0.4,-0.5 0,-0.3 0.2,-0.5 0.5,-0.5 0.2,0 0.3,0 0.4,0.1 l -0.1,0.2 c -0.1,0 -0.2,-0.1 -0.3,-0.1 -0.2,0 -0.3,0.1 -0.3,0.3 0,0.2 0.1,0.2 0.3,0.3 0.3,0.1 0.4,0.2 0.4,0.5 0,0.3 -0.2,0.5 -0.6,0.5 -0.2,0 -0.3,0 -0.4,-0.1 z m 2.6,-0.6 c 0,0.6 -0.3,0.9 -0.8,0.9 -0.4,0 -0.7,-0.3 -0.7,-0.9 0,-0.5 0.3,-0.9 0.8,-0.9 0.4,0.1 0.7,0.4 0.7,0.9 z m -1.3,0.1 c 0,0.4 0.2,0.7 0.5,0.7 0.3,0 0.5,-0.3 0.5,-0.7 0,-0.3 -0.2,-0.7 -0.5,-0.7 -0.3,0 -0.5,0.3 -0.5,0.7 z m 1.5,0.8 V 214 h 0.2 l 0.5,0.9 c 0.1,0.2 0.2,0.4 0.3,0.5 V 214 h 0.2 v 1.7 h -0.2 l -0.5,-0.9 -0.3,-0.6 v 1.4 h -0.2 z m 1.9,-0.5 -0.2,0.5 h -0.2 l 0.5,-1.7 h 0.3 l 0.6,1.7 h -0.2 l -0.2,-0.5 z m 0.5,-0.2 -0.2,-0.5 c 0,-0.1 -0.1,-0.2 -0.1,-0.3 0,0.1 -0.1,0.2 -0.1,0.3 L 36,215 Z m 0.7,-1 h 0.2 v 1.5 h 0.7 v 0.2 h -0.9 z m 2.8,1.7 c -0.1,0 -0.2,0.1 -0.4,0.1 -0.5,0 -0.8,-0.3 -0.8,-0.9 0,-0.5 0.3,-0.9 0.8,-0.9 0.2,0 0.3,0 0.4,0.1 l -0.1,0.2 c -0.1,0 -0.2,-0.1 -0.3,-0.1 -0.4,0 -0.6,0.3 -0.6,0.7 0,0.4 0.2,0.7 0.6,0.7 0.1,0 0.3,0 0.3,-0.1 z m 1.5,-0.9 c 0,0.6 -0.3,0.9 -0.8,0.9 -0.4,0 -0.7,-0.3 -0.7,-0.9 0,-0.5 0.3,-0.9 0.8,-0.9 0.5,0.1 0.7,0.4 0.7,0.9 z m -1.2,0.1 c 0,0.4 0.2,0.7 0.5,0.7 0.3,0 0.5,-0.3 0.5,-0.7 0,-0.3 -0.2,-0.7 -0.5,-0.7 -0.3,0 -0.5,0.3 -0.5,0.7 z m 2.9,0.1 v -0.7 c -0.1,0.2 -0.1,0.4 -0.2,0.6 l -0.3,0.8 h -0.2 l -0.3,-0.8 c -0.1,-0.2 -0.1,-0.5 -0.2,-0.7 v 1.4 H 41.9 L 42,214 h 0.3 l 0.3,0.8 c 0.1,0.2 0.1,0.4 0.2,0.6 0,-0.2 0.1,-0.4 0.2,-0.6 l 0.3,-0.8 h 0.3 l 0.1,1.7 h -0.2 z m 0.5,-1 h 0.4 c 0.2,0 0.4,0 0.5,0.1 0.1,0.1 0.1,0.2 0.1,0.4 0,0.2 0,0.3 -0.1,0.4 -0.1,0.1 -0.3,0.2 -0.5,0.2 H 44 v 0.7 h -0.2 z m 0.2,0.9 h 0.2 c 0.3,0 0.4,-0.1 0.4,-0.4 0,-0.2 -0.2,-0.3 -0.4,-0.3 H 44 Z m 1.3,-0.9 v 1 c 0,0.4 0.2,0.5 0.4,0.5 0.2,0 0.4,-0.2 0.4,-0.5 v -1 h 0.2 v 1 c 0,0.5 -0.3,0.7 -0.6,0.7 -0.3,0 -0.6,-0.2 -0.6,-0.7 v -1 z m 1.7,0.2 H 46.5 V 214 h 1.2 v 0.2 h -0.5 v 1.5 H 47 Z m 1.7,0.7 h -0.6 v 0.6 h 0.7 v 0.2 H 47.9 V 214 h 0.9 v 0.2 h -0.7 v 0.5 h 0.6 z M 49,214 h 0.4 c 0.2,0 0.4,0 0.5,0.1 0.1,0.1 0.1,0.2 0.1,0.3 0,0.2 -0.1,0.4 -0.3,0.4 0.1,0 0.2,0.2 0.2,0.3 0.1,0.2 0.1,0.4 0.1,0.5 h -0.2 c 0,0 -0.1,-0.2 -0.1,-0.4 0,-0.2 -0.1,-0.3 -0.3,-0.3 h -0.2 v 0.7 H 49 Z m 0.2,0.8 h 0.2 c 0.2,0 0.4,-0.1 0.4,-0.3 0,-0.2 -0.2,-0.3 -0.4,-0.3 h -0.2 z"
       id="path124"
       inkscape:connector-curvature="0" />
    <g
       id="g128"
       style="fill:#af9c8b">
      <path
         d="m 225.4,139.9 h 0.2 v 0.9 c 0,0.4 -0.2,0.5 -0.4,0.5 H 225 v -0.1 h 0.1 c 0.2,0 0.2,-0.1 0.2,-0.3 v -1 z m 1.4,1.3 c -0.1,0 -0.2,0.1 -0.4,0.1 -0.4,0 -0.7,-0.2 -0.7,-0.7 0,-0.4 0.3,-0.7 0.7,-0.7 0.2,0 0.3,0 0.3,0.1 v 0.1 c -0.1,0 -0.2,-0.1 -0.3,-0.1 -0.3,0 -0.5,0.2 -0.5,0.6 0,0.3 0.2,0.5 0.5,0.5 0.1,0 0.2,0 0.3,-0.1 z m 0.7,-0.5 v 0.1 H 227 v -0.1 z m 0.5,-0.5 -0.2,0.1 v -0.1 l 0.3,-0.2 h 0.2 v 1.3 H 228 Z m 0.6,1.1 v -0.1 l 0.1,-0.1 c 0.3,-0.3 0.5,-0.5 0.5,-0.7 0,-0.1 -0.1,-0.3 -0.3,-0.3 -0.1,0 -0.2,0.1 -0.3,0.1 l -0.1,-0.1 c 0.1,-0.1 0.2,-0.1 0.4,-0.1 0.3,0 0.4,0.2 0.4,0.4 0,0.2 -0.2,0.4 -0.4,0.7 l -0.1,0.1 h 0.6 v 0.1 z m 1.9,-0.7 c 0,0.4 -0.2,0.7 -0.5,0.7 -0.3,0 -0.4,-0.2 -0.4,-0.7 0,-0.4 0.2,-0.7 0.5,-0.7 0.3,0.1 0.4,0.3 0.4,0.7 z m -0.7,0 c 0,0.3 0.1,0.5 0.3,0.5 0.2,0 0.3,-0.2 0.3,-0.5 0,-0.3 -0.1,-0.5 -0.3,-0.5 -0.2,0 -0.3,0.2 -0.3,0.5 z m 0.9,0.7 v -0.1 l 0.1,-0.1 c 0.3,-0.3 0.5,-0.5 0.5,-0.7 0,-0.1 -0.1,-0.3 -0.3,-0.3 -0.1,0 -0.2,0.1 -0.3,0.1 l -0.1,-0.1 c 0.1,-0.1 0.2,-0.1 0.4,-0.1 0.3,0 0.4,0.2 0.4,0.4 0,0.2 -0.2,0.4 -0.4,0.7 l -0.1,0.1 h 0.6 v 0.1 z m 1.1,-1.3 h 0.4 c 0.2,0 0.4,0.1 0.5,0.2 0.1,0.1 0.2,0.3 0.2,0.5 0,0.2 -0.1,0.4 -0.2,0.5 -0.1,0.1 -0.3,0.2 -0.6,0.2 h -0.3 z m 0.1,1.2 h 0.2 c 0.4,0 0.6,-0.2 0.6,-0.6 0,-0.3 -0.2,-0.5 -0.5,-0.5 H 232 v 1.1 z m 1.4,-1.3 v 0.6 h 0.7 v -0.6 h 0.2 v 1.3 H 234 v -0.6 h -0.7 v 0.6 h -0.2 v -1.3 z"
         id="path126"
         inkscape:connector-curvature="0" />
    </g>
    <path
       d="m 234.6,142.8 h -10 c -0.2,0 -0.3,-0.1 -0.3,-0.3 v -2.6 c 0,-0.2 0.1,-0.3 0.3,-0.3 h 10 c 0.2,0 0.3,0.1 0.3,0.3 v 2.6 c 0,0.2 -0.1,0.3 -0.3,0.3 z m -10,-3.1 c -0.1,0 -0.2,0.1 -0.2,0.2 v 2.6 c 0,0.1 0.1,0.2 0.2,0.2 h 10 c 0.1,0 0.2,-0.1 0.2,-0.2 v -2.6 c 0,-0.1 -0.1,-0.2 -0.2,-0.2 z"
       id="path130"
       inkscape:connector-curvature="0"
       style="fill:#af9c8b" />
    <path
       d="M 283.4,300.6 H 0 l 10.5,-62.3 c 0,-2.2 1.8,-4 4,-4 h 254.3 c 2.2,0 4,1.8 4,4 z"
       id="path132"
       inkscape:connector-curvature="0"
       style="fill:#cfc9bf" />
    <path
       d="M 276.2,291.1 H 8.4 c -0.9,0 -1.6,-0.9 -1.4,-1.8 l 6.9,-41.9 c 0,-1.6 1.8,-2.8 3.9,-2.8 h 248.5 c 2.2,0 3.9,1.3 3.9,2.8 l 7.3,41.9 c 0.3,0.9 -0.4,1.8 -1.3,1.8 z"
       id="path134"
       inkscape:connector-curvature="0"
       style="fill:#352b1b" />
    <path
       d="M 282.8,305.4 H 0.6 C 0.3,305.4 0,305.1 0,304.8 v -4.2 h 283.4 v 4.2 c 0,0.3 -0.2,0.6 -0.6,0.6 z"
       id="path136"
       inkscape:connector-curvature="0"
       style="fill:#958b7c" />
    <path
       d="M 281.2,309.4 H 2.3 c -0.4,0 -0.8,-0.4 -0.8,-0.8 l -0.9,-3.2 h 282.3 l -0.9,3.2 c 0,0.4 -0.4,0.8 -0.8,0.8 z"
       id="path138"
       inkscape:connector-curvature="0"
       style="fill:#908a7b" />
    <path
       d="m 188.3,254.7 -166,0.1 c -0.2,0 -0.3,0.1 -0.3,0.2 l -4.5,23.8 c 0,0.1 0.1,0.2 0.3,0.2 l 173.1,0.1 c 0.2,0 0.3,-0.1 0.3,-0.2 l -2.5,-24 c -0.1,-0.1 -0.3,-0.2 -0.4,-0.2 z m -19.9,30.9 H 39.6 c -0.2,0 -0.3,-0.1 -0.3,-0.3 l 0.6,-6.2 128.5,0.1 0.2,6.1 c 0.1,0.1 -0.1,0.3 -0.2,0.3 z M 43.3,245.9 H 22.5 c -0.2,0 -0.3,0.1 -0.3,0.3 l -1.2,6.3 c 0,0.2 0.1,0.3 0.3,0.3 h 22.5 c 0.2,0 0.3,-0.1 0.3,-0.3 l -0.4,-6.3 c -0.1,-0.2 -0.2,-0.3 -0.4,-0.3 z m 72.1,0 H 49.5 c -0.5,0 -0.8,0.1 -0.8,0.3 l -1,6.3 c 0,0.2 0.4,0.3 0.8,0.3 h 67.3 c 0.5,0 0.8,-0.1 0.8,-0.3 l -0.4,-6.3 c 0,-0.2 -0.3,-0.3 -0.8,-0.3 z m 72.2,0 h -65 c -0.5,0 -0.8,0.1 -0.8,0.3 l -1,6.3 c 0,0.2 0.4,0.3 0.8,0.3 H 188 c 0.5,0 0.8,-0.1 0.8,-0.3 l -0.3,-6.3 c -0.1,-0.2 -0.5,-0.3 -0.9,-0.3 z m 7.3,39.4 -0.6,-18.1 c 0,-0.2 0.1,-0.3 0.3,-0.3 h 21.5 c 0.8,0 0.9,0.1 0.9,0.3 l 1.8,18.1 c 0,0.2 -0.1,0.3 -0.3,0.3 h -23.3 c -0.2,0 -0.3,-0.1 -0.3,-0.3 z m 20.5,-30.1 h -21.3 c -0.2,0 -0.3,0.1 -0.3,0.3 l 0.3,5.5 c 0,0.2 0.1,0.3 0.3,0.3 h 21.3 c 0.2,0 0.3,-0.1 0.3,-0.3 l -0.4,-5.5 c 0.1,-0.2 0,-0.3 -0.2,-0.3 z m -0.9,-8.6 h -21.3 c -0.2,0 -0.3,0.1 -0.3,0.3 l 0.3,5.5 c 0,0.2 0.1,0.3 0.3,0.3 h 21.3 c 0.2,0 0.3,-0.1 0.3,-0.3 l -0.4,-5.5 c 0.1,-0.1 -0.1,-0.3 -0.2,-0.3 z m 53.9,39 h -43.8 c -0.1,0 -0.3,-0.1 -0.3,-0.2 l -2.7,-29.9 c 0,-0.2 0.1,-0.3 0.3,-0.3 h 43 c 0.1,0 0.3,0.1 0.3,0.2 l 3.6,29.9 c -0.1,0.1 -0.3,0.3 -0.4,0.3 z"
       id="path140"
       inkscape:connector-curvature="0"
       style="fill:#0e0000" />
    <path
       d="m 31.4,246.8 h -8.1 l -1.2,5.6 h 10.4 z"
       id="path142"
       inkscape:connector-curvature="0"
       style="fill:#241f16" />
    <path
       d="m 31.1,244.7 h -7.6 c -0.1,0 -0.3,0.1 -0.3,0.3 v 1.9 h 8.1 V 245 c 0.1,-0.2 0,-0.3 -0.2,-0.3 z"
       id="path144"
       inkscape:connector-curvature="0"
       style="fill:#282219" />
    <path
       d="m 31.4,244.9 1.1,3.4 v 4.1 l -1.1,-5.6 z m -8.1,0 -1.2,3.4 v 4.1 l 1.2,-5.6 z"
       id="path146"
       inkscape:connector-curvature="0"
       style="fill:#38312a" />
    <path
       d="m 42.3,246.8 h -8.1 l -1.1,5.6 h 10.4 z"
       id="path148"
       inkscape:connector-curvature="0"
       style="fill:#241f16" />
    <path
       d="m 42,244.7 h -7.6 c -0.1,0 -0.3,0.1 -0.3,0.3 v 1.9 h 8.1 V 245 c 0.1,-0.2 0,-0.3 -0.2,-0.3 z"
       id="path150"
       inkscape:connector-curvature="0"
       style="fill:#282219" />
    <path
       d="m 42.3,244.9 1.2,3.4 v 4.1 l -1.2,-5.6 z m -8.1,0 -1.1,3.4 v 4.1 l 1.1,-5.6 z"
       id="path152"
       inkscape:connector-curvature="0"
       style="fill:#38312a" />
    <path
       d="M 60.5,246.9 H 50.4 l -1.4,5.7 h 12.9 z"
       id="path154"
       inkscape:connector-curvature="0"
       style="fill:#241f16" />
    <path
       d="m 60.2,244.8 h -9.4 c -0.2,0 -0.3,0.1 -0.3,0.3 v 1.8 h 10 v -1.8 c 0,-0.2 -0.2,-0.3 -0.3,-0.3 z"
       id="path156"
       inkscape:connector-curvature="0"
       style="fill:#282219" />
    <path
       d="m 60.5,245 1.4,3.4 v 4.2 l -1.4,-5.7 z m -10.1,0 -1.4,3.4 v 4.2 l 1.4,-5.7 z"
       id="path158"
       inkscape:connector-curvature="0"
       style="fill:#38312a" />
    <path
       d="m 73.8,247 h -10 l -1.4,5.6 h 12.8 z"
       id="path160"
       inkscape:connector-curvature="0"
       style="fill:#241f16" />
    <path
       d="m 73.5,244.8 h -9.4 c -0.2,0 -0.3,0.1 -0.3,0.3 v 1.8 h 10 v -1.8 c 0,-0.1 -0.1,-0.3 -0.3,-0.3 z"
       id="path162"
       inkscape:connector-curvature="0"
       style="fill:#282219" />
    <path
       d="m 73.8,245.1 1.4,3.4 v 4.1 L 73.8,247 Z m -10,0 -1.4,3.4 v 4.1 l 1.4,-5.6 z"
       id="path164"
       inkscape:connector-curvature="0"
       style="fill:#38312a" />
    <path
       d="m 87.5,247 h -10 l -1.4,5.6 h 12.8 z"
       id="path166"
       inkscape:connector-curvature="0"
       style="fill:#241f16" />
    <path
       d="m 87.2,244.8 h -9.4 c -0.2,0 -0.3,0.1 -0.3,0.3 v 1.8 h 10 v -1.8 c 0,-0.1 -0.1,-0.3 -0.3,-0.3 z"
       id="path168"
       inkscape:connector-curvature="0"
       style="fill:#282219" />
    <path
       d="m 87.5,245.1 1.4,3.4 v 4.1 L 87.5,247 Z m -10,0 -1.4,3.4 v 4.1 l 1.4,-5.6 z"
       id="path170"
       inkscape:connector-curvature="0"
       style="fill:#38312a" />
    <path
       d="m 99.1,247 h -9.5 l -1.3,5.7 h 12.1 z"
       id="path172"
       inkscape:connector-curvature="0"
       style="fill:#241f16" />
    <path
       d="M 98.8,244.9 H 90 c -0.2,0 -0.3,0.1 -0.3,0.3 v 1.8 h 9.4 v -1.8 c 0,-0.2 -0.2,-0.3 -0.3,-0.3 z"
       id="path174"
       inkscape:connector-curvature="0"
       style="fill:#282219" />
    <path
       d="m 99.1,245.1 1.3,3.4 v 4.2 L 99.1,247 Z m -9.4,0 -1.4,3.4 v 4.2 l 1.4,-5.7 z"
       id="path176"
       inkscape:connector-curvature="0"
       style="fill:#38312a" />
    <path
       d="m 100.9,247 h -10 l -1.4,5.7 h 12.8 z"
       id="path178"
       inkscape:connector-curvature="0"
       style="fill:#241f16" />
    <path
       d="m 100.6,244.9 h -9.4 c -0.2,0 -0.3,0.1 -0.3,0.3 v 1.8 h 10 v -1.8 c 0,-0.2 -0.1,-0.3 -0.3,-0.3 z"
       id="path180"
       inkscape:connector-curvature="0"
       style="fill:#282219" />
    <path
       d="m 100.9,245.2 1.4,3.3 v 4.2 l -1.4,-5.7 z m -10,0 -1.4,3.3 v 4.2 l 1.4,-5.7 z"
       id="path182"
       inkscape:connector-curvature="0"
       style="fill:#38312a" />
    <path
       d="m 114.4,247 h -10 l -1.4,5.6 h 12.8 z"
       id="path184"
       inkscape:connector-curvature="0"
       style="fill:#241f16" />
    <path
       d="m 114.1,244.8 h -9.4 c -0.2,0 -0.3,0.1 -0.3,0.3 v 1.8 h 10 v -1.8 c 0,-0.1 -0.1,-0.3 -0.3,-0.3 z"
       id="path186"
       inkscape:connector-curvature="0"
       style="fill:#282219" />
    <path
       d="m 114.4,245.1 1.4,3.4 v 4.1 l -1.4,-5.6 z m -10,0 -1.4,3.4 v 4.1 l 1.4,-5.6 z"
       id="path188"
       inkscape:connector-curvature="0"
       style="fill:#38312a" />
    <path
       d="m 133.4,246.9 h -9.9 l -1.4,5.6 h 12.7 z"
       id="path190"
       inkscape:connector-curvature="0"
       style="fill:#241f16" />
    <path
       d="m 133.1,244.7 h -9.3 c -0.2,0 -0.3,0.1 -0.3,0.3 v 1.8 h 9.9 V 245 c 0,-0.1 -0.1,-0.3 -0.3,-0.3 z"
       id="path192"
       inkscape:connector-curvature="0"
       style="fill:#282219" />
    <path
       d="m 133.4,245 1.4,3.4 v 4.1 l -1.4,-5.6 z m -9.9,0 -1.4,3.4 v 4.1 l 1.4,-5.6 z"
       id="path194"
       inkscape:connector-curvature="0"
       style="fill:#38312a" />
    <path
       d="m 146.6,246.9 h -9.9 l -1.4,5.7 H 148 Z"
       id="path196"
       inkscape:connector-curvature="0"
       style="fill:#241f16" />
    <path
       d="M 146.3,244.8 H 137 c -0.2,0 -0.3,0.1 -0.3,0.3 v 1.8 h 9.9 v -1.8 c 0,-0.2 -0.1,-0.3 -0.3,-0.3 z"
       id="path198"
       inkscape:connector-curvature="0"
       style="fill:#282219" />
    <path
       d="m 146.6,245.1 1.4,3.4 v 4.1 l -1.4,-5.7 z m -9.9,0 -1.4,3.4 v 4.1 l 1.4,-5.7 z"
       id="path200"
       inkscape:connector-curvature="0"
       style="fill:#38312a" />
    <path
       d="m 160.1,246.9 h -9.9 l -1.4,5.7 h 12.7 z"
       id="path202"
       inkscape:connector-curvature="0"
       style="fill:#241f16" />
    <path
       d="m 159.8,244.8 h -9.3 c -0.2,0 -0.3,0.1 -0.3,0.3 v 1.8 h 9.9 v -1.8 c 0,-0.2 -0.1,-0.3 -0.3,-0.3 z"
       id="path204"
       inkscape:connector-curvature="0"
       style="fill:#282219" />
    <path
       d="m 160.1,245.1 1.4,3.4 v 4.1 l -1.4,-5.7 z m -9.9,0 -1.4,3.4 v 4.1 l 1.4,-5.7 z"
       id="path206"
       inkscape:connector-curvature="0"
       style="fill:#38312a" />
    <path
       d="m 173.3,247 h -9.9 l -1.4,5.6 h 12.7 z"
       id="path208"
       inkscape:connector-curvature="0"
       style="fill:#241f16" />
    <path
       d="m 173,244.9 h -9.3 c -0.2,0 -0.3,0.1 -0.3,0.3 v 1.8 h 9.9 v -1.8 c 0,-0.2 -0.1,-0.3 -0.3,-0.3 z"
       id="path210"
       inkscape:connector-curvature="0"
       style="fill:#282219" />
    <path
       d="m 173.3,245.1 1.4,3.4 v 4.1 l -1.4,-5.6 z m -9.9,0 -1.4,3.4 v 4.1 l 1.4,-5.6 z"
       id="path212"
       inkscape:connector-curvature="0"
       style="fill:#38312a" />
    <path
       d="m 186.7,246.9 h -9.9 l -1.4,5.7 h 12.7 z"
       id="path214"
       inkscape:connector-curvature="0"
       style="fill:#241f16" />
    <path
       d="m 186.4,244.8 h -9.3 c -0.2,0 -0.3,0.1 -0.3,0.3 v 1.8 h 9.9 v -1.8 c 0,-0.2 -0.2,-0.3 -0.3,-0.3 z"
       id="path216"
       inkscape:connector-curvature="0"
       style="fill:#282219" />
    <path
       d="m 186.7,245.1 1.4,3.4 v 4.1 l -1.4,-5.7 z m -9.9,0 -1.4,3.4 v 4.1 l 1.4,-5.7 z"
       id="path218"
       inkscape:connector-curvature="0"
       style="fill:#38312a" />
    <path
       d="M 202.7,246.9 H 195 l -1,5.7 h 9.8 z"
       id="path220"
       inkscape:connector-curvature="0"
       style="fill:#241f16" />
    <path
       d="m 202.4,244.8 h -7.1 c -0.1,0 -0.3,0.1 -0.3,0.3 v 1.9 h 7.6 v -1.9 c 0.1,-0.2 0,-0.3 -0.2,-0.3 z"
       id="path222"
       inkscape:connector-curvature="0"
       style="fill:#282219" />
    <path
       d="m 202.7,245.1 1.1,3.4 v 4.1 l -1.1,-5.7 z m -7.7,0 -1,3.4 v 4.1 l 1,-5.7 z"
       id="path224"
       inkscape:connector-curvature="0"
       style="fill:#38312a" />
    <g
       id="g232">
      <path
         d="m 213,246.9 h -7.6 l -1.1,5.7 h 9.8 z"
         id="path226"
         inkscape:connector-curvature="0"
         style="fill:#241f16" />
      <path
         d="m 212.7,244.8 h -7.1 c -0.1,0 -0.3,0.1 -0.3,0.3 v 1.9 h 7.6 v -1.9 c 0.1,-0.2 0,-0.3 -0.2,-0.3 z"
         id="path228"
         inkscape:connector-curvature="0"
         style="fill:#282219" />
      <path
         d="m 213,245.1 1.1,3.4 v 4.1 l -1.1,-5.7 z m -7.6,0 -1.1,3.4 v 4.1 l 1.1,-5.7 z"
         id="path230"
         inkscape:connector-curvature="0"
         style="fill:#38312a" />
    </g>
    <g
       id="g384">
      <path
         d="m 231.6,256.5 h -7.9 l -1.1,6.6 h 10.1 z"
         id="path234"
         inkscape:connector-curvature="0"
         style="fill:#241f16" />
      <path
         d="M 231.3,254 H 224 c -0.2,0 -0.3,0.1 -0.3,0.3 v 2.2 h 7.9 v -2.2 c 0,-0.1 -0.1,-0.3 -0.3,-0.3 z"
         id="path236"
         inkscape:connector-curvature="0"
         style="fill:#282219" />
      <path
         d="m 231.6,254.3 1.1,4 v 4.8 l -1.1,-6.6 z m -7.9,0 -1.1,4 v 4.8 l 1.1,-6.6 z"
         id="path238"
         inkscape:connector-curvature="0"
         style="fill:#38312a" />
      <path
         d="m 242.3,256.5 h -7.9 l -1.1,6.6 h 10.1 z"
         id="path240"
         inkscape:connector-curvature="0"
         style="fill:#241f16" />
      <path
         d="m 242,254 h -7.3 c -0.2,0 -0.3,0.1 -0.3,0.3 v 2.2 h 7.9 v -2.2 c 0,-0.1 -0.1,-0.3 -0.3,-0.3 z"
         id="path242"
         inkscape:connector-curvature="0"
         style="fill:#282219" />
      <path
         d="m 242.3,254.3 1.1,4 v 4.8 l -1.1,-6.6 z m -7.9,0 -1.1,4 v 4.8 l 1.1,-6.6 z"
         id="path244"
         inkscape:connector-curvature="0"
         style="fill:#38312a" />
      <path
         d="m 253.2,256.3 h -7.9 l -1.1,6.5 h 10.1 z"
         id="path246"
         inkscape:connector-curvature="0"
         style="fill:#241f16" />
      <path
         d="m 252.9,253.8 h -7.3 c -0.2,0 -0.3,0.1 -0.3,0.3 v 2.2 h 7.9 v -2.2 c 0,-0.2 -0.1,-0.3 -0.3,-0.3 z"
         id="path248"
         inkscape:connector-curvature="0"
         style="fill:#282219" />
      <path
         d="m 253.2,254.1 1.1,3.9 v 4.8 l -1.1,-6.5 z m -7.9,0 -1.1,3.9 v 4.8 l 1.1,-6.5 z"
         id="path250"
         inkscape:connector-curvature="0"
         style="fill:#38312a" />
      <path
         d="M 263.9,256.3 H 256 l -1.1,6.5 H 265 Z"
         id="path252"
         inkscape:connector-curvature="0"
         style="fill:#241f16" />
      <path
         d="m 263.6,253.8 h -7.3 c -0.2,0 -0.3,0.1 -0.3,0.3 v 2.2 h 7.9 v -2.2 c 0,-0.2 -0.1,-0.3 -0.3,-0.3 z"
         id="path254"
         inkscape:connector-curvature="0"
         style="fill:#282219" />
      <path
         d="m 263.9,254.1 1.1,3.9 v 4.8 l -1.1,-6.5 z m -7.9,0 -1.1,3.9 v 4.8 l 1.1,-6.5 z"
         id="path256"
         inkscape:connector-curvature="0"
         style="fill:#38312a" />
      <path
         d="m 232.2,262.1 h -7.9 l -1.1,6.5 h 10.1 z"
         id="path258"
         inkscape:connector-curvature="0"
         style="fill:#706f6d" />
      <path
         d="m 231.9,259.6 h -7.3 c -0.2,0 -0.3,0.1 -0.3,0.3 v 2.2 h 7.9 v -2.2 c 0,-0.2 -0.1,-0.3 -0.3,-0.3 z"
         id="path260"
         inkscape:connector-curvature="0"
         style="fill:#9e9c9a" />
      <path
         d="m 232.2,259.9 1.1,3.9 v 4.8 l -1.1,-6.5 z m -7.9,0 -1.1,3.9 v 4.8 l 1.1,-6.5 z"
         id="path262"
         inkscape:connector-curvature="0"
         style="fill:#7a7874" />
      <g
         id="g270">
        <path
           d="M 242.9,262.1 H 235 l -1.1,6.5 H 244 Z"
           id="path264"
           inkscape:connector-curvature="0"
           style="fill:#706f6d" />
        <path
           d="m 242.6,259.6 h -7.3 c -0.2,0 -0.3,0.1 -0.3,0.3 v 2.2 h 7.9 v -2.2 c 0,-0.2 -0.1,-0.3 -0.3,-0.3 z"
           id="path266"
           inkscape:connector-curvature="0"
           style="fill:#9e9c9a" />
        <path
           d="m 242.9,259.9 1.1,3.9 v 4.8 l -1.1,-6.5 z m -7.9,0 -1.1,3.9 v 4.8 l 1.1,-6.5 z"
           id="path268"
           inkscape:connector-curvature="0"
           style="fill:#7a7874" />
      </g>
      <g
         id="g278">
        <path
           d="m 253.8,261.8 h -7.9 l -1.1,6.5 h 10.1 z"
           id="path272"
           inkscape:connector-curvature="0"
           style="fill:#706f6d" />
        <path
           d="m 253.5,259.3 h -7.3 c -0.2,0 -0.3,0.1 -0.3,0.3 v 2.2 h 7.9 v -2.2 c 0,-0.1 -0.1,-0.3 -0.3,-0.3 z"
           id="path274"
           inkscape:connector-curvature="0"
           style="fill:#9e9c9a" />
        <path
           d="m 253.8,259.6 1.1,4 v 4.7 l -1.1,-6.5 z m -7.9,0 -1.1,4 v 4.7 l 1.1,-6.5 z"
           id="path276"
           inkscape:connector-curvature="0"
           style="fill:#7a7874" />
      </g>
      <g
         id="g286">
        <path
           d="m 264.5,261.8 h -7.9 l -1.1,6.5 h 10.1 z"
           id="path280"
           inkscape:connector-curvature="0"
           style="fill:#241f16" />
        <path
           d="m 264.2,259.3 h -7.3 c -0.2,0 -0.3,0.1 -0.3,0.3 v 2.2 h 7.9 v -2.2 c 0,-0.1 -0.1,-0.3 -0.3,-0.3 z"
           id="path282"
           inkscape:connector-curvature="0"
           style="fill:#282219" />
        <path
           d="m 264.5,259.6 1.1,4 v 4.7 l -1.1,-6.5 z m -7.9,0 -1.1,4 v 4.7 l 1.1,-6.5 z"
           id="path284"
           inkscape:connector-curvature="0"
           style="fill:#38312a" />
      </g>
      <g
         id="g294">
        <path
           d="m 232.8,267.6 h -7.9 l -1.1,6.5 h 10.1 z"
           id="path288"
           inkscape:connector-curvature="0"
           style="fill:#706f6d" />
        <path
           d="m 232.5,265.1 h -7.3 c -0.2,0 -0.3,0.1 -0.3,0.3 v 2.2 h 7.9 v -2.2 c 0,-0.2 -0.1,-0.3 -0.3,-0.3 z"
           id="path290"
           inkscape:connector-curvature="0"
           style="fill:#9e9c9a" />
        <path
           d="m 232.8,265.4 1.1,3.9 v 4.8 l -1.1,-6.5 z m -7.9,0 -1.1,3.9 v 4.8 l 1.1,-6.5 z"
           id="path292"
           inkscape:connector-curvature="0"
           style="fill:#7a7874" />
      </g>
      <g
         id="g302">
        <path
           d="m 243.5,267.6 h -7.9 l -1.1,6.5 h 10.1 z"
           id="path296"
           inkscape:connector-curvature="0"
           style="fill:#706f6d" />
        <path
           d="m 243.2,265.1 h -7.3 c -0.2,0 -0.3,0.1 -0.3,0.3 v 2.2 h 7.9 v -2.2 c 0,-0.2 -0.1,-0.3 -0.3,-0.3 z"
           id="path298"
           inkscape:connector-curvature="0"
           style="fill:#9e9c9a" />
        <path
           d="m 243.5,265.4 1.1,3.9 v 4.8 l -1.1,-6.5 z m -7.9,0 -1.1,3.9 v 4.8 l 1.1,-6.5 z"
           id="path300"
           inkscape:connector-curvature="0"
           style="fill:#7a7874" />
      </g>
      <g
         id="g310">
        <path
           d="m 254.4,267.3 h -7.9 l -1.1,6.6 h 10.1 z"
           id="path304"
           inkscape:connector-curvature="0"
           style="fill:#706f6d" />
        <path
           d="m 254.1,264.8 h -7.3 c -0.2,0 -0.3,0.1 -0.3,0.3 v 2.2 h 7.9 v -2.2 c 0,-0.1 -0.1,-0.3 -0.3,-0.3 z"
           id="path306"
           inkscape:connector-curvature="0"
           style="fill:#9e9c9a" />
        <path
           d="m 254.4,265.1 1.1,4 v 4.8 l -1.1,-6.6 z m -7.9,0 -1.1,4 v 4.8 l 1.1,-6.6 z"
           id="path308"
           inkscape:connector-curvature="0"
           style="fill:#7a7874" />
      </g>
      <g
         id="g318">
        <path
           d="m 265.1,267.3 h -7.9 l -1.1,6.6 h 10.1 z"
           id="path312"
           inkscape:connector-curvature="0"
           style="fill:#241f16" />
        <path
           d="m 264.8,264.8 h -7.3 c -0.2,0 -0.3,0.1 -0.3,0.3 v 2.2 h 7.9 v -2.2 c 0,-0.1 -0.1,-0.3 -0.3,-0.3 z"
           id="path314"
           inkscape:connector-curvature="0"
           style="fill:#282219" />
        <path
           d="m 265.1,265.1 1.1,4 v 4.8 l -1.1,-6.6 z m -7.9,0 -1.1,4 v 4.8 l 1.1,-6.6 z"
           id="path316"
           inkscape:connector-curvature="0"
           style="fill:#38312a" />
      </g>
      <g
         id="g326">
        <path
           d="m 233.4,273.1 h -7.9 l -1.1,6.5 h 10.1 z"
           id="path320"
           inkscape:connector-curvature="0"
           style="fill:#706f6d" />
        <path
           d="m 233.1,270.6 h -7.3 c -0.2,0 -0.3,0.1 -0.3,0.3 v 2.2 h 7.9 v -2.2 c 0,-0.2 -0.1,-0.3 -0.3,-0.3 z"
           id="path322"
           inkscape:connector-curvature="0"
           style="fill:#9e9c9a" />
        <path
           d="m 233.4,270.9 1.1,3.9 v 4.8 l -1.1,-6.5 z m -7.9,0 -1.1,3.9 v 4.8 l 1.1,-6.5 z"
           id="path324"
           inkscape:connector-curvature="0"
           style="fill:#7a7874" />
      </g>
      <g
         id="g334">
        <path
           d="m 244.1,273.1 h -7.9 l -1.1,6.5 h 10.1 z"
           id="path328"
           inkscape:connector-curvature="0"
           style="fill:#706f6d" />
        <path
           d="m 243.8,270.6 h -7.3 c -0.2,0 -0.3,0.1 -0.3,0.3 v 2.2 h 7.9 v -2.2 c 0,-0.2 -0.1,-0.3 -0.3,-0.3 z"
           id="path330"
           inkscape:connector-curvature="0"
           style="fill:#9e9c9a" />
        <path
           d="m 244.1,270.9 1.1,3.9 v 4.8 l -1.1,-6.5 z m -7.9,0 -1.1,3.9 v 4.8 l 1.1,-6.5 z"
           id="path332"
           inkscape:connector-curvature="0"
           style="fill:#7a7874" />
      </g>
      <g
         id="g342">
        <path
           d="m 255,272.8 h -7.9 l -1.1,6.6 h 10.1 z"
           id="path336"
           inkscape:connector-curvature="0"
           style="fill:#706f6d" />
        <path
           d="m 254.7,270.3 h -7.3 c -0.2,0 -0.3,0.1 -0.3,0.3 v 2.2 h 7.9 v -2.2 c 0,-0.1 -0.1,-0.3 -0.3,-0.3 z"
           id="path338"
           inkscape:connector-curvature="0"
           style="fill:#9e9c9a" />
        <path
           d="m 255,270.7 1.1,3.9 v 4.8 l -1.1,-6.6 z m -7.9,0 -1.1,3.9 v 4.8 l 1.1,-6.6 z"
           id="path340"
           inkscape:connector-curvature="0"
           style="fill:#7a7874" />
      </g>
      <g
         id="g350">
        <path
           d="m 265.7,272.8 h -7.9 l -1.1,6.6 h 10.1 z"
           id="path344"
           inkscape:connector-curvature="0"
           style="fill:#241f16" />
        <path
           d="m 265.4,270.3 h -7.3 c -0.2,0 -0.3,0.1 -0.3,0.3 v 2.2 h 7.9 v -2.2 c 0,-0.1 -0.1,-0.3 -0.3,-0.3 z"
           id="path346"
           inkscape:connector-curvature="0"
           style="fill:#282219" />
        <path
           d="m 265.7,270.7 1.1,3.9 v 4.8 l -1.1,-6.6 z m -7.9,0 -1.1,3.9 v 4.8 l 1.1,-6.6 z"
           id="path348"
           inkscape:connector-curvature="0"
           style="fill:#38312a" />
      </g>
      <g
         id="g358">
        <path
           d="m 234,278.6 h -7.9 l -1.1,6.6 h 10.1 z"
           id="path352"
           inkscape:connector-curvature="0"
           style="fill:#706f6d" />
        <path
           d="m 233.7,276.1 h -7.3 c -0.2,0 -0.3,0.1 -0.3,0.3 v 2.2 h 7.9 v -2.2 c 0,-0.1 -0.1,-0.3 -0.3,-0.3 z"
           id="path354"
           inkscape:connector-curvature="0"
           style="fill:#9e9c9a" />
        <path
           d="m 234,276.4 1.1,4 v 4.8 l -1.1,-6.6 z m -7.9,0 -1.1,4 v 4.8 l 1.1,-6.6 z"
           id="path356"
           inkscape:connector-curvature="0"
           style="fill:#7a7874" />
      </g>
      <g
         id="g366">
        <path
           d="m 244.7,278.6 h -7.9 l -1.1,6.6 h 10.1 z"
           id="path360"
           inkscape:connector-curvature="0"
           style="fill:#706f6d" />
        <path
           d="m 244.4,276.1 h -7.3 c -0.2,0 -0.3,0.1 -0.3,0.3 v 2.2 h 7.9 v -2.2 c 0,-0.1 -0.1,-0.3 -0.3,-0.3 z"
           id="path362"
           inkscape:connector-curvature="0"
           style="fill:#9e9c9a" />
        <path
           d="m 244.7,276.4 1.1,4 v 4.8 l -1.1,-6.6 z m -7.9,0 -1.1,4 v 4.8 l 1.1,-6.6 z"
           id="path364"
           inkscape:connector-curvature="0"
           style="fill:#7a7874" />
      </g>
      <g
         id="g374">
        <path
           d="m 255.6,278.4 h -7.9 l -1.2,6.5 h 10.2 z"
           id="path368"
           inkscape:connector-curvature="0"
           style="fill:#706f6d" />
        <path
           d="M 255.3,275.9 H 248 c -0.2,0 -0.3,0.1 -0.3,0.3 v 2.2 h 7.9 v -2.2 c 0,-0.2 -0.2,-0.3 -0.3,-0.3 z"
           id="path370"
           inkscape:connector-curvature="0"
           style="fill:#9e9c9a" />
        <path
           d="m 255.6,276.2 1.1,3.9 v 4.8 l -1.1,-6.5 z m -7.9,0 -1.2,3.9 v 4.8 l 1.2,-6.5 z"
           id="path372"
           inkscape:connector-curvature="0"
           style="fill:#7a7874" />
      </g>
      <g
         id="g382">
        <path
           d="m 266.3,278.4 h -8 l -1.1,6.5 h 10.2 z"
           id="path376"
           inkscape:connector-curvature="0"
           style="fill:#241f16" />
        <path
           d="m 266,275.9 h -7.3 c -0.2,0 -0.3,0.1 -0.3,0.3 v 2.2 h 7.9 v -2.2 c 0,-0.2 -0.2,-0.3 -0.3,-0.3 z"
           id="path378"
           inkscape:connector-curvature="0"
           style="fill:#282219" />
        <path
           d="m 266.3,276.2 1.1,3.9 v 4.8 l -1.1,-6.5 z m -7.9,0 -1.2,3.9 v 4.8 l 1.2,-6.5 z"
           id="path380"
           inkscape:connector-curvature="0"
           style="fill:#38312a" />
      </g>
    </g>
    <g
       id="g392">
      <path
         d="m 32.4,255.7 h -9 l -1.3,5.7 h 11.6 z"
         id="path386"
         inkscape:connector-curvature="0"
         style="fill:#241f16" />
      <path
         d="m 32.1,253.6 h -8.4 c -0.2,0 -0.3,0.1 -0.3,0.3 v 1.9 h 9 v -1.9 c 0,-0.2 -0.1,-0.3 -0.3,-0.3 z"
         id="path388"
         inkscape:connector-curvature="0"
         style="fill:#282219" />
      <path
         d="m 32.4,253.9 1.3,3.4 v 4.1 l -1.3,-5.7 z m -9,0 -1.3,3.4 v 4.1 l 1.3,-5.7 z"
         id="path390"
         inkscape:connector-curvature="0"
         style="fill:#38312a" />
    </g>
    <g
       id="g400">
      <path
         d="m 43.5,255.7 h -7.8 l -1.1,5.7 h 10 z"
         id="path394"
         inkscape:connector-curvature="0"
         style="fill:#706f6d" />
      <path
         d="M 43.2,253.6 H 36 c -0.1,0 -0.3,0.1 -0.3,0.3 v 1.9 h 7.8 v -1.9 c 0,-0.2 -0.1,-0.3 -0.3,-0.3 z"
         id="path396"
         inkscape:connector-curvature="0"
         style="fill:#9e9c9a" />
      <path
         d="m 43.5,253.9 1.1,3.4 v 4.1 l -1.1,-5.7 z m -7.8,0 -1.1,3.4 v 4.1 l 1.1,-5.7 z"
         id="path398"
         inkscape:connector-curvature="0"
         style="fill:#7a7874" />
    </g>
    <g
       id="g408">
      <path
         d="m 54.3,255.7 h -7.8 l -1.1,5.7 h 10 z"
         id="path402"
         inkscape:connector-curvature="0"
         style="fill:#706f6d" />
      <path
         d="m 54,253.6 h -7.2 c -0.1,0 -0.3,0.1 -0.3,0.3 v 1.9 h 7.8 v -1.9 c 0,-0.2 -0.1,-0.3 -0.3,-0.3 z"
         id="path404"
         inkscape:connector-curvature="0"
         style="fill:#9e9c9a" />
      <path
         d="m 54.3,253.9 1.1,3.4 v 4.1 l -1.1,-5.7 z m -7.8,0 -1.1,3.4 v 4.1 l 1.1,-5.7 z"
         id="path406"
         inkscape:connector-curvature="0"
         style="fill:#7a7874" />
    </g>
    <g
       id="g416">
      <path
         d="m 65.1,255.7 h -7.8 l -1.1,5.7 h 10 z"
         id="path410"
         inkscape:connector-curvature="0"
         style="fill:#706f6d" />
      <path
         d="m 64.8,253.6 h -7.2 c -0.1,0 -0.3,0.1 -0.3,0.3 v 1.9 h 7.8 v -1.9 c 0,-0.2 -0.1,-0.3 -0.3,-0.3 z"
         id="path412"
         inkscape:connector-curvature="0"
         style="fill:#9e9c9a" />
      <path
         d="m 65.1,253.9 1.1,3.4 v 4.1 l -1.1,-5.7 z m -7.8,0 -1.1,3.4 v 4.1 l 1.1,-5.7 z"
         id="path414"
         inkscape:connector-curvature="0"
         style="fill:#7a7874" />
    </g>
    <g
       id="g424">
      <path
         d="M 75.9,255.7 H 68.1 L 67,261.4 H 77 Z"
         id="path418"
         inkscape:connector-curvature="0"
         style="fill:#706f6d" />
      <path
         d="m 75.6,253.6 h -7.2 c -0.1,0 -0.3,0.1 -0.3,0.3 v 1.9 h 7.8 v -1.9 c 0,-0.2 -0.1,-0.3 -0.3,-0.3 z"
         id="path420"
         inkscape:connector-curvature="0"
         style="fill:#9e9c9a" />
      <path
         d="m 75.9,253.9 1.1,3.4 v 4.1 l -1.1,-5.7 z m -7.8,0 -1.1,3.4 v 4.1 l 1.1,-5.7 z"
         id="path422"
         inkscape:connector-curvature="0"
         style="fill:#7a7874" />
    </g>
    <g
       id="g432">
      <path
         d="m 86.7,255.9 h -7.8 l -1.1,5.6 h 10 z"
         id="path426"
         inkscape:connector-curvature="0"
         style="fill:#706f6d" />
      <path
         d="m 86.5,253.7 h -7.2 c -0.1,0 -0.3,0.1 -0.3,0.3 v 1.9 h 7.8 V 254 c -0.1,-0.1 -0.2,-0.3 -0.3,-0.3 z"
         id="path428"
         inkscape:connector-curvature="0"
         style="fill:#9e9c9a" />
      <path
         d="m 86.7,254 1.1,3.4 v 4.1 l -1.1,-5.6 z m -7.8,0 -1.1,3.4 v 4.1 l 1.1,-5.6 z"
         id="path430"
         inkscape:connector-curvature="0"
         style="fill:#7a7874" />
    </g>
    <g
       id="g440">
      <path
         d="m 97.5,255.9 h -7.8 l -1,5.6 h 9.9 z"
         id="path434"
         inkscape:connector-curvature="0"
         style="fill:#706f6d" />
      <path
         d="M 97.3,253.7 H 90 c -0.1,0 -0.3,0.1 -0.3,0.3 v 1.9 h 7.8 V 254 c 0,-0.1 -0.1,-0.3 -0.2,-0.3 z"
         id="path436"
         inkscape:connector-curvature="0"
         style="fill:#9e9c9a" />
      <path
         d="m 97.5,254 1.1,3.4 v 4.1 l -1.1,-5.6 z m -7.7,0 -1.1,3.4 v 4.1 l 1.1,-5.6 z"
         id="path438"
         inkscape:connector-curvature="0"
         style="fill:#7a7874" />
    </g>
    <g
       id="g448">
      <path
         d="m 108.3,255.9 h -7.7 l -1.1,5.6 h 9.9 z"
         id="path442"
         inkscape:connector-curvature="0"
         style="fill:#706f6d" />
      <path
         d="m 108.1,253.7 h -7.2 c -0.1,0 -0.3,0.1 -0.3,0.3 v 1.9 h 7.8 V 254 c -0.1,-0.1 -0.2,-0.3 -0.3,-0.3 z"
         id="path444"
         inkscape:connector-curvature="0"
         style="fill:#9e9c9a" />
      <path
         d="m 108.3,254 1.1,3.4 v 4.1 l -1.1,-5.6 z m -7.7,0 -1.1,3.4 v 4.1 l 1.1,-5.6 z"
         id="path446"
         inkscape:connector-curvature="0"
         style="fill:#7a7874" />
    </g>
    <g
       id="g456">
      <path
         d="m 119.1,255.9 h -7.7 l -1.1,5.6 h 9.9 z"
         id="path450"
         inkscape:connector-curvature="0"
         style="fill:#706f6d" />
      <path
         d="m 118.9,253.7 h -7.2 c -0.1,0 -0.3,0.1 -0.3,0.3 v 1.9 h 7.8 V 254 c -0.1,-0.1 -0.2,-0.3 -0.3,-0.3 z"
         id="path452"
         inkscape:connector-curvature="0"
         style="fill:#9e9c9a" />
      <path
         d="m 119.1,254 1.1,3.4 v 4.1 l -1.1,-5.6 z m -7.7,0 -1.1,3.4 v 4.1 l 1.1,-5.6 z"
         id="path454"
         inkscape:connector-curvature="0"
         style="fill:#7a7874" />
    </g>
    <g
       id="g464">
      <path
         d="m 129.9,255.9 h -7.7 l -1.1,5.6 h 9.9 z"
         id="path458"
         inkscape:connector-curvature="0"
         style="fill:#706f6d" />
      <path
         d="m 129.7,253.7 h -7.2 c -0.1,0 -0.3,0.1 -0.3,0.3 v 1.9 H 130 V 254 c -0.1,-0.1 -0.2,-0.3 -0.3,-0.3 z"
         id="path460"
         inkscape:connector-curvature="0"
         style="fill:#9e9c9a" />
      <path
         d="m 129.9,254 1.1,3.4 v 4.1 l -1.1,-5.6 z m -7.7,0 -1.1,3.4 v 4.1 l 1.1,-5.6 z"
         id="path462"
         inkscape:connector-curvature="0"
         style="fill:#7a7874" />
    </g>
    <g
       id="g472">
      <path
         d="M 140.7,255.9 H 133 l -1.1,5.6 h 9.9 z"
         id="path466"
         inkscape:connector-curvature="0"
         style="fill:#706f6d" />
      <path
         d="m 140.5,253.7 h -7.2 c -0.1,0 -0.3,0.1 -0.3,0.3 v 1.9 h 7.8 V 254 c -0.1,-0.1 -0.2,-0.3 -0.3,-0.3 z"
         id="path468"
         inkscape:connector-curvature="0"
         style="fill:#9e9c9a" />
      <path
         d="m 140.7,254 1.1,3.4 v 4.1 l -1.1,-5.6 z m -7.7,0 -1.1,3.4 v 4.1 l 1.1,-5.6 z"
         id="path470"
         inkscape:connector-curvature="0"
         style="fill:#7a7874" />
    </g>
    <g
       id="g480">
      <path
         d="m 151.5,255.9 h -7.7 l -1.1,5.6 h 9.9 z"
         id="path474"
         inkscape:connector-curvature="0"
         style="fill:#706f6d" />
      <path
         d="M 151.3,253.7 H 144 c -0.1,0 -0.3,0.1 -0.3,0.3 v 1.9 h 7.8 V 254 c 0,-0.1 -0.1,-0.3 -0.2,-0.3 z"
         id="path476"
         inkscape:connector-curvature="0"
         style="fill:#9e9c9a" />
      <path
         d="m 151.5,254 1.1,3.4 v 4.1 l -1.1,-5.6 z m -7.7,0 -1.1,3.4 v 4.1 l 1.1,-5.6 z"
         id="path478"
         inkscape:connector-curvature="0"
         style="fill:#7a7874" />
    </g>
    <g
       id="g488">
      <path
         d="m 162.4,255.9 h -7.8 l -1.1,5.6 h 10 z"
         id="path482"
         inkscape:connector-curvature="0"
         style="fill:#706f6d" />
      <path
         d="m 162.1,253.7 h -7.2 c -0.1,0 -0.3,0.1 -0.3,0.3 v 1.9 h 7.8 V 254 c 0,-0.1 -0.2,-0.3 -0.3,-0.3 z"
         id="path484"
         inkscape:connector-curvature="0"
         style="fill:#9e9c9a" />
      <path
         d="m 162.4,254 1.1,3.4 v 4.1 l -1.1,-5.6 z m -7.8,0 -1.1,3.4 v 4.1 l 1.1,-5.6 z"
         id="path486"
         inkscape:connector-curvature="0"
         style="fill:#7a7874" />
    </g>
    <g
       id="g496">
      <path
         d="m 173.2,255.9 h -7.8 l -1.1,5.6 h 10 z"
         id="path490"
         inkscape:connector-curvature="0"
         style="fill:#706f6d" />
      <path
         d="m 172.9,253.7 h -7.2 c -0.1,0 -0.3,0.1 -0.3,0.3 v 1.9 h 7.8 V 254 c 0,-0.1 -0.2,-0.3 -0.3,-0.3 z"
         id="path492"
         inkscape:connector-curvature="0"
         style="fill:#9e9c9a" />
      <path
         d="m 173.2,254 1.1,3.4 v 4.1 l -1.1,-5.6 z m -7.8,0 -1.1,3.4 v 4.1 l 1.1,-5.6 z"
         id="path494"
         inkscape:connector-curvature="0"
         style="fill:#7a7874" />
    </g>
    <g
       id="g504">
      <path
         d="m 186.6,255.9 h -10.1 l -1.4,5.6 h 13 z"
         id="path498"
         inkscape:connector-curvature="0"
         style="fill:#241f16" />
      <path
         d="m 186.3,253.7 h -9.5 c -0.2,0 -0.3,0.1 -0.3,0.3 v 1.8 h 10.1 V 254 c 0,-0.1 -0.1,-0.3 -0.3,-0.3 z"
         id="path500"
         inkscape:connector-curvature="0"
         style="fill:#282219" />
      <path
         d="m 186.6,254 1.5,3.4 v 4.1 l -1.5,-5.6 z m -10.1,0 -1.4,3.4 v 4.1 l 1.4,-5.6 z"
         id="path502"
         inkscape:connector-curvature="0"
         style="fill:#38312a" />
    </g>
    <g
       id="g512">
      <path
         d="M 48.8,260.8 H 41 l -1.1,5.7 h 10 z"
         id="path506"
         inkscape:connector-curvature="0"
         style="fill:#706f6d" />
      <path
         d="m 48.5,258.7 h -7.2 c -0.1,0 -0.3,0.1 -0.3,0.3 v 1.9 h 7.8 V 259 c 0,-0.2 -0.2,-0.3 -0.3,-0.3 z"
         id="path508"
         inkscape:connector-curvature="0"
         style="fill:#9e9c9a" />
      <path
         d="m 48.8,259 1.1,3.3 v 4.2 l -1.1,-5.7 z m -7.8,0 -1.1,3.3 v 4.2 l 1.1,-5.7 z"
         id="path510"
         inkscape:connector-curvature="0"
         style="fill:#7a7874" />
    </g>
    <g
       id="g520">
      <path
         d="m 59.6,260.8 h -7.8 l -1.1,5.7 h 10 z"
         id="path514"
         inkscape:connector-curvature="0"
         style="fill:#706f6d" />
      <path
         d="m 59.3,258.7 h -7.2 c -0.1,0 -0.3,0.1 -0.3,0.3 v 1.9 h 7.8 V 259 c 0,-0.2 -0.2,-0.3 -0.3,-0.3 z"
         id="path516"
         inkscape:connector-curvature="0"
         style="fill:#9e9c9a" />
      <path
         d="m 59.6,259 1.1,3.3 v 4.2 l -1.1,-5.7 z m -7.8,0 -1.1,3.3 v 4.2 l 1.1,-5.7 z"
         id="path518"
         inkscape:connector-curvature="0"
         style="fill:#7a7874" />
    </g>
    <g
       id="g528">
      <path
         d="m 70.4,260.8 h -7.8 l -1.1,5.7 h 10 z"
         id="path522"
         inkscape:connector-curvature="0"
         style="fill:#706f6d" />
      <path
         d="m 70.1,258.7 h -7.2 c -0.1,0 -0.3,0.1 -0.3,0.3 v 1.9 h 7.8 V 259 c 0,-0.2 -0.2,-0.3 -0.3,-0.3 z"
         id="path524"
         inkscape:connector-curvature="0"
         style="fill:#9e9c9a" />
      <path
         d="m 70.4,259 1.1,3.3 v 4.2 l -1.1,-5.7 z m -7.8,0 -1.1,3.3 v 4.2 l 1.1,-5.7 z"
         id="path526"
         inkscape:connector-curvature="0"
         style="fill:#7a7874" />
    </g>
    <g
       id="g536">
      <path
         d="m 81.2,260.8 h -7.8 l -1.1,5.7 h 10 z"
         id="path530"
         inkscape:connector-curvature="0"
         style="fill:#706f6d" />
      <path
         d="m 80.9,258.7 h -7.2 c -0.1,0 -0.3,0.1 -0.3,0.3 v 1.9 h 7.8 V 259 c 0,-0.2 -0.1,-0.3 -0.3,-0.3 z"
         id="path532"
         inkscape:connector-curvature="0"
         style="fill:#9e9c9a" />
      <path
         d="m 81.2,259 1.1,3.3 v 4.2 l -1.1,-5.7 z m -7.8,0 -1.1,3.3 v 4.2 l 1.1,-5.7 z"
         id="path534"
         inkscape:connector-curvature="0"
         style="fill:#7a7874" />
    </g>
    <g
       id="g544">
      <path
         d="m 92,261 h -7.8 l -1.1,5.6 h 10 z"
         id="path538"
         inkscape:connector-curvature="0"
         style="fill:#706f6d" />
      <path
         d="m 91.7,258.8 h -7.2 c -0.1,0 -0.3,0.1 -0.3,0.3 V 261 H 92 v -1.9 c 0,-0.2 -0.1,-0.3 -0.3,-0.3 z"
         id="path540"
         inkscape:connector-curvature="0"
         style="fill:#9e9c9a" />
      <path
         d="m 92,259.1 1.1,3.4 v 4.1 L 92,261 Z m -7.8,0 -1.1,3.4 v 4.1 l 1.1,-5.6 z"
         id="path542"
         inkscape:connector-curvature="0"
         style="fill:#7a7874" />
    </g>
    <g
       id="g552">
      <path
         d="M 102.8,261 H 95 l -1.1,5.6 h 10 z"
         id="path546"
         inkscape:connector-curvature="0"
         style="fill:#706f6d" />
      <path
         d="m 102.5,258.8 h -7.2 c -0.1,0 -0.3,0.1 -0.3,0.3 v 1.9 h 7.8 v -1.9 c 0,-0.2 -0.1,-0.3 -0.3,-0.3 z"
         id="path548"
         inkscape:connector-curvature="0"
         style="fill:#9e9c9a" />
      <path
         d="m 102.8,259.1 1.1,3.4 v 4.1 l -1.1,-5.6 z m -7.8,0 -1.1,3.4 v 4.1 L 95,261 Z"
         id="path550"
         inkscape:connector-curvature="0"
         style="fill:#7a7874" />
    </g>
    <g
       id="g560">
      <path
         d="m 113.6,261 h -7.8 l -1.1,5.6 h 10 z"
         id="path554"
         inkscape:connector-curvature="0"
         style="fill:#706f6d" />
      <path
         d="m 113.3,258.8 h -7.2 c -0.1,0 -0.3,0.1 -0.3,0.3 v 1.9 h 7.8 v -1.9 c 0,-0.2 -0.1,-0.3 -0.3,-0.3 z"
         id="path556"
         inkscape:connector-curvature="0"
         style="fill:#9e9c9a" />
      <path
         d="m 113.6,259.1 1.1,3.4 v 4.1 l -1.1,-5.6 z m -7.8,0 -1.1,3.4 v 4.1 l 1.1,-5.6 z"
         id="path558"
         inkscape:connector-curvature="0"
         style="fill:#7a7874" />
    </g>
    <g
       id="g568">
      <path
         d="m 124.4,261 h -7.8 l -1.1,5.6 h 10 z"
         id="path562"
         inkscape:connector-curvature="0"
         style="fill:#706f6d" />
      <path
         d="m 124.1,258.8 h -7.2 c -0.1,0 -0.3,0.1 -0.3,0.3 v 1.9 h 7.8 v -1.9 c 0,-0.2 -0.1,-0.3 -0.3,-0.3 z"
         id="path564"
         inkscape:connector-curvature="0"
         style="fill:#9e9c9a" />
      <path
         d="m 124.4,259.1 1.1,3.4 v 4.1 l -1.1,-5.6 z m -7.8,0 -1.1,3.4 v 4.1 l 1.1,-5.6 z"
         id="path566"
         inkscape:connector-curvature="0"
         style="fill:#7a7874" />
    </g>
    <g
       id="g576">
      <path
         d="m 135.2,261 h -7.8 l -1.1,5.6 h 10 z"
         id="path570"
         inkscape:connector-curvature="0"
         style="fill:#706f6d" />
      <path
         d="m 134.9,258.8 h -7.2 c -0.1,0 -0.3,0.1 -0.3,0.3 v 1.9 h 7.8 v -1.9 c 0,-0.2 -0.1,-0.3 -0.3,-0.3 z"
         id="path572"
         inkscape:connector-curvature="0"
         style="fill:#9e9c9a" />
      <path
         d="m 135.2,259.1 1.1,3.4 v 4.1 l -1.1,-5.6 z m -7.8,0 -1.1,3.4 v 4.1 l 1.1,-5.6 z"
         id="path574"
         inkscape:connector-curvature="0"
         style="fill:#7a7874" />
    </g>
    <g
       id="g584">
      <path
         d="m 146,261 h -7.8 l -1.1,5.6 h 10 z"
         id="path578"
         inkscape:connector-curvature="0"
         style="fill:#706f6d" />
      <path
         d="m 145.7,258.8 h -7.2 c -0.1,0 -0.3,0.1 -0.3,0.3 v 1.9 h 7.8 v -1.9 c 0,-0.2 -0.1,-0.3 -0.3,-0.3 z"
         id="path580"
         inkscape:connector-curvature="0"
         style="fill:#9e9c9a" />
      <path
         d="m 146,259.1 1.1,3.4 v 4.1 L 146,261 Z m -7.8,0 -1.1,3.4 v 4.1 l 1.1,-5.6 z"
         id="path582"
         inkscape:connector-curvature="0"
         style="fill:#7a7874" />
    </g>
    <g
       id="g592">
      <path
         d="M 156.8,261 H 149 l -1.1,5.6 h 10 z"
         id="path586"
         inkscape:connector-curvature="0"
         style="fill:#706f6d" />
      <path
         d="m 156.5,258.8 h -7.2 c -0.1,0 -0.3,0.1 -0.3,0.3 v 1.9 h 7.8 v -1.9 c 0,-0.2 -0.1,-0.3 -0.3,-0.3 z"
         id="path588"
         inkscape:connector-curvature="0"
         style="fill:#9e9c9a" />
      <path
         d="m 156.8,259.1 1.1,3.4 v 4.1 l -1.1,-5.6 z m -7.8,0 -1.1,3.4 v 4.1 L 149,261 Z"
         id="path590"
         inkscape:connector-curvature="0"
         style="fill:#7a7874" />
    </g>
    <g
       id="g600">
      <path
         d="m 167.6,261 h -7.8 l -1.1,5.6 h 10 z"
         id="path594"
         inkscape:connector-curvature="0"
         style="fill:#706f6d" />
      <path
         d="m 167.4,258.8 h -7.2 c -0.1,0 -0.3,0.1 -0.3,0.3 v 1.9 h 7.8 v -1.9 c -0.1,-0.2 -0.2,-0.3 -0.3,-0.3 z"
         id="path596"
         inkscape:connector-curvature="0"
         style="fill:#9e9c9a" />
      <path
         d="m 167.6,259.1 1.1,3.4 v 4.1 l -1.1,-5.6 z m -7.8,0 -1.1,3.4 v 4.1 l 1.1,-5.6 z"
         id="path598"
         inkscape:connector-curvature="0"
         style="fill:#7a7874" />
    </g>
    <g
       id="g608">
      <path
         d="M 51.5,267.4 H 43.6 L 42.5,273 H 52.6 Z"
         id="path602"
         inkscape:connector-curvature="0"
         style="fill:#706f6d" />
      <path
         d="m 51.2,265.3 h -7.4 c -0.1,0 -0.3,0.1 -0.3,0.3 v 1.9 h 7.9 v -1.9 c 0.1,-0.2 0,-0.3 -0.2,-0.3 z"
         id="path604"
         inkscape:connector-curvature="0"
         style="fill:#9e9c9a" />
      <path
         d="m 51.5,265.5 1.1,3.4 v 4.1 l -1.1,-5.6 z m -7.9,0 -1.1,3.4 v 4.1 l 1.1,-5.6 z"
         id="path606"
         inkscape:connector-curvature="0"
         style="fill:#7a7874" />
    </g>
    <g
       id="g616">
      <path
         d="M 62.5,267.4 H 54.6 L 53.5,273 H 63.7 Z"
         id="path610"
         inkscape:connector-curvature="0"
         style="fill:#706f6d" />
      <path
         d="m 62.3,265.3 h -7.4 c -0.1,0 -0.3,0.1 -0.3,0.3 v 1.9 h 7.9 v -1.9 c 0,-0.2 -0.1,-0.3 -0.2,-0.3 z"
         id="path612"
         inkscape:connector-curvature="0"
         style="fill:#9e9c9a" />
      <path
         d="m 62.5,265.5 1.2,3.4 v 4.1 l -1.2,-5.6 z m -7.9,0 -1.1,3.4 v 4.1 l 1.1,-5.6 z"
         id="path614"
         inkscape:connector-curvature="0"
         style="fill:#7a7874" />
    </g>
    <g
       id="g624">
      <path
         d="m 73.6,267.4 h -8 l -1.1,5.6 h 10.2 z"
         id="path618"
         inkscape:connector-curvature="0"
         style="fill:#706f6d" />
      <path
         d="m 73.3,265.3 h -7.4 c -0.1,0 -0.3,0.1 -0.3,0.3 v 1.9 h 7.9 v -1.9 c 0.1,-0.2 0,-0.3 -0.2,-0.3 z"
         id="path620"
         inkscape:connector-curvature="0"
         style="fill:#9e9c9a" />
      <path
         d="m 73.6,265.5 1.1,3.4 v 4.1 l -1.1,-5.6 z m -8,0 -1.1,3.4 v 4.1 l 1.1,-5.6 z"
         id="path622"
         inkscape:connector-curvature="0"
         style="fill:#7a7874" />
    </g>
    <g
       id="g632">
      <path
         d="M 84.6,267.4 H 76.7 L 75.6,273 H 85.7 Z"
         id="path626"
         inkscape:connector-curvature="0"
         style="fill:#706f6d" />
      <path
         d="m 84.3,265.3 h -7.4 c -0.1,0 -0.3,0.1 -0.3,0.3 v 1.9 h 7.9 v -1.9 c 0.1,-0.2 0,-0.3 -0.2,-0.3 z"
         id="path628"
         inkscape:connector-curvature="0"
         style="fill:#9e9c9a" />
      <path
         d="m 84.6,265.5 1.1,3.4 v 4.1 l -1.1,-5.6 z m -7.9,0 -1.1,3.4 v 4.1 l 1.1,-5.6 z"
         id="path630"
         inkscape:connector-curvature="0"
         style="fill:#7a7874" />
    </g>
    <g
       id="g640">
      <path
         d="m 95.6,267.5 h -7.9 l -1.1,5.7 h 10.2 z"
         id="path634"
         inkscape:connector-curvature="0"
         style="fill:#706f6d" />
      <path
         d="M 95.4,265.4 H 88 c -0.1,0 -0.3,0.1 -0.3,0.3 v 1.9 h 7.9 v -1.9 c 0,-0.2 -0.1,-0.3 -0.2,-0.3 z"
         id="path636"
         inkscape:connector-curvature="0"
         style="fill:#9e9c9a" />
      <path
         d="m 95.6,265.7 1.2,3.4 v 4.1 l -1.2,-5.7 z m -7.9,0 -1.1,3.4 v 4.1 l 1.1,-5.7 z"
         id="path638"
         inkscape:connector-curvature="0"
         style="fill:#7a7874" />
    </g>
    <g
       id="g648">
      <path
         d="m 106.7,267.5 h -8 l -1.1,5.7 h 10.2 z"
         id="path642"
         inkscape:connector-curvature="0"
         style="fill:#706f6d" />
      <path
         d="M 106.4,265.4 H 99 c -0.1,0 -0.3,0.1 -0.3,0.3 v 1.9 h 7.9 v -1.9 c 0.1,-0.2 0,-0.3 -0.2,-0.3 z"
         id="path644"
         inkscape:connector-curvature="0"
         style="fill:#9e9c9a" />
      <path
         d="m 106.7,265.7 1.1,3.4 v 4.1 l -1.1,-5.7 z m -8,0 -1.1,3.4 v 4.1 l 1.1,-5.7 z"
         id="path646"
         inkscape:connector-curvature="0"
         style="fill:#7a7874" />
    </g>
    <g
       id="g656">
      <path
         d="m 117.7,267.5 h -7.9 l -1.1,5.7 h 10.1 z"
         id="path650"
         inkscape:connector-curvature="0"
         style="fill:#706f6d" />
      <path
         d="M 117.5,265.4 H 110 c -0.1,0 -0.3,0.1 -0.3,0.3 v 1.9 h 7.9 v -1.9 c 0.1,-0.2 0,-0.3 -0.1,-0.3 z"
         id="path652"
         inkscape:connector-curvature="0"
         style="fill:#9e9c9a" />
      <path
         d="m 117.7,265.7 1.1,3.4 v 4.1 l -1.1,-5.7 z m -7.9,0 -1.1,3.4 v 4.1 l 1.1,-5.7 z"
         id="path654"
         inkscape:connector-curvature="0"
         style="fill:#7a7874" />
    </g>
    <g
       id="g664">
      <path
         d="m 128.8,267.5 h -8 l -1.1,5.7 h 10.2 z"
         id="path658"
         inkscape:connector-curvature="0"
         style="fill:#706f6d" />
      <path
         d="m 128.5,265.4 h -7.4 c -0.1,0 -0.3,0.1 -0.3,0.3 v 1.9 h 7.9 v -1.9 c 0.1,-0.2 -0.1,-0.3 -0.2,-0.3 z"
         id="path660"
         inkscape:connector-curvature="0"
         style="fill:#9e9c9a" />
      <path
         d="m 128.8,265.7 1.1,3.4 v 4.1 l -1.1,-5.7 z m -8,0 -1.1,3.4 v 4.1 l 1.1,-5.7 z"
         id="path662"
         inkscape:connector-curvature="0"
         style="fill:#7a7874" />
    </g>
    <g
       id="g672">
      <path
         d="m 139.8,267.5 h -8 l -1.1,5.7 h 10.2 z"
         id="path666"
         inkscape:connector-curvature="0"
         style="fill:#706f6d" />
      <path
         d="m 139.5,265.4 h -7.4 c -0.1,0 -0.3,0.1 -0.3,0.3 v 1.9 h 7.9 v -1.9 c 0.1,-0.2 0,-0.3 -0.2,-0.3 z"
         id="path668"
         inkscape:connector-curvature="0"
         style="fill:#9e9c9a" />
      <path
         d="m 139.8,265.7 1.1,3.4 v 4.1 l -1.1,-5.7 z m -7.9,0 -1.2,3.4 v 4.1 l 1.2,-5.7 z"
         id="path670"
         inkscape:connector-curvature="0"
         style="fill:#7a7874" />
    </g>
    <g
       id="g680">
      <path
         d="m 150.8,267.5 h -7.9 l -1.1,5.7 h 10.1 z"
         id="path674"
         inkscape:connector-curvature="0"
         style="fill:#706f6d" />
      <path
         d="m 150.6,265.4 h -7.4 c -0.1,0 -0.3,0.1 -0.3,0.3 v 1.9 h 7.9 v -1.9 c 0,-0.2 -0.1,-0.3 -0.2,-0.3 z"
         id="path676"
         inkscape:connector-curvature="0"
         style="fill:#9e9c9a" />
      <path
         d="m 150.8,265.7 1.1,3.4 v 4.1 l -1.1,-5.7 z m -7.9,0 -1.1,3.4 v 4.1 l 1.1,-5.7 z"
         id="path678"
         inkscape:connector-curvature="0"
         style="fill:#7a7874" />
    </g>
    <g
       id="g688">
      <path
         d="m 161.8,267.5 h -7.9 l -1.1,5.7 H 163 Z"
         id="path682"
         inkscape:connector-curvature="0"
         style="fill:#706f6d" />
      <path
         d="m 161.6,265.4 h -7.4 c -0.1,0 -0.3,0.1 -0.3,0.3 v 1.9 h 7.9 v -1.9 c 0,-0.2 -0.1,-0.3 -0.2,-0.3 z"
         id="path684"
         inkscape:connector-curvature="0"
         style="fill:#9e9c9a" />
      <path
         d="m 161.8,265.7 1.2,3.4 v 4.1 l -1.2,-5.7 z m -7.9,0 -1.1,3.4 v 4.1 l 1.1,-5.7 z"
         id="path686"
         inkscape:connector-curvature="0"
         style="fill:#7a7874" />
    </g>
    <g
       id="g696">
      <path
         d="m 53.8,272.9 h -8.1 l -1.1,5.6 H 55 Z"
         id="path690"
         inkscape:connector-curvature="0"
         style="fill:#706f6d" />
      <path
         d="M 53.6,270.8 H 46 c -0.1,0 -0.3,0.1 -0.3,0.3 v 1.9 h 8.1 v -2 c 0,-0.1 -0.1,-0.2 -0.2,-0.2 z"
         id="path692"
         inkscape:connector-curvature="0"
         style="fill:#9e9c9a" />
      <path
         d="m 53.8,271 1.2,3.4 v 4.1 l -1.2,-5.6 z m -8.1,0 -1.1,3.4 v 4.1 l 1.1,-5.6 z"
         id="path694"
         inkscape:connector-curvature="0"
         style="fill:#7a7874" />
    </g>
    <g
       id="g704">
      <path
         d="M 65.1,272.9 H 57 l -1.2,5.6 h 10.4 z"
         id="path698"
         inkscape:connector-curvature="0"
         style="fill:#706f6d" />
      <path
         d="m 64.8,270.8 h -7.6 c -0.1,0 -0.3,0.1 -0.3,0.3 V 273 H 65 v -2 c 0.1,-0.1 0,-0.2 -0.2,-0.2 z"
         id="path700"
         inkscape:connector-curvature="0"
         style="fill:#9e9c9a" />
      <path
         d="m 65.1,271 1.1,3.4 v 4.1 l -1.1,-5.6 z m -8.1,0 -1.2,3.4 v 4.1 l 1.2,-5.6 z"
         id="path702"
         inkscape:connector-curvature="0"
         style="fill:#7a7874" />
    </g>
    <g
       id="g712">
      <path
         d="m 76.3,272.9 h -8.1 l -1.1,5.6 h 10.4 z"
         id="path706"
         inkscape:connector-curvature="0"
         style="fill:#706f6d" />
      <path
         d="m 76.1,270.8 h -7.6 c -0.1,0 -0.3,0.1 -0.3,0.3 v 1.9 h 8.1 v -2 c 0,-0.1 -0.1,-0.2 -0.2,-0.2 z"
         id="path708"
         inkscape:connector-curvature="0"
         style="fill:#9e9c9a" />
      <path
         d="m 76.3,271 1.2,3.4 v 4.1 l -1.2,-5.6 z m -8.1,0 -1.1,3.4 v 4.1 l 1.1,-5.6 z"
         id="path710"
         inkscape:connector-curvature="0"
         style="fill:#7a7874" />
    </g>
    <g
       id="g720">
      <path
         d="m 87.6,272.9 h -8.1 l -1.2,5.6 h 10.4 z"
         id="path714"
         inkscape:connector-curvature="0"
         style="fill:#706f6d" />
      <path
         d="m 87.3,270.8 h -7.6 c -0.1,0 -0.3,0.1 -0.3,0.3 v 1.9 h 8.1 v -2 c 0.1,-0.1 -0.1,-0.2 -0.2,-0.2 z"
         id="path716"
         inkscape:connector-curvature="0"
         style="fill:#9e9c9a" />
      <path
         d="m 87.6,271 1.1,3.4 v 4.1 l -1.1,-5.6 z m -8.1,0 -1.2,3.4 v 4.1 l 1.2,-5.6 z"
         id="path718"
         inkscape:connector-curvature="0"
         style="fill:#7a7874" />
    </g>
    <g
       id="g728">
      <path
         d="m 98.8,273 h -8.1 l -1.1,5.7 H 100 Z"
         id="path722"
         inkscape:connector-curvature="0"
         style="fill:#706f6d" />
      <path
         d="M 98.5,270.9 H 91 c -0.1,0 -0.3,0.1 -0.3,0.3 v 1.9 h 8.1 v -1.9 c 0,-0.2 -0.1,-0.3 -0.3,-0.3 z"
         id="path724"
         inkscape:connector-curvature="0"
         style="fill:#9e9c9a" />
      <path
         d="m 98.8,271.2 1.2,3.4 v 4.1 L 98.8,273 Z m -8.1,0 -1.1,3.4 v 4.1 l 1.1,-5.7 z"
         id="path726"
         inkscape:connector-curvature="0"
         style="fill:#7a7874" />
    </g>
    <g
       id="g736">
      <path
         d="M 110.1,273 H 102 l -1.2,5.7 h 10.4 z"
         id="path730"
         inkscape:connector-curvature="0"
         style="fill:#706f6d" />
      <path
         d="m 109.8,270.9 h -7.6 c -0.1,0 -0.3,0.1 -0.3,0.3 v 1.9 h 8.1 v -1.9 c 0.1,-0.2 -0.1,-0.3 -0.2,-0.3 z"
         id="path732"
         inkscape:connector-curvature="0"
         style="fill:#9e9c9a" />
      <path
         d="m 110.1,271.2 1.1,3.4 v 4.1 l -1.1,-5.7 z m -8.1,0 -1.2,3.4 v 4.1 L 102,273 Z"
         id="path734"
         inkscape:connector-curvature="0"
         style="fill:#7a7874" />
    </g>
    <g
       id="g744">
      <path
         d="m 121.3,273 h -8.1 l -1.1,5.7 h 10.4 z"
         id="path738"
         inkscape:connector-curvature="0"
         style="fill:#706f6d" />
      <path
         d="m 121.1,270.9 h -7.6 c -0.1,0 -0.3,0.1 -0.3,0.3 v 1.9 h 8.1 v -1.9 c 0,-0.2 -0.1,-0.3 -0.2,-0.3 z"
         id="path740"
         inkscape:connector-curvature="0"
         style="fill:#9e9c9a" />
      <path
         d="m 121.3,271.2 1.2,3.4 v 4.1 l -1.2,-5.7 z m -8.1,0 -1.1,3.4 v 4.1 l 1.1,-5.7 z"
         id="path742"
         inkscape:connector-curvature="0"
         style="fill:#7a7874" />
    </g>
    <g
       id="g752">
      <path
         d="m 132.6,273 h -8.1 l -1.2,5.7 h 10.4 z"
         id="path746"
         inkscape:connector-curvature="0"
         style="fill:#706f6d" />
      <path
         d="m 132.3,270.9 h -7.6 c -0.1,0 -0.3,0.1 -0.3,0.3 v 1.9 h 8.1 v -1.9 c 0.1,-0.2 -0.1,-0.3 -0.2,-0.3 z"
         id="path748"
         inkscape:connector-curvature="0"
         style="fill:#9e9c9a" />
      <path
         d="m 132.6,271.2 1.1,3.4 v 4.1 l -1.1,-5.7 z m -8.1,0 -1.2,3.4 v 4.1 l 1.2,-5.7 z"
         id="path750"
         inkscape:connector-curvature="0"
         style="fill:#7a7874" />
    </g>
    <g
       id="g760">
      <path
         d="m 143.8,273 h -8.1 l -1.1,5.7 H 145 Z"
         id="path754"
         inkscape:connector-curvature="0"
         style="fill:#706f6d" />
      <path
         d="M 143.5,270.9 H 136 c -0.1,0 -0.3,0.1 -0.3,0.3 v 1.9 h 8.1 v -1.9 c 0,-0.2 -0.1,-0.3 -0.3,-0.3 z"
         id="path756"
         inkscape:connector-curvature="0"
         style="fill:#9e9c9a" />
      <path
         d="m 143.8,271.2 1.2,3.4 v 4.1 l -1.2,-5.7 z m -8.1,0 -1.1,3.4 v 4.1 l 1.1,-5.7 z"
         id="path758"
         inkscape:connector-curvature="0"
         style="fill:#7a7874" />
    </g>
    <g
       id="g768">
      <path
         d="M 155.1,273 H 147 l -1.2,5.7 h 10.4 z"
         id="path762"
         inkscape:connector-curvature="0"
         style="fill:#706f6d" />
      <path
         d="m 154.8,270.9 h -7.6 c -0.1,0 -0.3,0.1 -0.3,0.3 v 1.9 h 8.1 v -1.9 c 0.1,-0.2 -0.1,-0.3 -0.2,-0.3 z"
         id="path764"
         inkscape:connector-curvature="0"
         style="fill:#9e9c9a" />
      <path
         d="m 155.1,271.2 1.1,3.4 v 4.1 l -1.1,-5.7 z m -8.1,0 -1.2,3.4 v 4.1 L 147,273 Z"
         id="path766"
         inkscape:connector-curvature="0"
         style="fill:#7a7874" />
    </g>
    <g
       id="g780">
      <path
         d="m 187.8,267.5 h -11.3 l 0.1,-4 h -5.3 v -3.7 c 0,-0.2 0.1,-0.3 0.3,-0.3 h 15.9 c 0.2,0 0.3,0.1 0.3,0.3 z"
         id="path770"
         inkscape:connector-curvature="0"
         style="fill:#282219" />
      <path
         d="m 187.8,267.5 h -11.2 l -1.5,5.6 h 14.2 z"
         id="path772"
         inkscape:connector-curvature="0"
         style="fill:#241f16" />
      <path
         d="m 171.4,259.7 -1.5,3.4 v 3.5 l 1.5,-3.1 z"
         id="path774"
         inkscape:connector-curvature="0"
         style="fill:#38312a" />
      <path
         d="m 169.9,266.6 h 5.2 l 1.5,-3.1 h -5.2 z"
         id="path776"
         inkscape:connector-curvature="0"
         style="fill:#241f16" />
      <path
         d="m 176.6,263.5 -1.5,3.1 v 6.5 l 1.5,-5.6 z m 11.2,-3.7 1,3 0.5,10.3 -1.5,-5.6 z"
         id="path778"
         inkscape:connector-curvature="0"
         style="fill:#38312a" />
    </g>
    <g
       id="g788">
      <path
         d="m 172.9,267.5 h -8 l -1.1,5.7 H 174 Z"
         id="path782"
         inkscape:connector-curvature="0"
         style="fill:#706f6d" />
      <path
         d="m 172.6,265.4 h -7.4 c -0.1,0 -0.3,0.1 -0.3,0.3 v 1.9 h 7.9 v -1.9 c 0.1,-0.2 0,-0.3 -0.2,-0.3 z"
         id="path784"
         inkscape:connector-curvature="0"
         style="fill:#9e9c9a" />
      <path
         d="m 172.9,265.7 1.1,3.4 v 4.1 l -1.1,-5.7 z m -7.9,0 -1.2,3.4 v 4.1 l 1.2,-5.7 z"
         id="path786"
         inkscape:connector-curvature="0"
         style="fill:#7a7874" />
    </g>
    <g
       id="g796">
      <path
         d="m 166.3,273 h -8.1 l -1.1,5.7 h 10.4 z"
         id="path790"
         inkscape:connector-curvature="0"
         style="fill:#706f6d" />
      <path
         d="m 166,270.9 h -7.6 c -0.1,0 -0.3,0.1 -0.3,0.3 v 1.9 h 8.1 v -1.9 c 0.1,-0.2 0,-0.3 -0.2,-0.3 z"
         id="path792"
         inkscape:connector-curvature="0"
         style="fill:#9e9c9a" />
      <path
         d="m 166.3,271.2 1.2,3.4 v 4.1 l -1.2,-5.7 z m -8.1,0 -1.1,3.4 v 4.1 l 1.1,-5.7 z"
         id="path794"
         inkscape:connector-curvature="0"
         style="fill:#7a7874" />
    </g>
    <g
       id="g804">
      <path
         d="m 188.5,273.2 h -18.3 l -1.4,5.6 H 190 Z"
         id="path798"
         inkscape:connector-curvature="0"
         style="fill:#241f16" />
      <path
         d="m 188.1,271 h -17.5 c -0.2,0 -0.4,0.2 -0.4,0.4 v 1.7 h 18.3 v -1.7 c 0,-0.2 -0.2,-0.4 -0.4,-0.4 z"
         id="path800"
         inkscape:connector-curvature="0"
         style="fill:#282219" />
      <path
         d="m 188.5,271.3 1.5,3.4 v 4.1 l -1.5,-5.6 z m -18.3,0 -1.4,3.4 v 4.1 l 1.4,-5.6 z"
         id="path802"
         inkscape:connector-curvature="0"
         style="fill:#38312a" />
    </g>
    <g
       id="g812">
      <path
         d="m 203.5,255.3 h -7.7 l -1,5.7 h 9.8 z"
         id="path806"
         inkscape:connector-curvature="0"
         style="fill:#241f16" />
      <path
         d="m 203.2,253.2 h -7.1 c -0.1,0 -0.3,0.1 -0.3,0.3 v 1.9 h 7.6 v -1.9 c 0.1,-0.2 0,-0.3 -0.2,-0.3 z"
         id="path808"
         inkscape:connector-curvature="0"
         style="fill:#282219" />
      <path
         d="m 203.5,253.4 1.1,3.4 v 4.2 l -1.1,-5.7 z m -7.6,0 -1.1,3.4 v 4.2 l 1.1,-5.7 z"
         id="path810"
         inkscape:connector-curvature="0"
         style="fill:#38312a" />
    </g>
    <g
       id="g820">
      <path
         d="m 213.8,255.3 h -7.6 l -1.1,5.7 h 9.8 z"
         id="path814"
         inkscape:connector-curvature="0"
         style="fill:#241f16" />
      <path
         d="m 213.5,253.2 h -7.1 c -0.1,0 -0.3,0.1 -0.3,0.3 v 1.9 h 7.6 v -1.9 c 0.1,-0.2 0,-0.3 -0.2,-0.3 z"
         id="path816"
         inkscape:connector-curvature="0"
         style="fill:#282219" />
      <path
         d="m 213.8,253.4 1.1,3.4 v 4.2 l -1.1,-5.7 z m -7.6,0 -1.1,3.4 v 4.2 l 1.1,-5.7 z"
         id="path818"
         inkscape:connector-curvature="0"
         style="fill:#38312a" />
    </g>
    <g
       id="g828">
      <path
         d="m 204.2,267.3 h -8 l -1.2,5.6 h 10.4 z"
         id="path822"
         inkscape:connector-curvature="0"
         style="fill:#241f16" />
      <path
         d="m 204,265.1 h -7.5 c -0.1,0 -0.3,0.1 -0.3,0.3 v 1.9 h 8.1 v -1.9 c -0.1,-0.1 -0.2,-0.3 -0.3,-0.3 z"
         id="path824"
         inkscape:connector-curvature="0"
         style="fill:#282219" />
      <path
         d="m 204.2,265.4 1.2,3.4 v 4.1 l -1.2,-5.6 z m -8,0 -1.2,3.4 v 4.1 l 1.2,-5.6 z"
         id="path826"
         inkscape:connector-curvature="0"
         style="fill:#38312a" />
    </g>
    <g
       id="g836">
      <path
         d="m 215.1,267.3 h -8 l -1.2,5.6 h 10.4 z"
         id="path830"
         inkscape:connector-curvature="0"
         style="fill:#241f16" />
      <path
         d="m 214.9,265.1 h -7.5 c -0.1,0 -0.3,0.1 -0.3,0.3 v 1.9 h 8.1 v -1.9 c -0.1,-0.1 -0.2,-0.3 -0.3,-0.3 z"
         id="path832"
         inkscape:connector-curvature="0"
         style="fill:#282219" />
      <path
         d="m 215.1,265.4 1.2,3.4 v 4.1 l -1.2,-5.6 z m -8,0 -1.2,3.4 v 4.1 l 1.2,-5.6 z"
         id="path834"
         inkscape:connector-curvature="0"
         style="fill:#38312a" />
    </g>
    <g
       id="g844">
      <path
         d="m 204.8,273.3 h -8.1 l -1.1,5.6 h 10.3 z"
         id="path838"
         inkscape:connector-curvature="0"
         style="fill:#241f16" />
      <path
         d="M 204.5,271.2 H 197 c -0.1,0 -0.3,0.1 -0.3,0.3 v 1.9 h 8.1 v -1.9 c 0,-0.2 -0.1,-0.3 -0.3,-0.3 z"
         id="path840"
         inkscape:connector-curvature="0"
         style="fill:#282219" />
      <path
         d="m 204.8,271.4 1.1,3.4 v 4.1 l -1.1,-5.6 z m -8.1,0 -1.1,3.4 v 4.1 l 1.1,-5.6 z"
         id="path842"
         inkscape:connector-curvature="0"
         style="fill:#38312a" />
    </g>
    <g
       id="g852">
      <path
         d="m 215.7,273.3 h -8.1 l -1.1,5.6 h 10.3 z"
         id="path846"
         inkscape:connector-curvature="0"
         style="fill:#241f16" />
      <path
         d="m 215.4,271.2 h -7.5 c -0.1,0 -0.3,0.1 -0.3,0.3 v 1.9 h 8.1 v -1.9 c 0,-0.2 -0.1,-0.3 -0.3,-0.3 z"
         id="path848"
         inkscape:connector-curvature="0"
         style="fill:#282219" />
      <path
         d="m 215.7,271.4 1.1,3.4 v 4.1 l -1.1,-5.6 z m -8.1,0 -1.1,3.4 v 4.1 l 1.1,-5.6 z"
         id="path850"
         inkscape:connector-curvature="0"
         style="fill:#38312a" />
    </g>
    <g
       id="g860">
      <path
         d="m 216.1,279.5 h -18.8 l -1.5,5.7 h 21.8 z"
         id="path854"
         inkscape:connector-curvature="0"
         style="fill:#241f16" />
      <path
         d="m 215.7,277.4 h -17.9 c -0.2,0 -0.4,0.2 -0.4,0.4 v 1.7 h 18.7 v -1.7 c 0,-0.2 -0.2,-0.4 -0.4,-0.4 z"
         id="path856"
         inkscape:connector-curvature="0"
         style="fill:#282219" />
      <path
         d="m 216.1,277.6 1.5,3.4 v 4.2 l -1.5,-5.7 z m -18.8,0 -1.5,3.4 v 4.2 l 1.5,-5.7 z"
         id="path858"
         inkscape:connector-curvature="0"
         style="fill:#38312a" />
    </g>
    <g
       id="g868">
      <path
         d="M 37.8,261 H 22.6 l -1.3,5.6 H 39 Z"
         id="path862"
         inkscape:connector-curvature="0"
         style="fill:#241f16" />
      <path
         d="M 37.4,258.8 H 22.9 c -0.2,0 -0.4,0.2 -0.4,0.4 v 1.8 h 15.2 v -1.8 c 0.1,-0.2 -0.1,-0.4 -0.3,-0.4 z"
         id="path864"
         inkscape:connector-curvature="0"
         style="fill:#282219" />
      <path
         d="m 37.8,259.1 1.2,3.4 v 4.1 L 37.8,261 Z m -15.2,0 -1.3,3.4 v 4.1 l 1.3,-5.6 z"
         id="path866"
         inkscape:connector-curvature="0"
         style="fill:#38312a" />
    </g>
    <g
       id="g876">
      <path
         d="M 29.3,267.5 H 21 l -1.1,5.7 h 10.6 z"
         id="path870"
         inkscape:connector-curvature="0"
         style="fill:#241f16" />
      <path
         d="m 29,265.4 h -7.7 c -0.1,0 -0.3,0.1 -0.3,0.3 v 1.9 h 8.3 v -1.9 c 0,-0.2 -0.1,-0.3 -0.3,-0.3 z"
         id="path872"
         inkscape:connector-curvature="0"
         style="fill:#282219" />
      <path
         d="m 29.3,265.7 1.2,3.4 v 4.1 l -1.2,-5.7 z m -8.3,0 -1.1,3.4 v 4.1 l 1.1,-5.7 z"
         id="path874"
         inkscape:connector-curvature="0"
         style="fill:#38312a" />
    </g>
    <g
       id="g884">
      <path
         d="M 40.5,267.5 H 32.2 L 31,273.2 H 41.7 Z"
         id="path878"
         inkscape:connector-curvature="0"
         style="fill:#241f16" />
      <path
         d="m 40.2,265.4 h -7.7 c -0.1,0 -0.3,0.1 -0.3,0.3 v 1.9 h 8.3 v -1.9 c 0,-0.2 -0.1,-0.3 -0.3,-0.3 z"
         id="path880"
         inkscape:connector-curvature="0"
         style="fill:#282219" />
      <path
         d="m 40.5,265.7 1.2,3.4 v 4.1 l -1.2,-5.7 z m -8.3,0 -1.2,3.4 v 4.1 l 1.2,-5.7 z"
         id="path882"
         inkscape:connector-curvature="0"
         style="fill:#38312a" />
    </g>
    <g
       id="g892">
      <path
         d="M 41.8,273 H 20.4 l -1.7,5.7 h 24.8 z"
         id="path886"
         inkscape:connector-curvature="0"
         style="fill:#241f16" />
      <path
         d="M 41.4,270.9 H 20.8 c -0.2,0 -0.4,0.2 -0.4,0.4 v 1.7 h 21.4 v -1.7 c 0,-0.2 -0.2,-0.4 -0.4,-0.4 z"
         id="path888"
         inkscape:connector-curvature="0"
         style="fill:#282219" />
      <path
         d="m 41.8,271.2 1.7,3.4 v 4.1 L 41.8,273 Z m -21.4,0 -1.7,3.4 v 4.1 l 1.7,-5.7 z"
         id="path890"
         inkscape:connector-curvature="0"
         style="fill:#38312a" />
    </g>
    <g
       id="g900">
      <path
         d="m 49.8,279.8 h -8.1 l -1.1,5.6 H 51 Z"
         id="path894"
         inkscape:connector-curvature="0"
         style="fill:#241f16" />
      <path
         d="M 49.6,277.6 H 42 c -0.1,0 -0.3,0.1 -0.3,0.3 v 1.9 h 8.1 v -1.9 c 0,-0.2 -0.1,-0.3 -0.2,-0.3 z"
         id="path896"
         inkscape:connector-curvature="0"
         style="fill:#282219" />
      <path
         d="m 49.8,277.9 1.2,3.4 v 4.1 l -1.2,-5.6 z m -8.1,0 -1.1,3.4 v 4.1 l 1.1,-5.6 z"
         id="path898"
         inkscape:connector-curvature="0"
         style="fill:#38312a" />
    </g>
    <g
       id="g908">
      <path
         d="m 60.8,279.8 h -8.1 l -1.2,5.6 h 10.4 z"
         id="path902"
         inkscape:connector-curvature="0"
         style="fill:#241f16" />
      <path
         d="m 60.5,277.6 h -7.6 c -0.1,0 -0.3,0.1 -0.3,0.3 v 1.9 h 8.1 v -1.9 c 0.1,-0.2 -0.1,-0.3 -0.2,-0.3 z"
         id="path904"
         inkscape:connector-curvature="0"
         style="fill:#282219" />
      <path
         d="m 60.8,277.9 1.1,3.4 v 4.1 l -1.1,-5.6 z m -8.1,0 -1.2,3.4 v 4.1 l 1.2,-5.6 z"
         id="path906"
         inkscape:connector-curvature="0"
         style="fill:#38312a" />
    </g>
    <g
       id="g916">
      <path
         d="m 166.9,279.6 h -14.4 l -1.1,5.7 H 168 Z"
         id="path910"
         inkscape:connector-curvature="0"
         style="fill:#241f16" />
      <path
         d="m 166.5,277.5 h -13.7 c -0.2,0 -0.4,0.2 -0.4,0.4 v 1.8 h 14.4 v -1.8 c 0.1,-0.2 -0.1,-0.4 -0.3,-0.4 z"
         id="path912"
         inkscape:connector-curvature="0"
         style="fill:#282219" />
      <path
         d="m 166.9,277.8 1.1,3.4 v 4.1 l -1.1,-5.7 z m -14.4,0 -1.1,3.4 v 4.1 l 1.1,-5.7 z"
         id="path914"
         inkscape:connector-curvature="0"
         style="fill:#38312a" />
    </g>
    <g
       id="g924">
      <path
         d="M 149.7,279.8 H 63.6 l -1.1,5.6 h 88.3 z"
         id="path918"
         inkscape:connector-curvature="0"
         style="fill:#706f6d" />
      <path
         d="M 149.5,277.6 H 63.9 c -0.1,0 -0.3,0.1 -0.3,0.3 v 1.9 h 86.1 V 278 c 0,-0.2 -0.1,-0.4 -0.2,-0.4 z"
         id="path920"
         inkscape:connector-curvature="0"
         style="fill:#9e9c9a" />
      <path
         d="m 149.7,277.9 1.1,3.4 v 4.1 l -1.1,-5.6 z m -86.1,0 -1.1,3.4 v 4.1 l 1.1,-5.6 z"
         id="path922"
         inkscape:connector-curvature="0"
         style="fill:#7a7874" />
    </g>
    <g
       id="g938">
      <g
         id="g928"
         style="fill:#1b1610">
        <path
           d="m 231.7,240.5 0.5,-0.7 -0.4,-0.1 0.9,-0.2 1.7,0.5 0.5,-0.5 0.9,0.1 -0.7,0.1 -0.7,0.8 -2,-0.6 -0.2,0.3 0.5,0.2 z m 5.6,-0.9 h 1 c 0.2,0 0.2,0 0.3,0.1 0.1,0 0.2,0.1 0.2,0.1 l 0.3,-0.3 h -3.1 0.4 l -0.1,0.1 -0.2,0.3 h -0.3 0.2 l -0.2,0.2 -0.1,0.1 h -0.3 3 l 0.2,-0.3 -0.4,0.2 c -0.2,0 -0.5,0.1 -0.8,0.1 h -0.6 -0.1 l 0.1,-0.1 0.2,-0.2 h 0.6 c 0.1,0 0.2,0.1 0.2,0.1 l 0.3,-0.4 c -0.1,0.1 -0.3,0.1 -0.4,0.1 H 237 Z m 4.1,0.8 0.6,-0.3 c 0,0 -0.7,0.1 -1.2,0.1 -0.5,0 -1,-0.1 -0.9,-0.3 0.1,-0.3 1.3,-0.4 1.3,-0.4 l 0.5,0.2 h 0.5 l -0.4,-0.3 c 0,0 -0.7,0 -1.4,0.1 -0.7,0.1 -1.5,0.3 -1.4,0.5 0.2,0.5 1.7,0.4 1.9,0.4 0.2,0.1 0.5,0 0.5,0 z"
           id="path926"
           inkscape:connector-curvature="0" />
      </g>
      <path
         d="m 243.2,239.5 h 0.6 v 1.9 h -0.6 z"
         id="path930"
         inkscape:connector-curvature="0"
         style="fill:#1b1610" />
      <path
         d="m 244.7,239.5 h 1.2 c 0.6,0 1,0 1.3,0.1 0.3,0.1 0.4,0.1 0.4,0.2 0,0.1 -0.1,0.2 -0.4,0.3 -0.3,0.1 -0.8,0.1 -1.4,0.1 h -0.5 v 0.5 h -0.6 z m 0.6,0.6 h 0.5 c 0.7,0 1.2,-0.1 1.2,-0.3 0,-0.2 -0.4,-0.2 -1.1,-0.2 h -0.6 z m 6.4,0.6 c -0.2,0 -0.7,0.1 -1.2,0.1 -1.3,0 -2.3,-0.2 -2.3,-0.6 0,-0.4 1,-0.6 2.5,-0.6 0.6,0 1,0 1.1,0.1 l -0.1,0.1 h -1 c -1.1,0 -1.8,0.2 -1.8,0.5 0,0.3 0.7,0.5 1.8,0.5 h 1 z m 2.2,-0.5 v 0.1 h -1.7 v -0.1 z m 0.8,0.4 h 0.5 c 0.4,0 0.7,0 1,-0.1 0.3,-0.1 0.5,-0.2 0.6,-0.3 -0.3,0.1 -0.6,0.1 -1.1,0.1 -0.8,0 -1.3,-0.2 -1.3,-0.4 0,-0.2 0.6,-0.4 1.6,-0.4 0.9,0 1.5,0.2 1.5,0.5 0,0.3 -0.3,0.4 -0.8,0.5 -0.4,0.1 -0.8,0.1 -1.3,0.2 h -0.6 v -0.1 z m 0.3,-0.7 c 0,0.1 0.3,0.2 0.9,0.2 0.4,0 0.7,-0.1 0.9,-0.1 0,0 0.1,0 0.1,-0.1 0,-0.2 -0.3,-0.3 -0.9,-0.3 -0.7,0.1 -1,0.2 -1,0.3 z m 2.9,0.5 c 0,-0.1 0.3,-0.2 0.9,-0.3 -0.5,-0.1 -0.7,-0.2 -0.7,-0.3 0,-0.2 0.6,-0.3 1.4,-0.3 0.9,0 1.3,0.1 1.3,0.3 0,0.1 -0.2,0.2 -0.8,0.3 0.6,0.1 0.9,0.2 0.9,0.3 0,0.2 -0.7,0.3 -1.6,0.3 -0.8,0 -1.4,-0.1 -1.4,-0.3 z m 2.5,0 c 0,-0.1 -0.4,-0.2 -1,-0.3 -0.5,0 -0.8,0.1 -0.8,0.2 0,0.1 0.3,0.2 0.9,0.2 0.5,0.1 0.9,0 0.9,-0.1 z m -1.7,-0.6 c 0,0.1 0.3,0.2 0.9,0.2 0.4,0 0.7,-0.1 0.7,-0.2 0,-0.1 -0.2,-0.2 -0.8,-0.2 -0.5,0.1 -0.8,0.1 -0.8,0.2 z m 5.9,0.3 c 0,0.4 -0.6,0.6 -1.6,0.6 -0.9,0 -1.5,-0.2 -1.5,-0.6 0,-0.4 0.7,-0.6 1.6,-0.6 1,0 1.5,0.3 1.5,0.6 z m -2.5,0 c 0,0.3 0.4,0.5 0.9,0.5 0.6,0 0.9,-0.2 0.9,-0.5 0,-0.3 -0.3,-0.5 -0.9,-0.5 -0.5,0.1 -0.9,0.2 -0.9,0.5 z m 4.4,-0.4 -0.8,0.1 -0.1,-0.1 1,-0.1 h 0.5 v 1.2 h -0.6 z"
         id="path932"
         inkscape:connector-curvature="0" />
      <g
         id="g936">
        <path
           d="m 244.7,240.9 h 0.9 c 0.1,0 0.1,0.1 0.1,0.1 0,0 0,0.1 -0.1,0.1 h -0.7 v 0.2 h -0.2 z m 0.2,0.2 h 0.2 c 0.3,0 0.4,0 0.4,-0.1 0,-0.1 -0.2,-0.1 -0.4,-0.1 h -0.2 z m 1.9,0 h -0.6 v 0.2 h 0.7 -0.9 v -0.4 h 0.9 -0.7 v 0.1 z m 0.3,-0.2 h 0.9 c 0.1,0 0.1,0 0.1,0.1 0,0.1 -0.1,0.1 -0.3,0.1 0.1,0 0.2,0 0.2,0.1 l 0.1,0.1 h -0.2 c 0,0 -0.1,0 -0.1,-0.1 0,-0.1 -0.1,-0.1 -0.3,-0.1 h -0.2 v 0.2 h -0.2 z m 0.2,0.2 h 0.2 c 0.2,0 0.4,0 0.4,-0.1 0,-0.1 -0.2,-0.1 -0.4,-0.1 h -0.2 z m 1.1,0.2 h 0.4 c 0.2,0 0.3,0 0.3,-0.1 0,0 -0.1,-0.1 -0.3,-0.1 -0.3,0 -0.4,-0.1 -0.4,-0.1 0,-0.1 0.2,-0.1 0.5,-0.1 h 0.4 -0.4 c -0.2,0 -0.3,0 -0.3,0.1 0,0 0.1,0.1 0.3,0.1 0.3,0 0.4,0.1 0.4,0.1 0,0.1 -0.2,0.1 -0.6,0.1 -0.1,0.1 -0.3,0 -0.3,0 z m 2.6,-0.2 c 0,0.1 -0.3,0.2 -0.8,0.2 -0.4,0 -0.7,-0.1 -0.7,-0.2 0,-0.1 0.3,-0.2 0.8,-0.2 0.4,0 0.7,0.1 0.7,0.2 z m -1.3,0 c 0,0.1 0.2,0.2 0.5,0.2 0.3,0 0.5,-0.1 0.5,-0.2 0,-0.1 -0.2,-0.2 -0.5,-0.2 -0.3,0.1 -0.5,0.1 -0.5,0.2 z m 1.5,0.2 v -0.4 h 0.2 l 0.5,0.2 c 0.1,0 0.2,0.1 0.3,0.1 v -0.4 h 0.2 v 0.4 h -0.2 l -0.5,-0.2 c -0.1,0 -0.2,-0.1 -0.3,-0.1 v 0.4 z m 1.9,-0.1 -0.2,0.1 h -0.2 l 0.6,-0.4 h 0.3 l 0.6,0.4 H 254 l -0.2,-0.1 z m 0.5,0 -0.2,-0.1 -0.1,-0.1 -0.1,0.1 -0.2,0.1 z m 0.7,-0.3 h 0.2 v 0.4 h 0.7 -0.9 z m 2.8,0.4 h -0.4 c -0.5,0 -0.8,-0.1 -0.8,-0.2 0,-0.1 0.3,-0.2 0.8,-0.2 h 0.4 -0.4 c -0.4,0 -0.6,0.1 -0.6,0.2 0,0.1 0.2,0.2 0.6,0.2 z m 1.6,-0.2 c 0,0.1 -0.3,0.2 -0.8,0.2 -0.4,0 -0.7,-0.1 -0.7,-0.2 0,-0.1 0.3,-0.2 0.8,-0.2 0.4,0 0.7,0.1 0.7,0.2 z m -1.3,0 c 0,0.1 0.2,0.2 0.5,0.2 0.3,0 0.5,-0.1 0.5,-0.2 0,-0.1 -0.2,-0.2 -0.5,-0.2 -0.3,0.1 -0.5,0.1 -0.5,0.2 z m 2.9,0.1 V 241 c -0.1,0 -0.1,0.1 -0.2,0.2 l -0.3,0.2 h -0.2 l -0.3,-0.2 -0.2,-0.2 v 0.4 h -0.2 L 259,241 h 0.3 l 0.3,0.2 c 0.1,0.1 0.1,0.1 0.2,0.1 0,0 0.1,-0.1 0.2,-0.1 l 0.3,-0.2 h 0.3 l 0.1,0.4 h -0.2 z m 0.6,-0.3 h 0.9 c 0.1,0 0.1,0.1 0.1,0.1 0,0 0,0.1 -0.1,0.1 h -0.7 v 0.2 h -0.2 z m 0.2,0.2 h 0.2 c 0.3,0 0.4,0 0.4,-0.1 0,-0.1 -0.2,-0.1 -0.4,-0.1 h -0.2 z m 1.2,-0.2 v 0.3 c 0,0.1 0.2,0.1 0.4,0.1 0.2,0 0.4,0 0.4,-0.1 v -0.3 h 0.2 v 0.2 c 0,0.1 -0.3,0.2 -0.6,0.2 -0.3,0 -0.6,0 -0.6,-0.2 v -0.3 h 0.2 z m 1.7,0.1 h -0.5 1.2 -0.5 v 0.4 H 264 Z m 1.7,0.1 h -0.6 v 0.2 h 0.7 -0.9 v -0.4 h 0.9 -0.7 v 0.1 z m 0.4,-0.2 h 0.9 c 0.1,0 0.1,0 0.1,0.1 0,0.1 -0.1,0.1 -0.3,0.1 0.1,0 0.2,0 0.2,0.1 l 0.1,0.1 h -0.2 c 0,0 -0.1,0 -0.1,-0.1 0,-0.1 -0.1,-0.1 -0.3,-0.1 h -0.2 v 0.2 h -0.2 z m 0.2,0.2 h 0.2 c 0.2,0 0.4,0 0.4,-0.1 0,-0.1 -0.2,-0.1 -0.4,-0.1 h -0.2 z"
           id="path934"
           inkscape:connector-curvature="0" />
      </g>
    </g>
    <g
       id="g942">
      <path
         d="m 32.78,242.61 0.48,-7.184 0.598,0.04 -0.478,7.184 z"
         id="path940"
         inkscape:connector-curvature="0"
         style="fill:#958b7c" />
    </g>
    <g
       id="g946">
      <path
         d="m 213.06,235.43 0.598,-0.04 0.479,7.185 -0.599,0.04 z"
         id="path944"
         inkscape:connector-curvature="0"
         style="fill:#958b7c" />
    </g>
  </g>
</svg>
