<?xml version="1.0" encoding="UTF-8" standalone="no"?>
<svg
   xmlns:dc="http://purl.org/dc/elements/1.1/"
   xmlns:cc="http://creativecommons.org/ns#"
   xmlns:rdf="http://www.w3.org/1999/02/22-rdf-syntax-ns#"
   xmlns:svg="http://www.w3.org/2000/svg"
   xmlns="http://www.w3.org/2000/svg"
   xmlns:sodipodi="http://sodipodi.sourceforge.net/DTD/sodipodi-0.dtd"
   xmlns:inkscape="http://www.inkscape.org/namespaces/inkscape"
   viewBox="0 0 283.5 309.50001"
   version="1.1"
   id="svg930"
   sodipodi:docname="console.svg"
   width="283.5"
   height="309.5"
   inkscape:version="0.92.4 5da689c313, 2019-01-14">
  <metadata
     id="metadata936">
    <rdf:RDF>
      <cc:Work
         rdf:about="">
        <dc:format>image/svg+xml</dc:format>
        <dc:type
           rdf:resource="http://purl.org/dc/dcmitype/StillImage" />
      </cc:Work>
    </rdf:RDF>
  </metadata>
  <defs
     id="defs934" />
  <sodipodi:namedview
     pagecolor="#ffffff"
     bordercolor="#666666"
     borderopacity="1"
     objecttolerance="10"
     gridtolerance="10"
     guidetolerance="10"
     inkscape:pageopacity="0"
     inkscape:pageshadow="2"
     inkscape:window-width="640"
     inkscape:window-height="480"
     id="namedview932"
     showgrid="false"
     inkscape:zoom="0.76276666"
     inkscape:cx="141.75"
     inkscape:cy="154.8"
     inkscape:window-x="0"
     inkscape:window-y="0"
     inkscape:window-maximized="0"
     inkscape:current-layer="svg930">
    <inkscape:grid
       type="xygrid"
       id="grid1743"
       originx="0"
       originy="0.10000611" />
  </sodipodi:namedview>
  <path
     d="M 274.5,190.4 H 10.5 L 26,139.6 c 0.5,-1.7 2.1,-2.9 4,-2.9 h 223.6 c 1.8,0 3.4,1.1 3.9,2.8 z"
     id="path2"
     inkscape:connector-curvature="0"
     style="fill:#bcb5ac" />
  <path
     d="M 277.2,201 H 8.9 l 1.6,-10.6 h 264 z"
     id="path4"
     inkscape:connector-curvature="0"
     style="fill:#aaa297" />
  <path
     d="M 276.2,254 H 9.9 c -0.6,0 -1,-0.4 -1,-1 v -52 h 268.4 v 52 c -0.1,0.6 -0.5,1 -1.1,1 z"
     id="path6"
     inkscape:connector-curvature="0"
     style="fill:#898075" />
  <path
     d="M 276.2,227.5 H 9.9 c -0.6,0 -1,-0.4 -1,-1 V 201 h 268.4 v 25.5 c -0.1,0.6 -0.5,1 -1.1,1 z"
     id="path8"
     inkscape:connector-curvature="0"
     style="fill:#958b7c" />
  <path
     d="m 232.6,206.7 h 39.3 v 4 h -39.3 z"
     id="path10"
     inkscape:connector-curvature="0"
     style="fill:#090909" />
  <path
     d="m 232.6,206.7 v 3.9 L 222,222.5 v -3.9 z M 13.9,218.6 H 222 v 4 H 13.9 Z"
     id="path12"
     inkscape:connector-curvature="0"
     style="fill:#090909" />
  <path
     d="M 271.9,210.6 H 232.6 L 222,222.5 h 49.9 z"
     id="path14"
     inkscape:connector-curvature="0"
     style="fill:#1c1714" />
  <g
     id="g18"
     style="fill:#ffffff">
    <path
       d="m 237.6,215.2 h 0.4 c 0.2,0 0.4,0.1 0.5,0.1 0.1,0.1 0.1,0.2 0.1,0.4 0,0.2 0,0.3 -0.1,0.4 -0.1,0.1 -0.3,0.2 -0.5,0.2 h -0.2 v 0.7 h -0.2 z m 0.2,0.8 h 0.2 c 0.3,0 0.4,-0.1 0.4,-0.4 0,-0.2 -0.2,-0.3 -0.4,-0.3 h -0.2 z m 2.6,0 c 0,0.6 -0.4,0.9 -0.8,0.9 -0.4,0 -0.8,-0.3 -0.8,-0.9 0,-0.5 0.3,-0.9 0.8,-0.9 0.5,0.1 0.8,0.4 0.8,0.9 z m -1.3,0 c 0,0.4 0.2,0.7 0.5,0.7 0.3,0 0.5,-0.3 0.5,-0.7 0,-0.3 -0.2,-0.7 -0.5,-0.7 -0.4,0 -0.5,0.4 -0.5,0.7 z m 1.8,0.9 -0.4,-1.7 h 0.2 l 0.2,0.9 c 0,0.2 0.1,0.4 0.1,0.6 0,-0.2 0.1,-0.4 0.1,-0.6 l 0.2,-0.9 h 0.2 l 0.2,0.9 c 0,0.2 0.1,0.4 0.1,0.6 0,-0.2 0.1,-0.4 0.1,-0.6 l 0.2,-0.9 h 0.2 l -0.5,1.7 h -0.2 l -0.2,-0.9 c -0.1,-0.2 -0.1,-0.4 -0.1,-0.6 0,0.2 -0.1,0.3 -0.1,0.6 l -0.2,0.9 z m 2.7,-0.8 H 243 v 0.6 h 0.7 v 0.2 h -0.9 v -1.7 h 0.9 v 0.2 H 243 v 0.5 h 0.7 v 0.2 z m 0.4,-0.9 h 0.4 c 0.2,0 0.4,0 0.5,0.1 0.1,0.1 0.1,0.2 0.1,0.3 0,0.2 -0.1,0.4 -0.3,0.4 0.1,0 0.2,0.2 0.2,0.3 0.1,0.2 0.1,0.4 0.1,0.5 h -0.2 c 0,0 -0.1,-0.2 -0.1,-0.4 0,-0.2 -0.1,-0.3 -0.3,-0.3 h -0.2 v 0.7 H 244 Z m 0.2,0.8 h 0.2 c 0.2,0 0.4,-0.1 0.4,-0.3 0,-0.2 -0.2,-0.3 -0.4,-0.3 h -0.2 z"
       id="path16"
       inkscape:connector-curvature="0" />
  </g>
  <circle
     cx="248.60001"
     cy="216"
     r="1.5"
     id="circle20"
     style="fill:#c2cd82" />
  <path
     d="m 255.9,217.1 -0.2,-2.2 h 8 l 0.2,2.2 z"
     id="path22"
     inkscape:connector-curvature="0"
     style="fill:#030000" />
  <path
     d="m 263.6,216.8 h -7.4 l -0.1,-1.6 h 7.3 z"
     id="path24"
     inkscape:connector-curvature="0"
     style="fill:#110e0c" />
  <g
     id="g28"
     style="fill:#201914">
    <path
       d="M 33.3,182.1 H 16.9 l -0.4,1.4 h 16.3 z m 0.8,-2.7 H 17.8 l -0.4,1.4 h 16.3 z m 0.8,-2.8 H 18.6 l -0.4,1.4 h 16.3 z m 0.9,-2.8 H 19.5 l -0.4,1.4 H 35.4 Z M 36.6,171 H 20.3 l -0.4,1.4 h 16.3 z m 0.9,-2.8 H 21.2 l -0.5,1.4 h 16.4 z m 0.8,-2.7 H 22 l -0.4,1.4 h 16.3 z m 0.9,-2.8 H 22.8 l -0.4,1.4 H 38.7 Z M 40,159.9 H 23.7 l -0.4,1.4 h 16.3 z m 0.9,-2.8 H 24.5 l -0.4,1.4 h 16.4 z m 0.8,-2.8 H 25.4 l -0.4,1.4 h 16.3 z m 0.8,-2.7 H 26.2 l -0.4,1.4 h 16.3 z m 0.9,-2.8 H 27.1 l -0.4,1.4 H 43 Z M 44.2,146 H 27.9 l -0.4,1.4 h 16.3 z m 0.9,-2.8 H 28.7 l -0.4,1.4 h 16.3 z m 0.5,-1.8 H 29.3 l -0.1,0.4 h 16.3 z"
       id="path26"
       inkscape:connector-curvature="0" />
  </g>
  <g
     id="g32"
     style="fill:#201914">
    <path
       d="M 54.7,182.3 H 38.4 l -0.4,1.4 h 16.3 z m 0.9,-2.7 H 39.3 l -0.5,1.4 h 16.4 z m 0.8,-2.8 H 40.1 l -0.5,1.4 H 56 Z M 57.3,174 H 41 l -0.5,1.4 h 16.4 z m 0.8,-2.8 H 41.8 l -0.4,1.4 H 57.7 Z M 59,168.4 H 42.6 l -0.4,1.4 h 16.4 z m 0.8,-2.7 H 43.5 l -0.4,1.4 h 16.3 z m 0.8,-2.8 H 44.3 l -0.4,1.4 h 16.3 z m 0.9,-2.8 H 45.2 l -0.4,1.4 h 16.3 z m 0.9,-2.8 H 46 l -0.4,1.4 h 16.3 z m 0.8,-2.7 H 46.9 l -0.4,1.3 H 62.8 Z M 64,151.8 H 47.7 l -0.5,1.4 H 63.6 Z M 64.9,149 H 48.6 l -0.5,1.4 h 16.4 z m 0.8,-2.8 H 49.4 l -0.4,1.4 h 16.3 z m 0.8,-2.8 H 50.2 l -0.4,1.4 h 16.3 z m 0.6,-1.8 H 50.8 L 50.7,142 H 67 Z"
       id="path30"
       inkscape:connector-curvature="0" />
  </g>
  <g
     id="g36"
     style="fill:#201914">
    <path
       d="m 252.8,183.1 h 16.3 l 0.4,1.4 h -16.3 z m -0.9,-2.6 h 16.3 l 0.4,1.3 h -16.3 z m -0.8,-2.9 h 16.3 l 0.5,1.4 h -16.4 z m -0.9,-2.8 h 16.3 l 0.5,1.4 h -16.4 z m -0.8,-2.8 h 16.3 l 0.4,1.4 h -16.3 z m -0.9,-2.7 h 16.3 l 0.5,1.3 h -16.4 z m -0.8,-2.8 H 264 l 0.4,1.4 h -16.3 z m -0.9,-2.8 h 16.4 l 0.4,1.4 h -16.3 z m -0.8,-2.8 h 16.3 l 0.4,1.4 h -16.3 z m -0.9,-2.8 h 16.4 l 0.4,1.4 h -16.3 z m -0.8,-2.7 h 16.3 l 0.4,1.3 h -16.3 z m -0.8,-2.8 h 16.3 l 0.5,1.4 h -16.4 z m -0.9,-2.8 h 16.3 l 0.5,1.4 H 243 Z m -0.8,-2.8 h 16.3 l 0.4,1.4 h -16.3 z m -0.9,-2.8 h 16.4 l 0.4,1.4 h -16.3 z m -0.5,-1.7 h 16.3 l 0.1,0.4 h -16.3 z"
       id="path34"
       inkscape:connector-curvature="0" />
  </g>
  <g
     id="g40"
     style="fill:#201914">
    <path
       d="m 231.3,183.3 h 16.3 l 0.4,1.4 h -16.3 z m -0.9,-2.6 h 16.3 l 0.5,1.3 h -16.4 z m -0.8,-2.9 H 246 l 0.4,1.4 H 230 Z m -0.9,-2.8 h 16.4 l 0.4,1.4 h -16.4 z m -0.8,-2.8 h 16.3 l 0.4,1.4 h -16.3 z m -0.9,-2.7 h 16.4 l 0.4,1.3 h -16.3 z m -0.8,-2.8 h 16.3 l 0.4,1.4 h -16.3 z m -0.8,-2.8 h 16.3 l 0.4,1.4 h -16.3 z m -0.9,-2.8 h 16.3 l 0.5,1.4 h -16.4 z m -0.8,-2.8 H 240 l 0.4,1.4 h -16.3 z m -0.9,-2.7 h 16.3 l 0.5,1.3 h -16.4 z m -0.8,-2.8 h 16.4 l 0.4,1.4 h -16.4 z m -0.9,-2.8 h 16.4 l 0.4,1.4 h -16.4 z m -0.8,-2.8 h 16.3 l 0.4,1.4 h -16.3 z m -0.8,-2.8 h 16.3 l 0.4,1.4 h -16.3 z m -0.6,-1.7 h 16.3 l 0.2,0.4 H 219 Z"
       id="path38"
       inkscape:connector-curvature="0" />
  </g>
  <path
     d="M 230.8,162.3 H 53.4 l 3.4,20.2 c 0.1,0.5 0.5,0.8 1,0.8 h 168.7 c 0.5,0 0.9,-0.3 1,-0.8 z"
     id="path42"
     inkscape:connector-curvature="0"
     style="fill:#a59481" />
  <path
     d="M 236.9,0 H 48.2 C 41.6,0 36.3,5.3 36.3,11.9 v 2.5 H 248.8 V 11.9 C 248.8,5.4 243.5,0 236.9,0 Z"
     id="path44"
     inkscape:connector-curvature="0"
     style="fill:#e2e6e2" />
  <path
     d="m 45.4,162.3 c -5,0 -9.1,-4.1 -9.1,-9.1 V 14.4 c 0,-5 4.1,-9.1 9.1,-9.1 h 194.4 c 5,0 9.1,4.1 9.1,9.1 v 138.8 c 0,5 -4.1,9.1 -9.1,9.1 z"
     id="path46"
     inkscape:connector-curvature="0"
     style="fill:#b19c7f" />
  <path
     d="m 46,157.4 c -3,0 -5.4,-2.4 -5.4,-5.4 V 13.6 c 0,-3 2.4,-5.4 5.4,-5.4 h 193.2 c 3,0 5.4,2.4 5.4,5.4 V 152 c 0,3 -2.4,5.4 -5.4,5.4 z"
     id="path48"
     inkscape:connector-curvature="0"
     style="fill:#0e1213" />
  <path
     d="M 239.2,154.6 H 46 c -1.4,0 -2.6,-1.2 -2.6,-2.6 V 13.6 C 43.4,12.2 44.6,11 46,11 h 193.2 c 1.4,0 2.6,1.2 2.6,2.6 V 152 c 0,1.4 -1.2,2.6 -2.6,2.6 z"
     id="path50"
     inkscape:connector-curvature="0"
     style="fill:#131313" />
  <path
     d="m 69.1,143.8 c -6.7,0 -12.8,-4.5 -15,-12 C 54,131.5 54,131.3 54,131 V 19.5 c 0,-1 0.8,-1.8 1.8,-1.8 H 212 c 1,0 1.8,0.8 1.8,1.8 v 109.1 c 0,8.4 -6.8,15.2 -15.1,15.2 l -64.7,1 z"
     id="path52"
     inkscape:connector-curvature="0"
     style="fill:#131315" />
  <path
     d="m 69.2,139.5 c -6,0 -10.9,-4.9 -10.9,-11 V 32.9 c 0,-6 4.9,-11 11,-11 h 129.3 c 6,0 11,4.9 11,11 v 95.7 c 0,6 -4.9,11 -11,11 l -64.6,1.8 c -0.1,0 -64.8,-1.9 -64.8,-1.9 z"
     id="path54"
     inkscape:connector-curvature="0"
     style="fill:#161618" />
  <path
     d="m 198.5,136.7 -64.6,1.8 -64.6,-1.8 c -4.5,0 -8.1,-3.7 -8.1,-8.1 V 32.9 c 0,-4.5 3.7,-8.1 8.1,-8.1 h 129.3 c 4.5,0 8.1,3.7 8.1,8.1 v 95.7 c -0.1,4.4 -3.7,8.1 -8.2,8.1 z"
     id="path56"
     inkscape:connector-curvature="0"
     style="fill:#3b3431" />
  <path
     d="m 237.5,150.4 h -15.7 c -1.3,0 -2.3,-1 -2.3,-2.3 V 20 c 0,-1.3 1,-2.3 2.3,-2.3 h 15.7 c 1.3,0 2.3,1 2.3,2.3 v 128.1 c 0,1.2 -1,2.3 -2.3,2.3 z"
     id="path58"
     inkscape:connector-curvature="0"
     style="fill:#0a0a0c" />
  <circle
     cx="229.7"
     cy="45.900002"
     r="2.4000001"
     id="circle60"
     style="fill:#c11100" />
  <circle
     cx="229.7"
     cy="62.799999"
     r="5.1999998"
     id="circle62"
     style="fill:#060608" />
  <circle
     cx="229.7"
     cy="62.799999"
     r="4.3000002"
     id="circle64"
     style="fill:#161618" />
  <circle
     cx="229.7"
     cy="62.799999"
     r="1.2"
     id="circle66"
     style="fill:#110d09" />
  <circle
     cx="229.7"
     cy="80.199997"
     r="5.1999998"
     id="circle68"
     style="fill:#060608" />
  <circle
     cx="229.7"
     cy="80.199997"
     r="4.3000002"
     id="circle70"
     style="fill:#161618" />
  <circle
     cx="229.7"
     cy="80.199997"
     r="1.2"
     id="circle72"
     style="fill:#110d09" />
  <g
     id="g80"
     style="fill:#4f4948">
    <path
       d="m 224,27.4 0.5,-2.9 -0.4,-0.4 0.9,-1 2,2.3 0.5,-2.3 0.9,0.5 -0.8,0.4 -0.6,3.3 -2.2,-2.4 -0.3,1.5 0.5,0.5 z m 6.1,-3.8 h 0.4 c 0.3,0 0.5,0 0.6,0.1 0.2,0.1 0.2,0.1 0.3,0.3 0.1,0.1 0.2,0.3 0.2,0.6 l 0.3,-1.2 h -3.3 v 0.1 h 0.1 c 0.1,0 0.1,0 0.2,0.1 0,0 0.1,0.1 0.1,0.2 0,0 0,0.1 -0.1,0.3 l -0.2,1.1 c 0,0.1 -0.1,0.1 -0.2,0.1 -0.1,0.1 -0.2,0.1 -0.2,0.1 0,0 0.1,0 0.2,0.1 l 0.1,0.1 -0.2,1 c 0,0.2 -0.1,0.3 -0.1,0.4 0,0.1 -0.1,0.1 -0.1,0.1 -0.1,0 -0.2,0.1 -0.2,0.1 v 0.1 h 3.2 l 0.2,-1.2 c -0.2,0.3 -0.2,0.5 -0.5,0.7 -0.3,0.2 -0.5,0.3 -0.9,0.3 h -0.4 L 229.5,27 c 0,0 0,-0.2 0.1,-0.4 l 0.2,-1 c 0.2,0 0.3,0 0.4,0.1 0.1,0 0.1,0.1 0.2,0.2 0.1,0.1 0.2,0.2 0.2,0.4 l 0.3,-1.6 c -0.1,0.3 -0.3,0.3 -0.5,0.4 -0.2,0.1 -0.3,0.1 -0.6,0.1 h -0.1 z m 4.4,3.7 0.7,-1.4 c 0,0 -0.7,0.5 -1.3,0.4 -0.6,0 -1.1,-0.6 -1,-1.1 0.1,-1.2 1.4,-1.5 1.4,-1.5 l 0.5,0.7 0.6,-0.2 -0.4,-1.1 c 0,0 -0.8,0 -1.5,0.5 -0.8,0.4 -1.6,1.2 -1.5,2.1 0.2,2 1.8,1.8 2,1.7 0.1,0 0.5,-0.1 0.5,-0.1 z"
       id="path74"
       inkscape:connector-curvature="0" />
    <g
       id="g78">
      <path
         d="m 223.5,29.5 c -0.1,0 -0.2,0.1 -0.4,0.1 -0.4,0 -0.7,-0.2 -0.7,-0.7 0,-0.4 0.3,-0.7 0.7,-0.7 0.2,0 0.3,0 0.3,0.1 v 0.1 c -0.1,0 -0.2,-0.1 -0.3,-0.1 -0.3,0 -0.5,0.2 -0.5,0.6 0,0.3 0.2,0.5 0.5,0.5 0.1,0 0.2,0 0.3,-0.1 z m 0.2,-1.4 h 0.2 v 0.6 c 0,-0.1 0.1,-0.1 0.1,-0.1 h 0.2 c 0.1,0 0.3,0.1 0.3,0.4 v 0.6 h -0.2 V 29 c 0,-0.2 -0.1,-0.3 -0.2,-0.3 -0.1,0 -0.2,0.1 -0.2,0.2 v 0.7 h -0.2 z m 1.6,1.4 v -0.1 c -0.1,0.1 -0.2,0.1 -0.3,0.1 -0.2,0 -0.3,-0.1 -0.3,-0.3 0,-0.2 0.2,-0.4 0.6,-0.4 0,-0.1 0,-0.2 -0.2,-0.2 -0.1,0 -0.2,0 -0.3,0.1 v -0.1 c 0.1,-0.1 0.2,-0.1 0.3,-0.1 0.3,0 0.4,0.2 0.4,0.4 v 0.6 z m 0,-0.5 c -0.2,0 -0.4,0 -0.4,0.2 0,0.1 0.1,0.2 0.2,0.2 0.1,0 0.2,-0.1 0.2,-0.2 z m 0.5,-0.2 v -0.3 h 0.2 v 0.2 c 0,-0.1 0.2,-0.2 0.3,-0.2 v 0.2 h -0.1 c -0.1,0 -0.2,0.1 -0.2,0.2 v 0.6 h -0.2 z m 1.1,0.7 v -0.1 c -0.1,0.1 -0.2,0.1 -0.3,0.1 -0.2,0 -0.3,-0.1 -0.3,-0.3 0,-0.2 0.2,-0.4 0.6,-0.4 0,-0.1 0,-0.2 -0.2,-0.2 -0.1,0 -0.2,0 -0.3,0.1 v -0.1 c 0.1,-0.1 0.2,-0.1 0.3,-0.1 0.3,0 0.4,0.2 0.4,0.4 v 0.6 z m 0,-0.5 c -0.2,0 -0.4,0 -0.4,0.2 0,0.1 0.1,0.2 0.2,0.2 0.1,0 0.2,-0.1 0.2,-0.2 z m 1.2,0.5 c 0,0 -0.1,0.1 -0.3,0.1 -0.3,0 -0.5,-0.2 -0.5,-0.5 0,-0.3 0.2,-0.5 0.5,-0.5 h 0.2 v 0.1 h -0.2 c -0.2,0 -0.3,0.2 -0.3,0.4 0,0.2 0.1,0.4 0.3,0.4 z m 0.4,-1.2 v 0.3 h 0.3 v 0.1 h -0.3 v 0.5 c 0,0.1 0,0.2 0.1,0.2 h 0.1 v 0.1 h -0.2 c -0.1,0 -0.1,0 -0.2,-0.1 0,-0.1 -0.1,-0.1 -0.1,-0.3 v -0.5 h -0.1 v -0.1 h 0.1 V 28.3 Z M 229,29 c 0,0.2 0.2,0.3 0.3,0.3 0.1,0 0.2,0 0.3,-0.1 v 0.1 c -0.1,0 -0.2,0.1 -0.3,0.1 -0.3,0 -0.5,-0.2 -0.5,-0.5 0,-0.3 0.2,-0.5 0.5,-0.5 0.3,0 0.4,0.3 0.4,0.5 V 29 Z m 0.6,-0.1 c 0,-0.1 0,-0.3 -0.2,-0.3 -0.2,0 -0.3,0.2 -0.3,0.3 z m 0.3,-0.1 v -0.3 h 0.2 v 0.2 c 0,-0.1 0.1,-0.2 0.3,-0.2 v 0.2 h -0.1 c -0.1,0 -0.2,0.1 -0.2,0.2 v 0.6 h -0.2 z m 1.1,-0.6 h 0.4 c 0.3,0 0.4,0.1 0.5,0.2 0.1,0.1 0.2,0.3 0.2,0.5 0,0.2 -0.1,0.4 -0.2,0.5 -0.1,0.1 -0.3,0.2 -0.6,0.2 H 231 Z m 0.2,1.2 h 0.2 c 0.4,0 0.6,-0.2 0.6,-0.6 0,-0.3 -0.2,-0.5 -0.5,-0.5 h -0.2 v 1.1 z m 1.3,-1.1 c 0,0.1 0,0.1 -0.1,0.1 -0.1,0 -0.1,0 -0.1,-0.1 0,-0.1 0,-0.1 0.1,-0.1 0.1,0 0.1,0 0.1,0.1 z m -0.1,1.2 v -1 h 0.2 v 1 z m 0.4,-0.2 c 0.1,0 0.1,0.1 0.2,0.1 0.1,0 0.2,-0.1 0.2,-0.1 0,-0.1 0,-0.1 -0.2,-0.2 -0.2,-0.1 -0.3,-0.2 -0.3,-0.3 0,-0.2 0.1,-0.3 0.3,-0.3 0.1,0 0.2,0 0.2,0.1 v 0.1 c 0,0 -0.1,-0.1 -0.2,-0.1 -0.1,0 -0.2,0.1 -0.2,0.1 0,0.1 0.1,0.1 0.2,0.2 0.2,0.1 0.3,0.1 0.3,0.3 0,0.2 -0.1,0.3 -0.4,0.3 -0.1,0 -0.2,0 -0.3,-0.1 z m 0.8,-0.5 v -0.3 h 0.2 v 0.2 c 0.1,-0.1 0.2,-0.2 0.3,-0.2 0.2,0 0.4,0.2 0.4,0.5 0,0.3 -0.2,0.5 -0.4,0.5 -0.1,0 -0.2,-0.1 -0.3,-0.2 v 0.5 h -0.2 z m 0.2,0.3 c 0,0 0,0.1 0,0 0,0.2 0.1,0.3 0.3,0.3 0.2,0 0.3,-0.2 0.3,-0.4 0,-0.2 -0.1,-0.4 -0.3,-0.4 -0.1,0 -0.2,0.1 -0.3,0.2 z m 0.9,-1 h 0.2 v 1.4 h -0.2 z m 1.1,1.4 v -0.1 c -0.1,0.1 -0.2,0.1 -0.3,0.1 -0.2,0 -0.3,-0.1 -0.3,-0.3 0,-0.2 0.2,-0.4 0.6,-0.4 0,-0.1 0,-0.2 -0.2,-0.2 -0.1,0 -0.2,0 -0.3,0.1 v -0.1 c 0.1,-0.1 0.2,-0.1 0.3,-0.1 0.3,0 0.4,0.2 0.4,0.4 v 0.6 z M 235.7,29 c -0.2,0 -0.4,0 -0.4,0.2 0,0.1 0.1,0.2 0.2,0.2 0.1,0 0.2,-0.1 0.2,-0.2 z m 0.5,-0.5 0.2,0.6 c 0,0.1 0,0.1 0.1,0.2 0,-0.1 0,-0.1 0.1,-0.2 l 0.2,-0.6 h 0.2 l -0.3,0.7 c -0.1,0.3 -0.2,0.5 -0.3,0.6 -0.1,0.1 -0.2,0.1 -0.2,0.1 v -0.1 c 0,0 0.1,0 0.2,-0.1 0,0 0.1,-0.1 0.1,-0.2 l -0.4,-0.9 h 0.1 z"
         id="path76"
         inkscape:connector-curvature="0" />
    </g>
  </g>
  <path
     d="m 222.6,30.7 h 4.6 v 2 h -4.6 z"
     id="path82"
     inkscape:connector-curvature="0"
     style="fill:#951610" />
  <path
     d="m 227.4,30.7 h 4.6 v 2 h -4.6 z"
     id="path84"
     inkscape:connector-curvature="0"
     style="fill:#16643c" />
  <path
     d="m 232.1,30.7 h 4.6 v 2 h -4.6 z"
     id="path86"
     inkscape:connector-curvature="0"
     style="fill:#00499a" />
  <g
     id="g90"
     style="fill:#464145">
    <path
       d="m 224.2,55.3 h 0.3 c 0.2,0 0.3,0 0.4,0.1 0.1,0.1 0.1,0.2 0.1,0.3 0,0.1 0,0.2 -0.1,0.3 -0.1,0.1 -0.2,0.1 -0.4,0.1 h -0.1 v 0.5 h -0.2 z m 0.1,0.6 h 0.1 c 0.2,0 0.3,-0.1 0.3,-0.3 0,-0.2 -0.1,-0.3 -0.3,-0.3 h -0.2 v 0.6 z m 1.1,-0.6 v 0.8 c 0,0.3 0.1,0.4 0.3,0.4 0.2,0 0.3,-0.1 0.3,-0.4 v -0.8 h 0.2 v 0.8 c 0,0.4 -0.2,0.6 -0.5,0.6 -0.3,0 -0.5,-0.2 -0.5,-0.6 v -0.8 z m 1.1,0 h 0.2 v 1.2 h 0.6 v 0.1 h -0.7 v -1.3 z m 1,0 h 0.2 v 1.2 h 0.6 v 0.1 h -0.7 v -1.3 z m 1.2,0.7 v 0.1 h -0.5 V 56 Z m 1.4,-0.1 c 0,0.5 -0.3,0.7 -0.6,0.7 -0.4,0 -0.6,-0.3 -0.6,-0.7 0,-0.4 0.3,-0.7 0.6,-0.7 0.4,0.1 0.6,0.3 0.6,0.7 z m -1,0.1 c 0,0.3 0.2,0.5 0.4,0.5 0.3,0 0.4,-0.3 0.4,-0.6 0,-0.3 -0.1,-0.5 -0.4,-0.5 -0.3,0 -0.4,0.3 -0.4,0.6 z m 1.2,0.6 v -1.3 h 0.2 L 231,56 c 0.1,0.2 0.2,0.3 0.2,0.4 v -1.2 h 0.2 v 1.3 h -0.2 l -0.4,-0.7 c -0.1,-0.1 -0.2,-0.3 -0.3,-0.4 v 1.2 z m 2,0 -0.4,-1.3 h 0.2 l 0.2,0.7 c 0.1,0.2 0.1,0.3 0.1,0.5 0,-0.2 0.1,-0.3 0.2,-0.5 l 0.2,-0.7 h 0.2 l -0.5,1.3 z m 2,-0.7 c 0,0.5 -0.3,0.7 -0.6,0.7 -0.4,0 -0.6,-0.3 -0.6,-0.7 0,-0.4 0.3,-0.7 0.6,-0.7 0.3,0.1 0.6,0.3 0.6,0.7 z m -1.1,0.1 c 0,0.3 0.2,0.5 0.4,0.5 0.3,0 0.4,-0.3 0.4,-0.6 0,-0.3 -0.1,-0.5 -0.4,-0.5 -0.2,0 -0.4,0.3 -0.4,0.6 z m 1.3,-0.7 h 0.2 v 1.2 h 0.6 v 0.1 h -0.7 v -1.3 z"
       id="path88"
       inkscape:connector-curvature="0" />
  </g>
  <g
     id="g96"
     style="fill:#464145">
    <path
       d="m 226.7,72.8 h 0.3 c 0.2,0 0.3,0 0.4,0.1 0.1,0.1 0.1,0.1 0.1,0.2 0,0.1 -0.1,0.2 -0.2,0.3 0.1,0 0.3,0.1 0.3,0.3 0,0.1 0,0.2 -0.1,0.3 -0.1,0.1 -0.2,0.1 -0.5,0.1 h -0.3 z m 0.1,0.5 h 0.2 c 0.2,0 0.3,-0.1 0.3,-0.2 0,-0.2 -0.1,-0.2 -0.3,-0.2 h -0.2 z m 0,0.7 h 0.1 c 0.2,0 0.3,-0.1 0.3,-0.3 0,-0.2 -0.2,-0.3 -0.3,-0.3 h -0.1 z"
       id="path92"
       inkscape:connector-curvature="0" />
    <path
       d="m 227.7,72.8 h 0.3 c 0.2,0 0.3,0 0.4,0.1 0.1,0.1 0.1,0.2 0.1,0.3 0,0.2 -0.1,0.3 -0.3,0.3 0.1,0 0.2,0.1 0.2,0.3 0,0.2 0.1,0.3 0.1,0.4 h -0.2 c 0,0 -0.1,-0.2 -0.1,-0.3 0,-0.2 -0.1,-0.3 -0.3,-0.3 h -0.2 v 0.6 h -0.2 v -1.4 z m 0.2,0.6 h 0.2 c 0.2,0 0.3,-0.1 0.3,-0.3 0,-0.2 -0.1,-0.2 -0.3,-0.3 h -0.2 z M 229,72.7 V 74 h -0.2 v -1.3 z m 1.3,1.3 c -0.1,0 -0.2,0.1 -0.4,0.1 -0.2,0 -0.4,-0.1 -0.5,-0.2 -0.1,-0.1 -0.2,-0.3 -0.2,-0.5 0,-0.4 0.3,-0.7 0.7,-0.7 0.2,0 0.3,0 0.3,0.1 v 0.1 c -0.1,0 -0.2,-0.1 -0.3,-0.1 -0.3,0 -0.5,0.2 -0.5,0.5 0,0.3 0.2,0.5 0.5,0.5 h 0.2 v -0.4 h -0.3 v -0.1 h 0.4 V 74 Z m 0.5,-1.3 v 0.6 h 0.7 v -0.6 h 0.2 V 74 h -0.2 v -0.6 h -0.7 V 74 h -0.2 v -1.3 z m 1.4,0.2 h -0.4 v -0.1 h 1 v 0.1 h -0.4 v 1.2 h -0.2 z"
       id="path94"
       inkscape:connector-curvature="0" />
  </g>
  <g
     id="g100"
     style="fill:#1b1610">
    <path
       d="m 14.8,212.4 0.4,-2.7 -0.4,-0.4 0.9,-1 1.8,2.2 0.5,-2.2 0.8,0.5 -0.7,0.4 -0.6,3.1 -2,-2.3 -0.3,1.4 0.5,0.5 z m 5.6,-3.6 h 1 c 0.2,0.1 0.2,0.1 0.3,0.3 0.1,0.1 0.2,0.3 0.2,0.6 l 0.3,-1.1 H 19 v 0.1 h 0.1 c 0.1,0 0.1,0 0.2,0.1 l 0.1,0.1 c 0,0 0,0.1 -0.1,0.3 l -0.2,1 c 0,0.1 -0.1,0.1 -0.1,0.1 -0.1,0.1 -0.2,0.1 -0.2,0.1 0,0 0.1,0 0.1,0.1 l 0.1,0.1 -0.2,1 c 0,0.2 -0.1,0.3 -0.1,0.3 0,0.1 -0.1,0.1 -0.1,0.1 -0.1,0 -0.2,0.1 -0.2,0.1 v 0.1 h 3 l 0.2,-1.1 c -0.2,0.3 -0.2,0.5 -0.4,0.6 -0.2,0.2 -0.5,0.2 -0.8,0.2 h -0.6 l -0.1,-0.1 c 0,0 0,-0.2 0.1,-0.4 l 0.2,-0.9 c 0.2,0 0.3,0 0.4,0.1 0.1,0 0.1,0.1 0.2,0.2 0.1,0.1 0.2,0.2 0.2,0.4 l 0.3,-1.5 c -0.1,0.3 -0.3,0.3 -0.4,0.4 -0.2,0.1 -0.3,0.1 -0.5,0.1 H 20 Z m 4.1,3.4 0.6,-1.3 c 0,0 -0.7,0.4 -1.2,0.4 -0.5,0 -1,-0.5 -0.9,-1.1 0.1,-1.1 1.3,-1.4 1.3,-1.4 l 0.5,0.7 0.5,-0.2 -0.4,-1 c 0,0 -0.7,0 -1.4,0.4 -0.7,0.4 -1.5,1.2 -1.4,2 0.2,1.9 1.7,1.6 1.9,1.6 0.1,0.1 0.5,-0.1 0.5,-0.1 z"
       id="path98"
       inkscape:connector-curvature="0" />
  </g>
  <path
     d="m 26.2,208.3 h 0.6 v 7.6 h -0.6 z"
     id="path102"
     inkscape:connector-curvature="0"
     style="fill:#1b1610" />
  <path
     d="m 27.7,208.7 c 0.3,0 0.7,-0.1 1.2,-0.1 0.6,0 1,0.1 1.3,0.4 0.3,0.2 0.4,0.6 0.4,1 0,0.4 -0.1,0.8 -0.4,1 -0.3,0.3 -0.8,0.5 -1.4,0.5 h -0.5 v 1.9 h -0.6 z m 0.6,2.2 h 0.5 c 0.7,0 1.2,-0.4 1.2,-1 0,-0.6 -0.4,-0.9 -1.1,-0.9 h -0.6 z m 6.4,2.3 c -0.2,0.1 -0.7,0.2 -1.2,0.2 -1.3,0 -2.3,-0.8 -2.3,-2.4 0,-1.5 1,-2.5 2.5,-2.5 0.6,0 1,0.1 1.1,0.2 l -0.1,0.5 c -0.2,-0.1 -0.6,-0.2 -1,-0.2 -1.1,0 -1.8,0.7 -1.8,1.9 0,1.2 0.7,1.9 1.8,1.9 0.4,0 0.7,-0.1 1,-0.2 z m 2.2,-2 v 0.5 h -1.7 v -0.5 z m 0.9,1.7 h 0.5 c 0.4,0 0.7,-0.2 1,-0.4 0.3,-0.3 0.5,-0.7 0.6,-1.2 -0.3,0.3 -0.6,0.5 -1.1,0.5 -0.8,0 -1.3,-0.6 -1.3,-1.4 0,-0.9 0.6,-1.6 1.6,-1.6 0.9,0 1.5,0.8 1.5,1.9 0,1 -0.3,1.7 -0.8,2.1 -0.4,0.3 -0.8,0.6 -1.3,0.6 h -0.6 v -0.5 z m 0.2,-2.6 c 0,0.6 0.3,1 0.9,1 0.4,0 0.7,-0.2 0.9,-0.5 0,-0.1 0.1,-0.1 0.1,-0.2 0,-0.8 -0.3,-1.4 -0.9,-1.4 -0.7,0 -1,0.4 -1,1.1 z m 2.9,1.9 c 0,-0.6 0.3,-1 0.9,-1.2 -0.5,-0.2 -0.7,-0.6 -0.7,-1 0,-0.7 0.6,-1.2 1.4,-1.2 0.9,0 1.3,0.6 1.3,1.1 0,0.4 -0.2,0.8 -0.7,1.1 0.6,0.2 0.9,0.6 0.9,1.2 0,0.8 -0.7,1.3 -1.5,1.3 -1,-0.1 -1.6,-0.7 -1.6,-1.3 z m 2.5,-0.1 c 0,-0.6 -0.4,-0.8 -1,-1 -0.5,0.2 -0.8,0.5 -0.8,0.9 0,0.5 0.3,0.9 0.9,0.9 0.5,0 0.9,-0.3 0.9,-0.8 z m -1.7,-2.2 c 0,0.5 0.3,0.7 0.9,0.8 0.4,-0.1 0.7,-0.4 0.7,-0.8 0,-0.4 -0.2,-0.7 -0.8,-0.7 -0.5,-0.1 -0.8,0.3 -0.8,0.7 z m 5.9,1.1 c 0,1.5 -0.6,2.4 -1.6,2.4 -0.9,0 -1.5,-0.8 -1.5,-2.3 0,-1.5 0.7,-2.4 1.6,-2.4 1,0 1.5,0.8 1.5,2.3 z m -2.5,0.1 c 0,1.2 0.4,1.9 0.9,1.9 0.6,0 0.9,-0.7 0.9,-1.9 0,-1.1 -0.3,-1.9 -0.9,-1.9 -0.5,0 -0.9,0.6 -0.9,1.9 z m 4.4,-1.8 -0.8,0.4 -0.1,-0.5 1,-0.5 h 0.5 v 4.6 h -0.6 z m -21.8,4.8 h 0.4 c 0.2,0 0.4,0 0.5,0.1 0.1,0.1 0.1,0.2 0.1,0.4 0,0.2 0,0.3 -0.1,0.4 -0.1,0.1 -0.3,0.2 -0.5,0.2 h -0.2 v 0.7 h -0.2 z m 0.2,0.8 h 0.2 c 0.3,0 0.4,-0.1 0.4,-0.4 0,-0.2 -0.2,-0.3 -0.4,-0.3 h -0.2 z m 1.9,0.1 h -0.6 v 0.6 h 0.7 v 0.2 H 29 v -1.7 h 0.9 v 0.2 h -0.7 v 0.5 h 0.6 z m 0.3,-0.9 h 0.4 c 0.2,0 0.4,0 0.5,0.1 0.1,0.1 0.1,0.2 0.1,0.3 0,0.2 -0.1,0.4 -0.3,0.4 0.1,0 0.2,0.2 0.2,0.3 0.1,0.2 0.1,0.4 0.1,0.5 H 31 c 0,0 -0.1,-0.2 -0.1,-0.4 0,-0.2 -0.1,-0.3 -0.3,-0.3 h -0.2 v 0.7 h -0.2 v -1.6 z m 0.2,0.8 h 0.2 c 0.2,0 0.4,-0.1 0.4,-0.3 0,-0.2 -0.2,-0.3 -0.4,-0.3 h -0.2 z m 1.1,0.6 c 0.1,0.1 0.2,0.1 0.4,0.1 0.2,0 0.3,-0.1 0.3,-0.3 0,-0.2 -0.1,-0.2 -0.3,-0.3 -0.3,-0.1 -0.4,-0.2 -0.4,-0.5 0,-0.3 0.2,-0.5 0.5,-0.5 0.2,0 0.3,0 0.4,0.1 l -0.1,0.2 c -0.1,0 -0.2,-0.1 -0.3,-0.1 -0.2,0 -0.3,0.1 -0.3,0.3 0,0.2 0.1,0.2 0.3,0.3 0.3,0.1 0.4,0.2 0.4,0.5 0,0.3 -0.2,0.5 -0.6,0.5 -0.2,0 -0.3,0 -0.4,-0.1 z m 2.6,-0.6 c 0,0.6 -0.3,0.9 -0.8,0.9 -0.4,0 -0.7,-0.3 -0.7,-0.9 0,-0.5 0.3,-0.9 0.8,-0.9 0.4,0.1 0.7,0.4 0.7,0.9 z m -1.3,0.1 c 0,0.4 0.2,0.7 0.5,0.7 0.3,0 0.5,-0.3 0.5,-0.7 0,-0.3 -0.2,-0.7 -0.5,-0.7 -0.3,0 -0.5,0.3 -0.5,0.7 z m 1.6,0.8 v -1.7 h 0.2 L 35,215 c 0.1,0.2 0.2,0.4 0.3,0.5 v -1.4 h 0.2 v 1.7 h -0.2 l -0.5,-0.9 -0.3,-0.6 v 1.4 h -0.2 z m 1.8,-0.5 -0.2,0.5 h -0.2 l 0.5,-1.7 h 0.3 l 0.6,1.7 h -0.2 l -0.2,-0.5 z m 0.5,-0.2 -0.2,-0.5 c 0,-0.1 -0.1,-0.2 -0.1,-0.3 0,0.1 -0.1,0.2 -0.1,0.3 l -0.2,0.5 z m 0.7,-1 h 0.2 v 1.5 h 0.7 v 0.2 h -0.9 z m 2.8,1.6 c -0.1,0 -0.2,0.1 -0.4,0.1 -0.5,0 -0.8,-0.3 -0.8,-0.9 0,-0.5 0.3,-0.9 0.8,-0.9 0.2,0 0.3,0 0.4,0.1 l -0.1,0.2 c -0.1,0 -0.2,-0.1 -0.3,-0.1 -0.4,0 -0.6,0.3 -0.6,0.7 0,0.4 0.2,0.7 0.6,0.7 0.1,0 0.3,0 0.3,-0.1 z m 1.6,-0.8 c 0,0.6 -0.3,0.9 -0.8,0.9 -0.4,0 -0.7,-0.3 -0.7,-0.9 0,-0.5 0.3,-0.9 0.8,-0.9 0.4,0.1 0.7,0.4 0.7,0.9 z m -1.3,0.1 c 0,0.4 0.2,0.7 0.5,0.7 0.3,0 0.5,-0.3 0.5,-0.7 0,-0.3 -0.2,-0.7 -0.5,-0.7 -0.3,0 -0.5,0.3 -0.5,0.7 z m 2.9,0.1 v -0.7 c -0.1,0.2 -0.1,0.4 -0.2,0.6 l -0.3,0.8 H 42.6 L 42.3,215 c -0.1,-0.2 -0.1,-0.5 -0.2,-0.7 v 1.4 H 41.9 L 42,214 h 0.3 l 0.3,0.8 c 0.1,0.2 0.1,0.4 0.2,0.6 0,-0.2 0.1,-0.4 0.2,-0.6 l 0.3,-0.8 h 0.3 l 0.1,1.7 h -0.2 z m 0.6,-1 h 0.4 c 0.2,0 0.4,0 0.5,0.1 0.1,0.1 0.1,0.2 0.1,0.4 0,0.2 0,0.3 -0.1,0.4 -0.1,0.1 -0.3,0.2 -0.5,0.2 h -0.2 v 0.7 h -0.2 z m 0.2,0.8 h 0.2 c 0.3,0 0.4,-0.1 0.4,-0.4 0,-0.2 -0.2,-0.3 -0.4,-0.3 h -0.2 z m 1.2,-0.8 v 1 c 0,0.4 0.2,0.5 0.4,0.5 0.2,0 0.4,-0.2 0.4,-0.5 v -1 h 0.2 v 1 c 0,0.5 -0.3,0.7 -0.6,0.7 -0.3,0 -0.6,-0.2 -0.6,-0.7 v -1 z m 1.7,0.2 h -0.5 v -0.2 h 1.2 v 0.2 h -0.5 v 1.5 H 47 Z m 1.7,0.7 h -0.6 v 0.6 h 0.7 v 0.2 h -0.9 v -1.7 h 0.9 v 0.2 h -0.7 v 0.5 h 0.6 z m 0.3,-0.9 h 0.4 c 0.2,0 0.4,0 0.5,0.1 0.1,0.1 0.1,0.2 0.1,0.3 0,0.2 -0.1,0.4 -0.3,0.4 0.1,0 0.2,0.2 0.2,0.3 0.1,0.2 0.1,0.4 0.1,0.5 h -0.2 c 0,0 -0.1,-0.2 -0.1,-0.4 0,-0.2 -0.1,-0.3 -0.3,-0.3 h -0.2 v 0.7 H 49 Z m 0.3,0.8 h 0.2 c 0.2,0 0.4,-0.1 0.4,-0.3 0,-0.2 -0.2,-0.3 -0.4,-0.3 h -0.2 z"
     id="path104"
     inkscape:connector-curvature="0" />
  <g
     id="g108"
     style="fill:#af9c8b">
    <path
       d="m 225.5,140 h 0.2 v 0.9 c 0,0.4 -0.2,0.5 -0.4,0.5 h -0.2 v -0.1 h 0.1 c 0.2,0 0.2,-0.1 0.2,-0.3 v -1 z m 1.4,1.3 c -0.1,0 -0.2,0.1 -0.4,0.1 -0.4,0 -0.7,-0.2 -0.7,-0.7 0,-0.4 0.3,-0.7 0.7,-0.7 0.2,0 0.3,0 0.3,0.1 v 0.1 c -0.1,0 -0.2,-0.1 -0.3,-0.1 -0.3,0 -0.5,0.2 -0.5,0.6 0,0.3 0.2,0.5 0.5,0.5 0.1,0 0.2,0 0.3,-0.1 z m 0.6,-0.5 v 0.1 H 227 v -0.1 z m 0.6,-0.6 -0.2,0.1 v -0.1 l 0.3,-0.2 h 0.2 v 1.3 h -0.2 v -1.1 z m 0.6,1.2 v -0.1 l 0.1,-0.1 c 0.3,-0.3 0.5,-0.5 0.5,-0.7 0,-0.1 -0.1,-0.3 -0.3,-0.3 -0.1,0 -0.2,0.1 -0.3,0.1 l -0.1,-0.1 c 0.1,-0.1 0.2,-0.1 0.4,-0.1 0.3,0 0.4,0.2 0.4,0.4 0,0.2 -0.2,0.4 -0.4,0.7 l -0.1,0.1 h 0.6 v 0.1 z m 1.9,-0.7 c 0,0.4 -0.2,0.7 -0.5,0.7 -0.3,0 -0.4,-0.2 -0.4,-0.7 0,-0.4 0.2,-0.7 0.5,-0.7 0.2,0 0.4,0.3 0.4,0.7 z m -0.7,0 c 0,0.3 0.1,0.5 0.3,0.5 0.2,0 0.3,-0.2 0.3,-0.5 0,-0.3 -0.1,-0.5 -0.3,-0.5 -0.2,0 -0.3,0.2 -0.3,0.5 z m 0.9,0.7 v -0.1 l 0.1,-0.1 c 0.3,-0.3 0.5,-0.5 0.5,-0.7 0,-0.1 -0.1,-0.3 -0.3,-0.3 -0.1,0 -0.2,0.1 -0.3,0.1 l -0.1,-0.1 c 0.1,-0.1 0.2,-0.1 0.4,-0.1 0.3,0 0.4,0.2 0.4,0.4 0,0.2 -0.2,0.4 -0.4,0.7 l -0.1,0.1 h 0.6 v 0.1 z m 1,-1.4 h 0.4 c 0.3,0 0.4,0.1 0.5,0.2 0.1,0.1 0.2,0.3 0.2,0.5 0,0.2 -0.1,0.4 -0.2,0.5 -0.1,0.1 -0.3,0.2 -0.6,0.2 h -0.3 z m 0.2,1.2 h 0.2 c 0.4,0 0.6,-0.2 0.6,-0.6 0,-0.3 -0.2,-0.5 -0.5,-0.5 h -0.2 v 1.1 z m 1.3,-1.2 v 0.6 H 234 V 140 h 0.2 v 1.3 H 234 v -0.6 h -0.7 v 0.6 h -0.2 V 140 Z"
       id="path106"
       inkscape:connector-curvature="0" />
  </g>
  <path
     d="m 234.7,142.9 h -10 c -0.2,0 -0.3,-0.1 -0.3,-0.3 V 140 c 0,-0.2 0.1,-0.3 0.3,-0.3 h 10 c 0.2,0 0.3,0.1 0.3,0.3 v 2.6 c 0,0.2 -0.1,0.3 -0.3,0.3 z m -10,-3.2 c -0.1,0 -0.2,0.1 -0.2,0.2 v 2.6 c 0,0.1 0.1,0.2 0.2,0.2 h 10 c 0.1,0 0.2,-0.1 0.2,-0.2 V 140 c 0,-0.1 -0.1,-0.2 -0.2,-0.2 h -10 z"
     id="path110"
     inkscape:connector-curvature="0"
     style="fill:#af9c8b" />
  <path
     d="M 283.5,300.7 H 0 l 10.5,-62.3 c 0,-2.2 1.8,-4 4,-4 h 254.3 c 2.2,0 4,1.8 4,4 z"
     id="path112"
     inkscape:connector-curvature="0"
     style="fill:#cfc9bf" />
  <path
     d="M 276.3,291.2 H 8.4 c -0.9,0 -1.6,-0.9 -1.4,-1.8 l 6.9,-41.9 c 0,-1.6 1.8,-2.8 4,-2.8 h 248.6 c 2.2,0 4,1.3 4,2.8 l 7.3,41.9 c 0.1,0.9 -0.6,1.8 -1.5,1.8 z"
     id="path114"
     inkscape:connector-curvature="0"
     style="fill:#352b1b" />
  <path
     d="M 282.9,305.5 H 0.6 C 0.3,305.5 0,305.2 0,304.9 v -4.2 h 283.5 v 4.2 c 0,0.4 -0.2,0.6 -0.6,0.6 z"
     id="path116"
     inkscape:connector-curvature="0"
     style="fill:#958b7c" />
  <path
     d="M 281.2,309.5 H 2.3 c -0.4,0 -0.8,-0.4 -0.8,-0.8 l -0.9,-3.2 h 282.3 l -0.9,3.2 c 0.1,0.5 -0.3,0.8 -0.8,0.8 z"
     id="path118"
     inkscape:connector-curvature="0"
     style="fill:#908a7b" />
  <path
     d="m 188.3,254.8 -166.1,0.1 c -0.2,0 -0.3,0.1 -0.3,0.2 L 17.4,279 c 0,0.1 0.1,0.2 0.3,0.2 l 173.2,0.1 c 0.2,0 0.3,-0.1 0.3,-0.2 l -2.5,-24 c -0.1,-0.2 -0.2,-0.3 -0.4,-0.3 z"
     id="path120"
     inkscape:connector-curvature="0"
     style="fill:#0e0000" />
  <path
     d="M 168.4,285.7 H 39.6 c -0.2,0 -0.3,-0.1 -0.3,-0.3 l 0.6,-6.2 128.5,0.1 0.2,6.1 c 0.1,0.2 0,0.3 -0.2,0.3 z M 43.3,246 H 22.5 c -0.2,0 -0.3,0.1 -0.3,0.3 l -1.2,6.3 c 0,0.2 0.1,0.3 0.3,0.3 h 22.5 c 0.2,0 0.3,-0.1 0.3,-0.3 l -0.5,-6.3 c 0,-0.1 -0.1,-0.3 -0.3,-0.3 z m 72.1,0 H 49.5 c -0.5,0 -0.8,0.1 -0.8,0.3 l -1,6.3 c 0,0.2 0.4,0.3 0.8,0.3 h 67.3 c 0.5,0 0.8,-0.1 0.8,-0.3 l -0.4,-6.3 c 0.1,-0.1 -0.3,-0.3 -0.8,-0.3 z m 72.2,0 h -65 c -0.5,0 -0.8,0.1 -0.8,0.3 l -1,6.3 c 0,0.2 0.4,0.3 0.8,0.3 H 188 c 0.5,0 0.8,-0.1 0.8,-0.3 l -0.3,-6.3 c 0,-0.1 -0.4,-0.3 -0.9,-0.3 z m 7.3,39.4 -0.6,-18.1 c 0,-0.2 0.1,-0.3 0.3,-0.3 h 21.5 c 0.8,0 0.9,0.1 0.9,0.3 l 1.8,18.1 c 0,0.2 -0.1,0.3 -0.3,0.3 h -23.3 c -0.1,0 -0.3,-0.1 -0.3,-0.3 z m 20.6,-30.1 h -21.3 c -0.2,0 -0.3,0.1 -0.3,0.3 l 0.3,5.5 c 0,0.2 0.1,0.3 0.3,0.3 h 21.4 c 0.2,0 0.3,-0.1 0.3,-0.3 l -0.4,-5.5 c 0,-0.2 -0.2,-0.3 -0.3,-0.3 z m -1,-8.5 h -21.3 c -0.2,0 -0.3,0.1 -0.3,0.3 l 0.3,5.5 c 0,0.2 0.1,0.3 0.3,0.3 h 21.4 c 0.2,0 0.3,-0.1 0.3,-0.3 l -0.4,-5.5 c 0,-0.2 -0.1,-0.3 -0.3,-0.3 z m 53.9,38.9 h -43.8 c -0.1,0 -0.3,-0.1 -0.3,-0.2 l -2.7,-29.9 c 0,-0.2 0.1,-0.3 0.3,-0.3 h 43 c 0.1,0 0.3,0.1 0.3,0.2 l 3.6,29.9 c -0.1,0.1 -0.2,0.3 -0.4,0.3 z"
     id="path122"
     inkscape:connector-curvature="0"
     style="fill:#0e0000" />
  <path
     d="m 31.4,246.9 h -8.1 l -1.1,5.7 h 10.3 z"
     id="path124"
     inkscape:connector-curvature="0"
     style="fill:#241f16" />
  <path
     d="m 31.1,244.8 h -7.6 c -0.1,0 -0.3,0.1 -0.3,0.3 v 1.9 h 8.1 v -2 c 0.1,-0.1 0,-0.2 -0.2,-0.2 z"
     id="path126"
     inkscape:connector-curvature="0"
     style="fill:#282219" />
  <path
     d="m 31.4,245 1.1,3.4 v 4.2 l -1.1,-5.7 z m -8.1,0 -1.1,3.4 v 4.2 l 1.1,-5.7 z"
     id="path128"
     inkscape:connector-curvature="0"
     style="fill:#38312a" />
  <path
     d="m 42.3,246.9 h -8.1 l -1.1,5.7 h 10.4 z"
     id="path130"
     inkscape:connector-curvature="0"
     style="fill:#241f16" />
  <path
     d="m 42.1,244.8 h -7.6 c -0.1,0 -0.3,0.1 -0.3,0.3 v 1.9 h 8.1 v -2 c 0,-0.1 -0.1,-0.2 -0.2,-0.2 z"
     id="path132"
     inkscape:connector-curvature="0"
     style="fill:#282219" />
  <path
     d="m 42.3,245 1.2,3.4 v 4.2 l -1.2,-5.7 z m -8.1,0 -1.1,3.4 v 4.2 l 1.1,-5.7 z"
     id="path134"
     inkscape:connector-curvature="0"
     style="fill:#38312a" />
  <path
     d="m 60.5,247 h -10 l -1.5,5.7 h 12.9 z"
     id="path136"
     inkscape:connector-curvature="0"
     style="fill:#241f16" />
  <path
     d="m 60.2,244.9 h -9.4 c -0.2,0 -0.3,0.1 -0.3,0.3 v 1.8 h 10 v -1.8 c 0,-0.2 -0.2,-0.3 -0.3,-0.3 z"
     id="path138"
     inkscape:connector-curvature="0"
     style="fill:#282219" />
  <path
     d="m 60.5,245.1 1.4,3.4 v 4.2 L 60.5,247 Z m -10,0 -1.5,3.4 v 4.2 l 1.5,-5.7 z"
     id="path140"
     inkscape:connector-curvature="0"
     style="fill:#38312a" />
  <path
     d="m 73.8,247.1 h -10 l -1.4,5.6 h 12.8 z"
     id="path142"
     inkscape:connector-curvature="0"
     style="fill:#241f16" />
  <path
     d="m 73.5,244.9 h -9.4 c -0.2,0 -0.3,0.1 -0.3,0.3 v 1.8 h 10 v -1.8 c 0,-0.1 -0.1,-0.3 -0.3,-0.3 z"
     id="path144"
     inkscape:connector-curvature="0"
     style="fill:#282219" />
  <path
     d="m 73.8,245.2 1.4,3.4 v 4.1 l -1.4,-5.6 z m -10,0 -1.4,3.4 v 4.1 l 1.4,-5.6 z"
     id="path146"
     inkscape:connector-curvature="0"
     style="fill:#38312a" />
  <path
     d="m 87.5,247.1 h -10 l -1.4,5.6 H 89 Z"
     id="path148"
     inkscape:connector-curvature="0"
     style="fill:#241f16" />
  <path
     d="m 87.2,244.9 h -9.4 c -0.2,0 -0.3,0.1 -0.3,0.3 v 1.8 h 10 v -1.8 c 0,-0.1 -0.1,-0.3 -0.3,-0.3 z"
     id="path150"
     inkscape:connector-curvature="0"
     style="fill:#282219" />
  <path
     d="m 87.5,245.2 1.5,3.4 v 4.1 l -1.5,-5.6 z m -10,0 -1.4,3.4 v 4.1 l 1.4,-5.6 z"
     id="path152"
     inkscape:connector-curvature="0"
     style="fill:#38312a" />
  <path
     d="m 99.1,247.1 h -9.4 l -1.4,5.7 h 12.1 z"
     id="path154"
     inkscape:connector-curvature="0"
     style="fill:#241f16" />
  <path
     d="M 98.8,245 H 90 c -0.2,0 -0.3,0.1 -0.3,0.3 v 1.8 h 9.4 v -1.8 c 0,-0.2 -0.1,-0.3 -0.3,-0.3 z"
     id="path156"
     inkscape:connector-curvature="0"
     style="fill:#282219" />
  <path
     d="m 99.1,245.2 1.3,3.4 v 4.2 l -1.3,-5.7 z m -9.4,0 -1.4,3.4 v 4.2 l 1.4,-5.7 z"
     id="path158"
     inkscape:connector-curvature="0"
     style="fill:#38312a" />
  <path
     d="m 100.9,247.1 h -10 l -1.4,5.7 h 12.8 z"
     id="path160"
     inkscape:connector-curvature="0"
     style="fill:#241f16" />
  <path
     d="m 100.6,245 h -9.4 c -0.2,0 -0.3,0.1 -0.3,0.3 v 1.8 h 10 v -1.8 c 0,-0.2 -0.1,-0.3 -0.3,-0.3 z"
     id="path162"
     inkscape:connector-curvature="0"
     style="fill:#282219" />
  <path
     d="m 100.9,245.3 1.4,3.4 v 4.1 l -1.4,-5.7 z m -10,0 -1.4,3.4 v 4.1 l 1.4,-5.7 z"
     id="path164"
     inkscape:connector-curvature="0"
     style="fill:#38312a" />
  <path
     d="m 114.5,247.1 h -10.1 l -1.4,5.6 h 12.9 z"
     id="path166"
     inkscape:connector-curvature="0"
     style="fill:#241f16" />
  <path
     d="m 114.2,244.9 h -9.4 c -0.2,0 -0.3,0.1 -0.3,0.3 v 1.8 h 10 v -1.8 c 0,-0.1 -0.2,-0.3 -0.3,-0.3 z"
     id="path168"
     inkscape:connector-curvature="0"
     style="fill:#282219" />
  <path
     d="m 114.5,245.2 1.4,3.4 v 4.1 l -1.4,-5.6 z m -10.1,0 -1.4,3.4 v 4.1 l 1.4,-5.6 z"
     id="path170"
     inkscape:connector-curvature="0"
     style="fill:#38312a" />
  <path
     d="m 133.4,247 h -9.8 l -1.4,5.6 h 12.6 z"
     id="path172"
     inkscape:connector-curvature="0"
     style="fill:#241f16" />
  <path
     d="m 133.1,244.9 h -9.3 c -0.2,0 -0.3,0.1 -0.3,0.3 v 1.8 h 9.9 v -1.8 c 0,-0.2 -0.1,-0.3 -0.3,-0.3 z"
     id="path174"
     inkscape:connector-curvature="0"
     style="fill:#282219" />
  <path
     d="m 133.4,245.1 1.4,3.4 v 4.1 l -1.4,-5.6 z m -9.8,0 -1.4,3.4 v 4.1 l 1.4,-5.6 z"
     id="path176"
     inkscape:connector-curvature="0"
     style="fill:#38312a" />
  <path
     d="m 146.6,247 h -9.9 l -1.4,5.7 H 148 Z"
     id="path178"
     inkscape:connector-curvature="0"
     style="fill:#241f16" />
  <path
     d="M 146.3,244.9 H 137 c -0.2,0 -0.3,0.1 -0.3,0.3 v 1.8 h 9.9 v -1.8 c 0,-0.2 -0.1,-0.3 -0.3,-0.3 z"
     id="path180"
     inkscape:connector-curvature="0"
     style="fill:#282219" />
  <path
     d="m 146.6,245.2 1.4,3.4 v 4.1 l -1.4,-5.7 z m -9.9,0 -1.4,3.4 v 4.1 l 1.4,-5.7 z"
     id="path182"
     inkscape:connector-curvature="0"
     style="fill:#38312a" />
  <path
     d="m 160.2,247 h -9.9 l -1.4,5.7 h 12.7 z"
     id="path184"
     inkscape:connector-curvature="0"
     style="fill:#241f16" />
  <path
     d="m 159.9,244.9 h -9.3 c -0.2,0 -0.3,0.1 -0.3,0.3 v 1.8 h 9.9 v -1.8 c 0,-0.2 -0.2,-0.3 -0.3,-0.3 z"
     id="path186"
     inkscape:connector-curvature="0"
     style="fill:#282219" />
  <path
     d="m 160.2,245.2 1.4,3.4 v 4.1 l -1.4,-5.7 z m -9.9,0 -1.4,3.4 v 4.1 l 1.4,-5.7 z"
     id="path188"
     inkscape:connector-curvature="0"
     style="fill:#38312a" />
  <path
     d="m 173.4,247.1 h -9.9 l -1.4,5.6 h 12.7 z"
     id="path190"
     inkscape:connector-curvature="0"
     style="fill:#241f16" />
  <path
     d="m 173.1,245 h -9.3 c -0.2,0 -0.3,0.1 -0.3,0.3 v 1.8 h 9.9 v -1.8 c 0,-0.2 -0.2,-0.3 -0.3,-0.3 z"
     id="path192"
     inkscape:connector-curvature="0"
     style="fill:#282219" />
  <path
     d="m 173.4,245.2 1.4,3.4 v 4.1 l -1.4,-5.6 z m -9.9,0 -1.4,3.4 v 4.1 l 1.4,-5.6 z"
     id="path194"
     inkscape:connector-curvature="0"
     style="fill:#38312a" />
  <path
     d="m 186.7,247 h -9.9 l -1.4,5.7 h 12.7 z"
     id="path196"
     inkscape:connector-curvature="0"
     style="fill:#241f16" />
  <path
     d="m 186.4,244.9 h -9.3 c -0.2,0 -0.3,0.1 -0.3,0.3 v 1.8 h 9.9 v -1.8 c 0,-0.2 -0.1,-0.3 -0.3,-0.3 z"
     id="path198"
     inkscape:connector-curvature="0"
     style="fill:#282219" />
  <path
     d="m 186.7,245.2 1.4,3.4 v 4.1 l -1.4,-5.7 z m -9.9,0 -1.4,3.4 v 4.1 l 1.4,-5.7 z"
     id="path200"
     inkscape:connector-curvature="0"
     style="fill:#38312a" />
  <path
     d="m 202.7,247 h -7.6 l -1.1,5.7 h 9.8 z"
     id="path202"
     inkscape:connector-curvature="0"
     style="fill:#241f16" />
  <path
     d="m 202.5,244.9 h -7.1 c -0.1,0 -0.3,0.1 -0.3,0.3 v 1.9 h 7.6 v -1.9 c 0,-0.2 -0.1,-0.3 -0.2,-0.3 z"
     id="path204"
     inkscape:connector-curvature="0"
     style="fill:#282219" />
  <path
     d="m 202.7,245.2 1.1,3.4 v 4.1 l -1.1,-5.7 z m -7.6,0 -1.1,3.4 v 4.1 l 1.1,-5.7 z"
     id="path206"
     inkscape:connector-curvature="0"
     style="fill:#38312a" />
  <g
     id="g214">
    <path
       d="m 213.1,247 h -7.7 l -1.1,5.7 h 9.8 z"
       id="path208"
       inkscape:connector-curvature="0"
       style="fill:#241f16" />
    <path
       d="m 212.8,244.9 h -7.1 c -0.1,0 -0.3,0.1 -0.3,0.3 v 1.9 h 7.6 v -1.9 c 0.1,-0.2 -0.1,-0.3 -0.2,-0.3 z"
       id="path210"
       inkscape:connector-curvature="0"
       style="fill:#282219" />
    <path
       d="m 213.1,245.2 1,3.4 v 4.1 l -1,-5.7 z m -7.7,0 -1.1,3.4 v 4.1 l 1.1,-5.7 z"
       id="path212"
       inkscape:connector-curvature="0"
       style="fill:#38312a" />
  </g>
  <g
     id="g366">
    <path
       d="m 231.7,256.6 h -7.9 l -1.1,6.6 h 10.1 z"
       id="path216"
       inkscape:connector-curvature="0"
       style="fill:#241f16" />
    <path
       d="m 231.4,254.1 h -7.3 c -0.2,0 -0.3,0.1 -0.3,0.3 v 2.2 h 7.9 v -2.2 c 0,-0.1 -0.1,-0.3 -0.3,-0.3 z"
       id="path218"
       inkscape:connector-curvature="0"
       style="fill:#282219" />
    <path
       d="m 231.7,254.5 1.1,3.9 v 4.8 l -1.1,-6.6 z m -7.9,0 -1.1,3.9 v 4.8 l 1.1,-6.6 z"
       id="path220"
       inkscape:connector-curvature="0"
       style="fill:#38312a" />
    <path
       d="m 242.4,256.6 h -7.9 l -1.1,6.6 h 10.1 z"
       id="path222"
       inkscape:connector-curvature="0"
       style="fill:#241f16" />
    <path
       d="m 242.1,254.1 h -7.3 c -0.2,0 -0.3,0.1 -0.3,0.3 v 2.2 h 7.9 v -2.2 c 0,-0.1 -0.1,-0.3 -0.3,-0.3 z"
       id="path224"
       inkscape:connector-curvature="0"
       style="fill:#282219" />
    <path
       d="m 242.4,254.5 1.1,3.9 v 4.8 l -1.1,-6.6 z m -7.9,0 -1.1,3.9 v 4.8 l 1.1,-6.6 z"
       id="path226"
       inkscape:connector-curvature="0"
       style="fill:#38312a" />
    <path
       d="m 253.3,256.4 h -7.9 l -1.1,6.5 h 10.1 z"
       id="path228"
       inkscape:connector-curvature="0"
       style="fill:#241f16" />
    <path
       d="m 253,253.9 h -7.3 c -0.2,0 -0.3,0.1 -0.3,0.3 v 2.2 h 7.9 v -2.2 c 0,-0.2 -0.2,-0.3 -0.3,-0.3 z"
       id="path230"
       inkscape:connector-curvature="0"
       style="fill:#282219" />
    <path
       d="m 253.3,254.2 1.1,3.9 v 4.8 l -1.1,-6.5 z m -7.9,0 -1.1,3.9 v 4.8 l 1.1,-6.5 z"
       id="path232"
       inkscape:connector-curvature="0"
       style="fill:#38312a" />
    <path
       d="m 264,256.4 h -7.9 l -1.2,6.5 h 10.2 z"
       id="path234"
       inkscape:connector-curvature="0"
       style="fill:#241f16" />
    <path
       d="m 263.7,253.9 h -7.3 c -0.2,0 -0.3,0.1 -0.3,0.3 v 2.2 h 7.9 v -2.2 c 0,-0.2 -0.2,-0.3 -0.3,-0.3 z"
       id="path236"
       inkscape:connector-curvature="0"
       style="fill:#282219" />
    <path
       d="m 264,254.2 1.1,3.9 v 4.8 l -1.1,-6.5 z m -7.9,0 -1.2,3.9 v 4.8 l 1.2,-6.5 z"
       id="path238"
       inkscape:connector-curvature="0"
       style="fill:#38312a" />
    <path
       d="m 232.3,262.2 h -7.9 l -1.1,6.5 h 10.1 z"
       id="path240"
       inkscape:connector-curvature="0"
       style="fill:#706f6d" />
    <path
       d="m 232,259.7 h -7.3 c -0.2,0 -0.3,0.1 -0.3,0.3 v 2.2 h 7.9 V 260 c 0,-0.2 -0.1,-0.3 -0.3,-0.3 z"
       id="path242"
       inkscape:connector-curvature="0"
       style="fill:#9e9c9a" />
    <path
       d="m 232.3,260 1.1,3.9 v 4.8 l -1.1,-6.5 z m -7.9,0 -1.1,3.9 v 4.8 l 1.1,-6.5 z"
       id="path244"
       inkscape:connector-curvature="0"
       style="fill:#7a7874" />
    <g
       id="g252">
      <path
         d="m 243,262.2 h -7.9 l -1.1,6.5 h 10.1 z"
         id="path246"
         inkscape:connector-curvature="0"
         style="fill:#706f6d" />
      <path
         d="m 242.7,259.7 h -7.3 c -0.2,0 -0.3,0.1 -0.3,0.3 v 2.2 H 243 V 260 c 0,-0.2 -0.1,-0.3 -0.3,-0.3 z"
         id="path248"
         inkscape:connector-curvature="0"
         style="fill:#9e9c9a" />
      <path
         d="m 243,260 1.1,3.9 v 4.8 l -1.1,-6.5 z m -7.9,0 -1.1,3.9 v 4.8 l 1.1,-6.5 z"
         id="path250"
         inkscape:connector-curvature="0"
         style="fill:#7a7874" />
    </g>
    <g
       id="g260">
      <path
         d="M 253.9,261.9 H 246 l -1.2,6.6 H 255 Z"
         id="path254"
         inkscape:connector-curvature="0"
         style="fill:#706f6d" />
      <path
         d="m 253.6,259.4 h -7.3 c -0.2,0 -0.3,0.1 -0.3,0.3 v 2.2 h 7.9 v -2.2 c 0,-0.1 -0.2,-0.3 -0.3,-0.3 z"
         id="path256"
         inkscape:connector-curvature="0"
         style="fill:#9e9c9a" />
      <path
         d="m 253.9,259.7 1.1,4 v 4.8 l -1.1,-6.6 z m -7.9,0 -1.2,4 v 4.8 l 1.2,-6.6 z"
         id="path258"
         inkscape:connector-curvature="0"
         style="fill:#7a7874" />
    </g>
    <g
       id="g268">
      <path
         d="m 264.6,261.9 h -7.9 l -1.2,6.6 h 10.2 z"
         id="path262"
         inkscape:connector-curvature="0"
         style="fill:#241f16" />
      <path
         d="M 264.3,259.4 H 257 c -0.2,0 -0.3,0.1 -0.3,0.3 v 2.2 h 7.9 v -2.2 c 0,-0.1 -0.2,-0.3 -0.3,-0.3 z"
         id="path264"
         inkscape:connector-curvature="0"
         style="fill:#282219" />
      <path
         d="m 264.6,259.7 1.1,4 v 4.8 l -1.1,-6.6 z m -7.9,0 -1.2,4 v 4.8 l 1.2,-6.6 z"
         id="path266"
         inkscape:connector-curvature="0"
         style="fill:#38312a" />
    </g>
    <g
       id="g276">
      <path
         d="M 232.9,267.7 H 225 l -1.1,6.5 H 234 Z"
         id="path270"
         inkscape:connector-curvature="0"
         style="fill:#706f6d" />
      <path
         d="m 232.6,265.2 h -7.3 c -0.2,0 -0.3,0.1 -0.3,0.3 v 2.2 h 7.9 v -2.2 c 0,-0.2 -0.1,-0.3 -0.3,-0.3 z"
         id="path272"
         inkscape:connector-curvature="0"
         style="fill:#9e9c9a" />
      <path
         d="m 232.9,265.5 1.1,4 v 4.7 l -1.1,-6.5 z m -7.9,0 -1.1,4 v 4.7 l 1.1,-6.5 z"
         id="path274"
         inkscape:connector-curvature="0"
         style="fill:#7a7874" />
    </g>
    <g
       id="g284">
      <path
         d="m 243.6,267.7 h -7.9 l -1.1,6.5 h 10.1 z"
         id="path278"
         inkscape:connector-curvature="0"
         style="fill:#706f6d" />
      <path
         d="M 243.3,265.2 H 236 c -0.2,0 -0.3,0.1 -0.3,0.3 v 2.2 h 7.9 v -2.2 c 0,-0.2 -0.1,-0.3 -0.3,-0.3 z"
         id="path280"
         inkscape:connector-curvature="0"
         style="fill:#9e9c9a" />
      <path
         d="m 243.6,265.5 1.1,4 v 4.7 l -1.1,-6.5 z m -7.9,0 -1.1,4 v 4.7 l 1.1,-6.5 z"
         id="path282"
         inkscape:connector-curvature="0"
         style="fill:#7a7874" />
    </g>
    <g
       id="g292">
      <path
         d="m 254.5,267.4 h -7.9 l -1.2,6.6 h 10.2 z"
         id="path286"
         inkscape:connector-curvature="0"
         style="fill:#706f6d" />
      <path
         d="m 254.2,265 h -7.3 c -0.2,0 -0.3,0.1 -0.3,0.3 v 2.2 h 7.9 v -2.2 c 0,-0.2 -0.2,-0.3 -0.3,-0.3 z"
         id="path288"
         inkscape:connector-curvature="0"
         style="fill:#9e9c9a" />
      <path
         d="m 254.5,265.3 1.1,3.9 v 4.8 l -1.1,-6.6 z m -7.9,0 -1.2,3.9 v 4.8 l 1.2,-6.6 z"
         id="path290"
         inkscape:connector-curvature="0"
         style="fill:#7a7874" />
    </g>
    <g
       id="g300">
      <path
         d="m 265.2,267.4 h -7.9 l -1.2,6.6 h 10.2 z"
         id="path294"
         inkscape:connector-curvature="0"
         style="fill:#241f16" />
      <path
         d="m 264.9,265 h -7.3 c -0.2,0 -0.3,0.1 -0.3,0.3 v 2.2 h 7.9 v -2.2 c 0,-0.2 -0.2,-0.3 -0.3,-0.3 z"
         id="path296"
         inkscape:connector-curvature="0"
         style="fill:#282219" />
      <path
         d="m 265.2,265.3 1.1,3.9 v 4.8 l -1.1,-6.6 z m -7.9,0 -1.2,3.9 v 4.8 l 1.2,-6.6 z"
         id="path298"
         inkscape:connector-curvature="0"
         style="fill:#38312a" />
    </g>
    <g
       id="g308">
      <path
         d="m 233.5,273.2 h -7.9 l -1.1,6.5 h 10.1 z"
         id="path302"
         inkscape:connector-curvature="0"
         style="fill:#706f6d" />
      <path
         d="m 233.2,270.7 h -7.3 c -0.2,0 -0.3,0.1 -0.3,0.3 v 2.2 h 7.9 V 271 c 0,-0.2 -0.1,-0.3 -0.3,-0.3 z"
         id="path304"
         inkscape:connector-curvature="0"
         style="fill:#9e9c9a" />
      <path
         d="m 233.5,271 1.1,4 v 4.7 l -1.1,-6.5 z m -7.9,0 -1.1,4 v 4.7 l 1.1,-6.5 z"
         id="path306"
         inkscape:connector-curvature="0"
         style="fill:#7a7874" />
    </g>
    <g
       id="g316">
      <path
         d="m 244.2,273.2 h -7.9 l -1.1,6.5 h 10.1 z"
         id="path310"
         inkscape:connector-curvature="0"
         style="fill:#706f6d" />
      <path
         d="m 243.9,270.7 h -7.3 c -0.2,0 -0.3,0.1 -0.3,0.3 v 2.2 h 7.9 V 271 c 0,-0.2 -0.1,-0.3 -0.3,-0.3 z"
         id="path312"
         inkscape:connector-curvature="0"
         style="fill:#9e9c9a" />
      <path
         d="m 244.2,271 1.1,4 v 4.7 l -1.1,-6.5 z m -7.9,0 -1.1,4 v 4.7 l 1.1,-6.5 z"
         id="path314"
         inkscape:connector-curvature="0"
         style="fill:#7a7874" />
    </g>
    <g
       id="g324">
      <path
         d="m 255.1,272.9 h -7.9 l -1.2,6.6 h 10.2 z"
         id="path318"
         inkscape:connector-curvature="0"
         style="fill:#706f6d" />
      <path
         d="m 254.8,270.5 h -7.3 c -0.2,0 -0.3,0.1 -0.3,0.3 v 2.2 h 7.9 v -2.2 c 0,-0.2 -0.2,-0.3 -0.3,-0.3 z"
         id="path320"
         inkscape:connector-curvature="0"
         style="fill:#9e9c9a" />
      <path
         d="m 255.1,270.8 1.1,3.9 v 4.8 l -1.1,-6.6 z m -7.9,0 -1.2,3.9 v 4.8 l 1.2,-6.6 z"
         id="path322"
         inkscape:connector-curvature="0"
         style="fill:#7a7874" />
    </g>
    <g
       id="g332">
      <path
         d="m 265.8,272.9 h -8 l -1.1,6.6 h 10.2 z"
         id="path326"
         inkscape:connector-curvature="0"
         style="fill:#241f16" />
      <path
         d="m 265.5,270.5 h -7.3 c -0.2,0 -0.3,0.1 -0.3,0.3 v 2.2 h 7.9 v -2.2 c 0,-0.2 -0.2,-0.3 -0.3,-0.3 z"
         id="path328"
         inkscape:connector-curvature="0"
         style="fill:#282219" />
      <path
         d="m 265.8,270.8 1.1,3.9 v 4.8 l -1.1,-6.6 z m -7.9,0 -1.2,3.9 v 4.8 l 1.2,-6.6 z"
         id="path330"
         inkscape:connector-curvature="0"
         style="fill:#38312a" />
    </g>
    <g
       id="g340">
      <path
         d="m 234.1,278.7 h -7.9 l -1.2,6.6 h 10.2 z"
         id="path334"
         inkscape:connector-curvature="0"
         style="fill:#706f6d" />
      <path
         d="m 233.8,276.3 h -7.3 c -0.2,0 -0.3,0.1 -0.3,0.3 v 2.2 h 7.9 v -2.2 c 0,-0.2 -0.2,-0.3 -0.3,-0.3 z"
         id="path336"
         inkscape:connector-curvature="0"
         style="fill:#9e9c9a" />
      <path
         d="m 234.1,276.6 1.1,3.9 v 4.8 l -1.1,-6.6 z m -7.9,0 -1.2,3.9 v 4.8 l 1.2,-6.6 z"
         id="path338"
         inkscape:connector-curvature="0"
         style="fill:#7a7874" />
    </g>
    <g
       id="g348">
      <path
         d="m 244.8,278.7 h -8 l -1.1,6.6 h 10.2 z"
         id="path342"
         inkscape:connector-curvature="0"
         style="fill:#706f6d" />
      <path
         d="m 244.5,276.3 h -7.3 c -0.2,0 -0.3,0.1 -0.3,0.3 v 2.2 h 7.9 v -2.2 c 0,-0.2 -0.2,-0.3 -0.3,-0.3 z"
         id="path344"
         inkscape:connector-curvature="0"
         style="fill:#9e9c9a" />
      <path
         d="m 244.8,276.6 1.1,3.9 v 4.8 l -1.1,-6.6 z m -7.9,0 -1.2,3.9 v 4.8 l 1.2,-6.6 z"
         id="path346"
         inkscape:connector-curvature="0"
         style="fill:#7a7874" />
    </g>
    <g
       id="g356">
      <path
         d="m 255.6,278.5 h -7.9 l -1.1,6.5 h 10.2 z"
         id="path350"
         inkscape:connector-curvature="0"
         style="fill:#706f6d" />
      <path
         d="M 255.4,276 H 248 c -0.2,0 -0.3,0.1 -0.3,0.3 v 2.2 h 7.9 v -2.2 c 0,-0.2 -0.1,-0.3 -0.2,-0.3 z"
         id="path352"
         inkscape:connector-curvature="0"
         style="fill:#9e9c9a" />
      <path
         d="m 255.6,276.3 1.2,3.9 v 4.8 l -1.2,-6.5 z m -7.9,0 -1.1,3.9 v 4.8 l 1.1,-6.5 z"
         id="path354"
         inkscape:connector-curvature="0"
         style="fill:#7a7874" />
    </g>
    <g
       id="g364">
      <path
         d="m 266.3,278.5 h -7.9 l -1.1,6.5 h 10.2 z"
         id="path358"
         inkscape:connector-curvature="0"
         style="fill:#241f16" />
      <path
         d="m 266.1,276 h -7.3 c -0.2,0 -0.3,0.1 -0.3,0.3 v 2.2 h 7.9 v -2.2 c -0.1,-0.2 -0.2,-0.3 -0.3,-0.3 z"
         id="path360"
         inkscape:connector-curvature="0"
         style="fill:#282219" />
      <path
         d="m 266.3,276.3 1.2,3.9 v 4.8 l -1.2,-6.5 z m -7.9,0 -1.1,3.9 v 4.8 l 1.1,-6.5 z"
         id="path362"
         inkscape:connector-curvature="0"
         style="fill:#38312a" />
    </g>
  </g>
  <g
     id="g374">
    <path
       d="m 32.4,255.8 h -9 l -1.3,5.7 h 11.6 z"
       id="path368"
       inkscape:connector-curvature="0"
       style="fill:#241f16" />
    <path
       d="m 32.1,253.7 h -8.4 c -0.2,0 -0.3,0.1 -0.3,0.3 v 1.9 h 9 V 254 c 0,-0.2 -0.1,-0.3 -0.3,-0.3 z"
       id="path370"
       inkscape:connector-curvature="0"
       style="fill:#282219" />
    <path
       d="m 32.4,254 1.3,3.4 v 4.1 l -1.3,-5.7 z m -9,0 -1.3,3.4 v 4.1 l 1.3,-5.7 z"
       id="path372"
       inkscape:connector-curvature="0"
       style="fill:#38312a" />
  </g>
  <g
     id="g382">
    <path
       d="m 43.5,255.8 h -7.8 l -1.1,5.7 h 10 z"
       id="path376"
       inkscape:connector-curvature="0"
       style="fill:#706f6d" />
    <path
       d="M 43.2,253.7 H 36 c -0.1,0 -0.3,0.1 -0.3,0.3 v 1.9 h 7.8 V 254 c 0,-0.2 -0.1,-0.3 -0.3,-0.3 z"
       id="path378"
       inkscape:connector-curvature="0"
       style="fill:#9e9c9a" />
    <path
       d="m 43.5,254 1.1,3.4 v 4.1 l -1.1,-5.7 z m -7.8,0 -1.1,3.4 v 4.1 l 1.1,-5.7 z"
       id="path380"
       inkscape:connector-curvature="0"
       style="fill:#7a7874" />
  </g>
  <g
     id="g390">
    <path
       d="m 54.3,255.8 h -7.8 l -1.1,5.7 h 10 z"
       id="path384"
       inkscape:connector-curvature="0"
       style="fill:#706f6d" />
    <path
       d="m 54.1,253.7 h -7.3 c -0.1,0 -0.3,0.1 -0.3,0.3 v 1.9 h 7.8 V 254 c 0,-0.2 -0.1,-0.3 -0.2,-0.3 z"
       id="path386"
       inkscape:connector-curvature="0"
       style="fill:#9e9c9a" />
    <path
       d="m 54.3,254 1.1,3.4 v 4.1 l -1.1,-5.7 z m -7.8,0 -1.1,3.4 v 4.1 l 1.1,-5.7 z"
       id="path388"
       inkscape:connector-curvature="0"
       style="fill:#7a7874" />
  </g>
  <g
     id="g398">
    <path
       d="m 65.1,255.8 h -7.8 l -1,5.7 h 9.9 z"
       id="path392"
       inkscape:connector-curvature="0"
       style="fill:#706f6d" />
    <path
       d="m 64.9,253.7 h -7.3 c -0.1,0 -0.3,0.1 -0.3,0.3 v 1.9 h 7.8 V 254 c 0,-0.2 -0.1,-0.3 -0.2,-0.3 z"
       id="path394"
       inkscape:connector-curvature="0"
       style="fill:#9e9c9a" />
    <path
       d="m 65.1,254 1.1,3.4 v 4.1 l -1.1,-5.7 z m -7.7,0 -1.1,3.4 v 4.1 l 1.1,-5.7 z"
       id="path396"
       inkscape:connector-curvature="0"
       style="fill:#7a7874" />
  </g>
  <g
     id="g406">
    <path
       d="m 75.9,255.8 h -7.7 l -1.1,5.7 H 77 Z"
       id="path400"
       inkscape:connector-curvature="0"
       style="fill:#706f6d" />
    <path
       d="m 75.7,253.7 h -7.3 c -0.1,0 -0.3,0.1 -0.3,0.3 v 1.9 h 7.8 V 254 c 0,-0.2 -0.1,-0.3 -0.2,-0.3 z"
       id="path402"
       inkscape:connector-curvature="0"
       style="fill:#9e9c9a" />
    <path
       d="m 75.9,254 1.1,3.4 v 4.1 l -1.1,-5.7 z m -7.7,0 -1.1,3.4 v 4.1 l 1.1,-5.7 z"
       id="path404"
       inkscape:connector-curvature="0"
       style="fill:#7a7874" />
  </g>
  <g
     id="g414">
    <path
       d="M 86.7,256 H 79 l -1.1,5.6 h 9.9 z"
       id="path408"
       inkscape:connector-curvature="0"
       style="fill:#706f6d" />
    <path
       d="m 86.5,253.8 h -7.3 c -0.1,0 -0.3,0.1 -0.3,0.3 v 1.9 h 7.8 v -1.9 c 0,-0.1 -0.1,-0.3 -0.2,-0.3 z"
       id="path410"
       inkscape:connector-curvature="0"
       style="fill:#9e9c9a" />
    <path
       d="m 86.7,254.1 1.1,3.4 v 4.1 L 86.7,256 Z m -7.7,0 -1.1,3.4 v 4.1 L 79,256 Z"
       id="path412"
       inkscape:connector-curvature="0"
       style="fill:#7a7874" />
  </g>
  <g
     id="g422">
    <path
       d="m 97.5,256 h -7.7 l -1.1,5.6 h 9.9 z"
       id="path416"
       inkscape:connector-curvature="0"
       style="fill:#706f6d" />
    <path
       d="M 97.3,253.8 H 90 c -0.1,0 -0.3,0.1 -0.3,0.3 v 1.9 h 7.8 v -1.9 c 0,-0.1 -0.1,-0.3 -0.2,-0.3 z"
       id="path418"
       inkscape:connector-curvature="0"
       style="fill:#9e9c9a" />
    <path
       d="m 97.5,254.1 1.1,3.4 v 4.1 L 97.5,256 Z m -7.7,0 -1.1,3.4 v 4.1 l 1.1,-5.6 z"
       id="path420"
       inkscape:connector-curvature="0"
       style="fill:#7a7874" />
  </g>
  <g
     id="g430">
    <path
       d="m 108.4,256 h -7.8 l -1.1,5.6 h 10 z"
       id="path424"
       inkscape:connector-curvature="0"
       style="fill:#706f6d" />
    <path
       d="m 108.1,253.8 h -7.3 c -0.1,0 -0.3,0.1 -0.3,0.3 v 1.9 h 7.8 v -1.9 c 0.1,-0.1 -0.1,-0.3 -0.2,-0.3 z"
       id="path426"
       inkscape:connector-curvature="0"
       style="fill:#9e9c9a" />
    <path
       d="m 108.4,254.1 1.1,3.4 v 4.1 l -1.1,-5.6 z m -7.8,0 -1.1,3.4 v 4.1 l 1.1,-5.6 z"
       id="path428"
       inkscape:connector-curvature="0"
       style="fill:#7a7874" />
  </g>
  <g
     id="g438">
    <path
       d="m 119.2,256 h -7.8 l -1.1,5.6 h 10 z"
       id="path432"
       inkscape:connector-curvature="0"
       style="fill:#706f6d" />
    <path
       d="m 118.9,253.8 h -7.3 c -0.1,0 -0.3,0.1 -0.3,0.3 v 1.9 h 7.8 v -1.9 c 0.1,-0.1 0,-0.3 -0.2,-0.3 z"
       id="path434"
       inkscape:connector-curvature="0"
       style="fill:#9e9c9a" />
    <path
       d="m 119.2,254.1 1.1,3.4 v 4.1 l -1.1,-5.6 z m -7.8,0 -1.1,3.4 v 4.1 l 1.1,-5.6 z"
       id="path436"
       inkscape:connector-curvature="0"
       style="fill:#7a7874" />
  </g>
  <g
     id="g446">
    <path
       d="m 130,256 h -7.8 l -1.1,5.6 h 10 z"
       id="path440"
       inkscape:connector-curvature="0"
       style="fill:#706f6d" />
    <path
       d="m 129.7,253.8 h -7.3 c -0.1,0 -0.3,0.1 -0.3,0.3 v 1.9 h 7.8 v -1.9 c 0.1,-0.1 0,-0.3 -0.2,-0.3 z"
       id="path442"
       inkscape:connector-curvature="0"
       style="fill:#9e9c9a" />
    <path
       d="m 130,254.1 1.1,3.4 v 4.1 L 130,256 Z m -7.8,0 -1.1,3.4 v 4.1 l 1.1,-5.6 z"
       id="path444"
       inkscape:connector-curvature="0"
       style="fill:#7a7874" />
  </g>
  <g
     id="g454">
    <path
       d="M 140.8,256 H 133 l -1.1,5.6 h 10 z"
       id="path448"
       inkscape:connector-curvature="0"
       style="fill:#706f6d" />
    <path
       d="m 140.5,253.8 h -7.3 c -0.1,0 -0.3,0.1 -0.3,0.3 v 1.9 h 7.8 v -1.9 c 0.1,-0.1 0,-0.3 -0.2,-0.3 z"
       id="path450"
       inkscape:connector-curvature="0"
       style="fill:#9e9c9a" />
    <path
       d="m 140.8,254.1 1.1,3.4 v 4.1 l -1.1,-5.6 z m -7.8,0 -1.1,3.4 v 4.1 L 133,256 Z"
       id="path452"
       inkscape:connector-curvature="0"
       style="fill:#7a7874" />
  </g>
  <g
     id="g462">
    <path
       d="m 151.6,256 h -7.8 l -1.1,5.6 h 10 z"
       id="path456"
       inkscape:connector-curvature="0"
       style="fill:#706f6d" />
    <path
       d="M 151.3,253.8 H 144 c -0.1,0 -0.3,0.1 -0.3,0.3 v 1.9 h 7.8 v -1.9 c 0.1,-0.1 0,-0.3 -0.2,-0.3 z"
       id="path458"
       inkscape:connector-curvature="0"
       style="fill:#9e9c9a" />
    <path
       d="m 151.6,254.1 1.1,3.4 v 4.1 l -1.1,-5.6 z m -7.8,0 -1.1,3.4 v 4.1 l 1.1,-5.6 z"
       id="path460"
       inkscape:connector-curvature="0"
       style="fill:#7a7874" />
  </g>
  <g
     id="g470">
    <path
       d="m 162.4,256 h -7.8 l -1.1,5.6 h 10 z"
       id="path464"
       inkscape:connector-curvature="0"
       style="fill:#706f6d" />
    <path
       d="m 162.1,253.8 h -7.3 c -0.1,0 -0.3,0.1 -0.3,0.3 v 1.9 h 7.8 v -1.9 c 0.1,-0.1 0,-0.3 -0.2,-0.3 z"
       id="path466"
       inkscape:connector-curvature="0"
       style="fill:#9e9c9a" />
    <path
       d="m 162.4,254.1 1.1,3.4 v 4.1 l -1.1,-5.6 z m -7.8,0 -1.1,3.4 v 4.1 l 1.1,-5.6 z"
       id="path468"
       inkscape:connector-curvature="0"
       style="fill:#7a7874" />
  </g>
  <g
     id="g478">
    <path
       d="m 173.2,256 h -7.8 l -1.1,5.6 h 10 z"
       id="path472"
       inkscape:connector-curvature="0"
       style="fill:#706f6d" />
    <path
       d="m 172.9,253.8 h -7.3 c -0.1,0 -0.3,0.1 -0.3,0.3 v 1.9 h 7.8 v -1.9 c 0.1,-0.1 0,-0.3 -0.2,-0.3 z"
       id="path474"
       inkscape:connector-curvature="0"
       style="fill:#9e9c9a" />
    <path
       d="m 173.2,254.1 1.1,3.4 v 4.1 l -1.1,-5.6 z m -7.8,0 -1.1,3.4 v 4.1 l 1.1,-5.6 z"
       id="path476"
       inkscape:connector-curvature="0"
       style="fill:#7a7874" />
  </g>
  <g
     id="g486">
    <path
       d="m 186.7,256 h -10.1 l -1.4,5.6 h 12.9 z"
       id="path480"
       inkscape:connector-curvature="0"
       style="fill:#241f16" />
    <path
       d="m 186.4,253.8 h -9.5 c -0.2,0 -0.3,0.1 -0.3,0.3 v 1.8 h 10.1 v -1.8 c 0,-0.1 -0.1,-0.3 -0.3,-0.3 z"
       id="path482"
       inkscape:connector-curvature="0"
       style="fill:#282219" />
    <path
       d="m 186.7,254.1 1.4,3.4 v 4.1 l -1.4,-5.6 z m -10.1,0 -1.4,3.4 v 4.1 l 1.4,-5.6 z"
       id="path484"
       inkscape:connector-curvature="0"
       style="fill:#38312a" />
  </g>
  <g
     id="g494">
    <path
       d="M 48.8,260.9 H 41 l -1.1,5.7 h 10 z"
       id="path488"
       inkscape:connector-curvature="0"
       style="fill:#706f6d" />
    <path
       d="m 48.5,258.8 h -7.3 c -0.1,0 -0.3,0.1 -0.3,0.3 v 1.9 h 7.8 v -1.9 c 0.1,-0.2 0,-0.3 -0.2,-0.3 z"
       id="path490"
       inkscape:connector-curvature="0"
       style="fill:#9e9c9a" />
    <path
       d="m 48.8,259.1 1.1,3.4 v 4.1 l -1.1,-5.7 z m -7.8,0 -1.1,3.4 v 4.1 l 1.1,-5.7 z"
       id="path492"
       inkscape:connector-curvature="0"
       style="fill:#7a7874" />
  </g>
  <g
     id="g502">
    <path
       d="m 59.6,260.9 h -7.8 l -1.1,5.7 h 10 z"
       id="path496"
       inkscape:connector-curvature="0"
       style="fill:#706f6d" />
    <path
       d="M 59.3,258.8 H 52 c -0.1,0 -0.3,0.1 -0.3,0.3 v 1.9 h 7.8 v -1.9 c 0.1,-0.2 0,-0.3 -0.2,-0.3 z"
       id="path498"
       inkscape:connector-curvature="0"
       style="fill:#9e9c9a" />
    <path
       d="m 59.6,259.1 1.1,3.4 v 4.1 l -1.1,-5.7 z m -7.8,0 -1.1,3.4 v 4.1 l 1.1,-5.7 z"
       id="path500"
       inkscape:connector-curvature="0"
       style="fill:#7a7874" />
  </g>
  <g
     id="g510">
    <path
       d="m 70.4,260.9 h -7.8 l -1.1,5.7 h 10 z"
       id="path504"
       inkscape:connector-curvature="0"
       style="fill:#706f6d" />
    <path
       d="m 70.1,258.8 h -7.3 c -0.1,0 -0.3,0.1 -0.3,0.3 v 1.9 h 7.8 v -1.9 c 0.1,-0.2 0,-0.3 -0.2,-0.3 z"
       id="path506"
       inkscape:connector-curvature="0"
       style="fill:#9e9c9a" />
    <path
       d="m 70.4,259.1 1.1,3.4 v 4.1 l -1.1,-5.7 z m -7.8,0 -1.1,3.4 v 4.1 l 1.1,-5.7 z"
       id="path508"
       inkscape:connector-curvature="0"
       style="fill:#7a7874" />
  </g>
  <g
     id="g518">
    <path
       d="m 81.2,260.9 h -7.8 l -1.1,5.7 h 10 z"
       id="path512"
       inkscape:connector-curvature="0"
       style="fill:#706f6d" />
    <path
       d="m 80.9,258.8 h -7.3 c -0.1,0 -0.3,0.1 -0.3,0.3 v 1.9 h 7.8 v -1.9 c 0.1,-0.2 0,-0.3 -0.2,-0.3 z"
       id="path514"
       inkscape:connector-curvature="0"
       style="fill:#9e9c9a" />
    <path
       d="m 81.2,259.1 1.1,3.4 v 4.1 l -1.1,-5.7 z m -7.8,0 -1.1,3.4 v 4.1 l 1.1,-5.7 z"
       id="path516"
       inkscape:connector-curvature="0"
       style="fill:#7a7874" />
  </g>
  <g
     id="g526">
    <path
       d="m 92,261.1 h -7.8 l -1.1,5.6 h 10 z"
       id="path520"
       inkscape:connector-curvature="0"
       style="fill:#706f6d" />
    <path
       d="m 91.7,258.9 h -7.3 c -0.1,0 -0.3,0.1 -0.3,0.3 v 1.9 H 92 v -1.9 c 0,-0.1 -0.1,-0.3 -0.3,-0.3 z"
       id="path522"
       inkscape:connector-curvature="0"
       style="fill:#9e9c9a" />
    <path
       d="m 92,259.2 1.1,3.4 v 4.1 L 92,261.1 Z m -7.8,0 -1.1,3.4 v 4.1 l 1.1,-5.6 z"
       id="path524"
       inkscape:connector-curvature="0"
       style="fill:#7a7874" />
  </g>
  <g
     id="g534">
    <path
       d="M 102.8,261.1 H 95 l -1.1,5.6 h 10 z"
       id="path528"
       inkscape:connector-curvature="0"
       style="fill:#706f6d" />
    <path
       d="m 102.5,258.9 h -7.3 c -0.1,0 -0.3,0.1 -0.3,0.3 v 1.9 h 7.8 v -1.9 c 0.1,-0.1 0,-0.3 -0.2,-0.3 z"
       id="path530"
       inkscape:connector-curvature="0"
       style="fill:#9e9c9a" />
    <path
       d="m 102.8,259.2 1.1,3.4 v 4.1 l -1.1,-5.6 z m -7.8,0 -1.1,3.4 v 4.1 l 1.1,-5.6 z"
       id="path532"
       inkscape:connector-curvature="0"
       style="fill:#7a7874" />
  </g>
  <g
     id="g542">
    <path
       d="m 113.6,261.1 h -7.7 l -1.1,5.6 h 9.9 z"
       id="path536"
       inkscape:connector-curvature="0"
       style="fill:#706f6d" />
    <path
       d="m 113.4,258.9 h -7.3 c -0.1,0 -0.3,0.1 -0.3,0.3 v 1.9 h 7.8 v -1.9 c 0,-0.1 -0.1,-0.3 -0.2,-0.3 z"
       id="path538"
       inkscape:connector-curvature="0"
       style="fill:#9e9c9a" />
    <path
       d="m 113.6,259.2 1.1,3.4 v 4.1 l -1.1,-5.6 z m -7.7,0 -1.1,3.4 v 4.1 l 1.1,-5.6 z"
       id="path540"
       inkscape:connector-curvature="0"
       style="fill:#7a7874" />
  </g>
  <g
     id="g550">
    <path
       d="m 124.4,261.1 h -7.7 l -1.1,5.6 h 9.9 z"
       id="path544"
       inkscape:connector-curvature="0"
       style="fill:#706f6d" />
    <path
       d="m 124.2,258.9 h -7.3 c -0.1,0 -0.3,0.1 -0.3,0.3 v 1.9 h 7.8 v -1.9 c 0,-0.1 -0.1,-0.3 -0.2,-0.3 z"
       id="path546"
       inkscape:connector-curvature="0"
       style="fill:#9e9c9a" />
    <path
       d="m 124.4,259.2 1.1,3.4 v 4.1 l -1.1,-5.6 z m -7.7,0 -1.1,3.4 v 4.1 l 1.1,-5.6 z"
       id="path548"
       inkscape:connector-curvature="0"
       style="fill:#7a7874" />
  </g>
  <g
     id="g558">
    <path
       d="m 135.2,261.1 h -7.7 l -1.1,5.6 h 9.9 z"
       id="path552"
       inkscape:connector-curvature="0"
       style="fill:#706f6d" />
    <path
       d="m 135,258.9 h -7.3 c -0.1,0 -0.3,0.1 -0.3,0.3 v 1.9 h 7.8 v -1.9 c 0,-0.1 -0.1,-0.3 -0.2,-0.3 z"
       id="path554"
       inkscape:connector-curvature="0"
       style="fill:#9e9c9a" />
    <path
       d="m 135.2,259.2 1.1,3.4 v 4.1 l -1.1,-5.6 z m -7.7,0 -1.1,3.4 v 4.1 l 1.1,-5.6 z"
       id="path556"
       inkscape:connector-curvature="0"
       style="fill:#7a7874" />
  </g>
  <g
     id="g566">
    <path
       d="m 146.1,261.1 h -7.8 l -1.1,5.6 h 9.9 z"
       id="path560"
       inkscape:connector-curvature="0"
       style="fill:#706f6d" />
    <path
       d="m 145.8,258.9 h -7.3 c -0.1,0 -0.3,0.1 -0.3,0.3 v 1.9 h 7.8 v -1.9 c 0.1,-0.1 -0.1,-0.3 -0.2,-0.3 z"
       id="path562"
       inkscape:connector-curvature="0"
       style="fill:#9e9c9a" />
    <path
       d="m 146.1,259.2 1,3.4 v 4.1 l -1,-5.6 z m -7.8,0 -1.1,3.4 v 4.1 l 1.1,-5.6 z"
       id="path564"
       inkscape:connector-curvature="0"
       style="fill:#7a7874" />
  </g>
  <g
     id="g574">
    <path
       d="m 156.9,261.1 h -7.8 l -1.1,5.6 h 10 z"
       id="path568"
       inkscape:connector-curvature="0"
       style="fill:#706f6d" />
    <path
       d="m 156.6,258.9 h -7.3 c -0.1,0 -0.3,0.1 -0.3,0.3 v 1.9 h 7.8 v -1.9 c 0.1,-0.1 -0.1,-0.3 -0.2,-0.3 z"
       id="path570"
       inkscape:connector-curvature="0"
       style="fill:#9e9c9a" />
    <path
       d="m 156.9,259.2 1.1,3.4 v 4.1 l -1.1,-5.6 z m -7.8,0 -1.1,3.4 v 4.1 l 1.1,-5.6 z"
       id="path572"
       inkscape:connector-curvature="0"
       style="fill:#7a7874" />
  </g>
  <g
     id="g582">
    <path
       d="m 167.7,261.1 h -7.8 l -1.1,5.6 h 10 z"
       id="path576"
       inkscape:connector-curvature="0"
       style="fill:#706f6d" />
    <path
       d="m 167.4,258.9 h -7.3 c -0.1,0 -0.3,0.1 -0.3,0.3 v 1.9 h 7.8 v -1.9 c 0.1,-0.1 -0.1,-0.3 -0.2,-0.3 z"
       id="path578"
       inkscape:connector-curvature="0"
       style="fill:#9e9c9a" />
    <path
       d="m 167.7,259.2 1.1,3.4 v 4.1 l -1.1,-5.6 z m -7.8,0 -1.1,3.4 v 4.1 l 1.1,-5.6 z"
       id="path580"
       inkscape:connector-curvature="0"
       style="fill:#7a7874" />
  </g>
  <g
     id="g590">
    <path
       d="m 51.5,267.5 h -7.9 l -1.1,5.7 h 10.1 z"
       id="path584"
       inkscape:connector-curvature="0"
       style="fill:#706f6d" />
    <path
       d="m 51.3,265.4 h -7.4 c -0.1,0 -0.3,0.1 -0.3,0.3 v 1.9 h 7.9 v -1.9 c 0,-0.2 -0.1,-0.3 -0.2,-0.3 z"
       id="path586"
       inkscape:connector-curvature="0"
       style="fill:#9e9c9a" />
    <path
       d="m 51.5,265.6 1.1,3.4 v 4.2 l -1.1,-5.7 z m -7.9,0 -1.1,3.4 v 4.2 l 1.1,-5.7 z"
       id="path588"
       inkscape:connector-curvature="0"
       style="fill:#7a7874" />
  </g>
  <g
     id="g598">
    <path
       d="m 62.6,267.5 h -8 l -1.1,5.7 h 10.2 z"
       id="path592"
       inkscape:connector-curvature="0"
       style="fill:#706f6d" />
    <path
       d="m 62.3,265.4 h -7.4 c -0.1,0 -0.3,0.1 -0.3,0.3 v 1.9 h 7.9 v -1.9 c 0.1,-0.2 -0.1,-0.3 -0.2,-0.3 z"
       id="path594"
       inkscape:connector-curvature="0"
       style="fill:#9e9c9a" />
    <path
       d="m 62.6,265.6 1.1,3.4 v 4.2 l -1.1,-5.7 z m -8,0 -1.1,3.4 v 4.2 l 1.1,-5.7 z"
       id="path596"
       inkscape:connector-curvature="0"
       style="fill:#7a7874" />
  </g>
  <g
     id="g606">
    <path
       d="m 73.6,267.5 h -7.9 l -1.2,5.7 h 10.2 z"
       id="path600"
       inkscape:connector-curvature="0"
       style="fill:#706f6d" />
    <path
       d="m 73.3,265.4 h -7.4 c -0.1,0 -0.3,0.1 -0.3,0.3 v 1.9 h 7.9 v -1.9 c 0.1,-0.2 0,-0.3 -0.2,-0.3 z"
       id="path602"
       inkscape:connector-curvature="0"
       style="fill:#9e9c9a" />
    <path
       d="m 73.6,265.6 1.1,3.4 v 4.2 l -1.1,-5.7 z m -7.9,0 -1.2,3.4 v 4.2 l 1.2,-5.7 z"
       id="path604"
       inkscape:connector-curvature="0"
       style="fill:#7a7874" />
  </g>
  <g
     id="g614">
    <path
       d="m 84.6,267.5 h -7.9 l -1.1,5.7 h 10.2 z"
       id="path608"
       inkscape:connector-curvature="0"
       style="fill:#706f6d" />
    <path
       d="M 84.4,265.4 H 77 c -0.1,0 -0.3,0.1 -0.3,0.3 v 1.9 h 7.9 v -1.9 c 0,-0.2 -0.1,-0.3 -0.2,-0.3 z"
       id="path610"
       inkscape:connector-curvature="0"
       style="fill:#9e9c9a" />
    <path
       d="m 84.6,265.6 1.2,3.4 v 4.2 l -1.2,-5.7 z m -7.9,0 -1.1,3.4 v 4.2 l 1.1,-5.7 z"
       id="path612"
       inkscape:connector-curvature="0"
       style="fill:#7a7874" />
  </g>
  <g
     id="g622">
    <path
       d="m 95.7,267.6 h -8 l -1.1,5.7 h 10.2 z"
       id="path616"
       inkscape:connector-curvature="0"
       style="fill:#706f6d" />
    <path
       d="M 95.4,265.5 H 88 c -0.1,0 -0.3,0.1 -0.3,0.3 v 1.9 h 7.9 v -1.9 c 0.1,-0.2 0,-0.3 -0.2,-0.3 z"
       id="path618"
       inkscape:connector-curvature="0"
       style="fill:#9e9c9a" />
    <path
       d="m 95.7,265.8 1.1,3.4 v 4.1 l -1.1,-5.7 z m -8,0 -1.1,3.4 v 4.1 l 1.1,-5.7 z"
       id="path620"
       inkscape:connector-curvature="0"
       style="fill:#7a7874" />
  </g>
  <g
     id="g630">
    <path
       d="m 106.7,267.6 h -7.9 l -1.1,5.7 h 10.1 z"
       id="path624"
       inkscape:connector-curvature="0"
       style="fill:#706f6d" />
    <path
       d="M 106.4,265.5 H 99 c -0.1,0 -0.3,0.1 -0.3,0.3 v 1.9 h 7.9 v -1.9 c 0.1,-0.2 0,-0.3 -0.2,-0.3 z"
       id="path626"
       inkscape:connector-curvature="0"
       style="fill:#9e9c9a" />
    <path
       d="m 106.7,265.8 1.1,3.4 v 4.1 l -1.1,-5.7 z m -7.9,0 -1.1,3.4 v 4.1 l 1.1,-5.7 z"
       id="path628"
       inkscape:connector-curvature="0"
       style="fill:#7a7874" />
  </g>
  <g
     id="g638">
    <path
       d="m 117.8,267.6 h -8 l -1.1,5.7 h 10.2 z"
       id="path632"
       inkscape:connector-curvature="0"
       style="fill:#706f6d" />
    <path
       d="m 117.5,265.5 h -7.4 c -0.1,0 -0.3,0.1 -0.3,0.3 v 1.9 h 7.9 v -1.9 c 0.1,-0.2 -0.1,-0.3 -0.2,-0.3 z"
       id="path634"
       inkscape:connector-curvature="0"
       style="fill:#9e9c9a" />
    <path
       d="m 117.8,265.8 1.1,3.4 v 4.1 l -1.1,-5.7 z m -8,0 -1.1,3.4 v 4.1 l 1.1,-5.7 z"
       id="path636"
       inkscape:connector-curvature="0"
       style="fill:#7a7874" />
  </g>
  <g
     id="g646">
    <path
       d="m 128.8,267.6 h -7.9 l -1.2,5.7 h 10.2 z"
       id="path640"
       inkscape:connector-curvature="0"
       style="fill:#706f6d" />
    <path
       d="m 128.5,265.5 h -7.4 c -0.1,0 -0.3,0.1 -0.3,0.3 v 1.9 h 7.9 v -1.9 c 0.1,-0.2 0,-0.3 -0.2,-0.3 z"
       id="path642"
       inkscape:connector-curvature="0"
       style="fill:#9e9c9a" />
    <path
       d="m 128.8,265.8 1.1,3.4 v 4.1 l -1.1,-5.7 z m -7.9,0 -1.2,3.4 v 4.1 l 1.2,-5.7 z"
       id="path644"
       inkscape:connector-curvature="0"
       style="fill:#7a7874" />
  </g>
  <g
     id="g654">
    <path
       d="m 139.8,267.6 h -7.9 l -1.1,5.7 h 10.1 z"
       id="path648"
       inkscape:connector-curvature="0"
       style="fill:#706f6d" />
    <path
       d="m 139.6,265.5 h -7.4 c -0.1,0 -0.3,0.1 -0.3,0.3 v 1.9 h 7.9 v -1.9 c 0,-0.2 -0.1,-0.3 -0.2,-0.3 z"
       id="path650"
       inkscape:connector-curvature="0"
       style="fill:#9e9c9a" />
    <path
       d="m 139.8,265.8 1.1,3.4 v 4.1 l -1.1,-5.7 z m -7.9,0 -1.1,3.4 v 4.1 l 1.1,-5.7 z"
       id="path652"
       inkscape:connector-curvature="0"
       style="fill:#7a7874" />
  </g>
  <g
     id="g662">
    <path
       d="m 150.9,267.6 h -8 l -1.1,5.7 H 152 Z"
       id="path656"
       inkscape:connector-curvature="0"
       style="fill:#706f6d" />
    <path
       d="m 150.6,265.5 h -7.4 c -0.1,0 -0.3,0.1 -0.3,0.3 v 1.9 h 7.9 v -1.9 c 0.1,-0.2 -0.1,-0.3 -0.2,-0.3 z"
       id="path658"
       inkscape:connector-curvature="0"
       style="fill:#9e9c9a" />
    <path
       d="m 150.9,265.8 1.1,3.4 v 4.1 l -1.1,-5.7 z m -8,0 -1.1,3.4 v 4.1 l 1.1,-5.7 z"
       id="path660"
       inkscape:connector-curvature="0"
       style="fill:#7a7874" />
  </g>
  <g
     id="g670">
    <path
       d="M 161.9,267.6 H 154 l -1.2,5.7 H 163 Z"
       id="path664"
       inkscape:connector-curvature="0"
       style="fill:#706f6d" />
    <path
       d="m 161.6,265.5 h -7.4 c -0.1,0 -0.3,0.1 -0.3,0.3 v 1.9 h 7.9 v -1.9 c 0.1,-0.2 0,-0.3 -0.2,-0.3 z"
       id="path666"
       inkscape:connector-curvature="0"
       style="fill:#9e9c9a" />
    <path
       d="m 161.9,265.8 1.1,3.4 v 4.1 l -1.1,-5.7 z m -7.9,0 -1.2,3.4 v 4.1 l 1.2,-5.7 z"
       id="path668"
       inkscape:connector-curvature="0"
       style="fill:#7a7874" />
  </g>
  <g
     id="g678">
    <path
       d="m 53.8,273 h -8.1 l -1.1,5.7 H 55 Z"
       id="path672"
       inkscape:connector-curvature="0"
       style="fill:#706f6d" />
    <path
       d="M 53.6,270.9 H 46 c -0.1,0 -0.3,0.1 -0.3,0.3 v 1.9 h 8.1 v -1.9 c 0,-0.2 -0.1,-0.3 -0.2,-0.3 z"
       id="path674"
       inkscape:connector-curvature="0"
       style="fill:#9e9c9a" />
    <path
       d="m 53.8,271.2 1.2,3.3 v 4.2 L 53.8,273 Z m -8,0 -1.2,3.3 v 4.2 l 1.2,-5.7 z"
       id="path676"
       inkscape:connector-curvature="0"
       style="fill:#7a7874" />
  </g>
  <g
     id="g686">
    <path
       d="M 65.1,273 H 57 l -1.1,5.7 h 10.3 z"
       id="path680"
       inkscape:connector-curvature="0"
       style="fill:#706f6d" />
    <path
       d="m 64.8,270.9 h -7.6 c -0.1,0 -0.3,0.1 -0.3,0.3 v 1.9 H 65 v -1.9 c 0.1,-0.2 0,-0.3 -0.2,-0.3 z"
       id="path682"
       inkscape:connector-curvature="0"
       style="fill:#9e9c9a" />
    <path
       d="m 65.1,271.2 1.1,3.3 v 4.2 L 65.1,273 Z m -8.1,0 -1.1,3.3 v 4.2 L 57,273 Z"
       id="path684"
       inkscape:connector-curvature="0"
       style="fill:#7a7874" />
  </g>
  <g
     id="g694">
    <path
       d="m 76.3,273 h -8.1 l -1.1,5.7 h 10.4 z"
       id="path688"
       inkscape:connector-curvature="0"
       style="fill:#706f6d" />
    <path
       d="m 76.1,270.9 h -7.6 c -0.1,0 -0.3,0.1 -0.3,0.3 v 1.9 h 8.1 v -1.9 c 0,-0.2 -0.1,-0.3 -0.2,-0.3 z"
       id="path690"
       inkscape:connector-curvature="0"
       style="fill:#9e9c9a" />
    <path
       d="m 76.3,271.2 1.2,3.3 v 4.2 L 76.3,273 Z m -8,0 -1.2,3.3 v 4.2 l 1.2,-5.7 z"
       id="path692"
       inkscape:connector-curvature="0"
       style="fill:#7a7874" />
  </g>
  <g
     id="g702">
    <path
       d="m 87.6,273 h -8.1 l -1.1,5.7 h 10.3 z"
       id="path696"
       inkscape:connector-curvature="0"
       style="fill:#706f6d" />
    <path
       d="m 87.3,270.9 h -7.6 c -0.1,0 -0.3,0.1 -0.3,0.3 v 1.9 h 8.1 v -1.9 c 0.1,-0.2 0,-0.3 -0.2,-0.3 z"
       id="path698"
       inkscape:connector-curvature="0"
       style="fill:#9e9c9a" />
    <path
       d="m 87.6,271.2 1.1,3.3 v 4.2 L 87.6,273 Z m -8.1,0 -1.1,3.3 v 4.2 l 1.1,-5.7 z"
       id="path700"
       inkscape:connector-curvature="0"
       style="fill:#7a7874" />
  </g>
  <g
     id="g710">
    <path
       d="m 98.8,273.2 h -8.1 l -1.1,5.6 H 100 Z"
       id="path704"
       inkscape:connector-curvature="0"
       style="fill:#706f6d" />
    <path
       d="M 98.6,271 H 91 c -0.1,0 -0.3,0.1 -0.3,0.3 v 1.9 h 8.1 v -1.9 c 0,-0.2 -0.1,-0.3 -0.2,-0.3 z"
       id="path706"
       inkscape:connector-curvature="0"
       style="fill:#9e9c9a" />
    <path
       d="m 98.8,271.3 1.2,3.4 v 4.1 l -1.2,-5.6 z m -8,0 -1.2,3.4 v 4.1 l 1.2,-5.6 z"
       id="path708"
       inkscape:connector-curvature="0"
       style="fill:#7a7874" />
  </g>
  <g
     id="g718">
    <path
       d="M 110.1,273.2 H 102 l -1.1,5.6 h 10.3 z"
       id="path712"
       inkscape:connector-curvature="0"
       style="fill:#706f6d" />
    <path
       d="m 109.8,271 h -7.6 c -0.1,0 -0.3,0.1 -0.3,0.3 v 1.9 h 8.1 v -1.9 c 0.1,-0.2 0,-0.3 -0.2,-0.3 z"
       id="path714"
       inkscape:connector-curvature="0"
       style="fill:#9e9c9a" />
    <path
       d="m 110.1,271.3 1.1,3.4 v 4.1 l -1.1,-5.6 z m -8.1,0 -1.1,3.4 v 4.1 l 1.1,-5.6 z"
       id="path716"
       inkscape:connector-curvature="0"
       style="fill:#7a7874" />
  </g>
  <g
     id="g726">
    <path
       d="m 121.4,273.2 h -8.1 l -1.2,5.6 h 10.4 z"
       id="path720"
       inkscape:connector-curvature="0"
       style="fill:#706f6d" />
    <path
       d="m 121.1,271 h -7.6 c -0.1,0 -0.3,0.1 -0.3,0.3 v 1.9 h 8.1 v -1.9 c 0.1,-0.2 -0.1,-0.3 -0.2,-0.3 z"
       id="path722"
       inkscape:connector-curvature="0"
       style="fill:#9e9c9a" />
    <path
       d="m 121.4,271.3 1.1,3.4 v 4.1 l -1.1,-5.6 z m -8.1,0 -1.2,3.4 v 4.1 l 1.2,-5.6 z"
       id="path724"
       inkscape:connector-curvature="0"
       style="fill:#7a7874" />
  </g>
  <g
     id="g734">
    <path
       d="m 132.6,273.2 h -8.1 l -1.1,5.6 h 10.4 z"
       id="path728"
       inkscape:connector-curvature="0"
       style="fill:#706f6d" />
    <path
       d="m 132.3,271 h -7.6 c -0.1,0 -0.3,0.1 -0.3,0.3 v 1.9 h 8.1 v -1.9 c 0.1,-0.2 0,-0.3 -0.2,-0.3 z"
       id="path730"
       inkscape:connector-curvature="0"
       style="fill:#9e9c9a" />
    <path
       d="m 132.6,271.3 1.2,3.4 v 4.1 l -1.2,-5.6 z m -8.1,0 -1.1,3.4 v 4.1 l 1.1,-5.6 z"
       id="path732"
       inkscape:connector-curvature="0"
       style="fill:#7a7874" />
  </g>
  <g
     id="g742">
    <path
       d="m 143.9,273.2 h -8.1 l -1.2,5.6 H 145 Z"
       id="path736"
       inkscape:connector-curvature="0"
       style="fill:#706f6d" />
    <path
       d="M 143.6,271 H 136 c -0.1,0 -0.3,0.1 -0.3,0.3 v 1.9 h 8.1 v -1.9 c 0.1,-0.2 -0.1,-0.3 -0.2,-0.3 z"
       id="path738"
       inkscape:connector-curvature="0"
       style="fill:#9e9c9a" />
    <path
       d="m 143.9,271.3 1.1,3.4 v 4.1 l -1.1,-5.6 z m -8.1,0 -1.2,3.4 v 4.1 l 1.2,-5.6 z"
       id="path740"
       inkscape:connector-curvature="0"
       style="fill:#7a7874" />
  </g>
  <g
     id="g750">
    <path
       d="M 155.1,273.2 H 147 l -1.1,5.6 h 10.4 z"
       id="path744"
       inkscape:connector-curvature="0"
       style="fill:#706f6d" />
    <path
       d="m 154.8,271 h -7.6 c -0.1,0 -0.3,0.1 -0.3,0.3 v 1.9 h 8.1 v -1.9 c 0.1,-0.2 0,-0.3 -0.2,-0.3 z"
       id="path746"
       inkscape:connector-curvature="0"
       style="fill:#9e9c9a" />
    <path
       d="m 155.1,271.3 1.2,3.4 v 4.1 l -1.2,-5.6 z m -8.1,0 -1.1,3.4 v 4.1 l 1.1,-5.6 z"
       id="path748"
       inkscape:connector-curvature="0"
       style="fill:#7a7874" />
  </g>
  <g
     id="g762">
    <path
       d="m 187.9,267.6 h -11.3 l 0.1,-4 h -5.3 v -3.7 c 0,-0.2 0.1,-0.3 0.3,-0.3 h 15.9 c 0.2,0 0.3,0.1 0.3,0.3 z"
       id="path752"
       inkscape:connector-curvature="0"
       style="fill:#282219" />
    <path
       d="m 187.9,267.6 h -11.3 l -1.5,5.6 h 14.3 z"
       id="path754"
       inkscape:connector-curvature="0"
       style="fill:#241f16" />
    <path
       d="m 171.4,259.9 -1.5,3.4 v 3.4 l 1.5,-3.1 z"
       id="path756"
       inkscape:connector-curvature="0"
       style="fill:#38312a" />
    <path
       d="m 169.9,266.7 h 5.2 l 1.6,-3.1 h -5.3 z"
       id="path758"
       inkscape:connector-curvature="0"
       style="fill:#241f16" />
    <path
       d="m 176.7,263.6 -1.6,3.1 v 6.5 l 1.5,-5.6 z m 11.2,-3.7 1,3.1 0.5,10.2 -1.5,-5.6 z"
       id="path760"
       inkscape:connector-curvature="0"
       style="fill:#38312a" />
  </g>
  <g
     id="g770">
    <path
       d="M 172.9,267.6 H 165 l -1.1,5.7 h 10.2 z"
       id="path764"
       inkscape:connector-curvature="0"
       style="fill:#706f6d" />
    <path
       d="m 172.7,265.5 h -7.4 c -0.1,0 -0.3,0.1 -0.3,0.3 v 1.9 h 7.9 v -1.9 c 0,-0.2 -0.1,-0.3 -0.2,-0.3 z"
       id="path766"
       inkscape:connector-curvature="0"
       style="fill:#9e9c9a" />
    <path
       d="m 172.9,265.8 1.2,3.4 v 4.1 l -1.2,-5.7 z m -7.9,0 -1.1,3.4 v 4.1 l 1.1,-5.7 z"
       id="path768"
       inkscape:connector-curvature="0"
       style="fill:#7a7874" />
  </g>
  <g
     id="g778">
    <path
       d="m 166.4,273.2 h -8.1 l -1.2,5.6 h 10.4 z"
       id="path772"
       inkscape:connector-curvature="0"
       style="fill:#706f6d" />
    <path
       d="m 166.1,271 h -7.6 c -0.1,0 -0.3,0.1 -0.3,0.3 v 1.9 h 8.1 v -1.9 c 0.1,-0.2 -0.1,-0.3 -0.2,-0.3 z"
       id="path774"
       inkscape:connector-curvature="0"
       style="fill:#9e9c9a" />
    <path
       d="m 166.4,271.3 1.1,3.4 v 4.1 l -1.1,-5.6 z m -8.1,0 -1.2,3.4 v 4.1 l 1.2,-5.6 z"
       id="path776"
       inkscape:connector-curvature="0"
       style="fill:#7a7874" />
  </g>
  <g
     id="g786">
    <path
       d="m 188.6,273.3 h -18.3 l -1.5,5.6 H 190 Z"
       id="path780"
       inkscape:connector-curvature="0"
       style="fill:#241f16" />
    <path
       d="m 188.2,271.2 h -17.5 c -0.2,0 -0.4,0.2 -0.4,0.4 v 1.7 h 18.3 v -1.7 c 0,-0.3 -0.2,-0.4 -0.4,-0.4 z"
       id="path782"
       inkscape:connector-curvature="0"
       style="fill:#282219" />
    <path
       d="m 188.6,271.4 1.4,3.4 v 4.1 l -1.4,-5.6 z m -18.3,0 -1.5,3.4 v 4.1 l 1.5,-5.6 z"
       id="path784"
       inkscape:connector-curvature="0"
       style="fill:#38312a" />
  </g>
  <g
     id="g794">
    <path
       d="m 203.5,255.4 h -7.6 l -1.1,5.7 h 9.8 z"
       id="path788"
       inkscape:connector-curvature="0"
       style="fill:#241f16" />
    <path
       d="m 203.3,253.3 h -7.1 c -0.1,0 -0.3,0.1 -0.3,0.3 v 1.9 h 7.6 v -1.9 c 0,-0.2 -0.1,-0.3 -0.2,-0.3 z"
       id="path790"
       inkscape:connector-curvature="0"
       style="fill:#282219" />
    <path
       d="m 203.5,253.6 1.1,3.3 v 4.2 l -1.1,-5.7 z m -7.6,0 -1.1,3.3 v 4.2 l 1.1,-5.7 z"
       id="path792"
       inkscape:connector-curvature="0"
       style="fill:#38312a" />
  </g>
  <g
     id="g802">
    <path
       d="m 213.9,255.4 h -7.7 l -1,5.7 h 9.7 z"
       id="path796"
       inkscape:connector-curvature="0"
       style="fill:#241f16" />
    <path
       d="m 213.6,253.3 h -7.1 c -0.1,0 -0.3,0.1 -0.3,0.3 v 1.9 h 7.6 v -1.9 c 0.1,-0.2 -0.1,-0.3 -0.2,-0.3 z"
       id="path798"
       inkscape:connector-curvature="0"
       style="fill:#282219" />
    <path
       d="m 213.9,253.6 1,3.3 v 4.2 l -1,-5.7 z m -7.7,0 -1,3.3 v 4.2 l 1,-5.7 z"
       id="path800"
       inkscape:connector-curvature="0"
       style="fill:#38312a" />
  </g>
  <g
     id="g810">
    <path
       d="m 204.3,267.4 h -8.1 l -1.1,5.6 h 10.3 z"
       id="path804"
       inkscape:connector-curvature="0"
       style="fill:#241f16" />
    <path
       d="m 204,265.3 h -7.5 c -0.1,0 -0.3,0.1 -0.3,0.3 v 1.9 h 8.1 v -1.9 c 0,-0.2 -0.1,-0.3 -0.3,-0.3 z"
       id="path806"
       inkscape:connector-curvature="0"
       style="fill:#282219" />
    <path
       d="m 204.3,265.5 1.1,3.4 v 4.1 l -1.1,-5.6 z m -8.1,0 -1.1,3.4 v 4.1 l 1.1,-5.6 z"
       id="path808"
       inkscape:connector-curvature="0"
       style="fill:#38312a" />
  </g>
  <g
     id="g818">
    <path
       d="m 215.2,267.4 h -8.1 L 206,273 h 10.3 z"
       id="path812"
       inkscape:connector-curvature="0"
       style="fill:#241f16" />
    <path
       d="m 214.9,265.3 h -7.5 c -0.1,0 -0.3,0.1 -0.3,0.3 v 1.9 h 8.1 v -1.9 c 0,-0.2 -0.1,-0.3 -0.3,-0.3 z"
       id="path814"
       inkscape:connector-curvature="0"
       style="fill:#282219" />
    <path
       d="m 215.2,265.5 1.1,3.4 v 4.1 l -1.1,-5.6 z m -8.1,0 -1.1,3.4 v 4.1 l 1.1,-5.6 z"
       id="path816"
       inkscape:connector-curvature="0"
       style="fill:#38312a" />
  </g>
  <g
     id="g826">
    <path
       d="m 204.9,273.4 h -8.1 l -1.1,5.7 H 206 Z"
       id="path820"
       inkscape:connector-curvature="0"
       style="fill:#241f16" />
    <path
       d="m 204.6,271.3 h -7.5 c -0.1,0 -0.3,0.1 -0.3,0.3 v 1.9 h 8.1 v -1.9 c 0,-0.2 -0.2,-0.3 -0.3,-0.3 z"
       id="path822"
       inkscape:connector-curvature="0"
       style="fill:#282219" />
    <path
       d="m 204.9,271.5 1.1,3.4 v 4.2 l -1.1,-5.7 z m -8.1,0 -1.1,3.4 v 4.2 l 1.1,-5.7 z"
       id="path824"
       inkscape:connector-curvature="0"
       style="fill:#38312a" />
  </g>
  <g
     id="g834">
    <path
       d="m 215.8,273.4 h -8.1 l -1.1,5.7 h 10.3 z"
       id="path828"
       inkscape:connector-curvature="0"
       style="fill:#241f16" />
    <path
       d="M 215.5,271.3 H 208 c -0.1,0 -0.3,0.1 -0.3,0.3 v 1.9 h 8.1 v -1.9 c 0,-0.2 -0.2,-0.3 -0.3,-0.3 z"
       id="path830"
       inkscape:connector-curvature="0"
       style="fill:#282219" />
    <path
       d="m 215.8,271.5 1.1,3.4 v 4.2 l -1.1,-5.7 z m -8.1,0 -1.1,3.4 v 4.2 l 1.1,-5.7 z"
       id="path832"
       inkscape:connector-curvature="0"
       style="fill:#38312a" />
  </g>
  <g
     id="g842">
    <path
       d="m 216.1,279.6 h -18.7 l -1.5,5.7 h 21.7 z"
       id="path836"
       inkscape:connector-curvature="0"
       style="fill:#241f16" />
    <path
       d="m 215.7,277.5 h -17.9 c -0.2,0 -0.4,0.2 -0.4,0.4 v 1.7 h 18.8 v -1.7 c -0.1,-0.2 -0.2,-0.4 -0.5,-0.4 z"
       id="path838"
       inkscape:connector-curvature="0"
       style="fill:#282219" />
    <path
       d="m 216.1,277.8 1.5,3.4 v 4.1 l -1.5,-5.7 z m -18.7,0 -1.5,3.4 v 4.1 l 1.5,-5.7 z"
       id="path840"
       inkscape:connector-curvature="0"
       style="fill:#38312a" />
  </g>
  <g
     id="g850">
    <path
       d="M 37.8,261.1 H 22.6 l -1.3,5.6 H 39 Z"
       id="path844"
       inkscape:connector-curvature="0"
       style="fill:#241f16" />
    <path
       d="M 37.4,258.9 H 22.9 c -0.2,0 -0.4,0.2 -0.4,0.4 v 1.8 h 15.2 v -1.8 c 0.1,-0.2 -0.1,-0.4 -0.3,-0.4 z"
       id="path846"
       inkscape:connector-curvature="0"
       style="fill:#282219" />
    <path
       d="m 37.8,259.2 1.2,3.4 v 4.1 l -1.2,-5.6 z m -15.2,0 -1.3,3.4 v 4.1 l 1.3,-5.6 z"
       id="path848"
       inkscape:connector-curvature="0"
       style="fill:#38312a" />
  </g>
  <g
     id="g858">
    <path
       d="M 29.3,267.6 H 21 l -1.1,5.7 h 10.6 z"
       id="path852"
       inkscape:connector-curvature="0"
       style="fill:#241f16" />
    <path
       d="m 29,265.5 h -7.7 c -0.1,0 -0.3,0.1 -0.3,0.3 v 1.9 h 8.3 v -1.9 c 0,-0.2 -0.1,-0.3 -0.3,-0.3 z"
       id="path854"
       inkscape:connector-curvature="0"
       style="fill:#282219" />
    <path
       d="m 29.3,265.8 1.2,3.4 v 4.1 l -1.2,-5.7 z m -8.3,0 -1.1,3.4 v 4.1 l 1.1,-5.7 z"
       id="path856"
       inkscape:connector-curvature="0"
       style="fill:#38312a" />
  </g>
  <g
     id="g866">
    <path
       d="m 40.5,267.6 h -8.3 l -1.1,5.7 h 10.6 z"
       id="path860"
       inkscape:connector-curvature="0"
       style="fill:#241f16" />
    <path
       d="m 40.2,265.5 h -7.7 c -0.1,0 -0.3,0.1 -0.3,0.3 v 1.9 h 8.3 v -1.9 c 0,-0.2 -0.1,-0.3 -0.3,-0.3 z"
       id="path862"
       inkscape:connector-curvature="0"
       style="fill:#282219" />
    <path
       d="m 40.5,265.8 1.2,3.4 v 4.1 l -1.2,-5.7 z m -8.3,0 -1.1,3.4 v 4.1 l 1.1,-5.7 z"
       id="path864"
       inkscape:connector-curvature="0"
       style="fill:#38312a" />
  </g>
  <g
     id="g874">
    <path
       d="M 41.8,273.2 H 20.4 l -1.7,5.6 h 24.8 z"
       id="path868"
       inkscape:connector-curvature="0"
       style="fill:#241f16" />
    <path
       d="M 41.4,271 H 20.8 c -0.2,0 -0.4,0.2 -0.4,0.4 v 1.7 h 21.4 v -1.7 c 0,-0.2 -0.2,-0.4 -0.4,-0.4 z"
       id="path870"
       inkscape:connector-curvature="0"
       style="fill:#282219" />
    <path
       d="m 41.8,271.3 1.7,3.4 v 4.1 l -1.7,-5.6 z m -21.4,0 -1.7,3.4 v 4.1 l 1.7,-5.6 z"
       id="path872"
       inkscape:connector-curvature="0"
       style="fill:#38312a" />
  </g>
  <g
     id="g882">
    <path
       d="m 49.8,279.9 h -8.1 l -1.1,5.6 H 51 Z"
       id="path876"
       inkscape:connector-curvature="0"
       style="fill:#241f16" />
    <path
       d="M 49.6,277.7 H 42 c -0.1,0 -0.3,0.1 -0.3,0.3 v 1.9 h 8.1 V 278 c 0,-0.1 -0.1,-0.3 -0.2,-0.3 z"
       id="path878"
       inkscape:connector-curvature="0"
       style="fill:#282219" />
    <path
       d="m 49.8,278 1.2,3.4 v 4.1 l -1.2,-5.6 z m -8.1,0 -1.1,3.4 v 4.1 l 1.1,-5.6 z"
       id="path880"
       inkscape:connector-curvature="0"
       style="fill:#38312a" />
  </g>
  <g
     id="g890">
    <path
       d="m 60.8,279.9 h -8.1 l -1.2,5.6 h 10.4 z"
       id="path884"
       inkscape:connector-curvature="0"
       style="fill:#241f16" />
    <path
       d="m 60.5,277.7 h -7.6 c -0.1,0 -0.3,0.1 -0.3,0.3 v 1.9 h 8.1 V 278 c 0.1,-0.1 0,-0.3 -0.2,-0.3 z"
       id="path886"
       inkscape:connector-curvature="0"
       style="fill:#282219" />
    <path
       d="m 60.8,278 1.1,3.4 v 4.1 l -1.1,-5.6 z m -8.1,0 -1.2,3.4 v 4.1 l 1.2,-5.6 z"
       id="path888"
       inkscape:connector-curvature="0"
       style="fill:#38312a" />
  </g>
  <g
     id="g898">
    <path
       d="m 166.9,279.8 h -14.3 l -1.2,5.6 h 16.7 z"
       id="path892"
       inkscape:connector-curvature="0"
       style="fill:#241f16" />
    <path
       d="m 166.6,277.6 h -13.7 c -0.2,0 -0.4,0.2 -0.4,0.4 v 1.8 h 14.4 V 278 c 0,-0.2 -0.1,-0.4 -0.3,-0.4 z"
       id="path894"
       inkscape:connector-curvature="0"
       style="fill:#282219" />
    <path
       d="m 166.9,277.9 1.2,3.4 v 4.1 l -1.2,-5.6 z m -14.3,0 -1.2,3.4 v 4.1 l 1.2,-5.6 z"
       id="path896"
       inkscape:connector-curvature="0"
       style="fill:#38312a" />
  </g>
  <g
     id="g906">
    <path
       d="M 149.8,279.9 H 63.6 l -1.1,5.6 h 88.4 z"
       id="path900"
       inkscape:connector-curvature="0"
       style="fill:#706f6d" />
    <path
       d="M 149.5,277.8 H 63.9 c -0.1,0 -0.3,0.1 -0.3,0.3 v 1.9 h 86.1 v -2 c 0.1,-0.1 -0.1,-0.2 -0.2,-0.2 z"
       id="path902"
       inkscape:connector-curvature="0"
       style="fill:#9e9c9a" />
    <path
       d="m 149.8,278 1.1,3.4 v 4.1 l -1.1,-5.6 z m -86.2,0 -1.1,3.4 v 4.1 l 1.1,-5.6 z"
       id="path904"
       inkscape:connector-curvature="0"
       style="fill:#7a7874" />
  </g>
  <g
     id="g920">
    <g
       id="g910"
       style="fill:#1b1610">
      <path
         d="m 231.8,240.6 0.5,-0.7 -0.4,-0.1 0.8,-0.2 1.8,0.5 0.5,-0.5 0.8,0.1 -0.7,0.1 -0.6,0.8 -2,-0.6 -0.2,0.3 0.4,0.2 z m 5.6,-0.9 h 1 c 0.2,0 0.2,0 0.3,0.1 0.1,0 0.2,0.1 0.2,0.1 l 0.3,-0.3 h -3.2 0.4 l -0.1,0.1 -0.2,0.3 h -0.3 0.2 l -0.2,0.2 -0.1,0.1 h -0.3 3 l 0.2,-0.3 -0.4,0.2 c -0.2,0 -0.5,0.1 -0.8,0.1 h -0.4 -0.1 l 0.1,-0.1 0.2,-0.2 h 0.6 c 0.1,0 0.2,0.1 0.2,0.1 l 0.3,-0.4 c -0.1,0.1 -0.3,0.1 -0.4,0.1 h -0.7 z m 4.1,0.8 0.6,-0.3 c 0,0 -0.7,0.1 -1.2,0.1 -0.5,0 -1,-0.1 -0.9,-0.3 0.1,-0.3 1.3,-0.4 1.3,-0.4 l 0.5,0.2 h 0.5 l -0.4,-0.3 c 0,0 -0.7,0 -1.4,0.1 -0.7,0.1 -1.5,0.3 -1.4,0.5 0.2,0.5 1.7,0.4 1.9,0.4 0.1,0.1 0.5,0 0.5,0 z"
         id="path908"
         inkscape:connector-curvature="0" />
    </g>
    <path
       d="m 243.3,239.6 h 0.6 v 1.9 h -0.6 z"
       id="path912"
       inkscape:connector-curvature="0"
       style="fill:#1b1610" />
    <path
       d="m 244.7,239.6 h 1.2 c 0.6,0 1,0 1.3,0.1 0.3,0.1 0.4,0.1 0.4,0.2 0,0.1 -0.1,0.2 -0.4,0.3 -0.3,0.1 -0.8,0.1 -1.4,0.1 h -0.5 v 0.5 h -0.6 z m 0.6,0.6 h 0.5 c 0.7,0 1.2,-0.1 1.2,-0.3 0,-0.2 -0.4,-0.2 -1.1,-0.2 h -0.6 z m 6.5,0.6 c -0.2,0 -0.7,0.1 -1.2,0.1 -1.3,0 -2.3,-0.2 -2.3,-0.6 0,-0.4 1,-0.6 2.5,-0.6 0.6,0 1,0 1.1,0.1 l -0.1,0.1 h -1 c -1.1,0 -1.8,0.2 -1.8,0.5 0,0.3 0.7,0.5 1.8,0.5 h 1 z m 2.1,-0.5 v 0.1 h -1.7 v -0.1 z m 0.9,0.4 h 0.5 c 0.4,0 0.7,0 1,-0.1 0.3,-0.1 0.5,-0.2 0.6,-0.3 -0.3,0.1 -0.6,0.1 -1.1,0.1 -0.8,0 -1.3,-0.2 -1.3,-0.4 0,-0.2 0.6,-0.4 1.6,-0.4 0.9,0 1.5,0.2 1.5,0.5 0,0.3 -0.3,0.4 -0.8,0.5 -0.4,0.1 -0.8,0.1 -1.3,0.2 h -0.6 v -0.1 z m 0.2,-0.6 c 0,0.1 0.3,0.2 0.9,0.2 0.4,0 0.7,-0.1 0.9,-0.1 0,0 0.1,0 0.1,-0.1 0,-0.2 -0.3,-0.3 -0.9,-0.3 -0.6,0 -1,0.1 -1,0.3 z m 3,0.4 c 0,-0.1 0.3,-0.2 0.9,-0.3 -0.5,-0.1 -0.7,-0.2 -0.7,-0.3 0,-0.2 0.6,-0.3 1.4,-0.3 0.9,0 1.3,0.1 1.3,0.3 0,0.1 -0.2,0.2 -0.8,0.3 0.6,0.1 0.9,0.2 0.9,0.3 0,0.2 -0.7,0.3 -1.6,0.3 -0.8,0 -1.4,-0.1 -1.4,-0.3 z m 2.5,0 c 0,-0.1 -0.4,-0.2 -1,-0.3 -0.5,0 -0.8,0.1 -0.8,0.2 0,0.1 0.3,0.2 0.9,0.2 0.5,0.1 0.9,0 0.9,-0.1 z m -1.7,-0.6 c 0,0.1 0.3,0.2 0.9,0.2 0.4,0 0.7,-0.1 0.7,-0.2 0,-0.1 -0.2,-0.2 -0.8,-0.2 -0.6,0.1 -0.8,0.1 -0.8,0.2 z m 5.9,0.3 c 0,0.4 -0.6,0.6 -1.6,0.6 -0.9,0 -1.5,-0.2 -1.5,-0.6 0,-0.4 0.7,-0.6 1.6,-0.6 0.9,0.1 1.5,0.3 1.5,0.6 z m -2.5,0.1 c 0,0.3 0.4,0.5 0.9,0.5 0.6,0 0.9,-0.2 0.9,-0.5 0,-0.3 -0.3,-0.5 -0.9,-0.5 -0.5,0 -0.9,0.1 -0.9,0.5 z m 4.4,-0.5 -0.8,0.1 -0.1,-0.1 1,-0.1 h 0.5 v 1.2 h -0.6 z"
       id="path914"
       inkscape:connector-curvature="0" />
    <g
       id="g918">
      <path
         d="m 244.7,241 h 0.9 c 0.1,0 0.1,0.1 0.1,0.1 0,0 0,0.1 -0.1,0.1 h -0.7 v 0.2 h -0.2 z m 0.2,0.2 h 0.2 c 0.3,0 0.4,0 0.4,-0.1 0,-0.1 -0.2,-0.1 -0.4,-0.1 h -0.2 z m 1.9,0.1 h -0.6 v 0.2 h 0.7 -0.9 V 241 h 0.9 -0.7 v 0.1 z m 0.4,-0.3 h 0.9 c 0.1,0 0.1,0 0.1,0.1 0,0.1 -0.1,0.1 -0.3,0.1 0.1,0 0.2,0 0.2,0.1 l 0.1,0.1 H 248 c 0,0 -0.1,0 -0.1,-0.1 0,-0.1 -0.1,-0.1 -0.3,-0.1 h -0.2 v 0.2 h -0.2 z m 0.2,0.2 h 0.2 c 0.2,0 0.4,0 0.4,-0.1 0,-0.1 -0.2,-0.1 -0.4,-0.1 h -0.2 z m 1.1,0.2 h 0.4 c 0.2,0 0.3,0 0.3,-0.1 0,0 -0.1,-0.1 -0.3,-0.1 -0.3,0 -0.4,-0.1 -0.4,-0.1 0,-0.1 0.2,-0.1 0.5,-0.1 h 0.4 -0.4 c -0.2,0 -0.3,0 -0.3,0.1 0,0 0.1,0.1 0.3,0.1 0.3,0 0.4,0.1 0.4,0.1 0,0.1 -0.2,0.1 -0.6,0.1 -0.1,0.1 -0.3,0 -0.3,0 z m 2.5,-0.2 c 0,0.1 -0.3,0.2 -0.8,0.2 -0.4,0 -0.7,-0.1 -0.7,-0.2 0,-0.1 0.3,-0.2 0.8,-0.2 0.5,0 0.7,0.1 0.7,0.2 z m -1.2,0 c 0,0.1 0.2,0.2 0.5,0.2 0.3,0 0.5,-0.1 0.5,-0.2 0,-0.1 -0.2,-0.2 -0.5,-0.2 -0.3,0.1 -0.5,0.1 -0.5,0.2 z m 1.5,0.3 V 241 h 0.2 l 0.5,0.2 c 0.1,0 0.2,0.1 0.3,0.1 V 241 h 0.2 v 0.4 h -0.2 l -0.5,-0.2 c -0.1,0 -0.2,-0.1 -0.3,-0.1 v 0.4 z m 1.9,-0.2 -0.2,0.1 h -0.2 l 0.6,-0.4 h 0.3 l 0.6,0.4 h -0.2 l -0.2,-0.1 z m 0.5,0 -0.2,-0.1 -0.1,-0.1 -0.1,0.1 -0.2,0.1 z m 0.7,-0.3 h 0.2 v 0.4 h 0.7 -0.9 z m 2.7,0.4 h -0.4 c -0.5,0 -0.8,-0.1 -0.8,-0.2 0,-0.1 0.3,-0.2 0.8,-0.2 h 0.4 -0.4 c -0.4,0 -0.6,0.1 -0.6,0.2 0,0.1 0.2,0.2 0.6,0.2 z m 1.6,-0.2 c 0,0.1 -0.3,0.2 -0.8,0.2 -0.4,0 -0.7,-0.1 -0.7,-0.2 0,-0.1 0.3,-0.2 0.8,-0.2 0.5,0 0.7,0.1 0.7,0.2 z m -1.2,0 c 0,0.1 0.2,0.2 0.5,0.2 0.3,0 0.5,-0.1 0.5,-0.2 0,-0.1 -0.2,-0.2 -0.5,-0.2 -0.3,0.1 -0.5,0.1 -0.5,0.2 z m 2.9,0.1 v -0.2 c -0.1,0 -0.1,0.1 -0.2,0.2 l -0.3,0.2 h -0.2 l -0.3,-0.2 -0.2,-0.2 v 0.4 H 259 l 0.1,-0.4 h 0.3 l 0.3,0.2 c 0.1,0.1 0.1,0.1 0.2,0.1 0,0 0.1,-0.1 0.2,-0.1 l 0.3,-0.2 h 0.3 l 0.1,0.4 h -0.2 z m 0.5,-0.3 h 0.9 c 0.1,0 0.1,0.1 0.1,0.1 0,0 0,0.1 -0.1,0.1 h -0.7 v 0.2 h -0.2 z m 0.2,0.2 h 0.2 c 0.3,0 0.4,0 0.4,-0.1 0,-0.1 -0.2,-0.1 -0.4,-0.1 h -0.2 z m 1.3,-0.2 v 0.3 c 0,0.1 0.2,0.1 0.4,0.1 0.2,0 0.4,0 0.4,-0.1 V 241 h 0.2 v 0.2 c 0,0.1 -0.3,0.2 -0.6,0.2 -0.3,0 -0.6,0 -0.6,-0.2 V 241 Z m 1.7,0.1 h -0.5 1.2 -0.5 v 0.4 h -0.2 z m 1.7,0.2 h -0.6 v 0.2 h 0.7 -0.9 V 241 h 0.9 -0.7 v 0.1 z m 0.3,-0.3 h 0.9 c 0.1,0 0.1,0 0.1,0.1 0,0.1 -0.1,0.1 -0.3,0.1 0.1,0 0.2,0 0.2,0.1 l 0.1,0.1 H 267 c 0,0 -0.1,0 -0.1,-0.1 0,-0.1 -0.1,-0.1 -0.3,-0.1 h -0.2 v 0.2 h -0.2 V 241 Z m 0.3,0.2 h 0.2 c 0.2,0 0.4,0 0.4,-0.1 0,-0.1 -0.2,-0.1 -0.4,-0.1 h -0.2 z"
         id="path916"
         inkscape:connector-curvature="0" />
    </g>
  </g>
  <g
     id="g924">
    <path
       d="m 32.784,242.723 0.485,-7.284 0.599,0.04 -0.486,7.284 z"
       id="path922"
       inkscape:connector-curvature="0"
       style="fill:#958b7c" />
  </g>
  <g
     id="g928">
    <path
       d="m 213.16,235.528 0.598,-0.04 0.485,7.284 -0.599,0.04 z"
       id="path926"
       inkscape:connector-curvature="0"
       style="fill:#958b7c" />
  </g>
</svg>
