<?xml version="1.0" encoding="UTF-8" standalone="no"?>
<!-- Generator: Adobe Illustrator 22.0.0, SVG Export Plug-In . SVG Version: 6.00 Build 0)  -->

<svg
   xmlns:dc="http://purl.org/dc/elements/1.1/"
   xmlns:cc="http://creativecommons.org/ns#"
   xmlns:rdf="http://www.w3.org/1999/02/22-rdf-syntax-ns#"
   xmlns:svg="http://www.w3.org/2000/svg"
   xmlns="http://www.w3.org/2000/svg"
   xmlns:sodipodi="http://sodipodi.sourceforge.net/DTD/sodipodi-0.dtd"
   xmlns:inkscape="http://www.inkscape.org/namespaces/inkscape"
   version="1.1"
   id="Capa_1"
   x="0px"
   y="0px"
   viewBox="0 0 85 85"
   xml:space="preserve"
   sodipodi:docname="icon_filled.svg"
   inkscape:version="0.92.4 5da689c313, 2019-01-14"><metadata
   id="metadata41"><rdf:RDF><cc:Work
       rdf:about=""><dc:format>image/svg+xml</dc:format><dc:type
         rdf:resource="http://purl.org/dc/dcmitype/StillImage" /></cc:Work></rdf:RDF></metadata><defs
   id="defs39" /><sodipodi:namedview
   pagecolor="#ffffff"
   bordercolor="#666666"
   borderopacity="1"
   objecttolerance="10"
   gridtolerance="10"
   guidetolerance="10"
   inkscape:pageopacity="0"
   inkscape:pageshadow="2"
   inkscape:window-width="640"
   inkscape:window-height="480"
   id="namedview37"
   showgrid="false"
   inkscape:zoom="2.7764706"
   inkscape:cx="42.5"
   inkscape:cy="42.5"
   inkscape:window-x="0"
   inkscape:window-y="0"
   inkscape:window-maximized="0"
   inkscape:current-layer="Capa_1"><inkscape:grid
     type="xygrid"
     id="grid848" /></sodipodi:namedview>
<g
   id="g34">
	<g
   transform="rotate(45 -16.477 274.33)"
   id="g10">
		<polygon
   fill="#A7A7A7"
   points="-112.6,59.9 -103.8,60 -103.7,62.5 -112.5,62.4   "
   id="polygon2" />
		<polygon
   fill="#33221B"
   points="-113.2,43.5 -103.6,43.7 -103.4,58.3 -113,58.2   "
   id="polygon4" />
		<polygon
   fill="#33221B"
   points="-113.4,62 -102.9,62.1 -102.7,76.4 -113.2,76.2   "
   id="polygon6" />
		<polygon
   fill="#33221B"
   points="-118.5,57.7 -98.4,58 -98.3,60.5 -118.4,60.2   "
   id="polygon8" />
	</g>
	<g
   transform="scale(-1 1) rotate(45 -128.024 5.03)"
   id="g20">
		<polygon
   fill="#A7A7A7"
   points="-14.9,-37.8 -6.1,-37.6 -6.1,-35.1 -14.9,-35.3   "
   id="polygon12" />
		<polygon
   fill="#33221B"
   points="-15.6,-54.1 -6,-54 -5.7,-39.3 -15.4,-39.4   "
   id="polygon14" />
		<polygon
   fill="#33221B"
   points="-15.7,-35.7 -5.3,-35.5 -5,-21.3 -15.5,-21.5   "
   id="polygon16" />
		<polygon
   fill="#33221B"
   points="-20.8,-39.9 -0.7,-39.6 -0.7,-37.1 -20.8,-37.4   "
   id="polygon18" />
	</g>
	<path
   fill="#4C4C4E"
   d="M63.3,19.3c3.4,4.5,5.4,10.2,5.4,16.4c0,14.9-11.7,27-26.2,27s-26.2-12.1-26.2-27s11.7-27,26.2-27   c4,0,7.8,0.9,11.2,2.6c-0.2-0.8-0.3-1.7-0.3-2.6c0-3.6,1.7-6.7,4.3-8.7c2.9,2,4.7,5.4,4.7,9.3c0,0.8-0.1,1.6-0.2,2.4   c2-2.1,4.8-3.5,7.9-3.5c1.4,0,2.7,0.3,3.9,0.7c-0.2,5.7-4.7,10.3-10.3,10.3C63.6,19.3,63.4,19.3,63.3,19.3z"
   id="path22" />
	<path
   fill="#D6A673"
   d="M22,44.3c-1-2.6-1.6-5.5-1.6-8.5c0-2.1,0.3-4.1,0.8-5.9h42.2c0.5,1.9,0.8,3.9,0.8,5.9c0,3-0.6,5.9-1.6,8.5   C62.5,44.3,22,44.3,22,44.3z"
   id="path24" />
	<path
   fill="#1A1A1B"
   d="M30,36.1c-0.2,0.4-0.3,0.9-0.3,1.4c0,1.6,1.3,3,2.9,3c1.3,0,2.5-0.9,2.8-2.2l0.1,0l1-2.8L27.6,32l-1,2.8   L30,36.1z"
   id="path26" />
	<path
   fill="#1A1A1B"
   d="M54.5,36.1c0.2,0.4,0.3,0.9,0.3,1.4c0,1.6-1.3,3-2.9,3c-1.3,0-2.5-0.9-2.8-2.2l-0.1,0l-1-2.8l8.9-3.5l1,2.8   L54.5,36.1z"
   id="path28" />
	<path
   fill="#600001"
   d="M17.2,28.6c0.7-2.7,1.8-5.3,3.3-7.6h44c1.5,2.3,2.6,4.9,3.3,7.6H17.2z"
   id="path30" />
	<path
   fill="#4C4C4E"
   d="M33.6,61.8C11.5,60.8,15.4,85,15.5,85c12.6,0,45.7,0,53.6,0c0.1,0,3.9-24.2-18.2-23.2   C35.9,61.8,33.6,61.8,33.6,61.8z"
   id="path32" />
</g>
</svg>