<?xml version="1.0" encoding="UTF-8" standalone="no"?>
<svg
   xmlns:dc="http://purl.org/dc/elements/1.1/"
   xmlns:cc="http://creativecommons.org/ns#"
   xmlns:rdf="http://www.w3.org/1999/02/22-rdf-syntax-ns#"
   xmlns:svg="http://www.w3.org/2000/svg"
   xmlns="http://www.w3.org/2000/svg"
   xmlns:sodipodi="http://sodipodi.sourceforge.net/DTD/sodipodi-0.dtd"
   xmlns:inkscape="http://www.inkscape.org/namespaces/inkscape"
   viewBox="0 0 285 70.642764"
   version="1.1"
   id="svg4"
   sodipodi:docname="logo.svg"
   width="285"
   height="70.642761"
   inkscape:version="0.92.4 5da689c313, 2019-01-14">
  <metadata
     id="metadata10">
    <rdf:RDF>
      <cc:Work
         rdf:about="">
        <dc:format>image/svg+xml</dc:format>
        <dc:type
           rdf:resource="http://purl.org/dc/dcmitype/StillImage" />
      </cc:Work>
    </rdf:RDF>
  </metadata>
  <defs
     id="defs8" />
  <sodipodi:namedview
     pagecolor="#ffffff"
     bordercolor="#666666"
     borderopacity="1"
     objecttolerance="10"
     gridtolerance="10"
     guidetolerance="10"
     inkscape:pageopacity="0"
     inkscape:pageshadow="2"
     inkscape:window-width="471"
     inkscape:window-height="442"
     id="namedview6"
     showgrid="false"
     inkscape:zoom="0.95807118"
     inkscape:cx="141.42999"
     inkscape:cy="35.321001"
     inkscape:window-x="0"
     inkscape:window-y="0"
     inkscape:window-maximized="0"
     inkscape:current-layer="svg4" />
  <path
     d="m 209.878,44.93576 c -0.19,-0.066 -0.272,-0.672 -0.272,-2.01 0,-1.546 0.066,-1.941 0.344,-2.048 0.189,-0.073 2.466,-0.132 5.06,-0.132 7.134,0 6.859,0.298 7.09,-7.658 0.109,-3.772 0.239,-5.55 0.412,-5.663 0.139,-0.091 1.084,-0.14 2.101,-0.109 l 1.849,0.055 -0.006,6.307 c -0.005,5.384 -0.058,6.418 -0.363,7.068 -1.089,2.323 -2.87,3.695 -5.357,4.128 -1.32,0.23 -10.225,0.28 -10.858,0.062 z m 18.694,-0.068 c -0.473,-0.19 -0.495,-0.295 -0.435,-2.107 l 0.063,-1.907 3.806,-0.112 c 4.227,-0.124 4.914,-0.325 5.525,-1.619 0.333,-0.704 0.885,-11.091 0.64,-12.03 -0.078,-0.3 -0.015,-0.519 0.171,-0.586 0.505,-0.183 4.304,-0.266 4.197,-0.092 -0.056,0.09 0,0.227 0.123,0.303 0.123,0.076 0.15,0.254 0.058,0.396 -0.092,0.141 -0.167,3.046 -0.167,6.455 0,5.997 -0.016,6.23 -0.491,7.183 -1.095,2.198 -2.716,3.504 -5.023,4.047 -1.408,0.332 -7.685,0.383 -8.467,0.069 z m 29.36,-1.784 0.063,-2.012 1.305,-0.126 c 0.718,-0.069 1.501,-0.233 1.74,-0.365 0.582,-0.32 9.461,-9.263 9.457,-9.525 -0.012,-0.714 -0.35,-0.759 -6.102,-0.817 l -5.747,-0.058 -0.064,-1.807 c -0.038,-1.088 0.032,-1.921 0.176,-2.095 0.192,-0.231 1.426,-0.267 6.262,-0.181 3.312,0.059 6.33,0.202 6.705,0.318 2.349,0.728 3.585,4.301 2.343,6.776 -0.194,0.387 -0.95,1.313 -1.679,2.058 l -1.326,1.355 0.565,0.602 c 1.374,1.463 4.09,6.495 4.09,7.578 0,0.245 -0.421,0.309 -2.03,0.309 h -2.03 l -0.557,-1.292 c -0.699,-1.62 -2.345,-4.145 -2.702,-4.145 -0.148,0 -1.179,0.934 -2.292,2.076 -2.669,2.739 -3.856,3.361 -6.415,3.361 h -1.822 z m -14.199,-5.869 c -0.047,-1.357 0.064,-3.336 0.195,-3.469 0.082,-0.082 3.651,-0.19 7.932,-0.24 6.981,-0.081 7.803,-0.054 7.971,0.259 0.103,0.192 0.172,1.132 0.154,2.088 l -0.033,1.739 -8.101,0.057 -8.101,0.057 z m -33.366,-0.791 -0.87,-0.136 0.072,-1.849 c 0.04,-1.017 0.137,-1.915 0.217,-1.997 0.08,-0.082 2.103,-0.174 4.495,-0.205 l 4.35,-0.057 0.063,2.036 c 0.044,1.417 -0.017,2.085 -0.2,2.198 -0.315,0.195 -6.893,0.203 -8.127,0.01 z m 18.11,-0.912 c -0.342,-0.2 -0.364,-0.593 -0.244,-4.506 0.085,-2.792 0.216,-4.345 0.375,-4.452 0.134,-0.09 1.076,-0.139 2.093,-0.109 l 1.849,0.055 0.044,4.132 c 0.024,2.273 -0.002,4.352 -0.059,4.621 -0.097,0.46 -0.209,0.489 -1.893,0.483 -0.984,-0.002 -1.958,-0.104 -2.165,-0.224 z m -18.035,-4.927 -0.796,-0.084 0.034,-1.941 c 0.019,-1.067 0.132,-1.975 0.252,-2.018 0.12,-0.043 2.175,-0.069 4.567,-0.059 l 4.349,0.018 -0.079,1.957 c -0.043,1.077 -0.122,2.031 -0.176,2.12 -0.095,0.163 -6.63,0.168 -8.151,0.007 z M 0.091,16.42376 c -0.062,-0.1 0.324,-2.31 0.857,-4.911 0.533,-2.6009997 0.97,-4.9209997 0.97,-5.1559997 0,-0.236 -0.34,-0.778 -0.756,-1.207 l -0.756,-0.778 0.422,-0.57 c 0.799,-1.079 2.987,-3.28800003 3.256,-3.28800003 0.309,0 0.383,0.077 4.46,4.63900003 1.671,1.869 3.106,3.327 3.188,3.24 0.082,-0.087 0.517,-1.856 0.967,-3.931 0.534,-2.464 0.925,-3.81400003 1.127,-3.89100003 0.606,-0.233 3.589,1.49800003 3.406,1.97600003 -0.062,0.162 -0.601,0.524 -1.197,0.803 -0.596,0.279 -1.182,0.627 -1.303,0.772 -0.121,0.146 -0.755,2.794 -1.41,5.8859997 -1.417,6.692 -1.328,6.382 -1.838,6.382 -0.446,0 -1.197,-0.763 -5.211,-5.292 C 4.807,9.4417603 3.532,8.1697603 3.44,8.2697603 3.273,8.4517603 2.353,12.44976 2.353,12.99476 c 0,0.16 0.391,0.55 0.87,0.867 1.316,0.871 1.171,1.273 -0.746,2.072 -1.672,0.695 -2.193,0.802 -2.386,0.49 z m 35.615,-0.041 c -1.243,-0.385 -2.78,-1.598 -3.615,-2.853 -1.353,-2.034 -1.527,-4.2609997 -0.541,-6.9099997 1.223,-3.287 6.592,-6.48600003 10.541,-6.28100003 l 1.257,0.065 0.683,1.41400003 c 1.03,2.13 1.058,2.31 0.423,2.726 -0.3,0.197 -0.93,0.409 -1.399,0.472 -0.84,0.113 -0.866,0.095 -1.756,-1.216 -0.599,-0.883 -1.049,-1.33 -1.337,-1.33 -0.803,0 -2.525,1.055 -3.511,2.151 -1.564,1.74 -1.813,3.394 -0.788,5.247 1.15,2.0799997 3.393,2.4209997 6.45,0.9819997 1.452,-0.683 1.846,-0.793 1.994,-0.554 0.264,0.427 -2.224,5.321 -2.946,5.794 -0.661,0.433 -4.363,0.632 -5.455,0.293 z m 159.772,-0.197 c -0.26,-0.486 -0.306,-2.549 -0.06,-2.701 0.091,-0.056 1.774,-0.174 3.739,-0.262 3.331,-0.149 3.607,-0.194 4.075,-0.662 0.544,-0.544 0.713,-2.105 0.258,-2.386 -0.134,-0.083 -1.392,-0.135 -2.795,-0.115 -2.995,0.042 -3.107,-0.023 -3.008,-1.7539997 l 0.066,-1.159 2.745,-0.133 c 1.51,-0.073 2.855,-0.201 2.99,-0.285 0.308,-0.19 0.322,-1.969 0.02,-2.532 -0.205,-0.383 -0.48,-0.421 -3.04,-0.421 -3.266,0 -3.192,-0.047 -3.793,2.392 -0.577,2.344 -0.614,2.393 -1.8,2.389 -1.525,-0.004 -2.016,-0.185 -2.016,-0.743 0,-0.752 1.451,-5.745 1.844,-6.345 0.195,-0.297 0.582,-0.62700003 0.861,-0.73300003 0.279,-0.106 2.549,-0.219 5.045,-0.25 4.964,-0.062 5.394,0.019 6.258,1.18500003 0.426,0.575 0.459,0.937 0.52,5.756 0.075,5.8889997 -0.04,6.4839997 -1.506,7.7379997 -1.17,1.001 -2.074,1.188 -6.436,1.325 -3.543,0.111 -3.753,0.095 -3.967,-0.304 z m -180.24,0.057 c -0.946,-0.132 -0.891,-0.436 0.153,-0.854 0.971,-0.389 1.077,-0.619 1.642,-3.567 0.195,-1.017 0.403,-2.0199997 0.463,-2.2289997 0.076,-0.263 -0.063,-0.446 -0.449,-0.593 -0.731,-0.278 -0.698,-0.479 0.143,-0.875 0.655,-0.309 0.718,-0.449 1.183,-2.61 0.64,-2.981 0.634,-3.254 -0.09,-3.833 -0.329,-0.263 -0.517,-0.56 -0.417,-0.661 0.1,-0.10000003 3.109,-0.21600003 6.687,-0.25600003 5.705,-0.065 6.522,-0.032 6.634,0.26100003 0.071,0.184 -0.051,1.195 -0.271,2.246 -0.304,1.452 -0.491,1.928 -0.781,1.984 -0.222,0.043 -0.434,-0.093 -0.508,-0.324 -0.769,-2.411 -1.348,-2.899 -3.435,-2.894 -0.851,0.002 -1.684,0.09 -1.852,0.196 -0.356,0.225 -1.356,5.036 -1.105,5.312 0.255,0.279 1.981,-0.584 2.701,-1.351 1.193,-1.271 1.665,-0.836 1.221,1.126 -0.114,0.502 -0.365,1.67 -0.559,2.597 C 26.174,11.94576 25.831,12.07376 24.862,10.56176 24.201,9.5297603 23.204,8.9327603 22.807,9.3317603 c -0.252,0.253 -1.321,5.1309997 -1.177,5.3649997 0.144,0.233 2.98,0.213 3.598,-0.025 0.707,-0.273 2.433,-1.956 2.869,-2.798 0.354,-0.684 0.852,-0.912 1.104,-0.505 0.068,0.11 -0.086,1.184 -0.342,2.387 -0.332,1.557 -0.567,2.215 -0.818,2.285 -0.503,0.139 -11.955,0.32 -12.803,0.202 z m 30.32,0.001 c -0.196,-0.196 -0.179,-2.729 0.021,-3.038 0.088,-0.136 0.512,-0.394 0.943,-0.573 0.431,-0.179 0.993,-0.621 1.25,-0.982 0.444,-0.624 0.467,-0.894 0.467,-5.4759997 0,-2.906 0.089,-4.987 0.225,-5.24000003 0.186,-0.347 0.461,-0.42 1.577,-0.417 0.743,0.002 1.494,0.094 1.669,0.204 0.264,0.167 0.319,1.10900003 0.326,5.59700003 l 0.009,5.3959997 -0.613,1.248 c -0.697,1.418 -1.997,2.603 -3.402,3.099 -0.969,0.34 -2.221,0.433 -2.472,0.182 z m 13.435,-0.371 c -0.605,-0.282 -1.456,-0.928 -1.891,-1.437 -1.384,-1.617 -1.528,-2.322 -1.632,-7.9729997 -0.065,-3.539 -0.019,-5.172 0.157,-5.50000003 0.227,-0.425 0.4,-0.461 1.923,-0.404 l 1.673,0.063 0.109,5.15000003 c 0.13,6.1479997 0.064,5.9669997 2.61,7.1409997 0.35,0.161 0.564,2.062 0.335,2.975 -0.109,0.435 -0.261,0.501 -1.155,0.499 -0.621,-0.002 -1.466,-0.206 -2.129,-0.514 z m 49.361,0.222 c -0.062,-0.161 -0.083,-0.96 -0.048,-1.776 0.064,-1.454 0.078,-1.487 0.765,-1.718 1.475,-0.498 1.464,-0.45 1.584,-6.3869997 l 0.109,-5.37500003 1.493,-0.201 c 2.323,-0.312 2.194,-0.628 2.262,5.53700003 0.047,4.2899997 -0.006,5.5109997 -0.283,6.4629997 -0.46,1.581 -1.81,2.942 -3.383,3.409 -1.408,0.42 -2.35,0.437 -2.499,0.048 z m 17.03,0.162 c -0.288,-0.288 -0.184,-3.345 0.114,-3.377 0.15,-0.016 2.278,-0.09 4.73,-0.163 l 4.458,-0.133 V 4.3187603 l -4.676,-0.109 -4.676,-0.109 -0.065,-1.501 c -0.036,-0.825 0.013,-1.579 0.109,-1.67500003 0.096,-0.096 2.726,-0.19 5.846,-0.209 6.208,-0.039 6.275,-0.027 7.072,1.25100003 0.391,0.627 0.445,1.22 0.565,6.203 0.151,6.2479997 0.078,6.7169997 -1.169,7.5659997 -0.794,0.541 -0.829,0.544 -6.474,0.611 -3.122,0.037 -5.747,-0.003 -5.834,-0.09 z m 14.358,0.004 c -0.089,-0.089 -0.162,-0.866 -0.162,-1.726 v -1.564 l 1.337,-0.14 c 0.735,-0.077 2.74,-0.14 4.455,-0.14 h 3.118 l 0.71,-0.634 0.71,-0.634 0.109,-4.7019997 c 0.089,-3.86 0.167,-4.739 0.435,-4.908 0.42,-0.265 3.198,-0.275 3.36,-0.013 0.068,0.11 0.14,2.385 0.16,5.056 0.033,4.4579997 0,4.9379997 -0.406,5.8459997 -0.638,1.429 -1.642,2.47 -2.95,3.057 -1.069,0.48 -1.455,0.518 -5.928,0.589 -2.633,0.042 -4.859,0.003 -4.948,-0.087 z m 18.145,-0.203 c -1.219,-0.529 -1.985,-1.188 -2.484,-2.134 -0.457,-0.867 -0.477,-1.159 -0.484,-6.8399997 -0.006,-5.042 0.042,-5.966 0.319,-6.14500003 0.179,-0.116 1.06,-0.186 1.957,-0.155 l 1.631,0.056 0.057,1.08700003 c 0.118,2.264 -0.325,2.066 4.633,2.066 h 4.355 l -0.064,1.577 -0.064,1.577 -4.35,0.125 c -2.392,0.069 -4.383,0.142 -4.424,0.163 -0.041,0.021 -0.041,1.062 0,2.314 0.104,3.1979997 -0.181,3.0259997 5.246,3.1609997 l 4.397,0.109 0.065,1.503 c 0.046,1.055 -0.019,1.556 -0.217,1.682 -0.155,0.099 -2.436,0.177 -5.067,0.174 -3.678,-0.005 -4.952,-0.079 -5.506,-0.32 z m 12.193,0.187 c -0.302,-0.122 -0.38,-2.393 -0.098,-2.837 0.105,-0.165 0.894,-0.286 2.117,-0.326 l 1.95,-0.064 0.066,-1.135 c 0.097,-1.686 -0.161,-2.0179997 -1.569,-2.0179997 -1.381,0 -1.709,-0.293 -1.628,-1.457 0.101,-1.463 0.253,-1.589 1.889,-1.572 2.701,0.029 3.748,0.275 4.432,1.041 0.579,0.649 0.617,0.807 0.617,2.6259997 0,2.592 0.017,2.624 1.429,2.624 0.929,0 1.211,0.085 1.39,0.421 0.308,0.575 0.284,2.26 -0.036,2.58 -0.189,0.189 -1.645,0.256 -5.274,0.244 -2.757,-0.01 -5.135,-0.067 -5.285,-0.127 z m -91.883,-0.198 c -0.281,-0.286 -0.188,-3.064 0.111,-3.312 0.153,-0.127 1.677,-0.259 3.463,-0.298 3.052,-0.068 3.214,-0.095 3.778,-0.615 0.919,-0.849 1.127,-1.594 1.764,-6.3339997 0.328,-2.437 0.698,-4.50300003 0.824,-4.59100003 0.126,-0.088 0.987,-0.161 1.914,-0.163 l 1.685,-0.003 V 1.3427603 c 0,0.337 -0.15,1.731 -0.333,3.099 a 832.177,832.177 0 0 0 -0.655,5.037 C 90.571,10.88076 90.311,12.29976 90.169,12.63176 c -0.476,1.116 -1.683,2.407 -2.726,2.918 -0.947,0.463 -1.378,0.513 -5.059,0.585 -2.213,0.043 -4.097,0.004 -4.187,-0.088 z m 16.148,-1.584 v -1.771 h 1.312 c 0.722,0 1.638,-0.136 2.038,-0.303 1.268,-0.53 1.435,-0.993 1.435,-3.9859997 v -2.67 h -2.841 c -1.563,0 -3.031,-0.101 -3.262,-0.225 -0.353,-0.189 -0.421,-0.465 -0.421,-1.714 0,-1.809 -0.123,-1.75 3.706,-1.755 l 2.728,-0.003 0.208,-0.707 0.208,-0.70700003 h 3.44 l 0.256,0.76100003 0.256,0.761 3.026,0.109 3.026,0.109 v 3.262 h -2.972 c -1.635,0 -3.035,0.063 -3.111,0.139 -0.077,0.077 -0.181,1.428 -0.231,3.002 -0.106,3.3079997 -0.401,4.2259997 -1.814,5.6389997 -1.239,1.239 -2.156,1.568 -4.757,1.709 l -2.229,0.12 z m 23.035,1.147 -0.527,-0.561 -0.063,-7.0379997 c -0.063,-7.03500003 -0.063,-7.03900003 0.41,-7.29200003 0.444,-0.238 3.087,-0.215 3.331,0.029 0.059,0.059 0.125,2.20700003 0.148,4.77500003 0.023,2.568 0.101,5.1579997 0.174,5.7559997 0.15,1.231 0.158,1.234 2.688,0.884 l 1.25,-0.173 v 1.629 c 0,1.112 -0.094,1.708 -0.297,1.876 -0.373,0.309 -3.023,0.661 -5.048,0.67 -1.377,0.006 -1.594,-0.053 -2.066,-0.555 z m 61.214,-5.8659997 c -0.162,-0.646 -0.005,-2.643 0.226,-2.875 0.196,-0.196 12.128,-0.358 12.859,-0.174 0.501,0.126 0.529,0.219 0.529,1.733 V 10.02776 l -0.68,0.136 c -0.374,0.075 -3.406,0.136 -6.738,0.136 h -6.058 z m -112.258,0.175 -3.108,-0.067 0.063,-1.671 0.063,-1.671 0.677,-0.138 c 0.372,-0.076 3.382,-0.091 6.687,-0.033 l 6.01,0.105 v 1.687 c 0,1.337 -0.071,1.714 -0.344,1.819 -0.327,0.1259997 -3.183,0.1169997 -10.048,-0.031 z m 11.398,-1.957 c -0.223,-0.758 -0.82,-6.101 -0.75,-6.713 0.071,-0.62500003 0.078,-0.62700003 1.76,-0.69000003 1.229,-0.046 1.717,0.013 1.792,0.217 0.163,0.44300003 0.978,6.21500003 0.978,6.92600003 v 0.64 H 79.68 c -1.559,0 -1.851,-0.057 -1.946,-0.38 z m 91.708,-2.754 c -2.27,-1.026 -1.494,-4.56400003 1.065,-4.85200003 1.854,-0.209 3.168,1.06300003 2.93,2.83600003 -0.236,1.758 -2.282,2.791 -3.995,2.016 z m 2.062,-2.213 c 0.036,-0.25 -0.085,-0.579 -0.269,-0.731 -0.663,-0.55 -1.531,0.318 -0.981,0.981 0.386,0.465 1.171,0.308 1.25,-0.25 z m -110.433,1.934 c -0.954,-0.492 -1.617,-1.749 -1.413,-2.68 0.633,-2.88300003 4.815,-3.04000003 5.438,-0.204 0.487,2.214 -1.945,3.956 -4.025,2.884 z m 1.848,-2.35 c 0,-0.495 -0.099,-0.652 -0.411,-0.652 -0.514,0 -0.9,0.582 -0.712,1.073 0.089,0.233 0.325,0.345 0.633,0.301 0.384,-0.054 0.49,-0.21 0.49,-0.722 z m 76.839,1.561 c -0.195,-0.195 -0.29,-0.775 -0.276,-1.681 0.022,-1.364 0.032,-1.386 0.71,-1.56200003 0.378,-0.098 2.181,-0.151 4.007,-0.118 l 3.319,0.06 V 4.3187603 l -3.731,0.059 c -2.93,0.047 -3.796,-0.004 -4.029,-0.238 z M 282.86,27.69676 a 1.724,1.724 0 1 1 -3.448,0 1.724,1.724 0 0 1 3.448,0 z m -4.122,0 a 1.724,1.724 0 1 1 -3.448,0 1.724,1.724 0 0 1 3.448,0 z m -267.616,26.811 v -8.911 h 1.526 c 1.803,0 3.188,-0.389 4.155,-1.169 0.967,-0.779 1.451,-1.91 1.451,-3.39 0,-1.441 -0.484,-2.546 -1.451,-3.316 -0.967,-0.77 -2.352,-1.155 -4.155,-1.155 H 9.831 v 33.543 L 0,70.13976 v -42.484 h 11.944 c 2.629,0 4.901,0.222 6.817,0.666 1.916,0.444 3.568,1.175 4.958,2.191 1.39,1.017 2.46,2.408 3.211,4.174 0.751,1.767 1.127,3.903 1.127,6.41 0,2.053 -0.376,3.908 -1.127,5.566 a 12.127,12.127 0 0 1 -3.127,4.219 c -1.334,1.155 -2.92,2.048 -4.761,2.679 a 17.656,17.656 0 0 1 -5.775,0.947 z m 43.234,-3.862 v -6.027 h 22.417 v 6.027 z m 42.941,19.05 -11.69,-0.089 c 3.737,-3.829 6.512,-6.735 8.324,-8.719 a 46.575,46.575 0 0 0 4.747,-6.114 l -0.113,-0.118 c -0.864,0.375 -1.906,0.563 -3.127,0.563 -2.404,0 -4.512,-0.602 -6.324,-1.806 -1.813,-1.204 -3.211,-2.837 -4.197,-4.9 -0.986,-2.062 -1.479,-4.327 -1.479,-6.795 0,-2.961 0.596,-5.585 1.789,-7.875 1.192,-2.289 2.883,-4.056 5.07,-5.299 2.188,-1.243 4.671,-1.865 7.451,-1.865 2.873,0 5.451,0.637 7.732,1.91 2.282,1.273 4.052,3.079 5.31,5.418 1.258,2.339 1.887,5.068 1.887,8.186 0,4.855 -1.371,9.454 -4.113,13.796 -2.742,4.342 -6.497,8.911 -11.267,13.707 z m 6.113,-28.096 a 5.62,5.62 0 0 0 -0.732,-2.827 5.708,5.708 0 0 0 -1.972,-2.058 5.08,5.08 0 0 0 -2.732,-0.77 c -1.465,0 -2.704,0.553 -3.718,1.658 -1.014,1.106 -1.521,2.438 -1.521,3.997 0,1.007 0.225,1.964 0.676,2.872 0.451,0.908 1.08,1.619 1.887,2.132 0.807,0.513 1.699,0.77 2.676,0.77 1.521,0 2.807,-0.563 3.859,-1.688 1.051,-1.125 1.577,-2.487 1.577,-4.086 z m 55.521,-14.921 c 2.854,0 5.258,0.671 7.211,2.013 1.953,1.342 3.469,3.094 4.549,5.255 1.08,2.161 1.84,4.495 2.282,7.002 0.441,2.507 0.662,5.083 0.662,7.727 0,3.533 -0.423,6.962 -1.268,10.288 -0.845,3.326 -2.362,6.104 -4.549,8.334 -2.188,2.231 -5.15,3.345 -8.887,3.345 -2.798,0 -5.16,-0.666 -7.084,-1.998 -1.925,-1.332 -3.432,-3.109 -4.521,-5.329 a 26.117,26.117 0 0 1 -2.282,-7.017 43.954,43.954 0 0 1 -0.648,-7.624 c 0,-2.625 0.216,-5.176 0.648,-7.653 a 25.848,25.848 0 0 1 2.282,-7.031 c 1.089,-2.21 2.596,-3.982 4.521,-5.314 1.925,-1.332 4.286,-1.998 7.084,-1.998 z m 0,9.444 c -1.334,0 -2.38,0.528 -3.141,1.584 -0.761,1.056 -1.301,2.507 -1.62,4.352 -0.32,1.846 -0.479,4.051 -0.479,6.617 0,2.546 0.155,4.742 0.465,6.587 0.31,1.846 0.854,3.301 1.634,4.367 0.779,1.066 1.826,1.599 3.141,1.599 3.624,0 5.437,-4.184 5.437,-12.553 0,-8.368 -1.813,-12.553 -5.437,-12.553 z m 30.649,-9.444 c 2.854,0 5.258,0.671 7.211,2.013 1.953,1.342 3.469,3.094 4.549,5.255 1.08,2.161 1.84,4.495 2.282,7.002 0.441,2.507 0.662,5.083 0.662,7.727 0,3.533 -0.423,6.962 -1.268,10.288 -0.845,3.326 -2.362,6.104 -4.549,8.334 -2.188,2.231 -5.15,3.345 -8.887,3.345 -2.798,0 -5.16,-0.666 -7.084,-1.998 -1.925,-1.332 -3.432,-3.109 -4.521,-5.329 a 26.117,26.117 0 0 1 -2.282,-7.017 43.954,43.954 0 0 1 -0.648,-7.624 c 0,-2.625 0.216,-5.176 0.648,-7.653 a 25.848,25.848 0 0 1 2.282,-7.031 c 1.089,-2.21 2.596,-3.982 4.521,-5.314 1.924,-1.332 4.285,-1.998 7.084,-1.998 z m 0,9.444 c -1.334,0 -2.38,0.528 -3.141,1.584 -0.761,1.056 -1.301,2.507 -1.62,4.352 -0.32,1.846 -0.479,4.051 -0.479,6.617 0,2.546 0.155,4.742 0.465,6.587 0.31,1.846 0.854,3.301 1.634,4.367 0.779,1.066 1.826,1.599 3.141,1.599 3.624,0 5.437,-4.184 5.437,-12.553 -0.001,-8.368 -1.813,-12.553 -5.437,-12.553 z m -74.452,2.99 c 0,-2.112 0.347,-3.952 1.042,-5.522 0.695,-1.569 1.69,-2.872 2.986,-3.908 a 12.738,12.738 0 0 1 4.423,-2.28 c 1.652,-0.483 3.418,-0.725 5.296,-0.725 3.643,0 6.685,1.091 9.127,3.271 2.441,2.181 3.662,5.216 3.662,9.104 0,1.678 -0.394,3.296 -1.183,4.855 -0.77,1.522 -1.781,2.705 -3.033,3.55 a 0.078,0.078 0 0 0 -0.001,0.128 c 1.887,1.363 3.279,2.831 4.175,4.404 0.911,1.599 1.366,3.593 1.366,5.98 0,1.994 -0.413,3.79 -1.239,5.388 a 12.009,12.009 0 0 1 -3.338,4.026 14.819,14.819 0 0 1 -4.69,2.442 17.475,17.475 0 0 1 -5.268,0.814 c -2.46,0 -4.798,-0.499 -7.014,-1.495 -2.216,-0.996 -3.996,-2.462 -5.338,-4.396 -1.343,-1.934 -2.014,-4.194 -2.014,-6.78 0,-2.013 0.516,-3.918 1.549,-5.714 1.014,-1.763 2.318,-3.194 3.911,-4.291 a 0.08,0.08 0 0 0 0.003,-0.127 c -2.948,-2.276 -4.422,-5.185 -4.422,-8.724 z m 13.576,-3.878 c -2.364,0 -4.28,2.014 -4.28,4.499 0,2.485 1.916,4.499 4.28,4.499 2.364,0 4.28,-2.014 4.28,-4.499 0,-2.485 -1.916,-4.499 -4.28,-4.499 z m 0,16.707 c -2.666,0 -4.827,2.271 -4.827,5.073 0,2.802 2.161,5.073 4.827,5.073 2.666,0 4.827,-2.271 4.827,-5.073 0,-2.802 -2.161,-5.073 -4.827,-5.073 z M 52.61,36.93376 a 8.692,8.692 0 0 0 -3.427,-0.693 c -1.897,0 -3.662,0.582 -5.296,1.747 -1.615,1.165 -2.901,2.704 -3.859,4.619 -0.939,1.935 -1.408,3.948 -1.408,6.04 0,2.112 0.479,4.125 1.437,6.04 0.958,1.935 2.244,3.474 3.859,4.619 1.596,1.165 3.352,1.747 5.268,1.747 a 8.618,8.618 0 0 0 3.427,-0.697 v 9.911 a 18.206,18.206 0 0 1 -3.427,0.319 c -3.549,0 -6.836,-0.977 -9.859,-2.931 -3.024,-1.954 -5.427,-4.608 -7.211,-7.964 -1.765,-3.375 -2.648,-7.056 -2.648,-11.043 0,-4.007 0.882,-7.698 2.648,-11.073 1.784,-3.355 4.188,-6.02 7.211,-7.994 3.023,-1.954 6.31,-2.931 9.859,-2.931 1.171,0 2.313,0.106 3.427,0.319 v 9.965 z"
     id="path2"
     inkscape:connector-curvature="0" />
</svg>
