<?xml version="1.0" encoding="UTF-8" standalone="no"?>
<svg
   xmlns:dc="http://purl.org/dc/elements/1.1/"
   xmlns:cc="http://creativecommons.org/ns#"
   xmlns:rdf="http://www.w3.org/1999/02/22-rdf-syntax-ns#"
   xmlns:svg="http://www.w3.org/2000/svg"
   xmlns="http://www.w3.org/2000/svg"
   xmlns:sodipodi="http://sodipodi.sourceforge.net/DTD/sodipodi-0.dtd"
   xmlns:inkscape="http://www.inkscape.org/namespaces/inkscape"
   viewBox="0 0 30 30"
   version="1.1"
   id="svg84"
   sodipodi:docname="icon_empty.svg"
   inkscape:version="0.92.4 5da689c313, 2019-01-14">
  <metadata
     id="metadata90">
    <rdf:RDF>
      <cc:Work
         rdf:about="">
        <dc:format>image/svg+xml</dc:format>
        <dc:type
           rdf:resource="http://purl.org/dc/dcmitype/StillImage" />
      </cc:Work>
    </rdf:RDF>
  </metadata>
  <defs
     id="defs88" />
  <sodipodi:namedview
     pagecolor="#ffffff"
     bordercolor="#666666"
     borderopacity="1"
     objecttolerance="10"
     gridtolerance="10"
     guidetolerance="10"
     inkscape:pageopacity="0"
     inkscape:pageshadow="2"
     inkscape:window-width="471"
     inkscape:window-height="442"
     id="namedview86"
     showgrid="false"
     inkscape:zoom="7.8666667"
     inkscape:cx="15"
     inkscape:cy="15"
     inkscape:window-x="0"
     inkscape:window-y="0"
     inkscape:window-maximized="0"
     inkscape:current-layer="svg84">
    <inkscape:grid
       type="xygrid"
       id="grid92" />
  </sodipodi:namedview>
  <path
     d="M29.78 6.757L23.243.22c-.306-.306-.868-.281-1.251.102L.312 22.002c-.357.357-.409.919-.102 1.251l6.537 6.537c.306.306.868.281 1.251-.102l21.68-21.68c.383-.357.434-.919.102-1.251z"
     fill="#c3c3c3"
     id="path2" />
  <g
     fill="#cecece"
     id="g40">
    <circle
       cx="22.604"
       cy="3.131"
       r=".868"
       id="circle4" />
    <circle
       cx="24.724"
       cy="5.276"
       r=".868"
       id="circle6" />
    <circle
       cx="26.869"
       cy="7.396"
       r=".868"
       id="circle8" />
    <circle
       cx="20.536"
       cy="5.2"
       r=".868"
       id="circle10" />
    <circle
       cx="22.655"
       cy="7.345"
       r=".868"
       id="circle12" />
    <circle
       cx="24.8"
       cy="9.464"
       r=".868"
       id="circle14" />
    <circle
       cx="18.468"
       cy="7.268"
       r=".868"
       id="circle16" />
    <circle
       cx="20.587"
       cy="9.413"
       r=".868"
       id="circle18" />
    <circle
       cx="22.732"
       cy="11.532"
       r=".868"
       id="circle20" />
    <circle
       cx="7.258"
       cy="18.478"
       r=".868"
       id="circle22" />
    <circle
       cx="9.403"
       cy="20.597"
       r=".868"
       id="circle24" />
    <circle
       cx="11.522"
       cy="22.742"
       r=".868"
       id="circle26" />
    <circle
       cx="5.189"
       cy="20.546"
       r=".868"
       id="circle28" />
    <circle
       cx="7.334"
       cy="22.666"
       r=".868"
       id="circle30" />
    <circle
       cx="9.454"
       cy="24.811"
       r=".868"
       id="circle32" />
    <circle
       cx="3.121"
       cy="22.615"
       r=".868"
       id="circle34" />
    <circle
       cx="5.266"
       cy="24.734"
       r=".868"
       id="circle36" />
    <circle
       cx="7.385"
       cy="26.879"
       r=".868"
       id="circle38" />
  </g>
  <path
     d="M6.747.22L.21 6.757c-.306.306-.281.868.102 1.251l21.68 21.68c.357.357.919.409 1.251.102l6.537-6.537c.306-.306.281-.868-.102-1.251L7.998.322C7.641-.061 7.079-.112 6.747.22z"
     fill="#d6d6d6"
     id="path42" />
  <g
     fill="#cecece"
     id="g80">
    <circle
       cx="3.121"
       cy="7.396"
       r=".868"
       id="circle44" />
    <circle
       cx="5.266"
       cy="5.276"
       r=".868"
       id="circle46" />
    <circle
       cx="7.385"
       cy="3.131"
       r=".868"
       id="circle48" />
    <circle
       cx="5.189"
       cy="9.464"
       r=".868"
       id="circle50" />
    <circle
       cx="7.334"
       cy="7.345"
       r=".868"
       id="circle52" />
    <circle
       cx="9.454"
       cy="5.2"
       r=".868"
       id="circle54" />
    <circle
       cx="7.258"
       cy="11.532"
       r=".868"
       id="circle56" />
    <circle
       cx="9.403"
       cy="9.413"
       r=".868"
       id="circle58" />
    <circle
       cx="11.522"
       cy="7.268"
       r=".868"
       id="circle60" />
    <circle
       cx="18.468"
       cy="22.742"
       r=".868"
       id="circle62" />
    <circle
       cx="20.587"
       cy="20.597"
       r=".868"
       id="circle64" />
    <circle
       cx="22.732"
       cy="18.478"
       r=".868"
       id="circle66" />
    <circle
       cx="20.536"
       cy="24.811"
       r=".868"
       id="circle68" />
    <circle
       cx="22.655"
       cy="22.666"
       r=".868"
       id="circle70" />
    <circle
       cx="24.8"
       cy="20.546"
       r=".868"
       id="circle72" />
    <circle
       cx="22.604"
       cy="26.879"
       r=".868"
       id="circle74" />
    <circle
       cx="24.724"
       cy="24.734"
       r=".868"
       id="circle76" />
    <circle
       cx="26.869"
       cy="22.615"
       r=".868"
       id="circle78" />
  </g>
  <path
     fill="#c3c3c3"
     d="M8.684 14.188l5.254-5.254 7.601 7.601-5.254 5.255z"
     id="path82" />
</svg>
