<?xml version="1.0" encoding="UTF-8" standalone="no"?>
<!-- Generator: Adobe Illustrator 22.0.0, SVG Export Plug-In . SVG Version: 6.00 Build 0)  -->

<svg
   xmlns:dc="http://purl.org/dc/elements/1.1/"
   xmlns:cc="http://creativecommons.org/ns#"
   xmlns:rdf="http://www.w3.org/1999/02/22-rdf-syntax-ns#"
   xmlns:svg="http://www.w3.org/2000/svg"
   xmlns="http://www.w3.org/2000/svg"
   xmlns:xlink="http://www.w3.org/1999/xlink"
   xmlns:sodipodi="http://sodipodi.sourceforge.net/DTD/sodipodi-0.dtd"
   xmlns:inkscape="http://www.inkscape.org/namespaces/inkscape"
   version="1.1"
   x="0px"
   y="0px"
   viewBox="0 0 458 239.459"
   xml:space="preserve"
   id="svg515"
   sodipodi:docname="logo.svg"
   width="458"
   height="239.459"
   inkscape:version="0.92.4 5da689c313, 2019-01-14"><metadata
   id="metadata521"><rdf:RDF><cc:Work
       rdf:about=""><dc:format>image/svg+xml</dc:format><dc:type
         rdf:resource="http://purl.org/dc/dcmitype/StillImage" /></cc:Work></rdf:RDF></metadata><defs
   id="defs519" /><sodipodi:namedview
   pagecolor="#ffffff"
   bordercolor="#666666"
   borderopacity="1"
   objecttolerance="10"
   gridtolerance="10"
   guidetolerance="10"
   inkscape:pageopacity="0"
   inkscape:pageshadow="2"
   inkscape:window-width="471"
   inkscape:window-height="442"
   id="namedview517"
   showgrid="false"
   inkscape:zoom="0.59546305"
   inkscape:cx="227.55456"
   inkscape:cy="119.7295"
   inkscape:window-x="0"
   inkscape:window-y="0"
   inkscape:window-maximized="0"
   inkscape:current-layer="svg515" />
<g
   id="g494"
   transform="translate(5.5783278e-4)">
	
		<text
   id="_x3C_Group_x3E__1_"
   transform="translate(435.4751,66.5954)"
   style="font-size:1px;font-family:ArialMT;fill:#c33a34">I don’t like bugs!</text>

	<g
   id="g427">
		<g
   id="g132">
			<g
   id="g15">
				<g
   id="g13">
					<path
   style="fill:#bb8135"
   d="m 192.123,233.62 c -1.317,0 -2.564,-0.295 -3.097,-0.421 -6.417,-1.517 -10.902,-8.023 -13.058,-11.15 -3.764,-5.46 -7.337,-11.226 -10.62,-17.136 -0.538,-0.966 -0.523,-2.16 0.037,-3.113 0.56,-0.953 1.593,-1.545 2.694,-1.545 0.351,0 0.697,0.059 1.03,0.175 2.675,0.93 9.447,2.218 15.201,2.218 2.246,0 4.129,-0.203 5.446,-0.587 1.67,-0.597 5.688,-3.127 6.086,-4.379 -0.267,-1.04 -2.041,-2.639 -3.329,-3.22 -13.826,-6.23 -22.96,-10.347 -24.472,-10.671 -0.87,-0.154 -3.225,-0.571 -7.745,-0.571 -4.974,0 -11.109,0.494 -18.234,1.467 -3.533,0.482 -7.382,1.092 -11.457,1.738 -10.934,1.732 -23.326,3.696 -33.291,3.696 -3.801,0 -6.978,-0.275 -9.711,-0.841 -2.982,-0.617 -9.988,-2.575 -10.611,-7.414 -0.09,-0.696 -0.025,-1.303 0.043,-1.945 0.075,-0.701 0.167,-1.572 0.124,-3.043 -0.134,0.027 -0.259,0.049 -0.371,0.063 -0.186,0.024 -0.377,0.037 -0.572,0.037 -6.049,0.001 -13.041,-12.793 -15.586,-28.52 -1.349,-8.333 -1.317,-16.211 -1.286,-23.83 0.008,-1.998 0.043,-3.65 0.074,-5.093 0.091,-4.239 0.136,-6.366 -0.635,-9.931 -0.845,-3.909 -2.122,-9.816 -6.572,-14.687 -2.477,-2.711 -5.696,-4.853 -8.047,-6.417 -3.014,-2.004 -5.616,-3.736 -4.345,-6.518 0.279,-0.611 0.879,-1.421 2.15,-1.812 7.449,-2.289 11.817,-3.583 15.002,-3.583 1.783,0 3.212,0.408 4.37,1.247 2.584,1.872 3.393,4.571 3.928,6.358 2.438,8.136 4.248,14.18 5.568,19.374 1.639,-6.11 0.795,-21.608 -5.03,-33.842 -2.129,-4.471 -4.043,-6.613 -6.069,-8.882 -2.45,-2.742 -5.226,-5.85 -8.343,-12.947 -3.604,-8.202 -6.931,-18.641 -2.315,-21.793 0.747,-0.51 1.591,-0.769 2.509,-0.769 1.863,0 3.536,1.015 6.308,2.697 2.322,1.409 5.502,3.339 10.019,5.396 4.279,1.948 6.579,2.563 8.428,3.058 2.017,0.54 3.76,1.005 6.569,2.731 7.917,4.863 11.752,11.846 15.813,19.238 2.479,4.512 3.519,7.393 4.525,10.179 0.974,2.696 1.98,5.483 4.425,10.032 2.466,4.589 5,8.477 6.931,11.041 -0.087,-0.788 -0.184,-1.606 -0.277,-2.396 -0.607,-5.134 -1.44,-12.165 -1.234,-20.064 0.086,-3.297 0.809,-6.396 2.149,-9.208 1.668,-3.5 5.208,-9.371 10.181,-9.371 0.118,0 0.236,0.003 0.354,0.01 2.986,0.173 4.559,2.355 5.946,4.282 1.325,1.839 2.827,3.925 5.937,5.623 0.709,0.387 1.895,1.035 2.363,1.035 0.177,-0.101 0.638,-0.773 0.943,-1.219 0.933,-1.364 2.211,-3.231 4.769,-3.937 0.462,-0.127 0.859,-0.186 1.252,-0.186 0.285,0 0.557,0.032 0.833,0.096 4.182,0.979 4.67,7.93 3.684,12.319 -0.63,2.805 -1.872,4.674 -2.967,6.322 -1.703,2.563 -3.246,4.024 -4.88,5.571 -1.304,1.234 -2.781,2.633 -4.672,4.917 -1.753,2.119 -2.187,2.974 -2.286,3.211 0.027,0.753 0.58,1.759 1.465,2.663 1.311,1.34 3.154,2.275 4.483,2.275 0.195,0 0.37,-0.021 0.52,-0.063 0.226,-0.063 0.361,-0.161 0.844,-0.552 l 0.137,-0.111 c 0.262,-0.211 6.52,-5.206 14.994,-7.238 1.886,-0.452 3.836,-0.92 5.816,-0.92 0.015,0 0.029,0 0.043,0 -0.124,-0.295 -0.242,-0.594 -0.355,-0.899 -1.944,-5.231 -1.963,-11.096 -0.057,-17.429 2.596,-8.626 9.519,-17.861 15.687,-17.861 0.502,0 0.997,0.061 1.469,0.179 2.904,0.731 5.352,3.83 5.574,7.055 0.157,2.294 -0.896,3.841 -1.664,4.971 -0.37,0.543 -0.688,1.012 -0.888,1.538 -0.897,2.373 0.928,5.641 2.136,7.803 1.876,3.357 3.81,6.643 5.681,9.821 3.942,6.697 7.666,13.023 10.675,19.638 1.849,4.063 4.247,10.498 3.218,14.725 3.228,1.256 7.175,3.842 10.227,7.944 4.665,6.271 7.267,15.822 3.214,21.944 -0.447,0.675 -0.782,1.013 -1.137,1.37 -0.226,0.227 -0.524,0.527 -1.011,1.097 -2.229,2.602 -3.953,5.589 -5.131,8.886 v 4.827 c 11.293,6.191 16.363,11.589 15.928,16.924 -0.017,0.207 -0.05,0.484 -0.092,0.827 -0.18,1.449 -0.514,4.146 0.007,7.58 0.249,1.643 0.34,2.081 0.659,2.612 1.08,1.8 3.651,2.761 5.718,3.533 0.661,0.247 1.269,0.44 1.806,0.612 1.947,0.622 4.154,1.327 4.613,3.77 0.272,1.447 -0.259,2.861 -1.579,4.201 -16.084,16.32 -25.041,19.283 -25.415,19.401 -1.978,0.626 -3.502,0.968 -4.727,1.243 -2.017,0.452 -3.234,0.725 -5.233,1.924 -4.65,2.787 -6.708,5.472 -6.685,6.897 l 0.004,0.146 c 0.026,0.711 0.088,2.376 -1.114,3.795 -0.695,0.811 -2.019,1.782 -4.409,1.782 z M 74.061,122.348 c 0.418,2.271 1.074,4.099 2.381,4.89 0.962,0.582 2.423,0.797 3.382,0.805 0,0 0.001,0 0.001,0 1.165,0 1.783,-0.259 2.907,-0.728 1.114,-0.465 2.501,-1.044 4.643,-1.468 0.621,-0.123 1.192,-0.209 1.712,-0.271 -1.485,-1.302 -3.632,-2.615 -5.662,-2.615 -0.225,0.003 -0.409,0.013 -0.628,0.023 -0.529,0.025 -1.226,0.058 -2.096,0.058 -0.82,0 -1.628,-0.028 -2.47,-0.086 -1.736,-0.12 -3.055,-0.211 -4.17,-0.608 z"
   id="path3"
   inkscape:connector-curvature="0" />
					<path
   style="fill:#bb8135"
   d="m 50.057,180.77 c -3.242,0 -5.021,-0.759 -6.743,-1.493 -3.986,-1.7 -7.11,-5.96 -7.527,-8.873 -0.649,-4.543 -0.4,-10.311 0.832,-19.287 0.511,-3.725 1.855,-5.613 3.995,-5.613 0.933,0 1.801,0.427 2.382,1.172 0.65,0.834 1.296,1.94 2.116,3.34 2.353,4.024 5.909,10.106 12.76,15.214 4.725,3.523 8.995,5.463 12.022,5.463 0.26,0 0.513,-0.015 0.75,-0.044 l 0.174,-0.021 0.188,-10e-4 c 1.422,0 2.633,1.016 2.878,2.416 0.245,1.396 -0.545,2.759 -1.879,3.242 -2.578,0.932 -9.908,2.769 -13.5,3.461 -3.63,0.698 -6.314,1.024 -8.448,1.024 10e-4,0 10e-4,0 0,0 z"
   id="path5"
   inkscape:connector-curvature="0" />
					<path
   style="fill:#bb8135"
   d="m 28.534,141.098 c -5.045,0 -10.794,-9.521 -11.896,-11.429 -2.03,-3.518 -4.613,-9.009 -6.587,-20.347 -0.033,-0.187 -3.174,-18.729 -0.657,-22.205 0.5,-0.689 1.225,-1.135 2.042,-1.254 l 0.203,-0.029 0.228,-0.002 c 2.437,0 3.162,1.947 4.913,6.649 1.362,3.658 4.552,12.224 7.194,13.131 0.908,0.312 1.663,0.377 2.137,0.377 0.158,0 0.281,-0.008 0.363,-0.015 0.383,-0.138 0.631,-0.343 1.122,-0.765 0.352,-0.303 0.751,-0.647 1.267,-0.988 1.546,-1.024 3.42,-1.544 5.568,-1.544 1.4,0 3.668,0.234 6.526,1.35 3.531,1.379 6.274,4.055 9.467,9.237 2.902,4.709 11.909,20.429 5.98,24.985 -0.967,0.743 -2.242,1.12 -3.79,1.12 -4.068,0 -10.128,-2.696 -13.208,-4.508 l -0.161,-0.096 c -0.714,-0.423 -1.91,-1.132 -3.031,-1.132 -0.181,0 -0.351,0.018 -0.519,0.054 -0.847,0.184 -1.503,0.815 -1.719,1.023 -0.819,0.787 -1.041,1.589 -1.297,2.518 -0.302,1.095 -0.76,2.75 -2.517,3.53 -0.507,0.226 -1.054,0.34 -1.628,0.34 z"
   id="path7"
   inkscape:connector-curvature="0" />
					<path
   style="fill:#bb8135"
   d="m 37.305,66.776 c -1.539,0 -2.979,-0.094 -4.279,-0.28 -5.341,-0.763 -6.918,-3.743 -8.589,-6.897 -0.872,-1.646 -1.86,-3.512 -3.605,-5.708 C 17.918,50.223 13.733,47.832 9.686,45.52 6.454,43.674 3.401,41.931 1.206,39.623 -0.024,38.332 -0.346,36.544 0.39,35.071 1.921,32 8.398,28.693 14.828,27.701 c 0.483,-0.075 1.02,-0.111 1.642,-0.111 3.075,0 8.061,0.968 10.774,2.084 0.291,-0.185 0.799,-0.687 1.681,-1.934 0.157,-0.222 0.268,-0.395 0.356,-0.533 0.33,-0.513 0.781,-1.215 1.801,-1.702 0.616,-0.294 1.292,-0.443 2.009,-0.443 2.015,0 3.822,1.163 4.842,2.251 2.057,2.195 2.027,5.027 2.016,6.093 -0.034,3.251 -0.202,5.812 -0.351,8.071 -0.241,3.655 -0.399,6.07 0.167,8.828 0.383,1.865 0.686,3.087 1.652,4.335 1.711,2.209 4.715,3.551 5.58,3.551 l 0.209,-0.031 0.238,0.001 c 1.29,0 2.894,0.555 3.528,2.111 0.782,1.912 -0.167,3.996 -2.208,4.845 -1.918,0.8 -6.844,1.659 -11.459,1.659 z"
   id="path9"
   inkscape:connector-curvature="0" />
					<path
   style="fill:#bb8135"
   d="m 107.447,64.933 c -4.4,-0.001 -9.055,-12.667 -9.101,-12.795 -1.378,-3.792 -1.677,-6.176 -1.895,-7.917 -0.216,-1.728 -0.325,-2.596 -1.339,-4.207 -1.556,-2.47 -4.309,-4.937 -6.319,-6.737 -2.436,-2.182 -3.547,-3.177 -3.515,-4.893 0.016,-0.879 0.412,-1.706 1.087,-2.267 0.554,-0.461 1.242,-0.694 2.046,-0.694 2.793,0 21.581,4.632 26.789,12.421 0.611,0.914 3.148,6.447 0.452,10.682 -0.466,0.731 -0.91,1.124 -1.339,1.504 -0.214,0.189 -0.492,0.435 -0.887,0.826 -0.819,0.812 -2.988,2.961 -3.676,4.805 -0.592,1.588 -0.079,3.213 0.296,4.4 0.735,2.327 0.271,3.88 -1.382,4.616 l -0.551,0.246 z"
   id="path11"
   inkscape:connector-curvature="0" />
				</g>
			</g>
			<g
   id="g38">
				<defs
   id="defs18">
					<path
   id="SVGID_1_"
   d="m 167.128,204.079 c -0.239,-0.427 0.165,-0.926 0.633,-0.782 4.662,1.44 15.965,3.182 21.787,1.485 0.918,-0.268 8.712,-3.997 8.106,-7.493 -0.414,-2.389 -3.269,-4.642 -4.978,-5.412 -15.659,-7.057 -23.489,-10.585 -25.125,-10.875 -2.362,-0.419 -9.367,-1.517 -26.875,0.875 -16.557,2.262 -40.35,7.35 -53.5,4.625 -0.455,-0.094 -7.952,-1.713 -8.375,-5 -0.113,-0.875 0.278,-1.85 0.188,-4.75 -0.048,-1.524 -0.185,-2.22 -0.688,-2.625 -0.855,-0.69 -2.207,-0.086 -2.875,0 -3.36,0.431 -10.326,-9.601 -13,-26.125 -1.312,-8.105 -1.28,-15.854 -1.25,-23.375 0.032,-7.883 0.496,-10.439 -0.625,-15.625 -0.902,-4.172 -2.284,-10.565 -7.25,-16 -5.062,-5.541 -12.48,-8.59 -11.906,-9.844 0.082,-0.178 0.291,-0.246 0.406,-0.281 9.676,-2.973 14.562,-4.425 16.875,-2.75 1.77,1.282 2.376,3.209 2.875,4.875 4.676,15.609 7.014,23.414 8,32.25 0.588,5.268 0.917,10.289 4.422,12.41 1.922,1.163 4.396,1.211 4.828,1.215 3.14,0.026 3.998,-1.433 8.125,-2.25 3.872,-0.767 5.376,0.069 5.75,-0.75 0.798,-1.746 -4.985,-7.845 -10.375,-7.75 -0.78,0.014 -2.381,0.172 -4.875,0 -2.178,-0.15 -3.281,-0.236 -4,-0.75 -0.605,-0.433 -1.848,-1.649 -1.75,-7.375 0.054,-3.153 0.081,-4.729 0.875,-7.625 C 74.464,97.398 73.389,81.156 67.363,68.502 62.42,58.121 58.485,59.27 52.988,46.752 52.656,45.995 46.111,30.874 49.675,28.439 c 2.042,-1.394 5.426,2.719 16.063,7.563 9.001,4.098 9.781,2.611 14.688,5.625 7.277,4.47 10.863,10.999 14.813,18.188 4.765,8.674 3.874,10.765 8.938,20.188 4.069,7.572 10.101,16.377 11.938,15.563 2.007,-0.89 -1.584,-13.013 -1.188,-28.25 0.03,-1.16 0.149,-4.44 1.875,-8.063 0.387,-0.812 3.804,-7.982 7.813,-7.75 3.48,0.201 3.743,5.769 10.688,9.563 1.723,0.941 3.296,1.772 4.75,1.188 2.163,-0.869 2.594,-4.279 5.438,-5.063 0.383,-0.106 0.556,-0.093 0.688,-0.063 1.69,0.396 2.409,5.171 1.563,8.938 -0.505,2.248 -1.48,3.746 -2.563,5.375 -2.821,4.246 -5.023,4.991 -9.375,10.25 -2.799,3.383 -2.926,4.327 -2.938,4.875 -0.092,4.221 6.077,8.86 10.063,7.75 0.88,-0.245 1.394,-0.698 2,-1.188 0,0 5.925,-4.781 13.875,-6.688 3.101,-0.744 5.915,-1.419 8.625,-0.063 1.008,0.505 1.123,1.163 4.313,3.844 0.716,0.602 4.872,3.99 5.188,3.531 0.404,-0.587 -7.611,-4.764 -10.625,-12.875 -2.546,-6.852 -0.704,-13.287 0,-15.625 2.525,-8.389 9.461,-16.83 13.75,-15.75 1.791,0.451 3.308,2.609 3.438,4.5 0.148,2.153 -1.558,3.152 -2.375,5.313 -1.337,3.535 0.756,7.402 2.313,10.188 5.759,10.308 11.862,19.604 16.25,29.25 0,0 5.501,12.094 2.125,14.375 -0.33,0.223 -1.651,0.897 -1.563,1.125 0.062,0.159 0.775,0.018 0.875,0 1.557,-0.28 7.884,1.735 12.313,7.688 3.871,5.203 6.463,13.645 3.125,18.688 -0.54,0.816 -0.725,0.772 -1.938,2.188 -2.021,2.36 -3.428,4.726 -4.419,6.812 -0.923,1.943 -1.393,4.066 -1.393,6.217 v 1.78 c 0,1.493 0.819,2.865 2.123,3.593 11.614,6.478 14.055,10.893 13.814,13.847 -0.089,1.098 -0.754,4.506 -0.063,9.063 0.261,1.717 0.404,2.601 1.032,3.646 1.59,2.649 4.797,3.847 7.156,4.729 2.604,0.973 4.423,1.177 4.625,2.25 0.134,0.71 -0.519,1.39 -0.813,1.688 -15.775,16.006 -24.25,18.687 -24.25,18.688 -5.095,1.612 -6.794,1.179 -10.563,3.438 -1.166,0.699 -8.136,4.876 -8.063,9.375 0.009,0.53 0.121,1.404 -0.438,2.063 -1.091,1.287 -3.805,0.646 -4.688,0.438 -5.198,-1.228 -9.218,-6.87 -11.375,-10 -2.908,-4.222 -6.443,-9.694 -10.175,-16.365 z"
   inkscape:connector-curvature="0" />
				</defs>
				<clipPath
   id="SVGID_2_">
					<use
   xlink:href="#SVGID_1_"
   style="overflow:visible"
   id="use20"
   x="0"
   y="0"
   width="100%"
   height="100%" />
				</clipPath>
				<linearGradient
   id="SVGID_3_"
   gradientUnits="userSpaceOnUse"
   x1="-15.9726"
   y1="66.089401"
   x2="255.31599"
   y2="192.5934">
					<stop
   offset="0"
   style="stop-color:#C46837"
   id="stop23" />
					<stop
   offset="0.6"
   style="stop-color:#D2C14E"
   id="stop25" />
					<stop
   offset="0.7234"
   style="stop-color:#E2D78C"
   id="stop27" />
					<stop
   offset="0.8571"
   style="stop-color:#F3EECC"
   id="stop29" />
					<stop
   offset="0.9527"
   style="stop-color:#FDFCF3"
   id="stop31" />
					<stop
   offset="1"
   style="stop-color:#FFFFFF"
   id="stop33" />
				</linearGradient>
				<rect
   x="1.836"
   y="27.898001"
   style="fill:url(#SVGID_3_)"
   width="235.67101"
   height="202.88699"
   clip-path="url(#SVGID_2_)"
   id="rect36" />
			</g>
			<g
   id="g61">
				<defs
   id="defs41">
					<path
   id="SVGID_4_"
   d="m 70.04,173.618 c 0.096,-0.035 0.055,-0.169 -0.046,-0.157 -4.367,0.543 -9.947,-2.328 -14.816,-5.959 -9.64,-7.188 -13.208,-16.25 -15.417,-19.083 -0.296,-0.379 -0.989,0.573 -1.333,3.083 -1.167,8.5 -1.453,14.167 -0.833,18.5 0.27,1.887 2.732,5.344 5.833,6.667 2.833,1.208 4.798,1.976 13.542,0.292 3.44,-0.663 10.621,-2.458 13.07,-3.343 z"
   inkscape:connector-curvature="0" />
				</defs>
				<clipPath
   id="SVGID_5_">
					<use
   xlink:href="#SVGID_4_"
   style="overflow:visible"
   id="use43"
   x="0"
   y="0"
   width="100%"
   height="100%" />
				</clipPath>
				<linearGradient
   id="SVGID_6_"
   gradientUnits="userSpaceOnUse"
   x1="-15.9726"
   y1="66.089401"
   x2="255.31599"
   y2="192.5934">
					<stop
   offset="0"
   style="stop-color:#C46837"
   id="stop46" />
					<stop
   offset="0.6"
   style="stop-color:#D2C14E"
   id="stop48" />
					<stop
   offset="0.7234"
   style="stop-color:#E2D78C"
   id="stop50" />
					<stop
   offset="0.8571"
   style="stop-color:#F3EECC"
   id="stop52" />
					<stop
   offset="0.9527"
   style="stop-color:#FDFCF3"
   id="stop54" />
					<stop
   offset="1"
   style="stop-color:#FFFFFF"
   id="stop56" />
				</linearGradient>
				<rect
   x="1.836"
   y="27.898001"
   style="fill:url(#SVGID_6_)"
   width="235.67101"
   height="202.88699"
   clip-path="url(#SVGID_5_)"
   id="rect59" />
			</g>
			<g
   id="g84">
				<defs
   id="defs64">
					<path
   id="SVGID_7_"
   d="m 28.01,138.169 c 1.222,-0.543 0.556,-3.15 3,-5.5 0.382,-0.367 1.484,-1.403 3.083,-1.75 2.47,-0.536 4.698,0.881 5.75,1.5 3.776,2.221 11.488,5.386 13.833,3.583 3.222,-2.476 -2.816,-15 -6.667,-21.25 -3.205,-5.201 -5.529,-7.086 -8.083,-8.083 -0.901,-0.352 -6.055,-2.365 -9.5,-0.083 -1.119,0.741 -1.699,1.698 -3.333,2.167 0,0 -1.711,0.342 -4.042,-0.458 -5.959,-2.048 -9.854,-19.822 -11.208,-19.625 -0.953,0.139 -0.892,9.302 1,20.167 1.913,10.986 4.39,16.194 6.25,19.417 3.487,6.04 8.056,10.741 9.917,9.915 z"
   inkscape:connector-curvature="0" />
				</defs>
				<clipPath
   id="SVGID_8_">
					<use
   xlink:href="#SVGID_7_"
   style="overflow:visible"
   id="use66"
   x="0"
   y="0"
   width="100%"
   height="100%" />
				</clipPath>
				<linearGradient
   id="SVGID_9_"
   gradientUnits="userSpaceOnUse"
   x1="-15.9726"
   y1="66.089401"
   x2="255.31599"
   y2="192.5934">
					<stop
   offset="0"
   style="stop-color:#C46837"
   id="stop69" />
					<stop
   offset="0.6"
   style="stop-color:#D2C14E"
   id="stop71" />
					<stop
   offset="0.7234"
   style="stop-color:#E2D78C"
   id="stop73" />
					<stop
   offset="0.8571"
   style="stop-color:#F3EECC"
   id="stop75" />
					<stop
   offset="0.9527"
   style="stop-color:#FDFCF3"
   id="stop77" />
					<stop
   offset="1"
   style="stop-color:#FFFFFF"
   id="stop79" />
				</linearGradient>
				<rect
   x="1.836"
   y="27.898001"
   style="fill:url(#SVGID_9_)"
   width="235.67101"
   height="202.88699"
   clip-path="url(#SVGID_8_)"
   id="rect82" />
			</g>
			<g
   id="g107">
				<defs
   id="defs87">
					<path
   id="SVGID_10_"
   d="M 2.26,37.669 C 2.051,37.45 1.659,36.873 1.927,36.336 c 0.88,-1.766 6.21,-4.888 12.333,-5.833 2.485,-0.384 8.38,0.722 11,1.833 0.182,0.077 0.547,0.241 1.042,0.229 1.712,-0.04 3.195,-2.138 3.938,-3.188 0.614,-0.869 0.643,-1.112 1.063,-1.313 1.072,-0.511 2.664,0.229 3.562,1.188 1.253,1.337 1.26,3.209 1.25,4.125 -0.089,8.542 -1.15,12.515 -0.125,17.5 0.383,1.865 0.777,3.679 2.188,5.5 2.239,2.892 6.343,4.902 8.188,4.625 0.171,-0.026 0.866,0.051 0.984,0.341 0.278,0.682 -0.477,1.078 -0.672,1.159 -1.8,0.747 -8.781,1.969 -14.25,1.188 C 26.324,62.818 27.366,58.815 22.053,52.127 16.382,44.99 6.739,42.377 2.26,37.669 Z"
   inkscape:connector-curvature="0" />
				</defs>
				<clipPath
   id="SVGID_11_">
					<use
   xlink:href="#SVGID_10_"
   style="overflow:visible"
   id="use89"
   x="0"
   y="0"
   width="100%"
   height="100%" />
				</clipPath>
				<linearGradient
   id="SVGID_12_"
   gradientUnits="userSpaceOnUse"
   x1="-15.9726"
   y1="66.089401"
   x2="255.31599"
   y2="192.5934">
					<stop
   offset="0"
   style="stop-color:#C46837"
   id="stop92" />
					<stop
   offset="0.6"
   style="stop-color:#D2C14E"
   id="stop94" />
					<stop
   offset="0.7234"
   style="stop-color:#E2D78C"
   id="stop96" />
					<stop
   offset="0.8571"
   style="stop-color:#F3EECC"
   id="stop98" />
					<stop
   offset="0.9527"
   style="stop-color:#FDFCF3"
   id="stop100" />
					<stop
   offset="1"
   style="stop-color:#FFFFFF"
   id="stop102" />
				</linearGradient>
				<rect
   x="1.836"
   y="27.898001"
   style="fill:url(#SVGID_12_)"
   width="235.67101"
   height="202.88699"
   clip-path="url(#SVGID_11_)"
   id="rect105" />
			</g>
			<g
   id="g130">
				<defs
   id="defs110">
					<path
   id="SVGID_13_"
   d="m 96.51,38.502 c 2.588,4.11 0.845,5.362 3.5,12.667 2.402,6.608 5.869,11.197 6.5,10.917 0.54,-0.24 -1.807,-3.689 -0.417,-7.417 0.906,-2.43 3.355,-4.856 4.337,-5.828 1.134,-1.123 1.415,-1.187 1.83,-1.838 1.819,-2.856 -0.122,-7.143 -0.417,-7.583 -4.667,-6.979 -24.046,-11.64 -24.667,-11.124 -0.812,0.675 6.156,5.159 9.334,10.206 z"
   inkscape:connector-curvature="0" />
				</defs>
				<clipPath
   id="SVGID_14_">
					<use
   xlink:href="#SVGID_13_"
   style="overflow:visible"
   id="use112"
   x="0"
   y="0"
   width="100%"
   height="100%" />
				</clipPath>
				<linearGradient
   id="SVGID_15_"
   gradientUnits="userSpaceOnUse"
   x1="-15.9726"
   y1="66.089401"
   x2="255.31599"
   y2="192.5934">
					<stop
   offset="0"
   style="stop-color:#C46837"
   id="stop115" />
					<stop
   offset="0.6"
   style="stop-color:#D2C14E"
   id="stop117" />
					<stop
   offset="0.7234"
   style="stop-color:#E2D78C"
   id="stop119" />
					<stop
   offset="0.8571"
   style="stop-color:#F3EECC"
   id="stop121" />
					<stop
   offset="0.9527"
   style="stop-color:#FDFCF3"
   id="stop123" />
					<stop
   offset="1"
   style="stop-color:#FFFFFF"
   id="stop125" />
				</linearGradient>
				<rect
   x="1.836"
   y="27.898001"
   style="fill:url(#SVGID_15_)"
   width="235.67101"
   height="202.88699"
   clip-path="url(#SVGID_14_)"
   id="rect128" />
			</g>
		</g>
		<g
   id="g425">
			<g
   id="g206">
				<g
   id="g144">
					<g
   id="g142">
						<path
   style="fill:#3970b2"
   d="m 117.393,125.159 c -1.67,0 -3.198,-0.202 -4.543,-0.6 -1.399,-0.415 -2.55,-1.054 -3.419,-1.9 -0.903,-0.878 -1.451,-1.863 -1.627,-2.928 -0.157,-0.939 -0.233,-2.506 -0.233,-4.788 v -3.679 c 0,-2.228 0.073,-3.772 0.223,-4.722 0.169,-1.075 0.695,-2.062 1.564,-2.933 0.837,-0.838 1.968,-1.485 3.359,-1.923 1.341,-0.423 2.915,-0.637 4.677,-0.637 1.672,0 3.2,0.202 4.543,0.6 1.398,0.414 2.549,1.053 3.419,1.899 0.903,0.878 1.451,1.864 1.628,2.928 0.157,0.94 0.233,2.507 0.233,4.789 v 3.679 c 0,2.225 -0.073,3.77 -0.223,4.721 -0.169,1.077 -0.696,2.063 -1.565,2.933 -0.837,0.838 -1.967,1.485 -3.358,1.924 -1.343,0.423 -2.917,0.637 -4.678,0.637 z m -0.255,-5.361 c 0.044,0.01 0.12,0.021 0.236,0.021 0.203,0 0.271,-0.037 0.271,-0.038 v 0 c -0.02,0 0.113,-0.374 0.113,-2.021 v -9.883 c 0,-1.005 -0.082,-1.372 -0.116,-1.48 -0.004,10e-4 -0.011,0.002 -0.019,0.002 -0.033,0 -0.097,-0.008 -0.194,-0.008 -0.073,0 -0.25,0.007 -0.313,0.074 0.002,-0.002 0.003,-0.003 0.004,-0.003 0.019,0 -0.093,0.317 -0.093,1.417 v 10.042 c 0,1.234 0.073,1.712 0.111,1.877 z"
   id="path134"
   inkscape:connector-curvature="0" />
						<path
   style="fill:#3970b2"
   d="m 129.766,124.708 v -23.207 h 8.662 c 2.194,0 3.845,0.124 5.049,0.377 1.279,0.269 2.231,0.662 2.913,1.201 0.705,0.558 1.19,1.248 1.444,2.052 0.231,0.731 0.343,1.791 0.343,3.238 v 1.873 c 0,1.55 -0.235,2.679 -0.719,3.453 -0.501,0.801 -1.385,1.409 -2.627,1.807 -1.144,0.367 -2.576,0.545 -4.377,0.545 h -1.231 v 8.661 z m 9.457,-14.05 c 0.49,-0.032 0.625,-0.143 0.63,-0.147 v 0 c -0.002,0 0.138,-0.197 0.138,-0.946 v -1.767 c 0,-0.588 -0.124,-0.744 -0.125,-0.746 v 0 c -0.002,0 -0.145,-0.083 -0.643,-0.134 z"
   id="path136"
   inkscape:connector-curvature="0" />
						<polygon
   style="fill:#3970b2"
   points="164.699,101.501 164.699,107.506 159.521,107.506 159.521,109.882 164.367,109.882 164.367,115.675 159.521,115.675 159.521,118.703 165.215,118.703 165.215,124.708 150.064,124.708 150.064,101.501 "
   id="polygon138" />
						<polygon
   style="fill:#3970b2"
   points="175.288,124.708 167.102,124.708 167.102,101.501 174.988,101.501 177.935,108.065 177.935,101.501 186.121,101.501 186.121,124.708 177.903,124.708 175.288,118.37 "
   id="polygon140" />
					</g>
				</g>
				<g
   id="g159">
					<defs
   id="defs147">
						<path
   id="SVGID_16_"
   d="m 126.144,106.615 c -0.147,-0.885 -0.608,-1.705 -1.382,-2.458 -0.774,-0.752 -1.796,-1.317 -3.068,-1.693 -1.271,-0.376 -2.706,-0.564 -4.302,-0.564 -1.683,0 -3.157,0.199 -4.422,0.598 -1.265,0.398 -2.27,0.97 -3.013,1.713 -0.743,0.744 -1.185,1.565 -1.326,2.464 -0.142,0.899 -0.212,2.429 -0.212,4.59 v 3.679 c 0,2.214 0.074,3.764 0.221,4.649 0.147,0.886 0.608,1.705 1.382,2.458 0.773,0.753 1.796,1.317 3.067,1.694 1.271,0.376 2.705,0.564 4.302,0.564 1.683,0 3.156,-0.199 4.422,-0.598 1.265,-0.398 2.269,-0.97 3.012,-1.714 0.743,-0.744 1.185,-1.565 1.327,-2.464 0.141,-0.898 0.212,-2.429 0.212,-4.589 v -3.679 c 10e-4,-2.214 -0.072,-3.764 -0.22,-4.65 z m -7.536,11.145 c 0,1.267 -0.074,2.068 -0.221,2.404 -0.147,0.337 -0.485,0.505 -1.013,0.505 -0.516,0 -0.845,-0.146 -0.986,-0.438 -0.141,-0.292 -0.212,-1.063 -0.212,-2.311 v -10.042 c 0,-1.106 0.107,-1.773 0.323,-1.999 0.214,-0.226 0.525,-0.338 0.93,-0.338 0.479,0 0.795,0.139 0.949,0.418 0.154,0.279 0.23,0.919 0.23,1.919 z"
   inkscape:connector-curvature="0" />
					</defs>
					<clipPath
   id="SVGID_17_">
						<use
   xlink:href="#SVGID_16_"
   style="overflow:visible"
   id="use149"
   x="0"
   y="0"
   width="100%"
   height="100%" />
					</clipPath>
					<linearGradient
   id="SVGID_18_"
   gradientUnits="userSpaceOnUse"
   x1="108.4199"
   y1="113.1042"
   x2="185.27049"
   y2="113.1042">
						<stop
   offset="0"
   style="stop-color:#808387"
   id="stop152" />
						<stop
   offset="1"
   style="stop-color:#97B6D9"
   id="stop154" />
					</linearGradient>
					<rect
   x="108.42"
   y="101.9"
   style="fill:url(#SVGID_18_)"
   width="76.850998"
   height="22.409"
   clip-path="url(#SVGID_17_)"
   id="rect157" />
				</g>
				<g
   id="g174">
					<defs
   id="defs162">
						<path
   id="SVGID_19_"
   d="m 147.023,105.387 c -0.203,-0.642 -0.59,-1.189 -1.161,-1.641 -0.571,-0.452 -1.425,-0.797 -2.561,-1.036 -1.136,-0.239 -2.761,-0.358 -4.874,-0.358 h -7.812 v 21.505 h 7.756 v -8.661 h 2.082 c 1.695,0 3.067,-0.168 4.118,-0.505 1.05,-0.336 1.771,-0.819 2.165,-1.448 0.393,-0.629 0.589,-1.629 0.589,-3.002 v -1.873 c 0.002,-1.346 -0.099,-2.339 -0.302,-2.981 z m -6.182,4.177 c 0,0.797 -0.138,1.322 -0.415,1.574 -0.277,0.252 -0.771,0.378 -1.483,0.378 -0.16,0 -0.35,-0.004 -0.571,-0.013 v -5.473 c 1.007,0 1.67,0.111 1.99,0.332 0.319,0.222 0.479,0.7 0.479,1.435 z"
   inkscape:connector-curvature="0" />
					</defs>
					<clipPath
   id="SVGID_20_">
						<use
   xlink:href="#SVGID_19_"
   style="overflow:visible"
   id="use164"
   x="0"
   y="0"
   width="100%"
   height="100%" />
					</clipPath>
					<linearGradient
   id="SVGID_21_"
   gradientUnits="userSpaceOnUse"
   x1="108.4199"
   y1="113.1042"
   x2="185.27049"
   y2="113.1042">
						<stop
   offset="0"
   style="stop-color:#808387"
   id="stop167" />
						<stop
   offset="1"
   style="stop-color:#97B6D9"
   id="stop169" />
					</linearGradient>
					<rect
   x="108.42"
   y="101.9"
   style="fill:url(#SVGID_21_)"
   width="76.850998"
   height="22.409"
   clip-path="url(#SVGID_20_)"
   id="rect172" />
				</g>
				<g
   id="g189">
					<defs
   id="defs177">
						<polygon
   id="SVGID_22_"
   points="163.848,106.655 158.671,106.655 158.671,110.733 163.517,110.733 163.517,114.824 158.671,114.824 158.671,119.553 164.364,119.553 164.364,123.857 150.915,123.857 150.915,102.352 163.848,102.352 " />
					</defs>
					<clipPath
   id="SVGID_23_">
						<use
   xlink:href="#SVGID_22_"
   style="overflow:visible"
   id="use179"
   x="0"
   y="0"
   width="100%"
   height="100%" />
					</clipPath>
					<linearGradient
   id="SVGID_24_"
   gradientUnits="userSpaceOnUse"
   x1="108.4199"
   y1="113.1042"
   x2="185.27049"
   y2="113.1042">
						<stop
   offset="0"
   style="stop-color:#808387"
   id="stop182" />
						<stop
   offset="1"
   style="stop-color:#97B6D9"
   id="stop184" />
					</linearGradient>
					<rect
   x="108.42"
   y="101.9"
   style="fill:url(#SVGID_24_)"
   width="76.850998"
   height="22.409"
   clip-path="url(#SVGID_23_)"
   id="rect187" />
				</g>
				<g
   id="g204">
					<defs
   id="defs192">
						<polygon
   id="SVGID_25_"
   points="178.472,123.857 174.438,114.081 174.438,123.857 167.952,123.857 167.952,102.352 174.438,102.352 178.786,112.035 178.786,102.352 185.271,102.352 185.271,123.857 " />
					</defs>
					<clipPath
   id="SVGID_26_">
						<use
   xlink:href="#SVGID_25_"
   style="overflow:visible"
   id="use194"
   x="0"
   y="0"
   width="100%"
   height="100%" />
					</clipPath>
					<linearGradient
   id="SVGID_27_"
   gradientUnits="userSpaceOnUse"
   x1="108.4199"
   y1="113.1042"
   x2="185.27049"
   y2="113.1042">
						<stop
   offset="0"
   style="stop-color:#808387"
   id="stop197" />
						<stop
   offset="1"
   style="stop-color:#97B6D9"
   id="stop199" />
					</linearGradient>
					<rect
   x="108.42"
   y="101.9"
   style="fill:url(#SVGID_27_)"
   width="76.850998"
   height="22.409"
   clip-path="url(#SVGID_26_)"
   id="rect202" />
				</g>
			</g>
			<g
   id="g293">
				<path
   style="fill:#1e3e63"
   d="m 107.569,149.189 v -23.207 h 7.655 c 2.246,0 3.914,0.142 5.1,0.433 1.278,0.314 2.329,0.966 3.123,1.936 0.825,1.005 1.226,2.511 1.226,4.601 0,1.511 -0.318,2.572 -0.972,3.241 -0.189,0.193 -0.423,0.37 -0.704,0.53 0.46,0.253 0.83,0.549 1.114,0.89 0.697,0.835 1.05,2.074 1.05,3.681 v 1.993 c 0,1.63 -0.24,2.833 -0.733,3.678 -0.515,0.885 -1.33,1.494 -2.42,1.808 -0.971,0.279 -2.832,0.415 -5.693,0.415 h -8.746 z m 8.471,-5.439 c 0.383,-0.051 0.527,-0.117 0.562,-0.136 -0.011,-0.01 0.09,-0.25 0.09,-0.96 v -2.006 c 0,-0.614 -0.058,-0.899 -0.092,-1.013 -0.073,-0.021 -0.238,-0.061 -0.56,-0.095 z m 0,-9.321 c 0.304,-0.009 0.46,-0.052 0.527,-0.079 0.041,-0.152 0.125,-0.607 0.125,-1.792 0,-0.766 -0.11,-0.97 -0.114,-0.978 -0.063,-0.111 -0.106,-0.124 -0.119,-0.127 -0.037,-0.011 -0.149,-0.037 -0.419,-0.058 z"
   id="path208"
   inkscape:connector-curvature="0" />
				<polygon
   style="fill:#1e3e63"
   points="139.557,125.983 139.557,131.988 134.68,131.988 134.68,134.364 139.245,134.364 139.245,140.157 134.68,140.157 134.68,143.185 140.043,143.185 140.043,149.189 125.671,149.189 125.671,125.983 "
   id="polygon210" />
				<polygon
   style="fill:#1e3e63"
   points="154.485,131.988 154.485,125.983 167.952,125.983 167.952,131.988 164.645,131.988 164.645,149.189 157.779,149.189 157.779,131.988 "
   id="polygon212" />
				<g
   id="g227">
					<defs
   id="defs215">
						<path
   id="SVGID_28_"
   d="m 108.369,126.833 h 6.855 c 2.165,0 3.805,0.137 4.921,0.411 1.115,0.274 2.015,0.83 2.701,1.666 0.686,0.836 1.029,2.184 1.029,4.042 0,1.257 -0.242,2.133 -0.726,2.628 -0.484,0.496 -1.439,0.876 -2.864,1.142 1.588,0.292 2.666,0.777 3.231,1.456 0.565,0.678 0.849,1.717 0.849,3.117 v 1.993 c 0,1.454 -0.204,2.53 -0.612,3.23 -0.408,0.7 -1.058,1.178 -1.95,1.436 -0.892,0.257 -2.72,0.385 -5.483,0.385 h -7.948 v -21.506 z m 6.871,3.68 v 4.782 c 0.294,-0.009 0.522,-0.014 0.685,-0.014 0.674,0 1.104,-0.135 1.289,-0.405 0.185,-0.27 0.277,-1.043 0.277,-2.318 0,-0.673 -0.076,-1.145 -0.228,-1.415 -0.153,-0.27 -0.351,-0.44 -0.596,-0.511 -0.245,-0.071 -0.72,-0.111 -1.427,-0.119 z m 0,8.129 v 6.017 c 0.968,-0.026 1.586,-0.15 1.853,-0.372 0.266,-0.221 0.4,-0.766 0.4,-1.634 v -2.006 c 0,-0.921 -0.12,-1.479 -0.359,-1.674 -0.24,-0.194 -0.871,-0.305 -1.894,-0.331 z"
   inkscape:connector-curvature="0" />
					</defs>
					<clipPath
   id="SVGID_29_">
						<use
   xlink:href="#SVGID_28_"
   style="overflow:visible"
   id="use217"
   x="0"
   y="0"
   width="100%"
   height="100%" />
					</clipPath>
					
						<radialGradient
   id="SVGID_30_"
   cx="140.26421"
   cy="137.5862"
   r="28.302299"
   gradientTransform="matrix(0.9403,0,0,0.7,12.6108,41.2759)"
   gradientUnits="userSpaceOnUse">
						<stop
   offset="0"
   style="stop-color:#787B84"
   id="stop220" />
						<stop
   offset="1"
   style="stop-color:#3E6DA5"
   id="stop222" />
					</radialGradient>
					<rect
   x="108.369"
   y="126.382"
   style="fill:url(#SVGID_30_)"
   width="72.262001"
   height="22.409"
   clip-path="url(#SVGID_29_)"
   id="rect225" />
				</g>
				<g
   id="g242">
					<defs
   id="defs230">
						<path
   id="SVGID_31_"
   d="m 126.522,126.833 h 12.184 v 4.304 h -4.877 v 4.078 h 4.565 v 4.091 h -4.565 v 4.729 h 5.363 v 4.304 h -12.671 v -21.506 z"
   inkscape:connector-curvature="0" />
					</defs>
					<clipPath
   id="SVGID_32_">
						<use
   xlink:href="#SVGID_31_"
   style="overflow:visible"
   id="use232"
   x="0"
   y="0"
   width="100%"
   height="100%" />
					</clipPath>
					
						<radialGradient
   id="SVGID_33_"
   cx="146.8452"
   cy="137.5862"
   r="28.302299"
   gradientTransform="matrix(1,0,0,0.7,0,41.2759)"
   gradientUnits="userSpaceOnUse">
						<stop
   offset="0"
   style="stop-color:#787B84"
   id="stop235" />
						<stop
   offset="1"
   style="stop-color:#3E6DA5"
   id="stop237" />
					</radialGradient>
					<rect
   x="108.42"
   y="126.382"
   style="fill:url(#SVGID_33_)"
   width="76.850998"
   height="22.409"
   clip-path="url(#SVGID_32_)"
   id="rect240" />
				</g>
				<g
   id="g257">
					<defs
   id="defs245">
						<path
   id="SVGID_34_"
   d="m 167.304,126.833 v 4.304 h -3.307 v 17.202 h -5.57 v -17.202 h -3.294 v -4.304 z"
   inkscape:connector-curvature="0" />
					</defs>
					<clipPath
   id="SVGID_35_">
						<use
   xlink:href="#SVGID_34_"
   style="overflow:visible"
   id="use247"
   x="0"
   y="0"
   width="100%"
   height="100%" />
					</clipPath>
					
						<radialGradient
   id="SVGID_36_"
   cx="114.5096"
   cy="137.5862"
   r="28.302299"
   gradientTransform="matrix(0.7622,0,0,0.7,63.1058,41.2759)"
   gradientUnits="userSpaceOnUse">
						<stop
   offset="0"
   style="stop-color:#787B84"
   id="stop250" />
						<stop
   offset="1"
   style="stop-color:#3E6DA5"
   id="stop252" />
					</radialGradient>
					<rect
   x="121.097"
   y="126.382"
   style="fill:url(#SVGID_36_)"
   width="58.575001"
   height="22.409"
   clip-path="url(#SVGID_35_)"
   id="rect255" />
				</g>
				<path
   style="fill:#1e3e63"
   d="m 149.185,149.189 -0.356,-3.865 h -0.987 l -0.399,3.865 h -8.471 l 3.654,-23.207 h 10.884 l 4.097,23.207 z m -0.727,-9.378 c -0.087,-0.666 -0.173,-1.371 -0.26,-2.115 -0.108,0.791 -0.197,1.497 -0.266,2.115 z"
   id="path259"
   inkscape:connector-curvature="0" />
				<g
   id="g274">
					<defs
   id="defs262">
						<path
   id="SVGID_37_"
   d="m 152.872,126.833 3.797,21.505 h -6.785 l -0.356,-3.865 h -2.375 l -0.399,3.865 h -6.864 l 3.386,-21.505 z m -3.519,13.828 c -0.336,-2.436 -0.673,-5.447 -1.011,-9.033 -0.676,4.118 -1.101,7.129 -1.274,9.033 z"
   inkscape:connector-curvature="0" />
					</defs>
					<clipPath
   id="SVGID_38_">
						<use
   xlink:href="#SVGID_37_"
   style="overflow:visible"
   id="use264"
   x="0"
   y="0"
   width="100%"
   height="100%" />
					</clipPath>
					
						<radialGradient
   id="SVGID_39_"
   cx="136.41541"
   cy="137.5862"
   r="28.302299"
   gradientTransform="matrix(0.9086,0,0,0.7,23.8867,41.2759)"
   gradientUnits="userSpaceOnUse">
						<stop
   offset="0"
   style="stop-color:#787B84"
   id="stop267" />
						<stop
   offset="1"
   style="stop-color:#3E6DA5"
   id="stop269" />
					</radialGradient>
					<rect
   x="112.917"
   y="126.382"
   style="fill:url(#SVGID_39_)"
   width="69.823997"
   height="22.409"
   clip-path="url(#SVGID_38_)"
   id="rect272" />
				</g>
				<path
   style="fill:#1e3e63"
   d="m 177.165,149.641 c -2.057,0 -3.85,-0.308 -5.329,-0.914 -1.576,-0.646 -2.638,-1.514 -3.158,-2.579 -0.49,-1.004 -0.729,-2.347 -0.729,-4.106 v -2.258 h 6.002 c -0.033,-0.017 -0.066,-0.033 -0.1,-0.05 -1.872,-0.948 -3.087,-1.625 -3.719,-2.071 -0.699,-0.492 -1.28,-1.174 -1.729,-2.025 -0.451,-0.854 -0.679,-1.935 -0.679,-3.213 0,-1.847 0.322,-3.192 0.984,-4.11 0.651,-0.902 1.685,-1.605 3.073,-2.092 1.312,-0.459 2.901,-0.692 4.725,-0.692 1.985,0 3.712,0.253 5.133,0.752 1.542,0.542 2.556,1.24 3.1,2.134 0.521,0.856 0.775,2.189 0.775,4.075 v 1.701 h -6.551 c 2.954,1.384 4.813,2.531 5.675,3.498 0.998,1.119 1.483,2.803 1.483,5.149 0,1.715 -0.274,2.973 -0.838,3.848 -0.579,0.895 -1.605,1.603 -3.139,2.164 -1.431,0.523 -3.106,0.789 -4.979,0.789 z m -0.614,-5.367 c 0.032,0 0.137,0.026 0.336,0.026 0.215,0 0.357,-0.042 0.424,-0.124 0.05,-0.062 0.166,-0.259 0.166,-0.766 0,-1.438 -0.318,-1.785 -0.382,-1.84 -0.112,-0.094 -0.313,-0.236 -0.659,-0.447 v 2.128 c 0,0.698 0.079,0.958 0.105,1.025 0.001,-0.001 0.005,-0.002 0.01,-0.002 z m 0.198,-13.402 c -0.258,0 -0.318,0.073 -0.341,0.101 -0.034,0.042 -0.145,0.215 -0.145,0.71 0,0.705 0.142,1.013 0.227,1.134 0.021,0.031 0.123,0.168 0.536,0.42 v -1.49 c 0,-0.506 -0.044,-0.753 -0.072,-0.857 -0.039,-0.008 -0.104,-0.018 -0.205,-0.018 z"
   id="path276"
   inkscape:connector-curvature="0" />
				<g
   id="g291">
					<defs
   id="defs279">
						<path
   id="SVGID_40_"
   d="m 184.663,133.342 h -6.786 v -1.594 c 0,-0.744 -0.087,-1.217 -0.261,-1.421 -0.174,-0.204 -0.463,-0.305 -0.868,-0.305 -0.44,0 -0.772,0.137 -0.998,0.412 -0.226,0.274 -0.338,0.691 -0.338,1.25 0,0.717 0.127,1.258 0.38,1.622 0.242,0.363 0.93,0.802 2.065,1.314 3.252,1.478 5.301,2.69 6.146,3.638 0.845,0.948 1.267,2.475 1.267,4.583 0,1.532 -0.234,2.661 -0.703,3.387 -0.469,0.726 -1.374,1.335 -2.716,1.826 -1.343,0.492 -2.904,0.737 -4.687,0.737 -1.956,0 -3.625,-0.284 -5.007,-0.85 -1.383,-0.567 -2.289,-1.289 -2.716,-2.165 -0.428,-0.877 -0.642,-2.121 -0.642,-3.733 v -1.408 h 6.787 v 2.617 c 0,0.806 0.095,1.324 0.286,1.554 0.191,0.23 0.529,0.345 1.016,0.345 0.486,0 0.847,-0.146 1.085,-0.438 0.237,-0.292 0.356,-0.726 0.356,-1.302 0,-1.266 -0.226,-2.094 -0.677,-2.484 -0.463,-0.39 -1.603,-1.041 -3.419,-1.953 -1.817,-0.921 -3.02,-1.589 -3.61,-2.006 -0.59,-0.416 -1.079,-0.992 -1.467,-1.727 -0.388,-0.735 -0.581,-1.674 -0.581,-2.816 0,-1.647 0.275,-2.851 0.824,-3.613 0.549,-0.762 1.437,-1.357 2.664,-1.787 1.226,-0.429 2.708,-0.644 4.443,-0.644 1.898,0 3.514,0.234 4.851,0.704 1.336,0.47 2.222,1.061 2.656,1.773 0.434,0.713 0.651,1.924 0.651,3.633 v 0.851 z"
   inkscape:connector-curvature="0" />
					</defs>
					<clipPath
   id="SVGID_41_">
						<use
   xlink:href="#SVGID_40_"
   style="overflow:visible"
   id="use281"
   x="0"
   y="0"
   width="100%"
   height="100%" />
					</clipPath>
					
						<radialGradient
   id="SVGID_42_"
   cx="146.8452"
   cy="137.5862"
   r="28.302299"
   gradientTransform="matrix(1,0,0,0.7,0,41.2759)"
   gradientUnits="userSpaceOnUse">
						<stop
   offset="0"
   style="stop-color:#787B84"
   id="stop284" />
						<stop
   offset="1"
   style="stop-color:#3E6DA5"
   id="stop286" />
					</radialGradient>
					<rect
   x="108.42"
   y="126.382"
   style="fill:url(#SVGID_42_)"
   width="76.850998"
   height="22.409"
   clip-path="url(#SVGID_41_)"
   id="rect289" />
				</g>
			</g>
			<g
   id="g333">
				<g
   id="g301">
					<g
   id="g299">
						<path
   style="fill:#4874ab"
   d="m 157.493,160.909 c -1.563,0 -2.994,-0.204 -4.254,-0.604 -1.313,-0.419 -2.392,-1.064 -3.207,-1.917 -0.838,-0.877 -1.346,-1.858 -1.509,-2.915 -0.145,-0.937 -0.215,-2.5 -0.215,-4.779 v -3.679 c 0,-2.224 0.067,-3.766 0.206,-4.713 0.155,-1.067 0.643,-2.05 1.45,-2.919 0.785,-0.845 1.844,-1.498 3.149,-1.94 1.257,-0.427 2.731,-0.643 4.38,-0.643 1.565,0 2.996,0.204 4.254,0.605 1.313,0.418 2.391,1.063 3.206,1.916 0.838,0.877 1.346,1.858 1.509,2.915 0.145,0.938 0.215,2.501 0.215,4.78 v 3.679 c 0,2.221 -0.067,3.762 -0.206,4.712 -0.156,1.069 -0.644,2.051 -1.45,2.92 -0.784,0.845 -1.844,1.498 -3.149,1.94 -1.257,0.426 -2.73,0.642 -4.379,0.642 z m -0.175,-5.351 c 0.035,0.006 0.086,0.011 0.158,0.011 0.148,0 0.202,-0.025 0.202,-0.025 0,0 -0.001,0 -0.001,0 -0.028,0 0.096,-0.385 0.096,-2.034 v -9.883 c 0,-0.954 -0.069,-1.341 -0.104,-1.477 -0.03,-0.005 -0.076,-0.01 -0.141,-0.01 -0.055,0 -0.186,0.005 -0.228,0.051 0.002,-0.002 0.003,-0.003 0.004,-0.003 0.017,0 -0.09,0.321 -0.09,1.438 v 10.042 c 0,1.23 0.067,1.716 0.104,1.89 z"
   id="path295"
   inkscape:connector-curvature="0" />
						<path
   style="fill:#4874ab"
   d="m 166.944,160.458 v -14.412 h -1.42 v -4.491 h 1.432 c 0.028,-1.025 0.108,-1.453 0.171,-1.691 0.152,-0.576 0.512,-1.082 1.071,-1.504 0.509,-0.384 1.174,-0.662 2.034,-0.849 0.797,-0.174 1.971,-0.259 3.587,-0.259 h 3.384 v 8.794 h -1.643 v 14.412 z"
   id="path297"
   inkscape:connector-curvature="0" />
					</g>
				</g>
				<g
   id="g316">
					<defs
   id="defs304">
						<path
   id="SVGID_43_"
   d="m 165.827,150.694 c 0,2.161 -0.066,3.691 -0.197,4.589 -0.131,0.899 -0.542,1.72 -1.232,2.464 -0.69,0.744 -1.624,1.315 -2.798,1.714 -1.175,0.398 -2.544,0.598 -4.107,0.598 -1.483,0 -2.815,-0.188 -3.996,-0.564 -1.181,-0.376 -2.13,-0.941 -2.849,-1.694 -0.719,-0.752 -1.147,-1.572 -1.284,-2.458 -0.137,-0.885 -0.205,-2.435 -0.205,-4.649 v -3.679 c 0,-2.161 0.065,-3.691 0.197,-4.59 0.131,-0.898 0.542,-1.72 1.232,-2.464 0.69,-0.744 1.623,-1.315 2.798,-1.713 1.175,-0.398 2.544,-0.598 4.107,-0.598 1.483,0 2.815,0.188 3.996,0.564 1.181,0.376 2.131,0.941 2.85,1.693 0.719,0.753 1.146,1.572 1.284,2.458 0.137,0.886 0.205,2.436 0.205,4.649 v 3.68 z m -7.204,-7.067 c 0,-1 -0.072,-1.64 -0.214,-1.919 -0.143,-0.279 -0.436,-0.418 -0.881,-0.418 -0.376,0 -0.665,0.113 -0.864,0.338 -0.2,0.226 -0.299,0.893 -0.299,1.999 v 10.042 c 0,1.249 0.065,2.019 0.197,2.311 0.131,0.292 0.437,0.438 0.916,0.438 0.491,0 0.805,-0.168 0.941,-0.505 0.137,-0.336 0.206,-1.138 0.206,-2.404 v -9.882 z"
   inkscape:connector-curvature="0" />
					</defs>
					<clipPath
   id="SVGID_44_">
						<use
   xlink:href="#SVGID_43_"
   style="overflow:visible"
   id="use306"
   x="0"
   y="0"
   width="100%"
   height="100%" />
					</clipPath>
					<linearGradient
   id="SVGID_45_"
   gradientUnits="userSpaceOnUse"
   x1="149.15871"
   y1="148.8542"
   x2="176.35159"
   y2="148.8542">
						<stop
   offset="0"
   style="stop-color:#808387"
   id="stop309" />
						<stop
   offset="1"
   style="stop-color:#97B6D9"
   id="stop311" />
					</linearGradient>
					<rect
   x="149.159"
   y="137.64999"
   style="fill:url(#SVGID_45_)"
   width="27.193001"
   height="22.409"
   clip-path="url(#SVGID_44_)"
   id="rect314" />
				</g>
				<g
   id="g331">
					<defs
   id="defs319">
						<path
   id="SVGID_46_"
   d="m 176.352,138.102 v 2.723 c -1.426,0 -2.268,0.051 -2.524,0.153 -0.257,0.102 -0.385,0.392 -0.385,0.87 v 0.558 h 2.91 v 2.79 h -1.643 v 14.412 h -6.914 v -14.412 h -1.42 v -2.79 h 1.42 c 0,-1.16 0.051,-1.935 0.154,-2.325 0.103,-0.39 0.356,-0.737 0.761,-1.043 0.405,-0.305 0.973,-0.538 1.703,-0.697 0.73,-0.159 1.865,-0.239 3.405,-0.239 z"
   inkscape:connector-curvature="0" />
					</defs>
					<clipPath
   id="SVGID_47_">
						<use
   xlink:href="#SVGID_46_"
   style="overflow:visible"
   id="use321"
   x="0"
   y="0"
   width="100%"
   height="100%" />
					</clipPath>
					<linearGradient
   id="SVGID_48_"
   gradientUnits="userSpaceOnUse"
   x1="149.15871"
   y1="148.8542"
   x2="176.35159"
   y2="148.8542">
						<stop
   offset="0"
   style="stop-color:#808387"
   id="stop324" />
						<stop
   offset="1"
   style="stop-color:#97B6D9"
   id="stop326" />
					</linearGradient>
					<rect
   x="149.159"
   y="137.64999"
   style="fill:url(#SVGID_48_)"
   width="27.193001"
   height="22.409"
   clip-path="url(#SVGID_47_)"
   id="rect329" />
				</g>
			</g>
			<g
   id="g423">
				<g
   id="g345">
					<g
   id="g343">
						<path
   style="fill:#213e5f"
   d="m 117.589,173.344 v -7.997 c 0,-1.174 -0.141,-1.524 -0.17,-1.585 -10e-4,0.001 -0.003,0.001 -0.006,0.001 -0.028,0 -0.158,-0.042 -0.459,-0.075 v 9.656 h -9.384 v -23.207 h 6.289 c 3.706,0 6.158,0.104 7.497,0.316 1.464,0.233 2.681,0.842 3.617,1.81 0.964,0.997 1.453,2.543 1.453,4.596 0,1.925 -0.361,3.225 -1.104,3.973 -0.218,0.219 -0.485,0.41 -0.803,0.574 0.17,0.103 0.32,0.211 0.451,0.326 0.645,0.569 1.044,1.105 1.222,1.64 0.109,0.329 0.235,1.018 0.235,3.449 v 6.522 h -8.838 z m -0.635,-14.784 c 0.274,-0.03 0.433,-0.072 0.519,-0.103 0.038,-0.089 0.117,-0.349 0.117,-0.947 v -1.182 c 0,-0.501 -0.111,-0.626 -0.112,-0.627 -0.029,-0.018 -0.161,-0.088 -0.523,-0.136 v 2.995 z"
   id="path335"
   inkscape:connector-curvature="0" />
						<path
   style="fill:#213e5f"
   d="m 138.879,173.344 -0.412,-3.865 h -1.229 l -0.462,3.865 h -9.718 l 4.229,-23.207 h 12.509 l 4.741,23.207 z m -0.84,-9.379 c -0.114,-0.753 -0.228,-1.557 -0.341,-2.41 -0.146,0.913 -0.265,1.716 -0.354,2.41 z"
   id="path337"
   inkscape:connector-curvature="0" />
						<path
   style="fill:#213e5f"
   d="m 157.359,173.796 c -1.395,0 -2.722,-0.251 -3.945,-0.747 -1.246,-0.504 -2.218,-1.152 -2.889,-1.924 -0.681,-0.784 -1.114,-1.629 -1.288,-2.512 -0.158,-0.798 -0.235,-1.941 -0.235,-3.491 v -6.389 c 0,-2.166 0.163,-3.716 0.499,-4.741 0.378,-1.156 1.367,-2.151 3.025,-3.042 1.56,-0.838 3.577,-1.264 5.996,-1.264 2.362,0 4.365,0.365 5.954,1.085 1.663,0.754 2.778,1.696 3.315,2.8 0.513,1.054 0.762,2.494 0.762,4.404 v 1.78 h -9.385 v -2.803 c 0,-1.338 -0.092,-1.79 -0.127,-1.915 -0.004,0.001 -0.011,0.002 -0.021,0.002 -0.04,0 -0.125,-0.013 -0.261,-0.013 -0.188,0 -0.264,0.031 -0.279,0.038 0.019,0.001 -0.093,0.33 -0.093,1.556 v 3.48 h 10.166 v 13.244 h -6.224 l -0.428,-0.93 c -0.417,0.332 -0.883,0.605 -1.393,0.818 -0.898,0.374 -1.957,0.564 -3.149,0.564 z m 1.18,-5.365 c 0.021,0 0.111,0.024 0.275,0.024 0.209,0 0.373,-0.038 0.405,-0.095 0.019,-0.033 0.186,-0.356 0.186,-1.592 v -1.7 h -1.019 v 1.873 c 0,1.195 0.142,1.479 0.148,1.491 0,-10e-4 0.002,-10e-4 0.005,-10e-4 z"
   id="path339"
   inkscape:connector-curvature="0" />
						<polygon
   style="fill:#213e5f"
   points="185.61,150.138 185.61,156.143 180.481,156.143 180.481,158.519 185.281,158.519 185.281,164.312 180.481,164.312 180.481,167.339 186.121,167.339 186.121,173.344 171.097,173.344 171.097,150.138 "
   id="polygon341" />
					</g>
				</g>
				<g
   id="g364">
					<defs
   id="defs348">
						<path
   id="SVGID_49_"
   d="m 143.103,150.988 4.394,21.505 h -7.852 l -0.412,-3.865 h -2.749 l -0.462,3.865 h -7.943 l 3.919,-21.505 z m -4.072,13.828 c -0.389,-2.436 -0.779,-5.447 -1.171,-9.033 -0.783,4.118 -1.274,7.129 -1.475,9.033 z"
   inkscape:connector-curvature="0" />
					</defs>
					<clipPath
   id="SVGID_50_">
						<use
   xlink:href="#SVGID_49_"
   style="overflow:visible"
   id="use350"
   x="0"
   y="0"
   width="100%"
   height="100%" />
					</clipPath>
					<radialGradient
   id="SVGID_51_"
   cx="146.8452"
   cy="161.741"
   r="28.302299"
   gradientUnits="userSpaceOnUse">
						<stop
   offset="0"
   style="stop-color:#7B7E84"
   id="stop353" />
						<stop
   offset="0.2363"
   style="stop-color:#757C88"
   id="stop355" />
						<stop
   offset="0.6204"
   style="stop-color:#637792"
   id="stop357" />
						<stop
   offset="1"
   style="stop-color:#48709E"
   id="stop359" />
					</radialGradient>
					<rect
   x="108.42"
   y="150.537"
   style="fill:url(#SVGID_51_)"
   width="76.850998"
   height="22.409"
   clip-path="url(#SVGID_50_)"
   id="rect362" />
				</g>
				<g
   id="g383">
					<defs
   id="defs367">
						<path
   id="SVGID_52_"
   d="m 108.42,150.988 h 5.438 c 3.626,0 6.08,0.102 7.364,0.305 1.284,0.204 2.33,0.724 3.139,1.561 0.809,0.837 1.214,2.172 1.214,4.005 0,1.673 -0.286,2.798 -0.858,3.374 -0.572,0.576 -1.697,0.921 -3.377,1.036 1.521,0.274 2.543,0.642 3.066,1.102 0.523,0.461 0.848,0.884 0.976,1.269 0.128,0.385 0.192,1.446 0.192,3.182 v 5.672 h -7.136 v -7.146 c 0,-1.151 -0.125,-1.864 -0.374,-2.139 -0.249,-0.274 -0.903,-0.412 -1.962,-0.412 v 9.697 h -7.683 v -21.506 z m 7.683,3.679 v 4.782 c 0.864,0 1.469,-0.086 1.816,-0.259 0.346,-0.173 0.52,-0.732 0.52,-1.68 v -1.182 c 0,-0.682 -0.167,-1.129 -0.502,-1.342 -0.335,-0.213 -0.946,-0.319 -1.834,-0.319 z"
   inkscape:connector-curvature="0" />
					</defs>
					<clipPath
   id="SVGID_53_">
						<use
   xlink:href="#SVGID_52_"
   style="overflow:visible"
   id="use369"
   x="0"
   y="0"
   width="100%"
   height="100%" />
					</clipPath>
					<radialGradient
   id="SVGID_54_"
   cx="146.8452"
   cy="161.741"
   r="28.302299"
   gradientUnits="userSpaceOnUse">
						<stop
   offset="0"
   style="stop-color:#7B7E84"
   id="stop372" />
						<stop
   offset="0.2363"
   style="stop-color:#757C88"
   id="stop374" />
						<stop
   offset="0.6204"
   style="stop-color:#637792"
   id="stop376" />
						<stop
   offset="1"
   style="stop-color:#48709E"
   id="stop378" />
					</radialGradient>
					<rect
   x="108.42"
   y="150.537"
   style="fill:url(#SVGID_54_)"
   width="76.850998"
   height="22.409"
   clip-path="url(#SVGID_53_)"
   id="rect381" />
				</g>
				<g
   id="g402">
					<defs
   id="defs386">
						<path
   id="SVGID_55_"
   d="m 167.702,158.905 h -7.684 v -1.953 c 0,-1.23 -0.073,-2.001 -0.219,-2.311 -0.146,-0.31 -0.493,-0.465 -1.04,-0.465 -0.474,0 -0.797,0.133 -0.967,0.398 -0.171,0.266 -0.256,0.948 -0.256,2.045 v 10.321 c 0,0.965 0.085,1.601 0.256,1.906 0.17,0.306 0.511,0.458 1.022,0.458 0.559,0 0.94,-0.173 1.141,-0.518 0.201,-0.345 0.301,-1.018 0.301,-2.019 v -2.55 h -1.552 v -3.268 h 8.998 v 11.543 h -4.829 l -0.711,-1.541 c -0.524,0.665 -1.185,1.163 -1.982,1.495 -0.798,0.332 -1.738,0.498 -2.822,0.498 -1.291,0 -2.5,-0.228 -3.626,-0.684 -1.126,-0.456 -1.982,-1.021 -2.566,-1.694 -0.584,-0.673 -0.95,-1.379 -1.096,-2.119 -0.146,-0.739 -0.219,-1.848 -0.219,-3.327 v -6.389 c 0,-2.055 0.152,-3.547 0.456,-4.477 0.304,-0.93 1.177,-1.782 2.619,-2.557 1.442,-0.775 3.306,-1.162 5.594,-1.162 2.251,0 4.118,0.336 5.603,1.009 1.484,0.673 2.451,1.473 2.902,2.397 0.45,0.926 0.676,2.27 0.676,4.032 v 0.932 z"
   inkscape:connector-curvature="0" />
					</defs>
					<clipPath
   id="SVGID_56_">
						<use
   xlink:href="#SVGID_55_"
   style="overflow:visible"
   id="use388"
   x="0"
   y="0"
   width="100%"
   height="100%" />
					</clipPath>
					<radialGradient
   id="SVGID_57_"
   cx="146.8452"
   cy="161.741"
   r="28.302299"
   gradientUnits="userSpaceOnUse">
						<stop
   offset="0"
   style="stop-color:#7B7E84"
   id="stop391" />
						<stop
   offset="0.2363"
   style="stop-color:#757C88"
   id="stop393" />
						<stop
   offset="0.6204"
   style="stop-color:#637792"
   id="stop395" />
						<stop
   offset="1"
   style="stop-color:#48709E"
   id="stop397" />
					</radialGradient>
					<rect
   x="108.42"
   y="150.537"
   style="fill:url(#SVGID_57_)"
   width="76.850998"
   height="22.409"
   clip-path="url(#SVGID_56_)"
   id="rect400" />
				</g>
				<g
   id="g421">
					<defs
   id="defs405">
						<path
   id="SVGID_58_"
   d="m 171.948,150.988 h 12.812 v 4.304 h -5.128 v 4.078 h 4.8 v 4.091 h -4.8 v 4.729 h 5.64 v 4.304 h -13.323 v -21.506 z"
   inkscape:connector-curvature="0" />
					</defs>
					<clipPath
   id="SVGID_59_">
						<use
   xlink:href="#SVGID_58_"
   style="overflow:visible"
   id="use407"
   x="0"
   y="0"
   width="100%"
   height="100%" />
					</clipPath>
					<radialGradient
   id="SVGID_60_"
   cx="146.8452"
   cy="161.741"
   r="28.302299"
   gradientUnits="userSpaceOnUse">
						<stop
   offset="0"
   style="stop-color:#7B7E84"
   id="stop410" />
						<stop
   offset="0.2363"
   style="stop-color:#757C88"
   id="stop412" />
						<stop
   offset="0.6204"
   style="stop-color:#637792"
   id="stop414" />
						<stop
   offset="1"
   style="stop-color:#48709E"
   id="stop416" />
					</radialGradient>
					<rect
   x="108.42"
   y="150.537"
   style="fill:url(#SVGID_60_)"
   width="76.850998"
   height="22.409"
   clip-path="url(#SVGID_59_)"
   id="rect419" />
				</g>
			</g>
		</g>
	</g>
	<g
   id="g492">
		<linearGradient
   id="SVGID_61_"
   gradientUnits="userSpaceOnUse"
   x1="430.5723"
   y1="61.092701"
   x2="447.9021"
   y2="71.098099">
			<stop
   offset="0"
   style="stop-color:#535758"
   id="stop429" />
			<stop
   offset="0.1878"
   style="stop-color:#515455"
   id="stop431" />
			<stop
   offset="0.3874"
   style="stop-color:#4B4D4D"
   id="stop433" />
			<stop
   offset="0.5924"
   style="stop-color:#424241"
   id="stop435" />
			<stop
   offset="0.7997"
   style="stop-color:#353433"
   id="stop437" />
			<stop
   offset="1"
   style="stop-color:#222222"
   id="stop439" />
		</linearGradient>
		<path
   style="fill:url(#SVGID_61_)"
   d="m 431.655,81.01 c -0.557,0 -2.034,0 -2.404,-1.033 -0.31,-0.863 0.431,-1.601 0.786,-1.956 0.867,-0.881 1.117,-2.192 1.617,-4.803 0.108,-0.57 0.334,-1.757 -0.076,-9.231 l -0.022,-0.393 c -0.169,-3.047 -0.263,-4.726 1.063,-5.511 0.248,-0.146 0.51,-0.208 0.878,-0.208 0.492,0 1.226,0.115 2.307,0.36 1.063,0.241 1.768,0.453 2.334,0.624 0.783,0.236 1.177,0.354 1.854,0.355 0.442,0 1.312,-0.057 2.238,-0.437 0.805,-0.329 1.158,-0.695 1.861,-1.424 0.381,-0.394 0.854,-0.884 1.516,-1.482 1.851,-1.67 3.188,-2.877 4.759,-2.877 0.174,0 0.348,0.015 0.522,0.046 1.137,0.202 1.82,0.962 2.544,1.766 0.26,0.29 2.486,2.846 1.36,4.334 -0.417,0.551 -1.073,0.618 -1.319,0.643 -1.521,0.16 -2.962,1.231 -4.786,2.587 -1.292,0.96 -2.402,1.787 -2.966,3.25 -0.285,0.739 -0.29,1.273 -0.297,1.949 -0.003,0.256 -0.006,0.519 -0.023,0.798 -0.225,3.644 -2.621,6.36 -3.773,7.666 -3.43,3.889 -7.785,4.958 -9.817,4.976 z"
   id="path442"
   inkscape:connector-curvature="0" />
		<path
   style="fill:#38669e"
   d="m 442.552,59.565 c -1.152,0.472 -2.199,0.501 -2.563,0.5 -1.349,-0.002 -1.824,-0.421 -4.375,-1 -2.105,-0.478 -2.415,-0.337 -2.563,-0.25 -0.922,0.546 -0.787,2.174 -0.625,5.125 0.407,7.407 0.194,8.751 0.063,9.438 -0.532,2.784 -0.798,4.176 -1.797,5.19 -0.222,0.226 -0.778,0.739 -0.64,1.122 0.173,0.483 1.342,0.472 1.75,0.469 1.823,-0.017 5.914,-0.977 9.188,-4.688 1.14,-1.292 3.355,-3.804 3.563,-7.156 0.064,-1.029 -0.082,-1.813 0.375,-3 0.652,-1.694 1.929,-2.643 3.25,-3.625 1.921,-1.428 3.454,-2.568 5.188,-2.75 0.183,-0.019 0.549,-0.047 0.75,-0.313 0.509,-0.674 -0.471,-2.315 -1.313,-3.25 -0.661,-0.735 -1.213,-1.349 -2.063,-1.5 -1.355,-0.241 -2.596,0.85 -4.563,2.625 -1.873,1.691 -2.151,2.459 -3.625,3.063 z"
   id="path444"
   inkscape:connector-curvature="0" />
		<linearGradient
   id="SVGID_62_"
   gradientUnits="userSpaceOnUse"
   x1="308.7287"
   y1="102.0831"
   x2="409.01981"
   y2="159.98621">
			<stop
   offset="0"
   style="stop-color:#898C90"
   id="stop446" />
			<stop
   offset="0.1514"
   style="stop-color:#87898D"
   id="stop448" />
			<stop
   offset="0.3122"
   style="stop-color:#7C7E82"
   id="stop450" />
			<stop
   offset="0.4775"
   style="stop-color:#6C6E71"
   id="stop452" />
			<stop
   offset="0.6458"
   style="stop-color:#57585A"
   id="stop454" />
			<stop
   offset="0.8164"
   style="stop-color:#40403F"
   id="stop456" />
			<stop
   offset="0.9868"
   style="stop-color:#252424"
   id="stop458" />
			<stop
   offset="1"
   style="stop-color:#222222"
   id="stop460" />
		</linearGradient>
		<path
   style="fill:url(#SVGID_62_)"
   d="m 282.552,239.459 c -0.382,0 -0.729,-0.181 -0.952,-0.498 -2.857,-4.042 -12.465,-17.678 -16.14,-23.439 -0.392,-0.615 -1.215,-1.649 -2.085,-2.745 -2.982,-3.751 -4.923,-6.326 -4.729,-7.88 0.048,-0.383 0.367,-0.795 0.954,-0.795 0.481,0 1.308,0.292 3.221,1.01 0.696,0.261 1.648,0.618 2.251,0.808 1.019,-3.081 3.053,-4.906 3.854,-5.625 9.655,-8.664 22.685,-29.162 21.994,-33.167 -0.583,-3.375 -0.029,-5.176 0.67,-7.456 0.15,-0.488 0.461,-1.503 1.14,-2.419 -1.48,-2.037 -0.813,-5.134 -0.219,-7.898 0.485,-2.255 0.891,-4.257 1.248,-6.022 1.66,-8.195 2.346,-11.587 5.386,-11.587 h 0.503 l 0.242,0.441 c 0.194,0.353 1.5,2.738 2.363,4.522 5.614,-9.048 14.334,-17.925 16.799,-19.999 -0.005,-0.024 -0.01,-0.05 -0.017,-0.077 -0.587,-2.608 0.254,-7.172 2.771,-19.987 2.527,-12.861 5.139,-26.16 12.765,-39.324 4.521,-7.803 10.279,-13.517 21.752,-24.898 C 356.651,32.099 394.292,0 396.029,0 h 0.317 l 0.262,0.214 c 1.643,1.423 -1.359,5.292 -14.915,21.223 -7.445,8.75 -15.885,18.669 -20.307,25.407 -4.674,7.123 -7.828,13.672 -10.545,21.898 -3.289,9.954 -4.02,19.464 -4.177,23.717 0.492,-0.252 0.963,-0.473 1.403,-0.679 1.443,-0.674 2.391,-1.117 2.984,-2.065 0.042,-0.068 0.071,-0.11 0.09,-0.147 -0.001,-0.007 0.005,-0.055 0.018,-0.127 0.117,-0.659 0.293,-1.652 1.208,-3.306 0.772,-1.393 2.565,-4.068 5.897,-6.342 1.924,-1.313 3.204,-1.676 4.233,-1.967 0.769,-0.218 1.376,-0.39 2.637,-1.158 0.851,-0.518 1.614,-1.079 2.288,-1.574 1.522,-1.117 2.837,-2.081 4.585,-2.081 0.857,0 1.683,0.25 2.387,0.721 0.508,0.342 0.885,0.74 1.167,1.157 -0.004,-0.02 -0.008,-0.041 -0.011,-0.061 -0.394,-2.159 0.131,-3.915 0.594,-5.463 0.541,-1.807 1.28,-4.28 3.728,-5.923 0.442,-0.296 1.787,-1.199 3.718,-1.289 l 0.266,-0.006 c 1.601,0 2.704,0.582 3.362,0.93 0.22,0.116 0.39,0.21 0.584,0.277 0.223,0.078 0.477,0.117 0.755,0.117 0.381,0 0.684,-0.072 0.797,-0.104 0.647,-0.18 1.292,-0.693 1.5,-1.193 0.005,-0.028 0.006,-0.119 0.012,-0.296 0.013,-0.361 0.029,-0.771 0.086,-1.292 0.103,-0.94 0.811,-5.795 4.654,-8.932 1.68,-1.373 4.071,-2.098 6.913,-2.098 0.062,0 6.175,0.081 7.099,1.866 0.46,0.889 -0.306,1.599 -0.981,2.225 -0.609,0.564 -1.367,1.267 -1.611,2.144 -0.115,0.412 -0.931,4.965 -1.045,6.166 -0.024,0.251 -0.053,0.597 -0.085,0.998 -0.117,1.428 -0.277,3.383 -0.511,4.556 -0.623,3.125 -1.904,9.561 -7.151,11.604 1.269,0.408 2.476,0.613 3.607,0.613 0.222,0 0.446,-0.009 0.669,-0.026 0.82,-0.065 1.532,-0.224 2.066,-0.396 -0.65,-2.856 -0.125,-5.674 0.476,-8.895 0.807,-4.323 2.522,-7.739 3.82,-9.845 2.755,-4.47 10.475,-9.761 14.241,-9.761 2.138,0 5.819,0.177 6.462,1.361 0.199,0.368 0.177,0.806 -0.062,1.172 -0.566,0.872 -1.837,1.363 -3.066,1.838 -0.635,0.246 -1.697,0.656 -1.866,0.914 -0.188,0.356 -0.258,1.104 -0.183,1.995 0.07,0.821 0.416,1.467 0.816,2.216 0.126,0.236 0.255,0.477 0.38,0.729 0.072,0.146 0.162,0.309 0.255,0.476 0.149,0.271 0.304,0.553 0.415,0.804 2.041,4.592 2.024,8.92 1.832,11.092 -0.499,5.632 -2.693,10.445 -6.189,13.593 0.292,-0.003 0.611,-0.005 0.961,-0.005 0.619,0 1.456,0.097 2.426,0.209 1.102,0.127 2.35,0.271 3.435,0.285 0.495,-0.121 1.903,-1.911 2.504,-2.675 0.997,-1.268 1.333,-1.695 1.918,-1.695 h 0.539 l 0.283,0.523 c 1.276,2.699 -0.631,10.58 -1.495,11.943 l -0.514,0.821 c -1.823,2.932 -4.092,6.58 -8.281,7.769 -1.086,0.308 -1.972,0.384 -2.619,0.44 -0.744,0.065 -0.922,0.08 -1.363,0.334 -0.5,0.288 -0.85,0.637 -1.221,1.072 -2.711,3.178 -4.161,6.989 -4.167,8.045 0.033,0.006 0.069,0.01 0.108,0.01 0.164,-0.05 0.643,-0.396 1.842,-2.104 0.826,-1.182 1.953,-2.794 4.122,-2.794 h 0.764 l 0.771,0.32 c 1.19,0.561 2.526,1.776 2.349,4.474 l -0.009,0.134 c -0.076,1.338 0.665,2.868 2.29,6.218 0.483,0.999 0.775,1.488 0.969,1.813 0.363,0.609 0.912,1.529 0.838,2.993 -0.204,3.986 -3.717,6.203 -10.128,8.897 -6.083,2.557 -11.995,4.309 -13.938,4.884 l -1.908,0.561 c -2.569,0.751 -5.765,1.685 -5.993,2.2 -0.062,0.148 -0.074,0.385 -0.086,0.888 -0.025,1.034 -0.066,2.766 -1.232,4.677 -2.022,3.314 -5.514,4.307 -7.005,4.73 -5.304,1.512 -10.415,4.142 -15.357,6.685 -2.791,1.436 -5.659,2.911 -8.597,4.219 -1.766,0.787 -3.767,1.678 -4.248,3.049 -0.079,0.224 -0.105,0.299 0.2,1.993 0.079,0.435 0.167,0.928 0.26,1.493 0.475,2.885 0.56,4.543 0.659,6.463 0.105,2.027 0.223,4.313 0.901,8.91 0.439,2.977 0.618,3.389 0.792,3.594 0.608,0.719 4.001,2.198 5.216,2.518 4.922,1.294 5.994,1.919 6.281,2.628 l 0.143,0.354 -0.18,0.438 c -0.703,1.42 -9.069,3.908 -9.152,3.931 -1.334,0.366 -4.17,1.419 -5.981,2.173 -1.959,0.817 -3.105,1.726 -4.319,2.688 -0.403,0.319 -0.81,0.642 -1.25,0.966 l -0.645,0.472 c -2.057,1.498 -4.837,3.379 -7.78,5.37 -6.032,4.08 -22.02,14.896 -22.662,17.971 -0.033,0.159 -0.065,0.325 -0.095,0.493 -0.189,1.055 0,2.15 0.53,3.083 0.112,0.196 0.221,0.398 0.327,0.592 0.156,0.287 0.383,0.706 0.503,0.865 0.347,0.153 1.342,0.456 2.228,0.725 4.013,1.221 5.766,1.874 6.23,2.757 0.145,0.275 0.174,0.582 0.084,0.865 -0.245,0.771 -1.097,1.005 -3.647,1.005 -1.884,0 -4.308,-0.143 -6.255,-0.258 -1.21,-0.071 -2.255,-0.133 -2.744,-0.133 -0.435,0 -0.967,-0.025 -1.604,-0.073 -5.264,-0.396 -9.067,-0.683 -10.602,-4.202 -0.231,-0.528 -0.371,-1.062 -0.425,-1.646 -0.193,0.032 -0.399,0.049 -0.626,0.049 h -1.7 l -10.176,-2.146 c -0.296,-0.063 -0.539,-0.246 -0.683,-0.492 0.934,2.324 1.299,4.499 -0.362,5.387 l -0.478,0.256 -0.434,-0.326 c -0.156,-0.117 -3.828,-2.877 -4.579,-3.516 -0.352,-0.299 -0.913,-0.787 -1.574,-1.362 -1.307,-1.137 -3.097,-2.694 -4.338,-3.716 0.237,3.253 1.118,9.1 1.775,11.929 0.082,0.354 0.001,0.716 -0.221,0.995 -0.226,0.282 -0.572,0.449 -0.93,0.449 z m 46.284,-57.441 c -1.357,2.293 -3.227,4.21 -5.275,5.375 -0.5,0.285 -0.812,0.405 -1.168,0.532 -0.215,0.077 -0.577,0.207 -1.528,0.631 -1.903,0.848 -3.314,1.605 -3.845,1.891 -11.472,6.159 -22.058,13.694 -26.968,19.196 -0.496,0.555 -0.89,1.076 -1.206,1.818 -0.846,1.99 -0.347,4.114 0.231,6.574 0.535,2.279 1.319,4.289 1.838,5.619 0.15,0.384 0.494,1.042 0.892,1.804 0.59,1.129 1.254,2.399 1.772,3.64 -0.023,-0.091 -0.034,-0.187 -0.032,-0.285 0.014,-0.498 0.382,-0.915 0.875,-0.99 7.407,-1.138 11.205,-1.848 11.684,-2.046 1.095,-0.632 1.338,-1.497 1.533,-2.191 0.021,-0.074 0.041,-0.146 0.062,-0.216 -0.264,-0.224 -0.549,-0.442 -0.828,-0.656 -1.183,-0.904 -2.654,-2.029 -1.828,-3.63 0.593,-1.15 2.823,-1.279 5.908,-1.334 0.576,-0.01 1.171,-0.021 1.369,-0.053 0.544,-0.088 1.676,-0.362 1.894,-0.459 0.173,-0.107 0.673,-0.703 0.837,-0.898 l 0.142,-0.168 c 2.125,-2.463 5,-5.083 8.043,-7.856 3.754,-3.42 10.016,-9.127 10.436,-11.462 0.454,-2.61 1.625,-4.362 3.479,-5.204 0.167,-0.075 0.335,-0.141 0.505,-0.197 -1.507,-1.443 -2.859,-2.977 -4.176,-4.472 -1.259,-1.429 -2.561,-2.906 -3.9,-4.171 -0.177,-0.172 -0.452,-0.433 -0.746,-0.792 z m -26.833,-24.366 c 0.389,0.218 0.777,0.51 1.142,0.903 1.528,1.644 1.255,3.492 1.091,4.596 -0.02,0.133 -0.041,0.275 -0.062,0.43 0.921,-1.027 2.147,-2.357 3.795,-4.141 1.849,-2.002 2.862,-2.938 3.467,-3.497 0.199,-0.184 0.292,-0.263 0.347,-0.331 0.349,-0.699 0.357,-0.883 0.389,-1.656 0.04,-0.987 0.101,-2.476 0.953,-4.625 0.204,-0.513 0.492,-1.239 0.908,-2.071 -1.528,1.389 -2.653,2.572 -3.81,4.138 -0.583,0.79 -1,1.437 -1.337,1.958 -0.919,1.425 -1.783,2.763 -3.883,3.634 -1.106,0.46 -2.136,0.605 -3,0.662 z m 74.369,-80.463 c 0.028,0.216 0.045,0.411 0.059,0.574 0.137,1.594 -0.211,3.284 -0.979,4.762 -0.484,0.934 -0.962,2.626 -1.309,4.309 0.397,-0.434 0.811,-0.93 1.208,-1.481 2.024,-2.818 2.799,-5.351 2.379,-6.171 -0.057,-0.111 -0.189,-0.283 -0.357,-0.5 -0.279,-0.361 -0.653,-0.846 -1.001,-1.493 z"
   id="path463"
   inkscape:connector-curvature="0" />
		<path
   style="fill:#3b5e88"
   d="m 319.506,237.025 c -0.418,0 -0.929,-0.025 -1.542,-0.07 -5.153,-0.388 -8.556,-0.645 -9.886,-3.693 -0.363,-0.831 -0.426,-1.632 -0.354,-2.496 -0.533,0.265 -0.917,0.388 -1.477,0.388 h -1.611 l -10.089,-2.128 c -0.201,-0.042 -0.199,-0.331 0.005,-0.363 2.925,-0.45 11.296,-1.76 11.937,-2.129 2.025,-1.164 1.838,-2.966 2.237,-3.38 -1.375,-1.377 -3.631,-2.313 -2.925,-3.682 0.553,-1.073 5.688,-0.781 6.656,-0.938 0.545,-0.088 1.821,-0.384 2.125,-0.531 0.363,-0.176 1.002,-0.982 1.257,-1.279 2.094,-2.427 4.955,-5.033 7.983,-7.793 4.313,-3.93 10.217,-9.311 10.688,-11.929 0.149,-0.858 0.609,-3.498 2.994,-4.58 0.535,-0.243 1.1,-0.365 1.678,-0.365 0.146,0 0.29,0.008 0.436,0.022 -2.051,-1.752 -3.799,-3.735 -5.498,-5.663 -1.271,-1.443 -2.586,-2.935 -3.954,-4.227 -0.329,-0.312 -0.956,-0.904 -1.396,-1.854 -1.244,2.607 -3.285,4.985 -5.63,6.319 -0.443,0.252 -0.708,0.354 -1.034,0.47 -0.224,0.08 -0.6,0.214 -1.589,0.655 -1.932,0.861 -3.363,1.629 -3.902,1.919 -11.555,6.203 -22.229,13.809 -27.199,19.379 -0.478,0.535 -0.972,1.153 -1.354,2.051 -0.954,2.246 -0.4,4.604 0.186,7.101 0.55,2.342 1.349,4.387 1.877,5.74 0.74,1.895 5.198,8.751 2.801,10.033 0,0 -3.799,-2.855 -4.539,-3.484 -1.345,-1.144 -5.784,-5.079 -7.091,-6.005 -0.117,-0.083 -0.281,0.002 -0.282,0.144 -0.015,2.725 1.09,10.246 1.857,13.552 0.08,0.346 -0.372,0.552 -0.577,0.262 -3.047,-4.311 -12.471,-17.689 -16.117,-23.406 -1.363,-2.137 -6.923,-8.168 -6.688,-10.063 0.056,-0.446 6.079,2.289 6.194,1.848 0.853,-3.271 3.003,-5.198 3.812,-5.923 9.33,-8.372 23.063,-29.309 22.263,-33.942 -0.548,-3.176 -0.047,-4.807 0.646,-7.063 0.167,-0.544 0.55,-1.795 1.456,-2.675 -1.82,-1.656 -1.132,-4.854 -0.518,-7.712 2.603,-12.102 2.92,-16.938 5.803,-16.938 0,0 2.544,4.628 2.989,5.959 5.625,-9.669 15.831,-20.021 17.798,-21.46 0.011,-0.096 0.014,-0.301 -0.069,-0.655 -0.554,-2.462 0.392,-7.488 2.777,-19.63 2.513,-12.793 5.112,-26.021 12.667,-39.062 4.463,-7.705 10.195,-13.392 21.616,-24.721 0.246,-0.244 38.511,-32.705 39.128,-32.17 2.188,1.896 -25.78,30.9 -35.375,45.521 -4.893,7.457 -7.974,14.021 -10.642,22.098 -3.204,9.698 -4.184,19.726 -4.258,25.455 0.939,-0.579 1.85,-1.004 2.661,-1.384 1.516,-0.708 2.609,-1.219 3.335,-2.381 0.17,-0.271 0.171,-0.277 0.224,-0.579 0.114,-0.64 0.269,-1.512 1.115,-3.041 0.736,-1.327 2.445,-3.876 5.633,-6.051 1.81,-1.235 2.966,-1.563 3.985,-1.852 0.799,-0.227 1.488,-0.422 2.847,-1.249 0.879,-0.536 1.661,-1.109 2.35,-1.615 1.462,-1.072 2.613,-1.916 4.082,-1.916 0.688,0 1.35,0.2 1.913,0.577 1.452,0.977 1.588,2.552 1.661,3.398 0.123,1.434 -0.192,2.958 -0.887,4.294 -0.812,1.565 -1.537,4.833 -1.808,7.058 0.959,-0.782 2.138,-1.931 3.152,-3.342 1.76,-2.451 3.199,-5.582 2.446,-7.055 -0.093,-0.182 -0.239,-0.371 -0.441,-0.632 -0.535,-0.691 -1.338,-1.731 -1.658,-3.485 -0.357,-1.959 0.115,-3.54 0.572,-5.068 0.532,-1.777 1.193,-3.987 3.387,-5.459 0.394,-0.264 1.59,-1.067 3.283,-1.145 0,0 0.227,-0.005 0.227,-0.005 1.391,0 2.339,0.5 2.966,0.832 0.263,0.139 0.468,0.247 0.701,0.328 0.313,0.109 0.661,0.164 1.035,0.164 0.488,0 0.878,-0.094 1.023,-0.134 0.905,-0.252 1.751,-0.946 2.059,-1.688 0.06,-0.145 0.061,-0.147 0.076,-0.593 0.012,-0.343 0.027,-0.732 0.082,-1.227 0.145,-1.328 0.976,-5.616 4.346,-8.366 1.784,-1.457 4.193,-1.906 6.375,-1.906 2.16,0 5.894,0.537 6.344,1.406 0.359,0.694 -2.093,1.725 -2.656,3.75 -0.146,0.526 -0.958,5.115 -1.073,6.313 -0.105,1.099 -0.292,4.006 -0.583,5.469 -0.659,3.308 -1.96,9.381 -6.922,11.087 -0.737,0.253 -1.469,0.387 -2.281,0.415 1.827,0.905 4.14,1.732 6.494,1.732 0.244,0 0.49,-0.01 0.735,-0.029 1.373,-0.109 2.451,-0.456 3.015,-0.731 -0.884,-2.923 -0.359,-5.738 0.297,-9.254 0.782,-4.192 2.448,-7.508 3.708,-9.552 2.549,-4.136 10.003,-9.356 13.517,-9.356 0.755,0 6.386,0.144 5.688,1.219 -0.813,1.25 -4.406,1.75 -4.969,2.813 -0.299,0.565 -0.364,1.484 -0.281,2.469 0.109,1.279 0.735,2.144 1.281,3.25 0.187,0.377 0.479,0.854 0.656,1.25 2.104,4.733 1.895,9.167 1.762,10.671 -0.491,5.541 -2.672,10.239 -6.138,13.234 -0.756,0.653 -1.481,1.146 -2.148,1.548 0.686,-0.214 1.643,-0.269 3.904,-0.269 1.26,0 3.789,0.468 5.849,0.493 1.368,0.017 4.25,-4.833 4.486,-4.333 1.121,2.37 -0.702,9.953 -1.445,11.125 -1.884,2.974 -4.052,7.019 -8.309,8.227 -1.005,0.285 -1.812,0.355 -2.46,0.411 -0.785,0.068 -1.109,0.097 -1.714,0.444 -0.642,0.369 -1.073,0.822 -1.444,1.258 -3.041,3.565 -4.885,8.394 -4.232,9.175 0.083,0.099 0.408,0.283 0.82,0.283 0.042,0 0.084,-0.002 0.125,-0.009 0.771,-0.113 1.883,-1.701 2.418,-2.464 0.796,-1.139 1.696,-2.426 3.422,-2.426 h 0.595 l 0.615,0.255 c 1.354,0.64 1.942,1.851 1.825,3.632 l -0.009,0.135 c -0.089,1.565 0.683,3.157 2.373,6.644 0.495,1.021 0.801,1.536 1.004,1.877 0.35,0.586 0.78,1.309 0.719,2.514 -0.181,3.538 -3.516,5.596 -9.607,8.157 -6.046,2.542 -11.924,4.282 -13.856,4.854 l -1.901,0.559 c -4.478,1.309 -6.2,1.879 -6.538,2.688 -0.124,0.298 -0.137,0.615 -0.151,1.195 -0.024,1.013 -0.062,2.539 -1.108,4.254 -1.849,3.03 -5.116,3.958 -6.512,4.355 -5.385,1.535 -10.534,4.184 -15.514,6.747 -2.771,1.426 -5.631,2.898 -8.553,4.199 -1.923,0.856 -4.103,1.827 -4.705,3.545 -0.154,0.439 -0.155,0.64 0.166,2.424 0.079,0.433 0.166,0.921 0.258,1.48 0.467,2.837 0.551,4.474 0.649,6.37 0.105,2.04 0.224,4.347 0.909,8.99 0.486,3.298 0.681,3.662 0.984,4.02 0.826,0.976 4.529,2.495 5.649,2.79 1.259,0.332 5.42,1.412 5.708,2.125 0.239,0.591 -6.188,2.916 -8.625,3.583 -1.396,0.383 -4.259,1.449 -6.083,2.208 -2.725,1.136 -3.954,2.436 -5.747,3.755 l -0.644,0.471 c -2.046,1.49 -4.825,3.37 -7.767,5.36 -7.236,4.895 -22.293,15.081 -23.005,18.493 -0.035,0.166 -0.068,0.341 -0.099,0.516 -0.224,1.253 -0.002,2.548 0.628,3.655 0.435,0.763 0.833,1.61 1.092,1.75 1.042,0.563 8.547,2.31 8.208,3.375 -0.29,0.915 -9.864,0.021 -11.836,0.021 z m -20.512,-79.209 c 0.087,0.009 0.184,0.01 0.296,0.016 0.743,0.038 2.122,0.108 3.233,1.302 1.25,1.344 1.032,2.817 0.873,3.893 -0.061,0.412 -0.137,0.923 -0.182,1.6 -0.028,0.417 -0.064,0.972 -0.077,1.467 0.894,-1.128 2.474,-2.847 5.457,-6.077 1.824,-1.975 2.823,-2.898 3.42,-3.449 0.45,-0.416 0.45,-0.416 0.566,-0.647 0.396,-0.789 0.409,-1.123 0.442,-1.93 0.04,-0.983 0.095,-2.331 0.894,-4.345 0.627,-1.58 2.094,-5.276 5.738,-7.596 0.607,-0.387 1.149,-0.655 1.585,-0.87 0.243,-0.12 0.638,-0.315 0.726,-0.394 0.032,-0.066 0.056,-0.136 0.074,-0.204 l -0.138,-0.004 c -1.01,0 -2.404,0.853 -4.97,3.041 -3.63,3.096 -5.453,4.649 -7.392,7.276 -0.601,0.814 -1.028,1.477 -1.372,2.009 -0.879,1.363 -1.634,2.532 -3.489,3.302 -1.366,0.566 -2.59,0.604 -3.573,0.636 -0.941,0.029 -1.629,0.051 -2.521,0.5 0.153,0.156 0.268,0.298 0.348,0.398 0.026,0.03 0.045,0.054 0.062,0.076 z"
   id="path465"
   inkscape:connector-curvature="0" />
		<path
   style="fill:#465d76"
   d="m 319.506,235.324 c -0.384,0 -0.853,-0.024 -1.415,-0.066 -4.857,-0.366 -7.533,-0.567 -8.454,-2.677 -0.405,-0.926 -0.234,-1.86 0.048,-3.407 0.108,-0.591 0.24,-1.082 0.364,-1.483 -0.873,0.37 -1.977,0.964 -2.445,1.216 -0.838,0.451 -1.013,0.545 -1.357,0.545 H 305.6 l -0.579,-0.968 0.121,-0.463 c 0.129,-0.491 0.412,-0.654 1.096,-1.046 3.979,-2.288 4.487,-3.477 4.436,-3.982 -0.034,-0.334 -0.405,-0.704 -0.733,-1.03 -0.422,-0.42 -1.207,-1.202 -0.709,-2.167 0.152,-0.295 0.545,-0.792 1.461,-0.792 0.359,0 0.761,0.07 1.226,0.151 0.586,0.102 1.25,0.218 1.945,0.218 0.724,0 1.339,-0.127 1.88,-0.39 0.679,-0.329 1.071,-0.784 1.385,-1.149 2.026,-2.349 4.851,-4.922 7.842,-7.647 4.988,-4.545 10.642,-9.697 11.214,-12.884 0.121,-0.693 0.456,-2.621 2.023,-3.332 0.317,-0.144 0.636,-0.213 0.975,-0.213 0.189,0 0.375,0.023 0.573,0.053 0.11,0.017 0.228,0.038 0.368,0.038 0.075,0 0.158,-0.007 0.252,-0.024 1.05,-0.197 1.851,-1.253 1.799,-1.688 -0.024,-0.207 -0.354,-0.462 -0.479,-0.559 -2.384,-1.843 -4.375,-4.102 -6.3,-6.287 -1.297,-1.472 -2.638,-2.993 -4.062,-4.339 -0.333,-0.315 -0.89,-0.842 -1.175,-1.726 -0.391,-1.211 0.006,-2.16 0.296,-2.853 0.127,-0.304 0.259,-0.618 0.217,-0.735 -0.118,-0.326 -1.012,-0.826 -1.891,-0.826 -0.277,0 -0.42,0.054 -0.451,0.075 0.019,0.01 0.02,0.213 0.02,0.323 -0.012,3.632 -2.726,8.074 -6.051,9.965 -0.331,0.188 -0.497,0.251 -0.763,0.346 -0.247,0.088 -0.661,0.236 -1.711,0.704 -1.995,0.889 -3.465,1.679 -4.019,1.977 -11.711,6.287 -22.567,14.036 -27.659,19.743 -0.547,0.613 -1.171,1.392 -1.65,2.518 -1.172,2.758 -0.528,5.502 0.095,8.155 0.576,2.455 1.402,4.57 1.949,5.97 0.716,1.834 1.11,2.844 0.044,3.414 l -0.25,0.134 -0.326,0.01 c -0.653,0 -1.087,-0.478 -1.47,-0.899 -2.1,-2.313 -4.46,-4.915 -6.611,-5.134 -0.057,-0.005 -0.192,-0.02 -0.364,-0.02 -0.468,0 -0.682,0.101 -0.72,0.136 0.017,0.017 0.03,0.288 0.19,1.079 0.247,1.211 0.479,1.94 0.618,2.376 0.165,0.517 0.413,1.298 -0.28,1.838 l -0.308,0.239 -0.459,0.02 c -1.675,0 -7.874,-5.963 -10.624,-13.777 -0.969,-2.752 -1.164,-4.763 -0.653,-6.725 0.723,-2.775 2.596,-4.454 3.301,-5.085 8.519,-7.645 23.837,-29.507 22.804,-35.498 -0.479,-2.775 -0.075,-4.092 0.596,-6.275 0.215,-0.703 0.72,-2.346 2.081,-2.425 0.002,0 0.004,0 0.006,0 0.837,0 1.249,0.509 1.495,0.813 0.089,0.11 0.191,0.243 0.341,0.371 0.342,0.291 0.682,0.322 1.251,0.351 0.604,0.031 1.432,0.072 2.074,0.762 0.692,0.745 0.573,1.551 0.435,2.485 -0.066,0.444 -0.147,0.996 -0.196,1.737 -0.131,1.984 -0.178,3.136 0.376,3.748 0.305,0.336 0.822,0.581 1.23,0.581 0.092,0 0.173,-0.014 0.227,-0.038 0.166,-0.076 0.288,-0.36 0.339,-0.481 0.38,-0.881 1.685,-2.314 6.155,-7.154 1.777,-1.923 2.746,-2.819 3.325,-3.354 0.6,-0.555 0.677,-0.626 0.932,-1.134 0.56,-1.116 0.585,-1.748 0.621,-2.623 0.037,-0.91 0.083,-2.042 0.776,-3.788 0.566,-1.426 1.891,-4.764 5.07,-6.789 0.532,-0.339 1.009,-0.574 1.431,-0.782 0.849,-0.419 1.205,-0.611 1.481,-1.152 0.347,-0.679 0.45,-1.684 0.021,-2.188 -0.354,-0.416 -1.054,-0.459 -1.353,-0.478 -0.083,-0.005 -0.164,-0.008 -0.246,-0.008 -1.499,0 -3.088,0.902 -6.073,3.447 -3.73,3.18 -5.601,4.775 -7.657,7.561 -0.636,0.862 -1.081,1.551 -1.439,2.105 -0.807,1.251 -1.341,2.078 -2.706,2.644 -1.079,0.447 -2.042,0.478 -2.975,0.507 -1.063,0.033 -2.066,0.065 -3.348,0.74 l -0.19,0.103 c -0.391,0.213 -0.834,0.455 -1.363,0.455 -0.261,0 -0.509,-0.059 -0.738,-0.175 -1.605,-0.813 -1.023,-3.514 -0.408,-6.375 2.341,-10.884 2.586,-12.021 4.094,-12.021 h 0.06 l 0.074,0.007 c 1.443,0.154 1.589,1.921 1.852,5.13 0.031,0.372 0.067,0.823 0.111,1.279 4.041,-10.357 17.636,-24.339 19.765,-25.834 0.078,-0.055 0.252,-0.177 0.4,-0.395 0.212,-0.314 0.411,-0.917 0.158,-2.002 -0.474,-2.105 0.572,-7.624 2.79,-18.916 2.488,-12.666 5.057,-25.742 12.469,-38.537 4.35,-7.509 10.028,-13.143 21.342,-24.366 11.143,-11.054 25.888,-23.899 28.205,-23.899 0.359,0 0.688,0.138 0.924,0.388 0.959,1.014 0.373,1.641 -3.441,5.722 -5.042,5.396 -14.428,15.439 -24.102,30.179 -4.963,7.563 -8.549,13.027 -11.288,21.317 -4.045,12.243 -4.632,25.007 -4.25,29.474 1.63,-1.758 3.4,-2.586 4.991,-3.33 1.644,-0.768 3.063,-1.432 4.055,-3.019 0.345,-0.55 0.387,-0.789 0.457,-1.185 0.098,-0.548 0.219,-1.23 0.929,-2.513 0.662,-1.194 2.205,-3.493 5.103,-5.47 1.582,-1.08 2.553,-1.354 3.492,-1.621 0.84,-0.238 1.709,-0.484 3.267,-1.433 0.94,-0.572 1.754,-1.169 2.472,-1.696 1.302,-0.955 2.162,-1.586 3.076,-1.586 0.35,0 0.684,0.1 0.966,0.289 0.774,0.521 0.852,1.415 0.914,2.132 0.096,1.117 -0.153,2.31 -0.701,3.363 -1.287,2.483 -2.633,9.407 -1.894,10.671 1.074,-0.088 4.014,-2.236 6.127,-5.179 0.972,-1.353 4.03,-5.986 2.579,-8.822 -0.165,-0.323 -0.372,-0.59 -0.611,-0.9 -0.482,-0.624 -1.083,-1.4 -1.328,-2.747 -0.284,-1.558 0.092,-2.818 0.528,-4.276 0.501,-1.674 1.018,-3.402 2.705,-4.535 0.328,-0.22 1.196,-0.802 2.414,-0.858 l 0.184,-0.004 c 0.934,0 1.573,0.337 2.137,0.635 0.299,0.158 0.582,0.307 0.937,0.431 0.493,0.171 1.029,0.258 1.593,0.258 0.671,0 1.215,-0.123 1.48,-0.197 1.418,-0.395 2.664,-1.444 3.173,-2.675 0.179,-0.433 0.187,-0.669 0.205,-1.186 0.011,-0.306 0.023,-0.655 0.072,-1.099 0.091,-0.829 0.693,-5.09 3.637,-7.493 1.472,-1.202 3.575,-1.979 5.355,-1.979 1.199,0 2.14,0.358 2.721,1.035 0.915,1.064 0.576,2.283 0.063,4.127 -0.146,0.524 -0.314,1.131 -0.488,1.84 -0.609,2.488 -0.66,3.728 -0.704,4.823 -0.043,1.053 -0.083,2.047 -0.554,3.75 -0.814,2.949 -2.329,8.439 -6.443,9.854 -0.651,0.224 -1.304,0.328 -2.054,0.328 -0.556,0 -1.099,-0.059 -1.625,-0.115 -0.537,-0.058 -1.091,-0.118 -1.676,-0.118 -0.73,0 -1.427,0.096 -2.143,0.297 0.504,0.246 0.838,0.522 0.983,0.642 0.073,0.061 5.46,4.422 11.279,4.422 0.289,0 0.579,-0.011 0.87,-0.034 2.36,-0.188 4.531,-1.055 4.74,-1.894 0.051,-0.204 -0.028,-0.425 -0.104,-0.639 -0.938,-2.657 -0.455,-5.249 0.215,-8.836 0.734,-3.935 2.299,-7.05 3.483,-8.97 2.869,-4.655 7.737,-9.057 10.017,-9.057 0.391,0 0.749,0.11 1.035,0.32 0.844,0.618 0.652,1.585 0.498,2.362 -0.13,0.659 -0.31,1.561 -0.205,2.791 0.136,1.598 0.638,2.615 1.22,3.793 0.177,0.357 0.354,0.716 0.521,1.091 1.927,4.334 1.55,8.582 1.427,9.977 -0.452,5.093 -2.425,9.387 -5.556,12.092 -1.168,1.01 -2.249,1.588 -3.202,2.098 -1.329,0.71 -2.477,1.324 -3.705,3.014 -0.526,0.724 -1.924,2.646 -1.413,3.618 0.287,0.545 1.253,1.042 2.028,1.042 0.189,0 0.291,-0.034 0.313,-0.047 0.659,-2.292 3.563,-4.392 5.234,-5.18 0.414,-0.196 1.008,-0.277 3.613,-0.277 1.255,0 2.895,0.019 4.946,0.044 1.203,0.015 2.701,0.033 3.399,1.212 0.709,1.195 -0.025,2.672 -0.924,4.091 -1.806,2.85 -3.674,5.797 -7.305,6.828 -0.847,0.24 -1.535,0.3 -2.143,0.353 -0.862,0.075 -1.484,0.129 -2.414,0.664 -0.867,0.499 -1.442,1.103 -1.891,1.628 -2.492,2.922 -6.041,9.22 -4.243,11.37 0.454,0.542 1.288,0.893 2.125,0.893 0.126,0 0.25,-0.009 0.371,-0.026 1.499,-0.221 2.743,-1.999 3.567,-3.175 0.715,-1.022 1.188,-1.697 2.026,-1.697 h 0.256 l 0.303,0.125 c 0.88,0.417 0.814,1.414 0.779,1.95 l -0.009,0.139 c -0.115,2.018 0.718,3.735 2.542,7.498 0.525,1.084 0.854,1.637 1.072,2.002 0.299,0.501 0.516,0.864 0.48,1.556 -0.12,2.348 -2.282,4.033 -8.568,6.675 -5.947,2.5 -11.767,4.225 -13.68,4.792 l -1.897,0.558 c -5.277,1.542 -6.978,2.105 -7.628,3.667 -0.253,0.606 -0.266,1.164 -0.282,1.81 -0.022,0.927 -0.05,2.08 -0.86,3.407 -1.501,2.46 -4.218,3.233 -5.524,3.604 -5.55,1.582 -10.777,4.272 -15.833,6.873 -2.748,1.414 -5.59,2.876 -8.462,4.155 -2.126,0.947 -4.773,2.125 -5.618,4.536 -0.313,0.894 -0.232,1.46 0.097,3.288 0.077,0.427 0.163,0.906 0.253,1.456 0.452,2.746 0.534,4.339 0.629,6.185 0.107,2.073 0.228,4.423 0.924,9.147 0.508,3.449 0.749,4.138 1.369,4.871 1.172,1.385 2.925,1.847 4.205,2.184 1.159,0.305 2.356,0.62 2.376,1.843 0.021,1.366 -1.366,1.747 -3.664,2.376 -1.441,0.395 -3.233,0.886 -5.159,1.688 -2.911,1.214 -4.769,2.58 -6.565,3.901 l -0.641,0.469 c -2.018,1.469 -4.785,3.341 -7.715,5.324 -9.104,6.159 -22.864,15.467 -23.717,19.554 -0.316,1.515 -0.026,2.56 -0.023,2.571 0.261,0.853 0.783,1.459 1.244,1.995 0.533,0.619 1.195,1.389 0.768,2.351 -0.463,1.051 -1.771,1.051 -2.329,1.051 z"
   id="path467"
   inkscape:connector-curvature="0" />
		<path
   style="fill:#3e72b2"
   d="m 278.677,226.627 c 0.153,-0.119 -0.277,-0.754 -0.753,-3.094 -0.232,-1.141 -0.255,-1.604 0.003,-1.969 0.525,-0.742 1.882,-0.604 2.117,-0.58 2.583,0.263 5.05,2.98 7.319,5.481 0.225,0.248 0.549,0.611 0.689,0.537 0.397,-0.212 -1.482,-3.521 -2.563,-8.125 -0.676,-2.879 -1.325,-5.821 -0.035,-8.858 0.575,-1.354 1.332,-2.253 1.847,-2.83 4.996,-5.599 15.668,-13.383 27.969,-19.986 0.73,-0.392 2.152,-1.148 4.094,-2.014 1.994,-0.888 1.8,-0.673 2.375,-1 2.795,-1.59 5.467,-5.6 5.478,-8.922 0.001,-0.319 -0.022,-0.853 0.335,-1.203 0.887,-0.871 3.692,-0.184 4.188,1.188 0.41,1.135 -0.994,2.095 -0.5,3.625 0.193,0.597 0.571,0.963 0.875,1.25 3.566,3.37 6.387,7.545 10.269,10.547 0.249,0.192 0.837,0.642 0.918,1.328 0.138,1.169 -1.237,2.658 -2.717,2.935 -0.911,0.171 -1.256,-0.231 -1.908,0.065 -1.072,0.486 -1.303,2.099 -1.375,2.5 -0.989,5.507 -13.758,14.632 -19.279,21.031 -0.341,0.395 -0.864,1.023 -1.783,1.469 -2.656,1.288 -5.641,-0.385 -6,0.313 -0.263,0.51 1.427,1.233 1.563,2.563 0.264,2.598 -5.636,5.313 -5.563,5.438 0.067,0.113 4.553,-2.715 5.25,-1.938 0.297,0.331 -0.331,1.049 -0.688,3 -0.261,1.427 -0.391,2.141 -0.125,2.75 0.648,1.485 3.01,1.662 7.5,2 1.655,0.125 2.448,0.085 2.625,-0.313 0.292,-0.656 -1.438,-1.524 -2.063,-3.563 0,0 -0.388,-1.267 0,-3.125 1.23,-5.888 23.154,-19.214 31.875,-25.563 2.02,-1.47 4.045,-3.086 7.438,-4.5 4.379,-1.825 8.139,-2.106 8.125,-3 -0.014,-0.919 -3.991,-0.569 -6.313,-3.313 -0.854,-1.009 -1.119,-2.006 -1.625,-5.438 -1.318,-8.941 -0.602,-9.552 -1.55,-15.313 -0.471,-2.86 -0.827,-3.803 -0.301,-5.303 0.987,-2.815 3.872,-4.148 6.226,-5.197 8.151,-3.629 15.794,-8.617 24.375,-11.063 1.179,-0.336 3.642,-1.001 4.938,-3.125 1.169,-1.917 0.308,-3.252 1.063,-5.063 0.991,-2.379 3.667,-2.924 10.25,-4.875 2.537,-0.752 7.969,-2.399 13.563,-4.75 5.812,-2.443 7.787,-3.961 7.875,-5.688 0.032,-0.635 -0.23,-0.51 -1.438,-3 -1.859,-3.833 -2.788,-5.75 -2.656,-8.063 0.024,-0.416 0.084,-0.901 -0.125,-1 -0.686,-0.325 -2.386,4.384 -5.5,4.844 -1.195,0.177 -2.694,-0.259 -3.531,-1.26 -2.577,-3.082 2.106,-10.319 4.25,-12.833 0.573,-0.672 1.242,-1.331 2.188,-1.875 1.88,-1.081 2.906,-0.584 4.813,-1.125 3.214,-0.912 4.945,-3.643 6.656,-6.344 1.112,-1.755 1.163,-2.473 0.906,-2.906 -0.366,-0.618 -1.354,-0.643 -2.438,-0.656 -5.067,-0.062 -7.61,-0.088 -8.063,0.125 -1.752,0.826 -4.145,2.764 -4.656,4.469 -0.027,0.09 -0.102,0.359 -0.344,0.563 -0.888,0.751 -3.335,0.041 -4.063,-1.344 -0.839,-1.596 0.759,-3.794 1.5,-4.813 2.311,-3.177 4.416,-2.997 7.083,-5.302 4.506,-3.895 5.055,-10.079 5.167,-11.333 0.119,-1.345 0.475,-5.35 -1.333,-9.417 -0.719,-1.617 -1.636,-2.918 -1.833,-5.25 -0.225,-2.658 0.714,-3.933 0.167,-4.333 -1.086,-0.794 -6.193,3.187 -9.417,8.417 -0.952,1.544 -2.584,4.567 -3.333,8.583 -0.663,3.556 -1.097,5.882 -0.278,8.201 0.104,0.294 0.294,0.775 0.153,1.34 -0.439,1.764 -3.663,2.584 -5.75,2.75 -6.241,0.496 -12.259,-4.069 -12.938,-4.625 -0.117,-0.096 -0.386,-0.328 -0.813,-0.531 -1.431,-0.683 -2.79,-0.163 -2.875,-0.406 -0.07,-0.2 0.743,-0.83 2.156,-1.375 3.913,-1.508 5.826,0.189 8.375,-0.688 3.548,-1.22 4.94,-6.263 5.719,-9.083 0.926,-3.356 0.049,-3.637 1.25,-8.542 0.719,-2.934 1.356,-4.156 0.667,-4.958 -1.053,-1.225 -4.444,-0.595 -6.5,1.083 -2.677,2.185 -3.168,6.208 -3.227,6.738 -0.134,1.216 0.032,1.656 -0.357,2.595 -0.687,1.658 -2.278,2.877 -3.917,3.333 -0.439,0.122 -2.04,0.512 -3.75,-0.083 -1.198,-0.417 -1.689,-1.053 -2.833,-1 -0.884,0.041 -1.531,0.464 -1.833,0.667 -1.35,0.906 -1.782,2.351 -2.25,3.917 -0.423,1.416 -0.735,2.459 -0.5,3.75 0.305,1.672 1.237,2.167 1.833,3.333 1.879,3.672 -2.049,9.14 -2.667,10 -2.256,3.141 -6.284,6.413 -7.667,5.5 -1.798,-1.188 0.296,-9.843 1.5,-12.167 0.101,-0.196 0.705,-1.328 0.583,-2.75 -0.048,-0.564 -0.092,-1.074 -0.417,-1.292 -0.815,-0.547 -2.524,1.336 -5.292,3.021 -3.399,2.069 -3.867,1.082 -6.708,3.021 -3.013,2.056 -4.418,4.484 -4.75,5.083 -1.19,2.149 -0.456,2.214 -1.417,3.75 -2.382,3.807 -6.646,3.013 -9.942,7.44 -0.307,0.412 -0.417,0.617 -0.569,0.591 -1.32,-0.222 -1.272,-17.134 3.677,-32.114 2.73,-8.262 6.179,-13.601 11.417,-21.583 14.374,-21.904 28.367,-33.76 27.667,-34.5 -0.672,-0.71 -13.813,9.952 -27.504,23.534 -11.259,11.169 -16.888,16.754 -21.163,24.133 -7.316,12.629 -9.812,25.332 -12.333,38.167 -1.894,9.639 -3.243,16.504 -2.813,18.417 0.062,0.277 0.463,1.789 -0.313,2.938 -0.274,0.406 -0.601,0.626 -0.688,0.688 -1.969,1.383 -16.278,16.063 -19.698,26.243 -0.13,0.387 -0.589,1.795 -1.052,1.757 -1.104,-0.089 -0.714,-8.265 -1.75,-8.375 -0.593,-0.063 -1.395,3.666 -3,11.125 -0.478,2.222 -0.99,4.719 -0.188,5.125 0.338,0.171 0.748,-0.11 1.25,-0.375 2.675,-1.41 4.375,-0.445 6.417,-1.292 1.534,-0.636 1.632,-1.619 3.667,-4.375 2.133,-2.89 4.033,-4.51 7.833,-7.75 3.176,-2.708 5.061,-3.838 7.125,-3.708 0.454,0.029 1.494,0.109 2.146,0.875 0.799,0.94 0.626,2.456 0.125,3.438 -0.673,1.317 -1.806,1.416 -3.313,2.375 -2.87,1.827 -4.071,4.854 -4.625,6.25 -1.263,3.184 -0.122,3.875 -1.438,6.5 -0.662,1.321 -0.764,0.773 -4.438,4.75 -3.751,4.062 -5.627,6.092 -5.938,6.813 -0.094,0.219 -0.338,0.817 -0.917,1.083 -0.827,0.38 -2.072,-0.041 -2.771,-0.813 -0.903,-0.997 -0.805,-2.485 -0.667,-4.583 0.145,-2.199 0.563,-2.837 0.063,-3.375 -0.708,-0.76 -2.014,0.012 -3.229,-1.021 -0.537,-0.457 -0.67,-0.938 -1.042,-0.917 -0.513,0.03 -0.865,0.981 -1.063,1.625 -0.664,2.161 -0.996,3.241 -0.563,5.75 1.187,6.874 -15.079,29.28 -23.125,36.5 -0.597,0.536 -2.349,2.065 -3,4.563 -0.456,1.748 -0.261,3.546 0.625,6.063 2.818,7.985 9.134,13.388 9.632,13 z"
   id="path469"
   inkscape:connector-curvature="0" />
		<linearGradient
   id="SVGID_63_"
   gradientUnits="userSpaceOnUse"
   x1="427.539"
   y1="100.1007"
   x2="442.31079"
   y2="108.6292">
			<stop
   offset="0"
   style="stop-color:#535758"
   id="stop471" />
			<stop
   offset="0.1878"
   style="stop-color:#515455"
   id="stop473" />
			<stop
   offset="0.3874"
   style="stop-color:#4B4D4D"
   id="stop475" />
			<stop
   offset="0.5924"
   style="stop-color:#424241"
   id="stop477" />
			<stop
   offset="0.7997"
   style="stop-color:#353433"
   id="stop479" />
			<stop
   offset="1"
   style="stop-color:#222222"
   id="stop481" />
		</linearGradient>
		<path
   style="fill:url(#SVGID_63_)"
   d="m 434.515,116.047 c -0.508,0 -0.903,-0.05 -1.094,-0.08 -1.315,-0.205 -2.169,-0.739 -3.073,-1.304 l -0.179,-0.111 c -2.139,-1.332 -3.819,-2.169 -5.047,-2.78 -1.878,-0.936 -2.913,-1.451 -2.722,-2.597 0.145,-0.862 0.928,-1.105 1.686,-1.34 0.48,-0.148 1.077,-0.333 1.806,-0.683 0.486,-0.233 1.498,-0.718 4.675,-3.992 1.587,-1.636 2.42,-2.629 3.027,-3.354 0.764,-0.91 1.225,-1.459 2.343,-2.249 1.635,-1.153 4.086,-2.377 5.411,-2.377 0.615,0 0.938,0.266 1.101,0.489 0.506,0.695 0,1.388 -0.445,2 -0.212,0.29 -0.452,0.619 -0.67,1.003 -0.908,1.602 -0.766,3.001 -0.569,4.938 0.174,1.711 0.39,3.841 -0.159,6.62 -0.583,2.953 -1.504,3.999 -2.146,4.528 -1.298,1.066 -2.861,1.289 -3.945,1.289 z"
   id="path484"
   inkscape:connector-curvature="0" />
		<path
   style="fill:#38669e"
   d="m 423.239,109.315 c -0.156,0.937 2.422,1.429 7.379,4.516 0.943,0.587 1.712,1.106 2.933,1.297 0.328,0.051 2.656,0.38 4.365,-1.026 0.471,-0.388 1.302,-1.242 1.854,-4.036 1.131,-5.725 -1.12,-8.387 0.823,-11.813 0.629,-1.109 1.397,-1.767 1.167,-2.083 -0.387,-0.533 -3.139,0.536 -5.333,2.083 -1.856,1.309 -1.641,1.781 -5.25,5.5 -3.132,3.227 -4.232,3.838 -4.917,4.167 -1.843,0.883 -2.921,0.795 -3.021,1.395 z"
   id="path486"
   inkscape:connector-curvature="0" />
		<path
   style="fill:#3e72b2"
   d="m 435.552,61.19 c -1.7,1.146 1.72,5.88 0.313,12.313 -0.245,1.122 -0.578,2.021 -0.188,2.313 0.802,0.599 4.405,-1.557 6,-4.875 1.079,-2.244 0.33,-3.128 1.875,-6.313 0.615,-1.268 1.116,-1.914 0.813,-2.438 -0.47,-0.811 -2.159,-0.103 -5.438,-0.5 -2.521,-0.305 -2.813,-0.879 -3.375,-0.5 z"
   id="path488"
   inkscape:connector-curvature="0" />
		<path
   style="fill:#3e72b2"
   d="m 434.515,112.362 c -0.275,0 -0.472,-0.027 -0.525,-0.036 -0.549,-0.085 -0.894,-0.291 -1.688,-0.788 l -0.186,-0.116 c -1.178,-0.733 -2.238,-1.333 -3.156,-1.824 0.933,-0.668 2.23,-1.789 4.252,-3.873 1.681,-1.732 2.563,-2.784 3.207,-3.553 0.205,-0.244 0.368,-0.439 0.515,-0.605 0.003,0.822 0.085,1.622 0.165,2.413 0.164,1.619 0.334,3.294 -0.108,5.534 -0.312,1.581 -0.697,2.252 -0.876,2.399 -0.474,0.391 -1.206,0.449 -1.6,0.449 z"
   id="path490"
   inkscape:connector-curvature="0" />
	</g>
</g>
<g
   style="display:none"
   id="g513"
   transform="translate(5.5783278e-4)">
	
		<text
   id="_x3C_Group_x3E_"
   transform="translate(362.9363,271.2459)"
   style="font-size:5px;font-family:ArialMT;display:inline;fill:#c33a34">I don’t like bugs!</text>

	<g
   style="display:inline"
   id="g511">
		<path
   style="fill:#040006"
   d="m 125.982,276.541 -10.498,29.696 c -0.542,1.508 -1.528,2.649 -2.958,3.422 -1.122,0.58 -2.34,0.87 -3.654,0.87 H 75.29 c -4.64,0 -6.96,-1.991 -6.96,-5.974 0,-1.778 0.445,-3.847 1.334,-6.206 l 0.986,-2.436 9.512,-27.26 c 0.502,-1.508 1.469,-2.648 2.9,-3.422 1.16,-0.618 2.397,-0.928 3.712,-0.928 h 33.582 c 4.601,0 6.902,1.992 6.902,5.974 0,1.662 -0.426,3.75 -1.276,6.264 z m -13.514,2.262 c 0.154,-0.386 0.232,-0.773 0.232,-1.16 0,-1.624 -0.696,-2.436 -2.088,-2.436 h -16.82 c -2.243,0 -3.77,1.16 -4.582,3.48 l -6.032,17.342 c -0.155,0.387 -0.232,0.793 -0.232,1.218 0,1.586 0.696,2.378 2.088,2.378 h 16.82 c 1.392,0 2.455,-0.348 3.19,-1.044 0.464,-0.464 0.908,-1.256 1.334,-2.378 z"
   id="path497"
   inkscape:connector-curvature="0" />
		<path
   style="fill:#040006"
   d="m 167.576,282.869 -3.344,9.372 c -0.821,2.288 -2.244,3.637 -4.268,4.048 h -23.408 l -5.06,14.212 -9.548,-0.044 12.408,-35.112 h 27.676 c 1.76,0 3.212,0.418 4.356,1.254 1.144,0.836 1.716,2.032 1.716,3.586 0,0.821 -0.176,1.715 -0.528,2.684 z m -10.472,2.507 c 0.029,-0.117 0.044,-0.234 0.044,-0.352 0,-0.938 -0.733,-1.408 -2.2,-1.408 H 141 l -1.584,4.488 h 14.256 c 1.026,0 1.76,-0.117 2.2,-0.352 0.352,-0.205 0.616,-0.586 0.792,-1.144 z"
   id="path499"
   inkscape:connector-curvature="0" />
		<path
   style="fill:#040006"
   d="m 207.263,284.259 -4.576,12.91 h -27.72 l -0.748,2.264 c -0.206,0.563 -0.308,1.035 -0.308,1.42 0,0.917 0.586,1.375 1.76,1.375 h 25.256 l -2.904,8.272 h -27.236 c -5.163,0 -7.744,-1.613 -7.744,-4.84 0,-0.909 0.323,-2.302 0.968,-4.18 l 8.052,-23.32 c 0.645,-1.818 2.215,-2.728 4.708,-2.728 h 25.828 c 3.696,0 5.544,1.523 5.544,4.567 0,1.143 -0.293,2.563 -0.88,4.26 z m -10.252,1.714 c 0.059,-0.174 0.088,-0.363 0.088,-0.567 0,-1.134 -0.719,-1.702 -2.156,-1.702 h -12.32 c -1.056,0 -1.804,0.073 -2.244,0.218 -0.616,0.233 -1.027,0.67 -1.232,1.309 l -1.188,3.665 h 18.084 z"
   id="path501"
   inkscape:connector-curvature="0" />
		<path
   style="fill:#040006"
   d="m 249.899,284.717 -9.152,25.784 h -9.504 l 8.404,-24.068 c 0.088,-0.293 0.132,-0.586 0.132,-0.88 0,-1.232 -0.514,-1.848 -1.54,-1.848 h -12.76 c -1.731,0 -2.889,0.88 -3.476,2.64 l -8.404,24.156 h -9.592 l 12.276,-35.068 h 29.348 c 3.49,0 5.236,1.511 5.236,4.532 0,1.261 -0.323,2.845 -0.968,4.752 z"
   id="path503"
   inkscape:connector-curvature="0" />
		<path
   style="fill:#040006"
   d="m 306.179,274.221 -2.726,7.598 c -1.083,3.016 -2.958,4.795 -5.626,5.336 0.618,0.155 1.131,0.6 1.537,1.334 0.406,0.735 0.609,1.566 0.609,2.494 0,0.542 -0.097,1.083 -0.29,1.624 l -4.408,12.76 c -1.199,3.442 -3.403,5.162 -6.612,5.162 h -42.688 l 16.414,-46.226 h 36.424 c 2.358,0 4.282,0.551 5.771,1.653 1.488,1.102 2.233,2.678 2.233,4.727 0,1.083 -0.213,2.262 -0.638,3.538 z m -19.952,20.787 c 0.077,-0.272 0.116,-0.545 0.116,-0.818 0,-1.558 -0.851,-2.337 -2.552,-2.337 h -18.56 l -2.726,7.772 h 18.27 c 2.513,0 4.079,-0.856 4.698,-2.571 z m 6.148,-17.504 c 0.038,-0.153 0.058,-0.306 0.058,-0.459 0,-1.225 -0.967,-1.838 -2.9,-1.838 h -18.386 l -2.088,5.858 h 18.792 c 1.353,0 2.32,-0.153 2.9,-0.459 0.464,-0.268 0.812,-0.766 1.044,-1.493 z"
   id="path505"
   inkscape:connector-curvature="0" />
		<path
   style="fill:#040006"
   d="m 346.477,284.717 -7.964,22.528 c -0.411,1.144 -1.159,2.01 -2.244,2.596 -0.851,0.44 -1.775,0.66 -2.772,0.66 H 308.02 c -3.52,0 -5.28,-1.51 -5.28,-4.532 0,-1.349 0.338,-2.918 1.012,-4.708 l 0.748,-1.848 7.216,-20.68 c 0.381,-1.144 1.115,-2.009 2.2,-2.596 0.88,-0.469 1.818,-0.704 2.816,-0.704 h 25.476 c 3.49,0 5.236,1.511 5.236,4.532 0,1.261 -0.323,2.845 -0.967,4.752 z m -10.252,1.716 c 0.117,-0.293 0.176,-0.586 0.176,-0.88 0,-1.232 -0.528,-1.848 -1.584,-1.848 h -12.76 c -1.702,0 -2.86,0.88 -3.476,2.64 l -4.576,13.156 c -0.118,0.293 -0.176,0.602 -0.176,0.924 0,1.203 0.528,1.804 1.584,1.804 h 12.76 c 1.056,0 1.862,-0.264 2.42,-0.792 0.352,-0.352 0.689,-0.953 1.012,-1.804 z"
   id="path507"
   inkscape:connector-curvature="0" />
		<path
   style="fill:#040006"
   d="m 406.684,264.303 -3.886,10.904 h -31.726 c -1.315,0 -2.485,0.3 -3.509,0.899 -1.025,0.6 -1.673,1.305 -1.943,2.117 l -11.484,32.306 h -12.644 l 13.92,-39.498 c 1.585,-4.485 5.046,-6.728 10.382,-6.728 z"
   id="path509"
   inkscape:connector-curvature="0" />
	</g>
</g>
</svg>