<?xml version="1.0" encoding="UTF-8" standalone="no"?>
<svg
   xmlns:dc="http://purl.org/dc/elements/1.1/"
   xmlns:cc="http://creativecommons.org/ns#"
   xmlns:rdf="http://www.w3.org/1999/02/22-rdf-syntax-ns#"
   xmlns:svg="http://www.w3.org/2000/svg"
   xmlns="http://www.w3.org/2000/svg"
   xmlns:sodipodi="http://sodipodi.sourceforge.net/DTD/sodipodi-0.dtd"
   xmlns:inkscape="http://www.inkscape.org/namespaces/inkscape"
   viewBox="0 0 86.976215 200"
   version="1.1"
   id="svg44"
   sodipodi:docname="controller.svg"
   width="86.976219"
   height="200"
   inkscape:version="0.92.4 5da689c313, 2019-01-14">
  <metadata
     id="metadata50">
    <rdf:RDF>
      <cc:Work
         rdf:about="">
        <dc:format>image/svg+xml</dc:format>
        <dc:type
           rdf:resource="http://purl.org/dc/dcmitype/StillImage" />
      </cc:Work>
    </rdf:RDF>
  </metadata>
  <defs
     id="defs48" />
  <sodipodi:namedview
     pagecolor="#ffffff"
     bordercolor="#666666"
     borderopacity="1"
     objecttolerance="10"
     gridtolerance="10"
     guidetolerance="10"
     inkscape:pageopacity="0"
     inkscape:pageshadow="2"
     inkscape:window-width="640"
     inkscape:window-height="480"
     id="namedview46"
     showgrid="false"
     inkscape:zoom="1.18"
     inkscape:cx="43.488113"
     inkscape:cy="99.999998"
     inkscape:window-x="0"
     inkscape:window-y="0"
     inkscape:window-maximized="0"
     inkscape:current-layer="svg44">
    <inkscape:grid
       type="xygrid"
       id="grid860"
       originx="0"
       originy="-2.2880596e-06" />
  </sodipodi:namedview>
  <path
     d="m 86.456569,136.14798 c 0,-0.51964 -0.06496,-1.10425 -0.259824,-1.6239 -0.194868,-0.51965 -0.714517,-0.90938 -1.364078,-0.90938 v 0.32478 c -0.129912,0 -0.324781,0 -0.324781,0.19486 l 0.06496,23.12438 c -0.259824,8.24942 -2.6632,15.45955 -6.49561,21.69533 -0.129912,0.25983 0.129913,0.38974 0.259825,0.38974 0.454693,0 0.779473,-0.065 1.104254,-0.065 v 0.065 c 0.454692,0 0.779473,0.065 1.104253,0 0.324781,-0.065 0.649561,-0.19487 0.84443,-0.5846 3.507629,-6.23579 5.131531,-13.38096 5.131531,-20.98082 v -21.63039 z m 0,-72.16622 c 0,0.51965 -0.06496,1.10425 -0.259824,1.6239 -0.194868,0.51965 -0.714517,0.90938 -1.364078,0.90938 v -0.32478 c -0.129912,0 -0.324781,0 -0.324781,-0.19486 l 0.06496,-23.12438 c -0.259824,-8.24942 -2.6632,-15.45955 -6.49561,-21.69533 -0.129912,-0.25983 0.129913,-0.38974 0.259825,-0.38974 0.454693,0 0.779473,0.065 1.104254,0.065 v -0.065 c 0.454692,0 0.779473,-0.065 1.104253,0 0.324781,0.065 0.649561,0.19487 0.84443,0.5846 3.507629,6.23579 5.131531,13.38096 5.131531,20.98083 v 21.63038 z m 0,0"
     id="path2"
     inkscape:connector-curvature="0"
     style="fill:#bdbdbd" />
  <path
     d="M 84.832667,42.09155 V 96.9145 h -0.779473 v 6.23578 h 0.779473 v 54.758 c 0,23.25428 -18.837269,42.09155 -42.091553,42.09155 -23.254284,0.065 -42.091553,-18.77231 -42.091553,-42.0266 0,-9.22376 2.9230245,-17.66806 7.9246442,-24.61836 l 0.649561,-0.84443 c 1.2341658,-1.55894 1.9486828,-3.44267 1.9486828,-5.58622 V 73.14057 c 0,-2.0786 -0.714517,-4.02728 -1.9486828,-5.58623 L 8.5742052,66.70991 C 3.5725855,59.75961 0.649561,51.25036 0.649561,42.09155 0.649561,18.83727 19.48683,0 42.741114,0 65.995398,0 84.832667,18.83727 84.832667,42.09155 Z m 0,0"
     id="path4"
     inkscape:connector-curvature="0"
     style="fill:#cccccc" />
  <path
     d="M 0,0 H 86.976218 V 199.99983 H 0 Z"
     id="path6"
     inkscape:connector-curvature="0"
     style="fill:none" />
  <path
     d="m 23.059416,75.6089 c 0.194868,0 0.32478,-0.065 0.389736,-0.19487 l 0.194868,-0.25982 c 0.259825,-0.38974 0.584605,-0.58461 0.974342,-0.58461 0.194868,0 0.389737,0.065 0.519649,0.12991 0.129912,0.065 0.259824,0.19487 0.32478,0.38974 0.06496,0.12991 0.129912,0.32478 0.129912,0.51965 0,0.25982 -0.129912,0.45469 -0.32478,0.64956 -0.194868,0.12991 -0.454693,0.25982 -0.779473,0.25982 v -0.5846 c 0.129912,0 0.259824,0 0.32478,-0.065 0.06496,-0.065 0.129912,-0.12991 0.129912,-0.19487 0,-0.12991 -0.06496,-0.19486 -0.129912,-0.25982 -0.06496,-0.065 -0.129912,-0.12991 -0.259824,-0.12991 -0.129912,0 -0.259825,0.0649 -0.389737,0.25982 -0.129912,0.19487 -0.194868,0.32478 -0.259824,0.4547 -0.194868,0.25982 -0.519649,0.38973 -0.909386,0.38973 -0.194868,0 -0.389736,-0.065 -0.519648,-0.12991 -0.129913,-0.065 -0.259825,-0.19487 -0.324781,-0.32478 -0.06496,-0.12991 -0.129912,-0.32478 -0.129912,-0.51965 0,-0.12991 0.06496,-0.25982 0.06496,-0.38974 0.06496,-0.12991 0.129912,-0.19486 0.259824,-0.32478 0.194869,-0.19487 0.519649,-0.25982 0.84443,-0.25982 v 0.5846 c -0.194869,0 -0.324781,0 -0.389737,0.065 -0.06496,0.065 -0.129912,0.12991 -0.129912,0.25982 0,0.12992 0,0.19487 0.06496,0.25983 0.129912,-0.065 0.259824,-0.065 0.324781,0 z m 1.883726,12.66644 V 87.49586 L 22.15003,87.10613 v -0.58461 l 2.793112,0.38974 v -0.71452 l 0.649561,0.065 v 2.07859 l -0.649561,-0.065 z M 23.31924,85.48223 c -0.259824,0 -0.454693,-0.065 -0.649561,-0.19487 -0.194868,-0.12991 -0.324781,-0.25983 -0.454693,-0.38974 -0.129912,-0.19487 -0.129912,-0.32478 -0.129912,-0.51965 0,-0.25982 0.129912,-0.45469 0.324781,-0.64956 0.194868,-0.12991 0.519648,-0.25982 0.909385,-0.25982 0.259824,0 0.519649,0 0.844429,0.0649 0.324781,0.065 0.584605,0.12991 0.779473,0.25983 0.194869,0.12991 0.389737,0.25982 0.519649,0.38973 0.129912,0.19487 0.129912,0.32478 0.129912,0.51965 0,0.25983 -0.129912,0.51965 -0.32478,0.64956 -0.194868,0.19487 -0.519649,0.25983 -0.909385,0.25983 v -0.51965 c 0.194868,0 0.389736,0 0.454692,-0.065 0.06496,-0.0649 0.129912,-0.12991 0.129912,-0.25982 0,-0.32478 -0.32478,-0.51965 -0.974341,-0.58461 -0.324781,0 -0.519649,-0.065 -0.649561,-0.065 -0.389737,0 -0.584605,0.12991 -0.584605,0.32478 0,0.12991 0.06496,0.25982 0.129912,0.32478 l 0.389737,0.19487 0.06496,0.51965 z m 0.259824,-2.6632 v -0.97435 l -0.844429,-0.12991 v 1.10426 l -0.649561,-0.065 v -1.75382 l 3.442673,0.4547 v 1.75381 l -0.649561,-0.0649 v -1.10426 l -0.714517,-0.0649 V 82.949 l -0.584605,-0.12991 z m -0.779473,-3.24781 v 1.0393 l -0.649561,-0.065 v -1.68886 l 3.442673,0.4547 v 0.5846 l -2.793112,-0.32478 z m 0.779473,-1.16921 v -0.97434 l -0.844429,-0.12991 v 1.10425 l -0.649561,-0.065 v -1.68885 l 3.442673,0.45469 v 1.75381 l -0.649561,-0.0649 V 77.6875 l -0.714517,-0.065 v 0.97434 l -0.584605,-0.19487 z m -0.519648,19.87657 c 0.194868,0 0.32478,-0.065 0.389736,-0.19487 l 0.194868,-0.32478 c 0.259825,-0.38974 0.584605,-0.58461 0.974342,-0.58461 0.194868,0 0.389737,0.065 0.519649,0.12992 0.129912,0.065 0.259824,0.19486 0.32478,0.38973 0.06496,0.12991 0.129912,0.32478 0.129912,0.51965 0,0.25983 -0.129912,0.45469 -0.32478,0.64956 -0.194868,0.12991 -0.454693,0.25983 -0.779473,0.25983 V 98.5384 c 0.129912,0 0.259824,0 0.32478,-0.065 0.06496,-0.065 0.129912,-0.12992 0.129912,-0.19487 0,-0.12991 -0.06496,-0.19487 -0.129912,-0.25983 -0.06496,-0.0649 -0.129912,-0.12991 -0.259824,-0.12991 -0.129912,0 -0.259825,0.065 -0.389737,0.25983 -0.129912,0.19486 -0.194868,0.32478 -0.259824,0.45469 -0.194868,0.25982 -0.519649,0.38973 -0.909386,0.38973 -0.194868,0 -0.389736,-0.065 -0.519648,-0.12991 -0.129913,-0.065 -0.259825,-0.19487 -0.324781,-0.38973 -0.06496,-0.12992 -0.129912,-0.32478 -0.129912,-0.51965 0,-0.12992 0.06496,-0.25983 0.06496,-0.38974 0.06496,-0.12991 0.129912,-0.19487 0.259824,-0.32478 0.194869,-0.19487 0.519649,-0.25982 0.84443,-0.25982 v 0.5846 c -0.194869,0 -0.324781,0 -0.389737,0.065 -0.06496,0.065 -0.129912,0.12991 -0.129912,0.25982 0,0.12991 0,0.19487 0.06496,0.25983 0.129912,0.0649 0.259824,0.0649 0.324781,0.12991 z m 1.883726,10.91262 v -0.71451 l -2.793112,-0.38974 v -0.58461 l 2.793112,0.38974 v -0.71452 l 0.649561,0.065 v 2.07859 l -0.649561,-0.12991 z m -0.974341,-4.02728 v 0.32478 c 0,0.065 0,0.19487 0.06496,0.25983 0.06496,0.065 0.129912,0.12991 0.259824,0.12991 0.129913,0 0.194869,0.065 0.324781,0 0.194868,0 0.259824,-0.12991 0.259824,-0.25982 v -0.38974 l -0.909385,-0.065 z m -0.584605,-0.12991 -1.234166,-0.12991 v -0.58461 l 3.442673,0.4547 v 0.90938 c 0,0.25983 -0.06496,0.51965 -0.259824,0.64956 -0.194868,0.12992 -0.454693,0.19487 -0.714517,0.19487 -0.259824,0 -0.454693,-0.0649 -0.584605,-0.19487 -0.194868,-0.065 -0.32478,-0.19486 -0.389737,-0.38973 l -1.364078,0.32478 h -0.06496 v -0.64956 l 1.234166,-0.25983 v -0.32478 z m -0.584605,-2.53329 -0.649561,-0.25982 v -0.64956 l 3.442673,1.36408 v 0.5846 l -3.442673,0.45469 v -0.64956 l 0.649561,-0.0649 v -0.77948 z m 0.649561,0.25983 v 0.51965 l 1.16921,-0.12992 z m 1.49399,-1.10426 v -0.71451 l -2.793112,-0.38974 v -0.5846 l 2.793112,0.38973 v -0.71451 l 0.649561,0.0649 v 2.0786 l -0.649561,-0.12992 z m 0,0"
     id="path8"
     inkscape:connector-curvature="0"
     style="fill:#4c4c4c" />
  <path
     d="m 43.195807,66.25522 c -13.186089,0 -23.903845,-10.6528 -23.903845,-23.83889 0,-13.18609 10.717756,-23.83889 23.903845,-23.83889 13.186088,0 23.903845,10.6528 23.903845,23.83889 0,13.18609 -10.717757,23.83889 -23.903845,23.83889"
     id="path10"
     inkscape:connector-curvature="0"
     style="fill:#999999" />
  <path
     d="m 43.195807,66.25522 c -13.186089,0 -23.903845,-10.6528 -23.903845,-23.83889 0,-13.18609 10.717756,-23.83889 23.903845,-23.83889 13.186088,0 23.903845,10.6528 23.903845,23.83889 0,13.18609 -10.717757,23.83889 -23.903845,23.83889"
     id="path12"
     inkscape:connector-curvature="0"
     style="fill:none;stroke:#999999;stroke-width:0.51964879" />
  <path
     d="m 43.195807,65.47575 c -12.796352,0 -23.124372,-10.32802 -23.124372,-23.12437 0,-12.79636 10.32802,-23.12438 23.124372,-23.12438 12.796351,0 23.124371,10.32802 23.124371,23.12438 0,12.79635 -10.32802,23.12437 -23.124371,23.12437"
     id="path14"
     inkscape:connector-curvature="0"
     style="fill:#cccccc" />
  <path
     d="m 43.130851,195.97255 c -20.915865,0 -37.934363,-17.0185 -37.934363,-37.93436 0,-20.98082 17.018498,-37.93436 37.934363,-37.93436 20.98082,0 37.934362,17.0185 37.934362,37.93436 0.06496,20.91586 -16.953542,37.93436 -37.934362,37.93436"
     id="path16"
     inkscape:connector-curvature="0"
     style="fill:#666666" />
  <path
     d="M 49.171768,58.98014 V 48.39229 h 10.6528 c 0.454693,0 0.84443,-0.38973 0.84443,-0.84443 V 37.21984 c 0,-0.45469 -0.389737,-0.84443 -0.84443,-0.84443 h -10.6528 V 25.78757 c 0,-0.45469 -0.389737,-0.84443 -0.844429,-0.84443 H 38.064275 c -0.454693,0 -0.84443,0.38974 -0.84443,0.84443 v 10.58784 h -10.6528 c -0.454693,0 -0.844429,0.38974 -0.844429,0.84443 v 10.32802 c 0,0.4547 0.389736,0.84443 0.844429,0.84443 h 10.6528 v 10.6528 c 0,0.4547 0.389737,0.84443 0.84443,0.84443 h 10.32802 c 0.454692,-0.065 0.779473,-0.45469 0.779473,-0.90938"
     id="path18"
     inkscape:connector-curvature="0"
     style="fill:#4c4c4c" />
  <path
     d="m 44.30006,27.41147 c -0.584605,-1.0393 -1.558946,-1.0393 -2.143551,0 l -2.33842,4.09224 c -0.584604,1.03929 -0.32478,1.88372 0.584605,1.88372 h 5.521269 c 0.909385,0 1.234166,-0.84443 0.584605,-1.88372 L 44.30006,27.41147 c -0.584605,-1.0393 -1.558946,-1.0393 -2.143551,0 l -2.33842,4.09224 c -0.584604,1.03929 -0.32478,1.88372 0.584605,1.88372 h 5.521269 c 0.909385,0 1.234166,-0.84443 0.584605,-1.88372 z m 0,29.87981 c -0.584605,1.0393 -1.558946,1.0393 -2.143551,0 l -2.33842,-4.09224 c -0.584604,-1.03929 -0.32478,-1.88372 0.584605,-1.88372 h 5.521269 c 0.909385,0 1.234166,0.84443 0.584605,1.88372 l -2.208508,4.09224 c -0.584605,1.0393 -1.558946,1.0393 -2.143551,0 l -2.33842,-4.09224 c -0.584604,-1.03929 -0.32478,-1.88372 0.584605,-1.88372 h 5.521269 c 0.909385,0 1.234166,0.84443 0.584605,1.88372 z M 58.070754,43.45563 c 1.039297,-0.58461 1.039297,-1.55895 0,-2.14355 l -4.027279,-2.33842 c -1.039297,-0.58461 -1.883727,-0.32478 -1.883727,0.64956 v 5.52127 c 0,0.90938 0.84443,1.23416 1.883727,0.64956 l 4.027279,-2.33842 c 1.039297,-0.58461 1.039297,-1.55895 0,-2.14355 l -4.027279,-2.33842 c -1.039297,-0.58461 -1.883727,-0.32478 -1.883727,0.64956 v 5.52127 c 0,0.90938 0.84443,1.23416 1.883727,0.64956 z m -29.81485,0 c -1.039298,-0.58461 -1.039298,-1.55895 0,-2.14355 l 4.092234,-2.33842 c 1.039298,-0.58461 1.883727,-0.32478 1.883727,0.64956 v 5.52127 c 0,0.90938 -0.844429,1.23416 -1.883727,0.64956 l -4.092234,-2.33842 c -1.039298,-0.58461 -1.039298,-1.55895 0,-2.14355 l 4.092234,-2.33842 c 1.039298,-0.58461 1.883727,-0.32478 1.883727,0.64956 v 5.52127 c 0,0.90938 -0.844429,1.23416 -1.883727,0.64956 z m 9.873327,44.17015 -6.690479,-8.57421 c -2.338419,-2.92302 1.883727,-6.62552 4.417015,-3.44267 l 6.690479,8.5742 c 2.338419,3.05294 -2.078596,6.56057 -4.417015,3.44268 m 0,21.50047 -6.690479,-8.57421 c -2.338419,-2.92302 1.883727,-6.62552 4.417015,-3.44267 l 6.690479,8.5742 c 2.338419,3.05294 -2.078596,6.56057 -4.417015,3.44268"
     id="path20"
     inkscape:connector-curvature="0"
     style="fill:#666666" />
  <path
     d="m 70.607281,171.02941 v -1.36408 l -2.078595,1.75382 -2.273464,-1.88373 v 1.29912 l 1.493991,1.23417 -1.493991,1.23416 v 1.29913 l 2.273464,-1.88373 2.078595,1.75381 V 173.108 l -1.234166,-1.03929 z m -15.524508,17.21337 v 1.29912 l -4.287103,1.94868 v -1.0393 l 1.104254,-0.51965 v -2.14355 l -1.104254,-0.51965 v -1.03929 z m -2.33842,1.29912 1.493991,-0.64956 -1.429035,-0.64956 -0.06496,1.29912 z M 34.036997,126.59944 v -1.16921 l -2.403376,1.94868 h -2.013639 v 1.0393 h 2.013639 l 2.403376,1.94868 v -1.16921 l -1.623903,-1.29912 z m 0,0"
     id="path22"
     inkscape:connector-curvature="0"
     style="fill:#d8d8d8" />
  <path
     d="m 18.902225,142.96837 v 2.85807 c -0.129912,1.81877 -2.013639,1.88373 -2.143551,0.12991 -0.06496,2.20851 -2.273464,2.01364 -2.33842,-0.12991 v -2.85807 z m -3.637541,2.85807 c 0.129912,0.71452 0.909385,0.71452 1.039297,0 v -1.75381 h -1.039297 z m 1.883726,0 c 0.259825,0.71452 0.909386,0.4547 0.974342,0 v -1.75381 H 17.14841 Z m 0,0"
     id="path24"
     inkscape:connector-curvature="0"
     style="fill:#cccccc" />
  <path
     d="m 50.600802,138.9411 c 0,-4.35206 -3.507629,-7.85969 -7.859688,-7.85969 -4.352059,0 -7.859688,3.50763 -7.859688,7.85969 0,4.35205 3.507629,7.85968 7.859688,7.85968 4.352059,0 7.859688,-3.50763 7.859688,-7.85968 z m -0.649561,0 c 0,3.96232 -3.182849,7.21012 -7.210127,7.21012 -3.962322,0 -7.210127,-3.18285 -7.210127,-7.21012 0,-3.96233 3.182849,-7.21013 7.210127,-7.21013 4.027278,0 7.210127,3.2478 7.210127,7.21013 z m 15.524508,19.03213 c 0,-4.35206 -3.507629,-7.85968 -7.859688,-7.85968 -4.352059,0 -7.859688,3.50762 -7.859688,7.85968 0,4.35206 3.507629,7.85969 7.859688,7.85969 4.352059,0 7.859688,-3.50763 7.859688,-7.85969 z m -0.649561,0 c 0,3.96233 -3.182849,7.21013 -7.210127,7.21013 -3.962322,0 -7.210127,-3.18285 -7.210127,-7.21013 0,-4.02727 3.247805,-7.14517 7.210127,-7.14517 3.962322,0 7.210127,3.18285 7.210127,7.14517 z m -28.710596,0.64956 c 0,-4.35205 -3.50763,-7.85968 -7.859688,-7.85968 -4.352059,0 -7.859689,3.50763 -7.859689,7.85968 0,4.35206 3.50763,7.85969 7.859689,7.85969 4.352058,0 7.859688,-3.50763 7.859688,-7.85969 z m -0.649561,0 c 0,3.96233 -3.182849,7.14518 -7.210127,7.14518 -3.962323,0 -7.145171,-3.18285 -7.145171,-7.14518 0,-3.96232 3.182848,-7.21012 7.145171,-7.21012 4.027278,0.065 7.210127,3.2478 7.210127,7.21012 z m 15.524508,19.03214 c 0,-4.35206 -3.50763,-7.85969 -7.859688,-7.85969 -4.352059,0 -7.859689,3.50763 -7.859689,7.85969 0,4.35206 3.50763,7.85969 7.859689,7.85969 4.352058,0 7.859688,-3.50763 7.859688,-7.85969 z m -0.649561,0 c 0,3.96232 -3.182849,7.21013 -7.210127,7.21013 -3.962323,0 -7.210128,-3.18285 -7.210128,-7.21013 0,-3.96232 3.182849,-7.21013 7.210128,-7.21013 3.962322,0.065 7.210127,3.24781 7.210127,7.21013 z m 0,0"
     id="path26"
     inkscape:connector-curvature="0"
     style="fill:#f4f4f4" />
  <path
     d="m 48.846987,184.93002 c -4.027278,3.11789 -9.808371,2.40337 -12.99122,-1.62391 L 20.98082,164.27398 c -3.117892,-4.02728 -2.403375,-9.80838 1.623903,-12.99122 4.027278,-3.1179 9.808371,-2.40338 12.99122,1.6239 l 14.809991,19.09709 c 1.16921,1.49399 1.818771,3.24781 1.948683,5.06658 0.194868,2.85807 -0.974342,5.911 -3.50763,7.85969 z m 0,0"
     id="path28"
     inkscape:connector-curvature="0"
     style="fill:#d8d8d8" />
  <path
     d="m 50.990539,177.65493 c 0,4.35206 -3.50763,7.85969 -7.859688,7.85969 -4.352059,0 -7.859689,-3.50763 -7.859689,-7.85969 0,-4.35206 3.50763,-7.85969 7.859689,-7.85969 4.352058,0.065 7.859688,3.57259 7.859688,7.85969 z m 0,0"
     id="path30"
     inkscape:connector-curvature="0"
     style="fill:#eb2d2f" />
  <path
     d="m 63.267242,165.31327 c -4.027279,3.1179 -9.808372,2.40338 -12.99122,-1.6239 L 35.401075,144.65723 c -3.117893,-4.02728 -2.403376,-9.80837 1.623902,-12.99122 4.027278,-3.11789 9.808371,-2.40337 12.99122,1.62391 l 14.809991,19.09709 c 1.16921,1.49399 1.818771,3.2478 1.948683,5.06657 0.259824,2.85807 -0.974341,5.91101 -3.507629,7.85969 z m 0,0"
     id="path32"
     inkscape:connector-curvature="0"
     style="fill:#d8d8d8" />
  <path
     d="m 65.475749,157.97323 c 0,4.35206 -3.507629,7.85969 -7.859688,7.85969 -4.352059,0 -7.859688,-3.50763 -7.859688,-7.85969 0,-4.35206 3.507629,-7.85968 7.859688,-7.85968 4.352059,0.065 7.859688,3.57258 7.859688,7.85968 z m 0,0"
     id="path34"
     inkscape:connector-curvature="0"
     style="fill:#323b98" />
  <path
     d="m 36.115592,158.62279 c 0,4.35206 -3.50763,7.85969 -7.859688,7.85969 -4.352059,0 -7.859689,-3.50763 -7.859689,-7.85969 0,-4.35205 3.50763,-7.85968 7.859689,-7.85968 4.352058,0 7.859688,3.50763 7.859688,7.85968 z m 0,0"
     id="path36"
     inkscape:connector-curvature="0"
     style="fill:#f9ec2b" />
  <path
     d="m 50.600802,138.9411 c 0,4.35205 -3.507629,7.85968 -7.859688,7.85968 -4.352059,0 -7.859688,-3.50763 -7.859688,-7.85968 0,-4.35206 3.507629,-7.85969 7.859688,-7.85969 4.352059,0 7.859688,3.50763 7.859688,7.85969 z m 0,0"
     id="path38"
     inkscape:connector-curvature="0"
     style="fill:#01954b" />
  <circle
     cx="43.195808"
     cy="42.351372"
     r="4.7417955"
     id="circle40"
     style="fill:#595959" />
  <path
     d="m 70.412413,73.985 c 0,0 0.06496,-0.12992 0.06496,-0.25983 v -1.55894 c 0,0 0.129912,-0.19487 0.389736,-0.19487 0,0 0.259825,0.0649 0.259825,0.38973 v 2.14355 h 0.584605 v -2.79311 c 0,0 0,-0.64956 -0.779474,-0.84443 0,0 -1.104253,-0.19487 -1.104253,0.90939 v 1.42903 c 0,0 -0.06496,0.4547 -0.389737,0.38974 0,0 -0.32478,-0.065 -0.32478,-0.32478 v -2.20851 h -0.649561 v 2.53329 c 0,0 -0.129913,0.97434 0.844429,1.10425 0,0 0.909385,0.065 1.104254,-0.71451 z m -1.299122,3.63754 v -1.16921 c 0,0 0.06496,-0.45469 0.454692,-0.45469 h 2.143552 v -0.97435 h -2.403376 c 0,0 -0.844429,0.25983 -0.844429,0.97435 v 2.53328 h 3.247805 v -0.97434 h -2.598244 z m 2.6632,4.15719 v -2.6632 H 68.46373 v 0.90938 h 1.104253 v 1.62391 c 0.129913,1.10425 1.104254,1.03929 1.104254,1.03929 0.974342,-0.065 1.104254,-0.90938 1.104254,-0.90938 z m -1.558947,-0.51965 v -1.16921 h 0.909386 v 1.23417 c 0,0.32478 -0.389737,0.38973 -0.389737,0.38973 -0.584605,-0.12991 -0.519649,-0.45469 -0.519649,-0.45469 z m -0.129912,1.75381 c 0,0 -1.364078,-0.19486 -1.623902,1.36408 v 1.94869 h 0.649561 V 84.6378 c 0,0 0,-0.51965 0.714517,-0.58461 v 2.33842 h 0.649561 v -2.27346 c 0,0 0.584605,0.065 0.649561,0.64956 v 1.6239 h 0.649561 v -2.01364 c 0,-0.065 -0.129912,-1.36408 -1.688859,-1.36408 z m 0.649561,7.59987 c 0.974342,0 1.039298,-0.97434 1.039298,-0.97434 V 86.91126 H 68.46373 v 0.97434 h 1.234166 v 0.97434 l -1.234166,0.84443 v 1.10426 l 1.234166,-0.97435 c 0.194868,0.77948 1.039297,0.77948 1.039297,0.77948 z M 70.2825,88.9249 v -1.10425 h 0.84443 v 1.10425 c 0,0 0.06496,0.5846 -0.454693,0.5846 0,0.065 -0.389737,0.12992 -0.389737,-0.5846 z m 0.259825,3.89737 H 68.46373 v 0.97434 h 1.299122 v 2.33842 h 0.714517 v -2.33842 h 0.194868 c 0.389737,0.065 0.519649,0.64956 0.519649,0.64956 v 1.68886 h 0.584605 v -2.01364 c -0.06496,-1.10426 -1.234166,-1.29912 -1.234166,-1.29912 z m 1.16921,6.04091 v -2.14355 h -0.649561 v 1.68886 c 0,0.64956 -0.649561,0.71452 -0.649561,0.71452 V 97.4991 c -0.06496,-1.10425 -1.039298,-1.10425 -1.039298,-1.10425 -1.039298,0 -1.039298,1.16921 -1.039298,1.16921 v 2.53329 h 1.818771 c 1.429034,0 1.558947,-1.23417 1.558947,-1.23417 z m -2.6632,0.25983 v -1.29913 c 0,0 0,-0.32478 0.389736,-0.32478 0,0 0.389737,0.065 0.389737,0.38974 v 1.29912 h -0.779473 z m 2.6632,5.26144 V 100.617 H 68.46373 v 0.97434 h 2.598244 v 0.84443 h -2.6632 v 0.97434 h 2.598244 v 0.38974 c 0,0.51964 -0.389737,0.5846 -0.389737,0.5846 h -2.208507 v 0.90939 h 2.143551 c 1.039297,0.12991 1.16921,-0.90939 1.16921,-0.90939 z m -3.247805,1.55895 v 1.03929 h 3.247805 v -1.03929 z m 1.623902,1.49399 c -1.623902,0 -1.688858,1.36408 -1.688858,1.36408 v 1.88372 h 0.649561 v -1.6239 c 0.129912,-0.71452 0.974341,-0.64956 0.974341,-0.64956 1.104254,0 0.974342,0.71452 0.974342,0.71452 v 1.6239 h 0.649561 v -2.01364 c -0.129913,-1.29912 -1.558947,-1.29912 -1.558947,-1.29912 z m 1.623903,5.58622 c 0,0 0.129912,-1.75381 -1.364078,-2.01364 0,0 -1.234166,-0.19487 -1.688859,0.64956 0,0 -0.779473,1.23417 0,2.6632 0,0 0.454693,0.97435 1.883727,0.71452 0,0 1.234166,-0.25982 1.16921,-2.01364 z m -2.793113,0.065 c 0,0 -0.129912,-1.23417 1.104254,-1.10426 0,0 1.104254,-0.12991 1.104254,1.0393 0,0 0.129912,1.16921 -1.104254,1.16921 0,-0.0649 -1.104254,0.065 -1.104254,-1.10425 z m 2.728157,6.23578 v -3.76745 h -3.247805 v 0.97434 h 2.598244 v 0.84443 h -2.663201 v 0.97434 h 2.598244 v 0.38974 c 0,0.51965 -0.389736,0.5846 -0.389736,0.5846 h -2.208508 v 0.90939 h 2.143552 c 1.039297,0.065 1.16921,-0.90939 1.16921,-0.90939 z M 78.531925,70.9321 v 1.42903 l -3.312761,2.01364 h 3.312761 v 1.42904 H 73.79013 v -1.42904 l 3.312761,-2.01364 H 73.79013 V 70.9321 Z m -0.454693,12.66644 v 1.36408 h -0.649561 v 0.77947 H 76.972979 V 84.96262 H 73.79013 v -1.36408 h 3.182849 v -0.77947 h 0.454692 v 0.77947 z m -1.104253,-6.9503 v 1.36407 H 73.79013 v -1.36407 z m 1.558946,-0.065 v 1.42903 h -0.974341 v -1.42903 z m -1.364078,24.42349 c 0,-1.10425 -0.779473,-2.01364 -1.753815,-2.01364 -0.974341,0 -1.753814,0.90939 -1.753814,2.01364 0,1.10426 0.779473,2.01364 1.753814,2.01364 0.974342,0.065 1.753815,-0.84443 1.753815,-2.01364 m -1.753815,0.58461 h -0.649561 c -0.519648,0 -0.714517,-0.25983 -0.714517,-0.58461 0,-0.25982 0.194869,-0.5846 0.714517,-0.5846 h 1.364078 c 0.519649,0 0.714518,0.32478 0.714518,0.5846 0,0.25983 -0.194869,0.58461 -0.714518,0.58461 z m -0.06496,-4.41702 h 0.584605 c 0.519649,0 0.584605,-0.32478 0.584605,-0.51965 0,-0.19486 -0.129912,-0.51964 -0.584605,-0.51964 h -1.16921 c -0.519648,0 -0.649561,0.32478 -0.649561,0.51964 0,0.19487 0.129913,0.51965 0.649561,0.51965 z m 3.182849,0 v 1.36408 h -4.741795 v -1.36408 h 0.194868 c -0.32478,-0.51965 -0.32478,-1.10425 -0.129912,-1.6239 0.06496,-0.12991 0.454693,-0.97434 1.558946,-0.97434 0.84443,0 1.753815,0.77947 1.688859,1.75381 0,0.32478 -0.129912,0.58461 -0.259824,0.77948 l 1.688858,0.065 z M 77.102887,81.26008 c 0,0.51965 -0.324781,1.55895 -1.558946,1.55895 h -1.753815 v -1.36408 h 2.078595 c 0.259824,0 0.584605,-0.25983 0.584605,-0.64956 0,-0.38974 -0.324781,-0.64956 -0.584605,-0.64956 h -2.078595 v -1.36408 h 3.182849 v 1.36408 h -0.324781 c 0.194869,0.25982 0.454693,0.64956 0.454693,1.10425 m 0,11.30236 c 0,0.51965 -0.324781,1.55895 -1.558946,1.55895 h -1.753815 v -1.36408 h 2.078595 c 0.259824,0 0.584605,-0.25983 0.584605,-0.64956 0,-0.38974 -0.324781,-0.64956 -0.584605,-0.64956 h -2.078595 v -1.36408 h 3.182849 v 1.36408 h -0.324781 c 0.194869,0.25982 0.454693,0.64956 0.454693,1.10425 M 74.89438,88.21038 h -0.194869 c -0.584605,0 -0.714517,-0.38973 -0.714517,-0.5846 0,-0.19487 0.129912,-0.58461 0.714517,-0.58461 h 0.649561 v 2.59825 c 0.974342,0 1.818771,-0.90939 1.818771,-2.0786 0,-1.16921 -0.779473,-2.07859 -1.753815,-2.07859 -0.974341,0 -1.753814,0.90938 -1.753814,2.07859 0,0.90939 0.519648,1.75382 1.299122,1.94868 l -0.06496,-1.29912 z m 0.974341,-1.16921 c 0.259824,0 0.454693,0 0.649561,0.065 0.194868,0.12991 0.259824,0.32478 0.259824,0.51965 0,0.19487 -0.06496,0.38973 -0.259824,0.51965 -0.129912,0.0649 -0.32478,0.0649 -0.649561,0.0649 v -1.16921 z m -3.83241,-26.43713 c -0.714517,0 -1.299122,-1.29912 -1.299122,-2.85807 0,-1.55895 0.584605,-2.85807 1.299122,-2.85807 0.714517,0 1.299122,1.29912 1.299122,2.85807 -0.06496,1.55895 -0.584605,2.85807 -1.299122,2.85807 m -2.143551,5.06658 c -0.714517,0 -1.299122,-1.29913 -1.299122,-2.85807 0,-1.55895 0.584605,-2.85807 1.299122,-2.85807 0.714517,0 1.299122,1.29912 1.299122,2.85807 0,1.55894 -0.584605,2.85807 -1.299122,2.85807 m 1.364078,0.32478 c 1.429034,-0.32478 2.987981,-1.55895 2.33842,-3.18285 2.98798,1.29912 2.533287,3.76745 1.49399,4.61188 -0.779473,0.71452 -3.50763,0.64956 -3.83241,-1.42903 m 2.33842,-5.00162 c 1.429034,-0.32478 2.98798,-1.55895 2.338419,-3.18285 2.987981,1.29912 2.533288,3.76745 1.49399,4.61188 -0.844429,0.71452 -3.572585,0.64956 -3.832409,-1.42903"
     id="path42"
     inkscape:connector-curvature="0"
     style="fill:#4c4c4c" />
</svg>
