<?xml version="1.0" encoding="UTF-8" standalone="no"?>
<svg
   xmlns:dc="http://purl.org/dc/elements/1.1/"
   xmlns:cc="http://creativecommons.org/ns#"
   xmlns:rdf="http://www.w3.org/1999/02/22-rdf-syntax-ns#"
   xmlns:svg="http://www.w3.org/2000/svg"
   xmlns="http://www.w3.org/2000/svg"
   xmlns:sodipodi="http://sodipodi.sourceforge.net/DTD/sodipodi-0.dtd"
   xmlns:inkscape="http://www.inkscape.org/namespaces/inkscape"
   viewBox="0 0 358.903 279.14"
   version="1.1"
   id="svg451"
   sodipodi:docname="consolegame.svg"
   width="358.90302"
   height="279.14001"
   inkscape:version="0.92.4 5da689c313, 2019-01-14">
  <metadata
     id="metadata457">
    <rdf:RDF>
      <cc:Work
         rdf:about="">
        <dc:format>image/svg+xml</dc:format>
        <dc:type
           rdf:resource="http://purl.org/dc/dcmitype/StillImage" />
      </cc:Work>
    </rdf:RDF>
  </metadata>
  <defs
     id="defs455" />
  <sodipodi:namedview
     pagecolor="#ffffff"
     bordercolor="#666666"
     borderopacity="1"
     objecttolerance="10"
     gridtolerance="10"
     guidetolerance="10"
     inkscape:pageopacity="0"
     inkscape:pageshadow="2"
     inkscape:window-width="640"
     inkscape:window-height="480"
     id="namedview453"
     showgrid="false"
     inkscape:zoom="0.75507864"
     inkscape:cx="179.45151"
     inkscape:cy="139.56999"
     inkscape:window-x="0"
     inkscape:window-y="0"
     inkscape:window-maximized="0"
     inkscape:current-layer="svg451">
    <inkscape:grid
       type="xygrid"
       id="grid1264"
       originx="0"
       originy="-1.4648437e-05" />
  </sodipodi:namedview>
  <g
     transform="translate(6.287,199.148)"
     id="g22">
    <linearGradient
       id="a"
       gradientUnits="userSpaceOnUse"
       x1="-89.922997"
       y1="300.43701"
       x2="-89.922997"
       y2="301.77399"
       gradientTransform="matrix(162.5695,0,0,-30.2899,14750.304,9156.85)">
      <stop
         offset="0"
         stop-color="#dbd0c0"
         id="stop2" />
      <stop
         offset="1"
         stop-color="#c0b598"
         id="stop4" />
    </linearGradient>
    <path
       d="m 47.561,34.754 a 3.322,3.322 0 0 0 3.323,3.321 H 212.3 a 3.322,3.322 0 0 0 3.323,-3.321 V 10.083 A 3.322,3.322 0 0 0 212.3,6.762 H 50.884 a 3.322,3.322 0 0 0 -3.323,3.321 z"
       id="path7"
       inkscape:connector-curvature="0"
       style="fill:url(#a)" />
    <g
       transform="translate(124.42,10.583)"
       id="g20">
      <linearGradient
         id="b"
         gradientUnits="userSpaceOnUse"
         x1="-210.242"
         y1="279.41101"
         x2="-210.242"
         y2="280.65601"
         gradientTransform="matrix(27.7838,0,0,-14.2271,5907.463,4001.427)">
        <stop
           offset="0"
           stop-color="#c2b9ab"
           id="stop9" />
        <stop
           offset="1"
           stop-color="#a89f85"
           id="stop11" />
      </linearGradient>
      <path
         d="m 80.521,20.534 c 0,0.786 -0.638,1.423 -1.424,1.423 H 53.223 A 1.423,1.423 0 0 1 51.799,20.534 V 8.673 c 0,-0.786 0.638,-1.423 1.424,-1.423 h 25.874 c 0.787,0 1.424,0.637 1.424,1.423 z"
         id="path14"
         inkscape:connector-curvature="0"
         style="fill:url(#b)" />
      <path
         d="m 77.485,17.924 a 0.474,0.474 0 0 1 -0.475,0.474 h -7.24 a 0.474,0.474 0 0 1 -0.475,-0.474 v -8.54 c 0,-0.262 0.212,-0.474 0.475,-0.474 h 7.24 c 0.263,0 0.475,0.212 0.475,0.474 z"
         id="path16"
         inkscape:connector-curvature="0"
         style="fill:#97876c" />
      <path
         d="M 75.398,11.579 V 10.511 H 74.567 V 9.325 h -2.136 v 1.186 H 71.6 v 1.068 h -0.831 v 5.456 h 5.46 v -5.456 z"
         id="path18"
         inkscape:connector-curvature="0" />
    </g>
  </g>
  <g
     transform="translate(0.317)"
     id="g38">
    <linearGradient
       id="c"
       gradientUnits="userSpaceOnUse"
       x1="-84.525002"
       y1="508.85501"
       x2="-83.490997"
       y2="508.85501"
       gradientTransform="matrix(174.2033,0,0,-206.2166,14772.086,105040.98)">
      <stop
         offset="0"
         stop-color="#dbd0c0"
         id="stop24" />
      <stop
         offset="1"
         stop-color="#c0b598"
         id="stop26" />
    </linearGradient>
    <path
       d="m 227.608,207.491 a 5.695,5.695 0 0 1 -5.697,5.693 H 53.215 a 5.695,5.695 0 0 1 -5.697,-5.693 V 5.693 A 5.695,5.695 0 0 1 53.215,0 H 221.91 a 5.695,5.695 0 0 1 5.697,5.693 v 201.798 z"
       id="path29"
       inkscape:connector-curvature="0"
       style="fill:url(#c)" />
    <linearGradient
       id="d"
       gradientUnits="userSpaceOnUse"
       x1="-83.796997"
       y1="508.58801"
       x2="-83.264999"
       y2="508.233"
       gradientTransform="matrix(166.5501,0,0,-186.0228,14123.22,94737.414)">
      <stop
         offset="0"
         stop-color="#c3b7a0"
         id="stop31" />
      <stop
         offset="1"
         stop-color="#c0b598"
         id="stop33" />
    </linearGradient>
    <path
       d="m 223.651,200.374 a 2.373,2.373 0 0 1 -2.374,2.372 H 53.847 a 2.373,2.373 0 0 1 -2.374,-2.372 V 12.811 a 2.373,2.373 0 0 1 2.374,-2.372 h 167.43 a 2.373,2.373 0 0 1 2.374,2.372 z"
       id="path36"
       inkscape:connector-curvature="0"
       style="fill:url(#d)" />
  </g>
  <linearGradient
     id="e"
     gradientUnits="userSpaceOnUse"
     x1="-83.636002"
     y1="508.14401"
     x2="-83.445"
     y2="507.18201"
     gradientTransform="matrix(146.037,0,0,-110.4513,12338.012,56151.36)">
    <stop
       offset="0"
       stop-color="#97876c"
       id="stop40" />
    <stop
       offset="1"
       stop-color="#dbd0c0"
       id="stop42" />
  </linearGradient>
  <path
     d="m 213.365,134.111 c 0,1.048 -0.85,1.898 -1.899,1.898 H 64.293 a 1.899,1.899 0 0 1 -1.899,-1.898 V 23.723 c 0,-1.048 0.85,-1.898 1.899,-1.898 h 147.173 c 1.049,0 1.899,0.85 1.899,1.898 z"
     id="path45"
     inkscape:connector-curvature="0"
     style="fill:url(#e)" />
  <path
     d="m 72.442,190.53 a 0.95,0.95 0 0 1 -0.95,0.948 h -9.97 a 0.95,0.95 0 0 1 -0.95,-0.949 v -9.963 a 0.95,0.95 0 0 1 0.95,-0.949 h 9.97 a 0.95,0.95 0 0 1 0.95,0.95 v 9.962 z"
     id="path47"
     inkscape:connector-curvature="0"
     style="opacity:0.6;fill:#8b8a90" />
  <path
     d="m 63.552,188.773 c 0.536,0.757 1.143,1.196 1.484,1.203 0.703,0.016 1.314,-0.459 1.818,-0.446 a 0.043,0.043 0 0 0 0.016,0.001 h 0.028 c 0.504,-0.014 1.115,0.462 1.82,0.445 0.341,-0.008 0.948,-0.446 1.483,-1.203 h -6.649"
     id="path49"
     inkscape:connector-curvature="0"
     style="fill:#009ddd" />
  <path
     d="m 62.9,187.58 c 0.182,0.447 0.41,0.85 0.651,1.192 h 6.65 c 0.241,-0.343 0.47,-0.745 0.65,-1.193 h -7.95"
     id="path51"
     inkscape:connector-curvature="0"
     style="fill:#944d85" />
  <path
     d="m 62.542,186.267 c 0.067,0.467 0.195,0.908 0.358,1.312 h 7.952 c 0.027,-0.067 0.053,-0.135 0.078,-0.204 -0.524,-0.164 -0.954,-0.573 -1.187,-1.109 h -7.2"
     id="path53"
     inkscape:connector-curvature="0"
     style="fill:#c45152" />
  <path
     d="m 62.963,183.643 c -0.21,0.336 -0.374,0.765 -0.44,1.312 h 7.068 a 2.032,2.032 0 0 1 0.82,-1.312 h -7.448"
     id="path55"
     inkscape:connector-curvature="0"
     style="fill:#f2bd2f" />
  <path
     d="m 62.522,184.955 a 5.136,5.136 0 0 0 0.02,1.313 h 7.202 a 2.285,2.285 0 0 1 -0.152,-1.313 h -7.07"
     id="path57"
     inkscape:connector-curvature="0"
     style="fill:#e19433" />
  <path
     d="m 66.883,182.873 h -0.012 c -0.48,-0.008 -1.365,-0.494 -1.993,-0.429 -0.313,0.032 -1.312,0.24 -1.914,1.198 h 7.448 a 2.08,2.08 0 0 1 0.235,-0.144 c -0.564,-0.888 -1.482,-1.025 -1.77,-1.055 -0.63,-0.064 -1.514,0.423 -1.994,0.43"
     id="path59"
     inkscape:connector-curvature="0"
     style="fill:#76b845" />
  <path
     d="m 68.581,180.177 c -0.049,-0.04 -0.94,0.123 -1.495,0.741 -0.553,0.618 -0.518,1.558 -0.47,1.6 0.05,0.04 0.955,-0.102 1.495,-0.742 0.54,-0.639 0.52,-1.559 0.47,-1.599"
     id="path61"
     inkscape:connector-curvature="0"
     style="fill:#76b845" />
  <g
     id="g74">
    <linearGradient
       id="f"
       gradientUnits="userSpaceOnUse"
       x1="67.098999"
       y1="78.917"
       x2="208.662"
       y2="78.917">
      <stop
         offset="0"
         id="stop63" />
      <stop
         offset=".5"
         stop-color="#626864"
         id="stop65" />
      <stop
         offset="1"
         id="stop67" />
    </linearGradient>
    <path
       d="m 137.88,25.711 c 26.951,0 60.748,2.584 60.748,2.584 5.989,0.544 9.487,4.579 9.487,10.392 0,0 0.589,26.837 0.544,35.753 -0.061,12.25 -0.968,48.91 -0.968,48.91 0,5.805 -3.753,7.743 -9.558,7.743 l -60.253,1.028 -60.253,-1.028 c -5.805,0 -9.558,-1.938 -9.558,-7.743 0,0 -0.907,-36.66 -0.968,-48.91 -0.045,-8.916 0.544,-35.753 0.544,-35.753 0,-5.813 3.498,-9.848 9.487,-10.392 0,0 33.798,-2.584 60.748,-2.584 z"
       id="path70"
       inkscape:connector-curvature="0"
       style="fill:url(#f)" />
    <path
       d="M 199.494,123.199 H 76.266 A 4.356,4.356 0 0 1 71.91,118.843 V 38.99 a 4.356,4.356 0 0 1 4.356,-4.356 h 123.228 a 4.356,4.356 0 0 1 4.356,4.356 v 79.853 a 4.356,4.356 0 0 1 -4.356,4.356 z"
       id="path72"
       inkscape:connector-curvature="0"
       style="fill:#bbeafe" />
  </g>
  <g
     id="g135">
    <g
       transform="translate(68.885,18.358)"
       id="g85">
      <linearGradient
         id="g"
         gradientUnits="userSpaceOnUse"
         x1="-145.78799"
         y1="468.28699"
         x2="-146.392"
         y2="469.24799"
         gradientTransform="matrix(18.8287,0,0,-12.3913,2878.231,5959.851)">
        <stop
           offset="0"
           stop-color="#dbd0c0"
           id="stop76" />
        <stop
           offset="1"
           stop-color="#c0b598"
           id="stop78" />
      </linearGradient>
      <path
         d="m 118.131,145.129 h 19.465 v 12.81 h -19.465 z"
         id="path81"
         inkscape:connector-curvature="0"
         style="fill:url(#g)" />
      <path
         d="m 118.131,145.129 h 19.465 v 12.81 h -19.465 z"
         id="path83"
         inkscape:connector-curvature="0"
         style="fill:#97876c" />
    </g>
    <path
       d="m 137.879,167.479 h 69.473 v 6.642 h -69.473 z"
       id="path87"
       inkscape:connector-curvature="0" />
    <linearGradient
       id="h"
       gradientUnits="userSpaceOnUse"
       x1="-82.778"
       y1="494.27899"
       x2="-82.662003"
       y2="492.64301"
       gradientTransform="matrix(78.7589,0,0,-17.2102,6688.9,8664.433)">
      <stop
         offset="0"
         stop-color="#c0b598"
         id="stop89" />
      <stop
         offset=".519"
         stop-color="#c1b69a"
         id="stop91" />
      <stop
         offset=".706"
         stop-color="#c5ba9f"
         id="stop93" />
      <stop
         offset=".839"
         stop-color="#cbc0a8"
         id="stop95" />
      <stop
         offset=".946"
         stop-color="#d4cab6"
         id="stop97" />
      <stop
         offset="1"
         stop-color="#dbd0c0"
         id="stop99" />
    </linearGradient>
    <path
       d="m 211.466,160.995 h -28.248 c -1.049,0 -1.899,0.85 -1.899,1.898 v 2.135 h -47.475 c -1.049,0 -1.899,0.85 -1.899,1.898 v 5.931 c 0,1.048 0.85,1.898 1.899,1.898 h 47.475 v 2.135 c 0,1.048 0.85,1.898 1.899,1.898 h 28.248 c 1.049,0 1.899,-0.85 1.899,-1.898 v -13.996 c 0,-1.049 -0.85,-1.899 -1.899,-1.899 z m -4.985,13.404 c 0,1.048 -0.85,1.898 -1.899,1.898 h -15.667 a 1.899,1.899 0 0 1 -1.899,-1.898 v -2.728 h -47.475 a 0.95,0.95 0 0 1 -0.95,-0.949 v -1.661 a 0.95,0.95 0 0 1 0.95,-0.949 h 47.475 v -2.728 c 0,-1.048 0.85,-1.898 1.899,-1.898 h 15.667 c 1.049,0 1.899,0.85 1.899,1.898 z"
       id="path102"
       inkscape:connector-curvature="0"
       style="fill:url(#h)" />
    <ellipse
       cx="209.963"
       cy="174.299"
       rx="0.51499999"
       ry="0.514"
       id="ellipse104"
       style="fill:#afaaa0" />
    <ellipse
       cx="209.963"
       cy="174.121"
       rx="0.51499999"
       ry="0.514"
       id="ellipse106" />
    <linearGradient
       id="i"
       gradientUnits="userSpaceOnUse"
       x1="135.743"
       y1="174.754"
       x2="135.743"
       y2="165.028">
      <stop
         offset="0"
         stop-color="#c6b799"
         id="stop108" />
      <stop
         offset=".5"
         stop-color="#aa9b83"
         id="stop110" />
      <stop
         offset="1"
         stop-color="#c6b799"
         id="stop112" />
    </linearGradient>
    <path
       d="m 139.541,168.112 a 0.95,0.95 0 0 0 -0.95,0.949 v 1.661 a 0.95,0.95 0 0 0 0.95,0.949 l -5.697,3.084 a 1.899,1.899 0 0 1 -1.899,-1.898 v -5.931 c 0,-1.048 0.85,-1.898 1.899,-1.898 z"
       id="path115"
       inkscape:connector-curvature="0"
       style="fill:url(#i)" />
    <linearGradient
       id="j"
       gradientUnits="userSpaceOnUse"
       x1="184.472"
       y1="164.36301"
       x2="185.60201"
       y2="161.94099">
      <stop
         offset="0"
         stop-color="#c6b799"
         id="stop117" />
      <stop
         offset=".456"
         stop-color="#aa9b83"
         id="stop119" />
      <stop
         offset="1"
         stop-color="#c6b799"
         id="stop121" />
    </linearGradient>
    <path
       d="m 188.916,163.486 c -1.049,0 -1.899,0.85 -1.899,1.898 l -5.697,-2.491 c 0,-1.048 0.85,-1.898 1.899,-1.898 z"
       id="path124"
       inkscape:connector-curvature="0"
       style="fill:url(#j)" />
    <linearGradient
       id="k"
       gradientUnits="userSpaceOnUse"
       x1="185.828"
       y1="178.07899"
       x2="184.186"
       y2="175.23399">
      <stop
         offset="0"
         stop-color="#c6b799"
         id="stop126" />
      <stop
         offset=".456"
         stop-color="#aa9b83"
         id="stop128" />
      <stop
         offset="1"
         stop-color="#c6b799"
         id="stop130" />
    </linearGradient>
    <path
       d="m 187.017,174.399 c 0,1.048 0.85,1.898 1.899,1.898 l -5.697,2.491 a 1.899,1.899 0 0 1 -1.899,-1.898 z"
       id="path133"
       inkscape:connector-curvature="0"
       style="fill:url(#k)" />
  </g>
  <g
     id="g399">
    <path
       d="M 275.76,261.39 H 0 l 8.002,-28.991 c 1.098,-3.454 2.949,-5.02 5.849,-5.02 H 262.35 c 2.596,0 4.767,2.363 4.92,5.308 z"
       id="path137"
       inkscape:connector-curvature="0"
       style="fill:#c0b598" />
    <path
       d="M 269.12,254.89 H 6.354 a 0.573,0.573 0 0 1 -0.549,-0.738 l 6.653,-22.095 c 0.958,-2.625 2.479,-3.26 4.339,-3.26 H 258.75 a 3.39,3.39 0 0 1 3.379,3.301 l 0.026,0.151 7.503,21.888 a 0.568,0.568 0 0 1 -0.538,0.753 z"
       stroke-miterlimit="10"
       id="path139"
       inkscape:connector-curvature="0"
       style="fill:#b7ae9e;stroke:#a5a097;stroke-width:0.75;stroke-miterlimit:10" />
    <g
       stroke-miterlimit="10"
       id="g193"
       style="fill:#c0b598;stroke:#a5a097;stroke-miterlimit:10">
      <g
         id="g143"
         style="stroke-width:0.5">
        <path
           d="M 78.604,224.702 H 67.573 v -1.164 a 0.43,0.43 0 0 1 0.43,-0.43 h 10.172 a 0.43,0.43 0 0 1 0.43,0.43 v 1.164 z m 0.906,8.188 -0.906,-8.188 H 67.573 l -0.906,8.188 z"
           id="path141"
           inkscape:connector-curvature="0" />
      </g>
      <g
         id="g147"
         style="stroke-width:0.523">
        <path
           d="M 45.145,224.702 H 33.094 v -1.145 c 0,-0.248 0.201,-0.449 0.449,-0.449 h 11.153 c 0.248,0 0.449,0.201 0.449,0.449 z m 0.99,8.188 -0.99,-8.188 H 33.094 l -0.99,8.188 z"
           id="path145"
           inkscape:connector-curvature="0" />
      </g>
      <g
         id="g151"
         style="stroke-width:0.5">
        <path
           d="M 92.792,224.702 H 81.76 v -1.164 a 0.43,0.43 0 0 1 0.43,-0.43 h 10.172 a 0.43,0.43 0 0 1 0.43,0.43 z m 0.906,8.188 -0.906,-8.188 H 81.76 l -0.906,8.188 z"
           id="path149"
           inkscape:connector-curvature="0" />
      </g>
      <g
         id="g155"
         style="stroke-width:0.5">
        <path
           d="M 108.01,224.702 H 96.979 v -1.164 a 0.43,0.43 0 0 1 0.43,-0.43 h 10.172 a 0.43,0.43 0 0 1 0.43,0.43 v 1.164 z m 0.907,8.188 -0.907,-8.188 H 96.979 l -0.906,8.188 z"
           id="path153"
           inkscape:connector-curvature="0" />
      </g>
      <g
         id="g159"
         style="stroke-width:0.5">
        <path
           d="m 122.323,224.702 h -11.031 v -1.164 a 0.43,0.43 0 0 1 0.43,-0.43 h 10.172 a 0.43,0.43 0 0 1 0.43,0.43 v 1.164 z m 0.906,8.188 -0.906,-8.188 h -11.031 l -0.907,8.188 z"
           id="path157"
           inkscape:connector-curvature="0" />
      </g>
      <g
         id="g163"
         style="stroke-width:0.5">
        <path
           d="m 137.666,224.702 h -11.031 v -1.164 a 0.43,0.43 0 0 1 0.43,-0.43 h 10.172 a 0.43,0.43 0 0 1 0.43,0.43 v 1.164 z m 0.907,8.188 -0.907,-8.188 h -11.031 l -0.906,8.188 z"
           id="path161"
           inkscape:connector-curvature="0" />
      </g>
      <g
         id="g167"
         style="stroke-width:0.5">
        <path
           d="m 152.656,224.702 h -11.031 v -1.164 a 0.43,0.43 0 0 1 0.43,-0.43 h 10.172 a 0.43,0.43 0 0 1 0.43,0.43 v 1.164 z m 0.906,8.188 -0.906,-8.188 h -11.031 l -0.906,8.188 z"
           id="path165"
           inkscape:connector-curvature="0" />
      </g>
      <g
         id="g171"
         style="stroke-width:0.5">
        <path
           d="m 167.239,224.702 h -11.031 v -1.164 a 0.43,0.43 0 0 1 0.43,-0.43 h 10.172 a 0.43,0.43 0 0 1 0.43,0.43 v 1.164 z m 0.907,8.188 -0.907,-8.188 h -11.031 l -0.906,8.188 z"
           id="path169"
           inkscape:connector-curvature="0" />
      </g>
      <g
         id="g175"
         style="stroke-width:0.5">
        <path
           d="m 181.489,224.702 h -11.031 v -1.164 a 0.43,0.43 0 0 1 0.43,-0.43 h 10.172 a 0.43,0.43 0 0 1 0.43,0.43 v 1.164 z m 0.907,8.188 -0.907,-8.188 h -11.031 l -0.906,8.188 z"
           id="path173"
           inkscape:connector-curvature="0" />
      </g>
      <g
         id="g179"
         style="stroke-width:0.5">
        <path
           d="m 196.823,224.702 h -11.031 v -1.164 a 0.43,0.43 0 0 1 0.43,-0.43 h 10.172 a 0.43,0.43 0 0 1 0.43,0.43 v 1.164 z m 0.906,8.188 -0.906,-8.188 h -11.031 l -0.907,8.188 z"
           id="path177"
           inkscape:connector-curvature="0" />
      </g>
      <g
         id="g183"
         style="stroke-width:0.5">
        <path
           d="M 211.521,224.702 H 200.49 v -1.164 a 0.43,0.43 0 0 1 0.43,-0.43 h 10.172 a 0.43,0.43 0 0 1 0.43,0.43 v 1.164 z m 0.906,8.188 -0.906,-8.188 H 200.49 l -0.907,8.188 z"
           id="path181"
           inkscape:connector-curvature="0" />
      </g>
      <g
         id="g187"
         style="stroke-width:0.5">
        <path
           d="m 226.875,224.702 h -11.031 v -1.164 a 0.43,0.43 0 0 1 0.43,-0.43 h 10.172 a 0.43,0.43 0 0 1 0.43,0.43 v 1.164 z m 0.906,8.188 -0.906,-8.188 h -11.031 l -0.907,8.188 z"
           id="path185"
           inkscape:connector-curvature="0" />
      </g>
      <g
         id="g191"
         style="stroke-width:0.5">
        <path
           d="m 241.625,224.702 h -11.031 v -1.164 a 0.43,0.43 0 0 1 0.43,-0.43 h 10.172 a 0.43,0.43 0 0 1 0.43,0.43 v 1.164 z m 0.906,8.188 -0.906,-8.188 h -11.031 l -0.907,8.188 z"
           id="path189"
           inkscape:connector-curvature="0" />
      </g>
    </g>
    <g
       stroke-miterlimit="10"
       id="g251"
       style="fill:#c0b598;stroke:#a5a097;stroke-miterlimit:10">
      <g
         id="g197"
         style="stroke-width:0.5">
        <path
           d="M 65.604,231.286 H 54.573 v -1.164 a 0.43,0.43 0 0 1 0.43,-0.43 h 10.172 a 0.43,0.43 0 0 1 0.43,0.43 v 1.164 z m 0.906,8.187 -0.906,-8.187 H 54.573 l -0.906,8.187 z"
           id="path195"
           inkscape:connector-curvature="0" />
      </g>
      <g
         id="g201"
         style="stroke-width:0.5">
        <path
           d="M 79.792,231.286 H 68.76 v -1.164 a 0.43,0.43 0 0 1 0.43,-0.43 h 10.172 a 0.43,0.43 0 0 1 0.43,0.43 z m 0.906,8.187 -0.906,-8.187 H 68.76 l -0.906,8.187 z"
           id="path199"
           inkscape:connector-curvature="0" />
      </g>
      <g
         id="g205"
         style="stroke-width:0.5">
        <path
           d="M 95.01,231.286 H 83.979 v -1.164 a 0.43,0.43 0 0 1 0.43,-0.43 h 10.172 a 0.43,0.43 0 0 1 0.43,0.43 v 1.164 z m 0.907,8.187 -0.907,-8.187 H 83.979 l -0.906,8.187 z"
           id="path203"
           inkscape:connector-curvature="0" />
      </g>
      <g
         id="g209"
         style="stroke-width:0.5">
        <path
           d="M 109.323,231.286 H 98.292 v -1.164 a 0.43,0.43 0 0 1 0.43,-0.43 h 10.172 a 0.43,0.43 0 0 1 0.43,0.43 v 1.164 z m 0.906,8.187 -0.906,-8.187 H 98.292 l -0.907,8.187 z"
           id="path207"
           inkscape:connector-curvature="0" />
      </g>
      <g
         id="g213"
         style="stroke-width:0.5">
        <path
           d="m 124.666,231.286 h -11.031 v -1.164 a 0.43,0.43 0 0 1 0.43,-0.43 h 10.172 a 0.43,0.43 0 0 1 0.43,0.43 v 1.164 z m 0.907,8.187 -0.907,-8.187 h -11.031 l -0.906,8.187 z"
           id="path211"
           inkscape:connector-curvature="0" />
      </g>
      <g
         id="g217"
         style="stroke-width:0.5">
        <path
           d="m 139.656,231.286 h -11.031 v -1.164 a 0.43,0.43 0 0 1 0.43,-0.43 h 10.172 a 0.43,0.43 0 0 1 0.43,0.43 v 1.164 z m 0.906,8.187 -0.906,-8.187 h -11.031 l -0.906,8.187 z"
           id="path215"
           inkscape:connector-curvature="0" />
      </g>
      <g
         id="g221"
         style="stroke-width:0.5">
        <path
           d="m 154.239,231.286 h -11.031 v -1.164 a 0.43,0.43 0 0 1 0.43,-0.43 h 10.172 a 0.43,0.43 0 0 1 0.43,0.43 v 1.164 z m 0.907,8.187 -0.907,-8.187 h -11.031 l -0.906,8.187 z"
           id="path219"
           inkscape:connector-curvature="0" />
      </g>
      <g
         id="g225"
         style="stroke-width:0.5">
        <path
           d="m 168.489,231.286 h -11.031 v -1.164 a 0.43,0.43 0 0 1 0.43,-0.43 h 10.172 a 0.43,0.43 0 0 1 0.43,0.43 v 1.164 z m 0.907,8.187 -0.907,-8.187 h -11.031 l -0.906,8.187 z"
           id="path223"
           inkscape:connector-curvature="0" />
      </g>
      <g
         id="g229"
         style="stroke-width:0.5">
        <path
           d="m 183.823,231.286 h -11.031 v -1.164 a 0.43,0.43 0 0 1 0.43,-0.43 h 10.172 a 0.43,0.43 0 0 1 0.43,0.43 v 1.164 z m 0.906,8.187 -0.906,-8.187 h -11.031 l -0.907,8.187 z"
           id="path227"
           inkscape:connector-curvature="0" />
      </g>
      <g
         id="g233"
         style="stroke-width:0.5">
        <path
           d="M 198.521,231.286 H 187.49 v -1.164 a 0.43,0.43 0 0 1 0.43,-0.43 h 10.172 a 0.43,0.43 0 0 1 0.43,0.43 v 1.164 z m 0.906,8.187 -0.906,-8.187 H 187.49 l -0.907,8.187 z"
           id="path231"
           inkscape:connector-curvature="0" />
      </g>
      <g
         id="g237"
         style="stroke-width:0.5">
        <path
           d="m 213.875,231.286 h -11.031 v -1.164 a 0.43,0.43 0 0 1 0.43,-0.43 h 10.172 a 0.43,0.43 0 0 1 0.43,0.43 v 1.164 z m 0.906,8.187 -0.906,-8.187 h -11.031 l -0.907,8.187 z"
           id="path235"
           inkscape:connector-curvature="0" />
      </g>
      <g
         id="g241"
         style="stroke-width:0.5">
        <path
           d="m 228.625,231.286 h -11.031 v -1.164 a 0.43,0.43 0 0 1 0.43,-0.43 h 10.172 a 0.43,0.43 0 0 1 0.43,0.43 v 1.164 z m 0.906,8.187 -0.906,-8.187 h -11.031 l -0.907,8.187 z"
           id="path239"
           inkscape:connector-curvature="0" />
      </g>
      <g
         id="g245"
         style="stroke-width:0.5">
        <path
           d="m 243.417,231.286 h -11.031 v -1.164 a 0.43,0.43 0 0 1 0.43,-0.43 h 10.172 a 0.43,0.43 0 0 1 0.43,0.43 v 1.164 z m 0.906,8.187 -0.906,-8.187 h -11.032 l -0.906,8.187 z"
           id="path243"
           inkscape:connector-curvature="0" />
      </g>
      <g
         id="g249"
         style="stroke-width:0.523">
        <path
           d="M 50.666,231.286 H 31.667 v -1.145 c 0,-0.248 0.201,-0.449 0.449,-0.449 h 18.101 c 0.248,0 0.449,0.201 0.449,0.449 z m 0.99,8.187 -0.99,-8.187 H 31.667 l -0.99,8.187 z"
           id="path247"
           inkscape:connector-curvature="0" />
      </g>
    </g>
    <g
       stroke-miterlimit="10"
       id="g309"
       style="fill:#c0b598;stroke:#a5a097;stroke-miterlimit:10">
      <g
         id="g255"
         style="stroke-width:0.50199997">
        <path
           d="M 67.302,235.369 H 56.185 v -1.162 c 0,-0.238 0.193,-0.431 0.431,-0.431 H 66.87 c 0.238,0 0.431,0.193 0.431,0.431 v 1.162 z m 0.913,8.187 -0.913,-8.187 H 56.185 l -0.913,8.187 z"
           id="path253"
           inkscape:connector-curvature="0" />
      </g>
      <g
         id="g259"
         style="stroke-width:0.50199997">
        <path
           d="M 81.6,235.369 H 70.483 v -1.162 c 0,-0.238 0.193,-0.431 0.431,-0.431 h 10.254 c 0.238,0 0.431,0.193 0.431,0.431 v 1.162 z m 0.913,8.187 -0.913,-8.187 H 70.483 l -0.913,8.187 z"
           id="path257"
           inkscape:connector-curvature="0" />
      </g>
      <g
         id="g263"
         style="stroke-width:0.50199997">
        <path
           d="M 96.936,235.369 H 85.819 v -1.162 c 0,-0.238 0.193,-0.431 0.431,-0.431 h 10.254 c 0.238,0 0.431,0.193 0.431,0.431 v 1.162 z m 0.914,8.187 -0.914,-8.187 H 85.819 l -0.913,8.187 z"
           id="path261"
           inkscape:connector-curvature="0" />
      </g>
      <g
         id="g267"
         style="stroke-width:0.50199997">
        <path
           d="m 111.36,235.369 h -11.117 v -1.162 c 0,-0.238 0.193,-0.431 0.431,-0.431 h 10.254 c 0.238,0 0.431,0.193 0.431,0.431 v 1.162 z m 0.913,8.187 -0.913,-8.187 h -11.117 l -0.913,8.187 z"
           id="path265"
           inkscape:connector-curvature="0" />
      </g>
      <g
         id="g271"
         style="stroke-width:0.50199997">
        <path
           d="m 126.822,235.369 h -11.117 v -1.162 c 0,-0.238 0.193,-0.431 0.431,-0.431 h 10.254 c 0.238,0 0.431,0.193 0.431,0.431 v 1.162 z m 0.914,8.187 -0.914,-8.187 h -11.116 l -0.914,8.187 z"
           id="path269"
           inkscape:connector-curvature="0" />
      </g>
      <g
         id="g275"
         style="stroke-width:0.50199997">
        <path
           d="m 141.928,235.369 h -11.117 v -1.162 c 0,-0.238 0.193,-0.431 0.431,-0.431 h 10.254 c 0.238,0 0.431,0.193 0.431,0.431 v 1.162 z m 0.913,8.187 -0.913,-8.187 h -11.117 l -0.913,8.187 z"
           id="path273"
           inkscape:connector-curvature="0" />
      </g>
      <g
         id="g279"
         style="stroke-width:0.50199997">
        <path
           d="m 156.625,235.369 h -11.117 v -1.162 c 0,-0.238 0.193,-0.431 0.431,-0.431 h 10.254 c 0.238,0 0.431,0.193 0.431,0.431 v 1.162 z m 0.913,8.187 -0.913,-8.187 h -11.117 l -0.913,8.187 z"
           id="path277"
           inkscape:connector-curvature="0" />
      </g>
      <g
         id="g283"
         style="stroke-width:0.50199997">
        <path
           d="m 170.985,235.369 h -11.117 v -1.162 c 0,-0.238 0.193,-0.431 0.431,-0.431 h 10.254 c 0.238,0 0.431,0.193 0.431,0.431 v 1.162 z m 0.913,8.187 -0.913,-8.187 h -11.117 l -0.913,8.187 z"
           id="path281"
           inkscape:connector-curvature="0" />
      </g>
      <g
         id="g287"
         style="stroke-width:0.50199997">
        <path
           d="M 186.437,235.369 H 175.32 v -1.162 c 0,-0.238 0.193,-0.431 0.431,-0.431 h 10.254 c 0.238,0 0.431,0.193 0.431,0.431 v 1.162 z m 0.914,8.187 -0.914,-8.187 h -11.116 l -0.914,8.187 z"
           id="path285"
           inkscape:connector-curvature="0" />
      </g>
      <g
         id="g291"
         style="stroke-width:0.50199997">
        <path
           d="m 201.249,235.369 h -11.117 v -1.162 c 0,-0.238 0.193,-0.431 0.431,-0.431 h 10.254 c 0.238,0 0.431,0.193 0.431,0.431 v 1.162 z m 0.914,8.187 -0.914,-8.187 h -11.116 l -0.914,8.187 z"
           id="path289"
           inkscape:connector-curvature="0" />
      </g>
      <g
         id="g295"
         style="stroke-width:0.50199997">
        <path
           d="m 216.722,235.369 h -11.117 v -1.162 c 0,-0.238 0.193,-0.431 0.431,-0.431 h 10.254 c 0.238,0 0.431,0.193 0.431,0.431 v 1.162 z m 0.914,8.187 -0.914,-8.187 h -11.116 l -0.914,8.187 z"
           id="path293"
           inkscape:connector-curvature="0" />
      </g>
      <g
         id="g301"
         style="stroke-width:0.52499998">
        <path
           d="M 52.248,235.369 H 30.226 v -1.143 c 0,-0.249 0.202,-0.451 0.451,-0.451 h 21.12 c 0.249,0 0.451,0.202 0.451,0.451 z"
           id="path297"
           inkscape:connector-curvature="0" />
        <path
           d="m 53.246,243.556 -0.998,-8.188 H 30.226 l -0.998,8.188 z"
           id="path299"
           inkscape:connector-curvature="0" />
      </g>
      <g
         id="g307"
         style="stroke-width:0.52499998">
        <path
           d="m 245.112,235.369 h -24.49 v -1.143 c 0,-0.249 0.202,-0.451 0.451,-0.451 h 23.588 c 0.249,0 0.451,0.202 0.451,0.451 z"
           id="path303"
           inkscape:connector-curvature="0" />
        <path
           d="m 246.11,243.556 -0.998,-8.188 h -24.49 l -0.998,8.188 z"
           id="path305"
           inkscape:connector-curvature="0" />
      </g>
    </g>
    <g
       stroke-miterlimit="10"
       id="g313"
       style="fill:#c0b598;stroke:#a5a097;stroke-width:0.495;stroke-miterlimit:10">
      <path
         d="M 74.855,238.244 H 62.262 v -1.169 c 0,-0.235 0.19,-0.425 0.425,-0.425 H 74.43 c 0.235,0 0.425,0.19 0.425,0.425 z m 0.887,8.187 -0.887,-8.187 H 62.262 l -0.887,8.187 z"
         id="path311"
         inkscape:connector-curvature="0" />
    </g>
    <g
       stroke-miterlimit="10"
       id="g317"
       style="fill:#c0b598;stroke:#a5a097;stroke-width:0.495;stroke-miterlimit:10">
      <path
         d="M 90.167,238.244 H 77.574 v -1.169 c 0,-0.235 0.19,-0.425 0.425,-0.425 h 11.743 c 0.235,0 0.425,0.19 0.425,0.425 z m 0.887,8.187 -0.887,-8.187 H 77.574 l -0.886,8.187 z"
         id="path315"
         inkscape:connector-curvature="0" />
    </g>
    <g
       stroke-miterlimit="10"
       id="g321"
       style="fill:#c0b598;stroke:#a5a097;stroke-width:0.495;stroke-miterlimit:10">
      <path
         d="M 105.48,238.244 H 92.887 v -1.169 c 0,-0.235 0.19,-0.425 0.425,-0.425 h 11.743 c 0.235,0 0.425,0.19 0.425,0.425 z m 0.887,8.187 -0.887,-8.187 H 92.887 L 92,246.431 Z"
         id="path319"
         inkscape:connector-curvature="0" />
    </g>
    <g
       stroke-miterlimit="10"
       id="g325"
       style="fill:#c0b598;stroke:#a5a097;stroke-width:0.495;stroke-miterlimit:10">
      <path
         d="m 120.792,238.244 h -12.593 v -1.169 c 0,-0.235 0.19,-0.425 0.425,-0.425 h 11.743 c 0.235,0 0.425,0.19 0.425,0.425 z m 0.887,8.187 -0.887,-8.187 h -12.593 l -0.887,8.187 z"
         id="path323"
         inkscape:connector-curvature="0" />
    </g>
    <g
       stroke-miterlimit="10"
       id="g329"
       style="fill:#c0b598;stroke:#a5a097;stroke-width:0.495;stroke-miterlimit:10">
      <path
         d="m 136.105,238.244 h -12.593 v -1.169 c 0,-0.235 0.19,-0.425 0.425,-0.425 h 11.743 c 0.235,0 0.425,0.19 0.425,0.425 z m 0.887,8.187 -0.887,-8.187 h -12.593 l -0.887,8.187 z"
         id="path327"
         inkscape:connector-curvature="0" />
    </g>
    <g
       stroke-miterlimit="10"
       id="g333"
       style="fill:#c0b598;stroke:#a5a097;stroke-width:0.495;stroke-miterlimit:10">
      <path
         d="m 151.417,238.244 h -12.593 v -1.169 c 0,-0.235 0.19,-0.425 0.425,-0.425 h 11.743 c 0.235,0 0.425,0.19 0.425,0.425 z m 0.887,8.187 -0.887,-8.187 h -12.593 l -0.887,8.187 z"
         id="path331"
         inkscape:connector-curvature="0" />
    </g>
    <g
       stroke-miterlimit="10"
       id="g337"
       style="fill:#c0b598;stroke:#a5a097;stroke-width:0.495;stroke-miterlimit:10">
      <path
         d="m 167.021,238.244 h -12.593 v -1.169 c 0,-0.235 0.19,-0.425 0.425,-0.425 h 11.743 c 0.235,0 0.425,0.19 0.425,0.425 z m 0.887,8.187 -0.887,-8.187 h -12.593 l -0.886,8.187 z"
         id="path335"
         inkscape:connector-curvature="0" />
    </g>
    <g
       stroke-miterlimit="10"
       id="g341"
       style="fill:#c0b598;stroke:#a5a097;stroke-width:0.495;stroke-miterlimit:10">
      <path
         d="m 182.5,238.244 h -12.593 v -1.169 c 0,-0.235 0.19,-0.425 0.425,-0.425 h 11.743 c 0.235,0 0.425,0.19 0.425,0.425 z m 0.887,8.187 -0.887,-8.187 h -12.592 l -0.887,8.187 z"
         id="path339"
         inkscape:connector-curvature="0" />
    </g>
    <g
       stroke-miterlimit="10"
       id="g345"
       style="fill:#c0b598;stroke:#a5a097;stroke-width:0.495;stroke-miterlimit:10">
      <path
         d="m 198.209,238.244 h -12.593 v -1.169 c 0,-0.235 0.19,-0.425 0.425,-0.425 h 11.743 c 0.235,0 0.425,0.19 0.425,0.425 z m 0.887,8.187 -0.887,-8.187 h -12.593 l -0.887,8.187 z"
         id="path343"
         inkscape:connector-curvature="0" />
    </g>
    <g
       stroke-miterlimit="10"
       id="g349"
       style="fill:#c0b598;stroke:#a5a097;stroke-width:0.495;stroke-miterlimit:10">
      <path
         d="m 214.05,238.244 h -12.593 v -1.169 c 0,-0.235 0.19,-0.425 0.425,-0.425 h 11.743 c 0.235,0 0.425,0.19 0.425,0.425 z m 0.887,8.187 -0.887,-8.187 h -12.592 l -0.887,8.187 z"
         id="path347"
         inkscape:connector-curvature="0" />
    </g>
    <g
       stroke-miterlimit="10"
       id="g353"
       style="fill:#c0b598;stroke:#a5a097;stroke-width:0.495;stroke-miterlimit:10">
      <path
         d="m 245.879,238.244 h -29.066 v -1.169 c 0,-0.235 0.19,-0.425 0.425,-0.425 h 28.216 c 0.235,0 0.425,0.19 0.425,0.425 z m 0.887,8.187 -0.887,-8.187 h -29.066 l -0.887,8.187 z"
         id="path351"
         inkscape:connector-curvature="0" />
    </g>
    <g
       stroke-miterlimit="10"
       id="g359"
       style="fill:#c0b598;stroke:#a5a097;stroke-width:0.52499998;stroke-miterlimit:10">
      <path
         d="M 58.544,238.244 H 30.156 v -1.143 c 0,-0.249 0.202,-0.451 0.451,-0.451 h 27.487 c 0.249,0 0.451,0.202 0.451,0.451 v 1.143 z"
         id="path355"
         inkscape:connector-curvature="0" />
      <path
         d="m 59.542,246.431 -0.998,-8.188 H 30.156 l -0.998,8.188 z"
         id="path357"
         inkscape:connector-curvature="0" />
    </g>
    <g
       id="g365">
      <path
         d="M 54.479,242.951 H 42.825 v -1.294 c 0,-0.228 0.185,-0.413 0.413,-0.413 h 11.991 c 0.228,0 0.413,0.185 0.413,0.413 z m 1.354,8.772 -1.354,-8.772 H 42.825 l -0.783,8.772 z"
         stroke-miterlimit="10"
         id="path361"
         inkscape:connector-curvature="0"
         style="fill:#c0b598;stroke:#a5a097;stroke-width:0.48100001;stroke-miterlimit:10" />
      <path
         d="m 55.852,251.653 1.252,-4.742 -1.462,-5.253 -1.163,1.294 1.343,8.7 c 0.003,0.015 0.026,0.017 0.03,0.001 z"
         stroke-miterlimit="10"
         id="path363"
         inkscape:connector-curvature="0"
         style="fill:#c0b598;stroke:#a5a097;stroke-width:0.48100001;stroke-miterlimit:10" />
    </g>
    <g
       id="g371">
      <path
         d="M 77.417,242.951 H 59.762 v -1.294 c 0,-0.228 0.185,-0.413 0.413,-0.413 h 17.991 c 0.228,0 0.413,0.185 0.413,0.413 z m 1.354,8.772 -1.354,-8.772 H 59.762 l -0.783,8.772 z"
         stroke-miterlimit="10"
         id="path367"
         inkscape:connector-curvature="0"
         style="fill:#c0b598;stroke:#a5a097;stroke-width:0.48100001;stroke-miterlimit:10" />
      <path
         d="m 78.789,251.653 1.252,-4.742 -1.462,-5.253 -1.163,1.294 1.343,8.7 c 0.003,0.015 0.026,0.017 0.03,0.001 z"
         stroke-miterlimit="10"
         id="path369"
         inkscape:connector-curvature="0"
         style="fill:#c0b598;stroke:#a5a097;stroke-width:0.48100001;stroke-miterlimit:10" />
    </g>
    <g
       id="g377">
      <path
         d="m 221.073,242.951 h 11.654 v -1.294 a 0.413,0.413 0 0 0 -0.413,-0.413 h -11.991 a 0.413,0.413 0 0 0 -0.413,0.413 z m -1.354,8.772 1.354,-8.772 h 11.654 l 0.783,8.772 z"
         stroke-miterlimit="10"
         id="path373"
         inkscape:connector-curvature="0"
         style="fill:#c0b598;stroke:#a5a097;stroke-width:0.48100001;stroke-miterlimit:10" />
      <path
         d="m 219.7,251.653 -1.252,-4.742 1.462,-5.253 1.163,1.294 -1.343,8.7 c -0.003,0.015 -0.026,0.017 -0.03,0.001 z"
         stroke-miterlimit="10"
         id="path375"
         inkscape:connector-curvature="0"
         style="fill:#c0b598;stroke:#a5a097;stroke-width:0.48100001;stroke-miterlimit:10" />
    </g>
    <g
       id="g383">
      <path
         d="m 198.135,242.951 h 17.654 v -1.294 a 0.413,0.413 0 0 0 -0.413,-0.413 h -17.991 a 0.413,0.413 0 0 0 -0.413,0.413 z m -1.354,8.772 1.354,-8.772 h 17.655 l 0.783,8.772 z"
         stroke-miterlimit="10"
         id="path379"
         inkscape:connector-curvature="0"
         style="fill:#c0b598;stroke:#a5a097;stroke-width:0.48100001;stroke-miterlimit:10" />
      <path
         d="m 196.763,251.653 -1.252,-4.742 1.462,-5.253 1.163,1.294 -1.343,8.7 c -0.003,0.015 -0.026,0.017 -0.03,0.001 z"
         stroke-miterlimit="10"
         id="path381"
         inkscape:connector-curvature="0"
         style="fill:#c0b598;stroke:#a5a097;stroke-width:0.48100001;stroke-miterlimit:10" />
    </g>
    <g
       id="g391">
      <path
         stroke-miterlimit="10"
         d="m 193.771,251.723 -1.354,-8.772 H 83.135 l -1.343,8.7 z"
         id="path385"
         inkscape:connector-curvature="0"
         style="fill:#c0b598;stroke:#a5a097;stroke-width:0.48100001;stroke-miterlimit:10" />
      <path
         d="m 193.789,251.653 1.252,-4.742 -1.462,-5.253 -1.163,1.294 1.343,8.7 c 0.003,0.015 0.026,0.017 0.03,0.001 z m -71.572,-8.702 H 83.135 l -1.163,-1.294 c 0,-0.228 0.185,-0.413 0.413,-0.413 h 110.781 c 0.228,0 0.413,0.185 0.413,0.413 l -1.163,1.294 z"
         stroke-miterlimit="10"
         id="path387"
         inkscape:connector-curvature="0"
         style="fill:#c0b598;stroke:#a5a097;stroke-width:0.48100001;stroke-miterlimit:10" />
      <path
         d="m 81.763,251.653 -1.252,-4.742 1.462,-5.253 1.163,1.294 -1.343,8.7 c -0.003,0.015 -0.026,0.017 -0.03,0.001 z"
         stroke-miterlimit="10"
         id="path389"
         inkscape:connector-curvature="0"
         style="fill:#c0b598;stroke:#a5a097;stroke-width:0.48100001;stroke-miterlimit:10" />
    </g>
    <path
       d="M 274.339,275.64 H 1.422 A 1.422,1.422 0 0 1 0,274.218 V 261.39 h 275.76 v 12.828 c 0,0.785 -0.636,1.422 -1.421,1.422 z"
       id="path393"
       inkscape:connector-curvature="0"
       style="fill:#ccc4b2" />
    <path
       d="m 0.621,267.609 c 1.15,1.375 2.113,1.211 4.498,1.211 h 265.87 c 2.385,0 3.348,0.165 4.498,-1.211"
       stroke-miterlimit="10"
       id="path395"
       inkscape:connector-curvature="0"
       style="fill:none;stroke:#afaaa2;stroke-miterlimit:10" />
    <path
       d="M 258.125,275.64 H 17.417 l 3.252,3.252 a 0.846,0.846 0 0 0 0.598,0.248 h 232.888 a 0.853,0.853 0 0 0 0.593,-0.24 z"
       id="path397"
       inkscape:connector-curvature="0"
       style="fill:#969289" />
  </g>
  <g
     id="g449">
    <path
       d="M 358.903,228.832 V 213.25 h -65.89 v 65.89 h 25.744 v -0.188 l 0.141,-0.329 0.259,-0.259 0.353,-0.141 0.188,-0.024 0.188,0.024 0.329,0.141 0.259,0.259 0.141,0.329 0.023,0.188 h 10.66 l 0.023,-0.188 0.141,-0.329 0.235,-0.259 0.353,-0.141 0.188,-0.024 0.188,0.024 0.353,0.141 0.235,0.259 0.141,0.329 0.024,0.188 H 358.9 v -47.162 h -1.561 v -3.146 z m -32.933,23.646 a 6.271,6.271 0 1 1 0,-12.542 6.271,6.271 0 0 1 0,12.542 z"
       id="path401"
       inkscape:connector-curvature="0"
       style="clip-rule:evenodd;fill-rule:evenodd" />
    <path
       d="m 336.215,250.195 v 0.189 l -0.142,0.353 -0.259,0.258 -0.353,0.142 h -0.376 l -0.33,-0.142 -0.258,-0.258 -0.142,-0.353 -0.023,-0.189 0.023,-0.188 0.142,-0.329 0.258,-0.259 0.33,-0.141 0.188,-0.024 0.188,0.024 0.353,0.141 0.259,0.259 0.142,0.329 z m -10.257,6.989 h 0.33 l 0.612,0.142 0.823,0.376 0.871,0.847 0.377,0.824 0.117,0.612 0.024,0.329 v 12.543 l -0.024,0.329 -0.117,0.612 -0.377,0.847 -0.871,0.847 -0.823,0.377 -0.612,0.118 -0.33,0.023 -0.306,-0.023 -0.611,-0.118 -0.847,-0.377 -0.848,-0.847 -0.376,-0.847 -0.141,-0.612 v -13.201 l 0.141,-0.612 0.376,-0.824 0.848,-0.847 0.847,-0.376 0.611,-0.142 z"
       id="path403"
       inkscape:connector-curvature="0"
       style="fill:#3c3c3c" />
    <path
       d="m 332.241,246.195 -0.024,0.659 -0.259,1.224 -0.471,1.13 -0.682,0.988 -0.847,0.847 -0.988,0.682 -1.13,0.471 -1.224,0.259 -0.659,0.024 -0.635,-0.024 -1.224,-0.259 -1.13,-0.471 -1.012,-0.682 -0.847,-0.847 -0.682,-0.988 -0.471,-1.13 -0.235,-1.224 -0.024,-0.659 0.024,-0.635 0.235,-1.224 0.471,-1.13 0.682,-1.012 0.847,-0.847 1.012,-0.682 1.13,-0.471 1.224,-0.235 0.635,-0.024 0.659,0.024 1.224,0.235 1.13,0.471 0.988,0.682 0.847,0.847 0.682,1.012 0.471,1.13 0.259,1.224 z m 1.577,0 -0.024,0.824 -0.329,1.53 -0.588,1.388 -0.847,1.271 -1.059,1.059 -1.271,0.847 -1.388,0.588 -1.53,0.306 -0.824,0.047 -0.8,-0.047 -1.53,-0.306 -1.412,-0.588 -1.247,-0.847 -1.059,-1.059 -0.847,-1.271 -0.612,-1.388 -0.306,-1.53 -0.024,-0.824 0.024,-0.8 0.306,-1.53 0.612,-1.412 0.847,-1.247 1.059,-1.059 1.247,-0.847 1.412,-0.612 1.53,-0.306 0.8,-0.024 0.824,0.024 1.53,0.306 1.388,0.612 1.271,0.847 1.059,1.059 0.847,1.247 0.588,1.412 0.329,1.53 z"
       id="path405"
       inkscape:connector-curvature="0"
       style="clip-rule:evenodd;fill:#3c3c3c;fill-rule:evenodd" />
    <path
       d="m 298.357,219.887 h 53.683 v 2.574 h -53.683 z m 53.683,0 h -53.683 v -1.79 c 0,-0.433 0.351,-0.784 0.784,-0.784 h 52.114 c 0.433,0 0.784,0.351 0.784,0.784 v 1.79 z m -53.683,2.574 h 53.683 v 2.574 h -53.683 z m 52.898,5.583 h -52.114 a 0.784,0.784 0 0 1 -0.784,-0.784 v -2.225 h 53.683 v 2.225 a 0.784,0.784 0 0 1 -0.785,0.784 z"
       id="path407"
       inkscape:connector-curvature="0"
       style="fill:#ffffff" />
    <g
       stroke-miterlimit="10"
       id="g415"
       style="fill:none;stroke:#231f20;stroke-width:0.123;stroke-miterlimit:10">
      <path
         d="m 315.344,219.887 h 0.163"
         id="path409"
         inkscape:connector-curvature="0" />
      <path
         d="m 315.828,219.887 h 35.889"
         id="path411"
         inkscape:connector-curvature="0"
         style="stroke-dasharray:0.3219, 0.3219" />
      <path
         d="m 351.878,219.887 h 0.162"
         id="path413"
         inkscape:connector-curvature="0" />
    </g>
    <g
       stroke-miterlimit="10"
       id="g423"
       style="fill:none;stroke:#231f20;stroke-width:0.123;stroke-miterlimit:10">
      <path
         d="m 315.344,222.461 h 0.163"
         id="path417"
         inkscape:connector-curvature="0" />
      <path
         d="m 315.828,222.461 h 35.889"
         id="path419"
         inkscape:connector-curvature="0"
         style="stroke-dasharray:0.3219, 0.3219" />
      <path
         d="m 351.878,222.461 h 0.162"
         id="path421"
         inkscape:connector-curvature="0" />
    </g>
    <g
       stroke-miterlimit="10"
       id="g431"
       style="fill:none;stroke:#231f20;stroke-width:0.123;stroke-miterlimit:10">
      <path
         d="m 315.344,225.035 h 0.163"
         id="path425"
         inkscape:connector-curvature="0" />
      <path
         d="m 315.828,225.035 h 35.889"
         id="path427"
         inkscape:connector-curvature="0"
         style="stroke-dasharray:0.3219, 0.3219" />
      <path
         d="m 351.878,225.035 h 0.162"
         id="path429"
         inkscape:connector-curvature="0" />
    </g>
    <g
       id="g447">
      <path
         d="m 306.16,221.827 c 0.21,0.297 0.449,0.469 0.583,0.472 0.276,0.006 0.515,-0.18 0.713,-0.175 h 0.016 c 0.198,-0.005 0.437,0.18 0.713,0.175 0.134,-0.003 0.372,-0.175 0.582,-0.472 h -2.606"
         id="path433"
         inkscape:connector-curvature="0"
         style="fill:#009ddd" />
      <path
         d="m 305.905,221.359 c 0.07,0.176 0.16,0.334 0.255,0.468 h 2.608 c 0.095,-0.134 0.184,-0.292 0.255,-0.468 h -3.118"
         id="path435"
         inkscape:connector-curvature="0"
         style="fill:#944d85" />
      <path
         d="m 305.765,220.845 c 0.026,0.183 0.076,0.356 0.14,0.515 h 3.12 l 0.03,-0.08 a 0.767,0.767 0 0 1 -0.464,-0.435 h -2.826"
         id="path437"
         inkscape:connector-curvature="0"
         style="fill:#c45152" />
      <path
         d="m 305.93,219.815 a 1.23,1.23 0 0 0 -0.173,0.515 h 2.772 a 0.8,0.8 0 0 1 0.322,-0.515 h -2.921"
         id="path439"
         inkscape:connector-curvature="0"
         style="fill:#f2bd2f" />
      <path
         d="m 305.757,220.33 a 1.975,1.975 0 0 0 0.008,0.515 h 2.824 a 0.895,0.895 0 0 1 -0.06,-0.515 h -2.772"
         id="path441"
         inkscape:connector-curvature="0"
         style="fill:#e19433" />
      <path
         d="m 307.467,219.514 h -0.005 c -0.188,-0.003 -0.535,-0.194 -0.782,-0.168 a 1.047,1.047 0 0 0 -0.751,0.47 h 2.92 a 0.664,0.664 0 0 1 0.093,-0.056 0.926,0.926 0 0 0 -0.694,-0.414 c -0.246,-0.026 -0.593,0.165 -0.781,0.168"
         id="path443"
         inkscape:connector-curvature="0"
         style="fill:#76b845" />
      <path
         d="m 308.133,218.456 c -0.02,-0.016 -0.37,0.048 -0.586,0.29 -0.217,0.242 -0.203,0.61 -0.184,0.627 0.019,0.016 0.374,-0.04 0.586,-0.29 0.21,-0.25 0.203,-0.611 0.184,-0.627"
         id="path445"
         inkscape:connector-curvature="0"
         style="fill:#76b845" />
    </g>
  </g>
</svg>
