<?xml version="1.0" encoding="UTF-8" standalone="no"?>
<svg
   xmlns:dc="http://purl.org/dc/elements/1.1/"
   xmlns:cc="http://creativecommons.org/ns#"
   xmlns:rdf="http://www.w3.org/1999/02/22-rdf-syntax-ns#"
   xmlns:svg="http://www.w3.org/2000/svg"
   xmlns="http://www.w3.org/2000/svg"
   xmlns:sodipodi="http://sodipodi.sourceforge.net/DTD/sodipodi-0.dtd"
   xmlns:inkscape="http://www.inkscape.org/namespaces/inkscape"
   viewBox="0 0 65.89 65.89"
   version="1.1"
   id="svg50"
   sodipodi:docname="game.svg"
   width="65.889999"
   height="65.889999"
   inkscape:version="0.92.4 5da689c313, 2019-01-14">
  <metadata
     id="metadata56">
    <rdf:RDF>
      <cc:Work
         rdf:about="">
        <dc:format>image/svg+xml</dc:format>
        <dc:type
           rdf:resource="http://purl.org/dc/dcmitype/StillImage" />
      </cc:Work>
    </rdf:RDF>
  </metadata>
  <defs
     id="defs54" />
  <sodipodi:namedview
     pagecolor="#ffffff"
     bordercolor="#666666"
     borderopacity="1"
     objecttolerance="10"
     gridtolerance="10"
     guidetolerance="10"
     inkscape:pageopacity="0"
     inkscape:pageshadow="2"
     inkscape:window-width="471"
     inkscape:window-height="442"
     id="namedview52"
     showgrid="false"
     inkscape:zoom="3.5817272"
     inkscape:cx="32.945"
     inkscape:cy="32.945"
     inkscape:window-x="0"
     inkscape:window-y="0"
     inkscape:window-maximized="0"
     inkscape:current-layer="svg50" />
  <path
     d="M 65.89,15.582 V 0 H 0 v 65.89 h 25.744 v -0.188 l 0.141,-0.329 0.259,-0.259 0.353,-0.141 0.188,-0.024 0.188,0.024 0.329,0.141 0.259,0.259 0.141,0.329 0.023,0.188 h 10.66 l 0.023,-0.188 0.141,-0.329 0.235,-0.259 0.353,-0.141 0.188,-0.024 0.188,0.024 0.353,0.141 0.235,0.259 0.141,0.329 0.024,0.188 H 65.89 V 18.728 H 64.329 V 15.582 Z M 32.957,39.228 a 6.271,6.271 0 1 1 0,-12.542 6.271,6.271 0 0 1 0,12.542 z"
     id="path2"
     inkscape:connector-curvature="0"
     style="clip-rule:evenodd;fill-rule:evenodd" />
  <path
     d="m 43.201,36.945 v 0.189 l -0.141,0.353 -0.259,0.259 -0.353,0.141 h -0.376 l -0.33,-0.141 -0.259,-0.259 -0.141,-0.353 -0.023,-0.189 0.023,-0.188 0.141,-0.329 0.259,-0.259 0.33,-0.141 0.188,-0.024 0.188,0.024 0.353,0.141 0.259,0.259 0.141,0.329 z m -10.256,6.989 h 0.329 l 0.612,0.142 0.824,0.376 0.871,0.847 0.376,0.824 0.118,0.612 0.023,0.329 v 12.543 l -0.023,0.329 -0.118,0.612 -0.376,0.847 -0.871,0.847 -0.824,0.377 -0.612,0.118 -0.329,0.023 -0.306,-0.023 -0.612,-0.118 -0.847,-0.377 -0.847,-0.847 -0.377,-0.847 -0.141,-0.612 V 46.735 l 0.141,-0.612 0.377,-0.824 0.847,-0.847 0.847,-0.376 0.612,-0.142 z"
     id="path4"
     inkscape:connector-curvature="0"
     style="fill:#3c3c3c" />
  <path
     d="m 39.228,32.945 -0.024,0.659 -0.259,1.224 -0.471,1.13 -0.682,0.988 -0.847,0.847 -0.988,0.682 -1.13,0.471 -1.224,0.259 -0.659,0.024 -0.635,-0.024 -1.224,-0.259 -1.13,-0.471 -1.012,-0.682 -0.847,-0.847 -0.682,-0.988 -0.471,-1.13 -0.235,-1.224 -0.024,-0.659 0.024,-0.635 0.235,-1.224 0.471,-1.13 0.682,-1.012 0.847,-0.847 1.012,-0.682 1.13,-0.471 1.224,-0.235 0.635,-0.024 0.659,0.024 1.224,0.235 1.13,0.471 0.988,0.682 0.847,0.847 0.682,1.012 0.471,1.13 0.259,1.224 z m 1.577,0 -0.024,0.824 -0.329,1.53 -0.588,1.388 -0.847,1.271 -1.059,1.059 -1.271,0.847 -1.388,0.588 -1.53,0.306 -0.824,0.047 -0.8,-0.047 -1.53,-0.306 -1.412,-0.588 -1.247,-0.847 -1.059,-1.059 -0.847,-1.271 -0.612,-1.388 -0.306,-1.53 -0.024,-0.824 0.024,-0.8 0.306,-1.53 0.612,-1.412 0.847,-1.247 1.059,-1.059 1.247,-0.847 1.412,-0.612 1.53,-0.306 0.8,-0.024 0.824,0.024 1.53,0.306 1.388,0.612 1.271,0.847 1.059,1.059 0.847,1.247 0.588,1.412 0.329,1.53 z"
     id="path6"
     inkscape:connector-curvature="0"
     style="clip-rule:evenodd;fill:#3c3c3c;fill-rule:evenodd" />
  <path
     d="M 5.344,6.637 H 59.027 V 9.211 H 5.344 Z m 53.682,0 H 5.344 v -1.79 c 0,-0.433 0.351,-0.784 0.784,-0.784 h 52.114 c 0.433,0 0.784,0.351 0.784,0.784 z M 5.344,9.211 h 53.683 v 2.574 H 5.344 Z m 52.898,5.583 H 6.128 A 0.784,0.784 0 0 1 5.344,14.01 v -2.225 h 53.683 v 2.225 a 0.785,0.785 0 0 1 -0.785,0.784 z"
     id="path8"
     inkscape:connector-curvature="0"
     style="fill:#ffffff" />
  <g
     stroke-miterlimit="10"
     id="g16"
     style="fill:none;stroke:#231f20;stroke-width:0.123;stroke-miterlimit:10">
    <path
       d="m 22.331,6.637 h 0.162"
       id="path10"
       inkscape:connector-curvature="0" />
    <path
       d="M 22.815,6.637 H 58.703"
       id="path12"
       inkscape:connector-curvature="0"
       style="stroke-dasharray:0.3219, 0.3219" />
    <path
       d="m 58.864,6.637 h 0.162"
       id="path14"
       inkscape:connector-curvature="0" />
  </g>
  <g
     stroke-miterlimit="10"
     id="g24"
     style="fill:none;stroke:#231f20;stroke-width:0.123;stroke-miterlimit:10">
    <path
       d="m 22.331,9.211 h 0.162"
       id="path18"
       inkscape:connector-curvature="0" />
    <path
       d="M 22.815,9.211 H 58.703"
       id="path20"
       inkscape:connector-curvature="0"
       style="stroke-dasharray:0.3219, 0.3219" />
    <path
       d="m 58.864,9.211 h 0.162"
       id="path22"
       inkscape:connector-curvature="0" />
  </g>
  <g
     stroke-miterlimit="10"
     id="g32"
     style="fill:none;stroke:#231f20;stroke-width:0.123;stroke-miterlimit:10">
    <path
       d="m 22.331,11.785 h 0.162"
       id="path26"
       inkscape:connector-curvature="0" />
    <path
       d="M 22.815,11.785 H 58.703"
       id="path28"
       inkscape:connector-curvature="0"
       style="stroke-dasharray:0.3219, 0.3219" />
    <path
       d="m 58.864,11.785 h 0.162"
       id="path30"
       inkscape:connector-curvature="0" />
  </g>
  <g
     id="g48">
    <path
       d="m 13.147,8.578 c 0.21,0.297 0.448,0.469 0.582,0.472 0.276,0.006 0.515,-0.18 0.713,-0.175 h 0.016 c 0.198,-0.005 0.437,0.18 0.713,0.175 0.134,-0.003 0.372,-0.175 0.582,-0.472 h -2.606"
       id="path34"
       inkscape:connector-curvature="0"
       style="fill:#009ddd" />
    <path
       d="m 12.892,8.11 c 0.07,0.176 0.16,0.334 0.255,0.468 h 2.608 C 15.85,8.444 15.939,8.286 16.01,8.11 h -3.118"
       id="path36"
       inkscape:connector-curvature="0"
       style="fill:#944d85" />
    <path
       d="m 12.75,7.595 c 0.027,0.183 0.077,0.356 0.142,0.515 h 3.119 l 0.03,-0.08 A 0.767,0.767 0 0 1 15.577,7.595 H 12.75"
       id="path38"
       inkscape:connector-curvature="0"
       style="fill:#c45152" />
    <path
       d="m 12.917,6.566 a 1.23,1.23 0 0 0 -0.173,0.515 h 2.773 a 0.8,0.8 0 0 1 0.322,-0.515 h -2.922"
       id="path40"
       inkscape:connector-curvature="0"
       style="fill:#f2bd2f" />
    <path
       d="m 12.744,7.08 a 1.975,1.975 0 0 0 0.008,0.515 h 2.824 A 0.895,0.895 0 0 1 15.516,7.08 h -2.772"
       id="path42"
       inkscape:connector-curvature="0"
       style="fill:#e19433" />
    <path
       d="M 14.454,6.264 H 14.449 C 14.261,6.261 13.914,6.07 13.667,6.096 a 1.047,1.047 0 0 0 -0.751,0.47 h 2.92 A 0.664,0.664 0 0 1 15.929,6.51 0.926,0.926 0 0 0 15.235,6.096 C 14.989,6.07 14.642,6.261 14.454,6.264"
       id="path44"
       inkscape:connector-curvature="0"
       style="fill:#76b845" />
    <path
       d="m 15.12,5.206 c -0.02,-0.016 -0.37,0.048 -0.586,0.29 -0.217,0.242 -0.203,0.61 -0.184,0.627 0.019,0.016 0.374,-0.04 0.586,-0.29 0.21,-0.25 0.203,-0.611 0.184,-0.627"
       id="path46"
       inkscape:connector-curvature="0"
       style="fill:#76b845" />
  </g>
</svg>
