<?xml version="1.0" encoding="UTF-8" standalone="no"?>
<svg
   xmlns:dc="http://purl.org/dc/elements/1.1/"
   xmlns:cc="http://creativecommons.org/ns#"
   xmlns:rdf="http://www.w3.org/1999/02/22-rdf-syntax-ns#"
   xmlns:svg="http://www.w3.org/2000/svg"
   xmlns="http://www.w3.org/2000/svg"
   xmlns:sodipodi="http://sodipodi.sourceforge.net/DTD/sodipodi-0.dtd"
   xmlns:inkscape="http://www.inkscape.org/namespaces/inkscape"
   viewBox="0 0 500.10001 229.7"
   version="1.1"
   id="svg178"
   sodipodi:docname="consolegame.svg"
   width="500.10001"
   height="229.7"
   inkscape:version="0.92.4 5da689c313, 2019-01-14">
  <metadata
     id="metadata184">
    <rdf:RDF>
      <cc:Work
         rdf:about="">
        <dc:format>image/svg+xml</dc:format>
        <dc:type
           rdf:resource="http://purl.org/dc/dcmitype/StillImage" />
      </cc:Work>
    </rdf:RDF>
  </metadata>
  <defs
     id="defs182" />
  <sodipodi:namedview
     pagecolor="#ffffff"
     bordercolor="#666666"
     borderopacity="1"
     objecttolerance="10"
     gridtolerance="10"
     guidetolerance="10"
     inkscape:pageopacity="0"
     inkscape:pageshadow="2"
     inkscape:window-width="640"
     inkscape:window-height="480"
     id="namedview180"
     showgrid="false"
     inkscape:zoom="0.542"
     inkscape:cx="250"
     inkscape:cy="114.95"
     inkscape:window-x="0"
     inkscape:window-y="0"
     inkscape:window-maximized="0"
     inkscape:current-layer="svg178">
    <inkscape:grid
       type="xygrid"
       id="grid991"
       originx="0"
       originy="6.1035157e-06" />
  </sodipodi:namedview>
  <path
     d="m 500.1,226.6 c 0,1.7 -1.4,3.1 -3.1,3.1 h -47.3 c -1.7,0 -3.1,-1.4 -3.1,-3.1 v -76.3 c 0,-1.7 1.4,-3.1 3.1,-3.1 H 497 c 1.7,0 3.1,1.4 3.1,3.1 z"
     id="path2"
     inkscape:connector-curvature="0"
     style="fill:#e6e6e6" />
  <path
     d="m 448.8,175.8 h 49.1 v 46.5 h -49.1 z"
     id="path4"
     inkscape:connector-curvature="0"
     style="fill:#b3b3b3" />
  <path
     d="m 448.1,149 v 21.5 c 0,1.7 1.4,3.2 3.1,3.2 h 44.4 c 1.7,0 3.1,-1.4 3.1,-3.2 V 149 Z"
     id="path6"
     inkscape:connector-curvature="0"
     style="fill:#202022" />
  <path
     d="m 448.1,149 h 50.6 v 4.3 h -50.6 z"
     id="path8"
     inkscape:connector-curvature="0" />
  <path
     d="m 480.8,226 -7.4,-2.2 -7.4,2.2 v 2.4 h 14.8 z"
     id="path10"
     inkscape:connector-curvature="0"
     style="fill:#cccccc" />
  <g
     id="g14"
     style="fill:#f7b71d"
     transform="translate(0,-0.2)">
    <path
       d="m 449.4,150.2 h 0.7 v 2.9 h -0.7 z m 1.3,-0.4 h 0.7 v 3.3 h -0.7 z m 1.3,0 h 0.7 v 3.3 H 452 Z m 1.3,0 h 0.7 v 3.3 h -0.7 z m 1.2,0 h 0.7 v 3.3 h -0.7 z m 1.3,0 h 0.7 v 3.3 h -0.7 z m 1.3,0 h 0.7 v 3.3 h -0.7 z m 1.3,0 h 0.7 v 3.3 h -0.7 z m 1.2,0 h 0.7 v 3.3 h -0.7 z m 1.3,0 h 0.7 v 3.3 h -0.7 z m 1.3,0 h 0.7 v 3.3 h -0.7 z m 1.3,0 h 0.7 v 3.3 h -0.7 z m 1.2,0 h 0.7 v 3.3 h -0.7 z m 1.3,0 h 0.7 v 3.3 H 466 Z m 1.3,0 h 0.7 v 3.3 h -0.7 z m 1.3,0 h 0.7 v 3.3 h -0.7 z m 1.2,0 h 0.7 v 3.3 h -0.7 z m 1.3,-0.6 h 0.7 v 4.3 h -0.7 z m 1.3,0.6 h 0.7 v 3.3 h -0.7 z m 1.3,0 h 0.7 v 3.3 h -0.7 z m 1.2,0 h 0.7 v 3.3 h -0.7 z m 1.3,0 h 0.7 v 3.3 h -0.7 z m 1.3,0 h 0.7 v 3.3 h -0.7 z m 1.3,0 h 0.7 v 3.3 h -0.7 z m 1.2,0 h 0.7 v 3.3 H 480 Z m 1.3,0 h 0.7 v 3.3 h -0.7 z m 1.3,0 h 0.7 v 3.3 h -0.7 z m 1.3,0 h 0.7 v 3.3 h -0.7 z m 1.2,0 h 0.7 v 3.3 h -0.7 z m 1.3,0 h 0.7 v 3.3 h -0.7 z m 1.3,0 h 0.7 v 3.3 h -0.7 z m 1.3,0 h 0.7 v 3.3 H 489 Z m 1.2,0 h 0.7 v 3.3 h -0.7 z m 1.3,0 h 0.7 v 3.3 h -0.7 z m 1.3,0 h 0.7 v 3.3 h -0.7 z m 1.3,0 h 0.7 v 3.3 h -0.7 z m 1.2,0 h 0.7 v 3.3 h -0.7 z m 1.3,-0.6 h 0.7 v 4.3 h -0.7 z"
       id="path12"
       inkscape:connector-curvature="0" />
  </g>
  <g
     id="g18"
     style="fill:#231f20"
     transform="translate(0,-0.2)">
    <path
       d="m 487.5,220.1 h -0.7 l -0.2,0.8 h -0.4 l 0.4,-1.9 h 0.4 l -0.1,0.7 h 0.7 l 0.2,-0.7 h 0.4 l -0.4,1.9 h -0.4 z m 0.9,-0.5 h 0.4 l -0.2,0.8 v 0.3 h 0.2 c 0,0 0.1,0 0.1,-0.1 l 0.1,-0.1 0.1,-0.1 c 0,0 0,-0.1 0.1,-0.2 l 0.1,-0.6 h 0.4 l -0.3,1.3 H 489 v -0.2 c -0.1,0.1 -0.3,0.2 -0.5,0.2 -0.1,0 -0.2,0 -0.3,-0.1 -0.1,-0.1 -0.1,-0.1 -0.1,-0.3 v -0.3 z m 2.6,0.7 0.4,0.1 c -0.1,0.2 -0.2,0.4 -0.3,0.5 -0.2,0.1 -0.3,0.2 -0.5,0.2 -0.2,0 -0.4,-0.1 -0.5,-0.2 -0.1,-0.1 -0.2,-0.3 -0.2,-0.6 0,-0.2 0,-0.4 0.1,-0.6 0.1,-0.2 0.2,-0.3 0.4,-0.4 0.2,-0.1 0.3,-0.1 0.5,-0.1 0.2,0 0.4,0.1 0.5,0.2 0.1,0.1 0.2,0.3 0.2,0.4 h -0.4 c 0,-0.1 -0.1,-0.2 -0.1,-0.2 -0.1,0 -0.1,-0.1 -0.2,-0.1 -0.1,0 -0.2,0 -0.3,0.1 -0.1,0.1 -0.2,0.2 -0.2,0.3 -0.1,0.1 -0.1,0.3 -0.1,0.4 0,0.1 0,0.3 0.1,0.3 0.1,0.1 0.2,0.1 0.3,0.1 0.1,0 0.2,0 0.3,-0.1 -0.1,-0.1 0,-0.2 0,-0.3 z m 1.8,0.2 H 492 l -0.2,0.4 h -0.4 l 1,-1.9 h 0.4 l 0.3,1.9 h -0.4 z m -0.1,-0.3 -0.1,-0.7 -0.4,0.7 z m 1.1,0.7 h -0.4 l 0.4,-1.9 h 1.1 c 0.1,0 0.1,0.1 0.2,0.2 0,0.1 0.1,0.2 0.1,0.3 0,0.2 0,0.3 -0.1,0.4 -0.1,0.1 -0.2,0.2 -0.4,0.2 0,0 0.1,0.1 0.1,0.2 0.1,0.1 0.2,0.3 0.3,0.6 h -0.4 c 0,-0.1 -0.1,-0.3 -0.2,-0.5 -0.1,-0.1 -0.1,-0.2 -0.2,-0.2 H 494 Z m 0.2,-1 h 0.6 c 0.1,0 0.1,-0.1 0.2,-0.1 0,-0.1 0.1,-0.1 0.1,-0.2 0,-0.1 0,-0.1 -0.1,-0.2 h -0.6 z m 1.3,1 0.4,-1.9 h 1 c 0.1,0 0.1,0.1 0.2,0.1 0,0 0.1,0.1 0.1,0.2 0,0.1 0.1,0.1 0.1,0.2 v 0.3 c 0,0.2 0,0.4 -0.1,0.5 -0.1,0.2 -0.2,0.3 -0.3,0.4 -0.1,0.1 -0.2,0.1 -0.3,0.2 z m 0.4,-0.3 h 0.5 c 0.1,0 0.1,0 0.2,-0.1 0.1,-0.1 0.1,-0.2 0.2,-0.3 0.1,-0.1 0.1,-0.2 0.1,-0.4 0,-0.1 0,-0.2 -0.1,-0.3 0,-0.1 -0.1,-0.1 -0.2,-0.1 H 496 Z"
       id="path16"
       inkscape:connector-curvature="0" />
  </g>
  <g
     id="g50"
     transform="translate(0,-0.2)">
    <path
       d="m 426.7,178.5 c 0,27.6 -22.3,49.9 -49.9,49.9 -27.6,0 -49.9,-22.3 -49.9,-49.9 0,-27.6 22.3,-49.9 49.9,-49.9 27.6,0 49.9,22.3 49.9,49.9 z m -41.3,-18.2 c -2.6,-1.2 -5.5,-1.9 -8.6,-1.9 -11.1,0 -20.1,9 -20.1,20.1 0,11.1 9,20.1 20.1,20.1 11.1,0 20.1,-9 20.1,-20.1 0,-8 -4.7,-15 -11.5,-18.2"
       id="path20"
       inkscape:connector-curvature="0"
       style="fill:#56524f" />
    <path
       d="m 376.8,229.9 c -28.3,0 -51.4,-23.1 -51.4,-51.4 0,-28.3 23.1,-51.4 51.4,-51.4 28.3,0 51.4,23.1 51.4,51.4 0,28.3 -23.1,51.4 -51.4,51.4 z m 0,-102.7 c -28.3,0 -51.3,23 -51.3,51.3 0,28.3 23,51.3 51.3,51.3 28.3,0 51.3,-23 51.3,-51.3 0,-28.3 -23,-51.3 -51.3,-51.3 z"
       id="path22"
       inkscape:connector-curvature="0"
       style="fill:#0f1417" />
    <path
       d="m 376.8,187.4 c -4.9,0 -8.9,-4 -8.9,-8.9 0,-4.9 4,-8.9 8.9,-8.9 4.9,0 8.9,4 8.9,8.9 0,4.9 -4,8.9 -8.9,8.9 z m 0,-17.2 c -4.6,0 -8.3,3.7 -8.3,8.3 0,4.6 3.7,8.3 8.3,8.3 4.6,0 8.3,-3.7 8.3,-8.3 0,-4.6 -3.7,-8.3 -8.3,-8.3 z"
       id="path24"
       inkscape:connector-curvature="0"
       style="fill:#a198a0" />
    <path
       d="m 376.8,185.7 c -4,0 -7.2,-3.2 -7.2,-7.2 0,-4 3.2,-7.2 7.2,-7.2 4,0 7.2,3.2 7.2,7.2 0,4 -3.2,7.2 -7.2,7.2 z m 0,-13.8 c -3.6,0 -6.6,3 -6.6,6.6 0,3.6 3,6.6 6.6,6.6 3.6,0 6.6,-3 6.6,-6.6 0,-3.6 -3,-6.6 -6.6,-6.6 z"
       id="path26"
       inkscape:connector-curvature="0"
       style="fill:#a198a0" />
    <path
       d="m 326.9,178.5 c 0,27.6 22.3,49.9 49.9,49.9 27.6,0 49.9,-22.3 49.9,-49.9 l 0.1,-0.2 h -29.9 c 0,11.1 -8.7,20.1 -19.8,20.1 -11.1,0 -20.1,-9 -20.1,-20.1 h -30.2"
       id="path28"
       inkscape:connector-curvature="0"
       style="fill:#1e1c1a" />
    <path
       d="m 407.2,184.8 -3.2,-3.4 -1.4,1.5 0.7,0.6 -0.8,4.1 1.6,-0.7 -0.9,-0.7 0.5,-2.2 3.3,3.5 1.1,-4.8 1.2,-0.6 -1.4,-0.8 z m 2.8,-2.9 c 0.1,0.1 0.2,0.2 0.2,0.4 l -0.4,1.9 c 0,0.1 -0.2,0.3 -0.3,0.3 -0.1,0.1 -0.2,0.1 -0.4,0.1 0.1,0 0.2,0.1 0.3,0.2 0.1,0.1 0.2,0.2 0.2,0.3 l -0.4,1.8 c 0,0.2 -0.2,0.3 -0.4,0.4 -0.1,0.1 -0.3,0.1 -0.4,0.2 h 5.3 l 0.4,-1.8 c -0.2,0.4 -0.4,0.8 -0.8,1 -0.3,0.2 -0.8,0.5 -1.3,0.5 h -1 l 0.5,-2.2 c 0.2,-0.1 0.4,0 0.6,0 0.2,0.1 0.3,0.2 0.5,0.4 0.1,0.2 0.3,0.3 0.4,0.5 l 0.5,-2.4 c -0.2,0.2 -0.4,0.3 -0.6,0.5 -0.2,0.1 -0.4,0.3 -0.6,0.3 -0.2,0.1 -0.4,0.1 -0.6,0 l 0.5,-2.2 h 0.8 c 0.4,0 0.7,0 1,0.2 0.3,0.2 0.5,0.7 0.7,1.1 l 0.4,-1.6 h -5.4 c 0,0 0.2,0 0.3,0.1 z m 6.4,0.6 c -0.4,0.3 -0.8,0.7 -1,1.2 -0.2,0.4 -0.4,0.9 -0.4,1.4 0,0.4 0.1,0.8 0.3,1.2 0.2,0.4 0.5,0.7 0.8,0.9 0.4,0.2 0.8,0.3 1.2,0.4 0.4,0.1 0.7,0 1,0 0.3,0 0.5,-0.1 0.7,-0.2 l 1.1,-2.1 c -0.3,0.1 -0.6,0.2 -0.9,0.4 -0.3,0.2 -0.6,0.2 -1,0.3 -0.3,0 -0.7,0 -1,-0.2 -0.3,-0.2 -0.6,-0.5 -0.7,-0.8 -0.1,-0.3 -0.2,-0.7 -0.1,-1 0.1,-0.3 0.3,-0.6 0.6,-0.9 0.3,-0.3 0.6,-0.5 0.8,-0.6 0.3,-0.1 0.5,-0.2 0.8,-0.2 l 0.8,1.1 1,-0.3 -0.7,-1.5 h -0.6 c -0.2,0 -0.5,0.1 -0.8,0.1 l -0.9,0.3 c -0.2,0 -0.6,0.2 -1,0.5 z"
       id="path30"
       inkscape:connector-curvature="0"
       style="fill:#56524f" />
    <g
       id="g38"
       style="fill:#56524f">
      <path
         d="m 349,181.1 v 0.1 c 0,0.1 0,0.2 -0.3,0.2 -0.3,0 -0.3,-0.1 -0.3,-0.2 v -0.3 -0.3 c 0,-0.1 0,-0.2 0.3,-0.2 0.3,0 0.3,0.1 0.3,0.2 v 0.1 h 0.4 v -0.2 c 0,-0.2 0.1,-0.4 -0.8,-0.4 -0.8,0 -0.7,0.2 -0.8,0.4 v 1 c 0,0.2 -0.1,0.4 0.8,0.4 0.8,0 0.7,-0.2 0.8,-0.4 v -0.2 H 349 Z m -5.3,-1 -0.5,1.2 -0.4,-1.2 h -0.7 v 1.7 h 0.5 v -1.3 l 0.4,1.3 h 0.5 l 0.4,-1.3 v 1.3 h 0.4 v -1.7 z m 5.8,0 h 1.3 v 0.4 h -0.4 v 1.3 h -0.5 v -1.3 h -0.4 z"
         id="path32"
         inkscape:connector-curvature="0" />
      <path
         d="m 346.2,181.8 0.5,-1.7 h 0.6 l 0.5,1.7 h -0.4 l -0.1,-0.4 h -0.6 l 0.1,-0.3 h 0.4 l -0.2,-0.7 -0.4,1.4 z m -5.1,-1.4 c 0.3,0 0.3,0.1 0.3,0.2 v 0.6 c 0,0.1 0,0.2 -0.3,0.2 -0.3,0 -0.3,-0.1 -0.3,-0.2 v -0.3 -0.3 c 0,-0.1 0,-0.2 0.3,-0.2 V 180 c -0.8,0 -0.7,0.2 -0.8,0.4 v 1 c 0,0.2 -0.1,0.4 0.8,0.4 0.8,0 0.7,-0.2 0.8,-0.4 v -0.5 -0.5 c 0,-0.2 0.1,-0.4 -0.8,-0.4 z m -1.5,0.7 v 0.1 c 0,0.1 0,0.2 -0.3,0.2 -0.3,0 -0.3,-0.1 -0.3,-0.2 v -0.3 -0.3 c 0,-0.1 0,-0.2 0.3,-0.2 0.3,0 0.3,0.1 0.3,0.2 v 0.1 h 0.4 v -0.2 c 0,-0.2 0.1,-0.4 -0.8,-0.4 -0.8,0 -0.7,0.2 -0.8,0.4 v 1 c 0,0.2 -0.1,0.4 0.8,0.4 0.8,0 0.7,-0.2 0.8,-0.4 v -0.2 h -0.4 z m 5.8,0.3 h -0.3 V 181 h 0.3 c 0.3,0 0.3,-0.1 0.3,-0.2 v -0.1 -0.1 c 0,-0.1 0,-0.2 -0.3,-0.2 h -0.3 v 1.3 h -0.4 V 180 h 0.7 c 0.8,0 0.7,0.2 0.8,0.4 v 0.4 c -0.1,0.4 0,0.6 -0.8,0.6 z m -8.5,6.8 h -2.7 c -0.4,0 -0.7,-0.3 -0.7,-0.7 v -4.2 c 0,-0.4 0.3,-0.7 0.7,-0.7 h 1.7 c 0.2,0 0.4,-0.2 0.4,-0.4 v -1.7 c 0,-0.1 0.1,-0.2 0.2,-0.2 h 1 c 0.1,0 0.2,0.1 0.2,0.2 v 7.5 c 0,0.1 -0.1,0.2 -0.2,0.2 h -0.6 v 0.4 h 0.7 c 0.2,0 0.4,-0.2 0.4,-0.4 v -7.8 c 0,-0.2 -0.2,-0.4 -0.4,-0.4 h -1.3 c -0.2,0 -0.4,0.2 -0.4,0.4 v 1.7 c 0,0.1 -0.1,0.2 -0.2,0.2 h -1.6 c -0.6,0 -1.1,0.5 -1.1,1.1 v 4.2 c 0,0.6 0.5,1.1 1.1,1.1 h 2.7 z"
         id="path34"
         inkscape:connector-curvature="0" />
      <path
         d="M 335.9,186.7 V 184 c 0,-0.2 -0.2,-0.4 -0.4,-0.4 -0.2,0 -0.4,0.2 -0.4,0.4 v 2.9 c 0,0.2 0.2,0.4 0.4,0.4 0.2,0 0.4,-0.2 0.4,-0.4 v -0.2 h 0.4 v 0.2 c 0,0.4 -0.3,0.8 -0.8,0.8 -0.4,0 -0.8,-0.3 -0.8,-0.8 V 184 c 0,-0.4 0.3,-0.8 0.8,-0.8 0.4,0 0.8,0.3 0.8,0.8 v 2.7 z m 3.6,1.5 H 339 c -0.1,0 -0.2,-0.1 -0.2,-0.2 v -5.3 c 0,-0.1 0.1,-0.2 0.2,-0.2 h 1 c 0.1,0 0.2,0.1 0.2,0.2 v 5.3 c 0,0.1 -0.1,0.2 -0.2,0.2 h -0.5 v 0.4 h 0.7 c 0.2,0 0.4,-0.2 0.4,-0.4 v -5.6 c 0,-0.2 -0.2,-0.4 -0.4,-0.4 h -1.3 c -0.2,0 -0.4,0.2 -0.4,0.4 v 5.6 c 0,0.2 0.2,0.4 0.4,0.4 h 0.7 v -0.4 z m 4.7,-4.5 h -1.1 c -0.3,0 -0.6,0.3 -0.6,0.6 0,0.3 0.3,0.6 0.6,0.6 h 1.5 c 0.4,0 0.7,0.3 0.7,0.7 v 1.9 c 0,0.4 -0.3,0.7 -0.7,0.7 h -3 c -0.1,0 -0.2,-0.1 -0.2,-0.2 v -0.7 c 0,-0.1 0.1,-0.2 0.2,-0.2 h 2 c 0.3,0 0.6,-0.3 0.6,-0.6 0,-0.3 -0.3,-0.6 -0.6,-0.6 h -1.5 c -0.4,0 -0.7,-0.3 -0.7,-0.7 v -1.9 c 0,-0.4 0.3,-0.7 0.7,-0.7 h 2.8 c 0.1,0 0.2,0.1 0.2,0.2 v 0.7 c 0,0.1 -0.1,0.2 -0.2,0.2 h -0.7 v 0.4 h 0.9 c 0.2,0 0.4,-0.2 0.4,-0.4 v -1 c 0,-0.2 -0.2,-0.4 -0.4,-0.4 h -2.9 c -0.6,0 -1.1,0.5 -1.1,1.1 v 1.9 c 0,0.6 0.5,1.1 1.1,1.1 h 1.5 c 0.1,0 0.2,0.1 0.2,0.2 0,0.1 -0.1,0.2 -0.2,0.2 h -2.2 c -0.2,0 -0.4,0.2 -0.4,0.4 v 1 c 0,0.2 0.2,0.4 0.4,0.4 h 3.2 c 0.6,0 1.1,-0.5 1.1,-1.1 v -1.9 c 0,-0.6 -0.5,-1.1 -1.1,-1.1 h -1.5 c -0.1,0 -0.2,-0.1 -0.2,-0.2 0,-0.1 0.1,-0.2 0.2,-0.2 h 1.1 z m 5.6,1 h 0.5 c 0.1,0 0.2,-0.1 0.2,-0.2 v -1.2 c 0,-0.4 -0.3,-0.7 -0.7,-0.7 h -2.4 c -0.4,0 -0.7,0.3 -0.7,0.7 v 4.2 c 0,0.4 0.3,0.7 0.7,0.7 h 2.4 c 0.4,0 0.7,-0.3 0.7,-0.7 v -1.1 c 0,-0.1 -0.1,-0.2 -0.2,-0.2 h -0.9 c -0.1,0 -0.2,0.1 -0.2,0.2 v 0.5 c 0,0.4 -0.3,0.8 -0.7,0.8 -0.4,0 -0.7,-0.3 -0.7,-0.8 V 184 c 0,-0.4 0.3,-0.8 0.7,-0.8 0.4,0 0.7,0.3 0.7,0.8 v 0.5 c 0,0.1 0.1,0.2 0.2,0.2 h 0.4 v 0.4 h -0.6 c -0.2,0 -0.4,-0.2 -0.4,-0.4 V 184 c 0,-0.2 -0.1,-0.4 -0.3,-0.4 -0.2,0 -0.3,0.2 -0.3,0.4 v 2.9 c 0,0.2 0.1,0.4 0.3,0.4 0.2,0 0.3,-0.2 0.3,-0.4 v -0.7 c 0,-0.2 0.2,-0.4 0.4,-0.4 h 1.2 c 0.2,0 0.4,0.2 0.4,0.4 v 1.3 c 0,0.6 -0.5,1.1 -1.1,1.1 h -2.4 c -0.6,0 -1.1,-0.5 -1.1,-1.1 v -4.2 c 0,-0.6 0.5,-1.1 1.1,-1.1 h 2.4 c 0.6,0 1.1,0.5 1.1,1.1 v 1.4 c 0,0.2 -0.2,0.4 -0.4,0.4 h -0.6 z"
         id="path36"
         inkscape:connector-curvature="0" />
    </g>
    <path
       d="m 399.8,204.8 c -0.4,-0.3 -0.9,-0.5 -1.4,-0.5 h -5.8 c -0.2,0 -0.4,0 -0.7,0.1 -0.4,0.1 -0.8,0.4 -1.1,0.7 -0.3,0.3 -0.5,0.7 -0.5,1.2 v 4.5 c 0,0.1 0,0.1 0.1,0.1 h 1.8 c 0.1,0 0.2,0 0.2,-0.2 v -4 c 0,-0.3 0.1,-0.6 0.4,-0.7 0.2,-0.1 0.3,-0.1 0.5,-0.1 h 0.8 c 0.2,0 0.2,0 0.2,0.2 v 4.6 c 0,0.1 0,0.2 0.2,0.2 h 1.7 c 0.1,0 0.2,0 0.2,-0.2 v -3.3 -1.4 c 0,-0.1 0,-0.1 0.1,-0.1 h 1.1 c 0.4,0 0.7,0.4 0.7,0.8 v 3.9 c 0,0.1 0,0.2 0.2,0.2 h 1.8 c 0.1,0 0.2,0 0.2,-0.2 v -4.3 c 0.1,-0.5 -0.2,-1.1 -0.7,-1.5 z m 0.2,5.7 h -0.9 c -0.1,0 -0.1,0 -0.1,-0.1 v -3.5 c 0,-0.4 -0.2,-0.8 -0.6,-1.1 -0.2,-0.1 -0.4,-0.2 -0.7,-0.2 h -1.5 c -0.1,0 -0.2,0 -0.2,0.2 v 4.6 c 0,0.1 0,0.2 -0.2,0.2 h -0.7 c -0.1,0 -0.2,0 -0.2,-0.2 v -4.6 c 0,-0.2 0,-0.2 -0.2,-0.2 h -1.5 c -0.4,0 -0.8,0.2 -1.1,0.6 -0.1,0.2 -0.2,0.4 -0.2,0.7 v 3.5 c 0,0.1 0,0.2 -0.2,0.2 h -0.9 c -0.1,0 -0.1,0 -0.1,-0.1 v -4.1 c 0,-0.7 0.5,-1.2 1.1,-1.4 0.2,-0.1 0.5,-0.1 0.7,-0.1 h 5.8 c 0.6,0 1.1,0.3 1.4,0.8 0.2,0.2 0.2,0.5 0.2,0.8 v 3.9 c 0.2,0 0.2,0.1 0.1,0.1 z m -44.1,-6.2 h -5.4 c -0.4,0 -0.9,0 -1.3,0.1 -0.5,0.1 -0.9,0.3 -1.3,0.5 -0.5,0.3 -0.8,0.7 -1.1,1.2 -0.4,0.7 -0.4,1.4 -0.3,2.2 0.1,0.7 0.5,1.3 1,1.8 0.6,0.5 1.3,0.8 2.1,0.8 h 6.2 c 0.1,0 0.1,0 0.1,-0.1 v -1.4 c 0,-0.1 0,-0.2 -0.2,-0.2 H 350 c -0.5,0 -1,-0.2 -1.3,-0.6 -0.2,-0.3 -0.4,-0.7 -0.3,-1.1 0,-0.4 0.2,-0.8 0.5,-1.1 0.3,-0.2 0.6,-0.4 1,-0.4 h 5.8 c 0.1,0 0.2,0 0.2,-0.2 v -1.4 c 0.2,-0.1 0.2,-0.1 0,-0.1 z m -0.3,1.1 c 0,0.1 0,0.2 -0.2,0.2 h -5.3 c -0.8,0 -1.6,0.6 -1.9,1.3 -0.3,0.7 -0.2,1.4 0.3,2 0.3,0.4 0.7,0.6 1.2,0.7 h 5.7 c 0.1,0 0.2,0 0.2,0.2 v 0.4 c 0,0.1 0,0.2 -0.2,0.2 h -5.7 c -0.7,0 -1.3,-0.2 -1.8,-0.7 -0.4,-0.4 -0.7,-0.8 -0.9,-1.4 -0.2,-0.9 -0.1,-1.7 0.4,-2.5 0.4,-0.6 1,-0.9 1.7,-1.1 h 6.2 c 0.1,0 0.2,0 0.2,0.2 0.1,0.2 0.1,0.4 0.1,0.5 z m 23.2,3.8 c -0.1,-0.4 -0.2,-0.8 -0.5,-1.2 -0.1,-0.1 0,-0.1 0,-0.2 0.1,-0.1 0.2,-0.3 0.3,-0.5 0.2,-0.4 0.3,-0.9 0.1,-1.4 -0.1,-0.5 -0.4,-0.9 -0.8,-1.2 -0.4,-0.3 -0.9,-0.5 -1.4,-0.5 H 369 c -0.1,0 -0.2,0 -0.2,0.2 v 6.4 c 0,0.1 0,0.1 0.1,0.1 h 1.8 c 0.1,0 0.2,0 0.2,-0.2 v -1.9 c 0,-0.1 0,-0.2 0.2,-0.2 h 4.8 c 0.4,0.1 0.6,0.4 0.6,0.7 v 1.4 c 0,0.1 0,0.1 0.1,0.1 h 1.9 c 0.1,0 0.1,0 0.1,-0.1 v -1.2 c 0.2,0 0.2,-0.2 0.2,-0.3 z m -0.6,1.3 h -0.9 c -0.1,0 -0.1,0 -0.1,-0.1 v -1 c 0,-0.4 -0.3,-0.9 -0.7,-1 -0.2,-0.1 -0.4,-0.1 -0.6,-0.1 h -5 c -0.2,0 -0.2,0 -0.2,0.2 v 2 c 0,0.1 0,0.1 -0.1,0.1 h -0.8 c -0.1,0 -0.2,0 -0.2,-0.2 v -4.9 -0.5 c 0,-0.2 0,-0.2 0.2,-0.2 h 7 c 0.7,0 1.4,0.5 1.6,1.3 0.2,0.7 0,1.3 -0.5,1.7 -0.1,0.1 -0.1,0.2 0,0.3 0.1,0.1 0.3,0.3 0.4,0.5 0.1,0.2 0.2,0.5 0.2,0.8 v 1 c -0.2,0 -0.2,0.1 -0.3,0.1 z m -13.3,-5.6 c -0.5,-0.4 -1.1,-0.6 -1.7,-0.6 h -6.5 c -0.1,0 -0.2,0 -0.2,0.2 v 6.3 c 0,0.1 0,0.2 0.2,0.2 h 6.9 c 0.9,-0.2 1.6,-0.6 2.1,-1.4 0.3,-0.5 0.5,-1 0.6,-1.6 0.1,-0.5 0,-1 -0.2,-1.5 -0.2,-0.7 -0.6,-1.2 -1.2,-1.6 z m 0.7,4 c -0.1,0.2 -0.3,0.5 -0.4,0.7 -0.2,0.3 -0.5,0.5 -0.8,0.6 -0.3,0.2 -0.7,0.3 -1.1,0.3 h -6.1 c -0.1,0 -0.2,0 -0.2,-0.2 v -5.4 c 0,-0.1 0,-0.1 0.2,-0.1 h 6 c 0.6,0 1.2,0.3 1.7,0.7 0.4,0.3 0.7,0.7 0.8,1.2 0.1,0.2 0.1,0.4 0.1,0.7 0,0.5 0,1 -0.2,1.5 z m 23.5,-3.6 c -0.3,-0.3 -0.6,-0.5 -0.9,-0.7 -0.4,-0.2 -0.8,-0.3 -1.3,-0.3 h -5.1 c -0.7,0.1 -1.3,0.4 -1.8,0.9 -0.3,0.3 -0.6,0.7 -0.8,1.1 -0.3,0.7 -0.3,1.4 -0.2,2.1 0.2,0.7 0.6,1.3 1.2,1.8 0.6,0.5 1.3,0.7 2.1,0.7 h 4.5 c 0.2,0 0.4,0 0.6,-0.1 0.5,-0.1 0.9,-0.3 1.2,-0.6 0.5,-0.4 0.8,-0.8 1.1,-1.3 0.3,-0.6 0.3,-1.2 0.2,-1.9 0,-0.6 -0.3,-1.2 -0.8,-1.7 z m 0.4,2.9 c -0.1,0.7 -0.5,1.2 -0.9,1.6 -0.3,0.3 -0.7,0.5 -1.1,0.6 -0.3,0.1 -0.6,0.1 -0.9,0.1 h -4.2 c -1.2,0 -2.3,-0.8 -2.6,-1.8 -0.4,-1 -0.2,-1.9 0.4,-2.8 0.4,-0.5 0.9,-0.9 1.6,-1 0.2,0 0.4,-0.1 0.7,-0.1 h 4.6 c 0.6,0 1.2,0.3 1.6,0.7 0.3,0.3 0.6,0.6 0.8,1 0.1,0.5 0.1,1.1 0,1.7 z m 15.2,-3.2 h -2.2 c 0.1,-0.1 0.1,-0.1 0.2,-0.1 h 0.9 c 0.1,0 0.2,0 0.3,-0.1 0.7,-0.2 1,-0.9 0.9,-1.5 -0.1,-0.7 -0.6,-1 -1.2,-1 h -2.2 c -0.1,0 -0.2,0.1 -0.2,0.2 v 0.8 c 0,0.1 0,0.2 0.2,0.2 h 1.7 c 0.2,0 0.3,0.1 0.3,0.2 0,0.1 -0.1,0.2 -0.3,0.2 h -0.9 c -0.1,0 -0.3,0 -0.4,0.1 -0.6,0.2 -0.8,0.6 -0.9,1.2 v 1 c 0,0.1 0,0.1 0.1,0.1 h 3.7 c 0.1,0 0.2,0 0.1,-0.2 v -0.9 c 0,-0.2 0,-0.2 -0.1,-0.2 z m -0.1,0.9 c 0,0.1 0,0.1 -0.1,0.1 h -3.2 c -0.2,0 -0.2,0 -0.2,-0.2 0,-0.3 0,-0.6 0.1,-1 0.1,-0.3 0.3,-0.7 0.7,-0.7 0.2,0 0.3,-0.1 0.5,-0.1 h 0.9 c 0.2,0 0.4,-0.2 0.4,-0.3 0,-0.2 -0.1,-0.4 -0.3,-0.4 h -1.7 c -0.1,0 -0.2,0 -0.1,-0.2 v -0.3 c 0,-0.2 0.1,-0.2 0.2,-0.2 h 1.8 c 0.1,0 0.3,0 0.4,0.1 0.4,0.1 0.7,0.4 0.8,0.8 0.2,0.6 -0.2,1.2 -0.8,1.3 h -1.2 c -0.2,0 -0.5,0.2 -0.5,0.4 0,0.1 0,0.1 0.1,0.1 h 2.2 c 0.1,0 0.2,0 0.1,0.2 -0.1,0 -0.1,0.2 -0.1,0.4 z m -36.4,1 c -0.2,-0.1 -0.5,-0.1 -0.8,-0.1 -0.6,0 -1.1,0.6 -0.9,1.2 0.1,0.4 0.5,0.7 1.1,0.7 h 0.3 c 0.5,-0.1 0.7,-0.5 0.8,-0.8 0,-0.4 -0.1,-0.7 -0.5,-1 z m -0.1,1 c -0.1,0.2 -0.2,0.3 -0.4,0.3 h -0.5 c -0.2,0 -0.3,-0.3 -0.3,-0.4 0,-0.2 0.2,-0.4 0.4,-0.4 h 0.2 c 0.2,0 0.4,0 0.5,0.1 0.2,0.1 0.2,0.2 0.1,0.4 z m 8.1,-2.3 h -5.4 c -0.1,0 -0.1,0 -0.1,0.1 v 1.5 c 0,0.1 0,0.2 0.2,0.2 h 5.1 c 0.2,0 0.4,0 0.7,-0.1 0.4,-0.1 0.6,-0.6 0.5,-1 -0.2,-0.5 -0.5,-0.7 -1,-0.7 z m 0.3,1.1 c -0.1,0.1 -0.2,0.1 -0.4,0.1 h -4.8 c -0.2,0 -0.2,-0.1 -0.2,-0.2 v -0.4 c 0,-0.1 0,-0.2 0.2,-0.2 h 5 c 0.2,0 0.3,0.1 0.4,0.3 0.1,0.2 0,0.3 -0.2,0.4 z M 363.8,206 c -0.3,-0.3 -0.7,-0.4 -1.1,-0.5 h -4.3 c -0.1,0 -0.2,0 -0.2,0.2 v 3.8 c 0,0.1 0,0.2 0.2,0.2 h 4.4 c 0.2,0 0.3,0 0.5,-0.1 0.8,-0.3 1.3,-0.9 1.4,-1.8 -0.1,-0.7 -0.3,-1.3 -0.9,-1.8 z m -0.9,3.2 H 359 c -0.1,0 -0.2,0 -0.2,-0.2 v -2.9 c 0,-0.1 0,-0.1 0.1,-0.1 h 3.7 c 0.8,0 1.4,0.4 1.5,1.3 0.2,0.9 -0.3,1.7 -1.2,1.9 z m 23.3,-3.6 H 383 c -0.4,0 -0.8,0 -1.1,0.2 -0.4,0.2 -0.7,0.5 -0.9,0.9 -0.2,0.4 -0.2,0.8 -0.2,1.2 0.1,0.4 0.2,0.8 0.5,1.1 0.4,0.5 1,0.7 1.6,0.7 h 3.7 c 0.4,-0.1 0.8,-0.2 1.1,-0.5 0.4,-0.3 0.6,-0.8 0.7,-1.3 0.1,-0.5 0,-0.9 -0.3,-1.3 -0.5,-0.7 -1.1,-1 -1.9,-1 z m 1.2,3.2 c -0.3,0.3 -0.8,0.4 -1.2,0.4 h -3.3 c -0.4,0 -0.8,-0.1 -1.1,-0.3 -0.4,-0.3 -0.6,-0.6 -0.7,-1.1 -0.1,-0.5 0,-0.9 0.3,-1.3 0.3,-0.4 0.6,-0.6 1.1,-0.6 h 3.8 c 0.4,0 0.7,0.1 1,0.3 0.3,0.2 0.5,0.5 0.6,0.9 0.1,0.8 -0.1,1.3 -0.5,1.7 z"
       id="path40"
       inkscape:connector-curvature="0"
       style="fill:#56524f" />
    <g
       id="g44">
      <path
         d="m 376.8,198.6 c -11.1,0 -20.1,-9 -20.1,-20.1 0,-11.1 9,-20.1 20.1,-20.1 11.1,0 20.1,9 20.1,20.1 0,11.1 -9,20.1 -20.1,20.1 z m 0,-39.6 c -10.7,0 -19.5,8.7 -19.5,19.5 0,10.7 8.7,19.5 19.5,19.5 10.8,0 19.5,-8.7 19.5,-19.5 0,-10.7 -8.8,-19.5 -19.5,-19.5 z"
         id="path42"
         inkscape:connector-curvature="0" />
    </g>
    <g
       id="g48">
      <path
         d="m 396.6,178.5 c 0,10.9 -8.9,19.8 -19.8,19.8 -10.9,0 -19.8,-8.9 -19.8,-19.8 0,-10.9 8.9,-19.8 19.8,-19.8 10.9,0 19.8,8.9 19.8,19.8 z m -19.8,-17.2 c -9.5,0 -17.2,7.7 -17.2,17.2 0,9.5 7.7,17.2 17.2,17.2 9.5,0 17.2,-7.7 17.2,-17.2 0,-9.5 -7.7,-17.2 -17.2,-17.2 z"
         id="path46"
         inkscape:connector-curvature="0"
         style="fill:#706b67" />
    </g>
  </g>
  <g
     id="g176"
     transform="translate(0,-0.2)">
    <path
       d="m 299.4,8.9 c 0,1.3 -1,2.3 -2.3,2.3 H 295 c -1.3,0 -2.3,-1 -2.3,-2.3 V 2.5 c 0,-1.3 1,-2.3 2.3,-2.3 h 2.1 c 1.3,0 2.3,1 2.3,2.3 z m -277.5,0 c 0,1.3 -1,2.3 -2.3,2.3 h -2.1 c -1.3,0 -2.3,-1 -2.3,-2.3 V 2.5 c 0,-1.3 1,-2.3 2.3,-2.3 h 2.1 c 1.3,0 2.3,1 2.3,2.3 z"
       id="path52"
       inkscape:connector-curvature="0"
       style="fill:#333333" />
    <path
       d="m 307.8,184.7 v 33.1 c 0,2.1 -1.7,3.9 -3.9,3.9 H 221 c -1.3,0 -3.1,0.7 -4.1,1.4 l -6.7,5.3 c -1,0.8 -2.8,1.4 -4.1,1.4 h -90.6 c -1.3,0 -3.1,-0.6 -4.1,-1.4 l -7,-5.4 c -1,-0.8 -2.9,-1.4 -4.1,-1.4 H 11.2 c -2.1,0 -3.9,-1.7 -3.9,-3.9 V 64.1 h 300.4 v 120.6 z"
       id="path54"
       inkscape:connector-curvature="0"
       style="fill:#999999" />
    <path
       d="m 305.8,218.3 c 0,0.8 -0.7,1.5 -1.5,1.5 h -84 c -1.3,0 -3.1,0.7 -4.1,1.4 l -6.7,5.3 c -1,0.8 -2.8,1.4 -4.1,1.4 h -89 c -1.3,0 -3.1,-0.6 -4.1,-1.4 l -7,-5.4 c -1,-0.8 -2.9,-1.4 -4.1,-1.4 H 10.7 c -0.8,0 -1.5,-0.7 -1.5,-1.5 V 215 c 0,-0.8 0.7,-1.5 1.5,-1.5 h 142 c 0.8,0 1.7,0.7 2,1.5 l 0.1,0.5 c 0.2,0.8 1.1,1.5 2,1.5 h 4.9 c 0.8,0 1.7,-0.7 1.9,-1.5 l 0.1,-0.5 c 0.2,-0.8 1.1,-1.5 1.9,-1.5 h 138.7 c 0.8,0 1.5,0.7 1.5,1.5 z"
       id="path56"
       inkscape:connector-curvature="0"
       style="fill:#cccccc" />
    <path
       d="m 119,216 h 76.8 v 12.3 H 119 Z"
       id="path58"
       inkscape:connector-curvature="0"
       style="fill:#737373" />
    <path
       d="m 119,215.8 h 60.7 v 4.3 H 119 Z"
       id="path60"
       inkscape:connector-curvature="0"
       style="fill:#bfbfbf" />
    <path
       d="m 179.7,215.8 h 16.1 v 4.3 h -16.1 z"
       id="path62"
       inkscape:connector-curvature="0"
       style="fill:#8c8c8c" />
    <path
       d="m 273.4,75.5 h -79.2 c -0.6,0 -1,-0.4 -1,-1 0,-0.6 0.4,-1 1,-1 h 79.2 c 0.6,0 1,0.4 1,1 0,0.5 -0.5,1 -1,1 z"
       id="path64"
       inkscape:connector-curvature="0"
       style="fill:#ff0000" />
    <path
       d="m 184.1,214.1 v 2.9 c 0,0.8 -0.5,1.4 -1.3,1.4 -0.8,0 -1.2,-0.6 -1.2,-1.4 v -2.9 c 0,-0.8 0.5,-1.4 1.2,-1.4 0.8,0 1.3,0.6 1.3,1.4 z"
       id="path66"
       inkscape:connector-curvature="0"
       style="fill:#006837" />
    <path
       d="m 304.3,216 c 0.8,0 1.5,-0.7 1.5,-1.5 V 84.2 c 0,-5.5 -4.5,-10 -10,-10 h -124 c -5.5,0 -10,4.5 -10,10 v 130.3 c 0,0.8 0.7,1.5 1.5,1.5 h 6.8 c 0.8,0 2.1,-0.3 2.8,-0.7 l 59.4,-31.6 c 0.7,-0.4 1.9,-0.4 2.7,0 l 63,31.7 c 0.7,0.4 2,0.7 2.8,0.7 z"
       id="path68"
       inkscape:connector-curvature="0"
       style="fill:#cccccc" />
    <path
       d="m 301.8,84.2 c 0,-3.3 -2.7,-5.9 -6,-5.9 h -124 c -3.3,0 -6,2.6 -6,5.9 v 131.3 c 0,0.5 0.4,1 1,1 h 10.5 c 0.6,0 1,-0.5 1,-1 v -1 c 0,-0.6 0.5,-1 1,-1 h 4.1 c 0.6,0 1,0.4 1,1 v 1 c 0,0.5 0.4,1 1,1 h 7.4 c 0.6,0 1.4,-0.2 1.9,-0.5 l 38.1,-23.4 c 0.5,-0.3 1.2,-0.3 1.7,0 l 38.6,23.4 c 0.5,0.3 1.3,0.5 1.9,0.5 h 7.4 c 0.5,0 1,-0.5 1,-1 v -1 c 0,-0.6 0.5,-1 1,-1 h 4.1 c 0.5,0 1,0.4 1,1 v 1 c 0,0.5 0.5,1 1,1 H 301 c 0.6,0 1,-0.5 1,-1 z"
       id="path70"
       inkscape:connector-curvature="0"
       style="fill:#e6e6e6" />
    <path
       d="m 273.3,217 c 0.6,0 1,-0.5 1,-1 v -90.2 c 0,-22.4 -18.1,-40.7 -40.5,-40.7 -22.4,0 -40.5,18.2 -40.5,40.6 V 216 c 0,0.5 0.5,1 1,1 h 8.3 c 0.6,0 1,-0.5 1,-1 v -0.2 c 0,-0.5 0.4,-1 1,-1 h 11.5 c 0.6,0 1.4,-0.1 2,-0.3 l 14.6,-4.9 c 0.5,-0.2 1.4,-0.2 1.9,0 l 14.6,5.1 c 0.5,0.2 1.4,0.3 1.9,0.3 h 12 c 0.5,0 1,0.5 1,1 0,0.5 0.5,1 1,1 z"
       id="path72"
       inkscape:connector-curvature="0"
       style="fill:#d9d9d9" />
    <path
       d="m 181,114 c 1.8,0 3,1.2 3,3 v 25.4 c 0,1.8 -1.2,3.2 -3,3.2 -1.8,0 -3,-1.4 -3,-3.2 v -21.8 h -12.3 l -2.8,-3.1 2.8,-3.4 H 181 Z m 105.7,0 c -1.8,0 -3.1,1.2 -3.1,3 v 25.4 c 0,1.8 1.5,3.2 3.3,3.2 1.8,0 3.3,-1.4 3.3,-3.2 V 120.6 H 302 l 2.8,-3.1 L 302,114 Z M 184.6,216 v -11.7 c 0,-1.8 -1.5,-3.2 -3.3,-3.2 -1.8,0 -3.3,1.4 -3.3,3.2 V 216"
       id="path74"
       inkscape:connector-curvature="0"
       style="fill:#cccccc" />
    <path
       d="m 188.6,214 c 0,0.6 -0.4,1 -1,1 h -12.5 c -0.6,0 -1,-0.4 -1,-1 v -7.5 c 0,-0.6 0.4,-1 1,-1 h 12.5 c 0.6,0 1,0.4 1,1 z m 101,2 v -11.6 c 0,-1.8 -1.5,-3.2 -3.3,-3.2 -1.8,0 -3.3,1.4 -3.3,3.2 V 216"
       id="path76"
       inkscape:connector-curvature="0"
       style="fill:#cccccc" />
    <g
       id="g84"
       style="fill:#b3b3b3">
      <path
         d="m 165.6,178 h 27.8 v 2 h -27.8 z m 0,4 h 27.8 v 2 h -27.8 z m 0,4 h 27.8 v 2 h -27.8 z m 0,4 h 27.8 v 2 h -27.8 z m 0,4 h 27.8 v 2 h -27.8 z"
         id="path78"
         inkscape:connector-curvature="0" />
      <g
         id="g82">
        <path
           d="m 274.3,178 h 27.8 v 2 h -27.8 z m 0,4 h 27.8 v 2 h -27.8 z m 0,4 h 27.8 v 2 h -27.8 z m 0,4 h 27.8 v 2 h -27.8 z m 0,4 h 27.8 v 2 h -27.8 z"
           id="path80"
           inkscape:connector-curvature="0" />
      </g>
    </g>
    <path
       d="m 264.1,216 v -57.8 c 0,-1.4 -1.1,-2.2 -2.5,-2.2 h -55.5 c -1.4,0 -2.5,0.9 -2.5,2.2 V 216 h 14 l 16.3,-11.1 15.8,11.1 z"
       id="path86"
       inkscape:connector-curvature="0"
       style="fill:#bfbfbf" />
    <path
       d="m 204.6,158 h 58 v 1.5 h -58 z"
       id="path88"
       inkscape:connector-curvature="0" />
    <path
       d="m 204.6,160 h 58 v 1 h -58 z"
       id="path90"
       inkscape:connector-curvature="0"
       style="fill:#b3b3b3" />
    <path
       d="m 207.1,160.5 h 1 v 35 h -1 z m 5,0 h 1 v 35 h -1 z m 5.5,0 h 1 V 182 h -1 z m 5,0 h 1 V 182 h -1 z m 5.5,0 h 1 V 182 h -1 z m 5,5 h 1 V 182 h -1 z"
       id="path92"
       inkscape:connector-curvature="0"
       style="fill:#b3b3b3" />
    <path
       d="m 230.5,167.8 0.5,0.5 2.6,-2.7 2.5,2.7 0.5,-0.5 -3,-3.3 z m 8.1,-7.3 h 1 V 182 h -1 z m 5,0 h 1 V 182 h -1 z m 5.5,0 h 1 V 182 h -1 z m 5,0 h 1 v 35 h -1 z m 5.5,0 h 1 v 35 h -1 z"
       id="path94"
       inkscape:connector-curvature="0"
       style="fill:#b3b3b3" />
    <path
       d="m 233.6,214 c 9.7,0 16,2 16,2 v -14.7 c 0,-8.9 -7.1,-16.1 -16,-16.1 -8.9,0 -16,7.2 -16,16 V 216 c 0,0 6.3,-2 16,-2 z"
       id="path96"
       inkscape:connector-curvature="0"
       style="fill:#a6a6a6" />
    <g
       id="g106"
       style="fill:#ff0000">
      <path
         d="m 216.4,139.6 c -0.1,0 -0.1,0 0,0 -3.1,-1.5 -4.6,-3.1 -4.5,-4.9 0.1,-1.4 1.2,-2.8 3.4,-3.9 2,-1.1 4.9,-1.9 8.3,-2.4 0.1,0 0.2,0.1 0.2,0.2 0,0.1 -0.1,0.2 -0.2,0.2 -6.9,1.1 -11.2,3.4 -11.3,5.9 -0.1,1.5 1.4,3.1 4.2,4.5 0.1,0 0.1,0.2 0.1,0.3 -0.1,0.1 -0.2,0.1 -0.2,0.1 z M 242.2,129 c -2.2,-0.4 -4.5,-0.6 -6.9,-0.7 -0.1,0 -0.2,-0.1 -0.2,-0.2 0,-0.1 0.1,-0.2 0.2,-0.2 2.4,0.1 4.7,0.4 6.9,0.7 0.1,0 0.2,0.1 0.2,0.2 0,0.1 -0.1,0.2 -0.2,0.2 z m -6.6,14 h -0.4 0.2 c 0.1,0 0.1,-0.1 0.2,-0.1 11.1,0 19.9,-2.9 20,-6.7 0,-1.3 -1,-2.6 -3,-3.8 -2,-1.2 -4.9,-2.2 -8.3,-2.9 -0.1,0 -0.2,-0.1 -0.2,-0.3 0,-0.1 0.1,-0.2 0.2,-0.2 3.5,0.7 6.4,1.8 8.4,3 2.2,1.3 3.3,2.7 3.2,4.2 -0.1,2 -2.2,3.7 -6.1,5 -3.7,1.2 -8.7,1.8 -14.2,1.8 z"
         id="path98"
         inkscape:connector-curvature="0" />
      <path
         d="m 239.4,132.4 5.5,-4.2 -6.5,2.6 -1.8,-1.9 0.6,2.6 -5.5,4.2 6.5,-2.6 1.8,1.9 z"
         id="path100"
         inkscape:connector-curvature="0" />
      <path
         d="m 232.5,137.6 c 0.1,-0.4 0.2,-0.3 0.6,-0.4 l 0.4,-0.1 -0.1,0.6 -0.4,0.1 c -0.4,0.1 -0.5,0.2 -0.5,-0.2 z m -0.8,-0.6 -0.3,1.5 c -0.1,0.4 0,0.6 0.5,0.5 l 2.3,-0.4 0.5,-2.7 -2.3,0.4 c -0.4,0.1 -0.6,0.3 -0.7,0.7 z m 14.8,-2.4 v 0.1 l 2.4,-0.4 c 0.2,0 0.4,-0.2 0.4,-0.4 0,-0.2 -0.1,-0.4 -0.3,-0.3 l -0.6,0.1 -1,0.2 h -0.2 c -0.3,0.1 -0.6,0.4 -0.7,0.7 z m -16.8,6.9 v -0.1 h 0.3 l 2.5,-0.4 c -0.1,0.5 -0.7,0.6 -1.8,0.8 l -1.1,0.2 -0.6,3.3 1.5,-0.2 c 3.7,-0.4 5.1,-2.3 5.5,-4.5 l 4.5,-0.7 0.7,-3.9 0.4,-0.1 c 0.4,-0.1 0.3,-0.1 0.3,0.3 l -0.7,3.6 3.2,-0.5 v -0.2 c 0.2,0.1 0.5,0.1 0.8,0.1 l 5.6,-0.9 0.5,-2.8 -0.4,-0.3 c 0.3,-0.4 0.6,-0.8 0.6,-1.2 l 0.1,-0.4 c 0.3,-1.7 -1.2,-2.1 -1.9,-2 l -3.2,0.5 c -0.6,0.1 -1.2,0.5 -1.6,1 -0.4,-0.4 -1.1,-0.6 -1.4,-0.5 l -3.5,0.4 0.4,0.9 3.2,-0.5 c 0.5,-0.1 0.8,0.1 0.9,0.5 0,0.1 -0.9,4.5 -0.9,4.5 l -1.2,0.2 0.6,-3.3 c 0.1,-0.4 0,-0.6 -0.5,-0.5 l -2.2,0.4 -0.7,3.9 -1.3,0.2 0.8,-4.5 -1,-1.2 -3.8,1.4 1.8,-0.3 -1.1,6.1 c -0.3,1.5 -1.9,3 -3.4,3.3 l -1.5,0.2 0.2,-1.2 1.1,-0.2 c 1,-0.2 2.1,-1.2 2.3,-2.2 l 0.1,-0.7 -3,0.5 c -0.6,0.1 -1,-0.3 -0.9,-1 l 0.5,-2.9 c 0.1,-0.5 0.4,-0.9 0.8,-1.2 v -0.1 l 1.5,-1.1 -0.9,0.1 c -0.5,0.1 -1.3,0.4 -1.9,1.1 -0.4,-0.5 -1.1,-0.7 -1.5,-0.6 l -3.2,0.5 0.5,-2.8 2.3,-0.4 c 1.2,-0.2 2.6,-1.6 2.9,-2.9 l 0.4,-1.9 c 0.2,-1.3 -0.7,-2.3 -1.9,-2.2 l -5.1,0.8 -1.1,5.9 -4.7,0.7 c -0.4,0.1 -0.8,0.5 -0.9,0.9 l -1.8,9.4 c -0.1,0.4 0.2,0.7 0.6,0.6 l 9,-1.4 0.7,-3.9 0.4,-0.1 c 0.4,-0.1 0.3,-0.1 0.3,0.3 l -0.7,3.6 z m -6.7,-2.1 -3,0.5 0.1,-0.6 2.4,-0.4 0.6,-3.2 -2.4,0.4 0.1,-0.6 3,-0.5 z m -0.2,1 -0.2,1.3 -5.3,0.8 1.7,-8.9 4.4,-0.7 -0.2,1.2 -3.1,0.5 -0.5,2.6 2.5,-0.4 -0.2,1.2 -2.5,0.4 -0.5,2.6 z m 6.1,0.3 -1.3,0.2 0.6,-3.3 c 0.1,-0.4 0,-0.6 -0.4,-0.5 l -2.2,0.4 -0.7,3.9 -1.3,0.2 1,-5.1 4.2,-0.7 c 0.6,-0.1 1,0.3 0.9,1 z m 8.3,-6.3 1.2,-0.2 -1,5.1 -1.3,0.2 z m 7.7,2.4 0.4,-2.4 c 0.1,-0.7 0.9,-1.5 1.6,-1.6 l 3,-0.5 c 0.5,-0.1 0.8,0.5 0.7,1 l -0.1,0.8 c -0.1,0.5 -0.7,1.1 -1.2,1.2 l -3.1,0.5 v 0.3 c -0.1,0.3 0.2,0.6 0.4,0.5 l 3.4,-0.5 -0.2,1.2 -3.8,0.7 c -0.7,0.1 -1.3,-0.4 -1.1,-1.2 z m -18.4,-6.6 0.4,-2.3 1.6,-0.3 c 0.2,0 0.3,0.1 0.3,0.3 l -0.3,1.6 c 0,0.2 -0.2,0.4 -0.4,0.4 z"
         id="path102"
         inkscape:connector-curvature="0" />
      <path
         d="m 236.8,131.3 -0.3,-1.4 h -0.2 l -0.1,0.3 c 0,0.2 -0.2,0.4 -0.4,0.5 l -1.3,0.2 c -0.2,0 -0.3,-0.1 -0.3,-0.3 l 0.7,-3.6 c 0,-0.2 0.2,-0.4 0.4,-0.5 l 1.3,-0.2 c 0.2,0 0.3,0.1 0.3,0.3 l -0.1,0.5 2.7,-0.4 0.1,-0.5 c 0.3,-1.4 -0.7,-2.4 -2,-2.2 l -2.6,0.4 c -1.3,0.2 -2.7,1.6 -3,3 l -0.7,3.8 c -0.3,1.4 0.7,2.4 2,2.2 l 0.9,-0.1 z m 1.9,-0.8 c 0.1,-0.2 0.1,-0.3 0.2,-0.5 l 0.1,-0.5 -1.1,0.2 z"
         id="path104"
         inkscape:connector-curvature="0" />
    </g>
    <path
       d="m 203.6,213.5 h 8.6 c 0.7,0 1.2,-0.6 1.2,-1.3 0,-0.7 -0.5,-1.3 -1.2,-1.3 h -8.6"
       id="path108"
       inkscape:connector-curvature="0" />
    <g
       id="g112">
      <path
         d="m 175.2,88.3 -2.2,-2.7 -1,1.2 0.5,0.4 -0.6,3.2 1.2,-0.5 -0.6,-0.6 0.3,-1.7 2.4,2.7 0.8,-3.7 0.8,-0.5 -1,-0.6 z m 2,-2.2 c 0.1,0.1 0.2,0.2 0.1,0.3 l -0.3,1.4 c 0,0.1 -0.1,0.2 -0.2,0.3 -0.1,0.1 -0.2,0.1 -0.3,0.1 0.1,0 0.2,0.1 0.2,0.1 0.1,0.1 0.1,0.1 0.1,0.2 l -0.3,1.4 c 0,0.1 -0.2,0.2 -0.3,0.3 -0.1,0.1 -0.2,0.1 -0.3,0.1 h 3.8 l 0.3,-1.4 c -0.1,0.3 -0.3,0.6 -0.5,0.8 -0.2,0.2 -0.6,0.4 -0.9,0.4 h -0.7 l 0.3,-1.7 h 0.4 l 0.3,0.3 c 0.1,0.1 0.2,0.3 0.3,0.4 l 0.4,-1.8 -0.4,0.4 c -0.1,0.1 -0.3,0.2 -0.5,0.3 h -0.4 l 0.4,-1.7 h 0.6 c 0.3,0 0.5,0 0.7,0.1 0.2,0.2 0.4,0.5 0.5,0.9 L 180.8,86 H 177 c 0,-0.1 0.1,0 0.2,0.1 z m 4.5,0.4 c -0.3,0.2 -0.5,0.6 -0.7,0.9 -0.2,0.3 -0.3,0.7 -0.3,1.1 0,0.3 0.1,0.7 0.2,0.9 0.1,0.3 0.3,0.6 0.6,0.7 0.3,0.2 0.6,0.3 0.8,0.3 h 0.7 c 0.2,0 0.3,-0.1 0.5,-0.2 l 0.8,-1.6 -0.6,0.3 c -0.2,0.1 -0.4,0.2 -0.7,0.2 -0.2,0 -0.5,0 -0.7,-0.1 -0.2,-0.1 -0.4,-0.4 -0.5,-0.6 -0.1,-0.3 -0.1,-0.5 0,-0.8 0.1,-0.3 0.2,-0.5 0.4,-0.7 0.2,-0.2 0.4,-0.4 0.6,-0.5 0.2,-0.1 0.4,-0.2 0.6,-0.2 l 0.6,0.9 0.7,-0.3 -0.5,-1.2 h -0.4 c -0.2,0 -0.3,0 -0.5,0.1 -0.2,0 -0.4,0.1 -0.7,0.2 z"
         id="path110"
         inkscape:connector-curvature="0"
         style="clip-rule:evenodd;fill:#cacaca;fill-rule:evenodd" />
    </g>
    <g
       id="g116"
       style="fill:#e6e6e6">
      <path
         d="m 198.3,78.4 v -4.2 c 0,-0.4 0.4,-0.7 0.7,-0.7 0.4,0 0.8,0.3 0.8,0.7 v 4.2 m 1.6,0 v -4.2 c 0,-0.4 0.4,-0.7 0.7,-0.7 0.4,0 0.8,0.3 0.8,0.7 v 4.2 m 1.7,0 v -4.2 c 0,-0.4 0.4,-0.7 0.7,-0.7 0.4,0 0.8,0.3 0.8,0.7 v 4.2 m 1.7,0 v -4.2 c 0,-0.4 0.4,-0.7 0.7,-0.7 0.4,0 0.7,0.3 0.7,0.7 v 4.2 m 1.7,0 v -4.2 c 0,-0.4 0.4,-0.7 0.7,-0.7 0.4,0 0.7,0.3 0.7,0.7 v 4.2 m 1.8,0 v -4.2 c 0,-0.4 0.4,-0.7 0.7,-0.7 0.4,0 0.7,0.3 0.7,0.7 v 4.2 m 1.7,0 v -4.2 c 0,-0.4 0.4,-0.7 0.7,-0.7 0.4,0 0.7,0.3 0.7,0.7 v 4.2 m 1.8,0 v -4.2 c 0,-0.4 0.4,-0.7 0.7,-0.7 0.4,0 0.7,0.3 0.7,0.7 v 4.2 m 1.8,0 v -4.2 c 0,-0.4 0.4,-0.7 0.7,-0.7 0.4,0 0.7,0.3 0.7,0.7 v 4.2 m 1.7,0 v -4.2 c 0,-0.4 0.4,-0.7 0.7,-0.7 0.4,0 0.7,0.3 0.7,0.7 v 4.2 m 1.8,0 v -4.2 c 0,-0.4 0.4,-0.7 0.7,-0.7 0.4,0 0.7,0.3 0.7,0.7 v 4.2 m 1.8,0 v -4.2 c 0,-0.4 0.4,-0.7 0.7,-0.7 0.4,0 0.7,0.3 0.7,0.7 v 4.2 m 1.7,0 v -4.2 c 0,-0.4 0.4,-0.7 0.7,-0.7 0.4,0 0.7,0.3 0.7,0.7 v 4.2 m 1.8,0 v -4.2 c 0,-0.4 0.4,-0.7 0.7,-0.7 0.4,0 0.7,0.3 0.7,0.7 v 4.2 m 1.7,0 v -4.2 c 0,-0.4 0.4,-0.7 0.7,-0.7 0.4,0 0.7,0.3 0.7,0.7 v 4.2 m 1.8,0 v -4.2 c 0,-0.4 0.4,-0.7 0.8,-0.7 0.4,0 0.7,0.3 0.7,0.7 v 4.2 m 1.7,0 v -4.2 c 0,-0.4 0.4,-0.7 0.8,-0.7 0.4,0 0.7,0.3 0.7,0.7 v 4.2 m 1.6,0 v -4.2 c 0,-0.4 0.4,-0.7 0.8,-0.7 0.4,0 0.7,0.3 0.7,0.7 v 4.2 m 1.7,0 v -4.2 c 0,-0.4 0.4,-0.7 0.8,-0.7 0.4,0 0.7,0.3 0.7,0.7 v 4.2 m 1.7,0 v -4.2 c 0,-0.4 0.4,-0.7 0.8,-0.7 0.4,0 0.7,0.3 0.7,0.7 v 4.2 m 1.6,0 v -4.2 c 0,-0.4 0.4,-0.7 0.8,-0.7 0.4,0 0.7,0.3 0.7,0.7 v 4.2 m 1.7,0 v -4.2 c 0,-0.4 0.4,-0.7 0.7,-0.7 0.4,0 0.8,0.3 0.8,0.7 v 4.2 m 1.6,0 v -4.2 c 0,-0.4 0.4,-0.7 0.8,-0.7 0.4,0 0.7,0.3 0.7,0.7 v 4.2"
         id="path114"
         inkscape:connector-curvature="0" />
    </g>
    <path
       d="M 157.9,128.4 V 67.6 c 0,-0.7 0.6,-1.3 1.3,-1.3 0.7,0 1.3,0.6 1.3,1.3 v 60.8 c 0,0.7 -0.6,1.3 -1.3,1.3 -0.7,0.1 -1.3,-0.5 -1.3,-1.3 z"
       id="path118"
       inkscape:connector-curvature="0"
       style="fill:#cccccc" />
    <path
       d="m 157.9,119 h 2.5 c 2.4,0 4.4,-2.8 4.4,-6.2 V 83.5 c 0,-3.4 2.8,-6.2 6.2,-6.2 h 125.5 c 3.4,0 6.2,2.8 6.2,6.2 v 29.3 c 0,3.4 2,6.2 4.4,6.2 h 2.5 V 68.1 H 157.9 Z"
       id="path120"
       inkscape:connector-curvature="0"
       style="fill:#e6e6e6" />
    <g
       id="g146">
      <path
         d="m 9.2,176.6 h 14.6 c 11.4,20.9 33.9,35.4 59.7,35.3 25.8,0 48.3,-14.6 59.6,-35.5 h 13.3 v 38.4 c 0,0.8 -0.7,1.5 -1.5,1.5 H 10.8 c -0.8,0 -1.5,-0.7 -1.5,-1.5 z"
         id="path122"
         inkscape:connector-curvature="0"
         style="fill:#e6e6e6" />
      <path
         d="m 44.9,206.2 c -1.2,0 -2.2,0.8 -2.6,1.9 h -4.4 c -1,0 -1.8,0.8 -1.8,1.8 0,1 0.8,1.8 1.8,1.8 h 7 c 1.5,0 2.7,-1.2 2.7,-2.7 0,-1.6 -1.2,-2.8 -2.7,-2.8 z m 107.6,-10.9 c 0,4 -3.3,7.3 -7.3,7.3 -4,0 -7.3,-3.3 -7.3,-7.3 0,-4 3.3,-7.3 7.3,-7.3 4,0 7.3,3.3 7.3,7.3 z"
         id="path124"
         inkscape:connector-curvature="0"
         style="fill:#cccccc" />
      <path
         d="m 33.1,199.8 c 0,5.3 -4.3,9.6 -9.6,9.6 -5.3,0 -9.6,-4.3 -9.6,-9.6 0,-5.3 4.3,-9.6 9.6,-9.6 5.3,-0.1 9.6,4.2 9.6,9.6 z m 5.9,10.1 c 0,0.6 -0.5,1 -1,1 -0.6,0 -1,-0.5 -1,-1 0,-0.6 0.5,-1 1,-1 0.5,-0.1 1,0.4 1,1 z"
         id="path126"
         inkscape:connector-curvature="0" />
      <path
         d="m 155.6,161.9 v -18.8 c 0,-0.6 0.4,-1 1,-1 0.6,0 1,0.4 1,1 v 18.8 c 0,0.6 -0.4,1 -1,1 -0.5,0 -1,-0.4 -1,-1 z M 5.2,128.4 V 67.6 c 0,-0.7 0.6,-1.3 1.3,-1.3 0.7,0 1.3,0.6 1.3,1.3 v 60.8 c 0,0.7 -0.6,1.3 -1.3,1.3 -0.7,0.1 -1.3,-0.5 -1.3,-1.3 z M 153.1,182 c 0,2.1 -1.7,3.9 -3.9,3.9 -2.1,0 -3.9,-1.7 -3.9,-3.9 0,-2.1 1.7,-3.9 3.9,-3.9 2.2,0 3.9,1.8 3.9,3.9 z"
         id="path128"
         inkscape:connector-curvature="0"
         style="fill:#cccccc" />
      <path
         d="m 46.9,208.9 c 0,1.1 -0.9,2 -2,2 -1.1,0 -2,-0.9 -2,-2 0,-1.1 0.9,-2 2,-2 1.1,0.1 2,0.9 2,2 z"
         id="path130"
         inkscape:connector-curvature="0"
         style="fill:#b3b3b3" />
      <path
         d="M 9.2,175.1 V 73.4 c 0,-0.8 0.7,-1.5 1.5,-1.5 H 155 c 0.8,0 1.5,0.7 1.5,1.5 v 101.7 z"
         id="path132"
         inkscape:connector-curvature="0"
         style="fill:#e6e6e6" />
      <path
         d="m 142.2,175.2 c 4.9,-9.3 7.7,-19.9 7.7,-31.1 0,-36.6 -29.7,-66.3 -66.3,-66.3 -36.6,0 -66.3,29.7 -66.3,66.3 0,11.2 2.8,21.8 7.7,31.1 z"
         id="path134"
         inkscape:connector-curvature="0"
         style="fill:#d9d9d9" />
      <path
         d="m 83.6,159 c -22.4,0 -42.9,6.1 -58.6,16.2 11.1,21 33.2,35.2 58.6,35.2 25.4,0 47.4,-14.3 58.6,-35.2 C 126.5,165.1 106,159 83.6,159 Z"
         id="path136"
         inkscape:connector-curvature="0" />
      <path
         d="m 20,85.8 -2.2,-2.7 -1,1.2 0.5,0.4 -0.6,3.2 1.2,-0.5 -0.6,-0.6 0.3,-1.7 2.4,2.7 0.8,-3.7 0.8,-0.5 -1,-0.6 z m 2,-2.3 c 0.1,0.1 0.2,0.2 0.1,0.3 l -0.3,1.4 c 0,0.1 -0.1,0.2 -0.2,0.3 -0.1,0.1 -0.2,0.1 -0.3,0.1 0.1,0 0.2,0.1 0.2,0.1 0.1,0.1 0.1,0.1 0.1,0.2 l -0.3,1.4 c 0,0.1 -0.2,0.2 -0.3,0.3 -0.1,0.1 -0.2,0.1 -0.3,0.1 h 3.8 l 0.3,-1.4 c -0.1,0.3 -0.3,0.6 -0.5,0.8 -0.2,0.2 -0.6,0.4 -0.9,0.4 H 22.7 L 23,85.8 h 0.4 l 0.3,0.3 c 0.1,0.1 0.2,0.3 0.3,0.4 l 0.4,-1.8 -0.4,0.4 c -0.1,0.1 -0.3,0.2 -0.5,0.3 h -0.4 l 0.4,-1.7 h 0.6 c 0.3,0 0.5,0 0.7,0.1 0.2,0.2 0.4,0.5 0.5,0.9 l 0.3,-1.3 h -3.8 c 0,0 0.1,0 0.2,0.1 z m 4.5,0.5 c -0.3,0.2 -0.5,0.6 -0.7,0.9 -0.2,0.3 -0.3,0.7 -0.3,1.1 0,0.3 0.1,0.7 0.2,0.9 0.1,0.3 0.3,0.5 0.6,0.7 0.3,0.2 0.6,0.3 0.8,0.3 h 0.7 c 0.2,0 0.3,-0.1 0.5,-0.2 l 0.8,-1.6 -0.6,0.3 c -0.2,0.1 -0.4,0.2 -0.7,0.2 -0.2,0 -0.5,0 -0.7,-0.1 -0.2,-0.1 -0.4,-0.4 -0.5,-0.6 -0.1,-0.3 -0.1,-0.5 0,-0.8 0.1,-0.3 0.2,-0.5 0.4,-0.7 0.2,-0.2 0.4,-0.4 0.6,-0.5 0.2,-0.1 0.4,-0.2 0.6,-0.2 l 0.6,0.9 0.7,-0.3 -0.5,-1.2 h -0.4 c -0.2,0 -0.3,0 -0.5,0.1 -0.2,0 -0.4,0.1 -0.7,0.2 -0.3,0.2 -0.6,0.3 -0.9,0.6 z"
         id="path138"
         inkscape:connector-curvature="0"
         style="clip-rule:evenodd;fill:#cacaca;fill-rule:evenodd" />
      <path
         d="m 141.6,208.9 c 0,1 -0.8,1.8 -1.8,1.8 h -19.1 c -1,0 -1.8,-0.8 -1.8,-1.8 0,-1 0.8,-1.8 1.8,-1.8 h 19.1 c 1,0 1.8,0.8 1.8,1.8 z"
         id="path140"
         inkscape:connector-curvature="0"
         style="fill:#cccccc" />
      <path
         stroke-miterlimit="10"
         d="m 130.3,207.1 v 3.5"
         id="path142"
         inkscape:connector-curvature="0"
         style="fill:none;stroke:#999999;stroke-width:0.38600001;stroke-miterlimit:10" />
      <path
         d="m 114.8,136.6 c -0.5,-0.4 -1.1,-0.7 -1.8,-0.7 h -7.5 c -0.3,0 -0.6,0 -0.9,0.1 -0.6,0.2 -1,0.5 -1.4,0.9 -0.4,0.4 -0.6,1 -0.6,1.5 v 5.9 c 0,0.1 0,0.2 0.2,0.2 h 2.4 c 0.2,0 0.2,0 0.2,-0.2 v -5.1 c 0,-0.4 0.2,-0.7 0.5,-0.9 0.2,-0.1 0.4,-0.1 0.6,-0.1 h 1.1 c 0.2,0 0.2,0.1 0.2,0.2 v 6 c 0,0.2 0,0.2 0.2,0.2 h 2.3 c 0.2,0 0.2,-0.1 0.2,-0.2 v -4.3 -1.7 c 0,-0.1 0,-0.2 0.1,-0.2 h 1.5 c 0.5,0 0.9,0.5 0.9,1 v 5.1 c 0,0.2 0,0.2 0.2,0.2 h 2.4 c 0.2,0 0.2,0 0.2,-0.2 v -5.5 c 0,-0.9 -0.4,-1.6 -1,-2.2 z m 0.1,7.4 h -1.1 c -0.2,0 -0.2,0 -0.2,-0.2 v -4.5 c 0,-0.6 -0.2,-1.1 -0.7,-1.4 -0.3,-0.2 -0.6,-0.2 -0.9,-0.2 h -1.9 c -0.2,0 -0.2,0 -0.2,0.2 v 6 c 0,0.2 0,0.3 -0.2,0.2 h -0.9 c -0.2,0 -0.2,-0.1 -0.2,-0.2 V 138 c 0,-0.2 -0.1,-0.3 -0.3,-0.2 h -1.9 c -0.6,0 -1.1,0.2 -1.4,0.7 -0.2,0.3 -0.2,0.6 -0.2,0.9 v 4.5 c 0,0.2 0,0.2 -0.2,0.2 h -1.1 c -0.1,0 -0.2,0 -0.2,-0.2 v -5.3 c 0,-0.9 0.7,-1.6 1.5,-1.8 0.3,-0.1 0.6,-0.1 0.9,-0.1 h 7.5 c 0.8,0 1.4,0.4 1.8,1.1 0.2,0.3 0.3,0.7 0.3,1 v 5.1 c -0.2,0 -0.2,0.1 -0.4,0.1 z m -56.8,-8 h -7 c -0.6,0 -1.1,0 -1.7,0.1 -0.6,0.1 -1.2,0.3 -1.7,0.7 -0.6,0.4 -1,1 -1.4,1.6 -0.5,0.9 -0.6,1.9 -0.4,2.8 0.2,0.9 0.6,1.7 1.3,2.3 0.8,0.7 1.7,1.1 2.7,1.1 H 58 c 0.1,0 0.2,0 0.2,-0.2 v -1.8 c 0,-0.2 0,-0.2 -0.2,-0.2 h -7.4 c -0.7,0 -1.3,-0.3 -1.7,-0.8 -0.3,-0.4 -0.5,-0.9 -0.4,-1.4 0,-0.5 0.2,-1 0.7,-1.4 0.4,-0.3 0.8,-0.5 1.3,-0.5 h 7.6 c 0.2,0 0.2,0 0.2,-0.2 v -1.9 c 0,-0.2 0,-0.2 -0.2,-0.2 z m -0.4,1.5 c 0,0.2 0,0.2 -0.2,0.2 h -6.8 c -1,0 -2.1,0.8 -2.4,1.7 -0.4,1 -0.2,1.8 0.4,2.6 0.4,0.5 0.9,0.8 1.5,1 h 7.4 c 0.2,0 0.2,0 0.2,0.2 v 0.6 c 0,0.2 0,0.2 -0.2,0.2 h -7.4 c -0.9,0 -1.6,-0.3 -2.3,-0.9 -0.6,-0.5 -0.9,-1.1 -1.1,-1.8 -0.3,-1.2 -0.1,-2.2 0.6,-3.2 0.6,-0.8 1.3,-1.2 2.3,-1.4 0.2,-0.1 0.4,-0.1 0.7,-0.1 h 7.3 c 0.2,0 0.2,0 0.2,0.2 -0.2,0.3 -0.2,0.5 -0.2,0.7 z m 29.9,4.9 c -0.1,-0.6 -0.3,-1.1 -0.6,-1.5 -0.1,-0.1 0,-0.2 0,-0.3 0.2,-0.2 0.3,-0.4 0.4,-0.7 0.2,-0.6 0.3,-1.2 0.2,-1.8 -0.2,-0.6 -0.5,-1.2 -1,-1.6 -0.5,-0.4 -1.1,-0.6 -1.8,-0.6 h -9.6 c -0.2,0 -0.2,0 -0.2,0.2 v 8.2 c 0,0.1 0,0.2 0.2,0.2 h 2.4 c 0.2,0 0.2,0 0.2,-0.2 v -2.5 c 0,-0.2 0.1,-0.2 0.2,-0.2 h 6.1 c 0.5,0.1 0.8,0.5 0.8,0.9 v 1.8 c 0,0.1 0,0.2 0.2,0.2 h 2.4 c 0.1,0 0.2,-0.1 0.2,-0.2 v -1.5 c -0.1,-0.1 -0.1,-0.2 -0.1,-0.4 z m -0.8,1.6 h -1.2 c -0.1,0 -0.2,0 -0.2,-0.2 v -1.3 c 0,-0.5 -0.4,-1.2 -1,-1.3 -0.2,-0.1 -0.5,-0.1 -0.8,-0.1 h -6.5 c -0.2,0 -0.2,0.1 -0.2,0.2 v 2.5 c 0,0.2 0,0.2 -0.2,0.2 h -1.1 c -0.2,0 -0.2,0 -0.2,-0.2 v -6.3 -0.6 c 0,-0.2 0,-0.3 0.3,-0.3 h 9 c 1,0 1.8,0.7 2.1,1.7 0.2,0.9 0,1.6 -0.7,2.2 -0.1,0.1 -0.2,0.2 0,0.4 0.2,0.2 0.3,0.4 0.5,0.7 0.2,0.3 0.3,0.6 0.3,1 v 1.3 C 87,144 87,144 86.8,144 Z M 69.7,136.8 C 69,136.3 68.3,136 67.5,136 h -8.4 c -0.2,0 -0.2,0 -0.2,0.2 v 8.2 c 0,0.2 0,0.2 0.2,0.2 H 68 c 1.1,-0.2 2,-0.8 2.7,-1.8 0.4,-0.6 0.7,-1.3 0.8,-2 0.1,-0.7 0,-1.3 -0.2,-2 -0.4,-0.8 -0.9,-1.5 -1.6,-2 z m 0.8,5.1 c -0.2,0.3 -0.3,0.6 -0.6,0.9 -0.3,0.3 -0.6,0.6 -1,0.8 -0.4,0.2 -0.9,0.4 -1.4,0.4 h -7.9 c -0.2,0 -0.2,0 -0.2,-0.2 v -7 c 0,-0.2 0,-0.2 0.2,-0.2 h 7.7 c 0.8,0 1.5,0.3 2.2,0.9 0.5,0.4 0.9,1 1.1,1.6 0.1,0.3 0.2,0.5 0.2,0.8 0.1,0.8 0,1.4 -0.3,2 z m 30.4,-4.6 c -0.3,-0.4 -0.8,-0.7 -1.2,-0.9 -0.5,-0.2 -1.1,-0.4 -1.6,-0.4 h -6.6 c -0.9,0.2 -1.6,0.5 -2.3,1.1 -0.4,0.4 -0.8,0.9 -1,1.4 -0.4,0.9 -0.4,1.8 -0.2,2.7 0.2,0.9 0.7,1.7 1.5,2.3 0.8,0.6 1.7,0.9 2.7,0.9 H 98 c 0.3,0 0.6,0 0.8,-0.1 0.6,-0.1 1.1,-0.4 1.6,-0.8 0.6,-0.5 1.1,-1 1.4,-1.7 0.3,-0.8 0.4,-1.6 0.3,-2.4 -0.2,-0.7 -0.6,-1.4 -1.2,-2.1 z m 0.5,3.7 c -0.2,0.8 -0.6,1.5 -1.2,2.1 -0.4,0.3 -0.9,0.6 -1.4,0.7 -0.4,0.1 -0.8,0.1 -1.2,0.1 h -5.4 c -1.5,0 -2.9,-1 -3.4,-2.3 -0.5,-1.3 -0.3,-2.5 0.5,-3.6 0.5,-0.7 1.2,-1.1 2.1,-1.3 0.3,-0.1 0.6,-0.1 0.8,-0.1 h 5.9 c 0.8,0 1.5,0.3 2.1,0.8 0.4,0.4 0.8,0.8 1,1.3 0.3,0.8 0.4,1.6 0.2,2.3 z m 19.6,-4.1 h -2.9 c 0.1,-0.1 0.2,-0.1 0.3,-0.1 h 1.2 c 0.2,0 0.3,0 0.4,-0.1 0.9,-0.3 1.3,-1.1 1.1,-2 -0.2,-0.8 -0.8,-1.3 -1.6,-1.3 h -2.8 c -0.2,0 -0.2,0.1 -0.2,0.3 v 1 c 0,0.2 0,0.2 0.2,0.2 h 2.2 c 0.2,0 0.4,0.1 0.4,0.2 0,0.2 -0.1,0.2 -0.4,0.2 h -1.2 c -0.2,0 -0.3,0 -0.5,0.1 -0.8,0.2 -1.1,0.8 -1.1,1.6 v 1.3 c 0,0.1 0,0.2 0.2,0.2 h 4.8 c 0.1,0 0.2,-0.1 0.2,-0.2 v -1.2 c -0.1,-0.1 -0.2,-0.2 -0.3,-0.2 z m -0.1,1.2 c 0,0.1 0,0.2 -0.2,0.2 h -4.1 c -0.2,0 -0.2,-0.1 -0.2,-0.3 0,-0.4 0,-0.8 0.1,-1.2 0.1,-0.4 0.4,-0.9 0.9,-1 0.2,0 0.4,-0.1 0.7,-0.1 h 1.2 c 0.3,0 0.5,-0.2 0.5,-0.4 0,-0.3 -0.1,-0.5 -0.4,-0.6 h -2.3 c -0.2,0 -0.2,0 -0.2,-0.2 v -0.4 c 0,-0.2 0.1,-0.2 0.3,-0.2 h 2.3 c 0.2,0 0.4,0 0.5,0.1 0.5,0.1 0.8,0.5 1,1 0.2,0.8 -0.2,1.5 -1,1.7 h -1.6 c -0.3,0 -0.6,0.3 -0.6,0.5 0,0.1 0,0.2 0.2,0.2 h 2.9 c 0.2,0 0.2,0 0.2,0.2 -0.2,0 -0.2,0.2 -0.2,0.5 z m -47,1.3 c -0.3,-0.2 -0.6,-0.2 -1,-0.2 -0.7,0 -1.4,0.8 -1.2,1.6 0.2,0.6 0.6,0.9 1.4,0.9 h 0.4 c 0.7,-0.1 1,-0.6 1,-1 0.1,-0.6 -0.1,-1 -0.6,-1.3 z m 0,1.3 c -0.1,0.2 -0.3,0.3 -0.5,0.4 h -0.7 c -0.2,0 -0.4,-0.4 -0.4,-0.6 0,-0.3 0.2,-0.5 0.5,-0.5 h 0.3 c 0.2,0 0.5,0 0.7,0.2 0.1,0 0.1,0.2 0.1,0.5 z m 10.4,-3 h -7 c -0.1,0 -0.2,0 -0.2,0.2 v 1.9 c 0,0.2 0,0.2 0.2,0.2 h 6.6 c 0.3,0 0.6,0 0.9,-0.1 0.5,-0.2 0.8,-0.8 0.7,-1.3 -0.2,-0.7 -0.6,-0.9 -1.2,-0.9 z m 0.4,1.5 c -0.1,0.1 -0.3,0.1 -0.5,0.1 H 78 c -0.2,0 -0.3,-0.1 -0.3,-0.3 v -0.5 c 0,-0.2 0,-0.2 0.2,-0.2 h 6.5 c 0.2,0 0.4,0.1 0.5,0.3 0.1,0.3 0,0.4 -0.2,0.6 z m -16.4,-0.9 c -0.4,-0.3 -0.9,-0.6 -1.4,-0.6 h -5.6 c -0.2,0 -0.2,0 -0.2,0.2 v 4.9 c 0,0.2 0.1,0.2 0.2,0.2 h 5.6 c 0.2,0 0.4,0 0.6,-0.1 1,-0.4 1.7,-1.2 1.8,-2.3 0.1,-0.9 -0.3,-1.7 -1,-2.3 z m -1.3,4.1 h -5.2 c -0.2,0 -0.2,0 -0.2,-0.2 v -3.7 c 0,-0.1 0,-0.2 0.2,-0.2 h 4.8 c 1,0 1.8,0.5 2,1.6 0.3,1.2 -0.3,2.2 -1.6,2.5 z m 30.2,-4.7 H 93 c -0.5,0 -1,0 -1.5,0.3 -0.5,0.3 -0.9,0.7 -1.2,1.2 -0.2,0.5 -0.3,1 -0.2,1.5 0.1,0.6 0.3,1 0.7,1.4 0.6,0.6 1.3,0.9 2.1,0.9 h 4.7 c 0.5,-0.1 1,-0.3 1.4,-0.7 0.5,-0.5 0.8,-1 0.8,-1.7 0.1,-0.6 0,-1.2 -0.3,-1.7 -0.5,-0.8 -1.3,-1.2 -2.3,-1.2 z m 1.5,4.2 c -0.4,0.4 -1,0.5 -1.5,0.5 h -4.1 c -0.5,0 -1,-0.1 -1.4,-0.4 -0.5,-0.3 -0.8,-0.8 -0.9,-1.4 -0.1,-0.6 0.1,-1.2 0.4,-1.6 0.4,-0.5 0.8,-0.7 1.4,-0.7 h 4.9 c 0.5,0 0.9,0.2 1.2,0.4 0.4,0.3 0.6,0.7 0.7,1.1 0.1,0.8 -0.1,1.5 -0.7,2.1 z"
         id="path144"
         inkscape:connector-curvature="0"
         style="clip-rule:evenodd;fill:#666666;fill-rule:evenodd" />
    </g>
    <path
       d="m 314.7,65.8 c 0,1.3 -1,2.3 -2.3,2.3 H 2.3 C 1,68.1 0,67.1 0,65.8 V 4.7 C 0,3.4 1,2.4 2.3,2.4 h 310 c 1.3,0 2.3,1 2.3,2.3 v 61.1 z"
       id="path148"
       inkscape:connector-curvature="0"
       style="fill:#262626" />
    <path
       d="m 115.8,14.7 h 80.5 v 40.4 h -80.5 z"
       id="path150"
       inkscape:connector-curvature="0"
       style="fill:#404040" />
    <g
       id="g162">
      <path
         d="m 119.5,64.8 c 0,0.9 -0.7,1.5 -1.5,1.5 H 10.1 C 9.2,66.3 8.6,65.6 8.6,64.8 V 13.9 c 0,-0.9 0.7,-1.5 1.5,-1.5 H 118 c 0.9,0 1.5,0.7 1.5,1.5 z"
         id="path152"
         inkscape:connector-curvature="0"
         style="fill:#333333" />
      <path
         d="m 117,56.5 c 0,0.4 -0.3,0.8 -0.8,0.8 H 16 c -0.4,0 -0.8,-0.3 -0.8,-0.8 v -41 c 0,-0.4 0.3,-0.8 0.8,-0.8 h 100.2 c 0.4,0 0.8,0.3 0.8,0.8 z"
         id="path154"
         inkscape:connector-curvature="0"
         style="fill:#404040" />
      <g
         id="g160">
        <path
           d="m 195.2,64.8 c 0,0.9 0.7,1.5 1.5,1.5 h 107.8 c 0.9,0 1.5,-0.7 1.5,-1.5 V 13.9 c 0,-0.9 -0.7,-1.5 -1.5,-1.5 H 196.7 c -0.9,0 -1.5,0.7 -1.5,1.5 z"
           id="path156"
           inkscape:connector-curvature="0"
           style="fill:#333333" />
        <path
           d="m 197.7,56.5 c 0,0.4 0.3,0.8 0.8,0.8 h 100.2 c 0.4,0 0.8,-0.3 0.8,-0.8 v -41 c 0,-0.4 -0.3,-0.8 -0.8,-0.8 H 198.4 c -0.4,0 -0.8,0.3 -0.8,0.8 v 41 z"
           id="path158"
           inkscape:connector-curvature="0"
           style="fill:#404040" />
      </g>
    </g>
    <path
       d="M 39.5,5.7 H 62.7 V 9.8 H 39.5 Z m 90.5,0 h 54.8 v 6.7 H 130 Z m 121.4,0 h 23.2 v 4.1 h -23.2 z"
       id="path164"
       inkscape:connector-curvature="0" />
    <g
       id="g168">
      <path
         d="m 261.6,21.2 h 5.8 v 2.1 h -5.8 z"
         id="path166"
         inkscape:connector-curvature="0"
         style="fill:#006837" />
    </g>
    <g
       id="g174">
      <g
         id="g172"
         style="fill:#cccccc">
        <path
           d="m 21.6,22.9 h 1.8 v 5.8 h -1.8 z m 2.5,0 h 2.7 l 3.3,4.2 v -4.2 h 1.8 v 5.8 h -2.7 l -3.3,-4.2 v 4.2 h -1.8 z m 8,0 h 6.7 v 1.4 h -2.5 v 4.3 H 34.5 V 24.3 H 32 v -1.4 z m 6.9,0 h 6.3 v 1.3 h -4.5 v 0.9 h 4.3 v 1.2 h -4.3 v 0.9 h 4.6 v 1.4 H 39 Z m 7,0 h 5.3 c 1.4,0 1.7,0.7 1.7,1.7 V 25 c 0,0.8 -0.2,1.2 -1,1.4 0.5,0.1 1,0.3 1,1.3 v 1 H 51.2 V 28 c 0,-0.6 -0.2,-0.8 -0.7,-0.8 h -2.8 v 1.5 H 46 Z m 1.7,2.9 h 2.9 c 0.5,0 0.7,-0.2 0.7,-0.6 V 25 c 0,-0.5 -0.3,-0.6 -0.8,-0.6 h -2.8 z m 5.9,-2.9 h 6 v 1.4 h -4.2 v 1.1 h 4 v 1.3 h -4 v 2 h -1.8 z m 8.7,0 h 2.3 l 3.2,5.8 h -2 l -0.5,-1 h -3.6 l -0.5,1 h -2 z m 0,3.5 h 2.3 L 63.5,24.2 Z M 67.7,25 c 0,-1.7 0.9,-2.1 2.5,-2.1 h 2.1 c 2.5,0 2.8,0.5 2.8,2.2 h -1.8 v -0.2 c 0,-0.4 -0.3,-0.5 -0.8,-0.5 h -1.9 c -0.9,0 -1.1,0.4 -1.1,1.2 v 0.6 c 0,0.8 0.2,1.2 1,1.2 h 1.9 c 0.8,0 1,-0.1 1,-0.8 h 1.8 V 27 c 0,1 -0.3,1.7 -2.1,1.7 h -2.8 c -1.6,0 -2.5,-0.4 -2.5,-2.1 V 25 Z m 8,-2.1 H 82 v 1.3 h -4.5 v 0.9 h 4.3 v 1.2 h -4.3 v 0.9 h 4.6 v 1.4 h -6.4 z m 10.3,0 h 1.8 v 3.3 c 0,0.7 0.3,1 1,1 h 1.7 c 0.7,0 1,-0.3 1,-1 v -3.3 h 1.8 v 3.7 c 0,1.4 -0.7,2.1 -2.4,2.1 H 88.4 C 86.8,28.7 86,28 86,26.6 Z m 7.9,0 h 2.7 l 3.3,4.2 v -4.2 h 1.8 v 5.8 H 99 l -3.3,-4.2 v 4.2 h -1.8 z m 8.5,0 h 1.8 v 5.8 h -1.8 z m 2.1,0 h 6.7 v 1.4 h -2.5 v 4.3 H 107 v -4.3 h -2.5 z"
           id="path170"
           inkscape:connector-curvature="0" />
      </g>
    </g>
  </g>
</svg>
