<?xml version="1.0" encoding="UTF-8" standalone="no"?>
<svg
   xmlns:dc="http://purl.org/dc/elements/1.1/"
   xmlns:cc="http://creativecommons.org/ns#"
   xmlns:rdf="http://www.w3.org/1999/02/22-rdf-syntax-ns#"
   xmlns:svg="http://www.w3.org/2000/svg"
   xmlns="http://www.w3.org/2000/svg"
   xmlns:sodipodi="http://sodipodi.sourceforge.net/DTD/sodipodi-0.dtd"
   xmlns:inkscape="http://www.inkscape.org/namespaces/inkscape"
   viewBox="0 0 140.04033 145.28876"
   version="1.1"
   id="svg80"
   sodipodi:docname="controller.svg"
   width="140.04033"
   height="145.28876"
   inkscape:version="0.92.4 5da689c313, 2019-01-14">
  <metadata
     id="metadata86">
    <rdf:RDF>
      <cc:Work
         rdf:about="">
        <dc:format>image/svg+xml</dc:format>
        <dc:type
           rdf:resource="http://purl.org/dc/dcmitype/StillImage" />
      </cc:Work>
    </rdf:RDF>
  </metadata>
  <defs
     id="defs84" />
  <sodipodi:namedview
     pagecolor="#ffffff"
     bordercolor="#666666"
     borderopacity="1"
     objecttolerance="10"
     gridtolerance="10"
     guidetolerance="10"
     inkscape:pageopacity="0"
     inkscape:pageshadow="2"
     inkscape:window-width="640"
     inkscape:window-height="480"
     id="namedview82"
     showgrid="false"
     inkscape:zoom="1.6243487"
     inkscape:cx="70.020828"
     inkscape:cy="72.644375"
     inkscape:window-x="0"
     inkscape:window-y="0"
     inkscape:window-maximized="0"
     inkscape:current-layer="svg80" />
  <path
     d="m 116.62433,130.85988 h 4.961 c 0,0 10.319,-15.479 10.319,-58.641004 0,-43.162 -10.319,-58.641 -10.319,-58.641 h -4.961"
     id="path2"
     inkscape:connector-curvature="0"
     style="fill:#787777" />
  <path
     d="m 94.464328,3.3258757 c -9.26,-1.984 -25.288,-4.365 -44.187,-2.38099998 -15.294,1.60599998 -20.404,8.34599998 -20.473,12.13800028 -0.125,6.85 17.124,11.749 27.088,13.792 15.479,3.175 19.448,2.91 19.448,2.91 z m 0.001,138.6370043 c -9.261,1.984 -25.288,4.365 -44.187,2.381 -15.295,-1.606 -20.404,-8.346 -20.473,-12.138 -0.125,-6.85 17.125,-11.749 27.088,-13.792 15.479,-3.175 19.448,-2.91 19.448,-2.91 z"
     stroke-miterlimit="10"
     id="path4"
     inkscape:connector-curvature="0"
     style="fill:#a3a3a4;stroke:#a3a3a4;stroke-width:0.39700001;stroke-linecap:round;stroke-linejoin:round;stroke-miterlimit:10" />
  <path
     d="m 0.00432808,72.595876 c -0.397,10.716 26.59199992,15.954 50.27399992,19.79 22.606,3.662 21.035,5.556 23.813,19.315004 1.511,7.484 -0.794,30.428 24.739,30.561 25.534002,0.132 28.311002,-37.837 28.311002,-37.837 l 6.946,-3.572 c 0,0 5.953,-15.160004 5.953,-28.258004 0,-13.098 -5.953,-28.257 -5.953,-28.257 l -6.946,-3.572 c 0,0 -2.778,-37.9690003 -28.312002,-37.8370003 -25.534,0.132 -23.227,23.0770003 -24.738,30.5610003 -2.778,13.759 -1.207,15.653 -23.813,19.315 -23.682,3.837 -50.67099992,9.075 -50.27399992,19.791 z"
     id="path6"
     inkscape:connector-curvature="0"
     style="fill:#b2b2b2" />
  <circle
     cx="97.772331"
     cy="26.117876"
     r="14.349"
     stroke-miterlimit="10"
     id="circle8"
     style="fill:#a3a3a4;stroke:#a3a3a4;stroke-width:0.39700001;stroke-linecap:round;stroke-linejoin:round;stroke-miterlimit:10" />
  <path
     d="m 86.660328,28.757876 v -4.955 c 0,-0.547 0.445,-0.992 0.991,-0.992 h 6.732 v -6.57 c 0,-0.546 0.446,-0.991 0.992,-0.991 h 4.955002 c 0.547,0 0.991,0.444 0.991,0.991 v 6.57 h 6.57 c 0.548,0 0.992,0.445 0.992,0.992 v 4.955 a 0.992,0.992 0 0 1 -0.992,0.991 h -6.57 v 6.247 a 0.991,0.991 0 0 1 -0.991,0.991 h -4.955002 a 0.992,0.992 0 0 1 -0.991,-0.991 v -6.247 h -6.732 a 0.993,0.993 0 0 1 -0.992,-0.991 z"
     id="path10"
     inkscape:connector-curvature="0"
     style="fill:#525151" />
  <path
     d="m 95.195328,79.272876 a 7.09,7.09 0 1 1 0,-14.178 7.09,7.09 0 0 1 0,14.178 z"
     stroke-miterlimit="10"
     id="path12"
     inkscape:connector-curvature="0"
     style="fill:#a3a3a4;stroke:#a3a3a4;stroke-width:0.39700001;stroke-linecap:round;stroke-linejoin:round;stroke-miterlimit:10" />
  <circle
     transform="rotate(-76.714)"
     cx="-55.269306"
     cy="80.081757"
     id="ellipse14"
     r="15.622"
     style="fill:#525151" />
  <path
     d="m 104.98233,130.29488 c -5.589002,0 -10.120002,-4.531 -10.120002,-10.121 0,-5.589 4.531,-10.121 10.120002,-10.121 5.59,0 10.121,4.531 10.121,10.121 -0.001,5.589 -4.531,10.121 -10.121,10.121 z"
     stroke-miterlimit="10"
     id="path16"
     inkscape:connector-curvature="0"
     style="fill:#afafaf;stroke:#a3a3a4;stroke-width:0.39700001;stroke-miterlimit:10" />
  <path
     stroke-miterlimit="10"
     d="m 92.315328,101.78788 -3.275,3.274"
     id="path18"
     inkscape:connector-curvature="0"
     style="fill:#a3a3a4;stroke:#a3a3a4;stroke-width:1.19099998;stroke-miterlimit:10" />
  <circle
     cx="97.772331"
     cy="26.117876"
     r="2.3099999"
     id="circle20"
     style="fill:#3d3d3d" />
  <path
     stroke-miterlimit="10"
     d="m 92.522328,24.356876 v 3.523 l -3.788,-1.762 z m 10.500002,3.523 v -3.523 l 3.788,1.761 z m -3.489002,-7.012 h -3.522 l 1.761,-3.787 z m -3.522,10.501 h 3.522 l -1.761,3.787 z"
     id="path22"
     inkscape:connector-curvature="0"
     style="fill:#3d3d3d;stroke:#3d3d3d;stroke-width:0.39700001;stroke-linejoin:round;stroke-miterlimit:10" />
  <path
     d="m 95.195328,77.740876 a 5.557,5.557 0 1 1 0,-11.114 5.557,5.557 0 0 1 0,11.114 z"
     id="path24"
     inkscape:connector-curvature="0"
     style="fill:#bd3439" />
  <path
     d="m 96.492328,104.26388 a 5.8875,5.8875 0 1 1 0,-11.775004 5.8875,5.8875 0 0 1 0,11.775004 z"
     id="path26"
     inkscape:connector-curvature="0"
     style="fill:#1b8b58" />
  <path
     d="m 58.680328,65.491876 6.652,-2.674 6.595,2.812 2.675,6.651 -2.812,6.595 -6.652,2.675 -6.595,-2.812 -2.674,-6.652 z"
     id="path28"
     inkscape:connector-curvature="0"
     style="fill:#202020" />
  <circle
     transform="rotate(-80.828)"
     cx="-93.969749"
     cy="102.16302"
     id="ellipse30"
     r="5.8870001"
     style="fill:#1a3e8e" />
  <circle
     transform="rotate(-76.714)"
     cx="-55.269306"
     cy="80.081757"
     id="ellipse32"
     r="7.4860001"
     style="fill:#b2b2b2" />
  <circle
     transform="rotate(-76.714)"
     cx="-55.269306"
     cy="80.081757"
     stroke-miterlimit="10"
     id="ellipse34"
     r="5.5009999"
     style="fill:none;stroke:#a3a3a4;stroke-width:0.39700001;stroke-linecap:round;stroke-linejoin:round;stroke-miterlimit:10" />
  <circle
     transform="rotate(-76.714)"
     cx="-55.269306"
     cy="80.081757"
     stroke-miterlimit="10"
     id="ellipse36"
     r="3.941"
     style="fill:none;stroke:#a3a3a4;stroke-width:0.39700001;stroke-linecap:round;stroke-linejoin:round;stroke-miterlimit:10" />
  <path
     d="m 65.235328,74.255876 a 2.072,2.072 0 1 1 0,-4.144 2.072,2.072 0 0 1 0,4.144 z"
     stroke-miterlimit="10"
     id="path38"
     inkscape:connector-curvature="0"
     style="fill:none;stroke:#a3a3a4;stroke-width:0.39700001;stroke-linecap:round;stroke-linejoin:round;stroke-miterlimit:10" />
  <g
     id="g46"
     style="clip-rule:evenodd;fill:#a3a3a4;fill-rule:evenodd"
     transform="translate(3.2808004e-4,-1.24278e-4)">
    <path
       d="m 126.257,72.598 c 0,4.174 -0.002,8.348 0.002,12.521 0.001,0.773 -0.165,1.501 -0.564,2.164 -0.682,1.132 -1.678,1.82 -2.991,2.004 A 4.106,4.106 0 0 1 118.202,86.479 4.31,4.31 0 0 1 118,85.13 V 62.893 c 0,-0.994 -0.008,-1.988 0.003,-2.981 0.019,-1.864 1.351,-3.513 3.165,-3.937 a 4.13,4.13 0 0 1 4.885,2.732 c 0.148,0.445 0.205,0.902 0.205,1.369 -0.002,4.174 -10e-4,8.348 -10e-4,12.522 z m -7.283,0 v 12.511 c 0,0.22 0.016,0.439 0.054,0.657 0.309,1.747 2.042,2.909 3.764,2.522 a 3.147,3.147 0 0 0 2.489,-3.102 c 0.002,-8.392 10e-4,-16.784 0,-25.176 0,-0.741 -0.229,-1.402 -0.688,-1.984 -1.061,-1.348 -3.064,-1.586 -4.405,-0.516 -0.822,0.655 -1.215,1.52 -1.215,2.568 z"
       id="path40"
       inkscape:connector-curvature="0" />
    <path
       d="m 121.398,62.082 h 0.109 c 0.805,0 1.608,0.002 2.413,-0.002 0.087,0 0.108,0.023 0.106,0.108 -0.005,0.319 -0.004,0.639 -10e-4,0.959 10e-4,0.067 -0.016,0.086 -0.084,0.086 -1.214,-0.002 -2.427,-0.002 -3.64,0 -0.073,0 -0.092,-0.019 -0.091,-0.091 0.004,-0.323 0.004,-0.646 0,-0.97 -0.002,-0.069 0.025,-0.103 0.078,-0.138 0.852,-0.548 1.702,-1.097 2.553,-1.647 a 0.313,0.313 0 0 0 0.094,-0.081 h -0.105 c -0.832,0 -1.664,-0.003 -2.495,0.003 -0.109,0.001 -0.128,-0.031 -0.126,-0.131 0.006,-0.306 0.005,-0.612 10e-4,-0.917 -10e-4,-0.073 0.012,-0.101 0.095,-0.1 1.209,0.003 2.419,0.003 3.629,0 0.083,0 0.093,0.028 0.092,0.099 -0.003,0.347 -0.004,0.695 0.001,1.042 0.001,0.072 -0.025,0.109 -0.083,0.146 -0.85,0.537 -1.699,1.076 -2.548,1.614 a 0.123,0.123 0 0 1 0.002,0.02 z m 1.231,19.082 c 0.374,0 0.731,-0.001 1.088,0.001 0.099,0 0.227,-0.042 0.289,0.016 0.063,0.059 0.018,0.188 0.019,0.287 0.003,0.251 -0.001,0.502 0.002,0.753 0.001,0.067 -0.01,0.094 -0.087,0.094 a 1104.74,1104.74 0 0 0 -3.641,0 c -0.065,0 -0.089,-0.014 -0.088,-0.084 0.004,-0.327 0.001,-0.653 0.002,-0.98 0,-0.037 -0.018,-0.081 0.051,-0.09 0.061,-0.007 0.01,-0.051 0.003,-0.069 a 2.014,2.014 0 0 1 -0.136,-0.632 c -0.025,-0.519 0.222,-0.899 0.641,-1.169 0.951,-0.612 1.87,0.013 2.065,0.753 0.094,0.357 0.028,0.694 -0.148,1.013 a 4.646,4.646 0 0 0 -0.06,0.107 z m -1.169,-0.001 c 0.182,0 0.365,0.003 0.547,-10e-4 0.26,-0.007 0.436,-0.176 0.443,-0.419 0.008,-0.25 -0.157,-0.452 -0.413,-0.461 a 20.741,20.741 0 0 0 -1.143,-0.002 c -0.164,0.003 -0.261,0.102 -0.291,0.269 a 1.036,1.036 0 0 0 -0.004,0.338 c 0.03,0.177 0.133,0.272 0.315,0.276 0.183,0.002 0.365,-10e-4 0.546,0 z m 0.992,-4.706 c 0.05,0.129 0.117,0.236 0.18,0.345 0.382,0.664 0.078,1.429 -0.501,1.815 a 0.458,0.458 0 0 1 -0.264,0.073 226.6,226.6 0 0 0 -1.649,0 c -0.067,0 -0.095,-0.009 -0.095,-0.087 0.005,-0.333 0.005,-0.667 10e-4,-1 -10e-4,-0.073 0.02,-0.091 0.091,-0.091 0.536,0.003 1.073,0.002 1.608,0.002 0.262,0 0.504,-0.319 0.438,-0.576 a 1.188,1.188 0 0 0 -0.091,-0.229 c -0.088,-0.174 -0.206,-0.265 -0.421,-0.259 -0.512,0.015 -1.024,0.003 -1.536,0.007 -0.074,0.001 -0.09,-0.02 -0.089,-0.091 0.004,-0.323 0.004,-0.646 0,-0.969 -0.002,-0.073 0.02,-0.09 0.091,-0.09 0.801,0.002 1.602,0.003 2.402,0 0.076,0 0.088,0.026 0.088,0.094 -0.003,0.319 -0.005,0.639 0.001,0.959 0.002,0.086 -0.028,0.105 -0.103,0.097 -0.046,-0.005 -0.094,0 -0.151,0 z m 0.081,-9.591 c 0.056,0.105 0.098,0.198 0.153,0.284 0.35,0.547 0.223,1.209 -0.199,1.655 -0.189,0.199 -0.396,0.315 -0.687,0.303 -0.491,-0.019 -0.983,-0.008 -1.474,-0.003 -0.098,10e-4 -0.118,-0.03 -0.115,-0.121 0.005,-0.316 0.005,-0.633 0,-0.949 -0.002,-0.085 0.019,-0.11 0.106,-0.109 0.526,0.005 1.052,0.002 1.577,0.002 0.289,0 0.529,-0.32 0.45,-0.602 a 1.146,1.146 0 0 0 -0.091,-0.217 c -0.087,-0.164 -0.201,-0.255 -0.407,-0.249 -0.505,0.015 -1.011,0.002 -1.515,0.008 -0.104,0.002 -0.123,-0.029 -0.121,-0.126 0.006,-0.309 0.005,-0.619 0.001,-0.928 -0.001,-0.069 0.014,-0.095 0.089,-0.094 0.805,0.003 1.609,0.002 2.413,0 0.062,0 0.081,0.015 0.081,0.08 -0.003,0.326 -0.003,0.653 0,0.979 0.001,0.065 -0.013,0.095 -0.084,0.087 -0.052,-0.004 -0.104,0 -0.177,0 z m 0.345,17.598 a 1.844,1.844 0 0 1 -0.372,1.135 c -0.549,0.721 -1.481,0.738 -2.058,0.038 -0.536,-0.651 -0.542,-1.694 -0.012,-2.35 0.573,-0.709 1.55,-0.687 2.09,0.049 0.244,0.333 0.349,0.71 0.352,1.128 z m -1.414,-0.46 c -0.247,0 -0.494,-0.003 -0.741,0.002 -0.178,0.003 -0.278,0.089 -0.317,0.264 a 0.919,0.919 0 0 0 -0.013,0.277 c 0.014,0.224 0.13,0.342 0.353,0.343 0.477,0.004 0.954,0.005 1.432,0 0.277,-0.002 0.445,-0.172 0.445,-0.433 -0.001,-0.279 -0.164,-0.448 -0.447,-0.452 -0.239,-0.004 -0.475,-10e-4 -0.712,-10e-4 z m 0.01,-10.202 c 0,-0.323 -0.002,-0.646 10e-4,-0.969 0.001,-0.069 -0.012,-0.095 -0.088,-0.094 -0.213,0.006 -0.426,10e-4 -0.639,0.003 -0.223,0.002 -0.341,0.117 -0.356,0.341 a 0.913,0.913 0 0 0 0.012,0.266 c 0.043,0.186 0.152,0.274 0.343,0.279 0.096,0.002 0.192,0.003 0.288,0 0.049,-0.002 0.066,0.012 0.065,0.062 -0.002,0.347 -0.002,0.694 0,1.041 0.001,0.082 -0.042,0.059 -0.084,0.043 a 1.425,1.425 0 0 1 -0.715,-0.624 c -0.404,-0.674 -0.331,-1.602 0.172,-2.188 0.552,-0.641 1.42,-0.643 1.973,-0.005 0.582,0.672 0.574,1.801 -0.019,2.455 a 1.303,1.303 0 0 1 -0.857,0.445 c -0.075,0.008 -0.102,-0.005 -0.101,-0.088 0.007,-0.321 0.005,-0.644 0.005,-0.967 z m 0.429,-0.616 v 0.165 c 0,0.298 0,0.298 0.301,0.278 a 0.435,0.435 0 0 0 0.417,-0.439 c 0.007,-0.245 -0.136,-0.417 -0.377,-0.443 -0.095,-0.01 -0.192,-0.002 -0.288,-0.005 -0.051,-0.002 -0.054,0.026 -0.053,0.064 z m -0.396,-3.395 c 0.399,0 0.798,-0.002 1.196,0.002 0.074,10e-4 0.093,-0.022 0.09,-0.092 -0.005,-0.144 10e-4,-0.289 -0.002,-0.433 -0.002,-0.055 0.01,-0.078 0.072,-0.079 0.274,-0.009 0.274,-0.011 0.274,0.266 0,0.089 0.003,0.179 -0.001,0.268 -0.002,0.054 0.013,0.071 0.069,0.07 0.133,-0.004 0.267,0.002 0.402,-0.002 0.058,-0.002 0.075,0.016 0.074,0.075 -0.002,0.34 -0.002,0.681 0,1.021 0.001,0.062 -0.015,0.084 -0.08,0.082 -0.13,-0.005 -0.261,0.002 -0.391,-0.003 -0.059,-0.002 -0.076,0.017 -0.074,0.075 0.004,0.151 -0.002,0.303 0.002,0.454 0.002,0.058 -0.015,0.074 -0.074,0.075 -0.274,0.004 -0.272,0.006 -0.274,-0.268 -0.002,-0.109 0.046,-0.253 -0.021,-0.315 -0.059,-0.054 -0.202,-0.018 -0.308,-0.018 -0.715,-10e-4 -1.43,-0.002 -2.146,0.002 -0.085,0 -0.109,-0.021 -0.108,-0.107 0.005,-0.326 0.005,-0.653 0.001,-0.98 -0.001,-0.071 0.016,-0.093 0.091,-0.092 0.403,0.001 0.806,-0.001 1.208,-0.001 z m -0.005,-4.701 c -0.398,0 -0.798,-0.002 -1.196,0.002 -0.078,0.001 -0.098,-0.019 -0.096,-0.097 0.004,-0.32 0.004,-0.639 0,-0.959 -10e-4,-0.071 0.019,-0.093 0.091,-0.093 0.801,0.003 1.602,0.003 2.402,0 0.075,0 0.09,0.023 0.089,0.093 -0.003,0.323 -0.003,0.646 0,0.97 0.001,0.066 -0.015,0.086 -0.084,0.086 -0.402,-0.003 -0.803,-0.002 -1.206,-0.002 z m 1.838,-0.576 c 0,-0.165 0.002,-0.33 -0.002,-0.495 -0.002,-0.059 0.018,-0.076 0.075,-0.074 0.182,0.003 0.365,0.002 0.547,0 0.047,0 0.065,0.012 0.065,0.063 -0.002,0.34 -0.002,0.681 0,1.021 0,0.05 -0.016,0.064 -0.064,0.063 a 17.237,17.237 0 0 0 -0.557,0 c -0.059,0.002 -0.067,-0.022 -0.066,-0.072 0.003,-0.169 0.002,-0.337 0.002,-0.506 z m 0.703,21.775 c 10e-4,0.317 -0.284,0.593 -0.616,0.593 a 0.615,0.615 0 0 1 -0.595,-0.591 c 0,-0.32 0.27,-0.588 0.593,-0.589 0.341,-0.001 0.618,0.262 0.618,0.587 z m -1.115,-0.002 a 0.512,0.512 0 0 0 0.495,0.504 c 0.284,0.001 0.526,-0.227 0.526,-0.498 0.001,-0.282 -0.222,-0.495 -0.52,-0.495 a 0.487,0.487 0 0 0 -0.501,0.489 z"
       id="path42"
       inkscape:connector-curvature="0" />
    <path
       d="m 123.462,86.075 c 0.017,0 0.035,-0.002 0.052,0 0.07,0.007 0.177,-0.034 0.202,0.02 a 0.425,0.425 0 0 1 -0.003,0.292 c -0.039,0.114 -0.209,0.152 -0.301,0.06 -0.05,-0.049 -0.081,-0.04 -0.128,-0.01 -0.028,0.018 -0.06,0.054 -0.091,-0.004 -0.032,-0.061 0.028,-0.057 0.051,-0.077 a 0.228,0.228 0 0 1 0.062,-0.036 c 0.058,-0.025 0.037,-0.075 0.036,-0.116 0,-0.06 -0.049,-0.03 -0.077,-0.035 -0.033,-0.004 -0.07,0.007 -0.069,-0.049 0.001,-0.055 0.037,-0.046 0.071,-0.046 z m -0.014,0.194 c -0.007,0.071 -0.003,0.132 0.087,0.133 0.102,0.002 0.096,-0.069 0.102,-0.141 0.008,-0.081 -0.022,-0.093 -0.096,-0.096 -0.091,-0.003 -0.109,0.033 -0.093,0.104 z"
       id="path44"
       inkscape:connector-curvature="0" />
  </g>
  <path
     d="m 134.08733,100.85288 -30.064,-2.476004 23.119,6.048004 z m 0,-56.520004 -30.064,2.477 23.119,-6.049 z"
     id="path48"
     inkscape:connector-curvature="0"
     style="fill:#a3a3a4" />
  <g
     id="g52"
     style="fill:#ad353d"
     transform="translate(3.2808004e-4,-1.24278e-4)">
    <path
       d="m 94.845,68.152 v 0.642 h -0.803 c -0.08,0 -0.12,0.045 -0.12,0.134 0,0.086 0.04,0.128 0.12,0.128 h 0.415 c 0.127,0 0.276,-0.077 0.447,-0.233 0.317,-0.3 0.531,-0.487 0.64,-0.56 a 0.625,0.625 0 0 1 0.359,-0.11 h 0.393 c 0.454,0 0.681,0.273 0.681,0.817 0,0.488 -0.207,0.732 -0.62,0.732 h -0.605 v -0.641 h 0.645 c 0.07,0 0.105,-0.036 0.105,-0.108 0,-0.084 -0.067,-0.126 -0.203,-0.126 l -0.227,0.013 c -0.13,0 -0.282,0.079 -0.454,0.238 -0.308,0.295 -0.522,0.484 -0.645,0.564 a 0.74,0.74 0 0 1 -0.415,0.12 h -0.447 c -0.465,0 -0.698,-0.274 -0.698,-0.82 0,-0.527 0.211,-0.791 0.635,-0.791 h 0.797 z m 1.644,3.107 v -0.395 h -3.044 v -0.707 h 3.044 v -0.395 h 0.457 v 1.497 z m -3.045,1.732 v -0.7 l 0.94,-0.119 v -0.314 l -0.94,-0.12 v -0.7 l 3.501,0.528 v 0.896 z m 1.426,-0.876 1.045,-0.101 -1.045,-0.096 z m -1.431,2.632 v -0.706 c 0.099,-0.076 0.381,-0.114 0.845,-0.114 h 0.005 l 0.21,0.004 0.447,0.007 c 0.119,0 0.178,-0.074 0.178,-0.22 h -1.68 v -0.706 h 3.501 v 0.872 c 0,0.199 -0.05,0.372 -0.149,0.52 -0.099,0.147 -0.256,0.221 -0.471,0.221 h -0.42 c -0.272,0 -0.456,-0.146 -0.552,-0.437 -0.075,0.293 -0.268,0.44 -0.579,0.44 l -0.383,-0.012 c -0.56,-0.001 -0.877,0.043 -0.952,0.131 z m 2.296,-0.811 h 0.578 c 0.123,0 0.184,-0.073 0.184,-0.218 H 95.55 c -10e-4,0.145 0.061,0.218 0.185,0.218 z m 0.754,2.281 v -0.395 h -3.044 v -0.707 h 3.044 V 74.72 h 0.457 v 1.497 z"
       id="path50"
       inkscape:connector-curvature="0" />
  </g>
  <path
     d="m 93.596328,95.573876 h 4.498 v 1.367 c 0,0.798 -0.258,1.422 -1.164,1.422 -0.396,0 -0.75,-0.145 -0.947,-0.51 h -0.012 c -0.276,0.479 -0.516,0.581 -1.073,0.581 -0.912,0 -1.301,-0.516 -1.301,-1.373 v -1.487 z m 2.729,1.055 c 0.03,0.462 0,0.678 0.534,0.678 0.444,0 0.426,-0.306 0.426,-0.678 z m -1.919,0 c 0.012,0.527 -0.024,0.75 0.582,0.75 0.522,0 0.51,-0.301 0.528,-0.75 z"
     id="path54"
     inkscape:connector-curvature="0"
     style="fill:#197649" />
  <path
     d="m 83.334328,106.25988 4.498,0.983 v 1.271 l -4.498,0.978 v -1.067 l 0.875,-0.149 v -0.828 l -0.875,-0.126 z m 3.682,1.619 v -0.012 l -2.015,-0.306 v 0.611 z"
     id="path56"
     inkscape:connector-curvature="0"
     style="fill:#143266" />
  <path
     d="m 105.70833,120.53688 h 0.309 c 0.411,0 0.623,-0.139 0.623,-0.336 0.006,-0.33 -0.187,-0.408 -0.501,-0.408 l -2.383,-0.006 c -0.27,0 -0.431,0.102 -0.431,0.378 0,0.359 0.398,0.39 0.694,0.39 h 0.437 v 1.056 h -0.591 c -0.829,0 -1.407,-0.444 -1.407,-1.523 0,-0.972 0.553,-1.35 1.536,-1.35 h 1.979 c 1.047,0 1.535,0.45 1.535,1.416 0,0.899 -0.411,1.438 -1.394,1.438 h -0.405 v -1.055 z"
     id="path58"
     inkscape:connector-curvature="0"
     style="fill:#a3a3a4" />
  <circle
     transform="rotate(-42.362)"
     cx="2.4460838"
     cy="164.86476"
     id="ellipse60"
     r="3.8469999"
     style="fill:#eabf3a" />
  <path
     d="m 115.00633,120.17388 -3.343,-1.93 v 3.86 z"
     id="path62"
     inkscape:connector-curvature="0"
     style="fill:#e7b730" />
  <circle
     transform="rotate(-42.362)"
     cx="1.9308962"
     cy="153.68312"
     id="ellipse64"
     r="3.8469999"
     style="fill:#eabf3a" />
  <path
     d="m 104.98233,110.15088 -1.93,3.342 h 3.859 z"
     id="path66"
     inkscape:connector-curvature="0"
     style="fill:#e7b730" />
  <g
     id="g72"
     transform="translate(3.2808004e-4,-1.24278e-4)">
    <circle
       transform="rotate(-42.362,97.063,120.174)"
       cx="97.067001"
       cy="120.174"
       id="ellipse68"
       r="3.8469999"
       style="fill:#eabf3a" />
    <path
       d="m 94.958,120.174 3.343,1.93 v -3.86 z"
       id="path70"
       inkscape:connector-curvature="0"
       style="fill:#e7b730" />
  </g>
  <g
     id="g78"
     transform="translate(3.2808004e-4,-1.24278e-4)">
    <circle
       transform="rotate(-42.362,104.977,128.089)"
       cx="104.982"
       cy="128.089"
       id="ellipse74"
       r="3.8469999"
       style="fill:#eabf3a" />
    <path
       d="m 104.982,130.197 1.929,-3.342 h -3.859 z"
       id="path76"
       inkscape:connector-curvature="0"
       style="fill:#e7b730" />
  </g>
</svg>
