<?xml version="1.0" encoding="UTF-8" standalone="no"?>
<svg
   xmlns:dc="http://purl.org/dc/elements/1.1/"
   xmlns:cc="http://creativecommons.org/ns#"
   xmlns:rdf="http://www.w3.org/1999/02/22-rdf-syntax-ns#"
   xmlns:svg="http://www.w3.org/2000/svg"
   xmlns="http://www.w3.org/2000/svg"
   xmlns:sodipodi="http://sodipodi.sourceforge.net/DTD/sodipodi-0.dtd"
   xmlns:inkscape="http://www.inkscape.org/namespaces/inkscape"
   viewBox="0 0 119.80915 79.428"
   version="1.1"
   id="svg71"
   sodipodi:docname="game.svg"
   width="119.80915"
   height="79.428001"
   inkscape:version="0.92.4 5da689c313, 2019-01-14">
  <metadata
     id="metadata77">
    <rdf:RDF>
      <cc:Work
         rdf:about="">
        <dc:format>image/svg+xml</dc:format>
        <dc:type
           rdf:resource="http://purl.org/dc/dcmitype/StillImage" />
      </cc:Work>
    </rdf:RDF>
  </metadata>
  <defs
     id="defs75" />
  <sodipodi:namedview
     pagecolor="#ffffff"
     bordercolor="#666666"
     borderopacity="1"
     objecttolerance="10"
     gridtolerance="10"
     guidetolerance="10"
     inkscape:pageopacity="0"
     inkscape:pageshadow="2"
     inkscape:window-width="471"
     inkscape:window-height="442"
     id="namedview73"
     showgrid="false"
     inkscape:zoom="2.2619336"
     inkscape:cx="59.904508"
     inkscape:cy="39.713999"
     inkscape:window-x="0"
     inkscape:window-y="0"
     inkscape:window-maximized="0"
     inkscape:current-layer="svg71">
    <inkscape:grid
       type="xygrid"
       id="grid79"
       originx="8.771555e-06"
       originy="-1.4038086e-06" />
  </sodipodi:namedview>
  <path
     d="m 59.917009,78.927 h -38.043 V 4.93 c 10.321,-2.129 23.89,-3.927 38.043,-3.927 14.153,0 27.721,1.798 38.042,3.927 v 73.997 z"
     stroke-miterlimit="10"
     id="path2"
     inkscape:connector-curvature="0"
     style="fill:#a3a3a4;stroke:#a3a3a4;stroke-width:0.125;stroke-linecap:round;stroke-linejoin:round;stroke-miterlimit:10" />
  <path
     d="m 59.917009,79.428 h -36.019 V 4.003 c 9.771,-2.17 22.618,-4.003 36.019,-4.003 13.4,0 26.247,1.833 36.018,4.003 v 75.425 z m 36.858,-0.415 V 4.19 c 12.800001,2.908 21.183001,6.336 22.118001,6.769 1.065,0.495 0.908,1.409 0.908,1.952 v 64.428 c 0,1.421 -2.413,2.089 -2.413,2.089 H 96.775009 Z"
     id="path4"
     inkscape:connector-curvature="0"
     style="fill:#b2b2b2" />
  <path
     d="m 111.16201,79.428 h 6.233 c 0,0 2.413,-0.668 2.413,-2.089 V 55.612 c -4.176,0.292 -8.646,1.713 -8.646,4.095 z"
     id="path6"
     inkscape:connector-curvature="0"
     style="fill:#a3a3a4" />
  <path
     d="M 23.035009,79.013 V 4.19 c -12.802,2.908 -21.1850002,6.335 -22.11800023,6.769 -1.065,0.495 -0.909,1.409 -0.909,1.952 v 64.428 c 0,1.421 2.41300003,2.089 2.41300003,2.089 H 23.035009 Z"
     id="path8"
     inkscape:connector-curvature="0"
     style="fill:#b2b2b2" />
  <path
     d="m 8.6570088,79.428 h -6.234 c 0,0 -2.41300003,-0.668 -2.41300003,-2.089 V 55.612 c 4.17600003,0.292 8.64700003,1.713 8.64700003,4.095 z"
     id="path10"
     inkscape:connector-curvature="0"
     style="fill:#a3a3a4" />
  <path
     d="m 86.461009,73.202 a 3.552,3.552 0 0 0 3.552,-3.553 V 12.453 c 0,-1.962 -1.697,-3.307 -3.509,-3.804 0,0 -9.594,-2.173 -26.611,-2.173 -17.019,0 -26.612,2.173 -26.612,2.173 -1.811,0.496 -3.509,1.842 -3.509,3.804 V 69.65 a 3.553,3.553 0 0 0 3.553,3.553 h 53.136 z"
     stroke-miterlimit="10"
     id="path12"
     inkscape:connector-curvature="0"
     style="fill:#a3a3a4;stroke:#a3a3a4;stroke-width:0.125;stroke-linecap:round;stroke-linejoin:round;stroke-miterlimit:10" />
  <linearGradient
     id="a"
     gradientUnits="userSpaceOnUse"
     x1="59.891998"
     y1="73.203003"
     x2="59.891998"
     y2="6.4759998"
     gradientTransform="translate(8.7715551e-6)">
    <stop
       offset="0"
       stop-color="#85aa3b"
       id="stop14" />
    <stop
       offset="1"
       stop-color="#46923f"
       id="stop16" />
  </linearGradient>
  <path
     d="m 86.461009,73.202 a 3.552,3.552 0 0 0 3.552,-3.553 V 12.453 c 0,-1.962 -1.697,-3.307 -3.509,-3.804 0,0 -9.594,-2.173 -26.611,-2.173 -17.019,0 -26.612,2.173 -26.612,2.173 -1.811,0.496 -3.509,1.842 -3.509,3.804 V 69.65 a 3.553,3.553 0 0 0 3.553,3.553 h 53.136 z"
     id="path19"
     inkscape:connector-curvature="0"
     style="fill:url(#a)" />
  <path
     d="m 79.989009,60.897 c 3.19,0 5.776,1.802 5.776,4.023 0,2.222 -2.586,4.024 -5.776,4.024 -3.19,0 -5.776,-1.801 -5.776,-4.023 -0.001,-2.222 2.586,-4.024 5.776,-4.024 z"
     id="path21"
     inkscape:connector-curvature="0"
     style="fill:#ffffff" />
  <path
     d="m 86.453009,64.923 0.691,0.74 -0.987,0.593 0.277,1.146 -1.062,0.029 -0.073,1.248 -1.184,-0.326 -0.2,1.178 -1.096,-0.435 -0.571,1.038 -0.856,-0.74 -0.746,1.052 -0.822,-0.893 -0.898,0.834 -0.586,-0.982 -1.059,0.623 -0.366,-1.099 -1.226,0.483 -0.18,-1.084 -1.097,0.068 0.164,-1.104 -1.122,-0.005 0.262,-1.205 -0.87,-0.489 0.692,-0.786 -0.621,-1.094 1.011,-0.32 -0.266,-1.17 1.109,-0.015 0.128,-1.16 1.003,0.333 0.332,-1.131 1.013,0.548 0.419,-1 0.877,0.61 0.616,-0.951 0.829,0.828 0.732,-0.757 0.642,0.955 1.003,-0.645 0.398,1.054 1.008,-0.477 0.259,1.099 1.195,-0.213 -0.036,1.076 1.207,0.13 -0.342,1.039 1.052,0.451 z m -0.688,-0.002 c 0,-2.222 -2.586,-4.023 -5.776,-4.023 -3.19,0 -5.776,1.802 -5.776,4.023 0,2.222 2.586,4.024 5.776,4.024 3.19,-10e-4 5.776,-1.802 5.776,-4.024 z"
     id="path23"
     inkscape:connector-curvature="0"
     style="fill:#cbbb71" />
  <path
     d="m 78.076009,62.85 c 0,-0.267 0.152,-0.333 0.259,-0.333 0.108,0 0.259,0.066 0.259,0.333 0,0.267 -0.151,0.334 -0.259,0.334 -0.107,-10e-4 -0.259,-0.067 -0.259,-0.334 z m -0.199,0 c 0,0.447 0.332,0.502 0.458,0.502 0.126,0 0.458,-0.054 0.458,-0.502 0,-0.447 -0.332,-0.502 -0.458,-0.502 -0.126,0 -0.458,0.054 -0.458,0.502 z m 1.25,0.476 h -0.186 v -0.573 h -0.102 V 62.62 h 0.102 v -0.057 c 0,-0.147 0.08,-0.202 0.207,-0.202 0.054,0 0.08,0.001 0.096,0.002 v 0.15 h -0.052 c -0.064,0 -0.065,0.02 -0.065,0.079 v 0.028 h 0.121 v 0.133 h -0.121 z m 0.415,0 h -0.186 v -0.573 h -0.102 V 62.62 h 0.102 v -0.057 c 0,-0.147 0.08,-0.202 0.207,-0.202 0.054,0 0.08,0.001 0.095,0.002 v 0.15 h -0.052 c -0.064,0 -0.065,0.02 -0.065,0.079 v 0.028 h 0.121 v 0.133 h -0.121 z m 0.392,-0.706 v 0.706 h -0.186 V 62.62 Z m 0,-0.084 h -0.186 v -0.172 h 0.186 z m 0.76,0.533 a 0.303,0.303 0 0 1 -0.323,0.276 c -0.266,0 -0.327,-0.203 -0.327,-0.351 0,-0.228 0.1,-0.391 0.339,-0.391 0.112,0 0.295,0.051 0.312,0.271 h -0.189 c -0.008,-0.046 -0.037,-0.119 -0.124,-0.114 -0.117,0 -0.148,0.116 -0.148,0.204 0,0.077 0.002,0.229 0.144,0.229 0.095,0 0.126,-0.09 0.126,-0.123 z m 0.294,-0.449 v 0.706 h -0.186 V 62.62 Z m 0,-0.084 h -0.186 v -0.172 h 0.186 z m 0.542,0.537 c 0,0.085 -0.083,0.138 -0.166,0.138 -0.036,0 -0.086,-0.02 -0.086,-0.085 0,-0.077 0.057,-0.094 0.126,-0.106 0.077,-0.012 0.107,-0.024 0.126,-0.038 z m 0.182,-0.266 c 0,-0.174 -0.182,-0.204 -0.281,-0.204 -0.144,0 -0.295,0.031 -0.316,0.247 h 0.179 c 0.005,-0.041 0.021,-0.098 0.114,-0.098 0.048,0 0.122,0.004 0.122,0.082 0,0.04 -0.036,0.052 -0.065,0.056 l -0.167,0.025 c -0.118,0.017 -0.206,0.088 -0.206,0.225 0,0.145 0.109,0.205 0.215,0.205 a 0.286,0.286 0 0 0 0.228,-0.103 0.336,0.336 0 0 0 0.017,0.085 h 0.2 v -0.028 c -0.023,-0.008 -0.041,-0.027 -0.041,-0.11 z m 0.33,0.519 h -0.186 v -0.953 h 0.186"
     id="path25"
     inkscape:connector-curvature="0"
     style="fill:#cbbb71" />
  <path
     d="m 79.989009,68.61 c 2.985,0 5.413,-1.655 5.413,-3.69 0,-2.035 -2.428,-3.69 -5.413,-3.69 -2.985,0 -5.413,1.655 -5.413,3.69 0,2.035 2.428,3.69 5.413,3.69 z m -5.28,-3.69 c 0,-1.961 2.368,-3.557 5.28,-3.557 2.911,0 5.28,1.596 5.28,3.557 0,1.961 -2.368,3.557 -5.28,3.557 -2.912,0 -5.28,-1.595 -5.28,-3.557 z"
     id="path27"
     inkscape:connector-curvature="0"
     style="fill:#cbbb71" />
  <g
     id="g33"
     style="fill:#cbbb71"
     transform="translate(8.7715551e-6)">
    <path
       d="m 83.393,66.162 a 1.148,1.148 0 0 0 0,-2.294 h -6.866 a 1.148,1.148 0 0 0 0,2.294 z m -6.866,-0.298 a 0.85,0.85 0 0 1 0,-1.698 h 6.866 a 0.85,0.85 0 0 1 0,1.698 z"
       id="path29"
       inkscape:connector-curvature="0" />
    <path
       d="m 76.233,65.563 v -1.08 h 0.337 l 0.45,0.7 0.002,-0.7 h 0.35 v 1.08 h -0.35 c -0.03,-0.066 -0.434,-0.696 -0.434,-0.696 v 0.696 z m 2.129,-0.722 c 0.011,0.014 0.03,0.029 0.038,0.035 0.033,-0.022 0.059,-0.041 0.094,-0.053 0.266,-0.091 0.404,0.062 0.431,0.087 0.122,0.112 0.084,0.418 0.092,0.652 h -0.354 c 0,0 0.006,-0.44 0.001,-0.499 -0.004,-0.052 -0.079,-0.115 -0.122,-0.117 -0.073,-0.003 -0.164,0.035 -0.168,0.118 -0.008,0.168 0.003,0.499 0.003,0.499 H 78.031 V 64.84 Z m 0.823,0.722 v -0.708 h -0.157 v -0.097 h 0.156 v -0.103 h 0.347 v 0.102 h 0.165 l -0.001,0.097 h -0.164 v 0.708 M 79.668,65.2 c -0.006,-0.237 0.213,-0.386 0.4,-0.395 0.088,-0.004 0.179,-0.011 0.258,0.026 0.05,0.024 0.108,0.032 0.15,0.071 a 0.407,0.407 0 0 1 0.136,0.304 L 80.02,65.204 c 0,0.093 -0.052,0.305 0.11,0.309 0.062,0.002 0.097,-0.01 0.12,-0.063 a 0.291,0.291 0 0 0 0.014,-0.132 c 0.06,0.004 0.311,-0.004 0.342,-0.003 -0.068,0.189 -0.273,0.271 -0.47,0.271 -0.083,-0.001 -0.458,-0.039 -0.468,-0.386 z m 0.352,-0.113 0.239,-0.001 c 0,-0.041 0,-0.063 -0.005,-0.097 -0.006,-0.045 -0.042,-0.108 -0.117,-0.105 -0.102,0.004 -0.117,0.062 -0.117,0.125 z m 2.871,0.267 C 82.829,65.272 82.82,65.112 82.878,64.993 a 0.475,0.475 0 0 1 0.249,-0.203 0.764,0.764 0 0 1 0.371,-0.008 0.43,0.43 0 0 1 0.284,0.21 0.383,0.383 0 0 1 -0.017,0.362 0.493,0.493 0 0 1 -0.234,0.181 0.844,0.844 0 0 1 -0.368,0.007 0.483,0.483 0 0 1 -0.272,-0.188 z m 0.442,0.124 c 0.098,0.001 0.12,-0.076 0.122,-0.124 0.004,-0.11 -0.002,-0.246 -0.002,-0.362 0,-0.059 -0.033,-0.138 -0.122,-0.138 -0.128,0 -0.123,0.1 -0.125,0.138 -0.003,0.063 -0.003,0.279 -0.002,0.361 0.001,0.028 0.014,0.125 0.129,0.125 z m -0.61,0.084 H 82.411 A 0.613,0.613 0 0 1 82.404,65.52 c -0.087,0.068 -0.437,0.101 -0.572,-0.184 a 0.554,0.554 0 0 1 0.004,-0.324 c 0.082,-0.184 0.273,-0.225 0.409,-0.217 0.054,0.003 0.159,0.059 0.159,0.059 l 0.001,-0.395 h 0.319 c -0.001,10e-4 0.003,1.104 -0.001,1.103 z m -0.325,-0.181 c 0.01,-0.032 0.005,-0.239 0.005,-0.34 A 0.193,0.193 0 0 0 82.375,64.96 c -0.026,-0.032 -0.047,-0.049 -0.1,-0.047 a 0.118,0.118 0 0 0 -0.11,0.101 c -0.008,0.101 -0.014,0.205 0.002,0.335 0.004,0.031 0.018,0.06 0.046,0.08 0.076,0.054 0.165,0.012 0.185,-0.048 z m -4.523,0.182 v -0.73 h -0.357 v 0.73 m 0.357,-0.853 v -0.227 h -0.357 v 0.227 m 3.548,0.126 c 0.011,0.014 0.03,0.029 0.038,0.036 0.033,-0.022 0.059,-0.041 0.094,-0.054 0.266,-0.091 0.404,0.062 0.431,0.087 0.122,0.112 0.084,0.418 0.092,0.652 h -0.354 c 0,0 0.006,-0.44 10e-4,-0.499 -0.004,-0.052 -0.079,-0.115 -0.122,-0.117 -0.073,-0.003 -0.164,0.035 -0.168,0.118 -0.008,0.168 -0.005,0.504 -0.005,0.504 h -0.335 v -0.728 z m 2.549,-0.118 h -0.023 v -0.109 h 0.041 c 0.028,0 0.045,0.008 0.045,0.033 0,0.02 -0.012,0.027 -0.026,0.028 l 0.028,0.048 h -0.028 l -0.025,-0.046 h -0.011 z m 0.02,-0.064 c 0.01,0 0.017,-0.002 0.017,-0.014 0,-0.011 -0.012,-0.012 -0.021,-0.012 h -0.016 v 0.026 z m -0.003,0.111 c -0.054,0 -0.102,-0.037 -0.102,-0.101 0,-0.064 0.048,-0.101 0.102,-0.101 0.054,0 0.102,0.037 0.102,0.101 a 0.098,0.098 0 0 1 -0.102,0.101 z m 0,-0.179 c -0.04,0 -0.073,0.031 -0.073,0.078 0,0.047 0.032,0.078 0.073,0.078 0.039,0 0.072,-0.031 0.072,-0.078 0,-0.047 -0.033,-0.078 -0.072,-0.078 z"
       id="path31"
       inkscape:connector-curvature="0" />
  </g>
  <g
     id="g37"
     style="fill:#cbbb71"
     transform="translate(8.7715551e-6)">
    <path
       d="m 76.739,67.254 c 0.008,0.017 0.02,0.03 0.034,0.04 a 0.14,0.14 0 0 0 0.051,0.023 0.235,0.235 0 0 0 0.06,0.007 l 0.045,-0.003 a 0.139,0.139 0 0 0 0.045,-0.014 c 0.015,-0.006 0.025,-0.016 0.035,-0.027 0.01,-0.011 0.014,-0.026 0.014,-0.044 a 0.06,0.06 0 0 0 -0.019,-0.047 0.14,0.14 0 0 0 -0.048,-0.03 c -0.021,-0.008 -0.043,-0.015 -0.068,-0.021 l -0.077,-0.02 c -0.026,-0.007 -0.053,-0.015 -0.078,-0.024 a 0.22,0.22 0 0 1 -0.116,-0.096 0.167,0.167 0 0 1 -0.019,-0.083 0.19,0.19 0 0 1 0.085,-0.163 0.272,0.272 0 0 1 0.086,-0.04 0.424,0.424 0 0 1 0.204,0 0.258,0.258 0 0 1 0.091,0.04 0.19,0.19 0 0 1 0.063,0.072 0.214,0.214 0 0 1 0.023,0.105 h -0.151 a 0.133,0.133 0 0 0 -0.014,-0.053 0.096,0.096 0 0 0 -0.03,-0.033 c -0.013,-0.008 -0.027,-0.014 -0.044,-0.017 -0.017,-0.003 -0.034,-0.005 -0.054,-0.005 a 0.164,0.164 0 0 0 -0.038,0.004 0.091,0.091 0 0 0 -0.034,0.014 0.075,0.075 0 0 0 -0.025,0.025 0.063,0.063 0 0 0 -0.01,0.038 c 0,0.014 0.003,0.025 0.008,0.034 0.005,0.009 0.016,0.017 0.031,0.024 0.015,0.007 0.037,0.015 0.065,0.022 a 2.534,2.534 0 0 0 0.164,0.043 0.24,0.24 0 0 1 0.131,0.095 0.177,0.177 0 0 1 0.025,0.099 0.212,0.212 0 0 1 -0.019,0.091 0.21,0.21 0 0 1 -0.057,0.073 0.276,0.276 0 0 1 -0.094,0.047 0.441,0.441 0 0 1 -0.341,-0.043 0.206,0.206 0 0 1 -0.067,-0.079 0.228,0.228 0 0 1 -0.023,-0.114 h 0.151 a 0.14,0.14 0 0 0 0.015,0.06 z m 0.666,0.052 c 0.021,0.021 0.052,0.031 0.092,0.031 a 0.129,0.129 0 0 0 0.074,-0.021 0.093,0.093 0 0 0 0.038,-0.046 h 0.125 a 0.245,0.245 0 0 1 -0.092,0.133 0.28,0.28 0 0 1 -0.15,0.04 0.295,0.295 0 0 1 -0.11,-0.02 0.239,0.239 0 0 1 -0.135,-0.142 0.299,0.299 0 0 1 -0.019,-0.11 c 0,-0.039 0.006,-0.075 0.019,-0.108 a 0.262,0.262 0 0 1 0.054,-0.086 0.26,0.26 0 0 1 0.191,-0.078 0.23,0.23 0 0 1 0.195,0.093 0.304,0.304 0 0 1 0.046,0.098 0.366,0.366 0 0 1 0.01,0.115 H 77.37 c 0.002,0.047 0.013,0.081 0.035,0.101 z m 0.16,-0.272 c -0.017,-0.019 -0.043,-0.028 -0.077,-0.028 a 0.138,0.138 0 0 0 -0.057,0.011 0.105,0.105 0 0 0 -0.055,0.065 0.172,0.172 0 0 0 -0.007,0.034 H 77.6 a 0.152,0.152 0 0 0 -0.035,-0.082 z m 0.28,-0.045 a 0.167,0.167 0 0 1 0.056,-0.053 c 0.022,-0.013 0.048,-0.022 0.076,-0.028 0.028,-0.006 0.058,-0.008 0.086,-0.008 0.026,0 0.053,10e-4 0.079,0.005 a 0.247,0.247 0 0 1 0.073,0.021 c 0.021,0.011 0.04,0.025 0.054,0.044 0.014,0.019 0.021,0.044 0.021,0.076 v 0.269 a 0.48,0.48 0 0 0 0.005,0.067 0.11,0.11 0 0 0 0.014,0.048 h -0.145 l -0.006,-0.024 -0.004,-0.025 a 0.18,0.18 0 0 1 -0.08,0.049 0.33,0.33 0 0 1 -0.094,0.014 c -0.024,0 -0.048,-0.003 -0.069,-0.009 -0.021,-0.006 -0.04,-0.015 -0.056,-0.028 -0.016,-0.013 -0.028,-0.029 -0.037,-0.048 A 0.15,0.15 0 0 1 77.804,67.29 c 0,-0.029 0.005,-0.053 0.016,-0.072 a 0.117,0.117 0 0 1 0.04,-0.045 0.16,0.16 0 0 1 0.056,-0.026 0.705,0.705 0 0 1 0.126,-0.021 0.41,0.41 0 0 0 0.056,-0.009 0.096,0.096 0 0 0 0.038,-0.018 0.04,0.04 0 0 0 0.013,-0.034 0.074,0.074 0 0 0 -0.008,-0.036 0.058,0.058 0 0 0 -0.02,-0.021 0.1,0.1 0 0 0 -0.029,-0.01 l -0.035,-0.002 a 0.108,0.108 0 0 0 -0.066,0.018 c -0.016,0.012 -0.025,0.032 -0.027,0.06 H 77.82 a 0.174,0.174 0 0 1 0.025,-0.085 z m 0.281,0.201 a 0.245,0.245 0 0 1 -0.029,0.008 L 78.065,67.203 78.031,67.208 78,67.216 a 0.076,0.076 0 0 0 -0.046,0.034 0.08,0.08 0 0 0 0,0.065 0.058,0.058 0 0 0 0.02,0.021 0.09,0.09 0 0 0 0.027,0.011 0.184,0.184 0 0 0 0.033,0.003 c 0.028,0 0.05,-0.004 0.065,-0.014 a 0.098,0.098 0 0 0 0.034,-0.033 0.1,0.1 0 0 0 0.013,-0.04 0.223,0.223 0 0 0 0.003,-0.032 v -0.053 a 0.1,0.1 0 0 1 -0.023,0.012 z m 0.421,-0.474 v 0.714 h -0.143 v -0.714 z m 0.392,0.344 a 0.24,0.24 0 0 1 0.139,-0.141 0.29,0.29 0 0 1 0.109,-0.019 c 0.041,0 0.078,0.006 0.11,0.019 a 0.25,0.25 0 0 1 0.085,0.055 c 0.023,0.024 0.041,0.052 0.054,0.086 0.013,0.034 0.02,0.071 0.02,0.113 0,0.041 -0.007,0.079 -0.02,0.112 a 0.233,0.233 0 0 1 -0.139,0.14 0.292,0.292 0 0 1 -0.11,0.019 0.29,0.29 0 0 1 -0.109,-0.019 0.25,0.25 0 0 1 -0.139,-0.14 0.33,0.33 0 0 1 0,-0.225 z m 0.129,0.173 a 0.21,0.21 0 0 0 0.021,0.053 0.11,0.11 0 0 0 0.039,0.038 0.121,0.121 0 0 0 0.06,0.014 0.125,0.125 0 0 0 0.061,-0.014 c 0.017,-0.009 0.029,-0.022 0.039,-0.038 0.01,-0.016 0.017,-0.033 0.021,-0.053 a 0.308,0.308 0 0 0 0,-0.122 0.147,0.147 0 0 0 -0.021,-0.053 0.118,0.118 0 0 0 -0.039,-0.038 0.122,0.122 0 0 0 -0.061,-0.014 0.124,0.124 0 0 0 -0.06,0.014 0.11,0.11 0 0 0 -0.039,0.038 0.21,0.21 0 0 0 -0.027,0.114 c 0,0.021 0.002,0.041 0.006,0.061 z m 0.426,-0.225 v -0.095 h 0.085 v -0.04 c 0,-0.046 0.015,-0.083 0.043,-0.113 0.028,-0.03 0.072,-0.044 0.13,-0.044 l 0.038,0.001 0.037,0.002 v 0.106 a 0.44,0.44 0 0 0 -0.052,-0.003 c -0.02,0 -0.033,0.004 -0.042,0.014 -0.008,0.009 -0.013,0.024 -0.013,0.045 v 0.031 h 0.099 v 0.095 H 79.72 v 0.422 h -0.142 v -0.422 h -0.084 z m 1.172,0.397 a 0.34,0.34 0 0 1 -0.173,0.041 0.36,0.36 0 0 1 -0.147,-0.029 0.324,0.324 0 0 1 -0.179,-0.196 0.469,0.469 0 0 1 0,-0.294 0.384,0.384 0 0 1 0.069,-0.12 0.315,0.315 0 0 1 0.11,-0.08 0.367,0.367 0 0 1 0.147,-0.029 0.329,0.329 0 0 1 0.326,0.229 0.418,0.418 0 0 1 0.024,0.148 0.383,0.383 0 0 1 -0.092,0.263 l 0.089,0.081 -0.073,0.076 z M 80.643,67.24 a 0.209,0.209 0 0 0 0.032,-0.067 0.39,0.39 0 0 0 0.001,-0.188 c -0.007,-0.029 -0.018,-0.056 -0.033,-0.079 -0.015,-0.023 -0.035,-0.042 -0.061,-0.055 a 0.176,0.176 0 0 0 -0.09,-0.021 c -0.035,0 -0.065,0.007 -0.09,0.021 -0.025,0.014 -0.045,0.032 -0.06,0.055 a 0.245,0.245 0 0 0 -0.034,0.079 0.39,0.39 0 0 0 0,0.178 0.282,0.282 0 0 0 0.034,0.077 0.165,0.165 0 0 0 0.06,0.054 0.179,0.179 0 0 0 0.09,0.021 l 0.036,-0.001 c 0.013,0 0.021,-0.003 0.027,-0.009 l -0.067,-0.061 0.073,-0.078 z m 0.644,0.19 v -0.072 h -0.003 a 0.174,0.174 0 0 1 -0.07,0.065 0.254,0.254 0 0 1 -0.182,0.005 0.147,0.147 0 0 1 -0.058,-0.042 C 80.96,67.367 80.951,67.345 80.945,67.319 80.939,67.293 80.936,67.263 80.936,67.231 v -0.318 h 0.143 v 0.292 c 0,0.043 0.007,0.075 0.02,0.096 0.014,0.021 0.037,0.031 0.071,0.031 0.038,0 0.066,-0.011 0.084,-0.034 0.018,-0.023 0.026,-0.061 0.026,-0.114 v -0.271 h 0.142 v 0.517 z m 0.262,-0.441 a 0.167,0.167 0 0 1 0.056,-0.053 c 0.022,-0.013 0.048,-0.022 0.076,-0.028 0.028,-0.006 0.058,-0.008 0.086,-0.008 0.026,0 0.053,10e-4 0.079,0.005 a 0.247,0.247 0 0 1 0.073,0.021 c 0.021,0.011 0.04,0.025 0.054,0.044 0.014,0.019 0.021,0.044 0.021,0.076 v 0.269 a 0.48,0.48 0 0 0 0.005,0.067 0.11,0.11 0 0 0 0.014,0.048 h -0.145 l -0.006,-0.024 -0.004,-0.025 a 0.18,0.18 0 0 1 -0.08,0.049 0.33,0.33 0 0 1 -0.094,0.014 c -0.024,0 -0.048,-0.003 -0.069,-0.009 -0.021,-0.006 -0.04,-0.015 -0.056,-0.028 -0.016,-0.013 -0.028,-0.029 -0.037,-0.048 A 0.15,0.15 0 0 1 81.508,67.29 c 0,-0.029 0.005,-0.053 0.016,-0.072 a 0.117,0.117 0 0 1 0.04,-0.045 0.16,0.16 0 0 1 0.056,-0.026 0.705,0.705 0 0 1 0.126,-0.021 0.41,0.41 0 0 0 0.056,-0.009 0.096,0.096 0 0 0 0.038,-0.018 0.04,0.04 0 0 0 0.013,-0.034 0.074,0.074 0 0 0 -0.008,-0.036 0.058,0.058 0 0 0 -0.02,-0.021 0.1,0.1 0 0 0 -0.029,-0.01 l -0.035,-0.002 a 0.108,0.108 0 0 0 -0.066,0.018 c -0.016,0.012 -0.025,0.032 -0.027,0.06 h -0.143 c 0,-0.035 0.009,-0.063 0.024,-0.085 z m 0.28,0.201 A 0.245,0.245 0 0 1 81.8,67.198 l -0.032,0.005 -0.034,0.005 -0.031,0.008 a 0.076,0.076 0 0 0 -0.046,0.034 0.08,0.08 0 0 0 0,0.065 0.058,0.058 0 0 0 0.02,0.021 0.09,0.09 0 0 0 0.027,0.011 0.184,0.184 0 0 0 0.033,0.003 c 0.028,0 0.05,-0.004 0.065,-0.014 a 0.098,0.098 0 0 0 0.034,-0.033 0.1,0.1 0 0 0 0.013,-0.04 0.223,0.223 0 0 0 0.003,-0.032 v -0.053 a 0.084,0.084 0 0 1 -0.023,0.012 z m 0.421,-0.474 v 0.714 h -0.143 v -0.714 z m 0.115,0.117 v -0.117 h 0.143 v 0.117 z m 0.142,0.08 v 0.517 h -0.143 v -0.517 z m 0.396,0 v 0.095 h -0.104 v 0.256 c 0,0.024 0.004,0.04 0.012,0.048 0.008,0.008 0.023,0.012 0.048,0.012 l 0.023,-0.001 0.021,-0.003 v 0.11 a 0.415,0.415 0 0 1 -0.04,0.004 l -0.043,0.001 c -0.021,0 -0.043,-0.001 -0.063,-0.004 C 82.737,67.428 82.72,67.422 82.705,67.413 82.69,67.404 82.678,67.392 82.67,67.376 A 0.128,0.128 0 0 1 82.656,67.313 V 67.008 H 82.57 v -0.095 h 0.086 v -0.155 h 0.143 v 0.155 z m 0.26,0.671 a 0.204,0.204 0 0 1 -0.114,0.027 L 83.006,67.61 a 0.654,0.654 0 0 1 -0.044,-0.004 v -0.117 l 0.041,0.004 c 0.014,0.002 0.028,0.001 0.042,0.001 A 0.056,0.056 0 0 0 83.087,67.472 0.072,0.072 0 0 0 83.1,67.43 0.087,0.087 0 0 0 83.094,67.398 l -0.181,-0.485 h 0.151 l 0.116,0.354 h 0.002 l 0.113,-0.354 h 0.147 l -0.217,0.581 a 0.162,0.162 0 0 1 -0.062,0.09 z"
       id="path35"
       inkscape:connector-curvature="0" />
  </g>
  <g
     id="g61"
     transform="translate(8.7715551e-6)">
    <path
       d="m 74.722,35.964 h 12.16 v 10.833 h -12.16 z"
       id="path39"
       inkscape:connector-curvature="0"
       style="fill:#ffffff" />
    <path
       d="m 81.391,40.843 0.228,-0.259 v -1.753 l -1.089,0.42 -0.902,1.608 0.902,-0.348 z"
       id="path41"
       inkscape:connector-curvature="0"
       style="fill:#253488" />
    <path
       d="M 83.326,43.286 V 40.33 l 1.105,-0.425 v 4.652 l -1.105,0.467 -1.623,-2.121 v 2.806 l -1.172,0.493 v -4.793 l 1.172,-0.446 z"
       id="path43"
       inkscape:connector-curvature="0"
       style="fill:#253287" />
    <path
       d="M 78.772,44.562 77.735,42.55 v 2.474 z"
       id="path45"
       inkscape:connector-curvature="0"
       style="fill:#253488" />
    <path
       d="m 78.839,39.905 0.519,1.058 0.27,-0.104 0.902,-1.608 -1.089,-0.425 z m 2.552,0.938 0.83,-0.939 1.105,0.425 v 2.956 l -1.623,-2.324 z"
       id="path47"
       inkscape:connector-curvature="0"
       style="fill:#238b41" />
    <path
       d="m 80.53,46.201 v -4.793 l -1.172,-0.446 v 2.433 L 77.729,40.33 76.624,39.905 v 4.652 l 1.105,0.467 V 42.55 l 1.629,3.159 z"
       id="path49"
       inkscape:connector-curvature="0"
       style="fill:#238b41" />
    <path
       d="m 77.734,40.33 1.105,-0.425 0.519,1.058 v 2.433 z m 3.968,3.729 0.332,0.467 1.291,0.498 -1.623,-2.121 z"
       id="path51"
       inkscape:connector-curvature="0"
       style="fill:#c33937" />
    <path
       d="m 79.363,40.963 1.172,-0.446 1.172,0.446 -1.172,0.446 z m 3.963,-1.484 1.105,0.425 -1.105,0.425 -1.105,-0.425 z m -5.592,0 1.105,0.425 -1.105,0.425 -1.105,-0.425 z m 2.796,-1.073 -1.089,0.42 1.089,0.425 1.089,-0.42 z"
       id="path53"
       inkscape:connector-curvature="0"
       style="fill:#e6b531" />
    <path
       d="m 82.096,36.901 h 0.503 c 0.43,0 0.565,0.244 0.565,0.576 0,0.342 -0.213,0.555 -0.539,0.555 h -0.529 z m 0.415,0.877 h 0.041 c 0.067,0 0.114,-0.021 0.14,-0.067 0.026,-0.046 0.031,-0.135 0.031,-0.244 0,-0.109 -0.005,-0.197 -0.031,-0.244 -0.026,-0.047 -0.073,-0.067 -0.14,-0.067 h -0.041 z m 1.318,-0.908 c 0.368,0 0.555,0.244 0.555,0.596 0,0.353 -0.182,0.596 -0.555,0.596 -0.368,0 -0.555,-0.244 -0.555,-0.596 0,-0.352 0.181,-0.596 0.555,-0.596 z m 0,0.903 c 0.067,0 0.114,-0.031 0.114,-0.311 0,-0.27 -0.047,-0.311 -0.114,-0.311 -0.067,0 -0.114,0.036 -0.114,0.311 0,0.275 0.046,0.311 0.114,0.311 z m 0.752,0.021 c -0.073,0 -0.135,0.062 -0.135,0.135 0,0.073 0.062,0.135 0.135,0.135 0.073,0 0.135,-0.062 0.135,-0.135 0,-0.073 -0.063,-0.135 -0.135,-0.135 z m 0,0.243 a 0.11,0.11 0 0 1 -0.109,-0.109 0.11,0.11 0 0 1 0.109,-0.109 0.11,0.11 0 0 1 0.109,0.109 0.11,0.11 0 0 1 -0.109,0.109 z"
       id="path55"
       inkscape:connector-curvature="0"
       style="fill:#233387" />
    <path
       d="m 84.56,38.001 h -0.031 v -0.145 h 0.062 c 0.026,0 0.052,0.01 0.052,0.036 0,0.021 -0.01,0.031 -0.031,0.036 0.026,0.005 0.026,0.016 0.026,0.036 0,0.01 0.005,0.026 0.01,0.036 h -0.036 c -0.005,-0.016 -0.005,-0.026 -0.005,-0.041 0,-0.01 -0.005,-0.021 -0.016,-0.021 H 84.56 Z m 0,-0.083 h 0.026 c 0.016,0 0.021,-0.005 0.021,-0.021 0,-0.016 -0.01,-0.021 -0.021,-0.021 H 84.56 Z m -8.216,-1.017 v 0.648 h -0.005 l -0.228,-0.648 h -0.508 v 1.131 h 0.342 v -0.654 h 0.005 l 0.228,0.654 h 0.508 v -1.131 z m 1.919,0 v 0.648 H 78.258 L 78.03,36.901 h -0.508 v 1.131 h 0.342 v -0.654 h 0.005 l 0.228,0.654 h 0.508 v -1.131 z m 3.304,0 v 0.648 h -0.005 l -0.228,-0.648 h -0.508 v 1.131 h 0.342 v -0.654 h 0.005 l 0.228,0.654 h 0.508 v -1.131 z m -4.248,0 v 1.131 H 76.894 V 36.901 Z M 79,38.032 v -0.825 h -0.27 v -0.306 h 0.965 v 0.306 h -0.27 v 0.825 z m 1.239,-0.83 v 0.119 h 0.389 v 0.29 h -0.389 v 0.124 h 0.436 v 0.296 H 79.824 V 36.9 h 0.84 v 0.301 h -0.425 z"
       id="path57"
       inkscape:connector-curvature="0"
       style="fill:#233387" />
    <path
       d="m 85.146,36.751 h -0.078 c -0.182,0.01 -0.249,0.083 -0.275,0.171 h 0.005 a 0.24,0.24 0 0 1 0.171,-0.057 c 0.14,0 0.27,0.104 0.27,0.296 0,0.187 -0.14,0.332 -0.332,0.332 -0.254,0 -0.363,-0.192 -0.363,-0.399 0,-0.166 0.057,-0.311 0.156,-0.399 a 0.526,0.526 0 0 1 0.358,-0.135 h 0.083 v 0.192 h 0.005 z m -0.238,0.56 c 0.057,0 0.093,-0.057 0.093,-0.135 0,-0.062 -0.031,-0.135 -0.109,-0.135 a 0.11,0.11 0 0 0 -0.099,0.067 c -0.005,0.01 -0.005,0.026 -0.005,0.052 0.005,0.073 0.042,0.151 0.12,0.151 z m 0.778,0.166 v -0.202 h -0.379 v -0.161 l 0.301,-0.539 h 0.301 v 0.519 h 0.093 v 0.187 h -0.093 v 0.202 H 85.68 Z m 0,-0.389 v -0.156 c 0,-0.057 0.005,-0.119 0.005,-0.182 h -0.005 a 3.226,3.226 0 0 1 -0.083,0.182 l -0.073,0.15 v 0.005 h 0.156 z"
       id="path59"
       inkscape:connector-curvature="0"
       style="fill:#c33d3a" />
  </g>
  <g
     id="g69"
     transform="translate(8.7715551e-6)">
    <path
       d="M 66.402,65.144 H 53.431 A 2.127,2.127 0 0 1 51.307,63.02 c 0,-1.171 0.953,-2.124 2.124,-2.124 h 12.97 a 2.1240001,2.1240001 0 0 1 0.001,4.248 z"
       id="path63"
       inkscape:connector-curvature="0"
       style="fill:#c23435" />
    <path
       d="m 53.431,61.399 c -0.894,0 -1.621,0.727 -1.621,1.621 0,0.894 0.727,1.621 1.621,1.621 h 12.97 c 0.894,0 1.621,-0.727 1.621,-1.621 0,-0.894 -0.727,-1.621 -1.621,-1.621 z"
       id="path65"
       inkscape:connector-curvature="0"
       style="fill:#ffffff" />
    <path
       d="m 55.097,64.005 v -1.96 h -0.59 v 1.371 l -0.87,-1.371 h -0.634 v 1.96 h 0.59 V 62.59 l 0.914,1.415 z m 0.958,0 v -1.326 h -0.589 v 1.326 z m 0,-1.606 v -0.354 h -0.589 v 0.354 z m 2.064,1.606 v -0.914 c 0,-0.192 -0.368,-0.457 -0.56,-0.457 h -0.177 c -0.133,0 -0.28,0.118 -0.413,0.177 v -0.133 h -0.59 v 1.326 h 0.59 V 63.09 c 0,-0.088 0.206,-0.192 0.295,-0.192 0.088,0 0.25,0.103 0.25,0.192 v 0.914 z m 4.932,0.046 v -0.914 c 0,-0.192 -0.368,-0.457 -0.56,-0.457 h -0.177 c -0.133,0 -0.28,0.118 -0.413,0.177 v -0.133 h -0.589 v 1.326 h 0.589 v -0.914 c 0,-0.088 0.206,-0.192 0.295,-0.192 0.088,0 0.25,0.103 0.25,0.192 v 0.914 z m -3.974,-0.046 v -1.326 h 0.31 v -0.177 h -0.31 v -0.28 h -0.604 v 0.28 h -0.31 v 0.177 h 0.31 v 1.326 z m 1.134,-1.37 c -0.472,0 -0.869,0.324 -0.869,0.722 0,0.413 0.398,0.737 0.869,0.737 0.413,0 0.752,-0.236 0.84,-0.545 h -0.604 v 0.177 c 0,0.147 -0.103,0.192 -0.236,0.192 -0.133,0 -0.221,-0.044 -0.221,-0.192 v -0.368 h 1.091 c 0,-0.399 -0.383,-0.723 -0.87,-0.723 z m 0,0.132 c 0.133,0 0.236,0.088 0.236,0.236 v 0.133 H 59.99 v -0.133 c 0,-0.147 0.089,-0.236 0.221,-0.236 z m 5.808,-0.132 c -0.486,0 -0.87,0.324 -0.87,0.722 0,0.413 0.383,0.737 0.87,0.737 0.471,0 0.869,-0.324 0.869,-0.737 0,-0.398 -0.398,-0.722 -0.869,-0.722 z m 0,0.132 c 0.132,0 0.221,0.088 0.221,0.236 v 0.722 c 0,0.147 -0.089,0.192 -0.221,0.192 -0.147,0 -0.236,-0.044 -0.236,-0.192 v -0.722 c -0.001,-0.147 0.088,-0.236 0.236,-0.236 z m -1.696,-0.722 v 0.722 c 0,0 -0.177,-0.133 -0.413,-0.133 a 0.696,0.696 0 0 0 -0.678,0.678 c 0,0.368 0.31,0.737 0.678,0.737 0.236,0 0.413,-0.088 0.413,-0.088 v 0.044 h 0.59 v -1.96 z m -0.221,0.811 c 0.133,0 0.221,0.103 0.221,0.236 v 0.545 c 0,0.133 -0.089,0.177 -0.221,0.177 -0.147,0 -0.236,-0.044 -0.236,-0.177 v -0.545 c 10e-4,-0.133 0.089,-0.236 0.236,-0.236 z m 2.86,-0.198 a 0.305,0.305 0 0 1 -0.304,-0.304 c 0,-0.178 0.133,-0.318 0.304,-0.318 0.165,0 0.304,0.146 0.304,0.318 a 0.313,0.313 0 0 1 -0.304,0.304 z m 0,-0.574 c -0.146,0 -0.256,0.117 -0.256,0.271 0,0.141 0.115,0.256 0.256,0.256 a 0.266,0.266 0 0 0 0.256,-0.256 c 0,-0.145 -0.12,-0.271 -0.256,-0.271 z m 0.053,0.4 -0.052,-0.091 h -0.066 v 0.08 H 66.85 v -0.274 h 0.127 c 0.059,0 0.09,0.049 0.09,0.097 0,0.037 -0.018,0.075 -0.053,0.09 l 0.043,0.075 z m -0.118,-0.138 h 0.08 a 0.038,0.038 0 0 0 0.031,-0.014 0.06,0.06 0 0 0 0.011,-0.036 c 0,-0.019 -0.009,-0.05 -0.043,-0.05 h -0.08 z"
       id="path67"
       inkscape:connector-curvature="0"
       style="fill:#c23435" />
  </g>
</svg>
