<?xml version="1.0" encoding="UTF-8" standalone="no"?>
<svg
   xmlns:dc="http://purl.org/dc/elements/1.1/"
   xmlns:cc="http://creativecommons.org/ns#"
   xmlns:rdf="http://www.w3.org/1999/02/22-rdf-syntax-ns#"
   xmlns:svg="http://www.w3.org/2000/svg"
   xmlns="http://www.w3.org/2000/svg"
   xmlns:sodipodi="http://sodipodi.sourceforge.net/DTD/sodipodi-0.dtd"
   xmlns:inkscape="http://www.inkscape.org/namespaces/inkscape"
   viewBox="0 0 400.00001 211.92461"
   version="1.1"
   id="svg146"
   sodipodi:docname="console.svg"
   width="400"
   height="211.92462"
   inkscape:version="0.92.4 5da689c313, 2019-01-14">
  <metadata
     id="metadata152">
    <rdf:RDF>
      <cc:Work
         rdf:about="">
        <dc:format>image/svg+xml</dc:format>
        <dc:type
           rdf:resource="http://purl.org/dc/dcmitype/StillImage" />
      </cc:Work>
    </rdf:RDF>
  </metadata>
  <defs
     id="defs150" />
  <sodipodi:namedview
     pagecolor="#ffffff"
     bordercolor="#666666"
     borderopacity="1"
     objecttolerance="10"
     gridtolerance="10"
     guidetolerance="10"
     inkscape:pageopacity="0"
     inkscape:pageshadow="2"
     inkscape:window-width="471"
     inkscape:window-height="442"
     id="namedview148"
     showgrid="false"
     inkscape:zoom="0.6775"
     inkscape:cx="200"
     inkscape:cy="105.9623"
     inkscape:window-x="0"
     inkscape:window-y="0"
     inkscape:window-maximized="0"
     inkscape:current-layer="svg146" />
  <path
     d="m 202.47142,0 h 40.65493 v 211.92462 h -40.65493 z m 40.65493,207.10534 h 18.78283 v 4.81928 h -18.78283 z"
     id="path2"
     inkscape:connector-curvature="0"
     style="fill:#282424" />
  <path
     d="M 15.261044,0 H 21.50139 V 1.17392 H 199.07322 V 0 h 6.24034 c 13.83998,0.55607 15.26105,12.60426 15.26105,12.60426 v 177.20111 c 0,0 0.37071,3.52178 -1.2975,5.25178 -3.21285,3.33642 -14.33426,14.39605 -16.80569,16.86747 H 16.126043 c 0,0 -13.160334,-12.72783 -14.5196173,-13.34569 C 0.67964164,197.34322 0,195.24251 0,190.1143 V 12.54248 C 0,12.54248 1.4828545,0.61785 15.261044,0 Z"
     id="path4"
     inkscape:connector-curvature="0"
     style="fill:#312f2f" />
  <path
     d="m 202.595,211.49212 c -0.0618,0.18536 -0.0618,0.30893 -0.12358,0.37071 H 17.361755 c 0,0 -5.06642,-85.32591 25.826382,-89.52734 5.684276,-0.67964 12.851406,0.80322 28.977448,4.69571 16.187829,3.83071 59.252395,3.83071 75.440225,0 16.18783,-3.83071 23.23138,-4.69571 28.97745,-4.69571 10.68891,0 17.29997,10.44177 21.31603,24.21996 7.22892,24.77603 5.93142,60.30275 4.69571,64.93667 z"
     id="path6"
     inkscape:connector-curvature="0"
     style="fill:#3f3f3f" />
  <path
     d="m 110.34909,132.90083 c -21.872105,0 -26.197097,-1.05035 -29.966019,-1.54464 -3.707136,-0.49428 -2.594996,2.90393 -2.594996,2.90393 0,0 1.915354,12.60426 2.162497,17.36175 0.247142,4.75749 5.375347,4.13964 5.375347,4.13964 h 50.046341 c 0,0 5.1282,0.67964 5.37535,-4.13964 0.24714,-4.81928 2.16249,-17.36175 2.16249,-17.36175 0,0 1.11214,-3.39821 -2.59499,-2.90393 -3.76893,0.49429 -8.1557,1.54464 -29.96602,1.54464 z"
     id="path8"
     inkscape:connector-curvature="0"
     style="fill:#181515" />
  <ellipse
     cx="110.34909"
     cy="65.492737"
     rx="93.975906"
     ry="54.000618"
     id="ellipse10"
     style="fill:#30302f" />
  <ellipse
     cx="110.34909"
     cy="65.369171"
     rx="92.987335"
     ry="52.95026"
     id="ellipse12"
     style="fill:#181515" />
  <ellipse
     cx="110.34909"
     cy="64.133453"
     rx="76.428787"
     ry="42.940994"
     id="ellipse14"
     style="fill:#2c2929" />
  <path
     d="m 110.22552,81.74235 -4.69571,4.94285 h 9.57677"
     id="path16"
     inkscape:connector-curvature="0"
     style="fill:#241c1e" />
  <g
     id="g24"
     style="fill:#eff8fb">
    <path
       d="m 124.99228,147.66759 h -4.69571 v -1.11214 h 3.21285 c -0.24714,-0.67964 -0.4325,-1.2975 -0.61785,-1.85357 -0.49429,-1.42106 -0.92679,-2.90392 -1.42107,-4.32499 -0.12357,-0.37071 -0.4325,-0.74143 -0.74143,-0.865 -0.49428,-0.12357 -0.67964,0.4325 -0.80321,0.865 -0.74143,2.22428 -1.42107,4.38678 -2.1625,6.61106 -0.18536,0.49429 -0.37071,0.67964 -0.92678,0.67964 -1.42107,-0.0618 -2.90393,0 -4.325,0 -1.48285,0 -2.40963,-0.98857 -2.40963,-2.47142 0,-1.35928 -0.0618,-2.71857 0,-4.07785 0.0618,-1.54464 0.92678,-2.47143 2.40963,-2.47143 h 3.95428 v 1.17393 h -3.33642 c -1.54464,0 -1.91535,0.37071 -1.91535,2.03893 v 3.08928 c 0,1.11214 0.49428,1.60642 1.54464,1.66821 h 2.53321 v -3.58357 h -2.10071 v -1.11214 h 3.33642 v 4.69571 h 0.18536 c 0.67964,-2.1625 1.42106,-4.32499 2.10071,-6.48749 0.37071,-1.23571 1.11214,-1.73 2.34785,-1.54464 0.67964,0.12357 1.17393,0.49428 1.35928,1.11214 0.865,2.595 1.66821,5.18999 2.53321,7.78499 0,0.0618 -0.0618,0.12357 -0.0618,0.18535 z m -29.348165,0 v -1.11214 h 3.707136 c 1.050359,0 1.791779,-0.74142 1.853569,-1.72999 0.0618,-0.92679 -0.74143,-1.79179 -1.729998,-1.85357 -0.432499,0 -0.803212,0 -1.235712,-0.0618 -0.617856,-0.0618 -1.112141,-0.67964 -1.112141,-1.35928 0,-0.67964 0.4325,-1.2975 1.112141,-1.2975 1.359284,-0.0618 2.65678,0 4.07785,0 v 1.11214 h -3.954279 v 0.37072 c 0.370714,0 0.741428,0.0618 1.112141,0.0618 1.421068,0.0618 2.409638,0.865 2.780348,2.28607 0.4325,1.73 -0.80321,3.52178 -2.47142,3.58356 -1.359283,0.0618 -2.656781,0 -4.139635,0 z"
       id="path18"
       inkscape:connector-curvature="0" />
    <path
       d="m 95.644115,146.12295 v -1.17392 h 3.954279 v -0.30893 c -0.4325,0 -0.803213,-0.0618 -1.235712,-0.0618 -1.112141,0 -1.97714,-0.55607 -2.471425,-1.60642 -0.494284,-1.05036 -0.432499,-2.10071 0.247143,-3.08928 0.432499,-0.67964 1.112141,-1.11214 1.853568,-1.17393 1.359283,-0.0618 2.780352,0 4.201422,0 v 1.11214 h -3.768923 c -1.235712,0 -2.038925,1.17393 -1.668211,2.34785 0.247142,0.67965 0.864998,1.17393 1.668211,1.23572 0.370714,0 0.803213,0 1.173927,0.0618 0.617856,0.0618 1.112136,0.67964 1.112136,1.2975 0,0.67964 -0.49428,1.2975 -1.050351,1.35928 h -4.016064 z m 13.901765,-7.41427 v 1.11214 h -3.70714 c -1.2975,0 -1.73,0.4325 -1.73,1.79178 v 3.21286 c 0,1.23571 0.49429,1.72999 1.66821,1.72999 h 3.70714 v 1.17393 h -4.44856 c -1.05036,-0.0618 -1.97714,-1.05036 -2.03893,-2.1625 -0.0618,-1.54464 -0.0618,-3.15106 0,-4.6957 0,-0.98857 0.865,-2.03893 1.85357,-2.10071 1.54464,-0.12357 3.08928,-0.0618 4.69571,-0.0618 z m 8.40284,8.89713 c 0.80321,-2.47143 1.54464,-4.88106 2.34785,-7.22892 0.0618,-0.18535 0.24714,-0.37071 0.37071,-0.4325 0.0618,-0.0618 0.30893,0.18536 0.37072,0.30893 0.61785,1.91535 1.2975,3.83071 1.91535,5.80785 h -2.65678 c 0,-0.30893 -0.0618,-0.55607 -0.0618,-0.80322 -0.0618,0 -0.0618,0 -0.12358,-0.0618 -0.12357,0.4325 -0.30892,0.865 -0.4325,1.35928 -0.43249,1.23571 -0.43249,1.23571 -1.72999,1.05036 z m 2.28607,-2.78035 h 0.92678 c -0.12357,-0.4325 -0.24714,-0.865 -0.37071,-1.23572 h -0.18536 c -0.0618,0.37072 -0.18536,0.74143 -0.37071,1.23572 z m -6.24035,-0.12358 c -0.37071,-0.12357 -0.55607,-0.18535 -0.80321,-0.24714 v -0.98857 h 1.72999 v 2.65678 c -0.865,0 -1.79178,0.0618 -2.65678,-0.0618 -0.24714,0 -0.55607,-0.4325 -0.61785,-0.74143 -0.0618,-1.42107 -0.0618,-2.84214 0,-4.26321 0,-0.49428 0.30892,-0.80321 0.80321,-0.80321 h 4.01606 v 1.11214 h -2.96571 c -0.61785,0 -0.80321,0.18536 -0.80321,0.80321 0.0618,0.67965 0,1.35929 0,1.97714 0.0618,0.865 0.4325,1.05036 1.2975,0.55607 z"
       id="path20"
       inkscape:connector-curvature="0" />
    <path
       d="m 105.71517,144.88724 c 1.23571,0.24714 2.47142,0 3.76892,0.12357 v 1.05036 c -1.48285,0 -2.90392,0.0618 -4.32499,-0.0618 -0.24714,0 -0.55607,-0.49428 -0.61786,-0.80321 -0.12357,-0.55607 0,-1.17393 0,-1.85357 h 4.07785 v 1.05036 h -2.84214 c 0,0.24714 -0.0618,0.37071 -0.0618,0.49428 z m 3.83071,-4.63392 v 1.05036 c -1.23572,0.18535 -2.53321,-0.12357 -3.76893,0.18535 v 0.30893 h 2.84214 v 1.11214 h -4.01606 c 0,-0.67964 -0.0618,-1.35928 0,-2.03892 0.0618,-0.24715 0.4325,-0.61786 0.61785,-0.61786 z"
       id="path22"
       inkscape:connector-curvature="0" />
  </g>
  <path
     d="m 94.284832,89.52734 -0.803213,0.0618 c 0,-0.55607 -0.185357,-0.86499 -0.556071,-0.86499 -0.432499,0 -0.617856,0.43249 -0.617856,1.29749 0,0.49429 0.06179,0.865 0.185357,0.98857 0.123571,0.18536 0.247143,0.24715 0.494285,0.24715 0.308928,0 0.494285,-0.24715 0.617856,-0.74143 l 0.741427,0.0618 c -0.06179,0.49429 -0.185357,0.865 -0.432499,1.11214 -0.247142,0.24715 -0.55607,0.37072 -0.926784,0.37072 -0.432499,0 -0.803213,-0.18536 -1.112141,-0.55607 -0.247142,-0.37072 -0.432499,-0.865 -0.432499,-1.48286 0,-0.61785 0.123571,-1.11214 0.432499,-1.48285 0.247142,-0.37071 0.617856,-0.55607 1.112141,-0.55607 0.741427,0 1.173926,0.49428 1.297498,1.54464 z m 1.791782,-1.48286 1.050355,3.95428 h -0.864998 l -0.185357,-0.80321 h -1.112141 l -0.185357,0.80321 h -0.679641 l 1.050355,-3.95428 z m -0.864998,2.40964 h 0.741427 l -0.370714,-1.42107 z m 2.903923,0 v 1.54464 h -0.803213 v -3.95428 h 1.482855 c 0.247142,0 0.494285,0.0618 0.679641,0.12358 0.185357,0.0618 0.308928,0.18535 0.4325,0.43249 0.123568,0.18536 0.185358,0.4325 0.185358,0.67965 0,0.49428 -0.185358,0.80321 -0.556072,1.05035 l 0.617852,1.73 h -0.864994 l -0.494285,-1.54464 h -0.679642 z m 0,-1.66821 v 0.98857 h 0.494285 c 0.185357,0 0.247142,0 0.370714,-0.0618 0.06179,0 0.123571,-0.0618 0.185356,-0.18536 0.06179,-0.0618 0.06179,-0.18536 0.06179,-0.30893 0,-0.12357 0,-0.18536 -0.06179,-0.30893 -0.06179,-0.12357 -0.123571,-0.12357 -0.185356,-0.18535 h -0.864999 z m 4.510351,-0.74143 v 0.80322 h -0.80321 v 3.21285 h -0.80322 V 88.8477 h -0.865 v -0.80322 z m 1.05035,2.40964 v 1.54464 h -0.80321 v -3.95428 h 1.48286 c 0.24714,0 0.49428,0.0618 0.67964,0.12358 0.18535,0.0618 0.30892,0.18535 0.4325,0.43249 0.12357,0.18536 0.18535,0.4325 0.18535,0.67965 0,0.49428 -0.18535,0.80321 -0.55607,1.05035 l 0.61786,1.73 h -0.865 l -0.49428,-1.54464 h -0.67965 z m 0,-1.66821 v 0.98857 h 0.49429 c 0.18536,0 0.24714,0 0.37071,-0.0618 0.0618,0 0.12357,-0.0618 0.18536,-0.18536 0.0618,-0.0618 0.0618,-0.18536 0.0618,-0.30893 0,-0.12357 0,-0.18536 -0.0618,-0.30893 l -0.18536,-0.18535 h -0.865 z m 2.90393,-0.74143 v 3.95428 h -0.80322 v -3.95428 z m 0.24714,0 h 1.05035 c 0.4325,0 0.74143,0.0618 0.92679,0.18536 0.18536,0.12357 0.37071,0.37071 0.55607,0.67964 0.18536,0.30893 0.24714,0.67964 0.24714,1.11214 0,0.55607 -0.12357,1.05036 -0.4325,1.42107 -0.30893,0.37072 -0.67964,0.55607 -1.17392,0.55607 h -1.17393 z m 0.80321,0.74143 v 2.47143 h 0.30893 c 0.30893,0 0.49428,-0.12358 0.61786,-0.37072 0.12357,-0.24714 0.18535,-0.55607 0.18535,-0.865 0,-0.24714 -0.0618,-0.4325 -0.12357,-0.67964 -0.0618,-0.18536 -0.18536,-0.37071 -0.30893,-0.4325 -0.12357,-0.0618 -0.24714,-0.12357 -0.4325,-0.12357 z m 4.88106,1.11214 c 0,0 0,1.23571 -0.43249,1.73 -0.4325,0.4325 -0.55607,0.49428 -0.92679,0.49428 -0.4325,0 -0.80321,-0.18535 -1.05035,-0.55607 -0.24715,-0.37071 -0.37072,-0.86499 -0.37072,-1.42107 0,-0.61785 0.12357,-1.11214 0.37072,-1.54464 0.24714,-0.37071 0.61785,-0.55607 1.05035,-0.55607 0.37072,0 0.67964,0.12358 0.92679,0.37072 0.24714,0.24714 0.37071,0.55607 0.43249,0.98857 l -0.74142,0.12357 c -0.0618,-0.49429 -0.24714,-0.74143 -0.55607,-0.74143 -0.18536,0 -0.37072,0.12357 -0.49429,0.37071 -0.12357,0.24715 -0.18535,0.55608 -0.18535,0.98857 0,0.4325 0.0618,0.74143 0.18535,0.92679 0.12357,0.18536 0.30893,0.30893 0.49429,0.30893 0.12357,0 0.24714,-0.0618 0.37071,-0.18536 0.12357,-0.12357 0.18536,-0.30893 0.18536,-0.49428 h -0.61786 v -0.74143 h 1.35928 z m 2.595,-1.11214 h -1.60643 v 0.80321 h 1.23572 v 0.74143 h -1.23572 v 0.865 h 1.60643 v 0.80321 h -2.40964 v -3.95428 h 2.40964 z m 3.08928,-0.74143 v 3.95428 h -0.80321 v -3.95428 z m 2.78035,0 v 3.95428 h -0.67964 l -1.2975,-2.65678 v 2.65678 h -0.61785 v -3.95428 h 0.865 l 1.11214,2.34786 v -2.34786 z m 0.92679,2.53321 v 1.48286 h -0.80322 v -3.95428 h 1.2975 c 0.30893,0 0.49429,0.0618 0.67964,0.12357 0.18536,0.0618 0.30893,0.18536 0.4325,0.37071 0.12357,0.18536 0.18536,0.4325 0.18536,0.67965 0,0.18535 -0.0618,0.37071 -0.12357,0.55607 -0.0618,0.18535 -0.18536,0.30892 -0.24714,0.4325 -0.12358,0.12357 -0.24715,0.18535 -0.37072,0.18535 -0.12357,0.0618 -0.30893,0.0618 -0.55607,0.0618 H 121.903 Z m 0,-0.74142 h 0.49428 c 0.18536,0 0.30893,-0.0618 0.4325,-0.18536 0.12357,-0.12357 0.12357,-0.24714 0.12357,-0.37071 0,-0.18536 -0.0618,-0.30893 -0.12357,-0.37072 -0.0618,-0.12357 -0.24714,-0.12357 -0.37071,-0.12357 h -0.49429 v 1.05036 z m 4.63392,-1.79179 v 2.47143 c 0,0.37071 -0.0618,0.67964 -0.12357,0.865 -0.0618,0.18535 -0.24715,0.37071 -0.4325,0.49428 -0.18536,0.12357 -0.49429,0.18536 -0.80322,0.18536 -0.30892,0 -0.55607,-0.0618 -0.74142,-0.18536 -0.18536,-0.12357 -0.30893,-0.24714 -0.4325,-0.49428 -0.12357,-0.24715 -0.12357,-0.49429 -0.12357,-0.92679 V 87.9827 h 0.86499 v 2.47142 c 0,0.18536 0,0.37072 0.0618,0.49429 0,0.12357 0.0618,0.18535 0.18536,0.24714 0.12357,0.0618 0.18535,0.0618 0.30892,0.0618 0.12358,0 0.24715,0 0.37072,-0.0618 0.12357,-0.0618 0.12357,-0.12357 0.18536,-0.24714 0,-0.12357 0.0618,-0.24714 0.0618,-0.49429 V 87.9827 h 0.61786 z m 2.65678,0 v 0.80322 h -0.80321 v 3.21285 h -0.80322 V 88.8477 h -0.865 v -0.80322 z"
     id="path26"
     inkscape:connector-curvature="0"
     style="fill:#241c1e" />
  <path
     d="M 168.2422,75.56379 H 52.394192 c -6.363917,0 -11.615693,-5.25177 -11.615693,-11.61569 v -1.54464 c 0,-6.36392 5.251776,-11.6157 11.615693,-11.6157 H 168.18041 c 6.36392,0 11.6157,5.25178 11.6157,11.6157 v 1.54464 c 0.0618,6.36392 -5.18999,11.61569 -11.55391,11.61569 z"
     id="path28"
     inkscape:connector-curvature="0"
     style="fill:#181515" />
  <path
     d="m 110.10195,72.78344 h 54.86561 c 3.64535,0 6.67285,-2.84214 6.67285,-12.54248 h -6.67285 v -5.00463 h 0.24714 -109.731228 0.247143 v 5.00463 H 49.05777 c 0,9.63856 2.965709,12.54248 6.672845,12.54248 h 54.865615"
     id="path30"
     inkscape:connector-curvature="0" />
  <path
     d="m 110.10195,72.1038 h 54.30954 c 3.64535,0 6.61106,-2.65678 6.61106,-11.6157 h -6.61106 V 55.85418 H 164.65863 55.977757 56.2249 v 4.69571 h -6.61106 c 0,8.95891 2.965709,11.61569 6.61106,11.61569 h 54.30955"
     id="path32"
     inkscape:connector-curvature="0"
     style="fill:#282424" />
  <path
     d="M 49.984554,64.8131 H 170.71362 v 0.61785 H 49.984554 Z"
     id="path34"
     inkscape:connector-curvature="0"
     style="fill:#010102" />
  <path
     d="m 64.071671,57.64597 h -1.173926 c 0,-0.24715 0.247142,-0.49429 0.55607,-0.49429 0.308928,0 0.617856,0.24714 0.617856,0.49429 z"
     id="path36"
     inkscape:connector-curvature="0"
     style="fill:#363636" />
  <path
     d="m 64.071671,62.89774 h -1.173926 c 0,0.24715 0.247142,0.49429 0.55607,0.49429 0.308928,0 0.617856,-0.18536 0.617856,-0.49429 z"
     id="path38"
     inkscape:connector-curvature="0"
     style="fill:#464646" />
  <path
     d="m 62.897745,57.64597 h 1.173926 v 5.31356 h -1.173926 z"
     id="path40"
     inkscape:connector-curvature="0"
     style="fill:#424141" />
  <path
     d="m 64.071671,66.85202 h -1.173926 c 0,-0.18535 0.247142,-0.37071 0.55607,-0.37071 0.308928,0 0.617856,0.12357 0.617856,0.37071 z"
     id="path42"
     inkscape:connector-curvature="0"
     style="fill:#363636" />
  <path
     d="m 64.071671,71.11523 h -1.173926 c 0,0.18536 0.247142,0.37071 0.55607,0.37071 0.308928,0 0.617856,-0.18535 0.617856,-0.37071 z"
     id="path44"
     inkscape:connector-curvature="0"
     style="fill:#464646" />
  <path
     d="m 62.897745,66.85202 h 1.173926 v 4.26321 h -1.173926 z"
     id="path46"
     inkscape:connector-curvature="0"
     style="fill:#424141" />
  <path
     d="m 156.56472,57.64597 h 1.17393 c 0,-0.24715 -0.24715,-0.49429 -0.55607,-0.49429 -0.30893,0 -0.61786,0.24714 -0.61786,0.49429 z"
     id="path48"
     inkscape:connector-curvature="0"
     style="fill:#363636" />
  <path
     d="m 156.56472,62.89774 h 1.17393 c 0,0.24715 -0.24715,0.49429 -0.55607,0.49429 -0.30893,0 -0.61786,-0.18536 -0.61786,-0.49429 z"
     id="path50"
     inkscape:connector-curvature="0"
     style="fill:#464646" />
  <path
     d="m 156.56472,57.64597 h 1.17393 v 5.31356 h -1.17393 z"
     id="path52"
     inkscape:connector-curvature="0"
     style="fill:#424141" />
  <path
     d="m 156.56472,66.85202 h 1.17393 c 0,-0.18535 -0.24715,-0.37071 -0.55607,-0.37071 -0.30893,0 -0.61786,0.12357 -0.61786,0.37071 z"
     id="path54"
     inkscape:connector-curvature="0"
     style="fill:#363636" />
  <path
     d="m 156.56472,71.11523 h 1.17393 c 0,0.18536 -0.24715,0.37071 -0.55607,0.37071 -0.30893,0 -0.61786,-0.18535 -0.61786,-0.37071 z"
     id="path56"
     inkscape:connector-curvature="0"
     style="fill:#464646" />
  <path
     d="m 156.56472,66.85202 h 1.17393 v 4.26321 h -1.17393 z"
     id="path58"
     inkscape:connector-curvature="0"
     style="fill:#424141" />
  <path
     d="m 26.876738,136.11368 c 3.830707,-7.53784 9.885696,-11.36855 16.991041,-12.35712 5.684275,-0.67964 14.025332,2.40964 30.21316,6.24035 8.093914,1.91535 20.94532,2.90392 35.835651,2.84214 14.89033,0 27.74174,-0.92679 35.83565,-2.84214 16.18783,-3.83071 24.4671,-6.91999 30.21316,-6.24035 7.10534,0.98857 13.90176,4.57214 17.67068,12.10998 -4.01606,-8.1557 -9.57677,-13.53105 -17.29997,-13.53105 -5.74606,0 -12.8514,0.80322 -28.97744,4.69571 -8.03213,1.91535 -22.73711,2.90392 -37.44208,2.90392 -14.890331,0 -29.842447,-0.92678 -37.936361,-2.90392 -16.187829,-3.83071 -23.293173,-5.37535 -28.977449,-4.69571 -7.105344,0.98857 -12.295335,6.24035 -16.126042,13.77819 z"
     id="path60"
     inkscape:connector-curvature="0"
     style="fill:#181515" />
  <path
     d="m 176.89218,171.26969 c 0,8.1557 -9.39141,9.57677 -9.39141,9.57677 H 53.197405 c -1.668211,0 -9.391412,-1.35928 -9.391412,-9.57677 0,-8.1557 9.391412,-9.57677 9.391412,-9.57677 H 167.50077 c 0,0 9.39141,1.42107 9.39141,9.57677 z"
     id="path62"
     inkscape:connector-curvature="0"
     style="fill:#3f4040" />
  <path
     d="M 169.29255,178.62218 H 51.529194 c -2.965709,0 -5.437133,-2.40964 -5.437133,-5.43713 v -3.76893 c 0,-2.9657 2.409638,-5.43713 5.437133,-5.43713 H 169.29255 c 2.96571,0 5.43714,2.40964 5.43714,5.43713 v 3.76893 c 0,3.02749 -2.40964,5.43713 -5.43714,5.43713 z"
     id="path64"
     inkscape:connector-curvature="0"
     style="fill:#333333" />
  <path
     d="m 107.69231,175.47111 h -1.60643 c -0.18535,0 -0.37071,-0.18535 -0.37071,-0.37071 v -7.10534 c 0,-0.18536 0.18536,-0.37072 0.37071,-0.37072 h 1.60643 c 0.18535,0 0.37071,0.18536 0.37071,0.37072 v 7.10534 c 0,0.18536 -0.18536,0.37071 -0.37071,0.37071 z m 3.39821,0 h -1.60643 c -0.18536,0 -0.37071,-0.18535 -0.37071,-0.37071 v -7.10534 c 0,-0.18536 0.18535,-0.37072 0.37071,-0.37072 h 1.60643 c 0.18535,0 0.37071,0.18536 0.37071,0.37072 v 7.10534 c 0.0618,0.18536 -0.12357,0.37071 -0.37071,0.37071 z m 3.45999,0 h -1.60643 c -0.18535,0 -0.37071,-0.18535 -0.37071,-0.37071 v -7.10534 c 0,-0.18536 0.18536,-0.37072 0.37071,-0.37072 h 1.60643 c 0.18536,0 0.37071,0.18536 0.37071,0.37072 v 7.10534 c 0,0.18536 -0.18535,0.37071 -0.37071,0.37071 z"
     id="path66"
     inkscape:connector-curvature="0"
     style="fill:#631418" />
  <path
     d="m 167.93327,176.33611 h -22.05746 c -2.10071,0 -3.76892,-1.66821 -3.76892,-3.76892 v -2.65678 c 0,-2.10071 1.66821,-3.76892 3.76892,-3.76892 h 22.05746 c 2.10071,0 3.76892,1.66821 3.76892,3.76892 v 2.65678 c 0,2.10071 -1.72999,3.76892 -3.76892,3.76892 z m -92.74019,0 H 53.135619 c -2.10071,0 -3.768921,-1.66821 -3.768921,-3.76892 v -2.65678 c 0,-2.10071 1.668211,-3.76892 3.768921,-3.76892 H 75.19308 c 2.100711,0 3.768922,1.66821 3.768922,3.76892 v 2.65678 c 0,2.10071 -1.668211,3.76892 -3.768922,3.76892 z"
     id="path68"
     inkscape:connector-curvature="0"
     style="fill:#212020" />
  <path
     d="M 71.856657,173.3704 H 56.842756 c -0.617856,0 -1.112141,-0.49428 -1.112141,-1.11214 v -1.97714 c 0,-0.61785 0.494285,-1.11214 1.112141,-1.11214 h 15.013901 c 0.617856,0 1.112141,0.49429 1.112141,1.11214 v 1.97714 c 0,0.61786 -0.494285,1.11214 -1.112141,1.11214 z"
     id="path70"
     inkscape:connector-curvature="0"
     style="fill:#5c5c5c" />
  <path
     d="m 58.016682,170.09577 h 1.173927 c 0.06179,0 0.185356,0 0.247142,0.0618 0.06179,0 0.123571,0.0618 0.185357,0.0618 0.06179,0.0618 0.123571,0.0618 0.123571,0.12357 0.06179,0.0618 0.06179,0.12357 0.123571,0.18536 0,0.0618 0.06179,0.18535 0.06179,0.24714 0,0.24714 -0.06179,0.4325 -0.247143,0.55607 -0.185356,0.12357 -0.370713,0.18536 -0.679641,0.18536 h -0.494285 v 0.92678 h -0.432499 v -2.34785 z m 0.432499,1.11214 h 0.679642 l 0.123571,-0.0618 c 0.06179,0 0.06179,-0.0618 0.06179,-0.12357 v -0.12357 c 0,-0.0618 0,-0.12357 -0.06179,-0.18536 0,-0.0618 -0.06179,-0.0618 -0.123571,-0.12357 -0.06179,0 -0.123571,-0.0618 -0.123571,-0.0618 H 58.32561 v 0.67964 z m 2.965709,-1.17393 c 0.185357,0 0.308928,0 0.494285,0.0618 0.185357,0.0618 0.247143,0.12357 0.370714,0.24714 0.123571,0.12357 0.185357,0.24714 0.247142,0.37071 0.06179,0.18536 0.06179,0.30893 0.06179,0.49429 0,0.18535 0,0.37071 -0.06179,0.49428 -0.06179,0.18536 -0.123571,0.30893 -0.247142,0.37072 -0.123571,0.12357 -0.247143,0.18535 -0.370714,0.24714 -0.123571,0.0618 -0.308928,0.0618 -0.494285,0.0618 -0.185356,0 -0.308928,0 -0.494285,-0.0618 -0.123571,-0.0618 -0.247142,-0.12357 -0.370713,-0.24714 -0.123571,-0.12358 -0.185357,-0.24715 -0.247143,-0.37072 -0.06179,-0.18535 -0.06179,-0.30893 -0.06179,-0.49428 0,-0.18536 0,-0.37072 0.06179,-0.49429 0.06179,-0.18535 0.123572,-0.30893 0.247143,-0.37071 0.123571,-0.12357 0.247142,-0.18536 0.370713,-0.24714 0.185357,0 0.370714,-0.0618 0.494285,-0.0618 z m 0,2.1625 c 0.123572,0 0.185357,0 0.308928,-0.0618 0.06179,-0.0618 0.185357,-0.12357 0.247143,-0.18536 0.06179,-0.0618 0.123571,-0.18535 0.123571,-0.24714 0.06179,-0.12357 0.06179,-0.24714 0.06179,-0.37071 0,-0.12357 0,-0.24714 -0.06179,-0.37072 -0.06179,-0.12357 -0.06179,-0.18535 -0.123571,-0.24714 -0.06179,-0.0618 -0.123571,-0.12357 -0.247143,-0.18535 -0.06179,-0.0618 -0.185356,-0.0618 -0.308928,-0.0618 -0.123571,0 -0.185356,0 -0.308928,0.0618 -0.06179,0.0618 -0.185357,0.12357 -0.247142,0.18535 -0.06179,0.0618 -0.123571,0.18536 -0.123571,0.24714 -0.06179,0.12358 -0.06179,0.24715 -0.06179,0.37072 0,0.12357 0,0.24714 0.06179,0.37071 0.06178,0.12357 0.06178,0.18536 0.123571,0.24714 0.06179,0.0618 0.123571,0.12358 0.247142,0.18536 0.123572,0 0.247143,0.0618 0.308928,0.0618 z m 4.633921,-2.10071 -0.679642,2.47142 H 64.93667 l -0.494285,-1.79178 -0.494285,1.79178 h -0.432499 l -0.679642,-2.47142 h 0.494285 l 0.432499,1.66821 0.4325,-1.66821 h 0.494284 l 0.4325,1.66821 0.432499,-1.66821 z m 2.224281,2.47142 h -1.853568 v -2.47142 h 1.791783 v 0.4325 h -1.359284 v 0.55607 h 1.297498 v 0.4325 h -1.297498 v 0.61785 h 1.421069 z m 2.594996,0 h -0.494285 l -0.247143,-0.67964 c 0,-0.0618 -0.06179,-0.0618 -0.06179,-0.12357 0,-0.0618 -0.06179,-0.0618 -0.123571,-0.12357 -0.06179,0 -0.06179,-0.0618 -0.123572,-0.0618 h -0.617856 v 0.98857 h -0.432499 v -2.47142 h 1.482855 c 0.06179,0 0.123571,0 0.185357,0.0618 0.06179,0 0.123571,0.0618 0.123571,0.0618 l 0.123571,0.12357 c 0,0.0618 0.06179,0.0618 0.06179,0.12357 0,0.0618 0.06179,0.12357 0.06179,0.12357 v 0.12357 c 0,0.12357 -0.06179,0.24714 -0.123571,0.37072 -0.06179,0.12357 -0.185357,0.18535 -0.308928,0.24714 0.123571,0.0618 0.185357,0.18536 0.247142,0.37071 l 0.247143,0.865 z m -1.668212,-1.42107 h 0.803213 c 0.06179,0 0.123571,0 0.123571,-0.0618 0.06179,0 0.06179,-0.0618 0.06179,-0.12358 v -0.12357 c 0,-0.12357 -0.06179,-0.18535 -0.123571,-0.24714 -0.06179,-0.0618 -0.185357,-0.0618 -0.308928,-0.0618 H 69.19988 v 0.61785 z"
     id="path72"
     inkscape:connector-curvature="0"
     style="fill:#241c1e" />
  <path
     d="m 164.41149,173.3704 h -15.0139 c -0.61786,0 -1.11214,-0.49428 -1.11214,-1.11214 v -1.97714 c 0,-0.61785 0.49428,-1.11214 1.11214,-1.11214 h 15.0139 c 0.61786,0 1.11214,0.49429 1.11214,1.11214 v 1.97714 c 0,0.61786 -0.49428,1.11214 -1.11214,1.11214 z"
     id="path74"
     inkscape:connector-curvature="0"
     style="fill:#5c5c5c" />
  <path
     d="m 153.41365,172.56719 h -0.49428 l -0.24714,-0.67964 c 0,-0.0618 -0.0618,-0.0618 -0.0618,-0.12357 0,-0.0618 -0.0618,-0.0618 -0.12357,-0.12357 -0.0618,0 -0.0618,-0.0618 -0.12357,-0.0618 h -0.61786 v 0.98857 h -0.4325 v -2.47142 h 1.48286 c 0.0618,0 0.12357,0 0.18536,0.0618 0.0618,0 0.12357,0.0618 0.12357,0.0618 l 0.12357,0.12357 c 0,0.0618 0.0618,0.0618 0.0618,0.12357 0,0.0618 0.0618,0.12357 0.0618,0.12357 v 0.12357 c 0,0.12357 -0.0618,0.24714 -0.12357,0.37072 -0.0618,0.12357 -0.18536,0.18535 -0.30893,0.24714 0.12357,0.0618 0.18536,0.18536 0.24714,0.37071 l 0.24714,0.865 z m -1.66821,-1.42107 h 0.80322 c 0.0618,0 0.12357,0 0.12357,-0.0618 0.0618,0 0.0618,-0.0618 0.0618,-0.12358 v -0.12357 c 0,-0.12357 -0.0618,-0.18535 -0.12357,-0.24714 -0.0618,-0.0618 -0.18536,-0.0618 -0.30893,-0.0618 h -0.67964 v 0.61785 z m 3.95428,1.42107 h -1.85357 v -2.47142 h 1.79179 v 0.4325 h -1.35929 v 0.55607 h 1.2975 v 0.4325 h -1.2975 v 0.61785 h 1.42107 z m 1.42107,0 c -0.18536,0 -0.30893,0 -0.4325,-0.0618 -0.12357,-0.0618 -0.24714,-0.12357 -0.30893,-0.18535 -0.0618,-0.0618 -0.18535,-0.18536 -0.18535,-0.30893 -0.0618,-0.12357 -0.0618,-0.24714 -0.0618,-0.37071 h 0.4325 c 0,0.0618 0,0.18535 0.0618,0.24714 0.0618,0.0618 0.0618,0.12357 0.12357,0.18536 0.0618,0.0618 0.12357,0.0618 0.18535,0.0618 h 0.4325 c 0.0618,0 0.12357,-0.0618 0.18536,-0.0618 0.0618,0 0.0618,-0.0618 0.12357,-0.12358 0,-0.0618 0.0618,-0.0618 0.0618,-0.12357 0,-0.0618 0,-0.12357 -0.0618,-0.12357 0,-0.0618 -0.0618,-0.0618 -0.12357,-0.12357 -0.0618,0 -0.12357,-0.0618 -0.18536,-0.0618 -0.0618,0 -0.18535,-0.0618 -0.30892,-0.0618 -0.12358,-0.0618 -0.24715,-0.0618 -0.37072,-0.12357 -0.12357,-0.0618 -0.18536,-0.0618 -0.24714,-0.12357 -0.0618,-0.0618 -0.12357,-0.12357 -0.12357,-0.18536 -0.0618,-0.0618 -0.0618,-0.18536 -0.0618,-0.24714 0,-0.12357 0,-0.18536 0.0618,-0.30893 0.0618,-0.0618 0.12357,-0.18536 0.18535,-0.24714 0.0618,-0.0618 0.18536,-0.12357 0.30893,-0.12357 0.12357,-0.0618 0.24715,-0.0618 0.37072,-0.0618 0.12357,0 0.24714,0 0.37071,0.0618 0.12357,0.0618 0.18536,0.0618 0.30893,0.18535 0.12357,0.12357 0.12357,0.18536 0.18535,0.24715 0.0618,0.12357 0.0618,0.24714 0.0618,0.37071 h -0.55607 c -0.0618,-0.24714 -0.18536,-0.4325 -0.49428,-0.4325 -0.12358,0 -0.24715,0 -0.30893,0.0618 -0.0618,0.0618 -0.12357,0.12357 -0.12357,0.18535 v 0.0618 l 0.0618,0.0618 c 0.0618,0 0.0618,0.0618 0.12357,0.0618 0.0618,0 0.12357,0.0618 0.18536,0.0618 0.0618,0 0.12357,0.0618 0.24714,0.0618 0.0618,0 0.12357,0.0618 0.24714,0.0618 0.0618,0 0.12358,0.0618 0.18536,0.12357 0.0618,0.0618 0.12357,0.0618 0.18536,0.12357 0.0618,0.0618 0.0618,0.12357 0.12357,0.18536 0,0.0618 0.0618,0.18535 0.0618,0.24714 0,0.12357 0,0.18535 -0.0618,0.30893 -0.0618,0.12357 -0.12357,0.18535 -0.18536,0.24714 -0.0618,0.0618 -0.18535,0.12357 -0.30893,0.18535 -0.12357,0.0618 -0.24714,0.0618 -0.37071,0.0618 z m 3.27464,0 h -1.85357 v -2.47142 h 1.79178 v 0.4325 h -1.35928 v 0.55607 h 1.2975 v 0.4325 h -1.2975 v 0.61785 h 1.42107 z m 2.28607,-2.03892 h -0.74143 v 2.03892 h -0.4325 v -2.03892 h -0.74143 v -0.4325 h 1.97714 v 0.4325 z"
     id="path76"
     inkscape:connector-curvature="0"
     style="fill:#241c1e" />
  <path
     d="m 114.11801,174.72969 h -0.74143 c -0.18535,0 -0.37071,-0.18536 -0.37071,-0.37072 v -5.62249 c 0,-0.18535 0.18536,-0.37071 0.37071,-0.37071 h 0.74143 c 0.18536,0 0.37071,0.18536 0.37071,0.37071 v 5.62249 c 0,0.18536 -0.18535,0.37072 -0.37071,0.37072 z m -3.39821,0 h -0.74142 c -0.18536,0 -0.37072,-0.18536 -0.37072,-0.37072 v -5.62249 c 0,-0.18535 0.18536,-0.37071 0.37072,-0.37071 h 0.74142 c 0.18536,0 0.37072,0.18536 0.37072,0.37071 v 5.62249 c 0,0.18536 -0.18536,0.37072 -0.37072,0.37072 z m -3.45999,0 h -0.74143 c -0.18536,0 -0.37071,-0.18536 -0.37071,-0.37072 v -5.62249 c 0,-0.18535 0.18535,-0.37071 0.37071,-0.37071 h 0.74143 c 0.18536,0 0.37071,0.18536 0.37071,0.37071 v 5.62249 c 0,0.18536 -0.18535,0.37072 -0.37071,0.37072 z"
     id="path78"
     inkscape:connector-curvature="0"
     style="fill:#f95d5d" />
  <g
     id="g86"
     style="fill:#eff8fb">
    <path
       d="M 145.75224,45.165277 H 74.884152 l -5.189991,-3.027495 v -6.796416 l 4.881063,-2.842138 h 71.485946 l 4.94285,2.903923 v 6.796417 z M 75.069509,44.54742 h 70.559161 l 4.6957,-2.780352 v -6.054989 l -4.44856,-2.594995 H 74.760581 l -4.448564,2.594995 v 6.054989 z"
       id="path80"
       inkscape:connector-curvature="0" />
    <path
       d="m 122.39728,37.936361 h 7.22892 v 2.903923 l -2.595,1.729997 h -7.97034 l 2.65678,-1.791782 h 4.69571 v -1.050356 h -7.22892 v -2.842137 l 2.65678,-1.853569 h 7.97034 l -2.65678,1.791783 h -4.75749 m 8.21749,-1.791783 h 3.27463 v 7.537844 h -3.27463 m 7.7232,-4.63392 h 7.22891 v 2.903923 l -2.59499,1.729997 h -7.90856 l 2.595,-1.791782 h 4.6957 v -1.050356 h -7.22891 v -2.842137 l 2.65678,-1.853569 h 7.97034 l -2.65678,1.791783 h -4.75749"
       id="path82"
       inkscape:connector-curvature="0" />
    <path
       d="m 112.14087,40.778499 v -1.050356 h 3.08928 l 2.65678,-1.791782 h -5.74606 V 36.82422 h 4.69571 l 2.59499,-1.791783 h -7.7232 l -2.78035,1.791783 v 5.746061 h 7.84677 l 2.65678,-1.791782 m -29.966015,0 v -1.050356 h 3.08928 l 2.656781,-1.791782 H 89.465555 V 36.82422 h 4.695705 l 2.594996,-1.791783 h -7.661415 l -2.842138,1.791783 v 5.746061 h 7.846772 l 2.656781,-1.791782 m 8.032124,-0.679642 -4.01606,-2.53321 v 5.004634 h -3.274637 v -7.537844 h 3.274637 l 4.01606,2.224282 v -2.224281 h 3.21286 v 7.537843 h -3.21286 M 78.158789,36.82422 v 3.954279 h 4.016064 v -1.050356 h -3.274637 l 2.594996,-1.791782 h 3.892493 v 2.965709 l -2.471424,1.668211 h -8.032129 v -5.684275 l 2.718567,-1.853569 h 8.773555 l -2.594995,1.791783"
       id="path84"
       inkscape:connector-curvature="0" />
  </g>
  <path
     d="M 199.07322,1.17392 V 8.5882 c 0,0 -0.0618,0.92678 -1.2975,0.92678 H 22.860673 c -1.235712,0 -1.297497,-0.92678 -1.297497,-0.92678 V 1.17392 l 88.785914,0.0618 z"
     id="path88"
     inkscape:connector-curvature="0"
     style="fill:#444546" />
  <path
     d="m 22.304603,0 h 1.606426 v 8.46463 h -1.606426 z m 2.471424,0 h 1.606426 v 8.46463 h -1.606426 z m 2.471424,0 h 1.606426 v 8.46463 h -1.606426 z m 2.471425,0 h 1.606425 V 8.46463 H 29.718876 Z M 32.1903,0 h 1.606425 V 8.46463 H 32.1903 Z m 2.471424,0 h 1.606426 v 8.46463 h -1.606426 z m 2.53321,0 h 1.606425 v 8.46463 h -1.606425 z m 2.471424,0 h 1.606425 v 8.46463 h -1.606425 z m 2.53321,0 h 1.606425 v 8.46463 h -1.606425 z m 2.471424,0 h 1.606425 v 8.46463 h -1.606425 z m 2.533209,0 h 1.606426 v 8.46463 h -1.606426 z m 2.471425,0 h 1.606425 v 8.46463 h -1.606425 z m 2.409638,0 h 1.606426 v 8.46463 h -1.606426 z m 2.471424,0 h 1.606426 v 8.46463 h -1.606426 z m 2.53321,0 h 1.606426 v 8.46463 h -1.606426 z m 2.471424,0 h 1.606426 v 8.46463 h -1.606426 z m 2.53321,0 h 1.606426 v 8.46463 h -1.606426 z m 2.471424,0 h 1.606426 v 8.46463 h -1.606426 z m 2.471424,0 h 1.606426 V 8.46463 H 67.03738 Z m 2.471424,0 h 1.606426 v 8.46463 h -1.606426 z m 2.471425,0 h 1.606425 v 8.46463 h -1.606425 z m 2.471424,0 h 1.606425 v 8.46463 h -1.606425 z m 2.53321,0 h 1.606425 v 8.46463 h -1.606425 z m 2.471424,0 h 1.606425 v 8.46463 h -1.606425 z m 2.471424,0 h 1.606426 v 8.46463 h -1.606426 z m 2.471424,0 h 1.606426 v 8.46463 h -1.606426 z m 2.53321,0 h 1.606425 v 8.46463 h -1.606425 z m 2.471424,0 h 1.606426 v 8.46463 h -1.606426 z m 2.409638,0 h 1.606426 v 8.46463 h -1.606426 z m 2.53321,0 h 1.606426 v 8.46463 h -1.606426 z m 2.471424,0 h 1.606426 v 8.46463 h -1.606426 z m 2.471425,0 h 1.606424 v 8.46463 h -1.606424 z m 2.656784,0 h 1.60642 v 8.46463 h -1.60642 z m 2.53321,0 h 1.60642 v 8.46463 h -1.60642 z m 2.47142,0 h 1.60643 v 8.46463 h -1.60643 z m 2.40964,0 h 1.60642 v 8.46463 h -1.60642 z m 2.47142,0 h 1.60643 v 8.46463 h -1.60643 z m 2.53321,0 h 1.60643 v 8.46463 h -1.60643 z m 2.47143,0 h 1.60642 v 8.46463 h -1.60642 z m 2.53321,0 h 1.60642 v 8.46463 h -1.60642 z m 2.47142,0 h 1.60643 v 8.46463 h -1.60643 z m 2.53321,0 h 1.60643 v 8.46463 h -1.60643 z m 2.47142,0 h 1.60643 v 8.46463 h -1.60643 z m 2.40964,0 h 1.60643 v 8.46463 h -1.60643 z m 2.47143,0 h 1.60642 v 8.46463 h -1.60642 z m 2.53321,0 h 1.60642 v 8.46463 h -1.60642 z m 2.47142,0 h 1.60643 v 8.46463 h -1.60643 z m 2.71857,0 h 1.60642 v 8.46463 h -1.60642 z m 2.53321,0 h 1.60642 v 8.46463 h -1.60642 z m 2.47142,0 h 1.60643 v 8.46463 h -1.60643 z m 2.40964,0 h 1.60643 v 8.46463 h -1.60643 z m 2.47142,0 h 1.60643 v 8.46463 h -1.60643 z m 2.53321,0 h 1.60643 v 8.46463 h -1.60643 z m 2.47143,0 h 1.60642 v 8.46463 h -1.60642 z m 2.53321,0 h 1.60642 v 8.46463 h -1.60642 z m 2.47142,0 h 1.60643 v 8.46463 h -1.60643 z m 2.53321,0 h 1.60643 v 8.46463 h -1.60643 z m 2.47143,0 h 1.60642 v 8.46463 h -1.60642 z m 2.40964,0 h 1.60642 v 8.46463 h -1.60642 z m 2.47142,0 h 1.60642 v 8.46463 h -1.60642 z m 2.53321,0 h 1.60642 v 8.46463 h -1.60642 z m 2.47142,0 h 1.60643 v 8.46463 h -1.60643 z m 2.595,0 h 1.60642 v 8.46463 h -1.60642 z m 2.53321,0 h 1.60642 v 8.46463 h -1.60642 z m 2.47142,0 h 1.60643 v 8.46463 h -1.60643 z m 2.40964,0 h 1.60643 v 8.46463 h -1.60643 z m 2.47143,0 h 1.60642 v 8.46463 h -1.60642 z m 2.5332,0 h 1.60643 v 8.46463 h -1.60643 z m 2.47143,0 h 1.60642 v 8.46463 h -1.60642 z m 2.53321,0 h 1.60642 v 8.46463 h -1.60642 z m 2.47142,0 h 1.60643 v 8.46463 h -1.60643 z"
     id="path90"
     inkscape:connector-curvature="0"
     style="fill:#282424" />
  <path
     d="M 225.20853,190.9793 V 8.77355 C 225.20853,3.95428 228.60673,0 232.68458,0 h 10.50356 V 1.17392 H 381.46432 V 0 h 11.05962 C 396.60179,0 400,3.95428 400,8.77355 v 125.30121 c 0,42.81742 -29.78066,77.84986 -66.1106,77.84986 h -73.03058 c -11.12141,0 -21.8721,-5.86963 -28.85388,-13.65462"
     id="path92"
     inkscape:connector-curvature="0"
     style="fill:#3f3f3f" />
  <path
     d="m 333.82762,179.79611 h -73.33951 c -5.86964,0 -11.73927,0.92678 -17.36176,2.71856 l -17.91782,8.46463 V 7.41427 C 225.20853,3.33642 228.54495,0 232.68458,0 h 10.50356 V 1.17392 L 381.46432,1.42107 V 0 h 11.05962 C 396.60179,0 400,3.33642 400,7.41427 V 113.7473 c -0.0618,36.32993 -29.78066,66.04881 -66.17238,66.04881 z"
     id="path94"
     inkscape:connector-curvature="0"
     style="fill:#312f2f" />
  <path
     d="m 325.23942,171.39326 h -52.64134 c -19.52425,0 -35.46493,-15.8789 -35.46493,-35.40315 v -94.8409 c 0,-8.95891 7.2907,-16.24961 16.24961,-16.24961 h 121.59407 c 8.95891,0 16.24961,7.2907 16.24961,16.24961 v 64.31881 c 0,36.39173 -29.5953,65.92524 -65.98702,65.92524 z M 253.38276,25.51745 c -8.64998,0 -15.63176,6.98178 -15.63176,15.63176 v 94.8409 c 0,19.21533 15.63176,34.7853 34.84708,34.7853 h 52.64134 c 36.02101,0 65.36917,-29.28638 65.36917,-65.30739 V 41.14921 c 0,-8.5882 -7.04356,-15.63176 -15.63176,-15.63176 H 253.38276 Z"
     id="path96"
     inkscape:connector-curvature="0"
     style="fill:#181515" />
  <path
     d="m 237.44208,58.57275 h 153.47544 v 1.11214 H 237.44208 Z"
     id="path98"
     inkscape:connector-curvature="0"
     style="fill:#181515" />
  <path
     d="m 290.63948,43.68242 -0.18536,-0.12357 v -0.18536 c 0,-0.18535 -1.17392,-1.05035 -3.15106,-1.05035 -1.91536,0 -2.71857,0.61785 -2.71857,1.42107 0,2.10071 7.22892,-0.98857 7.22892,3.64535 0,1.66821 -1.54464,2.96571 -4.69571,2.96571 -3.02749,0 -3.89249,-0.98857 -4.13963,-0.98857 -0.0618,0 -0.12358,0.0618 -0.18536,0.12357 l -0.18536,-0.0618 1.05036,-2.16249 0.18535,0.12357 v 0.18535 c 0,0.74143 1.60643,1.2975 3.15107,1.2975 2.22428,0 3.02749,-0.67964 3.02749,-1.35928 0,-2.53321 -7.16713,0.61785 -7.16713,-3.64535 0,-2.1625 2.1625,-3.0275 4.57214,-3.0275 2.1625,0 3.64535,0.98857 3.76892,0.98857 0.18536,0 0.18536,-0.0618 0.24714,-0.0618 l 0.18536,0.0618 -0.98857,1.85357 z m 2.1625,6.36392 c 0.24714,0 0.30893,-0.12357 0.30893,-0.37072 v -8.1557 c 0,-0.30892 -0.0618,-0.37071 -0.30893,-0.37071 v -0.18536 h 7.97034 c 0.30893,0 0.4325,-0.12357 0.4325,-0.30892 h 0.18536 v 2.10071 h -0.18536 c 0,-0.24715 -0.12357,-0.30893 -0.4325,-0.30893 h -5.93142 v 2.28607 h 3.8925 c 0.30892,0 0.43249,-0.12358 0.43249,-0.30893 h 0.18536 v 2.16249 h -0.18536 c 0,-0.12357 0,-0.18535 -0.12357,-0.24714 -0.0618,-0.0618 -0.18535,-0.0618 -0.30892,-0.0618 h -3.8925 v 2.53321 h 6.05499 c 0.30893,0 0.4325,-0.12358 0.4325,-0.30893 h 0.18536 v 2.10071 h -0.18536 c 0,-0.18536 -0.12357,-0.30893 -0.4325,-0.30893 h -8.09391 v -0.24714 z m 19.58603,-4.69571 v 0.18536 c -0.12357,0 -0.24714,0.12357 -0.24714,0.4325 v 2.53321 c 0,0.18535 0.0618,0.30893 0.24714,0.30893 v 0.18535 c -0.80321,0.4325 -2.65678,1.42107 -4.81927,1.42107 -2.84214,0 -5.31357,-1.48285 -5.31357,-4.75749 0,-3.33642 2.90393,-4.75749 5.43714,-4.75749 0.98857,0 1.97714,0.24714 2.65678,0.49428 0.67964,0.30893 1.11214,0.49429 1.23571,0.49429 0.12357,0 0.24714,-0.0618 0.24714,-0.12357 l 0.18536,0.0618 -1.17393,2.10071 -0.18535,-0.12357 v -0.24714 c 0,-0.37071 -1.35929,-1.17393 -2.96571,-1.17393 -2.03893,0 -3.76892,1.05036 -3.76892,3.21285 0,2.28607 1.66821,3.33643 3.58356,3.33643 1.54464,0 2.47143,-0.55607 2.84214,-0.80322 v -1.17392 h -2.03893 c -0.24714,0 -0.37071,0.12357 -0.37071,0.30893 h -0.24714 v -2.22429 h 0.18535 c 0,0.18536 0.12358,0.30893 0.37072,0.30893 h 4.13963 z m 0.61786,4.88106 v -0.18535 c 0.24714,0 0.30893,-0.0618 0.49428,-0.49429 l 3.33643,-7.84677 c 0.0618,-0.12357 0.12357,-0.24714 0.12357,-0.37071 0,-0.12357 -0.12357,-0.18536 -0.24714,-0.24714 v -0.18536 h 2.65678 v 0.18536 c -0.18536,0 -0.24715,0.12357 -0.24715,0.18535 0,0.12357 0.0618,0.18536 0.12358,0.30893 l 3.58356,7.97034 c 0.18536,0.37072 0.24714,0.49429 0.49429,0.49429 v 0.18535 h -2.47143 v -0.18535 c 0.18536,0 0.24714,-0.0618 0.24714,-0.12357 0,-0.12357 -0.12357,-0.30893 -0.92678,-2.1625 h -4.20142 c -0.74143,1.66821 -0.92679,1.91535 -0.92679,2.10071 0,0.12357 0.0618,0.18536 0.18536,0.18536 v 0.18535 z m 6.4257,-3.89249 -1.48285,-3.33642 -1.48286,3.33642 z"
     id="path100"
     inkscape:connector-curvature="0"
     style="fill:#eff8fb" />
  <path
     d="M 350.2008,51.77633 H 280.93914 V 39.41921 h 69.26166 z m -68.58202,-0.80321 h 68.02595 V 40.22243 h -68.02595 z"
     id="path102"
     inkscape:connector-curvature="0"
     style="fill:#eff8fb" />
  <g
     id="g108"
     style="fill:#eff8fb">
    <path
       d="m 350.44795,39.666358 h 0.4325 v 1.421069 h 0.18535 v -1.421069 h 0.4325 v -0.247143 h -1.05035"
       id="path104"
       inkscape:connector-curvature="0" />
    <path
       d="m 352.54866,39.419215 -0.37072,1.297498 -0.37071,-1.297498 h -0.30893 v 1.668212 h 0.24714 v -1.235712 l 0.37072,1.235712 h 0.12357 l 0.37071,-1.235712 v 1.235712 h 0.18536 v -1.668212"
       id="path106"
       inkscape:connector-curvature="0" />
  </g>
  <path
     d="m 325.42478,40.96385 v 9.32963 h 23.66388 v -9.32963 z m 0.98857,6.48749 c -0.18536,-1.66821 4.13963,-3.89249 9.82391,-5.00463 -0.12357,0.0618 -0.37072,0.12357 -0.37072,0.12357 l -0.74142,0.24714 c -2.90393,0.865 -4.94285,2.53321 -4.7575,3.95428 0.18536,1.48286 2.595,2.22428 5.68428,1.97714 0.18536,0 0.80321,-0.0618 0.92678,-0.0618 -5.68427,0.92679 -10.37998,0.4325 -10.56533,-1.23571 z m 14.21068,0.37072 c -1.23571,0.37071 -2.84213,0.67964 -2.84213,0.67964 v -4.13964 l 0.80321,3.39821 c 0,0 1.91535,-0.37071 3.39821,-1.17393 1.2975,-0.67964 2.10071,-1.54464 2.03892,-2.40963 -0.0618,-1.48286 -2.53321,-2.22429 -5.5607,-1.97714 -0.18536,0 -0.865,0.0618 -0.98857,0.0618 5.68427,-0.98857 10.37998,-0.49428 10.56534,1.17393 0.12357,1.35928 -2.96571,3.15106 -7.41428,4.38678 z"
     id="path110"
     inkscape:connector-curvature="0"
     style="fill:#eff8fb" />
  <g
     id="g116"
     style="fill:#eff8fb">
    <path
       d="m 286.31449,138.15261 v 0.12357 c 0,0.12357 0,0.18536 -0.4325,0.18536 -0.4325,0 -0.37071,-0.0618 -0.4325,-0.18536 v -0.865 c 0,-0.12357 0,-0.18535 0.4325,-0.18535 0.4325,0 0.37071,0.0618 0.4325,0.18535 v 0.12357 h 0.55607 v -0.30892 c -0.0618,-0.30893 0.0618,-0.55607 -0.92678,-0.55607 -1.05036,0 -0.92679,0.24714 -0.92679,0.55607 v 1.11214 c 0.0618,0.30893 -0.0618,0.55607 0.92679,0.55607 1.05035,0 0.92678,-0.24714 0.92678,-0.55607 v -0.24715 h -0.55607 z m -6.48749,-1.35928 -0.55607,1.60642 -0.55607,-1.60642 h -0.80321 v 2.10071 h 0.55607 v -1.54464 l 0.55607,1.54464 h 0.49428 l 0.55607,-1.54464 v 1.54464 h 0.55607 v -2.10071 m 6.36392,0 h 1.54464 v 0.55607 h -0.49428 v 1.54464 h -0.55607 v -1.54464 h -0.49429 m -4.13964,1.54464 0.61786,-2.10071 h 0.80321 l 0.61786,2.10071 h -0.55607 l -0.12357,-0.4325 h -0.67964 l 0.12357,-0.30893 h 0.49428 l -0.24714,-0.865 -0.49428,1.60643 m -6.79642,-1.66821 c 0.4325,0 0.37071,0.0618 0.4325,0.18535 v 0.865 c 0,0.12357 0,0.18536 -0.4325,0.18536 -0.4325,0 -0.37071,-0.0618 -0.4325,-0.18536 v -0.865 c 0.0618,-0.12357 0.0618,-0.18535 0.4325,-0.18535 v -0.49429 c -1.05036,0 -0.92679,0.24714 -0.92679,0.55607 v 1.11214 c 0.0618,0.30893 -0.0618,0.55607 0.92679,0.55607 0.98857,0 0.92678,-0.24714 0.92678,-0.55607 v -1.11214 c -0.0618,-0.30893 0.0618,-0.55607 -0.92678,-0.55607 z m -1.79178,0.92678 v 0.12357 c 0,0.12357 0,0.18536 -0.4325,0.18536 -0.4325,0 -0.37072,-0.0618 -0.4325,-0.18536 v -0.865 c 0,-0.12357 0,-0.18535 0.4325,-0.18535 0.4325,0 0.37071,0.0618 0.4325,0.18535 v 0.12357 h 0.55607 v -0.30892 c -0.0618,-0.30893 0.0618,-0.55607 -0.92679,-0.55607 -1.05035,0 -0.92678,0.24714 -0.92678,0.55607 v 1.11214 c 0.0618,0.30892 -0.0618,0.55607 0.92678,0.55607 1.05036,0 0.92679,-0.24715 0.92679,-0.55607 v -0.24715 h -0.55607 z m 7.10534,0.30893 h -0.30893 v -0.49429 h 0.30893 c 0.4325,0 0.37071,-0.0618 0.4325,-0.18535 v -0.24715 c 0,-0.12357 0,-0.18535 -0.4325,-0.18535 h -0.30893 v 1.60642 h -0.55607 v -2.10071 h 0.865 c 1.05036,0 0.92678,0.24714 0.92678,0.55607 v 0.49429 c 0,0.24714 0.0618,0.55607 -0.92678,0.55607 z m -10.44177,8.40284 h -3.33642 c -0.49428,0 -0.865,-0.37071 -0.865,-0.865 v -5.1282 c 0,-0.49429 0.37072,-0.865 0.865,-0.865 h 2.10071 c 0.24714,0 0.4325,-0.18536 0.4325,-0.4325 v -2.03893 c 0,-0.12357 0.0618,-0.18535 0.18536,-0.18535 h 1.23571 c 0.12357,0 0.18536,0.0618 0.18536,0.18535 v 9.20606 c 0,0.12357 -0.0618,0.18536 -0.18536,0.18536 l -0.61786,-0.0618 v 0.4325 h 0.865 c 0.24714,0 0.4325,-0.18536 0.4325,-0.4325 v -9.57677 c 0,-0.24714 -0.18536,-0.4325 -0.4325,-0.4325 h -1.60642 c -0.24715,0 -0.4325,0.18536 -0.4325,0.4325 v 2.03893 c 0,0.12357 -0.0618,0.18535 -0.18536,0.18535 h -1.91535 c -0.74143,0 -1.35929,0.61786 -1.35929,1.35929 v 5.1282 c 0,0.74143 0.61786,1.35928 1.35929,1.35928 h 3.33642 z"
       id="path112"
       inkscape:connector-curvature="0" />
    <path
       d="m 270.18845,144.94903 v -3.33643 c 0,-0.24714 -0.24715,-0.49428 -0.49429,-0.49428 -0.24714,0 -0.49428,0.24714 -0.49428,0.49428 v 3.58357 c 0,0.24714 0.24714,0.49428 0.49428,0.49428 0.24714,0 0.49429,-0.24714 0.49429,-0.49428 v -0.24714 h 0.4325 v 0.24714 c 0,0.55607 -0.4325,0.98857 -0.98857,0.98857 -0.55607,0 -0.98857,-0.4325 -0.98857,-0.98857 v -3.58357 c 0,-0.55607 0.4325,-0.98857 0.98857,-0.98857 0.55607,0 0.98857,0.4325 0.98857,0.98857 v 3.33643 z m 4.44856,1.91535 h -0.61786 c -0.12357,0 -0.18535,-0.0618 -0.18535,-0.18536 v -6.48748 c 0,-0.12358 0.0618,-0.18536 0.18535,-0.18536 h 1.23572 c 0.12357,0 0.18535,0.0618 0.18535,0.18536 v 6.48748 c 0,0.12358 -0.0618,0.18536 -0.18535,0.18536 h -0.61786 v 0.4325 h 0.80321 c 0.24715,0 0.4325,-0.18536 0.4325,-0.4325 v -6.8582 c 0,-0.24714 -0.18535,-0.4325 -0.4325,-0.4325 h -1.60642 c -0.24715,0 -0.4325,0.18536 -0.4325,0.4325 v 6.8582 c 0,0.24714 0.18535,0.4325 0.4325,0.4325 h 0.80321 z m 5.86963,-5.62249 h -1.35928 c -0.4325,0 -0.74143,0.30893 -0.74143,0.74143 0,0.4325 0.30893,0.74143 0.74143,0.74143 h 1.85357 c 0.49428,0 0.865,0.37071 0.865,0.86499 v 2.28607 c 0,0.49429 -0.37072,0.865 -0.865,0.865 h -3.70714 c -0.12357,0 -0.18536,-0.0618 -0.18536,-0.18536 v -0.865 c 0,-0.12357 0.0618,-0.18535 0.18536,-0.18535 h 2.53321 c 0.4325,0 0.74143,-0.30893 0.74143,-0.74143 0,-0.4325 -0.30893,-0.74143 -0.74143,-0.74143 h -1.79178 c -0.49429,0 -0.865,-0.37071 -0.865,-0.865 v -2.28606 c 0,-0.49429 0.37071,-0.865 0.865,-0.865 h 3.39821 c 0.12357,0 0.18535,0.0618 0.18535,0.18536 v 0.92678 c 0,0.12357 -0.0618,0.18536 -0.18535,0.18536 l -0.92679,-0.0618 v 0.4325 h 1.11214 c 0.24714,0 0.4325,-0.18536 0.4325,-0.4325 v -1.2975 c 0,-0.24714 -0.18536,-0.4325 -0.4325,-0.4325 h -3.58356 c -0.74143,0 -1.35929,0.61786 -1.35929,1.35929 v 2.28606 c 0,0.74143 0.61786,1.35929 1.35929,1.35929 h 1.79178 c 0.18536,0 0.30893,0.12357 0.30893,0.30893 0,0.18535 -0.12357,0.30892 -0.30893,0.30892 h -2.71857 c -0.24714,0 -0.4325,0.18536 -0.4325,0.4325 v 1.2975 c 0,0.24714 0.18536,0.4325 0.4325,0.4325 h 3.8925 c 0.74142,0 1.35928,-0.61786 1.35928,-1.35928 v -2.28607 c 0,-0.74143 -0.61786,-1.35928 -1.35928,-1.35928 h -1.85357 c -0.18536,0 -0.30893,-0.12357 -0.30893,-0.30893 0,-0.18536 0.12357,-0.30893 0.30893,-0.30893 h 1.35928 z m 6.79642,1.2975 h 0.55607 c 0.12357,0 0.18536,-0.0618 0.18536,-0.18536 v -1.48285 c 0,-0.49429 -0.37072,-0.865 -0.865,-0.865 h -2.90393 c -0.49428,0 -0.86499,0.37071 -0.86499,0.865 v 5.1282 c 0,0.49429 0.37071,0.865 0.86499,0.865 h 2.90393 c 0.49428,0 0.865,-0.37071 0.865,-0.865 v -1.42107 c 0,-0.12357 -0.0618,-0.18535 -0.18536,-0.18535 h -1.11214 c -0.12357,0 -0.18536,0.0618 -0.18536,0.18535 v 0.67965 c 0,0.55607 -0.30893,0.98857 -0.865,0.98857 -0.55607,0 -0.865,-0.4325 -0.865,-0.98857 v -3.58357 c 0,-0.55607 0.30893,-0.98857 0.865,-0.98857 0.55607,0 0.865,0.4325 0.865,0.98857 v 0.67964 c 0,0.12357 0.0618,0.18536 0.18536,0.18536 h 0.55607 v 0.4325 h -0.67964 c -0.24715,0 -0.4325,-0.18536 -0.4325,-0.4325 v -0.865 c 0,-0.24714 -0.12357,-0.49428 -0.4325,-0.49428 -0.24714,0 -0.4325,0.24714 -0.4325,0.49428 v 3.58356 c 0,0.24715 0.12357,0.49429 0.4325,0.49429 0.24714,0 0.4325,-0.24714 0.4325,-0.49429 v -0.86499 c 0,-0.24715 0.18535,-0.4325 0.4325,-0.4325 h 1.48285 c 0.24714,0 0.4325,0.18535 0.4325,0.4325 v 1.60642 c 0,0.74143 -0.61786,1.35929 -1.35928,1.35929 h -2.90393 c -0.74142,0 -1.35928,-0.61786 -1.35928,-1.35929 v -5.1282 c 0,-0.74143 0.61786,-1.35929 1.35928,-1.35929 h 2.90393 c 0.74142,0 1.35928,0.61786 1.35928,1.35929 v 1.66821 c 0,0.24714 -0.18536,0.4325 -0.4325,0.4325 h -0.80321 z"
       id="path114"
       inkscape:connector-curvature="0" />
  </g>
  <path
     d="m 335.55762,114.92122 c -21.19247,20.20389 -32.6228,37.13315 -24.65246,45.53599 8.03213,8.40284 33.36423,5.68428 54.55669,-14.51962 21.19246,-20.20389 26.13531,-45.4742 18.10318,-53.81526 -8.03213,-8.34105 -26.81495,2.595 -48.00741,22.79889 z"
     id="path118"
     inkscape:connector-curvature="0"
     style="fill:#181515" />
  <path
     d="m 339.51189,120.11121 c -12.54247,11.98641 -18.47389,26.1971 -13.09854,31.81959 5.37534,5.62249 19.83317,0.37071 32.43744,-11.55391 12.54248,-11.98641 18.47389,-26.1971 13.09855,-31.81959 -5.37535,-5.62249 -19.83318,-0.43249 -32.43745,11.55391 z"
     id="path120"
     inkscape:connector-curvature="0"
     style="fill:#2c2929" />
  <circle
     cx="339.57367"
     cy="139.20297"
     r="1.7917826"
     id="circle122"
     style="fill:#181515" />
  <circle
     cx="345.0726"
     cy="133.58047"
     r="1.7917826"
     id="circle124"
     style="fill:#181515" />
  <circle
     cx="350.57153"
     cy="127.95798"
     r="1.7917826"
     id="circle126"
     style="fill:#181515" />
  <circle
     cx="356.07043"
     cy="122.58264"
     r="1.7917826"
     id="circle128"
     style="fill:#181515" />
  <path
     d="m 275.74915,200.80321 h -0.61786 l -0.30892,-1.17393 h -1.11214 l -0.30893,1.17393 h -0.61786 l 1.17393,-4.13963 h 0.55607 z m -1.17393,-1.85357 -0.37071,-1.29749 -0.37071,1.29749 z m 3.46,-0.865 c 0,-0.12357 0,-0.24714 -0.0618,-0.30892 -0.0618,-0.12357 -0.0618,-0.18536 -0.12357,-0.24715 l -0.18536,-0.18535 c -0.0618,-0.0618 -0.18535,-0.0618 -0.24714,-0.0618 -0.12357,0 -0.24714,0.0618 -0.37071,0.12357 -0.12357,0.0618 -0.18536,0.18536 -0.24714,0.24715 -0.0618,0.12357 -0.12358,0.24714 -0.18536,0.43249 -0.0618,0.18536 -0.0618,0.37072 -0.0618,0.61786 0,0.24714 0,0.4325 0.0618,0.61786 0.0618,0.18535 0.12357,0.30892 0.18536,0.4325 0.0618,0.12357 0.18535,0.18535 0.24714,0.30892 0.12357,0.0618 0.24714,0.12358 0.37071,0.12358 0.12357,0 0.18536,0 0.24714,-0.0618 0.0618,-0.0618 0.12358,-0.0618 0.18536,-0.18536 0.0618,-0.0618 0.12357,-0.18535 0.12357,-0.24714 0.0618,-0.12357 0.0618,-0.24714 0.0618,-0.37071 h 0.55607 c 0,0.24714 -0.0618,0.49428 -0.12357,0.67964 -0.0618,0.18536 -0.18536,0.37071 -0.24715,0.49428 -0.12357,0.12357 -0.24714,0.24715 -0.37071,0.30893 -0.12357,0.0618 -0.30893,0.12357 -0.49428,0.12357 -0.24715,0 -0.4325,-0.0618 -0.61786,-0.12357 -0.18536,-0.12357 -0.30893,-0.24714 -0.4325,-0.4325 -0.12357,-0.18535 -0.24714,-0.4325 -0.30893,-0.67964 -0.0618,-0.24714 -0.12357,-0.55607 -0.12357,-0.865 0,-0.30893 0.0618,-0.61785 0.12357,-0.865 0.0618,-0.24714 0.18536,-0.49428 0.30893,-0.67964 0.12357,-0.18535 0.24714,-0.30893 0.4325,-0.4325 0.18536,-0.12357 0.37071,-0.12357 0.55607,-0.12357 0.18536,0 0.30893,0.0618 0.4325,0.12357 0.12357,0.0618 0.24714,0.18536 0.37071,0.30893 0.12357,0.12357 0.18536,0.30893 0.24715,0.49429 0.0618,0.18535 0.12357,0.37071 0.12357,0.61785 h -0.4325 z m 3.15106,0 c 0,-0.12357 0,-0.24714 -0.0618,-0.30892 -0.0618,-0.12357 -0.0618,-0.18536 -0.12357,-0.24715 l -0.18536,-0.18535 c -0.0618,-0.0618 -0.18536,-0.0618 -0.24714,-0.0618 -0.12357,0 -0.24714,0.0618 -0.37072,0.12357 -0.12357,0.0618 -0.18535,0.18536 -0.24714,0.24715 -0.0618,0.12357 -0.12357,0.24714 -0.18536,0.43249 -0.0618,0.18536 -0.0618,0.37072 -0.0618,0.61786 0,0.24714 0,0.4325 0.0618,0.61786 0.0618,0.18535 0.12358,0.30892 0.18536,0.4325 0.0618,0.12357 0.18536,0.18535 0.24714,0.30892 0.12358,0.0618 0.24715,0.12358 0.37072,0.12358 0.12357,0 0.18535,0 0.24714,-0.0618 0.0618,-0.0618 0.12357,-0.0618 0.18536,-0.18536 0.0618,-0.0618 0.12357,-0.18535 0.12357,-0.24714 0.0618,-0.12357 0.0618,-0.24714 0.0618,-0.37071 h 0.55607 c 0,0.24714 -0.0618,0.49428 -0.12357,0.67964 -0.0618,0.18536 -0.18535,0.37071 -0.24714,0.49428 -0.12357,0.12357 -0.24714,0.24715 -0.37071,0.30893 -0.12357,0.0618 -0.30893,0.12357 -0.49429,0.12357 -0.24714,0 -0.4325,-0.0618 -0.61785,-0.12357 -0.18536,-0.12357 -0.30893,-0.24714 -0.4325,-0.4325 -0.12357,-0.18535 -0.24715,-0.4325 -0.30893,-0.67964 -0.0618,-0.24714 -0.12357,-0.55607 -0.12357,-0.865 0,-0.30893 0.0618,-0.61785 0.12357,-0.865 0.0618,-0.24714 0.18536,-0.49428 0.30893,-0.67964 0.12357,-0.18535 0.24714,-0.30893 0.4325,-0.4325 0.18535,-0.12357 0.37071,-0.12357 0.55607,-0.12357 0.18535,0 0.30892,0.0618 0.4325,0.12357 0.12357,0.0618 0.24714,0.18536 0.37071,0.30893 0.12357,0.12357 0.18536,0.30893 0.24714,0.49429 0.0618,0.18535 0.12357,0.37071 0.12357,0.61785 h -0.4325 z m 3.46,2.71857 h -2.28607 v -4.13963 h 2.22428 v 0.74142 h -1.66821 v 0.92679 h 1.54464 v 0.67964 h -1.54464 v 1.05035 h 1.73 z m 1.79178,0.0618 c -0.24714,0 -0.4325,-0.0618 -0.55607,-0.12357 -0.18536,-0.0618 -0.30893,-0.18536 -0.4325,-0.30893 -0.12357,-0.12357 -0.18536,-0.30893 -0.24714,-0.49429 -0.0618,-0.18535 -0.0618,-0.4325 -0.12357,-0.61785 h 0.55607 c 0,0.12357 0.0618,0.24714 0.0618,0.37071 0.0618,0.12357 0.12357,0.18536 0.18536,0.24714 0.0618,0.0618 0.12357,0.12357 0.24714,0.18536 0.0618,0.0618 0.18536,0.0618 0.24714,0.0618 0.0618,0 0.18536,0 0.24715,-0.0618 0.0618,0 0.12357,-0.0618 0.18535,-0.12357 0.0618,-0.0618 0.12357,-0.12357 0.12357,-0.18536 0,-0.0618 0.0618,-0.12357 0.0618,-0.24714 0,-0.0618 0,-0.18536 -0.0618,-0.24714 0,-0.0618 -0.0618,-0.12357 -0.12357,-0.18536 -0.0618,-0.0618 -0.12357,-0.0618 -0.24714,-0.12357 -0.12357,-0.0618 -0.24714,-0.0618 -0.37071,-0.12357 -0.18536,-0.0618 -0.30893,-0.12357 -0.4325,-0.18536 -0.12357,-0.0618 -0.24714,-0.12357 -0.30893,-0.24714 -0.0618,-0.12357 -0.12357,-0.18536 -0.18536,-0.30893 -0.0618,-0.12357 -0.0618,-0.24714 -0.0618,-0.4325 0,-0.18536 0,-0.30893 0.0618,-0.49428 0.0618,-0.12357 0.12357,-0.24715 0.24715,-0.37072 0.12357,-0.12357 0.18535,-0.18535 0.37071,-0.24714 0.12357,-0.0618 0.30893,-0.0618 0.4325,-0.0618 0.18536,0 0.30893,0.0618 0.49428,0.12358 0.12357,0.0618 0.24715,0.18535 0.37072,0.24714 0.12357,0.12357 0.18535,0.24714 0.24714,0.4325 0.0618,0.18535 0.0618,0.37071 0.12357,0.61785 h -0.55607 c -0.0618,-0.49428 -0.24714,-0.67964 -0.61786,-0.67964 -0.18535,0 -0.30892,0.0618 -0.43249,0.12357 -0.12358,0.0618 -0.12358,0.18536 -0.12358,0.37072 0,0.0618 0,0.12357 0.0618,0.18535 0,0.0618 0.0618,0.0618 0.12357,0.12357 0.0618,0.0618 0.12357,0.0618 0.18536,0.12358 0.0618,0 0.18535,0.0618 0.24714,0.0618 0.0618,0 0.18536,0.0618 0.30893,0.0618 0.12357,0 0.18535,0.0618 0.30893,0.12357 0.0618,0.0618 0.18535,0.12357 0.24714,0.18536 0.0618,0.0618 0.12357,0.12357 0.18536,0.24714 0.0618,0.12357 0.12357,0.18535 0.12357,0.30893 0.0618,0.12357 0.0618,0.24714 0.0618,0.43249 0,0.18536 0,0.37072 -0.0618,0.49429 -0.0618,0.18536 -0.12357,0.30893 -0.24715,0.4325 -0.12357,0.12357 -0.24714,0.18536 -0.37071,0.24714 -0.24714,0 -0.4325,0.0618 -0.55607,0.0618 z m 2.90392,0 c -0.24714,0 -0.4325,-0.0618 -0.55607,-0.12357 -0.18535,-0.0618 -0.30893,-0.18536 -0.4325,-0.30893 -0.12357,-0.12357 -0.18535,-0.30893 -0.24714,-0.49429 -0.0618,-0.18535 -0.0618,-0.4325 -0.12357,-0.61785 h 0.55607 c 0,0.12357 0.0618,0.24714 0.0618,0.37071 0.0618,0.12357 0.12357,0.18536 0.18535,0.24714 0.0618,0.0618 0.12357,0.12357 0.24715,0.18536 0.0618,0.0618 0.18535,0.0618 0.24714,0.0618 0.0618,0 0.18535,0 0.24714,-0.0618 0.0618,0 0.12357,-0.0618 0.18536,-0.12357 0.0618,-0.0618 0.12357,-0.12357 0.12357,-0.18536 0,-0.0618 0.0618,-0.12357 0.0618,-0.24714 0,-0.0618 0,-0.18536 -0.0618,-0.24714 0,-0.0618 -0.0618,-0.12357 -0.12357,-0.18536 -0.0618,-0.0618 -0.12357,-0.0618 -0.24715,-0.12357 -0.12357,-0.0618 -0.24714,-0.0618 -0.37071,-0.12357 -0.18536,-0.0618 -0.30893,-0.12357 -0.4325,-0.18536 -0.12357,-0.0618 -0.24714,-0.12357 -0.30893,-0.24714 -0.0618,-0.12357 -0.12357,-0.18536 -0.18535,-0.30893 -0.0618,-0.12357 -0.0618,-0.24714 -0.0618,-0.4325 0,-0.18536 0,-0.30893 0.0618,-0.49428 0.0618,-0.12357 0.12357,-0.24715 0.24714,-0.37072 0.12357,-0.12357 0.18536,-0.18535 0.37071,-0.24714 0.12357,-0.0618 0.30893,-0.0618 0.4325,-0.0618 0.18536,0 0.30893,0.0618 0.49429,0.12358 0.12357,0.0618 0.24714,0.18535 0.37071,0.24714 0.12357,0.12357 0.18536,0.24714 0.24714,0.4325 0.0618,0.18535 0.0618,0.37071 0.12357,0.61785 h -0.55607 c -0.0618,-0.49428 -0.24714,-0.67964 -0.61785,-0.67964 -0.18536,0 -0.30893,0.0618 -0.4325,0.12357 -0.12357,0.0618 -0.12357,0.18536 -0.12357,0.37072 0,0.0618 0,0.12357 0.0618,0.18535 0,0.0618 0.0618,0.0618 0.12357,0.12357 0.0618,0.0618 0.12358,0.0618 0.18536,0.12358 0.0618,0 0.18536,0.0618 0.24714,0.0618 0.0618,0 0.18536,0.0618 0.30893,0.0618 0.12357,0 0.18536,0.0618 0.30893,0.12357 0.0618,0.0618 0.18536,0.12357 0.24714,0.18536 0.0618,0.0618 0.12357,0.12357 0.18536,0.24714 0.0618,0.0618 0.12357,0.18535 0.12357,0.30893 0.0618,0.12357 0.0618,0.24714 0.0618,0.43249 0,0.18536 0,0.37072 -0.0618,0.49429 -0.0618,0.12357 -0.12357,0.30893 -0.24714,0.4325 -0.12357,0.12357 -0.24715,0.18536 -0.37072,0.24714 -0.24714,0 -0.37071,0.0618 -0.55607,0.0618 z"
     id="path130"
     inkscape:connector-curvature="0"
     style="fill:#241c1e" />
  <path
     d="m 261.16775,199.5675 v -1.97714 c 0,-0.18536 0.18535,-0.37071 0.37071,-0.37071 h 7.53785 c 0.18535,0 0.37071,0.18535 0.37071,0.37071 v 1.97714 c 0,0.18536 -0.18536,0.37071 -0.37071,0.37071 h -7.53785 c -0.18536,0 -0.37071,-0.12357 -0.37071,-0.37071 z"
     id="path132"
     inkscape:connector-curvature="0"
     style="fill:#631418" />
  <path
     d="m 261.97096,199.07321 v -0.98857 c 0,-0.18535 0.18536,-0.37071 0.37071,-0.37071 h 5.99321 c 0.18535,0 0.37071,0.18536 0.37071,0.37071 v 0.98857 c 0,0.18536 -0.18536,0.37072 -0.37071,0.37072 h -5.99321 c -0.18535,0 -0.37071,-0.12357 -0.37071,-0.37072 z"
     id="path134"
     inkscape:connector-curvature="0"
     style="fill:#f95d5d" />
  <path
     d="m 383.13253,167.19184 c -1.79178,-1.79178 -1.79178,-4.75749 0,-6.54927 l 5.68428,-5.49892 c 1.79178,-1.79178 3.21285,-0.4325 5.00463,1.35928 1.79178,1.79179 1.23571,4.325 0,6.54928 l -4.01606,7.41427 c -1.85357,1.79178 -4.88107,-1.48285 -6.67285,-3.27464 z"
     id="path136"
     inkscape:connector-curvature="0"
     style="fill:#181515" />
  <path
     d="m 379.61075,177.13932 c 0.30893,-0.30892 0.4325,-0.67964 0.24714,-0.86499 l -4.51035,-4.44857 0.98857,-0.98857 4.94285,4.94285 c 0.4325,0.4325 0.0618,1.48286 -0.74143,2.34785 l 1.42107,1.42107 -3.64535,-0.0618 -0.0618,-3.64535 1.35928,1.29749 m 1.91535,-7.78498 c 0.12358,0.12357 0.24715,0.30893 0.24715,0.4325 0.0618,0.18535 0.0618,0.37071 0,0.55607 -0.0618,0.18536 -0.12357,0.37071 -0.24715,0.61785 -0.12357,0.18536 -0.30892,0.4325 -0.49428,0.61786 -0.18536,0.18536 -0.37071,0.37071 -0.61786,0.49429 -0.18535,0.12357 -0.4325,0.18535 -0.61785,0.24714 -0.18536,0.0618 -0.37072,0.0618 -0.55607,0 -0.18536,-0.0618 -0.30893,-0.12357 -0.49429,-0.24714 -0.12357,-0.12358 -0.24714,-0.30893 -0.24714,-0.49429 0,-0.18536 -0.0618,-0.37071 0,-0.55607 0.0618,-0.18536 0.12357,-0.37071 0.24714,-0.61786 0.12357,-0.18535 0.30893,-0.4325 0.49429,-0.61785 0.18535,-0.18536 0.4325,-0.37072 0.61785,-0.49429 0.18536,-0.12357 0.4325,-0.18535 0.61786,-0.24714 0.18536,-0.0618 0.37071,0 0.55607,0 0.18536,0.12357 0.37071,0.18536 0.49428,0.30893 z m -2.28606,2.28607 c 0.0618,0.0618 0.18535,0.12357 0.30893,0.18535 0.12357,0.0618 0.24714,0 0.37071,0 0.12357,0 0.24714,-0.0618 0.37071,-0.18535 0.12357,-0.12357 0.30893,-0.18536 0.4325,-0.37072 0.12357,-0.12357 0.24714,-0.30893 0.37072,-0.4325 l 0.18535,-0.37071 v -0.37071 c 0,0 -0.0618,-0.18536 -0.18535,-0.30893 -0.0618,-0.0618 -0.18536,-0.12357 -0.30893,-0.18536 h -0.37072 c 0,0 -0.24714,0.0618 -0.37071,0.18536 -0.12357,0.0618 -0.30893,0.18535 -0.4325,0.30893 -0.12357,0.12357 -0.24714,0.30892 -0.37071,0.4325 -0.12357,0.12357 -0.12357,0.24714 -0.18536,0.37071 0,0.12357 -0.0618,0.24714 0,0.37071 0.0618,0.18536 0.12357,0.24715 0.18536,0.37072 z m 3.52178,-0.92679 0.74142,0.74143 0.18536,0.18536 c 0.0618,0.0618 0.12357,0.12357 0.12357,0.24714 0,0.0618 0.0618,0.18536 0.0618,0.24714 v 0.24714 c 0,0.12357 -0.0618,0.18536 -0.12357,0.30893 -0.0618,0.12357 -0.12358,0.18536 -0.24715,0.30893 -0.24714,0.24714 -0.55607,0.4325 -0.80321,0.4325 -0.24714,0 -0.49428,-0.12357 -0.74143,-0.30893 l -0.37071,-0.37071 -0.98857,0.98857 -0.37071,-0.37072 2.53321,-2.65678 z m -0.80322,1.54464 0.37072,0.37072 c 0.0618,0.0618 0.12357,0.12357 0.18535,0.12357 0.0618,0 0.12358,0.0618 0.18536,0.0618 0.0618,0 0.12357,0 0.18536,-0.0618 0.0618,-0.0618 0.12357,-0.0618 0.18535,-0.12357 0.0618,-0.0618 0.12358,-0.12358 0.12358,-0.18536 0,-0.0618 0.0618,-0.12357 0,-0.18536 -0.0618,-0.0618 0,-0.12357 -0.0618,-0.18535 -0.0618,-0.0618 -0.0618,-0.12358 -0.12357,-0.12358 l -0.37071,-0.37071 -0.67965,0.67964 z m 1.48286,4.32499 -1.42107,-1.42106 2.59499,-2.595 1.42107,1.42107 -0.4325,0.4325 -1.05035,-1.05036 -0.55607,0.55607 0.98857,0.98857 -0.4325,0.4325 -0.98857,-0.98857 -0.67964,0.67964 1.11214,1.11215 z m 1.85357,1.85357 -0.30893,-0.30893 0.865,-2.59499 -1.73,1.73 -0.37071,-0.37072 2.59499,-2.59499 0.30893,0.30893 -0.92678,2.59499 1.72999,-1.73 0.37072,0.37072 z"
     id="path138"
     inkscape:connector-curvature="0"
     style="fill:#241c1e" />
  <path
     d="m 394.31572,156.99722 -0.80321,-0.865 c -0.37071,-0.30893 -0.74143,-0.55607 -1.23571,-0.55607 -0.61786,0 -1.17393,0.24714 -1.48285,0.67964 l -7.35249,9.4532 c -0.49429,0.61785 -0.37072,1.48285 0.24714,1.97714 l 1.42107,1.35928 c 0.61786,0.49429 1.54464,0.12357 2.03892,-0.4325 l 7.35249,-9.4532 c 0.49429,-0.61785 0.24714,-1.54464 -0.18536,-2.16249 z"
     id="path140"
     inkscape:connector-curvature="0"
     style="fill:#2c2929" />
  <path
     d="M 381.40253,1.17392 V 8.5882 c 0,0 -0.0618,0.92678 -0.98857,0.92678 H 244.11492 c -0.98857,0 -0.98857,-0.92678 -0.98857,-0.92678 V 1.17392 l 69.13809,0.0618 z"
     id="path142"
     inkscape:connector-curvature="0"
     style="fill:#444546" />
  <path
     d="m 243.86778,0 h 1.66821 v 8.46463 h -1.66821 z m 2.53321,0 h 1.66821 v 8.46463 h -1.66821 z m 2.53321,0 h 1.66821 v 8.46463 h -1.66821 z m 2.47142,0 h 1.66821 v 8.46463 h -1.66821 z m 2.40964,0 h 1.66821 v 8.46463 h -1.66821 z m 2.53321,0 h 1.66821 v 8.46463 h -1.66821 z m 2.47142,0 h 1.66822 v 8.46463 h -1.66822 z m 2.53321,0 h 1.66822 v 8.46463 h -1.66822 z m 2.53321,0 h 1.66822 v 8.46463 h -1.66822 z m 2.47143,0 h 1.66821 v 8.46463 h -1.66821 z m 2.53321,0 h 1.66821 v 8.46463 h -1.66821 z m 2.47142,0 h 1.66821 v 8.46463 h -1.66821 z m 2.47143,0 h 1.66821 v 8.46463 h -1.66821 z m 2.47142,0 h 1.66821 v 8.46463 h -1.66821 z m 2.53321,0 h 1.66821 v 8.46463 h -1.66821 z m 2.47142,0 h 1.66822 v 8.46463 h -1.66822 z m 2.53321,0 h 1.66822 v 8.46463 h -1.66822 z m 2.47143,0 h 1.66821 v 8.46463 h -1.66821 z m 2.53321,0 h 1.66821 v 8.46463 h -1.66821 z m 2.47142,0 h 1.66821 v 8.46463 h -1.66821 z m 2.47143,0 h 1.66821 v 8.46463 h -1.66821 z m 2.47142,0 h 1.66821 v 8.46463 h -1.66821 z m 2.53321,0 h 1.66821 v 8.46463 h -1.66821 z m 2.47142,0 h 1.66822 v 8.46463 h -1.66822 z m 2.53321,0 h 1.66822 v 8.46463 h -1.66822 z m 2.47143,0 h 1.66821 v 8.46463 h -1.66821 z m 2.53321,0 h 1.66821 v 8.46463 h -1.66821 z m 2.53321,0 h 1.66821 v 8.46463 h -1.66821 z m 2.40964,0 h 1.66821 v 8.46463 h -1.66821 z m 2.47142,0 h 1.66821 v 8.46463 h -1.66821 z m 2.53321,0 h 1.66821 v 8.46463 h -1.66821 z m 2.47142,0 h 1.66822 v 8.46463 h -1.66822 z m 2.65679,0 h 1.66821 v 8.46463 h -1.66821 z m 2.53321,0 h 1.66821 v 8.46463 h -1.66821 z m 2.53321,0 h 1.66821 v 8.46463 h -1.66821 z m 2.40963,0 h 1.66822 v 8.46463 h -1.66822 z m 2.47143,0 h 1.66821 v 8.46463 h -1.66821 z m 2.53321,0 h 1.66821 v 8.46463 h -1.66821 z m 2.47142,0 h 1.66821 v 8.46463 h -1.66821 z m 2.53321,0 h 1.66821 v 8.46463 h -1.66821 z m 2.53321,0 h 1.66821 v 8.46463 h -1.66821 z m 2.47143,0 h 1.66821 v 8.46463 h -1.66821 z m 2.53321,0 h 1.66821 v 8.46463 h -1.66821 z m 2.40963,0 h 1.66822 v 8.46463 h -1.66822 z m 2.47143,0 h 1.66821 v 8.46463 h -1.66821 z m 2.53321,0 h 1.66821 v 8.46463 h -1.66821 z m 2.53321,0 h 1.66821 v 8.46463 h -1.66821 z m 2.71856,0 h 1.66822 v 8.46463 h -1.66822 z m 2.53321,0 h 1.66822 v 8.46463 h -1.66822 z m 2.47143,0 h 1.66821 v 8.46463 h -1.66821 z m 2.47142,0 h 1.66821 v 8.46463 h -1.66821 z m 2.47143,0 h 1.66821 v 8.46463 h -1.66821 z m 2.53321,0 h 1.66821 v 8.46463 h -1.66821 z m 2.47142,0 h 1.66821 v 8.46463 h -1.66821 z m 2.53321,0 h 1.66821 v 8.46463 h -1.66821 z"
     id="path144"
     inkscape:connector-curvature="0"
     style="fill:#282424" />
</svg>
