<?xml version="1.0" encoding="UTF-8" standalone="no"?>
<svg
   xmlns:dc="http://purl.org/dc/elements/1.1/"
   xmlns:cc="http://creativecommons.org/ns#"
   xmlns:rdf="http://www.w3.org/1999/02/22-rdf-syntax-ns#"
   xmlns:svg="http://www.w3.org/2000/svg"
   xmlns="http://www.w3.org/2000/svg"
   xmlns:sodipodi="http://sodipodi.sourceforge.net/DTD/sodipodi-0.dtd"
   xmlns:inkscape="http://www.inkscape.org/namespaces/inkscape"
   viewBox="-22 358.8 403 54.471693"
   version="1.1"
   id="svg10"
   sodipodi:docname="logo.svg"
   width="403"
   height="54.471691"
   inkscape:version="0.92.4 5da689c313, 2019-01-14">
  <metadata
     id="metadata16">
    <rdf:RDF>
      <cc:Work
         rdf:about="">
        <dc:format>image/svg+xml</dc:format>
        <dc:type
           rdf:resource="http://purl.org/dc/dcmitype/StillImage" />
      </cc:Work>
    </rdf:RDF>
  </metadata>
  <defs
     id="defs14" />
  <sodipodi:namedview
     pagecolor="#ffffff"
     bordercolor="#666666"
     borderopacity="1"
     objecttolerance="10"
     gridtolerance="10"
     guidetolerance="10"
     inkscape:pageopacity="0"
     inkscape:pageshadow="2"
     inkscape:window-width="640"
     inkscape:window-height="480"
     id="namedview12"
     showgrid="false"
     inkscape:zoom="0.67750005"
     inkscape:cx="199.99998"
     inkscape:cy="27.235834"
     inkscape:window-x="0"
     inkscape:window-y="0"
     inkscape:window-maximized="0"
     inkscape:current-layer="svg10">
    <inkscape:grid
       type="xygrid"
       id="grid823"
       originx="0"
       originy="-1.1131592e-05" />
  </sodipodi:namedview>
  <path
     d="m -18.5426,362.2574 h 378.62057 v 47.55689 H -18.5426 Z"
     id="path2"
     inkscape:connector-curvature="0" />
  <path
     d="m 31.977774,377.56874 -1.128947,-0.49391 c 0.07056,-0.21168 0.141118,-0.49391 0.141118,-0.77615 0,-0.70559 -6.420885,-4.65691 -17.639795,-4.65691 -10.6544365,0 -15.3113425,2.68125 -15.3113425,6.20921 0,9.24325 40.3598515,-4.30411 40.3598515,16.15805 0,7.40872 -8.749338,13.19457 -26.318574,13.19457 -16.7225263,0 -21.5205507,-4.37467 -23.072853,-4.37467 -0.423355,0 -0.635032,0.28224 -0.987828,0.42336 l -0.91727,-0.14112 5.7152941,-9.59605 1.1289469,0.42335 c 0,0.21168 -0.1411183,0.42336 -0.1411183,0.91727 0,3.31629 8.8198976,5.7153 17.6397953,5.7153 12.488975,0 16.722526,-2.96349 16.722526,-5.99753 0,-11.07779 -39.795378,2.68125 -39.795378,-16.0875 0,-9.45493 12.1361789,-13.40624 25.401305,-13.40624 11.924502,0 20.250485,4.30411 21.097195,4.30411 0.91727,0 1.058388,-0.21168 1.199506,-0.42336 l 1.128947,0.28224 z m 11.783383,28.22368 c 1.481743,0 1.76398,-0.42336 1.76398,-1.69342 v -36.05575 c 0,-1.27006 -0.282237,-1.69342 -1.76398,-1.69342 v -0.77615 h 44.452285 c 1.622861,0 2.328453,-0.42335 2.328453,-1.27006 h 0.987828 v 9.38437 h -0.987828 c 0,-0.98783 -0.705592,-1.48174 -2.328453,-1.48174 H 55.262304 v 10.0194 h 21.52055 c 1.622861,0 2.328453,-0.42335 2.328453,-1.48174 h 0.987829 v 9.45493 h -0.987829 c 0,-0.42336 -0.141118,-0.77615 -0.564473,-0.98783 -0.352796,-0.21168 -0.987829,-0.3528 -1.76398,-0.3528 H 55.262304 V 399.936 h 33.58617 c 1.622861,0 2.328453,-0.42335 2.328453,-1.34062 h 0.987829 v 9.24325 h -0.987829 c 0,-0.77615 -0.705592,-1.27006 -2.328453,-1.27006 H 43.761157 Z M 152.91621,384.9069 v 0.77615 c -0.70559,0.14112 -1.27006,0.56447 -1.27006,1.83454 v 11.07779 c 0,0.91727 0.35279,1.27007 1.1995,1.41118 v 0.77615 c -4.30411,2.04622 -14.88799,6.35033 -26.74193,6.35033 -15.7347,0 -29.564295,-6.42088 -29.564295,-21.09719 0,-14.67631 16.158055,-21.0972 30.411005,-21.0972 5.64474,0 10.93668,1.05839 14.88799,2.11678 3.59852,1.27006 6.27977,2.32845 6.77368,2.32845 0.63503,0 1.19951,-0.28224 1.48174,-0.63503 l 0.98783,0.35279 -6.63256,9.24326 -0.98783,-0.49392 c 0.0706,-0.21168 0.14112,-0.56447 0.14112,-0.98783 0,-1.76398 -7.40872,-5.22138 -16.51085,-5.22138 -11.50115,0 -20.81496,4.65691 -20.81496,14.1824 0,9.94884 9.31381,14.67631 19.89769,14.67631 8.60822,0 13.68848,-2.39901 15.7347,-3.66908 v -4.72746 H 130.1256 c -1.34063,0 -2.18734,0.56447 -2.18734,1.34062 h -0.98783 v -9.94884 h 0.98783 c 0,0.77615 0.84671,1.34062 2.18734,1.34062 h 22.79061 z m 3.38684,21.66167 v -0.77615 c 1.19951,-0.0706 1.62286,-0.3528 2.61069,-2.11678 l 18.69818,-34.64456 c 0.3528,-0.56447 0.77616,-1.1995 0.77616,-1.69342 0,-0.63503 -0.56448,-0.91727 -1.41119,-0.98783 v -0.77615 h 14.95855 v 0.77615 c -1.05839,0.14112 -1.41119,0.42336 -1.41119,0.84671 0,0.42336 0.28224,0.91727 0.63504,1.48175 l 19.89769,34.99735 c 0.98783,1.76398 1.1995,2.11678 2.68125,2.11678 v 0.77615 H 200.1203 v -0.77615 c 0.91727,0 1.19951,-0.28224 1.19951,-0.56448 0,-0.63503 -0.63503,-1.41118 -5.22138,-9.45493 h -23.49621 c -3.95131,7.33816 -5.0097,8.4671 -5.0097,9.1727 0,0.49391 0.42336,0.77615 1.05839,0.84671 v 0.77615 z m 35.70295,-17.287 -8.25543,-14.74687 -8.04374,14.74687 z"
     id="path4"
     inkscape:connector-curvature="0"
     style="fill:#b2ae85" />
  <path
     d="M 363.60593,413.27169 H -22 V 358.8 H 363.60593 Z M -18.5426,409.81429 H 360.07797 V 362.2574 H -18.5426 Z m 383.34803,-50.02646 h 2.32846 v 6.27977 h 1.12894 v -6.27977 h 2.39902 V 358.8 h -5.85642 m 11.78339,0 -2.18734,5.7153 -2.11677,-5.7153 h -1.48175 v 7.2676 h 1.12895 v -5.43306 l 1.97566,5.43306 h 0.98783 l 2.04621,-5.43306 v 5.43306 H 378 V 358.8"
     id="path6"
     inkscape:connector-curvature="0"
     style="fill:#b2ae85" />
  <path
     d="m 225.45105,365.50312 v 41.06545 h 131.87511 v -41.06545 z m 5.64473,28.78815 c -1.12894,-7.33815 23.21397,-17.07532 54.82449,-22.15558 -0.70559,0.21167 -2.11678,0.56447 -2.11678,0.56447 l -3.95131,0.98783 c -16.15805,3.95131 -27.44752,11.07779 -26.45969,17.35756 0.98782,6.42088 14.46463,9.94884 31.61051,8.74934 0.98783,-0.0706 4.30411,-0.21168 5.08026,-0.28224 -31.89275,4.30411 -57.92909,2.11678 -58.98748,-5.22138 z m 79.02629,1.62286 c -6.98536,1.62286 -15.7347,2.96349 -15.7347,2.96349 v -18.34539 l 4.51579,14.88799 c 0,0 10.72499,-1.76398 18.90986,-5.15082 7.12648,-2.96349 11.50114,-6.70313 11.21891,-10.65444 -0.49392,-6.42089 -14.1824,-9.87828 -31.04604,-8.74934 -1.12895,0.0706 -4.86859,0.28224 -5.57418,0.28224 31.75163,-4.37467 57.78797,-2.18734 58.91692,5.15082 0.91727,6.20921 -16.51085,14.18239 -41.20656,19.61545 z"
     id="path8"
     inkscape:connector-curvature="0"
     style="fill:#b2ae85" />
</svg>
