<?xml version="1.0" encoding="UTF-8" standalone="no"?>
<svg
   xmlns:dc="http://purl.org/dc/elements/1.1/"
   xmlns:cc="http://creativecommons.org/ns#"
   xmlns:rdf="http://www.w3.org/1999/02/22-rdf-syntax-ns#"
   xmlns:svg="http://www.w3.org/2000/svg"
   xmlns="http://www.w3.org/2000/svg"
   xmlns:sodipodi="http://sodipodi.sourceforge.net/DTD/sodipodi-0.dtd"
   xmlns:inkscape="http://www.inkscape.org/namespaces/inkscape"
   viewBox="0 0 171.934 117.52209"
   version="1.1"
   id="svg58"
   sodipodi:docname="game.svg"
   width="171.93401"
   height="117.52209"
   inkscape:version="0.92.4 5da689c313, 2019-01-14">
  <metadata
     id="metadata64">
    <rdf:RDF>
      <cc:Work
         rdf:about="">
        <dc:format>image/svg+xml</dc:format>
        <dc:type
           rdf:resource="http://purl.org/dc/dcmitype/StillImage" />
      </cc:Work>
    </rdf:RDF>
  </metadata>
  <defs
     id="defs62" />
  <sodipodi:namedview
     pagecolor="#ffffff"
     bordercolor="#666666"
     borderopacity="1"
     objecttolerance="10"
     gridtolerance="10"
     guidetolerance="10"
     inkscape:pageopacity="0"
     inkscape:pageshadow="2"
     inkscape:window-width="471"
     inkscape:window-height="442"
     id="namedview60"
     showgrid="false"
     inkscape:zoom="1.5761862"
     inkscape:cx="85.967003"
     inkscape:cy="58.761092"
     inkscape:window-x="0"
     inkscape:window-y="0"
     inkscape:window-maximized="0"
     inkscape:current-layer="svg58">
    <inkscape:grid
       type="xygrid"
       id="grid66"
       originx="0"
       originy="9.0852211e-05" />
  </sodipodi:namedview>
  <linearGradient
     id="a"
     gradientUnits="userSpaceOnUse"
     y1="58.761002"
     x2="171.93401"
     y2="58.761002">
    <stop
       offset="0"
       stop-color="#282928"
       id="stop2" />
    <stop
       offset=".07"
       stop-color="#121519"
       id="stop4" />
    <stop
       offset=".5"
       stop-color="#141313"
       id="stop6" />
    <stop
       offset=".93"
       stop-color="#121519"
       id="stop8" />
    <stop
       offset="1"
       stop-color="#282928"
       id="stop10" />
  </linearGradient>
  <path
     d="M 167.251,117.522 H 4.683 C 0,117.522 0,117.522 0,112.839 V 4.683 A 4.696,4.696 0 0 1 4.683,0 h 162.568 a 4.696,4.696 0 0 1 4.683,4.683 v 108.156 c 0,4.766 0,4.683 -4.683,4.683 z"
     id="path13"
     inkscape:connector-curvature="0"
     style="fill:url(#a)" />
  <path
     d="m 146.066,3.345 v 94.33 a 5.366,5.366 0 0 1 -3.554,5.039 5.336,5.336 0 0 1 -1.797,0.312 H 32.112 A 5.356,5.356 0 0 1 29.566,102.38 5.366,5.366 0 0 1 26.761,97.675 V 3.345 c 0,-1.262 0.442,-2.426 1.182,-3.345 h 116.942 a 5.323,5.323 0 0 1 1.181,3.345 z"
     id="path15"
     inkscape:connector-curvature="0"
     style="fill:#25241e" />
  <path
     d="M 144.884,0 H 27.942 A 5.318,5.318 0 0 0 26.76,3.345 v 94.33 a 5.366,5.366 0 0 0 3.554,5.039 5.336,5.336 0 0 0 1.797,0.312 h 108.602 a 5.356,5.356 0 0 0 2.546,-0.646 5.366,5.366 0 0 0 2.805,-4.705 V 3.345 A 5.304,5.304 0 0 0 144.884,0 Z M 30.515,102.38 H 30.18 a 3.993,3.993 0 0 1 -0.401,-0.192 5.35,5.35 0 0 1 -2.792,-4.687 v -0.696 h 3.528 z m 0,-5.91 h -3.528 v -5.316 h 3.528 z m 0,-5.65 h -3.528 v -5.276 h 3.528 z m 5.353,0.334 V 96.47 H 30.775 V 91.154 Z M 30.774,90.82 v -5.276 h 5.093 v 5.276 z m 5.094,5.985 v 5.575 h -5.093 v -5.575 z m 104.641,6.025 H 32.317 c -0.375,0 -0.745,-0.04 -1.097,-0.116 h 110.386 a 5.229,5.229 0 0 1 -1.097,0.116 z M 41.255,91.154 V 96.47 H 36.126 V 91.154 Z M 36.126,90.82 v -5.276 h 5.129 v 5.276 z m 5.129,5.985 v 5.575 h -5.129 v -5.575 z m 5.276,-5.651 V 96.47 H 41.513 V 91.154 Z M 41.514,90.82 v -5.276 h 5.018 v 5.276 z m 5.017,5.985 v 5.575 h -5.018 v -5.575 z m 5.281,-5.651 V 96.47 H 46.794 V 91.154 Z M 46.795,90.82 v -5.276 h 5.018 v 5.276 z m 5.017,5.985 v 5.575 h -5.018 v -5.575 z m 5.201,-5.651 V 96.47 H 52.071 V 91.154 Z M 52.071,90.82 v -5.276 h 4.942 v 5.276 z m 4.942,5.985 v 5.575 H 52.071 V 96.805 Z M 62.2,91.154 V 96.47 H 57.276 V 91.154 Z M 57.276,90.82 V 85.544 H 62.2 v 5.276 z m 4.924,5.985 v 5.575 h -4.924 v -5.575 z m 5.352,-5.651 V 96.47 H 62.459 V 91.154 Z M 62.458,90.82 v -5.276 h 5.093 v 5.276 z m 5.094,5.985 v 5.575 h -5.093 v -5.575 z m 5.387,-5.651 V 96.47 H 67.81 V 91.154 Z M 67.81,90.82 v -5.276 h 5.129 v 5.276 z m 5.129,5.985 v 5.575 H 67.81 v -5.575 z m 5.276,-11.262 v 5.276 h -5.018 v -5.276 z m -5.017,-0.334 v -5.388 h 5.018 v 5.388 z m 5.017,5.945 v 5.316 h -5.018 v -5.316 z m 0,5.651 v 5.575 h -5.018 v -5.575 z m 5.281,-11.262 v 5.276 h -5.018 v -5.276 z m -5.017,-0.334 v -5.388 h 5.018 v 5.388 z m 5.017,5.945 v 5.316 h -5.018 v -5.316 z m 0,5.651 v 5.575 h -5.018 v -5.575 z m 5.201,-11.262 v 5.276 h -4.942 v -5.276 z m -4.942,-0.334 v -5.388 h 4.942 v 5.388 z m 4.942,5.945 v 5.316 h -4.942 v -5.316 z m 0,5.651 v 5.575 h -4.942 v -5.575 z m 4.852,-11.262 v 5.276 H 88.96 V 85.543 Z M 88.96,85.209 v -5.388 h 4.589 v 5.388 z m 4.589,5.945 V 96.47 H 88.96 v -5.316 z m 0,5.651 v 5.575 H 88.96 v -5.575 z m 5.352,-11.262 v 5.276 h -5.093 v -5.276 z m -5.093,-0.334 v -5.388 h 5.093 v 5.388 z m 5.093,5.945 v 5.316 h -5.093 v -5.316 z m 0,5.651 v 5.575 h -5.093 v -5.575 z m 5.388,-5.651 V 96.47 H 99.16 V 91.154 Z M 99.16,90.82 v -5.276 h 5.129 v 5.276 z m 5.129,5.985 v 5.575 H 99.16 v -5.575 z m 5.28,-5.651 v 5.316 h -5.018 v -5.316 z m -5.017,-0.334 v -5.276 h 5.018 v 5.276 z m 5.017,5.985 v 5.575 h -5.018 v -5.575 z m 5.277,-5.651 v 5.316 h -5.018 v -5.316 z m -5.018,-0.334 v -5.276 h 5.018 v 5.276 z m 5.018,5.985 v 5.575 h -5.018 v -5.575 z m 5.205,-5.651 v 5.316 h -4.946 v -5.316 z m -4.947,-0.334 v -5.276 h 4.946 v 5.276 z m 4.947,5.985 v 5.575 h -4.946 v -5.575 z m 5.106,-5.651 v 5.316 h -4.848 v -5.316 z m -4.848,-0.334 v -5.276 h 4.848 v 5.276 z m 4.848,5.985 v 5.575 h -4.848 v -5.575 z m 5.352,-5.651 V 96.47 H 125.42 V 91.154 Z M 125.42,90.82 v -5.276 h 5.089 v 5.276 z m 5.089,5.985 v 5.575 h -5.089 v -5.575 z m 5.392,-5.651 v 5.316 h -5.129 v -5.316 z m -5.129,-0.334 v -5.276 h 5.129 v 5.276 z m 5.129,5.985 v 5.575 h -5.129 v -5.575 z m 5.277,-5.651 V 96.47 H 136.16 V 91.154 Z M 136.16,90.82 v -5.276 h 5.018 v 5.276 z m 5.018,5.985 v 5.575 h -5.018 v -5.575 z m 4.66,0.696 a 5.349,5.349 0 0 1 -2.792,4.687 4.223,4.223 0 0 1 -0.401,0.192 h -1.209 v -5.575 h 4.402 z m 0,-1.031 h -4.402 v -5.316 h 4.402 z m 0,-5.65 h -4.402 v -5.276 h 4.402 z m -4.402,-5.611 v -4.603 h -0.259 v 4.603 h -5.018 V 80.606 H 135.9 v 4.603 h -5.129 v -4.603 h -0.263 v 4.603 h -5.089 v -4.603 h -0.263 v 4.603 h -4.848 v -4.603 h -0.259 v 4.603 h -4.946 v -4.603 h -0.259 v 4.603 h -5.018 v -4.603 h -0.259 v 4.603 h -5.018 v -4.603 h -0.263 v 4.603 H 99.16 v -5.388 h 4.295 a 13.167,13.167 0 0 0 -0.334,-0.335 H 99.16 v -2.854 a 4.246,4.246 0 0 0 -0.259,-0.138 v 2.993 H 93.808 V 74.54 h -0.259 v 4.946 H 88.96 V 73.68 c -0.089,-0.004 -0.174,-0.013 -0.263,-0.018 v 5.825 h -4.942 v -5.794 a 4.521,4.521 0 0 0 -0.259,0.022 v 5.771 H 78.478 V 74.67 l -0.263,0.08 v 4.737 h -5.018 v -2.591 c -0.089,0.049 -0.174,0.103 -0.259,0.152 v 2.44 h -3.234 c -0.116,0.112 -0.227,0.223 -0.335,0.335 h 3.568 v 5.388 H 67.81 v -4.603 h -0.259 v 4.603 H 62.458 V 80.608 H 62.2 v 4.603 h -4.924 v -4.603 h -0.263 v 4.603 h -4.942 v -4.603 h -0.259 v 4.603 h -5.018 v -4.603 h -0.263 v 4.603 h -5.018 v -4.603 h -0.259 v 4.603 h -5.129 v -4.603 h -0.259 v 4.603 h -5.093 v -4.603 h -0.259 v 4.603 H 26.986 V 3.528 c 0,-1.258 0.437,-2.417 1.177,-3.332 h 116.496 a 5.275,5.275 0 0 1 1.177,3.332 v 81.681 z"
     id="path17"
     inkscape:connector-curvature="0"
     style="fill:#b9b4ad" />
  <path
     d="m 146.066,79.464 v 1.142 h -41.889 a 12.627,12.627 0 0 0 -0.723,-0.785 13.167,13.167 0 0 0 -0.334,-0.335 c -0.143,-0.134 -0.29,-0.268 -0.437,-0.401 A 18.84,18.84 0 0 0 98.901,76.494 C 96.073,74.995 92.67,73.996 88.96,73.68 88.871,73.676 88.786,73.667 88.697,73.662 a 29.601,29.601 0 0 0 -5.201,0.053 27.533,27.533 0 0 0 -5.018,0.954 l -0.263,0.08 a 23.07,23.07 0 0 0 -5.018,2.145 c -0.089,0.049 -0.174,0.103 -0.259,0.152 a 18.671,18.671 0 0 0 -2.796,2.038 c -0.147,0.134 -0.294,0.268 -0.437,0.401 -0.116,0.112 -0.227,0.223 -0.335,0.335 -0.254,0.254 -0.495,0.517 -0.723,0.785 H 26.76 V 79.463 H 68.1 c 4.014,-4.018 10.717,-6.654 18.313,-6.654 7.595,0 14.299,2.636 18.313,6.654 h 41.34 z"
     id="path19"
     inkscape:connector-curvature="0"
     style="fill:#b9b4ad" />
  <path
     d="m 127.344,87.124 c 1.448,0.358 2.846,0.857 4.069,1.75 0.647,0.472 1.134,1.041 1.103,1.906 -0.019,0.536 -0.261,0.981 -0.577,1.394 -0.599,0.781 -1.433,1.23 -2.297,1.641 -1.541,0.731 -3.193,1.009 -4.86,1.254 -2.838,0.418 -5.694,0.31 -8.544,0.324 -6.415,0.031 -12.83,0.018 -19.245,0.021 h -10.61 v 0.005 c -8.586,0 -17.172,0.005 -25.758,-0.003 -3.024,-0.003 -6.049,-0.002 -9.073,-0.07 -2.539,-0.057 -5.061,-0.323 -7.478,-1.172 -0.919,-0.323 -1.817,-0.722 -2.562,-1.374 a 4.636,4.636 0 0 1 -0.779,-0.865 c -0.676,-0.99 -0.535,-2.027 0.376,-2.808 0.806,-0.692 1.751,-1.139 2.742,-1.5 2.115,-0.77 4.317,-1.141 6.548,-1.213 2.618,-0.085 5.241,-0.027 7.862,-0.011 3.492,0.023 6.973,-0.132 10.415,-0.749 2.445,-0.438 4.791,-1.143 6.932,-2.486 2.156,-1.353 4.564,-2.043 7.088,-2.345 2.042,-0.244 4.088,-0.27 6.135,-0.132 3.12,0.211 6.081,0.984 8.746,2.677 1.781,1.132 3.766,1.703 5.794,2.136 2.412,0.516 4.863,0.772 7.328,0.812 2.742,0.044 5.486,0.016 8.229,-0.007 2.834,-0.024 5.652,0.132 8.416,0.815 z M 78.361,85.219 c 0.655,0.22 1.298,0.495 1.97,0.648 2.112,0.483 4.265,0.607 7.074,0.608 1.745,-0.01 4.129,-0.132 6.452,-0.76 a 7.08,7.08 0 0 0 1.705,-0.717 c 0.667,-0.391 0.653,-0.942 0.01,-1.38 A 4.267,4.267 0 0 0 94.629,83.146 C 92.93,82.53 91.15,82.329 89.366,82.205 c -2.707,-0.189 -5.406,-0.11 -8.087,0.351 -1.056,0.182 -2.108,0.396 -3.057,0.927 -0.329,0.184 -0.678,0.392 -0.673,0.837 0.005,0.444 0.366,0.629 0.683,0.834 0.04,0.026 0.083,0.05 0.129,0.065 z M 74.42,84.773 c 0.018,-0.005 -0.029,0.004 -0.072,0.023 a 23.471,23.471 0 0 1 -4.043,1.353 c -3.279,0.785 -6.621,1 -9.973,1.07 -3.048,0.064 -6.097,0.037 -9.145,0.105 a 18.698,18.698 0 0 0 -4.861,0.755 c -1.115,0.328 -2.196,0.75 -3.052,1.581 -0.788,0.766 -0.808,1.72 0.035,2.412 0.603,0.495 1.285,0.948 2.005,1.238 2.181,0.88 4.492,1.215 6.825,1.26 4.768,0.091 9.537,0.139 14.306,0.145 7.781,0.009 15.564,-0.03 23.345,-0.049 10.184,-0.026 20.369,-0.044 30.554,-0.084 1.929,-0.007 3.841,-0.236 5.709,-0.742 1.225,-0.333 2.424,-0.732 3.419,-1.58 1.055,-0.899 1.08,-1.875 0.031,-2.769 -0.864,-0.736 -1.896,-1.141 -2.969,-1.439 -2.176,-0.604 -4.407,-0.79 -6.654,-0.81 -4.072,-0.036 -8.147,0.1 -12.21,-0.29 -1.967,-0.189 -3.918,-0.474 -5.819,-1.02 -1.142,-0.328 -2.259,-0.746 -3.444,-1.142 l 0.001,-0.001 a 0.281,0.281 0 0 0 -0.094,0.052 c -1.134,0.976 -2.458,1.551 -3.9,1.902 C 92.04,87.32 89.63,87.481 87.197,87.476 84.88,87.472 82.563,87.505 80.27,87.094 78.963,86.86 77.648,86.629 76.458,86.006 75.77,85.647 75.128,85.205 74.42,84.773 Z"
     id="path21"
     inkscape:connector-curvature="0" />
  <path
     d="m 46.782,92.958 c 1.391,0.486 2.832,0.724 4.296,0.785 1.51,0.063 3.023,0.083 4.535,0.084 10.257,0.007 20.516,0.004 30.774,0.004 h 4.574 c 9.55,-0.002 19.101,0.003 28.651,-0.011 1.939,-0.003 3.872,-0.113 5.756,-0.65 0.968,-0.276 1.857,-0.675 2.543,-1.435 0.54,-0.598 0.555,-1.172 -0.051,-1.69 a 5.907,5.907 0 0 0 -1.502,-0.94 c -1.472,-0.628 -3.038,-0.885 -4.626,-0.954 a 105.531,105.531 0 0 0 -4.571,-0.082 C 96.657,88.064 76.153,88.065 55.649,88.066 c -1.122,0 -2.245,-0.026 -3.366,0.012 -1.854,0.062 -3.695,0.237 -5.46,0.872 -0.73,0.262 -1.429,0.572 -1.959,1.161 -0.477,0.531 -0.481,1.028 -0.008,1.563 a 4.484,4.484 0 0 0 1.926,1.284 z M 74.42,84.773 c 0.708,0.433 1.35,0.874 2.036,1.233 1.191,0.623 2.505,0.853 3.812,1.088 2.293,0.411 4.609,0.378 6.927,0.382 2.434,0.004 4.844,-0.156 7.217,-0.733 1.441,-0.351 2.766,-0.927 3.9,-1.902 a 0.281,0.281 0 0 1 0.094,-0.052 l -0.001,0.001 c 1.184,0.396 2.301,0.814 3.444,1.142 1.901,0.545 3.852,0.831 5.819,1.02 4.063,0.389 8.139,0.254 12.21,0.29 2.248,0.02 4.478,0.206 6.654,0.81 1.074,0.298 2.106,0.703 2.969,1.439 1.049,0.894 1.025,1.869 -0.031,2.769 -0.995,0.848 -2.193,1.247 -3.419,1.58 -1.868,0.506 -3.78,0.735 -5.709,0.742 -10.184,0.04 -20.369,0.059 -30.554,0.084 -7.781,0.019 -15.564,0.058 -23.345,0.049 A 793.4,793.4 0 0 1 52.137,94.57 C 49.804,94.525 47.493,94.191 45.312,93.31 44.593,93.019 43.91,92.567 43.307,92.072 42.464,91.38 42.484,90.425 43.272,89.66 c 0.856,-0.831 1.937,-1.253 3.052,-1.581 a 18.74,18.74 0 0 1 4.861,-0.755 c 3.048,-0.068 6.097,-0.041 9.145,-0.105 3.353,-0.07 6.695,-0.285 9.973,-1.07 a 23.471,23.471 0 0 0 4.043,-1.353 c 0.045,-0.019 0.092,-0.028 0.074,-0.023 z"
     id="path23"
     inkscape:connector-curvature="0"
     style="fill:#ffffff" />
  <path
     d="m 126.094,92.022 c -0.624,0.003 -1.176,-0.535 -1.181,-1.151 -0.004,-0.613 0.545,-1.146 1.178,-1.144 0.639,0.002 1.172,0.534 1.16,1.159 -0.011,0.609 -0.543,1.133 -1.157,1.136 z m -3.601,-3.151 v 0.992 h -6.296 v -0.992 z m -3.994,3.267 c 1.158,0.006 2.316,0.002 3.474,0.003 h 0.512 v 0.963 c -0.111,0.007 -0.239,0.023 -0.367,0.024 -1.536,0.001 -3.072,0.004 -4.607,-0.001 -0.916,-0.003 -1.325,-0.43 -1.321,-1.354 0.002,-0.52 0,-1.039 0,-1.565 0.07,-0.016 0.116,-0.037 0.161,-0.037 0.512,-0.002 1.024,-0.001 1.587,-0.001 0.077,0.432 0.422,0.4 0.757,0.399 a 767.54,767.54 0 0 1 3.035,10e-4 c 0.155,0 0.31,0.016 0.477,0.026 v 0.89 h -4.183 c -0.08,0.492 0.042,0.65 0.475,0.652 z m -5.006,-3.342 h 2.008 l -0.708,1.069 h -2.002 z m -0.926,1.391 h 2.005 l -1.953,2.923 h -2.207 l -1.953,-2.915 h 2.004 l 1.052,1.593 z m -3.029,-1.388 0.711,1.064 h -2.011 l -0.703,-1.064 z m -2.632,0.078 v 0.99 h -1.745 v -0.99 z m -0.01,1.318 v 2.911 h -1.739 v -2.911 z m -2.401,2.764 a 16.64,16.64 0 0 0 -0.115,0.167 c -0.631,0 -1.263,0.025 -1.89,-0.017 -0.168,-0.012 -0.359,-0.198 -0.476,-0.353 -0.326,-0.428 -0.728,-0.578 -1.263,-0.533 -0.556,0.046 -1.117,0.01 -1.71,0.01 v -1.182 h 1.796 c 0.317,0 0.634,0.001 0.951,-0.001 0.414,-0.004 0.49,-0.081 0.503,-0.485 0.003,-0.119 0.012,-0.237 0.02,-0.375 h 1.743 c 0.135,0.73 -0.042,1.311 -0.797,1.751 z m -1.319,-4.099 c 0.558,0.005 0.924,0.455 0.865,1.009 h -7.168 c -0.048,-0.554 0.314,-1.004 0.863,-1.009 1.813,-0.016 3.626,-0.016 5.44,0 z m -4.567,1.329 V 93.1 h -1.764 v -2.911 z m -2.931,0.009 c 0,0.244 0.001,0.493 -10e-4,0.742 -0.003,0.341 -0.01,0.683 -0.015,1.024 -0.009,0.618 -0.402,1.128 -1.006,1.142 -1.435,0.035 -2.873,0.011 -4.354,0.011 v -0.952 c 0.16,-0.009 0.301,-0.023 0.442,-0.023 0.878,-0.002 1.756,0.001 2.634,-0.002 0.408,-0.002 0.499,-0.092 0.503,-0.491 0.005,-0.474 0.001,-0.947 0.001,-1.451 z m -0.043,-0.333 h -7.37 c -0.009,-0.133 -0.021,-0.239 -0.023,-0.346 -0.003,-0.204 -0.001,-0.408 -0.001,-0.628 0.12,-0.017 0.201,-0.037 0.283,-0.037 2.048,-0.002 4.095,-0.006 6.143,0.001 0.617,10e-4 0.998,0.396 0.968,1.01 z"
     id="path25"
     inkscape:connector-curvature="0"
     style="fill:#ffffff" />
  <path
     d="m 90.479,85.09 -0.304,0.817 H 89.7 l 0.921,-2.671 0.162,-0.005 0.743,2.163 h -0.951 z m 0.059,-0.174 0.323,-0.028 -0.181,-0.418 z"
     id="path27"
     inkscape:connector-curvature="0" />
  <path
     d="m 92.15,85.613 c 0.029,0.088 0.039,0.182 0.061,0.294 h -1.652 a 49.546,49.546 0 0 1 -0.015,-0.348 h 1.175 c -0.278,-0.807 -0.524,-1.54 -0.79,-2.265 -0.026,-0.072 -0.195,-0.162 -0.255,-0.138 a 0.496,0.496 0 0 0 -0.255,0.261 c -0.248,0.687 -0.476,1.38 -0.713,2.071 -0.047,0.138 -0.1,0.273 -0.16,0.435 -0.674,0 -1.344,0.016 -2.011,-0.007 -0.367,-0.012 -0.646,-0.332 -0.655,-0.711 a 36.173,36.173 0 0 1 0.001,-1.647 c 0.01,-0.411 0.29,-0.712 0.717,-0.736 0.509,-0.029 1.02,-0.007 1.566,-0.007 v 0.401 c -0.456,0 -0.893,-0.003 -1.329,0.001 -0.425,0.004 -0.546,0.124 -0.55,0.54 -0.003,0.427 0.004,0.853 0,1.281 -0.003,0.316 0.138,0.477 0.462,0.474 0.326,-0.004 0.652,-0.001 1.003,-0.001 v -1.194 l -0.749,-0.06 -0.018,-0.331 h 1.191 v 1.537 l 0.077,0.02 c 0.037,-0.075 0.084,-0.146 0.111,-0.223 0.219,-0.646 0.441,-1.29 0.646,-1.94 0.108,-0.342 0.323,-0.562 0.676,-0.569 0.37,-0.006 0.595,0.221 0.709,0.575 0.248,0.764 0.506,1.524 0.757,2.287 z"
     id="path29"
     inkscape:connector-curvature="0" />
  <path
     d="m 90.861,84.888 -0.323,0.028 0.142,-0.446 z m -0.847,5.305 V 93.1 h -1.752 v -2.907 z"
     id="path31"
     inkscape:connector-curvature="0"
     style="fill:#ffffff" />
  <path
     d="m 87.859,84.923 0.288,0.045 -0.225,-0.531 h 0.674 v 0.922 c -0.303,0 -0.595,0.034 -0.871,-0.017 -0.119,-0.022 -0.283,-0.214 -0.293,-0.341 -0.035,-0.422 -0.02,-0.849 -0.003,-1.273 0.009,-0.224 0.143,-0.35 0.382,-0.348 0.437,0.004 0.873,0.001 1.356,0.001 v 0.38 h -1.309 z m -1.241,0.429 c -0.493,0 -0.973,0.021 -1.451,-0.017 -0.098,-0.008 -0.211,-0.225 -0.259,-0.365 -0.044,-0.13 -0.009,-0.285 -0.009,-0.465 h 1.407 l 0.019,0.323 h -0.942 l -0.003,0.127 h 1.238 z M 85.236,83.4 c 0.444,-0.04 0.894,-0.016 1.369,-0.016 v 0.392 h -1.212 l 0.001,0.112 h 0.907 l 0.019,0.366 h -1.419 c 0,-0.206 -0.043,-0.379 0.012,-0.512 0.059,-0.139 0.203,-0.33 0.323,-0.342 z"
     id="path33"
     inkscape:connector-curvature="0" />
  <path
     d="m 84.746,85.013 c 0.004,0.323 0.167,0.493 0.5,0.49 0.448,-0.003 0.896,-0.001 1.37,-0.001 v 0.404 c -0.555,0 -1.089,0.026 -1.62,-0.008 -0.367,-0.023 -0.621,-0.297 -0.64,-0.685 a 15.06,15.06 0 0 1 0.01,-1.713 c 0.026,-0.403 0.286,-0.653 0.689,-0.676 0.507,-0.03 1.017,-0.007 1.554,-0.007 v 0.399 c -0.438,0 -0.861,-0.003 -1.284,0.001 -0.451,0.004 -0.58,0.133 -0.584,0.591 -0.004,0.401 -0.001,0.803 0.005,1.205 z"
     id="path35"
     inkscape:connector-curvature="0" />
  <path
     d="m 84.074,90.192 v 2.906 h -1.743 l -0.038,-0.845 h -3.164 v -1.189 h 3.174 v -0.872 z"
     id="path37"
     inkscape:connector-curvature="0"
     style="fill:#ffffff" />
  <path
     d="m 84.066,83.75 h -1.382 a 4.415,4.415 0 0 0 -0.01,0.109 c 0.138,0.018 0.276,0.036 0.414,0.051 0.596,0.069 0.993,0.476 0.99,1.02 -0.003,0.514 -0.38,0.957 -0.887,0.986 -0.484,0.028 -0.97,0.006 -1.489,0.006 l -0.024,-0.414 c 0.479,0 0.927,0.012 1.373,-0.004 0.377,-0.014 0.627,-0.286 0.616,-0.63 -0.011,-0.334 -0.256,-0.55 -0.632,-0.56 -0.11,-0.002 -0.22,0.004 -0.329,-0.004 -0.071,-0.006 -0.175,-0.006 -0.205,-0.05 -0.102,-0.149 -0.269,-0.334 -0.241,-0.471 0.031,-0.155 0.236,-0.37 0.385,-0.386 0.454,-0.05 0.919,-0.018 1.403,-0.018 z"
     id="path39"
     inkscape:connector-curvature="0" />
  <path
     d="m 84.063,89.86 h -7.05 c 0.011,-0.605 0.35,-0.998 0.907,-1.002 a 341.45,341.45 0 0 1 5.259,10e-4 c 0.552,0.004 0.919,0.439 0.884,1.001 z"
     id="path41"
     inkscape:connector-curvature="0"
     style="fill:#ffffff" />
  <path
     d="m 82.157,84.068 c 0.068,0.153 0.288,0.268 0.465,0.333 0.151,0.056 0.342,-0.004 0.506,0.029 0.253,0.05 0.419,0.223 0.409,0.486 -0.01,0.261 -0.168,0.438 -0.441,0.446 -0.449,0.013 -0.899,0.004 -1.383,0.004 l -0.034,-0.372 h 1.399 l 0.012,-0.113 c -0.114,-0.018 -0.228,-0.048 -0.344,-0.053 -0.606,-0.025 -1.055,-0.435 -1.066,-0.979 -0.011,-0.561 0.403,-1.001 1.01,-1.033 0.447,-0.023 0.896,-0.004 1.364,-0.004 v 0.404 c -0.404,0 -0.806,-0.031 -1.2,0.012 -0.223,0.024 -0.482,0.124 -0.63,0.28 -0.109,0.114 -0.135,0.406 -0.067,0.56 z"
     id="path43"
     inkscape:connector-curvature="0" />
  <path
     d="m 84.9,84.504 c 0,0.18 -0.035,0.336 0.009,0.465 0.048,0.141 0.161,0.357 0.259,0.365 0.477,0.038 0.958,0.017 1.451,0.017 v -0.397 h -1.238 c 0.001,-0.042 0.001,-0.085 0.003,-0.127 h 0.942 l -0.019,-0.323 z m 0.014,-0.762 c -0.055,0.132 -0.012,0.306 -0.012,0.512 h 1.419 l -0.019,-0.366 h -0.907 l -10e-4,-0.112 h 1.212 v -0.392 c -0.476,0 -0.926,-0.024 -1.369,0.016 -0.121,0.012 -0.265,0.203 -0.323,0.342 z m 5.565,1.348 0.095,0.304 h 0.951 l -0.743,-2.163 -0.162,0.005 -0.921,2.671 h 0.475 z m -7.857,-0.689 c -0.177,-0.065 -0.397,-0.18 -0.465,-0.333 -0.069,-0.154 -0.042,-0.446 0.067,-0.561 0.148,-0.156 0.407,-0.255 0.63,-0.28 0.394,-0.044 0.796,-0.012 1.2,-0.012 v -0.404 c -0.468,0 -0.916,-0.018 -1.364,0.004 -0.607,0.031 -1.021,0.471 -1.01,1.033 0.011,0.544 0.46,0.954 1.066,0.979 0.116,0.005 0.23,0.035 0.344,0.053 l -0.012,0.113 h -1.399 l 0.034,0.372 c 0.485,0 0.934,0.01 1.383,-0.004 0.273,-0.007 0.431,-0.185 0.441,-0.446 0.01,-0.263 -0.156,-0.436 -0.409,-0.486 -0.164,-0.032 -0.354,0.028 -0.506,-0.028 z M 82.26,83.79 c -0.028,0.137 0.138,0.322 0.241,0.471 0.03,0.044 0.134,0.044 0.205,0.05 0.109,0.008 0.219,10e-4 0.329,0.004 0.376,0.01 0.621,0.226 0.632,0.56 0.012,0.344 -0.239,0.616 -0.616,0.63 -0.446,0.016 -0.894,0.004 -1.373,0.004 l 0.024,0.414 c 0.519,0 1.006,0.022 1.489,-0.006 0.507,-0.029 0.884,-0.472 0.887,-0.986 0.003,-0.543 -0.394,-0.951 -0.99,-1.02 -0.138,-0.015 -0.277,-0.034 -0.414,-0.051 l 0.01,-0.109 h 1.382 l -0.018,-0.365 c -0.485,0 -0.949,-0.032 -1.403,0.018 -0.149,0.016 -0.354,0.231 -0.385,0.386 z m 11.596,1.926 c -2.323,0.629 -4.707,0.75 -6.452,0.76 C 84.595,86.475 82.443,86.351 80.33,85.868 79.659,85.714 79.016,85.44 78.36,85.22 a 0.59,0.59 0 0 1 -0.13,-0.066 c -0.317,-0.205 -0.678,-0.39 -0.683,-0.834 -0.005,-0.446 0.343,-0.654 0.673,-0.837 0.949,-0.531 2.001,-0.745 3.057,-0.927 2.68,-0.46 5.38,-0.539 8.087,-0.351 1.784,0.124 3.564,0.326 5.263,0.941 0.329,0.119 0.655,0.276 0.943,0.472 0.643,0.438 0.658,0.99 -0.01,1.38 a 7.02,7.02 0 0 1 -1.704,0.718 z M 88.752,85.51 c -0.351,0 -0.678,-0.003 -1.003,10e-4 -0.323,0.004 -0.465,-0.157 -0.462,-0.474 0.004,-0.427 -0.003,-0.854 0,-1.281 0.004,-0.416 0.124,-0.536 0.55,-0.54 0.436,-0.004 0.873,-10e-4 1.329,-10e-4 v -0.401 c -0.546,0 -1.058,-0.022 -1.566,0.007 -0.427,0.024 -0.707,0.326 -0.717,0.736 a 33.494,33.494 0 0 0 -10e-4,1.647 c 0.009,0.379 0.288,0.699 0.655,0.711 0.667,0.023 1.337,0.007 2.011,0.007 0.059,-0.162 0.113,-0.297 0.16,-0.435 0.236,-0.691 0.465,-1.384 0.713,-2.071 a 0.507,0.507 0 0 1 0.255,-0.261 c 0.06,-0.024 0.229,0.066 0.255,0.138 0.266,0.725 0.512,1.458 0.79,2.265 h -1.175 l 0.015,0.348 h 1.652 C 92.19,85.793 92.18,85.7 92.152,85.612 c -0.251,-0.763 -0.509,-1.523 -0.755,-2.288 -0.114,-0.354 -0.339,-0.58 -0.709,-0.575 -0.352,0.007 -0.567,0.227 -0.676,0.569 -0.206,0.65 -0.427,1.294 -0.646,1.94 -0.026,0.078 -0.073,0.149 -0.111,0.223 l -0.077,-0.02 v -1.537 h -1.191 l 0.018,0.331 0.749,0.06 c -0.002,0.408 -0.002,0.78 -0.002,1.195 z m -1.027,-0.168 c 0.276,0.051 0.568,0.017 0.871,0.017 v -0.922 h -0.674 c 0.084,0.201 0.149,0.352 0.225,0.531 l -0.288,-0.045 v -1.162 h 1.309 v -0.38 c -0.483,0 -0.919,0.003 -1.356,-0.001 -0.239,-0.002 -0.373,0.124 -0.382,0.348 -0.017,0.424 -0.032,0.852 0.003,1.273 0.009,0.127 0.173,0.319 0.292,0.341 z m -3.369,-0.129 c 0.019,0.388 0.274,0.662 0.64,0.685 0.531,0.034 1.065,0.008 1.62,0.008 v -0.404 c -0.474,0 -0.922,-0.002 -1.37,0.001 -0.333,0.002 -0.495,-0.167 -0.5,-0.49 a 44.02,44.02 0 0 1 -0.005,-1.205 c 0.004,-0.458 0.133,-0.588 0.584,-0.591 0.423,-0.004 0.846,-0.001 1.284,-0.001 v -0.399 c -0.536,0 -1.047,-0.023 -1.554,0.007 -0.403,0.023 -0.663,0.274 -0.689,0.676 -0.036,0.57 -0.039,1.143 -0.01,1.713 z m -5.6,4.982 v 2.907 h -1.762 v -2.907 z m -2.662,-1.343 v 1.007 h -7.435 c -0.064,-0.575 0.324,-0.994 0.941,-1.004 0.707,-0.011 1.415,-0.003 2.122,-0.003 z m 0.016,3.088 a 1.249,1.249 0 0 1 -1.216,1.183 c -0.962,0.015 -1.925,0.006 -2.887,0.006 -0.719,10e-4 -1.438,0.007 -2.157,-0.002 -0.773,-0.009 -1.225,-0.468 -1.227,-1.23 v -1.729 h 1.78 v 1.36 c 0.002,0.558 0.055,0.612 0.6,0.613 h 2.705 c 0.073,0 0.146,0.002 0.22,-0.003 0.209,-0.015 0.385,-0.117 0.329,-0.335 -0.031,-0.12 -0.213,-0.279 -0.334,-0.285 -0.547,-0.031 -1.096,-0.015 -1.645,-0.016 h -0.484 v -0.855 c 0.02,-0.017 0.038,-0.045 0.056,-0.045 1.083,0 2.167,-0.031 3.248,0.016 0.591,0.025 1.05,0.694 1.012,1.322 z"
     id="path45"
     inkscape:connector-curvature="0"
     style="fill:#ffffff" />
  <path
     d="m 126.094,92.022 a 1.186,1.186 0 0 0 1.157,-1.137 c 0.012,-0.624 -0.521,-1.156 -1.16,-1.159 -0.633,-0.002 -1.182,0.531 -1.178,1.144 0.005,0.617 0.557,1.154 1.181,1.152 z m -25.344,0.202 c 0.535,-0.045 0.937,0.105 1.263,0.533 0.118,0.154 0.308,0.341 0.476,0.353 0.628,0.042 1.26,0.017 1.89,0.017 l 0.115,-0.167 -1.239,-1.018 c 0.755,-0.44 0.932,-1.021 0.797,-1.751 h -1.743 c -0.007,0.138 -0.017,0.257 -0.02,0.375 -0.012,0.405 -0.089,0.482 -0.503,0.485 -0.317,0.002 -0.634,0.001 -0.951,0.001 h -1.796 v 1.182 c 0.594,0 1.156,0.036 1.711,-0.01 z m 16.761,0.903 c 1.536,0.005 3.072,0.002 4.607,0.001 0.128,-0.001 0.255,-0.017 0.367,-0.024 v -0.963 h -0.512 c -1.158,-0.001 -2.316,0.003 -3.474,-0.003 -0.433,-0.002 -0.556,-0.16 -0.476,-0.652 h 4.183 v -0.89 c -0.167,-0.01 -0.322,-0.026 -0.477,-0.026 a 767.54,767.54 0 0 0 -3.035,-10e-4 c -0.334,10e-4 -0.68,0.033 -0.757,-0.399 -0.563,0 -1.075,-0.001 -1.587,0.001 -0.045,0 -0.091,0.02 -0.161,0.037 0,0.525 0.002,1.045 0,1.565 -0.004,0.924 0.406,1.351 1.322,1.354 z m -9.273,-3.264 h 2.011 l -0.711,-1.064 h -2.003 z m -4.197,0.006 c 0.059,-0.553 -0.307,-1.003 -0.865,-1.009 a 290.14,290.14 0 0 0 -5.44,0 c -0.549,0.004 -0.911,0.455 -0.863,1.009 z M 69.6,88.855 c -0.617,0.01 -1.006,0.429 -0.941,1.004 h 7.435 v -1.007 h -4.372 c -0.707,0 -1.415,-0.008 -2.122,0.003 z m -8.222,2.933 c -0.004,0.913 0.414,1.337 1.337,1.34 1.525,0.004 3.049,0.001 4.574,0 0.13,0 0.258,-0.015 0.386,-0.023 V 92.14 h -0.468 c -1.171,-0.001 -2.341,0.003 -3.512,-0.002 -0.431,-0.002 -0.556,-0.158 -0.492,-0.65 h 4.191 v -0.92 h -0.509 c -1.025,0 -2.049,-0.005 -3.074,0.003 -0.315,0.003 -0.586,-0.037 -0.679,-0.376 H 61.38 c -0.002,0.55 0,1.071 -0.002,1.593 z m 66.482,-1.743 c 0.606,0.518 0.591,1.092 0.051,1.69 -0.686,0.76 -1.574,1.159 -2.543,1.435 -1.884,0.536 -3.817,0.647 -5.756,0.65 -9.55,0.014 -19.101,0.009 -28.651,0.011 h -4.574 c -10.258,0 -20.516,0.003 -30.774,-0.004 a 110.574,110.574 0 0 1 -4.535,-0.084 c -1.465,-0.061 -2.905,-0.299 -4.296,-0.785 a 4.488,4.488 0 0 1 -1.926,-1.282 c -0.473,-0.535 -0.469,-1.033 0.008,-1.563 0.53,-0.589 1.23,-0.899 1.959,-1.161 1.765,-0.635 3.606,-0.809 5.46,-0.872 1.121,-0.038 2.244,-0.012 3.366,-0.012 20.504,-0.001 41.008,-0.002 61.512,0.003 1.524,0 3.049,0.016 4.571,0.082 1.588,0.069 3.154,0.326 4.626,0.954 a 5.872,5.872 0 0 1 1.502,0.938 z m -82.352,0.816 c -0.005,0.615 0.553,1.164 1.179,1.16 0.614,-0.004 1.153,-0.538 1.156,-1.146 0.004,-0.629 -0.534,-1.153 -1.178,-1.149 -0.618,0.004 -1.152,0.527 -1.157,1.135 z m 36.786,1.393 0.038,0.845 h 1.743 v -2.906 h -1.77 v 0.872 h -3.174 v 1.189 z m 5.948,-2.735 c 0.002,0.107 0.015,0.213 0.023,0.346 h 7.37 c 0.03,-0.614 -0.351,-1.009 -0.969,-1.011 -2.048,-0.007 -4.095,-0.003 -6.143,-0.001 -0.081,0 -0.162,0.021 -0.283,0.037 0.001,0.221 -10e-4,0.425 0.002,0.629 z m -13.985,2.283 c 0.056,0.218 -0.12,0.32 -0.329,0.335 -0.073,0.005 -0.146,0.003 -0.22,0.003 h -2.705 c -0.545,-0.001 -0.598,-0.054 -0.6,-0.613 v -1.36 h -1.78 v 1.729 c 0.002,0.762 0.455,1.222 1.227,1.23 0.719,0.009 1.437,0.003 2.157,0.002 0.962,0 1.925,0.01 2.887,-0.006 A 1.25,1.25 0 0 0 76.11,91.939 C 76.148,91.312 75.689,90.643 75.099,90.616 74.018,90.568 72.934,90.6 71.851,90.6 c -0.018,0 -0.036,0.028 -0.056,0.045 V 91.5 h 0.484 c 0.548,0.001 1.098,-0.015 1.645,0.016 0.12,0.007 0.301,0.166 0.333,0.286 z m 48.236,-1.939 v -0.992 h -6.296 v 0.992 z m -7.7,0.002 0.708,-1.069 h -2.008 l -0.701,1.069 z m -0.22,0.322 h -2.005 l -1.051,1.601 -1.052,-1.593 h -2.004 l 1.953,2.915 h 2.207 z m -7.667,-0.321 v -0.99 h -1.745 v 0.99 z m -0.01,3.239 v -2.911 h -1.739 v 2.911 z M 98.609,93.1 V 90.189 H 96.845 V 93.1 Z m -2.931,-2.16 c 0.002,-0.249 0.001,-0.498 0.001,-0.742 h -1.795 c 0,0.504 0.004,0.977 -0.001,1.451 -0.004,0.399 -0.095,0.489 -0.503,0.491 -0.878,0.004 -1.756,0 -2.634,0.002 -0.141,0.001 -0.283,0.015 -0.442,0.023 v 0.952 c 1.481,0 2.919,0.024 4.354,-0.011 0.604,-0.015 0.997,-0.525 1.006,-1.142 0.004,-0.341 0.011,-0.683 0.014,-1.024 z M 90.014,93.1 V 90.193 H 88.262 V 93.1 Z m -5.951,-3.24 c 0.034,-0.562 -0.332,-0.997 -0.884,-1.001 A 341.45,341.45 0 0 0 77.92,88.858 c -0.557,0.004 -0.896,0.397 -0.907,1.002 z m -5.307,3.242 v -2.907 h -1.762 v 2.907 z M 67.68,89.864 v -0.985 h -6.291 v 0.985 z m -7.329,3.237 v -2.903 h -1.779 v 2.903 z m -0.008,-3.233 c 0.028,-0.618 -0.358,-1.013 -0.995,-1.014 -2.767,-0.004 -5.534,-0.002 -8.3,-0.001 -0.094,0 -0.188,0.018 -0.303,0.029 v 0.985 z m -3.941,3.24 v -2.91 h -1.727 v 2.91 z m -3.921,-0.005 v -2.917 h -1.737 v 2.917 z"
     id="path47"
     inkscape:connector-curvature="0" />
  <path
     d="m 67.68,88.879 v 0.985 h -6.291 v -0.985 z m -4.478,2.61 c -0.064,0.492 0.061,0.648 0.492,0.65 1.171,0.005 2.341,0.001 3.512,0.002 h 0.468 v 0.965 c -0.127,0.007 -0.256,0.023 -0.386,0.023 -1.525,10e-4 -3.049,0.004 -4.574,0 -0.924,-0.003 -1.341,-0.427 -1.337,-1.34 v -1.593 h 1.752 c 0.093,0.34 0.364,0.379 0.679,0.376 1.025,-0.008 2.049,-0.003 3.074,-0.003 h 0.509 v 0.92 z m -2.851,-1.291 v 2.903 h -1.779 v -2.903 z m -1.002,-1.344 c 0.637,0.001 1.022,0.395 0.995,1.014 h -9.598 v -0.985 c 0.115,-0.011 0.209,-0.029 0.303,-0.029 2.766,-0.002 5.533,-0.004 8.3,0 z m -2.947,1.344 v 2.91 h -1.727 v -2.91 z m -3.921,-0.012 v 2.917 h -1.737 v -2.917 z m -5.816,-0.46 c 0.644,-0.004 1.182,0.52 1.178,1.149 -0.004,0.608 -0.542,1.142 -1.156,1.146 -0.626,0.004 -1.184,-0.545 -1.179,-1.16 0.005,-0.608 0.539,-1.131 1.157,-1.135 z"
     id="path49"
     inkscape:connector-curvature="0"
     style="fill:#ffffff" />
  <linearGradient
     id="b"
     gradientUnits="userSpaceOnUse"
     x1="86.413002"
     y1="79.463997"
     x2="86.413002">
    <stop
       offset="0"
       stop-color="#bc6d4a"
       id="stop51" />
    <stop
       offset="1"
       stop-color="#9f3c5f"
       id="stop53" />
  </linearGradient>
  <path
     d="M 68.1,79.464 H 26.76 V 3.345 C 26.76,2.083 27.202,0.919 27.942,0 h 116.942 a 5.318,5.318 0 0 1 1.182,3.345 v 76.119 h -41.34 C 100.712,75.446 94.009,72.81 86.413,72.81 c -7.595,0 -14.299,2.636 -18.313,6.654 z"
     id="path56"
     inkscape:connector-curvature="0"
     style="fill:url(#b)" />
</svg>
