<?xml version="1.0" encoding="UTF-8" standalone="no"?>
<svg
   xmlns:dc="http://purl.org/dc/elements/1.1/"
   xmlns:cc="http://creativecommons.org/ns#"
   xmlns:rdf="http://www.w3.org/1999/02/22-rdf-syntax-ns#"
   xmlns:svg="http://www.w3.org/2000/svg"
   xmlns="http://www.w3.org/2000/svg"
   xmlns:sodipodi="http://sodipodi.sourceforge.net/DTD/sodipodi-0.dtd"
   xmlns:inkscape="http://www.inkscape.org/namespaces/inkscape"
   viewBox="0 0 153.60001 157.6"
   version="1.1"
   id="svg10"
   sodipodi:docname="game.svg"
   width="153.60001"
   height="157.60001"
   inkscape:version="0.92.4 5da689c313, 2019-01-14">
  <metadata
     id="metadata16">
    <rdf:RDF>
      <cc:Work
         rdf:about="">
        <dc:format>image/svg+xml</dc:format>
        <dc:type
           rdf:resource="http://purl.org/dc/dcmitype/StillImage" />
      </cc:Work>
    </rdf:RDF>
  </metadata>
  <defs
     id="defs14" />
  <sodipodi:namedview
     pagecolor="#ffffff"
     bordercolor="#666666"
     borderopacity="1"
     objecttolerance="10"
     gridtolerance="10"
     guidetolerance="10"
     inkscape:pageopacity="0"
     inkscape:pageshadow="2"
     inkscape:window-width="640"
     inkscape:window-height="480"
     id="namedview12"
     showgrid="false"
     inkscape:zoom="1.4974619"
     inkscape:cx="76.75"
     inkscape:cy="78.799997"
     inkscape:window-x="0"
     inkscape:window-y="0"
     inkscape:window-maximized="0"
     inkscape:current-layer="svg10">
    <inkscape:grid
       type="xygrid"
       id="grid823"
       originx="0"
       originy="-6.1035154e-06" />
  </sodipodi:namedview>
  <path
     d="m 139.1,147 v -6.4 h 9 v 6.4 h -9 M 141.7,0.1 h -3.2 V 0.6 H 125.7 L 125,1.1 124,1.8 H 20 V 0.1 H 1.8 C 0.8,0.1 0,0.9 0,1.9 v 153.9 c 0,1 0.8,1.8 1.8,1.8 h 150 c 1,0 1.8,-0.8 1.8,-1.8 V 18.4 h -1.5 v -5.9 h 1.5 V 10 L 141.7,0.1"
     id="path2"
     inkscape:connector-curvature="0"
     style="fill:#3b62a6" />
  <path
     d="m 18.4,68.6 h 116.7 v 89 H 18.4 Z"
     id="path4"
     inkscape:connector-curvature="0"
     style="fill:#ffffff" />
  <path
     d="m 39.1,0 v 50.9 c 0,1.5 1.2,2.7 2.7,2.7 h 77.8 c 1.5,0 2.7,-1.2 2.7,-2.7 V 0 Z m 48.1,7.7 h 22.7 V 50 H 87.2 Z"
     id="path6"
     inkscape:connector-curvature="0"
     style="fill:#838483" />
  <path
     d="M 109.4,95.4 76.8,83.7 44.1,95.4 v 13.1 l 7.2,-2 v 13.1 l -7.2,-2 v 13.7 l 32.7,12.4 32.7,-12.4 v -13.7 l -6.5,2 v -13.1 l 6.5,2 V 95.4 Z M 74.8,140.5 46.1,129.4 v -9.8 l 28.7,11.8 z M 89.2,124.8 76.8,130 64.4,124.8 v -23.5 l 12.4,-4.6 12.4,4.6 z M 106.8,105.9 77.4,95.4 v -9.8 l 29.4,10.5 z"
     id="path8"
     inkscape:connector-curvature="0"
     style="fill:#2c2d2c" />
</svg>
