<?xml version="1.0" encoding="UTF-8" standalone="no"?>
<svg
   xmlns:dc="http://purl.org/dc/elements/1.1/"
   xmlns:cc="http://creativecommons.org/ns#"
   xmlns:rdf="http://www.w3.org/1999/02/22-rdf-syntax-ns#"
   xmlns:svg="http://www.w3.org/2000/svg"
   xmlns="http://www.w3.org/2000/svg"
   xmlns:sodipodi="http://sodipodi.sourceforge.net/DTD/sodipodi-0.dtd"
   xmlns:inkscape="http://www.inkscape.org/namespaces/inkscape"
   viewBox="0 0 31.394 71.465"
   version="1.1"
   id="svg32"
   sodipodi:docname="controller.svg"
   width="31.393999"
   height="71.464996"
   inkscape:version="0.92.4 5da689c313, 2019-01-14">
  <metadata
     id="metadata38">
    <rdf:RDF>
      <cc:Work
         rdf:about="">
        <dc:format>image/svg+xml</dc:format>
        <dc:type
           rdf:resource="http://purl.org/dc/dcmitype/StillImage" />
      </cc:Work>
    </rdf:RDF>
  </metadata>
  <defs
     id="defs36" />
  <sodipodi:namedview
     pagecolor="#ffffff"
     bordercolor="#666666"
     borderopacity="1"
     objecttolerance="10"
     gridtolerance="10"
     guidetolerance="10"
     inkscape:pageopacity="0"
     inkscape:pageshadow="2"
     inkscape:window-width="640"
     inkscape:window-height="480"
     id="namedview34"
     showgrid="false"
     inkscape:zoom="3.302316"
     inkscape:cx="15.697"
     inkscape:cy="35.732502"
     inkscape:window-x="0"
     inkscape:window-y="0"
     inkscape:window-maximized="0"
     inkscape:current-layer="svg32">
    <inkscape:grid
       type="xygrid"
       id="grid845"
       originx="0"
       originy="3.6621096e-06" />
  </sodipodi:namedview>
  <path
     d="m 17.381,70.798 c 0,0.367 -0.3,0.667 -0.667,0.667 H 2.399 C 1.074,71.465 0,70.458 0,69.213 V 2.251 C 0,1.008 1.074,0 2.399,0 h 26.596 c 1.325,0 2.399,1.008 2.399,2.251 v 66.962 c 0,1.244 -1.074,2.252 -2.399,2.252 h -3.233 a 0.669,0.669 0 0 1 -0.667,-0.667 v -0.096 h -7.713 v 0.096"
     id="path2"
     inkscape:connector-curvature="0"
     style="fill:#0c0e0d" />
  <path
     d="M 29.967,2.966 V 68.5 a 2.192,2.192 0 0 1 -2.181,2.203 H 3.609 A 2.192,2.192 0 0 1 1.427,68.5 V 2.966 c 0,-1.217 0.977,-2.204 2.182,-2.204 h 24.176 c 1.205,0 2.182,0.987 2.182,2.204"
     id="path4"
     inkscape:connector-curvature="0"
     style="fill:#1c1d1e" />
  <path
     d="m 28.088,3.213 v 64.624 c 0,0.692 -0.559,1.254 -1.248,1.254 H 4.555 A 1.25,1.25 0 0 1 3.307,67.837 V 3.213 c 0,-0.692 0.559,-1.254 1.248,-1.254 H 26.84 c 0.689,0 1.248,0.562 1.248,1.254"
     id="path6"
     inkscape:connector-curvature="0"
     style="fill:#bfbfb4" />
  <path
     d="M 22.237,9.514 V 8.472 h 0.605 V 7.935 h -1.584 v 0.538 h 0.637 v 1.042 h -0.637 v 0.538 h 1.584 V 9.514 h -0.605 m -0.342,1.436 0.615,0.375 -0.615,0.363 V 10.95 m 0.947,0.166 -1.584,-0.965 v 0.411 l 0.324,0.198 v 1.113 l -0.325,0.191 v 0.657 l 1.584,-0.964 v -0.641 m -0.685,3.74 c 0.168,0.129 0.414,0.111 0.555,-0.136 0.132,-0.229 0.18,-0.666 0.18,-0.94 0,-0.438 -0.03,-0.719 -0.07,-0.959 h -1.563 v 0.538 h 1.325 c 0.029,0.153 0.041,0.309 0.036,0.465 -0.009,0.213 -0.042,0.333 -0.111,0.43 -0.07,0.099 -0.227,0.126 -0.335,-0.003 -0.081,-0.097 -0.145,-0.292 -0.078,-0.729 l -0.102,-0.063 -0.734,0.827 v 0.733 l 0.637,-0.736 c 0.022,0.177 0.092,0.445 0.26,0.573 m 0.139,-8.101 c 0.06,-0.311 0.097,-0.575 0.198,-0.575 0.111,0 0.141,0.213 0.108,0.516 -0.03,0.278 -0.102,0.551 -0.212,0.808 l 0.313,0.191 C 22.78,7.492 22.879,7.072 22.89,6.692 22.902,6.275 22.865,5.571 22.443,5.541 22.057,5.513 21.964,6.063 21.88,6.424 21.798,6.776 21.769,7.106 21.647,7.106 21.562,7.106 21.494,6.99 21.518,6.682 21.546,6.312 21.647,5.997 21.803,5.683 L 21.46,5.475 a 3.72,3.72 0 0 0 -0.252,1.217 c -0.008,0.489 0.071,1.042 0.49,1.054 0.351,0.008 0.473,-0.354 0.597,-0.991 m -0.127,9.84 c -0.076,-0.093 -0.103,-0.229 -0.102,-0.443 0.004,-0.153 0.023,-0.306 0.06,-0.455 h 0.457 c 0.029,0.154 0.041,0.311 0.036,0.468 -0.009,0.214 -0.045,0.34 -0.111,0.433 -0.068,0.097 -0.231,0.129 -0.34,-0.003 m 0.542,0.47 c 0.13,-0.219 0.18,-0.629 0.18,-0.944 0,-0.438 -0.03,-0.723 -0.07,-0.962 h -1.563 v 0.538 h 0.572 a 3.45,3.45 0 0 0 -0.042,0.555 c 0.003,0.44 0.106,0.768 0.269,0.917 0.232,0.211 0.51,0.14 0.654,-0.104"
     id="path8"
     inkscape:connector-curvature="0"
     style="fill:#040006" />
  <path
     d="M 25.549,39.192 V 67.757 H 21.208 V 39.192 h 4.341"
     id="path10"
     inkscape:connector-curvature="0"
     style="fill:#668ecc" />
  <path
     d="m 25.549,39.048 v 11.184 l -4.34,-2.455 v -8.729 h 4.34"
     id="path12"
     inkscape:connector-curvature="0"
     style="fill:#58a08f" />
  <path
     d="m 21.753,39.975 1.077,0.987 -1.077,0.622 v -1.609 m 1.136,0.953 0.025,0.043 -0.025,-0.043 m 0.109,0.052 -0.05,-0.046 -1.295,-1.187 v 2.01 l 1.345,-0.777 m -1.245,1.255 2.806,-1.573 0.013,1.92 -2.539,1.417 v 1.186 l 2.032,1.173 v -0.83 l 0.505,0.504 v 2.358 l -2.817,-1.627 v -4.528 m 2.846,0.332 0.024,0.044 -0.024,-0.044 m 0.074,0.073 v -0.03 l -0.015,-2.119 -3.005,1.685 v 4.644 l 3.017,1.742 V 45.99 l -0.619,-0.619 -0.085,-0.085 v 0.898 l -1.832,-1.057 v -1.07 l 2.539,-1.417"
     id="path14"
     inkscape:connector-curvature="0"
     style="fill:#010202" />
  <path
     d="m 24.566,43.159 0.007,1.736 -1.146,-1.111 1.139,-0.625 m 0.108,1.973 -0.009,-2.141 -0.074,0.04 0.024,0.044 -0.024,-0.044 -1.331,0.73 1.414,1.371"
     id="path16"
     inkscape:connector-curvature="0"
     style="fill:#010202" />
  <path
     d="m 21.63,49.823 h 0.162 v 0.321 c 0,0.186 0.053,0.34 0.159,0.463 0.126,0.151 0.31,0.228 0.553,0.228 h 2.125 v 0.18 h -2.184 c -0.257,0 -0.46,-0.087 -0.608,-0.262 a 0.876,0.876 0 0 1 -0.206,-0.591 v -0.339 z m -0.051,3.157 c 0,-0.423 0.151,-0.782 0.454,-1.079 a 1.526,1.526 0 0 1 1.096,-0.441 c 0.426,0 0.79,0.146 1.093,0.44 0.305,0.298 0.458,0.657 0.458,1.08 0,0.426 -0.153,0.786 -0.458,1.083 a 1.505,1.505 0 0 1 -1.093,0.446 c -0.425,0 -0.791,-0.148 -1.096,-0.445 A 1.46,1.46 0 0 1 21.579,52.98 Z m 0.162,0 c 0,0.374 0.136,0.691 0.407,0.95 0.274,0.26 0.601,0.39 0.98,0.39 0.38,0 0.706,-0.13 0.977,-0.39 0.274,-0.259 0.412,-0.576 0.412,-0.95 a 1.25,1.25 0 0 0 -0.412,-0.951 1.379,1.379 0 0 0 -0.977,-0.381 1.39,1.39 0 0 0 -0.98,0.381 1.263,1.263 0 0 0 -0.407,0.951 z m 2.887,3.595 v 0.18 H 23.81 a 0.946,0.946 0 0 1 -0.681,-0.253 0.77,0.77 0 0 1 -0.248,-0.573 h -1.25 v -0.181 h 1.25 a 0.77,0.77 0 0 1 0.248,-0.573 0.946,0.946 0 0 1 0.681,-0.253 h 0.818 v 0.18 h -0.831 a 0.748,0.748 0 0 0 -0.548,0.206 0.716,0.716 0 0 0 -0.205,0.53 c 0,0.218 0.068,0.395 0.205,0.532 a 0.75,0.75 0 0 0 0.548,0.205 z m -2.843,2.927 H 21.63 v -0.381 c 0,-0.4 0.128,-0.74 0.385,-1.02 0.283,-0.309 0.654,-0.463 1.114,-0.463 0.46,0 0.831,0.154 1.114,0.463 0.257,0.279 0.386,0.619 0.386,1.02 v 0.385 h -0.154 v -0.351 c 0,-0.349 -0.11,-0.648 -0.33,-0.899 -0.248,-0.286 -0.586,-0.429 -1.015,-0.429 -0.428,0 -0.766,0.143 -1.015,0.429 -0.22,0.251 -0.33,0.551 -0.33,0.899 z m 1.862,2.446 H 21.63 v -0.18 h 1.464 v -1.533 h 0.154 v 1.533 h 0.455 c 0.251,0 0.449,-0.078 0.595,-0.235 0.146,-0.154 0.219,-0.36 0.219,-0.617 0,-0.257 -0.073,-0.464 -0.219,-0.621 -0.146,-0.154 -0.344,-0.23 -0.595,-0.23 H 21.63 v -0.181 h 2.017 c 0.323,0 0.576,0.093 0.758,0.278 0.182,0.185 0.274,0.438 0.274,0.754 0,0.317 -0.091,0.568 -0.274,0.754 -0.183,0.186 -0.435,0.278 -0.758,0.278 z m -2.017,0.733 v -0.18 h 2.107 c 0.286,0 0.514,0.08 0.686,0.24 0.171,0.163 0.257,0.38 0.257,0.651 0,0.271 -0.073,0.491 -0.218,0.659 a 0.705,0.705 0 0 1 -0.561,0.257 c -0.386,0 -0.635,-0.164 -0.75,-0.492 h -0.009 c -0.028,0.168 -0.103,0.303 -0.223,0.402 -0.12,0.099 -0.275,0.149 -0.467,0.149 H 21.63 v -0.188 h 0.848 a 0.529,0.529 0 0 0 0.407,-0.163 c 0.111,-0.123 0.167,-0.306 0.167,-0.548 v -0.617 h 0.154 v 0.488 c 0,0.254 0.063,0.45 0.188,0.587 0.117,0.128 0.28,0.192 0.488,0.192 a 0.574,0.574 0 0 0 0.458,-0.205 0.769,0.769 0 0 0 0.176,-0.522 c 0,-0.226 -0.07,-0.401 -0.21,-0.527 -0.14,-0.123 -0.327,-0.185 -0.562,-0.185 H 21.63 Z m 0,2.385 v -0.18 h 2.998 v 0.65 c 0,0.412 -0.139,0.765 -0.416,1.059 -0.289,0.308 -0.65,0.462 -1.084,0.462 -0.445,0 -0.806,-0.136 -1.083,-0.406 a 1.341,1.341 0 0 1 -0.416,-1.003 v -0.433 h 0.162 v 0.416 c 0,0.374 0.136,0.678 0.407,0.912 0.254,0.217 0.564,0.325 0.929,0.325 0.377,0 0.694,-0.133 0.951,-0.398 0.257,-0.266 0.386,-0.6 0.386,-1.002 V 65.066 Z M 18.505,9.837 A 0.54,0.54 0 0 0 17.95,9.304 H 14.133 V 5.488 A 0.557,0.557 0 0 0 13.579,4.933 H 10.508 A 0.557,0.557 0 0 0 9.954,5.488 V 9.305 H 6.137 A 0.521,0.521 0 0 0 5.604,9.838 v 3.092 c 0,0.304 0.229,0.533 0.533,0.533 h 3.817 v 3.817 c 0,0.304 0.25,0.554 0.554,0.554 h 3.071 c 0.304,0 0.554,-0.25 0.554,-0.554 v -3.817 h 3.817 a 0.54,0.54 0 0 0 0.555,-0.533 z"
     id="path18"
     inkscape:connector-curvature="0" />
  <path
     d="M 18.024,9.944 A 0.168,0.168 0 0 0 17.854,9.773 H 13.688 V 5.608 a 0.167,0.167 0 0 0 -0.17,-0.17 h -2.935 a 0.174,0.174 0 0 0 -0.178,0.17 V 9.774 H 6.246 A 0.175,0.175 0 0 0 6.068,9.945 v 2.942 c 0,0.097 0.082,0.171 0.178,0.171 h 4.159 v 4.166 c 0,0.096 0.082,0.17 0.178,0.17 h 2.935 c 0.096,0 0.17,-0.074 0.17,-0.17 v -4.166 h 4.166 c 0.096,0 0.17,-0.074 0.17,-0.171 z"
     id="path20"
     inkscape:connector-curvature="0"
     style="fill:#191919" />
  <path
     d="m 13.264,7.082 0.02,-0.02 -0.619,-0.619 -0.64,-0.64 -0.64,0.64 -0.667,0.667 h 0.411 V 8.349 H 12.92 V 7.11 h 0.413 l -0.049,-0.048 -0.02,0.02 V 7.054 h -0.4 V 8.293 H 11.186 V 7.054 h -0.331 l 0.57,-0.571 0.6,-0.6 0.6,0.6 0.619,0.619 0.02,-0.02 V 7.054 Z m 0,8.653 -0.02,-0.02 -0.619,0.62 -0.6,0.599 -0.6,-0.599 -0.57,-0.572 h 0.331 v -1.239 h 1.678 v 1.239 h 0.4 v -0.028 l -0.02,-0.02 0.02,0.02 V 15.707 H 12.92 v -1.24 h -1.791 v 1.24 h -0.411 l 0.667,0.668 0.64,0.639 0.64,-0.639 0.668,-0.668 h -0.069 z m 3.13,-3.1 0.02,0.02 0.619,-0.619 0.639,-0.64 -0.639,-0.639 -0.668,-0.668 v 0.412 h -1.239 v 1.791 h 1.239 v 0.412 l 0.049,-0.049 -0.02,-0.02 h 0.028 v -0.4 h -1.239 v -1.678 h 1.239 v -0.331 l 0.571,0.57 0.6,0.6 -0.6,0.6 -0.619,0.619 0.02,0.02 h 0.028 z m -8.785,0 0.021,-0.02 -0.62,-0.619 -0.6,-0.6 0.6,-0.6 0.571,-0.57 v 0.331 H 8.82 v 1.678 H 7.581 v 0.4 h 0.028 l 0.021,-0.02 -0.021,0.02 H 7.638 V 12.292 H 8.877 V 10.501 H 7.638 v -0.412 l -0.668,0.668 -0.64,0.639 0.64,0.64 0.668,0.668 v -0.069 z m 4.436,0.268 v -0.041 h -10e-4 a 1.445,1.445 0 0 1 -1.445,-1.444 v -10e-4 c 0,-0.798 0.646,-1.445 1.444,-1.445 h 0.003 V 9.966 9.971 9.966 9.971 a 1.445,1.445 0 0 1 0.001,2.889 h -0.002 v 0.085 h 0.002 a 1.53,1.53 0 0 0 1.528,-1.528 v -0.002 l -0.042,0.001 h 0.042 A 1.528,1.528 0 0 0 12.047,9.889 h -0.002 l 10e-4,0.042 V 9.888 h -0.002 c -0.844,0 -1.527,0.685 -1.527,1.528 v 10e-4 a 1.528,1.528 0 0 0 1.528,1.527 h 10e-4 v -0.041 z"
     id="path22"
     inkscape:connector-curvature="0"
     style="fill:#040006" />
  <path
     d="m 20.365,69.372 h 2.594 v 1.099 h -2.594 z"
     id="path24"
     inkscape:connector-curvature="0"
     style="fill:#0c0e0d" />
  <path
     d="m 17.202,48.414 v 0.163 h -1.983 a 0.933,0.933 0 0 0 -0.634,0.235 0.766,0.766 0 0 0 -0.009,1.161 0.898,0.898 0 0 0 0.642,0.248 0.9,0.9 0 0 0 0.643,-0.248 0.766,0.766 0 0 0 0.261,-0.57 c 0,-0.233 -0.098,-0.445 -0.295,-0.634 h 0.193 c 0.171,0.209 0.257,0.42 0.257,0.634 0,0.28 -0.102,0.515 -0.304,0.703 a 1.05,1.05 0 0 1 -0.754,0.287 c -0.302,0 -0.555,-0.096 -0.758,-0.287 a 0.926,0.926 0 0 1 -0.3,-0.703 c 0,-0.279 0.1,-0.515 0.3,-0.706 0.203,-0.188 0.456,-0.283 0.758,-0.283 z m -2.976,12.631 v -0.163 h 1.015 c 0.243,0 0.454,-0.078 0.634,-0.235 0.18,-0.157 0.27,-0.354 0.27,-0.591 a 0.745,0.745 0 0 0 -0.257,-0.562 c -0.177,-0.171 -0.393,-0.257 -0.646,-0.257 -0.253,0 -0.47,0.086 -0.647,0.257 a 0.747,0.747 0 0 0 -0.257,0.562 c 0,0.233 0.099,0.445 0.295,0.634 H 14.44 c -0.171,-0.206 -0.257,-0.417 -0.257,-0.634 0,-0.28 0.1,-0.516 0.3,-0.707 0.203,-0.188 0.456,-0.283 0.758,-0.283 0.302,0 0.554,0.095 0.753,0.283 a 0.932,0.932 0 0 1 0.304,0.707 0.919,0.919 0 0 1 -0.304,0.702 c -0.2,0.191 -0.451,0.287 -0.753,0.287 z"
     id="path26"
     inkscape:connector-curvature="0"
     style="fill:#040006" />
  <path
     d="m 13.687,49.403 a 4.1065,4.1065 0 1 1 -8.213,0 4.1065,4.1065 0 0 1 8.213,0 z m -0.018,10.653 a 4.1065,4.1065 0 1 1 -8.213,0 4.1065,4.1065 0 0 1 8.213,0 z"
     id="path28"
     inkscape:connector-curvature="0" />
  <path
     d="m 13.125,49.403 a 3.546,3.546 0 1 1 -7.091,0 3.546,3.546 0 0 1 7.091,0 z m -0.018,10.653 a 3.545,3.545 0 1 1 -7.09,0 3.545,3.545 0 0 1 7.09,0 z"
     id="path30"
     inkscape:connector-curvature="0"
     style="fill:#1a1d22" />
</svg>
