<?xml version="1.0" encoding="UTF-8" standalone="no"?>
<svg
   xmlns:dc="http://purl.org/dc/elements/1.1/"
   xmlns:cc="http://creativecommons.org/ns#"
   xmlns:rdf="http://www.w3.org/1999/02/22-rdf-syntax-ns#"
   xmlns:svg="http://www.w3.org/2000/svg"
   xmlns="http://www.w3.org/2000/svg"
   xmlns:sodipodi="http://sodipodi.sourceforge.net/DTD/sodipodi-0.dtd"
   xmlns:inkscape="http://www.inkscape.org/namespaces/inkscape"
   viewBox="0 0 47.794698 29.365"
   version="1.1"
   id="svg94"
   sodipodi:docname="game.svg"
   width="47.794697"
   height="29.365"
   inkscape:version="0.92.4 5da689c313, 2019-01-14">
  <metadata
     id="metadata100">
    <rdf:RDF>
      <cc:Work
         rdf:about="">
        <dc:format>image/svg+xml</dc:format>
        <dc:type
           rdf:resource="http://purl.org/dc/dcmitype/StillImage" />
      </cc:Work>
    </rdf:RDF>
  </metadata>
  <defs
     id="defs98" />
  <sodipodi:namedview
     pagecolor="#ffffff"
     bordercolor="#666666"
     borderopacity="1"
     objecttolerance="10"
     gridtolerance="10"
     guidetolerance="10"
     inkscape:pageopacity="0"
     inkscape:pageshadow="2"
     inkscape:window-width="471"
     inkscape:window-height="442"
     id="namedview96"
     showgrid="false"
     inkscape:zoom="5.670168"
     inkscape:cx="23.897348"
     inkscape:cy="14.6825"
     inkscape:window-x="0"
     inkscape:window-y="0"
     inkscape:window-maximized="0"
     inkscape:current-layer="svg94" />
  <path
     d="m 13.871349,7.48 a 5.798,5.798 0 1 0 0,11.596 5.798,5.798 0 0 0 0,-11.596 z m 0,9.559 a 3.76,3.76 0 1 1 0,-7.52 3.76,3.76 0 0 1 0,7.52 z m 20.052,-11.141 a 7.38,7.38 0 1 0 0,14.76 7.38,7.38 0 0 0 0,-14.76 z m 0,11.14 a 3.76,3.76 0 1 1 0,-7.52 3.76,3.76 0 0 1 0,7.52 z"
     id="path2"
     inkscape:connector-curvature="0"
     style="fill:#271d1a" />
  <path
     d="m 33.923349,10.589 a 2.688,2.688 0 1 0 0,5.376 2.688,2.688 0 0 0 0,-5.376 z m 0.164,4.93 v -0.49 h -0.319 v 0.49 a 2.25,2.25 0 0 1 -1.709,-0.984 l 0.425,-0.245 -0.16,-0.277 -0.424,0.246 a 2.242,2.242 0 0 1 0.003,-1.969 l 0.42,0.242 0.16,-0.277 -0.419,-0.242 a 2.246,2.246 0 0 1 1.701,-0.978 v 0.478 h 0.319 v -0.478 c 0.706,0.05 1.322,0.426 1.698,0.978 l -0.414,0.239 0.16,0.277 0.415,-0.24 a 2.244,2.244 0 0 1 0.006,1.964 l -0.42,-0.242 -0.16,0.277 0.42,0.243 a 2.243,2.243 0 0 1 -1.702,0.988 z m -20.216,-4.93 a 2.688,2.688 0 1 0 0,5.376 2.688,2.688 0 0 0 0,-5.376 z m 0.155,4.931 v -0.49 h -0.319 v 0.49 a 2.246,2.246 0 0 1 -1.703,-0.989 l 0.42,-0.243 -0.16,-0.277 -0.42,0.242 a 2.244,2.244 0 0 1 0.006,-1.964 l 0.415,0.24 0.16,-0.277 -0.414,-0.239 a 2.246,2.246 0 0 1 1.698,-0.978 v 0.478 h 0.319 v -0.478 a 2.245,2.245 0 0 1 1.701,0.978 l -0.419,0.242 0.16,0.277 0.42,-0.242 c 0.146,0.298 0.228,0.633 0.228,0.988 0,0.352 -0.081,0.685 -0.225,0.981 l -0.425,-0.245 -0.16,0.277 0.425,0.245 a 2.242,2.242 0 0 1 -1.707,0.984 z"
     id="path4"
     inkscape:connector-curvature="0"
     style="fill:#e0e0dd" />
  <path
     d="m 47.177349,18.806 c 0.423,0.435 0.556,0.58 0.556,0.58 0,0 0.072,0.048 0.06,0.254 -0.012,0.205 0,6.751 0,6.957 0,0.205 -0.06,0.205 -0.121,0.278 -0.06,0.072 -0.495,0.58 -0.495,0.58 z m -46.55999989,0 c -0.423,0.435 -0.556,0.58 -0.556,0.58 0,0 -0.072,0.048 -0.06,0.254 0.012,0.205 0,6.751 0,6.957 0,0.205 0.06,0.205 0.121,0.278 0.06,0.072 0.495,0.58 0.495,0.58 z"
     id="path6"
     inkscape:connector-curvature="0"
     style="fill:#21211f" />
  <path
     d="M 46.477349,0 H 1.2983491 A 0.86,0.86 0 0 0 0.44034911,0.858 V 28.507 A 0.86,0.86 0 0 0 1.2983491,29.365 H 46.476349 a 0.86,0.86 0 0 0 0.858,-0.858 V 0.858 A 0.86,0.86 0 0 0 46.477349,0 Z m -33.925,28.739 a 1.016,1.016 0 1 1 0,-2.032 1.016,1.016 0 0 1 0,2.032 z m 1.319,-12.911 a 2.551,2.551 0 1 1 0,-5.102 2.551,2.551 0 0 1 0,5.102 z m 4.367,11.678 a 0.369,0.369 0 0 1 -0.368,0.368 h -1.124 a 0.369,0.369 0 0 1 -0.368,-0.368 V 26.49 c 0,-0.202 0.165,-0.368 0.368,-0.368 h 1.124 c 0.202,0 0.368,0.165 0.368,0.368 z m 11.073,-12.165 c 0,0.059 -0.055,0.107 -0.123,0.107 h -10.679 c -0.067,0 -0.123,-0.048 -0.123,-0.107 v -4.364 c 0,-0.059 0.055,-0.107 0.123,-0.107 h 10.679 c 0.067,0 0.123,0.048 0.123,0.107 z m 2.104,12.165 a 0.369,0.369 0 0 1 -0.368,0.368 h -1.124 a 0.369,0.369 0 0 1 -0.368,-0.368 V 26.49 c 0,-0.202 0.165,-0.368 0.368,-0.368 h 1.124 c 0.202,0 0.368,0.165 0.368,0.368 z m 3.827,1.233 a 1.016,1.016 0 1 1 0,-2.032 1.016,1.016 0 0 1 0,2.032 z m -1.319,-12.911 a 2.551,2.551 0 1 1 0,-5.102 2.551,2.551 0 0 1 0,5.102 z"
     id="path8"
     inkscape:connector-curvature="0"
     style="fill:#171715" />
  <path
     d="m 29.358349,10.717 h -11.018 c -0.07,0 -0.126,0.051 -0.126,0.114 v 4.656 c 0,0.063 0.057,0.114 0.126,0.114 h 11.018 c 0.07,0 0.126,-0.051 0.126,-0.114 v -4.656 c 0,-0.063 -0.057,-0.114 -0.126,-0.114 z m -0.047,4.624 c 0,0.059 -0.055,0.107 -0.123,0.107 h -10.679 c -0.067,0 -0.123,-0.048 -0.123,-0.107 v -4.364 c 0,-0.059 0.055,-0.107 0.123,-0.107 h 10.679 c 0.067,0 0.123,0.048 0.123,0.107 z m 11.095,14.024 c -0.294,-1.337 -1.276,-6.023 -1.381,-6.485 -0.108,-0.476 -0.303,-0.865 -0.908,-0.865 H 9.6773491 c -0.605,0 -0.8,0.389 -0.908,0.865 -0.105,0.462 -1.087,5.148 -1.381,6.485 h 0.45 a 1471.77,1471.77 0 0 0 1.301,-6.116 c 0.149,-0.715 0.303,-0.865 0.9079999,-0.865 h 27.701 c 0.605,0 0.759,0.149 0.908,0.865 0.134,0.64 0.945,4.478 1.301,6.115 z"
     id="path10"
     inkscape:connector-curvature="0"
     style="fill:#21211f" />
  <path
     d="m 44.352349,4.114 c -0.04,-0.046 -1.487,-1.556 -1.549,-1.622 a 0.174,0.174 0 0 0 -0.114,-0.048 H 5.1053491 c 0,0 -0.071,10e-4 -0.114,0.048 -0.062,0.066 -1.509,1.576 -1.549,1.622 -0.062,0.072 -0.05,0.117 -0.05,0.117 v 16.172 c 0,0.067 0.055,0.123 0.123,0.123 H 44.279349 a 0.124,0.124 0 0 0 0.123,-0.123 V 4.231 c -10e-4,0 0.012,-0.046 -0.05,-0.117 z m -7.648,7.789 c 0.206,0.415 0.323,0.881 0.323,1.374 a 3.113,3.113 0 0 1 -3.104,3.104 h -20.052 a 3.113,3.113 0 0 1 -3.104,-3.104 3.113,3.113 0 0 1 3.104,-3.104 h 20.052 a 3.117,3.117 0 0 1 2.781,1.73"
     id="path12"
     inkscape:connector-curvature="0"
     style="clip-rule:evenodd;fill:#c2c4d3;fill-rule:evenodd" />
  <path
     d="m 33.923349,10.174 h -20.052 a 3.104,3.104 0 0 0 0,6.208 h 20.052 a 3.104,3.104 0 0 0 0,-6.208 z m -20.057,5.654 a 2.556,2.556 0 1 1 0,-5.111 2.556,2.556 0 0 1 0,5.111 z m 15.618,-0.341 c 0,0.063 -0.057,0.114 -0.126,0.114 h -11.018 c -0.07,0 -0.126,-0.051 -0.126,-0.114 v -4.656 c 0,-0.063 0.057,-0.114 0.126,-0.114 h 11.018 c 0.07,0 0.126,0.051 0.126,0.114 z m 4.439,0.341 a 2.556,2.556 0 1 1 0,-5.111 2.556,2.556 0 0 1 0,5.111 z"
     id="path14"
     inkscape:connector-curvature="0"
     style="clip-rule:evenodd;fill:#171715;fill-rule:evenodd" />
  <circle
     cx="2.0283492"
     cy="1.599"
     r="0.84500003"
     id="circle16"
     style="fill:#525254" />
  <g
     id="g22"
     style="fill:#353537"
     transform="translate(3.4911243e-4)">
    <path
       d="M 2.096,2.24 H 1.96 A 0.078,0.078 0 0 1 1.882,2.162 V 1.036 c 0,-0.043 0.035,-0.078 0.078,-0.078 h 0.136 c 0.043,0 0.078,0.035 0.078,0.078 V 2.162 A 0.08,0.08 0 0 1 2.096,2.24 Z"
       id="path18"
       inkscape:connector-curvature="0" />
    <path
       d="M 2.669,1.531 V 1.667 A 0.078,0.078 0 0 1 2.591,1.745 H 1.464 A 0.078,0.078 0 0 1 1.386,1.667 V 1.531 c 0,-0.043 0.035,-0.078 0.078,-0.078 H 2.59 c 0.044,0 0.079,0.035 0.079,0.078 z"
       id="path20"
       inkscape:connector-curvature="0" />
  </g>
  <circle
     cx="2.0283492"
     cy="27.766001"
     r="0.84500003"
     id="circle24"
     style="fill:#525254" />
  <g
     id="g30"
     style="fill:#353537"
     transform="translate(3.4911243e-4)">
    <path
       d="M 2.096,27.125 H 1.96 a 0.078,0.078 0 0 0 -0.078,0.078 v 1.126 c 0,0.043 0.035,0.078 0.078,0.078 H 2.096 A 0.078,0.078 0 0 0 2.174,28.329 V 27.203 A 0.08,0.08 0 0 0 2.096,27.125 Z"
       id="path26"
       inkscape:connector-curvature="0" />
    <path
       d="M 2.669,27.834 V 27.698 A 0.078,0.078 0 0 0 2.591,27.62 H 1.464 a 0.078,0.078 0 0 0 -0.078,0.078 v 0.136 c 0,0.043 0.035,0.078 0.078,0.078 H 2.59 a 0.078,0.078 0 0 0 0.079,-0.078 z"
       id="path28"
       inkscape:connector-curvature="0" />
  </g>
  <circle
     cx="45.736351"
     cy="27.766001"
     r="0.84500003"
     id="circle32"
     style="fill:#525254" />
  <g
     id="g38"
     style="fill:#353537"
     transform="translate(3.4911243e-4)">
    <path
       d="m 45.668,27.125 h 0.136 c 0.043,0 0.078,0.035 0.078,0.078 v 1.126 a 0.078,0.078 0 0 1 -0.078,0.078 H 45.668 A 0.078,0.078 0 0 1 45.59,28.329 v -1.126 c 0,-0.043 0.035,-0.078 0.078,-0.078 z"
       id="path34"
       inkscape:connector-curvature="0" />
    <path
       d="m 45.095,27.834 v -0.136 c 0,-0.043 0.035,-0.078 0.078,-0.078 h 1.126 c 0.043,0 0.078,0.035 0.078,0.078 v 0.136 a 0.078,0.078 0 0 1 -0.078,0.078 h -1.126 a 0.078,0.078 0 0 1 -0.078,-0.078 z"
       id="path36"
       inkscape:connector-curvature="0" />
  </g>
  <circle
     cx="45.736351"
     cy="1.599"
     r="0.84500003"
     id="circle40"
     style="fill:#525254" />
  <g
     id="g46"
     style="fill:#353537"
     transform="translate(3.4911243e-4)">
    <path
       d="m 45.668,2.24 h 0.136 A 0.078,0.078 0 0 0 45.882,2.162 V 1.036 A 0.078,0.078 0 0 0 45.804,0.958 H 45.668 A 0.078,0.078 0 0 0 45.59,1.036 v 1.126 c 0,0.043 0.035,0.078 0.078,0.078 z"
       id="path42"
       inkscape:connector-curvature="0" />
    <path
       d="m 45.095,1.531 v 0.136 c 0,0.043 0.035,0.078 0.078,0.078 h 1.126 A 0.078,0.078 0 0 0 46.377,1.667 V 1.531 A 0.078,0.078 0 0 0 46.299,1.453 h -1.126 a 0.078,0.078 0 0 0 -0.078,0.078 z"
       id="path44"
       inkscape:connector-curvature="0" />
  </g>
  <circle
     cx="23.897348"
     cy="24.292999"
     r="0.84500003"
     id="circle48"
     style="fill:#525254" />
  <g
     id="g54"
     style="fill:#353537"
     transform="translate(3.4911243e-4)">
    <path
       d="m 23.829,23.652 h 0.136 c 0.043,0 0.078,0.035 0.078,0.078 v 1.126 a 0.078,0.078 0 0 1 -0.078,0.078 H 23.829 A 0.078,0.078 0 0 1 23.751,24.856 V 23.73 c 0,-0.043 0.035,-0.078 0.078,-0.078 z"
       id="path50"
       inkscape:connector-curvature="0" />
    <path
       d="m 23.256,24.361 v -0.136 c 0,-0.043 0.035,-0.078 0.078,-0.078 h 1.126 c 0.043,0 0.078,0.035 0.078,0.078 v 0.136 a 0.078,0.078 0 0 1 -0.078,0.078 h -1.126 a 0.078,0.078 0 0 1 -0.078,-0.078 z"
       id="path52"
       inkscape:connector-curvature="0" />
  </g>
  <path
     d="m 3.3933491,4.231 c 0,0 -0.013,-0.045 0.05,-0.117 0.019,-0.022 0.353,-0.371 0.705,-0.74 H 43.647349 c 0.353,0.369 0.687,0.718 0.705,0.74 0.062,0.072 0.05,0.117 0.05,0.117 V 9.519 H 3.3933491 m -10e-4,7.081 H 44.403349 v 0.085 H 3.3923491 Z"
     id="path56"
     inkscape:connector-curvature="0"
     style="fill:#42a2f9" />
  <path
     d="m 11.085349,11.899 a 3.505,3.505 0 0 0 -0.315,1.262 H 3.3923491 v -1.257 m 7.9029999,-0.373 a 3.102,3.102 0 0 1 2.566,-1.357 h 20.052 c 1.075,0 2.03,0.546 2.587,1.377 l 7.904,-0.005 V 9.813 H 3.3923491 v 1.733 h 7.9039999 m 25.408,0.357 c 0.188,0.38 0.304,0.808 0.32,1.257 h 7.378 v -1.257 m -7.393,1.58 a 3.1,3.1 0 0 1 -0.162,0.833 h 7.554 v -0.833 z m -0.313,1.185 c -0.075,0.149 -0.16,0.29 -0.257,0.424 l 7.963,0.005 v -0.425 m -8.623,1.086 c 0.11,-0.083 0.215,-0.173 0.313,-0.27 h 8.31 v 0.272 h -8.622 m -1.09,0.524 c 0.139,-0.036 0.273,-0.081 0.404,-0.135 v 10e-4 h 9.307 v 0.136 h -9.711 m -21.587,10e-4 a 3.044,3.044 0 0 1 -0.411,-0.136 H 3.3923491 v 0.136 z m -1.097,-0.527 a 3.135,3.135 0 0 1 -0.315,-0.272 H 3.3913491 v 0.272 z m -0.921,-1.113 c 0.078,0.158 0.169,0.308 0.271,0.45 H 3.3923491 v -0.425 m 7.5529999,-0.356 a 3.72,3.72 0 0 1 -0.171,-0.833 H 3.3923491 v 0.833 z"
     id="path58"
     inkscape:connector-curvature="0"
     style="clip-rule:evenodd;fill:#42a2f9;fill-rule:evenodd" />
  <g
     id="g68"
     transform="translate(3.4911243e-4)">
    <g
       id="g62"
       style="fill:#e01b2f">
      <path
         d="m 21.635,17.779 h -1.26 v -0.732 h -0.651 v 1.916 h 0.651 v -0.77 h 1.26 v 0.77 h 0.651 v -1.916 h -0.651 v 0.732 m 1.738,0.414 0.453,-0.744 0.44,0.744 h -0.893 m 0.201,-1.147 -1.167,1.917 h 0.497 l 0.239,-0.392 h 1.346 l 0.232,0.392 h 0.795 l -1.167,-1.917 h -0.775 m 4.523,0.831 c 0.155,-0.203 0.134,-0.501 -0.164,-0.671 -0.278,-0.159 -0.807,-0.218 -1.138,-0.218 -0.53,0 -0.87,0.036 -1.16,0.085 v 1.889 h 0.651 V 17.36 c 0.234,-0.046 0.472,-0.047 0.561,-0.043 0.259,0.012 0.404,0.052 0.52,0.134 0.12,0.086 0.153,0.275 -0.003,0.406 -0.117,0.098 -0.353,0.175 -0.883,0.094 l -0.075,0.123 1.001,0.888 h 0.886 l -0.89,-0.77 c 0.215,-0.027 0.539,-0.112 0.694,-0.315 m -9.799,-0.168 c -0.376,-0.073 -0.695,-0.118 -0.695,-0.24 0,-0.135 0.258,-0.17 0.624,-0.131 a 3.4,3.4 0 0 1 0.977,0.257 l 0.231,-0.379 a 4.26,4.26 0 0 0 -1.214,-0.228 c -0.504,-0.015 -1.356,0.031 -1.393,0.541 -0.033,0.467 0.632,0.579 1.068,0.68 0.425,0.099 0.824,0.135 0.824,0.282 0,0.104 -0.141,0.185 -0.512,0.157 A 3.163,3.163 0 0 1 17,18.303 l -0.252,0.414 c 0.421,0.165 0.974,0.297 1.472,0.305 0.592,0.01 1.26,-0.085 1.275,-0.592 0.012,-0.424 -0.426,-0.572 -1.197,-0.721 M 30.2,17.861 c -0.112,0.092 -0.277,0.125 -0.536,0.124 a 2.593,2.593 0 0 1 -0.55,-0.073 V 17.36 a 2.66,2.66 0 0 1 0.565,-0.043 c 0.26,0.011 0.411,0.055 0.524,0.134 0.118,0.082 0.157,0.28 -0.003,0.41 m 0.569,-0.655 c -0.265,-0.157 -0.761,-0.218 -1.142,-0.218 a 6.7,6.7 0 0 0 -1.164,0.085 v 1.889 h 0.651 V 18.27 c 0.201,0.034 0.453,0.053 0.672,0.052 0.532,-0.005 0.928,-0.129 1.108,-0.326 0.257,-0.279 0.171,-0.616 -0.125,-0.79"
         id="path60"
         inkscape:connector-curvature="0" />
    </g>
    <path
       d="m 30.761,18.411 a 0.604,0.604 0 0 1 0.112,-0.01 c 0.063,0 0.103,0.012 0.131,0.037 a 0.117,0.117 0 0 1 0.036,0.086 c 0,0.06 -0.038,0.1 -0.086,0.115 v 0.002 c 0.035,0.013 0.056,0.045 0.066,0.092 0.015,0.063 0.025,0.106 0.035,0.124 h -0.061 a 0.576,0.576 0 0 1 -0.03,-0.108 c -0.013,-0.062 -0.037,-0.086 -0.091,-0.088 h -0.055 v 0.196 h -0.059 v -0.446 z m 0.058,0.206 h 0.06 c 0.063,0 0.103,-0.034 0.103,-0.086 0,-0.06 -0.043,-0.084 -0.104,-0.085 a 0.223,0.223 0 0 0 -0.058,0.006 v 0.165 z"
       id="path64"
       inkscape:connector-curvature="0"
       style="fill:#e01b2f" />
    <circle
       cx="30.908001"
       cy="18.629999"
       r="0.38999999"
       stroke-miterlimit="10"
       id="circle66"
       style="fill:none;stroke:#e01b2f;stroke-width:0.07;stroke-miterlimit:10" />
  </g>
  <g
     id="g72"
     style="fill:#236291"
     transform="translate(3.4911243e-4)">
    <path
       d="M 4.722,20.052 A 0.386,0.386 0 0 1 4.326,19.657 0.38,0.38 0 0 1 4.438,19.378 c 0.078,-0.078 0.173,-0.117 0.284,-0.117 0.111,0 0.206,0.039 0.284,0.117 a 0.38,0.38 0 0 1 0.112,0.279 0.39,0.39 0 0 1 -0.396,0.395 z M 4.981,19.91 C 5.049,19.842 5.083,19.758 5.083,19.656 5.083,19.554 5.05,19.469 4.981,19.402 4.91,19.331 4.824,19.296 4.722,19.296 c -0.102,0 -0.188,0.035 -0.259,0.106 -0.068,0.067 -0.102,0.152 -0.102,0.254 0,0.102 0.033,0.186 0.102,0.254 0.071,0.071 0.157,0.106 0.259,0.106 0.102,0 0.187,-0.035 0.259,-0.106 z M 4.56,19.427 a 0.218,0.218 0 0 1 0.162,-0.062 0.22,0.22 0 0 1 0.157,0.057 0.24,0.24 0 0 1 0.062,0.152 H 4.858 a 0.164,0.164 0 0 0 -0.04,-0.107 0.142,0.142 0 0 0 -0.203,0.006 c -0.041,0.04 -0.062,0.102 -0.062,0.183 0,0.084 0.021,0.147 0.062,0.188 0.03,0.027 0.065,0.041 0.106,0.041 0.044,0 0.078,-0.012 0.102,-0.036 0.03,-0.03 0.046,-0.074 0.046,-0.132 H 4.95 A 0.25,0.25 0 0 1 4.884,19.89 C 4.847,19.93 4.793,19.95 4.722,19.95 A 0.209,0.209 0 0 1 4.56,19.885 0.309,0.309 0 0 1 4.478,19.656 c 0,-0.095 0.027,-0.171 0.082,-0.229 z m 1.055,0.078 c 0.05,-0.05 0.113,-0.074 0.191,-0.074 0.078,0 0.14,0.022 0.184,0.066 a 0.257,0.257 0 0 1 0.074,0.18 H 5.971 A 0.192,0.192 0 0 0 5.92,19.552 0.155,0.155 0 0 0 5.807,19.505 0.173,0.173 0 0 0 5.682,19.56 c -0.047,0.047 -0.07,0.118 -0.07,0.215 0,0.097 0.023,0.168 0.07,0.215 a 0.169,0.169 0 0 0 0.125,0.051 0.165,0.165 0 0 0 0.121,-0.043 0.213,0.213 0 0 0 0.055,-0.156 H 6.077 A 0.292,0.292 0 0 1 5.999,20.049 C 5.955,20.093 5.891,20.115 5.808,20.115 A 0.255,0.255 0 0 1 5.617,20.041 0.359,0.359 0 0 1 5.519,19.775 0.36,0.36 0 0 1 5.615,19.505 Z m 0.664,0.007 c 0.055,-0.054 0.121,-0.082 0.2,-0.082 0.079,0 0.145,0.027 0.199,0.082 0.063,0.063 0.094,0.148 0.094,0.258 0,0.11 -0.031,0.195 -0.094,0.258 C 6.623,20.083 6.557,20.11 6.479,20.11 6.401,20.11 6.334,20.083 6.28,20.028 6.217,19.965 6.186,19.88 6.186,19.77 c 0,-0.11 0.031,-0.195 0.093,-0.258 z m 0.067,0.051 C 6.302,19.607 6.28,19.676 6.28,19.77 c 0,0.094 0.022,0.163 0.066,0.207 0.039,0.039 0.083,0.059 0.133,0.059 0.05,0 0.094,-0.02 0.133,-0.059 0.044,-0.044 0.066,-0.113 0.066,-0.207 0,-0.094 -0.022,-0.163 -0.066,-0.207 -0.039,-0.039 -0.083,-0.059 -0.133,-0.059 -0.05,0 -0.094,0.02 -0.133,0.059 z M 6.897,19.438 H 7.21 c 0.058,0 0.104,0.019 0.141,0.055 0.037,0.036 0.055,0.087 0.055,0.152 0,0.065 -0.017,0.114 -0.051,0.148 -0.034,0.034 -0.082,0.051 -0.145,0.051 H 6.986 v 0.262 h -0.09 v -0.668 z m 0.089,0.074 V 19.77 H 7.189 A 0.12,0.12 0 0 0 7.275,19.739 0.128,0.128 0 0 0 7.31,19.645 c 0,-0.044 -0.011,-0.077 -0.031,-0.098 a 0.124,0.124 0 0 0 -0.09,-0.035 z m 0.473,-0.074 h 0.094 l 0.191,0.305 0.191,-0.305 h 0.094 l -0.238,0.371 v 0.297 h -0.09 v -0.297 z m 0.664,-0.004 h 0.328 c 0.052,0 0.095,0.017 0.129,0.051 0.034,0.034 0.051,0.081 0.051,0.141 0,0.06 -0.017,0.106 -0.051,0.141 a 0.132,0.132 0 0 1 -0.078,0.035 l 0.152,0.301 H 8.557 L 8.416,19.814 H 8.213 v 0.289 h -0.09 z m 0.09,0.075 v 0.23 h 0.23 c 0.026,0 0.048,-0.009 0.066,-0.027 0.018,-0.018 0.027,-0.047 0.027,-0.086 0,-0.036 -0.011,-0.065 -0.031,-0.086 -0.02,-0.021 -0.046,-0.031 -0.074,-0.031 z m 0.488,-0.071 h 0.176 v 0.086 H 8.834 v 0.496 h 0.043 v 0.086 H 8.701 V 20.02 H 8.744 V 19.524 H 8.701 Z m 0.363,0.074 c 0.055,-0.055 0.121,-0.082 0.199,-0.082 0.078,0 0.142,0.024 0.191,0.074 A 0.223,0.223 0 0 1 9.52,19.656 H 9.428 C 9.425,19.612 9.409,19.575 9.381,19.547 9.353,19.519 9.314,19.504 9.264,19.504 c -0.05,0 -0.091,0.017 -0.125,0.051 -0.047,0.047 -0.07,0.12 -0.07,0.219 0,0.094 0.024,0.165 0.074,0.215 a 0.19,0.19 0 0 0 0.141,0.051 c 0.044,0 0.081,-0.015 0.109,-0.043 0.028,-0.028 0.046,-0.059 0.051,-0.09 V 19.844 H 9.33 V 19.77 h 0.203 v 0.344 H 9.467 L 9.444,20.048 A 0.23,0.23 0 0 1 9.276,20.114 0.275,0.275 0 0 1 9.073,20.036 0.354,0.354 0 0 1 8.975,19.774 c 0,-0.114 0.03,-0.202 0.089,-0.262 z m 0.598,-0.074 h 0.09 v 0.281 h 0.32 v -0.281 h 0.09 v 0.668 h -0.09 v -0.313 h -0.32 v 0.313 h -0.09 z m 0.598,0 h 0.535 v 0.074 h -0.223 v 0.594 h -0.09 V 19.512 H 10.26 Z m 0.996,0.047 c 0.036,-0.036 0.093,-0.055 0.168,-0.055 0.081,0 0.142,0.021 0.184,0.063 a 0.177,0.177 0 0 1 0.055,0.129 h -0.09 a 0.108,0.108 0 0 0 -0.031,-0.078 c -0.023,-0.023 -0.06,-0.035 -0.109,-0.035 -0.055,0 -0.093,0.011 -0.113,0.031 -0.019,0.019 -0.027,0.039 -0.027,0.063 0,0.024 0.005,0.04 0.016,0.051 a 0.205,0.205 0 0 0 0.07,0.039 l 0.203,0.09 c 0.021,0.008 0.04,0.021 0.059,0.039 a 0.141,0.141 0 0 1 0.043,0.102 0.183,0.183 0 0 1 -0.055,0.133 c -0.039,0.039 -0.103,0.059 -0.191,0.059 -0.086,0 -0.152,-0.023 -0.199,-0.07 -0.034,-0.034 -0.051,-0.083 -0.051,-0.148 h 0.09 c 0,0.047 0.011,0.081 0.031,0.102 0.028,0.028 0.073,0.043 0.133,0.043 0.055,0 0.095,-0.013 0.121,-0.039 0.021,-0.021 0.031,-0.042 0.031,-0.063 a 0.084,0.084 0 0 0 -0.023,-0.059 0.215,0.215 0 0 0 -0.063,-0.039 l -0.102,-0.047 a 9.62,9.62 0 0 1 -0.113,-0.051 0.167,0.167 0 0 1 -0.055,-0.035 0.128,0.128 0 0 1 -0.035,-0.094 0.17,0.17 0 0 1 0.053,-0.131 z m 0.543,-0.047 h 0.09 v 0.281 h 0.32 v -0.281 h 0.09 v 0.668 h -0.09 v -0.313 h -0.32 v 0.313 h -0.09 z m 0.582,0.668 0.266,-0.676 h 0.078 l 0.266,0.676 h -0.094 l -0.082,-0.203 h -0.258 l -0.082,0.203 z m 0.305,-0.547 -0.102,0.27 h 0.203 z m 0.398,-0.125 h 0.328 c 0.052,0 0.095,0.017 0.129,0.051 0.034,0.034 0.051,0.081 0.051,0.141 0,0.06 -0.017,0.106 -0.051,0.141 a 0.132,0.132 0 0 1 -0.078,0.035 l 0.152,0.301 h -0.098 l -0.141,-0.289 h -0.203 v 0.289 h -0.09 v -0.669 z m 0.09,0.075 v 0.23 h 0.23 c 0.026,0 0.048,-0.009 0.066,-0.027 0.018,-0.018 0.027,-0.047 0.027,-0.086 0,-0.036 -0.011,-0.065 -0.031,-0.086 -0.02,-0.021 -0.046,-0.031 -0.074,-0.031 z m 0.515,-0.071 h 0.313 c 0.058,0 0.104,0.019 0.141,0.055 0.037,0.036 0.055,0.087 0.055,0.152 0,0.065 -0.017,0.114 -0.051,0.148 -0.034,0.034 -0.082,0.051 -0.145,0.051 h -0.223 v 0.262 h -0.09 z m 0.09,0.074 v 0.258 h 0.203 a 0.12,0.12 0 0 0 0.086,-0.031 0.128,0.128 0 0 0 0.035,-0.094 c 0,-0.044 -0.011,-0.077 -0.031,-0.098 a 0.124,0.124 0 0 0 -0.09,-0.035 z m 0.922,-0.007 c 0.05,-0.05 0.113,-0.074 0.191,-0.074 0.078,0 0.14,0.022 0.184,0.066 a 0.257,0.257 0 0 1 0.074,0.18 h -0.094 a 0.192,0.192 0 0 0 -0.051,-0.125 0.155,0.155 0 0 0 -0.113,-0.047 0.173,0.173 0 0 0 -0.125,0.055 c -0.047,0.047 -0.07,0.118 -0.07,0.215 0,0.097 0.023,0.168 0.07,0.215 a 0.169,0.169 0 0 0 0.125,0.051 0.165,0.165 0 0 0 0.121,-0.043 0.213,0.213 0 0 0 0.055,-0.156 h 0.094 a 0.292,0.292 0 0 1 -0.078,0.207 c -0.044,0.044 -0.108,0.066 -0.191,0.066 a 0.255,0.255 0 0 1 -0.191,-0.074 0.359,0.359 0 0 1 -0.098,-0.266 c 0,-0.115 0.032,-0.205 0.097,-0.27 z m 0.664,0.007 c 0.055,-0.055 0.121,-0.082 0.199,-0.082 0.078,0 0.145,0.027 0.199,0.082 0.063,0.063 0.094,0.148 0.094,0.258 0,0.11 -0.031,0.195 -0.094,0.258 -0.055,0.055 -0.121,0.082 -0.199,0.082 -0.078,0 -0.145,-0.027 -0.199,-0.082 -0.063,-0.063 -0.094,-0.148 -0.094,-0.258 0,-0.11 0.032,-0.195 0.094,-0.258 z m 0.067,0.051 c -0.044,0.044 -0.066,0.113 -0.066,0.207 0,0.094 0.022,0.163 0.066,0.207 0.039,0.039 0.083,0.059 0.133,0.059 0.05,0 0.094,-0.02 0.133,-0.059 0.044,-0.044 0.066,-0.113 0.066,-0.207 0,-0.094 -0.022,-0.163 -0.066,-0.207 -0.039,-0.039 -0.083,-0.059 -0.133,-0.059 -0.05,0 -0.094,0.02 -0.133,0.059 z m 0.57,-0.129 h 0.328 c 0.052,0 0.095,0.017 0.129,0.051 0.034,0.034 0.051,0.081 0.051,0.141 0,0.06 -0.017,0.106 -0.051,0.141 a 0.132,0.132 0 0 1 -0.078,0.035 l 0.152,0.301 h -0.098 l -0.141,-0.289 h -0.203 v 0.289 h -0.09 v -0.669 z m 0.09,0.075 v 0.23 h 0.23 c 0.026,0 0.048,-0.009 0.066,-0.027 0.018,-0.018 0.027,-0.047 0.027,-0.086 0,-0.036 -0.011,-0.065 -0.031,-0.086 -0.02,-0.021 -0.046,-0.031 -0.074,-0.031 z m 0.515,-0.071 h 0.313 c 0.058,0 0.104,0.019 0.141,0.055 0.037,0.036 0.055,0.087 0.055,0.152 0,0.065 -0.017,0.114 -0.051,0.148 -0.034,0.034 -0.082,0.051 -0.145,0.051 h -0.223 v 0.262 h -0.09 z m 0.09,0.074 V 19.77 H 16.9 a 0.12,0.12 0 0 0 0.086,-0.031 0.128,0.128 0 0 0 0.035,-0.094 c 0,-0.044 -0.011,-0.077 -0.031,-0.098 A 0.124,0.124 0 0 0 16.9,19.512 Z m 0.617,0 c 0.055,-0.055 0.121,-0.082 0.199,-0.082 0.078,0 0.145,0.027 0.199,0.082 0.063,0.063 0.094,0.148 0.094,0.258 0,0.11 -0.031,0.195 -0.094,0.258 -0.055,0.055 -0.121,0.082 -0.199,0.082 -0.078,0 -0.145,-0.027 -0.199,-0.082 -0.063,-0.063 -0.094,-0.148 -0.094,-0.258 0,-0.11 0.032,-0.195 0.094,-0.258 z m 0.067,0.051 c -0.044,0.044 -0.066,0.113 -0.066,0.207 0,0.094 0.022,0.163 0.066,0.207 0.039,0.039 0.083,0.059 0.133,0.059 0.05,0 0.094,-0.02 0.133,-0.059 0.044,-0.044 0.066,-0.113 0.066,-0.207 0,-0.094 -0.022,-0.163 -0.066,-0.207 -0.039,-0.039 -0.083,-0.059 -0.133,-0.059 -0.05,0 -0.094,0.02 -0.133,0.059 z m 0.57,-0.129 h 0.328 c 0.052,0 0.095,0.017 0.129,0.051 0.034,0.034 0.051,0.081 0.051,0.141 0,0.06 -0.017,0.106 -0.051,0.141 a 0.132,0.132 0 0 1 -0.078,0.035 l 0.152,0.301 H 18.384 L 18.243,19.814 H 18.04 v 0.289 h -0.09 v -0.669 z m 0.09,0.075 v 0.23 h 0.23 c 0.026,0 0.048,-0.009 0.066,-0.027 0.018,-0.018 0.027,-0.047 0.027,-0.086 0,-0.036 -0.011,-0.065 -0.031,-0.086 -0.02,-0.021 -0.046,-0.031 -0.074,-0.031 z m 0.465,0.597 0.266,-0.676 h 0.078 l 0.266,0.676 H 19.022 L 18.94,19.903 H 18.682 L 18.6,20.106 Z m 0.305,-0.547 -0.102,0.27 h 0.203 z m 0.343,-0.121 h 0.535 v 0.074 h -0.223 v 0.594 h -0.09 v -0.594 h -0.223 v -0.074 z m 0.598,0 h 0.176 v 0.086 h -0.043 v 0.496 h 0.043 v 0.086 H 19.752 V 20.02 h 0.043 v -0.496 h -0.043 z m 0.363,0.074 c 0.055,-0.055 0.121,-0.082 0.199,-0.082 0.078,0 0.145,0.027 0.199,0.082 0.063,0.063 0.094,0.148 0.094,0.258 0,0.11 -0.031,0.195 -0.094,0.258 -0.055,0.055 -0.121,0.082 -0.199,0.082 -0.078,0 -0.145,-0.027 -0.199,-0.082 -0.063,-0.063 -0.094,-0.148 -0.094,-0.258 0,-0.11 0.032,-0.195 0.094,-0.258 z m 0.067,0.051 c -0.044,0.044 -0.066,0.113 -0.066,0.207 0,0.094 0.022,0.163 0.066,0.207 0.039,0.039 0.083,0.059 0.133,0.059 0.05,0 0.094,-0.02 0.133,-0.059 0.044,-0.044 0.066,-0.113 0.066,-0.207 0,-0.094 -0.022,-0.163 -0.066,-0.207 -0.039,-0.039 -0.083,-0.059 -0.133,-0.059 -0.05,0 -0.094,0.02 -0.133,0.059 z m 0.558,-0.125 h 0.098 l 0.313,0.527 v -0.527 h 0.09 v 0.668 H 21.143 L 20.83,19.579 v 0.527 h -0.09 z m 0.594,0.688 0.414,-0.738 0.039,0.023 -0.414,0.738 z m 0.547,-0.688 h 0.09 v 0.281 h 0.32 v -0.281 h 0.09 v 0.668 h -0.09 v -0.313 h -0.32 v 0.313 h -0.09 z m 0.605,0 h 0.176 v 0.086 h -0.043 v 0.496 h 0.043 v 0.086 H 22.486 V 20.02 h 0.043 v -0.496 h -0.043 z m 0.278,0 h 0.234 c 0.078,0 0.145,0.027 0.199,0.082 0.058,0.058 0.086,0.144 0.086,0.258 0,0.109 -0.03,0.194 -0.09,0.254 a 0.262,0.262 0 0 1 -0.195,0.074 h -0.234 z m 0.09,0.074 v 0.52 h 0.141 c 0.05,0 0.09,-0.016 0.121,-0.047 a 0.278,0.278 0 0 0 0.074,-0.207 c 0,-0.094 -0.023,-0.164 -0.07,-0.211 a 0.173,0.173 0 0 0 -0.125,-0.055 z m 0.621,-0.027 c 0.036,-0.036 0.093,-0.055 0.168,-0.055 0.081,0 0.142,0.021 0.184,0.063 a 0.177,0.177 0 0 1 0.055,0.129 h -0.09 a 0.108,0.108 0 0 0 -0.031,-0.078 c -0.023,-0.023 -0.06,-0.035 -0.109,-0.035 -0.055,0 -0.093,0.011 -0.113,0.031 -0.019,0.019 -0.027,0.039 -0.027,0.063 0,0.024 0.005,0.04 0.016,0.051 a 0.205,0.205 0 0 0 0.07,0.039 l 0.203,0.09 c 0.021,0.008 0.04,0.021 0.059,0.039 a 0.141,0.141 0 0 1 0.043,0.102 0.183,0.183 0 0 1 -0.055,0.133 c -0.039,0.039 -0.103,0.059 -0.191,0.059 -0.086,0 -0.152,-0.023 -0.199,-0.07 -0.034,-0.034 -0.051,-0.083 -0.051,-0.148 h 0.09 c 0,0.047 0.011,0.081 0.031,0.102 0.028,0.028 0.073,0.043 0.133,0.043 0.055,0 0.095,-0.013 0.121,-0.039 0.021,-0.021 0.031,-0.042 0.031,-0.063 A 0.084,0.084 0 0 0 23.79,19.882 0.215,0.215 0 0 0 23.727,19.843 l -0.102,-0.047 a 9.62,9.62 0 0 1 -0.113,-0.051 0.167,0.167 0 0 1 -0.055,-0.035 0.128,0.128 0 0 1 -0.035,-0.094 0.17,0.17 0 0 1 0.053,-0.131 z m 0.625,0.027 c 0.055,-0.055 0.121,-0.082 0.199,-0.082 0.078,0 0.145,0.027 0.199,0.082 0.063,0.063 0.094,0.148 0.094,0.258 0,0.11 -0.031,0.195 -0.094,0.258 -0.055,0.055 -0.121,0.082 -0.199,0.082 -0.078,0 -0.145,-0.027 -0.199,-0.082 -0.063,-0.063 -0.094,-0.148 -0.094,-0.258 0,-0.11 0.031,-0.195 0.094,-0.258 z m 0.066,0.051 c -0.044,0.044 -0.066,0.113 -0.066,0.207 0,0.094 0.022,0.163 0.066,0.207 0.039,0.039 0.083,0.059 0.133,0.059 0.05,0 0.094,-0.02 0.133,-0.059 0.044,-0.044 0.066,-0.113 0.066,-0.207 0,-0.094 -0.022,-0.163 -0.066,-0.207 -0.039,-0.039 -0.083,-0.059 -0.133,-0.059 -0.05,0 -0.094,0.02 -0.133,0.059 z m 0.559,-0.125 h 0.098 l 0.313,0.527 v -0.527 h 0.09 v 0.668 h -0.098 l -0.313,-0.527 v 0.527 h -0.09 z m 1.004,0.047 c 0.036,-0.036 0.093,-0.055 0.168,-0.055 0.081,0 0.142,0.021 0.184,0.063 a 0.177,0.177 0 0 1 0.055,0.129 h -0.09 a 0.108,0.108 0 0 0 -0.031,-0.078 c -0.023,-0.023 -0.06,-0.035 -0.109,-0.035 -0.055,0 -0.093,0.011 -0.113,0.031 -0.019,0.019 -0.027,0.039 -0.027,0.063 0,0.024 0.005,0.04 0.016,0.051 a 0.205,0.205 0 0 0 0.07,0.039 l 0.203,0.09 c 0.021,0.008 0.04,0.021 0.059,0.039 a 0.141,0.141 0 0 1 0.043,0.102 0.183,0.183 0 0 1 -0.055,0.133 c -0.039,0.039 -0.103,0.059 -0.191,0.059 -0.086,0 -0.152,-0.023 -0.199,-0.07 -0.034,-0.034 -0.051,-0.083 -0.051,-0.148 h 0.09 c 0,0.047 0.011,0.081 0.031,0.102 0.028,0.028 0.073,0.043 0.133,0.043 0.055,0 0.095,-0.013 0.121,-0.039 0.021,-0.021 0.031,-0.042 0.031,-0.063 a 0.084,0.084 0 0 0 -0.023,-0.059 0.215,0.215 0 0 0 -0.063,-0.039 l -0.102,-0.047 a 9.62,9.62 0 0 1 -0.113,-0.051 0.167,0.167 0 0 1 -0.055,-0.035 0.128,0.128 0 0 1 -0.035,-0.094 0.166,0.166 0 0 1 0.053,-0.131 z m 0.625,0.027 c 0.055,-0.055 0.121,-0.082 0.199,-0.082 0.078,0 0.145,0.027 0.199,0.082 0.063,0.063 0.094,0.148 0.094,0.258 0,0.11 -0.031,0.195 -0.094,0.258 -0.055,0.055 -0.121,0.082 -0.199,0.082 -0.078,0 -0.145,-0.027 -0.199,-0.082 -0.063,-0.063 -0.094,-0.148 -0.094,-0.258 0,-0.11 0.031,-0.195 0.094,-0.258 z m 0.066,0.051 c -0.044,0.044 -0.066,0.113 -0.066,0.207 0,0.094 0.022,0.163 0.066,0.207 0.039,0.039 0.083,0.059 0.133,0.059 0.05,0 0.094,-0.02 0.133,-0.059 0.044,-0.044 0.066,-0.113 0.066,-0.207 0,-0.094 -0.022,-0.163 -0.066,-0.207 -0.039,-0.039 -0.083,-0.059 -0.133,-0.059 -0.05,0 -0.094,0.02 -0.133,0.059 z m 0.566,-0.125 h 0.449 v 0.074 h -0.359 v 0.219 h 0.281 v 0.074 h -0.281 v 0.301 h -0.09 z m 0.5,0 h 0.535 v 0.074 h -0.223 v 0.594 h -0.09 v -0.594 h -0.223 v -0.074 z m 1.02,0.067 c 0.05,-0.05 0.113,-0.074 0.191,-0.074 0.078,0 0.14,0.022 0.184,0.066 a 0.257,0.257 0 0 1 0.074,0.18 H 28.861 A 0.192,0.192 0 0 0 28.81,19.552 0.155,0.155 0 0 0 28.697,19.505 0.173,0.173 0 0 0 28.572,19.56 c -0.047,0.047 -0.07,0.118 -0.07,0.215 0,0.097 0.023,0.168 0.07,0.215 a 0.169,0.169 0 0 0 0.125,0.051 0.165,0.165 0 0 0 0.121,-0.043 0.213,0.213 0 0 0 0.055,-0.156 h 0.094 a 0.292,0.292 0 0 1 -0.078,0.207 c -0.044,0.044 -0.108,0.066 -0.191,0.066 a 0.255,0.255 0 0 1 -0.191,-0.074 0.359,0.359 0 0 1 -0.098,-0.266 0.357,0.357 0 0 1 0.097,-0.27 z m 0.664,0.007 c 0.055,-0.055 0.121,-0.082 0.199,-0.082 0.078,0 0.145,0.027 0.199,0.082 0.063,0.063 0.094,0.148 0.094,0.258 0,0.11 -0.031,0.195 -0.094,0.258 -0.055,0.055 -0.121,0.082 -0.199,0.082 -0.078,0 -0.145,-0.027 -0.199,-0.082 -0.063,-0.063 -0.094,-0.148 -0.094,-0.258 0,-0.11 0.031,-0.195 0.094,-0.258 z m 0.066,0.051 c -0.044,0.044 -0.066,0.113 -0.066,0.207 0,0.094 0.022,0.163 0.066,0.207 0.039,0.039 0.083,0.059 0.133,0.059 0.05,0 0.094,-0.02 0.133,-0.059 0.044,-0.044 0.066,-0.113 0.066,-0.207 0,-0.094 -0.022,-0.163 -0.066,-0.207 -0.039,-0.039 -0.083,-0.059 -0.133,-0.059 -0.05,0 -0.094,0.02 -0.133,0.059 z m 0.571,-0.129 h 0.328 c 0.052,0 0.095,0.017 0.129,0.051 0.034,0.034 0.051,0.081 0.051,0.141 0,0.06 -0.017,0.106 -0.051,0.141 a 0.132,0.132 0 0 1 -0.078,0.035 l 0.152,0.301 H 30.24 l -0.14,-0.29 h -0.203 v 0.289 h -0.09 z m 0.09,0.075 v 0.23 h 0.23 c 0.026,0 0.048,-0.009 0.066,-0.027 0.018,-0.018 0.027,-0.047 0.027,-0.086 0,-0.036 -0.011,-0.065 -0.031,-0.086 -0.02,-0.021 -0.046,-0.031 -0.074,-0.031 z m 0.515,-0.071 h 0.313 c 0.058,0 0.104,0.019 0.141,0.055 0.037,0.036 0.055,0.087 0.055,0.152 0,0.065 -0.017,0.114 -0.051,0.148 -0.034,0.034 -0.082,0.051 -0.145,0.051 h -0.223 v 0.262 h -0.09 z m 0.09,0.074 v 0.258 h 0.203 a 0.12,0.12 0 0 0 0.086,-0.031 0.128,0.128 0 0 0 0.035,-0.094 c 0,-0.044 -0.011,-0.077 -0.031,-0.098 a 0.124,0.124 0 0 0 -0.09,-0.035 z m 0.617,0 c 0.055,-0.055 0.121,-0.082 0.199,-0.082 0.078,0 0.145,0.027 0.199,0.082 0.063,0.063 0.094,0.148 0.094,0.258 0,0.11 -0.031,0.195 -0.094,0.258 -0.055,0.055 -0.121,0.082 -0.199,0.082 -0.078,0 -0.145,-0.027 -0.199,-0.082 -0.063,-0.063 -0.094,-0.148 -0.094,-0.258 0,-0.11 0.032,-0.195 0.094,-0.258 z m 0.067,0.051 c -0.044,0.044 -0.066,0.113 -0.066,0.207 0,0.094 0.022,0.163 0.066,0.207 0.039,0.039 0.083,0.059 0.133,0.059 0.05,0 0.094,-0.02 0.133,-0.059 0.044,-0.044 0.066,-0.113 0.066,-0.207 0,-0.094 -0.022,-0.163 -0.066,-0.207 -0.039,-0.039 -0.083,-0.059 -0.133,-0.059 -0.05,0 -0.094,0.02 -0.133,0.059 z m 0.57,-0.129 h 0.328 c 0.052,0 0.095,0.017 0.129,0.051 0.034,0.034 0.051,0.081 0.051,0.141 0,0.06 -0.017,0.106 -0.051,0.141 a 0.132,0.132 0 0 1 -0.078,0.035 l 0.152,0.301 h -0.098 l -0.141,-0.289 h -0.203 v 0.289 h -0.09 v -0.669 z m 0.09,0.075 v 0.23 h 0.23 c 0.026,0 0.048,-0.009 0.066,-0.027 0.018,-0.018 0.027,-0.047 0.027,-0.086 0,-0.036 -0.011,-0.065 -0.031,-0.086 -0.02,-0.021 -0.046,-0.031 -0.074,-0.031 z m 0.465,0.597 0.266,-0.676 h 0.078 l 0.266,0.676 h -0.094 l -0.082,-0.203 h -0.258 l -0.082,0.203 z m 0.304,-0.547 -0.102,0.27 h 0.203 z m 0.344,-0.121 h 0.535 v 0.074 h -0.223 v 0.594 h -0.09 v -0.594 h -0.223 v -0.074 z m 0.598,0 h 0.176 v 0.086 H 33.69 v 0.496 h 0.043 v 0.086 H 33.557 V 20.02 H 33.6 v -0.496 h -0.043 z m 0.363,0.074 c 0.055,-0.055 0.121,-0.082 0.199,-0.082 0.078,0 0.145,0.027 0.199,0.082 0.063,0.063 0.094,0.148 0.094,0.258 0,0.11 -0.031,0.195 -0.094,0.258 -0.055,0.055 -0.121,0.082 -0.199,0.082 -0.078,0 -0.145,-0.027 -0.199,-0.082 -0.063,-0.063 -0.094,-0.148 -0.094,-0.258 0,-0.11 0.031,-0.195 0.094,-0.258 z m 0.066,0.051 c -0.044,0.044 -0.066,0.113 -0.066,0.207 0,0.094 0.022,0.163 0.066,0.207 0.039,0.039 0.083,0.059 0.133,0.059 0.05,0 0.094,-0.02 0.133,-0.059 0.044,-0.044 0.066,-0.113 0.066,-0.207 0,-0.094 -0.022,-0.163 -0.066,-0.207 -0.039,-0.039 -0.083,-0.059 -0.133,-0.059 -0.05,0 -0.094,0.02 -0.133,0.059 z m 0.559,-0.125 h 0.098 l 0.313,0.527 v -0.527 h 0.09 v 0.668 h -0.098 l -0.313,-0.527 v 0.527 h -0.09 z m 1.555,0 h 0.121 l 0.18,0.52 0.18,-0.52 h 0.121 v 0.668 h -0.09 v -0.512 l -0.18,0.512 h -0.063 l -0.18,-0.512 v 0.512 H 36.1 Z m 0.683,0.668 0.266,-0.676 h 0.078 l 0.266,0.676 h -0.094 l -0.082,-0.203 h -0.258 l -0.082,0.203 z m 0.305,-0.547 -0.102,0.27 h 0.203 z m 0.383,-0.121 h 0.234 c 0.078,0 0.145,0.027 0.199,0.082 0.058,0.058 0.086,0.144 0.086,0.258 0,0.109 -0.03,0.194 -0.09,0.254 a 0.262,0.262 0 0 1 -0.195,0.074 h -0.234 z m 0.09,0.074 v 0.52 h 0.141 c 0.05,0 0.09,-0.016 0.121,-0.047 a 0.278,0.278 0 0 0 0.074,-0.207 c 0,-0.094 -0.023,-0.164 -0.07,-0.211 a 0.173,0.173 0 0 0 -0.125,-0.055 z m 0.558,-0.074 h 0.43 v 0.074 h -0.34 v 0.207 h 0.316 v 0.074 h -0.316 v 0.238 h 0.359 v 0.074 h -0.449 z m 1.145,0 h 0.176 v 0.086 h -0.043 v 0.496 h 0.043 v 0.086 H 39.264 V 20.02 h 0.043 v -0.496 h -0.043 z m 0.281,0 h 0.098 l 0.313,0.527 v -0.527 h 0.09 v 0.668 h -0.098 l -0.313,-0.527 v 0.527 h -0.09 z m 1.562,0 h 0.09 v 0.48 a 0.2,0.2 0 0 1 -0.055,0.145 c -0.034,0.034 -0.086,0.051 -0.156,0.051 -0.07,0 -0.122,-0.017 -0.156,-0.051 -0.044,-0.044 -0.066,-0.116 -0.066,-0.215 h 0.09 c 0,0.075 0.013,0.126 0.039,0.152 0.021,0.021 0.051,0.031 0.09,0.031 0.042,0 0.071,-0.009 0.09,-0.027 a 0.124,0.124 0 0 0 0.035,-0.09 v -0.476 z m 0.172,0.668 0.266,-0.676 h 0.078 l 0.266,0.676 h -0.094 l -0.082,-0.203 h -0.258 l -0.082,0.203 z m 0.305,-0.547 -0.102,0.27 h 0.203 z m 0.379,-0.121 h 0.313 c 0.058,0 0.104,0.019 0.141,0.055 0.037,0.036 0.055,0.087 0.055,0.152 0,0.065 -0.017,0.114 -0.051,0.148 -0.034,0.034 -0.082,0.051 -0.145,0.051 h -0.223 v 0.262 h -0.09 z m 0.09,0.074 v 0.258 h 0.203 a 0.12,0.12 0 0 0 0.086,-0.031 0.128,0.128 0 0 0 0.035,-0.094 c 0,-0.044 -0.011,-0.077 -0.031,-0.098 a 0.124,0.124 0 0 0 -0.09,-0.035 z m 0.476,0.594 0.266,-0.676 h 0.078 l 0.266,0.676 h -0.094 l -0.082,-0.203 h -0.258 l -0.082,0.203 z m 0.305,-0.547 -0.102,0.27 h 0.203 z m 0.387,-0.121 h 0.098 l 0.313,0.527 v -0.527 h 0.09 v 0.668 h -0.098 l -0.313,-0.527 v 0.527 h -0.09 z"
       id="path70"
       inkscape:connector-curvature="0" />
  </g>
  <g
     id="g92"
     transform="translate(3.4911243e-4)">
    <g
       id="g90"
       style="fill:#c2c4d3">
      <path
         d="m 17.141,5.723 0.141,0.002 a 1.64,1.64 0 0 1 0.288,0.029 0.36,0.36 0 0 1 0.109,0.043 c 0.066,0.04 0.123,0.095 0.17,0.165 0.046,0.07 0.069,0.157 0.069,0.26 a 0.495,0.495 0 0 1 -0.078,0.28 0.466,0.466 0 0 1 -0.224,0.176 v 0.006 a 0.463,0.463 0 0 1 0.288,0.171 c 0.066,0.087 0.1,0.193 0.1,0.319 0,0.074 -0.014,0.146 -0.04,0.217 -0.026,0.071 -0.066,0.132 -0.118,0.187 a 0.598,0.598 0 0 1 -0.194,0.131 0.666,0.666 0 0 1 -0.267,0.05 H 16.403 V 5.723 Z m 0.073,0.875 c 0.154,0 0.265,-0.027 0.332,-0.081 0.067,-0.054 0.102,-0.136 0.102,-0.243 A 0.375,0.375 0 0 0 17.614,6.102 0.25,0.25 0 0 0 17.52,6.005 0.392,0.392 0 0 0 17.381,5.961 1.25,1.25 0 0 0 17.214,5.951 h -0.541 v 0.646 h 0.541 z m 0.137,0.933 c 0.12,0 0.214,-0.033 0.281,-0.098 0.067,-0.065 0.102,-0.153 0.102,-0.268 A 0.338,0.338 0 0 0 17.697,7 C 17.672,6.956 17.639,6.921 17.598,6.896 17.557,6.871 17.51,6.852 17.456,6.842 A 0.803,0.803 0 0 0 17.291,6.826 H 16.673 V 7.53 h 0.678 z m 1.856,-1.808 0.795,2.035 H 19.703 L 19.48,7.146 H 18.62 L 18.392,7.758 H 18.115 L 18.908,5.723 Z M 19.395,6.918 19.056,5.969 H 19.05 L 18.705,6.918 Z M 21.22,6.002 A 0.58,0.58 0 0 0 20.873,5.903 0.793,0.793 0 0 0 20.705,5.921 c -0.055,0.011 -0.104,0.03 -0.146,0.057 -0.042,0.027 -0.077,0.063 -0.103,0.106 a 0.34,0.34 0 0 0 -0.039,0.167 c 0,0.063 0.019,0.113 0.056,0.152 0.037,0.039 0.087,0.071 0.148,0.096 0.061,0.025 0.132,0.045 0.21,0.062 a 6.05,6.05 0 0 1 0.475,0.119 0.817,0.817 0 0 1 0.209,0.104 c 0.063,0.044 0.111,0.099 0.148,0.165 C 21.7,7.015 21.72,7.099 21.72,7.2 A 0.516,0.516 0 0 1 21.648,7.478 0.61,0.61 0 0 1 21.461,7.666 0.78,0.78 0 0 1 21.206,7.771 1.206,1.206 0 0 1 20.603,7.761 0.792,0.792 0 0 1 20.334,7.631 0.613,0.613 0 0 1 20.152,7.408 0.706,0.706 0 0 1 20.085,7.088 h 0.257 c 0,0.086 0.017,0.159 0.05,0.221 a 0.43,0.43 0 0 0 0.131,0.152 c 0.054,0.04 0.117,0.07 0.189,0.089 0.072,0.019 0.146,0.028 0.223,0.028 0.061,0 0.122,-0.006 0.184,-0.017 A 0.551,0.551 0 0 0 21.286,7.502 0.328,0.328 0 0 0 21.405,7.39 0.338,0.338 0 0 0 21.451,7.207 0.255,0.255 0 0 0 21.395,7.036 C 21.358,6.992 21.308,6.956 21.247,6.929 21.186,6.902 21.115,6.879 21.038,6.863 L 20.8,6.81 A 3.608,3.608 0 0 1 20.562,6.747 C 20.485,6.724 20.415,6.692 20.353,6.653 20.291,6.614 20.242,6.564 20.205,6.502 a 0.444,0.444 0 0 1 -0.056,-0.231 0.54,0.54 0 0 1 0.23,-0.453 0.717,0.717 0 0 1 0.236,-0.108 1.085,1.085 0 0 1 0.563,0.002 0.642,0.642 0 0 1 0.234,0.116 c 0.068,0.054 0.121,0.12 0.16,0.201 0.039,0.081 0.061,0.177 0.064,0.289 H 21.379 C 21.363,6.173 21.31,6.067 21.22,6.002 Z M 22.331,5.723 V 7.758 H 22.06 V 5.723 Z m 1.685,0.288 a 0.632,0.632 0 0 0 -0.369,-0.108 0.66,0.66 0 0 0 -0.313,0.068 0.621,0.621 0 0 0 -0.213,0.184 0.765,0.765 0 0 0 -0.124,0.264 1.3,1.3 0 0 0 0,0.638 0.766,0.766 0 0 0 0.124,0.271 0.61,0.61 0 0 0 0.528,0.252 c 0.089,0 0.169,-0.015 0.238,-0.044 0.069,-0.029 0.129,-0.07 0.179,-0.123 a 0.554,0.554 0 0 0 0.119,-0.187 0.792,0.792 0 0 0 0.051,-0.233 h 0.271 C 24.481,7.25 24.393,7.449 24.242,7.592 24.091,7.735 23.887,7.806 23.627,7.806 A 0.986,0.986 0 0 1 23.213,7.725 0.819,0.819 0 0 1 22.92,7.5 C 22.842,7.405 22.783,7.293 22.744,7.164 A 1.432,1.432 0 0 1 22.748,6.33 0.988,0.988 0 0 1 22.932,5.99 0.839,0.839 0 0 1 23.234,5.761 0.962,0.962 0 0 1 23.649,5.677 c 0.106,0 0.207,0.014 0.302,0.042 0.096,0.029 0.18,0.07 0.254,0.126 a 0.722,0.722 0 0 1 0.283,0.493 H 24.217 A 0.503,0.503 0 0 0 24.016,6.011 Z m 2.85,0 a 0.632,0.632 0 0 0 -0.369,-0.108 0.66,0.66 0 0 0 -0.313,0.068 0.621,0.621 0 0 0 -0.213,0.184 0.765,0.765 0 0 0 -0.124,0.264 1.3,1.3 0 0 0 0,0.638 0.766,0.766 0 0 0 0.124,0.271 0.61,0.61 0 0 0 0.528,0.252 c 0.089,0 0.169,-0.015 0.238,-0.044 0.069,-0.029 0.129,-0.07 0.179,-0.123 a 0.554,0.554 0 0 0 0.119,-0.187 0.792,0.792 0 0 0 0.051,-0.233 h 0.271 C 27.331,7.25 27.243,7.449 27.092,7.592 26.941,7.735 26.737,7.806 26.477,7.806 A 0.986,0.986 0 0 1 26.063,7.725 0.819,0.819 0 0 1 25.77,7.5 C 25.692,7.405 25.633,7.293 25.594,7.164 A 1.432,1.432 0 0 1 25.598,6.33 0.988,0.988 0 0 1 25.782,5.99 0.839,0.839 0 0 1 26.084,5.761 0.962,0.962 0 0 1 26.499,5.677 c 0.106,0 0.207,0.014 0.302,0.042 0.096,0.029 0.18,0.07 0.254,0.126 a 0.722,0.722 0 0 1 0.283,0.493 H 27.067 A 0.507,0.507 0 0 0 26.866,6.011 Z M 28.8,5.952 H 27.631 V 5.723 h 1.488 v 0.229 l -1.263,1.579 h 1.297 V 7.759 H 27.534 V 7.531 Z m 1.379,0.9 V 7.08 H 29.356 V 6.852 Z m 0.376,-0.819 a 0.478,0.478 0 0 1 0.132,-0.161 c 0.055,-0.044 0.118,-0.077 0.189,-0.1 0.071,-0.023 0.146,-0.034 0.224,-0.034 a 0.81,0.81 0 0 1 0.282,0.044 0.515,0.515 0 0 1 0.189,0.117 0.449,0.449 0 0 1 0.106,0.165 0.539,0.539 0 0 1 0.034,0.189 0.437,0.437 0 0 1 -0.075,0.249 0.472,0.472 0 0 1 -0.204,0.17 0.493,0.493 0 0 1 0.271,0.187 c 0.06,0.087 0.089,0.192 0.089,0.318 0,0.099 -0.018,0.186 -0.053,0.262 -0.035,0.076 -0.083,0.141 -0.143,0.192 A 0.587,0.587 0 0 1 31.384,7.749 0.975,0.975 0 0 1 30.85,7.752 0.597,0.597 0 0 1 30.632,7.638 0.528,0.528 0 0 1 30.486,7.446 0.639,0.639 0 0 1 30.433,7.177 c 0,-0.12 0.03,-0.224 0.091,-0.313 a 0.513,0.513 0 0 1 0.263,-0.192 0.444,0.444 0 0 1 -0.282,-0.419 0.51,0.51 0 0 1 0.05,-0.22 z m 0.258,1.442 a 0.463,0.463 0 0 0 0.31,0.104 c 0.061,0 0.116,-0.01 0.167,-0.03 A 0.373,0.373 0 0 0 31.536,7.186 0.366,0.366 0 0 0 31.414,6.913 0.456,0.456 0 0 0 31.12,6.802 0.541,0.541 0 0 0 30.953,6.829 c -0.052,0.019 -0.098,0.044 -0.137,0.078 a 0.359,0.359 0 0 0 -0.124,0.282 0.36,0.36 0 0 0 0.121,0.286 z m -0.02,-1.069 a 0.29,0.29 0 0 0 0.19,0.162 c 0.044,0.014 0.09,0.021 0.14,0.021 0.097,0 0.177,-0.029 0.239,-0.086 0.062,-0.057 0.095,-0.137 0.095,-0.239 0,-0.102 -0.032,-0.18 -0.096,-0.232 a 0.374,0.374 0 0 0 -0.244,-0.078 0.483,0.483 0 0 0 -0.137,0.02 0.302,0.302 0 0 0 -0.216,0.292 0.306,0.306 0 0 0 0.029,0.14 z m 2.565,-0.395 a 0.632,0.632 0 0 0 -0.369,-0.108 0.66,0.66 0 0 0 -0.313,0.068 0.621,0.621 0 0 0 -0.213,0.184 0.765,0.765 0 0 0 -0.124,0.264 1.3,1.3 0 0 0 0,0.638 0.766,0.766 0 0 0 0.124,0.271 0.61,0.61 0 0 0 0.528,0.252 c 0.089,0 0.169,-0.015 0.238,-0.044 0.069,-0.029 0.129,-0.07 0.179,-0.123 a 0.554,0.554 0 0 0 0.119,-0.187 0.792,0.792 0 0 0 0.051,-0.233 h 0.271 C 33.823,7.25 33.735,7.449 33.584,7.592 33.433,7.735 33.229,7.806 32.969,7.806 A 0.986,0.986 0 0 1 32.555,7.725 0.819,0.819 0 0 1 32.262,7.5 C 32.184,7.405 32.125,7.293 32.086,7.164 A 1.432,1.432 0 0 1 32.09,6.33 0.988,0.988 0 0 1 32.274,5.99 0.839,0.839 0 0 1 32.576,5.761 0.962,0.962 0 0 1 32.991,5.677 c 0.106,0 0.207,0.014 0.302,0.042 0.096,0.029 0.18,0.07 0.254,0.126 A 0.722,0.722 0 0 1 33.83,6.338 H 33.559 A 0.503,0.503 0 0 0 33.358,6.011 Z m 1.567,-0.288 0.141,0.002 a 1.64,1.64 0 0 1 0.288,0.029 0.36,0.36 0 0 1 0.109,0.043 c 0.066,0.04 0.123,0.095 0.17,0.165 0.046,0.07 0.069,0.157 0.069,0.26 A 0.495,0.495 0 0 1 35.624,6.502 0.466,0.466 0 0 1 35.4,6.678 v 0.006 a 0.463,0.463 0 0 1 0.288,0.171 c 0.066,0.087 0.1,0.193 0.1,0.319 0,0.074 -0.014,0.146 -0.04,0.217 -0.026,0.071 -0.066,0.132 -0.118,0.187 a 0.598,0.598 0 0 1 -0.194,0.131 0.666,0.666 0 0 1 -0.267,0.05 H 34.187 V 5.723 Z m 0.074,0.875 c 0.154,0 0.265,-0.027 0.332,-0.081 0.067,-0.054 0.102,-0.136 0.102,-0.243 A 0.375,0.375 0 0 0 35.399,6.102 0.25,0.25 0 0 0 35.305,6.005 0.392,0.392 0 0 0 35.166,5.961 1.25,1.25 0 0 0 34.999,5.951 h -0.541 v 0.646 h 0.541 z m 0.136,0.933 c 0.12,0 0.214,-0.033 0.281,-0.098 0.067,-0.065 0.102,-0.153 0.102,-0.268 A 0.338,0.338 0 0 0 35.481,7 C 35.456,6.956 35.423,6.921 35.382,6.896 35.341,6.871 35.294,6.852 35.24,6.842 A 0.803,0.803 0 0 0 35.075,6.826 H 34.457 V 7.53 h 0.678 z m 1.699,-0.995 c 0.004,-0.08 0.014,-0.157 0.029,-0.233 0.015,-0.076 0.037,-0.148 0.065,-0.217 0.028,-0.069 0.067,-0.128 0.116,-0.18 a 0.532,0.532 0 0 1 0.188,-0.122 c 0.074,-0.031 0.164,-0.046 0.269,-0.046 0.105,0 0.194,0.015 0.27,0.046 a 0.528,0.528 0 0 1 0.304,0.302 c 0.028,0.069 0.05,0.141 0.065,0.217 0.015,0.076 0.024,0.153 0.028,0.233 a 4.622,4.622 0 0 1 0,0.461 C 38.164,7.077 38.155,7.154 38.14,7.23 38.125,7.306 38.103,7.377 38.075,7.445 A 0.566,0.566 0 0 1 37.958,7.624 0.513,0.513 0 0 1 37.773,7.745 0.747,0.747 0 0 1 37.502,7.789 0.747,0.747 0 0 1 37.233,7.745 0.526,0.526 0 0 1 36.929,7.445 1.053,1.053 0 0 1 36.864,7.23 C 36.848,7.154 36.839,7.077 36.835,6.997 36.831,6.917 36.83,6.84 36.83,6.766 c -10e-4,-0.073 0,-0.15 0.004,-0.23 z m 0.258,0.483 c 0.004,0.094 0.02,0.182 0.045,0.265 0.025,0.083 0.067,0.152 0.124,0.21 0.058,0.057 0.137,0.085 0.239,0.085 0.102,0 0.183,-0.028 0.239,-0.085 a 0.49,0.49 0 0 0 0.124,-0.21 c 0.026,-0.083 0.041,-0.171 0.046,-0.265 0.005,-0.095 0.007,-0.18 0.007,-0.256 L 37.915,6.6 A 1.352,1.352 0 0 0 37.863,6.244 0.447,0.447 0 0 0 37.792,6.095 0.345,0.345 0 0 0 37.5,5.951 0.347,0.347 0 0 0 37.208,6.095 0.478,0.478 0 0 0 37.137,6.244 1.486,1.486 0 0 0 37.086,6.6 l -0.002,0.163 c 10e-4,0.077 0.003,0.162 0.008,0.256 z m 1.974,0.74 V 6.31 H 38.542 V 6.117 c 0.068,0 0.135,-0.005 0.199,-0.016 0.064,-0.011 0.123,-0.03 0.176,-0.059 a 0.388,0.388 0 0 0 0.132,-0.117 0.422,0.422 0 0 0 0.074,-0.188 h 0.186 v 2.021 h -0.243 z"
         id="path74"
         inkscape:connector-curvature="0" />
      <g
         id="g78">
        <path
           d="M 40.635,7.787 40.258,6.655 h 0.153 l 0.306,0.981 h 0.003 l 0.31,-0.981 h 0.148 l -0.382,1.132 z m 0.891,0 V 6.981 H 41.251 V 6.874 c 0.035,0 0.07,-0.003 0.104,-0.009 0.034,-0.006 0.064,-0.017 0.093,-0.033 0.027,-0.016 0.051,-0.037 0.069,-0.064 0.018,-0.027 0.032,-0.063 0.039,-0.104 h 0.098 V 7.788 H 41.526 Z M 42.189,7.611 V 7.787 H 42.022 V 7.611 Z m 0.137,-0.505 a 0.757,0.757 0 0 1 0.049,-0.25 0.35,0.35 0 0 1 0.062,-0.1 0.261,0.261 0 0 1 0.099,-0.068 c 0.039,-0.018 0.087,-0.025 0.142,-0.025 0.055,0 0.103,0.008 0.142,0.025 a 0.282,0.282 0 0 1 0.161,0.168 0.664,0.664 0 0 1 0.034,0.12 0.94,0.94 0 0 1 0.015,0.13 c 0.002,0.045 0.004,0.088 0.004,0.129 0,0.041 -0.002,0.084 -0.004,0.128 a 0.716,0.716 0 0 1 -0.049,0.25 0.365,0.365 0 0 1 -0.062,0.1 A 0.276,0.276 0 0 1 42.821,7.78 0.378,0.378 0 0 1 42.678,7.804 0.397,0.397 0 0 1 42.536,7.78 0.293,0.293 0 0 1 42.437,7.713 0.375,0.375 0 0 1 42.375,7.613 0.631,0.631 0 0 1 42.341,7.494 0.938,0.938 0 0 1 42.326,7.363 a 2.832,2.832 0 0 1 0,-0.257 z m 0.136,0.27 c 0.002,0.052 0.01,0.102 0.023,0.147 0.013,0.045 0.035,0.085 0.065,0.116 0.03,0.031 0.072,0.048 0.126,0.048 0.054,0 0.096,-0.017 0.126,-0.048 0.03,-0.031 0.052,-0.07 0.065,-0.116 0.013,-0.046 0.021,-0.096 0.023,-0.147 0.003,-0.053 0.004,-0.1 0.004,-0.143 L 42.893,7.142 A 0.855,0.855 0 0 0 42.866,6.944 0.254,0.254 0 0 0 42.828,6.861 0.194,0.194 0 0 0 42.766,6.802 C 42.741,6.787 42.71,6.781 42.674,6.781 c -0.036,0 -0.066,0.007 -0.092,0.021 A 0.194,0.194 0 0 0 42.52,6.861 0.254,0.254 0 0 0 42.482,6.944 0.739,0.739 0 0 0 42.455,7.142 l -10e-4,0.091 c 0.004,0.043 0.005,0.09 0.008,0.143 z"
           id="path76"
           inkscape:connector-curvature="0" />
      </g>
      <g
         id="g88">
        <path
           d="m 4.763,7.973 h 0.269 c 0.05,0 0.09,0.017 0.121,0.048 A 0.176,0.176 0 0 1 5.2,8.152 C 5.2,8.208 5.185,8.251 5.157,8.279 A 0.173,0.173 0 0 1 5.032,8.323 H 4.84 V 8.549 H 4.763 Z M 4.84,8.038 V 8.26 H 5.015 A 0.1,0.1 0 0 0 5.089,8.233 c 0.02,-0.02 0.03,-0.047 0.03,-0.08 0,-0.038 -0.01,-0.066 -0.027,-0.084 A 0.101,0.101 0 0 0 5.015,8.039 H 4.84 Z M 5.297,7.973 h 0.37 V 8.037 H 5.375 V 8.215 H 5.646 V 8.278 H 5.375 V 8.483 H 5.684 V 8.547 H 5.297 Z M 5.797,7.97 H 6.08 A 0.15,0.15 0 0 1 6.191,8.014 0.167,0.167 0 0 1 6.234,8.135 0.164,0.164 0 0 1 6.191,8.255 0.113,0.113 0 0 1 6.124,8.285 L 6.255,8.544 H 6.17 L 6.049,8.297 H 5.874 V 8.545 H 5.797 Z M 5.874,8.034 V 8.232 H 6.072 C 6.094,8.232 6.114,8.224 6.13,8.209 6.146,8.194 6.153,8.169 6.153,8.136 6.153,8.104 6.144,8.079 6.126,8.062 A 0.086,0.086 0 0 0 6.063,8.034 Z M 6.376,8.014 C 6.408,7.983 6.456,7.968 6.52,7.968 c 0.069,0 0.122,0.018 0.158,0.054 a 0.151,0.151 0 0 1 0.047,0.11 H 6.648 A 0.095,0.095 0 0 0 6.622,8.065 C 6.601,8.045 6.57,8.035 6.527,8.035 6.48,8.035 6.448,8.045 6.43,8.062 6.414,8.077 6.406,8.094 6.406,8.115 c 0,0.021 0.005,0.035 0.013,0.044 A 0.195,0.195 0 0 0 6.48,8.192 L 6.655,8.269 A 0.175,0.175 0 0 1 6.706,8.303 0.122,0.122 0 0 1 6.742,8.39 0.155,0.155 0 0 1 6.695,8.504 C 6.662,8.538 6.607,8.555 6.531,8.555 A 0.236,0.236 0 0 1 6.359,8.494 C 6.33,8.466 6.316,8.423 6.316,8.367 h 0.077 c 0,0.04 0.009,0.069 0.026,0.087 C 6.443,8.479 6.482,8.491 6.533,8.491 6.58,8.491 6.615,8.48 6.637,8.458 6.655,8.439 6.663,8.422 6.663,8.404 A 0.071,0.071 0 0 0 6.643,8.353 0.173,0.173 0 0 0 6.591,8.32 C 6.569,8.308 6.54,8.296 6.503,8.279 A 4.806,4.806 0 0 0 6.405,8.236 0.145,0.145 0 0 1 6.358,8.206 0.111,0.111 0 0 1 6.328,8.125 0.156,0.156 0 0 1 6.376,8.014 Z m 0.537,0.024 a 0.233,0.233 0 0 1 0.172,-0.07 c 0.066,0 0.124,0.023 0.171,0.07 0.053,0.054 0.08,0.128 0.08,0.222 0,0.094 -0.027,0.167 -0.081,0.221 A 0.232,0.232 0 0 1 7.084,8.551 0.235,0.235 0 0 1 6.912,8.481 0.3,0.3 0 0 1 6.832,8.259 c 0,-0.094 0.027,-0.167 0.081,-0.221 z M 6.97,8.082 C 6.932,8.12 6.913,8.178 6.913,8.26 c 0,0.08 0.02,0.14 0.058,0.178 a 0.155,0.155 0 0 0 0.114,0.051 c 0.042,0 0.08,-0.017 0.114,-0.051 C 7.237,8.399 7.255,8.34 7.255,8.26 7.255,8.179 7.236,8.12 7.198,8.082 A 0.156,0.156 0 0 0 7.084,8.031 0.155,0.155 0 0 0 6.97,8.082 Z M 7.451,7.973 H 7.535 L 7.804,8.427 V 7.973 H 7.88 V 8.548 H 7.796 L 7.528,8.094 V 8.548 H 7.451 Z M 7.951,8.549 8.18,7.968 H 8.247 L 8.476,8.549 H 8.394 L 8.324,8.374 H 8.102 L 8.032,8.549 Z M 8.213,8.078 8.125,8.309 H 8.3 Z M 8.552,7.973 H 8.629 V 8.484 H 8.938 V 8.548 H 8.552 Z m 0.79,0.058 C 9.385,7.988 9.44,7.968 9.507,7.968 c 0.067,0 0.119,0.019 0.157,0.057 0.041,0.04 0.062,0.092 0.064,0.154 H 9.648 A 0.165,0.165 0 0 0 9.604,8.071 0.134,0.134 0 0 0 9.507,8.031 0.147,0.147 0 0 0 9.4,8.078 C 9.359,8.118 9.339,8.18 9.339,8.263 c 0,0.083 0.02,0.144 0.061,0.184 a 0.143,0.143 0 0 0 0.107,0.044 c 0.045,0 0.079,-0.012 0.104,-0.037 A 0.183,0.183 0 0 0 9.659,8.32 h 0.08 A 0.248,0.248 0 0 1 9.671,8.498 C 9.633,8.536 9.579,8.555 9.507,8.555 A 0.223,0.223 0 0 1 9.342,8.491 0.313,0.313 0 0 1 9.258,8.262 c 0,-0.098 0.029,-0.175 0.084,-0.231 z m 0.571,0.007 a 0.233,0.233 0 0 1 0.172,-0.07 c 0.066,0 0.124,0.023 0.171,0.07 0.054,0.054 0.081,0.128 0.081,0.222 0,0.094 -0.027,0.168 -0.081,0.222 A 0.232,0.232 0 0 1 10.085,8.552 0.235,0.235 0 0 1 9.913,8.482 0.3,0.3 0 0 1 9.833,8.26 0.3,0.3 0 0 1 9.913,8.038 Z M 9.97,8.082 C 9.932,8.12 9.913,8.178 9.913,8.26 c 0,0.08 0.02,0.14 0.058,0.178 a 0.155,0.155 0 0 0 0.114,0.051 c 0.042,0 0.08,-0.017 0.114,-0.051 C 10.237,8.4 10.256,8.34 10.256,8.26 10.256,8.179 10.237,8.12 10.199,8.082 A 0.158,0.158 0 0 0 10.085,8.031 0.155,0.155 0 0 0 9.97,8.082 Z m 0.481,-0.109 h 0.104 l 0.154,0.447 0.154,-0.447 h 0.104 V 8.548 H 10.89 v -0.44 l -0.155,0.44 h -0.054 l -0.154,-0.44 v 0.44 H 10.45 V 7.973 Z m 0.632,0 h 0.269 c 0.05,0 0.09,0.017 0.121,0.048 a 0.176,0.176 0 0 1 0.047,0.131 c 0,0.056 -0.015,0.099 -0.043,0.127 A 0.17,0.17 0 0 1 11.352,8.323 H 11.16 V 8.549 H 11.083 Z M 11.16,8.038 V 8.26 h 0.175 a 0.1,0.1 0 0 0 0.074,-0.027 c 0.02,-0.02 0.03,-0.047 0.03,-0.08 0,-0.038 -0.01,-0.066 -0.027,-0.084 A 0.101,0.101 0 0 0 11.335,8.039 H 11.16 Z m 0.46,-0.065 h 0.077 v 0.403 c 0,0.031 0.01,0.058 0.03,0.077 0.024,0.025 0.061,0.037 0.107,0.037 0.046,0 0.083,-0.012 0.107,-0.037 a 0.101,0.101 0 0 0 0.03,-0.077 V 7.973 h 0.077 V 8.38 a 0.167,0.167 0 0 1 -0.047,0.121 c -0.036,0.035 -0.092,0.054 -0.168,0.054 -0.076,0 -0.132,-0.019 -0.168,-0.054 A 0.167,0.167 0 0 1 11.618,8.38 V 7.973 Z m 0.513,0 h 0.46 V 8.037 H 12.402 V 8.548 H 12.325 V 8.038 H 12.134 V 7.973 Z m 0.541,0 h 0.37 v 0.064 h -0.292 v 0.178 h 0.271 v 0.063 h -0.271 v 0.205 h 0.309 v 0.064 h -0.387 z m 0.5,-0.003 h 0.282 a 0.15,0.15 0 0 1 0.111,0.044 0.167,0.167 0 0 1 0.043,0.121 0.164,0.164 0 0 1 -0.043,0.12 0.113,0.113 0 0 1 -0.067,0.03 l 0.131,0.259 H 13.547 L 13.426,8.296 h -0.175 v 0.248 h -0.077 z m 0.077,0.064 v 0.198 h 0.198 c 0.022,0 0.042,-0.008 0.058,-0.023 0.016,-0.015 0.023,-0.04 0.023,-0.073 0,-0.032 -0.009,-0.057 -0.027,-0.074 A 0.086,0.086 0 0 0 13.44,8.035 h -0.189 z"
           id="path80"
           inkscape:connector-curvature="0" />
        <g
           id="g86">
          <path
             d="M 9.578,5.838 8.736,4.336 H 11.06 Z M 9.102,4.55 9.626,5.485 10.548,4.55 Z M 7.296,7.671 H 4.763 L 6.364,6.1 Z M 5.287,7.457 H 6.92 L 6.32,6.443 Z"
             id="path82"
             inkscape:connector-curvature="0" />
          <path
             d="m 12.125,4.336 -0.74,0.774 h 0.899 L 11.206,7.028 9.87,7.027 8.322,4.336 H 5.753 L 7.688,7.67 h 5.697 L 15.303,4.336 Z M 9.87,7.457 H 7.812 L 6.124,4.55 H 8.198 L 9.747,7.242 H 11.33 L 12.65,4.896 H 11.886 L 12.217,4.55 h 2.716 L 13.261,7.456 H 9.87 Z"
             id="path84"
             inkscape:connector-curvature="0" />
        </g>
      </g>
    </g>
  </g>
</svg>
