<?xml version="1.0" encoding="UTF-8" standalone="no"?>
<svg
   xmlns:dc="http://purl.org/dc/elements/1.1/"
   xmlns:cc="http://creativecommons.org/ns#"
   xmlns:rdf="http://www.w3.org/1999/02/22-rdf-syntax-ns#"
   xmlns:svg="http://www.w3.org/2000/svg"
   xmlns="http://www.w3.org/2000/svg"
   xmlns:sodipodi="http://sodipodi.sourceforge.net/DTD/sodipodi-0.dtd"
   xmlns:inkscape="http://www.inkscape.org/namespaces/inkscape"
   viewBox="0 0 891.258 479.333"
   version="1.1"
   id="svg92"
   sodipodi:docname="consolegame.svg"
   width="891.258"
   height="479.33301"
   inkscape:version="0.92.4 5da689c313, 2019-01-14">
  <metadata
     id="metadata98">
    <rdf:RDF>
      <cc:Work
         rdf:about="">
        <dc:format>image/svg+xml</dc:format>
        <dc:type
           rdf:resource="http://purl.org/dc/dcmitype/StillImage" />
      </cc:Work>
    </rdf:RDF>
  </metadata>
  <defs
     id="defs96" />
  <sodipodi:namedview
     pagecolor="#ffffff"
     bordercolor="#666666"
     borderopacity="1"
     objecttolerance="10"
     gridtolerance="10"
     guidetolerance="10"
     inkscape:pageopacity="0"
     inkscape:pageshadow="2"
     inkscape:window-width="640"
     inkscape:window-height="480"
     id="namedview94"
     showgrid="false"
     inkscape:zoom="0.30406459"
     inkscape:cx="445.629"
     inkscape:cy="239.6665"
     inkscape:window-x="0"
     inkscape:window-y="0"
     inkscape:window-maximized="0"
     inkscape:current-layer="svg92">
    <inkscape:grid
       type="xygrid"
       id="grid905"
       originx="0"
       originy="-7.8124999e-06" />
  </sodipodi:namedview>
  <path
     d="m 766.868,307.103 c -26.421,0 -47.84,21.419 -47.84,47.84 0,26.421 21.419,47.84 47.84,47.84 26.421,0 47.84,-21.419 47.84,-47.84 0,-26.421 -21.419,-47.84 -47.84,-47.84 z m 0,63.109 c -8.433,0 -15.269,-6.836 -15.269,-15.269 0,-8.433 6.836,-15.269 15.269,-15.269 8.433,0 15.269,6.836 15.269,15.269 0,8.433 -6.836,15.269 -15.269,15.269 z"
     id="path2"
     inkscape:connector-curvature="0"
     style="fill:#e8e8e8" />
  <path
     d="m 766.868,230.553 c -68.699,0 -124.39,55.691 -124.39,124.39 0,68.699 55.691,124.39 124.39,124.39 68.699,0 124.39,-55.691 124.39,-124.39 0,-68.699 -55.691,-124.39 -124.39,-124.39 z m 0,172.23 c -26.421,0 -47.84,-21.419 -47.84,-47.84 0,-26.421 21.419,-47.84 47.84,-47.84 26.421,0 47.84,21.419 47.84,47.84 0,26.421 -21.419,47.84 -47.84,47.84 z"
     id="path4"
     inkscape:connector-curvature="0"
     style="fill:#3b3b3b" />
  <path
     d="m 766.868,309.976 c 24.795,0 44.967,20.172 44.967,44.967 0,24.795 -20.172,44.967 -44.967,44.967 -24.795,0 -44.967,-20.172 -44.967,-44.967 0,-24.795 20.172,-44.967 44.967,-44.967 m 0,-2.873 c -26.421,0 -47.84,21.419 -47.84,47.84 0,26.421 21.419,47.84 47.84,47.84 26.421,0 47.84,-21.419 47.84,-47.84 0,-26.421 -21.419,-47.84 -47.84,-47.84 z"
     id="path6"
     inkscape:connector-curvature="0"
     style="fill:#ababab" />
  <path
     d="m 766.868,316.489 c 21.204,0 38.454,17.25 38.454,38.454 0,21.204 -17.25,38.454 -38.454,38.454 -21.204,0 -38.454,-17.25 -38.454,-38.454 0,-21.204 17.25,-38.454 38.454,-38.454 m 0,-0.082 c -21.283,0 -38.536,17.253 -38.536,38.536 0,21.283 17.253,38.536 38.536,38.536 21.283,0 38.536,-17.253 38.536,-38.536 0,-21.283 -17.253,-38.536 -38.536,-38.536 z"
     id="path8"
     inkscape:connector-curvature="0"
     style="fill:#4a4a4a" />
  <path
     d="m 766.868,339.706 c 8.402,0 15.237,6.835 15.237,15.237 0,8.402 -6.835,15.237 -15.237,15.237 -8.402,0 -15.237,-6.835 -15.237,-15.237 0,-8.402 6.835,-15.237 15.237,-15.237 m 0,-0.032 c -8.433,0 -15.269,6.836 -15.269,15.269 0,8.433 6.836,15.269 15.269,15.269 8.433,0 15.269,-6.836 15.269,-15.269 0,-8.433 -6.836,-15.269 -15.269,-15.269 z"
     id="path10"
     inkscape:connector-curvature="0" />
  <path
     d="m 766.868,232 c 32.839,0 63.713,12.788 86.934,36.009 23.221,23.221 36.009,54.094 36.009,86.934 0,32.84 -12.788,63.713 -36.009,86.934 -23.221,23.221 -54.094,36.009 -86.934,36.009 -32.84,0 -63.713,-12.788 -86.934,-36.009 -23.221,-23.221 -36.009,-54.094 -36.009,-86.934 0,-32.84 12.788,-63.713 36.009,-86.934 C 703.155,244.788 734.029,232 766.868,232 m 0,-1.447 c -68.699,0 -124.39,55.691 -124.39,124.39 0,68.699 55.691,124.39 124.39,124.39 68.699,0 124.39,-55.691 124.39,-124.39 0,-68.699 -55.691,-124.39 -124.39,-124.39 z"
     id="path12"
     inkscape:connector-curvature="0"
     style="fill:#ababab" />
  <g
     id="g18"
     style="fill:#171717">
    <path
       d="m 821.209,303.004 c -0.547,-0.207 -0.846,-0.568 -1.295,-0.538 -1.487,0.108 -3.61,2.241 -3.395,4.079 0.069,0.627 0.499,1.556 1.359,1.761 0.636,0.158 1.869,0.06 2.651,0 1.145,-0.077 2.285,-0.459 2.92,-0.948 0.362,-0.284 1.047,-1.075 1.149,-1.633 0.441,-2.316 -1.76,-2.086 -3.389,-2.721 z m 16.44,40.294 c 3.106,1.492 5.86,3.266 9.851,3.61 4.182,0.351 7.733,-1.556 10.061,-3.336 5.082,-3.89 7.039,-11.222 6.863,-20.181 -0.011,-0.041 -0.015,-0.079 -0.069,-0.069 -1.736,3.62 -3.766,7.22 -5.508,10.741 -0.607,1.224 -1.253,2.793 -1.966,3.737 -3.541,4.622 -11.426,5.85 -19.232,5.498 z m 2.245,-44.099 c 0.7,0.068 1.409,-0.197 2.172,-0.127 0.553,0.039 1.282,0.45 2.039,0.195 1.096,-0.351 1.566,-1.952 1.566,-3.531 -0.005,-0.481 -0.206,-1.037 -0.137,-1.566 0.102,-0.788 0.812,-1.741 0.48,-2.847 -0.298,-0.977 -1.561,-1.624 -2.456,-1.975 -1.203,-0.481 -2.181,-0.568 -3.395,-1.087 -0.078,0.035 -0.156,0.07 -0.206,0.137 -1.673,1.496 -3.561,3.287 -3.8,6.046 -0.054,0.568 -0.137,1.413 0.064,2.102 0.372,1.282 2.151,2.516 3.673,2.653 z M 700.057,456.168 c -9.054,-6.357 -17.359,-13.675 -23.713,-22.905 -4.755,-6.892 -8.697,-14.61 -10.194,-24.805 -0.509,-3.423 -0.273,-7.22 -0.273,-11.338 0,-13.324 2.054,-25.098 7.068,-33.779 0.709,-1.222 1.374,-2.554 2.24,-3.527 0.651,-0.734 1.619,-1.404 2.451,-2.108 4.04,-3.423 8.163,-6.936 13.588,-9.166 2.103,-0.88 4.578,-1.712 7.132,-1.907 a 21.695,21.695 0 0 1 14.136,3.801 c 2.711,1.9 4.838,4.389 6.619,7.225 -0.05,-0.9 -0.082,-1.805 -0.082,-2.718 0,-4.054 0.509,-7.989 1.458,-11.748 -13.042,-10.544 -24.89,-22.463 -39.388,-31.491 -6.477,15.158 -12.952,30.312 -19.37,45.524 a 9243.384,9243.384 0 0 1 3.105,-68.978 c -12.554,19.167 -19.878,42.069 -19.878,66.693 0,48.191 27.968,89.841 68.553,109.632 a 152.08,152.08 0 0 1 -13.452,-8.405 z M 674.299,275.691 c 11.259,8.496 22.324,17.177 33.574,25.689 4.393,-15.285 7.498,-31.868 9.44,-49.607 0.191,3.021 2.025,5.345 1.223,8.697 1.869,-0.577 3.849,-1.635 5.841,-2.309 v 2.309 c 1.858,-0.861 3.986,-2.398 5.844,-3.262 v 66.995 a 48.117,48.117 0 0 1 9.252,-8.469 c 0.487,-21.461 0.98,-42.918 1.416,-64.435 17.446,-4.315 32.714,-10.807 49.26,-16.022 a 122.474,122.474 0 0 0 -23.281,-2.247 c -37.132,0 -70.364,16.622 -92.724,42.807 0.051,-0.048 0.103,-0.099 0.155,-0.146 z m 165.896,176.643 a 122.62,122.62 0 0 0 25.255,-25.698 c -9.867,7.051 -16.975,17.022 -25.255,25.698 z m -5.873,-7.385 c -1.878,-3.648 -1.418,-9.635 -4.827,-11.749 -0.7,0.45 -1.15,0.851 -1.835,1.212 -6.104,3.249 -13.94,-1.388 -14.747,-7.052 h -0.132 c -4.294,0.763 -8.09,1.672 -10.193,4.817 -0.539,0.803 -1.4,2.471 -1.428,3.527 -0.044,1.614 0.88,3.664 1.834,4.902 2.519,3.268 7.225,4.158 10.531,6.311 0.646,0.43 1.184,1.124 1.904,1.506 1.335,0.699 3.326,0.963 5.033,1.018 6.005,0.164 10.221,-2.359 13.86,-4.492 z m 5.772,-51.094 c -1.795,-2.994 -6.339,-3.023 -10.663,-2.525 -1.252,3.903 -4.099,11.094 0.064,13.735 4.172,-0.68 8.168,-1.467 10.188,-4.417 0.636,-0.909 1.409,-2.235 1.433,-3.463 0.025,-1.237 -0.586,-2.606 -1.022,-3.33 z m 11.759,14.674 c -2.24,0.23 -4.539,2.137 -4.01,4.627 0.45,2.093 2.837,4.568 5.846,3.589 0.645,-1.334 2.255,-2.22 2.646,-3.735 0.732,-2.819 -1.645,-4.775 -4.482,-4.481 z"
       id="path14"
       inkscape:connector-curvature="0" />
    <path
       d="m 804.628,467.917 c -8.883,-1.643 -15.55,-5.926 -16.645,-15.494 -1.067,-9.274 2.416,-18.295 1.086,-27.588 -0.107,-0.714 -0.528,-1.598 -0.48,-2.172 0.059,-0.625 1.688,-2.319 2.103,-2.855 9.489,-12.013 18.9,-23.914 28.409,-35.874 1.521,-1.917 2.954,-3.888 4.549,-5.708 h 47.636 c -1.132,14.876 -2.189,29.766 -3.312,44.858 13.136,-19.453 20.807,-42.901 20.807,-68.141 0,-57.93 -40.418,-106.387 -94.584,-118.799 -0.81,0.607 -1.566,1.267 -2.214,2.035 a 45.682,45.682 0 0 0 2.456,2.446 c -2.681,2.5 -5.566,4.78 -8.158,7.341 3.58,0.548 6.951,1.292 10.536,1.83 -6.065,4.089 -12.404,7.791 -18.621,11.695 -6.217,3.898 -12.433,7.791 -18.621,11.695 h 41.518 c 0.049,0.284 -0.323,0.347 -0.475,0.469 -14.351,10.791 -29.313,21.443 -43.688,32.273 -0.072,0.712 -0.067,1.465 -0.043,2.225 a 47.991,47.991 0 0 1 9.982,-1.051 c 26.421,0 47.84,21.419 47.84,47.84 0,7.067 -1.545,13.77 -4.295,19.807 0.205,0.339 0.389,0.701 0.535,1.1 a 3.379,3.379 0 0 1 -1.306,0.514 48.011,48.011 0 0 1 -22.776,22.037 c 1.712,3.497 3.422,6.989 5.118,10.469 -13.48,-0.625 -27.229,-1.579 -40.764,-2.376 6.428,15.808 13.315,31.754 19.839,47.7 h -4.892 v 2.788 c 0,0.96 -0.206,2.201 0,2.778 0.166,0.459 0.739,0.322 0.88,0.749 -1.702,-0.67 -3.291,-1.457 -4.211,-2.915 -1.805,1.197 -0.66,4.768 -1.012,7.067 -0.171,0.108 -0.386,-0.363 -0.547,-0.616 -11.114,-17.61 -22.373,-35.526 -33.495,-53.14 3.994,-5.519 8.018,-11.01 12.027,-16.514 a 48.05,48.05 0 0 1 -10.168,-9.415 c -2.996,-1.285 -5.487,-3.181 -7.979,-4.984 -2.866,-2.073 -5.766,-4.197 -8.907,-6.114 -4.285,-2.631 -10.017,-5.743 -17.252,-5.23 -2.137,0.143 -4.436,0.494 -6.119,1.355 -1.37,0.705 -2.617,2.044 -3.669,3.189 -3.242,3.566 -5.654,8.062 -6.388,14.067 -1.051,8.687 1.82,16.229 4.691,22.222 2.925,6.104 6.96,11.313 11.484,15.834 4.559,4.558 10.018,8.353 16.107,11.21 -1.893,-8.556 -0.225,-20.675 -8.633,-22.834 -2.704,-0.693 -6.334,-0.313 -10.051,-0.409 -0.127,-0.305 0.573,-0.656 0.944,-0.871 1.233,-0.749 2.954,-1.288 3.673,-2.525 -1.907,-1.154 -3.859,-2.259 -5.776,-3.394 3.038,-1.199 4.495,-3.973 6.793,-5.909 -1.124,-0.759 -2.509,-1.614 -3.33,-2.446 8.148,-1.898 16.175,-3.903 24.329,-5.786 3.435,26.331 6.969,52.573 10.472,78.824 a 121.81,121.81 0 0 0 36.837,5.679 c 15.769,0 30.822,-3.027 44.655,-8.477 -2.313,0.089 -4.704,-0.056 -6.895,-0.459 z m 5.233,-142.287 c -1.545,-2.484 -3.449,-4.764 -4.485,-7.475 -3.238,-8.413 -6.627,-17.334 -9.988,-25.816 0.607,-1.413 1.624,-2.597 2.446,-3.878 4.079,-6.343 8.34,-12.722 12.434,-19.16 1.638,-2.571 3.472,-5.399 5.096,-7.747 12.033,3.15 23.86,6.486 35.873,9.656 0.005,0.068 0.088,0.058 0.137,0.068 6.681,9.88 14.409,18.577 20.661,29.084 3.027,5.087 5.84,10.594 7.537,17.324 1.188,4.697 1.794,11.015 1.022,16.778 -0.108,0.813 -0.289,1.722 -0.475,2.656 -0.171,0.821 -0.201,1.981 -0.547,2.577 -0.264,0.446 -1.145,0.96 -1.629,1.355 -5.972,4.886 -8.971,12.811 -13.319,19.569 -1.54,2.407 -3.36,4.838 -5.434,6.457 -2.475,1.927 -5.527,2.877 -9.175,1.977 -1.536,-0.382 -2.921,-0.969 -4.275,-1.703 -0.675,-0.363 -1.272,-0.763 -1.971,-1.017 -6.687,-2.378 -11.299,-6.457 -15.496,-11.353 -7.323,-8.524 -12.293,-19.471 -18.412,-29.352 z"
       id="path16"
       inkscape:connector-curvature="0" />
  </g>
  <path
     d="m 671.837,361.81 c 0.041,0.052 0.087,0.099 0.161,0.184 v -1.77 c 0,-0.174 0.007,-0.349 -0.008,-0.522 -0.036,-0.416 -0.161,-0.542 -0.573,-0.614 -0.051,-0.009 -0.096,-0.045 -0.145,-0.068 l 0.025,-0.059 h 5.651 v 1.481 c -0.061,-0.038 -0.111,-0.056 -0.141,-0.092 -0.025,-0.029 -0.025,-0.078 -0.036,-0.118 -0.166,-0.647 -0.455,-0.912 -1.109,-0.969 -0.309,-0.027 -0.622,-0.005 -0.938,-0.005 v 1.98 c 0.477,0.039 0.755,-0.13 0.907,-0.564 0.052,-0.15 0.069,-0.312 0.112,-0.465 0.014,-0.051 0.06,-0.094 0.091,-0.14 l 0.053,0.031 v 2.564 l -0.057,0.029 c -0.032,-0.054 -0.076,-0.105 -0.094,-0.163 -0.048,-0.152 -0.073,-0.311 -0.128,-0.46 -0.149,-0.4 -0.449,-0.565 -0.879,-0.527 0,0.6 -0.011,1.204 0.012,1.807 0.003,0.088 0.159,0.235 0.257,0.246 1.07,0.123 1.793,-0.132 2.142,-1.128 0.02,-0.058 0.076,-0.103 0.116,-0.154 l 0.056,0.035 -0.218,1.535 h -4.254 l -0.02,-0.054 c 0.046,-0.021 0.091,-0.058 0.138,-0.062 0.466,-0.036 0.552,-0.118 0.554,-0.59 0.004,-1.198 0.002,-2.397 -10e-4,-3.595 -10e-4,-0.326 -0.118,-0.451 -0.439,-0.492 -0.547,-0.071 -0.8,0.16 -0.805,0.756 -0.007,0.822 -0.002,1.644 -0.002,2.467 v 1.741 c -0.099,-0.072 -0.172,-0.106 -0.218,-0.162 -1.009,-1.244 -2.014,-2.491 -3.02,-3.737 -0.056,-0.069 -0.114,-0.135 -0.193,-0.23 -0.005,0.09 -0.012,0.148 -0.012,0.207 v 2.843 c 0,0.576 0.098,0.688 0.673,0.794 0.036,0.007 0.064,0.051 0.142,0.116 h -1.816 v -0.125 c 0.521,0.008 0.708,-0.169 0.722,-0.685 0.002,-0.063 10e-4,-0.125 10e-4,-0.188 0,-1.023 -0.006,-2.046 0.005,-3.068 a 0.698,0.698 0 0 0 -0.206,-0.517 c -0.145,-0.157 -0.329,-0.195 -0.522,-0.224 v -0.125 c 0.516,10e-4 1.031,0.008 1.547,-0.001 a 0.363,0.363 0 0 1 0.33,0.158 m 10.752,-2.157 a 0.42,0.42 0 0 1 -0.325,-0.139 c -1.933,-1.939 -3.869,-3.875 -5.8,-5.817 a 0.478,0.478 0 0 1 -0.124,-0.305 c -0.004,-2.752 -10e-4,-5.504 0.008,-8.256 0,-0.092 0.043,-0.207 0.106,-0.271 1.661,-1.669 3.328,-3.333 4.994,-4.997 0.034,-0.034 0.072,-0.063 0.105,-0.093 l 5.906,5.888 c 0.048,-0.069 0.088,-0.146 0.147,-0.205 1.447,-1.45 2.897,-2.896 4.343,-4.347 a 0.446,0.446 0 0 1 0.345,-0.145 c 2.411,0.007 4.821,0.008 7.232,0.017 0.097,0 0.219,0.049 0.287,0.117 1.718,1.711 3.431,3.427 5.139,5.147 a 0.442,0.442 0 0 1 0.115,0.286 c 0.005,2.418 0.004,4.835 -10e-4,7.253 a 0.399,0.399 0 0 1 -0.091,0.257 c -1.681,1.688 -3.368,3.371 -5.053,5.055 -0.014,0.014 -0.032,0.024 -0.017,0.013 l -4.221,-4.121 c -0.022,0.021 -0.078,0.071 -0.13,0.123 -1.464,1.463 -2.928,2.924 -4.389,4.39 a 0.463,0.463 0 0 1 -0.361,0.155 m -5.91,4.459 c -0.004,1.67 -1.306,2.777 -3.012,2.561 -1.069,-0.136 -1.852,-0.794 -2.129,-1.79 -0.301,-1.083 0.035,-2.155 0.878,-2.813 0.581,-0.454 1.253,-0.539 1.956,-0.48 1.397,0.116 2.31,1.119 2.307,2.522 z m -3.924,10e-4 c 0.018,0.628 0.043,1.257 0.395,1.81 a 1.071,1.071 0 0 0 1.806,0.029 c 0.111,-0.164 0.196,-0.354 0.252,-0.545 0.208,-0.708 0.204,-1.434 0.092,-2.152 a 3.036,3.036 0 0 0 -0.317,-0.937 c -0.216,-0.406 -0.679,-0.571 -1.13,-0.479 -0.451,0.092 -0.699,0.403 -0.864,0.798 -0.198,0.472 -0.219,0.974 -0.234,1.476 z m 18.476,-2.546 c 1.273,0.016 2.278,0.799 2.495,1.954 0.246,1.31 -0.368,2.557 -1.496,2.99 -1.055,0.405 -2.744,0.282 -3.452,-1.25 -0.676,-1.463 0.06,-3.179 1.544,-3.593 0.093,-0.026 0.189,-0.052 0.285,-0.06 0.207,-0.02 0.416,-0.028 0.624,-0.041 z m 1.237,2.501 c -0.012,-0.202 -0.019,-0.447 -0.044,-0.689 -0.039,-0.376 -0.125,-0.741 -0.334,-1.064 a 1.071,1.071 0 0 0 -1.138,-0.476 c -0.487,0.1 -0.741,0.445 -0.895,0.875 -0.206,0.573 -0.221,1.171 -0.189,1.773 0.024,0.462 0.094,0.914 0.314,1.328 0.138,0.26 0.33,0.464 0.621,0.555 0.588,0.182 1.099,-0.05 1.379,-0.629 0.25,-0.517 0.27,-1.074 0.286,-1.673 z m -10.195,2.195 c 0,-0.365 0.002,-0.733 -0.001,-1.102 -0.003,-0.359 -0.124,-0.482 -0.484,-0.511 -0.054,-0.004 -0.105,-0.035 -0.158,-0.053 l 0.018,-0.065 h 2.371 l 0.032,0.041 c -0.039,0.028 -0.075,0.073 -0.118,0.082 -0.397,0.082 -0.455,0.144 -0.463,0.556 -0.006,0.306 0.005,0.613 -0.009,0.919 -0.003,0.069 -0.061,0.171 -0.119,0.195 -0.862,0.355 -1.758,0.489 -2.675,0.305 -1.205,-0.242 -2.015,-1.2 -2.038,-2.361 -0.025,-1.254 0.754,-2.319 1.934,-2.623 0.641,-0.165 1.28,-0.155 1.907,0.083 0.117,0.044 0.234,0.087 0.353,0.127 0.241,0.081 0.33,0.041 0.459,-0.183 0.029,-0.052 0.088,-0.087 0.133,-0.13 0.018,0.061 0.051,0.121 0.051,0.182 0.004,0.513 0.002,1.027 0.002,1.54 l -0.064,0.034 c -0.042,-0.057 -0.099,-0.109 -0.125,-0.172 -0.183,-0.443 -0.451,-0.812 -0.871,-1.06 -0.938,-0.553 -1.972,-0.167 -2.287,0.868 a 4.194,4.194 0 0 0 -0.031,2.368 c 0.271,0.987 1.241,1.411 2.183,0.96 z"
     id="path20"
     inkscape:connector-curvature="0"
     style="fill:#828282" />
  <path
     d="m 691.818,361.543 c 0,0.587 -10e-4,1.157 10e-4,1.727 0.001,0.185 0.089,0.314 0.277,0.334 0.489,0.053 0.975,0.047 1.422,-0.198 0.376,-0.206 0.574,-0.552 0.719,-0.939 0.021,-0.057 0.076,-0.101 0.115,-0.152 l 0.057,0.035 -0.217,1.536 c -0.063,0.004 -0.124,0.011 -0.184,0.011 h -3.886 c -0.035,0 -0.072,0.008 -0.104,-0.002 -0.032,-0.011 -0.059,-0.039 -0.088,-0.06 0.027,-0.023 0.052,-0.061 0.082,-0.066 0.599,-0.116 0.6,-0.116 0.601,-0.734 0,-1.135 0,-2.27 -0.003,-3.405 -10e-4,-0.394 -0.122,-0.516 -0.518,-0.546 -0.058,-0.005 -0.115,-0.032 -0.172,-0.049 l 0.017,-0.07 h 4.104 v 1.479 c -0.06,-0.044 -0.102,-0.073 -0.141,-0.104 -0.009,-0.007 -0.01,-0.025 -0.013,-0.039 -0.149,-0.753 -0.559,-1.052 -1.389,-1.054 h -0.675 v 1.984 c 0.413,0.062 0.714,-0.093 0.868,-0.47 0.067,-0.165 0.091,-0.348 0.142,-0.52 0.018,-0.061 0.056,-0.116 0.085,-0.174 l 0.064,0.025 v 2.56 l -0.042,0.034 c -0.036,-0.046 -0.088,-0.087 -0.105,-0.139 -0.051,-0.158 -0.071,-0.327 -0.133,-0.479 -0.169,-0.413 -0.388,-0.538 -0.884,-0.525 z m 12.871,2.258 v -0.481 h 0.284 c 0.302,-0.005 0.34,-0.039 0.341,-0.336 0.003,-0.662 0.001,-1.324 0.001,-1.986 0,-0.425 0.004,-0.85 -0.002,-1.275 -0.005,-0.394 -0.023,-0.407 -0.441,-0.398 v 1.441 h -0.483 c -0.047,-0.143 -0.089,-0.296 -0.147,-0.441 -0.212,-0.523 -0.674,-0.839 -1.191,-0.823 -0.509,0.016 -0.938,0.35 -1.119,0.885 -0.232,0.685 -0.202,1.375 0.025,2.05 0.256,0.759 1.104,1.031 1.835,0.591 0.205,-0.124 0.381,-0.301 0.555,-0.47 0.145,-0.14 0.267,-0.302 0.433,-0.494 0,0.352 0.004,0.666 -0.005,0.98 -10e-4,0.044 -0.059,0.089 -0.097,0.128 -0.828,0.835 -1.819,0.927 -2.877,0.59 -0.871,-0.277 -1.387,-0.912 -1.57,-1.793 -0.345,-1.665 1.001,-3.236 2.702,-3.149 0.354,0.018 0.703,0.145 1.054,0.226 0.098,0.023 0.193,0.059 0.31,0.096 l 0.083,-0.357 c 1.076,0.025 2.159,-0.002 3.231,0.089 1.053,0.09 1.817,0.915 1.976,1.962 0.088,0.585 0.045,1.152 -0.208,1.693 -0.37,0.79 -1.042,1.195 -1.865,1.255 -0.933,0.07 -1.876,0.017 -2.825,0.017 z m 0.176,-4.744 0.02,0.052 c 0.041,0.003 0.081,0.008 0.122,0.009 0.377,0.012 0.489,0.105 0.493,0.483 0.011,1.149 0.012,2.298 0.006,3.447 -0.002,0.355 -0.111,0.444 -0.468,0.469 -0.058,0.004 -0.114,0.033 -0.171,0.05 l 0.015,0.067 c 0.416,0 0.833,0.005 1.249,-0.001 0.466,-0.007 0.937,0.014 1.396,-0.048 0.872,-0.118 1.532,-0.558 1.779,-1.444 0.093,-0.335 0.118,-0.702 0.103,-1.051 -0.034,-0.809 -0.599,-1.908 -1.772,-2.017 -0.884,-0.082 -1.779,-0.054 -2.669,-0.071 -0.033,0 -0.068,0.036 -0.103,0.055 z m -0.292,3.6 c -0.216,0.177 -0.413,0.375 -0.643,0.522 -0.753,0.479 -1.738,0.271 -2.068,-0.463 -0.38,-0.847 -0.411,-1.733 -0.038,-2.593 0.365,-0.844 1.421,-1.077 2.143,-0.508 0.267,0.21 0.426,0.489 0.527,0.808 0.02,0.062 0.065,0.115 0.099,0.172 l 0.053,-0.028 v -1.556 a 0.204,0.204 0 0 0 -0.137,0.118 c -0.076,0.179 -0.201,0.24 -0.385,0.178 -0.118,-0.04 -0.236,-0.082 -0.353,-0.124 a 2.744,2.744 0 0 0 -1.271,-0.151 c -1.324,0.156 -2.338,1.513 -2.091,2.811 0.163,0.854 0.631,1.474 1.469,1.737 0.9,0.283 1.769,0.246 2.529,-0.419 a 0.473,0.473 0 0 0 0.166,-0.504 z m -20.823,-2.041 a 0.70300445,0.70300445 0 1 1 -0.005,1.406 0.7,0.7 0 0 1 -0.708,-0.718 0.694,0.694 0 0 1 0.713,-0.688 z"
     id="path22"
     inkscape:connector-curvature="0"
     style="fill:#828282" />
  <path
     d="m 679.405,338.008 5.414,5.399 c -0.33,0.187 -0.238,0.505 -0.239,0.794 -0.004,1.178 -0.003,2.355 -0.003,3.533 0,0.048 0.005,0.096 0.01,0.169 h 0.229 c 1.414,10e-4 2.829,0.004 4.243,0 0.143,0 0.242,0.041 0.346,0.143 1.247,1.226 2.5,2.447 3.761,3.678 -0.102,0.113 -0.145,0.164 -0.191,0.211 -1.42,1.418 -2.838,2.838 -4.263,4.25 a 0.476,0.476 0 0 1 -0.305,0.122 c -2.557,0.006 -5.114,0.003 -7.672,0.006 a 0.421,0.421 0 0 1 -0.327,-0.137 c -1.81,-1.817 -3.623,-3.629 -5.431,-5.448 a 0.476,0.476 0 0 1 -0.125,-0.304 c -0.006,-2.644 -0.005,-5.049 0,-7.692 0,-0.093 0.035,-0.211 0.097,-0.274 1.454,-1.463 2.914,-2.919 4.373,-4.377 0.028,-0.029 0.061,-0.054 0.083,-0.073 z m 6.827,10.745 c -0.131,0.269 -0.262,0.491 -0.348,0.729 -0.154,0.424 -0.283,0.857 -0.42,1.287 -0.357,1.121 -1.132,1.782 -2.271,1.995 -0.839,0.157 -1.683,0.194 -2.537,-0.225 0.322,0.502 0.69,0.859 1.222,1.018 0.619,0.185 1.251,0.161 1.885,0.102 0.385,-0.036 0.764,-0.095 1.075,-0.347 1.518,-1.231 1.851,-2.689 1.394,-4.559 z m -4.517,-2.972 c 0.172,0.008 0.285,0.002 0.394,0.021 0.143,0.025 0.234,-0.017 0.304,-0.146 0.103,-0.189 0.218,-0.372 0.335,-0.552 0.106,-0.163 0.114,-0.317 0.005,-0.484 -0.144,-0.221 -0.294,-0.441 -0.41,-0.677 -0.121,-0.248 -0.298,-0.294 -0.559,-0.308 -0.356,-0.02 -0.585,0.078 -0.742,0.402 -0.102,0.211 -0.347,0.393 -0.357,0.596 -0.01,0.212 0.203,0.427 0.288,0.652 0.143,0.381 0.359,0.616 0.742,0.496 z m -3.362,1.924 c 0.145,-10e-4 0.689,-0.417 0.718,-0.515 0.004,-0.013 0.008,-0.03 0.002,-0.04 -0.116,-0.217 -0.179,-0.519 -0.361,-0.632 -0.58,-0.364 -1.153,0.001 -1.267,0.617 a 0.12,0.12 0 0 0 0.027,0.092 c 0.266,0.243 0.555,0.442 0.881,0.478 z m 17.268,1.568 c 0.517,-0.25 1.022,-0.498 1.53,-0.738 0.116,-0.055 0.165,-0.129 0.207,-0.254 0.212,-0.627 0.117,-1.249 0.004,-1.874 a 3.553,3.553 0 0 1 -0.029,-0.207 c -0.005,-0.041 -0.005,-0.082 -0.008,-0.146 l 2.297,-0.515 0.347,1.484 c 0.035,0.149 0.048,0.306 0.104,0.446 0.242,0.606 0.119,1.201 -0.04,1.795 -0.016,0.062 -0.095,0.131 -0.159,0.151 -0.245,0.077 -0.494,0.15 -0.746,0.195 -0.164,0.029 -0.212,0.116 -0.239,0.259 -0.081,0.423 -0.171,0.845 -0.257,1.268 -0.018,0.091 -0.035,0.162 -0.159,0.177 -0.566,0.07 -1.13,0.157 -1.696,0.228 -0.063,0.008 -0.147,-0.033 -0.198,-0.078 a 9.338,9.338 0 0 1 -0.53,-0.503 0.467,0.467 0 0 1 -0.112,-0.213 c -0.109,-0.481 -0.209,-0.965 -0.316,-1.475 z m -2.692,-5.321 c -0.055,0.531 -0.101,1.015 -0.159,1.498 a 0.24,0.24 0 0 1 -0.125,0.16 c -0.293,0.127 -0.59,0.244 -0.891,0.352 a 0.25,0.25 0 0 1 -0.202,-0.034 c -0.33,-0.255 -0.655,-0.517 -0.972,-0.787 a 0.28,0.28 0 0 1 -0.078,-0.21 c 0.042,-0.466 0.083,-0.876 0.151,-1.388 0.009,-0.066 0.095,-0.122 0.146,-0.181 0.003,-0.004 0.013,-0.002 0.02,-0.004 l 0.93,-0.217 c 0.375,0.239 0.75,0.476 1.122,0.719 0.039,0.024 0.053,0.084 0.058,0.092 z m 1.478,-2.877 c 0.038,0.007 0.092,0.015 0.146,0.026 0.682,0.136 0.685,0.136 0.927,0.792 0.021,0.055 -0.008,0.138 -0.034,0.199 -0.02,0.048 -0.072,0.083 -0.11,0.124 -0.475,0.527 -0.476,0.527 -1.157,0.345 -0.038,-0.01 -0.103,-0.029 -0.106,-0.049 -0.027,-0.211 -0.1,-0.438 -0.048,-0.63 0.075,-0.275 0.243,-0.523 0.382,-0.807 z"
     id="path24"
     inkscape:connector-curvature="0"
     style="fill:#171717" />
  <path
     d="m 706.621,359.268 c 0.621,-0.085 0.986,0.089 1.287,0.616 0.249,0.437 0.31,0.916 0.314,1.407 0.004,0.489 -0.027,0.974 -0.228,1.43 -0.207,0.469 -0.568,0.689 -1.075,0.662 -0.228,-0.012 -0.308,-0.077 -0.309,-0.3 -0.005,-1.259 -0.004,-2.519 -0.004,-3.778 0,-0.012 0.01,-0.024 0.015,-0.037 z m 0.189,3.891 c 0.514,0.074 0.834,-0.101 1.017,-0.559 0.193,-0.481 0.216,-0.988 0.19,-1.498 -0.024,-0.472 -0.122,-0.92 -0.409,-1.313 -0.203,-0.279 -0.482,-0.341 -0.799,-0.324 z"
     id="path26"
     inkscape:connector-curvature="0"
     style="fill:#828282" />
  <g
     id="g32">
    <path
       d="m 776.753,458.6 a 2.285,2.285 0 0 1 -0.007,0.155 c -0.019,0.165 0,0.242 -0.474,0.242 -0.474,0 -0.456,-0.078 -0.474,-0.242 a 11.162,11.162 0 0 1 0,-0.968 c 0.019,-0.165 0,-0.242 0.474,-0.242 0.474,0 0.456,0.078 0.474,0.242 0.003,0.022 0.005,0.087 0.007,0.164 h 0.649 a 4.827,4.827 0 0 0 -0.018,-0.334 c -0.037,-0.329 0.092,-0.644 -1.111,-0.644 -1.203,0 -1.073,0.315 -1.111,0.644 -0.012,0.107 -0.023,0.379 -0.022,0.653 10e-4,0.274 0.01,0.546 0.022,0.653 0.037,0.329 -0.092,0.644 1.111,0.644 1.203,0 1.074,-0.315 1.111,-0.644 0.007,-0.063 0.013,-0.181 0.017,-0.324 z m -7.695,-1.56 -0.633,1.849 -0.634,-1.849 -0.947,-0.005 v 2.483 h 0.633 v -1.85 l 0.633,1.85 h 0.634 l 0.628,-1.85 v 1.85 h 0.633 v -2.483 z m 8.486,-0.005 h 1.82 v 0.633 h -0.593 v 1.85 h -0.633 v -1.85 h -0.594 z m -4.881,2.483 0.726,-2.486 h 0.944 l 0.728,2.486 h -0.633 l -0.15,-0.514 h -0.83 l 0.117,-0.404 h 0.594 l -0.294,-1.012 -0.569,1.93 z m -7.344,-1.973 c 0.474,0 0.456,0.078 0.474,0.242 0.006,0.054 0.011,0.347 0.011,0.484 0,0.137 -0.005,0.43 -0.011,0.484 -0.019,0.165 0,0.242 -0.474,0.242 -0.474,0 -0.456,-0.078 -0.474,-0.242 a 11.162,11.162 0 0 1 0,-0.968 c 0.018,-0.164 0,-0.242 0.474,-0.242 l 0.001,-0.571 c -1.203,0 -1.073,0.315 -1.111,0.644 a 7.369,7.369 0 0 0 -0.022,0.653 c 10e-4,0.274 0.01,0.546 0.022,0.653 0.037,0.329 -0.092,0.644 1.111,0.644 1.203,0 1.074,-0.315 1.111,-0.644 0.012,-0.107 0.021,-0.379 0.022,-0.653 10e-4,-0.274 -0.01,-0.546 -0.022,-0.653 -0.037,-0.329 0.092,-0.644 -1.111,-0.644 z m -2.138,1.055 a 2.285,2.285 0 0 1 -0.007,0.155 c -0.019,0.165 0,0.242 -0.474,0.242 -0.474,0 -0.456,-0.078 -0.474,-0.242 a 11.162,11.162 0 0 1 0,-0.968 c 0.019,-0.165 0,-0.242 0.474,-0.242 0.474,0 0.456,0.078 0.474,0.242 0.003,0.022 0.005,0.087 0.007,0.164 h 0.649 a 4.827,4.827 0 0 0 -0.018,-0.334 c -0.037,-0.329 0.092,-0.644 -1.111,-0.644 -1.203,0 -1.073,0.315 -1.111,0.644 a 7.369,7.369 0 0 0 -0.022,0.653 c 10e-4,0.274 0.01,0.546 0.022,0.653 0.037,0.329 -0.092,0.644 1.111,0.644 1.203,0 1.073,-0.315 1.111,-0.644 0.007,-0.063 0.013,-0.181 0.017,-0.324 z m 8.366,0.35 h -0.384 v -0.566 l 0.384,-0.002 c 0.474,0 0.46,-0.078 0.478,-0.242 0.006,-0.054 0.005,-0.01 0.004,-0.147 -10e-4,-0.137 0.002,-0.09 -0.004,-0.144 -0.019,-0.165 -0.004,-0.242 -0.478,-0.242 l -0.384,10e-4 10e-4,1.908 h -0.634 v -2.481 h 1.018 c 1.203,0 1.071,0.316 1.116,0.644 0.005,0.039 0.005,0.218 0.005,0.315 0,0.078 0,0.257 -0.005,0.314 -0.032,0.33 0.086,0.642 -1.117,0.642 z m -12.315,9.918 -3.964,-0.005 a 1.038,1.038 0 0 1 -1.038,-1.038 v -6.033 c 0,-0.574 0.465,-1.038 1.038,-1.038 l 2.481,-0.003 a 0.539,0.539 0 0 0 0.539,-0.539 l 0.007,-2.412 c 0,-0.125 0.101,-0.226 0.226,-0.226 h 1.454 c 0.125,0 0.226,0.101 0.226,0.226 l 0.015,10.844 a 0.226,0.226 0 0 1 -0.226,0.226 l -0.758,-0.002 -0.018,0.539 h 0.992 a 0.539,0.539 0 0 0 0.539,-0.539 v -11.299 a 0.54,0.54 0 0 0 -0.539,-0.539 h -1.908 a 0.54,0.54 0 0 0 -0.539,0.539 l 0.003,2.418 a 0.226,0.226 0 0 1 -0.226,0.226 l -2.266,-0.004 c -0.874,0 -1.583,0.709 -1.583,1.583 v 6.033 c 0,0.874 0.709,1.583 1.583,1.583 l 3.945,-0.001 z"
       id="path28"
       inkscape:connector-curvature="0"
       style="fill:#828282" />
    <path
       d="m 757.758,466.647 v -3.903 a 0.592,0.592 0 1 0 -1.184,0 v 4.213 a 0.592,0.592 0 1 0 1.184,0 v -0.31 l 0.538,0.018 v 0.292 a 1.131,1.131 0 0 1 -2.262,0 v -4.213 a 1.131,1.131 0 0 1 2.262,0 v 3.922 z m 5.242,2.221 h -0.742 a 0.226,0.226 0 0 1 -0.226,-0.226 l 0.009,-7.658 c 0,-0.125 0.101,-0.226 0.226,-0.226 h 1.454 c 0.125,0 0.226,0.101 0.226,0.226 l 0.015,7.658 a 0.226,0.226 0 0 1 -0.226,0.226 H 763 v 0.537 l 0.951,0.001 a 0.539,0.539 0 0 0 0.539,-0.539 v -8.112 a 0.54,0.54 0 0 0 -0.539,-0.539 h -1.908 a 0.54,0.54 0 0 0 -0.539,0.539 l -10e-4,8.11 c 0,0.298 0.24,0.54 0.538,0.54 l 0.96,0.001 v -0.538 z m 6.851,-6.603 -1.598,-0.002 a 0.89,0.89 0 0 0 0,1.78 l 2.189,0.006 c 0.573,0 1.038,0.465 1.038,1.038 l -0.007,2.725 c 0,0.574 -0.465,1.038 -1.038,1.038 l -4.345,0.008 a 0.226,0.226 0 0 1 -0.226,-0.226 v -1.055 c 0,-0.125 0.101,-0.226 0.226,-0.226 l 2.961,-0.01 a 0.89,0.89 0 0 0 0,-1.78 l -2.144,-0.008 a 1.038,1.038 0 0 1 -1.038,-1.038 v -2.722 c 0,-0.574 0.465,-1.038 1.038,-1.038 l 4.028,-0.019 c 0.125,0 0.226,0.101 0.226,0.226 v 1.079 a 0.226,0.226 0 0 1 -0.226,0.226 l -1.084,-0.002 -0.018,0.531 h 1.325 c 0.298,0 0.539,-0.24 0.539,-0.538 l 0.002,-1.512 a 0.539,0.539 0 0 0 -0.539,-0.539 l -4.252,0.002 c -0.874,0 -1.583,0.709 -1.583,1.583 v 2.722 c 0,0.874 0.709,1.583 1.583,1.583 l 2.144,-0.004 a 0.358,0.358 0 1 1 0,0.716 l -3.192,-0.001 a 0.54,0.54 0 0 0 -0.539,0.539 v 1.509 a 0.54,0.54 0 0 0 0.539,0.539 l 4.576,-10e-4 c 0.874,0 1.583,-0.709 1.583,-1.583 l 0.007,-2.725 c 0,-0.874 -0.709,-1.583 -1.583,-1.583 l -2.189,0.006 a 0.358,0.358 0 1 1 0,-0.716 h 1.579 z m 8.052,1.497 h 0.686 a 0.226,0.226 0 0 0 0.226,-0.226 l -0.003,-1.744 c 0,-0.574 -0.465,-1.038 -1.038,-1.038 h -3.433 c -0.574,0 -1.039,0.465 -1.039,1.038 v 6.033 c 0,0.573 0.465,1.038 1.039,1.038 h 3.433 c 0.574,0 1.038,-0.465 1.038,-1.038 l 0.003,-1.658 a 0.226,0.226 0 0 0 -0.226,-0.226 h -1.295 a 0.226,0.226 0 0 0 -0.226,0.226 l 0.007,0.791 c 0,0.624 -0.393,1.131 -1.018,1.131 -0.625,0 -1.018,-0.506 -1.018,-1.131 v -4.213 c 0,-0.624 0.393,-1.131 1.018,-1.131 0.624,0 1.018,0.506 1.018,1.131 l -0.007,0.792 c 0,0.125 0.101,0.226 0.226,0.226 h 0.609 l -0.018,0.544 h -0.815 a 0.54,0.54 0 0 1 -0.539,-0.539 l 0.007,-1.022 c 0,-0.327 -0.152,-0.592 -0.479,-0.592 -0.327,0 -0.479,0.265 -0.479,0.592 v 4.213 c 0,0.327 0.152,0.592 0.479,0.592 0.327,0 0.479,-0.265 0.479,-0.592 l -0.007,-1.021 a 0.54,0.54 0 0 1 0.539,-0.539 h 1.749 a 0.54,0.54 0 0 1 0.539,0.539 l -10e-4,1.889 c 0,0.874 -0.709,1.583 -1.583,1.583 h -3.433 a 1.583,1.583 0 0 1 -1.583,-1.583 v -6.033 c 0,-0.874 0.709,-1.583 1.583,-1.583 h 3.433 c 0.874,0 1.583,0.709 1.583,1.583 l 10e-4,1.974 a 0.54,0.54 0 0 1 -0.539,0.539 h -0.934 z"
       id="path30"
       inkscape:connector-curvature="0"
       style="fill:#828282" />
  </g>
  <g
     id="g36"
     style="fill:#a8a8a8">
    <path
       d="m 673.412,373.983 1.005,2.679 1.009,-2.679 h 0.581 v 3.188 h -0.402 v -2.653 h -0.009 l -0.996,2.653 h -0.361 l -0.996,-2.653 h -0.009 v 2.653 h -0.402 v -3.188 z m 4.546,0 1.246,3.188 h -0.469 l -0.349,-0.96 h -1.349 l -0.357,0.96 h -0.434 l 1.242,-3.188 z m 0.295,1.871 -0.532,-1.487 h -0.009 l -0.54,1.487 z m 2.269,-1.871 c 0.491,0 0.869,0.125 1.134,0.375 0.266,0.25 0.397,0.631 0.397,1.143 0,0.268 -0.029,0.505 -0.089,0.712 -0.06,0.207 -0.152,0.381 -0.277,0.522 -0.125,0.142 -0.284,0.25 -0.478,0.324 a 1.9,1.9 0 0 1 -0.688,0.112 h -1.095 v -3.188 z m 0.035,2.831 c 0.048,0 0.107,-0.003 0.179,-0.011 a 1.013,1.013 0 0 0 0.467,-0.176 c 0.079,-0.054 0.149,-0.126 0.212,-0.219 0.063,-0.093 0.114,-0.208 0.154,-0.346 0.04,-0.138 0.061,-0.306 0.061,-0.502 0,-0.19 -0.019,-0.361 -0.056,-0.511 -0.037,-0.15 -0.099,-0.278 -0.184,-0.384 a 0.81,0.81 0 0 0 -0.328,-0.241 1.306,1.306 0 0 0 -0.495,-0.083 h -0.715 v 2.474 h 0.705 z m 4.127,-2.831 v 0.357 h -1.777 v 1.014 h 1.657 v 0.357 h -1.657 v 1.103 h 1.791 v 0.357 h -2.216 v -3.188 z m 2.032,0 v 3.188 h -0.425 v -3.188 z m 1.071,0 1.68,2.585 h 0.009 v -2.585 h 0.401 v 3.188 h -0.464 l -1.666,-2.559 h -0.009 v 2.559 h -0.402 v -3.188 z m 5.415,2.71 a 0.727,0.727 0 0 1 -0.446,0.475 1.201,1.201 0 0 1 -0.449,0.074 c -0.298,0 -0.527,-0.078 -0.688,-0.234 -0.161,-0.156 -0.241,-0.386 -0.241,-0.69 v -0.196 h 0.424 v 0.134 c 0,0.092 0.008,0.177 0.022,0.254 0.015,0.078 0.041,0.145 0.078,0.201 0.037,0.056 0.09,0.101 0.156,0.132 a 0.612,0.612 0 0 0 0.257,0.047 c 0.193,0 0.327,-0.052 0.399,-0.156 a 0.719,0.719 0 0 0 0.11,-0.42 v -2.331 h 0.424 v 2.394 c 10e-4,0.106 -0.014,0.212 -0.046,0.316 z m 1.99,-2.71 1.246,3.188 h -0.469 l -0.349,-0.96 h -1.349 l -0.357,0.96 h -0.433 l 1.241,-3.188 z m 0.295,1.871 -0.531,-1.487 h -0.009 l -0.541,1.487 z m 2.572,-1.871 c 0.321,0 0.564,0.083 0.73,0.248 0.165,0.166 0.247,0.397 0.247,0.694 0,0.298 -0.082,0.53 -0.247,0.697 -0.166,0.167 -0.409,0.249 -0.73,0.246 h -0.974 v 1.304 h -0.425 v -3.188 h 1.399 z m -0.144,1.527 c 0.241,0.003 0.418,-0.046 0.529,-0.147 0.112,-0.101 0.168,-0.247 0.168,-0.438 0,-0.19 -0.056,-0.335 -0.168,-0.435 -0.111,-0.1 -0.288,-0.15 -0.529,-0.15 h -0.83 v 1.17 z m 2.555,-1.527 1.246,3.188 h -0.469 l -0.349,-0.96 h -1.349 l -0.357,0.96 h -0.433 L 700,373.983 Z m 0.295,1.871 -0.531,-1.487 h -0.009 l -0.541,1.487 z m 1.621,-1.871 1.68,2.585 h 0.009 v -2.585 h 0.401 v 3.188 h -0.464 l -1.666,-2.559 h -0.009 v 2.559 h -0.402 v -3.188 z m -24.441,5.793 1.431,3.826 h -0.873 l -0.29,-0.852 h -1.431 l -0.3,0.852 h -0.847 l 1.446,-3.826 z m 0.048,2.347 -0.481,-1.404 h -0.011 l -0.499,1.404 z m 3.259,-2.347 c 0.247,0 0.477,0.039 0.688,0.118 0.213,0.079 0.396,0.197 0.553,0.354 0.155,0.157 0.276,0.354 0.364,0.59 a 2.4,2.4 0 0 1 0.131,0.831 c 0,0.279 -0.035,0.536 -0.107,0.771 a 1.689,1.689 0 0 1 -0.324,0.611 1.524,1.524 0 0 1 -0.541,0.404 1.82,1.82 0 0 1 -0.764,0.147 h -1.65 v -3.826 z m -0.058,3.118 c 0.121,0 0.239,-0.02 0.354,-0.059 a 0.786,0.786 0 0 0 0.306,-0.196 c 0.089,-0.091 0.16,-0.21 0.214,-0.356 0.054,-0.146 0.081,-0.325 0.081,-0.536 0,-0.193 -0.02,-0.367 -0.057,-0.523 a 1.05,1.05 0 0 0 -0.185,-0.399 0.818,0.818 0 0 0 -0.341,-0.255 1.356,1.356 0 0 0 -0.522,-0.088 h -0.601 v 2.412 z m 4.726,-2.098 c -0.051,-0.08 -0.112,-0.151 -0.188,-0.211 a 0.894,0.894 0 0 0 -0.553,-0.193 0.98,0.98 0 0 0 -0.481,0.11 0.902,0.902 0 0 0 -0.322,0.294 1.317,1.317 0 0 0 -0.18,0.421 c -0.037,0.157 -0.056,0.32 -0.056,0.488 0,0.161 0.019,0.317 0.056,0.469 0.038,0.152 0.098,0.289 0.18,0.41 0.082,0.121 0.189,0.219 0.322,0.292 0.132,0.073 0.293,0.11 0.481,0.11 0.258,0 0.459,-0.079 0.604,-0.236 0.145,-0.157 0.233,-0.364 0.265,-0.622 h 0.815 a 1.913,1.913 0 0 1 -0.167,0.648 1.502,1.502 0 0 1 -0.869,0.804 1.89,1.89 0 0 1 -0.648,0.107 c -0.293,0 -0.556,-0.051 -0.79,-0.153 a 1.685,1.685 0 0 1 -0.592,-0.421 c -0.161,-0.179 -0.284,-0.388 -0.37,-0.629 -0.086,-0.241 -0.129,-0.501 -0.129,-0.78 0,-0.286 0.043,-0.551 0.129,-0.796 0.086,-0.245 0.209,-0.458 0.37,-0.641 0.16,-0.182 0.357,-0.325 0.592,-0.429 0.234,-0.104 0.497,-0.155 0.79,-0.155 0.211,0 0.41,0.03 0.598,0.091 0.188,0.061 0.355,0.149 0.504,0.265 0.149,0.116 0.271,0.26 0.367,0.431 0.097,0.172 0.157,0.368 0.183,0.59 h -0.814 a 0.707,0.707 0 0 0 -0.097,-0.264 z m 3.06,-1.02 c 0.247,0 0.477,0.039 0.688,0.118 0.213,0.079 0.396,0.197 0.553,0.354 0.155,0.157 0.276,0.354 0.364,0.59 a 2.4,2.4 0 0 1 0.131,0.831 c 0,0.279 -0.035,0.536 -0.107,0.771 a 1.689,1.689 0 0 1 -0.324,0.611 1.524,1.524 0 0 1 -0.541,0.404 1.82,1.82 0 0 1 -0.764,0.147 h -1.65 v -3.826 z m -0.059,3.118 c 0.121,0 0.239,-0.02 0.354,-0.059 a 0.786,0.786 0 0 0 0.306,-0.196 c 0.089,-0.091 0.16,-0.21 0.214,-0.356 0.054,-0.146 0.081,-0.325 0.081,-0.536 0,-0.193 -0.02,-0.367 -0.057,-0.523 a 1.05,1.05 0 0 0 -0.185,-0.399 0.818,0.818 0 0 0 -0.341,-0.255 1.356,1.356 0 0 0 -0.522,-0.088 h -0.601 v 2.412 z m 3.799,-1.082 v 0.654 h -1.612 v -0.654 z m 0.399,-1.021 c 0.073,-0.248 0.173,-0.447 0.298,-0.597 0.125,-0.15 0.271,-0.257 0.437,-0.322 0.166,-0.065 0.343,-0.096 0.528,-0.096 0.189,0 0.367,0.032 0.533,0.096 0.166,0.064 0.313,0.171 0.439,0.322 0.127,0.15 0.227,0.349 0.3,0.597 0.073,0.249 0.11,0.555 0.11,0.919 0,0.375 -0.037,0.688 -0.11,0.94 -0.073,0.252 -0.173,0.453 -0.3,0.603 -0.127,0.15 -0.273,0.257 -0.439,0.321 -0.166,0.064 -0.344,0.097 -0.533,0.097 -0.186,0 -0.362,-0.032 -0.528,-0.097 -0.166,-0.065 -0.312,-0.171 -0.437,-0.321 -0.125,-0.15 -0.225,-0.351 -0.298,-0.603 -0.073,-0.252 -0.109,-0.565 -0.109,-0.94 0,-0.364 0.036,-0.671 0.109,-0.919 z m 0.662,1.308 c 0.008,0.152 0.029,0.298 0.067,0.439 a 0.92,0.92 0 0 0 0.18,0.362 c 0.082,0.1 0.199,0.15 0.354,0.15 0.157,0 0.277,-0.05 0.361,-0.15 0.084,-0.1 0.145,-0.22 0.183,-0.362 a 2.05,2.05 0 0 0 0.066,-0.439 c 0.008,-0.152 0.011,-0.281 0.011,-0.388 l -0.002,-0.233 a 2.545,2.545 0 0 0 -0.075,-0.568 0.921,0.921 0 0 0 -0.104,-0.254 0.584,0.584 0 0 0 -0.177,-0.183 c -0.071,-0.046 -0.159,-0.069 -0.263,-0.069 -0.104,0 -0.19,0.023 -0.26,0.069 a 0.56,0.56 0 0 0 -0.172,0.183 c -0.045,0.075 -0.079,0.16 -0.104,0.254 -0.025,0.094 -0.043,0.19 -0.054,0.287 -0.011,0.097 -0.017,0.19 -0.019,0.281 l -0.003,0.233 c 10e-4,0.106 0.005,0.236 0.011,0.388 z m 2.21,-1.308 c 0.073,-0.248 0.173,-0.447 0.298,-0.597 0.125,-0.15 0.271,-0.257 0.437,-0.322 0.166,-0.065 0.343,-0.096 0.528,-0.096 0.189,0 0.367,0.032 0.533,0.096 0.166,0.064 0.313,0.171 0.439,0.322 0.127,0.15 0.227,0.349 0.3,0.597 0.073,0.249 0.11,0.555 0.11,0.919 0,0.375 -0.037,0.688 -0.11,0.94 -0.073,0.252 -0.173,0.453 -0.3,0.603 -0.127,0.15 -0.273,0.257 -0.439,0.321 -0.166,0.064 -0.344,0.097 -0.533,0.097 -0.186,0 -0.362,-0.032 -0.528,-0.097 -0.166,-0.065 -0.312,-0.171 -0.437,-0.321 -0.125,-0.15 -0.225,-0.351 -0.298,-0.603 -0.073,-0.252 -0.109,-0.565 -0.109,-0.94 0,-0.364 0.036,-0.671 0.109,-0.919 z m 0.663,1.308 c 0.008,0.152 0.029,0.298 0.067,0.439 a 0.92,0.92 0 0 0 0.18,0.362 c 0.082,0.1 0.199,0.15 0.354,0.15 0.157,0 0.277,-0.05 0.361,-0.15 0.084,-0.1 0.145,-0.22 0.183,-0.362 a 2.05,2.05 0 0 0 0.066,-0.439 c 0.008,-0.152 0.011,-0.281 0.011,-0.388 l -0.002,-0.233 a 2.545,2.545 0 0 0 -0.075,-0.568 0.921,0.921 0 0 0 -0.104,-0.254 0.584,0.584 0 0 0 -0.177,-0.183 c -0.071,-0.046 -0.159,-0.069 -0.263,-0.069 -0.104,0 -0.19,0.023 -0.26,0.069 a 0.56,0.56 0 0 0 -0.172,0.183 c -0.045,0.075 -0.079,0.16 -0.104,0.254 -0.025,0.094 -0.043,0.19 -0.054,0.287 -0.011,0.097 -0.017,0.19 -0.019,0.281 l -0.003,0.233 c 0,0.106 0.004,0.236 0.011,0.388 z m 3.472,-0.732 a 0.793,0.793 0 0 0 0.26,-0.062 0.508,0.508 0 0 0 0.199,-0.147 0.396,0.396 0 0 0 0.077,-0.257 0.447,0.447 0 0 0 -0.161,-0.37 0.573,0.573 0 0 0 -0.369,-0.128 c -0.193,0 -0.339,0.063 -0.437,0.19 a 0.737,0.737 0 0 0 -0.143,0.48 h -0.724 a 1.63,1.63 0 0 1 0.104,-0.528 1.167,1.167 0 0 1 0.668,-0.675 c 0.156,-0.063 0.332,-0.094 0.524,-0.094 0.15,0 0.301,0.022 0.45,0.067 0.15,0.044 0.285,0.112 0.405,0.201 0.119,0.089 0.217,0.198 0.292,0.327 a 0.865,0.865 0 0 1 0.112,0.445 0.883,0.883 0 0 1 -0.132,0.482 0.659,0.659 0 0 1 -0.394,0.284 v 0.011 c 0.207,0.046 0.37,0.146 0.488,0.3 a 0.885,0.885 0 0 1 0.177,0.552 c 0,0.197 -0.039,0.372 -0.115,0.525 -0.077,0.154 -0.18,0.282 -0.309,0.386 -0.129,0.104 -0.276,0.182 -0.444,0.236 -0.168,0.054 -0.344,0.081 -0.525,0.081 -0.211,0 -0.403,-0.031 -0.576,-0.091 -0.174,-0.061 -0.321,-0.149 -0.442,-0.265 -0.121,-0.116 -0.215,-0.258 -0.281,-0.426 -0.066,-0.168 -0.098,-0.361 -0.094,-0.579 h 0.724 c 0.003,0.1 0.02,0.196 0.048,0.287 0.028,0.091 0.07,0.17 0.123,0.236 a 0.591,0.591 0 0 0 0.488,0.217 0.63,0.63 0 0 0 0.434,-0.158 0.55,0.55 0 0 0 0.177,-0.432 c 0,-0.143 -0.027,-0.252 -0.083,-0.327 a 0.486,0.486 0 0 0 -0.211,-0.164 0.879,0.879 0 0 0 -0.281,-0.059 6.023,6.023 0 0 0 -0.293,-0.008 v -0.536 c 0.084,0.006 0.171,0.006 0.264,-10e-4 z"
       id="path34"
       inkscape:connector-curvature="0" />
  </g>
  <g
     id="g90">
    <g
       id="g40"
       style="fill:#0e080c">
      <path
         d="m 294.25,7.167 h -4.5 V 0.354 C 289.75,0.159 289.909,0 290.104,0 h 3.792 c 0.195,0 0.354,0.159 0.354,0.354 z m 8.563,0 h -4.5 V 0.354 C 298.313,0.159 298.472,0 298.667,0 h 3.792 c 0.195,0 0.354,0.159 0.354,0.354 z m 8.562,0 h -4.5 V 0.354 C 306.875,0.159 307.034,0 307.229,0 h 3.792 c 0.195,0 0.354,0.159 0.354,0.354 z m 8.563,0 h -4.5 V 0.354 C 315.438,0.159 315.597,0 315.792,0 h 3.792 c 0.195,0 0.354,0.159 0.354,0.354 z m 8.562,0 H 324 V 0.354 C 324,0.159 324.159,0 324.354,0 h 3.792 c 0.195,0 0.354,0.159 0.354,0.354 z m 8.563,0 h -4.5 V 0.354 C 332.563,0.159 332.722,0 332.917,0 h 3.792 c 0.195,0 0.354,0.159 0.354,0.354 z m 8.562,0 h -4.5 V 0.354 C 341.125,0.159 341.284,0 341.479,0 h 3.792 c 0.195,0 0.354,0.159 0.354,0.354 z m 8.563,0 h -4.5 V 0.354 C 349.688,0.159 349.847,0 350.042,0 h 3.792 c 0.195,0 0.354,0.159 0.354,0.354 z m 8.562,0 h -4.5 V 0.354 C 358.25,0.159 358.409,0 358.604,0 h 3.792 c 0.195,0 0.354,0.159 0.354,0.354 z m 8.563,0 h -4.5 V 0.354 C 366.813,0.159 366.972,0 367.167,0 h 3.792 c 0.195,0 0.354,0.159 0.354,0.354 z m 8.562,0 h -4.5 V 0.354 C 375.375,0.159 375.534,0 375.729,0 h 3.792 c 0.195,0 0.354,0.159 0.354,0.354 z m 8.563,0 h -4.5 V 0.354 C 383.938,0.159 384.097,0 384.292,0 h 3.792 c 0.195,0 0.354,0.159 0.354,0.354 z m 8.562,0 h -4.5 V 0.354 C 392.5,0.159 392.659,0 392.854,0 h 3.792 C 396.841,0 397,0.159 397,0.354 Z m 8.563,0 h -4.5 V 0.354 C 401.063,0.159 401.222,0 401.417,0 h 3.792 c 0.195,0 0.354,0.159 0.354,0.354 z m 8.562,0 h -4.5 V 0.354 C 409.625,0.159 409.784,0 409.979,0 h 3.792 c 0.195,0 0.354,0.159 0.354,0.354 z m 8.563,0 h -4.5 V 0.354 C 418.188,0.159 418.347,0 418.542,0 h 3.792 c 0.195,0 0.354,0.159 0.354,0.354 z m 8.562,0 h -4.5 V 0.354 C 426.75,0.159 426.909,0 427.104,0 h 3.792 c 0.195,0 0.354,0.159 0.354,0.354 z m 8.563,0 h -4.5 V 0.354 C 435.313,0.159 435.472,0 435.667,0 h 3.792 c 0.195,0 0.354,0.159 0.354,0.354 z m 8.562,0 h -4.5 V 0.354 C 443.875,0.159 444.034,0 444.229,0 h 3.792 c 0.195,0 0.354,0.159 0.354,0.354 z m 8.563,0 h -4.5 V 0.354 C 452.438,0.159 452.597,0 452.792,0 h 3.792 c 0.195,0 0.354,0.159 0.354,0.354 z m 8.562,0 H 461 V 0.354 C 461,0.159 461.159,0 461.354,0 h 3.792 c 0.195,0 0.354,0.159 0.354,0.354 z m -184.312,0 h 4.5 V 0.354 A 0.355,0.355 0 0 0 285.334,0 h -3.792 a 0.355,0.355 0 0 0 -0.354,0.354 z m -8.563,0 h 4.5 V 0.354 A 0.355,0.355 0 0 0 276.771,0 h -3.792 a 0.355,0.355 0 0 0 -0.354,0.354 z m -8.562,0 h 4.5 V 0.354 A 0.355,0.355 0 0 0 268.209,0 h -3.792 a 0.355,0.355 0 0 0 -0.354,0.354 z m -8.563,0 H 260 V 0.354 A 0.355,0.355 0 0 0 259.646,0 h -3.792 A 0.355,0.355 0 0 0 255.5,0.354 Z m -8.562,0 h 4.5 V 0.354 A 0.355,0.355 0 0 0 251.084,0 h -3.792 a 0.355,0.355 0 0 0 -0.354,0.354 z m -8.563,0 h 4.5 V 0.354 A 0.355,0.355 0 0 0 242.521,0 h -3.792 a 0.355,0.355 0 0 0 -0.354,0.354 z m -8.562,0 h 4.5 V 0.354 A 0.355,0.355 0 0 0 233.959,0 h -3.792 a 0.355,0.355 0 0 0 -0.354,0.354 z m -8.563,0 h 4.5 V 0.354 A 0.355,0.355 0 0 0 225.396,0 h -3.792 a 0.355,0.355 0 0 0 -0.354,0.354 z m -8.562,0 h 4.5 V 0.354 A 0.355,0.355 0 0 0 216.834,0 h -3.792 a 0.355,0.355 0 0 0 -0.354,0.354 z m -8.563,0 h 4.5 V 0.354 A 0.355,0.355 0 0 0 208.271,0 h -3.792 a 0.355,0.355 0 0 0 -0.354,0.354 z m -8.562,0 h 4.5 V 0.354 A 0.355,0.355 0 0 0 199.709,0 h -3.792 a 0.355,0.355 0 0 0 -0.354,0.354 z m -8.563,0 h 4.5 V 0.354 A 0.355,0.355 0 0 0 191.146,0 h -3.792 A 0.355,0.355 0 0 0 187,0.354 Z m -8.562,0 h 4.5 V 0.354 A 0.355,0.355 0 0 0 182.584,0 h -3.792 a 0.355,0.355 0 0 0 -0.354,0.354 z m -8.563,0 h 4.5 V 0.354 A 0.355,0.355 0 0 0 174.021,0 h -3.792 a 0.355,0.355 0 0 0 -0.354,0.354 z m -8.562,0 h 4.5 V 0.354 A 0.355,0.355 0 0 0 165.459,0 h -3.792 a 0.355,0.355 0 0 0 -0.354,0.354 z m -8.563,0 h 4.5 V 0.354 A 0.355,0.355 0 0 0 156.896,0 h -3.792 a 0.355,0.355 0 0 0 -0.354,0.354 z m -8.562,0 h 4.5 V 0.354 A 0.355,0.355 0 0 0 148.334,0 h -3.792 a 0.355,0.355 0 0 0 -0.354,0.354 z m -8.563,0 h 4.5 V 0.354 A 0.355,0.355 0 0 0 139.771,0 h -3.792 a 0.355,0.355 0 0 0 -0.354,0.354 z m -8.562,0 h 4.5 V 0.354 A 0.355,0.355 0 0 0 131.209,0 h -3.792 a 0.355,0.355 0 0 0 -0.354,0.354 z m -8.563,0 H 123 V 0.354 A 0.355,0.355 0 0 0 122.646,0 h -3.792 A 0.355,0.355 0 0 0 118.5,0.354 Z"
         id="path38"
         inkscape:connector-curvature="0" />
    </g>
    <path
       d="m 0,441.198 c 0,20.975 17.161,38.135 38.135,38.135 h 507.729 c 20.974,0 38.135,-17.161 38.135,-38.135 V 46.667 C 584,21 563,0 537.333,0 H 470.396 A 0.396,0.396 0 0 0 470,0.396 v 6.375 a 0.396,0.396 0 0 1 -0.396,0.396 H 114.405 A 0.405,0.405 0 0 1 114,6.762 V 0.402 A 0.402,0.402 0 0 0 113.598,0 H 46.667 C 21,0 0,21 0,46.667 Z"
       id="path42"
       inkscape:connector-curvature="0"
       style="fill:#141312" />
    <path
       d="m 8.253,427.198 c 0,20.975 16.676,38.135 37.057,38.135 h 493.378 c 20.382,0 37.057,-17.161 37.057,-38.135 V 56.12 c 0,-24.275 -20.406,-44.137 -45.348,-44.137 H 53.601 C 28.66,11.983 8.253,31.845 8.253,56.12 Z"
       id="path44"
       inkscape:connector-curvature="0"
       style="fill:#1c1a19" />
    <ellipse
       cx="100.438"
       cy="471.896"
       rx="12.812"
       ry="2.375"
       id="ellipse46"
       style="fill:#f9673d" />
    <path
       d="M 488.087,390.493 H 95.913 c -8.019,0 -14.58,-6.561 -14.58,-14.58 V 11.983 h 421.333 v 363.93 c 10e-4,8.019 -6.56,14.58 -14.579,14.58 z"
       id="path48"
       inkscape:connector-curvature="0"
       style="fill:#232221" />
    <path
       d="m 502.667,11.983 v 363.93 c 0,8.019 -6.561,14.58 -14.58,14.58 H 95.913 c -8.019,0 -14.58,-6.561 -14.58,-14.58 V 11.983"
       stroke-miterlimit="10"
       id="path50"
       inkscape:connector-curvature="0"
       style="fill:none;stroke:#0a090a;stroke-width:2;stroke-miterlimit:10" />
    <path
       d="M 91.167,370.436 V 31.333 a 5.5,5.5 0 0 1 5.5,-5.5 h 390.667 a 5.5,5.5 0 0 1 5.5,5.5 v 339.103 c 0,5.532 -4.526,10.057 -10.057,10.057 H 101.224 c -5.532,0 -10.057,-4.525 -10.057,-10.057 z"
       id="path52"
       inkscape:connector-curvature="0"
       style="fill:#1e1c1b" />
    <path
       d="m 262,229.333 v -47 a 6.5,6.5 0 0 1 6.5,-6.5 h 47 a 6.5,6.5 0 0 1 6.5,6.5 v 47 a 6.5,6.5 0 0 1 -6.5,6.5 h -47 a 6.5,6.5 0 0 1 -6.5,-6.5 z"
       id="path54"
       inkscape:connector-curvature="0"
       style="fill:#343538" />
    <path
       d="m 268.5,231.833 a 2.503,2.503 0 0 1 -2.5,-2.5 v -47 c 0,-1.379 1.122,-2.5 2.5,-2.5 h 47 c 1.378,0 2.5,1.121 2.5,2.5 v 47 c 0,1.379 -1.122,2.5 -2.5,2.5 z"
       id="path56"
       inkscape:connector-curvature="0"
       style="fill:#bfb59a" />
    <path
       d="m 270.369,218.867 0.906,3.35 h -0.341 l -0.253,-1.008 h -0.98 l -0.26,1.008 h -0.315 l 0.902,-3.35 z m 0.215,1.967 -0.386,-1.563 h -0.006 l -0.393,1.563 z m 1.713,-1.967 c 0.357,0 0.632,0.132 0.825,0.394 0.193,0.263 0.289,0.664 0.289,1.202 0,0.28 -0.022,0.53 -0.065,0.747 a 1.715,1.715 0 0 1 -0.201,0.55 0.94,0.94 0 0 1 -0.348,0.339 1.005,1.005 0 0 1 -0.5,0.118 h -0.795 v -3.35 z m 0.026,2.975 a 0.585,0.585 0 0 0 0.296,-0.068 0.695,0.695 0 0 0 0.173,-0.128 0.808,0.808 0 0 0 0.154,-0.23 c 0.045,-0.098 0.083,-0.218 0.112,-0.365 0.029,-0.145 0.044,-0.32 0.044,-0.527 0,-0.2 -0.014,-0.379 -0.041,-0.537 -0.027,-0.158 -0.071,-0.293 -0.133,-0.404 -0.062,-0.111 -0.141,-0.195 -0.238,-0.253 a 0.706,0.706 0 0 0 -0.36,-0.088 h -0.519 v 2.6 z m 2.025,0.375 -0.815,-3.35 h 0.331 l 0.662,2.905 h 0.006 l 0.668,-2.905 h 0.322 l -0.825,3.35 z m 2.242,-3.35 0.906,3.35 h -0.341 l -0.253,-1.008 h -0.98 l -0.26,1.008 h -0.315 l 0.902,-3.35 z m 0.215,1.967 -0.386,-1.563 h -0.006 l -0.393,1.563 z m 1.243,-1.967 1.22,2.716 h 0.006 v -2.716 h 0.292 v 3.35 h -0.338 l -1.21,-2.688 h -0.006 v 2.688 h -0.292 v -3.35 z m 3.419,0.474 a 0.571,0.571 0 0 0 -0.42,-0.178 0.57,0.57 0 0 0 -0.356,0.112 0.86,0.86 0 0 0 -0.243,0.303 1.603,1.603 0 0 0 -0.141,0.434 c -0.03,0.162 -0.046,0.332 -0.046,0.507 0,0.191 0.016,0.371 0.046,0.542 0.03,0.171 0.077,0.319 0.141,0.445 a 0.864,0.864 0 0 0 0.245,0.303 c 0.1,0.075 0.219,0.112 0.357,0.112 a 0.514,0.514 0 0 0 0.272,-0.072 0.682,0.682 0 0 0 0.205,-0.203 c 0.057,-0.086 0.102,-0.188 0.135,-0.307 0.032,-0.118 0.052,-0.247 0.057,-0.385 h 0.307 c -0.029,0.422 -0.129,0.751 -0.302,0.985 a 0.815,0.815 0 0 1 -0.7,0.352 c -0.18,0 -0.336,-0.045 -0.47,-0.134 -0.134,-0.089 -0.246,-0.211 -0.334,-0.368 a 1.907,1.907 0 0 1 -0.2,-0.555 3.307,3.307 0 0 1 -0.067,-0.684 c 0,-0.244 0.024,-0.474 0.072,-0.688 0.047,-0.214 0.117,-0.401 0.209,-0.56 0.092,-0.159 0.207,-0.286 0.344,-0.378 a 0.826,0.826 0 0 1 0.472,-0.138 0.853,0.853 0 0 1 0.633,0.275 c 0.085,0.091 0.155,0.204 0.211,0.34 0.056,0.136 0.093,0.293 0.111,0.471 h -0.309 c -0.036,-0.234 -0.112,-0.412 -0.229,-0.531 z m 2.542,-0.474 v 0.375 h -1.291 v 1.066 h 1.204 v 0.375 h -1.204 v 1.159 h 1.302 v 0.375 h -1.61 v -3.35 z m 1.178,0 c 0.356,0 0.631,0.132 0.823,0.394 0.192,0.263 0.29,0.664 0.29,1.202 0,0.28 -0.023,0.53 -0.066,0.747 a 1.647,1.647 0 0 1 -0.201,0.55 0.95,0.95 0 0 1 -0.346,0.339 1.005,1.005 0 0 1 -0.5,0.118 h -0.796 v -3.35 z m 0.026,2.975 a 1,1 0 0 0 0.129,-0.011 0.56,0.56 0 0 0 0.165,-0.057 0.698,0.698 0 0 0 0.328,-0.358 c 0.046,-0.098 0.083,-0.218 0.112,-0.365 0.03,-0.145 0.045,-0.32 0.045,-0.527 0,-0.2 -0.014,-0.379 -0.04,-0.537 -0.027,-0.158 -0.072,-0.293 -0.134,-0.404 -0.062,-0.111 -0.141,-0.195 -0.238,-0.253 a 0.704,0.704 0 0 0 -0.361,-0.088 H 284.7 v 2.6 z"
       id="path58"
       inkscape:connector-curvature="0"
       style="fill:#232226" />
    <g
       id="g62">
      <path
         d="m 282.676,213.451 1.106,2.717 h 0.006 v -2.717 h 0.264 v 3.35 h -0.305 l -1.098,-2.688 h -0.006 v 2.688 h -0.264 v -3.35 z m 3.28,0 v 0.375 h -1.171 v 1.066 h 1.092 v 0.375 h -1.092 v 1.159 h 1.179 v 0.375 h -1.458 v -3.35 z m 0.293,1.016 c 0.042,-0.211 0.105,-0.398 0.19,-0.56 0.085,-0.162 0.19,-0.293 0.315,-0.389 a 0.69,0.69 0 0 1 0.438,-0.145 c 0.167,0 0.313,0.047 0.438,0.145 0.125,0.096 0.23,0.227 0.315,0.389 0.085,0.162 0.148,0.349 0.19,0.56 a 3.45,3.45 0 0 1 0,1.318 2.038,2.038 0 0 1 -0.19,0.56 c -0.085,0.162 -0.19,0.292 -0.315,0.388 a 0.705,0.705 0 0 1 -0.438,0.142 0.703,0.703 0 0 1 -0.438,-0.142 1.158,1.158 0 0 1 -0.315,-0.388 2.072,2.072 0 0 1 -0.19,-0.56 3.296,3.296 0 0 1 -0.063,-0.659 c 0,-0.228 0.02,-0.448 0.063,-0.659 z m 0.257,1.159 c 0.027,0.164 0.07,0.312 0.129,0.444 a 0.889,0.889 0 0 0 0.227,0.316 0.488,0.488 0 0 0 0.329,0.119 c 0.128,0 0.237,-0.04 0.329,-0.119 a 0.901,0.901 0 0 0 0.227,-0.316 c 0.059,-0.132 0.102,-0.28 0.129,-0.444 a 3.067,3.067 0 0 0 0,-1 1.76,1.76 0 0 0 -0.129,-0.442 0.896,0.896 0 0 0 -0.227,-0.317 0.488,0.488 0 0 0 -0.329,-0.119 0.488,0.488 0 0 0 -0.329,0.119 0.884,0.884 0 0 0 -0.227,0.317 1.786,1.786 0 0 0 -0.129,0.442 3.076,3.076 0 0 0 0,1 z"
         id="path60"
         inkscape:connector-curvature="0"
         style="fill:#232226" />
    </g>
    <g
       id="g66">
      <path
         d="m 291.769,216.761 a 0.673,0.673 0 0 1 -0.368,0.115 0.688,0.688 0 0 1 -0.421,-0.138 1.154,1.154 0 0 1 -0.315,-0.373 2.029,2.029 0 0 1 -0.197,-0.539 2.933,2.933 0 0 1 -0.068,-0.634 c 0,-0.244 0.022,-0.477 0.063,-0.697 a 2.22,2.22 0 0 1 0.188,-0.58 1.16,1.16 0 0 1 0.312,-0.396 0.687,0.687 0 0 1 0.437,-0.147 c 0.113,0 0.221,0.02 0.322,0.063 a 0.743,0.743 0 0 1 0.271,0.198 c 0.079,0.092 0.145,0.207 0.2,0.346 0.053,0.138 0.091,0.306 0.111,0.504 h -0.28 a 1.28,1.28 0 0 0 -0.076,-0.332 0.727,0.727 0 0 0 -0.138,-0.227 0.559,0.559 0 0 0 -0.41,-0.179 0.472,0.472 0 0 0 -0.328,0.122 0.879,0.879 0 0 0 -0.224,0.32 1.945,1.945 0 0 0 -0.128,0.455 c -0.027,0.171 -0.04,0.345 -0.04,0.523 0,0.175 0.014,0.343 0.046,0.506 0.032,0.161 0.078,0.303 0.138,0.427 a 0.868,0.868 0 0 0 0.226,0.294 0.465,0.465 0 0 0 0.31,0.111 0.506,0.506 0 0 0 0.292,-0.085 0.72,0.72 0 0 0 0.213,-0.231 1.2,1.2 0 0 0 0.131,-0.348 c 0.03,-0.132 0.043,-0.276 0.039,-0.43 h -0.671 v -0.375 h 0.921 v 1.764 h -0.177 l -0.073,-0.418 a 0.837,0.837 0 0 1 -0.306,0.381 z m 2.418,-3.31 v 0.375 h -1.171 v 1.066 h 1.092 v 0.375 h -1.092 v 1.159 h 1.179 v 0.375 h -1.458 v -3.35 z m 0.292,1.016 c 0.042,-0.211 0.105,-0.398 0.19,-0.56 0.085,-0.162 0.19,-0.293 0.315,-0.389 a 0.69,0.69 0 0 1 0.438,-0.145 c 0.167,0 0.313,0.047 0.438,0.145 0.125,0.096 0.23,0.227 0.315,0.389 0.085,0.162 0.148,0.349 0.19,0.56 a 3.45,3.45 0 0 1 0,1.318 2.038,2.038 0 0 1 -0.19,0.56 c -0.085,0.162 -0.19,0.292 -0.315,0.388 a 0.705,0.705 0 0 1 -0.438,0.142 0.703,0.703 0 0 1 -0.438,-0.142 1.158,1.158 0 0 1 -0.315,-0.388 2.072,2.072 0 0 1 -0.19,-0.56 3.296,3.296 0 0 1 -0.063,-0.659 c 0,-0.228 0.02,-0.448 0.063,-0.659 z m 0.257,1.159 c 0.027,0.164 0.07,0.312 0.129,0.444 a 0.889,0.889 0 0 0 0.227,0.316 0.488,0.488 0 0 0 0.329,0.119 c 0.128,0 0.237,-0.04 0.329,-0.119 a 0.901,0.901 0 0 0 0.227,-0.316 c 0.059,-0.132 0.102,-0.28 0.129,-0.444 a 3.067,3.067 0 0 0 0,-1 1.76,1.76 0 0 0 -0.129,-0.442 0.896,0.896 0 0 0 -0.227,-0.317 0.488,0.488 0 0 0 -0.329,-0.119 0.488,0.488 0 0 0 -0.329,0.119 0.884,0.884 0 0 0 -0.227,0.317 1.786,1.786 0 0 0 -0.129,0.442 3.076,3.076 0 0 0 0,1 z"
         id="path64"
         inkscape:connector-curvature="0"
         style="fill:#232226" />
    </g>
    <g
       id="g70">
      <path
         d="m 298.961,213.925 a 0.494,0.494 0 0 0 -0.381,-0.178 0.484,0.484 0 0 0 -0.322,0.112 c -0.089,0.075 -0.164,0.177 -0.221,0.303 -0.057,0.126 -0.101,0.271 -0.128,0.434 a 3.47,3.47 0 0 0 0,1.049 c 0.027,0.171 0.07,0.319 0.128,0.445 0.058,0.126 0.132,0.228 0.223,0.303 0.09,0.075 0.198,0.112 0.323,0.112 a 0.433,0.433 0 0 0 0.246,-0.072 c 0.072,-0.049 0.134,-0.116 0.185,-0.203 0.051,-0.087 0.092,-0.188 0.122,-0.307 0.029,-0.118 0.047,-0.247 0.053,-0.385 h 0.279 c -0.027,0.422 -0.118,0.751 -0.273,0.985 a 0.72,0.72 0 0 1 -0.635,0.352 0.7,0.7 0 0 1 -0.427,-0.134 1.014,1.014 0 0 1 -0.303,-0.368 2.033,2.033 0 0 1 -0.181,-0.555 3.705,3.705 0 0 1 -0.06,-0.684 c 0,-0.244 0.022,-0.474 0.065,-0.688 0.043,-0.214 0.106,-0.401 0.19,-0.56 0.084,-0.159 0.187,-0.286 0.312,-0.378 a 0.702,0.702 0 0 1 0.428,-0.138 c 0.109,0 0.214,0.023 0.312,0.07 0.098,0.046 0.185,0.115 0.261,0.205 0.076,0.09 0.141,0.204 0.191,0.34 0.052,0.136 0.085,0.293 0.101,0.471 h -0.28 c -0.033,-0.233 -0.102,-0.412 -0.208,-0.531 z m 1.574,-0.474 c 0.323,0 0.573,0.132 0.747,0.394 0.175,0.263 0.261,0.664 0.261,1.202 0,0.28 -0.019,0.53 -0.059,0.747 a 1.794,1.794 0 0 1 -0.181,0.55 0.902,0.902 0 0 1 -0.316,0.339 0.835,0.835 0 0 1 -0.453,0.118 h -0.72 v -3.35 z m 0.025,2.975 a 0.497,0.497 0 0 0 0.267,-0.068 0.636,0.636 0 0 0 0.157,-0.128 0.816,0.816 0 0 0 0.141,-0.23 c 0.04,-0.098 0.075,-0.218 0.101,-0.365 0.027,-0.145 0.04,-0.32 0.04,-0.527 0,-0.2 -0.013,-0.379 -0.037,-0.537 -0.024,-0.158 -0.065,-0.293 -0.121,-0.404 -0.056,-0.111 -0.128,-0.195 -0.215,-0.253 -0.087,-0.058 -0.197,-0.088 -0.326,-0.088 h -0.471 v 2.6 z"
         id="path68"
         inkscape:connector-curvature="0"
         style="fill:#232226" />
    </g>
    <g
       id="g74">
      <path
         d="m 289.553,218.867 v 0.375 h -1.345 v 1.066 h 1.253 v 0.375 h -1.253 v 1.159 h 1.355 v 0.375 h -1.675 v -3.35 z m 0.735,0 1.27,2.716 h 0.006 v -2.716 h 0.305 v 3.35 h -0.351 l -1.26,-2.688 h -0.007 v 2.688 h -0.303 v -3.35 z m 1.843,0.375 v -0.375 h 1.926 v 0.375 h -0.803 v 2.975 h -0.32 v -2.975 z m 3.859,-0.375 v 0.375 h -1.345 v 1.066 h 1.253 v 0.375 h -1.253 v 1.159 H 296 v 0.375 h -1.675 v -3.35 z m 1.531,0 c 0.23,0 0.408,0.079 0.539,0.234 0.129,0.157 0.194,0.371 0.194,0.644 0,0.203 -0.033,0.381 -0.101,0.534 a 0.553,0.553 0 0 1 -0.319,0.315 v 0.01 c 0.07,0.019 0.126,0.049 0.171,0.093 a 0.466,0.466 0 0 1 0.105,0.157 0.883,0.883 0 0 1 0.057,0.204 c 0.012,0.076 0.022,0.154 0.029,0.236 l 0.01,0.249 a 2.297,2.297 0 0 0 0.056,0.48 0.644,0.644 0 0 0 0.075,0.195 h -0.358 a 0.35,0.35 0 0 1 -0.045,-0.141 1.866,1.866 0 0 1 -0.016,-0.2 l -0.007,-0.237 a 3.666,3.666 0 0 0 -0.053,-0.48 0.656,0.656 0 0 0 -0.065,-0.192 0.37,0.37 0 0 0 -0.115,-0.132 0.324,0.324 0 0 0 -0.188,-0.049 h -0.784 v 1.431 h -0.32 v -3.35 h 1.135 z m 0.068,1.52 a 0.408,0.408 0 0 0 0.299,-0.274 0.821,0.821 0 0 0 0.045,-0.297 0.758,0.758 0 0 0 -0.101,-0.414 c -0.068,-0.106 -0.177,-0.159 -0.328,-0.159 h -0.797 v 1.169 h 0.669 a 0.986,0.986 0 0 0 0.213,-0.025 z m 0.794,-1.145 v -0.375 h 1.926 v 0.375 h -0.803 v 2.975 h -0.32 v -2.975 z m 2.892,-0.375 0.941,3.35 h -0.353 l -0.264,-1.008 h -1.019 l -0.27,1.008 h -0.328 l 0.938,-3.35 z m 0.223,1.967 -0.402,-1.563 h -0.006 l -0.409,1.563 z m 1.29,-1.967 v 3.35 h -0.32 v -3.35 z m 0.876,0 1.27,2.716 h 0.006 v -2.716 h 0.305 v 3.35 h -0.351 l -1.26,-2.688 h -0.007 v 2.688 h -0.303 v -3.35 z m 2.546,0 0.76,2.816 0.763,-2.816 h 0.44 v 3.35 h -0.305 v -2.787 h -0.007 l -0.753,2.787 h -0.273 l -0.753,-2.787 h -0.007 v 2.787 h -0.303 v -3.35 z m 4.158,0 v 0.375 h -1.345 v 1.066 h 1.253 v 0.375 h -1.253 v 1.159 h 1.355 v 0.375 h -1.675 v -3.35 z m 0.736,0 1.27,2.716 h 0.006 v -2.716 h 0.305 v 3.35 h -0.351 l -1.26,-2.688 h -0.007 v 2.688 h -0.303 v -3.35 z m 1.843,0.375 v -0.375 h 1.926 v 0.375 h -0.803 v 2.975 h -0.32 v -2.975 z"
         id="path72"
         inkscape:connector-curvature="0"
         style="fill:#232226" />
    </g>
    <g
       id="g78">
      <path
         d="m 286.29,224.933 a 0.545,0.545 0 0 0 -0.409,-0.162 0.753,0.753 0 0 0 -0.2,0.027 0.455,0.455 0 0 0 -0.174,0.095 0.467,0.467 0 0 0 -0.121,0.175 0.688,0.688 0 0 0 -0.046,0.274 c 0,0.103 0.022,0.187 0.066,0.251 a 0.493,0.493 0 0 0 0.175,0.157 c 0.073,0.042 0.155,0.075 0.249,0.102 0.092,0.026 0.185,0.055 0.282,0.086 0.095,0.032 0.19,0.068 0.282,0.111 a 0.788,0.788 0 0 1 0.424,0.442 c 0.043,0.111 0.066,0.247 0.066,0.414 0,0.178 -0.029,0.33 -0.086,0.457 a 0.857,0.857 0 0 1 -0.523,0.484 1.082,1.082 0 0 1 -0.717,-0.017 0.862,0.862 0 0 1 -0.316,-0.213 c -0.092,-0.096 -0.164,-0.218 -0.217,-0.366 -0.053,-0.148 -0.079,-0.325 -0.079,-0.529 h 0.303 a 1,1 0 0 0 0.06,0.365 0.723,0.723 0 0 0 0.155,0.25 0.59,0.59 0 0 0 0.224,0.147 c 0.085,0.03 0.172,0.046 0.263,0.046 a 0.91,0.91 0 0 0 0.218,-0.027 0.495,0.495 0 0 0 0.339,-0.281 0.723,0.723 0 0 0 0.053,-0.3 0.545,0.545 0 0 0 -0.065,-0.282 0.544,0.544 0 0 0 -0.177,-0.177 1.076,1.076 0 0 0 -0.247,-0.111 12.673,12.673 0 0 1 -0.282,-0.086 3.54,3.54 0 0 1 -0.283,-0.103 0.888,0.888 0 0 1 -0.247,-0.155 0.693,0.693 0 0 1 -0.177,-0.249 0.978,0.978 0 0 1 -0.065,-0.382 c 0,-0.168 0.024,-0.315 0.073,-0.438 a 0.82,0.82 0 0 1 0.478,-0.484 0.973,0.973 0 0 1 0.667,0.003 0.74,0.74 0 0 1 0.279,0.192 0.96,0.96 0 0 1 0.188,0.33 c 0.046,0.134 0.072,0.292 0.076,0.477 h -0.303 c -0.016,-0.241 -0.078,-0.415 -0.186,-0.523 z m 1.977,2.892 h -0.32 v -1.37 l -0.931,-1.98 h 0.381 l 0.723,1.596 0.705,-1.596 h 0.365 l -0.922,1.98 v 1.37 z m 2.398,-2.892 a 0.545,0.545 0 0 0 -0.409,-0.162 0.753,0.753 0 0 0 -0.2,0.027 0.455,0.455 0 0 0 -0.174,0.095 0.467,0.467 0 0 0 -0.121,0.175 0.688,0.688 0 0 0 -0.046,0.274 c 0,0.103 0.022,0.187 0.066,0.251 a 0.493,0.493 0 0 0 0.175,0.157 c 0.073,0.042 0.155,0.075 0.249,0.102 0.092,0.026 0.185,0.055 0.282,0.086 0.095,0.032 0.19,0.068 0.282,0.111 a 0.788,0.788 0 0 1 0.424,0.442 c 0.043,0.111 0.066,0.247 0.066,0.414 0,0.178 -0.029,0.33 -0.086,0.457 a 0.857,0.857 0 0 1 -0.523,0.484 1.082,1.082 0 0 1 -0.717,-0.017 0.862,0.862 0 0 1 -0.316,-0.213 c -0.092,-0.096 -0.164,-0.218 -0.217,-0.366 -0.053,-0.148 -0.079,-0.325 -0.079,-0.529 h 0.303 a 1,1 0 0 0 0.06,0.365 0.723,0.723 0 0 0 0.155,0.25 0.59,0.59 0 0 0 0.224,0.147 c 0.085,0.03 0.172,0.046 0.263,0.046 a 0.91,0.91 0 0 0 0.218,-0.027 0.495,0.495 0 0 0 0.339,-0.281 0.723,0.723 0 0 0 0.053,-0.3 0.545,0.545 0 0 0 -0.065,-0.282 0.544,0.544 0 0 0 -0.177,-0.177 1.076,1.076 0 0 0 -0.247,-0.111 12.673,12.673 0 0 1 -0.282,-0.086 3.54,3.54 0 0 1 -0.283,-0.103 0.888,0.888 0 0 1 -0.247,-0.155 0.693,0.693 0 0 1 -0.177,-0.249 0.978,0.978 0 0 1 -0.065,-0.382 c 0,-0.168 0.024,-0.315 0.073,-0.438 a 0.82,0.82 0 0 1 0.478,-0.484 0.973,0.973 0 0 1 0.667,0.003 0.74,0.74 0 0 1 0.279,0.192 0.96,0.96 0 0 1 0.188,0.33 c 0.046,0.134 0.072,0.292 0.076,0.477 h -0.303 c -0.017,-0.241 -0.079,-0.415 -0.186,-0.523 z m 0.725,-0.083 v -0.375 h 1.926 v 0.375 h -0.803 v 2.975 h -0.32 v -2.975 z m 3.857,-0.375 v 0.375 h -1.345 v 1.066 h 1.253 v 0.375 h -1.253 v 1.159 h 1.355 v 0.375 h -1.675 v -3.35 z m 0.844,0 0.76,2.816 0.763,-2.816 h 0.44 v 3.35 h -0.305 v -2.787 h -0.007 l -0.753,2.787 h -0.273 l -0.753,-2.787 h -0.007 v 2.787 h -0.303 v -3.35 z"
         id="path76"
         inkscape:connector-curvature="0"
         style="fill:#232226" />
    </g>
    <g
       id="g82">
      <circle
         cx="289.31699"
         cy="215.052"
         r="0.36899999"
         id="circle80"
         style="fill:#232226" />
    </g>
    <g
       id="g88">
      <path
         d="m 289.051,202.165 c -0.17,0.466 -0.311,0.943 -0.462,1.416 -0.392,1.233 -1.245,1.96 -2.499,2.194 -0.923,0.172 -1.852,0.214 -2.79,-0.248 0.355,0.552 0.759,0.945 1.344,1.12 0.681,0.204 1.376,0.177 2.073,0.112 0.423,-0.04 0.84,-0.104 1.183,-0.382 1.67,-1.353 2.036,-2.957 1.534,-5.014 -0.144,0.297 -0.288,0.54 -0.383,0.802 z m -4.586,-4.07 c 0.189,0.009 0.313,0.003 0.433,0.023 0.157,0.027 0.257,-0.019 0.334,-0.161 0.113,-0.208 0.239,-0.409 0.368,-0.607 0.117,-0.18 0.126,-0.348 0.006,-0.532 -0.159,-0.243 -0.324,-0.485 -0.451,-0.744 -0.133,-0.272 -0.327,-0.323 -0.615,-0.339 -0.391,-0.022 -0.644,0.086 -0.816,0.442 -0.112,0.232 -0.382,0.433 -0.392,0.656 -0.011,0.233 0.223,0.469 0.317,0.717 0.157,0.417 0.395,0.676 0.816,0.545 z m -3.303,0.809 c -0.638,-0.4 -1.268,0.001 -1.393,0.679 -0.006,0.031 0.007,0.08 0.03,0.101 0.291,0.268 0.609,0.487 0.968,0.526 0.16,-0.001 0.757,-0.458 0.79,-0.567 0.004,-0.014 0.008,-0.033 0.002,-0.044 -0.128,-0.237 -0.197,-0.57 -0.397,-0.695 z"
         id="path84"
         inkscape:connector-curvature="0"
         style="fill:#232226" />
      <path
         d="m 307.672,195.64 c -1.879,-1.892 -3.764,-3.78 -5.653,-5.662 a 0.497,0.497 0 0 0 -0.316,-0.129 c -2.652,-0.01 -5.303,-0.011 -7.955,-0.019 a 0.49,0.49 0 0 0 -0.38,0.159 c -1.59,1.596 -3.185,3.187 -4.777,4.782 -0.064,0.065 -0.108,0.15 -0.161,0.225 l -6.497,-6.476 c -0.036,0.032 -0.078,0.065 -0.115,0.102 -1.833,1.831 -3.666,3.661 -5.493,5.496 a 0.461,0.461 0 0 0 -0.117,0.298 c -0.009,3.027 -0.013,6.054 -0.009,9.081 a 0.52,0.52 0 0 0 0.137,0.335 c 2.123,2.136 4.254,4.265 6.38,6.398 a 0.459,0.459 0 0 0 0.357,0.153 l 9.035,0.007 a 0.51,0.51 0 0 0 0.397,-0.171 c 1.607,-1.612 3.218,-3.22 4.828,-4.829 0.058,-0.058 0.118,-0.112 0.143,-0.135 l 4.643,4.533 c -0.017,0.013 0.003,0.002 0.018,-0.014 1.854,-1.852 3.71,-3.703 5.559,-5.56 a 0.437,0.437 0 0 0 0.1,-0.282 c 0.006,-2.659 0.008,-5.319 0.002,-7.978 a 0.493,0.493 0 0 0 -0.126,-0.314 z m -13.375,-0.008 c 0.01,-0.072 0.105,-0.134 0.161,-0.2 0.004,-0.004 0.015,-0.003 0.022,-0.004 l 1.023,-0.239 c 0.412,0.263 0.825,0.524 1.234,0.791 0.041,0.027 0.057,0.093 0.062,0.102 -0.06,0.584 -0.111,1.117 -0.175,1.648 a 0.267,0.267 0 0 1 -0.137,0.176 c -0.322,0.139 -0.649,0.268 -0.98,0.387 a 0.273,0.273 0 0 1 -0.222,-0.037 c -0.363,-0.281 -0.72,-0.569 -1.07,-0.866 -0.056,-0.047 -0.092,-0.156 -0.085,-0.231 0.047,-0.513 0.093,-0.964 0.167,-1.527 z m 2.552,9.231 c -1.562,1.56 -3.122,3.121 -4.69,4.675 a 0.53,0.53 0 0 1 -0.336,0.135 c -2.813,0.007 -5.626,0.003 -8.439,0.007 a 0.46,0.46 0 0 1 -0.359,-0.151 c -1.99,-1.998 -3.986,-3.992 -5.974,-5.993 a 0.53,0.53 0 0 1 -0.138,-0.334 1836.04,1836.04 0 0 1 0,-8.462 c 0,-0.102 0.038,-0.233 0.107,-0.302 1.599,-1.609 3.205,-3.211 4.81,-4.815 0.032,-0.032 0.068,-0.059 0.092,-0.081 l 5.955,5.938 c -0.363,0.206 -0.262,0.555 -0.263,0.873 -0.004,1.295 -0.003,2.591 -0.003,3.886 0,0.053 0.006,0.106 0.011,0.186 h 0.251 c 1.556,10e-4 3.112,0.004 4.668,0 0.158,0 0.266,0.046 0.38,0.158 1.372,1.349 2.75,2.691 4.137,4.046 -0.111,0.126 -0.157,0.182 -0.209,0.234 z m 2.72,-10.826 c -0.023,0.053 -0.08,0.091 -0.121,0.137 -0.523,0.58 -0.523,0.58 -1.272,0.379 -0.042,-0.011 -0.114,-0.031 -0.117,-0.054 -0.029,-0.232 -0.11,-0.482 -0.053,-0.693 0.081,-0.301 0.266,-0.575 0.419,-0.887 0.042,0.007 0.102,0.017 0.161,0.029 0.75,0.15 0.753,0.149 1.02,0.871 0.023,0.06 -0.008,0.15 -0.037,0.218 z m 5.044,7.889 c -0.018,0.068 -0.105,0.144 -0.175,0.167 -0.27,0.084 -0.543,0.165 -0.821,0.214 -0.18,0.032 -0.233,0.127 -0.263,0.285 -0.089,0.466 -0.189,0.93 -0.283,1.394 -0.02,0.101 -0.038,0.178 -0.175,0.195 -0.623,0.077 -1.243,0.173 -1.866,0.251 -0.069,0.009 -0.162,-0.036 -0.218,-0.085 a 9.835,9.835 0 0 1 -0.583,-0.554 0.517,0.517 0 0 1 -0.123,-0.235 c -0.118,-0.53 -0.227,-1.061 -0.346,-1.622 0.569,-0.275 1.124,-0.548 1.683,-0.812 0.127,-0.06 0.182,-0.142 0.228,-0.28 0.233,-0.69 0.128,-1.374 0.004,-2.061 -0.014,-0.075 -0.023,-0.151 -0.032,-0.227 -0.005,-0.045 -0.005,-0.09 -0.009,-0.161 l 2.526,-0.567 0.382,1.633 c 0.038,0.164 0.053,0.337 0.114,0.491 0.268,0.667 0.132,1.321 -0.043,1.974 z"
         id="path86"
         inkscape:connector-curvature="0"
         style="fill:#232226" />
    </g>
  </g>
</svg>
