<?xml version="1.0" encoding="UTF-8" standalone="no"?>
<svg
   xmlns:dc="http://purl.org/dc/elements/1.1/"
   xmlns:cc="http://creativecommons.org/ns#"
   xmlns:rdf="http://www.w3.org/1999/02/22-rdf-syntax-ns#"
   xmlns:svg="http://www.w3.org/2000/svg"
   xmlns="http://www.w3.org/2000/svg"
   xmlns:sodipodi="http://sodipodi.sourceforge.net/DTD/sodipodi-0.dtd"
   xmlns:inkscape="http://www.inkscape.org/namespaces/inkscape"
   viewBox="0 0 583.99902 479.333"
   version="1.1"
   id="svg54"
   sodipodi:docname="console.svg"
   width="583.99902"
   height="479.33301"
   inkscape:version="0.92.4 5da689c313, 2019-01-14">
  <metadata
     id="metadata60">
    <rdf:RDF>
      <cc:Work
         rdf:about="">
        <dc:format>image/svg+xml</dc:format>
        <dc:type
           rdf:resource="http://purl.org/dc/dcmitype/StillImage" />
      </cc:Work>
    </rdf:RDF>
  </metadata>
  <defs
     id="defs58" />
  <sodipodi:namedview
     pagecolor="#ffffff"
     bordercolor="#666666"
     borderopacity="1"
     objecttolerance="10"
     gridtolerance="10"
     guidetolerance="10"
     inkscape:pageopacity="0"
     inkscape:pageshadow="2"
     inkscape:window-width="640"
     inkscape:window-height="480"
     id="namedview56"
     showgrid="false"
     inkscape:zoom="0.4640411"
     inkscape:cx="292"
     inkscape:cy="239.6665"
     inkscape:window-x="0"
     inkscape:window-y="0"
     inkscape:window-maximized="0"
     inkscape:current-layer="svg54">
    <inkscape:grid
       type="xygrid"
       id="grid867"
       originx="0"
       originy="-7.8124999e-06" />
  </sodipodi:namedview>
  <g
     id="g4"
     style="fill:#0e080c">
    <path
       d="m 294.25,7.167 h -4.5 V 0.354 C 289.75,0.159 289.909,0 290.104,0 h 3.792 c 0.195,0 0.354,0.159 0.354,0.354 z m 8.563,0 h -4.5 V 0.354 C 298.313,0.159 298.472,0 298.667,0 h 3.792 c 0.195,0 0.354,0.159 0.354,0.354 z m 8.562,0 h -4.5 V 0.354 C 306.875,0.159 307.034,0 307.229,0 h 3.792 c 0.195,0 0.354,0.159 0.354,0.354 z m 8.563,0 h -4.5 V 0.354 C 315.438,0.159 315.597,0 315.792,0 h 3.792 c 0.195,0 0.354,0.159 0.354,0.354 z m 8.562,0 H 324 V 0.354 C 324,0.159 324.159,0 324.354,0 h 3.792 c 0.195,0 0.354,0.159 0.354,0.354 z m 8.563,0 h -4.5 V 0.354 C 332.563,0.159 332.722,0 332.917,0 h 3.792 c 0.195,0 0.354,0.159 0.354,0.354 z m 8.562,0 h -4.5 V 0.354 C 341.125,0.159 341.284,0 341.479,0 h 3.792 c 0.195,0 0.354,0.159 0.354,0.354 z m 8.563,0 h -4.5 V 0.354 C 349.688,0.159 349.847,0 350.042,0 h 3.792 c 0.195,0 0.354,0.159 0.354,0.354 z m 8.562,0 h -4.5 V 0.354 C 358.25,0.159 358.409,0 358.604,0 h 3.792 c 0.195,0 0.354,0.159 0.354,0.354 z m 8.563,0 h -4.5 V 0.354 C 366.813,0.159 366.972,0 367.167,0 h 3.792 c 0.195,0 0.354,0.159 0.354,0.354 z m 8.562,0 h -4.5 V 0.354 C 375.375,0.159 375.534,0 375.729,0 h 3.792 c 0.195,0 0.354,0.159 0.354,0.354 z m 8.563,0 h -4.5 V 0.354 C 383.938,0.159 384.097,0 384.292,0 h 3.792 c 0.195,0 0.354,0.159 0.354,0.354 z m 8.562,0 h -4.5 V 0.354 C 392.5,0.159 392.659,0 392.854,0 h 3.792 C 396.841,0 397,0.159 397,0.354 Z m 8.563,0 h -4.5 V 0.354 C 401.063,0.159 401.222,0 401.417,0 h 3.792 c 0.195,0 0.354,0.159 0.354,0.354 z m 8.562,0 h -4.5 V 0.354 C 409.625,0.159 409.784,0 409.979,0 h 3.792 c 0.195,0 0.354,0.159 0.354,0.354 z m 8.563,0 h -4.5 V 0.354 C 418.188,0.159 418.347,0 418.542,0 h 3.792 c 0.195,0 0.354,0.159 0.354,0.354 z m 8.562,0 h -4.5 V 0.354 C 426.75,0.159 426.909,0 427.104,0 h 3.792 c 0.195,0 0.354,0.159 0.354,0.354 z m 8.563,0 h -4.5 V 0.354 C 435.313,0.159 435.472,0 435.667,0 h 3.792 c 0.195,0 0.354,0.159 0.354,0.354 z m 8.562,0 h -4.5 V 0.354 C 443.875,0.159 444.034,0 444.229,0 h 3.792 c 0.195,0 0.354,0.159 0.354,0.354 z m 8.563,0 h -4.5 V 0.354 C 452.438,0.159 452.597,0 452.792,0 h 3.792 c 0.195,0 0.354,0.159 0.354,0.354 z m 8.562,0 H 461 V 0.354 C 461,0.159 461.159,0 461.354,0 h 3.792 c 0.195,0 0.354,0.159 0.354,0.354 z m -184.312,0 h 4.5 V 0.354 A 0.355,0.355 0 0 0 285.334,0 h -3.792 a 0.355,0.355 0 0 0 -0.354,0.354 z m -8.563,0 h 4.5 V 0.354 A 0.355,0.355 0 0 0 276.771,0 h -3.792 a 0.355,0.355 0 0 0 -0.354,0.354 z m -8.562,0 h 4.5 V 0.354 A 0.355,0.355 0 0 0 268.209,0 h -3.792 a 0.355,0.355 0 0 0 -0.354,0.354 z m -8.563,0 H 260 V 0.354 A 0.355,0.355 0 0 0 259.646,0 h -3.792 A 0.355,0.355 0 0 0 255.5,0.354 Z m -8.562,0 h 4.5 V 0.354 A 0.355,0.355 0 0 0 251.084,0 h -3.792 a 0.355,0.355 0 0 0 -0.354,0.354 z m -8.563,0 h 4.5 V 0.354 A 0.355,0.355 0 0 0 242.521,0 h -3.792 a 0.355,0.355 0 0 0 -0.354,0.354 z m -8.562,0 h 4.5 V 0.354 A 0.355,0.355 0 0 0 233.959,0 h -3.792 a 0.355,0.355 0 0 0 -0.354,0.354 z m -8.563,0 h 4.5 V 0.354 A 0.355,0.355 0 0 0 225.396,0 h -3.792 a 0.355,0.355 0 0 0 -0.354,0.354 z m -8.562,0 h 4.5 V 0.354 A 0.355,0.355 0 0 0 216.834,0 h -3.792 a 0.355,0.355 0 0 0 -0.354,0.354 z m -8.563,0 h 4.5 V 0.354 A 0.355,0.355 0 0 0 208.271,0 h -3.792 a 0.355,0.355 0 0 0 -0.354,0.354 z m -8.562,0 h 4.5 V 0.354 A 0.355,0.355 0 0 0 199.709,0 h -3.792 a 0.355,0.355 0 0 0 -0.354,0.354 z m -8.563,0 h 4.5 V 0.354 A 0.355,0.355 0 0 0 191.146,0 h -3.792 A 0.355,0.355 0 0 0 187,0.354 Z m -8.562,0 h 4.5 V 0.354 A 0.355,0.355 0 0 0 182.584,0 h -3.792 a 0.355,0.355 0 0 0 -0.354,0.354 z m -8.563,0 h 4.5 V 0.354 A 0.355,0.355 0 0 0 174.021,0 h -3.792 a 0.355,0.355 0 0 0 -0.354,0.354 z m -8.562,0 h 4.5 V 0.354 A 0.355,0.355 0 0 0 165.459,0 h -3.792 a 0.355,0.355 0 0 0 -0.354,0.354 z m -8.563,0 h 4.5 V 0.354 A 0.355,0.355 0 0 0 156.896,0 h -3.792 a 0.355,0.355 0 0 0 -0.354,0.354 z m -8.562,0 h 4.5 V 0.354 A 0.355,0.355 0 0 0 148.334,0 h -3.792 a 0.355,0.355 0 0 0 -0.354,0.354 z m -8.563,0 h 4.5 V 0.354 A 0.355,0.355 0 0 0 139.771,0 h -3.792 a 0.355,0.355 0 0 0 -0.354,0.354 z m -8.562,0 h 4.5 V 0.354 A 0.355,0.355 0 0 0 131.209,0 h -3.792 a 0.355,0.355 0 0 0 -0.354,0.354 z m -8.563,0 H 123 V 0.354 A 0.355,0.355 0 0 0 122.646,0 h -3.792 A 0.355,0.355 0 0 0 118.5,0.354 Z"
       id="path2"
       inkscape:connector-curvature="0" />
  </g>
  <path
     d="m 0,441.198 c 0,20.975 17.161,38.135 38.135,38.135 h 507.729 c 20.974,0 38.135,-17.161 38.135,-38.135 V 46.667 C 584,21 563,0 537.333,0 H 470.396 A 0.396,0.396 0 0 0 470,0.396 v 6.375 a 0.396,0.396 0 0 1 -0.396,0.396 H 114.405 A 0.405,0.405 0 0 1 114,6.762 V 0.402 A 0.402,0.402 0 0 0 113.598,0 H 46.667 C 21,0 0,21 0,46.667 Z"
     id="path6"
     inkscape:connector-curvature="0"
     style="fill:#141312" />
  <path
     d="m 8.253,427.198 c 0,20.975 16.676,38.135 37.057,38.135 h 493.378 c 20.382,0 37.057,-17.161 37.057,-38.135 V 56.12 c 0,-24.275 -20.406,-44.137 -45.348,-44.137 H 53.601 C 28.66,11.983 8.253,31.845 8.253,56.12 Z"
     id="path8"
     inkscape:connector-curvature="0"
     style="fill:#1c1a19" />
  <ellipse
     cx="100.438"
     cy="471.896"
     rx="12.813"
     ry="2.375"
     id="ellipse10"
     style="fill:#f9673d" />
  <path
     d="M 488.087,390.493 H 95.913 c -8.019,0 -14.58,-6.561 -14.58,-14.58 V 11.983 h 421.333 v 363.93 c 10e-4,8.019 -6.56,14.58 -14.579,14.58 z"
     id="path12"
     inkscape:connector-curvature="0"
     style="fill:#232221" />
  <path
     d="m 502.667,11.983 v 363.93 c 0,8.019 -6.561,14.58 -14.58,14.58 H 95.913 c -8.019,0 -14.58,-6.561 -14.58,-14.58 V 11.983"
     stroke-miterlimit="10"
     id="path14"
     inkscape:connector-curvature="0"
     style="fill:none;stroke:#0a090a;stroke-width:2;stroke-miterlimit:10" />
  <path
     d="M 91.167,370.436 V 31.333 a 5.5,5.5 0 0 1 5.5,-5.5 h 390.667 a 5.5,5.5 0 0 1 5.5,5.5 v 339.103 c 0,5.532 -4.526,10.057 -10.057,10.057 H 101.224 c -5.532,0 -10.057,-4.525 -10.057,-10.057 z"
     id="path16"
     inkscape:connector-curvature="0"
     style="fill:#1e1c1b" />
  <path
     d="m 262,229.333 v -47 a 6.5,6.5 0 0 1 6.5,-6.5 h 47 a 6.5,6.5 0 0 1 6.5,6.5 v 47 a 6.5,6.5 0 0 1 -6.5,6.5 h -47 a 6.5,6.5 0 0 1 -6.5,-6.5 z"
     id="path18"
     inkscape:connector-curvature="0"
     style="fill:#343538" />
  <path
     d="m 268.5,231.833 a 2.503,2.503 0 0 1 -2.5,-2.5 v -47 c 0,-1.379 1.122,-2.5 2.5,-2.5 h 47 c 1.378,0 2.5,1.121 2.5,2.5 v 47 c 0,1.379 -1.122,2.5 -2.5,2.5 z"
     id="path20"
     inkscape:connector-curvature="0"
     style="fill:#bfb59a" />
  <path
     d="m 270.369,218.867 0.906,3.35 h -0.341 l -0.253,-1.008 h -0.98 l -0.26,1.008 h -0.315 l 0.902,-3.35 z m 0.215,1.967 -0.386,-1.563 h -0.006 l -0.393,1.563 z m 1.713,-1.967 c 0.357,0 0.632,0.132 0.825,0.394 0.193,0.263 0.289,0.664 0.289,1.202 0,0.28 -0.022,0.53 -0.065,0.747 a 1.715,1.715 0 0 1 -0.201,0.55 0.94,0.94 0 0 1 -0.348,0.339 1.005,1.005 0 0 1 -0.5,0.118 h -0.795 v -3.35 z m 0.026,2.975 a 0.585,0.585 0 0 0 0.296,-0.068 0.695,0.695 0 0 0 0.173,-0.128 0.808,0.808 0 0 0 0.154,-0.23 c 0.045,-0.098 0.083,-0.218 0.112,-0.365 0.029,-0.145 0.044,-0.32 0.044,-0.527 0,-0.2 -0.014,-0.379 -0.041,-0.537 -0.027,-0.158 -0.071,-0.293 -0.133,-0.404 -0.062,-0.111 -0.141,-0.195 -0.238,-0.253 a 0.706,0.706 0 0 0 -0.36,-0.088 h -0.519 v 2.6 z m 2.025,0.375 -0.815,-3.35 h 0.331 l 0.662,2.905 h 0.006 l 0.668,-2.905 h 0.322 l -0.825,3.35 z m 2.242,-3.35 0.906,3.35 h -0.341 l -0.253,-1.008 h -0.98 l -0.26,1.008 h -0.315 l 0.902,-3.35 z m 0.215,1.967 -0.386,-1.563 h -0.006 l -0.393,1.563 z m 1.243,-1.967 1.22,2.716 h 0.006 v -2.716 h 0.292 v 3.35 h -0.338 l -1.21,-2.688 h -0.006 v 2.688 h -0.292 v -3.35 z m 3.419,0.474 a 0.571,0.571 0 0 0 -0.42,-0.178 0.57,0.57 0 0 0 -0.356,0.112 0.86,0.86 0 0 0 -0.243,0.303 1.603,1.603 0 0 0 -0.141,0.434 c -0.03,0.162 -0.046,0.332 -0.046,0.507 0,0.191 0.016,0.371 0.046,0.542 0.03,0.171 0.077,0.319 0.141,0.445 a 0.864,0.864 0 0 0 0.245,0.303 c 0.1,0.075 0.219,0.112 0.357,0.112 a 0.514,0.514 0 0 0 0.272,-0.072 0.682,0.682 0 0 0 0.205,-0.203 c 0.057,-0.086 0.102,-0.188 0.135,-0.307 0.032,-0.118 0.052,-0.247 0.057,-0.385 h 0.307 c -0.029,0.422 -0.129,0.751 -0.302,0.985 a 0.815,0.815 0 0 1 -0.7,0.352 c -0.18,0 -0.336,-0.045 -0.47,-0.134 -0.134,-0.089 -0.246,-0.211 -0.334,-0.368 a 1.907,1.907 0 0 1 -0.2,-0.555 3.307,3.307 0 0 1 -0.067,-0.684 c 0,-0.244 0.024,-0.474 0.072,-0.688 0.047,-0.214 0.117,-0.401 0.209,-0.56 0.092,-0.159 0.207,-0.286 0.344,-0.378 a 0.826,0.826 0 0 1 0.472,-0.138 0.853,0.853 0 0 1 0.633,0.275 c 0.085,0.091 0.155,0.204 0.211,0.34 0.056,0.136 0.093,0.293 0.111,0.471 h -0.309 c -0.036,-0.234 -0.112,-0.412 -0.229,-0.531 z m 2.542,-0.474 v 0.375 h -1.291 v 1.066 h 1.204 v 0.375 h -1.204 v 1.159 h 1.302 v 0.375 h -1.61 v -3.35 z m 1.178,0 c 0.356,0 0.631,0.132 0.823,0.394 0.192,0.263 0.29,0.664 0.29,1.202 0,0.28 -0.023,0.53 -0.066,0.747 a 1.647,1.647 0 0 1 -0.201,0.55 0.95,0.95 0 0 1 -0.346,0.339 1.005,1.005 0 0 1 -0.5,0.118 h -0.796 v -3.35 z m 0.026,2.975 a 1,1 0 0 0 0.129,-0.011 0.56,0.56 0 0 0 0.165,-0.057 0.698,0.698 0 0 0 0.328,-0.358 c 0.046,-0.098 0.083,-0.218 0.112,-0.365 0.03,-0.145 0.045,-0.32 0.045,-0.527 0,-0.2 -0.014,-0.379 -0.04,-0.537 -0.027,-0.158 -0.072,-0.293 -0.134,-0.404 -0.062,-0.111 -0.141,-0.195 -0.238,-0.253 a 0.704,0.704 0 0 0 -0.361,-0.088 H 284.7 v 2.6 z"
     id="path22"
     inkscape:connector-curvature="0"
     style="fill:#232226" />
  <g
     id="g26">
    <path
       d="m 282.676,213.451 1.106,2.717 h 0.006 v -2.717 h 0.264 v 3.35 h -0.305 l -1.098,-2.688 h -0.006 v 2.688 h -0.264 v -3.35 z m 3.28,0 v 0.375 h -1.171 v 1.066 h 1.092 v 0.375 h -1.092 v 1.159 h 1.179 v 0.375 h -1.458 v -3.35 z m 0.293,1.016 c 0.042,-0.211 0.105,-0.398 0.19,-0.56 0.085,-0.162 0.19,-0.293 0.315,-0.389 a 0.69,0.69 0 0 1 0.438,-0.145 c 0.167,0 0.313,0.047 0.438,0.145 0.125,0.096 0.23,0.227 0.315,0.389 0.085,0.162 0.148,0.349 0.19,0.56 a 3.45,3.45 0 0 1 0,1.318 2.038,2.038 0 0 1 -0.19,0.56 c -0.085,0.162 -0.19,0.292 -0.315,0.388 a 0.705,0.705 0 0 1 -0.438,0.142 0.703,0.703 0 0 1 -0.438,-0.142 1.158,1.158 0 0 1 -0.315,-0.388 2.072,2.072 0 0 1 -0.19,-0.56 3.296,3.296 0 0 1 -0.063,-0.659 c 0,-0.228 0.02,-0.448 0.063,-0.659 z m 0.257,1.159 c 0.027,0.164 0.07,0.312 0.129,0.444 a 0.889,0.889 0 0 0 0.227,0.316 0.488,0.488 0 0 0 0.329,0.119 c 0.128,0 0.237,-0.04 0.329,-0.119 a 0.901,0.901 0 0 0 0.227,-0.316 c 0.059,-0.132 0.102,-0.28 0.129,-0.444 a 3.067,3.067 0 0 0 0,-1 1.76,1.76 0 0 0 -0.129,-0.442 0.896,0.896 0 0 0 -0.227,-0.317 0.488,0.488 0 0 0 -0.329,-0.119 0.488,0.488 0 0 0 -0.329,0.119 0.884,0.884 0 0 0 -0.227,0.317 1.786,1.786 0 0 0 -0.129,0.442 3.076,3.076 0 0 0 0,1 z"
       id="path24"
       inkscape:connector-curvature="0"
       style="fill:#232226" />
  </g>
  <g
     id="g30">
    <path
       d="m 291.769,216.761 a 0.673,0.673 0 0 1 -0.368,0.115 0.688,0.688 0 0 1 -0.421,-0.138 1.154,1.154 0 0 1 -0.315,-0.373 2.029,2.029 0 0 1 -0.197,-0.539 2.933,2.933 0 0 1 -0.068,-0.634 c 0,-0.244 0.022,-0.477 0.063,-0.697 a 2.22,2.22 0 0 1 0.188,-0.58 1.16,1.16 0 0 1 0.312,-0.396 0.687,0.687 0 0 1 0.437,-0.147 c 0.113,0 0.221,0.02 0.322,0.063 a 0.743,0.743 0 0 1 0.271,0.198 c 0.079,0.092 0.145,0.207 0.2,0.346 0.053,0.138 0.091,0.306 0.111,0.504 h -0.28 a 1.28,1.28 0 0 0 -0.076,-0.332 0.727,0.727 0 0 0 -0.138,-0.227 0.559,0.559 0 0 0 -0.41,-0.179 0.472,0.472 0 0 0 -0.328,0.122 0.879,0.879 0 0 0 -0.224,0.32 1.945,1.945 0 0 0 -0.128,0.455 c -0.027,0.171 -0.04,0.345 -0.04,0.523 0,0.175 0.014,0.343 0.046,0.506 0.032,0.161 0.078,0.303 0.138,0.427 a 0.868,0.868 0 0 0 0.226,0.294 0.465,0.465 0 0 0 0.31,0.111 0.506,0.506 0 0 0 0.292,-0.085 0.72,0.72 0 0 0 0.213,-0.231 1.2,1.2 0 0 0 0.131,-0.348 c 0.03,-0.132 0.043,-0.276 0.039,-0.43 h -0.671 v -0.375 h 0.921 v 1.764 h -0.177 l -0.073,-0.418 a 0.837,0.837 0 0 1 -0.306,0.381 z m 2.418,-3.31 v 0.375 h -1.171 v 1.066 h 1.092 v 0.375 h -1.092 v 1.159 h 1.179 v 0.375 h -1.458 v -3.35 z m 0.292,1.016 c 0.042,-0.211 0.105,-0.398 0.19,-0.56 0.085,-0.162 0.19,-0.293 0.315,-0.389 a 0.69,0.69 0 0 1 0.438,-0.145 c 0.167,0 0.313,0.047 0.438,0.145 0.125,0.096 0.23,0.227 0.315,0.389 0.085,0.162 0.148,0.349 0.19,0.56 a 3.45,3.45 0 0 1 0,1.318 2.038,2.038 0 0 1 -0.19,0.56 c -0.085,0.162 -0.19,0.292 -0.315,0.388 a 0.705,0.705 0 0 1 -0.438,0.142 0.703,0.703 0 0 1 -0.438,-0.142 1.158,1.158 0 0 1 -0.315,-0.388 2.072,2.072 0 0 1 -0.19,-0.56 3.296,3.296 0 0 1 -0.063,-0.659 c 0,-0.228 0.02,-0.448 0.063,-0.659 z m 0.257,1.159 c 0.027,0.164 0.07,0.312 0.129,0.444 a 0.889,0.889 0 0 0 0.227,0.316 0.488,0.488 0 0 0 0.329,0.119 c 0.128,0 0.237,-0.04 0.329,-0.119 a 0.901,0.901 0 0 0 0.227,-0.316 c 0.059,-0.132 0.102,-0.28 0.129,-0.444 a 3.067,3.067 0 0 0 0,-1 1.76,1.76 0 0 0 -0.129,-0.442 0.896,0.896 0 0 0 -0.227,-0.317 0.488,0.488 0 0 0 -0.329,-0.119 0.488,0.488 0 0 0 -0.329,0.119 0.884,0.884 0 0 0 -0.227,0.317 1.786,1.786 0 0 0 -0.129,0.442 3.076,3.076 0 0 0 0,1 z"
       id="path28"
       inkscape:connector-curvature="0"
       style="fill:#232226" />
  </g>
  <g
     id="g34">
    <path
       d="m 298.961,213.925 a 0.494,0.494 0 0 0 -0.381,-0.178 0.484,0.484 0 0 0 -0.322,0.112 c -0.089,0.075 -0.164,0.177 -0.221,0.303 -0.057,0.126 -0.101,0.271 -0.128,0.434 a 3.47,3.47 0 0 0 0,1.049 c 0.027,0.171 0.07,0.319 0.128,0.445 0.058,0.126 0.132,0.228 0.223,0.303 0.09,0.075 0.198,0.112 0.323,0.112 a 0.433,0.433 0 0 0 0.246,-0.072 c 0.072,-0.049 0.134,-0.116 0.185,-0.203 0.051,-0.087 0.092,-0.188 0.122,-0.307 0.029,-0.118 0.047,-0.247 0.053,-0.385 h 0.279 c -0.027,0.422 -0.118,0.751 -0.273,0.985 a 0.72,0.72 0 0 1 -0.635,0.352 0.7,0.7 0 0 1 -0.427,-0.134 1.014,1.014 0 0 1 -0.303,-0.368 2.033,2.033 0 0 1 -0.181,-0.555 3.705,3.705 0 0 1 -0.06,-0.684 c 0,-0.244 0.022,-0.474 0.065,-0.688 0.043,-0.214 0.106,-0.401 0.19,-0.56 0.084,-0.159 0.187,-0.286 0.312,-0.378 a 0.702,0.702 0 0 1 0.428,-0.138 c 0.109,0 0.214,0.023 0.312,0.07 0.098,0.046 0.185,0.115 0.261,0.205 0.076,0.09 0.141,0.204 0.191,0.34 0.052,0.136 0.085,0.293 0.101,0.471 h -0.28 c -0.033,-0.233 -0.102,-0.412 -0.208,-0.531 z m 1.574,-0.474 c 0.323,0 0.573,0.132 0.747,0.394 0.175,0.263 0.261,0.664 0.261,1.202 0,0.28 -0.019,0.53 -0.059,0.747 a 1.794,1.794 0 0 1 -0.181,0.55 0.902,0.902 0 0 1 -0.316,0.339 0.835,0.835 0 0 1 -0.453,0.118 h -0.72 v -3.35 z m 0.025,2.975 a 0.497,0.497 0 0 0 0.267,-0.068 0.636,0.636 0 0 0 0.157,-0.128 0.816,0.816 0 0 0 0.141,-0.23 c 0.04,-0.098 0.075,-0.218 0.101,-0.365 0.027,-0.145 0.04,-0.32 0.04,-0.527 0,-0.2 -0.013,-0.379 -0.037,-0.537 -0.024,-0.158 -0.065,-0.293 -0.121,-0.404 -0.056,-0.111 -0.128,-0.195 -0.215,-0.253 -0.087,-0.058 -0.197,-0.088 -0.326,-0.088 h -0.471 v 2.6 z"
       id="path32"
       inkscape:connector-curvature="0"
       style="fill:#232226" />
  </g>
  <g
     id="g38">
    <path
       d="m 289.553,218.867 v 0.375 h -1.345 v 1.066 h 1.253 v 0.375 h -1.253 v 1.159 h 1.355 v 0.375 h -1.675 v -3.35 z m 0.735,0 1.27,2.716 h 0.006 v -2.716 h 0.305 v 3.35 h -0.351 l -1.26,-2.688 h -0.007 v 2.688 h -0.303 v -3.35 z m 1.843,0.375 v -0.375 h 1.926 v 0.375 h -0.803 v 2.975 h -0.32 v -2.975 z m 3.859,-0.375 v 0.375 h -1.345 v 1.066 h 1.253 v 0.375 h -1.253 v 1.159 H 296 v 0.375 h -1.675 v -3.35 z m 1.531,0 c 0.23,0 0.408,0.079 0.539,0.234 0.129,0.157 0.194,0.371 0.194,0.644 0,0.203 -0.033,0.381 -0.101,0.534 a 0.553,0.553 0 0 1 -0.319,0.315 v 0.01 c 0.07,0.019 0.126,0.049 0.171,0.093 a 0.466,0.466 0 0 1 0.105,0.157 0.883,0.883 0 0 1 0.057,0.204 c 0.012,0.076 0.022,0.154 0.029,0.236 l 0.01,0.249 a 2.297,2.297 0 0 0 0.056,0.48 0.644,0.644 0 0 0 0.075,0.195 h -0.358 a 0.35,0.35 0 0 1 -0.045,-0.141 1.866,1.866 0 0 1 -0.016,-0.2 l -0.007,-0.237 a 3.666,3.666 0 0 0 -0.053,-0.48 0.656,0.656 0 0 0 -0.065,-0.192 0.37,0.37 0 0 0 -0.115,-0.132 0.324,0.324 0 0 0 -0.188,-0.049 h -0.784 v 1.431 h -0.32 v -3.35 h 1.135 z m 0.068,1.52 a 0.408,0.408 0 0 0 0.299,-0.274 0.821,0.821 0 0 0 0.045,-0.297 0.758,0.758 0 0 0 -0.101,-0.414 c -0.068,-0.106 -0.177,-0.159 -0.328,-0.159 h -0.797 v 1.169 h 0.669 a 0.986,0.986 0 0 0 0.213,-0.025 z m 0.794,-1.145 v -0.375 h 1.926 v 0.375 h -0.803 v 2.975 h -0.32 v -2.975 z m 2.892,-0.375 0.941,3.35 h -0.353 l -0.264,-1.008 h -1.019 l -0.27,1.008 h -0.328 l 0.938,-3.35 z m 0.223,1.967 -0.402,-1.563 h -0.006 l -0.409,1.563 z m 1.29,-1.967 v 3.35 h -0.32 v -3.35 z m 0.876,0 1.27,2.716 h 0.006 v -2.716 h 0.305 v 3.35 h -0.351 l -1.26,-2.688 h -0.007 v 2.688 h -0.303 v -3.35 z m 2.546,0 0.76,2.816 0.763,-2.816 h 0.44 v 3.35 h -0.305 v -2.787 h -0.007 l -0.753,2.787 h -0.273 l -0.753,-2.787 h -0.007 v 2.787 h -0.303 v -3.35 z m 4.158,0 v 0.375 h -1.345 v 1.066 h 1.253 v 0.375 h -1.253 v 1.159 h 1.355 v 0.375 h -1.675 v -3.35 z m 0.736,0 1.27,2.716 h 0.006 v -2.716 h 0.305 v 3.35 h -0.351 l -1.26,-2.688 h -0.007 v 2.688 h -0.303 v -3.35 z m 1.843,0.375 v -0.375 h 1.926 v 0.375 h -0.803 v 2.975 h -0.32 v -2.975 z"
       id="path36"
       inkscape:connector-curvature="0"
       style="fill:#232226" />
  </g>
  <g
     id="g42">
    <path
       d="m 286.29,224.933 a 0.545,0.545 0 0 0 -0.409,-0.162 0.753,0.753 0 0 0 -0.2,0.027 0.455,0.455 0 0 0 -0.174,0.095 0.467,0.467 0 0 0 -0.121,0.175 0.688,0.688 0 0 0 -0.046,0.274 c 0,0.103 0.022,0.187 0.066,0.251 a 0.493,0.493 0 0 0 0.175,0.157 c 0.073,0.042 0.155,0.075 0.249,0.102 0.092,0.026 0.185,0.055 0.282,0.086 0.095,0.032 0.19,0.068 0.282,0.111 a 0.788,0.788 0 0 1 0.424,0.442 c 0.043,0.111 0.066,0.247 0.066,0.414 0,0.178 -0.029,0.33 -0.086,0.457 a 0.857,0.857 0 0 1 -0.523,0.484 1.082,1.082 0 0 1 -0.717,-0.017 0.862,0.862 0 0 1 -0.316,-0.213 c -0.092,-0.096 -0.164,-0.218 -0.217,-0.366 -0.053,-0.148 -0.079,-0.325 -0.079,-0.529 h 0.303 a 1,1 0 0 0 0.06,0.365 0.723,0.723 0 0 0 0.155,0.25 0.59,0.59 0 0 0 0.224,0.147 c 0.085,0.03 0.172,0.046 0.263,0.046 a 0.91,0.91 0 0 0 0.218,-0.027 0.495,0.495 0 0 0 0.339,-0.281 0.723,0.723 0 0 0 0.053,-0.3 0.545,0.545 0 0 0 -0.065,-0.282 0.544,0.544 0 0 0 -0.177,-0.177 1.076,1.076 0 0 0 -0.247,-0.111 12.673,12.673 0 0 1 -0.282,-0.086 3.54,3.54 0 0 1 -0.283,-0.103 0.888,0.888 0 0 1 -0.247,-0.155 0.693,0.693 0 0 1 -0.177,-0.249 0.978,0.978 0 0 1 -0.065,-0.382 c 0,-0.168 0.024,-0.315 0.073,-0.438 a 0.82,0.82 0 0 1 0.478,-0.484 0.973,0.973 0 0 1 0.667,0.003 0.74,0.74 0 0 1 0.279,0.192 0.96,0.96 0 0 1 0.188,0.33 c 0.046,0.134 0.072,0.292 0.076,0.477 h -0.303 c -0.016,-0.241 -0.078,-0.415 -0.186,-0.523 z m 1.977,2.892 h -0.32 v -1.37 l -0.931,-1.98 h 0.381 l 0.723,1.596 0.705,-1.596 h 0.365 l -0.922,1.98 v 1.37 z m 2.398,-2.892 a 0.545,0.545 0 0 0 -0.409,-0.162 0.753,0.753 0 0 0 -0.2,0.027 0.455,0.455 0 0 0 -0.174,0.095 0.467,0.467 0 0 0 -0.121,0.175 0.688,0.688 0 0 0 -0.046,0.274 c 0,0.103 0.022,0.187 0.066,0.251 a 0.493,0.493 0 0 0 0.175,0.157 c 0.073,0.042 0.155,0.075 0.249,0.102 0.092,0.026 0.185,0.055 0.282,0.086 0.095,0.032 0.19,0.068 0.282,0.111 a 0.788,0.788 0 0 1 0.424,0.442 c 0.043,0.111 0.066,0.247 0.066,0.414 0,0.178 -0.029,0.33 -0.086,0.457 a 0.857,0.857 0 0 1 -0.523,0.484 1.082,1.082 0 0 1 -0.717,-0.017 0.862,0.862 0 0 1 -0.316,-0.213 c -0.092,-0.096 -0.164,-0.218 -0.217,-0.366 -0.053,-0.148 -0.079,-0.325 -0.079,-0.529 h 0.303 a 1,1 0 0 0 0.06,0.365 0.723,0.723 0 0 0 0.155,0.25 0.59,0.59 0 0 0 0.224,0.147 c 0.085,0.03 0.172,0.046 0.263,0.046 a 0.91,0.91 0 0 0 0.218,-0.027 0.495,0.495 0 0 0 0.339,-0.281 0.723,0.723 0 0 0 0.053,-0.3 0.545,0.545 0 0 0 -0.065,-0.282 0.544,0.544 0 0 0 -0.177,-0.177 1.076,1.076 0 0 0 -0.247,-0.111 12.673,12.673 0 0 1 -0.282,-0.086 3.54,3.54 0 0 1 -0.283,-0.103 0.888,0.888 0 0 1 -0.247,-0.155 0.693,0.693 0 0 1 -0.177,-0.249 0.978,0.978 0 0 1 -0.065,-0.382 c 0,-0.168 0.024,-0.315 0.073,-0.438 a 0.82,0.82 0 0 1 0.478,-0.484 0.973,0.973 0 0 1 0.667,0.003 0.74,0.74 0 0 1 0.279,0.192 0.96,0.96 0 0 1 0.188,0.33 c 0.046,0.134 0.072,0.292 0.076,0.477 h -0.303 c -0.017,-0.241 -0.079,-0.415 -0.186,-0.523 z m 0.725,-0.083 v -0.375 h 1.926 v 0.375 h -0.803 v 2.975 h -0.32 v -2.975 z m 3.857,-0.375 v 0.375 h -1.345 v 1.066 h 1.253 v 0.375 h -1.253 v 1.159 h 1.355 v 0.375 h -1.675 v -3.35 z m 0.844,0 0.76,2.816 0.763,-2.816 h 0.44 v 3.35 h -0.305 v -2.787 h -0.007 l -0.753,2.787 h -0.273 l -0.753,-2.787 h -0.007 v 2.787 h -0.303 v -3.35 z"
       id="path40"
       inkscape:connector-curvature="0"
       style="fill:#232226" />
  </g>
  <g
     id="g46">
    <circle
       cx="289.31699"
       cy="215.052"
       r="0.36899999"
       id="circle44"
       style="fill:#232226" />
  </g>
  <g
     id="g52">
    <path
       d="m 289.051,202.165 c -0.17,0.466 -0.311,0.943 -0.462,1.416 -0.392,1.233 -1.245,1.96 -2.499,2.194 -0.923,0.172 -1.852,0.214 -2.79,-0.248 0.355,0.552 0.759,0.945 1.344,1.12 0.681,0.204 1.376,0.177 2.073,0.112 0.423,-0.04 0.84,-0.104 1.183,-0.382 1.67,-1.353 2.036,-2.957 1.534,-5.014 -0.144,0.297 -0.288,0.54 -0.383,0.802 z m -4.586,-4.07 c 0.189,0.009 0.313,0.003 0.433,0.023 0.157,0.027 0.257,-0.019 0.334,-0.161 0.113,-0.208 0.239,-0.409 0.368,-0.607 0.117,-0.18 0.126,-0.348 0.006,-0.532 -0.159,-0.243 -0.324,-0.485 -0.451,-0.744 -0.133,-0.272 -0.327,-0.323 -0.615,-0.339 -0.391,-0.022 -0.644,0.086 -0.816,0.442 -0.112,0.232 -0.382,0.433 -0.392,0.656 -0.011,0.233 0.223,0.469 0.317,0.717 0.157,0.417 0.395,0.676 0.816,0.545 z m -3.303,0.809 c -0.638,-0.4 -1.268,0.001 -1.393,0.679 -0.006,0.031 0.007,0.08 0.03,0.101 0.291,0.268 0.609,0.487 0.968,0.526 0.16,-0.001 0.757,-0.458 0.79,-0.567 0.004,-0.014 0.008,-0.033 0.002,-0.044 -0.128,-0.237 -0.197,-0.57 -0.397,-0.695 z"
       id="path48"
       inkscape:connector-curvature="0"
       style="fill:#232226" />
    <path
       d="m 307.672,195.64 c -1.879,-1.892 -3.764,-3.78 -5.653,-5.662 a 0.497,0.497 0 0 0 -0.316,-0.129 c -2.652,-0.01 -5.303,-0.011 -7.955,-0.019 a 0.49,0.49 0 0 0 -0.38,0.159 c -1.59,1.596 -3.185,3.187 -4.777,4.782 -0.064,0.065 -0.108,0.15 -0.161,0.225 l -6.497,-6.476 c -0.036,0.032 -0.078,0.065 -0.115,0.102 -1.833,1.831 -3.666,3.661 -5.493,5.496 a 0.461,0.461 0 0 0 -0.117,0.298 c -0.009,3.027 -0.013,6.054 -0.009,9.081 a 0.52,0.52 0 0 0 0.137,0.335 c 2.123,2.136 4.254,4.265 6.38,6.398 a 0.459,0.459 0 0 0 0.357,0.153 l 9.035,0.007 a 0.51,0.51 0 0 0 0.397,-0.171 c 1.607,-1.612 3.218,-3.22 4.828,-4.829 0.058,-0.058 0.118,-0.112 0.143,-0.135 l 4.643,4.533 c -0.017,0.013 0.003,0.002 0.018,-0.014 1.854,-1.852 3.71,-3.703 5.559,-5.56 a 0.437,0.437 0 0 0 0.1,-0.282 c 0.006,-2.659 0.008,-5.319 0.002,-7.978 a 0.493,0.493 0 0 0 -0.126,-0.314 z m -13.375,-0.008 c 0.01,-0.072 0.105,-0.134 0.161,-0.2 0.004,-0.004 0.015,-0.003 0.022,-0.004 l 1.023,-0.239 c 0.412,0.263 0.825,0.524 1.234,0.791 0.041,0.027 0.057,0.093 0.062,0.102 -0.06,0.584 -0.111,1.117 -0.175,1.648 a 0.267,0.267 0 0 1 -0.137,0.176 c -0.322,0.139 -0.649,0.268 -0.98,0.387 a 0.273,0.273 0 0 1 -0.222,-0.037 c -0.363,-0.281 -0.72,-0.569 -1.07,-0.866 -0.056,-0.047 -0.092,-0.156 -0.085,-0.231 0.047,-0.513 0.093,-0.964 0.167,-1.527 z m 2.552,9.231 c -1.562,1.56 -3.122,3.121 -4.69,4.675 a 0.53,0.53 0 0 1 -0.336,0.135 c -2.813,0.007 -5.626,0.003 -8.439,0.007 a 0.46,0.46 0 0 1 -0.359,-0.151 c -1.99,-1.998 -3.986,-3.992 -5.974,-5.993 a 0.53,0.53 0 0 1 -0.138,-0.334 1836.04,1836.04 0 0 1 0,-8.462 c 0,-0.102 0.038,-0.233 0.107,-0.302 1.599,-1.609 3.205,-3.211 4.81,-4.815 0.032,-0.032 0.068,-0.059 0.092,-0.081 l 5.955,5.938 c -0.363,0.206 -0.262,0.555 -0.263,0.873 -0.004,1.295 -0.003,2.591 -0.003,3.886 0,0.053 0.006,0.106 0.011,0.186 h 0.251 c 1.556,10e-4 3.112,0.004 4.668,0 0.158,0 0.266,0.046 0.38,0.158 1.372,1.349 2.75,2.691 4.137,4.046 -0.111,0.126 -0.157,0.182 -0.209,0.234 z m 2.72,-10.826 c -0.023,0.053 -0.08,0.091 -0.121,0.137 -0.523,0.58 -0.523,0.58 -1.272,0.379 -0.042,-0.011 -0.114,-0.031 -0.117,-0.054 -0.029,-0.232 -0.11,-0.482 -0.053,-0.693 0.081,-0.301 0.266,-0.575 0.419,-0.887 0.042,0.007 0.102,0.017 0.161,0.029 0.75,0.15 0.753,0.149 1.02,0.871 0.023,0.06 -0.008,0.15 -0.037,0.218 z m 5.044,7.889 c -0.018,0.068 -0.105,0.144 -0.175,0.167 -0.27,0.084 -0.543,0.165 -0.821,0.214 -0.18,0.032 -0.233,0.127 -0.263,0.285 -0.089,0.466 -0.189,0.93 -0.283,1.394 -0.02,0.101 -0.038,0.178 -0.175,0.195 -0.623,0.077 -1.243,0.173 -1.866,0.251 -0.069,0.009 -0.162,-0.036 -0.218,-0.085 a 9.835,9.835 0 0 1 -0.583,-0.554 0.517,0.517 0 0 1 -0.123,-0.235 c -0.118,-0.53 -0.227,-1.061 -0.346,-1.622 0.569,-0.275 1.124,-0.548 1.683,-0.812 0.127,-0.06 0.182,-0.142 0.228,-0.28 0.233,-0.69 0.128,-1.374 0.004,-2.061 -0.014,-0.075 -0.023,-0.151 -0.032,-0.227 -0.005,-0.045 -0.005,-0.09 -0.009,-0.161 l 2.526,-0.567 0.382,1.633 c 0.038,0.164 0.053,0.337 0.114,0.491 0.268,0.667 0.132,1.321 -0.043,1.974 z"
       id="path50"
       inkscape:connector-curvature="0"
       style="fill:#232226" />
  </g>
</svg>
