<?xml version="1.0" encoding="UTF-8" standalone="no"?>
<svg
   xmlns:dc="http://purl.org/dc/elements/1.1/"
   xmlns:cc="http://creativecommons.org/ns#"
   xmlns:rdf="http://www.w3.org/1999/02/22-rdf-syntax-ns#"
   xmlns:svg="http://www.w3.org/2000/svg"
   xmlns="http://www.w3.org/2000/svg"
   xmlns:sodipodi="http://sodipodi.sourceforge.net/DTD/sodipodi-0.dtd"
   xmlns:inkscape="http://www.inkscape.org/namespaces/inkscape"
   viewBox="-290 382 30 30"
   version="1.1"
   id="svg78"
   sodipodi:docname="icon_filled.svg"
   inkscape:version="0.92.4 5da689c313, 2019-01-14">
  <metadata
     id="metadata84">
    <rdf:RDF>
      <cc:Work
         rdf:about="">
        <dc:format>image/svg+xml</dc:format>
        <dc:type
           rdf:resource="http://purl.org/dc/dcmitype/StillImage" />
      </cc:Work>
    </rdf:RDF>
  </metadata>
  <defs
     id="defs82" />
  <sodipodi:namedview
     pagecolor="#ffffff"
     bordercolor="#666666"
     borderopacity="1"
     objecttolerance="10"
     gridtolerance="10"
     guidetolerance="10"
     inkscape:pageopacity="0"
     inkscape:pageshadow="2"
     inkscape:window-width="471"
     inkscape:window-height="442"
     id="namedview80"
     showgrid="false"
     inkscape:zoom="7.8666667"
     inkscape:cx="15"
     inkscape:cy="15"
     inkscape:window-x="0"
     inkscape:window-y="0"
     inkscape:window-maximized="0"
     inkscape:current-layer="svg78">
    <inkscape:grid
       type="xygrid"
       id="grid86" />
  </sodipodi:namedview>
  <path
     fill="#09F"
     d="M-264.2 388.6c-.2-.2-1.9.1-2.9.6s-2.3 1.4-2.3 1.4-.8-2-2.7-4.3c-1.9-2.3-4.1-3.5-4.2-3.5-.2 0-2.4 1.2-4.2 3.5-1.9 2.3-2.7 4.3-2.7 4.3s-1.3-.9-2.3-1.4c-1-.5-2.7-.8-2.9-.6-.2.2-.5 1.8-.1 4.2.4 2.4 1.1 3.8 1.4 4.8.3 1-.2 1.4.3 4.6.6 3.7 2.7 4.4 2.7 4.4s5.2.4 7.6.4h.2c2.4 0 7.6-.4 7.6-.4s2.1-.7 2.7-4.4c.5-3.2 0-3.5.3-4.6s1.1-2.4 1.4-4.8.3-4 .1-4.2z"
     id="path2" />
  <path
     d="M-276 407h-.6c-2.4 0-7.4-.4-7.4-.4s-2.1-.8-2.7-4.5c-.3-1.8-.3-2.7-.2-3.3 0-.5 0-.8-.1-1.2-.1-.2-.2-.5-.3-.8-.4-.9-.9-2.2-1.1-4-.4-2.3-.2-3.9.1-4.2.3-.3 2 .1 3 .6.9.5 2 1.2 2.2 1.3.1-.3 1-2.2 2.6-4.2 1.9-2.3 4.1-3.6 4.3-3.6s2.4 1.2 4.3 3.6c1.7 2.1 2.5 3.9 2.6 4.2.2-.2 1.3-.9 2.2-1.3 1-.5 2.7-.8 3-.6.3.3.5 1.9.1 4.2-.3 1.8-.8 3.1-1.1 4-.1.3-.2.6-.3.8-.1.4-.1.7-.1 1.2 0 .6.1 1.5-.2 3.3-.6 3.7-2.7 4.5-2.7 4.5-.2 0-5.1.4-7.6.4zm-.3-.1c.1 0 .1 0 0 0h.3c2.4 0 7.2-.4 7.4-.4.1 0 2.1-.9 2.6-4.4.3-1.8.3-2.7.2-3.3 0-.5 0-.8.1-1.2.1-.2.2-.5.3-.8.4-.9.8-2.2 1.1-4 .4-2.4.1-3.9-.1-4.1-.2-.2-1.8 0-2.8.6-1 .5-2.3 1.4-2.3 1.4s-.8-2-2.7-4.3c-1.9-2.4-4-3.5-4.2-3.5-.2 0-2.3 1.2-4.2 3.5-1.9 2.3-2.6 4.3-2.7 4.3 0 0-1.3-.9-2.3-1.4-1-.5-2.6-.8-2.8-.6-.2.2-.5 1.7-.1 4.1.3 1.8.8 3.1 1.1 4 .1.3.2.6.3.8.1.4.1.8.1 1.2 0 .6-.1 1.5.2 3.3.6 3.5 2.5 4.3 2.6 4.4.5 0 5.5.4 7.9.4z"
     id="path4" />
  <path
     fill="#09F"
     d="M-281.4 392.1s-.5-.6-.9-.9c-.4-.3-.8-.7-.8-.7"
     id="path6" />
  <path
     d="M-281.4 392.2s-.1 0 0 0c0 0-.6-.6-1-.9-.4-.3-.8-.7-.8-.7l.1-.1s.4.3.8.7c.4.3.9.9.9 1 0-.1 0 0 0 0z"
     id="path8" />
  <path
     fill="#09F"
     d="M-271.1 392.1s.5-.6.9-.9c.4-.3.8-.7.8-.7"
     id="path10" />
  <path
     d="M-271.1 392.2c-.1 0-.1-.1 0 0 0-.1.5-.7.9-1l.8-.7h.1v.1l-.8.7c-.5.3-1 .9-1 .9z"
     id="path12" />
  <path
     fill="#09F"
     d="M-286.8 401c-.1.7-.7 2-1.2 2.7-.9 1.3-2 2-2 2.1 0 .1 2.9 1.1 4.8 2.2 1.8 1.1 4.8 2.7 6.4 2.9 1.7.3 2.5.2 2.5.2s.9.1 2.5-.2c1.7-.3 4.6-1.8 6.4-2.9 1.8-1.1 4.8-2.1 4.8-2.2 0-.1-1-1-2-2.1-.6-.8-1-1.8-1.2-2.6"
     id="path14" />
  <path
     d="M-276.1 411.2h-.2s-.9 0-2.5-.2c-1.8-.3-4.8-1.9-6.5-2.9-1.2-.7-2.8-1.4-3.8-1.8-.9-.4-1-.4-1-.5 0-.1.1-.1.4-.4.4-.4 1.1-1 1.6-1.8.5-.7 1.1-2 1.2-2.6h.1v.1c-.1.7-.7 2-1.2 2.7-.6.8-1.3 1.4-1.7 1.8l-.3.3c.1.1.5.2.9.4 1 .4 2.6 1.1 3.8 1.8 1.6 1 4.7 2.6 6.4 2.9 1.6.3 2.5.2 2.5.2s.9 0 2.5-.2c1.7-.3 4.8-1.9 6.4-2.9 1.2-.7 2.8-1.4 3.8-1.8.4-.2.8-.3.9-.4 0-.1-.2-.3-.4-.5-.4-.4-1-1-1.5-1.7-.6-.8-1-1.8-1.2-2.6v-.1h.1c.2.8.6 1.9 1.2 2.6.6.7 1.1 1.3 1.5 1.6.4.3.5.5.5.5 0 .1-.1.1-1 .5-1 .4-2.6 1.1-3.8 1.8-1.6 1-4.7 2.7-6.5 2.9-1 .3-1.8.3-2.2.3z"
     id="path16" />
  <path
     fill="#E51966"
     d="M-279.8 405.8c.9 0 1.7-.6 2-1.4-.3-.1-.5-.2-.8-.3-.3.5-.7.7-1.2.7-.8 0-1.5-.8-1.5-1.8 0-.2 0-.4.1-.5-.2-.2-.4-.3-.6-.5l-.1-.1c-.1.3-.2.7-.2 1.1 0 1.6 1.1 2.8 2.3 2.8z"
     id="path18" />
  <path
     d="M-279.8 405.8c-1.3 0-2.4-1.3-2.4-2.8 0-.4.1-.8.2-1.1.2.2.4.3.6.5v.1c0 .2-.1.3-.1.5 0 1 .7 1.7 1.5 1.7.5 0 .9-.3 1.2-.7h.1c.3.1.6.2.8.3-.2 1-1 1.5-1.9 1.5zm-2.1-3.8c-.1.3-.2.7-.2 1 0 1.5 1 2.7 2.3 2.7.8 0 1.6-.5 2-1.4-.2-.1-.5-.1-.7-.2-.3.5-.8.7-1.2.7-.9 0-1.6-.8-1.6-1.8 0-.2 0-.3.1-.5-.3-.1-.5-.3-.7-.5z"
     id="path20" />
  <path
     d="M-281.3 403c0 1 .7 1.8 1.5 1.8.5 0 1-.3 1.2-.7-.8-.3-1.7-.8-2.7-1.6.1.2 0 .4 0 .5z"
     id="path22" />
  <path
     d="M-279.8 404.9c-.9 0-1.6-.8-1.6-1.8 0-.2 0-.4.1-.5.8.7 1.7 1.2 2.6 1.5-.1.5-.6.8-1.1.8zm-1.4-2.3v.4c0 1 .7 1.7 1.5 1.7.4 0 .9-.2 1.1-.7-.9-.3-1.8-.8-2.6-1.4z"
     id="path24" />
  <path
     d="M-267.5 398.1s-1.1 2-3.2 3.9c-2.2 2-4.5 2.6-5.5 2.6-.3 0-.8-.1-1.4-.2-.4.9-1.2 1.4-2 1.4-1.3 0-2.3-1.2-2.3-2.7 0-.4.1-.8.2-1.1-1.1-1-1.9-2.1-2.5-2.8 0 0-.4 1.2-.2 2.9.2 1.4.6 2.6.7 2.7.4.4.8.8 1.4 1.2 1.4 1 2.6.8 3.3.6.6-.2 1.7-1.1 2.9-1.1s2.2.9 2.9 1.1c.6.2 1.9.4 3.3-.6s2.2-1.8 2.7-3.8c.3-2.1-.3-4.1-.3-4.1z"
     id="path26" />
  <path
     d="M-272.3 406.8c-.3 0-.7-.1-1.1-.2-.2-.1-.5-.2-.8-.4-.6-.3-1.3-.7-2.1-.7s-1.5.4-2.1.7c-.3.2-.6.3-.8.4-1.2.3-2.3.1-3.3-.6-.5-.3-1-.7-1.4-1.2-.1-.2-.5-1.3-.7-2.7-.2-1.7.2-2.9.2-3 .5.7 1.3 1.7 2.4 2.8v.1c-.1.3-.2.7-.2 1.1 0 1.5 1 2.7 2.3 2.7.8 0 1.6-.5 2-1.4h.1c.7.2 1.2.2 1.4.2-.4 0-.9-.1-1.4-.2-.4.9-1.2 1.4-2.1 1.4-1.3 0-2.4-1.3-2.4-2.8 0-.4.1-.8.2-1.1-1.1-1-1.9-2-2.4-2.7-.1.3-.3 1.4-.2 2.8.2 1.4.6 2.5.7 2.7.4.4.9.8 1.4 1.1 1 .7 2.1.9 3.2.6.2-.1.5-.2.8-.4.6-.3 1.3-.7 2.1-.7s1.5.4 2.1.7c.3.2.6.3.8.4 1.1.3 2.2.1 3.2-.6 1.3-.9 2.2-1.7 2.7-3.8.4-1.8 0-3.5-.1-3.9-.3.4-1.4 2.1-3.2 3.8-2.2 2.1-4.5 2.6-5.6 2.6v-.1c1 0 3.3-.5 5.5-2.6 2-1.9 3.2-3.9 3.2-3.9s.6 2 .1 4.1c-.5 2.2-1.4 2.9-2.7 3.9-.3.6-1 .9-1.8.9z"
     id="path28" />
  <path
     fill="#00197F"
     d="M-284.3 399.1c-.4-.6-.7-1.1-.7-1.1s-.6 2-.1 4.1c.3 1.3.7 2 1.3 2.7-.1-.2-.5-1.3-.7-2.7-.2-1.8.2-3 .2-3z"
     id="path30" />
  <path
     d="M-283.8 404.9s-.1 0 0 0c-.7-.7-1.1-1.5-1.4-2.7-.5-2.1.1-4.1.1-4.1s.2.4.7 1v.1c0 .1-.4 1.3-.2 2.9.3 1.4.7 2.5.8 2.8 0-.1 0-.1 0 0zm-1.2-6.7c-.1.4-.5 2.2-.1 3.9.3 1.1.6 1.8 1.1 2.4-.2-.4-.5-1.4-.6-2.5-.2-1.7.2-2.9.2-3-.3-.3-.5-.6-.6-.8z"
     id="path32" />
  <path
     fill="#00197F"
     d="M-268.2 399.1c.4-.6.7-1.1.7-1.1s.6 2 .1 4.1c-.3 1.3-.7 2-1.3 2.7.1-.2.5-1.3.7-2.7.2-1.8-.2-3-.2-3z"
     id="path34" />
  <path
     d="M-268.7 404.9c-.1-.1-.1-.1 0 0 0-.3.5-1.4.6-2.8.2-1.6-.1-2.8-.2-2.9v-.1c.5-.6.7-1 .7-1s.6 2 .1 4.1c-.1 1.1-.5 1.9-1.2 2.7zm.5-5.8c0 .1.4 1.3.2 3-.1 1.1-.4 2-.6 2.5.5-.6.9-1.4 1.1-2.4.4-1.8 0-3.5-.1-3.9 0 .1-.2.4-.6.8z"
     id="path36" />
  <path
     fill="#E51966"
     d="M-272.8 405.8c-.9 0-1.7-.6-2-1.4.3-.1.5-.2.8-.3.3.5.7.7 1.2.7.8 0 1.5-.8 1.5-1.8 0-.2 0-.4-.1-.5.2-.2.4-.3.6-.5l.1-.1c.1.3.2.7.2 1.1 0 1.6-1.1 2.8-2.3 2.8z"
     id="path38" />
  <path
     d="M-272.8 405.9c-.9 0-1.7-.6-2.1-1.5.3-.1.5-.2.8-.3h.1c.3.5.7.7 1.2.7.8 0 1.5-.8 1.5-1.7 0-.2 0-.3-.1-.5v-.1c.2-.2.4-.4.6-.5.1.4.2.7.2 1.1.1 1.5-.9 2.8-2.2 2.8zm-2-1.5c.4.8 1.2 1.4 2 1.4 1.3 0 2.3-1.2 2.3-2.7 0-.4-.1-.7-.2-1-.2.2-.4.3-.6.5 0 .2.1.3.1.5 0 1-.7 1.8-1.6 1.8-.5 0-1-.3-1.2-.7-.3.1-.6.1-.8.2z"
     id="path40" />
  <path
     d="M-271.3 403.1c0 1-.7 1.8-1.5 1.8-.5 0-1-.3-1.2-.7.8-.3 1.7-.8 2.7-1.6-.1.1 0 .3 0 .5z"
     id="path42" />
  <path
     d="M-272.8 404.9c-.5 0-1-.3-1.3-.8.9-.4 1.8-.9 2.6-1.5 0 .2.1.4.1.5.1 1-.6 1.8-1.4 1.8zm-1.2-.8c.3.4.7.7 1.2.7.8 0 1.5-.8 1.5-1.7v-.4c-.9.6-1.8 1.1-2.7 1.4z"
     id="path44" />
  <path
     fill="#E5E5E5"
     d="M-268.1 405.3c-.2-.6-.7-.6-1.2-.2-.4.4-1.4 1.4-3 1.6-1.6.1-2.9-1.3-4.1-1.3-1.1 0-2.4 1.4-4.1 1.3-1.6-.1-2.6-1.2-3-1.6-.4-.4-1-.4-1.2.2-.2.6 0 2 .8 2.9s2.3 2 4.7 2.7c1 .3 1.9.4 2.8.4.9 0 1.8-.1 2.8-.4 2.4-.7 3.9-1.7 4.7-2.7s1.1-2.3.8-2.9z"
     id="path46" />
  <path
     d="M-276.3 411.3c-.9 0-1.9-.2-2.8-.4-2.7-.8-4.1-2-4.7-2.7-.8-.9-1-2.4-.8-3 .1-.3.3-.4.5-.5.2-.1.5 0 .8.3.1 0 .1.1.2.2.5.5 1.4 1.3 2.8 1.4h.2c.8 0 1.6-.4 2.3-.7.6-.3 1.1-.6 1.6-.6s1.1.3 1.6.6c.7.3 1.4.7 2.3.7h.2c1.4-.1 2.3-.9 2.8-1.4l.2-.2c.3-.2.5-.3.8-.3.2.1.4.2.5.5.2.6 0 2-.8 3-.6.7-2 1.9-4.7 2.7-1.1.3-2 .4-3 .4zm-7.6-6.4h-.1c-.2 0-.3.2-.4.4-.2.6 0 2 .8 2.9.6.7 1.9 1.9 4.6 2.6.9.3 1.8.4 2.8.4.9 0 1.8-.2 2.8-.4 2.7-.7 4.1-2 4.6-2.6.8-.9 1-2.3.8-2.9-.1-.2-.2-.4-.4-.4-.2-.1-.5 0-.7.2-.1 0-.1.1-.2.2-.5.5-1.4 1.3-2.9 1.4h-.2c-.9 0-1.6-.4-2.3-.7-.6-.3-1.1-.6-1.6-.6s-1 .3-1.6.6c-.7.4-1.6.8-2.5.7-1.5-.1-2.4-.9-2.9-1.4l-.2-.2c-.1-.1-.3-.2-.4-.2z"
     id="path48" />
  <path
     fill="#E5E5E5"
     d="M-275.3 406.8c0 .5-.4 1-1 1-.5 0-1-.4-1-1 0-.5.4-1 1-1s1 .5 1 1z"
     id="path50" />
  <path
     d="M-276.3 407.9c-.6 0-1-.5-1-1 0-.6.5-1 1-1 .6 0 1 .5 1 1 .1.5-.4 1-1 1zm0-2c-.5 0-.9.4-.9.9s.4.9.9.9.9-.4.9-.9-.4-.9-.9-.9z"
     id="path52" />
  <path
     fill="#E5E5E5"
     d="M-284.2 407.3c0 .1-.1.2-.2.1l-.6-.2c-.1 0-.2-.1-.2-.2v-1.9c0-.1.1-.2.2-.2l.6-.2c.1 0 .2 0 .2.2v2.4z"
     id="path54" />
  <path
     d="M-284.3 407.5c-.1 0-.1 0 0 0l-.7-.2c-.1 0-.2-.1-.2-.3v-1.9c0-.1.1-.2.2-.2l.6-.2h.2s.1.1.1.2v2.4c0 .1 0 .1-.1.2h-.1zm0-2.7c-.1 0-.1 0 0 0l-.6.2c-.1 0-.1.1-.1.1v1.9c0 .1.1.1.1.2l.6.2h.1v-2.5l-.1-.1z"
     id="path56" />
  <path
     fill="#E5E5E5"
     d="M-268.4 407.3c0 .1.1.2.2.1l.6-.2c.1 0 .2-.1.2-.2v-1.9c0-.1-.1-.2-.2-.2l-.6-.2c-.1 0-.2 0-.2.2v2.4z"
     id="path58" />
  <path
     d="M-268.2 407.5h-.1s-.1-.1-.1-.2v-2.4c0-.1 0-.1.1-.2.1 0 .1-.1.2 0l.6.2c.1 0 .2.1.2.2v1.9c0 .1-.1.2-.2.3l-.7.2zm0-2.7s-.1 0 0 0c-.1 0-.1.1-.1.1v2.5h.1l.6-.2c.1 0 .1-.1.1-.2v-1.9c0-.1-.1-.1-.1-.1l-.6-.2z"
     id="path60" />
  <path
     fill="#FF0"
     d="M-284.3 394.5c-.9 1-1.4 2.2-1.4 2.2s-1.1-1.6-1.5-3.4c-.4-1.8-.4-3.3-.2-3.5.2-.2 1.7.5 2.7 1.1 1.5 1.1 2.5 2.2 2.5 2.2s-1.2.4-2.1 1.4z"
     id="path62" />
  <path
     d="M-285.7 396.8c-.1 0-.1-.1 0 0-.1 0-1.1-1.7-1.5-3.4-.4-1.7-.5-3.3-.2-3.5.3-.3 1.9.5 2.7 1.1 1.5 1.1 2.5 2.2 2.5 2.2s-1.1.4-2 1.3c-1 .9-1.5 2.2-1.5 2.3 0-.1 0 0 0 0zm-1.6-7c-.1 0-.1 0 0 0-.3.2-.3 1.7.2 3.5.4 1.5 1.2 2.9 1.4 3.3.1-.3.6-1.4 1.4-2.2.8-.8 1.7-1.2 2-1.3-.2-.2-1.1-1.2-2.4-2.1-1-.6-2.2-1.2-2.6-1.2z"
     id="path64" />
  <path
     fill="#FF0"
     d="M-268.2 394.5c.9 1 1.4 2.2 1.4 2.2s1.1-1.6 1.5-3.4c.4-1.8.4-3.3.2-3.5-.2-.2-1.7.5-2.7 1.1-1.5 1.1-2.5 2.2-2.5 2.2s1.2.4 2.1 1.4z"
     id="path66" />
  <path
     d="M-266.8 396.8s0-.1 0 0c-.1 0-.6-1.3-1.5-2.3-.9-.9-2-1.3-2-1.3s1-1.1 2.5-2.2c.9-.6 2.5-1.4 2.7-1.1.2.2.2 1.8-.2 3.5s-1.5 3.3-1.5 3.4c0-.1 0 0 0 0zm-1.4-2.4c.8.8 1.3 1.9 1.4 2.2.2-.3 1.1-1.8 1.4-3.3.4-1.8.4-3.3.2-3.4-.2-.2-1.6.4-2.6 1.1-1.3.9-2.2 1.9-2.4 2.1.3.1 1.2.5 2 1.3z"
     id="path68" />
  <path
     fill="#09F"
     d="M-286.4 403.3s-.2-.5-.3-1.2c-.1-.6-.1-1.1-.1-1.1"
     id="path70" />
  <path
     d="M-286.4 403.4s-.2-.6-.3-1.3c-.1-.5-.1-1.1-.1-1.1v-.1h.1s.1.5.1 1.1c.1.8.3 1.3.2 1.4.1-.1.1 0 0 0z"
     id="path72" />
  <path
     fill="#09F"
     d="M-266.2 403.3s.2-.5.3-1.2c.1-.6.1-1.1.1-1.1"
     id="path74" />
  <path
     d="M-266.2 403.4c0-.1.1-.6.2-1.3.1-.5.1-1.1.1-1.1h.1v.1s-.1.5-.1 1.1c-.1.6-.2 1.2-.3 1.2.1 0 0 0 0 0z"
     id="path76" />
</svg>
