<?xml version="1.0" encoding="UTF-8" standalone="no"?>
<svg
   xmlns:dc="http://purl.org/dc/elements/1.1/"
   xmlns:cc="http://creativecommons.org/ns#"
   xmlns:rdf="http://www.w3.org/1999/02/22-rdf-syntax-ns#"
   xmlns:svg="http://www.w3.org/2000/svg"
   xmlns="http://www.w3.org/2000/svg"
   xmlns:sodipodi="http://sodipodi.sourceforge.net/DTD/sodipodi-0.dtd"
   xmlns:inkscape="http://www.inkscape.org/namespaces/inkscape"
   viewBox="0 0 745 129.709"
   version="1.1"
   id="svg114"
   sodipodi:docname="logo.svg"
   width="745"
   height="129.709"
   inkscape:version="0.92.4 5da689c313, 2019-01-14">
  <metadata
     id="metadata120">
    <rdf:RDF>
      <cc:Work
         rdf:about="">
        <dc:format>image/svg+xml</dc:format>
        <dc:type
           rdf:resource="http://purl.org/dc/dcmitype/StillImage" />
      </cc:Work>
    </rdf:RDF>
  </metadata>
  <defs
     id="defs118" />
  <sodipodi:namedview
     pagecolor="#ffffff"
     bordercolor="#666666"
     borderopacity="1"
     objecttolerance="10"
     gridtolerance="10"
     guidetolerance="10"
     inkscape:pageopacity="0"
     inkscape:pageshadow="2"
     inkscape:window-width="471"
     inkscape:window-height="442"
     id="namedview116"
     showgrid="false"
     inkscape:zoom="0.36517645"
     inkscape:cx="371.0535"
     inkscape:cy="64.8545"
     inkscape:window-x="0"
     inkscape:window-y="0"
     inkscape:window-maximized="0"
     inkscape:current-layer="svg114" />
  <g
     id="g4"
     style="fill:#4c504e">
    <path
       d="m 62.588,0 v 4.545 h 4.471 v 53.573 h -4.471 v 4.471 H 49.176 V 58.118 H 44.705 V 44.706 h -4.471 v 4.471 h -4.471 v -4.471 h -4.471 v 13.412 h -4.471 v 4.471 H 4.471 V 58.118 H 0 V 4.545 H 4.471 V 0 h 22.353 v 4.545 h 4.471 v 17.808 h 4.471 v 4.471 h 4.471 v -4.471 h 4.471 V 4.545 h 4.471 V 0 Z M 4.471,4.545 v 8.867 h 4.471 v -4.47 h 4.471 V 4.545 Z M 134.117,0 v 4.545 h 4.471 v 49.102 h -4.471 v 4.471 h -4.471 v 4.471 H 84.941 V 58.118 H 80.47 V 53.647 H 76 V 4.545 h 4.471 V 0 h 22.353 v 4.545 h 4.471 v 40.161 h 8.942 V 4.545 h 4.471 V 0 Z M 80.47,4.545 v 8.867 h 4.471 v -4.47 h 4.471 V 4.545 Z m 120.705,40.161 v 4.471 h 4.471 v 8.941 h -4.471 v 4.471 h -49.176 v -4.471 h -4.471 V 4.545 h 4.471 V 0 h 22.353 v 4.545 h 4.471 V 44.706 Z M 151.999,4.545 v 8.867 h 4.471 v -4.47 h 4.471 V 4.545 Z m 67.057,0 V 0 h 53.647 v 4.545 h 4.471 v 8.792 h -4.471 v 4.545 h -13.412 v 40.235 h -4.471 v 4.471 h -17.883 v -4.471 h -4.471 V 17.883 h -13.412 v -4.545 h -4.471 V 4.545 Z m 0,8.792 h 4.471 V 8.942 h 4.471 V 4.545 h -8.941 v 8.792 z M 312.938,0 v 4.545 h 4.471 v 53.573 h -4.471 v 4.471 h -22.354 v -4.471 h -4.471 V 4.545 h 4.471 V 0 Z m -22.354,4.545 v 8.867 h 4.471 v -4.47 h 4.47 V 4.545 Z m 93.882,4.397 h 4.471 v 26.823 h -4.471 v 4.471 h -4.471 v 4.471 h -22.352 v 13.412 h -4.471 v 4.471 h -22.354 v -4.471 h -4.47 V 4.545 h 4.47 V 0 h 49.176 v 4.545 h 4.471 V 8.942 Z M 330.819,4.545 v 8.867 h 4.471 v -4.47 h 4.471 V 4.545 Z m 26.824,8.867 v 17.882 h 8.94 V 13.412 Z m 93.88,31.294 v 4.471 h 4.47 v 8.941 h -4.47 v 4.471 h -49.177 v -4.471 h -4.471 V 4.545 h 4.471 V 0 H 424.7 v 4.545 h 4.471 V 44.706 Z M 402.346,4.545 v 8.867 h 4.471 v -4.47 h 4.471 V 4.545 Z m 120.706,8.867 h 4.471 v 44.706 h -4.471 v 4.471 h -8.941 V 58.118 H 509.64 V 31.294 h -13.412 v 26.824 h -4.471 v 4.471 h -22.354 v -4.471 h -4.471 V 9.016 h 4.471 v 4.396 h 4.471 V 9.016 h 4.471 V 4.471 h -4.471 V 0 h 40.236 v 4.471 h 4.471 v 4.545 h 4.471 z m -26.824,8.941 h 13.412 v -8.941 h -13.412 z m 93.881,0 v 4.471 h -4.471 v 4.471 h -4.471 v 26.824 h -4.471 v 4.471 h -17.882 v -4.471 h -4.472 V 31.294 h -4.471 V 26.823 H 545.4 v -4.471 h -4.471 v -4.471 h -4.471 V 4.471 h 4.471 V 0 h 17.883 v 4.471 h 4.471 v 4.471 h 8.941 V 4.471 h 4.471 V 0 h 17.882 v 4.471 h 4.47 v 13.412 h -4.47 v 4.471 h -4.468 z M 540.932,4.471 v 8.942 h 4.471 V 8.942 h 4.471 V 4.471 Z M 666.108,0 v 4.396 h 4.471 v 4.545 h -4.471 v 4.471 h -26.823 v 8.941 h 26.823 v 4.471 h 4.471 v 4.545 h -4.471 v 4.471 h -26.823 v 8.867 h 26.823 v 4.471 h 4.471 v 8.941 h -4.471 V 62.59 H 612.461 V 58.119 H 607.99 V 4.396 h 4.471 V 0 Z m -53.647,4.396 v 9.016 h 4.471 v -4.47 h 4.471 V 4.396 Z m 125.175,0.149 v 4.396 h 4.471 v 17.882 h -4.471 v 4.471 h -4.471 v 4.471 h 4.471 v 4.471 h 4.471 v 17.883 h -4.471 v 4.471 h -8.941 v -4.471 h -4.471 v -4.471 h -4.47 v -4.471 h -4.471 v -4.471 h -4.471 v 13.412 h -4.471 v 4.471 h -22.354 v -4.471 h -4.471 V 4.545 h 4.471 V 0 h 49.177 v 4.545 z m -53.647,0 v 8.867 h 4.471 v -4.47 h 4.471 V 4.545 Z m 40.236,17.808 v -8.941 h -13.411 v 8.941 z"
       id="path2"
       inkscape:connector-curvature="0" />
  </g>
  <path
     d="m 197.243,129.709 h -12.38 a 4.647,4.647 0 0 1 -4.642,-4.642 v -8.253 h -8.253 a 4.647,4.647 0 0 1 -4.642,-4.642 v -12.38 a 4.647,4.647 0 0 1 4.642,-4.642 h 8.253 v -8.253 a 4.647,4.647 0 0 1 4.642,-4.642 h 12.38 a 4.647,4.647 0 0 1 4.642,4.642 v 8.253 h 8.253 a 4.647,4.647 0 0 1 4.642,4.642 v 12.38 a 4.647,4.647 0 0 1 -4.642,4.642 h -8.253 v 8.253 a 4.646,4.646 0 0 1 -4.642,4.642 z"
     id="path6"
     inkscape:connector-curvature="0"
     style="fill:#5e5f65" />
  <path
     d="m 210.139,95.149 h -8.253 v -8.253 a 4.647,4.647 0 0 0 -4.642,-4.642 h -6.19 v 47.455 h 6.19 a 4.647,4.647 0 0 0 4.642,-4.642 v -8.253 h 8.253 a 4.647,4.647 0 0 0 4.642,-4.642 v -12.38 a 4.648,4.648 0 0 0 -4.642,-4.643 z"
     id="path8"
     inkscape:connector-curvature="0"
     style="fill:#55575c" />
  <path
     d="m 178.158,110.624 c -0.396,0 -0.792,-0.151 -1.094,-0.453 l -3.095,-3.095 a 1.548,1.548 0 0 1 0,-2.188 l 3.095,-3.095 a 1.548,1.548 0 0 1 2.188,2.188 l -2.001,2.001 2.001,2.001 a 1.548,1.548 0 0 1 -1.094,2.641 z"
     id="path10"
     inkscape:connector-curvature="0"
     style="fill:#e3e7f4" />
  <path
     d="m 203.949,110.624 a 1.548,1.548 0 0 1 -1.094,-2.641 l 2.001,-2.001 -2.001,-2.001 a 1.548,1.548 0 0 1 2.188,-2.188 l 3.095,3.095 a 1.548,1.548 0 0 1 0,2.188 l -3.095,3.095 a 1.542,1.542 0 0 1 -1.094,0.453 z"
     id="path12"
     inkscape:connector-curvature="0"
     style="fill:#d6dceb" />
  <path
     d="m 191.053,123.519 c -0.396,0 -0.792,-0.151 -1.094,-0.453 l -3.095,-3.095 a 1.548,1.548 0 0 1 2.188,-2.188 l 2.001,2.001 2.001,-2.001 a 1.548,1.548 0 0 1 2.188,2.188 l -3.095,3.095 a 1.542,1.542 0 0 1 -1.094,0.453 z"
     id="path14"
     inkscape:connector-curvature="0"
     style="fill:#e3e7f4" />
  <path
     d="m 195.242,117.783 a 1.548,1.548 0 0 0 -2.188,0 l -2.001,2.001 v 3.736 c 0.396,0 0.792,-0.151 1.094,-0.453 l 3.095,-3.095 a 1.547,1.547 0 0 0 0,-2.189 z"
     id="path16"
     inkscape:connector-curvature="0"
     style="fill:#d6dceb" />
  <path
     d="m 194.148,94.633 c -0.396,0 -0.792,-0.151 -1.094,-0.453 l -2.001,-2.001 -2.001,2.001 a 1.548,1.548 0 0 1 -2.188,-2.188 l 3.095,-3.095 a 1.548,1.548 0 0 1 2.188,0 l 3.095,3.095 a 1.548,1.548 0 0 1 -1.094,2.641 z"
     id="path18"
     inkscape:connector-curvature="0"
     style="fill:#e3e7f4" />
  <path
     d="m 195.242,91.992 -3.095,-3.095 a 1.542,1.542 0 0 0 -1.094,-0.453 v 3.736 l 2.001,2.001 c 0.302,0.302 0.698,0.453 1.094,0.453 a 1.547,1.547 0 0 0 1.094,-2.642 z"
     id="path20"
     inkscape:connector-curvature="0"
     style="fill:#d6dceb" />
  <path
     d="m 191.053,110.624 c -2.56,0 -4.642,-2.082 -4.642,-4.642 0,-2.56 2.082,-4.642 4.642,-4.642 2.56,0 4.642,2.082 4.642,4.642 0,2.56 -2.082,4.642 -4.642,4.642 z"
     id="path22"
     inkscape:connector-curvature="0"
     style="fill:#7f8086" />
  <path
     d="m 191.053,101.339 v 9.285 c 2.56,0 4.642,-2.082 4.642,-4.642 0,-2.56 -2.082,-4.643 -4.642,-4.643 z"
     id="path24"
     inkscape:connector-curvature="0"
     style="fill:#74777e" />
  <g
     id="g46">
    <path
       d="m 287.243,129.709 h -12.38 a 4.647,4.647 0 0 1 -4.642,-4.642 v -8.253 h -8.253 a 4.647,4.647 0 0 1 -4.642,-4.642 v -12.38 a 4.647,4.647 0 0 1 4.642,-4.642 h 8.253 v -8.253 a 4.647,4.647 0 0 1 4.642,-4.642 h 12.38 a 4.647,4.647 0 0 1 4.642,4.642 v 8.253 h 8.253 a 4.647,4.647 0 0 1 4.642,4.642 v 12.38 a 4.647,4.647 0 0 1 -4.642,4.642 h -8.253 v 8.253 a 4.646,4.646 0 0 1 -4.642,4.642 z"
       id="path26"
       inkscape:connector-curvature="0"
       style="fill:#5e5f65" />
    <path
       d="m 300.139,95.149 h -8.253 v -8.253 a 4.647,4.647 0 0 0 -4.642,-4.642 h -6.19 v 47.455 h 6.19 a 4.647,4.647 0 0 0 4.642,-4.642 v -8.253 h 8.253 a 4.647,4.647 0 0 0 4.642,-4.642 v -12.38 a 4.648,4.648 0 0 0 -4.642,-4.643 z"
       id="path28"
       inkscape:connector-curvature="0"
       style="fill:#55575c" />
    <path
       d="m 268.158,110.624 c -0.396,0 -0.792,-0.151 -1.094,-0.453 l -3.095,-3.095 a 1.548,1.548 0 0 1 0,-2.188 l 3.095,-3.095 a 1.548,1.548 0 0 1 2.188,2.188 l -2.001,2.001 2.001,2.001 a 1.548,1.548 0 0 1 -1.094,2.641 z"
       id="path30"
       inkscape:connector-curvature="0"
       style="fill:#e3e7f4" />
    <path
       d="m 293.949,110.624 a 1.548,1.548 0 0 1 -1.094,-2.641 l 2.001,-2.001 -2.001,-2.001 a 1.548,1.548 0 0 1 2.188,-2.188 l 3.095,3.095 a 1.548,1.548 0 0 1 0,2.188 l -3.095,3.095 a 1.542,1.542 0 0 1 -1.094,0.453 z"
       id="path32"
       inkscape:connector-curvature="0"
       style="fill:#d6dceb" />
    <path
       d="m 281.053,123.519 c -0.396,0 -0.792,-0.151 -1.094,-0.453 l -3.095,-3.095 a 1.548,1.548 0 0 1 2.188,-2.188 l 2.001,2.001 2.001,-2.001 a 1.548,1.548 0 0 1 2.188,2.188 l -3.095,3.095 a 1.542,1.542 0 0 1 -1.094,0.453 z"
       id="path34"
       inkscape:connector-curvature="0"
       style="fill:#e3e7f4" />
    <path
       d="m 285.242,117.783 a 1.548,1.548 0 0 0 -2.188,0 l -2.001,2.001 v 3.736 c 0.396,0 0.792,-0.151 1.094,-0.453 l 3.095,-3.095 a 1.547,1.547 0 0 0 0,-2.189 z"
       id="path36"
       inkscape:connector-curvature="0"
       style="fill:#d6dceb" />
    <path
       d="m 284.148,94.633 c -0.396,0 -0.792,-0.151 -1.094,-0.453 l -2.001,-2.001 -2.001,2.001 a 1.548,1.548 0 0 1 -2.188,-2.188 l 3.095,-3.095 a 1.548,1.548 0 0 1 2.188,0 l 3.095,3.095 a 1.548,1.548 0 0 1 -1.094,2.641 z"
       id="path38"
       inkscape:connector-curvature="0"
       style="fill:#e3e7f4" />
    <path
       d="m 285.242,91.992 -3.095,-3.095 a 1.542,1.542 0 0 0 -1.094,-0.453 v 3.736 l 2.001,2.001 c 0.302,0.302 0.698,0.453 1.094,0.453 a 1.547,1.547 0 0 0 1.094,-2.642 z"
       id="path40"
       inkscape:connector-curvature="0"
       style="fill:#d6dceb" />
    <path
       d="m 281.053,110.624 c -2.56,0 -4.642,-2.082 -4.642,-4.642 0,-2.56 2.082,-4.642 4.642,-4.642 2.56,0 4.642,2.082 4.642,4.642 0,2.56 -2.082,4.642 -4.642,4.642 z"
       id="path42"
       inkscape:connector-curvature="0"
       style="fill:#7f8086" />
    <path
       d="m 281.053,101.339 v 9.285 c 2.56,0 4.642,-2.082 4.642,-4.642 0,-2.56 -2.082,-4.643 -4.642,-4.643 z"
       id="path44"
       inkscape:connector-curvature="0"
       style="fill:#74777e" />
  </g>
  <g
     id="g68">
    <path
       d="m 377.243,129.709 h -12.38 a 4.647,4.647 0 0 1 -4.642,-4.642 v -8.253 h -8.253 a 4.647,4.647 0 0 1 -4.642,-4.642 v -12.38 a 4.647,4.647 0 0 1 4.642,-4.642 h 8.253 v -8.253 a 4.647,4.647 0 0 1 4.642,-4.642 h 12.38 a 4.647,4.647 0 0 1 4.642,4.642 v 8.253 h 8.253 a 4.647,4.647 0 0 1 4.642,4.642 v 12.38 a 4.647,4.647 0 0 1 -4.642,4.642 h -8.253 v 8.253 a 4.646,4.646 0 0 1 -4.642,4.642 z"
       id="path48"
       inkscape:connector-curvature="0"
       style="fill:#5e5f65" />
    <path
       d="m 390.139,95.149 h -8.253 v -8.253 a 4.647,4.647 0 0 0 -4.642,-4.642 h -6.19 v 47.455 h 6.19 a 4.647,4.647 0 0 0 4.642,-4.642 v -8.253 h 8.253 a 4.647,4.647 0 0 0 4.642,-4.642 v -12.38 a 4.648,4.648 0 0 0 -4.642,-4.643 z"
       id="path50"
       inkscape:connector-curvature="0"
       style="fill:#55575c" />
    <path
       d="m 358.158,110.624 c -0.396,0 -0.792,-0.151 -1.094,-0.453 l -3.095,-3.095 a 1.548,1.548 0 0 1 0,-2.188 l 3.095,-3.095 a 1.548,1.548 0 0 1 2.188,2.188 l -2.001,2.001 2.001,2.001 a 1.548,1.548 0 0 1 -1.094,2.641 z"
       id="path52"
       inkscape:connector-curvature="0"
       style="fill:#e3e7f4" />
    <path
       d="m 383.949,110.624 a 1.548,1.548 0 0 1 -1.094,-2.641 l 2.001,-2.001 -2.001,-2.001 a 1.548,1.548 0 0 1 2.188,-2.188 l 3.095,3.095 a 1.548,1.548 0 0 1 0,2.188 l -3.095,3.095 a 1.542,1.542 0 0 1 -1.094,0.453 z"
       id="path54"
       inkscape:connector-curvature="0"
       style="fill:#d6dceb" />
    <path
       d="m 371.053,123.519 c -0.396,0 -0.792,-0.151 -1.094,-0.453 l -3.095,-3.095 a 1.548,1.548 0 0 1 2.188,-2.188 l 2.001,2.001 2.001,-2.001 a 1.548,1.548 0 0 1 2.188,2.188 l -3.095,3.095 a 1.542,1.542 0 0 1 -1.094,0.453 z"
       id="path56"
       inkscape:connector-curvature="0"
       style="fill:#e3e7f4" />
    <path
       d="m 375.242,117.783 a 1.548,1.548 0 0 0 -2.188,0 l -2.001,2.001 v 3.736 c 0.396,0 0.792,-0.151 1.094,-0.453 l 3.095,-3.095 a 1.547,1.547 0 0 0 0,-2.189 z"
       id="path58"
       inkscape:connector-curvature="0"
       style="fill:#d6dceb" />
    <path
       d="m 374.148,94.633 c -0.396,0 -0.792,-0.151 -1.094,-0.453 l -2.001,-2.001 -2.001,2.001 a 1.548,1.548 0 0 1 -2.188,-2.188 l 3.095,-3.095 a 1.548,1.548 0 0 1 2.188,0 l 3.095,3.095 a 1.548,1.548 0 0 1 -1.094,2.641 z"
       id="path60"
       inkscape:connector-curvature="0"
       style="fill:#e3e7f4" />
    <path
       d="m 375.242,91.992 -3.095,-3.095 a 1.542,1.542 0 0 0 -1.094,-0.453 v 3.736 l 2.001,2.001 c 0.302,0.302 0.698,0.453 1.094,0.453 a 1.547,1.547 0 0 0 1.094,-2.642 z"
       id="path62"
       inkscape:connector-curvature="0"
       style="fill:#d6dceb" />
    <path
       d="m 371.053,110.624 c -2.56,0 -4.642,-2.082 -4.642,-4.642 0,-2.56 2.082,-4.642 4.642,-4.642 2.56,0 4.642,2.082 4.642,4.642 0,2.56 -2.082,4.642 -4.642,4.642 z"
       id="path64"
       inkscape:connector-curvature="0"
       style="fill:#7f8086" />
    <path
       d="m 371.053,101.339 v 9.285 c 2.56,0 4.642,-2.082 4.642,-4.642 0,-2.56 -2.082,-4.643 -4.642,-4.643 z"
       id="path66"
       inkscape:connector-curvature="0"
       style="fill:#74777e" />
  </g>
  <g
     id="g90">
    <path
       d="m 467.243,129.709 h -12.38 a 4.647,4.647 0 0 1 -4.642,-4.642 v -8.253 h -8.253 a 4.647,4.647 0 0 1 -4.642,-4.642 v -12.38 a 4.647,4.647 0 0 1 4.642,-4.642 h 8.253 v -8.253 a 4.647,4.647 0 0 1 4.642,-4.642 h 12.38 a 4.647,4.647 0 0 1 4.642,4.642 v 8.253 h 8.253 a 4.647,4.647 0 0 1 4.642,4.642 v 12.38 a 4.647,4.647 0 0 1 -4.642,4.642 h -8.253 v 8.253 a 4.646,4.646 0 0 1 -4.642,4.642 z"
       id="path70"
       inkscape:connector-curvature="0"
       style="fill:#5e5f65" />
    <path
       d="m 480.139,95.149 h -8.253 v -8.253 a 4.647,4.647 0 0 0 -4.642,-4.642 h -6.19 v 47.455 h 6.19 a 4.647,4.647 0 0 0 4.642,-4.642 v -8.253 h 8.253 a 4.647,4.647 0 0 0 4.642,-4.642 v -12.38 a 4.648,4.648 0 0 0 -4.642,-4.643 z"
       id="path72"
       inkscape:connector-curvature="0"
       style="fill:#55575c" />
    <path
       d="m 448.158,110.624 c -0.396,0 -0.792,-0.151 -1.094,-0.453 l -3.095,-3.095 a 1.548,1.548 0 0 1 0,-2.188 l 3.095,-3.095 a 1.548,1.548 0 0 1 2.188,2.188 l -2.001,2.001 2.001,2.001 a 1.548,1.548 0 0 1 -1.094,2.641 z"
       id="path74"
       inkscape:connector-curvature="0"
       style="fill:#e3e7f4" />
    <path
       d="m 473.949,110.624 a 1.548,1.548 0 0 1 -1.094,-2.641 l 2.001,-2.001 -2.001,-2.001 a 1.548,1.548 0 0 1 2.188,-2.188 l 3.095,3.095 a 1.548,1.548 0 0 1 0,2.188 l -3.095,3.095 a 1.542,1.542 0 0 1 -1.094,0.453 z"
       id="path76"
       inkscape:connector-curvature="0"
       style="fill:#d6dceb" />
    <path
       d="m 461.053,123.519 c -0.396,0 -0.792,-0.151 -1.094,-0.453 l -3.095,-3.095 a 1.548,1.548 0 0 1 2.188,-2.188 l 2.001,2.001 2.001,-2.001 a 1.548,1.548 0 0 1 2.188,2.188 l -3.095,3.095 a 1.542,1.542 0 0 1 -1.094,0.453 z"
       id="path78"
       inkscape:connector-curvature="0"
       style="fill:#e3e7f4" />
    <path
       d="m 465.242,117.783 a 1.548,1.548 0 0 0 -2.188,0 l -2.001,2.001 v 3.736 c 0.396,0 0.792,-0.151 1.094,-0.453 l 3.095,-3.095 a 1.547,1.547 0 0 0 0,-2.189 z"
       id="path80"
       inkscape:connector-curvature="0"
       style="fill:#d6dceb" />
    <path
       d="m 464.148,94.633 c -0.396,0 -0.792,-0.151 -1.094,-0.453 l -2.001,-2.001 -2.001,2.001 a 1.548,1.548 0 0 1 -2.188,-2.188 l 3.095,-3.095 a 1.548,1.548 0 0 1 2.188,0 l 3.095,3.095 a 1.548,1.548 0 0 1 -1.094,2.641 z"
       id="path82"
       inkscape:connector-curvature="0"
       style="fill:#e3e7f4" />
    <path
       d="m 465.242,91.992 -3.095,-3.095 a 1.542,1.542 0 0 0 -1.094,-0.453 v 3.736 l 2.001,2.001 c 0.302,0.302 0.698,0.453 1.094,0.453 a 1.547,1.547 0 0 0 1.094,-2.642 z"
       id="path84"
       inkscape:connector-curvature="0"
       style="fill:#d6dceb" />
    <path
       d="m 461.053,110.624 c -2.56,0 -4.642,-2.082 -4.642,-4.642 0,-2.56 2.082,-4.642 4.642,-4.642 2.56,0 4.642,2.082 4.642,4.642 0,2.56 -2.082,4.642 -4.642,4.642 z"
       id="path86"
       inkscape:connector-curvature="0"
       style="fill:#7f8086" />
    <path
       d="m 461.053,101.339 v 9.285 c 2.56,0 4.642,-2.082 4.642,-4.642 0,-2.56 -2.082,-4.643 -4.642,-4.643 z"
       id="path88"
       inkscape:connector-curvature="0"
       style="fill:#74777e" />
  </g>
  <g
     id="g112">
    <path
       d="m 557.243,129.709 h -12.38 a 4.647,4.647 0 0 1 -4.642,-4.642 v -8.253 h -8.253 a 4.647,4.647 0 0 1 -4.642,-4.642 v -12.38 a 4.647,4.647 0 0 1 4.642,-4.642 h 8.253 v -8.253 a 4.647,4.647 0 0 1 4.642,-4.642 h 12.38 a 4.647,4.647 0 0 1 4.642,4.642 v 8.253 h 8.253 a 4.647,4.647 0 0 1 4.642,4.642 v 12.38 a 4.647,4.647 0 0 1 -4.642,4.642 h -8.253 v 8.253 a 4.646,4.646 0 0 1 -4.642,4.642 z"
       id="path92"
       inkscape:connector-curvature="0"
       style="fill:#5e5f65" />
    <path
       d="m 570.139,95.149 h -8.253 v -8.253 a 4.647,4.647 0 0 0 -4.642,-4.642 h -6.19 v 47.455 h 6.19 a 4.647,4.647 0 0 0 4.642,-4.642 v -8.253 h 8.253 a 4.647,4.647 0 0 0 4.642,-4.642 v -12.38 a 4.648,4.648 0 0 0 -4.642,-4.643 z"
       id="path94"
       inkscape:connector-curvature="0"
       style="fill:#55575c" />
    <path
       d="m 538.158,110.624 c -0.396,0 -0.792,-0.151 -1.094,-0.453 l -3.095,-3.095 a 1.548,1.548 0 0 1 0,-2.188 l 3.095,-3.095 a 1.548,1.548 0 0 1 2.188,2.188 l -2.001,2.001 2.001,2.001 a 1.548,1.548 0 0 1 -1.094,2.641 z"
       id="path96"
       inkscape:connector-curvature="0"
       style="fill:#e3e7f4" />
    <path
       d="m 563.949,110.624 a 1.548,1.548 0 0 1 -1.094,-2.641 l 2.001,-2.001 -2.001,-2.001 a 1.548,1.548 0 0 1 2.188,-2.188 l 3.095,3.095 a 1.548,1.548 0 0 1 0,2.188 l -3.095,3.095 a 1.542,1.542 0 0 1 -1.094,0.453 z"
       id="path98"
       inkscape:connector-curvature="0"
       style="fill:#d6dceb" />
    <path
       d="m 551.053,123.519 c -0.396,0 -0.792,-0.151 -1.094,-0.453 l -3.095,-3.095 a 1.548,1.548 0 0 1 2.188,-2.188 l 2.001,2.001 2.001,-2.001 a 1.548,1.548 0 0 1 2.188,2.188 l -3.095,3.095 a 1.542,1.542 0 0 1 -1.094,0.453 z"
       id="path100"
       inkscape:connector-curvature="0"
       style="fill:#e3e7f4" />
    <path
       d="m 555.242,117.783 a 1.548,1.548 0 0 0 -2.188,0 l -2.001,2.001 v 3.736 c 0.396,0 0.792,-0.151 1.094,-0.453 l 3.095,-3.095 a 1.547,1.547 0 0 0 0,-2.189 z"
       id="path102"
       inkscape:connector-curvature="0"
       style="fill:#d6dceb" />
    <path
       d="m 554.148,94.633 c -0.396,0 -0.792,-0.151 -1.094,-0.453 l -2.001,-2.001 -2.001,2.001 a 1.548,1.548 0 0 1 -2.188,-2.188 l 3.095,-3.095 a 1.548,1.548 0 0 1 2.188,0 l 3.095,3.095 a 1.548,1.548 0 0 1 -1.094,2.641 z"
       id="path104"
       inkscape:connector-curvature="0"
       style="fill:#e3e7f4" />
    <path
       d="m 555.242,91.992 -3.095,-3.095 a 1.542,1.542 0 0 0 -1.094,-0.453 v 3.736 l 2.001,2.001 c 0.302,0.302 0.698,0.453 1.094,0.453 0.396,0 0.792,-0.151 1.094,-0.453 a 1.547,1.547 0 0 0 0,-2.189 z"
       id="path106"
       inkscape:connector-curvature="0"
       style="fill:#d6dceb" />
    <path
       d="m 551.053,110.624 c -2.56,0 -4.642,-2.082 -4.642,-4.642 0,-2.56 2.082,-4.642 4.642,-4.642 2.56,0 4.642,2.082 4.642,4.642 0,2.56 -2.082,4.642 -4.642,4.642 z"
       id="path108"
       inkscape:connector-curvature="0"
       style="fill:#7f8086" />
    <path
       d="m 551.053,101.339 v 9.285 c 2.56,0 4.642,-2.082 4.642,-4.642 0,-2.56 -2.082,-4.643 -4.642,-4.643 z"
       id="path110"
       inkscape:connector-curvature="0"
       style="fill:#74777e" />
  </g>
</svg>
