<?xml version="1.0" encoding="UTF-8" standalone="no"?>
<svg
   xmlns:dc="http://purl.org/dc/elements/1.1/"
   xmlns:cc="http://creativecommons.org/ns#"
   xmlns:rdf="http://www.w3.org/1999/02/22-rdf-syntax-ns#"
   xmlns:svg="http://www.w3.org/2000/svg"
   xmlns="http://www.w3.org/2000/svg"
   xmlns:sodipodi="http://sodipodi.sourceforge.net/DTD/sodipodi-0.dtd"
   xmlns:inkscape="http://www.inkscape.org/namespaces/inkscape"
   viewBox="0 0 131.2 164.9"
   version="1.1"
   id="svg14"
   sodipodi:docname="game.svg"
   width="131.2"
   height="164.89999"
   inkscape:version="0.92.4 5da689c313, 2019-01-14">
  <metadata
     id="metadata20">
    <rdf:RDF>
      <cc:Work
         rdf:about="">
        <dc:format>image/svg+xml</dc:format>
        <dc:type
           rdf:resource="http://purl.org/dc/dcmitype/StillImage" />
      </cc:Work>
    </rdf:RDF>
  </metadata>
  <defs
     id="defs18" />
  <sodipodi:namedview
     pagecolor="#ffffff"
     bordercolor="#666666"
     borderopacity="1"
     objecttolerance="10"
     gridtolerance="10"
     guidetolerance="10"
     inkscape:pageopacity="0"
     inkscape:pageshadow="2"
     inkscape:window-width="471"
     inkscape:window-height="442"
     id="namedview16"
     showgrid="false"
     inkscape:zoom="1.4311705"
     inkscape:cx="65.599998"
     inkscape:cy="82.450003"
     inkscape:window-x="0"
     inkscape:window-y="0"
     inkscape:window-maximized="0"
     inkscape:current-layer="svg14" />
  <path
     d="M 129,164.9 H 2.2 C 1,164.9 0,163.9 0,162.7 V 2.2 C 0,1 1,0 2.2,0 H 129 c 1.2,0 2.2,1 2.2,2.2 v 160.5 c 0,1.2 -1,2.2 -2.2,2.2 z"
     id="path2"
     inkscape:connector-curvature="0"
     style="fill:#2b2a2b" />
  <path
     d="M 123.3,157.5 H 8 c -1.4,0 -2.5,-1.1 -2.5,-2.5 V 10.5 C 5.5,9.1 6.6,8 8,8 h 115.3 c 1.4,0 2.5,1.1 2.5,2.5 V 155 c -0.1,1.4 -1.2,2.5 -2.5,2.5 z"
     id="path4"
     inkscape:connector-curvature="0"
     style="fill:#a7afb6" />
  <path
     d="m 28.3,29.1 h 74.6 v 97.7 H 28.3 Z"
     id="path6"
     inkscape:connector-curvature="0"
     style="fill:#bbbdbf" />
  <g
     id="g10"
     style="clip-rule:evenodd;fill:#ad2b37;fill-rule:evenodd">
    <path
       d="m 9.7,25.9 c 0.1,-0.4 0.2,-0.7 0.4,-1.1 0.1,-0.4 0.3,-0.9 0.4,-1.3 0.2,-0.8 0.5,-1.6 0.7,-2.3 0.1,-0.3 0.3,-0.5 0.6,-0.6 0.3,-0.1 0.8,0 1,0.4 0.1,0.2 0.2,0.5 0.3,0.8 0.1,0.4 0.3,0.9 0.4,1.3 0.3,0.9 0.5,1.8 0.8,2.7 0,0.1 0,0.1 0.1,0.2 H 13.2 L 12.9,25.1 12.8,25 H 11.3 L 11,25.9 C 11,26 10.9,26 10.9,26 10.4,25.9 10.1,25.9 9.7,25.9 Z M 12,21.7 c -0.2,0.7 -0.3,1.4 -0.5,2.2 h 0.9 C 12.3,23.2 12.2,22.4 12,21.7 Z m 13.3,4.2 v -5.4 h 1.2 v 5.4 z m -2.9,-4.3 v 4.3 h -1.2 v -0.2 -4.4 c 0,-0.3 0.4,-0.8 0.8,-0.8 h 1.1 c 0.7,0 1.4,0.5 1.6,1.2 0.2,0.6 -0.1,1.2 -0.5,1.5 -0.1,0.1 -0.3,0.2 -0.4,0.3 0.5,0.8 0.9,1.6 1.4,2.4 h -1.3 c 0,0 -0.1,0 -0.1,-0.1 -0.4,-0.7 -0.8,-1.4 -1.1,-2.1 -0.3,-0.5 -0.1,-0.8 0.4,-1 0.2,-0.1 0.3,-0.1 0.4,-0.3 0.2,-0.2 0.2,-0.4 0,-0.6 -0.1,-0.2 -0.3,-0.3 -0.6,-0.3 -0.2,0.1 -0.3,0.1 -0.5,0.1 z m -1.3,4.3 H 19.9 L 19.6,25 19.5,24.9 H 18 l -0.3,0.9 -0.1,0.1 h -1.1 c 0.1,-0.3 0.2,-0.7 0.3,-1 0.3,-1.1 0.7,-2.1 1,-3.2 0.1,-0.3 0.2,-0.5 0.3,-0.8 0.3,-0.6 0.9,-0.6 1.3,-0.2 0.2,0.2 0.3,0.4 0.3,0.6 0.2,0.5 0.3,1.1 0.5,1.6 0.3,0.9 0.5,1.8 0.8,2.7 0.1,0.2 0.1,0.2 0.1,0.3 z m -2.3,-4.2 c -0.2,0.7 -0.3,1.4 -0.5,2.1 h 0.9 C 19.1,23.2 19,22.4 18.8,21.7 Z m -4,4.2 v -4.3 h -1 v -1 h 3.3 v 1 h -1 v 4.3 z"
       id="path8"
       inkscape:connector-curvature="0" />
  </g>
  <path
     d="M 27.7,11.7 H 40.4 L 34,26.3 H 28.7 L 33.6,16 h -5.9 z m 19.7,6.7 c 1.2,0.4 2.1,0.9 2.7,1.6 0.6,0.7 1,1.5 1,2.5 0,1.3 -0.6,2.3 -1.7,3.1 -1.1,0.8 -2.6,1.2 -4.5,1.2 -1.9,0 -3.4,-0.4 -4.6,-1.1 -1.1,-0.8 -1.7,-1.8 -1.7,-3.1 0,-0.3 0,-0.6 0.1,-0.9 0.1,-0.3 0.2,-0.6 0.3,-0.8 0.1,-0.3 0.3,-0.5 0.5,-0.7 0.2,-0.2 0.4,-0.4 0.7,-0.6 0.3,-0.2 0.6,-0.4 0.9,-0.5 0.4,-0.2 0.7,-0.3 1.1,-0.5 -0.6,-0.2 -1.1,-0.4 -1.5,-0.7 -0.4,-0.2 -0.8,-0.6 -1,-1.1 -0.3,-0.5 -0.4,-1 -0.4,-1.6 0,-1 0.5,-1.9 1.6,-2.6 1.1,-0.7 2.5,-1 4.1,-1 1.7,0 3,0.4 4.1,1.1 1.1,0.7 1.6,1.6 1.6,2.7 0,0.7 -0.3,1.3 -0.8,1.9 -0.7,0.2 -1.5,0.7 -2.5,1.1 z m -0.9,3.2 C 46.5,20.6 46,20 45,20 c -1,0 -1.6,0.5 -1.6,1.4 0,1 0.5,1.5 1.6,1.5 1,0.1 1.5,-0.4 1.5,-1.3 z M 46,15.8 c 0,-0.9 -0.4,-1.3 -1.2,-1.3 -0.8,0 -1.2,0.4 -1.2,1.2 0,0.5 0.1,0.8 0.3,1 0.2,0.2 0.5,0.3 0.9,0.3 0.9,0 1.2,-0.4 1.2,-1.2 z m 23.6,-4.4 c 2,0 3.5,0.7 4.6,2 1,1.3 1.6,3.2 1.6,5.7 0,2.5 -0.5,4.4 -1.6,5.7 -1.1,1.3 -2.6,2 -4.5,2 -1.9,0 -3.3,-0.6 -4.4,-1.8 -1.1,-1.2 -1.7,-3.2 -1.7,-5.9 0,-2.4 0.5,-4.3 1.6,-5.6 0.9,-1.5 2.4,-2.1 4.4,-2.1 z m -2.1,7.5 c 0,2.1 0.7,3.1 2,3.1 0.7,0 1.3,-0.2 1.6,-0.7 0.3,-0.5 0.5,-1.2 0.5,-2.2 0,-1.1 -0.2,-1.9 -0.5,-2.4 -0.3,-0.5 -0.9,-0.8 -1.6,-0.8 -1.3,0.1 -2,1.1 -2,3 z M 57.1,11.4 c 2,0 3.5,0.7 4.6,2 1,1.3 1.6,3.2 1.6,5.7 0,2.5 -0.5,4.4 -1.6,5.7 -1.1,1.3 -2.6,2 -4.5,2 -1.9,0 -3.3,-0.6 -4.4,-1.8 -1.1,-1.2 -1.7,-3.2 -1.7,-5.9 0,-2.4 0.5,-4.3 1.6,-5.6 0.9,-1.5 2.4,-2.1 4.4,-2.1 z M 55,18.9 c 0,2.1 0.7,3.1 2,3.1 0.7,0 1.3,-0.2 1.6,-0.7 0.3,-0.5 0.5,-1.2 0.5,-2.2 0,-1.1 -0.2,-1.9 -0.5,-2.4 C 58.3,16.3 57.8,16 57,16 c -1.3,0 -2,1 -2,2.9 z"
     id="path12"
     inkscape:connector-curvature="0"
     style="fill:#a62f34" />
</svg>
