<?xml version="1.0" encoding="UTF-8" standalone="no"?>
<!-- Generator: Adobe Illustrator 22.0.0, SVG Export Plug-In . SVG Version: 6.00 Build 0)  -->

<svg
   xmlns:dc="http://purl.org/dc/elements/1.1/"
   xmlns:cc="http://creativecommons.org/ns#"
   xmlns:rdf="http://www.w3.org/1999/02/22-rdf-syntax-ns#"
   xmlns:svg="http://www.w3.org/2000/svg"
   xmlns="http://www.w3.org/2000/svg"
   xmlns:sodipodi="http://sodipodi.sourceforge.net/DTD/sodipodi-0.dtd"
   xmlns:inkscape="http://www.inkscape.org/namespaces/inkscape"
   version="1.1"
   id="Capa_1"
   x="0px"
   y="0px"
   viewBox="0 0 107 166"
   xml:space="preserve"
   sodipodi:docname="controller.svg"
   width="107"
   height="166"
   inkscape:version="0.92.4 5da689c313, 2019-01-14"><metadata
   id="metadata41"><rdf:RDF><cc:Work
       rdf:about=""><dc:format>image/svg+xml</dc:format><dc:type
         rdf:resource="http://purl.org/dc/dcmitype/StillImage" /></cc:Work></rdf:RDF></metadata><defs
   id="defs39" /><sodipodi:namedview
   pagecolor="#ffffff"
   bordercolor="#666666"
   borderopacity="1"
   objecttolerance="10"
   gridtolerance="10"
   guidetolerance="10"
   inkscape:pageopacity="0"
   inkscape:pageshadow="2"
   inkscape:window-width="471"
   inkscape:window-height="442"
   id="namedview37"
   showgrid="false"
   inkscape:zoom="1.4242607"
   inkscape:cx="53.450001"
   inkscape:cy="82.950005"
   inkscape:window-x="0"
   inkscape:window-y="0"
   inkscape:window-maximized="0"
   inkscape:current-layer="Capa_1" />
<g
   id="g34"
   transform="translate(0,0.2)">
	<path
   d="M 103.9,82.7 98.2,24.4 c 0,-3.9 -3,-7 -6.6,-7 H 16 c -3.6,0 -6.6,3.2 -6.6,7 0,0 -6.4,58.3 -6.4,58.3 9.9,-18 28.6,-31 50.2,-31 21.9,0 40.9,12.6 50.7,31 z"
   id="path2"
   inkscape:connector-curvature="0"
   style="fill:#2b3138" />
	<path
   d="m 3.1,82 c 9.9,-18 29,-31 50.6,-31 21.9,0 40.7,13.3 50.5,31.7 0,0 1.7,17.3 1.7,17.3 C 101,74.9 79.4,56 53.5,56 27.6,56 6,74.9 1.1,100 c 0,0 2,-18 2,-18 z"
   id="path4"
   inkscape:connector-curvature="0"
   style="fill:#221a1f" />
	<ellipse
   cx="53.5"
   cy="110.9"
   rx="53.5"
   ry="54.900002"
   id="ellipse6"
   style="fill:#2b3138" />
	<g
   id="g28">
		<g
   id="g20">
			<path
   d="m 26.1,35.6 c 1.3,0.9 3,1.4 4.7,1.4 1.7,0 3.4,-0.5 4.7,-1.4 0,0 -9.4,0 -9.4,0 z"
   id="path8"
   inkscape:connector-curvature="0"
   style="fill:#31383f" />
			<path
   d="m 24.4,34.2 h 12.7 c 0.4,-0.4 0.7,-0.9 1,-1.4 H 23.4 c 0.3,0.5 0.6,1 1,1.4 z"
   id="path10"
   inkscape:connector-curvature="0"
   style="fill:#31383f" />
			<path
   d="m 22.7,31.4 h 16 c 0.2,-0.5 0.3,-0.9 0.4,-1.4 0,-0.2 0.1,-0.5 0.1,-0.7 0,0 -16.9,0 -16.9,0 0,0.2 0,0.5 0.1,0.7 0.1,0.4 0.2,0.9 0.3,1.4"
   id="path12"
   inkscape:connector-curvature="0"
   style="fill:#31383f" />
			<path
   d="m 39.2,27.8 c 0,-0.2 0,-0.5 -0.1,-0.7 -0.1,-0.5 -0.2,-1 -0.4,-1.4 0,0 -16,0 -16,0 -0.2,0.5 -0.3,0.9 -0.4,1.4 0,0.2 -0.1,0.5 -0.1,0.7 h 17"
   id="path14"
   inkscape:connector-curvature="0"
   style="fill:#31383f" />
			<path
   d="m 24.4,22.8 h 12.7 c 0.4,0.4 0.7,0.9 1,1.4 0,0 -14.7,0 -14.7,0 0.3,-0.4 0.6,-0.9 1,-1.4 z"
   id="path16"
   inkscape:connector-curvature="0"
   style="fill:#31383f" />
			<path
   d="m 35.5,21.4 c -1.3,-0.9 -3,-1.4 -4.7,-1.4 -1.7,0 -3.4,0.5 -4.7,1.4 0,0 9.4,0 9.4,0 z"
   id="path18"
   inkscape:connector-curvature="0"
   style="fill:#31383f" />
		</g>
		<g
   id="g24">
			<polygon
   points="7.1,45.6 52.6,45.6 52.6,17.4 53.6,17.4 53.6,45.6 100.3,45.6 100.4,46.6 7,46.6 "
   id="polygon22"
   style="fill:#221a1f" />
		</g>
		<path
   d="m 56.9,56.2 v 0 c -0.7,0 -1.4,0.5 -1.4,1.3 l -1.5,26 c 0,0.7 0.5,1.4 1.3,1.4 v 0 c 0.7,0 1.4,-0.5 1.4,-1.3 l 1.4,-26.1 c 0.1,-0.6 -0.5,-1.3 -1.2,-1.3 z"
   id="path26"
   inkscape:connector-curvature="0"
   style="fill:#31383f" />
	</g>
	<g
   id="g32">
		<path
   d="M 54.8,17.4 H 51.7 C 52.1,15.9 52.6,12.6 51.2,9.6 49.5,5.6 45.1,3 40,2.8 39.8,2.8 39.6,2.6 39.6,2.4 V 0.3 c 0,-0.3 0.2,-0.5 0.5,-0.5 6.2,0.2 11.6,3.5 13.9,8.6 1.7,3.7 1.3,7.1 0.8,9 z"
   id="path30"
   inkscape:connector-curvature="0"
   style="fill:#1e1b1d" />
	</g>
</g>
</svg>