<?xml version="1.0" encoding="UTF-8" standalone="no"?>
<svg
   xmlns:dc="http://purl.org/dc/elements/1.1/"
   xmlns:cc="http://creativecommons.org/ns#"
   xmlns:rdf="http://www.w3.org/1999/02/22-rdf-syntax-ns#"
   xmlns:svg="http://www.w3.org/2000/svg"
   xmlns="http://www.w3.org/2000/svg"
   xmlns:sodipodi="http://sodipodi.sourceforge.net/DTD/sodipodi-0.dtd"
   xmlns:inkscape="http://www.inkscape.org/namespaces/inkscape"
   viewBox="0 0 541.9 386.9"
   version="1.1"
   id="svg99"
   sodipodi:docname="console.svg"
   width="541.90002"
   height="386.89999"
   inkscape:version="0.92.4 5da689c313, 2019-01-14">
  <metadata
     id="metadata105">
    <rdf:RDF>
      <cc:Work
         rdf:about="">
        <dc:format>image/svg+xml</dc:format>
        <dc:type
           rdf:resource="http://purl.org/dc/dcmitype/StillImage" />
      </cc:Work>
    </rdf:RDF>
  </metadata>
  <defs
     id="defs103" />
  <sodipodi:namedview
     pagecolor="#ffffff"
     bordercolor="#666666"
     borderopacity="1"
     objecttolerance="10"
     gridtolerance="10"
     guidetolerance="10"
     inkscape:pageopacity="0"
     inkscape:pageshadow="2"
     inkscape:window-width="640"
     inkscape:window-height="480"
     id="namedview101"
     showgrid="false"
     inkscape:zoom="0.50009225"
     inkscape:cx="270.95001"
     inkscape:cy="193.45"
     inkscape:window-x="0"
     inkscape:window-y="0"
     inkscape:window-maximized="0"
     inkscape:current-layer="svg99" />
  <path
     d="M 541.9,3.5 V 141.6 H 0 V 3.5 C 0,1.6 1.6,0 3.5,0 h 69.1 v 23.4 h 4.9 V 0 H 85 v 23.4 h 5 V 0 h 7.5 v 23.4 h 3.9 V 0 h 7.5 v 23.4 h 4.9 V 0 h 7.5 v 23.4 h 5 V 0 h 7.5 v 23.4 h 3.6 V 0 h 7.5 v 23.4 h 4.9 V 0 h 7.5 v 23.4 h 5 V 0 h 7.5 v 23.4 h 3.1 V 0 h 7.5 v 23.4 h 4.9 V 0 h 7.5 v 23.4 h 5 V 0 h 7.5 v 23.4 h 3.6 V 0 h 7.5 v 23.4 h 4.9 V 0 h 7.5 v 23.4 h 5 V 0 h 7.5 v 23.4 h 3.1 V 0 h 7.5 v 23.4 h 4.9 V 0 h 7.5 v 23.4 h 5 V 0 h 7.5 v 23.4 h 3.6 V 0 h 7.5 v 23.4 h 4.9 V 0 h 7.5 v 23.4 h 5 V 0 h 7.5 V 23.4 H 317 V 0 h 7.5 v 23.4 h 4.9 V 0 h 7.5 v 23.4 h 5 V 0 h 7.5 V 23.4 H 353 V 0 h 7.5 v 23.4 h 4.9 V 0 h 7.5 v 23.4 h 5 V 0 h 7.5 v 23.4 h 4.7 V 0 h 7.5 v 23.4 h 4.9 V 0 h 7.5 v 23.4 h 5 V 0 h 7.5 v 23.4 h 3.6 V 0 h 7.5 v 23.4 h 4.9 V 0 h 7.5 v 23.4 h 5 V 0 h 7.5 v 23.4 h 4.8 V 0 h 75.2 c 1.8,0 3.4,1.6 3.4,3.5 z"
     id="path2"
     inkscape:connector-curvature="0"
     style="fill:#2b2a2b" />
  <g
     id="g6"
     style="fill:#1d1d1d">
    <path
       d="m 72.6,3.9 h 4.9 v 19.5 h -4.9 z m 12.4,0 h 5 v 19.5 h -5 z m 12.5,0 h 3.9 v 19.5 h -3.9 z m 11.4,0 h 4.9 v 19.5 h -4.9 z m 12.4,0 h 5 v 19.5 h -5 z m 12.5,0 h 3.6 v 19.5 h -3.6 z m 11.1,0 h 4.9 v 19.5 h -4.9 z m 12.4,0 h 5 v 19.5 h -5 z m 12.5,0 h 3.1 v 19.5 h -3.1 z m 10.6,0 h 4.9 v 19.5 h -4.9 z m 12.4,0 h 5 v 19.5 h -5 z m 12.5,0 h 3.6 v 19.5 h -3.6 z m 11,0 h 4.9 v 19.5 h -4.9 z m 12.5,0 h 5 v 19.5 h -5 z m 12.4,0 h 3.1 v 19.5 h -3.1 z m 10.6,0 h 4.9 v 19.5 h -4.9 z m 12.4,0 h 5 v 19.5 h -5 z m 12.5,0 h 3.6 v 19.5 h -3.6 z m 11.1,0 h 4.9 v 19.5 h -4.9 z m 12.4,0 h 5 v 19.5 h -5 z m 12.5,0 h 4.2 v 19.5 h -4.2 z m 11.7,0 h 4.9 v 19.5 h -4.9 z m 12.4,0 h 5 v 19.5 h -5 z m 12.5,0 h 3.6 v 19.5 h -3.6 z m 11.1,0 h 4.9 v 19.5 h -4.9 z m 12.4,0 h 5 v 19.5 h -5 z m 12.5,0 h 4.7 v 19.5 h -4.7 z m 12.2,0 h 4.9 v 19.5 h -4.9 z m 12.4,0 h 5 v 19.5 h -5 z m 12.5,0 h 3.6 v 19.5 h -3.6 z m 11.1,0 h 4.9 v 19.5 h -4.9 z m 12.4,0 h 5 v 19.5 h -5 z m 12.5,0 h 4.8 v 19.5 h -4.8 z"
       id="path4"
       inkscape:connector-curvature="0" />
  </g>
  <path
     d="m 0,141.6 v 96.9 h 541.9 v -96.9 z"
     id="path8"
     inkscape:connector-curvature="0"
     style="fill:#a5a5a5" />
  <path
     d="m 409.5,340.9 h 27.1 v 14.4 h -27.1 z m -305.4,0 h 26.4 v 14.4 H 104.1 Z M 0,340.9 h 68.4 v 14.4 H 0 Z"
     id="path10"
     inkscape:connector-curvature="0"
     style="fill:#1d1d1d" />
  <path
     d="M 0,238.2 H 541.9 V 340.9 H 0 Z m 541.9,117.1 v 28.1 c 0,1.9 -1.6,3.5 -3.5,3.5 H 3.5 C 1.6,386.9 0,385.3 0,383.4 v -28.1 z"
     id="path12"
     inkscape:connector-curvature="0"
     style="fill:#2b2a2b" />
  <path
     d="m 469.8,340.9 h 72 v 14.4 h -72 z"
     id="path14"
     inkscape:connector-curvature="0"
     style="fill:#1d1d1d" />
  <path
     d="m 68.4,340.9 h 35.7 v 14.4 H 68.4 Z m 62.2,0 h 35.2 v 14.4 h -35.2 z"
     id="path16"
     inkscape:connector-curvature="0"
     style="fill:#161616" />
  <path
     d="m 165.7,340.9 h 208.5 v 14.4 H 165.7 Z"
     id="path18"
     inkscape:connector-curvature="0"
     style="fill:#1d1d1d" />
  <path
     d="m 374.2,340.9 h 35.3 v 14.4 h -35.3 z m 62.4,0 h 33.2 v 14.4 h -33.2 z"
     id="path20"
     inkscape:connector-curvature="0"
     style="fill:#161616" />
  <path
     d="m 120.4,348.1 c 0,1.9 -1.5,3.4 -3.4,3.4 -1.9,0 -3.4,-1.5 -3.4,-3.4 0,-1.9 1.5,-3.4 3.4,-3.4 1.9,0 3.4,1.5 3.4,3.4 z"
     id="path22"
     inkscape:connector-curvature="0"
     style="fill:#ec1c24" />
  <linearGradient
     id="a"
     gradientUnits="userSpaceOnUse"
     x1="16.936001"
     y1="217.702"
     x2="524.93597"
     y2="217.702">
    <stop
       offset="0"
       stop-color="#f06824"
       id="stop24" />
    <stop
       offset=".049"
       stop-color="#f06b23"
       id="stop26" />
    <stop
       offset=".092"
       stop-color="#f17620"
       id="stop28" />
    <stop
       offset=".133"
       stop-color="#f3881b"
       id="stop30" />
    <stop
       offset=".172"
       stop-color="#f6a115"
       id="stop32" />
    <stop
       offset=".209"
       stop-color="#f9c10c"
       id="stop34" />
    <stop
       offset=".235"
       stop-color="#fcdc05"
       id="stop36" />
    <stop
       offset=".444"
       stop-color="#a9b01e"
       id="stop38" />
    <stop
       offset=".545"
       stop-color="#869d28"
       id="stop40" />
    <stop
       offset=".611"
       stop-color="#4f8c6a"
       id="stop42" />
    <stop
       offset=".667"
       stop-color="#26809c"
       id="stop44" />
    <stop
       offset=".71"
       stop-color="#0d78ba"
       id="stop46" />
    <stop
       offset=".734"
       stop-color="#0375c6"
       id="stop48" />
    <stop
       offset=".74"
       stop-color="#036ebb"
       id="stop50" />
    <stop
       offset=".766"
       stop-color="#045395"
       id="stop52" />
    <stop
       offset=".793"
       stop-color="#053b74"
       id="stop54" />
    <stop
       offset=".822"
       stop-color="#052959"
       id="stop56" />
    <stop
       offset=".854"
       stop-color="#051a45"
       id="stop58" />
    <stop
       offset=".889"
       stop-color="#061036"
       id="stop60" />
    <stop
       offset=".932"
       stop-color="#060a2e"
       id="stop62" />
    <stop
       offset="1"
       stop-color="#06082b"
       id="stop64" />
  </linearGradient>
  <path
     d="m 16.9,205.3 h 508 v 24.8 h -508 z"
     id="path67"
     inkscape:connector-curvature="0"
     style="fill:url(#a)" />
  <path
     d="M 347.6,68.6 H 192.5 c -3.2,0 -5.9,2.7 -5.9,5.9 V 123 c 0,3.2 2.7,5.9 5.9,5.9 h 155.1 c 3.2,0 5.9,-2.7 5.9,-5.9 V 74.5 c 0,-3.2 -2.6,-5.9 -5.9,-5.9 z m -0.6,48.8 c 0,2.7 -2.2,5 -5,5 H 200.4 c -2.7,0 -4.9,-2.2 -4.9,-5 V 81.9 c 0,-2.7 2.2,-5 4.9,-5 H 342 c 2.7,0 5,2.2 5,5 z"
     id="path69"
     inkscape:connector-curvature="0"
     style="fill:#1d1d1d" />
  <path
     d="M 342,76.9 H 200.4 c -2.7,0 -4.9,2.2 -4.9,5 v 35.5 c 0,2.7 2.2,5 4.9,5 H 342 c 2.7,0 5,-2.2 5,-5 V 81.9 c 0,-2.8 -2.3,-5 -5,-5 z m -4,39.2 H 203.9 v -12.6 h 4.5 v 2.3 H 221 v -2.3 h 100.4 v 2.3 h 10.9 v -2.3 h 5.8 v 12.6 z m 0,-14.7 h -5.8 v -2.6 h -10.9 v 2.6 H 221 v -2.6 h -12.5 v 2.6 H 204 v -14 h 134 z"
     id="path71"
     inkscape:connector-curvature="0"
     style="fill:#161616" />
  <path
     d="m 338,103.5 v 12.6 H 203.9 v -12.6 h 4.5 v 2.3 H 221 v -2.3 h 100.3 v 2.3 h 11 v -2.3 z m 0,-16.1 v 14 h -5.7 v -2.6 h -11 v 2.6 H 221 v -2.6 h -12.6 v 2.6 h -4.5 v -14 z"
     id="path73"
     inkscape:connector-curvature="0"
     style="fill:#2b2a2b" />
  <g
     id="g77"
     style="clip-rule:evenodd;fill:#b7b7b7;fill-rule:evenodd">
    <path
       d="m 243.4,196 c -1.3,0.1 -2.6,-0.1 -3.8,-0.6 -1.2,-0.5 -2.4,-1.1 -3.4,-1.9 -0.4,-0.4 -0.9,-0.8 -1.3,-1.2 -0.8,-0.8 -1.5,-1.8 -2.1,-2.8 -0.6,-1 -1.1,-2.1 -1.4,-3.3 -0.3,-1 -0.6,-2 -0.7,-3.1 -0.1,-0.9 -0.2,-1.8 -0.2,-2.7 v -11.2 -0.4 h 2.2 v 8.6 c 0,0.9 0.2,1.7 0.3,2.6 0.1,1.1 0.4,2.1 0.8,3.1 0.6,1.5 1.3,3 2.3,4.2 0.6,0.7 1.1,1.4 1.8,2 1.5,1.3 3.2,2.3 5.2,2.7 0.1,0 0.1,0 0.2,0.1 0.1,1.3 0.1,2.6 0.1,3.9 z m -13.9,-27.2 v 27.1 h -3.3 v -27.1 z m 38.9,25.9 c -1.4,-4.5 -2.7,-8.9 -4.1,-13.4 -0.7,-2.2 -1.3,-4.4 -2,-6.6 -0.4,-1.3 -0.9,-2.6 -1.5,-3.8 -1,-2 -3.5,-2.4 -4.8,-2 -1.6,0.5 -2.4,1.7 -2.8,3.2 -1.2,3.9 -2.4,7.7 -3.6,11.6 -0.7,2.2 -1.3,4.3 -2,6.5 l -1.8,5.4 v 0.3 h 5.5 c 0.4,0 0.6,-0.1 0.7,-0.5 0.4,-1.5 0.9,-3 1.4,-4.5 h 7.4 c 0.2,0 0.5,0.3 0.5,0.5 0.5,1.5 0.9,3 1.3,4.5 h 6.1 c -0.1,-0.6 -0.2,-0.9 -0.3,-1.2 z m -13.5,-9.1 c 0.8,-3.6 1.6,-7.2 2.4,-10.7 h 0.1 c 0.7,3.6 1.5,7.1 2.2,10.7 z m 68.6,10.3 v -26.8 h 6 v 26.8 z M 212.4,196 v -3.7 c 0,-0.1 0.1,-0.2 0.2,-0.2 1,-0.2 2,-0.5 2.9,-1.1 0.7,-0.4 1.4,-0.9 2.1,-1.4 1.1,-0.9 2.1,-2 2.8,-3.2 0.6,-1 1.2,-2 1.5,-3.2 0.3,-1 0.6,-2.1 0.9,-3.1 0.1,-0.5 0.2,-1 0.2,-1.5 0,-3.1 0,-6.3 0.1,-9.4 V 169 h 2.2 v 12.5 c 0,0.8 -0.2,1.6 -0.3,2.4 -0.1,1 -0.4,2.1 -0.8,3 -0.6,1.6 -1.3,3 -2.4,4.3 -0.5,0.6 -1,1.2 -1.5,1.7 -1.1,1 -2.3,1.8 -3.7,2.3 -1.2,0.5 -2.5,0.7 -3.8,0.7 -0.2,0.1 -0.3,0.1 -0.4,0.1 z m 96.7,-21.7 v 21.4 h -5.7 v -0.9 c 0,-7.3 0.1,-14.6 0,-21.9 0,-1.7 1.9,-3.8 3.8,-3.8 1.8,0 3.7,-0.1 5.5,0 3.5,0.1 6.8,2.3 7.9,5.8 0.8,2.7 -0.3,5.9 -2.6,7.5 -0.7,0.5 -1.4,0.9 -2.2,1.4 2.3,3.9 4.6,7.8 7,11.8 -0.2,0 -0.4,0.1 -0.6,0.1 h -5.9 c -0.2,0 -0.5,-0.1 -0.6,-0.3 L 310,184.9 c -1.4,-2.7 -0.3,-3.9 2,-4.9 0.8,-0.3 1.5,-0.7 2.2,-1.3 1.2,-1 0.9,-2.2 0.2,-3.2 -0.7,-0.9 -1.5,-1.5 -2.7,-1.3 -1,0.2 -1.7,0.1 -2.6,0.1 z m -6.8,20.4 c -1.4,-4.5 -2.7,-8.9 -4.1,-13.4 l -2.4,-8.1 c -0.4,-1.2 -0.8,-2.4 -1.7,-3.2 -2.1,-1.9 -5.3,-1.8 -6.6,1.1 -0.5,1.2 -0.9,2.5 -1.3,3.8 -1.7,5.3 -3.3,10.7 -5,16 -0.5,1.6 -1,3.2 -1.5,4.9 h 5.7 c 0.2,0 0.5,-0.2 0.5,-0.4 0.5,-1.5 1,-3 1.4,-4.5 h 7.4 c 0.2,0 0.5,0.3 0.5,0.4 0.5,1.5 0.9,3 1.3,4.5 h 6.1 c -0.1,-0.5 -0.2,-0.8 -0.3,-1.1 z m -13.6,-9.1 c 0.8,-3.6 1.6,-7.1 2.4,-10.7 h 0.1 c 0.7,3.5 1.5,7.1 2.2,10.7 z m -17.5,10.1 V 174.3 H 266 v -5.1 h 16.2 v 5.1 h -5.1 v 21.4 z"
       id="path75"
       inkscape:connector-curvature="0" />
  </g>
  <g
     id="g81"
     style="fill:#ffffff">
    <path
       d="m 75.9,348.3 v 1.9 h -0.6 v -4.9 h 1.3 c 0.5,0 0.9,0.1 1.2,0.4 0.3,0.3 0.4,0.6 0.4,1.1 0,0.5 -0.2,0.8 -0.5,1.1 -0.3,0.3 -0.8,0.4 -1.3,0.4 z m 0,-2.5 v 2 h 0.6 c 0.4,0 0.7,-0.1 0.9,-0.3 0.2,-0.2 0.3,-0.4 0.3,-0.8 0,-0.6 -0.4,-1 -1.1,-1 h -0.7 z m 5.1,4.5 c -0.7,0 -1.2,-0.2 -1.7,-0.7 -0.4,-0.5 -0.6,-1.1 -0.6,-1.8 0,-0.8 0.2,-1.4 0.6,-1.9 0.4,-0.5 1,-0.7 1.7,-0.7 0.7,0 1.2,0.2 1.6,0.7 0.4,0.5 0.6,1.1 0.6,1.8 0,0.8 -0.2,1.4 -0.6,1.9 -0.3,0.4 -0.9,0.7 -1.6,0.7 z m 0.1,-4.6 c -0.5,0 -0.9,0.2 -1.3,0.6 -0.3,0.4 -0.5,0.9 -0.5,1.5 0,0.6 0.2,1.1 0.5,1.5 0.3,0.4 0.7,0.6 1.2,0.6 0.5,0 1,-0.2 1.3,-0.5 0.3,-0.4 0.5,-0.8 0.5,-1.5 0,-0.6 -0.2,-1.1 -0.5,-1.5 -0.3,-0.5 -0.7,-0.7 -1.2,-0.7 z m 8.8,-0.4 -1.4,4.9 h -0.7 l -1,-3.6 c 0,-0.2 -0.1,-0.3 -0.1,-0.5 0,0.2 0,0.3 -0.1,0.5 l -1,3.6 H 85 l -1.4,-4.9 h 0.6 l 1,3.8 c 0,0.2 0.1,0.3 0.1,0.5 0,-0.1 0,-0.3 0.1,-0.5 l 1.1,-3.8 H 87 l 1,3.8 c 0,0.1 0.1,0.3 0.1,0.5 0,-0.1 0,-0.3 0.1,-0.5 l 1,-3.8 z m 3.1,4.9 h -2.6 v -4.9 h 2.5 v 0.5 H 91 v 1.6 h 1.8 v 0.5 H 91 v 1.7 h 2 z m 4.2,0 h -0.7 l -0.8,-1.4 c -0.1,-0.1 -0.1,-0.2 -0.2,-0.3 -0.1,-0.1 -0.1,-0.2 -0.2,-0.2 -0.1,-0.1 -0.2,-0.1 -0.2,-0.1 h -0.8 v 2.1 h -0.6 v -4.9 h 1.5 c 0.2,0 0.4,0 0.6,0.1 0.2,0.1 0.3,0.1 0.5,0.2 0.1,0.1 0.2,0.2 0.3,0.4 0.1,0.2 0.1,0.4 0.1,0.6 0,0.2 0,0.3 -0.1,0.5 -0.1,0.1 -0.1,0.3 -0.2,0.4 l -0.3,0.3 c -0.1,0.1 -0.3,0.1 -0.4,0.2 0.1,0 0.2,0.1 0.2,0.1 0.1,0 0.1,0.1 0.2,0.2 l 0.2,0.2 c 0.1,0.1 0.1,0.2 0.2,0.3 z m -3,-4.4 v 1.8 H 95 c 0.1,0 0.3,0 0.4,-0.1 0.1,0 0.2,-0.1 0.3,-0.2 0.1,-0.1 0.2,-0.2 0.2,-0.3 0,-0.1 0.1,-0.2 0.1,-0.4 0,-0.3 -0.1,-0.5 -0.3,-0.6 -0.2,-0.1 -0.4,-0.2 -0.7,-0.2 z"
       id="path79"
       inkscape:connector-curvature="0" />
  </g>
  <g
     id="g85"
     style="fill:#ffffff">
    <path
       d="m 139.7,348.3 v 1.9 h -0.6 v -4.9 h 1.3 c 0.5,0 0.9,0.1 1.2,0.4 0.3,0.3 0.4,0.6 0.4,1.1 0,0.5 -0.2,0.8 -0.5,1.1 -0.3,0.3 -0.8,0.4 -1.3,0.4 z m 0,-2.5 v 2 h 0.6 c 0.4,0 0.7,-0.1 0.9,-0.3 0.2,-0.2 0.3,-0.4 0.3,-0.8 0,-0.6 -0.4,-1 -1.1,-1 h -0.7 z m 6.9,4.4 H 146 l -0.5,-1.4 h -2.1 l -0.5,1.4 h -0.6 l 1.9,-4.9 h 0.6 z m -1.3,-1.9 -0.8,-2.1 c 0,-0.1 0,-0.2 -0.1,-0.3 0,0.1 0,0.2 -0.1,0.3 l -0.8,2.1 z m 5.4,-0.1 c 0,1.4 -0.6,2.1 -1.9,2.1 -1.2,0 -1.8,-0.7 -1.8,-2 v -3 h 0.6 v 3 c 0,1 0.4,1.5 1.3,1.5 0.8,0 1.2,-0.5 1.2,-1.5 v -3 h 0.6 z m 0.8,1.8 v -0.7 c 0.1,0.1 0.2,0.1 0.3,0.2 0.1,0.1 0.2,0.1 0.3,0.1 0.1,0 0.2,0.1 0.4,0.1 h 0.3 c 0.4,0 0.6,-0.1 0.8,-0.2 0.2,-0.1 0.3,-0.3 0.3,-0.6 0,-0.1 0,-0.2 -0.1,-0.3 -0.1,-0.1 -0.1,-0.2 -0.2,-0.3 -0.1,-0.1 -0.2,-0.2 -0.4,-0.2 -0.1,-0.1 -0.3,-0.2 -0.5,-0.2 -0.2,-0.1 -0.3,-0.2 -0.5,-0.3 -0.1,-0.1 -0.3,-0.2 -0.4,-0.3 -0.1,-0.1 -0.2,-0.2 -0.3,-0.4 -0.1,-0.1 -0.1,-0.3 -0.1,-0.5 0,-0.2 0,-0.4 0.1,-0.6 0.1,-0.2 0.2,-0.3 0.4,-0.4 0.2,-0.1 0.3,-0.2 0.5,-0.2 0.2,-0.1 0.4,-0.1 0.6,-0.1 0.5,0 0.8,0.1 1.1,0.2 v 0.6 c -0.3,-0.2 -0.7,-0.3 -1.1,-0.3 h -0.4 c -0.1,0 -0.2,0.1 -0.3,0.1 -0.1,0.1 -0.2,0.1 -0.2,0.2 -0.1,0.1 -0.1,0.2 -0.1,0.3 0,0.1 0,0.2 0.1,0.3 0,0.1 0.1,0.2 0.2,0.2 0.1,0 0.2,0.1 0.3,0.2 0.1,0.1 0.3,0.1 0.5,0.2 0.2,0.1 0.3,0.2 0.5,0.3 0.2,0.1 0.3,0.2 0.4,0.3 0.1,0.1 0.2,0.2 0.3,0.4 0.1,0.1 0.1,0.3 0.1,0.5 0,0.2 0,0.4 -0.1,0.6 -0.1,0.2 -0.2,0.3 -0.4,0.4 -0.2,0.1 -0.3,0.2 -0.6,0.2 -0.2,0 -0.4,0.1 -0.7,0.1 h -0.3 c -0.1,0 -0.2,0 -0.3,-0.1 -0.1,0 -0.2,-0.1 -0.3,-0.1 -0.1,0.4 -0.2,0.3 -0.2,0.3 z m 6.3,0.2 h -2.6 v -4.9 h 2.5 v 0.5 h -1.9 v 1.6 h 1.8 v 0.5 h -1.8 v 1.7 h 2 z"
       id="path83"
       inkscape:connector-curvature="0" />
  </g>
  <g
     id="g89"
     style="fill:#ffffff">
    <path
       d="m 382.3,350 v -0.7 c 0.1,0.1 0.2,0.1 0.3,0.2 0.1,0.1 0.2,0.1 0.3,0.1 0.1,0 0.2,0.1 0.4,0.1 h 0.3 c 0.4,0 0.6,-0.1 0.8,-0.2 0.2,-0.1 0.3,-0.3 0.3,-0.6 0,-0.1 0,-0.2 -0.1,-0.3 -0.1,-0.1 -0.1,-0.2 -0.2,-0.3 -0.1,-0.1 -0.2,-0.2 -0.4,-0.2 -0.1,-0.1 -0.3,-0.2 -0.5,-0.2 -0.2,-0.1 -0.3,-0.2 -0.5,-0.3 -0.1,-0.1 -0.3,-0.2 -0.4,-0.3 -0.1,-0.1 -0.2,-0.2 -0.3,-0.4 -0.1,-0.1 -0.1,-0.3 -0.1,-0.5 0,-0.2 0,-0.4 0.1,-0.6 0.1,-0.2 0.2,-0.3 0.4,-0.4 0.2,-0.1 0.3,-0.2 0.5,-0.2 0.2,-0.1 0.4,-0.1 0.6,-0.1 0.5,0 0.8,0.1 1.1,0.2 v 0.6 c -0.3,-0.2 -0.7,-0.3 -1.1,-0.3 h -0.4 c -0.1,0 -0.2,0.1 -0.3,0.1 -0.1,0.1 -0.2,0.1 -0.2,0.2 -0.1,0.1 -0.1,0.2 -0.1,0.3 0,0.1 0,0.2 0.1,0.3 0,0.1 0.1,0.2 0.2,0.2 0.1,0.1 0.2,0.1 0.3,0.2 0.1,0.1 0.3,0.1 0.5,0.2 0.2,0.1 0.3,0.2 0.5,0.3 0.2,0.1 0.3,0.2 0.4,0.3 0.1,0.1 0.2,0.2 0.3,0.4 0.1,0.1 0.1,0.3 0.1,0.5 0,0.2 0,0.4 -0.1,0.6 -0.1,0.2 -0.2,0.3 -0.4,0.4 -0.2,0.1 -0.3,0.2 -0.6,0.2 -0.2,0 -0.4,0.1 -0.7,0.1 h -0.3 c -0.1,0 -0.2,0 -0.3,-0.1 -0.1,0 -0.2,-0.1 -0.3,-0.1 0,0.4 -0.1,0.3 -0.2,0.3 z m 6.3,0.2 H 386 v -4.9 h 2.5 v 0.5 h -1.9 v 1.6 h 1.8 v 0.5 h -1.8 v 1.7 h 2 z m 3.3,0 h -2.5 v -4.9 h 0.6 v 4.4 h 2 v 0.5 z m 3.1,0 h -2.6 v -4.9 h 2.5 v 0.5 H 393 v 1.6 h 1.8 v 0.5 H 393 v 1.7 h 2 z m 4,-0.2 c -0.4,0.2 -0.8,0.3 -1.4,0.3 -0.7,0 -1.3,-0.2 -1.7,-0.7 -0.4,-0.4 -0.6,-1 -0.6,-1.8 0,-0.8 0.2,-1.4 0.7,-1.9 0.5,-0.5 1.1,-0.7 1.8,-0.7 0.5,0 0.8,0.1 1.2,0.2 v 0.6 c -0.4,-0.2 -0.7,-0.3 -1.2,-0.3 -0.6,0 -1,0.2 -1.4,0.6 -0.3,0.4 -0.5,0.9 -0.5,1.5 0,0.6 0.2,1.1 0.5,1.4 0.3,0.4 0.8,0.5 1.3,0.5 0.5,0 0.9,-0.1 1.3,-0.3 z m 3.7,-4.2 h -1.4 v 4.4 h -0.6 v -4.4 h -1.4 v -0.5 h 3.4 z"
       id="path87"
       inkscape:connector-curvature="0" />
  </g>
  <g
     id="g93"
     style="fill:#ffffff">
    <path
       d="m 449.2,350.2 h -0.7 l -0.8,-1.4 c -0.1,-0.1 -0.1,-0.2 -0.2,-0.3 -0.1,-0.1 -0.1,-0.2 -0.2,-0.2 -0.1,-0.1 -0.2,-0.1 -0.2,-0.1 h -0.8 v 2.1 h -0.6 v -4.9 h 1.5 c 0.2,0 0.4,0 0.6,0.1 0.2,0.1 0.3,0.1 0.5,0.2 0.1,0.1 0.2,0.2 0.3,0.4 0.1,0.2 0.1,0.4 0.1,0.6 0,0.2 0,0.3 -0.1,0.5 -0.1,0.1 -0.1,0.3 -0.2,0.4 l -0.3,0.3 c -0.1,0.1 -0.3,0.1 -0.4,0.2 0.1,0 0.2,0.1 0.2,0.1 0.1,0 0.1,0.1 0.2,0.2 l 0.2,0.2 c 0.1,0.1 0.1,0.2 0.2,0.3 z m -2.9,-4.4 v 1.8 h 0.8 c 0.1,0 0.3,0 0.4,-0.1 0.1,0 0.2,-0.1 0.3,-0.2 0.1,-0.1 0.2,-0.2 0.2,-0.3 0,-0.1 0.1,-0.2 0.1,-0.4 0,-0.3 -0.1,-0.5 -0.3,-0.6 -0.2,-0.1 -0.4,-0.2 -0.7,-0.2 z m 6,4.4 h -2.6 v -4.9 h 2.5 v 0.5 h -1.9 v 1.6 h 1.8 v 0.5 h -1.8 v 1.7 h 2 z m 0.4,-0.2 v -0.7 c 0.1,0.1 0.2,0.1 0.3,0.2 0.1,0.1 0.2,0.1 0.3,0.1 0.1,0 0.2,0.1 0.4,0.1 h 0.3 c 0.4,0 0.6,-0.1 0.8,-0.2 0.2,-0.1 0.3,-0.3 0.3,-0.6 0,-0.1 0,-0.2 -0.1,-0.3 -0.1,-0.1 -0.1,-0.2 -0.2,-0.3 -0.1,-0.1 -0.2,-0.2 -0.4,-0.2 -0.1,-0.1 -0.3,-0.2 -0.5,-0.2 -0.2,-0.1 -0.3,-0.2 -0.5,-0.3 -0.1,-0.1 -0.3,-0.2 -0.4,-0.3 -0.1,-0.1 -0.2,-0.2 -0.3,-0.4 -0.1,-0.1 -0.1,-0.3 -0.1,-0.5 0,-0.2 0,-0.4 0.1,-0.6 0.1,-0.2 0.2,-0.3 0.4,-0.4 0.2,-0.1 0.3,-0.2 0.5,-0.2 0.2,-0.1 0.4,-0.1 0.6,-0.1 0.5,0 0.8,0.1 1.1,0.2 v 0.6 c -0.3,-0.2 -0.7,-0.3 -1.1,-0.3 h -0.4 c -0.1,0 -0.2,0.1 -0.3,0.1 -0.1,0.1 -0.2,0.1 -0.2,0.2 -0.1,0.1 -0.1,0.2 -0.1,0.3 0,0.1 0,0.2 0.1,0.3 0,0.1 0.1,0.2 0.2,0.2 0.1,0 0.2,0.1 0.3,0.2 0.1,0.1 0.3,0.1 0.5,0.2 0.2,0.1 0.3,0.2 0.5,0.3 0.2,0.1 0.3,0.2 0.4,0.3 0.1,0.1 0.2,0.2 0.3,0.4 0.1,0.1 0.1,0.3 0.1,0.5 0,0.2 0,0.4 -0.1,0.6 -0.1,0.2 -0.2,0.3 -0.4,0.4 -0.2,0.1 -0.3,0.2 -0.6,0.2 -0.2,0 -0.4,0.1 -0.7,0.1 h -0.3 c -0.1,0 -0.2,0 -0.3,-0.1 -0.1,-0.1 -0.2,-0.1 -0.3,-0.1 0,0.4 -0.1,0.3 -0.2,0.3 z m 6.3,0.2 h -2.6 v -4.9 h 2.5 v 0.5 H 457 v 1.6 h 1.8 v 0.5 H 457 v 1.7 h 2 z m 3.6,-4.4 h -1.4 v 4.4 h -0.6 v -4.4 h -1.4 v -0.5 h 3.4 z"
       id="path91"
       inkscape:connector-curvature="0" />
  </g>
  <g
     id="g97"
     style="fill:#b7b7b7">
    <path
       d="m 463.8,210.3 -6.6,16.7 h -4.3 l 6.6,-15.3 h -8.7 v -3.4 h 13 z m 5,7 c -2.1,-0.9 -3.2,-2.4 -3.2,-4.3 0,-1.4 0.6,-2.6 1.7,-3.6 1.1,-0.9 2.6,-1.4 4.4,-1.4 1.8,0 3.3,0.4 4.4,1.3 1.1,0.9 1.7,2 1.7,3.4 0,2 -1.2,3.5 -3.5,4.5 v 0.1 c 1.3,0.4 2.2,1 2.9,1.8 0.7,0.9 1,1.8 1,2.9 0,1.6 -0.6,2.9 -1.8,3.9 -1.2,1 -2.9,1.4 -5.1,1.4 -1.9,0 -3.4,-0.5 -4.6,-1.4 -1.2,-0.9 -1.7,-2.2 -1.7,-3.7 0,-2.2 1.3,-3.8 3.8,-4.9 z m 2.7,1.6 c -1.7,0.7 -2.6,1.7 -2.6,3.1 0,0.7 0.3,1.2 0.8,1.7 0.5,0.4 1.2,0.7 1.9,0.7 0.8,0 1.5,-0.2 2,-0.7 0.5,-0.4 0.8,-1 0.8,-1.7 0,-1.4 -0.9,-2.4 -2.9,-3.1 z m 2.5,-5.8 c 0,-0.6 -0.2,-1.1 -0.6,-1.5 -0.4,-0.4 -0.9,-0.6 -1.6,-0.6 -0.7,0 -1.2,0.2 -1.6,0.6 -0.4,0.4 -0.6,0.9 -0.6,1.5 0,1.2 0.7,2 2.2,2.6 1.4,-0.6 2.2,-1.4 2.2,-2.6 z m 12,14.2 c -4.4,0 -6.7,-3.1 -6.7,-9.3 0,-3.2 0.6,-5.7 1.8,-7.4 1.2,-1.7 2.9,-2.5 5.2,-2.5 4.3,0 6.5,3.2 6.5,9.5 0,3.2 -0.6,5.6 -1.8,7.3 -1.1,1.6 -2.8,2.4 -5,2.4 z m 0.1,-16.1 c -1.8,0 -2.7,2.2 -2.7,6.7 0,4.2 0.9,6.3 2.6,6.3 1.7,0 2.5,-2.2 2.5,-6.5 0.1,-4.3 -0.7,-6.5 -2.4,-6.5 z m 14.3,16.1 c -4.4,0 -6.7,-3.1 -6.7,-9.3 0,-3.2 0.6,-5.7 1.8,-7.4 1.2,-1.7 2.9,-2.5 5.2,-2.5 4.3,0 6.5,3.2 6.5,9.5 0,3.2 -0.6,5.6 -1.8,7.3 -1.1,1.6 -2.8,2.4 -5,2.4 z m 0.1,-16.1 c -1.8,0 -2.7,2.2 -2.7,6.7 0,4.2 0.9,6.3 2.6,6.3 1.7,0 2.5,-2.2 2.5,-6.5 0.1,-4.3 -0.7,-6.5 -2.4,-6.5 z"
       id="path95"
       inkscape:connector-curvature="0" />
  </g>
</svg>
