<?xml version="1.0" encoding="UTF-8" standalone="no"?>
<svg
   xmlns:dc="http://purl.org/dc/elements/1.1/"
   xmlns:cc="http://creativecommons.org/ns#"
   xmlns:rdf="http://www.w3.org/1999/02/22-rdf-syntax-ns#"
   xmlns:svg="http://www.w3.org/2000/svg"
   xmlns="http://www.w3.org/2000/svg"
   xmlns:sodipodi="http://sodipodi.sourceforge.net/DTD/sodipodi-0.dtd"
   xmlns:inkscape="http://www.inkscape.org/namespaces/inkscape"
   viewBox="0 0 153.534 153.534"
   version="1.1"
   id="svg46"
   sodipodi:docname="game.svg"
   width="153.534"
   height="153.534"
   inkscape:version="0.92.4 5da689c313, 2019-01-14">
  <metadata
     id="metadata52">
    <rdf:RDF>
      <cc:Work
         rdf:about="">
        <dc:format>image/svg+xml</dc:format>
        <dc:type
           rdf:resource="http://purl.org/dc/dcmitype/StillImage" />
      </cc:Work>
    </rdf:RDF>
  </metadata>
  <defs
     id="defs50" />
  <sodipodi:namedview
     pagecolor="#ffffff"
     bordercolor="#666666"
     borderopacity="1"
     objecttolerance="10"
     gridtolerance="10"
     guidetolerance="10"
     inkscape:pageopacity="0"
     inkscape:pageshadow="2"
     inkscape:window-width="471"
     inkscape:window-height="442"
     id="namedview48"
     showgrid="false"
     inkscape:zoom="1.5371188"
     inkscape:cx="76.766998"
     inkscape:cy="76.767002"
     inkscape:window-x="0"
     inkscape:window-y="0"
     inkscape:window-maximized="0"
     inkscape:current-layer="svg46" />
  <path
     d="m 76.767,47.243 c -16.306,0 -29.524,13.218 -29.524,29.524 0,16.306 13.218,29.524 29.524,29.524 16.306,0 29.524,-13.218 29.524,-29.524 0,-16.306 -13.218,-29.524 -29.524,-29.524 z m 0,38.947 a 9.423,9.423 0 1 1 0,-18.846 9.423,9.423 0 0 1 0,18.846 z"
     id="path2"
     inkscape:connector-curvature="0"
     style="fill:#b5b5b5" />
  <path
     d="M 76.767,0 C 34.37,0 0,34.37 0,76.767 c 0,42.397 34.37,76.767 76.767,76.767 42.397,0 76.767,-34.37 76.767,-76.767 C 153.534,34.37 119.164,0 76.767,0 Z m 0,106.291 c -16.306,0 -29.524,-13.218 -29.524,-29.524 0,-16.306 13.218,-29.524 29.524,-29.524 16.306,0 29.524,13.218 29.524,29.524 0,16.306 -13.218,29.524 -29.524,29.524 z"
     id="path4"
     inkscape:connector-curvature="0"
     style="fill:#e3e7e6" />
  <path
     d="m 76.767,50.134 c 14.685,0 26.633,11.947 26.633,26.633 0,14.686 -11.947,26.633 -26.633,26.633 -14.686,0 -26.633,-11.948 -26.633,-26.633 0,-14.685 11.948,-26.633 26.633,-26.633 m 0,-2.891 c -16.306,0 -29.524,13.218 -29.524,29.524 0,16.306 13.218,29.524 29.524,29.524 16.306,0 29.524,-13.218 29.524,-29.524 0,-16.306 -13.218,-29.524 -29.524,-29.524 z"
     id="path6"
     inkscape:connector-curvature="0" />
  <path
     d="m 76.767,53.067 c 13.068,0 23.7,10.632 23.7,23.7 0,13.068 -10.632,23.7 -23.7,23.7 -13.068,0 -23.7,-10.632 -23.7,-23.7 0,-13.068 10.632,-23.7 23.7,-23.7 m 0,-0.082 c -13.135,0 -23.782,10.648 -23.782,23.782 0,13.134 10.648,23.782 23.782,23.782 13.134,0 23.782,-10.648 23.782,-23.782 0,-13.134 -10.648,-23.782 -23.782,-23.782 z"
     id="path8"
     inkscape:connector-curvature="0" />
  <path
     d="m 76.767,67.376 c 5.178,0 9.391,4.213 9.391,9.391 0,5.178 -4.213,9.391 -9.391,9.391 -5.178,0 -9.391,-4.213 -9.391,-9.391 0,-5.178 4.213,-9.391 9.391,-9.391 m 0,-0.033 a 9.423,9.423 0 1 0 0,18.846 9.423,9.423 0 0 0 0,-18.846 z m 60.169,3.913 a 3.11,3.11 0 0 1 -0.006,0.142 c -0.017,0.152 0,0.223 -0.437,0.223 -0.437,0 -0.42,-0.072 -0.437,-0.223 a 7.441,7.441 0 0 1 -0.01,-0.445 c 0.001,-0.126 0.005,-0.396 0.01,-0.445 0.017,-0.152 0,-0.223 0.437,-0.223 0.437,0 0.42,0.072 0.437,0.223 a 3.6,3.6 0 0 1 0.006,0.151 h 0.598 a 4.267,4.267 0 0 0 -0.017,-0.308 c -0.034,-0.303 0.085,-0.593 -1.023,-0.593 -1.108,0 -0.989,0.29 -1.023,0.593 a 6.716,6.716 0 0 0 -0.021,0.602 c 0.001,0.252 0.009,0.503 0.021,0.602 0.034,0.303 -0.085,0.593 1.023,0.593 1.108,0 0.989,-0.29 1.023,-0.593 0.007,-0.058 0.012,-0.167 0.016,-0.298 z m -7.087,-1.437 -0.583,1.703 -0.583,-1.703 -0.873,-0.005 v 2.287 h 0.584 v -1.704 l 0.583,1.704 h 0.583 l 0.579,-1.704 v 1.704 h 0.583 v -2.287 z m 7.816,-0.005 h 1.676 v 0.583 h -0.547 v 1.704 h -0.583 v -1.704 h -0.546 z m -4.496,2.287 0.669,-2.289 h 0.869 l 0.671,2.289 h -0.583 l -0.138,-0.473 h -0.765 L 134,71.256 h 0.547 l -0.271,-0.932 -0.524,1.777 z m -6.763,-1.817 c 0.437,0 0.42,0.072 0.437,0.223 0.006,0.049 0.01,0.319 0.01,0.445 0.001,0.126 -0.005,0.396 -0.01,0.445 -0.017,0.152 0,0.223 -0.437,0.223 -0.437,0 -0.42,-0.072 -0.437,-0.223 a 7.441,7.441 0 0 1 -0.01,-0.445 c 10e-4,-0.126 0.005,-0.396 0.01,-0.445 0.017,-0.151 0,-0.223 0.437,-0.223 l 10e-4,-0.526 c -1.108,0 -0.989,0.29 -1.023,0.593 a 6.716,6.716 0 0 0 -0.021,0.602 c 0.001,0.252 0.009,0.503 0.021,0.602 0.034,0.303 -0.085,0.593 1.023,0.593 1.108,0 0.989,-0.29 1.023,-0.593 0.011,-0.099 0.019,-0.349 0.021,-0.602 0.002,-0.253 -0.009,-0.503 -0.021,-0.602 -0.034,-0.303 0.085,-0.593 -1.023,-0.593 z m -1.969,0.972 a 3.11,3.11 0 0 1 -0.006,0.142 c -0.017,0.152 0,0.223 -0.437,0.223 -0.437,0 -0.42,-0.072 -0.437,-0.223 a 7.441,7.441 0 0 1 -0.01,-0.445 c 0.001,-0.126 0.005,-0.396 0.01,-0.445 0.017,-0.152 0,-0.223 0.437,-0.223 0.437,0 0.42,0.072 0.437,0.223 a 3.6,3.6 0 0 1 0.006,0.151 h 0.598 a 4.267,4.267 0 0 0 -0.017,-0.308 c -0.034,-0.303 0.085,-0.593 -1.023,-0.593 -1.108,0 -0.989,0.29 -1.023,0.593 a 6.716,6.716 0 0 0 -0.021,0.602 c 0.001,0.252 0.009,0.503 0.021,0.602 0.034,0.303 -0.085,0.593 1.023,0.593 1.108,0 0.989,-0.29 1.023,-0.593 0.007,-0.058 0.012,-0.167 0.016,-0.298 z m 7.705,0.322 h -0.354 v -0.522 l 0.354,-0.002 c 0.437,0 0.423,-0.072 0.441,-0.223 0.006,-0.049 0.004,-0.009 0.004,-0.135 -10e-4,-0.126 0.002,-0.083 -0.004,-0.132 -0.017,-0.152 -0.004,-0.223 -0.441,-0.223 l -0.354,0.001 10e-4,1.757 h -0.584 v -2.284 h 0.938 c 1.108,0 0.987,0.291 1.027,0.593 0.005,0.036 0.005,0.201 0.005,0.29 0,0.072 0,0.237 -0.005,0.289 -0.029,0.304 0.08,0.591 -1.028,0.591 z m -11.341,9.133 -3.65,-0.004 a 0.956,0.956 0 0 1 -0.956,-0.956 v -5.556 c 0,-0.528 0.428,-0.956 0.956,-0.956 l 2.285,-0.003 a 0.497,0.497 0 0 0 0.497,-0.497 l 0.007,-2.222 c 0,-0.115 0.093,-0.208 0.208,-0.208 h 1.339 c 0.115,0 0.208,0.093 0.208,0.208 l 0.014,9.986 a 0.208,0.208 0 0 1 -0.208,0.208 h -0.7 l -0.017,0.496 h 0.914 a 0.497,0.497 0 0 0 0.497,-0.497 V 70.305 a 0.497,0.497 0 0 0 -0.497,-0.497 h -1.757 a 0.497,0.497 0 0 0 -0.497,0.497 l 0.003,2.227 a 0.208,0.208 0 0 1 -0.208,0.208 l -2.087,-0.004 c -0.805,0 -1.458,0.653 -1.458,1.458 v 5.556 c 0,0.805 0.653,1.458 1.458,1.458 l 3.633,-0.001 z"
     id="path10"
     inkscape:connector-curvature="0" />
  <path
     d="m 119.443,78.666 v -3.595 a 0.5455,0.5455 0 0 0 -1.091,0 v 3.88 a 0.546,0.546 0 1 0 1.091,0 v -0.285 l 0.496,0.017 v 0.269 a 1.041,1.041 0 1 1 -2.082,0 v -3.88 a 1.041,1.041 0 1 1 2.082,0 v 3.612 z m 4.827,2.045 h -0.683 a 0.208,0.208 0 0 1 -0.208,-0.208 l 0.008,-7.052 c 0,-0.115 0.093,-0.208 0.208,-0.208 h 1.339 c 0.115,0 0.208,0.093 0.208,0.208 l 0.014,7.052 a 0.208,0.208 0 0 1 -0.208,0.208 h -0.678 v 0.494 l 0.876,0.001 a 0.497,0.497 0 0 0 0.497,-0.497 v -7.471 a 0.497,0.497 0 0 0 -0.497,-0.497 h -1.757 a 0.497,0.497 0 0 0 -0.497,0.497 l -10e-4,7.469 c 0,0.274 0.221,0.497 0.495,0.497 l 0.884,0.001 z m 6.31,-6.081 -1.471,-0.002 a 0.82,0.82 0 1 0 0,1.64 l 2.016,0.006 c 0.528,0 0.956,0.428 0.956,0.956 l -0.007,2.51 a 0.956,0.956 0 0 1 -0.956,0.956 l -4.002,0.007 a 0.208,0.208 0 0 1 -0.208,-0.208 v -0.972 c 0,-0.115 0.093,-0.208 0.208,-0.208 l 2.727,-0.009 a 0.82,0.82 0 1 0 0,-1.64 l -1.974,-0.008 a 0.956,0.956 0 0 1 -0.956,-0.956 v -2.507 c 0,-0.528 0.428,-0.956 0.956,-0.956 l 3.709,-0.017 c 0.115,0 0.208,0.093 0.208,0.208 v 0.994 a 0.208,0.208 0 0 1 -0.208,0.208 l -0.998,-0.002 -0.017,0.489 h 1.22 a 0.496,0.496 0 0 0 0.497,-0.495 l 0.002,-1.393 a 0.497,0.497 0 0 0 -0.497,-0.497 l -3.916,0.002 c -0.805,0 -1.458,0.653 -1.458,1.458 v 2.507 c 0,0.805 0.653,1.458 1.458,1.458 l 1.975,-0.003 a 0.33,0.33 0 0 1 0,0.66 l -2.939,-0.001 a 0.497,0.497 0 0 0 -0.497,0.497 v 1.39 c 0,0.274 0.222,0.497 0.497,0.497 l 4.214,-0.001 c 0.805,0 1.458,-0.653 1.458,-1.458 l 0.007,-2.51 c 0,-0.805 -0.653,-1.458 -1.458,-1.458 l -2.016,0.006 a 0.33,0.33 0 0 1 0,-0.66 h 1.454 z m 7.415,1.379 h 0.632 a 0.208,0.208 0 0 0 0.208,-0.208 l -0.003,-1.606 a 0.956,0.956 0 0 0 -0.956,-0.956 h -3.161 a 0.956,0.956 0 0 0 -0.956,0.956 v 5.556 c 0,0.528 0.428,0.956 0.956,0.956 h 3.161 a 0.956,0.956 0 0 0 0.956,-0.956 l 0.003,-1.527 a 0.208,0.208 0 0 0 -0.208,-0.208 h -1.193 a 0.208,0.208 0 0 0 -0.208,0.208 l 0.007,0.728 c 0,0.575 -0.362,1.041 -0.937,1.041 -0.575,0 -0.937,-0.466 -0.937,-1.041 v -3.88 c 0,-0.575 0.362,-1.041 0.937,-1.041 0.575,0 0.937,0.466 0.937,1.041 l -0.007,0.729 c 0,0.115 0.093,0.208 0.208,0.208 h 0.561 l -0.017,0.501 h -0.75 a 0.497,0.497 0 0 1 -0.497,-0.497 l 0.006,-0.941 c 0,-0.301 -0.14,-0.545 -0.441,-0.545 -0.301,0 -0.441,0.244 -0.441,0.545 v 3.88 c 0,0.301 0.14,0.546 0.441,0.546 0.301,0 0.441,-0.244 0.441,-0.546 l -0.006,-0.94 c 0,-0.274 0.222,-0.497 0.497,-0.497 h 1.61 c 0.274,0 0.497,0.222 0.497,0.497 l -0.001,1.739 c 0,0.805 -0.653,1.458 -1.458,1.458 h -3.161 a 1.458,1.458 0 0 1 -1.458,-1.458 v -5.556 c 0,-0.805 0.653,-1.458 1.458,-1.458 h 3.161 c 0.805,0 1.458,0.653 1.458,1.458 l 0.001,1.818 a 0.497,0.497 0 0 1 -0.497,0.497 h -0.86 z"
     id="path12"
     inkscape:connector-curvature="0" />
  <g
     id="g18">
    <circle
       cx="76.766998"
       cy="76.766998"
       r="29.524"
       id="circle14"
       style="fill:none" />
    <path
       d="M 76.767,0 C 50.837,0 27.912,12.857 14.014,32.543 H 139.52 C 125.622,12.857 102.697,0 76.767,0 Z"
       id="path16"
       inkscape:connector-curvature="0"
       style="fill:#1b1c1c" />
  </g>
  <g
     id="g28">
    <path
       d="m 82.956,21.284 v 4.483 c 0,1.237 0.983,2.241 2.194,2.241 h 4.809 c 1.21,0 2.194,-1.004 2.194,-2.24 l -0.001,-1.146 h -2.177 v 0.431 c 0,0.556 -0.4,0.963 -0.943,0.963 H 86.04 c -0.544,0 -0.942,-0.407 -0.942,-0.963 V 22.2 c 0,-0.556 0.398,-0.963 0.942,-0.963 h 2.795 c 0.544,0 0.943,0.407 0.943,0.963 v 0.232 h 2.177 v -1.146 c 0,-1.237 -0.982,-2.24 -2.193,-2.24 h -4.615 c -1.21,-0.003 -2.192,1.001 -2.192,2.24 m 12.677,4.738 v -4.982 h 3.852 c 0.673,0 1.218,0.558 1.218,1.246 v 2.491 c 0,0.687 -0.546,1.245 -1.218,1.245 z m -2.145,1.992 h 7.003 c 1.299,0 2.389,-1.115 2.389,-2.44 V 21.49 c 0,-1.326 -1.09,-2.44 -2.39,-2.44 h -7.002 v 8.966"
       id="path20"
       inkscape:connector-curvature="0"
       style="fill:#e3e7e6" />
    <path
       d="m 113.377,20.098 c -0.873,0 -1.763,0.461 -1.763,1.34 v 0.814 l 0.009,0.001 v 1.177 h 6.824 v -1.26 h -4.918 c -0.634,-0.162 0.06,-0.678 0.383,-0.715 h 2.953 c 0.873,0 1.58,-0.715 1.58,-1.594 v -0.815 c 0,-0.88 -0.707,-1.594 -1.58,-1.594 h -3.476 c -0.873,0 -1.777,0.515 -1.777,1.396 v 0.814 h 1.718 v -0.165 c 0,-0.395 0.288,-0.685 0.68,-0.685 h 2.209 c 0.378,0 0.659,0.27 0.678,0.643 a 0.66,0.66 0 0 1 -0.678,0.642 l -2.844,10e-4 m -3.875,0.348 c 0.66,-0.049 1.146,-0.255 1.146,-0.983 v -0.815 c 0,-0.88 -0.71,-1.195 -1.581,-1.195 h -3.087 c -0.872,0 -1.777,0.515 -1.777,1.396 v 0.814 h 1.719 v -0.165 c 0,-0.395 0.287,-0.685 0.679,-0.685 h 1.82 c 0.378,0 0.659,0.07 0.679,0.443 a 0.66,0.66 0 0 1 -0.68,0.642 l -1.478,0.001 v 1.106 h 1.674 a 0.66,0.66 0 0 1 0.678,0.643 c -0.02,0.373 -0.3,0.442 -0.678,0.442 h -2.015 a 0.66,0.66 0 0 1 -0.68,-0.684 V 21.24 h -1.718 v 0.815 c 0,0.88 0.904,1.395 1.777,1.395 h 3.282 c 0.996,-0.018 1.58,-0.515 1.58,-1.395 V 21.44 c 0,-0.799 -0.58,-0.969 -1.34,-0.994"
       id="path22"
       inkscape:connector-curvature="0"
       style="fill:#da2b27" />
    <g
       id="g26"
       style="fill:#da2b27">
      <path
         d="m 40.206,27.918 c 0,-0.115 -0.034,-0.193 -0.096,-0.233 A 0.57,0.57 0 0 0 39.856,27.61 C 39.496,27.55 39.282,27.414 39.212,27.197 39.143,26.981 39.11,26.703 39.114,26.365 L 38.75,19.383 a 2.314,2.314 0 0 0 -0.07,-0.631 c -0.048,-0.17 -0.21,-0.257 -0.49,-0.264 -0.254,0.007 -0.439,0.08 -0.554,0.222 a 4.7,4.7 0 0 0 -0.355,0.505 l -4.477,6.296 -0.756,1.063 c -0.148,0.227 -0.31,0.438 -0.486,0.633 a 1.126,1.126 0 0 1 -0.675,0.36 1.764,1.764 0 0 0 -0.439,0.09 c -0.137,0.049 -0.21,0.163 -0.219,0.344 0.004,0.108 0.042,0.178 0.114,0.21 0.072,0.032 0.155,0.045 0.25,0.042 0.26,-0.003 0.521,-0.017 0.785,-0.042 0.264,-0.025 0.53,-0.038 0.796,-0.042 0.238,0.003 0.476,0.015 0.714,0.035 0.238,0.02 0.476,0.032 0.714,0.035 a 0.611,0.611 0 0 0 0.303,-0.072 c 0.091,-0.05 0.14,-0.133 0.145,-0.25 -0.015,-0.173 -0.12,-0.273 -0.316,-0.302 A 6.06,6.06 0 0 1 33.148,27.5 c -0.195,-0.048 -0.3,-0.19 -0.316,-0.423 0.035,-0.25 0.2,-0.607 0.493,-1.07 0.294,-0.461 0.507,-0.786 0.64,-0.973 h 2.798 l 0.045,0.888 c 0.015,0.298 0.023,0.594 0.024,0.888 -0.015,0.41 -0.123,0.65 -0.323,0.722 -0.2,0.07 -0.4,0.11 -0.6,0.119 -0.2,0.008 -0.307,0.125 -0.323,0.349 0.002,0.096 0.033,0.163 0.091,0.199 a 0.38,0.38 0 0 0 0.217,0.052 c 0.385,-0.003 0.772,-0.017 1.161,-0.042 0.39,-0.024 0.776,-0.038 1.161,-0.042 0.26,0.002 0.518,0.012 0.777,0.028 0.26,0.016 0.518,0.026 0.777,0.028 a 0.646,0.646 0 0 0 0.301,-0.054 c 0.087,-0.038 0.131,-0.122 0.135,-0.251 z M 36.751,24.35 h -2.337 l 2.225,-3.246 z m 23.704,-5.317 c -0.002,-0.084 -0.029,-0.147 -0.082,-0.19 a 0.309,0.309 0 0 0 -0.198,-0.062 4.542,4.542 0 0 0 -0.37,0.017 c -0.123,0.01 -0.246,0.024 -0.372,0.038 -0.309,0.034 -0.622,0.054 -0.939,0.06 -0.317,0.008 -0.634,0.01 -0.95,0.01 a 11.465,11.465 0 0 1 -0.693,-0.028 11.465,11.465 0 0 0 -0.693,-0.028 0.5,0.5 0 0 0 -0.296,0.093 0.33,0.33 0 0 0 -0.138,0.27 c 0.04,0.212 0.198,0.31 0.476,0.298 0.277,-0.013 0.436,0.107 0.476,0.36 0,0.07 -0.01,0.143 -0.026,0.217 a 3.001,3.001 0 0 1 -0.058,0.217 l -1.763,6.114 a 5.398,5.398 0 0 1 -0.226,0.743 c -0.083,0.21 -0.274,0.349 -0.572,0.418 -0.137,0.02 -0.297,0.053 -0.48,0.1 -0.185,0.046 -0.286,0.153 -0.304,0.32 0.004,0.097 0.041,0.166 0.112,0.206 0.071,0.04 0.15,0.06 0.238,0.059 0.301,-0.005 0.605,-0.023 0.911,-0.056 0.306,-0.033 0.614,-0.051 0.922,-0.056 0.33,0.003 0.66,0.015 0.993,0.035 0.333,0.02 0.664,0.032 0.993,0.035 0.136,0.01 0.291,0.004 0.467,-0.017 0.176,-0.022 0.272,-0.118 0.29,-0.29 -0.014,-0.18 -0.105,-0.275 -0.273,-0.286 a 2.765,2.765 0 0 1 -0.505,-0.081 c -0.168,-0.042 -0.259,-0.2 -0.272,-0.473 0.001,-0.113 0.016,-0.227 0.044,-0.343 0.028,-0.116 0.06,-0.23 0.096,-0.343 l 1.763,-6.142 c 0.065,-0.253 0.142,-0.436 0.231,-0.551 0.09,-0.115 0.264,-0.197 0.525,-0.247 0.132,-0.017 0.274,-0.053 0.425,-0.11 0.152,-0.054 0.235,-0.157 0.248,-0.307 z m 9.205,0.07 C 69.64,18.952 69.486,18.845 69.2,18.782 a 5.113,5.113 0 0 0 -0.905,-0.113 11.815,11.815 0 0 0 -0.637,-0.013 c -1.169,0.003 -2.392,0.24 -3.67,0.71 -1.278,0.473 -2.368,1.163 -3.269,2.07 -0.902,0.909 -1.373,2.02 -1.413,3.333 0.017,0.834 0.258,1.523 0.723,2.067 a 4.224,4.224 0 0 0 1.762,1.215 6.159,6.159 0 0 0 2.188,0.397 11.795,11.795 0 0 0 2.73,-0.322 c 0.168,-0.034 0.313,-0.078 0.434,-0.131 0.122,-0.053 0.214,-0.164 0.278,-0.331 a 15.8,15.8 0 0 0 0.331,-1.065 c 0.097,-0.36 0.197,-0.718 0.3,-1.076 0.167,-0.51 0.367,-0.808 0.6,-0.896 a 1.63,1.63 0 0 1 0.614,-0.125 c 0.18,0.005 0.273,-0.107 0.282,-0.336 C 69.544,24.069 69.508,24 69.436,23.96 A 0.446,0.446 0 0 0 69.198,23.9 c -0.349,0.005 -0.7,0.02 -1.05,0.05 -0.352,0.029 -0.706,0.045 -1.063,0.049 a 15.38,15.38 0 0 1 -1.007,-0.042 16.984,16.984 0 0 0 -1.007,-0.042 0.769,0.769 0 0 0 -0.324,0.06 c -0.103,0.045 -0.159,0.132 -0.166,0.262 0.013,0.158 0.106,0.246 0.28,0.264 0.172,0.018 0.345,0.052 0.518,0.102 0.173,0.05 0.266,0.204 0.28,0.46 -0.016,0.262 -0.097,0.623 -0.244,1.08 a 93.44,93.44 0 0 1 -0.359,1.103 c -0.055,0.214 -0.127,0.366 -0.219,0.456 -0.09,0.09 -0.252,0.134 -0.48,0.13 -0.82,-0.017 -1.44,-0.282 -1.86,-0.795 -0.419,-0.513 -0.63,-1.166 -0.63,-1.96 a 5.445,5.445 0 0 1 0.454,-2.13 c 0.297,-0.69 0.7,-1.294 1.21,-1.815 0.504,-0.506 1.126,-0.94 1.866,-1.298 0.74,-0.36 1.471,-0.547 2.191,-0.563 0.342,-0.003 0.553,0.063 0.631,0.199 0.078,0.136 0.11,0.364 0.096,0.682 a 3.04,3.04 0 0 1 -0.014,0.252 3.04,3.04 0 0 0 -0.014,0.252 0.87,0.87 0 0 0 0.068,0.38 c 0.05,0.113 0.153,0.173 0.31,0.18 a 0.445,0.445 0 0 0 0.38,-0.257 c 0.082,-0.158 0.142,-0.31 0.18,-0.456 0.036,-0.107 0.114,-0.344 0.233,-0.71 a 7.25,7.25 0 0 0 0.201,-0.69 z m 8.022,8.815 c 0,-0.115 -0.034,-0.193 -0.096,-0.233 A 0.57,0.57 0 0 0 77.332,27.61 c -0.36,-0.06 -0.574,-0.196 -0.644,-0.413 -0.069,-0.216 -0.102,-0.494 -0.098,-0.832 l -0.364,-6.982 a 2.314,2.314 0 0 0 -0.07,-0.631 c -0.048,-0.17 -0.21,-0.257 -0.49,-0.264 -0.254,0.007 -0.439,0.08 -0.554,0.222 a 4.7,4.7 0 0 0 -0.355,0.505 l -4.477,6.295 -0.755,1.064 c -0.148,0.227 -0.31,0.438 -0.486,0.633 a 1.126,1.126 0 0 1 -0.675,0.36 1.764,1.764 0 0 0 -0.439,0.09 c -0.137,0.049 -0.21,0.163 -0.219,0.344 0.004,0.108 0.042,0.178 0.114,0.21 a 0.58,0.58 0 0 0 0.25,0.042 c 0.26,-0.003 0.521,-0.017 0.785,-0.042 0.264,-0.024 0.53,-0.038 0.796,-0.042 0.238,0.003 0.476,0.015 0.714,0.035 0.238,0.02 0.476,0.032 0.714,0.035 a 0.611,0.611 0 0 0 0.303,-0.072 c 0.091,-0.05 0.14,-0.133 0.145,-0.25 -0.015,-0.173 -0.12,-0.273 -0.316,-0.302 A 6.06,6.06 0 0 1 70.625,27.5 c -0.195,-0.048 -0.3,-0.19 -0.316,-0.423 0.035,-0.25 0.2,-0.607 0.493,-1.07 0.294,-0.461 0.507,-0.786 0.64,-0.973 h 2.798 l 0.045,0.888 c 0.015,0.298 0.023,0.594 0.024,0.888 -0.014,0.412 -0.122,0.653 -0.322,0.723 -0.2,0.07 -0.4,0.11 -0.6,0.119 -0.2,0.008 -0.307,0.125 -0.323,0.349 0.002,0.096 0.033,0.163 0.091,0.199 a 0.38,0.38 0 0 0 0.217,0.052 c 0.385,-0.003 0.772,-0.017 1.161,-0.042 0.39,-0.024 0.776,-0.038 1.161,-0.042 0.26,0.002 0.518,0.012 0.777,0.028 0.26,0.016 0.518,0.026 0.777,0.028 a 0.646,0.646 0 0 0 0.301,-0.054 c 0.085,-0.04 0.13,-0.124 0.133,-0.253 z M 74.226,24.35 H 71.89 l 2.225,-3.246 0.112,3.246 z M 54.525,19.089 c -0.002,-0.09 -0.03,-0.155 -0.084,-0.194 a 0.343,0.343 0 0 0 -0.21,-0.058 c -0.294,0.002 -0.59,0.009 -0.888,0.02 a 26.56,26.56 0 0 1 -0.888,0.022 c -0.156,-0.008 -0.39,-0.017 -0.7,-0.026 -0.313,-0.01 -0.522,0.027 -0.629,0.11 a 0.7,0.7 0 0 0 -0.056,0.098 0.7,0.7 0 0 1 -0.056,0.098 l -3.848,5.82 -0.154,-5.722 A 1.14,1.14 0 0 0 47,18.975 c -0.015,-0.08 -0.086,-0.12 -0.212,-0.124 -0.322,0.002 -0.646,0.008 -0.972,0.017 -0.326,0.009 -0.65,0.008 -0.972,-0.003 -0.182,-0.008 -0.363,-0.02 -0.544,-0.033 a 8.06,8.06 0 0 0 -0.533,-0.023 0.936,0.936 0 0 0 -0.343,0.049 c -0.109,0.037 -0.167,0.124 -0.175,0.259 0.044,0.222 0.222,0.33 0.532,0.329 0.31,-0.002 0.487,0.107 0.532,0.329 a 1.551,1.551 0 0 1 -0.096,0.479 30.33,30.33 0 0 1 -0.17,0.458 l -1.02,2.838 c -0.339,0.947 -0.689,1.89 -1.05,2.828 -0.137,0.4 -0.27,0.68 -0.4,0.84 -0.132,0.162 -0.409,0.278 -0.832,0.349 a 0.826,0.826 0 0 0 -0.308,0.105 c -0.089,0.052 -0.135,0.143 -0.14,0.273 0.004,0.115 0.045,0.189 0.122,0.222 a 0.62,0.62 0 0 0 0.27,0.044 c 0.244,-0.002 0.492,-0.01 0.741,-0.021 0.25,-0.012 0.496,-0.02 0.742,-0.021 0.231,0.003 0.458,0.015 0.684,0.035 0.225,0.02 0.45,0.032 0.673,0.035 a 0.575,0.575 0 0 0 0.297,-0.08 0.292,0.292 0 0 0 0.15,-0.256 C 43.96,27.707 43.852,27.602 43.65,27.588 a 3.443,3.443 0 0 1 -0.606,-0.097 c -0.202,-0.051 -0.31,-0.231 -0.326,-0.54 0.02,-0.44 0.176,-1.095 0.467,-1.964 0.292,-0.87 0.6,-1.712 0.921,-2.528 0.323,-0.816 0.541,-1.366 0.654,-1.648 l 0.154,6.66 c -0.004,0.205 0.018,0.368 0.065,0.488 0.047,0.12 0.184,0.18 0.411,0.184 a 0.724,0.724 0 0 0 0.544,-0.24 3.79,3.79 0 0 0 0.366,-0.502 l 4.477,-6.59 -1.483,5.568 c -0.045,0.24 -0.112,0.48 -0.2,0.724 a 0.68,0.68 0 0 1 -0.527,0.45 c -0.15,0.01 -0.319,0.036 -0.505,0.074 -0.187,0.038 -0.289,0.154 -0.306,0.346 0.003,0.103 0.04,0.176 0.107,0.219 a 0.435,0.435 0 0 0 0.243,0.06 c 0.322,-0.004 0.646,-0.022 0.972,-0.055 0.326,-0.033 0.65,-0.051 0.972,-0.056 0.336,0.005 0.672,0.023 1.007,0.056 0.336,0.033 0.672,0.05 1.007,0.056 a 0.736,0.736 0 0 0 0.334,-0.063 c 0.098,-0.045 0.15,-0.136 0.156,-0.273 -0.012,-0.168 -0.097,-0.265 -0.254,-0.292 a 3.703,3.703 0 0 1 -0.472,-0.111 c -0.157,-0.048 -0.242,-0.19 -0.254,-0.422 0.002,-0.17 0.022,-0.341 0.06,-0.516 0.036,-0.175 0.077,-0.343 0.121,-0.505 l 1.427,-5.722 c 0.05,-0.252 0.115,-0.448 0.194,-0.59 0.08,-0.14 0.253,-0.228 0.52,-0.263 a 1.39,1.39 0 0 0 0.413,-0.087 c 0.135,-0.051 0.206,-0.158 0.216,-0.32 z"
         id="path24"
         inkscape:connector-curvature="0" />
    </g>
  </g>
  <g
     id="g32">
    <path
       d="m 76.767,1.457 c 41.526,0 75.31,33.784 75.31,75.31 0,41.526 -33.784,75.31 -75.31,75.31 -41.526,0 -75.31,-33.784 -75.31,-75.31 0,-41.526 33.784,-75.31 75.31,-75.31 M 76.767,0 C 34.37,0 0,34.37 0,76.767 c 0,42.397 34.37,76.767 76.767,76.767 42.397,0 76.767,-34.37 76.767,-76.767 C 153.534,34.37 119.164,0 76.767,0 Z"
       id="path30"
       inkscape:connector-curvature="0"
       style="fill:#ababab" />
  </g>
  <g
     id="g36"
     style="fill:#323333">
    <path
       d="m 9.323,73.872 v -0.379 c 0,-1.659 0.531,-1.905 4.019,-1.905 1.829,0 2.455,0.076 2.853,0.351 0.398,0.275 0.55,0.673 0.55,1.431 0,0.891 -0.237,1.204 -1.024,1.365 0.967,0.218 1.147,0.455 1.147,1.507 0,0.938 -0.246,1.346 -0.938,1.583 -0.502,0.171 -1.498,0.237 -3.536,0.237 -1.611,0 -2.275,-0.123 -2.673,-0.483 C 9.389,77.266 9.304,76.906 9.304,75.712 h 1.829 l 0.009,0.114 c 0,0.512 0.066,0.635 0.332,0.701 0.114,0.019 0.929,0.047 1.583,0.047 0.351,0 1.27,-0.028 1.422,-0.047 C 14.877,76.48 15,76.356 15,75.996 15,75.712 14.915,75.569 14.716,75.513 14.555,75.475 14.507,75.475 13.36,75.456 H 12.251 V 74.1 h 1.46 c 0.948,0 1.166,-0.095 1.166,-0.531 0,-0.483 -0.133,-0.521 -1.763,-0.521 -1.953,0 -1.953,0 -1.953,0.682 v 0.142 z m 8.645,0.142 V 73.74 c 0,-1.915 0.398,-2.152 3.602,-2.152 2.635,0 2.948,0.028 3.365,0.303 0.427,0.275 0.559,0.692 0.559,1.697 0,0.749 -0.076,1.119 -0.275,1.422 -0.275,0.408 -0.863,0.616 -1.934,0.673 -2.654,0.171 -3.024,0.199 -3.147,0.256 -0.237,0.095 -0.303,0.218 -0.313,0.531 v 0.066 h 5.773 v 1.45 h -7.536 c -0.028,-0.313 -0.028,-0.417 -0.028,-0.72 0,-1.052 0.038,-1.536 0.142,-1.829 0.199,-0.588 0.607,-0.825 1.592,-0.957 0.076,-0.009 0.976,-0.076 2.72,-0.218 1.119,-0.085 1.204,-0.133 1.204,-0.645 0,-0.37 -0.066,-0.502 -0.303,-0.569 -0.171,-0.057 -0.426,-0.066 -1.431,-0.066 -1.223,0 -1.725,0.028 -1.924,0.114 -0.161,0.057 -0.199,0.228 -0.209,0.701 v 0.218 h -1.857 z m 10.143,-2.35 V 74.1 h 0.076 c 0.332,-0.559 0.758,-0.72 1.877,-0.72 1.109,0 1.735,0.123 2.123,0.417 0.436,0.332 0.569,0.768 0.569,1.934 0,1.119 -0.114,1.574 -0.493,1.905 -0.37,0.332 -0.995,0.465 -2.152,0.465 -1.251,0 -1.678,-0.142 -2.01,-0.701 h -0.085 v 0.588 h -1.583 v -6.322 h 1.678 z m 0.313,3.147 c -0.237,0.142 -0.313,0.37 -0.313,0.948 0,0.635 0.095,0.844 0.436,0.957 0.209,0.066 0.635,0.114 1.081,0.114 0.607,0 1.014,-0.066 1.194,-0.199 0.19,-0.133 0.256,-0.379 0.256,-0.938 0,-0.597 -0.095,-0.806 -0.398,-0.929 -0.218,-0.076 -0.626,-0.123 -1.081,-0.123 -0.588,-0.001 -0.986,0.056 -1.175,0.17 z m 6.644,-3.147 v 1.261 H 33.39 v -1.261 z m 0,1.839 v 4.484 H 33.39 v -4.484 z m 2.939,-1.034 v 1.033 h 2.654 v 1.204 h -2.654 v 1.308 c 0,0.493 0.009,0.559 0.085,0.673 0.085,0.152 0.256,0.218 0.578,0.218 0.341,0 0.531,-0.066 0.607,-0.228 0.057,-0.104 0.066,-0.142 0.066,-0.607 h 1.536 c -0.019,0.853 -0.085,1.128 -0.341,1.46 -0.341,0.426 -0.853,0.569 -2.01,0.569 -1.071,0 -1.507,-0.095 -1.839,-0.417 -0.237,-0.237 -0.332,-0.483 -0.351,-0.995 -0.009,-0.076 -0.009,-0.303 -0.009,-0.673 v -1.308 h -0.882 v -1.204 h 0.882 v -1.033 z"
       id="path34"
       inkscape:connector-curvature="0" />
  </g>
  <g
     id="g44">
    <path
       d="m 48.708,125.502 h 4.238 l -1.895,-1.974 h -2.343 z"
       id="path38"
       inkscape:connector-curvature="0"
       style="fill:#ff0000" />
    <g
       id="g42"
       style="fill:#002255">
      <path
         d="m 41.235,123.318 a 5.688,5.688 0 0 0 7.423,5.416 v -2.838 a 3.207,3.207 0 0 1 -1.615,0.432 c -1.729,0 -3.129,-1.348 -3.129,-3.01 0,-1.663 1.4,-3.011 3.129,-3.011 0.591,0 1.143,0.158 1.615,0.432 v -2.842 a 5.694,5.694 0 0 0 -7.423,5.421 z m 7.473,-0.19 h 2.343 l 1.895,-1.973 h -4.238 z m 13.946,-1.516 c -0.83,0.005 -1.51,0.231 -2.041,0.677 -0.53,0.446 -0.804,1.08 -0.822,1.902 0.018,0.818 0.292,1.449 0.822,1.894 0.53,0.445 1.21,0.67 2.041,0.675 0.83,-0.006 1.51,-0.231 2.041,-0.675 0.53,-0.445 0.804,-1.076 0.822,-1.894 -0.018,-0.823 -0.292,-1.457 -0.822,-1.902 -0.531,-0.446 -1.211,-0.672 -2.041,-0.677 z m 0.846,3.541 c -0.175,0.266 -0.458,0.405 -0.847,0.417 -0.389,-0.012 -0.671,-0.151 -0.847,-0.417 -0.175,-0.266 -0.262,-0.587 -0.259,-0.962 -0.003,-0.38 0.083,-0.704 0.259,-0.971 0.176,-0.267 0.458,-0.406 0.847,-0.418 0.389,0.012 0.671,0.151 0.847,0.418 0.176,0.267 0.262,0.59 0.259,0.971 0.003,0.376 -0.083,0.697 -0.259,0.962 z m 9.354,-3.541 c -0.354,-0.002 -0.683,0.073 -0.987,0.224 -0.304,0.151 -0.558,0.392 -0.76,0.72 a 1.446,1.446 0 0 0 -0.607,-0.713 1.82,1.82 0 0 0 -0.933,-0.231 c -0.392,-0.002 -0.746,0.08 -1.06,0.244 -0.314,0.164 -0.559,0.423 -0.734,0.776 h -0.019 v -0.907 h -1.549 v 4.922 h 1.701 v -2.078 c 0.002,-0.527 0.087,-0.916 0.255,-1.167 a 0.798,0.798 0 0 1 0.709,-0.373 c 0.239,0.006 0.413,0.098 0.521,0.277 0.108,0.179 0.161,0.411 0.159,0.696 v 2.645 h 1.701 v -2.078 c 0.002,-0.527 0.087,-0.916 0.255,-1.167 a 0.798,0.798 0 0 1 0.709,-0.373 c 0.239,0.006 0.413,0.098 0.521,0.277 0.108,0.179 0.161,0.411 0.159,0.696 v 2.645 h 1.701 v -2.9 c 0.016,-0.672 -0.096,-1.194 -0.338,-1.567 -0.244,-0.373 -0.711,-0.562 -1.404,-0.568 z m 9.314,0 a 2.16,2.16 0 0 0 -0.987,0.224 1.881,1.881 0 0 0 -0.76,0.72 1.446,1.446 0 0 0 -0.607,-0.713 1.82,1.82 0 0 0 -0.933,-0.231 c -0.392,-0.002 -0.746,0.08 -1.06,0.244 -0.314,0.164 -0.559,0.423 -0.734,0.776 h -0.019 v -0.907 h -1.549 v 4.922 h 1.701 v -2.078 c 0.002,-0.527 0.087,-0.916 0.255,-1.167 a 0.798,0.798 0 0 1 0.709,-0.373 c 0.239,0.006 0.413,0.098 0.521,0.277 0.108,0.179 0.161,0.411 0.159,0.696 v 2.645 h 1.701 v -2.078 c 0.002,-0.527 0.087,-0.916 0.255,-1.167 a 0.798,0.798 0 0 1 0.709,-0.373 c 0.239,0.006 0.413,0.098 0.521,0.277 0.108,0.179 0.161,0.411 0.159,0.696 v 2.645 h 1.701 v -2.9 c 0.016,-0.672 -0.096,-1.194 -0.338,-1.567 -0.245,-0.373 -0.712,-0.562 -1.404,-0.568 z m 5.288,0 c -0.83,0.005 -1.51,0.231 -2.041,0.677 -0.53,0.446 -0.804,1.08 -0.822,1.902 0.018,0.818 0.292,1.449 0.822,1.894 0.53,0.445 1.21,0.67 2.041,0.675 0.83,-0.006 1.51,-0.231 2.041,-0.675 0.53,-0.445 0.804,-1.076 0.822,-1.894 -0.018,-0.823 -0.292,-1.457 -0.822,-1.902 -0.53,-0.446 -1.21,-0.672 -2.041,-0.677 z m 0.847,3.541 c -0.175,0.266 -0.458,0.405 -0.847,0.417 -0.389,-0.012 -0.671,-0.151 -0.847,-0.417 -0.175,-0.266 -0.262,-0.587 -0.259,-0.962 -0.003,-0.38 0.083,-0.704 0.259,-0.971 0.175,-0.267 0.458,-0.406 0.847,-0.418 0.389,0.012 0.671,0.151 0.847,0.418 0.175,0.267 0.262,0.59 0.259,0.971 0.003,0.376 -0.083,0.697 -0.259,0.962 z m 6.284,-2.795 h -0.019 a 1.79,1.79 0 0 0 -0.753,-0.586 2.476,2.476 0 0 0 -0.938,-0.161 c -0.683,0.028 -1.204,0.291 -1.563,0.789 a 2.851,2.851 0 0 0 -0.543,1.696 c 0.002,0.747 0.194,1.373 0.575,1.878 0.381,0.504 0.939,0.766 1.673,0.786 0.4,-0.007 0.753,-0.104 1.058,-0.291 0.305,-0.187 0.516,-0.42 0.633,-0.701 h 0.019 v 0.879 h 1.568 v -7.085 h -1.71 z m -0.298,2.74 a 0.956,0.956 0 0 1 -0.732,0.359 c -0.324,-0.006 -0.576,-0.129 -0.756,-0.367 -0.18,-0.239 -0.271,-0.557 -0.274,-0.955 a 1.39,1.39 0 0 1 0.267,-0.854 c 0.176,-0.233 0.431,-0.355 0.763,-0.365 a 0.938,0.938 0 0 1 0.753,0.363 c 0.186,0.235 0.281,0.542 0.286,0.922 -0.007,0.366 -0.11,0.665 -0.307,0.897 z m 5.52,-3.486 c -0.83,0.005 -1.51,0.231 -2.041,0.677 -0.53,0.446 -0.804,1.08 -0.822,1.902 0.018,0.818 0.292,1.449 0.822,1.894 0.53,0.445 1.21,0.67 2.041,0.675 0.83,-0.006 1.51,-0.231 2.041,-0.675 0.53,-0.445 0.804,-1.076 0.822,-1.894 -0.018,-0.823 -0.292,-1.457 -0.822,-1.902 -0.53,-0.446 -1.21,-0.672 -2.041,-0.677 z m 0.847,3.541 c -0.175,0.266 -0.458,0.405 -0.847,0.417 -0.389,-0.012 -0.671,-0.151 -0.847,-0.417 -0.175,-0.266 -0.262,-0.587 -0.259,-0.962 -0.003,-0.38 0.083,-0.704 0.259,-0.971 0.175,-0.267 0.458,-0.406 0.847,-0.418 0.389,0.012 0.671,0.151 0.847,0.418 0.176,0.267 0.262,0.59 0.259,0.971 0.003,0.376 -0.084,0.697 -0.259,0.962 z m 5.727,-3.541 c -0.365,0.004 -0.663,0.096 -0.894,0.276 a 1.942,1.942 0 0 0 -0.561,0.744 h -0.019 v -0.907 h -1.549 v 4.922 h 1.701 v -2.078 c 0.002,-0.486 0.109,-0.863 0.321,-1.131 0.212,-0.268 0.518,-0.405 0.916,-0.409 0.099,-10e-4 0.196,0.001 0.292,0.007 0.095,0.006 0.19,0.022 0.285,0.05 l 0.085,-1.417 a 4.514,4.514 0 0 0 -0.277,-0.039 2.76,2.76 0 0 0 -0.3,-0.018 z m 5.915,2.759 c 0.01,-0.756 -0.176,-1.398 -0.559,-1.928 -0.383,-0.53 -1.025,-0.807 -1.926,-0.83 -0.779,0.005 -1.41,0.231 -1.892,0.675 -0.482,0.444 -0.73,1.076 -0.744,1.894 0.018,0.818 0.292,1.451 0.822,1.899 0.53,0.448 1.21,0.674 2.041,0.68 0.318,0.001 0.629,-0.024 0.934,-0.074 0.305,-0.05 0.595,-0.129 0.87,-0.237 v -1.2 a 3.16,3.16 0 0 1 -1.502,0.378 c -0.418,0.003 -0.751,-0.069 -0.999,-0.217 -0.248,-0.148 -0.397,-0.391 -0.446,-0.727 h 3.401 z m -3.42,-0.652 c 0.018,-0.291 0.103,-0.533 0.256,-0.727 0.153,-0.194 0.383,-0.295 0.688,-0.302 0.337,0.008 0.579,0.108 0.727,0.302 0.148,0.194 0.22,0.437 0.217,0.727 z m -49.979,1.586 c -0.977,0.253 -2.065,0.085 -2.666,-0.413 -0.974,-0.806 -0.99,-2.726 -0.028,-3.459 0.404,-0.308 1.012,-0.475 1.654,-0.479 0.319,-0.002 0.646,0.037 0.961,0.118 0.328,0.085 0.448,0.111 0.448,0.111 l 0.159,-1.473 c -0.48,-0.091 -0.972,-0.185 -1.545,-0.185 -0.916,0 -1.841,0.166 -2.525,0.501 -1.342,0.656 -2.054,2.162 -1.799,3.804 0.128,0.827 0.341,1.299 0.818,1.817 0.482,0.523 1.036,0.85 1.78,1.051 0.455,0.123 0.765,0.16 1.71,0.16 0.738,0 1.346,-0.118 1.625,-0.184 l -0.133,-1.488 z"
         id="path40"
         inkscape:connector-curvature="0" />
    </g>
  </g>
</svg>
