<?xml version="1.0" encoding="UTF-8" standalone="no"?>
<svg
   xmlns:dc="http://purl.org/dc/elements/1.1/"
   xmlns:cc="http://creativecommons.org/ns#"
   xmlns:rdf="http://www.w3.org/1999/02/22-rdf-syntax-ns#"
   xmlns:svg="http://www.w3.org/2000/svg"
   xmlns="http://www.w3.org/2000/svg"
   xmlns:sodipodi="http://sodipodi.sourceforge.net/DTD/sodipodi-0.dtd"
   xmlns:inkscape="http://www.inkscape.org/namespaces/inkscape"
   viewBox="0 0 135.188 168.829"
   version="1.1"
   id="svg23"
   sodipodi:docname="game.svg"
   width="135.188"
   height="168.82899"
   inkscape:version="0.92.4 5da689c313, 2019-01-14">
  <metadata
     id="metadata29">
    <rdf:RDF>
      <cc:Work
         rdf:about="">
        <dc:format>image/svg+xml</dc:format>
        <dc:type
           rdf:resource="http://purl.org/dc/dcmitype/StillImage" />
      </cc:Work>
    </rdf:RDF>
  </metadata>
  <defs
     id="defs27" />
  <sodipodi:namedview
     pagecolor="#ffffff"
     bordercolor="#666666"
     borderopacity="1"
     objecttolerance="10"
     gridtolerance="10"
     guidetolerance="10"
     inkscape:pageopacity="0"
     inkscape:pageshadow="2"
     inkscape:window-width="640"
     inkscape:window-height="480"
     id="namedview25"
     showgrid="false"
     inkscape:zoom="1.3978642"
     inkscape:cx="67.594002"
     inkscape:cy="84.414503"
     inkscape:window-x="0"
     inkscape:window-y="0"
     inkscape:window-maximized="0"
     inkscape:current-layer="svg23" />
  <path
     d="M 130.723,168.829 H 4.465 a 2.44,2.44 0 0 1 -2.44,-2.44 V 2.44 A 2.44,2.44 0 0 1 4.465,0 h 6.282 l 1.557,1.246 H 122.417 L 124.286,0 h 6.438 a 2.44,2.44 0 0 1 2.44,2.44 v 163.949 a 2.44,2.44 0 0 1 -2.441,2.44 z"
     id="path2"
     inkscape:connector-curvature="0"
     style="fill:#20221f" />
  <linearGradient
     id="a"
     gradientUnits="userSpaceOnUse"
     x1="14.921"
     y1="103.602"
     x2="119.847"
     y2="-1.324">
    <stop
       offset="0"
       stop-color="#594992"
       id="stop4" />
    <stop
       offset="1"
       stop-color="#2a4086"
       id="stop6" />
  </linearGradient>
  <path
     d="m 12.304,1.246 v 98.498 c 0,1.61 1.255,2.916 2.803,2.916 h 104.662 c 1.462,0 2.648,-1.233 2.648,-2.754 V 1.246"
     id="path9"
     inkscape:connector-curvature="0"
     style="fill:url(#a)" />
  <path
     d="m 0,64.946 h 2.025 v 3.426 H 0 Z M 0,62.104 H 2.025 V 58.678 H 0 Z M 0,55.757 H 2.025 V 52.331 H 0 Z m 0,-6.23 H 2.025 V 46.101 H 0 Z M 0,43.22 H 2.025 V 39.794 H 0 Z M 0,30.799 H 2.025 V 27.373 H 0 Z m 0,6.23 H 2.025 V 33.603 H 0 Z M 0,25.192 H 2.025 V 21.766 H 0 Z M 0,18.417 H 2.025 V 14.991 H 0 Z M 0,11.954 H 2.025 V 8.527 H 0 Z m 133.163,56.419 h 2.025 v -3.426 h -2.025 z m 0,-6.269 h 2.025 v -3.426 h -2.025 z m 0,-6.347 h 2.025 v -3.426 h -2.025 z m 0,-6.23 h 2.025 v -3.426 h -2.025 z m 0,-6.307 h 2.025 v -3.426 h -2.025 z m 0,-12.421 h 2.025 v -3.426 h -2.025 z m 0,6.23 h 2.025 v -3.426 h -2.025 z m 0,-11.837 h 2.025 v -3.426 h -2.025 z m 0,-6.775 h 2.025 v -3.426 h -2.025 z m 0,-6.463 h 2.025 V 8.527 h -2.025 z"
     id="path11"
     inkscape:connector-curvature="0"
     style="fill:#20221f" />
  <g
     id="g19"
     style="fill:#b04449">
    <path
       d="m 67.321,95.082 h -1.159 a 0.1,0.1 0 0 1 -0.099,-0.099 v -1.168 a 0.1,0.1 0 0 1 0.099,-0.099 h 4.341 a 0.1,0.1 0 0 1 0.099,0.099 v 1.168 a 0.1,0.1 0 0 1 -0.099,0.099 H 69.47 a 0.1,0.1 0 0 0 -0.099,0.099 l 0.009,3.273 a 0.1,0.1 0 0 1 -0.099,0.099 H 67.517 A 0.1,0.1 0 0 1 67.418,98.454 V 95.18 a 0.097,0.097 0 0 0 -0.097,-0.098 z"
       id="path13"
       inkscape:connector-curvature="0" />
    <path
       d="m 71.679,94.765 h 1.949 a 0.1,0.1 0 0 1 0.099,0.099 v 0.831 a 0.1,0.1 0 0 1 -0.099,0.099 h -1.526 c -0.096,0.013 -0.148,0.064 -0.154,0.154 0.006,0.096 0.058,0.148 0.154,0.154 h 0.471 c 0,0 0.332,-0.012 0.719,0.137 0.185,0.076 0.348,0.197 0.473,0.353 0.141,0.173 0.215,0.42 0.221,0.74 -0.006,0.327 -0.08,0.577 -0.221,0.75 a 1.09,1.09 0 0 1 -0.473,0.353 c -0.005,0.002 -0.32,0.118 -0.509,0.118 H 70.499 A 0.1,0.1 0 0 1 70.4,98.454 v -0.831 a 0.1,0.1 0 0 1 0.099,-0.099 h 1.661 c 0.098,0 0.154,-0.052 0.154,-0.154 0,-0.098 -0.053,-0.154 -0.154,-0.154 h -0.48 l -0.204,-0.009 c -0.006,0 -0.248,-0.023 -0.506,-0.109 a 1.053,1.053 0 0 1 -0.473,-0.353 c -0.141,-0.179 -0.215,-0.432 -0.222,-0.759 0.006,-0.327 0.08,-0.577 0.222,-0.75 0.14,-0.171 0.297,-0.289 0.474,-0.353 0.005,-0.002 0.252,-0.118 0.499,-0.118 z m 5.988,0 a 0.1,0.1 0 0 1 0.099,0.099 v 2.334 c -0.013,0.41 -0.154,0.75 -0.423,1.019 -0.275,0.269 -0.615,0.41 -1.019,0.423 h -0.76 c -0.41,-0.013 -0.75,-0.154 -1.019,-0.423 -0.269,-0.269 -0.41,-0.609 -0.423,-1.019 v -2.334 a 0.1,0.1 0 0 1 0.099,-0.099 h 1.428 a 0.1,0.1 0 0 1 0.099,0.099 v 2.459 c 0.013,0.121 0.08,0.189 0.202,0.202 0.121,-0.013 0.189,-0.08 0.202,-0.202 v -2.459 a 0.1,0.1 0 0 1 0.099,-0.099 z m 7.893,0 a 0.1,0.1 0 0 1 0.099,0.099 v 2.334 c -0.013,0.41 -0.154,0.75 -0.423,1.019 -0.275,0.269 -0.615,0.41 -1.019,0.423 h -0.76 c -0.41,-0.013 -0.75,-0.154 -1.019,-0.423 -0.269,-0.269 -0.41,-0.609 -0.423,-1.019 v -2.334 a 0.1,0.1 0 0 1 0.099,-0.099 h 1.428 a 0.1,0.1 0 0 1 0.099,0.099 v 2.459 c 0.013,0.121 0.08,0.189 0.202,0.202 0.121,-0.013 0.189,-0.08 0.202,-0.202 l -0.009,-2.459 a 0.1,0.1 0 0 1 0.099,-0.099 z"
       id="path15"
       inkscape:connector-curvature="0" />
    <path
       d="m 79.939,95.646 0.111,-0.815 a 0.097,0.097 0 0 1 0.098,-0.085 h 1.567 c 0.077,0 0.124,0.084 0.084,0.149 l -0.99,1.657 a 0.098,0.098 0 0 0 0.007,0.111 l 1.361,1.729 A 0.098,0.098 0 0 1 82.16,98.53 0.1,0.1 0 0 1 82.1,98.551 h -1.611 a 0.1,0.1 0 0 1 -0.088,-0.054 l -0.566,-1.124 c -0.011,-0.021 -0.095,-0.159 -0.226,-0.114 -0.141,0.05 -0.054,0.266 -0.052,0.272 l 0.331,0.886 a 0.099,0.099 0 0 1 -0.093,0.133 l -1.653,-0.008 a 0.098,0.098 0 0 1 -0.098,-0.098 v -4.698 a 0.1,0.1 0 0 1 0.099,-0.099 h 1.313 a 0.1,0.1 0 0 1 0.099,0.099 v 2.064 c 0,0.062 0.055,0.097 0.118,0.097 0.24,0.002 0.264,-0.253 0.266,-0.261 z m 8.046,1.677 -0.009,-3.555 a 0.1,0.1 0 0 1 0.099,-0.099 h 1.369 a 0.1,0.1 0 0 1 0.099,0.099 v 4.677 a 0.1,0.1 0 0 1 -0.099,0.099 h -2.276 c -0.436,-0.013 -0.769,-0.163 -1,-0.452 -0.237,-0.295 -0.356,-0.66 -0.356,-1.096 v -0.559 c 0.006,-0.443 0.135,-0.808 0.385,-1.096 0.25,-0.295 0.593,-0.449 1.029,-0.461 h 0.257 a 0.1,0.1 0 0 1 0.099,0.099 v 2.344 c 0.013,0.121 0.08,0.189 0.202,0.202 0.121,-0.014 0.188,-0.081 0.201,-0.202 z M 91.773,95.9 H 90.15 A 0.1,0.1 0 0 1 90.051,95.801 V 94.96 a 0.1,0.1 0 0 1 0.099,-0.099 h 2.275 c 0.223,0 0.379,0.078 0.384,0.08 a 0.816,0.816 0 0 1 0.357,0.275 c 0.109,0.129 0.166,0.323 0.173,0.586 l -0.009,2.642 a 0.1,0.1 0 0 1 -0.099,0.099 H 90.878 A 1.166,1.166 0 0 1 89.705,97.37 c 0.006,-0.334 0.121,-0.609 0.346,-0.827 0.218,-0.218 0.494,-0.334 0.827,-0.346 h 0.411 a 0.1,0.1 0 0 1 0.099,0.099 v 1.084 c 0,0.123 0.08,0.202 0.202,0.202 0.125,0 0.202,-0.078 0.202,-0.202 v -1.471 z"
       id="path17"
       inkscape:connector-curvature="0" />
  </g>
  <path
     d="m 104.701,93.852 v 0.846 h -1.529 v -0.846 z m 5.653,0 v 0.846 h -1.529 v -0.846 z m -3.499,2.134 c -0.177,0 -0.202,0.144 -0.202,0.202 v 2.461 h -0.356 c -0.436,-0.006 -0.779,-0.157 -1.029,-0.452 -0.25,-0.289 -0.378,-0.654 -0.385,-1.096 v -0.587 c 0,-0.436 0.118,-0.801 0.356,-1.096 0.237,-0.289 0.57,-0.439 1,-0.452 h 2.375 v 3.605 c 0,0 0.019,0.342 -0.135,0.663 a 1.279,1.279 0 0 1 -0.356,0.452 c -0.173,0.129 -0.417,0.196 -0.73,0.202 h -1.25 v -0.962 l 0.241,-0.019 c 0.148,-0.013 0.295,-0.054 0.443,-0.125 a 0.371,0.371 0 0 0 0.231,-0.327 v -2.27 c -0.001,0.003 0.004,-0.199 -0.203,-0.199 z m -3.798,0.635 h -1.529 v -0.519 c 0,0 10e-4,-0.192 -0.192,-0.192 -0.167,0 -0.192,0.135 -0.192,0.192 v 2.558 h -1.529 v -3.692 h 2.365 c 0.282,0.006 0.497,0.093 0.645,0.26 0.154,0.16 0.26,0.349 0.317,0.567 l 0.106,0.567 z m 7.596,-1.654 h 2.365 c 0.282,0.006 0.497,0.093 0.645,0.26 0.154,0.16 0.253,0.351 0.317,0.567 0.117,0.393 0.115,0.827 0.115,0.827 v 2.029 h -1.529 v -2.548 c 0,0 0.013,-0.192 -0.192,-0.192 -0.136,0 -0.192,0.069 -0.192,0.192 v 2.548 h -1.529 z m -5.952,0 v 3.682 h -1.529 v -3.682 z m 5.653,0 v 3.682 h -1.529 v -3.682 z m 9.27,-1.115 v 4.798 h -1.529 v -4.798 z m -3.299,2.153 h -1.623 a 0.1,0.1 0 0 1 -0.099,-0.099 v -0.841 a 0.1,0.1 0 0 1 0.099,-0.099 h 2.275 c 0.222,0 0.379,0.078 0.384,0.08 a 0.816,0.816 0 0 1 0.357,0.275 c 0.109,0.129 0.166,0.323 0.173,0.586 l -0.009,2.642 a 0.1,0.1 0 0 1 -0.099,0.099 h -2.352 a 1.166,1.166 0 0 1 -1.173,-1.173 c 0.006,-0.334 0.121,-0.609 0.346,-0.827 0.218,-0.218 0.494,-0.334 0.827,-0.346 h 0.411 a 0.1,0.1 0 0 1 0.099,0.099 v 1.084 c 0,0.123 0.08,0.202 0.202,0.202 0.125,0 0.202,-0.078 0.202,-0.202 V 96.014 Z M 97.079,93.65 h -0.178 a 2.321,2.321 0 0 0 -2.315,2.315 v 0.38 a 2.321,2.321 0 0 0 2.315,2.315 h 0.178 a 2.321,2.321 0 0 0 2.315,-2.315 v -0.38 A 2.32,2.32 0 0 0 97.079,93.65 Z m 0.104,3.687 c -0.006,0.115 -0.07,0.18 -0.192,0.192 -0.115,-0.013 -0.18,-0.077 -0.192,-0.192 v -2.365 c 0.013,-0.121 0.077,-0.186 0.192,-0.192 a 0.164,0.164 0 0 1 0.135,0.058 0.17,0.17 0 0 1 0.058,0.135 c -10e-4,-0.001 -10e-4,2.364 -10e-4,2.364 z"
     id="path21"
     inkscape:connector-curvature="0"
     style="fill:#b04449" />
</svg>
