<?xml version="1.0" encoding="UTF-8" standalone="no"?>
<svg
   xmlns:dc="http://purl.org/dc/elements/1.1/"
   xmlns:cc="http://creativecommons.org/ns#"
   xmlns:rdf="http://www.w3.org/1999/02/22-rdf-syntax-ns#"
   xmlns:svg="http://www.w3.org/2000/svg"
   xmlns="http://www.w3.org/2000/svg"
   xmlns:sodipodi="http://sodipodi.sourceforge.net/DTD/sodipodi-0.dtd"
   xmlns:inkscape="http://www.inkscape.org/namespaces/inkscape"
   viewBox="0 0 350 102.59003"
   version="1.1"
   id="svg110"
   sodipodi:docname="logo.svg"
   width="350"
   height="102.59003"
   inkscape:version="0.92.4 5da689c313, 2019-01-14">
  <metadata
     id="metadata116">
    <rdf:RDF>
      <cc:Work
         rdf:about="">
        <dc:format>image/svg+xml</dc:format>
        <dc:type
           rdf:resource="http://purl.org/dc/dcmitype/StillImage" />
      </cc:Work>
    </rdf:RDF>
  </metadata>
  <defs
     id="defs114" />
  <sodipodi:namedview
     pagecolor="#ffffff"
     bordercolor="#666666"
     borderopacity="1"
     objecttolerance="10"
     gridtolerance="10"
     guidetolerance="10"
     inkscape:pageopacity="0"
     inkscape:pageshadow="2"
     inkscape:window-width="471"
     inkscape:window-height="442"
     id="namedview112"
     showgrid="false"
     inkscape:zoom="0.77902891"
     inkscape:cx="173.93378"
     inkscape:cy="51.296918"
     inkscape:window-x="0"
     inkscape:window-y="0"
     inkscape:window-maximized="0"
     inkscape:current-layer="svg110" />
  <g
     id="g4"
     style="fill:#040006"
     transform="translate(-7.1332208e-4,-0.00189177)">
    <path
       d="m 276.662,27.554 h -44.959 a 0.284,0.284 0 0 0 -0.277,0.225 l -9.38,44.267 a 0.283,0.283 0 0 0 0.277,0.342 h 44.959 a 0.284,0.284 0 0 0 0.277,-0.225 l 9.38,-44.267 a 0.283,0.283 0 0 0 -0.277,-0.342 z M 256.5,61.666 a 0.28,0.28 0 0 1 -0.273,0.222 h -18.4 a 0.279,0.279 0 0 1 -0.273,-0.337 l 4.932,-23.274 a 0.28,0.28 0 0 1 0.273,-0.222 h 18.4 c 0.178,0 0.31,0.164 0.273,0.337 z m -33.227,-29.101 -5.087,-4.93 a 0.29,0.29 0 0 0 -0.201,-0.081 h -38.714 a 0.288,0.288 0 0 0 -0.282,0.229 l -9.378,44.257 a 0.288,0.288 0 0 0 0.282,0.348 h 38.616 c 0.06,0 0.118,-0.019 0.167,-0.054 l 7.338,-5.231 a 0.287,0.287 0 0 0 0.115,-0.175 l 2.584,-12.193 a 0.288,0.288 0 0 0 -0.081,-0.267 l -5.29,-5.127 a 0.29,0.29 0 0 1 0.033,-0.442 l 7.653,-5.455 a 0.287,0.287 0 0 0 0.115,-0.175 l 2.212,-10.438 a 0.287,0.287 0 0 0 -0.082,-0.266 z m -19.419,29.093 a 0.289,0.289 0 0 1 -0.282,0.229 h -18.734 a 0.288,0.288 0 0 1 -0.282,-0.349 l 1.306,-6.14 a 0.288,0.288 0 0 1 0.282,-0.228 h 18.726 c 0.183,0 0.32,0.169 0.282,0.348 z m 3.627,-17.116 a 0.289,0.289 0 0 1 -0.282,0.229 h -18.734 a 0.289,0.289 0 0 1 -0.282,-0.349 l 1.306,-6.14 a 0.288,0.288 0 0 1 0.282,-0.228 h 18.726 c 0.183,0 0.32,0.169 0.282,0.348 z M 51.284,52.35 47.085,72.165 a 0.28,0.28 0 0 1 -0.274,0.222 H 1.552 A 0.28,0.28 0 0 1 1.278,72.048 l 9.381,-44.272 a 0.28,0.28 0 0 1 0.274,-0.222 h 12.843 a 0.28,0.28 0 0 1 0.274,0.339 l -7.13,33.651 a 0.28,0.28 0 0 0 0.274,0.339 H 35.62 a 0.28,0.28 0 0 0 0.274,-0.222 l 7.18,-33.883 a 0.28,0.28 0 0 1 0.274,-0.222 h 12.843 a 0.28,0.28 0 0 1 0.274,0.339 l -2.69,12.694 a 0.28,0.28 0 0 0 0.392,0.313 l 84.59,-38.873 c 0.266,-0.122 0.518,0.194 0.34,0.426 l -48.702,63.45 c -0.178,0.232 0.074,0.548 0.34,0.426 l 30.373,-13.957 a 0.278,0.278 0 0 0 0.157,-0.197 l 5.17,-24.4 a 0.28,0.28 0 0 1 0.274,-0.222 h 44.611 a 0.28,0.28 0 0 1 0.274,0.339 l -2.106,9.939 a 0.28,0.28 0 0 1 -0.274,0.222 h -31.456 a 0.28,0.28 0 0 0 -0.274,0.222 l -1.304,6.156 a 0.28,0.28 0 0 0 0.274,0.339 h 20.307 a 0.28,0.28 0 0 1 0.274,0.339 l -2.085,9.839 a 0.28,0.28 0 0 1 -0.274,0.222 h -20.545 a 0.28,0.28 0 0 0 -0.274,0.222 l -1.304,6.156 a 0.28,0.28 0 0 0 0.274,0.339 h 31.218 a 0.28,0.28 0 0 1 0.274,0.339 l -2.106,9.939 a 0.28,0.28 0 0 1 -0.274,0.222 h -44.611 a 0.28,0.28 0 0 1 -0.274,-0.339 l 1.717,-8.103 a 0.28,0.28 0 0 0 -0.392,-0.313 L 33.65,102.565 c -0.263,0.121 -0.513,-0.192 -0.336,-0.421 l 48.71,-63.461 c 0.178,-0.232 -0.074,-0.548 -0.34,-0.426 L 51.442,52.153 a 0.282,0.282 0 0 0 -0.158,0.197 z m 222.245,19.689 1.215,-5.733 a 0.288,0.288 0 0 1 0.083,-0.149 l 16.838,-16.023 a 0.29,0.29 0 0 0 0.046,-0.362 l -9.983,-16.037 a 0.287,0.287 0 0 1 -0.037,-0.212 l 1.216,-5.738 a 0.29,0.29 0 0 1 0.283,-0.229 h 13.044 a 0.29,0.29 0 0 1 0.245,0.135 l 6.828,10.889 a 0.289,0.289 0 0 0 0.444,0.056 l 11.56,-11 a 0.29,0.29 0 0 1 0.199,-0.08 h 12.966 a 0.29,0.29 0 0 1 0.283,0.349 l -1.196,5.645 a 0.288,0.288 0 0 1 -0.083,0.149 l -16.86,16.109 a 0.288,0.288 0 0 0 -0.045,0.362 l 10.001,15.948 a 0.29,0.29 0 0 1 0.038,0.213 l -1.235,5.826 a 0.29,0.29 0 0 1 -0.283,0.229 h -13.044 a 0.29,0.29 0 0 1 -0.245,-0.135 l -6.828,-10.889 a 0.289,0.289 0 0 0 -0.444,-0.056 l -11.56,11 a 0.29,0.29 0 0 1 -0.199,0.08 H 273.81 a 0.287,0.287 0 0 1 -0.281,-0.347 z"
       id="path2"
       inkscape:connector-curvature="0" />
  </g>
  <linearGradient
     id="a"
     gradientUnits="userSpaceOnUse"
     x1="248.22099"
     y1="70.387001"
     x2="248.22099"
     y2="25.554001"
     gradientTransform="translate(-7.1332208e-4,-0.00189177)">
    <stop
       offset="0"
       stop-color="#d9d9d9"
       id="stop6" />
    <stop
       offset=".1"
       stop-color="#bfbfbf"
       id="stop8" />
    <stop
       offset=".2"
       stop-color="#d9d9d9"
       id="stop10" />
    <stop
       offset=".3"
       stop-color="#bfbfbf"
       id="stop12" />
    <stop
       offset=".4"
       stop-color="#d9d9d9"
       id="stop14" />
    <stop
       offset=".5"
       stop-color="#bfbfbf"
       id="stop16" />
    <stop
       offset=".6"
       stop-color="#d9d9d9"
       id="stop18" />
    <stop
       offset=".7"
       stop-color="#bfbfbf"
       id="stop20" />
    <stop
       offset=".8"
       stop-color="#d9d9d9"
       id="stop22" />
    <stop
       offset=".9"
       stop-color="#bfbfbf"
       id="stop24" />
    <stop
       offset="1"
       stop-color="#d9d9d9"
       id="stop26" />
  </linearGradient>
  <path
     d="m 275.39029,25.552108 h -44.959 a 0.284,0.284 0 0 0 -0.277,0.225 l -9.38,44.267 a 0.283,0.283 0 0 0 0.277,0.342 h 44.959 a 0.284,0.284 0 0 0 0.277,-0.225 l 9.38,-44.267 a 0.283,0.283 0 0 0 -0.277,-0.342 z m -20.162,34.112 a 0.28,0.28 0 0 1 -0.273,0.222 h -18.4 a 0.279,0.279 0 0 1 -0.273,-0.337 l 4.932,-23.274 a 0.28,0.28 0 0 1 0.273,-0.222 h 18.4 c 0.178,0 0.31,0.164 0.273,0.337 z"
     id="path29"
     inkscape:connector-curvature="0"
     style="fill:url(#a)" />
  <linearGradient
     id="b"
     gradientUnits="userSpaceOnUse"
     x1="195.213"
     y1="70.387001"
     x2="195.213"
     y2="25.554001"
     gradientTransform="translate(-7.1332208e-4,-0.00189177)">
    <stop
       offset="0"
       stop-color="#d9d9d9"
       id="stop31" />
    <stop
       offset=".1"
       stop-color="#bfbfbf"
       id="stop33" />
    <stop
       offset=".2"
       stop-color="#d9d9d9"
       id="stop35" />
    <stop
       offset=".3"
       stop-color="#bfbfbf"
       id="stop37" />
    <stop
       offset=".4"
       stop-color="#d9d9d9"
       id="stop39" />
    <stop
       offset=".5"
       stop-color="#bfbfbf"
       id="stop41" />
    <stop
       offset=".6"
       stop-color="#d9d9d9"
       id="stop43" />
    <stop
       offset=".7"
       stop-color="#bfbfbf"
       id="stop45" />
    <stop
       offset=".8"
       stop-color="#d9d9d9"
       id="stop47" />
    <stop
       offset=".9"
       stop-color="#bfbfbf"
       id="stop49" />
    <stop
       offset="1"
       stop-color="#d9d9d9"
       id="stop51" />
  </linearGradient>
  <path
     d="m 222.00129,30.563108 -5.087,-4.93 a 0.29,0.29 0 0 0 -0.201,-0.081 h -38.714 a 0.288,0.288 0 0 0 -0.282,0.229 l -9.378,44.257 a 0.288,0.288 0 0 0 0.282,0.348 h 38.616 c 0.06,0 0.118,-0.019 0.167,-0.054 l 7.338,-5.231 a 0.287,0.287 0 0 0 0.115,-0.175 l 2.584,-12.193 a 0.288,0.288 0 0 0 -0.081,-0.267 l -5.29,-5.127 a 0.29,0.29 0 0 1 0.033,-0.442 l 7.653,-5.455 a 0.287,0.287 0 0 0 0.115,-0.175 l 2.212,-10.438 a 0.287,0.287 0 0 0 -0.082,-0.266 z m -19.419,29.093 a 0.289,0.289 0 0 1 -0.282,0.229 h -18.734 a 0.288,0.288 0 0 1 -0.282,-0.349 l 1.306,-6.14 a 0.288,0.288 0 0 1 0.282,-0.228 h 18.726 c 0.183,0 0.32,0.169 0.282,0.348 z m 3.627,-17.116 a 0.289,0.289 0 0 1 -0.282,0.229 h -18.734 a 0.289,0.289 0 0 1 -0.282,-0.349 l 1.306,-6.14 a 0.288,0.288 0 0 1 0.282,-0.228 h 18.726 c 0.183,0 0.32,0.169 0.282,0.348 z"
     id="path54"
     inkscape:connector-curvature="0"
     style="fill:url(#b)" />
  <linearGradient
     id="c"
     gradientUnits="userSpaceOnUse"
     x1="85.165001"
     y1="100.58"
     x2="85.165001"
     gradientTransform="translate(-7.1332208e-4,-0.00189177)">
    <stop
       offset="0"
       stop-color="#d9d9d9"
       id="stop56" />
    <stop
       offset=".1"
       stop-color="#bfbfbf"
       id="stop58" />
    <stop
       offset=".2"
       stop-color="#d9d9d9"
       id="stop60" />
    <stop
       offset=".3"
       stop-color="#bfbfbf"
       id="stop62" />
    <stop
       offset=".4"
       stop-color="#d9d9d9"
       id="stop64" />
    <stop
       offset=".5"
       stop-color="#bfbfbf"
       id="stop66" />
    <stop
       offset=".6"
       stop-color="#d9d9d9"
       id="stop68" />
    <stop
       offset=".7"
       stop-color="#bfbfbf"
       id="stop70" />
    <stop
       offset=".8"
       stop-color="#d9d9d9"
       id="stop72" />
    <stop
       offset=".9"
       stop-color="#bfbfbf"
       id="stop74" />
    <stop
       offset="1"
       stop-color="#d9d9d9"
       id="stop76" />
  </linearGradient>
  <path
     d="m 50.013287,50.348108 -4.199,19.815 a 0.28,0.28 0 0 1 -0.274,0.222 H 0.28028668 a 0.28,0.28 0 0 1 -0.274,-0.339 l 9.38100002,-44.272 a 0.28,0.28 0 0 1 0.274,-0.222 H 22.504287 a 0.28,0.28 0 0 1 0.274,0.339 l -7.13,33.651 a 0.28,0.28 0 0 0 0.274,0.339 h 18.427 a 0.28,0.28 0 0 0 0.274,-0.222 l 7.18,-33.883 a 0.28,0.28 0 0 1 0.274,-0.222 h 12.843 a 0.28,0.28 0 0 1 0.274,0.339 l -2.69,12.694 a 0.28,0.28 0 0 0 0.392,0.313 L 137.48629,0.02710823 c 0.266,-0.122 0.518,0.194 0.34,0.426 L 89.123287,63.903108 c -0.178,0.232 0.074,0.548 0.34,0.426 l 30.373003,-13.957 a 0.278,0.278 0 0 0 0.157,-0.197 l 5.17,-24.4 a 0.28,0.28 0 0 1 0.274,-0.222 h 44.611 a 0.28,0.28 0 0 1 0.274,0.339 l -2.106,9.939 a 0.28,0.28 0 0 1 -0.274,0.222 h -31.456 a 0.28,0.28 0 0 0 -0.274,0.222 l -1.304,6.156 a 0.28,0.28 0 0 0 0.274,0.339 h 20.307 a 0.28,0.28 0 0 1 0.274,0.339 l -2.085,9.839 a 0.28,0.28 0 0 1 -0.274,0.222 h -20.545 a 0.28,0.28 0 0 0 -0.274,0.222 l -1.304,6.156 a 0.28,0.28 0 0 0 0.274,0.339 h 31.218 a 0.28,0.28 0 0 1 0.274,0.339 l -2.106,9.939 a 0.28,0.28 0 0 1 -0.274,0.222 h -44.611 a 0.28,0.28 0 0 1 -0.274,-0.339 l 1.717,-8.103 a 0.28,0.28 0 0 0 -0.392,-0.313 L 32.402287,100.55211 c -0.27,0.124 -0.525,-0.196 -0.344,-0.431 l 48.694,-63.440002 c 0.178,-0.232 -0.074,-0.548 -0.34,-0.426 l -30.242,13.896 a 0.278,0.278 0 0 0 -0.157,0.197 z"
     id="path79"
     inkscape:connector-curvature="0"
     style="fill:url(#c)" />
  <linearGradient
     id="d"
     gradientUnits="userSpaceOnUse"
     x1="299.87201"
     y1="70.387001"
     x2="299.87201"
     y2="25.554001"
     gradientTransform="translate(-7.1332208e-4,-0.00189177)">
    <stop
       offset="0"
       stop-color="#d9d9d9"
       id="stop81" />
    <stop
       offset=".1"
       stop-color="#bfbfbf"
       id="stop83" />
    <stop
       offset=".2"
       stop-color="#d9d9d9"
       id="stop85" />
    <stop
       offset=".3"
       stop-color="#bfbfbf"
       id="stop87" />
    <stop
       offset=".4"
       stop-color="#d9d9d9"
       id="stop89" />
    <stop
       offset=".5"
       stop-color="#bfbfbf"
       id="stop91" />
    <stop
       offset=".6"
       stop-color="#d9d9d9"
       id="stop93" />
    <stop
       offset=".7"
       stop-color="#bfbfbf"
       id="stop95" />
    <stop
       offset=".8"
       stop-color="#d9d9d9"
       id="stop97" />
    <stop
       offset=".9"
       stop-color="#bfbfbf"
       id="stop99" />
    <stop
       offset="1"
       stop-color="#d9d9d9"
       id="stop101" />
  </linearGradient>
  <path
     d="m 272.25729,70.037108 1.215,-5.733 a 0.288,0.288 0 0 1 0.083,-0.149 l 16.838,-16.023 a 0.29,0.29 0 0 0 0.046,-0.362 l -9.983,-16.037 a 0.287,0.287 0 0 1 -0.037,-0.212 l 1.216,-5.738 a 0.29,0.29 0 0 1 0.283,-0.229 h 13.044 a 0.29,0.29 0 0 1 0.245,0.135 l 6.828,10.889 a 0.289,0.289 0 0 0 0.444,0.056 l 11.56,-11 a 0.29,0.29 0 0 1 0.199,-0.08 h 12.966 a 0.29,0.29 0 0 1 0.283,0.349 l -1.196,5.645 a 0.288,0.288 0 0 1 -0.083,0.149 l -16.857,16.111 a 0.288,0.288 0 0 0 -0.045,0.362 l 10.001,15.948 a 0.29,0.29 0 0 1 0.038,0.213 l -1.235,5.826 a 0.29,0.29 0 0 1 -0.283,0.229 h -13.044 a 0.29,0.29 0 0 1 -0.245,-0.135 l -6.828,-10.889 a 0.289,0.289 0 0 0 -0.444,-0.056 l -11.56,11 a 0.29,0.29 0 0 1 -0.199,0.08 h -12.966 a 0.29,0.29 0 0 1 -0.284,-0.349 z"
     id="path104"
     inkscape:connector-curvature="0"
     style="fill:url(#d)" />
  <g
     id="g108"
     style="fill:#696969"
     transform="translate(-7.1332208e-4,-0.00189177)">
    <path
       d="m 334.54,26.882 h -2.738 l 0.375,-1.575 h 7.101 l -0.375,1.575 h -2.738 l -1.147,5.551 h -1.625 z m 11.175,0.78 -2.246,1.871 h -0.265 l -1.545,-1.871 -0.849,4.778 h -1.739 l 1.256,-7.125 h 1.55 l 1.854,1.843 2.602,-1.843 h 1.536 l -1.256,7.125 h -1.772 z"
       id="path106"
       inkscape:connector-curvature="0" />
  </g>
</svg>
