<?xml version="1.0" encoding="UTF-8" standalone="no"?>
<!-- Generator: Adobe Illustrator 22.0.0, SVG Export Plug-In . SVG Version: 6.00 Build 0)  -->

<svg
   xmlns:dc="http://purl.org/dc/elements/1.1/"
   xmlns:cc="http://creativecommons.org/ns#"
   xmlns:rdf="http://www.w3.org/1999/02/22-rdf-syntax-ns#"
   xmlns:svg="http://www.w3.org/2000/svg"
   xmlns="http://www.w3.org/2000/svg"
   xmlns:sodipodi="http://sodipodi.sourceforge.net/DTD/sodipodi-0.dtd"
   xmlns:inkscape="http://www.inkscape.org/namespaces/inkscape"
   version="1.1"
   id="Layer_1"
   x="0px"
   y="0px"
   viewBox="0 0 228.894 143.379"
   xml:space="preserve"
   sodipodi:docname="game.svg"
   width="228.894"
   height="143.379"
   inkscape:version="0.92.4 5da689c313, 2019-01-14"><metadata
   id="metadata31"><rdf:RDF><cc:Work
       rdf:about=""><dc:format>image/svg+xml</dc:format><dc:type
         rdf:resource="http://purl.org/dc/dcmitype/StillImage" /></cc:Work></rdf:RDF></metadata><defs
   id="defs29" /><sodipodi:namedview
   pagecolor="#ffffff"
   bordercolor="#666666"
   borderopacity="1"
   objecttolerance="10"
   gridtolerance="10"
   guidetolerance="10"
   inkscape:pageopacity="0"
   inkscape:pageshadow="2"
   inkscape:window-width="471"
   inkscape:window-height="442"
   id="namedview27"
   showgrid="false"
   inkscape:zoom="1.1839542"
   inkscape:cx="114.447"
   inkscape:cy="71.689501"
   inkscape:window-x="0"
   inkscape:window-y="0"
   inkscape:window-maximized="0"
   inkscape:current-layer="Layer_1" />
<g
   id="g24">
	<path
   style="fill:#231f20"
   d="m 228.894,3.214 v 0 0 C 228.894,1.434 227.462,0 225.681,0 H 217.136 34.974 V 0 H 3.239 V 0 0 C 1.459,0 0.025,1.432 0.025,3.213 v 9.738 0 0 0 c 0,1.78 1.432,3.214 3.213,3.214 h 11.003 c 1.781,0 3.213,1.434 3.213,3.214 v 0 0 43.327 H 3.214 v 0 0 C 1.434,62.707 0,64.139 0,65.921 v 74.244 0 0 0 c 0,1.78 1.432,3.214 3.213,3.214 H 225.68 v 0 0 0 c 1.78,0 3.214,-1.432 3.214,-3.213 V 3.214"
   id="path2"
   inkscape:connector-curvature="0" />
	<path
   style="fill:#5353f9"
   d="M 207.762,134.097 H 44.348 c -6.6,0 -12,-5.4 -12,-12 V 12 c 0,-6.6 5.4,-12 12,-12 h 163.413 c 6.6,0 12,5.4 12,12 v 110.097 c 0.001,6.6 -5.399,12 -11.999,12 z"
   id="path4"
   inkscape:connector-curvature="0" />
	<rect
   x="181.547"
   y="114.238"
   style="fill:#26241e"
   width="26.909"
   height="10.898"
   id="rect6" />
	<path
   style="fill:#ffffff"
   d="m 206.326,115.772 -2.558,3.736 2.782,4.082 h -2.569 l -1.529,-2.185 -1.541,2.191 h -2.553 c 0.069,-0.144 2.794,-4.087 2.794,-4.087 l -1.161,-1.616 -4.927,0.006 c -0.23,0.018 -0.511,-0.052 -0.627,0.208 -0.04,0.086 -0.058,0.212 -0.011,0.299 0.04,0.098 0.132,0.189 0.235,0.218 l 0.155,0.012 h 1.972 c 0.914,0.023 1.759,0.592 2.156,1.414 0.351,0.69 0.299,1.633 -0.092,2.289 -0.494,0.833 -1.374,1.299 -2.328,1.265 h -5.485 c 0,0 -0.84,-3.03 -0.845,-3.035 l -0.845,3.035 h -2 l -0.805,-3.047 -0.88,3.041 h -2.213 c 0,0 2.035,-7.324 2.167,-7.807 h 1.869 l 0.879,3.266 0.897,-3.266 h 1.834 l 1.57,5.687 h 3.656 c 0.252,-0.012 0.603,0.057 0.707,-0.253 0.04,-0.139 0.006,-0.282 -0.092,-0.38 -0.092,-0.081 -0.207,-0.103 -0.328,-0.103 h -1.966 c -0.931,-0.029 -1.857,-0.638 -2.202,-1.534 -0.374,-0.897 -0.155,-1.973 0.529,-2.667 0.483,-0.484 1.058,-0.725 1.731,-0.754 l 6.45,-0.006 1.3,1.874 1.345,-1.879 z"
   id="path8"
   inkscape:connector-curvature="0" />
	<circle
   style="fill:#1c1b15"
   cx="17.000999"
   cy="106.579"
   r="7.6589999"
   id="circle10" />
	<path
   style="fill:#1c1b15"
   d="M 3.238,62.707 V 16.166 h 11.003 c 1.781,0 3.213,1.434 3.213,3.214 V 62.707 H 3.214"
   id="path12"
   inkscape:connector-curvature="0" />
	<path
   style="fill:#231f20"
   d="M 19.262,25.069 H 0.542 c -0.284,0 -0.517,-0.233 -0.517,-0.517 v -3.489 c 0,-0.284 0.232,-0.517 0.517,-0.517 h 18.72 c 0.284,0 0.517,0.233 0.517,0.517 v 3.489 c -0.001,0.285 -0.233,0.517 -0.517,0.517 z"
   id="path14"
   inkscape:connector-curvature="0" />
	<path
   style="fill:#231f20"
   d="M 19.262,33.166 H 0.542 c -0.284,0 -0.517,-0.232 -0.517,-0.517 V 29.16 c 0,-0.284 0.232,-0.517 0.517,-0.517 h 18.72 c 0.284,0 0.517,0.233 0.517,0.517 v 3.489 c -0.001,0.284 -0.233,0.517 -0.517,0.517 z"
   id="path16"
   inkscape:connector-curvature="0" />
	<path
   style="fill:#231f20"
   d="M 19.262,41.262 H 0.542 c -0.284,0 -0.517,-0.233 -0.517,-0.517 v -3.489 c 0,-0.284 0.232,-0.517 0.517,-0.517 h 18.72 c 0.284,0 0.517,0.233 0.517,0.517 v 3.489 c -0.001,0.285 -0.233,0.517 -0.517,0.517 z"
   id="path18"
   inkscape:connector-curvature="0" />
	<path
   style="fill:#231f20"
   d="M 19.262,49.14 H 0.542 c -0.284,0 -0.517,-0.233 -0.517,-0.517 v -3.489 c 0,-0.284 0.232,-0.517 0.517,-0.517 h 18.72 c 0.284,0 0.517,0.233 0.517,0.517 v 3.489 c -0.001,0.285 -0.233,0.517 -0.517,0.517 z"
   id="path20"
   inkscape:connector-curvature="0" />
	<path
   style="fill:#231f20"
   d="M 19.262,57.018 H 0.542 c -0.284,0 -0.517,-0.233 -0.517,-0.517 v -3.489 c 0,-0.284 0.232,-0.517 0.517,-0.517 h 18.72 c 0.284,0 0.517,0.233 0.517,0.517 v 3.489 c -0.001,0.284 -0.233,0.517 -0.517,0.517 z"
   id="path22"
   inkscape:connector-curvature="0" />
</g>
</svg>