<?xml version="1.0" encoding="UTF-8" standalone="no"?>
<svg
   xmlns:dc="http://purl.org/dc/elements/1.1/"
   xmlns:cc="http://creativecommons.org/ns#"
   xmlns:rdf="http://www.w3.org/1999/02/22-rdf-syntax-ns#"
   xmlns:svg="http://www.w3.org/2000/svg"
   xmlns="http://www.w3.org/2000/svg"
   xmlns:sodipodi="http://sodipodi.sourceforge.net/DTD/sodipodi-0.dtd"
   xmlns:inkscape="http://www.inkscape.org/namespaces/inkscape"
   viewBox="-290 382 30 30"
   version="1.1"
   id="svg54"
   sodipodi:docname="icon_filled.svg"
   inkscape:version="0.92.4 5da689c313, 2019-01-14">
  <metadata
     id="metadata60">
    <rdf:RDF>
      <cc:Work
         rdf:about="">
        <dc:format>image/svg+xml</dc:format>
        <dc:type
           rdf:resource="http://purl.org/dc/dcmitype/StillImage" />
      </cc:Work>
    </rdf:RDF>
  </metadata>
  <defs
     id="defs58" />
  <sodipodi:namedview
     pagecolor="#ffffff"
     bordercolor="#666666"
     borderopacity="1"
     objecttolerance="10"
     gridtolerance="10"
     guidetolerance="10"
     inkscape:pageopacity="0"
     inkscape:pageshadow="2"
     inkscape:window-width="471"
     inkscape:window-height="442"
     id="namedview56"
     showgrid="false"
     inkscape:zoom="7.8666667"
     inkscape:cx="15"
     inkscape:cy="15"
     inkscape:window-x="0"
     inkscape:window-y="0"
     inkscape:window-maximized="0"
     inkscape:current-layer="svg54">
    <inkscape:grid
       type="xygrid"
       id="grid62" />
  </sodipodi:namedview>
  <path
     fill="#96A7BC"
     d="M-283 387.4h11.6v10.8H-283v-10.8z"
     id="path2" />
  <path
     fill="#2E343A"
     d="M-279.3 391.9h2v6.3h-2v-6.3z"
     id="path4" />
  <path
     fill="#4E5256"
     d="M-283 398.2h14.7v4.8h-3.1v-1.8h-.8v5.3H-283v-8.3z"
     id="path6" />
  <path
     fill="#434649"
     d="M-283 398.2h-5.4v2.9h5.4v-2.9z"
     id="path8" />
  <path
     fill="#845A42"
     d="M-283 403.1h10.8v1.8H-283v-1.8z"
     id="path10" />
  <path
     fill="#FFC34A"
     d="M-279.5 403.1h2.4v1.8h-2.4v-1.8zm-10.5-5.9h4.3v.9h-4.3v-.9z"
     id="path12" />
  <path
     fill="#96A7BC"
     d="M-286.6 389.2l-1.1-1.2-1.1 1.2v8h2.2v-8z"
     id="path14" />
  <path
     fill="#B6CADD"
     d="M-287.7 387.9v9.3h-1.1v-8l1.1-1.3z"
     id="path16" />
  <path
     fill="#845A42"
     d="M-288.4 398.2h2.1v2.9h-2.1v-2.9z"
     id="path18" />
  <path
     fill="#383D42"
     d="M-276.3 406.5h3.1v4.6h-3.1v-4.6z"
     id="path20" />
  <path
     fill="#845A42"
     d="M-276.3 409.4h3.1v1.8h-3.1v-1.8zm5-7.8h3.1v1.4h-3.1v-1.4z"
     id="path22" />
  <path
     fill="#7890A8"
     d="M-274.8 395.8h9.4V408h-9.4v-12.2z"
     id="path24" />
  <path
     fill="#B6CADD"
     d="M-280.8 398.2v-8.7h9.5v-2.1H-283v10.8h2.2"
     id="path26" />
  <path
     fill="#9B3E71"
     d="M-278.4 385.1h2.3v2.3h-2.3v-2.3z"
     id="path28" />
  <path
     fill="#AA5580"
     d="M-276.1 382.9h4.5v2.3h-4.5v-2.3z"
     id="path30" />
  <path
     fill="#383D42"
     d="M-282 406.5h3.1v4.6h-3.1v-4.6z"
     id="path32" />
  <path
     fill="#845A42"
     d="M-282 409.4h3.1v1.8h-3.1v-1.8z"
     id="path34" />
  <path
     fill="#383D42"
     d="M-273.2 397.4h6.3v9.1h-6.3v-9.1z"
     id="path36" />
  <path
     fill="#7890A8"
     d="M-272.4 399.6h2.3v2.3h-2.3v-2.3z"
     id="path38" />
  <path
     fill="#8AA7BF"
     d="M-274.8 395.8h1.6v1.6h-1.6v-1.6z"
     id="path40" />
  <path
     fill="#7890A8"
     d="M-270 402h2.3v2.3h-2.3V402z"
     id="path42" />
  <path
     fill="#787685"
     d="M-274.8 394h-2v12.6h2v-10.7h3.4V394h-3.4z"
     id="path44" />
  <path
     fill="#2E343A"
     d="M-281.6 391.9h7.5v2.1h-7.5v-2.1z"
     id="path46" />
  <path
     fill="#463B3E"
     d="M-276.7 404.9h2v1.6h-2z"
     id="path48" />
  <path
     fill="#6C4130"
     d="M-276.7 403.1h2v1.8h-2z"
     id="path50" />
  <path
     fill="#463B3E"
     d="M-276.7 398.2h2v4.9h-2z"
     id="path52" />
</svg>
