<?xml version="1.0" encoding="UTF-8" standalone="no"?>
<svg
   xmlns:dc="http://purl.org/dc/elements/1.1/"
   xmlns:cc="http://creativecommons.org/ns#"
   xmlns:rdf="http://www.w3.org/1999/02/22-rdf-syntax-ns#"
   xmlns:svg="http://www.w3.org/2000/svg"
   xmlns="http://www.w3.org/2000/svg"
   xmlns:sodipodi="http://sodipodi.sourceforge.net/DTD/sodipodi-0.dtd"
   xmlns:inkscape="http://www.inkscape.org/namespaces/inkscape"
   viewBox="0 0 467.892 289.4"
   version="1.1"
   id="svg136"
   sodipodi:docname="console.svg"
   width="467.892"
   height="289.39999"
   inkscape:version="0.92.4 5da689c313, 2019-01-14">
  <metadata
     id="metadata142">
    <rdf:RDF>
      <cc:Work
         rdf:about="">
        <dc:format>image/svg+xml</dc:format>
        <dc:type
           rdf:resource="http://purl.org/dc/dcmitype/StillImage" />
      </cc:Work>
    </rdf:RDF>
  </metadata>
  <defs
     id="defs140" />
  <sodipodi:namedview
     pagecolor="#ffffff"
     bordercolor="#666666"
     borderopacity="1"
     objecttolerance="10"
     gridtolerance="10"
     guidetolerance="10"
     inkscape:pageopacity="0"
     inkscape:pageshadow="2"
     inkscape:window-width="640"
     inkscape:window-height="480"
     id="namedview138"
     showgrid="false"
     inkscape:zoom="0.57919349"
     inkscape:cx="233.946"
     inkscape:cy="144.7"
     inkscape:window-x="0"
     inkscape:window-y="0"
     inkscape:window-maximized="0"
     inkscape:current-layer="svg136">
    <inkscape:grid
       type="xygrid"
       id="grid949"
       originx="0"
       originy="6.1035157e-06" />
  </sodipodi:namedview>
  <path
     d="M 163.315,289.4 H 151.31 c -2.75,0 -5,-2.25 -5,-5 v -12.931 c 0,-2.75 2.25,-5 5,-5 h 12.005 c 2.75,0 5,2.25 5,5 V 284.4 c 0,2.75 -2.25,5 -5,5 z"
     id="path2"
     inkscape:connector-curvature="0"
     style="fill:#faaf40" />
  <path
     d="m 28.336,287.547 c -5.032,0 -9.141,-4.033 -9.262,-9.037 L 16.755,251.145 V 13.301 c 0,-5.109 4.156,-9.265 9.265,-9.265 h 181.132 c 5.109,0 9.265,4.156 9.265,9.265 v 238.156 l -2.319,27.056 c -0.124,5.003 -4.231,9.033 -9.262,9.033 h -176.5 z"
     id="path4"
     inkscape:connector-curvature="0"
     style="fill:#a91c41" />
  <path
     d="M 204.835,279.672 H 28.336 a 4.647,4.647 0 0 1 -4.633,-4.633 L 21.387,247.707 V 10.058 A 4.647,4.647 0 0 1 26.02,5.425 h 181.132 a 4.647,4.647 0 0 1 4.633,4.633 v 237.958 l -2.316,27.023 a 4.648,4.648 0 0 1 -4.634,4.633 z"
     id="path6"
     inkscape:connector-curvature="0"
     style="fill:#bfa886" />
  <path
     d="m 21.387,247.048 h 190.397 v 1.39 H 21.387 Z m 121.604,-1.889 H 90.18 a 3.015,3.015 0 0 1 -3.011,-3.011 v -88.945 a 3.015,3.015 0 0 1 3.011,-3.011 h 52.811 a 3.015,3.015 0 0 1 3.011,3.011 v 88.945 a 3.015,3.015 0 0 1 -3.011,3.011 z M 90.18,151.582 c -0.894,0 -1.621,0.727 -1.621,1.621 v 88.945 c 0,0.894 0.727,1.621 1.621,1.621 h 52.811 c 0.894,0 1.621,-0.727 1.621,-1.621 v -88.945 c 0,-0.894 -0.727,-1.621 -1.621,-1.621 z"
     id="path8"
     inkscape:connector-curvature="0"
     style="fill:#ffffff" />
  <path
     d="m 118.516,150.887 h 1.39 v 54.664 h -1.39 z m -4.633,0 h 1.39 v 54.664 h -1.39 z M 78.212,46.578 A 0.695,0.695 0 0 1 77.517,45.883 V 5.889 a 0.695,0.695 0 1 1 1.39,0 v 39.994 a 0.695,0.695 0 0 1 -0.695,0.695 z m 6.576,0 A 0.695,0.695 0 0 1 84.093,45.883 V 5.889 a 0.695,0.695 0 1 1 1.39,0 v 39.994 a 0.695,0.695 0 0 1 -0.695,0.695 z m 6.576,0 A 0.695,0.695 0 0 1 90.669,45.883 V 5.889 a 0.695,0.695 0 1 1 1.39,0 v 39.994 a 0.695,0.695 0 0 1 -0.695,0.695 z m 6.575,0 A 0.695,0.695 0 0 1 97.244,45.883 V 5.889 a 0.695,0.695 0 1 1 1.39,0 v 39.994 a 0.695,0.695 0 0 1 -0.695,0.695 z m 6.576,0 A 0.695,0.695 0 0 1 103.82,45.883 V 5.889 a 0.695,0.695 0 1 1 1.39,0 v 39.994 a 0.695,0.695 0 0 1 -0.695,0.695 z m 6.576,0 a 0.695,0.695 0 0 1 -0.695,-0.695 V 5.889 a 0.695,0.695 0 1 1 1.39,0 v 39.994 a 0.696,0.696 0 0 1 -0.695,0.695 z m 6.575,0 a 0.695,0.695 0 0 1 -0.695,-0.695 V 5.889 a 0.695,0.695 0 1 1 1.39,0 v 39.994 a 0.695,0.695 0 0 1 -0.695,0.695 z m 6.576,0 a 0.695,0.695 0 0 1 -0.695,-0.695 V 5.889 a 0.695,0.695 0 1 1 1.39,0 v 39.994 a 0.695,0.695 0 0 1 -0.695,0.695 z m 6.576,0 a 0.695,0.695 0 0 1 -0.695,-0.695 V 5.889 a 0.695,0.695 0 1 1 1.39,0 v 39.994 a 0.695,0.695 0 0 1 -0.695,0.695 z m 6.575,0 a 0.695,0.695 0 0 1 -0.695,-0.695 V 5.889 a 0.695,0.695 0 1 1 1.39,0 v 39.994 a 0.695,0.695 0 0 1 -0.695,0.695 z m 6.576,0 a 0.695,0.695 0 0 1 -0.695,-0.695 V 5.889 a 0.695,0.695 0 1 1 1.39,0 v 39.994 a 0.695,0.695 0 0 1 -0.695,0.695 z m 6.575,0 a 0.695,0.695 0 0 1 -0.695,-0.695 V 5.889 a 0.695,0.695 0 1 1 1.39,0 v 39.994 a 0.695,0.695 0 0 1 -0.695,0.695 z m 6.576,0 a 0.695,0.695 0 0 1 -0.695,-0.695 V 5.889 a 0.695,0.695 0 1 1 1.39,0 v 39.994 a 0.695,0.695 0 0 1 -0.695,0.695 z M 19.379,42.254 h 45.399 v 1.39 H 19.379 Z m 152.411,0 h 45.399 v 1.39 H 171.79 Z"
     id="path10"
     inkscape:connector-curvature="0"
     style="fill:#ffffff" />
  <path
     d="M 138.454,223.618 H 94.717 c -2.75,0 -5,-2.25 -5,-5 v -17.795 c 0,-2.75 2.25,-5 5,-5 h 43.737 c 2.75,0 5,2.25 5,5 v 17.795 c 0,2.75 -2.25,5 -5,5 z"
     id="path12"
     inkscape:connector-curvature="0"
     style="fill:#a91c41" />
  <path
     d="m 228.307,139.165 h 3.474 v 35.953 h -3.474 z m 0,-61.317 h 3.474 v 18.376 h -3.474 z m 0,-29.88 h 3.474 v 18.376 h -3.474 z M 0,53.463 H 3.552 V 89.416 H 0 Z m 0,78.894 h 3.552 v 18.376 H 0 Z m 0,29.88 h 3.552 v 18.376 H 0 Z"
     id="path14"
     inkscape:connector-curvature="0"
     style="fill:#231f20" />
  <path
     d="m 172.58,239.369 h -12.005 c -2.75,0 -5,-2.25 -5,-5 v -12.931 c 0,-2.75 2.25,-5 5,-5 h 12.005 c 2.75,0 5,2.25 5,5 v 12.931 c 0,2.75 -2.25,5 -5,5 z m -99.367,0 H 61.208 c -2.75,0 -5,-2.25 -5,-5 v -12.931 c 0,-2.75 2.25,-5 5,-5 h 12.005 c 2.75,0 5,2.25 5,5 v 12.931 c 0,2.75 -2.25,5 -5,5 z m 128.225,29.339 H 30.343 a 2.323,2.323 0 0 1 -2.316,-2.316 L 27.1,257.436 a 2.323,2.323 0 0 1 2.316,-2.316 h 172.948 a 2.323,2.323 0 0 1 2.316,2.316 l -0.926,8.956 a 2.323,2.323 0 0 1 -2.316,2.316 z M 192.173,118.923 H 39.608 a 2.323,2.323 0 0 1 -2.316,-2.316 V 83.561 l -0.927,-4.633 a 2.323,2.323 0 0 1 2.316,-2.316 h 154.418 a 2.323,2.323 0 0 1 2.316,2.316 l -0.926,4.015 v 33.663 a 2.323,2.323 0 0 1 -2.316,2.317 z"
     id="path16"
     inkscape:connector-curvature="0"
     style="fill:#a91c41" />
  <path
     d="M 172.347,71.584 H 64.083 V 5.426 h 1.39 V 70.194 H 170.957 V 5.426 h 1.39 z"
     id="path18"
     inkscape:connector-curvature="0"
     style="fill:#ffffff" />
  <path
     d="m 8.474,30.905 h 19.185 c 2.75,0 5,2.25 5,5 v 156.771 c 0,2.75 -2.25,5 -5,5 H 8.474 c -2.75,0 -5,-2.25 -5,-5 V 35.905 c 0,-2.75 2.25,-5 5,-5 z m 195.648,166.771 h 19.185 c 2.75,0 5,-2.25 5,-5 V 35.905 c 0,-2.75 -2.25,-5 -5,-5 h -19.185 c -2.75,0 -5,2.25 -5,5 v 156.771 c 0,2.75 2.25,5 5,5 z"
     id="path20"
     inkscape:connector-curvature="0"
     style="fill:#a91c41" />
  <path
     d="m 80.529,245.159 h -45.09 a 3.015,3.015 0 0 1 -3.011,-3.011 v -28.722 a 3.015,3.015 0 0 1 3.011,-3.011 h 45.09 a 3.015,3.015 0 0 1 3.011,3.011 v 28.722 a 3.015,3.015 0 0 1 -3.011,3.011 z m -45.09,-33.354 c -0.894,0 -1.621,0.727 -1.621,1.621 v 28.722 c 0,0.894 0.727,1.621 1.621,1.621 h 45.09 c 0.894,0 1.621,-0.727 1.621,-1.621 v -28.722 c 0,-0.894 -0.727,-1.621 -1.621,-1.621 z m 162.911,33.354 h -45.09 a 3.015,3.015 0 0 1 -3.011,-3.011 v -28.722 a 3.015,3.015 0 0 1 3.011,-3.011 h 45.09 a 3.015,3.015 0 0 1 3.011,3.011 v 28.722 a 3.015,3.015 0 0 1 -3.011,3.011 z m -45.09,-33.354 c -0.894,0 -1.621,0.727 -1.621,1.621 v 28.722 c 0,0.894 0.727,1.621 1.621,1.621 h 45.09 c 0.894,0 1.621,-0.727 1.621,-1.621 v -28.722 c 0,-0.894 -0.727,-1.621 -1.621,-1.621 z M 32.659,128.23 h 166.462 v 1.39 H 32.659 Z"
     id="path22"
     inkscape:connector-curvature="0"
     style="fill:#ffffff" />
  <path
     d="M 76.213,229.795 H 58.208 c -1.1,0 -2,0.9 -2,2 v 2.177 c 0,1.1 0.9,2 2,2 h 18.005 c 1.1,0 2,-0.9 2,-2 v -2.177 c 0,-1.1 -0.9,-2 -2,-2 z m 65.241,-10.172 H 91.717 c -1.1,0 -2,-0.9 -2,-2 v -15.939 c 0,-1.1 0.9,-2 2,-2 h 49.737 c 1.1,0 2,0.9 2,2 v 15.939 c 0,1.1 -0.9,2 -2,2 z m 50.719,-100.7 H 39.608 a 2.323,2.323 0 0 1 -2.316,-2.316 2.323,2.323 0 0 1 2.316,-2.316 h 152.565 a 2.323,2.323 0 0 1 2.316,2.316 2.323,2.323 0 0 1 -2.316,2.316 z m 0.926,-37.678 H 38.682 a 2.323,2.323 0 0 1 -2.316,-2.316 2.323,2.323 0 0 1 2.316,-2.316 H 193.1 a 2.323,2.323 0 0 1 2.316,2.316 2.323,2.323 0 0 1 -2.317,2.316 z"
     id="path24"
     inkscape:connector-curvature="0"
     style="fill:#59011d" />
  <g
     id="g30"
     style="fill:#bfa886">
    <path
       d="m 67.929,256.671 h 5.093 v 1.52 h -3.309 v 1.844 h 3.309 v 1.569 h -3.309 v 3.277 h -1.784 z m 10.885,8.21 h -1.735 v -1.278 h -3.361 l -0.996,1.278 H 70.679 L 77.4,256.67 h 1.413 z m -1.735,-2.829 v -2.396 l -2.053,2.396 z m 2.414,-5.381 h 2.013 l 2.837,5.519 2.858,-5.519 h 2.033 v 8.21 h -1.792 v -4.139 l -2.213,4.139 h -1.811 l -2.134,-4.139 v 4.139 h -1.791 z m 43.136,0 h 2.013 l 2.837,5.519 2.858,-5.519 h 2.032 v 8.21 h -1.791 v -4.139 l -2.213,4.139 h -1.812 l -2.133,-4.139 v 4.139 h -1.791 z m -32.831,0 h 1.854 v 8.211 h -1.854 z m 2.365,0 h 1.853 v 6.713 h 2.416 v 1.497 h -4.269 z m 2.209,0 h 2.06 l 1.947,3.364 1.891,-3.364 h 2.041 l -3.071,5.222 v 2.988 h -1.797 v -2.988 z m 18.014,2.264 c -0.814,-1.328 -2.44,-2.234 -4.313,-2.234 -2.689,0 -4.868,1.867 -4.868,4.169 0,2.303 2.18,4.169 4.868,4.169 1.887,0 3.523,-0.919 4.331,-2.263 l -2.206,0.016 c -0.544,0.43 -1.27,0.692 -2.068,0.692 -1.686,0 -3.052,-1.17 -3.052,-2.614 0,-1.444 1.366,-2.614 3.052,-2.614 0.787,0 1.504,0.255 2.045,0.674 z"
       id="path26"
       inkscape:connector-curvature="0" />
    <path
       d="m 117.204,265.061 c -2.703,0 -4.894,-1.876 -4.894,-4.191 0,-2.315 2.191,-4.191 4.894,-4.191 2.703,0 4.894,1.876 4.894,4.191 -0.001,2.315 -2.192,4.191 -4.894,4.191 z m 3.115,-4.191 c 0,-1.464 -1.386,-2.652 -3.096,-2.652 -1.71,0 -3.096,1.187 -3.096,2.652 0,1.464 1.386,2.652 3.096,2.652 1.709,0 3.096,-1.187 3.096,-2.652 z m 15.868,-4.198 c 1.622,0.112 2.898,1.275 2.898,2.693 0,1.418 -1.276,2.581 -2.898,2.693 l -1.401,-0.005 v 2.829 h -1.798 v -8.211 h 1.798 z m -1.401,1.579 v 2.227 l 1.401,-0.001 c 0.613,-0.098 1.077,-0.559 1.077,-1.112 0,-0.554 -0.464,-1.014 -1.077,-1.113 z m 24.048,6.737 h -1.779 v -8.247 l 2.471,-0.003 1.401,10e-4 c 1.622,0.112 2.898,1.275 2.898,2.693 0,1.159 -0.852,2.147 -2.048,2.531 l 2.075,3.025 h -1.947 l -2.907,-4.254 h -0.164 z m 2.094,-4.443 c 0.613,-0.098 1.077,-0.559 1.077,-1.112 0,-0.554 -0.464,-1.014 -1.077,-1.113 h -2.094 v 2.226 z m -19.5,0.87 0.001,1.2 c 0.115,0.525 0.653,0.923 1.299,0.923 0.646,0 1.185,-0.397 1.299,-0.923 l 0.001,-1.2 0.004,-4.674 h 1.841 v 4.674 l -10e-4,1.2 c -0.13,1.389 -1.488,2.482 -3.144,2.482 -1.656,0 -3.014,-1.093 -3.144,-2.482 l 0.006,-1.2 -0.003,-4.674 h 1.847 z m 6.284,3.573 h 1.816 v -6.692 h 1.629 v -1.555 h -5.018 v 1.555 h 1.573 z m 8.875,0 h -4.99 v -8.247 h 4.99 v 1.51 h -3.202 v 1.958 h 3.202 v 1.54 h -3.202 v 1.716 h 3.202 z m -128.474,1.995 a 1.787,1.787 0 0 1 -0.09,-0.571 l -0.016,-0.228 h 142.624 v 0.799 z m 175.651,0 c 0.005,-0.188 0.008,-0.367 0.008,-0.571 l 0.001,-0.228 h -12.604 v 0.799 z"
       id="path28"
       inkscape:connector-curvature="0" />
  </g>
  <g
     id="g36"
     style="fill:#bfa886">
    <path
       d="m 171.906,264.81 h 0.793 l 1.096,1.825 v -1.825 h 0.786 v 2.617 h -0.785 l -1.101,-1.825 v 1.825 h -0.788 z m 6.946,0.269 h 0.765 v 0.352 h 0.414 v 0.259 h -0.414 l 0.001,1.737 h -0.766 v -1.737 h -0.415 v -0.258 l 0.415,-0.001 z m -3.835,0.607 h 0.765 v 1.741 h -0.765 z m -0.001,-0.877 h 0.767 v 0.535 h -0.767 z m 13.398,0.759 c -0.617,0 -1.117,0.437 -1.117,0.977 0,0.539 0.5,0.977 1.117,0.977 0.617,0 1.117,-0.438 1.117,-0.977 0,-0.54 -0.5,-0.977 -1.117,-0.977 m 0.307,0.974 -0.001,0.369 c 0,0.277 -0.159,0.392 -0.313,0.392 -0.153,0 -0.313,-0.114 -0.313,-0.392 v -0.376 -0.362 c 0,-0.277 0.161,-0.39 0.313,-0.39 0.153,0 0.313,0.113 0.313,0.39 z m -2.422,0.006 v -0.311 c 0,-0.269 -0.181,-0.337 -0.299,-0.337 -0.122,0 -0.3,0.068 -0.3,0.337 v 0.62 c 0,0.27 0.178,0.339 0.3,0.339 0.119,0 0.299,-0.069 0.299,-0.339 z m -0.006,-1.738 h 0.754 v 2.617 h -0.756 v -0.1 a 0.902,0.902 0 0 1 -0.88,0.066 0.93,0.93 0 0 1 -0.522,-0.864 c 0,-0.459 0.42,-0.961 0.972,-0.911 0.181,0.016 0.31,0.085 0.433,0.156 z m -8.721,0.796 c 0.286,-0.008 0.865,0.184 0.861,0.873 v 0.947 h -0.759 v -1.143 c 0,-0.152 -0.141,-0.32 -0.35,-0.32 -0.208,0 -0.363,0.168 -0.363,0.32 l 10e-4,1.143 h -0.759 l -0.001,-1.74 0.76,-10e-4 v 0.183 a 0.908,0.908 0 0 1 0.61,-0.262 m 6.212,0 c 0.286,-0.008 0.866,0.184 0.862,0.873 v 0.947 h -0.76 v -1.143 c 0,-0.152 -0.141,-0.32 -0.35,-0.32 -0.208,0 -0.362,0.168 -0.362,0.32 l 0.001,1.143 h -0.759 v -1.74 l 0.759,-10e-4 v 0.183 a 0.905,0.905 0 0 1 0.609,-0.262 m -2.405,1.212 v 0.106 c 0,0.318 -0.203,0.389 -0.316,0.389 -0.113,0 -0.32,-0.071 -0.32,-0.389 l 0.001,-0.359 c 0,0 1.44,10e-4 1.44,-10e-4 0,-0.539 -0.506,-0.986 -1.128,-0.986 -0.622,0 -1.125,0.437 -1.125,0.977 0,0.54 0.504,0.977 1.125,0.977 0.516,0 0.952,-0.303 1.085,-0.714 z m -0.635,-0.525 c -0.002,-0.152 0.002,-0.254 0.05,-0.341 a 0.312,0.312 0 0 1 0.269,-0.159 0.31,0.31 0 0 1 0.268,0.159 c 0.049,0.087 0.051,0.189 0.05,0.341 z m 8.944,-1.196 c 0.074,0 0.141,-0.005 0.141,-0.097 0,-0.074 -0.065,-0.087 -0.126,-0.087 h -0.119 v 0.184 z m -0.104,0.335 h -0.088 v -0.595 h 0.22 c 0.137,0 0.205,0.052 0.205,0.169 0,0.107 -0.065,0.153 -0.15,0.164 l 0.164,0.262 h -0.098 l -0.153,-0.258 h -0.1 z"
       id="path32"
       inkscape:connector-curvature="0" />
    <path
       d="m 189.69,265.565 c 0.227,0 0.406,-0.183 0.406,-0.432 0,-0.245 -0.179,-0.429 -0.406,-0.429 -0.229,0 -0.409,0.184 -0.409,0.429 0,0.249 0.179,0.432 0.409,0.432 m -0.51,-0.432 a 0.508,0.508 0 1 1 1.016,0 0.509,0.509 0 1 1 -1.016,0"
       id="path34"
       inkscape:connector-curvature="0" />
  </g>
  <g
     id="g40"
     style="fill:#bfa886">
    <path
       d="m 44.566,257.756 a 1.086,1.086 0 1 0 -2.171,0 1.086,1.086 0 0 0 2.171,0 z m -2.624,-0.229 a 0.693,0.693 0 0 0 -1.334,-0.372 l -2.211,6.797 a 0.69305646,0.69305646 0 0 0 1.31,0.453 z m 1.792,2.771 a 1.086,1.086 0 1 0 -2.171,0 1.086,1.086 0 0 0 2.171,0 z m 5.614,-2.542 a 1.086,1.086 0 1 0 -2.171,0 1.086,1.086 0 0 0 2.171,0 z m -2.624,-0.229 a 0.693,0.693 0 0 0 -1.334,-0.372 l -2.211,6.797 a 0.69305646,0.69305646 0 0 0 1.31,0.453 z m 1.792,2.771 a 1.086,1.086 0 1 0 -2.171,0 1.086,1.086 0 0 0 2.171,0 z"
       id="path38"
       inkscape:connector-curvature="0" />
  </g>
  <g
     id="g74">
    <path
       d="M 32.659,151.858 V 72.074 h 2.43 v -2.436 h -2.43 v -3.419 l 2.284,0.001 v -2.436 h -2.284 v -3.269 l 2.284,10e-4 V 58.08 h -2.284 v -2.732 h 2.284 v -2.435 l -2.284,-10e-4 v -3.025 h 2.43 v -2.435 h -2.43 V 3.944 h 166.463 v 43.507 l -3.147,10e-4 v 2.435 h 3.147 v 3.025 l -3.129,10e-4 v 2.435 l 3.129,10e-4 v 2.731 h -3.129 v 2.436 h 3.129 v 3.268 h -3.129 v 2.436 l 3.129,-0.001 v 3.419 h -3.147 v 2.436 h 3.147 v 79.784 z"
       id="path42"
       inkscape:connector-curvature="0"
       style="fill:#3c3c3b" />
    <path
       d="m 35.089,47.452 h 160.886 v 2.436 H 35.089 Z m 0,22.186 h 160.886 v 2.436 H 35.089 Z M 34.943,52.913 h 92.556 v 2.436 H 34.943 Z m 0,5.167 h 92.556 v 2.436 H 34.943 Z m 0,5.704 h 92.556 V 66.22 H 34.943 Z"
       id="path44"
       inkscape:connector-curvature="0" />
    <path
       d="M 128.718,49.887 V 69.638 H 127.5 v -19.75 z m 56.327,10e-4 v 19.75 h -1.22 v -19.75 z"
       id="path46"
       inkscape:connector-curvature="0" />
    <path
       d="m 185.044,52.913 h 10.948 v 2.436 h -10.948 z m 0,5.167 h 10.948 v 2.436 h -10.948 z m 0,5.704 h 10.948 v 2.436 h -10.948 z"
       id="path48"
       inkscape:connector-curvature="0" />
    <path
       d="m 182.925,0 h -74.762 l -1.228,3.944 h 78.109 z"
       id="path50"
       inkscape:connector-curvature="0"
       style="fill:#333333" />
    <g
       id="g54"
       style="fill:#ffffff">
      <path
         d="m 140.324,63.171 h -0.275 c -0.532,0 -1.065,-0.003 -1.597,0.003 -0.109,10e-4 -0.169,-0.032 -0.226,-0.125 -0.888,-1.437 -1.781,-2.872 -2.673,-4.306 a 0.357,0.357 0 0 0 -0.122,-0.131 v 4.551 h -2.022 v -6.592 h 0.138 c 0.589,0 1.179,0.002 1.768,-0.003 0.098,-10e-4 0.15,0.032 0.201,0.115 0.888,1.443 1.78,2.883 2.671,4.324 0.028,0.046 0.059,0.09 0.116,0.123 v -4.548 h 2.02 z m 32.445,-6.594 v 6.584 h -1.941 l -0.014,-0.217 c -1.284,0.615 -2.41,0.474 -3.268,-0.723 -0.567,-0.792 -0.495,-1.884 0.114,-2.674 0.373,-0.484 0.855,-0.803 1.465,-0.908 0.603,-0.104 1.155,0.049 1.695,0.373 v -2.434 z m -3.496,4.369 h -0.001 c 0,0.299 -0.008,0.598 0.002,0.896 0.015,0.446 0.322,0.747 0.761,0.76 0.425,0.013 0.768,-0.276 0.786,-0.714 0.024,-0.601 0.011,-1.204 0.011,-1.806 a 0.761,0.761 0 0 0 -0.025,-0.183 c -0.099,-0.404 -0.416,-0.619 -0.854,-0.58 a 0.725,0.725 0 0 0 -0.678,0.716 c -0.013,0.303 -0.002,0.607 -0.002,0.911 z m -18.923,2.217 h -1.947 v -0.174 -2.593 c 0,-0.452 -0.264,-0.797 -0.684,-0.896 -0.443,-0.105 -0.93,0.104 -1.108,0.496 a 0.998,0.998 0 0 0 -0.076,0.399 c -0.005,0.864 0,1.728 0.001,2.593 v 0.175 h -1.949 v -4.364 h 1.95 v 0.442 l 0.145,-0.114 c 0.912,-0.766 2.303,-0.704 3.123,0.14 0.373,0.384 0.543,0.858 0.553,1.381 0.015,0.821 0.005,1.643 0.005,2.464 -0.002,0.014 -0.008,0.027 -0.013,0.051 z m 12.343,0.001 h -1.95 v -4.365 h 1.948 v 0.451 l 0.154,-0.124 c 0.962,-0.805 2.456,-0.686 3.226,0.258 0.257,0.315 0.419,0.679 0.43,1.08 0.024,0.877 0.015,1.756 0.02,2.634 0,0.018 -0.008,0.036 -0.014,0.063 h -1.934 c -0.004,-0.059 -0.012,-0.119 -0.012,-0.178 L 164.56,60.42 c 0,-0.453 -0.21,-0.764 -0.604,-0.896 a 1,1 0 0 0 -1.1,0.331 0.81,0.81 0 0 0 -0.166,0.518 c 0.003,0.864 0.002,1.728 0.003,2.592 z m 13.679,-4.676 c 0.756,0.012 1.474,0.24 2.076,0.778 1.026,0.917 1.047,2.369 0.051,3.32 -1.153,1.1 -3.188,1.097 -4.337,-0.007 -1.054,-1.012 -0.948,-2.568 0.241,-3.465 0.569,-0.429 1.22,-0.618 1.969,-0.626 z m 0.752,2.46 h 0.015 c 0,-0.308 10e-4,-0.617 -0.001,-0.925 0,-0.066 -0.006,-0.133 -0.014,-0.199 -0.042,-0.342 -0.185,-0.62 -0.523,-0.752 a 0.778,0.778 0 0 0 -1.073,0.684 c -0.045,0.756 -0.021,1.516 -0.025,2.275 0,0.038 0.01,0.075 0.015,0.113 0.067,0.419 0.373,0.712 0.756,0.724 0.462,0.014 0.817,-0.304 0.845,-0.796 0.022,-0.374 0.005,-0.75 0.005,-1.124 z M 160.11,60.99 h -3.729 c 0,0.366 -0.002,0.715 0.002,1.064 a 0.927,0.927 0 0 0 0.04,0.238 0.81,0.81 0 0 0 0.859,0.602 c 0.374,-0.027 0.675,-0.315 0.734,-0.718 0.024,-0.168 0.027,-0.34 0.04,-0.521 h 1.941 c -0.022,0.059 -0.038,0.118 -0.064,0.172 -0.384,0.815 -1.048,1.293 -1.901,1.497 -1.145,0.274 -2.199,0.07 -3.065,-0.764 -0.969,-0.933 -0.92,-2.371 0.09,-3.263 0.685,-0.605 1.498,-0.839 2.4,-0.77 0.851,0.065 1.577,0.397 2.136,1.056 a 2.218,2.218 0 0 1 0.526,1.325 z m -2.054,-0.683 c -0.015,-0.203 -0.014,-0.402 -0.048,-0.595 a 0.81,0.81 0 0 0 -1.596,-0.005 c -0.029,0.157 -0.022,0.32 -0.038,0.48 -0.011,0.109 0.032,0.138 0.136,0.137 0.47,-0.004 0.939,-0.002 1.409,-0.003 0.037,0.001 0.074,-0.007 0.137,-0.014 z m -6.59,2.853 v -4.372 h -1.081 c 0,-0.203 -0.004,-0.392 0.005,-0.58 0.001,-0.024 0.073,-0.062 0.112,-0.063 0.261,-0.006 0.523,-0.004 0.784,-0.005 h 0.173 v -0.879 h 1.981 v 0.873 h 1.065 v 0.646 h -1.057 v 4.38 z m -8.009,-4.364 v 4.363 H 141.5 v -4.363 z m -1.964,-2.217 c 0.02,-0.003 0.038,-0.009 0.056,-0.009 h 1.904 v 1.326 h -1.96 z"
         id="path52"
         inkscape:connector-curvature="0" />
    </g>
    <g
       id="g60"
       style="fill:#ffffff">
      <path
         d="m 117.05,75.407 c 0,-0.414 0.001,-0.828 -10e-4,-1.242 0,-0.039 0.005,-0.058 0.052,-0.057 0.155,0.003 0.311,0.002 0.466,0 0.034,0 0.053,0.044 0.053,0.044 l 0.765,1.63 c 0,0 0.673,-1.499 0.728,-1.618 0.017,-0.038 0.039,-0.057 0.083,-0.056 0.155,0.002 0.311,0.002 0.466,0 0.039,-0.001 0.047,0.014 0.046,0.049 -0.002,0.075 -0.001,0.151 -0.001,0.226 v 2.202 c 0,0.028 -0.002,0.057 0,0.085 0.002,0.031 -0.011,0.04 -0.04,0.039 -0.137,-0.001 -0.273,-0.004 -0.41,10e-4 -0.055,0.002 -0.061,-0.017 -0.06,-0.064 0.002,-0.339 10e-4,-0.677 10e-4,-1.016 0,-0.038 0.001,-0.075 -10e-4,-0.113 0,-0.008 -0.008,-0.015 -0.013,-0.023 -0.005,0.007 -0.011,0.013 -0.015,0.021 -0.076,0.162 -0.415,0.906 -0.509,1.116 -0.023,0.051 -0.047,0.085 -0.117,0.08 a 3.677,3.677 0 0 0 -0.297,-0.002 c -0.082,-0.001 -0.105,-0.074 -0.105,-0.074 l -0.579,-1.224 c 0,0 -0.004,0.887 -0.002,1.24 0,0.039 -0.004,0.059 -0.051,0.058 -0.127,-0.003 -0.254,-0.001 -0.381,-0.001 -0.076,0 -0.077,-0.001 -0.077,-0.072 v -1.157 z m 11.703,-0.006 v -1.214 c 0,-0.078 0.001,-0.079 0.084,-0.079 0.141,0 0.283,10e-4 0.424,-0.001 0.043,-0.001 0.07,0.016 0.085,0.053 0.047,0.112 0.651,1.509 0.651,1.509 0.008,0.025 0.017,0.057 0.036,0.068 0.029,0.016 0.005,0.081 0.054,0.063 0.023,-0.008 0.042,-0.044 0.049,-0.072 0.043,-0.152 0.644,-1.455 0.644,-1.455 0.028,-0.051 0.014,-0.13 0.07,-0.151 0.057,-0.022 0.128,-0.014 0.192,-0.013 0.121,0.001 0.242,0.006 0.363,0.009 0.001,0.117 0.004,0.234 0.004,0.351 v 2.202 c 0.002,0.033 -0.016,0.036 -0.043,0.036 a 14.982,14.982 0 0 0 -0.424,0.001 C 130.898,76.709 130.9,76.686 130.9,76.656 V 76.19 l -0.001,-0.649 c 0,-0.016 -0.01,-0.031 -0.015,-0.047 l -0.02,0.048 c -0.036,0.084 -0.426,0.954 -0.526,1.124 -0.016,0.028 -0.021,0.042 -0.053,0.042 -0.137,-0.001 -0.273,-0.003 -0.41,0.001 a 0.078,0.078 0 0 1 -0.077,-0.047 c -0.068,-0.146 -0.462,-1.041 -0.493,-1.109 -0.009,-0.02 -0.02,-0.039 -0.03,-0.058 -0.005,0.02 -0.015,0.041 -0.015,0.061 l -0.001,0.945 c 0,0.065 -0.002,0.131 -0.004,0.196 -0.069,0.003 -0.138,0.008 -0.208,0.01 -0.061,0.002 -0.122,0 -0.184,0 -0.114,0 -0.114,0 -0.114,-0.12 0.004,-0.395 0.004,-0.791 0.004,-1.186 z m -1.484,1.359 c -0.202,0.035 -0.39,-0.045 -0.575,-0.123 a 0.93,0.93 0 0 1 -0.254,-0.169 1.795,1.795 0 0 1 -0.268,-0.297 1.333,1.333 0 0 1 -0.215,-0.896 1.17,1.17 0 0 1 0.084,-0.317 c 0.041,-0.101 0.098,-0.196 0.157,-0.287 0.142,-0.218 0.342,-0.37 0.58,-0.464 0.143,-0.057 0.292,-0.105 0.454,-0.101 0.129,0.003 0.258,0.005 0.383,0.034 0.105,0.025 0.212,0.061 0.303,0.117 0.056,0.035 0.118,0.061 0.17,0.105 0.048,0.041 0.08,0.103 0.148,0.12 0.013,0.059 0.065,0.086 0.099,0.128 0.031,0.038 0.067,0.075 0.089,0.118 0.063,0.124 0.127,0.246 0.165,0.384 0.027,0.097 0.019,0.194 0.043,0.29 0.024,0.095 -0.006,0.207 -0.029,0.308 -0.04,0.176 -0.117,0.336 -0.217,0.488 a 1.31,1.31 0 0 1 -0.682,0.508 0.974,0.974 0 0 1 -0.435,0.054 z m 0.029,-0.5 c 0.069,-0.005 0.144,0.005 0.206,-0.018 0.174,-0.063 0.337,-0.137 0.454,-0.301 a 0.964,0.964 0 0 0 0.173,-0.48 c 0.007,-0.069 -0.018,-0.133 -0.028,-0.2 a 0.622,0.622 0 0 0 -0.093,-0.244 c -0.052,-0.084 -0.125,-0.147 -0.192,-0.216 a 0.659,0.659 0 0 0 -0.432,-0.183 c -0.061,-0.005 -0.122,-10e-4 -0.183,-10e-4 a 0.529,0.529 0 0 0 -0.254,0.067 0.902,0.902 0 0 0 -0.319,0.253 0.866,0.866 0 0 0 -0.164,0.454 0.823,0.823 0 0 0 0.167,0.551 0.998,0.998 0 0 0 0.335,0.259 0.767,0.767 0 0 0 0.33,0.059 z m 11.292,-0.176 c 0,0.207 -0.003,0.414 0.002,0.621 10e-4,0.056 -0.018,0.061 -0.064,0.06 a 7.484,7.484 0 0 0 -0.367,0 c -0.047,0.001 -0.056,-0.018 -0.051,-0.058 0.002,-0.019 0,-0.038 0,-0.056 v -2.427 c 0,-0.023 0.002,-0.047 0,-0.07 -0.005,-0.041 0.016,-0.045 0.049,-0.045 0.113,0.001 0.226,0 0.339,0 0.184,0 0.367,-0.004 0.551,0.001 0.151,0.005 0.295,0.036 0.435,0.108 0.137,0.07 0.233,0.174 0.321,0.289 a 0.714,0.714 0 0 1 0.144,0.463 0.847,0.847 0 0 1 -0.056,0.33 c -0.019,0.045 -0.035,0.088 -0.065,0.129 -0.105,0.146 -0.221,0.277 -0.392,0.345 -0.032,0.013 -0.033,0.029 -0.019,0.05 0.101,0.15 0.186,0.309 0.276,0.464 0.086,0.148 0.175,0.295 0.264,0.441 0.009,0.015 0.031,0.032 -0.005,0.033 -0.169,0.002 -0.339,0.002 -0.508,0 -0.011,0 -0.026,-0.017 -0.033,-0.03 a 27.266,27.266 0 0 0 -0.429,-0.739 c -0.111,-0.185 -0.207,-0.379 -0.335,-0.553 -0.009,-0.012 -0.022,-0.021 -0.033,-0.032 -0.008,0.014 -0.022,0.027 -0.023,0.041 -0.002,0.169 -0.001,0.339 -0.001,0.508 z m 0,-1.107 v 0.296 c 0,0.031 0,0.052 0.043,0.051 0.174,-0.003 0.348,0.005 0.522,-0.004 a 0.28,0.28 0 0 0 0.225,-0.128 0.371,0.371 0 0 0 0,-0.416 0.277,0.277 0 0 0 -0.225,-0.128 c -0.174,-0.009 -0.348,-10e-4 -0.522,-0.004 -0.043,-0.001 -0.044,0.02 -0.043,0.051 z m -5.229,0.128 v -0.918 c 0,-0.078 0.001,-0.079 0.071,-0.078 0.145,0.002 0.289,0.006 0.434,0.01 10e-4,0.141 0.004,0.281 0.004,0.422 0,0.466 -0.002,0.932 0.001,1.398 a 0.31,0.31 0 0 0 0.193,0.298 c 0.254,0.113 0.509,-0.048 0.511,-0.322 0.004,-0.555 0.001,-1.111 0.001,-1.666 0,-0.033 0.002,-0.066 0,-0.099 -0.002,-0.029 0.006,-0.042 0.038,-0.042 0.146,10e-4 0.292,0 0.438,0.002 0.011,0 0.03,0.018 0.032,0.03 0.005,0.027 0.002,0.056 0.002,0.084 0,0.579 0.002,1.158 -0.001,1.736 a 0.802,0.802 0 0 1 -0.22,0.53 0.874,0.874 0 0 1 -0.401,0.26 0.81,0.81 0 0 1 -0.573,-0.036 c -0.198,-0.078 -0.317,-0.236 -0.444,-0.39 -0.026,-0.106 -0.087,-0.203 -0.086,-0.318 z"
         id="path56"
         inkscape:connector-curvature="0" />
      <path
         d="m 125.684,74.843 c -0.071,0 -0.141,-0.003 -0.212,10e-4 a 0.192,0.192 0 0 1 -0.158,-0.063 0.51,0.51 0 0 0 -0.257,-0.13 0.622,0.622 0 0 0 -0.255,-0.035 c -0.171,0.024 -0.394,0.071 -0.528,0.226 -0.054,0.062 -0.118,0.119 -0.157,0.19 a 0.807,0.807 0 0 0 -0.114,0.419 c 0.012,0.209 0.075,0.394 0.231,0.54 0.076,0.072 0.141,0.154 0.246,0.191 0.199,0.068 0.337,0.094 0.538,0.051 0.137,-0.029 0.243,-0.102 0.353,-0.173 a 0.148,0.148 0 0 1 0.087,-0.03 l 0.48,0.001 c 0.049,0 0.058,0.013 0.03,0.055 -0.085,0.13 -0.162,0.262 -0.294,0.359 -0.108,0.08 -0.211,0.164 -0.336,0.214 a 1.27,1.27 0 0 1 -0.564,0.104 c -0.23,-0.007 -0.452,-0.047 -0.64,-0.194 -0.172,-0.059 -0.262,-0.215 -0.384,-0.332 -0.092,-0.089 -0.139,-0.214 -0.188,-0.33 a 0.976,0.976 0 0 1 -0.068,-0.311 c -0.01,-0.126 0.001,-0.362 0.028,-0.488 0.027,-0.126 0.064,-0.198 0.112,-0.292 0.031,-0.061 0.075,-0.111 0.115,-0.164 0.109,-0.143 0.232,-0.269 0.392,-0.356 a 1.42,1.42 0 0 1 0.349,-0.146 c 0.087,-0.02 0.174,-0.051 0.266,-0.04 0.293,-0.004 0.493,0.071 0.602,0.116 a 0.887,0.887 0 0 1 0.258,0.158 c 0.113,0.102 0.231,0.202 0.312,0.335 0.016,0.026 0.036,0.051 0.049,0.079 0.011,0.023 0.01,0.046 -0.025,0.046 z m -8.803,1.807 c 0,0.039 -0.004,0.059 -0.051,0.058 -0.127,-0.003 -0.254,-0.002 -0.381,-0.001 -0.034,0 -0.05,-0.005 -0.049,-0.045 0.003,-0.104 0,-0.207 0.002,-0.311 0,-0.03 -0.009,-0.041 -0.039,-0.041 h -0.848 c -0.024,0 -0.035,0.004 -0.049,0.032 -0.033,0.067 -0.079,0.128 -0.121,0.19 -0.039,0.059 -0.069,0.138 -0.124,0.167 -0.056,0.029 -0.138,0.006 -0.209,0.006 h -0.099 a 23.141,23.141 0 0 1 -0.263,-0.013 c 0.06,-0.061 0.1,-0.137 0.15,-0.204 0.135,-0.183 1.63,-2.351 1.669,-2.37 0.05,-0.024 0.118,-0.011 0.179,-0.011 0.075,0 0.224,0.004 0.224,0.004 z m -0.484,-1.181 h 0.003 c 0,-0.103 10e-4,-0.207 -0.001,-0.31 0,-0.011 -0.009,-0.029 -0.017,-0.032 -0.01,-0.003 -0.029,0.003 -0.036,0.011 -0.019,0.024 -0.032,0.053 -0.051,0.077 -0.123,0.161 -0.247,0.321 -0.368,0.483 -0.019,0.025 -0.021,0.063 -0.031,0.095 l 0.081,0.009 c 0.028,0.002 0.056,10e-4 0.085,0 l 0.335,-0.011 z m 20.214,-0.029 v -1.257 c 0,-0.086 -0.003,-0.074 0.075,-0.074 h 1.244 c 0.065,0 0.066,0.001 0.066,0.069 v 0.367 c 0,0.071 -0.001,0.072 -0.077,0.072 -0.245,0 -0.49,10e-4 -0.735,-0.001 -0.044,0 -0.068,0 -0.066,0.058 0.006,0.16 0.003,0.32 0.001,0.48 -0.001,0.04 0.007,0.057 0.053,0.056 0.231,-0.002 0.462,-10e-4 0.693,-10e-4 0.033,0 0.066,-0.003 0.099,0.002 0.012,0.002 0.024,0.018 0.032,0.031 0.004,0.007 0.001,0.018 0.001,0.028 l -0.003,0.437 c -0.144,0.004 -0.289,0.009 -0.433,0.011 a 6.911,6.911 0 0 1 -0.381,-0.001 c -0.055,-0.002 -0.061,0.017 -0.06,0.064 0.003,0.141 0.003,0.282 0,0.424 -0.001,0.047 0.018,0.052 0.058,0.051 0.254,-0.002 0.509,0 0.763,-0.002 0.039,0 0.059,0.004 0.058,0.051 a 7.967,7.967 0 0 0 0,0.409 c 0.001,0.051 -0.025,0.049 -0.06,0.049 -0.424,-0.001 -0.848,-0.001 -1.272,10e-4 -0.042,0 -0.056,-0.01 -0.055,-0.054 0.002,-0.169 0.001,-0.339 0.001,-0.508 -0.002,-0.254 -0.002,-0.508 -0.002,-0.762 z m -5.06,-0.046 v -1.171 c 0,-0.114 0,-0.114 0.12,-0.114 h 0.748 a 0.789,0.789 0 0 1 0.481,0.171 0.845,0.845 0 0 1 0.273,0.366 c 0.053,0.119 0.095,0.248 0.07,0.378 -0.026,0.136 -0.048,0.276 -0.134,0.396 a 0.892,0.892 0 0 1 -0.385,0.329 0.907,0.907 0 0 1 -0.347,0.084 c -0.094,0 -0.187,0.002 -0.281,0.004 -0.003,0.097 -0.009,0.195 -0.009,0.292 -0.002,0.174 -10e-4,0.348 0,0.522 0,0.038 -0.002,0.059 -0.051,0.058 a 10.66,10.66 0 0 0 -0.438,0 c -0.049,10e-4 -0.05,-0.022 -0.05,-0.059 0.004,-0.419 0.003,-0.838 0.003,-1.256 z m 0.538,-0.441 c 0,0.098 0.002,0.197 -0.001,0.295 -0.001,0.037 0.011,0.048 0.047,0.047 0.103,-0.002 0.207,0.002 0.31,-0.002 a 0.225,0.225 0 0 0 0.112,-0.032 0.48,0.48 0 0 0 0.119,-0.119 c 0.029,-0.042 0.04,-0.095 0.062,-0.143 0.02,-0.046 -0.023,-0.074 -0.028,-0.114 -0.019,-0.135 -0.133,-0.257 -0.26,-0.267 -0.116,-0.009 -0.233,0 -0.35,0.001 l -0.011,0.305 z m -18.177,0.446 v -1.213 c 0,-0.077 10e-4,-0.077 0.072,-0.078 l 1.256,-0.001 c 0.038,0 0.059,0.003 0.058,0.051 a 6.914,6.914 0 0 0 0,0.381 c 0.001,0.049 -0.022,0.05 -0.059,0.05 l -0.762,-0.001 c -0.039,0 -0.058,0.005 -0.057,0.052 0.003,0.146 0.001,0.291 0.001,0.437 0,0.076 10e-4,0.077 0.072,0.077 0.249,0 0.499,0.001 0.748,-10e-4 0.04,0 0.058,0.006 0.057,0.052 a 9.942,9.942 0 0 0 0,0.423 c 0.001,0.047 -0.006,0.065 -0.06,0.064 -0.254,-0.004 -0.508,-10e-4 -0.762,-0.003 -0.041,0 -0.056,0.008 -0.056,0.053 0.002,0.301 0,0.602 0.002,0.903 0,0.047 -0.005,0.067 -0.06,0.064 -0.149,-0.008 -0.298,-0.009 -0.447,-0.013 l -0.003,-0.422 z m 8,0.813 c 0,-0.132 -0.004,-0.263 0.002,-0.395 a 0.298,0.298 0 0 0 -0.042,-0.153 c -0.137,-0.272 -0.274,-0.545 -0.413,-0.817 -0.117,-0.229 -0.237,-0.457 -0.356,-0.685 -0.017,-0.033 -0.017,-0.053 0.024,-0.054 l 0.48,-0.001 c 0.051,0 0.063,0.03 0.083,0.072 0.137,0.282 0.279,0.562 0.421,0.842 0.018,0.035 0.044,0.067 0.066,0.1 0.025,-0.034 0.056,-0.065 0.074,-0.103 0.137,-0.292 0.266,-0.587 0.423,-0.869 0.011,-0.02 0.006,-0.042 0.039,-0.041 l 0.494,10e-4 c 0.043,0 0.04,0.021 0.024,0.054 -0.257,0.51 -0.512,1.02 -0.77,1.529 a 0.34,0.34 0 0 0 -0.039,0.167 c 0.002,0.263 0,0.527 0.001,0.79 0,0.038 -0.002,0.06 -0.05,0.058 a 9.295,9.295 0 0 0 -0.409,0 c -0.049,0.001 -0.051,-0.021 -0.05,-0.059 a 62.79,62.79 0 0 1 -0.002,-0.436 z m 14.162,-0.507 10e-4,1.001 c 0,0.038 -0.002,0.06 -0.051,0.058 a 9.295,9.295 0 0 0 -0.409,0 c -0.049,0.001 -0.051,-0.021 -0.05,-0.059 0.002,-0.127 0.001,-0.254 0.001,-0.381 v -1.58 c 0,-0.1 -0.001,-0.1 -0.106,-0.1 h -0.268 c -0.031,0 -0.052,0 -0.051,-0.043 0.003,-0.15 0.003,-0.301 0,-0.451 -0.001,-0.043 0.021,-0.043 0.051,-0.043 h 1.228 c 0.106,0 0.106,0 0.107,0.113 v 0.409 c -0.134,0.005 -0.269,0.012 -0.403,0.013 -0.05,0 -0.05,0.023 -0.049,0.06 z m -15.603,-0.299 c 0,-0.414 10e-4,-0.828 -0.001,-1.242 0,-0.039 0.004,-0.059 0.051,-0.057 0.141,0.003 0.282,0.003 0.424,0 0.046,-0.001 0.067,0.003 0.065,0.06 -0.005,0.136 -0.002,0.273 -0.002,0.409 v 1.58 c 0,0.069 0.001,0.07 0.065,0.07 h 0.537 c 0.033,0 0.051,0.004 0.05,0.045 -0.006,0.144 -0.008,0.288 -0.012,0.433 l -0.408,0.003 h -0.692 c -0.075,0 -0.076,-10e-4 -0.076,-0.073 v -1.157 z m -0.622,-0.005 v -1.214 c 0,-0.078 10e-4,-0.079 0.071,-0.078 0.145,0.002 0.289,0.006 0.434,0.01 0.001,0.14 0.004,0.281 0.004,0.422 v 2.131 c 0.002,0.033 -0.016,0.037 -0.043,0.037 -0.141,-0.001 -0.282,-0.002 -0.424,10e-4 -0.044,0.001 -0.043,-0.021 -0.043,-0.052 V 76.39 Z"
         id="path58"
         inkscape:connector-curvature="0" />
    </g>
    <g
       id="g64"
       style="fill:#ffffff">
      <path
         d="m 143.732,76.135 a 0.606,0.606 0 0 1 -0.2,0.462 0.676,0.676 0 0 1 -0.48,0.187 h -1.062 v -0.466 h 0.133 v -1.816 h -0.133 v -0.467 h 1.062 c 0.184,0 0.343,0.063 0.478,0.189 a 0.61,0.61 0 0 1 0.202,0.464 z m -0.52,-0.004 v -1.444 a 0.197,0.197 0 0 0 -0.046,-0.128 0.141,0.141 0 0 0 -0.116,-0.058 h -0.407 v 1.816 h 0.407 a 0.14,0.14 0 0 0 0.116,-0.058 0.194,0.194 0 0 0 0.046,-0.128 z m 1.307,0.653 h -0.52 v -2.749 h 0.52 z m 2.004,-0.622 a 0.606,0.606 0 0 1 -0.2,0.462 0.68,0.68 0 0 1 -0.48,0.187 h -0.387 a 0.67,0.67 0 0 1 -0.469,-0.182 0.615,0.615 0 0 1 -0.207,-0.449 l 0.52,-0.133 v 0.114 c 0,0.047 0.014,0.089 0.044,0.127 0.03,0.038 0.066,0.057 0.111,0.057 h 0.384 a 0.145,0.145 0 0 0 0.117,-0.057 0.198,0.198 0 0 0 0.047,-0.128 v -0.194 c 0,-0.112 -0.04,-0.185 -0.12,-0.22 l -0.711,-0.299 c -0.261,-0.109 -0.391,-0.296 -0.391,-0.559 v -0.235 c 0,-0.181 0.067,-0.334 0.2,-0.459 a 0.669,0.669 0 0 1 0.476,-0.189 h 0.387 a 0.68,0.68 0 0 1 0.471,0.182 0.617,0.617 0 0 1 0.209,0.453 l -0.52,0.129 v -0.115 a 0.19,0.19 0 0 0 -0.049,-0.125 0.146,0.146 0 0 0 -0.115,-0.058 h -0.384 a 0.135,0.135 0 0 0 -0.111,0.058 0.199,0.199 0 0 0 -0.044,0.125 v 0.107 c 0,0.116 0.038,0.19 0.115,0.222 l 0.72,0.298 c 0.258,0.106 0.386,0.293 0.386,0.559 v 0.322 z m 1.987,0.622 h -0.533 v -0.233 l -0.482,-0.917 -0.185,0.223 v 0.927 h -0.52 v -2.749 h 0.52 v 1.021 l 0.666,-0.804 v -0.218 h 0.533 v 0.375 l -0.656,0.791 0.656,1.236 v 0.348 z m 3.529,-0.622 a 0.606,0.606 0 0 1 -0.2,0.462 0.68,0.68 0 0 1 -0.48,0.187 h -0.387 a 0.67,0.67 0 0 1 -0.469,-0.182 0.615,0.615 0 0 1 -0.207,-0.449 l 0.52,-0.133 v 0.114 c 0,0.047 0.015,0.089 0.044,0.127 0.03,0.038 0.066,0.057 0.111,0.057 h 0.384 a 0.145,0.145 0 0 0 0.117,-0.057 0.198,0.198 0 0 0 0.047,-0.128 v -0.194 c 0,-0.112 -0.04,-0.185 -0.12,-0.22 l -0.711,-0.299 c -0.261,-0.109 -0.391,-0.296 -0.391,-0.559 v -0.235 c 0,-0.181 0.067,-0.334 0.2,-0.459 a 0.67,0.67 0 0 1 0.476,-0.189 h 0.387 a 0.68,0.68 0 0 1 0.471,0.182 0.613,0.613 0 0 1 0.209,0.453 l -0.52,0.129 v -0.115 a 0.19,0.19 0 0 0 -0.049,-0.125 0.146,0.146 0 0 0 -0.114,-0.058 h -0.384 a 0.134,0.134 0 0 0 -0.111,0.058 0.205,0.205 0 0 0 -0.044,0.125 v 0.107 c 0,0.116 0.038,0.19 0.115,0.222 l 0.72,0.298 c 0.258,0.106 0.386,0.293 0.386,0.559 z m 1.871,-1.772 -0.578,1.079 v 1.315 h -0.511 v -1.305 l -0.578,-1.088 v -0.356 h 0.529 v 0.244 l 0.302,0.635 0.307,-0.635 v -0.244 h 0.529 z m 1.946,1.772 a 0.606,0.606 0 0 1 -0.2,0.462 0.68,0.68 0 0 1 -0.48,0.187 h -0.387 a 0.67,0.67 0 0 1 -0.469,-0.182 0.615,0.615 0 0 1 -0.207,-0.449 l 0.52,-0.133 v 0.114 c 0,0.047 0.015,0.089 0.044,0.127 a 0.134,0.134 0 0 0 0.111,0.057 h 0.384 a 0.145,0.145 0 0 0 0.117,-0.057 0.198,0.198 0 0 0 0.047,-0.128 v -0.194 c 0,-0.112 -0.04,-0.185 -0.12,-0.22 l -0.711,-0.299 c -0.261,-0.109 -0.391,-0.296 -0.391,-0.559 v -0.235 c 0,-0.181 0.067,-0.334 0.2,-0.459 a 0.669,0.669 0 0 1 0.476,-0.189 h 0.387 a 0.68,0.68 0 0 1 0.471,0.182 0.617,0.617 0 0 1 0.209,0.453 l -0.52,0.129 v -0.115 a 0.19,0.19 0 0 0 -0.049,-0.125 0.148,0.148 0 0 0 -0.115,-0.058 h -0.384 a 0.134,0.134 0 0 0 -0.111,0.058 0.199,0.199 0 0 0 -0.044,0.125 v 0.107 c 0,0.116 0.038,0.19 0.115,0.222 l 0.72,0.298 c 0.258,0.106 0.386,0.293 0.386,0.559 v 0.322 z m 1.925,-1.661 h -0.605 v 2.282 h -0.52 v -2.282 h -0.596 v -0.467 h 1.72 v 0.467 z m 1.946,2.283 h -1.747 v -2.749 h 1.667 v 0.467 H 158.5 v 0.68 h 0.836 v 0.466 H 158.5 v 0.671 h 1.226 v 0.465 z m 2.009,0 h -0.52 v -1.252 l -0.174,0.581 h -0.355 l -0.173,-0.581 v 1.252 h -0.52 v -2.749 h 0.518 l 0.352,1.235 0.352,-1.235 h 0.52 z"
         id="path62"
         inkscape:connector-curvature="0" />
    </g>
    <path
       d="m 164.159,73.968 h 20.217 v 2.878 h -20.217 z"
       id="path66"
       inkscape:connector-curvature="0"
       style="fill:#ffffff" />
    <g
       id="g70"
       style="fill:#1d1d1b">
      <path
         d="m 165.334,76.337 v -1.858 h 0.4 v 0.763 h 1.57 v -0.763 h 0.4 v 1.858 h -0.4 v -0.876 h -1.57 v 0.876 z m 3.899,0 -1.17,-1.858 h 0.433 l 0.785,1.35 c 0.063,0.108 0.116,0.21 0.159,0.304 0.047,-0.101 0.101,-0.203 0.163,-0.304 l 0.816,-1.35 h 0.408 l -1.183,1.858 z m 4.106,-0.652 0.4,0.062 a 0.888,0.888 0 0 1 -0.452,0.462 1.815,1.815 0 0 1 -0.799,0.159 c -0.326,0 -0.59,-0.041 -0.794,-0.122 a 1.004,1.004 0 0 1 -0.466,-0.354 0.86,0.86 0 0 1 -0.16,-0.498 c 0,-0.193 0.06,-0.362 0.18,-0.506 a 1.11,1.11 0 0 1 0.513,-0.328 c 0.222,-0.075 0.466,-0.112 0.733,-0.112 0.302,0 0.556,0.047 0.762,0.142 0.206,0.095 0.35,0.228 0.431,0.399 l -0.394,0.057 c -0.07,-0.135 -0.172,-0.234 -0.305,-0.295 -0.133,-0.061 -0.301,-0.092 -0.503,-0.092 a 1.44,1.44 0 0 0 -0.582,0.103 0.656,0.656 0 0 0 -0.424,0.633 c 0,0.158 0.037,0.296 0.112,0.414 a 0.669,0.669 0 0 0 0.349,0.264 c 0.158,0.058 0.329,0.087 0.513,0.087 0.224,0 0.413,-0.04 0.569,-0.119 a 0.615,0.615 0 0 0 0.317,-0.356 z m 0.701,0.094 V 75.55 h 1.14 v 0.229 z m 1.476,-0.347 a 0.82,0.82 0 0 1 0.404,-0.724 c 0.269,-0.174 0.617,-0.262 1.043,-0.262 0.279,0 0.53,0.041 0.754,0.123 0.224,0.082 0.395,0.196 0.512,0.343 a 0.78,0.78 0 0 1 0.176,0.499 0.77,0.77 0 0 1 -0.186,0.506 1.141,1.141 0 0 1 -0.525,0.338 2.268,2.268 0 0 1 -0.734,0.115 c -0.284,0 -0.538,-0.042 -0.762,-0.127 a 1.138,1.138 0 0 1 -0.509,-0.346 0.738,0.738 0 0 1 -0.173,-0.465 z m 0.412,0.004 c 0,0.224 0.098,0.4 0.294,0.529 0.196,0.129 0.441,0.193 0.737,0.193 0.301,0 0.548,-0.065 0.743,-0.195 a 0.63,0.63 0 0 0 0.292,-0.554 0.651,0.651 0 0 0 -0.125,-0.396 0.793,0.793 0 0 0 -0.365,-0.262 1.483,1.483 0 0 0 -0.539,-0.093 c -0.283,0 -0.527,0.06 -0.73,0.179 -0.205,0.12 -0.307,0.319 -0.307,0.599 z m 4.791,0.682 v 0.219 h -1.997 a 0.268,0.268 0 0 1 0.043,-0.158 0.885,0.885 0 0 1 0.244,-0.247 c 0.112,-0.081 0.274,-0.175 0.485,-0.281 0.328,-0.166 0.55,-0.297 0.666,-0.394 0.115,-0.097 0.173,-0.188 0.173,-0.274 0,-0.09 -0.053,-0.167 -0.158,-0.229 a 0.802,0.802 0 0 0 -0.411,-0.093 0.813,0.813 0 0 0 -0.429,0.099 0.313,0.313 0 0 0 -0.163,0.274 l -0.381,-0.024 a 0.527,0.527 0 0 1 0.295,-0.4 c 0.17,-0.092 0.399,-0.138 0.686,-0.138 0.29,0 0.519,0.049 0.688,0.148 0.169,0.099 0.253,0.221 0.253,0.368 a 0.387,0.387 0 0 1 -0.074,0.219 0.971,0.971 0 0 1 -0.246,0.227 5.992,5.992 0 0 1 -0.572,0.327 6.914,6.914 0 0 0 -0.429,0.234 0.966,0.966 0 0 0 -0.157,0.124 h 1.484 z"
         id="path68"
         inkscape:connector-curvature="0" />
    </g>
    <path
       d="m 181.195,75.906 c 0,0 0.319,0.203 0.792,0.203 0.366,0 0.666,-0.139 0.666,-0.339 0,-0.229 -0.356,-0.342 -0.759,-0.342 h -0.227 l -0.107,-0.139 0.713,-0.476 c 0.106,-0.071 0.204,-0.121 0.204,-0.121 v -0.005 c 0,0 -0.098,0.008 -0.278,0.008 h -1.107 v -0.226 h 1.955 v 0.166 l -0.889,0.581 c 0.43,0.026 0.959,0.184 0.959,0.545 0,0.318 -0.44,0.597 -1.112,0.597 -0.666,0 -1.06,-0.252 -1.06,-0.252 z"
       id="path72"
       inkscape:connector-curvature="0" />
  </g>
  <g
     id="g134">
    <path
       d="m 462.961,286.935 c 0,0 -1.779,2.465 -5.856,2.465 H 270.954 c -6.835,0 -7.705,-2.465 -7.705,-2.465 0,0 -7.249,-11.829 -7.249,-14.609 v -2.53 c 0,-3.622 4.044,-6.95 4.044,-6.95 v -57.368 c 0,0 -4.044,-2.906 -4.044,-5.181 v -5.39 c 0,-2.78 2.275,-5.054 5.054,-5.054 h 201.783 a 5.068,5.068 0 0 1 5.054,5.054 v 5.77 c 0,3.37 -4.407,2.78 -4.407,2.78 v 61.411 c 0,0 4.407,1.011 4.407,3.285 v 4.173 c 10e-4,2.78 -4.93,14.609 -4.93,14.609 z"
       id="path76"
       inkscape:connector-curvature="0"
       style="fill:#ac1739" />
    <path
       d="M 461.518,270.933 H 262.374 c -2.78,0 -5.054,-2.275 -5.054,-5.055 v -18.196 l -1.011,-1.39 v -4.675 l 1.011,-1.39 v -1.769 l -1.011,-1.137 v -30.832 l 1.011,-1.39 v -1.39 c 0,-2.78 2.275,-5.054 5.054,-5.054 h 199.145 c 2.78,0 5.054,2.275 5.054,5.054 v 1.516 l 1.319,2.906 v 28.178 l -1.319,1.895 v 1.421 l 1.319,1.486 v 5.181 l -1.319,1.264 v 18.322 c 0,2.78 -2.275,5.055 -5.055,5.055 z"
       id="path78"
       inkscape:connector-curvature="0"
       style="fill:#3c3c3b" />
    <path
       d="m 257.319,247.668 h 23.459 c 1.715,0 3.117,1.383 3.117,3.073 v 12.186 c 0,1.69 -1.403,3.073 -3.117,3.073 h -23.459"
       id="path80"
       inkscape:connector-curvature="0"
       style="fill:#666666" />
    <path
       d="m 257.319,248.758 h 22.47 c 1.642,0 2.986,1.229 2.986,2.731 v 10.827 c 0,1.502 -1.344,2.731 -2.986,2.731 h -22.47"
       id="path82"
       inkscape:connector-curvature="0"
       style="fill:#3c3c3b" />
    <path
       d="m 466.573,266.031 h -57.054 c -1.714,0 -3.117,-1.383 -3.117,-3.073 v -12.186 c 0,-1.69 1.403,-3.073 3.117,-3.073 h 57.054"
       id="path84"
       inkscape:connector-curvature="0"
       style="fill:#666666" />
    <path
       d="m 466.573,264.941 h -56.065 c -1.642,0 -2.986,-1.229 -2.986,-2.731 v -10.827 c 0,-1.502 1.344,-2.731 2.986,-2.731 h 56.065"
       id="path86"
       inkscape:connector-curvature="0"
       style="fill:#3c3c3b" />
    <path
       d="M 417.679,239.626 H 293.975 c -1.65,0 -3,-1.35 -3,-3 v -31.723 c 0,-1.65 1.35,-3 3,-3 h 123.704 c 1.65,0 3,1.35 3,3 v 31.723 c 0,1.65 -1.35,3 -3,3 z"
       id="path88"
       inkscape:connector-curvature="0"
       style="fill:#666666" />
    <path
       d="M 415.733,238.003 H 295.269 a 2.815,2.815 0 0 1 -2.806,-2.806 v -28.345 a 2.815,2.815 0 0 1 2.806,-2.806 h 120.465 a 2.815,2.815 0 0 1 2.806,2.806 v 28.345 a 2.815,2.815 0 0 1 -2.807,2.806 z"
       id="path90"
       inkscape:connector-curvature="0"
       style="fill:#3c3c3b" />
    <path
       d="m 296.142,209.78 h 119.035 v 16.963 H 296.142 Z"
       id="path92"
       inkscape:connector-curvature="0"
       style="fill:#6f6f6e" />
    <path
       d="m 337.545,204.046 h 36.318 v 34.006 h -36.318 z"
       id="path94"
       inkscape:connector-curvature="0"
       style="fill:#6f6f6e" />
    <path
       d="m 339.073,205.718 h 33.613 v 30.959 h -33.613 z"
       id="path96"
       inkscape:connector-curvature="0"
       style="fill:#3c3c3b" />
    <path
       d="m 298.164,211.385 h 115.027 v 13.754 H 298.164 Z"
       id="path98"
       inkscape:connector-curvature="0"
       style="fill:#3c3c3b" />
    <path
       d="m 466.573,239.881 -35.347,-0.061 c -2.665,0 -3.918,-1.397 -3.918,-3.179 v -30.148 c 0,-1.782 1.061,-3.24 3.726,-3.24 h 35.54"
       id="path100"
       inkscape:connector-curvature="0"
       style="fill:#666666" />
    <path
       d="m 466.573,238.737 -34.59,-0.108 c -2.583,0 -3.476,-1.258 -3.476,-2.929 v -28.264 c 0,-1.67 0.431,-2.929 3.015,-2.929 l 35.051,-0.108"
       id="path102"
       inkscape:connector-curvature="0"
       style="fill:#3c3c3b" />
    <path
       d="m 377.713,230.245 h 22.745 v 6.065 h -22.745 z"
       id="path104"
       inkscape:connector-curvature="0"
       style="fill:#f7e835" />
    <path
       d="m 445.19,230.245 a 3.033,3.033 0 1 1 -6.066,0 3.033,3.033 0 0 1 6.066,0 z"
       id="path106"
       inkscape:connector-curvature="0"
       style="fill:#e20613" />
    <g
       id="g110"
       style="fill:#ffffff">
      <path
         d="m 293.686,256.149 h -0.216 c -0.417,0 -0.835,-0.003 -1.252,0.002 -0.085,10e-4 -0.133,-0.025 -0.178,-0.098 -0.697,-1.128 -1.396,-2.254 -2.096,-3.38 a 0.286,0.286 0 0 0 -0.095,-0.103 v 3.572 h -1.585 v -5.174 h 0.108 c 0.462,0 0.924,0.002 1.386,-0.002 0.077,-0.001 0.118,0.025 0.158,0.09 0.697,1.132 1.396,2.263 2.095,3.394 a 0.26,0.26 0 0 0 0.091,0.097 v -3.569 h 1.584 z m 25.442,-5.174 v 5.167 h -1.522 l -0.011,-0.171 c -1.007,0.483 -1.89,0.372 -2.562,-0.568 -0.445,-0.622 -0.388,-1.479 0.09,-2.099 0.293,-0.38 0.67,-0.631 1.149,-0.713 0.473,-0.081 0.906,0.038 1.329,0.293 v -1.91 z m -2.742,3.428 c -0.001,0.235 -0.007,0.469 10e-4,0.704 0.011,0.35 0.253,0.586 0.596,0.597 0.333,0.01 0.603,-0.216 0.616,-0.56 0.019,-0.472 0.008,-0.945 0.009,-1.417 a 0.623,0.623 0 0 0 -0.019,-0.143 c -0.077,-0.317 -0.326,-0.486 -0.669,-0.455 a 0.568,0.568 0 0 0 -0.531,0.562 c -0.011,0.235 -0.003,0.474 -0.003,0.712 z m -14.839,1.74 h -1.527 v -0.136 -2.035 c 0,-0.354 -0.207,-0.625 -0.536,-0.703 -0.348,-0.082 -0.729,0.082 -0.869,0.389 a 0.772,0.772 0 0 0 -0.059,0.313 c -0.004,0.678 0,1.357 0.001,2.035 v 0.137 h -1.529 v -3.425 h 1.529 v 0.347 c 0.052,-0.042 0.084,-0.065 0.113,-0.09 0.715,-0.601 1.806,-0.553 2.449,0.11 0.293,0.302 0.426,0.674 0.433,1.084 0.012,0.645 0.004,1.289 0.004,1.934 0,0.011 -0.004,0.022 -0.009,0.04 z m 9.679,0.001 h -1.529 v -3.426 h 1.527 v 0.354 c 0.055,-0.045 0.089,-0.07 0.121,-0.097 0.754,-0.632 1.926,-0.538 2.529,0.202 0.201,0.247 0.329,0.533 0.337,0.847 0.019,0.689 0.012,1.378 0.015,2.067 0,0.014 -0.006,0.029 -0.011,0.05 h -1.516 c -0.003,-0.047 -0.009,-0.093 -0.009,-0.14 l -10e-4,-2.012 c 0,-0.356 -0.165,-0.6 -0.473,-0.703 a 0.786,0.786 0 0 0 -0.863,0.26 0.636,0.636 0 0 0 -0.13,0.406 c 0.002,0.678 0.002,1.356 0.002,2.034 z m 10.727,-3.669 c 0.593,0.009 1.156,0.189 1.628,0.611 0.804,0.72 0.821,1.859 0.04,2.605 -0.904,0.863 -2.499,0.861 -3.401,-0.005 -0.827,-0.794 -0.743,-2.015 0.189,-2.719 0.446,-0.338 0.956,-0.486 1.544,-0.492 z m 0.59,1.93 h 0.012 c 0,-0.242 10e-4,-0.484 -0.001,-0.726 0,-0.052 -0.005,-0.104 -0.011,-0.156 -0.033,-0.268 -0.145,-0.486 -0.41,-0.59 a 0.61,0.61 0 0 0 -0.841,0.537 c -0.035,0.593 -0.016,1.19 -0.02,1.785 0,0.029 0.007,0.059 0.012,0.088 0.052,0.329 0.293,0.559 0.593,0.569 0.363,0.011 0.64,-0.239 0.663,-0.625 0.016,-0.294 0.003,-0.588 0.003,-0.882 z m -13.342,0.033 h -2.924 c 0,0.287 -0.002,0.561 0.001,0.835 a 0.754,0.754 0 0 0 0.031,0.187 0.633,0.633 0 0 0 0.673,0.472 c 0.294,-0.021 0.53,-0.247 0.575,-0.563 0.019,-0.132 0.021,-0.266 0.031,-0.409 h 1.522 c -0.017,0.046 -0.03,0.092 -0.05,0.135 -0.301,0.64 -0.822,1.015 -1.491,1.175 -0.898,0.215 -1.724,0.055 -2.403,-0.6 -0.76,-0.732 -0.721,-1.861 0.07,-2.561 0.537,-0.475 1.174,-0.658 1.882,-0.604 0.668,0.051 1.237,0.312 1.675,0.829 a 1.74,1.74 0 0 1 0.412,1.04 c 0.001,0.014 -10e-4,0.028 -0.004,0.064 z m -1.611,-0.536 c -0.012,-0.16 -0.011,-0.316 -0.038,-0.467 A 0.635,0.635 0 0 0 306.3,253.43 c -0.023,0.123 -0.017,0.251 -0.03,0.377 -0.009,0.085 0.025,0.109 0.107,0.108 0.368,-0.003 0.736,-0.001 1.105,-0.002 0.03,0 0.058,-0.005 0.108,-0.011 z m -5.168,2.239 v -3.431 h -0.847 c 0,-0.16 -0.003,-0.308 0.004,-0.455 10e-4,-0.019 0.057,-0.049 0.088,-0.05 0.205,-0.005 0.41,-0.003 0.615,-0.004 h 0.135 v -0.69 h 1.554 v 0.685 h 0.835 v 0.507 h -0.829 v 3.438 z m -6.28,-3.425 v 3.424 h -1.535 v -3.424 z m -1.54,-1.74 c 0.016,-0.003 0.03,-0.007 0.044,-0.007 h 1.493 v 1.041 h -1.537 z"
         id="path108"
         inkscape:connector-curvature="0" />
    </g>
    <g
       id="g116"
       style="fill:#ffffff">
      <path
         d="m 327.772,261.728 c 0,-0.56 0.001,-1.119 -10e-4,-1.679 0,-0.053 0.006,-0.079 0.07,-0.078 0.21,0.004 0.42,0.003 0.63,10e-4 0.046,0 0.071,0.059 0.071,0.059 l 1.034,2.204 0.983,-2.188 c 0.023,-0.051 0.052,-0.077 0.112,-0.076 0.21,0.003 0.42,0.003 0.63,0 0.052,-10e-4 0.064,0.018 0.062,0.066 -0.003,0.102 -10e-4,0.203 -10e-4,0.305 v 2.977 c 0,0.038 -0.002,0.077 10e-4,0.115 0.003,0.041 -0.015,0.053 -0.055,0.053 -0.184,-0.002 -0.369,-0.005 -0.553,0.002 -0.074,0.003 -0.082,-0.023 -0.081,-0.086 0.003,-0.458 0.001,-0.916 0.001,-1.374 0,-0.051 10e-4,-0.102 -0.001,-0.153 0,-0.01 -0.011,-0.02 -0.017,-0.031 -0.007,0.009 -0.015,0.018 -0.02,0.028 -0.102,0.219 -0.56,1.224 -0.688,1.509 -0.031,0.069 -0.064,0.115 -0.159,0.108 a 4.895,4.895 0 0 0 -0.402,-0.002 c -0.11,-10e-4 -0.142,-0.1 -0.142,-0.1 l -0.783,-1.654 c 0,0 -0.005,1.199 -0.003,1.677 0,0.052 -0.005,0.08 -0.069,0.078 -0.172,-0.005 -0.343,-10e-4 -0.515,-0.002 -0.103,0 -0.104,-0.001 -0.104,-0.098 v -1.565 z m 15.81,-0.007 v -1.641 c 0,-0.106 0.001,-0.107 0.114,-0.107 0.191,0 0.382,0.002 0.572,-0.001 0.059,-10e-4 0.094,0.022 0.115,0.072 l 0.879,2.04 c 0.01,0.033 0.024,0.077 0.049,0.092 0.039,0.022 0.006,0.109 0.073,0.085 0.03,-0.011 0.056,-0.06 0.067,-0.097 0.058,-0.205 0.871,-1.967 0.871,-1.967 0.038,-0.069 0.02,-0.176 0.094,-0.205 0.077,-0.03 0.172,-0.019 0.259,-0.018 0.164,0.001 0.327,0.008 0.491,0.013 0.002,0.158 0.005,0.316 0.005,0.475 v 2.843 c 0,0.044 -0.002,0.089 0,0.133 0.002,0.045 -0.022,0.049 -0.059,0.049 -0.191,-0.001 -0.382,-0.003 -0.572,10e-4 -0.06,10e-4 -0.057,-0.03 -0.057,-0.07 v -0.63 l -10e-4,-0.878 c 0,-0.021 -0.013,-0.043 -0.02,-0.064 l -0.027,0.065 c -0.049,0.113 -0.576,1.289 -0.711,1.519 -0.022,0.037 -0.028,0.057 -0.072,0.056 a 16.99,16.99 0 0 0 -0.553,0.001 0.104,0.104 0 0 1 -0.104,-0.064 c -0.092,-0.197 -0.624,-1.408 -0.666,-1.499 -0.012,-0.027 -0.027,-0.052 -0.04,-0.079 -0.007,0.027 -0.02,0.055 -0.02,0.082 l -0.001,1.278 c 0,0.088 -0.003,0.177 -0.005,0.265 -0.094,0.005 -0.187,0.011 -0.28,0.014 -0.083,0.002 -0.165,0.001 -0.248,0 -0.154,0 -0.154,0 -0.154,-0.162 z m -2.005,1.836 c -0.273,0.047 -0.527,-0.061 -0.776,-0.166 a 1.244,1.244 0 0 1 -0.343,-0.228 2.416,2.416 0 0 1 -0.362,-0.402 1.783,1.783 0 0 1 -0.29,-1.212 c 0.014,-0.145 0.059,-0.292 0.114,-0.428 0.055,-0.136 0.132,-0.265 0.212,-0.388 0.192,-0.294 0.462,-0.5 0.784,-0.628 0.193,-0.077 0.394,-0.142 0.613,-0.136 0.174,0.004 0.349,0.006 0.517,0.046 0.142,0.034 0.287,0.083 0.409,0.159 0.075,0.047 0.16,0.083 0.229,0.141 0.065,0.056 0.108,0.139 0.2,0.162 0.017,0.079 0.088,0.117 0.134,0.173 0.042,0.052 0.09,0.101 0.12,0.16 0.085,0.168 0.171,0.333 0.223,0.519 0.037,0.131 0.026,0.262 0.058,0.393 0.032,0.128 -0.008,0.28 -0.039,0.416 a 2.056,2.056 0 0 1 -0.293,0.66 1.77,1.77 0 0 1 -0.922,0.687 1.3,1.3 0 0 1 -0.588,0.072 z m 0.04,-0.676 c 0.093,-0.007 0.194,0.007 0.279,-0.024 0.235,-0.086 0.455,-0.186 0.614,-0.407 0.143,-0.201 0.209,-0.413 0.233,-0.649 0.01,-0.094 -0.024,-0.18 -0.037,-0.271 a 0.856,0.856 0 0 0 -0.125,-0.331 c -0.071,-0.114 -0.169,-0.199 -0.26,-0.292 -0.16,-0.162 -0.363,-0.228 -0.583,-0.247 -0.082,-0.007 -0.165,-0.001 -0.248,-0.001 a 0.7,0.7 0 0 0 -0.343,0.091 c -0.161,0.089 -0.315,0.182 -0.431,0.342 a 1.171,1.171 0 0 0 -0.222,0.614 c -0.021,0.273 0.065,0.521 0.225,0.745 0.09,0.127 0.313,0.288 0.453,0.35 0.144,0.065 0.29,0.083 0.445,0.08 z m 15.254,-0.237 c 0,0.28 -0.004,0.56 0.002,0.839 0.002,0.076 -0.025,0.082 -0.087,0.081 a 10.252,10.252 0 0 0 -0.496,0 c -0.064,0.002 -0.075,-0.025 -0.069,-0.078 0.003,-0.025 0,-0.051 0,-0.076 v -3.282 c 0,-0.032 0.003,-0.064 -10e-4,-0.095 -0.007,-0.055 0.022,-0.061 0.067,-0.061 0.153,0.002 0.305,0.001 0.458,0.001 0.248,0 0.496,-0.006 0.744,0.002 0.205,0.007 0.399,0.049 0.588,0.146 0.185,0.094 0.314,0.236 0.434,0.391 a 0.963,0.963 0 0 1 0.195,0.626 1.138,1.138 0 0 1 -0.076,0.447 c -0.026,0.061 -0.047,0.119 -0.087,0.174 -0.141,0.197 -0.298,0.374 -0.53,0.466 -0.043,0.017 -0.045,0.039 -0.026,0.068 0.136,0.202 0.251,0.417 0.372,0.628 0.116,0.201 0.236,0.398 0.356,0.597 0.013,0.021 0.042,0.044 -0.006,0.044 -0.229,0.003 -0.458,0.002 -0.687,0 -0.015,0 -0.035,-0.024 -0.045,-0.041 -0.188,-0.336 -0.381,-0.67 -0.579,-0.999 -0.15,-0.25 -0.28,-0.512 -0.453,-0.748 -0.012,-0.016 -0.029,-0.029 -0.044,-0.043 -0.011,0.019 -0.03,0.037 -0.03,0.056 -0.002,0.229 -10e-4,0.458 -10e-4,0.687 z m 0,-1.497 v 0.4 c 0,0.042 0,0.07 0.058,0.069 0.235,-0.004 0.47,0.007 0.705,-0.005 a 0.377,0.377 0 0 0 0.304,-0.173 0.502,0.502 0 0 0 0,-0.563 0.378,0.378 0 0 0 -0.304,-0.173 c -0.234,-0.012 -0.47,-10e-4 -0.705,-0.005 -0.058,-10e-4 -0.059,0.027 -0.059,0.069 0.002,0.127 10e-4,0.254 10e-4,0.381 z m -7.064,0.173 v -1.241 c 0,-0.105 10e-4,-0.107 0.096,-0.106 0.195,0.003 0.391,0.009 0.586,0.013 0.002,0.19 0.005,0.38 0.005,0.57 10e-4,0.63 -0.002,1.26 0.002,1.89 a 0.42,0.42 0 0 0 0.26,0.403 c 0.343,0.152 0.688,-0.065 0.691,-0.435 0.006,-0.751 0.002,-1.502 0.002,-2.252 0,-0.044 0.002,-0.089 -0.001,-0.133 -0.002,-0.039 0.009,-0.057 0.051,-0.057 0.197,0.001 0.394,0 0.592,0.003 0.015,0 0.04,0.025 0.043,0.041 0.007,0.037 0.002,0.076 0.002,0.114 0,0.783 0.003,1.565 -0.001,2.348 -10e-4,0.276 -0.118,0.51 -0.297,0.717 a 1.19,1.19 0 0 1 -0.542,0.352 c -0.267,0.087 -0.518,0.053 -0.775,-0.048 -0.268,-0.105 -0.428,-0.319 -0.599,-0.527 -0.036,-0.144 -0.117,-0.274 -0.116,-0.43 0.003,-0.408 0.001,-0.815 0.001,-1.222 z"
         id="path112"
         inkscape:connector-curvature="0" />
      <path
         d="m 339.436,260.966 c -0.095,0 -0.191,-0.004 -0.286,10e-4 a 0.26,0.26 0 0 1 -0.213,-0.085 c -0.094,-0.103 -0.225,-0.142 -0.347,-0.177 a 0.829,0.829 0 0 0 -0.345,-0.047 c -0.231,0.033 -0.532,0.096 -0.714,0.306 -0.073,0.084 -0.159,0.161 -0.212,0.256 a 1.097,1.097 0 0 0 -0.155,0.566 c 0.016,0.282 0.102,0.532 0.312,0.731 0.102,0.097 0.19,0.209 0.332,0.258 0.268,0.092 0.455,0.127 0.727,0.068 0.185,-0.039 0.328,-0.138 0.477,-0.233 a 0.206,0.206 0 0 1 0.118,-0.041 c 0.216,0.002 0.433,0 0.649,10e-4 0.066,0 0.079,0.018 0.041,0.075 -0.115,0.175 -0.219,0.354 -0.397,0.486 -0.146,0.108 -0.285,0.222 -0.455,0.29 a 1.734,1.734 0 0 1 -0.762,0.141 c -0.311,-0.009 -0.61,-0.064 -0.864,-0.263 -0.232,-0.08 -0.354,-0.29 -0.519,-0.449 -0.124,-0.12 -0.188,-0.29 -0.254,-0.446 a 1.274,1.274 0 0 1 -0.092,-0.421 c -0.014,-0.171 0.001,-0.49 0.038,-0.66 0.037,-0.17 0.086,-0.268 0.152,-0.395 0.043,-0.083 0.101,-0.15 0.156,-0.222 a 1.68,1.68 0 0 1 0.529,-0.481 c 0.151,-0.082 0.305,-0.159 0.471,-0.197 0.117,-0.027 0.236,-0.069 0.36,-0.054 0.396,-0.005 0.665,0.096 0.813,0.156 0.125,0.051 0.249,0.124 0.349,0.214 0.152,0.138 0.312,0.273 0.422,0.453 0.022,0.036 0.048,0.069 0.066,0.106 0.015,0.031 0.013,0.062 -0.034,0.062 z m -11.892,2.444 c 0,0.053 -0.005,0.08 -0.069,0.078 -0.172,-0.005 -0.344,-0.003 -0.516,-10e-4 -0.046,10e-4 -0.068,-0.007 -0.067,-0.061 0.004,-0.14 0,-0.28 0.002,-0.42 10e-4,-0.04 -0.012,-0.055 -0.053,-0.055 h -1.146 c -0.032,0 -0.047,0.005 -0.066,0.043 -0.044,0.091 -0.106,0.173 -0.163,0.257 -0.053,0.079 -0.093,0.187 -0.168,0.226 -0.075,0.039 -0.186,0.009 -0.282,0.009 -0.045,0 -0.089,0.002 -0.134,0 l -0.356,-0.017 c 0.081,-0.083 0.135,-0.185 0.202,-0.276 0.183,-0.247 2.201,-3.179 2.255,-3.204 0.067,-0.033 0.16,-0.014 0.241,-0.014 0.101,0 0.303,0.005 0.303,0.005 z m -0.654,-1.598 h 0.004 c 0,-0.14 10e-4,-0.28 -0.001,-0.42 0,-0.015 -0.012,-0.039 -0.023,-0.043 a 0.056,0.056 0 0 0 -0.048,0.015 c -0.026,0.032 -0.044,0.071 -0.069,0.104 -0.166,0.218 -0.334,0.434 -0.497,0.654 -0.026,0.034 -0.028,0.086 -0.042,0.129 0.036,0.004 0.073,0.01 0.109,0.012 0.038,0.002 0.076,0.001 0.115,0 l 0.452,-0.015 z m 27.308,-0.04 v -1.699 c 0,-0.116 -0.004,-0.1 0.102,-0.1 h 1.68 c 0.088,0 0.089,0.002 0.089,0.094 v 0.496 c 0,0.096 -0.001,0.097 -0.105,0.097 -0.331,0 -0.662,10e-4 -0.993,-0.001 -0.059,0 -0.091,0 -0.089,0.079 0.007,0.216 0.004,0.433 10e-4,0.649 -10e-4,0.055 0.01,0.077 0.071,0.076 0.312,-0.003 0.624,-0.001 0.936,-0.001 0.045,0 0.09,-0.004 0.133,0.002 0.017,0.002 0.033,0.025 0.044,0.042 0.006,0.009 10e-4,0.025 10e-4,0.038 l -0.003,0.59 c -0.195,0.005 -0.39,0.012 -0.585,0.015 -0.172,0.003 -0.344,0.006 -0.515,-0.002 -0.075,-0.003 -0.082,0.024 -0.081,0.087 0.004,0.191 0.004,0.382 0,0.573 -0.001,0.064 0.025,0.07 0.078,0.07 0.344,-0.002 0.687,0 1.031,-0.002 0.053,0 0.079,0.006 0.078,0.07 -0.004,0.184 -0.005,0.369 0,0.554 0.002,0.07 -0.034,0.066 -0.081,0.066 -0.573,-10e-4 -1.146,-10e-4 -1.718,10e-4 -0.057,0 -0.075,-0.014 -0.075,-0.073 0.003,-0.229 10e-4,-0.458 10e-4,-0.687 z m -6.835,-0.062 v -1.583 c 0,-0.154 0,-0.154 0.162,-0.154 h 1.011 c 0.245,-0.001 0.451,0.087 0.65,0.231 0.18,0.13 0.285,0.305 0.37,0.496 0.071,0.16 0.129,0.335 0.095,0.511 -0.035,0.184 -0.065,0.374 -0.181,0.535 -0.138,0.192 -0.295,0.353 -0.52,0.444 a 1.21,1.21 0 0 1 -0.468,0.113 c -0.126,0 -0.253,0.003 -0.379,0.005 -0.005,0.132 -0.012,0.263 -0.013,0.395 -0.002,0.235 -0.002,0.471 0,0.706 0,0.051 -0.003,0.08 -0.068,0.079 a 14.555,14.555 0 0 0 -0.591,0 c -0.066,10e-4 -0.068,-0.029 -0.068,-0.079 z m 0.725,-0.595 c 0,0.133 0.002,0.266 -0.001,0.399 -10e-4,0.05 0.015,0.065 0.064,0.064 0.139,-0.003 0.279,0.003 0.418,-0.003 a 0.296,0.296 0 0 0 0.151,-0.043 0.68,0.68 0 0 0 0.161,-0.16 c 0.039,-0.057 0.055,-0.129 0.083,-0.193 0.028,-0.062 -0.031,-0.101 -0.038,-0.154 -0.026,-0.182 -0.179,-0.347 -0.351,-0.361 -0.157,-0.012 -0.315,0 -0.473,0.002 l -0.014,0.412 z m -24.554,0.603 v -1.64 c 0,-0.104 0.001,-0.105 0.097,-0.105 l 1.697,-0.001 c 0.052,0 0.08,0.004 0.079,0.069 a 8.843,8.843 0 0 0 0,0.515 c 0.002,0.066 -0.029,0.068 -0.08,0.068 -0.343,-0.002 -0.686,0 -1.03,-0.002 -0.053,0 -0.079,0.006 -0.078,0.07 0.004,0.197 0.001,0.394 0.002,0.591 0,0.103 10e-4,0.104 0.098,0.104 0.337,10e-4 0.674,10e-4 1.011,-10e-4 0.054,0 0.078,0.008 0.077,0.071 -0.004,0.191 -0.004,0.381 0,0.572 0.001,0.064 -0.008,0.087 -0.081,0.086 -0.343,-0.005 -0.687,-0.001 -1.03,-0.003 -0.055,0 -0.076,0.011 -0.076,0.072 0.003,0.407 0,0.814 0.003,1.22 0,0.064 -0.007,0.09 -0.081,0.086 -0.201,-0.011 -0.402,-0.012 -0.604,-0.017 l -0.004,-0.57 z m 10.807,1.099 c 0,-0.178 -0.005,-0.356 0.002,-0.534 a 0.42,0.42 0 0 0 -0.056,-0.207 c -0.186,-0.368 -0.37,-0.737 -0.557,-1.104 -0.158,-0.31 -0.32,-0.618 -0.482,-0.926 -0.023,-0.045 -0.024,-0.072 0.032,-0.072 0.216,-0.002 0.432,0 0.649,-10e-4 0.069,-0.001 0.085,0.041 0.112,0.097 0.185,0.382 0.377,0.76 0.568,1.138 0.024,0.048 0.059,0.09 0.089,0.135 0.034,-0.046 0.076,-0.088 0.1,-0.139 0.184,-0.395 0.359,-0.794 0.572,-1.175 0.015,-0.027 0.008,-0.056 0.052,-0.056 l 0.668,10e-4 c 0.058,0 0.054,0.029 0.032,0.073 -0.347,0.689 -0.692,1.379 -1.04,2.068 a 0.474,0.474 0 0 0 -0.053,0.227 c 0.003,0.356 0,0.712 0.002,1.068 0,0.051 -0.003,0.081 -0.068,0.079 a 10.196,10.196 0 0 0 -0.553,0 c -0.066,0.002 -0.068,-0.029 -0.068,-0.079 z m 19.132,-0.686 c 0,0.451 -0.001,0.903 10e-4,1.354 0,0.051 -0.003,0.081 -0.068,0.079 a 11.328,11.328 0 0 0 -0.553,0 c -0.066,0.002 -0.069,-0.029 -0.068,-0.079 0.002,-0.172 10e-4,-0.343 10e-4,-0.515 v -2.136 c 0,-0.135 -10e-4,-0.135 -0.143,-0.135 h -0.362 c -0.042,0 -0.07,0 -0.069,-0.058 0.004,-0.203 0.004,-0.407 0,-0.61 -10e-4,-0.059 0.028,-0.059 0.07,-0.058 h 1.659 c 0.144,0 0.144,10e-4 0.144,0.153 v 0.553 c -0.182,0.006 -0.363,0.017 -0.545,0.017 -0.067,0 -0.067,0.031 -0.067,0.081 z m -21.08,-0.403 c 0,-0.56 0.001,-1.119 -10e-4,-1.679 0,-0.053 0.006,-0.079 0.07,-0.078 0.191,0.004 0.382,0.004 0.572,0 0.062,-10e-4 0.09,0.004 0.087,0.08 -0.007,0.184 -0.002,0.369 -0.002,0.553 v 2.136 c 0,0.094 10e-4,0.095 0.087,0.095 h 0.725 c 0.045,0 0.069,0.005 0.067,0.06 -0.008,0.195 -0.011,0.39 -0.016,0.585 -0.184,10e-4 -0.368,0.004 -0.551,0.004 h -0.935 c -0.102,0 -0.103,-10e-4 -0.103,-0.099 v -1.564 z m -0.84,-0.008 v -1.641 c 0,-0.105 10e-4,-0.107 0.096,-0.106 0.195,0.003 0.391,0.009 0.586,0.013 0.002,0.19 0.005,0.38 0.005,0.57 v 2.766 c 0,0.038 -0.002,0.076 0,0.115 0.003,0.045 -0.021,0.05 -0.058,0.05 -0.191,-0.001 -0.382,-0.003 -0.572,10e-4 -0.059,10e-4 -0.058,-0.029 -0.058,-0.07 v -0.362 z"
         id="path114"
         inkscape:connector-curvature="0" />
    </g>
    <g
       id="g120"
       style="fill:#ffffff">
      <path
         d="m 363.818,262.713 a 0.82,0.82 0 0 1 -0.27,0.624 0.917,0.917 0 0 1 -0.649,0.252 h -1.435 v -0.63 h 0.18 v -2.456 h -0.18 v -0.631 h 1.435 c 0.248,0 0.463,0.085 0.646,0.255 0.182,0.17 0.273,0.38 0.273,0.628 z m -0.702,-0.005 v -1.953 a 0.272,0.272 0 0 0 -0.062,-0.173 0.192,0.192 0 0 0 -0.157,-0.078 h -0.549 v 2.456 h 0.549 a 0.192,0.192 0 0 0 0.157,-0.078 0.275,0.275 0 0 0 0.062,-0.174 z m 1.765,0.882 h -0.703 v -3.717 h 0.703 z m 2.708,-0.841 c 0,0.249 -0.09,0.456 -0.27,0.625 a 0.916,0.916 0 0 1 -0.648,0.252 h -0.523 a 0.904,0.904 0 0 1 -0.634,-0.246 0.833,0.833 0 0 1 -0.279,-0.606 l 0.703,-0.18 v 0.154 c 0,0.063 0.02,0.12 0.059,0.171 0.04,0.051 0.089,0.077 0.149,0.077 h 0.519 a 0.196,0.196 0 0 0 0.158,-0.077 0.267,0.267 0 0 0 0.063,-0.173 v -0.262 c 0,-0.151 -0.054,-0.25 -0.163,-0.298 l -0.96,-0.404 c -0.352,-0.147 -0.528,-0.4 -0.528,-0.756 v -0.318 c 0,-0.245 0.09,-0.452 0.27,-0.621 a 0.905,0.905 0 0 1 0.643,-0.255 h 0.523 c 0.244,0 0.456,0.082 0.636,0.246 0.18,0.164 0.274,0.368 0.282,0.613 l -0.702,0.174 v -0.156 a 0.255,0.255 0 0 0 -0.066,-0.168 0.195,0.195 0 0 0 -0.155,-0.078 h -0.519 a 0.18,0.18 0 0 0 -0.149,0.078 0.27,0.27 0 0 0 -0.059,0.168 v 0.144 c 0,0.156 0.052,0.257 0.156,0.301 l 0.973,0.402 c 0.348,0.144 0.522,0.396 0.522,0.756 v 0.437 z m 2.683,0.841 h -0.721 v -0.315 l -0.651,-1.24 -0.249,0.301 v 1.253 h -0.703 v -3.717 h 0.703 v 1.381 l 0.9,-1.087 v -0.295 h 0.721 v 0.507 l -0.887,1.07 0.887,1.671 z m 4.767,-0.841 c 0,0.249 -0.09,0.456 -0.27,0.625 a 0.916,0.916 0 0 1 -0.648,0.252 h -0.523 a 0.904,0.904 0 0 1 -0.634,-0.246 0.833,0.833 0 0 1 -0.279,-0.606 l 0.703,-0.18 v 0.154 c 0,0.063 0.02,0.12 0.06,0.171 0.04,0.051 0.089,0.077 0.149,0.077 h 0.519 a 0.196,0.196 0 0 0 0.158,-0.077 0.267,0.267 0 0 0 0.063,-0.173 v -0.262 c 0,-0.151 -0.054,-0.25 -0.162,-0.298 l -0.96,-0.404 c -0.352,-0.147 -0.528,-0.4 -0.528,-0.756 v -0.318 c 0,-0.245 0.09,-0.452 0.27,-0.621 a 0.905,0.905 0 0 1 0.643,-0.255 h 0.523 c 0.244,0 0.456,0.082 0.636,0.246 0.18,0.164 0.274,0.368 0.282,0.613 l -0.702,0.174 v -0.156 a 0.255,0.255 0 0 0 -0.066,-0.168 0.195,0.195 0 0 0 -0.155,-0.078 h -0.519 a 0.18,0.18 0 0 0 -0.149,0.078 0.27,0.27 0 0 0 -0.06,0.168 v 0.144 c 0,0.156 0.052,0.257 0.156,0.301 l 0.973,0.402 c 0.348,0.144 0.522,0.396 0.522,0.756 v 0.437 z m 2.529,-2.395 -0.781,1.458 v 1.777 h -0.69 v -1.765 l -0.781,-1.471 v -0.481 h 0.715 v 0.33 l 0.408,0.859 0.414,-0.859 v -0.33 h 0.715 z m 2.629,2.395 c 0,0.249 -0.09,0.456 -0.27,0.625 a 0.916,0.916 0 0 1 -0.648,0.252 h -0.523 a 0.904,0.904 0 0 1 -0.634,-0.246 0.833,0.833 0 0 1 -0.279,-0.606 l 0.703,-0.18 v 0.154 c 0,0.063 0.02,0.12 0.06,0.171 0.04,0.051 0.089,0.077 0.149,0.077 h 0.519 a 0.196,0.196 0 0 0 0.158,-0.077 0.267,0.267 0 0 0 0.063,-0.173 v -0.262 c 0,-0.151 -0.054,-0.25 -0.162,-0.298 l -0.961,-0.404 c -0.352,-0.147 -0.528,-0.4 -0.528,-0.756 v -0.318 c 0,-0.245 0.09,-0.452 0.27,-0.621 a 0.905,0.905 0 0 1 0.643,-0.255 h 0.523 c 0.244,0 0.456,0.082 0.636,0.246 0.18,0.164 0.274,0.368 0.282,0.613 l -0.702,0.174 v -0.156 a 0.255,0.255 0 0 0 -0.066,-0.168 0.197,0.197 0 0 0 -0.155,-0.078 h -0.519 a 0.18,0.18 0 0 0 -0.149,0.078 0.27,0.27 0 0 0 -0.06,0.168 v 0.144 c 0,0.156 0.052,0.257 0.156,0.301 l 0.973,0.402 c 0.348,0.144 0.522,0.396 0.522,0.756 v 0.437 z m 2.6,-2.245 h -0.817 v 3.086 h -0.702 v -3.086 h -0.805 v -0.631 h 2.324 z m 2.629,3.086 h -2.359 v -3.717 h 2.252 v 0.631 h -1.549 v 0.919 h 1.129 v 0.63 h -1.129 v 0.907 h 1.657 v 0.63 z m 2.715,0 h -0.702 v -1.693 l -0.234,0.786 h -0.48 l -0.234,-0.786 v 1.693 h -0.703 v -3.717 h 0.699 l 0.476,1.669 0.476,-1.669 h 0.702 z"
         id="path118"
         inkscape:connector-curvature="0" />
    </g>
    <path
       d="m 287.997,259.675 h 30.832 v 4.394 h -30.832 z"
       id="path122"
       inkscape:connector-curvature="0"
       style="fill:#ffffff" />
    <g
       id="g126"
       style="fill:#1d1d1b">
      <path
         d="m 289.789,263.291 v -2.836 h 0.61 v 1.164 h 2.395 v -1.164 h 0.61 v 2.836 h -0.61 v -1.337 h -2.395 v 1.337 z m 5.945,0 -1.785,-2.836 h 0.66 l 1.197,2.06 c 0.096,0.165 0.177,0.32 0.242,0.464 0.071,-0.155 0.154,-0.309 0.248,-0.464 l 1.244,-2.06 h 0.622 l -1.804,2.836 z m 6.264,-0.994 0.61,0.095 c -0.128,0.308 -0.358,0.543 -0.69,0.705 -0.332,0.162 -0.738,0.243 -1.218,0.243 -0.497,0 -0.9,-0.062 -1.212,-0.187 a 1.512,1.512 0 0 1 -0.71,-0.541 1.317,1.317 0 0 1 -0.243,-0.76 c 0,-0.295 0.092,-0.553 0.275,-0.773 0.183,-0.22 0.444,-0.387 0.783,-0.501 a 3.48,3.48 0 0 1 1.117,-0.171 c 0.461,0 0.848,0.072 1.163,0.217 0.314,0.144 0.533,0.348 0.657,0.609 l -0.6,0.087 a 0.978,0.978 0 0 0 -0.465,-0.451 c -0.203,-0.094 -0.459,-0.141 -0.767,-0.141 -0.354,0 -0.65,0.052 -0.888,0.157 -0.238,0.105 -0.405,0.245 -0.501,0.421 a 1.126,1.126 0 0 0 -0.145,0.544 c 0,0.241 0.057,0.452 0.171,0.632 0.114,0.18 0.292,0.314 0.533,0.403 0.241,0.089 0.502,0.133 0.783,0.133 0.341,0 0.631,-0.061 0.867,-0.182 a 0.943,0.943 0 0 0 0.48,-0.539 z m 1.068,0.143 v -0.35 h 1.738 v 0.35 z m 2.251,-0.53 c 0,-0.471 0.205,-0.839 0.616,-1.105 0.411,-0.266 0.941,-0.399 1.59,-0.399 0.425,0 0.809,0.063 1.15,0.188 0.341,0.125 0.602,0.299 0.781,0.523 0.179,0.224 0.269,0.477 0.269,0.761 0,0.288 -0.094,0.545 -0.283,0.772 -0.189,0.227 -0.456,0.399 -0.801,0.515 -0.345,0.116 -0.719,0.175 -1.119,0.175 -0.434,0 -0.821,-0.065 -1.163,-0.193 -0.341,-0.129 -0.6,-0.305 -0.776,-0.528 a 1.13,1.13 0 0 1 -0.264,-0.709 z m 0.628,0.006 c 0,0.342 0.149,0.611 0.448,0.808 0.298,0.197 0.673,0.295 1.124,0.295 0.459,0 0.836,-0.099 1.133,-0.298 a 0.96,0.96 0 0 0 0.445,-0.845 0.988,0.988 0 0 0 -0.19,-0.604 1.21,1.21 0 0 0 -0.556,-0.4 2.25,2.25 0 0 0 -0.822,-0.142 c -0.432,0 -0.803,0.091 -1.114,0.274 -0.312,0.18 -0.468,0.485 -0.468,0.912 z m 7.307,1.04 v 0.335 h -3.045 a 0.415,0.415 0 0 1 0.066,-0.242 c 0.077,-0.128 0.202,-0.253 0.372,-0.377 a 5.6,5.6 0 0 1 0.74,-0.429 c 0.501,-0.253 0.839,-0.453 1.015,-0.601 0.176,-0.148 0.264,-0.287 0.264,-0.419 0,-0.138 -0.08,-0.254 -0.24,-0.349 -0.16,-0.095 -0.369,-0.142 -0.627,-0.142 -0.272,0 -0.49,0.05 -0.654,0.151 a 0.476,0.476 0 0 0 -0.248,0.418 l -0.581,-0.037 c 0.04,-0.267 0.19,-0.47 0.449,-0.61 0.259,-0.14 0.609,-0.21 1.047,-0.21 0.442,0 0.792,0.076 1.05,0.226 0.258,0.151 0.387,0.338 0.387,0.561 a 0.59,0.59 0 0 1 -0.113,0.335 c -0.076,0.11 -0.201,0.225 -0.376,0.346 a 8.888,8.888 0 0 1 -0.872,0.499 9.74,9.74 0 0 0 -0.654,0.357 1.454,1.454 0 0 0 -0.239,0.189 h 2.259 z m 3.579,0 v 0.335 h -3.045 a 0.415,0.415 0 0 1 0.066,-0.242 c 0.078,-0.128 0.202,-0.253 0.372,-0.377 0.171,-0.124 0.417,-0.267 0.74,-0.429 0.501,-0.253 0.839,-0.453 1.015,-0.601 0.176,-0.148 0.264,-0.287 0.264,-0.419 0,-0.138 -0.08,-0.254 -0.24,-0.349 -0.16,-0.095 -0.369,-0.142 -0.627,-0.142 -0.272,0 -0.49,0.05 -0.654,0.151 a 0.474,0.474 0 0 0 -0.248,0.418 l -0.581,-0.037 c 0.04,-0.267 0.19,-0.47 0.449,-0.61 0.259,-0.14 0.609,-0.21 1.047,-0.21 0.442,0 0.792,0.076 1.05,0.226 0.258,0.151 0.387,0.338 0.387,0.561 a 0.59,0.59 0 0 1 -0.113,0.335 1.45,1.45 0 0 1 -0.376,0.346 8.888,8.888 0 0 1 -0.872,0.499 9.74,9.74 0 0 0 -0.654,0.357 1.454,1.454 0 0 0 -0.239,0.189 h 2.259 z"
         id="path124"
         inkscape:connector-curvature="0" />
    </g>
    <path
       d="m 257.319,203.216 h 23.297 c 1.804,0 3.28,1.458 3.28,3.24 v 30.148 c 0,1.782 -1.476,3.239 -3.28,3.239 h -23.297 m 22.897,12.652 H 256.95 a 0.644,0.644 0 0 1 -0.642,-0.642 c 0,-0.353 0.289,-0.642 0.642,-0.642 h 23.266 c 0.353,0 0.642,0.289 0.642,0.642 a 0.643,0.643 0 0 1 -0.642,0.642 z"
       id="path128"
       inkscape:connector-curvature="0"
       style="fill:#666666" />
    <path
       d="m 257.319,204.361 h 21.983 c 1.702,0 3.095,0.851 3.095,2.522 v 28.779 c 0,1.67 -0.791,3.037 -2.493,3.037 H 257.32"
       id="path130"
       inkscape:connector-curvature="0"
       style="fill:#3c3c3b" />
    <path
       d="m 280.339,257.212 h -23.266 a 0.644,0.644 0 0 1 -0.642,-0.642 c 0,-0.353 0.289,-0.642 0.642,-0.642 h 23.266 c 0.353,0 0.642,0.289 0.642,0.642 a 0.644,0.644 0 0 1 -0.642,0.642 z m -0.123,4.675 H 256.95 a 0.644,0.644 0 0 1 -0.642,-0.642 c 0,-0.353 0.289,-0.642 0.642,-0.642 h 23.266 c 0.353,0 0.642,0.289 0.642,0.642 a 0.644,0.644 0 0 1 -0.642,0.642 z m 187.028,-9.38 h -57.068 a 0.649,0.649 0 0 1 -0.647,-0.647 c 0,-0.356 0.291,-0.647 0.647,-0.647 h 57.068 c 0.356,0 0.647,0.291 0.647,0.647 a 0.649,0.649 0 0 1 -0.647,0.647 z m -0.007,4.71 h -57.068 a 0.649,0.649 0 0 1 -0.647,-0.647 c 0,-0.356 0.291,-0.647 0.647,-0.647 h 57.068 a 0.65,0.65 0 0 1 0.648,0.647 0.649,0.649 0 0 1 -0.648,0.647 z m 0,4.676 h -57.068 a 0.649,0.649 0 0 1 -0.647,-0.647 c 0,-0.356 0.291,-0.647 0.647,-0.647 h 57.068 a 0.65,0.65 0 0 1 0.648,0.647 0.65,0.65 0 0 1 -0.648,0.647 z"
       id="path132"
       inkscape:connector-curvature="0"
       style="fill:#666666" />
  </g>
</svg>
