<?xml version="1.0" encoding="UTF-8" standalone="no"?>
<svg
   xmlns:dc="http://purl.org/dc/elements/1.1/"
   xmlns:cc="http://creativecommons.org/ns#"
   xmlns:rdf="http://www.w3.org/1999/02/22-rdf-syntax-ns#"
   xmlns:svg="http://www.w3.org/2000/svg"
   xmlns="http://www.w3.org/2000/svg"
   xmlns:sodipodi="http://sodipodi.sourceforge.net/DTD/sodipodi-0.dtd"
   xmlns:inkscape="http://www.inkscape.org/namespaces/inkscape"
   width="88.555862"
   height="200"
   version="1.1"
   id="svg35"
   sodipodi:docname="controller.svg"
   inkscape:version="0.92.4 5da689c313, 2019-01-14">
  <metadata
     id="metadata39">
    <rdf:RDF>
      <cc:Work
         rdf:about="">
        <dc:format>image/svg+xml</dc:format>
        <dc:type
           rdf:resource="http://purl.org/dc/dcmitype/StillImage" />
      </cc:Work>
    </rdf:RDF>
  </metadata>
  <sodipodi:namedview
     pagecolor="#ffffff"
     bordercolor="#666666"
     borderopacity="1"
     objecttolerance="10"
     gridtolerance="10"
     guidetolerance="10"
     inkscape:pageopacity="0"
     inkscape:pageshadow="2"
     inkscape:window-width="640"
     inkscape:window-height="480"
     id="namedview37"
     showgrid="false"
     inkscape:zoom="1.18"
     inkscape:cx="44.277931"
     inkscape:cy="99.999999"
     inkscape:window-x="0"
     inkscape:window-y="0"
     inkscape:window-maximized="0"
     inkscape:current-layer="svg35">
    <inkscape:grid
       type="xygrid"
       id="grid846"
       originx="-4.9897997e-08"
       originy="-1.149898e-06" />
  </sodipodi:namedview>
  <defs
     id="defs5">
    <clipPath
       id="a">
      <path
         d="M 0,372.669 H 168.169 V 0 H 0 Z"
         id="path2"
         inkscape:connector-curvature="0" />
    </clipPath>
  </defs>
  <g
     clip-path="url(#a)"
     transform="matrix(0.54495913,0,0,-0.54495913,-1.5447411,201.54474)"
     id="g33">
    <path
       d="m 165.3346,22.8346 v 327 c 0,11 -9,20 -20,20 h -122.5 c -11,0 -20,-9 -20,-20 v -327 c 0,-11 9,-20 20,-20 h 122.5 c 11,0 20,9 20,20"
       id="path7"
       inkscape:connector-curvature="0"
       style="fill:#63242b" />
    <path
       d="m 157.3346,24.8971 v 320.437 c 0,11 -9,20 -20,20 h -113.5 c -11,0 -20,-9 -20,-20 V 27.3351 c 0,-11.001 9,-20 20,-20 h 113.5 c 11,0 20,10.666 20,17.562"
       id="path9"
       inkscape:connector-curvature="0"
       style="fill:#ae2740" />
    <path
       d="m 88.668,20.7513 v 198.833 c 0,2.875 2.792,2.5 2.792,2.5 h 47.208 c 2.2,0 4,1.8 4,4 v 124.667 c 0,2.2 -1.8,4 -4,4 h -120 c -2.2,0 -4,-1.8 -4,-4 v -330 c 0,-2.2 1.8,-4 4,-4 h 66 c 2.2,0 4,1.8 4,4"
       id="path11"
       inkscape:connector-curvature="0"
       style="fill:#cbb48f" />
    <path
       d="m 40.835,354.835 h 3 V 16.918 h -3 z m -7.167,0 h 3 V 16.918 h -3 z"
       id="path13"
       inkscape:connector-curvature="0"
       style="fill:#444443" />
    <path
       d="m 27.3346,163.7513 v 66 c 0,10.45 8.55,19 19,19 10.45,0 19,-8.55 19,-19 v -66 c 0,-10.45 -8.55,-19 -19,-19 -10.45,0 -19,8.55 -19,19 m 19.25,-76.8334 c -11.69,0 -21.167,9.477 -21.167,21.167 0,11.69 9.477,21.166 21.167,21.166 11.69,0 21.167,-9.476 21.167,-21.166 0,-11.69 -9.477,-21.167 -21.167,-21.167 m 0,-49.0833 c -11.874,0 -21.5,9.626 -21.5,21.5 0,11.874 9.626,21.5 21.5,21.5 11.874,0 21.5,-9.626 21.5,-21.5 0,-11.874 -9.626,-21.5 -21.5,-21.5"
       id="path15"
       inkscape:connector-curvature="0"
       style="fill:#ae2740" />
    <path
       d="m 46.5846,89.5846 c -10.217,0 -18.5,8.283 -18.5,18.5 0,10.217 8.283,18.5 18.5,18.5 10.217,0 18.5,-8.283 18.5,-18.5 0,-10.217 -8.283,-18.5 -18.5,-18.5 m 0,-48.75 c -10.217,0 -18.5,8.283 -18.5,18.5 0,10.217 8.283,18.5 18.5,18.5 10.217,0 18.5,-8.283 18.5,-18.5 0,-10.217 -8.283,-18.5 -18.5,-18.5"
       id="path17"
       inkscape:connector-curvature="0"
       style="fill:#444443" />
    <path
       d="m 77.4596,268.5011 v 18.167 h 19.25 c 1.1,0 2,0.9 2,2 v 28.666 c 0,1.1 -0.9,2 -2,2 h -19.25 v 18.167 c 0,1.1 -0.9,2 -2,2 h -26.833 c -1.1,0 -2,-0.9 -2,-2 v -18.167 h -19.25 c -1.1,0 -2,-0.9 -2,-2 v -28.666 c 0,-1.1 0.9,-2 2,-2 h 19.25 v -18.167 c 0,-1.1 0.9,-2 2,-2 h 26.833 c 1.1,0 2,0.9 2,2"
       id="path19"
       inkscape:connector-curvature="0"
       style="fill:#ae2740" />
    <path
       d="m 72.4596,271.5013 v 20.167 h 21.25 v 22.666 h -21.25 v 20.167 h -20.833 v -20.167 h -21.25 v -22.666 h 21.25 v -20.167 z m -30.4583,-60.25 v 19.333 c 0,2.475 2.025,4.5 4.5,4.5 2.475,0 4.5,-2.025 4.5,-4.5 v -19.333 c 0,-2.475 -2.025,-4.5 -4.5,-4.5 -2.475,0 -4.5,2.025 -4.5,4.5 m 0,-48 v 19.333 c 0,2.475 2.025,4.5 4.5,4.5 2.475,0 4.5,-2.025 4.5,-4.5 v -19.333 c 0,-2.475 -2.025,-4.5 -4.5,-4.5 -2.475,0 -4.5,2.025 -4.5,4.5 m 34.9544,-57.7006 c 0.082,0.281 0.123,0.893 0.123,1.834 v 1.669 h -2.297 v -1.914 c 0,-0.745 0.018,-1.218 0.053,-1.418 0.047,-0.308 0.161,-0.558 0.343,-0.751 0.181,-0.193 0.424,-0.29 0.729,-0.29 0.258,0 0.477,0.074 0.656,0.224 0.18,0.149 0.311,0.364 0.393,0.646 m 1.582,0.6455 c 0.035,-0.354 0.138,-0.632 0.308,-0.835 0.17,-0.202 0.393,-0.304 0.671,-0.304 0.265,0 0.481,0.088 0.647,0.263 0.166,0.174 0.267,0.434 0.302,0.778 0.019,0.205 0.029,0.794 0.029,1.768 v 1.187 h -1.986 v -1.355 c 0,-0.806 0.009,-1.306 0.029,-1.502"
       id="path21"
       inkscape:connector-curvature="0"
       style="fill:#444443" />
    <path
       d="m 74.6852,102.8681 c -0.369,0.216 -0.664,0.512 -0.885,0.887 -0.22,0.375 -0.356,0.837 -0.407,1.386 -0.031,0.345 -0.051,1.176 -0.059,2.495 v 3.486 h 8.59 v -4.094 c 0,-0.81 -0.028,-1.415 -0.085,-1.813 -0.056,-0.399 -0.175,-0.754 -0.354,-1.069 -0.18,-0.314 -0.419,-0.576 -0.718,-0.786 -0.299,-0.21 -0.634,-0.314 -1.005,-0.314 -0.402,0 -0.771,0.129 -1.107,0.387 -0.336,0.259 -0.588,0.61 -0.756,1.052 -0.152,-0.624 -0.412,-1.104 -0.779,-1.439 -0.368,-0.335 -0.799,-0.503 -1.295,-0.503 -0.391,0 -0.771,0.108 -1.14,0.325 m 8.566,-0.577 v 11.083 c 0,3.14 -2.569,5.708 -5.708,5.708 -3.14,0 -5.709,-2.568 -5.709,-5.708 v -11.083 c 0,-3.14 2.569,-5.709 5.709,-5.709 3.139,0 5.708,2.569 5.708,5.709 M 76.733,60.2428 v -2.795 l 3.188,1.412 z"
       id="path23"
       inkscape:connector-curvature="0"
       style="fill:#444443" />
    <path
       d="m 73.3346,55.8903 1.951,0.895 v 4.093 l -1.951,0.846 v 2.193 l 8.59,-3.989 v -2.186 l -8.59,-4.101 z m 9.917,-2.097 v 11.083 c 0,3.14 -2.569,5.708 -5.709,5.708 -3.139,0 -5.708,-2.568 -5.708,-5.708 v -11.083 c 0,-3.14 2.569,-5.709 5.708,-5.709 3.14,0 5.709,2.569 5.709,5.709 m 35.917,282.7296 c -0.142,-0.264 -0.289,-0.755 -0.439,-1.473 -0.039,-0.189 -0.189,-0.283 -0.454,-0.283 -0.113,0 -0.264,0.019 -0.453,0.056 0.038,0.586 0.071,1.172 0.099,1.757 0.029,0.585 0.043,1.143 0.043,1.671 0,0.51 -0.014,1.072 -0.043,1.686 -0.028,0.613 -0.061,1.194 -0.099,1.741 0.189,0.038 0.34,0.057 0.453,0.057 0.265,0 0.415,-0.094 0.454,-0.283 0.131,-0.718 0.273,-1.208 0.425,-1.473 0.151,-0.265 0.415,-0.397 0.793,-0.397 h 14.418 c 0.378,0 0.647,0.132 0.807,0.397 0.161,0.265 0.298,0.755 0.411,1.473 0.019,0.113 0.075,0.189 0.17,0.226 0.094,0.038 0.198,0.057 0.311,0.057 0.114,0 0.265,-0.019 0.454,-0.057 -0.038,-0.566 -0.071,-1.156 -0.1,-1.77 -0.028,-0.614 -0.042,-1.166 -0.042,-1.657 0,-0.472 0.014,-1.015 0.042,-1.629 0.029,-0.613 0.062,-1.213 0.1,-1.799 -0.189,-0.037 -0.34,-0.056 -0.454,-0.056 -0.283,0 -0.443,0.094 -0.481,0.283 -0.113,0.718 -0.25,1.209 -0.411,1.473 -0.16,0.265 -0.429,0.396 -0.807,0.396 h -14.418 c -0.378,0 -0.637,-0.131 -0.779,-0.396 m 20.166,14.394 h -25.333 v -25.333 h 25.333 z"
       id="path25"
       inkscape:connector-curvature="0"
       style="fill:#444443" />
    <path
       d="m 62.0431,294.0846 c -4.925,0 -8.917,3.992 -8.917,8.917 0,4.924 3.992,8.916 8.917,8.916 4.925,0 8.917,-3.992 8.917,-8.916 0,-4.925 -3.992,-8.917 -8.917,-8.917"
       id="path27"
       inkscape:connector-curvature="0"
       style="fill:#383737" />
    <path
       d="m 89.7513,302.8923 -6.093,7.319 v -1.522 h -7.246 v -11.594 h 7.246 v -1.305 z"
       id="path29"
       inkscape:connector-curvature="0"
       style="fill:#2b2b2a" />
    <path
       d="m 89.7513,302.8923 -6.093,7.319 v -1.522 h -7.246 v -11.594 h 7.246 v -1.305 z m -27.5992,27.8172 -7.319,-6.093 h 1.522 v -7.246 h 11.594 v 7.246 h 1.305 z m -27.8172,-27.5992 6.093,-7.319 v 1.522 h 7.246 v 11.594 h -7.246 v 1.305 z m 27.5992,-27.8172 7.319,6.093 h -1.522 v 7.246 h -11.594 v -7.246 h -1.305 z"
       id="path31"
       inkscape:connector-curvature="0"
       style="fill:#383737" />
  </g>
</svg>
