<?xml version="1.0" encoding="UTF-8" standalone="no"?>
<svg
   xmlns:dc="http://purl.org/dc/elements/1.1/"
   xmlns:cc="http://creativecommons.org/ns#"
   xmlns:rdf="http://www.w3.org/1999/02/22-rdf-syntax-ns#"
   xmlns:svg="http://www.w3.org/2000/svg"
   xmlns="http://www.w3.org/2000/svg"
   xmlns:sodipodi="http://sodipodi.sourceforge.net/DTD/sodipodi-0.dtd"
   xmlns:inkscape="http://www.inkscape.org/namespaces/inkscape"
   width="30"
   height="30"
   version="1.1"
   id="svg56"
   sodipodi:docname="icon_filled.svg"
   inkscape:version="0.92.4 5da689c313, 2019-01-14">
  <metadata
     id="metadata62">
    <rdf:RDF>
      <cc:Work
         rdf:about="">
        <dc:format>image/svg+xml</dc:format>
        <dc:type
           rdf:resource="http://purl.org/dc/dcmitype/StillImage" />
      </cc:Work>
    </rdf:RDF>
  </metadata>
  <defs
     id="defs60" />
  <sodipodi:namedview
     pagecolor="#ffffff"
     bordercolor="#666666"
     borderopacity="1"
     objecttolerance="10"
     gridtolerance="10"
     guidetolerance="10"
     inkscape:pageopacity="0"
     inkscape:pageshadow="2"
     inkscape:window-width="640"
     inkscape:window-height="480"
     id="namedview58"
     showgrid="false"
     inkscape:zoom="7.8666667"
     inkscape:cx="15"
     inkscape:cy="15"
     inkscape:window-x="0"
     inkscape:window-y="0"
     inkscape:window-maximized="0"
     inkscape:current-layer="svg56">
    <inkscape:grid
       type="xygrid"
       id="grid869" />
  </sodipodi:namedview>
  <g
     transform="translate(-142.66415,-436.06882)"
     id="g54">
    <g
       fill="navy"
       transform="matrix(0.15838515,0,0,0.16112487,83.937418,432.67884)"
       id="g10">
      <rect
         width="48.999439"
         height="17.000414"
         x="488.00031"
         y="96.999611"
         rx="4.793365"
         ry="4.7118592"
         id="rect2" />
      <rect
         width="5.5463147"
         height="5.5216117"
         x="488.00003"
         y="96.999969"
         rx="4.0127273"
         ry="0"
         id="rect4" />
      <rect
         width="5.5463147"
         height="5.5216117"
         x="488"
         y="108.47839"
         rx="4.0127273"
         ry="0"
         id="rect6" />
      <rect
         width="5.5463147"
         height="5.5216117"
         x="531.45367"
         y="108.47839"
         rx="4.0127273"
         ry="0"
         id="rect8" />
    </g>
    <g
       fill="navy"
       transform="matrix(0.15838515,0,0,-0.16112139,83.937419,470.02362)"
       id="g20">
      <rect
         width="48.999439"
         height="17.000414"
         x="488.00031"
         y="96.999611"
         rx="4.7933645"
         ry="4.7119613"
         id="rect12" />
      <rect
         width="5.5463147"
         height="5.5216117"
         x="488.00003"
         y="96.999969"
         rx="4.0127273"
         ry="0"
         id="rect14" />
      <rect
         width="5.5463147"
         height="5.5216117"
         x="488"
         y="108.47839"
         rx="4.0127273"
         ry="0"
         id="rect16" />
      <rect
         width="5.5463147"
         height="5.5216117"
         x="531.45367"
         y="108.47839"
         rx="4.0127273"
         ry="0"
         id="rect18" />
    </g>
    <g
       fill="maroon"
       transform="matrix(-0.15838517,0,0,-0.1611214,229.3909,470.02362)"
       id="g30">
      <rect
         width="48.999439"
         height="17.000414"
         x="488.00031"
         y="96.999611"
         rx="4.7933645"
         ry="4.7119608"
         id="rect22" />
      <rect
         width="5.5463147"
         height="5.5216117"
         x="488.00003"
         y="96.999969"
         rx="4.0127273"
         ry="0"
         id="rect24" />
      <rect
         width="5.5463147"
         height="5.5216117"
         x="488"
         y="108.47839"
         rx="4.0127273"
         ry="0"
         id="rect26" />
      <rect
         width="5.5463147"
         height="5.5216117"
         x="531.45367"
         y="108.47839"
         rx="4.0127273"
         ry="0"
         id="rect28" />
    </g>
    <g
       fill="maroon"
       transform="matrix(-0.15838517,0,0,0.1611251,229.3909,432.67881)"
       id="g40">
      <rect
         width="48.999439"
         height="17.000414"
         x="488.00031"
         y="96.999611"
         rx="4.7933645"
         ry="4.7118526"
         id="rect32" />
      <rect
         width="5.5463147"
         height="5.5216117"
         x="488.00003"
         y="96.999969"
         rx="4.0127273"
         ry="0"
         id="rect34" />
      <rect
         width="5.5463147"
         height="5.5216117"
         x="488"
         y="108.47839"
         rx="4.0127273"
         ry="0"
         id="rect36" />
      <rect
         width="5.5463147"
         height="5.5216117"
         x="531.45367"
         y="108.47839"
         rx="4.0127273"
         ry="0"
         id="rect38" />
    </g>
    <g
       fill="green"
       transform="matrix(-0.15826257,0,0,0.16112518,237.69465,432.6788)"
       id="g50">
      <rect
         width="49.999466"
         height="17.000399"
         x="487.00055"
         y="96.999619"
         rx="0"
         ry="4.7118502"
         id="rect42" />
      <rect
         width="5.5463147"
         height="5.5216117"
         x="488.00003"
         y="96.999969"
         rx="4.0158353"
         ry="0"
         id="rect44" />
      <rect
         width="5.5463147"
         height="5.5216117"
         x="488"
         y="108.47839"
         rx="4.0158353"
         ry="0"
         id="rect46" />
      <rect
         width="5.5463147"
         height="5.5216117"
         x="531.45367"
         y="108.47839"
         rx="4.0158353"
         ry="0"
         id="rect48" />
    </g>
    <rect
       width="7.9130435"
       height="2.7391307"
       x="-160.62067"
       y="451.65576"
       fill="green"
       rx="0"
       ry=".75919771"
       transform="scale(-1,1)"
       id="rect52" />
  </g>
</svg>
