<?xml version="1.0" encoding="UTF-8" standalone="no"?>
<svg
   xmlns:dc="http://purl.org/dc/elements/1.1/"
   xmlns:cc="http://creativecommons.org/ns#"
   xmlns:rdf="http://www.w3.org/1999/02/22-rdf-syntax-ns#"
   xmlns:svg="http://www.w3.org/2000/svg"
   xmlns="http://www.w3.org/2000/svg"
   xmlns:sodipodi="http://sodipodi.sourceforge.net/DTD/sodipodi-0.dtd"
   xmlns:inkscape="http://www.inkscape.org/namespaces/inkscape"
   width="403"
   height="68.465027"
   version="1.1"
   id="svg79"
   sodipodi:docname="logo.svg"
   inkscape:version="0.92.4 5da689c313, 2019-01-14">
  <metadata
     id="metadata83">
    <rdf:RDF>
      <cc:Work
         rdf:about="">
        <dc:format>image/svg+xml</dc:format>
        <dc:type
           rdf:resource="http://purl.org/dc/dcmitype/StillImage" />
      </cc:Work>
    </rdf:RDF>
  </metadata>
  <sodipodi:namedview
     pagecolor="#ffffff"
     bordercolor="#666666"
     borderopacity="1"
     objecttolerance="10"
     gridtolerance="10"
     guidetolerance="10"
     inkscape:pageopacity="0"
     inkscape:pageshadow="2"
     inkscape:window-width="640"
     inkscape:window-height="480"
     id="namedview81"
     showgrid="false"
     inkscape:zoom="0.6775"
     inkscape:cx="200"
     inkscape:cy="34.232511"
     inkscape:window-x="0"
     inkscape:window-y="0"
     inkscape:window-maximized="0"
     inkscape:current-layer="svg79" />
  <defs
     id="defs5">
    <clipPath
       id="a">
      <path
         d="M 0,64.592 H 377.368 V 0 H 0 Z"
         id="path2"
         inkscape:connector-curvature="0" />
    </clipPath>
  </defs>
  <g
     clip-path="url(#a)"
     transform="matrix(1.0599742,0,0,-1.0599742,-3.2890425e-4,68.465342)"
     id="g77">
    <path
       d="m 5.8396,12.7202 c 0,10.538 0,21.075 0.001,31.613 0.496,0.503 1.141,0.54 1.783,0.541 8.788,0.017 17.576,0.027 26.365,-0.004 0.373,-10e-4 0.744,-0.038 1.1,-0.148 1.225,-0.684 0.239,-1.275 -0.169,-1.718 -2.206,-2.394 -3.819,-5.107 -4.715,-8.243 -2.155,-7.544 -0.713,-14.313 4.366,-20.299 0.309,-0.364 0.673,-0.683 0.909,-1.109 0.254,-0.459 0.196,-0.809 -0.344,-0.998 -0.62,-0.204 -1.26,-0.184 -1.895,-0.185 -8.33,-0.006 -16.659,-0.008 -24.988,0.003 -0.837,0.001 -1.719,-0.117 -2.413,0.547 m 83.4697,31.6119 v -31.609 c -0.448,-0.459 -1.029,-0.533 -1.621,-0.535 -7.021,-0.021 -14.043,-0.049 -21.064,0.014 -0.267,0.002 -0.529,0.052 -0.783,0.124 -1.029,0.419 -0.484,1.006 -0.086,1.462 0.835,0.956 1.674,1.903 2.385,2.96 1.65,2.452 2.658,5.151 3.201,8.046 0.153,0.819 0.155,1.696 0.699,2.405 0.408,0.293 0.89,0.298 1.362,0.32 0.68,0.033 1.1,0.298 1.079,1.052 -0.018,0.671 -0.402,0.916 -1.011,0.957 -0.471,0.031 -0.953,0.025 -1.379,0.288 -0.565,0.578 -0.555,1.359 -0.681,2.07 -0.743,4.221 -2.489,7.935 -5.4,11.106 -0.398,0.432 -1.398,0.993 -0.213,1.715 0.625,0.195 1.267,0.174 1.905,0.175 6.395,0.006 12.789,0.009 19.184,-0.003 0.839,-0.002 1.726,0.122 2.423,-0.547"
       id="path7"
       inkscape:connector-curvature="0"
       style="fill:#2b2321" />
    <path
       d="m 89.3093,44.3321 c -7.971,0.009 -15.942,0.018 -23.914,0.028 -0.489,-0.239 -0.818,0.098 -1.133,0.358 -2.893,2.389 -6.174,3.948 -9.848,4.716 -0.364,0.076 -1.529,-0.045 -0.611,0.972 2.272,0.447 4.568,0.141 6.851,0.202 2.22,0.06 2.266,0.063 2.274,2.213 0.005,1.332 -0.015,2.665 0.002,3.997 0.013,0.985 -0.366,1.468 -1.405,1.467 -5.436,-0.007 -10.872,0.002 -16.308,-0.006 -0.873,-10e-4 -1.43,-0.312 -1.502,-1.256 -0.077,-1.012 -0.667,-1.522 -1.65,-1.613 -0.754,-0.07 -1.146,-0.489 -1.215,-1.231 -0.093,-0.994 -0.636,-1.524 -1.63,-1.648 -0.611,-0.076 -1.178,-0.275 -1.125,-1.066 0.057,-0.847 0.735,-0.812 1.303,-0.827 1.811,-0.048 3.624,-0.007 5.436,-0.023 0.743,-0.006 1.495,0.066 2.218,-0.182 1.038,-0.871 -0.094,-0.89 -0.468,-1.01 -1.257,-0.401 -2.566,-0.611 -3.804,-1.109 -2.029,-0.815 -3.917,-1.843 -5.608,-3.244 -0.454,-0.377 -0.896,-0.957 -1.65,-0.708 -9.894,-0.01 -19.788,-0.02 -29.682,-0.029 -0.018,0.961 -0.037,1.922 -0.055,2.882 -0.624,0.982 -0.61,1.976 -0.061,2.981 0.801,0.58 1.732,0.427 2.622,0.429 6.914,0.015 13.828,0.035 20.741,-0.015 1.428,-0.011 2.24,0.406 2.269,1.906 0.046,0.175 0.125,0.339 0.227,0.488 0.15,0.145 0.333,0.312 0.534,0.296 1.761,-0.141 2.201,0.938 2.246,2.395 0.067,0.152 0.171,0.274 0.307,0.368 0.232,0.127 0.488,0.226 0.746,0.205 1.308,-0.109 1.785,0.552 1.706,1.773 -0.014,0.207 0.071,0.409 0.153,0.604 0.078,0.147 0.19,0.259 0.334,0.34 1.889,-0.145 2.408,1.148 2.753,2.624 0.953,0.022 1.905,0.044 2.857,0.066 0.982,0.622 1.964,0.627 2.945,-0.004 2.859,0.002 5.717,0.003 8.576,0.005 0.983,0.622 1.966,0.625 2.948,-0.003 4.779,0.001 9.558,0.001 14.337,0.001 3.863,0.81 7.726,0.809 11.59,0 0.424,-0.006 0.856,-0.065 1.271,-0.009 1.232,0.169 1.792,-0.282 1.581,-1.562 -0.172,-1.044 0.295,-1.496 1.331,-1.326 1.297,0.212 1.648,-0.374 1.566,-1.595 -0.092,-1.373 -0.007,-2.757 0,-4.136 0.752,-1.944 0.752,-3.887 0,-5.83 z"
       id="path9"
       inkscape:connector-curvature="0"
       style="fill:#b7aba9" />
    <path
       d="m 53.4753,50.0787 c 4.49,-0.83 8.482,-2.698 11.92,-5.719 2.967,-3.178 5.268,-6.733 6.172,-11.057 0.227,-1.087 0.347,-2.197 0.517,-3.296 0.623,-0.987 0.619,-1.975 0.003,-2.963 -0.523,-5.344 -2.463,-10.033 -6.366,-13.821 -0.144,-0.139 -0.219,-0.349 -0.326,-0.527 -0.996,-1.672 -2.68,-2.538 -4.251,-3.487 -2.307,-1.395 -4.886,-2.016 -7.56,-2.253 -1.134,-0.532 -2.17,-0.57 -3.361,0.086 -0.834,0.459 -1.903,-0.353 -2.891,-0.089 -3.914,0.212 -7.297,1.764 -10.362,4.111 -0.588,0.45 -1.25,0.839 -1.457,1.632 -2.758,2.939 -5.016,6.209 -5.963,10.171 -1.877,7.849 -0.184,14.827 5.407,20.762 0.211,0.223 0.377,0.488 0.565,0.733 3.445,3.003 7.44,4.859 11.914,5.719 2.013,0.881 4.026,0.884 6.039,-0.002"
       id="path11"
       inkscape:connector-curvature="0"
       style="fill:#fdfdf9" />
    <path
       d="m 35.5131,12.6956 c 3.417,-2.99 7.39,-4.837 11.82,-5.743 -12.418,-0.009 -24.834,-0.005 -37.251,-0.054 -1.144,-0.004 -1.521,0.356 -1.409,1.454 0.075,0.733 0.168,1.638 -1.039,1.437 -1.663,-0.277 -2.047,0.542 -1.834,1.974 0.047,0.314 0.028,0.637 0.039,0.957 9.892,-0.009 19.783,-0.017 29.674,-0.025"
       id="path13"
       inkscape:connector-curvature="0"
       style="fill:#b8aaa9" />
    <path
       d="m 23.1251,58.7945 c 0.478,-0.006 0.962,0.035 1.432,-0.028 1.112,-0.147 1.594,0.287 1.41,1.408 -0.199,1.209 0.328,1.536 1.507,1.505 3.342,-0.089 6.687,-0.057 10.032,-0.073 0.65,-0.949 0.61,-1.895 -0.015,-2.837 l 0.005,0.005 c -0.164,-0.134 -0.329,-0.313 -0.539,-0.314 -1.358,-0.007 -2.026,-0.673 -2.032,-2.032 -10e-4,-0.21 -0.181,-0.375 -0.314,-0.539 l 0.004,0.004 c -0.119,-0.098 -0.243,-0.253 -0.38,-0.254 -1.498,-0.011 -2.239,-0.752 -2.251,-2.25 -0.001,-0.138 -0.155,-0.261 -0.254,-0.381 l 0.005,0.005 c -0.518,-0.469 -1.162,-0.504 -1.805,-0.505 -7.52,-0.013 -15.041,-0.025 -22.561,0.006 -0.374,0.001 -0.746,0.035 -1.106,0.152 -0.204,0.074 -0.374,0.196 -0.511,0.364 0.018,0.371 0.098,0.751 0.044,1.111 -0.207,1.366 0.258,2.005 1.714,1.764 0.722,-0.119 1.339,0.079 1.162,0.991 -0.351,1.809 0.633,2.065 2.067,1.883 0.261,-0.033 0.531,0.008 0.796,0.015 3.863,0.808 7.727,0.808 11.59,0"
       id="path15"
       inkscape:connector-curvature="0"
       style="fill:#b6aba9" />
    <path
       d="m 53.5847,6.956 c 1.209,0.335 2.42,0.665 3.627,1.006 3.131,0.881 5.679,2.771 8.184,4.734 7.971,0.009 15.942,0.018 23.914,0.027 0.01,-0.479 -0.027,-0.965 0.042,-1.436 0.179,-1.213 -0.326,-1.68 -1.509,-1.485 -1.161,0.191 -1.52,-0.366 -1.384,-1.443 0.113,-0.902 -0.038,-1.469 -1.23,-1.463 -10.548,0.055 -21.096,0.048 -31.644,0.06"
       id="path17"
       inkscape:connector-curvature="0"
       style="fill:#b8aaaa" />
    <path
       d="m 83.6151,61.6746 h -11.59 c 0.094,2.859 0.094,2.859 3.016,2.859 2.223,0 4.452,-0.101 6.666,0.034 1.559,0.094 2.13,-0.431 1.884,-1.943 -0.05,-0.307 0.013,-0.633 0.024,-0.95 m -60.49,-2.8801 h -11.59 c 0.093,2.849 0.093,2.849 2.947,2.864 1.902,0.765 3.804,0.767 5.706,-0.002 2.846,-0.009 2.846,-0.009 2.937,-2.862"
       id="path19"
       inkscape:connector-curvature="0"
       style="fill:#c4c3c3" />
    <path
       d="m 5.8234,50.143 c -0.013,-0.976 -0.025,-1.951 -0.038,-2.927 -0.424,0.011 -0.855,0.076 -1.271,0.022 -1.233,-0.16 -1.8,0.292 -1.59,1.576 0.174,1.063 -0.329,1.466 -1.348,1.315 -1.141,-0.171 -1.569,0.215 -1.576,1.457 -0.008,1.293 0.519,1.502 1.615,1.445 1.375,-0.072 2.758,-0.007 4.137,-10e-4 l 0.12,-0.033 c 0.567,-0.962 0.573,-1.913 -0.049,-2.854"
       id="path21"
       inkscape:connector-curvature="0"
       style="fill:#c4c4c3" />
    <path
       d="m 89.3642,47.2158 v 5.83 c 1.488,-0.011 2.978,-0.088 4.461,-0.013 1.129,0.058 1.332,-0.462 1.299,-1.429 -0.029,-0.867 -0.004,-1.657 -1.221,-1.472 -1.29,0.197 -1.905,-0.268 -1.684,-1.633 0.158,-0.982 -0.299,-1.351 -1.263,-1.26 -0.525,0.05 -1.061,-0.012 -1.592,-0.023"
       id="path23"
       inkscape:connector-curvature="0"
       style="fill:#c3c3c3" />
    <path
       d="m 20.1876,61.6566 c -1.902,0.001 -3.803,0.001 -5.705,0.002 -0.1,2.875 -0.1,2.875 2.684,2.874 h 0.16 c 2.927,0 2.927,0 2.861,-2.876"
       id="path25"
       inkscape:connector-curvature="0"
       style="fill:#1a1316" />
    <path
       d="m 46.1642,61.6715 c -0.982,10e-4 -1.963,0.002 -2.945,0.004 0.012,0.367 0.063,0.739 0.028,1.101 -0.112,1.14 0.03,1.819 1.527,1.815 1.541,-0.005 1.39,-0.853 1.365,-1.818 -0.009,-0.367 0.016,-0.734 0.025,-1.102 m 11.5244,0.0019 c -0.983,10e-4 -1.965,10e-4 -2.948,0.002 0.011,0.368 0.062,0.739 0.027,1.102 -0.111,1.139 0.028,1.819 1.527,1.814 1.541,-0.005 1.393,-0.849 1.368,-1.815 -0.01,-0.367 0.016,-0.735 0.026,-1.103"
       id="path27"
       inkscape:connector-curvature="0"
       style="fill:#c4c3c3" />
    <path
       d="m 37.4908,58.7693 c 0.005,0.946 0.01,1.891 0.015,2.837 0.952,0.001 1.905,0.002 2.857,0.003 0.032,-2.833 0.032,-2.833 -2.872,-2.84"
       id="path29"
       inkscape:connector-curvature="0"
       style="fill:#a09795" />
    <path
       d="m 72.0876,27.0434 c -10e-4,0.988 -0.002,1.976 -0.003,2.963 0.366,-0.014 0.732,-0.038 1.098,-0.04 1.69,-0.011 1.757,-0.237 1.759,-2.382 0,-0.528 -0.452,-0.485 -0.814,-0.495 -0.68,-0.018 -1.36,-0.031 -2.04,-0.046"
       id="path31"
       inkscape:connector-curvature="0"
       style="fill:#c6c2bf" />
    <path
       d="m 53.4753,50.0787 c -2.013,0.001 -4.026,0.001 -6.039,0.002 -2.926,0.017 -5.854,0.11 -8.776,0.015 -1.285,-0.042 -1.186,0.626 -1.175,1.462 0.01,0.813 -0.143,1.684 1.162,1.457 1.314,-0.227 2.04,0.171 1.73,1.665 -0.203,0.982 0.226,1.381 1.209,1.213 1.239,-0.213 1.942,0.137 1.673,1.562 -0.19,1.006 0.193,1.354 1.272,1.343 5.855,-0.054 11.712,-0.046 17.567,-0.006 1,0.007 1.395,-0.212 1.345,-1.304 -0.094,-2.072 -0.082,-4.153 -0.01,-6.227 0.033,-0.949 -0.306,-1.158 -1.181,-1.15 -2.925,0.03 -5.851,-0.015 -8.777,-0.032"
       id="path33"
       inkscape:connector-curvature="0"
       style="fill:#0e090c" />
    <path
       d="m 75.0186,58.7729 c 2.453,10e-4 4.907,-0.026 7.36,0.016 0.823,0.015 1.245,-0.094 1.225,-1.093 -0.064,-3.146 -0.043,-6.293 -0.009,-9.439 0.008,-0.742 -0.186,-1.027 -0.976,-1.022 -5.119,0.029 -10.239,0.031 -15.359,0 -0.792,-0.004 -0.983,0.277 -0.975,1.017 0.033,3.146 0.053,6.294 -0.01,9.439 -0.02,0.995 0.397,1.111 1.224,1.096 2.506,-0.043 5.013,-0.015 7.52,-0.014"
       id="path35"
       inkscape:connector-curvature="0"
       style="fill:#0e090d" />
    <path
       d="m 5.8234,50.143 c 0.016,0.951 0.032,1.903 0.049,2.854 8.621,0.005 17.242,0.011 25.862,0.016 -0.005,-2.882 -0.005,-2.883 -2.835,-2.882 -7.692,0.003 -15.384,0.008 -23.076,0.012"
       id="path37"
       inkscape:connector-curvature="0"
       style="fill:#a19795" />
    <path
       d="m 31.7303,53.0088 c 0.006,2.878 0.006,2.878 2.885,2.885 -0.006,-2.879 -0.006,-2.879 -2.885,-2.885"
       id="path39"
       inkscape:connector-curvature="0"
       style="fill:#a19795" />
    <path
       d="m 34.6108,55.8893 c 0.004,3.138 -0.243,2.878 2.885,2.885 -0.005,-2.879 -0.005,-2.879 -2.885,-2.885"
       id="path41"
       inkscape:connector-curvature="0"
       style="fill:#a29795" />
    <path
       d="m 42.3291,11.4924 c -4.07,2.245 -7.377,5.258 -9.116,9.654 -2.824,7.143 -1.956,13.875 3.131,19.676 5.318,6.064 12.173,7.936 19.824,5.516 7.543,-2.384 11.931,-7.861 12.914,-15.686 1.641,-13.062 -10.604,-23.6 -23.329,-20.269 -0.509,0.134 -1.029,0.227 -1.544,0.339 -0.723,0.02 -1.435,0.069 -1.88,0.77"
       id="path43"
       inkscape:connector-curvature="0"
       style="fill:#1b1318" />
    <path
       d="m 42.3291,11.4924 c 0.627,-0.257 1.253,-0.513 1.88,-0.77 -1.622,-0.515 -1.904,-0.4 -1.88,0.77"
       id="path45"
       inkscape:connector-curvature="0"
       style="fill:#fefefe" />
    <path
       d="m 71.9028,50.1306 c -2.724,10e-4 -2.724,10e-4 -2.724,2.718 0,3.042 0,3.042 3.04,3.043 2.721,0.002 2.721,0.002 2.721,-2.722 -0.001,-3.04 -0.001,-3.04 -3.037,-3.039"
       id="path47"
       inkscape:connector-curvature="0"
       style="fill:#fefdfb" />
    <path
       d="m 50.8453,15.5645 c -7.45,-0.226 -13.354,5.563 -13.372,12.991 -0.016,7.137 5.833,13.043 13.097,12.954 7.222,-0.089 12.786,-5.71 12.866,-13.01 0.077,-6.962 -5.845,-13.112 -12.591,-12.935"
       id="path49"
       inkscape:connector-curvature="0"
       style="fill:#3c3041" />
    <path
       d="m 50.5655,18.4465 c -5.787,-0.341 -10.156,5.195 -10.259,9.849 -0.131,5.961 5.376,10.455 9.947,10.347 5.799,-0.138 10.123,-4.436 10.33,-10.146 0.172,-4.768 -4.58,-10.389 -10.018,-10.05"
       id="path51"
       inkscape:connector-curvature="0"
       style="fill:#1a1418" />
    <path
       d="m 108.6781,51.2662 h 11.85 v -3.775 h 2.963 v -7.551 h -2.963 v -3.775 h -14.812 v 3.775 h -2.963 v 3.776 h 5.925 v -3.776 h 8.888 v 7.551 h -11.85 v 3.775 h -2.963 v 7.55 h 2.963 v 3.775 h 11.85 v -3.775 h 2.962 v -3.775 h -5.925 v 3.775 h -5.925 z m 23.6997,3.7749 h 14.813 v -3.775 h -11.851 v -11.326 h 11.851 v -3.774 h -14.813 v 3.774 h -2.962 v 11.326 h 2.962 z m 29.6242,-1e-4 h 8.888 v -3.775 h -8.888 z m -2.963,-18.875 h -5.924 v 18.875 h 5.924 v -3.775 h 2.963 v -3.775 h -2.963 z m 29.624,15.1 h -5.925 v -3.775 h 5.925 z m -8.887,3.775 h 11.85 v -3.775 h 2.963 v -7.55 h -11.85 v -3.775 h 11.85 v -3.775 h -14.813 v 3.775 h -2.962 v 11.325 h 2.962 z m 32.587,-3.775 h -5.925 v -3.775 h 5.925 z m -8.888,3.775 h 11.851 v -3.775 h 2.962 v -7.55 h -11.85 v -3.775 h 11.85 v -3.775 h -14.813 v 3.775 h -2.962 v 11.325 h 2.962 z m 20.7373,1e-4 h 14.813 v -3.775 h 2.962 v -15.1 h -5.925 v 15.1 h -5.925 v -15.1 h -5.925 z"
       id="path53"
       inkscape:connector-curvature="0"
       style="fill:#2b2321" />
    <path
       d="m 253.8368,51.2662 h 11.85 v -3.775 h 2.963 v -7.551 h -2.963 v -3.775 h -14.812 v 3.775 h -2.963 v 3.776 h 5.925 v -3.776 h 8.888 v 7.551 h -11.85 v 3.775 h -2.963 v 7.55 h 2.963 v 3.775 h 11.85 v -3.775 h 2.962 v -3.775 h -5.925 v 3.775 h -5.925 z m 20.7368,11.3252 h 5.925 v -7.55 h 8.888 v -3.775 h 2.962 v -15.101 h -5.925 v 15.101 h -5.925 v -15.101 h -5.925 z M 310.123,51.266 h -5.925 V 39.94 h 5.925 z m 2.963,-15.1 h -11.85 v 3.775 h -2.963 v 11.325 h 2.963 v 3.775 h 11.85 v -3.775 h 2.962 V 39.941 h -2.962 z m 8.8865,18.8751 h 2.962 v 7.55 h 5.925 v -7.55 h 8.888 v -3.775 h -8.888 v -11.326 h 8.888 v -3.774 h -11.85 v 3.774 h -2.963 v 11.326 h -2.962 z m 29.6241,-7.5503 h 8.888 v -3.775 h 2.962 v -3.775 h -2.962 v -3.775 h -14.813 v 3.775 h 11.85 v 3.775 h -8.887 v 3.775 h -2.963 v 3.775 h 2.963 v 3.775 h 14.812 v -3.775 h -11.85 z"
       id="path55"
       inkscape:connector-curvature="0" />
    <path
       d="m 105.974,23.5802 h 1.452 v -1.453 h 2.905 v 2.905 h -1.452 v 1.453 h 4.358 v -5.81 h -7.263 v 1.452 h -1.453 v 1.453 h -1.452 v 4.357 h 1.452 v 1.453 h 1.453 v 1.453 h 7.263 v -1.453 h -5.811 v -1.453 h -1.452 z m 15.978,-2e-4 h -2.905 v -1.453 h 2.905 z m -4.358,1.452 h 4.358 v 1.453 h -5.811 v 1.453 h 7.263 v -1.453 h 1.453 v -5.81 h -7.263 v 1.453 h -1.453 v 1.452 h 1.453 z m 10.1676,5.8109 h 4.357 v -10.168 h -2.904 v 8.715 h -1.453 z m 7.2627,0 h 4.357 v -10.168 h -2.904 v 8.715 h -1.453 z M 148.098,26.485 h -2.905 v -1.453 h 2.905 z m -4.358,1.453 h 5.81 v -1.453 h 1.453 V 23.58 h -5.81 v -1.452 h 5.81 v -1.453 h -7.263 v 1.453 h -1.453 v 4.357 h 1.453 z m 14.525,0 h 4.358 v -1.453 h -4.358 z m -1.452,-7.263 h -2.905 v 7.263 h 2.905 v -1.453 h 1.452 v -1.453 h -1.452 z m 10.1673,-10e-5 h 4.357 v 1.453 h -4.357 v 1.452 h -1.453 v 4.358 h 2.906 v -4.358 h 2.904 v 4.358 h 2.906 v -7.263 h -1.453 v -1.453 h -5.81 z"
       id="path57"
       inkscape:connector-curvature="0"
       style="fill:#a19795" />
    <path
       d="m 362.2794,17.9215 h -259.211 l 3.001,-2.911 h 259.21 z"
       id="path59"
       inkscape:connector-curvature="0"
       style="fill:#d50f2a" />
    <path
       d="m 366.2072,13.6647 h -259.211 l 3.001,-2.911 h 259.21 z"
       id="path61"
       inkscape:connector-curvature="0"
       style="fill:#e5e2e1" />
    <path
       d="m 52.2391,59.8387 h -2.253 c -0.275,0 -0.5,0.225 -0.5,0.5 v 2.165 c 0,0.275 0.225,0.5 0.5,0.5 h 2.253 c 0.275,0 0.5,-0.225 0.5,-0.5 v -2.165 c 0,-0.275 -0.225,-0.5 -0.5,-0.5"
       id="path63"
       inkscape:connector-curvature="0"
       style="fill:#fdfbfc" />
    <path
       d="M 22.698,42.3727 H 10.54 c -0.55,0 -1,0.45 -1,1 v 3.876 c 0,0.55 0.45,1 1,1 h 12.158 c 0.55,0 1,-0.45 1,-1 v -3.876 c 0,-0.55 -0.45,-1 -1,-1"
       id="path65"
       inkscape:connector-curvature="0"
       style="fill:#e5e2e1" />
    <path
       d="m 15.006,45.474 h -2.775 v 2.775 h 2.775 z m 6.036,0 h -2.775 v 2.775 h 2.775 z"
       id="path67"
       inkscape:connector-curvature="0"
       style="fill:#d4102e" />
    <path
       d="m 358.418,22.282 h -6.338 v 3.191 h 6.338 z m 15.794,0 h -6.338 v 3.191 h 6.338 z M 358.418,3.055 h -6.338 v 3.191 h 6.338 z m 18.95,0 h -9.301 v 3.191 h 9.301 z"
       id="path69"
       inkscape:connector-curvature="0"
       style="fill:#d50f2a" />
    <path
       d="M 374.3132,9.3013 V 3e-4 h -3.191 v 9.301 z m -0.002,9.8117 h -3.191 v 6.338 h 3.191 z m -19.04,-16.018 h -3.191 v 6.338 h 3.191 z m 0,16.018 h -3.191 v 6.338 h 3.191 z m 19.04,-4.221 h -3.191 v 3.125 h 3.191 z m 0,-4.377 h -3.191 v 3.125 h 3.191 z m -7.269,11.799 h -3.191 v 3.125 h 3.191 z m -4.377,0 h -3.191 v 3.125 h 3.191 z"
       id="path71"
       inkscape:connector-curvature="0"
       style="fill:#d50f2a" />
    <path
       d="m 355.271,15.011 h -3.191 v 2.911 h 3.191 z"
       id="path73"
       inkscape:connector-curvature="0"
       style="fill:#e5e2e1" />
    <path
       d="m 355.271,10.754 h -3.191 v 2.911 h 3.191 z m 7.394,-7.666 h -3.191 v 3.125 h 3.191 z m 4.377,0 h -3.191 v 3.125 h 3.191 z"
       id="path75"
       inkscape:connector-curvature="0"
       style="fill:#d50f2a" />
  </g>
</svg>
