<?xml version="1.0" encoding="UTF-8" standalone="no"?>
<svg
   xmlns:dc="http://purl.org/dc/elements/1.1/"
   xmlns:cc="http://creativecommons.org/ns#"
   xmlns:rdf="http://www.w3.org/1999/02/22-rdf-syntax-ns#"
   xmlns:svg="http://www.w3.org/2000/svg"
   xmlns="http://www.w3.org/2000/svg"
   xmlns:sodipodi="http://sodipodi.sourceforge.net/DTD/sodipodi-0.dtd"
   xmlns:inkscape="http://www.inkscape.org/namespaces/inkscape"
   width="500"
   height="288.2926"
   version="1.1"
   id="svg52"
   sodipodi:docname="consolegame.svg"
   inkscape:version="0.92.4 5da689c313, 2019-01-14">
  <metadata
     id="metadata56">
    <rdf:RDF>
      <cc:Work
         rdf:about="">
        <dc:format>image/svg+xml</dc:format>
        <dc:type
           rdf:resource="http://purl.org/dc/dcmitype/StillImage" />
      </cc:Work>
    </rdf:RDF>
  </metadata>
  <sodipodi:namedview
     pagecolor="#ffffff"
     bordercolor="#666666"
     borderopacity="1"
     objecttolerance="10"
     gridtolerance="10"
     guidetolerance="10"
     inkscape:pageopacity="0"
     inkscape:pageshadow="2"
     inkscape:window-width="471"
     inkscape:window-height="442"
     id="namedview54"
     showgrid="false"
     inkscape:zoom="0.542"
     inkscape:cx="250"
     inkscape:cy="144.1463"
     inkscape:window-x="0"
     inkscape:window-y="0"
     inkscape:window-maximized="0"
     inkscape:current-layer="svg52">
    <inkscape:grid
       type="xygrid"
       id="grid58"
       originx="0"
       originy="-2.5390625e-06" />
  </sodipodi:namedview>
  <defs
     id="defs8">
    <clipPath
       id="a">
      <path
         d="M 0,403.24 H 394.448 V 0 H 0 Z"
         id="path2"
         inkscape:connector-curvature="0" />
    </clipPath>
    <clipPath
       id="b">
      <path
         d="M 0,116.121 H 188.997 V 0 H 0 Z"
         id="path5"
         inkscape:connector-curvature="0" />
    </clipPath>
  </defs>
  <g
     clip-path="url(#a)"
     transform="matrix(0.71494102,0,0,-0.71494102,0,288.2926)"
     id="g30">
    <path
       d="M 8.391,0 C 0.864,0 0,4.572 0,8.624 v 390.587 c 0,4.141 3.357,4.028 12.442,4.028 h 369.564 c 9.085,0 12.442,0.113 12.442,-4.028 V 8.624 C 394.448,4.572 393.584,0 386.057,0 Z"
       id="path10"
       inkscape:connector-curvature="0"
       style="fill:#3a3742;fill-rule:evenodd" />
    <path
       d="m 0,160.4541 c 0,15.891 3.253,19.809 11.835,19.809 H 382.8 c 8.582,0 11.648,-3.918 11.648,-19.809 0,0 -394.448,-0.073 -394.448,0"
       id="path12"
       inkscape:connector-curvature="0"
       style="fill:#181221;fill-rule:evenodd" />
    <path
       d="m 0.187,346.9384 v 52.273 c 0,4.14 3.357,4.028 12.442,4.028 h 369.377 c 9.085,0 12.442,0.112 12.442,-4.028 v -52.273 z"
       id="path14"
       inkscape:connector-curvature="0"
       style="fill:#2a2733;fill-rule:evenodd" />
    <path
       d="m 379.1743,7.6283 c 3.615,0 6.546,2.931 6.546,6.546 v 139.754 c 0,3.616 -2.931,6.547 -6.546,6.547 H 15.4603 c -3.615,0 -6.546,-2.931 -6.546,-6.547 V 14.1743 c 0,-3.615 2.931,-6.546 6.546,-6.546 z"
       id="path16"
       inkscape:connector-curvature="0"
       style="fill:#3f3e4a;fill-rule:evenodd" />
    <path
       stroke-miterlimit="10"
       d="m 379.1743,7.6283 c 3.615,0 6.546,2.931 6.546,6.546 v 139.754 c 0,3.616 -2.931,6.547 -6.546,6.547 H 15.4603 c -3.615,0 -6.546,-2.931 -6.546,-6.547 V 14.1743 c 0,-3.615 2.931,-6.546 6.546,-6.546 z"
       id="path18"
       inkscape:connector-curvature="0"
       style="fill:none;stroke:#0e0e10;stroke-width:1.278;stroke-miterlimit:10" />
    <path
       d="m 50.8259,78.6681 h 21.571 c 1.24,0 2.245,-1.005 2.245,-2.245 v -15.426 c 0,-1.24 -1.005,-2.245 -2.245,-2.245 h -21.571 c -1.24,0 -2.244,1.005 -2.244,2.245 v 15.426 c 0,1.24 1.004,2.245 2.244,2.245 m 33.2919,0.0011 h 21.574 c 1.239,0 2.244,-1.005 2.244,-2.244 v -15.431 c 0,-1.24 -1.005,-2.245 -2.244,-2.245 h -21.574 c -1.24,0 -2.244,1.005 -2.244,2.245 v 15.431 c 0,1.239 1.004,2.244 2.244,2.244 m 33.293,0 h 21.574 c 1.239,0 2.244,-1.005 2.244,-2.244 v -15.431 c 0,-1.24 -1.005,-2.245 -2.244,-2.245 h -21.574 c -1.24,0 -2.245,1.005 -2.245,2.245 v 15.431 c 0,1.239 1.005,2.244 2.245,2.244 m 33.2931,0 h 21.574 c 1.239,0 2.244,-1.005 2.244,-2.244 v -15.431 c 0,-1.24 -1.005,-2.245 -2.244,-2.245 h -21.574 c -1.24,0 -2.244,1.005 -2.244,2.245 v 15.431 c 0,1.239 1.004,2.244 2.244,2.244 m 33.293,0 h 21.574 c 1.239,0 2.244,-1.005 2.244,-2.244 v -15.431 c 0,-1.24 -1.005,-2.245 -2.244,-2.245 h -21.574 c -1.24,0 -2.244,1.005 -2.244,2.245 v 15.431 c 0,1.239 1.004,2.244 2.244,2.244 m 33.2931,0 h 21.574 c 1.239,0 2.244,-1.005 2.244,-2.244 v -15.431 c 0,-1.24 -1.005,-2.245 -2.244,-2.245 H 217.29 c -1.24,0 -2.244,1.005 -2.244,2.245 v 15.431 c 0,1.239 1.004,2.244 2.244,2.244 m 33.293,0 h 21.574 c 1.239,0 2.244,-1.005 2.244,-2.244 v -15.431 c 0,-1.24 -1.005,-2.245 -2.244,-2.245 h -21.574 c -1.24,0 -2.245,1.005 -2.245,2.245 v 15.431 c 0,1.239 1.005,2.244 2.245,2.244 m 33.2931,0 h 21.574 c 1.239,0 2.244,-1.005 2.244,-2.244 v -15.431 c 0,-1.24 -1.005,-2.245 -2.244,-2.245 h -21.574 c -1.24,0 -2.244,1.005 -2.244,2.245 v 15.431 c 0,1.239 1.004,2.244 2.244,2.244 m 33.293,0 h 21.574 c 1.239,0 2.244,-1.005 2.244,-2.244 v -15.431 c 0,-1.24 -1.005,-2.245 -2.244,-2.245 h -21.574 c -1.24,0 -2.244,1.005 -2.244,2.245 v 15.431 c 0,1.239 1.004,2.244 2.244,2.244 m 33.2931,0 h 21.574 c 1.239,0 2.244,-1.005 2.244,-2.244 v -15.431 c 0,-1.24 -1.005,-2.245 -2.244,-2.245 h -21.574 c -1.24,0 -2.244,1.005 -2.244,2.245 v 15.431 c 0,1.239 1.004,2.244 2.244,2.244 M 35.1904,46.773 h 21.574 c 1.239,0 2.244,-1.005 2.244,-2.244 V 29.098 c 0,-1.24 -1.005,-2.245 -2.244,-2.245 h -21.574 c -1.24,0 -2.245,1.005 -2.245,2.245 v 15.431 c 0,1.239 1.005,2.244 2.245,2.244 m 33.2932,0 h 21.574 c 1.239,0 2.244,-1.005 2.244,-2.244 V 29.098 c 0,-1.24 -1.005,-2.245 -2.244,-2.245 h -21.574 c -1.24,0 -2.245,1.005 -2.245,2.245 v 15.431 c 0,1.239 1.005,2.244 2.245,2.244 m 33.293,0 h 21.574 c 1.239,0 2.244,-1.005 2.244,-2.244 V 29.098 c 0,-1.24 -1.005,-2.245 -2.244,-2.245 h -21.574 c -1.24,0 -2.244,1.005 -2.244,2.245 v 15.431 c 0,1.239 1.004,2.244 2.244,2.244 m 33.2931,0 h 21.574 c 1.239,0 2.244,-1.005 2.244,-2.244 V 29.098 c 0,-1.24 -1.005,-2.245 -2.244,-2.245 h -21.574 c -1.24,0 -2.244,1.005 -2.244,2.245 v 15.431 c 0,1.239 1.004,2.244 2.244,2.244 m 33.2931,0 h 21.574 c 1.239,0 2.244,-1.005 2.244,-2.244 V 29.098 c 0,-1.24 -1.005,-2.245 -2.244,-2.245 h -21.574 c -1.24,0 -2.244,1.005 -2.244,2.245 v 15.431 c 0,1.239 1.004,2.244 2.244,2.244 m 33.2931,0 h 21.574 c 1.239,0 2.244,-1.005 2.244,-2.244 V 29.098 c 0,-1.24 -1.005,-2.245 -2.244,-2.245 h -21.574 c -1.24,0 -2.244,1.005 -2.244,2.245 v 15.431 c 0,1.239 1.004,2.244 2.244,2.244 m 33.2932,0 h 21.574 c 1.239,0 2.244,-1.005 2.244,-2.244 V 29.098 c 0,-1.24 -1.005,-2.245 -2.244,-2.245 h -21.574 c -1.24,0 -2.244,1.005 -2.244,2.245 v 15.431 c 0,1.239 1.004,2.244 2.244,2.244 m 33.2931,0 h 21.574 c 1.239,0 2.244,-1.005 2.244,-2.244 V 29.098 c 0,-1.24 -1.005,-2.245 -2.244,-2.245 h -21.574 c -1.24,0 -2.245,1.005 -2.245,2.245 v 15.431 c 0,1.239 1.005,2.244 2.245,2.244 m 33.2931,0 h 21.574 c 1.239,0 2.244,-1.005 2.244,-2.244 V 29.098 c 0,-1.24 -1.005,-2.245 -2.244,-2.245 h -21.574 c -1.24,0 -2.245,1.005 -2.245,2.245 v 15.431 c 0,1.239 1.005,2.244 2.245,2.244 m 33.293,0 h 21.574 c 1.239,0 2.244,-1.005 2.244,-2.244 V 29.098 c 0,-1.24 -1.005,-2.245 -2.244,-2.245 h -21.574 c -1.24,0 -2.244,1.005 -2.244,2.245 v 15.431 c 0,1.239 1.004,2.244 2.244,2.244 M 42.8315,111.0212 h 21.574 c 1.239,0 2.244,-1.005 2.244,-2.244 v -15.431 c 0,-1.24 -1.005,-2.245 -2.244,-2.245 h -21.574 c -1.24,0 -2.245,1.005 -2.245,2.245 v 15.431 c 0,1.239 1.005,2.244 2.245,2.244 m 33.2931,0 h 21.574 c 1.239,0 2.244,-1.005 2.244,-2.244 v -15.431 c 0,-1.24 -1.005,-2.245 -2.244,-2.245 h -21.574 c -1.24,0 -2.245,1.005 -2.245,2.245 v 15.431 c 0,1.239 1.005,2.244 2.245,2.244 m 33.2931,0 h 21.574 c 1.239,0 2.244,-1.005 2.244,-2.244 v -15.431 c 0,-1.24 -1.005,-2.245 -2.244,-2.245 h -21.574 c -1.24,0 -2.244,1.005 -2.244,2.245 v 15.431 c 0,1.239 1.004,2.244 2.244,2.244 m 33.2931,0 h 21.574 c 1.239,0 2.244,-1.005 2.244,-2.244 v -15.431 c 0,-1.24 -1.005,-2.245 -2.244,-2.245 h -21.574 c -1.24,0 -2.244,1.005 -2.244,2.245 v 15.431 c 0,1.239 1.004,2.244 2.244,2.244 m 33.2931,0 h 21.574 c 1.239,0 2.244,-1.005 2.244,-2.244 v -15.431 c 0,-1.24 -1.005,-2.245 -2.244,-2.245 h -21.574 c -1.24,0 -2.244,1.005 -2.244,2.245 v 15.431 c 0,1.239 1.004,2.244 2.244,2.244 m 33.2931,0 h 21.574 c 1.239,0 2.244,-1.005 2.244,-2.244 v -15.431 c 0,-1.24 -1.005,-2.245 -2.244,-2.245 h -21.574 c -1.24,0 -2.244,1.005 -2.244,2.245 v 15.431 c 0,1.239 1.004,2.244 2.244,2.244 m 33.2931,0 h 21.574 c 1.239,0 2.244,-1.005 2.244,-2.244 v -15.431 c 0,-1.24 -1.005,-2.245 -2.244,-2.245 h -21.574 c -1.24,0 -2.244,1.005 -2.244,2.245 v 15.431 c 0,1.239 1.004,2.244 2.244,2.244 m 33.2931,0 h 21.574 c 1.239,0 2.244,-1.005 2.244,-2.244 v -15.431 c 0,-1.24 -1.005,-2.245 -2.244,-2.245 h -21.574 c -1.24,0 -2.244,1.005 -2.244,2.245 v 15.431 c 0,1.239 1.004,2.244 2.244,2.244 m 33.2931,0 h 21.574 c 1.239,0 2.244,-1.005 2.244,-2.244 v -15.431 c 0,-1.24 -1.005,-2.245 -2.244,-2.245 h -21.574 c -1.24,0 -2.245,1.005 -2.245,2.245 v 15.431 c 0,1.239 1.005,2.244 2.245,2.244 m 33.2931,0 h 21.574 c 1.239,0 2.244,-1.005 2.244,-2.244 v -15.431 c 0,-1.24 -1.005,-2.245 -2.244,-2.245 h -21.574 c -1.24,0 -2.244,1.005 -2.244,2.245 v 15.431 c 0,1.239 1.004,2.244 2.244,2.244 M 25.4821,142.9525 h 21.574 c 1.239,0 2.244,-1.005 2.244,-2.245 v -15.43 c 0,-1.24 -1.005,-2.245 -2.244,-2.245 h -21.574 c -1.24,0 -2.245,1.005 -2.245,2.245 v 15.43 c 0,1.24 1.005,2.245 2.245,2.245 m 33.293,0 h 21.574 c 1.239,0 2.244,-1.005 2.244,-2.245 v -15.43 c 0,-1.24 -1.005,-2.245 -2.244,-2.245 h -21.574 c -1.24,0 -2.244,1.005 -2.244,2.245 v 15.43 c 0,1.24 1.004,2.245 2.244,2.245 m 33.2931,0 h 21.574 c 1.239,0 2.244,-1.005 2.244,-2.245 v -15.43 c 0,-1.24 -1.005,-2.245 -2.244,-2.245 h -21.574 c -1.24,0 -2.244,1.005 -2.244,2.245 v 15.43 c 0,1.24 1.004,2.245 2.244,2.245 m 33.2931,0 h 21.574 c 1.239,0 2.244,-1.005 2.244,-2.245 v -15.43 c 0,-1.24 -1.005,-2.245 -2.244,-2.245 h -21.574 c -1.24,0 -2.244,1.005 -2.244,2.245 v 15.43 c 0,1.24 1.004,2.245 2.244,2.245 m 33.2931,0 h 21.574 c 1.239,0 2.244,-1.005 2.244,-2.245 v -15.43 c 0,-1.24 -1.005,-2.245 -2.244,-2.245 h -21.574 c -1.24,0 -2.244,1.005 -2.244,2.245 v 15.43 c 0,1.24 1.004,2.245 2.244,2.245 m 33.2932,0 h 21.574 c 1.239,0 2.244,-1.005 2.244,-2.245 v -15.43 c 0,-1.24 -1.005,-2.245 -2.244,-2.245 h -21.574 c -1.24,0 -2.244,1.005 -2.244,2.245 v 15.43 c 0,1.24 1.004,2.245 2.244,2.245 m 33.2931,0 h 21.574 c 1.239,0 2.244,-1.005 2.244,-2.245 v -15.43 c 0,-1.24 -1.005,-2.245 -2.244,-2.245 h -21.574 c -1.24,0 -2.245,1.005 -2.245,2.245 v 15.43 c 0,1.24 1.005,2.245 2.245,2.245 m 33.2931,0 h 21.574 c 1.239,0 2.244,-1.005 2.244,-2.245 v -15.43 c 0,-1.24 -1.005,-2.245 -2.244,-2.245 h -21.574 c -1.24,0 -2.245,1.005 -2.245,2.245 v 15.43 c 0,1.24 1.005,2.245 2.245,2.245 m 33.293,0 h 21.574 c 1.239,0 2.244,-1.005 2.244,-2.245 v -15.43 c 0,-1.24 -1.005,-2.245 -2.244,-2.245 h -21.574 c -1.24,0 -2.244,1.005 -2.244,2.245 v 15.43 c 0,1.24 1.004,2.245 2.244,2.245 m 33.2931,0 h 21.574 c 1.239,0 2.244,-1.005 2.244,-2.245 v -15.43 c 0,-1.24 -1.005,-2.245 -2.244,-2.245 h -21.574 c -1.24,0 -2.244,1.005 -2.244,2.245 v 15.43 c 0,1.24 1.004,2.245 2.244,2.245"
       id="path20"
       inkscape:connector-curvature="0"
       style="fill:#afacb3;fill-rule:evenodd" />
    <path
       d="m 20.0218,196.1421 h 15.094 v 3.595 h -6.107 c -0.377,0 -0.8,-0.009 -1.268,-0.025 -0.467,-0.016 -0.915,-0.033 -1.342,-0.049 -0.492,-0.033 -0.985,-0.058 -1.477,-0.074 v 0.074 l 1.207,1.207 c 0.344,0.344 0.705,0.722 1.083,1.132 0.377,0.41 0.722,0.804 1.034,1.182 l 6.525,7.978 v 3.3 h -14.084 v -3.546 h 5.269 c 0.361,0 0.763,0.004 1.207,0.012 0.443,0.008 0.862,0.021 1.255,0.037 0.46,0.016 0.928,0.041 1.404,0.074 v -0.074 c -0.378,-0.361 -0.747,-0.73 -1.108,-1.108 -0.312,-0.328 -0.64,-0.677 -0.985,-1.046 -0.345,-0.37 -0.657,-0.719 -0.936,-1.047 l -6.771,-8.224 z m 16.4233,0 h 4.777 l 1.896,3.226 c 0.213,0.36 0.431,0.759 0.652,1.194 0.222,0.435 0.423,0.841 0.604,1.219 0.213,0.443 0.418,0.886 0.615,1.329 h 0.049 l 0.591,-1.329 c 0.181,-0.378 0.374,-0.784 0.579,-1.219 0.205,-0.435 0.414,-0.834 0.628,-1.194 l 1.847,-3.226 h 4.974 l -6.107,9.603 5.54,8.717 h -4.58 l -1.502,-2.487 c -0.213,-0.362 -0.431,-0.751 -0.652,-1.17 -0.222,-0.419 -0.423,-0.817 -0.603,-1.194 -0.214,-0.427 -0.419,-0.87 -0.616,-1.33 h -0.049 c -0.214,0.46 -0.419,0.903 -0.616,1.33 -0.181,0.377 -0.378,0.775 -0.591,1.194 -0.213,0.419 -0.427,0.808 -0.64,1.17 l -1.477,2.487 h -4.802 l 5.639,-8.742 z m 23.2565,3.2995 c -0.566,0.476 -0.85,1.124 -0.85,1.945 0,0.854 0.288,1.527 0.862,2.019 0.575,0.493 1.355,0.739 2.34,0.739 0.984,0 1.756,-0.246 2.314,-0.739 0.558,-0.492 0.837,-1.165 0.837,-2.019 0,-0.804 -0.287,-1.449 -0.862,-1.933 -0.574,-0.484 -1.338,-0.726 -2.289,-0.726 -1.002,0 -1.786,0.238 -2.352,0.714 m 0.32,7.941 c -0.468,0.402 -0.702,0.94 -0.702,1.613 0,0.689 0.234,1.239 0.702,1.65 0.468,0.41 1.129,0.615 1.982,0.615 0.87,0 1.535,-0.205 1.995,-0.615 0.459,-0.411 0.689,-0.961 0.689,-1.65 0,-0.673 -0.23,-1.211 -0.689,-1.613 -0.46,-0.402 -1.125,-0.603 -1.995,-0.603 -0.853,0 -1.514,0.201 -1.982,0.603 m 4.925,-11.29 c 0.878,0.246 1.637,0.604 2.277,1.071 0.641,0.468 1.141,1.047 1.502,1.736 0.361,0.69 0.542,1.469 0.542,2.34 0,1.034 -0.292,1.945 -0.874,2.733 -0.583,0.788 -1.457,1.345 -2.622,1.674 v 0.074 c 0.919,0.328 1.6,0.804 2.043,1.428 0.444,0.624 0.665,1.33 0.665,2.118 0,0.738 -0.152,1.403 -0.455,1.994 -0.304,0.591 -0.735,1.092 -1.293,1.502 -0.558,0.41 -1.236,0.726 -2.032,0.948 -0.796,0.222 -1.686,0.333 -2.671,0.333 -0.985,0 -1.88,-0.115 -2.684,-0.345 -0.805,-0.23 -1.49,-0.558 -2.056,-0.985 -0.566,-0.427 -1.002,-0.94 -1.305,-1.539 -0.304,-0.599 -0.456,-1.26 -0.456,-1.982 0,-0.821 0.222,-1.539 0.665,-2.155 0.443,-0.615 1.133,-1.087 2.069,-1.416 v -0.073 c -1.133,-0.345 -1.995,-0.908 -2.586,-1.687 -0.591,-0.78 -0.886,-1.687 -0.886,-2.721 0,-0.854 0.18,-1.613 0.541,-2.278 0.361,-0.664 0.866,-1.231 1.515,-1.699 0.648,-0.467 1.416,-0.825 2.302,-1.071 0.886,-0.246 1.855,-0.369 2.906,-0.369 1.05,0 2.014,0.123 2.893,0.369 m 6.5864,0.0494 h 4.211 v 18.32 h -4.211 z"
       id="path22"
       inkscape:connector-curvature="0"
       style="fill:#f05953" />
    <path
       d="m 122.82,393.477 h 5.755 V 371.9 h -5.755 z m 14.383,-15.822 h 14.387 v -1.439 h -14.387 z m -5.751,10.068 v -4.313 h 20.138 v -1.439 h -20.138 v -10.07 h 25.893 v 15.822 z m 28.771,0 h 5.751 v -15.822 h -5.751 z m 0,5.754 h 5.751 v -4.316 h -5.751 z m 8.6283,-5.7544 v -15.822 h 5.755 v 11.51 h 23.015 v 4.312 z m -77.6792,0 v -15.822 h 28.77 v 4.316 h -23.015 v 7.194 h 23.015 v 4.312 z m -31.6481,0 v -15.822 h 5.755 v 11.51 H 82.54 v -11.51 h 5.755 v 15.822 z m -8.632,4e-4 h 5.755 v -15.822 h -5.755 z m 0,5.754 h 5.755 v -4.316 h -5.755 z m -31.6444,-5.7544 v -10.067 h 23.016 v -1.439 h -23.016 v -4.316 h 28.771 v 10.071 h -23.02 v 1.439 h 23.02 v 4.312 z"
       id="path24"
       inkscape:connector-curvature="0"
       style="fill:#181221" />
    <path
       d="m 121.262,395.035 h 5.755 v -21.577 h -5.755 z m 14.383,-15.821 h 14.387 v -1.439 h -14.387 z m -5.751,10.067 v -4.313 h 20.138 v -1.439 h -20.138 v -10.07 h 25.893 v 15.822 z m 28.771,0 h 5.751 v -15.822 h -5.751 z m 0,5.754 h 5.751 v -4.316 h -5.751 z m 8.6282,-5.7544 v -15.822 h 5.755 v 11.51 h 23.015 v 4.312 z m -77.6792,0 v -15.822 h 28.77 v 4.316 H 95.369 v 7.194 h 23.015 v 4.312 z m -31.648,0 v -15.822 h 5.755 v 11.51 h 17.261 v -11.51 h 5.755 v 15.822 z m -8.632,4e-4 h 5.755 v -15.822 h -5.755 z m 0,5.754 h 5.755 v -4.316 h -5.755 z m -31.6445,-5.7544 v -10.067 h 23.016 v -1.439 h -23.016 v -4.316 h 28.771 v 10.071 h -23.02 v 1.439 h 23.02 v 4.312 z"
       id="path26"
       inkscape:connector-curvature="0"
       style="fill:#5b585b" />
    <path
       d="m 122.041,394.256 h 5.755 v -21.577 h -5.755 z m 14.383,-15.821 h 14.387 v -1.439 h -14.387 z m -5.751,10.067 v -4.313 h 20.138 v -1.439 h -20.138 v -10.07 h 25.893 v 15.822 z m 28.771,0 h 5.751 V 372.68 h -5.751 z m 0,5.754 h 5.751 v -4.316 h -5.751 z m 8.6283,-5.7544 v -15.822 h 5.755 v 11.51 h 23.015 v 4.312 z m -77.6792,0 v -15.822 h 28.77 v 4.316 h -23.015 v 7.194 h 23.015 v 4.312 z m -31.6481,0 v -15.822 H 64.5 v 11.51 h 17.261 v -11.51 h 5.755 v 15.822 z m -8.632,4e-4 h 5.755 V 372.68 h -5.755 z m 0,5.754 h 5.755 v -4.316 h -5.755 z m -31.6444,-5.7544 v -10.067 h 23.016 v -1.439 h -23.016 v -4.316 h 28.771 v 10.071 h -23.02 v 1.439 h 23.02 v 4.312 z"
       id="path28"
       inkscape:connector-curvature="0"
       style="fill:#2a2733" />
  </g>
  <g
     clip-path="url(#b)"
     transform="matrix(0.99287125,0,0,-0.99287125,312.35049,288.29259)"
     id="g50">
    <path
       d="m 54.8531,48.7435 c -8.212,0 -14.87,6.657 -14.87,14.87 0,8.212 6.658,14.869 14.87,14.869 8.212,0 14.87,-6.657 14.87,-14.869 0,-8.213 -6.658,-14.87 -14.87,-14.87 m 0,37.798 c -12.663,0 -22.928,-10.265 -22.928,-22.928 0,-12.663 10.265,-22.929 22.928,-22.929 12.663,0 22.928,10.266 22.928,22.929 0,12.663 -10.265,22.928 -22.928,22.928 m 79.291,-37.7936 c -8.212,0 -14.87,6.657 -14.87,14.87 0,8.212 6.658,14.869 14.87,14.869 8.212,0 14.87,-6.657 14.87,-14.869 0,-8.213 -6.658,-14.87 -14.87,-14.87 m 0,44.049 c -16.118,0 -29.184,-13.066 -29.184,-29.183 0,-16.118 13.066,-29.184 29.184,-29.184 16.117,0 29.183,13.066 29.183,29.184 0,16.117 -13.066,29.183 -29.183,29.183"
       id="path32"
       inkscape:connector-curvature="0"
       style="fill:#311610" />
    <path
       d="m 134.7942,54.7523 v 1.936 h -1.263 v -1.939 c -2.812,0.192 -5.266,1.689 -6.757,3.893 l 1.68,0.97 -0.631,1.094 -1.679,-0.97 c -0.57,1.173 -0.89,2.489 -0.89,3.881 0,1.401 0.325,2.727 0.903,3.906 l 1.66,-0.958 0.631,1.093 -1.656,0.957 c 1.49,2.188 3.93,3.674 6.728,3.868 v -1.89 h 1.262 v 1.889 c 2.792,-0.198 5.228,-1.683 6.716,-3.868 l -1.639,-0.946 0.632,-1.093 1.641,0.947 c 0.578,-1.179 0.903,-2.504 0.903,-3.905 0,-1.383 -0.316,-2.692 -0.879,-3.859 l -1.66,0.958 -0.631,-1.094 1.662,-0.959 c -1.482,-2.206 -3.927,-3.708 -6.733,-3.911 m -0.65,19.495 c -5.871,0 -10.63,-4.759 -10.63,-10.63 0,-5.872 4.759,-10.631 10.63,-10.631 5.871,0 10.631,4.759 10.631,10.631 0,5.871 -4.76,10.63 -10.631,10.63 M 55.4652,54.7495 v 1.939 h -1.263 v -1.936 c -2.805,0.203 -5.25,1.705 -6.733,3.91 l 1.662,0.96 -0.631,1.094 -1.66,-0.959 c -0.563,1.168 -0.879,2.477 -0.879,3.859 0,1.402 0.326,2.727 0.903,3.906 l 1.642,-0.947 0.631,1.093 -1.638,0.946 c 1.487,2.185 3.923,3.67 6.715,3.868 v -1.889 h 1.263 v 1.89 c 2.797,-0.195 5.238,-1.681 6.728,-3.868 l -1.657,-0.957 0.631,-1.093 1.66,0.958 c 0.578,-1.179 0.904,-2.505 0.904,-3.907 0,-1.391 -0.321,-2.707 -0.89,-3.88 l -1.68,0.97 -0.631,-1.094 1.68,-0.97 c -1.491,-2.204 -3.945,-3.701 -6.757,-3.893 m -0.613,19.498 c -5.871,0 -10.631,-4.76 -10.631,-10.631 0,-5.871 4.76,-10.63 10.631,-10.63 5.871,0 10.631,4.759 10.631,10.63 0,5.871 -4.76,10.631 -10.631,10.631"
       id="path34"
       inkscape:connector-curvature="0"
       style="fill:#e4e4e3" />
    <path
       d="m 186.5556,41.7545 c 1.672,-1.719 2.197,-2.292 2.197,-2.292 0,0 0.286,-0.191 0.239,-1.003 -0.048,-0.812 0,-26.697 0,-27.509 0,-0.812 -0.239,-0.812 -0.478,-1.099 -0.239,-0.286 -1.958,-2.292 -1.958,-2.292 z m -184.1146,0 c -1.672,-1.719 -2.197,-2.292 -2.197,-2.292 0,0 -0.286,-0.191 -0.239,-1.003 0.048,-0.812 0,-26.697 0,-27.509 0,-0.812 0.239,-0.812 0.478,-1.099 0.239,-0.286 1.958,-2.292 1.958,-2.292 z"
       id="path36"
       inkscape:connector-curvature="0"
       style="fill:#181221" />
    <path
       d="m 134.1445,53.5293 c -5.571,0 -10.087,4.516 -10.087,10.088 0,5.571 4.516,10.087 10.087,10.087 5.571,0 10.088,-4.516 10.088,-10.087 0,-5.572 -4.517,-10.088 -10.088,-10.088 m 5.215,-51.052 c -2.219,0 -4.018,1.799 -4.018,4.018 0,2.219 1.799,4.018 4.018,4.018 2.219,0 4.018,-1.799 4.018,-4.018 0,-2.219 -1.799,-4.018 -4.018,-4.018 m -15.132,4.873 c 0,-0.799 -0.654,-1.454 -1.454,-1.454 h -4.443 c -0.8,0 -1.454,0.655 -1.454,1.454 v 4.017 c 0,0.799 0.654,1.454 1.454,1.454 h 4.443 c 0.8,0 1.454,-0.655 1.454,-1.454 z m -8.32,48.107 c 0,-0.233 -0.218,-0.423 -0.485,-0.423 h -42.23 c -0.267,0 -0.485,0.19 -0.485,0.423 v 17.256 c 0,0.232 0.218,0.422 0.485,0.422 h 42.23 c 0.267,0 0.485,-0.19 0.485,-0.422 z M 72.1205,7.3503 c 0,-0.799 -0.654,-1.454 -1.454,-1.454 h -4.444 c -0.799,0 -1.454,0.655 -1.454,1.454 v 4.017 c 0,0.799 0.655,1.454 1.454,1.454 h 4.444 c 0.8,0 1.454,-0.655 1.454,-1.454 z m -17.268,46.179 c -5.571,0 -10.088,4.516 -10.088,10.088 0,5.571 4.517,10.087 10.088,10.087 5.571,0 10.087,-4.516 10.087,-10.087 0,-5.572 -4.516,-10.088 -10.087,-10.088 m -5.215,-51.052 c -2.219,0 -4.018,1.799 -4.018,4.018 0,2.219 1.799,4.018 4.018,4.018 2.219,0 4.018,-1.799 4.018,-4.018 0,-2.219 -1.799,-4.018 -4.018,-4.018 m 134.149,113.644 H 5.1335 c -1.866,0 -3.393,-1.527 -3.393,-3.393 V 3.3923 c 0,-1.866 1.527,-3.392 3.393,-3.392 h 178.653 c 1.866,0 3.393,1.526 3.393,3.392 v 109.336 c 0,1.866 -1.527,3.393 -3.393,3.393"
       id="path38"
       inkscape:connector-curvature="0"
       style="fill:#181221" />
    <path
       d="m 115.9072,55.4569 c 0,-0.233 -0.218,-0.423 -0.485,-0.423 h -42.23 c -0.267,0 -0.485,0.19 -0.485,0.423 v 17.256 c 0,0.233 0.218,0.423 0.485,0.423 h 42.23 c 0.267,0 0.485,-0.19 0.485,-0.423 z m 0.185,18.286 h -43.569 c -0.276,0 -0.501,-0.203 -0.501,-0.451 v -18.414 c 0,-0.248 0.225,-0.451 0.501,-0.451 h 43.569 c 0.275,0 0.5,0.203 0.5,0.451 v 18.414 c 0,0.248 -0.225,0.451 -0.5,0.451"
       id="path40"
       inkscape:connector-curvature="0"
       style="fill:#3e3845" />
    <path
       d="m 159.7814,0 c -1.161,5.286 -5.047,23.817 -5.462,25.644 -0.427,1.881 -1.197,3.42 -3.59,3.42 H 38.2674 c -2.393,0 -3.163,-1.539 -3.59,-3.42 C 34.2614,23.817 30.3764,5.286 29.2154,0 h 1.78 c 1.405,6.475 4.614,21.653 5.143,24.183 0.59,2.829 1.196,3.42 3.59,3.42 h 109.54 c 2.394,0 2.999,-0.591 3.59,-3.42 0.529,-2.53 3.738,-17.707 5.143,-24.183 z"
       id="path42"
       inkscape:connector-curvature="0"
       style="fill:#0f0c12" />
    <path
       d="m 134.1445,51.343 h -79.292 c -6.779,0 -12.274,5.495 -12.274,12.274 0,6.779 5.495,12.274 12.274,12.274 h 79.292 c 6.779,0 12.274,-5.495 12.274,-12.274 0,-6.779 -5.495,-12.274 -12.274,-12.274 m 41.24,48.511 c -0.158,0.182 -5.878,6.151 -6.123,6.414 -0.172,0.185 -0.452,0.19 -0.452,0.19 H 20.1875 c 0,0 -0.28,-0.005 -0.452,-0.19 -0.245,-0.263 -5.965,-6.232 -6.124,-6.414 -0.246,-0.284 -0.196,-0.462 -0.196,-0.462 V 35.441 c 0,-0.266 0.218,-0.484 0.485,-0.484 h 161.196 c 0.266,0 0.485,0.218 0.485,0.484 v 63.951 c 0,0 0.049,0.178 -0.197,0.462"
       id="path44"
       inkscape:connector-curvature="0"
       style="fill:#d4d1d1;fill-rule:evenodd" />
    <path
       d="M 167.105,82.54 H 95.496 v 23.918 h 71.609 z"
       id="path46"
       inkscape:connector-curvature="0"
       style="fill:#060809" />
    <path
       d="m 136.537,102.19 h 2.03 v -7.612 h -2.03 z m 5.074,-5.582 h 5.076 V 96.1 h -5.076 z m -2.029,3.552 v -1.521 h 7.105 v -0.508 h -7.105 v -3.553 h 9.135 v 5.582 z m 10.151,0 h 2.029 v -5.582 h -2.029 z m 0,2.03 h 2.029 v -1.523 h -2.029 z m 3.0437,-2.03 v -5.582 h 2.03 v 4.061 h 8.12 v 1.521 z m -27.405,0 v -5.582 h 10.15 v 1.523 h -8.12 v 2.538 h 8.12 v 1.521 z m -11.1654,0 v -5.582 h 2.03 v 4.061 h 6.09 v -4.061 h 2.03 v 5.582 z m -3.0453,0 h 2.03 v -5.582 h -2.03 z m 0,2.03 h 2.03 v -1.523 h -2.03 z m -11.1641,-2.03 v -3.552 h 8.12 v -0.507 h -8.12 v -1.523 h 10.15 v 3.553 h -8.121 v 0.508 h 8.121 v 1.521 z M 99.9774,87.9084 h 3.897 v 0.928 h -1.576 c -0.098,0 -0.207,-0.002 -0.328,-0.006 -0.121,-0.004 -0.236,-0.009 -0.346,-0.013 -0.128,-0.008 -0.255,-0.015 -0.382,-0.019 v 0.019 l 0.312,0.312 c 0.089,0.089 0.182,0.186 0.279,0.292 0.098,0.106 0.187,0.208 0.267,0.305 l 1.685,2.06 v 0.852 h -3.636 v -0.915 h 1.36 c 0.093,0 0.197,0.001 0.312,0.003 0.114,0.002 0.222,0.005 0.324,0.009 0.119,0.004 0.239,0.011 0.362,0.019 v -0.019 c -0.097,-0.093 -0.193,-0.188 -0.286,-0.286 -0.08,-0.085 -0.165,-0.175 -0.254,-0.27 -0.089,-0.095 -0.17,-0.185 -0.242,-0.27 l -1.748,-2.124 z m 4.2405,0 h 1.233 l 0.49,0.833 c 0.055,0.093 0.111,0.196 0.168,0.308 0.058,0.112 0.11,0.217 0.156,0.315 0.055,0.114 0.108,0.229 0.159,0.343 h 0.013 c 0.051,-0.114 0.102,-0.229 0.152,-0.343 0.047,-0.098 0.097,-0.203 0.15,-0.315 0.053,-0.112 0.107,-0.215 0.162,-0.308 l 0.477,-0.833 h 1.284 l -1.577,2.479 1.431,2.251 h -1.183 l -0.388,-0.642 c -0.055,-0.093 -0.111,-0.194 -0.168,-0.302 -0.057,-0.108 -0.109,-0.211 -0.156,-0.308 -0.055,-0.111 -0.108,-0.225 -0.159,-0.344 h -0.012 c -0.056,0.119 -0.109,0.233 -0.159,0.344 -0.047,0.097 -0.098,0.2 -0.153,0.308 -0.055,0.108 -0.11,0.209 -0.165,0.302 l -0.382,0.642 h -1.239 l 1.455,-2.257 z m 6.0047,0.852 c -0.146,0.123 -0.219,0.29 -0.219,0.502 0,0.221 0.074,0.394 0.222,0.522 0.149,0.127 0.35,0.19 0.604,0.19 0.254,0 0.454,-0.063 0.598,-0.19 0.144,-0.128 0.216,-0.301 0.216,-0.522 0,-0.207 -0.074,-0.374 -0.223,-0.499 -0.148,-0.125 -0.345,-0.187 -0.591,-0.187 -0.258,0 -0.461,0.061 -0.607,0.184 m 0.083,2.05 c -0.121,0.104 -0.182,0.243 -0.182,0.417 0,0.178 0.061,0.32 0.182,0.426 0.12,0.106 0.291,0.159 0.511,0.159 0.225,0 0.397,-0.053 0.515,-0.159 0.119,-0.106 0.178,-0.248 0.178,-0.426 0,-0.174 -0.059,-0.313 -0.178,-0.417 -0.118,-0.104 -0.29,-0.155 -0.515,-0.155 -0.22,0 -0.391,0.051 -0.511,0.155 m 1.271,-2.915 c 0.227,0.064 0.423,0.156 0.588,0.277 0.166,0.121 0.295,0.27 0.388,0.448 0.093,0.178 0.14,0.379 0.14,0.604 0,0.267 -0.075,0.502 -0.226,0.706 -0.15,0.203 -0.376,0.347 -0.677,0.432 v 0.019 c 0.237,0.085 0.413,0.208 0.528,0.369 0.114,0.161 0.172,0.343 0.172,0.547 0,0.19 -0.04,0.362 -0.118,0.515 -0.079,0.152 -0.19,0.281 -0.334,0.387 -0.144,0.106 -0.319,0.188 -0.524,0.245 -0.206,0.057 -0.436,0.086 -0.69,0.086 -0.255,0 -0.486,-0.03 -0.693,-0.089 -0.208,-0.059 -0.385,-0.144 -0.531,-0.254 -0.146,-0.111 -0.259,-0.243 -0.337,-0.398 -0.078,-0.154 -0.118,-0.325 -0.118,-0.511 0,-0.212 0.058,-0.398 0.172,-0.557 0.115,-0.159 0.292,-0.28 0.534,-0.365 v -0.019 c -0.292,-0.089 -0.515,-0.235 -0.667,-0.436 -0.153,-0.201 -0.229,-0.435 -0.229,-0.702 0,-0.221 0.046,-0.417 0.14,-0.588 0.093,-0.172 0.223,-0.318 0.391,-0.439 0.167,-0.121 0.365,-0.213 0.594,-0.277 0.229,-0.063 0.479,-0.095 0.75,-0.095 0.271,0 0.52,0.032 0.747,0.095 m 1.7004,0.0126 h 1.087 v 4.73 h -1.087 z"
       id="path48"
       inkscape:connector-curvature="0"
       style="fill:#d4d1d1" />
  </g>
</svg>
