<?xml version="1.0" encoding="UTF-8" standalone="no"?>
<svg
   xmlns:dc="http://purl.org/dc/elements/1.1/"
   xmlns:cc="http://creativecommons.org/ns#"
   xmlns:rdf="http://www.w3.org/1999/02/22-rdf-syntax-ns#"
   xmlns:svg="http://www.w3.org/2000/svg"
   xmlns="http://www.w3.org/2000/svg"
   xmlns:sodipodi="http://sodipodi.sourceforge.net/DTD/sodipodi-0.dtd"
   xmlns:inkscape="http://www.inkscape.org/namespaces/inkscape"
   width="400"
   height="408.91547"
   version="1.1"
   id="svg29"
   sodipodi:docname="console.svg"
   inkscape:version="0.92.4 5da689c313, 2019-01-14">
  <metadata
     id="metadata33">
    <rdf:RDF>
      <cc:Work
         rdf:about="">
        <dc:format>image/svg+xml</dc:format>
        <dc:type
           rdf:resource="http://purl.org/dc/dcmitype/StillImage" />
      </cc:Work>
    </rdf:RDF>
  </metadata>
  <sodipodi:namedview
     pagecolor="#ffffff"
     bordercolor="#666666"
     borderopacity="1"
     objecttolerance="10"
     gridtolerance="10"
     guidetolerance="10"
     inkscape:pageopacity="0"
     inkscape:pageshadow="2"
     inkscape:window-width="471"
     inkscape:window-height="442"
     id="namedview31"
     showgrid="false"
     inkscape:zoom="0.5771364"
     inkscape:cx="200"
     inkscape:cy="204.45773"
     inkscape:window-x="0"
     inkscape:window-y="0"
     inkscape:window-maximized="0"
     inkscape:current-layer="svg29" />
  <defs
     id="defs5">
    <clipPath
       id="a">
      <path
         d="M 0,403.24 H 394.448 V 0 H 0 Z"
         id="path2"
         inkscape:connector-curvature="0" />
    </clipPath>
  </defs>
  <g
     clip-path="url(#a)"
     transform="matrix(1.0140754,0,0,-1.0140754,0,408.91546)"
     id="g27">
    <path
       d="M 8.391,0 C 0.864,0 0,4.572 0,8.624 v 390.587 c 0,4.141 3.357,4.028 12.442,4.028 h 369.564 c 9.085,0 12.442,0.113 12.442,-4.028 V 8.624 C 394.448,4.572 393.584,0 386.057,0 Z"
       id="path7"
       inkscape:connector-curvature="0"
       style="fill:#3a3742;fill-rule:evenodd" />
    <path
       d="m 0,160.4541 c 0,15.891 3.253,19.809 11.835,19.809 H 382.8 c 8.582,0 11.648,-3.918 11.648,-19.809 0,0 -394.448,-0.073 -394.448,0"
       id="path9"
       inkscape:connector-curvature="0"
       style="fill:#181221;fill-rule:evenodd" />
    <path
       d="m 0.187,346.9384 v 52.273 c 0,4.14 3.357,4.028 12.442,4.028 h 369.377 c 9.085,0 12.442,0.112 12.442,-4.028 v -52.273 z"
       id="path11"
       inkscape:connector-curvature="0"
       style="fill:#2a2733;fill-rule:evenodd" />
    <path
       d="m 379.1743,7.6283 c 3.615,0 6.546,2.931 6.546,6.546 v 139.754 c 0,3.616 -2.931,6.547 -6.546,6.547 H 15.4603 c -3.615,0 -6.546,-2.931 -6.546,-6.547 V 14.1743 c 0,-3.615 2.931,-6.546 6.546,-6.546 z"
       id="path13"
       inkscape:connector-curvature="0"
       style="fill:#3f3e4a;fill-rule:evenodd" />
    <path
       stroke-miterlimit="10"
       d="m 379.1743,7.6283 c 3.615,0 6.546,2.931 6.546,6.546 v 139.754 c 0,3.616 -2.931,6.547 -6.546,6.547 H 15.4603 c -3.615,0 -6.546,-2.931 -6.546,-6.547 V 14.1743 c 0,-3.615 2.931,-6.546 6.546,-6.546 z"
       id="path15"
       inkscape:connector-curvature="0"
       style="fill:none;stroke:#0e0e10;stroke-width:1.278;stroke-miterlimit:10" />
    <path
       d="m 50.8259,78.6681 h 21.571 c 1.24,0 2.245,-1.005 2.245,-2.245 v -15.426 c 0,-1.24 -1.005,-2.245 -2.245,-2.245 h -21.571 c -1.24,0 -2.244,1.005 -2.244,2.245 v 15.426 c 0,1.24 1.004,2.245 2.244,2.245 m 33.2919,0.0011 h 21.574 c 1.239,0 2.244,-1.005 2.244,-2.244 v -15.431 c 0,-1.24 -1.005,-2.245 -2.244,-2.245 h -21.574 c -1.24,0 -2.244,1.005 -2.244,2.245 v 15.431 c 0,1.239 1.004,2.244 2.244,2.244 m 33.293,0 h 21.574 c 1.239,0 2.244,-1.005 2.244,-2.244 v -15.431 c 0,-1.24 -1.005,-2.245 -2.244,-2.245 h -21.574 c -1.24,0 -2.245,1.005 -2.245,2.245 v 15.431 c 0,1.239 1.005,2.244 2.245,2.244 m 33.2931,0 h 21.574 c 1.239,0 2.244,-1.005 2.244,-2.244 v -15.431 c 0,-1.24 -1.005,-2.245 -2.244,-2.245 h -21.574 c -1.24,0 -2.244,1.005 -2.244,2.245 v 15.431 c 0,1.239 1.004,2.244 2.244,2.244 m 33.293,0 h 21.574 c 1.239,0 2.244,-1.005 2.244,-2.244 v -15.431 c 0,-1.24 -1.005,-2.245 -2.244,-2.245 h -21.574 c -1.24,0 -2.244,1.005 -2.244,2.245 v 15.431 c 0,1.239 1.004,2.244 2.244,2.244 m 33.2931,0 h 21.574 c 1.239,0 2.244,-1.005 2.244,-2.244 v -15.431 c 0,-1.24 -1.005,-2.245 -2.244,-2.245 H 217.29 c -1.24,0 -2.244,1.005 -2.244,2.245 v 15.431 c 0,1.239 1.004,2.244 2.244,2.244 m 33.293,0 h 21.574 c 1.239,0 2.244,-1.005 2.244,-2.244 v -15.431 c 0,-1.24 -1.005,-2.245 -2.244,-2.245 h -21.574 c -1.24,0 -2.245,1.005 -2.245,2.245 v 15.431 c 0,1.239 1.005,2.244 2.245,2.244 m 33.2931,0 h 21.574 c 1.239,0 2.244,-1.005 2.244,-2.244 v -15.431 c 0,-1.24 -1.005,-2.245 -2.244,-2.245 h -21.574 c -1.24,0 -2.244,1.005 -2.244,2.245 v 15.431 c 0,1.239 1.004,2.244 2.244,2.244 m 33.293,0 h 21.574 c 1.239,0 2.244,-1.005 2.244,-2.244 v -15.431 c 0,-1.24 -1.005,-2.245 -2.244,-2.245 h -21.574 c -1.24,0 -2.244,1.005 -2.244,2.245 v 15.431 c 0,1.239 1.004,2.244 2.244,2.244 m 33.2931,0 h 21.574 c 1.239,0 2.244,-1.005 2.244,-2.244 v -15.431 c 0,-1.24 -1.005,-2.245 -2.244,-2.245 h -21.574 c -1.24,0 -2.244,1.005 -2.244,2.245 v 15.431 c 0,1.239 1.004,2.244 2.244,2.244 M 35.1904,46.773 h 21.574 c 1.239,0 2.244,-1.005 2.244,-2.244 V 29.098 c 0,-1.24 -1.005,-2.245 -2.244,-2.245 h -21.574 c -1.24,0 -2.245,1.005 -2.245,2.245 v 15.431 c 0,1.239 1.005,2.244 2.245,2.244 m 33.2932,0 h 21.574 c 1.239,0 2.244,-1.005 2.244,-2.244 V 29.098 c 0,-1.24 -1.005,-2.245 -2.244,-2.245 h -21.574 c -1.24,0 -2.245,1.005 -2.245,2.245 v 15.431 c 0,1.239 1.005,2.244 2.245,2.244 m 33.293,0 h 21.574 c 1.239,0 2.244,-1.005 2.244,-2.244 V 29.098 c 0,-1.24 -1.005,-2.245 -2.244,-2.245 h -21.574 c -1.24,0 -2.244,1.005 -2.244,2.245 v 15.431 c 0,1.239 1.004,2.244 2.244,2.244 m 33.2931,0 h 21.574 c 1.239,0 2.244,-1.005 2.244,-2.244 V 29.098 c 0,-1.24 -1.005,-2.245 -2.244,-2.245 h -21.574 c -1.24,0 -2.244,1.005 -2.244,2.245 v 15.431 c 0,1.239 1.004,2.244 2.244,2.244 m 33.2931,0 h 21.574 c 1.239,0 2.244,-1.005 2.244,-2.244 V 29.098 c 0,-1.24 -1.005,-2.245 -2.244,-2.245 h -21.574 c -1.24,0 -2.244,1.005 -2.244,2.245 v 15.431 c 0,1.239 1.004,2.244 2.244,2.244 m 33.2931,0 h 21.574 c 1.239,0 2.244,-1.005 2.244,-2.244 V 29.098 c 0,-1.24 -1.005,-2.245 -2.244,-2.245 h -21.574 c -1.24,0 -2.244,1.005 -2.244,2.245 v 15.431 c 0,1.239 1.004,2.244 2.244,2.244 m 33.2932,0 h 21.574 c 1.239,0 2.244,-1.005 2.244,-2.244 V 29.098 c 0,-1.24 -1.005,-2.245 -2.244,-2.245 h -21.574 c -1.24,0 -2.244,1.005 -2.244,2.245 v 15.431 c 0,1.239 1.004,2.244 2.244,2.244 m 33.2931,0 h 21.574 c 1.239,0 2.244,-1.005 2.244,-2.244 V 29.098 c 0,-1.24 -1.005,-2.245 -2.244,-2.245 h -21.574 c -1.24,0 -2.245,1.005 -2.245,2.245 v 15.431 c 0,1.239 1.005,2.244 2.245,2.244 m 33.2931,0 h 21.574 c 1.239,0 2.244,-1.005 2.244,-2.244 V 29.098 c 0,-1.24 -1.005,-2.245 -2.244,-2.245 h -21.574 c -1.24,0 -2.245,1.005 -2.245,2.245 v 15.431 c 0,1.239 1.005,2.244 2.245,2.244 m 33.293,0 h 21.574 c 1.239,0 2.244,-1.005 2.244,-2.244 V 29.098 c 0,-1.24 -1.005,-2.245 -2.244,-2.245 h -21.574 c -1.24,0 -2.244,1.005 -2.244,2.245 v 15.431 c 0,1.239 1.004,2.244 2.244,2.244 M 42.8315,111.0212 h 21.574 c 1.239,0 2.244,-1.005 2.244,-2.244 v -15.431 c 0,-1.24 -1.005,-2.245 -2.244,-2.245 h -21.574 c -1.24,0 -2.245,1.005 -2.245,2.245 v 15.431 c 0,1.239 1.005,2.244 2.245,2.244 m 33.2931,0 h 21.574 c 1.239,0 2.244,-1.005 2.244,-2.244 v -15.431 c 0,-1.24 -1.005,-2.245 -2.244,-2.245 h -21.574 c -1.24,0 -2.245,1.005 -2.245,2.245 v 15.431 c 0,1.239 1.005,2.244 2.245,2.244 m 33.2931,0 h 21.574 c 1.239,0 2.244,-1.005 2.244,-2.244 v -15.431 c 0,-1.24 -1.005,-2.245 -2.244,-2.245 h -21.574 c -1.24,0 -2.244,1.005 -2.244,2.245 v 15.431 c 0,1.239 1.004,2.244 2.244,2.244 m 33.2931,0 h 21.574 c 1.239,0 2.244,-1.005 2.244,-2.244 v -15.431 c 0,-1.24 -1.005,-2.245 -2.244,-2.245 h -21.574 c -1.24,0 -2.244,1.005 -2.244,2.245 v 15.431 c 0,1.239 1.004,2.244 2.244,2.244 m 33.2931,0 h 21.574 c 1.239,0 2.244,-1.005 2.244,-2.244 v -15.431 c 0,-1.24 -1.005,-2.245 -2.244,-2.245 h -21.574 c -1.24,0 -2.244,1.005 -2.244,2.245 v 15.431 c 0,1.239 1.004,2.244 2.244,2.244 m 33.2931,0 h 21.574 c 1.239,0 2.244,-1.005 2.244,-2.244 v -15.431 c 0,-1.24 -1.005,-2.245 -2.244,-2.245 h -21.574 c -1.24,0 -2.244,1.005 -2.244,2.245 v 15.431 c 0,1.239 1.004,2.244 2.244,2.244 m 33.2931,0 h 21.574 c 1.239,0 2.244,-1.005 2.244,-2.244 v -15.431 c 0,-1.24 -1.005,-2.245 -2.244,-2.245 h -21.574 c -1.24,0 -2.244,1.005 -2.244,2.245 v 15.431 c 0,1.239 1.004,2.244 2.244,2.244 m 33.2931,0 h 21.574 c 1.239,0 2.244,-1.005 2.244,-2.244 v -15.431 c 0,-1.24 -1.005,-2.245 -2.244,-2.245 h -21.574 c -1.24,0 -2.244,1.005 -2.244,2.245 v 15.431 c 0,1.239 1.004,2.244 2.244,2.244 m 33.2931,0 h 21.574 c 1.239,0 2.244,-1.005 2.244,-2.244 v -15.431 c 0,-1.24 -1.005,-2.245 -2.244,-2.245 h -21.574 c -1.24,0 -2.245,1.005 -2.245,2.245 v 15.431 c 0,1.239 1.005,2.244 2.245,2.244 m 33.2931,0 h 21.574 c 1.239,0 2.244,-1.005 2.244,-2.244 v -15.431 c 0,-1.24 -1.005,-2.245 -2.244,-2.245 h -21.574 c -1.24,0 -2.244,1.005 -2.244,2.245 v 15.431 c 0,1.239 1.004,2.244 2.244,2.244 M 25.4821,142.9525 h 21.574 c 1.239,0 2.244,-1.005 2.244,-2.245 v -15.43 c 0,-1.24 -1.005,-2.245 -2.244,-2.245 h -21.574 c -1.24,0 -2.245,1.005 -2.245,2.245 v 15.43 c 0,1.24 1.005,2.245 2.245,2.245 m 33.293,0 h 21.574 c 1.239,0 2.244,-1.005 2.244,-2.245 v -15.43 c 0,-1.24 -1.005,-2.245 -2.244,-2.245 h -21.574 c -1.24,0 -2.244,1.005 -2.244,2.245 v 15.43 c 0,1.24 1.004,2.245 2.244,2.245 m 33.2931,0 h 21.574 c 1.239,0 2.244,-1.005 2.244,-2.245 v -15.43 c 0,-1.24 -1.005,-2.245 -2.244,-2.245 h -21.574 c -1.24,0 -2.244,1.005 -2.244,2.245 v 15.43 c 0,1.24 1.004,2.245 2.244,2.245 m 33.2931,0 h 21.574 c 1.239,0 2.244,-1.005 2.244,-2.245 v -15.43 c 0,-1.24 -1.005,-2.245 -2.244,-2.245 h -21.574 c -1.24,0 -2.244,1.005 -2.244,2.245 v 15.43 c 0,1.24 1.004,2.245 2.244,2.245 m 33.2931,0 h 21.574 c 1.239,0 2.244,-1.005 2.244,-2.245 v -15.43 c 0,-1.24 -1.005,-2.245 -2.244,-2.245 h -21.574 c -1.24,0 -2.244,1.005 -2.244,2.245 v 15.43 c 0,1.24 1.004,2.245 2.244,2.245 m 33.2932,0 h 21.574 c 1.239,0 2.244,-1.005 2.244,-2.245 v -15.43 c 0,-1.24 -1.005,-2.245 -2.244,-2.245 h -21.574 c -1.24,0 -2.244,1.005 -2.244,2.245 v 15.43 c 0,1.24 1.004,2.245 2.244,2.245 m 33.2931,0 h 21.574 c 1.239,0 2.244,-1.005 2.244,-2.245 v -15.43 c 0,-1.24 -1.005,-2.245 -2.244,-2.245 h -21.574 c -1.24,0 -2.245,1.005 -2.245,2.245 v 15.43 c 0,1.24 1.005,2.245 2.245,2.245 m 33.2931,0 h 21.574 c 1.239,0 2.244,-1.005 2.244,-2.245 v -15.43 c 0,-1.24 -1.005,-2.245 -2.244,-2.245 h -21.574 c -1.24,0 -2.245,1.005 -2.245,2.245 v 15.43 c 0,1.24 1.005,2.245 2.245,2.245 m 33.293,0 h 21.574 c 1.239,0 2.244,-1.005 2.244,-2.245 v -15.43 c 0,-1.24 -1.005,-2.245 -2.244,-2.245 h -21.574 c -1.24,0 -2.244,1.005 -2.244,2.245 v 15.43 c 0,1.24 1.004,2.245 2.244,2.245 m 33.2931,0 h 21.574 c 1.239,0 2.244,-1.005 2.244,-2.245 v -15.43 c 0,-1.24 -1.005,-2.245 -2.244,-2.245 h -21.574 c -1.24,0 -2.244,1.005 -2.244,2.245 v 15.43 c 0,1.24 1.004,2.245 2.244,2.245"
       id="path17"
       inkscape:connector-curvature="0"
       style="fill:#afacb3;fill-rule:evenodd" />
    <path
       d="m 20.0218,196.1421 h 15.094 v 3.595 h -6.107 c -0.377,0 -0.8,-0.009 -1.268,-0.025 -0.467,-0.016 -0.915,-0.033 -1.342,-0.049 -0.492,-0.033 -0.985,-0.058 -1.477,-0.074 v 0.074 l 1.207,1.207 c 0.344,0.344 0.705,0.722 1.083,1.132 0.377,0.41 0.722,0.804 1.034,1.182 l 6.525,7.978 v 3.3 h -14.084 v -3.546 h 5.269 c 0.361,0 0.763,0.004 1.207,0.012 0.443,0.008 0.862,0.021 1.255,0.037 0.46,0.016 0.928,0.041 1.404,0.074 v -0.074 c -0.378,-0.361 -0.747,-0.73 -1.108,-1.108 -0.312,-0.328 -0.64,-0.677 -0.985,-1.046 -0.345,-0.37 -0.657,-0.719 -0.936,-1.047 l -6.771,-8.224 z m 16.4233,0 h 4.777 l 1.896,3.226 c 0.213,0.36 0.431,0.759 0.652,1.194 0.222,0.435 0.423,0.841 0.604,1.219 0.213,0.443 0.418,0.886 0.615,1.329 h 0.049 l 0.591,-1.329 c 0.181,-0.378 0.374,-0.784 0.579,-1.219 0.205,-0.435 0.414,-0.834 0.628,-1.194 l 1.847,-3.226 h 4.974 l -6.107,9.603 5.54,8.717 h -4.58 l -1.502,-2.487 c -0.213,-0.362 -0.431,-0.751 -0.652,-1.17 -0.222,-0.419 -0.423,-0.817 -0.603,-1.194 -0.214,-0.427 -0.419,-0.87 -0.616,-1.33 h -0.049 c -0.214,0.46 -0.419,0.903 -0.616,1.33 -0.181,0.377 -0.378,0.775 -0.591,1.194 -0.213,0.419 -0.427,0.808 -0.64,1.17 l -1.477,2.487 h -4.802 l 5.639,-8.742 z m 23.2565,3.2995 c -0.566,0.476 -0.85,1.124 -0.85,1.945 0,0.854 0.288,1.527 0.862,2.019 0.575,0.493 1.355,0.739 2.34,0.739 0.984,0 1.756,-0.246 2.314,-0.739 0.558,-0.492 0.837,-1.165 0.837,-2.019 0,-0.804 -0.287,-1.449 -0.862,-1.933 -0.574,-0.484 -1.338,-0.726 -2.289,-0.726 -1.002,0 -1.786,0.238 -2.352,0.714 m 0.32,7.941 c -0.468,0.402 -0.702,0.94 -0.702,1.613 0,0.689 0.234,1.239 0.702,1.65 0.468,0.41 1.129,0.615 1.982,0.615 0.87,0 1.535,-0.205 1.995,-0.615 0.459,-0.411 0.689,-0.961 0.689,-1.65 0,-0.673 -0.23,-1.211 -0.689,-1.613 -0.46,-0.402 -1.125,-0.603 -1.995,-0.603 -0.853,0 -1.514,0.201 -1.982,0.603 m 4.925,-11.29 c 0.878,0.246 1.637,0.604 2.277,1.071 0.641,0.468 1.141,1.047 1.502,1.736 0.361,0.69 0.542,1.469 0.542,2.34 0,1.034 -0.292,1.945 -0.874,2.733 -0.583,0.788 -1.457,1.345 -2.622,1.674 v 0.074 c 0.919,0.328 1.6,0.804 2.043,1.428 0.444,0.624 0.665,1.33 0.665,2.118 0,0.738 -0.152,1.403 -0.455,1.994 -0.304,0.591 -0.735,1.092 -1.293,1.502 -0.558,0.41 -1.236,0.726 -2.032,0.948 -0.796,0.222 -1.686,0.333 -2.671,0.333 -0.985,0 -1.88,-0.115 -2.684,-0.345 -0.805,-0.23 -1.49,-0.558 -2.056,-0.985 -0.566,-0.427 -1.002,-0.94 -1.305,-1.539 -0.304,-0.599 -0.456,-1.26 -0.456,-1.982 0,-0.821 0.222,-1.539 0.665,-2.155 0.443,-0.615 1.133,-1.087 2.069,-1.416 v -0.073 c -1.133,-0.345 -1.995,-0.908 -2.586,-1.687 -0.591,-0.78 -0.886,-1.687 -0.886,-2.721 0,-0.854 0.18,-1.613 0.541,-2.278 0.361,-0.664 0.866,-1.231 1.515,-1.699 0.648,-0.467 1.416,-0.825 2.302,-1.071 0.886,-0.246 1.855,-0.369 2.906,-0.369 1.05,0 2.014,0.123 2.893,0.369 m 6.5864,0.0494 h 4.211 v 18.32 h -4.211 z"
       id="path19"
       inkscape:connector-curvature="0"
       style="fill:#f05953" />
    <path
       d="m 122.82,393.477 h 5.755 V 371.9 h -5.755 z m 14.383,-15.822 h 14.387 v -1.439 h -14.387 z m -5.751,10.068 v -4.313 h 20.138 v -1.439 h -20.138 v -10.07 h 25.893 v 15.822 z m 28.771,0 h 5.751 v -15.822 h -5.751 z m 0,5.754 h 5.751 v -4.316 h -5.751 z m 8.6283,-5.7544 v -15.822 h 5.755 v 11.51 h 23.015 v 4.312 z m -77.6792,0 v -15.822 h 28.77 v 4.316 h -23.015 v 7.194 h 23.015 v 4.312 z m -31.6481,0 v -15.822 h 5.755 v 11.51 H 82.54 v -11.51 h 5.755 v 15.822 z m -8.632,4e-4 h 5.755 v -15.822 h -5.755 z m 0,5.754 h 5.755 v -4.316 h -5.755 z m -31.6444,-5.7544 v -10.067 h 23.016 v -1.439 h -23.016 v -4.316 h 28.771 v 10.071 h -23.02 v 1.439 h 23.02 v 4.312 z"
       id="path21"
       inkscape:connector-curvature="0"
       style="fill:#181221" />
    <path
       d="m 121.262,395.035 h 5.755 v -21.577 h -5.755 z m 14.383,-15.821 h 14.387 v -1.439 h -14.387 z m -5.751,10.067 v -4.313 h 20.138 v -1.439 h -20.138 v -10.07 h 25.893 v 15.822 z m 28.771,0 h 5.751 v -15.822 h -5.751 z m 0,5.754 h 5.751 v -4.316 h -5.751 z m 8.6282,-5.7544 v -15.822 h 5.755 v 11.51 h 23.015 v 4.312 z m -77.6792,0 v -15.822 h 28.77 v 4.316 H 95.369 v 7.194 h 23.015 v 4.312 z m -31.648,0 v -15.822 h 5.755 v 11.51 h 17.261 v -11.51 h 5.755 v 15.822 z m -8.632,4e-4 h 5.755 v -15.822 h -5.755 z m 0,5.754 h 5.755 v -4.316 h -5.755 z m -31.6445,-5.7544 v -10.067 h 23.016 v -1.439 h -23.016 v -4.316 h 28.771 v 10.071 h -23.02 v 1.439 h 23.02 v 4.312 z"
       id="path23"
       inkscape:connector-curvature="0"
       style="fill:#5b585b" />
    <path
       d="m 122.041,394.256 h 5.755 v -21.577 h -5.755 z m 14.383,-15.821 h 14.387 v -1.439 h -14.387 z m -5.751,10.067 v -4.313 h 20.138 v -1.439 h -20.138 v -10.07 h 25.893 v 15.822 z m 28.771,0 h 5.751 V 372.68 h -5.751 z m 0,5.754 h 5.751 v -4.316 h -5.751 z m 8.6283,-5.7544 v -15.822 h 5.755 v 11.51 h 23.015 v 4.312 z m -77.6792,0 v -15.822 h 28.77 v 4.316 h -23.015 v 7.194 h 23.015 v 4.312 z m -31.6481,0 v -15.822 H 64.5 v 11.51 h 17.261 v -11.51 h 5.755 v 15.822 z m -8.632,4e-4 h 5.755 V 372.68 h -5.755 z m 0,5.754 h 5.755 v -4.316 h -5.755 z m -31.6444,-5.7544 v -10.067 h 23.016 v -1.439 h -23.016 v -4.316 h 28.771 v 10.071 h -23.02 v 1.439 h 23.02 v 4.312 z"
       id="path25"
       inkscape:connector-curvature="0"
       style="fill:#2a2733" />
  </g>
</svg>
