<?xml version="1.0" encoding="UTF-8" standalone="no"?>
<svg
   xmlns:dc="http://purl.org/dc/elements/1.1/"
   xmlns:cc="http://creativecommons.org/ns#"
   xmlns:rdf="http://www.w3.org/1999/02/22-rdf-syntax-ns#"
   xmlns:svg="http://www.w3.org/2000/svg"
   xmlns="http://www.w3.org/2000/svg"
   xmlns:sodipodi="http://sodipodi.sourceforge.net/DTD/sodipodi-0.dtd"
   xmlns:inkscape="http://www.inkscape.org/namespaces/inkscape"
   viewBox="0 0 500.00001 186.79288"
   version="1.1"
   id="svg218"
   sodipodi:docname="consolegame.svg"
   width="500"
   height="186.79288"
   inkscape:version="0.92.4 5da689c313, 2019-01-14">
  <metadata
     id="metadata224">
    <rdf:RDF>
      <cc:Work
         rdf:about="">
        <dc:format>image/svg+xml</dc:format>
        <dc:type
           rdf:resource="http://purl.org/dc/dcmitype/StillImage" />
      </cc:Work>
    </rdf:RDF>
  </metadata>
  <defs
     id="defs222" />
  <sodipodi:namedview
     pagecolor="#ffffff"
     bordercolor="#666666"
     borderopacity="1"
     objecttolerance="10"
     gridtolerance="10"
     guidetolerance="10"
     inkscape:pageopacity="0"
     inkscape:pageshadow="2"
     inkscape:window-width="640"
     inkscape:window-height="480"
     id="namedview220"
     showgrid="false"
     inkscape:zoom="0.542"
     inkscape:cx="250"
     inkscape:cy="93.396442"
     inkscape:window-x="0"
     inkscape:window-y="0"
     inkscape:window-maximized="0"
     inkscape:current-layer="svg218">
    <inkscape:grid
       type="xygrid"
       id="grid1031"
       originx="0"
       originy="3.2227344e-06" />
  </sodipodi:namedview>
  <g
     id="g6"
     style="fill:#282424">
    <path
       d="m 178.40871,0 h 35.8233 v 186.73844 h -35.8233 z"
       id="path2"
       inkscape:connector-curvature="0" />
    <path
       d="m 214.232,182.49191 h 16.55058 v 4.24654 H 214.232 Z"
       id="path4"
       inkscape:connector-curvature="0" />
  </g>
  <g
     transform="matrix(0.54442694,0,0,0.54442694,0,0.05444)"
     id="g84">
    <path
       d="M 24.7,0 H 34.8 V 1.9 H 322.2 V 0 h 10.1 C 354.7,0.9 357,20.4 357,20.4 v 286.8 c 0,0 0.6,5.7 -2.1,8.5 -5.2,5.4 -23.2,23.3 -27.2,27.3 H 26.1 C 26.1,343 4.8,322.4 2.6,321.4 1.1,319.4 0,316 0,307.7 V 20.3 C 0,20.3 2.4,1 24.7,0 Z"
       id="path8"
       inkscape:connector-curvature="0"
       style="fill:#312f2f" />
    <path
       d="m 327.9,342.3 c -0.1,0.3 -0.1,0.5 -0.2,0.6 H 28.1 c 0,0 -8.2,-138.1 41.8,-144.9 9.2,-1.1 20.8,1.3 46.9,7.6 26.2,6.2 95.9,6.2 122.1,0 26.2,-6.2 37.6,-7.6 46.9,-7.6 17.3,0 28,16.9 34.5,39.2 11.7,40.1 9.6,97.6 7.6,105.1 z"
       id="path10"
       inkscape:connector-curvature="0"
       style="fill:#3f3f3f" />
    <path
       d="m 178.6,215.1 c -35.4,0 -42.4,-1.7 -48.5,-2.5 -6,-0.8 -4.2,4.7 -4.2,4.7 0,0 3.1,20.4 3.5,28.1 0.4,7.7 8.7,6.7 8.7,6.7 h 81 c 0,0 8.3,1.1 8.7,-6.7 0.4,-7.8 3.5,-28.1 3.5,-28.1 0,0 1.8,-5.5 -4.2,-4.7 -6.1,0.8 -13.2,2.5 -48.5,2.5 z"
       id="path12"
       inkscape:connector-curvature="0"
       style="fill:#181515" />
    <ellipse
       cx="178.60001"
       cy="106"
       rx="152.10001"
       ry="87.400002"
       id="ellipse14"
       style="fill:#30302f" />
    <ellipse
       cx="178.60001"
       cy="105.8"
       rx="150.5"
       ry="85.699997"
       id="ellipse16"
       style="fill:#181515" />
    <ellipse
       cx="178.60001"
       cy="103.8"
       rx="123.7"
       ry="69.5"
       id="ellipse18"
       style="fill:#2c2929" />
    <path
       d="m 186.3,140.3 -7.9,-8 -7.6,8"
       id="path20"
       inkscape:connector-curvature="0"
       style="fill:#241c1e" />
    <g
       id="g28"
       style="fill:#929397">
      <path
         d="m 202.3,239 h -7.6 v -1.8 h 5.2 c -0.4,-1.1 -0.7,-2.1 -1,-3 -0.8,-2.3 -1.5,-4.7 -2.3,-7 -0.2,-0.6 -0.7,-1.2 -1.2,-1.4 -0.8,-0.2 -1.1,0.7 -1.3,1.4 -1.2,3.6 -2.3,7.1 -3.5,10.7 -0.3,0.8 -0.6,1.1 -1.5,1.1 -2.3,-0.1 -4.7,0 -7,0 -2.4,0 -3.9,-1.6 -3.9,-4 0,-2.2 -0.1,-4.4 0,-6.6 0.1,-2.5 1.5,-4 3.9,-4 h 6.4 v 1.9 h -5.4 c -2.5,0 -3.1,0.6 -3.1,3.3 v 5 c 0,1.8 0.8,2.6 2.5,2.7 h 4.1 v -5.8 h -3.4 v -1.8 h 5.4 v 7.6 h 0.3 c 1.1,-3.5 2.3,-7 3.4,-10.5 0.6,-2 1.8,-2.8 3.8,-2.5 1.1,0.2 1.9,0.8 2.2,1.8 1.4,4.2 2.7,8.4 4.1,12.6 0,0.1 -0.1,0.2 -0.1,0.3 z m -47.5,0 v -1.8 h 6 c 1.7,0 2.9,-1.2 3,-2.8 0.1,-1.5 -1.2,-2.9 -2.8,-3 -0.7,0 -1.3,0 -2,-0.1 -1,-0.1 -1.8,-1.1 -1.8,-2.2 0,-1.1 0.7,-2.1 1.8,-2.1 2.2,-0.1 4.3,0 6.6,0 v 1.8 h -6.4 v 0.6 c 0.6,0 1.2,0.1 1.8,0.1 2.3,0.1 3.9,1.4 4.5,3.7 0.7,2.8 -1.3,5.7 -4,5.8 -2.2,0.1 -4.3,0 -6.7,0 z"
         id="path22"
         inkscape:connector-curvature="0" />
      <path
         d="m 154.8,236.5 v -1.9 h 6.4 v -0.5 c -0.7,0 -1.3,-0.1 -2,-0.1 -1.8,0 -3.2,-0.9 -4,-2.6 -0.8,-1.7 -0.7,-3.4 0.4,-5 0.7,-1.1 1.8,-1.8 3,-1.9 2.2,-0.1 4.5,0 6.8,0 v 1.8 h -6.1 c -2,0 -3.3,1.9 -2.7,3.8 0.4,1.1 1.4,1.9 2.7,2 0.6,0 1.3,0 1.9,0.1 1,0.1 1.8,1.1 1.8,2.1 0,1.1 -0.8,2.1 -1.7,2.2 z m 22.5,-12 v 1.8 h -6 c -2.1,0 -2.8,0.7 -2.8,2.9 v 5.2 c 0,2 0.8,2.8 2.7,2.8 h 6 v 1.9 H 170 c -1.7,-0.1 -3.2,-1.7 -3.3,-3.5 -0.1,-2.5 -0.1,-5.1 0,-7.6 0,-1.6 1.4,-3.3 3,-3.4 2.5,-0.2 5,-0.1 7.6,-0.1 z m 13.6,14.4 c 1.3,-4 2.5,-7.9 3.8,-11.7 0.1,-0.3 0.4,-0.6 0.6,-0.7 0.1,-0.1 0.5,0.3 0.6,0.5 1,3.1 2.1,6.2 3.1,9.4 h -4.3 c 0,-0.5 -0.1,-0.9 -0.1,-1.3 -0.1,0 -0.1,0 -0.2,-0.1 -0.2,0.7 -0.5,1.4 -0.7,2.2 -0.7,2 -0.7,2 -2.8,1.7 z m 3.7,-4.5 h 1.5 c -0.2,-0.7 -0.4,-1.4 -0.6,-2 h -0.3 c -0.1,0.6 -0.3,1.2 -0.6,2 z m -10.1,-0.2 c -0.6,-0.2 -0.9,-0.3 -1.3,-0.4 v -1.6 h 2.8 v 4.3 c -1.4,0 -2.9,0.1 -4.3,-0.1 -0.4,0 -0.9,-0.7 -1,-1.2 -0.1,-2.3 -0.1,-4.6 0,-6.9 0,-0.8 0.5,-1.3 1.3,-1.3 h 6.5 v 1.8 h -4.8 c -1,0 -1.3,0.3 -1.3,1.3 0.1,1.1 0,2.2 0,3.2 0.1,1.4 0.7,1.7 2.1,0.9 z"
         id="path24"
         inkscape:connector-curvature="0" />
      <path
         d="m 171.1,234.5 c 2,0.4 4,0 6.1,0.2 v 1.7 c -2.4,0 -4.7,0.1 -7,-0.1 -0.4,0 -0.9,-0.8 -1,-1.3 -0.2,-0.9 0,-1.9 0,-3 h 6.6 v 1.7 h -4.6 c 0,0.4 -0.1,0.6 -0.1,0.8 z m 6.2,-7.5 v 1.7 c -2,0.3 -4.1,-0.2 -6.1,0.3 v 0.5 h 4.6 v 1.8 h -6.5 c 0,-1.1 -0.1,-2.2 0,-3.3 0.1,-0.4 0.7,-1 1,-1 z"
         id="path26"
         inkscape:connector-curvature="0" />
    </g>
    <path
       d="m 152.6,144.9 -1.3,0.1 c 0,-0.9 -0.3,-1.4 -0.9,-1.4 -0.7,0 -1,0.7 -1,2.1 0,0.8 0.1,1.4 0.3,1.6 0.2,0.3 0.4,0.4 0.8,0.4 0.5,0 0.8,-0.4 1,-1.2 l 1.2,0.1 c -0.1,0.8 -0.3,1.4 -0.7,1.8 -0.4,0.4 -0.9,0.6 -1.5,0.6 -0.7,0 -1.3,-0.3 -1.8,-0.9 -0.4,-0.6 -0.7,-1.4 -0.7,-2.4 0,-1 0.2,-1.8 0.7,-2.4 0.4,-0.6 1,-0.9 1.8,-0.9 1.2,0 1.9,0.8 2.1,2.5 z m 2.9,-2.4 1.7,6.4 h -1.4 l -0.3,-1.3 h -1.8 l -0.3,1.3 h -1.1 l 1.7,-6.4 z m -1.4,3.9 h 1.2 l -0.6,-2.3 z m 4.7,0 v 2.5 h -1.3 v -6.4 h 2.4 c 0.4,0 0.8,0.1 1.1,0.2 0.3,0.1 0.5,0.3 0.7,0.7 0.2,0.3 0.3,0.7 0.3,1.1 0,0.8 -0.3,1.3 -0.9,1.7 l 1,2.8 h -1.4 l -0.8,-2.5 h -1.1 z m 0,-2.7 v 1.6 h 0.8 c 0.3,0 0.4,0 0.6,-0.1 0.1,0 0.2,-0.1 0.3,-0.3 0.1,-0.1 0.1,-0.3 0.1,-0.5 0,-0.2 0,-0.3 -0.1,-0.5 -0.1,-0.2 -0.2,-0.2 -0.3,-0.3 h -1.4 z m 7.3,-1.2 v 1.3 h -1.3 v 5.2 h -1.3 v -5.2 h -1.4 v -1.3 z m 1.7,3.9 v 2.5 h -1.3 v -6.4 h 2.4 c 0.4,0 0.8,0.1 1.1,0.2 0.3,0.1 0.5,0.3 0.7,0.7 0.2,0.3 0.3,0.7 0.3,1.1 0,0.8 -0.3,1.3 -0.9,1.7 l 1,2.8 h -1.4 l -0.8,-2.5 h -1.1 z m 0,-2.7 v 1.6 h 0.8 c 0.3,0 0.4,0 0.6,-0.1 0.1,0 0.2,-0.1 0.3,-0.3 0.1,-0.1 0.1,-0.3 0.1,-0.5 0,-0.2 0,-0.3 -0.1,-0.5 l -0.3,-0.3 h -1.4 z m 4.7,-1.2 v 6.4 h -1.3 v -6.4 z m 0.4,0 h 1.7 c 0.7,0 1.2,0.1 1.5,0.3 0.3,0.2 0.6,0.6 0.9,1.1 0.3,0.5 0.4,1.1 0.4,1.8 0,0.9 -0.2,1.7 -0.7,2.3 -0.5,0.6 -1.1,0.9 -1.9,0.9 h -1.9 z m 1.3,1.2 v 4 h 0.5 c 0.5,0 0.8,-0.2 1,-0.6 0.2,-0.4 0.3,-0.9 0.3,-1.4 0,-0.4 -0.1,-0.7 -0.2,-1.1 -0.1,-0.3 -0.3,-0.6 -0.5,-0.7 -0.2,-0.1 -0.4,-0.2 -0.7,-0.2 z m 7.9,1.8 c 0,0 0,2 -0.7,2.8 -0.7,0.7 -0.9,0.8 -1.5,0.8 -0.7,0 -1.3,-0.3 -1.7,-0.9 -0.4,-0.6 -0.6,-1.4 -0.6,-2.3 0,-1 0.2,-1.8 0.6,-2.5 0.4,-0.6 1,-0.9 1.7,-0.9 0.6,0 1.1,0.2 1.5,0.6 0.4,0.4 0.6,0.9 0.7,1.6 l -1.2,0.2 c -0.1,-0.8 -0.4,-1.2 -0.9,-1.2 -0.3,0 -0.6,0.2 -0.8,0.6 -0.2,0.4 -0.3,0.9 -0.3,1.6 0,0.7 0.1,1.2 0.3,1.5 0.2,0.3 0.5,0.5 0.8,0.5 0.2,0 0.4,-0.1 0.6,-0.3 0.2,-0.2 0.3,-0.5 0.3,-0.8 h -1 v -1.2 h 2.2 z m 4.2,-1.8 h -2.6 v 1.3 h 2 v 1.2 h -2 v 1.4 h 2.6 v 1.3 h -3.9 v -6.4 h 3.9 z m 5,-1.2 v 6.4 H 190 v -6.4 z m 4.5,0 v 6.4 h -1.1 l -2.1,-4.3 v 4.3 h -1 v -6.4 h 1.4 l 1.8,3.8 v -3.8 z m 1.5,4.1 V 149 H 196 v -6.4 h 2.1 c 0.5,0 0.8,0.1 1.1,0.2 0.3,0.1 0.5,0.3 0.7,0.6 0.2,0.3 0.3,0.7 0.3,1.1 0,0.3 -0.1,0.6 -0.2,0.9 -0.1,0.3 -0.3,0.5 -0.4,0.7 -0.2,0.2 -0.4,0.3 -0.6,0.3 -0.2,0.1 -0.5,0.1 -0.9,0.1 h -0.8 z m 0,-1.2 h 0.8 c 0.3,0 0.5,-0.1 0.7,-0.3 0.2,-0.2 0.2,-0.4 0.2,-0.6 0,-0.3 -0.1,-0.5 -0.2,-0.6 -0.1,-0.2 -0.4,-0.2 -0.6,-0.2 h -0.8 v 1.7 z m 7.5,-2.9 v 4 c 0,0.6 -0.1,1.1 -0.2,1.4 -0.1,0.3 -0.4,0.6 -0.7,0.8 -0.3,0.2 -0.8,0.3 -1.3,0.3 -0.5,0 -0.9,-0.1 -1.2,-0.3 -0.3,-0.2 -0.5,-0.4 -0.7,-0.8 -0.2,-0.4 -0.2,-0.8 -0.2,-1.5 v -4 h 1.4 v 4 c 0,0.3 0,0.6 0.1,0.8 0,0.2 0.1,0.3 0.3,0.4 0.2,0.1 0.3,0.1 0.5,0.1 0.2,0 0.4,0 0.6,-0.1 0.2,-0.1 0.2,-0.2 0.3,-0.4 0,-0.2 0.1,-0.4 0.1,-0.8 v -4 h 1 z m 4.3,0 v 1.3 h -1.3 v 5.2 h -1.3 v -5.2 h -1.4 v -1.3 z"
       id="path30"
       inkscape:connector-curvature="0"
       style="fill:#241c1e" />
    <path
       d="M 272.3,122.3 H 84.8 C 74.5,122.3 66,113.8 66,103.5 V 101 C 66,90.7 74.5,82.2 84.8,82.2 h 187.4 c 10.3,0 18.8,8.5 18.8,18.8 v 2.5 c 0.1,10.3 -8.4,18.8 -18.7,18.8 z"
       id="path32"
       inkscape:connector-curvature="0"
       style="fill:#181515" />
    <path
       d="M 79.300003,88.699997 H 277.69999 V 116.9 H 79.300003 Z"
       id="path34"
       inkscape:connector-curvature="0" />
    <path
       d="M 80.300003,89.699997 H 276.69999 V 115.9 H 80.300003 Z"
       id="path36"
       inkscape:connector-curvature="0"
       style="fill:#732a46" />
    <path
       d="M 79.300003,102.3 H 277.69999 v 1 H 79.300003 Z"
       id="path38"
       inkscape:connector-curvature="0"
       style="fill:#010102" />
    <path
       d="m 43.5,220.3 c 6.2,-12.2 16,-18.4 27.5,-20 9.2,-1.1 22.7,3.9 48.9,10.1 13.1,3.1 33.9,4.7 58,4.6 24.1,0 44.9,-1.5 58,-4.6 26.2,-6.2 39.6,-11.2 48.9,-10.1 11.5,1.6 22.5,7.4 28.6,19.6 -6.5,-13.2 -15.5,-21.9 -28,-21.9 -9.3,0 -20.8,1.3 -46.9,7.6 -13,3.1 -36.8,4.7 -60.6,4.7 -24.1,0 -48.3,-1.5 -61.4,-4.7 -26.2,-6.2 -37.7,-8.7 -46.9,-7.6 -11.5,1.6 -19.9,10.1 -26.1,22.3 z"
       id="path40"
       inkscape:connector-curvature="0"
       style="fill:#181515" />
    <path
       d="m 286.3,277.2 c 0,13.2 -15.2,15.5 -15.2,15.5 h -185 c -2.7,0 -15.2,-2.2 -15.2,-15.5 0,-13.2 15.2,-15.5 15.2,-15.5 h 185 c 0,0 15.2,2.3 15.2,15.5 z"
       id="path42"
       inkscape:connector-curvature="0"
       style="fill:#3f4040" />
    <path
       d="M 274,289.1 H 83.4 c -4.8,0 -8.8,-3.9 -8.8,-8.8 v -6.1 c 0,-4.8 3.9,-8.8 8.8,-8.8 H 274 c 4.8,0 8.8,3.9 8.8,8.8 v 6.1 c 0,4.9 -3.9,8.8 -8.8,8.8 z"
       id="path44"
       inkscape:connector-curvature="0"
       style="fill:#333333" />
    <path
       d="m 269.7,285.4 h -31.4 c -4.5,0 -8.2,-3.7 -8.2,-8.2 0,-4.5 3.7,-8.2 8.2,-8.2 h 31.4 c 4.5,0 8.2,3.7 8.2,8.2 0,4.5 -3.7,8.2 -8.2,8.2 z"
       id="path46"
       inkscape:connector-curvature="0"
       style="fill:#212020" />
    <path
       d="m 270.1,282.2 h -32.2 c -2.5,0 -4.6,-2.1 -4.6,-4.6 v -0.9 c 0,-2.5 2.1,-4.6 4.6,-4.6 h 32.2 c 2.5,0 4.6,2.1 4.6,4.6 v 0.9 c -0.1,2.6 -2.1,4.6 -4.6,4.6 z"
       id="path48"
       inkscape:connector-curvature="0"
       style="fill:#6177b3" />
    <circle
       cx="240.10001"
       cy="277.29999"
       r="1"
       id="circle50"
       style="fill:#45537c" />
    <circle
       cx="247"
       cy="277.29999"
       r="1"
       id="circle52"
       style="fill:#45537c" />
    <circle
       cx="253.89999"
       cy="277.29999"
       r="1"
       id="circle54"
       style="fill:#45537c" />
    <circle
       cx="260.79999"
       cy="277.29999"
       r="1"
       id="circle56"
       style="fill:#45537c" />
    <circle
       cx="267.70001"
       cy="277.29999"
       r="1"
       id="circle58"
       style="fill:#45537c" />
    <path
       d="M 119,285.4 H 87.6 c -4.5,0 -8.2,-3.7 -8.2,-8.2 0,-4.5 3.7,-8.2 8.2,-8.2 H 119 c 4.5,0 8.2,3.7 8.2,8.2 0,4.5 -3.7,8.2 -8.2,8.2 z"
       id="path60"
       inkscape:connector-curvature="0"
       style="fill:#212020" />
    <path
       d="M 119.4,282.2 H 87.1 c -2.5,0 -4.6,-2.1 -4.6,-4.6 v -0.9 c 0,-2.5 2.1,-4.6 4.6,-4.6 h 32.2 c 2.5,0 4.6,2.1 4.6,4.6 v 0.9 c 0,2.6 -2,4.6 -4.5,4.6 z"
       id="path62"
       inkscape:connector-curvature="0"
       style="fill:#cbcfd8" />
    <path
       d="m 106.1,272.2 c -2,0 -3.5,2.2 -3.5,5 0,2.8 1.6,5 3.5,5 H 94.7 c 2,0 3.5,-2.2 3.5,-5 0,-2.8 -1.6,-5 -3.5,-5 z"
       id="path64"
       inkscape:connector-curvature="0"
       style="fill:#7d8189" />
    <path
       d="M 99.800003,272.20001 H 100.9 v 10 h -1.099997 z"
       id="path66"
       inkscape:connector-curvature="0"
       style="fill:#6b6d72" />
    <path
       d="m 94.7,272.2 h -8 c -2,0 -3.5,2.2 -3.5,5 0,2.8 1.6,5 3.5,5 h 8 c 2,0 3.5,-2.2 3.5,-5 0,-2.8 -1.6,-5 -3.5,-5 z m 19.4,0 h -8 c -2,0 -3.5,2.2 -3.5,5 0,2.8 1.6,5 3.5,5 h 8 c 2,0 3.5,-2.2 3.5,-5 0,-2.8 -1.6,-5 -3.5,-5 z"
       id="path68"
       inkscape:connector-curvature="0"
       style="fill:#929397" />
    <path
       d="m 322.2,1.9 v 12 c 0,0 -0.1,1.5 -2.1,1.5 H 37 c -2,0 -2.1,-1.5 -2.1,-1.5 V 1.9 L 178.6,2 Z"
       id="path70"
       inkscape:connector-curvature="0"
       style="fill:#444546" />
    <path
       d="m 36.099998,0 h 2.6 v 13.7 h -2.6 z m 4,0 h 2.6 v 13.7 h -2.6 z m 4,0 h 2.6 v 13.7 h -2.6 z m 4,0 h 2.6 v 13.7 h -2.6 z m 4,0 h 2.6 v 13.7 h -2.6 z m 4,0 h 2.6 v 13.7 h -2.6 z m 4.100003,0 h 2.6 v 13.7 h -2.6 z m 3.999996,0 h 2.6 v 13.7 h -2.6 z m 4.100006,0 h 2.6 v 13.7 h -2.6 z m 4,0 h 2.6 v 13.7 h -2.6 z m 4.099999,0 h 2.6 v 13.7 h -2.6 z m 4,0 h 2.6 v 13.7 h -2.6 z m 3.900001,0 h 2.6 v 13.7 h -2.6 z m 4,0 h 2.6 v 13.7 h -2.6 z m 4.099999,0 h 2.6 v 13.7 h -2.6 z m 4,0 h 2.6 v 13.7 h -2.6 z M 100.5,0 h 2.6 v 13.7 h -2.6 z m 4,0 h 2.6 v 13.7 h -2.6 z m 4,0 h 2.6 v 13.7 h -2.6 z m 4,0 h 2.6 v 13.7 h -2.6 z m 4,0 h 2.6 v 13.7 h -2.6 z m 4,0 h 2.6 v 13.7 h -2.6 z m 4.1,0 h 2.6 v 13.7 h -2.6 z m 4.00001,0 h 2.6 v 13.7 h -2.6 z m 4,0 h 2.6 v 13.7 h -2.6 z m 4,0 h 2.6 v 13.7 h -2.6 z M 140.7,0 h 2.6 v 13.7 h -2.6 z m 4,0 h 2.6 v 13.7 h -2.6 z m 3.90001,0 h 2.6 v 13.7 h -2.6 z M 152.7,0 h 2.6 v 13.7 h -2.6 z m 4,0 h 2.6 v 13.7 h -2.6 z m 4,0 h 2.6 v 13.7 h -2.6 z m 4.3,0 h 2.6 V 13.7 H 165 Z m 4.10001,0 h 2.6 v 13.7 h -2.6 z m 4,0 h 2.6 v 13.7 h -2.6 z M 177,0 h 2.6 V 13.7 H 177 Z m 4,0 h 2.6 V 13.7 H 181 Z m 4.10001,0 h 2.6 v 13.7 h -2.6 z m 4,0 h 2.6 v 13.7 h -2.6 z M 193.2,0 h 2.6 v 13.7 h -2.6 z m 4,0 h 2.6 v 13.7 h -2.6 z m 4.1,0 h 2.6 v 13.7 h -2.6 z m 4,0 h 2.6 v 13.7 h -2.6 z m 3.9,0 h 2.6 v 13.7 h -2.6 z m 4,0 h 2.6 v 13.7 h -2.6 z m 4.1,0 h 2.6 v 13.7 h -2.6 z m 4,0 h 2.6 v 13.7 h -2.6 z m 4.4,0 h 2.6 v 13.7 h -2.6 z m 4.1,0 h 2.6 v 13.7 h -2.6 z m 4,0 h 2.6 v 13.7 h -2.6 z m 3.9,0 h 2.6 v 13.7 h -2.6 z m 4,0 h 2.6 v 13.7 h -2.6 z m 4.1,0 h 2.6 v 13.7 h -2.6 z m 4,0 h 2.6 v 13.7 h -2.6 z m 4.09999,0 h 2.6 v 13.7 h -2.6 z m 4,0 h 2.6 v 13.7 h -2.6 z M 262,0 h 2.6 V 13.7 H 262 Z m 4,0 h 2.6 V 13.7 H 266 Z m 3.89999,0 h 2.6 v 13.7 h -2.6 z m 4,0 h 2.6 v 13.7 h -2.6 z M 278,0 h 2.6 V 13.7 H 278 Z m 4,0 h 2.6 V 13.7 H 282 Z m 4.20001,0 h 2.6 v 13.7 h -2.6 z m 4.09998,0 h 2.6 v 13.7 h -2.6 z m 4,0 h 2.6 v 13.7 h -2.6 z m 3.90002,0 h 2.6 v 13.7 h -2.6 z m 4,0 h 2.6 v 13.7 h -2.6 z m 4.09998,0 h 2.6 v 13.7 h -2.6 z m 4,0 h 2.6 v 13.7 h -2.6 z m 4.1,0 h 2.6 v 13.7 h -2.6 z m 4,0 h 2.6 v 13.7 h -2.6 z"
       id="path72"
       inkscape:connector-curvature="0"
       style="fill:#282424" />
    <path
       d="m 248.4,299.2 h -0.7 l -0.4,-1 c 0,-0.1 -0.1,-0.1 -0.1,-0.2 0,-0.1 -0.1,-0.1 -0.1,-0.2 -0.1,0 -0.1,-0.1 -0.2,-0.1 H 246 v 1.5 h -0.7 v -3.7 h 2.3 c 0.1,0 0.2,0 0.2,0.1 0.1,0 0.1,0.1 0.2,0.1 l 0.2,0.2 c 0.1,0.1 0.1,0.1 0.1,0.2 0,0.1 0.1,0.1 0.1,0.2 v 0.2 c 0,0.2 -0.1,0.4 -0.2,0.6 -0.1,0.2 -0.3,0.3 -0.5,0.4 0.2,0.1 0.3,0.3 0.4,0.6 z m -2.5,-2.1 h 1.2 c 0.1,0 0.2,0 0.2,-0.1 0.1,0 0.1,-0.1 0.1,-0.2 v -0.2 c 0,-0.2 -0.1,-0.3 -0.2,-0.4 -0.1,-0.1 -0.3,-0.1 -0.5,-0.1 h -1 v 1 z m 6,2.1 H 249 v -3.7 h 2.8 v 0.6 h -2.1 v 0.8 h 1.9 v 0.6 h -1.9 v 1 h 2.1 v 0.7 z m 2.1,0.1 c -0.3,0 -0.5,0 -0.7,-0.1 -0.2,-0.1 -0.4,-0.2 -0.5,-0.3 -0.1,-0.1 -0.2,-0.3 -0.3,-0.4 -0.1,-0.2 -0.1,-0.4 -0.1,-0.6 h 0.7 c 0,0.1 0,0.2 0.1,0.3 0.1,0.1 0.1,0.2 0.2,0.2 0.1,0.1 0.2,0.1 0.3,0.1 h 0.6 c 0.1,0 0.2,-0.1 0.2,-0.1 0.1,0 0.1,-0.1 0.2,-0.2 0,-0.1 0.1,-0.1 0.1,-0.2 0,-0.1 0,-0.1 -0.1,-0.2 0,-0.1 -0.1,-0.1 -0.2,-0.1 -0.1,0 -0.2,-0.1 -0.3,-0.1 -0.1,0 -0.3,-0.1 -0.5,-0.1 -0.2,0 -0.4,-0.1 -0.5,-0.2 -0.1,-0.1 -0.3,-0.1 -0.4,-0.2 -0.1,-0.1 -0.2,-0.2 -0.2,-0.3 0,-0.1 -0.1,-0.2 -0.1,-0.4 0,-0.2 0,-0.3 0.1,-0.4 l 0.3,-0.3 c 0.1,-0.1 0.3,-0.2 0.4,-0.2 0.2,-0.1 0.4,-0.1 0.6,-0.1 0.2,0 0.4,0 0.6,0.1 0.2,0.1 0.3,0.1 0.5,0.2 0.2,0.1 0.2,0.2 0.3,0.4 0.1,0.2 0.1,0.3 0.1,0.5 h -0.7 c 0,-0.4 -0.3,-0.6 -0.8,-0.6 -0.2,0 -0.4,0 -0.5,0.1 -0.1,0.1 -0.2,0.2 -0.2,0.3 v 0.1 l 0.1,0.1 c 0,0 0.1,0.1 0.2,0.1 0.1,0 0.2,0.1 0.3,0.1 0.1,0 0.2,0 0.3,0.1 0.1,0 0.2,0.1 0.3,0.1 0.1,0 0.2,0.1 0.3,0.1 0.1,0.1 0.2,0.1 0.3,0.2 0.1,0.1 0.1,0.2 0.2,0.3 0,0.1 0.1,0.2 0.1,0.4 0,0.2 0,0.3 -0.1,0.5 -0.1,0.2 -0.2,0.3 -0.3,0.4 -0.1,0.1 -0.3,0.2 -0.4,0.2 -0.1,0.2 -0.3,0.2 -0.5,0.2 z m 5,-0.1 h -2.8 v -3.7 h 2.8 v 0.6 h -2.1 v 0.8 h 1.9 v 0.6 h -1.9 v 1 h 2.1 z m 3.4,-3 h -1.2 v 3.1 h -0.7 v -3.1 h -1.1 v -0.6 h 3 z M 91.9,295.3 h 1.9 c 0.1,0 0.3,0 0.4,0.1 0.1,0 0.2,0.1 0.3,0.1 0.1,0.1 0.2,0.1 0.2,0.2 0.1,0.1 0.1,0.2 0.2,0.3 0,0.1 0.1,0.3 0.1,0.4 0,0.4 -0.1,0.7 -0.4,0.9 -0.3,0.2 -0.6,0.3 -1.1,0.3 h -0.8 v 1.5 H 92 v -3.8 z m 0.7,1.8 h 1.1 l 0.2,-0.1 c 0.1,0 0.1,-0.1 0.1,-0.2 v -0.2 c 0,-0.1 0,-0.2 -0.1,-0.3 0,-0.1 -0.1,-0.1 -0.2,-0.2 -0.1,0 -0.2,-0.1 -0.2,-0.1 h -1.1 v 1.1 z m 4.8,-1.9 c 0.3,0 0.5,0 0.8,0.1 0.3,0.1 0.4,0.2 0.6,0.4 0.2,0.2 0.3,0.4 0.4,0.6 0.1,0.3 0.1,0.5 0.1,0.8 0,0.3 0,0.6 -0.1,0.8 -0.1,0.3 -0.2,0.5 -0.4,0.6 -0.2,0.2 -0.4,0.3 -0.6,0.4 -0.2,0.1 -0.5,0.1 -0.8,0.1 -0.3,0 -0.5,0 -0.8,-0.1 -0.2,-0.1 -0.4,-0.2 -0.6,-0.4 -0.2,-0.2 -0.3,-0.4 -0.4,-0.6 -0.1,-0.3 -0.1,-0.5 -0.1,-0.8 0,-0.3 0,-0.6 0.1,-0.8 0.1,-0.3 0.2,-0.5 0.4,-0.6 0.2,-0.2 0.4,-0.3 0.6,-0.4 0.3,0 0.6,-0.1 0.8,-0.1 z m 0,3.5 c 0.2,0 0.3,0 0.5,-0.1 0.1,-0.1 0.3,-0.2 0.4,-0.3 0.1,-0.1 0.2,-0.3 0.2,-0.4 0.1,-0.2 0.1,-0.4 0.1,-0.6 0,-0.2 0,-0.4 -0.1,-0.6 -0.1,-0.2 -0.1,-0.3 -0.2,-0.4 -0.1,-0.1 -0.2,-0.2 -0.4,-0.3 -0.1,-0.1 -0.3,-0.1 -0.5,-0.1 -0.2,0 -0.3,0 -0.5,0.1 -0.1,0.1 -0.3,0.2 -0.4,0.3 -0.1,0.1 -0.2,0.3 -0.2,0.4 -0.1,0.2 -0.1,0.4 -0.1,0.6 0,0.2 0,0.4 0.1,0.6 0.1,0.2 0.1,0.3 0.2,0.4 0.1,0.1 0.2,0.2 0.4,0.3 0.2,0 0.4,0.1 0.5,0.1 z m 7.5,-3.4 -1.1,4 h -0.7 l -0.8,-2.9 -0.8,2.9 h -0.7 l -1.1,-4 h 0.8 l 0.7,2.7 0.7,-2.7 h 0.8 l 0.7,2.7 0.7,-2.7 z m 3.6,4 h -3 v -4 h 2.9 v 0.7 h -2.2 v 0.9 h 2.1 v 0.7 h -2.1 v 1 h 2.3 z m 4.2,0 h -0.8 l -0.4,-1.1 c 0,-0.1 -0.1,-0.1 -0.1,-0.2 0,-0.1 -0.1,-0.1 -0.2,-0.2 -0.1,0 -0.1,-0.1 -0.2,-0.1 h -1 v 1.6 h -0.7 v -4 h 2.4 c 0.1,0 0.2,0 0.3,0.1 0.1,0 0.2,0.1 0.2,0.1 l 0.2,0.2 c 0,0.1 0.1,0.1 0.1,0.2 0,0.1 0.1,0.2 0.1,0.2 v 0.2 c 0,0.2 -0.1,0.4 -0.2,0.6 -0.1,0.2 -0.3,0.3 -0.5,0.4 0.2,0.1 0.3,0.3 0.4,0.6 z M 110,297 h 1.3 c 0.1,0 0.2,0 0.2,-0.1 0.1,0 0.1,-0.1 0.1,-0.2 v -0.2 c 0,-0.2 -0.1,-0.3 -0.2,-0.4 -0.1,-0.1 -0.3,-0.1 -0.5,-0.1 H 110 Z"
       id="path74"
       inkscape:connector-curvature="0"
       style="fill:#82888b" />
    <path
       d="m 77.2,319 v -1.9 c 1.9,-0.5 3.2,-1.1 3.8,-1.9 h 1.9 v 9.5 h -2.5 v -7.1 c -1.4,0.7 -2.5,1.1 -3.2,1.4 z m 27.8,-3.70001 h 2.6 v 9.4 H 105 Z m 6.1,1.80001 h -2.8 v -1.8 h 8.2 v 1.8 h -2.8 v 7.6 h -2.6 m -15.9,-8.4 c 0,-0.6 0.5,-1 1,-1 h 4.2 c 0.9,0 1.6,0.1 2.1,0.3 0.5,0.2 0.9,0.5 1.2,0.8 0.3,0.4 0.5,0.8 0.5,1.3 0,1 -0.7,1.7 -2,2.1 0.8,0.1 1.4,0.4 1.7,0.9 0.4,0.4 0.6,0.9 0.6,1.4 0,0.7 -0.3,1.3 -1,1.8 -0.6,0.5 -1.7,0.8 -3.1,0.8 h -4.2 c -0.6,0 -1,-0.5 -1,-1 z m 2.6,1.4 c 0,0.2 0.5,0.4 1,0.4 h 1 c 0.7,0 1.2,0 1.4,-0.1 0.2,-0.1 0.3,-0.2 0.3,-0.2 0,-0.1 -0.1,-0.2 -0.2,-0.2 -0.2,-0.1 -0.3,-0.1 -0.5,-0.1 h -1.9 c -0.7,-0.2 -1.1,0 -1.1,0.2 z m 0.6,3.7 h 1.4 c 0.7,0 1.2,0 1.5,-0.1 0.3,-0.1 0.4,-0.2 0.4,-0.3 0,-0.1 -0.1,-0.2 -0.4,-0.3 -0.3,-0.1 -0.7,-0.1 -1.4,-0.1 h -1.1 c -0.6,0 -1,0.2 -1,0.4 v 3.6 h 0.6 z m -11.3,-3.7 h 6.6 v -2.6 h -7.6 c -1.1,0 -2,0.9 -2,2 v 5.7 c 0,1.1 0.9,2 2,2 h 5.6 c 1.1,0 2,-0.9 2,-2 v -2.3 c 0,-1 -0.8,-1.8 -1.8,-2.1 h -4.2 v 2.2 h 3.1 v 0.8 H 87 v -3.7 z m 139,5.3 4.3,-6.5 c 0.2,-0.4 0.4,-0.6 0.6,-0.6 h 3.1 v 0.9 l 0.2,-0.3 c 0.2,-0.4 0.4,-0.6 0.6,-0.6 h 3.7 v 7 h -2.5 v -5.5 l -3.7,5.5 H 230 l 3.7,-5.5 h -1.2 c -0.1,0 -0.3,0.1 -0.4,0.2 l -3.5,5.4 z m 15.7,-2.8 v 1.3 h 5.7 v 1.5 h -8.2 v -4.6 c 0,-0.1 0,-0.2 0.1,-0.4 l 1.1,-1.8 c 0.1,-0.1 0.2,-0.2 0.4,-0.2 h 6.5 v 1.5 h -4.9 c -0.1,0 -0.2,0.1 -0.3,0.2 l -0.5,1.1 h 5.7 l -0.8,1.5 h -4.8 z m 9,1.3 h 4.1 v -1.3 h -1.6 l 0.8,-1.5 h 3.3 v 3.9 c 0,0.2 -0.1,0.4 -0.4,0.4 h -8.2 c -0.3,0 -0.4,-0.1 -0.4,-0.4 v -4.2 c 0,-0.1 0,-0.2 0.1,-0.4 l 1.1,-1.8 c 0.1,-0.1 0.2,-0.2 0.4,-0.2 h 6.9 v 1.5 h -5.3 c -0.1,0 -0.2,0.1 -0.3,0.2 l -0.5,1.1 z m 17.6,1.5 h -2.9 l -1.1,-1.5 h -3 l -0.8,-1.3 v 2.8 h -2.5 v -7 h 4.7 c 0.2,0 0.4,0.2 0.6,0.6 z m -5.1,-3 -1.8,-2.4 c -0.1,-0.1 -0.3,-0.2 -0.4,-0.2 h -0.4 v 2.6 z m 39.6,-5.9 h -10.2 c 2.2,-1.2 5.4,-2.9 6.8,-4.7 2.7,-3.4 -1.7,-5.8 -5.3,-4.6 -5,1.7 -7.1,4.1 -10,6.6 h -5.9 c 4.2,-8.1 9.5,-12.4 17.5,-14.6 8.6,-2.3 12.6,3.3 11,9.9 -0.8,3.5 -1.2,4.1 -3.9,7.4 z m -13.5,13.2 c 0,-0.3 0.2,-0.6 0.4,-1 0.2,-0.5 0.6,-0.8 0.7,-1 h -10.2 c -0.8,1.4 -1.5,2.1 -2,4.7 -0.5,2.8 1.1,4.1 2,4.1 h 24.6 l 3.6,-6.9 h -19.1 z"
       id="path76"
       inkscape:connector-curvature="0"
       style="fill:#929397" />
    <path
       d="m 272.4,321.7 h 2.6 c 0.1,0 0.2,-0.1 0.3,-0.2 l 0.8,-1.7 v -0.4 l -0.8,-1.7 c -0.1,-0.1 -0.2,-0.2 -0.3,-0.2 h -2.6 z m -2.2,-5.7 h 6.3 c 0.2,0 0.3,0.1 0.5,0.4 l 1.5,3 v 0.4 l -1.5,3 c -0.1,0.3 -0.3,0.4 -0.5,0.4 h -6.3 z m 9,0 h 6 c 0.2,0 0.3,0.1 0.5,0.4 l 1,2.1 v 0.4 l -1.5,1.7 1.5,2.6 h -2.3 l -2.2,-3.6 h 1.1 c 0.1,0 0.2,0 0.3,-0.1 l 0.8,-0.9 -0.4,-0.9 c -0.1,-0.1 -0.2,-0.2 -0.3,-0.2 h -2.4 v 5.7 H 279 V 316 Z m 10.6,7.2 h -2.3 V 316 h 2.3 z m 3,-4.8 2.3,3.3 2.3,-3.3 V 316 h 2.3 v 2.6 c 0,0.3 0,0.4 -0.1,0.6 l -2.5,4 h -3.8 l -2.5,-4 c -0.1,-0.1 -0.1,-0.3 -0.1,-0.6 V 316 h 2.3 v 2.4 z m 9.8,2 v 1.3 h 5.3 v 1.5 h -7.5 v -4.7 c 0,-0.1 0,-0.3 0.1,-0.4 l 1,-1.9 c 0.1,-0.1 0.2,-0.2 0.4,-0.2 h 6 v 1.5 h -4.5 c -0.1,0 -0.2,0.1 -0.3,0.2 l -0.5,1.1 h 5.3 l -0.8,1.5 h -4.5 z"
       id="path78"
       inkscape:connector-curvature="0"
       style="fill:#8c8e92" />
    <path
       d="m 78.4,297.3 c 0,-0.4 0.1,-0.8 0.2,-1.1 0.1,-0.2 0.2,-0.4 0.4,-0.6 0.2,-0.2 0.4,-0.3 0.6,-0.4 0.3,-0.1 0.6,-0.2 0.9,-0.2 0.6,0 1.1,0.2 1.5,0.6 0.4,0.4 0.6,0.9 0.6,1.6 0,0.7 -0.2,1.2 -0.6,1.6 -0.4,0.4 -0.9,0.6 -1.5,0.6 -0.6,0 -1.1,-0.2 -1.5,-0.6 -0.4,-0.3 -0.6,-0.8 -0.6,-1.5 z m 0.9,0 c 0,0.5 0.1,0.9 0.3,1.1 0.2,0.3 0.5,0.4 0.9,0.4 0.4,0 0.6,-0.1 0.9,-0.4 0.2,-0.3 0.3,-0.6 0.3,-1.1 0,-0.5 -0.1,-0.9 -0.3,-1.1 -0.2,-0.2 -0.5,-0.4 -0.9,-0.4 -0.4,0 -0.6,0.1 -0.9,0.4 -0.2,0.2 -0.3,0.6 -0.3,1.1 z m 4,2.1 v -4.3 h 0.8 l 1.8,2.9 v -2.9 h 0.8 v 4.3 h -0.9 l -1.7,-2.8 v 2.8 z m 34.8,-2.1 c 0,-0.4 0.1,-0.8 0.2,-1.1 0.1,-0.2 0.2,-0.4 0.4,-0.6 0.2,-0.2 0.4,-0.3 0.6,-0.4 0.3,-0.1 0.6,-0.2 0.9,-0.2 0.6,0 1.1,0.2 1.5,0.6 0.4,0.4 0.6,0.9 0.6,1.6 0,0.7 -0.2,1.2 -0.6,1.6 -0.4,0.4 -0.9,0.6 -1.5,0.6 -0.6,0 -1.1,-0.2 -1.5,-0.6 -0.4,-0.3 -0.6,-0.8 -0.6,-1.5 z m 0.9,0 c 0,0.5 0.1,0.9 0.3,1.1 0.2,0.3 0.5,0.4 0.9,0.4 0.4,0 0.6,-0.1 0.9,-0.4 0.2,-0.3 0.3,-0.6 0.3,-1.1 0,-0.5 -0.1,-0.9 -0.3,-1.1 -0.2,-0.2 -0.5,-0.4 -0.9,-0.4 -0.4,0 -0.6,0.1 -0.9,0.4 -0.2,0.2 -0.3,0.6 -0.3,1.1 z m 4,2.1 v -4.3 h 2.9 v 0.7 h -2.1 v 1 h 1.8 v 0.7 h -1.8 v 1.8 H 123 Z m 3.7,0 v -4.3 h 2.9 v 0.7 h -2.1 v 1 h 1.8 v 0.7 h -1.8 v 1.8 h -0.8 z"
       id="path80"
       inkscape:connector-curvature="0"
       style="fill:#929397" />
    <path
       d="m 85.4,301.8 h -5.3 c -2.2,0 -4.1,-1.8 -4.1,-4.1 v -1 c 0,-2.2 1.8,-4.1 4.1,-4.1 h 5.3 c 2.2,0 4.1,1.8 4.1,4.1 v 1 c -0.1,2.3 -1.9,4.1 -4.1,4.1 z m -5.3,-8.1 c -1.7,0 -3.1,1.4 -3.1,3.1 v 1 c 0,1.7 1.4,3.1 3.1,3.1 h 5.3 c 1.7,0 3.1,-1.4 3.1,-3.1 v -1 c 0,-1.7 -1.4,-3.1 -3.1,-3.1 z m 47.5,8.1 H 120 c -2.2,0 -4.1,-1.8 -4.1,-4.1 v -1 c 0,-2.2 1.8,-4.1 4.1,-4.1 h 7.6 c 2.2,0 4.1,1.8 4.1,4.1 v 1 c 0,2.3 -1.8,4.1 -4.1,4.1 z m -7.5,-8.1 c -1.7,0 -3.1,1.4 -3.1,3.1 v 1 c 0,1.7 1.4,3.1 3.1,3.1 h 7.6 c 1.7,0 3.1,-1.4 3.1,-3.1 v -1 c 0,-1.7 -1.4,-3.1 -3.1,-3.1 z"
       id="path82"
       inkscape:connector-curvature="0"
       style="fill:#929397" />
  </g>
  <g
     transform="matrix(0.54442694,0,0,0.54442694,0,0.05444)"
     id="g144">
    <path
       d="M 364.5,309.1 V 14.2 C 364.5,6.4 370,0 376.6,0 h 17 V 1.9 H 617.4 V 0 h 17.9 c 6.6,0 12.1,6.4 12.1,14.2 V 217 c 0,69.3 -48.2,126 -107,126 H 422.2 c -18,0 -35.4,-9.5 -46.7,-22.1"
       id="path86"
       inkscape:connector-curvature="0"
       style="fill:#3f3f3f" />
    <path
       d="M 540.3,291 H 421.6 c -9.5,0 -19,1.5 -28.1,4.4 l -29,13.7 V 12 c 0,-6.6 5.4,-12 12.1,-12 h 17 V 1.9 L 617.4,2.3 V 0 h 17.9 c 6.6,0 12.1,5.4 12.1,12 V 184.1 C 647.3,242.9 599.2,291 540.3,291 Z"
       id="path88"
       inkscape:connector-curvature="0"
       style="fill:#312f2f" />
    <path
       d="m 526.4,277.4 h -85.2 c -31.6,0 -57.4,-25.7 -57.4,-57.3 V 66.6 c 0,-14.5 11.8,-26.3 26.3,-26.3 h 196.8 c 14.5,0 26.3,11.8 26.3,26.3 v 104.1 c 0,58.9 -47.9,106.7 -106.8,106.7 z M 410.1,41.3 c -14,0 -25.3,11.3 -25.3,25.3 v 153.5 c 0,31.1 25.3,56.3 56.4,56.3 h 85.2 c 58.3,0 105.8,-47.4 105.8,-105.7 V 66.6 c 0,-13.9 -11.4,-25.3 -25.3,-25.3 z"
       id="path90"
       inkscape:connector-curvature="0"
       style="fill:#181515" />
    <path
       d="m 384.29999,94.800003 h 248.39999 v 1.8 H 384.29999 Z"
       id="path92"
       inkscape:connector-curvature="0"
       style="fill:#181515" />
    <g
       id="g98"
       style="fill:#929397">
      <path
         d="m 520.5,162.1 v 0.2 c 0,0.2 0,0.3 -0.7,0.3 -0.7,0 -0.6,-0.1 -0.7,-0.3 v -1.4 c 0,-0.2 0,-0.3 0.7,-0.3 0.7,0 0.6,0.1 0.7,0.3 v 0.2 h 0.9 v -0.5 c -0.1,-0.5 0.1,-0.9 -1.5,-0.9 -1.7,0 -1.5,0.4 -1.5,0.9 v 1.8 c 0.1,0.5 -0.1,0.9 1.5,0.9 1.7,0 1.5,-0.4 1.5,-0.9 V 162 h -0.9 z m -12.7,1.3 v -2.5 l 0.9,2.5 h 0.8 l 0.9,-2.5 v 2.5 h 0.9 V 160 H 510 l -0.9,2.5 -0.9,-2.5 h -1.3 v 3.4 m 15.5,0 v -2.5 h -0.8 V 160 h 2.5 v 0.9 h -0.8 v 2.5 m -6.2,-0.7 H 516 l 0.2,-0.6 h 0.8 l -0.4,-1.3 -0.8,2.6 h -0.9 l 1,-3.4 h 1.3 l 1,3.4 h -0.9 m -12.5,-2.7 c 0.7,0 0.6,0.1 0.7,0.3 v 1.4 c 0,0.2 0,0.3 -0.7,0.3 -0.7,0 -0.6,-0.1 -0.7,-0.3 V 161 c 0.1,-0.2 0.1,-0.3 0.7,-0.3 v -0.8 c -1.7,0 -1.5,0.4 -1.5,0.9 v 1.8 c 0.1,0.5 -0.1,0.9 1.5,0.9 1.7,0 1.5,-0.4 1.5,-0.9 v -1.8 c -0.1,-0.5 0.1,-0.9 -1.5,-0.9 z m -2.9,1.4 v 0.2 c 0,0.2 0,0.3 -0.7,0.3 -0.7,0 -0.6,-0.1 -0.7,-0.3 v -1.4 c 0,-0.2 0,-0.3 0.7,-0.3 0.7,0 0.6,0.1 0.7,0.3 v 0.2 h 0.9 v -0.5 c -0.1,-0.5 0.1,-0.9 -1.5,-0.9 -1.7,0 -1.5,0.4 -1.5,0.9 v 1.8 c 0.1,0.5 -0.1,0.9 1.5,0.9 1.7,0 1.5,-0.4 1.5,-0.9 V 162 h -0.9 z m 11.5,0.5 h -0.5 v -0.8 h 0.5 c 0.7,0 0.6,-0.1 0.7,-0.3 v -0.4 c 0,-0.2 0,-0.3 -0.7,-0.3 h -0.5 v 2.6 H 512 V 160 h 1.4 c 1.7,0 1.5,0.4 1.5,0.9 v 0.8 c 0,0.5 0.1,0.9 -1.5,0.9 z m -16.9,13.6 h -5.4 c -0.8,0 -1.4,-0.6 -1.4,-1.4 v -8.3 c 0,-0.8 0.6,-1.4 1.4,-1.4 h 3.4 c 0.4,0 0.7,-0.3 0.7,-0.7 v -3.3 c 0,-0.2 0.1,-0.3 0.3,-0.3 h 2 c 0.2,0 0.3,0.1 0.3,0.3 V 176 c 0,0.2 -0.1,0.3 -0.3,0.3 l -1,-0.1 v 0.7 h 1.4 c 0.4,0 0.7,-0.3 0.7,-0.7 v -15.5 c 0,-0.4 -0.3,-0.7 -0.7,-0.7 h -2.6 c -0.4,0 -0.7,0.3 -0.7,0.7 v 3.3 c 0,0.2 -0.1,0.3 -0.3,0.3 h -3.1 c -1.2,0 -2.2,1 -2.2,2.2 v 8.3 c 0,1.2 1,2.2 2.2,2.2 h 5.4 z"
         id="path94"
         inkscape:connector-curvature="0" />
      <path
         d="m 494.4,173.2 v -5.4 c 0,-0.4 -0.4,-0.8 -0.8,-0.8 -0.4,0 -0.8,0.4 -0.8,0.8 v 5.8 c 0,0.4 0.4,0.8 0.8,0.8 0.4,0 0.8,-0.4 0.8,-0.8 v -0.4 h 0.7 v 0.4 c 0,0.9 -0.7,1.6 -1.6,1.6 -0.9,0 -1.6,-0.7 -1.6,-1.6 v -5.8 c 0,-0.9 0.7,-1.6 1.6,-1.6 0.9,0 1.6,0.7 1.6,1.6 v 5.4 z m 7.2,3 h -1 c -0.2,0 -0.3,-0.1 -0.3,-0.3 v -10.5 c 0,-0.2 0.1,-0.3 0.3,-0.3 h 2 c 0.2,0 0.3,0.1 0.3,0.3 v 10.5 c 0,0.2 -0.1,0.3 -0.3,0.3 h -1 v 0.7 h 1.3 c 0.4,0 0.7,-0.3 0.7,-0.7 v -11.1 c 0,-0.4 -0.3,-0.7 -0.7,-0.7 h -2.6 c -0.4,0 -0.7,0.3 -0.7,0.7 v 11.1 c 0,0.4 0.3,0.7 0.7,0.7 h 1.3 z m 9.5,-9 h -2.2 c -0.7,0 -1.2,0.5 -1.2,1.2 0,0.7 0.5,1.2 1.2,1.2 h 3 c 0.8,0 1.4,0.6 1.4,1.4 v 3.7 c 0,0.8 -0.6,1.4 -1.4,1.4 h -6 c -0.2,0 -0.3,-0.1 -0.3,-0.3 v -1.4 c 0,-0.2 0.1,-0.3 0.3,-0.3 h 4.1 c 0.7,0 1.2,-0.5 1.2,-1.2 0,-0.7 -0.5,-1.2 -1.2,-1.2 h -2.9 c -0.8,0 -1.4,-0.6 -1.4,-1.4 v -3.7 c 0,-0.8 0.6,-1.4 1.4,-1.4 h 5.5 c 0.2,0 0.3,0.1 0.3,0.3 v 1.5 c 0,0.2 -0.1,0.3 -0.3,0.3 l -1.5,-0.1 v 0.7 h 1.8 c 0.4,0 0.7,-0.3 0.7,-0.7 v -2.1 c 0,-0.4 -0.3,-0.7 -0.7,-0.7 h -5.8 c -1.2,0 -2.2,1 -2.2,2.2 v 3.7 c 0,1.2 1,2.2 2.2,2.2 h 2.9 c 0.3,0 0.5,0.2 0.5,0.5 0,0.3 -0.2,0.5 -0.5,0.5 h -4.4 c -0.4,0 -0.7,0.3 -0.7,0.7 v 2.1 c 0,0.4 0.3,0.7 0.7,0.7 h 6.3 c 1.2,0 2.2,-1 2.2,-2.2 v -3.7 c 0,-1.2 -1,-2.2 -2.2,-2.2 h -3 c -0.3,0 -0.5,-0.2 -0.5,-0.5 0,-0.3 0.2,-0.5 0.5,-0.5 h 2.2 z m 11,2 h 0.9 c 0.2,0 0.3,-0.1 0.3,-0.3 v -2.4 c 0,-0.8 -0.6,-1.4 -1.4,-1.4 h -4.7 c -0.8,0 -1.4,0.6 -1.4,1.4 v 8.3 c 0,0.8 0.6,1.4 1.4,1.4 h 4.7 c 0.8,0 1.4,-0.6 1.4,-1.4 v -2.3 c 0,-0.2 -0.1,-0.3 -0.3,-0.3 h -1.8 c -0.2,0 -0.3,0.1 -0.3,0.3 v 1.1 c 0,0.9 -0.5,1.6 -1.4,1.6 -0.9,0 -1.4,-0.7 -1.4,-1.6 v -5.8 c 0,-0.9 0.5,-1.6 1.4,-1.6 0.9,0 1.4,0.7 1.4,1.6 v 1.1 c 0,0.2 0.1,0.3 0.3,0.3 h 0.9 v 0.7 H 521 c -0.4,0 -0.7,-0.3 -0.7,-0.7 v -1.4 c 0,-0.4 -0.2,-0.8 -0.7,-0.8 -0.5,0 -0.7,0.4 -0.7,0.8 v 5.8 c 0,0.4 0.2,0.8 0.7,0.8 0.5,0 0.7,-0.4 0.7,-0.8 v -1.4 c 0,-0.4 0.3,-0.7 0.7,-0.7 h 2.4 c 0.4,0 0.7,0.3 0.7,0.7 v 2.6 c 0,1.2 -1,2.2 -2.2,2.2 h -4.7 c -1.2,0 -2.2,-1 -2.2,-2.2 v -8.3 c 0,-1.2 1,-2.2 2.2,-2.2 h 4.7 c 1.2,0 2.2,1 2.2,2.2 v 2.7 c 0,0.4 -0.3,0.7 -0.7,0.7 h -1.3 z"
         id="path96"
         inkscape:connector-curvature="0" />
    </g>
    <path
       d="m 543.1,186 c -34.3,32.7 -52.8,60.1 -39.9,73.7 13,13.6 54,9.2 88.3,-23.5 34.3,-32.7 42.3,-73.6 29.3,-87.1 -13,-13.5 -43.4,4.2 -77.7,36.9 z"
       id="path100"
       inkscape:connector-curvature="0"
       style="fill:#181515" />
    <path
       d="m 549.5,194.4 c -20.3,19.4 -29.9,42.4 -21.2,51.5 8.7,9.1 32.1,0.6 52.5,-18.7 20.3,-19.4 29.9,-42.4 21.2,-51.5 -8.7,-9.1 -32.1,-0.7 -52.5,18.7 z"
       id="path102"
       inkscape:connector-curvature="0"
       style="fill:#2c2929" />
    <circle
       cx="549.59998"
       cy="225.3"
       r="2.9000001"
       id="circle104"
       style="fill:#181515" />
    <circle
       cx="558.5"
       cy="216.2"
       r="2.9000001"
       id="circle106"
       style="fill:#181515" />
    <circle
       cx="567.40002"
       cy="207.10001"
       r="2.9000001"
       id="circle108"
       style="fill:#181515" />
    <circle
       cx="576.29999"
       cy="198.39999"
       r="2.9000001"
       id="circle110"
       style="fill:#181515" />
    <path
       d="m 446.3,325 h -1 l -0.5,-1.9 H 443 l -0.5,1.9 h -1 l 1.9,-6.7 h 0.9 z m -1.9,-3 -0.6,-2.1 -0.6,2.1 z m 5.6,-1.4 c 0,-0.2 0,-0.4 -0.1,-0.5 -0.1,-0.2 -0.1,-0.3 -0.2,-0.4 l -0.3,-0.3 c -0.1,-0.1 -0.3,-0.1 -0.4,-0.1 -0.2,0 -0.4,0.1 -0.6,0.2 -0.2,0.1 -0.3,0.3 -0.4,0.4 -0.1,0.2 -0.2,0.4 -0.3,0.7 -0.1,0.3 -0.1,0.6 -0.1,1 0,0.4 0,0.7 0.1,1 0.1,0.3 0.2,0.5 0.3,0.7 0.1,0.2 0.3,0.3 0.4,0.5 0.2,0.1 0.4,0.2 0.6,0.2 0.2,0 0.3,0 0.4,-0.1 0.1,-0.1 0.2,-0.1 0.3,-0.3 0.1,-0.1 0.2,-0.3 0.2,-0.4 0.1,-0.2 0.1,-0.4 0.1,-0.6 h 0.9 c 0,0.4 -0.1,0.8 -0.2,1.1 -0.1,0.3 -0.3,0.6 -0.4,0.8 -0.2,0.2 -0.4,0.4 -0.6,0.5 -0.2,0.1 -0.5,0.2 -0.8,0.2 -0.4,0 -0.7,-0.1 -1,-0.2 -0.3,-0.2 -0.5,-0.4 -0.7,-0.7 -0.2,-0.3 -0.4,-0.7 -0.5,-1.1 -0.1,-0.4 -0.2,-0.9 -0.2,-1.4 0,-0.5 0.1,-1 0.2,-1.4 0.1,-0.4 0.3,-0.8 0.5,-1.1 0.2,-0.3 0.4,-0.5 0.7,-0.7 0.3,-0.2 0.6,-0.2 0.9,-0.2 0.3,0 0.5,0.1 0.7,0.2 0.2,0.1 0.4,0.3 0.6,0.5 0.2,0.2 0.3,0.5 0.4,0.8 0.1,0.3 0.2,0.6 0.2,1 H 450 Z m 5.1,0 c 0,-0.2 0,-0.4 -0.1,-0.5 -0.1,-0.2 -0.1,-0.3 -0.2,-0.4 l -0.3,-0.3 c -0.1,-0.1 -0.3,-0.1 -0.4,-0.1 -0.2,0 -0.4,0.1 -0.6,0.2 -0.2,0.1 -0.3,0.3 -0.4,0.4 -0.1,0.2 -0.2,0.4 -0.3,0.7 -0.1,0.3 -0.1,0.6 -0.1,1 0,0.4 0,0.7 0.1,1 0.1,0.3 0.2,0.5 0.3,0.7 0.1,0.2 0.3,0.3 0.4,0.5 0.2,0.1 0.4,0.2 0.6,0.2 0.2,0 0.3,0 0.4,-0.1 0.1,-0.1 0.2,-0.1 0.3,-0.3 0.1,-0.1 0.2,-0.3 0.2,-0.4 0.1,-0.2 0.1,-0.4 0.1,-0.6 h 0.9 c 0,0.4 -0.1,0.8 -0.2,1.1 -0.1,0.3 -0.3,0.6 -0.4,0.8 -0.2,0.2 -0.4,0.4 -0.6,0.5 -0.2,0.1 -0.5,0.2 -0.8,0.2 -0.4,0 -0.7,-0.1 -1,-0.2 -0.3,-0.2 -0.5,-0.4 -0.7,-0.7 -0.2,-0.3 -0.4,-0.7 -0.5,-1.1 -0.1,-0.4 -0.2,-0.9 -0.2,-1.4 0,-0.5 0.1,-1 0.2,-1.4 0.1,-0.4 0.3,-0.8 0.5,-1.1 0.2,-0.3 0.4,-0.5 0.7,-0.7 0.3,-0.2 0.6,-0.2 0.9,-0.2 0.3,0 0.5,0.1 0.7,0.2 0.2,0.1 0.4,0.3 0.6,0.5 0.2,0.2 0.3,0.5 0.4,0.8 0.1,0.3 0.2,0.6 0.2,1 h -0.7 z m 5.6,4.4 H 457 v -6.7 h 3.6 v 1.2 h -2.7 v 1.5 h 2.5 v 1.1 h -2.5 v 1.7 h 2.8 z m 2.9,0.1 c -0.4,0 -0.7,-0.1 -0.9,-0.2 -0.3,-0.1 -0.5,-0.3 -0.7,-0.5 -0.2,-0.2 -0.3,-0.5 -0.4,-0.8 -0.1,-0.3 -0.1,-0.7 -0.2,-1 h 0.9 c 0,0.2 0.1,0.4 0.1,0.6 0.1,0.2 0.2,0.3 0.3,0.4 0.1,0.1 0.2,0.2 0.4,0.3 0.1,0.1 0.3,0.1 0.4,0.1 0.1,0 0.3,0 0.4,-0.1 0.1,0 0.2,-0.1 0.3,-0.2 0.1,-0.1 0.2,-0.2 0.2,-0.3 0,-0.1 0.1,-0.2 0.1,-0.4 0,-0.1 0,-0.3 -0.1,-0.4 0,-0.1 -0.1,-0.2 -0.2,-0.3 -0.1,-0.1 -0.2,-0.1 -0.4,-0.2 -0.2,-0.1 -0.4,-0.1 -0.6,-0.2 -0.3,-0.1 -0.5,-0.2 -0.7,-0.3 -0.2,-0.1 -0.4,-0.2 -0.5,-0.4 -0.1,-0.2 -0.2,-0.3 -0.3,-0.5 -0.1,-0.2 -0.1,-0.4 -0.1,-0.7 0,-0.3 0,-0.5 0.1,-0.8 0.1,-0.2 0.2,-0.4 0.4,-0.6 0.2,-0.2 0.3,-0.3 0.6,-0.4 0.2,-0.1 0.5,-0.1 0.7,-0.1 0.3,0 0.5,0.1 0.8,0.2 0.2,0.1 0.4,0.3 0.6,0.4 0.2,0.2 0.3,0.4 0.4,0.7 0.1,0.3 0.1,0.6 0.2,1 h -0.9 c -0.1,-0.8 -0.4,-1.1 -1,-1.1 -0.3,0 -0.5,0.1 -0.7,0.2 -0.2,0.1 -0.2,0.3 -0.2,0.6 0,0.1 0,0.2 0.1,0.3 0,0.1 0.1,0.1 0.2,0.2 0.1,0.1 0.2,0.1 0.3,0.2 0.1,0 0.3,0.1 0.4,0.1 0.1,0 0.3,0.1 0.5,0.1 0.2,0 0.3,0.1 0.5,0.2 0.1,0.1 0.3,0.2 0.4,0.3 0.1,0.1 0.2,0.2 0.3,0.4 0.1,0.2 0.2,0.3 0.2,0.5 0.1,0.2 0.1,0.4 0.1,0.7 0,0.3 0,0.6 -0.1,0.8 -0.1,0.3 -0.2,0.5 -0.4,0.7 -0.2,0.2 -0.4,0.3 -0.6,0.4 -0.4,0 -0.7,0.1 -0.9,0.1 z m 4.7,0 c -0.4,0 -0.7,-0.1 -0.9,-0.2 -0.3,-0.1 -0.5,-0.3 -0.7,-0.5 -0.2,-0.2 -0.3,-0.5 -0.4,-0.8 -0.1,-0.3 -0.1,-0.7 -0.2,-1 h 0.9 c 0,0.2 0.1,0.4 0.1,0.6 0.1,0.2 0.2,0.3 0.3,0.4 0.1,0.1 0.2,0.2 0.4,0.3 0.1,0.1 0.3,0.1 0.4,0.1 0.1,0 0.3,0 0.4,-0.1 0.1,0 0.2,-0.1 0.3,-0.2 0.1,-0.1 0.2,-0.2 0.2,-0.3 0,-0.1 0.1,-0.2 0.1,-0.4 0,-0.1 0,-0.3 -0.1,-0.4 0,-0.1 -0.1,-0.2 -0.2,-0.3 -0.1,-0.1 -0.2,-0.1 -0.4,-0.2 -0.2,-0.1 -0.4,-0.1 -0.6,-0.2 -0.3,-0.1 -0.5,-0.2 -0.7,-0.3 -0.2,-0.1 -0.4,-0.2 -0.5,-0.4 -0.1,-0.2 -0.2,-0.3 -0.3,-0.5 -0.1,-0.2 -0.1,-0.4 -0.1,-0.7 0,-0.3 0,-0.5 0.1,-0.8 0.1,-0.2 0.2,-0.4 0.4,-0.6 0.2,-0.2 0.3,-0.3 0.6,-0.4 0.2,-0.1 0.5,-0.1 0.7,-0.1 0.3,0 0.5,0.1 0.8,0.2 0.2,0.1 0.4,0.3 0.6,0.4 0.2,0.2 0.3,0.4 0.4,0.7 0.1,0.3 0.1,0.6 0.2,1 h -0.9 c -0.1,-0.8 -0.4,-1.1 -1,-1.1 -0.3,0 -0.5,0.1 -0.7,0.2 -0.2,0.1 -0.2,0.3 -0.2,0.6 0,0.1 0,0.2 0.1,0.3 0,0.1 0.1,0.1 0.2,0.2 0.1,0.1 0.2,0.1 0.3,0.2 0.1,0 0.3,0.1 0.4,0.1 0.1,0 0.3,0.1 0.5,0.1 0.2,0 0.3,0.1 0.5,0.2 0.1,0.1 0.3,0.2 0.4,0.3 0.1,0.1 0.2,0.2 0.3,0.4 0.1,0.1 0.2,0.3 0.2,0.5 0.1,0.2 0.1,0.4 0.1,0.7 0,0.3 0,0.6 -0.1,0.8 -0.1,0.2 -0.2,0.5 -0.4,0.7 -0.2,0.2 -0.4,0.3 -0.6,0.4 -0.4,0 -0.6,0.1 -0.9,0.1 z"
       id="path112"
       inkscape:connector-curvature="0"
       style="fill:#241c1e" />
    <path
       d="m 422.7,323 v -3.2 c 0,-0.3 0.3,-0.6 0.6,-0.6 h 12.2 c 0.3,0 0.6,0.3 0.6,0.6 v 3.2 c 0,0.3 -0.3,0.6 -0.6,0.6 h -12.2 c -0.3,0 -0.6,-0.2 -0.6,-0.6 z"
       id="path114"
       inkscape:connector-curvature="0"
       style="fill:#631418" />
    <path
       d="m 424,322.2 v -1.6 c 0,-0.3 0.3,-0.6 0.6,-0.6 h 9.7 c 0.3,0 0.6,0.3 0.6,0.6 v 1.6 c 0,0.3 -0.3,0.6 -0.6,0.6 h -9.7 c -0.3,0 -0.6,-0.2 -0.6,-0.6 z"
       id="path116"
       inkscape:connector-curvature="0"
       style="fill:#f95d5d" />
    <path
       d="m 620.1,270.6 c -2.9,-2.9 -2.9,-7.7 0,-10.6 l 9.2,-8.9 c 2.9,-2.9 5.2,-0.7 8.1,2.2 2.9,2.9 2,7 0,10.6 l -6.5,12 c -3,2.9 -7.9,-2.4 -10.8,-5.3 z"
       id="path118"
       inkscape:connector-curvature="0"
       style="fill:#181515" />
    <path
       d="m 614.4,286.7 c 0.5,-0.5 0.7,-1.1 0.4,-1.4 l -7.3,-7.2 1.6,-1.6 8,8 c 0.7,0.7 0.1,2.4 -1.2,3.8 l 2.3,2.3 -5.9,-0.1 -0.1,-5.9 2.2,2.1 m 3.1,-12.6 c 0.2,0.2 0.4,0.5 0.4,0.7 0.1,0.3 0.1,0.6 0,0.9 -0.1,0.3 -0.2,0.6 -0.4,1 -0.2,0.3 -0.5,0.7 -0.8,1 -0.3,0.3 -0.6,0.6 -1,0.8 -0.3,0.2 -0.7,0.3 -1,0.4 -0.3,0.1 -0.6,0.1 -0.9,0 -0.3,-0.1 -0.5,-0.2 -0.8,-0.4 -0.2,-0.2 -0.4,-0.5 -0.4,-0.8 0,-0.3 -0.1,-0.6 0,-0.9 0.1,-0.3 0.2,-0.6 0.4,-1 0.2,-0.3 0.5,-0.7 0.8,-1 0.3,-0.3 0.7,-0.6 1,-0.8 0.3,-0.2 0.7,-0.3 1,-0.4 0.3,-0.1 0.6,0 0.9,0 0.3,0.2 0.6,0.3 0.8,0.5 z m -3.7,3.7 c 0.1,0.1 0.3,0.2 0.5,0.3 0.2,0.1 0.4,0 0.6,0 0.2,0 0.4,-0.1 0.6,-0.3 0.2,-0.2 0.5,-0.3 0.7,-0.6 0.2,-0.2 0.4,-0.5 0.6,-0.7 l 0.3,-0.6 v -0.6 c 0,-0.2 -0.1,-0.3 -0.3,-0.5 -0.1,-0.1 -0.3,-0.2 -0.5,-0.3 h -0.6 c -0.2,0 -0.4,0.1 -0.6,0.3 -0.2,0.1 -0.5,0.3 -0.7,0.5 -0.2,0.2 -0.4,0.5 -0.6,0.7 -0.2,0.2 -0.2,0.4 -0.3,0.6 0,0.2 -0.1,0.4 0,0.6 0.1,0.3 0.2,0.4 0.3,0.6 z m 5.7,-1.5 1.2,1.2 0.3,0.3 c 0.1,0.1 0.2,0.2 0.2,0.4 0,0.1 0.1,0.3 0.1,0.4 v 0.4 c 0,0.2 -0.1,0.3 -0.2,0.5 -0.1,0.2 -0.2,0.3 -0.4,0.5 -0.4,0.4 -0.9,0.7 -1.3,0.7 -0.4,0 -0.8,-0.2 -1.2,-0.5 l -0.6,-0.6 -1.6,1.6 -0.6,-0.6 z m -1.3,2.5 0.6,0.6 c 0.1,0.1 0.2,0.2 0.3,0.2 0.1,0 0.2,0.1 0.3,0.1 0.1,0 0.2,0 0.3,-0.1 0.1,-0.1 0.2,-0.1 0.3,-0.2 0.1,-0.1 0.2,-0.2 0.2,-0.3 0,-0.1 0.1,-0.2 0,-0.3 -0.1,-0.1 0,-0.2 -0.1,-0.3 -0.1,-0.1 -0.1,-0.2 -0.2,-0.2 l -0.6,-0.6 z m 2.4,7 -2.3,-2.3 4.2,-4.2 2.3,2.3 -0.7,0.7 -1.7,-1.7 -0.9,0.9 1.6,1.6 -0.7,0.7 -1.6,-1.6 -1.1,1.1 1.8,1.8 z m 3,3 -0.5,-0.5 1.4,-4.2 -2.8,2.8 -0.6,-0.6 4.2,-4.2 0.5,0.5 -1.5,4.2 2.8,-2.8 0.6,0.6 z"
       id="path120"
       inkscape:connector-curvature="0"
       style="fill:#241c1e" />
    <path
       d="m 638.2,254.1 -1.3,-1.4 c -0.6,-0.5 -1.2,-0.9 -2,-0.9 -1,0 -1.9,0.4 -2.4,1.1 l -11.9,15.3 c -0.8,1 -0.6,2.4 0.4,3.2 l 2.3,2.2 c 1,0.8 2.5,0.2 3.3,-0.7 l 11.9,-15.3 c 0.8,-1 0.4,-2.5 -0.3,-3.5 z"
       id="path122"
       inkscape:connector-curvature="0"
       style="fill:#6177b3" />
    <path
       d="m 617.3,1.9 v 12 c 0,0 -0.1,1.5 -1.6,1.5 H 395.1 c -1.6,0 -1.6,-1.5 -1.6,-1.5 V 1.9 L 505.4,2 Z"
       id="path124"
       inkscape:connector-curvature="0"
       style="fill:#444546" />
    <path
       d="m 394.70001,0 h 2.7 v 13.7 h -2.7 z m 4.09998,0 h 2.7 v 13.7 h -2.7 z m 4.1,0 h 2.7 v 13.7 h -2.7 z m 4,0 h 2.7 v 13.7 h -2.7 z m 3.9,0 h 2.7 v 13.7 h -2.7 z m 4.1,0 h 2.7 v 13.7 h -2.7 z m 4,0 h 2.7 v 13.7 h -2.7 z M 423,0 h 2.7 V 13.7 H 423 Z m 4.10001,0 h 2.7 v 13.7 h -2.7 z m 4,0 h 2.7 v 13.7 h -2.7 z m 4.1,0 h 2.7 v 13.7 h -2.7 z m 4,0 h 2.7 v 13.7 h -2.7 z m 4,0 h 2.7 v 13.7 h -2.7 z m 4,0 h 2.7 v 13.7 h -2.7 z m 4.09998,0 h 2.7 v 13.7 h -2.7 z m 4,0 h 2.7 v 13.7 h -2.7 z m 4.1,0 h 2.7 v 13.7 h -2.7 z m 4,0 h 2.7 v 13.7 h -2.7 z M 467.5,0 h 2.7 v 13.7 h -2.7 z m 4,0 h 2.7 v 13.7 h -2.7 z m 4,0 h 2.7 v 13.7 h -2.7 z m 4,0 h 2.7 v 13.7 h -2.7 z m 4.10001,0 h 2.7 v 13.7 h -2.7 z m 4,0 h 2.7 v 13.7 h -2.7 z m 4.1,0 h 2.7 v 13.7 h -2.7 z m 4,0 h 2.7 v 13.7 h -2.7 z m 4.09998,0 h 2.7 v 13.7 h -2.7 z m 4.1,0 h 2.7 v 13.7 h -2.7 z m 3.9,0 h 2.7 v 13.7 h -2.7 z m 4,0 h 2.7 v 13.7 h -2.7 z m 4.10003,0 h 2.7 v 13.7 h -2.7 z m 4,0 h 2.7 v 13.7 h -2.7 z m 4.29999,0 h 2.7 v 13.7 h -2.7 z m 4.09998,0 h 2.7 v 13.7 h -2.7 z m 4.10003,0 h 2.7 v 13.7 h -2.7 z m 3.89997,0 h 2.7 v 13.7 h -2.7 z m 4,0 h 2.7 v 13.7 h -2.7 z m 4.10003,0 h 2.7 v 13.7 h -2.7 z m 4,0 h 2.7 v 13.7 h -2.7 z M 552.5,0 h 2.7 v 13.7 h -2.7 z m 4.09998,0 h 2.7 v 13.7 h -2.7 z m 4,0 h 2.7 v 13.7 h -2.7 z m 4.10003,0 h 2.7 v 13.7 h -2.7 z m 3.89997,0 h 2.7 v 13.7 h -2.7 z m 4,0 h 2.7 v 13.7 h -2.7 z m 4.10003,0 h 2.7 v 13.7 h -2.7 z m 4.09998,0 h 2.7 v 13.7 h -2.7 z m 4.40002,0 h 2.7 v 13.7 h -2.7 z m 4.09998,0 h 2.7 v 13.7 h -2.7 z m 4,0 h 2.7 v 13.7 h -2.7 z m 4,0 h 2.7 v 13.7 h -2.7 z m 4,0 h 2.7 v 13.7 h -2.7 z m 4.10003,0 h 2.7 v 13.7 h -2.7 z m 4,0 h 2.7 v 13.7 h -2.7 z M 613.5,0 h 2.7 v 13.7 h -2.7 z"
       id="path126"
       inkscape:connector-curvature="0"
       style="fill:#282424" />
    <path
       d="m 397.3,172.2 4.3,-6.5 c 0.2,-0.4 0.4,-0.6 0.6,-0.6 h 3.1 v 0.9 l 0.2,-0.3 c 0.2,-0.4 0.4,-0.6 0.6,-0.6 h 3.7 v 7 h -2.5 v -5.5 l -3.7,5.5 h -2.5 l 3.7,-5.5 h -1.2 c -0.1,0 -0.3,0.1 -0.4,0.2 l -3.5,5.4 z m 15.8,-2.8 v 1.3 h 5.7 v 1.5 h -8.2 v -4.6 c 0,-0.1 0,-0.2 0.1,-0.4 l 1.1,-1.8 c 0.1,-0.1 0.2,-0.2 0.4,-0.2 h 6.5 v 1.5 h -4.9 c -0.1,0 -0.2,0.1 -0.3,0.2 L 413,168 h 5.7 l -0.8,1.5 h -4.8 z m 8.9,1.3 h 4.1 v -1.3 h -1.6 l 0.8,-1.5 h 3.3 v 3.9 c 0,0.2 -0.1,0.4 -0.4,0.4 H 420 c -0.3,0 -0.4,-0.1 -0.4,-0.4 v -4.2 c 0,-0.1 0,-0.2 0.1,-0.4 l 1.1,-1.8 c 0.1,-0.1 0.2,-0.2 0.4,-0.2 h 6.9 v 1.5 h -5.3 c -0.1,0 -0.2,0.1 -0.3,0.2 L 422,168 Z m 17.6,1.5 h -2.9 l -1.1,-1.5 h -3 l -0.8,-1.3 v 2.8 h -2.5 v -7 h 4.7 c 0.2,0 0.4,0.2 0.6,0.6 z m -5.1,-3 -1.8,-2.4 c -0.1,-0.1 -0.3,-0.2 -0.4,-0.2 h -0.4 v 2.6 z m 10.4,-0.5 1.5,-2.3 h 5.7 v -1.2 h -7.3 l -2.2,3.5 2.2,3.5 h 7.3 V 171 h -5.7 m -7.10001,-3.10001 h 2 v 1.7 h -2 z M 462.7,168.7 l -2.4,3.7 h -6.9 v -7.2 h 6.9 z m -2.4,0 -1.6,-2.3 h -3.2 v 4.9 h 3.2 z m -7.2,-5.4 h -10.2 c 2.2,-1.2 5.4,-2.9 6.8,-4.7 2.7,-3.4 -1.7,-5.8 -5.3,-4.6 -5,1.7 -7.1,4.1 -10,6.6 h -5.9 c 4.2,-8.1 9.5,-12.4 17.5,-14.6 8.6,-2.3 12.6,3.3 11,9.9 -0.8,3.5 -1.2,4.1 -3.9,7.4 z m -13.5,13.1 c 0,-0.3 0.2,-0.6 0.4,-1 0.2,-0.5 0.6,-0.8 0.7,-1 h -10.2 c -0.8,1.4 -1.5,2.1 -2,4.7 -0.5,2.8 1.1,4.1 2,4.1 H 455 l 3.6,-6.9 h -19 z"
       id="path128"
       inkscape:connector-curvature="0"
       style="fill:#929397" />
    <g
       id="g136"
       style="fill:#929397">
      <path
         d="m 620.7,116.5 h -6.3 V 115 h 4.3 c -0.3,-0.9 -0.6,-1.7 -0.8,-2.5 -0.6,-1.9 -1.2,-3.9 -1.9,-5.8 -0.2,-0.5 -0.6,-1 -1,-1.1 -0.7,-0.2 -0.9,0.6 -1.1,1.1 -1,3 -1.9,5.9 -2.9,8.9 -0.2,0.7 -0.5,0.9 -1.2,0.9 -1.9,-0.1 -3.9,0 -5.8,0 -2,0 -3.2,-1.3 -3.3,-3.3 v -5.5 c 0,-2.1 1.3,-3.3 3.3,-3.3 h 5.3 v 1.5 h -4.5 c -2.1,0 -2.6,0.5 -2.6,2.7 v 4.1 c 0,1.5 0.7,2.2 2.1,2.2 h 3.4 v -4.8 h -2.9 v -1.5 h 4.5 v 6.3 h 0.2 c 0.9,-2.9 1.9,-5.8 2.8,-8.7 0.5,-1.7 1.5,-2.3 3.1,-2.1 0.9,0.1 1.5,0.7 1.8,1.5 1.2,3.5 2.3,7 3.4,10.5 0.2,0.3 0.1,0.3 0.1,0.4 z m -39.4,0.1 v -1.5 h 5 c 1.4,0 2.4,-1 2.5,-2.3 0,-1.3 -1,-2.4 -2.3,-2.5 h -1.7 c -0.8,-0.1 -1.5,-0.9 -1.5,-1.8 0,-0.9 0.6,-1.8 1.5,-1.8 1.8,-0.1 3.6,0 5.4,0 v 1.5 h -5.3 v 0.5 c 0.5,0 1,0.1 1.5,0.1 1.9,0 3.3,1.2 3.7,3 0.6,2.3 -1.1,4.7 -3.3,4.8 z"
         id="path130"
         inkscape:connector-curvature="0" />
      <path
         d="m 581.3,114.4 v -1.6 h 5.3 v -0.4 c -0.5,0 -1.1,-0.1 -1.6,-0.1 -1.5,0 -2.6,-0.8 -3.3,-2.2 -0.7,-1.4 -0.6,-2.9 0.3,-4.2 0.6,-0.9 1.5,-1.5 2.5,-1.5 1.9,-0.1 3.7,0 5.7,0 v 1.5 h -5 c -1.7,0 -2.7,1.6 -2.2,3.2 0.3,0.9 1.2,1.6 2.3,1.6 h 1.6 c 0.8,0.1 1.5,0.9 1.5,1.8 0,0.9 -0.6,1.8 -1.4,1.8 -2,0.2 -3.8,0.1 -5.7,0.1 z m 18.7,-9.9 v 1.5 h -4.9 c -1.7,0 -2.3,0.6 -2.3,2.4 v 4.3 c 0,1.7 0.7,2.3 2.2,2.3 h 5 v 1.5 h -5.9 c -1.4,-0.1 -2.7,-1.4 -2.7,-2.9 -0.1,-2.1 0,-4.2 0,-6.3 0,-1.4 1.2,-2.7 2.5,-2.8 1.9,-0.1 3.9,0 6.1,0 z m 11.3,12 c 1.1,-3.3 2.1,-6.5 3.2,-9.7 0.1,-0.2 0.3,-0.5 0.5,-0.5 0.1,0 0.4,0.2 0.5,0.4 0.9,2.6 1.7,5.2 2.6,7.8 h -3.6 c 0,-0.4 -0.1,-0.7 -0.1,-1.1 -0.1,0 -0.1,0 -0.2,-0.1 l -0.6,1.8 c -0.6,1.6 -0.6,1.6 -2.3,1.4 z m 3,-3.8 h 1.3 c -0.2,-0.6 -0.4,-1.1 -0.5,-1.6 h -0.2 c -0.2,0.5 -0.4,1 -0.6,1.6 z m -8.4,-0.2 c -0.5,-0.1 -0.7,-0.2 -1.1,-0.3 v -1.4 h 2.3 v 3.6 c -1.2,0 -2.4,0.1 -3.6,0 -0.3,0 -0.8,-0.6 -0.8,-1 -0.1,-1.9 -0.1,-3.8 0,-5.8 0,-0.7 0.4,-1.1 1.1,-1.1 h 5.4 v 1.5 h -4 c -0.8,0 -1.1,0.3 -1.1,1.1 0.1,0.9 0,1.8 0,2.7 0.2,1.2 0.7,1.4 1.8,0.7 z"
         id="path132"
         inkscape:connector-curvature="0" />
      <path
         d="m 594.8,112.8 c 1.6,0.3 3.4,0 5.1,0.2 v 1.5 h -5.8 c -0.3,0 -0.8,-0.6 -0.8,-1 -0.1,-0.8 0,-1.6 0,-2.5 h 5.4 v 1.4 h -3.8 c 0,0.1 0,0.2 -0.1,0.4 z m 5.2,-6.2 v 1.4 c -1.7,0.2 -3.4,-0.2 -5.1,0.2 v 0.4 h 3.8 v 1.5 h -5.4 c 0,-0.9 -0.1,-1.8 0,-2.7 0,-0.3 0.5,-0.8 0.8,-0.8 z"
         id="path134"
         inkscape:connector-curvature="0" />
    </g>
    <circle
       cx="602.5"
       cy="69.099998"
       r="6.8000002"
       id="circle138"
       style="fill:#181515" />
    <circle
       cx="407.79999"
       cy="69.099998"
       r="6.8000002"
       id="circle140"
       style="fill:#181515" />
    <path
       d="m 451.1,66.4 c -0.1,-0.5 -0.2,-0.9 -0.5,-1.2 -0.3,-0.4 -0.7,-0.7 -1.2,-0.9 -0.5,-0.3 -1.1,-0.5 -1.8,-0.6 -0.7,-0.1 -1.4,-0.2 -2.2,-0.2 -1.1,0 -2.1,0.1 -2.9,0.3 -0.9,0.2 -1.6,0.6 -2.2,1 -0.6,0.5 -1.1,1 -1.4,1.7 -0.3,0.7 -0.5,1.4 -0.5,2.3 0,0.9 0.2,1.6 0.5,2.3 0.3,0.7 0.8,1.2 1.4,1.7 0.6,0.5 1.3,0.8 2.2,1 0.9,0.2 1.8,0.4 2.9,0.4 0.8,0 1.5,-0.1 2.2,-0.2 0.7,-0.1 1.3,-0.3 1.8,-0.6 0.5,-0.3 0.9,-0.6 1.2,-1 0.3,-0.4 0.5,-0.9 0.6,-1.4 h 4.8 c -0.1,0.9 -0.5,1.7 -1.1,2.4 -0.6,0.7 -1.3,1.3 -2.2,1.8 -0.9,0.5 -2,0.9 -3.2,1.1 -1.2,0.3 -2.5,0.4 -4,0.4 -1.8,0 -3.5,-0.2 -4.9,-0.6 -1.5,-0.4 -2.7,-0.9 -3.7,-1.6 -1,-0.7 -1.8,-1.5 -2.4,-2.5 -0.6,-1 -0.8,-2.1 -0.8,-3.3 0,-1.2 0.3,-2.3 0.8,-3.3 0.6,-1 1.4,-1.8 2.4,-2.5 1,-0.7 2.3,-1.2 3.7,-1.6 1.5,-0.4 3.1,-0.6 4.9,-0.6 1.4,0 2.6,0.1 3.9,0.4 1.3,0.3 2.3,0.6 3.2,1.1 0.9,0.5 1.7,1.1 2.3,1.8 0.6,0.7 1,1.4 1.1,2.3 h -4.9 z m 30.9,2.4 c 0,5.2 -4.3,7.8 -12.9,7.8 h -8.3 V 61.1 h 8.3 c 8.6,0 12.9,2.6 12.9,7.7 z m -4.8,0 c 0,-0.8 -0.1,-1.5 -0.4,-2.1 -0.3,-0.6 -0.7,-1.1 -1.3,-1.6 -0.6,-0.5 -1.5,-0.8 -2.5,-1 -1,-0.2 -2.4,-0.3 -3.9,-0.3 h -3.6 v 10.1 h 3.6 c 1.6,0 2.9,-0.1 3.9,-0.3 1,-0.2 1.9,-0.6 2.5,-1 0.6,-0.4 1.1,-1 1.3,-1.6 0.3,-0.7 0.4,-1.4 0.4,-2.2 z M 495,72.3 H 484.8 V 69.6 H 495 Z m 25.4,4.2 h -5.1 l -2.4,-4.2 c -0.2,-0.3 -0.4,-0.6 -0.7,-0.8 -0.3,-0.2 -0.6,-0.5 -1,-0.6 -0.4,-0.2 -0.8,-0.3 -1.3,-0.4 -0.5,-0.1 -1,-0.2 -1.5,-0.2 h -5 v 6.2 h -4.7 V 61.1 h 13.2 c 0.6,0 1.2,0.1 1.8,0.1 0.6,0.1 1.1,0.2 1.6,0.3 0.5,0.1 1,0.3 1.5,0.6 0.4,0.2 0.8,0.5 1.1,0.7 0.3,0.3 0.6,0.5 0.8,0.8 0.2,0.3 0.4,0.6 0.5,0.9 0.1,0.3 0.2,0.6 0.2,1 0,0.9 -0.4,1.7 -1.1,2.4 -0.7,0.7 -1.8,1.2 -3.1,1.5 1.1,0.5 1.9,1.3 2.6,2.4 z m -16.9,-8.8 h 6.3 c 0.8,0 1.6,0 2.2,-0.1 0.6,-0.1 1.1,-0.2 1.5,-0.3 0.4,-0.1 0.7,-0.4 0.8,-0.6 0.2,-0.3 0.3,-0.6 0.3,-1 0,-0.7 -0.3,-1.2 -1,-1.5 -0.7,-0.3 -1.8,-0.5 -3.2,-0.5 h -6.7 v 4 z M 536,60.9 c 1.8,0 3.4,0.2 4.9,0.6 1.5,0.4 2.8,0.9 3.8,1.6 1.1,0.7 1.9,1.5 2.5,2.5 0.6,1 0.9,2.1 0.9,3.2 0,1.2 -0.3,2.2 -0.9,3.2 -0.6,1 -1.4,1.8 -2.5,2.5 -1.1,0.7 -2.4,1.2 -3.8,1.6 -1.4,0.4 -3.1,0.6 -4.9,0.6 -1.8,0 -3.4,-0.2 -4.9,-0.6 -1.5,-0.4 -2.8,-0.9 -3.8,-1.6 -1,-0.7 -1.9,-1.5 -2.5,-2.5 -0.6,-1 -0.9,-2.1 -0.9,-3.2 0,-1.2 0.3,-2.3 0.9,-3.3 0.6,-1 1.4,-1.8 2.5,-2.5 1.1,-0.7 2.4,-1.2 3.8,-1.6 1.4,-0.4 3.1,-0.5 4.9,-0.5 z m 0,13.3 c 1.1,0 2.1,-0.1 3,-0.4 0.9,-0.2 1.7,-0.6 2.3,-1.1 0.6,-0.5 1.2,-1 1.5,-1.7 0.4,-0.7 0.5,-1.4 0.5,-2.3 0,-0.9 -0.2,-1.6 -0.5,-2.3 -0.4,-0.7 -0.9,-1.2 -1.5,-1.7 -0.6,-0.5 -1.4,-0.8 -2.3,-1 -0.9,-0.2 -1.9,-0.4 -2.9,-0.4 -1.1,0 -2,0.1 -2.9,0.4 -0.9,0.2 -1.7,0.6 -2.3,1.1 -0.7,0.5 -1.2,1 -1.5,1.7 -0.3,0.7 -0.5,1.4 -0.5,2.3 0,0.8 0.2,1.6 0.5,2.3 0.3,0.7 0.9,1.2 1.5,1.7 0.6,0.5 1.4,0.8 2.3,1.1 0.7,0.2 1.7,0.3 2.8,0.3 z m 41,2.3 h -4.6 v -9.8 l -5.4,9.8 h -4 l -5.4,-9.8 v 9.8 h -4.5 V 61.1 h 6.1 l 5.8,11 5.9,-11 h 6.1 z"
       id="path142"
       inkscape:connector-curvature="0"
       style="fill:#181515" />
  </g>
  <path
     d="m 498.09997,122.41977 c 0,34.5046 -27.96849,62.47308 -62.47308,62.47308 -34.5046,0 -62.47308,-27.96848 -62.47308,-62.47308 0,-34.5046 27.96848,-62.47308 62.47308,-62.47308 34.50459,0 62.47308,27.96848 62.47308,62.47308 z m -51.7569,-22.80039 c -3.26805,-1.52003 -6.91612,-2.43205 -10.71618,-2.43205 -13.90824,0 -25.15644,11.2482 -25.15644,25.15644 0,13.90824 11.2482,25.15643 25.15644,25.15643 13.90824,0 25.15643,-11.24819 25.15643,-25.15643 0,-9.95617 -5.9281,-18.62032 -14.44025,-22.72439"
     id="path146"
     inkscape:connector-curvature="0"
     style="fill:#5b98d0" />
  <path
     d="m 435.62689,186.79288 c -35.49262,0 -64.37312,-28.8805 -64.37312,-64.37311 0,-35.49261 28.8805,-64.37311 64.37312,-64.37311 35.49261,0 64.37311,28.8805 64.37311,64.37311 0,35.49261 -28.8805,64.37311 -64.37311,64.37311 z m 0,-128.67022 c -35.41662,0 -64.29712,28.8805 -64.29712,64.29711 0,35.41661 28.8045,64.22111 64.22112,64.22111 35.41661,0 64.22111,-28.8045 64.22111,-64.22111 0.076,-35.41661 -28.7285,-64.29711 -64.14511,-64.29711 z"
     id="path148"
     inkscape:connector-curvature="0"
     style="fill:#0f1317" />
  <path
     d="m 489.89183,153.42831 c -10.79219,18.77232 -31.00854,31.46454 -54.26494,31.46454 -23.25641,0 -43.47275,-12.69222 -54.26494,-31.46454 h 108.52988"
     id="path150"
     inkscape:connector-curvature="0"
     style="fill:#0f1317" />
  <path
     d="m 435.62689,147.57621 c -13.90824,0 -25.15644,-11.2482 -25.15644,-25.15644 0,-13.90824 11.2482,-25.15643 25.15644,-25.15643 13.90824,0 25.15643,11.24819 25.15643,25.15643 0,13.90824 -11.32419,25.15644 -25.15643,25.15644 z m 0,-49.55286 c -13.45224,0 -24.39643,10.94419 -24.39643,24.39642 0,13.45223 10.94419,24.39642 24.39643,24.39642 13.45223,0 24.39642,-10.94419 24.39642,-24.39642 0,-13.45223 -10.94419,-24.39642 -24.39642,-24.39642 z"
     id="path152"
     inkscape:connector-curvature="0" />
  <path
     d="m 435.62689,133.59196 c -6.15611,0 -11.1722,-5.01608 -11.1722,-11.17219 0,-6.15611 5.01609,-11.17219 11.1722,-11.17219 6.1561,0 11.17219,5.01608 11.17219,11.17219 0,6.15611 -5.01609,11.17219 -11.17219,11.17219 z m 0,-21.58437 c -5.7761,0 -10.41218,4.63608 -10.41218,10.41218 0,5.7001 4.63608,10.41218 10.41218,10.41218 5.7001,0 10.41218,-4.63608 10.41218,-10.41218 0,-5.7761 -4.71208,-10.41218 -10.41218,-10.41218 z"
     id="path154"
     inkscape:connector-curvature="0"
     style="fill:#a299a1" />
  <path
     d="m 435.62689,131.38793 c -4.94009,0 -8.96816,-4.02807 -8.96816,-8.96816 0,-4.94008 4.02807,-8.96815 8.96816,-8.96815 4.94008,0 8.96815,4.02807 8.96815,8.96815 0,4.94009 -4.02807,8.96816 -8.96815,8.96816 z m 0,-17.2523 c -4.56008,0 -8.20815,3.72406 -8.20815,8.20814 0,4.56008 3.72407,8.20814 8.20815,8.20814 4.56008,0 8.20814,-3.72406 8.20814,-8.20814 0,-4.48408 -3.64806,-8.20814 -8.20814,-8.20814 z"
     id="path156"
     inkscape:connector-curvature="0"
     style="fill:#a299a1" />
  <path
     d="m 460.40332,122.41977 c 0,13.68024 -11.0962,24.77643 -24.77643,24.77643 -13.68024,0 -24.77643,-11.09619 -24.77643,-24.77643 0,-13.68024 11.09619,-24.77643 24.77643,-24.77643 13.68023,0 24.77643,11.09619 24.77643,24.77643 z M 435.62689,100.8354 c -11.93221,0 -21.58438,9.65216 -21.58438,21.58437 0,11.93221 9.65217,21.50837 21.58438,21.50837 11.9322,0 21.50837,-9.65216 21.50837,-21.50837 0,-11.8562 -9.65217,-21.58437 -21.50837,-21.58437 z"
     id="path158"
     inkscape:connector-curvature="0"
     style="fill:#96b0c1" />
  <path
     d="m 410.77446,161.71245 3.26805,-4.94009 c 0.15201,-0.304 0.30401,-0.456 0.45601,-0.456 h 2.35604 v 0.68401 l 0.152,-0.22801 c 0.15201,-0.304 0.30401,-0.456 0.45601,-0.456 h 2.81205 v 5.32009 h -1.90003 v -4.18007 l -2.81205,4.18007 h -1.90003 l 2.81205,-4.18007 h -0.91202 c -0.076,0 -0.228,0.076 -0.30401,0.152 l -2.66004,4.10407 z m 11.9322,-2.12804 v 0.98802 h 4.33208 v 1.14002 h -6.23211 v -3.49606 c 0,-0.076 0,-0.152 0.076,-0.30401 l 0.83602,-1.36802 c 0.076,-0.076 0.152,-0.152 0.304,-0.152 h 4.94009 v 1.14002 h -3.72407 c -0.076,0 -0.152,0.076 -0.228,0.152 l -0.38001,0.83602 h 4.33208 l -0.60801,1.14001 h -3.64807 z m 6.84012,0.98802 h 3.11606 v -0.98802 h -1.21603 l 0.60802,-1.14002 h 2.50804 v 2.96405 c 0,0.15201 -0.076,0.30401 -0.30401,0.30401 h -6.2321 c -0.22801,0 -0.30401,-0.076 -0.30401,-0.30401 v -3.19205 c 0,-0.076 0,-0.152 0.076,-0.30401 l 0.83602,-1.36802 c 0.076,-0.076 0.152,-0.152 0.304,-0.152 h 5.24409 v 1.14002 h -4.02807 c -0.076,0 -0.152,0.076 -0.228,0.152 l -0.38001,0.83602 z m 13.37623,1.14002 h -2.20404 l -0.83601,-1.14002 h -2.28004 l -0.60801,-0.98802 v 2.12804 h -1.90003 v -5.32009 h 3.57206 c 0.152,0 0.304,0.152 0.45601,0.45601 z m -3.87606,-2.20404 -1.36803,-1.82403 c -0.076,-0.076 -0.228,-0.152 -0.304,-0.152 h -0.30401 v 1.97603 z m 6.0801,-0.45601 1.74803,2.66005 h 5.5481 v -0.91202 h -4.40808 l -1.06402,-1.74803 1.06402,-1.74803 h 4.40808 v -0.91201 h -5.5481 m -4.25607,2.12803 h 1.52003 v 1.29203 h -1.52003 z m 17.86031,0.53201 -1.82403,2.81205 h -5.2441 v -5.47209 h 5.2441 z m -1.82403,0 -1.21603,-1.74803 h -2.43204 v 3.72407 h 2.43204 z m -66.72916,-2.50803 h 14.44025 v 8.13214 h -14.44025 z"
     id="path160"
     inkscape:connector-curvature="0"
     style="fill:#929397" />
  <path
     d="m 392.15414,156.77236 h 13.98424 v 7.67613 h -13.98424 z"
     id="path162"
     inkscape:connector-curvature="0"
     style="fill:#010101" />
  <g
     id="g168"
     style="fill:#ed2224">
    <path
       d="m 392.83814,163.38448 h 3.80007 v -5.7001"
       id="path164"
       inkscape:connector-curvature="0" />
    <path
       d="m 396.0302,163.38448 h 3.72406 v -5.7001"
       id="path166"
       inkscape:connector-curvature="0" />
  </g>
  <path
     d="m 400.59028,157.83638 h 1.82403 v 5.6241 h -1.82403 z m 2.58405,0.076 -0.38001,1.90004 h -0.076 v -1.90004 c 0.152,-0.076 0.304,-0.076 0.45601,0 m -0.22801,1.90004 0.53201,-1.82403 c 0.152,0.076 0.30401,0.076 0.45601,0.152 l -0.83602,1.74803 c -0.076,-0.076 -0.152,-0.076 -0.152,-0.076 m 0.30401,0.152 1.29202,-1.44403 c -0.076,-0.076 -0.228,-0.152 -0.38001,-0.228 l -0.98801,1.59603 0.076,0.076 m 0.152,0.152 1.59603,-0.98801 c -0.076,-0.15201 -0.22801,-0.30401 -0.30401,-0.38001 l -1.36802,1.29202 0.076,0.076 m 0.076,0.15201 1.82403,-0.45601 -0.228,-0.45601 -1.59603,0.91202 c 0,-0.076 0,0 0,0 m 1.97604,0.304 h -1.90004 c 0,-0.076 0,-0.152 -0.076,-0.152 l 1.90003,-0.30401 c 0.076,0.15201 0.076,0.30401 0.076,0.45601 m -1.90004,0.152 c 0,0.45601 -0.38,0.83602 -0.83601,0.83602 v 1.90003 c 1.52002,0 2.73605,-1.21602 2.73605,-2.73605 h -1.90004"
     id="path170"
     inkscape:connector-curvature="0"
     style="fill:#11aa4b" />
  <path
     d="m 464.81139,156.46836 h 14.44025 v 8.13214 h -14.44025 z"
     id="path172"
     inkscape:connector-curvature="0"
     style="fill:#929397" />
  <path
     d="m 465.0394,156.69636 h 13.98424 v 7.67614 H 465.0394 Z"
     id="path174"
     inkscape:connector-curvature="0"
     style="fill:#010101" />
  <path
     d="m 471.95552,162.62447 1.90003,-1.90004 v -0.076 l -1.97604,1.44403 1.97604,-2.05204 -1.97604,1.52003 1.90004,-1.97604 -1.90004,1.52003 1.82404,-2.05204 c -0.68402,-0.53201 -2.20404,-0.076 -3.57207,1.14002 -1.44402,1.29203 -2.05203,2.81205 -1.44402,3.49606 0.60801,0.68402 2.20404,0.22801 3.64806,-1.06401 0.38001,-0.38001 0.68401,-0.68402 0.98802,-1.06402 z"
     id="path176"
     inkscape:connector-curvature="0"
     style="fill:#5b98d0" />
  <path
     d="m 471.1195,160.95244 h -0.68401 v 1.67203 h 0.68401 v -0.45601 h 0.60801 v 0.98802 h -1.59603 c -0.152,0 -0.304,-0.15201 -0.304,-0.30401 v -2.12804 c 0,-0.228 0.076,-0.304 0.304,-0.304 h 1.59603 v 1.14002 h -0.60801 z"
     id="path178"
     inkscape:connector-curvature="0"
     style="fill:#020202" />
  <path
     d="m 475.37557,158.44439 -1.90003,1.90004 v 0.076 l 1.97604,-1.44403 -1.97604,2.05204 1.97604,-1.52003 -1.90004,1.97604 1.90004,-1.52003 -1.82404,2.05204 c 0.68402,0.532 2.20404,0.076 3.57207,-1.14002 1.44402,-1.29203 2.05203,-2.81205 1.44402,-3.49606 -0.60801,-0.68402 -2.20404,-0.22801 -3.64806,1.06401 -0.38001,0.38001 -0.68401,0.68402 -0.98802,1.06402 z"
     id="path180"
     inkscape:connector-curvature="0"
     style="fill:#deae2c" />
  <path
     d="m 477.50361,160.34443 c 0,0.152 -0.152,0.304 -0.304,0.304 h -1.59603 v -2.73605 h 1.59603 c 0.152,0 0.304,0.15201 0.304,0.30401 z m -1.29202,-0.22801 h 0.68401 v -1.67203 h -0.68401 z"
     id="path182"
     inkscape:connector-curvature="0"
     style="fill:#020202" />
  <path
     d="m 466.33142,157.22837 c 0.076,-0.076 0.152,-0.152 0.228,-0.152 h 0.60801 v 0.228 c 0.076,-0.076 0.152,-0.228 0.30401,-0.228 h 0.76001 v 1.59603 h -0.53201 v -1.14002 c -0.076,0 -0.152,0.076 -0.228,0.152 -0.22801,0.30401 -0.38001,0.60801 -0.60801,0.98802 h -0.53201 l 0.68401,-1.14002 c -0.152,0 -0.30401,0 -0.38001,0.076 -0.228,0.38001 -0.456,0.68401 -0.68401,1.06402 h -0.60801 c 0.38001,-0.45601 0.68401,-0.91202 0.98802,-1.44403 z m 2.12803,0.076 c 0.076,-0.076 0.22801,-0.228 0.38001,-0.228 h 1.21602 v 0.38001 h -0.91201 l -0.22801,0.228 h 1.14002 c -0.076,0.076 -0.152,0.228 -0.228,0.30401 h -0.91202 v 0.304 h 1.06402 v 0.30401 h -1.67203 v -0.98802 c 0,-0.076 0.076,-0.22801 0.152,-0.30401 z m 1.82404,-0.076 c 0.076,-0.076 0.152,-0.152 0.304,-0.152 h 1.29202 v 0.38001 h -0.83601 c -0.228,0 -0.30401,0.228 -0.30401,0.38 0,0.22801 -0.076,0.22801 0,0.53201 h 0.76002 v -0.228 h -0.38001 c 0.076,-0.076 0.152,-0.22801 0.152,-0.30401 h 0.68402 v 0.76002 c 0,0.076 0,0.076 -0.076,0.152 h -1.52002 c -0.15201,0 -0.22801,-0.152 -0.22801,-0.22801 v -0.83601 c 0,-0.228 0.076,-0.304 0.15201,-0.45601 z m 1.82403,-0.152 h 0.83601 c 0.152,0 0.30401,0.152 0.38001,0.228 0.304,0.45601 0.53201,0.91202 0.83601,1.36803 h -0.60801 c -0.076,-0.076 -0.152,-0.22801 -0.228,-0.30401 h -0.53201 c -0.076,-0.076 -0.076,-0.152 -0.152,-0.228 v 0.53201 h -0.53201 z m 0.53201,0.38001 v 0.60801 h 0.456 c -0.076,-0.15201 -0.152,-0.30401 -0.304,-0.45601 0,-0.152 -0.076,-0.152 -0.152,-0.152 z"
     id="path184"
     inkscape:connector-curvature="0"
     style="fill:#ffffff" />
  <path
     d="m 440.11096,181.32079 h -2.96405 c -1.21602,0 -1.97603,-0.83602 -2.05203,-2.05204 v -2.81204 c 0,-1.21603 0.83601,-2.05204 2.05203,-2.05204 h 3.11606 v 1.44402 h -2.66005 c -0.83601,0 -0.98802,0.076 -0.98802,1.06402 v 2.12804 c 0,0.68401 0.30401,0.76001 0.76002,0.83601 h 1.44402 v -1.82403 h -1.44402 v -1.44402 h 2.96405 v 1.82403 l 0.91201,-2.81205 c 0.30401,-0.91202 0.83602,-1.36802 1.59603,-1.36802 h 0.38001 c 0.60801,0.076 1.06402,0.456 1.21602,0.98801 0.45601,1.36803 0.91201,2.81205 1.36802,4.18008 l 0.45601,1.36802 v 0.152 l -0.076,0.22801 -0.30401,0.076 H 442.315 v -1.44403 h 2.12804 l -0.30401,-0.83601 -0.304,-0.83602 c -0.22801,-0.68401 -0.45601,-1.44402 -0.68401,-2.12803 -0.076,-0.15201 -0.22801,-0.38001 -0.30401,-0.38001 -0.076,0 -0.152,0.228 -0.152,0.38001 l -0.45601,1.52002 c -0.304,1.06402 -0.68401,2.05204 -0.98802,3.11606 -0.304,0.456 -0.60801,0.68401 -1.14002,0.68401 z"
     id="path186"
     inkscape:connector-curvature="0"
     style="fill:#929397" />
  <path
     d="m 445.81106,180.94078 h -3.26805 v -0.76001 h 2.20403 c -0.152,-0.45601 -0.304,-0.91202 -0.456,-1.29202 -0.30401,-0.98802 -0.60801,-1.97604 -0.98802,-2.96405 -0.076,-0.22801 -0.30401,-0.53201 -0.53201,-0.60801 -0.38001,-0.076 -0.45601,0.304 -0.60801,0.60801 -0.45601,1.52002 -0.98802,3.04005 -1.44403,4.56007 -0.076,0.38001 -0.304,0.45601 -0.60801,0.45601 h -2.96405 c -0.98801,0 -1.67203,-0.68401 -1.67203,-1.74803 v -2.81205 c 0,-1.06401 0.68402,-1.67203 1.67203,-1.74803 h 2.73605 v 0.83602 h -2.28004 c -1.06402,0 -1.36802,0.228 -1.36802,1.36802 v 2.12804 c 0,0.76001 0.38,1.14002 1.06402,1.14002 h 1.74803 v -2.50805 h -1.44403 v -0.76001 h 2.28004 v 3.26806 h 0.152 c 0.45601,-1.52003 0.98802,-2.96405 1.44403,-4.48408 0.304,-0.83601 0.76001,-1.21602 1.59603,-1.06402 0.456,0.076 0.83601,0.30401 0.91201,0.76002 0.60801,1.82403 1.14002,3.57206 1.74803,5.39609 0.076,0.152 0.076,0.152 0.076,0.228 z"
     id="path188"
     inkscape:connector-curvature="0"
     style="fill:#3e64af" />
  <path
     d="m 425.13871,181.24479 v -1.44403 h 2.88805 c 0.532,0 0.91201,-0.38 0.91201,-0.83601 0,-0.45601 -0.38001,-0.91202 -0.91201,-0.91202 h -0.22801 l -0.228,-0.304 v 0.304 h -0.38001 c -0.60801,-0.076 -1.06402,-0.60801 -1.06402,-1.29202 0,-0.68401 0.45601,-1.21602 1.06402,-1.29202 h 3.11605 v 1.44402 h -0.98801 c 0.45601,0.30401 0.83601,0.83602 0.98801,1.44403 0.15201,0.68401 0,1.44402 -0.38,2.05203 -0.38001,0.53201 -0.98802,0.83602 -1.59603,0.91202 h -1.06402 z"
     id="path190"
     inkscape:connector-curvature="0"
     style="fill:#929397" />
  <path
     d="m 425.44271,180.94078 v -0.76001 h 2.58405 c 0.68401,0 1.21602,-0.53201 1.29202,-1.21602 0,-0.68401 -0.53201,-1.21602 -1.21602,-1.29202 h -0.83602 c -0.45601,-0.076 -0.76001,-0.45601 -0.76001,-0.91202 0,-0.45601 0.304,-0.91202 0.76001,-0.91202 h 2.81205 v 0.76002 h -2.73605 v 0.228 h 0.76002 c 0.98801,0 1.67203,0.60801 1.90003,1.59603 0.304,1.21602 -0.53201,2.43204 -1.74803,2.50804 z"
     id="path192"
     inkscape:connector-curvature="0"
     style="fill:#3e64af" />
  <path
     d="m 425.13871,180.18077 v -1.52003 h 0.91201 c -0.304,-0.228 -0.53201,-0.53201 -0.68401,-0.91201 -0.38001,-0.83602 -0.30401,-1.67203 0.228,-2.50805 0.38001,-0.60801 0.98802,-0.91201 1.59603,-0.91201 h 3.34406 v 1.44402 h -2.96405 c -0.30401,0 -0.53201,0.15201 -0.76002,0.38001 -0.152,0.228 -0.228,0.53201 -0.152,0.83601 0.152,0.38001 0.45601,0.60801 0.83602,0.60801 h 0.76001 c 0.60801,0.076 1.06402,0.60802 1.06402,1.21603 0,0.68401 -0.45601,1.29202 -1.06402,1.29202 h -1.21602 z"
     id="path194"
     inkscape:connector-curvature="0"
     style="fill:#929397" />
  <path
     d="m 425.44271,179.80076 v -0.83601 h 2.73605 v -0.22801 h -0.83602 c -0.76001,0 -1.36802,-0.38 -1.74803,-1.14002 -0.38,-0.76001 -0.304,-1.44402 0.15201,-2.12803 0.304,-0.45601 0.76001,-0.76002 1.29202,-0.76002 h 2.88805 v 0.76002 h -2.58405 c -0.83601,0 -1.44402,0.83601 -1.14002,1.59603 0.15201,0.456 0.60801,0.83601 1.14002,0.83601 h 0.83602 c 0.45601,0.076 0.76001,0.45601 0.76001,0.91202 0,0.456 -0.304,0.91201 -0.76001,0.91201 -0.83602,0.152 -1.74803,0.076 -2.73605,0.076 z"
     id="path196"
     inkscape:connector-curvature="0"
     style="fill:#3e64af" />
  <path
     d="m 432.58683,181.24479 h -0.60801 c -0.91201,-0.076 -1.67203,-0.91202 -1.74803,-1.82403 v -3.26806 c 0,-0.91202 0.76002,-1.74803 1.59603,-1.74803 h 3.57206 v 1.44402 h -2.88805 c -0.68401,0 -0.83601,0.15201 -0.83601,0.91202 v 2.20404 c 0,0.68401 0.152,0.83601 0.83601,0.83601 h 2.88805 v 1.44403 z"
     id="path198"
     inkscape:connector-curvature="0"
     style="fill:#929397" />
  <path
     d="m 435.09488,174.70867 v 0.76002 h -2.58405 c -0.91201,0 -1.21602,0.304 -1.21602,1.21602 v 2.20404 c 0,0.83601 0.30401,1.21602 1.14002,1.21602 h 2.58405 v 0.76001 h -3.11606 c -0.76001,-0.076 -1.36802,-0.76001 -1.36802,-1.52003 v -3.26805 c 0,-0.68401 0.60801,-1.44403 1.29202,-1.44403 1.06402,0 2.12804,0.076 3.26806,0.076 z"
     id="path200"
     inkscape:connector-curvature="0"
     style="fill:#3e64af" />
  <path
     d="m 441.47899,181.24479 c -0.152,0 -0.30401,0 -0.60801,-0.076 l -0.38001,-0.076 0.38001,-1.06402 c 0.45601,-1.44403 0.91201,-2.88805 1.44402,-4.33208 0.076,-0.228 0.30401,-0.45601 0.45601,-0.53201 h 0.152 c 0.22801,0 0.53201,0.22801 0.53201,0.45601 0.38001,1.06402 0.68401,2.12804 1.06402,3.26806 l 0.38001,1.21602 H 442.467 l -0.076,0.152 c -0.228,0.68401 -0.304,0.98802 -0.91201,0.98802 z"
     id="path202"
     inkscape:connector-curvature="0"
     style="fill:#929397" />
  <path
     d="m 440.87098,180.86478 1.59603,-5.01609 c 0.076,-0.152 0.152,-0.228 0.304,-0.304 0.076,0 0.228,0.076 0.228,0.228 0.45601,1.29203 0.91202,2.66005 1.29203,4.02807 h -1.82403 c 0,-0.228 -0.076,-0.38 -0.076,-0.53201 h -0.076 c -0.076,0.30401 -0.228,0.60801 -0.304,0.91202 -0.22801,0.83601 -0.22801,0.83601 -1.14002,0.68401 z m 1.59603,-1.90003 h 0.68401 c -0.076,-0.30401 -0.15201,-0.60801 -0.30401,-0.83602 h -0.076 c -0.076,0.22801 -0.152,0.45601 -0.304,0.83602 z"
     id="path204"
     inkscape:connector-curvature="0"
     style="fill:#3e64af" />
  <path
     d="m 437.83092,180.18077 h -0.83601 c -0.38001,0 -0.68401,-0.53201 -0.68401,-0.83602 -0.076,-0.98801 0,-1.97603 0,-2.96405 0,-0.53201 0.38001,-0.91201 0.91201,-0.91201 h 3.11606 v 1.44402 h -2.58405 v 0.76002 h 1.52003 v 2.50804 z"
     id="path206"
     inkscape:connector-curvature="0"
     style="fill:#929397" />
  <path
     d="m 438.13493,178.88875 c -0.228,-0.076 -0.38001,-0.076 -0.53201,-0.15201 v -0.68401 h 1.21602 v 1.82403 h -1.82403 c -0.152,0 -0.38001,-0.304 -0.38001,-0.53201 -0.076,-0.98801 0,-1.97603 0,-2.96405 0,-0.38 0.22801,-0.53201 0.53201,-0.53201 h 2.81205 v 0.76002 h -2.05203 c -0.38001,0 -0.60801,0.152 -0.53201,0.60801 v 1.36802 c -0.076,0.45601 0.152,0.60801 0.76001,0.30401 z"
     id="path208"
     inkscape:connector-curvature="0"
     style="fill:#3e64af" />
  <path
     d="m 433.57485,180.18077 h -1.52002 c -0.38001,0 -0.68402,-0.53201 -0.76002,-0.83602 -0.076,-0.304 -0.076,-0.60801 0,-0.91201 v -0.68401 h 3.49606 v 1.06402 h 0.60801 v 1.36802 z"
     id="path210"
     inkscape:connector-curvature="0"
     style="fill:#929397" />
  <path
     d="m 432.43483,178.96475 c 0.83602,0.152 1.74803,0 2.58405,0.076 v 0.76001 h -2.96405 c -0.15201,0 -0.38001,-0.304 -0.45601,-0.53201 -0.076,-0.38 0,-0.83601 0,-1.29202 h 2.81205 v 0.76001 h -1.97604 z"
     id="path212"
     inkscape:connector-curvature="0"
     style="fill:#3e64af" />
  <path
     d="m 431.29481,177.97673 v -1.74803 c 0.076,-0.304 0.45601,-0.68401 0.76002,-0.68401 h 3.34405 v 1.36802 l -0.304,0.076 h -0.38001 v 1.06402 h -3.42006 z"
     id="path214"
     inkscape:connector-curvature="0"
     style="fill:#929397" />
  <path
     d="m 435.09488,175.77269 v 0.76002 c -0.91202,0.152 -1.74803,-0.076 -2.66005,0.076 v 0.228 h 1.97604 v 0.76001 h -2.81205 c 0,-0.456 -0.076,-0.91201 0,-1.36802 0,-0.152 0.304,-0.38001 0.456,-0.45601 z"
     id="path216"
     inkscape:connector-curvature="0"
     style="fill:#3e64af" />
</svg>
