<?xml version="1.0" encoding="UTF-8" standalone="no"?>
<svg
   xmlns:dc="http://purl.org/dc/elements/1.1/"
   xmlns:cc="http://creativecommons.org/ns#"
   xmlns:rdf="http://www.w3.org/1999/02/22-rdf-syntax-ns#"
   xmlns:svg="http://www.w3.org/2000/svg"
   xmlns="http://www.w3.org/2000/svg"
   xmlns:sodipodi="http://sodipodi.sourceforge.net/DTD/sodipodi-0.dtd"
   xmlns:inkscape="http://www.inkscape.org/namespaces/inkscape"
   viewBox="0 0 199.99999 199.99999"
   version="1.1"
   id="svg74"
   sodipodi:docname="game.svg"
   width="200"
   height="200"
   inkscape:version="0.92.4 5da689c313, 2019-01-14">
  <metadata
     id="metadata80">
    <rdf:RDF>
      <cc:Work
         rdf:about="">
        <dc:format>image/svg+xml</dc:format>
        <dc:type
           rdf:resource="http://purl.org/dc/dcmitype/StillImage" />
      </cc:Work>
    </rdf:RDF>
  </metadata>
  <defs
     id="defs78" />
  <sodipodi:namedview
     pagecolor="#ffffff"
     bordercolor="#666666"
     borderopacity="1"
     objecttolerance="10"
     gridtolerance="10"
     guidetolerance="10"
     inkscape:pageopacity="0"
     inkscape:pageshadow="2"
     inkscape:window-width="471"
     inkscape:window-height="442"
     id="namedview76"
     showgrid="false"
     inkscape:zoom="1.1799999"
     inkscape:cx="100.00001"
     inkscape:cy="99.999992"
     inkscape:window-x="0"
     inkscape:window-y="0"
     inkscape:window-maximized="0"
     inkscape:current-layer="svg74">
    <inkscape:grid
       type="xygrid"
       id="grid82"
       originx="0"
       originy="-1.5258788e-05" />
  </sodipodi:namedview>
  <path
     d="m 197.04841,100 c 0,53.60094 -43.44747,97.04841 -97.04841,97.04841 C 46.399055,197.04841 2.9515939,153.60094 2.9515939,100 2.9515939,46.399055 46.399055,2.951594 100,2.951594 c 53.60094,0 97.04841,43.447461 97.04841,97.048406 z M 116.64699,64.580874 c -5.07674,-2.361275 -10.7438,-3.77804 -16.64699,-3.77804 -21.605667,0 -39.079103,17.473435 -39.079103,39.079102 0,21.605664 17.473436,39.079104 39.079103,39.079104 21.60567,0 39.0791,-17.47344 39.0791,-39.079104 0,-15.466352 -9.20897,-28.92562 -22.43211,-35.301062"
     id="path2"
     inkscape:connector-curvature="0"
     style="fill:#5b98d0" />
  <path
     d="M 100,200 C 44.864227,200 0,155.13577 0,100 0,44.864227 44.864227,0 100,0 c 55.13577,0 100,44.864227 100,100 0,55.13577 -44.86423,100 -100,100 z M 100,0.118064 C 44.98229,0.118064 0.11806375,44.98229 0.11806375,100 c 0,55.01771 44.74616325,99.76387 99.76387225,99.76387 55.017714,0 99.763874,-44.74616 99.763874,-99.76387 C 199.76387,44.98229 155.01771,0.118064 100,0.118064 Z"
     id="path4"
     inkscape:connector-curvature="0"
     style="fill:#0f1317" />
  <path
     d="m 184.29752,148.17001 c -16.76505,29.16175 -48.17001,48.8784 -84.29752,48.8784 -36.127509,0 -67.532468,-19.71665 -84.297521,-48.8784 H 184.29752"
     id="path6"
     inkscape:connector-curvature="0"
     style="fill:#0f1317" />
  <path
     d="m 100,139.0791 c -21.605667,0 -39.079103,-17.47343 -39.079103,-39.0791 0,-21.605667 17.473436,-39.079103 39.079103,-39.079103 21.60567,0 39.0791,17.473436 39.0791,39.079103 0,21.60567 -17.5915,39.0791 -39.0791,39.0791 z m 0,-76.977565 c -20.897285,0 -37.898465,17.00118 -37.898465,37.898465 0,20.89728 17.00118,37.89847 37.898465,37.89847 20.89728,0 37.89847,-17.00118 37.89847,-37.89847 0,-20.897285 -17.00119,-37.898465 -37.89847,-37.898465 z"
     id="path8"
     inkscape:connector-curvature="0" />
  <path
     d="m 100,117.35537 c -9.563164,0 -17.355372,-7.79221 -17.355372,-17.35537 0,-9.563164 7.792208,-17.355372 17.355372,-17.355372 9.56316,0 17.35537,7.792208 17.35537,17.355372 0,9.56316 -7.79221,17.35537 -17.35537,17.35537 z m 0,-33.530104 c -8.972845,0 -16.174734,7.201889 -16.174734,16.174734 0,8.85478 7.201889,16.17473 16.174734,16.17473 8.85478,0 16.17473,-7.20189 16.17473,-16.17473 0,-8.972845 -7.31995,-16.174734 -16.17473,-16.174734 z"
     id="path10"
     inkscape:connector-curvature="0"
     style="fill:#a299a1" />
  <path
     d="m 100,113.93152 c -7.674144,0 -13.931523,-6.25738 -13.931523,-13.93152 0,-7.674144 6.257379,-13.931523 13.931523,-13.931523 7.67414,0 13.93152,6.257379 13.93152,13.931523 0,7.67414 -6.25738,13.93152 -13.93152,13.93152 z m 0,-26.800469 c -7.083825,0 -12.750885,5.785124 -12.750885,12.750885 0,7.083824 5.785123,12.750884 12.750885,12.750884 7.08383,0 12.75089,-5.78512 12.75089,-12.750884 0,-6.965761 -5.66706,-12.750885 -12.75089,-12.750885 z"
     id="path12"
     inkscape:connector-curvature="0"
     style="fill:#a299a1" />
  <path
     d="m 138.48878,100 c 0,21.25148 -17.2373,38.48878 -38.48878,38.48878 -21.251476,0 -38.488784,-17.2373 -38.488784,-38.48878 0,-21.251476 17.237308,-38.488784 38.488784,-38.488784 21.25148,0 38.48878,17.237308 38.48878,38.488784 z M 100,66.469894 c -18.536009,0 -33.530106,14.994097 -33.530106,33.530106 0,18.53601 14.994097,33.41204 33.530106,33.41204 18.53601,0 33.41204,-14.99409 33.41204,-33.41204 0,-18.417946 -14.99409,-33.530106 -33.41204,-33.530106 z"
     id="path14"
     inkscape:connector-curvature="0"
     style="fill:#96b0c1" />
  <path
     d="m 61.393152,161.03896 5.076742,-7.67414 c 0.236127,-0.47226 0.472255,-0.70839 0.708382,-0.70839 h 3.659977 v 1.06258 l 0.236127,-0.35419 c 0.236128,-0.47226 0.472255,-0.70839 0.708383,-0.70839 h 4.368359 v 8.26447 h -2.951594 v -6.49351 l -4.368359,6.49351 h -2.951594 l 4.368359,-6.49351 h -1.416765 c -0.118064,0 -0.354191,0.11806 -0.472255,0.23613 l -4.132232,6.37544 z m 18.53601,-3.30578 v 1.53482 h 6.729634 v 1.77096 h -9.681228 v -5.43093 c 0,-0.11807 0,-0.23613 0.118064,-0.47226 l 1.298701,-2.12514 c 0.118064,-0.11807 0.236127,-0.23613 0.472255,-0.23613 h 7.674144 v 1.77095 h -5.785124 c -0.118064,0 -0.236127,0.11807 -0.354191,0.23613 l -0.590319,1.2987 h 6.729634 l -0.94451,1.77096 h -5.66706 z M 90.5549,159.268 h 4.840614 v -1.53482 h -1.88902 l 0.94451,-1.77096 h 3.896103 v 4.60449 c 0,0.23612 -0.118063,0.47225 -0.472255,0.47225 h -9.681227 c -0.354192,0 -0.472255,-0.11806 -0.472255,-0.47225 v -4.95868 c 0,-0.11807 0,-0.23613 0.118063,-0.47226 l 1.298702,-2.12514 c 0.118063,-0.11807 0.236127,-0.23613 0.472255,-0.23613 h 8.146399 v 1.77095 H 91.49941 c -0.118064,0 -0.236128,0.11807 -0.354192,0.23613 l -0.590318,1.2987 z m 20.77922,1.77096 h -3.42385 l -1.2987,-1.77096 h -3.54191 l -0.94451,-1.53482 v 3.30578 h -2.951596 v -8.26446 h 5.548996 c 0.23613,0 0.47226,0.23613 0.70838,0.70838 z m -6.02125,-3.42385 -2.12515,-2.83353 c -0.11806,-0.11806 -0.35419,-0.23613 -0.47225,-0.23613 h -0.47226 v 3.06966 z m 9.4451,-0.70838 2.71547,4.13223 h 8.61865 v -1.41676 h -6.8477 l -1.65289,-2.71547 1.65289,-2.71547 h 6.8477 v -1.41676 h -8.61865 m -6.61157,3.30578 h 2.36127 v 2.00709 h -2.36127 z m 27.74498,0.82645 -2.83353,4.36836 h -8.1464 v -8.50059 h 8.1464 z m -2.83353,0 -1.88902,-2.71547 h -3.77804 v 5.78513 h 3.77804 z m -103.659979,-3.8961 h 22.432114 v 12.63282 H 32.113341 Z"
     id="path16"
     inkscape:connector-curvature="0"
     style="fill:#929397" />
  <path
     d="m 32.467532,153.36482 h 21.723731 v 11.92444 H 32.467532 Z"
     id="path18"
     inkscape:connector-curvature="0"
     style="fill:#010101" />
  <g
     id="g24"
     style="fill:#ed2224">
    <path
       d="m 39.433292,154.78158 -5.903187,8.85478 h 5.903187"
       id="path20"
       inkscape:connector-curvature="0" />
    <path
       d="m 44.273906,154.78158 -5.785124,8.85478 h 5.785124"
       id="path22"
       inkscape:connector-curvature="0" />
  </g>
  <path
     d="m 45.572609,155.01771 h 2.83353 v 8.73672 h -2.83353 z m 4.014168,0.11806 -0.590319,2.9516 h -0.118064 v -2.9516 c 0.236128,-0.11806 0.472255,-0.11806 0.708383,0 m -0.354191,2.9516 0.826446,-2.83353 c 0.236127,0.11806 0.472255,0.11806 0.708382,0.23612 l -1.298701,2.71547 c -0.118064,-0.11806 -0.236127,-0.11806 -0.236127,-0.11806 m 0.472255,0.23612 2.007083,-2.24321 c -0.118063,-0.11806 -0.354191,-0.23612 -0.590318,-0.35419 l -1.534829,2.47934 0.118064,0.11806 m 0.236127,0.23613 2.479339,-1.53483 c -0.118064,-0.23612 -0.354191,-0.47225 -0.472255,-0.59032 l -2.125148,2.00709 0.118064,0.11806 m 0.118064,0.23613 2.83353,-0.70838 -0.354191,-0.70839 -2.479339,1.41677 c 0,-0.11806 0,0 0,0 m 3.069657,0.47225 h -2.951593 c 0,-0.11806 0,-0.23612 -0.118064,-0.23612 l 2.951594,-0.47226 c 0.118063,0.23613 0.118063,0.47226 0.118063,0.70838 m -2.951593,0.23613 c 0,0.70838 -0.590319,1.2987 -1.298702,1.2987 v 2.9516 c 2.361275,0 4.250295,-1.88902 4.250295,-4.2503 h -2.951593"
     id="path26"
     inkscape:connector-curvature="0"
     style="fill:#11aa4b" />
  <path
     d="m 145.33648,152.89256 h 22.43212 v 12.63282 h -22.43212 z"
     id="path28"
     inkscape:connector-curvature="0"
     style="fill:#929397" />
  <path
     d="m 145.69067,153.24675 h 21.72373 v 11.92444 h -21.72373 z"
     id="path30"
     inkscape:connector-curvature="0"
     style="fill:#010101" />
  <path
     d="m 156.43447,162.45573 2.9516,-2.9516 v -0.11806 l -3.06966,2.24321 3.06966,-3.18772 -3.06966,2.36127 2.95159,-3.06965 -2.95159,2.36127 2.83353,-3.18772 c -1.06257,-0.82645 -3.42385,-0.11806 -5.549,1.77096 -2.24321,2.00708 -3.18772,4.36835 -2.24321,5.43093 0.94451,1.06257 3.42385,0.35419 5.66706,-1.65289 0.59032,-0.59032 1.06258,-1.06258 1.53483,-1.6529 z"
     id="path32"
     inkscape:connector-curvature="0"
     style="fill:#5b98d0" />
  <path
     d="m 155.13577,159.85832 h -1.06257 v 2.59741 h 1.06257 v -0.70839 h 0.94451 v 1.53483 h -2.47934 c -0.23612,0 -0.47225,-0.23613 -0.47225,-0.47225 v -3.30579 c 0,-0.35419 0.11806,-0.47225 0.47225,-0.47225 h 2.47934 v 1.77095 h -0.94451 z"
     id="path34"
     inkscape:connector-curvature="0"
     style="fill:#020202" />
  <path
     d="m 161.74734,155.96222 -2.95159,2.95159 v 0.11807 l 3.06966,-2.24321 -3.06966,3.18772 3.06966,-2.36128 -2.9516,3.06966 2.9516,-2.36128 -2.83353,3.18773 c 1.06257,0.82644 3.42385,0.11806 5.54899,-1.77096 2.24322,-2.00708 3.18773,-4.36836 2.24322,-5.43093 -0.94452,-1.06258 -3.42385,-0.35419 -5.66707,1.65289 -0.59031,0.59032 -1.06257,1.06257 -1.53482,1.65289 z"
     id="path36"
     inkscape:connector-curvature="0"
     style="fill:#deae2c" />
  <path
     d="m 165.05313,158.91381 c 0,0.23613 -0.23613,0.47226 -0.47226,0.47226 h -2.47934 v -4.2503 h 2.47934 c 0.23613,0 0.47226,0.23613 0.47226,0.47226 z m -2.00709,-0.35419 h 1.06258 v -2.5974 h -1.06258 z"
     id="path38"
     inkscape:connector-curvature="0"
     style="fill:#020202" />
  <path
     d="m 147.69776,154.0732 c 0.11806,-0.11806 0.23612,-0.23613 0.35419,-0.23613 h 0.94451 v 0.35419 c 0.11806,-0.11806 0.23613,-0.35419 0.47225,-0.35419 h 1.18064 v 2.47934 h -0.82645 v -1.77096 c -0.11806,0 -0.23612,0.11807 -0.35419,0.23613 -0.35419,0.47226 -0.59032,0.94451 -0.94451,1.53483 h -0.82644 l 1.06257,-1.77096 c -0.23613,0 -0.47225,0 -0.59032,0.11807 -0.35419,0.59032 -0.70838,1.06257 -1.06257,1.65289 h -0.94451 c 0.59032,-0.70838 1.06257,-1.41676 1.53483,-2.24321 z m 3.30578,0.11806 c 0.11807,-0.11806 0.35419,-0.35419 0.59032,-0.35419 h 1.88902 v 0.59032 h -1.41676 l -0.3542,0.35419 h 1.77096 c -0.11806,0.11807 -0.23613,0.35419 -0.35419,0.47226 h -1.41677 v 0.47225 h 1.6529 v 0.47226 h -2.59741 v -1.53483 c 0,-0.11807 0.11807,-0.35419 0.23613,-0.47226 z m 2.83353,-0.11806 c 0.11807,-0.11806 0.23613,-0.23613 0.47226,-0.23613 h 2.00708 v 0.59032 h -1.2987 c -0.35419,0 -0.47226,0.35419 -0.47226,0.59032 0,0.35419 -0.11806,0.35419 0,0.82645 h 1.18064 v -0.3542 h -0.59032 c 0.11807,-0.11806 0.23613,-0.35419 0.23613,-0.47225 h 1.06257 v 1.18064 c 0,0.11806 0,0.11806 -0.11806,0.23612 h -2.36127 c -0.23613,0 -0.3542,-0.23612 -0.3542,-0.35419 v -1.2987 c 0,-0.35419 0.11807,-0.47225 0.23613,-0.70838 z m 2.83353,-0.23613 h 1.2987 c 0.23613,0 0.47226,0.23613 0.59032,0.35419 0.47226,0.70839 0.82645,1.41677 1.2987,2.12515 h -0.94451 c -0.11806,-0.11806 -0.23612,-0.35419 -0.35419,-0.47225 h -0.82644 c -0.11807,-0.11807 -0.11807,-0.23613 -0.23613,-0.3542 v 0.82645 h -0.82645 z m 0.82645,0.59032 v 0.94451 h 0.70838 c -0.11806,-0.23613 -0.23613,-0.47225 -0.47225,-0.70838 0,-0.23613 -0.11807,-0.23613 -0.23613,-0.23613 z"
     id="path40"
     inkscape:connector-curvature="0"
     style="fill:#ffffff" />
  <path
     d="m 106.96576,191.49941 h -4.60448 c -1.88902,0 -3.069663,-1.2987 -3.187726,-3.18772 v -4.36836 c 0,-1.88902 1.298706,-3.18772 3.187726,-3.18772 h 4.84061 v 2.24321 h -4.13223 c -1.2987,0 -1.53483,0.11806 -1.53483,1.65289 v 3.30579 c 0,1.06257 0.47225,1.18063 1.18064,1.2987 h 2.24321 v -2.83353 h -2.24321 v -2.24321 h 4.60448 v 2.83353 l 1.41677,-4.36836 c 0.47225,-1.41677 1.2987,-2.12515 2.47934,-2.12515 h 0.59032 c 0.94451,0.11806 1.65289,0.70838 1.88902,1.53483 0.70838,2.12515 1.41676,4.36836 2.12514,6.49351 l 0.70839,2.12514 v 0.23613 l -0.11807,0.35419 -0.47225,0.11807 h -5.549 v -2.24322 h 3.30579 l -0.47226,-1.2987 -0.47225,-1.2987 c -0.3542,-1.06257 -0.70839,-2.24321 -1.06258,-3.30578 -0.11806,-0.23613 -0.35419,-0.59032 -0.47225,-0.59032 -0.11807,0 -0.23613,0.35419 -0.23613,0.59032 l -0.70838,2.36127 c -0.47226,1.65289 -1.06258,3.18772 -1.53483,4.84062 -0.47226,0.70838 -0.94451,1.06257 -1.77096,1.06257 z"
     id="path42"
     inkscape:connector-curvature="0"
     style="fill:#929397" />
  <path
     d="m 115.82054,190.90909 h -5.07674 v -1.18064 h 3.42385 c -0.23613,-0.70838 -0.47225,-1.41676 -0.70838,-2.00708 -0.47226,-1.53483 -0.94451,-3.06966 -1.53483,-4.60449 -0.11806,-0.35419 -0.47226,-0.82644 -0.82645,-0.94451 -0.59032,-0.11806 -0.70838,0.47226 -0.94451,0.94451 -0.70838,2.36128 -1.53483,4.72255 -2.24321,7.08383 -0.11806,0.59032 -0.47225,0.70838 -0.94451,0.70838 h -4.60448 c -1.53483,0 -2.597408,-1.06257 -2.597408,-2.71547 v -4.36835 c 0,-1.6529 1.062578,-2.59741 2.597408,-2.71547 h 4.25029 v 1.2987 h -3.54191 c -1.65289,0 -2.12515,0.35419 -2.12515,2.12515 v 3.30578 c 0,1.18064 0.59032,1.77096 1.65289,1.77096 h 2.71547 v -3.8961 h -2.24321 v -1.18064 h 3.54191 v 5.07674 h 0.23613 c 0.70838,-2.36128 1.53483,-4.60449 2.24321,-6.96576 0.47225,-1.2987 1.18064,-1.88902 2.47934,-1.65289 0.70838,0.11806 1.2987,0.47225 1.41676,1.18063 0.94451,2.83353 1.77096,5.549 2.71547,8.38253 0.11806,0.23613 0.11806,0.23613 0.11806,0.35419 z"
     id="path44"
     inkscape:connector-curvature="0"
     style="fill:#3e64af" />
  <path
     d="m 83.707202,191.38135 v -2.24322 h 4.486423 c 0.826446,0 1.416765,-0.59031 1.416765,-1.2987 0,-0.70838 -0.590319,-1.41676 -1.416765,-1.41676 h -0.354192 l -0.354191,-0.47226 v 0.47226 h -0.590319 c -0.94451,-0.11807 -1.652892,-0.94451 -1.652892,-2.00709 0,-1.06257 0.708382,-1.88902 1.652892,-2.00708 h 4.840614 v 2.24321 h -1.534829 c 0.708383,0.47226 1.298702,1.2987 1.534829,2.24321 0.236128,1.06258 0,2.24321 -0.590319,3.18772 -0.590318,0.82645 -1.534828,1.29871 -2.479338,1.41677 h -1.652893 z"
     id="path46"
     inkscape:connector-curvature="0"
     style="fill:#929397" />
  <path
     d="m 84.179457,190.90909 v -1.18064 h 4.014168 c 1.062573,0 1.88902,-0.82644 2.007083,-1.88902 0,-1.06257 -0.826446,-1.88902 -1.88902,-2.00708 h -1.298701 c -0.708383,-0.11806 -1.180638,-0.70838 -1.180638,-1.41677 0,-0.70838 0.472255,-1.41676 1.180638,-1.41676 h 4.368359 v 1.18064 h -4.250295 v 0.35419 h 1.180637 c 1.534829,0 2.597403,0.94451 2.951594,2.47934 0.472255,1.88902 -0.826446,3.77804 -2.715466,3.8961 z"
     id="path48"
     inkscape:connector-curvature="0"
     style="fill:#3e64af" />
  <path
     d="m 83.707202,189.72845 v -2.36127 h 1.416765 c -0.472255,-0.35419 -0.826446,-0.82645 -1.062574,-1.41677 -0.590319,-1.2987 -0.472255,-2.5974 0.354191,-3.8961 0.590319,-0.94451 1.534829,-1.41677 2.479339,-1.41677 h 5.194805 v 2.24322 h -4.604486 c -0.472255,0 -0.826446,0.23612 -1.180638,0.59031 -0.236127,0.3542 -0.354191,0.82645 -0.236127,1.29871 0.236127,0.59031 0.708383,0.94451 1.298701,0.94451 h 1.180638 c 0.94451,0.11806 1.652892,0.94451 1.652892,1.88902 0,1.06257 -0.708382,2.00708 -1.652892,2.00708 h -1.88902 z"
     id="path50"
     inkscape:connector-curvature="0"
     style="fill:#929397" />
  <path
     d="m 84.179457,189.13813 v -1.2987 h 4.250295 v -0.35419 h -1.298701 c -1.180638,0 -2.125148,-0.59032 -2.715467,-1.77095 -0.590318,-1.18064 -0.472255,-2.24322 0.236128,-3.30579 0.472255,-0.70838 1.180637,-1.18064 2.007084,-1.18064 h 4.486422 v 1.18064 h -4.014167 c -1.298702,0 -2.243212,1.2987 -1.770957,2.47934 0.236128,0.70838 0.94451,1.2987 1.770957,1.2987 h 1.298701 c 0.708383,0.11806 1.180638,0.70838 1.180638,1.41677 0,0.70838 -0.472255,1.41676 -1.180638,1.41676 -1.298701,0.23613 -2.715466,0.11806 -4.250295,0.11806 z"
     id="path52"
     inkscape:connector-curvature="0"
     style="fill:#3e64af" />
  <path
     d="m 95.27745,191.38135 h -0.94451 c -1.416765,-0.11807 -2.597403,-1.41677 -2.715467,-2.83353 v -5.07675 c 0,-1.41676 1.180638,-2.71546 2.479339,-2.71546 h 5.548997 v 2.24321 h -4.486423 c -1.062574,0 -1.298701,0.23613 -1.298701,1.41676 v 3.42385 c 0,1.06258 0.236127,1.2987 1.298701,1.2987 h 4.486423 v 2.24322 z"
     id="path54"
     inkscape:connector-curvature="0"
     style="fill:#929397" />
  <path
     d="m 99.173554,181.22786 v 1.18064 h -4.014168 c -1.416765,0 -1.88902,0.47226 -1.88902,1.88902 v 3.42385 c 0,1.2987 0.472255,1.88902 1.770956,1.88902 h 4.014168 v 1.18064 h -4.840614 c -1.180638,-0.11807 -2.125148,-1.18064 -2.125148,-2.36128 v -5.07674 c 0,-1.06257 0.94451,-2.24321 2.007084,-2.24321 1.652893,0 3.305785,0.11806 5.076742,0.11806 z"
     id="path56"
     inkscape:connector-curvature="0"
     style="fill:#3e64af" />
  <path
     d="m 109.09091,191.38135 c -0.23613,0 -0.47226,0 -0.94451,-0.11807 l -0.59032,-0.11806 0.59032,-1.65289 c 0.70838,-2.24322 1.41676,-4.48643 2.24321,-6.72964 0.11806,-0.35419 0.47226,-0.70838 0.70838,-0.82644 h 0.23613 c 0.35419,0 0.82645,0.35419 0.82645,0.70838 0.59032,1.65289 1.06257,3.30578 1.65289,5.07674 l 0.59032,1.88902 h -3.77804 l -0.11807,0.23613 c -0.35419,1.06257 -0.47225,1.53483 -1.41676,1.53483 z"
     id="path58"
     inkscape:connector-curvature="0"
     style="fill:#929397" />
  <path
     d="m 108.1464,190.79103 2.47934,-7.79221 c 0.11806,-0.23613 0.23613,-0.35419 0.47225,-0.47226 0.11807,0 0.35419,0.11807 0.35419,0.3542 0.70839,2.00708 1.41677,4.13223 2.00709,6.25737 h -2.83353 c 0,-0.35419 -0.11807,-0.59031 -0.11807,-0.82644 h -0.11806 c -0.11806,0.47225 -0.35419,0.94451 -0.47225,1.41676 -0.3542,1.2987 -0.3542,1.2987 -1.77096,1.06258 z m 2.47934,-2.9516 h 1.06257 c -0.11806,-0.47225 -0.23613,-0.94451 -0.47225,-1.2987 h -0.11807 c -0.11806,0.35419 -0.23612,0.70838 -0.47225,1.2987 z"
     id="path60"
     inkscape:connector-curvature="0"
     style="fill:#3e64af" />
  <path
     d="m 103.42385,189.72845 h -1.2987 c -0.59032,0 -1.06258,-0.82644 -1.06258,-1.2987 -0.11806,-1.53483 0,-3.06966 0,-4.60448 0,-0.82645 0.59032,-1.41677 1.41677,-1.41677 h 4.84061 v 2.24321 h -4.01416 v 1.18064 h 2.36127 v 3.8961 z"
     id="path62"
     inkscape:connector-curvature="0"
     style="fill:#929397" />
  <path
     d="m 103.8961,187.72137 c -0.35419,-0.11806 -0.59031,-0.11806 -0.82644,-0.23613 v -1.06257 h 1.88902 v 2.83353 h -2.83353 c -0.23613,0 -0.59032,-0.47226 -0.59032,-0.82645 -0.11806,-1.53483 0,-3.06966 0,-4.60448 0,-0.59032 0.35419,-0.82645 0.82645,-0.82645 h 4.36835 v 1.18064 h -3.18772 c -0.59032,0 -0.94451,0.23612 -0.82644,0.94451 v 2.12514 c -0.11807,0.70839 0.23612,0.94451 1.18063,0.47226 z"
     id="path64"
     inkscape:connector-curvature="0"
     style="fill:#3e64af" />
  <path
     d="m 96.812279,189.72845 h -2.361275 c -0.590319,0 -1.062574,-0.82644 -1.180638,-1.2987 -0.118064,-0.47225 -0.118064,-0.94451 0,-1.41676 v -1.06258 h 5.430933 v 1.6529 h 0.94451 v 2.12514 z"
     id="path66"
     inkscape:connector-curvature="0"
     style="fill:#929397" />
  <path
     d="m 95.041322,187.83943 c 1.298702,0.23613 2.715467,0 4.014168,0.11807 v 1.18063 h -4.604486 c -0.236128,0 -0.590319,-0.47225 -0.708383,-0.82644 -0.118064,-0.59032 0,-1.2987 0,-2.00709 h 4.368359 v 1.18064 h -3.069658 z"
     id="path68"
     inkscape:connector-curvature="0"
     style="fill:#3e64af" />
  <path
     d="m 93.270366,186.3046 v -2.71546 c 0.118064,-0.47226 0.708383,-1.06258 1.180638,-1.06258 h 5.194805 v 2.12515 l -0.472255,0.11807 h -0.590319 v 1.65289 h -5.312869 z"
     id="path70"
     inkscape:connector-curvature="0"
     style="fill:#929397" />
  <path
     d="m 99.173554,182.88076 v 1.18063 c -1.416765,0.23613 -2.715467,-0.11806 -4.132232,0.11807 v 0.35419 h 3.069658 v 1.18064 h -4.368359 c 0,-0.70839 -0.118064,-1.41677 0,-2.12515 0,-0.23613 0.472255,-0.59032 0.708383,-0.70838 z"
     id="path72"
     inkscape:connector-curvature="0"
     style="fill:#3e64af" />
</svg>
