<?xml version="1.0" encoding="UTF-8" standalone="no"?>
<svg
   xmlns:dc="http://purl.org/dc/elements/1.1/"
   xmlns:cc="http://creativecommons.org/ns#"
   xmlns:rdf="http://www.w3.org/1999/02/22-rdf-syntax-ns#"
   xmlns:svg="http://www.w3.org/2000/svg"
   xmlns="http://www.w3.org/2000/svg"
   xmlns:sodipodi="http://sodipodi.sourceforge.net/DTD/sodipodi-0.dtd"
   xmlns:inkscape="http://www.inkscape.org/namespaces/inkscape"
   viewBox="0 0 327 35.224721"
   version="1.1"
   id="svg20"
   sodipodi:docname="logo.svg"
   width="327"
   height="35.22472"
   inkscape:version="0.92.4 5da689c313, 2019-01-14">
  <metadata
     id="metadata26">
    <rdf:RDF>
      <cc:Work
         rdf:about="">
        <dc:format>image/svg+xml</dc:format>
        <dc:type
           rdf:resource="http://purl.org/dc/dcmitype/StillImage" />
      </cc:Work>
    </rdf:RDF>
  </metadata>
  <defs
     id="defs24" />
  <sodipodi:namedview
     pagecolor="#ffffff"
     bordercolor="#666666"
     borderopacity="1"
     objecttolerance="10"
     gridtolerance="10"
     guidetolerance="10"
     inkscape:pageopacity="0"
     inkscape:pageshadow="2"
     inkscape:window-width="640"
     inkscape:window-height="480"
     id="namedview22"
     showgrid="false"
     inkscape:zoom="0.83623647"
     inkscape:cx="162.03533"
     inkscape:cy="17.613"
     inkscape:window-x="0"
     inkscape:window-y="0"
     inkscape:window-maximized="0"
     inkscape:current-layer="svg20">
    <inkscape:grid
       type="xygrid"
       id="grid833"
       originx="-0.00017580154"
       originy="0.0010009766" />
  </sodipodi:namedview>
  <path
     d="m 207.88082,23.492721 c 0.6,-0.539 1.281,-0.857 2.051,-0.936 a 4.246,4.246 0 0 1 2.109,0.27 c 0.627,0.279 1.134,0.694 1.481,1.3 0.359,0.579 0.445,1.27 0.263,2.079 -0.229,0.81 -0.667,1.553 -1.302,2.244 a 23.54,23.54 0 0 1 -1.914,1.898 c -1.455,1.378 -3.072,2.388 -4.854,3.052 a 14.792,14.792 0 0 1 -5.393,0.936 14.305,14.305 0 0 1 -5.331,-1.167 c -1.737,-0.74 -3.306,-1.847 -4.69,-3.318 a 15.665,15.665 0 0 1 -2.082,-2.786 13.173,13.173 0 0 1 -1.287,-3.071 16.04,16.04 0 0 1 -0.607,-4.948 c 0.027,-1.704 0.327,-3.371 0.895,-4.986 a 17.437,17.437 0 0 1 2.381,-4.5649997 14.93,14.93 0 0 1 3.789,-3.648 28.09,28.09 0 0 1 3.286,-1.928 45.332,45.332 0 0 1 3.513,-1.511 c 0.711,-0.258 1.435,-0.52 2.185,-0.78 0.752,-0.249 1.52,-0.433 2.305,-0.587 a 11.99,11.99 0 0 1 2.358,-0.14399998 8.106,8.106 0 0 1 2.308,0.45199998 c 0.522,0.205 1.05,0.492 1.571,0.839 0.52,0.357 1.012,0.752 1.454,1.202 0.46,0.461 0.847,0.934 1.187,1.437 a 6.2,6.2 0 0 1 0.73,1.471 c 0.106,0.435 0.142,0.887 0.082,1.333 a 2.788,2.788 0 0 1 -0.441,1.238 c -0.248,0.368 -0.584,0.674 -1,0.936 a 3.621,3.621 0 0 1 -1.398,0.4729997 c -0.865,0.106 -1.519,0.017 -1.989,-0.241 a 3.655,3.655 0 0 1 -1.128,-1.0209997 l -0.816,-1.175 c -0.254,-0.397 -0.627,-0.666 -1.107,-0.839 -0.31,0 -0.539,0.01 -0.686,0.05 -1.279,0.3 -2.561,0.723 -3.84,1.243 a 18.302,18.302 0 0 0 -3.592,1.8869997 13.494,13.494 0 0 0 -2.899,2.57 9.385,9.385 0 0 0 -1.802,3.284 11.544,11.544 0 0 0 -0.499,4.383 c 0.106,1.482 0.56,2.868 1.348,4.175 a 6.68,6.68 0 0 0 1.79,2.022 8.066,8.066 0 0 0 2.482,1.292 6.746,6.746 0 0 0 2.746,0.298 6.496,6.496 0 0 0 2.688,-0.875 9.102,9.102 0 0 0 2.028,-1.74 28.472,28.472 0 0 0 1.627,-2.098 z"
     id="path2"
     inkscape:connector-curvature="0"
     style="fill:#ff004f" />
  <path
     d="m 243.01582,19.656721 a 30.85,30.85 0 0 1 -2.264,5.106 19.752,19.752 0 0 1 -3.352,4.466 16.098,16.098 0 0 1 -4.613,3.179 c -1.75,0.809 -3.754,1.213 -6.007,1.213 -1.452,-0.059 -2.597,-0.184 -3.456,-0.357 a 10.87,10.87 0 0 1 -2.463,-0.771 c -1.436,-0.372 -2.648,-0.972 -3.67,-1.798 a 11.415,11.415 0 0 1 -2.58,-2.872 13.998,13.998 0 0 1 -1.59,-3.477 c -0.365,-1.228 -0.607,-2.415 -0.701,-3.57 a 18.061,18.061 0 0 1 0.577,-6.173 18.63,18.63 0 0 1 2.645,-5.7679997 18.192,18.192 0 0 1 4.574,-4.535 c 1.852,-1.262 3.949,-2.078 6.297,-2.482 1.227,-0.191 2.448,-0.258 3.697,-0.191 1.254,0.057 2.467,0.277 3.639,0.653 0.974,0.307 1.871,0.664 2.711,1.069 0.834,0.404 1.624,0.928 2.393,1.549 a 12.385,12.385 0 0 1 2.555,2.803 11.995,11.995 0 0 1 1.502,3.3119997 c 0.385,1.461 0.547,2.908 0.519,4.343 a 29.924,29.924 0 0 1 -0.413,4.301 z m -13.48,7.881 a 9.577,9.577 0 0 0 2.743,-1.619 12.994,12.994 0 0 0 2.051,-2.217 13.617,13.617 0 0 0 1.472,-2.589 c 0.404,-0.922 0.763,-1.839 1.07,-2.782 a 21.69,21.69 0 0 0 0.34,-3.637 7.47,7.47 0 0 0 -0.851,-3.554 c -0.491,-0.936 -1.223,-1.7229997 -2.213,-2.4099997 a 9.452,9.452 0 0 0 -3.258,-1.386 9.783,9.783 0 0 0 -3.561,-0.171 c -1.193,0.156 -2.264,0.575 -3.195,1.259 -1.331,0.996 -2.389,2.1099997 -3.207,3.3419997 a 14.733,14.733 0 0 0 -1.85,4.085 15.387,15.387 0 0 0 -0.568,3.735 c -0.027,1.308 0.191,2.551 0.686,3.735 0.365,0.873 0.932,1.676 1.682,2.386 a 8.486,8.486 0 0 0 2.522,1.684 c 0.94,0.404 1.94,0.638 2.997,0.686 a 7.773,7.773 0 0 0 3.14,-0.547 z"
     id="path4"
     inkscape:connector-curvature="0"
     style="fill:#7942ba" />
  <path
     d="m 295.32582,19.794721 a 32.336,32.336 0 0 1 -2.426,5.466 20.924,20.924 0 0 1 -3.583,4.776 17.25,17.25 0 0 1 -4.931,3.392 c -1.858,0.865 -4.006,1.298 -6.422,1.298 -1.551,-0.059 -2.782,-0.194 -3.697,-0.365 a 14.811,14.811 0 0 1 -2.635,-0.829 c -1.523,-0.404 -2.836,-1.042 -3.923,-1.936 a 12.345,12.345 0 0 1 -2.753,-3.06 14.355,14.355 0 0 1 -1.694,-3.729 18.835,18.835 0 0 1 -0.751,-3.821 c -0.192,-2.156 0.011,-4.362 0.607,-6.588 a 19.656,19.656 0 0 1 2.839,-6.1609997 c 1.29,-1.887 2.929,-3.492 4.903,-4.851 1.962,-1.348 4.197,-2.232 6.719,-2.66499998 1.298,-0.196 2.609,-0.273 3.949,-0.196 1.338,0.061 2.637,0.302 3.898,0.69499998 1.033,0.326 2.003,0.711 2.888,1.156 a 11.93,11.93 0 0 1 2.563,1.638 13.045,13.045 0 0 1 2.712,2.995 12.206,12.206 0 0 1 1.617,3.5489997 c 0.408,1.561 0.588,3.113 0.551,4.641 a 30.389,30.389 0 0 1 -0.431,4.595 z m -14.412,8.431 c 1.115,-0.44 2.087,-1.008 2.926,-1.721 a 14.699,14.699 0 0 0 2.205,-2.379 14.912,14.912 0 0 0 1.576,-2.772 c 0.434,-0.974 0.803,-1.975 1.137,-2.976 0.22,-1.26 0.34,-2.561 0.354,-3.88 a 7.857,7.857 0 0 0 -0.901,-3.804 c -0.521,-0.9999997 -1.31,-1.8579997 -2.371,-2.5689997 a 10.153,10.153 0 0 0 -3.463,-1.5 10.853,10.853 0 0 0 -3.825,-0.174 7.151,7.151 0 0 0 -3.419,1.357 c -1.4,1.061 -2.551,2.2419997 -3.416,3.5599997 a 15.584,15.584 0 0 0 -1.977,4.372 15.338,15.338 0 0 0 -0.616,4 9.595,9.595 0 0 0 0.728,3.983 c 0.404,0.943 1.01,1.792 1.809,2.551 a 8.926,8.926 0 0 0 5.89,2.522 8.335,8.335 0 0 0 3.363,-0.57 z"
     id="path6"
     inkscape:connector-curvature="0"
     style="fill:#f9e52d" />
  <path
     d="m 303.29682,31.950721 a 3.106,3.106 0 0 1 -1.183,2.06 5.112,5.112 0 0 1 -2.196,1.04 c -0.789,0.144 -1.503,0.066 -2.156,-0.22 -0.654,-0.31 -1.002,-0.915 -1.047,-1.832 a 251.696,251.696 0 0 1 -0.273,-12.024 V 8.5917213 c -0.597,-0.192 -1.058,-0.499 -1.348,-0.905 a 2.66,2.66 0 0 1 -0.539,-1.329 3.318,3.318 0 0 1 0.191,-1.503 c 0.203,-0.499 0.475,-0.932 0.861,-1.308 0.4,-0.404 0.961,-0.767 1.663,-1.1 a 20.874,20.874 0 0 1 2.337,-0.932 c 0.84,-0.281 1.68,-0.53899998 2.507,-0.72999998 a 33.508,33.508 0 0 1 2.077,-0.461 c 2.36,-0.446 4.729,-0.425 7.129,0.025 2.393,0.453 4.492,1.27299998 6.313,2.43799998 1.818,1.185 3.176,2.713 4.073,4.6 0.895,1.892 0.995,4.0369997 0.278,6.4629997 a 15.066,15.066 0 0 1 -0.836,2.014 c -0.34,0.662 -0.732,1.291 -1.174,1.866 a 11.364,11.364 0 0 1 -2.254,2.31 22.44,22.44 0 0 1 -2.81,1.869 c 0.71,0.674 1.396,1.378 2.022,2.117 a 15.122,15.122 0 0 0 2.136,2.023 c 0.299,0.233 0.74,0.6 1.32,1.1 a 21.856,21.856 0 0 1 1.686,1.626 c 0.537,0.568 1.02,1.126 1.436,1.685 0.404,0.549 0.596,1.01 0.556,1.386 a 3.304,3.304 0 0 1 -0.589,1.733 c -0.356,0.53 -0.787,0.922 -1.289,1.213 -0.5,0.289 -1.057,0.433 -1.652,0.433 -0.6,0 -1.197,-0.192 -1.805,-0.557 a 11.9,11.9 0 0 1 -1.906,-1.668 50.483,50.483 0 0 0 -1.742,-1.76 206.875,206.875 0 0 1 -3.616,-3.652 111.703,111.703 0 0 0 -3.633,-3.618 c -0.742,0.146 -1.503,0.239 -2.27,0.289 -0.763,0.045 -1.523,0.106 -2.266,0.172 v 7.52 z m 10.054,-24.4189997 c -1.501,-0.799 -3.15,-1.248 -4.921,-1.358 a 13.96,13.96 0 0 0 -5.133,0.658 V 18.227721 a 41.989,41.989 0 0 0 4.959,-0.584 11.08,11.08 0 0 0 4.516,-1.877 7.064,7.064 0 0 0 1.84,-1.908 c 0.461,-0.713 0.74,-1.456 0.839,-2.215 a 4.21,4.21 0 0 0 -0.34,-2.2129997 c -0.32,-0.723 -0.904,-1.36 -1.76,-1.899 z"
     id="path8"
     inkscape:connector-curvature="0"
     style="fill:#00b3dd" />
  <path
     d="m 265.28382,26.189721 c 0.897,0.308 1.581,0.713 2.069,1.253 0.502,0.539 0.752,1.1 0.791,1.685 0.02,0.596 -0.173,1.166 -0.605,1.726 -0.426,0.554 -1.108,1.008 -2.063,1.348 -0.365,0.145 -0.875,0.228 -1.549,0.306 -0.674,0.066 -1.608,0.155 -2.795,0.241 -1.191,0.095 -2.705,0.22 -4.543,0.364 -1.83,0.135 -4.08,0.347 -6.76,0.588 -0.662,0.085 -1.357,0.154 -2.066,0.21 -0.717,0.057 -1.348,-0.114 -1.9,-0.509 -0.479,-0.298 -0.847,-0.782 -1.107,-1.463 a 10.172,10.172 0 0 1 -0.559,-2.138 25.465,25.465 0 0 1 -0.238,-2.274 84.566,84.566 0 0 0 -0.117,-1.885 c -0.078,-1.004 -0.163,-2.16 -0.25,-3.466 -0.084,-1.302 -0.176,-2.65 -0.249,-4.009 -0.099,-1.356 -0.192,-2.686 -0.298,-3.992 -0.098,-1.302 -0.193,-2.467 -0.271,-3.47 a 158.03,158.03 0 0 1 -0.281,-4.3049997 c -0.047,-1.095 -0.036,-1.953 0.051,-2.581 0.078,-0.632 0.249,-1.103 0.53,-1.402 0.278,-0.308 0.674,-0.587 1.185,-0.841 0.421,-0.2 0.914,-0.294 1.463,-0.275 0.551,0 1.048,0.095 1.539,0.268 0.482,0.184 0.896,0.454 1.255,0.818 0.335,0.357 0.528,0.772 0.564,1.234 0.408,4.024 0.716,8.0099997 0.955,11.9689997 0.233,3.965 0.513,7.913 0.818,11.871 2.348,-0.192 4.701,-0.388 7.03,-0.625 2.319,-0.233 4.677,-0.473 7.056,-0.732 z"
     id="path10"
     inkscape:connector-curvature="0"
     style="fill:#aae000" />
  <g
     id="g18"
     style="fill:#3b3e8a"
     transform="translate(-1.7580155e-4,-2.7867961e-4)">
    <path
       d="m 175.818,31.397 c 0.348,0 0.657,-0.024 0.657,-0.441 0,-0.335 -0.303,-0.397 -0.59,-0.397 h -0.557 v 0.838 h 0.49 m -0.49,1.52 h -0.41 v -2.703 h 1.031 c 0.637,0 0.953,0.235 0.953,0.768 0,0.483 -0.302,0.695 -0.7,0.746 l 0.771,1.189 h -0.46 l -0.714,-1.172 h -0.471 v 1.172 m 0.496,0.603 c 1.061,0 1.898,-0.833 1.898,-1.961 0,-1.11 -0.838,-1.948 -1.898,-1.948 -1.074,0 -1.911,0.838 -1.911,1.948 0,1.128 0.837,1.961 1.911,1.961 m -2.382,-1.961 c 0,-1.345 1.092,-2.339 2.383,-2.339 1.277,0 2.369,0.994 2.369,2.339 0,1.357 -1.092,2.352 -2.369,2.352 -1.292,0 -2.383,-0.994 -2.383,-2.352 m -133.82,-13.596 -1.181,-6.09 -2.721,6.09 h 3.902 M 82.344,33.432 H 75.899 L 75.04,14.023 66.66,33.432 H 62.364 L 58.78,15.886 53.195,33.432 H 42.237 L 40.59,24.051 h -7.449 l -4.225,9.381 H 22.183 L 36.007,2.063 h 7.949 l 4.226,25.352 8.235,-25.352 h 6.375 L 65.943,19.251 73.25,2.063 h 7.734 l 1.36,31.369 m 18.478,0 1.077,-6.732 H 90.652 l 0.893,-5.585 h 9.779 l 1.077,-6.734 h -9.886 l 0.86,-5.586 h 11.242 l 1.077,-6.732 H 87.86 l -5.014,31.369 h 17.976 M 184.547,2.063 h -7.521 l -6.374,10.241 -4.011,-10.241 h -7.376 l 7.591,16.543 -2.338,14.826 h 6.446 l 1.98,-13.107 11.603,-18.262"
       id="path12"
       inkscape:connector-curvature="0" />
    <path
       d="m 146.276,27.459 c 3.409,1.526 7.584,-1.467 9.32,-6.684 1.739,-5.218 0.387,-10.686 -3.023,-12.213 -3.408,-1.525 -7.582,1.469 -9.322,6.687 -1.739,5.219 -0.386,10.684 3.025,12.21 M 136.52,15.047 c 2,-8.669 9.412,-14.364 16.558,-12.712 7.143,1.65 11.311,10.019 9.31,18.689 -2.002,8.673 -9.414,14.365 -16.559,12.715 -7.143,-1.651 -11.312,-10.018 -9.309,-18.692 M 8.433,4.857 C 2.292,8.657 -0.662,14.455 0.125,22.33 1.039,31.47 12.873,37.228 22.9,31.429 23.776,30.92 23.434,31 23.759,30.71 l 2.006,-12.747 h -11.96 l -0.916,5.871 h 4.998 l -0.572,3.153 C 14.45,28.134 9.58,27.704 7.501,23.978 6.187,21.621 4.967,16.355 10.511,11.516 15.022,7.577 22.829,6.862 27.341,8.941 c 0,0 0.573,-3.297 1.002,-6.377 C 19.677,-0.443 12.945,2.063 8.433,4.857"
       id="path14"
       inkscape:connector-curvature="0" />
    <path
       d="m 115.504,2.24 -4.977,31.131 h 14.5 c 5.971,0 14.701,-8.802 6.753,-15.994 8.173,-8.457 0.071,-15.068 -4.265,-15.137 -3.482,-0.059 -12.084,0 -12.084,0 h 0.073 m 3.553,18.834 h 5.401 c 5.118,0 4.978,6.254 -0.71,6.254 h -5.686 l 0.995,-6.254 m 1.99,-12.226 h 4.194 c 4.548,0 3.624,5.829 -0.712,5.829 h -4.478 l 0.996,-5.829"
       id="path16"
       inkscape:connector-curvature="0" />
  </g>
</svg>
