<?xml version="1.0" encoding="UTF-8" standalone="no"?>
<svg
   xmlns:dc="http://purl.org/dc/elements/1.1/"
   xmlns:cc="http://creativecommons.org/ns#"
   xmlns:rdf="http://www.w3.org/1999/02/22-rdf-syntax-ns#"
   xmlns:svg="http://www.w3.org/2000/svg"
   xmlns="http://www.w3.org/2000/svg"
   xmlns:sodipodi="http://sodipodi.sourceforge.net/DTD/sodipodi-0.dtd"
   xmlns:inkscape="http://www.inkscape.org/namespaces/inkscape"
   viewBox="0 0 399.99999 253.29527"
   version="1.1"
   id="svg248"
   sodipodi:docname="console.svg"
   width="400"
   height="253.29527"
   inkscape:version="0.92.4 5da689c313, 2019-01-14">
  <metadata
     id="metadata254">
    <rdf:RDF>
      <cc:Work
         rdf:about="">
        <dc:format>image/svg+xml</dc:format>
        <dc:type
           rdf:resource="http://purl.org/dc/dcmitype/StillImage" />
      </cc:Work>
    </rdf:RDF>
  </metadata>
  <defs
     id="defs252" />
  <sodipodi:namedview
     pagecolor="#ffffff"
     bordercolor="#666666"
     borderopacity="1"
     objecttolerance="10"
     gridtolerance="10"
     guidetolerance="10"
     inkscape:pageopacity="0"
     inkscape:pageshadow="2"
     inkscape:window-width="471"
     inkscape:window-height="442"
     id="namedview250"
     showgrid="false"
     inkscape:zoom="0.6775"
     inkscape:cx="200"
     inkscape:cy="126.64763"
     inkscape:window-x="0"
     inkscape:window-y="0"
     inkscape:window-maximized="0"
     inkscape:current-layer="svg248" />
  <path
     d="M 199.97518,253.29527 H 397.3191 c 0.94328,0 1.68797,-0.84399 1.68797,-1.9362 l 0.94328,-11.26971 H 0 l 0.94327914,11.26971 c 0,1.04257 0.74469406,1.9362 1.68797316,1.9362 z"
     id="path2"
     inkscape:connector-curvature="0"
     style="fill:#0f0f0f" />
  <path
     d="M 398.85814,0 H 1.1418642 C 0.4964627,0 0,0.49646 0,1.14186 V 240.13901 H 400 V 1.14186 C 400,0.49646 399.45389,0 398.85814,0 Z"
     id="path4"
     inkscape:connector-curvature="0"
     style="fill:#181818" />
  <path
     d="M 8.7377436,174.65558 V 12.80874 c 0,-0.89364 0.744694,-1.63833 1.6383264,-1.63833 h 184.23731 c 0.89363,0 1.63833,0.74469 1.63833,1.63833 v 161.84684 c 0,0.89363 -0.7447,1.63832 -1.63833,1.63832 H 10.326424 c -0.8936326,0 -1.5886804,-0.74469 -1.5886804,-1.63832 z"
     id="path6"
     inkscape:connector-curvature="0"
     style="fill:#282627" />
  <path
     d="M 191.33673,172.02433 H 13.603078 c -0.347524,0 -0.645401,-0.29788 -0.645401,-0.64541 V 16.13504 c 0,-0.34753 0.297877,-0.59576 0.645401,-0.59576 H 191.33673 c 0.34752,0 0.6454,0.29788 0.6454,0.59576 v 155.24388 c 0,0.34753 -0.29788,0.64541 -0.6454,0.64541 z"
     id="path8"
     inkscape:connector-curvature="0"
     style="fill:#2f3133" />
  <path
     d="m 20.851434,20.85143 v 56.84498 h 6.751892 V 26.75934 H 185.18059 V 93.7818 L 20.851434,93.7322 v 52.62504 h 6.751892 V 95.37052 H 185.18059 v 67.02247 H 55.454884 l -11.418642,6.40437 H 191.98213 V 20.85147"
     id="path10"
     inkscape:connector-curvature="0"
     style="fill:#36393b" />
  <path
     d="M 27.603326,26.75934 H 185.18059 V 93.73216 H 20.851434 V 77.69641 h 6.751892"
     id="path12"
     inkscape:connector-curvature="0"
     style="fill:#535452" />
  <circle
     cx="94.97332"
     cy="60.270561"
     r="3.3262999"
     stroke-miterlimit="10"
     id="circle14"
     style="fill:none;stroke:#61ff40;stroke-width:0.14893882;stroke-miterlimit:10" />
  <path
     d="M 130.86757,74.17153 H 67.916098 c -0.148939,0 -0.248232,-0.0993 -0.248232,-0.24823 V 46.61785 c 0,-0.14894 0.09929,-0.24823 0.248232,-0.24823 h 62.951472 c 0.14894,0 0.24823,0.0993 0.24823,0.24823 V 73.9233 c 0,0.14893 -0.0993,0.24823 -0.24823,0.24823 z M 77.001365,53.56832 c -3.72347,0 -6.702246,3.02843 -6.702246,6.70225 0,3.72347 3.028422,6.70225 6.702246,6.70225 3.673824,0 6.702247,-3.02843 6.702247,-6.70225 0.04965,-3.67382 -2.978776,-6.70225 -6.702247,-6.70225 z m 12.312275,-7.1987 h -8.638451 v 5.70932 h 8.638451 z m 0,22.14223 h -8.638451 v 5.70932 h 8.638451 z m 5.659675,-20.10674 c -1.836912,0 -3.3263,1.48939 -3.3263,3.3263 0,1.83691 1.489388,3.3263 3.3263,3.3263 1.836912,0 3.3263,-1.48939 3.3263,-3.3263 0,-1.83691 -1.489388,-3.3263 -3.3263,-3.3263 z m 0,8.53916 c -1.836912,0 -3.3263,1.48939 -3.3263,3.3263 0,1.83691 1.489388,3.3263 3.3263,3.3263 1.836912,0 3.3263,-1.48939 3.3263,-3.3263 0,-1.83691 -1.489388,-3.3263 -3.3263,-3.3263 z m 0,8.53916 c -1.836912,0 -3.3263,1.48939 -3.3263,3.3263 0,1.83691 1.489388,3.3263 3.3263,3.3263 1.836912,0 3.3263,-1.48939 3.3263,-3.3263 0,-1.78727 -1.489388,-3.3263 -3.3263,-3.3263 z m 9.631375,-17.07832 c -1.83691,0 -3.3263,1.48939 -3.3263,3.3263 0,1.83691 1.48939,3.3263 3.3263,3.3263 1.83691,0 3.3263,-1.48939 3.3263,-3.3263 0,-1.83691 -1.48939,-3.3263 -3.3263,-3.3263 z m 0,8.53916 c -1.83691,0 -3.3263,1.48939 -3.3263,3.3263 0,1.83691 1.48939,3.3263 3.3263,3.3263 1.83691,0 3.3263,-1.48939 3.3263,-3.3263 0,-1.83691 -1.48939,-3.3263 -3.3263,-3.3263 z m 0,8.53916 c -1.83691,0 -3.3263,1.48939 -3.3263,3.3263 0,1.83691 1.48939,3.3263 3.3263,3.3263 1.83691,0 3.3263,-1.48939 3.3263,-3.3263 0,-1.78727 -1.48939,-3.3263 -3.3263,-3.3263 z m 9.63138,-17.07832 c -1.83691,0 -3.3263,1.48939 -3.3263,3.3263 0,1.83691 1.48939,3.3263 3.3263,3.3263 1.83691,0 3.3263,-1.48939 3.3263,-3.3263 0,-1.83691 -1.48939,-3.3263 -3.3263,-3.3263 z m 0,8.53916 c -1.83691,0 -3.3263,1.48939 -3.3263,3.3263 0,1.83691 1.48939,3.3263 3.3263,3.3263 1.83691,0 3.3263,-1.48939 3.3263,-3.3263 0,-1.83691 -1.48939,-3.3263 -3.3263,-3.3263 z m 0,8.53916 c -1.83691,0 -3.3263,1.48939 -3.3263,3.3263 0,1.83691 1.48939,3.3263 3.3263,3.3263 1.83691,0 3.3263,-1.48939 3.3263,-3.3263 0,-1.78727 -1.48939,-3.3263 -3.3263,-3.3263 z m 9.63137,-17.07832 c -1.83691,0 -3.3263,1.48939 -3.3263,3.3263 0,1.83691 1.48939,3.3263 3.3263,3.3263 1.83692,0 3.3263,-1.48939 3.3263,-3.3263 0,-1.83691 -1.48938,-3.3263 -3.3263,-3.3263 z m 0,8.53916 c -1.83691,0 -3.3263,1.48939 -3.3263,3.3263 0,1.83691 1.48939,3.3263 3.3263,3.3263 1.83692,0 3.3263,-1.48939 3.3263,-3.3263 0,-1.83691 -1.48938,-3.3263 -3.3263,-3.3263 z m 0,8.53916 c -1.83691,0 -3.3263,1.48939 -3.3263,3.3263 0,1.83691 1.48939,3.3263 3.3263,3.3263 1.83692,0 3.3263,-1.48939 3.3263,-3.3263 0,-1.78727 -1.48938,-3.3263 -3.3263,-3.3263 z"
     id="path16"
     inkscape:connector-curvature="0"
     style="fill:#686867" />
  <path
     d="M 130.02358,74.51905 H 68.710438 c -0.744694,0 -1.390095,-0.6454 -1.390095,-1.3901 V 47.46183 c 0,-0.74469 0.645401,-1.39009 1.390095,-1.39009 h 61.313142 c 0.7447,0 1.3901,0.6454 1.3901,1.39009 v 25.66712 c 0,0.7447 -0.59576,1.3901 -1.3901,1.3901 z m -40.412062,-0.6454 h 40.412062 c 0.39717,0 0.7447,-0.34752 0.7447,-0.7447 V 47.46183 c 0,-0.39717 -0.34753,-0.74469 -0.7447,-0.74469 H 89.611518 v 5.70932 H 80.327665 V 46.71714 H 68.710438 c -0.39717,0 -0.744694,0.34752 -0.744694,0.74469 v 25.66712 c 0,0.39718 0.347524,0.7447 0.744694,0.7447 h 11.617227 v -5.70932 h 9.283853 z m -8.638451,0 h 7.993049 v -5.06392 h -7.993049 z m 0,-22.09259 h 7.993049 V 46.71714 H 80.973067 Z M 123.86744,72.5332 c -2.03549,0 -3.67382,-1.63833 -3.67382,-3.67382 0,-2.0355 1.63833,-3.67383 3.67382,-3.67383 2.0355,0 3.67383,1.63833 3.67383,3.67383 0,2.03549 -1.68797,3.67382 -3.67383,3.67382 z m 0,-6.70225 c -1.68797,0 -3.02842,1.34045 -3.02842,3.02843 0,1.68797 1.34045,3.02842 3.02842,3.02842 1.68798,0 3.02843,-1.34045 3.02843,-3.02842 0,-1.68798 -1.3901,-3.02843 -3.02843,-3.02843 z m -9.63137,6.70225 c -2.0355,0 -3.67383,-1.63833 -3.67383,-3.67382 0,-2.0355 1.63833,-3.67383 3.67383,-3.67383 2.0355,0 3.67382,1.63833 3.67382,3.67383 0,2.03549 -1.68797,3.67382 -3.67382,3.67382 z m 0,-6.70225 c -1.68798,0 -3.02842,1.34045 -3.02842,3.02843 0,1.68797 1.34044,3.02842 3.02842,3.02842 1.68797,0 3.02842,-1.34045 3.02842,-3.02842 0,-1.68798 -1.3901,-3.02843 -3.02842,-3.02843 z m -9.63138,6.70225 c -2.0355,0 -3.67382,-1.63833 -3.67382,-3.67382 0,-2.0355 1.63832,-3.67383 3.67382,-3.67383 2.0355,0 3.67383,1.63833 3.67383,3.67383 0,2.03549 -1.68798,3.67382 -3.67383,3.67382 z m 0,-6.70225 c -1.68797,0 -3.02842,1.34045 -3.02842,3.02843 0,1.68797 1.34045,3.02842 3.02842,3.02842 1.68797,0 3.02842,-1.34045 3.02842,-3.02842 0,-1.68798 -1.39009,-3.02843 -3.02842,-3.02843 z m -9.631375,6.70225 c -2.035497,0 -3.673824,-1.63833 -3.673824,-3.67382 0,-2.0355 1.638327,-3.67383 3.673824,-3.67383 2.035497,0 3.673824,1.63833 3.673824,3.67383 0,2.03549 -1.638327,3.67382 -3.673824,3.67382 z m 0,-6.70225 c -1.687973,0 -3.028422,1.34045 -3.028422,3.02843 0,1.68797 1.340449,3.02842 3.028422,3.02842 1.687973,0 3.028423,-1.34045 3.028423,-3.02842 0,-1.68798 -1.390096,-3.02843 -3.028423,-3.02843 z m -17.97195,1.48939 c -3.872409,0 -7.04977,-3.17736 -7.04977,-7.04977 0,-3.87241 3.177361,-7.04977 7.04977,-7.04977 3.872409,0 7.049771,3.17736 7.049771,7.04977 0,3.87241 -3.127715,7.04977 -7.049771,7.04977 z m 0,-13.40449 c -3.524885,0 -6.404369,2.87948 -6.404369,6.40437 0,3.52488 2.879484,6.40437 6.404369,6.40437 3.524885,0 6.404369,-2.87949 6.404369,-6.40437 0,-3.57453 -2.879484,-6.40437 -6.404369,-6.40437 z m 46.866075,10.02854 c -2.03549,0 -3.67382,-1.63832 -3.67382,-3.67382 0,-2.0355 1.63833,-3.67382 3.67382,-3.67382 2.0355,0 3.67383,1.63832 3.67383,3.67382 -0.0496,2.0355 -1.68797,3.67382 -3.67383,3.67382 z m 0,-6.6526 c -1.68797,0 -3.02842,1.34045 -3.02842,3.02843 0,1.68797 1.34045,3.02842 3.02842,3.02842 1.68798,0 3.02843,-1.34045 3.02843,-3.02842 -0.0496,-1.68798 -1.3901,-3.02843 -3.02843,-3.02843 z m -9.63137,6.6526 c -2.0355,0 -3.67383,-1.63832 -3.67383,-3.67382 0,-2.0355 1.63833,-3.67382 3.67383,-3.67382 2.0355,0 3.67382,1.63832 3.67382,3.67382 -0.0496,2.0355 -1.68797,3.67382 -3.67382,3.67382 z m 0,-6.6526 c -1.68798,0 -3.02842,1.34045 -3.02842,3.02843 0,1.68797 1.34044,3.02842 3.02842,3.02842 1.68797,0 3.02842,-1.34045 3.02842,-3.02842 -0.0496,-1.68798 -1.3901,-3.02843 -3.02842,-3.02843 z m -9.63138,6.6526 c -2.0355,0 -3.67382,-1.63832 -3.67382,-3.67382 0,-2.0355 1.63832,-3.67382 3.67382,-3.67382 2.0355,0 3.67383,1.63832 3.67383,3.67382 0,2.0355 -1.68798,3.67382 -3.67383,3.67382 z m 0,-6.6526 c -1.68797,0 -3.02842,1.34045 -3.02842,3.02843 0,1.68797 1.34045,3.02842 3.02842,3.02842 1.68797,0 3.02842,-1.34045 3.02842,-3.02842 0,-1.68798 -1.39009,-3.02843 -3.02842,-3.02843 z m -9.631375,6.6526 c -2.035497,0 -3.673824,-1.63832 -3.673824,-3.67382 0,-2.0355 1.638327,-3.67382 3.673824,-3.67382 2.035497,0 3.673824,1.63832 3.673824,3.67382 0,2.0355 -1.638327,3.67382 -3.673824,3.67382 z m 0,-6.6526 c -1.687973,0 -3.028422,1.34045 -3.028422,3.02843 0,1.68797 1.340449,3.02842 3.028422,3.02842 1.687973,0 3.028423,-1.34045 3.028423,-3.02842 0,-1.68798 -1.390096,-3.02843 -3.028423,-3.02843 z m 28.894125,-1.88655 c -2.03549,0 -3.67382,-1.63833 -3.67382,-3.67383 0,-2.03549 1.63833,-3.67382 3.67382,-3.67382 2.0355,0 3.67383,1.63833 3.67383,3.67382 -0.0496,2.0355 -1.68797,3.67383 -3.67383,3.67383 z m 0,-6.70225 c -1.68797,0 -3.02842,1.34045 -3.02842,3.02842 0,1.68798 1.34045,3.02842 3.02842,3.02842 1.68798,0 3.02843,-1.34044 3.02843,-3.02842 -0.0496,-1.63832 -1.3901,-3.02842 -3.02843,-3.02842 z m -9.63137,6.70225 c -2.0355,0 -3.67383,-1.63833 -3.67383,-3.67383 0,-2.03549 1.63833,-3.67382 3.67383,-3.67382 2.0355,0 3.67382,1.63833 3.67382,3.67382 -0.0496,2.0355 -1.68797,3.67383 -3.67382,3.67383 z m 0,-6.70225 c -1.68798,0 -3.02842,1.34045 -3.02842,3.02842 0,1.68798 1.34044,3.02842 3.02842,3.02842 1.68797,0 3.02842,-1.34044 3.02842,-3.02842 -0.0496,-1.63832 -1.3901,-3.02842 -3.02842,-3.02842 z m -9.63138,6.70225 c -2.0355,0 -3.67382,-1.63833 -3.67382,-3.67383 0,-2.03549 1.63832,-3.67382 3.67382,-3.67382 2.0355,0 3.67383,1.63833 3.67383,3.67382 0,2.0355 -1.68798,3.67383 -3.67383,3.67383 z m 0,-6.70225 c -1.68797,0 -3.02842,1.34045 -3.02842,3.02842 0,1.68798 1.34045,3.02842 3.02842,3.02842 1.68797,0 3.02842,-1.34044 3.02842,-3.02842 0,-1.63832 -1.39009,-3.02842 -3.02842,-3.02842 z m -9.631375,6.70225 c -2.035497,0 -3.673824,-1.63833 -3.673824,-3.67383 0,-2.03549 1.638327,-3.67382 3.673824,-3.67382 2.035497,0 3.673824,1.63833 3.673824,3.67382 0,2.0355 -1.638327,3.67383 -3.673824,3.67383 z m 0,-6.70225 c -1.687973,0 -3.028422,1.34045 -3.028422,3.02842 0,1.68798 1.340449,3.02842 3.028422,3.02842 1.687973,0 3.028423,-1.34044 3.028423,-3.02842 0,-1.63832 -1.390096,-3.02842 -3.028423,-3.02842 z"
     id="path18"
     inkscape:connector-curvature="0"
     style="fill:#373836" />
  <path
     d="m 76.554549,56.14993 -1.985851,1.04257 -0.297878,-1.14186 2.432668,-1.29081 h 1.290803 V 65.8806 h -1.439742 z m -9.532084,16.23433 -8.439866,-1.04257 c -0.347524,0 -0.645402,-0.29788 -0.645402,-0.6454 v -0.54611 c 0,-0.34753 0.297878,-0.6454 0.645402,-0.6454 l 8.439866,1.04257 c 0.347524,0 0.645401,0.29788 0.645401,0.6454 v 0.54611 c 0,0.34752 -0.297877,0.6454 -0.645401,0.6454 z"
     id="path20"
     inkscape:connector-curvature="0"
     style="fill:#373836" />
  <path
     d="M 27.603326,95.37048 H 185.18059 v 67.02247 H 55.454884 l -11.418642,6.40437 H 20.851434 V 146.3572 h 6.751892"
     id="path22"
     inkscape:connector-curvature="0"
     style="fill:#535452" />
  <circle
     cx="94.97332"
     cy="128.88171"
     r="3.3262999"
     stroke-miterlimit="10"
     id="circle24"
     style="fill:none;stroke:#61ff40;stroke-width:0.14893882;stroke-miterlimit:10" />
  <path
     d="M 130.86757,142.78267 H 67.916098 c -0.148939,0 -0.248232,-0.0993 -0.248232,-0.24823 v -27.30545 c 0,-0.14894 0.09929,-0.24823 0.248232,-0.24823 h 62.951472 c 0.14894,0 0.24823,0.0993 0.24823,0.24823 v 27.30545 c 0,0.0993 -0.0993,0.24823 -0.24823,0.24823 z M 77.001365,122.12982 c -3.72347,0 -6.702246,3.02843 -6.702246,6.70225 0,3.72347 3.028422,6.70225 6.702246,6.70225 3.673824,0 6.702247,-3.02843 6.702247,-6.70225 0.04965,-3.67382 -2.978776,-6.70225 -6.702247,-6.70225 z m 12.312275,-7.14906 h -8.638451 v 5.65968 h 8.638451 z m 0,22.09259 h -8.638451 v 5.70932 h 8.638451 z m 5.659675,-20.10674 c -1.836912,0 -3.3263,1.48939 -3.3263,3.3263 0,1.83691 1.489388,3.3263 3.3263,3.3263 1.836912,0 3.3263,-1.48939 3.3263,-3.3263 0,-1.83691 -1.489388,-3.3263 -3.3263,-3.3263 z m 0,8.53916 c -1.836912,0 -3.3263,1.48939 -3.3263,3.3263 0,1.83691 1.489388,3.3263 3.3263,3.3263 1.836912,0 3.3263,-1.48939 3.3263,-3.3263 0,-1.83691 -1.489388,-3.3263 -3.3263,-3.3263 z m 0,8.5888 c -1.836912,0 -3.3263,1.48939 -3.3263,3.32631 0,1.83691 1.489388,3.3263 3.3263,3.3263 1.836912,0 3.3263,-1.48939 3.3263,-3.3263 0,-1.83692 -1.489388,-3.32631 -3.3263,-3.32631 z m 9.631375,-17.12796 c -1.83691,0 -3.3263,1.48939 -3.3263,3.3263 0,1.83691 1.48939,3.3263 3.3263,3.3263 1.83691,0 3.3263,-1.48939 3.3263,-3.3263 0,-1.83691 -1.48939,-3.3263 -3.3263,-3.3263 z m 0,8.53916 c -1.83691,0 -3.3263,1.48939 -3.3263,3.3263 0,1.83691 1.48939,3.3263 3.3263,3.3263 1.83691,0 3.3263,-1.48939 3.3263,-3.3263 0,-1.83691 -1.48939,-3.3263 -3.3263,-3.3263 z m 0,8.5888 c -1.83691,0 -3.3263,1.48939 -3.3263,3.32631 0,1.83691 1.48939,3.3263 3.3263,3.3263 1.83691,0 3.3263,-1.48939 3.3263,-3.3263 0,-1.83692 -1.48939,-3.32631 -3.3263,-3.32631 z m 9.63138,-17.12796 c -1.83691,0 -3.3263,1.48939 -3.3263,3.3263 0,1.83691 1.48939,3.3263 3.3263,3.3263 1.83691,0 3.3263,-1.48939 3.3263,-3.3263 0,-1.83691 -1.48939,-3.3263 -3.3263,-3.3263 z m 0,8.53916 c -1.83691,0 -3.3263,1.48939 -3.3263,3.3263 0,1.83691 1.48939,3.3263 3.3263,3.3263 1.83691,0 3.3263,-1.48939 3.3263,-3.3263 0,-1.83691 -1.48939,-3.3263 -3.3263,-3.3263 z m 0,8.5888 c -1.83691,0 -3.3263,1.48939 -3.3263,3.32631 0,1.83691 1.48939,3.3263 3.3263,3.3263 1.83691,0 3.3263,-1.48939 3.3263,-3.3263 0,-1.83692 -1.48939,-3.32631 -3.3263,-3.32631 z m 9.63137,-17.12796 c -1.83691,0 -3.3263,1.48939 -3.3263,3.3263 0,1.83691 1.48939,3.3263 3.3263,3.3263 1.83692,0 3.3263,-1.48939 3.3263,-3.3263 0,-1.83691 -1.48938,-3.3263 -3.3263,-3.3263 z m 0,8.53916 c -1.83691,0 -3.3263,1.48939 -3.3263,3.3263 0,1.83691 1.48939,3.3263 3.3263,3.3263 1.83692,0 3.3263,-1.48939 3.3263,-3.3263 0,-1.83691 -1.48938,-3.3263 -3.3263,-3.3263 z m 0,8.5888 c -1.83691,0 -3.3263,1.48939 -3.3263,3.32631 0,1.83691 1.48939,3.3263 3.3263,3.3263 1.83692,0 3.3263,-1.48939 3.3263,-3.3263 0,-1.83692 -1.48938,-3.32631 -3.3263,-3.32631 z"
     id="path26"
     inkscape:connector-curvature="0"
     style="fill:#686867" />
  <path
     d="M 130.02358,143.08055 H 68.710438 c -0.744694,0 -1.390095,-0.6454 -1.390095,-1.3901 v -25.66712 c 0,-0.74469 0.645401,-1.39009 1.390095,-1.39009 h 61.313142 c 0.7447,0 1.3901,0.6454 1.3901,1.39009 v 25.66712 c 0,0.79434 -0.59576,1.3901 -1.3901,1.3901 z m -40.412062,-0.6454 h 40.412062 c 0.39717,0 0.7447,-0.34753 0.7447,-0.7447 v -25.66712 c 0,-0.39717 -0.34753,-0.74469 -0.7447,-0.74469 H 89.611518 v 5.70932 h -9.283853 v -5.70932 H 68.710438 c -0.39717,0 -0.744694,0.34752 -0.744694,0.74469 v 25.66712 c 0,0.39717 0.347524,0.7447 0.744694,0.7447 h 11.617227 v -5.70932 h 9.283853 z m -8.638451,0 h 7.993049 v -5.06392 h -7.993049 z m 0,-22.09259 h 7.993049 v -5.06392 h -7.993049 z m 42.894373,20.75214 c -2.03549,0 -3.67382,-1.63833 -3.67382,-3.67382 0,-2.0355 1.63833,-3.67383 3.67382,-3.67383 2.0355,0 3.67383,1.63833 3.67383,3.67383 -0.0496,2.03549 -1.68797,3.67382 -3.67383,3.67382 z m 0,-6.70225 c -1.68797,0 -3.02842,1.34045 -3.02842,3.02843 0,1.68797 1.34045,3.02842 3.02842,3.02842 1.68798,0 3.02843,-1.34045 3.02843,-3.02842 0,-1.68798 -1.3901,-3.02843 -3.02843,-3.02843 z m -9.63137,6.70225 c -2.0355,0 -3.67383,-1.63833 -3.67383,-3.67382 0,-2.0355 1.63833,-3.67383 3.67383,-3.67383 2.0355,0 3.67382,1.63833 3.67382,3.67383 -0.0496,2.03549 -1.68797,3.67382 -3.67382,3.67382 z m 0,-6.70225 c -1.68798,0 -3.02842,1.34045 -3.02842,3.02843 0,1.68797 1.34044,3.02842 3.02842,3.02842 1.68797,0 3.02842,-1.34045 3.02842,-3.02842 0,-1.68798 -1.3901,-3.02843 -3.02842,-3.02843 z m -9.63138,6.70225 c -2.0355,0 -3.67382,-1.63833 -3.67382,-3.67382 0,-2.0355 1.63832,-3.67383 3.67382,-3.67383 2.0355,0 3.67383,1.63833 3.67383,3.67383 0,2.03549 -1.68798,3.67382 -3.67383,3.67382 z m 0,-6.70225 c -1.68797,0 -3.02842,1.34045 -3.02842,3.02843 0,1.68797 1.34045,3.02842 3.02842,3.02842 1.68797,0 3.02842,-1.34045 3.02842,-3.02842 0,-1.68798 -1.39009,-3.02843 -3.02842,-3.02843 z m -9.631375,6.70225 c -2.035497,0 -3.673824,-1.63833 -3.673824,-3.67382 0,-2.0355 1.638327,-3.67383 3.673824,-3.67383 2.035497,0 3.673824,1.63833 3.673824,3.67383 0,2.03549 -1.638327,3.67382 -3.673824,3.67382 z m 0,-6.70225 c -1.687973,0 -3.028422,1.34045 -3.028422,3.02843 0,1.68797 1.340449,3.02842 3.028422,3.02842 1.687973,0 3.028423,-1.34045 3.028423,-3.02842 0,-1.68798 -1.390096,-3.02843 -3.028423,-3.02843 z m -17.97195,1.48939 c -3.872409,0 -7.04977,-3.17736 -7.04977,-7.04977 0,-3.87241 3.177361,-7.04977 7.04977,-7.04977 3.872409,0 7.049771,3.17736 7.049771,7.04977 0,3.92206 -3.127715,7.04977 -7.049771,7.04977 z m 0,-13.40449 c -3.524885,0 -6.404369,2.87948 -6.404369,6.40437 0,3.52488 2.879484,6.40437 6.404369,6.40437 3.524885,0 6.404369,-2.87949 6.404369,-6.40437 0,-3.52489 -2.879484,-6.40437 -6.404369,-6.40437 z m 46.866075,10.02854 c -2.03549,0 -3.67382,-1.63832 -3.67382,-3.67382 0,-2.0355 1.63833,-3.67382 3.67382,-3.67382 2.0355,0 3.67383,1.63832 3.67383,3.67382 -0.0496,2.0355 -1.68797,3.67382 -3.67383,3.67382 z m 0,-6.6526 c -1.68797,0 -3.02842,1.34045 -3.02842,3.02843 0,1.68797 1.34045,3.02842 3.02842,3.02842 1.68798,0 3.02843,-1.34045 3.02843,-3.02842 0,-1.68798 -1.3901,-3.02843 -3.02843,-3.02843 z m -9.63137,6.6526 c -2.0355,0 -3.67383,-1.63832 -3.67383,-3.67382 0,-2.0355 1.63833,-3.67382 3.67383,-3.67382 2.0355,0 3.67382,1.63832 3.67382,3.67382 -0.0496,2.0355 -1.68797,3.67382 -3.67382,3.67382 z m 0,-6.6526 c -1.68798,0 -3.02842,1.34045 -3.02842,3.02843 0,1.68797 1.34044,3.02842 3.02842,3.02842 1.68797,0 3.02842,-1.34045 3.02842,-3.02842 0,-1.68798 -1.3901,-3.02843 -3.02842,-3.02843 z m -9.63138,6.6526 c -2.0355,0 -3.67382,-1.63832 -3.67382,-3.67382 0,-2.0355 1.63832,-3.67382 3.67382,-3.67382 2.0355,0 3.67383,1.63832 3.67383,3.67382 0,2.0355 -1.68798,3.67382 -3.67383,3.67382 z m 0,-6.6526 c -1.68797,0 -3.02842,1.34045 -3.02842,3.02843 0,1.68797 1.34045,3.02842 3.02842,3.02842 1.68797,0 3.02842,-1.34045 3.02842,-3.02842 0,-1.68798 -1.39009,-3.02843 -3.02842,-3.02843 z m -9.631375,6.6526 c -2.035497,0 -3.673824,-1.63832 -3.673824,-3.67382 0,-2.0355 1.638327,-3.67382 3.673824,-3.67382 2.035497,0 3.673824,1.63832 3.673824,3.67382 0,2.0355 -1.638327,3.67382 -3.673824,3.67382 z m 0,-6.6526 c -1.687973,0 -3.028422,1.34045 -3.028422,3.02843 0,1.68797 1.340449,3.02842 3.028422,3.02842 1.687973,0 3.028423,-1.34045 3.028423,-3.02842 0,-1.68798 -1.390096,-3.02843 -3.028423,-3.02843 z m 28.894125,-1.88655 c -2.03549,0 -3.67382,-1.63833 -3.67382,-3.67383 0,-2.0355 1.63833,-3.67382 3.67382,-3.67382 2.0355,0 3.67383,1.63832 3.67383,3.67382 -0.0496,2.0355 -1.68797,3.67383 -3.67383,3.67383 z m 0,-6.70225 c -1.68797,0 -3.02842,1.34045 -3.02842,3.02842 0,1.68797 1.34045,3.02842 3.02842,3.02842 1.68798,0 3.02843,-1.34045 3.02843,-3.02842 -0.0496,-1.63833 -1.3901,-3.02842 -3.02843,-3.02842 z m -9.63137,6.70225 c -2.0355,0 -3.67383,-1.63833 -3.67383,-3.67383 0,-2.0355 1.63833,-3.67382 3.67383,-3.67382 2.0355,0 3.67382,1.63832 3.67382,3.67382 -0.0496,2.0355 -1.68797,3.67383 -3.67382,3.67383 z m 0,-6.70225 c -1.68798,0 -3.02842,1.34045 -3.02842,3.02842 0,1.68797 1.34044,3.02842 3.02842,3.02842 1.68797,0 3.02842,-1.34045 3.02842,-3.02842 -0.0496,-1.63833 -1.3901,-3.02842 -3.02842,-3.02842 z m -9.63138,6.70225 c -2.0355,0 -3.67382,-1.63833 -3.67382,-3.67383 0,-2.0355 1.63832,-3.67382 3.67382,-3.67382 2.0355,0 3.67383,1.63832 3.67383,3.67382 0,2.0355 -1.68798,3.67383 -3.67383,3.67383 z m 0,-6.70225 c -1.68797,0 -3.02842,1.34045 -3.02842,3.02842 0,1.68797 1.34045,3.02842 3.02842,3.02842 1.68797,0 3.02842,-1.34045 3.02842,-3.02842 0,-1.63833 -1.39009,-3.02842 -3.02842,-3.02842 z m -9.631375,6.70225 c -2.035497,0 -3.673824,-1.63833 -3.673824,-3.67383 0,-2.0355 1.638327,-3.67382 3.673824,-3.67382 2.035497,0 3.673824,1.63832 3.673824,3.67382 0,2.0355 -1.638327,3.67383 -3.673824,3.67383 z m 0,-6.70225 c -1.687973,0 -3.028422,1.34045 -3.028422,3.02842 0,1.68797 1.340449,3.02842 3.028422,3.02842 1.687973,0 3.028423,-1.34045 3.028423,-3.02842 0,-1.63833 -1.390096,-3.02842 -3.028423,-3.02842 z"
     id="path28"
     inkscape:connector-curvature="0"
     style="fill:#373836" />
  <path
     d="m 67.022465,140.94576 -8.439866,-1.04257 c -0.347524,0 -0.645402,-0.29788 -0.645402,-0.6454 v -0.54611 c 0,-0.34753 0.297878,-0.6454 0.645402,-0.6454 l 8.439866,1.04257 c 0.347524,0 0.645401,0.29788 0.645401,0.6454 v 0.54611 c 0,0.39717 -0.297877,0.6454 -0.645401,0.6454 z m 6.801539,-7.44694 v -0.84399 l 1.042572,-1.04257 c 2.531959,-2.43267 3.72347,-3.72347 3.72347,-5.21286 0,-0.99292 -0.496463,-1.9362 -1.985851,-1.9362 -0.893633,0 -1.638327,0.44681 -2.13479,0.84399 l -0.446816,-0.94328 c 0.695048,-0.59576 1.687973,-0.99293 2.829837,-0.99293 2.13479,0 3.078069,1.48939 3.078069,2.92913 0,1.83691 -1.340449,3.3263 -3.425592,5.3618 l -0.794341,0.74469 v 0.0496 h 4.517811 v 1.14186 h -6.404369 z"
     id="path30"
     inkscape:connector-curvature="0"
     style="fill:#373836" />
  <path
     d="M 189.25158,169.0952 H 80.278019 c -2.383021,0 -4.269579,-1.93621 -4.269579,-4.26958 V 99.04431 c 0,-2.38302 1.936204,-4.26958 4.269579,-4.26958 H 189.25158 c 2.38302,0 4.26958,1.9362 4.26958,4.26958 v 65.78131 c 0,2.33337 -1.88656,4.26958 -4.26958,4.26958 z"
     id="path32"
     inkscape:connector-curvature="0"
     style="fill:#0b0b0b" />
  <path
     d="m 193.0247,98.54785 v 66.77423 c 0,1.78726 -1.48939,3.27665 -3.27665,3.27665 H 79.781556 c -1.787265,0 -3.276653,-1.48939 -3.276653,-3.27665 V 98.54785 c 0,-1.78727 1.489388,-3.27666 3.276653,-3.27666 H 189.74805 c 1.83691,-0.0496 3.27665,1.43974 3.27665,3.27666 z"
     id="path34"
     inkscape:connector-curvature="0"
     style="fill:#282828" />
  <path
     d="m 56.249224,167.7051 h 18.716644 v 1.98585 H 56.249224 Z"
     id="path36"
     inkscape:connector-curvature="0"
     style="fill:#989d9b" />
  <path
     d="m 55.50453,98.15068 h 22.837285 v 67.56857 H 55.50453 Z"
     id="path38"
     inkscape:connector-curvature="0"
     style="fill:#0b0b0b" />
  <path
     d="m 55.9017,98.54785 h 22.092591 v 66.82388 H 55.9017 Z"
     id="path40"
     inkscape:connector-curvature="0"
     style="fill:#282828" />
  <path
     d="m 56.249224,98.89537 h 21.347897 v 66.07919 H 56.249224 Z"
     id="path42"
     inkscape:connector-curvature="0"
     style="fill:#0e0e0e" />
  <path
     d="M 52.327169,169.14484 H 17.57478 c -2.13479,0 -3.922056,-1.73762 -3.922056,-3.92205 V 98.64714 c 0,-2.13479 1.73762,-3.92206 3.922056,-3.92206 h 34.752389 c 2.13479,0 3.922055,1.73762 3.922055,3.92206 v 66.57565 c 0,2.18443 -1.737619,3.92205 -3.922055,3.92205 z"
     id="path44"
     inkscape:connector-curvature="0"
     style="fill:#0b0b0b" />
  <path
     d="m 56.249224,98.39891 v 67.07211 c 0,1.88656 -1.539034,3.42559 -3.425592,3.42559 H 17.326548 c -1.886558,0 -3.425592,-1.53903 -3.425592,-3.42559 V 98.39891 c 0,-1.88656 1.539034,-3.4256 3.425592,-3.4256 h 35.497084 c 1.886558,0.0496 3.425592,1.53904 3.425592,3.4256 z"
     id="path46"
     inkscape:connector-curvature="0"
     style="fill:#282828" />
  <path
     d="m 56.249224,99.19325 v 65.53307 c 0,1.88656 -1.539034,3.4256 -3.425592,3.4256 h -34.75239 c -1.886558,0 -3.425592,-1.53904 -3.425592,-3.4256 V 99.19325 c 0,-1.88656 1.539034,-3.4256 3.425592,-3.4256 h 34.75239 c 1.886558,0 3.425592,1.53904 3.425592,3.4256 z"
     id="path48"
     inkscape:connector-curvature="0"
     style="fill:#0e0e0e" />
  <path
     d="m 51.086012,131.95979 c 0,9.58173 -7.794464,17.37619 -17.376194,17.37619 -9.581731,0 -17.376195,-7.79446 -17.376195,-17.37619 0,-9.58173 7.794464,-17.3762 17.376195,-17.3762 9.58173,0 17.376194,7.79447 17.376194,17.3762 z"
     id="path50"
     inkscape:connector-curvature="0"
     style="fill:#121212" />
  <path
     d="m 50.341318,131.95979 c 0,9.18456 -7.44694,16.6315 -16.6315,16.6315 -9.18456,0 -16.631501,-7.44694 -16.631501,-16.6315 0,-9.18456 7.446941,-16.63151 16.631501,-16.63151 9.18456,0 16.6315,7.44695 16.6315,16.63151 z"
     id="path52"
     inkscape:connector-curvature="0"
     style="fill:#0a0a0a" />
  <path
     d="m 56.249224,165.71925 h 18.716644 v 1.98585 H 56.249224 Z"
     id="path54"
     inkscape:connector-curvature="0"
     style="fill:#8e8f8e" />
  <path
     d="m 56.249224,94.17897 h 18.716644 v 1.98585 H 56.249224 Z"
     id="path56"
     inkscape:connector-curvature="0"
     style="fill:#989d9b" />
  <path
     d="m 56.249224,96.16482 h 18.716644 v 1.98586 H 56.249224 Z"
     id="path58"
     inkscape:connector-curvature="0"
     style="fill:#8e8f8e" />
  <path
     d="m 193.0247,98.99466 v 65.8806 c 0,1.78727 -1.48939,3.27666 -3.27665,3.27666 H 80.476604 c -1.787266,0 -3.276654,-1.48939 -3.276654,-3.27666 v -65.8806 c 0,-1.78726 1.489388,-3.27665 3.276654,-3.27665 H 189.74805 c 1.83691,0 3.27665,1.48939 3.27665,3.27665 z"
     id="path60"
     inkscape:connector-curvature="0"
     style="fill:#0e0e0e" />
  <path
     d="M 75.859501,163.28658 H 57.986844 c -0.645402,0 -1.191511,-0.54611 -1.191511,-1.19151 v -60.17128 c 0,-0.6454 0.546109,-1.19151 1.191511,-1.19151 h 17.872657 l 3.673824,-4.66675 H 188.80477 c 0.74469,0 1.34045,0.59576 1.34045,1.34045 v 69.2069 c 0,0.7447 -0.59576,1.34045 -1.34045,1.34045 H 79.533325 Z"
     id="path62"
     inkscape:connector-curvature="0"
     style="fill:#181818" />
  <path
     d="m 119.34963,149.7828 v 6.0072 c 0,3.27665 -2.68089,5.95755 -5.95755,5.95755 h -7.14906 c -3.27666,0 -5.95755,-2.6809 -5.95755,-5.95755 v -6.0072 c 0,-3.27666 2.68089,-5.95756 5.95755,-5.95756 h 7.14906 c 3.27666,0 5.95755,2.6809 5.95755,5.95756 z"
     id="path64"
     inkscape:connector-curvature="0"
     style="fill:#282627" />
  <path
     d="m 119.34963,150.22961 v 5.21286 c 0,3.27666 -2.68089,5.95755 -5.95755,5.95755 h -5.51073 c -3.27666,0 -5.95756,-2.68089 -5.95756,-5.95755 v -5.21286 c 0,-3.27665 2.6809,-5.95755 5.95756,-5.95755 h 5.51073 c 3.27666,0 5.95755,2.6809 5.95755,5.95755 z"
     id="path66"
     inkscape:connector-curvature="0"
     style="fill:#939393" />
  <path
     d="m 119.34963,150.17997 v 5.21285 c 0,3.27666 -2.68089,5.95756 -5.95755,5.95756 h -3.92205 c -3.27666,0 -5.95756,-2.6809 -5.95756,-5.95756 v -5.21285 c 0,-3.27666 2.6809,-5.95756 5.95756,-5.95756 h 3.92205 c 3.27666,0 5.95755,2.6809 5.95755,5.95756 z"
     id="path68"
     inkscape:connector-curvature="0"
     style="fill:#b3b3b3" />
  <path
     d="m 108.42745,152.51334 0.7447,1.43974 -0.84399,0.19859 -0.94328,-1.78727 v -0.94328 h 8.09234 v 1.04257 h -7.04977 z"
     id="path70"
     inkscape:connector-curvature="0" />
  <path
     d="m 119.34963,128.93136 v 6.0072 c 0,3.27666 -2.68089,5.95755 -5.95755,5.95755 h -7.14906 c -3.27666,0 -5.95755,-2.68089 -5.95755,-5.95755 v -6.0072 c 0,-3.27665 2.68089,-5.95755 5.95755,-5.95755 h 7.14906 c 3.27666,0 5.95755,2.6809 5.95755,5.95755 z"
     id="path72"
     inkscape:connector-curvature="0"
     style="fill:#282627" />
  <path
     d="m 119.34963,129.37818 v 5.21286 c 0,3.27665 -2.68089,5.95755 -5.95755,5.95755 h -5.51073 c -3.27666,0 -5.95756,-2.6809 -5.95756,-5.95755 v -5.21286 c 0,-3.27665 2.6809,-5.95755 5.95756,-5.95755 h 5.51073 c 3.27666,0 5.95755,2.6809 5.95755,5.95755 z"
     id="path74"
     inkscape:connector-curvature="0"
     style="fill:#939393" />
  <path
     d="m 119.34963,129.37818 v 5.21286 c 0,3.27665 -2.68089,5.95755 -5.95755,5.95755 h -3.92205 c -3.27666,0 -5.95756,-2.6809 -5.95756,-5.95755 v -5.21286 c 0,-3.27665 2.6809,-5.95755 5.95756,-5.95755 h 3.92205 c 3.27666,0 5.95755,2.6809 5.95755,5.95755 z"
     id="path76"
     inkscape:connector-curvature="0"
     style="fill:#b3b3b3" />
  <text
     x="-135.39145"
     y="113.25799"
     transform="rotate(-90)"
     font-size="13.42440128"
     id="text78"
     style="font-size:13.42440128px;font-family:MyriadHebrew-Regular">1</text>
  <path
     d="m 119.34963,129.03066 v 6.00719 c 0,3.27666 -2.68089,5.95756 -5.95755,5.95756 h -7.14906 c -3.27666,0 -5.95755,-2.6809 -5.95755,-5.95756 v -6.00719 c 0,-3.27666 2.68089,-5.95756 5.95755,-5.95756 h 7.14906 c 3.27666,0 5.95755,2.6809 5.95755,5.95756 z"
     id="path80"
     inkscape:connector-curvature="0"
     style="fill:#282627" />
  <path
     d="m 119.34963,129.42783 v 5.21285 c 0,3.27666 -2.68089,5.95756 -5.95755,5.95756 h -5.51073 c -3.27666,0 -5.95756,-2.6809 -5.95756,-5.95756 v -5.21285 c 0,-3.27666 2.6809,-5.95756 5.95756,-5.95756 h 5.51073 c 3.27666,0 5.95755,2.6809 5.95755,5.95756 z"
     id="path82"
     inkscape:connector-curvature="0"
     style="fill:#939393" />
  <path
     d="m 119.34963,129.32853 v 5.21286 c 0,3.27666 -2.68089,5.95755 -5.95755,5.95755 h -3.92205 c -3.27666,0 -5.95756,-2.68089 -5.95756,-5.95755 v -5.21286 c 0,-3.27665 2.6809,-5.95755 5.95756,-5.95755 h 3.92205 c 3.27666,0 5.95755,2.6809 5.95755,5.95755 z"
     id="path84"
     inkscape:connector-curvature="0"
     style="fill:#b3b3b3" />
  <path
     d="m 115.52687,134.54139 h -0.69505 l -0.84398,-0.89363 c -1.98585,-2.0355 -3.02843,-2.97878 -4.21994,-3.02842 -0.84398,0 -1.58868,0.39717 -1.58868,1.58868 0,0.74469 0.39717,1.34045 0.69505,1.73762 l -0.79434,0.34752 c -0.49646,-0.54611 -0.84399,-1.34045 -0.84399,-2.28373 0,-1.73762 1.19151,-2.48231 2.33338,-2.48231 1.48939,0 2.6809,1.09222 4.31922,2.78019 l 0.59576,0.6454 v -3.62418 h 0.89363 v 5.21286 z"
     id="path86"
     inkscape:connector-curvature="0" />
  <path
     d="m 119.34963,108.22887 v 6.0072 c 0,3.27665 -2.68089,5.95755 -5.95755,5.95755 h -7.14906 c -3.27666,0 -5.95755,-2.6809 -5.95755,-5.95755 v -6.0072 c 0,-3.27666 2.68089,-5.95755 5.95755,-5.95755 h 7.14906 c 3.27666,0 5.95755,2.68089 5.95755,5.95755 z"
     id="path88"
     inkscape:connector-curvature="0"
     style="fill:#282627" />
  <path
     d="m 119.34963,108.67568 v 5.21286 c 0,3.27666 -2.68089,5.95756 -5.95755,5.95756 h -5.51073 c -3.27666,0 -5.95756,-2.6809 -5.95756,-5.95756 v -5.21286 c 0,-3.27665 2.6809,-5.95755 5.95756,-5.95755 h 5.51073 c 3.27666,0 5.95755,2.6809 5.95755,5.95755 z"
     id="path90"
     inkscape:connector-curvature="0"
     style="fill:#939393" />
  <path
     d="m 119.34963,108.52675 v 5.21285 c 0,3.27666 -2.68089,5.95756 -5.95755,5.95756 h -3.92205 c -3.27666,0 -5.95756,-2.6809 -5.95756,-5.95756 v -5.21285 c 0,-3.27666 2.6809,-5.95756 5.95756,-5.95756 h 3.92205 c 3.27666,0 5.95755,2.6809 5.95755,5.95756 z"
     id="path92"
     inkscape:connector-curvature="0"
     style="fill:#b3b3b3" />
  <path
     d="m 114.23607,113.39208 c 0.19858,-0.29788 0.49646,-1.04257 0.49646,-1.78727 0,-1.39009 -0.89363,-1.83691 -1.58868,-1.83691 -1.14186,0 -1.63833,1.04257 -1.63833,2.08515 v 0.59575 h -0.79434 v -0.59575 c 0,-0.79434 -0.39717,-1.78727 -1.39009,-1.78727 -0.6454,0 -1.24116,0.39717 -1.24116,1.43974 0,0.6454 0.29788,1.2908 0.54611,1.63833 l -0.79434,0.29788 c -0.29788,-0.44682 -0.6454,-1.24116 -0.6454,-2.13479 0,-1.58868 0.94328,-2.33338 1.9362,-2.33338 0.84399,0 1.53904,0.49646 1.93621,1.48939 0.19858,-0.99293 0.94328,-1.78727 2.08514,-1.78727 1.2908,0 2.43267,1.04258 2.43267,2.92913 0,0.89364 -0.29788,1.68798 -0.54611,2.08515 z"
     id="path94"
     inkscape:connector-curvature="0" />
  <path
     d="m 140.84647,149.73315 v 6.0072 c 0,3.27665 -2.6809,5.95755 -5.95755,5.95755 h -7.14907 c -3.27665,0 -5.95755,-2.6809 -5.95755,-5.95755 v -6.0072 c 0,-3.27665 2.6809,-5.95755 5.95755,-5.95755 h 7.14907 c 3.27665,0 5.95755,2.6809 5.95755,5.95755 z"
     id="path96"
     inkscape:connector-curvature="0"
     style="fill:#282627" />
  <path
     d="m 140.84647,150.17997 v 5.21285 c 0,3.27666 -2.6809,5.95756 -5.95755,5.95756 h -5.51074 c -3.27665,0 -5.95755,-2.6809 -5.95755,-5.95756 v -5.21285 c 0,-3.27666 2.6809,-5.95756 5.95755,-5.95756 h 5.51074 c 3.27665,0 5.95755,2.6809 5.95755,5.95756 z"
     id="path98"
     inkscape:connector-curvature="0"
     style="fill:#939393" />
  <path
     d="m 140.84647,150.27926 v 5.21286 c 0,3.27665 -2.6809,5.95755 -5.95755,5.95755 h -3.92206 c -3.27665,0 -5.95755,-2.6809 -5.95755,-5.95755 v -5.21286 c 0,-3.27665 2.6809,-5.95755 5.95755,-5.95755 h 3.92206 c 3.27665,0 5.95755,2.6809 5.95755,5.95755 z"
     id="path100"
     inkscape:connector-curvature="0"
     style="fill:#b3b3b3" />
  <path
     d="m 136.92441,152.11617 h -2.18443 v 3.77312 h -0.7447 l -5.16321,-3.62418 v -1.19151 h 5.01427 v -1.14186 h 0.84399 v 1.14186 h 2.18444 v 1.04257 z m -3.02842,0 h -2.73054 c -0.44682,0 -0.84399,0 -1.29081,-0.0496 v 0.0496 c 0.49647,0.24823 0.84399,0.44682 1.19151,0.69505 l 2.78019,1.98585 v -2.6809 z"
     id="path102"
     inkscape:connector-curvature="0" />
  <path
     d="m 140.84647,128.93136 v 6.0072 c 0,3.27666 -2.6809,5.95755 -5.95755,5.95755 h -7.14907 c -3.27665,0 -5.95755,-2.68089 -5.95755,-5.95755 v -6.0072 c 0,-3.27665 2.6809,-5.95755 5.95755,-5.95755 h 7.14907 c 3.27665,0 5.95755,2.6809 5.95755,5.95755 z"
     id="path104"
     inkscape:connector-curvature="0"
     style="fill:#282627" />
  <path
     d="m 140.84647,129.37818 v 5.21286 c 0,3.27665 -2.6809,5.95755 -5.95755,5.95755 h -5.51074 c -3.27665,0 -5.95755,-2.6809 -5.95755,-5.95755 v -5.21286 c 0,-3.27665 2.6809,-5.95755 5.95755,-5.95755 h 5.51074 c 3.27665,0 5.95755,2.6809 5.95755,5.95755 z"
     id="path106"
     inkscape:connector-curvature="0"
     style="fill:#939393" />
  <path
     d="m 140.84647,129.32853 v 5.21286 c 0,3.27666 -2.6809,5.95755 -5.95755,5.95755 h -3.92206 c -3.27665,0 -5.95755,-2.68089 -5.95755,-5.95755 v -5.21286 c 0,-3.27665 2.6809,-5.95755 5.95755,-5.95755 h 3.92206 c 3.27665,0 5.95755,2.6809 5.95755,5.95755 z"
     id="path108"
     inkscape:connector-curvature="0"
     style="fill:#b3b3b3" />
  <path
     d="m 129.7257,129.57676 v 3.07807 l 2.08515,0.29788 c 0,-0.19858 -0.0496,-0.34752 -0.0496,-0.6454 0,-0.6454 0.14894,-1.24116 0.44682,-1.73762 0.34752,-0.6454 1.09222,-1.14186 2.08514,-1.14186 1.58868,0 2.78019,1.24115 2.78019,3.02842 0,0.89363 -0.24823,1.63832 -0.49646,2.0355 l -0.84399,-0.29788 c 0.19859,-0.34753 0.44682,-0.99293 0.44682,-1.73762 0,-1.04257 -0.69505,-1.88656 -1.73762,-1.88656 -1.04257,0 -1.78727,0.69505 -1.78727,2.33337 0,0.44682 0.0496,0.84399 0.0993,1.14187 l -3.87241,-0.54611 v -3.92206 h 0.84398 z"
     id="path110"
     inkscape:connector-curvature="0" />
  <path
     d="m 140.84647,108.17922 v 6.0072 c 0,3.27665 -2.6809,5.95755 -5.95755,5.95755 h -7.14907 c -3.27665,0 -5.95755,-2.6809 -5.95755,-5.95755 v -6.0072 c 0,-3.27665 2.6809,-5.95755 5.95755,-5.95755 h 7.14907 c 3.27665,0 5.95755,2.6809 5.95755,5.95755 z"
     id="path112"
     inkscape:connector-curvature="0"
     style="fill:#282627" />
  <path
     d="m 140.84647,108.62604 v 5.21286 c 0,3.27665 -2.6809,5.95755 -5.95755,5.95755 h -5.51074 c -3.27665,0 -5.95755,-2.6809 -5.95755,-5.95755 v -5.21286 c 0,-3.27666 2.6809,-5.95755 5.95755,-5.95755 h 5.51074 c 3.27665,0 5.95755,2.68089 5.95755,5.95755 z"
     id="path114"
     inkscape:connector-curvature="0"
     style="fill:#939393" />
  <path
     d="m 140.84647,108.52675 v 5.21285 c 0,3.27666 -2.6809,5.95756 -5.95755,5.95756 h -3.92206 c -3.27665,0 -5.95755,-2.6809 -5.95755,-5.95756 v -5.21285 c 0,-3.27666 2.6809,-5.95756 5.95755,-5.95756 h 3.92206 c 3.27665,0 5.95755,2.6809 5.95755,5.95756 z"
     id="path116"
     inkscape:connector-curvature="0"
     style="fill:#b3b3b3" />
  <path
     d="m 129.62641,109.17215 c 0,0.24823 0,0.49646 0.0497,0.84398 0.29788,1.73762 1.53903,2.63126 2.87948,2.82984 v -0.0496 c -0.54611,-0.39717 -0.94328,-1.09221 -0.94328,-1.98585 0,-1.43974 1.04257,-2.43266 2.63125,-2.43266 1.48939,0 2.82984,0.99292 2.82984,2.6809 0,1.73761 -1.34045,2.82983 -3.42559,2.82983 -1.58868,0 -2.82984,-0.54611 -3.62418,-1.39009 -0.6454,-0.69505 -1.09222,-1.58868 -1.19151,-2.58161 -0.0496,-0.34752 -0.0993,-0.59575 -0.0496,-0.79434 h 0.84398 z m 4.66675,0.34752 c -1.14186,0 -1.83691,0.6454 -1.83691,1.68797 0,0.64541 0.39717,1.29081 0.99292,1.58868 0.14894,0.0496 0.29788,0.0993 0.49647,0.0993 1.34045,0 2.33337,-0.6454 2.33337,-1.78727 -0.0496,-0.99292 -0.84398,-1.58868 -1.98585,-1.58868 z"
     id="path118"
     inkscape:connector-curvature="0" />
  <path
     d="m 162.29366,149.73315 v 6.0072 c 0,3.27665 -2.6809,5.95755 -5.95755,5.95755 h -7.14907 c -3.27665,0 -5.95755,-2.6809 -5.95755,-5.95755 v -6.0072 c 0,-3.27665 2.6809,-5.95755 5.95755,-5.95755 h 7.14907 c 3.27665,0 5.95755,2.6809 5.95755,5.95755 z"
     id="path120"
     inkscape:connector-curvature="0"
     style="fill:#282627" />
  <path
     d="m 162.29366,150.17997 v 5.21285 c 0,3.27666 -2.6809,5.95756 -5.95755,5.95756 h -5.51074 c -3.27665,0 -5.95755,-2.6809 -5.95755,-5.95756 v -5.21285 c 0,-3.27666 2.6809,-5.95756 5.95755,-5.95756 h 5.51074 c 3.27665,0 5.95755,2.6809 5.95755,5.95756 z"
     id="path122"
     inkscape:connector-curvature="0"
     style="fill:#939393" />
  <path
     d="m 162.29366,150.17997 v 5.21285 c 0,3.27666 -2.6809,5.95756 -5.95755,5.95756 h -3.92206 c -3.27665,0 -5.95755,-2.6809 -5.95755,-5.95756 v -5.21285 c 0,-3.27666 2.6809,-5.95756 5.95755,-5.95756 h 3.92206 c 3.27665,0 5.95755,2.6809 5.95755,5.95756 z"
     id="path124"
     inkscape:connector-curvature="0"
     style="fill:#b3b3b3" />
  <path
     d="m 150.32891,150.22961 h 0.74469 l 7.34765,3.52489 v 1.14186 l -7.14906,-3.52488 v 3.9717 h -0.89364 v -5.11357 z"
     id="path126"
     inkscape:connector-curvature="0" />
  <path
     d="m 162.29366,128.93136 v 6.0072 c 0,3.27666 -2.6809,5.95755 -5.95755,5.95755 h -7.14907 c -3.27665,0 -5.95755,-2.68089 -5.95755,-5.95755 v -6.0072 c 0,-3.27665 2.6809,-5.95755 5.95755,-5.95755 h 7.14907 c 3.27665,0 5.95755,2.6809 5.95755,5.95755 z"
     id="path128"
     inkscape:connector-curvature="0"
     style="fill:#282627" />
  <path
     d="m 162.29366,129.37818 v 5.21286 c 0,3.27665 -2.6809,5.95755 -5.95755,5.95755 h -5.51074 c -3.27665,0 -5.95755,-2.6809 -5.95755,-5.95755 v -5.21286 c 0,-3.27665 2.6809,-5.95755 5.95755,-5.95755 h 5.51074 c 3.27665,0 5.95755,2.6809 5.95755,5.95755 z"
     id="path130"
     inkscape:connector-curvature="0"
     style="fill:#939393" />
  <path
     d="m 162.29366,129.37818 v 5.21286 c 0,3.27665 -2.6809,5.95755 -5.95755,5.95755 h -3.92206 c -3.27665,0 -5.95755,-2.6809 -5.95755,-5.95755 v -5.21286 c 0,-3.27665 2.6809,-5.95755 5.95755,-5.95755 h 3.92206 c 3.27665,0 5.95755,2.6809 5.95755,5.95755 z"
     id="path132"
     inkscape:connector-curvature="0"
     style="fill:#b3b3b3" />
  <path
     d="m 156.33611,134.73998 c -0.99293,0 -1.73762,-0.59576 -2.18444,-1.58868 h -0.0496 c -0.39717,0.89363 -1.09221,1.2908 -1.78726,1.2908 -1.29081,0 -2.13479,-1.09222 -2.13479,-2.53196 0,-1.58868 0.99292,-2.33338 1.98585,-2.33338 0.69505,0 1.43974,0.34753 1.88656,1.34045 h 0.0496 c 0.39717,-0.99292 1.14187,-1.63832 2.08515,-1.63832 1.43974,0 2.33337,1.19151 2.33337,2.78019 0,1.63832 -0.99292,2.6809 -2.18443,2.6809 z m -0.0496,-4.36888 c -0.99293,0 -1.43974,0.69505 -1.73762,1.78727 0.24823,0.94328 0.89363,1.43974 1.68797,1.43974 0.79434,0.0496 1.53904,-0.59575 1.53904,-1.63832 -0.0496,-0.94328 -0.6454,-1.58869 -1.48939,-1.58869 z m -4.02135,3.02843 c 0.79434,0 1.24116,-0.59576 1.48939,-1.53904 -0.24823,-0.69504 -0.74469,-1.24115 -1.48939,-1.24115 -0.6454,0 -1.34045,0.39717 -1.34045,1.39009 0.0497,0.89363 0.6454,1.3901 1.34045,1.3901 z"
     id="path134"
     inkscape:connector-curvature="0" />
  <path
     d="m 162.29366,108.17922 v 6.0072 c 0,3.27665 -2.6809,5.95755 -5.95755,5.95755 h -7.14907 c -3.27665,0 -5.95755,-2.6809 -5.95755,-5.95755 v -6.0072 c 0,-3.27665 2.6809,-5.95755 5.95755,-5.95755 h 7.14907 c 3.27665,0 5.95755,2.6809 5.95755,5.95755 z"
     id="path136"
     inkscape:connector-curvature="0"
     style="fill:#282627" />
  <path
     d="m 162.29366,108.62604 v 5.21286 c 0,3.27665 -2.6809,5.95755 -5.95755,5.95755 h -5.51074 c -3.27665,0 -5.95755,-2.6809 -5.95755,-5.95755 v -5.21286 c 0,-3.27666 2.6809,-5.95755 5.95755,-5.95755 h 5.51074 c 3.27665,0 5.95755,2.68089 5.95755,5.95755 z"
     id="path138"
     inkscape:connector-curvature="0"
     style="fill:#939393" />
  <path
     d="m 162.29366,108.67568 v 5.21286 c 0,3.27666 -2.6809,5.95756 -5.95755,5.95756 h -3.92206 c -3.27665,0 -5.95755,-2.6809 -5.95755,-5.95756 v -5.21286 c 0,-3.27665 2.6809,-5.95755 5.95755,-5.95755 h 3.92206 c 3.27665,0 5.95755,2.6809 5.95755,5.95755 z"
     id="path140"
     inkscape:connector-curvature="0"
     style="fill:#b3b3b3" />
  <path
     d="m 157.62691,113.34243 c 0.0496,-0.24823 0,-0.49646 -0.0497,-0.89363 -0.0993,-0.6454 -0.34752,-1.24116 -0.79434,-1.68797 -0.49646,-0.54611 -1.19151,-0.94328 -2.13479,-1.09222 v 0.0497 c 0.54611,0.44681 0.89363,1.09221 0.89363,1.9362 0,1.43974 -1.09221,2.38302 -2.48231,2.38302 -1.53903,0 -2.87948,-1.09222 -2.87948,-2.78019 0,-1.63833 1.34045,-2.6809 3.42559,-2.6809 1.78727,0 3.02842,0.59576 3.77312,1.3901 0.59575,0.6454 0.99292,1.48939 1.09221,2.33337 0.0497,0.39717 0.0993,0.7447 0.0497,0.99293 h -0.89363 z m -4.6171,-0.39717 c 0.99292,0 1.73761,-0.59575 1.73761,-1.58868 0,-0.74469 -0.39717,-1.2908 -0.84398,-1.58868 -0.0993,-0.0496 -0.19859,-0.0993 -0.39717,-0.0993 -1.3901,0 -2.43267,0.54611 -2.43267,1.68797 -0.0496,0.89364 0.74469,1.58868 1.93621,1.58868 z"
     id="path142"
     inkscape:connector-curvature="0" />
  <path
     d="m 185.23023,149.73315 v 6.0072 c 0,3.27665 -2.68089,5.95755 -5.95755,5.95755 h -7.14906 c -3.27665,0 -5.95755,-2.6809 -5.95755,-5.95755 v -6.0072 c 0,-3.27665 2.6809,-5.95755 5.95755,-5.95755 h 7.14906 c 3.27666,0 5.95755,2.6809 5.95755,5.95755 z"
     id="path144"
     inkscape:connector-curvature="0"
     style="fill:#282627" />
  <path
     d="m 185.23023,150.17997 v 5.21285 c 0,3.27666 -2.68089,5.95756 -5.95755,5.95756 h -5.51073 c -3.27666,0 -5.95756,-2.6809 -5.95756,-5.95756 v -5.21285 c 0,-3.27666 2.6809,-5.95756 5.95756,-5.95756 h 5.51073 c 3.27666,0 5.95755,2.6809 5.95755,5.95756 z"
     id="path146"
     inkscape:connector-curvature="0"
     style="fill:#2f3133" />
  <path
     d="m 185.23023,150.17997 v 5.21285 c 0,3.27666 -2.68089,5.95756 -5.95755,5.95756 h -3.92205 c -3.27666,0 -5.95756,-2.6809 -5.95756,-5.95756 v -5.21285 c 0,-3.27666 2.6809,-5.95756 5.95756,-5.95756 h 3.92205 c 3.27666,0 5.95755,2.6809 5.95755,5.95756 z"
     id="path148"
     inkscape:connector-curvature="0"
     style="fill:#36393b" />
  <path
     d="m 173.76195,152.11617 2.97877,0.39717 0.0496,-0.0496 -1.78727,-2.33337 1.14187,-0.6454 1.14186,2.6809 h 0.0496 l 1.09222,-2.78019 1.19151,0.69504 -1.73762,2.38302 v 0.0496 l 2.97877,-0.29788 -0.0496,1.29081 -2.92913,-0.39717 h -0.0496 l 1.73762,2.28372 -1.14186,0.64541 -1.09222,-2.63126 h -0.0496 l -1.14186,2.73055 -1.19151,-0.69505 1.68797,-2.38302 v -0.0496 l -2.92913,0.29788 0.0497,-1.19151 z"
     id="path150"
     inkscape:connector-curvature="0"
     style="fill:#f4f4f4" />
  <path
     d="m 185.23023,128.93136 v 6.0072 c 0,3.27666 -2.68089,5.95755 -5.95755,5.95755 h -7.14906 c -3.27665,0 -5.95755,-2.68089 -5.95755,-5.95755 v -6.0072 c 0,-3.27665 2.6809,-5.95755 5.95755,-5.95755 h 7.14906 c 3.27666,0 5.95755,2.6809 5.95755,5.95755 z"
     id="path152"
     inkscape:connector-curvature="0"
     style="fill:#282627" />
  <path
     d="m 185.23023,129.37818 v 5.21286 c 0,3.27665 -2.68089,5.95755 -5.95755,5.95755 h -5.51073 c -3.27666,0 -5.95756,-2.6809 -5.95756,-5.95755 v -5.21286 c 0,-3.27665 2.6809,-5.95755 5.95756,-5.95755 h 5.51073 c 3.27666,0 5.95755,2.6809 5.95755,5.95755 z"
     id="path154"
     inkscape:connector-curvature="0"
     style="fill:#939393" />
  <path
     d="m 185.23023,129.32853 v 5.21286 c 0,3.27666 -2.68089,5.95755 -5.95755,5.95755 h -3.92205 c -3.27666,0 -5.95756,-2.68089 -5.95756,-5.95755 v -5.21286 c 0,-3.27665 2.6809,-5.95755 5.95756,-5.95755 h 3.92205 c 3.27666,0 5.95755,2.6809 5.95755,5.95755 z"
     id="path156"
     inkscape:connector-curvature="0"
     style="fill:#b3b3b3" />
  <path
     d="m 177.23719,129.22924 c 2.73054,0 4.26957,1.04257 4.26957,2.82984 0,1.58868 -1.48938,2.63125 -4.17028,2.6809 -2.73055,0 -4.21994,-1.19151 -4.21994,-2.82984 0,-1.73762 1.53904,-2.6809 4.12065,-2.6809 z m 0.0993,4.36887 c 2.08514,0 3.27665,-0.6454 3.27665,-1.63832 0,-1.14187 -1.2908,-1.63833 -3.37594,-1.63833 -1.98586,0 -3.27666,0.49646 -3.27666,1.63833 0.0496,0.94327 1.19151,1.63832 3.37595,1.63832 z"
     id="path158"
     inkscape:connector-curvature="0" />
  <path
     d="m 185.23023,108.42745 v 6.0072 c 0,3.27666 -2.68089,5.95755 -5.95755,5.95755 h -7.14906 c -3.27665,0 -5.95755,-2.68089 -5.95755,-5.95755 v -6.0072 c 0,-3.27665 2.6809,-5.95755 5.95755,-5.95755 h 7.14906 c 3.27666,0 5.95755,2.6809 5.95755,5.95755 z"
     id="path160"
     inkscape:connector-curvature="0"
     style="fill:#282627" />
  <path
     d="m 185.23023,108.87427 v 5.21286 c 0,3.27665 -2.68089,5.95755 -5.95755,5.95755 h -5.51073 c -3.27666,0 -5.95756,-2.6809 -5.95756,-5.95755 v -5.21286 c 0,-3.27665 2.6809,-5.95755 5.95756,-5.95755 h 5.51073 c 3.27666,0 5.95755,2.6809 5.95755,5.95755 z"
     id="path162"
     inkscape:connector-curvature="0"
     style="fill:#2f3133" />
  <path
     d="m 185.23023,108.87427 v 5.21286 c 0,3.27665 -2.68089,5.95755 -5.95755,5.95755 h -3.92205 c -3.27666,0 -5.95756,-2.6809 -5.95756,-5.95755 v -5.21286 c 0,-3.27665 2.6809,-5.95755 5.95756,-5.95755 h 3.92205 c 3.27666,0 5.95755,2.6809 5.95755,5.95755 z"
     id="path164"
     inkscape:connector-curvature="0"
     style="fill:#36393b" />
  <path
     d="m 181.35783,113.39208 -2.43267,-0.34752 v 1.04257 h -0.7447 v -1.14187 l -1.78726,-0.24823 v 1.09222 h -0.7447 v -1.19151 l -2.38302,-0.34752 v -0.7447 l 2.38302,0.29788 v -1.2908 l -2.38302,-0.34753 v -0.74469 l 2.38302,0.29788 v -0.99293 h 0.7447 v 1.14187 l 1.78726,0.24823 v -1.09222 h 0.7447 v 1.19151 l 2.43267,0.34752 v 0.7447 l -2.43267,-0.34753 v 1.29081 l 2.43267,0.34752 z m -3.17737,-2.43267 -1.78726,-0.24823 v 1.2908 l 1.78726,0.24824 z"
     id="path166"
     inkscape:connector-curvature="0"
     style="fill:#f4f4f4" />
  <path
     d="m 76.504903,165.37173 h 0.695047 v 0.39717 h -0.695047 z m 0,-67.22105 h 0.695047 v 0.39717 h -0.695047 z"
     id="path168"
     inkscape:connector-curvature="0"
     style="fill:#282828" />
  <path
     d="m 70.001241,118.05883 v 27.80191 c 0,2.0355 -1.687973,3.72347 -3.72347,3.72347 -2.035497,0 -3.72347,-1.68797 -3.72347,-3.72347 v -27.80191 c 0,-2.0355 1.687973,-3.72347 3.72347,-3.72347 2.035497,0 3.72347,1.63833 3.72347,3.72347 z"
     id="path170"
     inkscape:connector-curvature="0"
     style="fill:#1c1c1c" />
  <path
     d="M 68.611146,136.4776 H 63.89475 v -1.48939 h 3.3263 v -2.82984 h 1.390096"
     id="path172"
     inkscape:connector-curvature="0"
     style="fill:#232323" />
  <path
     d="m 67.369989,135.0875 v -2.82984 h 1.092218 v 4.071 h -4.418518 v -1.24116"
     id="path174"
     inkscape:connector-curvature="0"
     style="fill:#0e0e0e" />
  <path
     d="M 68.611146,132.00943 H 63.89475 v -4.66675 h 1.290803 v 3.17736 h 0.496463 v -2.97877 h 1.141864 v 2.97877 h 0.546109 v -3.17736 h 1.241157"
     id="path176"
     inkscape:connector-curvature="0"
     style="fill:#232323" />
  <path
     d="m 64.043689,131.86049 v -4.41852 h 0.992925 v 3.17737 h 0.79434 v -2.92913 h 0.843987 v 2.92913 h 0.79434 v -3.17737 h 0.992926 v 4.41852"
     id="path178"
     inkscape:connector-curvature="0"
     style="fill:#0e0e0e" />
  <path
     d="m 68.511853,140.99541 c 0,0.74469 -0.645401,1.39009 -1.489388,1.39009 h -1.687973 c -0.794341,0 -1.489388,-0.59575 -1.489388,-1.39009 v -3.02843 c 0,-0.74469 0.645401,-1.39009 1.489388,-1.39009 h 1.687973 c 0.79434,0 1.489388,0.59575 1.489388,1.39009 z m -3.375946,-0.59576 c 0,0.34753 0.297877,0.59576 0.645401,0.59576 h 0.843987 c 0.347524,0 0.645401,-0.24823 0.645401,-0.59576 v -1.83691 c 0,-0.34752 -0.297877,-0.59576 -0.645401,-0.59576 h -0.843987 c -0.347524,0 -0.645401,0.24824 -0.645401,0.59576 z"
     id="path180"
     inkscape:connector-curvature="0"
     style="fill:#232323" />
  <path
     d="m 64.043689,137.91734 v 3.02842 c 0,0.69505 0.595755,1.24116 1.340449,1.24116 h 1.687973 c 0.744694,0 1.34045,-0.54611 1.34045,-1.24116 v -3.02842 c 0,-0.69505 -0.595756,-1.24116 -1.34045,-1.24116 h -1.687973 c -0.744694,0 -1.340449,0.59576 -1.340449,1.24116 z m 2.581606,-0.0993 c 0.446816,0 0.744694,0.29787 0.744694,0.69504 V 140.35 c 0,0.39717 -0.347524,0.69504 -0.744694,0.69504 h -0.843987 c -0.446816,0 -0.744694,-0.29787 -0.744694,-0.69504 v -1.83692 c 0,-0.39717 0.347524,-0.69504 0.744694,-0.69504 z"
     id="path182"
     inkscape:connector-curvature="0"
     style="fill:#0e0e0e" />
  <path
     d="m 68.511853,146.60544 c 0,0.74469 -0.645401,1.2908 -1.489388,1.2908 h -1.687973 c -0.794341,0 -1.489388,-0.59576 -1.489388,-1.2908 v -2.87949 c 0,-0.74469 0.645401,-1.2908 1.489388,-1.2908 h 0.347524 v 1.34045 h -0.09929 c -0.297878,0.0496 -0.496463,0.29788 -0.496463,0.54611 v 1.73762 c 0,0.29787 0.297878,0.54611 0.645402,0.54611 h 0.843987 c 0.347523,0 0.645401,-0.24824 0.645401,-0.54611 v -1.73762 c 0,-0.24823 -0.198585,-0.49647 -0.496463,-0.54611 H 66.6253 v -1.34045 h 0.347524 c 0.79434,0 1.489388,0.59575 1.489388,1.2908 v 2.87949 z"
     id="path184"
     inkscape:connector-curvature="0"
     style="fill:#232323" />
  <path
     d="m 66.82388,143.62666 c 0.347524,0.0496 0.595755,0.34752 0.595755,0.6454 v 1.73762 c 0,0.39717 -0.347524,0.69505 -0.744694,0.69505 h -0.843987 c -0.446816,0 -0.744694,-0.29788 -0.744694,-0.69505 v -1.73762 c 0,-0.29788 0.248232,-0.59575 0.595756,-0.6454 v -1.09222 h -0.248232 c -0.744694,0 -1.340449,0.54611 -1.340449,1.19151 v 2.87949 c 0,0.6454 0.595755,1.19151 1.340449,1.19151 h 1.687973 c 0.744695,0 1.34045,-0.54611 1.34045,-1.19151 v -2.87949 c 0,-0.6454 -0.595755,-1.19151 -1.34045,-1.19151 h -0.248231 v 1.09222 z"
     id="path186"
     inkscape:connector-curvature="0"
     style="fill:#0e0e0e" />
  <path
     d="m 68.511853,120.3922 c 0,0.7447 -0.645401,1.3901 -1.489388,1.3901 h -1.687973 c -0.794341,0 -1.489388,-0.59576 -1.489388,-1.3901 v -3.02842 c 0,-0.74469 0.645401,-1.39009 1.489388,-1.39009 h 1.687973 c 0.79434,0 1.489388,0.59575 1.489388,1.39009 z m -3.375946,-0.59575 c 0,0.34752 0.297877,0.59575 0.645401,0.59575 h 0.843987 c 0.347524,0 0.645401,-0.24823 0.645401,-0.59575 v -1.83691 c 0,-0.34753 -0.297877,-0.59576 -0.645401,-0.59576 h -0.843987 c -0.347524,0 -0.645401,0.24823 -0.645401,0.59576 z"
     id="path188"
     inkscape:connector-curvature="0"
     style="fill:#232323" />
  <path
     d="m 64.043689,117.36378 v 3.02842 c 0,0.69505 0.595755,1.24116 1.340449,1.24116 h 1.687973 c 0.744694,0 1.34045,-0.54611 1.34045,-1.24116 v -3.02842 c 0,-0.69505 -0.595756,-1.24115 -1.34045,-1.24115 h -1.687973 c -0.744694,0 -1.340449,0.5461 -1.340449,1.24115 z m 2.581606,-0.14894 c 0.446816,0 0.744694,0.29788 0.744694,0.69505 v 1.83691 c 0,0.39717 -0.347524,0.69505 -0.744694,0.69505 h -0.843987 c -0.446816,0 -0.744694,-0.29788 -0.744694,-0.69505 v -1.83691 c 0,-0.39717 0.347524,-0.69505 0.744694,-0.69505 z"
     id="path190"
     inkscape:connector-curvature="0"
     style="fill:#0e0e0e" />
  <path
     d="m 68.511853,126.00223 c 0,0.7447 -0.645401,1.29081 -1.489388,1.29081 h -1.687973 c -0.794341,0 -1.489388,-0.59576 -1.489388,-1.29081 v -2.87948 c 0,-0.74469 0.645401,-1.2908 1.489388,-1.2908 h 0.347524 v 1.34045 h -0.09929 c -0.297878,0.0496 -0.496463,0.29787 -0.496463,0.5461 v 1.73762 c 0,0.29788 0.297878,0.54611 0.645402,0.54611 h 0.843987 c 0.347523,0 0.645401,-0.24823 0.645401,-0.54611 v -1.73762 c 0,-0.24823 -0.198585,-0.49646 -0.496463,-0.5461 H 66.6253 v -1.34045 h 0.347524 c 0.79434,0 1.489388,0.59575 1.489388,1.2908 v 2.87948 z"
     id="path192"
     inkscape:connector-curvature="0"
     style="fill:#232323" />
  <path
     d="m 66.82388,123.02346 c 0.347524,0.0496 0.595755,0.34752 0.595755,0.6454 v 1.73762 c 0,0.39717 -0.347524,0.69505 -0.744694,0.69505 h -0.843987 c -0.446816,0 -0.744694,-0.29788 -0.744694,-0.69505 v -1.73762 c 0,-0.29788 0.248232,-0.59576 0.595756,-0.6454 v -1.09222 h -0.248232 c -0.744694,0 -1.340449,0.54611 -1.340449,1.19151 v 2.87948 c 0,0.6454 0.595755,1.19151 1.340449,1.19151 h 1.687973 c 0.744695,0 1.34045,-0.54611 1.34045,-1.19151 v -2.87948 c 0,-0.6454 -0.595755,-1.19151 -1.34045,-1.19151 h -0.248231 v 1.09222 z"
     id="path194"
     inkscape:connector-curvature="0"
     style="fill:#0e0e0e" />
  <path
     d="m 50.341318,131.95979 c 0,9.18456 -7.44694,16.6315 -16.6315,16.6315 -9.18456,0 -16.631501,-7.44694 -16.631501,-16.6315 0,-9.18456 7.446941,-16.63151 16.631501,-16.63151 9.18456,0 16.6315,7.44695 16.6315,16.63151 z"
     id="path196"
     inkscape:connector-curvature="0"
     style="fill:#101010" />
  <path
     d="m 49.844855,131.95979 c 0,8.88668 -7.248355,16.13503 -16.135037,16.13503 -8.886683,0 -16.135038,-7.24835 -16.135038,-16.13503 0,-8.88669 7.248355,-16.13504 16.135038,-16.13504 8.886682,0 16.135037,7.24835 16.135037,16.13504 z"
     id="path198"
     inkscape:connector-curvature="0"
     style="fill:#282829" />
  <circle
     cx="33.70982"
     cy="131.95978"
     r="13.156261"
     id="circle200"
     style="fill:#d8d9d8" />
  <path
     d="m 8.9363287,231.79843 v -46.86607 c 0,-0.64541 0.4964627,-1.14187 1.1418643,-1.14187 H 388.13454 c 0.6454,0 1.14187,0.49646 1.14187,1.14187 v 46.86607 c 0,0.64541 -0.49647,1.14187 -1.14187,1.14187 H 10.078193 c -0.6454016,0.0496 -1.1418643,-0.49646 -1.1418643,-1.14187 z"
     id="path202"
     inkscape:connector-curvature="0"
     style="fill:#0f0f0f" />
  <path
     d="m 384.41107,228.67072 h -233.5857 c -0.29788,0 -0.59576,-0.24823 -0.59576,-0.59576 v -39.46878 c 0,-0.29788 0.24824,-0.59576 0.59576,-0.59576 h 233.5857 c 0.29788,0 0.59576,0.24824 0.59576,0.59576 v 39.46878 c 0,0.34753 -0.24823,0.59576 -0.59576,0.59576 z"
     id="path204"
     inkscape:connector-curvature="0"
     style="fill:#181818" />
  <path
     d="m 359.78652,224.00397 v -28.94378 c 0,-0.0496 0.0496,-0.0993 0.0993,-0.0993 h 19.01453 c 0.0496,0 0.0993,0.0496 0.0993,0.0993 v 28.94378 c 0,0.0496 -0.0497,0.0993 -0.0993,0.0993 h -19.01453 c -0.0496,0 -0.0993,-0.0496 -0.0993,-0.0993 z"
     id="path206"
     inkscape:connector-curvature="0"
     style="fill:#282627" />
  <path
     d="m 377.65918,222.86211 h -16.53221 c -0.0496,0 -0.0993,-0.0496 -0.0993,-0.0993 v -26.46146 c 0,-0.0496 0.0496,-0.0993 0.0993,-0.0993 h 16.53221 c 0.0496,0 0.0993,0.0496 0.0993,0.0993 v 26.46146 c 0,0.0497 0,0.0993 -0.0993,0.0993 z"
     id="path208"
     inkscape:connector-curvature="0"
     style="fill:#36393b" />
  <circle
     cx="369.41788"
     cy="209.50726"
     r="6.7022467"
     id="circle210"
     style="fill:#0f0f0f" />
  <path
     d="M 351.79347,228.67072 H 224.20256 c -0.14894,0 -0.24823,-0.0993 -0.24823,-0.24823 v -40.16383 c 0,-0.14894 0.0993,-0.24824 0.24823,-0.24824 h 127.59091 c 0.14894,0 0.24823,0.0993 0.24823,0.24824 v 40.16383 c 0,0.14894 -0.14894,0.24823 -0.24823,0.24823 z"
     id="path212"
     inkscape:connector-curvature="0"
     style="fill:#e3e0dd" />
  <path
     d="M 349.26151,227.08204 H 226.73452 c -0.14894,0 -0.24823,-0.0993 -0.24823,-0.24823 v -34.15664 c 0,-0.14893 0.0993,-0.24823 0.24823,-0.24823 h 122.52699 c 0.14894,0 0.24823,0.0993 0.24823,0.24823 v 34.15664 c -0.0496,0.14894 -0.14894,0.24823 -0.24823,0.24823 z"
     id="path214"
     inkscape:connector-curvature="0"
     style="fill:#303433" />
  <path
     d="M 348.07,214.62083 H 227.92603 c -0.14894,0 -0.24823,-0.0993 -0.24823,-0.24824 V 193.6701 c 0,-0.14894 0.0993,-0.24823 0.24823,-0.24823 H 348.07 c 0.14894,0 0.24823,0.0993 0.24823,0.24823 v 20.70249 c -0.0496,0.14894 -0.14894,0.24824 -0.24823,0.24824 z"
     id="path216"
     inkscape:connector-curvature="0"
     style="fill:#e3e0dd" />
  <path
     d="m 231.45091,221.27343 c 0,-0.39717 0.0993,-0.7447 0.24823,-1.04258 0.14894,-0.24823 0.39717,-0.49646 0.64541,-0.59575 0.24823,-0.14894 0.59575,-0.19859 0.99292,-0.19859 0.54611,0 0.99293,0.14894 1.34045,0.49647 0.34752,0.34752 0.49646,0.74469 0.49646,1.34045 0,0.59575 -0.19858,1.04257 -0.54611,1.39009 -0.29787,0.29788 -0.74469,0.44682 -1.2908,0.44682 -0.54611,0 -0.99292,-0.14894 -1.34045,-0.44682 -0.34752,-0.34752 -0.54611,-0.79434 -0.54611,-1.39009 z m 0.79434,0 c 0,0.39717 0.0993,0.69504 0.29788,0.89363 0.19859,0.19858 0.44682,0.29788 0.74469,0.29788 0.29788,0 0.54611,-0.0993 0.7447,-0.29788 0.19858,-0.19859 0.29788,-0.49646 0.29788,-0.94328 0,-0.39717 -0.0993,-0.69505 -0.29788,-0.89363 -0.19859,-0.19859 -0.44682,-0.29788 -0.7447,-0.29788 -0.29787,0 -0.59575,0.0993 -0.79434,0.29788 -0.14893,0.19858 -0.24823,0.49646 -0.24823,0.94328 z m 3.57453,1.73762 v -3.52489 h 2.63126 v 0.59576 h -1.83692 v 0.84398 h 1.58869 v 0.59576 h -1.58869 v 1.48939 z m 3.27666,0 v -3.52489 h 2.63125 v 0.59576 h -1.83691 v 0.84398 h 1.58868 v 0.59576 h -1.58868 v 1.48939 z m 88.61859,0 v -3.52489 h 1.63833 c 0.39717,0 0.69505,0.0496 0.89363,0.0993 0.19859,0.0496 0.34752,0.14894 0.44682,0.34753 0.0993,0.14894 0.14894,0.34752 0.14894,0.54611 0,0.29787 -0.0993,0.49646 -0.24824,0.6454 -0.19858,0.14894 -0.44681,0.29787 -0.74469,0.29787 0.14894,0.0993 0.29788,0.19859 0.39717,0.29788 0.0993,0.0993 0.24823,0.29788 0.44682,0.59576 l 0.44681,0.69505 h -0.94328 l -0.54611,-0.7447 c -0.19858,-0.29788 -0.34752,-0.44682 -0.39717,-0.49646 -0.0496,-0.0496 -0.14893,-0.0993 -0.24823,-0.14894 -0.0993,-0.0497 -0.19858,-0.0497 -0.39717,-0.0497 h -0.14894 v 1.48939 h -0.74469 z m 0.74469,-2.0355 h 0.59576 c 0.34752,0 0.59575,0 0.69505,-0.0497 0.0993,0 0.19858,-0.0496 0.24823,-0.14894 0.0496,-0.0496 0.0993,-0.14894 0.0993,-0.29787 0,-0.0993 -0.0496,-0.19859 -0.0993,-0.24824 -0.0496,-0.0496 -0.14894,-0.0993 -0.24823,-0.14893 -0.0497,0 -0.29788,-0.0496 -0.6454,-0.0496 h -0.59576 v 0.94328 z m 3.12772,2.0355 v -3.52489 h 2.87948 v 0.59576 h -2.08514 v 0.79434 h 1.9362 v 0.59575 h -1.9362 v 0.94328 h 2.13479 v 0.59576 z m 3.37595,-1.14187 0.74469,-0.0496 c 0.0993,0.44682 0.34752,0.69505 0.84399,0.69505 0.24823,0 0.39717,-0.0496 0.54611,-0.14894 0.14893,-0.0993 0.19858,-0.19858 0.19858,-0.34752 0,-0.0993 0,-0.14894 -0.0496,-0.19859 -0.0496,-0.0496 -0.0993,-0.0993 -0.19858,-0.14893 -0.0993,-0.0496 -0.34752,-0.0993 -0.69505,-0.19859 -0.34752,-0.0993 -0.59575,-0.14894 -0.74469,-0.24823 -0.14894,-0.0993 -0.29788,-0.19859 -0.34753,-0.34752 -0.0993,-0.14894 -0.14894,-0.29788 -0.14894,-0.44682 0,-0.19859 0.0496,-0.34752 0.14894,-0.49646 0.0993,-0.14894 0.29788,-0.24824 0.49647,-0.34753 0.19858,-0.0993 0.44681,-0.0993 0.74469,-0.0993 0.44682,0 0.79434,0.0993 1.04257,0.29788 0.24823,0.19858 0.39717,0.44681 0.39717,0.79434 l -0.79434,0.0496 c -0.0496,-0.19858 -0.0993,-0.29787 -0.19858,-0.39717 -0.0993,-0.0993 -0.29788,-0.0993 -0.49647,-0.0993 -0.19858,0 -0.34752,0.0496 -0.49646,0.0993 -0.0993,0.0496 -0.14894,0.14894 -0.14894,0.24824 0,0.0993 0.0496,0.19858 0.14894,0.24823 0.0993,0.0496 0.34753,0.14894 0.69505,0.19858 0.39717,0.0993 0.69505,0.19859 0.84399,0.24823 0.19858,0.0993 0.29787,0.19859 0.39717,0.34753 0.0993,0.14894 0.14893,0.34752 0.14893,0.54611 0,0.29787 -0.14893,0.5461 -0.39717,0.79434 -0.24823,0.19858 -0.6454,0.29787 -1.19151,0.29787 -0.84398,-0.0993 -1.39009,-0.49646 -1.48938,-1.2908 z m 3.77311,1.14187 v -3.52489 h 2.87949 v 0.59576 h -2.08515 v 0.79434 h 1.93621 v 0.59575 h -1.93621 v 0.94328 h 2.13479 v 0.59576 z m 4.46817,0 v -2.92913 h -1.14187 v -0.59576 h 3.07807 v 0.59576 h -1.14186 v 2.92913 z"
     id="path218"
     inkscape:connector-curvature="0"
     style="fill:#fb574b" />
  <path
     d="m 231.45091,203.79794 c 0,-0.39717 0.0993,-0.7447 0.24823,-1.04257 0.14894,-0.24823 0.39717,-0.49647 0.64541,-0.59576 0.24823,-0.14894 0.59575,-0.19858 0.99292,-0.19858 0.54611,0 0.99293,0.14894 1.34045,0.49646 0.34752,0.34752 0.49646,0.74469 0.49646,1.34045 0,0.59575 -0.19858,1.04257 -0.54611,1.39009 -0.29787,0.29788 -0.74469,0.44682 -1.2908,0.44682 -0.54611,0 -0.99292,-0.14894 -1.34045,-0.44682 -0.34752,-0.39717 -0.54611,-0.84398 -0.54611,-1.39009 z m 0.79434,-0.0496 c 0,0.39717 0.0993,0.69505 0.29788,0.89364 0.19859,0.19858 0.44682,0.29787 0.74469,0.29787 0.29788,0 0.54611,-0.0993 0.7447,-0.29787 0.19858,-0.19859 0.29788,-0.49647 0.29788,-0.94328 0,-0.39717 -0.0993,-0.69505 -0.29788,-0.89364 -0.19859,-0.19858 -0.44682,-0.29787 -0.7447,-0.29787 -0.29787,0 -0.59575,0.0993 -0.79434,0.29787 -0.14893,0.24823 -0.24823,0.54611 -0.24823,0.94328 z m 3.57453,1.78727 v -3.52489 h 0.7447 l 1.58868,2.33338 v -2.33338 h 0.74469 v 3.52489 h -0.79434 l -1.53903,-2.28373 v 2.28373 z m 35.09992,-6.95048 v -3.07807 h 0.6454 v 3.07807 z m 1.24115,0 v -3.07807 h 0.59576 l 1.2908,2.0355 v -2.0355 h 0.59576 v 3.07807 h -0.59576 l -1.24115,-1.98585 v 1.98585 z m 3.02843,-0.99293 0.59575,-0.0496 c 0.0496,0.39717 0.29788,0.59575 0.69505,0.59575 0.19858,0 0.34752,-0.0496 0.44682,-0.0993 0.0993,-0.0993 0.14893,-0.19858 0.14893,-0.29788 0,-0.0496 0,-0.14894 -0.0496,-0.19858 -0.0496,-0.0497 -0.0993,-0.0993 -0.19859,-0.0993 -0.0993,-0.0497 -0.24823,-0.0993 -0.54611,-0.14894 -0.24823,-0.0496 -0.44681,-0.14894 -0.59575,-0.19859 -0.14894,-0.0993 -0.24823,-0.19858 -0.29788,-0.29788 -0.0993,-0.14893 -0.0993,-0.24823 -0.0993,-0.39717 0,-0.14893 0.0496,-0.29787 0.14894,-0.44681 0.0993,-0.14894 0.24823,-0.24823 0.39717,-0.29788 0.14894,-0.0496 0.39717,-0.0993 0.59575,-0.0993 0.34753,0 0.6454,0.0993 0.84399,0.24823 0.19858,0.14894 0.29788,0.39717 0.34752,0.69505 l -0.6454,0.0496 c -0.0496,-0.14894 -0.0993,-0.29787 -0.19858,-0.34752 -0.0993,-0.0496 -0.24823,-0.0993 -0.39717,-0.0993 -0.14894,0 -0.29788,0.0496 -0.39717,0.0993 -0.0993,0.0496 -0.14894,0.14894 -0.14894,0.19858 0,0.0993 0.0496,0.14894 0.14894,0.19859 0.0993,0.0496 0.29787,0.0993 0.59575,0.19858 0.29788,0.0496 0.54611,0.14894 0.69505,0.24824 0.14894,0.0993 0.24823,0.19858 0.34752,0.29787 0.0993,0.14894 0.0993,0.29788 0.0993,0.44682 0,0.24823 -0.0993,0.49646 -0.29788,0.69505 -0.19859,0.19858 -0.54611,0.24823 -0.94328,0.24823 -0.79434,-0.0993 -1.24116,-0.44682 -1.2908,-1.14187 z m 3.07807,0.99293 v -3.07807 h 2.33337 v 0.49646 h -1.68797 v 0.69505 h 1.58868 v 0.49646 h -1.58868 v 0.84399 h 1.73762 v 0.49646 h -2.38302 z m 2.92913,0 v -3.07807 h 1.34044 c 0.34753,0 0.59576,0.0496 0.7447,0.0993 0.14894,0.0496 0.24823,0.14894 0.34752,0.29788 0.0993,0.14894 0.14894,0.29788 0.14894,0.49646 0,0.24824 -0.0496,0.44682 -0.19858,0.59576 -0.14894,0.14894 -0.34753,0.24823 -0.59576,0.29788 0.14894,0.0993 0.24823,0.14894 0.34752,0.24823 0.0993,0.0993 0.19859,0.24823 0.34753,0.49646 l 0.39717,0.59576 h -0.7447 l -0.44681,-0.64541 c -0.14894,-0.24823 -0.29788,-0.39717 -0.34753,-0.44681 -0.0496,-0.0497 -0.0993,-0.0993 -0.19858,-0.14894 -0.0497,0 -0.14894,-0.0496 -0.29788,-0.0496 h -0.14894 v 1.29081 h -0.69504 z m 0.6454,-1.78727 h 0.49646 c 0.29788,0 0.44682,0 0.54611,-0.0496 0.0993,0 0.14894,-0.0496 0.19858,-0.0993 0.0496,-0.0496 0.0496,-0.14894 0.0496,-0.24824 0,-0.0993 -0.0496,-0.19858 -0.0496,-0.24823 -0.0496,-0.0496 -0.0993,-0.0993 -0.19858,-0.0993 h -0.99293 v 0.74469 z m 3.227,1.78727 v -2.53196 h -0.94327 v -0.49646 h 2.48231 v 0.49646 h -0.94328 v 2.53196 z m 5.21286,-1.14186 0.59576,0.19858 c -0.0993,0.34752 -0.24823,0.59576 -0.49646,0.7447 -0.24824,0.14893 -0.49647,0.24823 -0.84399,0.24823 -0.39717,0 -0.7447,-0.14894 -0.99293,-0.39717 -0.29787,-0.29788 -0.44681,-0.69505 -0.44681,-1.19151 0,-0.54611 0.14894,-0.94328 0.44681,-1.24116 0.24823,-0.24823 0.59576,-0.39717 1.04257,-0.39717 0.34753,0 0.64541,0.0993 0.89364,0.29788 0.14894,0.14894 0.29788,0.34752 0.34752,0.59575 l -0.6454,0.14894 c -0.0497,-0.14894 -0.0993,-0.29788 -0.24823,-0.39717 -0.0993,-0.0993 -0.24823,-0.14894 -0.44682,-0.14894 -0.24823,0 -0.39717,0.0993 -0.54611,0.24823 -0.14894,0.14894 -0.19858,0.44682 -0.19858,0.79434 0,0.39717 0.0496,0.6454 0.19858,0.84399 0.14894,0.14894 0.34753,0.24823 0.54611,0.24823 0.14894,0 0.29788,-0.0496 0.44682,-0.14894 0.19858,-0.0496 0.29788,-0.19858 0.34752,-0.44681 z m 3.9717,1.14186 h -0.69504 l -0.29788,-0.69505 h -1.24116 l -0.24823,0.69505 h -0.69505 l 1.24116,-3.07807 h 0.69505 z m -1.14186,-1.19151 -0.44682,-1.14186 -0.44681,1.14186 z m 1.48939,1.19151 v -3.07807 h 1.34045 c 0.34752,0 0.59575,0.0496 0.74469,0.0993 0.14894,0.0496 0.24823,0.14894 0.34753,0.29788 0.0993,0.14894 0.14893,0.29788 0.14893,0.49646 0,0.24824 -0.0496,0.44682 -0.19858,0.59576 -0.14894,0.14894 -0.34752,0.24823 -0.59576,0.29788 0.14894,0.0993 0.24824,0.14894 0.34753,0.24823 0.0993,0.0993 0.19858,0.24823 0.34752,0.49646 l 0.39717,0.59576 h -0.74469 l -0.44682,-0.64541 c -0.14894,-0.24823 -0.29788,-0.39717 -0.34752,-0.44681 -0.0496,-0.0497 -0.0993,-0.0993 -0.19859,-0.14894 -0.0496,0 -0.14894,-0.0496 -0.29788,-0.0496 h -0.14893 v 1.29081 h -0.69505 z m 0.6454,-1.78727 h 0.49646 c 0.29788,0 0.44682,0 0.54611,-0.0496 0.0993,0 0.14894,-0.0496 0.19859,-0.0993 0.0496,-0.0496 0.0496,-0.14894 0.0496,-0.24824 0,-0.0993 -0.0496,-0.19858 -0.0496,-0.24823 -0.0496,-0.0496 -0.0993,-0.0993 -0.19859,-0.0993 h -0.99292 v 0.74469 z m 3.22701,1.78727 v -2.53196 h -0.94328 v -0.49646 h 2.48231 v 0.49646 h -0.94328 v 2.53196 z m 1.98585,0 v -3.07807 h 1.34045 c 0.34752,0 0.59575,0.0496 0.74469,0.0993 0.14894,0.0496 0.24823,0.14894 0.34753,0.29788 0.0993,0.14894 0.14893,0.29788 0.14893,0.49646 0,0.24824 -0.0496,0.44682 -0.19858,0.59576 -0.14894,0.14894 -0.34752,0.24823 -0.59576,0.29788 0.14894,0.0993 0.24824,0.14894 0.34753,0.24823 0.0993,0.0993 0.19858,0.24823 0.34752,0.49646 l 0.39717,0.59576 h -0.74469 l -0.44682,-0.64541 c -0.14894,-0.24823 -0.29788,-0.39717 -0.34752,-0.44681 -0.0497,-0.0497 -0.0993,-0.0993 -0.19859,-0.14894 -0.0496,0 -0.14894,-0.0496 -0.29788,-0.0496 h -0.14893 v 1.29081 h -0.69505 z m 0.6454,-1.78727 h 0.49646 c 0.29788,0 0.44682,0 0.54611,-0.0496 0.0993,0 0.14894,-0.0496 0.19859,-0.0993 0.0496,-0.0496 0.0496,-0.14894 0.0496,-0.24824 0,-0.0993 -0.0496,-0.19858 -0.0496,-0.24823 -0.0497,-0.0496 -0.0993,-0.0993 -0.19859,-0.0993 h -0.99292 v 0.74469 z m 2.53196,1.78727 v -3.07807 h 0.6454 v 3.07807 z m 1.19151,-3.07807 h 1.14186 c 0.29788,0 0.49647,0.0496 0.64541,0.0993 0.14893,0.0496 0.29787,0.14894 0.39717,0.24824 0.0993,0.0993 0.24823,0.29787 0.29787,0.49646 0.0496,0.19858 0.0993,0.44681 0.0993,0.74469 0,0.24823 -0.0497,0.49646 -0.0993,0.69505 -0.0993,0.19858 -0.14894,0.34752 -0.29787,0.44682 -0.0993,0.0993 -0.24824,0.19858 -0.39717,0.24823 -0.14894,0.0496 -0.34753,0.0993 -0.64541,0.0993 h -1.14186 v -3.07807 z m 0.6454,0.54611 v 2.0355 h 0.49646 c 0.19859,0 0.34753,0 0.44682,-0.0497 0.0993,-0.0496 0.14894,-0.0993 0.24823,-0.14894 0.0496,-0.0496 0.0993,-0.14894 0.14894,-0.29788 0.0497,-0.14893 0.0497,-0.29787 0.0497,-0.5461 0,-0.24824 0,-0.39717 -0.0497,-0.54611 -0.0496,-0.14894 -0.0993,-0.24823 -0.19858,-0.29788 -0.0993,-0.0993 -0.19859,-0.14894 -0.29788,-0.14894 -0.0993,0 -0.24823,-0.0496 -0.49646,-0.0496 h -0.34753 z m 4.02135,1.3901 v -0.49647 h 1.39009 v 1.24116 c -0.14893,0.14894 -0.34752,0.24823 -0.59575,0.34752 -0.24823,0.0993 -0.49646,0.14894 -0.74469,0.14894 -0.29788,0 -0.59576,-0.0496 -0.84399,-0.19858 -0.24823,-0.0993 -0.44682,-0.29788 -0.54611,-0.54611 -0.14894,-0.24823 -0.19859,-0.54611 -0.19859,-0.84399 0,-0.34752 0.0497,-0.6454 0.19859,-0.84398 0.14894,-0.24824 0.34752,-0.39717 0.54611,-0.54611 0.24823,-0.0993 0.49646,-0.19859 0.79434,-0.19859 0.39717,0 0.69505,0.0993 0.89363,0.24823 0.24823,0.14894 0.34753,0.39717 0.44682,0.69505 l -0.6454,0.0993 c -0.0497,-0.14894 -0.14894,-0.29787 -0.24823,-0.34752 -0.14894,-0.0993 -0.29788,-0.14894 -0.44682,-0.14894 -0.24823,0 -0.49646,0.0993 -0.6454,0.24823 -0.14894,0.14894 -0.24823,0.44682 -0.24823,0.7447 0,0.34752 0.0993,0.6454 0.24823,0.84398 0.14894,0.14894 0.34752,0.24823 0.6454,0.24823 0.0993,0 0.24823,0 0.39717,-0.0496 0.14894,-0.0497 0.24823,-0.0993 0.34752,-0.19859 v -0.39717 h -0.74469 z m 1.9362,1.14186 v -3.07807 h 2.33338 v 0.49646 h -1.68797 v 0.69505 h 1.58868 v 0.49646 h -1.58868 v 0.84399 h 1.73761 v 0.49646 h -2.38302 z m 4.17029,0 v -3.07807 h 0.6454 v 1.19151 h 1.24116 v -1.19151 h 0.6454 v 3.07807 h -0.6454 v -1.34045 h -1.24116 v 1.34045 z m 3.17736,0 v -3.07807 h 2.33338 v 0.49646 h -1.68798 v 0.69505 h 1.58868 v 0.49646 h -1.58868 v 0.84399 h 1.73762 v 0.49646 h -2.38302 z m 2.92913,0 v -3.07807 h 1.34045 c 0.34752,0 0.59576,0.0496 0.7447,0.0993 0.14893,0.0496 0.24823,0.14894 0.34752,0.29788 0.0993,0.14894 0.14894,0.29788 0.14894,0.49646 0,0.24824 -0.0496,0.44682 -0.19859,0.59576 -0.14894,0.14894 -0.34752,0.24823 -0.59575,0.29788 0.14894,0.0993 0.24823,0.14894 0.34752,0.24823 0.0993,0.0993 0.19859,0.24823 0.34753,0.49646 l 0.39717,0.59576 h -0.7447 l -0.44682,-0.64541 c -0.14893,-0.24823 -0.29787,-0.39717 -0.34752,-0.44681 -0.0496,-0.0497 -0.0993,-0.0993 -0.19858,-0.14894 -0.0496,0 -0.14894,-0.0496 -0.29788,-0.0496 h -0.14894 v 1.29081 h -0.69505 z m 0.6454,-1.78727 h 0.49647 c 0.29787,0 0.44681,0 0.5461,-0.0496 0.0993,0 0.14894,-0.0496 0.19859,-0.0993 0.0497,-0.0496 0.0497,-0.14894 0.0497,-0.24824 0,-0.0993 -0.0497,-0.19858 -0.0497,-0.24823 -0.0496,-0.0496 -0.0993,-0.0993 -0.19859,-0.0993 h -0.99292 v 0.74469 z m 2.53196,1.78727 v -3.07807 h 2.33338 v 0.49646 h -1.68798 v 0.69505 h 1.58869 v 0.49646 h -1.58869 v 0.84399 h 1.73762 v 0.49646 h -2.38302 z"
     id="path220"
     inkscape:connector-curvature="0"
     style="fill:#303433" />
  <path
     d="m 15.340698,188.06007 h 3.922055 v 40.6603 h -3.922055 z m 6.602953,0 h 3.922056 v 40.6603 h -3.922056 z m 6.553308,0 h 3.922056 v 40.6603 h -3.922056 z m 6.602954,0 h 3.922055 v 40.6603 h -3.922055 z m 6.602954,0 h 3.922055 v 40.6603 h -3.922055 z m 6.602954,0 h 3.922055 v 40.6603 h -3.922055 z m 6.602954,0 h 3.922055 v 40.6603 h -3.922055 z m 6.602954,0 h 3.922055 v 40.6603 h -3.922055 z m 6.553308,0 h 3.922055 v 40.6603 h -3.922055 z m 6.602954,0 h 3.922055 v 40.6603 h -3.922055 z m 6.602954,0 H 85.193 v 40.6603 h -3.922055 z m 6.602953,0 h 3.922056 v 40.6603 h -3.922056 z m 6.602954,0 h 3.922056 v 40.6603 h -3.922056 z m 6.602958,0 h 3.92205 v 40.6603 h -3.92205 z m 6.60295,0 h 3.92206 v 40.6603 h -3.92206 z m 6.55331,0 h 3.92205 v 40.6603 h -3.92205 z m 6.60295,0 h 3.92206 v 40.6603 h -3.92206 z m 6.60296,0 h 3.92205 v 40.6603 h -3.92205 z m 6.60295,0 h 3.92206 v 40.6603 h -3.92206 z m 6.60295,0 h 3.92206 v 40.6603 h -3.92206 z"
     id="path222"
     inkscape:connector-curvature="0"
     style="fill:#181818" />
  <path
     d="m 196.25171,224.00397 v -28.94378 c 0,-0.0496 0.0496,-0.0993 0.0993,-0.0993 h 19.01452 c 0.0496,0 0.0993,0.0496 0.0993,0.0993 v 28.94378 c 0,0.0496 -0.0496,0.0993 -0.0993,0.0993 h -19.01452 c -0.0496,0 -0.0993,-0.0496 -0.0993,-0.0993 z"
     id="path224"
     inkscape:connector-curvature="0"
     style="fill:#282627" />
  <path
     d="m 214.12436,222.86211 h -16.5322 c -0.0497,0 -0.0993,-0.0496 -0.0993,-0.0993 v -26.46146 c 0,-0.0496 0.0496,-0.0993 0.0993,-0.0993 h 16.5322 c 0.0497,0 0.0993,0.0496 0.0993,0.0993 v 26.46146 c 0,0.0497 -0.0496,0.0993 -0.0993,0.0993 z"
     id="path226"
     inkscape:connector-curvature="0"
     style="fill:#36393b" />
  <path
     d="m 197.49286,197.6418 h 16.7308 v 20.00745 h -16.7308 z"
     id="path228"
     inkscape:connector-curvature="0"
     style="fill:#2a2c2c" />
  <path
     d="m 213.23073,210.54983 h -14.74494 c -0.24823,0 -0.49646,-0.19858 -0.49646,-0.49646 v -3.9717 c 0,-0.24823 0.19858,-0.49647 0.49646,-0.49647 h 14.74494 c 0.24823,0 0.49646,0.19859 0.49646,0.49647 v 3.9717 c 0,0.29788 -0.19858,0.49646 -0.49646,0.49646 z"
     id="path230"
     inkscape:connector-curvature="0"
     style="fill:#0f0f0f" />
  <path
     d="m 205.88308,201.56386 3.57453,3.62417 h -7.1987 m 3.62417,9.4328 3.57453,-3.62418 h -7.1987"
     id="path232"
     inkscape:connector-curvature="0"
     style="fill:#22211e" />
  <path
     d="M 353.68003,154.3999 H 240.983 v 21.894 h -34.75239 c -0.89364,0 -1.63833,-0.74469 -1.63833,-1.63832 V 12.80874 c 0,-0.89364 0.74469,-1.63833 1.63833,-1.63833 h 91.34913 -0.49646 91.34914 c 0.89363,0 1.63833,0.74469 1.63833,1.63833 v 161.84684 c 0,0.89363 -0.7447,1.63832 -1.63833,1.63832 h -34.75239 z"
     id="path234"
     inkscape:connector-curvature="0"
     style="fill:#0f0f0f" />
  <path
     d="m 235.81978,172.02433 v -21.94366 h 123.37099 v 21.94366 h 27.80191 V 44.83058 H 208.01787 V 172.02433 M 222.11741,15.48964 h 4.81569 v 25.12101 h -4.81569 z m 6.95048,0 h 4.81569 v 25.12101 h -4.81569 z m 6.95048,0 h 4.81569 v 25.12101 h -4.81569 z m 6.95048,0 h 4.81569 v 25.12101 h -4.81569 z m 6.95047,0 h 4.81569 v 25.12101 h -4.81569 z m 6.95048,0 h 4.81569 v 25.12101 h -4.81569 z m 6.95048,0 h 4.81569 v 25.12101 h -4.81569 z m 6.95048,0 h 4.81569 v 25.12101 h -4.81569 z m 6.95048,0 h 4.81568 v 25.12101 h -4.81568 z m 6.95047,0 h 4.81569 v 25.12101 h -4.81569 z m 6.95048,0 h 4.81569 v 25.12101 h -4.81569 z m 6.95048,0 h 4.81569 v 25.12101 h -4.81569 z m 6.95048,0 h 4.81569 v 25.12101 h -4.81569 z m 6.95048,0 h 4.81568 v 25.12101 h -4.81568 z m 6.95047,0 h 4.81569 v 25.12101 h -4.81569 z m 6.95048,0 h 4.81569 v 25.12101 h -4.81569 z m 6.95048,0 h 4.81569 v 25.12101 h -4.81569 z m 6.95048,0 h 4.81569 v 25.12101 h -4.81569 z m 6.95047,0 h 4.81569 v 25.12101 h -4.81569 z m 6.95048,0 h 4.81569 v 25.12101 h -4.81569 z m 6.95048,0 h 4.81569 v 25.12101 h -4.81569 z m 6.95048,0 h 4.81569 v 25.12101 h -4.81569 z m 6.95048,0 h 4.81568 v 25.12101 h -4.81568 z m -159.86099,0 h 4.81568 v 25.12101 h -4.81568 z m -2.13479,0 h -4.21994 c -0.44681,0 -0.79434,0.29787 -0.79434,0.6454 v 24.47561 h 5.01428 z m 168.94625,0 h 4.21994 c 0.44681,0 0.79434,0.29787 0.79434,0.6454 v 24.47561 h -5.01428 z"
     id="path236"
     inkscape:connector-curvature="0"
     style="fill:#181818" />
  <path
     d="m 297.87762,164.52774 h -0.34752 43.83765 c 2.23409,0 1.88656,-0.39717 1.88656,2.48231 v 8.78739 l -4.07099,11.26971 h -83.20715 l -4.07099,-11.26971 v -8.78739 c 0,-2.87948 -0.39717,-2.48231 1.88655,-2.48231 h 43.83766 -0.34752"
     id="path238"
     inkscape:connector-curvature="0"
     style="fill:#e3e0dd" />
  <path
     d="m 259.64999,182.15216 c -3.02842,0 -3.72347,-2.03549 -4.91498,-5.36179 l -0.19858,-0.69505 v -5.90791 c 0,-0.94328 0.24823,-1.53903 0.74469,-1.98585 0.6454,-0.59575 1.48939,-0.6454 2.18444,-0.6454 h 78.5404 c 0.69505,0 1.53903,0.0496 2.18443,0.6454 0.49647,0.44682 0.7447,1.09222 0.7447,1.98585 v 6.05685 l -0.19859,0.54611 c -1.19151,3.3263 -1.9362,5.36179 -4.91498,5.36179 z"
     id="path240"
     inkscape:connector-curvature="0"
     style="fill:#303433" />
  <path
     d="m 259.64999,181.55641 c -2.5816,0 -3.17736,-1.63833 -4.31922,-4.96463 l -0.19859,-0.59575 v -5.80862 c 0,-0.79434 0.14894,-1.24115 0.54611,-1.58868 0.49646,-0.44681 1.14187,-0.44681 1.73762,-0.44681 h 78.5404 c 0.6454,0 1.2908,0.0496 1.73762,0.44681 0.39717,0.34753 0.54611,0.84399 0.54611,1.58868 v 5.95756 l -0.14894,0.44681 c -1.19151,3.3263 -1.78726,4.96463 -4.31922,4.96463 z"
     id="path242"
     inkscape:connector-curvature="0"
     style="fill:#e3e0dd" />
  <path
     d="m 333.72223,181.15924 h -74.07224 c -2.23408,0 -2.78019,-1.48939 -3.92205,-4.66675 l -0.14894,-0.54611 v -5.75897 c 0,-0.6454 0.14894,-1.04257 0.39717,-1.2908 0.39717,-0.39717 1.04257,-0.34752 1.98585,-0.34752 h 77.44818 c 0.94328,0 1.53904,-0.0496 1.98585,0.34752 0.29788,0.24823 0.39717,0.6454 0.39717,1.2908 v 5.85826 l -0.14894,0.39717 c -1.14186,3.27666 -1.63832,4.7164 -3.92205,4.7164 z"
     id="path244"
     inkscape:connector-curvature="0"
     style="fill:#303433" />
  <path
     d="m 296.48753,180.76207 h 37.28435 c 1.98585,0 2.43266,-1.3901 3.67382,-4.81569 v -5.75897 c 0,-1.48938 -0.69505,-1.24115 -2.6809,-1.24115 h -38.22763 0.34753 -0.19859 0.34753 -38.22763 c -1.98585,0 -2.6809,-0.24823 -2.6809,1.24115 v 5.75897 c 1.24116,3.42559 1.63833,4.81569 3.67382,4.81569 h 37.28435"
     id="path246"
     inkscape:connector-curvature="0"
     style="fill:#e3e0dd" />
</svg>
