<?xml version="1.0" encoding="UTF-8" standalone="no"?>
<svg
   xmlns:dc="http://purl.org/dc/elements/1.1/"
   xmlns:cc="http://creativecommons.org/ns#"
   xmlns:rdf="http://www.w3.org/1999/02/22-rdf-syntax-ns#"
   xmlns:svg="http://www.w3.org/2000/svg"
   xmlns="http://www.w3.org/2000/svg"
   xmlns:xlink="http://www.w3.org/1999/xlink"
   xmlns:sodipodi="http://sodipodi.sourceforge.net/DTD/sodipodi-0.dtd"
   xmlns:inkscape="http://www.inkscape.org/namespaces/inkscape"
   viewBox="0 0 593.39004 723.5"
   version="1.1"
   id="svg382"
   sodipodi:docname="controls.svg"
   width="593.39001"
   height="723.5"
   inkscape:version="0.92.4 5da689c313, 2019-01-14">
  <metadata
     id="metadata386">
    <rdf:RDF>
      <cc:Work
         rdf:about="">
        <dc:format>image/svg+xml</dc:format>
        <dc:type
           rdf:resource="http://purl.org/dc/dcmitype/StillImage" />
      </cc:Work>
    </rdf:RDF>
  </metadata>
  <sodipodi:namedview
     pagecolor="#ffffff"
     bordercolor="#666666"
     borderopacity="1"
     objecttolerance="10"
     gridtolerance="10"
     guidetolerance="10"
     inkscape:pageopacity="0"
     inkscape:pageshadow="2"
     inkscape:window-width="471"
     inkscape:window-height="442"
     id="namedview384"
     showgrid="false"
     inkscape:zoom="0.32619212"
     inkscape:cx="296.69449"
     inkscape:cy="361.75"
     inkscape:window-x="0"
     inkscape:window-y="0"
     inkscape:window-maximized="0"
     inkscape:current-layer="svg382">
    <inkscape:grid
       type="xygrid"
       id="grid388"
       originx="0"
       originy="0" />
  </sodipodi:namedview>
  <path
     d="m 160.986,723.5 c -4.756,0 -8.625,-3.869 -8.625,-8.625 v -455.5 c 0,-4.756 3.869,-8.625 8.625,-8.625 h 281.75 c 4.756,0 8.625,3.869 8.625,8.625 v 455.5 c 0,4.756 -3.869,8.625 -8.625,8.625 z"
     id="path2"
     inkscape:connector-curvature="0"
     style="fill:#0b0b0b" />
  <path
     d="m 442.736,721.5 h -281.75 c -3.644,0 -6.625,-2.981 -6.625,-6.625 v -455.5 c 0,-3.644 2.981,-6.625 6.625,-6.625 h 281.75 c 3.644,0 6.625,2.981 6.625,6.625 v 455.5 c 0,3.644 -2.981,6.625 -6.625,6.625 z"
     id="path4"
     inkscape:connector-curvature="0"
     style="fill:#282828" />
  <path
     d="m 149.944,171.25 h 8 v 75.25 h -8 z"
     id="path6"
     inkscape:connector-curvature="0"
     style="fill:#989d9b" />
  <path
     d="m 165.778,168.25 h 271.833 v 91.863 H 165.778 Z"
     id="path8"
     inkscape:connector-curvature="0"
     style="fill:#0b0b0b" />
  <path
     d="m 167.278,169.75 h 268.833 v 88.863 H 167.278 Z"
     id="path10"
     inkscape:connector-curvature="0"
     style="fill:#282828" />
  <path
     d="m 168.778,171.25 h 265.833 v 85.863 H 168.778 Z"
     id="path12"
     inkscape:connector-curvature="0"
     style="fill:#0e0e0e" />
  <path
     d="M 152.069,163.375 V 7.875 A 7.875,7.875 0 0 1 159.944,0 h 283.5 a 7.875,7.875 0 0 1 7.875,7.875 v 155.5 a 7.875,7.875 0 0 1 -7.875,7.875 h -283.5 a 7.875,7.875 0 0 1 -7.875,-7.875 z"
     id="path14"
     inkscape:connector-curvature="0"
     style="fill:#0b0b0b" />
  <path
     d="m 443.444,171.25 h -283.5 c -3.781,0 -6.875,-3.094 -6.875,-6.875 V 7.875 C 153.069,4.094 156.163,1 159.944,1 h 283.5 c 3.781,0 6.875,3.094 6.875,6.875 v 156.5 c 0,3.781 -3.093,6.875 -6.875,6.875 z"
     id="path16"
     inkscape:connector-curvature="0"
     style="fill:#282828" />
  <path
     d="m 440.319,171.25 h -277.25 c -3.781,0 -6.875,-3.094 -6.875,-6.875 V 10.875 C 156.194,7.094 159.288,4 163.069,4 h 277.25 c 3.781,0 6.875,3.094 6.875,6.875 v 153.5 c 0,3.781 -3.093,6.875 -6.875,6.875 z"
     id="path18"
     inkscape:connector-curvature="0"
     style="fill:#0e0e0e" />
  <path
     d="m 301.694,150.469 c -38.543,0 -69.9,-31.357 -69.9,-69.9 0,-38.543 31.357,-69.9 69.9,-69.9 38.543,0 69.9,31.357 69.9,69.9 0,38.543 -31.357,69.9 -69.9,69.9 z"
     id="path20"
     inkscape:connector-curvature="0"
     style="fill:#121212" />
  <path
     d="m 301.694,147.469 c -36.889,0 -66.9,-30.011 -66.9,-66.9 0,-36.889 30.011,-66.9 66.9,-66.9 36.889,0 66.9,30.011 66.9,66.9 0,36.889 -30.011,66.9 -66.9,66.9 z"
     id="path22"
     inkscape:connector-curvature="0"
     style="fill:#0a0a0a" />
  <path
     d="m 301.694,147.469 c -36.889,0 -66.9,-30.011 -66.9,-66.9 0,-36.889 30.011,-66.9 66.9,-66.9 36.889,0 66.9,30.011 66.9,66.9 0,36.889 -30.011,66.9 -66.9,66.9 z"
     id="path24"
     inkscape:connector-curvature="0"
     style="fill:#101010" />
  <path
     d="m 301.694,145.462 c -35.782,0 -64.893,-29.111 -64.893,-64.893 0,-35.782 29.111,-64.893 64.893,-64.893 35.782,0 64.893,29.111 64.893,64.893 0.001,35.782 -29.111,64.893 -64.893,64.893 z"
     id="path26"
     inkscape:connector-curvature="0"
     style="fill:#282829" />
  <circle
     cx="301.694"
     cy="80.569"
     r="52.900002"
     id="circle28"
     style="fill:#d8d9d8" />
  <path
     d="m 157.944,171.25 h 8 v 75.25 h -8 z"
     id="path30"
     inkscape:connector-curvature="0"
     style="fill:#8e8f8e" />
  <path
     d="m 445.611,171.25 h 8 v 75.25 h -8 z"
     id="path32"
     inkscape:connector-curvature="0"
     style="fill:#989d9b" />
  <path
     d="m 437.611,171.25 h 8 v 75.25 h -8 z"
     id="path34"
     inkscape:connector-curvature="0"
     style="fill:#8e8f8e" />
  <path
     d="m 440.819,721.5 h -278.25 c -3.644,0 -6.625,-2.981 -6.625,-6.625 v -452.75 c 0,-3.644 2.981,-6.625 6.625,-6.625 h 278.25 c 3.644,0 6.625,2.981 6.625,6.625 v 452.75 c 0,3.644 -2.981,6.625 -6.625,6.625 z"
     id="path36"
     inkscape:connector-curvature="0"
     style="fill:#0e0e0e" />
  <path
     d="M 175.694,250.125 V 178.25 a 4.764,4.764 0 0 1 4.75,-4.75 h 242 a 4.765,4.765 0 0 1 4.75,4.75 v 71.875 l 18.833,14.708 v 439.583 c 0,2.979 -2.438,5.417 -5.417,5.417 H 162.278 c -2.979,0 -5.417,-2.438 -5.417,-5.417 V 264.833 Z"
     id="path38"
     inkscape:connector-curvature="0"
     style="fill:#181818" />
  <path
     d="m 241.828,425.109 h -48 c -6.6,0 -12,-5.4 -12,-12 v -52.75 c 0,-6.6 5.4,-12 12,-12 h 48 c 6.6,0 12,5.4 12,12 v 52.75 c 0,6.6 -5.4,12 -12,12 z"
     id="path40"
     inkscape:connector-curvature="0"
     style="fill:#282627" />
  <path
     d="m 240.078,425.109 h -44.964 c -6.6,0 -12,-5.4 -12,-12 v -46.112 c 0,-6.6 5.4,-12 12,-12 h 44.964 c 6.6,0 12,5.4 12,12 v 46.112 c 0,6.6 -5.4,12 -12,12 z"
     id="path42"
     inkscape:connector-curvature="0"
     style="fill:#939393" />
  <path
     d="m 240.328,425.109 h -44.964 c -6.6,0 -12,-5.4 -12,-12 v -39.75 c 0,-6.6 5.4,-12 12,-12 h 44.964 c 6.6,0 12,5.4 12,12 v 39.75 c 0,6.6 -5.4,12 -12,12 z"
     id="path44"
     inkscape:connector-curvature="0"
     style="fill:#b3b3b3" />
  <path
     d="m 219.046,381.083 h -0.099 l -5.651,3.05 -0.85,-3.349 7.1,-3.801 h 3.701 v 32.502 h -4.201 z"
     id="path46"
     inkscape:connector-curvature="0" />
  <path
     d="m 325.694,425.109 h -48 c -6.6,0 -12,-5.4 -12,-12 v -52.75 c 0,-6.6 5.4,-12 12,-12 h 48 c 6.6,0 12,5.4 12,12 v 52.75 c 0,6.6 -5.4,12 -12,12 z"
     id="path48"
     inkscape:connector-curvature="0"
     style="fill:#282627" />
  <path
     d="M 323.944,425.109 H 278.98 c -6.6,0 -12,-5.4 -12,-12 v -46.112 c 0,-6.6 5.4,-12 12,-12 h 44.964 c 6.6,0 12,5.4 12,12 v 46.112 c 0,6.6 -5.4,12 -12,12 z"
     id="path50"
     inkscape:connector-curvature="0"
     style="fill:#939393" />
  <path
     d="M 323.944,425.109 H 278.98 c -6.6,0 -12,-5.4 -12,-12 v -39.75 c 0,-6.6 5.4,-12 12,-12 h 44.964 c 6.6,0 12,5.4 12,12 v 39.75 c 0,6.6 -5.4,12 -12,12 z"
     id="path52"
     inkscape:connector-curvature="0"
     style="fill:#b3b3b3" />
  <path
     d="m 300.588,369.885 h -0.108 l -6.102,3.294 -0.918,-3.618 7.668,-4.104 h 3.996 v 35.101 h -4.536 z"
     id="path54"
     inkscape:connector-curvature="0" />
  <path
     d="m 325.444,425.109 h -48 c -6.6,0 -12,-5.4 -12,-12 v -52.75 c 0,-6.6 5.4,-12 12,-12 h 48 c 6.6,0 12,5.4 12,12 v 52.75 c 0,6.6 -5.4,12 -12,12 z"
     id="path56"
     inkscape:connector-curvature="0"
     style="fill:#282627" />
  <path
     d="M 323.694,425.109 H 278.73 c -6.6,0 -12,-5.4 -12,-12 v -46.112 c 0,-6.6 5.4,-12 12,-12 h 44.964 c 6.6,0 12,5.4 12,12 v 46.112 c 0,6.6 -5.4,12 -12,12 z"
     id="path58"
     inkscape:connector-curvature="0"
     style="fill:#939393" />
  <path
     d="m 324.176,425.109 h -44.964 c -6.6,0 -12,-5.4 -12,-12 v -39.75 c 0,-6.6 5.4,-12 12,-12 h 44.964 c 6.6,0 12,5.4 12,12 v 39.75 c 0,6.6 -5.4,12 -12,12 z"
     id="path60"
     inkscape:connector-curvature="0"
     style="fill:#b3b3b3" />
  <path
     d="m 291.319,409.76 v -2.7 l 3.5,-3.3 c 8.251,-7.9 12.051,-12.15 12.101,-17.051 0,-3.301 -1.6,-6.4 -6.45,-6.4 -2.95,0 -5.4,1.55 -6.9,2.8 l -1.4,-3.101 c 2.251,-1.899 5.451,-3.3 9.201,-3.3 7,0 9.9,4.8 9.9,9.45 0,6.001 -4.351,10.851 -11.15,17.451 l -2.601,2.45 v 0.1 h 14.551 v 3.601 z"
     id="path62"
     inkscape:connector-curvature="0" />
  <path
     d="m 409.061,425.109 h -48 c -6.6,0 -12,-5.4 -12,-12 v -52.75 c 0,-6.6 5.4,-12 12,-12 h 48 c 6.6,0 12,5.4 12,12 v 52.75 c 0,6.6 -5.4,12 -12,12 z"
     id="path64"
     inkscape:connector-curvature="0"
     style="fill:#282627" />
  <path
     d="m 407.311,425.109 h -44.964 c -6.6,0 -12,-5.4 -12,-12 v -46.112 c 0,-6.6 5.4,-12 12,-12 h 44.964 c 6.6,0 12,5.4 12,12 v 46.112 c 0,6.6 -5.4,12 -12,12 z"
     id="path66"
     inkscape:connector-curvature="0"
     style="fill:#939393" />
  <path
     d="m 407.793,425.109 h -44.964 c -6.6,0 -12,-5.4 -12,-12 v -39.75 c 0,-6.6 5.4,-12 12,-12 h 44.964 c 6.6,0 12,5.4 12,12 v 39.75 c 0,6.6 -5.4,12 -12,12 z"
     id="path68"
     inkscape:connector-curvature="0"
     style="fill:#b3b3b3" />
  <path
     d="m 376.36,404.434 c 1.25,0.801 4.101,2.051 7.201,2.051 5.65,0 7.4,-3.601 7.351,-6.301 -0.051,-4.55 -4.15,-6.5 -8.401,-6.5 h -2.45 v -3.3 h 2.45 c 3.2,0 7.251,-1.65 7.251,-5.501 0,-2.6 -1.65,-4.9 -5.7,-4.9 -2.601,0 -5.101,1.15 -6.501,2.15 l -1.149,-3.2 c 1.7,-1.25 5,-2.5 8.5,-2.5 6.4,0 9.351,3.8 9.351,7.75 0,3.4 -2.05,6.201 -6.05,7.701 v 0.1 c 4,0.75 7.25,3.75 7.25,8.301 0,5.2 -4.101,9.75 -11.851,9.75 -3.65,0 -6.851,-1.149 -8.45,-2.25 z"
     id="path70"
     inkscape:connector-curvature="0" />
  <path
     d="m 242.078,511.442 h -48 c -6.6,0 -12,-5.4 -12,-12 v -52.75 c 0,-6.6 5.4,-12 12,-12 h 48 c 6.6,0 12,5.4 12,12 v 52.75 c 0,6.6 -5.4,12 -12,12 z"
     id="path72"
     inkscape:connector-curvature="0"
     style="fill:#282627" />
  <path
     d="m 240.328,511.442 h -44.964 c -6.6,0 -12,-5.4 -12,-12 V 453.33 c 0,-6.6 5.4,-12 12,-12 h 44.964 c 6.6,0 12,5.4 12,12 v 46.112 c 0,6.6 -5.4,12 -12,12 z"
     id="path74"
     inkscape:connector-curvature="0"
     style="fill:#939393" />
  <path
     d="M 239.844,511.442 H 194.88 c -6.6,0 -12,-5.4 -12,-12 v -39.75 c 0,-6.6 5.4,-12 12,-12 h 44.964 c 6.6,0 12,5.4 12,12 v 39.75 c 0,6.6 -5.4,12 -12,12 z"
     id="path76"
     inkscape:connector-curvature="0"
     style="fill:#b3b3b3" />
  <path
     d="m 220.562,495.818 v -8.851 h -15.101 v -2.899 l 14.501,-20.752 h 4.75 v 20.251 h 4.551 v 3.4 h -4.551 v 8.851 z m 0,-12.251 v -10.9 c 0,-1.7 0.051,-3.4 0.15,-5.101 l -0.15,-0.05 c -1,1.95 -1.8,3.351 -2.7,4.851 l -7.95,11.101 v 0.1 h 10.65 z"
     id="path78"
     inkscape:connector-curvature="0" />
  <path
     d="m 325.694,511.442 h -48 c -6.6,0 -12,-5.4 -12,-12 v -52.75 c 0,-6.6 5.4,-12 12,-12 h 48 c 6.6,0 12,5.4 12,12 v 52.75 c 0,6.6 -5.4,12 -12,12 z"
     id="path80"
     inkscape:connector-curvature="0"
     style="fill:#282627" />
  <path
     d="M 323.944,511.442 H 278.98 c -6.6,0 -12,-5.4 -12,-12 V 453.33 c 0,-6.6 5.4,-12 12,-12 h 44.964 c 6.6,0 12,5.4 12,12 v 46.112 c 0,6.6 -5.4,12 -12,12 z"
     id="path82"
     inkscape:connector-curvature="0"
     style="fill:#939393" />
  <path
     d="m 324.176,511.442 h -44.964 c -6.6,0 -12,-5.4 -12,-12 v -39.75 c 0,-6.6 5.4,-12 12,-12 h 44.964 c 6.6,0 12,5.4 12,12 v 39.75 c 0,6.6 -5.4,12 -12,12 z"
     id="path84"
     inkscape:connector-curvature="0"
     style="fill:#b3b3b3" />
  <path
     d="m 311.145,466.742 h -12.4 l -1.251,8.351 c 0.751,-0.1 1.45,-0.2 2.65,-0.2 2.5,0 5.001,0.551 7.001,1.75 2.5,1.45 4.65,4.301 4.65,8.351 0,6.351 -5.051,11.101 -12.102,11.101 -3.55,0 -6.55,-1 -8.1,-2 l 1.1,-3.351 c 1.35,0.801 4,1.801 7,1.801 4.101,0 7.651,-2.7 7.651,-7.051 0,-4.2 -2.851,-7.2 -9.351,-7.2 -1.851,0 -3.301,0.2 -4.501,0.351 l 2.101,-15.602 h 15.551 v 3.699 z"
     id="path86"
     inkscape:connector-curvature="0" />
  <path
     d="m 409.311,511.442 h -48 c -6.6,0 -12,-5.4 -12,-12 v -52.75 c 0,-6.6 5.4,-12 12,-12 h 48 c 6.6,0 12,5.4 12,12 v 52.75 c 0,6.6 -5.4,12 -12,12 z"
     id="path88"
     inkscape:connector-curvature="0"
     style="fill:#282627" />
  <path
     d="m 407.561,511.442 h -44.964 c -6.6,0 -12,-5.4 -12,-12 V 453.33 c 0,-6.6 5.4,-12 12,-12 h 44.964 c 6.6,0 12,5.4 12,12 v 46.112 c 0,6.6 -5.4,12 -12,12 z"
     id="path90"
     inkscape:connector-curvature="0"
     style="fill:#939393" />
  <path
     d="m 407.793,511.442 h -44.964 c -6.6,0 -12,-5.4 -12,-12 v -39.75 c 0,-6.6 5.4,-12 12,-12 h 44.964 c 6.6,0 12,5.4 12,12 v 39.75 c 0,6.6 -5.4,12 -12,12 z"
     id="path92"
     inkscape:connector-curvature="0"
     style="fill:#b3b3b3" />
  <path
     d="m 393.261,466.398 c -0.949,0 -2,0 -3.3,0.25 -6.9,1.1 -10.551,6.15 -11.301,11.551 h 0.101 c 1.55,-2.15 4.3,-3.851 7.9,-3.851 5.75,0 9.801,4.2 9.801,10.551 0,5.95 -4.051,11.45 -10.852,11.45 -6.9,0 -11.45,-5.4 -11.45,-13.851 0,-6.351 2.25,-11.45 5.5,-14.65 2.7,-2.65 6.301,-4.301 10.401,-4.801 1.3,-0.2 2.35,-0.3 3.199,-0.25 v 3.601 z m -1.25,18.751 c 0,-4.65 -2.649,-7.45 -6.7,-7.45 -2.65,0 -5.15,1.649 -6.351,4 a 4.26,4.26 0 0 0 -0.449,1.9 c 0.1,5.399 2.55,9.4 7.15,9.4 3.8,10e-4 6.35,-3.199 6.35,-7.85 z"
     id="path94"
     inkscape:connector-curvature="0" />
  <path
     d="m 242.078,597.776 h -48 c -6.6,0 -12,-5.4 -12,-12 v -52.75 c 0,-6.6 5.4,-12 12,-12 h 48 c 6.6,0 12,5.4 12,12 v 52.75 c 0,6.6 -5.4,12 -12,12 z"
     id="path96"
     inkscape:connector-curvature="0"
     style="fill:#282627" />
  <path
     d="m 240.328,597.776 h -44.964 c -6.6,0 -12,-5.4 -12,-12 v -46.112 c 0,-6.6 5.4,-12 12,-12 h 44.964 c 6.6,0 12,5.4 12,12 v 46.112 c 0,6.6 -5.4,12 -12,12 z"
     id="path98"
     inkscape:connector-curvature="0"
     style="fill:#939393" />
  <path
     d="m 240.328,597.776 h -44.964 c -6.6,0 -12,-5.4 -12,-12 v -39.75 c 0,-6.6 5.4,-12 12,-12 h 44.964 c 6.6,0 12,5.4 12,12 v 39.75 c 0,6.6 -5.4,12 -12,12 z"
     id="path100"
     inkscape:connector-curvature="0"
     style="fill:#b3b3b3" />
  <path
     d="m 228.097,549.65 v 2.9 l -14.152,29.602 h -4.55 L 223.496,553.4 v -0.1 h -15.9 v -3.65 z"
     id="path102"
     inkscape:connector-curvature="0" />
  <path
     d="m 325.694,597.776 h -48 c -6.6,0 -12,-5.4 -12,-12 v -52.75 c 0,-6.6 5.4,-12 12,-12 h 48 c 6.6,0 12,5.4 12,12 v 52.75 c 0,6.6 -5.4,12 -12,12 z"
     id="path104"
     inkscape:connector-curvature="0"
     style="fill:#282627" />
  <path
     d="M 323.944,597.776 H 278.98 c -6.6,0 -12,-5.4 -12,-12 v -46.112 c 0,-6.6 5.4,-12 12,-12 h 44.964 c 6.6,0 12,5.4 12,12 v 46.112 c 0,6.6 -5.4,12 -12,12 z"
     id="path106"
     inkscape:connector-curvature="0"
     style="fill:#939393" />
  <path
     d="m 323.926,597.776 h -44.964 c -6.6,0 -12,-5.4 -12,-12 v -39.75 c 0,-6.6 5.4,-12 12,-12 h 44.964 c 6.6,0 12,5.4 12,12 v 39.75 c 0,6.6 -5.4,12 -12,12 z"
     id="path108"
     inkscape:connector-curvature="0"
     style="fill:#b3b3b3" />
  <path
     d="m 290.469,573.901 c 0,-4.05 2.449,-6.95 6.4,-8.7 v -0.2 c -3.601,-1.65 -5.201,-4.45 -5.201,-7.25 0,-5.101 4.4,-8.651 10.101,-8.651 6.301,0 9.451,3.951 9.451,8.001 0,2.75 -1.351,5.7 -5.351,7.601 v 0.149 c 4.051,1.551 6.551,4.501 6.551,8.401 0,5.7 -4.851,9.45 -11.101,9.45 -6.751,0 -10.85,-4.05 -10.85,-8.801 z m 17.501,-0.199 c 0,-3.9 -2.751,-5.851 -7.15,-7.051 -3.801,1.05 -5.851,3.6 -5.851,6.7 -0.15,3.25 2.35,6.15 6.5,6.15 3.95,10e-4 6.501,-2.45 6.501,-5.799 z M 295.868,557.45 c -0.05,3.251 2.45,5.001 6.201,6.001 2.8,-0.95 4.9,-2.95 4.9,-5.9 0,-2.601 -1.501,-5.301 -5.501,-5.301 -3.599,0 -5.6,2.4 -5.6,5.2 z"
     id="path110"
     inkscape:connector-curvature="0" />
  <path
     d="m 409.311,597.776 h -48 c -6.6,0 -12,-5.4 -12,-12 v -52.75 c 0,-6.6 5.4,-12 12,-12 h 48 c 6.6,0 12,5.4 12,12 v 52.75 c 0,6.6 -5.4,12 -12,12 z"
     id="path112"
     inkscape:connector-curvature="0"
     style="fill:#282627" />
  <path
     d="m 407.561,597.776 h -44.964 c -6.6,0 -12,-5.4 -12,-12 v -46.112 c 0,-6.6 5.4,-12 12,-12 h 44.964 c 6.6,0 12,5.4 12,12 v 46.112 c 0,6.6 -5.4,12 -12,12 z"
     id="path114"
     inkscape:connector-curvature="0"
     style="fill:#939393" />
  <path
     d="m 407.239,597.776 h -44.964 c -6.6,0 -12,-5.4 -12,-12 v -39.75 c 0,-6.6 5.4,-12 12,-12 h 44.964 c 6.6,0 12,5.4 12,12 v 39.75 c 0,6.6 -5.4,12 -12,12 z"
     id="path116"
     inkscape:connector-curvature="0"
     style="fill:#b3b3b3" />
  <path
     d="m 376.583,579.068 c 0.949,0.101 2.05,0 3.55,-0.149 2.5,-0.351 4.95,-1.4 6.801,-3.15 2.149,-1.95 3.7,-4.801 4.3,-8.65 h -0.15 c -1.85,2.25 -4.399,3.5 -7.7,3.5 -5.8,0 -9.551,-4.4 -9.551,-9.951 0,-6.15 4.45,-11.551 11.101,-11.551 6.651,0 10.751,5.4 10.751,13.701 0,7.15 -2.4,12.151 -5.601,15.251 -2.5,2.45 -5.95,3.95 -9.45,4.351 -1.601,0.25 -3.05,0.3 -4.05,0.25 v -3.602 z m 1.599,-18.652 c 0,4.001 2.45,6.9 6.301,6.9 2.899,0 5.2,-1.5 6.35,-3.45 0.2,-0.399 0.45,-0.85 0.45,-1.6 0,-5.551 -2.1,-9.801 -6.7,-9.801 -3.75,10e-4 -6.401,3.302 -6.401,7.951 z"
     id="path118"
     inkscape:connector-curvature="0" />
  <path
     d="m 242.078,690.109 h -48 c -6.6,0 -12,-5.4 -12,-12 v -52.75 c 0,-6.6 5.4,-12 12,-12 h 48 c 6.6,0 12,5.4 12,12 v 52.75 c 0,6.6 -5.4,12 -12,12 z"
     id="path120"
     inkscape:connector-curvature="0"
     style="fill:#282627" />
  <path
     d="m 240.328,690.109 h -44.964 c -6.6,0 -12,-5.4 -12,-12 v -46.112 c 0,-6.6 5.4,-12 12,-12 h 44.964 c 6.6,0 12,5.4 12,12 v 46.112 c 0,6.6 -5.4,12 -12,12 z"
     id="path122"
     inkscape:connector-curvature="0"
     style="fill:#2f3133" />
  <path
     d="m 240.328,690.109 h -44.964 c -6.6,0 -12,-5.4 -12,-12 v -39.75 c 0,-6.6 5.4,-12 12,-12 h 44.964 c 6.6,0 12,5.4 12,12 v 39.75 c 0,6.6 -5.4,12 -12,12 z"
     id="path124"
     inkscape:connector-curvature="0"
     style="fill:#36393b" />
  <path
     d="m 220.646,643.999 -1.611,11.948 0.116,0.202 9.368,-7.2 2.638,4.569 -10.842,4.646 0.077,0.134 11.143,4.407 -2.809,4.756 -9.527,-7.039 -0.134,0.077 1.101,11.994 -5.225,-0.208 1.65,-11.881 -0.078,-0.134 -9.205,7.017 -2.638,-4.568 10.546,-4.387 -0.011,-0.174 -11.047,-4.55 2.74,-4.717 9.518,6.866 0.134,-0.077 -1.292,-11.705 z"
     id="path126"
     inkscape:connector-curvature="0"
     style="fill:#f4f4f4" />
  <path
     d="m 325.694,690.109 h -48 c -6.6,0 -12,-5.4 -12,-12 v -52.75 c 0,-6.6 5.4,-12 12,-12 h 48 c 6.6,0 12,5.4 12,12 v 52.75 c 0,6.6 -5.4,12 -12,12 z"
     id="path128"
     inkscape:connector-curvature="0"
     style="fill:#282627" />
  <path
     d="M 323.944,690.109 H 278.98 c -6.6,0 -12,-5.4 -12,-12 v -46.112 c 0,-6.6 5.4,-12 12,-12 h 44.964 c 6.6,0 12,5.4 12,12 v 46.112 c 0,6.6 -5.4,12 -12,12 z"
     id="path130"
     inkscape:connector-curvature="0"
     style="fill:#939393" />
  <path
     d="m 324.176,690.109 h -44.964 c -6.6,0 -12,-5.4 -12,-12 v -39.75 c 0,-6.6 5.4,-12 12,-12 h 44.964 c 6.6,0 12,5.4 12,12 v 39.75 c 0,6.6 -5.4,12 -12,12 z"
     id="path132"
     inkscape:connector-curvature="0"
     style="fill:#b3b3b3" />
  <path
     d="m 312.72,657.884 c 0,11.05 -4.101,17.15 -11.301,17.15 -6.351,0 -10.65,-5.95 -10.751,-16.7 0,-10.901 4.7,-16.901 11.301,-16.901 6.851,0 10.751,6.101 10.751,16.451 z m -17.651,0.5 c 0,8.45 2.601,13.25 6.601,13.25 4.5,0 6.65,-5.25 6.65,-13.55 0,-8.001 -2.05,-13.201 -6.601,-13.201 -3.849,0 -6.65,4.651 -6.65,13.501 z"
     id="path134"
     inkscape:connector-curvature="0" />
  <path
     d="m 408.261,690.109 h -48 c -6.6,0 -12,-5.4 -12,-12 v -52.75 c 0,-6.6 5.4,-12 12,-12 h 48 c 6.6,0 12,5.4 12,12 v 52.75 c 0,6.6 -5.4,12 -12,12 z"
     id="path136"
     inkscape:connector-curvature="0"
     style="fill:#282627" />
  <path
     d="m 406.511,690.109 h -44.964 c -6.6,0 -12,-5.4 -12,-12 v -46.112 c 0,-6.6 5.4,-12 12,-12 h 44.964 c 6.6,0 12,5.4 12,12 v 46.112 c 0,6.6 -5.4,12 -12,12 z"
     id="path138"
     inkscape:connector-curvature="0"
     style="fill:#2f3133" />
  <path
     d="m 406.511,690.109 h -44.964 c -6.6,0 -12,-5.4 -12,-12 v -39.75 c 0,-6.6 5.4,-12 12,-12 h 44.964 c 6.6,0 12,5.4 12,12 v 39.75 c 0,6.6 -5.4,12 -12,12 z"
     id="path140"
     inkscape:connector-curvature="0"
     style="fill:#36393b" />
  <path
     d="m 376.254,674.485 1.3,-9.801 h -4.1 v -2.95 h 4.55 l 1,-7.25 h -4.351 v -2.95 h 4.751 l 1.3,-9.551 h 2.9 l -1.25,9.551 h 5.2 l 1.3,-9.551 h 2.95 l -1.25,9.551 h 4.05 v 2.95 h -4.5 l -0.899,7.25 h 4.3 v 2.95 h -4.75 l -1.301,9.801 h -3 l 1.3,-9.801 h -5.2 l -1.3,9.801 z m 9.95,-12.751 0.95,-7.25 h -5.2 l -0.95,7.25 z"
     id="path142"
     inkscape:connector-curvature="0"
     style="fill:#f4f4f4" />
  <path
     d="m 165.778,252.75 h 1.5 v 2.75 h -1.5 z m 270.333,0 h 1.5 v 2.75 h -1.5 z"
     id="path144"
     inkscape:connector-curvature="0"
     style="fill:#282828" />
  <path
     d="M 360.611,226.5 H 242.778 c -6.6,0 -12,-5.4 -12,-12 v -6 c 0,-6.6 5.4,-12 12,-12 h 117.833 c 6.6,0 12,5.4 12,12 v 6 c 0,6.6 -5.4,12 -12,12 z"
     id="path146"
     inkscape:connector-curvature="0"
     style="fill:#1c1c1c" />
  <path
     d="m 283.556,220.933 v -18.84 h 5.998 v 13.373 h 11.35 v 5.467 z"
     id="path148"
     inkscape:connector-curvature="0"
     style="fill:#232323" />
  <path
     d="m 289.054,215.966 h 11.35 v 4.467 h -16.348 v -17.84 h 4.998 z"
     id="path150"
     inkscape:connector-curvature="0"
     style="fill:#0e0e0e" />
  <path
     d="m 301.503,220.933 v -18.84 h 18.728 v 5.066 h -12.73 v 2.049 h 11.843 v 4.53 h -11.843 v 2.156 h 12.73 v 5.039 z"
     id="path152"
     inkscape:connector-curvature="0"
     style="fill:#232323" />
  <path
     d="m 302.003,202.593 h 17.727 v 4.066 h -12.729 v 3.049 h 11.843 v 3.53 h -11.843 v 3.156 h 12.729 v 4.039 h -17.727 z"
     id="path154"
     inkscape:connector-curvature="0"
     style="fill:#0e0e0e" />
  <path
     d="m 265.369,220.638 c -3.036,0 -5.506,-2.646 -5.506,-5.9 v -6.771 c 0,-3.253 2.47,-5.9 5.506,-5.9 h 12.237 c 3.036,0 5.506,2.647 5.506,5.9 v 6.771 c 0,3.253 -2.47,5.9 -5.506,5.9 z m 2.424,-13.571 c -1.301,0 -2.36,1.16 -2.36,2.586 v 3.4 c 0,1.426 1.059,2.585 2.36,2.585 h 7.39 c 1.302,0 2.361,-1.16 2.361,-2.585 v -3.4 c 0,-1.426 -1.059,-2.586 -2.361,-2.586 z"
     id="path156"
     inkscape:connector-curvature="0"
     style="fill:#232323" />
  <path
     d="m 277.606,202.567 h -12.237 c -2.765,0 -5.006,2.418 -5.006,5.4 v 6.771 c 0,2.982 2.241,5.4 5.006,5.4 h 12.237 c 2.765,0 5.006,-2.418 5.006,-5.4 v -6.771 c 0,-2.982 -2.241,-5.4 -5.006,-5.4 z m 0.437,10.486 c 0,1.704 -1.281,3.086 -2.861,3.086 h -7.39 c -1.58,0 -2.861,-1.382 -2.861,-3.086 v -3.4 c 0,-1.704 1.281,-3.086 2.861,-3.086 h 7.39 c 1.58,0 2.861,1.382 2.861,3.086 z"
     id="path158"
     inkscape:connector-curvature="0"
     style="fill:#0e0e0e" />
  <path
     d="m 242.7,220.638 c -2.899,0 -5.257,-2.646 -5.257,-5.9 v -6.771 c 0,-3.253 2.358,-5.9 5.257,-5.9 h 11.627 c 2.898,0 5.257,2.647 5.257,5.9 v 1.457 h -5.325 l -0.084,-0.396 c -0.247,-1.155 -1.131,-1.962 -2.15,-1.962 h -7.022 c -1.223,0 -2.218,1.16 -2.218,2.586 v 3.4 c 0,1.426 0.995,2.585 2.218,2.585 h 7.022 c 1.019,0 1.903,-0.807 2.15,-1.961 l 0.084,-0.396 h 5.325 v 1.457 c 0,3.253 -2.358,5.9 -5.257,5.9 H 242.7 Z"
     id="path160"
     inkscape:connector-curvature="0"
     style="fill:#232323" />
  <path
     d="m 254.664,213.781 c -0.289,1.352 -1.359,2.357 -2.639,2.357 h -7.022 c -1.501,0 -2.718,-1.382 -2.718,-3.086 v -3.4 c 0,-1.704 1.217,-3.086 2.718,-3.086 h 7.022 c 1.28,0 2.35,1.005 2.639,2.357 h 4.421 v -0.957 c 0,-2.982 -2.13,-5.4 -4.757,-5.4 H 242.7 c -2.627,0 -4.757,2.418 -4.757,5.4 v 6.771 c 0,2.982 2.13,5.4 4.757,5.4 h 11.628 c 2.627,0 4.757,-2.418 4.757,-5.4 v -0.957 h -4.421 z"
     id="path162"
     inkscape:connector-curvature="0"
     style="fill:#0e0e0e" />
  <path
     d="m 348.203,220.638 c -3.036,0 -5.507,-2.646 -5.507,-5.9 v -6.771 c 0,-3.253 2.471,-5.9 5.507,-5.9 h 12.236 c 3.036,0 5.506,2.647 5.506,5.9 v 6.771 c 0,3.253 -2.47,5.9 -5.506,5.9 z m 2.423,-13.571 c -1.302,0 -2.36,1.16 -2.36,2.586 v 3.4 c 0,1.426 1.059,2.585 2.36,2.585 h 7.39 c 1.302,0 2.361,-1.16 2.361,-2.585 v -3.4 c 0,-1.426 -1.06,-2.586 -2.361,-2.586 z"
     id="path164"
     inkscape:connector-curvature="0"
     style="fill:#232323" />
  <path
     d="m 360.439,202.567 h -12.237 c -2.765,0 -5.006,2.418 -5.006,5.4 v 6.771 c 0,2.982 2.241,5.4 5.006,5.4 h 12.237 c 2.765,0 5.006,-2.418 5.006,-5.4 v -6.771 c 0.001,-2.982 -2.241,-5.4 -5.006,-5.4 z m 0.438,10.486 c 0,1.704 -1.281,3.086 -2.861,3.086 h -7.39 c -1.58,0 -2.861,-1.382 -2.861,-3.086 v -3.4 c 0,-1.704 1.281,-3.086 2.861,-3.086 h 7.39 c 1.58,0 2.861,1.382 2.861,3.086 z"
     id="path166"
     inkscape:connector-curvature="0"
     style="fill:#0e0e0e" />
  <path
     d="m 325.533,220.638 c -2.898,0 -5.257,-2.646 -5.257,-5.9 v -6.771 c 0,-3.253 2.358,-5.9 5.257,-5.9 h 11.628 c 2.898,0 5.257,2.647 5.257,5.9 v 1.457 h -5.325 l -0.085,-0.396 c -0.247,-1.155 -1.131,-1.962 -2.149,-1.962 h -7.022 c -1.223,0 -2.218,1.16 -2.218,2.586 v 3.4 c 0,1.426 0.995,2.585 2.218,2.585 h 7.022 c 1.019,0 1.902,-0.807 2.149,-1.961 l 0.085,-0.396 h 5.325 v 1.457 c 0,3.253 -2.358,5.9 -5.257,5.9 h -11.628 z"
     id="path168"
     inkscape:connector-curvature="0"
     style="fill:#232323" />
  <path
     d="m 337.497,213.781 c -0.289,1.352 -1.359,2.357 -2.639,2.357 h -7.022 c -1.501,0 -2.718,-1.382 -2.718,-3.086 v -3.4 c 0,-1.704 1.217,-3.086 2.718,-3.086 h 7.022 c 1.28,0 2.35,1.005 2.639,2.357 h 4.421 v -0.957 c 0,-2.982 -2.13,-5.4 -4.757,-5.4 h -11.628 c -2.627,0 -4.757,2.418 -4.757,5.4 v 6.771 c 0,2.982 2.13,5.4 4.757,5.4 h 11.628 c 2.627,0 4.757,-2.418 4.757,-5.4 v -0.957 h -4.421 z"
     id="path170"
     inkscape:connector-curvature="0"
     style="fill:#0e0e0e" />
  <ellipse
     cx="301.77802"
     cy="80.569"
     rx="2.4530001"
     ry="2.4000001"
     id="ellipse172"
     style="fill:#666666" />
  <path
     d="m 301.778,78.169 v 0.5 c 1.087,0.001 1.951,0.859 1.953,1.9 -0.002,1.041 -0.866,1.899 -1.953,1.9 -1.087,-10e-4 -1.951,-0.859 -1.953,-1.9 0.002,-1.041 0.866,-1.9 1.953,-1.9 v -1 c -1.623,0.003 -2.951,1.29 -2.953,2.9 0.002,1.61 1.33,2.897 2.953,2.9 1.623,-0.003 2.951,-1.29 2.953,-2.9 -0.002,-1.61 -1.33,-2.897 -2.953,-2.9 z"
     id="path174"
     inkscape:connector-curvature="0"
     style="fill:#666666" />
  <ellipse
     cx="153.944"
     cy="208.60201"
     rx="2.4530001"
     ry="2.4000001"
     id="ellipse176"
     style="fill:#666666" />
  <path
     d="m 153.944,206.202 v 0.5 c 1.087,0.001 1.951,0.859 1.953,1.9 -0.002,1.041 -0.866,1.9 -1.953,1.9 -1.087,-0.001 -1.951,-0.859 -1.953,-1.9 0.002,-1.041 0.866,-1.9 1.953,-1.9 v -1 c -1.623,0.003 -2.951,1.29 -2.953,2.9 0.002,1.61 1.33,2.897 2.953,2.9 1.623,-0.003 2.951,-1.29 2.953,-2.9 -0.002,-1.61 -1.33,-2.897 -2.953,-2.9 z"
     id="path178"
     inkscape:connector-curvature="0"
     style="fill:#666666" />
  <ellipse
     cx="449.61099"
     cy="208.60201"
     rx="2.4530001"
     ry="2.4000001"
     id="ellipse180"
     style="fill:#666666" />
  <path
     d="m 449.611,206.202 v 0.5 c 1.087,0.001 1.951,0.859 1.953,1.9 -0.002,1.041 -0.866,1.9 -1.953,1.9 -1.087,-0.001 -1.951,-0.859 -1.953,-1.9 0.002,-1.041 0.866,-1.9 1.953,-1.9 v -1 c -1.623,0.003 -2.951,1.29 -2.953,2.9 0.002,1.61 1.33,2.897 2.953,2.9 1.623,-0.003 2.951,-1.29 2.953,-2.9 -0.002,-1.61 -1.33,-2.897 -2.953,-2.9 z m -295.667,2.366 -17.935,0.068 m 17.933,-0.635 -17.935,0.068 0.004,1.133 17.936,-0.067 m 313.6,-0.294 -17.936,0.068"
     id="path182"
     inkscape:connector-curvature="0"
     style="fill:#666666" />
  <path
     d="m 467.544,208.274 -17.935,0.068 0.005,1.133 17.935,-0.067"
     id="path184"
     inkscape:connector-curvature="0"
     style="fill:#666666" />
  <ellipse
     cx="217.84599"
     cy="390.05301"
     rx="2.4530001"
     ry="2.4000001"
     id="ellipse186"
     style="fill:#666666" />
  <path
     d="m 217.846,387.653 v 0.5 c 1.087,10e-4 1.951,0.859 1.953,1.9 -0.002,1.041 -0.866,1.9 -1.953,1.9 -1.087,-10e-4 -1.951,-0.859 -1.953,-1.9 0.002,-1.041 0.866,-1.9 1.953,-1.9 v -1 c -1.623,0.003 -2.951,1.29 -2.953,2.9 0.002,1.61 1.33,2.897 2.953,2.9 1.623,-0.003 2.951,-1.29 2.953,-2.9 -0.002,-1.61 -1.33,-2.897 -2.953,-2.9 z"
     id="path188"
     inkscape:connector-curvature="0"
     style="fill:#666666" />
  <ellipse
     cx="301.21301"
     cy="390.05301"
     rx="2.4530001"
     ry="2.4000001"
     id="ellipse190"
     style="fill:#666666" />
  <path
     d="m 301.213,387.653 v 0.5 c 1.087,10e-4 1.951,0.859 1.953,1.9 -0.002,1.041 -0.866,1.9 -1.953,1.9 -1.087,-10e-4 -1.951,-0.859 -1.953,-1.9 0.002,-1.041 0.866,-1.9 1.953,-1.9 v -1 c -1.623,0.003 -2.951,1.29 -2.953,2.9 0.002,1.61 1.33,2.897 2.953,2.9 1.623,-0.003 2.951,-1.29 2.953,-2.9 -0.002,-1.61 -1.33,-2.897 -2.953,-2.9 z"
     id="path192"
     inkscape:connector-curvature="0"
     style="fill:#666666" />
  <ellipse
     cx="384.82901"
     cy="390.23401"
     rx="2.4530001"
     ry="2.4000001"
     id="ellipse194"
     style="fill:#666666" />
  <path
     d="m 384.829,387.834 v 0.5 c 1.087,10e-4 1.951,0.859 1.953,1.9 -0.002,1.041 -0.866,1.9 -1.953,1.9 -1.087,-0.001 -1.951,-0.859 -1.953,-1.9 0.002,-1.041 0.866,-1.9 1.953,-1.9 v -1 c -1.623,0.003 -2.951,1.29 -2.953,2.9 0.002,1.61 1.33,2.897 2.953,2.9 1.623,-0.003 2.951,-1.29 2.953,-2.9 -0.002,-1.61 -1.33,-2.897 -2.953,-2.9 z"
     id="path196"
     inkscape:connector-curvature="0"
     style="fill:#666666" />
  <ellipse
     cx="217.84599"
     cy="476.38599"
     rx="2.4530001"
     ry="2.4000001"
     id="ellipse198"
     style="fill:#666666" />
  <path
     d="m 217.846,473.986 v 0.5 c 1.087,0.001 1.951,0.859 1.953,1.9 -0.002,1.041 -0.866,1.9 -1.953,1.9 -1.087,-10e-4 -1.951,-0.859 -1.953,-1.9 0.002,-1.041 0.866,-1.9 1.953,-1.9 v -1 c -1.623,0.003 -2.951,1.29 -2.953,2.9 0.002,1.61 1.33,2.897 2.953,2.9 1.623,-0.003 2.951,-1.29 2.953,-2.9 -0.002,-1.61 -1.33,-2.897 -2.953,-2.9 z"
     id="path200"
     inkscape:connector-curvature="0"
     style="fill:#666666" />
  <ellipse
     cx="301.86099"
     cy="476.38599"
     rx="2.4530001"
     ry="2.4000001"
     id="ellipse202"
     style="fill:#666666" />
  <path
     d="m 301.861,473.986 v 0.5 c 1.087,0.001 1.951,0.859 1.953,1.9 -0.002,1.041 -0.866,1.9 -1.953,1.9 -1.087,-10e-4 -1.951,-0.859 -1.953,-1.9 0.002,-1.041 0.866,-1.9 1.953,-1.9 v -1 c -1.623,0.003 -2.951,1.29 -2.953,2.9 0.002,1.61 1.33,2.897 2.953,2.9 1.623,-0.003 2.951,-1.29 2.953,-2.9 -0.002,-1.61 -1.33,-2.897 -2.953,-2.9 z"
     id="path204"
     inkscape:connector-curvature="0"
     style="fill:#666666" />
  <ellipse
     cx="385.311"
     cy="476.38599"
     rx="2.4530001"
     ry="2.4000001"
     id="ellipse206"
     style="fill:#666666" />
  <path
     d="m 385.311,473.986 v 0.5 c 1.087,0.001 1.951,0.859 1.953,1.9 -0.002,1.041 -0.866,1.9 -1.953,1.9 -1.087,-10e-4 -1.951,-0.859 -1.953,-1.9 0.002,-1.041 0.866,-1.9 1.953,-1.9 v -1 c -1.623,0.003 -2.951,1.29 -2.953,2.9 0.002,1.61 1.33,2.897 2.953,2.9 1.623,-0.003 2.951,-1.29 2.953,-2.9 -0.002,-1.61 -1.33,-2.897 -2.953,-2.9 z"
     id="path208"
     inkscape:connector-curvature="0"
     style="fill:#666666" />
  <ellipse
     cx="218.078"
     cy="562.71997"
     rx="2.4530001"
     ry="2.4000001"
     id="ellipse210"
     style="fill:#666666" />
  <path
     d="m 218.078,560.32 v 0.5 c 1.087,10e-4 1.951,0.859 1.953,1.9 -0.002,1.041 -0.866,1.9 -1.953,1.9 -1.087,-10e-4 -1.951,-0.859 -1.953,-1.9 0.002,-1.041 0.866,-1.9 1.953,-1.9 v -1 c -1.623,0.003 -2.951,1.29 -2.953,2.9 0.002,1.61 1.33,2.897 2.953,2.9 1.623,-0.003 2.951,-1.29 2.953,-2.9 -0.002,-1.61 -1.33,-2.897 -2.953,-2.9 z"
     id="path212"
     inkscape:connector-curvature="0"
     style="fill:#666666" />
  <ellipse
     cx="301.41901"
     cy="562.71997"
     rx="2.4530001"
     ry="2.4000001"
     id="ellipse214"
     style="fill:#666666" />
  <path
     d="m 301.419,560.32 v 0.5 c 1.087,10e-4 1.951,0.859 1.953,1.9 -0.002,1.041 -0.866,1.9 -1.953,1.9 -1.087,-10e-4 -1.951,-0.859 -1.953,-1.9 0.002,-1.041 0.866,-1.9 1.953,-1.9 v -1 c -1.623,0.003 -2.951,1.29 -2.953,2.9 0.002,1.61 1.33,2.897 2.953,2.9 1.623,-0.003 2.951,-1.29 2.953,-2.9 -0.002,-1.61 -1.33,-2.897 -2.953,-2.9 z"
     id="path216"
     inkscape:connector-curvature="0"
     style="fill:#666666" />
  <ellipse
     cx="217.84599"
     cy="655.21899"
     rx="2.4530001"
     ry="2.4000001"
     id="ellipse218"
     style="fill:#666666" />
  <path
     d="m 217.846,652.819 v 0.5 c 1.087,0.001 1.951,0.859 1.953,1.9 -0.002,1.041 -0.866,1.9 -1.953,1.9 -1.087,-10e-4 -1.951,-0.859 -1.953,-1.9 0.002,-1.041 0.866,-1.899 1.953,-1.9 v -1 c -1.623,0.003 -2.951,1.29 -2.953,2.9 0.002,1.61 1.33,2.897 2.953,2.9 1.623,-0.003 2.951,-1.29 2.953,-2.9 -0.002,-1.61 -1.33,-2.897 -2.953,-2.9 z"
     id="path220"
     inkscape:connector-curvature="0"
     style="fill:#666666" />
  <ellipse
     cx="384.02899"
     cy="655.21899"
     rx="2.4530001"
     ry="2.4000001"
     id="ellipse222"
     style="fill:#666666" />
  <path
     d="m 384.029,652.819 v 0.5 c 1.087,0.001 1.951,0.859 1.953,1.9 -0.002,1.041 -0.866,1.9 -1.953,1.9 -1.087,-10e-4 -1.951,-0.859 -1.953,-1.9 0.002,-1.041 0.866,-1.899 1.953,-1.9 v -1 c -1.623,0.003 -2.951,1.29 -2.953,2.9 0.002,1.61 1.33,2.897 2.953,2.9 1.623,-0.003 2.951,-1.29 2.953,-2.9 -0.002,-1.61 -1.33,-2.897 -2.953,-2.9 z M 301.778,80.569 136.009,80.637 M 301.778,80.003 136.009,80.07 v 1.134 l 165.769,-0.068 m -84.182,308.883 -81.587,0.068 m 81.587,-0.634 -81.587,0.067 0.001,1.134 81.587,-0.068 m 83.582,-52.833 0.067,52.481 m -0.634,-52.48 0.068,52.481 1.133,-0.002 -0.068,-52.48 m 164.671,52.447 -81.587,0.068 m 81.587,-0.635 -81.587,0.068 10e-4,1.133 81.587,-0.067 m -81.658,117.275 h 82.788 v -1.133 h -82.788 m -167.204,-30.556 -81.587,0.067 m 81.587,-0.634 -81.587,0.068 0.001,1.133 81.587,-0.068 m 167.721,-0.533 0.068,31.09"
     id="path224"
     inkscape:connector-curvature="0"
     style="fill:#666666" />
  <path
     d="m 384.71,476.388 0.068,31.089 1.133,-0.003 -0.067,-31.089 m -84.535,-30.521 h 166.238 v -1.133 H 301.309 m 0.586,0.566 -0.068,31.089"
     id="path226"
     inkscape:connector-curvature="0"
     style="fill:#666666" />
  <path
     d="m 301.328,445.296 -0.067,31.089 1.133,0.003 0.068,-31.09 m 165.085,117.422 -166.081,0.067 m 166.08,-0.634 -166.08,0.068 v 1.133 l 166.081,-0.068 m -249.469,-0.566 -82.069,0.067 m 82.068,-0.634 -82.068,0.068 0.001,1.133 82.068,-0.068 m -0.232,91.767 -81.837,0.068 m 81.837,-0.635 -81.837,0.068 0.001,1.133 81.837,-0.067 m 166.182,0.166 h 83.518 v -1.134 h -83.518"
     id="path228"
     inkscape:connector-curvature="0"
     style="fill:#666666" />
  <path
     d="M 132.19,369.724 H 61.227 a 3.78,3.78 0 0 0 -3.779,3.779 v 34.631 a 3.78,3.78 0 0 0 3.779,3.779 h 70.963 a 3.778,3.778 0 0 0 3.778,-3.779 v -34.631 a 3.778,3.778 0 0 0 -3.778,-3.779"
     id="path230"
     inkscape:connector-curvature="0"
     style="fill:#f4f4f4" />
  <path
     d="m 61.227,369.724 v 0.998 h 70.963 a 2.784,2.784 0 0 1 2.78,2.78 v 34.631 a 2.784,2.784 0 0 1 -2.78,2.78 H 61.227 a 2.784,2.784 0 0 1 -2.78,-2.78 v -34.631 a 2.784,2.784 0 0 1 2.78,-2.78 v -1.996 a 4.778,4.778 0 0 0 -4.777,4.777 v 34.631 a 4.778,4.778 0 0 0 4.777,4.777 h 70.963 a 4.778,4.778 0 0 0 4.777,-4.777 v -34.631 a 4.778,4.778 0 0 0 -4.777,-4.777 H 61.227 Z"
     id="path232"
     inkscape:connector-curvature="0"
     style="fill:#35495e" />
  <path
     d="m 114.514,388.736 3.714,-5.939 h 2.405 l -4.895,7.684 5.012,7.812 h -2.426 l -3.81,-6.045 -3.832,6.045 h -2.416 l 5.024,-7.812 -4.907,-7.684 h 2.395 z"
     id="path234"
     inkscape:connector-curvature="0"
     style="fill:#35495e" />
  <defs
     id="defs237">
    <path
       id="a"
       d="m 59.199,372.108 h 38.109 v 38.109 H 59.199 v -38.109"
       inkscape:connector-curvature="0" />
  </defs>
  <clipPath
     id="b">
    <use
       xlink:href="#a"
       overflow="visible"
       id="use239"
       style="overflow:visible"
       x="0"
       y="0"
       width="100%"
       height="100%" />
  </clipPath>
  <path
     clip-path="url(#b)"
     d="m 90.285,395.704 a 5.2640001,5.2640001 0 1 1 0.002,-10.528 5.2640001,5.2640001 0 0 1 -0.002,10.528 M 79.21,387.07 a 5.2635,5.2635 0 1 1 0,-10.527 5.2635,5.2635 0 0 1 0,10.527 m -1.896,18.831 a 5.263,5.263 0 1 1 0,-10.526 5.263,5.263 0 0 1 0,10.526 m -10.94,-8.854 a 5.263,5.263 0 1 1 0,-10.526 5.263,5.263 0 0 1 0,10.526 m 11.952,-24.939 c -10.505,0 -19.021,8.515 -19.021,19.021 0,10.505 8.516,19.021 19.021,19.021 10.505,0 19.021,-8.516 19.021,-19.021 0,-10.506 -8.516,-19.021 -19.021,-19.021"
     id="path242"
     inkscape:connector-curvature="0"
     style="fill:#35495e" />
  <path
     clip-path="url(#b)"
     d="m 94.042,390.441 a 3.7570001,3.7570001 0 1 1 -7.514,0.002 3.7570001,3.7570001 0 0 1 7.514,-0.002 m -13.007,10.198 a 3.721,3.721 0 1 1 -7.442,0 3.721,3.721 0 0 1 7.442,0 m -10.742,-8.855 a 3.921,3.921 0 1 1 -7.842,0 3.921,3.921 0 0 1 7.842,0"
     id="path244"
     inkscape:connector-curvature="0"
     style="fill:#35495e" />
  <path
     d="m 544.602,368.964 h -73.278 a 3.778,3.778 0 0 0 -3.778,3.778 v 34.623 a 3.778,3.778 0 0 0 3.778,3.778 h 73.278 a 3.778,3.778 0 0 0 3.778,-3.778 v -34.623 a 3.778,3.778 0 0 0 -3.778,-3.778"
     id="path246"
     inkscape:connector-curvature="0"
     style="fill:#f4f4f4" />
  <path
     d="m 471.324,368.964 v 1.013 h 73.277 a 2.769,2.769 0 0 1 2.765,2.765 v 34.623 a 2.769,2.769 0 0 1 -2.765,2.765 h -73.277 a 2.769,2.769 0 0 1 -2.765,-2.765 v -34.623 a 2.769,2.769 0 0 1 2.765,-2.765 v -2.026 a 4.79,4.79 0 0 0 -4.79,4.79 v 34.623 a 4.79,4.79 0 0 0 4.79,4.79 h 73.277 a 4.79,4.79 0 0 0 4.79,-4.79 v -34.623 a 4.79,4.79 0 0 0 -4.79,-4.79 h -73.277 z"
     id="path248"
     inkscape:connector-curvature="0"
     style="fill:#35495e" />
  <path
     d="m 525.047,391.351 h -3.64 v 6.269 h -2.054 v -15.496 h 5.13 c 1.745,0 3.086,0.397 4.023,1.192 0.944,0.795 1.416,1.951 1.416,3.47 0,0.965 -0.263,1.806 -0.788,2.522 -0.518,0.717 -1.242,1.252 -2.171,1.607 l 3.64,6.577 v 0.128 h -2.193 z m -3.64,-1.671 h 3.14 c 1.015,0 1.82,-0.263 2.416,-0.788 0.603,-0.525 0.905,-1.228 0.905,-2.107 0,-0.958 -0.287,-1.692 -0.862,-2.203 -0.568,-0.511 -1.391,-0.77 -2.469,-0.777 h -3.129 v 5.875 z m 17.327,7.939 h -1.98 v -13.123 l -3.97,1.459 v -1.788 l 5.641,-2.118 h 0.309 z m -52.108,-10.031 h 1.691 c 0.686,0 1.062,0.297 1.062,0.972 0,0.71 -0.377,1.008 -1.062,1.008 h -1.691 z m -1.54,5.824 h 1.54 v -2.744 h 1.545 c 0.776,0 1.062,0.325 1.169,1.063 0.078,0.56 0.058,1.24 0.245,1.682 h 1.541 c -0.275,-0.394 -0.265,-1.217 -0.298,-1.662 -0.049,-0.707 -0.261,-1.446 -1.017,-1.643 0,0 1.109,-0.288 1.109,-1.781 0,-1.063 -0.797,-1.936 -2.054,-1.936 h -3.783 z"
     id="path250"
     inkscape:connector-curvature="0"
     style="fill:#35495e" />
  <path
     d="m 498.302,383.252 c 3.307,0 5.996,2.985 5.996,6.651 0,3.675 -2.69,6.666 -5.996,6.666 h -20.435 c -3.282,-0.029 -5.951,-3.02 -5.951,-6.666 0,-3.638 2.67,-6.623 5.939,-6.651 h 20.447 m 0,-1.426 h -20.447 c -4.07,0.035 -7.365,3.632 -7.365,8.077 0,4.448 3.295,8.055 7.365,8.092 h 20.447 c 4.1,0 7.422,-3.624 7.422,-8.092 0,-4.467 -3.323,-8.077 -7.422,-8.077 z"
     id="path252"
     inkscape:connector-curvature="0"
     style="fill:#35495e" />
  <path
     d="m 545.357,541.632 h -74.022 a 3.777,3.777 0 0 0 -3.777,3.777 v 34.621 a 3.777,3.777 0 0 0 3.777,3.777 h 74.022 a 3.777,3.777 0 0 0 3.777,-3.777 v -34.62 a 3.777,3.777 0 0 0 -3.777,-3.778"
     id="path254"
     inkscape:connector-curvature="0"
     style="fill:#f4f4f4" />
  <path
     d="m 471.335,541.632 v 1.017 h 74.021 a 2.764,2.764 0 0 1 2.76,2.76 v 34.621 a 2.764,2.764 0 0 1 -2.76,2.76 h -74.021 a 2.764,2.764 0 0 1 -2.76,-2.76 v -34.621 a 2.764,2.764 0 0 1 2.76,-2.76 v -2.034 a 4.796,4.796 0 0 0 -4.795,4.795 v 34.621 a 4.796,4.796 0 0 0 4.795,4.795 h 74.021 a 4.796,4.796 0 0 0 4.795,-4.795 V 545.41 a 4.796,4.796 0 0 0 -4.795,-4.795 h -74.021 z"
     id="path256"
     inkscape:connector-curvature="0"
     style="fill:#35495e" />
  <path
     d="m 521.615,568.524 h 7.344 v 1.671 h -9.398 v -15.496 h 2.054 z m 12.048,-7.035 h 1.479 c 0.93,-0.014 1.66,-0.259 2.193,-0.734 0.532,-0.475 0.798,-1.117 0.798,-1.926 0,-1.816 -0.905,-2.725 -2.714,-2.725 -0.851,0 -1.533,0.245 -2.043,0.734 -0.504,0.482 -0.756,1.125 -0.756,1.926 h -1.969 c 0,-1.227 0.447,-2.246 1.341,-3.055 0.901,-0.816 2.043,-1.224 3.427,-1.224 1.462,0 2.608,0.387 3.438,1.16 0.83,0.773 1.245,1.848 1.245,3.225 0,0.674 -0.22,1.327 -0.66,1.958 -0.433,0.631 -1.025,1.103 -1.777,1.416 0.851,0.27 1.508,0.717 1.969,1.341 0.468,0.624 0.702,1.387 0.702,2.288 0,1.391 -0.454,2.494 -1.362,3.31 -0.908,0.816 -2.09,1.224 -3.544,1.224 -1.455,0 -2.639,-0.394 -3.555,-1.181 -0.908,-0.788 -1.362,-1.827 -1.362,-3.118 h 1.98 c 0,0.816 0.266,1.469 0.798,1.958 0.532,0.49 1.245,0.734 2.139,0.734 0.951,0 1.678,-0.248 2.182,-0.745 0.504,-0.497 0.756,-1.21 0.756,-2.139 0,-0.901 -0.277,-1.593 -0.83,-2.075 -0.553,-0.482 -1.352,-0.731 -2.395,-0.745 h -1.479 v -1.607 z m -45.175,-16.835 c -10.09,0 -18.266,8.178 -18.266,18.266 0,10.091 8.176,18.266 18.266,18.266 10.09,0 18.266,-8.176 18.266,-18.266 0,-10.086 -8.178,-18.266 -18.266,-18.266 z m 5.893,9.648 c 1.795,0 3.126,0.348 4.014,1.031 0.894,0.676 1.363,1.691 1.363,3.057 0,0.932 -0.237,1.686 -0.663,2.283 -0.426,0.591 -1.046,1.01 -1.878,1.252 0.931,0.277 1.655,0.783 2.136,1.473 0.487,0.683 0.7,1.555 0.7,2.615 0,1.579 -0.498,2.784 -1.547,3.609 -1.048,0.818 -2.593,1.215 -4.603,1.215 -0.709,0 -1.42,-0.049 -2.136,-0.184 a 11.916,11.916 0 0 1 -2.099,-0.589 v -3.167 a 9.436,9.436 0 0 0 1.989,0.847 c 0.66,0.192 1.28,0.295 1.915,0.295 0.944,0 1.673,-0.175 2.173,-0.552 0.506,-0.377 0.773,-0.916 0.773,-1.62 0,-0.726 -0.255,-1.287 -0.773,-1.657 -0.512,-0.377 -1.278,-0.552 -2.283,-0.552 h -1.436 v -2.651 h 1.51 c 0.894,0 1.551,-0.159 1.989,-0.479 0.438,-0.327 0.663,-0.811 0.663,-1.473 0,-0.612 -0.201,-1.102 -0.626,-1.436 -0.426,-0.334 -1.027,-0.516 -1.804,-0.516 -0.574,0 -1.182,0.072 -1.768,0.221 a 8.463,8.463 0 0 0 -1.731,0.663 v -2.983 a 14.459,14.459 0 0 1 2.099,-0.516 12.347,12.347 0 0 1 2.023,-0.186 z m -16.314,0.295 h 3.572 v 12.815 h 6.26 v 3.13 h -9.832 z"
     id="path258"
     inkscape:connector-curvature="0"
     style="fill:#35495e" />
  <text
     font-size="15.319"
     id="text260"
     style="font-size:15.31900024px;font-family:HelveticaLTStd-Blk;fill:#35495e"
     x="476.64401"
     y="565.51001" />
  <path
     d="M 132.231,187.474 H 61.268 a 3.778,3.778 0 0 0 -3.778,3.779 v 34.631 a 3.778,3.778 0 0 0 3.778,3.778 h 70.963 a 3.779,3.779 0 0 0 3.779,-3.778 v -34.631 a 3.78,3.78 0 0 0 -3.779,-3.779"
     id="path262"
     inkscape:connector-curvature="0"
     style="fill:#f4f4f4" />
  <path
     d="m 61.268,187.474 v 0.998 h 70.963 a 2.784,2.784 0 0 1 2.78,2.78 v 34.631 a 2.784,2.784 0 0 1 -2.78,2.78 H 61.268 a 2.784,2.784 0 0 1 -2.78,-2.78 v -34.631 a 2.784,2.784 0 0 1 2.78,-2.78 v -1.996 a 4.777,4.777 0 0 0 -4.777,4.777 v 34.631 a 4.778,4.778 0 0 0 4.777,4.777 h 70.963 a 4.778,4.778 0 0 0 4.777,-4.777 v -34.631 a 4.777,4.777 0 0 0 -4.777,-4.777 H 61.268 Z"
     id="path264"
     inkscape:connector-curvature="0"
     style="fill:#35495e" />
  <path
     d="m 118.056,211.999 h -6.492 l -1.458,4.044 h -2.107 l 5.917,-15.496 h 1.788 l 5.928,15.496 h -2.097 z m -5.875,-1.682 h 5.268 l -2.639,-7.248 z"
     id="path266"
     inkscape:connector-curvature="0"
     style="fill:#35495e" />
  <defs
     id="defs269">
    <path
       id="c"
       d="m 59.948,190.388 h 36.761 v 36.76 H 59.948 v -36.76"
       inkscape:connector-curvature="0" />
  </defs>
  <clipPath
     id="d">
    <use
       xlink:href="#c"
       overflow="visible"
       id="use271"
       style="overflow:visible"
       x="0"
       y="0"
       width="100%"
       height="100%" />
  </clipPath>
  <path
     clip-path="url(#d)"
     d="m 89.933,213.149 a 5.077,5.077 0 1 1 10e-4,-10.153 5.077,5.077 0 0 1 -10e-4,10.153 M 79.251,204.82 a 5.076,5.076 0 1 1 0,-10.152 5.076,5.076 0 0 1 0,10.152 m -1.829,18.165 a 5.076,5.076 0 1 1 0,-10.152 5.076,5.076 0 0 1 0,10.152 m -10.553,-8.541 a 5.076,5.076 0 1 1 0,-10.152 5.075,5.075 0 0 1 5.076,5.075 5.075,5.075 0 0 1 -5.076,5.077 m 11.529,-24.056 c -10.133,0 -18.348,8.214 -18.348,18.348 0,10.133 8.215,18.348 18.348,18.348 10.133,0 18.348,-8.215 18.348,-18.348 0,-10.134 -8.215,-18.348 -18.348,-18.348"
     id="path274"
     inkscape:connector-curvature="0"
     style="fill:#35495e" />
  <path
     clip-path="url(#d)"
     d="m 81.011,217.908 a 3.5910001,3.5910001 0 1 1 -7.182,-0.002 3.5910001,3.5910001 0 0 1 7.182,0.002 M 70.65,209.367 a 3.782,3.782 0 1 1 -7.564,0 3.782,3.782 0 0 1 7.564,0 m 12.184,-9.522 a 3.59,3.59 0 1 1 -7.18,0 3.59,3.59 0 0 1 7.18,0"
     id="path276"
     inkscape:connector-curvature="0"
     style="fill:#35495e" />
  <path
     d="m 542.288,187.747 h -70.963 a 3.78,3.78 0 0 0 -3.779,3.779 v 34.631 a 3.778,3.778 0 0 0 3.779,3.778 h 70.963 a 3.779,3.779 0 0 0 3.779,-3.778 v -34.631 a 3.78,3.78 0 0 0 -3.779,-3.779"
     id="path278"
     inkscape:connector-curvature="0"
     style="fill:#f4f4f4" />
  <path
     d="m 471.325,187.747 v 0.998 h 70.963 a 2.784,2.784 0 0 1 2.78,2.78 v 34.631 a 2.784,2.784 0 0 1 -2.78,2.78 h -70.963 a 2.784,2.784 0 0 1 -2.78,-2.78 v -34.631 a 2.784,2.784 0 0 1 2.78,-2.78 v -1.996 a 4.778,4.778 0 0 0 -4.777,4.777 v 34.631 a 4.778,4.778 0 0 0 4.777,4.777 h 70.963 a 4.778,4.778 0 0 0 4.777,-4.777 v -34.631 a 4.777,4.777 0 0 0 -4.777,-4.777 h -70.963 z"
     id="path280"
     inkscape:connector-curvature="0"
     style="fill:#35495e" />
  <path
     d="M 519.556,216.316 V 200.82 h 5.066 c 1.682,0 2.945,0.348 3.789,1.043 0.851,0.695 1.277,1.724 1.277,3.086 a 3.17,3.17 0 0 1 -0.617,1.926 c -0.411,0.553 -0.972,0.983 -1.682,1.288 0.837,0.234 1.497,0.681 1.98,1.341 0.49,0.653 0.734,1.433 0.734,2.341 0,1.391 -0.451,2.483 -1.352,3.278 -0.901,0.795 -2.175,1.192 -3.821,1.192 h -5.374 z m 2.044,-7.248 v 5.577 h 3.374 c 0.951,0 1.699,-0.245 2.246,-0.734 0.553,-0.497 0.83,-1.178 0.83,-2.043 0,-1.866 -1.015,-2.799 -3.044,-2.799 H 521.6 Z m 0,-1.639 h 3.086 c 0.894,0 1.607,-0.223 2.139,-0.671 0.539,-0.447 0.809,-1.054 0.809,-1.82 0,-0.851 -0.248,-1.469 -0.745,-1.852 -0.497,-0.39 -1.252,-0.585 -2.267,-0.585 H 521.6 Z"
     id="path282"
     inkscape:connector-curvature="0"
     style="fill:#35495e" />
  <defs
     id="defs285">
    <path
       id="e"
       d="m 469.366,190.175 h 37.544 v 37.544 h -37.544 v -37.544"
       inkscape:connector-curvature="0" />
  </defs>
  <clipPath
     id="f">
    <use
       xlink:href="#e"
       overflow="visible"
       id="use287"
       style="overflow:visible"
       x="0"
       y="0"
       width="100%"
       height="100%" />
  </clipPath>
  <path
     clip-path="url(#f)"
     d="m 499.991,213.422 a 5.1860001,5.1860001 0 1 1 0.002,-10.372 5.1860001,5.1860001 0 0 1 -0.002,10.372 m -10.911,-8.507 a 5.185,5.185 0 1 1 0,-10.37 5.185,5.185 0 0 1 0,10.37 m -1.868,18.553 a 5.185,5.185 0 1 1 0,-10.37 5.185,5.185 0 0 1 0,10.37 m -10.778,-8.723 a 5.185,5.185 0 1 1 0,-10.37 5.185,5.185 0 0 1 0,10.37 m 11.775,-24.569 c -10.349,0 -18.739,8.389 -18.739,18.739 0,10.349 8.39,18.739 18.739,18.739 10.349,0 18.739,-8.39 18.739,-18.739 0,-10.35 -8.39,-18.739 -18.739,-18.739"
     id="path290"
     inkscape:connector-curvature="0"
     style="fill:#35495e" />
  <path
     clip-path="url(#f)"
     d="m 503.693,208.236 a 3.7025,3.7025 0 1 1 -7.405,0.001 3.7025,3.7025 0 0 1 7.405,-0.001 m -23.397,1.324 a 3.863,3.863 0 0 1 -3.862,3.863 3.863,3.863 0 0 1 0,-7.725 3.863,3.863 0 0 1 3.862,3.862 m 12.444,-9.725 a 3.666,3.666 0 1 1 -7.332,0 3.666,3.666 0 0 1 7.332,0"
     id="path292"
     inkscape:connector-curvature="0"
     style="fill:#35495e" />
  <path
     d="M 132.244,59.553 H 17.809 a 3.765,3.765 0 0 0 -3.765,3.765 v 34.504 a 3.765,3.765 0 0 0 3.765,3.765 h 114.436 a 3.765,3.765 0 0 0 3.765,-3.765 V 63.318 a 3.766,3.766 0 0 0 -3.766,-3.765"
     id="path294"
     inkscape:connector-curvature="0"
     style="fill:#f4f4f4" />
  <path
     d="m 17.809,59.553 v 1.242 h 114.436 a 2.527,2.527 0 0 1 2.523,2.523 v 34.504 a 2.527,2.527 0 0 1 -2.523,2.523 H 17.809 A 2.527,2.527 0 0 1 15.286,97.822 V 63.318 a 2.527,2.527 0 0 1 2.523,-2.523 v -2.484 a 5.006,5.006 0 0 0 -5.006,5.006 v 34.504 a 5.006,5.006 0 0 0 5.006,5.006 h 114.436 a 5.006,5.006 0 0 0 5.006,-5.006 V 63.318 a 5.006,5.006 0 0 0 -5.006,-5.006 H 17.809 Z"
     id="path296"
     inkscape:connector-curvature="0"
     style="fill:#35495e" />
  <path
     d="m 38.527,99.45 h -7.201 c -2.318,0 -3.158,-1.89 -3.158,-3.16 v -8.842 h -8.844 c -2.319,0 -3.16,-1.89 -3.16,-3.16 v -7.2 c 0,-2.318 1.891,-3.159 3.16,-3.159 h 8.844 v -8.843 c 0,-2.319 1.888,-3.16 3.158,-3.16 h 7.201 c 2.319,0 3.16,1.891 3.16,3.16 v 8.843 h 8.841 c 1.216,0 2.181,0.532 2.718,1.499 0.21,0.38 0.462,1.126 0.434,1.66 h 0.008 v 7.2 c 0,2.319 -1.889,3.16 -3.16,3.16 h -8.841 v 8.842 c 0.001,2.318 -1.889,3.16 -3.16,3.16 z M 19.324,75.446 c -0.381,0.006 -1.641,0.141 -1.641,1.64 v 7.2 c 0.006,0.381 0.141,1.641 1.641,1.641 h 10.362 v 10.361 c 0.005,0.381 0.141,1.641 1.639,1.641 h 7.198 c 0.389,-0.006 1.644,-0.144 1.644,-1.641 v -10.36 h 10.36 c 0.381,-0.006 1.641,-0.142 1.641,-1.641 v -7.211 c -0.005,-0.291 -0.113,-1.629 -1.64,-1.629 H 40.17 V 65.085 c -0.006,-0.381 -0.141,-1.641 -1.641,-1.641 h -7.201 c -0.381,0.006 -1.639,0.141 -1.639,1.641 v 10.361 z"
     id="path298"
     inkscape:connector-curvature="0"
     style="fill:#35495e" />
  <path
     d="m 34.929,84.385 a 3.7,3.7 0 0 1 -3.695,-3.697 3.7,3.7 0 0 1 3.695,-3.696 3.7,3.7 0 0 1 3.696,3.696 3.7,3.7 0 0 1 -3.696,3.697 z m 0,-5.874 a 2.179,2.179 0 0 0 0,4.355 2.18,2.18 0 0 0 2.177,-2.178 2.18,2.18 0 0 0 -2.177,-2.177 z m -0.001,-13.363 -3.043,4.743 h 6.088 z"
     id="path300"
     inkscape:connector-curvature="0"
     style="fill:#35495e" />
  <path
     d="m 37.972,70.65 h -6.088 a 0.76,0.76 0 0 1 -0.639,-1.17 l 3.043,-4.743 c 0.279,-0.436 0.999,-0.435 1.278,0 l 3.045,4.743 a 0.759,0.759 0 0 1 -0.639,1.17 z m -4.698,-1.519 h 3.308 l -1.655,-2.577 z m -13.945,11.557 4.743,3.042 v -6.086 z"
     id="path302"
     inkscape:connector-curvature="0"
     style="fill:#35495e" />
  <path
     d="m 24.072,84.49 a 0.756,0.756 0 0 1 -0.41,-0.12 l -4.743,-3.042 a 0.76,0.76 0 0 1 0,-1.278 l 4.743,-3.044 a 0.76,0.76 0 0 1 1.17,0.639 v 6.086 a 0.759,0.759 0 0 1 -0.76,0.759 z m -3.337,-3.802 2.577,1.653 V 79.035 Z M 50.47,80.687 45.726,77.644 v 6.086 z"
     id="path304"
     inkscape:connector-curvature="0"
     style="fill:#35495e" />
  <path
     d="m 45.727,84.49 a 0.76,0.76 0 0 1 -0.759,-0.759 v -6.086 c 0,-0.277 0.151,-0.533 0.396,-0.666 a 0.754,0.754 0 0 1 0.775,0.027 l 4.744,3.043 a 0.76,0.76 0 0 1 0,1.278 l -4.745,3.043 a 0.773,0.773 0 0 1 -0.411,0.12 z m 0.76,-5.456 v 3.307 l 2.578,-1.654 z m -11.559,17.194 3.045,-4.743 h -6.088 z"
     id="path306"
     inkscape:connector-curvature="0"
     style="fill:#35495e" />
  <path
     d="m 34.928,96.987 a 0.762,0.762 0 0 1 -0.639,-0.349 l -3.043,-4.743 a 0.761,0.761 0 0 1 0.639,-1.171 h 6.088 a 0.759,0.759 0 1 1 0.639,1.171 l -3.045,4.743 a 0.762,0.762 0 0 1 -0.639,0.349 z m -1.654,-4.743 1.654,2.577 1.655,-2.577 z m 32.702,-4.2 V 72.548 h 4.374 c 1.348,0 2.54,0.298 3.576,0.894 1.036,0.596 1.834,1.444 2.395,2.544 0.568,1.1 0.855,2.363 0.862,3.789 v 0.99 c 0,1.462 -0.284,2.742 -0.851,3.842 a 5.913,5.913 0 0 1 -2.416,2.533 c -1.043,0.589 -2.26,0.89 -3.651,0.905 H 65.976 Z M 68.02,74.23 v 12.144 h 2.15 c 1.575,0 2.799,-0.49 3.672,-1.469 0.88,-0.979 1.32,-2.373 1.32,-4.183 v -0.905 c 0,-1.76 -0.415,-3.125 -1.245,-4.098 -0.823,-0.979 -1.994,-1.476 -3.512,-1.49 H 68.02 Z m 10.855,6.428 h 5.194 v 1.607 h -5.194 z m 9.451,1.32 v 6.067 H 86.283 V 72.548 h 5.715 c 1.696,0 3.023,0.433 3.98,1.298 0.965,0.866 1.447,2.012 1.447,3.438 0,1.504 -0.472,2.664 -1.416,3.48 -0.937,0.809 -2.281,1.213 -4.034,1.213 h -3.649 z m 0,-1.671 h 3.672 c 1.093,0 1.93,-0.255 2.512,-0.766 0.582,-0.518 0.873,-1.263 0.873,-2.235 0,-0.922 -0.291,-1.66 -0.873,-2.214 -0.582,-0.553 -1.38,-0.841 -2.395,-0.862 H 88.326 Z M 107.143,84 h -6.492 l -1.458,4.044 h -2.107 l 5.918,-15.496 h 1.788 l 5.928,15.496 h -2.097 z m -5.875,-1.682 h 5.268 l -2.639,-7.248 z m 11.537,5.726 V 72.548 h 4.374 c 1.348,0 2.54,0.298 3.576,0.894 1.036,0.596 1.834,1.444 2.395,2.544 0.568,1.1 0.855,2.363 0.862,3.789 v 0.99 c 0,1.462 -0.284,2.742 -0.851,3.842 a 5.913,5.913 0 0 1 -2.416,2.533 c -1.043,0.589 -2.26,0.89 -3.651,0.905 h -4.289 z m 2.044,-13.814 v 12.144 h 2.15 c 1.575,0 2.799,-0.49 3.672,-1.469 0.88,-0.979 1.32,-2.373 1.32,-4.183 v -0.905 c 0,-1.76 -0.415,-3.125 -1.245,-4.098 -0.823,-0.979 -1.994,-1.476 -3.512,-1.49 h -2.385 z"
     id="path308"
     inkscape:connector-curvature="0"
     style="fill:#35495e" />
  <path
     d="m 336.694,295.566 h -70.963 a 3.779,3.779 0 0 0 -3.779,3.778 v 34.631 a 3.778,3.778 0 0 0 3.779,3.778 h 70.963 a 3.779,3.779 0 0 0 3.779,-3.778 v -34.631 a 3.779,3.779 0 0 0 -3.779,-3.778"
     id="path310"
     inkscape:connector-curvature="0"
     style="fill:#f4f4f4" />
  <path
     d="m 265.731,295.566 v 0.32 h 70.963 a 3.464,3.464 0 0 1 3.459,3.459 v 34.631 a 3.464,3.464 0 0 1 -3.459,3.459 h -70.963 a 3.464,3.464 0 0 1 -3.459,-3.459 v -34.631 a 3.464,3.464 0 0 1 3.459,-3.459 v -0.64 a 4.098,4.098 0 0 0 -4.098,4.098 v 34.631 a 4.098,4.098 0 0 0 4.098,4.098 h 70.963 a 4.098,4.098 0 0 0 4.098,-4.098 v -34.631 a 4.098,4.098 0 0 0 -4.098,-4.098 h -70.963 z"
     id="path312"
     inkscape:connector-curvature="0"
     style="fill:#35495e" />
  <path
     d="m 318.688,316.418 4.044,-7.78 h 2.32 l -5.342,9.717 v 5.78 h -2.044 v -5.78 l -5.343,-9.717 h 2.342 z"
     id="path314"
     inkscape:connector-curvature="0"
     style="fill:#35495e" />
  <defs
     id="defs317">
    <path
       id="g"
       d="m 263.377,297.698 h 38.297 v 38.297 h -38.297 v -38.297"
       inkscape:connector-curvature="0" />
  </defs>
  <clipPath
     id="h">
    <use
       xlink:href="#g"
       overflow="visible"
       id="use319"
       style="overflow:visible"
       x="0"
       y="0"
       width="100%"
       height="100%" />
  </clipPath>
  <path
     clip-path="url(#h)"
     d="m 294.616,321.411 a 5.2900001,5.2900001 0 1 1 0.002,-10.58 5.2900001,5.2900001 0 0 1 -0.002,10.58 m -11.13,-8.677 a 5.29,5.29 0 1 1 0,-10.579 5.29,5.29 0 0 1 0,10.579 m -1.905,18.925 a 5.289,5.289 0 1 1 0,-10.578 5.289,5.289 0 0 1 0,10.578 m -10.994,-8.899 a 5.289,5.289 0 1 1 0,-10.578 5.289,5.289 0 1 1 0,10.578 m 12.011,-25.062 c -10.557,0 -19.115,8.557 -19.115,19.115 0,10.557 8.558,19.115 19.115,19.115 10.557,0 19.115,-8.558 19.115,-19.115 0,-10.557 -8.559,-19.115 -19.115,-19.115"
     id="path322"
     inkscape:connector-curvature="0"
     style="fill:#35495e" />
  <path
     clip-path="url(#h)"
     d="m 298.392,316.121 a 3.777,3.777 0 1 1 -7.554,0 3.777,3.777 0 0 1 7.554,0 M 285.32,326.37 a 3.7405,3.7405 0 1 1 -7.481,-10e-4 3.7405,3.7405 0 0 1 7.481,10e-4 m 1.9,-18.819 a 3.74,3.74 0 1 1 -7.48,0 3.74,3.74 0 0 1 7.48,0"
     id="path324"
     inkscape:connector-curvature="0"
     style="fill:#35495e" />
  <path
     d="M 132.232,457.118 H 58.954 a 3.778,3.778 0 0 0 -3.778,3.778 v 34.623 a 3.778,3.778 0 0 0 3.778,3.778 h 73.278 a 3.778,3.778 0 0 0 3.778,-3.778 v -34.623 a 3.779,3.779 0 0 0 -3.778,-3.778"
     id="path326"
     inkscape:connector-curvature="0"
     style="fill:#f4f4f4" />
  <path
     d="m 58.954,457.118 v 1.013 h 73.277 a 2.769,2.769 0 0 1 2.765,2.765 v 34.623 a 2.769,2.769 0 0 1 -2.765,2.765 H 58.954 a 2.769,2.769 0 0 1 -2.765,-2.765 v -34.623 a 2.769,2.769 0 0 1 2.765,-2.765 v -2.026 a 4.79,4.79 0 0 0 -4.79,4.79 v 34.623 a 4.79,4.79 0 0 0 4.79,4.79 h 73.277 a 4.79,4.79 0 0 0 4.79,-4.79 v -34.623 a 4.79,4.79 0 0 0 -4.79,-4.79 H 58.954 Z"
     id="path328"
     inkscape:connector-curvature="0"
     style="fill:#35495e" />
  <path
     d="m 109.235,484.011 h 7.344 v 1.671 h -9.398 v -15.496 h 2.054 z m 15.656,1.671 h -1.979 v -13.123 l -3.97,1.458 v -1.788 l 5.641,-2.118 h 0.308 z M 86.236,471.384 c 3.328,0 6.034,3.004 6.034,6.695 0,3.699 -2.707,6.708 -6.034,6.708 H 65.671 c -3.303,-0.029 -5.989,-3.04 -5.989,-6.708 0,-3.663 2.687,-6.665 5.977,-6.695 h 20.577 m 0,-1.435 H 65.659 c -4.096,0.036 -7.412,3.655 -7.412,8.13 0,4.476 3.316,8.107 7.412,8.143 h 20.577 c 4.127,0 7.469,-3.647 7.469,-8.143 0,-4.496 -3.344,-8.13 -7.469,-8.13 z"
     id="path330"
     inkscape:connector-curvature="0"
     style="fill:#35495e" />
  <path
     d="m 75.031,474.548 h -1.553 v 7.06 h 4.996 v -1.303 h -3.443 z"
     id="path332"
     inkscape:connector-curvature="0"
     style="fill:#35495e" />
  <path
     d="m 544.602,486.386 h -73.278 a 3.778,3.778 0 0 0 -3.778,3.778 v 34.623 a 3.778,3.778 0 0 0 3.778,3.778 h 73.278 a 3.778,3.778 0 0 0 3.778,-3.778 v -34.623 a 3.779,3.779 0 0 0 -3.778,-3.778"
     id="path334"
     inkscape:connector-curvature="0"
     style="fill:#f4f4f4" />
  <path
     d="m 471.324,486.386 v 1.013 h 73.277 a 2.769,2.769 0 0 1 2.765,2.765 v 34.623 a 2.769,2.769 0 0 1 -2.765,2.765 h -73.277 a 2.769,2.769 0 0 1 -2.765,-2.765 v -34.623 a 2.769,2.769 0 0 1 2.765,-2.765 v -2.026 a 4.79,4.79 0 0 0 -4.79,4.79 v 34.623 a 4.79,4.79 0 0 0 4.79,4.79 h 73.277 a 4.79,4.79 0 0 0 4.79,-4.79 v -34.623 a 4.79,4.79 0 0 0 -4.79,-4.79 h -73.277 z"
     id="path336"
     inkscape:connector-curvature="0"
     style="fill:#35495e" />
  <path
     d="m 521.606,513.28 h 7.343 v 1.671 h -9.397 v -15.497 h 2.054 z m 19.338,1.671 h -10.153 v -1.415 l 5.364,-5.96 c 0.795,-0.901 1.341,-1.632 1.639,-2.192 a 3.667,3.667 0 0 0 0.458,-1.756 c 0,-0.809 -0.245,-1.472 -0.734,-1.99 -0.49,-0.518 -1.142,-0.777 -1.958,-0.777 -0.979,0 -1.742,0.28 -2.288,0.841 -0.539,0.553 -0.809,1.327 -0.809,2.32 h -1.969 c 0,-1.426 0.458,-2.579 1.373,-3.459 0.922,-0.88 2.153,-1.32 3.693,-1.32 1.44,0 2.579,0.38 3.416,1.139 0.837,0.752 1.256,1.756 1.256,3.012 0,1.525 -0.972,3.342 -2.916,5.449 l -4.151,4.502 h 7.78 v 1.606 z m -42.506,-14.266 c 3.288,0 5.962,2.968 5.962,6.614 0,3.655 -2.674,6.628 -5.962,6.628 h -20.319 c -3.263,-0.028 -5.918,-3.003 -5.918,-6.628 0,-3.619 2.654,-6.585 5.905,-6.614 h 20.332 m 0,-1.418 h -20.331 c -4.047,0.036 -7.323,3.611 -7.323,8.032 0,4.422 3.276,8.01 7.323,8.046 h 20.331 c 4.077,0 7.38,-3.604 7.38,-8.046 0,-4.442 -3.304,-8.032 -7.38,-8.032 z"
     id="path338"
     inkscape:connector-curvature="0"
     style="fill:#35495e" />
  <path
     d="m 482.997,503.811 v 6.976 h 4.936 v -1.288 h -3.402 v -5.688 z m 11.171,5.681 v 1.204 h -4.547 a 3.13,3.13 0 0 1 0.443,-1.295 c 0.247,-0.407 0.732,-0.948 1.459,-1.622 0.584,-0.545 0.943,-0.914 1.076,-1.108 0.178,-0.268 0.268,-0.532 0.268,-0.794 0,-0.289 -0.078,-0.511 -0.233,-0.667 -0.156,-0.156 -0.371,-0.233 -0.645,-0.233 -0.27,0 -0.487,0.081 -0.647,0.245 -0.16,0.164 -0.252,0.434 -0.277,0.812 l -1.292,-0.129 c 0.077,-0.714 0.319,-1.226 0.725,-1.537 0.406,-0.311 0.914,-0.466 1.523,-0.466 0.667,0 1.193,0.18 1.574,0.54 0.381,0.36 0.572,0.807 0.572,1.343 0,0.304 -0.055,0.595 -0.164,0.87 a 3.527,3.527 0 0 1 -0.519,0.866 c -0.157,0.199 -0.441,0.488 -0.849,0.864 -0.409,0.374 -0.668,0.624 -0.777,0.748 -0.11,0.123 -0.199,0.243 -0.266,0.36 z"
     id="path340"
     inkscape:connector-curvature="0"
     style="fill:#35495e" />
  <path
     d="m 544.602,424.208 h -73.278 a 3.778,3.778 0 0 0 -3.778,3.778 v 34.623 a 3.778,3.778 0 0 0 3.778,3.778 h 73.278 a 3.778,3.778 0 0 0 3.778,-3.778 v -34.623 a 3.778,3.778 0 0 0 -3.778,-3.778"
     id="path342"
     inkscape:connector-curvature="0"
     style="fill:#f4f4f4" />
  <path
     d="m 471.324,424.208 v 1.013 h 73.277 a 2.769,2.769 0 0 1 2.765,2.765 v 34.623 a 2.769,2.769 0 0 1 -2.765,2.765 h -73.277 a 2.769,2.769 0 0 1 -2.765,-2.765 v -34.623 a 2.769,2.769 0 0 1 2.765,-2.765 v -2.026 a 4.79,4.79 0 0 0 -4.79,4.79 v 34.623 a 4.79,4.79 0 0 0 4.79,4.79 h 73.277 a 4.79,4.79 0 0 0 4.79,-4.79 v -34.623 a 4.79,4.79 0 0 0 -4.79,-4.79 h -73.277 z"
     id="path344"
     inkscape:connector-curvature="0"
     style="fill:#35495e" />
  <path
     d="m 525.235,446.504 h -3.64 v 6.269 h -2.054 v -15.496 h 5.13 c 1.745,0 3.086,0.397 4.023,1.192 0.944,0.795 1.416,1.951 1.416,3.47 0,0.965 -0.263,1.806 -0.788,2.522 -0.518,0.717 -1.242,1.252 -2.171,1.607 l 3.64,6.577 v 0.128 h -2.192 z m -3.64,-1.671 h 3.14 c 1.015,0 1.82,-0.263 2.416,-0.788 0.603,-0.525 0.905,-1.228 0.905,-2.107 0,-0.958 -0.287,-1.692 -0.862,-2.203 -0.568,-0.511 -1.391,-0.77 -2.469,-0.777 h -3.129 v 5.875 z m 21.009,7.939 h -10.153 v -1.415 l 5.364,-5.96 c 0.795,-0.901 1.341,-1.632 1.639,-2.192 a 3.667,3.667 0 0 0 0.458,-1.756 c 0,-0.809 -0.245,-1.472 -0.734,-1.99 -0.49,-0.518 -1.142,-0.777 -1.958,-0.777 -0.979,0 -1.742,0.28 -2.288,0.841 -0.539,0.553 -0.809,1.327 -0.809,2.32 h -1.969 c 0,-1.426 0.458,-2.579 1.373,-3.459 0.922,-0.88 2.153,-1.32 3.693,-1.32 1.44,0 2.579,0.38 3.416,1.139 0.837,0.752 1.256,1.756 1.256,3.012 0,1.526 -0.972,3.342 -2.916,5.449 l -4.151,4.502 h 7.78 v 1.606 z m -58.611,-10.094 h 1.702 c 0.691,0 1.069,0.298 1.069,0.978 0,0.715 -0.379,1.014 -1.069,1.014 h -1.702 z m -1.55,5.86 h 1.55 v -2.761 h 1.555 c 0.781,0 1.068,0.327 1.177,1.069 0.078,0.563 0.058,1.247 0.247,1.692 h 1.551 c -0.276,-0.396 -0.267,-1.224 -0.299,-1.672 -0.049,-0.712 -0.263,-1.455 -1.024,-1.653 0,0 1.115,-0.29 1.115,-1.792 0,-1.069 -0.802,-1.948 -2.066,-1.948 h -3.806 z"
     id="path346"
     inkscape:connector-curvature="0"
     style="fill:#35495e" />
  <path
     d="m 498.61,438.316 c 3.327,0 6.033,3.004 6.033,6.692 0,3.698 -2.706,6.708 -6.033,6.708 h -20.561 c -3.302,-0.029 -5.988,-3.039 -5.988,-6.708 0,-3.661 2.686,-6.664 5.976,-6.692 h 20.573 m 0,-1.435 h -20.574 c -4.095,0.035 -7.411,3.654 -7.411,8.127 0,4.476 3.316,8.105 7.411,8.143 h 20.574 c 4.126,0 7.468,-3.647 7.468,-8.143 0,-4.495 -3.343,-8.127 -7.468,-8.127 z"
     id="path348"
     inkscape:connector-curvature="0"
     style="fill:#35495e" />
  <path
     d="m 494.626,447.321 v 1.219 h -4.601 c 0.05,-0.461 0.199,-0.897 0.449,-1.311 0.25,-0.412 0.74,-0.959 1.476,-1.642 0.591,-0.552 0.955,-0.925 1.089,-1.121 0.18,-0.271 0.271,-0.539 0.271,-0.804 0,-0.293 -0.078,-0.518 -0.235,-0.675 -0.158,-0.158 -0.375,-0.236 -0.652,-0.236 -0.274,0 -0.493,0.082 -0.654,0.248 -0.161,0.166 -0.255,0.439 -0.28,0.822 l -1.308,-0.131 c 0.077,-0.722 0.322,-1.241 0.734,-1.555 0.411,-0.315 0.925,-0.472 1.541,-0.472 0.675,0 1.207,0.182 1.593,0.546 0.385,0.364 0.579,0.817 0.579,1.359 0,0.308 -0.055,0.602 -0.166,0.88 -0.11,0.279 -0.285,0.571 -0.525,0.876 -0.159,0.202 -0.446,0.494 -0.859,0.874 -0.414,0.379 -0.676,0.631 -0.786,0.757 a 2.202,2.202 0 0 0 -0.269,0.364 z"
     id="path350"
     inkscape:connector-curvature="0"
     style="fill:#35495e" />
  <path
     d="M 97.345,543.544 H 58.21 a 2.764,2.764 0 0 0 -2.76,2.76 v 34.621 a 2.764,2.764 0 0 0 2.76,2.76 h 39.135 v -40.141 m 34.887,0 H 97.465 v 40.141 h 34.767 a 2.764,2.764 0 0 0 2.76,-2.76 v -34.621 a 2.764,2.764 0 0 0 -2.76,-2.76"
     id="path352"
     inkscape:connector-curvature="0"
     style="fill:#f4f4f4" />
  <path
     d="m 58.21,542.526 v 1.017 h 74.022 a 2.764,2.764 0 0 1 2.76,2.76 v 34.621 a 2.764,2.764 0 0 1 -2.76,2.76 H 58.21 a 2.764,2.764 0 0 1 -2.76,-2.76 v -34.621 a 2.764,2.764 0 0 1 2.76,-2.76 v -2.034 a 4.796,4.796 0 0 0 -4.795,4.795 v 34.621 a 4.796,4.796 0 0 0 4.795,4.795 h 74.022 a 4.796,4.796 0 0 0 4.795,-4.795 v -34.621 a 4.795,4.795 0 0 0 -4.795,-4.795 H 58.21 v 1.017"
     id="path354"
     inkscape:connector-curvature="0"
     style="fill:#35495e" />
  <path
     d="m 112.12,564.82 h -3.64 v 6.269 h -2.054 v -15.496 h 5.13 c 1.745,0 3.086,0.397 4.023,1.192 0.944,0.795 1.416,1.951 1.416,3.47 0,0.965 -0.263,1.806 -0.788,2.522 -0.518,0.717 -1.242,1.252 -2.171,1.607 l 3.64,6.577 v 0.128 h -2.192 z m -3.64,-1.671 h 3.14 c 1.015,0 1.82,-0.263 2.416,-0.788 0.603,-0.525 0.905,-1.227 0.905,-2.107 0,-0.958 -0.287,-1.692 -0.862,-2.203 -0.568,-0.511 -1.391,-0.77 -2.469,-0.777 h -3.129 v 5.875 z m 13.719,-0.766 h 1.479 c 0.929,-0.014 1.66,-0.259 2.192,-0.734 0.532,-0.475 0.798,-1.118 0.798,-1.926 0,-1.816 -0.905,-2.725 -2.714,-2.725 -0.851,0 -1.533,0.245 -2.043,0.734 -0.504,0.482 -0.756,1.125 -0.756,1.926 h -1.969 c 0,-1.227 0.447,-2.246 1.341,-3.055 0.901,-0.816 2.043,-1.224 3.427,-1.224 1.462,0 2.608,0.387 3.438,1.16 0.83,0.773 1.245,1.848 1.245,3.225 0,0.674 -0.22,1.327 -0.66,1.958 -0.433,0.631 -1.025,1.103 -1.777,1.416 0.851,0.27 1.508,0.717 1.969,1.341 0.468,0.624 0.702,1.387 0.702,2.288 0,1.391 -0.454,2.494 -1.362,3.31 -0.908,0.816 -2.09,1.224 -3.544,1.224 -1.455,0 -2.639,-0.394 -3.555,-1.181 -0.908,-0.788 -1.362,-1.827 -1.362,-3.118 h 1.98 c 0,0.816 0.266,1.469 0.798,1.958 0.532,0.49 1.245,0.734 2.139,0.734 0.951,0 1.678,-0.248 2.182,-0.745 0.504,-0.497 0.756,-1.21 0.756,-2.139 0,-0.901 -0.277,-1.593 -0.83,-2.075 -0.553,-0.482 -1.352,-0.731 -2.395,-0.745 h -1.479 z M 75.231,544.935 c -10.274,0 -18.599,8.328 -18.599,18.599 0,10.275 8.325,18.599 18.599,18.599 10.274,0 18.599,-8.325 18.599,-18.599 0,-10.27 -8.328,-18.599 -18.599,-18.599 z m 6.674,10.199 c 1.827,0 3.22,0.317 4.125,1.012 0.911,0.688 1.35,1.759 1.35,3.15 0,0.949 -0.204,1.716 -0.637,2.325 -0.433,0.601 -1.102,1.029 -1.95,1.275 0.948,0.283 1.685,0.76 2.175,1.462 0.496,0.695 0.75,1.583 0.75,2.662 0,1.608 -0.545,2.834 -1.612,3.675 -1.068,0.833 -2.602,1.237 -4.65,1.237 -0.722,0 -1.484,-0.05 -2.212,-0.188 a 12.067,12.067 0 0 1 -2.137,-0.6 v -3.225 a 9.829,9.829 0 0 0 2.025,0.9 7.046,7.046 0 0 0 1.987,0.262 c 0.961,0 1.704,-0.179 2.212,-0.562 0.515,-0.384 0.75,-0.933 0.75,-1.65 0,-0.739 -0.26,-1.311 -0.787,-1.687 -0.521,-0.384 -1.301,-0.562 -2.325,-0.562 h -1.425 v -2.7 h 1.5 c 0.911,0 1.579,-0.161 2.025,-0.487 0.446,-0.333 0.675,-0.826 0.675,-1.5 0,-0.623 -0.204,-1.122 -0.637,-1.462 -0.433,-0.34 -1.046,-0.487 -1.837,-0.487 -0.584,0 -1.166,0.073 -1.762,0.225 a 8.935,8.935 0 0 0 -1.8,0.675 v -3.075 c 0.716,-0.232 1.434,-0.409 2.137,-0.525 0.703,-0.116 1.382,-0.15 2.06,-0.15 z m -19.161,0.263 h 5.55 c 1.853,0 3.189,0.37 4.05,1.087 0.867,0.717 1.312,1.862 1.312,3.412 0,1.072 -0.223,1.937 -0.675,2.625 -0.446,0.688 -1.121,1.211 -2.025,1.537 0.496,0.13 0.923,0.436 1.312,0.9 0.396,0.456 0.798,1.128 1.2,2.062 l 1.987,4.612 h -3.862 l -1.725,-4.012 c -0.345,-0.811 -0.692,-1.39 -1.05,-1.687 -0.352,-0.297 -0.835,-0.45 -1.425,-0.45 h -1.012 v 6.15 h -3.637 z m 3.637,3.037 v 4.162 h 1.537 c 0.76,0 1.286,-0.161 1.612,-0.487 0.333,-0.326 0.487,-0.866 0.487,-1.612 0,-0.739 -0.155,-1.256 -0.487,-1.575 -0.327,-0.319 -0.853,-0.487 -1.612,-0.487 h -1.537 z"
     id="path356"
     inkscape:connector-curvature="0"
     style="fill:#35495e" />
  <text
     font-size="15.599"
     id="text358"
     style="font-size:15.59899998px;font-family:HelveticaLTStd-Blk;fill:#35495e"
     x="63.171001"
     y="566.16998" />
  <path
     d="m 97.465,541.298 h -44.47 v 44.47 H 97.466 V 585.72 H 58.21 c -0.281,0 -0.556,-0.024 -0.824,-0.071 h -4.272 v -44.231 h 44.231 v 0.091 h 0.12 v -0.211"
     id="path360"
     inkscape:connector-curvature="0"
     style="fill:#ffffff" />
  <path
     d="m 97.465,543.544 h -0.12 v 40.14 h 0.12 v -40.14"
     id="path362"
     inkscape:connector-curvature="0"
     style="fill:#f4f4f4" />
  <path
     d="m 97.465,583.684 h -0.12 v 1.964 H 57.387 c 0.268,0.046 0.543,0.071 0.824,0.071 h 39.255 v -2.035 m -10e-4,-42.175 h -0.12 v 2.035 h 0.12 v -2.035"
     id="path364"
     inkscape:connector-curvature="0"
     style="fill:#35495e" />
  <path
     d="m 3.539,661.375 v 12.688 h 36.016 v -12.688 c -0.387,1.712 -1.878,2.986 -3.658,2.986 H 7.198 c -1.78,10e-4 -3.272,-1.275 -3.659,-2.986 m 6.463,-8.233 v -7.039 h 4.801 v 1.103 h -3.64 v 1.777 h 3.49 v 1.103 h -3.49 v 1.952 h 3.699 v 1.103 h -4.86 m 6.121,0.001 v -7.039 h 1.161 v 5.878 h 3.358 v 1.161 h -4.519 m 5.55,0 0.001,-7.039 h 4.794 v 1.103 h -3.636 v 1.777 h 3.491 v 1.103 h -3.491 v 1.952 h 3.699 v 1.103 h -4.858 m 8.762,0.199 c -1.995,0 -2.952,-1.737 -2.952,-3.717 0,-1.985 0.915,-3.718 3.09,-3.718 1.901,0 2.893,1.28 3.016,2.798 l -1.25,-10e-4 c -0.116,-1.066 -0.805,-1.697 -1.781,-1.697 -1.07,0 -1.864,0.91 -1.864,2.744 0,1.47 0.794,2.488 1.942,2.488 1.205,0 1.606,-1.047 1.703,-1.787 h 1.251 c -0.162,1.404 -0.88,2.89 -3.155,2.89 m 9.121,-15.293 H 3.539 v 12.815 h 1.169 c 0.032,0.929 0.633,1.375 1.587,1.375 0.706,0 1.363,-0.266 1.363,-1.04 0,-1.747 -4.072,-0.226 -4.072,-3.113 0,-1.568 1.091,-2.178 2.437,-2.178 0.851,0 2.555,0.195 2.704,2.238 H 7.473 c -0.039,-0.545 -0.428,-1.136 -1.395,-1.136 -0.772,0 -1.283,0.307 -1.283,0.968 0,1.652 4.116,0.067 4.116,3.074 0,1.816 -1.476,2.289 -2.654,2.289 -1.638,0 -2.468,-0.676 -2.718,-1.741 v 8.019 c 0.387,-1.711 1.879,-2.987 3.659,-2.987 h 28.699 c 1.78,0 3.271,1.275 3.658,2.986 v -12.409 h -1.972 v 5.936 h -1.159 v -5.937 H 34.35 v -1.102 h 5.205 v -8.057 M 3.442,660.495 v -22.546 h 36.212 v 8.154 h 0.006 v 1.103 H 39.654 V 674.16 H 3.442 V 660.495 M 132.248,636.692 H 5.066 a 2.46,2.46 0 0 0 -2.457,2.457 v 34.471 a 2.461,2.461 0 0 0 2.457,2.457 h 127.183 a 2.46,2.46 0 0 0 2.457,-2.457 v -34.471 a 2.462,2.462 0 0 0 -2.458,-2.457"
     id="path366"
     inkscape:connector-curvature="0"
     style="fill:#f4f4f4" />
  <path
     d="m 5.066,635.387 v 1.305 h 127.183 a 2.46,2.46 0 0 1 2.457,2.457 v 34.471 a 2.461,2.461 0 0 1 -2.457,2.457 H 5.066 A 2.46,2.46 0 0 1 2.609,673.62 v -34.471 a 2.461,2.461 0 0 1 2.457,-2.457 v -2.61 A 5.066,5.066 0 0 0 0,639.148 v 34.471 a 5.066,5.066 0 0 0 5.066,5.066 h 127.183 a 5.065,5.065 0 0 0 5.065,-5.066 v -34.471 a 5.066,5.066 0 0 0 -5.065,-5.066 H 5.066 v 1.305"
     id="path368"
     inkscape:connector-curvature="0"
     style="fill:#35495e" />
  <path
     d="M 35.897,656.629 H 7.198 c -2.074,0 -3.757,1.731 -3.757,3.866 0,2.135 1.683,3.866 3.757,3.866 h 28.699 c 2.074,0 3.756,-1.731 3.756,-3.866 0,-2.135 -1.681,-3.866 -3.756,-3.866 m 0.528,-3.487 h 1.159 v -5.936 h 2.075 v -1.103 h -5.308 v 1.102 h 2.074 v 5.937 m -2.835,-4.438 c -0.123,-1.518 -1.115,-2.798 -3.016,-2.798 -2.174,0 -3.09,1.732 -3.09,3.718 0,1.98 0.956,3.717 2.952,3.717 2.275,0 2.993,-1.486 3.155,-2.89 H 32.34 c -0.097,0.74 -0.498,1.787 -1.703,1.787 -1.148,0 -1.942,-1.018 -1.942,-2.488 0,-1.834 0.794,-2.744 1.864,-2.744 0.976,0 1.665,0.631 1.781,1.697 l 1.25,10e-4 m -11.917,4.438 h 4.859 v -1.103 h -3.699 v -1.952 h 3.491 v -1.103 h -3.491 v -1.777 h 3.636 v -1.103 h -4.794 l -0.002,7.038 m -5.55,0 h 4.519 v -1.161 h -3.358 v -5.878 h -1.161 v 7.039 m -6.121,0 h 4.86 v -1.103 h -3.699 v -1.952 h 3.49 v -1.103 h -3.49 v -1.777 h 3.64 v -1.103 h -4.801 v 7.038 m -6.415,-5.059 c 0,2.887 4.072,1.366 4.072,3.113 0,0.774 -0.658,1.04 -1.363,1.04 -0.954,0 -1.554,-0.446 -1.587,-1.375 H 3.456 c 0.015,1.48 0.812,2.477 2.801,2.477 1.177,0 2.654,-0.473 2.654,-2.289 0,-3.006 -4.116,-1.422 -4.116,-3.074 0,-0.661 0.511,-0.968 1.283,-0.968 0.967,0 1.356,0.591 1.395,1.136 h 1.255 c -0.149,-2.043 -1.853,-2.238 -2.704,-2.238 -1.346,0 -2.437,0.61 -2.437,2.178"
     id="path370"
     inkscape:connector-curvature="0"
     style="fill:#35495e" />
  <path
     d="m 39.653,647.206 h -0.098 v 12.409 a 3.982,3.982 0 0 1 0,1.76 v 12.688 H 3.539 v -12.688 a 3.98,3.98 0 0 1 -0.098,-0.879 v 13.664 h 36.212 v -26.954 m 0,-9.257 H 3.442 v 22.546 c 0,-0.303 0.034,-0.597 0.098,-0.879 v -8.019 A 3.304,3.304 0 0 1 3.457,650.861 H 3.54 v -12.815 h 36.016 v 8.056 h 0.098 v -8.153"
     id="path372"
     inkscape:connector-curvature="0"
     style="fill:#f4f4f4" />
  <path
     d="m 3.539,659.616 a 3.98,3.98 0 0 0 0,1.758 v -1.758 m 36.017,-10e-4 v 1.76 a 3.982,3.982 0 0 0 0,-1.76 M 3.539,650.861 H 3.456 c 0.003,0.261 0.03,0.507 0.083,0.736 v -0.736 m 36.114,-4.758 h -0.098 v 1.103 h 0.098 v -1.103 m 18.13,10.849 c -1.753,-0.504 -3.03,-1.121 -3.831,-1.852 -0.795,-0.738 -1.192,-1.646 -1.192,-2.725 0,-1.22 0.486,-2.228 1.458,-3.023 0.979,-0.802 2.249,-1.203 3.81,-1.203 1.064,0 2.012,0.206 2.842,0.617 0.837,0.412 1.483,0.979 1.937,1.703 0.461,0.724 0.692,1.515 0.692,2.373 h -2.054 c 0,-0.937 -0.298,-1.671 -0.894,-2.203 -0.596,-0.539 -1.437,-0.809 -2.522,-0.809 -1.008,0 -1.795,0.224 -2.363,0.67 -0.561,0.44 -0.841,1.054 -0.841,1.841 0,0.631 0.266,1.167 0.798,1.607 0.539,0.433 1.451,0.83 2.735,1.192 1.291,0.362 2.299,0.763 3.023,1.203 0.731,0.433 1.27,0.94 1.618,1.522 0.355,0.582 0.532,1.267 0.532,2.054 0,1.256 -0.49,2.263 -1.469,3.023 -0.979,0.752 -2.288,1.128 -3.927,1.128 a 7.329,7.329 0 0 1 -2.98,-0.607 c -0.922,-0.412 -1.635,-0.972 -2.139,-1.682 -0.497,-0.71 -0.745,-1.515 -0.745,-2.416 h 2.054 c 0,0.937 0.344,1.678 1.032,2.224 0.695,0.539 1.621,0.809 2.778,0.809 1.079,0 1.905,-0.22 2.48,-0.66 0.575,-0.44 0.862,-1.039 0.862,-1.799 0,-0.759 -0.266,-1.345 -0.798,-1.756 -0.534,-0.415 -1.499,-0.827 -2.896,-1.231 z m 17.135,-0.256 h -6.716 v 5.492 h 7.801 v 1.671 h -9.844 v -15.496 h 9.738 v 1.681 h -7.695 v 4.981 h 6.716 z m 5.683,5.492 h 7.344 v 1.671 h -9.398 v -15.496 h 2.054 z m 18.455,-5.492 H 92.34 v 5.492 h 7.802 v 1.671 h -9.845 v -15.496 h 9.738 v 1.681 H 92.34 v 4.981 h 6.716 z m 15.028,2.246 c -0.192,1.639 -0.798,2.906 -1.82,3.799 -1.015,0.887 -2.366,1.33 -4.055,1.33 -1.831,0 -3.299,-0.656 -4.406,-1.969 -1.1,-1.313 -1.65,-3.069 -1.65,-5.268 v -1.49 c 0,-1.44 0.255,-2.707 0.766,-3.8 0.518,-1.093 1.249,-1.93 2.192,-2.512 0.944,-0.589 2.036,-0.883 3.278,-0.883 1.646,0 2.966,0.461 3.959,1.384 0.993,0.915 1.572,2.185 1.735,3.81 h -2.054 c -0.177,-1.235 -0.564,-2.129 -1.16,-2.682 -0.589,-0.553 -1.416,-0.83 -2.48,-0.83 -1.306,0 -2.331,0.482 -3.076,1.447 -0.738,0.965 -1.107,2.338 -1.107,4.119 v 1.501 c 0,1.682 0.351,3.019 1.054,4.012 0.702,0.993 1.685,1.49 2.948,1.49 1.135,0 2.004,-0.255 2.608,-0.766 0.61,-0.518 1.015,-1.415 1.213,-2.693 z m 13.187,-8.898 h -4.981 v 13.815 h -2.033 v -13.815 h -4.97 v -1.681 h 11.984 z"
     id="path374"
     inkscape:connector-curvature="0"
     style="fill:#35495e" />
  <path
     d="m 588.371,636.782 h -117.06 a 3.764,3.764 0 0 0 -3.764,3.764 v 34.497 a 3.764,3.764 0 0 0 3.764,3.764 h 117.06 a 3.764,3.764 0 0 0 3.764,-3.764 v -34.497 a 3.765,3.765 0 0 0 -3.764,-3.764"
     id="path376"
     inkscape:connector-curvature="0"
     style="fill:#f4f4f4" />
  <path
     d="m 471.311,636.782 v 1.255 h 117.06 a 2.514,2.514 0 0 1 2.509,2.509 v 34.497 a 2.514,2.514 0 0 1 -2.509,2.509 h -117.06 a 2.514,2.514 0 0 1 -2.509,-2.509 v -34.497 a 2.514,2.514 0 0 1 2.509,-2.509 v -2.51 a 5.02,5.02 0 0 0 -5.019,5.019 v 34.497 a 5.02,5.02 0 0 0 5.019,5.019 h 117.06 a 5.02,5.02 0 0 0 5.019,-5.019 v -34.497 a 5.02,5.02 0 0 0 -5.019,-5.019 h -117.06 z"
     id="path378"
     inkscape:connector-curvature="0"
     style="fill:#35495e" />
  <path
     d="m 502.915,654.552 h 1.435 v -6.063 h 2.557 v -1.127 h -6.548 v 1.127 h 2.557 z m -8.694,-3.966 v -2.097 h 2.476 c 0.753,0 1.223,0.291 1.223,1.037 0,0.806 -0.431,1.061 -1.223,1.061 h -2.476 z m -1.431,3.966 h 1.431 v -2.84 h 2.437 c 1.051,0 1.185,0.725 1.185,1.751 0,0.525 0.068,0.888 0.174,1.089 h 1.548 c -0.28,-0.394 -0.289,-1.196 -0.289,-1.542 0,-1.017 -0.18,-1.762 -0.992,-1.941 v -0.021 c 0.642,-0.211 1.125,-0.795 1.125,-1.733 0,-1.116 -0.562,-1.95 -2.3,-1.95 h -4.317 z m -8.865,0 h 1.547 l 0.706,-1.782 h 3.21 l 0.716,1.782 h 1.599 l -3.038,-7.191 h -1.7 z m 2.685,-2.91 1.184,-3.035 1.165,3.035 z m -6.716,2.91 h 1.431 v -6.063 h 2.561 v -1.127 h -6.553 v 1.127 h 2.561 z m -9.782,-5.168 c 0,2.949 5.025,1.397 5.025,3.181 0,0.79 -0.811,1.062 -1.68,1.062 -1.176,0 -1.919,-0.455 -1.959,-1.404 h -1.546 c 0.021,1.513 1.003,2.532 3.461,2.532 1.452,0 3.273,-0.485 3.273,-2.34 0,-3.072 -5.081,-1.451 -5.081,-3.141 0,-0.674 0.631,-0.986 1.585,-0.986 1.193,0 1.672,0.603 1.722,1.158 h 1.547 c -0.185,-2.088 -2.285,-2.287 -3.337,-2.287 -1.664,10e-4 -3.01,0.622 -3.01,2.225 m 32.954,8.73 h -29.305 c -2.118,0 -3.836,1.768 -3.836,3.948 0,2.18 1.718,3.948 3.836,3.948 h 29.305 c 2.118,0 3.835,-1.767 3.835,-3.948 0,-2.181 -1.716,-3.948 -3.835,-3.948 z m 20.974,0.248 c -1.753,-0.504 -3.03,-1.121 -3.831,-1.852 -0.795,-0.738 -1.192,-1.646 -1.192,-2.725 0,-1.22 0.486,-2.228 1.458,-3.023 0.979,-0.802 2.249,-1.203 3.81,-1.203 1.064,0 2.012,0.206 2.842,0.617 0.837,0.412 1.483,0.979 1.937,1.703 0.461,0.724 0.692,1.515 0.692,2.373 h -2.054 c 0,-0.937 -0.298,-1.671 -0.894,-2.203 -0.596,-0.539 -1.437,-0.809 -2.522,-0.809 -1.008,0 -1.795,0.224 -2.363,0.671 -0.561,0.44 -0.841,1.054 -0.841,1.841 0,0.631 0.266,1.167 0.798,1.607 0.539,0.433 1.451,0.83 2.735,1.192 1.291,0.362 2.299,0.763 3.023,1.203 0.731,0.433 1.27,0.94 1.618,1.522 0.355,0.582 0.532,1.267 0.532,2.054 0,1.256 -0.49,2.263 -1.469,3.023 -0.979,0.752 -2.288,1.128 -3.927,1.128 a 7.329,7.329 0 0 1 -2.98,-0.607 c -0.922,-0.411 -1.635,-0.972 -2.139,-1.682 -0.497,-0.71 -0.745,-1.515 -0.745,-2.416 h 2.054 c 0,0.937 0.344,1.678 1.032,2.224 0.695,0.539 1.621,0.809 2.778,0.809 1.078,0 1.905,-0.22 2.48,-0.66 0.575,-0.44 0.862,-1.039 0.862,-1.799 0,-0.759 -0.266,-1.345 -0.798,-1.756 -0.533,-0.416 -1.498,-0.828 -2.896,-1.232 z m 19.083,-6.908 h -4.981 v 13.815 h -2.032 v -13.815 h -4.971 v -1.681 h 11.984 z m 10.026,9.771 h -6.492 l -1.458,4.044 h -2.107 l 5.917,-15.496 h 1.788 l 5.928,15.496 h -2.097 z m -5.875,-1.682 h 5.268 l -2.639,-7.248 z M 564.494,659 h -3.64 v 6.269 H 558.8 v -15.496 h 5.13 c 1.745,0 3.086,0.397 4.023,1.192 0.944,0.795 1.416,1.951 1.416,3.47 0,0.965 -0.263,1.806 -0.788,2.522 -0.518,0.717 -1.242,1.252 -2.171,1.607 l 3.64,6.577 v 0.128 h -2.192 z m -3.639,-1.671 h 3.14 c 1.015,0 1.82,-0.263 2.416,-0.788 0.603,-0.525 0.905,-1.227 0.905,-2.107 0,-0.958 -0.287,-1.692 -0.862,-2.203 -0.568,-0.511 -1.391,-0.77 -2.469,-0.777 h -3.129 v 5.875 z m 21.222,-5.875 h -4.981 v 13.815 h -2.033 v -13.815 h -4.97 v -1.681 h 11.984 z"
     id="path380"
     inkscape:connector-curvature="0"
     style="fill:#35495e" />
</svg>
