<?xml version="1.0" encoding="UTF-8" standalone="no"?>
<svg
   xmlns:dc="http://purl.org/dc/elements/1.1/"
   xmlns:cc="http://creativecommons.org/ns#"
   xmlns:rdf="http://www.w3.org/1999/02/22-rdf-syntax-ns#"
   xmlns:svg="http://www.w3.org/2000/svg"
   xmlns="http://www.w3.org/2000/svg"
   xmlns:sodipodi="http://sodipodi.sourceforge.net/DTD/sodipodi-0.dtd"
   xmlns:inkscape="http://www.inkscape.org/namespaces/inkscape"
   viewBox="-131 270 406 131.44719"
   version="1.1"
   id="svg21"
   sodipodi:docname="logo.svg"
   width="406"
   height="131.44719"
   inkscape:version="0.92.4 5da689c313, 2019-01-14">
  <metadata
     id="metadata27">
    <rdf:RDF>
      <cc:Work
         rdf:about="">
        <dc:format>image/svg+xml</dc:format>
        <dc:type
           rdf:resource="http://purl.org/dc/dcmitype/StillImage" />
      </cc:Work>
    </rdf:RDF>
  </metadata>
  <defs
     id="defs25" />
  <sodipodi:namedview
     pagecolor="#ffffff"
     bordercolor="#666666"
     borderopacity="1"
     objecttolerance="10"
     gridtolerance="10"
     guidetolerance="10"
     inkscape:pageopacity="0"
     inkscape:pageshadow="2"
     inkscape:window-width="471"
     inkscape:window-height="442"
     id="namedview23"
     showgrid="false"
     inkscape:zoom="0.67180499"
     inkscape:cx="201.69543"
     inkscape:cy="65.723595"
     inkscape:window-x="0"
     inkscape:window-y="0"
     inkscape:window-maximized="0"
     inkscape:current-layer="svg21">
    <inkscape:grid
       type="xygrid"
       id="grid29"
       originx="0"
       originy="6.6894541e-07" />
  </sodipodi:namedview>
  <path
     d="m -57.98527,337.94713 c 1.91327,1.34446 4.03339,2.5338 6.46376,3.25774 l -11.94504,17.58145 -9.04927,-16.8058 h 8.22191 c 1.70643,0 3.568,-0.41368 4.91246,-1.75814 0.67223,-0.67223 1.08592,-1.44789 1.39618,-2.27525 z m -50.26227,-67.84371 c -8.01507,0 -13.96173,3.30945 -17.58144,7.6531 -3.61972,4.29194 -5.17102,9.41125 -5.17102,13.59977 v 28.44058 c 0,5.1193 1.91328,10.34203 5.32614,14.47884 2.99919,3.72313 7.39456,6.56719 12.56557,7.08429 l 35.36974,58.5876 0.93078,1.49959 h 26.21705 l 0.93078,-1.44788 23.21786,-36.92105 v 30.09531 c 0,1.91327 0.41368,3.87826 1.75814,5.58469 1.34446,1.70644 3.61971,2.68893 5.99838,2.68893 h 76.01391 c 2.74064,0 5.42957,-0.87907 7.80823,-2.0167 0.67224,-0.31026 1.29276,-0.72394 1.91328,-1.13762 1.08591,1.65473 3.25774,3.10261 5.79154,3.10261 h 19.64985 c 2.5338,0 4.80904,-1.0342 6.20522,-2.63722 0.20684,-0.25855 0.36197,-0.5171 0.56881,-0.77565 3.30945,1.91328 7.34284,3.41287 11.32452,3.41287 h 43.7985 c 7.136,-0.87907 9.92834,-2.22354 11.84162,-3.41287 1.44788,2.0167 3.46458,3.41287 5.89496,3.41287 h 19.64985 c 1.75815,0 3.20603,-0.5171 4.86075,-1.65472 1.65473,-1.13763 3.41287,-3.25774 3.41287,-6.1018 v -32.06029 h 12.92754 c 0.82736,0 1.86157,0.36197 2.5338,0.93078 0.67223,0.56881 1.08591,1.18933 1.08591,2.17183 v 28.95768 c 0,1.91327 0.72394,3.36116 1.96499,4.80904 1.24104,1.44789 3.10261,2.99919 5.68811,2.99919 h 20.16696 c 2.27525,0 3.92997,-1.08591 5.27443,-2.37867 1.34447,-1.29275 2.48209,-3.0509 2.48209,-5.37785 v -40.02365 l -0.0517,-0.20685 c -0.36197,-2.89576 -0.62052,-6.72231 -3.51629,-11.53136 h 2.5338 c 5.94667,0.25855 11.11768,-2.99919 14.89252,-6.98087 3.77484,-4.03339 6.36035,-8.94585 6.36035,-13.70319 v -29.99188 c 0,-4.75733 -2.0167,-9.87664 -5.79154,-14.01345 -3.77484,-4.13681 -9.46295,-7.18771 -16.44382,-7.18771 h -43.95363 c -4.75733,0 -8.89414,1.75814 -12.2553,4.03339 -0.20684,-0.46539 -0.41368,-0.87907 -0.72394,-1.34446 C 192.18842,271.34446 190.32686,270 188.10332,270 H 143.6326 c -4.0334,0 -7.34285,1.18933 -9.82493,2.58551 V 270 H 56.70784 v 39.81681 h -9.82493 c -0.62052,0 -1.86156,-0.25855 -2.58551,-0.72394 -0.72394,-0.46539 -1.0342,-0.77565 -1.0342,-1.86157 V 277.23942 C 43.2632,272.84406 39.43665,270 35.50668,270 H 15.85682 c -2.32695,0 -4.24023,1.18933 -5.53298,2.58551 -0.20684,0.20684 -0.31026,0.46539 -0.46539,0.67223 -2.79235,-1.60302 -6.05009,-3.15432 -10.03177,-3.15432 h -46.53913 c -4.65392,0 -8.37705,1.91327 -11.27281,4.03339 -0.31026,-0.67223 -0.77566,-1.29275 -1.34447,-1.91327 -1.08591,-1.13763 -2.89577,-2.12012 -4.96417,-2.12012 h -43.95363 z"
     id="path2"
     inkscape:connector-curvature="0"
     style="fill:#ffffff" />
  <path
     d="m -60.6742,280.44545 c 2.58551,-2.5338 7.6531,-7.23942 13.96174,-7.23942 h 46.53913 c 4.29194,0 7.85994,2.43037 11.37623,4.65391 0.15513,-2.0684 2.06841,-4.65391 4.65391,-4.65391 h 19.64986 c 2.32696,0 4.65391,1.75814 4.65391,4.13681 v 29.99188 c 0,4.18853 4.18852,5.73983 6.72232,5.68812 h 12.92754 v -39.81681 h 70.8429 v 5.68811 c 1.5513,-1.49959 5.6364,-5.68811 12.92754,-5.68811 h 44.47072 c 2.32696,0 3.51629,2.48209 3.61971,4.13681 v 2.58551 c 3.10261,-3.25774 8.48046,-6.72232 14.47884,-6.72232 h 43.95363 c 12.30701,0 19.13275,10.39374 19.13275,18.09855 v 29.99188 c 0,6.92916 -8.63559,18.09855 -18.09855,17.58145 h -8.79073 c 6.36035,6.87745 6.20522,10.75571 6.72232,14.99595 v 39.81681 c 0,2.22353 -2.5855,4.65391 -4.65391,4.65391 H 224.2487 c -2.89577,0 -4.65391,-3.15432 -4.65391,-4.65391 v -28.95768 c 0,-3.92997 -3.61971,-6.20522 -6.72232,-6.20522 h -16.03014 v 35.1629 c 0,3.20603 -3.77485,4.65391 -5.17102,4.65391 h -19.64985 c -1.80986,0 -3.77485,-1.65472 -4.65392,-4.65391 -3.36116,1.60301 -3.15432,3.36116 -13.44464,4.65391 h -43.43652 c -4.34365,0 -10.03177,-2.68893 -12.92753,-5.17101 0,2.5855 -1.70644,5.22272 -5.17102,5.17101 H 72.73798 c -3.36116,0 -4.13682,-3.36116 -4.13682,-5.17101 -1.96498,2.32695 -7.29113,5.17101 -11.37623,5.17101 h -76.01391 c -3.36116,0 -4.65392,-2.27525 -4.65392,-5.17101 v -40.85102 l -28.95768,46.02203 h -22.75246 l -36.19711,-59.98377 c -9.82492,0 -16.54724,-9.98006 -16.54724,-18.61565 v -28.44058 c 0,-6.72232 5.22272,-18.09855 19.64985,-18.09855 h 43.95363 c 2.37866,0 3.61971,2.01669 3.61971,3.10261 z m 14.47884,58.43246 c -6.15351,0 -11.11768,-3.61971 -14.47884,-7.23942 v 3.61971 c -0.0517,2.5338 -1.13762,3.61971 -3.61971,3.61971 h -13.44464 l 13.96174,25.85508 z"
     id="path4"
     inkscape:connector-curvature="0" />
  <linearGradient
     id="a"
     x1="69"
     x2="819"
     y1="399"
     y2="399"
     gradientUnits="userSpaceOnUse"
     gradientTransform="matrix(0.51710146,0,0,-0.51710146,-158.92348,542.09879)">
    <stop
       offset="0"
       stop-color="#F090A7"
       id="stop6" />
    <stop
       offset=".1495"
       stop-color="#EF7B75"
       id="stop8" />
    <stop
       offset=".2564"
       stop-color="#EE6E5E"
       id="stop10" />
    <stop
       offset=".5894"
       stop-color="#FCE72C"
       id="stop12" />
    <stop
       offset=".8131"
       stop-color="#ACDEE4"
       id="stop14" />
    <stop
       offset="1"
       stop-color="#A3DDF2"
       id="stop16" />
  </linearGradient>
  <path
     d="m 67.56696,337.32661 v 16.03014 H 22.06203 c -5.22272,0 -4.91246,5.17102 0,5.17102 h 29.99189 c 23.37298,0 23.37298,34.6458 0,34.6458 H 4.99768 v -15.51305 h 44.98783 c 5.37786,0 5.01588,-5.17101 0,-5.17101 H 22.06203 c -23.99351,0 -23.9418,-35.1629 0,-35.1629 z m 104.4545,0 h 53.26145 c 9.56637,0 18.09855,7.44626 18.09855,17.58145 v 38.26551 H 224.2487 v -33.0945 c 0,-5.53298 -3.30945,-6.6189 -7.23942,-6.72232 h -25.85507 v 39.81682 h -19.13275 z m -50.15885,15.56475 c -5.06759,0.0517 -7.23942,3.20603 -7.23942,7.18771 v 10.34203 c 0,4.29194 3.67142,7.23942 7.23942,7.23942 h 21.20116 c 2.5338,0 6.72232,-1.70643 6.72232,-7.23942 v -10.34203 c 0,-3.46458 -2.12011,-7.34284 -6.72232,-7.29113 z m -7.23942,-15.56475 h 35.68 c 11.32453,0 18.61566,7.70481 18.61566,17.06435 v 20.68406 c 0,14.68568 -12.66899,18.09855 -18.61566,18.09855 h -35.68 c -13.39292,0 -19.13275,-10.80742 -19.13275,-18.09855 v -20.68406 c 0,-11.89334 10.65229,-17.06435 19.13275,-17.06435 z m -41.88521,0 h 19.13275 v 55.84696 H 72.73798 Z m -92.04406,0 h 19.13275 v 55.84696 h -19.13275 z m -86.87305,0 h 21.20116 l 20.68406,36.1971 24.30377,-36.1971 h 17.58145 l -33.0945,55.84696 H -72.8778 Z M 64.46435,278.37704 h 60.50087 v 13.96174 H 83.08 v 5.17102 h 41.88522 v 13.96174 H 83.08 c 0,5.1193 3.77484,7.23942 7.75653,7.23942 h 34.12869 V 333.7069 H 81.0116 c -9.82493,0 -16.59896,-8.1702 -16.59896,-17.06435 l 0.0517,-38.26551 z m -48.60754,0 h 18.61566 v 33.0945 c 0,4.75733 3.568,7.29113 7.75652,7.23942 H 62.39595 V 333.7069 H 33.43826 c -8.22191,0 -17.58145,-3.67142 -17.58145,-17.06435 z m 171.67769,0 h -41.88522 c -12.04846,0 -17.01264,11.06597 -17.06435,17.06435 v 20.68406 c 0,13.39293 11.01426,18.20197 17.06435,18.09855 h 41.88522 v -15.51304 h -32.06029 c -2.27525,0 -7.75652,-1.70644 -7.75652,-6.72232 v -10.85913 c 0,-5.17102 3.87826,-7.23942 7.75652,-7.23942 h 32.06029 z m 29.99188,15.56476 c -5.06759,0.0517 -7.23942,3.20603 -7.23942,7.18771 v 10.34203 c 0,4.29194 3.67142,7.23942 7.23942,7.23942 h 21.20116 c 2.5338,0 6.72232,-1.70644 6.72232,-7.23942 v -10.34203 c 0,-3.46458 -2.12011,-7.34284 -6.72232,-7.29113 z m -7.23942,-15.56476 h 35.68 c 11.32453,0 18.61566,7.70481 18.61566,17.06435 v 20.68406 c 0,14.68568 -12.66899,18.09855 -18.61566,18.09855 h -35.68 c -13.39292,0 -19.13275,-10.80742 -19.13275,-18.09855 v -20.68406 c 0,-11.89333 10.65229,-17.06435 19.13275,-17.06435 z M -34.81913,293.9418 c -5.06759,0.0517 -7.23942,3.20603 -7.23942,7.18771 v 10.34203 c 0,4.29194 3.67142,7.23942 7.23942,7.23942 h 21.20116 c 2.5338,0 6.72232,-1.70644 6.72232,-7.23942 v -10.34203 c 0,-3.46458 -2.12012,-7.34284 -6.72232,-7.29113 z m -7.23942,-15.56476 h 35.68 c 11.32452,0 18.61565,7.70481 18.61565,17.06435 v 20.68406 c 0,14.68568 -12.66898,18.09855 -18.61565,18.09855 h -35.68 c -13.39293,0 -18.61565,-10.80742 -18.61565,-18.09855 v -20.68406 c 0,-11.89333 10.13519,-17.06435 18.61565,-17.06435 z m -22.23536,0 h -41.88522 c -12.04846,0 -17.01264,11.06597 -17.06435,17.06435 v 20.68406 c 0,13.39293 11.01426,18.20197 17.06435,18.09855 h 41.88522 v -15.51304 h -32.577394 c -2.275246,0 -7.756526,-1.70644 -7.756526,-6.72232 v -10.85913 c 0,-5.17102 3.87826,-7.23942 7.756526,-7.23942 h 32.577394 z"
     id="path19"
     inkscape:connector-curvature="0"
     style="fill:url(#a)" />
</svg>
